<?xml version="1.0" standalone="no"?>
<!DOCTYPE svg PUBLIC "-//W3C//DTD SVG 1.1//EN" "http://www.w3.org/Graphics/SVG/1.1/DTD/svg11.dtd">
<svg xmlns="http://www.w3.org/2000/svg">
<defs >
<font id="ChauPhilomeneOne" horiz-adv-x="397" ><font-face
    font-family="Chau Philomene One"
    units-per-em="1000"
    panose-1="2 0 8 6 4 0 0 2 0 3"
    ascent="1033"
    descent="-334"
    alphabetic="0" />
<glyph unicode=" " glyph-name="space" horiz-adv-x="266" />
<glyph unicode="!" glyph-name="exclam" horiz-adv-x="247" d="M227 723L162 198L63 209L47 225L63 532L95 752L211 739L227 723ZM23 -16T23 56T95 128T167 56T95 -16Z" />
<glyph unicode="&quot;" glyph-name="quotedbl" horiz-adv-x="323" d="M100 523H74L45 576L40 710L58 752H116L134 710L129 576L100 523ZM249 523H223L194 576L189 710L207 752H265L283 710L278 576L249 523Z" />
<glyph unicode="#" glyph-name="numbersign" horiz-adv-x="723" d="M26 252H141L170 372H97L81 388V496H201L256 720H367L383 704L334 496H455L510 720H619L635 704L588 496H687L703 480V372H560L532 252H632L648 236V128H504L441 -146H317L301 -130L364 128H250L187
-146H62L46 -130L110 128H42L26 144V252ZM306 372L278 252H395L424 372H306Z" />
<glyph unicode="$" glyph-name="dollar" horiz-adv-x="393" d="M149 505Q149 489 166 479T195 464T228 448Q302 416 338 377T375 300Q375 238 350 193T277 128L278 -1H154L138 15V122Q65 136 21 193Q17 195 17 199T18 209T42 241T77 268Q81 268 85 264Q138 222
188 222Q216 222 230 238T244 273T228 304T189 327T163 340T158 343T151 346Q100 371 65 408T29 492Q29 558 57 593T144 639L146 768H257L273 752V634Q308 624 327 610H328Q336 605 337 598T336 568Q326 510 312 510Q309 510 306 512L268 531Q225 548 194 548Q149
546 149 505Z" />
<glyph unicode="%" glyph-name="percent" horiz-adv-x="698" d="M179 16L407 720H509L525 704L304 0H195L179 16ZM24 453T24 538T52 656T144 690T235 657T264 538T236 420T144 386T53 419ZM107 538Q107 469 144 469Q159 469 170 491T181 549T175 595T148 607T118
587T107 538ZM432 83T432 168T460 286T552 320T643 287T672 168T644 50T552 16T461 49ZM515 168Q515 99 552 99Q567 99 578 121T589 179T583 225T556 237T526 217T515 168Z" />
<glyph unicode="&amp;" glyph-name="ampersand" horiz-adv-x="777" d="M711 411H583L584 -223V-224Q584 -230 582 -232Q578 -240 545 -240T476 -235T440 -224V-208L441 411H220Q188 411 175 388T159 307H304Q321 307 324 298T328 278Q328 206 307 206H158Q161
132 176 107T223 82T298 88T344 94Q354 91 354 60T351 15T339 -2Q291 -16 232 -16Q111 -16 67 40T22 248Q22 330 31 380T66 460T129 501T230 512H711Q759 512 759 481Q759 447 749 429T711 411Z" />
<glyph unicode="&apos;" glyph-name="quotesingle" horiz-adv-x="162" d="M94 523H68L39 576L34 710L52 752H110L128 710L123 576L94 523Z" />
<glyph unicode="(" glyph-name="parenleft" horiz-adv-x="343" d="M305 -37V-176H304Q26 -176 26 355Q26 602 84 719T288 836L290 701Q240 701 218 651Q193 595 189 538T184 445T183 355T183 269T185 193T190 125T200 69T215 23T236 -9Q260 -37 305 -37Z" />
<glyph unicode=")" glyph-name="parenright" horiz-adv-x="342" d="M37 -176V-37Q82 -37 106 -9Q133 24 140 61T151 124T156 193T158 268T159 355T158 445T154 525T144 597T124 651Q102 701 52 701L54 836Q199 836 257 719T316 355Q316 -176 38 -176H37Z" />
<glyph unicode="*" glyph-name="asterisk" horiz-adv-x="458" d="M168 568H275L292 551V476L369 521L424 430L418 407L353 370L433 324L376 225L361 223L292 262V171H184L168 187V263L89 217L33 314L35 329L106 369L25 416L81 508L104 514L168 477V568Z" />
<glyph unicode="+" glyph-name="plus" horiz-adv-x="427" d="M275 432H396L412 416V308H275V171H167L151 187V308H31L15 324V432H151V567L258 568L275 551V432Z" />
<glyph unicode="," glyph-name="comma" horiz-adv-x="197" d="M40 56Q40 128 112 128T184 56Q184 17 165 0L65 -128L39 -111V-42L57 3Q40 20 40 56Z" />
<glyph unicode="-" glyph-name="hyphen" horiz-adv-x="383" d="M337 308H61L45 324V432H321L337 416V308Z" />
<glyph unicode="." glyph-name="period" horiz-adv-x="214" d="M35 -16T35 56T107 128T179 56T107 -16Z" />
<glyph unicode="/" glyph-name="slash" horiz-adv-x="394" d="M8 -130L259 876H369L385 860L148 -146H24L8 -130Z" />
<glyph unicode="0" glyph-name="zero" horiz-adv-x="520" d="M172 742Q207 752 260 752Q349 752 395 722T462 611T483 371Q483 152 436 68T261 -16T85 68T37 354T65 639T172 742ZM182 495T181 464T180 354T184 224T196 155T217 138Q250 138 267 139T301 150T324
172T336 214Q343 256 343 362T339 520T326 589T304 607Q272 607 254 605T220 593T198 570T187 527Z" />
<glyph unicode="1" glyph-name="one" horiz-adv-x="422" d="M398 0H59L43 16V124H157V589L68 571L33 690L268 752L284 736L300 432L301 124H382L398 108V0Z" />
<glyph unicode="2" glyph-name="two" horiz-adv-x="475" d="M274 554L275 594Q275 613 271 617T261 624Q251 629 231 629T198 629T179 628T164 626T153 623Q138 618 130 616H81L53 717Q107 752 218 752Q287 752 327 743T387 706T412 647T418 583T418 536T419 517T416
496T411 469T400 437T382 396T355 348T318 288Q255 191 209 131H419L435 115V0H39V124Q191 341 232 413T274 554Z" />
<glyph unicode="3" glyph-name="three" horiz-adv-x="484" d="M237 629Q160 629 116 616H67L39 717Q93 752 204 752Q342 752 388 700Q412 673 421 636T430 541Q430 450 388 395Q450 344 450 212Q450 159 440 121T402 50Q348 -16 194 -16Q148 -16 55 -6V118Q151
112 207 112T279 130T296 213V261Q296 286 293 290T286 300T275 308T259 312Q245 315 207 315H135V443Q202 443 226 449T258 466Q276 490 276 542Q276 629 237 629Z" />
<glyph unicode="4" glyph-name="four" horiz-adv-x="489" d="M461 308H403V0H275L259 16V308H36L20 324L21 752H130L146 736L162 432H259L260 752H371L387 736L403 432H445L461 416V308Z" />
<glyph unicode="5" glyph-name="five" horiz-adv-x="442" d="M44 752H369L385 736V628H166L183 454Q193 453 216 452T251 449T280 446T308 440Q334 434 347 423Q409 372 409 226Q409 -16 137 -16Q117 -16 95 -13T46 -6V118Q142 112 144 112Q216 112 235 135T255
211T253 280T240 310T209 327T150 330H60L44 346V752Z" />
<glyph unicode="6" glyph-name="six" horiz-adv-x="455" d="M33 250Q33 329 52 429T90 594T144 768L265 738L281 722L261 675Q220 594 209 504L233 514Q312 514 353 493T414 416T433 250Q433 100 390 42T233 -16T76 42T33 250ZM169 250Q169 82 201 82Q245 82 266
96Q277 104 281 125Q289 167 289 250Q289 418 257 418Q197 418 183 390T169 250Z" />
<glyph unicode="7" glyph-name="seven" horiz-adv-x="447" d="M61 752H418L433 736V629L365 432L179 0H52L36 16L298 628H77L61 644V752Z" />
<glyph unicode="8" glyph-name="eight" horiz-adv-x="487" d="M455 222Q455 113 403 49T243 -16Q32 -16 32 222Q32 269 57 317T124 400Q93 433 74 476T54 562Q54 652 100 711T239 770Q433 770 433 562Q433 475 362 400Q404 367 429 318T455 222ZM188 577Q188 509
243 463Q300 509 300 577Q300 621 284 646T244 671T204 646T188 577ZM205 297T188 271T170 203T188 129T243 96T298 129T317 203T299 270T243 329Q205 297 188 271Z" />
<glyph unicode="9" glyph-name="nine" horiz-adv-x="454" d="M424 498Q424 416 407 337T373 213T323 96T280 0L264 -16L172 16L156 32Q157 34 178 74T210 137Q244 210 248 244L224 234Q145 234 104 255T43 332T24 498Q24 649 67 709T224 770T380 710T424 498ZM286
498Q286 655 255 655Q198 655 184 629T170 498Q170 347 201 347Q259 347 272 372T286 498Z" />
<glyph unicode=":" glyph-name="colon" horiz-adv-x="221" d="M38 -16T38 56T110 128T182 56T110 -16ZM38 368T38 440T110 512T182 440T110 368Z" />
<glyph unicode=";" glyph-name="semicolon" horiz-adv-x="206" d="M44 368T44 440T116 512T188 440T116 368ZM42 56Q42 128 114 128T186 56Q186 17 167 0L67 -128L41 -111V-42L59 3Q42 20 42 56Z" />
<glyph unicode="&lt;" glyph-name="less" horiz-adv-x="396" d="M365 79L301 40L247 53L29 331L9 380L29 429L231 723L285 736L349 697L156 380L365 79Z" />
<glyph unicode="=" glyph-name="equal" horiz-adv-x="438" d="M45 432V556H377L393 540V449L376 432H45ZM45 186V310H377L393 294V203L376 186H45Z" />
<glyph unicode="&gt;" glyph-name="greater" horiz-adv-x="396" d="M95 40L31 79L240 380L47 697L111 736L165 723L367 429L387 380L367 331L149 53L95 40Z" />
<glyph unicode="?" glyph-name="question" horiz-adv-x="438" d="M127 297Q127 323 170 368Q237 437 256 467T276 543T265 608T211 629Q144 629 100 616H51L23 717Q77 752 199 752T370 702T420 537Q420 509 414 490Q401 446 263 291V202H143L127 218V297ZM124
-16T124 56T196 128T268 56T196 -16Z" />
<glyph unicode="@" glyph-name="at" horiz-adv-x="599" d="M203 428L204 351Q204 236 211 184T236 111T300 90T451 121T559 153V27Q551 26 504 10Q370 -37 299 -37Q150 -37 94 47T37 350Q37 511 60 591T139 703T306 735Q431 733 492 674Q544 622 556 476Q561 415
561 318V258H394Q352 258 325 287T298 369T323 451T389 482Q379 609 304 609Q265 609 244 588Q222 566 216 542T208 504Q203 477 203 428Z" />
<glyph unicode="A" glyph-name="A" horiz-adv-x="539" d="M298 769Q367 769 373 738L441 431L510 22Q512 12 512 4T507 -10T473 -16Q384 -16 378 22L343 228H203L172 21Q169 0 165 -7T152 -15T126 -16H98Q63 -16 54 -12Q32 -4 29 6Q28 11 28 15T49 147T100 452T140
684T151 746Q155 769 298 769ZM268 638L222 349H321L268 638Z" />
<glyph unicode="B" glyph-name="B" horiz-adv-x="560" d="M234 768Q387 768 446 718T505 559T462 395Q525 343 525 220Q525 -16 254 -16Q222 -16 45 0V752Q149 768 234 768ZM374 153T374 221T359 303T282 317T203 315T186 303V124Q186 113 199 111T274 109T354
131ZM204 441Q291 441 322 462T354 555Q354 596 337 622T299 649Q214 649 196 638Q190 634 186 626V457Q186 445 190 443Q197 441 204 441Z" />
<glyph unicode="C" glyph-name="C" horiz-adv-x="498" d="M436 118Q461 118 461 86T460 38Q456 2 428 -3Q339 -16 296 -16Q147 -16 91 68T35 371Q35 531 59 615T138 734T301 768T460 734Q470 727 470 717T461 680T443 641T425 629T411 630Q336 645 282 645T211
585T194 391T201 203T227 129T287 108T381 113T436 118Z" />
<glyph unicode="D" glyph-name="D" horiz-adv-x="571" d="M264 768Q373 768 429 737T510 625T535 383Q535 161 477 73T264 -16Q226 -16 45 0V751Q197 768 264 768ZM317 649Q230 649 208 646T186 626V124Q186 113 199 111T254 109T313 113T344 129T364 174Q374
238 374 372Q374 649 317 649Z" />
<glyph unicode="E" glyph-name="E" horiz-adv-x="483" d="M378 455Q418 455 418 419Q418 370 412 352T381 334H185V121H416Q440 120 449 112T458 86Q458 37 449 19T413 0H61L45 16V752H400Q443 751 443 720Q442 693 440 678T428 647T397 632H174L185 455H378Z" />
<glyph unicode="F" glyph-name="F" horiz-adv-x="439" d="M45 0V752H390Q443 751 443 723Q443 672 432 652T385 632H173L183 455H392Q433 455 433 423Q433 371 424 353T386 334H185V0Q185 -6 184 -8Q179 -16 146 -16T79 -11T45 0Z" />
<glyph unicode="G" glyph-name="G" horiz-adv-x="547" d="M298 -16Q149 -16 93 68T36 371Q36 530 61 615T140 734T295 768T449 741Q471 730 471 711Q471 705 462 677T444 639T425 629T370 637T292 645T246 639T223 617T209 582T200 528Q196 481 196 343T212 156T289
108L371 113V331Q372 351 384 357T429 364T477 357T495 322L512 126V0Q385 -16 298 -16Z" />
<glyph unicode="H" glyph-name="H" horiz-adv-x="533" d="M348 734Q348 755 357 761T397 768Q469 768 470 731L489 431V21Q489 4 488 -2Q484 -16 449 -16Q348 -16 348 20V310H184L185 21Q185 4 184 -2Q180 -16 145 -16Q45 -16 45 22V733Q45 755 54 761T94 768Q166
768 167 733L184 430H348V734Z" />
<glyph unicode="I" glyph-name="I" horiz-adv-x="325" d="M59 121H95V632H65Q45 633 38 645Q31 659 31 696Q31 752 64 752H241Q285 752 285 721Q285 632 250 632H225L235 432L236 121H266Q301 120 301 89Q299 0 252 0H63Q45 1 38 13Q31 27 31 65Q31 121 59 121Z" />
<glyph unicode="J" glyph-name="J" horiz-adv-x="289" d="M32 -113Q76 -113 91 -53T106 163L107 732Q107 754 117 761T158 768Q230 768 231 731L247 432V165Q247 -4 226 -90Q213 -140 189 -167Q138 -224 32 -224Q14 -223 8 -211T1 -168T7 -125T32 -113Z" />
<glyph unicode="K" glyph-name="K" horiz-adv-x="583" d="M362 732Q377 768 444 768T511 743Q511 738 508 732L357 417L548 21Q555 6 555 0T552 -11T513 -16T437 -8T387 21L212 386V416L362 732ZM45 20V731Q45 753 56 760T97 768Q169 768 170 730L185 432L186
22Q186 4 184 -2Q181 -16 146 -16Q45 -16 45 20Z" />
<glyph unicode="L" glyph-name="L" horiz-adv-x="435" d="M45 731Q45 753 55 760T96 768Q168 768 169 732L184 432L185 121H379Q428 121 428 85Q428 20 409 7Q399 0 383 0H61L45 16V731Z" />
<glyph unicode="M" glyph-name="M" horiz-adv-x="597" d="M412 21V475L347 354H246L185 473V22Q185 4 184 -2Q180 -16 145 -16Q45 -16 45 21V730Q45 768 114 768T197 731L298 473L404 732Q412 754 423 761T464 768Q536 768 537 729L553 431V28Q553 -2 548 -9T512
-16T462 -14T428 -4T412 21Z" />
<glyph unicode="N" glyph-name="N" horiz-adv-x="543" d="M45 24V731Q45 768 117 768Q132 768 140 767T162 758T185 733L364 313L358 732Q358 768 430 768Q460 768 471 761T483 732L499 431V21Q499 4 498 -2Q494 -16 459 -16Q394 -16 381 21L184 436L185 22Q185
4 184 -2Q180 -16 145 -16Q45 -16 45 24Z" />
<glyph unicode="O" glyph-name="O" horiz-adv-x="597" d="M37 371Q37 530 62 615T141 734T299 768T456 734T535 616T560 371Q560 152 504 68T299 -16T94 68T37 371ZM198 520T197 482T196 351T202 197T218 116T245 96Q333 96 360 114Q370 121 379 137T393 170T400
220Q404 263 404 374T399 550T383 638T355 662Q315 662 291 659T247 642T219 612T204 558Z" />
<glyph unicode="P" glyph-name="P" horiz-adv-x="477" d="M45 22V752Q146 768 223 768Q359 768 412 711T466 532Q466 388 394 335Q347 301 302 293Q244 284 170 284V23Q170 4 168 -2Q165 -16 130 -16Q45 -16 45 22ZM177 422T179 422T202 421T240 422T276 428T304
446Q322 476 322 529T306 615T272 649Q200 649 185 646T170 626V436Q170 425 173 424Z" />
<glyph unicode="Q" glyph-name="Q" horiz-adv-x="589" d="M32 371Q32 530 57 615T136 734T294 768T451 734T530 616T555 371Q555 152 499 68T294 -16T89 68T32 371ZM193 520T192 482T191 351T197 197T213 116T240 96Q328 96 356 114Q365 121 374 137T388 170T395
220Q399 263 399 374T394 550T378 638T350 662Q310 662 286 659T242 642T214 612T199 558ZM513 -165T499 -176T439 -187T289 -176T127 -165L111 -116Q112 -81 130 -69T189 -56T332 -66T489 -76L514 -133Q513 -165 499 -176Z" />
<glyph unicode="R" glyph-name="R" horiz-adv-x="532" d="M45 24V752Q147 768 222 768Q361 768 414 716T467 544Q467 376 373 320L499 35Q510 10 510 3T508 -7Q504 -16 474 -16Q377 -16 360 22L246 286Q221 284 171 284V26Q171 -2 166 -9T131 -16Q45 -16 45 24ZM187
421Q267 421 295 443T323 545Q323 593 308 621T273 649Q202 649 187 646T171 626V436Q171 423 176 422T187 421Z" />
<glyph unicode="S" glyph-name="S" horiz-adv-x="522" d="M27 99T27 112T50 149T81 175T96 177T119 168Q193 110 249 110T322 136T339 204T309 272T211 335T91 431T40 553Q40 665 98 716T270 768Q339 768 405 735Q440 721 438 706Q437 700 436 688Q417 634 407
626Q404 624 394 624T338 640T262 657T209 635T188 573T224 501T335 433Q414 392 453 348T493 230Q493 -16 285 -16Q130 -16 48 73Q27 99 27 112Z" />
<glyph unicode="T" glyph-name="T" horiz-adv-x="470" d="M172 21V632H47Q23 633 16 645Q7 659 7 695Q7 752 41 752H405Q463 752 463 721Q463 632 415 632L303 633L312 430L313 23Q313 4 312 -2Q308 -16 273 -16Q172 -16 172 21Z" />
<glyph unicode="U" glyph-name="U" horiz-adv-x="550" d="M367 722Q367 750 379 759T429 768T481 756T497 698L509 429Q509 414 509 399Q509 244 489 153T419 23T277 -16Q143 -16 92 68T41 370V700Q41 743 53 755T105 768T158 755T174 690L188 431Q188 178 208
130Q216 109 231 109Q266 109 285 110T322 122T347 147T360 194Q367 240 367 370V722Z" />
<glyph unicode="V" glyph-name="V" horiz-adv-x="576" d="M485 768Q552 768 552 739Q552 734 551 729L383 21Q378 -2 370 -9T322 -16Q229 -16 219 22L25 731Q24 735 24 739Q24 768 92 768Q125 768 143 760T168 727L304 194L424 732Q428 753 441 760T485 768Z" />
<glyph unicode="W" glyph-name="W" horiz-adv-x="948" d="M32 740Q32 768 99 768T176 731L311 194L407 632Q411 652 424 659T468 666Q548 666 559 623L667 194L786 731Q791 753 804 760T855 768T904 763T916 740Q916 736 915 731L748 20Q743 -1 734 -8T703 -16Q596
-16 586 20L480 375L390 22Q385 0 375 -8T345 -16Q238 -16 229 20L33 734Q32 737 32 740Z" />
<glyph unicode="X" glyph-name="X" horiz-adv-x="598" d="M378 731Q390 768 457 768T525 742Q525 736 521 727L372 414L562 21Q569 6 569 0T566 -11T527 -16T451 -8T402 22L299 282L195 22Q186 -1 177 -8T148 -16T110 -14Q35 -8 35 14Q35 17 37 21L226 415L77
731Q75 737 75 742Q75 768 141 768T220 731L299 522L378 731Z" />
<glyph unicode="Y" glyph-name="Y" horiz-adv-x="575" d="M21 745Q21 768 87 768T168 731L305 492L424 734Q432 754 446 761T490 768Q558 768 558 743Q558 737 555 731L360 349V21Q360 4 358 -2Q355 -16 320 -16Q243 -16 243 22V349L25 732Q21 739 21 745Z" />
<glyph unicode="Z" glyph-name="Z" horiz-adv-x="530" d="M450 0H60L44 16V122L328 632H72Q46 633 38 644Q30 658 30 690T37 737T67 752H469L485 736V648L208 121H445Q478 120 489 113T501 89Q499 0 450 0Z" />
<glyph unicode="[" glyph-name="bracketleft" horiz-adv-x="369" d="M319 -140H59L43 -124L51 889L67 905H327L343 889V797L327 781H162L180 431L182 -16H319L335 -32V-124L319 -140Z" />
<glyph unicode="\" glyph-name="backslash" horiz-adv-x="372" d="M364 -146H228L12 769V876H117L364 -114V-146Z" />
<glyph unicode="]" glyph-name="bracketright" horiz-adv-x="368" d="M311 -140H51L35 -124V-32L51 -16H187L192 781H43L27 797V889L43 905H287L303 889L323 431L327 -124L311 -140Z" />
<glyph unicode="^" glyph-name="asciicircum" horiz-adv-x="377" d="M353 556L314 524L189 637L64 524L25 556L38 610L140 732L189 752L238 732L340 610L353 556Z" />
<glyph unicode="_" glyph-name="underscore" horiz-adv-x="487" d="M45 0V124H426L442 108V16L426 0H45Z" />
<glyph unicode="`" glyph-name="grave" horiz-adv-x="240" d="M212 557L166 536L6 708L114 768L156 736L213 612L212 557Z" />
<glyph unicode="a" glyph-name="a" horiz-adv-x="435" d="M274 31Q222 -16 182 -16T116 -11T71 13T43 67T35 160Q35 241 114 271L257 308Q256 373 244 392T192 411T123 398L88 384H87Q78 379 71 392Q53 430 53 451T56 475T60 479Q110 512 189 512T312 491T374
415T394 250L392 0Q392 -6 390 -8Q386 -16 352 -16Q290 -16 290 0L274 31ZM146 158Q146 86 188 82Q217 82 230 92Q258 111 258 234Q206 227 176 206T146 158Z" />
<glyph unicode="b" glyph-name="b" horiz-adv-x="451" d="M227 512Q348 512 391 459T435 255T401 45T292 -16Q241 -16 170 -4L147 0Q120 -16 45 -16V752Q45 768 80 768T138 764T162 752L179 512H227ZM179 416V80H275Q286 80 288 122T291 260T278 385T227 416H179Z" />
<glyph unicode="c" glyph-name="c" horiz-adv-x="411" d="M371 478Q378 474 378 460T371 421Q358 377 343 384H342L307 398Q278 411 237 411T184 377T172 246T186 116T242 82Q301 82 334 89T368 96Q375 98 379 88T384 41T368 0Q306 -16 246 -16Q125 -16 81 41T36
250Q36 359 55 414T118 491T243 512T370 478H371Z" />
<glyph unicode="d" glyph-name="d" horiz-adv-x="451" d="M160 -16Q86 -16 52 44T17 255T60 458T225 512H273V752Q273 768 308 768T366 764T390 752L407 433V0Q407 -6 406 -8Q401 -16 369 -16T315 -12T292 0L273 31Q244 12 232 4Q199 -16 160 -16ZM188 416T175
386T161 283T161 187T163 134Q165 80 177 80Q213 80 273 116V416H225Q188 416 175 386Z" />
<glyph unicode="e" glyph-name="e" horiz-adv-x="454" d="M227 -16Q120 -16 79 42T37 250Q37 358 56 414T113 491T227 512T340 491T397 413T415 251Q415 245 415 239T392 228T335 223H181Q183 106 198 90Q207 82 227 82Q358 82 406 95Q408 96 409 96Q416 98 420
88T425 41T409 0Q368 -16 227 -16ZM181 381V303H282Q278 419 259 419Q225 419 203 409T181 381Z" />
<glyph unicode="f" glyph-name="f" horiz-adv-x="369" d="M367 654Q338 667 297 667T244 629T232 496H328Q344 496 344 456T328 416H240V-224Q240 -230 238 -232Q234 -240 201 -240T133 -235T99 -224V416H19Q7 416 6 421T4 434Q4 477 19 480L99 496Q99 657 141
712T306 768Q385 768 430 734H431Q440 729 440 717T436 688T427 659T416 641T408 637T404 639L367 654Z" />
<glyph unicode="g" glyph-name="g" horiz-adv-x="486" d="M254 -48L169 -49Q107 -49 95 -39T82 -15T87 16L122 122Q74 143 53 191T32 311T41 420T75 478T136 505T232 512H450Q466 512 466 472Q466 452 450 448L447 447L404 439Q432 393 432 320Q432 205 388 155T232
104H210L201 57Q314 55 348 49T395 35T419 11T433 -26T436 -81Q436 -164 390 -202T226 -240Q171 -240 88 -224Q73 -221 73 -173T87 -125Q87 -125 88 -125H89Q179 -135 232 -135T299 -127T312 -88T301 -52T254 -48ZM192 416T179 403T165 328T170 239T182 207T211
202T249 203T276 218T289 252T291 318T286 385T274 412T257 416Q192 416 179 403Z" />
<glyph unicode="h" glyph-name="h" horiz-adv-x="464" d="M302 512Q376 512 410 466T445 304V0Q445 -6 444 -8Q439 -16 406 -16T337 -11T302 0L301 304Q301 416 285 416Q249 416 189 380V0Q189 -6 188 -8Q183 -16 150 -16T81 -11T45 0V752Q45 768 80 768T142 764T169
752L187 463Q263 512 302 512Z" />
<glyph unicode="i" glyph-name="i" horiz-adv-x="227" d="M47 0V496Q47 512 83 512T151 507T183 496V0Q183 -6 182 -8Q177 -16 144 -16T79 -11T47 0ZM37 624T37 696T109 768T181 696T109 624Z" />
<glyph unicode="j" glyph-name="j" horiz-adv-x="216" d="M41 496Q41 512 77 512T144 507T175 496V-224Q175 -230 174 -232Q169 -240 137 -240T81 -236T57 -224L41 0V496ZM34 624T34 696T106 768T178 696T106 624Z" />
<glyph unicode="k" glyph-name="k" horiz-adv-x="486" d="M181 0Q181 -6 180 -8Q175 -16 142 -16T77 -11T45 0V752Q45 768 80 768T138 764T162 752L181 431V0ZM480 -5Q480 -16 443 -16T371 -11T333 0L332 1L202 272V304L308 495Q309 495 309 496Q318 512 349 512Q420
512 440 500Q444 498 443 496L330 304L479 0Q480 -3 480 -5Z" />
<glyph unicode="l" glyph-name="l" horiz-adv-x="222" d="M180 0Q180 -6 178 -8Q174 -16 141 -16T77 -11T45 0V752Q45 768 80 768T138 764T162 752L180 431V0Z" />
<glyph unicode="m" glyph-name="m" horiz-adv-x="745" d="M557 0V304Q557 416 541 416Q506 416 440 377Q445 340 445 304V0Q445 -6 444 -8Q439 -16 406 -16T337 -11T301 0V341Q299 416 285 416Q249 416 189 380V0Q189 -6 188 -8Q183 -16 150 -16T81 -11T45 0V496Q45
512 85 512Q148 512 157 496Q157 494 158 494L177 456Q261 512 302 512Q390 512 421 448Q513 512 558 512Q632 512 666 466T701 304V0Q701 -6 700 -8Q695 -16 662 -16T593 -11T557 0Z" />
<glyph unicode="n" glyph-name="n" horiz-adv-x="488" d="M302 512Q376 512 410 466T445 304V0Q445 -6 444 -8Q439 -16 406 -16T337 -11T302 0L301 304Q301 416 285 416Q249 416 189 380V0Q189 -6 188 -8Q183 -16 150 -16T81 -11T45 0V496Q45 512 85 512Q148 512
157 496Q157 494 158 494L177 456Q261 512 302 512Z" />
<glyph unicode="o" glyph-name="o" horiz-adv-x="474" d="M37 250Q37 359 56 415T116 491T237 512T358 492T418 415T437 250Q437 100 394 42T237 -16T80 42T37 250ZM173 250Q173 82 205 82Q249 82 270 96Q281 104 285 125Q293 167 293 250Q293 416 261 416Q201
416 187 389T173 250Z" />
<glyph unicode="p" glyph-name="p" horiz-adv-x="453" d="M292 512Q366 512 400 452T435 241T392 38T227 -16H179V-224Q179 -230 178 -232Q173 -240 140 -240T76 -235T45 -224V496Q45 512 92 512Q139 512 148 494L167 456Q251 512 292 512ZM264 80T277 110T291
213T291 309T289 362Q287 416 275 416Q239 416 179 380V80H227Q264 80 277 110Z" />
<glyph unicode="q" glyph-name="q" horiz-adv-x="453" d="M287 16Q240 -15 164 -15T52 38T17 213T36 399T99 487T225 512H287Q337 512 390 498L407 493V-224Q407 -230 406 -232Q401 -240 369 -240T313 -236T289 -224L287 16ZM174 390T168 346T161 191T177 81Q227
81 287 117V417H225Q199 417 187 404Z" />
<glyph unicode="r" glyph-name="r" horiz-adv-x="368" d="M162 456Q244 512 270 512T318 502T350 482L359 473Q344 409 336 393T315 377T280 388T242 399T174 368V0Q174 -6 172 -8Q168 -16 135 -16T74 -11T45 0V496Q45 512 90 512T142 496V494L162 456Z" />
<glyph unicode="s" glyph-name="s" horiz-adv-x="415" d="M323 378L317 380L279 399Q236 416 205 416Q160 414 160 373Q160 357 177 347T206 332T238 316Q313 284 349 245T386 168Q386 85 342 35T223 -16T104 4T32 61Q28 63 28 67T29 77T53 109T88 136Q92 136
96 132Q149 90 199 90Q227 90 241 106T255 141T239 172T200 195T174 208T169 211T162 214Q111 239 76 276T40 360Q40 440 81 476T213 512Q247 512 278 504Q320 493 338 478H339Q347 473 348 466T347 436Q337 378 323 378Z" />
<glyph unicode="t" glyph-name="t" horiz-adv-x="337" d="M93 416H13Q1 416 0 421T-2 434Q-2 477 13 480L93 496L149 609Q161 624 195 624Q204 624 212 588T229 496H325Q341 496 341 456T325 416H228V98L244 -15V-16Q245 -22 244 -24Q239 -32 194 -32Q149 -32
140 -14L93 81V416Z" />
<glyph unicode="u" glyph-name="u" horiz-adv-x="487" d="M185 -16Q111 -16 77 30T42 192V496Q42 512 78 512T150 507T185 496L186 192Q186 80 202 80Q238 80 298 116V496Q298 512 334 512T406 507T442 496V0Q442 -6 440 -8Q436 -16 389 -16T330 0L309 31Q239
-16 185 -16Z" />
<glyph unicode="v" glyph-name="v" horiz-adv-x="470" d="M21 499Q21 512 57 512T125 507T158 496L247 122L325 496Q329 512 357 512T404 510Q450 505 448 496L447 494L322 0Q318 -16 284 -16T211 -11T170 0L22 494V496Q21 498 21 499Z" />
<glyph unicode="w" glyph-name="w" horiz-adv-x="734" d="M28 499Q28 512 64 512T132 507T165 496L254 145L313 416Q313 426 324 429Q336 432 354 432T403 428T436 416L505 143L583 496Q587 512 615 512T662 510Q708 505 706 496L705 494L580 0Q576 -16 542 -16T469
-11T428 0L374 180L329 0Q325 -16 291 -16T218 -11T177 0L29 494V496Q28 498 28 499Z" />
<glyph unicode="x" glyph-name="x" horiz-adv-x="517" d="M486 -4Q486 -16 449 -16T377 -11T337 0Q336 0 336 1L256 144L176 1V0Q174 -4 173 -5T170 -9T164 -13Q153 -16 138 -16Q61 -16 31 -5Q25 -2 26 0L179 261L46 496Q37 512 86 512Q117 512 147 507T181 496V495L252
362L312 494Q321 512 353 512T415 507T443 496L334 261L485 0Q486 -2 486 -4Z" />
<glyph unicode="y" glyph-name="y" horiz-adv-x="460" d="M21 499Q21 512 57 512T125 507T158 496L247 154L325 496Q329 512 357 512Q412 512 430 506T448 497L248 -224Q244 -240 216 -240T170 -238Q131 -233 133 -224Q133 -221 134 -219L185 0L22 494V496Q21
498 21 499Z" />
<glyph unicode="z" glyph-name="z" horiz-adv-x="420" d="M50 390Q35 390 35 437Q35 440 35 443Q35 496 50 496H346L362 480V390L188 112H378Q394 112 394 72Q394 2 378 0H58L42 16V96L236 390H50Z" />
<glyph unicode="{" glyph-name="braceleft" horiz-adv-x="426" d="M388 -146H112L96 -130L99 269L19 384L101 501L104 905H380L396 889V781H215L233 509L136 384L234 259L236 -22H372L388 -38V-146Z" />
<glyph unicode="|" glyph-name="bar" horiz-adv-x="224" d="M182 -146H58L42 -130L50 905H150L166 889L182 432V-146Z" />
<glyph unicode="}" glyph-name="braceright" horiz-adv-x="425" d="M30 905H290L306 889L325 501L407 384L327 269L330 -146H55L38 -129V-22H190L192 259L290 384L193 509L195 781H46L30 797V905Z" />
<glyph unicode="~" glyph-name="asciitilde" horiz-adv-x="504" d="M455 318Q448 318 408 318T266 308T113 298T50 307T36 350L61 401Q136 401 232 410T382 419T453 409T471 363L455 318Z" />
<glyph unicode="&#xa1;" glyph-name="exclamdown" horiz-adv-x="247" d="M20 -221L83 287L184 276L198 258L182 -47L150 -267L48 -256L20 -221ZM81 368T81 440T153 512T225 440T153 368Z" />
<glyph unicode="&#xa2;" glyph-name="cent" horiz-adv-x="379" d="M281 640Q333 632 370 609H371Q378 605 378 591T371 552Q358 508 343 515H342L307 529Q278 542 237 542T184 508T172 377T186 247T242 213Q301 213 334 220T368 227Q375 229 379 219T384 172T368
131Q328 119 285 116L286 -1H163L146 30V128Q85 148 61 206T36 386T61 562T152 634L154 768H262L281 752V640Z" />
<glyph unicode="&#xa3;" glyph-name="sterling" horiz-adv-x="495" d="M90 304H40L24 320V428H85Q86 581 108 667T183 793T331 836L347 820V717Q269 717 252 605Q242 540 242 428H300L316 412V304H229L230 121H457L473 105V0H106L90 16V304Z" />
<glyph unicode="&#xa4;" glyph-name="currency" horiz-adv-x="425" d="M271 244Q242 236 214 236T161 242L131 212H108L32 289L70 327Q63 351 63 382T69 437L37 469V492L114 568L155 526Q184 534 212 534T265 528L295 558H318L394 481L356 443Q363 419 363 388T357
333L389 301V278L312 202L271 244ZM268 385Q267 439 213 439T158 385Q159 331 213 331T268 385Z" />
<glyph unicode="&#xa5;" glyph-name="yen" horiz-adv-x="584" d="M23 745Q23 768 89 768T170 731L290 522H322L426 734Q434 754 448 761T492 768Q560 768 560 743Q560 737 557 731L450 522H514L530 506V398H118L102 414V522H146L27 732Q23 739 23 745ZM102 320H514L530
304V196H362V21Q362 4 360 -2Q357 -16 322 -16Q245 -16 245 22V196H118L102 212V320Z" />
<glyph unicode="&#xa6;" glyph-name="brokenbar" horiz-adv-x="219" d="M45 295H169L185 279V-146H61L45 -130V295ZM185 482H61L45 498V905H169L185 889V482Z" />
<glyph unicode="&#xa7;" glyph-name="section" horiz-adv-x="446" d="M283 341T285 350T288 379T261 407T204 416Q159 414 159 373Q159 353 180 338T226 323T267 332ZM351 614L345 616L307 635Q264 652 233 652Q188 650 188 609Q188 593 205 583T234 568T266 552Q341
520 377 481T414 404Q414 299 346 248Q386 206 386 168Q386 85 342 35T223 -16T104 4T32 61Q28 63 28 67T29 77T53 109T88 136Q92 136 96 132Q149 90 199 90Q227 90 241 106T255 141T239 172T200 195T174 208T169 211T162 214Q111 239 76 276T40 360Q40 468 118
498Q68 543 68 596Q68 676 109 712T241 748Q275 748 306 740Q348 729 366 714H367Q375 709 376 702T375 672Q365 614 351 614Z" />
<glyph unicode="&#xa8;" glyph-name="dieresis" horiz-adv-x="460" d="M41 624T41 696T113 768T185 696T113 624ZM275 624T275 696T347 768T419 696T347 624Z" />
<glyph unicode="&#xa9;" glyph-name="copyright" horiz-adv-x="747" d="M389 145Q306 145 275 186T244 340T274 490T378 528T485 506L472 460H426Q415 465 385 465Q367 465 362 439T357 334T362 232T387 208Q420 208 478 215V153Q420 145 389 145ZM31 192T31 342T128
596T373 701T618 597T716 342T618 88T373 -16T129 88ZM99 464T99 342T177 136T373 52T570 136T648 342T570 548T373 633T177 549Z" />
<glyph unicode="&#xaa;" glyph-name="ordfeminine" horiz-adv-x="345" d="M200 646T192 661T152 676T101 666H71L53 726Q87 752 147 752Q239 752 271 713T304 554L303 366H226L214 389Q174 354 147 354Q83 354 59 378T35 486Q35 547 94 569L201 597Q200 646 192
661ZM118 485Q118 430 150 428Q181 428 191 448T202 542Q163 536 141 520T118 485Z" />
<glyph unicode="&#xab;" glyph-name="guillemotleft" horiz-adv-x="591" d="M553 195L521 156L467 169L281 335L261 384L281 433L451 599L505 612L537 573L376 384L553 195ZM313 195L281 156L227 169L41 335L21 384L41 433L211 599L265 612L297 573L136 384L313 195Z" />
<glyph unicode="&#xac;" glyph-name="logicalnot" horiz-adv-x="521" d="M350 308H25L9 324V432H459L475 416L474 137H366L350 153V308Z" />
<glyph unicode="&#xae;" glyph-name="registered" horiz-adv-x="747" d="M357 289V145H276L260 161V519Q327 532 367 532Q446 532 476 505T507 412T459 308L531 145H436L420 161L364 289H357ZM402 365T402 417T393 469Q359 469 357 458L358 366Q366 363 374 363Q402
365 402 417ZM31 192T31 342T128 596T373 701T618 597T716 342T618 88T373 -16T129 88ZM99 464T99 342T177 136T373 52T570 136T648 342T570 548T373 633T177 549Z" />
<glyph unicode="&#xb0;" glyph-name="degree" horiz-adv-x="308" d="M34 513T34 633T154 753T274 633T154 513ZM110 677T110 633T154 589T198 633T154 677Z" />
<glyph unicode="&#xb1;" glyph-name="plusminus" horiz-adv-x="455" d="M289 592H410L426 576V468H289V331H181L165 347V468H45L29 484V592H165V728H272L289 711V592ZM426 160H45L29 176V284H410L426 268V160Z" />
<glyph unicode="&#xb2;" glyph-name="twosuperior" horiz-adv-x="416" d="M201 659Q151 659 121 650H71L51 723Q93 752 191 752T328 714T368 590Q368 557 335 500T185 284H365L380 269V185H55L39 201V275L157 434Q192 480 205 498Q240 548 240 588T233 643T201 659Z" />
<glyph unicode="&#xb3;" glyph-name="threesuperior" horiz-adv-x="413" d="M189 659Q139 659 109 650H59L39 723Q81 752 180 752T321 714T364 599T328 481Q379 440 379 355T331 225T165 180Q127 180 50 189V281Q135 276 173 276T223 289T236 351T226 410T167
421H110V517Q178 517 199 528T221 591Q221 659 189 659Z" />
<glyph unicode="&#xb4;" glyph-name="acute" horiz-adv-x="240" d="M74 536L28 557L27 612L84 736L126 768L234 708L74 536Z" />
<glyph unicode="&#xb5;" glyph-name="mu" horiz-adv-x="465" d="M161 -230T138 -234T80 -239T45 -223V496Q45 512 81 512T153 507T188 496L189 192Q189 133 194 107T215 80Q243 83 301 116V496Q301 512 337 512T409 507T445 496V0Q445 -6 444 -8Q439 -16 392 -16T333
0L312 31Q255 -15 173 -15L162 -223Q161 -230 138 -234Z" />
<glyph unicode="&#xb6;" glyph-name="paragraph" horiz-adv-x="703" d="M203 472H24Q24 554 33 604T68 684T131 725T232 736H657L673 720V635H557L558 0H430L414 16L415 635H346L347 0H219L203 16V472Z" />
<glyph unicode="&#xb7;" glyph-name="middot" horiz-adv-x="214" d="M35 223T35 295T107 367T179 295T107 223Z" />
<glyph unicode="&#xb8;" glyph-name="cedilla" horiz-adv-x="220" d="M195 -153Q195 -168 192 -186Q173 -286 87 -286Q71 -286 53 -283L66 -209Q72 -210 77 -210Q110 -210 117 -173Q118 -166 118 -160Q118 -128 81 -122L24 -112L45 9L102 -1L94 -47Q195 -66 195 -153Z" />
<glyph unicode="&#xb9;" glyph-name="onesuperior" horiz-adv-x="290" d="M257 188H71L55 204V281H93V626L51 613L24 703L204 754L220 738L221 281H241L257 265V188Z" />
<glyph unicode="&#xba;" glyph-name="ordmasculine" horiz-adv-x="470" d="M123 176T80 238T36 458T80 686T236 756Q346 756 394 666Q436 585 436 452T391 247T234 176ZM172 452Q172 274 204 274Q263 274 277 304T292 426T288 566Q279 660 260 660Q203 660 188
616T172 452Z" />
<glyph unicode="&#xbb;" glyph-name="guillemotright" horiz-adv-x="591" d="M70 156L38 195L215 384L54 573L86 612L140 599L310 433L330 384L310 335L124 169L70 156ZM310 156L278 195L455 384L294 573L326 612L380 599L550 433L570 384L550 335L364 169L310 156Z" />
<glyph unicode="&#xbc;" glyph-name="onequarter" horiz-adv-x="987" d="M723 324H799L800 564H911L927 548V324H955L971 308V231H927V0H815L799 16V231H612L596 247L597 564H707L723 548V324ZM256 188H70L54 204V281H92V626L50 613L23 703L203 754L219 738L220
281H240L256 265V188ZM584 876V769L368 -146H232V-114L479 876H584Z" />
<glyph unicode="&#xbd;" glyph-name="onehalf" horiz-adv-x="994" d="M613 876V769L397 -146H261V-114L508 876H613ZM255 188H69L53 204V281H91V626L49 613L22 703L202 754L218 738L219 281H239L255 265V188ZM799 474Q749 474 719 465H669L649 538Q691 567 789
567T926 529T966 405Q966 372 933 315T783 99H963L978 84V0H653L637 16V90L755 249Q790 295 803 314Q838 363 838 403T831 458T799 474Z" />
<glyph unicode="&#xbe;" glyph-name="threequarters" horiz-adv-x="1038" d="M655 876V769L439 -146H303V-114L550 876H655ZM168 659Q118 659 88 650H38L18 723Q60 752 159 752T300 714T343 599T307 481Q358 440 358 355T310 225T144 180Q106 180 29 189V281Q114
276 152 276T202 289T215 351T205 410T146 421H89V517Q157 517 178 528T200 591Q200 659 168 659ZM772 324H848L849 564H960L976 548V324H1004L1020 308V231H976V0H864L848 16V231H661L645 247L646 564H756L772 548V324Z" />
<glyph unicode="&#xbf;" glyph-name="questiondown" horiz-adv-x="439" d="M312 183Q312 157 269 112Q202 43 183 13T163 -63T174 -128T228 -149Q295 -149 339 -136H388L416 -237Q362 -272 240 -272T69 -222T19 -57Q19 -29 24 -11Q39 35 176 189V295H296L312 279V183ZM166
368T166 440T238 512T310 440T238 368Z" />
<glyph unicode="&#xc0;" glyph-name="Agrave" horiz-adv-x="529" d="M298 813L252 792L92 964L200 1024L242 992L299 868L298 813ZM298 769Q367 769 373 738L441 431L510 22Q512 12 512 4T507 -10T473 -16Q384 -16 378 22L343 228H203L172 21Q169 0 165 -7T152
-15T126 -16H98Q63 -16 54 -12Q32 -4 29 6Q28 11 28 15T49 147T100 452T140 684T151 746Q155 769 298 769ZM268 638L222 349H321L268 638Z" />
<glyph unicode="&#xc1;" glyph-name="Aacute" horiz-adv-x="528" d="M268 792L222 813L221 868L278 992L320 1024L428 964L268 792ZM298 769Q367 769 373 738L441 431L510 22Q512 12 512 4T507 -10T473 -16Q384 -16 378 22L343 228H203L172 21Q169 0 165 -7T152
-15T126 -16H98Q63 -16 54 -12Q32 -4 29 6Q28 11 28 15T49 147T100 452T140 684T151 746Q155 769 298 769ZM268 638L222 349H321L268 638Z" />
<glyph unicode="&#xc2;" glyph-name="Acircumflex" horiz-adv-x="536" d="M142 828L103 860L116 914L218 1004L267 1024L316 1004L418 914L431 860L392 828L267 909L142 828ZM298 769Q367 769 373 738L441 431L510 22Q512 12 512 4T507 -10T473 -16Q384 -16 378
22L343 228H203L172 21Q169 0 165 -7T152 -15T126 -16H98Q63 -16 54 -12Q32 -4 29 6Q28 11 28 15T49 147T100 452T140 684T151 746Q155 769 298 769ZM268 638L222 349H321L268 638Z" />
<glyph unicode="&#xc3;" glyph-name="Atilde" horiz-adv-x="531" d="M435 884Q428 884 390 884T278 874T155 864T92 873T78 916L103 967Q178 967 243 976T362 985T433 975T451 929L435 884ZM298 769Q367 769 373 738L441 431L510 22Q512 12 512 4T507 -10T473
-16Q384 -16 378 22L343 228H203L172 21Q169 0 165 -7T152 -15T126 -16H98Q63 -16 54 -12Q32 -4 29 6Q28 11 28 15T49 147T100 452T140 684T151 746Q155 769 298 769ZM268 638L222 349H321L268 638Z" />
<glyph unicode="&#xc4;" glyph-name="Adieresis" horiz-adv-x="539" d="M79 880T79 952T151 1024T223 952T151 880ZM313 880T313 952T385 1024T457 952T385 880ZM298 769Q367 769 373 738L441 431L510 22Q512 12 512 4T507 -10T473 -16Q384 -16 378 22L343 228H203L172
21Q169 0 165 -7T152 -15T126 -16H98Q63 -16 54 -12Q32 -4 29 6Q28 11 28 15T49 147T100 452T140 684T151 746Q155 769 298 769ZM268 638L222 349H321L268 638Z" />
<glyph unicode="&#xc5;" glyph-name="Aring" horiz-adv-x="529" d="M167 793T167 889T263 985T359 889T263 793ZM228 924T228 889T263 854T298 889T263 924ZM298 769Q367 769 373 738L441 431L510 22Q512 12 512 4T507 -10T473 -16Q384 -16 378 22L343 228H203L172
21Q169 0 165 -7T152 -15T126 -16H98Q63 -16 54 -12Q32 -4 29 6Q28 11 28 15T49 147T100 452T140 684T151 746Q155 769 298 769ZM268 638L222 349H321L268 638Z" />
<glyph unicode="&#xc6;" glyph-name="AE" horiz-adv-x="765" d="M323 752H677Q720 751 720 720Q719 693 717 678T705 647T674 632H451L462 455H655Q695 455 695 419Q695 370 689 352T658 334H462V121H693Q717 120 726 112T735 86Q735 37 726 19T690 0H338L322
16V228H203L172 21Q169 0 165 -7T152 -15T126 -16H98Q63 -16 54 -12Q32 -4 29 6Q28 11 28 15T28 22L144 692Q150 740 226 748Q262 752 323 752ZM321 349V638H268L222 349H321Z" />
<glyph unicode="&#xc7;" glyph-name="Ccedilla" horiz-adv-x="469" d="M436 118Q461 118 461 86T460 38Q456 2 428 -3Q339 -16 295 -16L290 -47Q391 -66 391 -153Q391 -168 388 -186Q369 -286 283 -286Q267 -286 249 -283L262 -209Q268 -210 273 -210Q306 -210
313 -173Q314 -166 314 -160Q314 -128 277 -122L220 -112L237 -12Q123 2 79 88T35 352T59 615T138 734T301 768T460 734Q470 727 470 717T461 680T443 641T425 629T411 630Q336 645 282 645T211 585T194 391T201 203T227 129T287 108T381 113T436 118Z" />
<glyph unicode="&#xc8;" glyph-name="Egrave" horiz-adv-x="450" d="M271 813L225 792L65 964L173 1024L215 992L272 868L271 813ZM378 455Q418 455 418 419Q418 370 412 352T381 334H185V121H416Q440 120 449 112T458 86Q458 37 449 19T413 0H61L45 16V752H400Q443
751 443 720Q442 693 440 678T428 647T397 632H174L185 455H378Z" />
<glyph unicode="&#xc9;" glyph-name="Eacute" horiz-adv-x="451" d="M230 792L184 813L183 868L240 992L282 1024L390 964L230 792ZM362 455Q402 455 402 419Q402 370 396 352T365 334H169V121H400Q424 120 433 112T442 86Q442 37 433 19T397 0H45L29 16V752H384Q427
751 427 720Q426 693 424 678T412 647T381 632H158L169 455H362Z" />
<glyph unicode="&#xca;" glyph-name="Ecircumflex" horiz-adv-x="461" d="M110 828L71 860L84 914L186 1004L235 1024L284 1004L386 914L399 860L360 828L235 909L110 828ZM371 455Q411 455 411 419Q411 370 405 352T374 334H178V121H409Q433 120 442 112T451
86Q451 37 442 19T406 0H54L38 16V752H393Q436 751 436 720Q435 693 433 678T421 647T390 632H167L178 455H371Z" />
<glyph unicode="&#xcb;" glyph-name="Edieresis" horiz-adv-x="466" d="M48 880T48 952T120 1024T192 952T120 880ZM282 880T282 952T354 1024T426 952T354 880ZM374 455Q414 455 414 419Q414 370 408 352T377 334H181V121H412Q436 120 445 112T454 86Q454 37
445 19T409 0H57L41 16V752H396Q439 751 439 720Q438 693 436 678T424 647T393 632H170L181 455H374Z" />
<glyph unicode="&#xcc;" glyph-name="Igrave" horiz-adv-x="335" d="M225 813L179 792L19 964L127 1024L169 992L226 868L225 813ZM91 121H127V632H97Q77 633 70 645Q63 659 63 696Q63 752 96 752H273Q317 752 317 721Q317 632 282 632H257L267 432L268 121H298Q333
120 333 89Q331 0 284 0H95Q77 1 70 13Q63 27 63 65Q63 121 91 121Z" />
<glyph unicode="&#xcd;" glyph-name="Iacute" horiz-adv-x="335" d="M156 792L110 813L109 868L166 992L208 1024L316 964L156 792ZM37 121H73V632H43Q23 633 16 645Q9 659 9 696Q9 752 42 752H219Q263 752 263 721Q263 632 228 632H203L213 432L214 121H244Q279
120 279 89Q277 0 230 0H41Q23 1 16 13Q9 27 9 65Q9 121 37 121Z" />
<glyph unicode="&#xce;" glyph-name="Icircumflex" horiz-adv-x="376" d="M62 828L23 860L36 914L138 1004L187 1024L236 1004L338 914L351 860L312 828L187 909L62 828ZM86 121H122V632H92Q72 633 66 645Q58 659 58 696Q58 752 91 752H268Q312 752 312 721Q312
632 277 632H252L262 432L263 121H293Q328 120 328 89Q326 0 279 0H90Q72 1 66 13Q58 27 58 65Q58 121 86 121Z" />
<glyph unicode="&#xcf;" glyph-name="Idieresis" horiz-adv-x="421" d="M21 880T21 952T93 1024T165 952T93 880ZM255 880T255 952T327 1024T399 952T327 880ZM130 121H166V632H136Q116 633 110 645Q102 659 102 696Q102 752 135 752H312Q356 752 356 721Q356
632 321 632H296L306 432L307 121H337Q372 120 372 89Q370 0 323 0H134Q116 1 110 13Q102 27 102 65Q102 121 130 121Z" />
<glyph unicode="&#xd0;" glyph-name="Eth" horiz-adv-x="571" d="M264 768Q373 768 429 737T510 625T535 383Q535 161 477 73T264 -16Q226 -16 45 0V751Q197 768 264 768ZM310 419Q310 370 304 352T273 334H186V124Q186 113 199 111T254 109T313 113T344 129T364
174Q374 238 374 372Q374 649 317 649Q230 649 208 646T186 626V455H274Q310 453 310 419Z" />
<glyph unicode="&#xd1;" glyph-name="Ntilde" horiz-adv-x="527" d="M433 884Q426 884 388 884T276 874T153 864T90 873T76 916L101 967Q176 967 241 976T360 985T431 975T449 929L433 884ZM37 24V731Q37 768 109 768Q124 768 132 767T154 758T177 733L356 313L350
732Q350 768 422 768Q452 768 463 761T475 732L491 431V21Q491 4 490 -2Q486 -16 451 -16Q386 -16 373 21L176 436L177 22Q177 4 176 -2Q172 -16 137 -16Q37 -16 37 24Z" />
<glyph unicode="&#xd2;" glyph-name="Ograve" horiz-adv-x="577" d="M31 371Q31 530 56 615T135 734T293 768T450 734T529 616T554 371Q554 152 498 68T293 -16T88 68T31 371ZM192 520T191 482T190 351T196 197T212 116T239 96Q327 96 354 114Q364 121 373 137T387
170T394 220Q398 263 398 374T393 550T377 638T349 662Q309 662 285 659T241 642T213 612T198 558ZM313 813L267 792L107 964L215 1024L257 992L314 868L313 813Z" />
<glyph unicode="&#xd3;" glyph-name="Oacute" horiz-adv-x="577" d="M23 371Q23 530 48 615T127 734T285 768T442 734T521 616T546 371Q546 152 490 68T285 -16T80 68T23 371ZM184 520T183 482T182 351T188 197T204 116T231 96Q319 96 346 114Q356 121 365 137T379
170T386 220Q390 263 390 374T385 550T369 638T341 662Q301 662 277 659T233 642T205 612T190 558ZM303 792L257 813L256 868L313 992L355 1024L463 964L303 792Z" />
<glyph unicode="&#xd4;" glyph-name="Ocircumflex" horiz-adv-x="583" d="M30 371Q30 530 55 615T134 734T292 768T449 734T528 616T553 371Q553 152 497 68T292 -16T87 68T30 371ZM191 520T190 482T189 351T195 197T211 116T238 96Q326 96 354 114Q363 121 372
137T386 170T393 220Q397 263 397 374T392 550T376 638T348 662Q308 662 284 659T240 642T212 612T197 558ZM166 828L127 860L140 914L242 1004L291 1024L340 1004L442 914L455 860L416 828L291 909L166 828Z" />
<glyph unicode="&#xd5;" glyph-name="Otilde" horiz-adv-x="583" d="M30 371Q30 530 55 615T134 734T292 768T449 734T528 616T553 371Q553 152 497 68T292 -16T87 68T30 371ZM191 520T190 482T189 351T195 197T211 116T238 96Q326 96 354 114Q363 121 372 137T386
170T393 220Q397 263 397 374T392 550T376 638T348 662Q308 662 284 659T240 642T212 612T197 558ZM461 884Q454 884 416 884T304 874T181 864T118 873T104 916L129 967Q204 967 269 976T388 985T459 975T477 929L461 884Z" />
<glyph unicode="&#xd6;" glyph-name="Odieresis" horiz-adv-x="586" d="M31 371Q31 530 56 615T135 734T293 768T450 734T529 616T554 371Q554 152 498 68T293 -16T88 68T31 371ZM192 520T191 482T190 351T196 197T212 116T239 96Q327 96 354 114Q364 121 373
137T387 170T394 220Q398 263 398 374T393 550T377 638T349 662Q309 662 285 659T241 642T213 612T198 558ZM103 880T103 952T175 1024T247 952T175 880ZM337 880T337 952T409 1024T481 952T409 880Z" />
<glyph unicode="&#xd7;" glyph-name="multiply" horiz-adv-x="427" d="M129 541L212 457L298 543H321L385 478V454L300 369L397 273L310 185L213 282L117 186L29 273L125 369L40 454V477L105 541H129Z" />
<glyph unicode="&#xd8;" glyph-name="Oslash" horiz-adv-x="578" d="M289 756L326 755L356 876H461V769L450 724Q506 690 528 609T551 371Q551 152 495 68T289 -16H275L245 -146H109V-114L141 14Q79 49 53 133T27 354T39 564T83 681T163 740T289 756ZM190 486T190
455T189 342T194 199T209 119T235 99Q322 99 350 118Q389 145 392 286Q392 319 392 401T387 544T372 625T345 646Q283 646 262 639T231 625T212 601T200 568T193 519Z" />
<glyph unicode="&#xd9;" glyph-name="Ugrave" horiz-adv-x="529" d="M297 813L251 792L91 964L199 1024L241 992L298 868L297 813ZM358 722Q358 750 370 759T420 768T472 756T488 698L500 429Q500 414 500 399Q500 244 480 153T410 23T268 -16Q134 -16 83 68T32
370V700Q32 743 44 755T96 768T149 755T165 690L179 431Q179 178 198 130Q207 109 222 109Q257 109 276 110T313 122T338 147T350 194Q358 240 358 370V722Z" />
<glyph unicode="&#xda;" glyph-name="Uacute" horiz-adv-x="528" d="M278 792L232 813L231 868L288 992L330 1024L438 964L278 792ZM352 722Q352 750 364 759T414 768T466 756T482 698L494 429Q494 414 494 399Q494 244 474 153T404 23T262 -16Q128 -16 77 68T26
370V700Q26 743 38 755T90 768T143 755T159 690L173 431Q173 178 192 130Q201 109 216 109Q251 109 270 110T307 122T332 147T344 194Q352 240 352 370V722Z" />
<glyph unicode="&#xdb;" glyph-name="Ucircumflex" horiz-adv-x="536" d="M142 828L103 860L116 914L218 1004L267 1024L316 1004L418 914L431 860L392 828L267 909L142 828ZM358 722Q358 750 370 759T420 768T472 756T488 698L500 429Q500 414 500 399Q500 244
480 153T410 23T268 -16Q134 -16 83 68T32 370V700Q32 743 44 755T96 768T149 755T165 690L179 431Q179 178 198 130Q207 109 222 109Q257 109 276 110T313 122T338 147T350 194Q358 240 358 370V722Z" />
<glyph unicode="&#xdc;" glyph-name="Udieresis" horiz-adv-x="539" d="M80 880T80 952T152 1024T224 952T152 880ZM314 880T314 952T386 1024T458 952T386 880ZM358 722Q358 750 370 759T420 768T472 756T488 698L500 429Q500 414 500 399Q500 244 480 153T410
23T268 -16Q134 -16 83 68T32 370V700Q32 743 44 755T96 768T149 755T165 690L179 431Q179 178 198 130Q207 109 222 109Q257 109 276 110T313 122T338 147T350 194Q358 240 358 370V722Z" />
<glyph unicode="&#xdd;" glyph-name="Yacute" horiz-adv-x="562" d="M297 792L251 813L250 868L307 992L349 1024L457 964L297 792ZM14 745Q14 768 80 768T161 731L298 492L417 734Q425 754 439 761T483 768Q551 768 551 743Q551 737 548 731L353 349V21Q353 4
352 -2Q348 -16 313 -16Q236 -16 236 22V349L18 732Q14 739 14 745Z" />
<glyph unicode="&#xde;" glyph-name="Thorn" horiz-adv-x="451" d="M170 -14L155 -16H143Q110 -16 78 -11T46 0V755Q46 771 82 771T148 766T179 755V627H227Q348 627 391 574T435 370T401 160T292 99Q264 99 179 110V-6Q179 -10 178 -10T175 -12T170 -14ZM179
531V195H275Q286 195 288 237T291 375T278 500T227 531H179Z" />
<glyph unicode="&#xdf;" glyph-name="germandbls" horiz-adv-x="607" d="M172 -84L157 -86H145Q112 -86 78 -81T43 -70V496Q43 579 53 628T90 708T158 749T269 760Q369 760 416 724Q468 684 468 579Q468 507 434 468Q418 449 402 434Q362 400 362 373Q362 357
379 347T408 332T440 316Q515 284 551 245T588 168Q588 85 544 35T425 -16T306 4T234 61V81L288 134H296Q351 90 401 90Q429 90 443 106T457 141T441 172T398 197T364 214Q313 239 278 276T242 355T254 425T283 471T318 504Q359 541 359 586T336 645T260 659T193
625T179 496L181 -70V-76Q181 -80 180 -80T177 -82T172 -84Z" />
<glyph unicode="&#xe0;" glyph-name="agrave" horiz-adv-x="435" d="M274 31Q222 -16 182 -16T116 -11T71 13T43 67T35 160Q35 241 114 271L257 308Q256 373 244 392T192 411T123 398L88 384H87Q78 379 71 392Q53 430 53 451T56 475T60 479Q110 512 189 512T312
491T374 415T394 250L392 0Q392 -6 390 -8Q386 -16 352 -16Q290 -16 290 0L274 31ZM146 158Q146 86 188 82Q217 82 230 92Q258 111 258 234Q206 227 176 206T146 158ZM237 557L191 536L31 708L139 768L181 736L238 612L237 557Z" />
<glyph unicode="&#xe1;" glyph-name="aacute" horiz-adv-x="435" d="M274 31Q222 -16 182 -16T116 -11T71 13T43 67T35 160Q35 241 114 271L257 308Q256 373 244 392T192 411T123 398L88 384H87Q78 379 71 392Q53 430 53 451T56 475T60 479Q110 512 189 512T312
491T374 415T394 250L392 0Q392 -6 390 -8Q386 -16 352 -16Q290 -16 290 0L274 31ZM146 158Q146 86 188 82Q217 82 230 92Q258 111 258 234Q206 227 176 206T146 158ZM220 536L174 557L173 612L230 736L272 768L380 708L220 536Z" />
<glyph unicode="&#xe2;" glyph-name="acircumflex" horiz-adv-x="435" d="M274 31Q222 -16 182 -16T116 -11T71 13T43 67T35 160Q35 241 114 271L257 308Q256 373 244 392T192 411T123 398L88 384H87Q78 379 71 392Q53 430 53 451T56 475T60 479Q110 512 189 512T312
491T374 415T394 250L392 0Q392 -6 390 -8Q386 -16 352 -16Q290 -16 290 0L274 31ZM146 158Q146 86 188 82Q217 82 230 92Q258 111 258 234Q206 227 176 206T146 158ZM92 572L53 604L66 658L168 748L217 768L266 748L368 658L381 604L342 572L217 653L92 572Z"
/>
<glyph unicode="&#xe3;" glyph-name="atilde" horiz-adv-x="435" d="M274 31Q222 -16 182 -16T116 -11T71 13T43 67T35 160Q35 241 114 271L257 308Q256 373 244 392T192 411T123 398L88 384H87Q78 379 71 392Q53 430 53 451T56 475T60 479Q110 512 189 512T312
491T374 415T394 250L392 0Q392 -6 390 -8Q386 -16 352 -16Q290 -16 290 0L274 31ZM146 158Q146 86 188 82Q217 82 230 92Q258 111 258 234Q206 227 176 206T146 158ZM388 628Q381 628 343 628T231 618T108 608T45 617T31 660L56 711Q131 711 196 720T315 729T386
719T404 673L388 628Z" />
<glyph unicode="&#xe4;" glyph-name="adieresis" horiz-adv-x="435" d="M274 31Q222 -16 182 -16T116 -11T71 13T43 67T35 160Q35 241 114 271L257 308Q256 373 244 392T192 411T123 398L88 384H87Q78 379 71 392Q53 430 53 451T56 475T60 479Q110 512 189 512T312
491T374 415T394 250L392 0Q392 -6 390 -8Q386 -16 352 -16Q290 -16 290 0L274 31ZM146 158Q146 86 188 82Q217 82 230 92Q258 111 258 234Q206 227 176 206T146 158ZM29 624T29 696T101 768T173 696T101 624ZM263 624T263 696T335 768T407 696T335 624Z" />
<glyph unicode="&#xe5;" glyph-name="aring" horiz-adv-x="435" d="M274 31Q222 -16 182 -16T116 -11T71 13T43 67T35 160Q35 241 114 271L257 308Q256 373 244 392T192 411T123 398L88 384H87Q78 379 71 392Q53 430 53 451T56 475T60 479Q110 512 189 512T312
491T374 415T394 250L392 0Q392 -6 390 -8Q386 -16 352 -16Q290 -16 290 0L274 31ZM146 158Q146 86 188 82Q217 82 230 92Q258 111 258 234Q206 227 176 206T146 158ZM121 560T121 656T217 752T313 656T217 560ZM182 691T182 656T217 621T252 656T217 691Z" />
<glyph unicode="&#xe6;" glyph-name="ae" horiz-adv-x="682" d="M452 -16Q339 -16 299 49Q269 19 258 10Q228 -16 187 -16T120 -11T75 13T47 67T39 160Q39 241 118 271L261 308Q260 373 248 392T196 411T127 398H87L63 478Q108 512 196 512T327 484Q366 512 446
512T565 491T622 413T640 251Q640 245 640 239T617 228T560 223H406Q408 106 424 90Q432 82 452 82Q603 82 634 96Q641 98 645 88T650 41T634 0Q593 -16 452 -16ZM150 158Q150 86 192 82Q221 82 234 92Q262 111 262 234Q210 227 180 206T150 158ZM406 381V303H507Q503
419 484 419Q450 419 428 409T406 381Z" />
<glyph unicode="&#xe7;" glyph-name="ccedilla" horiz-adv-x="380" d="M352 478Q360 474 360 460T352 421Q339 378 324 384H323L288 398Q259 411 218 411T165 377T153 246T167 116T223 82Q282 82 315 89T349 96Q356 98 360 88T365 41T349 0Q294 -15 233 -16L228
-47Q329 -66 329 -153Q329 -168 326 -186Q307 -286 221 -286Q205 -286 187 -283L200 -209Q206 -210 211 -210Q244 -210 251 -173Q252 -166 252 -160Q252 -128 215 -122L158 -112L175 -13Q86 -3 52 56T17 237T36 414T99 491T224 512T351 478H352Z" />
<glyph unicode="&#xe8;" glyph-name="egrave" horiz-adv-x="454" d="M227 -16Q120 -16 79 42T37 250Q37 358 56 414T113 491T227 512T340 491T397 413T415 251Q415 245 415 239T392 228T335 223H181Q183 106 198 90Q207 82 227 82Q358 82 406 95Q408 96 409 96Q416
98 420 88T425 41T409 0Q368 -16 227 -16ZM181 381V303H282Q278 419 259 419Q225 419 203 409T181 381ZM278 557L232 536L72 708L180 768L222 736L279 612L278 557Z" />
<glyph unicode="&#xe9;" glyph-name="eacute" horiz-adv-x="454" d="M227 -16Q120 -16 79 42T37 250Q37 358 56 414T113 491T227 512T340 491T397 413T415 251Q415 245 415 239T392 228T335 223H181Q183 106 198 90Q207 82 227 82Q358 82 406 95Q408 96 409 96Q416
98 420 88T425 41T409 0Q368 -16 227 -16ZM181 381V303H282Q278 419 259 419Q225 419 203 409T181 381ZM233 536L187 557L186 612L243 736L285 768L393 708L233 536Z" />
<glyph unicode="&#xea;" glyph-name="ecircumflex" horiz-adv-x="454" d="M227 -16Q120 -16 79 42T37 250Q37 358 56 414T113 491T227 512T340 491T397 413T415 251Q415 245 415 239T392 228T335 223H181Q183 106 198 90Q207 82 227 82Q358 82 406 95Q408 96 409
96Q416 98 420 88T425 41T409 0Q368 -16 227 -16ZM181 381V303H282Q278 419 259 419Q225 419 203 409T181 381ZM102 572L63 604L76 658L178 748L227 768L276 748L378 658L391 604L352 572L227 653L102 572Z" />
<glyph unicode="&#xeb;" glyph-name="edieresis" horiz-adv-x="454" d="M227 -16Q120 -16 79 42T37 250Q37 358 56 414T113 491T227 512T340 491T397 413T415 251Q415 245 415 239T392 228T335 223H181Q183 106 198 90Q207 82 227 82Q358 82 406 95Q408 96 409
96Q416 98 420 88T425 41T409 0Q368 -16 227 -16ZM181 381V303H282Q278 419 259 419Q225 419 203 409T181 381ZM38 624T38 696T110 768T182 696T110 624ZM272 624T272 696T344 768T416 696T344 624Z" />
<glyph unicode="&#xec;" glyph-name="igrave" horiz-adv-x="228" d="M47 0V496Q47 512 83 512T151 507T183 496V0Q183 -6 182 -8Q177 -16 144 -16T79 -11T47 0ZM140 557L94 536L-66 708L42 768L84 736L141 612L140 557Z" />
<glyph unicode="&#xed;" glyph-name="iacute" horiz-adv-x="228" d="M47 0V496Q47 512 83 512T151 507T183 496V0Q183 -6 182 -8Q177 -16 144 -16T79 -11T47 0ZM131 536L85 557L84 612L141 736L183 768L291 708L131 536Z" />
<glyph unicode="&#xee;" glyph-name="icircumflex" horiz-adv-x="228" d="M47 0V496Q47 512 83 512T151 507T183 496V0Q183 -6 182 -8Q177 -16 144 -16T79 -11T47 0ZM-11 572L-50 604L-37 658L65 748L114 768L163 748L265 658L278 604L239 572L114 653L-11 572Z" />
<glyph unicode="&#xef;" glyph-name="idieresis" horiz-adv-x="228" d="M47 0V496Q47 512 83 512T151 507T183 496V0Q183 -6 182 -8Q177 -16 144 -16T79 -11T47 0ZM-75 624T-75 696T-3 768T69 696T-3 624ZM159 624T159 696T231 768T303 696T231 624Z" />
<glyph unicode="&#xf0;" glyph-name="eth" horiz-adv-x="482" d="M104 546Q88 546 80 555T65 586L76 642Q133 657 186 678L163 717L171 737L281 768L299 726Q363 753 400 753T449 711L446 664Q400 652 342 630Q429 426 429 265T386 44T229 -16T73 43T29 254Q29
363 48 419T108 497T229 518L253 508Q250 532 230 581Q144 546 104 546ZM289 254Q289 355 276 380T204 405Q173 405 173 254Q173 149 186 124T258 99Q289 99 289 254Z" />
<glyph unicode="&#xf1;" glyph-name="ntilde" horiz-adv-x="488" d="M302 512Q376 512 410 466T445 304V0Q445 -6 444 -8Q439 -16 406 -16T337 -11T302 0L301 304Q301 416 285 416Q249 416 189 380V0Q189 -6 188 -8Q183 -16 150 -16T81 -11T45 0V496Q45 512 85
512Q148 512 157 496Q157 494 158 494L177 456Q261 512 302 512ZM414 628Q407 628 369 628T257 618T134 608T71 617T57 660L82 711Q157 711 222 720T341 729T412 719T430 673L414 628Z" />
<glyph unicode="&#xf2;" glyph-name="ograve" horiz-adv-x="474" d="M37 250Q37 359 56 415T116 491T237 512T358 492T418 415T437 250Q437 100 394 42T237 -16T80 42T37 250ZM173 250Q173 82 205 82Q249 82 270 96Q281 104 285 125Q293 167 293 250Q293 416 261
416Q201 416 187 389T173 250ZM265 557L219 536L59 708L167 768L209 736L266 612L265 557Z" />
<glyph unicode="&#xf3;" glyph-name="oacute" horiz-adv-x="474" d="M37 250Q37 359 56 415T116 491T237 512T358 492T418 415T437 250Q437 100 394 42T237 -16T80 42T37 250ZM173 250Q173 82 205 82Q249 82 270 96Q281 104 285 125Q293 167 293 250Q293 416 261
416Q201 416 187 389T173 250ZM256 536L210 557L209 612L266 736L308 768L416 708L256 536Z" />
<glyph unicode="&#xf4;" glyph-name="ocircumflex" horiz-adv-x="474" d="M37 250Q37 359 56 415T116 491T237 512T358 492T418 415T437 250Q437 100 394 42T237 -16T80 42T37 250ZM173 250Q173 82 205 82Q249 82 270 96Q281 104 285 125Q293 167 293 250Q293
416 261 416Q201 416 187 389T173 250ZM112 572L73 604L86 658L188 748L237 768L286 748L388 658L401 604L362 572L237 653L112 572Z" />
<glyph unicode="&#xf5;" glyph-name="otilde" horiz-adv-x="474" d="M37 250Q37 359 56 415T116 491T237 512T358 492T418 415T437 250Q437 100 394 42T237 -16T80 42T37 250ZM173 250Q173 82 205 82Q249 82 270 96Q281 104 285 125Q293 167 293 250Q293 416 261
416Q201 416 187 389T173 250ZM407 628Q400 628 362 628T250 618T127 608T64 617T50 660L75 711Q150 711 215 720T334 729T405 719T423 673L407 628Z" />
<glyph unicode="&#xf6;" glyph-name="odieresis" horiz-adv-x="474" d="M37 250Q37 359 56 415T116 491T237 512T358 492T418 415T437 250Q437 100 394 42T237 -16T80 42T37 250ZM173 250Q173 82 205 82Q249 82 270 96Q281 104 285 125Q293 167 293 250Q293 416
261 416Q201 416 187 389T173 250ZM48 624T48 696T120 768T192 696T120 624ZM282 624T282 696T354 768T426 696T354 624Z" />
<glyph unicode="&#xf7;" glyph-name="divide" horiz-adv-x="378" d="M117 115T117 187T189 259T261 187T189 115ZM117 489T117 561T189 633T261 561T189 489ZM15 309V433H347L363 417V326L346 309H15Z" />
<glyph unicode="&#xf8;" glyph-name="oslash" horiz-adv-x="446" d="M81 25Q23 79 23 240T61 456T204 513L256 720H361V613L333 497Q382 476 402 420T423 250Q423 100 380 42T223 -16H212L182 -146H46V-114L81 25ZM159 250Q159 82 191 82Q235 82 256 96Q267 104
271 125Q279 167 279 250Q279 418 247 418Q187 418 173 390T159 250Z" />
<glyph unicode="&#xf9;" glyph-name="ugrave" horiz-adv-x="487" d="M185 -16Q111 -16 77 30T42 192V496Q42 512 78 512T150 507T185 496L186 192Q186 80 202 80Q238 80 298 116V496Q298 512 334 512T406 507T442 496V0Q442 -6 440 -8Q436 -16 389 -16T330 0L309
31Q239 -16 185 -16ZM263 557L217 536L57 708L165 768L207 736L264 612L263 557Z" />
<glyph unicode="&#xfa;" glyph-name="uacute" horiz-adv-x="487" d="M185 -16Q111 -16 77 30T42 192V496Q42 512 78 512T150 507T185 496L186 192Q186 80 202 80Q238 80 298 116V496Q298 512 334 512T406 507T442 496V0Q442 -6 440 -8Q436 -16 389 -16T330 0L309
31Q239 -16 185 -16ZM268 536L222 557L221 612L278 736L320 768L428 708L268 536Z" />
<glyph unicode="&#xfb;" glyph-name="ucircumflex" horiz-adv-x="487" d="M185 -16Q111 -16 77 30T42 192V496Q42 512 78 512T150 507T185 496L186 192Q186 80 202 80Q238 80 298 116V496Q298 512 334 512T406 507T442 496V0Q442 -6 440 -8Q436 -16 389 -16T330
0L309 31Q239 -16 185 -16ZM118 572L79 604L92 658L194 748L243 768L292 748L394 658L407 604L368 572L243 653L118 572Z" />
<glyph unicode="&#xfc;" glyph-name="udieresis" horiz-adv-x="487" d="M185 -16Q111 -16 77 30T42 192V496Q42 512 78 512T150 507T185 496L186 192Q186 80 202 80Q238 80 298 116V496Q298 512 334 512T406 507T442 496V0Q442 -6 440 -8Q436 -16 389 -16T330
0L309 31Q239 -16 185 -16ZM288 624T288 696T360 768T432 696T360 624ZM54 624T54 696T126 768T198 696T126 624Z" />
<glyph unicode="&#xfd;" glyph-name="yacute" horiz-adv-x="460" d="M21 499Q21 512 57 512T125 507T158 496L247 154L325 496Q329 512 357 512Q412 512 430 506T448 497L248 -224Q244 -240 216 -240T170 -238Q131 -233 133 -224Q133 -221 134 -219L185 0L22 494V496Q21
498 21 499ZM260 536L214 557L213 612L270 736L312 768L420 708L260 536Z" />
<glyph unicode="&#xfe;" glyph-name="thorn" horiz-adv-x="442" d="M227 512Q348 512 391 459T435 255T401 45T292 -16Q265 -16 180 -5V-223Q180 -229 178 -232Q174 -239 141 -239T76 -234T45 -222V752Q45 768 80 768T139 764T162 752L175 512H227ZM227 416H180V80H275Q286
80 288 122T291 260T278 385T227 416Z" />
<glyph unicode="&#xff;" glyph-name="ydieresis" horiz-adv-x="460" d="M21 499Q21 512 57 512T125 507T158 496L247 154L325 496Q329 512 357 512Q412 512 430 506T448 497L248 -224Q244 -240 216 -240T170 -238Q131 -233 133 -224Q133 -221 134 -219L185 0L22
494V496Q21 498 21 499ZM41 624T41 696T113 768T185 696T113 624ZM275 624T275 696T347 768T419 696T347 624Z" />
<glyph unicode="&#x2013;" glyph-name="endash" horiz-adv-x="556" d="M511 308H61L45 324V432H495L511 416V308Z" />
<glyph unicode="&#x2014;" glyph-name="emdash" horiz-adv-x="745" d="M700 308H61L45 324V432H684L700 416V308Z" />
<glyph unicode="&#x2018;" glyph-name="quoteleft" horiz-adv-x="217" d="M120 768L170 759L185 706L162 572L130 530L10 560L120 768Z" />
<glyph unicode="&#x2019;" glyph-name="quoteright" horiz-adv-x="216" d="M97 530L47 539L32 592L55 726L87 768L207 738L97 530Z" />
<glyph unicode="&#x201a;" glyph-name="quotesinglbase" horiz-adv-x="197" d="M40 56Q40 128 112 128T184 56Q184 17 165 0L65 -128L39 -111V-42L57 3Q40 20 40 56Z" />
<glyph unicode="&#x201c;" glyph-name="quotedblleft" horiz-adv-x="450" d="M136 768L186 759L201 706L178 572L146 530L26 560L136 768ZM346 768L396 759L411 706L388 572L356 530L236 560L346 768Z" />
<glyph unicode="&#x201d;" glyph-name="quotedblright" horiz-adv-x="450" d="M104 530L54 539L39 592L62 726L94 768L214 738L104 530ZM314 530L264 539L249 592L272 726L304 768L424 738L314 530Z" />
<glyph unicode="&#x201e;" glyph-name="quotedblbase" horiz-adv-x="458" d="M44 56Q44 128 116 128T188 56Q188 17 169 0L69 -128L43 -111V-42L61 3Q44 20 44 56ZM284 56Q284 128 356 128T428 56Q428 17 409 0L309 -128L283 -111V-42L301 3Q284 20 284 56Z" />
<glyph unicode="&#x2022;" glyph-name="bullet" horiz-adv-x="262" d="M35 199T35 295T131 391T227 295T131 199Z" />
<glyph unicode="&#x2039;" glyph-name="guilsinglleft" horiz-adv-x="335" d="M301 195L269 156L215 169L29 335L9 384L29 433L199 599L253 612L285 573L124 384L301 195Z" />
<glyph unicode="&#x203a;" glyph-name="guilsinglright" horiz-adv-x="335" d="M66 156L34 195L211 384L50 573L82 612L136 599L306 433L326 384L306 335L120 169L66 156Z" />
</font>
</defs>
</svg>
