<?xml version="1.0" standalone="no"?>
<!DOCTYPE svg PUBLIC "-//W3C//DTD SVG 1.1//EN" "http://www.w3.org/Graphics/SVG/1.1/DTD/svg11.dtd">
<svg xmlns="http://www.w3.org/2000/svg">
<defs >
<font id="Mada" horiz-adv-x="506" ><font-face
    font-family="Mada"
    units-per-em="1000"
    panose-1="0 0 0 0 0 0 0 0 0 0"
    ascent="900"
    descent="-300"
    alphabetic="0" />
<glyph unicode=" " glyph-name="space" horiz-adv-x="200" />
<glyph unicode="!" glyph-name="exclam" horiz-adv-x="289" d="M116 198L105 576L103 670H186L184 576L173 198H116ZM145 -12Q120 -12 103 5T85 50Q85 78 102 96T145 114Q169 114 186 96T204 50Q204 23 187 6T145 -12Z" />
<glyph unicode="&quot;" glyph-name="quotedbl" horiz-adv-x="426" d="M99 431L83 598L80 690H168L165 598L149 431H99ZM276 431L260 598L257 690H345L342 598L326 431H276Z" />
<glyph unicode="#" glyph-name="numbersign" horiz-adv-x="497" d="M176 261H308L326 409H194L176 261ZM90 0L115 204H35V261H122L140 409H55V467H147L170 650H223L200 467H333L357 650H410L386 467H467V409H380L362 261H447V204H355L330 0H277L301 204H169L144 0H90Z" />
<glyph unicode="$" glyph-name="dollar" horiz-adv-x="497" d="M282 -110H222V-11Q174 -6 129 15T52 66L90 123Q122 95 160 76T245 56Q300 56 328 84T356 159Q356 208 328 237T258 286T175 330T105 387T77 481Q77 548 117 593T222 647V748H282V649Q330 644 363
623T424 573L380 524Q352 551 325 566T258 581Q212 581 185 555T158 485Q158 442 186 417T256 372T339 329T409 268T437 165Q437 94 395 48T282 -9V-110Z" />
<glyph unicode="%" glyph-name="percent" horiz-adv-x="824" d="M184 254Q116 254 76 308T35 462Q35 560 75 614T184 668Q251 668 292 614T333 462Q333 362 292 308T184 254ZM184 305Q222 305 246 344T270 462Q270 540 246 578T184 617Q145 617 121 579T97 462Q97
384 121 345T184 305ZM203 -12L565 668H621L259 -12H203ZM641 -12Q573 -12 533 42T492 196Q492 294 532 348T641 402Q708 402 749 348T790 196Q790 96 749 42T641 -12ZM641 39Q679 39 703 78T727 196Q727 274 703 312T641 351Q602 351 578 313T554 196Q554 118
578 79T641 39Z" />
<glyph unicode="&amp;" glyph-name="ampersand" horiz-adv-x="609" d="M572 -12Q538 -2 500 16T421 63Q384 29 337 9T232 -12Q143 -12 88 39T32 170Q32 236 71 280T161 359Q141 399 130 438T118 513Q118 578 160 623T270 668Q331 668 365 632T399 538Q399 474
353 429T251 344Q283 294 326 247T417 160Q479 242 509 354H586Q567 289 539 230T471 119Q539 72 594 56L572 -12ZM189 514Q189 462 220 399Q265 429 298 461T332 537Q332 566 318 587T270 609Q233 609 211 582T189 514ZM241 54Q274 54 306 68T366 107Q318 149
274 199T194 302Q160 275 136 244T112 175Q112 120 149 87T241 54Z" />
<glyph unicode="&apos;" glyph-name="quotesingle" horiz-adv-x="249" d="M99 431L83 598L80 690H168L165 598L149 431H99Z" />
<glyph unicode="(" glyph-name="parenleft" horiz-adv-x="303" d="M214 -176Q152 -76 117 35T82 278Q82 410 117 521T214 732L265 708Q207 613 179 503T150 278Q150 164 178 54T265 -152L214 -176Z" />
<glyph unicode=")" glyph-name="parenright" horiz-adv-x="303" d="M89 -176L38 -152Q96 -57 124 53T153 278Q153 392 125 502T38 708L89 732Q151 632 186 521T221 278Q221 146 186 35T89 -176Z" />
<glyph unicode="*" glyph-name="asterisk" horiz-adv-x="418" d="M138 420L98 449L155 543L58 583L73 629L175 604L184 712H233L242 605L345 629L360 583L263 543L319 449L280 420L209 506L138 420Z" />
<glyph unicode="+" glyph-name="plus" horiz-adv-x="497" d="M216 104V299H34V361H216V556H281V361H463V299H281V104H216Z" />
<glyph unicode="," glyph-name="comma" horiz-adv-x="249" d="M67 -170L47 -122Q139 -82 137 0Q132 -1 127 -1Q103 -1 86 13T68 56Q68 83 86 98T129 114Q161 114 179 88T198 17Q198 -48 163 -96T67 -170Z" />
<glyph unicode="-" glyph-name="hyphen" horiz-adv-x="311" d="M41 219V282H271V219H41Z" />
<glyph unicode="." glyph-name="period" horiz-adv-x="249" d="M125 -12Q100 -12 83 5T65 50Q65 78 82 96T125 114Q149 114 166 96T184 50Q184 23 167 6T125 -12Z" />
<glyph unicode="/" glyph-name="slash" horiz-adv-x="350" d="M10 -160L277 710H337L70 -160H10Z" />
<glyph unicode="0" glyph-name="zero" horiz-adv-x="497" d="M249 -12Q153 -12 99 74T44 321Q44 482 98 566T249 650Q344 650 398 566T453 321Q453 160 399 74T249 -12ZM249 54Q304 54 338 117T373 321Q373 461 339 522T249 584Q193 584 159 523T124 321Q124 181
158 118T249 54Z" />
<glyph unicode="1" glyph-name="one" horiz-adv-x="497" d="M79 0V68H225V538H109V591Q152 598 185 610T244 638H307V68H439V0H79Z" />
<glyph unicode="2" glyph-name="two" horiz-adv-x="497" d="M40 0V49Q184 192 262 286T340 458Q340 513 310 548T219 583Q179 583 145 561T83 506L36 553Q76 596 121 623T229 650Q318 650 369 599T420 462Q420 372 347 278T160 65Q186 67 214 69T267 71H452V0H40Z" />
<glyph unicode="3" glyph-name="three" horiz-adv-x="497" d="M236 -12Q160 -12 109 15T26 78L68 132Q96 102 135 79T231 56Q289 56 326 88T363 173Q363 230 318 265T159 300V363Q261 363 300 397T340 482Q340 528 311 555T230 583Q190 583 156 565T94 518L50
570Q87 604 132 627T233 650Q316 650 370 608T424 488Q424 430 392 393T308 336V332Q366 318 406 277T446 170Q446 85 385 37T236 -12Z" />
<glyph unicode="4" glyph-name="four" horiz-adv-x="497" d="M104 242H304V427Q304 452 306 488T309 550H305Q293 527 280 505T253 460L104 242ZM469 176H382V0H304V176H17V230L290 638H382V242H469V176Z" />
<glyph unicode="5" glyph-name="five" horiz-adv-x="497" d="M234 -12Q158 -12 108 15T25 75L65 129Q94 100 132 78T226 56Q284 56 325 95T366 202Q366 268 329 305T230 342Q197 342 174 332T121 303L77 331L98 638H417V567H170L153 378Q176 390 199 397T251 404Q333
404 391 356T449 204Q449 100 383 44T234 -12Z" />
<glyph unicode="6" glyph-name="six" horiz-adv-x="497" d="M457 193Q457 102 401 45T268 -12Q174 -12 111 64T48 295Q48 423 82 501T172 614T291 650Q343 650 380 631T445 582L399 531Q357 581 294 581Q227 581 178 522T126 310Q156 346 196 368T275 390Q358
390 407 341T457 193ZM268 53Q315 53 347 91T379 193Q379 255 350 291T261 328Q230 328 194 308T128 244Q144 53 268 53Z" />
<glyph unicode="7" glyph-name="seven" horiz-adv-x="497" d="M177 0Q182 120 202 215T260 395T362 567H44V638H455V587Q380 490 340 404T284 221T262 0H177Z" />
<glyph unicode="8" glyph-name="eight" horiz-adv-x="497" d="M250 -12Q160 -12 101 37T41 163Q41 225 78 268T161 335V339Q126 364 99 400T72 486Q72 560 124 605T253 650Q336 650 384 602T433 480Q433 430 404 389T345 326V322Q388 297 422 260T456 158Q456
87 400 38T250 -12ZM295 348Q362 407 362 476Q362 523 333 556T251 589Q207 589 178 561T148 486Q148 429 192 400T295 348ZM252 49Q308 49 342 80T377 161Q377 222 325 252T204 310Q166 284 141 249T115 171Q115 118 154 84T252 49Z" />
<glyph unicode="9" glyph-name="nine" horiz-adv-x="497" d="M235 310Q266 310 302 330T369 395Q353 585 228 585Q182 585 150 547T117 445Q117 383 146 347T235 310ZM205 -12Q154 -12 116 7T51 55L97 107Q140 56 202 56Q269 56 318 116T371 330Q307 248 221 248Q138
248 89 297T40 445Q40 536 96 593T228 650Q322 650 385 574T448 343Q448 215 414 137T324 24T205 -12Z" />
<glyph unicode=":" glyph-name="colon" horiz-adv-x="249" d="M125 349Q100 349 83 366T65 411Q65 439 82 457T125 475Q149 475 166 457T184 411Q184 384 167 367T125 349ZM125 -12Q100 -12 83 5T65 50Q65 78 82 96T125 114Q149 114 166 96T184 50Q184 23 167 6T125 -12Z" />
<glyph unicode=";" glyph-name="semicolon" horiz-adv-x="249" d="M67 -170L47 -122Q139 -82 137 0Q132 -1 127 -1Q103 -1 86 13T68 56Q68 83 86 98T129 114Q161 114 179 88T198 17Q198 -48 163 -96T67 -170ZM125 349Q100 349 83 366T65 411Q65 440 82 457T125
475Q149 475 166 458T184 411Q184 384 167 367T125 349Z" />
<glyph unicode="&lt;" glyph-name="less" horiz-adv-x="497" d="M463 131L34 299V365L463 533V462L252 384L118 334V330L252 280L463 202V131Z" />
<glyph unicode="=" glyph-name="equal" horiz-adv-x="497" d="M34 406V468H463V406H34ZM34 448V510H463V448H34Z" />
<glyph unicode="&gt;" glyph-name="greater" horiz-adv-x="497" d="M34 131V202L245 280L379 330V334L245 384L34 462V533L463 365V299L34 131Z" />
<glyph unicode="?" glyph-name="question" horiz-adv-x="425" d="M160 198Q152 256 171 299T220 376T273 444T297 517Q297 557 273 585T200 614Q135 614 85 556L38 599Q70 635 112 658T210 682Q286 682 331 639T377 522Q377 473 353 436T299 364T247 290T232 198H160ZM198
-12Q173 -12 156 5T139 50Q139 78 156 96T198 114Q223 114 240 96T258 50Q258 23 241 6T198 -12Z" />
<glyph unicode="@" glyph-name="at" horiz-adv-x="847" d="M403 -155Q305 -155 225 -114T98 6T51 203Q51 337 108 436T261 591T468 646Q620 646 708 555T796 315Q796 228 765 169T688 79T596 49Q556 49 527 68T493 125H491Q466 96 434 77T369 57Q318 57 284 93T249
198Q249 252 272 305T339 394T441 430Q495 430 521 382H523L534 422H589L550 222Q520 105 604 105Q651 105 694 159T738 312Q738 433 668 512T461 591Q372 591 292 544T162 410T111 206Q111 60 196 -20T409 -100Q455 -100 496 -87T571 -55L593 -104Q508 -155 403
-155ZM385 113Q428 113 477 172L506 331Q480 373 442 373Q402 373 374 346T331 280T315 203Q315 155 335 134T385 113Z" />
<glyph unicode="A" glyph-name="A" horiz-adv-x="544" d="M203 367L172 267H369L338 367Q320 422 304 476T272 588H268Q253 531 237 477T203 367ZM452 0L390 200H151L88 0H3L225 656H319L541 0H452Z" />
<glyph unicode="B" glyph-name="B" horiz-adv-x="588" d="M90 0V656H285Q385 656 447 619T510 496Q510 447 485 408T414 353V349Q473 338 510 299T548 192Q548 95 479 48T299 0H90ZM173 377H270Q354 377 391 406T428 485Q428 542 389 566T274 590H173V377ZM173
66H287Q372 66 419 97T466 195Q466 256 420 284T287 313H173V66Z" />
<glyph unicode="C" glyph-name="C" horiz-adv-x="571" d="M338 -12Q215 -12 134 78T52 328Q52 486 135 577T343 668Q403 668 448 644T523 587L478 533Q452 561 419 578T344 595Q251 595 195 524T138 330Q138 206 193 134T341 61Q388 61 425 80T493 135L539 83Q500
38 451 13T338 -12Z" />
<glyph unicode="D" glyph-name="D" horiz-adv-x="615" d="M90 0V656H254Q406 656 485 572T564 331Q564 174 485 87T258 0H90ZM173 68H248Q363 68 420 137T478 331Q478 455 421 521T248 588H173V68Z" />
<glyph unicode="E" glyph-name="E" horiz-adv-x="527" d="M90 0V656H468V586H173V380H422V309H173V71H478V0H90Z" />
<glyph unicode="F" glyph-name="F" horiz-adv-x="494" d="M90 0V656H468V586H173V364H423V294H173V0H90Z" />
<glyph unicode="G" glyph-name="G" horiz-adv-x="617" d="M348 -12Q218 -12 135 78T52 328Q52 486 137 577T353 668Q421 668 467 643T542 587L496 533Q471 558 438 576T355 595Q256 595 197 524T138 330Q138 206 194 134T356 61Q432 61 474 100V271H335V340H550V64Q518
31 466 10T348 -12Z" />
<glyph unicode="H" glyph-name="H" horiz-adv-x="652" d="M90 0V656H173V381H478V656H562V0H478V309H173V0H90Z" />
<glyph unicode="I" glyph-name="I" horiz-adv-x="263" d="M90 0V656H173V0H90Z" />
<glyph unicode="J" glyph-name="J" horiz-adv-x="480" d="M212 -12Q89 -12 31 93L91 135Q132 61 204 61Q256 61 282 93T309 201V656H393V193Q393 108 351 48T212 -12Z" />
<glyph unicode="K" glyph-name="K" horiz-adv-x="579" d="M90 0V656H173V327H176L449 656H543L338 406L575 0H482L286 341L173 208V0H90Z" />
<glyph unicode="L" glyph-name="L" horiz-adv-x="486" d="M90 0V656H173V71H460V0H90Z" />
<glyph unicode="M" glyph-name="M" horiz-adv-x="727" d="M90 0V656H190L316 306Q328 272 339 238T363 169H367Q379 203 389 237T412 306L536 656H637V0H559V361Q559 404 563 458T570 555H566L514 406L390 66H335L211 406L159 555H155Q158 512 161 458T165 361V0H90Z" />
<glyph unicode="N" glyph-name="N" horiz-adv-x="647" d="M90 0V656H176L413 244L484 108H488Q485 158 482 211T478 317V656H557V0H471L233 413L162 548H158Q162 498 165 447T169 343V0H90Z" />
<glyph unicode="O" glyph-name="O" horiz-adv-x="664" d="M332 -12Q208 -12 130 80T52 331Q52 488 130 578T332 668Q456 668 534 578T613 331Q613 173 535 81T332 -12ZM332 61Q420 61 473 134T526 331Q526 453 473 524T332 595Q244 595 191 524T138 331Q138 208
191 135T332 61Z" />
<glyph unicode="P" glyph-name="P" horiz-adv-x="566" d="M90 0V656H277Q387 656 455 614T523 463Q523 360 456 310T281 260H173V0H90ZM173 328H271Q440 328 440 463Q440 534 397 561T267 589H173V328Z" />
<glyph unicode="Q" glyph-name="Q" horiz-adv-x="664" d="M533 -165Q442 -165 381 -121T291 -9Q184 6 118 96T52 331Q52 488 130 578T332 668Q456 668 534 578T613 331Q613 189 549 100T381 -8Q403 -52 445 -73T542 -95Q564 -95 581 -93T611 -86L627 -150Q612
-156 587 -160T533 -165ZM332 57Q420 57 473 131T526 331Q526 453 473 524T332 595Q244 595 191 524T138 331Q138 205 191 131T332 57Z" />
<glyph unicode="R" glyph-name="R" horiz-adv-x="569" d="M173 345H283Q442 345 442 472Q442 536 401 562T283 589H173V345ZM173 0H90V656H295Q396 656 460 615T525 472Q525 395 485 349T377 286L544 0H450L292 277H173V0Z" />
<glyph unicode="S" glyph-name="S" horiz-adv-x="534" d="M272 -12Q203 -12 144 14T42 85L92 143Q127 106 174 84T273 61Q338 61 374 90T410 168Q410 218 379 240T301 284L207 325Q160 344 117 383T74 494Q74 569 132 618T280 668Q338 668 388 646T474 587L429
533Q399 562 363 578T280 595Q225 595 192 569T158 499Q158 452 193 429T267 390L360 350Q417 325 456 287T495 175Q495 97 436 43T272 -12Z" />
<glyph unicode="T" glyph-name="T" horiz-adv-x="536" d="M226 0V586H28V656H508V586H310V0H226Z" />
<glyph unicode="U" glyph-name="U" horiz-adv-x="645" d="M323 -12Q222 -12 155 50T87 271V656H170V269Q170 150 214 106T323 61Q388 61 433 105T478 269V656H558V271Q558 113 491 51T323 -12Z" />
<glyph unicode="V" glyph-name="V" horiz-adv-x="515" d="M210 0L0 656H89L194 302Q212 244 225 194T258 85H262Q280 143 294 193T325 302L430 656H515L307 0H210Z" />
<glyph unicode="W" glyph-name="W" horiz-adv-x="786" d="M162 0L23 656H109L178 299Q187 246 197 193T216 87H220Q231 140 243 193T266 299L357 656H433L524 299Q536 247 548 194T572 87H576Q585 140 594 193T613 299L682 656H762L626 0H526L427 395Q410 466
395 544H391Q384 506 375 470T358 395L261 0H162Z" />
<glyph unicode="X" glyph-name="X" horiz-adv-x="513" d="M15 0L206 339L28 656H120L209 488Q222 466 233 444T260 393H264Q278 422 288 444T311 488L398 656H486L307 335L498 0H406L310 177Q297 201 284 226T254 282H250Q236 252 223 227T198 177L103 0H15Z" />
<glyph unicode="Y" glyph-name="Y" horiz-adv-x="476" d="M196 0V254L-1 656H88L173 471Q189 435 204 400T236 328H240Q257 365 274 400T306 471L390 656H477L280 254V0H196Z" />
<glyph unicode="Z" glyph-name="Z" horiz-adv-x="539" d="M45 0V50L390 586H76V656H494V607L148 71H497V0H45Z" />
<glyph unicode="[" glyph-name="bracketleft" horiz-adv-x="303" d="M94 -152V708H273V661H156V-105H273V-152H94Z" />
<glyph unicode="\" glyph-name="backslash" horiz-adv-x="350" d="M281 -160L14 710H73L340 -160H281Z" />
<glyph unicode="]" glyph-name="bracketright" horiz-adv-x="303" d="M31 -152V-105H147V661H31V708H209V-152H31Z" />
<glyph unicode="^" glyph-name="asciicircum" horiz-adv-x="497" d="M60 284L212 670H285L437 284H365L300 460L251 593H247L197 460L132 284H60Z" />
<glyph unicode="_" glyph-name="underscore" horiz-adv-x="500" d="M12 -126V-71H488V-126H12Z" />
<glyph unicode="`" glyph-name="grave" horiz-adv-x="542" d="M285 573L128 726L186 781L327 614L285 573Z" />
<glyph unicode="a" glyph-name="a" horiz-adv-x="504" d="M218 54Q253 54 284 71T350 119V254Q228 239 180 209T132 132Q132 91 157 73T218 54ZM194 -12Q133 -12 93 24T52 126Q52 206 123 248T350 308Q350 354 330 392T250 430Q208 430 171 414T105 378L73 435Q107
457 156 477T264 498Q353 498 393 444T433 298V0H365L358 58H355Q320 30 280 9T194 -12Z" />
<glyph unicode="b" glyph-name="b" horiz-adv-x="553" d="M297 -12Q226 -12 158 50H155L148 0H82V712H164V518L162 430Q195 459 234 478T314 498Q408 498 457 431T507 251Q507 126 444 57T297 -12ZM283 57Q343 57 382 108T422 250Q422 330 393 379T294 429Q235
429 164 363V108Q196 80 227 69T283 57Z" />
<glyph unicode="c" glyph-name="c" horiz-adv-x="456" d="M274 -12Q177 -12 112 54T46 242Q46 364 116 431T280 498Q328 498 362 481T422 441L380 387Q359 406 336 418T283 430Q217 430 174 378T131 242Q131 159 172 108T281 56Q315 56 343 70T395 105L431 50Q361
-12 274 -12Z" />
<glyph unicode="d" glyph-name="d" horiz-adv-x="555" d="M266 57Q330 57 390 124V378Q359 406 331 417T272 429Q214 429 173 378T132 243Q132 156 167 107T266 57ZM248 -12Q156 -12 102 54T47 242Q47 360 111 429T258 498Q300 498 331 483T394 442L390 525V712H473V0H405L398
57H395Q366 29 329 9T248 -12Z" />
<glyph unicode="e" glyph-name="e" horiz-adv-x="496" d="M279 -12Q182 -12 114 55T46 242Q46 322 77 379T158 467T264 498Q357 498 407 436T458 270Q458 241 455 223H127Q132 146 175 100T289 54Q324 54 353 64T410 92L439 38Q408 18 368 3T279 -12ZM126 282H386Q386
433 266 433Q215 433 175 394T126 282Z" />
<glyph unicode="f" glyph-name="f" horiz-adv-x="292" d="M281 419H178V0H96V419H30V481L96 486V563Q96 637 130 680T238 724Q260 724 281 720T319 708L301 645Q274 657 246 657Q178 657 178 563V486H281V419Z" />
<glyph unicode="g" glyph-name="g" horiz-adv-x="504" d="M246 209Q288 209 318 240T349 325Q349 378 319 408T246 438Q203 438 173 408T143 325Q143 272 173 241T246 209ZM246 -224Q157 -224 101 -190T45 -93Q45 -31 116 17V21Q98 32 86 52T73 100Q73 131 90
154T126 190V194Q102 214 83 248T63 325Q63 404 117 451T246 498Q284 498 315 486H484V423H384Q401 406 412 380T424 323Q424 245 372 200T246 154Q207 154 173 171Q160 160 151 147T142 113Q142 90 160 75T228 60H322Q492 60 492 -56Q492 -124 426 -174T246 -224ZM258
-167Q328 -167 370 -137T412 -68Q412 -34 387 -21T314 -8H230Q216 -8 200 -6T167 0Q117 -36 117 -82Q117 -121 154 -144T258 -167Z" />
<glyph unicode="h" glyph-name="h" horiz-adv-x="544" d="M82 0V712H164V518L161 418Q196 451 234 474T323 498Q471 498 471 308V0H389V297Q389 365 367 396T297 427Q260 427 231 408T164 352V0H82Z" />
<glyph unicode="i" glyph-name="i" horiz-adv-x="246" d="M124 586Q100 586 84 601T67 639Q67 663 83 677T124 692Q148 692 164 678T181 639Q181 616 165 601T124 586ZM82 0V486H164V0H82Z" />
<glyph unicode="j" glyph-name="j" horiz-adv-x="247" d="M125 586Q101 586 85 601T68 639Q68 663 84 677T125 692Q148 692 164 678T181 639Q181 616 165 601T125 586ZM32 -217Q10 -217 -8 -213T-40 -204L-23 -142Q-14 -145 -2 -147T23 -150Q59 -150 71 -125T83
-55V486H165V-55Q165 -129 135 -173T32 -217Z" />
<glyph unicode="k" glyph-name="k" horiz-adv-x="495" d="M82 0V712H163V230H166L373 486H464L301 291L486 0H396L254 234L163 128V0H82Z" />
<glyph unicode="l" glyph-name="l" horiz-adv-x="255" d="M169 -12Q82 -12 82 98V712H164V92Q164 56 187 56Q196 56 205 58L216 -4Q198 -12 169 -12Z" />
<glyph unicode="m" glyph-name="m" horiz-adv-x="829" d="M82 0V486H150L157 416H160Q192 450 230 474T311 498Q366 498 398 473T445 405Q483 446 522 472T605 498Q753 498 753 308V0H671V297Q671 427 581 427Q526 427 459 352V0H377V297Q377 427 286 427Q232
427 164 352V0H82Z" />
<glyph unicode="n" glyph-name="n" horiz-adv-x="547" d="M82 0V486H150L157 416H160Q194 450 233 474T323 498Q471 498 471 308V0H389V297Q389 365 367 396T297 427Q260 427 231 408T164 352V0H82Z" />
<glyph unicode="o" glyph-name="o" horiz-adv-x="542" d="M271 -12Q182 -12 114 54T46 242Q46 364 114 431T271 498Q360 498 428 431T496 242Q496 121 428 55T271 -12ZM271 56Q334 56 372 107T411 242Q411 326 373 378T271 430Q209 430 170 378T131 242Q131 159
170 108T271 56Z" />
<glyph unicode="p" glyph-name="p" horiz-adv-x="555" d="M283 57Q343 57 382 108T422 250Q422 330 393 379T294 429Q238 429 164 363V108Q197 80 228 69T283 57ZM82 -205V486H150L157 430H160Q193 458 232 478T315 498Q409 498 458 431T507 250Q507 126 444 57T297
-12Q263 -12 230 3T162 44L164 -41V-205H82Z" />
<glyph unicode="q" glyph-name="q" horiz-adv-x="555" d="M390 -205V-32L394 56Q365 28 328 8T248 -12Q156 -12 102 54T47 242Q47 360 111 429T258 498Q300 498 332 483T397 440H399L407 486H473V-205H390ZM266 57Q330 57 390 124V378Q359 406 331 417T272 429Q214
429 173 378T132 243Q132 156 167 107T266 57Z" />
<glyph unicode="r" glyph-name="r" horiz-adv-x="347" d="M82 0V486H150L157 398H160Q185 444 221 471T298 498Q327 498 350 488L334 416Q322 420 312 422T287 424Q256 424 223 399T164 312V0H82Z" />
<glyph unicode="s" glyph-name="s" horiz-adv-x="419" d="M209 -12Q157 -12 110 7T28 55L69 110Q100 84 134 68T212 52Q260 52 284 74T308 128Q308 166 273 185T197 220Q145 239 99 268T52 360Q52 418 96 458T219 498Q265 498 303 482T370 443L331 391Q306 410
279 422T220 434Q174 434 153 413T131 364Q131 330 164 313T239 280Q292 260 339 231T387 133Q387 74 341 31T209 -12Z" />
<glyph unicode="t" glyph-name="t" horiz-adv-x="338" d="M235 -12Q157 -12 127 33T96 150V419H24V481L100 486L110 622H179V486H310V419H179V149Q179 104 195 80T254 55Q267 55 282 59T309 68L325 6Q305 -1 282 -6T235 -12Z" />
<glyph unicode="u" glyph-name="u" horiz-adv-x="544" d="M224 -12Q75 -12 75 178V486H158V189Q158 121 179 90T249 59Q286 59 316 78T380 141V486H462V0H394L387 76H384Q350 36 312 12T224 -12Z" />
<glyph unicode="v" glyph-name="v" horiz-adv-x="467" d="M187 0L12 486H97L189 210Q200 174 211 138T234 67H238Q248 102 260 138T282 210L374 486H455L283 0H187Z" />
<glyph unicode="w" glyph-name="w" horiz-adv-x="718" d="M159 0L24 486H108L180 205Q188 170 195 137T209 70H213Q221 104 229 137T246 205L321 486H401L477 205Q486 170 494 137T511 70H515Q523 104 530 137T545 205L616 486H694L564 0H464L394 261Q385 296
378 330T361 401H357Q349 364 341 329T323 260L255 0H159Z" />
<glyph unicode="x" glyph-name="x" horiz-adv-x="446" d="M14 0L173 254L26 486H115L180 379Q191 360 203 339T228 298H232Q242 318 253 339T276 379L335 486H421L274 245L432 0H343L272 113Q259 135 246 157T219 200H215Q202 179 190 158T166 113L100 0H14Z" />
<glyph unicode="y" glyph-name="y" horiz-adv-x="467" d="M90 -209Q60 -209 33 -199L49 -134Q56 -136 66 -138T86 -141Q127 -141 154 -112T196 -37L207 -1L12 486H97L196 217Q207 186 219 150T243 80H247Q258 113 268 149T288 217L375 486H455L272 -40Q246 -112
205 -160T90 -209Z" />
<glyph unicode="z" glyph-name="z" horiz-adv-x="425" d="M31 0V44L287 419H59V486H391V442L135 67H399V0H31Z" />
<glyph unicode="{" glyph-name="braceleft" horiz-adv-x="303" d="M228 -152Q169 -152 140 -124T111 -19Q111 36 115 80T120 174Q120 203 103 227T34 252V304Q85 305 102 328T120 381Q120 432 116 476T111 575Q111 652 140 680T228 708H273V661H246Q206 661 192
640T178 570Q178 524 181 482T184 389Q184 297 124 280V276Q184 259 184 167Q184 116 181 74T178 -14Q178 -63 192 -84T246 -105H273V-152H228Z" />
<glyph unicode="|" glyph-name="bar" horiz-adv-x="241" d="M92 -250V750H150V-250H92Z" />
<glyph unicode="}" glyph-name="braceright" horiz-adv-x="303" d="M31 -152V-105H57Q98 -105 111 -84T125 -14Q125 32 123 74T120 167Q120 260 179 276V280Q120 296 120 389Q120 440 122 482T125 570Q125 619 112 640T57 661H31V708H75Q135 708 163 680T192 575Q192
520 188 476T183 381Q183 352 201 329T269 304V252Q219 251 201 227T183 174Q183 124 187 80T192 -19Q192 -96 164 -124T75 -152H31Z" />
<glyph unicode="~" glyph-name="asciitilde" horiz-adv-x="497" d="M336 257Q296 257 267 278T213 320T159 341Q115 341 82 280L36 313Q63 361 96 382T161 403Q200 403 229 382T284 340T338 319Q382 319 415 380L461 346Q434 299 401 278T336 257Z" />
<glyph unicode="&#xa0;" glyph-name="space" horiz-adv-x="200" />
<glyph unicode="&#xa1;" glyph-name="exclamdown" horiz-adv-x="289" d="M145 372Q120 372 103 390T85 436Q85 463 102 480T145 498Q169 498 186 481T204 436Q204 408 187 390T145 372ZM103 -184L105 -90L116 288H173L184 -90L186 -184H103Z" />
<glyph unicode="&#xa2;" glyph-name="cent" horiz-adv-x="497" d="M454 133Q391 76 314 70V-33H262V71Q173 81 117 143T61 310Q61 414 119 474T262 547V653H314V550Q357 547 389 531T445 492L405 440Q362 479 314 482V138Q345 140 371 153T418 185L454 133ZM143
310Q143 244 174 200T262 142V477Q207 464 175 420T143 310Z" />
<glyph unicode="&#xa3;" glyph-name="sterling" horiz-adv-x="497" d="M453 71V0H54V50Q105 78 132 126T160 230Q160 255 153 285H53V337L120 341H138Q128 372 120 403T111 466Q111 551 162 600T297 650Q350 650 388 629T452 575L404 528Q385 551 361 566T303
581Q249 581 221 549T192 464Q192 433 199 403T216 341H375V285H229Q234 256 234 229Q234 176 218 141T172 75V71H453Z" />
<glyph unicode="&#xa4;" glyph-name="currency" horiz-adv-x="497" d="M70 103L26 148L90 213Q54 262 54 329Q54 397 90 446L26 512L70 557L138 487Q186 524 249 524Q311 524 359 487L427 557L471 512L406 446Q443 396 443 329Q443 263 406 213L471 148L427 103L359
172Q312 134 249 134Q185 134 138 172L70 103ZM249 195Q297 195 332 232T367 329Q367 389 332 426T249 463Q200 463 165 426T130 329Q130 269 165 232T249 195Z" />
<glyph unicode="&#xa5;" glyph-name="yen" horiz-adv-x="497" d="M207 0V158H45V206H207V271H45V318H186L23 638H109L187 467Q202 434 216 401T247 332H251Q268 367 282 400T312 467L390 638H474L310 318H452V271H289V206H452V158H289V0H207Z" />
<glyph unicode="&#xa6;" glyph-name="brokenbar" horiz-adv-x="241" d="M92 291V750H150V291H92ZM92 -250V214H150V-250H92Z" />
<glyph unicode="&#xa7;" glyph-name="section" horiz-adv-x="497" d="M117 348Q117 304 150 280T231 237T320 193Q349 207 364 226T380 278Q380 323 347 348T267 392T178 435Q150 420 134 399T117 348ZM236 -64Q129 -64 63 7L113 52Q138 28 167 14T236 0Q276 0
298 20T321 69Q321 103 293 124T224 161T142 199T73 254T45 343Q45 386 69 418T131 472Q99 506 99 554Q99 606 137 645T251 684Q298 684 337 667T405 627L365 574Q341 594 314 607T254 620Q212 620 194 601T175 557Q175 525 203 505T272 467T355 429T424 373T452
284Q452 237 429 207T367 155Q397 120 397 73Q397 14 352 -25T236 -64Z" />
<glyph unicode="&#xa8;" glyph-name="dieresis" horiz-adv-x="542" d="M367 587Q346 587 332 601T318 637Q318 658 332 672T367 687Q389 687 403 673T417 637Q417 616 403 602T367 587ZM175 587Q153 587 139 601T125 637Q125 658 139 672T175 687Q196 687 210
673T224 637Q224 616 210 602T175 587Z" />
<glyph unicode="&#xa9;" glyph-name="copyright" horiz-adv-x="744" d="M372 -11Q285 -11 212 30T94 146T49 323Q49 424 93 498T211 613T372 653Q459 653 532 613T650 499T695 323Q695 221 651 146T533 30T372 -11ZM372 31Q448 31 510 67T610 170T648 323Q648
410 611 475T511 576T372 612Q296 612 234 576T134 475T96 323Q96 236 133 170T233 68T372 31ZM380 125Q304 125 251 177T198 323Q198 410 254 461T383 512Q425 512 454 496T508 455L473 416Q453 436 433 446T386 457Q331 457 298 420T264 323Q264 257 296 219T383
180Q414 180 438 192T485 224L515 182Q487 158 456 142T380 125Z" />
<glyph unicode="&#xaa;" glyph-name="ordfeminine" horiz-adv-x="345" d="M154 436Q193 436 236 476V561Q159 553 129 534T98 486Q98 436 154 436ZM136 387Q92 387 65 412T37 481Q37 534 84 562T236 600Q235 632 222 652T174 673Q148 673 121 663T73 639L50 682Q75
697 109 710T183 724Q243 724 270 689T298 591V395H248L241 432H237Q217 414 192 401T136 387Z" />
<glyph unicode="&#xab;" glyph-name="guillemotleft" horiz-adv-x="429" d="M181 66L45 221V283L181 438L217 408L99 252L217 94L181 66ZM339 66L203 221V283L339 438L375 408L257 252L375 94L339 66Z" />
<glyph unicode="&#xac;" glyph-name="logicalnot" horiz-adv-x="497" d="M397 104V299H34V361H463V104H397Z" />
<glyph unicode="&#xad;" glyph-name="uni00AD" horiz-adv-x="311" d="M41 219V282H271V219H41Z" />
<glyph unicode="&#xae;" glyph-name="registered" horiz-adv-x="423" d="M211 319Q134 319 79 373T23 516Q23 604 78 658T211 713Q289 713 344 659T400 516Q400 428 345 374T211 319ZM211 356Q274 356 317 400T360 516Q360 586 317 631T211 677Q148 677 106 632T63
516Q63 445 105 401T211 356ZM180 519H206Q249 519 249 553Q249 586 208 586H180V519ZM139 417V620H215Q246 620 269 606T293 555Q293 513 256 500L302 417H256L221 487H180V417H139Z" />
<glyph unicode="&#xaf;" glyph-name="overscore" horiz-adv-x="542" d="M138 601V658H404V601H138Z" />
<glyph unicode="&#xb0;" glyph-name="degree" horiz-adv-x="331" d="M166 429Q116 429 79 463T41 556Q41 615 78 650T166 685Q216 685 253 650T291 556Q291 498 254 464T166 429ZM166 475Q199 475 220 498T241 556Q241 593 220 616T166 639Q133 639 112 616T91
556Q91 521 112 498T166 475Z" />
<glyph unicode="&#xb1;" glyph-name="plusminus" horiz-adv-x="497" d="M216 127V304H34V366H216V556H281V366H463V304H281V127H216ZM34 0V62H463V0H34Z" />
<glyph unicode="&#xb2;" glyph-name="two.sups" horiz-adv-x="367" d="M52 395V432Q143 514 190 565T237 661Q237 699 217 721T162 743Q137 743 116 727T78 686L40 721Q62 755 96 776T170 797Q228 797 264 765T300 671Q300 615 259 565T155 450H320V395H52Z" />
<glyph unicode="&#xb3;" glyph-name="three.sups" horiz-adv-x="367" d="M180 383Q133 383 96 404T35 459L78 492Q117 434 177 434Q208 434 231 452T255 504Q255 538 223 555T134 573V614Q184 614 212 634T240 684Q240 712 221 729T169 746Q147 746 127 733T90
699L51 733Q76 762 107 779T179 797Q229 797 266 769T303 692Q303 657 284 634T235 596Q268 588 293 564T319 500Q319 446 278 415T180 383Z" />
<glyph unicode="&#xb4;" glyph-name="acute" horiz-adv-x="542" d="M257 573L215 614L356 781L414 726L257 573Z" />
<glyph unicode="&#xb5;" glyph-name="uni00B5" horiz-adv-x="562" d="M82 -179V486H164V189Q164 59 253 59Q286 59 317 76T382 154V486H465Q464 388 462 286T459 95Q459 56 495 56Q508 56 524 62L535 0Q524 -5 511 -8T477 -12Q399 -12 389 82H387Q335 -10 252
-10Q223 -10 199 -1T158 37Q159 -35 160 -78T165 -179H82Z" />
<glyph unicode="&#xb6;" glyph-name="paragraph" horiz-adv-x="560" d="M293 226Q184 226 113 278T41 443Q41 561 109 608T282 656H326V226H293ZM380 -80V656H464V-80H380Z" />
<glyph unicode="&#xb7;" glyph-name="middot" horiz-adv-x="249" d="M125 259Q100 259 83 276T65 321Q65 349 82 367T125 385Q149 385 166 367T184 321Q184 294 167 277T125 259Z" />
<glyph unicode="&#xb8;" glyph-name="cedilla" horiz-adv-x="542" d="M190 -226L182 -186Q245 -182 268 -170T291 -136Q291 -116 274 -105T214 -88L258 3H311L282 -64Q317 -72 336 -88T355 -135Q355 -218 190 -226Z" />
<glyph unicode="&#xb9;" glyph-name="one.sups" horiz-adv-x="367" d="M172 395V703H87V745Q120 751 142 760T184 785H236V395H172Z" />
<glyph unicode="&#xba;" glyph-name="ordmasculine" horiz-adv-x="365" d="M182 387Q120 387 75 431T30 555Q30 636 75 680T182 724Q244 724 289 680T334 555Q334 476 289 432T182 387ZM182 438Q223 438 246 470T270 555Q270 608 247 640T182 673Q141 673 117
641T93 555Q93 503 117 471T182 438Z" />
<glyph unicode="&#xbb;" glyph-name="guillemotright" horiz-adv-x="429" d="M89 66L54 94L172 252L54 408L89 438L226 283V221L89 66ZM247 66L212 94L330 252L212 408L247 438L384 283V221L247 66Z" />
<glyph unicode="&#xbc;" glyph-name="onequarter" horiz-adv-x="781" d="M148 266V574H63V616Q96 622 118 631T160 656H212V266H148ZM180 -12L542 668H598L236 -12H180ZM522 150H633V220L637 329H633L583 248L522 150ZM749 104H691V0H633V104H455V137L619 390H691V150H749V104Z"
/>
<glyph unicode="&#xbd;" glyph-name="onehalf" horiz-adv-x="808" d="M148 266V574H63V616Q96 622 118 631T160 656H212V266H148ZM160 -12L522 668H578L216 -12H160ZM493 0V37Q584 119 631 170T678 266Q678 304 658 326T603 348Q578 348 557 332T519 291L481 326Q503
360 537 381T611 402Q669 402 705 370T741 276Q741 220 700 170T596 55H761V0H493Z" />
<glyph unicode="&#xbe;" glyph-name="threequarters" horiz-adv-x="796" d="M179 254Q132 254 95 275T34 330L77 363Q116 305 176 305Q207 305 230 323T254 375Q254 409 222 426T133 444V485Q183 485 211 505T239 555Q239 583 220 600T168 617Q146 617 126 604T89
570L50 604Q75 633 106 650T178 668Q228 668 265 640T302 563Q302 528 283 505T234 467Q267 459 292 435T318 371Q318 317 277 286T179 254ZM218 -12L580 668H636L274 -12H218ZM537 150H648V220L652 329H648L598 248L537 150ZM764 104H706V0H648V104H470V137L634
390H706V150H764V104Z" />
<glyph unicode="&#xbf;" glyph-name="questiondown" horiz-adv-x="425" d="M227 372Q202 372 185 390T167 436Q167 463 184 480T227 498Q251 498 268 481T286 436Q286 408 269 390T227 372ZM215 -196Q139 -196 94 -153T48 -36Q48 13 72 50T126 122T177 196T192
288H265Q273 230 254 187T205 110T152 42T128 -31Q128 -71 152 -99T225 -127Q290 -127 339 -70L387 -113Q355 -148 313 -172T215 -196Z" />
<glyph unicode="&#xc0;" glyph-name="Agrave" horiz-adv-x="544" d="M203 367L172 267H369L338 367Q320 422 304 476T272 588H268Q253 531 237 477T203 367ZM452 0L390 200H151L88 0H3L225 656H319L541 0H452ZM287 697L135 812L182 867L324 739L287 697Z" />
<glyph unicode="&#xc1;" glyph-name="Aacute" horiz-adv-x="544" d="M203 367L172 267H369L338 367Q320 422 304 476T272 588H268Q253 531 237 477T203 367ZM452 0L390 200H151L88 0H3L225 656H319L541 0H452ZM253 697L216 739L358 867L405 812L253 697Z" />
<glyph unicode="&#xc2;" glyph-name="Acircumflex" horiz-adv-x="544" d="M203 367L172 267H369L338 367Q320 422 304 476T272 588H268Q253 531 237 477T203 367ZM452 0L390 200H151L88 0H3L225 656H319L541 0H452ZM122 725L227 838H313L418 725L382 699L272 792H268L158
699L122 725Z" />
<glyph unicode="&#xc3;" glyph-name="Atilde" horiz-adv-x="544" d="M203 367L172 267H369L338 367Q320 422 304 476T272 588H268Q253 531 237 477T203 367ZM452 0L390 200H151L88 0H3L225 656H319L541 0H452ZM345 709Q308 709 284 726T240 762T197 780Q155 780
149 714L93 718Q96 775 123 808T195 841Q232 841 256 824T300 788T343 770Q383 770 391 836L447 832Q444 774 417 742T345 709Z" />
<glyph unicode="&#xc4;" glyph-name="Adieresis" horiz-adv-x="544" d="M203 367L172 267H369L338 367Q320 422 304 476T272 588H268Q253 531 237 477T203 367ZM452 0L390 200H151L88 0H3L225 656H319L541 0H452ZM373 715Q351 715 338 729T324 764Q324 813 373
813Q394 813 408 800T422 764Q422 743 408 729T373 715ZM167 715Q146 715 132 729T118 764Q118 786 132 799T167 813Q216 813 216 764Q216 743 203 729T167 715Z" />
<glyph unicode="&#xc5;" glyph-name="Aring" horiz-adv-x="544" d="M270 699Q228 699 201 723T173 789Q173 830 200 855T270 880Q311 880 339 855T367 789Q367 748 339 724T270 699ZM270 735Q290 735 305 749T321 789Q321 814 306 828T270 843Q248 843 233 829T218
789Q218 763 233 749T270 735ZM203 367L172 267H369L338 367Q320 422 304 476T272 588H268Q253 531 237 477T203 367ZM452 0L390 200H151L88 0H3L225 656H319L541 0H452Z" />
<glyph unicode="&#xc6;" glyph-name="AE" horiz-adv-x="822" d="M290 376L229 258H401V590H397Q344 483 290 376ZM401 0V191H195L96 0H8L352 656H763V586H485V380H717V309H485V71H773V0H401Z" />
<glyph unicode="&#xc7;" glyph-name="Ccedilla" horiz-adv-x="571" d="M421 -135Q421 -218 256 -226L248 -186Q311 -182 334 -170T357 -136Q357 -116 340 -105T280 -88L317 -11Q202 -4 127 85T52 328Q52 486 135 577T343 668Q403 668 448 644T523 587L478 533Q452
561 419 578T344 595Q251 595 195 524T138 330Q138 206 193 134T341 61Q388 61 425 80T493 135L539 83Q505 44 464 20T371 -10L348 -64Q382 -72 401 -88T421 -135Z" />
<glyph unicode="&#xc8;" glyph-name="Egrave" horiz-adv-x="527" d="M90 0V656H468V586H173V380H422V309H173V71H478V0H90ZM301 697L149 812L196 867L338 739L301 697Z" />
<glyph unicode="&#xc9;" glyph-name="Eacute" horiz-adv-x="527" d="M90 0V656H468V586H173V380H422V309H173V71H478V0H90ZM267 697L230 739L372 867L419 812L267 697Z" />
<glyph unicode="&#xca;" glyph-name="Ecircumflex" horiz-adv-x="527" d="M90 0V656H468V586H173V380H422V309H173V71H478V0H90ZM136 725L241 838H327L432 725L396 699L286 792H282L172 699L136 725Z" />
<glyph unicode="&#xcb;" glyph-name="Edieresis" horiz-adv-x="527" d="M90 0V656H468V586H173V380H422V309H173V71H478V0H90ZM387 715Q365 715 352 729T338 764Q338 813 387 813Q408 813 422 800T436 764Q436 743 422 729T387 715ZM181 715Q160 715 146 729T132
764Q132 786 146 799T181 813Q230 813 230 764Q230 743 217 729T181 715Z" />
<glyph unicode="&#xcc;" glyph-name="Igrave" horiz-adv-x="263" d="M90 0V656H173V0H90ZM148 697L-4 812L43 867L185 739L148 697Z" />
<glyph unicode="&#xcd;" glyph-name="Iacute" horiz-adv-x="263" d="M90 0V656H173V0H90ZM114 697L77 739L219 867L266 812L114 697Z" />
<glyph unicode="&#xce;" glyph-name="Icircumflex" horiz-adv-x="263" d="M90 0V656H173V0H90ZM-17 725L88 838H174L279 725L243 699L133 792H129L19 699L-17 725Z" />
<glyph unicode="&#xcf;" glyph-name="Idieresis" horiz-adv-x="263" d="M90 0V656H173V0H90ZM234 715Q212 715 199 729T185 764Q185 813 234 813Q255 813 269 800T283 764Q283 743 269 729T234 715ZM28 715Q7 715 -7 729T-21 764Q-21 786 -7 799T28 813Q77 813
77 764Q77 743 64 729T28 715Z" />
<glyph unicode="&#xd0;" glyph-name="Eth" horiz-adv-x="638" d="M280 0H112V321H33V364L112 368V656H276Q428 656 507 572T586 331Q586 174 507 87T280 0ZM195 68H270Q385 68 442 137T500 331Q500 455 443 521T270 588H195V368H344V321H195V68Z" />
<glyph unicode="&#xd1;" glyph-name="Ntilde" horiz-adv-x="647" d="M90 0V656H176L413 244L484 108H488Q485 158 482 211T478 317V656H557V0H471L233 413L162 548H158Q162 498 165 447T169 343V0H90ZM402 709Q364 709 340 726T297 762T254 780Q212 780 206 714L150
718Q153 775 180 808T252 841Q290 841 314 824T357 788T400 770Q440 770 448 836L504 832Q501 774 474 742T402 709Z" />
<glyph unicode="&#xd2;" glyph-name="Ograve" horiz-adv-x="664" d="M332 -12Q208 -12 130 80T52 331Q52 488 130 578T332 668Q456 668 534 578T613 331Q613 173 535 81T332 -12ZM332 61Q420 61 473 134T526 331Q526 453 473 524T332 595Q244 595 191 524T138
331Q138 208 191 135T332 61ZM349 697L197 812L244 867L386 739L349 697Z" />
<glyph unicode="&#xd3;" glyph-name="Oacute" horiz-adv-x="664" d="M332 -12Q208 -12 130 80T52 331Q52 488 130 578T332 668Q456 668 534 578T613 331Q613 173 535 81T332 -12ZM332 61Q420 61 473 134T526 331Q526 453 473 524T332 595Q244 595 191 524T138
331Q138 208 191 135T332 61ZM315 697L278 739L420 867L467 812L315 697Z" />
<glyph unicode="&#xd4;" glyph-name="Ocircumflex" horiz-adv-x="664" d="M332 -12Q208 -12 130 80T52 331Q52 488 130 578T332 668Q456 668 534 578T613 331Q613 173 535 81T332 -12ZM332 61Q420 61 473 134T526 331Q526 453 473 524T332 595Q244 595 191 524T138
331Q138 208 191 135T332 61ZM184 725L289 838H375L480 725L444 699L334 792H330L220 699L184 725Z" />
<glyph unicode="&#xd5;" glyph-name="Otilde" horiz-adv-x="664" d="M332 -12Q208 -12 130 80T52 331Q52 488 130 578T332 668Q456 668 534 578T613 331Q613 173 535 81T332 -12ZM332 61Q420 61 473 134T526 331Q526 453 473 524T332 595Q244 595 191 524T138
331Q138 208 191 135T332 61ZM407 709Q370 709 346 726T302 762T259 780Q217 780 211 714L155 718Q158 775 185 808T257 841Q294 841 318 824T362 788T405 770Q445 770 453 836L509 832Q506 774 479 742T407 709Z" />
<glyph unicode="&#xd6;" glyph-name="Odieresis" horiz-adv-x="664" d="M332 -12Q208 -12 130 80T52 331Q52 488 130 578T332 668Q456 668 534 578T613 331Q613 173 535 81T332 -12ZM332 61Q420 61 473 134T526 331Q526 453 473 524T332 595Q244 595 191 524T138
331Q138 208 191 135T332 61ZM435 715Q413 715 400 729T386 764Q386 813 435 813Q456 813 470 800T484 764Q484 743 470 729T435 715ZM229 715Q208 715 194 729T180 764Q180 786 194 799T229 813Q278 813 278 764Q278 743 265 729T229 715Z" />
<glyph unicode="&#xd7;" glyph-name="multiply" horiz-adv-x="497" d="M94 126L50 171L205 330L50 488L94 533L249 374L403 533L447 488L292 330L447 171L403 126L249 286L94 126Z" />
<glyph unicode="&#xd8;" glyph-name="Oslash" horiz-adv-x="664" d="M96 -30L50 6L573 686L619 651L96 -30ZM335 -12Q211 -12 133 80T55 331Q55 488 133 578T335 668Q459 668 537 578T616 331Q616 173 538 81T335 -12ZM335 61Q423 61 476 134T529 331Q529 453
476 524T335 595Q247 595 194 524T141 331Q141 208 194 135T335 61Z" />
<glyph unicode="&#xd9;" glyph-name="Ugrave" horiz-adv-x="645" d="M323 -12Q222 -12 155 50T87 271V656H170V269Q170 150 214 106T323 61Q388 61 433 105T478 269V656H558V271Q558 113 491 51T323 -12ZM340 697L188 812L235 867L377 739L340 697Z" />
<glyph unicode="&#xda;" glyph-name="Uacute" horiz-adv-x="645" d="M323 -12Q222 -12 155 50T87 271V656H170V269Q170 150 214 106T323 61Q388 61 433 105T478 269V656H558V271Q558 113 491 51T323 -12ZM306 697L269 739L411 867L458 812L306 697Z" />
<glyph unicode="&#xdb;" glyph-name="Ucircumflex" horiz-adv-x="645" d="M323 -12Q222 -12 155 50T87 271V656H170V269Q170 150 214 106T323 61Q388 61 433 105T478 269V656H558V271Q558 113 491 51T323 -12ZM175 725L280 838H366L471 725L435 699L325 792H321L211
699L175 725Z" />
<glyph unicode="&#xdc;" glyph-name="Udieresis" horiz-adv-x="645" d="M323 -12Q222 -12 155 50T87 271V656H170V269Q170 150 214 106T323 61Q388 61 433 105T478 269V656H558V271Q558 113 491 51T323 -12ZM426 715Q404 715 391 729T377 764Q377 813 426 813Q447
813 461 800T475 764Q475 743 461 729T426 715ZM220 715Q199 715 185 729T171 764Q171 786 185 799T220 813Q269 813 269 764Q269 743 256 729T220 715Z" />
<glyph unicode="&#xdd;" glyph-name="Yacute" horiz-adv-x="476" d="M196 0V254L-1 656H88L173 471Q189 435 204 400T236 328H240Q257 365 274 400T306 471L390 656H477L280 254V0H196ZM221 697L184 739L326 867L373 812L221 697Z" />
<glyph unicode="&#xde;" glyph-name="Thorn" horiz-adv-x="583" d="M90 0V656H173V546H291Q400 546 466 503T533 353Q533 249 466 200T291 150H173V0H90ZM173 218H281Q450 218 450 353Q450 424 408 451T281 478H173V218Z" />
<glyph unicode="&#xdf;" glyph-name="germandbls" horiz-adv-x="576" d="M387 -12Q346 -12 312 1T246 37L279 95Q331 52 385 52Q426 52 447 76T469 132Q469 176 439 198T371 239T302 284T272 364Q272 409 294 438T338 497T360 568Q360 606 339 630T277 655Q164
655 164 500V0H82V515Q82 609 133 665T278 722Q357 722 399 679T441 576Q441 526 419 494T373 435T350 374Q350 338 380 318T448 280T517 230T547 137Q547 74 504 31T387 -12Z" />
<glyph unicode="&#xe0;" glyph-name="agrave" horiz-adv-x="504" d="M218 54Q253 54 284 71T350 119V254Q228 239 180 209T132 132Q132 91 157 73T218 54ZM194 -12Q133 -12 93 24T52 126Q52 206 123 248T350 308Q350 354 330 392T250 430Q208 430 171 414T105
378L73 435Q107 457 156 477T264 498Q353 498 393 444T433 298V0H365L358 58H355Q320 30 280 9T194 -12ZM277 573L120 726L178 781L319 614L277 573Z" />
<glyph unicode="&#xe1;" glyph-name="aacute" horiz-adv-x="504" d="M218 54Q253 54 284 71T350 119V254Q228 239 180 209T132 132Q132 91 157 73T218 54ZM194 -12Q133 -12 93 24T52 126Q52 206 123 248T350 308Q350 354 330 392T250 430Q208 430 171 414T105
378L73 435Q107 457 156 477T264 498Q353 498 393 444T433 298V0H365L358 58H355Q320 30 280 9T194 -12ZM249 573L207 614L348 781L406 726L249 573Z" />
<glyph unicode="&#xe2;" glyph-name="acircumflex" horiz-adv-x="504" d="M218 54Q253 54 284 71T350 119V254Q228 239 180 209T132 132Q132 91 157 73T218 54ZM194 -12Q133 -12 93 24T52 126Q52 206 123 248T350 308Q350 354 330 392T250 430Q208 430 171 414T105
378L73 435Q107 457 156 477T264 498Q353 498 393 444T433 298V0H365L358 58H355Q320 30 280 9T194 -12ZM108 600L222 740H304L418 600L383 568L265 681H261L143 568L108 600Z" />
<glyph unicode="&#xe3;" glyph-name="atilde" horiz-adv-x="504" d="M218 54Q253 54 284 71T350 119V254Q228 239 180 209T132 132Q132 91 157 73T218 54ZM194 -12Q133 -12 93 24T52 126Q52 206 123 248T350 308Q350 354 330 392T250 430Q208 430 171 414T105
378L73 435Q107 457 156 477T264 498Q353 498 393 444T433 298V0H365L358 58H355Q320 30 280 9T194 -12ZM335 577Q299 577 276 598T234 640T192 661Q169 661 158 639T145 582L90 585Q92 644 115 682T191 721Q227 721 250 700T292 658T335 637Q357 637 368 659T381
716L436 712Q434 654 411 616T335 577Z" />
<glyph unicode="&#xe4;" glyph-name="adieresis" horiz-adv-x="504" d="M218 54Q253 54 284 71T350 119V254Q228 239 180 209T132 132Q132 91 157 73T218 54ZM194 -12Q133 -12 93 24T52 126Q52 206 123 248T350 308Q350 354 330 392T250 430Q208 430 171 414T105
378L73 435Q107 457 156 477T264 498Q353 498 393 444T433 298V0H365L358 58H355Q320 30 280 9T194 -12ZM359 587Q338 587 324 601T310 637Q310 658 324 672T359 687Q381 687 395 673T409 637Q409 616 395 602T359 587ZM167 587Q145 587 131 601T117 637Q117 658
131 672T167 687Q188 687 202 673T216 637Q216 616 202 602T167 587Z" />
<glyph unicode="&#xe5;" glyph-name="aring" horiz-adv-x="504" d="M218 54Q253 54 284 71T350 119V254Q228 239 180 209T132 132Q132 91 157 73T218 54ZM194 -12Q133 -12 93 24T52 126Q52 206 123 248T350 308Q350 354 330 392T250 430Q208 430 171 414T105 378L73
435Q107 457 156 477T264 498Q353 498 393 444T433 298V0H365L358 58H355Q320 30 280 9T194 -12ZM263 554Q213 554 183 582T153 653Q153 695 183 723T263 751Q313 751 343 723T373 653Q373 610 343 582T263 554ZM263 591Q287 591 303 607T320 653Q320 681 304 697T263
714Q239 714 223 698T206 653Q206 624 222 608T263 591Z" />
<glyph unicode="&#xe6;" glyph-name="ae" horiz-adv-x="785" d="M201 -12Q140 -12 99 24T58 126Q58 206 129 248T352 308Q352 354 333 392T253 430Q213 430 177 414T112 378L79 435Q113 457 161 477T263 498Q317 498 352 470T402 395Q430 442 471 470T562 498Q651
498 699 436T747 269Q747 241 744 223H429Q432 147 475 101T580 55Q615 55 643 66T698 95L728 38Q696 18 658 3T570 -12Q509 -12 468 15T399 79Q297 -12 201 -12ZM429 278H675Q675 433 560 433Q510 433 473 391T429 278ZM224 54Q258 54 298 73T371 129Q354 168
352 229V254Q236 239 188 209T139 132Q139 91 163 73T224 54Z" />
<glyph unicode="&#xe7;" glyph-name="ccedilla" horiz-adv-x="456" d="M274 -12Q177 -12 112 54T46 242Q46 364 116 431T280 498Q328 498 362 481T422 441L380 387Q359 406 336 418T283 430Q217 430 174 378T131 242Q131 159 172 108T281 56Q315 56 343 70T395
105L431 50Q361 -12 274 -12ZM185 -226L177 -186Q240 -182 263 -170T286 -136Q286 -116 269 -105T209 -88L253 3H306L277 -64Q312 -72 331 -88T350 -135Q350 -218 185 -226Z" />
<glyph unicode="&#xe8;" glyph-name="egrave" horiz-adv-x="496" d="M279 -12Q182 -12 114 55T46 242Q46 322 77 379T158 467T264 498Q357 498 407 436T458 270Q458 241 455 223H127Q132 146 175 100T289 54Q324 54 353 64T410 92L439 38Q408 18 368 3T279 -12ZM126
282H386Q386 433 266 433Q215 433 175 394T126 282ZM278 573L121 726L179 781L320 614L278 573Z" />
<glyph unicode="&#xe9;" glyph-name="eacute" horiz-adv-x="496" d="M279 -12Q182 -12 114 55T46 242Q46 322 77 379T158 467T264 498Q357 498 407 436T458 270Q458 241 455 223H127Q132 146 175 100T289 54Q324 54 353 64T410 92L439 38Q408 18 368 3T279 -12ZM126
282H386Q386 433 266 433Q215 433 175 394T126 282ZM250 573L208 614L349 781L407 726L250 573Z" />
<glyph unicode="&#xea;" glyph-name="ecircumflex" horiz-adv-x="496" d="M279 -12Q182 -12 114 55T46 242Q46 322 77 379T158 467T264 498Q357 498 407 436T458 270Q458 241 455 223H127Q132 146 175 100T289 54Q324 54 353 64T410 92L439 38Q408 18 368 3T279
-12ZM126 282H386Q386 433 266 433Q215 433 175 394T126 282ZM109 600L223 740H305L419 600L384 568L266 681H262L144 568L109 600Z" />
<glyph unicode="&#xeb;" glyph-name="edieresis" horiz-adv-x="496" d="M279 -12Q182 -12 114 55T46 242Q46 322 77 379T158 467T264 498Q357 498 407 436T458 270Q458 241 455 223H127Q132 146 175 100T289 54Q324 54 353 64T410 92L439 38Q408 18 368 3T279
-12ZM126 282H386Q386 433 266 433Q215 433 175 394T126 282ZM360 587Q339 587 325 601T311 637Q311 658 325 672T360 687Q382 687 396 673T410 637Q410 616 396 602T360 587ZM168 587Q146 587 132 601T118 637Q118 658 132 672T168 687Q189 687 203 673T217 637Q217
616 203 602T168 587Z" />
<glyph unicode="&#xec;" glyph-name="igrave" horiz-adv-x="246" d="M82 0V486H164V0H82ZM137 573L-20 726L38 781L179 614L137 573Z" />
<glyph unicode="&#xed;" glyph-name="iacute" horiz-adv-x="246" d="M82 0V486H164V0H82ZM109 573L67 614L208 781L266 726L109 573Z" />
<glyph unicode="&#xee;" glyph-name="icircumflex" horiz-adv-x="246" d="M82 0V486H164V0H82ZM-32 600L82 740H164L278 600L243 568L125 681H121L3 568L-32 600Z" />
<glyph unicode="&#xef;" glyph-name="idieresis" horiz-adv-x="246" d="M82 0V486H164V0H82ZM219 587Q198 587 184 601T170 637Q170 658 184 672T219 687Q241 687 255 673T269 637Q269 616 255 602T219 587ZM27 587Q5 587 -9 601T-23 637Q-23 658 -9 672T27 687Q48
687 62 673T76 637Q76 616 62 602T27 587Z" />
<glyph unicode="&#xf0;" glyph-name="eth" horiz-adv-x="545" d="M269 -12Q184 -12 119 50T53 222Q53 324 112 385T259 447Q297 447 332 431T393 381Q379 442 352 488T286 573L145 500L121 541L248 606Q223 626 195 643T136 678L174 730Q210 711 245 689T312 639L454
712L478 671L349 605Q409 544 447 460T485 257Q485 137 426 63T269 -12ZM271 56Q338 56 372 111T406 254Q406 283 404 309Q371 353 338 368T271 383Q204 383 168 337T131 222Q131 147 172 102T271 56Z" />
<glyph unicode="&#xf1;" glyph-name="ntilde" horiz-adv-x="547" d="M82 0V486H150L157 416H160Q194 450 233 474T323 498Q471 498 471 308V0H389V297Q389 365 367 396T297 427Q260 427 231 408T164 352V0H82ZM364 577Q328 577 305 598T263 640T221 661Q198 661
187 639T174 582L119 585Q121 644 144 682T220 721Q256 721 279 700T321 658T364 637Q386 637 397 659T410 716L465 712Q463 654 440 616T364 577Z" />
<glyph unicode="&#xf2;" glyph-name="ograve" horiz-adv-x="542" d="M271 -12Q182 -12 114 54T46 242Q46 364 114 431T271 498Q360 498 428 431T496 242Q496 121 428 55T271 -12ZM271 56Q334 56 372 107T411 242Q411 326 373 378T271 430Q209 430 170 378T131
242Q131 159 170 108T271 56ZM285 573L128 726L186 781L327 614L285 573Z" />
<glyph unicode="&#xf3;" glyph-name="oacute" horiz-adv-x="542" d="M271 -12Q182 -12 114 54T46 242Q46 364 114 431T271 498Q360 498 428 431T496 242Q496 121 428 55T271 -12ZM271 56Q334 56 372 107T411 242Q411 326 373 378T271 430Q209 430 170 378T131
242Q131 159 170 108T271 56ZM257 573L215 614L356 781L414 726L257 573Z" />
<glyph unicode="&#xf4;" glyph-name="ocircumflex" horiz-adv-x="542" d="M271 -12Q182 -12 114 54T46 242Q46 364 114 431T271 498Q360 498 428 431T496 242Q496 121 428 55T271 -12ZM271 56Q334 56 372 107T411 242Q411 326 373 378T271 430Q209 430 170 378T131
242Q131 159 170 108T271 56ZM116 600L230 740H312L426 600L391 568L273 681H269L151 568L116 600Z" />
<glyph unicode="&#xf5;" glyph-name="otilde" horiz-adv-x="542" d="M271 -12Q182 -12 114 54T46 242Q46 364 114 431T271 498Q360 498 428 431T496 242Q496 121 428 55T271 -12ZM271 56Q334 56 372 107T411 242Q411 326 373 378T271 430Q209 430 170 378T131
242Q131 159 170 108T271 56ZM343 577Q307 577 284 598T242 640T200 661Q177 661 166 639T153 582L98 585Q100 644 123 682T199 721Q235 721 258 700T300 658T343 637Q365 637 376 659T389 716L444 712Q442 654 419 616T343 577Z" />
<glyph unicode="&#xf6;" glyph-name="odieresis" horiz-adv-x="542" d="M271 -12Q182 -12 114 54T46 242Q46 364 114 431T271 498Q360 498 428 431T496 242Q496 121 428 55T271 -12ZM271 56Q334 56 372 107T411 242Q411 326 373 378T271 430Q209 430 170 378T131
242Q131 159 170 108T271 56ZM367 587Q346 587 332 601T318 637Q318 658 332 672T367 687Q389 687 403 673T417 637Q417 616 403 602T367 587ZM175 587Q153 587 139 601T125 637Q125 658 139 672T175 687Q196 687 210 673T224 637Q224 616 210 602T175 587Z" />
<glyph unicode="&#xf7;" glyph-name="divide" horiz-adv-x="497" d="M249 456Q226 456 210 471T194 510Q194 533 210 548T249 563Q272 563 287 548T303 510Q303 486 288 471T249 456ZM34 299V361H463V299H34ZM249 96Q226 96 210 111T194 150Q194 173 210 188T249
203Q272 203 287 188T303 150Q303 126 288 111T249 96Z" />
<glyph unicode="&#xf8;" glyph-name="oslash" horiz-adv-x="542" d="M127 246Q127 180 150 133L364 392Q326 432 271 432Q209 432 168 380T127 246ZM271 54Q334 54 374 105T415 239Q415 305 391 353L178 93Q216 54 271 54ZM271 -12Q192 -12 132 37L83 -23L46 6L100
71Q75 103 61 146T46 242Q46 364 114 431T271 498Q350 498 410 448L460 509L496 480L442 415Q467 383 481 340T496 242Q496 121 428 55T271 -12Z" />
<glyph unicode="&#xf9;" glyph-name="ugrave" horiz-adv-x="544" d="M224 -12Q75 -12 75 178V486H158V189Q158 121 179 90T249 59Q286 59 316 78T380 141V486H462V0H394L387 76H384Q350 36 312 12T224 -12ZM286 573L129 726L187 781L328 614L286 573Z" />
<glyph unicode="&#xfa;" glyph-name="uacute" horiz-adv-x="544" d="M224 -12Q75 -12 75 178V486H158V189Q158 121 179 90T249 59Q286 59 316 78T380 141V486H462V0H394L387 76H384Q350 36 312 12T224 -12ZM258 573L216 614L357 781L415 726L258 573Z" />
<glyph unicode="&#xfb;" glyph-name="ucircumflex" horiz-adv-x="544" d="M224 -12Q75 -12 75 178V486H158V189Q158 121 179 90T249 59Q286 59 316 78T380 141V486H462V0H394L387 76H384Q350 36 312 12T224 -12ZM117 600L231 740H313L427 600L392 568L274 681H270L152
568L117 600Z" />
<glyph unicode="&#xfc;" glyph-name="udieresis" horiz-adv-x="544" d="M224 -12Q75 -12 75 178V486H158V189Q158 121 179 90T249 59Q286 59 316 78T380 141V486H462V0H394L387 76H384Q350 36 312 12T224 -12ZM368 587Q347 587 333 601T319 637Q319 658 333 672T368
687Q390 687 404 673T418 637Q418 616 404 602T368 587ZM176 587Q154 587 140 601T126 637Q126 658 140 672T176 687Q197 687 211 673T225 637Q225 616 211 602T176 587Z" />
<glyph unicode="&#xfd;" glyph-name="yacute" horiz-adv-x="467" d="M90 -209Q60 -209 33 -199L49 -134Q56 -136 66 -138T86 -141Q127 -141 154 -112T196 -37L207 -1L12 486H97L196 217Q207 186 219 150T243 80H247Q258 113 268 149T288 217L375 486H455L272 -40Q246
-112 205 -160T90 -209ZM229 573L187 614L328 781L386 726L229 573Z" />
<glyph unicode="&#xfe;" glyph-name="thorn" horiz-adv-x="555" d="M283 57Q343 57 382 108T422 250Q422 330 393 379T294 429Q238 429 164 363V108Q197 80 228 69T283 57ZM82 -205V712H164V518L163 435Q195 460 233 479T311 498Q407 498 457 431T507 250Q507
126 444 57T297 -12Q262 -12 229 2T163 42L164 -41V-205H82Z" />
<glyph unicode="&#xff;" glyph-name="ydieresis" horiz-adv-x="467" d="M90 -209Q60 -209 33 -199L49 -134Q56 -136 66 -138T86 -141Q127 -141 154 -112T196 -37L207 -1L12 486H97L196 217Q207 186 219 150T243 80H247Q258 113 268 149T288 217L375 486H455L272
-40Q246 -112 205 -160T90 -209ZM339 587Q318 587 304 601T290 637Q290 658 304 672T339 687Q361 687 375 673T389 637Q389 616 375 602T339 587ZM147 587Q125 587 111 601T97 637Q97 658 111 672T147 687Q168 687 182 673T196 637Q196 616 182 602T147 587Z" />
<glyph unicode="&#x2013;" glyph-name="endash" horiz-adv-x="480" d="M41 223V280H439V223H41Z" />
<glyph unicode="&#x2014;" glyph-name="emdash" horiz-adv-x="800" d="M41 223V280H759V223H41Z" />
<glyph unicode="&#x2018;" glyph-name="quoteleft" horiz-adv-x="249" d="M120 428Q57 428 57 518Q57 635 163 696L187 657Q149 632 130 604T111 533Q115 534 120 534Q140 534 156 521T173 483Q173 458 158 443T120 428Z" />
<glyph unicode="&#x2019;" glyph-name="quoteright" horiz-adv-x="249" d="M86 431L63 469Q100 494 119 522T138 594Q134 593 130 593Q109 593 93 606T77 643Q77 669 92 684T130 699Q193 699 193 608Q193 493 86 431Z" />
<glyph unicode="&#x201a;" glyph-name="quotesinglbase" horiz-adv-x="249" d="M86 -145L63 -107Q100 -82 119 -54T138 18Q134 17 130 17Q109 17 93 30T77 67Q77 93 92 108T130 123Q193 123 193 32Q193 -83 86 -145Z" />
<glyph unicode="&#x201c;" glyph-name="quotedblleft" horiz-adv-x="426" d="M120 428Q57 428 57 518Q57 635 163 696L187 657Q149 632 130 604T111 533Q115 534 120 534Q140 534 156 521T173 483Q173 458 158 443T120 428ZM297 428Q234 428 234 518Q234 635 340
696L364 657Q326 632 307 604T288 533Q292 534 297 534Q317 534 333 521T350 483Q350 458 335 443T297 428Z" />
<glyph unicode="&#x201d;" glyph-name="quotedblright" horiz-adv-x="426" d="M86 431L63 469Q100 494 119 522T138 594Q134 593 130 593Q109 593 93 606T77 643Q77 669 92 684T130 699Q193 699 193 608Q193 493 86 431ZM263 431L240 469Q277 494 296 522T315
594Q311 593 307 593Q286 593 270 606T254 643Q254 669 269 684T307 699Q370 699 370 608Q370 493 263 431Z" />
<glyph unicode="&#x201e;" glyph-name="quotedblbase" horiz-adv-x="426" d="M86 -145L63 -107Q100 -82 119 -54T138 18Q134 17 130 17Q109 17 93 30T77 67Q77 93 92 108T130 123Q193 123 193 32Q193 -83 86 -145ZM263 -145L240 -107Q277 -82 296 -54T315 18Q311
17 307 17Q286 17 270 30T254 67Q254 93 269 108T307 123Q370 123 370 32Q370 -83 263 -145Z" />
<glyph unicode="&#x2022;" glyph-name="bullet" horiz-adv-x="304" d="M152 143Q107 143 74 176T40 263Q40 317 73 350T152 384Q197 384 230 351T264 263Q264 209 231 176T152 143Z" />
<glyph unicode="&#x2039;" glyph-name="guilsinglleft" horiz-adv-x="271" d="M181 66L45 221V283L181 438L217 408L99 252L217 94L181 66Z" />
<glyph unicode="&#x203a;" glyph-name="guilsinglright" horiz-adv-x="271" d="M89 66L54 94L172 252L54 408L89 438L226 283V221L89 66Z" />
</font>
</defs>
</svg>
