<?xml version="1.0" standalone="no"?>
<!DOCTYPE svg PUBLIC "-//W3C//DTD SVG 1.1//EN" "http://www.w3.org/Graphics/SVG/1.1/DTD/svg11.dtd">
<svg xmlns="http://www.w3.org/2000/svg">
<defs >
<font id="ChelaOne" horiz-adv-x="463" ><font-face
    font-family="Chela One"
    units-per-em="1000"
    panose-1="2 0 0 0 0 0 0 0 0 0"
    ascent="942"
    descent="-235"
    alphabetic="0" />
<glyph unicode=" " glyph-name="space" horiz-adv-x="224" />
<glyph unicode="!" glyph-name="exclam" horiz-adv-x="237" d="M123 662Q202 662 202 583Q202 535 174 296L164 217Q143 209 127 209Q96 209 86 234T70 328L35 619Q44 635 70 648T123 662ZM183 124T190 108T198 73T184 36T156 8L141 0Q78 16 51 54Q40 69 40 86Q40
147 129 166Q136 164 150 154T174 134Z" />
<glyph unicode="&quot;" glyph-name="quotedbl" horiz-adv-x="333" d="M17 636Q46 662 82 662T133 647T148 600Q148 538 132 438L127 402Q108 395 93 395Q58 395 41 433Q17 487 17 636ZM184 636Q213 662 249 662T300 647T316 600Q316 538 300 438L295 402Q277
395 262 395Q226 395 208 434Q184 488 184 636Z" />
<glyph unicode="#" glyph-name="numbersign" horiz-adv-x="505" d="M99 297Q44 297 44 362Q44 377 48 393L58 425Q85 426 125 428L128 455Q131 500 145 516T186 533Q225 533 247 520Q243 484 236 432L310 435L311 455Q315 500 329 516T368 533Q407 533 429 520Q425
487 419 437Q449 437 465 422T481 386Q481 344 467 312L461 297H404L393 205H394Q425 205 441 196T458 172Q460 144 446 122L440 112H382L379 89Q374 31 359 12T319 -8Q277 -8 263 4Q268 51 275 113H201L199 90Q194 30 179 8T131 -14Q96 -14 86 -4L83 -1Q88 48
94 113H78Q53 113 40 121T25 138T23 153Q23 171 34 193Q64 194 104 195L113 297H99ZM223 297L212 199L287 201L297 297H223Z" />
<glyph unicode="$" glyph-name="dollar" horiz-adv-x="376" d="M223 5Q227 -25 227 -55Q227 -122 169 -122Q145 -122 125 -102Q130 -59 132 3Q71 13 40 44T8 104T20 153T46 181L58 188Q64 179 75 166T121 130T179 108T213 115T223 132Q223 149 192 168T123 203T55
252T23 325T47 403T105 455Q108 480 134 501Q125 539 125 580T138 639T183 658Q207 658 227 638Q222 596 218 534Q225 535 236 535Q289 535 322 510T355 443T343 382T305 352Q261 401 156 411V402Q156 362 228 330Q257 316 286 300T337 252T358 175Q358 109 320
64T223 5Z" />
<glyph unicode="%" glyph-name="percent" horiz-adv-x="749" d="M251 -16Q204 -16 204 21Q204 48 229 98L464 536Q469 538 477 538T497 538T519 533T539 517T548 489T547 466T543 448T531 423T511 388T477 331T428 252T359 138T269 -13Q265 -16 251 -16ZM322 290T280
246T170 202T63 243T23 360T61 482T182 530Q322 530 322 370Q322 290 280 246ZM172 268Q193 268 201 287T210 352T201 415T172 431T144 415T135 352Q135 268 172 268ZM726 77T683 33T573 -11T467 30T427 147T465 269T586 317Q726 317 726 157Q726 77 683 33ZM576
55Q597 55 605 74T614 139T605 202T576 218T547 202T538 139Q538 55 576 55Z" />
<glyph unicode="&amp;" glyph-name="ampersand" horiz-adv-x="636" d="M408 253Q418 296 492 296T588 307Q600 301 610 283T620 243Q620 167 499 167Q496 167 493 167Q548 117 612 71L630 58Q629 56 628 52T620 38T604 20Q579 0 541 0Q480 0 405 68Q357 0 249
0T87 54T32 187T67 310T153 370Q110 453 110 532T158 666T307 721Q505 721 505 530Q505 421 453 370Q411 328 369 328Q358 328 347 331Q371 295 408 253ZM288 490Q288 429 330 358Q370 400 370 491Q370 531 359 551T329 571Q288 571 288 490ZM205 217Q205 118 308
118Q330 118 350 121L307 166Q251 223 210 280Q205 259 205 217Z" />
<glyph unicode="&apos;" glyph-name="quotesingle" horiz-adv-x="165" d="M17 636Q46 662 82 662T133 647T148 600Q148 538 132 438L127 402Q108 395 93 395Q58 395 41 433Q17 487 17 636Z" />
<glyph unicode="(" glyph-name="parenleft" horiz-adv-x="343" d="M23 342Q23 444 41 520T89 639Q148 721 225 721Q257 721 274 708T294 681L296 668Q245 600 226 474Q217 419 217 337T235 171T272 54L290 21Q290 16 283 5T267 -13Q246 -31 209 -31Q125 -31 74
67T23 342Z" />
<glyph unicode=")" glyph-name="parenright" horiz-adv-x="343" d="M320 342Q320 165 270 67T135 -31Q104 -31 84 -18T58 8L53 21Q63 34 77 69T100 140Q126 235 126 358Q126 481 98 562Q74 633 56 658L48 668Q48 702 84 716Q99 721 127 721T190 701T254 639T302
521T320 342Z" />
<glyph unicode="*" glyph-name="asterisk" horiz-adv-x="351" d="M330 583Q330 526 246 526L291 466Q291 454 280 441Q261 418 232 418Q184 418 160 480L116 422Q92 422 73 437T53 483T93 545L26 560Q21 572 21 593T35 628T77 642T130 628L135 713Q151 724 176
724Q236 724 236 661Q236 648 231 621L299 637Q310 633 320 617T330 583Z" />
<glyph unicode="+" glyph-name="plus" horiz-adv-x="423" d="M78 204Q52 204 38 221T23 271T43 332H147V395Q147 456 214 456Q248 456 276 436V332H344Q400 332 400 266Q400 233 387 220Q336 216 276 212V135Q276 79 210 79Q189 79 174 85T152 99L147 106V205Q122
204 102 204T78 204Z" />
<glyph unicode="," glyph-name="comma" horiz-adv-x="238" d="M215 41Q215 -20 185 -60T107 -100Q88 -100 75 -94T58 -82L54 -75Q69 -48 69 -18T58 35T34 66L23 75Q23 112 48 133T119 154Q215 154 215 41Z" />
<glyph unicode="-" glyph-name="hyphen" horiz-adv-x="423" d="M78 204Q52 204 38 221T23 271T43 332H344Q400 332 400 266Q400 233 387 220Q159 204 120 204T78 204Z" />
<glyph unicode="." glyph-name="period" horiz-adv-x="238" d="M215 77Q215 0 119 0T23 77Q23 156 119 156T215 77Z" />
<glyph unicode="/" glyph-name="slash" horiz-adv-x="360" d="M155 34T133 7T77 -21T25 -12T0 8L-5 17Q142 491 169 575T218 684T279 710T338 692T362 656L366 638L176 95Q155 34 133 7Z" />
<glyph unicode="0" glyph-name="zero" horiz-adv-x="410" d="M118 0T66 62T13 223T44 376T120 445Q136 530 222 530Q296 530 346 475T396 282T343 72T204 0ZM271 248Q271 326 246 347T175 369Q168 369 162 369Q143 306 143 236T161 135T215 104Q271 104 271 248Z" />
<glyph unicode="1" glyph-name="one" horiz-adv-x="265" d="M22 376Q12 386 12 406T18 446T37 486T74 520T132 534T186 510T205 445V130H250Q257 79 257 60T240 20T183 0H31Q13 34 13 65T27 112T71 135V331Q71 354 57 365T22 376Z" />
<glyph unicode="2" glyph-name="two" horiz-adv-x="366" d="M30 0Q11 38 11 61Q11 106 50 119Q75 139 99 161T150 224T176 296T159 346T119 365Q86 365 38 355L23 352Q18 387 18 411Q18 459 60 494T177 530Q352 530 352 358Q352 297 309 233T207 128Q301 130 349
130Q355 84 355 62T338 20T282 0H30Z" />
<glyph unicode="3" glyph-name="three" horiz-adv-x="358" d="M339 36T296 -11T167 -58T45 -26T8 39Q8 45 9 50Q16 89 47 103Q50 99 55 94T80 79T125 70Q178 70 178 131Q178 168 148 188Q138 187 121 187T95 190T84 196T80 204T79 211T79 214L88 219Q142 247 164
285Q174 302 174 322T161 356T128 369Q100 369 43 359L26 356Q21 387 21 411Q21 459 61 494T178 530T295 493T337 384Q337 290 278 237Q306 219 322 184T339 110Q339 36 296 -11Z" />
<glyph unicode="4" glyph-name="four" horiz-adv-x="396" d="M213 53L64 55Q26 55 12 88Q6 102 6 117T19 146Q74 321 154 506Q186 522 203 520T226 511Q264 525 278 525Q315 525 333 508T351 442L337 157L384 158Q394 122 394 99Q394 53 357 53H333L329 -46Q289
-58 264 -58Q213 -58 213 53ZM213 156V365Q203 338 125 156H213Z" />
<glyph unicode="5" glyph-name="five" horiz-adv-x="367" d="M342 516Q350 493 350 446T332 376T272 353Q208 353 164 358Q162 311 151 256Q167 258 182 258Q350 258 350 107Q350 34 302 -13T170 -60Q48 -60 17 4Q9 21 9 40T20 75T45 97Q78 64 129 64Q189 64 189
124Q189 148 175 162T147 180L133 182Q108 174 93 174T61 181T36 201T27 233T50 372L37 376Q28 399 28 439T49 501T109 523Q114 523 125 523T203 520T342 516Z" />
<glyph unicode="6" glyph-name="six" horiz-adv-x="391" d="M349 599Q358 568 358 534T353 481T341 454T320 441T298 436T271 436T245 437Q206 437 183 415T153 322Q180 344 225 344Q294 344 335 307T377 190T333 56T213 0Q115 0 65 73T15 277Q15 461 84 528Q108
552 133 565T196 586Q258 599 349 599ZM210 107Q259 107 259 183T201 260Q179 260 149 249Q149 107 210 107Z" />
<glyph unicode="7" glyph-name="seven" horiz-adv-x="347" d="M331 470Q331 425 294 303Q284 272 264 204T223 70T183 -23T112 -49Q89 -49 73 -40T51 -22L46 -13L195 356H75Q13 356 13 436Q13 478 28 517L34 531H268Q331 531 331 470Z" />
<glyph unicode="8" glyph-name="eight" horiz-adv-x="390" d="M372 430Q372 383 354 340T307 277Q371 231 371 146Q371 82 327 41T195 0T66 41T24 143Q24 229 95 278Q18 335 18 427Q18 505 63 550T194 596T326 549T372 430ZM231 154Q231 178 217 196T172 238Q146
196 146 157Q146 100 190 100Q231 100 231 154ZM194 446Q158 446 158 391T216 288Q233 334 233 390T194 446Z" />
<glyph unicode="9" glyph-name="nine" horiz-adv-x="391" d="M43 -38Q34 -24 34 15T55 66T128 79T197 89Q228 108 237 170Q213 151 167 151Q101 151 58 199T15 330T60 472T193 530Q377 530 377 275Q377 57 294 -16Q246 -60 168 -60Q113 -60 43 -38ZM134 266T144
246T169 224T198 221T243 233V243Q243 388 182 388Q134 388 134 301Q134 266 144 246Z" />
<glyph unicode=":" glyph-name="colon" horiz-adv-x="238" d="M215 77Q215 0 119 0T23 77Q23 156 119 156T215 77ZM215 530T215 452T119 374T23 452T119 530Z" />
<glyph unicode=";" glyph-name="semicolon" horiz-adv-x="238" d="M215 19Q215 -43 185 -82T107 -122Q88 -122 75 -116T58 -104L54 -98Q69 -70 69 -40T58 12T34 44L23 53Q23 90 48 110T119 131Q215 131 215 19ZM215 530T215 452T119 374T23 452T119 530Z" />
<glyph unicode="&lt;" glyph-name="less" horiz-adv-x="409" d="M385 142Q385 136 381 120T370 91T347 68T307 57Q257 57 189 93T72 175T23 248T80 324Q177 403 300 466Q325 458 344 442Q381 412 381 381T329 316T224 267L171 251L385 153V142Z" />
<glyph unicode="=" glyph-name="equal" horiz-adv-x="449" d="M198 267Q97 267 61 286T25 349Q25 373 32 392T48 420L56 427Q156 409 344 409Q386 409 403 391T421 336Q421 308 412 277Q363 267 198 267ZM128 100Q69 100 46 114T23 171Q23 206 43 234Q95 220 284
220Q398 220 418 190Q426 177 426 160Q426 135 420 121Q342 100 128 100Z" />
<glyph unicode="&gt;" glyph-name="greater" horiz-adv-x="409" d="M24 382Q24 388 28 404T39 432T62 455T102 466Q152 466 220 430T337 348T386 275T328 200Q232 120 109 57Q79 67 54 92T29 141Q29 175 81 207T186 256L238 272L24 371V382Z" />
<glyph unicode="?" glyph-name="question" horiz-adv-x="316" d="M26 490Q9 507 9 529T14 570T35 611T84 647T162 662Q306 662 306 522Q306 479 287 437T244 366T202 298T182 219Q173 218 157 218T122 227T101 251T97 277T98 307T108 350Q128 418 128 453Q128
505 85 505Q62 505 26 490ZM217 124T224 108T232 73T218 36T190 8L175 0Q112 16 85 54Q74 69 74 86Q74 147 163 166Q170 164 184 154T208 134Z" />
<glyph unicode="@" glyph-name="at" horiz-adv-x="634" d="M445 41Q418 41 398 50Q370 64 367 81Q363 74 356 66T324 45T269 32Q216 32 187 66T157 169Q157 269 211 336T357 404Q469 404 469 291Q469 266 461 229T450 174T452 145T468 134T493 148T516 199T526
288Q526 452 355 452Q248 452 179 375T109 158Q109 61 157 18T266 -25Q299 -25 323 -15T354 5L362 15Q390 3 390 -35T361 -100T260 -127Q146 -127 82 -49T18 162Q18 331 102 444Q143 500 212 532T371 564Q499 564 558 495T618 305T574 112T445 41ZM356 274Q356
291 334 291T296 258T279 172T310 119Q318 119 336 124Q335 128 335 147T339 193T348 237Q356 262 356 274Z" />
<glyph unicode="A" glyph-name="A" horiz-adv-x="568" d="M540 25T514 13T449 0Q366 0 344 124Q309 120 261 120T199 123Q186 56 163 28T92 0Q69 0 48 8T18 24L8 32Q47 502 118 600Q144 634 166 642T207 651T231 651T238 650L234 670Q237 674 242 680T272 698T328
709Q394 709 432 660T501 468T559 45Q555 40 548 33ZM216 238Q248 242 283 242T323 241Q287 423 260 549Q235 411 216 238Z" />
<glyph unicode="B" glyph-name="B" horiz-adv-x="571" d="M124 709Q158 709 183 694T226 634Q271 715 352 715Q554 715 554 502Q554 432 528 381T460 303Q555 272 555 188Q555 94 495 47T354 0T213 47Q187 0 134 0Q108 0 82 10T43 32L30 42Q40 86 40 246Q40 487
32 633L29 676Q59 709 124 709ZM250 506Q254 446 254 406T252 301Q280 316 334 317Q364 356 364 401Q364 506 251 506H250ZM292 234L250 233Q248 195 242 145Q274 118 303 118T344 131T356 175T336 220T292 234Z" />
<glyph unicode="C" glyph-name="C" horiz-adv-x="496" d="M472 654Q477 607 477 591T477 558T469 524T450 490Q427 459 367 459Q326 459 301 478T252 535Q231 462 231 364Q231 244 290 188Q320 159 367 159T474 183Q481 154 475 124T456 72T423 36Q375 0 284 0Q144
0 76 94Q51 129 35 186T19 318Q19 447 69 529T193 647Q203 669 226 689T290 709T383 682T472 654Z" />
<glyph unicode="D" glyph-name="D" horiz-adv-x="600" d="M29 676Q59 709 125 709T220 646Q276 715 348 715Q459 715 522 631T585 377T508 106T318 5Q256 5 210 41Q183 0 134 0Q108 0 82 10T43 32L30 42Q40 86 40 246Q40 487 32 633L29 676ZM296 117Q337 117 365
167T394 313Q394 481 250 509Q254 469 254 349T241 141Q270 117 296 117Z" />
<glyph unicode="E" glyph-name="E" horiz-adv-x="462" d="M379 469L238 472Q231 429 231 364V357Q411 360 429 360Q434 335 434 316Q434 251 374 251H235Q243 178 282 166Q290 163 302 163Q344 163 424 195Q451 182 451 135T406 44T255 0Q155 0 91 55Q19 116 19
264Q19 378 63 471L38 469Q12 493 12 566Q12 714 114 714Q119 714 146 714T259 705T440 695Q452 665 452 600T435 502T379 469Z" />
<glyph unicode="F" glyph-name="F" horiz-adv-x="481" d="M440 329Q446 276 446 256T432 212T385 188H265Q268 101 276 56Q258 21 196 6Q171 0 137 0T75 24T49 78Q49 236 63 483Q41 487 38 489Q25 522 25 577T55 669T139 705Q145 705 160 705T265 700T454 695Q465
665 465 599T440 496T358 459T261 461V326Q353 329 440 329Z" />
<glyph unicode="G" glyph-name="G" horiz-adv-x="504" d="M472 654Q477 607 477 591T477 558T469 524T450 490Q427 459 367 459Q326 459 301 478T252 535Q231 462 231 389T238 280Q257 174 331 174Q348 174 367 179L348 294Q350 299 354 305T381 323T434 335Q492
335 492 282L481 100Q477 26 455 8Q430 -14 397 1L389 50Q339 0 251 0Q166 0 98 62Q62 95 41 161T19 318Q19 447 69 529T193 647Q203 669 226 689T290 709T383 682T472 654Z" />
<glyph unicode="H" glyph-name="H" horiz-adv-x="613" d="M380 689Q432 717 486 717T562 690T584 581Q584 543 568 309T551 32Q508 1 445 1T381 53Q383 112 385 192H242Q241 141 241 24Q207 1 137 1Q106 1 87 17T66 61L34 665Q107 709 159 709T232 680T253 569Q253
548 249 444T244 301Q270 311 290 312T387 315Q387 556 382 651L380 689Z" />
<glyph unicode="I" glyph-name="I" horiz-adv-x="330" d="M74 465Q15 465 15 577Q15 608 22 639L33 697Q150 717 230 717Q266 717 286 692T310 638T313 591Q313 539 305 500L300 475Q276 475 265 474L246 152Q273 151 285 136T298 102Q298 58 282 20L275 5Q194
0 103 0Q76 0 60 14T40 47T36 76Q36 106 40 122L44 136L84 141L74 465Z" />
<glyph unicode="J" glyph-name="J" horiz-adv-x="319" d="M106 -110Q27 -110 27 -32Q27 -15 32 5L76 21L61 465Q34 465 20 489Q5 514 5 550Q5 625 16 673L22 697Q139 717 219 717Q255 717 275 692T299 638T302 591Q302 539 294 500L289 475Q266 475 255 474L232
41Q228 -42 201 -76T106 -110Z" />
<glyph unicode="K" glyph-name="K" horiz-adv-x="570" d="M129 709Q157 709 173 705T207 684T234 636Q254 566 254 416Q254 365 253 346Q267 351 296 351Q317 411 333 508T350 689Q376 709 435 709T522 683T550 613Q550 532 517 440T430 291L553 75Q551 68 538
52T512 26Q476 0 424 0Q348 0 322 62L248 241Q246 116 222 54Q213 30 194 18T160 3T118 0T69 6T38 20L30 26Q40 136 40 271Q40 514 28 632L23 675Q64 709 129 709Z" />
<glyph unicode="L" glyph-name="L" horiz-adv-x="397" d="M346 212Q385 197 385 133Q385 88 359 44T289 0L120 8Q81 8 51 0Q15 50 15 103T59 163L30 676Q103 721 157 721T240 691T270 581Q270 396 255 189L346 212Z" />
<glyph unicode="M" glyph-name="M" horiz-adv-x="741" d="M77 699T100 704T152 709T194 697Q210 703 237 703Q294 703 312 648Q332 584 379 257Q433 568 451 629T499 702Q519 708 548 703Q574 709 603 709Q677 709 698 684T720 598Q720 596 707 360T694 19Q656
0 595 0T532 61L524 430Q451 41 382 41H368Q339 41 318 70Q271 132 215 437Q200 184 200 19Q164 1 122 1Q52 1 49 61L24 665Q27 671 39 679T64 693Z" />
<glyph unicode="N" glyph-name="N" horiz-adv-x="665" d="M416 687Q445 717 509 717T601 689T628 588T612 316T595 32Q555 1 482 1Q448 1 436 14Q345 32 238 403Q231 195 231 24Q212 1 141 1T66 61L34 665Q107 709 165 709Q194 709 211 699Q225 703 237 703Q280
703 300 661T347 514T381 383T402 306T428 211Q430 298 430 363Q430 544 421 634L416 687Z" />
<glyph unicode="O" glyph-name="O" horiz-adv-x="603" d="M19 308Q19 392 39 458T92 564Q155 640 226 657Q267 709 348 709Q459 709 522 624T585 370T500 100T288 -1T90 77T19 308ZM351 116T372 167T394 314T353 467T254 551Q229 455 229 344Q229 116 313 116Q351
116 372 167Z" />
<glyph unicode="P" glyph-name="P" horiz-adv-x="571" d="M124 709Q158 709 183 694T226 634Q271 715 352 715Q456 715 505 655T554 462T487 238T306 146Q264 146 243 154Q231 69 206 35T134 0Q108 0 82 10T43 32L30 42Q40 86 40 246Q40 487 32 633L29 676Q59
709 124 709ZM250 506Q254 446 254 371T250 231Q302 244 331 285T360 390T328 479T251 506H250Z" />
<glyph unicode="Q" glyph-name="Q" horiz-adv-x="603" d="M284 -1Q160 -1 90 77T19 308Q19 392 39 458T92 564Q155 640 226 657Q267 709 348 709Q459 709 522 624T585 366Q585 168 469 68Q478 49 512 11T562 -42Q561 -45 560 -50T551 -70T534 -94Q508 -122 456
-122T379 -73L340 4Q318 -1 284 -1ZM351 116T372 167T394 314T353 467T254 551Q229 455 229 344Q229 116 313 116Q351 116 372 167Z" />
<glyph unicode="R" glyph-name="R" horiz-adv-x="571" d="M124 709Q158 709 182 694T225 636Q275 715 377 715Q456 715 505 656T554 489Q554 411 529 344T456 235Q462 229 492 181T562 96Q562 85 552 66T530 34T493 11T436 0Q371 0 341 56L281 180Q269 181 246
185Q236 83 210 42T134 0Q108 0 82 10T43 32L30 42Q40 86 40 246Q40 487 32 633L29 676Q59 709 124 709ZM251 501Q254 459 254 392T251 263Q363 279 363 409Q363 469 338 485T251 501Z" />
<glyph unicode="S" glyph-name="S" horiz-adv-x="516" d="M488 210Q488 118 425 59T244 0T78 34T30 111Q30 149 40 166Q57 195 73 205Q112 176 162 152T239 128T276 133T289 143T291 159Q291 178 264 195T199 231T122 273T57 338T30 428T53 520T111 589Q113 637
168 675T321 713Q499 713 499 564Q499 473 419 440Q364 500 214 528Q218 470 272 432Q297 415 326 400T383 367T436 330Q488 285 488 210Z" />
<glyph unicode="T" glyph-name="T" horiz-adv-x="442" d="M419 685Q430 664 430 594T414 491T358 458H314Q317 174 337 29Q288 0 215 0Q173 0 146 17T119 61Q119 207 135 463Q70 461 38 458Q12 482 12 555T37 666T116 704Q121 704 148 704Q216 704 370 690L419 685Z" />
<glyph unicode="U" glyph-name="U" horiz-adv-x="603" d="M19 357Q19 405 27 451T43 520L51 543L34 619Q41 640 68 660Q98 681 161 681T249 660T275 599Q275 578 258 494T241 316T260 169T315 116T372 167T394 317T380 502T350 627L336 665Q336 668 343 677T360
692Q384 706 423 706Q588 706 588 410Q588 282 559 192T462 48T287 -6Q148 -6 84 92T19 357Z" />
<glyph unicode="V" glyph-name="V" horiz-adv-x="569" d="M138 709Q198 709 229 670T272 523Q272 472 290 355T317 201T339 131Q399 483 399 702Q445 722 477 722Q553 722 553 611Q553 487 512 272Q492 167 453 93T366 18H360Q331 0 289 0T229 3T187 20T149 63T118
144Q90 232 69 465Q68 501 55 529T28 568L16 578Q18 579 17 587T15 602T20 627T35 663T72 695T138 709Z" />
<glyph unicode="W" glyph-name="W" horiz-adv-x="895" d="M664 18H660Q635 0 595 0Q540 0 512 64T461 297Q414 18 325 18Q316 18 312 19Q279 0 231 0T151 37T101 174T69 465Q68 501 55 529T28 568L16 578Q16 595 24 620T44 663T81 695T141 709Q251 709 268 567Q275
501 276 430Q277 222 307 132Q373 388 386 607Q382 621 382 638T394 674Q413 704 467 704T549 675T589 569Q611 290 653 131Q696 281 696 462Q696 569 681 688Q709 709 765 709Q791 709 815 701T858 662T877 579Q877 460 857 353T806 174T738 60T664 18Z" />
<glyph unicode="X" glyph-name="X" horiz-adv-x="557" d="M550 569T514 477T428 328L547 69Q545 63 532 48T506 24Q471 0 427 0Q363 0 331 46T253 249L218 20Q194 0 142 0Q40 0 40 83Q40 105 67 182T131 325L14 624Q17 634 28 650T52 676Q89 705 150 705T235 660Q266
601 316 375L373 689Q401 709 465 709Q522 709 538 683Q550 664 550 617Z" />
<glyph unicode="Y" glyph-name="Y" horiz-adv-x="571" d="M518 486Q443 262 385 206Q392 96 402 29Q353 0 280 0Q238 0 210 17T183 61Q183 140 187 205Q170 221 161 245L14 624Q17 634 28 650T52 676Q89 705 146 705Q190 705 212 672Q236 635 247 587T265 506T283
419T304 320L373 689Q401 709 465 709Q522 709 538 683Q550 664 550 623T518 486Z" />
<glyph unicode="Z" glyph-name="Z" horiz-adv-x="490" d="M220 470Q214 470 195 471T139 472T50 461Q25 505 25 573Q25 714 148 714Q215 714 311 709T437 703Q441 700 446 693T461 654T471 570T432 487Q425 449 399 406T348 337T274 260T204 188Q302 176 311 176Q365
176 444 190Q457 133 457 105T450 62T428 31Q400 0 328 0T208 6T144 20L128 26Q119 0 88 0T42 25T26 68Q26 126 60 159Q73 208 144 298Q169 329 216 385T282 465Q279 465 253 467L220 470Z" />
<glyph unicode="[" glyph-name="bracketleft" horiz-adv-x="395" d="M207 547V127Q207 83 230 59T316 35Q328 -10 328 -94Q304 -117 219 -117T96 -68T58 99V559Q58 676 95 725T213 774T326 766L337 764Q337 691 321 638L316 622Q251 622 229 605T207 547Z" />
<glyph unicode="\" glyph-name="backslash" horiz-adv-x="360" d="M74 710Q120 710 142 685T187 593L366 17Q364 13 360 7T336 -10T283 -21T228 6T184 95L-5 638Q-5 646 1 660T14 684T38 702T74 710Z" />
<glyph unicode="]" glyph-name="bracketright" horiz-adv-x="395" d="M189 110V530Q189 574 166 598T79 622Q68 667 68 752Q91 774 176 774T299 725T337 559V99Q337 -18 300 -67T182 -117T69 -110L58 -107Q58 -28 74 18L79 35Q144 35 166 52T189 110Z" />
<glyph unicode="^" glyph-name="asciicircum" horiz-adv-x="411" d="M143 469T130 460T96 450T58 467T38 500L35 517Q53 547 88 617T147 717T206 747T284 705T351 608T376 522T357 469T308 448T246 462Q246 493 234 534T208 602L196 629L194 617Q184 554 173 527T152
485Z" />
<glyph unicode="_" glyph-name="underscore" horiz-adv-x="357" d="M314 -2T330 -12T346 -48T326 -88H65Q42 -88 27 -75T12 -41T25 -2H295Q314 -2 330 -12Z" />
<glyph unicode="`" glyph-name="grave" horiz-adv-x="388" d="M120 781T95 801T70 842T79 882T98 907L107 914Q116 911 130 907T180 887T244 856T295 818T318 779Q318 752 302 728Q293 730 277 732T221 746T151 769Z" />
<glyph unicode="a" glyph-name="a" horiz-adv-x="421" d="M236 301Q236 372 157 372Q112 372 63 343Q47 359 47 382T60 431T96 478T154 515T228 530Q306 530 348 481T390 341V112L412 61Q408 54 401 44T370 17T320 0Q255 0 241 72Q208 0 150 0T61 36T30 132Q30
285 236 294V301ZM155 169Q155 130 182 119Q188 116 195 116Q215 116 236 139V249Q155 230 155 169Z" />
<glyph unicode="b" glyph-name="b" horiz-adv-x="453" d="M185 578V480Q226 530 287 530T385 491T421 382V226Q421 136 355 68T199 0Q125 0 79 44T32 144V498Q32 581 16 636L10 655Q14 660 21 668T54 689T106 703Q185 703 185 578ZM267 127V311Q267 366 249 384T185
403V196Q185 127 267 127Z" />
<glyph unicode="c" glyph-name="c" horiz-adv-x="371" d="M348 139Q359 128 359 110T352 75T330 40T285 12T218 0T148 11T87 48Q24 104 24 231T67 420T166 487Q211 530 261 530Q295 530 328 503T361 441T337 374T273 329Q229 376 175 399V305Q175 210 220 168Q254
136 312 136Q329 136 348 139Z" />
<glyph unicode="d" glyph-name="d" horiz-adv-x="448" d="M410 578V112L431 61Q427 54 420 44T390 17T339 0Q283 0 264 56Q232 0 170 0T70 40T32 140V294Q32 393 89 451T229 510Q242 510 257 507Q255 570 239 635L234 655Q238 660 245 668T278 689T331 703Q410
703 410 578ZM175 196Q175 157 192 139T257 117V335Q254 362 235 375T175 397V196Z" />
<glyph unicode="e" glyph-name="e" horiz-adv-x="405" d="M374 143Q385 132 385 114T376 78T348 42T295 12T221 0T148 11T87 48Q24 104 24 231T67 419T165 487Q205 530 261 530T353 489T389 377Q389 294 328 246Q278 206 208 185Q243 139 324 139Q347 139 374
143ZM250 328Q250 389 175 395V305Q175 260 183 233Q250 270 250 328Z" />
<glyph unicode="f" glyph-name="f" horiz-adv-x="351" d="M328 408Q334 378 334 358T331 324T316 297T280 283T219 286Q220 234 220 126T193 -23T109 -65Q76 -65 56 -53T30 -28L26 -15Q42 1 55 32T69 90Q69 199 64 306Q55 307 44 308T25 310T12 311Q10 316 10
323Q10 389 57 411Q51 527 51 530Q51 597 101 655T229 713Q349 713 349 622Q349 592 336 552Q217 595 217 553L218 417Q301 408 328 408Z" />
<glyph unicode="g" glyph-name="g" horiz-adv-x="437" d="M251 109Q218 65 159 65T66 102T32 199V304Q32 361 74 414T158 483Q201 530 255 530Q320 530 358 496Q391 465 401 441L405 431V99Q405 -7 357 -64T213 -122Q163 -122 131 -106T91 -70T84 -39T86 -12T105
20Q139 -6 181 -6Q251 -6 251 60V109ZM175 241Q175 165 251 161V359Q237 388 175 402V241Z" />
<glyph unicode="h" glyph-name="h" horiz-adv-x="474" d="M185 118Q185 69 197 45Q191 29 164 15T103 0T51 20T32 76V498Q32 581 16 636L10 655Q14 660 21 668T54 689T106 703Q185 703 185 578V461Q198 490 228 510T308 530T395 491T431 382V112L453 61Q449 54
442 44T411 17T360 0Q278 0 278 118V311Q278 366 258 385T185 404V118Z" />
<glyph unicode="i" glyph-name="i" horiz-adv-x="224" d="M114 0Q32 0 32 118Q32 418 39 513Q60 534 106 534Q185 534 185 409V112L207 61Q203 54 196 44T165 17T114 0ZM189 634T169 608T109 581T49 610T16 701Q20 708 27 718T57 746T106 764Q152 764 170 741T189 676Z" />
<glyph unicode="j" glyph-name="j" horiz-adv-x="230" d="M91 534T120 534T170 508T192 449V7Q192 -50 159 -85T77 -120Q-6 -120 -6 -65Q-6 -34 13 -11L48 -20L38 418L16 487Q30 505 60 519ZM193 618T170 597T103 576T39 604T5 690Q22 710 50 726T104 742Q193
742 193 656Q193 618 170 597Z" />
<glyph unicode="k" glyph-name="k" horiz-adv-x="456" d="M198 118Q198 69 210 45Q204 29 177 15T116 0T64 20T45 76V498Q45 584 28 636L22 655Q26 660 33 668T66 689T119 703Q198 703 198 578V266Q219 280 241 284Q269 370 292 516Q321 529 371 529Q439 529 439
458Q439 420 410 351T338 243L398 150Q427 108 442 88L458 67Q443 23 400 7Q382 0 360 0Q307 0 282 49L198 208V118Z" />
<glyph unicode="l" glyph-name="l" horiz-adv-x="224" d="M32 118V498Q32 581 16 636L10 655Q14 660 21 668T54 689T106 703Q185 703 185 578V112L207 61Q203 54 196 44T165 17T114 0Q32 0 32 118Z" />
<glyph unicode="m" glyph-name="m" horiz-adv-x="700" d="M185 118Q185 69 197 45Q191 29 164 15T103 0T51 20T32 76V330Q32 413 16 468L10 487Q14 492 21 500T54 521T106 534Q164 534 179 466Q213 530 294 530T409 456Q421 487 451 508T533 530T621 491T657 382V112L678
61Q674 54 667 44T637 17T586 0Q503 0 503 118V311Q503 364 485 383T422 404L423 382V118Q423 71 435 45Q432 40 427 33T397 13T340 0T288 21T269 76V311Q269 364 251 383T185 404V118Z" />
<glyph unicode="n" glyph-name="n" horiz-adv-x="474" d="M185 118Q185 69 197 45Q191 29 164 15T103 0T51 20T32 76V330Q32 413 16 468L10 487Q14 492 21 500T54 521T106 534Q169 534 182 454Q193 485 223 507T306 530T395 491T431 382V112L453 61Q449 54 442
44T411 17T360 0Q278 0 278 118V311Q278 366 258 385T185 404V118Z" />
<glyph unicode="o" glyph-name="o" horiz-adv-x="438" d="M417 290Q417 149 355 75T200 0Q135 0 83 46Q55 70 38 118T21 234Q21 335 59 388T141 453Q157 502 208 522Q231 530 259 530Q417 530 417 290ZM164 272Q164 120 218 120Q266 120 266 263Q266 333 244 361T181
390Q164 358 164 272Z" />
<glyph unicode="p" glyph-name="p" d="M185 -109Q153 -131 110 -131T50 -114T32 -59V418L10 487Q14 492 21 500T54 521T106 534Q158 534 176 477Q229 530 294 530T395 490T431 382V252Q431 160 359 80T199 0H185V-109ZM185 128Q200 116 224 116T263 131T278 173V318Q278
371 252 390Q236 400 219 400T185 395V128Z" />
<glyph unicode="q" glyph-name="q" horiz-adv-x="447" d="M334 -122Q251 -122 251 -4V37Q219 0 164 0T70 40T32 140V304Q32 361 74 414T158 483Q201 530 255 530Q320 530 358 496Q391 465 401 441L405 431V-10L426 -60Q422 -67 415 -77T384 -105T334 -122ZM175
196Q175 159 191 140T251 117V359Q237 388 175 402V196Z" />
<glyph unicode="r" glyph-name="r" horiz-adv-x="382" d="M114 0Q32 0 32 118V418L10 487Q14 492 21 500T54 521T106 534Q169 534 182 454Q231 530 298 530T366 466Q366 410 342 374Q320 342 296 323Q249 365 185 377V112L207 61Q203 54 196 44T165 17T114 0Z" />
<glyph unicode="s" glyph-name="s" horiz-adv-x="376" d="M156 402Q156 362 228 330Q257 316 286 300T337 252T358 175Q358 96 305 48T173 0T51 34T8 107Q8 133 20 153T46 181L58 188Q64 179 75 166T121 130T179 108T213 115T223 132Q223 149 192 168T123 203T55
252T23 325T47 403T105 455Q110 487 145 511T235 535T322 510T355 443T343 382T305 352Q261 401 156 411V402Z" />
<glyph unicode="t" glyph-name="t" horiz-adv-x="314" d="M295 508Q305 483 305 456T304 416T291 389T262 374T210 376V229Q210 131 295 99Q295 62 270 31T200 0Q136 0 97 47T58 169V387Q32 394 11 404L10 416Q10 484 57 507Q53 576 40 616L36 630Q40 635 47 643T80
664T132 677Q210 677 210 552V511Q242 508 295 508Z" />
<glyph unicode="u" glyph-name="u" horiz-adv-x="450" d="M312 534T340 534T390 508T412 449V112L434 61Q430 54 423 44T392 17T341 0Q280 0 264 67Q252 39 227 20T167 0Q107 0 70 38T32 137V418L10 487Q24 505 54 519T114 534T164 508T185 449V206Q185 163 198
145T259 126V418L236 487Q250 505 281 519Z" />
<glyph unicode="v" glyph-name="v" horiz-adv-x="442" d="M225 462Q248 530 316 530Q361 530 385 504T410 427V244Q410 184 363 125T277 54Q232 0 181 0Q113 0 73 45T32 156V325Q32 408 16 464L10 482Q14 487 21 495T54 516T106 530Q185 530 185 405V222Q185 131
267 118V351Q267 393 257 420T236 455L225 462Z" />
<glyph unicode="w" glyph-name="w" horiz-adv-x="667" d="M225 462Q248 530 316 530Q361 530 385 504T410 427V222Q410 132 492 118V351Q492 393 481 420T460 455L449 462Q472 530 541 530Q586 530 610 504T635 427V244Q635 186 591 129T507 56Q467 0 406 0Q317
0 285 66Q268 39 239 20T181 0Q113 0 73 45T32 156V325Q32 408 16 464L10 482Q14 487 21 495T54 516T106 530Q185 530 185 405V222Q185 129 269 118Q267 128 267 153V351Q267 393 257 420T236 455L225 462Z" />
<glyph unicode="x" glyph-name="x" horiz-adv-x="440" d="M234 462Q257 530 325 530Q420 530 420 427Q420 333 346 267Q409 229 409 130Q409 86 426 58L431 48Q421 31 394 16T340 0Q255 0 255 108Q255 157 232 180T163 222V179Q163 92 206 68Q183 0 114 0Q69 0
45 26T20 103Q20 186 87 255Q31 292 31 376Q31 436 14 470L8 482L21 495Q29 503 53 516T100 530Q143 530 163 501T184 405Q184 352 213 329Q235 311 277 296V360Q277 397 267 422T245 455L234 462Z" />
<glyph unicode="y" glyph-name="y" horiz-adv-x="444" d="M25 -77Q20 -52 20 -34T25 -1T48 28T94 41T157 23T212 5Q259 5 259 64V111Q233 64 167 64T67 100T32 189V418L10 487Q24 505 54 519T114 534T164 508T185 449V223Q185 188 202 177T259 165V418L236 487Q250
505 281 519T340 534T390 508T412 449V99Q412 -6 362 -60T211 -115Q155 -115 106 -96T25 -77Z" />
<glyph unicode="z" glyph-name="z" horiz-adv-x="373" d="M339 525Q359 490 359 450Q359 440 357 420T337 384Q322 344 271 255T205 138Q338 130 359 130L361 86Q361 29 327 8Q313 0 292 0T220 4T131 9T66 0Q46 7 36 28T25 63Q25 113 64 130Q75 150 104 201Q169
318 191 367H39Q28 406 28 433T31 478T51 512T90 530T183 528T339 525Z" />
<glyph unicode="{" glyph-name="braceleft" horiz-adv-x="378" d="M305 742T330 726T355 675T343 612Q273 612 252 586T231 473T219 340Q244 319 244 289T238 227T231 174Q231 130 254 116T337 102Q349 84 349 44T325 -22T225 -48Q72 -48 72 102Q72 170 99 265Q56
269 40 283T23 317Q23 348 31 366Q99 385 99 435Q99 451 86 502T72 589Q72 668 114 705T245 742Q305 742 330 726Z" />
<glyph unicode="|" glyph-name="bar" horiz-adv-x="284" d="M58 672T83 694T143 717T202 697V123Q200 19 182 -22T118 -64Q93 -64 79 -54Q79 25 69 317T58 626Q58 672 83 694Z" />
<glyph unicode="}" glyph-name="braceright" horiz-adv-x="379" d="M23 24Q23 55 35 83Q105 83 126 109T147 209T159 334Q135 356 135 385T141 457T147 520Q147 564 124 578T41 593Q30 611 30 651T54 717T154 742Q306 742 306 593Q306 500 280 409Q322 405 338
391T355 357Q355 324 348 308Q280 290 280 240Q280 223 290 172T301 87Q301 24 262 -12T144 -48Q23 -48 23 24Z" />
<glyph unicode="~" glyph-name="asciitilde" horiz-adv-x="354" d="M278 396Q337 396 337 333Q337 283 308 245T220 207Q190 207 163 221T124 250L112 265Q111 262 110 256L107 238Q105 226 101 211Q90 208 76 208Q17 208 17 277Q17 316 42 350T104 384T171 370T216
340L231 326L252 393Q263 396 278 396Z" />
<glyph unicode="&#xa0;" glyph-name="nbsp" horiz-adv-x="224" />
<glyph unicode="&#xa1;" glyph-name="exclamdown" horiz-adv-x="316" d="M289 59Q306 42 306 20T301 -22T280 -62T232 -98T154 -113Q10 -113 10 28Q10 71 29 113T72 183T114 251T134 330Q143 331 159 331T194 322T215 298T219 272T218 242T208 199Q188 131 188
96Q188 43 230 43Q253 43 289 59ZM99 425T92 441T84 476T98 513T126 540L141 549Q204 533 231 496Q242 480 242 463Q242 402 153 383Q146 385 132 395T108 415Z" />
<glyph unicode="&#xa2;" glyph-name="cent" horiz-adv-x="371" d="M146 610T159 629T201 648T248 628Q244 582 242 528Q254 530 261 530Q295 530 328 503T361 441T337 374T273 329Q229 376 175 399V305Q175 210 220 168Q254 136 312 136Q329 136 348 139Q359 128
359 108T348 65T310 25T245 1Q248 -20 248 -53T238 -104T197 -122Q174 -122 154 -102Q159 -58 161 6Q24 44 24 238Q24 352 62 412T154 484Q146 526 146 568Z" />
<glyph unicode="&#xa3;" glyph-name="sterling" horiz-adv-x="375" d="M284 379L240 381Q221 381 207 365T192 308L189 279L306 289Q322 276 322 238T307 186T262 172H171L165 126Q264 126 319 132L340 135Q354 124 354 90Q354 0 267 0H130Q24 0 24 92V93Q44 117
50 130T58 172H23Q10 185 10 211T18 245T54 263Q46 329 46 384Q46 461 89 499T233 537Q257 537 299 530L311 528Q331 506 331 457T317 394T284 379Z" />
<glyph unicode="&#xa4;" glyph-name="currency" horiz-adv-x="467" d="M383 533Q447 533 447 475Q447 435 415 383Q441 341 441 263T398 136L441 65Q441 63 441 59T441 46T434 29Q420 10 388 10Q339 10 280 72Q260 68 229 68T170 74Q126 32 102 16L92 9Q89 11
80 10T63 9T38 21T20 63T56 147Q26 197 26 274T66 399L27 483Q27 501 45 517T92 534T141 521T189 465Q210 469 239 469T294 464L349 529Q365 533 383 533ZM242 173Q290 173 290 264T240 356Q188 356 188 268Q188 213 202 193T242 173Z" />
<glyph unicode="&#xa5;" glyph-name="yen" horiz-adv-x="571" d="M78 143T60 150T42 175T57 204H157L14 449Q17 459 28 475T52 502Q89 530 139 530T212 514T255 441T308 253L373 514Q401 534 465 534Q522 534 538 508Q550 488 550 450Q550 374 450 227Q437 208
434 204H463Q547 204 547 169L541 151Q487 147 386 145Q388 129 388 120H463Q547 120 547 85L541 67Q489 64 392 61L402 -19Q353 -48 280 -48Q238 -48 210 -31T183 14V59H121Q78 59 60 66T42 91T57 120H185Q185 135 187 143H121Q78 143 60 150Z" />
<glyph unicode="&#xa6;" glyph-name="brokenbar" horiz-adv-x="262" d="M136 289Q174 289 197 270Q189 49 181 4Q164 -63 129 -66Q99 -66 78 -47Q69 68 69 199Q69 289 136 289ZM58 675T83 697T146 719T204 700Q204 439 168 376Q150 346 119 346Q89 346 68 365Q58
498 58 629Q58 675 83 697Z" />
<glyph unicode="&#xa7;" glyph-name="section" horiz-adv-x="376" d="M298 157Q358 116 358 42T305 -80T173 -128T51 -94T8 -21Q8 5 20 25T46 52L58 59Q64 50 80 34T110 8Q147 -20 188 -20Q204 -20 213 -13T223 4Q223 21 192 40T123 75T55 123T23 195T40 269T83
319Q23 361 23 436T76 559T208 607T330 573T373 500Q373 474 361 454T336 427L323 420Q317 429 301 445T271 472Q234 499 194 499Q178 499 169 492T159 472T190 439T258 404T327 356T358 284T341 210T298 157ZM137 288Q134 279 134 270T135 254T141 242T149 232T160
223T173 215T188 208T204 201Q221 195 241 187Q243 197 243 205T241 220T231 235T219 247T201 258T182 268Q170 275 137 288Z" />
<glyph unicode="&#xa8;" glyph-name="dieresis" d="M218 835T218 775T144 714T70 774T144 835ZM319 846Q393 846 393 786T319 725T245 785Q245 818 263 832T319 846Z" />
<glyph unicode="&#xa9;" glyph-name="copyright" horiz-adv-x="783" d="M752 178T654 81T388 -16T126 80T32 347Q32 542 131 639T395 736T656 641T752 374Q752 178 654 81ZM147 232T212 166T392 100T574 166T641 359T576 551T397 616T216 549T147 357ZM541 305Q543
294 543 286T540 258T526 222T485 191T408 177Q325 177 278 224T231 358T301 493L288 506Q290 511 295 519T323 540T379 553T458 535T535 517Q540 491 540 472T533 432Q518 389 444 389Q404 389 379 406Q378 397 378 382Q378 317 412 298Q427 289 456 289T541 305Z"
/>
<glyph unicode="&#xaa;" glyph-name="ordfeminine" horiz-adv-x="333" d="M291 575L288 490Q288 472 294 465T312 461Q316 454 316 447T316 436Q315 420 297 405T249 389Q202 389 191 440Q169 391 118 391Q81 391 60 411T38 459Q38 548 191 549Q190 577 180 588T148
600T116 588T102 564L100 552Q56 552 43 591Q39 602 39 613Q39 641 64 666Q98 702 160 702T256 668T291 575ZM137 371T168 361T214 351Q237 351 268 364L277 368Q280 367 285 366T299 354T308 323T286 284T228 266T164 276T120 286Q94 286 66 274L56 270Q25 280
25 307T47 353T103 371ZM189 482L190 516Q157 516 143 512T128 492Q128 469 156 469Q173 469 189 482Z" />
<glyph unicode="&#xab;" glyph-name="guillemotleft" horiz-adv-x="746" d="M385 142Q385 136 381 120T370 91T347 68T307 57Q257 57 189 93T72 175T23 248T80 324Q177 403 300 466Q325 458 344 442Q381 412 381 381T329 316T224 267L171 251L385 153V142ZM722
142Q722 136 718 120T707 91T684 68T644 57Q595 57 526 93T409 175T360 249T418 324Q514 403 637 466Q662 458 681 442Q718 412 718 381T666 316T560 267L508 251L722 153V142Z" />
<glyph unicode="&#xac;" glyph-name="logicalnot" horiz-adv-x="633" d="M35 387Q35 424 60 453H489Q544 453 571 430T598 354Q598 133 568 58Q552 20 534 6T492 -8Q448 -8 430 6L423 11L407 282Q373 277 310 277Q153 277 94 305T35 387Z" />
<glyph unicode="&#xad;" glyph-name="uni00AD" horiz-adv-x="423" d="M78 204Q52 204 38 221T23 271T43 332H344Q400 332 400 266Q400 233 387 220Q159 204 120 204T78 204Z" />
<glyph unicode="&#xae;" glyph-name="registered" horiz-adv-x="783" d="M752 178T654 81T388 -16T126 80T32 347Q32 542 131 639T395 736T656 641T752 374Q752 178 654 81ZM147 232T212 166T392 100T574 166T641 359T576 551T397 616T216 549T147 357ZM240 527Q259
544 299 544T361 514Q395 548 446 548T534 509T572 395T514 287Q547 237 572 216Q572 184 533 168Q518 162 498 162Q459 162 439 192L396 265Q392 266 385 266Q378 206 360 186T305 165Q273 165 241 189Q247 212 247 300Q247 454 242 506L240 527ZM384 447Q389
410 389 384T389 339T388 312Q442 324 442 381T384 447Z" />
<glyph unicode="&#xaf;" glyph-name="overscore" horiz-adv-x="449" d="M399 749Q358 744 235 744T74 755T35 811Q35 842 48 861Q123 870 223 870T359 860T405 836T414 802Q414 770 399 749Z" />
<glyph unicode="&#xb0;" glyph-name="degree" horiz-adv-x="294" d="M270 511T236 481T145 450T56 481T23 568T57 655T148 687T237 657T270 569ZM103 541T115 528T146 514T178 528T191 567T179 605T149 618T117 605T103 566Z" />
<glyph unicode="&#xb1;" glyph-name="plusminus" horiz-adv-x="409" d="M75 273Q47 273 33 291T18 341T38 402H142V465Q142 526 209 526Q242 526 270 506V402H339Q394 402 394 336Q394 304 382 290Q331 286 270 282V205Q270 149 205 149Q184 149 169 155T148 169L142
176V275Q117 273 97 273T75 273ZM75 0Q47 0 33 18T18 68T38 128H339Q394 128 394 63Q394 31 382 17Q154 0 115 0T75 0Z" />
<glyph unicode="&#xb2;" glyph-name="twosuperior" horiz-adv-x="277" d="M153 290L238 291Q242 258 242 247T232 225T198 213H47Q34 237 34 256T59 284Q134 341 134 392Q134 409 124 420T96 431L43 423Q40 444 40 459Q40 488 65 509T135 530Q240 530 240 427Q240
391 214 352T153 290Z" />
<glyph unicode="&#xb3;" glyph-name="threesuperior" horiz-adv-x="272" d="M96 237Q134 237 134 275Q134 299 115 312Q109 311 96 311T77 315T71 324V328Q92 337 112 357T132 396Q132 427 101 427L38 419Q34 439 34 454Q34 484 60 507T134 530T208 506T235 430T198
343Q215 332 226 310T237 262Q237 215 211 187T131 158Q104 158 83 166T52 187T38 213Q30 243 43 256Q73 237 96 237Z" />
<glyph unicode="&#xb4;" glyph-name="acute" horiz-adv-x="388" d="M86 728Q70 748 70 777T123 842T228 896L281 914Q285 911 291 906T307 883T318 843Q318 808 260 780T144 740L86 728Z" />
<glyph unicode="&#xb5;" glyph-name="mu" horiz-adv-x="450" d="M312 534T340 534T390 508T412 449V112L434 61Q430 54 423 44T392 17T341 0Q280 0 264 67Q252 39 227 20T176 0T141 2Q143 -30 143 -41Q143 -85 130 -103T85 -122Q60 -122 26 -102Q47 -11 50 65Q32
95 32 137V418L10 487Q24 505 54 519T114 534T164 508T185 449V206Q185 163 198 145T259 126V418L236 487Q250 505 281 519Z" />
<glyph unicode="&#xb6;" glyph-name="paragraph" horiz-adv-x="556" d="M284 -7Q264 -7 238 5L244 242Q212 238 188 238Q113 238 65 291T17 442Q17 562 89 635T298 709Q425 709 506 697L533 693Q541 618 541 581T518 526T465 508L478 77Q476 0 421 0Q397 0 375
13L372 509H337L341 69Q339 -7 284 -7Z" />
<glyph unicode="&#xb7;" glyph-name="middot" horiz-adv-x="238" d="M215 254Q215 177 119 177T23 254Q23 333 119 333T215 254Z" />
<glyph unicode="&#xb8;" glyph-name="cedilla" horiz-adv-x="684" d="M312 -156Q333 -156 333 -133Q333 -117 295 -103Q281 -98 269 -86T257 -53T269 -16T294 6L306 12Q315 -14 337 -30T382 -52T421 -75T438 -123Q438 -176 399 -203T304 -230Q243 -230 216 -214L207
-209Q209 -207 208 -199T206 -183T215 -162T248 -147L312 -156Z" />
<glyph unicode="&#xb9;" glyph-name="onesuperior" horiz-adv-x="216" d="M35 257Q35 286 70 292V409Q70 436 41 436Q34 443 34 456T44 490Q62 530 105 530Q151 530 151 477V289H177Q181 272 181 259Q181 212 137 212H47Q35 233 35 257Z" />
<glyph unicode="&#xba;" glyph-name="ordmasculine" horiz-adv-x="333" d="M23 619T60 660T168 702T275 660T310 548T273 435T165 391T59 433T23 547ZM177 469Q214 469 214 543T176 618T138 544T177 469ZM137 371T168 361T214 351Q237 351 268 364L277 368Q280
367 285 366T299 354T308 323T286 284T228 266T164 276T120 286Q94 286 66 274L56 270Q25 280 25 307T47 353T103 371Z" />
<glyph unicode="&#xbb;" glyph-name="guillemotright" horiz-adv-x="746" d="M361 382Q361 388 365 404T376 432T399 455T439 466Q489 466 557 430T674 348T723 275T666 200Q569 120 446 57Q416 67 391 92T366 141Q366 175 418 207T524 256L576 272L361 371V382ZM24
382Q24 388 28 404T39 432T62 455T102 466Q152 466 220 430T337 348T386 275T328 200Q232 120 109 57Q79 67 54 92T29 141Q29 175 81 207T186 256L238 272L24 371V382Z" />
<glyph unicode="&#xbc;" glyph-name="onequarter" horiz-adv-x="599" d="M522 -41Q509 -46 496 -46T472 -38Q451 -24 450 21Q399 22 357 22Q333 22 324 43Q321 51 321 60T329 79Q340 117 424 310Q427 311 431 312T446 315T462 311Q474 316 494 316Q536 316 536
264L527 86L557 87Q563 65 563 50Q563 21 540 21H525L522 -41ZM450 85V216Q445 203 395 85H450ZM35 257Q35 286 70 292V409Q70 436 41 436Q34 443 34 456T44 490Q62 530 105 530Q151 530 151 477V289H177Q181 272 181 259Q181 212 137 212H47Q35 233 35 257ZM259
40T242 20T200 0T161 7T142 20L137 27Q249 371 269 431T307 510T354 529T399 516T417 490L420 477L275 84Q259 40 242 20Z" />
<glyph unicode="&#xbd;" glyph-name="onehalf" horiz-adv-x="609" d="M35 257Q35 286 70 292V409Q70 436 41 436Q34 443 34 456T44 490Q62 530 105 530Q151 530 151 477V289H177Q181 272 181 259Q181 212 137 212H47Q35 233 35 257ZM259 40T242 20T200 0T161 7T142
20L137 27Q249 371 269 431T307 510T354 529T399 516T417 490L420 477L275 84Q259 40 242 20ZM485 77L570 78Q574 45 574 34T564 12T530 0H379Q366 24 366 43T391 71Q466 128 466 179Q466 196 456 207T428 218L375 210Q372 231 372 246Q372 275 397 296T467 317Q572
317 572 214Q572 178 546 139T485 77Z" />
<glyph unicode="&#xbe;" glyph-name="threequarters" horiz-adv-x="664" d="M96 237Q134 237 134 275Q134 299 115 312Q109 311 96 311T77 315T71 324V328Q92 337 112 357T132 396Q132 427 101 427L38 419Q34 439 34 454Q34 484 60 507T134 530T208 506T235 430T198
343Q215 332 226 310T237 262Q237 215 211 187T131 158Q104 158 83 166T52 187T38 213Q30 243 43 256Q73 237 96 237ZM587 -41Q574 -46 561 -46T536 -38Q516 -24 515 21Q464 22 422 22Q398 22 390 43Q386 51 386 60T394 79Q405 117 489 310Q492 311 496 312T511
315T527 311Q539 316 558 316Q601 316 601 264L592 86L622 87Q627 65 627 51Q627 21 605 21H590L587 -41ZM515 85V216Q510 203 460 85H515ZM324 40T307 20T265 0T226 7T206 20L202 27Q314 371 334 431T372 510T419 529T464 516T482 490L485 477L340 84Q324 40 307
20Z" />
<glyph unicode="&#xbf;" glyph-name="questiondown" horiz-adv-x="237" d="M114 -114Q35 -114 35 -35Q35 13 64 252L73 331Q117 346 129 336T147 322T157 296Q167 244 167 220L202 -71Q193 -86 167 -100T114 -114ZM54 424T47 440T39 475T53 512T82 540L96 548Q159
532 186 494Q197 479 197 462Q197 401 108 382Q101 384 87 394T63 414Z" />
<glyph unicode="&#xc0;" glyph-name="Agrave" horiz-adv-x="568" d="M540 25T514 13T449 0Q366 0 344 124Q309 120 261 120T199 123Q186 56 163 28T92 0Q69 0 48 8T18 24L8 32Q47 502 118 600Q144 634 166 642T207 651T231 651T238 650L234 670Q237 674 242 680T272
698T328 709Q394 709 432 660T501 468T559 45Q555 40 548 33ZM216 238Q248 242 283 242T323 241Q287 423 260 549Q235 411 216 238ZM190 778T165 798T140 839T149 879T168 904L177 911Q186 908 200 904T250 884T314 853T365 815T388 776Q388 747 372 725Q363 727
347 729T291 743T221 766Z" />
<glyph unicode="&#xc1;" glyph-name="Aacute" horiz-adv-x="568" d="M540 25T514 13T449 0Q366 0 344 124Q309 120 261 120T199 123Q186 56 163 28T92 0Q69 0 48 8T18 24L8 32Q47 502 118 600Q144 634 166 642T207 651T231 651T238 650L234 670Q237 674 242 680T272
698T328 709Q394 709 432 660T501 468T559 45Q555 40 548 33ZM216 238Q248 242 283 242T323 241Q287 423 260 549Q235 411 216 238ZM195 705Q179 725 179 754T231 819T337 872L390 891Q394 888 400 883T416 860T427 820Q427 785 369 757T253 716L195 705Z" />
<glyph unicode="&#xc2;" glyph-name="Acircumflex" horiz-adv-x="568" d="M540 25T514 13T449 0Q366 0 344 124Q309 120 261 120T199 123Q186 56 163 28T92 0Q69 0 48 8T18 24L8 32Q47 502 118 600Q144 634 166 642T207 651T231 651T238 650L234 670Q237 674 242
680T272 698T328 709Q394 709 432 660T501 468T559 45Q555 40 548 33ZM216 238Q248 242 283 242T323 241Q287 423 260 549Q235 411 216 238ZM138 768Q138 785 186 818T275 851Q297 851 331 835T388 801L412 784Q412 766 410 754T395 732T361 721T317 736T284 768L272
784L193 721Q138 721 138 768Z" />
<glyph unicode="&#xc3;" glyph-name="Atilde" horiz-adv-x="568" d="M540 25T514 13T449 0Q366 0 344 124Q309 120 261 120T199 123Q186 56 163 28T92 0Q69 0 48 8T18 24L8 32Q47 502 118 600Q144 634 166 642T207 651T231 651T238 650L234 670Q237 674 242 680T272
698T328 709Q394 709 432 660T501 468T559 45Q555 40 548 33ZM216 238Q248 242 283 242T323 241Q287 423 260 549Q235 411 216 238ZM337 721T286 737T210 754T162 733Q133 749 133 782Q133 855 210 855Q234 855 285 839T360 822T409 845Q437 824 437 786Q437 721
363 721Q337 721 286 737Z" />
<glyph unicode="&#xc4;" glyph-name="Adieresis" horiz-adv-x="568" d="M540 25T514 13T449 0Q366 0 344 124Q309 120 261 120T199 123Q186 56 163 28T92 0Q69 0 48 8T18 24L8 32Q47 502 118 600Q144 634 166 642T207 651T231 651T238 650L234 670Q237 674 242
680T272 698T328 709Q394 709 432 660T501 468T559 45Q555 40 548 33ZM216 238Q248 242 283 242T323 241Q287 423 260 549Q235 411 216 238ZM263 830T263 770T189 709T115 769T189 830ZM364 841Q438 841 438 781T364 720T290 780Q290 813 308 827T364 841Z" />
<glyph unicode="&#xc5;" glyph-name="Aring" horiz-adv-x="568" d="M404 743Q404 716 394 693Q433 671 458 621Q511 512 559 45Q555 40 548 33T515 13T450 0T384 27T345 124Q310 120 262 120T200 123Q187 52 162 26T86 0Q67 0 48 8T18 24L8 31Q40 416 90 538Q115
600 138 623T196 650Q142 674 142 743Q142 851 271 851Q336 851 370 827T404 743ZM216 238Q248 242 283 242T323 241Q287 423 260 549Q235 411 216 238ZM314 710T314 741T276 772T238 741T276 710Z" />
<glyph unicode="&#xc6;" glyph-name="AE" horiz-adv-x="745" d="M718 360Q724 311 724 298T710 268T662 251H524Q532 178 570 166Q579 163 591 163Q632 163 712 195Q735 184 740 138Q740 133 740 129Q740 87 695 44T544 0Q385 0 332 123Q294 120 255 120T201 123Q188
56 165 28T94 0Q71 0 52 8T25 24L17 31Q51 431 102 550Q129 610 153 629T215 651Q239 714 308 714Q313 714 339 714T500 705T728 695Q740 665 740 600T724 502T668 469Q614 469 527 472Q519 421 519 364V357Q702 360 718 360ZM307 242V264Q307 379 352 474Q281
472 249 470Q242 427 218 238Q251 242 307 242Z" />
<glyph unicode="&#xc7;" glyph-name="Ccedilla" horiz-adv-x="496" d="M474 183Q477 174 477 153T474 116T460 80T432 44Q392 7 313 1Q316 -1 334 -8T358 -18T375 -31Q393 -46 393 -80Q393 -133 354 -160T259 -187Q202 -187 172 -171L162 -166Q164 -164 163 -156T161
-140T170 -119T203 -104L267 -113Q288 -113 288 -90Q288 -74 250 -60Q236 -55 224 -43T212 -17T214 7Q19 49 19 318Q19 447 69 529T193 647Q203 669 226 689T290 709T383 682T472 654Q477 607 477 591T477 558T469 524T450 490Q427 459 367 459Q326 459 301 478T252
535Q231 462 231 364Q231 244 290 188Q320 159 367 159T474 183Z" />
<glyph unicode="&#xc8;" glyph-name="Egrave" horiz-adv-x="462" d="M379 469L238 472Q231 429 231 364V357Q411 360 429 360Q434 335 434 316Q434 251 374 251H235Q243 178 282 166Q290 163 302 163Q344 163 424 195Q451 182 451 135T406 44T255 0Q155 0 91 55Q19
116 19 264Q19 378 63 471L38 469Q12 493 12 566Q12 714 114 714Q119 714 146 714T259 705T440 695Q452 665 452 600T435 502T379 469ZM149 771T124 791T99 832T108 872T127 897L136 904Q145 901 159 897T209 877T273 846T324 808T347 769Q347 742 331 718Q322
720 306 722T250 736T180 759Z" />
<glyph unicode="&#xc9;" glyph-name="Eacute" horiz-adv-x="462" d="M379 469L238 472Q231 429 231 364V357Q411 360 429 360Q434 335 434 316Q434 251 374 251H235Q243 178 282 166Q290 163 302 163Q344 163 424 195Q451 182 451 135T406 44T255 0Q155 0 91 55Q19
116 19 264Q19 378 63 471L38 469Q12 493 12 566Q12 714 114 714Q119 714 146 714T259 705T440 695Q452 665 452 600T435 502T379 469ZM149 723Q133 743 133 772T185 837T291 890L344 909Q348 906 354 901T370 878T381 838Q381 803 323 775T207 734L149 723Z" />
<glyph unicode="&#xca;" glyph-name="Ecircumflex" horiz-adv-x="462" d="M379 469L238 472Q231 429 231 364V357Q411 360 429 360Q434 335 434 316Q434 251 374 251H235Q243 178 282 166Q290 163 302 163Q344 163 424 195Q451 182 451 135T406 44T255 0Q155 0
91 55Q19 116 19 264Q19 378 63 471L38 469Q12 493 12 566Q12 714 114 714Q119 714 146 714T259 705T440 695Q452 665 452 600T435 502T379 469ZM92 774Q92 792 140 825T229 858Q251 858 285 841T342 808L366 791Q366 773 364 761T349 739T315 728T271 744T238
776L226 791L147 728Q92 728 92 774Z" />
<glyph unicode="&#xcb;" glyph-name="Edieresis" horiz-adv-x="462" d="M379 469L238 472Q231 429 231 364V357Q411 360 429 360Q434 335 434 316Q434 251 374 251H235Q243 178 282 166Q290 163 302 163Q344 163 424 195Q451 182 451 135T406 44T255 0Q155 0 91
55Q19 116 19 264Q19 378 63 471L38 469Q12 493 12 566Q12 714 114 714Q119 714 146 714T259 705T440 695Q452 665 452 600T435 502T379 469ZM236 845T236 785T162 724T88 784T162 845ZM337 856Q411 856 411 796T337 735T263 795Q263 828 281 842T337 856Z" />
<glyph unicode="&#xcc;" glyph-name="Igrave" horiz-adv-x="330" d="M74 465Q15 465 15 577Q15 608 22 639L33 697Q150 717 230 717Q266 717 286 692T310 638T313 591Q313 539 305 500L300 475Q276 475 265 474L246 152Q273 151 285 136T298 102Q298 58 282 20L275
5Q194 0 103 0Q76 0 60 14T40 47T36 76Q36 106 40 122L44 136L84 141L74 465ZM97 781T72 801T47 842T56 882T75 907L84 914Q93 911 107 907T157 887T221 856T272 818T295 779Q295 752 279 728Q270 730 254 732T198 746T128 769Z" />
<glyph unicode="&#xcd;" glyph-name="Iacute" horiz-adv-x="330" d="M74 465Q15 465 15 577Q15 608 22 639L33 697Q150 717 230 717Q266 717 286 692T310 638T313 591Q313 539 305 500L300 475Q276 475 265 474L246 152Q273 151 285 136T298 102Q298 58 282 20L275
5Q194 0 103 0Q76 0 60 14T40 47T36 76Q36 106 40 122L44 136L84 141L74 465ZM58 728Q42 748 42 777T95 842T200 896L253 914Q257 911 263 906T279 883T290 843Q290 808 232 780T116 740L58 728Z" />
<glyph unicode="&#xce;" glyph-name="Icircumflex" horiz-adv-x="330" d="M74 465Q15 465 15 577Q15 608 22 639L33 697Q150 717 230 717Q266 717 286 692T310 638T313 591Q313 539 305 500L300 475Q276 475 265 474L246 152Q273 151 285 136T298 102Q298 58 282
20L275 5Q194 0 103 0Q76 0 60 14T40 47T36 76Q36 106 40 122L44 136L84 141L74 465ZM15 774Q15 792 63 825T152 858Q174 858 208 841T266 808L289 791Q289 773 287 761T272 739T238 728T194 744T160 776L149 791L70 728Q15 728 15 774Z" />
<glyph unicode="&#xcf;" glyph-name="Idieresis" horiz-adv-x="330" d="M74 465Q15 465 15 577Q15 608 22 639L33 697Q150 717 230 717Q266 717 286 692T310 638T313 591Q313 539 305 500L300 475Q276 475 265 474L246 152Q273 151 285 136T298 102Q298 58 282
20L275 5Q194 0 103 0Q76 0 60 14T40 47T36 76Q36 106 40 122L44 136L84 141L74 465ZM252 852Q326 852 326 792T252 731T178 791Q178 824 196 838T252 852ZM151 841T151 781T77 720T3 780T77 841Z" />
<glyph unicode="&#xd0;" glyph-name="Eth" horiz-adv-x="600" d="M29 676Q60 709 123 709T218 652Q260 715 348 715Q459 715 522 631T586 377T509 106T319 5Q257 5 210 41Q183 0 134 0Q108 0 82 10T43 32L30 42Q39 79 41 254Q16 260 6 275T-5 311Q-5 340 6 369Q11
370 41 371Q39 536 32 641L29 676ZM308 117Q347 117 371 171T395 334T348 502T244 563Q255 500 255 406V373Q310 373 333 356T357 302L352 270Q325 262 252 256Q249 192 242 146Q278 117 308 117Z" />
<glyph unicode="&#xd1;" glyph-name="Ntilde" horiz-adv-x="665" d="M416 687Q445 717 509 717T601 689T628 588T612 316T595 32Q555 1 482 1Q448 1 436 14Q345 32 238 403Q231 195 231 24Q212 1 141 1T66 61L34 665Q107 709 165 709Q194 709 211 699Q225 703
237 703Q280 703 300 661T347 514T381 383T402 306T428 211Q430 298 430 363Q430 544 421 634L416 687ZM382 722T331 738T256 755T207 734Q178 750 178 784Q178 856 255 856Q279 856 330 840T406 823T454 846Q482 825 482 787Q482 722 408 722Q382 722 331 738Z"
/>
<glyph unicode="&#xd2;" glyph-name="Ograve" horiz-adv-x="603" d="M19 308Q19 392 39 458T92 564Q155 640 226 657Q267 709 348 709Q459 709 522 624T585 370T500 100T288 -1T90 77T19 308ZM351 116T372 167T394 314T353 467T254 551Q229 455 229 344Q229 116
313 116Q351 116 372 167ZM214 767T189 787T164 828T173 868T192 893L201 900Q210 897 224 893T274 873T338 842T389 804T412 765Q412 738 396 714Q387 716 371 718T315 732T245 755Z" />
<glyph unicode="&#xd3;" glyph-name="Oacute" horiz-adv-x="603" d="M19 308Q19 392 39 458T92 564Q155 640 226 657Q267 709 348 709Q459 709 522 624T585 370T500 100T288 -1T90 77T19 308ZM351 116T372 167T394 314T353 467T254 551Q229 455 229 344Q229 116
313 116Q351 116 372 167ZM199 705Q183 725 183 754T235 819T341 872L394 891Q398 888 404 883T420 860T431 820Q431 785 373 757T257 716L199 705Z" />
<glyph unicode="&#xd4;" glyph-name="Ocircumflex" horiz-adv-x="603" d="M19 308Q19 392 39 458T92 564Q155 640 226 657Q267 709 348 709Q459 709 522 624T585 370T500 100T288 -1T90 77T19 308ZM351 116T372 167T394 314T353 467T254 551Q229 455 229 344Q229
116 313 116Q351 116 372 167ZM138 766Q138 783 186 816T275 849Q297 849 331 833T388 799L412 782Q412 764 410 752T395 730T361 719T317 734T284 766L272 782L193 719Q138 719 138 766Z" />
<glyph unicode="&#xd5;" glyph-name="Otilde" horiz-adv-x="603" d="M19 308Q19 392 39 458T92 564Q155 640 226 657Q267 709 348 709Q459 709 522 624T585 370T500 100T288 -1T90 77T19 308ZM351 116T372 167T394 314T353 467T254 551Q229 455 229 344Q229 116
313 116Q351 116 372 167ZM346 722T295 738T220 755T171 734Q142 750 142 784Q142 856 219 856Q243 856 294 840T370 823T418 846Q446 825 446 787Q446 722 372 722Q346 722 295 738Z" />
<glyph unicode="&#xd6;" glyph-name="Odieresis" horiz-adv-x="603" d="M19 308Q19 392 39 458T92 564Q155 640 226 657Q267 709 348 709Q459 709 522 624T585 370T500 100T288 -1T90 77T19 308ZM351 116T372 167T394 314T353 467T254 551Q229 455 229 344Q229
116 313 116Q351 116 372 167ZM275 835T275 775T201 714T127 774T201 835ZM376 846Q450 846 450 786T376 725T302 785Q302 818 320 832T376 846Z" />
<glyph unicode="&#xd7;" glyph-name="multiply" horiz-adv-x="403" d="M289 441Q294 443 301 443T321 442T345 436T365 418T375 384Q375 339 300 261Q344 199 368 160L378 144V138Q378 110 350 96Q339 91 322 91Q276 91 196 167L87 84Q65 87 47 104T28 143Q28
184 105 268Q57 328 34 362L24 376V383Q24 418 54 434Q68 441 87 441Q132 441 208 370L289 441Z" />
<glyph unicode="&#xd8;" glyph-name="Oslash" horiz-adv-x="603" d="M19 308Q19 392 39 458T92 564Q155 640 226 657Q267 709 348 709Q371 709 396 704L401 720Q418 773 431 790T459 808Q482 808 491 794L494 790L458 682Q585 611 585 366Q585 200 500 100T284
-1Q253 -1 230 3L225 -14Q196 -103 165 -103Q153 -103 148 -99T142 -91V-87Q156 -44 176 17Q19 78 19 308ZM351 116T372 167T394 298T373 429L274 133Q291 116 313 116Q351 116 372 167ZM254 551Q229 455 229 358T239 214L329 496Q299 529 254 551Z" />
<glyph unicode="&#xd9;" glyph-name="Ugrave" horiz-adv-x="603" d="M19 357Q19 405 27 451T43 520L51 543L34 619Q41 640 68 660Q98 681 161 681T249 660T275 599Q275 578 258 494T241 316T260 169T315 116T372 167T394 317T380 502T350 627L336 665Q336 668
343 677T360 692Q384 706 423 706Q588 706 588 410Q588 282 559 192T462 48T287 -6Q148 -6 84 92T19 357ZM129 731T104 751T79 792T88 832T107 857L116 864Q125 861 139 857T189 837T253 806T304 768T327 729Q327 702 311 678Q302 680 286 682T230 696T160 719Z"
/>
<glyph unicode="&#xda;" glyph-name="Uacute" horiz-adv-x="603" d="M19 357Q19 405 27 451T43 520L51 543L34 619Q41 640 68 660Q98 681 161 681T249 660T275 599Q275 578 258 494T241 316T260 169T315 116T372 167T394 317T380 502T350 627L336 665Q336 668
343 677T360 692Q384 706 423 706Q588 706 588 410Q588 282 559 192T462 48T287 -6Q148 -6 84 92T19 357ZM246 686Q230 706 230 735T283 800T388 854L441 872Q445 869 451 864T467 841T478 801Q478 766 420 738T304 698L246 686Z" />
<glyph unicode="&#xdb;" glyph-name="Ucircumflex" horiz-adv-x="603" d="M19 357Q19 405 27 451T43 520L51 543L34 619Q41 640 68 660Q98 681 161 681T249 660T275 599Q275 578 258 494T241 316T260 169T315 116T372 167T394 317T380 502T350 627L336 665Q336
668 343 677T360 692Q384 706 423 706Q588 706 588 410Q588 282 559 192T462 48T287 -6Q148 -6 84 92T19 357ZM152 764Q152 782 200 815T289 848Q311 848 345 831T402 798L426 781Q426 763 424 751T409 729T375 718T331 734T298 766L286 781L207 718Q152 718 152
764Z" />
<glyph unicode="&#xdc;" glyph-name="Udieresis" horiz-adv-x="603" d="M19 357Q19 405 27 451T43 520L51 543L34 619Q41 640 68 660Q98 681 161 681T249 660T275 599Q275 578 258 494T241 316T260 169T315 116T372 167T394 317T380 502T350 627L336 665Q336 668
343 677T360 692Q384 706 423 706Q588 706 588 410Q588 282 559 192T462 48T287 -6Q148 -6 84 92T19 357ZM287 835T287 775T213 714T139 774T213 835ZM388 846Q462 846 462 786T388 725T314 785Q314 818 332 832T388 846Z" />
<glyph unicode="&#xdd;" glyph-name="Yacute" horiz-adv-x="571" d="M518 486Q443 262 385 206Q392 96 402 29Q353 0 280 0Q238 0 210 17T183 61Q183 140 187 205Q170 221 161 245L14 624Q17 634 28 650T52 676Q89 705 146 705Q190 705 212 672Q236 635 247 587T265
506T283 419T304 320L373 689Q401 709 465 709Q522 709 538 683Q550 664 550 623T518 486ZM227 689Q211 709 211 738T263 803T369 856L422 875Q426 872 432 867T448 844T459 804Q459 769 401 741T285 700L227 689Z" />
<glyph unicode="&#xde;" glyph-name="Thorn" horiz-adv-x="571" d="M124 709Q167 709 196 683T241 581Q284 617 360 617T491 561T546 392T481 207T303 134Q262 134 241 140Q229 63 204 32T134 0Q108 0 82 10T43 32L30 42Q40 86 40 246Q40 487 32 633L29 676Q59
709 124 709ZM253 448Q254 435 254 362T248 208Q299 219 327 255T356 346T326 423T253 448Z" />
<glyph unicode="&#xdf;" glyph-name="germandbls" horiz-adv-x="417" d="M96 -82Q60 -82 41 -69Q41 0 35 161T28 386Q28 571 211 571Q301 571 346 524T392 398Q392 341 376 306T324 240L334 235Q383 210 404 172Q414 154 414 137Q414 83 382 42T296 0T217 20T191
73Q191 93 206 110Q238 102 254 102T279 115T288 139L198 187Q198 204 212 230Q254 306 254 364Q254 383 251 396T232 418T202 428T180 427L176 12Q176 -82 96 -82Z" />
<glyph unicode="&#xe0;" glyph-name="agrave" horiz-adv-x="421" d="M236 301Q236 372 157 372Q112 372 63 343Q47 359 47 382T60 431T96 478T154 515T228 530Q306 530 348 481T390 341V112L412 61Q408 54 401 44T370 17T320 0Q255 0 241 72Q208 0 150 0T61 36T30
132Q30 285 236 294V301ZM155 169Q155 130 182 119Q188 116 195 116Q215 116 236 139V249Q155 230 155 169ZM127 599T102 619T77 660T86 700T105 725L114 732Q123 729 137 725T187 705T251 674T302 636T325 597Q325 570 309 546Q300 548 284 550T228 564T158 587Z"
/>
<glyph unicode="&#xe1;" glyph-name="aacute" horiz-adv-x="421" d="M236 301Q236 372 157 372Q112 372 63 343Q47 359 47 382T60 431T96 478T154 515T228 530Q306 530 348 481T390 341V112L412 61Q408 54 401 44T370 17T320 0Q255 0 241 72Q208 0 150 0T61 36T30
132Q30 285 236 294V301ZM155 169Q155 130 182 119Q188 116 195 116Q215 116 236 139V249Q155 230 155 169ZM121 546Q105 566 105 595T157 660T263 714L316 732Q320 729 326 724T342 701T353 661Q353 626 295 598T179 558L121 546Z" />
<glyph unicode="&#xe2;" glyph-name="acircumflex" horiz-adv-x="421" d="M236 301Q236 372 157 372Q112 372 63 343Q47 359 47 382T60 431T96 478T154 515T228 530Q306 530 348 481T390 341V112L412 61Q408 54 401 44T370 17T320 0Q255 0 241 72Q208 0 150 0T61
36T30 132Q30 285 236 294V301ZM155 169Q155 130 182 119Q188 116 195 116Q215 116 236 139V249Q155 230 155 169ZM68 594Q68 611 116 644T205 677Q227 677 261 661T318 627L342 610Q342 592 340 580T325 558T291 547T247 562T214 594L202 610L123 547Q68 547 68
594Z" />
<glyph unicode="&#xe3;" glyph-name="atilde" horiz-adv-x="421" d="M236 301Q236 372 157 372Q112 372 63 343Q47 359 47 382T60 431T96 478T154 515T228 530Q306 530 348 481T390 341V112L412 61Q408 54 401 44T370 17T320 0Q255 0 241 72Q208 0 150 0T61 36T30
132Q30 285 236 294V301ZM155 169Q155 130 182 119Q188 116 195 116Q215 116 236 139V249Q155 230 155 169ZM276 546T225 562T150 579T101 558Q72 574 72 608Q72 680 149 680Q173 680 224 664T300 647T348 670Q376 649 376 611Q376 546 302 546Q276 546 225 562Z"
/>
<glyph unicode="&#xe4;" glyph-name="adieresis" horiz-adv-x="421" d="M236 301Q236 372 157 372Q112 372 63 343Q47 359 47 382T60 431T96 478T154 515T228 530Q306 530 348 481T390 341V112L412 61Q408 54 401 44T370 17T320 0Q255 0 241 72Q208 0 150 0T61
36T30 132Q30 285 236 294V301ZM155 169Q155 130 182 119Q188 116 195 116Q215 116 236 139V249Q155 230 155 169ZM211 667T211 607T137 546T63 606T137 667ZM312 678Q386 678 386 618T312 557T238 617Q238 650 256 664T312 678Z" />
<glyph unicode="&#xe5;" glyph-name="aring" horiz-adv-x="421" d="M236 301Q236 372 157 372Q112 372 63 343Q47 359 47 382T60 431T96 478T154 515T228 530Q306 530 348 481T390 341V112L412 61Q408 54 401 44T370 17T320 0Q255 0 241 72Q208 0 150 0T61 36T30
132Q30 285 236 294V301ZM155 169Q155 130 182 119Q188 116 195 116Q215 116 236 139V249Q155 230 155 169ZM354 652Q354 546 223 546T92 652Q92 760 221 760Q286 760 320 736T354 652ZM260 619T260 650T222 681T184 650T222 619Z" />
<glyph unicode="&#xe6;" glyph-name="ae" horiz-adv-x="620" d="M230 301Q230 372 151 372Q106 372 57 343Q41 359 41 382T54 431T90 478T148 515T222 530Q303 530 346 476Q360 501 396 515T470 530Q527 530 562 489T598 377Q598 294 536 246Q487 206 417 185Q453
140 535 140Q557 140 583 143Q594 132 594 114T585 78T557 42T505 12T428 0Q324 0 273 76Q224 0 143 0Q85 0 55 36T24 132Q24 287 230 296V301ZM149 169Q149 146 162 132T201 118T246 136Q234 178 234 238V250Q149 231 149 169ZM459 328Q459 389 384 395V305Q384
259 393 233Q459 271 459 328Z" />
<glyph unicode="&#xe7;" glyph-name="ccedilla" horiz-adv-x="371" d="M348 139Q359 128 359 112T353 78T332 43Q300 4 231 0Q231 -11 255 -20T305 -45T330 -97T302 -156T205 -179Q147 -179 110 -163L99 -158Q101 -156 100 -148T98 -132T107 -111T133 -96T161
-98T184 -103T204 -107Q225 -109 225 -97Q225 -88 210 -84T178 -69T162 -34T173 4Q107 18 66 73T24 244T67 420T166 487Q211 530 261 530Q295 530 328 503T361 441T337 374T273 329Q229 376 175 399V305Q175 210 220 168Q254 136 312 136Q329 136 348 139Z" />
<glyph unicode="&#xe8;" glyph-name="egrave" horiz-adv-x="405" d="M374 143Q385 132 385 114T376 78T348 42T295 12T221 0T148 11T87 48Q24 104 24 231T67 419T165 487Q205 530 261 530T353 489T389 377Q389 294 328 246Q278 206 208 185Q243 139 324 139Q347
139 374 143ZM250 328Q250 389 175 395V305Q175 260 183 233Q250 270 250 328ZM133 591T108 611T83 652T92 692T111 717L120 724Q129 721 143 717T193 697T257 666T308 628T331 589Q331 562 315 538Q306 540 290 542T234 556T164 579Z" />
<glyph unicode="&#xe9;" glyph-name="eacute" horiz-adv-x="405" d="M374 143Q385 132 385 114T376 78T348 42T295 12T221 0T148 11T87 48Q24 104 24 231T67 419T165 487Q205 530 261 530T353 489T389 377Q389 294 328 246Q278 206 208 185Q243 139 324 139Q347
139 374 143ZM250 328Q250 389 175 395V305Q175 260 183 233Q250 270 250 328ZM114 528Q98 548 98 577T151 642T256 696L309 714Q313 711 319 706T335 683T346 643Q346 608 288 580T172 540L114 528Z" />
<glyph unicode="&#xea;" glyph-name="ecircumflex" horiz-adv-x="405" d="M374 143Q385 132 385 114T376 78T348 42T295 12T221 0T148 11T87 48Q24 104 24 231T67 419T165 487Q205 530 261 530T353 489T389 377Q389 294 328 246Q278 206 208 185Q243 139 324 139Q347
139 374 143ZM250 328Q250 389 175 395V305Q175 260 183 233Q250 270 250 328ZM75 594Q75 611 123 644T212 677Q234 677 268 661T326 627L349 610Q349 592 347 580T332 558T298 547T254 562T220 594L209 610L130 547Q75 547 75 594Z" />
<glyph unicode="&#xeb;" glyph-name="edieresis" horiz-adv-x="405" d="M374 143Q385 132 385 114T376 78T348 42T295 12T221 0T148 11T87 48Q24 104 24 231T67 419T165 487Q205 530 261 530T353 489T389 377Q389 294 328 246Q278 206 208 185Q243 139 324 139Q347
139 374 143ZM250 328Q250 389 175 395V305Q175 260 183 233Q250 270 250 328ZM201 656T201 596T127 535T53 595T127 656ZM302 667Q376 667 376 607T302 546T228 606Q228 639 246 653T302 667Z" />
<glyph unicode="&#xec;" glyph-name="igrave" horiz-adv-x="224" d="M114 0Q32 0 32 118Q32 418 39 513Q60 534 106 534Q185 534 185 409V112L207 61Q203 54 196 44T165 17T114 0ZM22 599T-3 619T-28 660T-19 700T0 725L9 732Q18 729 32 725T82 705T146 674T197
636T220 597Q220 570 204 546Q195 548 179 550T123 564T53 587Z" />
<glyph unicode="&#xed;" glyph-name="iacute" horiz-adv-x="224" d="M114 0Q32 0 32 118Q32 418 39 513Q60 534 106 534Q185 534 185 409V112L207 61Q203 54 196 44T165 17T114 0ZM16 546Q0 566 0 595T53 660T158 714L211 732Q215 729 221 724T237 701T248 661Q248
626 190 598T74 558L16 546Z" />
<glyph unicode="&#xee;" glyph-name="icircumflex" horiz-adv-x="224" d="M114 0Q32 0 32 118Q32 418 39 513Q60 534 106 534Q185 534 185 409V112L207 61Q203 54 196 44T165 17T114 0ZM-30 592Q-30 610 18 643T107 676Q129 676 163 659T220 626L244 609Q244 591
242 579T227 557T193 546T149 562T116 594L104 609L25 546Q-30 546 -30 592Z" />
<glyph unicode="&#xef;" glyph-name="idieresis" horiz-adv-x="224" d="M114 0Q32 0 32 118Q32 418 39 513Q60 534 106 534Q185 534 185 409V112L207 61Q203 54 196 44T165 17T114 0ZM96 667T96 607T22 546T-52 606T22 667ZM197 678Q271 678 271 618T197 557T123
617Q123 650 141 664T197 678Z" />
<glyph unicode="&#xf0;" glyph-name="eth" horiz-adv-x="456" d="M355 619Q358 621 361 621T370 616T376 599T337 562Q430 467 430 262Q430 153 392 78Q371 38 332 15T237 -8Q136 -8 80 47T23 211T75 376T216 437Q211 448 189 479L130 449Q122 449 116 455T109
470Q109 482 159 514L122 545Q119 553 121 568T131 594T157 612T206 620Q256 620 300 591L355 619ZM255 118T259 150T264 236T257 323Q223 321 203 288T183 193Q183 99 225 99Q239 99 247 108Z" />
<glyph unicode="&#xf1;" glyph-name="ntilde" horiz-adv-x="474" d="M185 118Q185 69 197 45Q191 29 164 15T103 0T51 20T32 76V330Q32 413 16 468L10 487Q14 492 21 500T54 521T106 534Q169 534 182 454Q193 485 223 507T306 530T395 491T431 382V112L453 61Q449
54 442 44T411 17T360 0Q278 0 278 118V311Q278 366 258 385T185 404V118ZM277 555T226 571T150 588T102 567Q73 583 73 616Q73 689 150 689Q174 689 225 673T300 656T349 679Q377 658 377 620Q377 555 303 555Q277 555 226 571Z" />
<glyph unicode="&#xf2;" glyph-name="ograve" horiz-adv-x="438" d="M417 290Q417 149 355 75T200 0Q135 0 83 46Q55 70 38 118T21 234Q21 335 59 388T141 453Q157 502 208 522Q231 530 259 530Q417 530 417 290ZM164 272Q164 120 218 120Q266 120 266 263Q266
333 244 361T181 390Q164 358 164 272ZM136 587T111 607T86 648T95 688T114 713L123 720Q132 717 146 713T196 693T260 662T311 624T334 585Q334 558 318 534Q309 536 293 538T237 552T167 575Z" />
<glyph unicode="&#xf3;" glyph-name="oacute" horiz-adv-x="438" d="M417 290Q417 149 355 75T200 0Q135 0 83 46Q55 70 38 118T21 234Q21 335 59 388T141 453Q157 502 208 522Q231 530 259 530Q417 530 417 290ZM164 272Q164 120 218 120Q266 120 266 263Q266
333 244 361T181 390Q164 358 164 272ZM107 518Q91 538 91 567T143 632T249 686L302 704Q306 701 312 696T328 673T339 633Q339 598 281 570T165 530L107 518Z" />
<glyph unicode="&#xf4;" glyph-name="ocircumflex" horiz-adv-x="438" d="M417 290Q417 149 355 75T200 0Q135 0 83 46Q55 70 38 118T21 234Q21 335 59 388T141 453Q157 502 208 522Q231 530 259 530Q417 530 417 290ZM164 272Q164 120 218 120Q266 120 266 263Q266
333 244 361T181 390Q164 358 164 272ZM78 584Q78 602 126 635T215 668Q237 668 271 651T328 618L352 601Q352 583 350 571T335 549T301 538T257 554T224 586L212 601L133 538Q78 538 78 584Z" />
<glyph unicode="&#xf5;" glyph-name="otilde" horiz-adv-x="438" d="M417 290Q417 149 355 75T200 0Q135 0 83 46Q55 70 38 118T21 234Q21 335 59 388T141 453Q157 502 208 522Q231 530 259 530Q417 530 417 290ZM164 272Q164 120 218 120Q266 120 266 263Q266
333 244 361T181 390Q164 358 164 272ZM273 546T222 562T147 579T98 558Q69 574 69 608Q69 680 146 680Q170 680 221 664T297 647T345 670Q373 649 373 611Q373 546 299 546Q273 546 222 562Z" />
<glyph unicode="&#xf6;" glyph-name="odieresis" horiz-adv-x="438" d="M417 290Q417 149 355 75T200 0Q135 0 83 46Q55 70 38 118T21 234Q21 335 59 388T141 453Q157 502 208 522Q231 530 259 530Q417 530 417 290ZM164 272Q164 120 218 120Q266 120 266 263Q266
333 244 361T181 390Q164 358 164 272ZM209 647T209 587T135 526T61 586T135 647ZM310 658Q384 658 384 598T310 537T236 597Q236 630 254 644T310 658Z" />
<glyph unicode="&#xf7;" glyph-name="divide" horiz-adv-x="449" d="M128 208Q70 208 47 223T23 279Q23 314 43 342Q95 329 284 329Q398 329 418 298Q426 285 426 268Q426 243 420 229Q342 208 128 208ZM319 77Q319 0 223 0T127 77Q127 156 223 156T319 77ZM127
536T223 536T319 459T223 381T127 458Z" />
<glyph unicode="&#xf8;" glyph-name="oslash" horiz-adv-x="438" d="M259 530L270 529Q286 574 299 589T326 604Q347 604 356 590L359 586L334 512Q417 464 417 290Q417 149 355 75T200 0Q183 0 165 3Q136 -67 112 -67Q100 -67 95 -63T89 -55V-51Q98 -21 112 23Q21
79 21 234Q21 335 59 388T141 453Q157 502 208 522Q231 530 259 530ZM217 96Q265 96 265 252Q265 276 262 295L198 102Q205 96 217 96ZM164 261Q164 232 166 196Q196 288 223 378Q205 390 181 390Q164 355 164 261Z" />
<glyph unicode="&#xf9;" glyph-name="ugrave" horiz-adv-x="450" d="M312 534T340 534T390 508T412 449V112L434 61Q430 54 423 44T392 17T341 0Q280 0 264 67Q252 39 227 20T167 0Q107 0 70 38T32 137V418L10 487Q24 505 54 519T114 534T164 508T185 449V206Q185
163 198 145T259 126V418L236 487Q250 505 281 519ZM128 594T103 614T78 655T87 695T106 720L115 727Q124 724 138 720T188 700T252 669T303 631T326 592Q326 563 310 541Q301 543 285 545T229 559T159 582Z" />
<glyph unicode="&#xfa;" glyph-name="uacute" horiz-adv-x="450" d="M312 534T340 534T390 508T412 449V112L434 61Q430 54 423 44T392 17T341 0Q280 0 264 67Q252 39 227 20T167 0Q107 0 70 38T32 137V418L10 487Q24 505 54 519T114 534T164 508T185 449V206Q185
163 198 145T259 126V418L236 487Q250 505 281 519ZM180 523Q164 543 164 572T217 637T322 690L375 709Q379 706 385 701T401 678T412 638Q412 603 354 575T238 534L180 523Z" />
<glyph unicode="&#xfb;" glyph-name="ucircumflex" horiz-adv-x="450" d="M312 534T340 534T390 508T412 449V112L434 61Q430 54 423 44T392 17T341 0Q280 0 264 67Q252 39 227 20T167 0Q107 0 70 38T32 137V418L10 487Q24 505 54 519T114 534T164 508T185 449V206Q185
163 198 145T259 126V418L236 487Q250 505 281 519ZM82 592Q82 610 130 643T219 676Q241 676 275 659T332 626L356 609Q356 591 354 579T339 557T305 546T261 562T228 594L216 609L137 546Q82 546 82 592Z" />
<glyph unicode="&#xfc;" glyph-name="udieresis" horiz-adv-x="450" d="M312 534T340 534T390 508T412 449V112L434 61Q430 54 423 44T392 17T341 0Q280 0 264 67Q252 39 227 20T167 0Q107 0 70 38T32 137V418L10 487Q24 505 54 519T114 534T164 508T185 449V206Q185
163 198 145T259 126V418L236 487Q250 505 281 519ZM211 677T211 617T137 556T63 616T137 677ZM312 688Q386 688 386 628T312 567T238 627Q238 660 256 674T312 688Z" />
<glyph unicode="&#xfd;" glyph-name="yacute" horiz-adv-x="444" d="M25 -77Q20 -52 20 -34T25 -1T48 28T94 41T157 23T212 5Q259 5 259 64V111Q233 64 167 64T67 100T32 189V418L10 487Q24 505 54 519T114 534T164 508T185 449V223Q185 188 202 177T259 165V418L236
487Q250 505 281 519T340 534T390 508T412 449V99Q412 -6 362 -60T211 -115Q155 -115 106 -96T25 -77ZM178 519Q162 539 162 568T215 633T320 686L373 705Q377 702 383 697T399 674T410 634Q410 599 352 571T236 530L178 519Z" />
<glyph unicode="&#xfe;" glyph-name="thorn" d="M185 -100Q153 -122 110 -122T50 -105T32 -50V513L10 582Q14 587 21 595T54 616T106 630Q185 630 185 505V485Q235 530 297 530T395 490T431 382V252Q431 160 359 80T199 0H185V-100ZM185 128Q200 116 224 116T263
131T278 173V318Q278 371 252 390Q236 400 219 400T185 395V128Z" />
<glyph unicode="&#xff;" glyph-name="ydieresis" horiz-adv-x="444" d="M25 -77Q20 -52 20 -34T25 -1T48 28T94 41T157 23T212 5Q259 5 259 64V111Q233 64 167 64T67 100T32 189V418L10 487Q24 505 54 519T114 534T164 508T185 449V223Q185 188 202 177T259 165V418L236
487Q250 505 281 519T340 534T390 508T412 449V99Q412 -6 362 -60T211 -115Q155 -115 106 -96T25 -77ZM207 678T207 618T133 557T59 617T133 678ZM308 689Q382 689 382 629T308 568T234 628Q234 661 252 675T308 689Z" />
<glyph unicode="&#x2013;" glyph-name="endash" horiz-adv-x="423" d="M78 204Q52 204 38 221T23 271T43 332H344Q400 332 400 266Q400 233 387 220Q159 204 120 204T78 204Z" />
<glyph unicode="&#x2014;" glyph-name="emdash" horiz-adv-x="527" d="M78 204Q52 204 38 221T23 271T43 332H448Q503 332 503 266Q503 234 491 220Q159 204 120 204T78 204Z" />
<glyph unicode="&#x2018;" glyph-name="quoteleft" horiz-adv-x="222" d="M162 630T173 619T185 584T167 545T116 529Q35 529 35 604Q35 658 64 698T144 739Q164 739 174 731T184 713L185 704Q147 671 140 628Q142 626 152 628Z" />
<glyph unicode="&#x2019;" glyph-name="quoteright" horiz-adv-x="222" d="M60 638T48 649T36 684T54 723T106 739Q187 739 187 664Q187 610 157 570T76 529Q57 529 47 537T36 555V564Q74 597 82 640Q80 642 70 640Z" />
<glyph unicode="&#x201a;" glyph-name="quotesinglbase" horiz-adv-x="270" d="M96 28Q94 30 87 29T72 27T51 40T36 85T60 138T129 159Q235 159 235 58Q235 -13 196 -66T91 -120Q66 -120 52 -108T37 -84L36 -73Q55 -57 73 -28T96 28Z" />
<glyph unicode="&#x201c;" glyph-name="quotedblleft" horiz-adv-x="381" d="M162 630T173 619T185 584T167 545T116 529Q35 529 35 604Q35 658 64 698T144 739Q164 739 174 731T184 713L185 704Q147 671 140 628Q142 626 152 628ZM321 630T332 619T344 584T327
545T275 529Q194 529 194 604Q194 658 223 698T304 739Q323 739 333 731T344 713V704Q306 671 299 628Q301 626 311 628Z" />
<glyph unicode="&#x201d;" glyph-name="quotedblright" horiz-adv-x="381" d="M219 638T207 649T195 684T213 723T265 739Q346 739 346 664Q346 610 317 570T236 529Q217 529 207 537T196 555L195 564Q233 597 241 640Q239 642 229 640ZM60 638T48 649T36 684T54
723T106 739Q187 739 187 664Q187 610 157 570T76 529Q57 529 47 537T36 555V564Q74 597 82 640Q80 642 70 640Z" />
<glyph unicode="&#x201e;" glyph-name="quotedblbase" horiz-adv-x="497" d="M96 28Q94 30 87 29T72 27T51 40T36 85T60 138T129 159Q235 159 235 58Q235 -13 196 -66T91 -120Q66 -120 52 -108T37 -84L36 -73Q55 -57 73 -28T96 28ZM323 28Q321 30 314 29T299 27T278
40T263 85T287 138T356 159Q462 159 462 58Q462 -13 423 -66T318 -120Q293 -120 279 -108T264 -84L263 -73Q282 -57 300 -28T323 28Z" />
<glyph unicode="&#x2022;" glyph-name="bullet" horiz-adv-x="333" d="M104 132T69 170T33 268T69 366T166 406T264 367T300 268T264 171T166 132Z" />
<glyph unicode="&#x2039;" glyph-name="guilsinglleft" horiz-adv-x="409" d="M385 142Q385 136 381 120T370 91T347 68T307 57Q257 57 189 93T72 175T23 248T80 324Q177 403 300 466Q325 458 344 442Q381 412 381 381T329 316T224 267L171 251L385 153V142Z" />
<glyph unicode="&#x203a;" glyph-name="guilsinglright" horiz-adv-x="409" d="M24 382Q24 388 28 404T39 432T62 455T102 466Q152 466 220 430T337 348T386 275T328 200Q232 120 109 57Q79 67 54 92T29 141Q29 175 81 207T186 256L238 272L24 371V382Z" />
</font>
</defs>
</svg>
