<?xml version="1.0" standalone="no"?>
<!DOCTYPE svg PUBLIC "-//W3C//DTD SVG 1.1//EN" "http://www.w3.org/Graphics/SVG/1.1/DTD/svg11.dtd">
<svg xmlns="http://www.w3.org/2000/svg">
<defs >
<font id="Prompt" horiz-adv-x="608" ><font-face
    font-family="Prompt ExtraBold"
    units-per-em="1000"
    panose-1="0 0 9 0 0 0 0 0 0 0"
    ascent="1090"
    descent="-422"
    alphabetic="0" />
<glyph unicode=" " glyph-name="space" horiz-adv-x="320" />
<glyph unicode="!" glyph-name="exclam" horiz-adv-x="249" d="M25 699H225V241H25V699ZM80 -15T50 14T20 88Q20 132 50 161T125 191Q168 191 198 162T229 88Q229 45 199 15T125 -15Q80 -15 50 14Z" />
<glyph unicode="&quot;" glyph-name="quotedbl" horiz-adv-x="371" d="M20 699H165V488H20V699ZM206 699H351V488H206V699Z" />
<glyph unicode="#" glyph-name="numbersign" horiz-adv-x="783" d="M94 127H20V282H137L166 384H63V538H209L255 699H437L391 538H509L555 699H738L692 538H763V384H649L620 282H719V127H577L541 0H358L394 127H276L240 0H58L94 127ZM437 282L466 384H348L319 282H437Z" />
<glyph unicode="$" glyph-name="dollar" horiz-adv-x="574" d="M211 -13Q155 -8 104 4T20 34V217Q75 187 135 172T249 157Q288 157 305 167T323 198Q323 215 313 227T280 250T207 283Q110 325 67 376T23 501Q23 577 73 631T211 705V802H355V712Q438 705 513 670V493Q423
541 335 541Q296 541 273 530T250 496Q250 474 271 461T353 423L372 416Q443 386 481 357T537 291T554 196Q554 114 505 61T355 -8V-103H211V-13Z" />
<glyph unicode="%" glyph-name="percent" horiz-adv-x="898" d="M153 347T111 371T45 438T20 530Q20 580 44 622T111 689T203 714Q253 714 295 690T362 623T387 530Q387 480 363 438T296 372T203 347Q153 347 111 371ZM541 699H745L358 0H154L541 699ZM230 464T248
482T266 527Q266 554 248 572T203 591Q176 591 158 573T140 527Q140 500 158 482T203 464Q230 464 248 482ZM644 -15T602 9T536 76T511 168Q511 218 535 260T602 327T694 352Q744 352 786 328T853 261T878 168Q878 118 854 76T787 10T694 -15Q644 -15 602 9ZM721
102T739 120T757 165Q757 192 739 210T694 229Q667 229 649 211T631 165Q631 138 649 120T694 102Q721 102 739 120Z" />
<glyph unicode="&amp;" glyph-name="ampersand" horiz-adv-x="805" d="M163 -15T92 38T20 185Q20 250 48 295T140 381Q106 416 89 452T72 534Q72 586 99 627T177 691T299 714Q366 714 416 691T492 626T519 534Q519 477 495 439T417 362L520 264Q534 295 534 369H705Q705
289 694 239T655 136L795 0H549L504 41Q468 12 414 -1T282 -15Q163 -15 92 38ZM324 470T335 485T347 520Q347 545 334 557T299 570Q277 570 265 558T252 520Q252 503 262 488T296 451Q324 470 335 485ZM354 121T386 152L274 261Q244 248 231 230T217 186Q217 155
239 138T294 121Q354 121 386 152Z" />
<glyph unicode="&apos;" glyph-name="quotesingle" horiz-adv-x="185" d="M20 699H165V488H20V699Z" />
<glyph unicode="(" glyph-name="parenleft" horiz-adv-x="383" d="M20 10T20 270Q20 530 170 714H383Q231 519 231 270Q231 21 383 -174H170Q20 10 20 270Z" />
<glyph unicode=")" glyph-name="parenright" horiz-adv-x="383" d="M152 21T152 270Q152 519 0 714H213Q363 530 363 270Q363 10 213 -174H0Q152 21 152 270Z" />
<glyph unicode="*" glyph-name="asterisk" horiz-adv-x="444" d="M58 411L128 505L20 543L65 646L155 614V699H289V614L379 647L424 543L317 506L387 412L284 344L223 429L162 343L58 411Z" />
<glyph unicode="+" glyph-name="plus" horiz-adv-x="408" d="M124 227H20V382H124V476H283V382H388V227H283V133H124V227Z" />
<glyph unicode="," glyph-name="comma" horiz-adv-x="330" d="M103 65H310L202 -150H20L103 65Z" />
<glyph unicode="-" glyph-name="hyphen" horiz-adv-x="408" d="M20 384H388V225H20V384Z" />
<glyph unicode="." glyph-name="period" horiz-adv-x="179" d="M60 0T40 19T20 68Q20 98 40 118T89 139Q118 139 138 119T159 68Q159 40 139 20T89 0Q60 0 40 19Z" />
<glyph unicode="/" glyph-name="slash" horiz-adv-x="530" d="M305 714H510L225 0H20L305 714Z" />
<glyph unicode="0" glyph-name="zero" horiz-adv-x="703" d="M251 -15T177 28T61 154T20 349Q20 462 60 544T175 670T351 714Q452 714 527 671T642 545T683 349Q683 236 642 154T526 29T351 -15Q251 -15 177 28ZM410 178T441 222T472 347Q472 427 442 472T352
518Q292 518 262 473T231 347Q231 267 262 223T351 178Q410 178 441 222Z" />
<glyph unicode="1" glyph-name="one" horiz-adv-x="406" d="M159 477L20 377V571L194 699H366V0H159V477Z" />
<glyph unicode="2" glyph-name="two" horiz-adv-x="585" d="M20 110L117 198Q157 234 177 250Q233 299 262 326T310 383T329 440Q329 475 306 496T231 518Q183 518 134 500T42 450V646Q88 678 151 696T285 714Q365 714 423 685T513 606T544 492Q544 410 511 353T404
229L329 162H565V0H20V110Z" />
<glyph unicode="3" glyph-name="three" horiz-adv-x="582" d="M187 -15T125 -4T20 31V189Q121 142 225 142Q351 142 351 210Q351 245 322 260T226 275H124V429H221Q331 429 331 494Q331 525 305 541T232 557Q121 557 32 501V663Q78 687 138 700T261 714Q404 714
473 658T543 502Q543 460 525 421T470 352Q519 326 540 288T562 200Q562 -15 255 -15Q187 -15 125 -4Z" />
<glyph unicode="4" glyph-name="four" horiz-adv-x="622" d="M314 136H0V260L328 699H525V295H622V136H525V0H314V136ZM345 295V453L228 295H345Z" />
<glyph unicode="5" glyph-name="five" horiz-adv-x="585" d="M181 -15T120 -2T20 36V212Q66 181 124 164T233 147Q296 147 324 169T353 230Q353 269 323 289T238 310Q205 310 167 304T100 286L25 329L53 699H520V537H249L242 451Q282 461 331 461Q443 461 504
404T565 236Q565 117 484 51T243 -15Q181 -15 120 -2Z" />
<glyph unicode="6" glyph-name="six" horiz-adv-x="637" d="M232 -15T164 25T58 139T20 312Q20 437 67 528T196 666T382 714Q459 714 519 694V523Q472 550 398 550Q335 550 291 518T236 425Q261 446 303 458T390 471Q493 471 555 410T617 238Q617 166 584 109T484
19T321 -15Q232 -15 164 25ZM360 141T384 165T408 228Q408 266 384 290T322 315Q286 315 262 291T238 228Q238 191 261 166T322 141Q360 141 384 165Z" />
<glyph unicode="7" glyph-name="seven" horiz-adv-x="533" d="M303 537H10V699H523V569L263 0H58L303 537Z" />
<glyph unicode="8" glyph-name="eight" horiz-adv-x="633" d="M181 -15T101 42T20 203Q20 259 44 299T111 361Q77 389 60 426T42 507Q42 605 116 659T317 714Q444 714 517 660T591 507Q591 463 574 426T522 361Q564 340 588 300T613 203Q613 99 533 42T317 -15Q181
-15 101 42ZM349 411T370 431T392 483Q392 515 371 536T317 557Q285 557 264 536T242 483Q242 452 263 432T317 411Q349 411 370 431ZM355 141T379 164T403 224Q403 260 379 283T317 307Q280 307 255 284T230 224Q230 187 254 164T317 141Q355 141 379 164Z" />
<glyph unicode="9" glyph-name="nine" horiz-adv-x="637" d="M176 -15T117 4V175Q167 148 238 148Q302 148 347 179T402 272Q378 252 339 240T256 228Q187 228 134 256T50 337T20 465Q20 536 53 592T153 681T315 714Q461 714 539 627T617 386Q617 258 570 168T440
31T254 -15Q176 -15 117 4ZM353 383T377 407T401 470Q401 507 377 532T316 557Q278 557 254 533T230 470Q230 432 254 408T316 383Q353 383 377 407Z" />
<glyph unicode=":" glyph-name="colon" horiz-adv-x="232" d="M76 312T48 340T20 408Q20 448 48 476T116 504Q155 504 183 476T212 408Q212 369 184 341T116 312Q76 312 48 340ZM76 5T48 33T20 101Q20 141 48 169T116 197Q155 197 183 169T212 101Q212 62 184
34T116 5Q76 5 48 33Z" />
<glyph unicode=";" glyph-name="semicolon" horiz-adv-x="330" d="M157 312T129 340T101 408Q101 448 129 476T197 504Q236 504 264 476T293 408Q293 369 265 341T197 312Q157 312 129 340ZM103 65H310L202 -150H20L103 65Z" />
<glyph unicode="&lt;" glyph-name="less" horiz-adv-x="528" d="M20 256V396L508 635V426L284 326L508 225V16L20 256Z" />
<glyph unicode="=" glyph-name="equal" horiz-adv-x="507" d="M20 523H487V367H20V523ZM20 295H487V139H20V295Z" />
<glyph unicode="&gt;" glyph-name="greater" horiz-adv-x="528" d="M20 225L243 326L20 426V635L508 396V256L20 16V225Z" />
<glyph unicode="?" glyph-name="question" horiz-adv-x="529" d="M124 260Q124 308 142 347T197 412L226 431Q259 452 272 465T285 497Q285 542 201 542Q108 542 20 494V670Q111 714 234 714Q361 714 435 662T509 518Q509 468 487 436T413 368Q361 332 343 312T324
258V241H124V260ZM179 -15T149 14T119 88Q119 132 149 161T223 191Q267 191 297 162T328 88Q328 45 298 15T223 -15Q179 -15 149 14Z" />
<glyph unicode="@" glyph-name="at" horiz-adv-x="902" d="M318 -76T222 -34T73 91T20 288Q20 412 78 508T240 659T476 714Q602 714 693 673T833 553T882 364Q882 245 827 175T675 105Q641 105 612 119T569 156Q545 132 507 119T427 105Q340 105 285 150T229 286Q229
356 259 411T345 498T475 530Q521 530 571 519T654 487L641 252Q640 229 647 218T670 206Q698 206 712 249T727 364Q727 476 665 528T475 580Q390 580 322 546T214 445T174 288Q174 173 245 114T447 54Q545 54 618 78V-49Q543 -76 447 -76Q318 -76 222 -34ZM496
226T498 283L505 400Q493 405 471 405Q436 405 414 375T391 296Q391 261 403 244T440 226Q496 226 498 283Z" />
<glyph unicode="A" glyph-name="A" horiz-adv-x="798" d="M300 699H499L778 0H566L514 133H285L232 0H20L300 699ZM466 290L399 486L332 290H466Z" />
<glyph unicode="B" glyph-name="B" horiz-adv-x="672" d="M40 699H405Q507 699 568 649T630 504Q630 462 612 425T558 365Q607 343 629 307T652 213Q652 148 621 100T538 26T421 0H40V699ZM351 428Q385 428 402 443T420 491Q420 525 403 538T350 552H247V428H351ZM363
147Q404 147 423 162T442 214Q442 250 423 267T361 284H247V147H363Z" />
<glyph unicode="C" glyph-name="C" horiz-adv-x="676" d="M288 -15T201 29T67 155T20 349Q20 461 67 543T201 670T404 714Q479 714 538 700T648 655V464Q604 498 549 513T422 528Q328 528 280 483T231 349Q231 260 281 215T422 169Q493 169 549 185T656 236V46Q559
-15 404 -15Q288 -15 201 29Z" />
<glyph unicode="D" glyph-name="D" horiz-adv-x="703" d="M40 699H299Q415 699 501 657T635 537T683 353Q683 179 580 90T297 0H40V699ZM312 174Q389 174 430 222T472 353Q472 427 430 476T315 525H247V174H312Z" />
<glyph unicode="E" glyph-name="E" horiz-adv-x="557" d="M40 699H547V525H247V429H463V270H247V174H547V0H40V699Z" />
<glyph unicode="F" glyph-name="F" horiz-adv-x="547" d="M40 699H547V525H247V429H463V270H247V0H40V699Z" />
<glyph unicode="G" glyph-name="G" horiz-adv-x="691" d="M288 -15T201 29T67 155T20 349Q20 461 67 543T201 670T404 714Q560 714 648 656V465Q604 498 549 513T422 528Q328 528 280 481T231 349Q231 260 277 215T412 169Q455 169 482 181V270H386V401H671V51Q565
-15 404 -15Q288 -15 201 29Z" />
<glyph unicode="H" glyph-name="H" horiz-adv-x="727" d="M40 699H247V442H480V699H687V0H480V268H247V0H40V699Z" />
<glyph unicode="I" glyph-name="I" horiz-adv-x="287" d="M40 699H247V0H40V699Z" />
<glyph unicode="J" glyph-name="J" horiz-adv-x="398" d="M95 -15T57 -8T0 10V188Q34 172 82 172Q123 172 139 189T156 246V699H363V222Q363 114 304 50T129 -15Q95 -15 57 -8Z" />
<glyph unicode="K" glyph-name="K" horiz-adv-x="745" d="M40 699H247V428L462 699H706L437 360L725 0H481L247 292V0H40V699Z" />
<glyph unicode="L" glyph-name="L" horiz-adv-x="529" d="M40 699H247V174H529V0H40V699Z" />
<glyph unicode="M" glyph-name="M" horiz-adv-x="838" d="M40 699H229L419 288L609 699H798V0H605V310L462 0H376L233 310V0H40V699Z" />
<glyph unicode="N" glyph-name="N" horiz-adv-x="706" d="M40 699H241L459 333V699H666V0H466L247 366V0H40V699Z" />
<glyph unicode="O" glyph-name="O" horiz-adv-x="794" d="M292 -15T206 31T70 159T20 349Q20 456 69 539T205 668T398 714Q504 714 589 668T724 539T774 349Q774 242 725 160T590 31T398 -15Q292 -15 206 31ZM444 179T481 199T541 258T563 349Q563 426 516 472T398
518Q326 518 279 472T231 349Q231 297 253 259T313 200T398 179Q444 179 481 199Z" />
<glyph unicode="P" glyph-name="P" horiz-adv-x="647" d="M40 699H362Q488 699 562 635T637 450Q637 330 563 265T362 200H247V0H40V699ZM323 364Q371 364 398 383T425 450Q425 497 398 516T323 535H247V364H323Z" />
<glyph unicode="Q" glyph-name="Q" horiz-adv-x="799" d="M302 0T211 42T70 163T20 349Q20 456 69 539T205 668T398 714Q504 714 589 668T724 539T774 349Q774 295 749 242T687 155H794V0H423Q302 0 211 42ZM444 179T481 199T541 258T563 349Q563 426 516 472T398
518Q326 518 279 472T231 349Q231 297 253 259T313 200T398 179Q444 179 481 199Z" />
<glyph unicode="R" glyph-name="R" horiz-adv-x="657" d="M40 699H365Q491 699 564 636T637 452Q637 374 605 319T512 235L629 0H417L315 205H247V0H40V699ZM324 369Q372 369 398 387T425 452Q425 498 399 516T324 535H247V369H324Z" />
<glyph unicode="S" glyph-name="S" horiz-adv-x="574" d="M198 -15T130 -2T20 34V217Q75 187 135 172T249 157Q326 157 326 198Q326 215 315 227T280 251T207 285Q110 327 67 377T23 501Q23 563 57 611T154 687T297 714Q363 714 414 704T513 670V493Q426 541 335
541Q295 541 271 530T247 496Q247 474 268 461T350 423L372 414Q443 385 481 357T537 291T554 196Q554 97 482 41T265 -15Q198 -15 130 -2Z" />
<glyph unicode="T" glyph-name="T" horiz-adv-x="593" d="M193 525H5V699H588V525H400V0H193V525Z" />
<glyph unicode="U" glyph-name="U" horiz-adv-x="724" d="M252 -15T179 26T71 139T35 304V699H242V306Q242 242 272 209T362 176Q421 176 451 209T482 306V699H689V304Q689 211 654 139T545 26T362 -15Q252 -15 179 26Z" />
<glyph unicode="V" glyph-name="V" horiz-adv-x="798" d="M20 699H241L399 278L558 699H778L499 0H300L20 699Z" />
<glyph unicode="W" glyph-name="W" horiz-adv-x="990" d="M20 699H234L331 333L424 699H574L659 332L755 699H970L784 0H590L495 371L400 0H206L20 699Z" />
<glyph unicode="X" glyph-name="X" horiz-adv-x="782" d="M273 351L23 699H260L391 516L523 699H760L510 351L762 0H525L391 186L257 0H20L273 351Z" />
<glyph unicode="Y" glyph-name="Y" horiz-adv-x="766" d="M275 266L20 699H241L379 458L526 699H746L482 266V0H275V266Z" />
<glyph unicode="Z" glyph-name="Z" horiz-adv-x="611" d="M20 136L312 525H27V699H568V562L277 174H591V0H20V136Z" />
<glyph unicode="[" glyph-name="bracketleft" horiz-adv-x="350" d="M20 787H340V613H227V78H340V-96H20V787Z" />
<glyph unicode="\" glyph-name="backslash" horiz-adv-x="530" d="M20 714H225L510 0H305L20 714Z" />
<glyph unicode="]" glyph-name="bracketright" horiz-adv-x="350" d="M10 78H123V613H10V787H330V-96H10V78Z" />
<glyph unicode="^" glyph-name="asciicircum" horiz-adv-x="600" d="M220 719H380L580 377H389L300 537L211 377H20L220 719Z" />
<glyph unicode="_" glyph-name="underscore" horiz-adv-x="479" d="M20 0H459V-162H20V0Z" />
<glyph unicode="`" glyph-name="grave" horiz-adv-x="309" d="M20 746H221L289 566H113L20 746Z" />
<glyph unicode="a" glyph-name="a" horiz-adv-x="606" d="M131 -15T76 27T20 149Q20 230 74 272T231 315Q268 315 306 307T370 287V296Q370 329 338 346T247 363Q160 363 87 328V460Q120 476 173 485T286 495Q425 495 498 442T571 292V0H382V38Q358 14 316 0T223
-15Q131 -15 76 27ZM312 101T335 111T370 137V174Q333 198 286 198Q258 198 243 185T227 149Q227 127 242 114T285 101Q312 101 335 111Z" />
<glyph unicode="b" glyph-name="b" horiz-adv-x="669" d="M346 -15T305 0T233 44V0H40V739H240V445Q267 468 308 481T394 495Q470 495 528 463T617 373T649 239Q649 163 618 106T528 17T394 -15Q346 -15 305 0ZM387 140T414 166T442 239Q442 286 415 312T340 339Q306
339 280 323T240 279V200Q253 172 279 156T340 140Q387 140 414 166Z" />
<glyph unicode="c" glyph-name="c" horiz-adv-x="539" d="M175 -15T98 50T20 239Q20 363 97 429T309 495Q369 495 424 484T513 451V296Q483 318 442 329T355 341Q297 341 262 316T227 239Q227 188 261 163T354 138Q399 138 441 150T519 185V31Q483 9 428 -3T308
-15Q175 -15 98 50Z" />
<glyph unicode="d" glyph-name="d" horiz-adv-x="669" d="M199 -15T141 16T52 105T20 239Q20 314 51 372T141 463T275 495Q321 495 361 482T429 445V739H629V0H436V44Q406 15 365 0T275 -15Q199 -15 141 16ZM363 140T389 156T429 200V279Q416 307 390 323T329
339Q282 339 255 313T227 239Q227 192 254 166T329 140Q363 140 389 156Z" />
<glyph unicode="e" glyph-name="e" horiz-adv-x="600" d="M182 -15T101 51T20 238Q20 357 93 426T303 495Q391 495 453 463T548 373T580 245V180H210Q234 116 355 116Q403 116 453 123T539 145V20Q501 4 444 -5T327 -15Q182 -15 101 51ZM391 296Q386 328 363 345T300
363Q260 363 238 345T210 296H391Z" />
<glyph unicode="f" glyph-name="f" horiz-adv-x="384" d="M72 358H5V480H72V540Q72 637 133 690T293 744Q348 744 389 726V586Q361 600 326 600Q286 600 267 582T248 525V480H359V358H248V0H72V358Z" />
<glyph unicode="g" glyph-name="g" horiz-adv-x="669" d="M257 -230T208 -221T122 -197V-64Q201 -98 304 -98Q369 -98 399 -72T429 6V34Q402 12 362 -1T276 -15Q200 -15 142 17T52 107T20 240Q20 316 51 374T141 463T275 495Q322 495 364 480T436 436V480H629V35Q629
-91 550 -160T304 -230Q257 -230 208 -221ZM363 140T389 156T429 201V279Q416 307 390 323T329 339Q282 339 255 313T227 241Q227 193 254 167T329 140Q363 140 389 156Z" />
<glyph unicode="h" glyph-name="h" horiz-adv-x="629" d="M40 739H240V437Q306 495 394 495Q497 495 545 443T594 298V0H393V270Q393 304 379 321T332 339Q272 339 240 285V0H40V739Z" />
<glyph unicode="i" glyph-name="i" horiz-adv-x="290" d="M100 534T70 563T40 637Q40 681 70 710T145 740Q189 740 219 710T250 637Q250 593 220 564T145 534Q100 534 70 563ZM45 480H245V0H45V480Z" />
<glyph unicode="j" glyph-name="j" horiz-adv-x="288" d="M98 534T68 563T38 637Q38 680 68 710T143 740Q187 740 217 710T248 637Q248 593 218 564T143 534Q98 534 68 563ZM-55 -231T-95 -212V-53Q-65 -68 -24 -68Q7 -68 25 -52T43 -1V480H244V-26Q244 -127 179
-179T7 -231Q-55 -231 -95 -212Z" />
<glyph unicode="k" glyph-name="k" horiz-adv-x="658" d="M40 739H240V296L382 480H611L432 249L638 0H409L240 204V0H40V739Z" />
<glyph unicode="l" glyph-name="l" horiz-adv-x="280" d="M40 739H240V0H40V739Z" />
<glyph unicode="m" glyph-name="m" horiz-adv-x="879" d="M40 480H225V434Q253 463 290 479T372 495Q425 495 456 481T510 436Q540 464 581 479T666 495Q763 495 803 446T844 302V0H653V273Q653 308 641 323T598 339Q564 339 543 318V0H352V282Q352 312 341 325T303
339Q260 339 232 292V0H40V480Z" />
<glyph unicode="n" glyph-name="n" horiz-adv-x="629" d="M40 480H233V433Q264 463 306 479T394 495Q497 495 545 443T594 298V0H393V270Q393 304 379 321T332 339Q272 339 240 285V0H40V480Z" />
<glyph unicode="o" glyph-name="o" horiz-adv-x="647" d="M231 -15T163 17T57 108T20 240Q20 313 57 371T162 462T323 495Q415 495 484 462T590 371T627 240Q627 166 590 108T484 18T323 -15Q231 -15 163 17ZM368 140T395 167T422 240Q422 286 395 312T323 339Q278
339 252 313T225 240Q225 194 251 167T323 140Q368 140 395 167Z" />
<glyph unicode="p" glyph-name="p" horiz-adv-x="669" d="M40 480H233V436Q263 464 305 479T394 495Q470 495 528 464T617 374T649 240Q649 165 618 107T528 17T394 -15Q349 -15 308 -2T240 34V-219H40V480ZM387 140T414 166T442 241Q442 288 415 314T340 340Q306
340 280 324T240 279V201Q253 173 279 157T340 140Q387 140 414 166Z" />
<glyph unicode="q" glyph-name="q" horiz-adv-x="669" d="M429 34Q402 12 361 -1T275 -15Q199 -15 141 17T52 107T20 240Q20 316 51 374T141 463T275 495Q322 495 364 480T436 436V480H629V-219H429V34ZM363 140T389 156T429 201V279Q416 307 390 323T329 340Q282
340 255 314T227 241Q227 193 254 167T329 140Q363 140 389 156Z" />
<glyph unicode="r" glyph-name="r" horiz-adv-x="419" d="M40 480H233V428Q261 457 310 474T419 491V336Q356 336 307 319T240 269V0H40V480Z" />
<glyph unicode="s" glyph-name="s" horiz-adv-x="518" d="M196 -15T131 -4T27 28V169Q68 145 127 129T235 112Q264 112 277 115T290 130Q290 140 278 145T231 159L185 172Q124 190 89 210T37 260T20 335Q20 416 84 455T259 495Q312 495 373 484T465 453V314Q434
334 382 348T287 363Q228 363 228 343Q228 334 242 328T293 314L335 304Q400 287 435 265T484 214T498 140Q498 69 436 27T256 -15Q196 -15 131 -4Z" />
<glyph unicode="t" glyph-name="t" horiz-adv-x="395" d="M162 -15T114 37T66 178V345H0V480H66V624H267V480H374V345H267V207Q267 171 280 156T326 140Q362 140 395 159V11Q366 -2 335 -8T255 -15Q162 -15 114 37Z" />
<glyph unicode="u" glyph-name="u" horiz-adv-x="629" d="M135 -15T85 41T35 189V480H235V213Q235 140 299 140Q328 140 351 154T388 194V480H589V0H395V46Q365 16 323 1T235 -15Q135 -15 85 41Z" />
<glyph unicode="v" glyph-name="v" horiz-adv-x="636" d="M20 480H220L318 228L416 480H616L414 0H222L20 480Z" />
<glyph unicode="w" glyph-name="w" horiz-adv-x="867" d="M20 480H220L287 230L354 480H513L580 230L647 480H847L685 0H505L433 242L362 0H182L20 480Z" />
<glyph unicode="x" glyph-name="x" horiz-adv-x="680" d="M226 248L32 480H259L339 383L420 480H647L453 248L660 0H435L340 113L245 0H20L226 248Z" />
<glyph unicode="y" glyph-name="y" horiz-adv-x="642" d="M169 -198T131 -193T75 -179V-31Q106 -43 143 -43Q175 -43 192 -30T219 11L228 34L20 480H220L334 187L441 480H642L450 -11Q412 -107 354 -152T204 -198Q169 -198 131 -193Z" />
<glyph unicode="z" glyph-name="z" horiz-adv-x="531" d="M20 104L234 345H25V480H503V376L291 135H511V0H20V104Z" />
<glyph unicode="{" glyph-name="braceleft" horiz-adv-x="369" d="M139 -97T110 -67T80 24V203Q80 228 67 242T31 257H0V433H31Q55 433 67 447T80 486V665Q80 726 109 756T191 787H359V613H320Q302 613 295 605T287 579V452Q287 411 269 384T216 346V344Q287 319
287 238V111Q287 93 294 85T320 77H359V-97H191Q139 -97 110 -67Z" />
<glyph unicode="|" glyph-name="bar" horiz-adv-x="247" d="M20 812H227V-144H20V812Z" />
<glyph unicode="}" glyph-name="braceright" horiz-adv-x="369" d="M10 77H48Q67 77 74 85T82 111V238Q82 278 100 305T152 344V346Q118 357 100 384T82 452V579Q82 597 74 605T48 613H10V787H178Q229 787 259 757T289 665V486Q289 462 301 448T337 433H369V257H337Q314
257 302 243T289 203V24Q289 -36 259 -66T178 -97H10V77Z" />
<glyph unicode="~" glyph-name="asciitilde" horiz-adv-x="503" d="M343 226T317 233T245 255Q206 268 181 274T134 281Q66 281 20 228V401Q58 445 134 445Q159 445 186 438T255 417Q292 404 319 397T369 390Q438 390 483 444V271Q446 226 369 226Q343 226 317 233Z" />
<glyph unicode="&#xa0;" glyph-name="uni00A0" horiz-adv-x="320" />
<glyph unicode="&#xa1;" glyph-name="exclamdown" horiz-adv-x="249" d="M80 344T50 373T20 447Q20 490 50 520T125 550Q168 550 198 520T229 447Q229 403 199 374T125 344Q80 344 50 373ZM25 294H225V-164H25V294Z" />
<glyph unicode="&#xa2;" glyph-name="cent" horiz-adv-x="539" d="M244 -10Q138 5 79 68T20 239Q20 346 79 410T244 490V581H386V490Q465 479 513 451V296Q482 319 441 330T355 342Q297 342 262 316T227 239Q227 187 262 162T354 137Q398 137 441 149T519 185V31Q469
1 386 -10V-101H244V-10Z" />
<glyph unicode="&#xa3;" glyph-name="sterling" horiz-adv-x="483" d="M25 149H94V298H28V437H94V505Q94 571 124 618T208 690T326 714Q382 714 423 696V556Q393 570 359 570Q318 570 295 550T271 490V437H407V298H271V149H458V0H25V149Z" />
<glyph unicode="&#xa4;" glyph-name="currency" horiz-adv-x="610" d="M20 126L104 188Q81 231 81 280Q81 327 104 373L21 435L102 535L193 463Q242 492 305 492Q369 492 418 463L508 534L589 435L506 373Q529 330 529 280Q529 228 506 188L590 125L508 24L417
95Q367 67 305 67Q244 67 194 95L102 24L20 126ZM337 203T360 225T383 280Q383 312 360 335T305 358Q273 358 251 335T228 280Q228 248 250 226T305 203Q337 203 360 225Z" />
<glyph unicode="&#xa5;" glyph-name="yen" horiz-adv-x="766" d="M275 65H155V194H275V229H155V357H221L20 699H241L379 458L526 699H746L537 357H602V229H482V194H602V65H482V0H275V65Z" />
<glyph unicode="&#xa6;" glyph-name="brokenbar" horiz-adv-x="247" d="M20 812H227V404H20V812ZM20 263H227V-144H20V263Z" />
<glyph unicode="&#xa7;" glyph-name="section" horiz-adv-x="574" d="M198 -170T130 -157T20 -121V62Q75 32 135 17T249 2Q288 2 305 12T323 43Q323 60 313 72T280 95T207 128Q110 170 67 221T23 346Q23 391 46 423Q23 456 23 501Q23 563 57 611T154 687T297 714Q363
714 414 704T513 670V493Q426 541 335 541Q296 541 273 530T250 496Q250 474 274 460T372 415Q443 386 481 357T537 291T554 196Q554 159 534 122Q554 85 554 41Q554 -58 482 -114T265 -170Q198 -170 130 -157ZM366 224T366 235Q366 258 351 270T295 298Q252 315
227 334Q224 324 224 314Q224 292 239 279T295 250Q322 240 337 233T363 216Q366 224 366 235Z" />
<glyph unicode="&#xa8;" glyph-name="dieresis" horiz-adv-x="439" d="M69 566T45 589T20 647Q20 681 44 705T103 730Q137 730 160 706T184 647Q184 613 161 590T103 566Q69 566 45 589ZM304 566T280 589T255 647Q255 681 279 705T338 730Q371 730 395 706T419
647Q419 613 395 590T338 566Q304 566 280 589Z" />
<glyph unicode="&#xa9;" glyph-name="copyright" horiz-adv-x="788" d="M292 -15T206 31T70 160T20 349Q20 456 70 539T206 668T394 714Q496 714 582 668T718 539T768 349Q768 243 718 160T582 31T394 -15Q292 -15 206 31ZM466 102T522 130T609 215T641 349Q641
427 610 482T523 566T394 595Q321 595 266 567T179 483T147 349Q147 271 178 215T266 131T394 102Q466 102 522 130ZM296 143T240 196T184 348Q184 447 240 500T395 553Q493 553 551 518V397Q502 433 432 433Q391 433 368 412T344 348Q344 306 367 285T431 263Q501
263 556 302V180Q490 143 394 143Q296 143 240 196Z" />
<glyph unicode="&#xaa;" glyph-name="ordfeminine" horiz-adv-x="434" d="M100 349T60 379T20 466Q20 524 58 554T172 585Q197 585 224 580T271 565V572Q271 595 248 607T183 619Q120 619 68 594V688Q91 700 129 707T211 714Q310 714 362 676T414 569V360H279V387Q262
370 232 360T166 349Q100 349 60 379ZM229 432T245 439T271 458V485Q244 501 210 501Q168 501 168 466Q168 450 179 441T210 432Q229 432 245 439Z" />
<glyph unicode="&#xab;" glyph-name="guillemotleft" horiz-adv-x="718" d="M20 306V346L271 577L387 467L232 326L387 185L271 75L20 306ZM331 306V346L582 577L698 467L543 326L698 185L582 75L331 306Z" />
<glyph unicode="&#xac;" glyph-name="logicalnot" horiz-adv-x="452" d="M259 237H20V384H432V124H259V237Z" />
<glyph unicode="&#xad;" glyph-name="uni00AD" horiz-adv-x="408" d="M20 384H388V225H20V384Z" />
<glyph unicode="&#xae;" glyph-name="registered" horiz-adv-x="788" d="M292 -15T206 31T70 160T20 349Q20 456 70 539T206 668T394 714Q496 714 582 668T718 539T768 349Q768 243 718 160T582 31T394 -15Q292 -15 206 31ZM466 102T522 130T609 215T641 349Q641
427 610 482T523 566T394 595Q321 595 266 567T179 483T147 349Q147 271 178 215T266 131T394 102Q466 102 522 130ZM239 542H419Q488 542 528 507T569 406Q569 363 552 333T503 286L561 166H441L391 269H360V166H239V542ZM400 365Q449 365 449 406Q449 446 400
446H360V365H400Z" />
<glyph unicode="&#xaf;" glyph-name="overscore" horiz-adv-x="396" d="M20 692H376V574H20V692Z" />
<glyph unicode="&#xb0;" glyph-name="degree" horiz-adv-x="328" d="M125 439T92 458T40 511T20 583Q20 622 39 655T92 707T164 727Q203 727 236 708T288 655T308 583Q308 544 289 511T236 459T164 439Q125 439 92 458ZM182 538T195 551T208 583Q208 601 195 614T164
627Q146 627 133 614T120 583Q120 565 133 552T164 538Q182 538 195 551Z" />
<glyph unicode="&#xb1;" glyph-name="plusminus" horiz-adv-x="408" d="M124 294H20V449H124V543H283V449H388V294H283V200H124V294ZM20 155H388V0H20V155Z" />
<glyph unicode="&#xb2;" glyph-name="uni00B2" horiz-adv-x="342" d="M20 442Q101 494 134 520T167 568Q167 582 157 588T125 595Q100 595 75 586T31 562V677Q52 691 91 700T167 709Q239 709 277 677T315 598Q315 560 293 533T215 466H322V370H20V442Z" />
<glyph unicode="&#xb3;" glyph-name="uni00B3" horiz-adv-x="345" d="M120 360T82 365T20 382V471Q65 448 115 448Q169 448 169 475Q169 489 157 494T113 500H70V570H112Q160 570 160 594Q160 620 113 620Q66 620 25 594V684Q48 695 86 702T162 709Q233 709 274
682T316 607Q316 563 282 535Q325 514 325 463Q325 416 282 388T160 360Q120 360 82 365Z" />
<glyph unicode="&#xb4;" glyph-name="acute" horiz-adv-x="309" d="M88 746H289L196 566H20L88 746Z" />
<glyph unicode="&#xb6;" glyph-name="paragraph" horiz-adv-x="788" d="M293 261H268Q156 261 88 325T20 509Q20 591 56 648T155 733T299 762H768V-134H562V600H499V-134H293V261Z" />
<glyph unicode="&#xb7;" glyph-name="middot" horiz-adv-x="179" d="M60 228T40 248T20 297Q20 326 40 347T89 368Q118 368 138 347T159 297Q159 268 139 248T89 228Q60 228 40 248Z" />
<glyph unicode="&#xb8;" glyph-name="cedilla" horiz-adv-x="347" d="M78 -248T40 -233V-153Q52 -160 70 -164T106 -168Q138 -168 154 -160T170 -131Q170 -107 147 -97T68 -87L101 0H232L214 -46Q258 -52 282 -77T307 -139Q307 -189 267 -218T149 -248Q78 -248 40 -233Z" />
<glyph unicode="&#xb9;" glyph-name="uni00B9" horiz-adv-x="233" d="M89 558L20 509V636L105 699H233V370H89V558Z" />
<glyph unicode="&#xba;" glyph-name="ordmasculine" horiz-adv-x="475" d="M172 348T123 371T47 436T20 531Q20 583 46 625T122 690T238 714Q303 714 352 691T428 625T455 531Q455 478 429 437T353 372T238 348Q172 348 123 371ZM270 460T289 479T308 531Q308
564 289 583T238 602Q206 602 187 583T167 531Q167 499 186 480T238 460Q270 460 289 479Z" />
<glyph unicode="&#xbb;" glyph-name="guillemotright" horiz-adv-x="718" d="M20 185L175 326L20 467L135 577L387 346V306L135 75L20 185ZM331 185L486 326L331 467L446 577L698 346V306L446 75L331 185Z" />
<glyph unicode="&#xbc;" glyph-name="onequarter" horiz-adv-x="790" d="M89 558L20 509V636L105 699H233V370H89V558ZM481 699H685L298 0H94L481 699ZM582 53H440V141L575 329H726V148H770V53H726V0H582V53ZM626 148V226L565 148H626Z" />
<glyph unicode="&#xbd;" glyph-name="onehalf" horiz-adv-x="813" d="M89 558L20 509V636L105 699H233V370H89V558ZM481 699H685L298 0H94L481 699ZM491 72Q571 123 604 150T637 198Q637 212 627 218T595 225Q570 225 546 216T502 192V307Q523 321 562 330T638
339Q709 339 747 307T785 228Q785 190 763 163T685 96H793V0H491V72Z" />
<glyph unicode="&#xbe;" glyph-name="threequarters" horiz-adv-x="805" d="M120 360T82 365T20 382V471Q65 448 115 448Q169 448 169 475Q169 489 157 494T113 500H70V570H112Q160 570 160 594Q160 620 113 620Q66 620 25 594V684Q48 695 86 702T162 709Q233
709 274 682T316 607Q316 563 282 535Q325 514 325 463Q325 416 282 388T160 360Q120 360 82 365ZM500 699H705L318 0H113L500 699ZM597 53H455V141L590 329H741V148H785V53H741V0H597V53ZM641 148V226L580 148H641Z" />
<glyph unicode="&#xbf;" glyph-name="questiondown" horiz-adv-x="529" d="M261 344T231 373T200 447Q200 490 230 520T305 550Q350 550 380 521T410 447Q410 402 380 373T305 344Q261 344 231 373ZM168 -179T94 -128T20 16Q20 67 41 98T116 166Q167 202 185 223T204
276V294H405V274Q405 226 387 188T332 123Q332 123 302 103Q270 81 257 68T244 37Q244 -7 328 -7Q419 -7 509 41V-136Q415 -179 295 -179Q168 -179 94 -128Z" />
<glyph unicode="&#xc0;" glyph-name="Agrave" horiz-adv-x="798" d="M213 917H414L483 737H306L213 917ZM300 699H499L778 0H566L514 133H285L232 0H20L300 699ZM466 290L399 486L332 290H466Z" />
<glyph unicode="&#xc1;" glyph-name="Aacute" horiz-adv-x="798" d="M389 917H590L497 737H320L389 917ZM300 699H499L778 0H566L514 133H285L232 0H20L300 699ZM466 290L399 486L332 290H466Z" />
<glyph unicode="&#xc2;" glyph-name="Acircumflex" horiz-adv-x="798" d="M317 920H482L630 748H458L400 819L342 748H169L317 920ZM300 699H499L778 0H566L514 133H285L232 0H20L300 699ZM466 290L399 486L332 290H466Z" />
<glyph unicode="&#xc3;" glyph-name="Atilde" horiz-adv-x="798" d="M191 883Q226 924 298 924Q320 924 342 918T401 899Q432 887 454 881T499 874Q564 874 606 923V783Q572 742 499 742Q474 742 450 748T392 768Q359 780 339 786T298 792Q234 792 191 742V883ZM300
699H499L778 0H566L514 133H285L232 0H20L300 699ZM466 290L399 486L332 290H466Z" />
<glyph unicode="&#xc4;" glyph-name="Adieresis" horiz-adv-x="798" d="M248 742T224 765T199 823Q199 857 224 881T282 906Q316 906 340 882T364 823Q364 789 340 766T282 742Q248 742 224 765ZM484 742T460 765T435 823Q435 857 459 881T518 906Q551 906 575
882T599 823Q599 789 575 766T518 742Q484 742 460 765ZM300 699H499L778 0H566L514 133H285L232 0H20L300 699ZM466 290L399 486L332 290H466Z" />
<glyph unicode="&#xc5;" glyph-name="Aring" horiz-adv-x="798" d="M778 0H566L514 133H285L232 0H20L289 673Q271 692 261 717T250 772Q250 813 270 846T324 899T399 919Q440 919 474 900T529 847T549 772Q549 715 510 673L778 0ZM378 824T363 809T348 772Q348
751 363 736T399 721Q421 721 436 736T451 772Q451 795 437 809T399 824Q378 824 363 809ZM466 290L399 486L332 290H466Z" />
<glyph unicode="&#xc6;" glyph-name="AE" horiz-adv-x="908" d="M313 699H898V525H618V429H815V270H618V174H898V0H432V133H291L236 0H20L313 699ZM432 292V525H426L334 292H432Z" />
<glyph unicode="&#xc7;" glyph-name="Ccedilla" horiz-adv-x="676" d="M577 -3T465 -12L452 -46Q496 -52 520 -77T545 -139Q545 -189 505 -218T387 -248Q316 -248 278 -233V-153Q290 -160 308 -164T344 -168Q376 -168 392 -160T408 -131Q408 -107 385 -97T306
-87L335 -11Q188 8 104 103T20 349Q20 461 67 543T201 670T404 714Q479 714 538 700T648 655V464Q604 498 549 513T422 528Q328 528 280 483T231 349Q231 260 281 215T422 169Q493 169 549 185T656 236V46Q577 -3 465 -12Z" />
<glyph unicode="&#xc8;" glyph-name="Egrave" horiz-adv-x="557" d="M122 923H323L392 743H215L122 923ZM40 699H547V525H247V429H463V270H247V174H547V0H40V699Z" />
<glyph unicode="&#xc9;" glyph-name="Eacute" horiz-adv-x="557" d="M265 917H466L373 737H196L265 917ZM40 699H547V525H247V429H463V270H247V174H547V0H40V699Z" />
<glyph unicode="&#xca;" glyph-name="Ecircumflex" horiz-adv-x="557" d="M209 916H374L522 744H350L292 815L234 744H61L209 916ZM40 699H547V525H247V429H463V270H247V174H547V0H40V699Z" />
<glyph unicode="&#xcb;" glyph-name="Edieresis" horiz-adv-x="557" d="M150 747T126 770T101 828Q101 862 126 886T184 911Q218 911 242 887T266 828Q266 794 242 771T184 747Q150 747 126 770ZM386 747T362 770T337 828Q337 862 361 886T420 911Q453 911 477
887T501 828Q501 794 477 771T420 747Q386 747 362 770ZM40 699H547V525H247V429H463V270H247V174H547V0H40V699Z" />
<glyph unicode="&#xcc;" glyph-name="Igrave" horiz-adv-x="287" d="M-37 917H164L233 737H56L-37 917ZM40 699H247V0H40V699Z" />
<glyph unicode="&#xcd;" glyph-name="Iacute" horiz-adv-x="287" d="M121 917H322L229 737H52L121 917ZM40 699H247V0H40V699Z" />
<glyph unicode="&#xce;" glyph-name="Icircumflex" horiz-adv-x="287" d="M61 913H226L374 741H202L144 812L86 741H-87L61 913ZM40 699H247V0H40V699Z" />
<glyph unicode="&#xcf;" glyph-name="Idieresis" horiz-adv-x="287" d="M-8 742T-32 765T-57 823Q-57 857 -32 881T26 906Q60 906 84 882T108 823Q108 789 84 766T26 742Q-8 742 -32 765ZM228 742T204 765T179 823Q179 857 203 881T262 906Q295 906 319 882T343
823Q343 789 319 766T262 742Q228 742 204 765ZM40 699H247V0H40V699Z" />
<glyph unicode="&#xd0;" glyph-name="Eth" horiz-adv-x="739" d="M76 274H30V424H76V699H335Q451 699 537 657T671 537T719 353Q719 179 616 90T333 0H76V274ZM348 184Q426 184 466 228T507 353Q507 426 466 470T351 514H283V424H407V274H283V184H348Z" />
<glyph unicode="&#xd1;" glyph-name="Ntilde" horiz-adv-x="706" d="M158 883Q193 924 265 924Q287 924 309 918T368 899Q399 887 421 881T466 874Q531 874 573 923V783Q539 742 466 742Q441 742 417 748T359 768Q326 780 306 786T265 792Q201 792 158 742V883ZM40
699H241L459 333V699H666V0H466L247 366V0H40V699Z" />
<glyph unicode="&#xd2;" glyph-name="Ograve" horiz-adv-x="794" d="M228 917H429L498 737H321L228 917ZM292 -15T206 31T70 159T20 349Q20 456 69 539T205 668T398 714Q504 714 589 668T724 539T774 349Q774 242 725 160T590 31T398 -15Q292 -15 206 31ZM444
179T481 199T541 258T563 349Q563 426 516 472T398 518Q326 518 279 472T231 349Q231 297 253 259T313 200T398 179Q444 179 481 199Z" />
<glyph unicode="&#xd3;" glyph-name="Oacute" horiz-adv-x="794" d="M367 917H568L475 737H298L367 917ZM292 -15T206 31T70 159T20 349Q20 456 69 539T205 668T398 714Q504 714 589 668T724 539T774 349Q774 242 725 160T590 31T398 -15Q292 -15 206 31ZM444
179T481 199T541 258T563 349Q563 426 516 472T398 518Q326 518 279 472T231 349Q231 297 253 259T313 200T398 179Q444 179 481 199Z" />
<glyph unicode="&#xd4;" glyph-name="Ocircumflex" horiz-adv-x="794" d="M315 921H480L628 749H456L398 820L340 749H167L315 921ZM292 -15T206 31T70 159T20 349Q20 456 69 539T205 668T398 714Q504 714 589 668T724 539T774 349Q774 242 725 160T590 31T398
-15Q292 -15 206 31ZM444 179T481 199T541 258T563 349Q563 426 516 472T398 518Q326 518 279 472T231 349Q231 297 253 259T313 200T398 179Q444 179 481 199Z" />
<glyph unicode="&#xd5;" glyph-name="Otilde" horiz-adv-x="794" d="M191 892Q226 933 298 933Q320 933 342 927T401 908Q432 896 454 890T499 883Q564 883 606 932V792Q572 751 499 751Q474 751 450 757T392 777Q359 789 339 795T298 801Q234 801 191 751V892ZM292
-15T206 31T70 159T20 349Q20 456 69 539T205 668T398 714Q504 714 589 668T724 539T774 349Q774 242 725 160T590 31T398 -15Q292 -15 206 31ZM444 179T481 199T541 258T563 349Q563 426 516 472T398 518Q326 518 279 472T231 349Q231 297 253 259T313 200T398
179Q444 179 481 199Z" />
<glyph unicode="&#xd6;" glyph-name="Odieresis" horiz-adv-x="794" d="M246 749T222 772T197 830Q197 864 222 888T280 913Q314 913 338 889T362 830Q362 796 338 773T280 749Q246 749 222 772ZM482 749T458 772T433 830Q433 864 457 888T516 913Q549 913 573
889T597 830Q597 796 573 773T516 749Q482 749 458 772ZM292 -15T206 31T70 159T20 349Q20 456 69 539T205 668T398 714Q504 714 589 668T724 539T774 349Q774 242 725 160T590 31T398 -15Q292 -15 206 31ZM444 179T481 199T541 258T563 349Q563 426 516 472T398
518Q326 518 279 472T231 349Q231 297 253 259T313 200T398 179Q444 179 481 199Z" />
<glyph unicode="&#xd7;" glyph-name="multiply" horiz-adv-x="413" d="M206 200L133 127L20 239L93 312L20 386L133 499L206 426L280 500L393 386L319 312L393 239L280 126L206 200Z" />
<glyph unicode="&#xd8;" glyph-name="Oslash" horiz-adv-x="794" d="M206 30Q119 76 70 159T20 349Q20 456 69 539T205 668T398 714Q442 714 478 707L509 784H630L584 670Q672 626 723 542T774 349Q774 242 725 160T590 31T398 -15Q353 -15 312 -6L280 -86H159L206
30ZM402 518H398Q326 518 279 472T231 349Q231 267 282 221L402 518ZM398 179Q444 179 481 199T541 258T563 349Q563 391 549 424T507 480L386 179H398Z" />
<glyph unicode="&#xd9;" glyph-name="Ugrave" horiz-adv-x="724" d="M192 917H393L462 737H285L192 917ZM252 -15T179 26T71 139T35 304V699H242V306Q242 242 272 209T362 176Q421 176 451 209T482 306V699H689V304Q689 211 654 139T545 26T362 -15Q252 -15 179 26Z" />
<glyph unicode="&#xda;" glyph-name="Uacute" horiz-adv-x="724" d="M345 917H546L453 737H276L345 917ZM252 -15T179 26T71 139T35 304V699H242V306Q242 242 272 209T362 176Q421 176 451 209T482 306V699H689V304Q689 211 654 139T545 26T362 -15Q252 -15 179 26Z" />
<glyph unicode="&#xdb;" glyph-name="Ucircumflex" horiz-adv-x="724" d="M280 920H445L593 748H421L363 819L305 748H132L280 920ZM252 -15T179 26T71 139T35 304V699H242V306Q242 242 272 209T362 176Q421 176 451 209T482 306V699H689V304Q689 211 654 139T545
26T362 -15Q252 -15 179 26Z" />
<glyph unicode="&#xdc;" glyph-name="Udieresis" horiz-adv-x="724" d="M211 749T187 772T162 830Q162 864 187 888T245 913Q279 913 303 889T327 830Q327 796 303 773T245 749Q211 749 187 772ZM447 749T423 772T398 830Q398 864 422 888T481 913Q514 913 538
889T562 830Q562 796 538 773T481 749Q447 749 423 772ZM252 -15T179 26T71 139T35 304V699H242V306Q242 242 272 209T362 176Q421 176 451 209T482 306V699H689V304Q689 211 654 139T545 26T362 -15Q252 -15 179 26Z" />
<glyph unicode="&#xdd;" glyph-name="Yacute" horiz-adv-x="766" d="M361 923H562L469 743H292L361 923ZM275 266L20 699H241L379 458L526 699H746L482 266V0H275V266Z" />
<glyph unicode="&#xde;" glyph-name="Thorn" horiz-adv-x="647" d="M40 699H247V597H364Q491 597 564 535T637 352Q637 232 564 170T364 107H247V0H40V699ZM323 271Q371 271 398 288T425 352Q425 398 398 415T323 433H247V271H323Z" />
<glyph unicode="&#xdf;" glyph-name="germandbls" horiz-adv-x="661" d="M323 -15T280 3V165Q308 146 355 146Q392 146 411 167T431 226Q431 306 343 306H290V445H334Q369 445 386 466T403 522Q403 554 384 572T326 591Q285 591 263 570T241 510V0H35V484Q35 744
324 744Q478 744 545 679T613 518Q613 472 595 435T541 375Q593 353 617 312T641 211Q641 104 580 45T404 -15Q323 -15 280 3Z" />
<glyph unicode="&#xe0;" glyph-name="agrave" horiz-adv-x="606" d="M169 697H370L439 517H262L169 697ZM101 -15T46 27T-10 149Q-10 230 44 272T201 315Q238 315 276 307T340 287V296Q340 329 308 346T217 363Q130 363 57 328V460Q90 476 143 485T256 495Q395
495 468 442T541 292V0H352V38Q328 14 286 0T193 -15Q101 -15 46 27ZM282 101T305 111T340 137V174Q303 198 256 198Q228 198 213 185T197 149Q197 127 212 114T255 101Q282 101 305 111Z" />
<glyph unicode="&#xe1;" glyph-name="aacute" horiz-adv-x="606" d="M286 697H487L394 517H217L286 697ZM101 -15T46 27T-10 149Q-10 230 44 272T201 315Q238 315 276 307T340 287V296Q340 329 308 346T217 363Q130 363 57 328V460Q90 476 143 485T256 495Q395
495 468 442T541 292V0H352V38Q328 14 286 0T193 -15Q101 -15 46 27ZM282 101T305 111T340 137V174Q303 198 256 198Q228 198 213 185T197 149Q197 127 212 114T255 101Q282 101 305 111Z" />
<glyph unicode="&#xe2;" glyph-name="acircumflex" horiz-adv-x="606" d="M238 700H403L551 528H379L321 599L263 528H90L238 700ZM101 -15T46 27T-10 149Q-10 230 44 272T201 315Q238 315 276 307T340 287V296Q340 329 308 346T217 363Q130 363 57 328V460Q90
476 143 485T256 495Q395 495 468 442T541 292V0H352V38Q328 14 286 0T193 -15Q101 -15 46 27ZM282 101T305 111T340 137V174Q303 198 256 198Q228 198 213 185T197 149Q197 127 212 114T255 101Q282 101 305 111Z" />
<glyph unicode="&#xe3;" glyph-name="atilde" horiz-adv-x="606" d="M126 662Q161 703 233 703Q255 703 277 697T336 678Q367 666 389 660T434 653Q499 653 541 702V562Q507 521 434 521Q409 521 385 527T327 547Q294 559 274 565T233 571Q169 571 126 521V662ZM101
-15T46 27T-10 149Q-10 230 44 272T201 315Q238 315 276 307T340 287V296Q340 329 308 346T217 363Q130 363 57 328V460Q90 476 143 485T256 495Q395 495 468 442T541 292V0H352V38Q328 14 286 0T193 -15Q101 -15 46 27ZM282 101T305 111T340 137V174Q303 198 256
198Q228 198 213 185T197 149Q197 127 212 114T255 101Q282 101 305 111Z" />
<glyph unicode="&#xe4;" glyph-name="adieresis" horiz-adv-x="606" d="M165 519T141 542T116 600Q116 634 141 658T199 683Q233 683 257 659T281 600Q281 566 257 543T199 519Q165 519 141 542ZM401 519T377 542T352 600Q352 634 376 658T435 683Q468 683 492
659T516 600Q516 566 492 543T435 519Q401 519 377 542ZM101 -15T46 27T-10 149Q-10 230 44 272T201 315Q238 315 276 307T340 287V296Q340 329 308 346T217 363Q130 363 57 328V460Q90 476 143 485T256 495Q395 495 468 442T541 292V0H352V38Q328 14 286 0T193
-15Q101 -15 46 27ZM282 101T305 111T340 137V174Q303 198 256 198Q228 198 213 185T197 149Q197 127 212 114T255 101Q282 101 305 111Z" />
<glyph unicode="&#xe5;" glyph-name="aring" horiz-adv-x="606" d="M281 521T247 540T192 593T172 667Q172 708 192 741T246 794T321 814Q362 814 396 795T451 742T471 667Q471 627 451 594T397 541T321 521Q281 521 247 540ZM343 616T358 631T373 667Q373 690
359 704T321 719Q300 719 285 704T270 667Q270 646 285 631T321 616Q343 616 358 631ZM101 -15T46 27T-10 149Q-10 230 44 272T201 315Q238 315 276 307T340 287V296Q340 329 308 346T217 363Q130 363 57 328V460Q90 476 143 485T256 495Q395 495 468 442T541 292V0H352V38Q328
14 286 0T193 -15Q101 -15 46 27ZM282 101T305 111T340 137V174Q303 198 256 198Q228 198 213 185T197 149Q197 127 212 114T255 101Q282 101 305 111Z" />
<glyph unicode="&#xe6;" glyph-name="ae" horiz-adv-x="955" d="M136 -15T78 27T20 149Q20 229 73 272T226 315Q263 315 301 307T365 287V296Q365 329 333 346T242 363Q155 363 82 328V460Q115 476 168 485T281 495Q398 495 473 439Q508 465 556 480T658 495Q746
495 808 463T903 373T935 245V182H566Q591 116 710 116Q758 116 808 123T894 145V20Q856 4 802 -5T688 -15Q621 -15 566 3T472 54Q427 21 371 3T235 -15Q136 -15 78 27ZM746 295Q741 327 718 345T655 363Q615 363 593 345T566 295H746ZM306 101T329 110T365 136V174Q328
198 281 198Q253 198 238 185T222 149Q222 127 237 114T280 101Q306 101 329 110Z" />
<glyph unicode="&#xe7;" glyph-name="ccedilla" horiz-adv-x="539" d="M464 -3T371 -12L358 -46Q402 -52 426 -77T451 -139Q451 -189 411 -218T293 -248Q222 -248 184 -233V-153Q196 -160 214 -164T250 -168Q282 -168 298 -160T314 -131Q314 -107 291 -97T212
-87L241 -10Q137 5 79 68T20 239Q20 363 97 429T309 495Q369 495 424 484T513 451V296Q483 318 442 329T355 341Q297 341 262 316T227 239Q227 188 261 163T354 138Q399 138 441 150T519 185V31Q464 -3 371 -12Z" />
<glyph unicode="&#xe8;" glyph-name="egrave" horiz-adv-x="600" d="M139 697H340L409 517H232L139 697ZM182 -15T101 51T20 238Q20 357 93 426T303 495Q391 495 453 463T548 373T580 245V180H210Q234 116 355 116Q403 116 453 123T539 145V20Q501 4 444 -5T327
-15Q182 -15 101 51ZM391 296Q386 328 363 345T300 363Q260 363 238 345T210 296H391Z" />
<glyph unicode="&#xe9;" glyph-name="eacute" horiz-adv-x="600" d="M280 697H481L388 517H211L280 697ZM182 -15T101 51T20 238Q20 357 93 426T303 495Q391 495 453 463T548 373T580 245V180H210Q234 116 355 116Q403 116 453 123T539 145V20Q501 4 444 -5T327
-15Q182 -15 101 51ZM391 296Q386 328 363 345T300 363Q260 363 238 345T210 296H391Z" />
<glyph unicode="&#xea;" glyph-name="ecircumflex" horiz-adv-x="618" d="M245 700H410L558 528H386L328 599L270 528H97L245 700ZM200 -15T119 51T38 238Q38 357 111 426T321 495Q409 495 471 463T566 373T598 245V180H228Q252 116 373 116Q421 116 471 123T557
145V20Q519 4 462 -5T345 -15Q200 -15 119 51ZM409 296Q404 328 381 345T318 363Q278 363 256 345T228 296H409Z" />
<glyph unicode="&#xeb;" glyph-name="edieresis" horiz-adv-x="600" d="M158 521T134 544T109 602Q109 636 134 660T192 685Q226 685 250 661T274 602Q274 568 250 545T192 521Q158 521 134 544ZM394 521T370 544T345 602Q345 636 369 660T428 685Q461 685 485
661T509 602Q509 568 485 545T428 521Q394 521 370 544ZM182 -15T101 51T20 238Q20 357 93 426T303 495Q391 495 453 463T548 373T580 245V180H210Q234 116 355 116Q403 116 453 123T539 145V20Q501 4 444 -5T327 -15Q182 -15 101 51ZM391 296Q386 328 363 345T300
363Q260 363 238 345T210 296H391Z" />
<glyph unicode="&#xec;" glyph-name="igrave" horiz-adv-x="280" d="M-36 697H165L234 517H57L-36 697ZM40 480H240V0H40V480Z" />
<glyph unicode="&#xed;" glyph-name="iacute" horiz-adv-x="280" d="M117 697H318L225 517H48L117 697ZM40 480H240V0H40V480Z" />
<glyph unicode="&#xee;" glyph-name="icircumflex" horiz-adv-x="280" d="M58 700H223L371 528H199L141 599L83 528H-90L58 700ZM40 480H240V0H40V480Z" />
<glyph unicode="&#xef;" glyph-name="idieresis" horiz-adv-x="280" d="M-12 521T-36 544T-61 602Q-61 636 -36 660T22 685Q56 685 80 661T104 602Q104 568 80 545T22 521Q-12 521 -36 544ZM224 521T200 544T175 602Q175 636 199 660T258 685Q291 685 315 661T339
602Q339 568 315 545T258 521Q224 521 200 544ZM40 480H240V0H40V480Z" />
<glyph unicode="&#xf0;" glyph-name="eth" horiz-adv-x="637" d="M166 -15T93 52T20 229Q20 340 90 399T276 459Q316 459 354 448T417 418Q406 502 358 538L241 473V537L290 564Q272 566 262 566Q177 566 126 539V693Q153 702 190 708T267 714Q382 714 465 661L583
726V663L512 624Q617 522 617 328Q617 225 579 148T472 28T308 -15Q166 -15 93 52ZM355 136T377 161T399 224Q399 264 376 287T316 311Q276 311 254 288T231 224Q231 183 253 160T316 136Q355 136 377 161Z" />
<glyph unicode="&#xf1;" glyph-name="ntilde" horiz-adv-x="629" d="M110 662Q145 703 217 703Q239 703 261 697T320 678Q351 666 373 660T418 653Q483 653 525 702V562Q491 521 418 521Q393 521 369 527T311 547Q278 559 258 565T217 571Q153 571 110 521V662ZM40
480H233V433Q264 463 306 479T394 495Q497 495 545 443T594 298V0H393V270Q393 304 379 321T332 339Q272 339 240 285V0H40V480Z" />
<glyph unicode="&#xf2;" glyph-name="ograve" horiz-adv-x="647" d="M157 697H358L427 517H250L157 697ZM231 -15T163 17T57 108T20 240Q20 313 57 371T162 462T323 495Q415 495 484 462T590 371T627 240Q627 166 590 108T484 18T323 -15Q231 -15 163 17ZM368
140T395 167T422 240Q422 286 395 312T323 339Q278 339 252 313T225 240Q225 194 251 167T323 140Q368 140 395 167Z" />
<glyph unicode="&#xf3;" glyph-name="oacute" horiz-adv-x="647" d="M301 697H502L409 517H232L301 697ZM231 -15T163 17T57 108T20 240Q20 313 57 371T162 462T323 495Q415 495 484 462T590 371T627 240Q627 166 590 108T484 18T323 -15Q231 -15 163 17ZM368
140T395 167T422 240Q422 286 395 312T323 339Q278 339 252 313T225 240Q225 194 251 167T323 140Q368 140 395 167Z" />
<glyph unicode="&#xf4;" glyph-name="ocircumflex" horiz-adv-x="647" d="M241 700H406L554 528H382L324 599L266 528H93L241 700ZM231 -15T163 17T57 108T20 240Q20 313 57 371T162 462T323 495Q415 495 484 462T590 371T627 240Q627 166 590 108T484 18T323
-15Q231 -15 163 17ZM368 140T395 167T422 240Q422 286 395 312T323 339Q278 339 252 313T225 240Q225 194 251 167T323 140Q368 140 395 167Z" />
<glyph unicode="&#xf5;" glyph-name="otilde" horiz-adv-x="647" d="M116 665Q151 706 223 706Q245 706 267 700T326 681Q357 669 379 663T424 656Q489 656 531 705V565Q497 524 424 524Q399 524 375 530T317 550Q284 562 264 568T223 574Q159 574 116 524V665ZM231
-15T163 17T57 108T20 240Q20 313 57 371T162 462T323 495Q415 495 484 462T590 371T627 240Q627 166 590 108T484 18T323 -15Q231 -15 163 17ZM368 140T395 167T422 240Q422 286 395 312T323 339Q278 339 252 313T225 240Q225 194 251 167T323 140Q368 140 395
167Z" />
<glyph unicode="&#xf6;" glyph-name="odieresis" horiz-adv-x="647" d="M172 521T148 544T123 602Q123 636 148 660T206 685Q240 685 264 661T288 602Q288 568 264 545T206 521Q172 521 148 544ZM408 521T384 544T359 602Q359 636 383 660T442 685Q475 685 499
661T523 602Q523 568 499 545T442 521Q408 521 384 544ZM231 -15T163 17T57 108T20 240Q20 313 57 371T162 462T323 495Q415 495 484 462T590 371T627 240Q627 166 590 108T484 18T323 -15Q231 -15 163 17ZM368 140T395 167T422 240Q422 286 395 312T323 339Q278
339 252 313T225 240Q225 194 251 167T323 140Q368 140 395 167Z" />
<glyph unicode="&#xf7;" glyph-name="divide" horiz-adv-x="408" d="M171 412T151 432T130 482Q130 512 150 533T200 554Q230 554 251 533T272 482Q272 453 251 433T200 412Q171 412 151 432ZM20 384H388V225H20V384ZM171 55T151 75T130 125Q130 155 150 176T200
197Q230 197 251 176T272 125Q272 96 251 76T200 55Q171 55 151 75Z" />
<glyph unicode="&#xf8;" glyph-name="oslash" horiz-adv-x="647" d="M175 12Q102 42 61 102T20 240Q20 313 57 371T162 462T323 495Q347 495 368 492L398 566H509L469 468Q544 437 585 377T627 240Q627 166 590 108T484 18T323 -15Q298 -15 275 -12L246 -86H136L175
12ZM308 342Q267 337 244 310T221 240Q221 201 240 174L308 342ZM377 142T401 169T425 240Q425 282 404 307L336 137Q377 142 401 169Z" />
<glyph unicode="&#xf9;" glyph-name="ugrave" horiz-adv-x="629" d="M146 697H347L416 517H239L146 697ZM135 -15T85 41T35 189V480H235V213Q235 140 299 140Q328 140 351 154T388 194V480H589V0H395V46Q365 16 323 1T235 -15Q135 -15 85 41Z" />
<glyph unicode="&#xfa;" glyph-name="uacute" horiz-adv-x="629" d="M286 697H487L394 517H217L286 697ZM135 -15T85 41T35 189V480H235V213Q235 140 299 140Q328 140 351 154T388 194V480H589V0H395V46Q365 16 323 1T235 -15Q135 -15 85 41Z" />
<glyph unicode="&#xfb;" glyph-name="ucircumflex" horiz-adv-x="629" d="M233 700H398L546 528H374L316 599L258 528H85L233 700ZM135 -15T85 41T35 189V480H235V213Q235 140 299 140Q328 140 351 154T388 194V480H589V0H395V46Q365 16 323 1T235 -15Q135 -15 85 41Z" />
<glyph unicode="&#xfc;" glyph-name="udieresis" horiz-adv-x="629" d="M165 521T141 544T116 602Q116 636 141 660T199 685Q233 685 257 661T281 602Q281 568 257 545T199 521Q165 521 141 544ZM401 521T377 544T352 602Q352 636 376 660T435 685Q468 685 492
661T516 602Q516 568 492 545T435 521Q401 521 377 544ZM135 -15T85 41T35 189V480H235V213Q235 140 299 140Q328 140 351 154T388 194V480H589V0H395V46Q365 16 323 1T235 -15Q135 -15 85 41Z" />
<glyph unicode="&#xfd;" glyph-name="yacute" horiz-adv-x="642" d="M307 698H508L415 518H238L307 698ZM169 -198T131 -193T75 -179V-31Q106 -43 143 -43Q175 -43 192 -30T219 11L228 34L20 480H220L334 187L441 480H642L450 -11Q412 -107 354 -152T204 -198Q169
-198 131 -193Z" />
<glyph unicode="&#xfe;" glyph-name="thorn" horiz-adv-x="669" d="M40 699H240V445Q267 468 308 481T394 495Q470 495 528 464T617 374T649 240Q649 165 618 107T528 17T394 -15Q349 -15 308 -2T240 34V-219H40V699ZM387 140T414 166T442 241Q442 288 415 314T340
340Q306 340 280 324T240 279V201Q253 173 279 157T340 140Q387 140 414 166Z" />
<glyph unicode="&#xff;" glyph-name="ydieresis" horiz-adv-x="642" d="M190 521T166 544T141 602Q141 636 166 660T224 685Q258 685 282 661T306 602Q306 568 282 545T224 521Q190 521 166 544ZM426 521T402 544T377 602Q377 636 401 660T460 685Q493 685 517
661T541 602Q541 568 517 545T460 521Q426 521 402 544ZM169 -198T131 -193T75 -179V-31Q106 -43 143 -43Q175 -43 192 -30T219 11L228 34L20 480H220L334 187L441 480H642L450 -11Q412 -107 354 -152T204 -198Q169 -198 131 -193Z" />
<glyph unicode="&#x2013;" glyph-name="endash" horiz-adv-x="666" d="M20 384H646V225H20V384Z" />
<glyph unicode="&#x2014;" glyph-name="emdash" horiz-adv-x="798" d="M20 384H778V225H20V384Z" />
<glyph unicode="&#x2018;" glyph-name="quoteleft" horiz-adv-x="289" d="M104 714H269L206 512H20L104 714Z" />
<glyph unicode="&#x2019;" glyph-name="quoteright" horiz-adv-x="293" d="M83 714H273L189 512H20L83 714Z" />
<glyph unicode="&#x201a;" glyph-name="quotesinglbase" horiz-adv-x="293" d="M83 71H273L189 -131H20L83 71Z" />
<glyph unicode="&#x201c;" glyph-name="quotedblleft" horiz-adv-x="490" d="M104 714H263L200 512H20L104 714ZM311 714H470L407 512H227L311 714Z" />
<glyph unicode="&#x201d;" glyph-name="quotedblright" horiz-adv-x="490" d="M83 714H263L179 512H20L83 714ZM290 714H470L386 512H227L290 714Z" />
<glyph unicode="&#x201e;" glyph-name="quotedblbase" horiz-adv-x="490" d="M83 71H263L179 -131H20L83 71ZM290 71H470L386 -131H227L290 71Z" />
<glyph unicode="&#x2022;" glyph-name="bullet" horiz-adv-x="257" d="M83 189T52 220T20 298Q20 344 51 375T129 406Q175 406 206 375T237 298Q237 252 206 221T129 189Q83 189 52 220Z" />
<glyph unicode="&#x2039;" glyph-name="guilsinglleft" horiz-adv-x="407" d="M20 306V346L271 577L387 467L232 326L387 185L271 75L20 306Z" />
<glyph unicode="&#x203a;" glyph-name="guilsinglright" horiz-adv-x="407" d="M20 185L175 326L20 467L135 577L387 346V306L135 75L20 185Z" />
</font>
</defs>
</svg>
