<?xml version="1.0" standalone="no"?>
<!DOCTYPE svg PUBLIC "-//W3C//DTD SVG 1.1//EN" "http://www.w3.org/Graphics/SVG/1.1/DTD/svg11.dtd">
<svg xmlns="http://www.w3.org/2000/svg">
<defs >
<font id="BioRhyme" horiz-adv-x="671" ><font-face
    font-family="BioRhyme ExtraBold"
    units-per-em="1000"
    panose-1="0 0 9 0 0 0 0 0 0 0"
    ascent="1127"
    descent="-422"
    alphabetic="0" />
<glyph unicode=" " glyph-name="space" horiz-adv-x="304" />
<glyph unicode="!" glyph-name="exclam" horiz-adv-x="378" d="M145 343Q135 402 108 508Q94 564 88 596T81 651Q81 695 107 725T189 755Q244 755 270 725T297 651Q297 632 292 608T275 539Q259 476 250 435T235 343L220 197H160L145 343ZM236 160T265 136T295
72Q295 35 266 11T189 -13Q145 -13 115 11T84 72Q84 110 114 135T189 160Q236 160 265 136Z" />
<glyph unicode="&quot;" glyph-name="quotedbl" horiz-adv-x="491" d="M227 718L161 460L66 468L73 735L227 718ZM440 717L374 458L278 466L285 735L440 717Z" />
<glyph unicode="#" glyph-name="numbersign" horiz-adv-x="813" d="M624 378L580 259H744V144H539L486 0H358L410 144H270L217 0H88L140 144H7V259H182L225 378H72V493H267L323 647H453L397 493H537L593 647H722L666 493H807V378H624ZM495 378H355L311 259H452L495 378Z" />
<glyph unicode="$" glyph-name="dollar" horiz-adv-x="741" d="M559 346T625 297T692 164Q692 81 628 33T460 -15H447V-146H330V7Q275 27 219 70V-2H86V224L178 230Q209 193 250 164T338 117V234Q345 232 293 245Q87 298 87 450Q87 504 115 546T192 612T303 635Q321
635 330 634V759H447V603Q492 581 527 552V623H659V402L572 397Q553 427 517 454T438 499V373Q559 346 625 297ZM242 442T263 427T338 397V520Q290 520 266 505T242 463Q242 442 263 427ZM488 97T512 106T537 141Q537 159 514 175T438 207V97H444Q488 97 512 106Z"
/>
<glyph unicode="%" glyph-name="percent" horiz-adv-x="890" d="M91 32L717 669L794 593L169 -45L91 32ZM173 317T131 338T63 398T37 483Q37 532 62 569T130 627T219 648Q269 648 309 628T374 571T398 483Q398 436 374 398T309 339T219 317Q173 317 131 338ZM243
429T259 444T276 483Q276 508 260 522T219 537Q195 537 178 522T161 483Q161 460 178 445T219 429Q243 429 259 444ZM622 -24T581 -4T516 53T491 141Q491 188 515 226T581 286T672 308Q719 308 760 287T827 227T853 141Q853 92 828 55T761 -3T672 -24Q622 -24 581
-4ZM695 87T712 102T730 141Q730 165 713 181T672 197Q648 197 632 181T615 141Q615 116 631 102T672 87Q695 87 712 102Z" />
<glyph unicode="&amp;" glyph-name="ampersand" horiz-adv-x="834" d="M739 -14T675 -14Q599 -14 523 18Q440 -15 337 -15Q245 -15 175 9T65 80T26 189Q26 260 76 308T232 390Q226 431 226 473Q226 534 253 585T330 667T443 697Q501 697 544 675T611 616T634 535Q634
463 574 404T408 315Q428 268 458 229T525 161Q560 184 580 214T600 279Q600 300 594 316T575 354L707 410Q724 387 736 354T748 282Q748 242 725 194T658 103H661Q727 103 777 117L799 1Q739 -14 675 -14ZM419 576T397 549T375 474Q375 458 377 430Q437 450 460
476T484 535Q484 554 474 565T447 576Q419 576 397 549ZM359 108T380 111Q303 182 263 279Q214 264 193 246T172 200Q172 157 217 133T336 108Q359 108 380 111Z" />
<glyph unicode="&apos;" glyph-name="quotesingle" horiz-adv-x="305" d="M253 707L160 458L66 475L101 741L253 707Z" />
<glyph unicode="(" glyph-name="parenleft" horiz-adv-x="416" d="M302 -138T230 -69T108 104T59 337Q59 525 151 651T375 845L409 792Q330 721 268 610T206 337Q206 224 241 130T323 -26T409 -121L375 -172Q302 -138 230 -69Z" />
<glyph unicode=")" glyph-name="parenright" horiz-adv-x="416" d="M7 -119Q87 -48 148 63T210 337Q210 449 175 543T93 699T7 794L41 845Q114 811 186 742T307 569T356 337Q356 149 264 22T41 -172L7 -119Z" />
<glyph unicode="*" glyph-name="asterisk" horiz-adv-x="515" d="M196 789T211 806T259 824Q290 823 306 806T322 766Q322 749 304 709Q290 676 288 666L282 640H232L227 666Q223 680 214 704Q196 748 196 766Q196 789 211 806ZM42 700T85 700Q95 700 99 699Q114
695 150 667Q183 644 187 642L212 629L198 582L173 583Q162 583 132 579Q105 574 84 574Q76 574 66 576Q49 580 38 594T26 632Q26 645 28 652Q42 700 85 700ZM328 642Q340 649 364 667Q377 678 391 687T416 699Q420 700 430 700Q449 700 464 689T488 652Q491 640
491 631Q491 609 479 595T450 576Q440 574 432 574Q413 574 386 579Q354 583 343 583L318 582L304 629L328 642ZM246 532L235 508Q228 493 223 466Q222 461 216 440T202 407Q188 386 162 386Q141 386 118 402Q90 422 90 450Q90 468 101 484Q111 497 149 521Q174
535 187 547L209 563L246 532ZM306 563L329 547Q337 539 365 521Q379 512 392 503T411 484Q424 468 424 448Q424 421 397 402Q374 386 353 386Q339 386 328 392T311 407Q304 416 300 433T291 467Q285 493 279 508L266 532L306 563Z" />
<glyph unicode="+" glyph-name="plus" horiz-adv-x="585" d="M539 246H356V48H227V246H47V375H227V572H356V375H539V246Z" />
<glyph unicode="," glyph-name="comma" horiz-adv-x="328" d="M91 -158Q134 -114 160 -77T196 -6Q174 -12 147 -12Q109 -12 84 10T58 70Q58 108 86 133T158 158Q209 158 241 123T273 34Q273 -25 235 -81T130 -197L91 -158Z" />
<glyph unicode="-" glyph-name="hyphen" horiz-adv-x="318" d="M293 172H25V301H293V172Z" />
<glyph unicode="." glyph-name="period" horiz-adv-x="306" d="M109 -13T78 11T47 72Q47 110 78 135T153 160Q200 160 229 136T259 72Q259 34 230 11T153 -13Q109 -13 78 11Z" />
<glyph unicode="/" glyph-name="slash" horiz-adv-x="573" d="M20 -105L408 740H542L154 -105H20Z" />
<glyph unicode="0" glyph-name="zero" horiz-adv-x="718" d="M278 -13T203 23T81 133T33 310Q33 414 81 487T204 597T358 634Q438 634 513 597T637 487T685 310Q685 206 637 133T513 24T358 -13Q278 -13 203 23ZM404 106T441 131T500 202T522 310Q522 372 501
418T443 490T358 515Q313 515 276 490T218 418T196 310Q196 249 217 203T275 131T358 106Q404 106 441 131Z" />
<glyph unicode="1" glyph-name="one" horiz-adv-x="484" d="M455 127V0H77V127H209V442Q165 398 77 369L45 487Q158 529 209 618H362V127H455Z" />
<glyph unicode="2" glyph-name="two" horiz-adv-x="628" d="M587 216V0H29V127H30Q36 201 96 255T272 350Q334 371 364 384T405 410T417 438Q417 467 390 486T312 506Q262 506 208 480T103 411L25 504Q84 562 162 598T325 634Q390 634 447 611T539 544T574 440Q574
364 516 318T338 231Q259 205 225 183T185 127H461V216H587Z" />
<glyph unicode="3" glyph-name="three" horiz-adv-x="625" d="M511 297T549 261T587 164Q587 115 550 76T449 15T308 -7Q212 -7 144 17T21 79L77 191Q120 160 182 140T308 120Q363 120 395 136T428 180Q428 216 380 233T219 251H136V365H219Q311 365 357 385T403
442Q403 470 377 488T303 506Q202 506 98 416L22 517Q75 566 152 600T310 634Q422 634 492 587T562 458Q562 410 528 374T435 314Q511 297 549 261Z" />
<glyph unicode="4" glyph-name="four" horiz-adv-x="661" d="M648 120H530V-13H378V120H19V246L378 634H530V246H648V120ZM378 246V468L175 246H378Z" />
<glyph unicode="5" glyph-name="five" horiz-adv-x="628" d="M387 397T449 375T550 306T590 190Q590 131 555 81T460 0T327 -30Q312 -30 304 -29Q216 -24 151 -2T25 55L74 183Q134 144 195 122T305 99Q358 99 395 121T433 190Q433 226 396 248T292 270Q236 270
192 260T74 227V620H567V491H220V388Q270 397 318 397Q387 397 449 375Z" />
<glyph unicode="6" glyph-name="six" horiz-adv-x="636" d="M427 415T481 391T569 321T603 209Q603 146 569 96T474 16T339 -13Q254 -13 184 25T74 131T33 286Q33 381 75 460T197 587T383 634Q448 634 496 620T590 581L542 463Q470 507 391 507Q324 507 273 472T200
375Q240 395 279 405T365 415Q427 415 481 391ZM390 114T420 138T451 204Q451 246 420 270T337 295Q266 295 187 267Q195 198 240 156T344 114Q390 114 420 138Z" />
<glyph unicode="7" glyph-name="seven" horiz-adv-x="627" d="M609 616V487L285 -14L158 51L444 487H164V352H37V616H609Z" />
<glyph unicode="8" glyph-name="eight" horiz-adv-x="673" d="M633 258T633 183Q633 133 600 88T502 15T352 -13Q252 -13 182 13T77 84T42 180Q42 228 69 264T138 324Q70 372 70 443Q70 491 103 535T198 607T341 635Q424 635 488 608T588 537T623 441Q623 399
601 366T545 310Q633 258 633 183ZM292 508T256 492T220 442Q220 415 246 403T324 381L348 376Q390 368 436 354Q473 391 473 425Q473 465 436 486T338 508Q292 508 256 492ZM407 113T444 130T482 180Q482 201 468 213T432 231T368 245Q352 247 344 249Q288 259
238 275Q193 234 193 197Q193 159 242 136T355 113Q407 113 444 130Z" />
<glyph unicode="9" glyph-name="nine" horiz-adv-x="636" d="M381 634T451 596T562 489T603 334Q603 239 561 160T439 34T253 -13Q140 -13 46 40L94 157Q168 113 245 113Q312 113 363 148T436 245Q397 226 358 216T272 206Q209 206 155 229T67 299T33 411Q33 474
67 525T162 605T297 634Q381 634 451 596ZM185 375T216 351T299 326Q372 326 449 353Q441 422 396 464T292 506Q246 506 216 482T185 417Q185 375 216 351Z" />
<glyph unicode=":" glyph-name="colon" horiz-adv-x="343" d="M127 309T97 333T66 394Q66 431 97 456T172 482Q218 482 247 457T277 394Q277 357 248 333T172 309Q127 309 97 333ZM127 -13T97 11T66 72Q66 110 96 135T172 160Q218 160 247 136T277 72Q277 35 248
11T172 -13Q127 -13 97 11Z" />
<glyph unicode=";" glyph-name="semicolon" horiz-adv-x="348" d="M127 309T97 333T66 394Q66 431 97 456T172 482Q218 482 247 457T277 394Q277 357 248 333T172 309Q127 309 97 333ZM99 -158Q186 -69 204 -6Q182 -12 156 -12Q118 -12 92 10T66 70Q66 107 95
132T166 158Q217 158 249 123T282 34Q282 -25 244 -81T138 -197L99 -158Z" />
<glyph unicode="&lt;" glyph-name="less" horiz-adv-x="532" d="M483 461L218 309L483 160V13L18 292V328L483 607V461Z" />
<glyph unicode="=" glyph-name="equal" horiz-adv-x="638" d="M569 339H67V468H569V339ZM569 153H67V282H569V153Z" />
<glyph unicode="&gt;" glyph-name="greater" horiz-adv-x="532" d="M516 329V293L51 13V160L316 311L51 461V607L516 329Z" />
<glyph unicode="?" glyph-name="question" horiz-adv-x="481" d="M134 700T237 700Q304 700 358 678T443 614T474 519Q474 459 431 415T310 330Q251 299 229 286T197 261T187 233Q187 216 194 190L145 173Q110 218 95 246T80 306Q80 343 109 369T205 427Q261 453
283 470T305 514Q305 536 282 552T223 568Q166 568 85 534L40 658Q134 700 237 700ZM157 -13T128 9T99 65Q99 100 127 123T197 146Q239 146 267 124T295 65Q295 31 267 9T197 -13Q157 -13 128 9Z" />
<glyph unicode="@" glyph-name="at" horiz-adv-x="946" d="M616 667T712 611T859 467T911 286Q911 205 884 148T812 61T715 32Q669 32 635 52T581 105Q545 69 496 48T397 26Q340 26 298 57T255 150Q255 213 309 246T435 279Q502 279 560 261V285Q560 311 534 324T468
337Q392 337 305 298L278 394Q335 418 386 429T493 441Q588 441 636 398T685 279V194Q685 156 699 135T739 114Q774 114 800 157T826 286Q826 363 784 435T665 553T490 598Q390 598 306 549T171 415T121 226Q121 130 164 53T281 -69T437 -113Q497 -113 552 -95T640
-53L671 -119Q638 -146 577 -164T440 -183Q337 -183 245 -136T95 5T37 229Q37 362 99 461T266 614T490 667Q616 667 712 611ZM460 128T494 138T561 168Q560 172 560 180V182Q518 191 471 191Q437 191 417 185T396 156Q396 139 405 134T437 128Q460 128 494 138Z"
/>
<glyph unicode="A" glyph-name="A" horiz-adv-x="833" d="M820 127V0H470V127H571L533 227H282L245 127H356V0H13V127H94L278 560H207V686H622V560H552L737 127H820ZM491 339L408 560H407L324 339H491Z" />
<glyph unicode="B" glyph-name="B" horiz-adv-x="757" d="M724 320T724 194Q724 102 654 51T451 0H33V127H145V559H33V686H429Q546 686 607 635T669 501Q669 411 588 360Q724 320 724 194ZM304 559V398H390Q447 398 477 417T507 480Q507 522 481 540T420 559H304ZM562
127T562 207Q562 247 535 265T451 284H304V127H440Q562 127 562 207Z" />
<glyph unicode="C" glyph-name="C" horiz-adv-x="758" d="M732 163Q677 79 596 33T408 -13Q304 -13 218 34T83 162T33 341Q33 445 79 527T203 654T372 700Q490 700 568 627V686H713V447L606 437Q578 497 526 535T398 573Q347 573 302 546T230 466T202 343Q202
281 229 230T304 148T408 118Q484 118 534 150T628 248L732 163Z" />
<glyph unicode="D" glyph-name="D" horiz-adv-x="817" d="M479 686T572 650T724 537T784 343Q784 227 725 150T572 36T376 0H33V127H145V559H33V686H376Q479 686 572 650ZM463 127T539 172T615 343Q615 559 358 559H307V127H358Q463 127 539 172Z" />
<glyph unicode="E" glyph-name="E" horiz-adv-x="807" d="M600 431V559H303V392H408V471H527V199H408V278H303V127H600V255H741V0H33V127H144V559H33V686H741V431H600Z" />
<glyph unicode="F" glyph-name="F" horiz-adv-x="740" d="M707 686V422H566V559H304V391H392V470H510V197H392V277H304V127H424V0H33V127H145V559H33V686H707Z" />
<glyph unicode="G" glyph-name="G" horiz-adv-x="792" d="M356 573T308 546T231 467T202 343Q202 277 229 226T306 146T419 117Q476 117 516 129T592 163V253H409V372H737V93Q683 46 599 16T419 -14Q301 -14 214 33T80 161T33 343Q33 441 78 523T202 652T375 700Q441
700 496 681T595 624V686H737V458L631 451Q600 501 545 537T417 573Q356 573 308 546Z" />
<glyph unicode="H" glyph-name="H" horiz-adv-x="922" d="M778 559V127H889V0H504V127H615V290H308V127H418V0H33V127H145V559H33V686H418V559H308V409H615V559H504V686H889V559H778Z" />
<glyph unicode="I" glyph-name="I" horiz-adv-x="453" d="M307 559V127H420V0H33V127H145V559H33V686H420V559H307Z" />
<glyph unicode="J" glyph-name="J" horiz-adv-x="564" d="M557 559H449V223Q449 150 417 97T328 15T204 -13Q142 -13 88 7T2 57L68 167Q95 147 127 133T189 118Q287 118 287 231L285 559H117V686H557V559Z" />
<glyph unicode="K" glyph-name="K" horiz-adv-x="864" d="M857 127V0H510V127H586L434 294L307 192V127H409V0H33V127H145V559H33V686H409V559H307V336L585 559H495V686H840V559H764L547 385L790 127H857Z" />
<glyph unicode="L" glyph-name="L" horiz-adv-x="732" d="M699 288V0H33V127H145V559H33V686H417V559H306V127H547V288H699Z" />
<glyph unicode="M" glyph-name="M" horiz-adv-x="1115" d="M970 559V127H1082V0H707V127H812V276Q812 349 835 478L598 -1H509L277 467Q295 341 295 276V127H400V0H33V127H145V559H33V686H322L559 213L792 686H1082V559H970Z" />
<glyph unicode="N" glyph-name="N" horiz-adv-x="943" d="M923 559H817V-6L730 -7L297 470V127H409V0H33V127H145V559H33V686H297L669 265V559H557V686H923V559Z" />
<glyph unicode="O" glyph-name="O" horiz-adv-x="814" d="M302 -13T216 34T82 163T33 343Q33 441 81 523T216 652T408 700Q513 700 598 653T732 523T781 343Q781 245 733 164T599 35T408 -13Q302 -13 216 34ZM470 118T516 148T587 230T612 343Q612 405 588 456T517
538T408 569Q344 569 298 538T227 456T202 343Q202 281 226 230T297 148T408 118Q470 118 516 148Z" />
<glyph unicode="P" glyph-name="P" horiz-adv-x="738" d="M518 686T580 659T677 581T712 464Q712 395 679 343T583 261T438 232H304V127H427V0H33V127H145V559H33V686H436Q518 686 580 659ZM552 359T552 466Q552 517 515 538T425 559H304V360L429 359Q552 359 552 466Z" />
<glyph unicode="Q" glyph-name="Q" horiz-adv-x="811" d="M804 -94Q751 -110 702 -110Q646 -110 594 -84T496 -4Q454 -13 408 -13Q302 -13 216 34T82 163T33 343Q33 441 81 523T216 652T408 700Q513 700 598 653T732 523T781 343Q781 254 741 179T630 54Q671 19
725 19Q759 19 785 25L804 -94ZM326 575T273 527T203 403H253Q342 403 408 368T521 233L551 169Q583 201 600 246T617 343Q617 407 592 460T520 544T407 575Q326 575 273 527ZM419 112T425 113Q424 113 424 113T424 114L394 183Q367 241 336 264T253 288H202Q217
210 270 161T407 112Q419 112 425 113Z" />
<glyph unicode="R" glyph-name="R" horiz-adv-x="798" d="M824 58Q795 26 760 6T671 -14Q575 -14 512 52T416 260L413 273H307V126H414V0H33V127H145V559H33V686H444Q568 686 643 633T718 481Q718 403 676 353T555 283L560 268Q584 193 614 164T681 134Q703 134
719 141T750 163L824 58ZM307 392H449Q491 392 524 413T558 481Q558 523 526 541T449 559H307V392Z" />
<glyph unicode="S" glyph-name="S" horiz-adv-x="720" d="M541 377T614 324T687 183Q687 122 656 78T571 11T449 -13Q385 -13 326 12T209 83V1H68V251L168 256Q220 193 298 154T438 114Q475 114 496 127T518 166Q518 197 469 223T299 282Q179 315 124 368T69 503Q69
562 102 606T189 675T304 700Q427 700 510 623V686H651V443L556 438Q523 502 465 537T345 573Q297 573 268 556T238 510Q238 482 275 462T409 415Q541 377 614 324Z" />
<glyph unicode="T" glyph-name="T" horiz-adv-x="790" d="M763 686V422H622V559H476V127H585V0H204V127H314V559H167V422H26V686H763Z" />
<glyph unicode="U" glyph-name="U" horiz-adv-x="886" d="M879 559H768V272Q768 190 726 125T609 24T443 -13Q349 -13 275 23T160 124T119 272V559H7V686H379V559H282L281 282Q281 209 327 164T443 118Q489 118 526 139T585 197T606 284L604 559H506V686H879V559Z" />
<glyph unicode="V" glyph-name="V" horiz-adv-x="831" d="M831 559H727L457 -13H372L104 559H0V686H361V559H270L425 200L574 559H473V686H831V559Z" />
<glyph unicode="W" glyph-name="W" horiz-adv-x="1170" d="M1170 559H1070L864 -13H779L575 417L392 -13H308L97 559H0V686H366V559H265L368 241L539 673H634L822 239L918 559H818V686H1170V559Z" />
<glyph unicode="X" glyph-name="X" horiz-adv-x="807" d="M504 356L725 127H794V0H436V113H523L389 263L251 113H341V0H13V127H94L299 340L82 559H13V686H369V573H282L415 433L549 573H463V686H794V559H704L504 356Z" />
<glyph unicode="Y" glyph-name="Y" horiz-adv-x="796" d="M480 283V127H594V0H204V127H318V277L90 559H13V686H342V559H280L418 383L544 559H454V686H783V559H699L480 283Z" />
<glyph unicode="Z" glyph-name="Z" horiz-adv-x="765" d="M64 113L460 523Q474 536 495 546T534 561L532 569Q492 560 453 560H200V422H59V686H706V573L309 161Q296 147 274 138T235 125L237 118Q282 127 316 127H571V264H712V0H64V113Z" />
<glyph unicode="[" glyph-name="bracketleft" horiz-adv-x="364" d="M244 730V-46H352V-173H107V857H352V730H244Z" />
<glyph unicode="\" glyph-name="backslash" horiz-adv-x="556" d="M22 740H157L542 -105H408L22 740Z" />
<glyph unicode="]" glyph-name="bracketright" horiz-adv-x="364" d="M257 -173H12V-46H120V730H12V857H257V-173Z" />
<glyph unicode="^" glyph-name="asciicircum" horiz-adv-x="548" d="M377 429L277 656L171 429H21L230 813H330L526 429H377Z" />
<glyph unicode="_" glyph-name="underscore" horiz-adv-x="435" d="M448 -217H-13V-90H448V-217Z" />
<glyph unicode="a" glyph-name="a" horiz-adv-x="615" d="M608 14Q592 5 566 -1T510 -8Q471 -8 440 13T394 75Q302 -14 200 -14Q132 -14 86 25T40 137Q40 188 69 224T144 279T239 297Q282 297 316 289T385 266V295Q385 325 355 340T276 356Q241 356 195 346T100
317L70 431Q196 483 298 483Q411 483 470 430T529 288V146Q529 117 554 117Q567 117 579 121L608 14ZM191 127T206 119T245 110Q269 110 306 124T385 169V171Q330 190 270 190Q236 189 214 178T191 145Q191 127 206 119Z" />
<glyph unicode="b" glyph-name="b" horiz-adv-x="657" d="M471 484T521 452T601 362T631 235Q631 165 599 108T509 19T378 -14Q283 -14 209 62L166 0H80V567H0V686H229V380Q269 429 317 456T414 484Q471 484 521 452ZM400 113T436 147T472 237Q472 289 442 323T361
357Q331 357 296 335T229 271V156Q287 113 339 113Q400 113 436 147Z" />
<glyph unicode="c" glyph-name="c" horiz-adv-x="530" d="M513 73Q467 31 409 9T288 -14Q216 -14 156 19T61 109T26 238Q26 305 58 361T145 451T262 484Q307 484 338 472T395 433V471H499V299L435 295Q384 361 311 361Q256 361 221 328T185 240Q185 184 220 149T308
113Q348 113 381 127T451 172L513 73Z" />
<glyph unicode="d" glyph-name="d" horiz-adv-x="658" d="M651 14Q635 5 610 -1T557 -8Q517 -8 486 10T438 61Q357 -14 262 -14Q200 -14 146 18T59 107T26 233Q26 304 58 361T148 451T278 484Q358 484 423 431V567H330V686H572V146Q572 117 596 117Q610 117 620
121L651 14ZM185 181T217 147T304 113Q358 113 423 164V317Q368 357 318 357Q257 357 221 323T185 233Q185 181 217 147Z" />
<glyph unicode="e" glyph-name="e" horiz-adv-x="569" d="M546 74Q499 33 438 10T303 -14Q231 -14 168 14T65 97T26 227Q26 302 65 361T168 452T306 484Q371 484 421 465T500 411T529 330Q529 260 472 223T332 185Q286 185 248 194T171 221Q175 170 214 142T309
113Q406 113 484 173L546 74ZM281 367T247 349T192 301Q241 285 293 285Q334 286 355 297T377 330Q377 346 361 356T318 367Q281 367 247 349Z" />
<glyph unicode="f" glyph-name="f" horiz-adv-x="448" d="M318 606T294 583T270 532V471H410V352H270V119H398V0H26V119H120V352H26V471H120V529Q120 589 147 635T224 707T339 733Q388 733 427 723T515 692L462 576Q434 592 411 599T359 606Q318 606 294 583Z" />
<glyph unicode="g" glyph-name="g" horiz-adv-x="569" d="M472 103T516 68T560 -34Q560 -88 517 -128T401 -191T237 -213Q135 -213 71 -179T7 -78Q7 -28 62 20Q24 51 24 100Q24 135 43 164T95 214Q57 255 57 312Q57 366 91 405T178 464T284 484Q338 484 387 467Q404
520 447 545T550 570V448Q489 448 457 430Q513 384 513 315Q513 260 478 221T390 163T284 143Q222 143 165 166Q154 150 154 136Q154 100 207 100L291 101Q353 103 398 103Q472 103 516 68ZM247 381T226 361T205 312Q205 284 226 265T285 246Q321 246 342 266T364
315Q364 343 343 362T285 381Q247 381 226 361ZM323 -92T372 -79T422 -44Q422 -27 409 -20T365 -13Q349 -13 299 -15Q233 -19 176 -19Q159 -19 142 -16Q136 -30 136 -45Q136 -69 165 -80T257 -92Q323 -92 372 -79Z" />
<glyph unicode="h" glyph-name="h" horiz-adv-x="733" d="M726 119V0H418V119H494V250Q494 294 471 321T405 348Q341 348 266 260V119H341V0H20V119H114V567H20V686H266V372Q317 430 364 456T470 483Q559 483 602 425T646 250V119H726Z" />
<glyph unicode="i" glyph-name="i" horiz-adv-x="370" d="M146 543T118 565T90 620Q90 655 118 677T187 700Q231 700 258 678T286 620Q286 587 258 565T187 543Q146 543 118 565ZM367 119V0H26V119H120V352H26V471H272V119H367Z" />
<glyph unicode="j" glyph-name="j" horiz-adv-x="359" d="M153 543T125 565T97 620Q97 655 125 677T194 700Q238 700 265 678T293 620Q293 587 265 565T194 543Q153 543 125 565ZM277 4Q277 -74 248 -128T168 -210T53 -238Q17 -238 -6 -233T-60 -217L-79 -211L-42
-86Q-9 -97 7 -101T46 -105Q83 -105 104 -78T125 1V352H33V471H277V4Z" />
<glyph unicode="k" glyph-name="k" horiz-adv-x="706" d="M719 58Q690 22 657 4T574 -14Q501 -14 451 37T386 175Q324 181 262 211V119H339V0H20V119H113V567H20V686H262V391Q357 484 460 484Q535 484 586 446T638 333Q638 280 604 243T516 188Q522 157 540 138T581
118Q618 118 642 144L719 58ZM330 279T380 279Q423 279 451 290T479 325Q479 361 416 361Q389 361 352 346T274 300Q330 279 380 279Z" />
<glyph unicode="l" glyph-name="l" horiz-adv-x="364" d="M361 119V0H20V119H113V567H20V686H265V119H361Z" />
<glyph unicode="m" glyph-name="m" horiz-adv-x="1078" d="M1071 119V0H765V119H839V256Q839 292 820 316T765 341Q698 341 633 261V256V119H707V0H405V119H481V256Q481 292 461 316T405 341Q339 341 272 260V119H348V0H26V119H120V352H26V471H272V382Q312 431
360 457T462 483Q519 483 559 453T618 364Q660 422 712 452T821 483Q901 483 946 425T991 256V119H1071Z" />
<glyph unicode="n" glyph-name="n" horiz-adv-x="745" d="M738 119V0H430V119H506V250Q506 290 483 315T417 341Q347 341 272 251V119H348V0H26V119H120V352H26V471H272V366Q325 427 371 455T474 483Q564 483 611 424T658 250V119H738Z" />
<glyph unicode="o" glyph-name="o" horiz-adv-x="596" d="M227 -14T165 17T64 105T26 235Q26 308 64 365T164 453T298 484Q367 484 429 453T531 365T570 235Q570 162 533 105T434 17T298 -14Q227 -14 165 17ZM346 105T378 140T411 235Q411 294 379 329T298 365Q250
365 218 330T185 235Q185 176 217 141T298 105Q346 105 378 140Z" />
<glyph unicode="p" glyph-name="p" horiz-adv-x="681" d="M495 484T545 452T625 362T655 235Q655 165 623 108T533 19T403 -14Q319 -14 253 43V-99H344V-218H11V-99H104V352H11V471H253V380Q293 430 341 457T437 484Q495 484 545 452ZM425 113T460 147T496 237Q496
289 466 323T385 357Q354 357 320 335T253 272V156Q311 113 363 113Q425 113 460 147Z" />
<glyph unicode="q" glyph-name="q" horiz-adv-x="661" d="M602 361T646 317V165Q604 209 542 254V-99H635V-218H285V-99H393V33Q329 -14 250 -14Q189 -14 138 18T57 107T26 235Q26 306 61 363T156 452T289 484Q366 484 451 448L490 486H542V399Q602 361 646 317ZM393
341Q350 357 319 357Q262 357 224 323T185 235Q185 183 216 148T302 113Q349 113 393 143V341Z" />
<glyph unicode="r" glyph-name="r" horiz-adv-x="567" d="M527 483V263H396V331Q376 332 342 310T272 249V119H367V0H26V119H120V352H26V471H272V368Q320 421 372 452T470 483H527Z" />
<glyph unicode="s" glyph-name="s" horiz-adv-x="513" d="M390 271T436 230T483 127Q483 87 460 55T396 5T303 -14Q202 -14 138 44V-1H32V156L99 161Q123 126 174 104T266 82Q294 82 309 90T325 113Q325 128 301 142T206 176Q115 201 72 240T29 341Q29 380 50
412T110 464T199 484Q289 484 347 427V471H453V315L387 309Q334 388 245 388Q218 388 203 380T187 358Q187 343 210 331T299 298Q390 271 436 230Z" />
<glyph unicode="t" glyph-name="t" horiz-adv-x="444" d="M458 39Q423 14 383 1T292 -13Q201 -13 150 44T99 199V352H7V471H99V602H251V471H384V352H251V199Q251 162 267 141T319 120Q341 120 361 127T407 151L458 39Z" />
<glyph unicode="u" glyph-name="u" horiz-adv-x="676" d="M669 14Q653 5 628 -1T576 -8Q526 -8 490 17T443 89Q395 36 352 12T260 -13Q174 -13 128 46T81 222V352H0V471H233V222Q233 178 252 153T317 128Q373 128 438 199V352H364V471H590V146Q590 117 615 117Q629
117 639 121L669 14Z" />
<glyph unicode="v" glyph-name="v" horiz-adv-x="652" d="M633 352H573L371 -13H286L77 352H20V471H296V365H236L344 161L447 365H381V471H633V352Z" />
<glyph unicode="w" glyph-name="w" horiz-adv-x="893" d="M873 352H815L662 -13H579L447 255L316 -13H231L82 352H20V471H305V365H228L294 179L417 458H510L628 185L692 365H616V471H873V352Z" />
<glyph unicode="x" glyph-name="x" horiz-adv-x="635" d="M408 244L548 118H602V-1H321V105H368L298 169L222 105H276V-1H33V118H89L227 227L87 352H33V471H316V365H266L337 302L413 365H361V471H602V352H545L408 244Z" />
<glyph unicode="y" glyph-name="y" horiz-adv-x="653" d="M634 352H581L405 -26Q354 -137 295 -187T156 -238Q114 -238 81 -226T7 -189L65 -74Q116 -105 156 -105Q198 -105 227 -83T283 -6L91 352H34V471H316V365H251L352 148L449 365H387V471H634V352Z" />
<glyph unicode="z" glyph-name="z" horiz-adv-x="596" d="M574 161Q567 106 536 67T462 7T376 -14Q320 -14 280 6T191 72Q165 39 144 -14L20 37Q44 104 83 150T161 225T255 284L278 298L316 321Q263 356 171 356V263H44V484H134Q204 484 250 473T328 441T398 384Q427
420 442 486L569 437Q549 368 522 323T456 248T358 190Q293 159 265 140Q310 113 351 113Q384 113 409 138T444 198L574 161Z" />
<glyph unicode="{" glyph-name="braceleft" horiz-adv-x="491" d="M360 -77T388 -70T449 -48L491 -166Q441 -186 403 -195T308 -205Q251 -205 204 -184T128 -124T100 -31Q100 15 122 49T188 128Q217 157 230 174T243 210Q243 250 211 267T117 282H59V392H117Q180
392 211 408T243 463Q243 480 230 497T189 544Q147 587 124 622T100 704Q100 757 128 796T203 857T308 878Q365 878 403 869T491 839L449 722Q413 736 386 743T330 750Q293 750 270 737T246 694Q246 678 258 663T295 624Q335 586 356 555T378 477Q378 420 341 385T239
337Q304 324 341 289T378 196Q378 150 357 119T296 50Q270 26 258 11T246 -21Q246 -51 269 -64T330 -77Q360 -77 388 -70Z" />
<glyph unicode="|" glyph-name="bar" horiz-adv-x="374" d="M259 837V-193H114V837H259Z" />
<glyph unicode="}" glyph-name="braceright" horiz-adv-x="491" d="M312 282T281 266T249 210Q249 193 261 176T302 130Q344 87 367 51T391 -31Q391 -84 364 -123T289 -184T184 -205Q127 -205 89 -196T0 -166L42 -48Q78 -63 105 -70T161 -77Q198 -77 221 -64T244
-21Q244 -4 232 11T194 50Q155 87 134 118T112 196Q112 253 149 288T251 337Q187 350 150 385T112 477Q112 523 133 554T195 624Q220 647 232 662T244 694Q244 724 221 737T161 750Q132 750 105 743T42 722L0 839Q51 859 89 868T184 878Q241 878 288 857T363 797T391
704Q391 658 369 624T303 545Q274 515 262 498T249 463Q249 423 281 407T375 392H431V282H375Q312 282 281 266Z" />
<glyph unicode="~" glyph-name="asciitilde" horiz-adv-x="705" d="M422 180T385 203T306 270Q274 304 260 315T232 326Q206 326 193 296T178 200L51 204Q52 309 96 381T232 453Q283 453 319 432T395 370Q428 334 443 321T474 308Q527 308 527 433L655 430Q653
324 610 252T474 180Q422 180 385 203Z" />
<glyph unicode="&#xa0;" glyph-name="uni00A0" horiz-adv-x="304" />
<glyph unicode="&#xa1;" glyph-name="exclamdown" horiz-adv-x="378" d="M142 540T113 564T83 628Q83 665 112 689T189 713Q233 713 263 689T294 628Q294 590 264 565T189 540Q142 540 113 564ZM233 357Q243 298 270 192Q284 136 290 104T297 49Q297 5 271 -25T189
-55Q134 -55 108 -25T81 49Q81 68 86 92T103 161Q119 224 128 265T143 357L158 503H218L233 357Z" />
<glyph unicode="&#xa2;" glyph-name="cent" horiz-adv-x="573" d="M504 125T465 105T376 76V-13H260V77Q169 94 107 153T44 310Q44 374 74 425T153 508T260 547V634H376V532Q396 523 416 506V540H520V370L444 369Q412 412 369 425V192Q419 206 468 257L539 156Q504
125 465 105ZM197 272T216 242T268 198V422Q236 407 217 378T197 310Q197 272 216 242Z" />
<glyph unicode="&#xa3;" glyph-name="sterling" horiz-adv-x="685" d="M678 163Q663 81 608 34T473 -13Q435 -13 394 6T314 56Q281 23 229 5T108 -13H67V112H108Q139 112 170 125T202 176V185H70V270H173Q163 288 159 297H70V383H120Q113 411 113 431Q113 492
141 538T219 609T331 634Q430 634 507 581V620H635V420L556 414Q516 469 464 492T364 515Q321 515 292 494T262 431Q262 411 272 383H509V297H314Q318 288 328 270H509V185H358Q359 179 359 166V156Q424 113 474 113Q515 113 534 136T567 200L678 163Z" />
<glyph unicode="&#xa4;" glyph-name="currency" horiz-adv-x="550" d="M468 229T426 179L509 80L453 28L367 132Q323 110 273 110Q224 110 184 131L98 28L41 80L123 178Q77 229 77 298Q77 367 121 419L41 515L98 568L183 466Q226 486 273 486Q323 486 368 465L453
568L509 515L427 417Q468 368 468 298Q468 229 426 179ZM307 212T328 237T350 298Q350 336 329 359T273 383Q240 383 218 359T196 298Q196 263 218 238T273 212Q307 212 328 237Z" />
<glyph unicode="&#xa5;" glyph-name="yen" horiz-adv-x="857" d="M704 494L622 395H765V318H558L537 292H765V213H507V127H627V0H232V127H352V213H92V292H315L292 318H92V395H223L135 494H66V620H370V494H312L439 340L556 494H495V620H791V494H704Z" />
<glyph unicode="&#xa6;" glyph-name="brokenbar" horiz-adv-x="374" d="M259 837V402H114V837H259ZM259 243V-193H114V243H259Z" />
<glyph unicode="&#xa7;" glyph-name="section" horiz-adv-x="773" d="M740 128T704 84T590 10Q625 -22 643 -58T661 -131Q661 -189 633 -233T555 -302T443 -326Q383 -326 335 -308T244 -251V-312H99V-70L194 -65Q229 -118 297 -158T424 -199Q456 -199 474 -185T493
-147Q493 -121 453 -99T316 -47Q182 -9 109 45T35 186Q35 303 185 363Q150 395 132 431T114 504Q114 562 143 606T221 675T332 700Q450 700 532 624V686H675V443L581 438Q548 491 479 532T351 573Q320 573 302 559T284 521Q284 494 324 471T461 421Q594 383 667
329T740 187Q740 128 704 84ZM460 92T512 65Q572 96 572 147Q572 176 551 195T491 229T378 264Q314 282 264 308Q205 278 205 226Q205 197 225 178T284 145T397 110Q460 92 512 65Z" />
<glyph unicode="&#xa9;" glyph-name="copyright" horiz-adv-x="1022" d="M646 685T754 627T924 465T985 233Q985 105 924 2T755 -159T510 -218Q376 -218 268 -159T99 3T37 233Q37 361 98 464T267 626T510 685Q646 685 754 627ZM622 -143T710 -94T847 41T895 233Q896
340 848 425T711 560T510 609Q398 609 311 560T174 426T125 233Q125 127 174 42T311 -93T510 -143Q622 -143 710 -94ZM557 114T589 133T653 190L722 111Q641 4 514 4Q445 4 390 31T302 109T270 223Q270 290 300 340T379 417T488 444Q570 444 622 397V440H717V277L635
272Q616 306 588 327T516 348Q485 348 458 332T413 288T396 223Q396 175 432 145T517 114Q557 114 589 133Z" />
<glyph unicode="&#xaa;" glyph-name="ordfeminine" horiz-adv-x="414" d="M395 527V486Q395 451 374 431T321 410Q267 410 249 452Q194 407 140 407Q98 407 69 429T40 493Q40 534 74 558T153 582Q190 582 243 571V583Q243 605 226 615T184 625Q137 625 74 596L54
661Q97 680 128 688T196 697Q260 697 294 666T328 581V484Q328 466 341 466Q352 466 352 486V527H395ZM136 488T143 482T166 476Q197 476 243 505V516Q210 521 177 521Q160 521 148 515T136 496Q136 488 143 482ZM52 343H381V279H52V343Z" />
<glyph unicode="&#xab;" glyph-name="guillemotleft" horiz-adv-x="878" d="M310 230T384 174T490 19L374 -26Q342 77 266 128T67 179H54V309H66Q310 309 371 515L488 471Q458 373 384 316T177 245Q310 230 384 174ZM672 230T746 174T851 19L735 -26Q703 79 631
129T429 179H416V309H428Q557 309 629 359T733 515L850 471Q820 373 746 316T539 245Q672 230 746 174Z" />
<glyph unicode="&#xac;" glyph-name="logicalnot" horiz-adv-x="622" d="M580 100H453V345H46V473H580V100Z" />
<glyph unicode="&#xad;" glyph-name="uni00AD" horiz-adv-x="318" d="M293 172H25V301H293V172Z" />
<glyph unicode="&#xae;" glyph-name="registered" horiz-adv-x="1022" d="M646 685T754 627T924 465T985 233Q985 105 924 2T755 -159T510 -218Q376 -218 268 -159T99 3T37 233Q37 361 98 464T267 626T510 685Q646 685 754 627ZM622 -143T710 -94T847 41T895 233Q896
340 848 425T711 560T510 609Q398 609 311 560T174 426T125 233Q125 127 174 42T311 -93T510 -143Q622 -143 710 -94ZM691 147H788V125Q788 74 757 41T674 8Q621 8 591 39T539 121Q526 152 517 167T495 187H451V95H520V15H282V95H348V355H282V438H553Q631 438 672
405T714 316Q714 273 684 238T598 191Q608 184 615 175T627 157T634 143Q637 138 643 125T655 106T669 101Q680 101 685 108T691 125V147ZM451 270H553Q573 270 589 281T606 316Q606 336 591 345T553 355H451V270Z" />
<glyph unicode="&#xb0;" glyph-name="degree" horiz-adv-x="441" d="M175 476T135 498T70 558T46 642Q46 690 70 727T134 786T222 807Q298 807 346 762T395 642Q395 596 373 558T311 498T222 476Q175 476 135 498ZM252 568T270 590T289 642Q289 675 271 695T222
715Q193 715 173 695T153 642Q153 612 173 590T222 568Q252 568 270 590Z" />
<glyph unicode="&#xb1;" glyph-name="plusminus" horiz-adv-x="590" d="M503 474V345H356V226H227V345H88V474H227V593H356V474H503ZM88 176H497V48H88V176Z" />
<glyph unicode="&#xb2;" glyph-name="uni00B2" horiz-adv-x="371" d="M346 548V420H18V494Q25 582 159 626Q214 644 229 653T245 677Q245 695 230 706T183 717Q154 717 122 702T60 660L14 716Q48 749 96 770T194 792Q253 792 295 762T337 678Q337 634 304 608T200
556Q154 539 134 526T109 494H272V548H346Z" />
<glyph unicode="&#xb3;" glyph-name="uni00B3" horiz-adv-x="363" d="M296 585T318 564T341 506Q341 463 294 435T177 407Q85 407 11 457L52 524Q80 507 113 496T178 484Q205 484 222 492T240 517Q240 538 214 546T125 554H78V629H125Q176 629 201 638T226 671Q226
687 212 696T176 706Q130 706 64 653L14 714Q42 743 86 763T179 784Q244 784 285 756T326 680Q326 652 306 631T251 596Q296 585 318 564Z" />
<glyph unicode="&#xb5;" glyph-name="uni00B5" horiz-adv-x="693" d="M686 14Q670 5 646 -1T594 -8Q548 -8 514 13T464 75Q431 31 398 9T323 -13Q259 -13 226 21Q230 2 237 -24Q247 -67 251 -92T256 -141V-218H107V344H11V471H256V222Q256 177 274 153T339 128Q391
128 455 196V471H607V146Q607 117 633 117Q646 117 656 121L686 14Z" />
<glyph unicode="&#xb6;" glyph-name="paragraph" horiz-adv-x="850" d="M765 686V12Q765 -80 725 -140T624 -227T497 -255Q421 -255 346 -233T193 -176L244 -53Q313 -89 388 -108V215Q341 200 297 200Q223 200 158 231T54 319T14 449Q14 521 52 578T158 667T311
700Q394 700 477 672T628 600V686H765ZM360 329T388 335V568Q354 574 319 574Q286 574 255 558T204 514T184 449Q184 391 224 361T322 329Q360 329 388 335ZM568 -105T598 -74T628 13V456Q574 496 524 521V-116Q568 -105 598 -74Z" />
<glyph unicode="&#xb7;" glyph-name="middot" horiz-adv-x="308" d="M110 243T79 267T48 328Q48 365 79 390T154 416Q201 416 230 391T260 328Q260 290 231 267T154 243Q110 243 79 267Z" />
<glyph unicode="&#xb9;" glyph-name="uni00B9" horiz-adv-x="304" d="M283 504V420H42V504H121V657Q98 628 62 618L29 706Q63 713 87 732T121 783H227V504H283Z" />
<glyph unicode="&#xba;" glyph-name="ordmasculine" horiz-adv-x="422" d="M166 404T128 422T67 473T44 550Q44 593 66 627T127 679T211 697Q255 698 294 680T357 627T381 550Q381 485 332 445T211 404Q166 404 128 422ZM242 476T262 496T283 550Q283 583 263
604T211 625Q181 625 161 604T140 550Q140 516 160 496T211 476Q242 476 262 496ZM367 343V279H57V343H367Z" />
<glyph unicode="&#xbb;" glyph-name="guillemotright" horiz-adv-x="878" d="M450 178Q331 178 254 122T145 -41L28 2Q61 105 138 166T352 242Q213 254 136 311T26 469L143 513Q174 409 250 358T449 306H462V178H450ZM824 306V178H812Q693 178 616 122T507 -41L389
2Q423 105 500 166T714 242Q575 254 497 311T388 469L504 513Q536 409 612 358T811 306H824Z" />
<glyph unicode="&#xbc;" glyph-name="onequarter" horiz-adv-x="837" d="M283 354V270H42V354H121V507Q98 478 62 468L29 556Q63 563 87 582T121 633H227V354H283ZM570 738L667 699L476 303L311 -110L213 -70L405 328L570 738ZM838 55H772V-13H666V55H447V141L666
367H772V141H838V55ZM666 141V261L547 141H666Z" />
<glyph unicode="&#xbd;" glyph-name="onehalf" horiz-adv-x="880" d="M283 354V270H42V354H121V507Q98 478 62 468L29 556Q63 563 87 582T121 633H227V354H283ZM570 738L667 699L476 303L311 -110L213 -70L405 328L570 738ZM859 128V0H531V74Q538 162 672 206Q727
224 742 233T758 257Q758 275 743 286T696 297Q667 297 635 282T573 240L527 296Q561 329 609 350T707 372Q766 372 808 342T850 258Q850 214 817 188T713 136Q667 119 647 106T622 74H785V128H859Z" />
<glyph unicode="&#xbe;" glyph-name="threequarters" horiz-adv-x="856" d="M341 425T341 355Q341 312 294 284T177 256Q85 256 11 306L52 374Q79 356 112 345T178 334Q205 334 222 342T240 367Q240 388 214 396T125 404H78V480H125Q176 480 201 489T226 520Q226
536 212 546T176 556Q130 556 64 503L14 563Q41 593 86 613T179 634Q244 634 285 606T326 529Q326 501 306 480T250 445Q341 425 341 355ZM589 738L686 699L495 303L330 -110L232 -70L424 328L589 738ZM857 55H791V-13H685V55H466V141L685 367H791V141H857V55ZM685
141V261L566 141H685Z" />
<glyph unicode="&#xbf;" glyph-name="questiondown" horiz-adv-x="534" d="M377 697T406 675T435 619Q435 584 407 561T337 538Q295 538 267 560T239 619Q239 653 267 675T337 697Q377 697 406 675ZM400 -16T297 -16Q230 -16 176 6T91 70T60 165Q60 225 103 269T224
354Q283 385 305 398T337 423T347 451Q347 468 340 494L389 511Q424 466 439 438T454 378Q454 341 425 315T329 257Q273 231 251 214T229 170Q229 148 252 132T311 116Q368 116 449 150L494 26Q400 -16 297 -16Z" />
<glyph unicode="&#xc0;" glyph-name="Agrave" horiz-adv-x="833" d="M820 127V0H470V127H571L533 227H282L245 127H356V0H13V127H94L278 560H207V686H622V560H552L737 127H820ZM491 339L408 560H407L324 339H491ZM330 977L254 867L479 746L518 803L330 977Z" />
<glyph unicode="&#xc1;" glyph-name="Aacute" horiz-adv-x="833" d="M820 127V0H470V127H571L533 227H282L245 127H356V0H13V127H94L278 560H207V686H622V560H552L737 127H820ZM491 339L408 560H407L324 339H491ZM344 746L568 867L491 977L304 803L344 746Z" />
<glyph unicode="&#xc2;" glyph-name="Acircumflex" horiz-adv-x="833" d="M820 127V0H470V127H571L533 227H282L245 127H356V0H13V127H94L278 560H207V686H622V560H552L737 127H820ZM491 339L408 560H407L324 339H491ZM230 791L375 964H449L594 791L548 749L410
847L276 749L230 791Z" />
<glyph unicode="&#xc3;" glyph-name="Atilde" horiz-adv-x="833" d="M820 127V0H470V127H571L533 227H282L245 127H356V0H13V127H94L278 560H207V686H622V560H552L737 127H820ZM491 339L408 560H407L324 339H491ZM445 748T422 762T369 805Q346 829 335 837T312
846Q292 846 285 824T273 761L189 770Q189 834 222 881T312 928Q350 928 373 914T427 871Q448 849 458 840T481 831Q501 831 509 852T521 913L605 906Q605 842 572 795T481 748Q445 748 422 762Z" />
<glyph unicode="&#xc4;" glyph-name="Adieresis" horiz-adv-x="833" d="M820 127V0H470V127H571L533 227H282L245 127H356V0H13V127H94L278 560H207V686H622V560H552L737 127H820ZM491 339L408 560H407L324 339H491ZM257 1031T233 1050T208 1099Q208 1129 232
1149T291 1170Q326 1170 349 1150T372 1099Q372 1070 349 1051T291 1031Q257 1031 233 1050ZM492 1031T468 1050T444 1099Q444 1129 468 1149T525 1170Q560 1170 584 1150T608 1099Q608 1070 584 1051T525 1031Q492 1031 468 1050Z" />
<glyph unicode="&#xc5;" glyph-name="Aring" horiz-adv-x="833" d="M820 127V0H470V127H571L533 227H282L245 127H356V0H13V127H94L278 560H207V686H622V560H552L737 127H820ZM491 339L408 560H407L324 339H491ZM373 741T341 760T288 811T268 882Q268 922 287
954T340 1003T411 1021Q449 1021 482 1002T536 951T556 880Q556 839 536 808T483 759T411 741Q373 741 341 760ZM437 816T456 834T476 880Q476 907 456 926T411 946Q386 946 368 928T349 882Q349 855 367 836T411 816Q437 816 456 834Z" />
<glyph unicode="&#xc6;" glyph-name="AE" horiz-adv-x="1195" d="M986 437V560H627L671 395H787V471H905V199H787V276H703L743 127H986V255H1129V0H463V127H582L556 230H292L230 127H321V0H1V18H0L1 20V127H69L344 560H277V686H1129V437H986ZM528 342L478 540L359
342H528Z" />
<glyph unicode="&#xc7;" glyph-name="Ccedilla" horiz-adv-x="758" d="M677 79T596 33T408 -13L388 -61H402Q448 -61 477 -86T507 -157Q507 -193 485 -220T429 -261T358 -276Q284 -276 207 -219L248 -152Q305 -197 358 -197Q382 -197 397 -186T413 -157Q413 -138
397 -128T356 -117Q336 -117 302 -121L294 -111L338 -7Q250 8 181 57T72 180T33 341Q33 445 79 527T203 654T372 700Q490 700 568 627V686H713V447L606 437Q578 497 526 535T398 573Q347 573 302 546T230 466T202 343Q202 281 229 230T304 148T408 118Q484 118
534 150T628 248L732 163Q677 79 596 33Z" />
<glyph unicode="&#xc8;" glyph-name="Egrave" horiz-adv-x="807" d="M600 431V559H303V392H408V471H527V199H408V278H303V127H600V255H741V0H33V127H144V559H33V686H741V431H600ZM322 977L246 867L471 746L510 803L322 977Z" />
<glyph unicode="&#xc9;" glyph-name="Eacute" horiz-adv-x="807" d="M600 431V559H303V392H408V471H527V199H408V278H303V127H600V255H741V0H33V127H144V559H33V686H741V431H600ZM336 746L560 867L483 977L296 803L336 746Z" />
<glyph unicode="&#xca;" glyph-name="Ecircumflex" horiz-adv-x="807" d="M600 431V559H303V392H408V471H527V199H408V278H303V127H600V255H741V0H33V127H144V559H33V686H741V431H600ZM222 791L367 964H441L586 791L540 749L402 847L268 749L222 791Z" />
<glyph unicode="&#xcb;" glyph-name="Edieresis" horiz-adv-x="807" d="M600 431V559H303V392H408V471H527V199H408V278H303V127H600V255H741V0H33V127H144V559H33V686H741V431H600ZM249 1031T225 1050T200 1099Q200 1129 224 1149T283 1170Q318 1170 341 1150T364
1099Q364 1070 341 1051T283 1031Q249 1031 225 1050ZM484 1031T460 1050T436 1099Q436 1129 460 1149T517 1170Q552 1170 576 1150T600 1099Q600 1070 576 1051T517 1031Q484 1031 460 1050Z" />
<glyph unicode="&#xcc;" glyph-name="Igrave" horiz-adv-x="453" d="M307 559V127H420V0H33V127H145V559H33V686H420V559H307ZM404 977L328 867L553 746L592 803L404 977Z" />
<glyph unicode="&#xcd;" glyph-name="Iacute" horiz-adv-x="453" d="M307 559V127H420V0H33V127H145V559H33V686H420V559H307ZM162 746L386 867L309 977L122 803L162 746Z" />
<glyph unicode="&#xce;" glyph-name="Icircumflex" horiz-adv-x="453" d="M307 559V127H420V0H33V127H145V559H33V686H420V559H307ZM48 1047L193 1220H267L412 1047L366 1005L228 1103L94 1005L48 1047Z" />
<glyph unicode="&#xcf;" glyph-name="Idieresis" horiz-adv-x="453" d="M307 559V127H420V0H33V127H145V559H33V686H420V559H307ZM331 1031T307 1050T282 1099Q282 1129 306 1149T365 1170Q400 1170 423 1150T446 1099Q446 1070 423 1051T365 1031Q331 1031 307
1050ZM566 1031T542 1050T518 1099Q518 1129 542 1149T599 1170Q634 1170 658 1150T682 1099Q682 1070 658 1051T599 1031Q566 1031 542 1050Z" />
<glyph unicode="&#xd0;" glyph-name="Eth" horiz-adv-x="817" d="M479 686T572 650T724 537T784 343Q784 227 725 150T572 36T376 0H33V127H145V278H44V407H145V559H33V686H376Q479 686 572 650ZM463 127T539 172T615 343Q615 559 358 559H307V407H480V278H307V127H358Q463
127 539 172Z" />
<glyph unicode="&#xd1;" glyph-name="Ntilde" horiz-adv-x="943" d="M923 559H817V-6L730 -7L297 470V127H409V0H33V127H145V559H33V686H297L669 265V559H557V686H923V559ZM496 748T473 762T420 805Q397 829 386 837T363 846Q343 846 336 824T324 761L240 770Q240
834 273 881T363 928Q401 928 424 914T478 871Q499 849 509 840T532 831Q552 831 560 852T572 913L656 906Q656 842 623 795T532 748Q496 748 473 762Z" />
<glyph unicode="&#xd2;" glyph-name="Ograve" horiz-adv-x="814" d="M302 -13T216 34T82 163T33 343Q33 441 81 523T216 652T408 700Q513 700 598 653T732 523T781 343Q781 245 733 164T599 35T408 -13Q302 -13 216 34ZM470 118T516 148T587 230T612 343Q612 405
588 456T517 538T408 569Q344 569 298 538T227 456T202 343Q202 281 226 230T297 148T408 118Q470 118 516 148ZM326 991L250 881L475 760L514 817L326 991Z" />
<glyph unicode="&#xd3;" glyph-name="Oacute" horiz-adv-x="814" d="M302 -13T216 34T82 163T33 343Q33 441 81 523T216 652T408 700Q513 700 598 653T732 523T781 343Q781 245 733 164T599 35T408 -13Q302 -13 216 34ZM470 118T516 148T587 230T612 343Q612 405
588 456T517 538T408 569Q344 569 298 538T227 456T202 343Q202 281 226 230T297 148T408 118Q470 118 516 148ZM340 760L564 881L487 991L300 817L340 760Z" />
<glyph unicode="&#xd4;" glyph-name="Ocircumflex" horiz-adv-x="814" d="M302 -13T216 34T82 163T33 343Q33 441 81 523T216 652T408 700Q513 700 598 653T732 523T781 343Q781 245 733 164T599 35T408 -13Q302 -13 216 34ZM470 118T516 148T587 230T612 343Q612
405 588 456T517 538T408 569Q344 569 298 538T227 456T202 343Q202 281 226 230T297 148T408 118Q470 118 516 148ZM226 805L371 978H445L590 805L544 763L406 861L272 763L226 805Z" />
<glyph unicode="&#xd5;" glyph-name="Otilde" horiz-adv-x="814" d="M302 -13T216 34T82 163T33 343Q33 441 81 523T216 652T408 700Q513 700 598 653T732 523T781 343Q781 245 733 164T599 35T408 -13Q302 -13 216 34ZM470 118T516 148T587 230T612 343Q612 405
588 456T517 538T408 569Q344 569 298 538T227 456T202 343Q202 281 226 230T297 148T408 118Q470 118 516 148ZM441 762T418 776T365 819Q342 843 331 851T308 860Q288 860 281 838T269 775L185 784Q185 848 218 895T308 942Q346 942 369 928T423 885Q444 863
454 854T477 845Q497 845 505 866T517 927L601 920Q601 856 568 809T477 762Q441 762 418 776Z" />
<glyph unicode="&#xd6;" glyph-name="Odieresis" horiz-adv-x="814" d="M302 -13T216 34T82 163T33 343Q33 441 81 523T216 652T408 700Q513 700 598 653T732 523T781 343Q781 245 733 164T599 35T408 -13Q302 -13 216 34ZM470 118T516 148T587 230T612 343Q612
405 588 456T517 538T408 569Q344 569 298 538T227 456T202 343Q202 281 226 230T297 148T408 118Q470 118 516 148ZM253 789T229 808T204 857Q204 887 228 907T287 928Q322 928 345 908T368 857Q368 828 345 809T287 789Q253 789 229 808ZM488 789T464 808T440
857Q440 887 464 907T521 928Q556 928 580 908T604 857Q604 828 580 809T521 789Q488 789 464 808Z" />
<glyph unicode="&#xd7;" glyph-name="multiply" horiz-adv-x="556" d="M369 310L496 183L407 91L279 219L151 91L59 184L187 311L58 440L150 529L277 402L405 529L496 437L369 310Z" />
<glyph unicode="&#xd8;" glyph-name="Oslash" horiz-adv-x="814" d="M691 596T736 517T781 343Q781 245 733 164T599 35T408 -13Q364 -13 314 -3L279 -78H145L201 43Q123 91 78 170T33 343Q33 441 81 523T216 652T408 700Q458 700 499 690L534 767H668L613 644Q691
596 736 517ZM344 569T298 538T227 456T202 343Q202 289 220 244T273 167L453 564Q430 569 408 569Q344 569 298 538ZM470 118T516 148T587 230T612 343Q612 397 594 443T541 520L359 123Q384 118 408 118Q470 118 516 148Z" />
<glyph unicode="&#xd9;" glyph-name="Ugrave" horiz-adv-x="886" d="M879 559H768V272Q768 190 726 125T609 24T443 -13Q349 -13 275 23T160 124T119 272V559H7V686H379V559H282L281 282Q281 209 327 164T443 118Q489 118 526 139T585 197T606 284L604 559H506V686H879V559ZM360
977L284 867L509 746L548 803L360 977Z" />
<glyph unicode="&#xda;" glyph-name="Uacute" horiz-adv-x="886" d="M879 559H768V272Q768 190 726 125T609 24T443 -13Q349 -13 275 23T160 124T119 272V559H7V686H379V559H282L281 282Q281 209 327 164T443 118Q489 118 526 139T585 197T606 284L604 559H506V686H879V559ZM374
746L598 867L521 977L334 803L374 746Z" />
<glyph unicode="&#xdb;" glyph-name="Ucircumflex" horiz-adv-x="886" d="M879 559H768V272Q768 190 726 125T609 24T443 -13Q349 -13 275 23T160 124T119 272V559H7V686H379V559H282L281 282Q281 209 327 164T443 118Q489 118 526 139T585 197T606 284L604 559H506V686H879V559ZM260
791L405 964H479L624 791L578 749L440 847L306 749L260 791Z" />
<glyph unicode="&#xdc;" glyph-name="Udieresis" horiz-adv-x="886" d="M879 559H768V272Q768 190 726 125T609 24T443 -13Q349 -13 275 23T160 124T119 272V559H7V686H379V559H282L281 282Q281 209 327 164T443 118Q489 118 526 139T585 197T606 284L604 559H506V686H879V559ZM287
775T263 794T238 843Q238 873 262 893T321 914Q356 914 379 894T402 843Q402 814 379 795T321 775Q287 775 263 794ZM522 775T498 794T474 843Q474 873 498 893T555 914Q590 914 614 894T638 843Q638 814 614 795T555 775Q522 775 498 794Z" />
<glyph unicode="&#xdd;" glyph-name="Yacute" horiz-adv-x="796" d="M480 283V127H594V0H204V127H318V277L90 559H13V686H342V559H280L418 383L544 559H454V686H783V559H699L480 283ZM331 733L555 854L478 964L291 790L331 733Z" />
<glyph unicode="&#xde;" glyph-name="Thorn" horiz-adv-x="707" d="M576 507T638 466T701 342Q701 261 638 219T473 176L290 174V113H407V0H33V127H139V560H33V686H407V573H290V507H473Q576 507 638 466ZM489 284T514 295T540 342Q540 374 515 385T448 396H290V284H448Q489
284 514 295Z" />
<glyph unicode="&#xdf;" glyph-name="germandbls" horiz-adv-x="763" d="M681 270T724 233T767 138Q767 68 718 27T580 -14Q498 -14 442 36V-1H329V156L395 160Q420 126 470 104T557 81Q583 81 595 89T608 112Q608 123 596 129T538 149L503 160Q410 189 368 225T326
318Q326 370 353 403T440 468L463 481Q500 503 513 514T527 542Q527 572 491 589T395 606Q333 606 302 580T270 504V0H26V119H120V352H26V471H120V502Q120 616 190 674T394 733Q476 733 542 709T647 643T685 549Q685 497 653 465T556 397Q510 372 497 362T484 339Q484
329 494 324T544 308L596 293Q681 270 724 233Z" />
<glyph unicode="&#xe0;" glyph-name="agrave" horiz-adv-x="615" d="M608 14Q592 5 566 -1T510 -8Q471 -8 440 13T394 75Q302 -14 200 -14Q132 -14 86 25T40 137Q40 188 69 224T144 279T239 297Q282 297 316 289T385 266V295Q385 325 355 340T276 356Q241 356
195 346T100 317L70 431Q196 483 298 483Q411 483 470 430T529 288V146Q529 117 554 117Q567 117 579 121L608 14ZM191 127T206 119T245 110Q269 110 306 124T385 169V171Q330 190 270 190Q236 189 214 178T191 145Q191 127 206 119ZM217 775L141 665L366 544L405
601L217 775Z" />
<glyph unicode="&#xe1;" glyph-name="aacute" horiz-adv-x="615" d="M608 14Q592 5 566 -1T510 -8Q471 -8 440 13T394 75Q302 -14 200 -14Q132 -14 86 25T40 137Q40 188 69 224T144 279T239 297Q282 297 316 289T385 266V295Q385 325 355 340T276 356Q241 356
195 346T100 317L70 431Q196 483 298 483Q411 483 470 430T529 288V146Q529 117 554 117Q567 117 579 121L608 14ZM191 127T206 119T245 110Q269 110 306 124T385 169V171Q330 190 270 190Q236 189 214 178T191 145Q191 127 206 119ZM231 544L455 665L378 775L191
601L231 544Z" />
<glyph unicode="&#xe2;" glyph-name="acircumflex" horiz-adv-x="615" d="M608 14Q592 5 566 -1T510 -8Q471 -8 440 13T394 75Q302 -14 200 -14Q132 -14 86 25T40 137Q40 188 69 224T144 279T239 297Q282 297 316 289T385 266V295Q385 325 355 340T276 356Q241
356 195 346T100 317L70 431Q196 483 298 483Q411 483 470 430T529 288V146Q529 117 554 117Q567 117 579 121L608 14ZM191 127T206 119T245 110Q269 110 306 124T385 169V171Q330 190 270 190Q236 189 214 178T191 145Q191 127 206 119ZM117 589L262 762H336L481
589L435 547L297 645L163 547L117 589Z" />
<glyph unicode="&#xe3;" glyph-name="atilde" horiz-adv-x="615" d="M608 14Q592 5 566 -1T510 -8Q471 -8 440 13T394 75Q302 -14 200 -14Q132 -14 86 25T40 137Q40 188 69 224T144 279T239 297Q282 297 316 289T385 266V295Q385 325 355 340T276 356Q241 356
195 346T100 317L70 431Q196 483 298 483Q411 483 470 430T529 288V146Q529 117 554 117Q567 117 579 121L608 14ZM191 127T206 119T245 110Q269 110 306 124T385 169V171Q330 190 270 190Q236 189 214 178T191 145Q191 127 206 119ZM332 546T309 560T256 603Q233
627 222 635T199 644Q179 644 172 622T160 559L76 568Q76 632 109 679T199 726Q237 726 260 712T314 669Q335 647 345 638T368 629Q388 629 396 650T408 711L492 704Q492 640 459 593T368 546Q332 546 309 560Z" />
<glyph unicode="&#xe4;" glyph-name="adieresis" horiz-adv-x="615" d="M608 14Q592 5 566 -1T510 -8Q471 -8 440 13T394 75Q302 -14 200 -14Q132 -14 86 25T40 137Q40 188 69 224T144 279T239 297Q282 297 316 289T385 266V295Q385 325 355 340T276 356Q241 356
195 346T100 317L70 431Q196 483 298 483Q411 483 470 430T529 288V146Q529 117 554 117Q567 117 579 121L608 14ZM191 127T206 119T245 110Q269 110 306 124T385 169V171Q330 190 270 190Q236 189 214 178T191 145Q191 127 206 119ZM144 573T120 592T95 641Q95
671 119 691T178 712Q213 712 236 692T259 641Q259 612 236 593T178 573Q144 573 120 592ZM379 573T355 592T331 641Q331 671 355 691T412 712Q447 712 471 692T495 641Q495 612 471 593T412 573Q379 573 355 592Z" />
<glyph unicode="&#xe5;" glyph-name="aring" horiz-adv-x="615" d="M608 14Q592 5 566 -1T510 -8Q471 -8 440 13T394 75Q302 -14 200 -14Q132 -14 86 25T40 137Q40 188 69 224T144 279T239 297Q282 297 316 289T385 266V295Q385 325 355 340T276 356Q241 356 195
346T100 317L70 431Q196 483 298 483Q411 483 470 430T529 288V146Q529 117 554 117Q567 117 579 121L608 14ZM191 127T206 119T245 110Q269 110 306 124T385 169V171Q330 190 270 190Q236 189 214 178T191 145Q191 127 206 119ZM260 539T228 558T175 609T155 680Q155
720 174 752T227 801T298 819Q336 819 369 800T423 749T443 678Q443 637 423 606T370 557T298 539Q260 539 228 558ZM324 614T343 632T363 678Q363 705 343 724T298 744Q273 744 255 726T236 680Q236 653 254 634T298 614Q324 614 343 632Z" />
<glyph unicode="&#xe6;" glyph-name="ae" horiz-adv-x="927" d="M904 74Q858 33 794 10T655 -14Q583 -14 521 17T422 104Q316 -14 200 -14Q132 -14 86 25T40 137Q40 188 69 224T144 279T239 297Q282 297 316 289T385 266Q382 317 354 336T276 356Q241 356 195
346T100 317L70 431Q196 483 296 483Q360 483 404 461T472 396Q507 437 564 460T679 484Q738 484 785 465T861 411T889 330Q889 261 831 223T692 185Q644 185 606 194T530 221Q534 170 572 145T668 119Q766 119 844 178L904 74ZM641 367T606 349T551 301Q600 285
652 285Q692 286 714 298T737 330Q737 346 721 356T678 367Q641 367 606 349ZM191 127T206 119T245 110Q269 110 307 124T386 170Q330 190 270 190Q236 189 214 178T191 145Q191 127 206 119Z" />
<glyph unicode="&#xe7;" glyph-name="ccedilla" horiz-adv-x="530" d="M336 -62T365 -87T395 -158Q395 -194 373 -221T317 -262T246 -277Q172 -277 95 -220L136 -153Q193 -198 246 -198Q270 -198 285 -187T301 -158Q301 -139 285 -129T244 -118Q224 -118 190 -122L182
-112L226 -7Q168 5 123 40T52 126T26 238Q26 305 58 361T145 451T262 484Q307 484 338 472T395 433V471H499V299L435 295Q384 361 311 361Q256 361 221 328T185 240Q185 184 220 149T308 113Q348 113 381 127T451 172L513 73Q468 32 412 10T296 -14L276 -62H290Q336
-62 365 -87Z" />
<glyph unicode="&#xe8;" glyph-name="egrave" horiz-adv-x="569" d="M546 74Q499 33 438 10T303 -14Q231 -14 168 14T65 97T26 227Q26 302 65 361T168 452T306 484Q371 484 421 465T500 411T529 330Q529 260 472 223T332 185Q286 185 248 194T171 221Q175 170
214 142T309 113Q406 113 484 173L546 74ZM281 367T247 349T192 301Q241 285 293 285Q334 286 355 297T377 330Q377 346 361 356T318 367Q281 367 247 349ZM212 775L136 665L361 544L400 601L212 775Z" />
<glyph unicode="&#xe9;" glyph-name="eacute" horiz-adv-x="569" d="M546 74Q499 33 438 10T303 -14Q231 -14 168 14T65 97T26 227Q26 302 65 361T168 452T306 484Q371 484 421 465T500 411T529 330Q529 260 472 223T332 185Q286 185 248 194T171 221Q175 170
214 142T309 113Q406 113 484 173L546 74ZM281 367T247 349T192 301Q241 285 293 285Q334 286 355 297T377 330Q377 346 361 356T318 367Q281 367 247 349ZM226 544L450 665L373 775L186 601L226 544Z" />
<glyph unicode="&#xea;" glyph-name="ecircumflex" horiz-adv-x="569" d="M546 74Q499 33 438 10T303 -14Q231 -14 168 14T65 97T26 227Q26 302 65 361T168 452T306 484Q371 484 421 465T500 411T529 330Q529 260 472 223T332 185Q286 185 248 194T171 221Q175
170 214 142T309 113Q406 113 484 173L546 74ZM281 367T247 349T192 301Q241 285 293 285Q334 286 355 297T377 330Q377 346 361 356T318 367Q281 367 247 349ZM112 589L257 762H331L476 589L430 547L292 645L158 547L112 589Z" />
<glyph unicode="&#xeb;" glyph-name="edieresis" horiz-adv-x="569" d="M546 74Q499 33 438 10T303 -14Q231 -14 168 14T65 97T26 227Q26 302 65 361T168 452T306 484Q371 484 421 465T500 411T529 330Q529 260 472 223T332 185Q286 185 248 194T171 221Q175 170
214 142T309 113Q406 113 484 173L546 74ZM281 367T247 349T192 301Q241 285 293 285Q334 286 355 297T377 330Q377 346 361 356T318 367Q281 367 247 349ZM139 573T115 592T90 641Q90 671 114 691T173 712Q208 712 231 692T254 641Q254 612 231 593T173 573Q139
573 115 592ZM374 573T350 592T326 641Q326 671 350 691T407 712Q442 712 466 692T490 641Q490 612 466 593T407 573Q374 573 350 592Z" />
<glyph unicode="&#xec;" glyph-name="igrave" horiz-adv-x="370" d="M367 119V0H26V119H120V352H26V471H272V119H367ZM98 762L22 652L247 531L286 588L98 762Z" />
<glyph unicode="&#xed;" glyph-name="iacute" horiz-adv-x="370" d="M367 119V0H26V119H120V352H26V471H272V119H367ZM112 531L336 652L259 762L72 588L112 531Z" />
<glyph unicode="&#xee;" glyph-name="icircumflex" horiz-adv-x="370" d="M367 119V0H26V119H120V352H26V471H272V119H367ZM-2 576L143 749H217L362 576L316 534L178 632L44 534L-2 576Z" />
<glyph unicode="&#xef;" glyph-name="idieresis" horiz-adv-x="370" d="M367 119V0H26V119H120V352H26V471H272V119H367ZM25 560T1 579T-24 628Q-24 658 0 678T59 699Q94 699 117 679T140 628Q140 599 117 580T59 560Q25 560 1 579ZM260 560T236 579T212 628Q212
658 236 678T293 699Q328 699 352 679T376 628Q376 599 352 580T293 560Q260 560 236 579Z" />
<glyph unicode="&#xf0;" glyph-name="eth" horiz-adv-x="609" d="M474 582T528 482T583 270Q583 178 542 111T431 10T279 -25Q204 -25 145 3T53 80T20 191Q20 250 52 300T141 379T266 409Q352 409 414 375Q387 478 294 551L227 460L134 527L197 612Q155 635 100
658L154 785Q224 757 280 724L348 817L438 748L374 661Q474 582 528 482ZM318 92T350 109T403 164T427 258Q397 274 365 283T306 292Q257 292 223 263T189 191Q189 147 216 120T284 92Q318 92 350 109Z" />
<glyph unicode="&#xf1;" glyph-name="ntilde" horiz-adv-x="745" d="M738 119V0H430V119H506V250Q506 290 483 315T417 341Q347 341 272 251V119H348V0H26V119H120V352H26V471H272V366Q325 427 371 455T474 483Q564 483 611 424T658 250V119H738ZM434 546T411
560T358 603Q335 627 324 635T301 644Q281 644 274 622T262 559L178 568Q178 632 211 679T301 726Q339 726 362 712T416 669Q437 647 447 638T470 629Q490 629 498 650T510 711L594 704Q594 640 561 593T470 546Q434 546 411 560Z" />
<glyph unicode="&#xf2;" glyph-name="ograve" horiz-adv-x="596" d="M227 -14T165 17T64 105T26 235Q26 308 64 365T164 453T298 484Q367 484 429 453T531 365T570 235Q570 162 533 105T434 17T298 -14Q227 -14 165 17ZM346 105T378 140T411 235Q411 294 379 329T298
365Q250 365 218 330T185 235Q185 176 217 141T298 105Q346 105 378 140ZM217 775L141 665L366 544L405 601L217 775Z" />
<glyph unicode="&#xf3;" glyph-name="oacute" horiz-adv-x="596" d="M227 -14T165 17T64 105T26 235Q26 308 64 365T164 453T298 484Q367 484 429 453T531 365T570 235Q570 162 533 105T434 17T298 -14Q227 -14 165 17ZM346 105T378 140T411 235Q411 294 379 329T298
365Q250 365 218 330T185 235Q185 176 217 141T298 105Q346 105 378 140ZM231 544L455 665L378 775L191 601L231 544Z" />
<glyph unicode="&#xf4;" glyph-name="ocircumflex" horiz-adv-x="596" d="M227 -14T165 17T64 105T26 235Q26 308 64 365T164 453T298 484Q367 484 429 453T531 365T570 235Q570 162 533 105T434 17T298 -14Q227 -14 165 17ZM346 105T378 140T411 235Q411 294
379 329T298 365Q250 365 218 330T185 235Q185 176 217 141T298 105Q346 105 378 140ZM117 589L262 762H336L481 589L435 547L297 645L163 547L117 589Z" />
<glyph unicode="&#xf5;" glyph-name="otilde" horiz-adv-x="596" d="M227 -14T165 17T64 105T26 235Q26 308 64 365T164 453T298 484Q367 484 429 453T531 365T570 235Q570 162 533 105T434 17T298 -14Q227 -14 165 17ZM346 105T378 140T411 235Q411 294 379 329T298
365Q250 365 218 330T185 235Q185 176 217 141T298 105Q346 105 378 140ZM332 546T309 560T256 603Q233 627 222 635T199 644Q179 644 172 622T160 559L76 568Q76 632 109 679T199 726Q237 726 260 712T314 669Q335 647 345 638T368 629Q388 629 396 650T408 711L492
704Q492 640 459 593T368 546Q332 546 309 560Z" />
<glyph unicode="&#xf6;" glyph-name="odieresis" horiz-adv-x="596" d="M227 -14T165 17T64 105T26 235Q26 308 64 365T164 453T298 484Q367 484 429 453T531 365T570 235Q570 162 533 105T434 17T298 -14Q227 -14 165 17ZM346 105T378 140T411 235Q411 294 379
329T298 365Q250 365 218 330T185 235Q185 176 217 141T298 105Q346 105 378 140ZM144 573T120 592T95 641Q95 671 119 691T178 712Q213 712 236 692T259 641Q259 612 236 593T178 573Q144 573 120 592ZM379 573T355 592T331 641Q331 671 355 691T412 712Q447 712
471 692T495 641Q495 612 471 593T412 573Q379 573 355 592Z" />
<glyph unicode="&#xf8;" glyph-name="oslash" horiz-adv-x="598" d="M505 408T537 355T570 235Q570 162 533 105T434 17T298 -14Q274 -14 244 -9L212 -78H85L136 34Q85 68 56 119T26 235Q26 308 64 365T164 453T298 484Q320 484 339 481L370 548H498L450 441Q505
408 537 355ZM250 365T218 330T185 235Q185 190 206 156L299 365H298Q250 365 218 330ZM346 105T378 140T411 235Q411 290 382 325L284 106Q289 105 298 105Q346 105 378 140Z" />
<glyph unicode="&#xf9;" glyph-name="ugrave" horiz-adv-x="676" d="M669 14Q653 5 628 -1T576 -8Q526 -8 490 17T443 89Q395 36 352 12T260 -13Q174 -13 128 46T81 222V352H0V471H233V222Q233 178 252 153T317 128Q373 128 438 199V352H364V471H590V146Q590 117
615 117Q629 117 639 121L669 14ZM227 749L151 639L376 518L415 575L227 749Z" />
<glyph unicode="&#xfa;" glyph-name="uacute" horiz-adv-x="676" d="M669 14Q653 5 628 -1T576 -8Q526 -8 490 17T443 89Q395 36 352 12T260 -13Q174 -13 128 46T81 222V352H0V471H233V222Q233 178 252 153T317 128Q373 128 438 199V352H364V471H590V146Q590 117
615 117Q629 117 639 121L669 14ZM241 518L465 639L388 749L201 575L241 518Z" />
<glyph unicode="&#xfb;" glyph-name="ucircumflex" horiz-adv-x="676" d="M669 14Q653 5 628 -1T576 -8Q526 -8 490 17T443 89Q395 36 352 12T260 -13Q174 -13 128 46T81 222V352H0V471H233V222Q233 178 252 153T317 128Q373 128 438 199V352H364V471H590V146Q590
117 615 117Q629 117 639 121L669 14ZM127 563L272 736H346L491 563L445 521L307 619L173 521L127 563Z" />
<glyph unicode="&#xfc;" glyph-name="udieresis" horiz-adv-x="676" d="M669 14Q653 5 628 -1T576 -8Q526 -8 490 17T443 89Q395 36 352 12T260 -13Q174 -13 128 46T81 222V352H0V471H233V222Q233 178 252 153T317 128Q373 128 438 199V352H364V471H590V146Q590
117 615 117Q629 117 639 121L669 14ZM154 547T130 566T105 615Q105 645 129 665T188 686Q223 686 246 666T269 615Q269 586 246 567T188 547Q154 547 130 566ZM389 547T365 566T341 615Q341 645 365 665T422 686Q457 686 481 666T505 615Q505 586 481 567T422
547Q389 547 365 566Z" />
<glyph unicode="&#xfd;" glyph-name="yacute" horiz-adv-x="653" d="M634 352H581L405 -26Q354 -137 295 -187T156 -238Q114 -238 81 -226T7 -189L65 -74Q116 -105 156 -105Q198 -105 227 -83T283 -6L91 352H34V471H316V365H251L352 148L449 365H387V471H634V352ZM304
531L528 652L451 762L264 588L304 531Z" />
<glyph unicode="&#xfe;" glyph-name="thorn" horiz-adv-x="666" d="M480 484T530 452T610 362T640 235Q640 165 608 108T518 19T388 -14Q309 -14 242 40V-99H351V-218H0V-99H94V568H0V686H242V385Q281 432 328 458T422 484Q480 484 530 452ZM410 111T446 146T482
237Q482 288 452 321T371 355Q341 355 307 334T242 274V151Q297 111 349 111Q410 111 446 146Z" />
<glyph unicode="&#xff;" glyph-name="ydieresis" horiz-adv-x="653" d="M634 352H581L405 -26Q354 -137 295 -187T156 -238Q114 -238 81 -226T7 -189L65 -74Q116 -105 156 -105Q198 -105 227 -83T283 -6L91 352H34V471H316V365H251L352 148L449 365H387V471H634V352ZM217
560T193 579T168 628Q168 658 192 678T251 699Q286 699 309 679T332 628Q332 599 309 580T251 560Q217 560 193 579ZM452 560T428 579T404 628Q404 658 428 678T485 699Q520 699 544 679T568 628Q568 599 544 580T485 560Q452 560 428 579Z" />
<glyph unicode="&#x2013;" glyph-name="endash" horiz-adv-x="582" d="M559 172H25V301H559V172Z" />
<glyph unicode="&#x2014;" glyph-name="emdash" horiz-adv-x="846" d="M821 172H25V301H821V172Z" />
<glyph unicode="&#x2018;" glyph-name="quoteleft" horiz-adv-x="328" d="M116 428T87 457T58 541Q58 593 95 646T198 757L235 718Q186 665 163 633T139 567Q161 573 184 573Q220 573 245 553T270 502Q270 468 241 448T167 428Q116 428 87 457Z" />
<glyph unicode="&#x2019;" glyph-name="quoteright" horiz-adv-x="328" d="M91 460Q140 511 164 544T189 612Q174 605 144 605Q107 605 83 625T58 675Q58 709 87 729T160 750Q210 750 240 720T270 636Q270 585 233 533T130 421L91 460Z" />
<glyph unicode="&#x201a;" glyph-name="quotesinglbase" horiz-adv-x="328" d="M91 -158Q139 -109 163 -75T189 -7Q173 -13 144 -13Q107 -13 83 7T58 58Q58 92 87 112T160 132Q210 132 240 102T270 19Q270 -32 233 -85T130 -197L91 -158Z" />
<glyph unicode="&#x201c;" glyph-name="quotedblleft" horiz-adv-x="593" d="M116 428T87 457T58 541Q58 593 95 646T198 757L235 718Q186 665 163 633T139 567Q161 573 184 573Q220 573 245 553T270 502Q270 468 241 448T167 428Q116 428 87 457ZM382 425T353
455T323 539Q323 590 360 643T463 754L501 715Q451 662 428 630T404 563Q419 570 449 570Q485 570 510 550T535 499Q535 465 506 445T433 425Q382 425 353 455Z" />
<glyph unicode="&#x201d;" glyph-name="quotedblright" horiz-adv-x="593" d="M91 453Q140 504 164 537T189 605Q170 598 144 598Q107 598 83 618T58 669Q58 703 87 723T160 744Q210 744 240 714T270 629Q270 579 233 526T130 415L91 453ZM356 450Q405 500 429
533T454 601Q439 594 409 594Q373 594 348 615T323 667Q323 700 352 720T425 740Q476 740 505 711T535 626Q535 575 498 523T395 411L356 450Z" />
<glyph unicode="&#x201e;" glyph-name="quotedblbase" horiz-adv-x="593" d="M91 -154Q139 -105 163 -71T189 -4Q170 -11 144 -11Q107 -11 83 10T58 62Q58 96 87 116T160 136Q210 136 240 106T270 21Q270 -30 233 -82T130 -193L91 -154ZM356 -158Q405 -108 429
-75T454 -7Q438 -13 409 -13Q373 -13 348 7T323 58Q323 92 352 112T425 132Q475 132 505 102T535 19Q535 -32 498 -85T395 -197L356 -158Z" />
<glyph unicode="&#x2022;" glyph-name="bullet" horiz-adv-x="495" d="M200 183T159 201T93 252T68 325Q68 369 92 403T158 457T249 476Q328 476 378 434T428 325Q428 284 405 252T342 202T249 183Q200 183 159 201Z" />
<glyph unicode="&#x2039;" glyph-name="guilsinglleft" horiz-adv-x="594" d="M365 230T443 174T554 15L437 -28Q407 75 321 126T101 178H54V308H100Q233 308 319 359T436 514L552 469Q521 368 443 312T220 243Q365 230 443 174Z" />
<glyph unicode="&#x203a;" glyph-name="guilsinglright" horiz-adv-x="594" d="M540 308V178H493Q360 178 274 127T158 -28L41 15Q73 117 150 173T373 243Q228 255 150 311T40 469L156 514Q187 411 272 360T491 308H540Z" />
</font>
</defs>
</svg>
