<?xml version="1.0" standalone="no"?>
<!DOCTYPE svg PUBLIC "-//W3C//DTD SVG 1.1//EN" "http://www.w3.org/Graphics/SVG/1.1/DTD/svg11.dtd">
<svg xmlns="http://www.w3.org/2000/svg">
<defs >
<font id="AlegreyaSC" horiz-adv-x="460" ><font-face
    font-family="Alegreya SC Black"
    units-per-em="1000"
    panose-1="2 0 5 3 5 0 0 2 0 4"
    ascent="1016"
    descent="-345"
    alphabetic="0" />
<glyph unicode=" " glyph-name="space" horiz-adv-x="137" />
<glyph unicode="!" glyph-name="exclam" horiz-adv-x="275" d="M213 56T182 24T104 -9Q16 -9 16 71Q16 125 47 157T124 190T191 169T213 102ZM78 265L93 667L114 691L305 717L327 691L202 261L96 245L78 265Z" />
<glyph unicode="&quot;" glyph-name="quotedbl" horiz-adv-x="338" d="M208 659L215 647Q186 538 147 426L70 401L52 407Q67 504 73 645L208 659ZM375 659L382 647Q353 538 314 426L238 401L220 407Q234 513 240 645L375 659Z" />
<glyph unicode="#" glyph-name="numbersign" horiz-adv-x="543" d="M58 339L51 352L77 457L164 456L194 573L304 582L317 575L281 456H358L388 573L497 582L510 575L475 459L557 462L562 447L541 341L441 340L420 264L503 267L508 252L487 146L389 145L363 45L255
31L243 40L273 145H195L170 45L62 31L50 40L79 144H4L-3 157L23 262L113 261L133 339H58ZM244 324L227 261H306L327 340H247L244 324Z" />
<glyph unicode="$" glyph-name="dollar" horiz-adv-x="444" d="M164 185Q116 204 86 228T45 275T34 327Q34 398 86 445T231 507L265 644L384 658L389 649L355 511Q415 505 473 491L482 472Q458 406 443 336L337 329L327 336Q329 351 329 352Q329 395 281 395Q261
395 249 387T236 364Q236 342 292 318Q369 287 394 269Q445 230 445 163T388 51T228 -6L192 -151L75 -164L68 -158L105 -4Q46 4 1 25L-8 40Q18 120 27 167L141 175Q140 170 140 156T154 124T197 105Q243 105 243 130Q243 146 225 157T186 177T164 185Z" />
<glyph unicode="%" glyph-name="percent" horiz-adv-x="740" d="M178 428Q219 428 236 439T253 476Q253 517 181 517Q140 517 123 506T106 469Q106 428 178 428ZM151 290Q91 290 58 326T24 434Q24 541 76 600T212 659Q272 659 304 623T337 516Q337 409 286 350T151
290ZM577 126Q618 126 635 137T652 174Q652 215 580 215Q539 215 522 204T505 167Q505 126 577 126ZM550 -12Q490 -12 457 24T423 132Q423 239 475 298T611 357Q671 357 703 321T736 214Q736 107 685 48T550 -12ZM623 647L633 623Q454 346 363 207L174 -91L81 -56L75
-39Q186 121 269 253L536 679L623 647Z" />
<glyph unicode="&amp;" glyph-name="ampersand" horiz-adv-x="671" d="M447 324L616 312Q643 312 681 333H687L720 275V270L649 204L630 198L572 201Q532 108 447 48T270 -12Q157 -12 90 53T22 223T91 405T249 483Q283 483 307 464T331 421V410L338 406Q377 463
397 510T433 628L448 644H501Q554 555 554 527Q554 513 538 489Q368 260 184 159Q229 112 307 112Q423 112 453 208L441 209Q422 209 397 190H391L356 249L357 253L430 319L447 324ZM175 344T159 324T143 275T148 225Q201 257 215 273T230 310Q230 344 203 344Z"
/>
<glyph unicode="&apos;" glyph-name="quotesingle" horiz-adv-x="171" d="M208 659L215 647Q186 538 147 426L70 401L52 407Q67 504 73 645L208 659Z" />
<glyph unicode="(" glyph-name="parenleft" horiz-adv-x="300" d="M222 351Q196 136 196 113T197 62T207 6Q221 -45 240 -67L247 -75L246 -86L176 -146H164Q143 -135 130 -123T104 -97T81 -65T60 -24Q45 8 38 89Q37 100 37 118Q37 123 63 336Q71 405 95 462T147
553Q205 621 246 640L264 649H282L326 585L324 576Q313 569 296 549T266 506Q234 445 222 351Z" />
<glyph unicode=")" glyph-name="parenright" horiz-adv-x="304" d="M82 152Q108 367 108 390T107 441T97 498Q83 548 64 570L57 578L58 589L127 649H140Q162 638 188 612T232 554T257 478T265 401T262 340L240 167Q232 98 208 41T156 -50Q98 -118 57 -138L39 -146H22L-23
-82L-21 -73Q-10 -66 7 -46T36 -3Q71 60 82 152Z" />
<glyph unicode="*" glyph-name="asterisk" horiz-adv-x="348" d="M76 681Q120 657 181 611L172 562L163 555L51 585Q51 639 65 678L76 681ZM70 465Q106 499 168 543L213 519L216 510L154 412Q102 428 69 453L70 465ZM273 393Q252 437 229 511L266 546H277L350
456Q319 411 284 388L273 393ZM405 564Q369 558 279 558L257 604L261 615L369 656Q402 612 413 572L405 564ZM284 742Q273 693 249 620L199 615L191 620L183 736Q235 752 277 752L284 742Z" />
<glyph unicode="+" glyph-name="plus" horiz-adv-x="491" d="M336 493L350 486Q335 398 324 323L480 329L485 314L455 178L306 177L290 36L157 18L146 27Q155 101 165 177L16 176L9 189L43 324Q112 323 183 323L203 480L336 493Z" />
<glyph unicode="," glyph-name="comma" horiz-adv-x="231" d="M4 145Q61 189 102 189T167 162T191 85T146 -21T24 -122L-34 -76V-51Q-5 -30 12 -1T30 63T1 131L4 145Z" />
<glyph unicode="-" glyph-name="hyphen" horiz-adv-x="314" d="M282 328L291 310L265 202L37 176L27 194L50 300L282 328Z" />
<glyph unicode="." glyph-name="period" horiz-adv-x="231" d="M81 -9Q-1 -9 -1 71Q-1 125 30 157T108 190Q195 190 195 109Q195 56 164 24T81 -9Z" />
<glyph unicode="/" glyph-name="slash" horiz-adv-x="319" d="M373 675L388 655Q279 377 217 215L97 -110H-29L-38 -95Q31 74 87 226L254 675H373Z" />
<glyph unicode="0" glyph-name="zero" horiz-adv-x="450" d="M184 -12Q98 -12 53 41T8 193Q8 339 79 427T271 515Q356 515 400 463T445 311Q445 163 375 76T184 -12ZM222 179Q280 179 306 197T332 255Q332 320 226 320T120 244Q120 179 222 179Z" />
<glyph unicode="1" glyph-name="one" horiz-adv-x="367" d="M264 135Q264 88 295 88L338 90L341 84L316 -6Q217 0 181 0T118 -1T68 -4Q20 -7 -20 -10L-2 71Q44 76 66 92T92 139Q118 351 118 365T112 388T78 397L33 394L25 404L42 479Q162 490 232 499T348 515L359
472Q329 450 311 400Q264 265 264 135Z" />
<glyph unicode="2" glyph-name="two" horiz-adv-x="479" d="M206 367T162 367T62 304H44L32 408Q150 515 264 515Q336 515 379 481T422 390Q422 353 413 330Q393 280 240 137L244 128H271Q307 128 326 148T356 219L473 228Q435 95 420 6L401 -12Q151 0 50 0L-24
-6L-23 44L54 121Q141 212 172 253Q206 298 206 332Z" />
<glyph unicode="3" glyph-name="three" horiz-adv-x="437" d="M77 336L62 335L42 438Q90 471 150 493T268 515T366 486T407 407T373 319T282 263L281 252Q403 213 403 124Q403 70 352 19T221 -63T58 -95Q8 -95 -7 -68T-23 17Q-23 28 -23 39L2 62Q34 44 87 44T171
61T202 106Q202 156 101 156L90 171L91 261L156 274Q220 300 220 351Q220 366 210 375T183 384Q142 384 77 336Z" />
<glyph unicode="4" glyph-name="four" horiz-adv-x="478" d="M280 513L289 515L429 503L388 173H454L463 158L439 45Q413 46 374 47L365 -72L353 -83L187 -95L179 -83Q191 -14 201 52Q86 55 -22 55L-9 155L280 513ZM222 300L127 173H217L233 300H222Z" />
<glyph unicode="5" glyph-name="five" horiz-adv-x="410" d="M383 150Q383 57 277 -19T40 -95Q-10 -95 -26 -69T-42 9Q-42 23 -41 39L-16 62Q17 44 68 44T151 61T183 105T149 145T32 169L24 180Q53 305 84 479L92 487L286 493Q313 494 327 502T352 533L431 538L381
359L359 340Q285 348 189 348L175 296Q286 278 334 244T383 150Z" />
<glyph unicode="6" glyph-name="six" d="M447 229Q447 119 377 54T188 -12Q104 -12 56 39T8 179Q8 246 30 305T88 406T167 482T253 538Q344 582 390 594L412 599L424 592L444 511Q431 506 410 497T337 451T248 369L252 358L308 379Q373 379 410 339T447 229ZM237
259Q210 259 182 242Q173 190 173 176Q173 105 216 105Q250 105 263 128T276 199Q276 259 237 259Z" />
<glyph unicode="7" glyph-name="seven" horiz-adv-x="423" d="M185 503H402L450 433Q371 292 246 48L191 -95H163L45 -57L36 -29L270 360L184 351Q141 346 125 332T95 269L12 263Q42 396 60 502L67 507Q124 503 185 503Z" />
<glyph unicode="8" glyph-name="eight" horiz-adv-x="458" d="M3 124Q3 221 109 266Q45 321 45 403T116 542T287 599Q360 599 408 560T457 464Q457 375 364 327Q430 279 430 196T359 50T184 -12Q104 -12 54 26T3 124ZM154 129T168 113T206 96T245 109T259 141T248
173T225 193T197 210T177 222Q154 191 154 160ZM215 456T215 436T231 402T282 370Q305 404 305 436Q305 483 263 483Q242 483 229 470Z" />
<glyph unicode="9" glyph-name="nine" d="M16 274Q16 384 86 449T275 515Q359 515 407 464T456 324Q456 257 434 198T376 97T297 21T211 -35Q120 -79 74 -90L52 -96L40 -89L20 -8Q33 -3 54 6T127 52T215 134L211 145L155 124Q91 124 54 164T16 274ZM226 244Q253
244 280 260Q290 294 290 327Q290 398 248 398Q214 398 201 375T187 304Q187 244 226 244Z" />
<glyph unicode=":" glyph-name="colon" horiz-adv-x="231" d="M86 -9Q4 -9 4 71Q4 125 35 157T112 190Q200 190 200 109Q200 56 169 24T86 -9ZM118 256Q36 256 36 336Q36 390 67 422T144 455Q232 455 232 374Q232 321 201 289T118 256Z" />
<glyph unicode=";" glyph-name="semicolon" horiz-adv-x="231" d="M8 145Q65 189 106 189T171 162T195 85T150 -21T28 -122L-30 -76V-51Q-1 -30 16 -1T34 63T5 131L8 145ZM118 256Q36 256 36 336Q36 390 67 422T144 455Q232 455 232 374Q232 321 201 289T118 256Z" />
<glyph unicode="&lt;" glyph-name="less" horiz-adv-x="414" d="M25 184L19 199L38 352L219 429L371 499L388 488L409 383Q294 338 153 276L152 268L241 219L372 155L379 134L312 42Q253 71 188 105L25 184Z" />
<glyph unicode="=" glyph-name="equal" horiz-adv-x="491" d="M468 229L473 214L443 78L4 76L-4 89L31 224Q166 223 252 223L468 229ZM492 429L497 414L468 278L28 276L21 289L55 424Q190 423 277 423L492 429Z" />
<glyph unicode="&gt;" glyph-name="greater" horiz-adv-x="414" d="M397 357L403 342L385 189L204 112L51 42L35 53L13 158Q115 197 270 265L271 273L181 322L50 386L44 407L111 499Q169 470 234 436L397 357Z" />
<glyph unicode="?" glyph-name="question" horiz-adv-x="371" d="M239 497Q239 563 92 571L80 589L135 707L153 716Q271 713 346 665T422 546Q422 493 384 450T239 341L236 335L234 266L224 252L104 232L90 240L83 373L88 388L186 435Q239 462 239 497ZM241 56T210
24T132 -9Q44 -9 44 71Q44 125 75 157T152 190Q241 190 241 109Q241 56 210 24Z" />
<glyph unicode="@" glyph-name="at" horiz-adv-x="873" d="M524 -149L523 -176L486 -240Q262 -240 135 -131T7 169Q7 267 47 360T154 521T311 631T497 673Q673 673 774 587T876 342T776 86T504 -12Q480 -12 465 3T450 36T474 158H464Q388 27 331 -12Q260 -12 220
29T180 145Q180 263 261 367T434 472L506 452L511 472L530 484L664 472L672 449Q624 240 603 112L610 104Q679 104 724 162T769 310Q769 430 688 499T461 568T216 463T116 196T221 -58T524 -149ZM377 143Q394 143 426 206T478 341Q440 367 404 367Q390 367 377
315T363 203T377 143Z" />
<glyph unicode="A" glyph-name="A" horiz-adv-x="661" d="M377 121V178Q312 180 304 180L227 175Q208 111 208 104Q208 89 231 89H258L265 79L247 -4Q156 -1 97 -1L-33 -2L-16 85Q20 94 39 140L250 642L517 658L531 646Q579 261 593 153Q597 119 608 104T640 86L646
76L628 -3Q544 -1 490 -1L302 -6L295 3L311 87Q353 92 365 98T377 121ZM322 301Q329 301 371 303L361 478H339L274 301H322Z" />
<glyph unicode="B" glyph-name="B" horiz-adv-x="647" d="M120 527Q120 559 99 559L65 557L55 569L76 649Q212 647 243 647L424 654Q526 654 582 618T639 515Q639 464 612 423T525 343Q629 299 629 210Q629 -11 320 -11Q303 -8 243 -4T160 0L-20 -7L0 83Q38 90
54 105T74 156Q120 520 120 527ZM268 150Q268 114 332 114Q370 114 390 135T411 199T361 260H286Q268 155 268 150ZM427 470Q427 528 345 528Q329 528 326 514L304 389Q356 378 378 378Q397 389 412 416T427 470Z" />
<glyph unicode="C" glyph-name="C" horiz-adv-x="584" d="M505 27Q405 -11 280 -11T86 59T18 259Q18 455 112 557T386 659Q460 659 608 633L614 613Q582 521 560 399L404 390Q415 447 415 465Q415 521 349 521Q294 521 271 463T248 268Q248 193 263 162T316 130T370
153T402 246L557 256Q531 139 520 43L505 27Z" />
<glyph unicode="D" glyph-name="D" horiz-adv-x="660" d="M119 531Q119 557 100 557L69 555L61 569L80 650Q189 647 229 647L382 653Q519 653 592 589T665 402Q665 215 559 102T279 -12Q187 0 126 0L-16 -8L4 85Q40 91 54 108T76 168Q119 520 119 531ZM343 526Q333
526 328 521T319 495T291 314T267 140Q267 113 293 113Q435 113 435 398Q435 469 415 497T343 526Z" />
<glyph unicode="E" glyph-name="E" horiz-adv-x="586" d="M303 387L382 386L489 392L499 378L471 263Q400 266 369 266T283 260Q269 165 269 147T277 122T309 115Q369 115 391 134T431 221L560 230L571 215Q541 118 518 9L501 -7Q343 0 244 0Q100 0 -20 -10L0
82Q37 88 52 106T73 170Q118 521 118 531T115 550T96 559L71 557L61 571L80 650Q220 647 369 647T612 659L623 643Q592 538 576 444L436 435Q444 467 444 488T426 518T374 527T333 522T323 500L303 387Z" />
<glyph unicode="F" glyph-name="F" horiz-adv-x="540" d="M281 243Q270 159 270 147T275 125T305 115T361 123L375 105L349 -3Q236 0 190 0Q100 0 -20 -10L0 82Q37 88 52 106T73 170Q118 521 118 531T115 550T96 559L71 557L61 571L80 650Q220 647 359 647T584
659L595 643Q569 536 554 444L414 436Q421 467 421 488T408 518T367 527T333 522T323 500L300 370L380 369L482 375L493 361L465 246Q397 249 365 249T281 243Z" />
<glyph unicode="G" glyph-name="G" horiz-adv-x="618" d="M279 -11Q154 -11 86 59T18 259Q18 455 112 557T386 659Q460 659 608 633L614 613Q582 535 560 413L404 404Q415 450 415 468Q415 521 349 521Q294 521 271 463T248 268Q248 193 263 162T316 130Q345 130
371 142Q379 215 379 223T375 239T354 246L323 245L316 259L339 354H489Q597 354 597 359L600 301Q560 276 552 226Q532 122 532 76L533 38L519 22Q438 -11 279 -11Z" />
<glyph unicode="H" glyph-name="H" horiz-adv-x="716" d="M625 133Q625 89 656 89L683 92L690 81L671 -2Q616 -1 552 0H503L339 -1L357 86Q391 87 408 104T430 162L443 264Q414 265 390 265L282 256Q267 131 267 116T272 94T292 87L318 90L325 80L306 -4Q185 0
145 0L-17 -5L1 80Q40 88 54 104T73 162Q118 521 118 532T113 551T88 559L63 558L56 572L73 647H199L397 652L379 562Q348 556 337 547T322 510L302 389L379 386Q432 386 458 389Q475 521 475 531T470 550T445 559L419 558L412 572L429 647H615L762 652L745 564Q709
558 697 548T676 492T646 303T625 133Z" />
<glyph unicode="I" glyph-name="I" horiz-adv-x="359" d="M308 428T288 290T267 128T272 95T292 87L323 90L329 80L310 -4Q188 0 147 0L-17 -5L1 80Q41 89 54 104T73 162Q118 521 118 532T113 551T88 559L64 558L56 572L73 647H232L402 652L384 562Q351 557 340
548T323 510Q308 428 288 290Z" />
<glyph unicode="J" glyph-name="J" horiz-adv-x="329" d="M62 132Q110 523 110 533T107 551T84 559L49 557L42 571L59 647L198 648L387 655L367 562Q338 555 330 547T316 510Q285 353 252 85Q238 -11 170 -71T-35 -164L-70 -116L-66 -101Q-1 -54 24 -10T62 132Z" />
<glyph unicode="K" glyph-name="K" horiz-adv-x="676" d="M73 162Q118 521 118 532T113 551T88 559L63 558L56 572L74 648Q215 647 232 647L403 652L385 562Q347 552 335 542T320 506L270 156Q267 133 267 120T269 101Q273 87 292 87L323 90L330 80L311 -4Q188
0 147 0L-17 -5L1 80Q40 88 54 104T73 162ZM454 532Q454 545 446 551T419 558L414 568L433 650Q528 647 573 647L716 652L723 637L705 562Q627 519 561 435L501 356L566 174Q582 130 600 110T648 84L657 69L637 -5Q508 -16 477 -16T425 1T387 65L298 317L307 347L420
472Q454 508 454 532Z" />
<glyph unicode="L" glyph-name="L" horiz-adv-x="543" d="M475 -7Q331 0 238 0Q100 0 -20 -10L0 82Q37 88 52 106T73 170Q117 521 117 532T112 551T87 559L62 558L55 572L72 647H231L437 652L414 554Q363 549 344 539T321 502Q269 210 269 147Q269 115 298 115Q348
115 369 146T408 278L538 291L548 276Q518 148 492 9L475 -7Z" />
<glyph unicode="M" glyph-name="M" horiz-adv-x="808" d="M293 -12L239 363H226Q193 128 193 115Q193 88 221 88L246 90L254 82L231 -4Q123 0 98 0T44 -2Q-25 -7 -25 -8L-6 82Q21 85 35 100T59 161T102 359T134 527T125 548T79 558L72 566L92 652Q195 647 236
647L390 651Q396 519 418 333H431Q498 502 547 647Q716 647 732 648L823 653L830 649L811 561Q772 560 759 550T742 510Q733 435 729 300T725 144T731 106T759 89L788 91L794 83L775 -3Q664 1 575 -2T476 -8L499 83Q526 86 538 97T554 132L580 363H567Q566 362
558 342T536 288T504 210Q463 108 421 -2L293 -12Z" />
<glyph unicode="N" glyph-name="N" horiz-adv-x="718" d="M496 333Q515 521 515 532T510 551T488 559H458L454 570L469 651Q578 647 674 647T770 650L754 560Q723 556 710 542T691 497L617 0L425 -12Q357 144 275 315H260Q241 128 241 117T246 96T274 86L306 90L314
81L293 -4Q183 0 147 0Q80 0 -12 -8L9 82Q38 86 53 100T72 145Q127 504 127 518T117 542T62 557L52 571L67 652Q140 647 213 647L341 651Q397 507 481 333H496Z" />
<glyph unicode="O" glyph-name="O" horiz-adv-x="633" d="M310 114Q362 114 384 181T407 402Q407 522 342 522Q292 522 270 455T247 234Q247 114 310 114ZM283 -12Q158 -12 88 57T18 256Q18 450 108 554T372 659Q500 659 569 593T638 398Q638 204 546 96T283 -12Z" />
<glyph unicode="P" glyph-name="P" horiz-adv-x="591" d="M118 530Q118 559 98 559L63 557L55 569L74 647H214L383 653Q456 653 508 636T587 590Q635 538 635 473Q635 367 551 288T360 208H277Q269 145 269 129T275 101T311 88L342 90L346 82L326 -4Q206 0 164
0L-19 -9L1 83Q37 89 53 107T74 168Q118 521 118 530ZM427 452Q427 492 406 510T341 528Q331 528 328 524Q320 513 294 331L357 321Q427 346 427 452Z" />
<glyph unicode="Q" glyph-name="Q" horiz-adv-x="637" d="M18 256Q18 450 108 554T372 659Q500 659 569 593T638 392T590 162T448 21V18Q492 -23 547 -47T650 -72Q688 -72 740 -62L750 -73L759 -141Q609 -242 572 -242Q513 -242 458 -200T273 -12Q152 -9 85 60T18
256ZM310 114Q362 114 384 181T407 402Q407 522 342 522Q292 522 270 455T247 234Q247 114 310 114Z" />
<glyph unicode="R" glyph-name="R" horiz-adv-x="661" d="M279 228Q269 145 269 127T277 100T331 88L335 80L315 -4Q194 0 158 0Q78 0 -19 -9L1 83Q37 89 53 107T74 168Q118 525 118 534T115 551T98 559L63 557L55 569L75 648Q174 647 214 647L388 653Q514 653
581 612T648 489Q648 356 508 276L553 172Q592 84 635 84L644 68L626 -5L471 -16Q429 -16 407 4T371 75L332 228H279ZM439 458Q439 528 342 528Q332 528 329 524T315 462T297 354L369 344Q439 371 439 458Z" />
<glyph unicode="S" glyph-name="S" horiz-adv-x="536" d="M195 -12Q144 -12 95 -2T21 20L-3 31L-13 49Q18 148 29 214L156 223Q155 213 155 203Q155 169 171 145T221 121T274 133T292 164T278 196Q258 216 198 243Q79 296 52 360Q39 389 39 425Q39 531 127 595T360
659Q455 659 528 638L553 631L563 609Q534 525 516 435L398 427L387 435Q390 458 390 463Q390 521 328 521Q300 521 283 507T265 473T282 439T317 415T365 392T403 373T436 354T470 329T494 300Q519 268 519 216Q519 110 433 49T195 -12Z" />
<glyph unicode="T" glyph-name="T" horiz-adv-x="578" d="M472 382Q474 422 474 455T470 502Q463 526 428 526Q377 189 377 152T387 103T420 91L470 94L474 88L454 -6Q311 0 255 0L55 -9L74 83Q134 88 154 104T181 168L225 526Q189 526 175 501T143 390L17 382Q42
530 57 644L72 658L187 647H492L613 658L624 644L597 390L472 382Z" />
<glyph unicode="U" glyph-name="U" horiz-adv-x="605" d="M422 531Q422 559 402 559L381 557L378 561L400 650Q481 647 516 647L659 650L640 560Q609 550 600 542T589 516L554 234Q537 109 469 49T280 -12T103 30T47 159Q47 175 68 348T90 533T87 551T68 559L40
557L38 561L59 650Q155 647 233 647L365 651L344 558Q318 555 307 544T292 509L251 220Q249 201 249 187Q249 115 308 115Q343 115 360 135T384 203Q422 522 422 531Z" />
<glyph unicode="V" glyph-name="V" horiz-adv-x="623" d="M449 537Q449 557 423 557H399L392 567L410 650Q501 647 560 647L680 648L663 561Q646 556 638 546T617 506L418 4L138 -13Q97 385 85 493Q80 527 71 542T42 560L36 570L54 649Q135 647 188 647L376 652L382
643L366 559Q326 554 313 544T300 507L306 168H328Q449 501 449 537Z" />
<glyph unicode="W" glyph-name="W" horiz-adv-x="971" d="M719 254T762 389T805 537T801 554T780 557H757L751 567L769 650Q857 647 913 647L1028 648L1011 561Q994 555 986 545T966 506L778 4L508 -13L502 272H488L401 4L131 -13Q93 385 83 493Q76 528 68 542T42
560L36 570L55 649Q132 647 183 647L364 652L370 643L353 559Q316 553 302 542T288 508L293 168H314Q384 364 426 502Q431 524 433 529Q435 548 426 554T384 560L378 570L397 649Q498 647 556 647L736 652L743 643L726 559Q687 555 674 545T660 508L666 168H687Q719
254 762 389Z" />
<glyph unicode="X" glyph-name="X" horiz-adv-x="693" d="M365 532Q365 508 390 462Q399 446 410 424Q440 469 447 481T464 506Q480 533 480 544Q480 561 447 561L445 567L461 647H614L741 650L744 642L728 555Q678 532 649 509T591 446L484 301L550 179Q576 134
601 114T660 93L644 -1Q549 2 512 2L308 -5L302 2L319 86Q348 88 348 109Q348 119 340 133L294 221L253 158Q233 127 233 113Q233 88 266 88L271 77L256 -4Q139 2 108 2L-24 -4L-27 10L-12 90Q10 101 52 140T124 219L224 346L162 467Q133 523 98 538Q85 544 58
551L54 557L74 648Q140 647 246 647L416 653L421 642L404 560Q365 560 365 532Z" />
<glyph unicode="Y" glyph-name="Y" horiz-adv-x="650" d="M332 533Q332 500 365 387H379L429 501Q447 534 447 547T413 561L411 567L429 646H584L695 650L698 642L680 555Q607 514 558 429L448 247Q429 212 422 154Q420 142 420 128T427 103T463 91L513 94L517
88L497 -6Q350 0 293 0L92 -9L111 83Q174 88 195 103T222 162Q225 186 225 193Q225 226 208 268L128 467Q108 520 44 551L40 557L61 648Q177 646 209 646L386 653L392 642L373 560Q332 560 332 533Z" />
<glyph unicode="Z" glyph-name="Z" horiz-adv-x="578" d="M531 19L508 -3L89 3L8 -7L-21 51L353 542L282 532Q225 524 208 504T181 418L53 409Q83 556 97 649L109 660L284 649H609L627 595Q490 432 247 109L346 124Q393 131 418 163T457 266L585 275Q545 119 531 19Z" />
<glyph unicode="[" glyph-name="bracketleft" horiz-adv-x="317" d="M263 -127L18 -116Q63 160 75 260L111 639L362 650L365 640L347 556L257 539L188 -16L278 -33L281 -44L263 -127Z" />
<glyph unicode="\" glyph-name="backslash" horiz-adv-x="319" d="M34 655L54 675H173L229 226L276 -95L263 -110H137Q117 50 96 215L34 655Z" />
<glyph unicode="]" glyph-name="bracketright" horiz-adv-x="317" d="M60 650L305 639Q261 363 248 263L212 -116L-39 -127L-42 -117L-23 -33L67 -16L135 539L45 556L42 567L60 650Z" />
<glyph unicode="^" glyph-name="asciicircum" horiz-adv-x="454" d="M326 484L340 476Q375 359 395 290L441 152L343 96L323 105Q323 105 242 352H235L101 96L0 130L-9 148Q36 222 77 299L173 477L326 484Z" />
<glyph unicode="_" glyph-name="underscore" horiz-adv-x="434" d="M377 -218L-57 -219L-66 -200L-42 -95H312L397 -93L404 -112L377 -218Z" />
<glyph unicode="`" glyph-name="grave" horiz-adv-x="386" d="M31 642L29 659L101 760H118Q211 674 305 593L264 532L242 525Q128 592 31 642Z" />
<glyph unicode="a" glyph-name="a" horiz-adv-x="574" d="M316 99L318 131L261 132Q261 132 200 129Q189 88 189 85Q189 76 205 76H224L231 67L216 -3Q138 -1 89 -1H-21L-7 72Q21 80 35 111L203 500L447 513L459 502Q502 192 509 135T546 73L552 64L536 -2Q465
-1 418 -1L257 -4L251 3L264 75Q298 79 307 83T316 99ZM276 238Q295 238 313 239L307 363H287L240 238H276Z" />
<glyph unicode="b" glyph-name="b" horiz-adv-x="559" d="M95 407Q95 429 78 429L50 428L41 438L59 506Q179 504 204 504L362 510Q449 510 497 481T545 400Q545 362 524 331T454 268Q538 231 538 163Q538 75 473 33T275 -9Q263 -6 212 -3T140 0L-17 -5L0 71Q31
76 43 87T60 126Q95 403 95 407ZM235 124Q235 99 284 99Q343 99 343 153Q343 182 308 196L248 197Q235 128 235 124ZM322 299Q355 323 355 361T295 400Q282 400 279 391Q273 370 269 341T263 308Q290 299 322 299Z" />
<glyph unicode="c" glyph-name="c" horiz-adv-x="497" d="M340 -8T234 -8T72 47T16 206Q16 514 318 514Q385 514 507 493L513 475Q487 402 469 303L327 295Q336 341 336 355Q336 395 288 395Q250 395 236 357T221 238T230 136T266 114T304 130T326 198L466 207Q446
112 438 34L425 21Q340 -8 234 -8Z" />
<glyph unicode="d" glyph-name="d" horiz-adv-x="560" d="M94 403Q94 428 79 428L54 426L46 438L62 507Q158 504 191 504L320 509Q556 509 556 313Q556 165 469 78T236 -9Q160 0 108 0L-13 -6L4 73Q33 78 45 91T62 137Q94 392 94 403ZM291 399Q278 399 274 378Q272
384 253 252T234 118Q234 98 246 98Q350 98 350 309Q350 362 338 380T291 399Z" />
<glyph unicode="e" glyph-name="e" horiz-adv-x="502" d="M93 407Q93 429 76 429L56 428L46 440L62 507Q186 504 313 504T516 514L526 500Q500 414 488 340L361 333Q368 356 368 371T354 394T315 401T284 397T277 382L262 305H326L413 309L422 296L399 199Q341
201 323 201T245 197Q236 152 236 131T242 105T279 99T327 114T358 179L475 187L485 174Q460 97 442 8L426 -5Q299 0 213 0Q87 0 -17 -8L0 70Q30 75 42 89T59 139Q93 397 93 407Z" />
<glyph unicode="f" glyph-name="f" horiz-adv-x="467" d="M93 407Q93 429 76 429L56 428L46 440L62 507Q186 504 305 504T491 514L502 500Q481 412 469 341L343 334Q348 356 348 371Q348 401 302 401Q289 401 284 397T277 382L260 292L324 291L409 295L419 283L396
186Q340 188 320 188T244 184Q237 138 237 126T241 107T269 99T311 106L324 90L302 -2Q206 0 168 0Q89 0 -17 -8L0 71Q30 75 42 89T59 139Q93 397 93 407Z" />
<glyph unicode="g" glyph-name="g" horiz-adv-x="525" d="M236 -8Q131 -8 75 46T19 202Q19 513 324 513Q387 513 513 493L519 476Q492 414 473 316L332 308Q342 345 342 358Q342 396 293 396Q254 396 239 355T224 233T233 133T269 113Q289 113 307 119L312 160Q314
177 311 183T294 190L272 189L265 202L285 281Q373 282 439 282T505 286L507 236Q474 216 467 179Q450 100 450 59V29L438 15Q372 -8 236 -8Z" />
<glyph unicode="h" glyph-name="h" horiz-adv-x="608" d="M575 78L582 68L566 -1Q523 -1 467 0H425L279 -1L294 73Q346 74 353 128L363 200Q346 201 328 201L245 194Q234 103 234 94Q234 74 254 74L274 76L280 67L265 -3Q156 0 129 0T66 -1T-14 -3L1 69Q32 75
43 86T59 127Q93 399 93 408T89 423T68 429H48L42 441L56 504H162L337 507L322 431Q297 426 289 420T277 396L261 308L316 305Q355 305 375 307Q387 395 387 405T383 422T362 429H341L335 441L349 504H513L639 507L624 433Q595 428 585 421T569 383T546 242T529
110Q529 76 555 76L575 78Z" />
<glyph unicode="i" glyph-name="i" horiz-adv-x="313" d="M267 339T251 232T234 106T238 80T254 74L278 76L283 67L267 -3Q162 0 128 0L-13 -3L1 69Q34 76 45 88T59 132Q93 399 93 408T89 423T68 429H50Q47 433 43 441L57 504H193L341 507L326 431Q299 427 291
420T277 391Q267 339 251 232Z" />
<glyph unicode="j" glyph-name="j" horiz-adv-x="289" d="M50 105Q86 401 86 409T84 424T65 430L38 428L31 441L45 504L164 505L329 510L312 431Q289 426 283 419T272 391Q247 271 221 62Q210 -12 151 -58T-26 -130L-58 -91L-55 -78Q0 -40 20 -6T50 105Z" />
<glyph unicode="k" glyph-name="k" horiz-adv-x="583" d="M234 98Q234 74 254 74L278 76L285 67L269 -3Q162 0 128 0L-14 -4L1 67Q33 74 44 86T59 132Q93 399 93 408T89 423T68 429H48L42 441L57 505Q181 504 193 504L343 507L327 431Q295 423 285 415T274 388Q234
107 234 98ZM376 389T376 408T349 428L345 437L360 506Q442 504 480 504L605 508L611 495L596 432Q528 394 475 328L438 279L486 143Q498 109 513 93T551 72L559 59L542 -4Q429 -13 401 -13T357 0T326 50L256 247L264 272L348 361Q376 389 376 408Z" />
<glyph unicode="l" glyph-name="l" horiz-adv-x="471" d="M405 -5Q288 0 206 0Q87 0 -17 -8L-1 70Q30 75 42 89T59 139Q92 399 92 408T88 423T67 429H47L41 441L55 504H192L374 507L354 424Q312 420 295 413T276 389Q236 169 236 122Q236 99 255 99Q293 99 309
124T339 229L456 240Q463 230 465 227Q441 122 420 9L405 -5Z" />
<glyph unicode="m" glyph-name="m" horiz-adv-x="684" d="M242 -8L202 260H190Q170 106 170 96Q170 75 194 75L213 76Q217 73 220 69L201 -3Q106 0 86 0T41 -1T-2 -4T-20 -6L-4 70Q36 74 47 120Q52 138 79 265T107 405T101 420T64 427L57 434L74 508Q163 504 198
504L335 507Q337 412 352 285H364Q415 411 447 504Q599 504 613 505L687 509L694 506L678 430Q645 429 635 422T621 383T614 242T610 117T615 89T639 76L663 77L669 70L653 -2Q430 2 394 -6L413 71Q436 73 446 81T458 109L479 260H467Q408 128 359 0L242 -8Z" />
<glyph unicode="n" glyph-name="n" horiz-adv-x="613" d="M400 430H376L372 439L384 507Q480 504 563 504T646 506L633 430Q608 426 597 416T582 381L525 4L348 -5L237 217H223Q212 109 212 99T217 81T241 73L266 76L273 69L256 -3Q159 0 125 0L-10 -6L8 70Q32
73 44 84T60 119Q102 385 102 396T94 415T49 427L39 439L52 508Q114 504 180 504L293 507Q339 397 398 285H411L422 396Q424 416 420 423T400 430Z" />
<glyph unicode="o" glyph-name="o" horiz-adv-x="536" d="M261 99Q297 99 311 145T325 273T316 376T283 396Q249 396 235 350T221 222T230 119T261 99ZM240 -9Q133 -9 75 45T16 204Q16 514 307 514Q531 514 531 307Q531 154 457 73T240 -9Z" />
<glyph unicode="p" glyph-name="p" horiz-adv-x="511" d="M295 76L299 69L282 -3Q176 0 151 0T86 -2T-16 -7L1 71Q29 75 42 90T60 137Q93 395 93 403Q93 429 78 429L48 428L41 438L57 504H177L323 509Q387 509 432 495T500 457Q540 415 540 364Q540 281 469 219T309
157H241Q236 116 236 105T241 85T272 75L295 76ZM353 347Q353 375 338 388T290 401Q283 401 281 398T276 384T270 348T262 303T255 261L303 254Q353 273 353 347Z" />
<glyph unicode="q" glyph-name="q" horiz-adv-x="539" d="M16 204Q16 514 307 514Q531 514 531 307Q531 89 385 20V17Q417 -11 462 -29T534 -47Q577 -47 621 -39L630 -49L638 -109Q507 -192 474 -192Q426 -192 382 -159T230 -9Q127 -6 72 47T16 204ZM261 99Q297
99 311 145T325 273T316 376T283 396Q249 396 235 350T221 222T230 119T261 99Z" />
<glyph unicode="r" glyph-name="r" horiz-adv-x="571" d="M242 171Q236 118 236 105T242 84T288 75L291 68L275 -3Q167 0 136 0Q78 0 -16 -8L1 70Q30 75 43 89T60 137Q94 402 94 407Q94 429 78 429L48 428L41 438L58 505Q143 504 177 504L328 509Q553 509 553
377Q553 275 440 212L474 141Q489 109 506 91T539 73L548 58L532 -4L396 -12Q359 -12 340 3T311 58L282 171H242ZM366 351Q366 377 349 388T307 400T281 397Q276 390 257 279L314 271Q366 290 366 351Z" />
<glyph unicode="s" glyph-name="s" horiz-adv-x="462" d="M164 185Q116 204 86 228T45 275T34 327Q34 412 108 462T309 513Q389 513 473 491L482 472Q458 406 443 336L337 329L327 336Q329 351 329 352Q329 395 281 395Q261 395 249 387T236 364Q236 342 292 318Q369
287 394 269Q445 230 445 170Q445 86 372 39T169 -9Q125 -9 83 -1T1 25L-8 40Q18 120 27 167L141 175Q140 170 140 156T154 124T197 105Q243 105 243 130Q243 146 225 157T186 177T164 185Z" />
<glyph unicode="t" glyph-name="t" horiz-adv-x="499" d="M392 285Q395 322 395 344T392 378Q388 399 365 399Q328 130 328 116Q328 77 363 77L404 80L408 75L391 -5Q268 0 220 0L47 -8L63 71Q111 75 128 87T150 131L184 399Q161 399 151 378T128 291L14 285Q34
408 46 501L59 513L159 504H413L517 513L527 501L504 291L392 285Z" />
<glyph unicode="u" glyph-name="u" horiz-adv-x="511" d="M340 409Q340 429 324 429L309 428L306 431L325 507Q393 504 422 504L546 506L530 429Q506 421 499 415T490 397L464 186Q450 86 394 39T235 -9T86 23T37 122Q37 129 53 264T70 409T68 423T53 429L30 428L29
431L46 507Q129 504 198 504L311 506L293 428Q255 424 252 391Q218 153 218 148Q218 99 259 99Q283 99 294 111T310 156Q340 405 340 409Z" />
<glyph unicode="v" glyph-name="v" horiz-adv-x="535" d="M261 388V141H281Q369 389 369 414Q369 427 351 427H334L328 436L343 506Q420 504 469 504L570 505L556 431Q544 426 537 418T521 388L366 3L110 -10Q75 315 69 377Q64 405 58 416T37 430L31 439L46 506Q114
504 160 504L320 507L326 500L313 428Q282 424 272 416T261 388Z" />
<glyph unicode="w" glyph-name="w" horiz-adv-x="828" d="M424 192H411L351 3L105 -10Q72 315 67 377Q61 406 55 416T36 430L31 439L47 506Q111 504 155 504L310 507L315 500L301 428Q276 424 263 374T250 290V141H269Q324 295 352 393L361 420Q360 430 328 430Q325
430 322 430L317 439L333 506Q419 504 470 504L624 507L630 500L616 428Q586 425 575 417T564 388L565 141H584Q608 204 638 303T669 413T667 425T652 427H636L630 436L645 506Q720 504 766 504L863 505L849 431Q836 426 829 417T814 388L670 3L424 -10V192ZM360
414V410V414Z" />
<glyph unicode="x" glyph-name="x" horiz-adv-x="596" d="M384 503L626 506L628 500L615 425Q539 389 502 340L418 228L468 146Q510 79 559 79L545 -1Q464 2 434 2L259 -3L254 2L268 74Q287 74 287 89Q287 94 281 106L246 163L219 123Q207 104 207 94Q207 75 233
75L237 66L225 -3Q123 2 97 2L-16 -3L-19 9L-6 77Q10 85 45 116T102 175L182 273L134 356Q109 400 82 412Q72 416 49 422L45 426L62 505Q114 504 208 504L354 508L358 499L344 429Q343 429 342 429Q316 429 316 410T350 336Q398 411 398 418Q398 431 373 430Q373
433 371 435L384 503Z" />
<glyph unicode="y" glyph-name="y" horiz-adv-x="568" d="M361 502L495 503L590 506L592 500L577 425Q515 387 479 328L389 186Q369 148 369 122T376 87T405 77L447 80L451 75L434 -5Q305 0 256 0L80 -7L96 71Q149 74 167 85T191 137Q192 142 192 156T177 204L107
361Q94 389 40 422L36 426L54 505Q156 503 181 503L332 508L338 499L322 429Q321 429 319 429Q292 429 292 410T315 312H328L359 386Q374 413 374 422T348 430L346 435L361 502Z" />
<glyph unicode="z" glyph-name="z" horiz-adv-x="497" d="M454 16L435 -2L79 2L11 -6L-16 43L286 414L237 406Q191 399 179 384T159 320L44 313Q68 433 79 506L89 514L235 506L513 507L530 461Q391 307 224 94L296 107Q335 114 354 138T383 214L498 222Q465 94 454 16Z" />
<glyph unicode="{" glyph-name="braceleft" horiz-adv-x="326" d="M260 495L272 385Q272 350 251 325T190 290L189 285Q250 264 250 206Q250 182 227 121T204 39T216 4T251 -9L281 -4L292 -17L268 -100Q229 -123 165 -123T63 -93T25 -23T62 83T100 170Q100 217
39 235L53 311Q88 322 107 340T126 379T110 454T93 533Q93 588 146 623T280 659Q316 659 368 647L376 631L348 548Q329 553 309 553T275 538T260 495Z" />
<glyph unicode="|" glyph-name="bar" horiz-adv-x="280" d="M257 807L276 791Q229 457 209 291L143 -258L25 -269L12 -253Q19 -195 143 796L257 807Z" />
<glyph unicode="}" glyph-name="braceright" horiz-adv-x="326" d="M74 43L63 159Q63 233 145 256L146 261Q85 282 85 340Q85 363 107 420T130 498T118 532T83 545L53 540L42 553L66 636Q105 659 169 659T271 629T309 560T273 458T236 376Q236 322 296 311L283
235Q250 227 230 208T210 167T226 92T242 13Q242 -47 189 -85T54 -123Q18 -123 -34 -111L-42 -95L-14 -12Q5 -17 25 -17T59 -1T74 43Z" />
<glyph unicode="~" glyph-name="asciitilde" horiz-adv-x="490" d="M171 342T245 325T336 308Q365 308 416 352L433 366H449L491 310L489 294L369 179L347 175Q324 175 250 192T159 209Q130 209 79 166L62 151H46L4 207L6 223L126 338L148 342Q171 342 245 325Z" />
<glyph unicode="&#xa0;" glyph-name="nbspace" horiz-adv-x="137" />
<glyph unicode="&#xa1;" glyph-name="exclamdown" horiz-adv-x="275" d="M63 419T94 451T172 484Q260 484 260 404Q260 350 229 318T152 285T85 306T63 373ZM198 210L183 -192L162 -216L-29 -242L-51 -216L74 214L180 230L198 210Z" />
<glyph unicode="&#xa2;" glyph-name="cent" horiz-adv-x="393" d="M313 311Q288 363 257 363T207 319T188 201T236 128Q277 128 311 202L332 199L384 141Q365 93 323 54T232 -2L195 -151L78 -164L71 -158L109 0Q64 18 39 61T13 167Q13 276 73 361T226 474L268
644L387 658L392 649L349 477Q380 471 403 459L407 441L356 312L313 311Z" />
<glyph unicode="&#xa3;" glyph-name="sterling" horiz-adv-x="495" d="M462 216Q481 189 481 127T443 27T347 -12Q316 -12 256 15T165 42Q101 42 24 -1L10 5L-4 96Q78 138 85 201L90 235Q91 258 79 265T29 275L26 281L43 351L105 360L108 387Q118 464 208 531T385
598T512 583L516 572L457 441L438 438Q371 481 339 481T296 467T280 417L271 360L405 363L409 356L388 271Q334 274 258 274L252 236Q249 210 238 183T214 144L274 158Q283 158 320 150T375 141T410 162T431 216H462Z" />
<glyph unicode="&#xa4;" glyph-name="currency" horiz-adv-x="431" d="M-9 214L75 280Q71 296 71 330T91 407L22 479L29 502L144 579Q179 531 198 502Q230 515 261 515T323 502L399 581L422 577L486 472L406 408Q411 385 411 351T388 274L455 207L448 184L334
107L280 181Q250 170 218 170T156 184L79 105L56 109L-9 214ZM218 417T194 393T170 337T187 287T234 268T288 292T313 347T295 397T248 417Z" />
<glyph unicode="&#xa5;" glyph-name="yen" horiz-adv-x="573" d="M353 502L487 503L581 506L585 500L568 425Q535 407 518 394Q502 380 484 348L554 350L561 340L544 254H419L400 223L389 208L534 211L541 201L524 115H354V106Q354 77 392 77L434 80L438 75L422
-5Q294 0 247 0L71 -7L87 71Q132 74 150 83T175 115L18 114L9 122L31 207H172L154 254L38 253L29 261L51 346H108Q105 352 68 383T29 427L47 505Q116 503 210 503T325 509L329 499L313 429Q284 429 284 413Q284 406 312 312H320L363 410Q366 416 366 423Q366 435
346 435L341 444L353 502Z" />
<glyph unicode="&#xa6;" glyph-name="brokenbar" horiz-adv-x="280" d="M219 374L101 358L89 369L143 796L257 807L276 791Q241 548 219 374ZM62 150L175 167L191 150L142 -258L24 -269L12 -253Q38 -34 62 150Z" />
<glyph unicode="&#xa7;" glyph-name="section" horiz-adv-x="470" d="M152 -95Q95 -95 51 -73T7 -21Q7 43 63 107L90 105Q91 71 114 47T168 23T199 50Q199 67 181 82T137 111T85 141T40 185T22 248Q22 339 141 400Q100 439 100 488Q100 560 165 609T323 659Q378
659 420 645T462 610Q462 587 441 539T404 479H379Q374 504 359 520T328 536T302 528T292 507T309 478T352 447T402 413T444 366T462 304Q462 222 351 160Q389 125 389 80Q389 73 388 67Q379 -2 312 -48T152 -95ZM205 354Q185 332 185 312T191 278T214 251Q235
235 278 209Q294 228 294 248T288 283T266 310Q244 330 205 354Z" />
<glyph unicode="&#xa8;" glyph-name="dieresis" horiz-adv-x="386" d="M324 559Q253 559 253 626Q253 671 279 698T345 726Q420 726 420 658Q420 614 394 587T324 559ZM135 559Q65 559 65 626Q65 671 91 698T157 726Q232 726 232 658Q232 614 205 587T135 559Z" />
<glyph unicode="&#xa9;" glyph-name="copyright" horiz-adv-x="678" d="M48 261Q48 398 149 498T383 598Q495 598 569 519T644 324Q644 188 543 88T308 -12Q196 -12 122 66T48 261ZM108 267Q108 174 167 111T315 47Q422 47 503 128T584 319Q584 412 525 475T376
539Q269 539 189 458T108 267ZM399 133T332 133T230 167T194 268Q194 463 385 463Q417 463 504 450L508 438Q492 392 480 330L391 325Q396 354 396 362Q396 388 369 388T333 364T324 288T329 224T352 210T376 220T390 263L478 269Q466 209 461 160L453 151Q399
133 332 133Z" />
<glyph unicode="&#xaa;" glyph-name="ordfeminine" horiz-adv-x="390" d="M233 319Q197 319 197 354Q197 366 212 427H205Q156 345 118 319Q66 319 37 347T7 427Q7 506 63 575T184 644L231 631L234 644L249 653L350 645L356 628Q331 521 318 441L321 439Q327 439
354 465L371 462L385 427Q327 363 296 341T233 319ZM152 430Q163 430 182 470T212 553Q186 569 164 569Q157 569 150 537T143 467T152 430Z" />
<glyph unicode="&#xab;" glyph-name="guillemotleft" horiz-adv-x="464" d="M407 422L465 387L470 364Q452 339 388 232Q412 159 437 101L427 78L361 42Q300 132 232 219L235 246Q331 339 407 422ZM205 422L263 387L268 364Q250 339 186 232Q210 159 235 101L225
78L159 42Q98 132 30 219L33 246Q129 339 205 422Z" />
<glyph unicode="&#xac;" glyph-name="logicalnot" horiz-adv-x="491" d="M455 359L460 344Q438 266 425 164L409 29L271 11L260 20Q271 111 284 207H239L20 206L12 219L47 354Q182 353 268 353L455 359Z" />
<glyph unicode="&#xae;" glyph-name="registered" horiz-adv-x="454" d="M160 303T111 356T61 493T128 644T278 711T410 658T460 521T392 370T242 303ZM210 669T156 616T102 496T141 387T245 345T364 398T418 518T379 627T275 669ZM232 615Q253 615 273 617Q355
617 355 567Q355 525 312 501Q332 457 339 450T352 441L354 438Q353 435 353 428T350 419Q336 413 313 413T283 416T270 439L258 486H242Q238 458 238 453T242 446T259 443V441L253 415Q220 417 207 417H196L152 414L158 441Q177 445 180 468L193 571Q196 589 188
589L177 588L174 590L180 615H232ZM247 524L270 523Q291 529 291 557Q291 579 262 579Q257 579 256 572T252 549T247 524Z" />
<glyph unicode="&#xaf;" glyph-name="overscore" horiz-adv-x="386" d="M393 693L402 675L370 566L105 564L91 579L123 688Q215 687 272 687L393 693Z" />
<glyph unicode="&#xb0;" glyph-name="degree" horiz-adv-x="293" d="M115 389T82 424T49 515T94 615T194 659T281 625T314 534T270 433T170 389ZM161 584T143 565T124 519T137 479T176 464T220 483T239 528T226 569T187 584Z" />
<glyph unicode="&#xb1;" glyph-name="plusminus" horiz-adv-x="491" d="M458 200L309 199L293 58L160 40L148 49Q158 123 168 199L19 198L11 211L46 346Q115 345 186 345Q189 371 196 423T206 502L339 515L353 508Q338 420 327 345L483 351L488 336L458 200ZM401
-123L-3 -124L-11 -105L12 0H335L420 2L428 -17L401 -123Z" />
<glyph unicode="&#xb2;" glyph-name="two.sups" horiz-adv-x="369" d="M169 585Q169 610 137 610T61 566H47L39 652Q115 728 197 728Q252 728 285 703T318 633T287 544T175 425L178 419H204Q227 419 240 432T260 480L347 486Q321 393 311 332L297 319Q139 327
67 327L-2 323L0 396L104 493Q169 556 169 585Z" />
<glyph unicode="&#xb3;" glyph-name="three.sups" horiz-adv-x="322" d="M15 431Q41 418 73 418T123 428T141 455Q141 481 77 481L68 492V558L113 566Q154 581 154 614Q154 634 129 634T59 607H48L34 681Q69 703 111 715T193 728T262 708T291 655T268 595T205
558V550Q290 518 290 461T218 362T55 319Q19 319 8 338T-4 400Q-4 407 -4 414L15 431Z" />
<glyph unicode="&#xb4;" glyph-name="acute" horiz-adv-x="386" d="M346 659L344 642Q236 586 133 525L111 532L70 593L257 760H274L346 659Z" />
<glyph unicode="&#xb5;" glyph-name="mu" horiz-adv-x="531" d="M477 128Q490 128 508 136L522 110Q494 71 455 35T386 -12Q284 -12 280 61L270 66Q207 -10 191 -10T163 -3L158 -6L147 -105L140 -205L131 -217L-28 -242L-41 -228Q-10 -88 15 73L55 325Q59 355
59 379T56 427L69 455L254 484L264 462Q245 432 224 321T203 181Q203 134 236 134Q250 134 280 150L301 323Q304 354 304 377T300 425L314 452L511 480L522 458Q507 437 480 313T453 158T477 128Z" />
<glyph unicode="&#xb6;" glyph-name="paragraph" horiz-adv-x="557" d="M292 652L450 647L611 650L595 566L592 562Q565 555 558 548T544 512T519 370T493 190Q480 80 383 -7T177 -94Q124 -94 85 -66T46 -7T65 65T108 135H125Q125 78 146 45T207 12T266 33T292
106L346 545Q348 554 343 557T321 560Q286 560 266 508T245 377T283 232L279 197Q161 197 93 251T24 406T101 579T292 652Z" />
<glyph unicode="&#xb7;" glyph-name="middot" horiz-adv-x="231" d="M101 154Q19 154 19 234Q19 288 50 320T128 353Q215 353 215 272Q215 219 184 187T101 154Z" />
<glyph unicode="&#xb8;" glyph-name="cedilla" horiz-adv-x="391" d="M92 -126Q92 -174 132 -174Q163 -174 163 -151T86 -87L131 36H193L170 -37Q207 -56 236 -82T266 -138Q266 -181 219 -212T105 -243Q75 -243 49 -229T23 -193T84 -118H92Q92 -122 92 -126Z" />
<glyph unicode="&#xb9;" glyph-name="one.sups" horiz-adv-x="276" d="M222 634T207 540T192 418T212 390L241 391L243 387L225 323Q156 327 119 327L-14 320L-1 378Q60 384 64 422Q87 616 87 624T84 638T61 644L29 643L23 650L36 703Q43 703 253 728L262 696Q241
682 232 658Z" />
<glyph unicode="&#xba;" glyph-name="ordmasculine" horiz-adv-x="362" d="M170 395Q186 395 193 419T200 492T195 554T177 567Q147 567 147 459Q147 395 170 395ZM145 319Q83 319 49 354T15 454Q15 546 66 599T204 653Q267 653 300 620T334 522Q334 429 283 374T145
319Z" />
<glyph unicode="&#xbb;" glyph-name="guillemotright" horiz-adv-x="464" d="M305 42L247 77L243 100Q278 151 324 232Q300 305 275 363L285 386L351 422Q399 351 480 245L477 218Q382 125 305 42ZM103 42L45 77L41 100Q76 151 122 232Q98 305 73 363L83 386L149
422Q197 351 278 245L275 218Q180 125 103 42Z" />
<glyph unicode="&#xbc;" glyph-name="onequarter" horiz-adv-x="845" d="M643 647L653 623Q474 346 383 207L194 -91L101 -56L95 -39Q206 121 289 253L556 679L643 647ZM222 561T207 467T192 345T212 317L241 318L243 314L225 250Q156 254 119 254L-14 247L-1
305Q60 311 64 349Q87 543 87 551T84 565T61 571L29 570L23 577L36 630Q43 630 253 655L262 623Q241 609 232 585ZM472 85L481 157L675 399L681 401L787 392L760 169H803L810 159L792 78L750 79L744 8L736 0L614 -8L607 0Q615 40 621 83L472 85ZM635 250L579 169H633L643
250H635Z" />
<glyph unicode="&#xbd;" glyph-name="onehalf" horiz-adv-x="877" d="M643 647L653 623Q474 346 383 207L194 -91L101 -56L95 -39Q206 121 289 253L556 679L643 647ZM222 561T207 467T192 345T212 317L241 318L243 314L225 250Q156 254 119 254L-14 247L-1 305Q60
311 64 349Q87 543 87 551T84 565T61 571L29 570L23 577L36 630Q43 630 253 655L262 623Q241 609 232 585ZM669 258Q669 283 637 283T561 239H547L539 325Q615 401 697 401Q752 401 785 376T818 306T787 217T675 98L678 92H704Q727 92 740 105T760 153L847 159Q821
66 811 5L797 -8Q639 0 567 0L498 -4L500 69L604 166Q669 229 669 258Z" />
<glyph unicode="&#xbe;" glyph-name="threequarters" horiz-adv-x="841" d="M639 647L649 623Q470 346 379 207L190 -91L97 -56L91 -39Q202 121 285 253L552 679L639 647ZM468 85L477 157L671 399L677 401L783 392L756 169H799L806 159L788 78L746 79L740 8L732
0L610 -8L603 0Q611 40 617 83L468 85ZM631 250L575 169H629L639 250H631ZM15 358Q41 345 73 345T123 355T141 382Q141 408 77 408L68 419V485L113 493Q154 508 154 541Q154 561 129 561T59 534H48L34 608Q69 630 111 642T193 655T262 635T291 582T268 522T205
485V477Q290 445 290 388T218 289T55 246Q19 246 8 265T-4 327Q-4 334 -4 341L15 358Z" />
<glyph unicode="&#xbf;" glyph-name="questiondown" horiz-adv-x="371" d="M132 -23Q132 -90 279 -96L291 -114L236 -232L218 -241Q100 -238 25 -190T-51 -71Q-51 -19 -13 25T132 134L135 140L137 209L147 223L267 243L281 235L288 102L283 87L185 40Q132 13 132
-23ZM130 419T161 451T238 484Q327 484 327 404Q327 350 296 318T218 285Q130 285 130 366Q130 419 161 451Z" />
<glyph unicode="&#xc0;" glyph-name="Agrave" horiz-adv-x="661" d="M377 121V178Q312 180 304 180L227 175Q208 111 208 104Q208 89 231 89H258L265 79L247 -4Q156 -1 97 -1L-33 -2L-16 85Q20 94 39 140L250 642L517 658L531 646Q579 261 593 153Q597 119 608
104T640 86L646 76L628 -3Q544 -1 490 -1L302 -6L295 3L311 87Q353 92 365 98T377 121ZM251 746L244 762L280 870L296 875Q422 821 545 775L524 704L505 691Q412 715 251 746ZM322 301Q329 301 371 303L361 478H339L274 301H322Z" />
<glyph unicode="&#xc1;" glyph-name="Aacute" horiz-adv-x="661" d="M377 121V178Q312 180 304 180L227 175Q208 111 208 104Q208 89 231 89H258L265 79L247 -4Q156 -1 97 -1L-33 -2L-16 85Q20 94 39 140L250 642L517 658L531 646Q579 261 593 153Q597 119 608
104T640 86L646 76L628 -3Q544 -1 490 -1L302 -6L295 3L311 87Q353 92 365 98T377 121ZM322 301Q329 301 371 303L361 478H339L274 301H322ZM551 762L544 746Q414 722 290 691L271 704L250 775Q353 813 499 875L515 870L551 762Z" />
<glyph unicode="&#xc2;" glyph-name="Acircumflex" horiz-adv-x="661" d="M377 121V178Q312 180 304 180L227 175Q208 111 208 104Q208 89 231 89H258L265 79L247 -4Q156 -1 97 -1L-33 -2L-16 85Q20 94 39 140L250 642L517 658L531 646Q579 261 593 153Q597 119
608 104T640 86L646 76L628 -3Q544 -1 490 -1L302 -6L295 3L311 87Q353 92 365 98T377 121ZM322 301Q329 301 371 303L361 478H339L274 301H322ZM431 908Q431 911 494 854T587 770L544 708L520 701Q476 721 398 752Q348 734 264 701L242 708L214 770Q294 824 404
908H431Z" />
<glyph unicode="&#xc3;" glyph-name="Atilde" horiz-adv-x="661" d="M377 121V178Q312 180 304 180L227 175Q208 111 208 104Q208 89 231 89H258L265 79L247 -4Q156 -1 97 -1L-33 -2L-16 85Q20 94 39 140L250 642L517 658L531 646Q579 261 593 153Q597 119 608
104T640 86L646 76L628 -3Q544 -1 490 -1L302 -6L295 3L311 87Q353 92 365 98T377 121ZM322 301Q329 301 371 303L361 478H339L274 301H322ZM334 864T390 847T460 830Q482 830 521 874L534 888H550L602 834L600 818L507 703L490 699Q472 699 416 716T347 733T316
719T272 675H256L204 729L206 745L299 860L316 864Q334 864 390 847Z" />
<glyph unicode="&#xc4;" glyph-name="Adieresis" horiz-adv-x="661" d="M377 121V178Q312 180 304 180L227 175Q208 111 208 104Q208 89 231 89H258L265 79L247 -4Q156 -1 97 -1L-33 -2L-16 85Q20 94 39 140L250 642L517 658L531 646Q579 261 593 153Q597 119
608 104T640 86L646 76L628 -3Q544 -1 490 -1L302 -6L295 3L311 87Q353 92 365 98T377 121ZM322 301Q329 301 371 303L361 478H339L274 301H322ZM482 695Q411 695 411 762Q411 807 437 834T503 862Q578 862 578 794Q578 750 552 723T482 695ZM294 695Q224 695 224
762Q224 807 250 834T316 862Q390 862 390 794Q390 750 364 723T294 695Z" />
<glyph unicode="&#xc5;" glyph-name="Aring" horiz-adv-x="661" d="M377 121V178Q312 180 304 180L227 175Q208 111 208 104Q208 89 231 89H258L265 79L247 -4Q156 -1 97 -1L-33 -2L-16 85Q20 94 39 140L250 642L517 658L531 646Q579 261 593 153Q597 119 608
104T640 86L646 76L628 -3Q544 -1 490 -1L302 -6L295 3L311 87Q353 92 365 98T377 121ZM511 757T477 720T394 682T323 706T300 776T334 857T418 892T489 868T511 801ZM322 301Q329 301 371 303L361 478H339L274 301H322ZM403 752Q417 752 429 760T441 790Q441 820
407 820Q370 820 370 783Q370 752 403 752Z" />
<glyph unicode="&#xc6;" glyph-name="AE" horiz-adv-x="916" d="M210 101Q210 92 218 91T262 89L265 79L248 -4Q242 -1 54 -1L-24 -2L-16 85Q22 94 46 140L247 531Q246 559 225 559L200 557L189 571L208 650Q371 647 587 648T877 659L888 643Q858 538 841 444L702
435Q709 467 709 488T691 518T623 527Q589 527 589 503L595 372L665 385L766 411L781 394L756 278L660 266L598 254L599 181Q600 114 643 114Q696 114 716 133T754 221L883 230L894 215Q864 118 841 9L824 -7Q664 0 470 0L302 -6L296 3L312 87Q352 91 366 100Q385
111 385 162L388 219L315 206L238 183Q210 105 210 101ZM304 324L344 328L393 337L397 478H375L304 324Z" />
<glyph unicode="&#xc7;" glyph-name="Ccedilla" horiz-adv-x="584" d="M222 -126Q222 -174 262 -174Q293 -174 293 -151T216 -87L244 -9Q135 0 77 69T18 259Q18 455 112 557T386 659Q460 659 608 633L614 613Q582 521 560 399L404 390Q415 447 415 465Q415 521
349 521Q294 521 271 463T248 268Q248 193 263 162T316 130T370 153T402 246L557 256Q531 139 520 43L505 27Q420 -5 308 -10L300 -37Q337 -56 366 -82T396 -138Q396 -181 349 -212T235 -243Q205 -243 179 -229T153 -193T214 -118H222Q222 -122 222 -126Z" />
<glyph unicode="&#xc8;" glyph-name="Egrave" horiz-adv-x="586" d="M303 387L382 386L489 392L499 378L471 263Q400 266 369 266T283 260Q269 165 269 147T277 122T309 115Q369 115 391 134T431 221L560 230L571 215Q541 118 518 9L501 -7Q343 0 244 0Q100 0
-20 -10L0 82Q37 88 52 106T73 170Q118 521 118 531T115 550T96 559L71 557L61 571L80 650Q220 647 369 647T612 659L623 643Q592 538 576 444L436 435Q444 467 444 488T426 518T374 527T333 522T323 500L303 387ZM221 746L214 762L250 870L266 875Q392 821 515
775L494 704L475 691Q382 715 221 746Z" />
<glyph unicode="&#xc9;" glyph-name="Eacute" horiz-adv-x="586" d="M303 387L382 386L489 392L499 378L471 263Q400 266 369 266T283 260Q269 165 269 147T277 122T309 115Q369 115 391 134T431 221L560 230L571 215Q541 118 518 9L501 -7Q343 0 244 0Q100 0
-20 -10L0 82Q37 88 52 106T73 170Q118 521 118 531T115 550T96 559L71 557L61 571L80 650Q220 647 369 647T612 659L623 643Q592 538 576 444L436 435Q444 467 444 488T426 518T374 527T333 522T323 500L303 387ZM516 762L509 746Q379 722 255 691L236 704L215
775Q318 813 464 875L480 870L516 762Z" />
<glyph unicode="&#xca;" glyph-name="Ecircumflex" horiz-adv-x="586" d="M303 387L382 386L489 392L499 378L471 263Q400 266 369 266T283 260Q269 165 269 147T277 122T309 115Q369 115 391 134T431 221L560 230L571 215Q541 118 518 9L501 -7Q343 0 244 0Q100
0 -20 -10L0 82Q37 88 52 106T73 170Q118 521 118 531T115 550T96 559L71 557L61 571L80 650Q220 647 369 647T612 659L623 643Q592 538 576 444L436 435Q444 467 444 488T426 518T374 527T333 522T323 500L303 387ZM416 908Q416 911 479 854T572 770L529 708L505
701Q461 721 383 752Q333 734 249 701L227 708L199 770Q279 824 389 908H416Z" />
<glyph unicode="&#xcb;" glyph-name="Edieresis" horiz-adv-x="586" d="M303 387L382 386L489 392L499 378L471 263Q400 266 369 266T283 260Q269 165 269 147T277 122T309 115Q369 115 391 134T431 221L560 230L571 215Q541 118 518 9L501 -7Q343 0 244 0Q100
0 -20 -10L0 82Q37 88 52 106T73 170Q118 521 118 531T115 550T96 559L71 557L61 571L80 650Q220 647 369 647T612 659L623 643Q592 538 576 444L436 435Q444 467 444 488T426 518T374 527T333 522T323 500L303 387ZM467 695Q396 695 396 762Q396 807 422 834T488
862Q563 862 563 794Q563 750 537 723T467 695ZM279 695Q209 695 209 762Q209 807 235 834T300 862Q375 862 375 794Q375 750 349 723T279 695Z" />
<glyph unicode="&#xcc;" glyph-name="Igrave" horiz-adv-x="359" d="M308 428T288 290T267 128T272 95T292 87L323 90L329 80L310 -4Q188 0 147 0L-17 -5L1 80Q41 89 54 104T73 162Q118 521 118 532T113 551T88 559L64 558L56 572L73 647H232L402 652L384 562Q351
557 340 548T323 510Q308 428 288 290ZM89 746L82 762L118 870L134 875Q260 821 383 775L362 704L343 691Q250 715 89 746Z" />
<glyph unicode="&#xcd;" glyph-name="Iacute" horiz-adv-x="359" d="M308 428T288 290T267 128T272 95T292 87L323 90L329 80L310 -4Q188 0 147 0L-17 -5L1 80Q41 89 54 104T73 162Q118 521 118 532T113 551T88 559L64 558L56 572L73 647H232L402 652L384 562Q351
557 340 548T323 510Q308 428 288 290ZM397 762L390 746Q260 722 136 691L117 704L96 775Q199 813 345 875L361 870L397 762Z" />
<glyph unicode="&#xce;" glyph-name="Icircumflex" horiz-adv-x="359" d="M308 428T288 290T267 128T272 95T292 87L323 90L329 80L310 -4Q188 0 147 0L-17 -5L1 80Q41 89 54 104T73 162Q118 521 118 532T113 551T88 559L64 558L56 572L73 647H232L402 652L384
562Q351 557 340 548T323 510Q308 428 288 290ZM277 908Q277 911 340 854T433 770L390 708L366 701Q322 721 244 752Q194 734 110 701L88 708L60 770Q140 824 250 908H277Z" />
<glyph unicode="&#xcf;" glyph-name="Idieresis" horiz-adv-x="359" d="M308 428T288 290T267 128T272 95T292 87L323 90L329 80L310 -4Q188 0 147 0L-17 -5L1 80Q41 89 54 104T73 162Q118 521 118 532T113 551T88 559L64 558L56 572L73 647H232L402 652L384 562Q351
557 340 548T323 510Q308 428 288 290ZM328 695Q257 695 257 762Q257 807 283 834T349 862Q424 862 424 794Q424 750 398 723T328 695ZM140 695Q70 695 70 762Q70 807 96 834T162 862Q236 862 236 794Q236 750 210 723T140 695Z" />
<glyph unicode="&#xd0;" glyph-name="Eth" horiz-adv-x="680" d="M139 531Q139 557 120 557L89 555L81 569L100 650Q209 647 249 647L402 653Q539 653 612 589T685 402Q685 215 579 102T299 -12Q207 0 146 0L4 -8L24 85Q60 91 74 108T96 168L108 266H20L11 274L35
363H120Q139 521 139 531ZM363 526Q353 526 348 521T340 499T318 364L388 367L395 357L377 267H304Q287 157 287 142Q287 113 313 113Q455 113 455 398Q455 469 435 497T363 526Z" />
<glyph unicode="&#xd1;" glyph-name="Ntilde" horiz-adv-x="718" d="M496 333Q515 521 515 532T510 551T488 559H458L454 570L469 651Q578 647 674 647T770 650L754 560Q723 556 710 542T691 497L617 0L425 -12Q357 144 275 315H260Q241 128 241 117T246 96T274
86L306 90L314 81L293 -4Q183 0 147 0Q80 0 -12 -8L9 82Q38 86 53 100T72 145Q127 504 127 518T117 542T62 557L52 571L67 652Q140 647 213 647L341 651Q397 507 481 333H496ZM367 864T423 847T492 830Q515 830 554 874L567 888H583L635 834L633 818L540 703L523
699Q505 699 449 716T380 733T349 719T305 675H289L237 729L239 745L332 860L349 864Q367 864 423 847Z" />
<glyph unicode="&#xd2;" glyph-name="Ograve" horiz-adv-x="633" d="M310 114Q362 114 384 181T407 402Q407 522 342 522Q292 522 270 455T247 234Q247 114 310 114ZM283 -12Q158 -12 88 57T18 256Q18 450 108 554T372 659Q500 659 569 593T638 398Q638 204 546
96T283 -12ZM235 746L228 762L264 870L280 875Q406 821 529 775L508 704L489 691Q396 715 235 746Z" />
<glyph unicode="&#xd3;" glyph-name="Oacute" horiz-adv-x="633" d="M310 114Q362 114 384 181T407 402Q407 522 342 522Q292 522 270 455T247 234Q247 114 310 114ZM283 -12Q158 -12 88 57T18 256Q18 450 108 554T372 659Q500 659 569 593T638 398Q638 204 546
96T283 -12ZM528 762L521 746Q391 722 267 691L248 704L227 775Q330 813 476 875L492 870L528 762Z" />
<glyph unicode="&#xd4;" glyph-name="Ocircumflex" horiz-adv-x="633" d="M310 114Q362 114 384 181T407 402Q407 522 342 522Q292 522 270 455T247 234Q247 114 310 114ZM283 -12Q158 -12 88 57T18 256Q18 450 108 554T372 659Q500 659 569 593T638 398Q638 204
546 96T283 -12ZM414 908Q414 911 477 854T570 770L527 708L503 701Q459 721 381 752Q331 734 247 701L225 708L197 770Q277 824 387 908H414Z" />
<glyph unicode="&#xd5;" glyph-name="Otilde" horiz-adv-x="633" d="M310 114Q362 114 384 181T407 402Q407 522 342 522Q292 522 270 455T247 234Q247 114 310 114ZM283 -12Q158 -12 88 57T18 256Q18 450 108 554T372 659Q500 659 569 593T638 398Q638 204 546
96T283 -12ZM317 864T373 847T442 830Q465 830 504 874L517 888H533L585 834L583 818L490 703L473 699Q455 699 399 716T330 733T299 719T255 675H239L187 729L189 745L282 860L299 864Q317 864 373 847Z" />
<glyph unicode="&#xd6;" glyph-name="Odieresis" horiz-adv-x="633" d="M310 114Q362 114 384 181T407 402Q407 522 342 522Q292 522 270 455T247 234Q247 114 310 114ZM283 -12Q158 -12 88 57T18 256Q18 450 108 554T372 659Q500 659 569 593T638 398Q638 204
546 96T283 -12ZM465 695Q394 695 394 762Q394 807 420 834T486 862Q561 862 561 794Q561 750 535 723T465 695ZM277 695Q207 695 207 762Q207 807 233 834T298 862Q373 862 373 794Q373 750 347 723T277 695Z" />
<glyph unicode="&#xd7;" glyph-name="multiply" horiz-adv-x="491" d="M379 455L393 449L464 347L346 236L442 129L434 113L319 26L229 132L115 26L100 29L34 133Q86 182 141 232L46 345L51 361L169 444Q213 389 257 336L379 455Z" />
<glyph unicode="&#xd8;" glyph-name="Oslash" horiz-adv-x="633" d="M18 256Q18 450 108 554T372 659Q427 659 474 645L543 752L640 698L642 685L576 585Q638 517 638 398Q638 204 546 96T283 -12Q230 -12 187 0L108 -117L13 -62L9 -52L85 60Q18 130 18 256ZM310
114Q362 114 384 181T407 402Q407 522 342 522Q292 522 270 455T247 234Q247 114 310 114Z" />
<glyph unicode="&#xd9;" glyph-name="Ugrave" horiz-adv-x="605" d="M422 531Q422 559 402 559L381 557L378 561L400 650Q481 647 516 647L659 650L640 560Q609 550 600 542T589 516L554 234Q537 109 469 49T280 -12T103 30T47 159Q47 175 68 348T90 533T87 551T68
559L40 557L38 561L59 650Q155 647 233 647L365 651L344 558Q318 555 307 544T292 509L251 220Q249 201 249 187Q249 115 308 115Q343 115 360 135T384 203Q422 522 422 531ZM227 746L220 762L256 870L272 875Q398 821 521 775L500 704L481 691Q388 715 227 746Z"
/>
<glyph unicode="&#xda;" glyph-name="Uacute" horiz-adv-x="605" d="M422 531Q422 559 402 559L381 557L378 561L400 650Q481 647 516 647L659 650L640 560Q609 550 600 542T589 516L554 234Q537 109 469 49T280 -12T103 30T47 159Q47 175 68 348T90 533T87 551T68
559L40 557L38 561L59 650Q155 647 233 647L365 651L344 558Q318 555 307 544T292 509L251 220Q249 201 249 187Q249 115 308 115Q343 115 360 135T384 203Q422 522 422 531ZM522 762L515 746Q385 722 261 691L242 704L221 775Q324 813 470 875L486 870L522 762Z"
/>
<glyph unicode="&#xdb;" glyph-name="Ucircumflex" horiz-adv-x="605" d="M422 531Q422 559 402 559L381 557L378 561L400 650Q481 647 516 647L659 650L640 560Q609 550 600 542T589 516L554 234Q537 109 469 49T280 -12T103 30T47 159Q47 175 68 348T90 533T87
551T68 559L40 557L38 561L59 650Q155 647 233 647L365 651L344 558Q318 555 307 544T292 509L251 220Q249 201 249 187Q249 115 308 115Q343 115 360 135T384 203Q422 522 422 531ZM422 908Q422 911 485 854T578 770L535 708L511 701Q467 721 389 752Q339 734
255 701L233 708L205 770Q285 824 395 908H422Z" />
<glyph unicode="&#xdc;" glyph-name="Udieresis" horiz-adv-x="605" d="M422 531Q422 559 402 559L381 557L378 561L400 650Q481 647 516 647L659 650L640 560Q609 550 600 542T589 516L554 234Q537 109 469 49T280 -12T103 30T47 159Q47 175 68 348T90 533T87
551T68 559L40 557L38 561L59 650Q155 647 233 647L365 651L344 558Q318 555 307 544T292 509L251 220Q249 201 249 187Q249 115 308 115Q343 115 360 135T384 203Q422 522 422 531ZM473 695Q402 695 402 762Q402 807 428 834T494 862Q569 862 569 794Q569 750
543 723T473 695ZM285 695Q215 695 215 762Q215 807 241 834T306 862Q381 862 381 794Q381 750 355 723T285 695Z" />
<glyph unicode="&#xdd;" glyph-name="Yacute" horiz-adv-x="650" d="M332 533Q332 500 365 387H379L429 501Q447 534 447 547T413 561L411 567L429 646H584L695 650L698 642L680 555Q607 514 558 429L448 247Q429 212 422 154Q420 142 420 128T427 103T463 91L513
94L517 88L497 -6Q350 0 293 0L92 -9L111 83Q174 88 195 103T222 162Q225 186 225 193Q225 226 208 268L128 467Q108 520 44 551L40 557L61 648Q177 646 209 646L386 653L392 642L373 560Q332 560 332 533ZM554 762L547 746Q417 722 293 691L274 704L253 775Q356
813 502 875L518 870L554 762Z" />
<glyph unicode="&#xde;" glyph-name="Thorn" horiz-adv-x="590" d="M390 522Q605 522 605 360Q605 261 530 200T337 139H268L265 116Q263 98 268 93T292 87L333 90L340 80L321 -4Q191 0 147 0L-17 -5L1 80Q40 88 54 104T73 162Q118 521 118 532T113 551T88 559L64
558L56 572L73 647H232L402 652L384 562Q347 554 338 548Q328 543 324 522H390ZM398 344Q398 407 323 407Q304 407 301 385Q291 313 284 256Q326 246 342 246Q398 262 398 344Z" />
<glyph unicode="&#xdf;" glyph-name="germandbls" horiz-adv-x="924" d="M164 185Q116 204 86 228T45 275T34 327Q34 412 108 462T309 513Q389 513 473 491L482 472Q458 406 443 336L337 329L327 336Q329 351 329 352Q329 395 281 395Q261 395 249 387T236 364Q236
342 292 318Q369 287 394 269Q445 230 445 170Q445 86 372 39T169 -9Q125 -9 83 -1T1 25L-8 40Q18 120 27 167L141 175Q140 170 140 156T154 124T197 105Q243 105 243 130Q243 146 225 157T186 177T164 185ZM626 185Q578 204 548 228T507 275T496 327Q496 412 570
462T771 513Q851 513 935 491L944 472Q920 406 905 336L799 329L789 336Q791 351 791 352Q791 395 743 395Q723 395 711 387T698 364Q698 342 754 318Q831 287 856 269Q907 230 907 170Q907 86 834 39T631 -9Q587 -9 545 -1T463 25L454 40Q480 120 489 167L603
175Q602 170 602 156T616 124T659 105Q705 105 705 130Q705 146 687 157T648 177T626 185Z" />
<glyph unicode="&#xe0;" glyph-name="agrave" horiz-adv-x="574" d="M316 99L318 131L261 132Q261 132 200 129Q189 88 189 85Q189 76 205 76H224L231 67L216 -3Q138 -1 89 -1H-21L-7 72Q21 80 35 111L203 500L447 513L459 502Q502 192 509 135T546 73L552 64L536
-2Q465 -1 418 -1L257 -4L251 3L264 75Q298 79 307 83T316 99ZM194 602L187 618L223 726L239 731Q365 677 488 631L467 560L448 547Q355 571 194 602ZM276 238Q295 238 313 239L307 363H287L240 238H276Z" />
<glyph unicode="&#xe1;" glyph-name="aacute" horiz-adv-x="574" d="M316 99L318 131L261 132Q261 132 200 129Q189 88 189 85Q189 76 205 76H224L231 67L216 -3Q138 -1 89 -1H-21L-7 72Q21 80 35 111L203 500L447 513L459 502Q502 192 509 135T546 73L552 64L536
-2Q465 -1 418 -1L257 -4L251 3L264 75Q298 79 307 83T316 99ZM480 618L473 602Q343 578 219 547L200 560L179 631Q282 669 428 731L444 726L480 618ZM276 238Q295 238 313 239L307 363H287L240 238H276Z" />
<glyph unicode="&#xe2;" glyph-name="acircumflex" horiz-adv-x="574" d="M316 99L318 131L261 132Q261 132 200 129Q189 88 189 85Q189 76 205 76H224L231 67L216 -3Q138 -1 89 -1H-21L-7 72Q21 80 35 111L203 500L447 513L459 502Q502 192 509 135T546 73L552
64L536 -2Q465 -1 418 -1L257 -4L251 3L264 75Q298 79 307 83T316 99ZM368 764Q368 767 431 710T524 626L481 564L457 557Q413 577 335 608Q285 590 201 557L179 564L151 626Q231 680 341 764H368ZM276 238Q295 238 313 239L307 363H287L240 238H276Z" />
<glyph unicode="&#xe3;" glyph-name="atilde" horiz-adv-x="574" d="M316 99L318 131L261 132Q261 132 200 129Q189 88 189 85Q189 76 205 76H224L231 67L216 -3Q138 -1 89 -1H-21L-7 72Q21 80 35 111L203 500L447 513L459 502Q502 192 509 135T546 73L552 64L536
-2Q465 -1 418 -1L257 -4L251 3L264 75Q298 79 307 83T316 99ZM270 720T326 703T396 686Q418 686 457 730L470 744H486L538 690L536 674L443 559L426 555Q408 555 352 572T283 589T252 575T208 531H192L140 585L142 601L235 716L252 720Q270 720 326 703ZM276 238Q295
238 313 239L307 363H287L240 238H276Z" />
<glyph unicode="&#xe4;" glyph-name="adieresis" horiz-adv-x="574" d="M316 99L318 131L261 132Q261 132 200 129Q189 88 189 85Q189 76 205 76H224L231 67L216 -3Q138 -1 89 -1H-21L-7 72Q21 80 35 111L203 500L447 513L459 502Q502 192 509 135T546 73L552
64L536 -2Q465 -1 418 -1L257 -4L251 3L264 75Q298 79 307 83T316 99ZM419 551Q348 551 348 618Q348 663 374 690T440 718Q515 718 515 650Q515 606 489 579T419 551ZM231 551Q161 551 161 618Q161 663 187 690T252 718Q327 718 327 650Q327 606 301 579T231 551ZM276
238Q295 238 313 239L307 363H287L240 238H276Z" />
<glyph unicode="&#xe5;" glyph-name="aring" horiz-adv-x="574" d="M316 99L318 131L261 132Q261 132 200 129Q189 88 189 85Q189 76 205 76H224L231 67L216 -3Q138 -1 89 -1H-21L-7 72Q21 80 35 111L203 500L447 513L459 502Q502 192 509 135T546 73L552 64L536
-2Q465 -1 418 -1L257 -4L251 3L264 75Q298 79 307 83T316 99ZM448 613T414 576T331 538T260 562T237 632T271 713T355 748T426 724T448 657ZM276 238Q295 238 313 239L307 363H287L240 238H276ZM340 608Q354 608 366 616T378 646Q378 676 344 676Q307 676 307
639Q307 608 340 608Z" />
<glyph unicode="&#xe6;" glyph-name="ae" horiz-adv-x="788" d="M192 83Q192 76 236 76L233 67L219 -3Q215 -1 52 -1H-14L-7 73Q28 82 43 111L198 406Q197 430 180 430L160 428L150 440L166 506Q623 500 744 513L754 500Q730 414 716 341L591 333Q597 357 597
372T583 394T538 401T506 384L513 295L566 305L651 327L665 312L644 214L563 203L516 194L517 150Q518 98 551 98Q590 98 605 113T635 179L751 186L761 173Q736 96 717 8L702 -5Q519 0 402 0L260 -4L254 3L268 74Q301 78 311 83Q325 90 325 127L328 163L270 152L207
132Q198 98 196 94Q192 86 192 83ZM265 254L294 257L332 264L335 363H315L265 254Z" />
<glyph unicode="&#xe7;" glyph-name="ccedilla" horiz-adv-x="497" d="M181 -126Q181 -174 221 -174Q252 -174 252 -151T175 -87L204 -7Q112 1 64 55T16 206Q16 514 318 514Q385 514 507 493L513 475Q487 402 469 303L327 295Q336 341 336 355Q336 395 288 395Q250
395 236 357T221 238T230 136T266 114T304 130T326 198L466 207Q446 112 438 34L425 21Q357 -2 268 -7L259 -37Q296 -56 325 -82T355 -138Q355 -181 308 -212T194 -243Q164 -243 138 -229T112 -193T173 -118H181Q181 -122 181 -126Z" />
<glyph unicode="&#xe8;" glyph-name="egrave" horiz-adv-x="502" d="M93 407Q93 429 76 429L56 428L46 440L62 507Q186 504 313 504T516 514L526 500Q500 414 488 340L361 333Q368 356 368 371T354 394T315 401T284 397T277 382L262 305H326L413 309L422 296L399
199Q341 201 323 201T245 197Q236 152 236 131T242 105T279 99T327 114T358 179L475 187L485 174Q460 97 442 8L426 -5Q299 0 213 0Q87 0 -17 -8L0 70Q30 75 42 89T59 139Q93 397 93 407ZM164 602L157 618L193 726L209 731Q335 677 458 631L437 560L418 547Q325
571 164 602Z" />
<glyph unicode="&#xe9;" glyph-name="eacute" horiz-adv-x="502" d="M93 407Q93 429 76 429L56 428L46 440L62 507Q186 504 313 504T516 514L526 500Q500 414 488 340L361 333Q368 356 368 371T354 394T315 401T284 397T277 382L262 305H326L413 309L422 296L399
199Q341 201 323 201T245 197Q236 152 236 131T242 105T279 99T327 114T358 179L475 187L485 174Q460 97 442 8L426 -5Q299 0 213 0Q87 0 -17 -8L0 70Q30 75 42 89T59 139Q93 397 93 407ZM450 618L443 602Q313 578 189 547L170 560L149 631Q252 669 398 731L414
726L450 618Z" />
<glyph unicode="&#xea;" glyph-name="ecircumflex" horiz-adv-x="502" d="M93 407Q93 429 76 429L56 428L46 440L62 507Q186 504 313 504T516 514L526 500Q500 414 488 340L361 333Q368 356 368 371T354 394T315 401T284 397T277 382L262 305H326L413 309L422
296L399 199Q341 201 323 201T245 197Q236 152 236 131T242 105T279 99T327 114T358 179L475 187L485 174Q460 97 442 8L426 -5Q299 0 213 0Q87 0 -17 -8L0 70Q30 75 42 89T59 139Q93 397 93 407ZM352 764Q352 767 415 710T508 626L465 564L441 557Q397 577 319
608Q269 590 185 557L163 564L135 626Q215 680 325 764H352Z" />
<glyph unicode="&#xeb;" glyph-name="edieresis" horiz-adv-x="502" d="M93 407Q93 429 76 429L56 428L46 440L62 507Q186 504 313 504T516 514L526 500Q500 414 488 340L361 333Q368 356 368 371T354 394T315 401T284 397T277 382L262 305H326L413 309L422 296L399
199Q341 201 323 201T245 197Q236 152 236 131T242 105T279 99T327 114T358 179L475 187L485 174Q460 97 442 8L426 -5Q299 0 213 0Q87 0 -17 -8L0 70Q30 75 42 89T59 139Q93 397 93 407ZM403 551Q332 551 332 618Q332 663 358 690T424 718Q499 718 499 650Q499
606 473 579T403 551ZM215 551Q145 551 145 618Q145 663 171 690T236 718Q311 718 311 650Q311 606 285 579T215 551Z" />
<glyph unicode="&#xec;" glyph-name="igrave" horiz-adv-x="313" d="M267 339T251 232T234 106T238 80T254 74L278 76L283 67L267 -3Q162 0 128 0L-13 -3L1 69Q34 76 45 88T59 132Q93 399 93 408T89 423T68 429H50Q47 433 43 441L57 504H193L341 507L326 431Q299
427 291 420T277 391Q267 339 251 232ZM54 602L47 618L83 726L99 731Q225 677 348 631L327 560L308 547Q215 571 54 602Z" />
<glyph unicode="&#xed;" glyph-name="iacute" horiz-adv-x="313" d="M267 339T251 232T234 106T238 80T254 74L278 76L283 67L267 -3Q162 0 128 0L-13 -3L1 69Q34 76 45 88T59 132Q93 399 93 408T89 423T68 429H50Q47 433 43 441L57 504H193L341 507L326 431Q299
427 291 420T277 391Q267 339 251 232ZM349 618L342 602Q212 578 88 547L69 560L48 631Q151 669 297 731L313 726L349 618Z" />
<glyph unicode="&#xee;" glyph-name="icircumflex" horiz-adv-x="313" d="M267 339T251 232T234 106T238 80T254 74L278 76L283 67L267 -3Q162 0 128 0L-13 -3L1 69Q34 76 45 88T59 132Q93 399 93 408T89 423T68 429H50Q47 433 43 441L57 504H193L341 507L326
431Q299 427 291 420T277 391Q267 339 251 232ZM235 764Q235 767 298 710T391 626L348 564L324 557Q280 577 202 608Q152 590 68 557L46 564L18 626Q98 680 208 764H235Z" />
<glyph unicode="&#xef;" glyph-name="idieresis" horiz-adv-x="313" d="M267 339T251 232T234 106T238 80T254 74L278 76L283 67L267 -3Q162 0 128 0L-13 -3L1 69Q34 76 45 88T59 132Q93 399 93 408T89 423T68 429H50Q47 433 43 441L57 504H193L341 507L326 431Q299
427 291 420T277 391Q267 339 251 232ZM290 551Q219 551 219 618Q219 663 245 690T311 718Q386 718 386 650Q386 606 360 579T290 551ZM102 551Q32 551 32 618Q32 663 58 690T124 718Q198 718 198 650Q198 606 172 579T102 551Z" />
<glyph unicode="&#xf0;" glyph-name="eth" horiz-adv-x="578" d="M112 403Q112 428 97 428L72 426L64 438L80 507Q176 504 209 504L338 509Q574 509 574 313Q574 165 487 78T254 -9Q178 0 126 0L5 -6L22 73Q51 78 63 91T80 137L88 202H19L12 208L32 285H98Q112
392 112 403ZM309 399Q296 399 292 378Q291 375 290 369T288 357T286 346T284 332T281 318T279 302T276 286L324 288L330 280L315 202H264Q252 121 252 118Q252 98 264 98Q368 98 368 309Q368 362 356 380T309 399Z" />
<glyph unicode="&#xf1;" glyph-name="ntilde" horiz-adv-x="613" d="M400 430H376L372 439L384 507Q480 504 563 504T646 506L633 430Q608 426 597 416T582 381L525 4L348 -5L237 217H223Q212 109 212 99T217 81T241 73L266 76L273 69L256 -3Q159 0 125 0L-10
-6L8 70Q32 73 44 84T60 119Q102 385 102 396T94 415T49 427L39 439L52 508Q114 504 180 504L293 507Q339 397 398 285H411L422 396Q424 416 420 423T400 430ZM294 720T350 703T420 686Q442 686 481 730L494 744H510L562 690L560 674L467 559L450 555Q432 555 376
572T307 589T276 575T232 531H216L164 585L166 601L259 716L276 720Q294 720 350 703Z" />
<glyph unicode="&#xf2;" glyph-name="ograve" horiz-adv-x="536" d="M261 99Q297 99 311 145T325 273T316 376T283 396Q249 396 235 350T221 222T230 119T261 99ZM240 -9Q133 -9 75 45T16 204Q16 514 307 514Q531 514 531 307Q531 154 457 73T240 -9ZM174 602L167
618L203 726L219 731Q345 677 468 631L447 560L428 547Q335 571 174 602Z" />
<glyph unicode="&#xf3;" glyph-name="oacute" horiz-adv-x="536" d="M261 99Q297 99 311 145T325 273T316 376T283 396Q249 396 235 350T221 222T230 119T261 99ZM240 -9Q133 -9 75 45T16 204Q16 514 307 514Q531 514 531 307Q531 154 457 73T240 -9ZM457 618L450
602Q320 578 196 547L177 560L156 631Q259 669 405 731L421 726L457 618Z" />
<glyph unicode="&#xf4;" glyph-name="ocircumflex" horiz-adv-x="536" d="M261 99Q297 99 311 145T325 273T316 376T283 396Q249 396 235 350T221 222T230 119T261 99ZM240 -9Q133 -9 75 45T16 204Q16 514 307 514Q531 514 531 307Q531 154 457 73T240 -9ZM348
764Q348 767 411 710T504 626L461 564L437 557Q393 577 315 608Q265 590 181 557L159 564L131 626Q211 680 321 764H348Z" />
<glyph unicode="&#xf5;" glyph-name="otilde" horiz-adv-x="536" d="M261 99Q297 99 311 145T325 273T316 376T283 396Q249 396 235 350T221 222T230 119T261 99ZM240 -9Q133 -9 75 45T16 204Q16 514 307 514Q531 514 531 307Q531 154 457 73T240 -9ZM249 720T305
703T374 686Q397 686 436 730L449 744H465L517 690L515 674L422 559L405 555Q387 555 331 572T262 589T231 575T187 531H171L119 585L121 601L214 716L231 720Q249 720 305 703Z" />
<glyph unicode="&#xf6;" glyph-name="odieresis" horiz-adv-x="536" d="M261 99Q297 99 311 145T325 273T316 376T283 396Q249 396 235 350T221 222T230 119T261 99ZM240 -9Q133 -9 75 45T16 204Q16 514 307 514Q531 514 531 307Q531 154 457 73T240 -9ZM399 551Q328
551 328 618Q328 663 354 690T420 718Q495 718 495 650Q495 606 469 579T399 551ZM211 551Q141 551 141 618Q141 663 167 690T232 718Q307 718 307 650Q307 606 281 579T211 551Z" />
<glyph unicode="&#xf7;" glyph-name="divide" horiz-adv-x="491" d="M480 329L485 314L455 178L16 176L9 189L43 324Q178 323 264 323L480 329ZM304 38T278 11T212 -17Q137 -17 137 52Q137 99 163 126T229 154Q304 154 304 85Q304 38 278 11ZM349 400T322 372T256
344Q181 344 181 413Q181 460 207 487T274 515Q349 515 349 446Q349 400 322 372Z" />
<glyph unicode="&#xf8;" glyph-name="oslash" horiz-adv-x="536" d="M16 204Q16 514 307 514Q356 514 392 504L462 599L558 544L559 533L492 442Q531 392 531 307Q531 154 457 73T240 -9Q202 -9 165 -1L93 -97L-1 -40L-4 -32L63 56Q16 109 16 204ZM261 99Q297
99 311 145T325 273T316 376T283 396Q249 396 235 350T221 222T230 119T261 99Z" />
<glyph unicode="&#xf9;" glyph-name="ugrave" horiz-adv-x="511" d="M340 409Q340 429 324 429L309 428L306 431L325 507Q393 504 422 504L546 506L530 429Q506 421 499 415T490 397L464 186Q450 86 394 39T235 -9T86 23T37 122Q37 129 53 264T70 409T68 423T53
429L30 428L29 431L46 507Q129 504 198 504L311 506L293 428Q255 424 252 391Q218 153 218 148Q218 99 259 99Q283 99 294 111T310 156Q340 405 340 409ZM166 602L159 618L195 726L211 731Q337 677 460 631L439 560L420 547Q327 571 166 602Z" />
<glyph unicode="&#xfa;" glyph-name="uacute" horiz-adv-x="511" d="M340 409Q340 429 324 429L309 428L306 431L325 507Q393 504 422 504L546 506L530 429Q506 421 499 415T490 397L464 186Q450 86 394 39T235 -9T86 23T37 122Q37 129 53 264T70 409T68 423T53
429L30 428L29 431L46 507Q129 504 198 504L311 506L293 428Q255 424 252 391Q218 153 218 148Q218 99 259 99Q283 99 294 111T310 156Q340 405 340 409ZM448 618L441 602Q311 578 187 547L168 560L147 631Q250 669 396 731L412 726L448 618Z" />
<glyph unicode="&#xfb;" glyph-name="ucircumflex" horiz-adv-x="511" d="M340 409Q340 429 324 429L309 428L306 431L325 507Q393 504 422 504L546 506L530 429Q506 421 499 415T490 397L464 186Q450 86 394 39T235 -9T86 23T37 122Q37 129 53 264T70 409T68
423T53 429L30 428L29 431L46 507Q129 504 198 504L311 506L293 428Q255 424 252 391Q218 153 218 148Q218 99 259 99Q283 99 294 111T310 156Q340 405 340 409ZM354 764Q354 767 417 710T510 626L467 564L443 557Q399 577 321 608Q271 590 187 557L165 564L137
626Q217 680 327 764H354Z" />
<glyph unicode="&#xfc;" glyph-name="udieresis" horiz-adv-x="511" d="M340 409Q340 429 324 429L309 428L306 431L325 507Q393 504 422 504L546 506L530 429Q506 421 499 415T490 397L464 186Q450 86 394 39T235 -9T86 23T37 122Q37 129 53 264T70 409T68 423T53
429L30 428L29 431L46 507Q129 504 198 504L311 506L293 428Q255 424 252 391Q218 153 218 148Q218 99 259 99Q283 99 294 111T310 156Q340 405 340 409ZM405 551Q334 551 334 618Q334 663 360 690T426 718Q501 718 501 650Q501 606 475 579T405 551ZM217 551Q147
551 147 618Q147 663 173 690T238 718Q313 718 313 650Q313 606 287 579T217 551Z" />
<glyph unicode="&#xfd;" glyph-name="yacute" horiz-adv-x="568" d="M361 502L495 503L590 506L592 500L577 425Q515 387 479 328L389 186Q369 148 369 122T376 87T405 77L447 80L451 75L434 -5Q305 0 256 0L80 -7L96 71Q149 74 167 85T191 137Q192 142 192 156T177
204L107 361Q94 389 40 422L36 426L54 505Q156 503 181 503L332 508L338 499L322 429Q321 429 319 429Q292 429 292 410T315 312H328L359 386Q374 413 374 422T348 430L346 435L361 502ZM484 618L477 602Q347 578 223 547L204 560L183 631Q286 669 432 731L448
726L484 618Z" />
<glyph unicode="&#xfe;" glyph-name="thorn" horiz-adv-x="511" d="M332 408Q514 408 514 278Q514 200 452 154T291 107H234Q231 80 235 77T254 73L287 76L293 67L277 -3Q164 0 128 0L-13 -3L2 68Q34 75 45 87T59 132Q93 399 93 408T89 423T68 430L50 429L43 441L57
504H193L340 507L325 431Q295 425 288 422T278 408H332ZM330 267Q330 310 276 310Q260 310 259 291L247 205Q284 198 292 198Q330 211 330 267Z" />
<glyph unicode="&#xff;" glyph-name="ydieresis" horiz-adv-x="568" d="M361 502L495 503L590 506L592 500L577 425Q515 387 479 328L389 186Q369 148 369 122T376 87T405 77L447 80L451 75L434 -5Q305 0 256 0L80 -7L96 71Q149 74 167 85T191 137Q192 142 192
156T177 204L107 361Q94 389 40 422L36 426L54 505Q156 503 181 503L332 508L338 499L322 429Q321 429 319 429Q292 429 292 410T315 312H328L359 386Q374 413 374 422T348 430L346 435L361 502ZM432 551Q361 551 361 618Q361 663 387 690T453 718Q528 718 528
650Q528 606 502 579T432 551ZM244 551Q174 551 174 618Q174 663 200 690T266 718Q340 718 340 650Q340 606 314 579T244 551Z" />
<glyph unicode="&#x2013;" glyph-name="endash" horiz-adv-x="434" d="M429 199L-6 198L-14 217L9 322H245Q382 322 448 324L455 305L429 199Z" />
<glyph unicode="&#x2014;" glyph-name="emdash" horiz-adv-x="801" d="M795 199L-6 198L-14 217L9 322H401Q793 322 814 324L822 305L795 199Z" />
<glyph unicode="&#x2018;" glyph-name="quoteleft" horiz-adv-x="260" d="M246 392Q189 348 148 348T83 375T59 452T104 558T226 659L284 613V588Q255 567 238 538T220 474T249 406L246 392Z" />
<glyph unicode="&#x2019;" glyph-name="quoteright" horiz-adv-x="260" d="M79 615Q136 659 177 659T242 632T266 555T221 449T99 348L41 394V419Q70 439 87 468T105 533T76 601L79 615Z" />
<glyph unicode="&#x201a;" glyph-name="quotesinglbase" horiz-adv-x="231" d="M8 145Q65 189 106 189T171 162T195 85T150 -21T28 -122L-30 -76V-51Q-1 -30 16 -1T34 63T5 131L8 145Z" />
<glyph unicode="&#x201c;" glyph-name="quotedblleft" horiz-adv-x="471" d="M515 392Q458 348 417 348T352 375T328 452T373 558T495 659L553 613V588Q524 567 507 538T489 474T518 406L515 392ZM303 392Q246 348 205 348T140 375T116 452T161 558T283 659L341
613V588Q312 567 295 538T277 474T306 406L303 392Z" />
<glyph unicode="&#x201d;" glyph-name="quotedblright" horiz-adv-x="471" d="M353 615Q410 659 451 659T516 632T540 555T495 449T373 348L315 394V419Q344 439 361 468T379 533T350 601L353 615ZM141 615Q198 659 239 659T304 632T328 555T283 449T161 348L103
394V419Q132 439 149 468T167 533T138 601L141 615Z" />
<glyph unicode="&#x201e;" glyph-name="quotedblbase" horiz-adv-x="436" d="M2 145Q59 189 100 189T165 162T189 85T144 -21T22 -122L-36 -76V-51Q-7 -30 10 -1T28 63T-1 131L2 145ZM211 145Q268 189 309 189T374 162T398 85T353 -21T231 -122L173 -76V-51Q202
-30 219 -1T237 63T208 131L211 145Z" />
<glyph unicode="&#x2022;" glyph-name="bullet" horiz-adv-x="330" d="M294 196T253 153T152 109Q36 109 36 216Q36 288 77 331T188 374Q239 374 266 346T294 267Q294 196 253 153Z" />
<glyph unicode="&#x2039;" glyph-name="guilsinglleft" horiz-adv-x="262" d="M182 422L240 387L245 364Q227 339 163 232Q187 159 212 101L202 78L136 42Q75 132 7 219L10 246Q106 339 182 422Z" />
<glyph unicode="&#x203a;" glyph-name="guilsinglright" horiz-adv-x="262" d="M79 42L21 77L17 100Q52 151 98 232Q74 305 49 363L59 386L125 422Q173 351 254 245L251 218Q156 125 79 42Z" />
</font>
</defs>
</svg>
