<?xml version="1.0" standalone="no"?>
<!DOCTYPE svg PUBLIC "-//W3C//DTD SVG 1.1//EN" "http://www.w3.org/Graphics/SVG/1.1/DTD/svg11.dtd">
<svg xmlns="http://www.w3.org/2000/svg">
<defs >
<font id="AveriaSerifLibre" horiz-adv-x="851" ><font-face
    font-family="Averia Serif Libre Light"
    units-per-em="2048"
    panose-1="2 0 6 3 0 0 0 0 0 4"
    ascent="1868"
    descent="-486"
    alphabetic="0" />
<glyph unicode=" " horiz-adv-x="519" />
<glyph unicode="!" horiz-adv-x="564" d="M560 1363V1342Q560 1295 510 1111T426 774T356 504T278 387Q243 387 243 432Q243 512 271 679T325 1047T363 1298T400 1379T481 1410H503Q560 1410 560 1363ZM346 106Q346 106 344 87Q344 50 304 16T234 -18H207Q174
-18 143 13T111 81V104Q114 113 114 128T146 182T217 221L239 224H243Q252 221 269 221T316 191T347 121V109L346 106Z" />
<glyph unicode="&quot;" horiz-adv-x="762" d="M281 1236L270 1329L268 1340V1372Q268 1396 299 1418T378 1440H391Q447 1440 447 1380V1362L445 1344L443 1318Q443 1235 344 1017Q307 935 263 935H251Q225 935 225 954V965Q226 986 236 1016Q281 1141 281 1232Q281
1234 281 1236ZM770 1387V1357Q764 1321 764 1300Q764 1251 672 1030Q633 936 592 936H567Q547 936 547 953V964Q547 967 575 1071T604 1218T599 1288T594 1322L591 1351Q591 1391 609 1407Q646 1440 695 1440H714Q770 1440 770 1387Z" />
<glyph unicode="#" horiz-adv-x="1219" d="M771 815H724L718 814H671Q539 814 526 801L490 694Q438 538 438 523Q438 513 459 513H553L559 514L618 513H671Q706 513 716 534Q796 694 796 796V806Q796 815 771 815ZM982 515Q1062 515 1062 469Q1062 417 956 411T806
357T738 244Q737 240 714 164T683 76Q657 36 615 36Q594 36 594 82T625 235T657 378Q657 409 482 409Q421 409 400 375Q387 355 355 243T312 104Q284 38 231 38Q202 38 202 65T228 188T254 290Q254 350 229 375Q220 384 156 398T92 437Q92 477 123 493T248 510Q298
510 327 549Q392 637 392 742Q392 793 365 802Q353 806 282 810T205 817Q185 826 185 857Q185 902 289 912T433 959T517 1143T599 1290Q648 1290 648 1250Q648 1217 612 1095T575 952Q575 917 779 917Q818 917 835 938Q838 942 880 1075L891 1110Q906 1157 913
1180L924 1214Q950 1279 997 1279Q1027 1279 1027 1232Q1027 1215 1007 1140T987 1021T1012 950Q1024 937 1089 925T1154 874Q1154 816 1051 816T922 795T866 673T835 551T847 523T982 515Z" />
<glyph unicode="$" horiz-adv-x="1051" d="M644 1239V1248Q644 1254 639 1254H616Q604 1252 599 1252Q518 1252 458 1183T397 1029V1012Q397 951 448 886T537 820H546Q553 820 558 836Q644 1094 644 1239ZM483 75Q483 64 497 64H510Q598 64 680 137T762 296L765
330V350Q765 409 711 486T600 563H595Q583 563 576 536Q485 202 485 96L483 86V75ZM997 1231T997 1173T964 1082Q949 1067 935 1067T853 1128T768 1190Q724 1190 691 1035T657 823T685 735Q690 730 725 703T777 662Q842 609 880 544T919 376Q919 238 817 126Q742
44 584 -8Q507 -34 485 -53T444 -121Q420 -188 382 -188Q353 -188 353 -120T298 -12Q264 12 189 34T96 81T77 186T115 310Q131 328 148 328Q156 328 201 249T266 149Q311 102 354 102Q389 102 407 159Q497 450 497 580Q497 618 410 688T288 821T252 960Q252 1103
351 1212Q397 1262 456 1288T573 1334T645 1363T683 1417T733 1462Q755 1462 767 1409T804 1338T892 1297T968 1261Q997 1231 997 1173Z" />
<glyph unicode="%" horiz-adv-x="1521" d="M514 1250H501Q431 1250 370 1163T308 973V939Q311 918 311 905Q311 856 345 812T428 767H441L447 768Q518 768 579 853T641 1058L640 1065V1072Q640 1154 607 1202T514 1250ZM1156 581H1137Q1066 581 1006 496T946 324L945
318L944 311L943 284V277Q943 198 977 149T1056 100L1069 98H1076L1082 99Q1152 99 1201 166Q1273 265 1273 348L1275 362L1276 389V403Q1276 479 1244 530T1156 581ZM501 1324H540Q632 1324 700 1256T769 1069L768 1059Q768 918 674 810Q624 753 561 723T450 693H410Q320
693 251 762T182 930V969Q182 1107 283 1215T501 1324ZM1322 1325Q1357 1325 1357 1307T1317 1236Q949 746 409 135Q315 29 271 29T227 47T267 117Q793 787 1188 1233Q1269 1325 1322 1325ZM817 269V298Q817 430 923 552Q961 596 1025 626T1143 656H1163L1173 655Q1272
655 1338 584T1404 412V383Q1404 250 1311 143Q1258 82 1193 53T1078 24H1048Q955 24 886 93T817 269Z" />
<glyph unicode="&amp;" horiz-adv-x="1524" d="M850 1310H824Q755 1310 697 1245T638 1093V1056Q638 970 674 918T719 866H725Q796 866 904 988Q971 1063 971 1158V1171Q971 1234 937 1272T850 1310ZM555 95H601Q685 95 780 146T876 237V243Q876 257 807 354T669
565T567 680Q506 680 397 541Q335 462 335 359V331Q335 235 399 165T555 95ZM1166 260Q1166 94 1313 94Q1323 94 1323 83Q1235 34 1101 34Q1071 34 1002 62T919 90T853 70L823 58Q767 34 762 32Q676 2 603 2H571L539 4H506Q320 4 223 82Q126 162 126 290Q126 507
338 664Q471 763 471 814Q471 828 461 882T451 1011Q451 1181 567 1294Q683 1408 851 1408Q960 1408 1022 1345T1084 1179T980 960T875 780Q875 670 931 560Q965 493 1025 493Q1052 493 1114 566T1177 691L1165 769Q1165 804 1248 804Q1253 804 1323 814T1439 824Q1454
824 1454 798Q1454 793 1389 708L1347 638Q1166 366 1166 260Z" />
<glyph unicode="&apos;" horiz-adv-x="442" d="M448 1399V1357Q446 1345 446 1338Q446 1249 362 1064Q307 944 261 944H249Q224 944 224 959V970Q224 993 234 1021T261 1114T277 1184L278 1191L279 1197L281 1221V1240L274 1312Q270 1332 270 1340L268 1352L269
1370Q269 1402 289 1418Q329 1449 376 1449H395Q448 1449 448 1399Z" />
<glyph unicode="(" horiz-adv-x="669" d="M744 1472Q744 1438 677 1368Q498 1182 410 941Q299 638 299 344Q299 155 337 24T396 -149T458 -268T500 -353Q500 -388 462 -388H445Q435 -388 399 -349Q301 -244 226 -57T151 348V391L152 413Q152 567 196 737Q288 1087
516 1339Q661 1499 710 1499Q744 1499 744 1472Z" />
<glyph unicode=")" horiz-adv-x="673" d="M11 -390Q-31 -390 -31 -363T58 -235T207 -33T319 207Q418 471 418 769T301 1301Q298 1308 258 1377T217 1462Q217 1499 266 1499Q281 1499 314 1466Q405 1375 485 1187T565 770V705Q565 400 397 62Q337 -59 230 -189Q66
-390 11 -390Z" />
<glyph unicode="*" horiz-adv-x="900" d="M619 1353Q619 1331 598 1236Q582 1163 582 1144Q582 1137 584 1137Q592 1137 674 1188T789 1239Q853 1239 853 1187Q853 1153 771 1098Q746 1082 711 1065T675 1042T721 992T768 898T737 847Q732 847 710 853L687 860Q657
868 632 877T596 887Q580 887 564 826T490 765Q441 765 441 832T424 899Q415 899 363 877T274 855Q246 855 246 900T305 987T364 1059Q364 1066 332 1082Q223 1138 223 1195T272 1253Q303 1253 387 1197T476 1141Q489 1141 489 1217L487 1261Q486 1283 486 1332T506
1405T556 1429Q619 1429 619 1353Z" />
<glyph unicode="+" horiz-adv-x="1094" d="M509 454T509 483T487 516H314Q129 516 129 550V567Q129 616 170 625Q183 628 344 628T513 636T530 799T544 979Q553 1021 599 1021H616Q656 1021 656 950Q656 948 646 832T636 654Q636 629 826 629T1016 595Q1016 539
993 529T805 519T631 510T612 336T601 167Q593 122 548 122H530Q489 122 489 174L497 316Q501 382 505 418Z" />
<glyph unicode="," horiz-adv-x="499" d="M54 -304H42Q18 -304 18 -270Q18 -267 113 -163Q173 -97 173 -34Q173 -2 137 38T101 117T137 192T226 229H233Q342 229 342 108V85Q340 69 340 62Q340 -27 236 -165T54 -304Z" />
<glyph unicode="-" horiz-adv-x="778" d="M646 586Q682 586 682 567V548Q682 464 631 464L619 462L561 458H541L528 457H509L476 455H462L442 454H429L422 453H408L395 452H374L320 449H301L287 448H248L222 447H159Q131 447 131 473V479L132 486L134 512Q134
559 163 568Q203 580 431 580L596 586H646Z" />
<glyph unicode="." horiz-adv-x="477" d="M204 -19H189Q145 -19 115 17T85 85V108Q88 117 88 134T125 188T193 225L215 228H223Q262 228 294 196T326 124V105L322 82Q322 62 288 22T204 -19Z" />
<glyph unicode="/" horiz-adv-x="792" d="M821 1466H838Q879 1466 879 1448Q879 1404 125 -104Q79 -195 31 -195T-18 -181Q-18 -160 26 -69Q642 1202 740 1386Q783 1466 821 1466Z" />
<glyph unicode="0" horiz-adv-x="1130" d="M913 706V759Q913 920 842 1026Q785 1111 678 1111Q530 1111 413 938Q355 854 317 723T278 485V418Q278 269 341 175T500 80H513Q669 80 784 262Q838 347 875 473T913 706ZM1077 746V711L1076 694Q1076 564 1026 426Q929
160 728 46Q617 -17 496 -17L478 -16H460Q392 -16 322 24Q114 142 113 461L114 478Q114 606 162 750Q258 1037 477 1154Q576 1207 676 1207H712Q788 1207 856 1173Q992 1104 1042 953Q1077 848 1077 746Z" />
<glyph unicode="1" horiz-adv-x="839" d="M278 0Q149 0 149 41Q149 56 229 103T328 208T396 588T444 952T426 1012T343 1028T278 1050T331 1097Q553 1200 650 1200Q695 1200 695 1157Q695 1126 670 1067T631 954T567 579T517 219Q517 149 571 114Q649 64 649 50Q649
4 510 4L472 2L433 1H355L317 0H278Z" />
<glyph unicode="2" horiz-adv-x="1034" d="M614 -1L376 9Q319 9 280 7L251 5Q207 2 194 2Q90 2 90 51T183 193Q223 233 396 381T634 612Q753 763 753 863T700 1021Q646 1078 562 1078Q418 1078 343 935Q294 841 263 841T231 893T263 1004T349 1105Q463 1194 611
1194T848 1121T936 926V898Q936 773 835 648T529 368T325 165Q325 145 484 145T696 159T809 213T879 253T890 210T862 102T810 18T674 -2L644 -1H614Z" />
<glyph unicode="3" horiz-adv-x="1002" d="M656 612Q656 604 715 566T801 494Q867 412 867 310Q866 208 822 126Q737 -31 564 -103Q463 -144 365 -144H336Q224 -144 152 -103T80 -8T134 47Q172 47 245 9T371 -30Q502 -30 592 58T683 261Q683 469 483 521Q393 544
393 566T486 640T624 741Q718 844 718 922Q718 1068 559 1069Q471 1069 407 1028Q294 956 277 956T259 990Q259 1079 353 1138T588 1198T814 1148T901 1022V996Q901 996 901 994Q901 837 730 694Q656 632 656 612Z" />
<glyph unicode="4" horiz-adv-x="1075" d="M545 362Q613 362 625 401Q640 451 647 511L662 625L668 661Q706 889 706 933V941L704 945H700Q697 945 587 826L564 798Q508 736 497 722T470 691Q204 403 204 371Q204 363 401 363L419 362H456L465 363L492 362H545ZM791
35Q791 -32 724 -89T579 -146H561Q497 -146 497 -95Q497 -72 538 4T580 145T520 234Q500 242 320 242T123 246Q48 264 48 307Q48 360 649 1021Q781 1166 854 1166Q896 1166 896 1086Q896 1069 867 880T837 576T849 439T915 396T969 340V327Q969 315 878 216T787
78Q791 52 791 35Z" />
<glyph unicode="5" horiz-adv-x="1013" d="M233 639T233 681T291 909T370 1127Q406 1179 566 1179L777 1172Q816 1172 884 1191T954 1210Q985 1210 985 1172Q985 1090 915 1056T701 1022L524 1031Q454 1031 411 947T368 778Q368 739 518 723T743 640T842 507T866
353T825 178Q741 -4 533 -82Q436 -118 336 -118T166 -89T96 -19V1Q96 49 155 49Q175 49 231 19T344 -12Q488 -12 588 88T689 330T609 541T397 612L289 607Q247 607 237 630Q233 639 233 681Z" />
<glyph unicode="6" horiz-adv-x="1076" d="M595 744H557Q450 744 366 654T282 429L281 419L280 410L279 370Q279 238 342 152T512 66T698 157Q803 278 803 422L805 442L806 482Q806 594 746 669T595 744ZM982 1279Q982 1274 836 1210Q562 1091 441 888Q408 832
408 807Q408 790 447 790T548 800T664 811Q666 811 668 811Q720 811 784 782Q977 696 977 450Q977 352 932 262Q843 84 664 14Q586 -16 502 -16H477Q325 -16 221 88Q175 134 143 216T110 388V437Q110 594 184 752Q337 1082 637 1225Q811 1308 936 1308Q982 1308
982 1279Z" />
<glyph unicode="7" horiz-adv-x="1016" d="M1012 1148Q1012 1059 409 -57Q368 -133 309 -133H286Q239 -133 239 -94T518 466Q527 482 593 582Q819 926 819 990Q819 1032 723 1032L675 1034L600 1035Q411 1035 363 1020T272 962T204 918T179 948Q179 1044 223 1144Q245
1193 281 1193H302L323 1191L369 1189Q484 1181 565 1181L590 1179L615 1178Q640 1177 665 1177L689 1176Q738 1174 739 1174H814L934 1177Q1012 1177 1012 1148Z" />
<glyph unicode="8" horiz-adv-x="1060" d="M414 1046V1023Q414 945 480 879Q576 783 637 783H650Q715 783 799 895Q859 975 859 1075V1090Q859 1171 806 1229T672 1288H648Q558 1288 486 1216T414 1046ZM477 65H505Q615 65 702 145T789 338V373Q789 449 735 513T611
614T525 651H517Q434 651 348 542T262 336L260 318V301L261 292Q261 202 324 134T477 65ZM776 721Q776 716 830 662Q952 540 953 397Q953 222 819 101T495 -21H450Q317 -21 215 58Q169 94 138 153T106 271V314Q106 488 305 628Q389 688 389 714Q389 716 322 811T255
990Q255 1153 374 1260T660 1368H682Q831 1368 920 1291T1009 1107T966 933T850 806T776 721Z" />
<glyph unicode="9" horiz-adv-x="1082" d="M549 446H569L578 447Q624 447 684 477Q851 561 851 789V792V832Q851 956 789 1040T633 1125H614Q564 1125 507 1095T412 1009Q324 881 324 737V717Q324 600 385 523T549 446ZM155 741Q156 833 196 918Q280 1094 446
1168Q541 1210 630 1210H655Q902 1210 994 973Q1025 893 1025 809V760Q1025 618 961 462T780 177T503 -31T219 -111H202Q152 -111 152 -83Q152 -80 301 -14T535 120T670 263T719 379Q719 398 689 398L470 383Q408 383 345 412T240 489Q155 586 155 741Z" />
<glyph unicode=":" horiz-adv-x="535" d="M338 654Q299 654 270 689T241 758V770Q241 812 277 855T357 898H383Q416 898 448 866T480 801V775L476 753Q476 728 441 693T375 657L357 654H338ZM353 127V120L352 116Q352 66 313 27T235 -12H212Q182 -12 149 16T115
76L112 95V110Q112 148 147 189T218 231L241 234H249Q293 234 323 198T353 127Z" />
<glyph unicode=";" horiz-adv-x="548" d="M485 789V771Q485 716 443 681T358 646H351Q317 646 282 675T247 752V766L248 770V777Q250 785 250 796T283 847T349 887L374 891H385Q426 891 455 856T485 789ZM250 231H265Q309 231 336 201T363 118V87Q361 73 361 64Q361
-17 256 -157T69 -298Q36 -298 36 -269V-264Q36 -248 72 -216Q189 -111 189 -27Q189 1 157 41T125 122T165 197T250 231Z" />
<glyph unicode="&lt;" horiz-adv-x="1112" d="M894 81Q876 81 347 408Q145 533 145 565Q145 608 185 632Q188 634 562 832T974 1050T1023 1071Q1051 1071 1051 1031T975 942Q949 925 644 764T339 580Q339 568 477 477T626 380L742 308Q859 235 883 216Q934 176
934 129T894 81Z" />
<glyph unicode="=" horiz-adv-x="1137" d="M416 808H465L475 807L641 806Q1067 806 1067 779V770Q1067 706 1020 698Q997 694 610 694H454L414 693H258Q184 693 184 722V731Q184 787 210 797T416 808ZM972 465Q1035 465 1035 437V428Q1035 375 1009 363T872 350H766L756
351H460L431 350H206Q152 350 152 378V397Q152 447 190 458Q214 465 374 465H482L491 464L540 465H580L589 464L933 465H972Z" />
<glyph unicode="&gt;" horiz-adv-x="1108" d="M1008 615T1008 578T970 516T665 354T274 148T137 80H123Q103 80 103 133Q103 170 184 220Q190 223 504 389T818 581Q818 596 661 699T424 850T289 939T235 1026T261 1072Q311 1072 927 668Q1008 615 1008 578Z" />
<glyph unicode="?" horiz-adv-x="889" d="M712 1132Q712 1272 569 1272Q498 1272 441 1218Q347 1128 318 1128Q273 1128 273 1189Q273 1220 300 1269T366 1344Q462 1407 580 1407H599Q722 1407 811 1337Q855 1303 881 1246T908 1137Q908 1028 851 943T686 767T532
620T487 487L493 423Q493 376 442 376Q414 376 389 411T363 517T420 671Q426 680 528 798T671 988T712 1132ZM484 122V103Q484 53 440 16T364 -21H345L322 -17Q300 -17 273 16T245 80V103Q245 137 279 178T345 219L372 223H379Q419 223 451 191T484 122Z" />
<glyph unicode="@" horiz-adv-x="1766" d="M748 224H764Q798 224 865 264Q1004 347 1073 585Q1106 697 1106 739L1108 755L1109 780V788Q1109 861 1010 861H992Q942 861 880 828Q747 757 680 567Q648 476 648 420L646 402V367Q646 305 674 265T748 224ZM989 257T982
257T866 196T704 134Q603 134 554 185L522 231Q494 286 494 345Q494 606 692 788Q788 876 894 909Q945 925 1092 925T1257 902T1275 816L1266 758L1220 573Q1185 426 1185 360T1215 267L1250 251Q1372 251 1464 389T1556 673Q1556 926 1411 1071Q1252 1233 986
1233Q858 1233 726 1177Q594 1122 488 1008Q274 777 274 445Q274 327 320 211Q414 -23 646 -108Q755 -148 869 -148T1044 -132T1177 -90T1282 -64T1314 -88Q1314 -132 1156 -187T851 -242Q523 -242 332 -66Q179 75 136 299Q123 367 123 421Q123 795 354 1042Q479
1176 658 1253T993 1330Q1294 1330 1474 1172Q1567 1091 1618 977T1670 743V681Q1670 594 1635 500T1536 326T1368 192T1192 138T1063 184L1031 213Q989 257 982 257Z" />
<glyph unicode="A" horiz-adv-x="1434" d="M621 596H789L797 597L864 599Q872 600 880 600Q955 600 955 637V645L954 653L951 691L948 714Q946 730 946 738L943 762Q940 786 940 794Q940 1021 887 1138Q879 1156 877 1156H874Q864 1156 839 1109T777 1005Q545
644 545 615V609Q545 596 621 596ZM284 180T284 151T305 86T327 49Q327 15 294 7Q250 -3 137 -3H15Q-53 -3 -53 35Q-53 64 16 94T123 174T283 418T458 694T607 939T834 1284Q904 1380 962 1380Q997 1380 1018 1351Q1074 1274 1088 1181Q1092 1156 1095 1070T1101
944L1125 700Q1171 224 1180 178T1244 95T1299 39Q1299 0 1079 0T858 25T886 73L905 87L924 99Q949 117 960 137T972 236Q972 455 935 487Q915 504 703 504T440 453Q410 423 347 302Z" />
<glyph unicode="B" horiz-adv-x="1262" d="M551 764H630Q818 764 906 833Q1025 927 1025 1062V1090Q1025 1190 951 1247T753 1304H734Q622 1304 602 1262T566 1129T547 1024L539 983L535 965L529 929L525 911L522 894L516 867Q513 848 509 832T505 806V782Q505
764 551 764ZM632 684H580Q491 684 471 638T435 488T397 272T374 146V127Q374 80 500 80H585Q607 82 617 82Q757 82 865 176Q909 215 938 279T967 410V431Q967 545 881 614T632 684ZM391 1248Q391 1283 351 1302Q279 1337 279 1345Q279 1376 334 1383T608 1390H764Q1080
1390 1174 1233Q1210 1173 1210 1078Q1210 910 1024 786Q942 731 941 729Q941 722 959 711L977 700Q1070 645 1114 581T1158 414Q1158 207 972 88Q895 38 792 16T522 -7H469L443 -6H313Q16 -6 16 23Q16 46 91 77T189 174Q202 212 254 477T314 782Q391 1146 391
1248Z" />
<glyph unicode="C" horiz-adv-x="1323" d="M932 1402Q996 1402 1098 1379T1254 1347T1320 1332Q1351 1316 1351 1231Q1351 1081 1310 1036L1294 1026Q1263 1026 1224 1112Q1135 1308 907 1308Q787 1308 659 1227Q575 1174 497 1070T375 829T332 570Q332 339 437
216T728 93Q886 93 1071 248Q1151 315 1162 315Q1197 315 1197 278T1148 157T1062 55T893 9T704 -18H670Q435 -18 284 140T132 535Q132 891 368 1153Q474 1270 622 1336T932 1402Z" />
<glyph unicode="D" horiz-adv-x="1475" d="M804 1305H769Q632 1305 608 1235Q607 1233 500 710T392 146T418 95T520 85H590Q867 85 1055 297Q1147 401 1194 542T1241 810V828Q1239 862 1239 880Q1238 966 1204 1050Q1139 1210 992 1269Q903 1305 804 1305ZM279
1324Q279 1394 771 1394T1395 1066Q1440 955 1440 838V812Q1440 643 1367 476T1160 194T867 38T477 -4H450L424 -3H322L218 -1L192 0L168 2H103Q49 2 49 25Q49 55 103 80T181 131T238 281T350 846Q383 1029 383 1228Q383 1268 343 1285Q279 1312 279 1324Z" />
<glyph unicode="E" horiz-adv-x="1264" d="M1261 1269V1229Q1261 1133 1221 1133Q1214 1133 1183 1183T1073 1264T807 1295Q701 1295 649 1222Q624 1186 585 1062T545 917Q545 852 567 827Q612 776 690 776T821 806Q917 862 937 862Q989 862 989 755T961 597T903
545T857 567Q801 640 795 643Q752 668 668 668Q528 668 485 583Q468 548 445 427T422 219T476 110Q514 95 667 95T933 140Q991 163 1059 221T1137 280T1147 251T1118 149T1052 37T914 -1L871 0L513 1Q94 1 80 4Q41 13 41 38Q41 56 94 76T156 104Q186 129 210 209L222
252Q229 278 250 382L285 555Q315 710 361 928T407 1233Q407 1265 358 1297T309 1359T650 1389L1008 1392L1097 1393L1140 1394Q1214 1394 1237 1363T1261 1269Z" />
<glyph unicode="F" horiz-adv-x="1182" d="M403 1146T403 1211T378 1297L356 1310L329 1321Q301 1336 301 1353Q301 1393 857 1393L1042 1394H1186Q1220 1394 1239 1378T1259 1301V1237Q1259 1112 1208 1112Q1199 1112 1169 1179T1065 1274T791 1302Q736 1302
691 1276T604 1162Q536 1021 536 867Q536 830 581 797T697 763T822 792Q839 801 876 831T944 861Q985 861 985 788Q985 545 892 545Q870 545 815 610Q781 650 700 650T532 613Q505 601 489 578T452 429T430 225T443 111T486 60T516 29Q516 0 279 0H207Q56 0 56
33Q56 45 141 100Q195 134 215 200Q226 235 314 690Z" />
<glyph unicode="G" horiz-adv-x="1421" d="M941 1404Q1003 1404 1107 1381T1269 1355T1342 1340Q1375 1316 1375 1232T1346 1102T1293 1057Q1249 1057 1216 1123Q1170 1216 1106 1250Q1017 1298 898 1298T670 1236Q467 1120 379 860Q332 721 332 597Q332 350 444
217T760 84Q885 84 962 169Q993 203 1019 270T1045 410T1020 519L1002 540L981 559Q956 585 956 596Q956 632 1152 632T1349 591Q1349 580 1313 548T1262 468T1216 265T1161 89T1039 43Q784 -18 729 -18H687Q439 -18 284 132Q214 200 169 305T124 531V572Q124 735
189 892T366 1164Q602 1404 941 1404Z" />
<glyph unicode="H" horiz-adv-x="1569" d="M1295 1204T1295 1232T1271 1285L1240 1306Q1195 1338 1195 1351Q1195 1390 1460 1390L1510 1391Q1643 1391 1643 1352Q1643 1335 1573 1305T1489 1238T1376 698T1277 154T1301 95L1338 77Q1403 51 1403 43Q1403 1 1311
1L1212 3L1115 2Q942 2 942 34Q942 50 1002 92T1076 162T1129 379T1168 594Q1168 659 1106 669L1059 670L809 669Q524 669 493 631Q473 607 433 408T392 168T428 101Q493 52 493 33Q493 0 269 0L171 -1L121 -2H72L36 9Q36 51 108 78T203 173T294 598T384 1062T409
1188L415 1233Q415 1275 382 1295L343 1311Q282 1335 282 1354Q282 1391 335 1391H383L434 1389H534Q743 1389 743 1354Q743 1336 680 1297T604 1228L592 1182Q587 1162 556 1016T525 842Q525 777 582 766L628 763L877 764Q1171 764 1194 793T1256 1013Z" />
<glyph unicode="I" horiz-adv-x="726" d="M426 1179T426 1229T376 1300Q292 1334 292 1352Q292 1387 532 1387L687 1389Q732 1391 733 1391Q795 1391 795 1357Q795 1343 701 1304Q647 1281 630 1230T513 693T413 155T478 79T543 22Q543 -1 265 -1L110 -4H87Q44
-4 44 16Q44 45 141 83Q195 104 214 172T330 710Z" />
<glyph unicode="J" horiz-adv-x="845" d="M329 1262T329 1291T421 1355T629 1390Q803 1390 803 1321Q803 1312 785 1274T767 1219L775 1110Q775 1070 751 1007T694 816T662 633L670 543Q670 499 640 450T582 290Q526 68 450 -44Q295 -273 98 -273Q97 -273 96 -273H73Q38
-273 7 -254T-25 -218Q-25 -182 93 -142T240 -61Q391 154 391 347Q391 356 462 575T534 869T474 1178Q452 1264 408 1264L384 1262Q329 1262 329 1291Z" />
<glyph unicode="K" horiz-adv-x="1423" d="M1318 34Q1318 -23 1067 -23Q1005 -23 977 12Q970 23 946 85Q896 217 718 499Q632 636 578 636T489 552Q414 369 414 188Q414 158 434 125L454 101Q475 72 475 59Q475 28 400 14T143 0Q54 0 54 34Q54 46 139 84Q190 107
206 170T312 691T403 1209T371 1302L347 1319Q314 1341 314 1352Q314 1392 483 1392H530L575 1390Q605 1389 670 1389T735 1364Q735 1345 680 1293T598 1166Q534 981 534 817Q534 785 557 785Q641 785 888 1017T1136 1299L1132 1317L1121 1344Q1121 1384 1288 1384T1455
1343Q1455 1341 1345 1272T1172 1145Q865 866 831 828T797 752Q797 639 1094 227Q1152 146 1206 110Q1318 35 1318 34Z" />
<glyph unicode="L" horiz-adv-x="1213" d="M516 92T677 92T914 135T1052 256T1147 335Q1157 335 1157 302Q1157 185 1080 57Q1045 -2 946 -2H766L736 -1H644L581 0H519Q46 0 46 21Q46 51 103 79T180 134T210 201T317 713T414 1236T370 1307Q287 1349 287 1366Q287
1393 351 1393L381 1392H653L683 1393Q786 1393 786 1369Q786 1337 709 1306T611 1207T497 674T404 183Q404 127 468 107Q516 92 677 92Z" />
<glyph unicode="M" horiz-adv-x="1839" d="M1392 0Q1270 0 1270 46L1336 137Q1370 194 1391 288Q1529 901 1529 1061Q1529 1087 1512 1087T1224 653T924 181Q868 109 809 109Q776 109 664 587T530 1065Q498 1065 456 832T375 443T336 132L343 99L361 45Q361 4
277 4Q145 4 95 23L67 42Q67 77 127 129T228 329Q391 932 391 1215Q391 1246 372 1286T352 1352Q352 1385 492 1385Q556 1385 601 1362T687 1243T782 913T857 594T886 469L901 413L920 382Q942 382 1216 821T1557 1324T1750 1388T1876 1354L1853 1332L1814 1306Q1758
1261 1736 1185T1618 541L1566 241L1561 186Q1561 144 1604 105L1667 47Q1667 0 1392 0Z" />
<glyph unicode="N" horiz-adv-x="1576" d="M296 1364Q296 1387 368 1387T524 1360T648 1291T925 792T1199 335L1214 362Q1222 383 1255 541L1275 639Q1285 695 1320 855T1355 1103T1345 1226T1317 1298T1299 1345Q1299 1389 1383 1389H1428Q1654 1389 1654 1361Q1654
1342 1587 1306T1485 1169Q1412 952 1280 65Q1272 8 1231 8Q1201 8 1158 45T1024 216Q1011 235 780 672T521 1109L506 1081Q496 1054 468 900T394 523T348 222T380 109L408 89Q447 57 447 43Q447 -4 387 -4H296Q53 -4 53 24T79 70Q165 129 174 140Q202 175 220
239T321 696L361 892Q408 1107 408 1217Q408 1249 352 1290T296 1364Z" />
<glyph unicode="O" horiz-adv-x="1480" d="M1260 822V857Q1260 952 1232 1042Q1150 1311 899 1312Q676 1312 503 1099Q422 1000 372 853T321 580V528Q321 334 418 203Q466 138 532 105T666 72H701Q917 72 1086 296Q1166 402 1213 544T1260 822ZM908 1406H930Q1040
1406 1143 1361Q1351 1270 1427 1031Q1455 943 1455 835V791Q1455 644 1390 491Q1259 182 991 51Q837 -24 697 -24H652Q425 -24 267 146Q201 216 164 325T127 547V569Q127 724 187 879T352 1149T601 1335T908 1406Z" />
<glyph unicode="P" horiz-adv-x="1264" d="M514 717V699Q514 675 593 675H656Q844 675 969 775Q1016 812 1052 881T1089 1033V1065Q1089 1187 1005 1249T793 1311H751Q648 1311 628 1262Q617 1235 566 978T514 717ZM57 39Q57 64 108 89T186 147Q245 220 328 704Q356
869 356 1002T371 1182T386 1231Q386 1263 328 1278T269 1325T348 1371Q532 1401 720 1401H775Q1137 1401 1241 1200Q1276 1133 1276 1038Q1276 831 1102 700Q1025 642 924 615T661 588L578 591Q511 591 481 540Q469 519 445 391T420 202T443 110T499 65T532 36Q532
-11 419 -11H392Q369 -11 261 -5L149 0Q57 0 57 39Z" />
<glyph unicode="Q" horiz-adv-x="1478" d="M1298 766V802Q1298 900 1267 993Q1203 1185 1053 1258Q972 1297 881 1297H863Q863 1297 859 1297Q754 1297 654 1242Q445 1128 353 872Q299 723 299 592V556Q300 464 330 370Q393 177 544 99Q620 60 698 60H734Q840
60 943 116Q1162 236 1256 520Q1298 646 1298 766ZM1410 -156T1410 -179T1372 -227Q1276 -289 1182 -289T1011 -255Q438 2 334 91T181 302T132 565T182 857T340 1128T591 1320T886 1391H915Q1147 1391 1298 1236Q1375 1157 1418 1044T1462 800V771Q1462 660 1424
538Q1340 268 1123 114Q966 2 966 -12T1022 -60Q1190 -163 1268 -163L1366 -156Q1410 -156 1410 -179Z" />
<glyph unicode="R" horiz-adv-x="1324" d="M757 1310H717Q613 1310 592 1264T552 1103T511 882T489 754Q489 724 558 724H597L606 725Q798 725 911 814T1025 1066L1024 1076Q1024 1177 952 1243T757 1310ZM21 38Q21 45 57 65L83 78Q129 99 136 105Q176 137 194
209Q242 395 311 789T381 1247Q381 1278 331 1305T281 1354Q281 1394 638 1394L707 1395Q965 1395 1082 1315T1200 1088Q1200 845 977 701Q879 638 879 599Q879 590 958 400T1073 158T1179 86T1249 46T1210 8T1066 -11T904 60T799 307T704 551T547 620Q489 620
464 563Q388 391 388 194Q388 143 430 105T472 38Q472 1 244 1L105 -1Q21 -1 21 38Z" />
<glyph unicode="S" horiz-adv-x="1078" d="M1068 1301V1271Q1068 1159 1030 1085Q1016 1057 996 1057Q966 1057 936 1131T850 1258Q796 1310 694 1310H692Q589 1310 527 1266Q433 1200 433 1095T526 903Q550 880 701 784T917 608T982 420Q982 219 843 102Q704
-14 500 -14H465Q331 -14 120 51Q70 66 70 131V162Q70 276 110 349Q124 375 139 375Q176 375 209 281T316 135T511 82T716 148T802 318T748 485T546 642T331 818T263 1004Q263 1187 388 1297T693 1407H727Q767 1407 860 1383T954 1359L982 1363L1009 1368Q1068
1368 1068 1301Z" />
<glyph unicode="T" horiz-adv-x="1306" d="M1419 1356V1331Q1419 1191 1399 1146T1363 1101Q1338 1101 1314 1164T1235 1256T1025 1285Q970 1285 943 1265T900 1195T798 692T712 188T731 118T797 79T844 35Q844 1 560 1L423 -1L388 -2Q325 -2 325 25T370 72Q461
113 477 129T511 204T619 719T709 1233T578 1290T387 1258T284 1150T205 1073Q181 1073 181 1138T226 1321Q246 1374 277 1386Q287 1390 845 1390L1256 1389L1382 1394Q1419 1394 1419 1356Z" />
<glyph unicode="U" horiz-adv-x="1500" d="M374 1210Q374 1257 333 1280Q255 1324 255 1348Q255 1384 608 1384Q703 1384 703 1354Q703 1343 646 1306T572 1212Q567 1195 533 996T465 645T431 377T514 182T731 101Q992 101 1113 330Q1163 425 1231 744T1299 1135T1272
1248Q1204 1354 1204 1355Q1204 1390 1400 1390T1596 1351Q1596 1320 1533 1285T1446 1189Q1439 1171 1377 876T1276 438T1182 218Q1018 -8 680 -8Q498 -8 376 90T254 352V393Q254 472 282 648T330 948T361 1132T374 1210Z" />
<glyph unicode="V" horiz-adv-x="1443" d="M1419 1389Q1580 1389 1580 1350Q1580 1326 1508 1286T1413 1217T1106 740T768 214Q623 8 561 8Q491 8 458 156Q450 190 411 659T355 1197T297 1293Q223 1341 223 1363T446 1385T670 1342Q670 1331 643 1308L606 1277Q576
1242 576 1175T610 718T653 300T673 270Q726 270 1143 997Q1242 1170 1242 1255Q1242 1264 1218 1295T1193 1333Q1193 1389 1419 1389Z" />
<glyph unicode="W" horiz-adv-x="2013" d="M1781 1201Q1781 1279 1836 1325T1965 1372T2061 1364Q2098 1351 2098 1308Q2098 1301 2060 1251Q1918 1063 1702 683T1427 214Q1332 74 1246 74Q1159 74 1132 232Q1120 302 1108 553T1091 835L1083 875Q1068 875 889
578T627 167T483 52T401 132L395 186Q393 214 381 576T359 1025T323 1189T296 1279V1308Q296 1330 325 1352T433 1375T569 1345T626 1268T592 1135T557 934Q557 708 571 526Q580 404 622 404Q673 404 713 448T896 738Q955 841 988 950T1021 1112L1020 1159L999
1240Q999 1294 1071 1330T1212 1367Q1336 1367 1336 1272L1325 1239Q1308 1185 1299 1139T1290 997Q1290 573 1323 431Q1333 387 1366 387Q1418 387 1728 973Q1781 1073 1781 1201Z" />
<glyph unicode="X" horiz-adv-x="1409" d="M299 2Q23 2 23 33Q23 57 108 97T289 243Q486 458 564 563T643 721T594 881Q484 1121 441 1185T360 1270L328 1282L296 1289Q265 1299 265 1312L275 1326Q282 1331 341 1337T493 1358T628 1373T670 1359Q670 1339 646
1313T621 1263Q621 1192 761 950Q799 884 825 884Q871 884 1020 1070Q1117 1191 1117 1268L1112 1291Q1105 1318 1105 1330Q1105 1389 1266 1389Q1478 1389 1478 1360V1344Q1478 1329 1405 1300T1289 1230Q1020 966 908 789Q881 747 881 718T919 601Q1073 247 1105
191T1185 107Q1292 48 1292 45L1282 31Q1233 0 967 0Q851 0 851 30Q851 47 875 76T899 144Q899 223 760 509Q734 563 720 563Q667 563 462 286Q379 174 379 119L392 39Q392 2 299 2Z" />
<glyph unicode="Y" horiz-adv-x="1323" d="M526 1337Q554 1337 554 1313Q554 1305 540 1287T525 1253T708 883Q752 799 765 799Q788 799 967 1021T1146 1271Q1146 1286 1141 1296L1130 1317Q1130 1346 1165 1346H1186L1231 1343Q1261 1341 1276 1341Q1414 1341
1414 1319Q1414 1307 1317 1274Q1262 1255 1200 1182Q1024 973 830 648Q798 595 761 435T723 167Q723 122 784 85T846 30Q846 0 596 0L462 -1L428 -3Q349 -3 349 30Q349 44 419 85T509 169Q580 316 580 559Q580 626 528 821T421 1126T329 1256L304 1268L279 1278Q234
1298 234 1309T257 1320L421 1327Q443 1327 464 1329L485 1331Q521 1337 526 1337Z" />
<glyph unicode="Z" horiz-adv-x="1272" d="M1204 1384Q1294 1384 1294 1332Q1294 1298 1067 1029T802 710T684 576T557 435Q345 168 345 137T389 99Q409 96 655 96T967 119T1071 200Q1158 330 1163 330Q1196 330 1196 305Q1196 160 1131 51Q1087 -23 971 -23H929Q916
-23 804 -19L762 -17L678 -12Q538 -7 461 -7T343 -8L261 -10Q151 -10 108 1T64 50T113 154Q398 537 509 653Q1005 1175 1005 1238Q1005 1273 788 1273T509 1248T406 1160Q339 1059 307 1059T274 1138T301 1277T352 1353Q391 1381 616 1381L910 1376Q953 1376 1039
1378L1123 1381L1164 1384H1204Z" />
<glyph unicode="[" horiz-adv-x="687" d="M683 1502Q752 1502 752 1471Q752 1435 719 1419Q704 1412 616 1407T499 1389T452 1307T354 561T276 -181T300 -262T405 -287T503 -305T521 -346T452 -379H322Q180 -379 150 -365T119 -303Q119 -186 169 193T224 614L229
666Q233 685 241 765T252 871L259 922Q306 1319 321 1386T367 1477T580 1501L657 1502H683Z" />
<glyph unicode="\" horiz-adv-x="824" d="M740 -231T693 -231T622 -169Q478 220 168 1233Q157 1269 132 1345T106 1431Q106 1475 153 1475T223 1414Q386 988 671 29Q686 -21 705 -80L740 -188Q740 -231 693 -231Z" />
<glyph unicode="]" horiz-adv-x="688" d="M-23 -341Q-23 -297 92 -286T231 -262T263 -219T362 477T452 1256T422 1387T299 1409T206 1458T261 1502H392Q545 1502 576 1488T608 1416V1393Q608 1305 574 1055T480 293T409 -262Q385 -348 346 -363T114 -379L62 -380Q-23
-380 -23 -341Z" />
<glyph unicode="^" horiz-adv-x="967" d="M553 1325T592 1325T661 1270Q894 823 894 757V747Q894 725 834 725Q791 725 684 938T567 1152T496 1064L428 963Q398 921 354 853T286 757T221 728T179 747Q179 752 441 1154Q553 1325 592 1325Z" />
<glyph unicode="_" horiz-adv-x="991" d="M224 -103H254L264 -104L832 -105Q842 -106 851 -106Q875 -106 875 -134Q875 -203 839 -209Q822 -212 402 -212L392 -213H143L114 -214H44Q-30 -214 -30 -192V-173Q-30 -122 -11 -113T224 -103Z" />
<glyph unicode="`" horiz-adv-x="686" d="M231 1394V1402Q231 1447 317 1447L323 1446H328Q381 1446 410 1393Q541 1157 541 1108V1095Q541 1072 511 1072H507L502 1073Q472 1073 381 1190Q231 1383 231 1394Z" />
<glyph unicode="a" horiz-adv-x="1023" d="M730 721V748Q730 784 701 809T620 835H590Q539 835 469 794T349 675Q229 490 229 304V294Q229 214 256 163T337 111H355Q407 111 483 172T606 313T692 521T730 721ZM760 888L888 904Q918 904 918 864T854 567T790 241T855
171L892 175Q932 175 932 156V146Q932 109 862 69T740 28T670 52T634 141L626 181Q621 206 617 206Q608 206 487 110T270 14H252Q168 14 119 79T69 250V271Q69 366 111 486Q193 719 397 849Q499 914 594 914H613Q641 914 684 901T760 888Z" />
<glyph unicode="b" horiz-adv-x="1023" d="M282 217V189Q282 135 308 113Q354 74 417 74H427L437 75Q498 75 564 118Q702 208 763 400Q796 505 796 568V619Q796 706 759 757T669 808H651Q601 808 527 757T404 627T319 426T282 217ZM282 15Q84 15 84 120Q84 166
125 316T246 855T326 1285T288 1353Q228 1396 228 1412T254 1445Q315 1482 400 1482Q513 1482 513 1397Q513 1354 458 1104T403 803T419 751T474 776L510 802Q643 892 743 892T904 829T965 659V609Q964 512 918 400Q822 168 633 65Q523 6 432 6H409L282 15Z" />
<glyph unicode="c" horiz-adv-x="853" d="M388 -17H367Q237 -17 160 76T82 303Q82 567 243 746Q404 924 615 924Q719 924 778 889T838 791V773Q838 744 815 716T773 687Q735 687 695 760T587 834T458 793T349 682Q254 539 254 330Q254 232 307 167T434 102T603
151T715 201T731 185Q731 127 611 55T388 -17Z" />
<glyph unicode="d" horiz-adv-x="1073" d="M1054 1390Q1054 1322 947 841T840 274T860 170T920 146T960 125Q960 101 930 77Q854 15 770 15H749Q709 15 665 98Q620 181 608 181Q595 181 546 142Q391 18 289 18T128 85T68 271T115 509T246 721T418 852T637 891T801
943Q820 972 849 1135T878 1306Q878 1334 822 1356T765 1402Q765 1419 781 1432Q839 1478 973 1478Q1054 1478 1054 1411V1390ZM364 103H382Q414 103 484 142Q630 224 703 469Q742 599 742 667L745 695L746 733V742Q746 778 713 806T622 834H592Q550 834 485 800T363
690T271 520T236 338V287Q236 211 272 157T364 103Z" />
<glyph unicode="e" horiz-adv-x="881" d="M592 855H562Q475 855 378 745T280 533L281 528Q281 501 300 501H312Q421 501 590 593Q692 649 692 718V736Q692 790 663 822T592 855ZM79 303V341Q80 462 126 570Q223 796 420 893Q510 938 601 938H620Q726 938 788 881Q849
824 849 742Q849 629 766 572Q644 486 421 452Q326 437 297 422Q252 399 252 308T308 163T460 108Q514 108 584 142Q594 147 643 177T709 207Q738 207 738 180Q738 124 612 56T388 -13H349Q240 -13 160 78T79 303Z" />
<glyph unicode="f" horiz-adv-x="659" d="M770 1488H799Q867 1488 907 1465T948 1401T924 1331T870 1301T793 1339T701 1378Q628 1378 560 1257T492 984Q492 934 576 913T661 867Q661 858 562 812T440 711Q437 702 348 278T222 -209T128 -306T9 -341T-81 -311Q-94
-298 -94 -275Q-94 -232 -44 -232T64 -147Q100 -94 122 -19T196 345T248 695T217 804T186 874T234 928T302 993Q305 998 367 1146T499 1362T642 1458T770 1488Z" />
<glyph unicode="g" horiz-adv-x="922" d="M279 508Q279 436 308 403T364 370H384Q452 370 534 470T616 681L619 702L621 738V774Q621 833 591 867T517 901H510L503 900Q413 900 347 786T280 550L279 536V508ZM320 13H297Q204 13 138 -53T72 -183V-198Q72 -271
152 -320T332 -369H381Q397 -367 405 -367Q500 -367 574 -311T649 -190V-175Q649 -100 544 -44T320 13ZM837 864Q777 864 777 733Q777 564 666 447Q590 367 492 336Q311 279 311 242Q311 197 354 165T533 84T731 -22T794 -150Q794 -292 672 -371T339 -450T22 -381T-85
-207T56 -4Q108 32 127 72Q202 228 202 298Q202 309 187 337T150 444T127 592T173 740Q309 971 614 971H617L733 963Q753 963 783 966L832 972H854Q926 972 926 924V907Q926 864 837 864Z" />
<glyph unicode="h" horiz-adv-x="1079" d="M173 -1Q86 -1 86 84Q86 121 135 285T217 623Q331 1217 331 1251T301 1327T270 1387T302 1437T392 1469Q515 1469 515 1339Q515 1292 462 1050T409 770T433 732Q449 732 515 784T640 865T777 894T899 833T943 687V654Q943
624 903 422T862 186T883 115Q895 87 891 87T874 84L834 74Q764 59 727 59T689 116T728 353T767 622T730 751T648 791Q647 791 646 791Q603 791 546 748Q415 649 338 355Q326 309 311 205T287 80Q251 -1 173 -1Z" />
<glyph unicode="i" horiz-adv-x="598" d="M559 1251Q559 1223 526 1190T459 1157H438Q404 1157 378 1183T352 1237L349 1257V1268L350 1271V1278Q352 1284 352 1288Q352 1315 385 1348T459 1382H470Q507 1382 533 1356T559 1306L562 1285V1271L561 1268V1261Q559
1253 559 1251ZM168 772Q140 772 140 803Q140 819 179 845Q295 922 402 922H415Q470 922 470 849T406 525T341 203T386 131Q407 131 433 141T475 152Q486 152 486 138V130Q486 108 431 76Q289 -7 188 -7Q114 -7 114 56V69Q114 88 145 164T229 443T283 711T223 776Q179
772 168 772Z" />
<glyph unicode="j" horiz-adv-x="565" d="M358 1260V1288Q361 1297 361 1313T391 1360T446 1391L463 1394H481Q515 1394 541 1368T568 1299V1288L564 1261Q564 1237 533 1206T482 1175Q476 1173 472 1173L455 1171L452 1172H442L428 1174Q408 1174 383 1199T358
1260ZM-138 -295L-55 -309Q53 -309 123 -108Q169 23 227 357T286 699Q286 745 260 768Q248 778 191 778T133 797T170 838Q316 923 400 923Q465 923 465 838V803Q465 785 393 381T262 -154T104 -359T-94 -434H-112Q-211 -434 -211 -376V-360Q-211 -337 -186 -316T-138
-295Z" />
<glyph unicode="k" horiz-adv-x="1044" d="M337 1226T337 1286T322 1363T268 1398T229 1436T249 1466Q308 1500 447 1500H478Q522 1500 522 1449Q522 1430 459 1047T396 637Q396 544 422 544Q431 544 624 733Q662 770 713 803T785 861L789 870Q795 875 873 875T951
838Q951 818 872 762T777 691Q630 553 630 496T803 169Q847 101 898 101Q909 101 916 103L882 87Q803 51 754 51T666 101Q648 122 626 178Q516 450 465 450Q419 450 383 362Q359 304 344 201T309 74Q264 22 176 22Q145 22 124 47T103 98T114 152L138 208Q155 258
173 335T264 819Z" />
<glyph unicode="l" horiz-adv-x="572" d="M371 134L453 156Q466 156 466 139T410 88Q258 -4 183 -4T107 68V84Q107 105 155 298T233 648T313 1032T363 1308T304 1376T245 1419Q245 1429 261 1437Q340 1478 490 1478H508Q550 1478 550 1425V1407Q550 1382 501 1163T384
589T316 222Q316 134 371 134Z" />
<glyph unicode="m" horiz-adv-x="1625" d="M1325 62Q1234 62 1234 200Q1234 262 1255 398T1276 601T1254 716T1201 766Q1095 766 995 557Q946 455 898 267T835 55Q800 -3 695 -3Q647 -3 647 31T678 154T751 425T794 670T770 753T695 775T570 707T454 570T354 287T251
72Q237 72 223 92Q179 156 179 285V317Q179 359 197 427T216 515T209 575T202 683T231 795T289 839Q301 839 360 798Q374 789 405 738Q417 718 441 718Q446 718 517 782T658 883T802 919T913 862Q924 844 942 773T980 701Q980 701 981 701Q996 701 1056 754Q1197
876 1314 876Q1392 876 1433 828T1475 702T1442 471T1409 258T1434 150T1454 100L1435 106L1421 98L1399 88Q1341 62 1325 62Z" />
<glyph unicode="n" horiz-adv-x="1121" d="M805 673Q805 809 703 809Q674 809 625 774Q456 655 374 338L354 251L325 141L314 90L310 66Q294 17 237 17Q206 17 180 57T153 182V206Q153 257 200 373T247 553T212 666T176 720Q176 791 203 831Q245 894 314 894T414
815Q421 796 421 731T425 666Q430 666 510 745Q685 917 821 917H849Q907 917 948 876T990 752T938 456T885 198T904 136T966 118L1005 127Q1005 124 960 97Q836 23 774 23Q749 23 728 48T706 139Q706 150 755 390T805 673Z" />
<glyph unicode="o" horiz-adv-x="973" d="M595 854H575Q522 854 459 813T350 698Q248 531 248 342V321Q248 208 295 141T417 74L427 75H437Q481 75 539 112T644 223Q754 393 754 577V609Q754 719 708 786T595 854ZM581 941H626Q745 941 831 846T917 608V550Q917
450 875 347Q788 133 595 34Q505 -13 420 -13H376Q253 -13 168 86T83 319V378Q83 478 127 582Q218 795 392 887Q496 941 581 941Z" />
<glyph unicode="p" horiz-adv-x="1070" d="M341 232V195Q341 148 380 122T467 96H497Q554 96 619 138T732 248Q845 408 845 593V613Q845 714 803 777T692 841H674Q620 841 560 792Q437 692 372 433Q341 309 341 232ZM319 -401Q319 -468 108 -468H83Q28 -468 4
-446T-20 -415V-400Q-20 -386 12 -334T61 -235T112 -49Q243 505 243 668Q243 725 204 761T164 805Q164 840 231 872T366 904Q388 904 412 869L418 863L422 855L427 848Q434 848 461 860T597 892T741 913Q860 913 931 838T1002 636V610Q1002 499 952 382T821 184T657
70T457 37T290 -35T238 -251Q238 -291 254 -313T294 -360T319 -401Z" />
<glyph unicode="q" horiz-adv-x="1036" d="M370 120H388Q452 120 544 195Q663 293 730 519Q767 642 767 746V755Q767 800 732 828T640 856H619Q559 856 488 814T358 691T270 513T240 349V308Q240 222 277 171T370 120ZM650 146Q650 162 644 162T518 99T300 36T141
108T81 292V344Q81 441 133 557Q236 786 439 887Q519 927 601 927H625Q667 927 724 907T800 886T862 900T920 915Q983 915 983 853Q983 819 954 744T889 494L847 284Q746 -193 746 -304Q746 -353 773 -386T800 -427Q800 -474 635 -474Q531 -474 486 -437Q468 -422
468 -403T516 -308T588 -158Q650 36 650 146Z" />
<glyph unicode="r" horiz-adv-x="817" d="M228 -5Q144 -5 144 127V144Q144 147 203 341T263 610T227 712Q159 764 159 782Q159 827 215 868T319 910T397 886T428 814L423 722Q423 686 435 686T507 753T621 861T748 901T822 835V825Q822 794 795 768T718 741L621
758Q546 758 463 566T379 201L381 171Q381 155 381 139Q381 75 348 35T247 -5H228Z" />
<glyph unicode="s" horiz-adv-x="780" d="M45 130Q45 243 116 243Q134 243 168 185T239 99T350 70T467 108T512 205T480 301T354 407T223 530T185 675T272 846T499 928H521Q615 928 679 900T744 810T715 718Q702 704 682 704T596 785Q548 844 478 844T370 806T333
717T367 626T496 520T629 399T667 250T572 70T339 -16H295Q185 -16 93 34Q45 60 45 130Z" />
<glyph unicode="t" horiz-adv-x="686" d="M158 145V183Q158 252 204 461T250 729T211 822T172 862T279 944Q310 966 372 1102Q411 1187 467 1187Q510 1187 510 1128L504 1072Q499 1024 499 1001Q499 952 570 928Q668 895 668 871Q668 824 555 824Q472 824 432
707Q330 401 330 229Q330 149 397 149Q415 149 469 169T554 190Q577 190 577 151T494 64Q369 -9 304 -9T199 31T158 145Z" />
<glyph unicode="u" horiz-adv-x="1116" d="M342 238Q342 113 422 113Q455 113 507 148Q709 283 793 688Q817 803 822 817Q844 880 888 880Q906 880 929 842T952 688Q952 675 929 549T905 380T937 258T970 164Q970 97 931 56T842 15T758 58T723 194L724 220L726
246Q726 277 719 277T640 198T483 61T317 3H291Q238 3 198 43T158 160T210 458T263 729Q263 791 197 791L174 789L141 785Q131 785 131 789T170 817Q292 893 356 893Q375 893 403 862T432 772T387 514T342 238Z" />
<glyph unicode="v" horiz-adv-x="1031" d="M919 926Q1020 926 1020 822Q1020 787 968 680Q821 378 740 267T574 87T430 18T350 74T329 331T305 607T235 733Q211 760 159 760T106 783T153 837Q275 915 353 915Q391 915 433 827T476 641L475 617Q474 593 474 570L472
522Q471 498 471 462V377Q471 206 500 206Q511 206 547 231Q639 296 714 402Q835 573 835 700Q835 732 815 779T795 845T832 894T919 926Z" />
<glyph unicode="w" horiz-adv-x="1516" d="M510 222Q526 222 544 240Q613 309 662 428T723 628Q745 795 757 815Q802 890 863 890T943 862T962 744Q962 515 993 335Q1011 229 1052 229Q1068 229 1089 253Q1182 357 1242 487T1303 715T1331 854T1392 897T1452 874T1479
812V783Q1479 774 1429 658Q1302 364 1177 171Q1116 76 1047 39Q1012 20 991 20Q931 20 892 102Q877 134 837 300T777 467Q771 467 696 342Q635 249 588 195Q472 64 420 64Q337 64 322 263T257 605Q250 625 231 650L216 669Q188 702 185 707Q150 759 150 817Q150
842 193 876T283 910Q373 910 418 838Q443 798 443 707L437 637Q437 222 510 222Z" />
<glyph unicode="x" horiz-adv-x="1023" d="M627 525T627 439T719 209Q768 133 843 133L862 134L893 138Q907 138 907 124T868 84Q752 6 683 6Q640 6 613 50T538 212T472 329T326 166T168 3Q106 3 72 32T38 78Q38 116 68 134Q70 135 132 144T248 208Q434 399 434
483T339 720Q301 781 250 781L229 779L193 775L168 780Q168 806 223 842Q326 909 374 909T459 849Q476 821 519 717T575 613Q612 613 726 764T873 915Q935 915 964 886T993 834Q993 790 899 770Q837 757 761 673Q627 525 627 439Z" />
<glyph unicode="y" horiz-adv-x="981" d="M883 904Q918 904 946 888T974 831Q974 814 890 626Q691 181 521 -72Q429 -209 300 -332T110 -455H86Q-5 -455 -5 -397Q-5 -346 96 -328Q196 -310 270 -235Q402 -100 403 44Q403 62 382 142T314 459T262 710Q238 768 168
780Q131 787 131 788L164 805Q273 866 321 866Q426 866 489 476Q526 248 555 248Q607 248 700 448T793 748L779 848Q779 904 883 904Z" />
<glyph unicode="z" horiz-adv-x="951" d="M822 209Q853 209 853 137T806 14T656 -36H630Q574 -36 428 -2T247 32T174 27L151 24Q111 17 106 17Q73 17 73 35V48Q73 104 145 190T439 498T662 753T427 785Q345 785 301 748Q220 680 205 680Q170 680 170 734Q170 826
235 887Q274 924 379 924H406Q453 924 559 904T712 883T813 898T879 914Q915 914 915 876T680 596T408 310Q322 205 322 145Q322 114 605 114Q683 114 718 135T780 182T822 209Z" />
<glyph unicode="{" horiz-adv-x="697" d="M757 1482Q757 1441 669 1415T548 1332T516 1063T472 757T347 609Q303 579 303 571T343 535T410 459T437 328T397 80T357 -144T381 -231T467 -282T530 -328Q530 -370 477 -370Q339 -370 278 -311T217 -132Q217 -57 253
87T289 326T259 461T176 520T124 575Q124 594 173 615T238 646Q295 684 333 769T371 1081T460 1414Q534 1503 703 1503Q757 1503 757 1482Z" />
<glyph unicode="|" horiz-adv-x="534" d="M279 1167T285 1294T292 1450T308 1492T366 1504T408 1465L391 1186L387 1107L384 1068L382 1028Q380 991 380 989L377 950Q374 891 374 870L358 590Q358 576 353 503T343 349L339 270Q336 233 336 230L330 112Q330 80
324 -17T315 -148L312 -187L311 -207L308 -246Q306 -286 306 -323T290 -373T234 -386T193 -347V-327Q193 -211 220 155T248 631L264 909L266 929L268 969Q270 996 270 1008L276 1107Q279 1167 285 1294Z" />
<glyph unicode="}" horiz-adv-x="707" d="M294 1505Q430 1505 491 1444T552 1263Q552 1211 516 1055T480 806Q480 663 573 623Q640 595 640 578Q640 550 562 508T450 400Q397 294 397 85L396 60Q395 35 395 10Q395 -165 316 -266T82 -367H57Q9 -367 9 -345Q9 -307
98 -278T217 -193T248 62T280 344T364 480Q378 494 419 526T460 567T422 602Q329 666 329 799Q329 894 370 1052T411 1278T384 1371T296 1417T235 1464Q235 1505 294 1505Z" />
<glyph unicode="~" horiz-adv-x="1093" d="M785 538H753Q683 538 561 602T376 666T263 625Q248 613 221 580T177 547Q149 547 149 578Q149 655 256 737Q325 790 410 790H420Q494 790 623 726T813 661T919 703Q1000 779 1007 779Q1035 779 1035 748Q1035 677 951
608T785 538Z" />
<glyph unicode="&#xa0;" horiz-adv-x="519" />
<glyph unicode="&#xa1;" horiz-adv-x="539" d="M294 992Q294 992 296 1018Q296 1032 328 1071T402 1110H427Q458 1110 486 1082T514 1031Q516 1025 516 1021L518 1007V999Q518 952 481 915T409 878H380Q372 880 369 880Q345 880 319 912T293 974V988L294 992ZM348
712H358Q383 712 383 678V667Q383 619 343 380T285 -4T251 -211Q224 -325 127 -325H116Q60 -325 60 -278V-268L61 -257Q61 -142 284 623Q310 712 348 712Z" />
<glyph unicode="&#xa2;" horiz-adv-x="868" d="M281 432V407Q281 299 337 208Q360 170 379 170T406 231Q409 246 411 263T419 309L427 350Q429 358 438 406T461 512T479 585T486 610Q488 620 494 638L507 684Q511 697 513 704T522 736T537 785T552 837T561 867V872Q561
876 550 876T474 831T374 732Q281 587 281 432ZM838 822Q838 746 780 746Q767 746 722 785T664 824Q627 824 593 708Q477 312 477 200Q477 158 521 158Q555 158 621 187T702 217T717 203Q717 163 621 103Q615 99 550 64T463 9T414 -77T348 -144Q330 -144 330 -75T321
10T251 78Q127 183 127 369T221 696T451 912Q531 958 545 971T591 1058T651 1133Q685 1133 685 1080T761 951T838 822Z" />
<glyph unicode="&#xa3;" horiz-adv-x="1157" d="M920 1400H955Q1036 1400 1085 1363T1135 1262T1111 1176T1063 1153Q1007 1153 965 1209T858 1266T732 1225T631 1116Q537 958 537 739Q537 674 585 649L611 642L675 633Q745 617 745 592T635 529T483 427Q458 389
435 310T397 196T382 142Q382 65 443 43Q483 29 599 29T783 63T872 139Q913 219 952 219Q1003 219 1003 150T976 20T906 -78T745 -115H710Q656 -115 508 -87T316 -58T204 -85T88 -113T40 -63T122 40Q239 116 256 150Q321 278 321 433Q321 489 247 512T173 557Q173
589 247 620T335 684L342 715L348 751Q384 934 421 1031Q502 1237 676 1333Q797 1400 920 1400Z" />
<glyph unicode="&#xa4;" horiz-adv-x="1062" d="M528 385H552Q651 385 731 472T811 667V675Q811 764 750 825T616 887H584Q475 887 400 797T325 604V589Q325 519 368 466Q434 385 528 385ZM899 817Q899 809 910 756T922 656T896 545L845 421Q845 400 887 353T929
275Q929 227 867 227Q840 227 793 279T719 332Q710 332 676 319T610 295T520 285T398 309T331 334Q309 334 248 280T173 225Q113 225 113 274Q113 293 175 353T238 451Q238 461 226 505Q214 547 214 603Q214 666 250 746Q285 826 285 849T245 920T204 998Q204 1040
271 1040Q295 1040 339 990T416 939Q417 939 487 962T612 986T730 962T813 937T891 990T963 1043Q1021 1043 1021 994Q1021 966 960 914T899 817Z" />
<glyph unicode="&#xa5;" horiz-adv-x="1283" d="M1349 1316Q1349 1302 1274 1260T1148 1158Q1058 1052 1001 953T943 817T950 761L961 741Q974 717 974 704Q974 655 925 628Q838 580 838 542Q838 528 892 494T946 436T868 385T744 299T698 158Q698 132 751 90T804
23T721 -2L675 -1L412 -2Q340 -2 340 34Q340 49 400 84T471 136Q499 177 499 236T464 346Q451 364 402 387T353 429Q353 459 429 490T506 566T455 623T403 652Q403 699 437 725Q494 769 494 811T457 991T390 1176T302 1255T244 1294Q244 1319 385 1319T526 1300Q526
1296 514 1276T502 1240T553 1138T663 934T733 817Q769 817 915 995Q978 1072 1057 1160T1136 1262T1124 1302T1122 1329L1154 1327Q1171 1327 1230 1331L1319 1337Q1349 1337 1349 1316Z" />
<glyph unicode="&#xa6;" horiz-adv-x="531" d="M330 1479H356Q394 1479 394 1444V1419L393 1411V1394L391 1369L389 1335L386 1310L372 1072L368 1021L366 987V970L364 945V928L360 877L357 835L355 801Q355 732 303 732H294L286 733Q240 733 240 767V783L241
792V809L244 877L247 919Q251 953 251 961L253 1012V1029L256 1071Q257 1080 257 1088L258 1097L259 1105L262 1156V1173L266 1240L267 1249L270 1300Q273 1327 273 1342L275 1376Q275 1438 284 1458T330 1479ZM210 273Q210 351 265 351H290Q325 351 325 329V271L324
263L321 203L319 186L316 135Q315 126 315 117L310 32L307 -10L305 -44Q303 -60 303 -69L294 -225V-242L293 -251L292 -259L288 -323Q287 -332 287 -340Q287 -402 235 -402H209Q173 -402 173 -374V-307L184 -145V-128L185 -111L188 -69L190 -34Q192 -18 192 -8L201
145Q204 172 204 187L205 196L206 204L209 256Q210 265 210 273Z" />
<glyph unicode="&#xa7;" horiz-adv-x="1029" d="M764 472V503Q764 603 678 743Q649 789 561 868Q529 896 508 896H503Q450 896 401 826T352 695V672Q352 600 419 527Q447 496 561 409T679 321H684Q706 321 735 363T764 472ZM718 1293T646 1293T536 1244T498 1130T548
1003Q571 975 692 881T861 716T909 536T837 337T765 149Q765 -35 656 -147T377 -260H349Q270 -260 215 -220T159 -118Q159 -24 226 -24Q256 -24 300 -88T424 -152T551 -111T599 4T541 147Q533 156 424 245T275 402T235 569T305 773T376 907L374 929L370 953L365
979Q362 1001 362 1061Q362 1190 456 1284T680 1378H708Q796 1378 839 1347T882 1277Q882 1180 820 1180Q801 1180 749 1251Q718 1293 646 1293Z" />
<glyph unicode="&#xa8;" horiz-adv-x="852" d="M434 1256L432 1231Q432 1218 403 1189T343 1159H321Q292 1159 267 1184T241 1247V1256L245 1281Q245 1295 270 1326T324 1358Q330 1360 333 1360L346 1361L377 1356Q388 1356 411 1333T435 1275V1260L434 1256ZM688
1159Q649 1159 625 1189T601 1248V1258L605 1283Q605 1297 629 1327T678 1358L684 1360L706 1362H709L734 1358Q752 1358 772 1333T793 1292L796 1273V1264L795 1261V1257L792 1239Q792 1226 767 1195T721 1164Q712 1161 709 1161L694 1159H688Z" />
<glyph unicode="&#xa9;" horiz-adv-x="1597" d="M248 679V621Q248 510 294 403Q389 183 622 98Q711 66 811 66H849Q955 66 1069 118Q1284 216 1387 437Q1445 560 1445 676V735Q1445 848 1395 954Q1297 1162 1105 1244Q995 1291 882 1291H862Q625 1291 449 1121Q361
1036 305 913T248 679ZM964 252T855 252T680 278Q616 304 562 358Q456 464 455 648Q455 829 565 961Q624 1031 707 1068T879 1105H899Q1064 1105 1119 1067Q1153 1043 1153 970V952Q1153 878 1125 878T1043 937T982 1000Q931 1028 867 1028Q735 1028 656 896Q600
804 600 657T675 426T864 342Q938 342 1008 404T1107 467Q1125 467 1125 429Q1125 349 1055 307Q964 252 855 252ZM1535 725V702Q1535 578 1484 442T1332 201T1096 40T830 -18H808Q537 -18 347 167T157 631L158 653V676Q158 794 216 930Q274 1068 370 1164Q582
1376 866 1376H867Q1152 1376 1339 1194Q1424 1111 1479 981T1535 725Z" />
<glyph unicode="&#xaa;" horiz-adv-x="835" d="M610 1228V1239Q610 1305 541 1305H522Q424 1305 351 1200T277 977V971Q277 914 299 889T347 863H353Q443 863 526 982T610 1228ZM735 1369T735 1314T700 1126T664 951T696 907L744 911Q769 911 769 886T722 825T628
788T557 842T526 897T494 882Q468 866 448 852Q358 784 284 784H272Q225 784 194 823T163 935Q163 1078 297 1244Q353 1314 413 1345T508 1376H531L619 1359L661 1362L712 1369Q735 1369 735 1314Z" />
<glyph unicode="&#xab;" horiz-adv-x="931" d="M527 852Q551 852 551 825Q551 810 412 651T272 477T347 328T422 159T391 124H384Q369 124 300 217T168 382T105 474V482Q105 508 273 645Q297 665 308 675T334 698L386 743L400 756Q511 852 527 852ZM840 839H846Q873
839 873 818T744 647T614 484T682 333T751 166T722 136H714Q705 136 576 297T447 479T642 669T840 839Z" />
<glyph unicode="&#xac;" horiz-adv-x="1142" d="M913 326Q924 398 924 465T851 554Q831 560 532 560L493 559H454L441 560H415L402 561H337L298 560L207 557Q133 557 133 588Q133 643 165 651T585 660L676 661H715L728 660L949 661H975Q1044 661 1044 576L1043
564V552Q1043 388 1005 284Q997 262 970 262H958Q913 262 913 326Z" />
<glyph unicode="&#xad;" horiz-adv-x="729" d="M612 576Q642 576 642 547V541L641 534Q641 451 574 451L550 448H538L531 447H519L494 445H481L462 444H450L424 442H405L360 439H340L334 438H321L315 437H302L295 436H283L270 435H258L251 434H226L214 433H183L166
432H148Q120 432 120 456V474Q120 545 156 555Q207 569 407 569L565 576H612Z" />
<glyph unicode="&#xae;" horiz-adv-x="1391" d="M649 935Q649 915 685 915H717Q794 915 838 952T882 1046V1069Q882 1124 842 1157T741 1190H713Q663 1190 663 1157Q661 1149 661 1144L659 1131V1118L658 1109V1100L657 1096V1087L656 1079V1070L655 1065Q655
1057 655 1048L654 1039V1030L653 1017V1008L652 995V986L651 982V973L649 943V935ZM707 375H756Q847 375 943 421Q1130 511 1204 688Q1252 804 1252 890V922Q1252 1010 1214 1102Q1139 1284 977 1357Q877 1402 774 1402H741Q656 1402 564 1360Q373 1275 288 1072Q245
968 245 869V836Q245 652 389 508Q456 441 543 408T707 375ZM693 578Q693 555 576 555T459 579Q459 592 489 607T524 636Q543 687 543 869L549 971Q555 1073 555 1113T537 1171Q493 1213 493 1228T687 1243L756 1244H773Q868 1244 928 1196T988 1078Q988 978 898
906Q863 877 863 858T919 747T990 640T1030 611T1055 584Q1055 554 973 554H956Q907 554 881 595Q867 616 822 714T755 836T679 861Q640 861 640 743L638 709Q638 665 665 625T693 578ZM746 299H709Q610 299 511 337Q300 418 210 622Q164 726 164 837V856Q164 1104
339 1293Q425 1386 540 1431T769 1477H788Q999 1477 1171 1318Q1233 1261 1282 1149T1332 937V899Q1332 786 1283 670Q1188 447 962 347Q853 299 746 299Z" />
<glyph unicode="&#xaf;" horiz-adv-x="825" d="M685 1281Q809 1281 809 1257V1251Q809 1180 746 1180H347Q238 1180 238 1204V1216Q238 1281 294 1281H530L536 1280L653 1281H685Z" />
<glyph unicode="&#xb0;" horiz-adv-x="687" d="M483 1346H445Q388 1346 327 1276Q293 1237 293 1173V1157Q296 1142 296 1131Q296 1092 339 1049T436 1006H446L451 1007Q512 1007 562 1057T613 1174V1196Q613 1253 572 1299T483 1346ZM452 1429H493Q572 1429 637
1364T703 1211V1187Q701 1171 701 1162Q701 1071 620 997T445 923H429L421 924Q333 924 268 989T203 1133V1174Q203 1265 278 1347T452 1429Z" />
<glyph unicode="&#xb1;" horiz-adv-x="1106" d="M453 211H492L502 210L561 209Q992 209 992 189V171Q992 110 949 103Q931 100 531 100H258L229 99H200Q109 99 109 122V131L110 141Q110 201 152 208Q170 211 453 211ZM653 811Q653 768 682 763Q687 762 840 762T1000
761Q1030 756 1030 711T984 654Q980 653 825 653T657 644Q625 621 625 481T612 319T553 298H537Q508 298 508 341L515 460L518 493L522 559L525 591Q525 637 502 647Q493 651 322 651T150 686V702Q150 746 189 757Q203 761 358 761T528 776T550 936T566 1102T613
1124Q670 1124 670 1059L655 859Q653 827 653 811Z" />
<glyph unicode="&#xb2;" horiz-adv-x="726" d="M168 698T168 731T309 885T494 1059Q569 1150 569 1236Q569 1279 539 1313T445 1348T342 1282T271 1216Q259 1216 259 1244Q259 1322 323 1376T480 1431H498Q590 1431 644 1382T698 1251T621 1075Q585 1031 463 930T341
807Q341 796 405 796T529 805T600 818T631 834T663 846T676 835Q676 776 631 719Q614 697 555 697H536L518 698H500L335 703L228 698Q168 698 168 731Z" />
<glyph unicode="&#xb3;" horiz-adv-x="708" d="M515 1091Q516 1082 554 1058Q646 1000 646 902Q646 802 558 722Q471 642 350 642H331Q263 642 213 667T162 733T204 773Q223 773 270 744T341 715Q411 715 466 764T522 881T493 979T403 1027T342 1062T405 1109T504
1182T540 1266T514 1333T448 1357T353 1316T284 1275Q260 1275 260 1301Q260 1367 318 1402T470 1437H488Q572 1437 634 1388Q668 1361 668 1304Q668 1226 555 1136Q515 1105 515 1091Z" />
<glyph unicode="&#xb4;" horiz-adv-x="694" d="M352 1069H342Q310 1069 310 1092V1097Q310 1123 468 1326Q550 1432 588 1432H603Q677 1432 677 1389V1384Q677 1347 521 1208T352 1069Z" />
<glyph unicode="&#xb5;" horiz-adv-x="1140" d="M423 846Q423 793 368 567T313 270Q313 129 440 129Q441 129 442 129Q476 129 545 166Q690 244 762 511Q823 736 836 768Q867 840 905 840Q936 840 936 701Q936 671 916 568T896 381T952 258T1008 151T965 44T864
5Q780 5 747 81L738 106L728 129Q704 174 685 174T612 132T551 84Q476 37 385 37Q252 37 216 -23Q191 -63 179 -165T157 -296Q128 -396 84 -396H78Q43 -396 43 -265Q43 -259 136 195T230 677T224 743L214 796Q214 842 249 875T354 908T423 846Z" />
<glyph unicode="&#xb6;" horiz-adv-x="1158" d="M785 -135Q739 -135 739 -80Q739 -46 769 150T815 585T840 883T862 1002T874 1086Q874 1116 817 1116T742 1076Q734 1056 726 975T647 517T567 111Q537 2 482 2Q436 2 436 65L442 130Q453 255 453 331Q453 557 416
690Q402 739 336 819T249 941T228 1072T279 1246T410 1383Q543 1469 811 1469H849Q1071 1469 1120 1435L1132 1424Q1132 1401 1090 1321T1036 1182T998 917T954 604T898 227T854 -68Q841 -135 785 -135Z" />
<glyph unicode="&#xb7;" horiz-adv-x="458" d="M376 631L372 606Q372 582 339 549T279 515L257 512H243Q210 512 179 543T148 611V633Q148 676 184 712T262 749H277Q314 749 343 720T373 664L376 642V631Z" />
<glyph unicode="&#xb8;" horiz-adv-x="758" d="M344 -9H356Q364 -9 364 -53T417 -140T470 -241V-249L469 -257Q469 -338 390 -392T233 -447H209Q136 -447 136 -414Q136 -374 193 -374T286 -349T321 -284T282 -222T243 -155T293 -37Q312 -9 344 -9Z" />
<glyph unicode="&#xb9;" horiz-adv-x="625" d="M458 703H397L385 704H348L299 703H288Q205 703 205 730V738Q205 749 272 781Q313 800 327 850Q387 1060 387 1263Q387 1320 329 1320Q277 1320 277 1338T297 1367Q433 1435 517 1435H527Q553 1435 553 1407Q553
1398 526 1314T492 1168T477 1057L465 983Q462 955 455 913T447 837T491 777T536 738Q536 703 458 703Z" />
<glyph unicode="&#xba;" horiz-adv-x="778" d="M627 1178Q627 1242 585 1284T506 1326H486Q412 1326 348 1238T283 1041V1006Q285 992 285 986Q285 917 327 870T421 823L428 824Q510 824 569 917T629 1109V1157Q627 1171 627 1178ZM484 1387H524Q623 1387 688
1317T753 1144V1124Q753 986 658 876Q607 817 541 790T422 763H392Q298 763 230 831T161 997V1036Q161 1169 262 1278T484 1387Z" />
<glyph unicode="&#xbb;" horiz-adv-x="936" d="M81 168Q81 175 210 334T340 503T273 648T205 807Q205 841 241 841Q256 841 381 674T507 495V487Q507 466 352 342Q316 313 222 225T108 137Q81 137 81 160V168ZM680 500Q680 506 606 654T532 816Q532 852 568 852Q586
852 718 676T850 496Q850 478 647 302T438 125H431Q404 125 404 152T542 327T680 500Z" />
<glyph unicode="&#xbc;" horiz-adv-x="1595" d="M1278 638Q1278 643 1276 643Q1263 643 1117 479T971 310T1050 306H1205Q1239 306 1239 375L1250 446Q1260 501 1260 517L1267 565Q1275 605 1275 615L1278 630V638ZM385 1203Q385 1237 329 1243T273 1272Q273 1283
305 1295Q468 1355 506 1355H515Q541 1355 541 1313Q541 1300 526 1251T505 1177T471 964T443 739T486 666T530 623Q530 595 334 595H309L272 594Q198 594 198 618Q198 634 251 660T319 727T359 982T385 1203ZM1304 1397T1339 1397T1375 1372Q1375 1367 1130 1028T856
652T780 549L726 478Q709 456 680 413T597 299T422 61Q376 -2 328 -2Q300 -2 300 19T359 120Q716 596 913 877T1265 1349Q1304 1397 1339 1397ZM1343 102T1343 72T1298 16T1188 -11H1177Q1150 -11 1150 31Q1150 46 1173 86T1196 164T1163 215Q1146 221 1053 221Q871
221 871 263V272Q871 287 1101 540T1375 794H1384Q1403 794 1403 760T1384 615T1365 432T1381 337Q1384 332 1419 318T1454 285V279Q1454 269 1432 250T1374 191T1338 122Q1343 102 1343 72Z" />
<glyph unicode="&#xbd;" horiz-adv-x="1677" d="M404 1106T404 1157T357 1213Q295 1220 295 1243Q295 1258 322 1269Q480 1334 534 1334H544Q566 1334 566 1306T547 1220L540 1198Q524 1145 494 949T464 714T499 653Q554 619 554 609Q554 575 474 575H461L449
576H361Q215 576 215 596V604Q215 618 270 644T338 707Q342 718 373 912ZM1353 1378Q1400 1378 1400 1353Q1400 1339 1366 1293L1224 1097Q1078 898 1058 872T919 680T585 242T369 -30Q321 -30 321 -9T970 897Q1323 1378 1353 1378ZM1044 19Q999 19 999 54T1143
209T1329 381Q1414 486 1414 554Q1414 692 1290 692Q1217 692 1177 622T1109 551Q1093 551 1093 591Q1093 668 1167 722T1338 776T1489 726T1544 594T1476 423Q1436 371 1306 262T1175 130Q1175 120 1285 120T1448 146T1505 173Q1522 173 1522 152Q1522 65 1470
31Q1453 20 1363 20L1192 24H1154Q1120 22 1100 22L1062 19H1044Z" />
<glyph unicode="&#xbe;" horiz-adv-x="1706" d="M1342 642Q1331 642 1185 478T1039 310T1134 306H1273Q1308 306 1308 380Q1313 405 1313 413L1318 445Q1329 503 1332 533T1338 576T1342 601T1344 619L1346 629V640L1344 642H1342ZM250 1216Q250 1358 452 1358Q560
1358 613 1327T667 1246V1231Q667 1152 548 1057Q503 1022 503 1009Q503 1000 550 972Q649 912 649 803T554 615T333 536H314Q231 536 194 567T157 612V624Q157 656 206 656Q223 656 268 634T371 611T479 668T528 795T478 904Q454 924 396 940T337 968T400 1020T499
1101T536 1192Q536 1277 439 1277Q395 1277 345 1235T268 1193Q250 1193 250 1216ZM1415 1396Q1441 1396 1441 1372Q1441 1336 964 707Q827 527 490 61Q444 -2 396 -2Q369 -2 369 23Q369 65 1321 1334Q1368 1396 1415 1396ZM1257 -11Q1218 -11 1218 31Q1218 46
1241 85T1265 160T1245 208T1122 221Q940 221 940 263V272Q940 300 1175 547T1443 794H1451Q1471 794 1471 757T1452 610T1433 430T1445 344T1476 321Q1523 306 1523 279Q1522 270 1490 240Q1406 161 1406 122L1411 87Q1411 41 1367 15T1257 -11Z" />
<glyph unicode="&#xbf;" horiz-adv-x="832" d="M466 1005T466 1023T502 1078T573 1115H598Q630 1115 661 1084T692 1016V1002Q692 956 655 919T579 882H557Q520 882 492 916T463 978V996Q466 1005 466 1023ZM223 -65Q223 -199 361 -199Q425 -199 485 -126T597
-53Q626 -53 626 -118T544 -244T336 -306H317Q197 -306 123 -241T48 -70V-52Q48 44 98 122T260 307T391 438Q456 515 456 586L439 676Q439 729 489 729Q530 729 558 670Q577 631 577 566T539 440T397 260T259 73T223 -65Z" />
<glyph unicode="&#xc0;" horiz-adv-x="1430" d="M635 616H788Q954 616 954 659V675L951 706L948 744Q939 816 939 842L933 893Q925 961 923 973L920 1000Q915 1045 915 1052Q915 1182 883 1182H880L786 1036Q545 661 545 631Q545 616 635 616ZM708 1776V1794Q708
1844 786 1844H806Q833 1844 947 1714T1061 1552V1547L1060 1542Q1060 1520 1039 1520H1029Q993 1520 935 1571T815 1663Q708 1734 708 1776ZM917 527T707 527T452 489T339 332T271 180T290 105T309 38Q309 6 84 6L54 5Q-62 5 -62 34V51Q-62 74 8 101T112 171Q116
176 217 330T343 525T386 592L403 618Q421 644 444 681T487 746T521 798T560 859T611 937T742 1140T858 1315Q925 1404 986 1404Q1005 1404 1022 1382Q1061 1332 1074 1243T1117 695T1160 184T1206 114Q1282 72 1282 56Q1282 9 1225 9H1038Q838 9 838 29Q838 64
905 106T973 214Q973 460 937 503Q917 527 707 527Z" />
<glyph unicode="&#xc1;" horiz-adv-x="1430" d="M635 616H788Q954 616 954 659V675L951 706L948 744Q939 816 939 842L933 893Q925 961 923 973L920 1000Q915 1045 915 1052Q915 1182 883 1182H880L786 1036Q545 661 545 631Q545 616 635 616ZM988 1800Q1012 1843
1070 1843H1080Q1157 1843 1157 1795V1791L1156 1786Q1156 1760 1001 1640T795 1519H785Q762 1519 762 1539V1548Q762 1552 837 1638T981 1793L988 1800ZM917 527T707 527T452 489T339 332T271 180T290 105T309 38Q309 6 84 6L54 5Q-62 5 -62 34V51Q-62 74 8 101T112
171Q116 176 217 330T343 525T386 592L403 618Q421 644 444 681T487 746T521 798T560 859T611 937T742 1140T858 1315Q925 1404 986 1404Q1005 1404 1022 1382Q1061 1332 1074 1243T1117 695T1160 184T1206 114Q1282 72 1282 56Q1282 9 1225 9H1038Q838 9 838 29Q838
64 905 106T973 214Q973 460 937 503Q917 527 707 527Z" />
<glyph unicode="&#xc2;" horiz-adv-x="1430" d="M616 611H803L811 612L878 615Q886 616 894 616Q951 616 951 647V670L950 677L948 708Q945 732 944 751T941 787T937 823T935 854L910 1072Q910 1176 881 1176H877L788 1038Q542 655 542 626Q542 611 616 611ZM1042
1838H1063Q1093 1838 1132 1765Q1155 1723 1205 1642T1255 1554Q1255 1522 1224 1522T1115 1606T1013 1691Q1007 1691 886 1608T742 1524T718 1545Q718 1548 863 1693T1042 1838ZM269 151Q269 138 288 99T307 33Q307 1 113 1L51 0Q-65 0 -65 45Q-65 68 6 96T101
156Q163 237 271 409T437 667T544 832T616 945T733 1126T838 1285Q918 1399 984 1399Q1002 1399 1030 1363Q1071 1310 1085 1106L1089 1047Q1092 989 1093 974T1102 867L1114 715Q1158 176 1164 153T1224 97T1279 51V32Q1279 4 1058 4T836 42Q836 60 903 101T971
209Q971 455 934 497Q912 522 704 522T444 477Q407 445 338 329T269 151Z" />
<glyph unicode="&#xc3;" horiz-adv-x="1430" d="M949 679Q933 807 933 855L926 916L923 934L920 961Q908 1069 908 1073Q908 1178 879 1178H875Q869 1178 705 905T541 628V623Q541 612 647 612H767Q949 612 949 648V679ZM882 1769H905Q950 1769 1022 1726T1144
1682T1240 1724T1292 1766Q1316 1766 1316 1741Q1316 1689 1248 1627T1119 1564H1089Q1040 1564 967 1608T846 1652T749 1611T699 1570Q675 1570 675 1588V1602Q675 1655 766 1725Q823 1769 882 1769ZM267 153Q267 139 286 100T305 34Q305 2 80 2H19Q-67 2 -67
47Q-67 69 3 97T107 168Q110 171 314 483T552 849L569 875Q587 902 618 952T738 1138T836 1287Q916 1401 982 1401Q1001 1401 1018 1379Q1056 1330 1071 1228Q1071 1227 1081 1106T1095 930L1105 808L1107 778Q1107 773 1131 476T1159 167Q1168 130 1202 111Q1277
68 1277 52V34Q1277 5 1056 5T834 44Q834 61 901 103T969 211Q969 456 932 499Q911 523 702 523T442 479Q406 448 337 331T267 153Z" />
<glyph unicode="&#xc4;" horiz-adv-x="1430" d="M937 647V670L936 678L934 709Q932 723 931 735T929 764T926 796T924 821L919 871Q919 876 914 906L907 969Q900 1011 900 1030L894 1089Q894 1177 866 1177H863Q858 1177 816 1108T765 1024Q528 655 528 627Q528
611 643 611H755L763 612L839 614L872 616Q937 616 937 647ZM821 1771Q852 1771 878 1745T904 1690V1668L899 1643Q899 1628 871 1600T815 1571H787L768 1575Q712 1575 712 1639Q710 1645 710 1648L709 1661V1667L713 1692Q713 1718 745 1743T796 1769L808 1771H821ZM1182
1528H1170Q1161 1531 1158 1531L1149 1534H1136L1131 1535H1122L1114 1536H1105Q1046 1536 1046 1552L1023 1581Q1006 1602 1006 1618Q1006 1659 1070 1705T1187 1751H1202Q1246 1751 1246 1690Q1248 1682 1248 1678L1250 1661V1640L1246 1596Q1246 1579 1216 1554T1182
1528ZM921 559T718 559T473 524T365 372T300 222T319 151T339 93Q339 61 187 61H98Q-11 61 -11 90V106Q-11 125 54 154T141 205T282 422T470 723T649 1009T837 1303T980 1417Q1033 1417 1063 1244Q1080 1146 1115 720T1170 222Q1180 183 1231 157T1283 93Q1283
64 1109 64H1022Q994 65 927 65T860 99Q860 116 922 156T984 261Q984 490 942 536Q921 559 718 559Z" />
<glyph unicode="&#xc5;" horiz-adv-x="1443" d="M1010 1572H1028Q1062 1572 1096 1606T1130 1683V1708Q1130 1742 1101 1771T1039 1800H1025Q988 1800 955 1767T922 1706L920 1700V1693L919 1686V1675L920 1671Q920 1627 947 1600T1010 1572ZM675 621H794Q977
621 977 664V680L976 688L973 733Q970 757 969 772T966 804Q962 852 962 862L953 941Q940 1019 940 1055Q940 1182 906 1182H903Q895 1182 809 1039L568 637Q568 621 675 621ZM840 1660V1678Q840 1744 895 1806T1025 1868H1055Q1067 1866 1073 1866Q1121 1866 1165
1816T1210 1712V1694Q1210 1607 1144 1556T1018 1504H1000Q940 1504 890 1548T840 1660ZM287 158Q287 146 305 107T323 36T165 5H42Q-48 5 -48 48Q-48 73 22 101T131 176T261 368T490 719L524 771Q541 797 577 852T683 1019T863 1287Q944 1402 1008 1402Q1025 1402
1044 1380Q1086 1333 1101 1232Q1105 1204 1138 705T1181 170T1224 115Q1296 71 1296 53Q1296 9 1113 9H1021Q991 10 965 10Q857 10 857 30Q857 61 935 112Q992 150 992 221Q992 467 956 508Q933 534 727 534T472 493T356 333T287 158Z" />
<glyph unicode="&#xc6;" horiz-adv-x="1895" d="M1090 1210V1224Q1090 1231 1081 1231T861 957T650 663Q650 650 770 650H804L812 651Q968 651 981 669T1020 830T1067 1069T1090 1210ZM1216 1000T1216 927T1262 820T1358 787T1460 806L1498 823Q1558 850 1568
850Q1637 850 1637 746T1581 578L1551 556Q1527 556 1471 610T1347 664Q1224 664 1170 605Q1146 579 1114 471T1081 262T1114 128T1247 93Q1427 93 1514 121T1687 214Q1747 259 1764 259Q1764 259 1765 259Q1772 259 1772 252Q1772 227 1745 158T1667 45T1427 1L1371
2H1258Q925 2 852 20T779 76Q779 82 829 160T902 307T924 486Q924 516 882 536T752 557Q602 557 508 469Q450 414 342 249Q299 183 299 132L314 102L338 74L356 48Q356 18 313 9Q289 4 135 4T-20 31Q-20 63 60 114T204 240T864 1093Q921 1167 938 1228T964 1323T975
1362Q1004 1408 1141 1408H1196L1248 1406Q1326 1403 1353 1403L1523 1404Q1790 1404 1836 1377T1883 1274V1229Q1883 1166 1850 1166Q1848 1166 1814 1202T1727 1261Q1601 1313 1486 1313T1318 1250Q1288 1214 1252 1107Z" />
<glyph unicode="&#xc7;" horiz-adv-x="1381" d="M92 561V597Q92 750 159 912Q292 1233 603 1355Q751 1413 906 1413H940Q1047 1413 1183 1372T1330 1323T1371 1238T1401 1138Q1401 1046 1350 1046Q1345 1046 1275 1141Q1241 1187 1138 1249T900 1311Q625 1311
454 1102T283 575Q283 340 424 195Q546 69 754 69Q864 69 967 113Q1018 135 1103 208L1152 247L1174 268Q1213 306 1220 309Q1254 323 1254 289T1201 160T1113 47Q950 -37 737 -37H668Q666 -37 663 -37Q553 -37 448 8Q222 103 136 320Q92 433 92 561ZM786 -211V-229Q786
-297 718 -358T554 -419H537Q504 -419 504 -407V-398Q504 -381 588 -334Q650 -300 650 -237Q650 -218 626 -190L592 -150Q592 -129 619 -90T661 -50L671 -48H687Q703 -48 703 -77Q703 -87 744 -128T786 -211Z" />
<glyph unicode="&#xc8;" horiz-adv-x="1250" d="M579 1781V1790Q579 1845 663 1845H673Q717 1845 795 1741Q932 1558 932 1557V1543Q932 1520 910 1520H906Q850 1520 715 1639T579 1781ZM527 956T527 911T560 825T662 784T764 796T842 839T898 870Q947 870 960
844T973 738T945 605T866 553Q858 553 832 593T771 656T670 679Q511 679 466 600Q452 576 421 432T389 219T411 127Q445 92 606 92T847 118T977 184T1062 258T1111 292T1126 268Q1126 144 1043 49Q1003 3 903 3H772L727 4L593 3L547 4H107Q29 4 29 43Q29 54 112
89Q160 109 180 161T306 714T412 1247T356 1312T300 1375T637 1406L768 1407Q812 1408 857 1408L950 1410L1128 1411Q1204 1411 1225 1382T1247 1285Q1247 1145 1203 1145Q1193 1145 1160 1199T1052 1286T778 1320Q671 1320 620 1241Q598 1207 563 1082Z" />
<glyph unicode="&#xc9;" horiz-adv-x="1250" d="M762 1539V1548Q762 1550 890 1696T1070 1843H1080Q1157 1843 1157 1795V1791L1156 1786Q1156 1760 1001 1640T795 1519H785Q762 1519 762 1539ZM1247 1285Q1247 1145 1203 1145Q1190 1145 1158 1199T1051 1287T778
1320Q671 1320 620 1240Q597 1204 562 1078T526 908T560 824T672 783T823 826T922 869Q972 869 972 745T919 568L894 552Q880 552 806 628Q756 679 670 679Q510 679 466 599Q447 565 418 424T389 216T410 127Q445 91 604 91T861 123T1053 249Q1096 292 1110 292T1125
268Q1125 146 1042 49Q1002 2 902 2L859 3L500 4Q81 4 68 7Q28 16 28 42Q28 55 112 89Q159 108 180 161T306 719T412 1243Q412 1280 356 1311T300 1374T680 1406L1127 1411Q1203 1411 1225 1381T1247 1285Z" />
<glyph unicode="&#xca;" horiz-adv-x="1250" d="M924 1841Q948 1841 997 1762Q1116 1569 1116 1557V1551Q1116 1525 1085 1525T977 1609T874 1694Q867 1694 849 1680T820 1660L755 1616Q750 1612 684 1570T599 1527T579 1545T732 1703T910 1842L917 1841H924ZM527
953T527 908T560 822T670 781T823 824T923 867Q973 867 973 761T945 603T888 550T843 570L827 599Q806 632 772 654T670 676Q511 676 466 597Q451 572 420 427T389 206T434 109T636 89T877 126T1033 226T1109 289Q1126 289 1126 265Q1126 144 1043 47Q1003 0 903
0H772L727 1L593 0L547 1H107Q29 1 29 40Q29 51 112 86Q160 106 180 158T306 711T412 1245T356 1309T300 1372T680 1403L904 1406L950 1407L1084 1408L1128 1409Q1203 1409 1225 1380T1247 1282Q1247 1142 1203 1142Q1193 1142 1160 1195T1054 1283T778 1317Q671
1317 620 1238Q598 1205 563 1079Z" />
<glyph unicode="&#xcb;" horiz-adv-x="1250" d="M581 1675Q581 1710 612 1741T680 1773H689Q718 1773 745 1751T773 1704L776 1685V1672Q776 1635 747 1606T698 1576Q692 1574 689 1574L674 1572H668L643 1576Q585 1576 585 1635Q583 1641 583 1644L581 1656V1675ZM1141
1671Q1141 1630 1106 1602T1048 1573H1026Q1003 1573 974 1596T945 1654V1676Q945 1712 975 1742T1031 1772L1047 1774H1056Q1065 1771 1075 1771T1112 1750T1138 1705L1141 1690V1671ZM1243 1283Q1243 1143 1199 1143Q1186 1143 1154 1197T1047 1285T774 1318Q667
1318 616 1238Q593 1202 558 1076T522 906T556 822T667 781T819 824T918 867Q968 867 968 743T915 566L890 550Q876 550 802 626Q752 677 666 677Q505 677 461 597Q444 566 415 423T385 213T406 125Q441 89 600 89T857 121T1049 247Q1092 290 1106 290T1121 266Q1121
144 1038 47Q998 0 898 0L855 1L496 2Q77 2 64 5Q24 14 24 40Q24 53 108 87Q155 106 176 159T302 717T408 1240Q408 1278 352 1309T296 1372T676 1404L1123 1409Q1199 1409 1221 1379T1243 1283Z" />
<glyph unicode="&#xcc;" horiz-adv-x="700" d="M278 1781V1790Q278 1845 362 1845H371Q416 1845 494 1741Q631 1558 631 1557V1543Q631 1520 609 1520H604Q570 1520 386 1663Q278 1747 278 1781ZM66 -1Q16 -1 16 16V32Q16 58 92 78T189 148T288 581T395 1089T425
1245Q425 1300 364 1320Q283 1346 283 1375T490 1405L601 1406L623 1407L735 1409Q779 1409 779 1392V1378Q779 1357 682 1326Q624 1308 604 1247T478 671T373 149Q373 105 428 87Q511 59 511 34Q511 3 308 3H265L200 2L89 -1H66Z" />
<glyph unicode="&#xcd;" horiz-adv-x="702" d="M477 1539V1548Q477 1550 605 1696T780 1843H795Q872 1843 872 1795V1791L871 1786Q871 1760 716 1640T510 1519H500Q477 1519 477 1539ZM425 1245Q425 1299 364 1319Q283 1345 283 1374T491 1404L623 1406L645 1407L736
1409Q779 1409 779 1392V1378Q779 1356 682 1325Q626 1307 608 1258T532 930L524 886L515 842L505 798L496 754Q466 609 420 399T373 148T429 87Q511 58 511 34Q511 3 287 3H244L134 0L111 -1H66Q16 -1 16 16Q16 59 95 78T195 162Q207 201 316 722T425 1245Z" />
<glyph unicode="&#xce;" horiz-adv-x="702" d="M624 1841H638Q672 1841 718 1761T800 1622T837 1557Q837 1525 805 1525Q782 1525 698 1609T602 1694T471 1611T326 1527T301 1547Q301 1551 446 1696T624 1841ZM71 -3Q21 -3 21 13V30Q21 57 97 75T193 141Q218 203
288 552T394 1057T430 1243Q430 1297 369 1317Q288 1343 288 1372T495 1402L584 1403L695 1405L740 1407Q784 1407 784 1390V1376Q784 1354 687 1323Q629 1305 613 1256T487 682T377 147Q377 105 433 85Q516 55 516 32Q516 1 313 1H270L116 -3H71Z" />
<glyph unicode="&#xcf;" horiz-adv-x="701" d="M402 1774H424Q446 1774 475 1751T504 1693V1671Q504 1643 476 1609T412 1574H390Q360 1574 337 1597T313 1640L310 1655V1680L314 1698Q314 1716 343 1745T402 1774ZM762 1775H784Q814 1775 839 1750T865 1694V1672Q862
1660 862 1647T834 1606T784 1577L766 1574H753Q729 1574 699 1598T669 1659V1675L673 1697Q673 1718 701 1746T762 1775ZM425 1262Q425 1298 355 1320T284 1372T491 1402L601 1403L623 1404L736 1406Q779 1406 779 1390V1376Q779 1356 682 1323Q626 1304 609 1257T532
927L520 862Q514 831 505 793T492 731T483 685L473 641L464 596Q373 186 373 146T429 85Q511 56 511 32Q511 1 287 1L244 0H200L156 -2L66 -4Q16 -4 16 13Q16 54 96 75T195 159Q250 338 360 929Q362 942 372 988T388 1059L392 1080L397 1101Q425 1232 425 1262Z"
/>
<glyph unicode="&#xd0;" horiz-adv-x="1471" d="M391 173T391 141T419 96T543 83H565Q694 83 819 131T1042 280T1197 524T1253 798V841Q1253 1067 1125 1199Q1066 1260 978 1292T805 1325H784Q652 1325 619 1259Q598 1218 561 1025T523 805T545 770T663 762Q837
762 837 716Q837 680 796 669Q780 665 643 665T482 616Q471 593 431 383ZM62 27V44Q62 67 129 99T219 184T251 355L261 482Q265 528 278 579T291 635Q291 666 236 674T181 720T267 781Q322 797 350 848Q392 926 392 1209Q392 1266 363 1282Q293 1321 293 1333Q293
1351 313 1359Q445 1410 768 1410H798Q941 1410 1069 1368Q1444 1243 1444 824Q1444 644 1373 486Q1226 158 881 48Q725 -2 521 -2H408L129 5Q62 5 62 27Z" />
<glyph unicode="&#xd1;" horiz-adv-x="1571" d="M899 1771H921Q962 1771 1039 1728T1161 1684T1255 1726T1309 1768Q1332 1768 1332 1743V1735Q1332 1690 1265 1628T1135 1566H1106Q1057 1566 984 1610T863 1654T765 1613T715 1572Q691 1572 691 1605T757 1705T899
1771ZM290 1353Q290 1398 383 1398T548 1363T664 1267Q680 1245 916 784T1184 322L1198 351Q1206 372 1278 714T1351 1173Q1351 1198 1324 1275T1296 1373Q1296 1403 1412 1403Q1647 1403 1647 1378T1615 1336Q1516 1285 1503 1267T1475 1195T1407 891T1317 478T1258
160T1219 4Q1148 4 1011 210Q996 232 766 678T510 1124Q495 1124 480 1060Q320 369 320 230Q320 162 351 119L376 92L403 67Q422 45 422 26Q422 -6 327 -6Q116 -6 63 9Q34 17 34 51L57 69L125 108Q166 138 194 220T311 725T401 1225Q401 1255 366 1287L334 1309Q290
1345 290 1353Z" />
<glyph unicode="&#xd2;" horiz-adv-x="1475" d="M1275 840V876Q1275 1081 1177 1208T924 1335H906Q794 1335 686 1276Q463 1153 359 836Q317 706 317 573V555L318 537Q318 341 416 209T670 77H706Q804 77 906 133T1093 303T1227 560T1275 840ZM1009 1520H1000Q977
1520 786 1663Q678 1744 678 1785L679 1789Q679 1844 757 1844H777Q817 1844 894 1741Q1032 1557 1032 1547Q1032 1520 1009 1520ZM135 595Q135 751 202 910T383 1191T640 1369T918 1427Q1052 1426 1152 1380Q1341 1292 1415 1097Q1459 980 1459 860V816Q1459 673
1397 515T1229 240T980 53T689 -17H666Q558 -17 458 24Q254 108 178 314Q135 429 135 528V595Z" />
<glyph unicode="&#xd3;" horiz-adv-x="1475" d="M1266 840V894Q1266 1081 1167 1208T915 1335H897Q806 1335 705 1291T516 1143T369 890T309 591V537Q309 340 408 208Q506 77 660 77Q661 77 662 77H697Q814 77 917 144T1096 317T1219 563T1266 840ZM866 1538V1547Q866
1549 994 1695T1169 1842H1184Q1194 1840 1200 1840Q1261 1840 1261 1794V1790L1260 1785Q1260 1747 1154 1676Q917 1518 899 1518H894Q866 1518 866 1538ZM126 573Q126 725 185 885T356 1170T612 1361T895 1427Q1148 1427 1300 1271Q1451 1115 1451 838Q1451 687
1392 526T1223 243T971 53T703 -16H635Q536 -16 436 30Q234 123 162 334Q126 439 126 551V573Z" />
<glyph unicode="&#xd4;" horiz-adv-x="1475" d="M924 1330H887Q778 1330 671 1264T503 1113Q317 855 317 568V550L318 533Q318 425 349 335Q408 165 535 103Q599 72 670 72H688Q931 72 1099 305Q1181 418 1228 559T1275 835V871Q1275 1076 1176 1203T924 1330ZM1003
1838H1024Q1051 1838 1097 1758T1180 1617T1217 1554Q1217 1522 1184 1522Q1161 1522 1077 1606T974 1691Q969 1691 849 1608T704 1524T679 1544Q679 1548 824 1693T1003 1838ZM905 1422H928Q1047 1422 1148 1378Q1339 1295 1415 1092Q1459 975 1459 855V811Q1459
665 1396 508T1225 231T973 46T689 -21H644Q550 -20 452 22Q252 109 178 309Q135 427 135 524V591Q135 743 199 898T369 1170T617 1354T905 1422Z" />
<glyph unicode="&#xd5;" horiz-adv-x="1475" d="M923 1331H887Q789 1331 685 1272Q474 1152 376 883Q317 721 317 587V533Q317 336 415 205T670 73H705Q916 73 1088 292Q1175 403 1224 551T1274 836V890Q1274 980 1244 1070Q1188 1237 1059 1300Q995 1331 923
1331ZM851 1774H873Q914 1774 991 1731T1114 1687T1209 1729T1260 1771Q1284 1771 1284 1746V1738Q1284 1693 1217 1631T1087 1569H1057Q1009 1569 936 1613T815 1657T717 1616T667 1575Q643 1575 643 1608T709 1708T851 1774ZM905 1423H928Q1044 1423 1140 1382Q1340
1297 1422 1073Q1459 972 1459 828Q1458 684 1402 528Q1288 214 1004 61Q854 -20 711 -20H643Q544 -20 444 26Q242 119 170 330Q134 435 134 547V569Q134 721 193 881T362 1163T613 1354T905 1423Z" />
<glyph unicode="&#xd6;" horiz-adv-x="1475" d="M315 589V536Q315 446 343 354Q398 174 533 107Q599 75 704 75T911 135T1095 305T1225 562T1273 857L1272 875V893Q1272 982 1242 1072Q1154 1333 903 1334Q685 1334 512 1130Q434 1038 375 888T315 589ZM780 1770H793Q802
1767 817 1767T855 1740T877 1679V1673L873 1648Q873 1628 845 1600T790 1571L771 1569H768L744 1573Q724 1573 703 1600T681 1659V1663L686 1694Q686 1704 712 1737T780 1770ZM1149 1570H1127Q1104 1570 1077 1592T1049 1636Q1047 1642 1047 1645L1045 1661V1667L1049
1692Q1049 1712 1076 1739T1116 1768T1132 1769L1144 1771H1157Q1195 1771 1218 1742T1242 1684V1674L1241 1671V1668L1238 1649Q1238 1629 1209 1600T1149 1570ZM903 1425H948Q1050 1424 1150 1378Q1353 1284 1427 1055Q1457 960 1457 823T1400 530Q1278 198 982
54Q834 -18 686 -18H664Q431 -18 275 148Q207 220 170 328T132 549V572Q132 724 190 884T359 1165T611 1356T903 1425Z" />
<glyph unicode="&#xd7;" horiz-adv-x="1066" d="M885 901Q934 901 934 838Q934 821 790 688T646 536T770 384T894 230Q894 178 830 178Q807 178 687 313T545 448Q540 448 394 312T226 176Q175 176 175 237Q175 255 317 387T460 540T340 689T220 846Q220 896 284
896Q304 896 424 762T567 627L715 764Q863 901 885 901Z" />
<glyph unicode="&#xd8;" horiz-adv-x="1479" d="M316 573V543Q316 434 348 338T409 241H419Q466 241 784 690T1103 1190V1202Q1103 1257 1035 1300Q993 1327 927 1327H882Q787 1327 683 1269T495 1103T363 849T316 573ZM1258 931V973Q1258 1087 1225 1139Q1212
1160 1196 1160T991 884T721 502Q492 209 492 178V167Q492 126 529 102T616 78H629Q747 78 859 148T1062 346T1205 638T1258 931ZM504 -8Q469 -4 446 -4T369 -19L301 -40L287 -39H275Q228 -39 228 11Q228 16 237 62T247 134T200 291T152 513V591Q152 750 228 921T428
1210T685 1375T987 1423L1143 1410Q1199 1410 1288 1431Q1334 1431 1348 1409Q1360 1389 1360 1350Q1360 1346 1360 1342Q1358 1296 1358 1294Q1358 1230 1400 1108Q1442 987 1443 828Q1443 677 1378 514Q1312 350 1194 224Q968 -15 621 -16L504 -8Z" />
<glyph unicode="&#xd9;" horiz-adv-x="1501" d="M1027 1556V1542Q1027 1519 997 1519T786 1659Q674 1746 674 1780V1784L675 1789Q675 1844 758 1844H768Q799 1844 913 1714T1027 1556ZM371 1221Q371 1272 330 1293Q247 1336 247 1361Q247 1402 641 1402Q697 1402
697 1370Q697 1358 635 1319T554 1218Q546 1190 522 1044T454 693T409 372T494 177T713 99Q971 99 1101 336Q1150 427 1221 748T1293 1172Q1293 1231 1246 1292T1198 1372Q1198 1406 1289 1406H1327Q1583 1406 1583 1360Q1583 1330 1525 1298T1447 1227T1338 776T1182
255T990 72T703 -1H661Q478 0 359 98T240 364V405Q240 485 289 790L302 871Q323 1012 347 1109T371 1221Z" />
<glyph unicode="&#xda;" horiz-adv-x="1501" d="M939 1518H924Q901 1518 901 1537V1542Q901 1549 1029 1695T1209 1842H1214L1219 1841Q1296 1841 1296 1794V1790L1295 1785Q1295 1746 1180 1669Q953 1518 939 1518ZM371 1221Q371 1271 330 1292Q247 1335 247
1361Q247 1402 603 1402Q697 1402 697 1370Q697 1358 635 1319T554 1218Q546 1190 523 1047T454 694T409 371T494 178Q580 99 714 99Q975 99 1101 336Q1149 426 1221 745T1293 1171Q1293 1232 1246 1292T1198 1371Q1198 1406 1289 1406H1327Q1583 1406 1583 1360Q1583
1329 1524 1297T1448 1229T1338 778T1181 254T990 72T703 -1H661Q576 -1 497 24Q333 76 272 212Q240 283 240 363V405Q240 485 289 790L302 871Q321 1006 346 1106T371 1221Z" />
<glyph unicode="&#xdb;" horiz-adv-x="1501" d="M1041 1840H1055Q1089 1840 1131 1767Q1147 1739 1157 1720T1174 1691T1189 1667L1226 1607Q1254 1561 1254 1556V1549Q1254 1524 1227 1524T1115 1608T1018 1693Q1017 1693 887 1610T737 1526T717 1544T869 1701T1041
1840ZM371 1219Q371 1269 330 1290Q247 1333 247 1359Q247 1400 603 1400Q697 1400 697 1367Q697 1357 635 1316T554 1216Q546 1188 523 1045T454 692T409 369T494 176Q580 97 714 97Q975 97 1101 334Q1149 424 1221 743T1293 1169Q1293 1230 1246 1290T1198 1369Q1198
1404 1289 1404H1327Q1583 1404 1583 1358Q1583 1327 1524 1295T1448 1227T1338 776T1181 252T990 70T703 -3H661Q576 -3 497 22Q333 74 272 210Q240 281 240 361V403Q240 483 289 788L302 869Q324 1017 347 1110T371 1219Z" />
<glyph unicode="&#xdc;" horiz-adv-x="1501" d="M717 1656V1672Q717 1716 752 1744T816 1773H829Q838 1770 850 1770T887 1746T912 1695V1666L908 1648Q908 1631 881 1604T841 1575T825 1574L810 1572H804L779 1576Q760 1576 739 1603T717 1656ZM1280 1671L1277
1652Q1277 1632 1248 1603T1187 1573H1166Q1137 1573 1111 1599T1084 1657V1673Q1084 1712 1113 1741T1162 1770Q1168 1772 1171 1772L1186 1774H1196Q1229 1774 1255 1748T1281 1686V1677L1280 1674V1671ZM363 1218Q363 1268 323 1289Q239 1333 239 1358Q239 1399
596 1399Q689 1399 689 1367Q689 1354 627 1316T550 1227T512 1029T445 679T401 366T486 176T706 96Q970 96 1093 333Q1149 440 1217 763T1286 1157T1238 1290T1190 1368Q1190 1403 1281 1403H1320Q1576 1403 1576 1357Q1576 1327 1518 1295T1442 1228T1332 777T1174
252T982 69T696 -4H654Q451 -4 330 115Q232 211 232 390Q232 475 282 787L301 909Q316 1004 339 1104T363 1218Z" />
<glyph unicode="&#xdd;" horiz-adv-x="1314" d="M801 1537V1546Q801 1548 929 1694T1109 1841H1114L1119 1840Q1196 1840 1196 1793V1789L1195 1784Q1195 1757 1084 1671Q886 1517 839 1517H824Q801 1517 801 1537ZM574 606Q574 662 519 858Q418 1220 326 1270L278
1291Q229 1313 229 1317V1324Q229 1329 267 1329L287 1330L309 1332Q356 1335 387 1335T460 1345T503 1355Q537 1355 537 1332Q537 1320 522 1304T507 1271Q507 1269 575 1142T690 914T753 814Q774 814 961 1047T1149 1285Q1149 1300 1138 1314T1126 1339Q1126
1356 1157 1356H1176L1197 1353L1218 1352H1281Q1387 1352 1387 1334T1317 1296T1197 1219Q1064 1068 825 685Q779 612 737 442T694 212T709 131T772 82T820 36Q820 4 607 4L474 3L439 1H406Q333 1 333 39Q333 50 407 89T502 178Q574 355 574 606Z" />
<glyph unicode="&#xde;" horiz-adv-x="1168" d="M564 388Q657 388 733 426T854 515Q969 648 969 813V835Q969 930 886 1013Q826 1073 727 1073H708Q580 1073 556 1000Q547 974 529 878T478 642T444 463V426Q444 390 494 390L511 388H564ZM93 10Q39 10 39 33Q39
65 118 88T220 174T354 732T464 1267T412 1324Q324 1353 324 1373Q324 1408 485 1408H590L643 1411Q678 1413 694 1413Q775 1413 775 1378Q775 1360 711 1319T646 1204Q646 1165 819 1134Q992 1104 1050 1062Q1174 973 1174 799Q1174 698 1127 605T995 447T815
356T556 329L527 331L501 332Q445 332 422 291Q388 231 388 166Q388 122 448 99T509 47Q509 13 352 13L300 15H248L119 10H93Z" />
<glyph unicode="&#xdf;" horiz-adv-x="1113" d="M766 1438Q880 1438 959 1374T1038 1205T928 979T818 764Q818 700 913 558T1008 303Q1008 236 978 174Q886 -14 641 -14Q572 -14 508 20T444 100T467 169T527 192Q540 192 588 142T708 91T832 170Q866 221 866 288Q866
396 763 526T659 749T744 945Q873 1099 873 1186Q873 1235 840 1274T738 1313T600 1237T477 1020T352 456T199 -132Q101 -330 -48 -330Q-142 -330 -142 -253Q-142 -211 -70 -197T20 -167Q96 -100 166 278Q204 488 207 559T245 802T330 1065Q532 1438 766 1438Z"
/>
<glyph unicode="&#xe0;" horiz-adv-x="1022" d="M342 116H359Q412 116 487 176T610 317T696 527T735 744L734 753Q734 790 705 815T624 840H595Q534 840 468 795T359 687Q236 508 236 348L234 328V279Q234 203 266 160T342 116ZM704 1072H695Q671 1072 553 1223T435
1399L436 1403Q436 1451 519 1451L524 1450Q572 1450 598 1403Q732 1162 732 1109V1096Q732 1072 704 1072ZM764 892L892 909Q922 909 922 872T859 575T795 228Q795 175 859 175L884 180L907 179Q937 179 937 149T870 75T744 32T666 68T636 157T620 211T579 187T526
145T488 113Q360 19 274 19H256Q169 19 121 85T73 255V276Q73 278 73 280T73 284T73 288Q73 382 118 500Q212 745 418 864Q514 919 581 919T692 906T764 892Z" />
<glyph unicode="&#xe1;" horiz-adv-x="1022" d="M723 731V758Q723 796 692 820T603 845H584Q583 845 581 845Q520 845 456 800Q320 707 253 497Q223 402 223 333V284Q223 212 253 167T330 121H348Q384 121 456 166Q604 258 684 528Q723 658 723 731ZM964 1400V1385Q964
1367 817 1220T634 1073T597 1098T748 1318Q840 1436 873 1436H894Q964 1436 964 1400ZM754 897L881 913Q911 913 911 877T848 580T784 233Q784 180 848 180L873 185Q925 185 925 165V156Q925 119 856 78T735 37T661 64T627 154T610 216Q601 216 480 120T263 24H245Q158
24 110 90T62 260V281Q62 385 108 506T232 720T408 869T572 924T680 911T754 897Z" />
<glyph unicode="&#xe2;" horiz-adv-x="1022" d="M737 755Q737 792 706 817T617 842H607Q554 842 485 806T359 686T269 499T236 320V290Q236 214 265 166T344 117H361Q362 117 363 117Q409 117 483 172Q636 284 701 534Q735 663 735 718L737 737V755ZM691 1450T734
1450T801 1403Q922 1161 922 1122T892 1082H885Q862 1082 788 1186T710 1290T586 1188T443 1086T421 1105V1110Q421 1123 478 1185T585 1312Q691 1450 734 1450ZM768 894L894 910Q924 910 924 868T861 571T797 247T861 177Q887 181 898 181Q939 181 939 152Q939
117 869 76T747 34T678 57T640 146T616 212T580 189T525 143T475 103Q356 20 276 20H259Q174 20 125 85T75 257V277Q75 373 117 493T240 710T418 863T601 920H619Q647 920 692 907T768 894Z" />
<glyph unicode="&#xe3;" horiz-adv-x="1022" d="M735 741V759Q735 800 702 823T624 846H595Q535 846 469 800Q334 707 268 508Q234 406 234 315V295Q234 225 261 174T342 122H360Q412 122 492 186T613 327Q735 557 735 741ZM570 1338H600Q644 1338 711 1295T825
1251T922 1294T977 1337Q996 1337 996 1313V1305Q996 1258 929 1197T799 1135H777Q739 1135 657 1179T536 1223T474 1206T426 1164T390 1140Q370 1140 370 1163V1170Q370 1214 438 1276T570 1338ZM766 899L892 915Q922 915 922 873T859 576T795 252T860 182L896
186Q937 186 937 167V157Q937 121 868 80T746 39T669 71T636 160T620 217T492 121T275 25H257Q172 25 123 89T74 261V302Q74 396 122 515Q221 760 419 870Q517 925 599 925H617Q646 925 690 912T766 899Z" />
<glyph unicode="&#xe4;" horiz-adv-x="1022" d="M732 765Q732 802 701 827T621 852H592Q542 852 477 814T357 700T268 523T234 370L232 350L231 320V301Q231 228 259 178T339 128H357Q409 128 482 186T602 320T689 523T730 728L732 747V765ZM607 1250L605 1225Q605
1212 576 1183T516 1153H494Q466 1153 441 1178T415 1241V1250L419 1275Q419 1289 443 1319T491 1350Q497 1352 500 1352L513 1354H526Q535 1351 547 1351T584 1327T608 1269V1253L607 1250ZM966 1276V1251Q966 1216 935 1185T871 1153H858Q825 1153 801 1177T776
1221L773 1236V1258Q778 1273 778 1283T802 1322T852 1352L871 1355H883Q895 1352 902 1352Q962 1352 962 1291Q966 1279 966 1276ZM764 905L890 921Q920 921 920 879T856 582T792 258T856 188L893 192Q934 192 934 163Q934 129 867 87T744 45T672 68Q642 108 633
165T619 223L485 125Q357 31 271 31H254Q169 31 120 95T71 247V308Q71 390 115 510Q205 754 416 876Q512 931 596 931H614Q642 931 688 918T764 905Z" />
<glyph unicode="&#xe5;" horiz-adv-x="1022" d="M707 1392H690Q654 1392 620 1358T585 1281V1262L586 1259V1252Q588 1244 588 1230T614 1190T676 1163H693Q734 1163 764 1201T795 1274V1299Q792 1311 792 1324T765 1364T707 1392ZM733 748V766Q733 803 702 828T622
853H593Q533 853 466 807Q328 712 263 505Q232 407 232 331V292Q232 216 264 173T340 129H357Q392 129 468 177T595 309Q669 435 701 562T733 748ZM875 1291L873 1261Q873 1201 812 1147T689 1093H658Q594 1093 550 1143T505 1252V1270Q505 1337 561 1400T697 1463H709Q773
1463 824 1418T876 1297L875 1291ZM762 905L890 922Q920 922 920 878Q920 873 857 584T793 257Q793 188 857 188L882 193L906 192Q935 192 935 161T867 88T741 45T662 85T632 174T620 224L486 126Q358 32 272 32H255Q169 32 120 97T71 268V289Q72 402 120 522Q215
756 400 867Q507 932 597 932Q647 932 690 919T762 905Z" />
<glyph unicode="&#xe6;" horiz-adv-x="1295" d="M334 147H359Q386 147 444 184T532 271T628 508T694 744Q694 804 599 804L591 803H582Q542 803 479 763T361 639T276 456T246 306V261Q246 210 275 179T334 147ZM835 499Q880 508 888 508Q954 508 1028 613T1102
783V800Q1102 846 1055 846L1036 848H1012Q932 848 856 739T779 551V544Q779 499 813 499H835ZM591 212Q567 212 498 145T371 45T237 11T118 75T74 242T126 472T268 692T449 831T655 879Q710 879 737 885L776 899Q798 906 812 906T854 892T895 878T973 894T1091
911H1114Q1188 911 1230 869T1272 772V749Q1272 644 1174 572Q1104 520 1037 501T895 467T794 436Q746 410 746 324Q746 128 926 128Q969 128 1047 169T1144 210T1162 199Q1162 146 1048 79T846 11Q704 11 639 133Q598 212 591 212Z" />
<glyph unicode="&#xe7;" horiz-adv-x="869" d="M229 360Q229 95 443 95Q517 95 624 165Q674 198 691 198Q739 198 739 167Q739 157 721 135Q669 71 573 21T383 -30H363Q233 -30 148 58T62 294V337Q62 444 108 553Q198 768 384 870Q487 926 588 926H626Q690 926
769 886T848 809V792Q848 755 829 723T780 691Q769 691 691 757T550 824Q426 824 328 687T229 360ZM358 -51H369Q391 -51 391 -80Q391 -90 431 -130T471 -219L470 -225Q470 -297 404 -355T250 -414H223Q197 -414 197 -399Q197 -374 266 -336T336 -237Q336 -207
309 -186T281 -149T323 -71Q336 -51 358 -51Z" />
<glyph unicode="&#xe8;" horiz-adv-x="837" d="M266 539V518Q266 505 282 505H299Q408 505 553 597Q665 668 665 742V747L664 753Q664 801 640 832T570 864H546Q451 864 371 761Q266 626 266 539ZM629 1071H615Q602 1071 479 1212T355 1393V1397L356 1402Q356
1449 429 1449H449Q492 1449 523 1393Q652 1161 652 1108V1099L651 1094Q651 1071 629 1071ZM578 944H614Q700 944 756 890T813 756Q813 572 503 485Q494 482 394 460T279 427Q236 399 236 311T288 170T410 117T529 142T617 193T677 220T699 200T661 134T532 43T354
-2H335Q222 -2 148 85T74 302V339Q74 442 116 550Q206 785 389 888Q489 944 578 944Z" />
<glyph unicode="&#xe9;" horiz-adv-x="837" d="M263 543V521Q263 508 285 508H291Q419 508 560 607Q662 678 662 745V751L661 756Q661 807 635 837T555 868L549 867Q448 867 368 764Q263 629 263 543ZM903 1401V1386Q903 1368 756 1221T573 1074T536 1096V1100Q536
1126 690 1324Q778 1437 812 1437H833Q843 1435 849 1435Q903 1435 903 1401ZM575 947H611Q699 947 754 892T810 748T729 597T517 494Q476 482 384 461T276 430Q233 402 233 314T285 173T407 120T526 145T614 196T674 223T696 203Q696 147 577 74T351 1H332Q219
1 145 88T71 305V342Q71 453 117 569T239 769T402 900T575 947Z" />
<glyph unicode="&#xea;" horiz-adv-x="838" d="M273 539V517Q273 504 295 504H300Q429 504 570 603Q672 674 672 741V747L671 752Q671 803 645 833T571 864H565L559 863Q458 863 378 760Q273 625 273 539ZM668 1450H675Q710 1450 735 1397Q852 1146 852 1120V1113Q852
1082 815 1082Q785 1082 719 1186T637 1290Q636 1290 516 1189T374 1087T351 1105V1111Q351 1118 491 1284T668 1450ZM585 943H621Q709 943 764 888T820 743T737 590T527 490Q486 478 394 457T286 426Q243 398 243 310T295 169T417 116T536 141T624 192T684 219T706
199Q706 143 587 70T361 -3H342Q229 -3 155 84T81 301V338Q81 569 255 772Q319 847 409 895T585 943Z" />
<glyph unicode="&#xeb;" horiz-adv-x="837" d="M274 545V533Q274 515 296 515H302Q415 515 571 614Q673 679 673 741V769Q673 810 648 842T572 875H560Q460 875 367 756T274 545ZM340 1236V1258Q340 1286 367 1320T431 1355H456Q481 1355 505 1331T529 1289L532
1273V1248L528 1230Q528 1219 503 1188T452 1157L434 1154H422L419 1155H412Q406 1157 397 1157T364 1180T340 1236ZM698 1259L700 1280Q700 1290 726 1323T789 1356H814Q845 1356 866 1329T888 1287L891 1268V1259L890 1255V1252L887 1234Q887 1214 858 1185T798
1155H777Q756 1155 727 1178T697 1240V1256L698 1259ZM586 954H623Q711 954 766 899T821 755Q821 588 529 501Q488 489 395 468T287 437Q245 410 245 320T297 179T423 128T544 154T627 205T681 230Q707 230 707 198Q707 143 553 61Q453 8 363 8H344Q221 8 152 101T82
331L83 349V368Q84 472 134 586Q234 812 413 907Q504 954 586 954Z" />
<glyph unicode="&#xec;" horiz-adv-x="560" d="M439 1066H425Q401 1066 283 1217T165 1393L166 1397Q166 1444 239 1444H259Q302 1444 328 1397Q462 1156 462 1103V1094L461 1089Q461 1066 439 1066ZM123 765T123 793T212 872T384 923Q442 923 442 843Q442 820
407 663T355 444T319 288T299 192Q299 137 337 137Q355 137 393 153T448 169T464 159V151Q464 120 361 59T183 -3H169Q107 -3 107 56V68Q107 71 135 172T214 485T265 715Q265 773 219 773L156 765Q123 765 123 793Z" />
<glyph unicode="&#xed;" horiz-adv-x="560" d="M372 1066H363Q333 1066 333 1087V1092Q333 1122 529 1374Q572 1429 619 1429L624 1428Q700 1428 700 1387V1382Q698 1372 698 1368Q698 1340 542 1203T372 1066ZM124 767T124 795T213 874T385 925Q443 925 443 845Q443
822 408 665T336 371T300 186T338 139Q356 139 394 155T449 171T465 161V153Q465 122 362 61T184 -1H170Q108 -1 108 70Q108 73 140 189T219 500T266 717Q266 775 220 775L157 767Q124 767 124 795Z" />
<glyph unicode="&#xee;" horiz-adv-x="560" d="M425 1444T462 1444T521 1404Q645 1174 645 1107Q645 1076 615 1076H608Q590 1076 514 1175L430 1284Q413 1284 365 1236T304 1177Q189 1080 167 1080T145 1099V1105Q145 1113 319 1319Q425 1444 462 1444ZM129 767T129
794T213 873T377 924H389Q447 924 447 854T376 506T304 184T342 138Q358 138 397 154T453 171T469 160V153Q469 113 359 56T181 -2T113 58V70Q113 82 142 183T220 489T270 717Q270 774 215 774L151 767Q129 767 129 794Z" />
<glyph unicode="&#xef;" horiz-adv-x="560" d="M230 1147Q198 1147 173 1172T148 1229V1250Q148 1287 178 1317T239 1348H261Q284 1348 312 1325T341 1260V1250L337 1226Q337 1206 309 1178T260 1150L242 1147H230ZM688 1245Q688 1245 686 1220Q686 1207 657 1178T600
1148H575Q542 1148 519 1177T495 1233V1249Q495 1280 523 1314T587 1349H609Q632 1349 660 1326T689 1267V1248L688 1245ZM125 803Q125 839 220 886T386 934Q443 934 443 864T372 516T300 194T338 148Q356 148 394 164T449 180T465 170V162Q465 127 359 68T184
8H171Q109 8 109 67V79Q109 99 127 157Q146 215 150 234Q154 254 157 264L180 350L187 379L191 393Q266 704 266 726Q266 784 220 784L157 776Q125 776 125 803Z" />
<glyph unicode="&#xf0;" horiz-adv-x="978" d="M396 68H427Q485 68 546 111T657 236Q763 409 763 602L762 613Q762 729 712 783T584 837H573Q514 837 454 800Q324 720 266 527Q236 427 236 352V310Q236 210 286 139T396 68ZM934 1421T934 1396T867 1316T799 1216Q799
1191 843 1097T908 909T930 674Q930 396 776 194Q711 109 609 49T407 -12H379Q242 -12 159 78T75 325V354Q75 446 120 553T241 738T401 854T598 893H647Q669 894 685 894Q723 894 723 965T689 1085T602 1134Q587 1134 536 1124L449 1107Q392 1107 392 1130T464
1199T537 1281T475 1377T413 1443Q413 1474 454 1474H475Q523 1474 604 1417T711 1360T808 1390T907 1421Z" />
<glyph unicode="&#xf1;" horiz-adv-x="1088" d="M591 1327H606Q650 1327 723 1283T841 1239T934 1282T990 1325Q1010 1325 1010 1301Q1010 1240 940 1182T805 1123H798Q752 1123 669 1167T546 1212T455 1170T403 1128Q383 1128 383 1151Q383 1202 452 1264T591
1327ZM304 904Q409 904 409 743Q409 660 411 660T490 740Q665 923 819 923H821Q960 923 960 758Q960 696 903 466T845 204Q845 136 899 136Q922 136 947 145T973 147T888 85T766 31Q680 31 680 145Q680 188 731 417T782 701Q782 819 694 819Q667 819 616 784Q411
642 317 212L300 128Q292 79 291 77Q274 27 237 27T174 58T149 136Q149 265 196 391T244 606Q244 645 205 681T166 731Q166 792 210 848T304 904Z" />
<glyph unicode="&#xf2;" horiz-adv-x="930" d="M592 860H562Q516 860 455 820T349 709Q245 539 245 378L243 358V306Q243 199 290 140T395 81H414Q464 81 522 121T625 234Q734 412 734 595V616Q734 716 703 775Q658 860 592 860ZM685 1096Q685 1072 657 1072H652Q624
1072 538 1183Q389 1375 389 1389V1403Q389 1449 457 1449L467 1451H477L482 1450Q522 1450 551 1403Q686 1187 686 1104L685 1100V1096ZM89 328V371Q89 457 127 567T235 758T394 892T569 944H612Q730 944 808 848T886 612V583L885 569Q885 479 848 371T738 178Q583
-4 392 -4H378Q250 -4 170 91T89 328Z" />
<glyph unicode="&#xf3;" horiz-adv-x="930" d="M572 865H552Q502 865 441 822T334 705Q233 540 233 342V321Q233 215 277 151T385 86H405Q446 86 503 119T604 221Q724 406 724 589V632Q724 736 681 800T572 865ZM586 1074H577Q547 1074 547 1095V1100Q547 1126
704 1328Q788 1436 823 1436H843Q914 1436 914 1395V1390L913 1385Q913 1350 758 1212T586 1074ZM79 333V376Q79 461 116 568Q194 794 390 900Q480 949 560 949H603Q720 949 798 853T876 631V574Q876 462 830 352Q737 131 542 38Q465 1 383 1H368Q236 1 158 99T79
333Z" />
<glyph unicode="&#xf4;" horiz-adv-x="930" d="M583 861H563Q518 861 456 821T350 710Q244 537 244 348V317Q244 221 285 152T396 82H416Q466 82 525 123T632 244Q733 409 733 565L735 585V628Q735 732 692 796T583 861ZM363 1110Q363 1117 503 1283T682 1449T743
1403Q864 1161 864 1121T834 1081H827Q809 1081 733 1180L649 1289Q648 1289 528 1187T385 1085T363 1104V1110ZM90 329V372Q90 458 127 564Q206 791 401 896Q491 945 571 945H614Q731 945 809 849T887 613V570Q887 460 840 348Q747 127 565 40Q475 -3 393 -3H379Q256
-3 173 89T90 329Z" />
<glyph unicode="&#xf5;" horiz-adv-x="930" d="M589 865H559Q509 865 448 824T346 714Q240 541 240 352V321Q240 219 283 153T392 86H412Q514 86 616 230Q666 300 697 404T728 559L731 589V621Q731 721 700 780Q655 865 589 865ZM516 1336H545Q582 1336 654 1293T773
1249T867 1292T922 1335Q941 1335 941 1311V1303Q941 1250 872 1192T744 1133H723Q685 1133 603 1177T481 1221T417 1202T371 1161T333 1138T315 1161V1168Q315 1211 383 1273T516 1336ZM86 333V376Q86 462 124 572T234 767Q390 950 595 950Q723 950 803 856T883
617V574Q883 464 836 352Q743 131 561 44Q471 1 389 1H375Q247 1 167 96T86 333Z" />
<glyph unicode="&#xf6;" horiz-adv-x="930" d="M590 872H560Q513 872 452 833T347 721Q241 548 241 359V328Q241 233 282 163T393 93H413Q469 93 526 137T629 255Q730 420 730 576L732 596V639Q732 739 691 805T590 872ZM356 1256L358 1272Q358 1300 390 1325T434
1351L453 1354H469Q491 1354 518 1333T545 1284L548 1266V1253Q548 1222 520 1188T456 1153H434Q406 1153 382 1177T357 1225L355 1241V1253L356 1256ZM905 1251L903 1230Q903 1220 878 1189T829 1157Q823 1155 820 1155L804 1153H798Q760 1153 736 1183T712 1242V1252L716
1276Q716 1298 744 1326T804 1355H826Q855 1355 880 1330T906 1273V1254L905 1251ZM87 340V383Q87 496 134 603Q237 837 422 919Q508 957 596 957Q724 957 804 863T884 624V581Q884 472 837 360Q744 139 562 51Q472 8 390 8H376Q253 8 170 100T87 340Z" />
<glyph unicode="&#xf7;" horiz-adv-x="1067" d="M579 791Q546 791 522 821T498 871V897Q501 909 501 922T529 964T570 993T588 995L604 997H608L640 992Q658 992 680 964T703 906V896L699 870Q699 851 671 823T619 794L602 791H579ZM238 523Q145 523 145 562L146
572V582Q146 626 211 633H606L749 635Q1013 635 1013 604V585Q1013 544 991 534T908 523H812L802 524H755L727 525H640L621 524H504L476 523H238ZM523 163T515 163T480 189T454 241V265Q454 301 486 333T549 365H576Q607 365 632 340T658 287L660 270V267L659 263Q659
221 628 190T551 159L548 160H538Q523 163 515 163Z" />
<glyph unicode="&#xf8;" horiz-adv-x="928" d="M242 363V320Q242 217 266 217Q278 217 413 393Q662 717 662 773V781Q662 814 639 837T584 860H576L568 859Q510 859 451 818T347 707Q242 544 242 363ZM368 86H382Q426 86 486 130Q615 227 700 496Q732 598 732
669V676Q732 729 721 729L600 541Q524 422 422 292T319 151V144Q319 86 368 86ZM637 943Q663 943 698 938Q734 938 781 967T862 997Q887 997 887 964V953Q887 949 876 926T856 880T846 826T859 733T872 578T827 370Q737 141 532 38Q456 0 353 0L276 6Q239 6 194
-24T116 -55Q89 -55 89 -14Q89 -8 113 44T137 109T121 196T105 364Q106 458 152 573Q243 796 428 894Q520 943 637 943Z" />
<glyph unicode="&#xf9;" horiz-adv-x="1083" d="M421 1388V1397Q421 1444 494 1444H515Q554 1444 586 1392Q718 1181 718 1098V1094Q718 1066 694 1066H680Q656 1066 539 1217T421 1388ZM706 309T698 309T655 265T576 171T449 65T294 8Q145 8 145 171Q145 225
200 455T256 737T217 789Q193 789 159 780T125 778Q125 796 208 848Q288 899 332 899Q333 899 334 899Q418 899 419 769Q419 718 370 513T320 236T338 141T389 118T492 166T630 322Q735 488 784 725Q809 841 811 847Q829 887 875 887Q881 887 899 856T918 698Q918
669 891 534T863 365T898 284T934 178T900 70T810 19T718 73Q696 105 696 156T701 258Z" />
<glyph unicode="&#xfa;" horiz-adv-x="1083" d="M618 1065H609Q579 1065 579 1086V1091Q579 1121 775 1373Q818 1428 865 1428L870 1427Q946 1427 946 1386V1381Q944 1371 944 1367Q944 1339 788 1202T618 1065ZM142 85T142 154T198 455T254 728Q254 791 195 791Q190
791 156 782T122 780Q122 798 205 849T332 901Q416 901 416 771Q416 723 367 517T318 216T372 120T494 172Q696 330 787 754Q806 842 808 849Q826 890 872 890Q875 890 884 878Q915 836 915 700Q915 671 888 536T860 367T895 286T931 180T897 72T807 21T715 75Q693
107 693 155T697 257T695 311T655 271T577 179T449 69T293 10T181 47Z" />
<glyph unicode="&#xfb;" horiz-adv-x="1083" d="M688 1447T727 1447T788 1401Q909 1142 909 1111T879 1079H872Q854 1079 778 1178L694 1287Q684 1287 573 1185T435 1083T408 1102V1108Q408 1116 582 1322Q688 1447 727 1447ZM145 172Q145 210 200 457T256 727Q256
790 198 790Q194 790 159 781T124 779Q124 796 208 848Q290 900 334 900Q418 900 419 770Q419 723 370 519T320 238Q320 119 376 119Q430 120 496 172Q692 329 784 726Q801 829 810 848Q828 888 875 888Q879 888 898 857T918 699Q918 670 891 535T863 366T898 284T933
180T900 72T810 20T718 74Q696 107 696 158T701 260T699 310T655 265T578 174T452 69T295 9T184 46T145 172Z" />
<glyph unicode="&#xfc;" horiz-adv-x="1083" d="M408 1250Q408 1250 410 1275Q410 1288 439 1317T498 1347H524Q543 1347 571 1324T600 1259V1250Q600 1208 571 1179T520 1149L502 1146H489Q458 1146 434 1170T409 1219L407 1234V1247L408 1250ZM957 1244L955
1219Q955 1206 926 1177T866 1147H844Q812 1147 788 1177T764 1236V1245L768 1270Q768 1284 794 1316T853 1348H882Q908 1348 933 1323T958 1266V1248L957 1244ZM143 94T143 165T198 466T254 748T214 801Q190 801 156 792T122 790Q122 806 203 858T330 911Q416
911 416 781Q416 729 367 527T318 250T336 153T386 130T486 176T624 330Q729 493 782 737Q807 856 808 858Q826 899 872 899Q878 899 896 868T915 709Q915 681 888 546T860 377T895 296T931 189T896 81T807 31T715 85Q693 117 693 165T697 267T697 321T618 235Q436
20 274 20Q219 20 181 57Z" />
<glyph unicode="&#xfd;" horiz-adv-x="955" d="M822 1435Q822 1435 843 1435Q914 1435 914 1394V1389Q914 1351 757 1212T581 1072Q547 1072 547 1094V1098Q547 1099 597 1174T664 1271T707 1331Q776 1435 822 1435ZM527 267Q576 267 673 458T771 738Q771 760
766 786L761 809L750 850Q750 877 760 889Q787 921 840 921H863Q895 921 916 899T937 853Q937 793 790 488T514 -9T198 -395Q139 -456 87 -456H60Q-29 -456 -29 -395Q-29 -343 84 -325Q167 -311 270 -187T374 71Q374 91 329 364T263 700T212 776T140 793H129Q137
794 158 810Q242 874 305 875Q305 875 306 875Q362 875 422 718Q458 626 484 447T527 267Z" />
<glyph unicode="&#xfe;" horiz-adv-x="994" d="M295 210V182Q295 137 332 111T419 85H449Q509 85 570 127T680 237Q792 396 792 568V609Q792 701 749 763T642 826H624Q570 826 513 780T422 667Q358 540 327 407T295 210ZM446 793Q453 793 481 809L506 824Q538
843 558 853Q625 886 722 886T878 810T937 621T897 400T785 206T620 75Q573 53 440 22T295 -17Q254 -46 226 -104T197 -243Q197 -262 220 -323T243 -394Q243 -446 186 -471Q152 -486 38 -486T-77 -436Q-77 -411 -44 -378T7 -312T43 -202T134 231T224 706T256 872T304
1079T337 1293L330 1314L318 1331Q292 1375 292 1399T328 1456T414 1490T482 1455T501 1298Q501 1251 461 1058T420 829T446 793Z" />
<glyph unicode="&#xff;" horiz-adv-x="954" d="M363 1279T363 1293T394 1333T457 1359H461L491 1354Q502 1354 525 1331T549 1277V1255Q549 1227 523 1194T472 1161Q466 1159 463 1159L448 1157H442L417 1161Q360 1161 360 1224L357 1239V1261Q363 1279 363 1293ZM815
1158H793Q772 1158 746 1179T719 1219L714 1244V1263Q717 1272 717 1287T744 1329T784 1357T800 1358L815 1360H822L846 1356Q864 1356 886 1329T908 1271V1262L907 1259V1255L903 1234Q903 1223 877 1191T815 1158ZM305 888Q362 888 423 731Q455 650 485 465T528
280Q577 280 674 471T772 751Q772 773 767 799L762 822L751 863Q751 899 780 916T841 933H863Q938 933 938 866Q938 834 875 690Q576 7 259 -320Q139 -443 87 -443H61Q-28 -443 -28 -382Q-28 -330 85 -312Q168 -298 271 -174T375 84Q375 104 330 381T264 712T219
786T131 806Q138 810 160 824Q260 888 305 888Z" />
<glyph unicode="&#x2013;" horiz-adv-x="1083" d="M985 567Q1023 567 1023 542V532Q1023 471 989 461Q979 458 545 458L525 457H485L464 456H404L373 457H263L243 456H223L183 454H162Q103 454 103 480V490Q103 555 145 562Q164 565 580 565L914 567H985Z" />
<glyph unicode="&#x2014;" horiz-adv-x="1792" d="M1730 545V530Q1730 458 1686 458H1652L1635 457H1188L1135 456H430L413 455H378L327 456H223L172 453H155Q103 453 103 489Q103 554 147 561Q166 564 939 564L1679 566H1696Q1730 566 1730 545Z" />
<glyph unicode="&#x2018;" horiz-adv-x="490" d="M341 968H327L319 969Q275 969 246 1001T216 1088V1124Q216 1216 293 1319Q400 1462 480 1462Q509 1462 509 1433V1427Q510 1413 474 1381Q372 1289 371 1215Q371 1185 411 1149T451 1074T418 1002T341 968Z" />
<glyph unicode="&#x2019;" horiz-adv-x="495" d="M523 1331V1295Q523 1202 437 1087Q387 1020 328 984T252 947H247Q222 947 222 976V981L308 1077Q364 1139 364 1198Q364 1226 328 1258T291 1336T329 1412T414 1443H422Q463 1443 493 1413T523 1331Z" />
<glyph unicode="&#x201a;" horiz-adv-x="498" d="M219 234H240Q289 234 313 196T337 108V94Q337 -9 261 -110Q212 -176 149 -218T66 -260H60Q37 -260 37 -231V-225Q37 -212 68 -186Q182 -92 182 -16Q182 17 142 49T102 126T140 203T219 234Z" />
<glyph unicode="&#x201c;" horiz-adv-x="841" d="M218 1087V1116Q218 1220 315 1338T479 1457Q511 1457 511 1430V1425Q512 1407 478 1377Q374 1284 374 1207Q374 1178 413 1144T452 1070T418 996T332 962L325 963Q269 963 244 999T218 1087ZM580 1105Q580 1105
582 1140Q582 1214 673 1335T837 1456H848Q873 1456 873 1429Q873 1405 842 1380Q736 1292 735 1203Q735 1179 774 1144T814 1066T778 993T711 963H683Q636 963 608 998T579 1098L580 1105Z" />
<glyph unicode="&#x201d;" horiz-adv-x="845" d="M396 1427H411L418 1426Q451 1426 480 1397T510 1313V1284Q510 1186 423 1070Q373 1003 315 968T238 932H233Q210 932 210 956V966Q210 981 247 1014T296 1062Q350 1128 350 1182Q350 1207 314 1243T278 1320T314
1394T396 1427ZM871 1313V1285Q871 1185 789 1076Q741 1011 681 971T600 931H594Q570 931 570 960V965Q570 982 600 1006Q713 1098 713 1182Q713 1209 677 1241T640 1319T677 1396T764 1427L771 1426Q815 1426 843 1395T871 1313Z" />
<glyph unicode="&#x201e;" horiz-adv-x="848" d="M26 -232V-222Q26 -209 58 -180T114 -125Q167 -66 167 -6Q167 12 131 53T94 133T130 206T220 239L228 238Q268 238 297 209T326 124V88Q326 -13 243 -114Q126 -257 54 -257H49Q26 -257 26 -232ZM686 68Q686 -16
587 -137T417 -258H412Q386 -258 386 -230V-224Q386 -208 416 -184Q530 -91 530 -8Q530 16 494 52T457 131T493 205T580 238L587 237Q633 237 661 206T689 104Q686 80 686 68Z" />
<glyph unicode="&#x2022;" horiz-adv-x="780" d="M658 596Q658 520 585 447T423 374H384Q311 374 246 433T180 573L178 588V612Q178 702 249 780T414 858H445Q531 858 595 794T660 635V619Q658 605 658 596Z" />
<glyph unicode="&#x2039;" horiz-adv-x="625" d="M541 858H548Q575 858 575 835V828Q575 801 439 656T303 486Q303 476 378 333T454 160T423 130H414Q402 130 263 301T124 485Q124 514 300 657Q363 709 443 783T541 858Z" />
<glyph unicode="&#x203a;" horiz-adv-x="627" d="M127 127Q96 127 96 152T232 334T369 507T295 658T221 828Q221 857 255 857Q274 857 410 687T547 498Q547 474 375 334Q309 281 227 204T127 127Z" />
</font>
</defs>
</svg>
