<?xml version="1.0" standalone="no"?>
<!DOCTYPE svg PUBLIC "-//W3C//DTD SVG 1.1//EN" "http://www.w3.org/Graphics/SVG/1.1/DTD/svg11.dtd">
<svg xmlns="http://www.w3.org/2000/svg">
<defs >
<font id="Martel" horiz-adv-x="599" ><font-face
    font-family="Martel UltraLight"
    units-per-em="1000"
    panose-1="0 0 3 0 0 0 0 0 0 0"
    ascent="1125"
    descent="-562"
    alphabetic="0" />
<glyph unicode=" " glyph-name="space" horiz-adv-x="244" />
<glyph unicode="!" glyph-name="exclam" horiz-adv-x="345" d="M188 222H143L121 869H214L188 222ZM199 90T211 77T223 44Q223 20 206 5T166 -11Q146 -11 132 2T117 36Q117 58 135 74T175 90Q199 90 211 77Z" />
<glyph unicode="&quot;" glyph-name="quotedbl" horiz-adv-x="615" d="M242 870L224 472H177L159 870H242ZM457 870L438 472H392L374 870H457Z" />
<glyph unicode="#" glyph-name="numbersign" horiz-adv-x="699" d="M73 178V226H185L205 453H84V500H208L222 662H284L271 500H456L470 662H532L518 500H625V453H515L495 226H608L609 178H493L477 0H417L431 178H246L228 0H167L183 178H73ZM452 453H268L248 226H433L452
453Z" />
<glyph unicode="$" glyph-name="dollar" horiz-adv-x="620" d="M121 177L144 77Q171 50 218 39T317 28Q388 28 440 63T492 173Q492 215 466 247T402 304T300 358Q234 390 191 417T119 484T90 575Q90 633 120 673T198 736T297 763L300 845H358L355 764Q461 759
515 726V596H481L453 693Q414 727 321 727Q282 727 245 713T182 666T157 586Q157 547 181 517T241 465T336 415Q407 381 452 354T529 286T560 192Q560 96 497 46T332 -10L328 -113H270L272 -10Q212 -6 159 6T85 31V177H121Z" />
<glyph unicode="%" glyph-name="percent" horiz-adv-x="864" d="M320 0H261L541 782H600L320 0ZM283 697T318 647T354 519Q354 462 331 421T270 359T187 338Q144 338 112 362T62 426T44 514Q44 572 67 613T129 676T213 697Q283 697 318 647ZM156 658T130 621T104
518Q104 455 128 416T197 377Q243 377 269 413T295 515Q295 581 271 619T202 658Q156 658 130 621ZM749 439T784 389T819 261Q819 205 797 164T737 102T655 80Q611 80 578 104T528 168T510 256Q510 314 533 355T595 418T679 439Q749 439 784 389ZM621 400T595 363T569
260Q569 198 593 159T662 120Q708 120 734 156T761 257Q761 323 737 361T667 400Q621 400 595 363Z" />
<glyph unicode="&amp;" glyph-name="ampersand" horiz-adv-x="766" d="M421 761T462 716T504 601Q504 530 458 469T341 369Q485 197 564 125Q589 172 589 240Q589 284 581 316T566 360H634Q653 310 653 254Q653 211 641 169T604 92Q639 65 667 53T727 40V7Q711
1 690 1Q682 1 662 3Q620 7 559 49Q523 18 467 1T359 -16Q299 -16 239 0T135 59T92 174Q92 245 136 288T256 370Q210 431 185 478T159 579Q159 635 183 676T248 739T340 761Q421 761 462 716ZM288 723T255 693T222 601Q222 557 237 520T270 457T316 399Q376 429
409 477T443 589Q443 641 418 682T332 723Q288 723 255 693ZM214 306T187 271T159 181Q159 134 187 100T261 48T363 30Q474 30 524 76Q386 201 279 340Q214 306 187 271Z" />
<glyph unicode="&apos;" glyph-name="quotesingle" horiz-adv-x="400" d="M242 870L224 472H177L159 870H242Z" />
<glyph unicode="(" glyph-name="parenleft" horiz-adv-x="397" d="M249 -121T197 -62T100 104T56 359Q56 488 100 593T201 763T290 847L323 827Q292 807 246 746T162 586T124 361Q124 228 161 126T245 -37T325 -120L287 -144Q249 -121 197 -62Z" />
<glyph unicode=")" glyph-name="parenright" horiz-adv-x="397" d="M105 -105T152 -44T236 119T273 347Q273 478 236 578T153 738T72 822L111 846Q149 822 201 763T297 597T341 344Q341 216 297 111T197 -60T108 -145L74 -125Q105 -105 152 -44Z" />
<glyph unicode="*" glyph-name="asterisk" horiz-adv-x="632" d="M301 605L267 574L117 461L80 514L247 606L290 624L246 643L80 733L116 786L264 676L301 643L292 700L280 872H347L335 700L324 643L370 681L511 785L552 733L385 646L334 624L384 604L552 513L510
462L364 572L325 605L334 553L347 375H280L292 553L301 605Z" />
<glyph unicode="+" glyph-name="plus" horiz-adv-x="614" d="M281 363L202 360H84V418H202L281 413L277 494V615H336V494L332 413L402 418H530V360H402L332 364L336 283V157H277V283L281 363Z" />
<glyph unicode="," glyph-name="comma" horiz-adv-x="342" d="M152 136Q201 124 227 79T253 -14Q254 -91 209 -149T103 -232L86 -210V-199Q109 -191 132 -168T170 -111T185 -43Q185 1 164 32T113 67V85L152 136Z" />
<glyph unicode="-" glyph-name="hyphen" horiz-adv-x="600" d="M516 417V363H84V417H516Z" />
<glyph unicode="." glyph-name="period" horiz-adv-x="345" d="M187 84T197 74T207 47Q207 23 192 9T155 -5Q140 -5 128 6T116 33Q116 55 132 69T167 84Q187 84 197 74Z" />
<glyph unicode="/" glyph-name="slash" horiz-adv-x="398" d="M351 781L82 -177H15L284 781H351Z" />
<glyph unicode="0" glyph-name="zero" horiz-adv-x="648" d="M467 611T525 530T584 312Q584 218 550 144T455 28T321 -14Q233 -14 175 29T91 145T64 306Q64 398 101 467T201 574T337 611Q467 611 525 530ZM234 570T187 502T140 312Q140 235 160 170T221 66T325
27Q419 27 464 99T510 300Q510 423 465 496T328 570Q234 570 187 502Z" />
<glyph unicode="1" glyph-name="one" horiz-adv-x="456" d="M208 43V530Q152 510 72 489L65 526Q108 540 172 571T254 617L280 610L279 43L419 33V0H60V33L208 43Z" />
<glyph unicode="2" glyph-name="two" horiz-adv-x="596" d="M214 119T312 227T410 429Q408 490 372 529T267 569Q221 569 169 545T86 490L68 520Q98 558 160 588T290 619Q353 619 396 596T461 534T483 452Q483 350 392 240T161 44L473 61L517 146L549 135L518
0H80L69 30Q214 119 312 227Z" />
<glyph unicode="3" glyph-name="three" horiz-adv-x="522" d="M319 621T372 581T425 461Q425 423 402 383T340 311T261 267Q361 271 414 225T467 104Q467 38 426 -23T311 -123T143 -162Q101 -162 62 -155V-114Q96 -120 127 -120Q204 -120 264 -90T358 -11T392
92Q392 160 353 198T230 237Q212 237 202 236L128 220V271Q195 281 246 307T324 369T351 443Q351 507 314 538T217 570Q162 570 126 553T54 508L33 542Q62 572 117 596T243 621Q319 621 372 581Z" />
<glyph unicode="4" glyph-name="four" horiz-adv-x="612" d="M111 169Q197 323 246 416T346 622H371L413 590Q388 538 209 228L125 79L103 43L386 55L388 304L452 322V58L567 63V0H452V-184H385L386 0H50L38 37L111 169Z" />
<glyph unicode="5" glyph-name="five" horiz-adv-x="527" d="M86 -131T107 -131Q177 -131 244 -98T352 -7T394 119Q394 206 347 248T223 291Q159 291 80 262L63 276L101 604H376L390 613H432L414 543H155L120 304Q186 335 257 335Q316 335 364 312T440 241T468
127Q468 57 421 -12T294 -126T119 -171Q89 -171 66 -165L67 -128Q86 -131 107 -131Z" />
<glyph unicode="6" glyph-name="six" horiz-adv-x="611" d="M498 717Q385 684 305 619T182 473T138 310Q136 234 154 170T214 68T320 29Q376 29 414 60T471 137T490 230Q490 292 472 335T423 401T355 423Q314 423 289 413T244 388L227 418Q242 438 284 455T372
473Q431 473 473 442T537 362T558 259Q558 194 528 132T441 30T309 -10Q234 -10 178 28T92 132T62 275Q62 394 124 496T283 664T482 749L498 717Z" />
<glyph unicode="7" glyph-name="seven" horiz-adv-x="604" d="M253 0T309 134T449 476Q459 501 468 522T484 562L147 553L107 449L69 453L93 612H529L544 594L267 -154L193 -128Q253 0 309 134Z" />
<glyph unicode="8" glyph-name="eight" horiz-adv-x="606" d="M376 758T422 737T494 678T520 590Q520 533 482 473T377 379Q462 333 507 292T552 191Q552 121 517 75T427 8T309 -14Q248 -14 192 7T99 73T63 182Q63 242 106 297T225 387Q166 424 134 467T101 573Q101
633 132 674T214 737T320 758Q376 758 422 737ZM271 721T236 703T180 654T159 585Q159 543 182 511T241 456T333 403Q362 410 391 436T440 499T459 571Q459 638 419 679T314 721Q271 721 236 703ZM209 343T170 297T131 199Q131 151 154 111T220 48T321 25Q368 25
406 44T467 95T489 167Q489 206 466 236T409 287T315 339Q298 347 264 365Q209 343 170 297Z" />
<glyph unicode="9" glyph-name="nine" horiz-adv-x="615" d="M230 -133T310 -56T431 117T473 298Q473 421 432 497T297 573Q241 573 203 542T146 464T127 373Q127 313 145 269T194 202T262 179Q298 179 328 190T374 214L391 184Q371 161 331 145T246 129Q187 129
145 160T82 240T60 343Q60 408 90 470T176 572T309 612Q385 612 438 573T519 469T547 327Q547 201 487 87T331 -103T134 -198L120 -165Q230 -133 310 -56Z" />
<glyph unicode=":" glyph-name="colon" horiz-adv-x="345" d="M190 478T198 468T207 443Q207 436 206 433Q203 414 189 403T156 391Q139 391 128 402T116 429Q116 435 117 438Q120 458 137 470T172 480Q190 478 198 468ZM187 84T197 74T207 47Q207 40 206 37Q203
16 187 5T150 -5Q135 -2 126 8T116 33Q116 39 117 42Q120 61 135 72T167 84Q187 84 197 74Z" />
<glyph unicode=";" glyph-name="semicolon" horiz-adv-x="345" d="M183 480T193 470T203 443Q203 419 188 405T151 391Q136 391 124 402T112 429Q112 451 128 465T163 480Q183 480 193 470ZM201 124T227 79T254 -14Q255 -91 209 -149T103 -232L86 -210V-199Q110
-191 133 -168T171 -111T186 -43Q186 0 164 31T113 67V85L153 136Q201 124 227 79Z" />
<glyph unicode="&lt;" glyph-name="less" horiz-adv-x="641" d="M541 643V576L131 367L541 159V91L67 342V392L541 643Z" />
<glyph unicode="=" glyph-name="equal" horiz-adv-x="600" d="M516 514V460H84V514H516ZM516 315V261H84V315H516Z" />
<glyph unicode="&gt;" glyph-name="greater" horiz-adv-x="641" d="M510 367L101 575V643L574 392V343L101 91V159L510 367Z" />
<glyph unicode="?" glyph-name="question" horiz-adv-x="494" d="M254 896T320 855T419 749T453 615Q453 578 445 561T405 523Q383 509 320 479Q266 454 240 437T214 396Q214 362 226 330T265 239H224Q210 251 191 281T159 345T145 406Q145 434 179 456T280 506Q318
522 339 532T376 554Q399 571 397 590Q397 655 363 710T271 798T146 831Q125 831 101 827T63 817V874Q70 882 98 889T155 896Q254 896 320 855ZM294 84T304 74T314 47Q314 23 299 9T262 -5Q247 -5 235 6T223 33Q223 55 239 69T274 84Q294 84 304 74Z" />
<glyph unicode="@" glyph-name="at" horiz-adv-x="1042" d="M687 702T763 665T884 559T928 396Q928 271 887 186T784 60T664 19Q643 19 631 45T619 120Q622 168 640 280Q603 170 544 91T425 12Q394 12 366 36T319 105T301 210Q301 276 328 347T406 467T524 515Q558
515 599 506T665 483Q669 496 673 502T686 507L729 493Q706 403 683 190Q679 159 679 126Q679 97 683 81T694 64Q731 64 773 104T845 214T875 369Q875 466 833 530T721 624T564 654Q459 654 369 603T224 454T170 225Q170 101 219 21T349 -97T527 -134Q579 -134
629 -122T710 -95L724 -127Q691 -152 628 -168T500 -185Q389 -185 302 -138T165 -2T115 202Q115 350 180 464T355 640T593 702Q687 702 763 665ZM470 460T434 428T379 345T360 237Q360 176 380 125T439 74Q475 74 520 132T601 273T650 424Q634 438 594 449T523
460Q470 460 434 428Z" />
<glyph unicode="A" glyph-name="A" horiz-adv-x="729" d="M72 44L335 762H394L649 44L730 33V0H492V33L574 44L512 222H197L136 44L221 33V0H1V33L72 44ZM392 566L356 680L212 267H497L392 566Z" />
<glyph unicode="B" glyph-name="B" horiz-adv-x="693" d="M139 45V714L54 721V758H171L231 761Q307 765 360 765Q475 765 536 720T598 594Q598 523 561 471T449 404Q503 404 548 382T620 320T647 224Q647 119 567 56T332 -7Q292 -7 226 -3Q195 0 172 0H52V33L139
45ZM230 418T294 418H356Q433 418 481 459T529 581Q529 654 478 689T345 724Q244 724 211 717L210 421Q230 418 294 418ZM228 44T272 40T349 35Q445 35 508 75T572 209Q572 373 372 373H306Q233 373 211 371V50Q228 44 272 40Z" />
<glyph unicode="C" glyph-name="C" horiz-adv-x="688" d="M484 765T522 758T609 738L639 730L632 596H592L574 684Q512 722 415 722Q337 722 269 682T159 563T117 380Q117 283 151 203T252 75T411 27Q470 27 516 42T585 81L606 164H640V31Q627 30 609 25T584 18Q541
4 497 -5T392 -14Q292 -14 212 33T87 165T42 357Q42 477 96 570T240 714T436 765Q484 765 522 758Z" />
<glyph unicode="D" glyph-name="D" horiz-adv-x="778" d="M140 45V713L54 721V758H175Q218 758 280 762Q295 763 320 764T366 765Q547 765 639 670T732 399Q732 275 684 184T548 44T347 -5Q324 -5 268 -3Q222 0 176 0H52V33L140 45ZM286 36T348 37Q434 39 504
76T615 190T657 379Q657 547 579 634T355 722Q275 722 212 713V49Q286 36 348 37Z" />
<glyph unicode="E" glyph-name="E" horiz-adv-x="644" d="M138 44V713L52 721V758H558L572 619H531L508 713L209 719V422L409 426L421 504H460V297H421L409 379L209 382V41L531 49L575 163L611 154L589 0H50V33L138 44Z" />
<glyph unicode="F" glyph-name="F" horiz-adv-x="604" d="M144 45V713L58 721V758H575L586 619L548 618L525 711L216 717V407L442 411L458 487H496V282H454L442 363L216 367V44L367 36V0H51V33L144 45Z" />
<glyph unicode="G" glyph-name="G" horiz-adv-x="750" d="M495 765T537 758T626 739L653 732L646 599H606L586 685Q569 699 524 710T418 722Q339 722 270 682T159 563T117 379Q117 286 148 206T243 77T401 27Q453 27 504 39T582 75V302L447 309V346H721V309L654
301V37Q638 36 591 22Q532 6 483 -4T382 -14Q283 -14 206 34T85 166T42 357Q42 478 95 571T237 714T434 765Q495 765 537 758Z" />
<glyph unicode="H" glyph-name="H" horiz-adv-x="833" d="M136 45V714L55 721V758H287V721L208 714V388H617V714L537 721V758H766V721L689 714V45L774 33V0H534V33L617 44V343H208V44L291 33V0H52V33L136 45Z" />
<glyph unicode="I" glyph-name="I" horiz-adv-x="373" d="M149 44V714L68 721V758H303V721L221 714V44L307 33V0H66V33L149 44Z" />
<glyph unicode="J" glyph-name="J" horiz-adv-x="352" d="M303 721L215 714V232V149Q215 62 207 17Q195 -39 161 -83T78 -155T-21 -189L-42 -160Q18 -144 60 -110T122 -29Q136 10 139 58T143 196V714L57 721V758H303V721Z" />
<glyph unicode="K" glyph-name="K" horiz-adv-x="693" d="M131 44V714L53 721V758H282V721L204 714V350L516 713L437 721V758H662V721L584 713L339 437Q367 408 465 257Q536 150 572 99T622 47L696 33V0H568Q556 0 526 44T438 182Q430 195 396 249T337 339T297
389L204 283V44L290 33V0H52V33L131 44Z" />
<glyph unicode="L" glyph-name="L" horiz-adv-x="607" d="M140 45V710L54 717V758H307V717L212 710L211 42L507 51L560 171L593 155L561 0H52V33L140 45Z" />
<glyph unicode="M" glyph-name="M" horiz-adv-x="965" d="M128 44L178 710L80 718V758H281L477 183L497 115L519 184L704 758H893V718L796 710L854 44L949 33V0H692V33L786 44L743 546L736 712L710 619L500 -7H475L272 566Q254 615 236 672L222 712L214 520L187
45L291 33V0H38V33L128 44Z" />
<glyph unicode="N" glyph-name="N" horiz-adv-x="812" d="M774 718L689 710V0H610L263 543L191 680L190 44L291 33V0H51V33L137 44V710L54 717V758H213L564 195L636 63V710L551 718V758H774V718Z" />
<glyph unicode="O" glyph-name="O" horiz-adv-x="759" d="M494 765T566 718T677 587T716 396Q716 269 670 176T546 35T372 -14Q274 -14 199 35T84 171T45 369Q48 492 95 581T222 718Q302 765 400 765Q494 765 566 718ZM309 724T250 682T158 560T125 369Q125 272
157 194T248 72T386 27Q461 27 518 71T606 196T638 386Q638 481 608 557T521 679T385 724Q309 724 250 682Z" />
<glyph unicode="P" glyph-name="P" horiz-adv-x="633" d="M140 45V710L53 717V758H175Q202 758 241 761Q307 765 349 765Q471 765 537 713T604 537Q604 461 565 405T461 320T323 290H255Q223 290 212 289V45L347 33V0H42V33L140 45ZM249 329T319 329Q416 331 473
379T531 536Q531 729 319 723L295 722Q237 720 212 713V334Q249 329 319 329Z" />
<glyph unicode="Q" glyph-name="Q" horiz-adv-x="759" d="M493 765T564 718T675 587T714 396Q714 284 678 199T580 62T438 -7Q455 -59 506 -85T620 -111Q645 -111 666 -106T701 -91L708 -139Q699 -153 668 -163T596 -173Q522 -173 469 -135T395 -14H377Q279 -16
204 31T86 163T44 359Q44 473 82 558T187 695Q231 729 285 747T398 765Q493 765 564 718ZM308 724T249 682T157 560T123 369Q123 272 155 195T246 72T385 27Q459 27 516 71T604 196T636 386Q636 481 606 557T519 679T384 724Q308 724 249 682Z" />
<glyph unicode="R" glyph-name="R" horiz-adv-x="693" d="M447 765T513 719T580 561Q580 485 533 428T408 348L411 347Q447 336 481 287T560 155Q592 98 608 72T638 44L697 33V0H572Q560 0 544 27T500 112Q465 183 440 227T383 304T320 335H212V44L318 33V0H42V33L140
45V710L53 717V758H177Q186 758 218 760Q293 765 327 765Q447 765 513 719ZM304 724T269 723T212 716V379Q236 377 268 376T325 375Q412 376 458 423T504 552Q504 640 459 684T313 724Q304 724 269 723Z" />
<glyph unicode="S" glyph-name="S" horiz-adv-x="600" d="M231 -11T165 3T75 31V177H111L134 77Q161 50 208 39T307 28Q379 28 430 63T482 173Q482 215 457 247T392 304T291 358Q225 390 182 417T109 484T80 575Q80 639 116 682T207 745T317 765Q384 765 431 754T505
726V596H472L443 693Q404 727 311 727Q272 727 235 713T172 666T147 586Q147 547 171 517T231 465T327 415Q398 381 443 354T519 286T550 192Q550 90 480 40T298 -11Q231 -11 165 3Z" />
<glyph unicode="T" glyph-name="T" horiz-adv-x="620" d="M282 45V717L79 709L49 611L15 610L27 758H608L607 608L576 604L556 709L354 717V45L489 33V0H154V33L282 45Z" />
<glyph unicode="U" glyph-name="U" horiz-adv-x="770" d="M739 721L663 713V324Q663 149 589 68T382 -14Q229 -14 160 66T91 316V714L16 721V758H249V721L164 713V313Q164 155 224 90T396 25Q503 25 554 101T606 324V713L522 721V758H739V721Z" />
<glyph unicode="V" glyph-name="V" horiz-adv-x="696" d="M2 721V758H250V721L153 714L343 165L372 73L397 166L564 714L483 721V758H697V721L627 714L388 -10H334L70 714L2 721Z" />
<glyph unicode="W" glyph-name="W" horiz-adv-x="1026" d="M2 721V758H246V721L149 714L321 167L350 76L377 163L494 625L468 714L387 721V758H637V721L544 714L692 161L715 73L738 173L881 714L792 721V758H1020V721L942 714L732 -10H674L521 527L375 -10H313L69
714L2 721Z" />
<glyph unicode="X" glyph-name="X" horiz-adv-x="693" d="M94 44L311 386L104 714L27 721V758H285V721L191 714L359 427L530 714L446 721V758H670V721L597 714L386 396L600 44L688 33V0H419V33L518 44L335 348L163 44L261 33V0H7V33L94 44Z" />
<glyph unicode="Y" glyph-name="Y" horiz-adv-x="660" d="M305 45V313L65 714L6 721V758H230V721L148 714L320 405L346 353L370 405L526 713L442 721V758H653V721L587 710L377 311V45L480 33V0H206V33L305 45Z" />
<glyph unicode="Z" glyph-name="Z" horiz-adv-x="660" d="M620 726L193 121L131 42L535 56L591 179L630 170L595 0H60L48 34L482 647L540 718L157 709L119 600L79 606L93 759H608L620 726Z" />
<glyph unicode="[" glyph-name="bracketleft" horiz-adv-x="417" d="M98 774T104 795T126 825T178 834Q227 834 301 818V786H159V-37L301 -38V-70Q228 -87 169 -87Q139 -87 124 -79T104 -49T98 13V727Q98 774 104 795Z" />
<glyph unicode="\" glyph-name="backslash" horiz-adv-x="398" d="M351 -177H284L15 781H82L351 -177Z" />
<glyph unicode="]" glyph-name="bracketright" horiz-adv-x="419" d="M259 786H117L116 818Q192 834 239 834Q274 834 290 826T313 796T319 727V13Q319 -28 314 -49T293 -78T248 -87Q189 -87 116 -70L117 -38L259 -37V786Z" />
<glyph unicode="^" glyph-name="asciicircum" horiz-adv-x="629" d="M350 748L545 275H479L311 673L143 275H84L277 748H350Z" />
<glyph unicode="_" glyph-name="underscore" horiz-adv-x="691" d="M701 -148H-10V-94H701V-148Z" />
<glyph unicode="`" glyph-name="grave" horiz-adv-x="432" d="M124 755T87 811L139 864L292 677L271 656Q124 755 87 811Z" />
<glyph unicode="a" glyph-name="a" horiz-adv-x="559" d="M361 556T412 517T464 377L463 35H527V8Q493 -8 443 -8Q413 -8 405 5T397 59Q336 -11 221 -11Q178 -11 141 7T80 59T57 140Q57 208 111 249T242 307T393 325V368Q393 445 357 475T249 506Q213 506 166
493T92 462L78 497Q111 524 171 540T273 556Q361 556 412 517ZM293 285T211 254T128 151Q127 93 162 65T257 37Q332 37 393 88V285Q293 285 211 254Z" />
<glyph unicode="b" glyph-name="b" horiz-adv-x="617" d="M21 745V778L158 792L175 784V498Q257 563 348 563Q407 563 456 536T535 448T565 295Q565 210 530 139T433 27T289 -14Q226 -14 171 -1T105 24V732L21 745ZM183 46T217 37T298 27Q350 27 395 56T467 143T495
284Q495 401 445 456T319 511Q279 511 240 496T175 458V65Q183 46 217 37Z" />
<glyph unicode="c" glyph-name="c" horiz-adv-x="513" d="M370 561T405 555T458 537V432H422L402 495Q372 517 311 517Q259 517 216 491T147 413T121 290Q121 205 148 149T218 67T313 41Q349 41 393 51T459 78L473 43Q445 18 394 4T285 -10Q212 -10 160 25T80
123T52 265Q52 355 89 422T190 525T332 561Q370 561 405 555Z" />
<glyph unicode="d" glyph-name="d" horiz-adv-x="620" d="M513 782V35H579V5Q564 -2 538 -6T490 -11Q461 -11 453 0T445 46Q420 24 375 6T268 -12Q209 -12 160 18T82 110T52 264Q52 349 89 417T191 524T332 563Q366 563 388 558T424 548T442 542V731L342 743V776L494
792L513 782ZM272 521T226 494T152 411T123 272Q123 197 146 145T208 66T295 40Q337 40 376 52T442 89V480Q426 497 401 509T324 521Q272 521 226 494Z" />
<glyph unicode="e" glyph-name="e" horiz-adv-x="559" d="M404 563T454 509T506 359Q508 319 501 280H122Q122 168 172 104T319 39Q364 39 410 50T478 77L493 43Q465 18 408 3T293 -12Q177 -12 114 64T50 271Q50 354 85 420T181 525T320 563Q404 563 454 509ZM230
522T182 471T124 324H432Q433 334 433 352Q433 471 366 507Q339 522 300 522Q230 522 182 471Z" />
<glyph unicode="f" glyph-name="f" horiz-adv-x="409" d="M158 42V486H47V516L158 537V588Q158 657 187 710T262 792T352 821Q403 821 422 813V750Q412 756 390 760T338 764Q289 764 259 733T229 616V537H388V486H229V41L346 33V0H58V33L158 42Z" />
<glyph unicode="g" glyph-name="g" horiz-adv-x="587" d="M380 567T430 531Q454 553 516 553H574V496L466 497Q498 452 498 386Q498 324 469 279T390 210T281 186Q223 186 178 204Q161 176 161 128Q161 94 177 80T235 63Q245 62 289 62H358Q442 62 485 40T540
-12T553 -80Q553 -135 521 -175T432 -237T300 -259Q196 -259 129 -226T62 -117Q62 -74 88 -37T146 20Q114 32 106 51T97 98Q97 119 112 155T155 215Q115 238 93 276T70 368Q70 432 102 477T186 544T299 567Q380 567 430 531ZM219 527T179 491T139 380Q139 311 178
269T293 227Q358 227 393 264T429 374Q429 527 281 527Q219 527 179 491ZM131 -29T131 -94Q131 -161 184 -188T310 -216Q393 -216 444 -187T496 -98Q496 -65 484 -44T439 -11T344 3H261Q210 3 175 11Q131 -29 131 -94Z" />
<glyph unicode="h" glyph-name="h" horiz-adv-x="686" d="M138 42V730L55 742V776L189 792L208 782V552L207 480Q249 513 308 535T408 558Q475 558 511 533T561 451T575 296V42L650 33V0H423V33L504 42V268Q504 358 495 407T458 479T377 503Q339 503 291 488T208
449V42L285 33V0H64V33L138 42Z" />
<glyph unicode="i" glyph-name="i" horiz-adv-x="333" d="M199 794T211 781T224 747Q224 723 207 707T166 691Q146 691 132 704T118 738Q118 762 135 778T175 794Q199 794 211 781ZM217 544V42L298 33V0H68V33L149 41V474L79 499V523L198 553L217 544Z" />
<glyph unicode="j" glyph-name="j" horiz-adv-x="317" d="M198 791T210 778T222 743Q222 719 205 704T165 688Q145 688 131 701T116 735Q116 759 134 775T174 791Q198 791 210 778ZM217 544V-8Q217 -123 173 -187T48 -251Q35 -251 17 -249T-5 -244V-193Q9 -198
49 -198Q99 -198 123 -155T148 -1V474L74 499V523L198 553L217 544Z" />
<glyph unicode="k" glyph-name="k" horiz-adv-x="622" d="M138 42V730L52 742V776L192 792L209 782V373L207 264L455 505L382 511V551H596V512L521 505L339 331L558 42L630 33V0H407V33L479 42L296 295L207 211L209 96V42L285 33V0H59V33L138 42Z" />
<glyph unicode="l" glyph-name="l" horiz-adv-x="341" d="M148 42V730L69 742V776L202 792L219 782V41L305 33V0H67V33L148 42Z" />
<glyph unicode="m" glyph-name="m" horiz-adv-x="1011" d="M137 42V473L65 499V524L182 553L199 544V477Q237 507 296 531T404 556Q457 557 489 541T538 488Q572 514 636 535T748 556Q805 556 838 533T885 460T900 323V42L982 33V0H760V33L830 42V311Q830 382
821 422T786 483T709 503Q672 503 629 490T550 455Q562 407 562 328V42L639 33V0H417V33L492 42V320Q492 389 484 427T451 483T379 502Q342 502 295 486T208 443V42L285 33V0H68V33L137 42Z" />
<glyph unicode="n" glyph-name="n" horiz-adv-x="682" d="M137 42V473L65 499V523L181 553L199 544V477Q237 507 302 532T416 558Q474 558 508 535T557 461T572 324V42L651 33V0H426V33L501 42V315Q501 384 491 424T455 484T384 503Q345 503 296 487T208 443V42L285
33V0H67V33L137 42Z" />
<glyph unicode="o" glyph-name="o" horiz-adv-x="601" d="M393 563T446 525T525 422T551 282Q550 197 517 130T426 26T297 -12Q213 -12 158 27T77 132T51 278Q51 363 86 428T182 528T312 563Q393 563 446 525ZM219 522T173 460T126 288Q126 175 171 103T307 31Q389
31 432 94T476 277Q476 386 433 454T301 522Q219 522 173 460Z" />
<glyph unicode="p" glyph-name="p" horiz-adv-x="646" d="M437 563T485 535T564 446T594 291Q594 207 559 138T461 29T318 -12Q253 -12 203 11L205 -127V-208L317 -217V-250H59V-217L134 -207V473L63 499V523L178 553L197 543V489Q227 519 275 541T379 563Q437
563 485 535ZM301 514T266 497T204 455L205 74Q217 54 248 42T323 28Q377 28 422 56T496 142T524 286Q524 399 475 456T351 514Q301 514 266 497Z" />
<glyph unicode="q" glyph-name="q" horiz-adv-x="606" d="M368 563T398 557T452 539L494 555L512 547V-205L583 -213V-250H332V-213L441 -204V-23L443 50Q367 -14 266 -14Q218 -14 170 9T86 94T51 265Q51 348 87 416T189 523T336 563Q368 563 398 557ZM271 522T225
494T150 408T121 266Q121 157 167 98T291 38Q345 38 382 53T441 90V482Q420 505 391 513T324 522Q271 522 225 494Z" />
<glyph unicode="r" glyph-name="r" horiz-adv-x="451" d="M138 42V473L66 499V523L181 553L200 544V476Q222 503 279 529T382 556Q419 556 431 553V478Q398 491 353 491Q311 491 274 478T208 447V42L356 33V0H52V33L138 42Z" />
<glyph unicode="s" glyph-name="s" horiz-adv-x="512" d="M113 136L128 70Q177 30 258 30Q316 30 352 55T388 130Q388 158 372 178T333 211T268 242Q250 249 237 255Q165 288 125 323T85 415Q85 464 114 497T188 546T281 563Q325 563 366 552T429 527V429H396L379
490Q363 506 337 515T279 524Q220 524 187 498T153 428Q153 399 170 379T210 347T290 308L312 298Q358 277 386 260T435 215T456 146Q456 70 399 29T248 -12Q203 -12 159 -2T78 30V136H113Z" />
<glyph unicode="t" glyph-name="t" horiz-adv-x="421" d="M202 545H385V498H202V204Q202 134 206 101T224 54T267 40Q298 40 330 50T378 72L390 37Q370 15 325 2T241 -12Q186 -12 160 20T133 125V498H55V527L81 532Q111 537 122 541T141 561Q147 573 155 614T165
677H202V545Z" />
<glyph unicode="u" glyph-name="u" horiz-adv-x="631" d="M54 506V536L159 556L174 547V211Q174 147 183 112T217 59T291 41Q340 41 385 63T453 107V492L392 502V534L509 556L523 547V35H584V5Q570 -1 546 -6T505 -12Q460 -12 460 25V69Q363 -10 263 -10Q191 -10
157 19T113 95T104 225V497L54 506Z" />
<glyph unicode="v" glyph-name="v" horiz-adv-x="580" d="M1 507V546H205V507L134 499L260 193L306 60L351 189L462 498L393 506V546H581V507L523 498L323 -12H272L54 499L1 507Z" />
<glyph unicode="w" glyph-name="w" horiz-adv-x="826" d="M1 506V546H207V506L130 498L242 138L261 60L278 138L391 546H453L567 138L588 56L608 135L704 499L637 506V546H825V507L762 498L615 -12H548L433 384L417 462L397 384L287 -12H226L58 499L1 506Z" />
<glyph unicode="x" glyph-name="x" horiz-adv-x="570" d="M82 42L250 266L77 499L2 506V546H236V506L160 500L295 301L320 340L429 500L358 506V546H561V506L488 499L319 273L493 42L567 33V0H332V33L410 41L306 191L273 236L251 199L143 41L232 33V0H9V33L82 42Z" />
<glyph unicode="y" glyph-name="y" horiz-adv-x="562" d="M90 -190T112 -190Q156 -192 202 -152T280 -12H267L62 499L1 506V546H221V506L140 499L265 157L309 33L342 149L450 500L370 506V546H572V506L511 500Q356 34 336 -16Q296 -120 254 -176T154 -247Q138
-251 112 -251Q101 -251 89 -249T73 -244V-184Q90 -190 112 -190Z" />
<glyph unicode="z" glyph-name="z" horiz-adv-x="526" d="M488 514L176 99L127 38L432 47L459 135L498 134L489 0H57L43 34L81 84L363 460L405 511L125 503L101 411H66L67 546H477L488 514Z" />
<glyph unicode="{" glyph-name="braceleft" horiz-adv-x="495" d="M169 298T126 321T44 356V403Q87 415 128 435T169 472V728Q169 774 175 796T198 826T250 835Q279 835 301 832T352 822L373 818L372 786H230V473Q230 444 204 426T115 379Q175 350 202 330T230
280V-37H372L373 -70Q331 -79 305 -83T243 -87Q211 -87 196 -79T175 -48T169 21V281Q169 298 126 321Z" />
<glyph unicode="|" glyph-name="bar" horiz-adv-x="426" d="M239 869V-91H175V869H239Z" />
<glyph unicode="}" glyph-name="braceright" horiz-adv-x="469" d="M239 280Q239 308 269 331T354 379Q308 401 287 412T252 438T239 473V786H97V818Q107 820 129 825T174 832T220 835Q255 835 271 827T294 796T300 728V472Q300 455 341 435T425 403V356Q386 345
343 322T300 281V21Q300 -25 294 -47T273 -78T226 -87Q191 -87 165 -83T97 -70V-37H239V280Z" />
<glyph unicode="~" glyph-name="asciitilde" horiz-adv-x="614" d="M99 460T140 485T232 511Q259 511 279 499T326 462Q349 441 365 431T400 421Q434 421 458 436T510 479L538 445Q514 408 472 382T379 356Q353 356 333 368T286 405Q263 426 247 436T211 447Q177
447 153 432T102 389L75 422Q99 460 140 485Z" />
<glyph unicode="&#xa0;" glyph-name="uni00A0" horiz-adv-x="244" />
<glyph unicode="&#xa1;" glyph-name="exclamdown" horiz-adv-x="348" d="M201 694T209 684T218 659Q218 652 217 648Q214 627 198 616T161 606Q146 609 137 619T127 646Q127 669 145 683T184 696Q201 694 209 684ZM213 -194H121L146 466H191L213 -194Z" />
<glyph unicode="&#xa2;" glyph-name="cent" horiz-adv-x="544" d="M161 8T112 83T63 268Q63 349 94 412T179 512T302 559L310 665H357L350 561Q386 560 419 554T468 537V432H432L412 495Q382 517 321 517Q269 517 226 491T157 413T131 291Q131 205 158 149T229
67T323 41Q359 41 403 51T470 78L483 43Q455 18 406 5T300 -10L294 -105H247L252 -7Q161 8 112 83Z" />
<glyph unicode="&#xa3;" glyph-name="sterling" horiz-adv-x="704" d="M489 763T520 754T578 722L542 655Q538 663 521 677T476 704T415 716Q358 716 321 665T284 483V427H457V373H284V330Q284 233 264 177T207 70Q237 69 302 49Q365 31 396 27Q421 23 447 23Q525
23 556 59T588 147Q588 174 577 196T544 233L577 296Q642 267 655 182Q657 166 657 157Q657 89 611 37T448 -16Q389 -18 341 -8T239 21Q206 31 193 34T168 36Q151 14 129 0T84 -15Q68 -15 56 -8T43 21Q43 37 58 51T101 74T160 81Q181 102 197 151T213 248V373H116V427H213V481Q213
560 242 623T324 724T446 762Q489 763 520 754Z" />
<glyph unicode="&#xa4;" glyph-name="currency" horiz-adv-x="701" d="M234 484Q285 522 347 522Q414 522 467 479L554 565L586 532L498 444Q533 395 533 337Q533 271 494 223L581 137L547 104L461 191Q411 152 347 152Q286 152 237 188L150 101L118 134L203 220Q162
269 162 337Q162 403 201 451L115 538L147 571L234 484ZM311 474T281 456T234 406T216 337Q216 300 233 269T281 219T347 200Q382 200 412 218T461 268T479 337Q479 374 461 405T413 455T347 474Q311 474 281 456Z" />
<glyph unicode="&#xa5;" glyph-name="yen" horiz-adv-x="687" d="M306 45V199H89V248H306V374H89V422H279L80 713L12 721V758H241V721L162 714L316 479L345 422H356L389 482Q399 499 466 608Q506 671 531 714L455 721V758H664V721L594 709L405 422H591V374H377V248H591V199H377V45L482
33V0H204V33L306 45Z" />
<glyph unicode="&#xa6;" glyph-name="brokenbar" horiz-adv-x="426" d="M239 869V433H175V869H239ZM239 346V-91H175V346H239Z" />
<glyph unicode="&#xa7;" glyph-name="section" horiz-adv-x="648" d="M406 858T454 847T529 819V688H496L467 786Q434 818 332 818Q296 818 259 804T195 757T168 673Q168 635 192 607T254 558T353 512Q423 482 465 459T536 399T566 311Q566 266 553 224T518 153Q559
109 559 53Q559 -43 488 -90T309 -138Q242 -138 177 -125T88 -96V50H122L146 -47Q177 -77 220 -87T318 -97Q388 -97 439 -67T491 31Q491 72 466 101T403 151T302 199Q233 229 192 252T122 310T93 396Q93 440 109 480T152 548Q101 597 101 660Q101 726 138 771T230
837T337 858Q406 858 454 847ZM178 496T170 468T161 410Q161 372 186 344T248 295T348 249Q435 214 474 188Q485 209 492 236T499 290Q499 331 474 360T413 410T312 459Q281 472 249 487T193 518Q178 496 170 468Z" />
<glyph unicode="&#xa8;" glyph-name="dieresis" horiz-adv-x="490" d="M105 696T92 708T78 741Q78 763 95 779T134 795Q158 795 170 782T183 749Q183 725 166 711T125 696Q105 696 92 708ZM328 696T314 708T300 741Q300 763 317 779T356 795Q380 795 392 782T405
749Q405 725 388 711T348 696Q328 696 314 708Z" />
<glyph unicode="&#xa9;" glyph-name="copyright" horiz-adv-x="992" d="M607 937T701 881T852 729T908 522Q908 411 852 316T702 164T496 107Q385 107 291 163T140 315T84 522Q84 634 140 729T290 880T496 937Q607 937 701 881ZM397 891T314 841T183 707T134 522Q134
423 182 338T314 203T496 153Q595 153 678 203T809 338T858 522Q858 622 810 706T678 841T496 891Q397 891 314 841ZM508 769T526 769Q568 769 605 761T653 739V645H609L590 708Q576 717 557 722T498 727Q455 726 421 701T369 632T350 535Q350 479 371 434T432
362T528 335Q562 335 597 348T647 375L658 345Q636 320 593 303T500 285Q395 285 339 349T282 518Q282 584 314 640T396 730T499 768Q508 769 526 769Z" />
<glyph unicode="&#xaa;" glyph-name="ordfeminine" horiz-adv-x="471" d="M281 778T315 767T368 724T388 631V398H430V370Q419 365 397 361T361 356Q338 356 332 367T326 412Q297 389 263 374T167 359Q141 359 112 371T64 410T44 475Q44 554 122 582T324 611V631Q324
673 311 695T273 724T208 732Q168 732 132 723T76 697L62 731Q83 750 132 764T228 778Q281 778 315 767ZM113 577T113 486Q113 451 134 427T193 403Q234 403 269 415T323 446V577Q113 577 113 486Z" />
<glyph unicode="&#xab;" glyph-name="guillemotleft" horiz-adv-x="926" d="M436 525L456 492L188 301L456 114L436 80L120 269V330L436 525ZM782 525L802 492L533 301L802 114L782 80L465 269V330L782 525Z" />
<glyph unicode="&#xac;" glyph-name="logicalnot" horiz-adv-x="596" d="M512 417V158H451V368H84V417H512Z" />
<glyph unicode="&#xad;" glyph-name="uni00AD" horiz-adv-x="600" d="M516 417V363H84V417H516Z" />
<glyph unicode="&#xae;" glyph-name="registered" horiz-adv-x="992" d="M607 937T701 881T852 729T908 522Q908 411 852 316T702 164T496 107Q385 107 291 163T140 315T84 522Q84 634 140 729T290 880T496 937Q607 937 701 881ZM397 891T314 841T183 707T134
522Q134 423 182 338T314 203T496 153Q595 153 678 203T809 338T858 522Q858 622 810 706T678 841T496 891Q397 891 314 841ZM591 763T633 732T677 646Q677 594 649 554T548 501Q574 486 591 464T630 404Q654 362 671 344T718 325V289H661Q629 289 611 312T572
381Q551 427 533 453T484 493Q475 493 461 493T425 493V333L479 322V290H310V322L359 334V712L310 723V759H386Q402 759 442 761L510 763Q591 763 633 732ZM496 724T475 724T425 718V532Q458 528 502 529Q550 529 579 558T609 628Q609 677 579 700T500 724Q496
724 475 724Z" />
<glyph unicode="&#xaf;" glyph-name="overscore" horiz-adv-x="444" d="M354 776V719H95V776H354Z" />
<glyph unicode="&#xb0;" glyph-name="degree" horiz-adv-x="331" d="M207 778T243 757T300 701T321 624Q321 582 300 547T243 490T165 469Q123 469 88 490T31 546T10 624Q10 665 31 700T87 757T165 778Q207 778 243 757ZM118 735T87 704T56 624Q56 578 88 545T166
512Q213 512 244 544T275 624Q275 670 244 702T166 735Q118 735 87 704Z" />
<glyph unicode="&#xb1;" glyph-name="plusminus" horiz-adv-x="614" d="M281 363L202 360H84V418H202L281 413L278 494V615H336V494L332 413L402 418H530V360H402L332 364L336 283V157H278V283L281 363ZM525 86V32H88V86H525Z" />
<glyph unicode="&#xb2;" glyph-name="uni00B2" horiz-adv-x="613" d="M190 454T293 537T396 688Q396 738 363 764T277 790Q230 790 179 766T98 701L70 734Q87 761 121 786T200 828T292 844Q355 844 396 825T456 775T476 713Q476 626 395 552T161 396L446 411L498
495L537 479L507 352H88L72 394Q190 454 293 537Z" />
<glyph unicode="&#xb3;" glyph-name="uni00B3" horiz-adv-x="559" d="M141 366T179 360T249 354Q324 355 365 387T407 471Q407 513 377 536T292 560Q278 560 270 559L188 542V588Q270 601 319 634T368 718Q368 754 341 771T270 789Q232 789 184 774T112 739L93
773Q123 797 179 817T292 837Q362 837 401 805T441 722Q441 679 411 645T323 593Q380 596 415 576T464 527T479 467Q479 420 451 384T372 328T252 307Q221 307 183 314T111 335V378Q141 366 179 360Z" />
<glyph unicode="&#xb4;" glyph-name="acute" horiz-adv-x="432" d="M283 864L335 811Q301 758 151 656L130 677L283 864Z" />
<glyph unicode="&#xb6;" glyph-name="paragraph" horiz-adv-x="657" d="M318 767T440 762L519 758H603V720L519 708V44L594 33V0H456L455 708L333 710V0H174V33L271 44V333Q58 333 58 554Q58 653 120 710T310 767Q318 767 440 762Z" />
<glyph unicode="&#xb7;" glyph-name="middot" horiz-adv-x="316" d="M190 457T198 447T207 421Q207 399 192 385T157 370Q140 370 128 381T116 408Q116 414 117 417Q120 436 137 448T172 459Q190 457 198 447Z" />
<glyph unicode="&#xb8;" glyph-name="cedilla" horiz-adv-x="300" d="M150 -24T150 -47L151 -62Q216 -59 250 -86T285 -154Q285 -201 250 -228T162 -257L139 -258Q109 -258 90 -253T65 -247L66 -208Q79 -212 99 -214T130 -217Q166 -217 190 -204T214 -154Q214
-123 191 -109T126 -94Q111 -94 96 -97Q96 -53 111 0H154Q150 -24 150 -47Z" />
<glyph unicode="&#xb9;" glyph-name="uni00B9" horiz-adv-x="530" d="M247 394V755Q153 719 104 707L96 746Q140 759 208 792T294 842L319 834L318 395L452 384V351H105V384L247 394Z" />
<glyph unicode="&#xba;" glyph-name="ordmasculine" horiz-adv-x="487" d="M340 778T390 723T441 570Q441 499 411 452T335 382T238 359Q184 359 141 383T73 453T48 562Q48 633 77 682T153 754T250 778Q340 778 390 723ZM184 739T152 695T119 574Q119 493 152
446T239 398Q305 398 337 436T370 558Q370 643 339 691T246 739Q184 739 152 695Z" />
<glyph unicode="&#xbb;" glyph-name="guillemotright" horiz-adv-x="926" d="M393 303L125 490L145 525L461 336V274L145 80L125 112L393 303ZM471 490L491 525L807 336V274L491 80L471 112L739 303L471 490Z" />
<glyph unicode="&#xbc;" glyph-name="onequarter" horiz-adv-x="1282" d="M799 904L445 -167L395 -153L750 918L799 904ZM262 394V755Q170 720 118 707L111 746Q155 759 223 792T309 842L333 834V395L467 384V351H120V384L262 394ZM980 545L1020 509L765 163L742
130L976 143L977 285L1042 294V146L1179 154L1181 91H1042V-88H975L976 91H696L677 127L954 544L980 545Z" />
<glyph unicode="&#xbd;" glyph-name="onehalf" horiz-adv-x="1282" d="M791 906L437 -167L387 -157L743 918L791 906ZM262 394V755Q170 720 118 707L111 746Q155 759 223 792T309 842L333 834V395L467 384V351H120V384L262 394ZM825 102T928 185T1032 335Q1032
385 999 411T912 438Q865 438 814 413T733 349L705 382Q722 409 756 434T835 476T927 492Q991 492 1032 472T1092 421T1111 357Q1110 272 1029 198T797 44L1081 59L1133 143L1171 127L1142 0H723L707 42Q825 102 928 185Z" />
<glyph unicode="&#xbe;" glyph-name="threequarters" horiz-adv-x="1309" d="M802 906L448 -167L398 -157L754 918L802 906ZM141 366T179 360T249 354Q324 355 365 387T407 471Q407 513 377 536T292 560Q278 560 270 559L188 542V588Q270 601 319 634T368 718Q368
754 341 771T270 789Q232 789 184 774T112 739L93 773Q123 797 179 817T292 837Q362 837 401 805T441 722Q441 679 411 645T323 593Q380 596 415 576T464 527T479 467Q479 420 451 384T372 328T252 307Q221 307 183 314T111 335V378Q141 366 179 360ZM980 545L1019
509L765 163L741 130L976 143L977 285L1042 294V146L1179 154L1180 91H1042V-88H975L976 91H696L677 127L953 544L980 545Z" />
<glyph unicode="&#xbf;" glyph-name="questiondown" horiz-adv-x="493" d="M250 696T260 686T270 659Q270 635 255 621T218 607Q203 607 191 618T179 645Q179 667 195 681T230 696Q250 696 260 686ZM271 452Q285 440 304 410T336 346T350 285Q350 257 316 235T215
185Q177 169 156 159T119 137Q96 120 98 101Q98 36 132 -19T224 -107T349 -140Q370 -140 394 -136T432 -126V-183Q425 -191 397 -198T340 -205Q241 -205 175 -164T76 -58T42 76Q42 113 50 130T90 168Q112 182 175 212Q229 237 255 254T281 295Q281 329 269 361T230
452H271Z" />
<glyph unicode="&#xc0;" glyph-name="Agrave" horiz-adv-x="729" d="M321 803T273 830T189 884L242 938L386 806L366 785Q321 803 273 830ZM72 44L335 762H394L649 44L730 33V0H492V33L574 44L512 222H197L136 44L221 33V0H1V33L72 44ZM392 566L356 680L212 267H497L392
566Z" />
<glyph unicode="&#xc1;" glyph-name="Aacute" horiz-adv-x="729" d="M485 938L538 884Q503 857 455 830T361 785L341 806L485 938ZM72 44L335 762H394L649 44L730 33V0H492V33L574 44L512 222H197L136 44L221 33V0H1V33L72 44ZM392 566L356 680L212 267H497L392 566Z" />
<glyph unicode="&#xc2;" glyph-name="Acircumflex" horiz-adv-x="729" d="M329 938H400L531 809L497 790L364 887L228 790L197 808L329 938ZM72 44L335 762H394L649 44L730 33V0H492V33L574 44L512 222H197L136 44L221 33V0H1V33L72 44ZM392 566L356 680L212 267H497L392
566Z" />
<glyph unicode="&#xc3;" glyph-name="Atilde" horiz-adv-x="729" d="M190 892T226 915T300 938Q322 938 339 928T377 899Q398 882 409 875T436 867Q487 867 529 915L550 885Q530 852 495 830T421 807Q399 807 383 817T345 846Q326 863 314 871T285 879Q237 879
191 831L171 859Q190 892 226 915ZM72 44L335 762H394L649 44L730 33V0H492V33L574 44L512 222H197L136 44L221 33V0H1V33L72 44ZM392 566L356 680L212 267H497L392 566Z" />
<glyph unicode="&#xc4;" glyph-name="Adieresis" horiz-adv-x="729" d="M280 926T292 913T304 880Q304 856 287 841T247 825Q227 825 213 838T199 872Q199 894 217 910T256 926Q280 926 292 913ZM503 926T515 913T527 879Q527 856 510 841T470 825Q450 825 436
837T422 871Q422 893 440 909T479 926Q503 926 515 913ZM649 44L730 33V0H492V33L574 44L512 222H197L136 44L221 33V0H1V33L72 44L335 762H394L649 44ZM212 267H497L392 566L356 680L212 267Z" />
<glyph unicode="&#xc5;" glyph-name="Aring" horiz-adv-x="729" d="M415 938T450 908T486 830Q486 794 464 767T406 729L649 44L730 33V0H492V33L574 44L512 222H197L136 44L221 33V0H1V33L72 44L322 728Q285 740 263 767T240 830Q240 876 276 907T363 938Q415
938 450 908ZM331 896T309 877T286 830Q286 801 308 782T363 763Q395 763 417 781T440 829Q440 858 418 877T363 896Q331 896 309 877ZM212 267H497L392 566L356 680L212 267Z" />
<glyph unicode="&#xc6;" glyph-name="AE" horiz-adv-x="947" d="M68 44L356 758H817L832 619L793 618L771 713L442 718L532 420L746 423L758 503H794V298H758L746 377L544 379L647 42L827 48L871 158L904 142L882 0H480V33L567 44L509 234H204L131 44L221 33V0H1V33L68
44ZM395 600L376 686L220 278H495L395 600Z" />
<glyph unicode="&#xc7;" glyph-name="Ccedilla" horiz-adv-x="688" d="M484 765T522 758T609 738L639 730L632 596H592L574 684Q512 722 415 722Q337 722 269 682T159 563T117 380Q117 283 151 203T252 75T411 27Q470 27 516 42T585 81L606 164H640V31Q620 30
585 18Q541 5 503 -3T411 -13Q409 -31 409 -42L410 -62Q474 -59 509 -86T544 -154Q544 -201 509 -228T420 -257L397 -258Q368 -258 349 -253T324 -247L325 -208Q338 -212 358 -214T389 -217Q425 -217 449 -204T473 -154Q473 -123 450 -109T385 -94Q370 -94 355
-97Q355 -53 366 -13Q273 -7 199 42T84 173T42 357Q42 477 96 570T240 714T436 765Q484 765 522 758Z" />
<glyph unicode="&#xc8;" glyph-name="Egrave" horiz-adv-x="644" d="M309 803T261 830T178 884L229 938L374 806L354 785Q309 803 261 830ZM138 44V713L52 721V758H558L572 619H531L508 713L209 719V422L409 426L421 504H460V297H421L409 379L209 382V41L531 49L575
163L611 154L589 0H50V33L138 44Z" />
<glyph unicode="&#xc9;" glyph-name="Eacute" horiz-adv-x="644" d="M473 938L525 884Q491 857 443 830T350 785L329 806L473 938ZM138 44V713L52 721V758H558L572 619H531L508 713L209 719V422L409 426L421 504H460V297H421L409 379L209 382V41L531 49L575 163L611
154L589 0H50V33L138 44Z" />
<glyph unicode="&#xca;" glyph-name="Ecircumflex" horiz-adv-x="644" d="M316 938H388L520 809L485 790L352 887L216 790L185 808L316 938ZM138 44V713L52 721V758H558L572 619H531L508 713L209 719V422L409 426L421 504H460V297H421L409 379L209 382V41L531
49L575 163L611 154L589 0H50V33L138 44Z" />
<glyph unicode="&#xcb;" glyph-name="Edieresis" horiz-adv-x="644" d="M268 926T280 913T292 880Q292 856 275 841T235 825Q215 825 201 838T187 872Q187 895 204 910T244 926Q268 926 280 913ZM491 926T503 913T516 879Q516 856 499 841T458 825Q438 825 424
837T410 871Q410 894 427 910T467 926Q491 926 503 913ZM572 619H531L508 713L209 719V422L409 426L421 504H460V297H421L409 379L209 382V41L531 49L575 163L611 154L589 0H50V33L138 44V713L52 721V758H558L572 619Z" />
<glyph unicode="&#xcc;" glyph-name="Igrave" horiz-adv-x="373" d="M143 803T95 830T12 884L64 938L208 806L188 785Q143 803 95 830ZM149 44V714L68 721V758H303V721L221 714V44L307 33V0H66V33L149 44Z" />
<glyph unicode="&#xcd;" glyph-name="Iacute" horiz-adv-x="373" d="M308 938L360 884Q325 857 277 830T184 785L163 806L308 938ZM149 44V714L68 721V758H303V721L221 714V44L307 33V0H66V33L149 44Z" />
<glyph unicode="&#xce;" glyph-name="Icircumflex" horiz-adv-x="373" d="M151 938H222L354 809L320 790L187 887L50 790L20 808L151 938ZM149 44V714L68 721V758H303V721L221 714V44L307 33V0H66V33L149 44Z" />
<glyph unicode="&#xcf;" glyph-name="Idieresis" horiz-adv-x="373" d="M102 926T114 913T127 880Q127 856 110 841T69 825Q49 825 35 838T21 872Q21 894 39 910T78 926Q102 926 114 913ZM326 926T338 913T350 879Q350 856 333 841T292 825Q273 825 259 837T244
871Q244 894 262 910T302 926Q326 926 338 913ZM303 721L221 714V44L307 33V0H66V33L149 44V714L68 721V758H303V721Z" />
<glyph unicode="&#xd0;" glyph-name="Eth" horiz-adv-x="778" d="M140 45V371H47V425H140V713L54 721V758H175Q218 758 280 762Q295 763 320 764T366 765Q547 765 639 670T732 399Q732 275 684 184T548 44T347 -5Q324 -5 268 -3Q222 0 176 0H52V33L140 45ZM286
36T348 37Q434 39 504 76T615 190T657 379Q657 547 579 634T355 722Q275 722 212 713V425H345V371H212V49Q286 36 348 37Z" />
<glyph unicode="&#xd1;" glyph-name="Ntilde" horiz-adv-x="812" d="M774 718L689 710V0H610L263 543L191 680L190 44L291 33V0H51V33L137 44V710L54 717V758H213L564 195L636 63V710L551 718V758H774V718ZM235 892T271 915T345 938Q367 938 384 928T422 899Q442
882 454 875T481 867Q532 867 574 915L595 885Q575 852 540 830T466 807Q444 807 428 817T390 846Q371 863 359 871T330 879Q282 879 236 831L216 859Q235 892 271 915Z" />
<glyph unicode="&#xd2;" glyph-name="Ograve" horiz-adv-x="759" d="M494 765T566 718T677 587T716 396Q716 269 670 176T546 35T372 -14Q274 -14 199 35T84 171T45 369Q48 492 95 581T222 718Q302 765 400 765Q494 765 566 718ZM309 724T250 682T158 560T125
369Q125 272 157 194T248 72T386 27Q461 27 518 71T606 196T638 386Q638 481 608 557T521 679T385 724Q309 724 250 682ZM345 803T297 830T214 884L266 938L410 806L390 785Q345 803 297 830Z" />
<glyph unicode="&#xd3;" glyph-name="Oacute" horiz-adv-x="759" d="M562 884Q528 858 480 831T386 785L365 806L510 938L562 884ZM494 765T566 718T677 587T716 396Q716 269 670 176T546 35T372 -14Q274 -14 199 35T84 171T45 369Q48 494 96 583T224 719T400
765Q494 765 566 718ZM309 724T250 682T158 560T125 369Q125 272 157 194T248 72T386 27Q461 27 518 71T606 196T638 386Q638 481 608 557T521 679T385 724Q309 724 250 682Z" />
<glyph unicode="&#xd4;" glyph-name="Ocircumflex" horiz-adv-x="759" d="M556 809L521 790L388 887L252 790L222 808L353 938H424L556 809ZM494 765T566 718T677 587T716 396Q716 269 670 176T546 35T372 -14Q274 -14 199 35T84 171T45 369Q48 494 96 583T224
719T400 765Q494 765 566 718ZM309 724T250 682T158 560T125 369Q125 272 157 194T248 72T386 27Q461 27 518 71T606 196T638 386Q638 481 608 557T521 679T385 724Q309 724 250 682Z" />
<glyph unicode="&#xd5;" glyph-name="Otilde" horiz-adv-x="759" d="M494 765T566 718T677 587T716 396Q716 269 670 176T546 35T372 -14Q274 -14 199 35T84 171T45 369Q48 492 95 581T222 718Q302 765 400 765Q494 765 566 718ZM309 724T250 682T158 560T125
369Q125 272 157 194T248 72T386 27Q461 27 518 71T606 196T638 386Q638 481 608 557T521 679T385 724Q309 724 250 682ZM214 892T250 915T324 938Q346 938 363 928T401 899Q421 882 433 875T460 867Q511 867 553 915L574 885Q554 852 519 830T445 807Q423 807
407 817T369 846Q350 863 338 871T309 879Q261 879 215 831L195 859Q214 892 250 915Z" />
<glyph unicode="&#xd6;" glyph-name="Odieresis" horiz-adv-x="759" d="M494 765T566 718T677 587T716 396Q716 269 670 176T546 35T372 -14Q274 -14 199 35T84 171T45 369Q48 492 95 581T222 718Q302 765 400 765Q494 765 566 718ZM309 724T250 682T158 560T125
369Q125 272 157 194T248 72T386 27Q461 27 518 71T606 196T638 386Q638 481 608 557T521 679T385 724Q309 724 250 682ZM304 926T316 913T329 880Q329 856 312 841T271 825Q252 825 238 838T223 872Q223 894 241 910T280 926Q304 926 316 913ZM528 926T540 913T552
879Q552 856 535 841T495 825Q475 825 461 837T446 871Q446 894 464 910T504 926Q528 926 540 913Z" />
<glyph unicode="&#xd7;" glyph-name="multiply" horiz-adv-x="606" d="M266 389L93 555L137 602L302 426L469 602L513 555L340 389L513 223L469 176L302 352L137 176L93 223L266 389Z" />
<glyph unicode="&#xd8;" glyph-name="Oslash" horiz-adv-x="759" d="M154 48T100 140T45 359Q45 486 92 577T218 715T393 765Q451 765 505 748L532 825L565 812L538 733Q622 692 669 603T716 396Q716 270 671 178T550 37T379 -14Q328 -14 283 -2L252 -94L217 -81L248
9Q154 48 100 140ZM441 724T385 724Q309 724 250 682T158 560T125 369Q125 264 162 182T267 59L487 700Q441 724 385 724ZM340 27T386 27Q461 27 518 71T606 196T638 386Q638 482 607 560T519 681L301 42Q340 27 386 27Z" />
<glyph unicode="&#xd9;" glyph-name="Ugrave" horiz-adv-x="770" d="M739 721L663 713V324Q663 149 589 68T382 -14Q229 -14 160 66T91 316V714L16 721V758H249V721L164 713V313Q164 155 224 90T396 25Q503 25 554 101T606 324V713L522 721V758H739V721ZM345 803T297
830T214 884L266 938L410 806L390 785Q345 803 297 830Z" />
<glyph unicode="&#xda;" glyph-name="Uacute" horiz-adv-x="770" d="M739 721L663 713V324Q663 149 589 68T382 -14Q229 -14 160 66T91 316V714L16 721V758H249V721L164 713V313Q164 155 224 90T396 25Q503 25 554 101T606 324V713L522 721V758H739V721ZM511 938L562
884Q528 857 480 830T387 785L366 806L511 938Z" />
<glyph unicode="&#xdb;" glyph-name="Ucircumflex" horiz-adv-x="770" d="M556 809L522 790L389 887L252 790L222 808L353 938H424L556 809ZM739 721L663 713V324Q663 149 589 68T382 -14Q229 -14 160 66T91 316V714L16 721V758H249V721L164 713V313Q164 155 224
90T396 25Q503 25 554 101T606 324V713L522 721V758H739V721Z" />
<glyph unicode="&#xdc;" glyph-name="Udieresis" horiz-adv-x="770" d="M739 721L663 713V324Q663 149 589 68T382 -14Q229 -14 160 66T91 316V714L16 721V758H249V721L164 713V313Q164 155 224 90T396 25Q503 25 554 101T606 324V713L522 721V758H739V721ZM304
926T316 913T329 880Q329 856 312 841T271 825Q252 825 238 838T223 872Q223 894 241 910T280 926Q304 926 316 913ZM528 926T540 913T552 879Q552 856 535 841T495 825Q475 825 461 837T446 871Q446 894 464 910T504 926Q528 926 540 913Z" />
<glyph unicode="&#xdd;" glyph-name="Yacute" horiz-adv-x="660" d="M305 45V313L65 714L6 721V758H230V721L148 714L320 405L346 353L370 405L526 713L442 721V758H653V721L587 710L377 311V45L480 33V0H206V33L305 45ZM465 938L516 884Q482 857 434 830T341
785L320 806L465 938Z" />
<glyph unicode="&#xde;" glyph-name="Thorn" horiz-adv-x="633" d="M140 45V714L60 721V758H295V721L212 714V599L248 603Q315 612 345 612Q464 612 534 560T604 398Q604 323 565 269T463 187T326 159Q284 159 244 161Q231 162 212 162V45L347 33V0H42V33L140
45ZM255 197T319 197Q414 199 472 246T531 397Q531 480 480 525T330 570Q306 570 271 566T212 555V204Q255 197 319 197Z" />
<glyph unicode="&#xdf;" glyph-name="germandbls" horiz-adv-x="651" d="M109 45V426Q109 540 145 617T242 732T374 770Q437 770 481 738T526 629Q526 587 513 559T472 494Q450 465 439 444T428 394Q428 363 450 344T517 302Q556 281 580 264T621 219T639 151Q639
70 582 30T437 -10Q368 -10 329 -1V64Q351 53 384 43T443 33Q500 33 536 57T572 137Q572 165 558 185T523 219T467 252Q414 280 388 304T361 367Q361 390 372 413T407 471Q434 510 448 540T462 604Q462 658 435 691T355 725Q269 725 225 657T180 426V0H33V33L109
45Z" />
<glyph unicode="&#xe0;" glyph-name="agrave" horiz-adv-x="559" d="M361 556T412 517T464 377L463 35H527V8Q493 -8 443 -8Q413 -8 405 5T397 59Q336 -11 221 -11Q178 -11 141 7T80 59T57 140Q57 208 111 249T242 307T393 325V368Q393 445 357 475T249 506Q213
506 166 493T92 462L78 497Q111 524 171 540T273 556Q361 556 412 517ZM293 285T211 254T128 151Q127 93 162 65T257 37Q332 37 393 88V285Q293 285 211 254ZM182 755T145 811L197 864L350 677L329 656Q182 755 145 811Z" />
<glyph unicode="&#xe1;" glyph-name="aacute" horiz-adv-x="559" d="M361 556T412 517T464 377L463 35H527V8Q493 -8 443 -8Q413 -8 405 5T397 59Q336 -11 221 -11Q178 -11 141 7T80 59T57 140Q57 208 111 249T242 307T393 325V368Q393 445 357 475T249 506Q213
506 166 493T92 462L78 497Q111 524 171 540T273 556Q361 556 412 517ZM293 285T211 254T128 151Q127 93 162 65T257 37Q332 37 393 88V285Q293 285 211 254ZM375 864L427 811Q393 758 243 656L222 677L375 864Z" />
<glyph unicode="&#xe2;" glyph-name="acircumflex" horiz-adv-x="559" d="M361 556T412 517T464 377L463 35H527V8Q493 -8 443 -8Q413 -8 405 5T397 59Q336 -11 221 -11Q178 -11 141 7T80 59T57 140Q57 208 111 249T242 307T393 325V368Q393 445 357 475T249 506Q213
506 166 493T92 462L78 497Q111 524 171 540T273 556Q361 556 412 517ZM293 285T211 254T128 151Q127 93 162 65T257 37Q332 37 393 88V285Q293 285 211 254ZM245 865H314L448 671L415 653L279 802L138 653L108 670L245 865Z" />
<glyph unicode="&#xe3;" glyph-name="atilde" horiz-adv-x="559" d="M361 556T412 517T464 377L463 35H527V8Q493 -8 443 -8Q413 -8 405 5T397 59Q336 -11 221 -11Q178 -11 141 7T80 59T57 140Q57 208 111 249T242 307T393 325V368Q393 445 357 475T249 506Q213
506 166 493T92 462L78 497Q111 524 171 540T273 556Q361 556 412 517ZM293 285T211 254T128 151Q127 93 162 65T257 37Q332 37 393 88V285Q293 285 211 254ZM106 765T142 788T216 812Q238 812 254 802T293 772Q311 755 324 747T352 738Q379 738 401 752T445 790L466
761Q446 728 410 705T337 681Q315 681 299 691T261 721Q241 739 229 747T201 755Q173 755 151 741T107 703L87 731Q106 765 142 788Z" />
<glyph unicode="&#xe4;" glyph-name="adieresis" horiz-adv-x="559" d="M361 556T412 517T464 377L463 35H527V8Q493 -8 443 -8Q413 -8 405 5T397 59Q336 -11 221 -11Q178 -11 141 7T80 59T57 140Q57 208 111 249T242 307T393 325V368Q393 445 357 475T249 506Q213
506 166 493T92 462L78 497Q111 524 171 540T273 556Q361 556 412 517ZM293 285T211 254T128 151Q127 93 162 65T257 37Q332 37 393 88V285Q293 285 211 254ZM142 696T129 708T115 741Q115 763 132 779T171 795Q195 795 207 782T220 749Q220 725 203 711T162 696Q142
696 129 708ZM365 696T351 708T337 741Q337 763 354 779T393 795Q417 795 429 782T442 749Q442 725 425 711T385 696Q365 696 351 708Z" />
<glyph unicode="&#xe5;" glyph-name="aring" horiz-adv-x="559" d="M361 556T412 517T464 377L463 35H527V8Q493 -8 443 -8Q413 -8 405 5T397 59Q336 -11 221 -11Q178 -11 141 7T80 59T57 140Q57 208 111 249T242 307T393 325V368Q393 445 357 475T249 506Q213
506 166 493T92 462L78 497Q111 524 171 540T273 556Q361 556 412 517ZM293 285T211 254T128 151Q127 93 162 65T257 37Q332 37 393 88V285Q293 285 211 254ZM318 875T353 842T388 760Q388 712 353 679T268 645Q218 645 184 678T149 760Q149 808 183 841T268 875Q318
875 353 842ZM238 833T216 812T194 759Q194 727 215 706T268 685Q299 685 321 706T343 759Q343 790 321 811T268 833Q238 833 216 812Z" />
<glyph unicode="&#xe6;" glyph-name="ae" horiz-adv-x="884" d="M739 563T786 507T834 346Q834 310 829 280H461Q459 161 515 100T663 38Q703 38 745 50T809 77L824 43Q799 18 745 3T637 -12Q490 -12 431 105Q409 53 350 21T216 -11Q173 -11 136 8T76 65T57 153Q61
217 119 256T253 310T391 323V368Q391 446 355 476T252 506Q217 506 171 493T91 460L79 497Q110 522 170 539T277 556Q343 556 387 533T446 447Q479 503 532 533T654 563Q739 563 786 507ZM563 522T517 471T462 324H759Q760 334 760 352Q760 472 693 508Q669 522
633 522Q563 522 517 471ZM339 286T278 274T173 232T128 152Q128 96 161 67T252 37Q302 37 340 64T390 133L391 285Q339 286 278 274Z" />
<glyph unicode="&#xe7;" glyph-name="ccedilla" horiz-adv-x="513" d="M303 -62Q368 -59 402 -86T437 -154Q437 -201 402 -228T314 -257L291 -258Q261 -258 242 -253T217 -247L218 -208Q231 -212 251 -214T282 -217Q318 -217 342 -204T366 -154Q366 -123 343 -109T278
-94Q263 -94 248 -97Q248 -56 260 -9Q162 1 107 76T52 265Q52 355 89 422T190 525T332 561Q370 561 405 555T458 537V432H422L402 495Q372 517 311 517Q259 517 216 491T147 413T121 290Q121 205 148 149T218 67T313 41Q349 41 393 51T459 78L473 43Q447 20 402
6T304 -10Q301 -43 301 -47Q301 -57 302 -62H303Z" />
<glyph unicode="&#xe8;" glyph-name="egrave" horiz-adv-x="559" d="M404 563T454 509T506 359Q508 319 501 280H122Q122 168 172 104T319 39Q364 39 410 50T478 77L493 43Q465 18 408 3T293 -12Q177 -12 114 64T50 271Q50 354 85 420T181 525T320 563Q404 563
454 509ZM230 522T182 471T124 324H432Q433 334 433 352Q433 471 366 507Q339 522 300 522Q230 522 182 471ZM198 755T161 811L213 864L366 677L345 656Q198 755 161 811Z" />
<glyph unicode="&#xe9;" glyph-name="eacute" horiz-adv-x="559" d="M404 563T454 509T506 359Q508 319 501 280H122Q122 168 172 104T319 39Q364 39 410 50T478 77L493 43Q465 18 408 3T293 -12Q177 -12 114 64T50 271Q50 354 85 420T181 525T320 563Q404 563
454 509ZM230 522T182 471T124 324H432Q433 334 433 352Q433 471 366 507Q339 522 300 522Q230 522 182 471ZM392 864L444 811Q410 758 260 656L239 677L392 864Z" />
<glyph unicode="&#xea;" glyph-name="ecircumflex" horiz-adv-x="559" d="M404 563T454 509T506 359Q508 319 501 280H122Q122 168 172 104T319 39Q364 39 410 50T478 77L493 43Q465 18 408 3T293 -12Q177 -12 114 64T50 271Q50 354 85 420T181 525T320 563Q404
563 454 509ZM230 522T182 471T124 324H432Q433 334 433 352Q433 471 366 507Q339 522 300 522Q230 522 182 471ZM262 865H331L465 671L432 653L296 802L155 653L125 670L262 865Z" />
<glyph unicode="&#xeb;" glyph-name="edieresis" horiz-adv-x="559" d="M404 563T454 509T506 359Q508 319 501 280H122Q122 168 172 104T319 39Q364 39 410 50T478 77L493 43Q465 18 408 3T293 -12Q177 -12 114 64T50 271Q50 354 85 420T181 525T320 563Q404
563 454 509ZM230 522T182 471T124 324H432Q433 334 433 352Q433 471 366 507Q339 522 300 522Q230 522 182 471ZM158 696T145 708T131 741Q131 763 148 779T187 795Q211 795 223 782T236 749Q236 725 219 711T178 696Q158 696 145 708ZM381 696T367 708T353 741Q353
763 370 779T409 795Q433 795 445 782T458 749Q458 725 441 711T401 696Q381 696 367 708Z" />
<glyph unicode="&#xec;" glyph-name="igrave" horiz-adv-x="333" d="M78 755T41 811L93 864L246 677L225 656Q78 755 41 811ZM149 41V474L79 499V523L198 553L217 544V42L298 33V0H68V33L149 41Z" />
<glyph unicode="&#xed;" glyph-name="iacute" horiz-adv-x="333" d="M149 41V474L79 499V523L198 553L217 544V42L298 33V0H68V33L149 41ZM528 864L580 811Q546 758 396 656L375 677L528 864Z" />
<glyph unicode="&#xee;" glyph-name="icircumflex" horiz-adv-x="333" d="M143 865H212L345 671L312 653L177 802L35 653L5 670L143 865ZM149 41V474L79 499V523L198 553L217 544V42L298 33V0H68V33L149 41Z" />
<glyph unicode="&#xef;" glyph-name="idieresis" horiz-adv-x="333" d="M149 41V474L79 499V523L198 553L217 544V42L298 33V0H68V33L149 41ZM295 696T282 708T268 741Q268 763 285 779T324 795Q348 795 360 782T373 749Q373 725 356 711T315 696Q295 696 282
708ZM518 696T504 708T490 741Q490 763 507 779T546 795Q570 795 582 782T595 749Q595 725 578 711T538 696Q518 696 504 708Z" />
<glyph unicode="&#xf0;" glyph-name="eth" horiz-adv-x="601" d="M417 806L337 735Q438 659 495 546T552 298Q552 200 517 130T423 24T291 -13Q219 -13 164 20T79 112T49 245Q49 328 83 386T174 474T300 504Q348 504 397 483T472 428Q455 510 410 579T302 700L217
623L179 653L262 729Q213 764 160 781L169 822Q235 800 296 763L347 810L377 838L417 806ZM214 463T170 406T125 250Q125 190 145 139T205 58T305 27Q359 27 397 62T455 151T476 263Q476 267 476 291T473 335Q465 365 442 394T382 443T300 463Q214 463 170 406Z"
/>
<glyph unicode="&#xf1;" glyph-name="ntilde" horiz-adv-x="682" d="M137 42V473L65 499V523L181 553L199 544V477Q237 507 302 532T416 558Q474 558 508 535T557 461T572 324V42L651 33V0H426V33L501 42V315Q501 384 491 424T455 484T384 503Q345 503 296 487T208
443V42L285 33V0H67V33L137 42ZM185 765T221 788T295 812Q317 812 333 802T372 772Q390 755 403 747T431 738Q458 738 480 752T524 790L545 761Q525 728 489 705T416 681Q394 681 378 691T340 721Q320 739 308 747T280 755Q252 755 230 741T186 703L166 731Q185
765 221 788Z" />
<glyph unicode="&#xf2;" glyph-name="ograve" horiz-adv-x="601" d="M393 563T446 525T525 422T551 282Q550 197 517 130T426 26T297 -12Q213 -12 158 27T77 132T51 278Q51 363 86 428T182 528T312 563Q393 563 446 525ZM219 522T173 460T126 288Q126 175 171
103T307 31Q389 31 432 94T476 277Q476 386 433 454T301 522Q219 522 173 460ZM209 755T172 811L224 864L377 677L356 656Q209 755 172 811Z" />
<glyph unicode="&#xf3;" glyph-name="oacute" horiz-adv-x="601" d="M393 563T446 525T525 422T551 282Q550 197 517 130T426 26T297 -12Q213 -12 158 27T77 132T51 278Q51 363 86 428T182 528T312 563Q393 563 446 525ZM219 522T173 460T126 288Q126 175 171
103T307 31Q389 31 432 94T476 277Q476 386 433 454T301 522Q219 522 173 460ZM402 864L454 811Q420 758 270 656L249 677L402 864Z" />
<glyph unicode="&#xf4;" glyph-name="ocircumflex" horiz-adv-x="601" d="M393 563T446 525T525 422T551 282Q550 197 517 130T426 26T297 -12Q213 -12 158 27T77 132T51 278Q51 363 86 428T182 528T312 563Q393 563 446 525ZM219 522T173 460T126 288Q126 175
171 103T307 31Q389 31 432 94T476 277Q476 386 433 454T301 522Q219 522 173 460ZM272 865H341L475 671L442 653L306 802L165 653L135 670L272 865Z" />
<glyph unicode="&#xf5;" glyph-name="otilde" horiz-adv-x="601" d="M393 563T446 525T525 422T551 282Q550 197 517 130T426 26T297 -12Q213 -12 158 27T77 132T51 278Q51 363 86 428T182 528T312 563Q393 563 446 525ZM219 522T173 460T126 288Q126 175 171
103T307 31Q389 31 432 94T476 277Q476 386 433 454T301 522Q219 522 173 460ZM132 765T168 788T242 812Q264 812 280 802T319 772Q337 755 350 747T378 738Q405 738 427 752T471 790L492 761Q472 728 436 705T363 681Q341 681 325 691T287 721Q267 739 255 747T227
755Q199 755 177 741T133 703L113 731Q132 765 168 788Z" />
<glyph unicode="&#xf6;" glyph-name="odieresis" horiz-adv-x="601" d="M393 563T446 525T525 422T551 282Q550 197 517 130T426 26T297 -12Q213 -12 158 27T77 132T51 278Q51 363 86 428T182 528T312 563Q393 563 446 525ZM219 522T173 460T126 288Q126 175 171
103T307 31Q389 31 432 94T476 277Q476 386 433 454T301 522Q219 522 173 460ZM169 696T156 708T142 741Q142 763 159 779T198 795Q222 795 234 782T247 749Q247 725 230 711T189 696Q169 696 156 708ZM392 696T378 708T364 741Q364 763 381 779T420 795Q444 795
456 782T469 749Q469 725 452 711T412 696Q392 696 378 708Z" />
<glyph unicode="&#xf7;" glyph-name="divide" horiz-adv-x="620" d="M339 628T351 615T364 582Q364 558 347 543T306 527Q286 527 272 540T258 574Q258 596 276 612T315 628Q339 628 351 615ZM536 363H84V417H536V363ZM339 243T347 233T356 208Q356 201 355 197Q353
176 337 165T299 155Q284 158 275 168T265 195Q265 218 283 232T322 245Q339 243 347 233Z" />
<glyph unicode="&#xf8;" glyph-name="oslash" horiz-adv-x="601" d="M122 37T87 111T51 280Q51 364 86 428T181 527T310 563Q353 563 383 553L411 635L443 623L416 542Q484 511 517 441T551 282Q550 197 517 130T426 26T297 -12Q263 -12 229 -4L199 -94L165 -81L195
7Q122 37 87 111ZM338 522T301 522Q219 522 173 460T126 288Q126 210 147 150T214 58L367 510Q338 522 301 522ZM270 31T307 31Q389 31 432 94T476 277Q476 349 457 406T397 493L246 41Q270 31 307 31Z" />
<glyph unicode="&#xf9;" glyph-name="ugrave" horiz-adv-x="631" d="M203 755T166 811L218 864L371 677L350 656Q203 755 166 811ZM54 506V536L159 556L174 547V211Q174 147 183 112T217 59T291 41Q340 41 385 63T453 107V492L392 502V534L509 556L523 547V35H584V5Q570
-1 546 -6T505 -12Q460 -12 460 25V69Q363 -10 263 -10Q191 -10 157 19T113 95T104 225V497L54 506Z" />
<glyph unicode="&#xfa;" glyph-name="uacute" horiz-adv-x="631" d="M396 864L449 811Q427 779 374 736T265 656L244 677L396 864ZM54 506V536L159 556L174 547V211Q174 147 183 112T217 59T291 41Q340 41 385 63T453 107V492L392 502V534L509 556L523 547V35H584V5Q570
-1 546 -6T505 -12Q460 -12 460 25V69Q363 -10 263 -10Q191 -10 157 19T113 95T104 225V497L54 506Z" />
<glyph unicode="&#xfb;" glyph-name="ucircumflex" horiz-adv-x="631" d="M268 865H337L470 671L437 653L302 802L160 653L130 670L268 865ZM54 506V536L159 556L174 547V211Q174 147 183 112T217 59T291 41Q340 41 385 63T453 107V492L392 502V534L509 556L523
547V35H584V5Q570 -1 546 -6T505 -12Q460 -12 460 25V69Q363 -10 263 -10Q191 -10 157 19T113 95T104 225V497L54 506Z" />
<glyph unicode="&#xfc;" glyph-name="udieresis" horiz-adv-x="631" d="M54 506V536L159 556L174 547V211Q174 147 183 112T217 59T291 41Q340 41 385 63T453 107V492L392 502V534L509 556L523 547V35H584V5Q570 -1 546 -6T505 -12Q460 -12 460 25V69Q363 -10
263 -10Q191 -10 157 19T113 95T104 225V497L54 506ZM164 696T151 708T137 741Q137 763 154 779T193 795Q217 795 229 782T242 749Q242 725 225 711T184 696Q164 696 151 708ZM387 696T373 708T359 741Q359 763 376 779T415 795Q439 795 451 782T464 749Q464 725
447 711T407 696Q387 696 373 708Z" />
<glyph unicode="&#xfd;" glyph-name="yacute" horiz-adv-x="562" d="M90 -190T112 -190Q156 -192 202 -152T280 -12H267L62 499L1 506V546H221V506L140 499L265 157L309 33L342 149L450 500L370 506V546H572V506L511 500Q356 34 336 -16Q296 -120 254 -176T154
-247Q138 -251 112 -251Q101 -251 89 -249T73 -244V-184Q90 -190 112 -190ZM394 864L446 811Q412 758 262 656L241 677L394 864Z" />
<glyph unicode="&#xfe;" glyph-name="thorn" horiz-adv-x="620" d="M178 784V498Q258 563 350 563Q409 563 458 536T538 448T568 295Q568 210 533 139T435 27T292 -14Q236 -14 175 -1L177 -49V-208L290 -217V-250H32V-217L107 -207V732L24 745V778L161 792L178
784ZM282 511T242 496T178 458V65Q185 46 219 37T300 27Q352 27 397 55T470 141T498 281Q498 400 448 455T322 511Q282 511 242 496Z" />
<glyph unicode="&#xff;" glyph-name="ydieresis" horiz-adv-x="562" d="M90 -190T112 -190Q156 -192 202 -152T280 -12H267L62 499L1 506V546H221V506L140 499L265 157L309 33L342 149L450 500L370 506V546H572V506L511 500Q356 34 336 -16Q296 -120 254 -176T154
-247Q138 -251 112 -251Q101 -251 89 -249T73 -244V-184Q90 -190 112 -190ZM161 696T148 708T134 741Q134 763 151 779T190 795Q214 795 226 782T239 749Q239 725 222 711T181 696Q161 696 148 708ZM384 696T370 708T356 741Q356 763 373 779T412 795Q436 795 448
782T461 749Q461 725 444 711T404 696Q384 696 370 708Z" />
<glyph unicode="&#x2013;" glyph-name="endash" horiz-adv-x="687" d="M603 417V363H84V417H603Z" />
<glyph unicode="&#x2014;" glyph-name="emdash" horiz-adv-x="1168" d="M1084 417V363H84V417H1084Z" />
<glyph unicode="&#x2018;" glyph-name="quoteleft" horiz-adv-x="378" d="M155 477T129 523T103 618Q103 669 125 713T181 787T253 833L271 813V800Q247 792 224 769T186 713T171 645Q171 601 192 570T243 534V517L204 465Q155 477 129 523Z" />
<glyph unicode="&#x2019;" glyph-name="quoteright" horiz-adv-x="378" d="M87 505Q111 513 134 536T172 592T187 661Q187 704 165 735T115 771V789L154 839Q203 827 229 782T255 689Q255 637 233 593T177 518T104 471L87 493V505Z" />
<glyph unicode="&#x201a;" glyph-name="quotesinglbase" horiz-adv-x="367" d="M154 108Q202 96 228 51T255 -42Q256 -119 211 -177T104 -260L87 -239V-227Q111 -219 134 -196T172 -140T187 -71Q187 -28 165 3T115 39V57L154 108Z" />
<glyph unicode="&#x201c;" glyph-name="quotedblleft" horiz-adv-x="636" d="M155 477T129 523T103 618Q103 669 125 713T181 787T253 833L271 813V800Q247 792 224 769T186 713T171 645Q171 601 192 570T243 534V517L204 465Q155 477 129 523ZM413 477T387 524T361
620Q361 696 406 752T512 833L529 813V800Q506 792 483 769T445 713T430 645Q430 601 451 570T501 534V517L462 465Q413 477 387 524Z" />
<glyph unicode="&#x201d;" glyph-name="quotedblright" horiz-adv-x="647" d="M107 505Q131 513 154 536T192 592T207 661Q207 704 186 735T135 771V789L174 839Q223 827 249 783T275 689Q276 638 254 594T197 518T125 471L107 493V505ZM376 505Q400 513 423 536T461
592T476 661Q476 704 454 735T404 771V789L443 839Q492 827 518 783T544 689Q545 638 523 594T466 518T394 471L376 493V505Z" />
<glyph unicode="&#x201e;" glyph-name="quotedblbase" horiz-adv-x="639" d="M188 109Q237 97 263 52T290 -41Q290 -93 268 -137T212 -212T139 -259L122 -237V-226Q145 -218 168 -195T206 -138T221 -70Q221 -27 200 4T149 41V59L188 109ZM458 109Q506 97 532 52T559
-41Q559 -92 537 -136T480 -212T408 -259L391 -237V-226Q414 -218 437 -195T475 -138T490 -70Q490 -27 469 4T418 41V59L458 109Z" />
<glyph unicode="&#x2022;" glyph-name="bullet" horiz-adv-x="411" d="M171 278T148 303T127 361Q130 396 154 420T210 444Q243 444 265 420T286 361Q283 327 259 303T203 278Q171 278 148 303Z" />
<glyph unicode="&#x2039;" glyph-name="guilsinglleft" horiz-adv-x="581" d="M436 525L456 492L188 301L456 114L436 80L120 269V330L436 525Z" />
<glyph unicode="&#x203a;" glyph-name="guilsinglright" horiz-adv-x="581" d="M393 303L125 490L145 525L461 336V274L145 80L125 112L393 303Z" />
</font>
</defs>
</svg>
