<?xml version="1.0" standalone="no"?>
<!DOCTYPE svg PUBLIC "-//W3C//DTD SVG 1.1//EN" "http://www.w3.org/Graphics/SVG/1.1/DTD/svg11.dtd">
<svg xmlns="http://www.w3.org/2000/svg">
<defs >
<font id="Maitree" horiz-adv-x="558" ><font-face
    font-family="Maitree ExtraLight"
    units-per-em="1000"
    panose-1="0 0 3 0 0 0 0 0 0 0"
    ascent="1150"
    descent="-500"
    alphabetic="0" />
<glyph unicode=" " glyph-name="space" horiz-adv-x="300" />
<glyph unicode="!" glyph-name="exclam" horiz-adv-x="292" d="M124 705H168L159 158H133L124 705ZM132 -10T122 -1T112 24Q112 39 122 48T146 58Q160 58 170 49T180 24Q180 9 170 0T146 -10Q132 -10 122 -1Z" />
<glyph unicode="&quot;" glyph-name="quotedbl" horiz-adv-x="256" d="M77 705L111 702L65 504H45L77 705ZM177 705L211 702L165 504H145L177 705Z" />
<glyph unicode="#" glyph-name="numbersign" horiz-adv-x="584" d="M149 180H35V207H154L192 409H76V436H197L225 582H256L228 436H388L416 582H447L419 436H534V409H414L376 207H495V180H371L337 0H306L340 180H180L146 0H115L149 180ZM345 207L383 409H223L185
207H345Z" />
<glyph unicode="$" glyph-name="dollar" horiz-adv-x="681" d="M279 -9Q223 -4 168 13T80 60V153Q80 162 89 162Q101 162 104 141L113 73Q149 45 204 32T311 19Q396 19 453 51T510 155Q510 201 488 231T420 284T289 341Q186 381 135 423T83 533Q83 616 145 655T297
695V776H326V694Q379 690 430 672T514 624V532Q514 523 506 523Q494 523 491 544L481 611Q447 639 399 652T301 666Q223 666 171 636T119 539Q119 494 143 464T208 413T329 362Q408 332 454 306T523 244T546 156Q546 71 480 31T311 -10H308V-89H279V-9Z" />
<glyph unicode="%" glyph-name="percent" horiz-adv-x="737" d="M136 365T98 408T60 530Q60 607 98 651T196 695Q256 695 294 651T332 530Q332 452 294 409T196 365Q136 365 98 408ZM119 15L599 695L625 680L145 0L119 15ZM241 392T270 428T299 530Q299 595 270
631T196 668Q151 668 122 632T93 530Q93 465 122 429T196 392Q241 392 270 428ZM481 -10T443 33T405 155Q405 232 443 276T541 320Q601 320 639 276T677 155Q677 77 639 34T541 -10Q481 -10 443 33ZM586 17T615 53T644 155Q644 220 615 256T541 293Q496 293 467
257T438 155Q438 90 467 54T541 17Q586 17 615 53Z" />
<glyph unicode="&amp;" glyph-name="ampersand" horiz-adv-x="686" d="M168 -10T109 39T50 173Q50 300 209 369Q150 429 127 465T104 551Q104 610 150 648T271 687Q344 687 390 646T437 540Q437 434 261 360L473 150Q500 195 512 245T531 360H474Q470 360 468
363T465 372Q465 378 469 382T483 386H627Q634 386 634 378Q634 367 618 365L560 359Q547 218 492 130L596 28L654 21Q664 20 667 17T670 8Q670 0 663 0H582L477 104Q441 52 386 21T260 -10Q168 -10 109 39ZM313 411T358 450T404 537Q404 597 367 629T271 661Q212
661 175 631T137 547Q137 503 164 466T242 381Q313 411 358 450ZM327 18T376 48T455 124L230 349Q83 291 83 173Q83 99 134 59T260 18Q327 18 376 48Z" />
<glyph unicode="&apos;" glyph-name="quotesingle" horiz-adv-x="156" d="M77 705L111 702L65 504H45L77 705Z" />
<glyph unicode="(" glyph-name="parenleft" horiz-adv-x="266" d="M57 121T57 350Q57 575 175 775H209Q170 701 147 646T109 517T93 350Q93 257 108 182T147 51T209 -79H175Q57 121 57 350Z" />
<glyph unicode=")" glyph-name="parenright" horiz-adv-x="266" d="M95 -6T118 50T157 182T173 350Q173 443 158 516T119 645T57 775H91Q209 575 209 350Q209 121 91 -79H57Q95 -6 118 50Z" />
<glyph unicode="*" glyph-name="asterisk" horiz-adv-x="366" d="M174 557L54 483L40 508L168 575L40 642L54 669L174 592L169 733H197L192 592L311 669L326 642L196 575L326 508L311 482L192 557L197 417H169L174 557Z" />
<glyph unicode="+" glyph-name="plus" horiz-adv-x="611" d="M291 320H67V348H291V572H320V348H544V320H320V96H291V320Z" />
<glyph unicode="," glyph-name="comma" horiz-adv-x="265" d="M75 -81Q96 -50 112 -5T132 72L98 83Q92 85 92 91Q92 101 98 105T115 107L175 94Q164 44 144 -5T96 -93L75 -81Z" />
<glyph unicode="-" glyph-name="hyphen" horiz-adv-x="304" d="M33 348H271V318H33V348Z" />
<glyph unicode="." glyph-name="period" horiz-adv-x="228" d="M100 -10T90 -1T80 24Q80 39 90 48T114 58Q128 58 138 49T148 24Q148 9 138 0T114 -10Q100 -10 90 -1Z" />
<glyph unicode="/" glyph-name="slash" horiz-adv-x="340" d="M-20 -121L324 730L355 718L9 -132L-20 -121Z" />
<glyph unicode="0" glyph-name="zero" horiz-adv-x="694" d="M264 -10T200 33T101 156T65 342Q65 448 100 528T200 651T347 695Q430 695 494 652T593 528T629 342Q629 236 594 157T494 34T347 -10Q264 -10 200 33ZM421 19T477 60T563 175T593 342Q593 435 563
508T477 624T347 666Q273 666 217 624T131 509T101 342Q101 249 131 176T217 61T347 19Q421 19 477 60Z" />
<glyph unicode="1" glyph-name="one" horiz-adv-x="417" d="M62 0T60 4T57 13Q57 19 61 23T75 28H190V656L85 624Q81 624 78 627T74 637Q74 651 92 656L187 685H225V28L325 23Q347 22 347 10Q347 6 345 3T340 0H66Q62 0 60 4Z" />
<glyph unicode="2" glyph-name="two" horiz-adv-x="574" d="M72 45L325 305Q385 367 418 417T452 521Q452 592 409 629T299 666Q250 666 205 652T123 613L113 544Q110 522 98 522Q89 522 89 531V624Q130 656 186 675T301 695Q352 695 394 676T462 617T488 521Q488
462 451 404T338 269L105 33V29H504V0H72V45Z" />
<glyph unicode="3" glyph-name="three" horiz-adv-x="577" d="M207 -10T155 1T62 29V61Q108 42 159 31T259 19Q355 19 409 60T464 180Q464 225 442 261T379 317T288 338Q272 338 217 331Q218 331 179 326V355L255 365Q330 375 383 415T437 528Q437 598 395 632T284
666Q235 666 190 652T108 613L98 544Q95 522 83 522Q74 522 74 531V624Q115 656 171 675T286 695Q366 695 419 653T473 528Q473 465 435 421T328 358Q411 347 455 297T500 178Q500 86 437 38T263 -10Q207 -10 155 1Z" />
<glyph unicode="4" glyph-name="four" horiz-adv-x="598" d="M393 177H45V223L372 685H427V206H533V177H427V0H393V177ZM393 206V660L73 206H393Z" />
<glyph unicode="5" glyph-name="five" horiz-adv-x="533" d="M144 -10T55 28V60Q154 19 247 19Q334 19 388 64T442 190Q442 289 388 331T244 374Q182 374 103 355L81 373L107 685H426V656H137L115 384Q186 403 250 403Q348 403 413 351T478 193Q478 100 416 45T251
-10Q144 -10 55 28Z" />
<glyph unicode="6" glyph-name="six" horiz-adv-x="564" d="M178 -10T122 77T65 319Q65 489 141 592T375 695Q412 695 442 687V660Q408 668 378 668Q243 668 172 580T100 326Q148 362 198 382T310 403Q399 403 449 353T499 213Q499 143 471 93T396 16T294 -10Q178
-10 122 77ZM336 19T375 41T439 107T463 213Q463 374 294 374Q246 374 192 351T101 295Q101 174 150 97T290 19Q336 19 375 41Z" />
<glyph unicode="7" glyph-name="seven" horiz-adv-x="538" d="M444 659H87L79 600Q76 576 64 576Q55 576 55 585V685H483V658L215 0H176L444 659Z" />
<glyph unicode="8" glyph-name="eight" horiz-adv-x="589" d="M196 -10T136 36T75 163Q75 277 262 360Q179 403 139 446T99 544Q99 587 123 621T191 675T294 695Q385 695 438 653T491 544Q491 435 328 359Q432 310 473 265T514 167Q514 87 456 39T298 -10Q196
-10 136 36ZM456 445T456 541Q456 601 412 634T293 667Q222 667 178 634T134 541Q134 489 174 453T298 373Q456 445 456 541ZM379 18T429 57T479 165Q479 219 434 260T295 343Q203 305 157 262T110 162Q110 94 160 56T295 18Q379 18 429 57Z" />
<glyph unicode="9" glyph-name="nine" horiz-adv-x="564" d="M152 -10T122 -2V25Q156 17 196 17Q325 17 394 99T464 345Q384 262 274 262Q218 262 171 286T94 357T65 472Q65 542 94 592T174 669T284 695Q499 695 499 366Q499 188 426 89T199 -10Q152 -10 122 -2ZM332
291T376 313T463 380Q463 510 420 588T288 666Q236 666 194 644T126 578T101 472Q101 381 151 336T278 291Q332 291 376 313Z" />
<glyph unicode=":" glyph-name="colon" horiz-adv-x="228" d="M100 415T90 424T80 449Q80 464 90 473T114 483Q128 483 138 474T148 449Q148 434 138 425T114 415Q100 415 90 424ZM100 55T90 64T80 89Q80 104 90 113T114 123Q128 123 138 114T148 89Q148 74 138
65T114 55Q100 55 90 64Z" />
<glyph unicode=";" glyph-name="semicolon" horiz-adv-x="227" d="M104 415T94 424T84 449Q84 464 94 473T118 483Q132 483 142 474T152 449Q152 434 142 425T118 415Q104 415 94 424ZM52 -81Q73 -50 89 -5T109 72L75 83Q69 85 69 91Q69 101 75 105T92 107L152
94Q141 44 121 -5T73 -93L52 -81Z" />
<glyph unicode="&lt;" glyph-name="less" d="M70 265V297L463 548L478 522L101 281L478 40L463 14L70 265Z" />
<glyph unicode="=" glyph-name="equal" horiz-adv-x="578" d="M67 413H511V385H67V413ZM67 237H511V209H67V237Z" />
<glyph unicode="&gt;" glyph-name="greater" d="M80 40L457 281L80 522L95 548L488 297V265L95 14L80 40Z" />
<glyph unicode="?" glyph-name="question" horiz-adv-x="463" d="M205 273Q205 313 214 340T239 389T288 441Q316 467 331 484T358 526T369 582Q369 634 336 660T246 687Q212 687 176 676T112 643L105 593Q103 583 101 579T93 575Q85 575 85 582V656Q117 681 161
698T246 715Q316 715 359 683T403 582Q403 529 378 493T306 417Q266 383 252 352T237 262V158H205V273ZM207 -10T197 -1T187 24Q187 39 197 48T221 58Q235 58 245 49T255 24Q255 9 245 0T221 -10Q207 -10 197 -1Z" />
<glyph unicode="@" glyph-name="at" horiz-adv-x="877" d="M317 -90T233 -47T103 78T57 276Q57 401 109 501T255 658T473 715Q582 715 665 672T795 547T842 358Q842 292 822 236T766 147T685 114Q643 114 613 139T575 207Q523 114 426 114Q355 114 314 159T272
292Q272 356 296 405T365 482T470 510Q500 510 539 504T612 488L596 242Q596 196 621 169T686 142Q721 142 749 169T793 245T809 359Q809 456 768 530T653 646T483 687Q365 687 276 637T139 494T90 279Q90 171 131 95T249 -22T431 -62Q541 -62 639 -26V-53Q536
-90 431 -90Q317 -90 233 -47ZM480 142T509 166T563 237L579 466Q528 482 471 482Q395 482 350 431T305 290Q305 217 336 180T428 142Q480 142 509 166Z" />
<glyph unicode="A" glyph-name="A" horiz-adv-x="672" d="M20 0T18 3T15 12Q15 26 32 26H74L310 695H356L590 27L641 21Q657 19 657 8Q657 0 650 0H496Q492 0 490 3T487 12Q487 26 504 26H554L479 245H182L106 27L169 21Q185 19 185 8Q185 0 178 0H24Q20 0 18
3ZM468 273L330 665L192 273H468Z" />
<glyph unicode="B" glyph-name="B" horiz-adv-x="651" d="M65 0T65 9Q65 20 84 22L130 28V667L84 673Q65 675 65 686Q65 695 73 695H333Q426 695 484 653T542 521Q542 412 440 371V367Q507 349 546 305T586 189Q586 96 528 48T368 0H73Q65 0 65 9ZM358 377Q423
377 465 414T507 521Q507 593 461 630T328 667H164V377H358ZM364 28Q457 28 504 70T551 189Q551 262 505 305T376 349H164V28H364Z" />
<glyph unicode="C" glyph-name="C" horiz-adv-x="639" d="M281 -10T208 30T95 151T54 347Q54 462 92 542T201 664T366 705Q423 705 480 686T576 634V541Q576 532 567 532Q555 532 552 554L542 623Q510 650 464 663T366 676Q280 676 218 637T123 523T89 347Q89
245 124 171T225 58T379 19Q429 19 475 29T555 63Q556 64 560 66T568 69Q573 69 576 65T579 56Q579 45 555 31Q522 12 476 1T379 -10Q281 -10 208 30Z" />
<glyph unicode="D" glyph-name="D" horiz-adv-x="713" d="M65 0T65 9Q65 20 84 22L130 28V667L84 673Q65 675 65 686Q65 695 73 695H336Q432 695 504 657T617 540T658 347Q658 233 618 155T505 39T336 0H73Q65 0 65 9ZM336 28Q422 28 487 65T587 174T623 347Q623
448 588 520T487 629T336 667H164V28H336Z" />
<glyph unicode="E" glyph-name="E" horiz-adv-x="656" d="M65 0T65 9Q65 20 84 22L130 28V667L84 673Q74 675 70 677T65 686Q65 695 73 695H567V598Q567 589 558 589Q551 589 548 594T543 611L536 668H164V370H489L497 421Q499 434 502 438T511 443Q520 443 520
434V278Q520 269 511 269Q505 269 502 273T497 291L489 342H164V27H548L555 90Q557 102 560 107T570 112Q579 112 579 103V0H73Q65 0 65 9Z" />
<glyph unicode="F" glyph-name="F" horiz-adv-x="631" d="M71 0T69 3T66 12Q66 18 70 22T84 26H130V667L84 673Q74 675 70 677T65 686Q65 695 73 695H559V593Q559 584 550 584Q538 584 535 606L526 667H164V360H480L486 413Q488 425 491 430T501 436Q510 436 510
427V265Q510 256 501 256Q494 256 491 261T486 279L480 332H164V27L222 21Q238 19 238 8Q238 0 231 0H75Q71 0 69 3Z" />
<glyph unicode="G" glyph-name="G" horiz-adv-x="701" d="M222 -10T140 81T57 347Q57 462 95 542T204 664T369 705Q426 705 483 686T579 634V541Q579 532 570 532Q558 532 555 554L545 623Q513 650 467 663T369 676Q283 676 221 637T126 523T92 347Q92 192 164
106T369 19Q415 19 461 28T543 57V315H407Q399 315 399 326Q399 339 416 339H644Q651 339 651 331Q651 325 647 323T635 320L577 314V42Q535 17 477 4T369 -10Q222 -10 140 81Z" />
<glyph unicode="H" glyph-name="H" horiz-adv-x="771" d="M70 0T68 3T65 12Q65 18 69 22T83 26H129V669H74Q70 669 68 672T65 681Q65 695 82 695H230Q237 695 237 687Q237 676 221 674L163 668V375H604V669H544Q540 669 538 672T535 681Q535 695 552 695H699Q706
695 706 687Q706 676 690 674L638 668V27L690 21Q706 19 706 8Q706 0 699 0H544Q540 0 538 3T535 12Q535 26 552 26H604V347H163V27L221 21Q237 19 237 8Q237 0 230 0H74Q70 0 68 3Z" />
<glyph unicode="I" glyph-name="I" horiz-adv-x="312" d="M75 0T73 3T70 12Q70 18 74 22T88 26H134V669H79Q75 669 73 672T70 681Q70 695 87 695H235Q242 695 242 687Q242 676 226 674L168 668V27L226 21Q242 19 242 8Q242 0 235 0H79Q75 0 73 3Z" />
<glyph unicode="J" glyph-name="J" horiz-adv-x="333" d="M55 -10T50 -3T45 17Q118 40 145 82T173 203V669H118Q114 669 112 672T109 681Q109 695 126 695H274Q281 695 281 687Q281 676 265 674L207 668V201Q207 121 179 71T80 -6Q69 -10 62 -10Q55 -10 50 -3Z" />
<glyph unicode="K" glyph-name="K" horiz-adv-x="633" d="M70 0T68 3T65 12Q65 18 69 22T83 26H129V669H74Q70 669 68 672T65 681Q65 695 82 695H230Q237 695 237 687Q237 676 221 674L163 668V27L221 21Q237 19 237 8Q237 0 230 0H74Q70 0 68 3ZM163 368L495
669H427Q423 669 421 672T418 681Q418 695 435 695H590Q597 695 597 687Q597 676 581 674L538 670L207 370L548 27L599 21Q615 19 615 8Q615 0 608 0H527L163 368Z" />
<glyph unicode="L" glyph-name="L" horiz-adv-x="568" d="M65 0T65 9Q65 20 84 22L130 28V669H75Q71 669 69 672T66 681Q66 695 83 695H231Q238 695 238 687Q238 676 222 674L164 668V28H511L518 90Q520 102 523 107T533 112Q542 112 542 103V0H73Q65 0 65 9Z" />
<glyph unicode="M" glyph-name="M" horiz-adv-x="989" d="M39 0T37 3T34 12Q34 18 38 22T52 26H98L229 666L183 671Q164 673 164 685Q164 695 173 695H291L475 105Q482 84 487 62T494 33H500Q501 39 506 59T518 105L694 695H809Q818 695 818 685Q818 673 799 671L754
666L892 27L942 21Q958 19 958 8Q958 0 951 0H797Q793 0 791 3T788 12Q788 18 792 22T806 26H856L730 616Q726 633 724 647T722 666H716L701 616L517 0H470L277 616L262 666H256Q256 661 254 647T248 616L128 27L187 21Q203 19 203 8Q203 0 196 0H43Q39 0 37 3Z"
/>
<glyph unicode="N" glyph-name="N" horiz-adv-x="764" d="M71 0T69 3T66 12Q66 18 70 22T84 26H130V665L85 671Q74 673 70 675T65 685Q65 695 75 695H162L557 126Q585 84 602 51V669H541Q537 669 535 672T532 681Q532 695 549 695H695Q702 695 702 687Q702 676
686 674L634 668V0H602L206 570Q180 608 162 642V27L220 21Q236 19 236 8Q236 0 229 0H75Q71 0 69 3Z" />
<glyph unicode="O" glyph-name="O" horiz-adv-x="718" d="M216 -10T137 81T57 346Q57 520 136 612T359 705Q502 705 581 613T661 346Q661 173 582 82T359 -10Q216 -10 137 81ZM487 18T556 104T626 346Q626 502 556 589T359 677Q232 677 162 590T92 346Q92 191
161 105T359 18Q487 18 556 104Z" />
<glyph unicode="P" glyph-name="P" horiz-adv-x="586" d="M71 0T69 3T66 12Q66 18 70 22T84 26H130V667L84 673Q65 675 65 686Q65 695 73 695H345Q436 695 493 646T550 501Q550 405 493 356T345 307H164V27L222 21Q238 19 238 8Q238 0 231 0H75Q71 0 69 3ZM348
335Q429 335 471 380T514 501Q514 576 472 621T348 667H164V335H348Z" />
<glyph unicode="Q" glyph-name="Q" horiz-adv-x="718" d="M527 -155T494 -138T430 -96Q385 -59 346 -10Q209 -5 133 86T57 346Q57 520 136 612T359 705Q502 705 581 613T661 346Q661 180 588 90T383 -9Q420 -48 457 -75Q506 -109 552 -122Q563 -125 567 -128T572
-138Q572 -146 567 -150T552 -155Q527 -155 494 -138ZM487 18T556 104T626 346Q626 502 556 589T359 677Q232 677 162 590T92 346Q92 191 161 105T359 18Q487 18 556 104Z" />
<glyph unicode="R" glyph-name="R" horiz-adv-x="624" d="M71 0T69 3T66 12Q66 18 70 22T84 26H130V667L84 673Q65 675 65 686Q65 695 73 695H336Q430 695 485 654T541 521Q541 429 486 389T336 349H209L530 27L581 21Q597 19 597 8Q597 0 590 0H509L164 349V27L222
21Q238 19 238 8Q238 0 231 0H75Q71 0 69 3ZM339 377Q422 377 463 414T505 521Q505 591 464 629T339 667H164V377H339Z" />
<glyph unicode="S" glyph-name="S" horiz-adv-x="591" d="M234 -10T166 8T59 61V156Q59 165 68 165Q80 165 83 143L92 74Q128 46 185 33T293 19Q379 19 437 51T496 158Q496 204 473 234T405 288T271 345Q166 384 114 428T62 540Q62 626 126 665T284 705Q344 705
403 686T499 633V539Q499 530 490 530Q478 530 475 552L466 620Q432 648 383 662T283 676Q204 676 151 644T98 546Q98 501 122 471T188 420T311 368Q392 337 438 310T508 247T532 159Q532 72 465 31T293 -10Q234 -10 166 8Z" />
<glyph unicode="T" glyph-name="T" horiz-adv-x="560" d="M204 0T202 3T199 12Q199 18 203 22T217 26H263V667H72L64 610Q62 598 59 593T49 588Q40 588 40 597V695H520V597Q520 588 511 588Q504 588 501 593T496 610L488 667H297V27L355 21Q371 19 371 8Q371 0
364 0H208Q204 0 202 3Z" />
<glyph unicode="U" glyph-name="U" horiz-adv-x="754" d="M249 -10T182 60T114 257V669H59Q55 669 53 672T50 681Q50 695 67 695H215Q222 695 222 687Q222 676 206 674L148 668V263Q148 145 206 83T377 20Q489 20 547 82T606 263V669H546Q542 669 540 672T537
681Q537 695 554 695H697Q704 695 704 687Q704 676 688 674L636 668V257Q636 131 570 61T377 -10Q249 -10 182 60Z" />
<glyph unicode="V" glyph-name="V" horiz-adv-x="671" d="M77 669H27Q23 669 21 672T18 681Q18 695 35 695H182Q189 695 189 687Q189 676 173 674L114 668L315 89Q322 68 327 52T333 30H339Q340 35 344 53T355 89L556 669H493Q489 669 487 672T484 681Q484 695
501 695H646Q653 695 653 687Q653 676 637 674L586 668L355 0H309L77 669Z" />
<glyph unicode="W" glyph-name="W" horiz-adv-x="1030" d="M79 669H28Q24 669 22 672T19 681Q19 695 36 695H184Q191 695 191 687Q191 676 175 674L116 668L291 77Q295 63 298 47T302 25H308Q309 30 312 46T319 77L508 695H521L717 77Q721 63 724 47T728 25H734Q735
30 738 46T745 77L913 669H850Q846 669 844 672T841 681Q841 695 858 695H1004Q1011 695 1011 687Q1011 676 995 674L944 668L752 0H705L527 571Q523 584 520 601T516 623H510Q509 618 506 601T499 571L325 0H278L79 669Z" />
<glyph unicode="X" glyph-name="X" horiz-adv-x="676" d="M27 0T25 3T22 12Q22 26 39 26H74L305 360L97 669H53Q49 669 47 672T44 681Q44 695 61 695H214Q221 695 221 687Q221 676 205 674L140 668L332 384L534 669H473Q469 669 467 672T464 681Q464 695 481 695H626Q633
695 633 687Q633 676 617 674L569 668L356 367L590 27L638 21Q654 19 654 8Q654 0 647 0H490Q486 0 484 3T481 12Q481 26 498 26H548L330 344L110 27L175 21Q191 19 191 8Q191 0 184 0H31Q27 0 25 3Z" />
<glyph unicode="Y" glyph-name="Y" horiz-adv-x="666" d="M246 0T244 3T241 12Q241 18 245 22T259 26H305V307L72 669H28Q24 669 22 672T19 681Q19 695 36 695H189Q196 695 196 687Q196 676 180 674L116 668L326 339L549 669H488Q484 669 482 672T479 681Q479
695 496 695H640Q647 695 647 687Q647 676 631 674L583 668L339 308V27L397 21Q413 19 413 8Q413 0 406 0H250Q246 0 244 3Z" />
<glyph unicode="Z" glyph-name="Z" horiz-adv-x="621" d="M56 27L523 667H106L98 608Q95 584 83 584Q74 584 74 593V695H565V668L98 28H524L532 87Q535 111 547 111Q556 111 556 102V0H56V27Z" />
<glyph unicode="[" glyph-name="bracketleft" horiz-adv-x="265" d="M68 726H210V698H102V-103H210V-131H68V726Z" />
<glyph unicode="\" glyph-name="backslash" horiz-adv-x="337" d="M-20 718L11 730L356 -123L327 -134L-20 718Z" />
<glyph unicode="]" glyph-name="bracketright" horiz-adv-x="265" d="M55 -103H163V698H55V726H197V-131H55V-103Z" />
<glyph unicode="^" glyph-name="asciicircum" horiz-adv-x="555" d="M70 362L261 675H293L484 362L458 347L277 644L96 347L70 362Z" />
<glyph unicode="_" glyph-name="underscore" horiz-adv-x="515" d="M-1 -182H516V-210H-1V-182Z" />
<glyph unicode="`" glyph-name="grave" horiz-adv-x="262" d="M80 647L110 665L182 547L160 534L80 647Z" />
<glyph unicode="a" glyph-name="a" horiz-adv-x="506" d="M139 -10T95 25T51 124Q51 240 220 266L385 291V343Q385 398 351 434T256 471Q221 471 178 458T103 426L96 378Q94 368 92 364T84 360Q76 360 76 367V441Q114 465 164 481T258 497Q326 497 371 456T417
344V26L459 20Q469 18 473 16T477 8Q477 0 470 0H387V86H383Q320 -10 201 -10Q139 -10 95 25ZM253 16T293 36T359 91T385 170V265L232 241Q162 230 124 204T85 126Q85 71 120 44T210 16Q253 16 293 36Z" />
<glyph unicode="b" glyph-name="b" horiz-adv-x="547" d="M233 -10T181 6T91 48V685H37Q33 685 31 688T28 696Q28 710 46 710H121V410L124 409Q155 453 199 475T298 497Q392 497 445 432T499 240Q499 115 439 53T277 -10Q233 -10 181 6ZM465 16T465 239Q465 361
418 416T292 471Q248 471 209 451T147 397T123 327V60Q151 41 193 29T272 16Q465 16 465 239Z" />
<glyph unicode="c" glyph-name="c" horiz-adv-x="470" d="M159 -10T103 59T46 244Q46 358 101 427T262 497Q305 497 351 480T420 438V364Q420 357 412 357Q407 357 405 361T400 375L393 425Q373 446 335 458T262 470Q177 470 128 410T79 244Q79 137 129 77T265
16Q347 16 401 59Q409 65 414 65Q419 65 422 61T425 52Q425 43 401 27Q346 -10 265 -10Q159 -10 103 59Z" />
<glyph unicode="d" glyph-name="d" horiz-adv-x="551" d="M164 -10T105 53T46 240Q46 317 73 375T148 465T260 497Q352 497 424 439V685H370Q366 685 364 688T361 696Q361 710 379 710H456V26L498 20Q508 18 512 16T516 8Q516 0 509 0H428V82H424Q367 -10 257
-10Q164 -10 105 53ZM306 16T343 36T402 91T424 170V406Q353 471 266 471Q214 471 172 445T105 367T80 239Q80 137 126 77T265 16Q306 16 343 36Z" />
<glyph unicode="e" glyph-name="e" horiz-adv-x="504" d="M165 -10T107 59T48 241Q48 356 103 426T264 497Q358 497 408 441T459 291Q459 266 450 243H81Q81 134 133 75T269 16Q351 16 405 59Q413 65 418 65Q423 65 426 61T429 52Q429 46 423 41T405 27Q346 -10
269 -10Q165 -10 107 59ZM423 269Q426 278 426 296Q426 381 381 426T264 471Q186 471 138 417T82 269H423Z" />
<glyph unicode="f" glyph-name="f" horiz-adv-x="340" d="M63 0T61 3T58 11Q58 25 76 25H121V459H61Q57 459 55 462T52 471Q52 478 57 482T70 487H121V604Q121 656 150 686T229 717Q257 717 284 707T325 683V609Q325 602 317 602Q312 602 310 606T305 620L298
671Q272 690 229 690Q193 690 173 668T153 607V487H275Q283 487 283 478Q283 472 277 469T255 465L153 459V26L209 20Q226 18 226 8Q226 0 219 0H67Q63 0 61 3Z" />
<glyph unicode="g" glyph-name="g" horiz-adv-x="526" d="M228 -223T189 -213T118 -186Q105 -179 98 -173T91 -159Q91 -153 94 -150T101 -147Q104 -147 113 -153Q146 -175 186 -186T268 -197Q346 -197 386 -161T427 -49V80H423Q366 -10 255 -10Q196 -10 149 17T74
100T46 240Q46 321 75 379T157 467T274 497Q321 497 373 477T458 426V-43Q458 -129 412 -176T268 -223Q228 -223 189 -213ZM305 16T342 36T403 91T426 170V417Q393 443 352 457T271 471Q218 471 175 446T106 368T80 239Q80 137 126 77T263 16Q305 16 342 36Z" />
<glyph unicode="h" glyph-name="h" horiz-adv-x="598" d="M63 0T61 3T58 11Q58 25 76 25H121V685H67Q63 685 61 688T58 696Q58 710 76 710H151V415L153 413Q239 497 334 497Q402 497 448 456T495 344V26L551 20Q568 18 568 8Q568 0 561 0H409Q405 0 403 3T400
11Q400 25 418 25H463V343Q463 398 427 433T329 469Q283 469 236 444T153 376V26L209 20Q226 18 226 8Q226 0 219 0H67Q63 0 61 3Z" />
<glyph unicode="i" glyph-name="i" horiz-adv-x="245" d="M116 578T107 586T98 609Q98 623 107 631T129 640Q142 640 151 632T160 609Q160 595 151 587T129 578Q116 578 107 586ZM55 0T53 3T50 11Q50 25 68 25H114V462H59Q55 462 53 465T50 473Q50 487 68 487H146V26L201
20Q218 18 218 8Q218 0 211 0H59Q55 0 53 3Z" />
<glyph unicode="j" glyph-name="j" horiz-adv-x="249" d="M140 578T131 586T122 609Q122 623 131 631T153 640Q166 640 175 632T184 609Q184 595 175 587T153 578Q140 578 131 586ZM27 -223T22 -216T17 -196Q90 -173 117 -131T145 -10V462H90Q86 462 84 465T81
473Q81 487 99 487H177V-12Q177 -92 149 -142T50 -219Q39 -223 34 -223Q27 -223 22 -216Z" />
<glyph unicode="k" glyph-name="k" horiz-adv-x="527" d="M63 0T61 3T58 11Q58 25 76 25H121V685H67Q63 685 61 688T58 696Q58 710 76 710H153V26L209 20Q226 18 226 8Q226 0 219 0H67Q63 0 61 3ZM153 263L368 462H308Q304 462 302 465T299 473Q299 487 317 487H460Q467
487 467 479Q467 469 450 467L405 461L196 267L436 24L477 20Q494 18 494 8Q494 0 487 0H414L153 263Z" />
<glyph unicode="l" glyph-name="l" horiz-adv-x="263" d="M65 0T63 3T60 11Q60 25 78 25H123V685H69Q65 685 63 688T60 696Q60 710 78 710H155V26L211 20Q228 18 228 8Q228 0 221 0H69Q65 0 63 3Z" />
<glyph unicode="m" glyph-name="m" horiz-adv-x="860" d="M60 0T58 3T55 11Q55 25 73 25H118V462H64Q60 462 58 465T55 473Q55 487 73 487H147V413H150Q188 451 228 474T316 497Q361 497 396 475T446 408Q488 449 529 473T620 497Q679 497 719 459T760 348V25L813
20Q830 18 830 8Q830 0 823 0H671Q667 0 665 3T662 11Q662 25 680 25H728V347Q728 406 696 437T616 469Q574 469 533 445T455 381V25L511 20Q528 18 528 8Q528 0 521 0H369Q365 0 363 3T360 11Q360 25 378 25H423V347Q423 406 392 437T312 469Q270 469 229 445T150
379V25L206 20Q223 18 223 8Q223 0 216 0H64Q60 0 58 3Z" />
<glyph unicode="n" glyph-name="n" horiz-adv-x="595" d="M60 0T58 3T55 11Q55 25 73 25H118V462H64Q60 462 58 465T55 473Q55 487 73 487H147V411H150Q238 497 331 497Q399 497 445 456T492 344V26L548 20Q565 18 565 8Q565 0 558 0H406Q402 0 400 3T397 11Q397
25 415 25H460V343Q460 398 424 433T326 469Q280 469 234 444T150 376V26L206 20Q223 18 223 8Q223 0 216 0H64Q60 0 58 3Z" />
<glyph unicode="o" glyph-name="o" horiz-adv-x="526" d="M157 -10T102 59T47 244Q47 358 102 427T263 497Q369 497 424 428T479 244Q479 129 424 60T263 -10Q157 -10 102 59ZM348 16T397 76T446 244Q446 351 397 411T263 471Q178 471 129 411T80 244Q80 137 129
77T263 16Q348 16 397 76Z" />
<glyph unicode="p" glyph-name="p" horiz-adv-x="579" d="M63 -213T61 -210T58 -202Q58 -188 76 -188H121V462H67Q63 462 61 465T58 473Q58 487 76 487H150V406H153Q184 451 229 474T330 497Q424 497 477 432T531 240Q531 117 471 54T309 -10Q273 -10 231 1T153
32V-187L209 -193Q226 -195 226 -205Q226 -213 219 -213H67Q63 -213 61 -210ZM497 16T497 239Q497 361 450 416T324 471Q279 471 240 451T177 398T153 327V64Q181 44 225 30T304 16Q497 16 497 239Z" />
<glyph unicode="q" glyph-name="q" horiz-adv-x="549" d="M365 -213T363 -210T360 -202Q360 -188 378 -188H428V82H425Q366 -10 255 -10Q196 -10 149 17T74 100T46 240Q46 317 74 375T150 465T258 497Q309 497 352 481T426 439Q426 464 432 475T453 487H458V-188L504
-193Q521 -195 521 -205Q521 -213 514 -213H369Q365 -213 363 -210ZM305 16T342 36T403 91T426 170V406Q392 437 351 454T264 471Q214 471 173 445T106 367T80 239Q80 137 126 77T263 16Q305 16 342 36Z" />
<glyph unicode="r" glyph-name="r" horiz-adv-x="361" d="M60 0T58 3T55 11Q55 25 73 25H118V462H64Q60 462 58 465T55 473Q55 487 73 487H147V390H150Q191 435 237 466T316 497Q341 497 341 477Q341 466 335 460Q240 460 150 357V26L206 20Q223 18 223 8Q223
0 216 0H64Q60 0 58 3Z" />
<glyph unicode="s" glyph-name="s" horiz-adv-x="445" d="M175 -10T126 3T50 42V117Q50 124 58 124Q67 124 70 105L77 57Q100 37 141 27T220 17Q280 17 320 38T361 109Q361 142 347 162T303 199T213 237Q136 265 97 297T57 380Q57 441 104 469T217 497Q260 497
306 480T375 438V364Q375 357 367 357Q362 357 360 361T355 375L348 425Q328 446 290 458T217 470Q164 470 128 450T91 384Q91 354 108 334T155 299T241 262Q325 230 360 198T395 110Q395 49 345 20T220 -10Q175 -10 126 3Z" />
<glyph unicode="t" glyph-name="t" horiz-adv-x="357" d="M177 -10T148 18T119 98V459H52Q48 459 46 462T43 471Q43 478 48 482T61 487H119L127 587H151V487H302Q310 487 310 478Q310 472 304 470T282 466L151 459V95Q151 57 171 37T224 17Q249 17 266 24T299
46Q305 52 311 52Q315 52 318 49T322 40Q322 29 301 14Q266 -10 222 -10Q177 -10 148 18Z" />
<glyph unicode="u" glyph-name="u" horiz-adv-x="562" d="M187 -10T141 31T95 145V462H41Q37 462 35 465T32 473Q32 487 50 487H127V146Q127 89 162 54T260 18Q307 18 352 44T435 113V462H381Q377 462 375 465T372 473Q372 487 390 487H467V26L509 20Q519 18 523
16T527 8Q527 0 520 0H438V76H435Q347 -10 255 -10Q187 -10 141 31Z" />
<glyph unicode="v" glyph-name="v" horiz-adv-x="507" d="M65 462H21Q17 462 15 465T12 473Q12 487 30 487H173Q180 487 180 479Q180 469 163 467L100 461L244 48Q247 39 249 29T251 16H255Q255 19 257 29T262 48L406 462H336Q332 462 330 465T327 473Q327 487
345 487H488Q495 487 495 479Q495 469 478 467L433 461L274 0H226L65 462Z" />
<glyph unicode="w" glyph-name="w" horiz-adv-x="772" d="M65 462H21Q17 462 15 465T12 473Q12 487 30 487H173Q180 487 180 479Q180 469 163 467L99 461L223 44Q226 34 227 26T228 16H232Q232 18 233 26T237 44L372 487H398L538 44Q541 34 542 26T543 16H547Q547
18 548 26T552 44L671 462H601Q597 462 595 465T592 473Q592 487 610 487H753Q760 487 760 479Q760 469 743 467L699 461L566 0H518L391 405Q387 418 386 432T384 452H381Q381 447 380 433T374 405L251 0H203L65 462Z" />
<glyph unicode="x" glyph-name="x" horiz-adv-x="512" d="M28 0T26 3T23 11Q23 25 41 25H76L229 249L84 462H40Q36 462 34 465T31 473Q31 487 49 487H106L253 270L254 271L389 462H323Q319 462 317 465T314 473Q314 487 332 487H475Q482 487 482 479Q482 469 465
467L420 461L272 252L427 26L472 20Q489 18 489 8Q489 0 482 0H406L248 231L107 26L174 20Q191 18 191 8Q191 0 184 0H32Q28 0 26 3Z" />
<glyph unicode="y" glyph-name="y" horiz-adv-x="510" d="M38 -223T38 -205Q38 -199 41 -191Q118 -191 158 -159T224 -54L243 0L67 462H23Q19 462 17 465T14 473Q14 487 32 487H175Q182 487 182 479Q182 469 165 467L102 461L256 56Q258 51 258 46T258 38H261Q261
40 261 45T263 56L409 462H339Q335 462 333 465T330 473Q330 487 348 487H491Q498 487 498 479Q498 469 481 467L436 461L248 -66Q220 -145 174 -184T68 -223Q38 -223 38 -205Z" />
<glyph unicode="z" glyph-name="z" horiz-adv-x="465" d="M49 25L371 461H95L89 410Q86 390 73 390Q63 390 63 400V487H412V462L91 26H384L390 79Q393 99 406 99Q416 99 416 89V0H49V25Z" />
<glyph unicode="{" glyph-name="braceleft" horiz-adv-x="424" d="M255 -143T221 -115T186 -24V135Q186 208 158 240T62 280V313Q126 321 156 357T186 457V617Q186 681 220 708T309 736H369V708H308Q268 708 244 686T220 616V448Q220 389 192 352T109 296Q163
282 191 245T220 148V-23Q220 -69 244 -92T308 -115H369V-143H309Q255 -143 221 -115Z" />
<glyph unicode="|" glyph-name="bar" horiz-adv-x="262" d="M114 720H148V-135H114V720Z" />
<glyph unicode="}" glyph-name="braceright" horiz-adv-x="424" d="M55 -115H116Q155 -115 179 -92T204 -23V148Q204 207 232 244T315 296Q260 314 232 351T204 448V616Q204 663 180 685T116 708H55V736H115Q169 736 203 709T238 617V457Q238 394 268 358T362
313V280Q295 273 267 241T238 135V-24Q238 -87 204 -115T115 -143H55V-115Z" />
<glyph unicode="~" glyph-name="asciitilde" horiz-adv-x="605" d="M379 252T353 258T290 280Q258 294 237 299T190 304Q166 304 135 293T76 264L63 289Q87 306 123 320T192 334Q219 334 245 328T308 306Q340 292 361 287T408 282Q432 282 463 293T522 322L535
297Q511 280 475 266T406 252Q379 252 353 258Z" />
<glyph unicode="&#xa0;" glyph-name="uni00A0" horiz-adv-x="300" />
<glyph unicode="&#xa1;" glyph-name="exclamdown" horiz-adv-x="292" d="M132 419T122 428T112 453Q112 468 122 477T146 487Q160 487 170 478T180 453Q180 438 170 429T146 419Q132 419 122 428ZM133 331H159L168 -216H124L133 331Z" />
<glyph unicode="&#xa2;" glyph-name="cent" horiz-adv-x="549" d="M284 20Q180 27 125 100T70 290Q70 406 125 479T286 557V631H315V557Q358 554 403 537T470 496V418Q470 409 461 409Q455 409 453 413T448 429L441 483Q420 505 380 517T301 530Q210 530 157 466T103
290Q103 214 128 159T198 75T304 46Q394 46 449 91Q451 92 454 95T463 99Q469 99 472 94T475 84Q475 78 469 72T449 57Q423 39 388 30T313 19V-54H284V20Z" />
<glyph unicode="&#xa3;" glyph-name="sterling" horiz-adv-x="640" d="M67 0T65 3T62 12Q62 19 67 23T80 28H131Q173 62 188 94T204 173Q204 195 197 219T174 275H98Q94 275 92 278T89 287Q89 294 94 298T107 303H161Q144 342 136 370T127 430Q127 507 179 549T316
591Q369 591 417 573T503 525V433Q503 424 494 424Q482 424 479 446L470 514Q403 563 315 563Q244 563 202 529T160 429Q160 400 169 373T198 303H460Q467 303 467 295Q467 281 450 281L211 275H210Q237 214 237 169Q237 83 173 28H489L496 90Q498 102 501 107T511
112Q520 112 520 103V0H71Q67 0 65 3Z" />
<glyph unicode="&#xa4;" glyph-name="currency" horiz-adv-x="564" d="M85 98L147 171Q120 198 106 236T91 317Q91 360 105 398T147 463L85 536L111 554L171 483Q217 517 282 517Q347 517 393 483L453 554L479 536L417 463Q444 436 458 398T473 317Q473 274 459
236T417 171L479 98L453 80L393 151Q347 117 282 117Q217 117 171 151L111 80L85 98ZM328 144T364 166T421 227T442 317Q442 368 422 407T365 468T282 490Q236 490 200 468T143 407T122 317Q122 266 142 227T199 166T282 144Q328 144 364 166Z" />
<glyph unicode="&#xa5;" glyph-name="yen" horiz-adv-x="604" d="M219 0T217 3T214 12Q214 18 218 22T232 26H278V208H102V235H278V307L257 340H102V367H240L49 663H5Q1 663 -1 666T-4 675Q-4 689 13 689H166Q173 689 173 681Q173 670 157 668L93 662L299 339L518
663H457Q453 663 451 666T448 675Q448 689 465 689H609Q616 689 616 681Q616 670 600 668L552 662L352 367H488V340H334L312 308V235H488V208H312V27L370 21Q386 19 386 8Q386 0 379 0H223Q219 0 217 3Z" />
<glyph unicode="&#xa6;" glyph-name="brokenbar" horiz-adv-x="270" d="M118 735H152V360H118V735ZM118 205H152V-170H118V205Z" />
<glyph unicode="&#xa7;" glyph-name="section" horiz-adv-x="582" d="M229 -108T173 -93T84 -48V47Q84 56 93 56Q105 56 108 34L117 -36Q148 -58 193 -68T279 -79Q351 -79 398 -52T446 39Q446 78 427 103T371 146T259 193Q171 226 126 264T80 361Q80 421 120 456Q100
485 100 523Q100 595 155 630T290 665Q340 665 390 647T471 601V522Q471 514 463 514Q454 514 451 533L443 590Q415 614 374 625T289 636Q223 636 180 610T136 528Q136 490 155 466T209 424T313 381Q380 355 420 332T481 277T502 202Q502 146 465 109Q482 78 482
40Q482 -34 424 -71T279 -108Q229 -108 173 -93ZM466 162T466 201Q466 240 447 265T391 308T279 355Q230 374 196 392T140 432Q116 406 116 366Q116 328 135 304T189 262T293 219Q349 197 386 178T445 135Q466 162 466 201Z" />
<glyph unicode="&#xa8;" glyph-name="dieresis" horiz-adv-x="367" d="M81 547T71 556T61 581Q61 596 71 605T95 615Q109 615 119 606T129 581Q129 566 119 557T95 547Q81 547 71 556ZM259 547T249 556T239 581Q239 596 249 605T273 615Q287 615 297 606T307 581Q307
566 297 557T273 547Q259 547 249 556Z" />
<glyph unicode="&#xa9;" glyph-name="copyright" horiz-adv-x="789" d="M292 -10T215 34T95 157T53 337Q53 438 95 517T214 640T394 684Q497 684 574 640T694 517T736 337Q736 236 694 157T575 34T394 -10Q292 -10 215 34ZM487 17T557 58T665 172T704 337Q704
429 666 502T557 616T394 657Q301 657 231 616T123 502T85 337Q85 245 123 172T231 58T394 17Q487 17 557 58ZM320 141T275 195T229 337Q229 424 273 478T400 532Q435 532 471 518T526 484V424Q526 416 518 416Q513 416 511 419T507 432L501 471Q486 487 457 496T400
505Q335 505 298 462T261 337Q261 255 299 212T403 168Q463 168 507 201Q514 206 517 206Q521 206 523 203T526 194Q526 188 521 182T507 170Q464 141 403 141Q320 141 275 195Z" />
<glyph unicode="&#xaa;" glyph-name="ordfeminine" horiz-adv-x="402" d="M121 319T92 341T63 406Q63 484 179 501L281 516V545Q281 616 204 616Q183 616 157 608T111 589L106 556Q105 549 102 546T94 542Q84 542 84 552V606Q107 621 142 632T206 643Q255 643
283 618T311 546V352L341 347Q357 344 357 334Q357 325 349 325H282V381H279Q238 319 163 319Q121 319 92 341ZM196 346T222 359T264 396T281 446V489L177 472Q137 466 116 450T94 405Q94 376 114 361T169 346Q196 346 222 359Z" />
<glyph unicode="&#xab;" glyph-name="guillemotleft" horiz-adv-x="440" d="M75 224V250L189 422L209 407L106 237L209 67L189 52L75 224ZM221 224V250L335 422L355 407L252 237L355 67L335 52L221 224Z" />
<glyph unicode="&#xac;" glyph-name="logicalnot" horiz-adv-x="642" d="M518 326H84V356H549V141H518V326Z" />
<glyph unicode="&#xad;" glyph-name="uni00AD" horiz-adv-x="282" d="M55 281H227V253H55V281Z" />
<glyph unicode="&#xae;" glyph-name="registered" horiz-adv-x="475" d="M174 342T127 369T53 445T27 554Q27 614 53 662T126 738T236 766Q300 766 348 739T422 663T448 554Q448 494 422 446T348 370T236 342Q174 342 127 369ZM289 368T331 391T396 457T419 554Q419
608 396 650T331 716T236 740Q184 740 143 717T79 651T56 554Q56 500 79 458T143 392T236 368Q289 368 331 391ZM141 452T141 460Q141 470 155 470H175V636L162 639Q150 642 146 644T141 651Q141 659 151 659H251Q283 659 300 645T317 603Q317 576 300 562T251
548H231L310 471L326 467Q336 465 339 463T342 457Q342 452 338 452H293L201 544V471L218 467Q228 465 231 463T235 457Q235 452 230 452H148Q141 452 141 460ZM250 569Q292 569 292 603Q292 636 250 636H201V569H250Z" />
<glyph unicode="&#xaf;" glyph-name="overscore" horiz-adv-x="382" d="M56 585H326V557H56V585Z" />
<glyph unicode="&#xb0;" glyph-name="degree" horiz-adv-x="351" d="M123 554T89 586T55 672Q55 725 89 757T175 790Q227 790 261 758T295 672Q295 619 261 587T175 554Q123 554 89 586ZM212 581T238 605T264 672Q264 714 238 738T175 763Q138 763 112 739T86
672Q86 630 112 606T175 581Q212 581 238 605Z" />
<glyph unicode="&#xb1;" glyph-name="plusminus" horiz-adv-x="551" d="M261 380H67V408H261V600H290V408H484V380H290V188H261V380ZM67 28H484V0H67V28Z" />
<glyph unicode="&#xb2;" glyph-name="uni00B2" horiz-adv-x="321" d="M42 422L177 561Q206 591 224 618T242 671Q242 706 221 725T168 744Q123 744 80 719L75 684Q73 675 70 672T61 668Q51 668 51 678V730Q108 769 169 769Q212 769 242 743T273 671Q273 640 252
609T190 535L76 418H281V393H42V422Z" />
<glyph unicode="&#xb3;" glyph-name="uni00B3" horiz-adv-x="322" d="M114 383T84 390T32 407V433Q90 408 143 408Q191 408 219 428T247 488Q247 522 222 544T158 567Q151 567 95 561V587L139 592Q177 596 205 617T234 674Q234 710 212 727T155 744Q106 744 66
717L61 681Q59 672 57 669T48 665Q38 665 38 675V729Q61 747 93 758T157 769Q202 769 232 745T262 674Q262 643 245 620T198 585Q237 575 256 549T275 487Q275 435 241 409T145 383Q114 383 84 390Z" />
<glyph unicode="&#xb4;" glyph-name="acute" horiz-adv-x="261" d="M83 547L155 665L185 647L105 534L83 547Z" />
<glyph unicode="&#xb5;" glyph-name="uni00B5" horiz-adv-x="596" d="M93 48V487H125V136Q125 86 161 52T258 18Q305 18 350 44T433 113V487H465V55Q465 18 501 18Q527 18 563 39V11Q550 3 532 -3T498 -10Q471 -10 454 5T436 51V76H433Q392 36 348 13T253 -10Q214
-10 179 6T122 53L128 -240H87L93 48Z" />
<glyph unicode="&#xb6;" glyph-name="paragraph" horiz-adv-x="647" d="M258 -160T256 -157T253 -149Q253 -134 272 -134H326V392H275Q196 392 148 431T100 544Q100 622 153 658T295 695H515Q522 695 522 687Q522 676 506 674L454 668V-82H420V669H360V-134L510
-140Q527 -140 527 -152Q527 -160 520 -160H262Q258 -160 256 -157Z" />
<glyph unicode="&#xb7;" glyph-name="middot" horiz-adv-x="270" d="M117 305T105 317T92 349Q92 369 104 381T135 393Q153 393 165 381T178 349Q178 329 166 317T135 305Q117 305 105 317Z" />
<glyph unicode="&#xb8;" glyph-name="cedilla" horiz-adv-x="372" d="M133 -182Q167 -171 185 -153T203 -113Q203 -91 192 -78T154 -56L175 0H205L184 -44Q233 -65 233 -113Q233 -143 206 -166T140 -201L133 -182Z" />
<glyph unicode="&#xb9;" glyph-name="uni00B9" horiz-adv-x="230" d="M27 393T27 402Q27 414 42 414H97V735L35 714V738L98 761H127V414L173 411Q182 410 186 408T190 400Q190 393 184 393H36Q27 393 27 402Z" />
<glyph unicode="&#xba;" glyph-name="ordmasculine" horiz-adv-x="392" d="M130 319T94 364T57 481Q57 553 93 598T196 643Q262 643 298 598T335 481Q335 409 299 364T196 319Q130 319 94 364ZM247 346T275 382T304 481Q304 544 276 580T196 616Q145 616 117 580T88
481Q88 418 116 382T196 346Q247 346 275 382Z" />
<glyph unicode="&#xbb;" glyph-name="guillemotright" horiz-adv-x="440" d="M85 67L188 237L85 407L105 422L219 250V224L105 52L85 67ZM231 67L334 237L231 407L251 422L365 250V224L251 52L231 67Z" />
<glyph unicode="&#xbc;" glyph-name="onequarter" horiz-adv-x="789" d="M141 0L621 695L645 679L164 -16L141 0ZM43 307T43 316Q43 328 58 328H113V649L51 628V652L114 675H143V328L189 325Q198 324 202 322T206 314Q206 307 200 307H52Q43 307 43 316ZM670 94H488V124L662
368H700V119H754V94H700V0H670V94ZM670 119V335L517 119H670Z" />
<glyph unicode="&#xbd;" glyph-name="onehalf" horiz-adv-x="817" d="M141 0L621 695L645 679L164 -16L141 0ZM43 307T43 316Q43 328 58 328H113V649L51 628V652L114 675H143V328L189 325Q198 324 202 322T206 314Q206 307 200 307H52Q43 307 43 316ZM538 29L673
168Q702 198 720 225T738 278Q738 313 717 332T664 351Q619 351 576 326L571 291Q569 282 566 279T557 275Q547 275 547 285V337Q604 376 665 376Q708 376 738 350T769 278Q769 247 748 216T686 142L572 25H777V0H538V29Z" />
<glyph unicode="&#xbe;" glyph-name="threequarters" horiz-adv-x="800" d="M152 0L632 695L656 679L175 -16L152 0ZM116 297T86 304T34 321V347Q92 322 145 322Q193 322 221 342T249 402Q249 436 224 458T160 481L118 477Q113 477 97 475V501L141 506Q179 510
207 531T236 588Q236 624 214 641T157 658Q108 658 68 631L63 595Q61 586 59 583T50 579Q40 579 40 589V643Q63 661 95 672T159 683Q204 683 234 659T264 588Q264 557 247 534T200 499Q239 489 258 463T277 401Q277 349 243 323T147 297Q116 297 86 304ZM681 94H499V124L673
368H711V119H765V94H711V0H681V94ZM681 119V335L528 119H681Z" />
<glyph unicode="&#xbf;" glyph-name="questiondown" horiz-adv-x="463" d="M228 419T218 428T208 453Q208 468 218 477T242 487Q256 487 266 478T276 453Q276 438 266 429T242 419Q228 419 218 428ZM147 -223T104 -191T60 -90Q60 -37 85 -1T157 75Q197 109 211
140T226 230V331H258V219Q258 179 249 152T224 103T175 51Q147 25 132 8T105 -34T94 -90Q94 -142 127 -168T217 -195Q251 -195 287 -184T351 -151L358 -101Q360 -91 362 -87T370 -83Q378 -83 378 -90V-164Q346 -189 302 -206T217 -223Q147 -223 104 -191Z" />
<glyph unicode="&#xc0;" glyph-name="Agrave" horiz-adv-x="672" d="M277 863L307 881L379 763L357 750L277 863ZM20 0T18 3T15 12Q15 26 32 26H74L310 695H356L590 27L641 21Q657 19 657 8Q657 0 650 0H496Q492 0 490 3T487 12Q487 26 504 26H554L479 245H182L106
27L169 21Q185 19 185 8Q185 0 178 0H24Q20 0 18 3ZM468 273L330 665L192 273H468Z" />
<glyph unicode="&#xc1;" glyph-name="Aacute" horiz-adv-x="672" d="M287 762L359 880L389 862L309 749L287 762ZM20 0T18 3T15 12Q15 26 32 26H74L310 695H356L590 27L641 21Q657 19 657 8Q657 0 650 0H496Q492 0 490 3T487 12Q487 26 504 26H554L479 245H182L106
27L169 21Q185 19 185 8Q185 0 178 0H24Q20 0 18 3ZM468 273L330 665L192 273H468Z" />
<glyph unicode="&#xc2;" glyph-name="Acircumflex" horiz-adv-x="672" d="M222 763L317 881H343L438 763L417 749L330 840L243 749L222 763ZM20 0T18 3T15 12Q15 26 32 26H74L310 695H356L590 27L641 21Q657 19 657 8Q657 0 650 0H496Q492 0 490 3T487 12Q487
26 504 26H554L479 245H182L106 27L169 21Q185 19 185 8Q185 0 178 0H24Q20 0 18 3ZM468 273L330 665L192 273H468Z" />
<glyph unicode="&#xc3;" glyph-name="Atilde" horiz-adv-x="672" d="M362 760T330 776Q326 777 311 784T279 791Q249 791 210 763L195 781Q214 798 237 809T280 821Q296 821 314 813T336 804Q348 799 360 795T382 790Q413 790 451 818L466 800Q447 783 425 772T383
760Q362 760 330 776ZM20 0T18 3T15 12Q15 26 32 26H74L310 695H356L590 27L641 21Q657 19 657 8Q657 0 650 0H496Q492 0 490 3T487 12Q487 26 504 26H554L479 245H182L106 27L169 21Q185 19 185 8Q185 0 178 0H24Q20 0 18 3ZM468 273L330 665L192 273H468Z" />
<glyph unicode="&#xc4;" glyph-name="Adieresis" horiz-adv-x="672" d="M227 760T217 769T207 794Q207 809 217 818T241 828Q255 828 265 819T275 794Q275 779 265 770T241 760Q227 760 217 769ZM405 760T395 769T385 794Q385 809 395 818T419 828Q433 828 443
819T453 794Q453 779 443 770T419 760Q405 760 395 769ZM20 0T18 3T15 12Q15 26 32 26H74L310 695H356L590 27L641 21Q657 19 657 8Q657 0 650 0H496Q492 0 490 3T487 12Q487 26 504 26H554L479 245H182L106 27L169 21Q185 19 185 8Q185 0 178 0H24Q20 0 18 3ZM468
273L330 665L192 273H468Z" />
<glyph unicode="&#xc5;" glyph-name="Aring" horiz-adv-x="672" d="M300 730T280 751T259 802Q259 832 279 853T334 874Q368 874 388 853T409 802Q409 772 389 751T334 730Q300 730 280 751ZM355 753T368 766T382 802Q382 825 369 838T334 851Q313 851 300 838T286
802Q286 779 299 766T334 753Q355 753 368 766ZM20 0T18 3T15 12Q15 26 32 26H74L310 695H356L590 27L641 21Q657 19 657 8Q657 0 650 0H496Q492 0 490 3T487 12Q487 26 504 26H554L479 245H182L106 27L169 21Q185 19 185 8Q185 0 178 0H24Q20 0 18 3ZM468 273L330
665L192 273H468Z" />
<glyph unicode="&#xc6;" glyph-name="AE" horiz-adv-x="1098" d="M22 0T20 3T17 12Q17 26 34 26H76L532 667L486 673Q476 675 472 677T467 686Q467 695 475 695H1009V598Q1009 589 1000 589Q993 589 990 594T985 611L978 668H606V370H931L939 421Q941 434 944
438T953 443Q962 443 962 434V278Q962 269 953 269Q947 269 944 273T939 291L931 342H606V27H990L997 90Q999 102 1002 107T1012 112Q1021 112 1021 103V0H515Q507 0 507 9Q507 20 526 22L572 28V245H274L117 27L180 21Q196 19 196 8Q196 0 189 0H26Q22 0 20 3ZM572
273V667L291 273H572Z" />
<glyph unicode="&#xc7;" glyph-name="Ccedilla" horiz-adv-x="639" d="M307 -186Q341 -175 359 -157T377 -117Q377 -95 366 -82T328 -60L347 -9Q212 1 133 92T54 347Q54 462 92 542T201 664T366 705Q423 705 480 686T576 634V541Q576 532 567 532Q555 532 552
554L542 623Q510 650 464 663T366 676Q280 676 218 637T123 523T89 347Q89 245 124 171T225 58T379 19Q429 19 475 29T555 63Q556 64 560 66T568 69Q573 69 576 65T579 56Q579 45 555 31Q522 12 476 1T379 -10H376L358 -48Q407 -69 407 -117Q407 -147 380 -170T314
-205L307 -186Z" />
<glyph unicode="&#xc8;" glyph-name="Egrave" horiz-adv-x="656" d="M278 863L308 881L380 763L358 750L278 863ZM65 0T65 9Q65 20 84 22L130 28V667L84 673Q74 675 70 677T65 686Q65 695 73 695H567V598Q567 589 558 589Q551 589 548 594T543 611L536 668H164V370H489L497
421Q499 434 502 438T511 443Q520 443 520 434V278Q520 269 511 269Q505 269 502 273T497 291L489 342H164V27H548L555 90Q557 102 560 107T570 112Q579 112 579 103V0H73Q65 0 65 9Z" />
<glyph unicode="&#xc9;" glyph-name="Eacute" horiz-adv-x="656" d="M282 763L354 881L384 863L304 750L282 763ZM65 0T65 9Q65 20 84 22L130 28V667L84 673Q74 675 70 677T65 686Q65 695 73 695H567V598Q567 589 558 589Q551 589 548 594T543 611L536 668H164V370H489L497
421Q499 434 502 438T511 443Q520 443 520 434V278Q520 269 511 269Q505 269 502 273T497 291L489 342H164V27H548L555 90Q557 102 560 107T570 112Q579 112 579 103V0H73Q65 0 65 9Z" />
<glyph unicode="&#xca;" glyph-name="Ecircumflex" horiz-adv-x="656" d="M229 763L324 881H350L445 763L424 749L337 840L250 749L229 763ZM65 0T65 9Q65 20 84 22L130 28V667L84 673Q74 675 70 677T65 686Q65 695 73 695H567V598Q567 589 558 589Q551 589 548
594T543 611L536 668H164V370H489L497 421Q499 434 502 438T511 443Q520 443 520 434V278Q520 269 511 269Q505 269 502 273T497 291L489 342H164V27H548L555 90Q557 102 560 107T570 112Q579 112 579 103V0H73Q65 0 65 9Z" />
<glyph unicode="&#xcb;" glyph-name="Edieresis" horiz-adv-x="656" d="M238 760T228 769T218 794Q218 809 228 818T252 828Q266 828 276 819T286 794Q286 779 276 770T252 760Q238 760 228 769ZM416 760T406 769T396 794Q396 809 406 818T430 828Q444 828 454
819T464 794Q464 779 454 770T430 760Q416 760 406 769ZM65 0T65 9Q65 20 84 22L130 28V667L84 673Q74 675 70 677T65 686Q65 695 73 695H567V598Q567 589 558 589Q551 589 548 594T543 611L536 668H164V370H489L497 421Q499 434 502 438T511 443Q520 443 520 434V278Q520
269 511 269Q505 269 502 273T497 291L489 342H164V27H548L555 90Q557 102 560 107T570 112Q579 112 579 103V0H73Q65 0 65 9Z" />
<glyph unicode="&#xcc;" glyph-name="Igrave" horiz-adv-x="312" d="M100 863L130 881L202 763L180 750L100 863ZM75 0T73 3T70 12Q70 18 74 22T88 26H134V669H79Q75 669 73 672T70 681Q70 695 87 695H235Q242 695 242 687Q242 676 226 674L168 668V27L226 21Q242
19 242 8Q242 0 235 0H79Q75 0 73 3Z" />
<glyph unicode="&#xcd;" glyph-name="Iacute" horiz-adv-x="312" d="M109 763L181 881L211 863L131 750L109 763ZM75 0T73 3T70 12Q70 18 74 22T88 26H134V669H79Q75 669 73 672T70 681Q70 695 87 695H235Q242 695 242 687Q242 676 226 674L168 668V27L226 21Q242
19 242 8Q242 0 235 0H79Q75 0 73 3Z" />
<glyph unicode="&#xce;" glyph-name="Icircumflex" horiz-adv-x="308" d="M46 763L141 881H167L262 763L241 749L154 840L67 749L46 763ZM73 0T71 3T68 12Q68 18 72 22T86 26H132V669H77Q73 669 71 672T68 681Q68 695 85 695H233Q240 695 240 687Q240 676 224
674L166 668V27L224 21Q240 19 240 8Q240 0 233 0H77Q73 0 71 3Z" />
<glyph unicode="&#xcf;" glyph-name="Idieresis" horiz-adv-x="308" d="M51 760T41 769T31 794Q31 809 41 818T65 828Q79 828 89 819T99 794Q99 779 89 770T65 760Q51 760 41 769ZM229 760T219 769T209 794Q209 809 219 818T243 828Q257 828 267 819T277 794Q277
779 267 770T243 760Q229 760 219 769ZM76 0T74 3T71 12Q71 18 75 22T89 26H135V669H80Q76 669 74 672T71 681Q71 695 88 695H236Q243 695 243 687Q243 676 227 674L169 668V27L227 21Q243 19 243 8Q243 0 236 0H80Q76 0 74 3Z" />
<glyph unicode="&#xd0;" glyph-name="Eth" horiz-adv-x="715" d="M67 0T67 9Q67 20 86 22L132 28V339H67V369H132V667L86 673Q67 675 67 686Q67 695 75 695H338Q434 695 506 657T619 540T660 347Q660 233 620 155T507 39T338 0H75Q67 0 67 9ZM338 28Q424 28 489
65T589 174T625 347Q625 448 590 520T489 629T338 667H166V369H375V339H166V28H338Z" />
<glyph unicode="&#xd1;" glyph-name="Ntilde" horiz-adv-x="764" d="M410 760T378 776Q374 777 359 784T327 791Q297 791 258 763L243 781Q262 798 285 809T328 821Q344 821 362 813T384 804Q396 799 408 795T430 790Q461 790 499 818L514 800Q495 783 473 772T431
760Q410 760 378 776ZM71 0T69 3T66 12Q66 18 70 22T84 26H130V665L85 671Q74 673 70 675T65 685Q65 695 75 695H162L557 126Q585 84 602 51V669H541Q537 669 535 672T532 681Q532 695 549 695H695Q702 695 702 687Q702 676 686 674L634 668V0H602L206 570Q180
608 162 642V27L220 21Q236 19 236 8Q236 0 229 0H75Q71 0 69 3Z" />
<glyph unicode="&#xd2;" glyph-name="Ograve" horiz-adv-x="718" d="M306 863L336 881L408 763L386 750L306 863ZM216 -10T137 81T57 346Q57 520 136 612T359 705Q502 705 581 613T661 346Q661 173 582 82T359 -10Q216 -10 137 81ZM487 18T556 104T626 346Q626
502 556 589T359 677Q232 677 162 590T92 346Q92 191 161 105T359 18Q487 18 556 104Z" />
<glyph unicode="&#xd3;" glyph-name="Oacute" horiz-adv-x="718" d="M309 762L381 880L411 862L331 749L309 762ZM216 -10T137 81T57 346Q57 520 136 612T359 705Q502 705 581 613T661 346Q661 173 582 82T359 -10Q216 -10 137 81ZM487 18T556 104T626 346Q626
502 556 589T359 677Q232 677 162 590T92 346Q92 191 161 105T359 18Q487 18 556 104Z" />
<glyph unicode="&#xd4;" glyph-name="Ocircumflex" horiz-adv-x="718" d="M251 763L346 881H372L467 763L446 749L359 840L272 749L251 763ZM216 -10T137 81T57 346Q57 520 136 612T359 705Q502 705 581 613T661 346Q661 173 582 82T359 -10Q216 -10 137 81ZM487
18T556 104T626 346Q626 502 556 589T359 677Q232 677 162 590T92 346Q92 191 161 105T359 18Q487 18 556 104Z" />
<glyph unicode="&#xd5;" glyph-name="Otilde" horiz-adv-x="718" d="M391 760T359 776Q355 777 340 784T308 791Q277 791 239 763L224 781Q243 798 266 809T309 821Q325 821 343 813T365 804Q377 799 389 795T411 790Q442 790 480 818L495 800Q476 783 454 772T412
760Q391 760 359 776ZM216 -10T137 81T57 346Q57 520 136 612T359 705Q502 705 581 613T661 346Q661 173 582 82T359 -10Q216 -10 137 81ZM487 18T556 104T626 346Q626 502 556 589T359 677Q232 677 162 590T92 346Q92 191 161 105T359 18Q487 18 556 104Z" />
<glyph unicode="&#xd6;" glyph-name="Odieresis" horiz-adv-x="718" d="M256 760T246 769T236 794Q236 809 246 818T270 828Q284 828 294 819T304 794Q304 779 294 770T270 760Q256 760 246 769ZM434 760T424 769T414 794Q414 809 424 818T448 828Q462 828 472
819T482 794Q482 779 472 770T448 760Q434 760 424 769ZM216 -10T137 81T57 346Q57 520 136 612T359 705Q502 705 581 613T661 346Q661 173 582 82T359 -10Q216 -10 137 81ZM487 18T556 104T626 346Q626 502 556 589T359 677Q232 677 162 590T92 346Q92 191 161
105T359 18Q487 18 556 104Z" />
<glyph unicode="&#xd7;" glyph-name="multiply" horiz-adv-x="572" d="M66 153L259 350L66 546L90 569L282 373L474 569L498 546L305 350L498 153L474 130L282 326L90 130L66 153Z" />
<glyph unicode="&#xd8;" glyph-name="Oslash" horiz-adv-x="729" d="M97 -59L169 54Q117 98 90 171T62 346Q62 520 141 612T364 705Q477 705 551 646L610 738L639 722L576 624Q666 529 666 346Q666 173 587 82T364 -10Q266 -10 196 34L126 -75L97 -59ZM533 619Q467
677 364 677Q237 677 167 590T97 346Q97 258 120 191T188 82L533 619ZM492 18T561 104T631 346Q631 506 557 594L213 61Q276 18 364 18Q492 18 561 104Z" />
<glyph unicode="&#xd9;" glyph-name="Ugrave" horiz-adv-x="754" d="M324 863L354 881L426 763L404 750L324 863ZM249 -10T182 60T114 257V669H59Q55 669 53 672T50 681Q50 695 67 695H215Q222 695 222 687Q222 676 206 674L148 668V263Q148 145 206 83T377 20Q489
20 547 82T606 263V669H546Q542 669 540 672T537 681Q537 695 554 695H697Q704 695 704 687Q704 676 688 674L636 668V257Q636 131 570 61T377 -10Q249 -10 182 60Z" />
<glyph unicode="&#xda;" glyph-name="Uacute" horiz-adv-x="754" d="M326 762L398 880L428 862L348 749L326 762ZM249 -10T182 60T114 257V669H59Q55 669 53 672T50 681Q50 695 67 695H215Q222 695 222 687Q222 676 206 674L148 668V263Q148 145 206 83T377 20Q489
20 547 82T606 263V669H546Q542 669 540 672T537 681Q537 695 554 695H697Q704 695 704 687Q704 676 688 674L636 668V257Q636 131 570 61T377 -10Q249 -10 182 60Z" />
<glyph unicode="&#xdb;" glyph-name="Ucircumflex" horiz-adv-x="754" d="M269 763L364 881H390L485 763L464 749L377 840L290 749L269 763ZM249 -10T182 60T114 257V669H59Q55 669 53 672T50 681Q50 695 67 695H215Q222 695 222 687Q222 676 206 674L148 668V263Q148
145 206 83T377 20Q489 20 547 82T606 263V669H546Q542 669 540 672T537 681Q537 695 554 695H697Q704 695 704 687Q704 676 688 674L636 668V257Q636 131 570 61T377 -10Q249 -10 182 60Z" />
<glyph unicode="&#xdc;" glyph-name="Udieresis" horiz-adv-x="754" d="M274 760T264 769T254 794Q254 809 264 818T288 828Q302 828 312 819T322 794Q322 779 312 770T288 760Q274 760 264 769ZM452 760T442 769T432 794Q432 809 442 818T466 828Q480 828 490
819T500 794Q500 779 490 770T466 760Q452 760 442 769ZM249 -10T182 60T114 257V669H59Q55 669 53 672T50 681Q50 695 67 695H215Q222 695 222 687Q222 676 206 674L148 668V263Q148 145 206 83T377 20Q489 20 547 82T606 263V669H546Q542 669 540 672T537 681Q537
695 554 695H697Q704 695 704 687Q704 676 688 674L636 668V257Q636 131 570 61T377 -10Q249 -10 182 60Z" />
<glyph unicode="&#xdd;" glyph-name="Yacute" horiz-adv-x="666" d="M288 763L360 881L390 863L310 750L288 763ZM246 0T244 3T241 12Q241 18 245 22T259 26H305V307L72 669H28Q24 669 22 672T19 681Q19 695 36 695H189Q196 695 196 687Q196 676 180 674L116 668L326
339L549 669H488Q484 669 482 672T479 681Q479 695 496 695H640Q647 695 647 687Q647 676 631 674L583 668L339 308V27L397 21Q413 19 413 8Q413 0 406 0H250Q246 0 244 3Z" />
<glyph unicode="&#xde;" glyph-name="Thorn" horiz-adv-x="605" d="M70 0T68 3T65 12Q65 18 69 22T83 26H129V669H74Q70 669 68 672T65 681Q65 695 82 695H230Q237 695 237 687Q237 676 221 674L163 668V546Q227 566 299 566Q411 566 477 510T543 352Q543 250
477 194T299 138Q227 138 163 158V27L221 21Q237 19 237 8Q237 0 230 0H74Q70 0 68 3ZM390 165T449 211T509 352Q509 447 450 493T299 539Q233 539 163 517V187Q233 165 299 165Q390 165 449 211Z" />
<glyph unicode="&#xdf;" glyph-name="germandbls" horiz-adv-x="652" d="M375 -10T331 3T259 42V117Q259 124 267 124Q276 124 279 105L286 57Q309 36 345 27T419 17Q482 17 516 51T551 135Q551 172 533 199T477 261Q441 296 423 322T405 385Q405 415 416 437T450
488Q470 514 480 533T490 576Q490 626 445 658T332 691Q247 691 204 646T160 516V0H74Q70 0 68 3T65 11Q65 25 83 25H128V518Q128 612 181 665T333 719Q387 719 430 700T498 648T523 578Q523 548 512 527T477 473Q456 446 446 427T436 385Q436 357 451 336T500
282Q541 243 562 211T584 132Q584 96 566 64T511 11T419 -10Q375 -10 331 3Z" />
<glyph unicode="&#xe0;" glyph-name="agrave" horiz-adv-x="506" d="M201 670L231 688L303 570L281 557L201 670ZM139 -10T95 25T51 124Q51 240 220 266L385 291V343Q385 398 351 434T256 471Q221 471 178 458T103 426L96 378Q94 368 92 364T84 360Q76 360 76
367V441Q114 465 164 481T258 497Q326 497 371 456T417 344V26L459 20Q469 18 473 16T477 8Q477 0 470 0H387V86H383Q320 -10 201 -10Q139 -10 95 25ZM253 16T293 36T359 91T385 170V265L232 241Q162 230 124 204T85 126Q85 71 120 44T210 16Q253 16 293 36Z" />
<glyph unicode="&#xe1;" glyph-name="aacute" horiz-adv-x="506" d="M214 570L286 688L316 670L236 557L214 570ZM139 -10T95 25T51 124Q51 240 220 266L385 291V343Q385 398 351 434T256 471Q221 471 178 458T103 426L96 378Q94 368 92 364T84 360Q76 360 76
367V441Q114 465 164 481T258 497Q326 497 371 456T417 344V26L459 20Q469 18 473 16T477 8Q477 0 470 0H387V86H383Q320 -10 201 -10Q139 -10 95 25ZM253 16T293 36T359 91T385 170V265L232 241Q162 230 124 204T85 126Q85 71 120 44T210 16Q253 16 293 36Z" />
<glyph unicode="&#xe2;" glyph-name="acircumflex" horiz-adv-x="506" d="M145 571L240 689H266L361 571L340 557L253 648L166 557L145 571ZM139 -10T95 25T51 124Q51 240 220 266L385 291V343Q385 398 351 434T256 471Q221 471 178 458T103 426L96 378Q94 368
92 364T84 360Q76 360 76 367V441Q114 465 164 481T258 497Q326 497 371 456T417 344V26L459 20Q469 18 473 16T477 8Q477 0 470 0H387V86H383Q320 -10 201 -10Q139 -10 95 25ZM253 16T293 36T359 91T385 170V265L232 241Q162 230 124 204T85 126Q85 71 120 44T210
16Q253 16 293 36Z" />
<glyph unicode="&#xe3;" glyph-name="atilde" horiz-adv-x="506" d="M284 566T252 582Q248 583 233 590T201 597Q171 597 132 569L117 587Q136 604 159 615T202 627Q218 627 236 619T258 610Q270 605 282 601T304 596Q334 596 373 624L388 606Q369 589 347 578T305
566Q284 566 252 582ZM139 -10T95 25T51 124Q51 240 220 266L385 291V343Q385 398 351 434T256 471Q221 471 178 458T103 426L96 378Q94 368 92 364T84 360Q76 360 76 367V441Q114 465 164 481T258 497Q326 497 371 456T417 344V26L459 20Q469 18 473 16T477 8Q477
0 470 0H387V86H383Q320 -10 201 -10Q139 -10 95 25ZM253 16T293 36T359 91T385 170V265L232 241Q162 230 124 204T85 126Q85 71 120 44T210 16Q253 16 293 36Z" />
<glyph unicode="&#xe4;" glyph-name="adieresis" horiz-adv-x="506" d="M160 566T150 575T140 600Q140 615 150 624T174 634Q188 634 198 625T208 600Q208 585 198 576T174 566Q160 566 150 575ZM338 566T328 575T318 600Q318 615 328 624T352 634Q366 634 376
625T386 600Q386 585 376 576T352 566Q338 566 328 575ZM139 -10T95 25T51 124Q51 240 220 266L385 291V343Q385 398 351 434T256 471Q221 471 178 458T103 426L96 378Q94 368 92 364T84 360Q76 360 76 367V441Q114 465 164 481T258 497Q326 497 371 456T417 344V26L459
20Q469 18 473 16T477 8Q477 0 470 0H387V86H383Q320 -10 201 -10Q139 -10 95 25ZM253 16T293 36T359 91T385 170V265L232 241Q162 230 124 204T85 126Q85 71 120 44T210 16Q253 16 293 36Z" />
<glyph unicode="&#xe5;" glyph-name="aring" horiz-adv-x="506" d="M226 551T206 572T185 623Q185 653 205 674T260 695Q294 695 314 674T335 623Q335 593 315 572T260 551Q226 551 206 572ZM281 574T294 587T308 623Q308 646 295 659T260 672Q239 672 226 659T212
623Q212 600 225 587T260 574Q281 574 294 587ZM139 -10T95 25T51 124Q51 240 220 266L385 291V343Q385 398 351 434T256 471Q221 471 178 458T103 426L96 378Q94 368 92 364T84 360Q76 360 76 367V441Q114 465 164 481T258 497Q326 497 371 456T417 344V26L459
20Q469 18 473 16T477 8Q477 0 470 0H387V86H383Q320 -10 201 -10Q139 -10 95 25ZM253 16T293 36T359 91T385 170V265L232 241Q162 230 124 204T85 126Q85 71 120 44T210 16Q253 16 293 36Z" />
<glyph unicode="&#xe6;" glyph-name="ae" horiz-adv-x="840" d="M139 -10T95 24T51 118Q51 230 206 254L385 281V342Q385 403 349 437T256 471Q221 471 178 458T103 426L96 378Q94 368 92 364T84 360Q76 360 76 367V441Q114 465 164 481T258 497Q316 497 358 467T413
382Q439 436 486 466T601 497Q664 497 708 471T773 400T795 303Q795 279 786 256H418V238Q418 180 439 129T502 47T606 16Q688 16 742 59Q750 65 755 65Q760 65 763 61T766 52Q766 46 760 41T742 27Q683 -10 606 -10Q534 -10 482 25T405 125Q381 63 327 27T201
-10Q139 -10 95 24ZM759 282Q762 291 762 308Q762 381 718 426T601 471Q521 471 474 423T419 282H759ZM252 16T294 40T362 103T389 185Q385 214 385 231Q385 247 386 255L218 229Q157 220 121 195T85 120Q85 68 120 42T210 16Q252 16 294 40Z" />
<glyph unicode="&#xe7;" glyph-name="ccedilla" horiz-adv-x="470" d="M198 -186Q232 -175 250 -157T268 -117Q268 -95 257 -82T219 -60L238 -9Q144 1 95 69T46 244Q46 358 101 427T262 497Q305 497 351 480T420 438V364Q420 357 412 357Q407 357 405 361T400
375L393 425Q373 446 335 458T262 470Q177 470 128 410T79 244Q79 137 129 77T265 16Q347 16 401 59Q409 65 414 65Q419 65 422 61T425 52Q425 43 401 27Q346 -10 267 -10L249 -48Q298 -69 298 -117Q298 -147 271 -170T205 -205L198 -186Z" />
<glyph unicode="&#xe8;" glyph-name="egrave" horiz-adv-x="504" d="M204 670L234 688L306 570L284 557L204 670ZM165 -10T107 59T48 241Q48 356 103 426T264 497Q358 497 408 441T459 291Q459 266 450 243H81Q81 134 133 75T269 16Q351 16 405 59Q413 65 418
65Q423 65 426 61T429 52Q429 46 423 41T405 27Q346 -10 269 -10Q165 -10 107 59ZM423 269Q426 278 426 296Q426 381 381 426T264 471Q186 471 138 417T82 269H423Z" />
<glyph unicode="&#xe9;" glyph-name="eacute" horiz-adv-x="504" d="M205 570L277 688L307 670L227 557L205 570ZM165 -10T107 59T48 241Q48 356 103 426T264 497Q358 497 408 441T459 291Q459 266 450 243H81Q81 134 133 75T269 16Q351 16 405 59Q413 65 418
65Q423 65 426 61T429 52Q429 46 423 41T405 27Q346 -10 269 -10Q165 -10 107 59ZM423 269Q426 278 426 296Q426 381 381 426T264 471Q186 471 138 417T82 269H423Z" />
<glyph unicode="&#xea;" glyph-name="ecircumflex" horiz-adv-x="504" d="M150 571L245 689H271L366 571L345 557L258 648L171 557L150 571ZM165 -10T107 59T48 241Q48 356 103 426T264 497Q358 497 408 441T459 291Q459 266 450 243H81Q81 134 133 75T269 16Q351
16 405 59Q413 65 418 65Q423 65 426 61T429 52Q429 46 423 41T405 27Q346 -10 269 -10Q165 -10 107 59ZM423 269Q426 278 426 296Q426 381 381 426T264 471Q186 471 138 417T82 269H423Z" />
<glyph unicode="&#xeb;" glyph-name="edieresis" horiz-adv-x="504" d="M157 566T147 575T137 600Q137 615 147 624T171 634Q185 634 195 625T205 600Q205 585 195 576T171 566Q157 566 147 575ZM335 566T325 575T315 600Q315 615 325 624T349 634Q363 634 373
625T383 600Q383 585 373 576T349 566Q335 566 325 575ZM165 -10T107 59T48 241Q48 356 103 426T264 497Q358 497 408 441T459 291Q459 266 450 243H81Q81 134 133 75T269 16Q351 16 405 59Q413 65 418 65Q423 65 426 61T429 52Q429 46 423 41T405 27Q346 -10 269
-10Q165 -10 107 59ZM423 269Q426 278 426 296Q426 381 381 426T264 471Q186 471 138 417T82 269H423Z" />
<glyph unicode="&#xec;" glyph-name="igrave" horiz-adv-x="253" d="M53 670L83 688L155 570L133 557L53 670ZM61 0T59 3T56 11Q56 25 74 25H120V462H65Q61 462 59 465T56 473Q56 487 74 487H152V26L207 20Q224 18 224 8Q224 0 217 0H65Q61 0 59 3Z" />
<glyph unicode="&#xed;" glyph-name="iacute" horiz-adv-x="252" d="M77 570L149 688L179 670L99 557L77 570ZM61 0T59 3T56 11Q56 25 74 25H120V462H65Q61 462 59 465T56 473Q56 487 74 487H152V26L207 20Q224 18 224 8Q224 0 217 0H65Q61 0 59 3Z" />
<glyph unicode="&#xee;" glyph-name="icircumflex" horiz-adv-x="260" d="M20 571L115 689H141L236 571L215 557L128 648L41 557L20 571ZM71 0T69 3T66 11Q66 25 84 25H130V462H75Q71 462 69 465T66 473Q66 487 84 487H162V26L217 20Q234 18 234 8Q234 0 227 0H75Q71
0 69 3Z" />
<glyph unicode="&#xef;" glyph-name="idieresis" horiz-adv-x="285" d="M37 566T27 575T17 600Q17 615 27 624T51 634Q65 634 75 625T85 600Q85 585 75 576T51 566Q37 566 27 575ZM215 566T205 575T195 600Q195 615 205 624T229 634Q243 634 253 625T263 600Q263
585 253 576T229 566Q215 566 205 575ZM83 0T81 3T78 11Q78 25 96 25H142V462H87Q83 462 81 465T78 473Q78 487 96 487H174V26L229 20Q246 18 246 8Q246 0 239 0H87Q83 0 81 3Z" />
<glyph unicode="&#xf0;" glyph-name="eth" horiz-adv-x="579" d="M210 -10T163 16T88 92T60 213Q60 303 110 353T249 403Q310 403 360 383T459 326Q459 497 383 585L272 535L261 561L363 606Q293 668 181 668Q151 668 117 660V687Q147 695 184 695Q315 695 393
620L508 671L519 646L413 598Q454 548 474 477T494 319Q494 164 438 77T265 -10Q210 -10 163 16ZM360 19T409 96T458 295Q422 327 368 350T265 374Q96 374 96 213Q96 151 120 107T183 41T269 19Q360 19 409 96Z" />
<glyph unicode="&#xf1;" glyph-name="ntilde" horiz-adv-x="595" d="M347 566T315 582Q311 583 296 590T264 597Q234 597 195 569L180 587Q199 604 222 615T265 627Q281 627 299 619T321 610Q333 605 345 601T367 596Q398 596 436 624L451 606Q432 589 410 578T368
566Q347 566 315 582ZM60 0T58 3T55 11Q55 25 73 25H118V462H64Q60 462 58 465T55 473Q55 487 73 487H147V411H150Q238 497 331 497Q399 497 445 456T492 344V26L548 20Q565 18 565 8Q565 0 558 0H406Q402 0 400 3T397 11Q397 25 415 25H460V343Q460 398 424 433T326
469Q280 469 234 444T150 376V26L206 20Q223 18 223 8Q223 0 216 0H64Q60 0 58 3Z" />
<glyph unicode="&#xf2;" glyph-name="ograve" horiz-adv-x="526" d="M210 670L240 688L312 570L290 557L210 670ZM157 -10T102 59T47 244Q47 358 102 427T263 497Q369 497 424 428T479 244Q479 129 424 60T263 -10Q157 -10 102 59ZM348 16T397 76T446 244Q446
351 397 411T263 471Q178 471 129 411T80 244Q80 137 129 77T263 16Q348 16 397 76Z" />
<glyph unicode="&#xf3;" glyph-name="oacute" horiz-adv-x="526" d="M213 570L285 688L315 670L235 557L213 570ZM157 -10T102 59T47 244Q47 358 102 427T263 497Q369 497 424 428T479 244Q479 129 424 60T263 -10Q157 -10 102 59ZM348 16T397 76T446 244Q446
351 397 411T263 471Q178 471 129 411T80 244Q80 137 129 77T263 16Q348 16 397 76Z" />
<glyph unicode="&#xf4;" glyph-name="ocircumflex" horiz-adv-x="526" d="M155 571L250 689H276L371 571L350 557L263 648L176 557L155 571ZM157 -10T102 59T47 244Q47 358 102 427T263 497Q369 497 424 428T479 244Q479 129 424 60T263 -10Q157 -10 102 59ZM348
16T397 76T446 244Q446 351 397 411T263 471Q178 471 129 411T80 244Q80 137 129 77T263 16Q348 16 397 76Z" />
<glyph unicode="&#xf5;" glyph-name="otilde" horiz-adv-x="526" d="M295 566T263 582Q259 583 244 590T212 597Q182 597 143 569L128 587Q147 604 170 615T213 627Q229 627 247 619T269 610Q281 605 293 601T315 596Q345 596 384 624L399 606Q380 589 358 578T316
566Q295 566 263 582ZM157 -10T102 59T47 244Q47 358 102 427T263 497Q369 497 424 428T479 244Q479 129 424 60T263 -10Q157 -10 102 59ZM348 16T397 76T446 244Q446 351 397 411T263 471Q178 471 129 411T80 244Q80 137 129 77T263 16Q348 16 397 76Z" />
<glyph unicode="&#xf6;" glyph-name="odieresis" horiz-adv-x="526" d="M160 566T150 575T140 600Q140 615 150 624T174 634Q188 634 198 625T208 600Q208 585 198 576T174 566Q160 566 150 575ZM338 566T328 575T318 600Q318 615 328 624T352 634Q366 634 376
625T386 600Q386 585 376 576T352 566Q338 566 328 575ZM157 -10T102 59T47 244Q47 358 102 427T263 497Q369 497 424 428T479 244Q479 129 424 60T263 -10Q157 -10 102 59ZM348 16T397 76T446 244Q446 351 397 411T263 471Q178 471 129 411T80 244Q80 137 129
77T263 16Q348 16 397 76Z" />
<glyph unicode="&#xf7;" glyph-name="divide" horiz-adv-x="615" d="M294 504T284 513T274 538Q274 553 284 562T308 572Q322 572 332 563T342 538Q342 523 332 514T308 504Q294 504 284 513ZM69 348H546V320H69V348ZM294 96T284 105T274 130Q274 145 284 154T308
164Q322 164 332 155T342 130Q342 115 332 106T308 96Q294 96 284 105Z" />
<glyph unicode="&#xf8;" glyph-name="oslash" horiz-adv-x="526" d="M56 -51L117 43Q82 76 65 127T47 244Q47 358 102 427T263 497Q338 497 389 460L433 528L458 513L411 441Q445 408 462 358T479 244Q479 129 424 60T263 -10Q189 -10 140 24L81 -66L56 -51ZM372
435Q328 471 263 471Q178 471 129 411T80 244Q80 131 135 70L372 435ZM348 16T397 76T446 244Q446 353 394 414L156 50Q201 16 263 16Q348 16 397 76Z" />
<glyph unicode="&#xf9;" glyph-name="ugrave" horiz-adv-x="562" d="M206 670L236 688L308 570L286 557L206 670ZM187 -10T141 31T95 145V462H41Q37 462 35 465T32 473Q32 487 50 487H127V146Q127 89 162 54T260 18Q307 18 352 44T435 113V462H381Q377 462 375
465T372 473Q372 487 390 487H467V26L509 20Q519 18 523 16T527 8Q527 0 520 0H438V76H435Q347 -10 255 -10Q187 -10 141 31Z" />
<glyph unicode="&#xfa;" glyph-name="uacute" horiz-adv-x="562" d="M229 570L301 688L331 670L251 557L229 570ZM187 -10T141 31T95 145V462H41Q37 462 35 465T32 473Q32 487 50 487H127V146Q127 89 162 54T260 18Q307 18 352 44T435 113V462H381Q377 462 375
465T372 473Q372 487 390 487H467V26L509 20Q519 18 523 16T527 8Q527 0 520 0H438V76H435Q347 -10 255 -10Q187 -10 141 31Z" />
<glyph unicode="&#xfb;" glyph-name="ucircumflex" horiz-adv-x="562" d="M158 571L253 689H279L374 571L353 557L266 648L179 557L158 571ZM187 -10T141 31T95 145V462H41Q37 462 35 465T32 473Q32 487 50 487H127V146Q127 89 162 54T260 18Q307 18 352 44T435
113V462H381Q377 462 375 465T372 473Q372 487 390 487H467V26L509 20Q519 18 523 16T527 8Q527 0 520 0H438V76H435Q347 -10 255 -10Q187 -10 141 31Z" />
<glyph unicode="&#xfc;" glyph-name="udieresis" horiz-adv-x="562" d="M175 566T165 575T155 600Q155 615 165 624T189 634Q203 634 213 625T223 600Q223 585 213 576T189 566Q175 566 165 575ZM353 566T343 575T333 600Q333 615 343 624T367 634Q381 634 391
625T401 600Q401 585 391 576T367 566Q353 566 343 575ZM187 -10T141 31T95 145V462H41Q37 462 35 465T32 473Q32 487 50 487H127V146Q127 89 162 54T260 18Q307 18 352 44T435 113V462H381Q377 462 375 465T372 473Q372 487 390 487H467V26L509 20Q519 18 523
16T527 8Q527 0 520 0H438V76H435Q347 -10 255 -10Q187 -10 141 31Z" />
<glyph unicode="&#xfd;" glyph-name="yacute" horiz-adv-x="510" d="M209 570L281 688L311 670L231 557L209 570ZM50 -223T44 -219T38 -205Q38 -199 41 -191Q118 -191 158 -159T224 -54L243 0L67 462H23Q19 462 17 465T14 473Q14 487 32 487H175Q182 487 182 479Q182
469 165 467L102 461L256 56Q258 51 258 46T258 38H261Q261 40 261 45T263 56L409 462H339Q335 462 333 465T330 473Q330 487 348 487H491Q498 487 498 479Q498 469 481 467L436 461L248 -66Q221 -142 176 -182T59 -223Q50 -223 44 -219Z" />
<glyph unicode="&#xfe;" glyph-name="thorn" horiz-adv-x="582" d="M67 -213T65 -210T62 -202Q62 -188 80 -188H125V685H71Q67 685 65 688T62 696Q62 710 80 710H154V408H156Q187 452 233 474T334 497Q428 497 481 432T535 240Q535 116 475 53T313 -10Q277 -10
235 1T157 32V-187L213 -193Q230 -195 230 -205Q230 -213 223 -213H71Q67 -213 65 -210ZM501 16T501 239Q501 361 454 416T328 471Q283 471 244 452T181 400T157 330V64Q185 44 229 30T308 16Q501 16 501 239Z" />
<glyph unicode="&#xff;" glyph-name="ydieresis" horiz-adv-x="510" d="M157 566T147 575T137 600Q137 615 147 624T171 634Q185 634 195 625T205 600Q205 585 195 576T171 566Q157 566 147 575ZM335 566T325 575T315 600Q315 615 325 624T349 634Q363 634 373
625T383 600Q383 585 373 576T349 566Q335 566 325 575ZM50 -223T44 -219T38 -205Q38 -199 41 -191Q118 -191 158 -159T224 -54L243 0L67 462H23Q19 462 17 465T14 473Q14 487 32 487H175Q182 487 182 479Q182 469 165 467L102 461L256 56Q258 51 258 46T258 38H261Q261
40 261 45T263 56L409 462H339Q335 462 333 465T330 473Q330 487 348 487H491Q498 487 498 479Q498 469 481 467L436 461L248 -66Q221 -142 176 -182T59 -223Q50 -223 44 -219Z" />
<glyph unicode="&#x2013;" glyph-name="endash" horiz-adv-x="517" d="M20 333H497V305H20V333Z" />
<glyph unicode="&#x2014;" glyph-name="emdash" horiz-adv-x="907" d="M20 333H887V305H20V333Z" />
<glyph unicode="&#x2018;" glyph-name="quoteleft" horiz-adv-x="237" d="M72 530Q94 634 146 708L165 696Q145 666 131 625T113 552L146 541Q152 539 152 533Q152 523 146 519T129 517L72 530Z" />
<glyph unicode="&#x2019;" glyph-name="quoteright" horiz-adv-x="237" d="M72 526Q92 556 106 597T124 670L91 681Q85 683 85 689Q85 699 91 703T108 705L165 692Q143 588 91 514L72 526Z" />
<glyph unicode="&#x201a;" glyph-name="quotesinglbase" horiz-adv-x="243" d="M76 -81Q97 -50 113 -5T133 72L100 83Q94 85 94 91Q94 101 100 105T117 107L174 94Q163 44 143 -5T95 -93L76 -81Z" />
<glyph unicode="&#x201c;" glyph-name="quotedblleft" horiz-adv-x="359" d="M72 530Q94 634 146 708L165 696Q145 666 131 625T113 552L146 541Q152 539 152 533Q152 523 146 519T129 517L72 530ZM194 530Q216 634 268 708L287 696Q267 666 253 625T235 552L268
541Q274 539 274 533Q274 523 268 519T251 517L194 530Z" />
<glyph unicode="&#x201d;" glyph-name="quotedblright" horiz-adv-x="359" d="M72 526Q92 556 106 597T124 670L91 681Q85 683 85 689Q85 699 91 703T108 705L165 692Q143 588 91 514L72 526ZM194 526Q214 556 228 597T246 670L213 681Q207 683 207 689Q207 699
213 703T230 705L287 692Q265 588 213 514L194 526Z" />
<glyph unicode="&#x201e;" glyph-name="quotedblbase" horiz-adv-x="366" d="M76 -81Q97 -50 113 -5T133 72L100 83Q94 85 94 91Q94 101 100 105T117 107L174 94Q163 44 143 -5T95 -93L76 -81ZM198 -81Q219 -50 235 -5T255 72L222 83Q216 85 216 91Q216 101 222
105T239 107L296 94Q285 44 265 -5T217 -93L198 -81Z" />
<glyph unicode="&#x2022;" glyph-name="bullet" horiz-adv-x="346" d="M141 182T121 202T100 255Q100 287 120 307T173 328Q205 328 225 308T246 255Q246 223 226 203T173 182Q141 182 121 202Z" />
<glyph unicode="&#x2039;" glyph-name="guilsinglleft" horiz-adv-x="294" d="M75 224V250L189 422L209 407L106 237L209 67L189 52L75 224Z" />
<glyph unicode="&#x203a;" glyph-name="guilsinglright" horiz-adv-x="294" d="M85 67L188 237L85 407L105 422L219 250V224L105 52L85 67Z" />
</font>
</defs>
</svg>
