<?xml version="1.0" standalone="no"?>
<!DOCTYPE svg PUBLIC "-//W3C//DTD SVG 1.1//EN" "http://www.w3.org/Graphics/SVG/1.1/DTD/svg11.dtd">
<svg xmlns="http://www.w3.org/2000/svg">
<defs >
<font id="Pacifico" horiz-adv-x="590" ><font-face
    font-family="Pacifico"
    units-per-em="1000"
    panose-1="0 0 5 0 0 0 0 0 0 0"
    ascent="1303"
    descent="-453"
    alphabetic="0" />
<glyph unicode=" " glyph-name="space" horiz-adv-x="265" />
<glyph unicode="!" glyph-name="exclam" horiz-adv-x="340" d="M140 234T127 243T114 271L115 279Q132 391 161 534T215 781Q231 845 302 845Q366 845 366 804Q366 795 363 784Q337 678 294 528T212 266Q201 234 160 234Q140 234 127 243ZM78 -5T56 19T33 82Q33
127 58 154T130 181Q174 181 196 160T219 96Q219 50 193 23T122 -5Q78 -5 56 19Z" />
<glyph unicode="&quot;" glyph-name="quotedbl" horiz-adv-x="510" d="M144 502T128 515T114 561L134 752Q144 844 221 844Q287 844 287 782Q287 768 282 745L242 561Q235 529 215 516T169 502Q144 502 128 515ZM364 502T348 515T334 561L354 752Q364 844 441
844Q507 844 507 782Q507 768 502 745L462 561Q455 529 435 516T389 502Q364 502 348 515Z" />
<glyph unicode="#" glyph-name="numbersign" horiz-adv-x="700" d="M549 346L516 230H589Q641 230 641 175Q641 147 628 132T589 116H483L464 52Q455 23 435 8T391 -8Q370 -8 355 5T340 43Q340 53 343 65L358 116H241L222 52Q213 23 193 8T149 -8Q128 -8 113 5T98
43Q98 53 101 65L116 116H87Q62 116 48 131T34 175Q34 202 48 216T87 230H149L183 346H127Q102 346 88 361T74 405Q74 432 88 446T127 460H216L235 526Q243 555 263 569T307 584Q330 584 345 572T361 538Q361 529 358 520L341 460H458L477 526Q485 555 505 569T549
584Q572 584 587 572T603 538Q603 529 600 520L583 460H629Q681 460 681 405Q681 377 668 362T629 346H549ZM391 230L425 346H307L274 230H391Z" />
<glyph unicode="$" glyph-name="dollar" horiz-adv-x="524" d="M361 306T393 288T448 239T471 163Q471 93 417 48T271 -4L259 -102Q257 -117 245 -125T216 -134Q201 -134 192 -126T184 -102L197 -2Q124 8 82 46T39 136Q39 171 57 190T100 209Q125 209 137 195T154
151Q157 128 171 113T210 91L230 241Q184 259 152 278T98 330T76 411Q76 485 132 531T274 583L286 683Q287 698 299 706T326 714Q341 714 351 706T360 683L346 580Q410 570 447 536T484 451Q484 417 467 401T423 384Q402 384 389 397T374 432Q371 474 334 487L312
325Q361 306 393 288ZM191 398T205 383T245 353L262 491Q228 486 210 467T191 419Q191 398 205 383ZM317 93T336 109T355 152Q355 172 341 187T298 215L282 88Q317 93 336 109Z" />
<glyph unicode="%" glyph-name="percent" horiz-adv-x="896" d="M701 668T688 646L325 28Q306 -4 274 -4Q253 -4 237 12T221 53Q221 76 237 104L476 512Q423 492 370 490Q351 429 307 393T207 356Q157 356 121 380T67 445T49 531Q49 595 73 644T140 722T234 750Q298
750 337 706T382 597Q449 601 505 630T591 706Q618 750 651 750Q672 750 686 733T701 691Q701 668 688 646ZM238 446T255 464T279 517Q257 537 245 566T233 625Q233 641 236 659Q234 660 228 660Q198 660 179 630T159 539Q159 493 175 470T217 446Q238 446 255
464ZM774 390T810 366T864 301T882 215Q882 152 858 102T791 24T696 -4Q644 -4 609 20T555 85T537 171Q537 235 561 285T627 362T722 390Q774 390 810 366ZM733 86T752 117T772 207Q772 253 756 276T716 300Q686 300 667 270T647 179Q647 131 663 109T705 86Q733
86 752 117Z" />
<glyph unicode="&amp;" glyph-name="ampersand" horiz-adv-x="851" d="M744 206T653 131L740 35Q763 11 763 -15Q763 -40 743 -56T690 -73Q644 -73 620 -45L536 54Q418 -5 310 -5Q230 -5 170 20T78 89T45 187Q45 260 90 323T239 449Q181 555 181 636Q181 708 211
763T294 848T417 878Q505 878 553 828T602 689Q602 616 560 552T409 420Q473 333 578 215Q644 274 709 364Q720 380 735 386T772 393Q830 393 830 360Q830 339 808 304Q744 206 653 131ZM363 773T336 738T309 649Q309 586 351 511Q429 557 457 600T485 694Q485
731 466 752T410 773Q363 773 336 738ZM394 105T465 139Q359 266 298 356Q185 282 185 202Q185 156 220 131T316 105Q394 105 465 139Z" />
<glyph unicode="&apos;" glyph-name="quotesingle" horiz-adv-x="290" d="M144 502T128 515T114 561L134 752Q144 844 221 844Q287 844 287 782Q287 768 282 745L242 561Q235 529 215 516T169 502Q144 502 128 515Z" />
<glyph unicode="(" glyph-name="parenleft" horiz-adv-x="613" d="M213 -133T152 -56T91 168Q91 278 113 398T177 626T278 809Q392 954 555 954Q602 954 647 939T722 895Q739 879 739 854Q739 829 722 807T683 785Q673 785 660 793Q595 838 541 838Q500 838 463
816T395 755Q342 688 304 589T246 381T226 178Q226 104 236 62T270 1T331 -17Q403 -17 486 66Q502 82 519 82Q538 82 551 65T565 25Q565 -3 545 -26Q502 -74 443 -103T328 -133Q213 -133 152 -56Z" />
<glyph unicode=")" glyph-name="parenright" horiz-adv-x="613" d="M55 -133T10 -118T-65 -74Q-82 -58 -82 -33Q-82 -8 -65 14T-26 36Q-16 36 -3 28Q62 -17 116 -17Q157 -17 194 5T262 66Q315 133 353 232T411 440T431 643Q431 717 421 759T387 820T326 838Q254
838 171 755Q155 739 138 739Q119 739 106 756T92 796Q92 824 112 847Q155 895 214 924T329 954Q444 954 505 877T566 653Q566 543 544 423T480 195T379 12Q265 -133 102 -133Q55 -133 10 -118Z" />
<glyph unicode="*" glyph-name="asterisk" horiz-adv-x="520" d="M526 752T512 738T473 720L381 707L463 663Q480 654 489 641T498 613Q498 594 485 579Q469 560 446 560Q419 560 399 586L341 659L344 566Q345 538 331 521T291 503Q270 503 255 518T240 555Q240
568 246 584L280 670L200 621Q180 610 164 610Q147 610 135 619T117 644Q114 653 114 663Q114 685 127 699T166 716L261 729L176 773Q160 781 151 794T142 822Q142 842 155 857Q169 876 194 876Q220 876 241 849L299 777L296 868Q295 897 309 914T349 932Q371 932
385 917T400 880Q400 868 394 851L359 765L440 814Q461 826 477 826Q493 826 505 817T523 792Q526 783 526 773Q526 752 512 738Z" />
<glyph unicode="+" glyph-name="plus" horiz-adv-x="700" d="M607 345T619 331T631 297Q631 272 615 252T570 231H406L384 48Q380 22 362 8T319 -6Q296 -6 282 8T270 48L292 231H130Q107 231 95 245T83 280Q83 305 99 325T144 345H307L329 528Q332 553 350 567T391
581Q414 581 430 567T443 528L421 345H584Q607 345 619 331Z" />
<glyph unicode="," glyph-name="comma" horiz-adv-x="257" d="M42 -158T29 -148T16 -116Q16 -107 19 -95Q30 -49 35 -10T41 77Q41 127 64 154T125 181Q161 181 179 162T198 109Q198 74 177 16T126 -97Q106 -134 95 -146T64 -158Q42 -158 29 -148Z" />
<glyph unicode="-" glyph-name="hyphen" horiz-adv-x="403" d="M86 244T72 260T57 305Q57 332 70 345T110 360L315 380Q340 382 353 368T367 325Q367 271 315 266L110 246Q86 244 72 260Z" />
<glyph unicode="." glyph-name="period" horiz-adv-x="257" d="M73 -5T51 19T28 82Q28 127 53 154T125 181Q169 181 191 160T214 96Q214 50 188 23T117 -5Q73 -5 51 19Z" />
<glyph unicode="/" glyph-name="slash" horiz-adv-x="509" d="M44 -5T27 11T9 55Q9 77 23 103L442 890Q454 913 469 924T501 935Q524 935 540 917T557 871Q557 849 546 830L118 27Q109 11 96 3T67 -5Q44 -5 27 11Z" />
<glyph unicode="0" glyph-name="zero" horiz-adv-x="543" d="M158 -5T105 59T51 242Q51 343 82 420T170 541T302 584Q400 584 453 520T507 337Q507 236 476 159T388 38T256 -5Q158 -5 105 59ZM320 107T351 167T382 330Q382 399 359 435T292 472Q238 472 207 412T176
248Q176 179 198 143T266 107Q320 107 351 167Z" />
<glyph unicode="1" glyph-name="one" horiz-adv-x="376" d="M171 -5T152 10T133 57L134 68Q145 171 160 282T187 454L109 432L97 430Q78 430 67 445T56 479L57 488Q59 507 69 519T107 543T193 569L235 579Q258 584 273 584Q302 584 316 569T331 527Q331 515 328
501Q312 423 267 57Q259 -5 196 -5Q171 -5 152 10Z" />
<glyph unicode="2" glyph-name="two" horiz-adv-x="560" d="M497 112T508 98T519 63Q519 37 503 17T458 -4Q410 -4 315 3Q296 4 245 7T165 10Q152 10 127 1Q122 0 108 -4T83 -8Q67 -8 57 6T46 50Q46 82 61 99T108 131Q176 161 236 207T333 308T370 411Q370 450
353 468T297 487Q253 487 227 463T200 396Q200 337 141 337Q113 337 98 353T82 399Q82 449 108 491T186 558T313 584Q403 584 454 539T505 414Q505 338 439 255T247 108L476 112Q497 112 508 98Z" />
<glyph unicode="3" glyph-name="three" horiz-adv-x="520" d="M406 278T440 243T475 155Q475 104 444 68T361 14T246 -5Q137 -5 83 33T28 128Q28 161 44 179T87 198Q110 198 121 187T141 147Q148 120 170 106T238 92Q282 92 310 108T339 159Q339 194 312 210T228
229Q207 230 197 243T186 276Q186 300 194 310T224 325Q290 335 319 363T349 432Q349 487 273 487Q189 487 174 421Q167 394 154 383T116 371Q89 371 75 386T60 428Q60 468 88 504T167 562T288 584Q384 584 435 547T486 437Q486 389 450 348T355 285Q406 278 440
243Z" />
<glyph unicode="4" glyph-name="four" horiz-adv-x="577" d="M552 225T552 180Q552 144 532 130T469 116H448L444 63Q441 17 425 1T371 -15Q318 -15 318 50Q318 61 319 67L324 116Q179 116 104 117Q82 117 65 137T48 189Q48 208 55 229Q99 357 187 520Q206 555
225 569T286 584Q308 584 319 574T331 548Q331 531 321 514Q223 335 183 225H337Q349 318 370 402Q378 433 396 449T446 466Q497 466 497 422Q497 409 495 402Q477 317 463 225H499Q552 225 552 180Z" />
<glyph unicode="5" glyph-name="five" horiz-adv-x="518" d="M255 477T242 476Q229 432 213 356Q342 349 409 303T476 178Q476 126 450 85T372 19T252 -5Q159 -5 103 31T46 128Q46 161 61 179T105 198Q127 198 139 187T159 147Q176 86 262 86Q299 86 323 108T347
164Q347 252 160 258Q120 259 103 271T85 308Q85 320 88 333L99 381Q105 410 119 470H117Q97 470 85 479T73 506Q73 555 121 570Q166 584 283 584Q367 584 405 582T464 574Q484 569 492 561T500 535Q500 501 487 487T441 472Q425 472 379 474Q295 477 284 477Q255
477 242 476Z" />
<glyph unicode="6" glyph-name="six" horiz-adv-x="541" d="M262 485T226 440T180 304Q206 334 239 346T312 359Q362 359 401 338T463 280T485 196Q485 139 459 94T382 22T262 -5Q159 -5 105 59T50 238Q50 340 84 418T182 540T331 584Q408 584 457 549T514 455L515
444Q515 418 499 404T452 389Q430 389 417 400T393 440Q385 461 367 473T320 485Q262 485 226 440ZM239 259T215 235T191 171Q191 135 211 114T267 93Q307 93 331 118T356 185Q356 219 336 239T282 259Q239 259 215 235Z" />
<glyph unicode="7" glyph-name="seven" horiz-adv-x="497" d="M497 582T507 568T518 524Q518 497 507 484T480 459T456 443Q350 370 309 276T258 75Q254 33 236 14T189 -5Q161 -5 142 14T123 83Q123 140 144 208T213 345T334 466L88 462Q67 462 56 476T45 511Q45
537 61 557T106 578Q155 578 249 571Q268 570 319 567T399 564Q412 564 437 573Q442 574 456 578T481 582Q497 582 507 568Z" />
<glyph unicode="8" glyph-name="eight" horiz-adv-x="512" d="M476 247T476 163Q476 113 448 75T367 16T246 -5Q149 -5 95 33T40 139Q40 182 66 218T150 285Q114 309 96 342T77 413Q77 493 137 538T300 584Q385 584 436 547T488 447Q488 401 462 365T378 297Q476
247 476 163ZM250 487T225 470T200 419Q200 374 276 339Q327 364 347 386T368 432Q368 487 292 487Q250 487 225 470ZM298 92T325 108T352 152Q352 174 329 194T242 242Q196 221 178 199T160 151Q160 123 184 108T251 92Q298 92 325 108Z" />
<glyph unicode="9" glyph-name="nine" horiz-adv-x="541" d="M396 584T450 520T505 341Q505 239 471 161T373 39T224 -5Q147 -5 98 30T41 124L40 135Q40 161 56 175T103 190Q125 190 138 179T162 139Q170 118 188 106T235 94Q293 94 329 139T375 275Q349 245 316
233T243 220Q193 220 154 241T92 299T70 383Q70 440 96 485T173 557T293 584Q396 584 450 520ZM316 320T340 344T364 408Q364 444 344 465T288 486Q248 486 224 461T199 394Q199 360 219 340T273 320Q316 320 340 344Z" />
<glyph unicode=":" glyph-name="colon" horiz-adv-x="257" d="M73 -5T51 19T28 82Q28 127 53 154T125 181Q169 181 191 160T214 96Q214 50 188 23T117 -5Q73 -5 51 19ZM108 280T86 304T63 367Q63 412 88 439T160 466Q204 466 226 445T249 381Q249 335 223 308T152
280Q108 280 86 304Z" />
<glyph unicode=";" glyph-name="semicolon" horiz-adv-x="257" d="M42 -158T29 -148T16 -116Q16 -107 19 -95Q30 -49 35 -10T41 77Q41 127 64 154T125 181Q161 181 179 162T198 109Q198 74 177 16T126 -97Q106 -134 95 -146T64 -158Q42 -158 29 -148ZM108 280T86
304T63 367Q63 412 88 439T160 466Q204 466 226 445T249 381Q249 335 223 308T152 280Q108 280 86 304Z" />
<glyph unicode="&lt;" glyph-name="less" horiz-adv-x="700" d="M117 224Q100 230 91 245T82 279Q82 303 96 325T133 356L579 511Q591 515 603 515Q624 515 636 501T648 467Q648 448 637 432T602 407L252 289L572 170Q589 164 598 151T607 123Q607 100 591 82T549
63Q538 63 525 68L117 224Z" />
<glyph unicode="=" glyph-name="equal" horiz-adv-x="700" d="M121 346T109 360T97 395Q97 420 113 440T158 460H598Q621 460 633 446T645 412Q645 387 629 367T584 346H144Q121 346 109 360ZM93 116T81 130T69 165Q69 190 85 210T130 230H570Q593 230 605 216T617
182Q617 157 601 137T556 116H116Q93 116 81 130Z" />
<glyph unicode="&gt;" glyph-name="greater" horiz-adv-x="700" d="M124 64T112 64Q91 64 79 78T67 112Q67 131 78 147T113 172L463 290L143 409Q126 415 117 428T108 456Q108 479 124 497T166 516Q177 516 190 511L598 355Q615 349 624 334T633 300Q633 276 619
254T582 223L136 68Q124 64 112 64Z" />
<glyph unicode="?" glyph-name="question" horiz-adv-x="476" d="M173 234T162 244T152 279Q156 342 182 391T269 501Q326 557 351 596T376 677Q376 746 299 746Q253 746 229 726T205 674L206 633Q206 616 194 604T154 591Q123 591 107 609T90 662Q90 712 114
753T189 820T312 845Q411 845 465 803T520 680Q520 617 488 566T392 460Q338 414 310 385T270 335T249 285Q242 259 227 247T191 234Q173 234 162 244ZM109 -5T87 19T64 82Q64 127 89 154T161 181Q205 181 227 160T250 96Q250 50 224 23T153 -5Q109 -5 87 19Z"
/>
<glyph unicode="@" glyph-name="at" horiz-adv-x="1015" d="M355 -288T251 -232T93 -78T39 139Q39 295 103 432T296 654T606 739Q717 739 802 698T935 577T983 381Q983 266 944 178T841 43T708 -5Q606 -5 576 79Q557 40 525 18T451 -5Q384 -5 347 39T309 158Q309
238 346 309T444 424T575 468Q597 468 604 460T617 429Q638 433 661 433Q710 433 710 398Q710 377 695 298Q672 183 672 138Q672 121 683 110T719 99Q752 99 787 136T845 239T869 383Q869 503 796 566T594 629Q457 629 361 562T217 385T169 144Q169 -3 253 -91T508
-180Q586 -180 662 -160T821 -96Q834 -89 846 -89Q866 -89 879 -104T892 -142Q892 -158 884 -172T859 -197Q787 -241 693 -264T504 -288Q355 -288 251 -232ZM503 96T523 122T552 191L589 375Q547 374 512 344T455 263T434 157Q434 126 446 111T481 96Q503 96 523
122Z" />
<glyph unicode="A" glyph-name="A" horiz-adv-x="786" d="M231 -5T176 29T88 127T56 280Q56 432 121 561T313 769T618 848Q664 848 716 841T812 820Q840 812 840 780Q840 754 821 731T775 708Q767 708 763 709Q711 721 674 726T596 732Q469 732 380 671T247 508T203
290Q203 205 236 159T324 112Q385 112 431 162T515 324T590 628Q596 656 614 666T662 676Q733 676 733 630Q733 622 730 610Q704 513 683 396T661 217Q661 163 677 139T726 114Q758 114 787 135T860 209Q872 223 887 223Q900 223 907 211T915 178Q915 139 896 116Q847
57 800 26T685 -5Q615 -5 572 35T518 150Q444 -5 300 -5Q231 -5 176 29Z" />
<glyph unicode="B" glyph-name="B" horiz-adv-x="827" d="M868 555T808 494T633 405Q695 388 727 350T759 261Q759 182 710 124T565 35T336 3Q286 3 256 6Q255 -22 232 -36T173 -50Q137 -50 124 -34T112 13Q121 153 147 306T213 603Q220 628 241 638T296 648Q357
648 357 614Q357 600 351 582Q325 504 299 371T262 116Q310 112 340 112Q480 112 545 152T611 256Q611 300 574 330T448 363Q428 364 420 373T412 402Q412 431 424 449T468 468Q539 470 596 489T687 542T720 623Q720 681 663 714T488 748Q381 748 281 721T111 651Q79
632 57 632Q39 632 30 644T20 676Q20 701 30 719T81 760Q165 808 278 835T509 862Q690 862 779 801T868 640Q868 555 808 494Z" />
<glyph unicode="C" glyph-name="C" horiz-adv-x="686" d="M334 -5T246 38T111 162T64 348Q64 495 119 609T270 785T481 848Q589 848 645 793T701 646Q701 585 680 548T618 511Q590 511 574 524T558 562Q558 571 562 595Q568 625 568 643Q568 734 471 734Q405 734
345 691T248 565T211 366Q211 246 278 181T476 115Q541 115 607 131T755 182Q770 188 780 188Q796 188 804 176T812 145Q812 84 746 55Q675 24 599 10T453 -5Q334 -5 246 38Z" />
<glyph unicode="D" glyph-name="D" horiz-adv-x="836" d="M250 -5T177 5Q137 10 122 26T109 78Q116 177 142 322T205 603Q212 628 233 638T288 648Q349 648 349 614Q349 600 343 582Q317 502 291 368T254 111Q284 108 322 108Q497 108 583 214T670 497Q670 616
602 681T410 746Q330 746 252 721T110 655Q97 646 82 646Q65 646 55 660T45 696Q45 720 53 735T80 764Q149 811 242 835T421 860Q543 860 632 818T769 693T817 495Q817 344 757 232T582 57T308 -5Q250 -5 177 5Z" />
<glyph unicode="E" glyph-name="E" horiz-adv-x="686" d="M770 188T780 188Q796 188 804 176T812 145Q812 115 798 94T748 56Q689 28 595 12T410 -5Q284 -5 199 23T73 102T31 215Q31 301 86 361T250 449Q191 466 160 509T128 605Q128 677 173 732T296 818T465
848Q589 848 651 795T713 656Q713 597 692 561T630 524Q602 524 586 536T570 574Q570 591 575 611Q580 644 580 656Q580 692 553 714T463 737Q378 737 327 701T276 604Q276 557 314 527T440 493Q462 492 471 483T480 453Q480 387 420 386Q337 384 283 363T204 310T179
240Q179 178 237 147T421 115Q504 115 596 134T755 182Q770 188 780 188Z" />
<glyph unicode="F" glyph-name="F" horiz-adv-x="712" d="M915 825T925 812T936 778Q936 709 862 714L827 717Q768 722 710 725T587 728H542Q530 580 517 458L689 461Q726 461 738 448T751 413Q751 379 731 360T674 340H503L497 297Q476 132 408 62T219 -8Q151
-8 94 21T10 93Q-1 110 -1 134Q-1 158 10 176T39 194Q51 194 62 186T92 155Q140 92 211 92Q268 92 306 138T356 285L362 340H314Q291 340 275 353T258 390Q258 421 274 437T321 454Q349 454 376 455Q388 565 402 722Q294 712 250 687T206 613Q206 579 226 548Q232
539 232 530Q232 512 212 499T167 485Q140 485 121 501Q109 511 98 542T87 611Q87 735 214 791T587 847Q757 847 887 829Q915 825 925 812Z" />
<glyph unicode="G" glyph-name="G" horiz-adv-x="811" d="M905 221T912 209T920 177Q920 154 913 141T891 118Q832 79 703 -10Q664 -217 602 -336T445 -455Q394 -455 362 -424T330 -341Q330 -294 351 -246T429 -135T592 9L595 28Q516 -5 440 -5Q328 -5 243 38T111
162T64 348Q64 496 120 609T274 785T495 848Q612 848 670 794T729 649Q729 590 708 555T646 519Q619 519 603 532T586 568Q586 578 590 602Q596 630 596 646Q596 688 571 711T485 734Q412 734 350 692T249 567T211 366Q211 246 276 181T466 115Q535 115 610 146L624
268H522Q494 268 479 281T464 326Q464 354 479 370T519 386H706Q728 386 742 372T754 330Q751 298 734 185L723 109Q803 169 869 213Q882 221 892 221Q905 221 912 209ZM482 -358T513 -299T571 -109Q495 -174 462 -226T428 -319Q428 -358 456 -358Q482 -358 513
-299Z" />
<glyph unicode="H" glyph-name="H" horiz-adv-x="873" d="M987 223T994 211T1002 178Q1002 139 983 116Q884 -5 772 -5Q675 -5 617 70T559 285Q559 319 562 353Q496 341 418 335Q366 331 347 330Q327 228 291 80Q270 -7 211 -7Q147 -7 147 51Q147 64 152 87Q186
224 206 319L158 317Q125 317 110 328T95 366Q95 399 114 414T177 432L230 434Q256 575 256 649Q256 696 242 713T205 730Q135 730 47 613Q34 596 18 596Q4 596 -6 609T-16 642Q-16 673 9 708Q53 769 120 808T256 848Q321 848 356 804T392 665Q392 582 368 440L466
445Q529 448 574 455Q592 565 629 661T721 817T844 877Q894 877 923 838T952 734Q952 486 699 390Q696 350 696 307Q696 202 722 158T795 114Q836 114 870 135T947 209Q959 223 974 223Q987 223 994 211ZM817 790T793 750T746 641T711 490Q791 523 829 584T867
741Q867 764 859 777T839 790Q817 790 793 750Z" />
<glyph unicode="I" glyph-name="I" horiz-adv-x="495" d="M520 842T538 830T556 799Q556 767 536 748T479 728Q421 728 391 727Q389 715 373 619Q355 512 351 488L330 357Q308 210 295 111Q316 112 352 112Q405 112 424 98T443 56Q443 30 423 12T365 -6Q340 -6
286 -4Q236 -2 220 -2Q157 -2 82 -13Q49 -18 35 -18Q13 -18 -2 -6T-17 29Q-17 65 15 85T105 106L152 107L155 129Q179 289 190 355L212 486Q232 602 248 725L164 724Q128 724 115 735T101 768Q101 836 199 841Q245 843 311 843L494 842Q520 842 538 830Z" />
<glyph unicode="J" glyph-name="J" horiz-adv-x="743" d="M766 737T754 722T713 707Q711 686 704 634Q694 564 693 556Q604 -107 322 -107Q239 -107 193 -60T146 58Q146 185 254 282T538 444Q549 515 555 571L573 722Q513 728 461 728Q322 728 256 701T190 613Q190
583 210 548Q216 538 216 527Q216 506 195 490T148 473Q116 473 99 500Q71 546 71 607Q71 847 491 847Q613 847 709 823Q766 809 766 767Q766 737 754 722ZM384 0T433 74T519 333Q275 226 275 71Q275 37 291 19T335 0Q384 0 433 74Z" />
<glyph unicode="K" glyph-name="K" horiz-adv-x="937" d="M1051 223T1058 211T1066 178Q1066 139 1047 116Q999 58 950 27T834 -5Q760 -5 713 38T625 174Q595 240 576 272T537 318T489 335L478 261Q457 118 397 55T230 -8Q161 -8 108 25T33 111Q26 129 26 150Q26
180 40 202T76 224Q89 224 98 218T115 195Q146 137 169 114T228 91Q268 91 296 127T337 240L351 335H335Q312 335 299 348T286 384Q286 410 299 425T333 441H366Q373 490 376 509L407 734Q381 737 358 737Q273 737 229 708T185 623Q185 598 190 583T205 548Q209
540 209 530Q209 508 189 492T143 475Q111 475 96 503Q66 556 66 617Q66 680 100 732T205 815T378 847Q423 847 460 842T543 823Q592 808 592 767Q592 712 545 712L506 443Q623 455 696 543T819 784Q828 812 849 827T904 842Q932 842 947 830T963 794Q963 787 959
771Q909 606 816 509T613 380Q651 371 675 353T717 309T756 235Q787 169 814 142T877 114Q909 114 938 135T1011 209Q1023 223 1038 223Q1051 223 1058 211Z" />
<glyph unicode="L" glyph-name="L" horiz-adv-x="673" d="M787 223T794 211T802 178Q802 139 783 116Q727 49 675 22T548 -5Q496 -5 452 8T345 47Q288 72 235 88Q184 -5 82 -5Q26 -5 -7 20T-41 86Q-41 135 6 167T131 200H144L162 491Q168 591 198 656T281 767Q327
807 386 827T511 848Q619 848 677 792T735 646Q735 585 713 548T652 510Q624 510 608 523T592 562Q592 571 596 595Q602 623 602 645Q602 687 578 711T503 736Q415 736 367 679T306 498L283 271Q278 223 270 188Q334 177 430 153Q486 139 516 133T569 127Q627 127
668 146T747 209Q759 223 774 223Q787 223 794 211Z" />
<glyph unicode="M" glyph-name="M" horiz-adv-x="1232" d="M195 -5T179 11T163 74Q163 105 169 153T191 287Q217 444 232 559Q241 631 241 679Q241 724 208 724Q182 724 146 698T65 613Q51 594 34 594Q20 594 10 607T-1 638Q-1 654 5 670T27 708Q75 775 134 811T252
848Q307 848 336 813T366 711Q366 684 361 648T352 588T346 556Q403 719 474 783T630 848Q695 848 732 802T770 672Q770 639 761 590Q811 728 878 788T1032 848Q1102 848 1139 803T1177 677Q1177 633 1164 570L1103 284Q1093 234 1093 198Q1093 156 1112 135T1167
114Q1200 114 1231 136T1306 209Q1318 223 1333 223Q1346 223 1353 211T1361 178Q1361 139 1342 116Q1290 53 1239 24T1132 -5Q1047 -5 999 45T951 181Q951 240 975 352L1015 535Q1017 544 1022 567T1030 610T1033 651Q1033 686 1020 703T981 721Q934 721 883 661T785
460T709 96Q702 36 685 16T628 -5Q594 -5 579 11T563 71Q563 112 574 178T602 335Q648 577 648 647Q648 685 634 703T590 721Q541 721 489 666T388 469T305 86Q298 35 285 15T232 -5Q195 -5 179 11Z" />
<glyph unicode="N" glyph-name="N" horiz-adv-x="884" d="M195 -5T179 11T163 74Q163 105 169 149T190 282Q192 294 206 379T231 559Q241 639 241 679Q241 724 208 724Q183 724 146 698T65 613Q51 594 34 594Q20 594 10 607T-1 638Q-1 655 5 670T27 708Q76 775
136 811T262 848Q317 848 344 814T372 715Q372 657 356 547Q406 695 483 771T664 848Q746 848 787 802T829 677Q829 633 816 570L755 284Q745 234 745 198Q745 156 764 135T819 114Q852 114 883 136T958 209Q970 223 985 223Q998 223 1005 211T1013 178Q1013 139
994 116Q942 53 891 24T784 -5Q699 -5 651 45T603 181Q603 214 608 253T627 352L667 535Q669 544 674 567T682 610T685 651Q685 683 667 702T616 721Q556 721 496 657T385 451T305 86Q298 35 285 15T232 -5Q195 -5 179 11Z" />
<glyph unicode="O" glyph-name="O" horiz-adv-x="816" d="M291 -5T220 35T106 152T64 338Q64 490 119 606T270 785T482 848Q571 848 642 808T756 691T798 505Q798 353 743 237T592 58T380 -5Q291 -5 220 35ZM468 113T527 161T619 294T651 488Q651 607 601 668T472
730Q395 730 336 683T244 550T211 355Q211 236 261 175T390 113Q468 113 527 161Z" />
<glyph unicode="P" glyph-name="P" horiz-adv-x="805" d="M823 511T779 440T651 324T451 271L408 30Q383 -109 272 -109Q211 -109 160 -73T77 37T46 219Q46 422 111 563T287 775T531 846Q625 846 690 813T789 724T823 596Q823 511 779 440ZM674 400T674 587Q674
653 631 694T496 736Q393 736 317 671T199 491T157 227Q157 165 169 117T201 43T239 16Q264 16 277 85L310 274Q271 280 276 279Q246 284 237 297T228 332Q228 354 240 367T275 380Q285 380 290 379Q314 375 327 374Q340 452 364 583Q370 617 391 631T442 646Q475
646 489 634T504 594Q504 578 502 568L469 374Q674 400 674 587Z" />
<glyph unicode="Q" glyph-name="Q" horiz-adv-x="816" d="M870 -96T875 -106T881 -134Q881 -166 864 -197Q830 -259 775 -292T661 -326Q602 -326 562 -308T494 -253T440 -156Q413 -94 396 -64T359 -19T310 1Q199 23 132 111T64 338Q64 490 119 606T270 785T482
848Q571 848 642 808T756 691T798 505Q798 379 760 278T655 110T501 15Q526 1 544 -26T584 -104Q607 -160 633 -184T699 -208Q732 -208 763 -186T833 -112Q845 -96 860 -96Q870 -96 875 -106ZM468 113T527 161T619 294T651 488Q651 607 601 668T472 730Q396 730
337 682T244 548T211 355Q211 236 261 175T390 113Q468 113 527 161Z" />
<glyph unicode="R" glyph-name="R" horiz-adv-x="880" d="M994 223T1001 211T1009 178Q1009 139 990 116Q942 58 893 27T777 -5Q712 -5 667 30T580 150Q547 218 528 250T491 297T445 314Q441 293 422 182Q414 132 412 121Q402 60 372 28T281 -5Q214 -5 163 34T83
144T55 305Q55 473 113 595T277 781T521 846Q617 846 682 817T778 737T810 622Q810 566 784 513T704 418T575 357Q623 344 649 315T701 230Q729 170 756 142T820 114Q852 114 881 135T954 209Q966 223 981 223Q994 223 1001 211ZM307 315Q273 315 261 331T248 367Q248
391 263 405T299 419H324Q340 517 354 588Q367 653 438 653Q495 653 495 602Q495 591 494 585L464 419Q518 422 562 445T633 509T660 602Q660 665 617 701T491 737Q393 737 320 689T205 545T164 312Q164 248 177 202T209 133T245 110Q258 110 266 123T280 165L307
315Z" />
<glyph unicode="S" glyph-name="S" horiz-adv-x="693" d="M194 -8T114 42T34 197Q34 252 53 281T109 310Q136 310 153 296T170 260Q170 240 167 225Q167 221 166 211T164 190Q164 145 209 123T337 101Q422 101 470 131T518 217Q518 251 496 275T441 316T348 357Q271
387 223 414T140 487T105 603Q105 675 143 731T254 818T425 849Q498 849 559 828T656 762T693 654Q693 591 674 559T618 527Q592 527 575 543T557 581Q557 600 560 616Q563 646 563 654Q563 696 522 718T420 740Q334 740 289 709T243 620Q243 582 266 555T325 510T423
467Q499 436 545 411T623 343T656 237Q656 119 567 56T327 -8Q194 -8 114 42Z" />
<glyph unicode="T" glyph-name="T" horiz-adv-x="697" d="M872 824T887 809T903 774Q903 741 885 726T826 714Q736 721 686 723T553 727Q516 543 485 357Q474 289 462 200T446 55Q444 26 422 11T369 -5Q336 -5 318 11T300 53Q300 77 307 132T325 249Q336 310 342
355Q353 431 367 506T395 648Q398 663 402 682T411 726Q313 723 257 710T178 674T154 613Q154 579 174 548Q178 541 178 533Q178 514 156 498T109 481Q92 481 81 491Q61 508 48 539T35 611Q35 696 90 747T259 823T551 847Q661 847 726 843T841 830Q872 824 887
809Z" />
<glyph unicode="U" glyph-name="U" horiz-adv-x="890" d="M248 -5T205 41T162 166Q162 210 175 273L237 559Q239 567 246 603T254 681Q254 705 245 717T219 729Q189 729 149 701T65 613Q51 594 34 594Q20 594 10 607T-1 638Q-1 669 27 708Q129 848 266 848Q327
848 361 811T396 702Q396 651 389 608T365 491L324 308Q322 299 317 276T309 233T306 192Q306 160 324 141T375 122Q435 122 496 186T610 392T692 757Q699 808 712 828T765 848Q800 848 817 827T834 759Q834 732 828 688T808 565Q781 412 765 284Q757 226 757 198Q757
157 775 136T825 114Q858 114 889 136T964 209Q976 223 991 223Q1004 223 1011 211T1019 178Q1019 139 1000 116Q948 53 897 24T790 -5Q707 -5 663 37T619 148Q619 186 635 296Q585 149 509 72T332 -5Q248 -5 205 41Z" />
<glyph unicode="V" glyph-name="V" horiz-adv-x="763" d="M887 432T897 422T908 396Q908 370 893 350T844 329Q764 327 702 341Q631 192 531 94T329 -5Q225 -5 174 116T123 443Q123 619 148 759Q157 811 173 829T230 848Q296 848 296 791Q296 785 294 769Q264
589 264 443Q264 290 289 211T366 131Q418 131 479 203T591 384Q530 422 499 482T468 622Q468 701 492 755T559 837T654 864Q718 864 755 818T793 692Q793 577 743 441Q796 432 864 432Q887 432 897 422ZM569 531T632 484Q671 596 671 669Q671 711 660 730T630
750Q603 750 586 719T569 629Q569 531 632 484Z" />
<glyph unicode="W" glyph-name="W" horiz-adv-x="1217" d="M1341 432T1351 422T1362 396Q1362 370 1347 350T1298 329Q1219 328 1156 341Q1086 192 988 94T793 -5Q705 -5 661 88T611 339Q551 165 476 80T315 -5Q219 -5 170 114T121 436Q121 583 147 759Q154 809
172 828T231 848Q261 848 277 835T294 787Q294 780 292 760Q262 555 262 411Q262 277 285 204T347 131Q382 131 431 204T530 422T613 767Q621 813 642 830T701 848Q732 848 746 835T761 794Q761 778 759 769Q731 606 731 443Q731 332 738 266T767 166T830 131Q878
131 937 203T1045 384Q984 422 953 482T922 622Q922 701 946 755T1013 837T1108 864Q1172 864 1209 818T1247 692Q1247 579 1198 441Q1249 432 1318 432Q1341 432 1351 422ZM1023 531T1086 484Q1125 596 1125 669Q1125 711 1114 730T1084 750Q1057 750 1040 719T1023
629Q1023 531 1086 484Z" />
<glyph unicode="X" glyph-name="X" horiz-adv-x="712" d="M826 223T833 211T841 178Q841 139 822 116Q773 58 725 27T618 -5Q529 -5 484 48T410 203L376 327L140 35Q120 10 99 3T50 -5Q22 -5 4 5T-15 35Q-15 60 14 92L338 461L306 578Q283 660 255 693T191 726Q138
726 67 649Q55 636 40 636Q25 636 15 647T4 677Q4 707 33 742Q74 790 122 819T236 848Q307 848 353 804T426 660L446 590L621 803Q641 827 662 837T713 847Q740 847 755 837T771 809Q771 785 744 754L484 454L541 250Q556 197 568 169T597 128T644 114Q675 114
708 136T786 209Q798 223 813 223Q826 223 833 211Z" />
<glyph unicode="Y" glyph-name="Y" horiz-adv-x="851" d="M914 226T926 226Q960 226 960 182Q960 158 950 142T917 121Q826 104 738 83L735 59Q707 -138 624 -232T415 -327Q332 -327 287 -287T241 -183Q241 -78 335 4T620 149L640 290Q644 314 650 354Q603 230
530 169T367 108Q281 108 236 160T191 296Q191 333 199 377T224 498Q239 567 246 608T254 681Q254 729 217 729Q188 729 149 701T65 613Q51 594 34 594Q20 594 10 607T-1 638Q-1 669 27 708Q129 848 266 848Q327 848 361 811T396 702Q396 650 387 596T358 457Q346
407 340 377T334 326Q334 275 352 253T415 231Q469 231 525 290T627 471T693 767Q698 811 716 829T768 848Q838 848 838 778Q838 766 837 759Q816 610 798 490Q788 418 777 342T754 188Q827 208 908 224Q914 226 926 226ZM605 44Q363 -40 363 -160Q363 -188 380
-206T430 -225Q569 -225 604 37L605 44Z" />
<glyph unicode="Z" glyph-name="Z" horiz-adv-x="721" d="M835 223T842 211T850 178Q850 139 831 116Q775 49 723 22T596 -5Q544 -5 500 8T393 47Q339 70 297 84Q251 34 214 15T136 -5Q81 -5 48 20T15 87Q15 118 35 144T93 185T179 200Q207 200 221 199Q417 443
575 714Q489 729 400 729Q285 729 232 703T178 619Q178 602 182 590T194 562Q203 544 203 536Q203 516 185 503T142 489Q117 489 101 504Q82 521 71 550T59 617Q59 734 156 790T412 846Q491 846 573 837T728 808Q758 800 768 786T778 748Q778 721 764 706T725 691H718Q610
515 499 353Q410 224 374 178Q432 165 475 154Q528 140 560 134T617 127Q675 127 716 146T795 209Q807 223 822 223Q835 223 842 211Z" />
<glyph unicode="[" glyph-name="bracketleft" horiz-adv-x="405" d="M155 -93Q67 -93 67 -18Q67 -12 69 4Q112 355 182 841Q190 892 213 911T294 930H434Q468 930 483 916T498 877Q498 843 483 828T432 813H312Q302 728 286 608T262 432Q222 153 209 24H314Q353
24 370 12T387 -29Q387 -60 369 -77T309 -94L155 -93Z" />
<glyph unicode="\" glyph-name="backslash" horiz-adv-x="509" d="M373 -5T358 8T334 49L112 827Q108 842 108 857Q108 891 128 912T175 934Q193 934 207 922T229 885L456 91Q459 79 459 68Q459 38 439 17T392 -5Q373 -5 358 8Z" />
<glyph unicode="]" glyph-name="bracketright" horiz-adv-x="405" d="M-18 -94T-33 -80T-48 -41Q-48 -7 -33 8T18 23H138Q148 108 164 228T188 404Q228 683 241 812H136Q97 812 80 824T63 865Q63 896 81 913T141 930L295 929Q383 929 383 854Q383 848 381 832Q338
481 268 -5Q260 -56 237 -75T156 -94H16Q-18 -94 -33 -80Z" />
<glyph unicode="^" glyph-name="asciicircum" horiz-adv-x="700" d="M186 65T171 56T139 47Q118 47 103 59T88 90Q88 104 97 120L327 530Q338 550 355 560T392 571Q410 571 424 561T445 530L574 121Q577 111 577 100Q577 76 561 62T523 47Q508 47 496 56T477 83L377
415L196 83Q186 65 171 56Z" />
<glyph unicode="_" glyph-name="underscore" horiz-adv-x="354" d="M4 -114T-10 -99T-24 -55Q-24 -28 -10 -14T29 0H276Q328 0 328 -55Q328 -83 315 -98T276 -114H29Q4 -114 -10 -99Z" />
<glyph unicode="`" glyph-name="grave" horiz-adv-x="600" d="M285 532T272 549L143 715Q121 743 121 771Q121 799 140 817T185 835Q202 835 217 825T241 795L334 587Q338 578 338 568Q338 553 328 543T303 532Q285 532 272 549Z" />
<glyph unicode="a" glyph-name="a" horiz-adv-x="470" d="M109 -5T72 40T35 158Q35 238 72 309T170 424T301 468Q323 468 330 460T343 429Q364 433 387 433Q436 433 436 398Q436 377 421 298Q398 183 398 138Q398 123 405 114T425 105Q444 105 471 129T544 209Q556
223 571 223Q584 223 591 211T599 178Q599 138 580 116Q539 65 493 30T404 -5Q371 -5 344 17T302 79Q250 -5 171 -5Q109 -5 72 40ZM229 96T249 122T278 191L315 375Q273 374 238 344T181 263T160 157Q160 126 172 111T207 96Q229 96 249 122Z" />
<glyph unicode="b" glyph-name="b" horiz-adv-x="473" d="M593 307T600 294T607 261Q607 236 600 223T578 204Q518 183 446 180Q426 97 371 46T248 -5Q147 -5 101 72T55 295Q55 424 87 575T180 833T327 940Q373 940 401 901T429 798Q429 716 398 635T295 465Q362
460 404 410T454 285Q501 288 566 305Q572 307 580 307Q593 307 600 294ZM284 841T261 782T217 620T187 397Q253 518 292 610T332 775Q332 807 325 824T304 841Q284 841 261 782ZM283 101T307 127T339 202Q308 223 292 257T275 329Q275 343 279 367H276Q235 367
208 327T180 218Q180 161 201 131T252 101Q283 101 307 127Z" />
<glyph unicode="c" glyph-name="c" horiz-adv-x="368" d="M141 -5T87 50T32 197Q32 278 64 339T147 433T254 466Q309 466 339 434T370 350Q370 308 352 279T303 250Q284 250 273 259T261 284Q261 291 263 300T266 313Q271 328 271 341Q271 354 265 361T246 368Q223
368 203 348T171 292T159 215Q159 99 260 99Q301 99 348 126T442 209Q454 223 469 223Q482 223 489 211T497 178Q497 140 478 116Q431 58 366 27T239 -5Q141 -5 87 50Z" />
<glyph unicode="d" glyph-name="d" horiz-adv-x="515" d="M629 223T636 211T644 178Q644 138 625 116Q584 66 535 31T438 -5Q362 -5 322 84Q280 31 249 13T175 -5Q114 -5 75 40T35 159Q35 239 69 307T162 419T296 471Q315 665 368 802T509 940Q552 940 580 901T609
783Q609 671 554 521T407 213Q411 155 424 130T459 105Q486 105 514 129T589 209Q601 223 616 223Q629 223 636 211ZM479 842T460 775T428 598T408 370Q520 614 520 762Q520 800 514 821T498 842Q479 842 460 775ZM229 96T248 111T296 169Q286 223 286 290Q286
314 288 368Q233 351 197 295T160 169Q160 96 210 96Q229 96 248 111Z" />
<glyph unicode="e" glyph-name="e" horiz-adv-x="393" d="M507 223T514 211T522 178Q522 138 503 116Q466 71 399 33T254 -5Q149 -5 91 52T33 208Q33 277 62 336T142 431T259 466Q317 466 352 432T387 338Q387 269 338 220T170 141Q195 95 265 95Q310 95 367 126T467
209Q479 223 494 223Q507 223 514 211ZM205 368T180 325T154 221V219Q213 233 247 261T281 326Q281 345 271 356T242 368Q205 368 180 325Z" />
<glyph unicode="f" glyph-name="f" horiz-adv-x="371" d="M475 280T475 238Q475 159 351 159Q327 159 282 168Q295 106 303 31T312 -94Q312 -202 277 -259T185 -316Q113 -316 83 -214T52 94Q52 286 93 483T207 810T367 940Q414 940 440 898T467 785Q467 550 186
273Q176 175 176 101Q176 -2 183 -110T206 -219Q236 -219 236 -115Q236 -37 226 36T197 190Q196 203 205 223T229 258T254 273Q274 273 302 271Q311 270 323 270Q363 270 412 277Q420 278 429 279T447 280Q475 280 475 238ZM328 841T302 780T249 619T204 406Q284
497 327 595T371 780Q371 841 346 841Q328 841 302 780Z" />
<glyph unicode="g" glyph-name="g" horiz-adv-x="479" d="M573 221T580 209T588 177Q588 154 581 141T559 118Q473 60 433 32L369 -11Q331 -218 270 -336T113 -455Q62 -455 30 -424T-2 -341Q-2 -270 54 -189T264 12L270 51Q253 24 226 10T171 -5Q109 -5 72 40T35
158Q35 238 72 309T170 424T301 468Q323 468 330 460T343 429Q362 433 387 433Q412 433 422 426T433 396Q433 384 432 377Q428 346 407 220Q403 196 399 168T389 107Q466 167 537 213Q550 221 560 221Q573 221 580 209ZM230 96T251 124T281 204L313 375Q272 374
237 344T181 263T160 157Q160 126 172 111T207 96Q230 96 251 124ZM149 -358T180 -298T241 -107Q164 -173 130 -226T96 -319Q96 -336 102 -347T124 -358Q149 -358 180 -298Z" />
<glyph unicode="h" glyph-name="h" horiz-adv-x="502" d="M616 223T623 211T631 178Q631 138 612 116Q566 63 518 29T407 -5Q356 -5 330 24T304 110Q304 138 318 210Q331 273 331 297Q331 313 320 313Q307 313 283 280T235 191T196 75Q177 -5 102 -5Q72 -5 63
16T53 94Q53 126 54 145L55 225Q55 379 86 546T179 826T327 940Q373 940 401 901T430 798Q430 697 371 589T179 335Q176 283 176 228Q209 313 249 366T329 443T402 466Q467 466 467 401Q467 362 445 260Q426 173 426 145Q426 105 455 105Q475 105 502 129T576 209Q588
223 603 223Q616 223 623 211ZM288 841T266 790T224 651T190 460Q252 533 292 619T333 775Q333 807 326 824T306 841Q288 841 266 790Z" />
<glyph unicode="i" glyph-name="i" horiz-adv-x="246" d="M137 532T116 551T95 606Q95 641 122 664T191 688Q228 688 251 670T274 619Q274 579 248 556T179 532Q137 532 116 551ZM106 -5T77 41T47 163Q47 208 58 278T88 410Q97 442 112 454T160 466Q211 466 211
432Q211 407 192 316Q168 206 168 167Q168 137 176 121T203 105Q221 105 248 130T320 209Q332 223 347 223Q360 223 367 211T375 178Q375 138 356 116Q257 -5 171 -5Q106 -5 77 41Z" />
<glyph unicode="j" glyph-name="j" horiz-adv-x="254" d="M113 532T92 551T71 606Q71 641 98 664T167 688Q204 688 227 670T250 619Q250 579 224 556T155 532Q113 532 92 551ZM348 221T355 209T363 177Q363 154 356 141T334 118Q264 72 147 -9Q108 -217 46 -336T-112
-455Q-164 -455 -195 -424T-227 -341Q-227 -270 -172 -190T35 9L42 60Q56 156 64 249Q70 303 83 410Q87 439 105 452T160 466Q190 466 199 457T209 432Q209 386 176 178L166 109Q246 169 312 213Q325 221 335 221Q348 221 355 209ZM-75 -358T-44 -299T14 -109Q-62
-174 -95 -226T-129 -319Q-129 -358 -101 -358Q-75 -358 -44 -299Z" />
<glyph unicode="k" glyph-name="k" horiz-adv-x="525" d="M639 223T646 211T654 178Q654 138 635 116Q590 61 544 28T435 -5Q358 -5 311 39T264 156Q264 195 304 212Q348 231 367 252T386 305Q386 323 379 332T360 341Q333 341 301 302T240 202T196 75Q185 28
171 12T125 -5Q94 -5 80 17T60 87T55 225Q55 379 86 546T179 826T327 940Q373 940 401 901T430 798Q430 697 371 589T179 335Q176 283 176 228Q224 353 286 409T402 466Q452 466 482 432T513 348Q513 293 485 247T389 165Q393 138 413 122T463 105Q494 105 523
129T599 209Q611 223 626 223Q639 223 646 211ZM288 841T266 790T224 651T190 460Q252 533 292 619T333 775Q333 807 326 824T306 841Q288 841 266 790Z" />
<glyph unicode="l" glyph-name="l" horiz-adv-x="326" d="M440 223T447 211T455 178Q455 138 436 116Q393 63 343 29T228 -5Q140 -5 98 75T55 282Q55 404 86 560T179 828T326 940Q374 940 401 896T429 768Q429 649 363 492T184 181Q191 140 207 123T249 105Q290
105 321 128T400 209Q412 223 427 223Q440 223 447 211ZM281 841T252 758T201 552T177 316Q248 433 290 550T332 765Q332 841 304 841Q281 841 252 758Z" />
<glyph unicode="m" glyph-name="m" horiz-adv-x="744" d="M81 -5T66 35T50 163Q50 293 87 410Q96 439 116 452T174 466Q194 466 202 461T210 442Q210 426 195 370Q185 330 179 301T169 227Q196 305 233 359T310 439T385 466Q420 466 434 450T449 401Q449 369 430
285Q422 249 419 231Q469 354 530 410T644 466Q709 466 709 401Q709 362 687 260Q668 173 668 145Q668 105 697 105Q717 105 744 129T818 209Q830 223 845 223Q858 223 865 211T873 178Q873 138 854 116Q811 63 762 29T649 -5Q598 -5 572 24T546 110Q546 138 560
210Q573 273 573 297Q573 313 562 313Q549 313 525 280T477 191T438 75Q427 27 413 11T366 -5Q333 -5 317 26T300 103Q300 141 310 213Q318 277 318 297Q318 313 307 313Q292 313 269 277T225 185T190 75Q179 28 165 12T119 -5Q81 -5 66 35Z" />
<glyph unicode="n" glyph-name="n" horiz-adv-x="496" d="M81 -5T66 35T50 163Q50 293 87 410Q96 439 116 452T174 466Q194 466 202 461T210 442Q210 426 195 370Q185 330 179 300T169 226Q202 312 243 366T323 443T396 466Q461 466 461 401Q461 362 439 260Q420
173 420 145Q420 105 449 105Q469 105 496 129T570 209Q582 223 597 223Q610 223 617 211T625 178Q625 138 606 116Q563 63 514 29T401 -5Q350 -5 324 24T298 110Q298 138 312 210Q325 273 325 297Q325 313 314 313Q301 313 278 280T230 191T190 75Q179 28 165
12T119 -5Q81 -5 66 35Z" />
<glyph unicode="o" glyph-name="o" horiz-adv-x="451" d="M571 307T578 294T585 261Q585 213 556 204Q496 183 424 180Q405 96 349 46T222 -5Q162 -5 120 24T55 101T33 205Q33 281 62 340T142 433T255 467Q331 467 377 415T432 285Q479 288 544 305Q552 307 558
307Q571 307 578 294ZM262 101T285 127T317 202Q286 223 270 257T253 329Q253 345 256 361H251Q211 361 185 323T158 214Q158 159 179 130T230 101Q262 101 285 127Z" />
<glyph unicode="p" glyph-name="p" horiz-adv-x="481" d="M595 223T602 211T610 178Q610 138 591 116Q548 63 499 29T386 -5Q333 -5 300 33Q243 -4 181 -5Q168 -198 122 -327T-13 -457Q-67 -457 -93 -418T-119 -310Q-119 -212 -74 -82T65 206Q65 352 63 409Q62
438 86 455T146 472Q167 472 176 464T187 430Q187 405 188 393Q220 433 251 450T317 468Q373 468 408 423T444 305Q444 252 427 202T380 111Q401 105 415 105Q448 105 478 129T555 209Q567 223 582 223Q595 223 602 211ZM222 99T252 130T301 208T319 306Q319 336
307 351T275 367Q239 367 188 291Q187 247 187 162Q187 116 186 91Q222 99 252 130ZM22 -359T40 -242T63 51Q20 -49 -5 -140T-30 -293Q-30 -325 -23 -342T-5 -359Q22 -359 40 -242Z" />
<glyph unicode="q" glyph-name="q" horiz-adv-x="500" d="M632 192T632 161Q632 122 615 100T567 78L530 79Q520 80 501 80Q505 23 505 -34Q505 -185 466 -297T342 -409Q285 -409 256 -344T226 -184Q226 -67 252 47Q218 -5 163 -5Q108 -5 72 41T35 160Q35 239
72 310T172 424T306 468Q330 468 343 452Q352 484 370 495T420 506Q454 506 465 496T476 467Q476 455 464 412T447 354Q431 298 413 230T383 106Q351 -54 351 -177Q351 -223 358 -255T378 -288Q388 -288 399 -254T419 -163T427 -42Q427 34 420 93Q419 98 419 109Q419
142 435 164T482 186Q486 186 558 189Q588 192 609 192Q632 192 632 161ZM226 96T247 124T277 193L320 375Q276 374 240 344T182 265T160 160Q160 129 171 113T203 96Q226 96 247 124Z" />
<glyph unicode="r" glyph-name="r" horiz-adv-x="455" d="M81 -5T66 35T50 163Q50 293 87 410Q96 439 116 452T174 466Q194 466 202 461T210 442Q210 426 195 370Q185 330 179 300T169 226Q202 312 243 366T323 443T396 466Q461 466 461 401Q461 388 452 338Q444
298 444 288Q444 253 469 253Q497 253 541 297Q554 310 568 310Q581 310 588 299T596 268Q596 231 576 210Q548 181 511 161T431 140Q378 140 351 167T323 240Q323 255 326 270Q328 290 328 297Q328 313 317 313Q302 313 278 280T229 191T190 75Q179 28 165 12T119
-5Q81 -5 66 35Z" />
<glyph unicode="s" glyph-name="s" horiz-adv-x="427" d="M182 -27T155 -3T127 51Q127 77 146 96T202 115Q215 115 232 113T259 109Q258 135 248 158T221 202T191 240Q160 181 130 142T63 68Q45 50 25 50Q9 50 -1 61T-11 90Q-11 110 3 127L16 143Q71 211 99 255Q116
284 139 332T184 433Q203 477 263 477Q291 477 302 472T313 456Q313 450 309 437T298 411Q280 375 280 350Q280 335 290 317T323 272Q355 230 371 201T388 136Q388 126 386 108Q435 127 501 209Q513 223 528 223Q541 223 548 211T556 178Q556 140 537 116Q487 54
442 32T329 7Q289 -27 234 -27Q182 -27 155 -3Z" />
<glyph unicode="t" glyph-name="t" horiz-adv-x="393" d="M507 223T514 211T522 178Q522 138 503 116Q460 63 409 29T292 -5Q88 -5 88 282Q88 326 91 371H52Q22 371 12 382T1 417Q1 473 46 473H103Q120 583 155 674T239 819T346 873Q388 873 412 836T436 743Q436
588 306 473H418Q434 473 441 466T448 440Q448 371 335 371H213Q211 321 211 293Q211 189 235 147T313 105Q356 105 389 131T467 209Q479 223 494 223Q507 223 514 211ZM304 777T286 740T251 636T223 488Q282 539 311 602T341 718Q341 777 319 777Q304 777 286
740Z" />
<glyph unicode="u" glyph-name="u" horiz-adv-x="462" d="M105 -5T77 36T48 140Q48 215 58 277T91 410Q101 440 119 453T176 466Q198 466 206 459T215 438Q215 430 204 384Q194 347 188 317Q168 212 168 177Q168 156 173 148T189 139Q204 139 226 169T274 260T324
410Q332 440 348 453T398 466Q421 466 430 461T439 440Q439 415 414 303Q386 175 386 145Q386 126 394 116T415 105Q435 105 462 129T536 209Q548 223 563 223Q576 223 583 211T591 178Q591 138 572 116Q529 63 480 29T367 -5Q319 -5 297 32T274 136Q257 68 223
32T150 -5Q105 -5 77 36Z" />
<glyph unicode="v" glyph-name="v" horiz-adv-x="449" d="M546 305T553 305Q568 305 576 295T584 268Q584 237 572 220T536 194Q490 179 438 179Q394 179 355 191Q326 144 291 94Q251 37 222 16T156 -5Q115 -5 92 27T62 128Q50 268 50 373V408Q51 441 68 454T119
467Q145 467 157 456T170 417Q170 302 184 118Q244 207 274 260Q259 289 259 329Q259 363 274 395T315 447T374 467Q403 467 421 447T439 387Q439 342 415 284Q453 286 516 299L543 304Q546 305 553 305Z" />
<glyph unicode="w" glyph-name="w" horiz-adv-x="700" d="M797 305T804 305Q819 305 827 295T835 268Q835 237 823 220T787 194Q741 179 689 179Q645 179 606 191Q577 144 542 94Q502 37 474 16T409 -5Q369 -5 349 26T323 128L318 201Q287 117 263 73T214 12T156
-5Q115 -5 92 27T62 128Q50 268 50 373V408Q51 441 68 454T119 467Q145 467 157 456T170 417Q170 302 184 118Q252 261 309 416Q320 446 335 456T373 467Q400 467 410 456T421 417Q421 302 435 118Q495 207 525 260Q510 289 510 329Q510 363 525 395T566 447T625
467Q654 467 672 447T690 387Q690 342 666 284Q704 286 767 299L794 304Q797 305 804 305Z" />
<glyph unicode="x" glyph-name="x" horiz-adv-x="529" d="M643 223T650 211T658 178Q658 138 639 116Q595 64 543 30T424 -5Q373 -5 334 14T271 68Q214 -4 136 -4Q81 -4 49 28T17 113Q17 163 40 194T105 225Q141 225 141 198Q141 191 139 173Q136 137 136 132Q136
102 162 102Q181 102 198 124T227 186T239 272Q239 308 230 332T208 357Q197 357 192 352T182 333Q176 317 166 308T131 298Q109 298 96 313T83 361Q83 412 114 441T194 470Q236 470 270 450T322 390Q352 430 389 450T463 470Q502 470 522 452T543 394Q543 349
526 324T485 298Q463 298 455 307T443 333Q441 345 437 351T423 357Q411 357 398 335T375 275T365 198Q365 151 387 126T449 100Q488 100 522 126T603 209Q615 223 630 223Q643 223 650 211Z" />
<glyph unicode="y" glyph-name="y" horiz-adv-x="479" d="M573 221T580 209T588 177Q588 154 581 141T559 118L367 -11Q329 -218 268 -336T111 -455Q60 -455 28 -424T-4 -341Q-4 -294 17 -245T97 -133T263 13L266 36Q273 73 282 142Q262 70 226 33T150 -5Q105
-5 77 36T48 140Q48 215 58 277T91 410Q101 440 119 453T176 466Q198 466 206 459T215 438Q215 430 204 384Q194 347 188 317Q180 276 174 239T168 177Q168 139 189 139Q204 139 226 169T274 260T324 410Q332 440 348 453T398 466Q421 466 430 460T439 440Q439
415 413 268L387 107Q464 165 537 213Q550 221 560 221Q573 221 580 209ZM147 -358T178 -300T240 -107Q163 -172 129 -225T94 -319Q94 -336 100 -347T122 -358Q147 -358 178 -300Z" />
<glyph unicode="z" glyph-name="z" horiz-adv-x="445" d="M560 223T567 211T575 178Q575 141 556 116Q509 55 440 20T283 -15Q215 -15 165 5T89 61T62 141Q62 207 115 258T267 356L103 352Q81 351 70 367T58 407Q58 431 69 449T101 468Q147 468 224 461Q240 460
282 457T354 454Q364 454 392 462Q397 463 411 467T436 471Q452 471 462 457T473 414Q473 382 458 364T411 332Q320 293 260 249T200 160Q200 132 226 114T303 96Q359 96 416 124T520 209Q532 223 547 223Q560 223 567 211Z" />
<glyph unicode="{" glyph-name="braceleft" horiz-adv-x="490" d="M533 930T556 917T579 867Q579 847 563 833T517 819Q468 819 440 810T400 780T384 726Q381 685 368 589L365 562Q353 469 265 432Q329 402 329 317Q329 307 327 283L318 221Q306 133 304 111Q303
104 303 92Q303 51 327 35T413 19Q441 19 458 4T475 -33Q475 -64 450 -79T365 -95Q265 -95 218 -48T170 85Q170 112 172 126Q175 153 178 176T184 220L193 292Q194 298 194 309Q194 343 173 358T105 374Q78 374 64 393T53 440Q60 493 114 493Q169 493 197 512T232
581Q233 586 247 700L253 753Q265 842 323 886T478 930Q533 930 556 917Z" />
<glyph unicode="|" glyph-name="bar" horiz-adv-x="326" d="M59 -307T44 -295T31 -252Q53 -63 111 315Q115 343 134 464T167 690T191 882Q194 911 214 923T261 935Q322 935 316 882Q303 769 287 656T256 443T236 315Q178 -63 156 -252Q153 -282 133 -294T86 -307Q59
-307 44 -295Z" />
<glyph unicode="}" glyph-name="braceright" horiz-adv-x="490" d="M462 492T476 473T487 426Q480 373 426 373Q371 373 343 354T308 285Q302 239 289 130L283 82Q271 -7 213 -51T58 -95Q3 -95 -20 -82T-43 -32Q-43 -12 -27 2T19 16Q68 16 96 25T136 55T152 109Q156
166 171 270L175 304Q187 397 275 434Q211 464 211 549Q211 559 213 583Q220 635 221 638Q229 692 232 724Q233 731 233 743Q233 784 209 800T123 816Q95 816 78 831T61 868Q61 899 86 914T171 930Q271 930 318 883T366 750Q366 723 364 709Q362 688 355 635Q354
626 347 574Q346 568 346 557Q346 523 367 508T435 492Q462 492 476 473Z" />
<glyph unicode="~" glyph-name="asciitilde" horiz-adv-x="700" d="M459 165T444 171T395 198L237 291L182 212Q171 197 155 188T121 179Q102 179 89 190T76 223Q76 256 118 320Q145 362 172 381T233 401Q252 401 269 394T318 368L476 275L531 354Q542 369 558
378T592 387Q611 387 624 376T637 343Q637 310 595 246Q567 204 539 185T478 165Q459 165 444 171Z" />
<glyph unicode="&#xa0;" glyph-name="uni00A0" horiz-adv-x="265" />
<glyph unicode="&#xa1;" glyph-name="exclamdown" horiz-adv-x="340" d="M166 278T144 299T121 363Q121 409 147 436T218 464Q262 464 284 440T307 377Q307 332 282 305T210 278Q166 278 144 299ZM3 -386T-11 -376T-26 -346Q-26 -337 -23 -325Q3 -219 46 -69T128
193Q139 225 180 225Q200 225 213 216T226 188L225 180Q208 69 179 -74T125 -322Q117 -355 96 -370T38 -386Q3 -386 -11 -376Z" />
<glyph unicode="&#xa2;" glyph-name="cent" horiz-adv-x="466" d="M420 189T427 178T435 148Q435 112 418 86Q365 4 254 -4L243 -102Q241 -117 229 -125T203 -134Q189 -134 180 -126T173 -102L187 0Q123 16 84 70T44 197Q44 263 69 316T140 403T242 444L254 545Q255
560 266 568T292 576Q307 576 316 568T324 545L310 444Q370 437 399 407T428 330Q428 288 410 259T361 230Q342 230 331 239T319 264Q319 271 321 280T324 293Q329 308 329 321Q329 334 323 341T298 351L280 222L265 93Q299 96 324 115T380 174Q392 189 407 189Q420
189 427 178ZM160 133T201 106L216 222L231 346Q195 333 178 296T160 202Q160 133 201 106Z" />
<glyph unicode="&#xa3;" glyph-name="sterling" horiz-adv-x="525" d="M295 488T262 447T222 324L221 308L372 312Q385 312 392 302T399 278Q399 260 389 246T362 231L215 232L205 115L464 122Q485 123 496 108T507 71Q507 44 491 23T446 1Q419 1 367 4T292 8Q194
15 150 15Q135 15 118 10T98 4Q73 -5 58 -5Q42 -5 32 10T21 55Q21 87 36 103T83 126L92 232L57 231Q43 231 36 241T28 267Q28 284 37 297T64 310L98 309L101 340Q111 454 176 519T346 584Q399 584 439 566T502 515T524 444Q524 415 509 399T466 383Q420 383 403
440Q389 488 339 488Q295 488 262 447Z" />
<glyph unicode="&#xa4;" glyph-name="currency" horiz-adv-x="700" d="M182 53T167 53Q150 53 136 66T122 97Q122 112 134 124L185 175Q151 228 151 289Q151 351 184 401L133 452Q122 463 122 478Q122 495 135 509T166 523Q180 523 192 511L243 460Q294 495 357
495Q418 495 471 461L522 511Q533 522 548 522Q565 522 578 508T592 477Q592 463 581 452L530 401Q563 351 563 289Q563 228 529 175L580 124Q592 112 592 97Q592 80 578 67T547 53Q532 53 521 64L469 116Q419 83 357 83Q295 83 245 116L193 64Q182 53 167 53ZM410
171T441 205T472 289Q472 338 441 372T357 407Q304 407 273 373T242 289Q242 240 273 206T357 171Q410 171 441 205Z" />
<glyph unicode="&#xa5;" glyph-name="yen" horiz-adv-x="497" d="M506 581T521 573T537 548Q537 529 517 502L344 270L430 271Q443 271 450 263T458 242Q458 227 449 216T422 205L313 206L309 165L421 166Q434 166 441 158T449 137Q449 122 439 110T412 99L302
101L296 46Q290 -5 226 -5Q196 -5 180 7T163 43L164 53L170 100L66 98Q53 98 46 105T39 125Q39 140 49 152T75 165L178 164L183 207L76 206Q63 206 56 214T49 234Q49 249 58 261T84 272L171 270L51 484Q35 511 35 535Q35 559 52 571T97 583Q140 583 160 545L266
337L411 546Q425 566 441 573T484 581Q506 581 521 573Z" />
<glyph unicode="&#xa6;" glyph-name="brokenbar" horiz-adv-x="326" d="M161 394T145 404T129 438Q129 445 130 449L191 882Q195 911 214 923T261 935Q317 935 317 892Q317 886 316 882L255 449Q251 419 232 407T185 394Q161 394 145 404ZM62 -307T46 -297T30
-263Q30 -256 31 -252L92 181Q96 210 115 222T162 234Q218 234 218 191Q218 185 217 181L156 -252Q152 -282 133 -294T86 -307Q62 -307 46 -297Z" />
<glyph unicode="&#xa7;" glyph-name="section" horiz-adv-x="607" d="M469 604T456 616T443 645Q443 654 445 670Q447 686 447 699Q447 754 370 754Q324 754 298 733T272 673Q272 646 288 627T328 595T406 558Q478 526 507 491T537 399Q537 357 518 324T465 266Q499
227 499 169Q499 86 439 41T277 -5Q183 -5 127 32T70 147Q70 188 88 209T141 231Q161 231 174 221T187 194L186 168Q184 152 184 141Q184 113 213 99T284 85Q331 85 356 102T381 152Q381 176 369 191T337 217T277 242Q202 270 158 309T114 421Q114 509 186 563Q154
603 154 661Q154 715 181 756T258 821T374 844Q465 844 512 807T560 699Q560 650 544 627T489 604Q469 604 456 616ZM424 410T399 428T319 473Q268 498 250 508Q226 484 226 445Q226 411 250 390T322 348L342 339Q366 330 390 318Q424 341 424 381Q424 410 399
428Z" />
<glyph unicode="&#xa8;" glyph-name="dieresis" horiz-adv-x="600" d="M171 532T153 549T135 604Q135 644 156 666T214 689Q246 689 264 672T282 617Q282 577 261 555T203 532Q171 532 153 549ZM379 532T361 549T343 604Q343 644 364 666T422 689Q454 689 472
672T490 617Q490 577 469 555T411 532Q379 532 361 549Z" />
<glyph unicode="&#xa9;" glyph-name="copyright" horiz-adv-x="647" d="M290 353T224 392T121 497T83 644Q83 724 120 790T224 896T374 935Q458 935 524 896T627 791T665 644Q665 564 628 498T524 392T374 353Q290 353 224 392ZM440 419T489 449T564 531T590 644Q590
705 564 756T489 838T374 869Q308 869 259 839T184 757T158 644Q158 583 184 532T259 450T374 419Q440 419 489 449ZM304 476T264 517T224 630Q224 684 247 728T310 797T398 822Q445 822 469 800T493 740Q493 685 449 685Q437 685 431 690T424 706Q424 710 426
722T429 739Q429 751 421 758T398 766Q354 766 324 729T294 637Q294 591 315 563T376 535Q402 535 424 545T469 576Q477 582 481 582Q488 582 491 575T495 558Q495 541 484 527Q439 476 367 476Q304 476 264 517Z" />
<glyph unicode="&#xaa;" glyph-name="ordfeminine" horiz-adv-x="393" d="M140 450T109 487T78 586Q78 653 109 712T193 808T307 845Q326 845 332 838T342 812Q354 815 377 815Q426 815 426 777Q426 760 417 710Q408 657 403 612T398 510Q398 477 384 464T336
450Q305 450 292 467T281 522Q255 450 192 450Q140 450 109 487ZM248 535T266 567T301 683L317 767Q283 766 254 741T208 674T190 585Q190 560 199 548T225 535Q248 535 266 567Z" />
<glyph unicode="&#xab;" glyph-name="guillemotleft" horiz-adv-x="615" d="M64 171Q27 202 27 237Q27 258 34 276T55 303L214 411Q232 423 250 423Q273 423 289 407T306 369Q306 345 283 329L154 240L284 129Q299 117 299 99Q299 78 279 60T234 42Q216 42 205
52L64 171ZM330 171Q292 203 292 237Q292 258 299 276T320 303L480 411Q498 423 516 423Q539 423 555 407T572 370Q572 345 548 329L419 240L549 129Q564 117 564 99Q564 78 544 60T499 42Q481 42 470 52L330 171Z" />
<glyph unicode="&#xac;" glyph-name="logicalnot" horiz-adv-x="700" d="M600 55T582 43T541 31Q515 31 497 46T482 86L502 231H130Q107 231 95 245T83 280Q83 305 99 325T144 345H565Q596 345 612 328T629 284Q629 275 628 270L603 78Q600 55 582 43Z" />
<glyph unicode="&#xad;" glyph-name="uni00AD" horiz-adv-x="403" d="M86 244T72 260T57 305Q57 332 70 345T110 360L315 380Q340 382 353 368T367 325Q367 271 315 266L110 246Q86 244 72 260Z" />
<glyph unicode="&#xae;" glyph-name="registered" horiz-adv-x="647" d="M290 353T224 392T121 497T83 644Q83 724 120 790T224 896T374 935Q458 935 524 896T627 791T665 644Q665 564 628 498T524 392T374 353Q290 353 224 392ZM440 419T489 449T564 531T590
644Q590 705 564 756T489 838T374 869Q308 869 259 839T184 757T158 644Q158 583 184 532T259 450T374 419Q440 419 489 449ZM432 478T423 484T406 502T381 552Q365 585 356 597T331 610Q321 557 316 508Q314 492 308 486T285 479Q271 479 262 486T252 504Q252
520 263 582L270 626L279 679Q282 691 283 703T287 726Q286 715 294 773L279 767Q271 763 265 768T258 783Q258 796 272 806Q286 815 311 820T362 826Q425 826 460 800T496 731Q496 695 470 665T388 625Q408 620 419 609T443 576L454 556Q467 533 475 522Q482 512
482 502Q482 492 471 485T449 478Q432 478 423 484ZM383 657T405 677T428 730Q428 754 412 765T359 777Q346 702 343 680L340 656Q383 657 405 677Z" />
<glyph unicode="&#xaf;" glyph-name="overscore" horiz-adv-x="600" d="M167 532T156 543T144 574Q144 598 158 612T197 626H420Q442 626 453 616T465 587Q465 561 451 547T412 532H189Q167 532 156 543Z" />
<glyph unicode="&#xb0;" glyph-name="degree" horiz-adv-x="385" d="M204 536T171 553T118 603T97 682Q97 731 119 768T178 825T255 845Q293 845 326 828T380 778T401 699Q401 649 379 612T320 556T242 536Q204 536 171 553ZM273 621T291 641T310 695Q310 724
293 742T251 760Q225 760 206 740T187 687Q187 657 205 639T246 621Q273 621 291 641Z" />
<glyph unicode="&#xb1;" glyph-name="plusminus" horiz-adv-x="700" d="M577 425T589 411T601 377Q601 352 585 332T540 311H417L404 208Q400 182 382 168T339 154Q316 154 302 168T290 208L303 311H180Q157 311 145 325T133 360Q133 385 149 405T194 425H316L329
528Q332 553 350 567T392 581Q416 581 431 567T443 528L430 425H554Q577 425 589 411ZM538 114T550 100T562 66Q562 41 546 21T501 0H141Q118 0 106 14T94 49Q94 74 110 94T155 114H515Q538 114 550 100Z" />
<glyph unicode="&#xb2;" glyph-name="uni00B2" horiz-adv-x="450" d="M434 457T443 445T453 414Q453 391 439 373T402 355Q382 355 343 357T283 360Q189 366 158 366Q151 366 140 363T125 359Q101 351 89 351Q76 351 67 363T58 400Q58 426 71 440T110 467Q167
492 215 531T292 615T321 701Q321 729 308 744T268 759Q231 759 209 740T187 688Q187 639 138 639Q114 639 101 652T88 691Q88 732 110 767T175 824T281 845Q356 845 398 807T441 703Q441 641 389 574T237 454L417 457Q434 457 443 445Z" />
<glyph unicode="&#xb3;" glyph-name="uni00B3" horiz-adv-x="450" d="M384 590T413 561T443 487Q443 424 388 389T252 354Q161 354 116 385T70 465Q70 492 83 507T119 523Q138 523 146 514T164 481Q171 462 189 451T245 440Q276 440 299 453T322 491Q322 519 301
532T237 549Q220 550 211 561T202 588Q202 608 209 617T234 629Q285 638 308 661T331 718Q331 737 317 748T274 759Q206 759 192 709Q185 686 174 677T144 667Q121 667 109 680T97 715Q97 748 120 778T186 826T287 845Q367 845 409 814T452 722Q452 682 422 648T342
596Q384 590 413 561Z" />
<glyph unicode="&#xb4;" glyph-name="acute" horiz-adv-x="600" d="M289 532T279 542T268 568Q268 575 273 587L366 795Q375 815 389 824T422 834Q447 834 466 816T486 771Q486 743 464 715L335 549Q322 532 303 532Q289 532 279 542Z" />
<glyph unicode="&#xb5;" glyph-name="uni00B5" horiz-adv-x="462" d="M58 -265T43 -254T28 -216Q28 6 45 166Q60 316 91 410Q101 440 119 453T176 466Q198 466 206 459T215 438Q215 430 204 384Q194 347 188 317Q168 212 168 177Q168 156 173 148T189 139Q204
139 226 169T274 260T324 410Q332 440 348 453T398 466Q421 466 430 461T439 440Q439 415 414 303Q386 175 386 145Q386 126 394 116T415 105Q435 105 462 129T536 209Q548 223 563 223Q576 223 583 211T591 178Q591 138 572 116Q529 63 480 29T367 -5Q319 -5 297
32T274 136Q258 69 225 33T151 -5Q149 -58 149 -131L150 -207Q150 -239 131 -252T86 -265Q58 -265 43 -254Z" />
<glyph unicode="&#xb6;" glyph-name="paragraph" horiz-adv-x="739" d="M268 -5T253 10T237 55Q237 87 246 152T275 329L279 355Q282 380 290 416Q291 427 295 447Q257 447 211 468T133 531T100 632Q100 738 189 794T430 850Q521 850 578 841T668 806T701 729Q701
710 677 570L663 488L641 357Q630 290 619 202T603 65Q600 28 582 12T530 -5Q463 -5 463 55Q463 87 472 152T501 329L505 355L528 486Q537 540 554 667Q555 671 555 679Q555 716 522 716H479Q463 647 437 488L415 357Q404 290 393 202T377 65Q374 28 356 12T304
-5Q268 -5 253 10Z" />
<glyph unicode="&#xb7;" glyph-name="middot" horiz-adv-x="257" d="M92 147T70 171T47 234Q47 279 72 306T144 333Q188 333 210 312T233 248Q233 202 207 175T136 147Q92 147 70 171Z" />
<glyph unicode="&#xb8;" glyph-name="cedilla" horiz-adv-x="600" d="M121 -250T97 -245Q58 -238 58 -201Q58 -156 98 -156Q106 -156 111 -157Q138 -161 164 -161Q204 -161 226 -145T249 -94Q249 -69 228 -55T169 -40Q143 -40 129 -33T115 -9Q115 -3 116 0Q120
20 132 29T169 39H195Q264 39 305 6T346 -86Q346 -133 324 -170T259 -229T159 -250Q121 -250 97 -245Z" />
<glyph unicode="&#xb9;" glyph-name="uni00B9" horiz-adv-x="450" d="M238 353T222 367T209 414Q218 500 231 593T253 736L148 705Q140 703 137 703Q121 703 112 718T105 752Q107 767 117 777T159 800T258 831L293 840Q310 845 330 845Q380 845 380 796Q380 791
378 775Q365 711 327 405Q321 353 261 353Q238 353 222 367Z" />
<glyph unicode="&#xba;" glyph-name="ordmasculine" horiz-adv-x="408" d="M190 451T155 475T101 540T83 626Q83 690 107 740T173 817T268 845Q320 845 356 821T410 756T428 670Q428 607 404 557T337 479T242 451Q190 451 155 475ZM279 541T298 572T318 662Q318
708 302 731T262 755Q232 755 213 725T193 634Q193 586 209 564T251 541Q279 541 298 572Z" />
<glyph unicode="&#xbb;" glyph-name="guillemotright" horiz-adv-x="615" d="M118 42T100 42Q77 42 61 58T44 95Q44 120 68 136L197 225L67 336Q52 348 52 366Q52 387 72 405T117 423Q135 423 146 413L286 294Q324 262 324 228Q324 207 317 189T296 162L136 54Q118
42 100 42ZM384 42T366 42Q343 42 327 58T310 96Q310 120 333 136L462 225L332 336Q317 348 317 366Q317 387 337 405T382 423Q400 423 411 413L552 294Q589 263 589 228Q589 207 582 189T561 162L402 54Q384 42 366 42Z" />
<glyph unicode="&#xbc;" glyph-name="onequarter" horiz-adv-x="955" d="M238 353T222 367T209 414Q218 500 231 593T253 736L148 705Q140 703 137 703Q121 703 112 718T105 752Q107 767 117 777T159 800T258 831L293 840Q310 845 330 845Q380 845 380 796Q380
791 378 775Q365 711 327 405Q321 353 261 353Q238 353 222 367ZM316 100T299 116T282 156Q282 173 294 194L595 691Q617 728 649 728Q670 728 686 711T702 671Q702 655 693 640L381 126Q365 100 338 100Q316 100 299 116ZM909 186T919 176T929 146Q929 115 913
103T860 90H848Q846 76 844 46Q842 8 827 -5T778 -19Q734 -19 734 35L735 49L739 90Q695 91 596 91Q577 91 562 108T546 153Q546 170 551 184Q585 284 661 427Q676 456 693 468T747 480Q765 480 774 472T784 450Q784 438 776 422L758 389Q722 320 701 276T662 186H750Q762
272 777 328Q784 355 799 368T841 382Q888 382 888 345Q888 340 886 328Q871 259 860 186H886Q909 186 919 176Z" />
<glyph unicode="&#xbd;" glyph-name="onehalf" horiz-adv-x="1024" d="M238 353T222 367T209 414Q218 500 231 593T253 736L148 705Q140 703 137 703Q121 703 112 718T105 752Q107 767 117 777T159 800T258 831L293 840Q310 845 330 845Q380 845 380 796Q380 791
378 775Q365 711 327 405Q321 353 261 353Q238 353 222 367ZM316 100T299 116T282 156Q282 173 294 194L595 691Q617 728 649 728Q670 728 686 711T702 671Q702 655 693 640L381 126Q365 100 338 100Q316 100 299 116ZM964 92T973 80T983 49Q983 26 969 8T932 -10Q912
-10 873 -8T813 -5Q719 1 688 1Q681 1 670 -2T655 -6Q631 -14 619 -14Q606 -14 597 -2T588 35Q588 61 601 75T640 102Q697 127 745 166T822 250T851 336Q851 364 838 379T798 394Q761 394 739 375T717 323Q717 274 668 274Q644 274 631 287T618 326Q618 367 640
402T705 459T811 480Q886 480 928 442T971 338Q971 276 919 209T767 89L947 92Q964 92 973 80Z" />
<glyph unicode="&#xbe;" glyph-name="threequarters" horiz-adv-x="1035" d="M384 590T413 561T443 487Q443 424 388 389T252 354Q161 354 116 385T70 465Q70 492 83 507T119 523Q138 523 146 514T164 481Q171 462 189 451T245 440Q276 440 299 453T322 491Q322
519 301 532T237 549Q220 550 211 561T202 588Q202 608 209 617T234 629Q285 638 308 661T331 718Q331 737 317 748T274 759Q206 759 192 709Q185 686 174 677T144 667Q121 667 109 680T97 715Q97 748 120 778T186 826T287 845Q367 845 409 814T452 722Q452 682
422 648T342 596Q384 590 413 561ZM396 100T379 116T362 156Q362 173 374 194L675 691Q697 728 729 728Q750 728 766 711T782 671Q782 655 773 640L461 126Q445 100 418 100Q396 100 379 116ZM989 186T999 176T1009 146Q1009 115 993 103T940 90H928Q926 76 924
46Q922 8 907 -5T858 -19Q814 -19 814 35L815 49L819 90Q775 91 676 91Q657 91 642 108T626 153Q626 170 631 184Q665 284 741 427Q756 456 773 468T827 480Q845 480 854 472T864 450Q864 438 856 422L838 389Q802 320 781 276T742 186H830Q842 272 857 328Q864
355 879 368T921 382Q968 382 968 345Q968 340 966 328Q951 259 940 186H966Q989 186 999 176Z" />
<glyph unicode="&#xbf;" glyph-name="questiondown" horiz-adv-x="476" d="M271 279T249 300T226 364Q226 410 252 437T323 465Q367 465 389 441T412 378Q412 333 387 306T315 279Q271 279 249 300ZM65 -385T11 -343T-44 -220Q-44 -157 -12 -106T84 0Q138 46 166
75T206 125T227 175Q234 201 249 213T285 226Q303 226 314 216T324 181Q320 118 294 69T207 -41Q150 -97 125 -136T100 -217Q100 -286 177 -286Q223 -286 247 -266T271 -214L270 -173Q270 -156 282 -144T322 -131Q353 -131 369 -149T386 -202Q386 -252 362 -293T287
-360T164 -385Q65 -385 11 -343Z" />
<glyph unicode="&#xc0;" glyph-name="Agrave" horiz-adv-x="786" d="M231 -5T176 29T88 127T56 280Q56 432 121 561T313 769T618 848Q664 848 716 841T812 820Q840 812 840 780Q840 754 821 731T775 708Q767 708 763 709Q711 721 674 726T596 732Q469 732 380
671T247 508T203 290Q203 205 236 159T324 112Q385 112 431 162T515 324T590 628Q596 656 614 666T662 676Q733 676 733 630Q733 622 730 610Q704 513 683 396T661 217Q661 163 677 139T726 114Q758 114 787 135T860 209Q872 223 887 223Q900 223 907 211T915 178Q915
139 896 116Q847 57 800 26T685 -5Q615 -5 572 35T518 150Q444 -5 300 -5Q231 -5 176 29ZM575 912T566 917L379 1014Q326 1042 326 1085Q326 1111 345 1129T390 1148Q414 1148 434 1131L606 984Q625 968 625 948Q625 933 614 923T587 912Q575 912 566 917Z" />
<glyph unicode="&#xc1;" glyph-name="Aacute" horiz-adv-x="786" d="M231 -5T176 29T88 127T56 280Q56 432 121 561T313 769T618 848Q664 848 716 841T812 820Q840 812 840 780Q840 754 821 731T775 708Q767 708 763 709Q711 721 674 726T596 732Q469 732 380
671T247 508T203 290Q203 205 236 159T324 112Q385 112 431 162T515 324T590 628Q596 656 614 666T662 676Q733 676 733 630Q733 622 730 610Q704 513 683 396T661 217Q661 163 677 139T726 114Q758 114 787 135T860 209Q872 223 887 223Q900 223 907 211T915 178Q915
139 896 116Q847 57 800 26T685 -5Q615 -5 572 35T518 150Q444 -5 300 -5Q231 -5 176 29ZM584 912T573 922T562 948Q562 968 581 984L753 1131Q773 1148 797 1148Q823 1148 842 1130T861 1085Q861 1042 808 1014L621 917Q612 912 600 912Q584 912 573 922Z" />
<glyph unicode="&#xc2;" glyph-name="Acircumflex" horiz-adv-x="786" d="M231 -5T176 29T88 127T56 280Q56 432 121 561T313 769T618 848Q664 848 716 841T812 820Q840 812 840 780Q840 754 821 731T775 708Q767 708 763 709Q711 721 674 726T596 732Q469 732
380 671T247 508T203 290Q203 205 236 159T324 112Q385 112 431 162T515 324T590 628Q596 656 614 666T662 676Q733 676 733 630Q733 622 730 610Q704 513 683 396T661 217Q661 163 677 139T726 114Q758 114 787 135T860 209Q872 223 887 223Q900 223 907 211T915
178Q915 139 896 116Q847 57 800 26T685 -5Q615 -5 572 35T518 150Q444 -5 300 -5Q231 -5 176 29ZM624 1093L544 951Q533 931 515 921T478 911Q457 911 442 922T427 953Q427 970 440 990L532 1127Q569 1183 637 1183Q668 1183 686 1167T720 1114L767 993Q773 978
773 965Q773 941 756 927T716 912Q699 912 685 921T665 948L624 1093Z" />
<glyph unicode="&#xc3;" glyph-name="Atilde" horiz-adv-x="786" d="M231 -5T176 29T88 127T56 280Q56 432 121 561T313 769T618 848Q664 848 716 841T812 820Q840 812 840 780Q840 754 821 731T775 708Q767 708 763 709Q711 721 674 726T596 732Q469 732 380
671T247 508T203 290Q203 205 236 159T324 112Q385 112 431 162T515 324T590 628Q596 656 614 666T662 676Q733 676 733 630Q733 622 730 610Q704 513 683 396T661 217Q661 163 677 139T726 114Q758 114 787 135T860 209Q872 223 887 223Q900 223 907 211T915 178Q915
139 896 116Q847 57 800 26T685 -5Q615 -5 572 35T518 150Q444 -5 300 -5Q231 -5 176 29ZM685 912T671 917T635 938L528 1012L484 949Q476 938 464 933T438 927Q419 927 406 937T392 966Q392 993 429 1047Q473 1111 526 1111Q543 1111 556 1106T592 1085L699 1011L743
1074Q751 1085 763 1090T789 1096Q808 1096 821 1086T835 1057Q835 1044 827 1028T798 976Q778 943 753 928T701 912Q685 912 671 917Z" />
<glyph unicode="&#xc4;" glyph-name="Adieresis" horiz-adv-x="786" d="M231 -5T176 29T88 127T56 280Q56 432 121 561T313 769T618 848Q664 848 716 841T812 820Q840 812 840 780Q840 754 821 731T775 708Q767 708 763 709Q711 721 674 726T596 732Q469 732 380
671T247 508T203 290Q203 205 236 159T324 112Q385 112 431 162T515 324T590 628Q596 656 614 666T662 676Q733 676 733 630Q733 622 730 610Q704 513 683 396T661 217Q661 163 677 139T726 114Q758 114 787 135T860 209Q872 223 887 223Q900 223 907 211T915 178Q915
139 896 116Q847 57 800 26T685 -5Q615 -5 572 35T518 150Q444 -5 300 -5Q231 -5 176 29ZM469 912T450 930T431 986Q431 1027 453 1050T512 1073Q544 1073 563 1055T582 999Q582 958 560 935T501 912Q469 912 450 930ZM677 912T658 930T639 986Q639 1027 661 1050T720
1073Q752 1073 771 1055T790 999Q790 958 768 935T709 912Q677 912 658 930Z" />
<glyph unicode="&#xc5;" glyph-name="Aring" horiz-adv-x="786" d="M231 -5T176 29T88 127T56 280Q56 432 121 561T313 769T618 848Q664 848 716 841T812 820Q840 812 840 780Q840 754 821 731T775 708Q767 708 763 709Q711 721 674 726T596 732Q469 732 380 671T247
508T203 290Q203 205 236 159T324 112Q385 112 431 162T515 324T590 628Q596 656 614 666T662 676Q733 676 733 630Q733 622 730 610Q704 513 683 396T661 217Q661 163 677 139T726 114Q758 114 787 135T860 209Q872 223 887 223Q900 223 907 211T915 178Q915 139
896 116Q847 57 800 26T685 -5Q615 -5 572 35T518 150Q444 -5 300 -5Q231 -5 176 29ZM558 912T520 947T482 1044Q482 1089 501 1122T553 1174T623 1192Q676 1192 714 1157T752 1060Q752 1015 733 982T681 930T611 912Q558 912 520 947ZM635 1000T649 1015T663 1055Q663
1077 650 1090T619 1104Q599 1104 585 1089T571 1049Q571 1027 584 1014T615 1000Q635 1000 649 1015Z" />
<glyph unicode="&#xc6;" glyph-name="AE" horiz-adv-x="1015" d="M1100 187T1111 187Q1125 187 1133 176T1141 146Q1141 123 1132 105T1099 69Q1054 37 981 16T839 -5Q716 -5 644 43T550 173Q471 -5 312 -5Q237 -5 179 29T89 127T56 280Q56 426 114 548T277 748T511
842Q519 843 532 843Q597 843 597 780Q597 759 588 746T559 730Q445 717 365 656T244 500T203 290Q203 205 236 159T324 112Q407 112 457 194T550 431L631 727Q646 782 680 810T766 840L818 843Q944 849 1016 849Q1052 849 1066 837T1080 795Q1080 764 1062 742T1008
720Q941 720 871 717T768 710Q744 638 710 483Q756 485 776 485Q883 490 957 490Q987 490 998 478T1010 441Q1010 410 993 390T944 368L831 365Q779 363 686 361Q675 312 675 274Q675 115 862 115Q914 115 968 131T1091 182Q1100 187 1111 187Z" />
<glyph unicode="&#xc7;" glyph-name="Ccedilla" horiz-adv-x="686" d="M770 188T780 188Q796 188 804 176T812 145Q812 84 746 55Q617 -1 466 -5Q496 -37 496 -86Q496 -161 445 -207T305 -254Q267 -254 243 -249Q223 -245 214 -234T204 -202Q204 -178 214 -167T244
-156Q252 -156 257 -157Q284 -161 310 -161Q350 -161 372 -145T395 -94Q395 -69 374 -55T315 -40Q289 -40 275 -33T261 -9Q261 13 274 26Q174 65 119 149T64 348Q64 495 119 609T270 785T481 848Q589 848 645 793T701 646Q701 585 680 548T618 511Q590 511 574
524T558 562Q558 571 562 595Q568 625 568 643Q568 734 471 734Q405 734 345 691T248 565T211 366Q211 246 278 181T476 115Q541 115 607 131T755 182Q770 188 780 188Z" />
<glyph unicode="&#xc8;" glyph-name="Egrave" horiz-adv-x="686" d="M770 188T780 188Q796 188 804 176T812 145Q812 115 798 94T748 56Q689 28 595 12T410 -5Q284 -5 199 23T73 102T31 215Q31 301 86 361T250 449Q191 466 160 509T128 605Q128 677 173 732T296
818T465 848Q589 848 651 795T713 656Q713 597 692 561T630 524Q602 524 586 536T570 574Q570 591 575 611Q580 644 580 656Q580 692 553 714T463 737Q378 737 327 701T276 604Q276 557 314 527T440 493Q462 492 471 483T480 453Q480 387 420 386Q337 384 283 363T204
310T179 240Q179 178 237 147T421 115Q504 115 596 134T755 182Q770 188 780 188ZM449 912T440 917L253 1014Q200 1042 200 1085Q200 1111 219 1129T264 1148Q288 1148 308 1131L480 984Q499 968 499 948Q499 933 488 923T461 912Q449 912 440 917Z" />
<glyph unicode="&#xc9;" glyph-name="Eacute" horiz-adv-x="686" d="M770 188T780 188Q796 188 804 176T812 145Q812 115 798 94T748 56Q689 28 595 12T410 -5Q284 -5 199 23T73 102T31 215Q31 301 86 361T250 449Q191 466 160 509T128 605Q128 677 173 732T296
818T465 848Q589 848 651 795T713 656Q713 597 692 561T630 524Q602 524 586 536T570 574Q570 591 575 611Q580 644 580 656Q580 692 553 714T463 737Q378 737 327 701T276 604Q276 557 314 527T440 493Q462 492 471 483T480 453Q480 387 420 386Q337 384 283 363T204
310T179 240Q179 178 237 147T421 115Q504 115 596 134T755 182Q770 188 780 188ZM458 912T447 922T436 948Q436 968 455 984L627 1131Q647 1148 671 1148Q697 1148 716 1130T735 1085Q735 1042 682 1014L495 917Q486 912 474 912Q458 912 447 922Z" />
<glyph unicode="&#xca;" glyph-name="Ecircumflex" horiz-adv-x="686" d="M770 188T780 188Q796 188 804 176T812 145Q812 115 798 94T748 56Q689 28 595 12T410 -5Q284 -5 199 23T73 102T31 215Q31 301 86 361T250 449Q191 466 160 509T128 605Q128 677 173 732T296
818T465 848Q589 848 651 795T713 656Q713 597 692 561T630 524Q602 524 586 536T570 574Q570 591 575 611Q580 644 580 656Q580 692 553 714T463 737Q378 737 327 701T276 604Q276 557 314 527T440 493Q462 492 471 483T480 453Q480 387 420 386Q337 384 283 363T204
310T179 240Q179 178 237 147T421 115Q504 115 596 134T755 182Q770 188 780 188ZM498 1093L418 951Q407 931 389 921T352 911Q331 911 316 922T301 953Q301 970 314 990L406 1127Q443 1183 511 1183Q542 1183 560 1167T594 1114L641 993Q647 978 647 965Q647 941
630 927T590 912Q573 912 559 921T539 948L498 1093Z" />
<glyph unicode="&#xcb;" glyph-name="Edieresis" horiz-adv-x="686" d="M770 188T780 188Q796 188 804 176T812 145Q812 115 798 94T748 56Q689 28 595 12T410 -5Q284 -5 199 23T73 102T31 215Q31 301 86 361T250 449Q191 466 160 509T128 605Q128 677 173 732T296
818T465 848Q589 848 651 795T713 656Q713 597 692 561T630 524Q602 524 586 536T570 574Q570 591 575 611Q580 644 580 656Q580 692 553 714T463 737Q378 737 327 701T276 604Q276 557 314 527T440 493Q462 492 471 483T480 453Q480 387 420 386Q337 384 283 363T204
310T179 240Q179 178 237 147T421 115Q504 115 596 134T755 182Q770 188 780 188ZM343 912T324 930T305 986Q305 1027 327 1050T386 1073Q418 1073 437 1055T456 999Q456 958 434 935T375 912Q343 912 324 930ZM551 912T532 930T513 986Q513 1027 535 1050T594
1073Q626 1073 645 1055T664 999Q664 958 642 935T583 912Q551 912 532 930Z" />
<glyph unicode="&#xcc;" glyph-name="Igrave" horiz-adv-x="495" d="M520 842T538 830T556 799Q556 767 536 748T479 728Q421 728 391 727Q389 715 373 619Q355 512 351 488L330 357Q308 210 295 111Q316 112 352 112Q405 112 424 98T443 56Q443 30 423 12T365
-6Q340 -6 286 -4Q236 -2 220 -2Q157 -2 82 -13Q49 -18 35 -18Q13 -18 -2 -6T-17 29Q-17 65 15 85T105 106L152 107L155 129Q179 289 190 355L212 486Q232 602 248 725L164 724Q128 724 115 735T101 768Q101 836 199 841Q245 843 311 843L494 842Q520 842 538 830ZM321
912T312 917L125 1014Q72 1042 72 1085Q72 1111 91 1129T136 1148Q160 1148 180 1131L352 984Q371 968 371 948Q371 933 360 923T333 912Q321 912 312 917Z" />
<glyph unicode="&#xcd;" glyph-name="Iacute" horiz-adv-x="495" d="M520 842T538 830T556 799Q556 767 536 748T479 728Q421 728 391 727Q389 715 373 619Q355 512 351 488L330 357Q308 210 295 111Q316 112 352 112Q405 112 424 98T443 56Q443 30 423 12T365
-6Q340 -6 286 -4Q236 -2 220 -2Q157 -2 82 -13Q49 -18 35 -18Q13 -18 -2 -6T-17 29Q-17 65 15 85T105 106L152 107L155 129Q179 289 190 355L212 486Q232 602 248 725L164 724Q128 724 115 735T101 768Q101 836 199 841Q245 843 311 843L494 842Q520 842 538 830ZM330
912T319 922T308 948Q308 968 327 984L499 1131Q519 1148 543 1148Q569 1148 588 1130T607 1085Q607 1042 554 1014L367 917Q358 912 346 912Q330 912 319 922Z" />
<glyph unicode="&#xce;" glyph-name="Icircumflex" horiz-adv-x="495" d="M520 842T538 830T556 799Q556 767 536 748T479 728Q421 728 391 727Q389 715 373 619Q355 512 351 488L330 357Q308 210 295 111Q316 112 352 112Q405 112 424 98T443 56Q443 30 423 12T365
-6Q340 -6 286 -4Q236 -2 220 -2Q157 -2 82 -13Q49 -18 35 -18Q13 -18 -2 -6T-17 29Q-17 65 15 85T105 106L152 107L155 129Q179 289 190 355L212 486Q232 602 248 725L164 724Q128 724 115 735T101 768Q101 836 199 841Q245 843 311 843L494 842Q520 842 538 830ZM370
1093L290 951Q279 931 261 921T224 911Q203 911 188 922T173 953Q173 970 186 990L278 1127Q315 1183 383 1183Q414 1183 432 1167T466 1114L513 993Q519 978 519 965Q519 941 502 927T462 912Q445 912 431 921T411 948L370 1093Z" />
<glyph unicode="&#xcf;" glyph-name="Idieresis" horiz-adv-x="495" d="M520 842T538 830T556 799Q556 767 536 748T479 728Q421 728 391 727Q389 715 373 619Q355 512 351 488L330 357Q308 210 295 111Q316 112 352 112Q405 112 424 98T443 56Q443 30 423 12T365
-6Q340 -6 286 -4Q236 -2 220 -2Q157 -2 82 -13Q49 -18 35 -18Q13 -18 -2 -6T-17 29Q-17 65 15 85T105 106L152 107L155 129Q179 289 190 355L212 486Q232 602 248 725L164 724Q128 724 115 735T101 768Q101 836 199 841Q245 843 311 843L494 842Q520 842 538 830ZM215
912T196 930T177 986Q177 1027 199 1050T258 1073Q290 1073 309 1055T328 999Q328 958 306 935T247 912Q215 912 196 930ZM423 912T404 930T385 986Q385 1027 407 1050T466 1073Q498 1073 517 1055T536 999Q536 958 514 935T455 912Q423 912 404 930Z" />
<glyph unicode="&#xd0;" glyph-name="Eth" horiz-adv-x="821" d="M543 860T628 815T758 687T803 494Q803 351 743 238T567 60T294 -5Q228 -5 155 5Q116 10 101 26T89 78Q102 216 134 383H65Q15 383 15 429Q15 470 44 487T138 505H161Q197 660 243 798Q250 818
260 830T291 848Q340 860 424 860Q543 860 628 815ZM424 108T502 159T618 297T656 489Q656 618 589 683T411 748Q378 748 367 747Q334 647 300 504Q329 503 391 503Q455 503 477 490T500 448Q500 417 487 399T437 381Q405 381 327 383L275 384Q245 234 234 111Q265
108 307 108Q424 108 502 159Z" />
<glyph unicode="&#xd1;" glyph-name="Ntilde" horiz-adv-x="884" d="M195 -5T179 11T163 74Q163 105 169 149T190 282Q192 294 206 379T231 559Q241 639 241 679Q241 724 208 724Q183 724 146 698T65 613Q51 594 34 594Q20 594 10 607T-1 638Q-1 655 5 670T27
708Q76 775 136 811T262 848Q317 848 344 814T372 715Q372 657 356 547Q406 695 483 771T664 848Q746 848 787 802T829 677Q829 633 816 570L755 284Q745 234 745 198Q745 156 764 135T819 114Q852 114 883 136T958 209Q970 223 985 223Q998 223 1005 211T1013
178Q1013 139 994 116Q942 53 891 24T784 -5Q699 -5 651 45T603 181Q603 214 608 253T627 352L667 535Q669 544 674 567T682 610T685 651Q685 683 667 702T616 721Q556 721 496 657T385 451T305 86Q298 35 285 15T232 -5Q195 -5 179 11ZM644 912T630 917T594 938L487
1012L443 949Q435 938 423 933T397 927Q378 927 365 937T351 966Q351 993 388 1047Q432 1111 485 1111Q502 1111 515 1106T551 1085L658 1011L702 1074Q710 1085 722 1090T748 1096Q767 1096 780 1086T794 1057Q794 1044 786 1028T757 976Q737 943 712 928T660
912Q644 912 630 917Z" />
<glyph unicode="&#xd2;" glyph-name="Ograve" horiz-adv-x="816" d="M291 -5T220 35T106 152T64 338Q64 490 119 606T270 785T482 848Q571 848 642 808T756 691T798 505Q798 353 743 237T592 58T380 -5Q291 -5 220 35ZM468 113T527 161T619 294T651 488Q651 607
601 668T472 730Q395 730 336 683T244 550T211 355Q211 236 261 175T390 113Q468 113 527 161ZM466 912T457 917L270 1014Q217 1042 217 1085Q217 1111 236 1129T281 1148Q305 1148 325 1131L497 984Q516 968 516 948Q516 933 505 923T478 912Q466 912 457 917Z"
/>
<glyph unicode="&#xd3;" glyph-name="Oacute" horiz-adv-x="816" d="M291 -5T220 35T106 152T64 338Q64 490 119 606T270 785T482 848Q571 848 642 808T756 691T798 505Q798 353 743 237T592 58T380 -5Q291 -5 220 35ZM468 113T527 161T619 294T651 488Q651 607
601 668T472 730Q395 730 336 683T244 550T211 355Q211 236 261 175T390 113Q468 113 527 161ZM475 912T464 922T453 948Q453 968 472 984L644 1131Q664 1148 688 1148Q714 1148 733 1130T752 1085Q752 1042 699 1014L512 917Q503 912 491 912Q475 912 464 922Z"
/>
<glyph unicode="&#xd4;" glyph-name="Ocircumflex" horiz-adv-x="816" d="M291 -5T220 35T106 152T64 338Q64 490 119 606T270 785T482 848Q571 848 642 808T756 691T798 505Q798 353 743 237T592 58T380 -5Q291 -5 220 35ZM468 113T527 161T619 294T651 488Q651
607 601 668T472 730Q395 730 336 683T244 550T211 355Q211 236 261 175T390 113Q468 113 527 161ZM515 1093L435 951Q424 931 406 921T369 911Q348 911 333 922T318 953Q318 970 331 990L423 1127Q460 1183 528 1183Q559 1183 577 1167T611 1114L658 993Q664 978
664 965Q664 941 647 927T607 912Q590 912 576 921T556 948L515 1093Z" />
<glyph unicode="&#xd5;" glyph-name="Otilde" horiz-adv-x="816" d="M291 -5T220 35T106 152T64 338Q64 490 119 606T270 785T482 848Q571 848 642 808T756 691T798 505Q798 353 743 237T592 58T380 -5Q291 -5 220 35ZM468 113T527 161T619 294T651 488Q651 607
601 668T472 730Q395 730 336 683T244 550T211 355Q211 236 261 175T390 113Q468 113 527 161ZM576 912T562 917T526 938L419 1012L375 949Q367 938 355 933T329 927Q310 927 297 937T283 966Q283 993 320 1047Q364 1111 417 1111Q434 1111 447 1106T483 1085L590
1011L634 1074Q642 1085 654 1090T680 1096Q699 1096 712 1086T726 1057Q726 1044 718 1028T689 976Q669 943 644 928T592 912Q576 912 562 917Z" />
<glyph unicode="&#xd6;" glyph-name="Odieresis" horiz-adv-x="816" d="M291 -5T220 35T106 152T64 338Q64 490 119 606T270 785T482 848Q571 848 642 808T756 691T798 505Q798 353 743 237T592 58T380 -5Q291 -5 220 35ZM468 113T527 161T619 294T651 488Q651
607 601 668T472 730Q395 730 336 683T244 550T211 355Q211 236 261 175T390 113Q468 113 527 161ZM360 912T341 930T322 986Q322 1027 344 1050T403 1073Q435 1073 454 1055T473 999Q473 958 451 935T392 912Q360 912 341 930ZM568 912T549 930T530 986Q530 1027
552 1050T611 1073Q643 1073 662 1055T681 999Q681 958 659 935T600 912Q568 912 549 930Z" />
<glyph unicode="&#xd7;" glyph-name="multiply" horiz-adv-x="700" d="M532 514T551 514Q573 514 588 498T604 460Q604 435 583 417L437 287L551 157Q563 142 563 126Q563 101 542 81T495 61Q475 61 460 77L346 207L202 78Q183 62 163 62Q142 62 126 78T110 115Q110
139 132 158L276 287L163 416Q151 431 151 447Q151 472 172 493T218 514Q239 514 253 497L367 367L513 498Q532 514 551 514Z" />
<glyph unicode="&#xd8;" glyph-name="Oslash" horiz-adv-x="816" d="M687 797T742 714T798 505Q798 353 743 237T592 58T380 -5H373L352 -84Q348 -98 335 -105T303 -112Q281 -112 264 -101T247 -70Q247 -65 249 -57L268 13Q175 45 120 129T64 338Q64 490 119 606T270
785T482 848H489L508 921Q512 935 525 942T557 949Q579 949 596 938T614 906Q614 901 612 893L595 830Q687 797 742 714ZM211 274T235 219T301 137L387 455L458 730Q385 726 329 677T242 544T211 355Q211 274 235 219ZM478 117T534 166T620 299T651 488Q651 569
627 624T561 706L491 451L403 113Q478 117 534 166Z" />
<glyph unicode="&#xd9;" glyph-name="Ugrave" horiz-adv-x="890" d="M248 -5T205 41T162 166Q162 210 175 273L237 559Q239 567 246 603T254 681Q254 705 245 717T219 729Q189 729 149 701T65 613Q51 594 34 594Q20 594 10 607T-1 638Q-1 669 27 708Q129 848 266
848Q327 848 361 811T396 702Q396 651 389 608T365 491L324 308Q322 299 317 276T309 233T306 192Q306 160 324 141T375 122Q435 122 496 186T610 392T692 757Q699 808 712 828T765 848Q800 848 817 827T834 759Q834 732 828 688T808 565Q781 412 765 284Q757 226
757 198Q757 157 775 136T825 114Q858 114 889 136T964 209Q976 223 991 223Q1004 223 1011 211T1019 178Q1019 139 1000 116Q948 53 897 24T790 -5Q707 -5 663 37T619 148Q619 186 635 296Q585 149 509 72T332 -5Q248 -5 205 41ZM516 912T507 917L320 1014Q267
1042 267 1085Q267 1111 286 1129T331 1148Q355 1148 375 1131L547 984Q566 968 566 948Q566 933 555 923T528 912Q516 912 507 917Z" />
<glyph unicode="&#xda;" glyph-name="Uacute" horiz-adv-x="890" d="M248 -5T205 41T162 166Q162 210 175 273L237 559Q239 567 246 603T254 681Q254 705 245 717T219 729Q189 729 149 701T65 613Q51 594 34 594Q20 594 10 607T-1 638Q-1 669 27 708Q129 848 266
848Q327 848 361 811T396 702Q396 651 389 608T365 491L324 308Q322 299 317 276T309 233T306 192Q306 160 324 141T375 122Q435 122 496 186T610 392T692 757Q699 808 712 828T765 848Q800 848 817 827T834 759Q834 732 828 688T808 565Q781 412 765 284Q757 226
757 198Q757 157 775 136T825 114Q858 114 889 136T964 209Q976 223 991 223Q1004 223 1011 211T1019 178Q1019 139 1000 116Q948 53 897 24T790 -5Q707 -5 663 37T619 148Q619 186 635 296Q585 149 509 72T332 -5Q248 -5 205 41ZM525 912T514 922T503 948Q503
968 522 984L694 1131Q714 1148 738 1148Q764 1148 783 1130T802 1085Q802 1042 749 1014L562 917Q553 912 541 912Q525 912 514 922Z" />
<glyph unicode="&#xdb;" glyph-name="Ucircumflex" horiz-adv-x="890" d="M248 -5T205 41T162 166Q162 210 175 273L237 559Q239 567 246 603T254 681Q254 705 245 717T219 729Q189 729 149 701T65 613Q51 594 34 594Q20 594 10 607T-1 638Q-1 669 27 708Q129
848 266 848Q327 848 361 811T396 702Q396 651 389 608T365 491L324 308Q322 299 317 276T309 233T306 192Q306 160 324 141T375 122Q435 122 496 186T610 392T692 757Q699 808 712 828T765 848Q800 848 817 827T834 759Q834 732 828 688T808 565Q781 412 765 284Q757
226 757 198Q757 157 775 136T825 114Q858 114 889 136T964 209Q976 223 991 223Q1004 223 1011 211T1019 178Q1019 139 1000 116Q948 53 897 24T790 -5Q707 -5 663 37T619 148Q619 186 635 296Q585 149 509 72T332 -5Q248 -5 205 41ZM565 1093L485 951Q474 931
456 921T419 911Q398 911 383 922T368 953Q368 970 381 990L473 1127Q510 1183 578 1183Q609 1183 627 1167T661 1114L708 993Q714 978 714 965Q714 941 697 927T657 912Q640 912 626 921T606 948L565 1093Z" />
<glyph unicode="&#xdc;" glyph-name="Udieresis" horiz-adv-x="890" d="M248 -5T205 41T162 166Q162 210 175 273L237 559Q239 567 246 603T254 681Q254 705 245 717T219 729Q189 729 149 701T65 613Q51 594 34 594Q20 594 10 607T-1 638Q-1 669 27 708Q129 848
266 848Q327 848 361 811T396 702Q396 651 389 608T365 491L324 308Q322 299 317 276T309 233T306 192Q306 160 324 141T375 122Q435 122 496 186T610 392T692 757Q699 808 712 828T765 848Q800 848 817 827T834 759Q834 732 828 688T808 565Q781 412 765 284Q757
226 757 198Q757 157 775 136T825 114Q858 114 889 136T964 209Q976 223 991 223Q1004 223 1011 211T1019 178Q1019 139 1000 116Q948 53 897 24T790 -5Q707 -5 663 37T619 148Q619 186 635 296Q585 149 509 72T332 -5Q248 -5 205 41ZM410 912T391 930T372 986Q372
1027 394 1050T453 1073Q485 1073 504 1055T523 999Q523 958 501 935T442 912Q410 912 391 930ZM618 912T599 930T580 986Q580 1027 602 1050T661 1073Q693 1073 712 1055T731 999Q731 958 709 935T650 912Q618 912 599 930Z" />
<glyph unicode="&#xdd;" glyph-name="Yacute" horiz-adv-x="851" d="M914 226T926 226Q960 226 960 182Q960 158 950 142T917 121Q826 104 738 83L735 59Q707 -138 624 -232T415 -327Q332 -327 287 -287T241 -183Q241 -78 335 4T620 149L640 290Q644 314 650 354Q603
230 530 169T367 108Q281 108 236 160T191 296Q191 333 199 377T224 498Q239 567 246 608T254 681Q254 729 217 729Q188 729 149 701T65 613Q51 594 34 594Q20 594 10 607T-1 638Q-1 669 27 708Q129 848 266 848Q327 848 361 811T396 702Q396 650 387 596T358 457Q346
407 340 377T334 326Q334 275 352 253T415 231Q469 231 525 290T627 471T693 767Q698 811 716 829T768 848Q838 848 838 778Q838 766 837 759Q816 610 798 490Q788 418 777 342T754 188Q827 208 908 224Q914 226 926 226ZM605 44Q363 -40 363 -160Q363 -188 380
-206T430 -225Q569 -225 604 37L605 44ZM538 912T527 922T516 948Q516 968 535 984L707 1131Q727 1148 751 1148Q777 1148 796 1130T815 1085Q815 1042 762 1014L575 917Q566 912 554 912Q538 912 527 922Z" />
<glyph unicode="&#xde;" glyph-name="Thorn" horiz-adv-x="776" d="M781 427T738 360T611 251T407 205Q393 126 374 30Q360 -41 328 -75T240 -109Q185 -109 140 -70T68 39T42 202Q42 335 78 441T184 617T347 715L371 885Q374 912 397 925T448 938Q482 938 496
927T511 891Q511 880 510 874L491 733Q585 731 650 701T748 621T781 506Q781 427 738 360ZM537 318T584 368T631 487Q631 548 594 584T475 625Q451 458 425 308Q537 318 584 368ZM232 16T245 85Q261 171 268 213Q262 213 254 215Q224 220 216 232T208 266Q208 290
219 303T253 316Q263 316 268 315L285 312Q311 469 330 599Q243 559 198 459T153 207Q153 138 168 77T207 16Q232 16 245 85Z" />
<glyph unicode="&#xdf;" glyph-name="germandbls" horiz-adv-x="596" d="M722 230T722 199Q722 153 692 153Q680 153 670 158Q616 181 568 191Q577 169 577 139Q577 70 523 30T381 -11Q293 -11 249 25T205 115Q205 159 234 195T314 254Q264 299 264 359Q264 402
289 435T374 508Q415 535 434 558T454 612Q454 646 433 666T373 686Q287 686 236 581T177 258Q172 74 172 -89V-179Q172 -198 152 -209T103 -220Q79 -220 61 -211T43 -183Q43 -10 53 247Q64 526 154 653T388 781Q446 781 487 760T551 701T573 619Q573 560 546 522T466
448Q427 420 413 405T398 371Q398 350 414 335T464 297Q480 287 488 281Q550 279 602 269T690 244Q722 230 722 199ZM413 72T433 85T453 123Q453 144 439 160T396 196Q358 186 339 166T319 121Q319 101 336 87T385 72Q413 72 433 85Z" />
<glyph unicode="&#xe0;" glyph-name="agrave" horiz-adv-x="470" d="M109 -5T72 40T35 158Q35 238 72 309T170 424T301 468Q323 468 330 460T343 429Q364 433 387 433Q436 433 436 398Q436 377 421 298Q398 183 398 138Q398 123 405 114T425 105Q444 105 471 129T544
209Q556 223 571 223Q584 223 591 211T599 178Q599 138 580 116Q539 65 493 30T404 -5Q371 -5 344 17T302 79Q250 -5 171 -5Q109 -5 72 40ZM229 96T249 122T278 191L315 375Q273 374 238 344T181 263T160 157Q160 126 172 111T207 96Q229 96 249 122ZM292 532T279
549L150 715Q128 743 128 771Q128 799 147 817T192 835Q209 835 224 825T248 795L341 587Q345 578 345 568Q345 553 335 543T310 532Q292 532 279 549Z" />
<glyph unicode="&#xe1;" glyph-name="aacute" horiz-adv-x="470" d="M109 -5T72 40T35 158Q35 238 72 309T170 424T301 468Q323 468 330 460T343 429Q364 433 387 433Q436 433 436 398Q436 377 421 298Q398 183 398 138Q398 123 405 114T425 105Q444 105 471 129T544
209Q556 223 571 223Q584 223 591 211T599 178Q599 138 580 116Q539 65 493 30T404 -5Q371 -5 344 17T302 79Q250 -5 171 -5Q109 -5 72 40ZM229 96T249 122T278 191L315 375Q273 374 238 344T181 263T160 157Q160 126 172 111T207 96Q229 96 249 122ZM296 532T286
542T275 568Q275 575 280 587L373 795Q382 815 396 824T429 834Q454 834 473 816T493 771Q493 743 471 715L342 549Q329 532 310 532Q296 532 286 542Z" />
<glyph unicode="&#xe2;" glyph-name="acircumflex" horiz-adv-x="470" d="M109 -5T72 40T35 158Q35 238 72 309T170 424T301 468Q323 468 330 460T343 429Q364 433 387 433Q436 433 436 398Q436 377 421 298Q398 183 398 138Q398 123 405 114T425 105Q444 105
471 129T544 209Q556 223 571 223Q584 223 591 211T599 178Q599 138 580 116Q539 65 493 30T404 -5Q371 -5 344 17T302 79Q250 -5 171 -5Q109 -5 72 40ZM229 96T249 122T278 191L315 375Q273 374 238 344T181 263T160 157Q160 126 172 111T207 96Q229 96 249 122ZM397
531T383 542T365 585L342 762L255 585Q240 554 223 543T185 532Q164 532 152 541T139 569Q139 586 150 605L262 798Q280 829 302 844T356 860Q386 860 403 842T429 785L473 605Q476 593 476 583Q476 558 460 545T420 531Q397 531 383 542Z" />
<glyph unicode="&#xe3;" glyph-name="atilde" horiz-adv-x="470" d="M109 -5T72 40T35 158Q35 238 72 309T170 424T301 468Q323 468 330 460T343 429Q364 433 387 433Q436 433 436 398Q436 377 421 298Q398 183 398 138Q398 123 405 114T425 105Q444 105 471 129T544
209Q556 223 571 223Q584 223 591 211T599 178Q599 138 580 116Q539 65 493 30T404 -5Q371 -5 344 17T302 79Q250 -5 171 -5Q109 -5 72 40ZM229 96T249 122T278 191L315 375Q273 374 238 344T181 263T160 157Q160 126 172 111T207 96Q229 96 249 122ZM394 532T380
537T344 558L237 632L193 569Q177 547 148 547Q130 547 118 557T105 586Q105 609 142 663Q165 696 187 711T235 727Q252 727 265 722T301 701L408 627L452 690Q468 712 497 712Q515 712 527 702T540 673Q540 659 531 642T503 596Q480 563 458 548T410 532Q394 532
380 537Z" />
<glyph unicode="&#xe4;" glyph-name="adieresis" horiz-adv-x="470" d="M109 -5T72 40T35 158Q35 238 72 309T170 424T301 468Q323 468 330 460T343 429Q364 433 387 433Q436 433 436 398Q436 377 421 298Q398 183 398 138Q398 123 405 114T425 105Q444 105 471
129T544 209Q556 223 571 223Q584 223 591 211T599 178Q599 138 580 116Q539 65 493 30T404 -5Q371 -5 344 17T302 79Q250 -5 171 -5Q109 -5 72 40ZM229 96T249 122T278 191L315 375Q273 374 238 344T181 263T160 157Q160 126 172 111T207 96Q229 96 249 122ZM178
532T160 549T142 604Q142 644 163 666T221 689Q253 689 271 672T289 617Q289 577 268 555T210 532Q178 532 160 549ZM386 532T368 549T350 604Q350 644 371 666T429 689Q461 689 479 672T497 617Q497 577 476 555T418 532Q386 532 368 549Z" />
<glyph unicode="&#xe5;" glyph-name="aring" horiz-adv-x="470" d="M109 -5T72 40T35 158Q35 238 72 309T170 424T301 468Q323 468 330 460T343 429Q364 433 387 433Q436 433 436 398Q436 377 421 298Q398 183 398 138Q398 123 405 114T425 105Q444 105 471 129T544
209Q556 223 571 223Q584 223 591 211T599 178Q599 138 580 116Q539 65 493 30T404 -5Q371 -5 344 17T302 79Q250 -5 171 -5Q109 -5 72 40ZM229 96T249 122T278 191L315 375Q273 374 238 344T181 263T160 157Q160 126 172 111T207 96Q229 96 249 122ZM267 532T229
567T191 664Q191 709 210 742T262 794T332 812Q385 812 423 777T461 680Q461 635 442 602T390 550T320 532Q267 532 229 567ZM344 620T358 635T372 675Q372 697 359 710T328 724Q308 724 294 709T280 669Q280 647 293 634T324 620Q344 620 358 635Z" />
<glyph unicode="&#xe6;" glyph-name="ae" horiz-adv-x="653" d="M767 223T774 211T782 178Q782 138 763 116Q726 71 659 33T514 -5Q447 -5 400 18T325 85Q305 43 267 19T182 -5Q114 -5 75 42T36 170Q36 252 73 320T178 428T336 468Q358 468 367 458T382 418Q407
441 443 453T519 466Q577 466 612 432T647 338Q647 269 598 220T430 141Q455 95 525 95Q570 95 627 126T727 209Q739 223 754 223Q767 223 774 211ZM308 321T338 370Q256 369 208 318T160 175Q160 138 173 117T209 96Q234 96 254 123T284 201L294 251Q308 321 338
370ZM465 368T440 325T414 221V219Q473 233 507 261T541 326Q541 345 531 356T502 368Q465 368 440 325Z" />
<glyph unicode="&#xe7;" glyph-name="ccedilla" horiz-adv-x="368" d="M482 223T489 211T497 178Q497 140 478 116Q444 74 400 46T307 4Q346 -29 346 -86Q346 -133 324 -170T259 -229T159 -250Q121 -250 97 -245Q58 -238 58 -201Q58 -156 98 -156Q106 -156 111
-157Q138 -161 164 -161Q204 -161 226 -145T249 -94Q249 -69 228 -55T169 -40Q143 -40 129 -33T115 -9Q115 -3 116 0Q119 15 125 22Q80 46 56 92T32 197Q32 278 64 339T147 433T254 466Q309 466 339 434T370 350Q370 308 352 279T303 250Q284 250 273 259T261 284Q261
291 263 300T266 313Q271 328 271 341Q271 354 265 361T246 368Q223 368 203 348T171 292T159 215Q159 99 260 99Q301 99 348 126T442 209Q454 223 469 223Q482 223 489 211Z" />
<glyph unicode="&#xe8;" glyph-name="egrave" horiz-adv-x="393" d="M507 223T514 211T522 178Q522 138 503 116Q466 71 399 33T254 -5Q149 -5 91 52T33 208Q33 277 62 336T142 431T259 466Q317 466 352 432T387 338Q387 269 338 220T170 141Q195 95 265 95Q310
95 367 126T467 209Q479 223 494 223Q507 223 514 211ZM205 368T180 325T154 221V219Q213 233 247 261T281 326Q281 345 271 356T242 368Q205 368 180 325ZM250 532T237 549L108 715Q86 743 86 771Q86 799 105 817T150 835Q167 835 182 825T206 795L299 587Q303
578 303 568Q303 553 293 543T268 532Q250 532 237 549Z" />
<glyph unicode="&#xe9;" glyph-name="eacute" horiz-adv-x="393" d="M507 223T514 211T522 178Q522 138 503 116Q466 71 399 33T254 -5Q149 -5 91 52T33 208Q33 277 62 336T142 431T259 466Q317 466 352 432T387 338Q387 269 338 220T170 141Q195 95 265 95Q310
95 367 126T467 209Q479 223 494 223Q507 223 514 211ZM205 368T180 325T154 221V219Q213 233 247 261T281 326Q281 345 271 356T242 368Q205 368 180 325ZM254 532T244 542T233 568Q233 575 238 587L331 795Q340 815 354 824T387 834Q412 834 431 816T451 771Q451
743 429 715L300 549Q287 532 268 532Q254 532 244 542Z" />
<glyph unicode="&#xea;" glyph-name="ecircumflex" horiz-adv-x="393" d="M507 223T514 211T522 178Q522 138 503 116Q466 71 399 33T254 -5Q149 -5 91 52T33 208Q33 277 62 336T142 431T259 466Q317 466 352 432T387 338Q387 269 338 220T170 141Q195 95 265
95Q310 95 367 126T467 209Q479 223 494 223Q507 223 514 211ZM205 368T180 325T154 221V219Q213 233 247 261T281 326Q281 345 271 356T242 368Q205 368 180 325ZM355 531T341 542T323 585L300 762L213 585Q198 554 181 543T143 532Q122 532 110 541T97 569Q97
586 108 605L220 798Q238 829 260 844T314 860Q344 860 361 842T387 785L431 605Q434 593 434 583Q434 558 418 545T378 531Q355 531 341 542Z" />
<glyph unicode="&#xeb;" glyph-name="edieresis" horiz-adv-x="393" d="M507 223T514 211T522 178Q522 138 503 116Q466 71 399 33T254 -5Q149 -5 91 52T33 208Q33 277 62 336T142 431T259 466Q317 466 352 432T387 338Q387 269 338 220T170 141Q195 95 265 95Q310
95 367 126T467 209Q479 223 494 223Q507 223 514 211ZM205 368T180 325T154 221V219Q213 233 247 261T281 326Q281 345 271 356T242 368Q205 368 180 325ZM136 532T118 549T100 604Q100 644 121 666T179 689Q211 689 229 672T247 617Q247 577 226 555T168 532Q136
532 118 549ZM344 532T326 549T308 604Q308 644 329 666T387 689Q419 689 437 672T455 617Q455 577 434 555T376 532Q344 532 326 549Z" />
<glyph unicode="&#xec;" glyph-name="igrave" horiz-adv-x="246" d="M106 -5T77 41T47 163Q47 208 58 278T88 410Q97 442 112 454T160 466Q211 466 211 432Q211 407 192 316Q168 206 168 167Q168 137 176 121T203 105Q221 105 248 130T320 209Q332 223 347 223Q360
223 367 211T375 178Q375 138 356 116Q257 -5 171 -5Q106 -5 77 41ZM151 532T138 549L9 715Q-13 743 -13 771Q-13 799 6 817T51 835Q68 835 83 825T107 795L200 587Q204 578 204 568Q204 553 194 543T169 532Q151 532 138 549Z" />
<glyph unicode="&#xed;" glyph-name="iacute" horiz-adv-x="246" d="M106 -5T77 41T47 163Q47 208 58 278T88 410Q97 442 112 454T160 466Q211 466 211 432Q211 407 192 316Q168 206 168 167Q168 137 176 121T203 105Q221 105 248 130T320 209Q332 223 347 223Q360
223 367 211T375 178Q375 138 356 116Q257 -5 171 -5Q106 -5 77 41ZM155 532T145 542T134 568Q134 575 139 587L232 795Q241 815 255 824T288 834Q313 834 332 816T352 771Q352 743 330 715L201 549Q188 532 169 532Q155 532 145 542Z" />
<glyph unicode="&#xee;" glyph-name="icircumflex" horiz-adv-x="246" d="M106 -5T77 41T47 163Q47 208 58 278T88 410Q97 442 112 454T160 466Q211 466 211 432Q211 407 192 316Q168 206 168 167Q168 137 176 121T203 105Q221 105 248 130T320 209Q332 223 347
223Q360 223 367 211T375 178Q375 138 356 116Q257 -5 171 -5Q106 -5 77 41ZM256 531T242 542T224 585L201 762L114 585Q99 554 82 543T44 532Q23 532 11 541T-2 569Q-2 586 9 605L121 798Q139 829 161 844T215 860Q245 860 262 842T288 785L332 605Q335 593 335
583Q335 558 319 545T279 531Q256 531 242 542Z" />
<glyph unicode="&#xef;" glyph-name="idieresis" horiz-adv-x="246" d="M106 -5T77 41T47 163Q47 208 58 278T88 410Q97 442 112 454T160 466Q211 466 211 432Q211 407 192 316Q168 206 168 167Q168 137 176 121T203 105Q221 105 248 130T320 209Q332 223 347
223Q360 223 367 211T375 178Q375 138 356 116Q257 -5 171 -5Q106 -5 77 41ZM37 532T19 549T1 604Q1 644 22 666T80 689Q112 689 130 672T148 617Q148 577 127 555T69 532Q37 532 19 549ZM245 532T227 549T209 604Q209 644 230 666T288 689Q320 689 338 672T356
617Q356 577 335 555T277 532Q245 532 227 549Z" />
<glyph unicode="&#xf0;" glyph-name="eth" horiz-adv-x="451" d="M518 840T518 826Q518 802 489 774T393 706Q422 641 438 564T454 403Q454 283 428 191T348 47T219 -5Q159 -5 117 24T54 102T33 205Q33 281 62 340T140 433T249 467Q296 467 328 447Q322 564 291
649L201 602Q192 597 181 597Q160 597 145 616T129 656Q129 672 141 679Q182 702 249 737Q211 804 149 869Q143 877 143 884Q143 900 163 912T208 925Q224 925 237 918Q257 908 286 874T346 792Q372 808 396 827Q436 856 457 868Q468 875 479 875Q498 875 510 854Q518
840 518 826ZM263 101T292 158T327 328Q311 344 293 352T259 361Q211 361 185 324T158 214Q158 160 179 131T227 101Q263 101 292 158Z" />
<glyph unicode="&#xf1;" glyph-name="ntilde" horiz-adv-x="496" d="M81 -5T66 35T50 163Q50 293 87 410Q96 439 116 452T174 466Q194 466 202 461T210 442Q210 426 195 370Q185 330 179 300T169 226Q202 312 243 366T323 443T396 466Q461 466 461 401Q461 362
439 260Q420 173 420 145Q420 105 449 105Q469 105 496 129T570 209Q582 223 597 223Q610 223 617 211T625 178Q625 138 606 116Q563 63 514 29T401 -5Q350 -5 324 24T298 110Q298 138 312 210Q325 273 325 297Q325 313 314 313Q301 313 278 280T230 191T190 75Q179
28 165 12T119 -5Q81 -5 66 35ZM400 532T386 537T350 558L243 632L199 569Q183 547 154 547Q136 547 124 557T111 586Q111 609 148 663Q171 696 193 711T241 727Q258 727 271 722T307 701L414 627L458 690Q474 712 503 712Q521 712 533 702T546 673Q546 659 537
642T509 596Q486 563 464 548T416 532Q400 532 386 537Z" />
<glyph unicode="&#xf2;" glyph-name="ograve" horiz-adv-x="451" d="M571 307T578 294T585 261Q585 213 556 204Q496 183 424 180Q405 96 349 46T222 -5Q162 -5 120 24T55 101T33 205Q33 281 62 340T142 433T255 467Q331 467 377 415T432 285Q479 288 544 305Q552
307 558 307Q571 307 578 294ZM262 101T285 127T317 202Q286 223 270 257T253 329Q253 345 256 361H251Q211 361 185 323T158 214Q158 159 179 130T230 101Q262 101 285 127ZM246 532T233 549L104 715Q82 743 82 771Q82 799 101 817T146 835Q163 835 178 825T202
795L295 587Q299 578 299 568Q299 553 289 543T264 532Q246 532 233 549Z" />
<glyph unicode="&#xf3;" glyph-name="oacute" horiz-adv-x="451" d="M571 307T578 294T585 261Q585 213 556 204Q496 183 424 180Q405 96 349 46T222 -5Q162 -5 120 24T55 101T33 205Q33 281 62 340T142 433T255 467Q331 467 377 415T432 285Q479 288 544 305Q552
307 558 307Q571 307 578 294ZM262 101T285 127T317 202Q286 223 270 257T253 329Q253 345 256 361H251Q211 361 185 323T158 214Q158 159 179 130T230 101Q262 101 285 127ZM250 532T240 542T229 568Q229 575 234 587L327 795Q336 815 350 824T383 834Q408 834
427 816T447 771Q447 743 425 715L296 549Q283 532 264 532Q250 532 240 542Z" />
<glyph unicode="&#xf4;" glyph-name="ocircumflex" horiz-adv-x="451" d="M571 307T578 294T585 261Q585 213 556 204Q496 183 424 180Q405 96 349 46T222 -5Q162 -5 120 24T55 101T33 205Q33 281 62 340T142 433T255 467Q331 467 377 415T432 285Q479 288 544
305Q552 307 558 307Q571 307 578 294ZM262 101T285 127T317 202Q286 223 270 257T253 329Q253 345 256 361H251Q211 361 185 323T158 214Q158 159 179 130T230 101Q262 101 285 127ZM351 531T337 542T319 585L296 762L209 585Q194 554 177 543T139 532Q118 532
106 541T93 569Q93 586 104 605L216 798Q234 829 256 844T310 860Q340 860 357 842T383 785L427 605Q430 593 430 583Q430 558 414 545T374 531Q351 531 337 542Z" />
<glyph unicode="&#xf5;" glyph-name="otilde" horiz-adv-x="451" d="M571 307T578 294T585 261Q585 213 556 204Q496 183 424 180Q405 96 349 46T222 -5Q162 -5 120 24T55 101T33 205Q33 281 62 340T142 433T255 467Q331 467 377 415T432 285Q479 288 544 305Q552
307 558 307Q571 307 578 294ZM262 101T285 127T317 202Q286 223 270 257T253 329Q253 345 256 361H251Q211 361 185 323T158 214Q158 159 179 130T230 101Q262 101 285 127ZM348 532T334 537T298 558L191 632L147 569Q131 547 102 547Q84 547 72 557T59 586Q59
609 96 663Q119 696 141 711T189 727Q206 727 219 722T255 701L362 627L406 690Q422 712 451 712Q469 712 481 702T494 673Q494 659 485 642T457 596Q434 563 412 548T364 532Q348 532 334 537Z" />
<glyph unicode="&#xf6;" glyph-name="odieresis" horiz-adv-x="451" d="M571 307T578 294T585 261Q585 213 556 204Q496 183 424 180Q405 96 349 46T222 -5Q162 -5 120 24T55 101T33 205Q33 281 62 340T142 433T255 467Q331 467 377 415T432 285Q479 288 544 305Q552
307 558 307Q571 307 578 294ZM262 101T285 127T317 202Q286 223 270 257T253 329Q253 345 256 361H251Q211 361 185 323T158 214Q158 159 179 130T230 101Q262 101 285 127ZM132 532T114 549T96 604Q96 644 117 666T175 689Q207 689 225 672T243 617Q243 577 222
555T164 532Q132 532 114 549ZM340 532T322 549T304 604Q304 644 325 666T383 689Q415 689 433 672T451 617Q451 577 430 555T372 532Q340 532 322 549Z" />
<glyph unicode="&#xf7;" glyph-name="divide" horiz-adv-x="700" d="M335 400T317 420T298 473Q298 510 319 532T378 555Q453 555 453 484Q453 445 432 423T372 400Q335 400 317 420ZM107 216T95 230T83 265Q83 290 99 310T144 330H584Q607 330 619 316T631 282Q631
257 615 237T570 216H130Q107 216 95 230ZM285 -5T267 15T248 68Q248 105 269 127T328 150Q403 150 403 79Q403 40 382 18T322 -5Q285 -5 267 15Z" />
<glyph unicode="&#xf8;" glyph-name="oslash" horiz-adv-x="459" d="M579 307T586 294T593 261Q593 213 564 204Q504 183 435 180Q416 100 361 50T234 -5L217 -105Q215 -117 203 -123T176 -130Q161 -130 152 -124T144 -105L164 3Q100 22 67 78T33 205Q33 279 61
338T137 431T245 467L262 566Q264 578 276 584T303 591Q318 591 327 585T335 566L315 458Q371 441 404 394T443 285Q489 289 552 305Q558 307 566 307Q579 307 586 294ZM155 145T184 116L209 252L227 361Q196 352 176 316T155 214Q155 145 184 116ZM288 110T307
147T327 248Q327 318 295 347L278 255L252 101Q288 110 307 147Z" />
<glyph unicode="&#xf9;" glyph-name="ugrave" horiz-adv-x="462" d="M105 -5T77 36T48 140Q48 215 58 277T91 410Q101 440 119 453T176 466Q198 466 206 459T215 438Q215 430 204 384Q194 347 188 317Q168 212 168 177Q168 156 173 148T189 139Q204 139 226 169T274
260T324 410Q332 440 348 453T398 466Q421 466 430 461T439 440Q439 415 414 303Q386 175 386 145Q386 126 394 116T415 105Q435 105 462 129T536 209Q548 223 563 223Q576 223 583 211T591 178Q591 138 572 116Q529 63 480 29T367 -5Q319 -5 297 32T274 136Q257
68 223 32T150 -5Q105 -5 77 36ZM278 532T265 549L136 715Q114 743 114 771Q114 799 133 817T178 835Q195 835 210 825T234 795L327 587Q331 578 331 568Q331 553 321 543T296 532Q278 532 265 549Z" />
<glyph unicode="&#xfa;" glyph-name="uacute" horiz-adv-x="462" d="M105 -5T77 36T48 140Q48 215 58 277T91 410Q101 440 119 453T176 466Q198 466 206 459T215 438Q215 430 204 384Q194 347 188 317Q168 212 168 177Q168 156 173 148T189 139Q204 139 226 169T274
260T324 410Q332 440 348 453T398 466Q421 466 430 461T439 440Q439 415 414 303Q386 175 386 145Q386 126 394 116T415 105Q435 105 462 129T536 209Q548 223 563 223Q576 223 583 211T591 178Q591 138 572 116Q529 63 480 29T367 -5Q319 -5 297 32T274 136Q257
68 223 32T150 -5Q105 -5 77 36ZM282 532T272 542T261 568Q261 575 266 587L359 795Q368 815 382 824T415 834Q440 834 459 816T479 771Q479 743 457 715L328 549Q315 532 296 532Q282 532 272 542Z" />
<glyph unicode="&#xfb;" glyph-name="ucircumflex" horiz-adv-x="462" d="M105 -5T77 36T48 140Q48 215 58 277T91 410Q101 440 119 453T176 466Q198 466 206 459T215 438Q215 430 204 384Q194 347 188 317Q168 212 168 177Q168 156 173 148T189 139Q204 139 226
169T274 260T324 410Q332 440 348 453T398 466Q421 466 430 461T439 440Q439 415 414 303Q386 175 386 145Q386 126 394 116T415 105Q435 105 462 129T536 209Q548 223 563 223Q576 223 583 211T591 178Q591 138 572 116Q529 63 480 29T367 -5Q319 -5 297 32T274
136Q257 68 223 32T150 -5Q105 -5 77 36ZM383 531T369 542T351 585L328 762L241 585Q226 554 209 543T171 532Q150 532 138 541T125 569Q125 586 136 605L248 798Q266 829 288 844T342 860Q372 860 389 842T415 785L459 605Q462 593 462 583Q462 558 446 545T406
531Q383 531 369 542Z" />
<glyph unicode="&#xfc;" glyph-name="udieresis" horiz-adv-x="462" d="M105 -5T77 36T48 140Q48 215 58 277T91 410Q101 440 119 453T176 466Q198 466 206 459T215 438Q215 430 204 384Q194 347 188 317Q168 212 168 177Q168 156 173 148T189 139Q204 139 226
169T274 260T324 410Q332 440 348 453T398 466Q421 466 430 461T439 440Q439 415 414 303Q386 175 386 145Q386 126 394 116T415 105Q435 105 462 129T536 209Q548 223 563 223Q576 223 583 211T591 178Q591 138 572 116Q529 63 480 29T367 -5Q319 -5 297 32T274
136Q257 68 223 32T150 -5Q105 -5 77 36ZM164 532T146 549T128 604Q128 644 149 666T207 689Q239 689 257 672T275 617Q275 577 254 555T196 532Q164 532 146 549ZM372 532T354 549T336 604Q336 644 357 666T415 689Q447 689 465 672T483 617Q483 577 462 555T404
532Q372 532 354 549Z" />
<glyph unicode="&#xfd;" glyph-name="yacute" horiz-adv-x="479" d="M573 221T580 209T588 177Q588 154 581 141T559 118L367 -11Q329 -218 268 -336T111 -455Q60 -455 28 -424T-4 -341Q-4 -294 17 -245T97 -133T263 13L266 36Q273 73 282 142Q262 70 226 33T150
-5Q105 -5 77 36T48 140Q48 215 58 277T91 410Q101 440 119 453T176 466Q198 466 206 459T215 438Q215 430 204 384Q194 347 188 317Q180 276 174 239T168 177Q168 139 189 139Q204 139 226 169T274 260T324 410Q332 440 348 453T398 466Q421 466 430 460T439 440Q439
415 413 268L387 107Q464 165 537 213Q550 221 560 221Q573 221 580 209ZM147 -358T178 -300T240 -107Q163 -172 129 -225T94 -319Q94 -336 100 -347T122 -358Q147 -358 178 -300ZM282 532T272 542T261 568Q261 575 266 587L359 795Q368 815 382 824T415 834Q440
834 459 816T479 771Q479 743 457 715L328 549Q315 532 296 532Q282 532 272 542Z" />
<glyph unicode="&#xfe;" glyph-name="thorn" horiz-adv-x="508" d="M622 223T629 211T637 178Q637 138 618 116Q575 63 526 29T413 -5Q355 -5 321 40Q250 -1 150 -11Q148 -105 148 -149L149 -277Q149 -309 130 -322T82 -335Q54 -335 39 -324T24 -286Q24 -182 29
-39T48 228Q71 447 127 712Q135 752 153 768T199 784Q232 784 247 774T262 742Q262 736 258 716Q209 516 173 283Q211 371 261 418T365 466Q410 466 440 429T471 321Q471 196 404 112Q425 105 442 105Q475 105 505 129T582 209Q594 223 609 223Q622 223 629 211ZM252
101T298 152T345 276Q345 336 315 336Q292 336 264 302T209 211T165 90Q252 101 298 152Z" />
<glyph unicode="&#xff;" glyph-name="ydieresis" horiz-adv-x="479" d="M573 221T580 209T588 177Q588 154 581 141T559 118L367 -11Q329 -218 268 -336T111 -455Q60 -455 28 -424T-4 -341Q-4 -294 17 -245T97 -133T263 13L266 36Q273 73 282 142Q262 70 226 33T150
-5Q105 -5 77 36T48 140Q48 215 58 277T91 410Q101 440 119 453T176 466Q198 466 206 459T215 438Q215 430 204 384Q194 347 188 317Q180 276 174 239T168 177Q168 139 189 139Q204 139 226 169T274 260T324 410Q332 440 348 453T398 466Q421 466 430 460T439 440Q439
415 413 268L387 107Q464 165 537 213Q550 221 560 221Q573 221 580 209ZM147 -358T178 -300T240 -107Q163 -172 129 -225T94 -319Q94 -336 100 -347T122 -358Q147 -358 178 -300ZM164 532T146 549T128 604Q128 644 149 666T207 689Q239 689 257 672T275 617Q275
577 254 555T196 532Q164 532 146 549ZM372 532T354 549T336 604Q336 644 357 666T415 689Q447 689 465 672T483 617Q483 577 462 555T404 532Q372 532 354 549Z" />
<glyph unicode="&#x2013;" glyph-name="endash" horiz-adv-x="484" d="M83 246T69 261T55 305Q55 332 69 346T108 360H395Q447 360 447 305Q447 277 434 262T395 246H108Q83 246 69 261Z" />
<glyph unicode="&#x2014;" glyph-name="emdash" horiz-adv-x="620" d="M83 246T69 261T55 305Q55 332 69 346T108 360H531Q583 360 583 305Q583 277 570 262T531 246H108Q83 246 69 261Z" />
<glyph unicode="&#x2018;" glyph-name="quoteleft" horiz-adv-x="237" d="M140 595T122 614T103 667Q103 702 124 760T175 873Q195 910 206 922T237 934Q259 934 272 924T285 892Q285 883 282 871Q271 825 266 786T260 699Q260 649 237 622T176 595Q140 595 122 614Z" />
<glyph unicode="&#x2019;" glyph-name="quoteright" horiz-adv-x="236" d="M139 595T126 605T113 637Q113 646 116 658Q127 704 132 743T138 830Q138 880 161 907T222 934Q258 934 276 915T295 862Q295 827 274 769T223 656Q203 619 192 607T161 595Q139 595 126 605Z" />
<glyph unicode="&#x201a;" glyph-name="quotesinglbase" horiz-adv-x="257" d="M42 -158T29 -148T16 -116Q16 -107 19 -95Q30 -49 35 -10T41 77Q41 127 64 154T125 181Q161 181 179 162T198 109Q198 74 177 16T126 -97Q106 -134 95 -146T64 -158Q42 -158 29 -148Z" />
<glyph unicode="&#x201c;" glyph-name="quotedblleft" horiz-adv-x="457" d="M140 595T122 614T103 667Q103 702 124 760T175 873Q195 910 206 922T237 934Q259 934 272 924T285 892Q285 883 282 871Q271 825 266 786T260 699Q260 649 237 622T176 595Q140 595
122 614ZM360 595T342 614T323 667Q323 702 344 760T395 873Q415 910 426 922T457 934Q479 934 492 924T505 892Q505 883 502 871Q491 825 486 786T480 699Q480 649 457 622T396 595Q360 595 342 614Z" />
<glyph unicode="&#x201d;" glyph-name="quotedblright" horiz-adv-x="456" d="M139 595T126 605T113 637Q113 646 116 658Q127 704 132 743T138 830Q138 880 161 907T222 934Q258 934 276 915T295 862Q295 827 274 769T223 656Q203 619 192 607T161 595Q139 595
126 605ZM359 595T346 605T333 637Q333 646 336 658Q347 704 352 743T358 830Q358 880 381 907T442 934Q478 934 496 915T515 862Q515 827 494 769T443 656Q423 619 412 607T381 595Q359 595 346 605Z" />
<glyph unicode="&#x201e;" glyph-name="quotedblbase" horiz-adv-x="477" d="M42 -158T29 -148T16 -116Q16 -107 19 -95Q30 -49 35 -10T41 77Q41 127 64 154T125 181Q161 181 179 162T198 109Q198 74 177 16T126 -97Q106 -134 95 -146T64 -158Q42 -158 29 -148ZM262
-158T249 -148T236 -116Q236 -107 239 -95Q250 -49 255 -10T261 77Q261 127 284 154T345 181Q381 181 399 162T418 109Q418 74 397 16T346 -97Q326 -134 315 -146T284 -158Q262 -158 249 -148Z" />
<glyph unicode="&#x2022;" glyph-name="bullet" horiz-adv-x="512" d="M178 84T140 124T102 229Q102 305 144 349T264 394Q338 394 375 358T413 252Q413 175 370 130T251 84Q178 84 140 124Z" />
<glyph unicode="&#x2039;" glyph-name="guilsinglleft" horiz-adv-x="350" d="M64 171Q27 202 27 237Q27 258 34 276T55 303L214 411Q232 423 250 423Q273 423 289 407T306 369Q306 345 283 329L154 240L284 129Q299 117 299 99Q299 78 279 60T234 42Q216 42 205
52L64 171Z" />
<glyph unicode="&#x203a;" glyph-name="guilsinglright" horiz-adv-x="350" d="M119 42T101 42Q78 42 62 58T45 96Q45 120 68 136L197 225L67 336Q52 348 52 366Q52 387 72 405T117 423Q135 423 146 413L287 294Q324 263 324 228Q324 207 317 189T296 162L137
54Q119 42 101 42Z" />
</font>
</defs>
</svg>
