<?xml version="1.0" standalone="no"?>
<!DOCTYPE svg PUBLIC "-//W3C//DTD SVG 1.1//EN" "http://www.w3.org/Graphics/SVG/1.1/DTD/svg11.dtd">
<svg xmlns="http://www.w3.org/2000/svg">
<defs >
<font id="Domine" horiz-adv-x="493" ><font-face
    font-family="Domine"
    units-per-em="1000"
    panose-1="2 4 8 3 4 4 3 6 2 4"
    ascent="900"
    descent="-240"
    alphabetic="0" />
<glyph unicode=" " glyph-name="space" horiz-adv-x="236" />
<glyph unicode="!" glyph-name="exclam" horiz-adv-x="291" d="M103 205Q103 244 101 288T97 373T91 448T87 500Q84 537 79 572T74 650Q74 685 92 707T148 730Q187 730 202 707T218 651Q218 609 214 573T205 500Q205 482 203 448T197 373T192 288T189 205H103ZM67
52Q67 90 88 111T145 133Q181 133 202 111T224 53Q224 17 203 -4T144 -25Q108 -25 88 -5T67 52Z" />
<glyph unicode="&quot;" glyph-name="quotedbl" horiz-adv-x="424" d="M274 470Q274 503 270 536T261 598T252 651T248 689Q248 721 262 740T313 760Q349 760 363 741T377 689Q377 675 373 652T364 599T355 536T351 470H274ZM73 470Q73 503 69 536T60 598T51 651T47
689Q47 721 61 740T112 760Q148 760 162 741T176 689Q176 675 172 652T163 599T154 536T150 470H73Z" />
<glyph unicode="#" glyph-name="numbersign" horiz-adv-x="761" d="M435 187H262L222 -10H135L175 187H32V255H187L226 446H81V514H238L281 730H368L325 514H498L541 730H628L585 514H728V446H573L534 255H679V187H522L482 -10H395L435 187ZM274 255H447L486 446H313L274
255Z" />
<glyph unicode="$" glyph-name="dollar" horiz-adv-x="588" d="M257 -10Q205 -6 164 9T94 49T50 102T35 162Q35 199 55 223T114 248Q148 248 167 229T187 181Q187 156 174 140T145 115Q162 92 189 77T257 59V303Q219 318 182 336T114 380T66 442T47 530Q47 575
62 611T104 674T170 714T257 731V851H334V729Q380 724 416 708T477 670T515 619T529 561Q529 524 509 501T451 478Q424 478 403 492T382 536Q382 555 391 575T418 606Q392 654 334 660V417Q389 391 430 367T500 315T541 257T555 184Q555 97 497 46T334 -10V-130H257V-10ZM417
156Q417 201 393 227T334 275V60Q372 65 394 89T417 156ZM178 558Q178 537 182 523T196 496T221 473T257 449V660Q215 655 197 628T178 558Z" />
<glyph unicode="%" glyph-name="percent" horiz-adv-x="701" d="M502 730H586L200 -10H116L502 730ZM32 560Q32 650 68 691Q102 729 174 729Q243 729 278 691Q314 652 314 563Q314 521 307 488T279 434Q244 396 170 396Q143 396 115 403T67 434Q32 474 32 560ZM226
562Q226 591 223 615T213 654Q208 665 199 673T174 682Q163 682 153 676T134 655Q125 636 123 610T120 563Q120 537 123 513T134 471Q140 458 149 451T173 444Q186 444 195 450T212 471Q218 485 222 508T226 562ZM386 154Q386 244 422 285Q456 323 528 323Q597
323 632 285Q668 246 668 157Q668 115 661 82T633 28Q598 -10 524 -10Q497 -10 469 -3T421 28Q386 68 386 154ZM580 156Q580 185 577 209T567 248Q562 259 553 267T528 276Q517 276 507 270T488 249Q479 230 477 204T474 157Q474 131 477 107T488 65Q494 52 503
45T527 38Q540 38 549 44T566 65Q572 79 576 102T580 156Z" />
<glyph unicode="&amp;" glyph-name="ampersand" horiz-adv-x="756" d="M645 310Q644 253 626 197T578 96Q588 82 605 73T636 64Q681 64 709 105L746 51Q703 -10 621 -10Q586 -10 555 2T495 36Q458 10 413 0T312 -10Q190 -10 121 42T52 188Q52 219 60 245T87 295T134
341T205 386Q150 474 150 553Q150 592 163 624T200 679T260 715T340 728Q424 728 470 689T517 587Q517 530 478 476T354 376L519 163Q531 186 544 224T559 310L482 329V385H721V329L645 310ZM324 63Q362 63 394 71T439 91L254 328Q219 308 201 271T182 189Q182
129 218 96T324 63ZM265 576Q265 558 267 543T274 513T287 481T308 444Q361 480 389 510T418 582Q418 617 398 637T339 658Q307 658 286 638T265 576Z" />
<glyph unicode="&apos;" glyph-name="quotesingle" horiz-adv-x="223" d="M73 470Q73 503 69 536T60 598T51 651T47 689Q47 721 61 740T112 760Q148 760 162 741T176 689Q176 675 172 652T163 599T154 536T150 470H73Z" />
<glyph unicode="(" glyph-name="parenleft" horiz-adv-x="382" d="M33 353Q33 453 57 542T124 703T225 821T349 886L379 816Q331 805 291 766T223 666T180 525T164 351Q164 256 179 177T221 39T288 -57T374 -104L334 -182Q271 -169 217 -123T121 -6T57 157T33 353Z" />
<glyph unicode=")" glyph-name="parenright" horiz-adv-x="382" d="M349 353Q349 249 326 157T261 -6T166 -123T48 -182L8 -104Q55 -94 94 -58T160 38T203 177T218 351Q218 444 203 524T159 666T91 766T3 816L33 886Q99 869 157 822T257 703T324 543T349 353Z" />
<glyph unicode="*" glyph-name="asterisk" horiz-adv-x="482" d="M95 480Q95 493 105 508T131 537T166 566T206 592Q173 589 140 589Q125 589 107 590T74 596T49 611T39 642Q39 662 52 678T88 695Q103 695 119 690T152 675T185 655T217 633Q206 665 197 697T187
756Q187 779 202 793T240 808Q261 808 277 794T293 756Q293 730 283 696T262 629Q277 640 294 651T328 672T362 688T394 694Q416 694 429 678T443 641Q443 621 433 611T408 595T375 589T342 588Q325 588 307 589T271 592Q285 584 305 572T343 545T375 513T388 478Q388
459 373 443T335 427Q317 427 303 440T277 473T257 518T241 565Q231 536 222 511T202 467T179 437T150 426Q129 426 112 442T95 480Z" />
<glyph unicode="+" glyph-name="plus" horiz-adv-x="500" d="M36 403H201V561H299V403H464V321H299V163H201V321H36V403Z" />
<glyph unicode="," glyph-name="comma" horiz-adv-x="254" d="M125 133Q163 133 186 107T209 35Q209 -19 175 -68T68 -158L37 -122Q73 -92 98 -66T126 -18L122 -15Q114 -21 100 -21Q77 -21 61 -1T45 53Q45 88 67 110T125 133Z" />
<glyph unicode="-" glyph-name="hyphen" horiz-adv-x="371" d="M60 326H311V229H60V326Z" />
<glyph unicode="." glyph-name="period" horiz-adv-x="247" d="M45 52Q45 90 66 111T123 133Q159 133 180 111T202 53Q202 17 181 -4T122 -25Q86 -25 66 -5T45 52Z" />
<glyph unicode="/" glyph-name="slash" horiz-adv-x="321" d="M190 730H277L131 -10H44L190 730Z" />
<glyph unicode="0" glyph-name="zero" horiz-adv-x="684" d="M47 360Q47 457 68 530T130 652Q166 696 218 713T342 730Q381 730 411 726T466 713T512 689T554 652Q595 603 616 530T637 360Q637 263 616 190T554 68Q533 46 512 31T467 7T412 -6T342 -10Q271 -10
219 7T130 68Q89 117 68 190T47 360ZM495 360Q495 524 450 598Q440 614 430 625T408 645T380 657T342 661Q308 661 278 646T234 598Q189 524 189 360Q189 278 200 219T234 122Q248 90 277 75T342 59Q364 59 380 63T408 75T430 94T450 122Q495 195 495 360Z" />
<glyph unicode="1" glyph-name="one" horiz-adv-x="416" d="M165 618H38V684Q56 684 79 687T125 696T166 710T194 730H292V75L399 56V0H38V56L165 75V618Z" />
<glyph unicode="2" glyph-name="two" horiz-adv-x="600" d="M437 110L461 238H546V0H41V66Q41 118 68 161T135 244T223 319T311 391T379 468T406 554Q406 605 372 633T275 662Q219 662 189 638T150 565Q182 565 199 549T216 505Q216 476 196 460T143 444Q125 444
109 449T81 467T61 498T54 545Q54 585 70 619T116 678T190 717T289 731Q343 731 388 717T467 678T518 616T537 535Q537 477 509 430T437 344T345 273T252 213T181 160T152 110H437Z" />
<glyph unicode="3" glyph-name="three" horiz-adv-x="590" d="M531 541Q531 510 522 483T494 434T449 397T389 376V372Q470 355 506 309T542 200Q542 149 521 110T464 45T379 4T277 -10Q221 -10 178 4T104 42T59 101T43 175Q43 221 64 249T131 278Q167 278 186
260T205 216Q205 190 187 173T139 156Q147 108 177 84T265 59Q330 59 367 91T404 186Q404 258 356 299T222 341V404Q262 404 295 414T352 444T388 491T401 552Q401 608 367 635T273 662Q166 662 153 575Q184 575 201 559T219 517Q219 492 202 474T147 455Q99 455
75 484T51 559Q51 597 67 628T114 683T187 718T283 731Q337 731 382 718T461 679T512 619T531 541Z" />
<glyph unicode="4" glyph-name="four" horiz-adv-x="573" d="M312 198H24L9 257L330 730H439V270H548L538 198H439V75L516 56V0H215V56L312 75V198ZM108 270H312V588L108 270Z" />
<glyph unicode="5" glyph-name="five" horiz-adv-x="566" d="M462 610H190L159 407Q188 429 222 440T300 451Q352 451 394 436T467 391T514 320T531 227Q531 174 514 130T463 55T382 7T274 -10Q219 -10 176 3T103 38T57 90T41 153Q41 179 49 199T69 234T99 256T134
264Q175 264 190 246T205 204Q205 180 188 161T138 142Q145 107 174 82T261 57Q324 57 358 102T393 222Q393 295 363 338T271 381Q189 381 150 331L76 361L129 720H417L435 752H507L462 610Z" />
<glyph unicode="6" glyph-name="six" horiz-adv-x="612" d="M177 351Q205 388 252 409T354 430Q402 430 441 414T508 370T551 300T567 210Q567 107 503 49T328 -10Q185 -10 117 75T48 340Q48 532 119 631T335 731Q381 731 419 719T484 685T526 631T541 563Q541
521 523 497T460 473Q419 473 399 492T379 540Q379 568 397 584T445 601Q439 629 412 645T344 661Q253 661 212 599T171 398Q171 384 171 374T173 351H177ZM430 210Q430 358 312 358Q257 358 226 321T194 210Q194 135 225 98T312 60Q430 60 430 210Z" />
<glyph unicode="7" glyph-name="seven" horiz-adv-x="528" d="M284 59Q284 24 270 7T213 -10Q178 -10 165 9T151 60Q151 112 169 183T220 330T296 479T388 610H133L114 493H32V720H521V644Q471 585 428 514T352 367T302 212T284 59Z" />
<glyph unicode="8" glyph-name="eight" horiz-adv-x="581" d="M506 569Q506 515 478 468T397 389Q472 348 505 303T539 197Q539 149 520 111T467 46T384 5T276 -10Q165 -10 104 39T43 179Q43 242 75 290T178 378Q122 418 99 456T76 547Q76 633 130 682T292 731Q340
731 379 721T447 690T490 639T506 569ZM247 335Q196 307 170 272T143 183Q143 120 179 90T277 59Q338 59 374 88T411 168Q411 190 403 208T376 245T326 285T247 335ZM345 427Q375 448 395 485T416 563Q416 612 385 637T301 662Q251 662 221 640T191 574Q191 555
198 537T223 500T270 464T345 427Z" />
<glyph unicode="9" glyph-name="nine" horiz-adv-x="611" d="M434 370Q406 333 359 312T257 291Q209 291 170 307T103 351T60 420T44 511Q44 562 61 602T110 671T187 715T287 731Q429 731 496 645T563 381Q563 189 492 90T276 -10Q230 -10 192 2T127 36T85 89T70
158Q70 197 90 222T151 248Q192 248 212 229T232 181Q232 153 214 137T166 120Q172 92 199 76T267 60Q358 60 399 122T440 323Q440 337 440 347T438 370H434ZM181 511Q181 363 299 363Q354 363 385 400T417 511Q417 586 386 623T299 661Q181 661 181 511Z" />
<glyph unicode=":" glyph-name="colon" horiz-adv-x="277" d="M60 38Q60 76 81 97T138 119Q174 119 195 97T217 39Q217 3 196 -18T137 -39Q101 -39 81 -19T60 38ZM60 388Q60 426 81 447T138 469Q174 469 195 447T217 389Q217 353 196 332T137 311Q101 311 81 331T60 388Z" />
<glyph unicode=";" glyph-name="semicolon" horiz-adv-x="287" d="M64 387Q64 425 85 446T142 468Q178 468 199 446T221 388Q221 352 200 331T141 310Q105 310 85 330T64 387ZM142 133Q180 133 203 107T226 35Q226 -19 192 -68T85 -158L54 -122Q90 -92 115 -66T143
-18L139 -15Q131 -21 117 -21Q94 -21 78 -1T62 53Q62 88 84 110T142 133Z" />
<glyph unicode="&lt;" glyph-name="less" horiz-adv-x="491" d="M30 331V389L429 584V491L131 360L429 229V135L30 331Z" />
<glyph unicode="=" glyph-name="equal" horiz-adv-x="556" d="M64 496H492V408H64V496ZM64 309H492V220H64V309Z" />
<glyph unicode="&gt;" glyph-name="greater" horiz-adv-x="491" d="M62 135V229L360 360L62 491V584L461 389V331L62 135Z" />
<glyph unicode="?" glyph-name="question" horiz-adv-x="506" d="M180 205Q180 235 185 260T201 309T233 357T283 412Q318 447 333 479T348 551Q348 604 318 632T231 661Q202 661 180 647T158 612Q178 601 189 582T201 540Q201 512 179 491T118 469Q99 469 83
477T56 501T39 536T32 578Q32 610 48 638T92 686T158 719T240 731Q293 731 337 718T412 682T461 627T479 557Q479 512 454 470T368 370Q339 343 320 322T288 283T271 246T266 205H180ZM146 52Q146 90 167 111T224 133Q260 133 281 111T303 53Q303 17 282 -4T223
-25Q187 -25 167 -5T146 52Z" />
<glyph unicode="@" glyph-name="at" horiz-adv-x="817" d="M399 449Q476 449 500 394L532 431H602L565 185Q563 173 562 163T561 143Q561 117 573 104T600 91Q619 91 637 106T670 146T692 206T701 281Q701 341 681 389T623 471T532 524T413 543Q348 543 293 517T196
444T132 335T108 199Q108 64 181 -10T387 -84Q526 -84 633 -15L652 -61Q597 -98 529 -117T385 -136Q304 -136 240 -113T130 -47T60 58T36 198Q36 282 65 354T146 479T266 563T416 594Q497 594 563 572T676 509T749 411T775 284Q775 231 761 187T720 109T657 58T578
39Q530 39 511 57T484 107Q461 76 423 55T341 34Q260 34 222 76T184 196Q184 250 200 296T246 376T314 429T399 449ZM407 395Q383 395 362 380T326 338T301 273T292 186Q292 134 307 111T353 88Q407 88 442 142T477 296Q477 349 460 372T407 395Z" />
<glyph unicode="A" glyph-name="A" horiz-adv-x="728" d="M464 234H220L168 79L251 58V0H-13V58L69 79L303 730H426L658 79L738 58V0H433V58L515 79L464 234ZM245 307H440L347 598H343L245 307Z" />
<glyph unicode="B" glyph-name="B" horiz-adv-x="697" d="M624 547Q624 518 614 492T586 446T544 412T490 394V390Q568 373 613 324T658 201Q658 144 629 97T554 27Q540 20 524 15T485 7T435 2T370 0H41V58L125 79V641L41 662V720H407Q512 720 569 669Q595 645
609 613T624 547ZM255 339V75H335Q381 75 409 80T456 96Q483 110 500 140T517 211Q517 246 504 270T471 310Q453 324 425 331T353 339H255ZM255 412H350Q420 412 453 447Q468 461 479 482T490 532Q490 560 479 581T453 617Q423 647 354 647H255V412Z" />
<glyph unicode="C" glyph-name="C" horiz-adv-x="698" d="M377 661Q339 661 305 645T249 599Q222 560 204 502T185 372Q185 300 200 239T242 135Q264 100 301 85T386 69Q554 69 583 238H668Q643 112 569 51T364 -10Q226 -10 144 70Q95 118 69 190T43 353Q43 454
76 535T169 667Q245 730 370 730Q401 730 425 727T471 715T510 692T548 657L568 720H653V484H562Q548 572 500 616T377 661Z" />
<glyph unicode="D" glyph-name="D" horiz-adv-x="779" d="M380 75Q434 75 472 91T536 141Q563 175 577 227T591 354Q591 496 536 571Q509 608 469 626T370 645H255V75H380ZM407 720Q556 720 639 636Q686 588 711 518T736 368Q736 283 710 210T636 87Q594 42 536
21T398 0H41V58L125 79V641L41 662V720H407Z" />
<glyph unicode="E" glyph-name="E" horiz-adv-x="698" d="M414 238L397 332H260V75H535L563 223H651V0H36V58L130 79V641L36 662V720H629V508H547L518 647H260V407H397L414 502H495V238H414Z" />
<glyph unicode="F" glyph-name="F" horiz-adv-x="650" d="M415 227L398 321H261V82L378 63V0H37V58L131 82V641L37 662V720H630V506H546L514 647H261V396H398L415 491H496V227H415Z" />
<glyph unicode="G" glyph-name="G" horiz-adv-x="765" d="M378 70Q463 70 499 112T535 238V278L451 299V359H749V299L665 278V0H583L558 79Q514 31 468 11T359 -10Q222 -10 140 74Q93 122 68 193T43 352Q43 441 69 517T144 644Q185 687 240 708T373 730Q403 730
427 726T471 714T510 692T548 658L568 720H653V484H562Q548 565 503 613T377 661Q332 661 302 646T250 603Q222 561 203 500T184 366Q184 295 201 231T251 122Q271 95 304 83T378 70Z" />
<glyph unicode="H" glyph-name="H" horiz-adv-x="819" d="M694 79L778 58V0H480V58L564 79V333H255V79L339 58V0H41V58L125 79V641L41 662V720H339V662L255 641V406H564V641L480 662V720H778V662L694 641V79Z" />
<glyph unicode="I" glyph-name="I" horiz-adv-x="390" d="M260 79L354 58V0H36V58L130 79V641L36 662V720H354V662L260 641V79Z" />
<glyph unicode="J" glyph-name="J" horiz-adv-x="597" d="M355 641L256 662V720H564V662L485 641V218Q485 166 468 124T420 52T346 6T249 -11Q195 -11 151 2T75 39T26 96T8 170Q8 216 28 245T88 274Q123 274 145 254T167 201Q167 178 154 155T124 123Q129 97 157
80T240 62Q295 62 325 98T355 207V641Z" />
<glyph unicode="K" glyph-name="K" horiz-adv-x="747" d="M260 397L495 641L404 662V720H697V662L609 641L390 424L677 77L761 58V0H452V58L518 78L306 340L260 296V79L344 58V0H36V58L130 79V641L36 662V720H344V662L260 641V397Z" />
<glyph unicode="L" glyph-name="L" horiz-adv-x="645" d="M260 75H502L536 248H621V0H36V58L130 79V641L36 662V720H364V662L260 641V75Z" />
<glyph unicode="M" glyph-name="M" horiz-adv-x="977" d="M672 720H936V662L852 641V79L936 58V0H649V58L722 79V640L540 0H398L220 640V79L293 58V0H41V58L125 79V641L41 662V720H309L482 106H486L672 720Z" />
<glyph unicode="N" glyph-name="N" horiz-adv-x="817" d="M125 641L41 662V720H272L606 192V641L522 662V720H785V662L701 641V0H590L220 574V79L304 58V0H41V58L125 79V641Z" />
<glyph unicode="O" glyph-name="O" horiz-adv-x="774" d="M731 368Q731 284 707 208T631 77Q588 32 529 11T384 -10Q299 -10 240 11T139 74Q95 119 69 191T43 352Q43 440 69 516T143 643Q185 688 243 709T387 730Q468 730 528 711T634 646Q686 594 708 521T731
368ZM188 371Q188 293 202 233T242 135Q266 98 301 79T390 60Q484 60 532 126Q558 161 572 217T586 354Q586 433 572 491T531 587Q505 625 468 643T383 661Q335 661 301 644T244 595Q188 521 188 371Z" />
<glyph unicode="P" glyph-name="P" horiz-adv-x="645" d="M349 348Q377 348 401 356T440 379Q460 399 474 427T488 493Q488 526 475 557T440 611Q423 628 399 637T345 647H255V348H349ZM255 275V79L350 58V0H41V58L125 79V641L41 662V720H402Q449 720 487 708T552
672Q587 640 607 597T628 506Q628 456 607 406T550 325Q524 298 485 287T401 275H255Z" />
<glyph unicode="Q" glyph-name="Q" horiz-adv-x="774" d="M731 368Q731 280 705 204T631 77Q593 37 544 17T433 -9V-13L530 -79Q548 -91 569 -97T611 -103Q630 -103 642 -97T671 -74L693 -114Q672 -152 637 -168T554 -185Q498 -185 456 -166T391 -109L331 -8Q209
1 139 74Q93 122 68 194T43 352Q43 440 69 516T143 643Q188 689 246 709T387 730Q468 730 529 710T634 646Q682 598 706 526T731 368ZM188 374Q188 294 202 233T242 134Q286 60 389 60Q486 60 531 126Q586 196 586 354Q586 432 572 491T531 587Q484 661 384 661Q289
661 243 595Q188 528 188 374Z" />
<glyph unicode="R" glyph-name="R" horiz-adv-x="717" d="M566 382Q548 368 526 355T468 334Q473 329 483 317T505 287L629 77L718 58V0H482V58L351 315H255V79L350 58V0H41V58L125 79V641L41 662V720H415Q463 720 499 711T564 682Q600 656 621 615T642 532Q642
490 622 450T566 382ZM368 388Q423 388 459 419Q479 436 490 464T502 526Q502 556 490 580T458 621Q425 647 364 647H255V388H368Z" />
<glyph unicode="S" glyph-name="S" horiz-adv-x="613" d="M322 -11Q265 -11 226 5T155 58L144 0H58V242H149Q152 192 164 157T198 100T247 69T312 59Q369 59 403 82T437 157Q437 188 424 210T387 249T330 282T257 314Q210 333 174 352T112 396T74 452T61 528Q61
625 120 678T280 731Q379 731 441 675L449 720H535V478H448Q448 572 413 617T305 662Q192 662 192 555Q192 529 199 511T224 479T270 450T341 417Q404 388 447 363T517 312T556 257T568 191Q568 141 549 103T497 40T418 2T322 -11Z" />
<glyph unicode="T" glyph-name="T" horiz-adv-x="674" d="M650 720V495H586L554 645H402V82L508 58V0H166V58L272 82V645H119L88 495H24V720H650Z" />
<glyph unicode="U" glyph-name="U" horiz-adv-x="784" d="M584 641L500 662V720H761V662L677 641V243Q677 118 603 54T384 -11Q250 -11 179 55T108 244V641L24 662V720H322V662L238 641V276Q238 59 406 59Q500 59 542 109T584 274V641Z" />
<glyph unicode="V" glyph-name="V" horiz-adv-x="724" d="M377 118H381L551 641L468 662V720H732V662L650 641L431 0H303L65 641L-15 662V720H285V662L203 641L377 118Z" />
<glyph unicode="W" glyph-name="W" horiz-adv-x="1051" d="M878 642L799 662V720H1058V662L975 641L790 0H656L525 431L406 0H272L67 641L-11 662V720H303V662L207 641L349 128H353L479 596L470 641L392 662V720H686V662L594 641L733 127H737L878 642Z" />
<glyph unicode="X" glyph-name="X" horiz-adv-x="742" d="M262 641L379 452L522 641L431 662V720H724V662L626 641L430 386L635 79L741 58V0H384L382 58L485 79L351 293L201 79L310 58V0H8V58L101 79L301 358L115 641L9 662V720H356V662L262 641Z" />
<glyph unicode="Y" glyph-name="Y" horiz-adv-x="682" d="M512 641L431 662V720H688V662L606 641L410 282V79L504 58V0H186V58L280 79V266L73 641L-10 662V720H296V662L212 641L360 363L512 641Z" />
<glyph unicode="Z" glyph-name="Z" horiz-adv-x="659" d="M534 238H621V0H28V61L443 645H173L141 493H59V720H598V659L183 75H502L534 238Z" />
<glyph unicode="[" glyph-name="bracketleft" horiz-adv-x="383" d="M84 855H365V780H203V-75H365V-149H84V855Z" />
<glyph unicode="\" glyph-name="backslash" horiz-adv-x="321" d="M277 -10H190L44 730H131L277 -10Z" />
<glyph unicode="]" glyph-name="bracketright" horiz-adv-x="383" d="M299 -149H18V-75H180V780H18V855H299V-149Z" />
<glyph unicode="^" glyph-name="asciicircum" horiz-adv-x="392" d="M347 639H264L196 715L128 639H45L133 790H258L347 639Z" />
<glyph unicode="_" glyph-name="underscore" horiz-adv-x="614" d="M60 15H554V-73H60V15Z" />
<glyph unicode="`" glyph-name="grave" horiz-adv-x="259" d="M234 639H151L113 667Q65 702 47 720T29 754Q29 771 41 783T85 796Q99 796 111 792T134 779T157 755T185 715L234 639Z" />
<glyph unicode="a" glyph-name="a" horiz-adv-x="549" d="M30 118Q30 159 48 190T105 246T203 287T345 317Q340 367 334 393T316 440Q302 463 284 477T236 491Q215 491 198 483T174 461Q188 453 193 439T199 413Q199 388 177 369T124 349Q92 349 75 369T57 421Q57
452 74 476T119 516T181 541T251 550Q298 550 335 537T396 503Q475 433 475 281V151Q475 101 481 83T510 64H555V19Q463 -10 416 -10Q399 -10 389 -5T372 12T364 45T361 99H357Q326 48 275 19T165 -10Q102 -10 66 24T30 118ZM226 63Q247 63 272 76T317 116Q328
130 338 156T348 218Q348 230 347 244T344 273Q292 262 258 250T202 222T172 188T163 143Q163 99 183 81T226 63Z" />
<glyph unicode="b" glyph-name="b" horiz-adv-x="615" d="M577 275Q577 209 558 152T505 55Q449 -10 344 -10Q293 -10 253 13T182 101L152 0H75V705L-2 724V780H202V482Q232 520 269 535T352 550Q403 550 444 535T512 487Q543 449 560 394T577 275ZM202 270Q202
210 212 172T237 110Q253 85 275 71T329 57Q361 57 379 70T411 105Q426 131 434 167T442 256Q442 313 434 357T412 430Q400 456 380 469T328 483Q301 483 277 473T237 437Q222 411 212 371T202 270Z" />
<glyph unicode="c" glyph-name="c" horiz-adv-x="546" d="M300 550Q346 550 385 539T452 508T497 458T513 394Q513 349 489 326T430 302Q410 302 397 308T376 325T364 349T360 375Q360 400 372 418T410 444Q396 462 368 473T305 484Q273 484 249 473T207 438T181
373T172 273Q172 219 179 188T198 134Q214 105 239 89T303 72Q323 72 345 77T389 91T430 116T465 152L519 110Q472 45 411 18T279 -10Q204 -10 153 18T73 102Q56 134 47 175T37 265Q37 330 55 382T106 472T189 530T300 550Z" />
<glyph unicode="d" glyph-name="d" horiz-adv-x="636" d="M38 269Q38 335 56 392T106 485Q165 550 265 550Q312 550 348 533T413 472V705L336 724V780H540V75L617 56V0L432 -10L424 72Q393 25 354 8T263 -10Q208 -10 171 6T107 53Q76 88 57 144T38 269ZM413 266Q413
324 403 366T379 432Q348 482 287 482Q263 482 238 472T199 436Q186 412 180 371T173 278Q173 220 181 177T201 111Q215 85 239 71T292 57Q315 57 339 67T379 103Q395 129 404 171T413 266Z" />
<glyph unicode="e" glyph-name="e" horiz-adv-x="556" d="M169 256Q169 188 189 143Q221 72 299 72Q344 72 387 91T461 152L515 110Q480 60 421 25T274 -10Q200 -10 148 19T67 106Q52 137 45 174T38 257Q38 397 102 473T285 550Q339 550 383 534T457 487T504 412T521
311Q521 300 521 290T518 256H169ZM283 481Q180 481 170 320H390V346Q390 411 362 446T283 481Z" />
<glyph unicode="f" glyph-name="f" horiz-adv-x="389" d="M17 524L114 538V565Q114 673 172 731T329 790Q389 790 424 762T459 689Q459 657 443 640T397 622Q365 622 348 637T330 682Q330 703 346 719Q335 737 316 737Q297 737 284 729Q268 718 259 703T246 670T242
632T241 590V540H369V460H241V75L349 56V0H37V56L114 75V460H17V524Z" />
<glyph unicode="g" glyph-name="g" horiz-adv-x="575" d="M528 -6Q528 -98 462 -141T252 -184Q204 -184 162 -178T89 -156T39 -117T21 -58Q21 -12 50 16T136 46V50Q60 71 60 126Q60 141 65 157T83 188T115 214T163 229Q109 242 80 282T50 378Q50 458 103 504T259
550Q292 550 317 547T363 538T400 524T431 504L465 516L557 560H574V457H557L487 465H462Q482 434 482 384Q482 302 432 255T284 207Q273 207 264 207T244 209Q205 204 182 192T158 156Q158 138 176 132T246 125H362Q528 125 528 -6ZM253 33Q186 33 156 12T126
-43Q126 -119 269 -119Q346 -119 386 -97T426 -31Q426 4 395 18T288 33H253ZM168 382Q168 325 192 296T261 267Q315 267 339 296T364 382Q364 435 340 462T261 489Q216 489 192 462T168 382Z" />
<glyph unicode="h" glyph-name="h" horiz-adv-x="658" d="M442 268Q442 300 441 323T439 364T434 394T426 415Q401 464 338 464Q310 464 284 450T243 410Q235 396 229 373T223 316V75L290 56V0H19V56L96 75V705L19 724V780H223V446Q249 494 291 522T385 550Q428
550 457 540T509 506Q540 474 554 421T569 281V75L646 56V0H375V56L442 75V268Z" />
<glyph unicode="i" glyph-name="i" horiz-adv-x="331" d="M31 484V540H235V75L312 56V0H31V56L108 75V465L31 484ZM97 692Q97 724 116 744T171 764Q206 764 226 744T246 692Q246 660 227 641T171 621Q135 621 116 640T97 692Z" />
<glyph unicode="j" glyph-name="j" horiz-adv-x="300" d="M225 85Q225 11 221 -31T203 -101Q180 -149 144 -169T54 -190Q-10 -190 -49 -166T-89 -95Q-89 -66 -71 -45T-19 -23Q10 -23 27 -41T45 -85Q45 -96 41 -106T27 -123Q29 -134 39 -136T54 -138Q76 -138 87
-110T98 -9V465L21 484V540H225V85ZM90 692Q90 724 109 744T164 764Q199 764 219 744T239 692Q239 660 220 641T164 621Q128 621 109 640T90 692Z" />
<glyph unicode="k" glyph-name="k" horiz-adv-x="609" d="M411 75L279 251L223 204V75L300 56V0H19V56L96 75V705L19 724V780H223V282L393 466L341 484V540H586V484L498 465L361 325L548 73L601 56V0H352V56L411 75Z" />
<glyph unicode="l" glyph-name="l" horiz-adv-x="326" d="M99 704L22 723V780H226V76L303 57V0H22V57L99 76V704Z" />
<glyph unicode="m" glyph-name="m" horiz-adv-x="995" d="M108 465L31 484V540H205L227 440H231Q260 491 308 520T412 550Q454 550 485 535T532 496Q548 471 558 430Q590 487 641 518T750 550Q790 550 822 535T871 492Q880 478 886 458T896 409T901 339T903 245V75L980
56V0H709V56L776 75V268Q776 300 775 323T772 364T767 394T760 415Q750 439 734 448T699 458Q673 458 653 451T614 427Q592 407 582 381T569 312V75L636 56V0H375V56L442 75V268Q442 300 441 323T438 364T433 394T426 415Q416 439 400 448T365 458Q339 458 319
451T280 427Q258 407 248 381T235 312V75L302 56V0H31V56L108 75V465Z" />
<glyph unicode="n" glyph-name="n" horiz-adv-x="674" d="M108 465L31 484V540H205L227 440H231Q261 491 311 520T421 550Q461 550 493 536T544 496Q564 468 572 418T581 281V75L658 56V0H387V56L454 75V268Q454 328 451 361T438 415Q427 441 408 451T363 461Q314
461 280 429Q239 391 235 312V75L302 56V0H31V56L108 75V465Z" />
<glyph unicode="o" glyph-name="o" horiz-adv-x="594" d="M557 270Q557 206 539 150T485 55Q452 20 406 5T297 -10Q234 -10 188 5T109 55Q74 93 56 149T37 270Q37 334 55 390T109 485Q142 520 188 535T297 550Q360 550 406 535T485 485Q520 447 538 391T557 270ZM206
97Q233 57 297 57Q361 57 388 97Q420 146 420 270Q420 394 388 443Q361 483 297 483Q233 483 206 443Q174 394 174 270Q174 146 206 97Z" />
<glyph unicode="p" glyph-name="p" horiz-adv-x="635" d="M320 -124V-180H19V-124L96 -105V465L19 484V540H193L208 463Q240 513 280 531T372 550Q423 550 464 535T532 487Q562 449 579 396T597 280Q597 216 578 160T525 65Q469 0 364 0Q321 0 287 16T223 74V-105L320
-124ZM222 280Q222 225 231 185T255 120Q270 95 293 81T348 67Q379 67 398 80T430 114Q445 140 453 181T462 270Q462 321 453 365T429 436Q414 462 392 472T342 482Q283 482 254 436Q240 413 231 374T222 280Z" />
<glyph unicode="q" glyph-name="q" horiz-adv-x="615" d="M413 67Q384 29 348 15T267 0Q216 0 175 15T107 63Q75 101 57 154T38 270Q38 334 56 390T106 485Q132 517 173 533T267 550Q320 550 360 526T433 437L463 540H540V-105L617 -124V-180H316V-124L413 -105V67ZM413
271Q413 380 378 430Q346 482 287 482Q263 482 239 472T199 436Q183 410 178 371T173 278Q173 173 199 120Q214 89 237 78T286 67Q321 67 342 78T378 113Q394 139 403 178T413 271Z" />
<glyph unicode="r" glyph-name="r" horiz-adv-x="474" d="M330 467Q321 467 311 459T292 439T275 414T263 390Q251 355 242 320T233 232V75L341 56V0H29V56L106 75V480L29 499V540H203L225 408H229Q252 477 290 513T377 550Q416 550 442 526T468 460Q468 430 450
406T399 381Q358 381 342 399T325 440Q325 447 326 451T330 467Z" />
<glyph unicode="s" glyph-name="s" horiz-adv-x="516" d="M243 51Q268 51 290 56T328 70T354 92T364 123Q364 143 352 158T319 184T273 203T222 220Q191 229 162 242T109 276T71 325T57 391Q57 463 109 506T258 550Q304 550 341 540T404 512T444 468T459 412Q459
377 441 359T390 341Q358 341 340 356T322 393Q322 410 332 425T358 449Q344 468 321 478T262 489Q215 489 192 470T169 415Q169 375 195 356T265 323Q305 311 344 298T413 266T462 220T481 153Q481 114 463 84T412 33T335 1T240 -10Q144 -10 91 25T37 120Q37 161
60 184T115 207Q139 207 159 194T180 155Q180 137 169 120T144 95Q154 79 177 65T243 51Z" />
<glyph unicode="t" glyph-name="t" horiz-adv-x="365" d="M5 526L103 540L115 664L229 680V540H357V475H229V148Q229 114 230 102T234 81Q237 75 245 72T271 69H341V25Q283 7 239 -1T168 -10Q123 -10 110 27Q105 39 104 57T102 114V475H5V526Z" />
<glyph unicode="u" glyph-name="u" horiz-adv-x="652" d="M218 272Q218 240 218 217T220 176T224 146T230 125Q238 101 256 89T294 76Q321 76 343 86T384 113Q406 133 416 159T429 228V465L342 484V540H556V75L633 56V0L448 -10L437 100H433Q404 49 354 20T247
-10Q209 -10 178 4T128 44Q108 72 100 122T91 259V465L24 484V540H218V272Z" />
<glyph unicode="v" glyph-name="v" horiz-adv-x="604" d="M235 -10L62 466L6 485V541H260V485L194 466L314 99H318L441 465L379 484V540H599V484L541 465L368 -10H235Z" />
<glyph unicode="w" glyph-name="w" horiz-adv-x="888" d="M278 150L288 91H293L304 150L408 550H510L617 151L627 92H631L643 151L724 464L659 483V539H879V483L825 464L681 -10H548L444 351L343 -10H210L61 464L8 483V539H262V483L193 464L278 150Z" />
<glyph unicode="x" glyph-name="x" horiz-adv-x="574" d="M303 341L394 465L334 484V540H552V484L495 465L345 287L510 74L565 56V0H316V56L373 75L271 206L174 75L234 56V0H16V56L72 75L230 260L71 465L15 484V540H252V484L208 465L303 341Z" />
<glyph unicode="y" glyph-name="y" horiz-adv-x="600" d="M368 24Q343 -34 323 -75T280 -141T230 -178T164 -190Q140 -190 120 -184T84 -165T59 -137T50 -102Q50 -67 70 -45T124 -22Q153 -22 168 -35T184 -74Q184 -79 182 -86T174 -101T159 -114T138 -119Q140
-129 149 -132T167 -136Q177 -136 186 -134T205 -122T225 -94T248 -44L260 -7L59 465L-1 484V540H253L261 484L190 465L313 118H317L428 465L370 484V540H590V484L529 465L368 24Z" />
<glyph unicode="z" glyph-name="z" horiz-adv-x="558" d="M425 207H512V0H39V71L352 469H163L139 338H52V540H508V469L196 71H405L425 207Z" />
<glyph unicode="{" glyph-name="braceleft" horiz-adv-x="424" d="M2 401H36Q91 401 116 427T141 513Q141 526 140 546T138 589T135 633T134 667Q134 758 199 803T406 855V780Q325 775 292 749T258 664Q258 656 258 638T260 600T261 560T262 529Q262 460 237 421T153
362V358Q212 344 237 305T262 185Q262 172 262 152T260 109T259 69T258 41Q258 -18 292 -44T406 -75V-150Q264 -144 199 -99T134 39Q134 52 135 73T137 119T140 164T141 199Q141 259 117 285T36 312H2V401Z" />
<glyph unicode="|" glyph-name="bar" horiz-adv-x="255" d="M84 770H171V-170H84V770Z" />
<glyph unicode="}" glyph-name="braceright" horiz-adv-x="424" d="M422 312H388Q332 312 308 286T283 199Q283 186 284 165T286 119T289 74T290 39Q290 -54 225 -99T18 -150V-75Q98 -71 132 -45T166 41Q166 50 166 68T164 109T163 151T162 185Q162 265 187 304T271
358V362Q213 382 188 421T162 529Q162 540 162 559T164 599T165 638T166 664Q166 722 133 748T18 780V855Q160 849 225 804T290 667Q290 654 289 633T287 590T284 547T283 513Q283 454 308 428T388 401H422V312Z" />
<glyph unicode="~" glyph-name="asciitilde" horiz-adv-x="483" d="M60 289Q78 434 172 434Q197 434 216 426T250 407T281 388T314 379Q357 379 368 429H428Q409 278 316 278Q291 278 273 286T238 305T207 325T174 334Q153 334 139 322T120 289H60Z" />
<glyph unicode="&#xa0;" glyph-name="uni00A0" horiz-adv-x="236" />
<glyph unicode="&#xa1;" glyph-name="exclamdown" horiz-adv-x="271" d="M179 335Q179 296 181 252T187 167T192 92T195 40Q200 3 204 -33T208 -111Q208 -143 193 -166T138 -190Q100 -190 82 -168T64 -110Q64 -68 69 -33T77 40Q78 58 81 92T86 167T91 252T93 335H179ZM57
485Q57 523 78 544T135 566Q171 566 192 544T214 486Q214 450 193 429T134 408Q98 408 78 428T57 485Z" />
<glyph unicode="&#xa2;" glyph-name="cent" horiz-adv-x="555" d="M256 -9Q130 1 77 102Q60 134 51 175T41 265Q41 382 97 456T256 546V652H333V549Q373 546 407 534T465 501T503 453T517 394Q517 349 493 326T434 302Q414 302 401 308T380 325T368 349T364 375Q364
400 376 418T414 444Q403 459 382 469T333 482V73Q369 78 406 97T469 152L523 110Q485 56 437 29T333 -6V-108H256V-9ZM202 134Q212 116 225 103T256 81V474Q218 458 197 411T176 273Q176 219 183 188T202 134Z" />
<glyph unicode="&#xa3;" glyph-name="sterling" horiz-adv-x="628" d="M72 389H196Q175 433 166 466T156 532Q156 611 215 656T383 701Q469 701 516 664T563 561Q563 529 547 510T497 490Q466 490 446 504T426 543Q426 583 462 600Q451 620 429 630T378 640Q329
640 301 620T273 555Q273 523 283 483T315 389H488V311H336Q341 286 342 272T343 245Q343 221 339 195T324 141Q345 127 361 118T390 103T413 95T434 93Q469 93 487 107T514 160H589Q578 69 550 30T469 -10Q454 -10 439 -7T405 6T359 33T294 76Q263 31 231 11T160
-10Q102 -10 67 17T32 95Q32 118 41 135T66 165T102 183T142 190Q163 190 189 186T237 173Q240 182 241 196T243 225Q243 250 240 269T226 311H72V389ZM165 56Q196 56 212 107Q202 115 190 120T168 125Q145 125 133 116T120 90Q120 56 165 56Z" />
<glyph unicode="&#xa5;" glyph-name="yen" horiz-adv-x="754" d="M550 641L469 662V720H726V662L644 641L488 356H605V268H448V218H605V130H448V79L542 58V0H224V58L318 79V130H146V218H318V268H146V356H268L111 641L28 662V720H334V662L250 641L398 363L550 641Z" />
<glyph unicode="&#xa6;" glyph-name="brokenbar" horiz-adv-x="259" d="M86 248H173V-170H86V248ZM86 770H173V368H86V770Z" />
<glyph unicode="&#xa7;" glyph-name="section" horiz-adv-x="540" d="M502 251Q502 198 477 159T407 96Q436 70 449 41T462 -24Q462 -63 447 -94T402 -146T332 -179T241 -190Q152 -190 106 -157T60 -63Q60 -26 78 -4T131 19Q160 19 178 4T197 -35Q197 -50 187
-67T146 -89Q159 -111 179 -120T234 -129Q291 -129 320 -107T350 -46Q350 -21 339 -2T309 33T269 59T224 82Q189 99 156 118T96 162T54 218T38 290Q38 342 63 381T132 444Q103 469 91 498T78 564Q78 643 129 686T278 730Q324 730 361 720T425 692T465 649T480 593Q480
559 462 540T408 521Q375 521 359 536T343 572Q343 590 353 605T379 629Q363 650 338 659T281 669Q233 669 212 650T190 591Q190 565 198 548T222 516T258 491T304 467Q341 448 377 428T440 383T485 326T502 251ZM243 377Q240 379 226 385T186 407Q172 393 164
371T155 322Q155 295 164 275T192 238T238 203T302 166Q310 162 327 153T359 135Q371 148 378 168T385 217Q385 236 380 255T360 294T317 334T243 377Z" />
<glyph unicode="&#xa8;" glyph-name="dieresis" horiz-adv-x="407" d="M15 690Q15 725 34 744T88 764Q122 764 142 744T162 690Q162 656 143 637T88 617Q54 617 35 636T15 690ZM245 690Q245 725 264 744T318 764Q352 764 372 744T392 690Q392 656 373 637T318
617Q284 617 265 636T245 690Z" />
<glyph unicode="&#xa9;" glyph-name="copyright" horiz-adv-x="852" d="M418 -10Q337 -10 269 18T150 97T71 215T42 361Q42 439 70 506T149 623T269 701T419 730Q508 730 580 702T704 624T782 507T810 361Q810 283 781 215T701 97T577 19T418 -10ZM418 45Q488
45 546 69T646 135T711 236T735 361Q735 428 713 485T649 585T549 651T419 675Q356 675 302 651T207 585T143 486T119 361Q119 293 142 236T205 136T300 69T418 45ZM425 510Q382 510 360 478Q330 434 330 369Q330 338 336 312T354 265Q366 243 388 233T432 222Q466
222 491 245T526 312H585Q571 239 529 204T421 169Q338 169 295 211Q266 238 251 276T236 360Q236 410 255 454T308 526Q331 545 360 552T418 559Q444 559 465 551T508 520L518 553H577V417H515Q507 464 483 487T425 510Z" />
<glyph unicode="&#xaa;" glyph-name="ordfeminine" horiz-adv-x="386" d="M46 493Q46 537 84 564T215 606Q212 633 209 649T199 673Q193 681 185 683T168 686Q154 686 147 680T138 665Q146 660 148 654T150 642Q150 625 136 618T105 610Q83 610 70 622T56 657Q56
675 65 688T91 711T129 725T175 730Q197 730 223 725T270 703Q291 686 298 655T305 582V517Q305 490 308 480T324 469H349V438Q320 430 297 426T259 422Q237 422 231 434T225 482H221Q206 456 180 439T120 422Q85 422 66 440T46 493ZM161 476Q165 476 176 478T199
495Q207 503 211 514T216 542Q216 548 216 555T214 569Q172 558 155 543T138 504Q138 476 161 476Z" />
<glyph unicode="&#xab;" glyph-name="guillemotleft" horiz-adv-x="548" d="M295 54L248 7L32 230V277L246 494L294 458L162 255L295 54ZM505 54L458 7L242 230V277L456 494L504 458L372 255L505 54Z" />
<glyph unicode="&#xac;" glyph-name="logicalnot" horiz-adv-x="568" d="M60 413H499V174H409V313H60V413Z" />
<glyph unicode="&#xae;" glyph-name="registered" horiz-adv-x="638" d="M314 230Q257 230 210 249T128 302T74 381T54 481Q54 535 73 580T127 659T209 711T314 730Q374 730 423 712T508 660T564 581T584 481Q584 427 564 382T509 302T424 249T314 230ZM314 282Q412
282 462 336T512 481Q512 572 462 625T314 678Q227 678 177 625T126 481Q126 390 175 336T314 282ZM407 489Q399 484 393 480T373 471Q376 468 378 466T384 458L423 393L455 386V356H346V386L307 463H295V394L323 386V356H194V386L224 394V575L194 583V613H352Q385
613 405 599Q418 590 425 577T433 542Q433 527 427 513T407 489ZM311 504Q320 504 330 507T346 515Q354 521 356 527T358 544Q358 553 354 559T344 568Q341 570 334 571T309 572H295V504H311Z" />
<glyph unicode="&#xaf;" glyph-name="overscore" horiz-adv-x="329" d="M25 730H304V635H25V730Z" />
<glyph unicode="&#xb0;" glyph-name="degree" horiz-adv-x="371" d="M186 458Q119 458 78 495T37 593Q37 622 48 647T79 690T126 719T186 730Q219 730 246 720T293 693T324 650T335 595Q335 566 324 541T292 498T245 469T186 458ZM188 509Q218 509 236 532T255
593Q255 631 236 654T184 678Q155 678 136 655T117 594Q117 557 137 533T188 509Z" />
<glyph unicode="&#xb1;" glyph-name="plusminus" horiz-adv-x="530" d="M61 432H221V580H309V432H469V360H309V212H221V360H61V432ZM61 132H469V60H61V132Z" />
<glyph unicode="&#xb2;" glyph-name="twosuperior" horiz-adv-x="350" d="M229 464L239 511H295V401H48V431Q48 454 60 473T89 510T128 544T166 577T196 612T208 654Q208 664 203 671T191 681T175 686T161 688Q157 688 150 688T135 684T121 676T113 662Q127 662
134 653T141 630Q141 616 132 607T100 597Q74 597 64 611T53 644Q53 683 82 706T169 730Q230 730 260 707T291 643Q291 618 279 598T249 562T211 533T172 508T142 486T130 464H229Z" />
<glyph unicode="&#xb3;" glyph-name="threesuperior" horiz-adv-x="344" d="M288 646Q288 616 270 597T220 572V568Q293 554 293 491Q293 449 254 423T151 397Q104 397 76 420T48 481Q48 502 59 514T89 527Q115 527 124 517T134 492Q134 481 129 473T112 465Q114
448 126 444T153 440Q175 440 190 451T206 487Q206 516 186 532T129 548V588Q163 588 184 603T205 649Q205 669 191 679T154 690Q140 690 128 685T114 667Q124 667 133 660T142 640Q142 627 132 615T95 602Q74 602 63 617T52 652Q52 687 81 708T164 730Q223 730
255 707T288 646Z" />
<glyph unicode="&#xb4;" glyph-name="acute" horiz-adv-x="259" d="M74 715Q89 739 101 754T125 779T148 792T174 796Q206 796 218 784T230 754Q230 739 212 721T146 667L108 639H25L74 715Z" />
<glyph unicode="&#xb5;" glyph-name="mu" horiz-adv-x="682" d="M104 465L37 484V540H231V272Q231 207 234 174T245 123Q255 100 274 88T314 76Q367 76 401 110Q422 132 430 159T442 228V465L355 484V540H569V75L646 56V0L461 -10L450 100H446Q423 47 388 19T307
-10Q295 -10 282 -6T257 7T237 29T225 59H221L231 -179H104V465Z" />
<glyph unicode="&#xb6;" glyph-name="paragraph" horiz-adv-x="702" d="M482 591H442V-96H342V188H276Q154 188 92 249T29 432Q29 547 92 608T275 670H666V612L582 591V-96H482V591Z" />
<glyph unicode="&#xb7;" glyph-name="middot" horiz-adv-x="264" d="M54 298Q54 335 75 356T132 378Q168 378 189 356T211 298Q211 262 190 241T132 220Q94 220 74 240T54 298Z" />
<glyph unicode="&#xb8;" glyph-name="cedilla" horiz-adv-x="254" d="M101 -210Q48 -210 10 -182L41 -140Q70 -160 100 -160Q142 -160 142 -134Q142 -121 130 -114T97 -106Q86 -106 73 -107T51 -112L34 -83L111 17H185L143 -53L144 -56Q200 -56 222 -75T244 -126Q244
-146 233 -162T202 -188T156 -204T101 -210Z" />
<glyph unicode="&#xb9;" glyph-name="onesuperior" horiz-adv-x="332" d="M131 654H71V700Q79 700 90 701T111 705T131 711T144 720H213V442L261 433V392H71V433L131 442V654Z" />
<glyph unicode="&#xba;" glyph-name="ordmasculine" horiz-adv-x="381" d="M341 579Q341 544 331 511T300 458Q265 422 189 422Q153 422 125 430T80 457Q60 477 51 507T41 572Q41 608 51 641T82 694Q117 730 192 730Q227 730 255 722T302 695Q322 675 331 645T341
579ZM135 578Q135 549 139 529T154 492Q159 484 169 478T193 471Q215 471 228 486Q239 499 243 520T247 574Q247 603 243 624T228 662Q222 670 213 675T190 681Q178 681 169 676T155 664Q144 650 140 629T135 578Z" />
<glyph unicode="&#xbb;" glyph-name="guillemotright" horiz-adv-x="548" d="M176 255L44 458L92 494L306 277V230L90 7L43 54L176 255ZM386 255L254 458L302 494L516 277V230L300 7L253 54L386 255Z" />
<glyph unicode="&#xbc;" glyph-name="onequarter" horiz-adv-x="634" d="M474 730H558L172 -10H88L474 730ZM104 654H44V700Q52 700 63 701T84 705T104 711T117 720H186V442L234 433V392H44V433L104 442V654ZM471 77H342L335 123L471 328H553V125H602L594 77H553V49L588
40V0H428V40L471 49V77ZM403 125H471V237L403 125Z" />
<glyph unicode="&#xbd;" glyph-name="onehalf" horiz-adv-x="653" d="M470 730H554L168 -10H84L470 730ZM100 654H40V700Q48 700 59 701T80 705T100 711T113 720H182V442L230 433V392H40V433L100 442V654ZM552 63L562 110H618V0H371V30Q371 53 383 72T412 109T451
143T489 176T519 211T531 253Q531 263 526 270T514 280T498 285T484 287Q480 287 473 287T458 283T444 275T436 261Q450 261 457 252T464 229Q464 215 455 206T423 196Q397 196 387 210T376 243Q376 282 405 305T492 329Q553 329 583 306T614 242Q614 217 602 197T572
161T534 132T495 107T465 85T453 63H552Z" />
<glyph unicode="&#xbe;" glyph-name="threequarters" horiz-adv-x="644" d="M484 730H568L182 -10H98L484 730ZM481 77H352L345 123L481 328H563V125H612L604 77H563V49L598 40V0H438V40L481 49V77ZM413 125H481V237L413 125ZM276 646Q276 616 258 597T208 572V568Q281
554 281 491Q281 449 242 423T139 397Q92 397 64 420T36 481Q36 502 47 514T77 527Q103 527 112 517T122 492Q122 481 117 473T100 465Q102 448 114 444T141 440Q163 440 178 451T194 487Q194 516 174 532T117 548V588Q151 588 172 603T193 649Q193 669 179 679T142
690Q128 690 116 685T102 667Q112 667 121 660T130 640Q130 627 120 615T83 602Q62 602 51 617T40 652Q40 687 69 708T152 730Q211 730 243 707T276 646Z" />
<glyph unicode="&#xbf;" glyph-name="questiondown" horiz-adv-x="500" d="M324 336Q324 306 319 281T303 232T271 184T221 129Q186 94 171 62T156 -10Q156 -63 186 -91T273 -120Q302 -120 324 -106T346 -71Q326 -60 315 -41T303 1Q303 29 325 50T386 72Q405 72
421 64T448 40T465 5T472 -37Q472 -69 456 -97T412 -145T346 -178T264 -190Q211 -190 167 -177T92 -141T43 -86T25 -16Q25 29 50 71T136 171Q165 198 184 219T216 258T233 295T238 336H324ZM358 489Q358 451 337 430T280 408Q244 408 223 430T201 488Q201 524 222
545T281 566Q317 566 337 546T358 489Z" />
<glyph unicode="&#xc0;" glyph-name="Agrave" horiz-adv-x="728" d="M464 234H220L168 79L251 58V0H-13V58L69 79L303 730H426L658 79L738 58V0H433V58L515 79L464 234ZM245 307H440L347 598H343L245 307ZM428 760H345L298 788Q275 802 260 811T237 828T226 843T223
861Q223 876 234 888T270 900Q284 900 295 898T316 889T339 870T368 836L428 760Z" />
<glyph unicode="&#xc1;" glyph-name="Aacute" horiz-adv-x="728" d="M464 234H220L168 79L251 58V0H-13V58L69 79L303 730H426L658 79L738 58V0H433V58L515 79L464 234ZM245 307H440L347 598H343L245 307ZM383 836Q399 857 411 869T434 888T456 897T481 900Q505
900 516 888T528 861Q528 851 525 844T514 829T491 812T453 788L406 760H323L383 836Z" />
<glyph unicode="&#xc2;" glyph-name="Acircumflex" horiz-adv-x="728" d="M464 234H220L168 79L251 58V0H-13V58L69 79L303 730H426L658 79L738 58V0H433V58L515 79L464 234ZM245 307H440L347 598H343L245 307ZM546 769H463L365 830L267 769H184L302 890H427L546 769Z" />
<glyph unicode="&#xc3;" glyph-name="Atilde" horiz-adv-x="728" d="M464 234H220L168 79L251 58V0H-13V58L69 79L303 730H426L658 79L738 58V0H433V58L515 79L464 234ZM245 307H440L347 598H343L245 307ZM166 755Q168 828 203 864T293 900Q318 900 337 892T372
873T403 854T439 845Q469 845 484 858T504 895H564Q543 744 437 744Q412 744 394 752T359 771T326 791T291 800Q261 800 246 788T226 755H166Z" />
<glyph unicode="&#xc4;" glyph-name="Adieresis" horiz-adv-x="728" d="M464 234H220L168 79L251 58V0H-13V58L69 79L303 730H426L658 79L738 58V0H433V58L515 79L464 234ZM245 307H440L347 598H343L245 307Z" />
<glyph unicode="&#xc5;" glyph-name="Aring" horiz-adv-x="728" d="M464 234H220L168 79L251 58V0H-13V58L69 79L303 730H426L658 79L738 58V0H433V58L515 79L464 234ZM245 307H440L347 598H343L245 307ZM275 824Q275 862 301 881T365 900Q403 900 429 881T456
824Q456 787 430 769T365 750Q328 750 302 768T275 824ZM335 824Q335 794 365 794Q397 794 397 824Q397 856 365 856Q335 856 335 824Z" />
<glyph unicode="&#xc6;" glyph-name="AE" horiz-adv-x="1072" d="M788 238L772 332H634V75H909L937 223H1025V0H410V58L504 79V234H277L192 79L263 58V0H-14V58L88 79L408 651L333 662V720H1003V508H921L892 647H634V407H772L788 502H869V238H788ZM497 642L318
307H504V641L497 642Z" />
<glyph unicode="&#xc7;" glyph-name="Ccedilla" horiz-adv-x="698" d="M344 -210Q291 -210 253 -182L284 -140Q313 -160 343 -160Q385 -160 385 -134Q385 -121 373 -114T340 -106Q329 -106 316 -107T294 -112L277 -83L334 -9Q215 0 144 70Q95 118 69 190T43 353Q43
454 76 535T169 667Q245 730 370 730Q401 730 425 727T471 715T510 692T548 657L568 720H653V484H562Q548 572 500 616T377 661Q339 661 305 645T249 599Q222 560 204 502T185 372Q185 300 200 239T242 135Q264 100 301 85T386 69Q554 69 583 238H668Q645 124 583
64T413 -7L386 -53L387 -56Q443 -56 465 -75T487 -126Q487 -146 476 -162T445 -188T399 -204T344 -210Z" />
<glyph unicode="&#xc8;" glyph-name="Egrave" horiz-adv-x="698" d="M414 238L397 332H260V75H535L563 223H651V0H36V58L130 79V641L36 662V720H629V508H547L518 647H260V407H397L414 502H495V238H414ZM440 760H357L310 788Q287 802 272 811T249 828T238 843T235
861Q235 876 246 888T282 900Q296 900 307 898T328 889T351 870T380 836L440 760Z" />
<glyph unicode="&#xc9;" glyph-name="Eacute" horiz-adv-x="698" d="M414 238L397 332H260V75H535L563 223H651V0H36V58L130 79V641L36 662V720H629V508H547L518 647H260V407H397L414 502H495V238H414ZM372 836Q388 857 400 869T423 888T445 897T470 900Q494 900
505 888T517 861Q517 851 514 844T503 829T480 812T442 788L395 760H312L372 836Z" />
<glyph unicode="&#xca;" glyph-name="Ecircumflex" horiz-adv-x="698" d="M414 238L397 332H260V75H535L563 223H651V0H36V58L130 79V641L36 662V720H629V508H547L518 647H260V407H397L414 502H495V238H414ZM535 769H452L354 830L256 769H173L291 890H416L535 769Z" />
<glyph unicode="&#xcb;" glyph-name="Edieresis" horiz-adv-x="698" d="M414 238L397 332H260V75H535L563 223H651V0H36V58L130 79V641L36 662V720H629V508H547L518 647H260V407H397L414 502H495V238H414Z" />
<glyph unicode="&#xcc;" glyph-name="Igrave" horiz-adv-x="390" d="M260 79L354 58V0H36V58L130 79V641L36 662V720H354V662L260 641V79ZM280 760H197L150 788Q127 802 112 811T89 828T78 843T75 861Q75 876 86 888T122 900Q136 900 147 898T168 889T191 870T220
836L280 760Z" />
<glyph unicode="&#xcd;" glyph-name="Iacute" horiz-adv-x="390" d="M260 79L354 58V0H36V58L130 79V641L36 662V720H354V662L260 641V79ZM213 836Q229 857 241 869T264 888T286 897T311 900Q335 900 346 888T358 861Q358 851 355 844T344 829T321 812T283 788L236
760H153L213 836Z" />
<glyph unicode="&#xce;" glyph-name="Icircumflex" horiz-adv-x="390" d="M260 79L354 58V0H36V58L130 79V641L36 662V720H354V662L260 641V79ZM376 769H293L195 830L97 769H14L132 890H257L376 769Z" />
<glyph unicode="&#xcf;" glyph-name="Idieresis" horiz-adv-x="390" d="M260 79L354 58V0H36V58L130 79V641L36 662V720H354V662L260 641V79Z" />
<glyph unicode="&#xd0;" glyph-name="Eth" horiz-adv-x="785" d="M47 404H131V641L47 662V720H413Q562 720 645 636Q692 588 717 518T742 368Q742 283 716 210T642 87Q600 42 542 21T404 0H47V58L131 79V322H47V404ZM386 75Q440 75 478 87T542 126Q597 199 597
354Q597 510 542 586Q490 645 376 645H261V404H388V322H261V75H386Z" />
<glyph unicode="&#xd1;" glyph-name="Ntilde" horiz-adv-x="817" d="M125 641L41 662V720H272L606 192V641L522 662V720H785V662L701 641V0H590L220 574V79L304 58V0H41V58L125 79V641ZM209 755Q211 828 246 864T336 900Q361 900 380 892T415 873T446 854T482
845Q512 845 527 858T547 895H607Q586 744 480 744Q455 744 437 752T402 771T369 791T334 800Q304 800 289 788T269 755H209Z" />
<glyph unicode="&#xd2;" glyph-name="Ograve" horiz-adv-x="774" d="M731 368Q731 284 707 208T631 77Q588 32 529 11T384 -10Q299 -10 240 11T139 74Q95 119 69 191T43 352Q43 440 69 516T143 643Q185 688 243 709T387 730Q468 730 528 711T634 646Q686 594 708
521T731 368ZM188 371Q188 293 202 233T242 135Q266 98 301 79T390 60Q484 60 532 126Q558 161 572 217T586 354Q586 433 572 491T531 587Q505 625 468 643T383 661Q335 661 301 644T244 595Q188 521 188 371ZM475 760H392L345 788Q322 802 307 811T284 828T273
843T270 861Q270 876 281 888T317 900Q331 900 342 898T363 889T386 870T415 836L475 760Z" />
<glyph unicode="&#xd3;" glyph-name="Oacute" horiz-adv-x="774" d="M731 368Q731 284 707 208T631 77Q588 32 529 11T384 -10Q299 -10 240 11T139 74Q95 119 69 191T43 352Q43 440 69 516T143 643Q185 688 243 709T387 730Q468 730 528 711T634 646Q686 594 708
521T731 368ZM188 371Q188 293 202 233T242 135Q266 98 301 79T390 60Q484 60 532 126Q558 161 572 217T586 354Q586 433 572 491T531 587Q505 625 468 643T383 661Q335 661 301 644T244 595Q188 521 188 371ZM405 836Q421 857 433 869T456 888T478 897T503 900Q527
900 538 888T550 861Q550 851 547 844T536 829T513 812T475 788L428 760H345L405 836Z" />
<glyph unicode="&#xd4;" glyph-name="Ocircumflex" horiz-adv-x="774" d="M731 368Q731 284 707 208T631 77Q588 32 529 11T384 -10Q299 -10 240 11T139 74Q95 119 69 191T43 352Q43 440 69 516T143 643Q185 688 243 709T387 730Q468 730 528 711T634 646Q686
594 708 521T731 368ZM188 371Q188 293 202 233T242 135Q266 98 301 79T390 60Q484 60 532 126Q558 161 572 217T586 354Q586 433 572 491T531 587Q505 625 468 643T383 661Q335 661 301 644T244 595Q188 521 188 371ZM568 769H485L387 830L289 769H206L324 890H449L568
769Z" />
<glyph unicode="&#xd5;" glyph-name="Otilde" horiz-adv-x="774" d="M731 368Q731 284 707 208T631 77Q588 32 529 11T384 -10Q299 -10 240 11T139 74Q95 119 69 191T43 352Q43 440 69 516T143 643Q185 688 243 709T387 730Q468 730 528 711T634 646Q686 594 708
521T731 368ZM188 371Q188 293 202 233T242 135Q266 98 301 79T390 60Q484 60 532 126Q558 161 572 217T586 354Q586 433 572 491T531 587Q505 625 468 643T383 661Q335 661 301 644T244 595Q188 521 188 371ZM188 755Q190 828 225 864T315 900Q340 900 359 892T394
873T425 854T461 845Q491 845 506 858T526 895H586Q565 744 459 744Q434 744 416 752T381 771T348 791T313 800Q283 800 268 788T248 755H188Z" />
<glyph unicode="&#xd6;" glyph-name="Odieresis" horiz-adv-x="774" d="M731 368Q731 284 707 208T631 77Q588 32 529 11T384 -10Q299 -10 240 11T139 74Q95 119 69 191T43 352Q43 440 69 516T143 643Q185 688 243 709T387 730Q468 730 528 711T634 646Q686 594
708 521T731 368ZM188 371Q188 293 202 233T242 135Q266 98 301 79T390 60Q484 60 532 126Q558 161 572 217T586 354Q586 433 572 491T531 587Q505 625 468 643T383 661Q335 661 301 644T244 595Q188 521 188 371Z" />
<glyph unicode="&#xd7;" glyph-name="multiply" horiz-adv-x="506" d="M49 218L184 352L49 486L119 556L253 421L387 556L457 486L322 352L457 218L387 148L253 283L119 148L49 218Z" />
<glyph unicode="&#xd8;" glyph-name="Oslash" horiz-adv-x="771" d="M729 368Q729 284 705 208T629 77Q586 32 527 11T382 -10Q263 -10 191 31L162 -10H61L128 84Q88 130 65 199T41 352Q41 440 67 516T141 643Q183 688 241 709T385 730Q491 730 562 695L587 730H688L630
648Q630 646 632 646Q684 594 706 521T729 368ZM584 354Q584 412 576 459T554 541L252 117Q275 88 308 74T388 60Q482 60 530 126Q556 161 570 217T584 354ZM186 371Q186 268 210 199L505 615Q456 661 381 661Q333 661 299 644T242 595Q186 521 186 371Z" />
<glyph unicode="&#xd9;" glyph-name="Ugrave" horiz-adv-x="784" d="M584 641L500 662V720H761V662L677 641V243Q677 118 603 54T384 -11Q250 -11 179 55T108 244V641L24 662V720H322V662L238 641V276Q238 59 406 59Q500 59 542 109T584 274V641ZM499 760H416L369
788Q346 802 331 811T308 828T297 843T294 861Q294 876 305 888T341 900Q355 900 366 898T387 889T410 870T439 836L499 760Z" />
<glyph unicode="&#xda;" glyph-name="Uacute" horiz-adv-x="784" d="M584 641L500 662V720H761V662L677 641V243Q677 118 603 54T384 -11Q250 -11 179 55T108 244V641L24 662V720H322V662L238 641V276Q238 59 406 59Q500 59 542 109T584 274V641ZM430 836Q446
857 458 869T481 888T503 897T528 900Q552 900 563 888T575 861Q575 851 572 844T561 829T538 812T500 788L453 760H370L430 836Z" />
<glyph unicode="&#xdb;" glyph-name="Ucircumflex" horiz-adv-x="784" d="M584 641L500 662V720H761V662L677 641V243Q677 118 603 54T384 -11Q250 -11 179 55T108 244V641L24 662V720H322V662L238 641V276Q238 59 406 59Q500 59 542 109T584 274V641ZM593 769H510L412
830L314 769H231L349 890H474L593 769Z" />
<glyph unicode="&#xdc;" glyph-name="Udieresis" horiz-adv-x="784" d="M584 641L500 662V720H761V662L677 641V243Q677 118 603 54T384 -11Q250 -11 179 55T108 244V641L24 662V720H322V662L238 641V276Q238 59 406 59Q500 59 542 109T584 274V641Z" />
<glyph unicode="&#xdd;" glyph-name="Yacute" horiz-adv-x="682" d="M512 641L431 662V720H688V662L606 641L410 282V79L504 58V0H186V58L280 79V266L73 641L-10 662V720H296V662L212 641L360 363L512 641ZM379 836Q395 857 407 869T430 888T452 897T477 900Q501
900 512 888T524 861Q524 851 521 844T510 829T487 812T449 788L402 760H319L379 836Z" />
<glyph unicode="&#xde;" glyph-name="Thorn" horiz-adv-x="656" d="M258 148V79L353 58V0H44V58L128 79V641L33 662V720H342V662L258 641V575H410Q457 575 495 563T560 527Q594 496 612 455T631 366Q631 318 612 273T558 197Q532 174 493 161T409 148H258ZM357
221Q385 221 409 229T448 252Q468 270 479 298T491 360Q491 425 448 466Q431 483 407 492T353 502H258V221H357Z" />
<glyph unicode="&#xdf;" glyph-name="germandbls" horiz-adv-x="647" d="M377 424Q377 412 381 404T395 386T424 367T473 341Q520 317 550 296T598 253T622 207T629 153Q629 114 614 84T571 33T507 1T425 -10Q387 -10 356 -1T302 25T267 65T255 116Q255 131 259
146T273 174T296 193T330 201Q365 201 381 183T398 146Q398 123 389 108T362 85Q368 70 389 61T428 51Q444 51 459 56T486 72T505 96T512 129Q512 146 508 159T492 185T458 213T400 250Q359 274 333 292T291 328T271 362T265 401Q265 419 268 433T282 461T310 490T357
527Q390 552 404 577T418 639Q418 685 394 710T325 735Q279 735 251 696T223 575V0H19V56L96 75V550Q96 606 111 650T156 726T226 773T321 790Q419 790 476 749T533 638Q533 598 516 566T456 508Q434 494 419 484T395 464T381 445T377 424Z" />
<glyph unicode="&#xe0;" glyph-name="agrave" horiz-adv-x="549" d="M30 118Q30 159 48 190T105 246T203 287T345 317Q340 367 334 393T316 440Q302 463 284 477T236 491Q215 491 198 483T174 461Q188 453 193 439T199 413Q199 388 177 369T124 349Q92 349 75
369T57 421Q57 452 74 476T119 516T181 541T251 550Q298 550 335 537T396 503Q475 433 475 281V151Q475 101 481 83T510 64H555V19Q463 -10 416 -10Q399 -10 389 -5T372 12T364 45T361 99H357Q326 48 275 19T165 -10Q102 -10 66 24T30 118ZM226 63Q247 63 272 76T317
116Q328 130 338 156T348 218Q348 230 347 244T344 273Q292 262 258 250T202 222T172 188T163 143Q163 99 183 81T226 63ZM326 639H243L205 667Q157 702 139 720T121 754Q121 771 133 783T177 796Q191 796 203 792T226 779T249 755T277 715L326 639Z" />
<glyph unicode="&#xe1;" glyph-name="aacute" horiz-adv-x="549" d="M30 118Q30 159 48 190T105 246T203 287T345 317Q340 367 334 393T316 440Q302 463 284 477T236 491Q215 491 198 483T174 461Q188 453 193 439T199 413Q199 388 177 369T124 349Q92 349 75
369T57 421Q57 452 74 476T119 516T181 541T251 550Q298 550 335 537T396 503Q475 433 475 281V151Q475 101 481 83T510 64H555V19Q463 -10 416 -10Q399 -10 389 -5T372 12T364 45T361 99H357Q326 48 275 19T165 -10Q102 -10 66 24T30 118ZM226 63Q247 63 272 76T317
116Q328 130 338 156T348 218Q348 230 347 244T344 273Q292 262 258 250T202 222T172 188T163 143Q163 99 183 81T226 63ZM258 715Q273 739 285 754T309 779T332 792T358 796Q390 796 402 784T414 754Q414 739 396 721T330 667L292 639H209L258 715Z" />
<glyph unicode="&#xe2;" glyph-name="acircumflex" horiz-adv-x="549" d="M30 118Q30 159 48 190T105 246T203 287T345 317Q340 367 334 393T316 440Q302 463 284 477T236 491Q215 491 198 483T174 461Q188 453 193 439T199 413Q199 388 177 369T124 349Q92 349
75 369T57 421Q57 452 74 476T119 516T181 541T251 550Q298 550 335 537T396 503Q475 433 475 281V151Q475 101 481 83T510 64H555V19Q463 -10 416 -10Q399 -10 389 -5T372 12T364 45T361 99H357Q326 48 275 19T165 -10Q102 -10 66 24T30 118ZM226 63Q247 63 272
76T317 116Q328 130 338 156T348 218Q348 230 347 244T344 273Q292 262 258 250T202 222T172 188T163 143Q163 99 183 81T226 63ZM412 639H329L261 715L193 639H110L198 790H323L412 639Z" />
<glyph unicode="&#xe3;" glyph-name="atilde" horiz-adv-x="549" d="M30 118Q30 159 48 190T105 246T203 287T345 317Q340 367 334 393T316 440Q302 463 284 477T236 491Q215 491 198 483T174 461Q188 453 193 439T199 413Q199 388 177 369T124 349Q92 349 75
369T57 421Q57 452 74 476T119 516T181 541T251 550Q298 550 335 537T396 503Q475 433 475 281V151Q475 101 481 83T510 64H555V19Q463 -10 416 -10Q399 -10 389 -5T372 12T364 45T361 99H357Q326 48 275 19T165 -10Q102 -10 66 24T30 118ZM226 63Q247 63 272 76T317
116Q328 130 338 156T348 218Q348 230 347 244T344 273Q292 262 258 250T202 222T172 188T163 143Q163 99 183 81T226 63ZM52 624Q54 697 89 733T179 769Q204 769 223 761T258 742T289 723T325 714Q355 714 370 727T390 764H450Q429 613 323 613Q298 613 280 621T245
640T212 660T177 669Q147 669 132 657T112 624H52Z" />
<glyph unicode="&#xe4;" glyph-name="adieresis" horiz-adv-x="549" d="M30 118Q30 159 48 190T105 246T203 287T345 317Q340 367 334 393T316 440Q302 463 284 477T236 491Q215 491 198 483T174 461Q188 453 193 439T199 413Q199 388 177 369T124 349Q92 349
75 369T57 421Q57 452 74 476T119 516T181 541T251 550Q298 550 335 537T396 503Q475 433 475 281V151Q475 101 481 83T510 64H555V19Q463 -10 416 -10Q399 -10 389 -5T372 12T364 45T361 99H357Q326 48 275 19T165 -10Q102 -10 66 24T30 118ZM226 63Q247 63 272
76T317 116Q328 130 338 156T348 218Q348 230 347 244T344 273Q292 262 258 250T202 222T172 188T163 143Q163 99 183 81T226 63ZM83 690Q83 725 102 744T156 764Q190 764 210 744T230 690Q230 656 211 637T156 617Q122 617 103 636T83 690ZM313 690Q313 725 332
744T386 764Q420 764 440 744T460 690Q460 656 441 637T386 617Q352 617 333 636T313 690Z" />
<glyph unicode="&#xe5;" glyph-name="aring" horiz-adv-x="549" d="M30 118Q30 159 48 190T105 246T203 287T345 317Q340 367 334 393T316 440Q302 463 284 477T236 491Q215 491 198 483T174 461Q188 453 193 439T199 413Q199 388 177 369T124 349Q92 349 75 369T57
421Q57 452 74 476T119 516T181 541T251 550Q298 550 335 537T396 503Q475 433 475 281V151Q475 101 481 83T510 64H555V19Q463 -10 416 -10Q399 -10 389 -5T372 12T364 45T361 99H357Q326 48 275 19T165 -10Q102 -10 66 24T30 118ZM226 63Q247 63 272 76T317 116Q328
130 338 156T348 218Q348 230 347 244T344 273Q292 262 258 250T202 222T172 188T163 143Q163 99 183 81T226 63ZM173 713Q173 756 201 785T272 814Q315 814 344 785T373 713Q373 670 344 642T272 614Q229 614 201 642T173 713ZM244 713Q244 701 252 693T272 685Q285
685 293 693T302 713Q302 726 294 734T272 743Q260 743 252 735T244 713Z" />
<glyph unicode="&#xe6;" glyph-name="ae" horiz-adv-x="850" d="M31 117Q31 156 48 187T104 243T202 286T346 317Q341 369 334 395T317 440Q287 491 230 491Q213 491 196 481T173 454Q186 444 193 430T200 401Q200 377 182 361T130 344Q97 344 78 363T58 420Q58
451 75 475T120 516T182 541T251 550Q311 550 355 525T413 447H418Q438 498 481 524T582 550Q699 550 757 487T815 311Q815 301 815 289T812 256H463Q463 218 468 192T483 143Q498 105 527 89T590 72Q638 72 676 91T746 145L806 102Q786 78 764 58T713 22T650 -1T570
-10Q438 -10 380 99H373Q342 48 293 19T166 -10Q103 -10 67 23T31 117ZM566 481Q519 481 494 443T464 320H684V346Q684 411 654 446T566 481ZM238 63Q258 63 280 78T320 118Q333 136 341 159T349 215Q349 232 348 244T345 272Q293 260 258 248T202 221T173 186T164
138Q164 102 183 83T238 63Z" />
<glyph unicode="&#xe7;" glyph-name="ccedilla" horiz-adv-x="546" d="M252 -210Q199 -210 161 -182L192 -140Q221 -160 251 -160Q293 -160 293 -134Q293 -121 281 -114T248 -106Q237 -106 224 -107T202 -112L185 -83L242 -8Q125 4 73 102Q56 134 47 175T37 265Q37
330 55 382T106 472T189 530T300 550Q346 550 385 539T452 508T497 458T513 394Q513 349 489 326T430 302Q410 302 397 308T376 325T364 349T360 375Q360 400 372 418T410 444Q396 462 368 473T305 484Q273 484 249 473T207 438T181 373T172 273Q172 219 179 188T198
134Q214 105 239 89T303 72Q323 72 345 77T389 91T430 116T465 152L519 110Q479 55 429 27T321 -7L294 -53L295 -56Q351 -56 373 -75T395 -126Q395 -146 384 -162T353 -188T307 -204T252 -210Z" />
<glyph unicode="&#xe8;" glyph-name="egrave" horiz-adv-x="556" d="M169 256Q169 188 189 143Q221 72 299 72Q344 72 387 91T461 152L515 110Q480 60 421 25T274 -10Q200 -10 148 19T67 106Q52 137 45 174T38 257Q38 397 102 473T285 550Q339 550 383 534T457
487T504 412T521 311Q521 300 521 290T518 256H169ZM283 481Q180 481 170 320H390V346Q390 411 362 446T283 481ZM346 639H263L225 667Q177 702 159 720T141 754Q141 771 153 783T197 796Q211 796 223 792T246 779T269 755T297 715L346 639Z" />
<glyph unicode="&#xe9;" glyph-name="eacute" horiz-adv-x="556" d="M169 256Q169 188 189 143Q221 72 299 72Q344 72 387 91T461 152L515 110Q480 60 421 25T274 -10Q200 -10 148 19T67 106Q52 137 45 174T38 257Q38 397 102 473T285 550Q339 550 383 534T457
487T504 412T521 311Q521 300 521 290T518 256H169ZM283 481Q180 481 170 320H390V346Q390 411 362 446T283 481ZM283 715Q298 739 310 754T334 779T357 792T383 796Q415 796 427 784T439 754Q439 739 421 721T355 667L317 639H234L283 715Z" />
<glyph unicode="&#xea;" glyph-name="ecircumflex" horiz-adv-x="556" d="M169 256Q169 188 189 143Q221 72 299 72Q344 72 387 91T461 152L515 110Q480 60 421 25T274 -10Q200 -10 148 19T67 106Q52 137 45 174T38 257Q38 397 102 473T285 550Q339 550 383 534T457
487T504 412T521 311Q521 300 521 290T518 256H169ZM283 481Q180 481 170 320H390V346Q390 411 362 446T283 481ZM436 639H353L285 715L217 639H134L222 790H347L436 639Z" />
<glyph unicode="&#xeb;" glyph-name="edieresis" horiz-adv-x="556" d="M169 256Q169 188 189 143Q221 72 299 72Q344 72 387 91T461 152L515 110Q480 60 421 25T274 -10Q200 -10 148 19T67 106Q52 137 45 174T38 257Q38 397 102 473T285 550Q339 550 383 534T457
487T504 412T521 311Q521 300 521 290T518 256H169ZM283 481Q180 481 170 320H390V346Q390 411 362 446T283 481ZM90 690Q90 725 109 744T163 764Q197 764 217 744T237 690Q237 656 218 637T163 617Q129 617 110 636T90 690ZM320 690Q320 725 339 744T393 764Q427
764 447 744T467 690Q467 656 448 637T393 617Q359 617 340 636T320 690Z" />
<glyph unicode="&#xec;" glyph-name="igrave" horiz-adv-x="331" d="M31 484V540H235V75L312 56V0H31V56L108 75V465L31 484ZM214 639H131L93 667Q45 702 27 720T9 754Q9 771 21 783T65 796Q79 796 91 792T114 779T137 755T165 715L214 639Z" />
<glyph unicode="&#xed;" glyph-name="iacute" horiz-adv-x="331" d="M31 484V540H235V75L312 56V0H31V56L108 75V465L31 484ZM178 715Q193 739 205 754T229 779T252 792T278 796Q310 796 322 784T334 754Q334 739 316 721T250 667L212 639H129L178 715Z" />
<glyph unicode="&#xee;" glyph-name="icircumflex" horiz-adv-x="331" d="M31 484V540H235V75L312 56V0H31V56L108 75V465L31 484ZM322 639H239L171 715L103 639H20L108 790H233L322 639Z" />
<glyph unicode="&#xef;" glyph-name="idieresis" horiz-adv-x="331" d="M31 484V540H235V75L312 56V0H31V56L108 75V465L31 484ZM-17 690Q-17 725 2 744T56 764Q90 764 110 744T130 690Q130 656 111 637T56 617Q22 617 3 636T-17 690ZM213 690Q213 725 232 744T286
764Q320 764 340 744T360 690Q360 656 341 637T286 617Q252 617 233 636T213 690Z" />
<glyph unicode="&#xf0;" glyph-name="eth" horiz-adv-x="582" d="M161 210Q161 135 192 98T275 60Q339 60 368 97T397 210Q397 284 368 321T275 358Q224 358 193 321T161 210ZM418 351Q414 420 389 482T324 593L191 535L162 599L279 651Q265 668 253 681T222 711L300
739Q306 734 311 730T322 721T336 708T358 687L447 726L479 663L407 631Q477 545 510 465T543 294Q543 147 470 69T260 -10Q206 -10 162 5T88 50T41 119T24 211Q24 260 39 300T83 369T150 414T237 430Q292 430 339 409T414 351H418Z" />
<glyph unicode="&#xf1;" glyph-name="ntilde" horiz-adv-x="674" d="M108 465L31 484V540H205L227 440H231Q261 491 311 520T421 550Q461 550 493 536T544 496Q564 468 572 418T581 281V75L658 56V0H387V56L454 75V268Q454 328 451 361T438 415Q427 441 408 451T363
461Q314 461 280 429Q239 391 235 312V75L302 56V0H31V56L108 75V465ZM158 624Q160 697 195 733T285 769Q310 769 329 761T364 742T395 723T431 714Q461 714 476 727T496 764H556Q535 613 429 613Q404 613 386 621T351 640T318 660T283 669Q253 669 238 657T218
624H158Z" />
<glyph unicode="&#xf2;" glyph-name="ograve" horiz-adv-x="594" d="M557 270Q557 206 539 150T485 55Q452 20 406 5T297 -10Q234 -10 188 5T109 55Q74 93 56 149T37 270Q37 334 55 390T109 485Q142 520 188 535T297 550Q360 550 406 535T485 485Q520 447 538
391T557 270ZM206 97Q233 57 297 57Q361 57 388 97Q420 146 420 270Q420 394 388 443Q361 483 297 483Q233 483 206 443Q174 394 174 270Q174 146 206 97ZM340 639H257L219 667Q171 702 153 720T135 754Q135 771 147 783T191 796Q205 796 217 792T240 779T263 755T291
715L340 639Z" />
<glyph unicode="&#xf3;" glyph-name="oacute" horiz-adv-x="594" d="M557 270Q557 206 539 150T485 55Q452 20 406 5T297 -10Q234 -10 188 5T109 55Q74 93 56 149T37 270Q37 334 55 390T109 485Q142 520 188 535T297 550Q360 550 406 535T485 485Q520 447 538
391T557 270ZM206 97Q233 57 297 57Q361 57 388 97Q420 146 420 270Q420 394 388 443Q361 483 297 483Q233 483 206 443Q174 394 174 270Q174 146 206 97ZM304 715Q319 739 331 754T355 779T378 792T404 796Q436 796 448 784T460 754Q460 739 442 721T376 667L338
639H255L304 715Z" />
<glyph unicode="&#xf4;" glyph-name="ocircumflex" horiz-adv-x="594" d="M557 270Q557 206 539 150T485 55Q452 20 406 5T297 -10Q234 -10 188 5T109 55Q74 93 56 149T37 270Q37 334 55 390T109 485Q142 520 188 535T297 550Q360 550 406 535T485 485Q520 447
538 391T557 270ZM206 97Q233 57 297 57Q361 57 388 97Q420 146 420 270Q420 394 388 443Q361 483 297 483Q233 483 206 443Q174 394 174 270Q174 146 206 97ZM448 639H365L297 715L229 639H146L234 790H359L448 639Z" />
<glyph unicode="&#xf5;" glyph-name="otilde" horiz-adv-x="594" d="M557 270Q557 206 539 150T485 55Q452 20 406 5T297 -10Q234 -10 188 5T109 55Q74 93 56 149T37 270Q37 334 55 390T109 485Q142 520 188 535T297 550Q360 550 406 535T485 485Q520 447 538
391T557 270ZM206 97Q233 57 297 57Q361 57 388 97Q420 146 420 270Q420 394 388 443Q361 483 297 483Q233 483 206 443Q174 394 174 270Q174 146 206 97ZM98 624Q100 697 135 733T225 769Q250 769 269 761T304 742T335 723T371 714Q401 714 416 727T436 764H496Q475
613 369 613Q344 613 326 621T291 640T258 660T223 669Q193 669 178 657T158 624H98Z" />
<glyph unicode="&#xf6;" glyph-name="odieresis" horiz-adv-x="594" d="M557 270Q557 206 539 150T485 55Q452 20 406 5T297 -10Q234 -10 188 5T109 55Q74 93 56 149T37 270Q37 334 55 390T109 485Q142 520 188 535T297 550Q360 550 406 535T485 485Q520 447 538
391T557 270ZM206 97Q233 57 297 57Q361 57 388 97Q420 146 420 270Q420 394 388 443Q361 483 297 483Q233 483 206 443Q174 394 174 270Q174 146 206 97ZM109 690Q109 725 128 744T182 764Q216 764 236 744T256 690Q256 656 237 637T182 617Q148 617 129 636T109
690ZM339 690Q339 725 358 744T412 764Q446 764 466 744T486 690Q486 656 467 637T412 617Q378 617 359 636T339 690Z" />
<glyph unicode="&#xf7;" glyph-name="divide" horiz-adv-x="515" d="M39 387H477V318H39V387ZM187 174Q187 209 206 229T261 250Q296 250 316 230T336 174Q336 139 316 120T261 100Q187 100 187 174ZM187 528Q187 563 206 583T261 604Q296 604 316 584T336 528Q336
493 316 474T261 454Q187 454 187 528Z" />
<glyph unicode="&#xf8;" glyph-name="oslash" horiz-adv-x="594" d="M557 270Q557 206 539 150T485 55Q452 20 406 5T297 -10Q250 -10 211 -1L181 -60H87L135 32Q120 42 109 55Q74 93 56 149T37 270Q37 334 55 390T109 485Q142 520 188 535T297 550Q355 550 398
537L421 582H515L471 498L485 485Q520 447 538 391T557 270ZM174 270Q174 227 177 194T188 135L361 468Q335 483 297 483Q233 483 206 443Q174 394 174 270ZM420 270Q420 337 411 382L246 65Q265 57 297 57Q361 57 388 97Q420 146 420 270Z" />
<glyph unicode="&#xf9;" glyph-name="ugrave" horiz-adv-x="652" d="M218 272Q218 240 218 217T220 176T224 146T230 125Q238 101 256 89T294 76Q321 76 343 86T384 113Q406 133 416 159T429 228V465L342 484V540H556V75L633 56V0L448 -10L437 100H433Q404 49
354 20T247 -10Q209 -10 178 4T128 44Q108 72 100 122T91 259V465L24 484V540H218V272ZM364 639H281L243 667Q195 702 177 720T159 754Q159 771 171 783T215 796Q229 796 241 792T264 779T287 755T315 715L364 639Z" />
<glyph unicode="&#xfa;" glyph-name="uacute" horiz-adv-x="652" d="M218 272Q218 240 218 217T220 176T224 146T230 125Q238 101 256 89T294 76Q321 76 343 86T384 113Q406 133 416 159T429 228V465L342 484V540H556V75L633 56V0L448 -10L437 100H433Q404 49
354 20T247 -10Q209 -10 178 4T128 44Q108 72 100 122T91 259V465L24 484V540H218V272ZM328 715Q343 739 355 754T379 779T402 792T428 796Q460 796 472 784T484 754Q484 739 466 721T400 667L362 639H279L328 715Z" />
<glyph unicode="&#xfb;" glyph-name="ucircumflex" horiz-adv-x="652" d="M218 272Q218 240 218 217T220 176T224 146T230 125Q238 101 256 89T294 76Q321 76 343 86T384 113Q406 133 416 159T429 228V465L342 484V540H556V75L633 56V0L448 -10L437 100H433Q404
49 354 20T247 -10Q209 -10 178 4T128 44Q108 72 100 122T91 259V465L24 484V540H218V272ZM472 639H389L321 715L253 639H170L258 790H383L472 639Z" />
<glyph unicode="&#xfc;" glyph-name="udieresis" horiz-adv-x="652" d="M218 272Q218 240 218 217T220 176T224 146T230 125Q238 101 256 89T294 76Q321 76 343 86T384 113Q406 133 416 159T429 228V465L342 484V540H556V75L633 56V0L448 -10L437 100H433Q404
49 354 20T247 -10Q209 -10 178 4T128 44Q108 72 100 122T91 259V465L24 484V540H218V272ZM133 690Q133 725 152 744T206 764Q240 764 260 744T280 690Q280 656 261 637T206 617Q172 617 153 636T133 690ZM363 690Q363 725 382 744T436 764Q470 764 490 744T510
690Q510 656 491 637T436 617Q402 617 383 636T363 690Z" />
<glyph unicode="&#xfd;" glyph-name="yacute" horiz-adv-x="600" d="M368 24Q343 -34 323 -75T280 -141T230 -178T164 -190Q140 -190 120 -184T84 -165T59 -137T50 -102Q50 -67 70 -45T124 -22Q153 -22 168 -35T184 -74Q184 -79 182 -86T174 -101T159 -114T138
-119Q140 -129 149 -132T167 -136Q177 -136 186 -134T205 -122T225 -94T248 -44L260 -7L59 465L-1 484V540H253L261 484L190 465L313 118H317L428 465L370 484V540H590V484L529 465L368 24ZM297 715Q312 739 324 754T348 779T371 792T397 796Q429 796 441 784T453
754Q453 739 435 721T369 667L331 639H248L297 715Z" />
<glyph unicode="&#xfe;" glyph-name="thorn" horiz-adv-x="614" d="M576 275Q576 206 557 155T505 65Q449 0 344 0Q296 0 262 18T202 75V-105L299 -124V-180H-2V-124L75 -105V705L-2 724V780H202V482Q230 517 265 533T352 550Q461 550 512 487Q543 449 559 397T576
275ZM202 274Q202 220 210 184T237 120Q254 91 276 79T322 67Q351 67 372 79T408 114Q422 136 431 175T441 267Q441 322 432 362T407 430Q392 457 370 470T321 483Q263 483 237 437Q202 382 202 274Z" />
<glyph unicode="&#xff;" glyph-name="ydieresis" horiz-adv-x="600" d="M368 24Q343 -34 323 -75T280 -141T230 -178T164 -190Q140 -190 120 -184T84 -165T59 -137T50 -102Q50 -67 70 -45T124 -22Q153 -22 168 -35T184 -74Q184 -79 182 -86T174 -101T159 -114T138
-119Q140 -129 149 -132T167 -136Q177 -136 186 -134T205 -122T225 -94T248 -44L260 -7L59 465L-1 484V540H253L261 484L190 465L313 118H317L428 465L370 484V540H590V484L529 465L368 24ZM130 690Q130 725 149 744T203 764Q237 764 257 744T277 690Q277 656 258
637T203 617Q169 617 150 636T130 690ZM360 690Q360 725 379 744T433 764Q467 764 487 744T507 690Q507 656 488 637T433 617Q399 617 380 636T360 690Z" />
<glyph unicode="&#x2013;" glyph-name="endash" horiz-adv-x="616" d="M61 322H555V234H61V322Z" />
<glyph unicode="&#x2014;" glyph-name="emdash" horiz-adv-x="924" d="M61 322H862V234H61V322Z" />
<glyph unicode="&#x2018;" glyph-name="quoteleft" horiz-adv-x="249" d="M121 469Q83 469 60 495T37 567Q37 621 71 670T178 760L209 724Q173 694 148 668T120 620L124 617Q131 623 146 623Q169 623 185 603T201 549Q201 514 179 492T121 469Z" />
<glyph unicode="&#x2019;" glyph-name="quoteright" horiz-adv-x="250" d="M133 760Q171 760 194 734T217 662Q217 608 183 559T76 469L45 505Q81 535 106 561T134 609L130 612Q122 606 108 606Q85 606 69 626T53 680Q53 715 75 737T133 760Z" />
<glyph unicode="&#x201a;" glyph-name="quotesinglbase" horiz-adv-x="254" d="M125 133Q163 133 186 107T209 35Q209 -19 175 -68T68 -158L37 -122Q73 -92 98 -66T126 -18L122 -15Q114 -21 100 -21Q77 -21 61 -1T45 53Q45 88 67 110T125 133Z" />
<glyph unicode="&#x201c;" glyph-name="quotedblleft" horiz-adv-x="449" d="M121 469Q83 469 60 495T37 567Q37 621 71 670T178 760L209 724Q173 694 148 668T120 620L124 617Q131 623 146 623Q169 623 185 603T201 549Q201 514 179 492T121 469ZM321 469Q283
469 260 495T237 567Q237 621 271 670T378 760L409 724Q373 694 348 668T320 620L324 617Q331 623 346 623Q369 623 385 603T401 549Q401 514 379 492T321 469Z" />
<glyph unicode="&#x201d;" glyph-name="quotedblright" horiz-adv-x="449" d="M133 760Q171 760 194 734T217 662Q217 608 183 559T76 469L45 505Q81 535 106 561T134 609L130 612Q122 606 108 606Q85 606 69 626T53 680Q53 715 75 737T133 760ZM333 760Q371 760
394 734T417 662Q417 608 383 559T276 469L245 505Q281 535 306 561T334 609L330 612Q322 606 308 606Q285 606 269 626T253 680Q253 715 275 737T333 760Z" />
<glyph unicode="&#x201e;" glyph-name="quotedblbase" horiz-adv-x="454" d="M125 120Q163 120 186 94T209 22Q209 -32 175 -81T68 -171L37 -135Q73 -105 98 -79T126 -31L122 -28Q114 -34 100 -34Q77 -34 61 -14T45 40Q45 75 67 97T125 120ZM325 120Q363 120 386
94T409 22Q409 -32 375 -81T268 -171L237 -135Q273 -105 298 -79T326 -31L322 -28Q314 -34 300 -34Q277 -34 261 -14T245 40Q245 75 267 97T325 120Z" />
<glyph unicode="&#x2022;" glyph-name="bullet" horiz-adv-x="406" d="M70 343Q70 406 105 442T203 479Q265 479 301 442T337 343Q337 281 301 246T203 211Q139 211 105 245T70 343Z" />
<glyph unicode="&#x2039;" glyph-name="guilsinglleft" horiz-adv-x="338" d="M295 54L248 7L32 230V277L246 494L294 458L162 255L295 54Z" />
<glyph unicode="&#x203a;" glyph-name="guilsinglright" horiz-adv-x="338" d="M176 255L44 458L92 494L306 277V230L90 7L43 54L176 255Z" />
</font>
</defs>
</svg>
