<?xml version="1.0" standalone="no"?>
<!DOCTYPE svg PUBLIC "-//W3C//DTD SVG 1.1//EN" "http://www.w3.org/Graphics/SVG/1.1/DTD/svg11.dtd">
<svg xmlns="http://www.w3.org/2000/svg">
<defs >
<font id="Overlock" horiz-adv-x="391" ><font-face
    font-family="Overlock"
    units-per-em="1000"
    panose-1="2 0 8 6 4 0 0 9 0 2"
    ascent="966"
    descent="-254"
    alphabetic="0" />
<glyph unicode=" " glyph-name="space" horiz-adv-x="190" />
<glyph unicode="!" glyph-name="exclam" horiz-adv-x="262" d="M107 -10Q82 -10 65 7T47 54Q47 89 71 116T127 143Q152 143 168 125T185 78Q185 42 163 16T107 -10ZM247 640Q247 613 230 550Q216 500 198 402T180 262Q180 238 184 219Q151 205 130 205Q80 205
80 246Q80 253 93 350Q124 574 124 644Q124 658 123 671Q164 684 190 684Q247 684 247 640Z" />
<glyph unicode="&quot;" glyph-name="quotedbl" horiz-adv-x="399" d="M310 706Q316 735 362 735Q386 735 403 724T420 689Q420 676 402 615T369 514Q354 475 322 475Q307 475 277 490Q291 525 300 612T310 706ZM113 706Q119 735 165 735Q189 735 206 724T223
689Q223 676 205 615T172 514Q157 475 125 475Q110 475 80 490Q94 525 103 612T113 706Z" />
<glyph unicode="#" glyph-name="numbersign" horiz-adv-x="574" d="M446 459Q567 464 576 465Q577 457 577 452Q577 422 563 403T516 383Q478 383 423 388Q413 358 390 271Q464 274 523 279Q524 271 524 266Q524 236 510 217T463 197Q425 197 370 202Q353 139
348 104Q344 71 342 39Q320 28 303 28Q272 28 272 58Q272 71 310 205H192Q172 130 168 104Q164 71 162 39Q140 28 123 28Q92 28 92 58Q92 69 130 203Q66 199 4 182Q0 198 0 213Q0 244 21 258T87 272H152Q164 320 184 388Q120 384 58 367Q54 383 54 398Q54 429 75
443T141 457H202Q205 471 214 507T230 573T240 619Q255 623 271 623Q306 623 306 594Q306 584 266 457H381Q384 471 393 507T409 573T419 619Q434 623 450 623Q485 623 485 594Q485 583 446 459ZM210 270H331L364 391H246Q214 288 210 270Z" />
<glyph unicode="$" glyph-name="dollar" horiz-adv-x="574" d="M204 -10Q137 -8 89 19T40 84Q40 128 108 159Q118 127 148 104T214 75L243 286Q181 307 146 341T110 445Q110 532 158 590T298 665Q300 688 302 736Q317 739 325 739Q356 739 356 717Q356 714 351
673Q406 671 452 647T499 583Q499 524 417 508Q411 542 390 566T343 597L315 396Q344 386 357 380T394 361T429 333T450 294T460 240Q460 143 408 74T259 -7Q253 -69 253 -76L233 -78Q197 -78 197 -56Q197 -53 204 -10ZM296 268L269 69Q313 74 338 108T363 190Q363
220 346 237T296 268ZM262 415L288 594Q251 587 229 556T206 483Q206 438 262 415Z" />
<glyph unicode="%" glyph-name="percent" horiz-adv-x="776" d="M231 604Q199 604 179 565T158 478Q158 441 168 415T200 389Q231 389 251 429T271 519Q271 555 261 579T231 604ZM577 268Q545 268 525 229T504 142Q504 105 514 79T546 53Q577 53 597 93T617 182Q617
218 607 243T577 268ZM180 -31Q155 -31 136 -21T117 6Q117 17 136 45T248 199Q368 362 464 493Q529 583 602 693Q627 693 646 683T665 656Q665 651 662 644T650 624T633 600T605 562T569 513L320 171Q253 80 180 -31ZM540 -10Q480 -10 446 26T412 126Q412 212 459
270T583 329Q643 329 676 293T710 194Q710 108 663 49T540 -10ZM194 326Q134 326 100 363T66 463Q66 549 113 607T237 666Q297 666 330 630T364 530Q364 444 317 385T194 326Z" />
<glyph unicode="&amp;" glyph-name="ampersand" horiz-adv-x="717" d="M472 388Q499 388 552 373T624 358Q665 358 665 402Q665 425 652 445Q666 475 709 475Q729 475 738 463T748 435Q748 388 710 336T621 283Q604 283 581 288Q573 208 544 149T470 55T374 5T263
-11Q160 -11 99 45T37 179Q37 238 77 291T196 375Q106 415 106 492Q106 566 169 620T324 675Q384 675 427 649T470 590Q470 566 449 551T391 531Q369 600 311 600Q270 600 243 574T216 504Q216 476 240 451T305 426Q317 426 324 427Q326 409 326 404Q326 395 325
389T321 377T316 370T309 365T301 361T292 358T283 356Q224 341 188 296T152 199Q152 144 188 104T289 64Q377 64 433 122T489 311Q475 314 463 314Q445 314 435 302T425 270Q425 243 439 227Q424 196 384 196Q363 196 354 208T344 236Q344 285 381 336T472 388Z"
/>
<glyph unicode="&apos;" glyph-name="quotesingle" horiz-adv-x="202" d="M113 706Q119 735 165 735Q189 735 206 724T223 689Q223 676 205 615T172 514Q157 475 125 475Q110 475 80 490Q94 525 103 612T113 706Z" />
<glyph unicode="(" glyph-name="parenleft" horiz-adv-x="353" d="M258 -166L257 -174Q235 -199 210 -199Q192 -199 169 -170T126 -94T92 22T78 162Q78 261 109 368T184 552T270 679T338 730Q367 730 384 701Q292 607 236 455T180 150Q180 -58 258 -166Z" />
<glyph unicode=")" glyph-name="parenright" horiz-adv-x="353" d="M93 697L94 705Q115 730 141 730Q159 730 182 700T225 623T260 506T274 367Q274 263 242 155T165 -28T78 -151T14 -199Q-14 -199 -31 -170Q61 -74 117 77T173 378Q173 474 152 560T93 697Z" />
<glyph unicode="*" glyph-name="asterisk" horiz-adv-x="468" d="M322 623Q394 671 414 686Q449 653 449 625Q449 600 422 586T324 548Q358 508 412 456Q379 409 338 409Q319 409 305 421T282 448T258 499Q217 448 179 392Q153 402 133 418T113 451Q113 459 120
469T144 494T172 519T209 550Q181 563 94 594Q102 620 121 641T165 663Q191 663 239 627Q241 657 241 679Q241 690 239 730Q263 742 287 742Q343 742 343 704Q343 686 322 623Z" />
<glyph unicode="+" glyph-name="plus" horiz-adv-x="574" d="M280 486Q305 486 321 474T338 443Q338 422 335 365T331 289Q435 289 511 299Q517 282 517 260Q517 240 503 226T465 211Q446 211 395 214T330 218Q330 116 339 28Q310 22 292 22Q269 22 252 33T234
66Q234 90 237 139T241 219Q148 218 60 210Q56 230 56 248Q56 267 68 282T108 297Q130 297 171 294T242 290Q242 401 233 479Q254 486 280 486Z" />
<glyph unicode="," glyph-name="comma" horiz-adv-x="215" d="M98 120Q123 120 140 102T158 45Q158 -18 113 -86T7 -154Q-16 -154 -16 -127Q-16 -112 -12 -101H-8Q21 -101 44 -76T68 -23Q68 17 30 25Q25 40 25 51Q25 80 45 99T98 120Z" />
<glyph unicode="-" glyph-name="hyphen" horiz-adv-x="251" d="M243 309Q246 297 246 286Q246 259 232 241T190 223Q179 223 156 225T117 228Q75 228 26 217Q25 223 25 236Q25 303 81 303Q88 303 114 301T159 299Q204 299 243 309Z" />
<glyph unicode="." glyph-name="period" horiz-adv-x="223" d="M89 -10Q64 -10 47 7T29 54Q29 89 53 116T109 143Q134 143 150 125T167 78Q167 42 145 16T89 -10Z" />
<glyph unicode="/" glyph-name="slash" horiz-adv-x="261" d="M256 742Q298 742 298 721Q298 710 264 593T197 369T161 254Q82 4 57 -117Q35 -122 23 -122Q-15 -122 -15 -99Q-15 -87 162 507Q207 659 225 737L256 742Z" />
<glyph unicode="0" glyph-name="zero" horiz-adv-x="574" d="M241 -10Q150 -10 95 59T40 246Q40 357 76 454T181 612T335 673Q426 673 479 605T533 417Q533 307 498 210T395 52T241 -10ZM154 275Q154 184 178 124T250 64Q301 64 341 112T402 234T423 390Q423 478
399 538T326 599Q253 599 204 504T154 275Z" />
<glyph unicode="1" glyph-name="one" horiz-adv-x="574" d="M329 68Q392 68 424 72Q426 60 426 52Q426 29 415 14T380 -2Q373 -2 315 -1T212 0Q135 0 104 -1Q102 13 102 19Q102 71 161 71H225Q226 79 263 353Q288 550 292 590Q217 585 178 577Q178 617 188 635T226
657Q336 673 368 673Q406 673 406 643Q406 635 398 590T377 467T355 319Q331 127 329 68Z" />
<glyph unicode="2" glyph-name="two" horiz-adv-x="574" d="M155 513Q109 521 109 557Q109 597 178 635T321 673Q391 673 441 633T491 520Q491 492 484 463T467 410T436 356T401 307T355 256T308 211T253 164T201 121T146 77Q165 76 213 76Q312 76 359 81T455
104Q462 76 462 52Q462 22 432 12Q391 -2 269 -2Q230 -2 159 -1T60 0Q21 0 21 37Q21 46 24 60Q66 100 130 156T231 246T308 324T366 410T384 498T360 571T298 598Q262 598 223 575T155 513Z" />
<glyph unicode="3" glyph-name="three" horiz-adv-x="574" d="M337 364Q395 341 424 301T453 214Q453 129 375 59T182 -11Q111 -11 76 6T40 47T56 85T94 104Q120 64 189 64T299 107T341 206Q341 255 305 287T195 320Q169 320 169 352Q169 364 173 380Q264 380
314 421T364 518Q364 553 344 576T287 599Q255 599 223 579T168 521Q146 521 134 533T122 564Q122 600 183 636T314 673Q389 673 432 635T475 541Q475 435 337 364Z" />
<glyph unicode="4" glyph-name="four" horiz-adv-x="574" d="M349 548Q243 430 136 278Q157 277 200 277Q261 277 315 280Q321 328 332 420T349 548ZM356 661Q377 674 420 674Q458 674 474 671Q470 647 460 592T444 500T428 403T412 283Q484 289 508 300Q513 278
513 262Q513 248 511 238T501 222T489 211T470 206T451 203T427 202T403 201Q390 115 390 57Q390 23 394 -2Q373 -10 331 -10Q303 -10 292 -1T281 28T304 200Q106 200 54 207Q37 210 37 239Q37 263 44 284Q94 359 202 490T356 661Z" />
<glyph unicode="5" glyph-name="five" horiz-adv-x="574" d="M417 577Q351 577 246 582L211 432Q236 436 268 436Q364 436 412 389T461 263Q461 152 384 71T186 -10Q115 -10 80 8T44 49Q44 93 98 105Q112 83 129 74T186 64Q258 64 304 116T350 234Q350 290 313
327T208 364Q168 364 133 359Q127 369 127 394Q127 395 174 664Q203 662 381 662Q451 662 494 670Q499 656 499 629Q494 577 417 577Z" />
<glyph unicode="6" glyph-name="six" horiz-adv-x="574" d="M286 327Q236 327 182 285Q175 251 175 204Q175 65 265 65Q318 65 349 112T381 220Q381 270 355 298T286 327ZM245 -10Q153 -10 110 48T66 198Q66 279 94 363T170 516T292 629T450 673Q486 673 486 638Q486
615 472 594Q452 598 442 598Q348 598 282 526T193 348Q266 401 333 401Q401 401 446 356T491 235Q491 143 420 67T245 -10Z" />
<glyph unicode="7" glyph-name="seven" horiz-adv-x="574" d="M47 44Q142 127 247 286T417 578Q295 574 165 574Q101 574 101 622Q101 646 114 670Q162 662 224 662Q483 662 533 664Q536 650 536 637Q536 610 525 589Q516 567 489 520T420 405T344 285T263 157T200
59Q173 16 156 3T123 -10Q77 -10 47 44Z" />
<glyph unicode="8" glyph-name="eight" horiz-adv-x="574" d="M235 513Q235 450 319 412Q411 458 411 534Q411 563 388 581T331 599Q291 599 263 575T235 513ZM385 199Q385 240 360 267T280 321Q165 266 165 164Q165 122 190 93T261 64Q317 64 351 104T385 199ZM57
148Q57 224 98 279T208 363Q131 414 131 498Q131 574 192 623T342 673Q424 673 468 635T513 540Q513 493 482 448T392 370Q442 338 468 302T494 208Q494 120 429 55T250 -10Q158 -10 108 36T57 148Z" />
<glyph unicode="9" glyph-name="nine" horiz-adv-x="574" d="M294 337Q344 337 398 379Q405 413 405 458Q405 598 315 598Q262 598 231 552T199 444Q199 394 225 366T294 337ZM335 674Q427 674 470 616T513 466Q513 356 467 248T331 65T130 -10Q94 -10 94 26Q94
49 108 70Q128 66 138 66Q230 66 294 135T386 308Q313 262 252 262Q184 262 137 308T89 429Q89 521 160 597T335 674Z" />
<glyph unicode=":" glyph-name="colon" horiz-adv-x="244" d="M136 331Q111 331 94 348T76 395Q76 430 100 457T156 484Q181 484 197 466T214 419Q214 383 192 357T136 331ZM89 -10Q64 -10 47 7T29 54Q29 89 53 116T109 143Q134 143 150 125T167 78Q167 42 145
16T89 -10Z" />
<glyph unicode=";" glyph-name="semicolon" horiz-adv-x="231" d="M98 120Q123 120 140 102T158 45Q158 -18 113 -86T7 -154Q-16 -154 -16 -127Q-16 -112 -12 -101H-8Q21 -101 44 -76T68 -23Q68 17 30 25Q25 40 25 51Q25 80 45 99T98 120ZM108 331Q83 331 66 348T48
395Q48 430 72 457T128 484Q153 484 169 466T186 419Q186 383 164 357T108 331Z" />
<glyph unicode="&lt;" glyph-name="less" horiz-adv-x="574" d="M456 436L217 252Q319 141 402 58Q376 18 334 18Q312 18 299 31L111 253L361 465Q377 478 397 478Q437 478 456 436Z" />
<glyph unicode="=" glyph-name="equal" horiz-adv-x="574" d="M496 183T496 162T482 127T444 113Q414 113 364 117T291 121Q192 121 84 111Q79 135 79 150Q79 169 91 184T131 199Q142 199 197 196T289 192Q417 192 490 201Q496 183 496 162ZM496 379T496 358T482
323T444 309Q414 309 364 313T291 317Q192 317 84 307Q79 331 79 346Q79 365 91 380T131 395Q142 395 197 392T289 388Q417 388 490 397Q496 379 496 358Z" />
<glyph unicode="&gt;" glyph-name="greater" horiz-adv-x="574" d="M109 60L348 244Q246 355 163 438Q189 478 231 478Q253 478 266 465L454 243L204 31Q188 18 168 18Q128 18 109 60Z" />
<glyph unicode="?" glyph-name="question" horiz-adv-x="382" d="M136 -10Q111 -10 94 7T76 54Q76 89 100 116T156 143Q181 143 197 125T214 78Q214 42 192 16T136 -10ZM204 223L194 216Q172 205 149 205Q97 205 97 257Q97 301 121 337T193 418Q221 445 235 461T266
507T282 565Q282 591 268 603T230 616Q198 616 167 594T124 539Q57 552 57 585Q57 628 107 656T223 684Q291 684 338 654T385 561Q385 484 282 393Q253 368 241 355T214 315T200 258Q200 240 204 223Z" />
<glyph unicode="@" glyph-name="at" horiz-adv-x="862" d="M349 54Q306 54 281 82T256 164Q256 268 324 355T479 443Q570 443 627 397Q560 230 560 170Q560 133 583 133Q620 133 654 200T689 356Q689 518 514 518Q425 518 347 459T227 315T184 146Q184 67 232
18T376 -32Q486 -32 520 41Q574 24 574 -10Q574 -54 509 -81T356 -109Q221 -109 153 -42T85 132Q85 210 120 291T215 439T363 547T548 590Q664 590 730 531T796 376Q796 300 756 227T659 112T556 69Q527 69 509 88T486 146Q460 103 423 79T349 54ZM464 194Q472
220 489 283T508 350Q486 375 460 375Q421 375 392 320T362 193Q362 130 392 130Q435 130 464 194Z" />
<glyph unicode="A" glyph-name="A" horiz-adv-x="541" d="M353 275Q322 406 308 514Q253 374 205 276Q259 274 294 274Q334 274 353 275ZM269 199Q246 199 170 201Q86 14 77 -13Q29 -9 10 0T-10 29Q-10 45 9 85T72 210T150 374Q157 390 183 446T230 550T271 656Q300
663 329 663Q356 663 369 652T389 610Q390 607 413 480T454 280Q498 87 525 10Q487 -10 454 -10Q414 -10 406 27Q375 173 370 201Q288 199 269 199Z" />
<glyph unicode="B" glyph-name="B" horiz-adv-x="525" d="M279 596Q262 596 232 592Q216 436 210 391Q232 389 245 389Q385 389 385 509Q385 596 279 596ZM245 59Q296 59 332 100T368 210Q368 265 339 294T265 323Q220 323 200 318Q187 224 160 95Q172 81 197
70T245 59ZM48 56Q76 167 104 387Q128 572 128 660Q202 673 284 673Q345 673 391 661T468 616T500 530Q500 407 393 362Q443 338 463 308T483 227Q483 120 415 55T251 -10Q111 -10 48 56Z" />
<glyph unicode="C" glyph-name="C" horiz-adv-x="535" d="M423 150Q488 126 488 87Q488 49 430 20T291 -10Q177 -10 112 64T46 264Q46 445 142 559T390 673Q459 673 504 645T550 574Q550 543 526 523T464 498Q455 547 425 571T358 596Q272 596 217 504T162 290Q162
191 197 129T301 67Q376 67 423 150Z" />
<glyph unicode="D" glyph-name="D" horiz-adv-x="598" d="M48 53Q77 186 101 359T128 661Q185 673 277 673Q580 673 580 404Q580 296 542 204T424 51T239 -10Q111 -10 48 53ZM234 592Q213 339 164 103Q200 67 261 67Q316 67 357 97T420 177T452 277T463 379Q463
487 417 541T284 596Q266 596 234 592Z" />
<glyph unicode="E" glyph-name="E" horiz-adv-x="470" d="M463 564Q421 585 315 585Q279 585 231 582Q229 534 209 394Q338 394 368 398Q370 384 370 370Q370 319 328 316Q306 315 198 315Q172 103 172 77Q198 75 237 75Q287 75 338 82T405 99Q418 63 418 40Q418
11 385 4T257 -3Q123 -3 95 -1Q74 0 66 8T57 34Q57 62 90 306T124 631Q124 649 123 656Q226 665 328 665Q464 665 480 650Q485 639 485 622Q485 592 463 564Z" />
<glyph unicode="F" glyph-name="F" horiz-adv-x="448" d="M231 582Q229 534 209 394Q338 394 368 398Q370 384 370 370Q370 319 328 316Q306 315 198 315Q195 289 189 243T180 173T175 120T172 66Q172 32 176 5Q141 -3 116 -3Q57 -3 57 49Q57 57 90 305T124 631Q124
649 123 656Q226 665 333 665Q469 665 485 650Q490 635 490 622Q490 591 468 564Q426 585 320 585Q279 585 231 582Z" />
<glyph unicode="G" glyph-name="G" horiz-adv-x="566" d="M416 317Q441 320 467 320Q527 320 527 273Q527 267 522 241T510 171T497 85Q489 44 431 17T291 -10Q177 -10 112 64T46 264Q46 445 142 559T390 673Q459 673 504 645T550 574Q550 543 526 524T464 499Q455
547 425 571T358 596Q272 596 217 504T162 290Q162 191 197 129T300 67Q356 67 396 107Q410 230 416 317Z" />
<glyph unicode="H" glyph-name="H" horiz-adv-x="613" d="M484 663Q512 666 537 666Q597 666 597 623Q597 618 593 593T580 515T564 404L538 203Q526 115 526 66Q526 32 530 5Q495 -3 470 -3Q411 -3 411 49Q411 55 414 80T427 175T447 323Q409 321 338 321Q271
321 199 323L184 203Q172 115 172 66Q172 32 176 5Q141 -3 116 -3Q57 -3 57 49Q57 56 61 90T79 220T107 431Q126 581 130 663Q159 666 183 666Q243 666 243 623Q243 618 239 593T226 513T209 398Q309 396 345 396Q389 396 457 398Q481 583 484 663Z" />
<glyph unicode="I" glyph-name="I" horiz-adv-x="259" d="M130 663Q159 666 183 666Q243 666 243 623Q243 618 239 593T226 515T210 404L184 203Q172 115 172 66Q172 32 176 5Q141 -3 116 -3Q57 -3 57 49Q57 56 61 90T79 220T107 431Q126 581 130 663Z" />
<glyph unicode="J" glyph-name="J" horiz-adv-x="327" d="M39 -119Q0 -119 0 -72Q0 -52 3 -40Q33 -37 54 -28T88 -6T109 33T122 81T133 148L173 436Q192 571 198 663Q225 666 250 666Q311 666 311 625Q311 615 306 588T291 513T276 421L233 114Q224 47 197 -3T138
-76T81 -109T39 -119Z" />
<glyph unicode="K" glyph-name="K" horiz-adv-x="527" d="M130 663Q159 666 183 666Q243 666 243 623Q243 618 239 593T227 515T210 402Q324 493 371 553T436 668Q518 667 518 616Q518 585 453 513T298 363Q401 134 452 84Q467 71 496 71Q517 71 523 74Q527 58
527 42Q527 15 506 3T456 -10Q403 -10 360 47Q333 83 290 159T218 298L194 278L184 203Q172 115 172 66Q172 32 176 5Q141 -3 116 -3Q57 -3 57 49Q57 56 61 90T79 220T107 431Q126 581 130 663Z" />
<glyph unicode="L" glyph-name="L" horiz-adv-x="403" d="M390 99Q403 63 403 40Q403 11 370 4T242 -3Q123 -3 95 -1Q74 0 66 8T57 34Q57 68 93 331T130 663Q152 666 187 666Q245 666 245 633Q245 620 229 521T195 291T172 77Q198 75 222 75Q272 75 323 82T390 99Z" />
<glyph unicode="M" glyph-name="M" horiz-adv-x="776" d="M713 436L680 203Q666 111 666 59Q666 39 670 5Q646 -3 604 -3Q549 -3 549 35Q549 39 558 98T582 264T611 469Q510 270 402 2Q388 -2 360 -2Q309 -2 302 24Q284 86 256 244T209 477Q158 122 158 59Q158
39 162 5Q138 -3 99 -3Q75 -3 66 5T57 32Q57 40 85 231L121 483Q131 555 131 610Q131 636 128 659Q165 667 199 667Q254 667 272 619Q285 584 297 544T317 479T335 399T349 331T364 250T377 177Q470 415 603 619Q635 667 698 667Q738 667 760 659Q736 599 713 436Z"
/>
<glyph unicode="N" glyph-name="N" horiz-adv-x="596" d="M500 1Q480 -3 455 -3Q405 -3 394 24Q360 102 295 267T208 488Q203 452 192 368T176 238T165 139T159 59Q159 39 163 5Q139 -3 113 -3Q81 -3 69 6T57 35Q57 44 61 76T72 155T83 231Q90 286 99 355T112
459T120 533T124 604Q124 636 120 659Q145 667 180 667Q222 667 242 638Q277 586 331 462T431 211L457 431Q476 590 480 663Q501 666 523 666Q580 666 580 632Q580 625 574 593T560 506T545 404Q539 355 527 263T509 112T500 1Z" />
<glyph unicode="O" glyph-name="O" horiz-adv-x="645" d="M290 -10Q175 -10 111 63T46 263Q46 438 139 556T379 674Q496 674 561 602T627 402Q627 230 534 110T290 -10ZM365 596Q272 596 217 508T162 290Q162 245 170 206T194 135T238 85T305 66Q370 66 417 111T487
226T509 378Q509 472 474 534T365 596Z" />
<glyph unicode="P" glyph-name="P" horiz-adv-x="514" d="M267 312Q327 312 358 361T389 487Q389 549 362 572T283 596Q255 596 232 592Q225 501 202 337Q232 312 267 312ZM83 231L108 431Q126 586 126 661Q196 673 273 673Q504 673 504 493Q504 374 439 305T291
235Q231 235 193 267Q173 118 173 61Q173 29 177 5Q153 -3 113 -3Q57 -3 57 39Q57 48 61 79T73 157T83 231Z" />
<glyph unicode="Q" glyph-name="Q" horiz-adv-x="640" d="M365 596Q272 596 217 508T162 290Q162 245 170 206T194 135T238 85T305 66Q370 66 417 111T487 226T509 378Q509 472 474 534T365 596ZM660 -43Q722 -61 722 -109Q722 -142 695 -165T631 -197T558 -206Q451
-206 362 -156T246 -7Q151 6 99 77T46 263Q46 438 139 556T379 674Q496 674 561 602T627 402Q627 245 549 130T340 -6Q359 -61 411 -93T526 -126Q626 -126 660 -43Z" />
<glyph unicode="R" glyph-name="R" horiz-adv-x="531" d="M401 123T419 97T480 71Q500 71 508 74Q512 56 512 42Q512 -10 433 -10Q365 -10 333 47Q287 128 236 271Q219 277 219 294Q219 314 236 334Q244 330 258 330Q293 330 324 347Q389 384 389 489Q389 553
365 574T286 596Q253 596 232 592Q227 504 215 418L185 198Q173 110 173 60Q173 29 177 5Q153 -3 113 -3Q57 -3 57 39Q57 49 61 80T73 158T83 231L108 431Q126 577 126 661Q196 673 274 673Q373 673 438 633T504 500Q504 413 457 351T336 272Q351 229 376 176Z"
/>
<glyph unicode="S" glyph-name="S" horiz-adv-x="479" d="M404 523Q395 551 366 571T304 591Q257 591 224 561T190 476Q190 441 213 422T280 387Q286 385 311 376T346 363T375 349T404 329T424 304T440 270T445 227Q445 115 379 53T201 -10Q131 -10 78 15T24 76Q24
123 88 147Q99 114 135 91T210 68Q262 68 301 101T340 195Q340 232 316 250T246 282Q214 291 200 296T158 315T119 345T95 389T84 453Q84 555 151 613T321 671Q379 671 429 649T479 588Q479 564 461 546T404 523Z" />
<glyph unicode="T" glyph-name="T" horiz-adv-x="423" d="M438 590Q412 589 317 589Q300 492 289 404L263 203Q251 115 251 66Q251 32 255 5Q231 -3 193 -3Q135 -3 135 39Q135 46 140 82T158 218T186 431Q198 526 203 589Q100 589 44 585Q43 592 43 603Q43 633
54 646T91 660Q116 661 195 661H301Q450 661 484 664Q486 652 486 640Q486 615 475 604T438 590Z" />
<glyph unicode="U" glyph-name="U" horiz-adv-x="609" d="M438 290Q476 573 480 663Q508 666 533 666Q563 666 578 657T593 623Q593 620 586 580T564 436T534 203Q522 93 522 61T526 5Q488 -3 463 -3Q407 -3 407 49Q407 55 418 132Q377 64 321 27T211 -10Q146
-10 111 38T75 157Q75 182 100 371T130 663Q157 666 181 666Q243 666 243 624Q243 621 239 597T227 525T212 429Q182 215 182 180Q182 137 198 108T248 78Q296 78 352 138T438 290Z" />
<glyph unicode="V" glyph-name="V" horiz-adv-x="566" d="M109 521Q109 594 82 650Q127 674 161 674Q225 674 225 579Q225 528 203 392T180 191Q180 94 211 54Q274 75 330 160T419 351T451 547Q451 609 434 653Q476 674 510 674Q576 674 576 594Q576 539 560 463T510
304T433 151T329 36T204 -10Q169 -10 138 1Q76 67 76 191Q76 255 92 347T109 521Z" />
<glyph unicode="W" glyph-name="W" horiz-adv-x="881" d="M109 521Q109 594 82 650Q127 674 161 674Q225 674 225 579Q225 528 203 392T180 191Q180 94 211 54Q271 75 325 160T410 351T441 547Q441 609 424 653Q466 674 500 674Q566 674 566 594Q566 472 502 307Q499
268 499 230Q499 99 536 54Q596 75 650 160T735 351T766 547Q766 609 749 653Q791 674 825 674Q891 674 891 594Q891 539 875 463T826 304T751 151T649 36T527 -10Q494 -10 463 1Q419 47 406 124Q311 -10 202 -10Q169 -10 138 1Q76 67 76 191Q76 255 92 347T109
521Z" />
<glyph unicode="X" glyph-name="X" horiz-adv-x="533" d="M240 348Q183 478 157 521T81 602Q114 652 146 668Q158 674 175 674Q193 674 213 653T253 592T288 517T322 432Q438 623 453 674Q548 653 548 606Q548 557 354 348Q357 340 374 299T397 242T421 193T451
140T484 100T525 62Q492 12 460 -4Q448 -10 431 -10Q421 -10 412 -5T392 12T374 36T355 68T338 103T320 144T303 185T287 228T271 268Q124 64 99 -10Q6 10 6 54Q6 71 21 98T69 162T124 225T189 295T240 348Z" />
<glyph unicode="Y" glyph-name="Y" horiz-adv-x="468" d="M521 620Q521 587 341 356Q317 325 305 309L291 203Q279 115 279 66Q279 32 283 5Q248 -3 223 -3Q164 -3 164 49Q164 55 167 78T179 171T199 313Q106 569 47 619Q93 667 128 667Q164 667 181 633Q237 518
275 395Q413 614 424 672Q521 672 521 620Z" />
<glyph unicode="Z" glyph-name="Z" horiz-adv-x="529" d="M142 667Q172 667 277 654T433 640Q479 640 504 653Q527 630 527 595Q527 554 508 531L236 206Q182 140 154 99Q191 99 275 87T395 74Q455 74 487 90Q498 67 498 51Q498 -10 395 -10Q367 -10 281 2T148
15Q99 15 65 3Q38 38 38 61T56 119Q115 228 402 560Q374 562 295 573T170 584Q124 584 84 565Q72 590 72 610Q72 667 142 667Z" />
<glyph unicode="[" glyph-name="bracketleft" horiz-adv-x="402" d="M295 650L186 -121Q216 -120 248 -120Q303 -120 303 -153Q303 -168 292 -190H81L208 720H420Q423 708 423 697Q423 649 360 649Q321 649 295 650Z" />
<glyph unicode="\" glyph-name="backslash" horiz-adv-x="281" d="M125 117Q33 692 33 708Q33 741 84 741Q99 741 120 734Q130 626 149 505Q173 345 197 198Q241 -79 241 -85Q241 -120 193 -120Q180 -120 154 -114Q144 -7 125 117Z" />
<glyph unicode="]" glyph-name="bracketright" horiz-adv-x="384" d="M107 -120L216 651Q186 650 154 650Q99 650 99 683Q99 698 110 720H321L194 -190H-18Q-21 -178 -21 -167Q-21 -119 42 -119Q81 -119 107 -120Z" />
<glyph unicode="^" glyph-name="asciicircum" horiz-adv-x="486" d="M423 408Q385 408 243 558Q192 504 139 456T64 408T20 431Q43 470 118 553T243 685Q290 639 366 555T466 431Q441 408 423 408Z" />
<glyph unicode="_" glyph-name="underscore" horiz-adv-x="535" d="M535 -110Q535 -128 525 -140T499 -152Q484 -152 430 -148T348 -144H205Q91 -144 3 -152Q0 -137 0 -122Q0 -106 9 -93T36 -80Q39 -80 99 -83T203 -87H345Q472 -87 532 -80Q535 -89 535 -110Z" />
<glyph unicode="`" glyph-name="grave" horiz-adv-x="209" d="M-28 633Q-55 650 -55 676Q-55 712 -14 730Q31 673 132 600Q151 587 151 566Q151 541 132 524Q119 536 58 575T-28 633Z" />
<glyph unicode="a" glyph-name="a" horiz-adv-x="506" d="M308 94Q239 -10 155 -10Q98 -10 63 36T27 170Q27 299 96 391T267 484Q377 484 462 427Q413 203 413 116Q413 69 451 52Q447 29 429 10T378 -10Q345 -10 326 14T307 75Q307 88 308 94ZM319 206L346 376Q307
418 266 418Q216 418 183 355T150 191Q150 137 166 102T210 66Q234 66 265 105T319 206Z" />
<glyph unicode="b" glyph-name="b" horiz-adv-x="496" d="M41 47Q66 154 94 373T123 635Q123 672 96 686Q98 715 120 734T174 753Q206 753 221 735T236 689Q236 624 201 397Q226 438 263 461T337 484Q396 484 432 436T469 297Q469 163 399 77T235 -10Q126 -10
41 47ZM185 278Q181 248 171 185T158 100Q194 55 232 55Q280 55 313 111T346 266Q346 323 332 365T288 408Q264 408 236 373T185 278Z" />
<glyph unicode="c" glyph-name="c" horiz-adv-x="431" d="M339 337Q318 413 266 413T182 349T150 195Q150 125 173 91T233 56Q293 56 332 126Q380 107 380 67Q380 36 332 13T225 -10Q134 -10 81 41T27 180Q27 254 50 314T111 410T193 465T283 484Q333 484 377
464T421 403Q421 379 402 359T339 337Z" />
<glyph unicode="d" glyph-name="d" horiz-adv-x="497" d="M349 435Q373 598 373 626Q373 664 346 676Q348 702 369 722T424 743Q456 743 471 725T486 679Q486 640 447 384T408 107Q408 68 445 52Q432 -10 374 -10Q342 -10 323 15T304 71Q304 84 305 94Q235 -10
153 -10Q96 -10 60 36T24 170Q24 294 90 388T244 483Q304 483 349 435ZM315 205L339 370Q311 400 297 409T265 419Q214 419 181 356T147 191Q147 136 163 101T206 66Q230 66 261 105T315 205Z" />
<glyph unicode="e" glyph-name="e" horiz-adv-x="448" d="M151 179Q152 117 175 87T233 56Q261 56 288 75T332 126Q380 107 380 67Q380 36 333 13T225 -10Q187 -10 154 0T91 32T44 92T27 183Q27 256 51 315T113 410T196 465T285 484Q352 484 386 450T420 363Q420
313 391 267T313 200Q259 177 184 177Q169 177 151 179ZM296 358Q296 384 284 401T251 419Q214 419 186 367T152 236Q171 236 184 237T221 246T258 265T284 301T296 358Z" />
<glyph unicode="f" glyph-name="f" horiz-adv-x="344" d="M362 577Q344 642 295 642Q259 642 239 593T213 472Q286 472 349 477Q352 464 352 452Q352 406 304 404Q281 402 207 402Q183 154 169 57Q164 21 159 -5T142 -63T110 -113T63 -131Q17 -131 -4 -68Q72 -46
99 401Q69 400 37 396Q35 414 35 419Q35 473 93 473H106Q129 714 321 714Q370 714 407 698T444 644Q444 620 426 599T362 577Z" />
<glyph unicode="g" glyph-name="g" horiz-adv-x="484" d="M185 66T209 66T263 104T319 206Q333 298 346 376Q309 418 265 418Q212 418 181 352T150 191Q150 134 167 100ZM267 485Q379 485 460 428Q436 330 411 162Q408 140 403 97T395 27T383 -41T363 -108T333
-165T288 -212T225 -241T140 -253Q81 -253 42 -232T3 -182Q3 -142 67 -117Q89 -187 148 -187Q282 -187 296 80Q267 33 229 12T156 -10Q92 -10 60 42T27 170Q27 297 96 391T267 485Z" />
<glyph unicode="h" glyph-name="h" horiz-adv-x="485" d="M173 259Q153 109 153 59Q153 30 156 5Q117 -4 90 -4Q35 -4 35 31T77 327T120 625Q120 662 93 676Q95 703 117 723T171 743T218 725T233 679Q233 655 219 553T195 395Q225 438 264 461T339 484Q388 484
414 449T441 358Q441 340 424 238T404 108Q404 69 441 52Q437 24 416 7T368 -10Q338 -10 317 13T296 80Q296 122 314 222T332 342Q332 407 292 407Q262 407 230 366T173 259Z" />
<glyph unicode="i" glyph-name="i" horiz-adv-x="232" d="M150 531Q125 531 110 547T94 592Q94 624 116 647T167 670Q190 670 206 652T223 606Q223 575 200 553T150 531ZM87 366Q87 404 60 417Q63 447 86 465T138 484Q164 484 182 468T200 421Q200 383 173 252T145
108Q145 68 182 52Q178 26 160 8T112 -10Q75 -10 58 17T40 81Q40 128 63 230T87 366Z" />
<glyph unicode="j" glyph-name="j" horiz-adv-x="253" d="M164 531Q139 531 124 547T108 592Q108 624 130 647T181 670Q204 670 220 652T237 606Q237 575 214 553T164 531ZM152 484Q182 484 198 466T214 421Q214 385 194 235T157 -10Q117 -253 -64 -253Q-116 -253
-153 -232T-190 -182Q-190 -141 -130 -117Q-123 -151 -106 -169T-66 -188Q-33 -188 -2 -152T41 -49Q101 308 101 366Q101 402 74 417Q76 446 99 465T152 484Z" />
<glyph unicode="k" glyph-name="k" horiz-adv-x="476" d="M346 484Q401 484 428 455T456 378Q456 314 411 255T295 187Q326 124 349 97Q371 71 407 71Q419 71 434 74Q438 59 438 42Q438 -10 365 -10Q311 -10 279 35T208 189Q192 199 192 214Q192 230 205 250Q226
242 243 242Q282 242 307 272T333 345Q333 372 322 390T289 408Q265 408 230 367T174 267Q153 124 153 59Q153 30 156 5Q117 -4 90 -4Q35 -4 35 31T77 327T120 625Q120 662 93 676Q95 703 117 723T171 743T218 725T233 679Q233 655 219 552T194 388Q258 484 346
484Z" />
<glyph unicode="l" glyph-name="l" horiz-adv-x="229" d="M124 743T156 743T203 725T218 679Q218 642 181 392T140 109Q140 67 177 52Q165 -10 106 -10Q70 -10 53 17T35 81Q35 128 68 353T105 625Q105 662 78 676Q80 703 102 723Z" />
<glyph unicode="m" glyph-name="m" horiz-adv-x="738" d="M182 259Q162 109 162 59Q162 30 165 5Q126 -4 99 -4Q44 -4 44 31Q44 44 66 189T89 363Q89 405 61 417Q65 448 88 466T139 484Q165 484 183 468T201 422Q201 404 198 386Q225 433 263 458T338 484Q381
484 407 456T439 381Q465 430 504 457T582 484Q631 484 657 449T684 358Q684 340 667 238T647 108Q647 69 684 52Q680 24 659 7T611 -10Q581 -10 560 13T539 80Q539 122 557 222T575 342Q575 407 537 407Q511 407 479 365T428 269Q406 134 406 59Q406 30 409 5Q370
-4 343 -4Q288 -4 288 31Q288 44 309 178T330 348Q330 407 293 407Q266 407 233 362T182 259Z" />
<glyph unicode="n" glyph-name="n" horiz-adv-x="504" d="M182 259Q162 109 162 59Q162 30 165 5Q126 -4 99 -4Q44 -4 44 31Q44 44 66 189T89 363Q89 405 61 417Q65 448 88 466T139 484Q165 484 183 468T201 422Q201 404 198 386Q227 433 268 458T348 484Q397
484 423 449T450 358Q450 340 433 238T413 108Q413 69 450 52Q446 24 425 7T377 -10Q347 -10 326 13T305 80Q305 122 323 222T341 342Q341 407 301 407Q271 407 239 366T182 259Z" />
<glyph unicode="o" glyph-name="o" horiz-adv-x="501" d="M213 -10Q125 -10 76 41T27 185Q27 311 99 397T283 484Q373 484 423 432T474 287Q474 162 400 76T213 -10ZM269 418Q214 418 182 353T150 201Q150 138 171 97T232 56Q286 56 318 120T350 269Q350 334 329
376T269 418Z" />
<glyph unicode="p" glyph-name="p" horiz-adv-x="505" d="M188 278Q182 229 158 100Q192 55 232 55Q282 55 318 117T355 287Q355 407 291 407Q244 407 188 278ZM144 484Q174 484 190 467T206 420Q206 409 204 393Q262 484 344 484Q478 484 478 298Q478 165 411
78T257 -10Q196 -10 148 34Q123 -109 123 -137Q123 -175 147 -198Q111 -253 72 -253Q13 -253 13 -163Q13 -114 50 101T90 366Q90 402 63 417Q66 448 91 466T144 484Z" />
<glyph unicode="q" glyph-name="q" horiz-adv-x="494" d="M327 207Q341 304 354 376Q313 418 274 418Q224 418 191 355T158 191Q158 137 175 102T219 66Q243 66 274 106T327 207ZM470 427Q451 343 412 117T373 -142Q373 -177 407 -191Q402 -219 384 -236T337 -253Q297
-253 281 -224T265 -162Q265 -119 300 73Q240 -10 163 -10Q105 -10 70 37T35 171Q35 300 104 392T274 484Q385 484 470 427Z" />
<glyph unicode="r" glyph-name="r" horiz-adv-x="359" d="M301 386Q242 386 187 301Q161 125 161 59Q161 30 164 5Q125 -4 98 -4Q43 -4 43 31Q43 44 65 189T88 363Q88 405 60 417Q64 448 87 466T138 484Q164 484 182 468T200 422Q200 405 197 387Q221 426 256
455T329 484Q374 484 374 436Q374 397 346 367Q327 386 301 386Z" />
<glyph unicode="s" glyph-name="s" horiz-adv-x="385" d="M287 345Q277 380 259 397T218 414Q191 414 168 392T145 340Q145 313 165 298T215 275T273 256T322 217T343 144Q343 68 289 29T147 -10Q88 -10 47 12T5 71Q5 122 65 134Q74 100 99 81T154 62Q196 62 221
80T247 124Q247 150 227 165T177 189T119 210T69 250T48 322Q48 403 103 444T237 485Q281 485 321 464T361 404Q361 353 287 345Z" />
<glyph unicode="t" glyph-name="t" horiz-adv-x="344" d="M75 473H109Q110 479 114 519T120 573Q141 580 176 580Q231 580 231 546Q231 541 219 472Q304 472 369 477Q372 465 372 453Q372 406 326 403Q295 402 208 402Q172 170 172 133Q172 89 187 74T234 59T294
89Q320 71 320 43Q320 -10 203 -10Q145 -10 106 21T67 125Q67 147 72 191T88 302T102 402Q85 402 19 396Q17 410 17 417Q17 473 75 473Z" />
<glyph unicode="u" glyph-name="u" horiz-adv-x="501" d="M201 422Q201 380 180 266T159 132Q159 67 199 67Q229 67 261 108T318 215Q321 240 329 297T341 393T348 474Q373 481 404 481Q459 481 459 446Q459 440 457 427T450 387T442 338Q442 336 433 281T417
180T411 111Q411 69 439 57Q435 26 412 8T361 -10Q335 -10 317 6T299 52Q299 70 302 88Q273 41 232 16T152 -10Q103 -10 77 25T50 116Q50 134 69 242T88 374Q88 399 61 417Q63 441 84 462T139 484Q165 484 183 469T201 422Z" />
<glyph unicode="v" glyph-name="v" horiz-adv-x="431" d="M68 374Q68 424 49 464Q88 484 128 484Q192 484 192 418Q192 382 176 287T160 147Q160 94 174 66Q229 78 270 184T311 377Q311 435 296 466Q327 484 370 484Q401 484 415 465T429 418Q429 370 407 300T347
159T250 40T128 -10Q107 -10 90 -2Q48 41 48 135Q48 181 58 248T68 374Z" />
<glyph unicode="w" glyph-name="w" horiz-adv-x="643" d="M68 374Q68 424 49 464Q88 484 128 484Q192 484 192 418Q192 382 176 287T160 147Q160 94 174 66Q225 77 263 176T301 357Q301 410 286 440Q317 458 360 458Q391 458 405 440T419 395Q419 331 380 234Q378
202 378 185Q378 103 396 66Q447 78 485 184T523 377Q523 435 508 466Q539 484 582 484Q613 484 627 465T641 418Q641 370 619 300T561 159T467 40T349 -10Q329 -10 312 -2Q287 23 282 71Q208 -10 127 -10Q107 -10 90 -2Q48 41 48 135Q48 181 58 248T68 374Z" />
<glyph unicode="x" glyph-name="x" horiz-adv-x="424" d="M268 241Q275 227 289 194T310 147T330 114T357 88T391 80Q395 62 395 51Q395 25 373 8T320 -10Q258 -10 191 160Q105 46 98 -5Q83 -8 70 -8Q43 -8 27 3T11 33Q11 54 30 83Q67 137 164 231Q160 241 153
260T141 288T130 313T119 336T107 355T94 372T80 383T63 391T44 394Q40 412 40 423Q40 449 62 466T115 484Q150 484 183 434T238 319Q295 420 303 480Q320 484 339 484Q398 484 398 438Q398 418 381 388T349 338T303 281T268 241Z" />
<glyph unicode="y" glyph-name="y" horiz-adv-x="433" d="M150 435Q196 306 216 121Q304 289 304 403Q304 431 292 465Q327 484 354 484Q418 484 418 417Q418 339 367 219T242 -7Q188 -84 148 -128T51 -201T-72 -230Q-121 -230 -155 -214T-190 -171Q-190 -138
-143 -110Q-114 -164 -60 -164Q34 -164 135 -10Q131 116 89 260T7 439Q45 484 82 484Q133 484 150 435Z" />
<glyph unicode="z" glyph-name="z" horiz-adv-x="423" d="M108 484Q132 484 215 475T338 465Q382 465 401 474Q418 457 418 427T401 377Q208 161 148 83Q169 82 222 74T302 66Q345 66 370 78Q378 62 378 40Q378 -10 298 -10Q275 -10 208 -1T104 8Q60 8 30 -1Q11
25 11 41Q11 59 24 82Q67 158 283 395Q266 396 213 402T128 408Q94 408 64 394Q56 418 56 437Q56 484 108 484Z" />
<glyph unicode="{" glyph-name="braceleft" horiz-adv-x="438" d="M318 586L290 391Q286 363 262 333T211 287Q232 274 246 248T261 196Q261 182 246 80T231 -40Q231 -56 241 -62T284 -68Q343 -68 343 -101Q343 -116 331 -137Q305 -139 284 -139Q201 -139 168
-118T135 -51Q135 -24 150 78T165 189Q165 215 140 235T63 256L72 319Q126 319 157 343T194 395Q204 446 224 600Q232 660 270 687T402 715Q427 715 451 713Q453 705 453 692Q453 643 391 643Q348 643 335 632T318 586Z" />
<glyph unicode="|" glyph-name="bar" horiz-adv-x="509" d="M216 -9V564Q216 681 208 734Q224 737 254 737Q300 737 300 699Q300 694 297 627T293 528V-54Q293 -174 301 -246Q285 -249 255 -249Q209 -249 209 -211Q209 -206 212 -124T216 -9Z" />
<glyph unicode="}" glyph-name="braceright" horiz-adv-x="438" d="M120 -10L148 185Q152 213 176 243T227 289Q206 302 192 328T177 380Q177 394 192 496T207 616Q207 632 197 638T154 644Q95 644 95 677Q95 692 107 713Q133 715 154 715Q237 715 270 694T303
627Q303 600 288 498T273 387Q273 361 298 341T375 320L366 257Q312 257 281 233T244 181Q234 130 214 -24Q206 -84 168 -111T36 -139Q11 -139 -13 -137Q-15 -129 -15 -116Q-15 -67 47 -67Q90 -67 103 -56T120 -10Z" />
<glyph unicode="~" glyph-name="asciitilde" horiz-adv-x="553" d="M32 269Q32 337 155 337Q212 337 285 318T396 298Q442 298 489 344Q521 304 521 277Q521 241 485 225T396 208Q360 208 286 227T171 247Q111 247 65 201Q32 244 32 269Z" />
<glyph unicode="&#xa1;" glyph-name="exclamdown" horiz-adv-x="314" d="M197 484Q222 484 239 467T257 420Q257 385 233 358T177 331Q152 331 136 349T119 396Q119 432 141 458T197 484ZM57 -166Q57 -139 74 -76Q88 -26 106 72T124 212Q124 236 120 255Q153 269
174 269Q224 269 224 228Q224 221 211 124Q180 -100 180 -170Q180 -184 181 -197Q140 -210 114 -210Q57 -210 57 -166Z" />
<glyph unicode="&#xa2;" glyph-name="cent" horiz-adv-x="574" d="M181 291Q181 186 253 153L301 499Q248 478 215 421T181 291ZM322 681Q338 684 346 684Q379 684 379 662Q379 660 368 581H375Q449 581 490 556T531 497Q531 473 510 454T450 427Q411 506 358
509L307 142Q331 142 361 164T419 227Q450 220 467 203T485 163Q485 126 437 99T296 70L295 57Q290 -8 290 -14L269 -16Q233 -16 233 6Q233 13 242 73Q160 86 112 139T63 276Q63 399 135 478T312 576V578L313 580Q319 625 322 681Z" />
<glyph unicode="&#xa3;" glyph-name="sterling" horiz-adv-x="574" d="M230 307Q230 313 228 329H211Q171 329 97 325Q96 333 96 345Q96 380 134 380Q136 380 214 382Q212 390 205 411T194 444T187 472T183 503Q183 565 240 620T377 675Q413 675 439 659T466 614Q466
594 449 578T407 554Q392 592 349 592Q319 592 303 577T286 538T293 490T315 434T335 388Q413 393 464 400Q466 382 466 375Q466 347 452 336T404 325Q374 325 348 326Q347 255 316 202T191 79Q203 78 243 70T314 62Q351 62 383 79T417 137H427Q456 137 472 122T489
85Q489 51 452 24T345 -3Q286 -3 216 11T109 25Q101 25 95 23Q75 -3 49 -3Q37 -3 29 5T21 26Q21 45 40 61T104 85Q173 158 201 205T230 307Z" />
<glyph unicode="&#xa5;" glyph-name="yen" horiz-adv-x="574" d="M248 -3Q190 -3 190 40Q190 48 193 73T202 135T211 192Q124 192 72 186Q69 192 69 205Q69 245 111 245H220L227 299Q140 299 87 293Q84 300 84 313Q84 353 132 353H221Q212 374 194 420T168 486T145
536T116 585T85 621Q121 669 162 669Q189 669 207 631Q259 523 304 390Q350 454 398 544T453 669Q469 673 485 673Q541 673 541 635Q541 594 364 353Q423 353 485 360Q487 352 487 340Q487 299 439 299H326L319 245Q413 245 473 251Q474 246 474 236Q474 192 427
192H311Q300 106 300 65Q300 34 304 11Q273 -3 248 -3Z" />
<glyph unicode="&#xa6;" glyph-name="brokenbar" horiz-adv-x="574" d="M248 565Q248 681 240 734Q256 737 286 737Q332 737 332 699Q332 694 329 627T325 528V488Q325 368 333 296Q317 293 287 293Q241 293 241 331Q241 336 244 434T248 565ZM248 -18V21Q248
139 240 192Q256 195 286 195Q332 195 332 157Q332 152 329 86T325 -14V-54Q325 -174 333 -246Q317 -249 287 -249Q241 -249 241 -211Q241 -207 244 -131T248 -18Z" />
<glyph unicode="&#xa7;" glyph-name="section" horiz-adv-x="438" d="M309 210Q319 230 319 259Q319 290 294 311T227 352T169 385Q160 367 160 339Q160 308 181 288T246 246T309 210ZM70 312Q70 386 133 428Q116 459 116 504Q116 582 171 627T305 673Q352 673
395 653T438 595Q438 572 422 558T361 535Q355 566 330 585T276 604Q245 604 225 584T204 526Q204 494 225 471T276 432T336 399T388 354T409 285Q409 210 346 168Q364 138 364 101Q364 14 307 -32T169 -78Q109 -78 65 -55T20 2Q20 40 96 60Q102 28 127 10T196
-9Q230 -9 252 13T275 77Q275 109 254 131T203 169T142 200T91 244T70 312Z" />
<glyph unicode="&#xa8;" glyph-name="dieresis" horiz-adv-x="296" d="M272 531Q247 531 232 547T216 592Q216 624 238 647T289 670Q312 670 328 652T345 606Q345 575 322 553T272 531ZM99 531Q74 531 59 547T43 592Q43 624 65 647T116 670Q139 670 155 652T172
606Q172 575 149 553T99 531Z" />
<glyph unicode="&#xa9;" glyph-name="copyright" horiz-adv-x="849" d="M743 320Q743 452 664 534T470 617Q354 617 275 535T195 320T274 105T470 23Q584 23 663 105T743 320ZM815 320Q815 170 715 68T470 -34Q323 -34 223 67T123 320Q123 472 223 573T470 674Q615
674 715 573T815 320ZM620 161Q620 135 579 116T482 96Q441 96 404 107T334 143T280 213T260 319Q260 433 326 492T476 551Q506 551 537 543T595 514T621 464Q621 425 548 415Q540 446 517 462T469 478Q429 478 402 437T375 330Q375 246 409 208T491 169Q545 169
579 215Q620 190 620 161Z" />
<glyph unicode="&#xaa;" glyph-name="ordfeminine" horiz-adv-x="340" d="M188 643Q237 643 261 627T286 570Q286 556 278 500T269 412Q269 394 272 378Q253 370 230 370Q214 370 207 374T198 392Q167 366 125 366Q48 366 48 433Q48 499 117 519Q149 527 209 527Q211
551 211 556Q211 577 203 585T174 594Q162 594 148 584T129 557Q75 561 75 586Q75 614 112 628T188 643ZM270 311Q274 300 274 289Q274 269 259 257T219 245Q207 245 176 247T128 250H119Q76 250 22 239Q21 245 21 256Q21 305 75 305Q83 305 114 303T164 301H181Q229
301 270 311ZM193 432L201 493Q177 489 165 486T139 472T125 444Q125 414 151 414Q172 414 193 432Z" />
<glyph unicode="&#xab;" glyph-name="guillemotleft" horiz-adv-x="528" d="M513 400Q513 385 472 333T386 235Q468 109 468 78Q468 58 428 35Q353 105 277 236Q402 377 481 436Q513 418 513 400ZM293 400Q293 385 252 333T166 235Q248 109 248 78Q248 58 208
35Q133 105 57 236Q182 377 261 436Q293 418 293 400Z" />
<glyph unicode="&#xac;" glyph-name="logicalnot" horiz-adv-x="574" d="M485 332L487 108Q487 76 475 63T428 50Q404 50 378 64Q394 118 394 239V266H189Q139 266 80 245Q68 274 68 288Q68 332 126 332H485Z" />
<glyph unicode="&#xae;" glyph-name="registered" horiz-adv-x="578" d="M478 358T478 440T429 572T309 623Q237 623 188 573T139 440T188 308T309 257Q380 257 429 307ZM537 539T537 440T471 274T309 207Q212 207 146 274T80 440Q80 540 146 606T309 673Q404
673 470 606ZM305 451Q344 451 344 488Q344 506 331 517T298 529H285V452Q289 451 305 451ZM420 356Q424 348 424 340Q424 329 414 323T390 316Q365 316 350 334Q307 379 285 419V396Q285 354 294 328Q275 318 257 318Q210 318 210 348Q210 357 211 378T212 407V474Q212
526 207 560Q282 566 304 566Q416 566 416 488Q416 437 356 418Q363 404 402 360Q406 356 420 356Z" />
<glyph unicode="&#xaf;" glyph-name="overscore" horiz-adv-x="389" d="M396 631Q396 595 386 573T342 551Q327 551 290 554T230 557H210Q149 557 93 549Q92 555 92 564Q92 629 145 629Q150 629 189 626T244 623Q327 623 396 631Z" />
<glyph unicode="&#xb0;" glyph-name="degree" horiz-adv-x="359" d="M215 647Q173 647 148 612T123 527Q123 493 139 472T186 451Q228 451 252 487T276 572Q276 606 261 626T215 647ZM47 520Q47 597 96 654T224 711Q282 711 317 674T353 579Q353 502 304 445T177
387Q118 387 83 424T47 520Z" />
<glyph unicode="&#xb1;" glyph-name="plusminus" horiz-adv-x="574" d="M488 76T488 55T474 20T436 6Q417 6 361 10T284 14Q179 14 71 4Q66 28 66 43Q66 62 78 77T118 92Q124 92 181 89T282 85Q409 85 482 94Q488 76 488 55ZM281 486Q305 486 321 474T338 443T335
386T331 328Q426 328 502 338Q507 321 507 299Q507 279 493 265T456 250Q436 250 392 253T330 257Q330 189 339 126Q310 120 292 120Q269 120 252 131T235 163Q235 173 238 198T241 258Q160 257 70 249Q66 269 66 287Q66 306 78 321T118 336Q139 336 175 333T242
329Q242 417 234 479Q254 486 281 486Z" />
<glyph unicode="&#xb2;" glyph-name="twosuperior" horiz-adv-x="473" d="M153 545Q112 548 112 574Q112 605 166 639T280 673Q340 673 375 644T411 567Q411 502 347 426T163 288H214Q340 288 391 312Q406 290 406 269Q406 240 379 232Q343 220 230 220Q149 220
95 222Q57 222 57 259Q57 275 62 293Q183 356 251 426T319 552Q319 578 299 593T245 609Q223 609 197 591T153 545Z" />
<glyph unicode="&#xb3;" glyph-name="threesuperior" horiz-adv-x="460" d="M161 423V475H182Q301 475 301 565Q301 610 252 610Q215 610 164 556Q113 569 113 592Q113 625 164 649T265 674Q394 674 394 580Q394 491 307 456Q371 428 371 362Q371 299 321 252T181
204Q130 204 94 220T57 266Q57 293 112 312Q144 268 191 268Q231 268 255 293T280 362Q280 425 203 425Q188 425 161 423Z" />
<glyph unicode="&#xb4;" glyph-name="acute" horiz-adv-x="226" d="M195 611Q170 597 105 567T24 525Q0 549 0 568Q0 588 23 600Q51 613 107 648T193 709Q226 692 226 658Q226 629 195 611Z" />
<glyph unicode="&#xb5;" glyph-name="mu" horiz-adv-x="503" d="M203 422Q203 380 182 266T161 132Q161 67 201 67Q231 67 263 108T320 215Q323 240 331 297T343 393T350 474Q375 481 406 481Q461 481 461 446Q461 440 459 427T452 387T444 338Q444 336 435 281T419
180T413 111Q413 69 441 57Q437 26 414 8T363 -10Q337 -10 319 6T301 52Q301 70 304 88Q239 -10 181 -10Q157 -10 135 9Q116 -39 116 -109T143 -198Q107 -253 68 -253Q9 -253 9 -163Q9 -121 59 174Q62 194 71 244T85 327T90 374Q90 399 63 417Q65 441 86 462T141
484Q167 484 185 469T203 422Z" />
<glyph unicode="&#xb6;" glyph-name="paragraph" horiz-adv-x="494" d="M252 234Q250 218 205 218Q138 218 98 257T57 362Q57 455 121 515T271 575Q277 575 340 573T432 571Q491 571 523 572Q525 554 525 549Q525 523 512 512T465 499L437 498Q392 283 372 115Q345
-119 193 -119Q164 -119 145 -107T126 -75Q126 -52 142 -27Q164 -39 185 -39Q204 -39 219 -32T244 -11T261 18T272 55T279 94T284 135T289 172Q294 207 321 334T356 499Q304 499 302 500Q265 370 252 234Z" />
<glyph unicode="&#xb7;" glyph-name="middot" horiz-adv-x="195" d="M93 184Q68 184 51 201T33 248Q33 283 57 310T113 337Q138 337 154 319T171 272Q171 236 149 210T93 184Z" />
<glyph unicode="&#xb8;" glyph-name="cedilla" horiz-adv-x="372" d="M147 32L202 24Q200 19 192 5T179 -21T174 -40Q174 -45 191 -55T225 -85T243 -130Q243 -178 196 -211T94 -244Q48 -244 48 -217Q48 -197 79 -170Q91 -184 116 -184Q131 -184 144 -175T157 -148Q157
-131 129 -109T101 -67Q101 -27 147 32Z" />
<glyph unicode="&#xb9;" glyph-name="onesuperior" horiz-adv-x="382" d="M316 261Q316 216 264 216H115Q96 216 70 213Q66 227 66 238Q66 280 133 280H156Q192 530 199 602Q163 596 118 580Q110 595 110 610Q110 648 159 660Q221 674 249 674Q267 674 281 666T295
640Q295 630 285 575T261 435T245 276Q255 276 313 282Q316 271 316 261Z" />
<glyph unicode="&#xba;" glyph-name="ordmasculine" horiz-adv-x="375" d="M270 311Q274 300 274 289Q274 269 259 257T219 245Q207 245 176 247T128 250H119Q76 250 22 239Q21 245 21 256Q21 305 75 305Q83 305 114 303T164 301H181Q229 301 270 311ZM165 416Q201
416 219 447T238 520Q238 553 225 573T189 593Q155 593 137 563T119 489Q119 416 165 416ZM159 366Q105 366 75 397T44 481Q44 549 85 596T195 643Q250 643 281 613T312 529Q312 459 271 413T159 366Z" />
<glyph unicode="&#xbb;" glyph-name="guillemotright" horiz-adv-x="528" d="M15 72Q15 87 56 139T142 237Q60 363 60 394Q60 414 100 437Q175 367 251 236Q126 95 47 36Q15 54 15 72ZM235 72Q235 87 276 139T362 237Q280 363 280 394Q280 414 320 437Q395 367
471 236Q346 94 267 36Q235 54 235 72Z" />
<glyph unicode="&#xbc;" glyph-name="onequarter" horiz-adv-x="952" d="M316 261Q316 216 264 216H115Q96 216 70 213Q66 227 66 238Q66 280 133 280H156Q192 530 199 602Q163 596 118 580Q110 595 110 610Q110 648 159 660Q221 674 249 674Q267 674 281 666T295
640Q295 630 285 575T261 435T245 276Q255 276 313 282Q316 271 316 261ZM204 -53L553 528Q633 661 674 740Q738 740 738 711Q738 700 729 685L380 105Q289 -46 258 -107Q196 -105 196 -76Q196 -65 204 -53ZM763 349Q757 343 734 321T696 284T657 242T617 191H742Q746
229 753 282T763 349ZM860 455Q860 452 845 368T820 199Q841 200 880 213Q886 194 886 178Q886 148 867 138T810 127Q805 82 805 56Q805 25 809 4Q781 -10 763 -10Q715 -10 715 21Q715 41 731 126H703Q626 126 566 133Q538 136 538 164Q538 178 544 198Q584 257
653 331T769 444Q785 457 823 457Q836 457 860 455Z" />
<glyph unicode="&#xbd;" glyph-name="onehalf" horiz-adv-x="967" d="M647 324Q606 327 606 353Q606 384 660 418T774 452Q834 452 869 423T905 346Q905 281 841 205T657 67H708Q834 67 885 91Q900 69 900 48Q900 19 873 11Q837 -1 724 -1Q643 -1 589 1Q551 1
551 38Q551 54 556 72Q677 135 745 205T813 331Q813 357 793 372T739 388Q717 388 691 370T647 324ZM316 261Q316 216 264 216H115Q96 216 70 213Q66 227 66 238Q66 280 133 280H156Q192 530 199 602Q163 596 118 580Q110 595 110 610Q110 648 159 660Q221 674
249 674Q267 674 281 666T295 640Q295 630 285 575T261 435T245 276Q255 276 313 282Q316 271 316 261ZM204 -53L553 528Q633 661 674 740Q738 740 738 711Q738 700 729 685L380 105Q289 -46 258 -107Q196 -105 196 -76Q196 -65 204 -53Z" />
<glyph unicode="&#xbe;" glyph-name="threequarters" horiz-adv-x="968" d="M161 423V475H182Q301 475 301 565Q301 610 252 610Q215 610 164 556Q113 569 113 592Q113 625 164 649T265 674Q394 674 394 580Q394 491 307 456Q371 428 371 362Q371 299 321 252T181
204Q130 204 94 220T57 266Q57 293 112 312Q144 268 191 268Q231 268 255 293T280 362Q280 425 203 425Q188 425 161 423ZM220 -53L569 528Q649 661 690 740Q754 740 754 711Q754 700 745 685L396 105Q305 -46 274 -107Q212 -105 212 -76Q212 -65 220 -53ZM779
349Q773 343 750 321T712 284T673 242T633 191H758Q762 229 769 282T779 349ZM876 455Q876 452 861 368T836 199Q857 200 896 213Q902 194 902 178Q902 148 883 138T826 127Q821 82 821 56Q821 25 825 4Q797 -10 779 -10Q731 -10 731 21Q731 41 747 126H719Q642
126 582 133Q554 136 554 164Q554 178 560 198Q600 257 669 331T785 444Q801 457 839 457Q852 457 876 455Z" />
<glyph unicode="&#xbf;" glyph-name="questiondown" horiz-adv-x="385" d="M249 484Q274 484 291 467T309 420Q309 385 285 358T229 331Q204 331 188 349T171 396Q171 432 193 458T249 484ZM181 243L191 250Q213 261 236 261Q288 261 288 209Q288 165 264 129T192
48Q164 21 150 5T119 -41T103 -99Q103 -125 117 -137T155 -150Q187 -150 218 -128T261 -73Q328 -86 328 -119Q328 -162 278 -190T162 -218Q94 -218 47 -188T0 -95Q0 -18 103 73Q132 98 144 111T171 151T185 208Q185 226 181 243Z" />
<glyph unicode="&#xc0;" glyph-name="Agrave" horiz-adv-x="541" d="M201 823Q174 840 174 866Q174 902 215 920Q260 863 361 790Q380 777 380 756Q380 731 361 714Q348 726 287 765T201 823ZM353 275Q322 406 308 514Q253 374 205 276Q259 274 294 274Q334 274
353 275ZM269 199Q246 199 170 201Q86 14 77 -13Q29 -9 10 0T-10 29Q-10 45 9 85T72 210T150 374Q157 390 183 446T230 550T271 656Q300 663 329 663Q356 663 369 652T389 610Q390 607 413 480T454 280Q498 87 525 10Q487 -10 454 -10Q414 -10 406 27Q375 173 370
201Q288 199 269 199Z" />
<glyph unicode="&#xc1;" glyph-name="Aacute" horiz-adv-x="541" d="M426 801Q401 787 336 757T255 715Q231 739 231 758Q231 778 254 790Q282 803 338 838T424 899Q457 882 457 848Q457 819 426 801ZM353 275Q322 406 308 514Q253 374 205 276Q259 274 294 274Q334
274 353 275ZM269 199Q246 199 170 201Q86 14 77 -13Q29 -9 10 0T-10 29Q-10 45 9 85T72 210T150 374Q157 390 183 446T230 550T271 656Q300 663 329 663Q356 663 369 652T389 610Q390 607 413 480T454 280Q498 87 525 10Q487 -10 454 -10Q414 -10 406 27Q375 173
370 201Q288 199 269 199Z" />
<glyph unicode="&#xc2;" glyph-name="Acircumflex" horiz-adv-x="541" d="M467 758Q467 727 424 709Q410 730 388 751T350 784L335 796Q238 721 210 721Q190 721 180 747Q276 845 349 892Q467 800 467 758ZM353 275Q322 406 308 514Q253 374 205 276Q259 274 294
274Q334 274 353 275ZM269 199Q246 199 170 201Q86 14 77 -13Q29 -9 10 0T-10 29Q-10 45 9 85T72 210T150 374Q157 390 183 446T230 550T271 656Q300 663 329 663Q356 663 369 652T389 610Q390 607 413 480T454 280Q498 87 525 10Q487 -10 454 -10Q414 -10 406
27Q375 173 370 201Q288 199 269 199Z" />
<glyph unicode="&#xc3;" glyph-name="Atilde" horiz-adv-x="541" d="M353 275Q322 406 308 514Q253 374 205 276Q259 274 294 274Q334 274 353 275ZM269 199Q246 199 170 201Q86 14 77 -13Q29 -9 10 0T-10 29Q-10 45 9 85T72 210T150 374Q157 390 183 446T230
550T271 656Q300 663 329 663Q356 663 369 652T389 610Q390 607 413 480T454 280Q498 87 525 10Q487 -10 454 -10Q414 -10 406 27Q375 173 370 201Q288 199 269 199ZM492 810Q492 777 452 749T373 720Q344 720 310 742T268 764Q253 764 210 718Q182 732 182 756Q186
785 223 811T301 837Q325 837 359 815T405 793Q423 793 462 838Q492 830 492 810Z" />
<glyph unicode="&#xc4;" glyph-name="Adieresis" horiz-adv-x="541" d="M353 275Q322 406 308 514Q253 374 205 276Q259 274 294 274Q334 274 353 275ZM269 199Q246 199 170 201Q86 14 77 -13Q29 -9 10 0T-10 29Q-10 45 9 85T72 210T150 374Q157 390 183 446T230
550T271 656Q300 663 329 663Q356 663 369 652T389 610Q390 607 413 480T454 280Q498 87 525 10Q487 -10 454 -10Q414 -10 406 27Q375 173 370 201Q288 199 269 199ZM401 721Q376 721 361 737T345 782Q345 814 367 837T418 860Q441 860 457 842T474 796Q474 765
451 743T401 721ZM228 721Q203 721 188 737T172 782Q172 814 194 837T245 860Q268 860 284 842T301 796Q301 765 278 743T228 721Z" />
<glyph unicode="&#xc5;" glyph-name="Aring" horiz-adv-x="541" d="M344 852Q324 852 312 837T299 798Q299 758 331 758Q350 758 362 774T374 812Q374 852 344 852ZM324 710Q288 710 265 732T242 789Q242 834 273 867T351 900Q388 900 410 879T432 822Q432 777
402 744T324 710ZM353 275Q322 406 308 514Q253 374 205 276Q259 274 294 274Q334 274 353 275ZM269 199Q246 199 170 201Q86 14 77 -13Q29 -9 10 0T-10 29Q-10 45 9 85T72 210T150 374Q157 390 183 446T230 550T271 656Q300 663 329 663Q356 663 369 652T389 610Q390
607 413 480T454 280Q498 87 525 10Q487 -10 454 -10Q414 -10 406 27Q375 173 370 201Q288 199 269 199Z" />
<glyph unicode="&#xc6;" glyph-name="AE" horiz-adv-x="738" d="M311 281H350Q374 451 383 551Q366 523 313 432T223 283Q279 281 311 281ZM731 564Q689 585 583 585Q542 585 494 582Q492 534 472 394Q601 394 631 398Q633 384 633 370Q633 319 591 316Q569 315
461 315Q435 103 435 77Q461 75 485 75Q535 75 586 82T653 99Q666 63 666 40Q666 11 633 4T505 -3Q386 -3 358 -1Q337 0 329 8T320 34Q320 67 339 207H271Q253 207 165 209Q54 28 36 -10Q3 -8 -19 4T-42 36Q-42 50 -32 64Q49 176 132 298Q275 508 354 654Q459 665
596 665Q732 665 748 650Q753 639 753 622Q753 592 731 564Z" />
<glyph unicode="&#xc7;" glyph-name="Ccedilla" horiz-adv-x="535" d="M423 150Q488 126 488 87Q488 51 435 23T307 -9Q297 -31 297 -40Q297 -45 314 -55T349 -85T366 -130Q366 -178 319 -211T217 -244Q171 -244 171 -217Q171 -197 202 -170Q214 -184 239 -184Q254
-184 267 -175T280 -148Q280 -131 252 -109T224 -67Q224 -41 244 -6Q151 8 99 80T46 264Q46 445 142 559T390 673Q459 673 504 645T550 574Q550 543 526 523T464 498Q455 547 425 571T358 596Q272 596 217 504T162 290Q162 191 197 129T301 67Q376 67 423 150Z"
/>
<glyph unicode="&#xc8;" glyph-name="Egrave" horiz-adv-x="475" d="M197 823Q170 840 170 866Q170 902 211 920Q256 863 357 790Q376 777 376 756Q376 731 357 714Q344 726 283 765T197 823ZM468 564Q426 585 320 585Q279 585 231 582Q229 534 209 394Q338 394
368 398Q370 384 370 370Q370 319 328 316Q306 315 198 315Q172 103 172 77Q198 75 222 75Q272 75 323 82T390 99Q403 63 403 40Q403 11 370 4T242 -3Q123 -3 95 -1Q74 0 66 8T57 34Q57 62 90 306T124 631Q124 649 123 656Q226 665 333 665Q469 665 485 650Q490
639 490 622Q490 592 468 564Z" />
<glyph unicode="&#xc9;" glyph-name="Eacute" horiz-adv-x="475" d="M435 801Q410 787 345 757T264 715Q240 739 240 758Q240 778 263 790Q291 803 347 838T433 899Q466 882 466 848Q466 819 435 801ZM468 564Q426 585 320 585Q279 585 231 582Q229 534 209 394Q338
394 368 398Q370 384 370 370Q370 319 328 316Q306 315 198 315Q172 103 172 77Q198 75 222 75Q272 75 323 82T390 99Q403 63 403 40Q403 11 370 4T242 -3Q123 -3 95 -1Q74 0 66 8T57 34Q57 62 90 306T124 631Q124 649 123 656Q226 665 333 665Q469 665 485 650Q490
639 490 622Q490 592 468 564Z" />
<glyph unicode="&#xca;" glyph-name="Ecircumflex" horiz-adv-x="475" d="M457 758Q457 727 414 709Q400 730 378 751T340 784L325 796Q228 721 200 721Q180 721 170 747Q266 845 339 892Q457 800 457 758ZM468 564Q426 585 320 585Q279 585 231 582Q229 534 209
394Q338 394 368 398Q370 384 370 370Q370 319 328 316Q306 315 198 315Q172 103 172 77Q198 75 222 75Q272 75 323 82T390 99Q403 63 403 40Q403 11 370 4T242 -3Q123 -3 95 -1Q74 0 66 8T57 34Q57 62 90 306T124 631Q124 649 123 656Q226 665 333 665Q469 665
485 650Q490 639 490 622Q490 592 468 564Z" />
<glyph unicode="&#xcb;" glyph-name="Edieresis" horiz-adv-x="470" d="M463 564Q421 585 315 585Q279 585 231 582Q229 534 209 394Q338 394 368 398Q370 384 370 370Q370 319 328 316Q306 315 198 315Q172 103 172 77Q198 75 237 75Q287 75 338 82T405 99Q418
63 418 40Q418 11 385 4T257 -3Q123 -3 95 -1Q74 0 66 8T57 34Q57 62 90 306T124 631Q124 649 123 656Q226 665 328 665Q464 665 480 650Q485 639 485 622Q485 592 463 564ZM409 721Q384 721 369 737T353 782Q353 814 375 837T426 860Q449 860 465 842T482 796Q482
765 459 743T409 721ZM236 721Q211 721 196 737T180 782Q180 814 202 837T253 860Q276 860 292 842T309 796Q309 765 286 743T236 721Z" />
<glyph unicode="&#xcc;" glyph-name="Igrave" horiz-adv-x="266" d="M67 823Q40 840 40 866Q40 902 81 920Q126 863 227 790Q246 777 246 756Q246 731 227 714Q214 726 153 765T67 823ZM130 663Q159 666 183 666Q243 666 243 623Q243 618 239 593T226 515T210
404L184 203Q172 115 172 66Q172 32 176 5Q141 -3 116 -3Q57 -3 57 49Q57 56 61 90T79 220T107 431Q126 581 130 663Z" />
<glyph unicode="&#xcd;" glyph-name="Iacute" horiz-adv-x="259" d="M302 801Q277 787 212 757T131 715Q107 739 107 758Q107 778 130 790Q158 803 214 838T300 899Q333 882 333 848Q333 819 302 801ZM130 663Q159 666 183 666Q243 666 243 623Q243 618 239 593T226
515T210 404L184 203Q172 115 172 66Q172 32 176 5Q141 -3 116 -3Q57 -3 57 49Q57 56 61 90T79 220T107 431Q126 581 130 663Z" />
<glyph unicode="&#xce;" glyph-name="Icircumflex" horiz-adv-x="259" d="M334 758Q334 727 291 709Q277 730 255 751T217 784L202 796Q105 721 77 721Q57 721 47 747Q143 845 216 892Q334 800 334 758ZM130 663Q159 666 183 666Q243 666 243 623Q243 618 239
593T226 515T210 404L184 203Q172 115 172 66Q172 32 176 5Q141 -3 116 -3Q57 -3 57 49Q57 56 61 90T79 220T107 431Q126 581 130 663Z" />
<glyph unicode="&#xcf;" glyph-name="Idieresis" horiz-adv-x="259" d="M130 663Q159 666 183 666Q243 666 243 623Q243 618 239 593T226 515T210 404L184 203Q172 115 172 66Q172 32 176 5Q141 -3 116 -3Q57 -3 57 49Q57 56 61 90T79 220T107 431Q126 581 130
663ZM285 721Q260 721 245 737T229 782Q229 814 251 837T302 860Q325 860 341 842T358 796Q358 765 335 743T285 721ZM112 721Q87 721 72 737T56 782Q56 814 78 837T129 860Q152 860 168 842T185 796Q185 765 162 743T112 721Z" />
<glyph unicode="&#xd0;" glyph-name="Eth" horiz-adv-x="622" d="M239 315H225Q209 210 188 103Q224 67 285 67Q340 67 381 97T444 177T476 277T487 379Q487 487 441 541T308 596Q290 596 258 592Q251 508 236 394Q354 394 385 398Q387 380 387 371Q387 319 342
316Q321 315 239 315ZM72 53Q98 171 119 315Q67 315 40 311Q38 329 38 338Q38 389 83 393Q93 394 130 394Q149 543 152 661Q209 673 301 673Q604 673 604 404Q604 296 566 204T448 51T263 -10Q135 -10 72 53Z" />
<glyph unicode="&#xd1;" glyph-name="Ntilde" horiz-adv-x="596" d="M500 1Q480 -3 455 -3Q405 -3 394 24Q360 102 295 267T208 488Q203 452 192 368T176 238T165 139T159 59Q159 39 163 5Q139 -3 113 -3Q81 -3 69 6T57 35Q57 44 61 76T72 155T83 231Q90 286 99
355T112 459T120 533T124 604Q124 636 120 659Q145 667 180 667Q222 667 242 638Q277 586 331 462T431 211L457 431Q476 590 480 663Q501 666 523 666Q580 666 580 632Q580 625 574 593T560 506T545 404Q539 355 527 263T509 112T500 1ZM522 810Q522 777 482 749T403
720Q374 720 340 742T298 764Q283 764 240 718Q212 732 212 756Q216 785 253 811T331 837Q355 837 389 815T435 793Q453 793 492 838Q522 830 522 810Z" />
<glyph unicode="&#xd2;" glyph-name="Ograve" horiz-adv-x="645" d="M250 823Q223 840 223 866Q223 902 264 920Q309 863 410 790Q429 777 429 756Q429 731 410 714Q397 726 336 765T250 823ZM290 -10Q175 -10 111 63T46 263Q46 438 139 556T379 674Q496 674 561
602T627 402Q627 230 534 110T290 -10ZM365 596Q272 596 217 508T162 290Q162 245 170 206T194 135T238 85T305 66Q370 66 417 111T487 226T509 378Q509 472 474 534T365 596Z" />
<glyph unicode="&#xd3;" glyph-name="Oacute" horiz-adv-x="645" d="M502 801Q477 787 412 757T331 715Q307 739 307 758Q307 778 330 790Q358 803 414 838T500 899Q533 882 533 848Q533 819 502 801ZM290 -10Q175 -10 111 63T46 263Q46 438 139 556T379 674Q496
674 561 602T627 402Q627 230 534 110T290 -10ZM365 596Q272 596 217 508T162 290Q162 245 170 206T194 135T238 85T305 66Q370 66 417 111T487 226T509 378Q509 472 474 534T365 596Z" />
<glyph unicode="&#xd4;" glyph-name="Ocircumflex" horiz-adv-x="645" d="M523 758Q523 727 480 709Q466 730 444 751T406 784L391 796Q294 721 266 721Q246 721 236 747Q332 845 405 892Q523 800 523 758ZM290 -10Q175 -10 111 63T46 263Q46 438 139 556T379
674Q496 674 561 602T627 402Q627 230 534 110T290 -10ZM365 596Q272 596 217 508T162 290Q162 245 170 206T194 135T238 85T305 66Q370 66 417 111T487 226T509 378Q509 472 474 534T365 596Z" />
<glyph unicode="&#xd5;" glyph-name="Otilde" horiz-adv-x="645" d="M290 -10Q175 -10 111 63T46 263Q46 438 139 556T379 674Q496 674 561 602T627 402Q627 230 534 110T290 -10ZM365 596Q272 596 217 508T162 290Q162 245 170 206T194 135T238 85T305 66Q370
66 417 111T487 226T509 378Q509 472 474 534T365 596ZM541 810Q541 777 501 749T422 720Q393 720 359 742T317 764Q302 764 259 718Q231 732 231 756Q235 785 272 811T350 837Q374 837 408 815T454 793Q472 793 511 838Q541 830 541 810Z" />
<glyph unicode="&#xd6;" glyph-name="Odieresis" horiz-adv-x="645" d="M290 -10Q175 -10 111 63T46 263Q46 438 139 556T379 674Q496 674 561 602T627 402Q627 230 534 110T290 -10ZM365 596Q272 596 217 508T162 290Q162 245 170 206T194 135T238 85T305 66Q370
66 417 111T487 226T509 378Q509 472 474 534T365 596ZM476 721Q451 721 436 737T420 782Q420 814 442 837T493 860Q516 860 532 842T549 796Q549 765 526 743T476 721ZM303 721Q278 721 263 737T247 782Q247 814 269 837T320 860Q343 860 359 842T376 796Q376
765 353 743T303 721Z" />
<glyph unicode="&#xd7;" glyph-name="multiply" horiz-adv-x="574" d="M431 470Q453 458 471 440T490 407Q490 393 475 378Q461 365 409 316T342 254Q444 152 504 104Q480 59 437 59Q414 59 403 70Q393 80 346 131T284 197Q205 119 137 37Q118 50 108 57T89 77T79
103T94 131Q106 144 228 255Q120 358 67 406Q96 452 133 452Q155 452 168 439Q184 423 285 312Q383 410 431 470Z" />
<glyph unicode="&#xd8;" glyph-name="Oslash" horiz-adv-x="645" d="M509 378Q509 438 494 488Q325 228 234 87Q265 66 305 66Q370 66 417 111T487 226T509 378ZM365 596Q272 596 217 508T162 290Q162 208 185 152Q422 516 451 562Q417 596 365 596ZM504 645L564
744Q591 742 609 732T627 706Q627 696 564 598Q627 526 627 402Q627 230 534 110T290 -10Q232 -10 184 10Q141 -61 129 -83Q100 -81 83 -71T66 -45Q66 -42 67 -38T70 -29T76 -19T84 -6T94 10T107 29T122 52Q46 125 46 263Q46 438 139 556T379 674Q451 674 504 645Z"
/>
<glyph unicode="&#xd9;" glyph-name="Ugrave" horiz-adv-x="609" d="M248 823Q221 840 221 866Q221 902 262 920Q307 863 408 790Q427 777 427 756Q427 731 408 714Q395 726 334 765T248 823ZM438 290Q476 573 480 663Q508 666 533 666Q563 666 578 657T593 623Q593
620 586 580T564 436T534 203Q522 93 522 61T526 5Q488 -3 463 -3Q407 -3 407 49Q407 55 418 132Q377 64 321 27T211 -10Q146 -10 111 38T75 157Q75 182 100 371T130 663Q157 666 181 666Q243 666 243 624Q243 621 239 597T227 525T212 429Q182 215 182 180Q182
137 198 108T248 78Q296 78 352 138T438 290Z" />
<glyph unicode="&#xda;" glyph-name="Uacute" horiz-adv-x="609" d="M500 801Q475 787 410 757T329 715Q305 739 305 758Q305 778 328 790Q356 803 412 838T498 899Q531 882 531 848Q531 819 500 801ZM438 290Q476 573 480 663Q508 666 533 666Q563 666 578 657T593
623Q593 620 586 580T564 436T534 203Q522 93 522 61T526 5Q488 -3 463 -3Q407 -3 407 49Q407 55 418 132Q377 64 321 27T211 -10Q146 -10 111 38T75 157Q75 182 100 371T130 663Q157 666 181 666Q243 666 243 624Q243 621 239 597T227 525T212 429Q182 215 182
180Q182 137 198 108T248 78Q296 78 352 138T438 290Z" />
<glyph unicode="&#xdb;" glyph-name="Ucircumflex" horiz-adv-x="609" d="M518 758Q518 727 475 709Q461 730 439 751T401 784L386 796Q289 721 261 721Q241 721 231 747Q327 845 400 892Q518 800 518 758ZM438 290Q476 573 480 663Q508 666 533 666Q563 666 578
657T593 623Q593 620 586 580T564 436T534 203Q522 93 522 61T526 5Q488 -3 463 -3Q407 -3 407 49Q407 55 418 132Q377 64 321 27T211 -10Q146 -10 111 38T75 157Q75 182 100 371T130 663Q157 666 181 666Q243 666 243 624Q243 621 239 597T227 525T212 429Q182
215 182 180Q182 137 198 108T248 78Q296 78 352 138T438 290Z" />
<glyph unicode="&#xdc;" glyph-name="Udieresis" horiz-adv-x="609" d="M438 290Q476 573 480 663Q508 666 533 666Q563 666 578 657T593 623Q593 620 586 580T564 436T534 203Q522 93 522 61T526 5Q488 -3 463 -3Q407 -3 407 49Q407 55 418 132Q377 64 321 27T211
-10Q146 -10 111 38T75 157Q75 182 100 371T130 663Q157 666 181 666Q243 666 243 624Q243 621 239 597T227 525T212 429Q182 215 182 180Q182 137 198 108T248 78Q296 78 352 138T438 290ZM469 721Q444 721 429 737T413 782Q413 814 435 837T486 860Q509 860 525
842T542 796Q542 765 519 743T469 721ZM296 721Q271 721 256 737T240 782Q240 814 262 837T313 860Q336 860 352 842T369 796Q369 765 346 743T296 721Z" />
<glyph unicode="&#xdd;" glyph-name="Yacute" horiz-adv-x="468" d="M426 801Q401 787 336 757T255 715Q231 739 231 758Q231 778 254 790Q282 803 338 838T424 899Q457 882 457 848Q457 819 426 801ZM521 620Q521 587 341 356Q317 325 305 309L291 203Q279 115
279 66Q279 32 283 5Q248 -3 223 -3Q164 -3 164 49Q164 55 167 78T179 171T199 313Q106 569 47 619Q93 667 128 667Q164 667 181 633Q237 518 275 395Q413 614 424 672Q521 672 521 620Z" />
<glyph unicode="&#xde;" glyph-name="Thorn" horiz-adv-x="491" d="M224 559Q232 560 250 560Q481 560 481 380Q481 261 416 192T268 122Q208 122 170 154Q164 100 164 60Q164 28 168 4Q144 -4 104 -4Q48 -4 48 38Q48 47 52 79T64 156T74 230L99 454Q119 630 119
663Q141 666 176 666Q234 666 234 633Q234 625 224 559ZM212 479L179 224Q209 199 244 199Q304 199 335 248T366 374Q366 436 339 459T260 483Q235 483 212 479Z" />
<glyph unicode="&#xdf;" glyph-name="germandbls" horiz-adv-x="512" d="M260 127Q261 95 277 78T315 61Q338 61 353 82T369 135Q369 167 347 195T297 240T248 286T225 348Q225 372 238 392T271 428T308 458T340 496T354 545T341 587T305 602Q268 602 232 574T190
483Q150 87 121 -31Q112 -68 89 -97T31 -127Q-13 -127 -28 -79Q8 -69 36 45T92 451Q102 554 176 613T328 673Q385 673 422 648T460 578Q460 538 446 508T411 460T370 428T335 397T320 362Q320 344 336 326T374 289T419 251T458 203T474 141Q474 82 423 36T303 -10Q257
-10 223 10T189 62Q189 111 260 127Z" />
<glyph unicode="&#xe0;" glyph-name="agrave" horiz-adv-x="516" d="M162 633Q135 650 135 676Q135 712 176 730Q221 673 322 600Q341 587 341 566Q341 541 322 524Q309 536 248 575T162 633ZM318 94Q249 -10 165 -10Q108 -10 73 36T37 170Q37 299 106 391T277
484Q387 484 472 427Q423 203 423 116Q423 69 461 52Q457 29 439 10T388 -10Q355 -10 336 14T317 75Q317 88 318 94ZM329 206L356 376Q317 418 276 418Q226 418 193 355T160 191Q160 137 176 102T220 66Q244 66 275 105T329 206Z" />
<glyph unicode="&#xe1;" glyph-name="aacute" horiz-adv-x="516" d="M416 611Q391 597 326 567T245 525Q221 549 221 568Q221 588 244 600Q272 613 328 648T414 709Q447 692 447 658Q447 629 416 611ZM318 94Q249 -10 165 -10Q108 -10 73 36T37 170Q37 299 106
391T277 484Q387 484 472 427Q423 203 423 116Q423 69 461 52Q457 29 439 10T388 -10Q355 -10 336 14T317 75Q317 88 318 94ZM329 206L356 376Q317 418 276 418Q226 418 193 355T160 191Q160 137 176 102T220 66Q244 66 275 105T329 206Z" />
<glyph unicode="&#xe2;" glyph-name="acircumflex" horiz-adv-x="516" d="M432 568Q432 537 389 519Q375 540 353 561T315 594L300 606Q203 531 175 531Q155 531 145 557Q241 655 314 702Q432 610 432 568ZM318 94Q249 -10 165 -10Q108 -10 73 36T37 170Q37 299
106 391T277 484Q387 484 472 427Q423 203 423 116Q423 69 461 52Q457 29 439 10T388 -10Q355 -10 336 14T317 75Q317 88 318 94ZM329 206L356 376Q317 418 276 418Q226 418 193 355T160 191Q160 137 176 102T220 66Q244 66 275 105T329 206Z" />
<glyph unicode="&#xe3;" glyph-name="atilde" horiz-adv-x="516" d="M318 94Q249 -10 165 -10Q108 -10 73 36T37 170Q37 299 106 391T277 484Q387 484 472 427Q423 203 423 116Q423 69 461 52Q457 29 439 10T388 -10Q355 -10 336 14T317 75Q317 88 318 94ZM329
206L356 376Q317 418 276 418Q226 418 193 355T160 191Q160 137 176 102T220 66Q244 66 275 105T329 206ZM451 620Q451 587 411 559T332 530Q303 530 269 552T227 574Q212 574 169 528Q141 542 141 566Q145 595 182 621T260 647Q284 647 318 625T364 603Q382 603
421 648Q451 640 451 620Z" />
<glyph unicode="&#xe4;" glyph-name="adieresis" horiz-adv-x="516" d="M318 94Q249 -10 165 -10Q108 -10 73 36T37 170Q37 299 106 391T277 484Q387 484 472 427Q423 203 423 116Q423 69 461 52Q457 29 439 10T388 -10Q355 -10 336 14T317 75Q317 88 318 94ZM329
206L356 376Q317 418 276 418Q226 418 193 355T160 191Q160 137 176 102T220 66Q244 66 275 105T329 206ZM385 531Q360 531 345 547T329 592Q329 624 351 647T402 670Q425 670 441 652T458 606Q458 575 435 553T385 531ZM212 531Q187 531 172 547T156 592Q156 624
178 647T229 670Q252 670 268 652T285 606Q285 575 262 553T212 531Z" />
<glyph unicode="&#xe5;" glyph-name="aring" horiz-adv-x="516" d="M325 662Q305 662 293 647T280 608Q280 568 312 568Q331 568 343 584T355 622Q355 662 325 662ZM305 520Q269 520 246 542T223 599Q223 644 254 677T332 710Q369 710 391 689T413 632Q413 587
383 554T305 520ZM318 94Q249 -10 165 -10Q108 -10 73 36T37 170Q37 299 106 391T277 484Q387 484 472 427Q423 203 423 116Q423 69 461 52Q457 29 439 10T388 -10Q355 -10 336 14T317 75Q317 88 318 94ZM329 206L356 376Q317 418 276 418Q226 418 193 355T160
191Q160 137 176 102T220 66Q244 66 275 105T329 206Z" />
<glyph unicode="&#xe6;" glyph-name="ae" horiz-adv-x="721" d="M569 358Q569 384 557 401T524 419Q487 419 459 367T425 236Q444 236 457 237T494 246T531 265T557 301T569 358ZM300 183Q300 294 356 376Q317 418 276 418Q226 418 193 355T160 191Q160 137 176
102T220 66Q237 66 259 88T302 147Q300 169 300 183ZM424 179Q425 117 448 87T506 56Q534 56 561 75T605 126Q653 107 653 67Q653 36 606 13T498 -10Q438 -10 389 15T317 93Q248 -10 165 -10Q108 -10 73 36T37 170Q37 299 106 391T277 484Q375 484 435 438Q485
484 558 484Q625 484 659 450T693 363Q693 313 664 267T586 200Q532 177 457 177Q442 177 424 179Z" />
<glyph unicode="&#xe7;" glyph-name="ccedilla" horiz-adv-x="431" d="M339 337Q318 413 266 413T182 349T150 195Q150 125 173 91T233 56Q293 56 332 126Q380 107 380 67Q380 37 336 15T235 -10Q225 -28 225 -40Q225 -45 242 -55T277 -85T294 -130Q294 -178 247
-211T145 -244Q99 -244 99 -217Q99 -197 130 -170Q142 -184 167 -184Q182 -184 195 -175T208 -148Q208 -131 180 -109T152 -67Q152 -42 173 -5Q105 9 66 57T27 180T50 314T111 410T193 465T283 484Q333 484 377 464T421 403Q421 379 402 359T339 337Z" />
<glyph unicode="&#xe8;" glyph-name="egrave" horiz-adv-x="448" d="M131 633Q104 650 104 676Q104 712 145 730Q190 673 291 600Q310 587 310 566Q310 541 291 524Q278 536 217 575T131 633ZM151 179Q152 117 175 87T233 56Q261 56 288 75T332 126Q380 107 380
67Q380 36 333 13T225 -10Q187 -10 154 0T91 32T44 92T27 183Q27 256 51 315T113 410T196 465T285 484Q352 484 386 450T420 363Q420 313 391 267T313 200Q259 177 184 177Q169 177 151 179ZM296 358Q296 384 284 401T251 419Q214 419 186 367T152 236Q171 236
184 237T221 246T258 265T284 301T296 358Z" />
<glyph unicode="&#xe9;" glyph-name="eacute" horiz-adv-x="448" d="M385 611Q360 597 295 567T214 525Q190 549 190 568Q190 588 213 600Q241 613 297 648T383 709Q416 692 416 658Q416 629 385 611ZM151 179Q152 117 175 87T233 56Q261 56 288 75T332 126Q380
107 380 67Q380 36 333 13T225 -10Q187 -10 154 0T91 32T44 92T27 183Q27 256 51 315T113 410T196 465T285 484Q352 484 386 450T420 363Q420 313 391 267T313 200Q259 177 184 177Q169 177 151 179ZM296 358Q296 384 284 401T251 419Q214 419 186 367T152 236Q171
236 184 237T221 246T258 265T284 301T296 358Z" />
<glyph unicode="&#xea;" glyph-name="ecircumflex" horiz-adv-x="448" d="M406 568Q406 537 363 519Q349 540 327 561T289 594L274 606Q177 531 149 531Q129 531 119 557Q215 655 288 702Q406 610 406 568ZM151 179Q152 117 175 87T233 56Q261 56 288 75T332 126Q380
107 380 67Q380 36 333 13T225 -10Q187 -10 154 0T91 32T44 92T27 183Q27 256 51 315T113 410T196 465T285 484Q352 484 386 450T420 363Q420 313 391 267T313 200Q259 177 184 177Q169 177 151 179ZM296 358Q296 384 284 401T251 419Q214 419 186 367T152 236Q171
236 184 237T221 246T258 265T284 301T296 358Z" />
<glyph unicode="&#xeb;" glyph-name="edieresis" horiz-adv-x="456" d="M151 179Q152 117 175 87T233 56Q261 56 288 75T332 126Q380 107 380 67Q380 36 333 13T225 -10Q187 -10 154 0T91 32T44 92T27 183Q27 256 51 315T113 410T196 465T285 484Q352 484 386
450T420 363Q420 313 391 267T313 200Q259 177 184 177Q169 177 151 179ZM296 358Q296 384 284 401T251 419Q214 419 186 367T152 236Q171 236 184 237T221 246T258 265T284 301T296 358ZM355 531Q330 531 315 547T299 592Q299 624 321 647T372 670Q395 670 411
652T428 606Q428 575 405 553T355 531ZM182 531Q157 531 142 547T126 592Q126 624 148 647T199 670Q222 670 238 652T255 606Q255 575 232 553T182 531Z" />
<glyph unicode="&#xec;" glyph-name="igrave" horiz-adv-x="234" d="M27 633Q0 650 0 676Q0 712 41 730Q86 673 187 600Q206 587 206 566Q206 541 187 524Q174 536 113 575T27 633ZM84 366Q84 404 57 417Q60 447 83 465T135 484Q161 484 179 468T197 421Q197 383
175 252T153 108Q153 68 190 52Q186 26 168 8T120 -10Q83 -10 66 17T48 81Q48 127 66 229T84 366Z" />
<glyph unicode="&#xed;" glyph-name="iacute" horiz-adv-x="234" d="M231 611Q206 597 141 567T60 525Q36 549 36 568Q36 588 59 600Q87 613 143 648T229 709Q262 692 262 658Q262 629 231 611ZM84 366Q84 404 57 417Q60 447 83 465T135 484Q161 484 179 468T197
421Q197 383 175 252T153 108Q153 68 190 52Q186 26 168 8T120 -10Q83 -10 66 17T48 81Q48 127 66 229T84 366Z" />
<glyph unicode="&#xee;" glyph-name="icircumflex" horiz-adv-x="234" d="M274 568Q274 537 231 519Q217 540 195 561T157 594L142 606Q45 531 17 531Q-3 531 -13 557Q83 655 156 702Q274 610 274 568ZM84 366Q84 404 57 417Q60 447 83 465T135 484Q161 484 179
468T197 421Q197 383 175 252T153 108Q153 68 190 52Q186 26 168 8T120 -10Q83 -10 66 17T48 81Q48 127 66 229T84 366Z" />
<glyph unicode="&#xef;" glyph-name="idieresis" horiz-adv-x="232" d="M87 366Q87 404 60 417Q63 447 86 465T138 484Q164 484 182 468T200 421Q200 383 173 252T145 108Q145 68 182 52Q178 26 160 8T112 -10Q75 -10 58 17T40 81Q40 128 63 230T87 366ZM226 531Q201
531 186 547T170 592Q170 624 192 647T243 670Q266 670 282 652T299 606Q299 575 276 553T226 531ZM53 531Q28 531 13 547T-3 592Q-3 624 19 647T70 670Q93 670 109 652T126 606Q126 575 103 553T53 531Z" />
<glyph unicode="&#xf0;" glyph-name="eth" horiz-adv-x="553" d="M277 413Q217 413 182 354T147 211Q147 146 170 104T237 62Q298 62 332 123T366 270Q366 333 343 373T277 413ZM447 670Q438 664 413 647T375 621Q435 569 460 507T485 359Q485 289 471 226T426
109T344 22T221 -10Q135 -10 85 43T34 189Q34 322 107 403T272 484Q300 484 320 477T367 444Q350 526 305 572L219 511Q183 526 183 551Q183 572 202 588Q221 600 243 615Q206 635 152 645Q149 654 149 667Q149 698 179 698Q236 698 313 661Q372 700 435 749Q466
727 466 702Q466 685 447 670Z" />
<glyph unicode="&#xf1;" glyph-name="ntilde" horiz-adv-x="504" d="M182 259Q162 109 162 59Q162 30 165 5Q126 -4 99 -4Q44 -4 44 31Q44 44 66 189T89 363Q89 405 61 417Q65 448 88 466T139 484Q165 484 183 468T201 422Q201 404 198 386Q227 433 268 458T348
484Q397 484 423 449T450 358Q450 340 433 238T413 108Q413 69 450 52Q446 24 425 7T377 -10Q347 -10 326 13T305 80Q305 122 323 222T341 342Q341 407 301 407Q271 407 239 366T182 259ZM442 620Q442 587 402 559T323 530Q294 530 260 552T218 574Q203 574 160
528Q132 542 132 566Q136 595 173 621T251 647Q275 647 309 625T355 603Q373 603 412 648Q442 640 442 620Z" />
<glyph unicode="&#xf2;" glyph-name="ograve" horiz-adv-x="501" d="M159 633Q132 650 132 676Q132 712 173 730Q218 673 319 600Q338 587 338 566Q338 541 319 524Q306 536 245 575T159 633ZM213 -10Q125 -10 76 41T27 185Q27 311 99 397T283 484Q373 484 423
432T474 287Q474 162 400 76T213 -10ZM269 418Q214 418 182 353T150 201Q150 138 171 97T232 56Q286 56 318 120T350 269Q350 334 329 376T269 418Z" />
<glyph unicode="&#xf3;" glyph-name="oacute" horiz-adv-x="501" d="M412 611Q387 597 322 567T241 525Q217 549 217 568Q217 588 240 600Q268 613 324 648T410 709Q443 692 443 658Q443 629 412 611ZM213 -10Q125 -10 76 41T27 185Q27 311 99 397T283 484Q373
484 423 432T474 287Q474 162 400 76T213 -10ZM269 418Q214 418 182 353T150 201Q150 138 171 97T232 56Q286 56 318 120T350 269Q350 334 329 376T269 418Z" />
<glyph unicode="&#xf4;" glyph-name="ocircumflex" horiz-adv-x="501" d="M434 568Q434 537 391 519Q377 540 355 561T317 594L302 606Q205 531 177 531Q157 531 147 557Q243 655 316 702Q434 610 434 568ZM213 -10Q125 -10 76 41T27 185Q27 311 99 397T283 484Q373
484 423 432T474 287Q474 162 400 76T213 -10ZM269 418Q214 418 182 353T150 201Q150 138 171 97T232 56Q286 56 318 120T350 269Q350 334 329 376T269 418Z" />
<glyph unicode="&#xf5;" glyph-name="otilde" horiz-adv-x="501" d="M448 630Q448 597 408 569T329 540Q300 540 266 562T224 584Q209 584 166 538Q138 552 138 576Q142 605 179 631T257 657Q281 657 315 635T361 613Q379 613 418 658Q448 650 448 630ZM213 -10Q125
-10 76 41T27 185Q27 311 99 397T283 484Q373 484 423 432T474 287Q474 162 400 76T213 -10ZM269 418Q214 418 182 353T150 201Q150 138 171 97T232 56Q286 56 318 120T350 269Q350 334 329 376T269 418Z" />
<glyph unicode="&#xf6;" glyph-name="odieresis" horiz-adv-x="501" d="M213 -10Q125 -10 76 41T27 185Q27 311 99 397T283 484Q373 484 423 432T474 287Q474 162 400 76T213 -10ZM269 418Q214 418 182 353T150 201Q150 138 171 97T232 56Q286 56 318 120T350
269Q350 334 329 376T269 418ZM389 531Q364 531 349 547T333 592Q333 624 355 647T406 670Q429 670 445 652T462 606Q462 575 439 553T389 531ZM216 531Q191 531 176 547T160 592Q160 624 182 647T233 670Q256 670 272 652T289 606Q289 575 266 553T216 531Z" />
<glyph unicode="&#xf7;" glyph-name="divide" horiz-adv-x="574" d="M498 260Q498 240 484 226T446 211Q430 211 374 215T294 219Q189 219 81 209Q76 234 76 248Q76 267 88 282T128 297Q131 297 188 294T292 290Q419 290 492 299Q498 282 498 260ZM297 359Q271
359 253 376T235 422Q235 449 253 467T297 486Q322 486 339 468T357 422Q357 394 340 377T297 359ZM297 22Q271 22 253 40T235 86Q235 112 253 131T297 150T339 131T357 86Q357 58 340 40T297 22Z" />
<glyph unicode="&#xf8;" glyph-name="oslash" horiz-adv-x="514" d="M350 269Q350 280 348 300L197 67Q213 56 232 56Q286 56 318 120T350 269ZM269 418Q214 418 182 353T150 201Q150 171 155 143Q192 200 245 281T318 392Q297 418 269 418ZM213 -10Q181 -10 152
-2Q119 -55 104 -84Q75 -82 58 -72T41 -46Q41 -35 85 32Q27 84 27 185Q27 311 99 397T283 484Q326 484 366 469Q371 476 424 564Q451 562 469 552T487 526Q487 516 429 425Q474 374 474 287Q474 162 400 76T213 -10Z" />
<glyph unicode="&#xf9;" glyph-name="ugrave" horiz-adv-x="501" d="M164 633Q137 650 137 676Q137 712 178 730Q223 673 324 600Q343 587 343 566Q343 541 324 524Q311 536 250 575T164 633ZM201 422Q201 380 180 266T159 132Q159 67 199 67Q229 67 261 108T318
215Q321 240 329 297T341 393T348 474Q373 481 404 481Q459 481 459 446Q459 440 457 427T450 387T442 338Q442 336 433 281T417 180T411 111Q411 69 439 57Q435 26 412 8T361 -10Q335 -10 317 6T299 52Q299 70 302 88Q273 41 232 16T152 -10Q103 -10 77 25T50
116Q50 134 69 242T88 374Q88 399 61 417Q63 441 84 462T139 484Q165 484 183 469T201 422Z" />
<glyph unicode="&#xfa;" glyph-name="uacute" horiz-adv-x="501" d="M416 611Q391 597 326 567T245 525Q221 549 221 568Q221 588 244 600Q272 613 328 648T414 709Q447 692 447 658Q447 629 416 611ZM201 422Q201 380 180 266T159 132Q159 67 199 67Q229 67 261
108T318 215Q321 240 329 297T341 393T348 474Q373 481 404 481Q459 481 459 446Q459 440 457 427T450 387T442 338Q442 336 433 281T417 180T411 111Q411 69 439 57Q435 26 412 8T361 -10Q335 -10 317 6T299 52Q299 70 302 88Q273 41 232 16T152 -10Q103 -10 77
25T50 116Q50 134 69 242T88 374Q88 399 61 417Q63 441 84 462T139 484Q165 484 183 469T201 422Z" />
<glyph unicode="&#xfb;" glyph-name="ucircumflex" horiz-adv-x="501" d="M426 568Q426 537 383 519Q369 540 347 561T309 594L294 606Q197 531 169 531Q149 531 139 557Q235 655 308 702Q426 610 426 568ZM201 422Q201 380 180 266T159 132Q159 67 199 67Q229
67 261 108T318 215Q321 240 329 297T341 393T348 474Q373 481 404 481Q459 481 459 446Q459 440 457 427T450 387T442 338Q442 336 433 281T417 180T411 111Q411 69 439 57Q435 26 412 8T361 -10Q335 -10 317 6T299 52Q299 70 302 88Q273 41 232 16T152 -10Q103
-10 77 25T50 116Q50 134 69 242T88 374Q88 399 61 417Q63 441 84 462T139 484Q165 484 183 469T201 422Z" />
<glyph unicode="&#xfc;" glyph-name="udieresis" horiz-adv-x="501" d="M201 422Q201 380 180 266T159 132Q159 67 199 67Q229 67 261 108T318 215Q321 240 329 297T341 393T348 474Q373 481 404 481Q459 481 459 446Q459 440 457 427T450 387T442 338Q442 336
433 281T417 180T411 111Q411 69 439 57Q435 26 412 8T361 -10Q335 -10 317 6T299 52Q299 70 302 88Q273 41 232 16T152 -10Q103 -10 77 25T50 116Q50 134 69 242T88 374Q88 399 61 417Q63 441 84 462T139 484Q165 484 183 469T201 422ZM362 531Q337 531 322 547T306
592Q306 624 328 647T379 670Q402 670 418 652T435 606Q435 575 412 553T362 531ZM189 531Q164 531 149 547T133 592Q133 624 155 647T206 670Q229 670 245 652T262 606Q262 575 239 553T189 531Z" />
<glyph unicode="&#xfd;" glyph-name="yacute" horiz-adv-x="433" d="M366 611Q341 597 276 567T195 525Q171 549 171 568Q171 588 194 600Q222 613 278 648T364 709Q397 692 397 658Q397 629 366 611ZM150 435Q196 306 216 121Q304 289 304 403Q304 431 292 465Q327
484 354 484Q418 484 418 417Q418 339 367 219T242 -7Q188 -84 148 -128T51 -201T-72 -230Q-121 -230 -155 -214T-190 -171Q-190 -138 -143 -110Q-114 -164 -60 -164Q34 -164 135 -10Q131 116 89 260T7 439Q45 484 82 484Q133 484 150 435Z" />
<glyph unicode="&#xfe;" glyph-name="thorn" horiz-adv-x="505" d="M205 394Q262 484 344 484Q478 484 478 298Q478 165 411 78T257 -10Q196 -10 148 34Q123 -109 123 -137Q123 -175 147 -198Q111 -253 72 -253Q13 -253 13 -163Q13 -108 74 242T135 625Q135 662
108 676Q110 703 132 723T186 743T233 725T248 679Q248 642 205 394ZM188 278Q182 229 158 100Q192 55 232 55Q282 55 318 117T355 287Q355 407 291 407Q244 407 188 278Z" />
<glyph unicode="&#xff;" glyph-name="ydieresis" horiz-adv-x="433" d="M150 435Q196 306 216 121Q304 289 304 403Q304 431 292 465Q327 484 354 484Q418 484 418 417Q418 339 367 219T242 -7Q188 -84 148 -128T51 -201T-72 -230Q-121 -230 -155 -214T-190 -171Q-190
-138 -143 -110Q-114 -164 -60 -164Q34 -164 135 -10Q131 116 89 260T7 439Q45 484 82 484Q133 484 150 435ZM306 531Q281 531 266 547T250 592Q250 624 272 647T323 670Q346 670 362 652T379 606Q379 575 356 553T306 531ZM133 531Q108 531 93 547T77 592Q77 624
99 647T150 670Q173 670 189 652T206 606Q206 575 183 553T133 531Z" />
<glyph unicode="&#x2013;" glyph-name="endash" horiz-adv-x="574" d="M510 267Q510 247 496 235T459 222Q443 222 413 224T364 226H191Q134 226 68 216Q64 240 64 255Q64 273 76 286T115 300Q123 300 153 298T214 296H389Q446 296 503 306Q510 285 510 267Z" />
<glyph unicode="&#x2014;" glyph-name="emdash" horiz-adv-x="813" d="M780 309Q783 297 783 285Q783 258 769 241T727 223Q712 223 674 225T615 228H148Q95 228 31 217Q30 223 30 236Q30 303 85 303Q94 303 132 301T195 299H672Q731 299 780 309Z" />
<glyph unicode="&#x2018;" glyph-name="quoteleft" horiz-adv-x="240" d="M173 604Q173 570 209 561Q216 540 216 532Q216 505 194 487T139 468Q112 468 94 485T76 540Q76 608 122 673T224 739Q261 739 261 709Q261 698 254 684H238Q210 684 192 659T173 604Z" />
<glyph unicode="&#x2019;" glyph-name="quoteright" horiz-adv-x="241" d="M154 604Q154 638 118 647Q111 668 111 676Q111 703 133 721T188 740Q215 740 233 723T251 668Q251 600 205 535T103 469Q66 469 66 499Q66 510 73 524H89Q117 524 135 549T154 604Z" />
<glyph unicode="&#x201a;" glyph-name="quotesinglbase" horiz-adv-x="247" d="M88 -16Q88 18 52 27Q45 48 45 56Q45 83 67 101T122 120Q149 120 167 103T185 48Q185 -20 139 -85T37 -151Q0 -151 0 -121Q0 -110 7 -96H23Q51 -96 69 -71T88 -16Z" />
<glyph unicode="&#x201c;" glyph-name="quotedblleft" horiz-adv-x="469" d="M402 603Q402 569 438 560Q445 539 445 531Q445 504 423 486T368 467Q341 467 323 484T305 539Q305 607 351 672T453 738Q490 738 490 708Q490 697 483 683H467Q439 683 421 658T402
603ZM173 603Q173 569 209 560Q216 539 216 531Q216 504 194 486T139 467Q112 467 94 484T76 539Q76 607 122 672T224 738Q261 738 261 708Q261 697 254 683H238Q210 683 192 658T173 603Z" />
<glyph unicode="&#x201d;" glyph-name="quotedblright" horiz-adv-x="463" d="M376 604Q376 638 340 647Q333 668 333 676Q333 703 355 721T410 740Q437 740 455 723T473 668Q473 600 427 535T325 469Q288 469 288 499Q288 510 295 524H311Q339 524 357 549T376
604ZM154 604Q154 638 118 647Q111 668 111 676Q111 703 133 721T188 740Q215 740 233 723T251 668Q251 600 205 535T103 469Q66 469 66 499Q66 510 73 524H89Q117 524 135 549T154 604Z" />
<glyph unicode="&#x201e;" glyph-name="quotedblbase" horiz-adv-x="468" d="M309 -16Q309 18 273 27Q266 48 266 56Q266 83 288 101T343 120Q370 120 388 103T406 48Q406 -20 360 -85T258 -151Q221 -151 221 -121Q221 -110 228 -96H244Q272 -96 290 -71T309 -16ZM88
-16Q88 18 52 27Q45 48 45 56Q45 83 67 101T122 120Q149 120 167 103T185 48Q185 -20 139 -85T37 -151Q0 -151 0 -121Q0 -110 7 -96H23Q51 -96 69 -71T88 -16Z" />
<glyph unicode="&#x2022;" glyph-name="bullet" horiz-adv-x="319" d="M145 132Q98 132 68 163T38 246Q38 309 80 357T182 406Q227 406 256 373T286 289Q286 224 244 178T145 132Z" />
<glyph unicode="&#x2039;" glyph-name="guilsinglleft" horiz-adv-x="308" d="M293 400Q293 385 252 333T166 235Q248 109 248 78Q248 58 208 35Q133 105 57 236Q182 377 261 436Q293 418 293 400Z" />
<glyph unicode="&#x203a;" glyph-name="guilsinglright" horiz-adv-x="308" d="M15 73Q15 88 56 140T142 238Q60 364 60 395Q60 415 100 438Q175 368 251 237Q126 95 47 37Q15 55 15 73Z" />
</font>
</defs>
</svg>
