<?xml version="1.0" standalone="no"?>
<!DOCTYPE svg PUBLIC "-//W3C//DTD SVG 1.1//EN" "http://www.w3.org/Graphics/SVG/1.1/DTD/svg11.dtd">
<svg xmlns="http://www.w3.org/2000/svg">
<defs >
<font id="Offside" horiz-adv-x="578" ><font-face
    font-family="Offside"
    units-per-em="1000"
    panose-1="2 0 5 3 4 0 0 2 0 4"
    ascent="996"
    descent="-265"
    alphabetic="0" />
<glyph unicode=" " glyph-name="space" horiz-adv-x="370" />
<glyph unicode="!" glyph-name="exclam" horiz-adv-x="301" d="M183 247T150 247T117 269L100 787Q100 815 150 815T200 786L183 269Q183 247 150 247ZM193 94V9Q193 -15 151 -15T108 9V94Q108 118 150 118T193 94Z" />
<glyph unicode="&quot;" glyph-name="quotedbl" horiz-adv-x="354" d="M126 525T92 525T58 543L50 758Q50 781 92 781T134 757L126 543Q126 525 92 525ZM296 525T262 525T228 543L220 758Q220 781 262 781T304 757L296 543Q296 525 262 525Z" />
<glyph unicode="#" glyph-name="numbersign" horiz-adv-x="600" d="M34 516H170L214 732Q221 755 253 755T286 738Q286 732 283 721L241 516H420L464 732Q469 755 502 755T536 738Q536 732 533 721L491 516H611Q631 516 631 481T611 446H476L446 296H567Q587 296
587 261T567 226H431L387 8Q380 -15 347 -15T314 2Q314 4 318 19L360 226H181L137 8Q130 -15 97 -15T64 2Q64 4 68 19L110 226H-11Q-31 226 -31 261T-11 296H125L155 446H34Q14 446 14 481T34 516ZM226 446L196 296H375L405 446H226Z" />
<glyph unicode="$" glyph-name="dollar" horiz-adv-x="600" d="M339 822V740H480Q500 740 500 705T480 670H339V403Q416 386 447 373T491 344Q523 309 523 248V166Q523 80 487 40T365 0H339V-82Q339 -105 303 -105T267 -82V0H103Q83 0 83 35T103 70H267V347L238
354Q177 368 146 385Q80 420 80 530V574Q80 660 116 700T238 740H267V822Q267 845 303 845T339 822ZM443 166V256Q443 287 419 302T339 331V70H365Q408 70 425 92T443 166ZM160 532Q160 477 176 457T238 426L267 419V670H238Q195 670 178 648T160 574V532Z" />
<glyph unicode="%" glyph-name="percent" horiz-adv-x="1011" d="M942 386V98Q942 42 900 16T787 -10Q634 -10 634 98V386Q634 442 677 467T791 493Q942 493 942 386ZM699 393V91Q699 49 788 49T878 91V393Q878 435 789 435T699 393ZM378 642V354Q378 298 336
272T223 246Q70 246 70 354V642Q70 698 113 723T227 749Q378 749 378 642ZM135 649V347Q135 305 224 305T314 347V649Q314 691 225 691T135 649ZM459 8Q454 -15 427 -15T400 2L552 732Q557 755 584 755T611 738L459 8Z" />
<glyph unicode="&amp;" glyph-name="ampersand" horiz-adv-x="703" d="M110 680T171 717T326 755T476 717T531 597V582Q531 559 491 559T451 582V607Q451 685 321 685T190 607V504Q190 416 298 416H683Q703 416 703 381T683 346H543V-83Q543 -115 558 -142T573
-171Q573 -183 554 -196T522 -210Q501 -210 482 -174T463 -93V23Q421 -15 322 -15T161 22T100 143V258Q100 361 188 382Q110 406 110 504V597Q110 680 171 717ZM180 258V133Q180 55 321 55T463 133V346H288Q180 346 180 258Z" />
<glyph unicode="&apos;" glyph-name="quotesingle" horiz-adv-x="184" d="M126 525T92 525T58 543L50 758Q50 781 92 781T134 757L126 543Q126 525 92 525Z" />
<glyph unicode="(" glyph-name="parenleft" horiz-adv-x="360" d="M270 712T235 600T200 372T234 144T328 -60Q330 -64 330 -67Q330 -81 301 -94Q283 -100 273 -100T255 -90Q209 -27 165 96T120 370T164 644T255 830Q262 840 272 840T301 834Q330 821 330 807Q330
804 328 800Q270 712 235 600Z" />
<glyph unicode=")" glyph-name="parenright" horiz-adv-x="360" d="M91 31T125 143T160 372T125 600T32 800Q30 804 30 807Q30 821 59 834Q77 840 87 840T105 830Q151 767 195 644T240 370T196 96T105 -90Q98 -100 88 -100T59 -94Q30 -81 30 -67Q30 -64 32 -60Q91
31 125 143Z" />
<glyph unicode="*" glyph-name="asterisk" horiz-adv-x="618" d="M257 638Q265 632 265 621T256 596T239 582T220 587L111 638Q100 644 100 659T114 693T139 713T154 709L257 638ZM267 802T309 802T351 778Q351 777 340 650Q338 630 309 630T278 650L267 778Q267
802 309 802ZM464 709Q468 713 478 713T503 694T518 659T507 638L398 587Q387 582 379 582T362 596T353 621T361 638L464 709ZM154 434Q149 431 139 431T115 450T100 485T111 506L220 557Q231 562 239 562T256 548T265 523T257 506L154 434ZM351 342T309 342T267
366Q267 367 278 494Q280 514 309 514T340 494L351 366Q351 342 309 342ZM361 506Q353 511 353 522T362 548T379 562T398 557L507 506Q518 500 518 485T504 451T479 431T464 434L361 506Z" />
<glyph unicode="+" glyph-name="plus" horiz-adv-x="600" d="M265 166V336H95Q75 336 75 371T95 406H265V576Q265 596 300 596T335 576V406H505Q525 406 525 371T505 336H335V166Q335 146 300 146T265 166Z" />
<glyph unicode="," glyph-name="comma" horiz-adv-x="201" d="M143 94V-17Q143 -49 125 -100L116 -124Q113 -133 101 -133T74 -125T59 -110Q59 -106 61 -101L76 -61Q82 -43 82 -34T70 -8T58 22V94Q58 118 100 118T143 94Z" />
<glyph unicode="-" glyph-name="hyphen" horiz-adv-x="465" d="M70 359H395Q415 359 415 324T395 289H70Q50 289 50 324T70 359Z" />
<glyph unicode="." glyph-name="period" horiz-adv-x="201" d="M143 94V9Q143 -15 101 -15T58 9V94Q58 118 100 118T143 94Z" />
<glyph unicode="/" glyph-name="slash" horiz-adv-x="377" d="M103 -82Q96 -105 63 -105T30 -88Q30 -86 34 -71L274 822Q281 845 314 845T347 828Q347 826 343 811L103 -82Z" />
<glyph unicode="0" glyph-name="zero" horiz-adv-x="600" d="M533 597V143Q533 60 469 23T298 -15Q70 -15 70 143V597Q70 680 134 717T305 755Q533 755 533 597ZM453 133V607Q453 646 413 667L252 57Q266 55 298 55Q453 55 453 133ZM150 607V133Q150 93 188 74L348
683Q322 685 305 685Q150 685 150 607Z" />
<glyph unicode="1" glyph-name="one" horiz-adv-x="600" d="M490 0H150Q130 0 130 35T150 70H280V670H150Q130 670 130 705T150 740H300Q338 740 349 725T360 668V70H490Q510 70 510 35T490 0Z" />
<glyph unicode="2" glyph-name="two" horiz-adv-x="600" d="M523 574V557Q523 499 459 421L169 70H503Q523 70 523 35T503 0H80Q60 0 60 35Q60 56 69 67L387 452Q417 489 430 513T443 562V574Q443 625 426 647T365 670H123Q103 670 103 705T123 740H365Q451 740
487 700T523 574Z" />
<glyph unicode="3" glyph-name="three" horiz-adv-x="600" d="M527 256V143Q527 61 462 23T297 -15T134 23T70 143V187Q70 210 110 210T150 187V133Q150 92 191 74T296 55T403 74T447 133V256Q447 302 432 318T361 334H189Q169 334 169 369T189 404H330L377 452Q433
509 433 562V574Q433 625 416 647T355 670H123Q103 670 103 705T123 740H355Q441 740 477 700T513 574V557Q513 528 496 490T449 421L427 399Q480 389 503 356T527 256Z" />
<glyph unicode="4" glyph-name="four" horiz-adv-x="600" d="M222 740Q226 750 238 750T268 744Q297 731 297 717Q297 714 295 710L181 458Q125 335 125 293V288Q125 257 141 244T211 230H390V508Q390 531 430 531T470 508V230H523Q543 230 543 195T523 160H470V18Q470
-5 430 -5T390 18V160H211Q122 160 84 190T45 286V299Q45 345 109 489L222 740Z" />
<glyph unicode="5" glyph-name="five" horiz-adv-x="600" d="M100 447V564Q100 657 136 698T258 740H490Q510 740 510 705T490 670H258Q215 670 198 646T180 564V442L341 407Q457 383 484 362Q523 332 530 305T537 248V143Q537 61 472 23T307 -15T144 23T80 143V187Q80
210 120 210T160 187V133Q160 92 201 74T306 55T413 74T457 133V256Q457 289 431 304T341 334L148 376Q120 382 110 396T100 447Z" />
<glyph unicode="6" glyph-name="six" horiz-adv-x="600" d="M80 143V564Q80 657 116 698T238 740H490Q510 740 510 705T490 670H238Q195 670 178 646T160 564V443L341 416Q392 408 423 400T482 374Q537 343 537 258V143Q537 61 472 23T307 -15T144 23T80 143ZM160
133Q160 92 201 74T306 55T413 74T457 133V266Q457 300 429 317T341 344L160 371V133Z" />
<glyph unicode="7" glyph-name="seven" horiz-adv-x="600" d="M255 0Q251 -10 239 -10T209 -4Q180 9 180 23Q180 26 182 30L367 442Q423 565 423 607V612Q423 643 407 656T337 670H100Q80 670 80 705T100 740H337Q426 740 464 710T503 614V601Q503 555 439 411L255 0Z" />
<glyph unicode="8" glyph-name="eight" horiz-adv-x="600" d="M536 173V143Q536 61 469 23T297 -15T128 23T63 143V173Q63 233 127 299L211 384L153 422Q108 452 88 492T68 567V597Q68 653 101 689T184 740T303 755Q407 755 469 718T531 597V567Q531 507 467 441L387
359L451 318Q496 288 516 248T536 173ZM143 168V133Q143 92 186 74T297 55T410 74T456 133V168Q456 226 400 263L273 344L199 268Q167 235 155 215T143 168ZM451 572V607Q451 685 302 685Q235 685 192 667T148 607V572Q148 514 204 477L324 399L395 472Q427 505
439 525T451 572Z" />
<glyph unicode="9" glyph-name="nine" horiz-adv-x="600" d="M520 597V143Q520 61 455 23T290 -15T127 23T63 143V187Q63 210 103 210T143 187V133Q143 92 184 74T289 55T396 74T440 133V297L259 324Q208 332 177 340T118 366Q63 397 63 482V597Q63 679 128 717T293
755T456 717T520 597ZM143 607V474Q143 440 171 423T259 396L440 369V607Q440 648 399 666T294 685T187 666T143 607Z" />
<glyph unicode=":" glyph-name="colon" horiz-adv-x="201" d="M143 94V9Q143 -15 101 -15T58 9V94Q58 118 100 118T143 94ZM143 494V409Q143 385 101 385T58 409V494Q58 518 100 518T143 494Z" />
<glyph unicode=";" glyph-name="semicolon" horiz-adv-x="201" d="M143 94V-17Q143 -49 125 -100L116 -124Q113 -133 101 -133T74 -125T59 -110Q59 -106 61 -101L76 -61Q82 -43 82 -34T70 -8T58 22V94Q58 118 100 118T143 94ZM143 494V409Q143 385 101 385T58
409V494Q58 518 100 518T143 494Z" />
<glyph unicode="&lt;" glyph-name="less" horiz-adv-x="600" d="M80 334T80 370T88 428T116 466T157 488T217 507L500 584Q520 584 520 546T497 504L228 429Q176 415 163 405T150 370T163 335T228 311L497 236Q520 232 520 194T500 156L217 233Q177 244 157 251T117
274T88 311Z" />
<glyph unicode="=" glyph-name="equal" horiz-adv-x="600" d="M95 296H505Q525 296 525 261T505 226H95Q75 226 75 261T95 296ZM95 516H505Q525 516 525 481T505 446H95Q75 446 75 481T95 516Z" />
<glyph unicode="&gt;" glyph-name="greater" horiz-adv-x="600" d="M520 406T520 370T512 312T484 274T443 252T383 233L100 156Q80 156 80 194T103 236L372 311Q424 325 437 335T450 370T437 405T372 429L103 504Q80 508 80 546T100 584L383 507Q423 496 443
489T483 466T512 429Z" />
<glyph unicode="?" glyph-name="question" horiz-adv-x="467" d="M259 94V9Q259 -15 217 -15T174 9V94Q174 118 216 118T259 94ZM249 247T216 247T183 269L177 448L244 466Q294 480 315 495T337 544V667Q337 707 303 726T217 745T133 727T100 667V613Q100 590
60 590T20 613V657Q20 738 77 776T217 815Q331 815 386 749Q417 712 417 657V552Q417 492 386 454Q374 440 348 428T305 410T252 395L249 269Q249 247 216 247Z" />
<glyph unicode="@" glyph-name="at" horiz-adv-x="1081" d="M911 69H784Q699 69 669 108T635 267L634 295L497 281Q454 277 442 263T429 213V206Q429 168 441 153T496 137H594Q616 137 616 103T594 69H496Q418 69 385 99T352 206V213Q352 287 381 314T490 349L633
363L630 472Q629 532 521 532H407Q386 532 386 566T407 600H521Q703 600 707 464L712 276Q714 185 727 161T784 137H891V529Q891 725 549 725Q388 725 289 678T190 529V130Q190 -66 532 -66H949Q971 -66 971 -103T949 -141H532Q405 -141 314 -116T167 -29T110 130V529Q110
625 171 687T327 775T549 800T767 775T914 688T971 529V138Q971 98 960 84T911 69Z" />
<glyph unicode="A" glyph-name="A" horiz-adv-x="683" d="M573 597V18Q573 -5 533 -5T493 18V289H190V18Q190 -5 150 -5T110 18V597Q110 653 143 689T227 740T347 755Q573 755 573 597ZM190 607V359H493V607Q493 685 342 685T190 607Z" />
<glyph unicode="B" glyph-name="B" horiz-adv-x="628" d="M325 -5H258Q172 -5 136 36T100 171V597Q100 680 160 717T320 755T479 718T538 597V504Q538 406 460 382Q548 361 548 258V153Q548 70 487 33T325 -5ZM360 346H235Q215 346 215 381T235 416H350Q458 416
458 504V607Q458 685 319 685T180 607V171Q180 113 197 89T258 65H323Q468 65 468 143V258Q468 346 360 346Z" />
<glyph unicode="C" glyph-name="C" horiz-adv-x="633" d="M180 607V133Q180 55 326 55T473 133V205Q473 228 513 228T553 205V143Q553 -15 330 -15Q226 -15 163 22T100 143V597Q100 680 163 717T330 755Q553 755 553 597V535Q553 512 513 512T473 535V607Q473
685 327 685T180 607Z" />
<glyph unicode="D" glyph-name="D" horiz-adv-x="683" d="M190 70H378Q442 70 467 87T493 148V592Q493 636 468 653T378 670H190V70ZM110 75V665Q110 709 120 724T170 740H378Q478 740 525 704T573 582V158Q573 72 526 36T378 0H170Q131 0 121 15T110 75Z" />
<glyph unicode="E" glyph-name="E" horiz-adv-x="603" d="M180 258V133Q180 55 321 55T463 133V205Q463 228 503 228T543 205V143Q543 60 483 23T323 -15T161 22T100 143V258Q100 361 188 382Q110 406 110 504V597Q110 680 171 717T326 755T476 717T531 597V582Q531
559 491 559T451 582V607Q451 685 321 685T190 607V504Q190 416 298 416H373Q393 416 393 381T373 346H288Q180 346 180 258Z" />
<glyph unicode="F" glyph-name="F" horiz-adv-x="490" d="M420 346H190V18Q190 -5 150 -5T110 18V564Q110 657 146 698T268 740H460Q480 740 480 705T460 670H268Q225 670 208 646T190 564V416H420Q440 416 440 381T420 346Z" />
<glyph unicode="G" glyph-name="G" horiz-adv-x="643" d="M483 133V231Q483 279 467 299T397 319H320Q300 319 300 354T320 389H397Q485 389 524 353T563 231V143Q563 60 499 23T328 -15Q100 -15 100 143V597Q100 680 162 717T327 755Q548 755 548 597V542Q548
519 508 519T468 542V607Q468 685 324 685T180 607V133Q180 55 331 55T483 133Z" />
<glyph unicode="H" glyph-name="H" horiz-adv-x="683" d="M573 722V18Q573 -5 533 -5T493 18V329H190V18Q190 -5 150 -5T110 18V722Q110 745 150 745T190 722V399H493V722Q493 745 533 745T573 722Z" />
<glyph unicode="I" glyph-name="I" horiz-adv-x="320" d="M200 722V18Q200 -5 160 -5T120 18V722Q120 745 160 745T200 722Z" />
<glyph unicode="J" glyph-name="J" horiz-adv-x="503" d="M313 133V722Q313 745 353 745T393 722V143Q393 61 338 23T201 -15T65 23T10 143V265Q10 288 50 288T90 265V133Q90 55 201 55T313 133Z" />
<glyph unicode="K" glyph-name="K" horiz-adv-x="614" d="M553 13Q553 -5 518 -5T476 18L405 276Q396 311 380 320T310 330H244Q224 330 224 365T244 400H269Q338 400 356 409T384 454L456 722Q463 745 498 745T533 727L461 454Q448 406 420 385Q457 367 474 304Q553
16 553 13ZM190 722V18Q190 -5 150 -5T110 18V722Q110 745 150 745T190 722Z" />
<glyph unicode="L" glyph-name="L" horiz-adv-x="460" d="M268 70H430Q450 70 450 35T430 0H268Q182 0 146 41T110 176V722Q110 745 150 745T190 722V176Q190 118 207 94T268 70Z" />
<glyph unicode="M" glyph-name="M" horiz-adv-x="854" d="M664 18V670H654Q622 670 614 661T597 616L466 97Q461 74 427 74T388 97L257 616Q248 652 240 661T200 670H190V18Q190 -5 150 -5T110 18V665Q110 709 120 724T170 740H192Q262 740 286 724T326 644L427
229L528 644Q543 708 567 724T662 740H684Q723 740 733 725T744 665V18Q744 -5 704 -5T664 18Z" />
<glyph unicode="N" glyph-name="N" horiz-adv-x="713" d="M200 670H190V18Q190 -5 150 -5T110 18V665Q110 709 120 724T170 740H192Q262 740 286 724T326 644L456 119Q465 83 473 74T513 65H523V717Q523 740 563 740T603 717V70Q603 26 593 11T543 -5H521Q451
-5 427 11T387 91L257 616Q248 652 240 661T200 670Z" />
<glyph unicode="O" glyph-name="O" horiz-adv-x="663" d="M563 597V143Q563 60 499 23T328 -15Q100 -15 100 143V597Q100 680 164 717T335 755Q563 755 563 597ZM180 607V133Q180 55 331 55T483 133V607Q483 685 332 685T180 607Z" />
<glyph unicode="P" glyph-name="P" horiz-adv-x="613" d="M240 350H327Q463 350 463 428V607Q463 685 327 685T190 607V18Q190 -5 150 -5T110 18V597Q110 680 169 717T326 755T483 718T543 597V438Q543 355 484 318T327 280H240Q220 280 220 315T240 350Z" />
<glyph unicode="Q" glyph-name="Q" horiz-adv-x="663" d="M328 55Q348 55 348 20T328 -15Q100 -15 100 143V597Q100 680 164 717T335 755Q563 755 563 597V143Q563 52 479 12Q529 -98 529 -100Q529 -117 495 -117T451 -95Q331 172 331 174Q331 191 365 191T409
169L449 78Q483 97 483 133V607Q483 685 332 685T180 607V133Q180 55 328 55Z" />
<glyph unicode="R" glyph-name="R" horiz-adv-x="644" d="M240 370H327Q463 370 463 448V607Q463 685 327 685T190 607V18Q190 -5 150 -5T110 18V597Q110 680 169 717T326 755T483 718T543 597V458Q543 365 456 342Q479 321 492 274Q563 19 563 13Q563 -5 528
-5T486 18L423 246Q414 281 398 290T328 300H240Q220 300 220 335T240 370Z" />
<glyph unicode="S" glyph-name="S" horiz-adv-x="617" d="M457 133V246Q457 279 431 294T341 324L252 344Q191 358 160 375Q94 410 94 520V597Q94 680 153 717T311 755T468 718T527 597V553Q527 530 487 530T447 553V607Q447 685 311 685T174 607V522Q174 467
190 447T252 416L341 396Q437 375 450 368T482 351T506 333T522 309Q537 286 537 238V143Q537 61 472 23T307 -15T144 23T80 143V187Q80 210 120 210T160 187V133Q160 92 201 74T306 55T413 74T457 133Z" />
<glyph unicode="T" glyph-name="T" horiz-adv-x="500" d="M40 740H460Q480 740 480 705T460 670H290V18Q290 -5 250 -5T210 18V670H40Q20 670 20 705T40 740Z" />
<glyph unicode="U" glyph-name="U" horiz-adv-x="683" d="M190 133Q190 55 341 55T493 133V722Q493 745 533 745T573 722V143Q573 60 509 23T338 -15Q110 -15 110 143V722Q110 745 149 745T189 722L190 133Z" />
<glyph unicode="V" glyph-name="V" horiz-adv-x="636" d="M397 -15T318 -15T207 16T161 122L53 713Q51 723 51 727Q51 745 89 745T131 722L239 133Q246 90 261 73T318 55T374 72T397 133L505 722Q509 745 547 745T585 727Q585 723 583 713L475 122Q461 48 429 17Z" />
<glyph unicode="W" glyph-name="W" horiz-adv-x="984" d="M599 92T617 74T676 55T734 73T756 133L834 722Q837 745 875 745T914 725L834 122Q825 49 791 17T677 -15T561 17T520 122L497 368H487L464 122Q457 50 423 18T308 -15T193 17T150 122L70 727Q70 745 108
745T150 722L228 133Q234 91 249 73T307 55T366 73T390 133L452 631Q455 654 492 654T532 631L594 133Q599 92 617 74Z" />
<glyph unicode="X" glyph-name="X" horiz-adv-x="610" d="M549 13Q549 -5 515 -5T473 18L398 267Q386 308 366 326T305 345T244 327T212 267L137 18Q130 -5 96 -5T61 13Q61 14 138 278Q151 321 166 344T207 380Q182 391 167 415T138 482Q61 723 61 727Q61 745
95 745T137 722L212 493Q225 452 244 434T305 415T365 433T398 493L473 722Q480 745 514 745T549 727Q549 723 472 482Q458 439 443 415T403 380Q429 368 444 345T472 278Q549 14 549 13Z" />
<glyph unicode="Y" glyph-name="Y" horiz-adv-x="580" d="M330 18Q330 -5 290 -5T250 18V247Q199 255 174 287T133 382L55 690Q46 722 46 727Q46 745 83 745T126 722L211 393Q222 351 237 333T290 315T342 333T369 393L454 722Q459 745 496 745T534 727Q534 722
525 690L447 382Q431 319 406 287T330 247V18Z" />
<glyph unicode="Z" glyph-name="Z" horiz-adv-x="595" d="M140 90V70H516Q536 70 536 35T516 0H80Q60 0 60 35V92Q60 128 70 147T84 172T99 191T115 210Q135 235 156 256L411 543Q436 572 445 589T455 630V670H119Q99 670 99 705T119 740H515Q535 740 535 705V628Q535
592 525 573T511 548T496 529T480 510Q460 485 439 464L184 177Q159 148 150 131T140 90Z" />
<glyph unicode="[" glyph-name="bracketleft" horiz-adv-x="360" d="M200 -30H310Q330 -30 330 -65T310 -100H180Q141 -100 131 -85T120 -25V765Q120 809 130 824T180 840H310Q330 840 330 805T310 770H200V-30Z" />
<glyph unicode="\" glyph-name="backslash" horiz-adv-x="377" d="M30 828Q30 845 63 845T103 822L343 -71Q347 -86 347 -88Q347 -105 314 -105T274 -82L34 811Q30 826 30 828Z" />
<glyph unicode="]" glyph-name="bracketright" horiz-adv-x="360" d="M50 -30H160V770H50Q30 770 30 805T50 840H180Q219 840 229 825T240 765V-25Q240 -69 230 -84T180 -100H50Q30 -100 30 -65T50 -30Z" />
<glyph unicode="^" glyph-name="asciicircum" horiz-adv-x="600" d="M264 740T300 740T358 732T396 704T418 663T437 603L486 423Q486 403 450 403T406 426L359 592Q345 644 335 657T300 670T265 657T241 592L194 426Q187 403 151 403T114 423L163 603Q174 643
181 663T204 703T241 732Z" />
<glyph unicode="_" glyph-name="underscore" horiz-adv-x="565" d="M70 0H495Q515 0 515 -35T495 -70H70Q50 -70 50 -35T70 0Z" />
<glyph unicode="`" glyph-name="grave" horiz-adv-x="305" d="M253 667L61 758Q50 764 50 780T66 821T93 846T109 842L278 726Q285 720 285 711T274 684T253 667Z" />
<glyph unicode="a" glyph-name="a" horiz-adv-x="603" d="M363 0H246Q158 0 119 36T80 158V166Q80 251 115 283T240 324L413 341V452Q413 530 277 530H140Q120 530 120 565T140 600H277Q375 600 434 563T493 442V147Q493 82 516 44Q523 32 523 29Q523 17 504 4T472
-10Q450 -10 432 31T413 137V271L246 254Q192 248 176 230T160 166V158Q160 110 176 90T246 70H363Q383 70 383 35T363 0Z" />
<glyph unicode="b" glyph-name="b" horiz-adv-x="643" d="M327 530H240Q220 530 220 565T240 600H327Q425 600 484 563T543 442V143Q543 60 484 23T326 -15T169 22T110 143V777Q110 800 150 800T190 777V133Q190 55 326 55T463 133V452Q463 530 327 530Z" />
<glyph unicode="c" glyph-name="c" horiz-adv-x="596" d="M180 467V133Q180 55 308 55T436 133V175Q436 198 476 198T516 175V143Q516 60 460 23T309 -15T157 22T100 143V457Q100 540 157 577T308 615T459 578T516 457V425Q516 402 476 402T436 425V467Q436 545
308 545T180 467Z" />
<glyph unicode="d" glyph-name="d" horiz-adv-x="643" d="M533 777V143Q533 60 474 23T317 -15T160 22T100 143V442Q100 525 159 562T316 600H403Q423 600 423 565T403 530H316Q180 530 180 452V133Q180 55 316 55T453 133V777Q453 800 493 800T533 777Z" />
<glyph unicode="e" glyph-name="e" horiz-adv-x="638" d="M538 459V429Q538 344 503 312T375 271L180 252V133Q180 55 310 55Q458 55 458 123V161Q458 184 498 184T538 161V133Q538 -15 318 -15Q221 -15 161 23T100 143V457Q100 540 164 577T331 615T486 579T538
459ZM180 467V322L368 341Q425 347 441 365T458 429V467Q458 545 319 545T180 467Z" />
<glyph unicode="f" glyph-name="f" horiz-adv-x="385" d="M80 600H150V657Q150 815 356 815H391Q411 815 411 780T391 745H356Q230 745 230 667V600H345Q365 600 365 565T345 530H230V-103Q230 -167 212 -208T171 -250Q158 -250 139 -237T120 -211Q120 -208 128
-196Q150 -158 150 -93V530H80Q60 530 60 565T80 600Z" />
<glyph unicode="g" glyph-name="g" horiz-adv-x="643" d="M533 442V120Q533 97 493 97T453 120V452Q453 526 328 530H317Q180 530 180 452V176Q180 118 197 94T258 70H337Q432 70 482 33T533 -88V-92Q533 -176 483 -213T337 -250H110Q90 -250 90 -215T110 -180H337Q396
-180 424 -162T453 -102V-78Q453 -36 425 -18T337 0H258Q172 0 136 41T100 176V442Q100 525 159 562T317 600H457Q522 600 560 622Q572 630 575 630Q587 630 600 611T614 579Q614 561 585 548T506 531Q533 494 533 442Z" />
<glyph unicode="h" glyph-name="h" horiz-adv-x="663" d="M553 457V18Q553 -5 513 -5T473 18V467Q473 545 337 545T200 467V18Q200 -5 160 -5T120 18V777Q120 800 160 800T200 777V574Q255 615 344 615T493 578T553 457Z" />
<glyph unicode="i" glyph-name="i" horiz-adv-x="300" d="M190 582V117Q190 85 205 58T220 29Q220 17 201 4T169 -10Q148 -10 129 26T110 107V582Q110 605 150 605T190 582ZM193 795V708Q193 683 150 683T106 708V795Q106 820 149 820T193 795Z" />
<glyph unicode="j" glyph-name="j" horiz-adv-x="300" d="M192 795V708Q192 683 149 683T105 708V795Q105 820 148 820T192 795ZM190 582V-92Q190 -250 -16 -250H-51Q-71 -250 -71 -215T-51 -180H-16Q110 -180 110 -102V582Q110 605 150 605T190 582Z" />
<glyph unicode="k" glyph-name="k" horiz-adv-x="602" d="M190 777V18Q190 -5 150 -5T110 18V777Q110 800 150 800T190 777ZM538 13Q538 -5 503 -5T461 18L402 221Q392 256 377 265T307 275H244Q224 275 224 310T244 345H282Q324 346 337 355T362 399L429 582Q437
605 471 605T506 587Q506 586 496 556L431 371Q422 346 406 333Q452 316 471 249L531 40Q538 14 538 13Z" />
<glyph unicode="l" glyph-name="l" horiz-adv-x="300" d="M190 777V117Q190 85 205 58T220 29Q220 17 201 4T169 -10Q148 -10 129 26T110 107V777Q110 800 150 800T190 777Z" />
<glyph unicode="m" glyph-name="m" horiz-adv-x="966" d="M110 18V457Q110 539 167 577T327 615T483 562Q536 615 638 615Q856 615 856 457V18Q856 -5 816 -5T776 18V467Q776 545 650 545T523 465V18Q523 -5 483 -5T443 18V467Q443 545 317 545T190 467V18Q190
-5 150 -5T110 18Z" />
<glyph unicode="n" glyph-name="n" horiz-adv-x="653" d="M543 457V18Q543 -5 503 -5T463 18V467Q463 545 327 545T190 467V18Q190 -5 150 -5T110 18V457Q110 540 169 577T326 615T483 578T543 457Z" />
<glyph unicode="o" glyph-name="o" horiz-adv-x="633" d="M453 133V467Q453 545 317 545T180 467V133Q180 55 316 55T453 133ZM533 457V143Q533 60 474 23T317 -15T160 22T100 143V457Q100 540 159 577T316 615T473 578T533 457Z" />
<glyph unicode="p" glyph-name="p" horiz-adv-x="643" d="M240 70H327Q463 70 463 148V467Q463 545 327 545T190 467V-232Q190 -255 150 -255T110 -232V457Q110 540 169 577T326 615T483 578T543 457V158Q543 75 484 38T327 0H240Q220 0 220 35T240 70Z" />
<glyph unicode="q" glyph-name="q" horiz-adv-x="643" d="M316 70H403Q423 70 423 35T403 0H316Q218 0 159 37T100 158V457Q100 540 159 577T317 615T474 578T533 457V-232Q533 -255 493 -255T453 -232V467Q453 545 317 545T180 467V148Q180 70 316 70Z" />
<glyph unicode="r" glyph-name="r" horiz-adv-x="476" d="M376 417V467Q376 545 283 545T190 467V8Q190 -15 150 -15T110 8V457Q110 540 157 577T283 615Q456 615 456 459V417Q456 394 416 394T376 417Z" />
<glyph unicode="s" glyph-name="s" horiz-adv-x="632" d="M445 427V466Q445 545 316 545Q261 545 226 527T191 470V448Q191 394 205 378T265 350L352 328Q476 296 499 266Q527 229 527 168V132Q527 54 467 20T310 -15Q154 -15 112 64Q95 97 95 144V176Q95 189
104 193T135 198Q174 198 174 173V128Q174 88 209 72T311 55Q448 55 448 125V178Q448 209 425 226T344 258L256 280Q167 302 140 332T112 451V463Q114 543 169 579T314 615Q524 615 524 459V424Q524 403 485 403T445 427Z" />
<glyph unicode="t" glyph-name="t" horiz-adv-x="385" d="M230 717V600H335Q355 600 355 565T335 530H230V117Q230 85 245 58T260 29Q260 17 241 4T209 -10Q188 -10 169 26T150 107V530H70Q50 530 50 565T70 600H150V717Q150 740 190 740T230 717Z" />
<glyph unicode="u" glyph-name="u" horiz-adv-x="653" d="M543 582V143Q543 60 484 23T326 -15T169 22T110 143V582Q110 605 150 605T190 582V133Q190 55 326 55T463 133V582Q463 605 503 605T543 582Z" />
<glyph unicode="v" glyph-name="v" horiz-adv-x="610" d="M384 -15T305 -15T193 17T148 122L74 564Q71 585 71 587Q71 605 109 605T151 582L226 133Q233 90 248 73T305 55T361 72T384 133L459 582Q463 605 501 605T539 587Q539 585 536 564L462 122Q450 49 417 17Z" />
<glyph unicode="w" glyph-name="w" horiz-adv-x="941" d="M432 541Q435 563 469 563T508 541L574 133Q580 91 595 73T647 55T695 72T716 133L791 582Q795 605 833 605T871 587L794 122Q782 49 752 17T647 -15T541 17T500 122L475 329H465L441 122Q432 49 401 17T295
-15T190 17T147 122L70 587Q70 605 108 605T150 582L225 133Q233 89 245 72T294 55T345 73T367 133L432 541Z" />
<glyph unicode="x" glyph-name="x" horiz-adv-x="610" d="M347 275T305 275T242 256T211 197L166 18Q161 -5 124 -5T86 13L133 208Q152 288 204 310Q155 332 133 412L96 548Q86 583 86 587Q86 605 122 605T166 582L211 423Q222 382 242 364T305 345T367 363T399
423L444 582Q451 605 487 605T524 587Q524 583 514 548L477 412Q455 332 406 310Q458 288 477 208L524 13Q524 -5 487 -5T444 18L399 197Q389 237 368 256Z" />
<glyph unicode="y" glyph-name="y" horiz-adv-x="610" d="M243 -250H171Q151 -250 151 -215T171 -180H243Q299 -180 320 -164T349 -102L363 -15H305Q226 -15 193 17T148 122L75 562Q71 585 71 587Q71 605 109 605T151 582L226 133Q233 90 248 73T305 55H375L463
582Q467 605 503 605T539 587Q539 585 536 564L425 -92Q409 -187 374 -218T243 -250Z" />
<glyph unicode="z" glyph-name="z" horiz-adv-x="573" d="M150 70H473Q493 70 493 35T473 0H90Q70 0 70 35V70Q70 108 77 121T88 140T101 157T117 174T139 197T166 224L368 431Q398 462 405 473T412 508V530H119Q99 530 99 565T119 600H472Q492 600 492 565V510Q492
463 477 440T396 356L194 149Q164 118 157 106T150 70Z" />
<glyph unicode="{" glyph-name="braceleft" horiz-adv-x="360" d="M214 682V504Q214 405 146 381Q214 356 214 258V58Q214 12 234 -9T310 -30Q330 -30 330 -65T310 -100Q220 -100 177 -64T134 58V258Q134 302 124 320T86 346L71 350Q51 356 51 381T71 412L86 416Q114
423 124 441T134 504V682Q134 767 177 803T310 840Q330 840 330 805T310 770Q255 770 235 749T214 682Z" />
<glyph unicode="|" glyph-name="bar" horiz-adv-x="320" d="M196 822V-82Q196 -105 160 -105T124 -82V822Q124 845 160 845T196 822Z" />
<glyph unicode="}" glyph-name="braceright" horiz-adv-x="360" d="M146 504V682Q146 728 126 749T50 770Q30 770 30 805T50 840Q140 840 183 804T226 682V504Q226 460 236 442T274 416L289 412Q309 406 309 381T289 350L274 346Q246 339 236 321T226 258V58Q226
-27 183 -63T50 -100Q30 -100 30 -65T50 -30Q105 -30 125 -9T146 58V258Q146 356 214 381Q146 404 146 504Z" />
<glyph unicode="~" glyph-name="asciitilde" horiz-adv-x="600" d="M525 418Q525 365 493 337T425 309T297 336T181 363Q145 363 145 328Q145 308 110 308T75 324Q75 377 107 405T175 433T303 406T419 379Q455 379 455 414Q455 434 490 434T525 418Z" />
<glyph unicode="&#xa0;" glyph-name="nbspace" horiz-adv-x="370" />
<glyph unicode="&#xa1;" glyph-name="exclamdown" horiz-adv-x="301" d="M200 -215T150 -215T100 -187Q109 75 117 331Q117 353 150 353T183 331L200 -186Q200 -215 150 -215ZM193 591V506Q193 482 151 482T108 506V591Q108 615 150 615T193 591Z" />
<glyph unicode="&#xa2;" glyph-name="cent" horiz-adv-x="600" d="M370 822V646H486Q506 646 506 611T486 576H370V166H486Q506 166 506 131T486 96H370V-82Q370 -105 334 -105T298 -82V96Q212 100 161 138T110 254V488Q110 566 161 604T298 645V822Q298 845 334
845T370 822ZM190 244Q190 173 298 166V575Q190 570 190 498V244Z" />
<glyph unicode="&#xa3;" glyph-name="sterling" horiz-adv-x="600" d="M39 410H128L140 574Q146 661 180 700T298 740H490Q510 740 510 705T490 670H298Q256 670 240 648T220 574L208 410H372Q390 410 390 379T372 347H204L190 147Q187 103 173 70H523Q543 70
543 35T523 0H110Q96 0 78 12T60 39Q60 42 71 54T94 93T110 157L123 347H39Q21 347 21 378T39 410Z" />
<glyph unicode="&#xa5;" glyph-name="yen" horiz-adv-x="600" d="M459 722Q466 745 502 745T539 727Q539 726 524 674L470 490H547Q565 490 565 459T547 427H451L447 412Q430 356 411 330H547Q565 330 565 299T547 267H340V18Q340 -5 300 -5T260 18V267H53Q35
267 35 298T53 330H188Q170 356 153 412L148 427H53Q35 427 35 458T53 490H130L76 674Q61 726 61 727Q61 745 97 745T141 722L237 395Q248 357 262 344T300 330H307Q328 332 340 346T363 395L459 722Z" />
<glyph unicode="&#xa6;" glyph-name="brokenbar" horiz-adv-x="320" d="M196 822V518Q196 495 160 495T124 518V822Q124 845 160 845T196 822ZM196 222V-82Q196 -105 160 -105T124 -82V222Q124 245 160 245T196 222Z" />
<glyph unicode="&#xa7;" glyph-name="section" horiz-adv-x="590" d="M420 -54V6Q420 40 393 55T304 84L255 94Q165 112 131 147T97 270V304Q97 412 155 447Q124 467 111 500T97 590V604Q97 690 133 730T255 770H467Q487 770 487 735T467 700H255Q212 700 195
678T177 604V592Q177 537 193 516T255 486L304 476Q421 451 446 432Q486 403 493 375T500 318V236Q500 142 453 106Q500 72 500 -2V-54Q500 -140 464 -180T342 -220H110Q90 -220 90 -185T110 -150H342Q385 -150 402 -128T420 -54ZM420 236V326Q420 360 393 375T304
404L255 414Q239 418 234 418Q203 413 190 391T177 324V272Q177 217 193 196T255 166L304 156Q361 144 380 138Q420 159 420 236Z" />
<glyph unicode="&#xa8;" glyph-name="dieresis" horiz-adv-x="487" d="M187 795V708Q187 683 144 683T100 708V795Q100 820 143 820T187 795ZM387 795V708Q387 683 344 683T300 708V795Q300 820 343 820T387 795Z" />
<glyph unicode="&#xa9;" glyph-name="copyright" horiz-adv-x="795" d="M695 663V366Q695 265 607 220Q524 177 392 177T180 222T100 366V663Q100 760 183 805T403 850Q695 850 695 663ZM645 366V663Q645 805 398 805T150 663V366Q150 222 397 222T645 366ZM304
646V382Q304 340 393 340T483 382V428Q483 450 515 450T548 428V389Q548 281 396 281Q325 281 282 307T239 389V639Q239 695 282 721T396 747Q548 747 548 639V599Q548 578 516 578T483 599V646Q483 688 394 688T304 646Z" />
<glyph unicode="&#xaa;" glyph-name="ordfeminine" horiz-adv-x="472" d="M247 380H199Q138 380 112 404T86 487V492Q86 549 110 571T194 600L297 611V674Q297 716 218 716H131Q112 716 112 745T131 775H218Q283 775 322 749T362 667V481Q362 440 376 416Q381
408 381 402T367 385T342 373Q326 373 312 402T297 474V552L200 541Q168 537 160 528T151 492V487Q151 460 160 449T199 438H247Q266 438 266 409T247 380Z" />
<glyph unicode="&#xab;" glyph-name="guillemotleft" horiz-adv-x="579" d="M235 610Q240 615 249 615T279 599T300 574T295 560L154 359L295 158Q300 153 300 144T279 119T249 103T235 108L84 309Q70 329 70 359T84 409L235 610ZM444 610Q449 615 458 615T488
599T509 574T504 560L363 359L504 158Q509 153 509 144T488 119T458 103T444 108L293 309Q279 329 279 359T293 409L444 610Z" />
<glyph unicode="&#xac;" glyph-name="logicalnot" horiz-adv-x="600" d="M95 406H495Q525 406 525 371V198Q525 175 489 175T453 198V336H95Q75 336 75 371T95 406Z" />
<glyph unicode="&#xae;" glyph-name="registered" horiz-adv-x="795" d="M695 663V366Q695 265 607 220Q524 177 392 177T180 222T100 366V663Q100 760 183 805T403 850Q695 850 695 663ZM373 520H404Q484 520 484 563V646Q484 688 404 688T323 646V310Q323 288
291 288T258 310V639Q258 695 298 721T403 747T508 721T548 639V570Q548 509 499 492Q509 481 516 455L548 337Q555 310 555 307Q555 288 526 288T492 308L458 433Q453 452 444 457T404 462H373Q354 462 354 491T373 520ZM645 366V663Q645 805 398 805T150 663V366Q150
222 397 222T645 366Z" />
<glyph unicode="&#xaf;" glyph-name="overscore" horiz-adv-x="507" d="M120 787H387Q407 787 407 749T387 710H120Q100 710 100 748T120 787Z" />
<glyph unicode="&#xb0;" glyph-name="degree" horiz-adv-x="470" d="M387 648V478Q387 422 345 396T232 370Q79 370 79 478V648Q79 704 122 729T236 755Q387 755 387 648ZM144 655V471Q144 429 233 429T323 471V655Q323 697 234 697T144 655Z" />
<glyph unicode="&#xb1;" glyph-name="plusminus" horiz-adv-x="600" d="M265 166V336H95Q75 336 75 371T95 406H265V576Q265 596 300 596T335 576V406H505Q525 406 525 371T505 336H335V166Q335 146 300 146T265 166ZM95 70H505Q525 70 525 35T505 0H95Q75 0 75
35T95 70Z" />
<glyph unicode="&#xb2;" glyph-name="twosuperior" horiz-adv-x="470" d="M381 651V641Q381 603 338 551L163 338H362Q381 338 381 309T362 280H93Q73 280 73 309Q73 324 81 334L284 578Q317 619 317 644V651Q317 679 308 692T274 705H120Q101 705 101 734T120
764H274Q332 764 356 737T381 651Z" />
<glyph unicode="&#xb3;" glyph-name="threesuperior" horiz-adv-x="470" d="M374 641Q374 592 327 545Q384 529 384 449V378Q384 323 340 297T230 270T122 296T79 378V406Q79 427 111 427T144 406V371Q144 329 232 329T320 371V449Q320 474 311 483T272 492H162Q143
492 143 521T162 551H248L277 579Q310 611 310 644V651Q310 679 301 692T268 705H120Q101 705 101 734T120 764H268Q326 764 350 737T374 651V641Z" />
<glyph unicode="&#xb4;" glyph-name="acute" horiz-adv-x="305" d="M89 670L82 667Q73 667 62 684T50 710T57 726L226 842Q231 846 242 846T269 822T285 781T274 758L89 670Z" />
<glyph unicode="&#xb5;" glyph-name="mu" horiz-adv-x="653" d="M543 582V143Q543 60 484 23T333 -15T188 27V-108Q188 -173 212 -210Q220 -223 220 -226Q220 -238 201 -251T169 -265Q147 -265 129 -224T110 -118V582Q110 605 150 605T190 582V133Q190 55 326
55T463 133V582Q463 605 503 605T543 582Z" />
<glyph unicode="&#xb6;" glyph-name="paragraph" horiz-adv-x="593" d="M483 627V7Q483 -25 498 -52T513 -81Q513 -93 494 -106T462 -120Q441 -120 422 -84T403 -3V320H266Q168 320 109 357T50 478V627Q50 710 109 747T267 785T424 748T483 627Z" />
<glyph unicode="&#xb7;" glyph-name="middot" horiz-adv-x="201" d="M143 354V269Q143 245 101 245T58 269V354Q58 378 100 378T143 354Z" />
<glyph unicode="&#xb8;" glyph-name="cedilla" horiz-adv-x="596" d="M249 -97V-115Q249 -144 297 -144T346 -114V-54Q346 -31 335 -23T297 -15V21Q359 21 386 7T413 -53V-110Q413 -153 379 -177T296 -202T215 -178T182 -110V-97Q182 -76 215 -76T249 -97Z" />
<glyph unicode="&#xb9;" glyph-name="onesuperior" horiz-adv-x="470" d="M353 280H137Q118 280 118 309T137 338H213V705H137Q118 705 118 734T137 764H233Q261 764 269 753T278 711V338H353Q373 338 373 309T353 280Z" />
<glyph unicode="&#xba;" glyph-name="ordmasculine" horiz-adv-x="491" d="M323 471V684Q323 726 244 726T164 684V471Q164 429 243 429T323 471ZM387 677V478Q387 422 348 396T244 370T139 396T99 478V677Q99 733 138 759T243 785T347 759T387 677Z" />
<glyph unicode="&#xbb;" glyph-name="guillemotright" horiz-adv-x="579" d="M495 409Q509 389 509 359T495 309L344 108Q339 103 330 103T300 119T279 144T284 158L425 359L284 560Q279 565 279 573T299 598T329 615T344 610L495 409ZM286 409Q300 389 300 359T286
309L135 108Q130 103 121 103T91 119T70 144T75 158L216 359L75 560Q70 565 70 573T90 598T120 615T135 610L286 409Z" />
<glyph unicode="&#xbc;" glyph-name="onequarter" horiz-adv-x="1011" d="M722 480Q729 490 743 490T770 480T783 460L708 295Q674 221 674 197T682 166T721 159H828V329Q828 351 860 351T892 329V159H919Q939 159 939 131T919 102H892V19Q892 -3 860 -3T828 19V102H721Q661
102 635 122T609 189V196Q609 228 651 321L722 480ZM336 256H120Q101 256 101 285T120 314H196V681H120Q101 681 101 710T120 740H216Q244 740 252 729T261 687V314H336Q356 314 356 285T336 256ZM459 8Q454 -15 427 -15T400 2L552 732Q557 755 584 755T611 738L459
8Z" />
<glyph unicode="&#xbd;" glyph-name="onehalf" horiz-adv-x="1011" d="M926 371V361Q926 323 883 271L708 58H907Q926 58 926 29T907 0H638Q618 0 618 29Q618 44 626 54L829 298Q862 339 862 364V371Q862 399 853 412T819 425H665Q646 425 646 454T665 484H819Q877
484 901 457T926 371ZM336 256H120Q101 256 101 285T120 314H196V681H120Q101 681 101 710T120 740H216Q244 740 252 729T261 687V314H336Q356 314 356 285T336 256ZM459 8Q454 -15 427 -15T400 2L552 732Q557 755 584 755T611 738L459 8Z" />
<glyph unicode="&#xbe;" glyph-name="threequarters" horiz-adv-x="1011" d="M722 480Q729 490 743 490T770 480T783 460L708 295Q674 221 674 197T682 166T721 159H828V329Q828 351 860 351T892 329V159H919Q939 159 939 131T919 102H892V19Q892 -3 860 -3T828
19V102H721Q661 102 635 122T609 189V196Q609 228 651 321L722 480ZM357 617Q357 568 310 521Q367 505 367 425V354Q367 299 323 273T213 246T105 272T62 354V382Q62 403 94 403T127 382V347Q127 305 215 305T303 347V425Q303 450 294 459T255 468H145Q126 468
126 497T145 527H231L260 555Q293 587 293 620V627Q293 655 284 668T251 681H103Q84 681 84 710T103 740H251Q309 740 333 713T357 627V617ZM459 8Q454 -15 427 -15T400 2L552 732Q557 755 584 755T611 738L459 8Z" />
<glyph unicode="&#xbf;" glyph-name="questiondown" horiz-adv-x="467" d="M208 506V591Q208 615 250 615T293 591V506Q293 482 251 482T208 506ZM218 353T251 353T284 331L290 152L223 134Q173 120 152 105T130 56V-67Q130 -107 164 -126T250 -145T334 -127T367
-67V-13Q367 10 407 10T447 -13V-57Q447 -138 390 -176T250 -215Q136 -215 81 -149Q50 -112 50 -57V48Q50 108 81 146Q93 160 119 172T162 190T215 205L218 331Q218 353 251 353Z" />
<glyph unicode="&#xc0;" glyph-name="Agrave" horiz-adv-x="683" d="M573 597V18Q573 -5 533 -5T493 18V289H190V18Q190 -5 150 -5T110 18V597Q110 653 143 689T227 740T347 755Q573 755 573 597ZM190 607V359H493V607Q493 685 342 685T190 607ZM427 807L235 898Q224
904 224 920T240 961T267 986T283 982L452 866Q459 860 459 851T448 824T427 807Z" />
<glyph unicode="&#xc1;" glyph-name="Aacute" horiz-adv-x="683" d="M573 597V18Q573 -5 533 -5T493 18V289H190V18Q190 -5 150 -5T110 18V597Q110 653 143 689T227 740T347 755Q573 755 573 597ZM190 607V359H493V607Q493 685 342 685T190 607ZM263 810L256 807Q247
807 236 824T224 850T231 866L400 982Q405 986 416 986T443 962T459 921T448 898L263 810Z" />
<glyph unicode="&#xc2;" glyph-name="Acircumflex" horiz-adv-x="683" d="M573 597V18Q573 -5 533 -5T493 18V289H190V18Q190 -5 150 -5T110 18V597Q110 653 143 689T227 740T347 755Q573 755 573 597ZM190 607V359H493V607Q493 685 342 685T190 607ZM336 986H347Q352
986 356 982L476 866Q483 859 483 849T472 823T455 807T444 810L341 886L238 810Q233 807 231 807Q221 807 210 822T199 848T206 866L326 982Q330 986 336 986Z" />
<glyph unicode="&#xc3;" glyph-name="Atilde" horiz-adv-x="683" d="M573 597V18Q573 -5 533 -5T493 18V289H190V18Q190 -5 150 -5T110 18V597Q110 653 143 689T227 740T347 755Q573 755 573 597ZM190 607V359H493V607Q493 685 342 685T190 607ZM271 871L266 872Q253
872 253 847Q253 827 218 827T183 843Q183 898 201 925T248 952Q255 952 271 948L412 909Q414 908 418 908Q430 908 430 933Q430 953 465 953T500 937Q500 883 482 856T434 829Q424 829 412 832L271 871Z" />
<glyph unicode="&#xc4;" glyph-name="Adieresis" horiz-adv-x="683" d="M573 597V18Q573 -5 533 -5T493 18V289H190V18Q190 -5 150 -5T110 18V597Q110 653 143 689T227 740T347 755Q573 755 573 597ZM190 607V359H493V607Q493 685 342 685T190 607ZM285 935V848Q285
823 242 823T198 848V935Q198 960 241 960T285 935ZM485 935V848Q485 823 442 823T398 848V935Q398 960 441 960T485 935Z" />
<glyph unicode="&#xc5;" glyph-name="Aring" horiz-adv-x="683" d="M573 597V18Q573 -5 533 -5T493 18V289H190V18Q190 -5 150 -5T110 18V597Q110 653 143 689T227 740T347 755Q573 755 573 597ZM190 607V359H493V607Q493 685 342 685T190 607ZM452 904V879Q452
787 340 787Q281 787 256 809T231 879V904Q231 996 343 996Q402 996 427 974T452 904ZM293 913V869Q293 840 341 840T390 870V914Q390 943 342 943T293 913Z" />
<glyph unicode="&#xc6;" glyph-name="AE" horiz-adv-x="965" d="M110 597Q110 755 342 755Q452 755 504 702Q560 755 685 755Q774 755 829 717T884 597V582Q884 559 844 559T804 582V607Q804 685 674 685T543 607V504Q543 462 568 439T641 416H735Q755 416 755
381T735 346H650Q542 346 542 258V133Q542 55 683 55T825 133V205Q825 228 865 228T905 205V143Q905 60 845 23T685 -15T523 22T462 143V228Q462 319 529 346H185V18Q185 -5 148 -5T110 18V597ZM185 607V416H530Q462 442 462 534V626Q462 657 424 671T327 685Q185
685 185 607Z" />
<glyph unicode="&#xc7;" glyph-name="Ccedilla" horiz-adv-x="633" d="M281 -97V-115Q281 -144 329 -144T378 -114V-54Q378 -31 367 -23T329 -15Q225 -15 163 22T100 143V597Q100 680 163 717T330 755Q553 755 553 597V535Q553 512 513 512T473 535V607Q473 685
327 685T180 607V133Q180 55 326 55T473 133V205Q473 228 513 228T553 205V143Q553 28 430 -4Q445 -20 445 -53V-110Q445 -153 411 -177T328 -202T247 -178T214 -110V-97Q214 -76 247 -76T281 -97Z" />
<glyph unicode="&#xc8;" glyph-name="Egrave" horiz-adv-x="603" d="M180 258V133Q180 55 321 55T463 133V205Q463 228 503 228T543 205V143Q543 60 483 23T323 -15T161 22T100 143V258Q100 361 188 382Q110 406 110 504V597Q110 680 171 717T326 755T476 717T531
597V582Q531 559 491 559T451 582V607Q451 685 321 685T190 607V504Q190 416 298 416H373Q393 416 393 381T373 346H288Q180 346 180 258ZM387 807L195 898Q184 904 184 920T200 961T227 986T243 982L412 866Q419 860 419 851T408 824T387 807Z" />
<glyph unicode="&#xc9;" glyph-name="Eacute" horiz-adv-x="603" d="M180 258V133Q180 55 321 55T463 133V205Q463 228 503 228T543 205V143Q543 60 483 23T323 -15T161 22T100 143V258Q100 361 188 382Q110 406 110 504V597Q110 680 171 717T326 755T476 717T531
597V582Q531 559 491 559T451 582V607Q451 685 321 685T190 607V504Q190 416 298 416H373Q393 416 393 381T373 346H288Q180 346 180 258ZM223 810L216 807Q207 807 196 824T184 850T191 866L360 982Q365 986 376 986T403 962T419 921T408 898L223 810Z" />
<glyph unicode="&#xca;" glyph-name="Ecircumflex" horiz-adv-x="603" d="M180 258V133Q180 55 321 55T463 133V205Q463 228 503 228T543 205V143Q543 60 483 23T323 -15T161 22T100 143V258Q100 361 188 382Q110 406 110 504V597Q110 680 171 717T326 755T476
717T531 597V582Q531 559 491 559T451 582V607Q451 685 321 685T190 607V504Q190 416 298 416H373Q393 416 393 381T373 346H288Q180 346 180 258ZM296 986H307Q312 986 316 982L436 866Q443 859 443 849T432 823T415 807T404 810L301 886L198 810Q194 807 188
807T170 822T159 848T166 866L286 982Q290 986 296 986Z" />
<glyph unicode="&#xcb;" glyph-name="Edieresis" horiz-adv-x="603" d="M180 258V133Q180 55 321 55T463 133V205Q463 228 503 228T543 205V143Q543 60 483 23T323 -15T161 22T100 143V258Q100 361 188 382Q110 406 110 504V597Q110 680 171 717T326 755T476 717T531
597V582Q531 559 491 559T451 582V607Q451 685 321 685T190 607V504Q190 416 298 416H373Q393 416 393 381T373 346H288Q180 346 180 258ZM245 935V848Q245 823 202 823T158 848V935Q158 960 201 960T245 935ZM445 935V848Q445 823 402 823T358 848V935Q358 960
401 960T445 935Z" />
<glyph unicode="&#xcc;" glyph-name="Igrave" horiz-adv-x="320" d="M200 722V18Q200 -5 160 -5T120 18V722Q120 745 160 745T200 722ZM246 807L54 898Q43 904 43 920T59 961T86 986T102 982L271 866Q278 860 278 851T267 824T246 807Z" />
<glyph unicode="&#xcd;" glyph-name="Iacute" horiz-adv-x="320" d="M200 722V18Q200 -5 160 -5T120 18V722Q120 745 160 745T200 722ZM82 810L75 807Q66 807 55 824T43 850T50 866L219 982Q224 986 235 986T262 962T278 921T267 898L82 810Z" />
<glyph unicode="&#xce;" glyph-name="Icircumflex" horiz-adv-x="320" d="M200 722V18Q200 -5 160 -5T120 18V722Q120 745 160 745T200 722ZM155 986H166Q171 986 175 982L295 866Q302 859 302 849T291 823T270 807Q268 807 263 810L160 886L57 810Q52 807 50
807Q40 807 29 822T18 848T25 866L145 982Q149 986 155 986Z" />
<glyph unicode="&#xcf;" glyph-name="Idieresis" horiz-adv-x="320" d="M200 722V18Q200 -5 160 -5T120 18V722Q120 745 160 745T200 722ZM104 935V848Q104 823 61 823T17 848V935Q17 960 60 960T104 935ZM304 935V848Q304 823 261 823T217 848V935Q217 960 260
960T304 935Z" />
<glyph unicode="&#xd0;" glyph-name="Eth" horiz-adv-x="683" d="M70 404H110V665Q110 709 120 724T170 740H378Q478 740 525 704T573 582V158Q573 72 526 36T378 0H170Q131 0 121 15T110 75V334H70Q50 334 50 369T70 404ZM190 70H378Q442 70 467 87T493 148V592Q493
636 468 653T378 670H190V404H395Q415 404 415 369T395 334H190V70Z" />
<glyph unicode="&#xd1;" glyph-name="Ntilde" horiz-adv-x="713" d="M200 670H190V18Q190 -5 150 -5T110 18V665Q110 709 120 724T170 740H192Q262 740 286 724T326 644L456 119Q465 83 473 74T513 65H523V717Q523 740 563 740T603 717V70Q603 26 593 11T543 -5H521Q451
-5 427 11T387 91L257 616Q248 652 240 661T200 670ZM286 871L281 872Q268 872 268 847Q268 827 233 827T198 843Q198 898 216 925T263 952Q270 952 286 948L427 909Q429 908 433 908Q445 908 445 933Q445 953 480 953T515 937Q515 883 497 856T449 829Q439 829
427 832L286 871Z" />
<glyph unicode="&#xd2;" glyph-name="Ograve" horiz-adv-x="663" d="M563 597V143Q563 60 499 23T328 -15Q100 -15 100 143V597Q100 680 164 717T335 755Q563 755 563 597ZM180 607V133Q180 55 331 55T483 133V607Q483 685 332 685T180 607ZM417 807L225 898Q214
904 214 920T230 961T257 986T273 982L442 866Q449 860 449 851T438 824T417 807Z" />
<glyph unicode="&#xd3;" glyph-name="Oacute" horiz-adv-x="663" d="M563 597V143Q563 60 499 23T328 -15Q100 -15 100 143V597Q100 680 164 717T335 755Q563 755 563 597ZM180 607V133Q180 55 331 55T483 133V607Q483 685 332 685T180 607ZM253 810L246 807Q237
807 226 824T214 850T221 866L390 982Q395 986 406 986T433 962T449 921T438 898L253 810Z" />
<glyph unicode="&#xd4;" glyph-name="Ocircumflex" horiz-adv-x="663" d="M563 597V143Q563 60 499 23T328 -15Q100 -15 100 143V597Q100 680 164 717T335 755Q563 755 563 597ZM180 607V133Q180 55 331 55T483 133V607Q483 685 332 685T180 607ZM326 986H337Q342
986 346 982L466 866Q473 859 473 849T462 823T445 807T434 810L331 886L228 810Q224 807 218 807T200 822T189 848T196 866L316 982Q320 986 326 986Z" />
<glyph unicode="&#xd5;" glyph-name="Otilde" horiz-adv-x="663" d="M563 597V143Q563 60 499 23T328 -15Q100 -15 100 143V597Q100 680 164 717T335 755Q563 755 563 597ZM180 607V133Q180 55 331 55T483 133V607Q483 685 332 685T180 607ZM261 871L256 872Q243
872 243 847Q243 827 208 827T173 843Q173 898 191 925T238 952Q245 952 261 948L402 909Q404 908 408 908Q420 908 420 933Q420 953 455 953T490 937Q490 883 472 856T424 829Q414 829 402 832L261 871Z" />
<glyph unicode="&#xd6;" glyph-name="Odieresis" horiz-adv-x="663" d="M563 597V143Q563 60 499 23T328 -15Q100 -15 100 143V597Q100 680 164 717T335 755Q563 755 563 597ZM180 607V133Q180 55 331 55T483 133V607Q483 685 332 685T180 607ZM275 935V848Q275
823 232 823T188 848V935Q188 960 231 960T275 935ZM475 935V848Q475 823 432 823T388 848V935Q388 960 431 960T475 935Z" />
<glyph unicode="&#xd7;" glyph-name="multiply" horiz-adv-x="600" d="M159 180Q154 175 145 175T120 191T104 216T109 230L250 371L109 512Q104 517 104 526T120 551T145 567T159 562L300 421L441 562Q446 567 455 567T480 551T496 526T491 512L350 371L491 230Q496
225 496 216T480 191T455 175T441 180L300 321L159 180Z" />
<glyph unicode="&#xd8;" glyph-name="Oslash" horiz-adv-x="663" d="M563 597V143Q563 60 499 23T328 -15Q305 -15 265 -11L246 -82Q239 -105 206 -105T173 -88Q173 -86 177 -71L197 4Q100 41 100 143V597Q100 680 164 717T335 755Q358 755 398 751L417 822Q424
845 457 845T490 828Q490 826 486 811L466 735Q563 699 563 597ZM180 607V133Q180 94 216 75L379 683Q351 685 335 685Q180 685 180 607ZM483 607Q483 645 447 665L283 57Q297 55 328 55Q483 55 483 133V607Z" />
<glyph unicode="&#xd9;" glyph-name="Ugrave" horiz-adv-x="683" d="M190 133Q190 55 341 55T493 133V722Q493 745 533 745T573 722V143Q573 60 509 23T338 -15Q110 -15 110 143V722Q110 745 149 745T189 722L190 133ZM427 807L235 898Q224 904 224 920T240 961T267
986T283 982L452 866Q459 860 459 851T448 824T427 807Z" />
<glyph unicode="&#xda;" glyph-name="Uacute" horiz-adv-x="683" d="M190 133Q190 55 341 55T493 133V722Q493 745 533 745T573 722V143Q573 60 509 23T338 -15Q110 -15 110 143V722Q110 745 149 745T189 722L190 133ZM263 810L256 807Q247 807 236 824T224 850T231
866L400 982Q405 986 416 986T443 962T459 921T448 898L263 810Z" />
<glyph unicode="&#xdb;" glyph-name="Ucircumflex" horiz-adv-x="683" d="M190 133Q190 55 341 55T493 133V722Q493 745 533 745T573 722V143Q573 60 509 23T338 -15Q110 -15 110 143V722Q110 745 149 745T189 722L190 133ZM336 986H347Q352 986 356 982L476 866Q483
859 483 849T472 823T455 807T444 810L341 886L238 810Q233 807 231 807Q221 807 210 822T199 848T206 866L326 982Q330 986 336 986Z" />
<glyph unicode="&#xdc;" glyph-name="Udieresis" horiz-adv-x="683" d="M190 133Q190 55 341 55T493 133V722Q493 745 533 745T573 722V143Q573 60 509 23T338 -15Q110 -15 110 143V722Q110 745 149 745T189 722L190 133ZM285 935V848Q285 823 242 823T198 848V935Q198
960 241 960T285 935ZM485 935V848Q485 823 442 823T398 848V935Q398 960 441 960T485 935Z" />
<glyph unicode="&#xdd;" glyph-name="Yacute" horiz-adv-x="580" d="M330 18Q330 -5 290 -5T250 18V247Q199 255 174 287T133 382L55 690Q46 722 46 727Q46 745 83 745T126 722L211 393Q222 351 237 333T290 315T342 333T369 393L454 722Q459 745 496 745T534
727Q534 722 525 690L447 382Q431 319 406 287T330 247V18ZM241 810L234 807Q225 807 214 824T202 850T209 866L378 982Q383 986 394 986T421 962T437 921T426 898L241 810Z" />
<glyph unicode="&#xde;" glyph-name="Thorn" horiz-adv-x="613" d="M240 210H327Q463 210 463 288V467Q463 545 327 545T190 471V18Q190 -5 150 -5T110 18V732Q110 755 150 755T190 732V577Q231 615 327 615T483 578T543 457V298Q543 215 484 178T327 140H240Q220
140 220 175T240 210Z" />
<glyph unicode="&#xdf;" glyph-name="germandbls" horiz-adv-x="687" d="M607 256V143Q607 61 556 23T427 -15T300 23T250 143V187Q250 210 290 210T330 187V133Q330 92 357 74T427 55T498 74T527 133V256Q527 302 512 318T441 334H329Q309 334 309 369T329 404H360L407
452Q463 509 463 562V574Q463 625 446 647T385 670H268Q225 670 208 646T190 564V18Q190 -5 150 -5T110 18V564Q110 657 146 698T268 740H385Q471 740 507 700T543 574V557Q543 528 526 490T479 421L462 403Q540 400 573 368T607 256Z" />
<glyph unicode="&#xe0;" glyph-name="agrave" horiz-adv-x="603" d="M363 0H246Q158 0 119 36T80 158V166Q80 251 115 283T240 324L413 341V452Q413 530 277 530H140Q120 530 120 565T140 600H277Q375 600 434 563T493 442V147Q493 82 516 44Q523 32 523 29Q523
17 504 4T472 -10Q450 -10 432 31T413 137V271L246 254Q192 248 176 230T160 166V158Q160 110 176 90T246 70H363Q383 70 383 35T363 0ZM392 667L200 758Q189 764 189 780T205 821T232 846T248 842L417 726Q424 720 424 711T413 684T392 667Z" />
<glyph unicode="&#xe1;" glyph-name="aacute" horiz-adv-x="603" d="M363 0H246Q158 0 119 36T80 158V166Q80 251 115 283T240 324L413 341V452Q413 530 277 530H140Q120 530 120 565T140 600H277Q375 600 434 563T493 442V147Q493 82 516 44Q523 32 523 29Q523
17 504 4T472 -10Q450 -10 432 31T413 137V271L246 254Q192 248 176 230T160 166V158Q160 110 176 90T246 70H363Q383 70 383 35T363 0ZM250 670L243 667Q234 667 223 684T211 710T218 726L387 842Q392 846 403 846T430 822T446 781T435 758L250 670Z" />
<glyph unicode="&#xe2;" glyph-name="acircumflex" horiz-adv-x="603" d="M363 0H246Q158 0 119 36T80 158V166Q80 251 115 283T240 324L413 341V452Q413 530 277 530H140Q120 530 120 565T140 600H277Q375 600 434 563T493 442V147Q493 82 516 44Q523 32 523
29Q523 17 504 4T472 -10Q450 -10 432 31T413 137V271L246 254Q192 248 176 230T160 166V158Q160 110 176 90T246 70H363Q383 70 383 35T363 0ZM304 846H315Q320 846 324 842L444 726Q451 719 451 709T440 683T423 667T412 670L309 746L206 670Q201 667 199 667Q189
667 178 682T167 708T174 726L294 842Q298 846 304 846Z" />
<glyph unicode="&#xe3;" glyph-name="atilde" horiz-adv-x="603" d="M363 0H246Q158 0 119 36T80 158V166Q80 251 115 283T240 324L413 341V452Q413 530 277 530H140Q120 530 120 565T140 600H277Q375 600 434 563T493 442V147Q493 82 516 44Q523 32 523 29Q523
17 504 4T472 -10Q450 -10 432 31T413 137V271L246 254Q192 248 176 230T160 166V158Q160 110 176 90T246 70H363Q383 70 383 35T363 0ZM231 731L226 732Q213 732 213 707Q213 687 178 687T143 703Q143 758 161 785T208 812Q215 812 231 808L372 769Q374 768 378
768Q390 768 390 793Q390 813 425 813T460 797Q460 743 442 716T394 689Q384 689 372 692L231 731Z" />
<glyph unicode="&#xe4;" glyph-name="adieresis" horiz-adv-x="603" d="M363 0H246Q158 0 119 36T80 158V166Q80 251 115 283T240 324L413 341V452Q413 530 277 530H140Q120 530 120 565T140 600H277Q375 600 434 563T493 442V147Q493 82 516 44Q523 32 523 29Q523
17 504 4T472 -10Q450 -10 432 31T413 137V271L246 254Q192 248 176 230T160 166V158Q160 110 176 90T246 70H363Q383 70 383 35T363 0ZM252 795V708Q252 683 209 683T165 708V795Q165 820 208 820T252 795ZM452 795V708Q452 683 409 683T365 708V795Q365 820 408
820T452 795Z" />
<glyph unicode="&#xe5;" glyph-name="aring" horiz-adv-x="603" d="M363 0H246Q158 0 119 36T80 158V166Q80 251 115 283T240 324L413 341V452Q413 530 277 530H140Q120 530 120 565T140 600H277Q375 600 434 563T493 442V147Q493 82 516 44Q523 32 523 29Q523
17 504 4T472 -10Q450 -10 432 31T413 137V271L246 254Q192 248 176 230T160 166V158Q160 110 176 90T246 70H363Q383 70 383 35T363 0ZM412 764V739Q412 647 300 647Q241 647 216 669T191 739V764Q191 856 303 856Q362 856 387 834T412 764ZM253 773V729Q253 700
301 700T350 730V774Q350 803 302 803T253 773Z" />
<glyph unicode="&#xe6;" glyph-name="ae" horiz-adv-x="951" d="M363 0H246Q158 0 119 36T80 158V166Q80 251 115 283T240 324L413 341V456Q409 530 277 530H140Q120 530 120 565T140 600H277Q388 600 444 554Q500 621 646 621Q747 621 799 585T851 465V454Q851
369 816 337T688 296L493 277V139Q493 61 623 61Q771 61 771 129V167Q771 190 811 190T851 167V139Q851 -9 631 -9Q534 -9 474 29T413 149V271L246 254Q192 248 176 230T160 166V158Q160 110 176 90T246 70H363Q383 70 383 35T363 0ZM493 473V347L681 366Q738 372
754 390T771 454V473Q771 551 632 551T493 473Z" />
<glyph unicode="&#xe7;" glyph-name="ccedilla" horiz-adv-x="596" d="M260 -97V-115Q260 -144 308 -144T357 -114V-54Q357 -32 348 -24T316 -15H308Q214 -15 157 22T100 143V457Q100 540 157 577T308 615T459 578T516 457V425Q516 402 476 402T436 425V467Q436
545 308 545T180 467V133Q180 55 308 55T436 133V175Q436 198 476 198T516 175V143Q516 32 407 -2Q424 -19 424 -53V-110Q424 -153 390 -177T307 -202T226 -178T193 -110V-97Q193 -76 226 -76T260 -97Z" />
<glyph unicode="&#xe8;" glyph-name="egrave" horiz-adv-x="638" d="M538 459V429Q538 344 503 312T375 271L180 252V133Q180 55 310 55Q458 55 458 123V161Q458 184 498 184T538 161V133Q538 -15 318 -15Q221 -15 161 23T100 143V457Q100 540 164 577T331 615T486
579T538 459ZM180 467V322L368 341Q425 347 441 365T458 429V467Q458 545 319 545T180 467ZM404 667L212 758Q201 764 201 780T217 821T244 846T260 842L429 726Q436 720 436 711T425 684T404 667Z" />
<glyph unicode="&#xe9;" glyph-name="eacute" horiz-adv-x="638" d="M538 459V429Q538 344 503 312T375 271L180 252V133Q180 55 310 55Q458 55 458 123V161Q458 184 498 184T538 161V133Q538 -15 318 -15Q221 -15 161 23T100 143V457Q100 540 164 577T331 615T486
579T538 459ZM180 467V322L368 341Q425 347 441 365T458 429V467Q458 545 319 545T180 467ZM260 670L253 667Q244 667 233 684T221 710T228 726L397 842Q402 846 413 846T440 822T456 781T445 758L260 670Z" />
<glyph unicode="&#xea;" glyph-name="ecircumflex" horiz-adv-x="638" d="M538 459V429Q538 344 503 312T375 271L180 252V133Q180 55 310 55Q458 55 458 123V161Q458 184 498 184T538 161V133Q538 -15 318 -15Q221 -15 161 23T100 143V457Q100 540 164 577T331
615T486 579T538 459ZM180 467V322L368 341Q425 347 441 365T458 429V467Q458 545 319 545T180 467ZM314 846H325Q330 846 334 842L454 726Q461 719 461 709T450 683T433 667T422 670L319 746L216 670Q212 667 206 667T188 682T177 708T184 726L304 842Q308 846
314 846Z" />
<glyph unicode="&#xeb;" glyph-name="edieresis" horiz-adv-x="638" d="M538 459V429Q538 344 503 312T375 271L180 252V133Q180 55 310 55Q458 55 458 123V161Q458 184 498 184T538 161V133Q538 -15 318 -15Q221 -15 161 23T100 143V457Q100 540 164 577T331
615T486 579T538 459ZM180 467V322L368 341Q425 347 441 365T458 429V467Q458 545 319 545T180 467ZM262 795V708Q262 683 219 683T175 708V795Q175 820 218 820T262 795ZM462 795V708Q462 683 419 683T375 708V795Q375 820 418 820T462 795Z" />
<glyph unicode="&#xec;" glyph-name="igrave" horiz-adv-x="300" d="M190 577V117Q190 85 205 58T220 29Q220 17 201 4T169 -10Q148 -10 129 26T110 107V577Q110 600 150 600T190 577ZM236 667L44 758Q33 764 33 780T49 821T76 846T92 842L261 726Q268 720 268
711T257 684T236 667Z" />
<glyph unicode="&#xed;" glyph-name="iacute" horiz-adv-x="300" d="M190 577V117Q190 85 205 58T220 29Q220 17 201 4T169 -10Q148 -10 129 26T110 107V577Q110 600 150 600T190 577ZM72 670L65 667Q56 667 45 684T33 710T40 726L209 842Q214 846 225 846T252
822T268 781T257 758L72 670Z" />
<glyph unicode="&#xee;" glyph-name="icircumflex" horiz-adv-x="300" d="M190 577V117Q190 85 205 58T220 29Q220 17 201 4T169 -10Q148 -10 129 26T110 107V577Q110 600 150 600T190 577ZM145 846H156Q161 846 165 842L285 726Q292 719 292 709T281 683T260
667Q258 667 253 670L150 746L47 670Q43 667 37 667T19 682T8 708T15 726L135 842Q139 846 145 846Z" />
<glyph unicode="&#xef;" glyph-name="idieresis" horiz-adv-x="300" d="M190 577V117Q190 85 205 58T220 29Q220 17 201 4T169 -10Q148 -10 129 26T110 107V577Q110 600 150 600T190 577ZM94 795V708Q94 683 51 683T7 708V795Q7 820 50 820T94 795ZM294 795V708Q294
683 251 683T207 708V795Q207 820 250 820T294 795Z" />
<glyph unicode="&#xf0;" glyph-name="eth" horiz-adv-x="654" d="M533 546V143Q533 60 474 23T317 -15T160 22T100 143V387Q100 470 159 507T320 545T462 496V547Q462 573 452 611L442 647L348 622Q330 622 330 651T351 686L426 706L406 782Q406 800 439 800T478
779L492 724L592 751Q610 751 610 721T589 687L508 665L518 630Q533 572 533 546ZM453 133V397Q453 475 317 475T180 397V133Q180 55 316 55T453 133Z" />
<glyph unicode="&#xf1;" glyph-name="ntilde" horiz-adv-x="653" d="M543 457V18Q543 -5 503 -5T463 18V467Q463 545 327 545T190 467V18Q190 -5 150 -5T110 18V457Q110 540 169 577T326 615T483 578T543 457ZM266 731L261 732Q248 732 248 707Q248 687 213 687T178
703Q178 758 196 785T243 812Q250 812 266 808L407 769Q409 768 413 768Q425 768 425 793Q425 813 460 813T495 797Q495 743 477 716T429 689Q419 689 407 692L266 731Z" />
<glyph unicode="&#xf2;" glyph-name="ograve" horiz-adv-x="633" d="M453 133V467Q453 545 317 545T180 467V133Q180 55 316 55T453 133ZM533 457V143Q533 60 474 23T317 -15T160 22T100 143V457Q100 540 159 577T316 615T473 578T533 457ZM402 667L210 758Q199
764 199 780T215 821T242 846T258 842L427 726Q434 720 434 711T423 684T402 667Z" />
<glyph unicode="&#xf3;" glyph-name="oacute" horiz-adv-x="633" d="M453 133V467Q453 545 317 545T180 467V133Q180 55 316 55T453 133ZM533 457V143Q533 60 474 23T317 -15T160 22T100 143V457Q100 540 159 577T316 615T473 578T533 457ZM258 670L251 667Q242
667 231 684T219 710T226 726L395 842Q400 846 411 846T438 822T454 781T443 758L258 670Z" />
<glyph unicode="&#xf4;" glyph-name="ocircumflex" horiz-adv-x="633" d="M453 133V467Q453 545 317 545T180 467V133Q180 55 316 55T453 133ZM533 457V143Q533 60 474 23T317 -15T160 22T100 143V457Q100 540 159 577T316 615T473 578T533 457ZM311 846H322Q327
846 331 842L451 726Q458 719 458 709T447 683T426 667Q424 667 419 670L316 746L213 670Q208 667 206 667Q196 667 185 682T174 708T181 726L301 842Q305 846 311 846Z" />
<glyph unicode="&#xf5;" glyph-name="otilde" horiz-adv-x="633" d="M453 133V467Q453 545 317 545T180 467V133Q180 55 316 55T453 133ZM533 457V143Q533 60 474 23T317 -15T160 22T100 143V457Q100 540 159 577T316 615T473 578T533 457ZM246 731L241 732Q228
732 228 707Q228 687 193 687T158 703Q158 758 176 785T223 812Q230 812 246 808L387 769Q389 768 393 768Q405 768 405 793Q405 813 440 813T475 797Q475 743 457 716T409 689Q399 689 387 692L246 731Z" />
<glyph unicode="&#xf6;" glyph-name="odieresis" horiz-adv-x="633" d="M453 133V467Q453 545 317 545T180 467V133Q180 55 316 55T453 133ZM533 457V143Q533 60 474 23T317 -15T160 22T100 143V457Q100 540 159 577T316 615T473 578T533 457ZM260 795V708Q260
683 217 683T173 708V795Q173 820 216 820T260 795ZM460 795V708Q460 683 417 683T373 708V795Q373 820 416 820T460 795Z" />
<glyph unicode="&#xf7;" glyph-name="divide" horiz-adv-x="600" d="M342 188V103Q342 79 300 79T257 103V188Q257 212 299 212T342 188ZM342 615V530Q342 506 300 506T257 530V615Q257 639 299 639T342 615ZM95 406H505Q525 406 525 371T505 336H95Q75 336 75
371T95 406Z" />
<glyph unicode="&#xf8;" glyph-name="oslash" horiz-adv-x="633" d="M533 457V143Q533 60 474 23T317 -15Q292 -15 269 -12L231 -153Q224 -176 191 -176T158 -159Q158 -157 162 -142L200 2Q100 37 100 143V457Q100 540 159 577T316 615Q341 615 365 612L402 751Q409
774 442 774T475 757Q475 755 471 740L433 597Q533 560 533 457ZM180 133Q180 93 219 72L346 544Q336 545 316 545Q180 545 180 467V133ZM453 133V467Q453 508 414 527L287 56Q297 55 317 55Q453 55 453 133Z" />
<glyph unicode="&#xf9;" glyph-name="ugrave" horiz-adv-x="653" d="M543 582V143Q543 60 484 23T326 -15T169 22T110 143V582Q110 605 150 605T190 582V133Q190 55 326 55T463 133V582Q463 605 503 605T543 582ZM412 667L220 758Q209 764 209 780T225 821T252
846T268 842L437 726Q444 720 444 711T433 684T412 667Z" />
<glyph unicode="&#xfa;" glyph-name="uacute" horiz-adv-x="653" d="M543 582V143Q543 60 484 23T326 -15T169 22T110 143V582Q110 605 150 605T190 582V133Q190 55 326 55T463 133V582Q463 605 503 605T543 582ZM268 670L261 667Q252 667 241 684T229 710T236
726L405 842Q410 846 421 846T448 822T464 781T453 758L268 670Z" />
<glyph unicode="&#xfb;" glyph-name="ucircumflex" horiz-adv-x="653" d="M543 582V143Q543 60 484 23T326 -15T169 22T110 143V582Q110 605 150 605T190 582V133Q190 55 326 55T463 133V582Q463 605 503 605T543 582ZM321 846H332Q337 846 341 842L461 726Q468
719 468 709T457 683T436 667Q434 667 429 670L326 746L223 670Q218 667 216 667Q206 667 195 682T184 708T191 726L311 842Q315 846 321 846Z" />
<glyph unicode="&#xfc;" glyph-name="udieresis" horiz-adv-x="653" d="M543 582V143Q543 60 484 23T326 -15T169 22T110 143V582Q110 605 150 605T190 582V133Q190 55 326 55T463 133V582Q463 605 503 605T543 582ZM270 795V708Q270 683 227 683T183 708V795Q183
820 226 820T270 795ZM470 795V708Q470 683 427 683T383 708V795Q383 820 426 820T470 795Z" />
<glyph unicode="&#xfd;" glyph-name="yacute" horiz-adv-x="610" d="M243 -250H171Q151 -250 151 -215T171 -180H243Q299 -180 320 -164T349 -102L363 -15H305Q226 -15 193 17T148 122L75 562Q71 585 71 587Q71 605 109 605T151 582L226 133Q233 90 248 73T305
55H375L463 582Q467 605 503 605T539 587Q539 585 536 564L425 -92Q409 -187 374 -218T243 -250ZM256 670L249 667Q240 667 229 684T217 710T224 726L393 842Q398 846 409 846T436 822T452 781T441 758L256 670Z" />
<glyph unicode="&#xfe;" glyph-name="thorn" horiz-adv-x="643" d="M190 467V-232Q190 -255 150 -255T110 -232V777Q110 800 150 800T190 777V589Q243 615 333 615T483 578T543 457V158Q543 75 484 38T327 0H240Q220 0 220 35T240 70H327Q463 70 463 148V467Q463
545 327 545T190 467Z" />
<glyph unicode="&#xff;" glyph-name="ydieresis" horiz-adv-x="610" d="M243 -250H171Q151 -250 151 -215T171 -180H243Q299 -180 320 -164T349 -102L363 -15H305Q226 -15 193 17T148 122L75 562Q71 585 71 587Q71 605 109 605T151 582L226 133Q233 90 248 73T305
55H375L463 582Q467 605 503 605T539 587Q539 585 536 564L425 -92Q409 -187 374 -218T243 -250ZM248 795V708Q248 683 205 683T161 708V795Q161 820 204 820T248 795ZM448 795V708Q448 683 405 683T361 708V795Q361 820 404 820T448 795Z" />
<glyph unicode="&#x2013;" glyph-name="endash" horiz-adv-x="653" d="M110 359H543Q563 359 563 324T543 289H110Q90 289 90 324T110 359Z" />
<glyph unicode="&#x2014;" glyph-name="emdash" horiz-adv-x="966" d="M110 359H856Q876 359 876 324T856 289H110Q90 289 90 324T110 359Z" />
<glyph unicode="&#x2018;" glyph-name="quoteleft" horiz-adv-x="201" d="M58 549V660Q58 692 76 743L85 767Q88 776 100 776T127 768T142 753Q142 749 140 744L125 704Q119 686 119 677T131 651T143 621V549Q143 525 101 525T58 549Z" />
<glyph unicode="&#x2019;" glyph-name="quoteright" horiz-adv-x="201" d="M143 766V655Q143 623 125 572L116 548Q113 539 101 539T74 547T59 562Q59 566 61 571L76 611Q82 629 82 638T70 664T58 694V766Q58 790 100 790T143 766Z" />
<glyph unicode="&#x201a;" glyph-name="quotesinglbase" horiz-adv-x="201" d="M143 94V-17Q143 -49 125 -100L116 -124Q113 -133 101 -133T74 -125T59 -110Q59 -106 61 -101L76 -61Q82 -43 82 -34T70 -8T58 22V94Q58 118 100 118T143 94Z" />
<glyph unicode="&#x201c;" glyph-name="quotedblleft" horiz-adv-x="371" d="M228 549V660Q228 692 246 743L255 767Q258 776 270 776T297 768T312 753Q312 749 310 744L295 704Q289 686 289 677T301 651T313 621V549Q313 525 271 525T228 549ZM58 549V660Q58
692 76 743L85 767Q88 776 100 776T127 768T142 753Q142 749 140 744L125 704Q119 686 119 677T131 651T143 621V549Q143 525 101 525T58 549Z" />
<glyph unicode="&#x201d;" glyph-name="quotedblright" horiz-adv-x="371" d="M143 766V655Q143 623 125 572L116 548Q113 539 101 539T74 547T59 562Q59 566 61 571L76 611Q82 629 82 638T70 664T58 694V766Q58 790 100 790T143 766ZM313 766V655Q313 623 295
572L286 548Q283 539 271 539T244 547T229 562Q229 566 231 571L246 611Q252 629 252 638T240 664T228 694V766Q228 790 270 790T313 766Z" />
<glyph unicode="&#x201e;" glyph-name="quotedblbase" horiz-adv-x="371" d="M143 94V-17Q143 -49 125 -100L116 -124Q113 -133 101 -133T74 -125T59 -110Q59 -106 61 -101L76 -61Q82 -43 82 -34T70 -8T58 22V94Q58 118 100 118T143 94ZM313 94V-17Q313 -49 295
-100L286 -124Q283 -133 271 -133T244 -125T229 -110Q229 -106 231 -101L246 -61Q252 -43 252 -34T240 -8T228 22V94Q228 118 270 118T313 94Z" />
<glyph unicode="&#x2022;" glyph-name="bullet" horiz-adv-x="311" d="M219 416V288Q219 252 156 252T92 288V416Q92 452 155 452T219 416Z" />
<glyph unicode="&#x2039;" glyph-name="guilsinglleft" horiz-adv-x="370" d="M235 610Q240 615 249 615T279 599T300 574T295 560L154 359L295 158Q300 153 300 144T279 119T249 103T235 108L84 309Q70 329 70 359T84 409L235 610Z" />
<glyph unicode="&#x203a;" glyph-name="guilsinglright" horiz-adv-x="370" d="M286 409Q300 389 300 359T286 309L135 108Q130 103 121 103T91 119T70 144T75 158L216 359L75 560Q70 565 70 573T90 598T120 615T135 610L286 409Z" />
</font>
</defs>
</svg>
