<?xml version="1.0" standalone="no"?>
<!DOCTYPE svg PUBLIC "-//W3C//DTD SVG 1.1//EN" "http://www.w3.org/Graphics/SVG/1.1/DTD/svg11.dtd">
<svg xmlns="http://www.w3.org/2000/svg">
<defs >
<font id="Khula" horiz-adv-x="1209" ><font-face
    font-family="Khula"
    units-per-em="1978"
    panose-1="2 0 0 0 0 0 0 0 0 0"
    ascent="1978"
    descent="-1198"
    alphabetic="0" />
<glyph unicode=" " glyph-name="space" horiz-adv-x="532" />
<glyph unicode="!" glyph-name="exclam" horiz-adv-x="695" d="M505 58T464 17T348 -24T232 16T190 130T230 243T347 282T464 242T505 130ZM505 1316L459 436H240L194 1316H505Z" />
<glyph unicode="&quot;" glyph-name="quotedbl" horiz-adv-x="1031" d="M200 1316H451L414 841H237L200 1316ZM579 1316H831L794 841H616L579 1316Z" />
<glyph unicode="#" glyph-name="numbersign" horiz-adv-x="1191" d="M1150 760H899L857 551H1089V365H822L752 0H554L625 365H450L382 0H188L255 365H40V551H290L332 760H105V948H365L435 1314H632L562 948H741L811 1314H1004L934 948H1150V760ZM527 760L485 551H661L704
760H527Z" />
<glyph unicode="$" glyph-name="dollar" horiz-adv-x="1052" d="M983 411Q983 268 880 181T589 77V-107H466V74Q245 79 81 151V389Q158 350 270 321T466 285V564L406 588Q227 659 153 740Q79 823 79 949T181 1159T466 1261V1399H589V1264Q797 1255 962 1182L877
971Q739 1029 589 1041V776Q763 709 838 659T948 550T983 411ZM712 398Q712 435 684 461T589 516V292Q712 312 712 398ZM350 944Q350 906 376 880T466 826V1038Q350 1021 350 944Z" />
<glyph unicode="%" glyph-name="percent" horiz-adv-x="1660" d="M1291 621Q1246 621 1226 566T1205 396Q1205 169 1291 169T1377 395T1291 621ZM1289 809Q1441 809 1522 703T1604 394T1525 88T1292 -16T1059 91T978 398Q978 809 1289 809ZM369 1147Q324 1147
304 1092T283 922Q283 695 369 695T455 921T369 1147ZM1085 1316H1301L571 0H355L1085 1316ZM367 1335Q519 1335 600 1228T682 919T603 613T371 508T138 615T57 923Q57 1335 367 1335Z" />
<glyph unicode="&amp;" glyph-name="ampersand" horiz-adv-x="1382" d="M940 102Q768 -18 550 -18T202 83Q74 184 74 355Q74 480 128 566T315 728Q247 805 217 876T186 1030Q186 1167 291 1251T567 1335T839 1257T940 1048Q940 940 877 852T677 684L932 435Q997
540 1043 706H1329Q1262 451 1111 264L1382 0H1043L940 102ZM363 382Q363 304 421 258T581 212T774 267L475 564Q363 480 363 382ZM608 883T647 924T686 1016T654 1094T566 1122T475 1094T440 1012Q440 932 526 837Q608 883 647 924Z" />
<glyph unicode="&apos;" glyph-name="quotesingle" horiz-adv-x="651" d="M200 1316H451L414 841H237L200 1316Z" />
<glyph unicode="(" glyph-name="parenleft" horiz-adv-x="700" d="M223 -49T154 155T84 596T153 1041T355 1406H580Q454 1233 389 1025T323 597T389 172T578 -202H355Q223 -49 154 155Z" />
<glyph unicode=")" glyph-name="parenright" horiz-adv-x="700" d="M477 1248T546 1040T616 596T547 155T345 -202H122Q243 -36 309 168T376 595T311 1025T120 1406H345Q477 1248 546 1040Z" />
<glyph unicode="*" glyph-name="asterisk" horiz-adv-x="1004" d="M383 1400H619L582 1069L918 1163L948 936L642 914L842 647L638 538L498 820L374 540L162 647L361 914L57 938L92 1163L420 1069L383 1400Z" />
<glyph unicode="+" glyph-name="plus" horiz-adv-x="1052" d="M427 204V551H79V748H427V1099H625V748H973V551H625V204H427Z" />
<glyph unicode="," glyph-name="comma" horiz-adv-x="535" d="M400 214L413 193Q368 17 255 -238H57Q114 -5 148 214H400Z" />
<glyph unicode="-" glyph-name="hyphen" horiz-adv-x="673" d="M578 472H95V697H578V472Z" />
<glyph unicode="." glyph-name="period" horiz-adv-x="526" d="M420 58T379 17T263 -24T147 16T105 130T145 243T262 282T379 242T420 130Z" />
<glyph unicode="/" glyph-name="slash" horiz-adv-x="761" d="M503 1316H752L262 0H13L503 1316Z" />
<glyph unicode="0" glyph-name="zero" horiz-adv-x="1052" d="M343 900T343 658T385 311T525 206T666 311T709 658T665 1005Q622 1111 525 1111T385 1006ZM67 1005T179 1170T522 1336T869 1164T986 652T873 148T529 -18T183 153T67 664Z" />
<glyph unicode="1" glyph-name="one" horiz-adv-x="1052" d="M761 1316V0H483V761L490 1023Q424 957 394 932L243 811L109 978L533 1316H761Z" />
<glyph unicode="2" glyph-name="two" horiz-adv-x="1052" d="M994 234V0H74V193L404 527Q555 682 596 736Q680 844 680 946Q680 1023 638 1062T520 1102Q384 1102 221 967L70 1147Q166 1228 231 1263Q361 1335 543 1335T841 1236T957 978Q957 888 926 808T825
643T589 406L420 247V234H994Z" />
<glyph unicode="3" glyph-name="three" horiz-adv-x="1052" d="M942 1021Q942 898 868 812T658 693V688Q817 668 899 591T981 383Q981 194 844 88T450 -18Q238 -18 70 53V290Q244 202 420 202Q559 202 624 249T689 393T615 530T373 570H273V783H374Q529 783 599
824T669 960Q669 1110 481 1110Q350 1110 201 1013L72 1205Q251 1335 501 1335Q705 1335 823 1253T942 1021Z" />
<glyph unicode="4" glyph-name="four" horiz-adv-x="1052" d="M593 489V712Q593 779 597 878T605 997H598Q564 924 517 853L276 489H593ZM1023 489V273H865V0H593V273H31V466L608 1316H865V489H1023Z" />
<glyph unicode="5" glyph-name="five" horiz-adv-x="1052" d="M553 841Q744 841 856 734T969 440Q969 219 833 101T445 -18Q226 -18 90 53V293Q159 256 254 232T435 208Q689 208 689 417Q689 616 426 616Q327 616 227 586L116 645L166 1316H879V1080H409L385 822L417
828Q470 841 553 841Z" />
<glyph unicode="6" glyph-name="six" horiz-adv-x="1052" d="M341 459Q341 352 397 278T541 204T676 264T724 428T679 587T547 642T401 587T341 459ZM617 855Q794 855 894 745T994 432T875 106T540 -18T195 134T65 559Q65 948 229 1139T724 1331Q839 1331 901
1318V1095Q822 1113 742 1113Q463 1113 373 942Q327 857 320 702H332Q420 855 617 855Z" />
<glyph unicode="7" glyph-name="seven" horiz-adv-x="1052" d="M49 1080V1314H994V1139L496 0H204L698 1080H49Z" />
<glyph unicode="8" glyph-name="eight" horiz-adv-x="1052" d="M322 350Q322 273 376 230T527 186T677 229T730 340T680 460T514 573Q322 484 322 350ZM614 851T650 894T686 996T642 1092T526 1129T411 1093T367 999T401 898Q436 856 527 811Q614 851 650 894ZM338
1333T527 1333T832 1247T948 1015Q948 913 891 835T712 695Q857 618 922 532T988 341Q988 179 861 80Q733 -18 523 -18T188 74Q65 166 65 334Q65 448 125 535T317 688Q105 821 105 1017Q105 1158 221 1245Z" />
<glyph unicode="9" glyph-name="nine" horiz-adv-x="1052" d="M328 -18Q209 -18 151 -5V218Q226 199 321 200T491 222T618 291T698 417T732 610H721Q670 527 602 492T429 457Q257 457 158 567T59 881T179 1208Q301 1331 507 1331Q727 1333 859 1178T988 754Q988
365 825 174T328 -18ZM599 1108T512 1108T377 1048T328 884T373 725T505 670T652 725T712 853Q712 961 656 1034Z" />
<glyph unicode=":" glyph-name="colon" horiz-adv-x="526" d="M420 58T379 17T263 -24T147 16T105 130T145 243T262 282T379 242T420 130ZM420 800T379 760T263 719T147 758T105 872Q105 1025 264 1025Q339 1025 379 986T420 873Z" />
<glyph unicode=";" glyph-name="semicolon" horiz-adv-x="535" d="M148 214H400L413 193Q368 17 255 -238H57Q114 -5 148 214ZM420 800T379 760T263 719T147 758T105 872Q105 1025 264 1025Q339 1025 379 986T420 873Z" />
<glyph unicode="&lt;" glyph-name="less" horiz-adv-x="1052" d="M973 398V183L79 577V706L973 1152V936L357 651L973 398Z" />
<glyph unicode="=" glyph-name="equal" horiz-adv-x="1052" d="M973 376H79V573H973V376ZM973 724H79V922H973V724Z" />
<glyph unicode="&gt;" glyph-name="greater" horiz-adv-x="1052" d="M79 183V398L695 651L79 936V1152L973 706V577L79 183Z" />
<glyph unicode="?" glyph-name="question" horiz-adv-x="1060" d="M660 57T619 17T502 -24T386 16T345 130T385 243T502 282T619 242T660 130ZM612 436H373V503Q373 589 410 653T543 787T670 899T700 996T657 1082T536 1113Q400 1113 228 1025L130 1222Q332 1335
556 1335Q740 1335 850 1246T960 1008Q960 909 915 837T744 675Q655 608 634 576T612 490V436Z" />
<glyph unicode="@" glyph-name="at" horiz-adv-x="1653" d="M877 826Q766 826 703 757T640 564Q640 374 795 374Q876 374 918 431T969 617L981 816Q937 826 877 826ZM1021 326Q923 210 769 210T523 305Q431 402 431 568Q431 758 552 874T867 990Q944 990 1035
976T1191 940L1170 499Q1170 374 1238 374Q1296 374 1330 458T1364 679Q1368 895 1232 1031T885 1163Q706 1165 571 1089T363 872T292 547Q292 298 425 166T809 33Q1012 33 1244 116V-57Q1052 -139 816 -139Q474 -139 283 41T92 542Q92 764 189 945T467 1229T883
1333Q1082 1333 1237 1252T1476 1022T1562 676T1469 343T1228 210Q1162 210 1110 242T1036 326H1021Z" />
<glyph unicode="A" glyph-name="A" horiz-adv-x="1272" d="M1272 0H971L876 313H396L301 0H0L464 1321H805L1272 0ZM466 547H809L660 1028Q644 1082 636 1117Q609 1009 466 547Z" />
<glyph unicode="B" glyph-name="B" horiz-adv-x="1238" d="M617 573H445V230H626Q741 230 796 274T851 409Q851 573 617 573ZM445 1087V795H607Q721 795 771 830T822 943T767 1054T591 1087H445ZM166 0V1316H575Q854 1316 981 1237T1108 983Q1108 866 1053 790T905
698V689Q1028 662 1084 586T1141 382Q1141 201 1011 101T658 0H166Z" />
<glyph unicode="C" glyph-name="C" horiz-adv-x="1174" d="M724 1102Q567 1102 480 984Q394 865 394 654Q394 214 724 214Q864 214 1060 283V49Q899 -18 698 -18Q411 -18 259 156T107 656Q104 964 273 1151T724 1335Q916 1335 1110 1242L1020 1015Q837 1102 724 1102Z" />
<glyph unicode="D" glyph-name="D" horiz-adv-x="1364" d="M564 230Q967 230 967 663Q967 1087 593 1087H445V230H564ZM579 1316Q900 1316 1078 1147T1257 662T1072 173T538 0H166V1316H579Z" />
<glyph unicode="E" glyph-name="E" horiz-adv-x="1032" d="M923 230V0H166V1316H923V1087H445V798H890V570H445V230H923Z" />
<glyph unicode="F" glyph-name="F" horiz-adv-x="1012" d="M440 520V0H166V1316H920V1087H440V748H886V520H440Z" />
<glyph unicode="G" glyph-name="G" horiz-adv-x="1335" d="M665 507V739H1187V57Q961 -18 719 -18Q422 -18 265 157T107 654T289 1156Q473 1335 795 1335Q998 1335 1185 1254L1093 1030Q949 1102 793 1102Q613 1102 504 981T394 650T482 327T737 214Q824 214 914
232V507H665Z" />
<glyph unicode="H" glyph-name="H" horiz-adv-x="1410" d="M1244 1316V0H966V568H445V0H166V1316H445V800H966V1316H1244Z" />
<glyph unicode="I" glyph-name="I" horiz-adv-x="610" d="M445 0H166V1316H445V0Z" />
<glyph unicode="J" glyph-name="J" horiz-adv-x="610" d="M445 85Q445 -147 340 -267T28 -387Q-65 -387 -137 -367V-135Q-65 -153 -5 -153Q85 -153 125 -97T166 83V1316H445V85Z" />
<glyph unicode="K" glyph-name="K" horiz-adv-x="1224" d="M445 0H166V1316H445V714L554 868L911 1316H1220L761 733L1224 0H907L562 554L445 470V0Z" />
<glyph unicode="L" glyph-name="L" horiz-adv-x="1041" d="M978 0H166V1316H445V230H978V0Z" />
<glyph unicode="M" glyph-name="M" horiz-adv-x="1738" d="M1312 623Q1312 686 1312 723T1326 1030H1318L978 0H723L406 1032H398Q415 707 415 612V0H166V1316H545L857 310H862L1192 1316H1572V0H1312V623Z" />
<glyph unicode="N" glyph-name="N" horiz-adv-x="1498" d="M1333 1316V0H978L406 995H398Q415 725 415 619V0H166V1316H517L1089 330H1095Q1082 577 1082 693V1316H1333Z" />
<glyph unicode="O" glyph-name="O" horiz-adv-x="1467" d="M735 1104Q569 1104 485 992T400 660Q400 216 733 216T1067 660T735 1104ZM269 1163Q433 1336 736 1336T1199 1161T1360 659T1198 157T734 -18T269 157T107 661T269 1163Z" />
<glyph unicode="P" glyph-name="P" horiz-adv-x="1157" d="M445 1087V697H536Q793 697 793 895Q793 994 740 1040T571 1087H445ZM586 1316Q826 1316 950 1213T1075 901T943 581T564 468H445V0H166V1316H586Z" />
<glyph unicode="Q" glyph-name="Q" horiz-adv-x="1467" d="M735 1104Q569 1104 485 992T400 660Q400 216 733 216T1067 660T735 1104ZM1360 660Q1360 427 1278 270T1036 40L1353 -313H995L754 -18H733Q431 -18 269 157T107 661T269 1163Q433 1336 736 1336T1199
1161T1360 660Z" />
<glyph unicode="R" glyph-name="R" horiz-adv-x="1217" d="M445 505V0H166V1316H549Q816 1316 945 1219T1075 922Q1075 806 1012 716T830 573Q1127 130 1217 0H907L593 505H445ZM445 1087V732H535Q667 732 730 776T793 913T730 1046T529 1087H445Z" />
<glyph unicode="S" glyph-name="S" horiz-adv-x="1015" d="M942 365Q942 188 814 85T466 -18T85 61V320Q218 262 310 237T487 212T620 247T669 352Q669 392 647 421T587 477T420 564T232 677Q100 791 100 963T218 1235T545 1335Q722 1335 936 1242L846 1025Q741
1068 671 1085T530 1102T416 1066T373 969Q373 899 444 851Q479 827 621 760Q804 672 873 583T942 365Z" />
<glyph unicode="T" glyph-name="T" horiz-adv-x="1067" d="M673 1084V0H394V1084H37V1316H1030V1084H673Z" />
<glyph unicode="U" glyph-name="U" horiz-adv-x="1393" d="M958 1316H1237V464Q1239 245 1090 112T691 -18Q436 -18 297 112T157 468V1316H435V510Q435 356 496 286T696 216T896 287T958 512V1316Z" />
<glyph unicode="V" glyph-name="V" horiz-adv-x="1198" d="M667 533L916 1316H1198L751 0H446L0 1316H282L529 533Q547 472 570 376T599 243Q610 333 667 533Z" />
<glyph unicode="W" glyph-name="W" horiz-adv-x="1782" d="M1782 1316L1447 0H1129L951 691Q942 724 918 841T890 999Q886 950 863 842L830 689L652 0H336L0 1316H274L443 598Q489 387 507 253Q512 305 530 406T568 579L760 1316H1023L1215 579Q1227 536 1246
427Q1262 346 1275 253Q1283 313 1303 424T1340 598L1507 1316H1782Z" />
<glyph unicode="X" glyph-name="X" horiz-adv-x="1229" d="M785 663L1229 0H911L605 498L299 0H0L436 679L28 1316H336L619 842L897 1316H1198L785 663Z" />
<glyph unicode="Y" glyph-name="Y" horiz-adv-x="1150" d="M714 0H436V503L0 1316H302L575 774L850 1316H1150L714 512V0Z" />
<glyph unicode="Z" glyph-name="Z" horiz-adv-x="1067" d="M1023 230V0H44V181L675 1085H61V1316H1006V1136L376 230H1023Z" />
<glyph unicode="[" glyph-name="bracketleft" horiz-adv-x="610" d="M564 -12V-202H129V1406H564V1216H363V-12H564Z" />
<glyph unicode="\" glyph-name="backslash" horiz-adv-x="761" d="M11 1316H260L751 0H501L11 1316Z" />
<glyph unicode="]" glyph-name="bracketright" horiz-adv-x="610" d="M46 -202V-12H247V1216H46V1406H481V-202H46Z" />
<glyph unicode="^" glyph-name="asciicircum" horiz-adv-x="981" d="M220 468H7L401 1323H531L976 468H761L472 1047L220 468Z" />
<glyph unicode="_" glyph-name="underscore" horiz-adv-x="758" d="M761 -166V-292H-4V-166H761Z" />
<glyph unicode="`" glyph-name="grave" horiz-adv-x="1092" d="M815 1245L646 1241Q638 1246 585 1276T497 1330Q373 1424 302 1483Q292 1493 270 1532L549 1536Q559 1522 620 1473T716 1386Q716 1385 779 1307Q784 1300 796 1276T815 1245Z" />
<glyph unicode="a" glyph-name="a" horiz-adv-x="1113" d="M975 0H783L730 137H723Q653 49 580 16T389 -18Q243 -18 160 65T77 304T187 536T527 621L702 626V670Q702 823 545 823Q426 823 262 751L171 936Q344 1027 552 1027T868 938T975 670V0ZM702 383V466L596
463Q475 459 417 420T359 299Q359 183 492 183Q588 183 645 237T702 383Z" />
<glyph unicode="b" glyph-name="b" horiz-adv-x="1166" d="M804 362T804 508T755 729T610 805T467 742T418 536V507Q418 346 466 275T619 204Q705 204 754 283ZM418 876Q516 1025 699 1025T983 886T1084 501T980 119T697 -18T418 111H400L354 0H144V1400H418V1075Q418
1006 408 876H418Z" />
<glyph unicode="c" glyph-name="c" horiz-adv-x="948" d="M553 -18Q83 -18 83 498Q83 754 210 889T577 1025Q749 1025 890 957L809 744Q660 804 577 804Q363 804 363 504T577 204Q726 204 859 292V57Q794 15 727 -1T553 -18Z" />
<glyph unicode="d" glyph-name="d" horiz-adv-x="1166" d="M748 130Q654 -18 470 -18T184 119Q83 258 83 504T186 887T475 1025T760 877H769Q748 990 748 1078V1400H1023V0H813L760 130H748ZM361 498Q361 201 559 201Q664 201 713 262T767 470V499Q767 661 717
731T554 802Q462 802 412 724T361 498Z" />
<glyph unicode="e" glyph-name="e" horiz-adv-x="1089" d="M751 718T700 774T562 830T424 775T367 617H752Q751 718 700 774ZM953 53Q811 -18 599 -18Q356 -18 220 115T83 499T209 887Q337 1025 554 1025T891 903T1010 568V435H361Q365 317 430 252T612 186Q785
186 953 265V53Z" />
<glyph unicode="f" glyph-name="f" horiz-adv-x="714" d="M700 1006V800H463V0H188V800H37V932L188 1006V1080Q188 1252 273 1331T544 1410Q686 1410 796 1368L726 1166Q642 1192 580 1192T490 1159T463 1069V1006H700Z" />
<glyph unicode="g" glyph-name="g" horiz-adv-x="1041" d="M294 -48Q243 -84 243 -141T297 -231T450 -264Q597 -264 681 -224T765 -113Q765 -57 717 -35T562 -13H420Q346 -13 294 -48ZM1020 1006V867L862 826Q905 759 905 675Q905 514 793 423T479 332L389 339Q346
308 346 267Q346 208 498 208H669Q835 208 921 137T1008 -72Q1008 -248 861 -345T438 -443Q229 -443 117 -370T5 -164Q5 -73 62 -12T229 76Q185 95 154 135T123 226T154 314T253 392Q173 428 127 503T81 680Q81 845 188 935T494 1025Q532 1025 595 1017T669 1006H1020ZM494
859Q343 859 343 677Q343 593 381 546T494 499T606 546T643 677Q643 859 494 859Z" />
<glyph unicode="h" glyph-name="h" horiz-adv-x="1211" d="M1073 656V0H798V588Q798 805 636 805Q521 805 470 727T418 473V0H144V1400H418V1115Q418 1039 406 877H420Q511 1025 712 1025Q888 1025 980 930T1073 656Z" />
<glyph unicode="i" glyph-name="i" horiz-adv-x="562" d="M418 1006V0H144V1006H418ZM282 1131Q132 1131 132 1265T281 1400T431 1266Q431 1201 393 1166T282 1131Z" />
<glyph unicode="j" glyph-name="j" horiz-adv-x="562" d="M418 -109Q418 -269 326 -356T63 -443Q-40 -443 -118 -420V-204Q-53 -221 11 -221Q144 -221 144 -68V1006H418V-109ZM282 1131Q132 1131 132 1265T281 1400T431 1266Q431 1201 393 1166T282 1131Z" />
<glyph unicode="k" glyph-name="k" horiz-adv-x="1143" d="M418 0H144V1400H418V776L404 547H408L527 700L809 1006H1119L719 570L1143 0H826L536 408L418 313V0Z" />
<glyph unicode="l" glyph-name="l" horiz-adv-x="562" d="M418 1400V0H144V1400H418Z" />
<glyph unicode="m" glyph-name="m" horiz-adv-x="1810" d="M1045 505V0H770V588Q770 698 733 751T619 805Q514 805 466 729T418 473V0H144V1006H354L391 877H406Q446 947 522 986T698 1025Q925 1025 1004 877H1029Q1068 948 1147 986T1326 1025Q1500 1025 1586
936T1672 656V0H1397V588Q1397 698 1360 751T1246 805Q1144 805 1095 733T1045 505Z" />
<glyph unicode="n" glyph-name="n" horiz-adv-x="1211" d="M1073 656V0H798V588Q798 698 759 751T636 805Q522 805 470 729T418 473V0H144V1006H354L391 877H406Q451 949 531 987T715 1025Q891 1025 982 931T1073 656Z" />
<glyph unicode="o" glyph-name="o" horiz-adv-x="1141" d="M679 804T570 804T412 731T363 505T413 277T571 202T728 277T778 504T729 730ZM573 1025Q792 1028 927 885T1058 505Q1058 259 929 121T568 -18Q349 -20 215 124T83 505Q83 751 211 888Q340 1025 573 1025Z" />
<glyph unicode="p" glyph-name="p" horiz-adv-x="1166" d="M418 -35V-443H144V1006H367L406 876H418Q516 1025 699 1025T983 888T1084 507T979 122T697 -18Q518 -18 418 111H404Q418 -20 418 -35ZM804 508Q804 658 758 731T613 805T467 742T418 536V507Q418 346
466 275T619 204Q804 204 804 508Z" />
<glyph unicode="q" glyph-name="q" horiz-adv-x="1166" d="M363 498Q363 345 411 271T562 197T713 257T767 466V499Q767 660 717 731T556 802Q363 802 363 498ZM463 -18Q284 -18 184 118T83 502T186 887T471 1025T760 877H767L791 1006H1023V-443H748V-21Q748
34 760 130H748Q657 -18 463 -18Z" />
<glyph unicode="r" glyph-name="r" horiz-adv-x="837" d="M706 1025Q758 1025 798 1017L778 760Q744 769 697 769Q565 769 492 702T418 512V0H144V1006H352L392 837H406Q454 923 534 974T706 1025Z" />
<glyph unicode="s" glyph-name="s" horiz-adv-x="916" d="M739 522Q846 441 846 292T738 63T428 -18T85 40V267Q162 231 257 207T426 183Q575 183 575 269Q575 312 535 339T369 421T186 517Q132 559 108 612T83 744Q83 878 187 951T477 1025T835 946L752 748Q665
785 603 803T477 822Q355 822 355 756Q355 719 396 691T559 614T739 522Z" />
<glyph unicode="t" glyph-name="t" horiz-adv-x="800" d="M448 315Q448 258 480 230T577 201T741 232V28Q639 -18 483 -18T250 64T174 315V800H42V916L193 1008L273 1220H448V1006H730V800H448V315Z" />
<glyph unicode="u" glyph-name="u" horiz-adv-x="1211" d="M1067 0H857L820 129H805Q761 58 680 20T496 -18Q320 -18 230 76T139 350V1006H413V418Q413 309 452 255T575 201Q690 201 741 277T793 533V1006H1067V0Z" />
<glyph unicode="v" glyph-name="v" horiz-adv-x="1048" d="M665 0H383L0 1006H287L481 433Q515 321 522 227H527Q531 311 568 433L761 1006H1048L665 0Z" />
<glyph unicode="w" glyph-name="w" horiz-adv-x="1578" d="M1270 0H971L894 352L789 796H783L599 0H304L18 1006H292L408 561Q434 450 464 230H470Q473 304 516 524L640 1006H942L1060 524Q1102 322 1106 230H1111Q1119 285 1140 402T1170 561L1291 1006H1560L1270 0Z" />
<glyph unicode="x" glyph-name="x" horiz-adv-x="1066" d="M9 0L350 514L26 1006H337L533 686L730 1006H1041L714 514L1057 0H744L533 345L320 0H9Z" />
<glyph unicode="y" glyph-name="y" horiz-adv-x="1048" d="M202 -443Q130 -443 63 -428V-210Q115 -221 171 -221Q323 -221 383 -42L400 7L0 1006H301L490 440Q515 369 524 265H529Q539 357 568 440L754 1006H1048L623 -129Q564 -284 456 -363T202 -443Z" />
<glyph unicode="z" glyph-name="z" horiz-adv-x="899" d="M844 210V0H49V162L516 796H77V1006H828V828L374 210H844Z" />
<glyph unicode="{" glyph-name="braceleft" horiz-adv-x="804" d="M704 -202Q485 -202 397 -145Q310 -90 310 49V333Q310 411 251 452T80 494V709Q193 709 251 748T310 862V1156Q310 1294 397 1349Q485 1406 704 1406V1203Q617 1201 583 1171T548 1076V807Q542
638 337 607V597Q548 566 548 406V129Q548 64 582 34T704 2V-202Z" />
<glyph unicode="|" glyph-name="bar" horiz-adv-x="1015" d="M409 -419V1395H607V-419H409Z" />
<glyph unicode="}" glyph-name="braceright" horiz-adv-x="804" d="M100 -202V2Q187 4 221 33T256 129V408Q256 485 309 533T466 597V607Q262 639 256 807V1076Q256 1141 222 1171T100 1203V1406Q218 1404 289 1393T408 1352T474 1277T494 1156V860Q494 709 724
709V494Q609 494 552 456T494 333V49Q494 -52 457 -103T335 -178T100 -202Z" />
<glyph unicode="~" glyph-name="asciitilde" horiz-adv-x="1052" d="M290 605Q190 605 79 496V704Q172 802 310 802Q424 802 548 749T763 695Q812 695 868 724T973 804V596Q881 498 742 498Q686 498 631 509T494 554Q376 605 290 605Z" />
<glyph unicode="&#xa0;" glyph-name="nbspace" horiz-adv-x="532" />
<glyph unicode="&#xa9;" glyph-name="copyright" horiz-adv-x="1534" d="M1001 857Q900 909 809 909T671 843T623 658Q623 406 805 406Q924 406 1027 459V287Q919 236 800 236Q615 236 515 348T415 659T514 968Q615 1078 793 1078Q928 1078 1067 1008L1001 857ZM1316
512T1316 658T1243 931T1041 1133T766 1207T493 1134T292 933T218 657T291 383T492 183T767 109T1041 182T1242 383ZM1356 325Q1270 170 1112 76T767 -18T423 74T178 323T90 659T180 995T427 1244T765 1335T1103 1245T1352 998T1444 660T1356 325Z" />
<glyph unicode="&#xd7;" glyph-name="multiply" horiz-adv-x="1052" d="M118 380L385 651L116 922L253 1060L524 791L798 1060L936 925L661 651L932 378L798 241L524 512L253 243L118 380Z" />
<glyph unicode="&#xf7;" glyph-name="divide" horiz-adv-x="1052" d="M651 273T618 236T525 199T433 234T400 336T432 437T525 472T618 437T651 337ZM973 551H79V748H973V551ZM651 901T618 865T525 828T433 863T400 964T433 1065T526 1101T618 1065T651 965Z" />
<glyph unicode="&#x2013;" glyph-name="endash" horiz-adv-x="1092" d="M977 474H115V697H977V474Z" />
<glyph unicode="&#x2014;" glyph-name="emdash" horiz-adv-x="1923" d="M1808 472H115V697H1808V472Z" />
<glyph unicode="&#x2018;" glyph-name="quoteleft" horiz-adv-x="706" d="M425 865H173L160 885Q178 962 225 1089T319 1316H516Q455 1063 425 865Z" />
<glyph unicode="&#x2019;" glyph-name="quoteright" horiz-adv-x="676" d="M250 1316H503L516 1296Q471 1120 358 865H160Q223 1129 250 1316Z" />
<glyph unicode="&#x201c;" glyph-name="quotedblleft" horiz-adv-x="1126" d="M593 865L581 885Q599 962 644 1087T739 1316H936Q875 1063 845 865H593ZM173 865L160 885Q178 962 225 1089T319 1316H516Q455 1063 425 865H173Z" />
<glyph unicode="&#x201d;" glyph-name="quotedblright" horiz-adv-x="1096" d="M503 1316L516 1296Q471 1120 358 865H160Q223 1129 250 1316H503ZM923 1316L936 1296Q891 1120 778 865H581Q642 1128 671 1316H923Z" />
<glyph unicode="&#x2022;" glyph-name="bullet" horiz-adv-x="693" d="M605 536T537 462T346 387T155 461T88 674T154 885T345 958T537 885T605 674Z" />
</font>
</defs>
</svg>
