<?xml version="1.0" standalone="no"?>
<!DOCTYPE svg PUBLIC "-//W3C//DTD SVG 1.1//EN" "http://www.w3.org/Graphics/SVG/1.1/DTD/svg11.dtd">
<svg xmlns="http://www.w3.org/2000/svg">
<defs >
<font id="RaviPrakash" horiz-adv-x="542" ><font-face
    font-family="Ravi Prakash"
    units-per-em="1024"
    panose-1="2 0 6 0 0 0 0 0 0 0"
    ascent="938"
    descent="-684"
    alphabetic="0" />
<glyph unicode=" " glyph-name="space" horiz-adv-x="245" />
<glyph unicode="!" glyph-name="exclam" horiz-adv-x="313" d="M82 33T82 64T104 117T158 140T212 118T234 64T212 11T159 -12T105 10ZM242 559L265 526L193 193L120 185L94 534L242 559Z" />
<glyph unicode="&quot;" glyph-name="quotedbl" horiz-adv-x="369" d="M64 376L33 594L149 605L126 378L64 376ZM252 376L221 594L338 605L314 378L252 376Z" />
<glyph unicode="#" glyph-name="numbersign" horiz-adv-x="650" d="M320 -56L365 106H192L132 -74L74 -56L118 106H41L53 174L139 177L179 323L66 318L77 409H203L258 606L350 580L293 409H449L504 606L595 580L538 409H610L597 341L514 338L466 191L585 196L573
106H438L378 -74L320 -56ZM266 327L216 180L387 187L429 334L266 327Z" />
<glyph unicode="$" glyph-name="dollar" horiz-adv-x="469" d="M118 314Q118 397 200 476L189 614H270L263 528Q285 543 329 574L428 441Q364 419 325 385T286 318T305 228T325 146Q325 78 260 31L270 -92H189L196 -3Q154 -21 83 -37L66 16Q180 48 180 130Q180
151 165 180T134 244T118 314Z" />
<glyph unicode="%" glyph-name="percent" horiz-adv-x="651" d="M202 -56L385 606L460 588L242 -66L202 -56ZM148 218Q98 218 52 250Q25 318 25 382Q25 492 77 549Q114 560 142 560Q194 560 238 527Q267 458 267 397Q267 287 216 232Q178 218 148 218ZM132 473T112
416T92 321T95 267Q108 264 126 264Q161 304 180 361T199 457T196 512Q182 514 167 514Q132 473 112 416ZM507 -11Q457 -11 410 22Q383 90 383 152Q383 262 436 319Q473 330 502 331Q554 331 597 298Q626 229 626 167Q626 57 575 2Q537 -11 507 -11ZM491 244T471
187T450 91T454 38Q467 35 484 34Q519 74 538 131T558 227T554 282Q540 284 526 285Q491 244 471 187Z" />
<glyph unicode="&amp;" glyph-name="ampersand" horiz-adv-x="503" d="M298 -10L270 -11Q207 -11 154 3T71 42Q57 108 58 178Q58 299 99 404T228 574L386 474Q264 396 198 277L528 290L526 235L439 226Q419 108 370 -171L315 -178L298 -10ZM140 66Q185 57 223
57T291 62L275 206L162 194Q140 128 140 66Z" />
<glyph unicode="&apos;" glyph-name="quotesingle" horiz-adv-x="181" d="M64 376L33 594L149 605L126 378L64 376Z" />
<glyph unicode="(" glyph-name="parenleft" horiz-adv-x="327" d="M66 283Q66 451 166 605L303 579Q152 408 151 226Q151 87 238 -66L189 -80Q66 94 66 283Z" />
<glyph unicode=")" glyph-name="parenright" horiz-adv-x="327" d="M176 226Q176 408 25 579L162 605Q263 452 262 283Q262 93 138 -80L90 -66Q176 87 176 226Z" />
<glyph unicode="*" glyph-name="asterisk" horiz-adv-x="467" d="M279 571L262 445L354 523L410 442L293 394L407 354L365 265L265 342L286 224L189 215L205 341L113 263L58 344L174 391L61 433L103 522L202 443L181 562L279 571Z" />
<glyph unicode="+" glyph-name="plus" horiz-adv-x="500" d="M296 302H428L419 234L296 226V80L228 89L218 221L74 212L82 302H214L206 434L296 426V302Z" />
<glyph unicode="," glyph-name="comma" horiz-adv-x="233" d="M114 -3Q103 -12 85 -12T54 8T41 66T56 121T117 140T187 114Q193 84 194 45Q194 -85 122 -150L60 -101Q107 -62 118 -5L114 -3Z" />
<glyph unicode="-" glyph-name="hyphen" horiz-adv-x="364" d="M307 301V225L58 186L62 301H307Z" />
<glyph unicode="." glyph-name="period" horiz-adv-x="233" d="M41 32T41 64T59 116T117 136T175 116T194 64T176 12T118 -8T60 12Z" />
<glyph unicode="/" glyph-name="slash" horiz-adv-x="405" d="M66 -56L249 606L341 580L123 -74L66 -56Z" />
<glyph unicode="0" glyph-name="zero" horiz-adv-x="527" d="M269 -19Q170 -19 114 32Q67 147 67 251T91 422T150 525Q212 545 260 545Q359 545 414 494Q461 379 461 275T437 104T378 1Q315 -19 269 -19ZM357 397Q357 435 351 464Q327 470 294 470Q236 405 204
312T171 130Q171 92 177 62Q201 56 234 57Q292 122 324 214T357 397Z" />
<glyph unicode="1" glyph-name="one" horiz-adv-x="387" d="M284 546L314 533L258 -3L167 -11L137 382L42 314L0 403L284 546Z" />
<glyph unicode="2" glyph-name="two" horiz-adv-x="473" d="M226 545Q331 545 394 506Q404 474 403 440Q403 344 331 242T151 74V67L409 93V0H33L27 55Q116 97 179 201T242 396Q242 466 198 491L74 407L31 496Q75 521 117 533T226 545Z" />
<glyph unicode="3" glyph-name="three" horiz-adv-x="469" d="M248 401Q248 462 198 491L82 407L39 496Q85 522 123 533T226 545Q331 545 394 506Q401 484 401 463Q401 384 319 307Q348 307 371 301Q404 269 421 231T438 134Q438 56 391 18T238 -20T38 31L78 105Q168
47 282 42Q294 88 294 158T282 249Q232 236 186 208L165 235L176 246Q212 280 230 323T248 401Z" />
<glyph unicode="4" glyph-name="four" horiz-adv-x="471" d="M143 153Q181 148 223 148T305 154L297 278L439 288L408 -3L317 -12L310 75Q298 74 254 74T156 88T74 125Q60 184 61 238Q61 345 111 434T230 557L379 457Q281 408 212 323T143 153Z" />
<glyph unicode="5" glyph-name="five" horiz-adv-x="469" d="M323 307Q350 307 371 301Q404 269 421 231T438 134Q438 56 391 18T238 -20T38 31L78 105Q168 47 282 42Q294 88 294 158T282 249Q212 240 162 208L96 216L45 506L58 524L402 538L386 441L217 455L173
261Q246 307 323 307Z" />
<glyph unicode="6" glyph-name="six" horiz-adv-x="469" d="M163 54Q198 36 224 36T274 42Q286 88 286 158T274 249Q191 220 163 54ZM314 309Q340 309 363 301Q396 269 413 231T430 124T390 18T248 -20Q192 -20 143 -5T65 34Q51 103 50 170Q50 304 104 407T230
557L379 457Q206 347 155 193L165 186Q190 246 229 277T314 309Z" />
<glyph unicode="7" glyph-name="seven" horiz-adv-x="417" d="M12 538L365 524L377 506L238 -3L148 -11L179 454L27 441L12 538Z" />
<glyph unicode="8" glyph-name="eight" horiz-adv-x="504" d="M45 139Q45 223 122 275Q111 278 105 281Q59 341 59 402Q59 545 248 545Q329 545 401 518Q447 458 446 398Q446 324 380 276L411 266Q460 203 460 135Q460 -20 258 -20Q169 -20 94 9Q45 72 45 139ZM181
122Q181 84 194 54Q224 32 264 33Q318 76 318 143T285 250Q264 253 238 253Q181 208 181 122ZM328 413Q328 445 314 473Q283 492 241 491Q183 452 183 389Q183 365 192 340T218 299Q240 296 268 296Q328 338 328 413Z" />
<glyph unicode="9" glyph-name="nine" horiz-adv-x="469" d="M317 471Q282 489 256 489T206 482Q194 436 194 367T206 276Q320 297 319 429Q319 447 317 471ZM168 216Q147 216 117 225Q84 257 67 295T50 390Q50 469 90 507T232 545Q288 545 337 530T415 491Q429
422 430 355Q430 221 370 109T240 -50L101 43Q159 80 210 139T295 262L289 265Q234 216 168 216Z" />
<glyph unicode=":" glyph-name="colon" horiz-adv-x="233" d="M43 306T43 338T61 390T119 410T177 390T196 338T178 286T120 266T62 286ZM41 32T41 64T59 116T117 136T175 116T194 64T176 12T118 -8T60 12Z" />
<glyph unicode=";" glyph-name="semicolon" horiz-adv-x="233" d="M114 -3Q103 -12 85 -12T54 8T41 66T56 121T117 140T187 114Q193 84 194 45Q194 -85 122 -150L60 -101Q107 -62 118 -5L114 -3ZM43 306T43 338T61 390T119 410T177 390T196 338T178 286T120 266T62 286Z" />
<glyph unicode="&lt;" glyph-name="less" horiz-adv-x="500" d="M419 406L187 254L431 142L383 64L86 230V301L400 455L419 406Z" />
<glyph unicode="=" glyph-name="equal" horiz-adv-x="500" d="M419 316L74 294L82 384H428L419 316ZM82 198L428 220L419 130H74L82 198Z" />
<glyph unicode="&gt;" glyph-name="greater" horiz-adv-x="500" d="M82 114L314 265L70 378L118 455L415 290V218L102 64L82 114Z" />
<glyph unicode="?" glyph-name="question" horiz-adv-x="332" d="M82 33T82 64T104 117T158 140T212 118T234 64T212 11T159 -12T105 10ZM211 430Q123 430 63 402L34 544Q84 559 141 559Q258 559 306 520Q317 474 317 430Q317 349 266 284T154 189L107 246Q168
287 189 332T211 430Z" />
<glyph unicode="@" glyph-name="at" horiz-adv-x="817" d="M546 133T557 116T602 98T661 136T687 241T673 354T630 437T548 494T427 515T308 498Q217 467 170 382Q131 305 131 194T187 9Q252 -73 394 -73Q492 -73 582 0L615 -50Q509 -127 390 -128Q303 -128 237
-101T133 -28Q57 63 57 192Q57 392 181 495Q271 570 432 570Q514 570 580 544T685 474Q762 384 762 249Q762 197 748 159T713 101T660 65T579 50T497 81T457 169H451Q409 61 312 61Q276 61 252 118T228 246T258 349T357 381T476 349L534 390L558 371L546 183Q545
177 545 155ZM447 327Q420 346 390 346T337 336Q333 293 333 260T338 179T351 112Q380 118 410 158Q448 207 447 327Z" />
<glyph unicode="A" glyph-name="A" horiz-adv-x="523" d="M25 0L178 545L376 533L482 0L409 -12L352 124L134 106L106 -12L25 0ZM214 442L149 169L334 167L220 442H214Z" />
<glyph unicode="B" glyph-name="B" horiz-adv-x="574" d="M80 516Q201 553 307 553T476 514Q490 472 490 434Q490 348 416 293Q462 257 489 211T516 126Q516 61 457 20T270 -22Q198 -22 127 -11L80 516ZM214 49Q259 37 300 37T354 42Q383 100 383 158T356 258Q307
236 233 218L214 49ZM293 288T325 327T357 398T346 458T314 500Q295 500 262 490L238 266Q293 288 325 327Z" />
<glyph unicode="C" glyph-name="C" horiz-adv-x="411" d="M218 60Q304 60 383 90L411 1Q345 -20 276 -20T154 -5T71 34Q57 103 58 170Q58 307 109 418T228 574L386 474Q273 402 207 290T140 66Q175 60 218 60Z" />
<glyph unicode="D" glyph-name="D" horiz-adv-x="535" d="M80 516Q201 554 308 554T484 522Q511 456 511 371T464 197T328 51T127 -11L80 516ZM290 88T328 163T366 314Q366 460 298 500Q284 500 262 494L216 58Q290 88 328 163Z" />
<glyph unicode="E" glyph-name="E" horiz-adv-x="495" d="M435 0L114 -7L76 533L438 544L435 489L262 469L241 299L415 301L419 227L234 241L212 58L438 84L435 0Z" />
<glyph unicode="F" glyph-name="F" horiz-adv-x="469" d="M395 202L231 215L205 -3L114 -7L76 533L438 544L435 489L262 469L238 274L390 276L395 202Z" />
<glyph unicode="G" glyph-name="G" horiz-adv-x="471" d="M314 -9Q292 -11 250 -11T154 3T71 42Q57 108 58 178Q58 299 99 404T228 574L386 474Q273 402 207 290T140 66Q185 57 229 57T308 65L292 244L447 254L398 -34L318 -41L314 -9Z" />
<glyph unicode="H" glyph-name="H" horiz-adv-x="629" d="M420 -13L402 202L229 187L209 -3L127 -11L80 533L267 545L236 250L398 249L374 531L560 543L502 -5L420 -13Z" />
<glyph unicode="I" glyph-name="I" horiz-adv-x="352" d="M127 -11L80 533L275 545L217 -3L127 -11Z" />
<glyph unicode="J" glyph-name="J" horiz-adv-x="344" d="M98 -20Q48 -20 -6 8L8 53Q44 42 65 41Q124 41 124 114Q124 125 89 533L283 545L238 115Q224 -20 98 -20Z" />
<glyph unicode="K" glyph-name="K" horiz-adv-x="557" d="M512 489L339 308L542 1L368 -11L258 222L239 203L217 -3L127 -11L80 533L275 545L249 298L439 545L512 489Z" />
<glyph unicode="L" glyph-name="L" horiz-adv-x="413" d="M418 0L114 -7L76 533L271 545L212 59L422 84L418 0Z" />
<glyph unicode="M" glyph-name="M" horiz-adv-x="768" d="M630 -12L513 423H506L417 0L343 -12L166 391H161L147 0L66 -4L104 533L302 541L385 150L481 545L679 533L704 0L630 -12Z" />
<glyph unicode="N" glyph-name="N" horiz-adv-x="566" d="M526 541L490 0L417 -12L151 427H145L147 0L66 -4L88 533L286 545L430 136H436L444 537L526 541Z" />
<glyph unicode="O" glyph-name="O" horiz-adv-x="482" d="M442 170Q442 120 434 87T404 28Q363 -19 246 -19T63 34Q49 103 49 170Q49 306 100 413T219 566Q315 527 378 419T442 170ZM342 206Q342 332 301 422Q222 349 177 254T132 66Q160 60 216 60T328 78Q342
142 342 206Z" />
<glyph unicode="P" glyph-name="P" horiz-adv-x="515" d="M80 516Q194 553 312 553T492 514Q506 470 507 430Q507 336 429 272T229 180L209 -3L127 -11L80 516ZM349 406Q349 469 298 500Q284 500 262 494L234 236Q288 266 318 313T349 406Z" />
<glyph unicode="Q" glyph-name="Q" horiz-adv-x="482" d="M442 170Q442 95 421 52T344 -7L436 -125L288 -135L242 -20Q126 -19 63 34Q49 103 49 170Q49 306 100 413T219 566Q315 527 378 419T442 170ZM342 206Q342 332 301 422Q222 349 177 254T132 66Q160 60
216 60T328 78Q342 142 342 206Z" />
<glyph unicode="R" glyph-name="R" horiz-adv-x="574" d="M254 208Q240 203 231 203L209 -3L127 -11L80 516Q123 530 195 541T333 553Q438 553 501 514Q515 470 515 433Q515 330 397 262L534 1L477 -31L254 208ZM357 410Q357 468 306 500Q286 500 262 491L237
255Q294 281 325 324T357 410Z" />
<glyph unicode="S" glyph-name="S" horiz-adv-x="352" d="M40 361Q40 476 163 574L313 474Q211 410 211 338Q211 308 231 275T273 208T294 146Q294 28 130 -37L91 16Q131 38 146 58T162 104T143 159T101 215T59 280T40 361Z" />
<glyph unicode="T" glyph-name="T" horiz-adv-x="463" d="M33 534L451 545L449 490L334 478L283 -3L194 -11L152 460L38 449L33 534Z" />
<glyph unicode="U" glyph-name="U" horiz-adv-x="569" d="M280 -20Q207 -20 159 25T101 170L62 533L257 545Q223 150 223 138Q223 44 312 44Q353 44 381 69T411 157L418 537L501 541L476 156Q465 -20 280 -20Z" />
<glyph unicode="V" glyph-name="V" horiz-adv-x="490" d="M200 545L266 134H274L392 545L466 525L288 0L214 -12L12 522L200 545Z" />
<glyph unicode="W" glyph-name="W" horiz-adv-x="756" d="M211 545L268 132H274L398 520L464 501L549 129H555L650 545L723 525L578 0L505 -12L379 264L286 0L196 -12L24 522L211 545Z" />
<glyph unicode="X" glyph-name="X" horiz-adv-x="516" d="M25 10L183 265L41 522L230 545L302 342L396 545L490 522L331 270L492 12L303 -11L214 196L118 -12L25 10Z" />
<glyph unicode="Y" glyph-name="Y" horiz-adv-x="456" d="M187 545L253 248H261L378 542L445 524L304 193L273 -3L191 -11L166 171L3 522L187 545Z" />
<glyph unicode="Z" glyph-name="Z" horiz-adv-x="458" d="M45 541L414 533L426 447L106 56L412 84L417 0L16 -7L19 47L242 466L47 486L45 541Z" />
<glyph unicode="[" glyph-name="bracketleft" horiz-adv-x="348" d="M325 508H215L173 13L308 -3L316 -44L125 -86L82 552L325 588V508Z" />
<glyph unicode="\" glyph-name="backslash" horiz-adv-x="405" d="M158 606L341 -56L283 -74L66 580L158 606Z" />
<glyph unicode="]" glyph-name="bracketright" horiz-adv-x="348" d="M25 508V588L267 552L225 -86L33 -44L41 -3L176 13L134 508H25Z" />
<glyph unicode="^" glyph-name="asciicircum" horiz-adv-x="500" d="M362 297L244 446L164 285L86 333L218 548H290L412 316L362 297Z" />
<glyph unicode="_" glyph-name="underscore" horiz-adv-x="470" d="M427 -80L33 -102L44 -12H438L427 -80Z" />
<glyph unicode="`" glyph-name="grave" horiz-adv-x="358" d="M139 617L285 517L258 462L90 514L139 617Z" />
<glyph unicode="a" glyph-name="a" horiz-adv-x="474" d="M110 -19Q96 -19 90 -18Q62 1 46 38T29 121T68 191T214 215Q253 215 297 210L295 228Q292 261 264 280T193 299T106 272L70 390Q140 419 230 419T372 379T425 252Q425 232 423 221L401 -5L319 -12L307
106H301Q273 47 224 14T110 -19ZM300 175L257 176Q203 176 168 170Q157 147 157 129T161 95T172 73Q270 88 300 175Z" />
<glyph unicode="b" glyph-name="b" horiz-adv-x="544" d="M381 429Q395 429 410 423Q440 388 458 317T477 159T434 26T286 -20T96 23L58 559L233 586L203 258H210Q243 336 288 382T381 429ZM183 35Q205 33 246 33T326 42Q338 105 338 162Q338 290 322 331Q217
289 183 35Z" />
<glyph unicode="c" glyph-name="c" horiz-adv-x="376" d="M186 52Q264 52 334 78L359 -1Q301 -20 238 -20T127 -7T54 29Q42 88 41 138Q41 240 87 324T194 442L336 349Q233 293 174 217T114 57Q149 52 186 52Z" />
<glyph unicode="d" glyph-name="d" horiz-adv-x="573" d="M168 -19Q148 -19 135 -12Q105 19 87 80T68 228T106 360T238 406Q296 406 354 383L342 559L517 586L465 -5L383 -12L373 129H366Q303 -19 168 -19ZM270 357Q240 357 218 346Q207 287 207 190T224 47Q264
53 308 104Q331 130 346 178T362 289Q362 301 360 328Q323 357 270 357Z" />
<glyph unicode="e" glyph-name="e" horiz-adv-x="436" d="M194 442Q392 363 392 244Q392 182 357 155T246 128T130 137Q115 99 114 57Q151 52 217 52T359 78L383 -1Q323 -20 249 -20Q116 -20 54 29Q41 87 41 138Q41 241 86 324T194 442ZM146 175Q156 174 199 174T299
186Q301 201 302 217Q302 266 274 311Q192 257 146 175Z" />
<glyph unicode="f" glyph-name="f" horiz-adv-x="352" d="M270 614L300 474Q225 448 194 385L329 392L326 338L245 326L205 -5L124 -12L91 302L22 292L16 376L90 379Q96 489 148 547T270 614Z" />
<glyph unicode="g" glyph-name="g" horiz-adv-x="589" d="M270 358Q240 358 218 346Q207 290 207 230Q207 103 224 64Q263 71 307 117Q331 142 346 188T362 294Q362 304 360 330Q322 358 270 358ZM330 -180Q248 -180 162 -123L184 -82Q257 -114 305 -114T375 -89T398
-21Q398 -8 381 161H374Q313 -2 168 -2Q148 -2 135 4Q105 34 87 92T68 235T106 362T238 406Q307 406 357 374L375 398L533 421L476 -37Q468 -103 430 -141T330 -180Z" />
<glyph unicode="h" glyph-name="h" horiz-adv-x="544" d="M384 429Q398 429 414 423Q456 373 471 248T486 0L339 -12Q339 177 326 331Q217 291 180 -5L99 -12L58 559L233 586L202 249H210Q244 331 289 380T384 429Z" />
<glyph unicode="i" glyph-name="i" horiz-adv-x="289" d="M99 -12L58 394L233 420L180 -5L99 -12ZM61 507T61 538T83 592T137 614T190 592T213 539T191 485T137 462T84 484Z" />
<glyph unicode="j" glyph-name="j" horiz-adv-x="289" d="M61 507T61 538T83 592T137 614T190 592T213 539T191 485T137 462T84 484ZM56 -110Q3 -110 -42 -74L-18 -32Q7 -50 37 -49Q95 -49 95 23Q95 31 58 394L233 419L180 -4Q167 -110 56 -110Z" />
<glyph unicode="k" glyph-name="k" horiz-adv-x="489" d="M431 397L304 264L482 -2L326 -12L224 179L194 151L180 -5L99 -12L58 559L233 586L202 233L376 439L431 397Z" />
<glyph unicode="l" glyph-name="l" horiz-adv-x="289" d="M99 -12L58 559L233 586L180 -5L99 -12Z" />
<glyph unicode="m" glyph-name="m" horiz-adv-x="761" d="M363 429Q378 429 394 423Q426 384 445 281H451Q481 350 519 389T601 429Q616 429 630 423Q672 373 688 246T704 -5L556 -12Q556 182 544 331Q446 292 414 -5L318 -12Q318 182 306 331Q269 317 235 254T183
55L176 -5L95 -12L54 394L229 421L213 294H218Q282 429 363 429Z" />
<glyph unicode="n" glyph-name="n" horiz-adv-x="540" d="M379 429Q394 429 410 423Q452 373 467 248T482 0L335 -12Q335 177 321 331Q212 291 176 -5L95 -12L54 394L229 421L210 277H218Q251 348 292 388T379 429Z" />
<glyph unicode="o" glyph-name="o" horiz-adv-x="440" d="M334 333Q400 256 400 158T361 20T217 -20T54 28Q14 224 100 346Q154 421 195 442Q273 402 334 333ZM292 69Q305 119 305 185T272 315Q204 279 160 206T115 57Q141 52 190 52T292 69Z" />
<glyph unicode="p" glyph-name="p" horiz-adv-x="554" d="M390 429Q405 429 420 423Q450 388 468 317T486 159T448 26T316 -20Q249 -20 190 8L167 -170L91 -178L66 394L241 421L223 277H229Q262 347 303 388T390 429ZM284 31Q314 31 336 42Q348 105 348 162Q348
283 332 331Q314 324 305 319T276 296Q218 242 196 61Q232 31 284 31Z" />
<glyph unicode="q" glyph-name="q" horiz-adv-x="589" d="M168 -19Q148 -19 135 -12Q105 19 87 80T68 228T106 360T238 406Q307 406 357 374L375 398L533 421L458 -170L382 -178L369 122H363Q300 -19 168 -19ZM270 357Q240 357 218 346Q207 287 207 190T224 47Q264
53 308 104Q331 130 346 178T362 289Q362 301 360 328Q323 357 270 357Z" />
<glyph unicode="r" glyph-name="r" horiz-adv-x="384" d="M314 270Q258 270 230 231T187 88L176 -5L95 -12L54 394L229 421L212 290H218Q284 431 385 440L362 266Q332 270 314 270Z" />
<glyph unicode="s" glyph-name="s" horiz-adv-x="343" d="M49 270Q49 375 160 462L294 371Q203 313 203 249Q203 215 240 161T278 77Q278 -30 130 -89L94 -40Q159 -5 159 36T104 139Q83 162 66 197T49 270Z" />
<glyph unicode="t" glyph-name="t" horiz-adv-x="352" d="M124 -12L89 318L13 308L8 392L80 396L68 510L272 538L255 405L337 409L334 354L247 342L205 -5L124 -12Z" />
<glyph unicode="u" glyph-name="u" horiz-adv-x="564" d="M319 135T330 181T342 261T333 394L508 420L455 -5L374 -12L358 143H352Q291 -19 159 -19Q139 -19 126 -12Q84 38 69 160T54 403L217 415Q203 272 203 201T214 47Q259 57 289 96Z" />
<glyph unicode="v" glyph-name="v" horiz-adv-x="456" d="M200 420L254 106H261L366 418L433 400L273 -2L206 -12L25 394L200 420Z" />
<glyph unicode="w" glyph-name="w" horiz-adv-x="677" d="M194 418L244 100H250L362 390L420 373L496 98H502L587 413L654 395L523 -2L457 -12L338 179L261 -2L179 -12L25 394L194 418Z" />
<glyph unicode="x" glyph-name="x" horiz-adv-x="441" d="M25 0L150 190L33 394L208 418L262 270L336 418L410 400L285 210L418 0L242 -18L174 134L99 -18L25 0Z" />
<glyph unicode="y" glyph-name="y" horiz-adv-x="463" d="M233 -118T202 -146T121 -174T25 -137L49 -95Q76 -105 108 -105T167 -84T201 -19L31 394L206 420L261 106H267L373 418L439 400L262 -47Q233 -118 202 -146Z" />
<glyph unicode="z" glyph-name="z" horiz-adv-x="458" d="M62 417L395 410L406 325L131 54L385 83L390 0L37 -7L39 42L224 342L65 359L62 417Z" />
<glyph unicode="{" glyph-name="braceleft" horiz-adv-x="348" d="M177 40Q177 -8 230 -8Q258 -8 309 1L316 -44Q234 -74 192 -74T136 -51T117 28L104 215L47 226L43 265L100 287Q90 432 90 459T100 512T128 553T178 576Q227 588 325 588V538Q276 538 246 521T213
475L199 322Q195 276 141 259L139 252Q189 236 189 202L177 40Z" />
<glyph unicode="|" glyph-name="bar" horiz-adv-x="291" d="M113 -83L89 606H203L178 -83H113Z" />
<glyph unicode="}" glyph-name="braceright" horiz-adv-x="348" d="M172 40L161 202Q161 236 210 252L208 259Q154 275 150 322L136 475Q134 503 104 520T25 538V588Q122 588 162 578T219 553Q259 519 260 449Q260 433 249 287L306 265L302 226L245 215L232 28Q228
-27 214 -50T158 -74T33 -44L40 1Q92 -8 120 -8Q172 -8 172 40Z" />
<glyph unicode="~" glyph-name="asciitilde" horiz-adv-x="500" d="M419 239Q388 258 350 258T249 222T145 186T74 212L79 305Q109 279 149 279T246 302T346 326T428 298L419 239Z" />
<glyph unicode="&#xa0;" glyph-name="nbsp" horiz-adv-x="245" />
<glyph unicode="&#xa1;" glyph-name="exclamdown" horiz-adv-x="313" d="M265 374T265 343T242 290T189 267T135 289T112 343T135 396T188 419T242 397ZM104 -152L82 -120L154 214L227 222L252 -126L104 -152Z" />
<glyph unicode="&#xa2;" glyph-name="cent" horiz-adv-x="376" d="M41 204Q41 294 77 370T166 488L156 614H238L226 486L336 414Q233 358 174 282T114 122Q148 117 186 117Q264 117 334 144L359 65Q301 46 226 46L238 -92H156L167 50Q91 61 54 94Q41 154 41 204Z" />
<glyph unicode="&#xa3;" glyph-name="sterling" horiz-adv-x="517" d="M149 166Q149 191 141 226L66 220L74 286H124Q96 378 96 426T106 506Q169 545 274 545Q340 545 382 533T469 496L426 407L302 491Q277 476 268 453T258 388T257 286H378L370 242L252 234Q240
114 178 57L181 50L453 93L458 0H90L93 38Q149 85 149 166Z" />
<glyph unicode="&#xa4;" glyph-name="currency" horiz-adv-x="555" d="M419 386Q449 346 449 284T419 182L514 106L456 47L378 145Q338 123 278 123T178 145L99 47L41 106L136 182Q106 222 106 284T136 386L41 463L99 521L178 422Q217 445 277 445T378 422L456
521L514 463L419 386ZM294 388Q241 388 224 364T206 281T217 192Q235 180 262 179Q315 179 331 203T347 286T338 377Q320 388 294 388Z" />
<glyph unicode="&#xa5;" glyph-name="yen" horiz-adv-x="456" d="M187 545L253 248H261L378 542L445 524L350 302H426L416 259L330 254L303 192L298 155H410L400 111L290 105L273 -3L191 -11L175 98L34 90L44 155H168L166 171L133 242L50 237L61 302H105L3 522L187 545Z" />
<glyph unicode="&#xa6;" glyph-name="brokenbar" horiz-adv-x="291" d="M203 606L196 410H95L89 606H203ZM113 -83L104 158H186L178 -83H113Z" />
<glyph unicode="&#xa7;" glyph-name="section" horiz-adv-x="507" d="M462 181Q462 88 339 38Q357 0 357 -43Q357 -125 270 -208L89 -106Q159 -57 159 2Q159 52 103 108Q82 129 64 160T46 226Q46 315 168 367Q150 405 150 450Q150 530 239 614L420 512Q348 462
348 404Q348 376 365 348T404 299T444 247T462 181ZM294 98Q334 126 334 152T318 201T266 257T214 309Q173 280 173 254T190 205T243 147T294 98Z" />
<glyph unicode="&#xa8;" glyph-name="dieresis" horiz-adv-x="358" d="M31 510T31 538T49 586T93 607T137 587T156 538T137 490T93 470T50 490ZM203 510T203 538T221 586T265 607T309 587T328 538T310 490T266 470T222 490Z" />
<glyph unicode="&#xa9;" glyph-name="copyright" horiz-adv-x="696" d="M94 589Q256 643 387 643T574 577T630 411Q630 277 550 183T356 89Q82 89 82 574L94 589ZM598 501T546 555T381 610T114 561Q117 121 356 122Q456 122 527 206T598 411Q598 501 546 555ZM300
265Q314 263 356 263T443 279L462 223Q422 210 374 210Q292 210 253 243Q245 283 245 325Q245 407 277 473T350 568L449 506Q381 463 341 397T300 265Z" />
<glyph unicode="&#xaa;" glyph-name="ordfeminine" horiz-adv-x="333" d="M91 316Q83 316 78 317Q40 340 40 402Q40 431 64 445T135 460T198 458Q198 480 182 492T141 505T86 487L63 564Q109 582 162 582T247 556T279 478Q279 468 265 325L212 320L206 382H201Q183
352 155 334T91 316ZM264 242L41 220L49 286H272L264 242ZM200 431Q189 433 168 433T127 430Q121 420 121 403T128 375Q185 386 200 431Z" />
<glyph unicode="&#xab;" glyph-name="guillemotleft" horiz-adv-x="588" d="M58 222L190 382L265 345L178 199L285 54L215 18L63 161L58 222ZM423 200L531 54L462 18L309 161L303 222L436 382L510 345L423 200Z" />
<glyph unicode="&#xac;" glyph-name="logicalnot" horiz-adv-x="500" d="M419 302V74L338 66L352 230L66 212L74 302H419Z" />
<glyph unicode="&#xae;" glyph-name="registered" horiz-adv-x="696" d="M94 589Q256 643 387 643T574 577T630 411Q630 277 550 183T356 89Q82 89 82 574L94 589ZM598 501T546 555T381 610T114 561Q117 121 356 122Q456 122 527 206T598 411Q598 501 546 555ZM417
378Q464 291 499 224L462 202L330 345L318 342L306 219L251 214L225 532Q295 555 367 555T478 532Q487 506 487 481Q487 418 417 378ZM353 395T371 419T389 471T359 518Q350 518 336 514L322 379Q353 395 371 419Z" />
<glyph unicode="&#xaf;" glyph-name="overscore" horiz-adv-x="312" d="M277 501L63 478L69 576H282L277 501Z" />
<glyph unicode="&#xb0;" glyph-name="degree" horiz-adv-x="319" d="M195 519Q150 528 126 510T101 461T124 402Q170 391 193 409T217 459T195 519ZM41 410T41 460T69 541T159 573T249 542T278 460T250 379T160 348T70 379Z" />
<glyph unicode="&#xb1;" glyph-name="plusminus" horiz-adv-x="500" d="M296 368H428L419 300L296 292V146L228 154L218 286L74 278L82 368H214L206 500L296 491V368ZM419 13L74 -9L82 81H428L419 13Z" />
<glyph unicode="&#xb2;" glyph-name="uni00B2" horiz-adv-x="332" d="M47 544Q105 577 167 577T271 550Q277 534 278 513Q278 458 241 401T145 303V298Q265 311 280 311V246H48L45 285Q98 310 134 373T171 479T152 534Q143 528 117 510T77 483L47 544Z" />
<glyph unicode="&#xb3;" glyph-name="uni00B3" horiz-adv-x="330" d="M126 399Q167 443 167 481T143 534Q130 524 73 483L42 544Q63 555 86 565T164 576T262 550Q267 537 266 523Q266 480 226 437Q235 437 246 433Q288 393 288 330Q288 235 167 234Q101 234 42
268L70 318Q123 284 190 280Q197 308 197 341T190 391Q161 384 134 366L117 389L126 399Z" />
<glyph unicode="&#xb4;" glyph-name="acute" horiz-adv-x="358" d="M106 517L252 617L302 514L134 462L106 517Z" />
<glyph unicode="&#xb5;" glyph-name="mu" horiz-adv-x="564" d="M341 293Q341 343 333 394L508 420L455 -5L374 -12L358 143H352Q303 11 206 -13V-171L134 -187Q53 133 54 403L206 415V43Q271 57 306 123T341 293Z" />
<glyph unicode="&#xb6;" glyph-name="paragraph" horiz-adv-x="517" d="M306 269T270 242T199 214T142 222Q108 245 87 288T66 385Q66 485 105 531T246 578Q302 578 352 560T430 511Q444 425 444 342Q444 172 389 33T266 -164L115 -38Q195 26 253 118T340 313L330
319Q306 269 270 242Z" />
<glyph unicode="&#xb7;" glyph-name="middot" horiz-adv-x="233" d="M41 204T41 236T59 288T117 308T175 288T194 236T176 184T118 164T60 184Z" />
<glyph unicode="&#xb8;" glyph-name="cedilla" horiz-adv-x="376" d="M130 -74Q179 -96 208 -96T265 -85Q243 -39 175 -5L198 36Q284 -11 305 -49Q315 -68 314 -89Q314 -131 276 -150T192 -170T102 -153L130 -74Z" />
<glyph unicode="&#xb9;" glyph-name="uni00B9" horiz-adv-x="281" d="M192 578L216 568L182 244L118 238L105 469Q99 465 79 450T49 429L19 490L192 578Z" />
<glyph unicode="&#xba;" glyph-name="ordmasculine" horiz-adv-x="337" d="M215 644T252 580T289 442T265 343T170 316T61 350Q53 390 53 430Q53 512 83 576T154 667L157 668Q215 644 252 580ZM226 452Q226 525 202 577Q158 534 133 479T106 370Q117 368 152 368T217
378Q226 418 226 452ZM272 242L49 220L58 286H280L272 242Z" />
<glyph unicode="&#xbb;" glyph-name="guillemotright" horiz-adv-x="588" d="M531 177L398 18L323 54L410 200L303 345L373 382L525 238L531 177ZM165 199L58 345L127 382L279 238L285 177L152 18L78 54L165 199Z" />
<glyph unicode="&#xbc;" glyph-name="onequarter" horiz-adv-x="651" d="M191 -56L374 606L450 588L232 -66L191 -56ZM208 561L233 551L198 228L135 222L122 452Q98 436 66 412L35 474L208 561ZM442 99Q471 95 526 100L522 174L618 179L598 -2L535 -8L531 44Q431
44 394 74Q384 113 383 146Q383 211 414 264T488 338L586 274Q527 245 485 196T442 99Z" />
<glyph unicode="&#xbd;" glyph-name="onehalf" horiz-adv-x="651" d="M169 -56L352 606L428 588L210 -66L169 -56ZM208 561L233 551L198 228L135 222L122 452Q98 436 66 412L35 474L208 561ZM374 298Q432 331 494 331T598 305Q604 289 605 267Q605 212 568 155T472
58V52Q592 65 607 66V0H375L372 39Q425 64 461 127T498 233T479 288Q470 282 444 264T404 238L374 298Z" />
<glyph unicode="&#xbe;" glyph-name="threequarters" horiz-adv-x="651" d="M214 -56L398 606L473 588L254 -66L214 -56ZM110 382Q151 426 151 465T127 518Q114 508 57 467L26 527Q47 538 59 545Q93 560 148 560T245 534Q250 521 250 507Q250 464 209 420Q218
420 230 416Q272 376 272 313Q272 218 150 218Q84 218 26 251L54 302Q107 268 173 264Q180 292 180 324T174 375Q145 368 117 350L101 373L110 382ZM442 99Q471 95 526 100L522 174L618 179L598 -2L535 -8L531 44Q431 44 394 74Q384 113 383 146Q383 211 414 264T488
338L586 274Q527 245 485 196T442 99Z" />
<glyph unicode="&#xbf;" glyph-name="questiondown" horiz-adv-x="332" d="M251 374T251 343T229 290T175 267T122 289T99 343T121 396T175 419T228 397ZM122 -23Q210 -23 270 5L299 -137Q249 -152 192 -152T92 -141T28 -113Q17 -67 16 -22Q16 59 67 124T179 218L226
162Q165 121 144 76T122 -23Z" />
<glyph unicode="&#x2013;" glyph-name="endash" horiz-adv-x="456" d="M447 237L0 210L10 289H457L447 237Z" />
<glyph unicode="&#x2014;" glyph-name="emdash" horiz-adv-x="702" d="M693 237L0 210L10 289H703L693 237Z" />
<glyph unicode="&#x2018;" glyph-name="quoteleft" horiz-adv-x="266" d="M136 519Q147 528 166 528T197 508T210 450T194 395T134 376T63 402Q57 432 58 471Q58 601 130 666L191 617Q144 578 133 521L136 519Z" />
<glyph unicode="&#x2019;" glyph-name="quoteright" horiz-adv-x="266" d="M131 513Q120 504 101 504T70 524T58 582T73 637T133 656T204 630Q210 600 210 561Q210 431 138 366L76 415Q123 454 134 511L131 513Z" />
<glyph unicode="&#x201a;" glyph-name="quotesinglbase" horiz-adv-x="233" d="M114 -3Q103 -12 85 -12T54 8T41 66T56 121T117 140T187 114Q193 84 194 45Q194 -85 122 -150L60 -101Q107 -62 118 -5L114 -3Z" />
<glyph unicode="&#x201c;" glyph-name="quotedblleft" horiz-adv-x="471" d="M136 519Q147 528 166 528T197 508T210 450T194 395T134 376T63 402Q57 432 58 471Q58 601 130 666L191 617Q144 578 133 521L136 519ZM341 519Q352 528 371 528T402 508T414 450T399
395T339 376T268 402Q262 432 262 471Q262 601 334 666L396 617Q349 578 338 521L341 519Z" />
<glyph unicode="&#x201d;" glyph-name="quotedblright" horiz-adv-x="471" d="M131 513Q120 504 101 504T70 524T58 582T73 637T133 656T204 630Q210 600 210 561Q210 431 138 366L76 415Q123 454 134 511L131 513ZM336 513Q325 504 306 504T274 524T262 582T278
637T338 656T409 630Q415 600 414 561Q414 431 342 366L281 415Q328 454 339 511L336 513Z" />
<glyph unicode="&#x201e;" glyph-name="quotedblbase" horiz-adv-x="471" d="M131 -3Q120 -12 101 -12T70 8T58 66T73 121T133 140T204 114Q210 84 210 45Q210 -85 138 -150L76 -101Q123 -62 134 -5L131 -3ZM336 -3Q325 -12 306 -12T274 8T262 66T278 121T338
140T409 114Q415 84 414 45Q414 -85 342 -150L281 -101Q328 -62 339 -5L336 -3Z" />
<glyph unicode="&#x2022;" glyph-name="bullet" horiz-adv-x="272" d="M41 211T41 251T64 317T137 342T209 317T232 252T209 187T137 162T65 186Z" />
</font>
</defs>
</svg>
