<?xml version="1.0" standalone="no"?>
<!DOCTYPE svg PUBLIC "-//W3C//DTD SVG 1.1//EN" "http://www.w3.org/Graphics/SVG/1.1/DTD/svg11.dtd">
<svg xmlns="http://www.w3.org/2000/svg">
<defs >
<font id="Puritan" horiz-adv-x="481" ><font-face
    font-family="Puritan"
    units-per-em="1024"
    panose-1="0 0 4 0 0 0 0 0 0 0"
    ascent="881"
    descent="-256"
    alphabetic="0" />
<glyph unicode=" " glyph-name="space" horiz-adv-x="279" />
<glyph unicode="!" glyph-name="exclam" horiz-adv-x="240" d="M165 197H78V723H165V197ZM116 -13Q91 -13 75 3T58 45Q58 70 74 87T116 104Q142 104 159 88T176 45Q176 19 159 3T116 -13Z" />
<glyph unicode="&quot;" glyph-name="quotedbl" horiz-adv-x="336" d="M264 697Q215 697 215 640Q215 615 230 562T258 486H272Q283 509 297 562T312 640Q312 697 264 697ZM119 697Q71 697 71 640Q71 615 85 562T114 486H127Q138 509 152 562T167 640Q167 697 119 697Z" />
<glyph unicode="#" glyph-name="numbersign" horiz-adv-x="548" d="M456 573L374 564V484L455 493V439L373 431V332L314 326L315 425L233 416L232 316L174 310L175 410L71 398V452L175 463V544L72 532V586L176 597V674L234 680L233 603L316 611V688L376 696L374
617L456 627V573ZM233 550V469L315 478V558L233 550Z" />
<glyph unicode="$" glyph-name="dollar" horiz-adv-x="548" d="M322 -6V-102H230V-9Q126 5 79 71L127 134Q185 65 269 66Q318 66 349 94T381 171Q381 220 333 248Q320 256 242 284Q174 309 143 338Q98 382 98 459Q98 517 135 559T230 615V707H322V618Q384 607
444 558L399 499Q342 547 282 547Q191 547 190 454Q190 400 285 368Q387 333 419 306Q468 264 468 173Q468 25 322 -6Z" />
<glyph unicode="%" glyph-name="percent" horiz-adv-x="548" d="M132 420Q79 420 51 454T23 544Q23 595 52 630T132 666Q182 666 212 631T243 544Q243 489 215 456Q186 420 132 420ZM110 -80L34 -54L420 643L490 616L110 -80ZM411 -2Q355 -2 327 33T298 125Q298
177 328 213T411 250Q462 250 492 214T522 125Q522 69 496 35Q466 -2 411 -2ZM131 608Q108 608 95 585Q85 566 85 541Q85 517 96 498Q109 475 132 475Q179 475 179 541Q179 566 168 585Q154 608 131 608ZM410 190Q386 190 373 166Q363 147 362 121Q362 55 411 55Q435
55 446 78Q457 96 458 121Q458 147 446 166Q434 190 410 190Z" />
<glyph unicode="&amp;" glyph-name="ampersand" horiz-adv-x="568" d="M180 314Q100 270 100 182Q100 128 136 95T227 62Q295 62 341 121Q227 237 180 314ZM490 4Q450 17 393 68Q318 -9 232 -9Q143 -9 87 37Q26 87 26 173Q26 233 58 285T145 368Q99 431 99 496Q99
565 147 610T263 655Q349 655 417 582L369 532Q323 589 256 590Q180 590 180 511Q180 465 211 404Q265 427 325 429L339 367Q285 367 250 350Q330 239 382 186Q396 237 396 258Q396 282 386 323L458 329Q465 283 465 255Q465 199 442 132Q469 101 538 68L490 4Z"
/>
<glyph unicode="&apos;" glyph-name="quotesingle" horiz-adv-x="198" d="M112 699Q63 699 62 642Q62 615 80 561Q97 504 113 486Q129 513 144 562T159 642Q159 699 112 699Z" />
<glyph unicode="(" glyph-name="parenleft" horiz-adv-x="325" d="M178 -141Q47 85 47 331Q47 588 178 802L243 771Q137 523 136 331Q136 213 168 102Q183 47 246 -111L178 -141Z" />
<glyph unicode=")" glyph-name="parenright" horiz-adv-x="323" d="M148 -141L80 -111Q143 51 158 100Q191 211 190 327Q190 526 83 771L148 802Q275 594 275 334Q275 78 148 -141Z" />
<glyph unicode="*" glyph-name="asterisk" horiz-adv-x="281" d="M224 486L157 548L161 457H113L116 548L48 486L20 531L103 583L22 635L48 680L118 617L114 710L162 709L157 617L224 680L250 635L171 584L251 531L224 486Z" />
<glyph unicode="+" glyph-name="plus" horiz-adv-x="509" d="M286 289V98H223V289H54V353H223V534H286V353H457V289H286Z" />
<glyph unicode="," glyph-name="comma" horiz-adv-x="260" d="M67 -74L112 -86Q205 36 206 123H106Q106 84 94 23Q82 -42 67 -74Z" />
<glyph unicode="-" glyph-name="hyphen" horiz-adv-x="389" d="M51 273V369H338V273H51Z" />
<glyph unicode="." glyph-name="period" horiz-adv-x="238" d="M131 -9Q101 -9 82 13T62 66Q62 96 81 118T131 140Q161 140 180 118T199 66Q199 36 180 14T131 -9Z" />
<glyph unicode="/" glyph-name="slash" horiz-adv-x="394" d="M95 -174L13 -157L316 721L399 703L95 -174Z" />
<glyph unicode="0" glyph-name="zero" horiz-adv-x="512" d="M494 263Q494 150 434 75Q369 -9 257 -9T80 70Q18 145 17 262Q17 374 83 449T256 524Q362 524 430 445Q494 372 494 263ZM429 263Q429 347 381 406T256 465Q177 465 127 400Q82 342 82 262Q82 182 127
121Q177 53 255 53Q341 53 388 119Q429 175 429 263Z" />
<glyph unicode="1" glyph-name="one" horiz-adv-x="512" d="M337 0H259V458H125V519H337V0Z" />
<glyph unicode="2" glyph-name="two" horiz-adv-x="512" d="M87 0L86 79L255 224Q304 267 324 296Q347 331 346 372Q345 409 320 434T257 460Q188 460 132 386L85 436Q166 531 255 531Q327 531 375 488T424 373Q424 270 334 195L196 79H463V0H87Z" />
<glyph unicode="3" glyph-name="three" horiz-adv-x="512" d="M236 -183Q142 -183 73 -104L112 -50Q178 -112 241 -113Q304 -113 340 -76T377 33Q377 85 346 123Q308 169 238 169Q219 169 169 170V234Q215 234 237 241Q333 271 333 367Q333 409 307 435T245 461Q176
461 135 390L83 434Q163 532 243 532Q313 532 358 493Q409 448 410 369Q410 323 389 283Q367 240 329 219Q389 207 425 153T461 33Q461 -61 399 -122T236 -183Z" />
<glyph unicode="4" glyph-name="four" horiz-adv-x="512" d="M312 376L121 78H312V376ZM379 0V-172H312V0H28V78L319 521H379V78H481V0H379Z" />
<glyph unicode="5" glyph-name="five" horiz-adv-x="598" d="M244 -183Q189 -183 134 -155T53 -86L89 -39Q151 -116 246 -116Q316 -116 355 -62Q391 -14 391 54Q391 119 350 161Q313 199 263 199Q206 199 142 148L73 179V520H427V458H151V229Q202 280 292 281Q357
281 412 223Q473 158 473 60Q473 -32 412 -103Q345 -183 244 -183Z" />
<glyph unicode="6" glyph-name="six" horiz-adv-x="512" d="M265 381Q207 381 162 338Q114 292 114 222Q114 152 152 101Q195 43 266 43Q325 43 370 97Q412 148 412 208Q412 287 370 334T265 381ZM266 -23Q163 -23 99 43Q24 120 25 273Q25 443 98 552Q181 673
328 673Q408 673 483 634L454 571Q388 605 327 605Q237 605 177 530T112 344Q187 450 283 451Q363 451 422 385Q485 315 485 212Q485 119 420 48T266 -23Z" />
<glyph unicode="7" glyph-name="seven" horiz-adv-x="512" d="M461 454L183 -173L103 -151L373 455H79V516H461V454Z" />
<glyph unicode="8" glyph-name="eight" horiz-adv-x="512" d="M255 333Q192 298 165 272Q124 230 124 173Q124 103 174 65Q213 35 260 35Q319 35 357 72T395 172Q395 239 353 279Q324 306 255 333ZM250 623Q147 623 146 526Q146 449 248 403Q360 447 359 522Q360
623 250 623ZM254 -29Q169 -29 110 20Q44 75 44 170Q44 228 78 281Q117 338 185 369Q129 405 106 432Q76 470 77 522Q77 602 133 644Q181 680 257 680Q325 680 375 641Q429 598 429 529Q429 430 318 371Q473 306 473 172Q473 86 421 33Q362 -29 254 -29Z" />
<glyph unicode="9" glyph-name="nine" horiz-adv-x="512" d="M239 457Q181 457 140 398Q103 346 103 285Q103 224 142 173Q183 118 243 118Q310 118 356 168T403 288Q403 354 358 405T239 457ZM227 -201Q108 -201 34 -128L63 -66Q136 -134 236 -133Q321 -133 372
-24Q414 66 416 178Q379 112 346 86Q303 49 240 50Q149 51 87 123Q29 192 29 282Q29 382 84 450Q143 523 239 522Q335 522 404 457Q489 378 489 231Q489 72 437 -44Q367 -201 227 -201Z" />
<glyph unicode=":" glyph-name="colon" horiz-adv-x="249" d="M136 369Q107 369 88 391T68 443Q68 473 88 495T136 518Q166 518 185 496T205 443Q205 413 186 391T136 369ZM136 -9Q107 -9 88 13T68 66Q68 96 88 118T136 140Q166 140 185 118T205 66Q205 36 186
14T136 -9Z" />
<glyph unicode=";" glyph-name="semicolon" horiz-adv-x="260" d="M151 370Q121 370 101 391T80 442Q80 472 100 494T151 516Q181 516 199 494T218 442Q218 412 199 391T151 370ZM67 -74L112 -86Q205 36 206 123H106Q106 84 94 23Q82 -42 67 -74Z" />
<glyph unicode="&lt;" glyph-name="less" horiz-adv-x="374" d="M135 292L327 46L252 43L28 296L251 542L327 539L135 292Z" />
<glyph unicode="=" glyph-name="equal" horiz-adv-x="451" d="M52 294V360H398V294H52ZM52 138V205H398V138H52Z" />
<glyph unicode="&gt;" glyph-name="greater" horiz-adv-x="373" d="M101 43L26 46L217 292L25 539L101 542L324 296L101 43Z" />
<glyph unicode="?" glyph-name="question" horiz-adv-x="495" d="M351 380Q334 368 301 341Q282 325 270 296Q268 292 253 244Q251 238 255 194H184Q179 235 179 259Q179 307 200 342Q217 372 259 407T312 456Q341 489 341 521Q341 566 313 595T239 624Q143 624
108 517L39 553Q97 697 236 697Q314 697 367 647T421 520Q421 437 351 380ZM224 -13Q199 -13 183 3T167 45Q167 70 183 87T224 104Q250 104 267 88T285 45Q285 19 268 3T224 -13Z" />
<glyph unicode="@" glyph-name="at" horiz-adv-x="1034" d="M505 -238Q310 -238 180 -93Q54 47 54 244Q54 441 191 578T525 715T836 593T952 274Q952 165 878 82Q845 45 790 17Q732 -13 685 -12Q645 -12 623 19Q603 48 606 89Q529 -11 434 -11Q277 -11 278 205Q278
320 348 417Q427 525 542 524Q577 524 610 512Q649 497 666 472L669 514H743L678 96Q679 83 690 73T716 61Q733 60 770 83Q803 102 818 120Q842 146 862 193T882 274Q882 441 787 542T525 644Q358 644 242 528T125 244Q125 76 229 -43Q339 -167 505 -167Q648 -167
743 -126Q854 -78 923 33L991 -11Q914 -140 782 -194Q675 -238 505 -238ZM653 408Q640 434 603 447Q571 460 539 461Q493 461 440 417Q362 350 362 220Q362 152 375 123Q399 66 470 66Q515 66 562 115T617 210L653 408Z" />
<glyph unicode="A" glyph-name="A" horiz-adv-x="581" d="M464 -10L403 183H173L114 -10L30 0L248 670H330L551 4L464 -10ZM288 564L195 254H383L288 564Z" />
<glyph unicode="B" glyph-name="B" horiz-adv-x="536" d="M272 0L65 2V656L234 659Q236 659 248 660Q248 660 262 660Q341 660 387 623Q436 582 436 504Q436 418 393 387Q370 372 326 359Q483 325 482 188Q482 96 422 46Q366 -1 272 0ZM241 599Q227 599 156 596V384L226
383Q281 382 316 410Q355 441 355 494Q355 599 241 599ZM250 319H156V69H252Q394 69 394 189Q394 248 352 283T250 319Z" />
<glyph unicode="C" glyph-name="C" horiz-adv-x="551" d="M318 -8Q179 -8 101 98Q31 192 32 337Q32 476 104 571Q184 674 321 676Q369 676 434 654Q485 637 515 620L476 539Q383 596 326 596Q225 596 168 499Q124 422 124 325Q124 229 171 157Q225 74 317 74Q404
74 481 118L521 51Q461 17 423 6Q376 -8 318 -8Z" />
<glyph unicode="D" glyph-name="D" horiz-adv-x="578" d="M220 -2Q194 -2 142 0T65 2V659Q136 662 214 663Q387 663 466 584T546 331Q547 171 464 85T220 -2ZM449 319Q449 597 241 597Q211 597 156 595V76H248Q345 76 399 152Q449 219 449 319Z" />
<glyph unicode="E" glyph-name="E" horiz-adv-x="500" d="M156 582V384H414V307L156 308V78L429 79V0H65V655H432V582H156Z" />
<glyph unicode="F" glyph-name="F" horiz-adv-x="501" d="M156 582V384H416V307H156V0H65V655H433V582H156Z" />
<glyph unicode="G" glyph-name="G" horiz-adv-x="595" d="M531 62Q470 25 429 11Q378 -6 312 -6Q179 -6 102 99Q32 193 32 331Q31 456 98 557Q177 676 308 676Q357 676 417 659Q483 642 515 614L477 538Q392 596 317 596Q220 596 167 497Q125 419 125 325Q125
231 169 159Q221 74 309 74Q382 74 441 105V308H296V384H531V62Z" />
<glyph unicode="H" glyph-name="H" horiz-adv-x="595" d="M441 0V307H156V0H65V655H156V384H441V655H531V0H441Z" />
<glyph unicode="I" glyph-name="I" horiz-adv-x="220" d="M65 0V657H156V0H65Z" />
<glyph unicode="J" glyph-name="J" horiz-adv-x="220" d="M156 71Q156 -162 -49 -163Q-109 -163 -152 -112L-104 -43Q-70 -79 -36 -79Q64 -79 65 62V653H156V71Z" />
<glyph unicode="K" glyph-name="K" horiz-adv-x="543" d="M430 -22Q340 98 204 283L156 211V0H65V655H156V333Q321 550 412 681L483 630Q398 525 262 343Q304 274 398 164Q440 115 539 2L430 -22Z" />
<glyph unicode="L" glyph-name="L" horiz-adv-x="513" d="M65 0V656H156V74H449V0H65Z" />
<glyph unicode="M" glyph-name="M" horiz-adv-x="812" d="M645 0V523L446 -1H361L160 527V0H76V657H206L409 130L616 657H736V0H645Z" />
<glyph unicode="N" glyph-name="N" horiz-adv-x="595" d="M467 -11Q375 155 150 475V1L65 0V659H140L447 194V655H531V11L467 -11Z" />
<glyph unicode="O" glyph-name="O" horiz-adv-x="659" d="M327 -16Q184 -16 104 88Q32 181 33 330Q33 469 113 562Q197 661 334 662Q470 662 552 562Q628 469 628 330Q628 183 552 87Q470 -16 327 -16ZM332 586Q232 586 171 501Q118 425 118 321Q118 221 171 145Q230
62 327 62T486 144Q543 220 544 319Q544 422 490 500Q431 586 332 586Z" />
<glyph unicode="P" glyph-name="P" horiz-adv-x="470" d="M250 270Q211 270 156 274V0H65V655L258 659Q341 661 389 608T437 470Q437 388 384 329T250 270ZM246 599L156 597V338L236 339Q287 340 317 379Q347 415 347 467Q347 601 246 599Z" />
<glyph unicode="Q" glyph-name="Q" horiz-adv-x="673" d="M622 -72L497 38Q420 -16 326 -16Q184 -16 104 89Q31 184 32 331Q32 471 112 563Q197 661 334 662Q470 662 551 564Q627 473 627 334Q627 269 611 207Q592 130 556 94L676 -11L622 -72ZM331 585Q231 585
171 501Q117 426 117 323Q117 225 169 148Q228 62 323 62Q379 62 432 95L355 163L411 222L489 153Q542 228 543 324Q543 428 490 502Q431 585 331 585Z" />
<glyph unicode="R" glyph-name="R" horiz-adv-x="542" d="M424 -10Q372 42 303 140Q256 207 201 298L156 296V0H65V656L271 659Q450 657 449 478Q448 407 406 362T292 303Q326 256 402 156Q443 103 538 10L424 -10ZM245 597L156 595V365H222Q296 365 330 392T365
489Q365 600 245 597Z" />
<glyph unicode="S" glyph-name="S" horiz-adv-x="503" d="M245 -10Q187 -10 133 10Q73 33 42 75L89 140Q151 67 248 68Q305 68 339 99T373 187Q373 256 292 290Q242 310 141 352Q61 402 62 507Q63 585 124 635Q180 682 260 682Q354 682 433 620L390 555Q336 604
260 604Q156 604 156 501Q156 436 262 400Q374 362 409 333Q461 288 461 189Q461 94 401 42T245 -10Z" />
<glyph unicode="T" glyph-name="T" horiz-adv-x="548" d="M326 586V0H234V586H32V654H516V586H326Z" />
<glyph unicode="U" glyph-name="U" horiz-adv-x="584" d="M520 236Q520 122 458 53T284 -17Q175 -17 118 56Q65 124 65 236V655H156V236Q156 60 286 59Q359 59 395 113Q428 159 428 236V655H520V236Z" />
<glyph unicode="V" glyph-name="V" horiz-adv-x="561" d="M318 -10H252L42 645L129 669L292 134L455 669L530 645L318 -10Z" />
<glyph unicode="W" glyph-name="W" horiz-adv-x="807" d="M605 -6H552L407 470L261 -6H197L16 641L105 660L241 150L379 650H444L579 151L718 660L787 641L605 -6Z" />
<glyph unicode="X" glyph-name="X" horiz-adv-x="565" d="M431 -15L272 269L130 -15L37 5L227 325L49 641L142 660L280 412L412 662L488 641L319 342L528 5L431 -15Z" />
<glyph unicode="Y" glyph-name="Y" horiz-adv-x="515" d="M303 279V0H211V279L30 642L112 666L260 361L407 666L484 642L303 279Z" />
<glyph unicode="Z" glyph-name="Z" horiz-adv-x="557" d="M165 78H489V0H72L65 79L394 588L82 586V654H484L493 581L165 78Z" />
<glyph unicode="[" glyph-name="bracketleft" horiz-adv-x="275" d="M57 -117V758H214V706H141V-45H224V-117H57Z" />
<glyph unicode="\" glyph-name="backslash" horiz-adv-x="394" d="M315 -174L12 703L94 721L398 -157L315 -174Z" />
<glyph unicode="]" glyph-name="bracketright" horiz-adv-x="272" d="M51 -117V-45H134V706H60V758H215V-117H51Z" />
<glyph unicode="^" glyph-name="asciicircum" horiz-adv-x="548" d="M273 606L156 464L113 517L273 694L436 517L393 464L273 606Z" />
<glyph unicode="_" glyph-name="underscore" horiz-adv-x="548" d="M5 -112V-51H543V-112H5Z" />
<glyph unicode="`" glyph-name="grave" horiz-adv-x="336" d="M272 569L58 662L106 728L322 630L272 569Z" />
<glyph unicode="a" glyph-name="a" horiz-adv-x="502" d="M403 -11Q361 -11 339 38Q308 14 286 4Q241 -16 183 -16Q118 -16 80 25T42 130Q42 213 92 250Q125 274 216 295Q251 303 327 310V375Q327 409 301 430T240 452Q184 452 103 386L61 443Q93 472 145 497Q202
525 240 524Q311 524 359 480T407 366V77Q412 57 428 56Q439 55 471 78L487 25Q453 -11 403 -11ZM327 239Q297 239 249 229Q221 224 190 216Q116 197 116 129Q116 92 137 70T195 48Q235 48 276 70Q326 96 327 135V239Z" />
<glyph unicode="b" glyph-name="b" horiz-adv-x="527" d="M279 -10Q213 -10 146 41L132 0H66V717H146V459Q216 525 274 524Q378 524 438 444Q492 372 493 265Q493 147 445 75Q391 -10 279 -10ZM273 454Q180 454 146 380V111Q164 86 203 72Q238 58 270 57Q400 57
400 262Q400 337 375 388Q341 454 273 454Z" />
<glyph unicode="c" glyph-name="c" horiz-adv-x="490" d="M275 -12Q141 -12 80 91Q40 159 40 248Q40 366 99 439Q164 520 278 519Q368 518 438 465L395 397Q326 449 266 450Q193 450 156 380Q125 324 125 244Q125 169 162 117Q204 59 275 58Q349 58 413 115L453
61Q377 -12 275 -12Z" />
<glyph unicode="d" glyph-name="d" horiz-adv-x="523" d="M459 0H391L379 43Q296 -13 237 -13Q142 -13 86 74Q38 149 38 249Q38 364 89 438Q148 524 258 524Q330 524 379 465V714H459V0ZM379 389Q350 428 326 441T254 454Q185 454 154 387Q129 337 129 260Q129
183 158 130Q193 62 263 62Q325 62 379 109V389Z" />
<glyph unicode="e" glyph-name="e" horiz-adv-x="502" d="M127 263Q127 111 213 73Q247 58 284 57Q344 57 418 123L459 66Q377 -12 276 -12Q137 -12 78 92Q40 159 40 253Q40 370 101 442Q166 519 281 519Q365 519 415 465T465 326V263H127ZM384 340Q384 452 273
452Q212 452 181 422T134 328H384V340Z" />
<glyph unicode="f" glyph-name="f" horiz-adv-x="331" d="M344 667Q296 698 256 698Q213 699 191 654Q176 619 176 571V507H318V440H176V0H98V440H18V507H98V574Q98 655 135 707Q176 764 255 764Q301 764 326 754Q333 751 383 719L344 667Z" />
<glyph unicode="g" glyph-name="g" horiz-adv-x="523" d="M520 408L411 411Q427 376 427 343Q427 266 375 215Q316 158 229 158Q179 158 162 170Q122 145 122 115Q122 87 161 79Q179 75 261 75Q366 75 404 60Q472 34 472 -51Q472 -139 380 -190Q301 -234 207 -234H204Q139
-234 93 -207Q38 -173 38 -113Q38 -46 109 20Q86 28 65 55T44 106Q44 134 69 159Q110 200 111 201Q48 255 46 343Q46 420 105 476Q160 527 241 526Q288 525 331 503Q369 483 387 455L520 475V408ZM356 345Q356 393 321 430Q287 464 237 464Q186 464 155 426T123
339Q123 290 154 255T233 219Q289 219 325 256Q356 289 356 345ZM393 -54Q393 13 276 12Q230 12 175 9Q149 8 129 -28Q111 -60 111 -87Q111 -129 152 -153Q186 -171 230 -171Q288 -171 337 -142Q393 -108 393 -54Z" />
<glyph unicode="h" glyph-name="h" horiz-adv-x="524" d="M380 0V333Q380 383 357 416Q331 454 284 454Q244 454 197 421Q146 386 145 348V0H65V713H145V450Q224 524 292 523Q364 523 412 471T460 346V0H380Z" />
<glyph unicode="i" glyph-name="i" horiz-adv-x="238" d="M120 616Q96 616 81 632T65 673Q65 697 80 712T120 728Q144 728 159 712T174 673Q174 649 159 633T120 616ZM73 0V507H156V0H73Z" />
<glyph unicode="j" glyph-name="j" horiz-adv-x="238" d="M133 618Q109 618 94 634T78 674Q78 698 94 713T133 729Q157 729 172 713T188 674Q188 650 173 634T133 618ZM59 -112Q28 -135 -13 -146L19 -223Q166 -167 167 -67V507H86V-22Q86 -93 59 -112Z" />
<glyph unicode="k" glyph-name="k" horiz-adv-x="487" d="M404 -26L180 231L145 197V0H65V714H145V283L369 534L438 486L236 279L476 18L404 -26Z" />
<glyph unicode="l" glyph-name="l" horiz-adv-x="239" d="M160 0H80V715H160V0Z" />
<glyph unicode="m" glyph-name="m" horiz-adv-x="794" d="M649 0V354Q649 453 559 454Q531 454 488 421Q436 381 436 330V0H356V359Q356 400 334 426T272 453Q232 453 189 416T145 339V0H65V507H145V435Q223 519 289 519Q331 519 364 493T415 426Q501 524 577
524Q640 524 685 474T730 359V0H649Z" />
<glyph unicode="n" glyph-name="n" horiz-adv-x="524" d="M380 0V333Q380 383 357 416Q331 454 284 454Q242 454 197 421Q146 384 145 336V0H65V507H145V450Q185 488 212 502Q250 524 293 523Q364 523 412 471T460 346V0H380Z" />
<glyph unicode="o" glyph-name="o" horiz-adv-x="559" d="M282 -11Q144 -11 82 92Q40 163 40 258Q40 390 123 464Q191 524 283 524Q374 524 439 464Q519 390 519 258Q519 166 472 91Q408 -11 282 -11ZM288 456Q207 456 164 392Q128 337 128 252Q128 171 162 119Q202
56 278 55Q357 55 396 120Q431 174 431 257Q431 336 399 390Q362 456 288 456Z" />
<glyph unicode="p" glyph-name="p" horiz-adv-x="529" d="M264 -13Q199 -13 145 45V-202H65V507H145V459Q213 525 265 524Q491 524 492 273Q492 150 441 75Q382 -13 264 -13ZM264 456Q226 456 191 432T145 373V103Q207 55 269 55Q335 55 372 127Q403 187 402 259Q402
456 264 456Z" />
<glyph unicode="q" glyph-name="q" horiz-adv-x="523" d="M377 -202V55Q282 -14 230 -13Q134 -13 82 82Q38 160 38 263Q38 366 83 436Q141 525 259 524Q289 524 323 507T377 466V507H459V-202H377ZM377 374Q366 411 334 434T262 457Q187 457 153 388Q126 336 126
254Q126 184 159 128Q198 62 263 62Q317 62 377 109V374Z" />
<glyph unicode="r" glyph-name="r" horiz-adv-x="350" d="M305 420Q286 433 250 432Q222 432 184 392T145 325V0H65V507H145V423Q205 518 272 518Q289 518 330 502L305 420Z" />
<glyph unicode="s" glyph-name="s" horiz-adv-x="447" d="M219 -14Q114 -14 49 45L90 108Q143 57 227 56Q263 56 294 83T325 144Q325 200 244 222Q182 238 121 261Q62 292 61 366Q61 440 108 483T230 526Q300 525 378 479L351 415Q279 461 227 461Q138 461 138
386Q138 345 179 331Q207 322 327 283Q409 245 409 163Q409 80 356 33T219 -14Z" />
<glyph unicode="t" glyph-name="t" horiz-adv-x="359" d="M219 -8Q162 -8 130 44Q102 88 102 148V440H22V508H102V611H183V508H315V439L183 440V136Q183 67 242 68Q274 68 322 114L361 58Q304 -8 219 -8Z" />
<glyph unicode="u" glyph-name="u" horiz-adv-x="523" d="M457 0H384L373 53Q297 -19 216 -18Q146 -18 103 39Q64 92 65 164V507H145V168Q145 54 236 54Q279 54 328 90T377 168V507H457V0Z" />
<glyph unicode="v" glyph-name="v" horiz-adv-x="475" d="M267 -12H212L23 490L103 513L243 118L375 513L453 490L267 -12Z" />
<glyph unicode="w" glyph-name="w" horiz-adv-x="752" d="M574 -9H512L379 370L244 -9H179L28 490L106 511L220 106L346 504H418L549 108L656 511L731 490L574 -9Z" />
<glyph unicode="x" glyph-name="x" horiz-adv-x="503" d="M421 -27L253 195L88 -25L19 22L205 252L39 475L115 520L259 317L409 519L472 483L299 257L489 20L421 -27Z" />
<glyph unicode="y" glyph-name="y" horiz-adv-x="491" d="M255 -86Q238 -134 191 -167T93 -201Q78 -201 23 -182L48 -110Q77 -123 99 -124Q146 -125 185 -55Q205 -6 227 43L31 489L110 511L264 148L396 510L469 493L255 -86Z" />
<glyph unicode="z" glyph-name="z" horiz-adv-x="493" d="M54 0V68L288 378Q305 402 340 440H65V506H435V434L210 128Q199 113 164 72H450V0H54Z" />
<glyph unicode="{" glyph-name="braceleft" horiz-adv-x="548" d="M408 766Q366 779 349 779Q303 779 289 758Q271 730 270 640Q270 617 272 573T275 506Q275 432 191 356V331Q232 301 259 248T286 142Q286 114 282 59T278 -24Q278 -84 283 -99Q293 -129 330 -129Q375
-129 400 -108L421 -184Q360 -203 327 -202Q231 -197 202 -113Q187 -68 186 52Q186 72 188 114T190 176Q190 265 115 327L116 368Q155 408 167 427Q191 464 190 509Q190 533 187 579T184 648Q184 854 347 854Q374 854 423 843L408 766Z" />
<glyph unicode="|" glyph-name="bar" horiz-adv-x="234" d="M87 -225V702H177V-225H87Z" />
<glyph unicode="}" glyph-name="braceright" horiz-adv-x="548" d="M366 176Q366 156 368 115T370 52Q370 -68 352 -116Q322 -198 229 -202Q198 -203 135 -184L156 -108Q182 -130 226 -129Q278 -129 279 -66V-24Q279 4 275 59T270 142Q270 193 297 247T365 331V356Q281
432 281 506Q281 529 283 573T286 640Q286 730 267 758Q253 780 207 779Q191 779 148 766L133 843Q182 854 209 854Q372 854 372 648Q372 624 369 578T366 509Q366 464 389 427Q401 408 440 368L441 327Q366 265 366 176Z" />
<glyph unicode="~" glyph-name="asciitilde" horiz-adv-x="404" d="M286 388Q263 388 226 416T171 444Q141 444 104 390L85 464Q123 509 174 509Q210 509 258 474Q277 460 294 460Q310 460 327 480Q334 487 343 498L361 426Q324 388 286 388Z" />
<glyph unicode="&#xa0;" glyph-name="nbspace" horiz-adv-x="279" />
<glyph unicode="&#xa1;" glyph-name="exclamdown" horiz-adv-x="240" d="M70 513H156V-105H70V513ZM117 723Q143 723 159 707T176 665Q176 639 159 622T117 605T75 622T58 665Q58 690 75 706T117 723Z" />
<glyph unicode="&#xa2;" glyph-name="cent" horiz-adv-x="490" d="M230 -10Q120 6 72 103Q39 168 39 248Q39 351 84 421Q134 500 230 516V604H322V517Q387 506 439 465L395 395Q330 445 266 445Q192 445 156 378Q126 324 126 244Q126 169 163 119Q204 63 275 62Q353
62 413 117L454 61Q395 3 322 -9V-91H230V-10Z" />
<glyph unicode="&#xa3;" glyph-name="sterling" horiz-adv-x="487" d="M436 -7Q383 7 304 7Q169 7 82 -14L71 55Q87 59 111 69Q117 71 128 82Q163 116 163 175Q163 242 148 308H87V379H141Q126 471 126 487Q126 568 171 620T296 672Q359 672 417 639L386 577Q325
607 302 606Q255 606 225 567Q198 532 199 483Q199 466 216 379H355V308H233Q239 246 240 182Q240 103 209 78Q290 89 321 89Q391 89 453 72L436 -7Z" />
<glyph unicode="&#xa4;" glyph-name="currency" horiz-adv-x="500" d="M414 369H231V323H414V246H231V78L429 79V0H140V246H39L38 323H140V370H39L38 445H140V655H432V582H231V445H414V369Z" />
<glyph unicode="&#xa5;" glyph-name="yen" horiz-adv-x="543" d="M307 290V271H395V211H307V150H395V89H307V2H216V89H125V150H216V211H125V271H216V290L34 656H126L261 386L396 656H489L307 290Z" />
<glyph unicode="&#xa6;" glyph-name="brokenbar" horiz-adv-x="186" d="M55 -18V262H134V-18H55ZM55 391V672H134V391H55Z" />
<glyph unicode="&#xa7;" glyph-name="section" horiz-adv-x="401" d="M190 -89Q111 -89 57 -36L90 14Q134 -32 196 -32Q221 -32 242 -14T263 28Q263 67 197 84Q187 87 158 94Q146 97 140 100Q73 123 74 187Q74 248 121 281Q74 306 74 359T109 445T198 477T308
441L286 390Q231 425 196 425Q163 425 150 412T136 366Q136 349 164 336Q181 331 229 317Q328 288 329 213Q329 151 287 120Q329 95 329 41Q329 -19 290 -54T190 -89ZM186 259Q136 253 136 194Q136 171 191 156Q204 152 223 146Q263 163 263 200Q263 227 242 240Q226
249 186 259Z" />
<glyph unicode="&#xa8;" glyph-name="dieresis" horiz-adv-x="313" d="M261 559Q238 559 224 574T210 612Q210 635 224 650T261 666T297 650T312 612Q312 589 298 574T261 559ZM46 559Q23 559 9 574T-5 612Q-5 635 9 650T46 666Q69 666 83 651T97 612Q97 589 83
574T46 559Z" />
<glyph unicode="&#xa9;" glyph-name="copyright" horiz-adv-x="815" d="M406 104Q317 104 266 172Q222 233 222 326Q222 416 269 476Q320 542 408 543Q468 543 531 507L507 455Q447 492 411 492Q345 492 309 429Q281 381 282 317Q282 256 312 210Q347 157 406
157Q460 157 510 185L536 142Q464 104 406 104ZM135 324Q135 210 214 131T408 51Q522 51 601 130T680 324Q680 438 601 517T408 596Q294 596 215 517T135 324ZM69 324Q69 465 167 564T408 663Q549 663 647 564T746 324Q746 183 648 84T408 -15Q267 -15 168 84T69
324Z" />
<glyph unicode="&#xab;" glyph-name="guillemotleft" horiz-adv-x="399" d="M246 293L380 128L307 125L151 296L307 462L380 459L246 293ZM101 293L234 128L163 125L5 296L163 462L234 459L101 293Z" />
<glyph unicode="&#xac;" glyph-name="logicalnot" horiz-adv-x="627" d="M485 29V256H90V351H571V29H485Z" />
<glyph unicode="&#xad;" glyph-name="minus" horiz-adv-x="509" d="M53 292V356H457V292H53Z" />
<glyph unicode="&#xae;" glyph-name="registered" horiz-adv-x="815" d="M136 324H135Q135 210 214 131T408 51Q522 51 601 130T680 324Q680 438 601 517T408 596Q294 596 215 517T136 324ZM69 324Q69 465 167 564T408 663Q549 663 647 564T746 324Q746 183 648
84T408 -15Q267 -15 168 84T69 324ZM503 111Q446 168 360 307L331 306V117H272V537Q380 539 404 539Q519 538 518 423Q517 330 418 311Q457 257 488 216Q512 185 575 124L503 111ZM388 499L331 498V350H374Q422 350 443 367T465 430Q465 500 388 499Z" />
<glyph unicode="&#xaf;" glyph-name="overscore" horiz-adv-x="415" d="M108 608V675H347V608H108Z" />
<glyph unicode="&#xb0;" glyph-name="degree" horiz-adv-x="279" d="M141 729Q198 729 236 691T274 596Q274 539 237 501T141 463Q84 463 45 501T5 596Q5 653 44 691T141 729ZM141 678Q105 678 82 655T59 596Q59 560 82 537T141 514Q176 514 198 537T220 596Q220
631 198 654T141 678Z" />
<glyph unicode="&#xb1;" glyph-name="plusminus" horiz-adv-x="513" d="M286 287V97H222V286L54 287V350H222V529H286V350H457V287H286ZM68 12V68H451V12H68Z" />
<glyph unicode="&#xb4;" glyph-name="acute" horiz-adv-x="336" d="M106 570L58 631L273 729L322 663L106 570Z" />
<glyph unicode="&#xb5;" glyph-name="mu" horiz-adv-x="520" d="M455 -62Q387 -23 373 62Q340 31 308 0Q280 -23 247 -23Q217 -23 188 -9Q156 5 144 30V-201H70V498H144V147Q144 48 263 48Q300 48 335 82T371 153V499H453V119Q453 33 493 7Q513 -6 520 -13L455 -62Z" />
<glyph unicode="&#xb6;" glyph-name="paragraph" horiz-adv-x="519" d="M447 0H377V657H447V0ZM304 0H233V345H208Q50 345 51 505Q51 588 89 622T211 657H304V0Z" />
<glyph unicode="&#xb7;" glyph-name="middot" horiz-adv-x="241" d="M131 342Q100 342 81 367T62 423Q62 454 81 479T131 504Q161 504 181 478Q198 453 199 423Q199 392 181 368Q161 342 131 342Z" />
<glyph unicode="&#xb8;" glyph-name="cedilla" horiz-adv-x="209" d="M103 -224Q36 -224 15 -175L52 -140Q83 -173 104 -173Q141 -173 141 -138Q141 -98 106 -98Q92 -98 71 -114L24 -92L29 4L88 5L84 -48Q93 -44 110 -44Q150 -44 176 -69T202 -135Q202 -176 174
-200T103 -224Z" />
<glyph unicode="&#xbb;" glyph-name="guillemotright" horiz-adv-x="402" d="M220 125L147 128L282 293L147 459L220 462L377 296L220 125ZM76 125L2 128L136 293L2 459L76 462L231 296L76 125Z" />
<glyph unicode="&#xbf;" glyph-name="questiondown" horiz-adv-x="470" d="M112 227Q209 297 191 490H273Q280 452 281 412Q281 257 199 186Q153 146 143 136Q114 104 115 71Q115 26 143 -3T217 -32Q313 -32 348 74L418 39Q358 -105 221 -105Q143 -105 89 -56T35
72Q35 173 112 227ZM231 697Q256 697 272 681T289 639Q289 614 273 597T231 580Q206 580 189 597T171 639Q171 665 188 681T231 697Z" />
<glyph unicode="&#xc0;" glyph-name="Agrave" horiz-adv-x="593" d="M469 -10L409 183H178L120 -10L36 0L253 670H336L556 4L469 -10ZM294 564L200 254H388L294 564ZM374 702L160 795L208 861L423 763L374 702Z" />
<glyph unicode="&#xc1;" glyph-name="Aacute" horiz-adv-x="581" d="M469 -10L409 183H178L120 -10L36 0L253 670H336L556 4L469 -10ZM294 564L200 254H388L294 564ZM208 703L160 764L375 862L423 796L208 703Z" />
<glyph unicode="&#xc2;" glyph-name="Acircumflex" horiz-adv-x="581" d="M469 -10L409 183H178L120 -10L36 0L253 670H336L556 4L469 -10ZM294 564L200 254H388L294 564ZM290 767L150 672V744L290 860L435 744V672L290 767Z" />
<glyph unicode="&#xc3;" glyph-name="Atilde" horiz-adv-x="593" d="M469 -10L409 183H178L120 -10L36 0L253 670H336L556 4L469 -10ZM294 564L200 254H388L294 564ZM373 685Q347 685 298 720T234 756Q194 756 163 713L135 773Q149 795 178 809T234 824T306 790T371
755Q397 755 422 780L449 719Q440 708 414 697T373 685Z" />
<glyph unicode="&#xc4;" glyph-name="Adieresis" horiz-adv-x="593" d="M469 -10L409 183H178L120 -10L36 0L253 670H336L556 4L469 -10ZM294 564L200 254H388L294 564ZM406 711Q355 711 354 764Q354 787 368 801T406 816Q428 816 442 801T457 764Q457 741 443
726T406 711ZM190 711Q139 711 139 764Q139 787 153 801T190 816T227 801T242 764Q242 741 228 726T190 711Z" />
<glyph unicode="&#xc5;" glyph-name="Aring" horiz-adv-x="593" d="M469 -10L409 183H178L120 -10L36 0L253 670H336L556 4L469 -10ZM294 564L200 254H388L294 564ZM300 702Q260 702 234 727T207 792Q207 831 233 855T300 880Q340 880 366 855T393 792Q393 752
367 727T300 702ZM300 836Q256 836 256 792Q256 747 300 746Q344 746 344 792Q344 836 300 836Z" />
<glyph unicode="&#xc6;" glyph-name="AE" horiz-adv-x="882" d="M288 564L195 254H383L288 564ZM565 582V384H823V307L565 308V78L839 79V0H460L403 183H173L114 -10L30 0L248 670H330L474 232V655H842V582H565Z" />
<glyph unicode="&#xc7;" glyph-name="Ccedilla" horiz-adv-x="583" d="M356 -224Q290 -224 267 -175L305 -140Q334 -173 357 -173Q393 -173 393 -138Q393 -98 359 -98Q345 -98 324 -114L276 -92L282 -5Q162 10 95 116Q38 208 38 337Q38 477 110 571Q190 674 326
676Q376 676 440 654Q487 638 520 620L481 539Q388 596 331 596Q230 596 173 499Q129 422 129 325Q129 229 176 157Q230 74 323 74Q410 74 487 118L526 51Q467 19 434 8Q392 -6 340 -8L337 -48Q346 -44 362 -44Q402 -44 428 -69T455 -135Q455 -176 427 -200T356
-224Z" />
<glyph unicode="&#xc8;" glyph-name="Egrave" horiz-adv-x="500" d="M161 582V384H419V307L161 308V78L434 79V0H70V655H437V582H161ZM342 702L129 795L176 861L392 763L342 702Z" />
<glyph unicode="&#xc9;" glyph-name="Eacute" horiz-adv-x="480" d="M161 582V384H419V307L161 308V78L434 79V0H70V655H437V582H161ZM176 703L129 764L344 862L392 796L176 703Z" />
<glyph unicode="&#xca;" glyph-name="Ecircumflex" horiz-adv-x="500" d="M161 582V384H419V307L161 308V78L434 79V0H70V655H437V582H161ZM258 767L117 672V744L258 860L403 744V672L258 767Z" />
<glyph unicode="&#xcb;" glyph-name="Edieresis" horiz-adv-x="500" d="M161 582V384H419V307L161 308V78L434 79V0H70V655H437V582H161ZM374 713Q351 713 337 728T323 766Q323 789 337 804T374 819Q396 819 410 803T425 766Q425 743 411 728T374 713ZM160 713Q137
713 123 728T109 766Q109 789 123 804T160 819Q183 819 196 804T210 766Q210 743 197 728T160 713Z" />
<glyph unicode="&#xcc;" glyph-name="Igrave" horiz-adv-x="220" d="M70 0V657H161V0H70ZM203 702L-11 795L37 861L252 763L203 702Z" />
<glyph unicode="&#xcd;" glyph-name="Iacute" horiz-adv-x="220" d="M70 0V657H161V0H70ZM37 703L-11 764L204 862L252 796L37 703Z" />
<glyph unicode="&#xce;" glyph-name="Icircumflex" horiz-adv-x="220" d="M70 0V657H161V0H70ZM118 767L-23 672V744L118 860L263 744V672L118 767Z" />
<glyph unicode="&#xcf;" glyph-name="Idieresis" horiz-adv-x="220" d="M70 0V657H161V0H70ZM223 713Q200 713 186 728T172 766Q172 789 186 804T223 819T259 803T274 766Q274 743 260 728T223 713ZM9 713Q-14 713 -28 728T-42 766Q-42 789 -28 804T9 819Q32 819
45 804T59 766Q59 743 46 728T9 713Z" />
<glyph unicode="&#xd0;" glyph-name="Eth" horiz-adv-x="578" d="M156 343H225V273H156V76H248Q345 76 399 152Q448 220 449 319Q449 597 241 597Q211 597 156 595V343ZM6 343H65V659Q136 662 214 663Q387 663 466 584T546 331Q547 171 464 85T220 -2Q194 -2 142
0T65 2V273H6V343Z" />
<glyph unicode="&#xd1;" glyph-name="Ntilde" horiz-adv-x="583" d="M472 -11Q380 155 155 475V1L70 0V659H145L453 194V655H537V11L472 -11ZM394 675Q368 675 319 710T256 745Q216 745 184 702L157 763Q171 785 200 799T256 814Q282 815 328 780T392 744Q418
744 443 770L470 709Q461 698 435 687T394 675Z" />
<glyph unicode="&#xd2;" glyph-name="Ograve" horiz-adv-x="659" d="M332 -16Q189 -16 110 88Q38 181 38 330Q38 469 118 562Q202 661 339 662Q475 662 557 562Q633 469 633 330Q633 182 558 86Q476 -16 332 -16ZM337 586Q237 586 176 501Q123 425 123 321Q123
221 176 145Q235 62 332 62T492 144Q549 220 549 319Q549 422 496 500Q436 586 337 586ZM418 702L204 795L252 861L467 763L418 702Z" />
<glyph unicode="&#xd3;" glyph-name="Oacute" horiz-adv-x="659" d="M332 -16Q189 -16 110 88Q38 181 38 330Q38 469 118 562Q202 661 339 662Q475 662 557 562Q633 469 633 330Q633 182 558 86Q476 -16 332 -16ZM337 586Q237 586 176 501Q123 425 123 321Q123
221 176 145Q235 62 332 62T492 144Q549 220 549 319Q549 422 496 500Q436 586 337 586ZM252 703L204 764L419 862L467 796L252 703Z" />
<glyph unicode="&#xd4;" glyph-name="Ocircumflex" horiz-adv-x="659" d="M332 -16Q189 -16 110 88Q38 181 38 330Q38 469 118 562Q202 661 339 662Q475 662 557 562Q633 469 633 330Q633 182 558 86Q476 -16 332 -16ZM337 586Q237 586 176 501Q123 425 123 321Q123
221 176 145Q235 62 332 62T492 144Q549 220 549 319Q549 422 496 500Q436 586 337 586ZM341 777L200 682V755L341 870L486 755V682L341 777Z" />
<glyph unicode="&#xd5;" glyph-name="Otilde" horiz-adv-x="663" d="M332 -16Q189 -16 110 88Q38 181 38 330Q38 469 118 562Q202 661 339 662Q475 662 557 562Q633 469 633 330Q633 182 558 86Q476 -16 332 -16ZM337 586Q237 586 176 501Q123 425 123 321Q123
221 176 145Q235 62 332 62T492 144Q549 220 549 319Q549 422 496 500Q436 586 337 586ZM394 685Q368 685 319 720T256 756Q216 756 184 713L157 773Q171 795 200 809T256 824Q282 825 328 790T392 755Q418 755 443 780L470 719Q461 708 435 697T394 685Z" />
<glyph unicode="&#xd6;" glyph-name="Odieresis" horiz-adv-x="663" d="M332 -16Q189 -16 110 88Q38 181 38 330Q38 469 118 562Q202 661 339 662Q475 662 557 562Q633 469 633 330Q633 182 558 86Q476 -16 332 -16ZM337 586Q237 586 176 501Q123 425 123 321Q123
221 176 145Q235 62 332 62T492 144Q549 220 549 319Q549 422 496 500Q436 586 337 586ZM450 713Q427 713 413 728T398 766Q398 789 412 804T450 819Q472 819 486 803T501 766Q501 743 487 728T450 713ZM234 713Q211 713 197 728T183 766Q183 789 197 804T234 819T271
803T286 766Q286 743 272 728T234 713Z" />
<glyph unicode="&#xd8;" glyph-name="Oslash" horiz-adv-x="659" d="M222 95L371 582Q355 586 332 586Q232 586 171 501Q118 425 118 321Q118 253 143 195Q171 131 222 95ZM447 546L300 65Q318 63 327 62Q424 62 486 144Q543 220 544 319Q543 469 447 546ZM407
698L486 674L472 627Q550 584 591 501Q628 424 628 330Q628 183 552 87Q470 -16 327 -16Q298 -16 276 -12L259 -71L179 -46L197 12Q33 93 33 330Q33 469 113 562Q197 661 334 662Q366 662 393 655L407 698Z" />
<glyph unicode="&#xd9;" glyph-name="Ugrave" horiz-adv-x="584" d="M525 236Q525 122 463 53T289 -17Q180 -17 123 56Q70 124 70 236V655H161V236Q161 60 292 59Q365 59 401 113Q433 160 433 236V655H525V236ZM375 702L161 795L209 861L424 763L375 702Z" />
<glyph unicode="&#xda;" glyph-name="Uacute" horiz-adv-x="584" d="M525 236Q525 122 463 53T289 -17Q180 -17 123 56Q70 124 70 236V655H161V236Q161 60 292 59Q365 59 401 113Q433 160 433 236V655H525V236ZM209 703L161 764L376 862L424 796L209 703Z" />
<glyph unicode="&#xdb;" glyph-name="Ucircumflex" horiz-adv-x="584" d="M525 236Q525 122 463 53T289 -17Q180 -17 123 56Q70 124 70 236V655H161V236Q161 60 292 59Q365 59 401 113Q433 160 433 236V655H525V236ZM290 777L148 682V755L290 870L435 755V682L290 777Z" />
<glyph unicode="&#xdc;" glyph-name="Udieresis" horiz-adv-x="533" d="M525 236Q525 122 463 53T289 -17Q180 -17 123 56Q70 124 70 236V655H161V236Q161 60 292 59Q365 59 401 113Q433 160 433 236V655H525V236ZM395 713Q372 713 358 728T344 766Q344 789 358
804T395 819T431 803T446 766Q446 743 432 728T395 713ZM181 713Q158 713 144 728T130 766Q130 789 144 804T181 819Q204 819 217 804T231 766Q231 743 218 728T181 713Z" />
<glyph unicode="&#xdd;" glyph-name="Yacute" horiz-adv-x="515" d="M308 279V0H217V279L35 642L117 666L265 361L412 666L489 642L308 279ZM198 642L151 702L366 801L414 734L198 642Z" />
<glyph unicode="&#xde;" glyph-name="Thorn" horiz-adv-x="556" d="M286 148Q214 148 147 194V-111H61V717H147V617Q196 692 284 692Q389 692 451 607Q505 531 506 422Q507 301 458 230Q401 148 286 148ZM264 613Q183 613 147 538V280Q186 219 281 218Q355 218
389 281Q418 331 418 410Q418 493 384 548Q343 613 264 613Z" />
<glyph unicode="&#xdf;" glyph-name="germandbls" horiz-adv-x="562" d="M342 -15Q279 -15 239 -1Q192 16 154 59L197 126Q226 86 257 73Q285 61 337 60Q374 60 402 82T431 141Q431 194 351 221Q323 229 268 247Q168 281 168 369Q168 445 209 485T327 526Q347
526 367 523Q380 543 380 551Q380 613 337 641Q300 665 255 665Q198 665 166 632T134 542V0H54V542Q54 732 260 732Q348 732 403 686Q460 637 461 550Q461 500 424 438Q377 454 326 458Q293 460 270 439T246 384Q246 359 274 342Q292 331 345 314Q381 303 426 288Q475
268 495 235T515 147Q515 79 463 32T342 -15Z" />
<glyph unicode="&#xe0;" glyph-name="agrave" horiz-adv-x="502" d="M409 -11Q367 -11 344 38Q310 12 292 4Q248 -16 188 -16Q123 -16 85 25T47 130Q47 213 97 250Q130 274 221 295Q256 303 332 310V375Q332 409 306 430T245 452Q189 452 109 386L67 443Q99 472
151 497Q208 525 245 524Q316 524 364 480T412 366V77Q417 57 433 56Q444 55 476 78L493 25Q459 -11 409 -11ZM332 239Q300 239 254 229Q240 226 196 216Q123 198 122 129Q122 92 142 70T200 48Q240 48 282 70Q332 96 332 135V239ZM353 569L139 662L187 728L402
630L353 569Z" />
<glyph unicode="&#xe1;" glyph-name="aacute" horiz-adv-x="502" d="M409 -11Q367 -11 344 38Q310 12 292 4Q248 -16 188 -16Q123 -16 85 25T47 130Q47 213 97 250Q130 274 221 295Q256 303 332 310V375Q332 409 306 430T245 452Q189 452 109 386L67 443Q99 472
151 497Q208 525 245 524Q316 524 364 480T412 366V77Q417 57 433 56Q444 55 476 78L493 25Q459 -11 409 -11ZM332 239Q300 239 254 229Q240 226 196 216Q123 198 122 129Q122 92 142 70T200 48Q240 48 282 70Q332 96 332 135V239ZM187 570L139 631L354 729L402
663L187 570Z" />
<glyph unicode="&#xe2;" glyph-name="acircumflex" horiz-adv-x="502" d="M409 -11Q367 -11 344 38Q310 12 292 4Q248 -16 188 -16Q123 -16 85 25T47 130Q47 213 97 250Q130 274 221 295Q256 303 332 310V375Q332 409 306 430T245 452Q189 452 109 386L67 443Q99
472 151 497Q208 525 245 524Q316 524 364 480T412 366V77Q417 57 433 56Q444 55 476 78L493 25Q459 -11 409 -11ZM332 239Q300 239 254 229Q240 226 196 216Q123 198 122 129Q122 92 142 70T200 48Q240 48 282 70Q332 96 332 135V239ZM258 634L117 539V611L258
727L403 611V539L258 634Z" />
<glyph unicode="&#xe3;" glyph-name="atilde" horiz-adv-x="502" d="M409 -11Q367 -11 344 38Q310 12 292 4Q248 -16 188 -16Q123 -16 85 25T47 130Q47 213 97 250Q130 274 221 295Q256 303 332 310V375Q332 409 306 430T245 452Q189 452 109 386L67 443Q99 472
151 497Q208 525 245 524Q316 524 364 480T412 366V77Q417 57 433 56Q444 55 476 78L493 25Q459 -11 409 -11ZM332 239Q300 239 254 229Q240 226 196 216Q123 198 122 129Q122 92 142 70T200 48Q240 48 282 70Q332 96 332 135V239ZM319 562Q292 562 243 597T180
633Q140 633 109 590L82 650Q96 670 125 685T180 701Q206 702 253 667T317 632Q341 632 369 657L395 596Q386 586 360 574T319 562Z" />
<glyph unicode="&#xe4;" glyph-name="adieresis" horiz-adv-x="502" d="M409 -11Q367 -11 344 38Q310 12 292 4Q248 -16 188 -16Q123 -16 85 25T47 130Q47 213 97 250Q130 274 221 295Q256 303 332 310V375Q332 409 306 430T245 452Q189 452 109 386L67 443Q99
472 151 497Q208 525 245 524Q316 524 364 480T412 366V77Q417 57 433 56Q444 55 476 78L493 25Q459 -11 409 -11ZM332 239Q300 239 254 229Q240 226 196 216Q123 198 122 129Q122 92 142 70T200 48Q240 48 282 70Q332 96 332 135V239ZM364 559Q341 559 327 574T312
612Q312 635 326 650T364 666Q386 666 400 650T415 612Q415 589 401 574T364 559ZM148 559Q125 559 111 574T97 612Q97 635 111 650T148 666T185 650T200 612Q200 589 186 574T148 559Z" />
<glyph unicode="&#xe5;" glyph-name="aring" horiz-adv-x="502" d="M409 -11Q367 -11 344 38Q310 12 292 4Q248 -16 188 -16Q123 -16 85 25T47 130Q47 213 97 250Q130 274 221 295Q256 303 332 310V375Q332 409 306 430T245 452Q189 452 109 386L67 443Q99 472
151 497Q208 525 245 524Q316 524 364 480T412 366V77Q417 57 433 56Q444 55 476 78L493 25Q459 -11 409 -11ZM332 239Q300 239 254 229Q240 226 196 216Q123 198 122 129Q122 92 142 70T200 48Q240 48 282 70Q332 96 332 135V239ZM246 580Q206 580 180 604T154
669Q154 708 180 732T246 757Q286 757 312 733T339 669Q339 629 313 605T246 580ZM246 713Q203 713 203 669Q203 624 246 624Q290 624 290 669Q290 713 246 713Z" />
<glyph unicode="&#xe6;" glyph-name="ae" horiz-adv-x="793" d="M674 340Q674 452 563 452Q488 452 457 415Q433 387 414 307H674V340ZM339 38Q322 26 286 4Q241 -16 183 -16Q118 -16 80 25T42 130Q42 213 92 250Q124 274 216 295Q273 308 327 313V375Q327 409
301 430T240 452Q184 452 103 386L61 443Q91 470 145 497Q204 525 240 524Q345 524 389 439Q456 519 571 519Q653 519 707 452Q755 391 755 305V243H407Q407 176 432 128Q449 94 494 75Q533 58 574 57Q604 57 646 80Q682 98 709 123L750 66Q666 -12 566 -12Q438
-12 379 75L339 38ZM327 239Q303 239 241 226Q175 213 158 204Q116 181 116 129Q116 48 195 48Q235 48 276 70Q326 96 327 135V239Z" />
<glyph unicode="&#xe7;" glyph-name="ccedilla" horiz-adv-x="494" d="M302 -224Q237 -224 214 -175L252 -140Q281 -173 303 -173Q340 -173 340 -138Q340 -98 305 -98Q291 -98 270 -114L222 -92L227 -7Q124 11 77 106Q45 171 45 248Q45 365 104 439Q169 520 283
519Q373 518 443 465L400 397Q332 449 272 450Q198 450 161 380Q131 325 130 244Q129 169 167 117Q209 59 281 58Q355 58 418 115L458 61Q384 -11 286 -12L283 -48Q292 -44 308 -44Q347 -44 374 -70T401 -135Q401 -176 373 -200T302 -224Z" />
<glyph unicode="&#xe8;" glyph-name="egrave" horiz-adv-x="508" d="M132 263Q132 112 219 73Q253 58 290 57Q350 57 424 123L464 66Q382 -12 282 -12Q143 -12 83 92Q45 159 45 253Q45 370 106 442Q171 519 286 519Q370 519 420 465T470 326V263H132ZM389 340Q389
452 279 452Q218 452 184 420Q155 391 139 328H389V340ZM364 569L151 662L198 728L414 630L364 569Z" />
<glyph unicode="&#xe9;" glyph-name="eacute" horiz-adv-x="508" d="M132 263Q132 112 219 73Q253 58 290 57Q350 57 424 123L464 66Q382 -12 282 -12Q143 -12 83 92Q45 159 45 253Q45 370 106 442Q171 519 286 519Q370 519 420 465T470 326V263H132ZM389 340Q389
452 279 452Q218 452 184 420Q155 391 139 328H389V340ZM187 570L139 631L354 729L402 663L187 570Z" />
<glyph unicode="&#xea;" glyph-name="ecircumflex" horiz-adv-x="508" d="M132 263Q132 112 219 73Q253 58 290 57Q350 57 424 123L464 66Q382 -12 282 -12Q143 -12 83 92Q45 159 45 253Q45 370 106 442Q171 519 286 519Q370 519 420 465T470 326V263H132ZM389
340Q389 452 279 452Q218 452 184 420Q155 391 139 328H389V340ZM280 634L138 539V611L280 727L425 611V539L280 634Z" />
<glyph unicode="&#xeb;" glyph-name="edieresis" horiz-adv-x="508" d="M132 263Q132 112 219 73Q253 58 290 57Q350 57 424 123L464 66Q382 -12 282 -12Q143 -12 83 92Q45 159 45 253Q45 370 106 442Q171 519 286 519Q370 519 420 465T470 326V263H132ZM389 340Q389
452 279 452Q218 452 184 420Q155 391 139 328H389V340ZM374 559Q351 559 337 574T323 612Q323 635 337 650T374 666Q396 666 410 650T425 612Q425 589 411 574T374 559ZM160 559Q137 559 123 574T109 612Q109 635 123 650T160 666Q183 666 196 651T210 612Q210
589 197 574T160 559Z" />
<glyph unicode="&#xec;" glyph-name="igrave" horiz-adv-x="254" d="M79 0V507H161V0H79ZM213 569L0 662L47 728L263 630L213 569Z" />
<glyph unicode="&#xed;" glyph-name="iacute" horiz-adv-x="239" d="M79 0V507H161V0H79ZM47 570L0 631L215 729L263 663L47 570Z" />
<glyph unicode="&#xee;" glyph-name="icircumflex" horiz-adv-x="215" d="M79 0V507H161V0H79ZM118 634L-23 539V611L118 727L263 611V539L118 634Z" />
<glyph unicode="&#xef;" glyph-name="idieresis" horiz-adv-x="211" d="M79 0V507H161V0H79ZM220 559Q197 559 183 574T169 612Q169 635 183 650T220 666T256 650T271 612Q271 589 257 574T220 559ZM5 559Q-18 559 -31 574T-45 612Q-45 635 -31 650T5 666Q28 666
42 651T56 612Q56 589 42 574T5 559Z" />
<glyph unicode="&#xf0;" glyph-name="eth" horiz-adv-x="576" d="M438 367Q379 451 284 451Q204 451 162 394Q124 344 123 262Q122 185 159 129Q200 63 273 63Q358 63 404 125Q446 181 446 268Q446 322 438 367ZM217 628H313Q267 683 244 702L312 749Q365 698
414 628H553L552 557H456Q533 417 531 313Q529 166 472 82Q403 -17 263 -17Q159 -17 93 66Q33 142 33 249Q33 374 98 447T285 520Q364 520 408 475Q398 505 364 557H217V628Z" />
<glyph unicode="&#xf1;" glyph-name="ntilde" horiz-adv-x="497" d="M385 0V333Q385 383 362 416Q336 454 289 454Q247 454 202 421Q151 384 151 336V0H70V507H151V450Q191 488 217 502Q255 524 298 523Q370 523 418 471T466 346V0H385ZM341 562Q314 562 264 597T202
633Q162 633 130 590L103 650Q117 670 146 685T202 701Q228 702 275 667T339 632Q363 632 390 657L417 596Q408 586 382 574T341 562Z" />
<glyph unicode="&#xf2;" glyph-name="ograve" horiz-adv-x="556" d="M287 -11Q150 -11 87 92Q45 162 45 258Q45 390 128 464Q197 524 289 524Q380 524 445 464Q525 391 525 258Q525 166 478 91Q414 -11 287 -11ZM293 456Q212 456 169 392Q133 337 133 252Q133
171 167 119Q207 56 283 55Q362 55 401 120Q436 174 436 257Q436 336 404 390Q367 456 293 456ZM396 569L182 662L230 728L445 630L396 569Z" />
<glyph unicode="&#xf3;" glyph-name="oacute" horiz-adv-x="556" d="M287 -11Q150 -11 87 92Q45 162 45 258Q45 390 128 464Q197 524 289 524Q380 524 445 464Q525 391 525 258Q525 166 478 91Q414 -11 287 -11ZM293 456Q212 456 169 392Q133 337 133 252Q133
171 167 119Q207 56 283 55Q362 55 401 120Q436 174 436 257Q436 336 404 390Q367 456 293 456ZM230 570L182 631L397 729L445 663L230 570Z" />
<glyph unicode="&#xf4;" glyph-name="ocircumflex" horiz-adv-x="556" d="M287 -11Q150 -11 87 92Q45 162 45 258Q45 390 128 464Q197 524 289 524Q380 524 445 464Q525 391 525 258Q525 166 478 91Q414 -11 287 -11ZM293 456Q212 456 169 392Q133 337 133 252Q133
171 167 119Q207 56 283 55Q362 55 401 120Q436 174 436 257Q436 336 404 390Q367 456 293 456ZM290 634L150 539V611L290 727L435 611V539L290 634Z" />
<glyph unicode="&#xf5;" glyph-name="otilde" horiz-adv-x="556" d="M287 -11Q150 -11 87 92Q45 162 45 258Q45 390 128 464Q197 524 289 524Q380 524 445 464Q525 391 525 258Q525 166 478 91Q414 -11 287 -11ZM293 456Q212 456 169 392Q133 337 133 252Q133
171 167 119Q207 56 283 55Q362 55 401 120Q436 174 436 257Q436 336 404 390Q367 456 293 456ZM373 562Q347 562 298 597T234 633Q194 633 163 590L135 650Q149 672 178 686T234 701T306 667T371 632Q397 632 422 657L449 596Q440 585 414 574T373 562Z" />
<glyph unicode="&#xf6;" glyph-name="odieresis" horiz-adv-x="556" d="M287 -11Q150 -11 87 92Q45 162 45 258Q45 390 128 464Q197 524 289 524Q380 524 445 464Q525 391 525 258Q525 166 478 91Q414 -11 287 -11ZM293 456Q212 456 169 392Q133 337 133 252Q133
171 167 119Q207 56 283 55Q362 55 401 120Q436 174 436 257Q436 336 404 390Q367 456 293 456ZM395 559Q372 559 358 574T344 612Q344 635 358 650T395 666T431 650T446 612Q446 589 432 574T395 559ZM181 559Q158 559 144 574T130 612Q130 635 144 650T181 666Q204
666 217 651T231 612Q231 589 218 574T181 559Z" />
<glyph unicode="&#xf7;" glyph-name="divide" horiz-adv-x="507" d="M270 407Q243 407 226 426T209 474Q209 502 226 522T270 542Q297 542 314 522T332 474Q332 446 315 427T270 407ZM54 282V353H457V282H54ZM270 95Q243 95 226 115T209 163Q209 191 226 210T270
230Q297 230 314 210T332 163Q332 135 315 115T270 95Z" />
<glyph unicode="&#xf8;" glyph-name="oslash" horiz-adv-x="559" d="M181 94L291 456H288Q207 456 164 392Q128 337 128 252Q128 148 181 94ZM370 426L257 56Q263 55 278 55Q357 55 396 120Q431 174 431 257Q431 375 370 426ZM333 592L413 567L391 498Q519 430
519 258Q519 166 472 91Q407 -11 282 -11Q258 -11 238 -8L218 -71L138 -46L158 17Q99 50 68 121Q40 182 40 258Q40 390 123 464Q191 524 283 524Q293 524 311 522L333 592Z" />
<glyph unicode="&#xf9;" glyph-name="ugrave" horiz-adv-x="493" d="M462 0H389Q386 14 379 53Q302 -19 221 -18Q151 -18 109 39Q70 92 70 164V507H151V168Q151 54 241 54Q284 54 333 90T382 168V507H462V0ZM364 569L151 662L198 728L414 630L364 569Z" />
<glyph unicode="&#xfa;" glyph-name="uacute" horiz-adv-x="493" d="M462 0H389Q386 14 379 53Q302 -19 221 -18Q151 -18 109 39Q70 92 70 164V507H151V168Q151 54 241 54Q284 54 333 90T382 168V507H462V0ZM187 570L139 631L354 729L402 663L187 570Z" />
<glyph unicode="&#xfb;" glyph-name="ucircumflex" horiz-adv-x="493" d="M462 0H389Q386 14 379 53Q302 -19 221 -18Q151 -18 109 39Q70 92 70 164V507H151V168Q151 54 241 54Q284 54 333 90T382 168V507H462V0ZM268 634L128 539V611L268 727L414 611V539L268 634Z" />
<glyph unicode="&#xfc;" glyph-name="udieresis" horiz-adv-x="493" d="M462 0H389Q386 14 379 53Q302 -19 221 -18Q151 -18 109 39Q70 92 70 164V507H151V168Q151 54 241 54Q284 54 333 90T382 168V507H462V0ZM374 559Q351 559 337 574T323 612Q323 635 337 650T374
666Q396 666 410 650T425 612Q425 589 411 574T374 559ZM160 559Q137 559 123 574T109 612Q109 635 123 650T160 666Q183 666 196 651T210 612Q210 589 197 574T160 559Z" />
<glyph unicode="&#xfd;" glyph-name="yacute" horiz-adv-x="491" d="M174 585L126 646L341 744L390 678L174 585ZM255 -86Q238 -134 191 -167T93 -201Q78 -201 23 -182L48 -110Q77 -123 99 -124Q146 -125 185 -55Q205 -6 227 43L31 489L110 511L264 148L396 510L469
493L255 -86Z" />
<glyph unicode="&#xfe;" glyph-name="thorn" horiz-adv-x="534" d="M279 -10Q238 -10 211 3L150 42V-200H61V701H146V429Q201 512 298 512Q398 512 454 439Q504 373 505 270Q506 145 456 73Q398 -10 279 -10ZM284 440Q242 440 205 414T150 349L151 99Q166 79 210
68Q246 58 279 57Q352 57 388 126Q417 180 417 259Q417 335 389 382Q355 440 284 440Z" />
<glyph unicode="&#xff;" glyph-name="ydieresis" horiz-adv-x="478" d="M260 -86Q243 -134 197 -167T99 -201Q83 -201 28 -182L53 -110Q82 -123 104 -124Q151 -125 190 -55Q210 -6 232 43L37 489L115 511L270 148L402 510L474 493L260 -86ZM351 559Q328 559 314
574T300 612Q300 635 314 650T351 666T387 650T402 612Q402 589 388 574T351 559ZM137 559Q114 559 100 574T86 612Q86 635 100 650T137 666Q160 666 173 651T187 612Q187 589 174 574T137 559Z" />
<glyph unicode="&#x2013;" glyph-name="endash" horiz-adv-x="512" d="M35 299V372H477V299H35Z" />
<glyph unicode="&#x2014;" glyph-name="emdash" horiz-adv-x="1024" d="M28 299V372H996V299H28Z" />
<glyph unicode="&#x2018;" glyph-name="quoteleft" horiz-adv-x="218" d="M190 725L145 737Q52 615 51 528H151Q151 567 163 629T190 725Z" />
<glyph unicode="&#x2019;" glyph-name="quoteright" horiz-adv-x="246" d="M48 541L93 528Q186 650 187 737H88Q88 698 76 637Q63 573 48 541Z" />
<glyph unicode="&#x201a;" glyph-name="quotesinglbase" horiz-adv-x="219" d="M99 -131L43 -135Q44 -134 73 -89Q91 -60 95 -40Q29 -37 30 34Q30 62 51 83T99 104T147 82T168 34Q167 -12 147 -54Q137 -76 99 -131Z" />
<glyph unicode="&#x201c;" glyph-name="quotedblleft" horiz-adv-x="453" d="M435 725L390 737Q297 615 296 528H395Q395 567 407 629T435 725ZM230 725L185 737Q92 615 91 528H190Q190 567 202 629T230 725Z" />
<glyph unicode="&#x201d;" glyph-name="quotedblright" horiz-adv-x="453" d="M32 541L77 528Q170 650 171 737H72Q72 698 59 637Q47 573 32 541ZM237 541L282 528Q375 650 376 737H276Q276 698 264 637Q252 573 237 541Z" />
<glyph unicode="&#x201e;" glyph-name="quotedblbase" horiz-adv-x="427" d="M32 -74L77 -86Q170 36 171 123H72Q72 84 59 23Q47 -42 32 -74ZM237 -74L282 -86Q375 36 376 123H276Q276 84 264 23Q252 -42 237 -74Z" />
<glyph unicode="&#x2022;" glyph-name="bullet" horiz-adv-x="288" d="M143 195Q101 195 75 225T49 298Q49 340 75 370T143 400Q184 400 210 370T237 298Q237 257 211 226T143 195Z" />
<glyph unicode="&#x2039;" glyph-name="guilsinglleft" horiz-adv-x="326" d="M152 293L286 128L213 125L57 296L213 462L286 459L152 293Z" />
<glyph unicode="&#x203a;" glyph-name="guilsinglright" horiz-adv-x="324" d="M121 125L48 128L181 293L48 459L121 462L278 296L121 125Z" />
</font>
</defs>
</svg>
