<?xml version="1.0" standalone="no"?>
<!DOCTYPE svg PUBLIC "-//W3C//DTD SVG 1.1//EN" "http://www.w3.org/Graphics/SVG/1.1/DTD/svg11.dtd">
<svg xmlns="http://www.w3.org/2000/svg">
<defs >
<font id="Orienta" horiz-adv-x="529" ><font-face
    font-family="Orienta"
    units-per-em="1000"
    panose-1="2 0 6 3 4 0 0 2 0 4"
    ascent="960"
    descent="-235"
    alphabetic="0" />
<glyph unicode=" " glyph-name="space" horiz-adv-x="270" />
<glyph unicode="!" glyph-name="exclam" horiz-adv-x="333" d="M100 53Q100 88 118 104T166 121Q195 121 214 105T233 53Q233 18 214 2T166 -15Q137 -15 119 1T100 53ZM213 430L198 218H134L119 430V750H214L213 430Z" />
<glyph unicode="&quot;" glyph-name="quotedbl" horiz-adv-x="366" d="M131 515H65L50 750H146L131 515ZM301 515H235L220 750H316L301 515Z" />
<glyph unicode="#" glyph-name="numbersign" horiz-adv-x="638" d="M87 470H187L229 675H310L267 470H427L469 675H550L507 470H608L591 390H491L466 270H566L549 190H449L407 -15H328L370 190H209L167 -15H88L130 190H30L47 270H146L171 390H70L87 470ZM226 270H386L411
390H251L226 270Z" />
<glyph unicode="$" glyph-name="dollar" horiz-adv-x="566" d="M416 157Q416 195 391 219T327 261T243 298T160 341T96 402T70 496Q70 524 81 556T119 614T188 657T295 675Q378 675 433 640T511 523L427 493Q410 542 373 569T280 597Q229 597 198 572T166 501Q166
463 191 438T256 394T339 357T423 316T487 258T513 171Q513 141 501 109T461 49T389 3T278 -15Q189 -15 132 29T50 172L133 202Q168 63 289 63Q345 63 380 89T416 157ZM324 -121H248V779H324V-121Z" />
<glyph unicode="%" glyph-name="percent" horiz-adv-x="877" d="M356 -15H277L519 675H600L356 -15ZM41 465Q41 517 52 556T85 621T134 660T197 674Q230 674 258 661T308 621T341 556T353 465Q353 412 341 373T308 307T259 267T197 253Q163 253 135 266T85 306T53
372T41 465ZM115 465Q115 388 138 353T197 317Q232 317 255 352T279 465Q279 540 256 575T197 611Q161 611 138 576T115 465ZM526 197Q526 249 537 288T570 353T619 392T682 406Q715 406 743 393T793 353T826 288T838 197Q838 144 826 105T793 39T744 -1T682 -15Q648
-15 620 -2T570 38T538 104T526 197ZM600 197Q600 120 623 85T682 49Q717 49 740 84T764 197Q764 272 741 307T682 343Q646 343 623 308T600 197Z" />
<glyph unicode="&amp;" glyph-name="ampersand" horiz-adv-x="615" d="M550 314Q550 268 541 224T511 139Q535 119 555 104T592 78Q610 65 625 55L573 -9Q559 1 542 13Q528 24 508 38T465 71Q429 32 377 9T256 -15Q200 -15 159 1T92 43T53 105T40 179Q40 219 51
249T80 303T123 343T176 374Q150 415 136 456T121 536Q121 579 137 612T181 668T242 703T312 715Q346 715 378 705T436 674T476 622T491 550Q491 510 476 480T435 425T374 381T300 343Q332 302 371 264T448 192Q457 214 462 235T469 274T471 301T472 314H550ZM256
63Q308 63 344 79T404 122Q358 162 310 209T222 308Q203 298 186 287T157 260T137 225T130 179Q130 156 137 135T160 98T199 73T256 63ZM211 536Q211 506 222 474T253 409Q287 424 314 437T361 466T391 501T401 550Q401 571 394 587T374 614T345 631T312 637Q293
637 275 631T243 611T220 579T211 536Z" />
<glyph unicode="&apos;" glyph-name="quotesingle" horiz-adv-x="196" d="M131 515H65L50 750H146L131 515Z" />
<glyph unicode="(" glyph-name="parenleft" horiz-adv-x="371" d="M321 -106Q271 -106 229 -79T156 2T108 138T90 331Q90 440 107 521T156 657T229 738T321 765V677Q292 677 268 658T227 597T200 490T190 331Q190 237 199 171T226 63T268 2T321 -18V-106Z" />
<glyph unicode=")" glyph-name="parenright" horiz-adv-x="371" d="M50 -106Q100 -106 142 -79T215 2T263 138T281 331Q281 440 264 521T215 657T142 738T50 765V677Q79 677 103 658T144 597T171 490T181 331Q181 237 172 171T145 63T103 2T50 -18V-106Z" />
<glyph unicode="*" glyph-name="asterisk" horiz-adv-x="517" d="M290 599H227L214 750H304L290 599ZM219 593L201 533L50 568L79 654L219 593ZM204 522L254 487L175 355L102 408L204 522ZM263 487L315 523L415 408L343 355L263 487ZM317 533L298 593L439 654L467
568L317 533Z" />
<glyph unicode="+" glyph-name="plus" horiz-adv-x="542" d="M80 370H231V521H311V370H462V290H311V139H231V290H80V370Z" />
<glyph unicode="," glyph-name="comma" horiz-adv-x="233" d="M82 -43Q82 -27 77 -16T66 4T55 25T50 53Q50 88 68 104T116 121Q145 121 164 105T183 53Q183 27 175 -3T155 -64T126 -121T92 -168L47 -138Q61 -118 71 -93T82 -43Z" />
<glyph unicode="-" glyph-name="hyphen" horiz-adv-x="422" d="M55 336H367V266H55V336Z" />
<glyph unicode="." glyph-name="period" horiz-adv-x="233" d="M50 53Q50 88 68 104T116 121Q145 121 164 105T183 53Q183 18 164 2T116 -15Q87 -15 69 1T50 53Z" />
<glyph unicode="/" glyph-name="slash" horiz-adv-x="382" d="M75 -15H0L306 715H382L75 -15Z" />
<glyph unicode="0" glyph-name="zero" horiz-adv-x="623" d="M60 331Q60 416 79 480T131 588T211 653T311 675Q365 675 411 653T490 588T543 481T563 331Q563 245 544 181T491 73T411 7T311 -15Q257 -15 211 7T132 72T79 180T60 331ZM157 331Q157 263 168 213T200
129T249 80T311 63Q379 63 422 128T466 331Q466 466 423 531T311 597Q243 597 200 532T157 331Z" />
<glyph unicode="1" glyph-name="one" horiz-adv-x="481" d="M311 660V78H421V0H105V78H215V511Q172 469 99 447L70 527Q96 535 122 549T172 581T211 619T235 660H311Z" />
<glyph unicode="2" glyph-name="two" horiz-adv-x="570" d="M75 0V40Q75 88 99 129T158 207T236 278T313 347T373 416T397 493Q397 515 389 534T365 567T330 590T285 598Q231 598 202 569T159 468L72 489Q88 574 139 624T275 675Q336 675 377 660T444 619T480
563T492 501Q492 453 473 412T423 335T356 267T284 205T221 143T178 78H498V0H75Z" />
<glyph unicode="3" glyph-name="three" horiz-adv-x="553" d="M467 501Q467 454 437 413T355 344Q423 322 455 274T488 174Q488 139 474 106T432 45T360 2T258 -15Q224 -15 192 -8T132 16T83 57T51 118L134 146Q140 126 152 111T181 85T217 69T256 63Q318 63 353
90T388 169Q388 194 380 216T353 256T306 284T235 294Q205 294 171 288V357H183Q241 358 277 372T335 407T364 452T372 497Q372 540 342 569T264 598Q219 598 188 571T143 478L57 499Q74 579 127 627T257 675Q318 675 358 660T423 619T457 563T467 501Z" />
<glyph unicode="4" glyph-name="four" horiz-adv-x="530" d="M283 660H418V219H500V141H418V0H322V141H10V185L283 660ZM322 219V572L119 219H322Z" />
<glyph unicode="5" glyph-name="five" horiz-adv-x="553" d="M447 660V582H187L181 388Q224 397 262 397Q321 397 363 379T434 332T475 266T488 188Q488 150 474 114T432 49T360 3T258 -15Q224 -15 192 -8T132 16T83 57T51 118L134 146Q140 126 152 111T181 85T217
69T256 63Q318 63 353 94T388 183Q388 211 380 237T353 282T306 312T235 324Q190 324 125 307L95 337L102 660H447Z" />
<glyph unicode="6" glyph-name="six" horiz-adv-x="570" d="M323 597Q288 597 258 581T206 531T171 447T157 327Q186 367 229 385T318 404Q356 404 392 392T457 354T503 293T521 211Q521 170 507 130T463 57T390 5T290 -15Q182 -15 121 66T60 310Q60 400 80 468T135
583T219 652T324 675Q388 675 434 651T506 570L425 529Q409 563 382 580T323 597ZM172 197Q172 169 182 145T209 102T250 74T300 63Q327 63 350 73T391 102T419 144T429 197Q429 225 419 249T392 292T351 321T300 332Q273 332 250 322T210 293T182 250T172 197Z"
/>
<glyph unicode="7" glyph-name="seven" horiz-adv-x="450" d="M440 616L172 0H77L332 582H10V660H440V616Z" />
<glyph unicode="8" glyph-name="eight" horiz-adv-x="594" d="M88 491Q88 541 106 576T153 633T220 665T297 675Q336 675 373 665T440 633T488 576T506 490Q506 476 502 457T489 418T465 379T426 345Q456 328 475 308T504 266T517 223T521 182Q521 129 503 92T453
31T381 -4T297 -15Q253 -15 213 -4T142 31T92 92T73 182Q73 201 76 222T90 266T119 309T168 347Q144 362 129 381T104 419T92 457T88 491ZM172 182Q172 156 181 133T207 94T247 68T296 58Q322 58 345 67T385 93T411 133T421 182Q421 208 412 231T385 271T345 297T296
307Q270 307 247 298T208 271T182 231T172 182ZM182 493Q182 469 191 448T215 412T251 388T296 379Q320 379 341 388T377 412T402 448T411 493Q411 517 402 538T378 574T341 599T296 608Q272 608 251 599T215 575T191 538T182 493Z" />
<glyph unicode="9" glyph-name="nine" horiz-adv-x="570" d="M258 63Q292 63 322 78T374 126T411 208T427 324Q398 284 356 266T260 248Q210 248 173 266T112 312T75 377T63 449Q63 490 77 530T119 603T191 655T291 675Q399 675 460 594T521 350Q521 260 501 192T446
77T362 8T257 -15Q193 -15 145 9T70 90L151 131Q167 97 196 80T258 63ZM156 458Q156 429 166 404T193 360T234 331T285 320Q312 320 335 330T377 360T405 404T415 458Q415 487 405 512T377 556T336 586T285 597Q258 597 235 586T194 557T166 513T156 458Z" />
<glyph unicode=":" glyph-name="colon" horiz-adv-x="233" d="M50 53Q50 88 68 104T116 121Q145 121 164 105T183 53Q183 18 164 2T116 -15Q87 -15 69 1T50 53ZM50 432Q50 467 68 483T116 500Q145 500 164 484T183 432Q183 397 164 381T116 364Q87 364 69 380T50 432Z" />
<glyph unicode=";" glyph-name="semicolon" horiz-adv-x="233" d="M82 -43Q82 -27 77 -16T66 4T55 25T50 53Q50 88 68 104T116 121Q145 121 164 105T183 53Q183 27 175 -3T155 -64T126 -121T92 -168L47 -138Q61 -118 71 -93T82 -43ZM50 432Q50 467 68 483T116
500Q145 500 164 484T183 432Q183 397 164 381T116 364Q87 364 69 380T50 432Z" />
<glyph unicode="&lt;" glyph-name="less" horiz-adv-x="542" d="M80 369L462 530V450L173 330L462 210V130L80 291V369Z" />
<glyph unicode="=" glyph-name="equal" horiz-adv-x="542" d="M80 470H462V390H80V470ZM80 270H462V190H80V270Z" />
<glyph unicode="&gt;" glyph-name="greater" horiz-adv-x="542" d="M462 291L80 130V210L368 330L80 450V530L462 369V291Z" />
<glyph unicode="?" glyph-name="question" horiz-adv-x="490" d="M157 53Q157 88 175 104T223 121Q252 121 271 105T290 53Q290 18 271 2T223 -15Q194 -15 176 1T157 53ZM430 591Q430 549 417 515T385 450T343 392T301 337T268 280T255 218H191Q190 224 190 230T190
242Q190 306 212 350T262 431T312 503T335 583Q335 605 328 624T307 657T276 680T237 688Q190 688 164 661T127 573L40 594Q47 630 63 661T105 716T163 752T238 765Q292 765 329 750T388 709T420 653T430 591Z" />
<glyph unicode="@" glyph-name="at" horiz-adv-x="1077" d="M766 -15Q794 -15 820 10T866 76T898 168T910 273Q910 365 881 436T802 555T684 629T539 654Q462 654 395 629T277 556T197 436T167 273Q167 181 196 110T276 -10T394 -84T539 -109Q569 -109 596 -106L602
-183Q570 -186 539 -186Q444 -186 361 -157T215 -70T116 73T80 273Q80 387 116 472T214 615T360 702T539 731Q634 731 717 702T863 616T961 473T997 273Q997 197 978 132T925 18T848 -57T756 -85Q684 -85 648 -29T612 125Q584 75 549 51T467 27Q399 27 361 72T323
208Q323 281 341 337T389 430T460 486T546 505Q581 505 611 493T664 461Q677 482 693 505L742 495Q734 463 724 420T706 330T693 233T687 141Q687 108 691 80T704 30T728 -3T766 -15ZM488 98Q506 98 528 111T572 159T610 253T635 403Q619 417 596 427T544 437Q520
437 497 423T456 382T428 313T417 217Q417 98 488 98Z" />
<glyph unicode="A" glyph-name="A" horiz-adv-x="582" d="M567 0H473L418 191H163L109 0H15L215 700H367L567 0ZM186 269H396L291 637L186 269Z" />
<glyph unicode="B" glyph-name="B" horiz-adv-x="601" d="M302 700Q356 700 396 684T462 642T502 580T516 506Q516 405 430 364Q488 344 517 301T546 195Q546 107 493 54T332 0H100V700H302ZM196 321V78H332Q367 78 390 89T428 117T447 157T453 201Q453 223 448
245T428 283T391 310T332 321H196ZM196 622V399H302Q337 399 360 409T398 436T417 472T423 512Q423 532 418 551T398 587T361 612T302 622H196Z" />
<glyph unicode="C" glyph-name="C" horiz-adv-x="600" d="M495 532Q479 585 444 611T362 637Q320 637 285 620T225 567T185 478T170 351Q170 278 184 224T225 134T287 81T365 63Q419 63 463 84T535 134L581 75Q543 38 487 12T361 -15Q298 -15 245 8T152 78T92
192T70 351Q70 441 92 509T153 623T244 692T359 715Q441 715 497 681T580 563L495 532Z" />
<glyph unicode="D" glyph-name="D" horiz-adv-x="684" d="M196 622V78H319Q361 78 397 94T459 145T499 230T514 351Q514 420 500 471T460 555T399 605T322 622H196ZM325 700Q386 700 439 678T531 612T592 503T614 351Q614 264 593 199T532 89T440 23T323 0H100V700H325Z" />
<glyph unicode="E" glyph-name="E" horiz-adv-x="555" d="M490 622H196V389H460V311H196V78H490V0H100V700H490V622Z" />
<glyph unicode="F" glyph-name="F" horiz-adv-x="490" d="M470 622H196V389H440V311H196V0H100V700H470V622Z" />
<glyph unicode="G" glyph-name="G" horiz-adv-x="674" d="M594 360V0H548L530 40Q496 16 455 1T361 -15Q298 -15 245 8T152 78T92 192T70 351Q70 441 92 509T153 623T244 692T359 715Q441 715 497 681T580 563L495 532Q479 585 444 611T362 637Q320 637 285 620T225
567T185 478T170 351Q170 278 184 224T225 134T287 81T365 63Q407 63 443 76T508 110V282H389V360H508H594Z" />
<glyph unicode="H" glyph-name="H" horiz-adv-x="686" d="M586 0H490V311H196V0H100V700H196V389H490V700H586V0Z" />
<glyph unicode="I" glyph-name="I" horiz-adv-x="296" d="M196 0H100V700H196V0Z" />
<glyph unicode="J" glyph-name="J" horiz-adv-x="425" d="M330 199Q330 140 320 100T287 34T233 -3T156 -15Q97 -15 55 15T-10 118L73 146Q91 63 156 63Q191 63 212 86T234 164V700H330V199Z" />
<glyph unicode="K" glyph-name="K" horiz-adv-x="561" d="M196 374L441 700H546L307 387L561 0H456L251 313L196 241V0H100V700H196V374Z" />
<glyph unicode="L" glyph-name="L" horiz-adv-x="450" d="M100 0V700H196V78H440V0H100Z" />
<glyph unicode="M" glyph-name="M" horiz-adv-x="818" d="M622 580L446 100H372L196 580V0H100V700H236L409 227L582 700H718V0H622V580Z" />
<glyph unicode="N" glyph-name="N" horiz-adv-x="696" d="M596 0H460L196 577V0H100V700H236L500 122V700H596V0Z" />
<glyph unicode="O" glyph-name="O" horiz-adv-x="724" d="M70 351Q70 441 92 509T153 623T245 692T361 715Q423 715 476 692T569 623T631 509T654 351Q654 260 632 192T570 77T477 8T361 -15Q299 -15 246 8T153 77T92 191T70 351ZM170 351Q170 277 184 223T223
134T284 81T361 63Q404 63 439 80T500 133T540 223T554 351Q554 424 540 477T501 566T440 619T361 637Q319 637 284 620T224 567T184 478T170 351Z" />
<glyph unicode="P" glyph-name="P" horiz-adv-x="571" d="M302 700Q362 700 407 684T481 638T526 568T541 480Q541 432 526 392T482 323T407 277T302 261H196V0H100V700H302ZM196 622V339H302Q345 339 373 351T417 384T441 429T448 480Q448 505 441 530T418 576T373
609T302 622H196Z" />
<glyph unicode="Q" glyph-name="Q" horiz-adv-x="724" d="M488 -153H464Q464 -122 454 -97T428 -53T394 -25T361 -15V30Q398 30 431 22T490 -4T531 -53T546 -129L488 -153ZM70 351Q70 441 92 509T153 623T245 692T361 715Q423 715 476 692T569 623T631 509T654
351Q654 260 632 192T570 77T477 8T361 -15Q299 -15 246 8T153 77T92 191T70 351ZM170 351Q170 277 184 223T223 134T284 81T361 63Q404 63 439 80T500 133T540 223T554 351Q554 424 540 477T501 566T440 619T361 637Q319 637 284 620T224 567T184 478T170 351Z"
/>
<glyph unicode="R" glyph-name="R" horiz-adv-x="611" d="M365 242Q353 268 338 277T303 286H302H196V0H100V700H302Q362 700 407 684T481 639T526 572T541 490Q541 425 511 377T419 305Q433 295 441 283T456 258L581 0H476L365 242ZM196 622V364H302Q345 364
373 375T417 405T441 446T448 493Q448 516 441 539T418 580T373 610T302 622H196Z" />
<glyph unicode="S" glyph-name="S" horiz-adv-x="566" d="M418 163Q418 203 392 229T328 275T244 314T160 360T95 426T69 527Q69 557 80 590T118 651T186 697T292 715Q375 715 430 680T510 563L423 532Q406 581 370 609T279 637Q228 637 197 610T165 535Q165 494
191 468T255 421T339 381T423 337T488 275T514 182Q514 151 502 117T463 53T392 4T281 -15Q192 -15 133 28T48 171L134 202Q169 63 290 63Q346 63 382 91T418 163Z" />
<glyph unicode="T" glyph-name="T" horiz-adv-x="474" d="M469 700V622H285V0H189V622H5V700H469Z" />
<glyph unicode="U" glyph-name="U" horiz-adv-x="671" d="M581 236Q581 171 562 124T510 46T432 0T335 -15Q282 -15 238 0T160 46T109 124T90 236V700H186V236Q186 188 197 155T227 100T274 70T335 60Q369 60 396 69T443 100T474 154T485 236V700H581V236Z" />
<glyph unicode="V" glyph-name="V" horiz-adv-x="562" d="M357 0H205L20 700H114L281 68L448 700H542L357 0Z" />
<glyph unicode="W" glyph-name="W" horiz-adv-x="920" d="M460 564L327 0H185L30 700H124L261 78L408 700H512L658 79L796 700H890L735 0H593L460 564Z" />
<glyph unicode="X" glyph-name="X" horiz-adv-x="596" d="M300 440L455 700H560L353 352L566 0H458L295 269L135 0H30L243 356L36 700H144L300 440Z" />
<glyph unicode="Y" glyph-name="Y" horiz-adv-x="516" d="M258 361L402 700H501L306 260V0H210V260L15 700H114L258 361Z" />
<glyph unicode="Z" glyph-name="Z" horiz-adv-x="527" d="M35 44L368 622H60V700H492V656L159 78H485V0H35V44Z" />
<glyph unicode="[" glyph-name="bracketleft" horiz-adv-x="360" d="M100 -100V760H340V682H196V-22H340V-100H100Z" />
<glyph unicode="\" glyph-name="backslash" horiz-adv-x="382" d="M0 715H76L382 -15H307L0 715Z" />
<glyph unicode="]" glyph-name="bracketright" horiz-adv-x="360" d="M260 -100V760H20V682H164V-22H20V-100H260Z" />
<glyph unicode="^" glyph-name="asciicircum" horiz-adv-x="542" d="M317 660L458 428H371L271 595L171 428H84L225 660H317Z" />
<glyph unicode="_" glyph-name="underscore" horiz-adv-x="470" d="M20 -15H450V-85H20V-15Z" />
<glyph unicode="`" glyph-name="grave" horiz-adv-x="419" d="M367 665L335 607L120 717L161 790L367 665Z" />
<glyph unicode="a" glyph-name="a" horiz-adv-x="567" d="M268 467Q184 467 159 384L76 412Q116 545 268 545Q373 545 419 493T466 321V85Q466 69 473 64T492 58Q500 58 509 60T526 67L542 5Q526 -3 507 -9T465 -15Q429 -15 405 2T375 70Q360 54 341 39T300 11T252
-8T198 -15Q168 -15 142 -4T96 28T66 75T55 135Q55 217 110 263T264 309Q291 309 318 305T370 293V356Q370 408 343 437T268 467ZM227 63Q265 63 301 81T370 132V229Q349 236 325 240T278 244Q253 244 230 239T190 222T162 191T151 143Q151 110 172 87T227 63Z"
/>
<glyph unicode="b" glyph-name="b" horiz-adv-x="625" d="M352 545Q398 545 435 528T499 475T540 387T555 265Q555 196 537 144T488 56T415 3T325 -15Q279 -15 240 2T171 45L146 0H100V750H196V478Q224 505 262 525T352 545ZM331 467Q291 467 258 451T196 408V105Q219
87 251 75T321 63Q380 63 417 112T455 265Q455 368 421 417T331 467Z" />
<glyph unicode="c" glyph-name="c" horiz-adv-x="528" d="M414 384Q391 467 312 467Q250 467 210 418T170 265Q170 162 211 113T315 63Q360 63 396 82T455 124L498 72Q467 37 418 11T311 -15Q258 -15 214 2T138 55T88 143T70 265Q70 334 88 386T139 474T215 527T310
545Q378 545 426 515T497 412L414 384Z" />
<glyph unicode="d" glyph-name="d" horiz-adv-x="631" d="M273 -15Q181 -15 126 55T70 265Q70 334 88 386T137 474T210 527T300 545Q337 545 369 534T429 504V750H525V85Q525 69 532 64T551 58Q559 58 568 60T585 67L601 5Q585 -3 566 -9T524 -15Q490 -15 466
0T436 59Q407 29 367 7T273 -15ZM294 63Q333 63 366 79T429 121V425Q406 442 374 454T304 467Q245 467 208 418T170 265Q170 162 204 113T294 63Z" />
<glyph unicode="e" glyph-name="e" horiz-adv-x="591" d="M318 63Q369 63 406 82T467 124L510 72Q479 37 429 11T315 -15Q262 -15 217 2T140 55T89 143T70 265Q70 334 88 386T138 474T213 527T308 545Q355 545 394 531T462 486T505 412T521 307V237H171Q177 148
217 106T318 63ZM309 467Q255 467 218 428T172 307H426Q426 384 396 425T309 467Z" />
<glyph unicode="f" glyph-name="f" horiz-adv-x="380" d="M55 530H131V591Q131 685 171 725T289 765Q340 765 374 744T431 664L351 637Q342 661 328 674T288 687Q258 687 243 667T227 601V530H357V460H227V0H131V460H55V530Z" />
<glyph unicode="g" glyph-name="g" horiz-adv-x="559" d="M362 70Q396 70 427 63T482 38T520 -6T534 -72Q534 -149 473 -192T292 -235Q50 -235 50 -82Q50 -48 70 -19T123 28Q87 61 87 119Q87 149 99 176T137 223Q90 273 90 353Q90 398 105 434T148 494T212 532T293
545Q342 545 384 528Q407 529 424 548T441 618H461L519 598Q519 546 501 520T450 482Q472 458 484 426T497 353Q497 308 482 273T439 213T374 175T293 162Q231 162 185 186Q173 175 167 160T160 128Q160 103 177 87T230 70H362ZM182 353Q182 321 192 298T217 259T253
237T293 230Q313 230 333 237T369 259T395 297T405 353Q405 386 395 409T369 448T333 470T293 477Q273 477 253 470T218 448T192 410T182 353ZM238 -8Q204 -8 175 0Q161 -15 150 -34T138 -77Q138 -161 292 -161Q370 -161 408 -141T446 -73Q446 -52 438 -40T417
-20T389 -11T358 -8H238Z" />
<glyph unicode="h" glyph-name="h" horiz-adv-x="616" d="M191 458Q221 499 263 522T353 545Q400 545 433 534T486 500T516 438T526 346V0H430V356Q430 467 331 467Q248 467 196 397V0H100V750H191V458Z" />
<glyph unicode="i" glyph-name="i" horiz-adv-x="296" d="M196 0H100V530H196V0ZM87 697Q87 729 104 744T148 760Q175 760 192 745T210 697Q210 665 193 650T148 634Q122 634 105 649T87 697Z" />
<glyph unicode="j" glyph-name="j" horiz-adv-x="296" d="M93 693Q93 722 108 736T148 750Q173 750 188 736T204 693Q204 664 189 650T148 636Q124 636 109 650T93 693ZM196 -61Q196 -155 156 -195T44 -235Q-1 -235 -33 -214T-84 -134L-4 -107Q4 -131 15 -144T49
-157Q74 -157 87 -137T100 -71V530H196V-61Z" />
<glyph unicode="k" glyph-name="k" horiz-adv-x="522" d="M219 238L196 213V0H100V750H196V328L377 530H482L274 300L502 0H397L219 238Z" />
<glyph unicode="l" glyph-name="l" horiz-adv-x="296" d="M196 85Q196 69 202 64T220 58Q228 58 238 60T256 67L272 5Q256 -3 237 -9T195 -15Q175 -15 158 -11T128 6T108 38T100 88V750H196V85Z" />
<glyph unicode="m" glyph-name="m" horiz-adv-x="916" d="M181 530L186 468Q215 498 254 521T342 545Q403 545 440 525T494 460Q523 493 564 519T657 545Q702 545 734 534T787 500T816 438T826 346V0H730V356Q730 467 635 467Q600 467 568 451T507 405Q509 391
510 377T511 346V0H415V356Q415 467 320 467Q287 467 256 451T196 408V0H100V530H181Z" />
<glyph unicode="n" glyph-name="n" horiz-adv-x="616" d="M181 530L186 466Q217 497 259 521T353 545Q400 545 433 534T486 500T516 438T526 346V0H430V356Q430 467 329 467Q294 467 260 451T196 407V0H100V530H181Z" />
<glyph unicode="o" glyph-name="o" horiz-adv-x="623" d="M70 265Q70 334 88 386T139 474T215 527T311 545Q362 545 406 528T483 475T534 387T553 265Q553 196 535 144T484 56T407 3T311 -15Q260 -15 216 2T139 55T89 143T70 265ZM170 265Q170 162 209 113T311
63Q374 63 413 112T453 265Q453 368 414 417T311 467Q249 467 210 418T170 265Z" />
<glyph unicode="p" glyph-name="p" horiz-adv-x="625" d="M100 530H181L186 468Q215 498 255 521T352 545Q398 545 435 528T499 475T540 387T555 265Q555 196 537 144T488 56T415 3T325 -15Q288 -15 256 -4T196 26V-235H100V530ZM331 467Q291 467 258 451T196
408V105Q219 87 251 75T321 63Q380 63 417 112T455 265Q455 368 421 417T331 467Z" />
<glyph unicode="q" glyph-name="q" horiz-adv-x="625" d="M273 -15Q181 -15 126 55T70 265Q70 334 88 386T137 474T210 527T300 545Q345 545 383 529T451 487L479 545H525V-235H429V52Q401 24 363 5T273 -15ZM294 63Q333 63 366 79T429 121V425Q406 442 374 454T304
467Q245 467 208 418T170 265Q170 162 204 113T294 63Z" />
<glyph unicode="r" glyph-name="r" horiz-adv-x="365" d="M181 530L186 465Q217 500 260 521T351 545L356 473L344 462Q297 461 260 446T196 403V0H100V530H181Z" />
<glyph unicode="s" glyph-name="s" horiz-adv-x="486" d="M256 472Q218 472 192 455T166 403Q166 375 186 357T236 323T300 293T365 258T415 208T435 133Q435 66 386 26T250 -15Q164 -15 119 25T56 138L139 166Q144 133 155 112T183 79T218 63T257 58Q291 58 317
74T343 126Q343 152 323 169T273 201T209 231T144 269T94 322T74 401Q74 424 83 449T113 496T170 531T258 545Q327 545 372 515T438 412L355 384Q344 425 319 448T256 472Z" />
<glyph unicode="t" glyph-name="t" horiz-adv-x="397" d="M55 530H131V640L207 660H227V530H367V460H227V114Q227 66 274 66Q305 66 351 94L377 34Q347 11 310 -2T239 -15Q186 -15 159 20T131 124V460H55V530Z" />
<glyph unicode="u" glyph-name="u" horiz-adv-x="617" d="M511 85Q511 69 518 64T537 58Q545 58 554 60T571 67L587 5Q571 -3 552 -9T510 -15Q475 -15 451 1T421 61Q390 31 346 8T241 -15Q162 -15 126 32T90 171V530H186V170Q186 116 205 90T269 63Q313 63 349
79T415 122V530H511V85Z" />
<glyph unicode="v" glyph-name="v" horiz-adv-x="536" d="M331 0H205L35 530H134L273 89L412 530H501L331 0Z" />
<glyph unicode="w" glyph-name="w" horiz-adv-x="813" d="M411 372L316 0H185L45 530H142L256 86L368 530H455L566 86L681 530H768L628 0H507L411 372Z" />
<glyph unicode="x" glyph-name="x" horiz-adv-x="506" d="M257 344L377 530H471L304 270L476 0H371L248 193L124 0H30L202 267L35 530H140L257 344Z" />
<glyph unicode="y" glyph-name="y" horiz-adv-x="536" d="M300 -96Q275 -174 239 -204T149 -235Q105 -235 68 -215T8 -172L55 -112Q71 -128 92 -141T142 -154Q173 -154 192 -136T211 -80Q211 -53 204 -14T183 68L35 530H134L273 70L412 530H501L300 -96Z" />
<glyph unicode="z" glyph-name="z" horiz-adv-x="462" d="M45 50L303 455H65V530H417V480L159 75H412V0H45V50Z" />
<glyph unicode="{" glyph-name="braceleft" horiz-adv-x="360" d="M151 324Q171 324 184 318T204 301T213 277T216 249Q216 215 214 180T208 114T202 57T199 15Q199 -11 211 -21T253 -32Q267 -32 282 -30T320 -24L330 -92Q315 -96 303 -99T279 -103T254 -105T224
-106Q198 -106 176 -101T138 -84T113 -52T104 -2Q104 10 106 38T112 102T117 177T120 249Q120 275 103 287T46 299V359Q85 359 102 371T120 409Q120 442 118 481T112 556T107 620T104 660Q104 690 113 710T138 742T176 759T224 764Q241 764 254 764T279 762T303
757T330 750L320 682Q297 686 282 688T253 690Q224 690 212 680T199 643Q199 627 201 602T207 545T213 478T216 409Q216 395 214 382T204 358T184 341T151 334V324Z" />
<glyph unicode="|" glyph-name="bar" horiz-adv-x="476" d="M276 -100H200V800H276V-100Z" />
<glyph unicode="}" glyph-name="braceright" horiz-adv-x="360" d="M209 324Q189 324 176 318T156 301T147 277T144 249Q144 215 146 180T152 114T158 57T161 15Q161 -11 149 -21T107 -32Q93 -32 78 -30T40 -24L30 -92Q45 -96 57 -99T81 -103T106 -105T136 -106Q162
-106 184 -101T222 -84T247 -52T256 -2Q256 10 254 38T248 102T243 177T240 249Q240 275 257 287T314 299V359Q275 359 258 371T240 409Q240 442 242 481T248 556T253 620T256 660Q256 690 247 710T222 742T184 759T136 764Q119 764 106 764T81 762T57 757T30 750L40
682Q63 686 78 688T107 690Q136 690 148 680T161 643Q161 627 159 602T153 545T147 478T144 409Q144 395 146 382T156 358T176 341T209 334V324Z" />
<glyph unicode="~" glyph-name="asciitilde" horiz-adv-x="542" d="M462 290Q421 317 371 317Q344 317 320 308T271 288T222 268T169 259Q145 259 122 266T80 290V370Q120 343 171 343Q198 343 222 352T271 372T320 392T373 401Q397 401 420 394T462 370V290Z" />
<glyph unicode="&#xa1;" glyph-name="exclamdown" horiz-adv-x="333" d="M100 477Q100 442 118 426T166 409Q195 409 214 425T233 477Q233 512 214 528T166 545Q137 545 119 529T100 477ZM213 100L198 312H134L119 100V-220H214L213 100Z" />
<glyph unicode="&#xa2;" glyph-name="cent" horiz-adv-x="528" d="M414 449Q391 532 312 532Q250 532 210 483T170 330Q170 227 211 178T315 128Q360 128 396 147T455 189L498 137Q467 102 418 76T311 50Q258 50 214 67T138 120T88 208T70 330Q70 399 88 451T139
539T215 592T310 610Q378 610 426 580T497 477L414 449ZM344 -121H268V779H344V-121Z" />
<glyph unicode="&#xa3;" glyph-name="sterling" horiz-adv-x="566" d="M86 44Q116 77 127 120T138 212Q138 249 135 286T129 358T123 420T120 466Q120 506 130 543T165 610T230 657T330 675Q407 675 453 636T521 523L437 493Q423 542 395 569T317 597Q272 597
244 567T216 466Q216 452 217 422T221 356T225 282T227 212Q227 171 220 139T199 78H516V0H86V44ZM55 336H395V266H55V336Z" />
<glyph unicode="&#xa4;" glyph-name="currency" horiz-adv-x="578" d="M30 122L129 220Q100 264 100 331Q100 398 129 442L30 540L80 590L178 491Q225 520 289 520Q352 520 399 490L498 590L548 540L448 441Q462 419 470 392T478 331Q478 297 470 270T448 220L548
122L498 72L399 171Q352 142 289 142Q225 142 178 171L80 72L30 122ZM187 331Q187 271 215 242T289 213Q333 213 361 242T389 331Q389 391 361 419T289 448Q243 448 215 420T187 331Z" />
<glyph unicode="&#xa5;" glyph-name="yen" horiz-adv-x="516" d="M258 352L402 660H501L377 406H468V336H343L306 260V231H468V161H306V0H210V161H48V231H210V260L173 336H48V406H139L15 660H114L258 352Z" />
<glyph unicode="&#xa6;" glyph-name="brokenbar" horiz-adv-x="376" d="M226 470H150V800H226V470ZM226 -100H150V230H226V-100Z" />
<glyph unicode="&#xa7;" glyph-name="section" horiz-adv-x="575" d="M291 -157Q346 -157 382 -130T419 -62Q419 -24 394 0T330 42T248 78T165 121T102 182T76 275Q76 306 89 341T136 404Q110 427 94 458T78 534Q78 562 89 594T127 653T197 697T305 715Q388 715
442 680T519 563L435 533Q419 582 382 609T289 637Q238 637 206 612T174 541Q174 503 199 478T263 434T346 398T429 356T492 299T518 213Q518 180 504 144T454 78Q482 55 499 26T516 -46Q516 -76 504 -109T464 -170T391 -216T279 -235Q196 -235 142 -200T65 -83L149
-53Q165 -102 200 -129T291 -157ZM421 197Q421 230 402 252T351 291T282 323T208 356Q172 331 172 282Q172 250 190 228T238 188T304 155T376 124Q397 137 409 155T421 197Z" />
<glyph unicode="&#xa8;" glyph-name="dieresis" horiz-adv-x="296" d="M-4 697Q-4 727 12 741T53 756Q78 756 94 742T111 697Q111 667 95 653T53 638Q29 638 13 652T-4 697ZM185 697Q185 727 201 741T242 756Q267 756 283 742T300 697Q300 667 284 653T242 638Q218
638 202 652T185 697Z" />
<glyph unicode="&#xa9;" glyph-name="copyright" horiz-adv-x="780" d="M464 581Q454 613 435 628T392 644Q347 644 318 606T289 486Q289 405 318 366T394 327Q424 327 450 340T494 371L532 325Q506 299 470 281T392 263Q353 263 320 277T264 319T227 389T213
486Q213 541 226 582T264 652T320 694T390 708Q441 708 477 685T530 605L464 581ZM60 486Q60 568 86 629T157 732T262 795T390 816Q458 816 518 795T623 733T694 630T720 486Q720 404 694 343T623 240T518 177T390 156Q322 156 262 177T157 239T86 342T60 486ZM115
486Q115 418 136 367T195 281T283 229T390 211Q447 211 497 228T584 280T643 366T665 486Q665 554 644 605T585 691T497 743T390 761Q333 761 283 744T196 692T137 606T115 486Z" />
<glyph unicode="&#xaa;" glyph-name="ordfeminine" horiz-adv-x="400" d="M192 657Q146 657 131 606L71 623Q85 673 116 694T191 715Q256 715 284 682T312 577V457Q312 439 315 433T327 426Q333 426 345 431L358 388Q346 382 333 377T305 372Q285 372 271 382T249
420Q234 400 208 386T153 372Q114 372 88 399T61 468Q61 518 95 545T191 572Q205 572 218 571T244 567V604Q244 631 230 644T192 657ZM130 470Q130 449 142 440T171 430Q190 430 210 439T244 466V516Q223 522 197 522Q171 522 151 511T130 470Z" />
<glyph unicode="&#xab;" glyph-name="guillemotleft" horiz-adv-x="505" d="M194 525L248 488L154 323L248 158L194 121L50 309V337L194 525ZM401 525L455 488L361 323L455 158L401 121L257 309V337L401 525Z" />
<glyph unicode="&#xac;" glyph-name="logicalnot" horiz-adv-x="542" d="M80 370H462V139H390V290H80V370Z" />
<glyph unicode="&#xae;" glyph-name="registered" horiz-adv-x="780" d="M60 486Q60 568 86 629T157 732T262 795T390 816Q458 816 518 795T623 733T694 630T720 486Q720 404 694 343T623 240T518 177T390 156Q322 156 262 177T157 239T86 342T60 486ZM115 486Q115
418 136 367T195 281T283 229T390 211Q447 211 497 228T584 280T643 366T665 486Q665 554 644 605T585 691T497 743T390 761Q333 761 283 744T196 692T137 606T115 486ZM416 418Q406 440 387 440H334V272H260V699H387Q424 699 452 689T498 661T526 619T536 567Q536
529 521 502T471 457Q477 452 480 447T486 436L564 272H484L416 418ZM334 636V502H387Q410 502 425 508T448 523T460 545T464 569Q464 581 461 593T449 614T425 630T387 636H334Z" />
<glyph unicode="&#xaf;" glyph-name="overscore" horiz-adv-x="555" d="M133 734H422V659H133V734Z" />
<glyph unicode="&#xb0;" glyph-name="degree" horiz-adv-x="398" d="M50 566Q50 603 61 631T93 677T140 705T199 715Q230 715 257 706T305 678T336 631T348 566Q348 529 337 501T305 455T258 427T199 417Q167 417 140 426T93 454T62 501T50 566ZM125 566Q125 522
145 501T199 480Q231 480 251 501T272 566Q272 610 252 631T199 652Q166 652 146 631T125 566Z" />
<glyph unicode="&#xb1;" glyph-name="plusminus" horiz-adv-x="542" d="M80 370H231V521H311V370H462V290H311V139H231V290H80V370ZM80 71H462V-9H80V71Z" />
<glyph unicode="&#xb2;" glyph-name="twosuperior" horiz-adv-x="402" d="M68 621Q82 669 113 696T193 723Q231 723 257 713T299 688T322 652T329 613Q329 571 308 539T257 479T198 427T150 374H332V311H67V343Q67 373 81 398T116 445T161 487T206 526T241 566T255
608Q255 631 239 646T199 661Q176 661 160 648T136 603L68 621Z" />
<glyph unicode="&#xb3;" glyph-name="threesuperior" horiz-adv-x="392" d="M59 622Q74 669 106 696T182 723Q221 723 246 713T287 688T308 652T314 613Q314 587 299 564T260 524Q294 507 310 479T326 421Q326 400 318 379T291 340T246 313T183 302Q162 302 142
307T103 323T72 352T51 395L116 417Q123 391 142 379T182 366Q214 366 232 379T250 418Q250 444 232 463T169 483H124V537H139Q170 537 190 544T221 563T236 586T241 610Q241 632 226 646T186 661Q166 661 151 648T127 603L59 622Z" />
<glyph unicode="&#xb4;" glyph-name="acute" horiz-adv-x="419" d="M308 790L349 717L134 607L102 665L308 790Z" />
<glyph unicode="&#xb5;" glyph-name="mu" horiz-adv-x="617" d="M90 530H186V170Q186 116 205 90T269 63Q313 63 349 79T415 122V530H511V85Q511 69 518 64T537 58Q545 58 554 60T571 67L587 5Q571 -3 552 -9T510 -15Q475 -15 451 1T421 61Q391 31 350 8T261 -15Q229
-15 209 -5T176 22V-220H90V530Z" />
<glyph unicode="&#xb6;" glyph-name="paragraph" horiz-adv-x="531" d="M431 75Q431 38 422 4T393 -59T339 -107T256 -132L246 -55Q286 -51 310 -21T335 75V261H279Q219 261 174 277T100 322T55 392T40 480Q40 527 55 567T99 637T174 683T279 700H431V75ZM279
331H335V630H279V331Z" />
<glyph unicode="&#xb7;" glyph-name="middot" horiz-adv-x="333" d="M100 301Q100 336 118 352T166 369Q195 369 214 353T233 301Q233 266 214 250T166 233Q137 233 119 249T100 301Z" />
<glyph unicode="&#xb8;" glyph-name="cedilla" horiz-adv-x="528" d="M173 -116Q188 -127 206 -133T243 -139Q266 -139 282 -127T299 -85Q299 -65 286 -43T243 -6L259 27Q321 7 351 -27T381 -101Q381 -122 373 -142T350 -177T312 -201T260 -210Q224 -210 195 -197T145
-169L173 -116Z" />
<glyph unicode="&#xb9;" glyph-name="onesuperior" horiz-adv-x="349" d="M223 715V311H149V601Q122 582 84 569L61 634Q77 638 93 646T124 666T148 689T162 715H223Z" />
<glyph unicode="&#xba;" glyph-name="ordmasculine" horiz-adv-x="428" d="M65 543Q65 586 76 618T108 671T155 704T214 715Q245 715 272 704T320 672T351 618T363 543Q363 501 352 469T320 416T273 383T214 372Q150 372 108 415T65 543ZM135 543Q135 486 157
458T214 430Q248 430 270 458T292 543Q292 601 270 629T214 657Q179 657 157 629T135 543Z" />
<glyph unicode="&#xbb;" glyph-name="guillemotright" horiz-adv-x="505" d="M311 525L257 488L351 323L257 158L311 121L455 309V337L311 525ZM104 525L50 488L144 323L50 158L104 121L248 309V337L104 525Z" />
<glyph unicode="&#xbc;" glyph-name="onequarter" horiz-adv-x="877" d="M325 -15H246L488 675H569L325 -15ZM232 660V256H158V546Q131 527 93 514L70 579Q86 583 102 591T133 611T157 634T171 660H232ZM667 404H759V145H807V83H759V0H685V83H503V119L667 404ZM685
145V310Q661 268 638 229T590 145H685Z" />
<glyph unicode="&#xbd;" glyph-name="onehalf" horiz-adv-x="877" d="M325 -15H246L488 675H569L325 -15ZM232 660V256H158V546Q131 527 93 514L70 579Q86 583 102 591T133 611T157 634T171 660H232ZM551 310Q565 358 596 385T676 412Q714 412 740 402T782 377T805
341T812 302Q812 260 791 228T740 168T681 116T633 63H815V0H550V32Q550 62 564 87T599 134T644 176T689 215T724 255T738 297Q738 320 722 335T682 350Q659 350 643 337T619 292L551 310Z" />
<glyph unicode="&#xbe;" glyph-name="threequarters" horiz-adv-x="877" d="M366 -15H287L529 675H610L366 -15ZM68 567Q83 614 115 641T191 668Q230 668 255 658T296 633T317 597T323 558Q323 532 308 509T269 469Q303 452 319 424T335 366Q335 345 327 324T300
285T255 258T192 247Q171 247 151 252T112 268T81 297T60 340L125 362Q132 336 151 324T191 311Q223 311 241 324T259 363Q259 389 241 408T178 428H133V482H148Q179 482 199 489T230 508T245 531T250 555Q250 577 235 591T195 606Q175 606 160 593T136 548L68
567ZM667 404H759V145H807V83H759V0H685V83H503V119L667 404ZM685 145V310Q661 268 638 229T590 145H685Z" />
<glyph unicode="&#xbf;" glyph-name="questiondown" horiz-adv-x="490" d="M333 477Q333 442 315 426T267 409Q238 409 219 425T200 477Q200 512 219 528T267 545Q296 545 314 529T333 477ZM60 -61Q60 -19 73 15T105 80T147 138T189 193T222 250T235 312H299Q300
306 300 300T300 288Q300 224 278 180T228 99T178 27T155 -53Q155 -75 162 -94T183 -127T214 -150T253 -158Q300 -158 326 -131T363 -43L450 -64Q443 -100 427 -131T385 -186T327 -222T252 -235Q198 -235 161 -220T102 -179T70 -123T60 -61Z" />
<glyph unicode="&#xc0;" glyph-name="Agrave" horiz-adv-x="582" d="M567 0H473L418 191H163L109 0H15L215 700H367L567 0ZM186 269H396L291 637L186 269ZM414 815L382 757L167 867L208 940L414 815Z" />
<glyph unicode="&#xc1;" glyph-name="Aacute" horiz-adv-x="582" d="M567 0H473L418 191H163L109 0H15L215 700H367L567 0ZM186 269H396L291 637L186 269ZM374 940L415 867L200 757L168 815L374 940Z" />
<glyph unicode="&#xc2;" glyph-name="Acircumflex" horiz-adv-x="582" d="M567 0H473L418 191H163L109 0H15L215 700H367L567 0ZM186 269H396L291 637L186 269ZM455 808L418 757L291 846L164 757L127 808L278 940H304L455 808Z" />
<glyph unicode="&#xc3;" glyph-name="Atilde" horiz-adv-x="582" d="M567 0H473L418 191H163L109 0H15L215 700H367L567 0ZM186 269H396L291 637L186 269ZM463 871Q444 827 415 808T358 789Q338 789 322 794T289 806T257 817T222 823Q208 823 196 817T175 794L118
822Q137 866 166 885T222 904Q242 904 258 899T291 887T323 876T358 870Q372 870 384 876T406 899L463 871Z" />
<glyph unicode="&#xc4;" glyph-name="Adieresis" horiz-adv-x="582" d="M567 0H473L418 191H163L109 0H15L215 700H367L567 0ZM186 269H396L291 637L186 269ZM139 847Q139 877 155 891T196 906Q221 906 237 892T254 847Q254 817 238 803T196 788Q172 788 156 802T139
847ZM328 847Q328 877 344 891T385 906Q410 906 426 892T443 847Q443 817 427 803T385 788Q361 788 345 802T328 847Z" />
<glyph unicode="&#xc5;" glyph-name="Aring" horiz-adv-x="582" d="M567 0H473L418 191H163L109 0H15L215 700H367L567 0ZM186 269H396L291 637L186 269ZM181 847Q181 905 212 932T291 960Q339 960 370 933T402 847Q402 789 371 762T291 734Q243 734 212 761T181
847ZM239 847Q239 819 253 806T291 793Q314 793 329 806T344 847Q344 875 329 888T291 901Q268 901 254 888T239 847Z" />
<glyph unicode="&#xc6;" glyph-name="AE" horiz-adv-x="860" d="M795 622H501V359H765V281H501V78H795V0H405V281H236L104 0H5L335 700H795V622ZM273 359H405V622H397L273 359Z" />
<glyph unicode="&#xc7;" glyph-name="Ccedilla" horiz-adv-x="600" d="M495 532Q479 585 444 611T362 637Q320 637 285 620T225 567T185 478T170 351Q170 278 184 224T225 134T287 81T365 63Q419 63 463 84T535 134L581 75Q543 38 487 12T361 -15Q298 -15 245
8T152 78T92 192T70 351Q70 441 92 509T153 623T244 692T359 715Q441 715 497 681T580 563L495 532ZM217 -116Q232 -127 250 -133T287 -139Q310 -139 326 -127T343 -85Q343 -65 330 -43T287 -6L303 27Q365 7 395 -27T425 -101Q425 -122 417 -142T394 -177T356 -201T304
-210Q268 -210 239 -197T189 -169L217 -116Z" />
<glyph unicode="&#xc8;" glyph-name="Egrave" horiz-adv-x="555" d="M490 622H196V389H460V311H196V78H490V0H100V700H490V622ZM401 815L369 757L154 867L195 940L401 815Z" />
<glyph unicode="&#xc9;" glyph-name="Eacute" horiz-adv-x="555" d="M490 622H196V389H460V311H196V78H490V0H100V700H490V622ZM360 940L401 867L186 757L154 815L360 940Z" />
<glyph unicode="&#xca;" glyph-name="Ecircumflex" horiz-adv-x="555" d="M490 622H196V389H460V311H196V78H490V0H100V700H490V622ZM441 808L404 757L277 846L150 757L113 808L264 940H290L441 808Z" />
<glyph unicode="&#xcb;" glyph-name="Edieresis" horiz-adv-x="555" d="M490 622H196V389H460V311H196V78H490V0H100V700H490V622ZM125 847Q125 877 141 891T182 906Q207 906 223 892T240 847Q240 817 224 803T182 788Q158 788 142 802T125 847ZM314 847Q314 877
330 891T371 906Q396 906 412 892T429 847Q429 817 413 803T371 788Q347 788 331 802T314 847Z" />
<glyph unicode="&#xcc;" glyph-name="Igrave" horiz-adv-x="296" d="M196 0H100V700H196V0ZM273 815L241 757L26 867L67 940L273 815Z" />
<glyph unicode="&#xcd;" glyph-name="Iacute" horiz-adv-x="296" d="M196 0H100V700H196V0ZM232 940L273 867L58 757L26 815L232 940Z" />
<glyph unicode="&#xce;" glyph-name="Icircumflex" horiz-adv-x="296" d="M196 0H100V700H196V0ZM313 808L276 757L149 846L22 757L-15 808L136 940H162L313 808Z" />
<glyph unicode="&#xcf;" glyph-name="Idieresis" horiz-adv-x="296" d="M196 0H100V700H196V0ZM-4 847Q-4 877 12 891T53 906Q78 906 94 892T111 847Q111 817 95 803T53 788Q29 788 13 802T-4 847ZM185 847Q185 877 201 891T242 906Q267 906 283 892T300 847Q300
817 284 803T242 788Q218 788 202 802T185 847Z" />
<glyph unicode="&#xd0;" glyph-name="Eth" horiz-adv-x="684" d="M196 622V78H319Q361 78 397 94T459 145T499 230T514 351Q514 420 500 471T460 555T399 605T322 622H196ZM325 700Q386 700 439 678T531 612T592 503T614 351Q614 264 593 199T532 89T440 23T323
0H100V700H325ZM283 387H623V317H283V387Z" />
<glyph unicode="&#xd1;" glyph-name="Ntilde" horiz-adv-x="696" d="M596 0H460L196 577V0H100V700H236L500 122V700H596V0ZM520 871Q501 827 472 808T415 789Q395 789 379 794T346 806T314 817T279 823Q265 823 253 817T232 794L175 822Q194 866 223 885T279
904Q299 904 315 899T348 887T380 876T415 870Q429 870 441 876T463 899L520 871Z" />
<glyph unicode="&#xd2;" glyph-name="Ograve" horiz-adv-x="724" d="M70 351Q70 441 92 509T153 623T245 692T361 715Q423 715 476 692T569 623T631 509T654 351Q654 260 632 192T570 77T477 8T361 -15Q299 -15 246 8T153 77T92 191T70 351ZM170 351Q170 277 184
223T223 134T284 81T361 63Q404 63 439 80T500 133T540 223T554 351Q554 424 540 477T501 566T440 619T361 637Q319 637 284 620T224 567T184 478T170 351ZM485 815L453 757L238 867L279 940L485 815Z" />
<glyph unicode="&#xd3;" glyph-name="Oacute" horiz-adv-x="724" d="M70 351Q70 441 92 509T153 623T245 692T361 715Q423 715 476 692T569 623T631 509T654 351Q654 260 632 192T570 77T477 8T361 -15Q299 -15 246 8T153 77T92 191T70 351ZM170 351Q170 277 184
223T223 134T284 81T361 63Q404 63 439 80T500 133T540 223T554 351Q554 424 540 477T501 566T440 619T361 637Q319 637 284 620T224 567T184 478T170 351ZM444 940L485 867L270 757L238 815L444 940Z" />
<glyph unicode="&#xd4;" glyph-name="Ocircumflex" horiz-adv-x="724" d="M70 351Q70 441 92 509T153 623T245 692T361 715Q423 715 476 692T569 623T631 509T654 351Q654 260 632 192T570 77T477 8T361 -15Q299 -15 246 8T153 77T92 191T70 351ZM170 351Q170
277 184 223T223 134T284 81T361 63Q404 63 439 80T500 133T540 223T554 351Q554 424 540 477T501 566T440 619T361 637Q319 637 284 620T224 567T184 478T170 351ZM526 808L489 757L362 846L235 757L198 808L349 940H375L526 808Z" />
<glyph unicode="&#xd5;" glyph-name="Otilde" horiz-adv-x="724" d="M70 351Q70 441 92 509T153 623T245 692T361 715Q423 715 476 692T569 623T631 509T654 351Q654 260 632 192T570 77T477 8T361 -15Q299 -15 246 8T153 77T92 191T70 351ZM170 351Q170 277 184
223T223 134T284 81T361 63Q404 63 439 80T500 133T540 223T554 351Q554 424 540 477T501 566T440 619T361 637Q319 637 284 620T224 567T184 478T170 351ZM534 871Q515 827 486 808T429 789Q409 789 393 794T360 806T328 817T293 823Q279 823 267 817T246 794L189
822Q208 866 237 885T293 904Q313 904 329 899T362 887T394 876T429 870Q443 870 455 876T477 899L534 871Z" />
<glyph unicode="&#xd6;" glyph-name="Odieresis" horiz-adv-x="724" d="M70 351Q70 441 92 509T153 623T245 692T361 715Q423 715 476 692T569 623T631 509T654 351Q654 260 632 192T570 77T477 8T361 -15Q299 -15 246 8T153 77T92 191T70 351ZM170 351Q170 277
184 223T223 134T284 81T361 63Q404 63 439 80T500 133T540 223T554 351Q554 424 540 477T501 566T440 619T361 637Q319 637 284 620T224 567T184 478T170 351ZM210 847Q210 877 226 891T267 906Q292 906 308 892T325 847Q325 817 309 803T267 788Q243 788 227
802T210 847ZM399 847Q399 877 415 891T456 906Q481 906 497 892T514 847Q514 817 498 803T456 788Q432 788 416 802T399 847Z" />
<glyph unicode="&#xd7;" glyph-name="multiply" horiz-adv-x="542" d="M86 202L214 330L86 458L143 515L271 387L399 515L456 458L328 330L456 202L399 145L271 273L143 145L86 202Z" />
<glyph unicode="&#xd8;" glyph-name="Oslash" horiz-adv-x="724" d="M70 351Q70 441 92 509T153 623T245 692T361 715Q423 715 476 692T569 623T631 509T654 351Q654 260 632 192T570 77T477 8T361 -15Q299 -15 246 8T153 77T92 191T70 351ZM170 351Q170 277 184
223T223 134T284 81T361 63Q404 63 439 80T500 133T540 223T554 351Q554 424 540 477T501 566T440 619T361 637Q319 637 284 620T224 567T184 478T170 351ZM266 -55H201L457 755H523L266 -55Z" />
<glyph unicode="&#xd9;" glyph-name="Ugrave" horiz-adv-x="671" d="M581 236Q581 171 562 124T510 46T432 0T335 -15Q282 -15 238 0T160 46T109 124T90 236V700H186V236Q186 188 197 155T227 100T274 70T335 60Q369 60 396 69T443 100T474 154T485 236V700H581V236ZM459
815L427 757L212 867L253 940L459 815Z" />
<glyph unicode="&#xda;" glyph-name="Uacute" horiz-adv-x="671" d="M581 236Q581 171 562 124T510 46T432 0T335 -15Q282 -15 238 0T160 46T109 124T90 236V700H186V236Q186 188 197 155T227 100T274 70T335 60Q369 60 396 69T443 100T474 154T485 236V700H581V236ZM438
940L479 867L264 757L232 815L438 940Z" />
<glyph unicode="&#xdb;" glyph-name="Ucircumflex" horiz-adv-x="671" d="M581 236Q581 171 562 124T510 46T432 0T335 -15Q282 -15 238 0T160 46T109 124T90 236V700H186V236Q186 188 197 155T227 100T274 70T335 60Q369 60 396 69T443 100T474 154T485 236V700H581V236ZM499
808L462 757L335 846L208 757L171 808L322 940H348L499 808Z" />
<glyph unicode="&#xdc;" glyph-name="Udieresis" horiz-adv-x="671" d="M581 236Q581 171 562 124T510 46T432 0T335 -15Q282 -15 238 0T160 46T109 124T90 236V700H186V236Q186 188 197 155T227 100T274 70T335 60Q369 60 396 69T443 100T474 154T485 236V700H581V236ZM183
847Q183 877 199 891T240 906Q265 906 281 892T298 847Q298 817 282 803T240 788Q216 788 200 802T183 847ZM372 847Q372 877 388 891T429 906Q454 906 470 892T487 847Q487 817 471 803T429 788Q405 788 389 802T372 847Z" />
<glyph unicode="&#xdd;" glyph-name="Yacute" horiz-adv-x="516" d="M258 361L402 700H501L306 260V0H210V260L15 700H114L258 361ZM360 940L401 867L186 757L154 815L360 940Z" />
<glyph unicode="&#xde;" glyph-name="Thorn" horiz-adv-x="571" d="M196 570H302Q362 570 407 553T481 507T526 437T541 349Q541 301 526 261T482 192T407 146T302 130H196V0H100V700H196V570ZM196 492V208H302Q345 208 373 220T417 253T441 298T448 349Q448 374
441 400T418 446T373 479T302 492H196Z" />
<glyph unicode="&#xdf;" glyph-name="germandbls" horiz-adv-x="664" d="M55 530H131V541Q131 588 142 629T177 700T238 747T329 765Q390 765 430 750T495 709T529 653T539 591Q539 558 529 534T502 490T468 457T433 430T407 407T396 385Q396 373 413 367T457
352T515 333T572 301T616 247T634 163Q634 133 622 101T586 44T525 2T439 -15Q366 -15 320 15T257 118L339 146Q347 111 368 87T437 63Q477 63 505 88T534 155Q534 193 517 215T475 250T420 272T365 293T323 324T306 378Q306 405 316 423T341 456T375 484T408 511T434
543T444 587Q444 630 414 658T336 687Q314 687 295 682T260 662T236 622T227 559V0H131V460H55V530Z" />
<glyph unicode="&#xe0;" glyph-name="agrave" horiz-adv-x="567" d="M268 467Q184 467 159 384L76 412Q116 545 268 545Q373 545 419 493T466 321V85Q466 69 473 64T492 58Q500 58 509 60T526 67L542 5Q526 -3 507 -9T465 -15Q429 -15 405 2T375 70Q360 54 341
39T300 11T252 -8T198 -15Q168 -15 142 -4T96 28T66 75T55 135Q55 217 110 263T264 309Q291 309 318 305T370 293V356Q370 408 343 437T268 467ZM227 63Q265 63 301 81T370 132V229Q349 236 325 240T278 244Q253 244 230 239T190 222T162 191T151 143Q151 110 172
87T227 63ZM406 665L374 607L159 717L200 790L406 665Z" />
<glyph unicode="&#xe1;" glyph-name="aacute" horiz-adv-x="567" d="M268 467Q184 467 159 384L76 412Q116 545 268 545Q373 545 419 493T466 321V85Q466 69 473 64T492 58Q500 58 509 60T526 67L542 5Q526 -3 507 -9T465 -15Q429 -15 405 2T375 70Q360 54 341
39T300 11T252 -8T198 -15Q168 -15 142 -4T96 28T66 75T55 135Q55 217 110 263T264 309Q291 309 318 305T370 293V356Q370 408 343 437T268 467ZM227 63Q265 63 301 81T370 132V229Q349 236 325 240T278 244Q253 244 230 239T190 222T162 191T151 143Q151 110 172
87T227 63ZM382 790L423 717L208 607L176 665L382 790Z" />
<glyph unicode="&#xe2;" glyph-name="acircumflex" horiz-adv-x="567" d="M268 467Q184 467 159 384L76 412Q116 545 268 545Q373 545 419 493T466 321V85Q466 69 473 64T492 58Q500 58 509 60T526 67L542 5Q526 -3 507 -9T465 -15Q429 -15 405 2T375 70Q360 54
341 39T300 11T252 -8T198 -15Q168 -15 142 -4T96 28T66 75T55 135Q55 217 110 263T264 309Q291 309 318 305T370 293V356Q370 408 343 437T268 467ZM227 63Q265 63 301 81T370 132V229Q349 236 325 240T278 244Q253 244 230 239T190 222T162 191T151 143Q151 110
172 87T227 63ZM447 658L410 607L283 696L156 607L119 658L270 790H296L447 658Z" />
<glyph unicode="&#xe3;" glyph-name="atilde" horiz-adv-x="567" d="M268 467Q184 467 159 384L76 412Q116 545 268 545Q373 545 419 493T466 321V85Q466 69 473 64T492 58Q500 58 509 60T526 67L542 5Q526 -3 507 -9T465 -15Q429 -15 405 2T375 70Q360 54 341
39T300 11T252 -8T198 -15Q168 -15 142 -4T96 28T66 75T55 135Q55 217 110 263T264 309Q291 309 318 305T370 293V356Q370 408 343 437T268 467ZM227 63Q265 63 301 81T370 132V229Q349 236 325 240T278 244Q253 244 230 239T190 222T162 191T151 143Q151 110 172
87T227 63ZM456 721Q437 677 408 658T351 639Q331 639 315 644T282 656T250 667T215 673Q201 673 189 667T168 644L111 672Q130 716 159 735T215 754Q235 754 251 749T284 737T316 726T351 720Q365 720 377 726T399 749L456 721Z" />
<glyph unicode="&#xe4;" glyph-name="adieresis" horiz-adv-x="567" d="M268 467Q184 467 159 384L76 412Q116 545 268 545Q373 545 419 493T466 321V85Q466 69 473 64T492 58Q500 58 509 60T526 67L542 5Q526 -3 507 -9T465 -15Q429 -15 405 2T375 70Q360 54
341 39T300 11T252 -8T198 -15Q168 -15 142 -4T96 28T66 75T55 135Q55 217 110 263T264 309Q291 309 318 305T370 293V356Q370 408 343 437T268 467ZM227 63Q265 63 301 81T370 132V229Q349 236 325 240T278 244Q253 244 230 239T190 222T162 191T151 143Q151 110
172 87T227 63ZM131 697Q131 727 147 741T188 756Q213 756 229 742T246 697Q246 667 230 653T188 638Q164 638 148 652T131 697ZM320 697Q320 727 336 741T377 756Q402 756 418 742T435 697Q435 667 419 653T377 638Q353 638 337 652T320 697Z" />
<glyph unicode="&#xe5;" glyph-name="aring" horiz-adv-x="567" d="M268 467Q184 467 159 384L76 412Q116 545 268 545Q373 545 419 493T466 321V85Q466 69 473 64T492 58Q500 58 509 60T526 67L542 5Q526 -3 507 -9T465 -15Q429 -15 405 2T375 70Q360 54 341
39T300 11T252 -8T198 -15Q168 -15 142 -4T96 28T66 75T55 135Q55 217 110 263T264 309Q291 309 318 305T370 293V356Q370 408 343 437T268 467ZM227 63Q265 63 301 81T370 132V229Q349 236 325 240T278 244Q253 244 230 239T190 222T162 191T151 143Q151 110 172
87T227 63ZM173 697Q173 755 204 782T283 810Q331 810 362 783T394 697Q394 639 363 612T283 584Q235 584 204 611T173 697ZM231 697Q231 669 245 656T283 643Q306 643 321 656T336 697Q336 725 321 738T283 751Q260 751 246 738T231 697Z" />
<glyph unicode="&#xe6;" glyph-name="ae" horiz-adv-x="891" d="M618 63Q669 63 706 82T767 124L810 72Q779 37 729 11T615 -15Q552 -15 502 9T418 82Q381 40 325 13T208 -15Q177 -15 150 -7T101 19T68 65T55 135Q55 217 107 262T258 307H370V356Q370 411 342
439T268 467Q184 467 159 384L76 412Q98 484 147 514T268 545Q330 545 370 527T434 469Q466 507 510 526T608 545Q655 545 694 531T762 486T805 412T821 307V237H467Q473 148 515 106T618 63ZM726 307Q726 384 696 425T609 467Q555 467 516 428T468 307H726ZM227
63Q269 63 311 85T387 145Q374 184 371 237H278Q253 237 230 233T190 219T162 190T151 143Q151 110 172 87T227 63Z" />
<glyph unicode="&#xe7;" glyph-name="ccedilla" horiz-adv-x="528" d="M414 384Q391 467 312 467Q250 467 210 418T170 265Q170 162 211 113T315 63Q360 63 396 82T455 124L498 72Q467 37 418 11T311 -15Q258 -15 214 2T138 55T88 143T70 265Q70 334 88 386T139
474T215 527T310 545Q378 545 426 515T497 412L414 384ZM174 -116Q189 -127 207 -133T244 -139Q267 -139 283 -127T300 -85Q300 -65 287 -43T244 -6L260 27Q322 7 352 -27T382 -101Q382 -122 374 -142T351 -177T313 -201T261 -210Q225 -210 196 -197T146 -169L174
-116Z" />
<glyph unicode="&#xe8;" glyph-name="egrave" horiz-adv-x="591" d="M318 63Q369 63 406 82T467 124L510 72Q479 37 429 11T315 -15Q262 -15 217 2T140 55T89 143T70 265Q70 334 88 386T138 474T213 527T308 545Q355 545 394 531T462 486T505 412T521 307V237H171Q177
148 217 106T318 63ZM309 467Q255 467 218 428T172 307H426Q426 384 396 425T309 467ZM418 665L386 607L171 717L212 790L418 665Z" />
<glyph unicode="&#xe9;" glyph-name="eacute" horiz-adv-x="591" d="M318 63Q369 63 406 82T467 124L510 72Q479 37 429 11T315 -15Q262 -15 217 2T140 55T89 143T70 265Q70 334 88 386T138 474T213 527T308 545Q355 545 394 531T462 486T505 412T521 307V237H171Q177
148 217 106T318 63ZM309 467Q255 467 218 428T172 307H426Q426 384 396 425T309 467ZM394 790L435 717L220 607L188 665L394 790Z" />
<glyph unicode="&#xea;" glyph-name="ecircumflex" horiz-adv-x="591" d="M318 63Q369 63 406 82T467 124L510 72Q479 37 429 11T315 -15Q262 -15 217 2T140 55T89 143T70 265Q70 334 88 386T138 474T213 527T308 545Q355 545 394 531T462 486T505 412T521 307V237H171Q177
148 217 106T318 63ZM309 467Q255 467 218 428T172 307H426Q426 384 396 425T309 467ZM474 658L437 607L310 696L183 607L146 658L297 790H323L474 658Z" />
<glyph unicode="&#xeb;" glyph-name="edieresis" horiz-adv-x="591" d="M318 63Q369 63 406 82T467 124L510 72Q479 37 429 11T315 -15Q262 -15 217 2T140 55T89 143T70 265Q70 334 88 386T138 474T213 527T308 545Q355 545 394 531T462 486T505 412T521 307V237H171Q177
148 217 106T318 63ZM309 467Q255 467 218 428T172 307H426Q426 384 396 425T309 467ZM157 697Q157 727 173 741T214 756Q239 756 255 742T272 697Q272 667 256 653T214 638Q190 638 174 652T157 697ZM346 697Q346 727 362 741T403 756Q428 756 444 742T461 697Q461
667 445 653T403 638Q379 638 363 652T346 697Z" />
<glyph unicode="&#xec;" glyph-name="igrave" horiz-adv-x="296" d="M196 0H100V530H196V0ZM528 665L496 607L281 717L322 790L528 665Z" />
<glyph unicode="&#xed;" glyph-name="iacute" horiz-adv-x="296" d="M196 0H100V530H196V0ZM504 790L545 717L330 607L298 665L504 790Z" />
<glyph unicode="&#xee;" glyph-name="icircumflex" horiz-adv-x="296" d="M196 0H100V530H196V0ZM569 658L532 607L405 696L278 607L241 658L392 790H418L569 658Z" />
<glyph unicode="&#xef;" glyph-name="idieresis" horiz-adv-x="296" d="M196 0H100V530H196V0ZM-4 697Q-4 727 12 741T53 756Q78 756 94 742T111 697Q111 667 95 653T53 638Q29 638 13 652T-4 697ZM185 697Q185 727 201 741T242 756Q267 756 283 742T300 697Q300
667 284 653T242 638Q218 638 202 652T185 697Z" />
<glyph unicode="&#xf0;" glyph-name="eth" horiz-adv-x="649" d="M168 731Q193 749 224 757T293 765Q349 765 398 736T483 650T539 508T560 311Q560 218 542 156T491 55T414 1T318 -15Q267 -15 223 1T146 49T96 129T77 240Q77 303 95 350T146 430T222 479T318
495Q365 495 401 479T460 435Q460 469 450 512T418 595T362 661T280 688Q240 688 192 669L168 731ZM177 240Q177 199 184 167T207 111T251 76T318 63Q358 63 385 75T428 111T452 166T460 240Q460 280 453 313T429 369T385 404T318 417Q278 417 251 405T208 369T184
313T177 240ZM286 603L568 747L598 689L316 545L286 603Z" />
<glyph unicode="&#xf1;" glyph-name="ntilde" horiz-adv-x="616" d="M181 530L186 466Q217 497 259 521T353 545Q400 545 433 534T486 500T516 438T526 346V0H430V356Q430 467 329 467Q294 467 260 451T196 407V0H100V530H181ZM480 721Q461 677 432 658T375 639Q355
639 339 644T306 656T274 667T239 673Q225 673 213 667T192 644L135 672Q154 716 183 735T239 754Q259 754 275 749T308 737T340 726T375 720Q389 720 401 726T423 749L480 721Z" />
<glyph unicode="&#xf2;" glyph-name="ograve" horiz-adv-x="623" d="M70 265Q70 334 88 386T139 474T215 527T311 545Q362 545 406 528T483 475T534 387T553 265Q553 196 535 144T484 56T407 3T311 -15Q260 -15 216 2T139 55T89 143T70 265ZM170 265Q170 162 209
113T311 63Q374 63 413 112T453 265Q453 368 414 417T311 467Q249 467 210 418T170 265ZM434 665L402 607L187 717L228 790L434 665Z" />
<glyph unicode="&#xf3;" glyph-name="oacute" horiz-adv-x="623" d="M70 265Q70 334 88 386T139 474T215 527T311 545Q362 545 406 528T483 475T534 387T553 265Q553 196 535 144T484 56T407 3T311 -15Q260 -15 216 2T139 55T89 143T70 265ZM170 265Q170 162 209
113T311 63Q374 63 413 112T453 265Q453 368 414 417T311 467Q249 467 210 418T170 265ZM410 790L451 717L236 607L204 665L410 790Z" />
<glyph unicode="&#xf4;" glyph-name="ocircumflex" horiz-adv-x="623" d="M70 265Q70 334 88 386T139 474T215 527T311 545Q362 545 406 528T483 475T534 387T553 265Q553 196 535 144T484 56T407 3T311 -15Q260 -15 216 2T139 55T89 143T70 265ZM170 265Q170
162 209 113T311 63Q374 63 413 112T453 265Q453 368 414 417T311 467Q249 467 210 418T170 265ZM475 658L438 607L311 696L184 607L147 658L298 790H324L475 658Z" />
<glyph unicode="&#xf5;" glyph-name="otilde" horiz-adv-x="623" d="M70 265Q70 334 88 386T139 474T215 527T311 545Q362 545 406 528T483 475T534 387T553 265Q553 196 535 144T484 56T407 3T311 -15Q260 -15 216 2T139 55T89 143T70 265ZM170 265Q170 162 209
113T311 63Q374 63 413 112T453 265Q453 368 414 417T311 467Q249 467 210 418T170 265ZM484 721Q465 677 436 658T379 639Q359 639 343 644T310 656T278 667T243 673Q229 673 217 667T196 644L139 672Q158 716 187 735T243 754Q263 754 279 749T312 737T344 726T379
720Q393 720 405 726T427 749L484 721Z" />
<glyph unicode="&#xf6;" glyph-name="odieresis" horiz-adv-x="623" d="M70 265Q70 334 88 386T139 474T215 527T311 545Q362 545 406 528T483 475T534 387T553 265Q553 196 535 144T484 56T407 3T311 -15Q260 -15 216 2T139 55T89 143T70 265ZM170 265Q170 162
209 113T311 63Q374 63 413 112T453 265Q453 368 414 417T311 467Q249 467 210 418T170 265ZM159 697Q159 727 175 741T216 756Q241 756 257 742T274 697Q274 667 258 653T216 638Q192 638 176 652T159 697ZM348 697Q348 727 364 741T405 756Q430 756 446 742T463
697Q463 667 447 653T405 638Q381 638 365 652T348 697Z" />
<glyph unicode="&#xf7;" glyph-name="divide" horiz-adv-x="542" d="M211 149Q211 180 227 195T270 210Q297 210 314 195T331 149Q331 117 314 102T270 87Q244 87 228 102T211 149ZM80 370H462V290H80V370ZM211 512Q211 543 227 558T270 573Q297 573 314 558T331
512Q331 480 314 465T270 450Q244 450 228 465T211 512Z" />
<glyph unicode="&#xf8;" glyph-name="oslash" horiz-adv-x="623" d="M70 265Q70 334 88 386T139 474T215 527T311 545Q362 545 406 528T483 475T534 387T553 265Q553 196 535 144T484 56T407 3T311 -15Q260 -15 216 2T139 55T89 143T70 265ZM170 265Q170 162 209
113T311 63Q374 63 413 112T453 265Q453 368 414 417T311 467Q249 467 210 418T170 265ZM215 177H150L406 866H472L215 177Z" />
<glyph unicode="&#xf9;" glyph-name="ugrave" horiz-adv-x="617" d="M511 85Q511 69 518 64T537 58Q545 58 554 60T571 67L587 5Q571 -3 552 -9T510 -15Q475 -15 451 1T421 61Q390 31 346 8T241 -15Q162 -15 126 32T90 171V530H186V170Q186 116 205 90T269 63Q313
63 349 79T415 122V530H511V85ZM431 665L399 607L184 717L225 790L431 665Z" />
<glyph unicode="&#xfa;" glyph-name="uacute" horiz-adv-x="617" d="M511 85Q511 69 518 64T537 58Q545 58 554 60T571 67L587 5Q571 -3 552 -9T510 -15Q475 -15 451 1T421 61Q390 31 346 8T241 -15Q162 -15 126 32T90 171V530H186V170Q186 116 205 90T269 63Q313
63 349 79T415 122V530H511V85ZM407 790L448 717L233 607L201 665L407 790Z" />
<glyph unicode="&#xfb;" glyph-name="ucircumflex" horiz-adv-x="617" d="M511 85Q511 69 518 64T537 58Q545 58 554 60T571 67L587 5Q571 -3 552 -9T510 -15Q475 -15 451 1T421 61Q390 31 346 8T241 -15Q162 -15 126 32T90 171V530H186V170Q186 116 205 90T269
63Q313 63 349 79T415 122V530H511V85ZM472 658L435 607L308 696L181 607L144 658L295 790H321L472 658Z" />
<glyph unicode="&#xfc;" glyph-name="udieresis" horiz-adv-x="617" d="M511 85Q511 69 518 64T537 58Q545 58 554 60T571 67L587 5Q571 -3 552 -9T510 -15Q475 -15 451 1T421 61Q390 31 346 8T241 -15Q162 -15 126 32T90 171V530H186V170Q186 116 205 90T269
63Q313 63 349 79T415 122V530H511V85ZM156 697Q156 727 172 741T213 756Q238 756 254 742T271 697Q271 667 255 653T213 638Q189 638 173 652T156 697ZM345 697Q345 727 361 741T402 756Q427 756 443 742T460 697Q460 667 444 653T402 638Q378 638 362 652T345
697Z" />
<glyph unicode="&#xfd;" glyph-name="yacute" horiz-adv-x="528" d="M549 -96Q524 -174 488 -204T398 -235Q354 -235 317 -215T257 -172L304 -112Q320 -128 341 -141T391 -154Q422 -154 441 -136T460 -80Q460 -53 453 -14T432 68L284 530H383L522 70L661 530H750L549
-96ZM362 790L403 717L188 607L156 665L362 790Z" />
<glyph unicode="&#xfe;" glyph-name="thorn" horiz-adv-x="625" d="M352 545Q398 545 435 528T499 475T540 387T555 265Q555 196 537 144T488 56T415 3T325 -15Q288 -15 256 -4T196 26V-221H100V750H196V478Q224 505 262 525T352 545ZM331 467Q291 467 258 451T196
408V105Q219 87 251 75T321 63Q380 63 417 112T455 265Q455 368 421 417T331 467Z" />
<glyph unicode="&#xff;" glyph-name="ydieresis" horiz-adv-x="528" d="M549 -96Q524 -174 488 -204T398 -235Q354 -235 317 -215T257 -172L304 -112Q320 -128 341 -141T391 -154Q422 -154 441 -136T460 -80Q460 -53 453 -14T432 68L284 530H383L522 70L661 530H750L549
-96ZM123 697Q123 727 139 741T180 756Q205 756 221 742T238 697Q238 667 222 653T180 638Q156 638 140 652T123 697ZM312 697Q312 727 328 741T369 756Q394 756 410 742T427 697Q427 667 411 653T369 638Q345 638 329 652T312 697Z" />
<glyph unicode="&#x2013;" glyph-name="endash" horiz-adv-x="696" d="M55 336H641V266H55V336Z" />
<glyph unicode="&#x2014;" glyph-name="emdash" horiz-adv-x="818" d="M55 336H763V266H55V336Z" />
<glyph unicode="&#x2018;" glyph-name="quoteleft" horiz-adv-x="236" d="M151 679Q151 662 156 652T167 632T178 611T183 583Q183 548 165 532T117 515Q88 515 69 531T50 583Q50 609 57 639T78 700T107 757T141 804L186 774Q172 754 162 729T151 679Z" />
<glyph unicode="&#x2019;" glyph-name="quoteright" horiz-adv-x="236" d="M85 635Q85 652 80 662T69 682T58 703T53 731Q53 766 71 782T119 799Q148 799 167 783T186 731Q186 705 179 675T158 614T129 557T95 510L50 540Q64 560 74 585T85 635Z" />
<glyph unicode="&#x201a;" glyph-name="quotesinglbase" horiz-adv-x="233" d="M82 -43Q82 -27 77 -16T66 4T55 25T50 53Q50 88 68 104T116 121Q145 121 164 105T183 53Q183 27 175 -3T155 -64T126 -121T92 -168L47 -138Q61 -118 71 -93T82 -43Z" />
<glyph unicode="&#x201c;" glyph-name="quotedblleft" horiz-adv-x="436" d="M151 679Q151 662 156 652T167 632T178 611T183 583Q183 548 165 532T117 515Q88 515 69 531T50 583Q50 609 57 639T78 700T107 757T141 804L186 774Q172 754 162 729T151 679ZM351
679Q351 662 356 652T367 632T378 611T383 583Q383 548 365 532T317 515Q288 515 269 531T250 583Q250 609 257 639T278 700T307 757T341 804L386 774Q372 754 362 729T351 679Z" />
<glyph unicode="&#x201d;" glyph-name="quotedblright" horiz-adv-x="436" d="M285 635Q285 652 280 662T269 682T258 703T253 731Q253 766 271 782T319 799Q348 799 367 783T386 731Q386 705 379 675T358 614T329 557T295 510L250 540Q264 560 274 585T285 635ZM85
635Q85 652 80 662T69 682T58 703T53 731Q53 766 71 782T119 799Q148 799 167 783T186 731Q186 705 179 675T158 614T129 557T95 510L50 540Q64 560 74 585T85 635Z" />
<glyph unicode="&#x201e;" glyph-name="quotedblbase" horiz-adv-x="433" d="M282 -43Q282 -26 277 -16T266 4T255 25T250 53Q250 88 268 104T316 121Q345 121 364 105T383 53Q383 27 376 -3T355 -64T326 -121T292 -168L247 -138Q261 -118 271 -93T282 -43ZM82
-43Q82 -26 77 -16T66 4T55 25T50 53Q50 88 68 104T116 121Q145 121 164 105T183 53Q183 27 176 -3T155 -64T126 -121T92 -168L47 -138Q61 -118 71 -93T82 -43Z" />
<glyph unicode="&#x2022;" glyph-name="bullet" horiz-adv-x="387" d="M100 301Q100 351 126 373T193 396Q234 396 260 374T287 301Q287 251 261 229T193 206Q153 206 127 228T100 301Z" />
<glyph unicode="&#x2039;" glyph-name="guilsinglleft" horiz-adv-x="298" d="M194 525L248 488L154 323L248 158L194 121L50 309V337L194 525Z" />
<glyph unicode="&#x203a;" glyph-name="guilsinglright" horiz-adv-x="298" d="M104 525L50 488L144 323L50 158L104 121L248 309V337L104 525Z" />
</font>
</defs>
</svg>
