<?xml version="1.0" standalone="no"?>
<!DOCTYPE svg PUBLIC "-//W3C//DTD SVG 1.1//EN" "http://www.w3.org/Graphics/SVG/1.1/DTD/svg11.dtd">
<svg xmlns="http://www.w3.org/2000/svg">
<defs >
<font id="Sarpanch" horiz-adv-x="664" ><font-face
    font-family="Sarpanch SemiBold"
    units-per-em="1000"
    panose-1="0 0 7 0 0 0 0 0 0 0"
    ascent="1050"
    descent="-350"
    alphabetic="0" />
<glyph unicode=" " glyph-name="space" horiz-adv-x="274" />
<glyph unicode="!" glyph-name="exclam" horiz-adv-x="311" d="M80 622H232L209 203H103L80 622ZM84 0V125H227V0H84Z" />
<glyph unicode="&quot;" glyph-name="quotedbl" horiz-adv-x="410" d="M57 622H174V390H57V622ZM236 622H353V390H236V622Z" />
<glyph unicode="#" glyph-name="numbersign" horiz-adv-x="949" d="M572 231L625 391H390L338 231H572ZM895 391H738L685 231H844V156H660L609 0H496L547 156H313L262 0H148L199 156H54V231H224L277 391H105V466H302L353 622H466L415 466H650L701 622H814L763
466H895V391Z" />
<glyph unicode="$" glyph-name="dollar" horiz-adv-x="660" d="M231 343H511Q590 343 590 264V79Q590 0 511 0H391V-91H262V0H149Q70 0 70 79V183H203V90Q203 70 208 65T234 59H427Q446 59 452 64T458 90V253Q458 272 452 278T427 284H147Q68 284 68 363V543Q68
622 147 622H262V714H391V622H508Q587 622 587 543V439H454V532Q454 552 448 557T423 563H231Q212 563 206 558T200 532V374Q200 354 206 349T231 343Z" />
<glyph unicode="%" glyph-name="percent" horiz-adv-x="1128" d="M1076 280V64Q1076 1 1016 1H757Q696 1 696 64V280Q696 343 757 343H1016Q1076 343 1076 280ZM975 77V267Q975 283 971 287T950 292H823Q807 292 803 288T799 267V77Q799 60 803 56T823 51H950Q966
51 970 55T975 77ZM742 622H851L382 0H275L742 622ZM432 558V342Q432 279 371 279H112Q52 279 52 342V558Q52 621 112 621H371Q432 621 432 558ZM330 355V545Q330 562 326 566T305 571H179Q163 571 159 567T154 545V355Q154 339 158 334T179 329H305Q321 329 325
334T330 355Z" />
<glyph unicode="&amp;" glyph-name="ampersand" horiz-adv-x="852" d="M230 59H544L323 243L239 212Q216 203 208 191T199 156V90Q199 70 204 65T230 59ZM275 532V453Q275 431 286 412T309 383T361 339L445 370Q480 382 494 397T508 440V532Q508 552 502 557T477
563H306Q286 563 281 558T275 532ZM149 0Q70 0 70 79V163Q70 204 88 225T156 264L254 300Q188 353 168 379T147 443V543Q147 622 226 622H557Q636 622 636 543V450Q636 398 613 370T536 321L430 282L688 66Q692 73 692 90V231H797V86Q797 29 757 9L821 -45H669L615
0H149Z" />
<glyph unicode="&apos;" glyph-name="quotesingle" horiz-adv-x="235" d="M57 622H178V390H57V622Z" />
<glyph unicode="(" glyph-name="parenleft" horiz-adv-x="352" d="M86 137V361Q86 544 160 631T369 718H405V659H380Q219 652 219 379V119Q219 -153 380 -160H405V-219H369Q86 -219 86 137Z" />
<glyph unicode=")" glyph-name="parenright" horiz-adv-x="352" d="M266 361V137Q266 -219 -16 -219H-53V-160H-28Q133 -153 133 119V379Q133 652 -28 659H-53V718H-16Q118 718 192 631T266 361Z" />
<glyph unicode="*" glyph-name="asterisk" horiz-adv-x="501" d="M202 655H303V591Q303 553 291 517Q322 538 356 550L416 570L448 473L387 453Q351 442 315 442Q345 418 365 390L402 339L320 279L282 331Q262 361 249 397Q236 362 215 333L178 282L96 342L133
392Q152 419 186 445Q150 445 115 457L54 476L86 573L146 554Q182 541 212 520Q202 553 202 591V655Z" />
<glyph unicode="+" glyph-name="plus" horiz-adv-x="674" d="M617 355V266H400V113H274V266H57V355H274V508H400V355H617Z" />
<glyph unicode="," glyph-name="comma" horiz-adv-x="251" d="M59 -138V132H201V60L106 -138H59Z" />
<glyph unicode="-" glyph-name="hyphen" horiz-adv-x="414" d="M59 242V301H355V242H59Z" />
<glyph unicode="." glyph-name="period" horiz-adv-x="260" d="M59 0V125H201V0H59Z" />
<glyph unicode="/" glyph-name="slash" horiz-adv-x="430" d="M393 699H513L96 -136H-24L393 699Z" />
<glyph unicode="0" glyph-name="zero" horiz-adv-x="691" d="M611 543V79Q611 0 532 0H159Q80 0 80 79V543Q80 622 159 622H532Q611 622 611 543ZM477 90V532Q477 552 472 557T446 563H246Q226 563 221 558T215 532V90Q215 70 220 65T246 59H446Q466 59 471 64T477 90Z" />
<glyph unicode="1" glyph-name="one" horiz-adv-x="368" d="M288 622V0H151V563H24V622H288Z" />
<glyph unicode="2" glyph-name="two" horiz-adv-x="637" d="M190 532V410H55V543Q55 622 134 622H503Q582 622 582 543V479Q582 419 570 387T519 320L233 59H585V0H55V59L389 363Q421 393 434 418T448 482V532Q448 552 442 557T417 563H221Q202 563 196 558T190 532Z" />
<glyph unicode="3" glyph-name="three" horiz-adv-x="670" d="M203 532V426H69V543Q69 622 148 622H520Q599 622 599 543V376Q599 320 549 317Q599 311 599 259V79Q599 0 520 0H148Q69 0 69 79V195H203V90Q203 70 208 65T234 59H434Q454 59 459 64T465 90V254Q465
274 460 279T434 285H275V345H434Q454 345 459 350T465 376V532Q465 552 460 557T434 563H234Q214 563 209 558T203 532Z" />
<glyph unicode="4" glyph-name="four" horiz-adv-x="673" d="M656 160V101H548V0H421V101H34V171L320 622H459L173 160H421V328H548V160H656Z" />
<glyph unicode="5" glyph-name="five" horiz-adv-x="651" d="M221 379H517Q596 379 596 300V79Q596 0 517 0H158Q79 0 79 79V201H213V90Q213 70 218 65T244 59H432Q452 59 457 64T463 90V289Q463 308 458 314T432 320H83V622H586V563H221V379Z" />
<glyph unicode="6" glyph-name="six" horiz-adv-x="667" d="M462 90V267Q462 286 456 292T431 298H215V90Q215 70 220 65T246 59H431Q450 59 456 64T462 90ZM215 357H517Q596 357 596 278V79Q596 0 517 0H159Q80 0 80 79V543Q80 622 159 622H511Q590 622 590 543V428H457V532Q457
552 452 557T426 563H246Q226 563 221 558T215 532V357Z" />
<glyph unicode="7" glyph-name="seven" horiz-adv-x="538" d="M521 622V560L251 0H109L382 563H33V622H521Z" />
<glyph unicode="8" glyph-name="eight" horiz-adv-x="674" d="M158 622H516Q595 622 595 543V372Q595 316 546 313Q595 307 595 255V79Q595 0 516 0H158Q79 0 79 79V255Q79 307 128 313Q79 316 79 372V543Q79 622 158 622ZM213 252V90Q213 70 218 65T244 59H431Q450
59 456 64T462 90V252Q462 272 456 277T431 283H244Q224 283 219 278T213 252ZM462 374V532Q462 552 456 557T431 563H244Q224 563 219 558T213 532V374Q213 354 218 349T244 343H431Q450 343 456 348T462 374Z" />
<glyph unicode="9" glyph-name="nine" horiz-adv-x="671" d="M241 318H456V532Q456 552 450 557T425 563H241Q222 563 216 558T210 532V349Q210 330 216 324T241 318ZM154 622H512Q591 622 591 543V79Q591 0 512 0H161Q82 0 82 79V186H216V90Q216 70 222 65T247
59H425Q444 59 450 64T456 90V259H154Q75 259 75 338V543Q75 622 154 622Z" />
<glyph unicode=":" glyph-name="colon" horiz-adv-x="260" d="M59 366H201V119H59V366Z" />
<glyph unicode=";" glyph-name="semicolon" horiz-adv-x="251" d="M59 360V485H201V360H59ZM59 -138V132H201V60L106 -138H59Z" />
<glyph unicode="&lt;" glyph-name="less" horiz-adv-x="683" d="M632 400L147 312L632 222V126L37 262V363L632 495V400Z" />
<glyph unicode="=" glyph-name="equal" horiz-adv-x="703" d="M72 360V450H631V360H72ZM72 170V260H631V170H72Z" />
<glyph unicode="&gt;" glyph-name="greater" horiz-adv-x="683" d="M536 312L52 400V495L646 363V262L52 126V222L536 312Z" />
<glyph unicode="?" glyph-name="question" horiz-adv-x="595" d="M207 0V125H350V0H207ZM106 622H467Q546 622 546 544V349Q546 271 467 271H340L334 203H225L215 333H386Q404 333 409 339T415 365V531Q415 551 410 557T386 564H188Q169 564 164 558T158 531V432H27V544Q27
622 106 622Z" />
<glyph unicode="@" glyph-name="at" horiz-adv-x="1126" d="M409 426H597Q637 426 649 397V426H761V118H913Q931 118 936 123T941 146V474Q941 492 936 497T913 503H222Q204 503 199 498T194 474V17Q194 -1 199 -6T222 -11H871V-71H154Q82 -71 82 1V491Q82 563
154 563H981Q1053 563 1053 491V131Q1053 59 981 59H654V118Q648 78 597 78H409Q337 78 337 150V354Q337 426 409 426ZM449 339V165Q449 147 454 142T477 137H617Q648 137 649 167V337Q648 367 617 367H477Q459 367 454 362T449 339Z" />
<glyph unicode="A" glyph-name="A" horiz-adv-x="707" d="M223 182H482L352 538L223 182ZM549 0L504 123H202L157 0H26L265 622H441L681 0H549Z" />
<glyph unicode="B" glyph-name="B" horiz-adv-x="705" d="M89 622H546Q625 622 625 543V370Q625 314 575 311Q625 305 625 253V79Q625 0 546 0H89V622ZM495 87V251Q495 270 490 276T464 282H223V59H462Q481 59 488 64T495 87ZM495 372V532Q495 552 490 557T464
563H223V341H464Q484 341 489 346T495 372Z" />
<glyph unicode="C" glyph-name="C" d="M608 407H473V532Q473 552 468 557T442 563H246Q226 563 221 558T215 532V90Q215 70 220 65T246 59H442Q462 59 467 64T473 90V215H608V79Q608 0 529 0H159Q80 0 80 79V543Q80 622 159 622H529Q608 622 608 543V407Z" />
<glyph unicode="D" glyph-name="D" horiz-adv-x="707" d="M493 90V532Q493 552 488 557T462 563H223V59H462Q482 59 487 64T493 90ZM89 622H548Q627 622 627 543V79Q627 0 548 0H89V622Z" />
<glyph unicode="E" glyph-name="E" horiz-adv-x="602" d="M227 59H559V0H89V622H545V563H227V348H504V289H227V59Z" />
<glyph unicode="F" glyph-name="F" horiz-adv-x="575" d="M546 563H227V324H507V265H227V0H89V622H546V563Z" />
<glyph unicode="G" glyph-name="G" horiz-adv-x="680" d="M609 427H474V532Q474 552 468 557T443 563H246Q226 563 221 558T215 532V90Q215 70 220 65T246 59H444Q464 59 469 64T475 90V261H336V320H609V79Q609 0 530 0H159Q80 0 80 79V543Q80 622 159 622H530Q609
622 609 543V427Z" />
<glyph unicode="H" glyph-name="H" horiz-adv-x="755" d="M532 622H666V0H532V282H223V0H89V622H223V341H532V622Z" />
<glyph unicode="I" glyph-name="I" horiz-adv-x="332" d="M97 622H235V0H97V622Z" />
<glyph unicode="J" glyph-name="J" horiz-adv-x="609" d="M34 227H169V90Q169 70 174 65T200 59H364Q384 59 389 64T395 90V622H529V79Q529 0 450 0H113Q34 0 34 79V227Z" />
<glyph unicode="K" glyph-name="K" horiz-adv-x="693" d="M510 622H662L389 318L672 0H518L240 318L510 622ZM89 622H220V0H89V622Z" />
<glyph unicode="L" glyph-name="L" horiz-adv-x="556" d="M223 59H531V0H89V622H223V59Z" />
<glyph unicode="M" glyph-name="M" horiz-adv-x="887" d="M208 0H89V622H233L440 225L655 622H798V0H679V483L491 135H391L208 483V0Z" />
<glyph unicode="N" glyph-name="N" horiz-adv-x="730" d="M518 622H641V0H519L212 485V0H89V622H215L518 139V622Z" />
<glyph unicode="O" glyph-name="O" horiz-adv-x="684" d="M604 543V79Q604 0 525 0H159Q80 0 80 79V543Q80 622 159 622H525Q604 622 604 543ZM471 90V532Q471 552 466 557T440 563H245Q226 563 220 558T214 532V90Q214 70 220 65T245 59H440Q460 59 465 64T471 90Z" />
<glyph unicode="P" glyph-name="P" horiz-adv-x="680" d="M495 293V532Q495 552 490 557T464 563H223V262H464Q484 262 489 268T495 293ZM89 622H549Q628 622 628 543V282Q628 203 549 203H223V0H89V622Z" />
<glyph unicode="Q" glyph-name="Q" horiz-adv-x="656" d="M198 532V90Q198 70 204 65T229 59H427Q446 59 452 64T458 90V532Q458 552 452 557T427 563H229Q210 563 204 558T198 532ZM145 0Q66 0 66 79V543Q66 622 145 622H510Q589 622 589 543V79Q589 0 510 0H475L594
-97H437L324 0H145Z" />
<glyph unicode="R" glyph-name="R" horiz-adv-x="700" d="M223 563V282H465Q484 282 490 288T496 313V532Q496 552 490 557T465 563H223ZM223 223V0H89V622H550Q629 622 629 543V302Q629 223 550 223H497L638 0H499L363 223H223Z" />
<glyph unicode="S" glyph-name="S" horiz-adv-x="661" d="M457 90V253Q457 272 452 278T426 284H148Q69 284 69 363V543Q69 622 148 622H509Q588 622 588 543V436H453V532Q453 552 448 557T422 563H235Q216 563 210 558T204 532V374Q204 354 210 349T235 343H512Q591
343 591 264V79Q591 0 512 0H151Q72 0 72 79V186H206V90Q206 70 212 65T237 59H426Q446 59 451 64T457 90Z" />
<glyph unicode="T" glyph-name="T" horiz-adv-x="576" d="M568 622V563H355V0H221V563H9V622H568Z" />
<glyph unicode="U" glyph-name="U" horiz-adv-x="697" d="M214 622V90Q214 70 220 65T245 59H453Q472 59 478 64T484 90V622H617V79Q617 0 538 0H159Q80 0 80 79V622H214Z" />
<glyph unicode="V" glyph-name="V" horiz-adv-x="703" d="M539 622H674L437 0H265L28 622H164L350 90L539 622Z" />
<glyph unicode="W" glyph-name="W" horiz-adv-x="1080" d="M920 622H1051L844 0H677L539 479L402 0H235L29 622H165L319 94L470 622H608L759 94L920 622Z" />
<glyph unicode="X" glyph-name="X" horiz-adv-x="687" d="M417 321L661 0H516L342 237L166 0H25L267 314L34 622H180L342 399L502 622H643L417 321Z" />
<glyph unicode="Y" glyph-name="Y" horiz-adv-x="660" d="M403 0H269V202L7 622H141L335 289L520 622H653L403 203V0Z" />
<glyph unicode="Z" glyph-name="Z" horiz-adv-x="636" d="M585 622V563L204 59H575V0H52V59L432 563H64V622H585Z" />
<glyph unicode="[" glyph-name="bracketleft" horiz-adv-x="340" d="M378 661H222V-161H378V-220H87V720H378V661Z" />
<glyph unicode="\" glyph-name="backslash" horiz-adv-x="423" d="M-82 699H37L454 -136H334L-82 699Z" />
<glyph unicode="]" glyph-name="bracketright" horiz-adv-x="340" d="M253 720V-220H-38V-161H118V661H-38V720H253Z" />
<glyph unicode="^" glyph-name="asciicircum" horiz-adv-x="650" d="M248 668H402L607 328H481L325 592L169 328H43L248 668Z" />
<glyph unicode="_" glyph-name="underscore" horiz-adv-x="605" d="M3 -59V0H602V-59H3Z" />
<glyph unicode="`" glyph-name="grave" horiz-adv-x="508" d="M309 652L448 506H333L166 652H309Z" />
<glyph unicode="a" glyph-name="a" horiz-adv-x="642" d="M232 59H398Q417 59 425 66T433 92V393Q433 411 425 418T398 426H232Q212 426 207 420T201 395V90Q201 70 206 65T232 59ZM433 485H562V0H433V31Q421 0 377 0H151Q72 0 72 79V406Q72 485 151 485H377Q421
485 433 454V485Z" />
<glyph unicode="b" glyph-name="b" horiz-adv-x="642" d="M442 90V395Q442 414 436 420T411 426H245Q210 426 210 393V361H209V117H210V92Q210 59 245 59H411Q430 59 436 64T442 90ZM266 485H492Q571 485 571 406V79Q571 0 492 0H266Q221 0 209 34V0H80V669H209V451Q221
485 266 485Z" />
<glyph unicode="c" glyph-name="c" horiz-adv-x="604" d="M551 320H424V395Q424 414 418 420T393 426H232Q212 426 207 420T201 395V90Q201 70 206 65T232 59H393Q412 59 418 64T424 90V164H551V79Q551 0 472 0H151Q72 0 72 79V406Q72 485 151 485H472Q551 485
551 406V320Z" />
<glyph unicode="d" glyph-name="d" horiz-adv-x="642" d="M232 59H398Q417 59 425 66T433 92V393Q433 411 425 418T398 426H232Q212 426 207 420T201 395V90Q201 70 206 65T232 59ZM433 669H562V0H433V31Q421 0 377 0H151Q72 0 72 79V406Q72 485 151 485H377Q421
485 433 454V669Z" />
<glyph unicode="e" glyph-name="e" horiz-adv-x="635" d="M201 278H446V395Q446 414 440 420T415 426H232Q212 426 207 420T201 395V278ZM151 485H493Q572 485 572 406V219H201V90Q201 70 206 65T232 59H413Q432 59 438 64T444 90V145H570V79Q570 0 491 0H151Q72
0 72 79V406Q72 485 151 485Z" />
<glyph unicode="f" glyph-name="f" horiz-adv-x="390" d="M382 607H278Q258 607 253 602T247 576V485H382V426H247V0H118V426H46V485H118V590Q118 669 197 669H382V607Z" />
<glyph unicode="g" glyph-name="g" horiz-adv-x="635" d="M232 59H398Q417 59 425 66T433 92V393Q433 411 425 418T398 426H232Q212 426 207 420T201 395V90Q201 70 206 65T232 59ZM562 21H563V-62Q563 -141 484 -141H93V-82H403Q422 -82 428 -76T434 -51V11H433V31Q421
0 377 0H151Q72 0 72 79V406Q72 485 151 485H377Q421 485 433 454V485H562V21Z" />
<glyph unicode="h" glyph-name="h" horiz-adv-x="643" d="M266 485H493Q572 485 572 406V0H442V395Q442 414 436 420T411 426H245Q210 426 210 393V363H209V0H80V669H209V451Q221 485 266 485Z" />
<glyph unicode="i" glyph-name="i" horiz-adv-x="304" d="M217 0H87V485H217V0ZM85 573V670H220V573H85Z" />
<glyph unicode="j" glyph-name="j" horiz-adv-x="297" d="M87 -51V485H217V-62Q217 -141 138 -141H-36V-82H56Q76 -82 81 -76T87 -51ZM85 573V670H220V573H85Z" />
<glyph unicode="k" glyph-name="k" horiz-adv-x="625" d="M80 0V669H209V0H80ZM606 485L375 245L606 0H457L231 245L457 485H606Z" />
<glyph unicode="l" glyph-name="l" horiz-adv-x="307" d="M218 0H89V669H218V0Z" />
<glyph unicode="m" glyph-name="m" horiz-adv-x="979" d="M622 485H829Q908 485 908 406V0H779V395Q779 414 774 420T748 426H600Q564 426 564 389V0H434V395Q434 414 428 420T403 426H244Q209 426 209 393V0H80V485H209V454Q221 485 265 485H485Q543 485 558
443Q570 485 622 485Z" />
<glyph unicode="n" glyph-name="n" horiz-adv-x="642" d="M266 485H492Q571 485 571 406V0H442V395Q442 414 436 420T411 426H245Q210 426 210 393V362H209V0H80V485H209V451Q221 485 266 485Z" />
<glyph unicode="o" glyph-name="o" horiz-adv-x="637" d="M437 90V395Q437 414 432 420T406 426H231Q212 426 206 420T200 395V90Q200 70 206 65T231 59H406Q426 59 431 64T437 90ZM151 485H486Q565 485 565 406V79Q565 0 486 0H151Q72 0 72 79V406Q72 485 151 485Z" />
<glyph unicode="p" glyph-name="p" horiz-adv-x="650" d="M449 90V395Q449 414 444 420T418 426H244Q209 426 209 392V92Q209 59 244 59H418Q438 59 443 64T449 90ZM265 485H499Q578 485 578 406V79Q578 0 499 0H265Q221 0 209 31V-141H80V485H208V450Q220 485 265 485Z" />
<glyph unicode="q" glyph-name="q" horiz-adv-x="645" d="M257 59H430Q449 59 457 66T465 92V392Q465 411 457 418T430 426H257Q238 426 232 420T226 395V90Q226 70 232 65T257 59ZM467 485H595V-141H465V29Q451 0 410 0H176Q97 0 97 79V406Q97 485 176 485H410Q455
485 467 450V485Z" />
<glyph unicode="r" glyph-name="r" horiz-adv-x="396" d="M301 486H388V421H278Q209 421 209 346V0H80V485H209V425Q228 486 301 486Z" />
<glyph unicode="s" glyph-name="s" horiz-adv-x="592" d="M402 89V181Q402 200 396 206T371 212H146Q67 212 67 291V406Q67 485 146 485H447Q526 485 526 406V345H400V396Q400 416 394 421T369 427H227Q208 427 202 422T196 396V302Q196 282 202 277T227 271H451Q530
271 530 192V79Q530 0 451 0H149Q70 0 70 79V140H196V89Q196 70 202 64T227 58H371Q390 58 396 64T402 89Z" />
<glyph unicode="t" glyph-name="t" horiz-adv-x="384" d="M350 426H237V94Q237 74 242 69T268 63H349V0H187Q108 0 108 79V426H30V485H108V581H237V485H350V426Z" />
<glyph unicode="u" glyph-name="u" horiz-adv-x="642" d="M433 485H562V0H433V31Q421 0 377 0H151Q72 0 72 79V485H201V90Q201 70 206 65T232 59H398Q417 59 425 66T433 92V485Z" />
<glyph unicode="v" glyph-name="v" horiz-adv-x="610" d="M22 485H150L304 83L460 485H588L390 0H219L22 485Z" />
<glyph unicode="w" glyph-name="w" horiz-adv-x="902" d="M758 485H880L717 0H558L451 389L346 0H187L22 485H145L271 83L386 485H518L631 83L758 485Z" />
<glyph unicode="x" glyph-name="x" horiz-adv-x="612" d="M377 255L592 0H441L293 175L136 0H26L239 235L30 485H181L322 313L470 485H583L377 255Z" />
<glyph unicode="y" glyph-name="y" horiz-adv-x="600" d="M224 -141H115V-82H181Q239 -82 259 -40L278 0H230L26 485H159L312 86L464 485H594L372 -38Q350 -92 320 -116T224 -141Z" />
<glyph unicode="z" glyph-name="z" horiz-adv-x="524" d="M475 59V0H49V59L333 426H63V485H471V426L186 59H475Z" />
<glyph unicode="{" glyph-name="braceleft" horiz-adv-x="415" d="M302 597V371Q302 317 281 285T218 248Q260 244 281 212T302 125V-98Q302 -131 311 -146T349 -162H447V-221H316Q238 -221 204 -191T169 -87V117Q169 171 148 195T79 219H63V278H79Q127 278 148
303T169 382V585Q169 658 203 689T316 720H447V661H349Q321 661 312 646T302 597Z" />
<glyph unicode="|" glyph-name="bar" horiz-adv-x="302" d="M90 750H212V-129H90V750Z" />
<glyph unicode="}" glyph-name="braceright" horiz-adv-x="420" d="M118 371V597Q118 630 109 645T72 661H-27V720H104Q182 720 216 689T251 585V382Q251 328 272 303T342 278H357V219H342Q294 219 273 195T251 117V-87Q251 -160 217 -190T104 -221H-27V-162H72Q99
-162 108 -147T118 -98V125Q118 179 139 211T202 248Q160 252 139 284T118 371Z" />
<glyph unicode="~" glyph-name="asciitilde" horiz-adv-x="788" d="M387 217T339 242T254 267T206 259T195 227V167H69V256Q69 333 146 333H268Q308 333 345 317T408 282Q476 232 544 232Q572 232 582 241T593 273V333H720V244Q720 167 641 167H523Q480 167 434 192Z" />
<glyph unicode="&#xa1;" glyph-name="exclamdown" horiz-adv-x="304" d="M99 282H205L228 -137H76L99 282ZM81 485H223V359H81V485Z" />
<glyph unicode="&#xa2;" glyph-name="cent" horiz-adv-x="600" d="M549 320H422V395Q422 414 416 420T391 426H229Q210 426 204 420T198 395V90Q198 70 204 65T229 59H391Q410 59 416 64T422 90V164H549V79Q549 0 470 0H372V-77H243V0H148Q69 0 69 79V406Q69 485
148 485H243V562H372V485H470Q549 485 549 406V320Z" />
<glyph unicode="&#xa3;" glyph-name="sterling" horiz-adv-x="699" d="M650 81V0H65V70Q140 75 140 184V272H58V331H140V543Q140 622 219 622H559Q638 622 638 543V431H504V532Q504 552 498 557T473 563H306Q286 563 281 558T275 532V331H544V272H275V191Q275
142 269 117T241 81H650Z" />
<glyph unicode="&#xa4;" glyph-name="currency" horiz-adv-x="746" d="M281 169H470Q509 169 522 179T536 226V363Q536 401 522 414T470 428H281Q243 428 229 415T215 363V226Q215 189 228 179T281 169ZM641 374V222Q641 194 633 170L683 121L610 48L545 112Q523
110 510 110H240Q224 110 202 112L136 48L63 121L116 173Q109 193 109 222V374Q109 403 116 423L63 475L136 549L202 485Q224 487 240 487H510Q523 487 545 485L610 549L683 475L633 426Q641 402 641 374Z" />
<glyph unicode="&#xa5;" glyph-name="yen" horiz-adv-x="720" d="M433 200H635V141H433V0H299V141H95V200H299V202L257 269H95V328H220L37 622H171L365 289L550 622H683L508 328H634V269H473L433 203V200Z" />
<glyph unicode="&#xa6;" glyph-name="brokenbar" horiz-adv-x="288" d="M83 250H205V-129H83V250ZM205 371H83V750H205V371Z" />
<glyph unicode="&#xa7;" glyph-name="section" horiz-adv-x="724" d="M589 142V33Q589 -46 510 -46H209Q130 -46 130 33V90H262V44Q262 24 268 19T293 13H427Q446 13 452 18T458 44V135Q458 154 452 160T427 166H212Q133 166 133 245V333Q133 405 186 417Q159
437 159 469V582Q159 661 238 661H541Q620 661 620 582V525H488V571Q488 590 482 596T457 602H322Q302 602 297 596T291 571V480Q291 460 296 455T322 449H538Q617 449 617 370V278Q617 207 563 197Q589 178 589 142ZM454 390H296Q276 390 271 384T265 359V256Q265
236 270 231T296 225H454Q474 225 479 230T485 256V359Q485 378 480 384T454 390Z" />
<glyph unicode="&#xa8;" glyph-name="dieresis" horiz-adv-x="629" d="M375 634H530V535H375V634ZM98 634H254V535H98V634Z" />
<glyph unicode="&#xa9;" glyph-name="copyright" horiz-adv-x="1057" d="M980 341V276Q980 135 920 68T718 0H338Q197 0 137 67T77 276V341Q77 482 137 552T338 622H718Q859 622 919 552T980 341ZM356 60H701Q792 60 829 112T867 269V347Q867 452 829 508T701
564H356Q266 564 228 508T190 347V269Q190 165 227 113T356 60ZM622 240V271H725V229Q725 150 646 150H412Q333 150 333 229V402Q333 481 412 481H646Q725 481 725 402V360H622V391Q622 410 616 416T591 422H467Q448 422 442 416T436 391V240Q436 220 442 215T467
209H591Q610 209 616 214T622 240Z" />
<glyph unicode="&#xaa;" glyph-name="ordfeminine" horiz-adv-x="440" d="M167 322H264Q289 322 289 346V556Q289 580 264 580H167Q153 580 149 576T144 558V344Q144 330 148 326T167 322ZM289 622H381V280H289V303Q280 280 249 280H109Q53 280 53 336V566Q53
622 109 622H249Q280 622 289 599V622Z" />
<glyph unicode="&#xab;" glyph-name="guillemotleft" horiz-adv-x="599" d="M465 407L334 254L465 102H274L144 255L274 407H465Z" />
<glyph unicode="&#xac;" glyph-name="logicalnot" horiz-adv-x="760" d="M693 398V149H609V294H63V398H693Z" />
<glyph unicode="&#xad;" glyph-name="uni00AD" horiz-adv-x="357" d="M55 256V314H301V256H55Z" />
<glyph unicode="&#xae;" glyph-name="registered" horiz-adv-x="629" d="M574 532V495Q574 417 540 379T424 340H205Q124 340 90 378T55 495V532Q55 612 89 651T205 690H424Q505 690 539 651T574 532ZM216 381H414Q462 381 482 409T503 492V536Q503 652 414 652H216Q127
652 127 536V492Q127 437 147 409T216 381ZM219 613H373Q405 613 405 582V522Q405 491 376 491H367L414 420H351L308 490H277V420H219V613ZM347 534V571Q347 582 336 582H277V523H336Q347 523 347 534Z" />
<glyph unicode="&#xaf;" glyph-name="overscore" horiz-adv-x="629" d="M113 550V608H516V550H113Z" />
<glyph unicode="&#xb0;" glyph-name="degree" horiz-adv-x="585" d="M526 544V403Q526 325 448 325H137Q59 325 59 403V544Q59 622 137 622H448Q526 622 526 544ZM404 413V535Q404 554 398 559T373 565H213Q194 565 188 560T182 535V413Q182 394 188 388T213 382H373Q392
382 398 388T404 413Z" />
<glyph unicode="&#xb1;" glyph-name="plusminus" horiz-adv-x="700" d="M67 123V197H627V123H67ZM407 405H627V323H407V237H287V323H67V405H287V508H407V405Z" />
<glyph unicode="&#xb2;" glyph-name="twosuperior" horiz-adv-x="385" d="M138 563V509H55V579Q55 622 98 622H299Q342 622 342 579V537Q342 471 301 436L164 324H340V280H58V324L227 468Q258 495 258 538V563Q258 574 255 577T241 580H155Q144 580 141 577T138 563Z" />
<glyph unicode="&#xb3;" glyph-name="threesuperior" horiz-adv-x="406" d="M143 563V514H59V579Q59 622 103 622H309Q353 622 353 579V487Q353 456 326 454Q353 452 353 422V323Q353 280 309 280H103Q59 280 59 323V387H143V340Q143 329 146 326T160 322H252Q263
322 266 325T269 340V415Q269 426 266 429T252 432H162V475H252Q263 475 266 478T269 492V563Q269 574 266 577T252 580H160Q150 580 147 577T143 563Z" />
<glyph unicode="&#xb4;" glyph-name="acute" horiz-adv-x="629" d="M169 506L308 652H451L284 506H169Z" />
<glyph unicode="&#xb5;" glyph-name="uni00B5" horiz-adv-x="652" d="M442 485H571V0H442V31Q430 0 386 0H210V-141H80V485H210V90Q210 70 216 65T241 59H407Q442 59 442 92V485Z" />
<glyph unicode="&#xb6;" glyph-name="paragraph" horiz-adv-x="753" d="M434 622V-141H316V220H147Q68 220 68 299V543Q68 622 147 622H434ZM549 622H667V-141H549V622Z" />
<glyph unicode="&#xb7;" glyph-name="middot" horiz-adv-x="288" d="M75 251V377H217V251H75Z" />
<glyph unicode="&#xb8;" glyph-name="cedilla" horiz-adv-x="629" d="M321 -134V-49H443V-141Q443 -227 357 -227H178V-169H287Q306 -169 313 -162T321 -134Z" />
<glyph unicode="&#xb9;" glyph-name="onesuperior" horiz-adv-x="259" d="M195 622V280H105V580H24V622H195Z" />
<glyph unicode="&#xba;" glyph-name="ordmasculine" horiz-adv-x="440" d="M375 570V332Q375 280 324 280H112Q60 280 60 332V570Q60 622 112 622H324Q375 622 375 570ZM287 343V560Q287 573 284 576T267 580H168Q155 580 151 577T147 560V343Q147 330 151 326T168
322H267Q280 322 283 326T287 343Z" />
<glyph unicode="&#xbb;" glyph-name="guillemotright" horiz-adv-x="591" d="M320 407L450 255L320 102H130L260 254L130 407H320Z" />
<glyph unicode="&#xbf;" glyph-name="questiondown" horiz-adv-x="628" d="M416 484V359H273V484H416ZM465 52H596V-60Q596 -138 517 -138H156Q77 -138 77 -60V135Q77 213 156 213H283L289 281H398L408 151H237Q219 151 214 145T208 119V-47Q208 -67 213 -73T237
-80H435Q454 -80 459 -74T465 -47V52Z" />
<glyph unicode="&#xc0;" glyph-name="Agrave" horiz-adv-x="706" d="M399 670H284L117 816H260L399 670ZM223 182H482L352 538L223 182ZM548 0L503 123H202L157 0H25L265 622H440L680 0H548Z" />
<glyph unicode="&#xc1;" glyph-name="Aacute" horiz-adv-x="706" d="M586 816L419 670H304L443 816H586ZM222 182H481L351 538L222 182ZM548 0L503 123H201L156 0H25L264 622H440L680 0H548Z" />
<glyph unicode="&#xc2;" glyph-name="Acircumflex" horiz-adv-x="706" d="M352 765L248 669H113L285 818H418L590 669H455L352 765ZM222 182H481L351 538L222 182ZM548 0L503 123H201L156 0H25L264 622H440L680 0H548Z" />
<glyph unicode="&#xc3;" glyph-name="Atilde" horiz-adv-x="706" d="M239 725V669H132V730Q132 807 207 807H241Q277 807 359 769T460 730T479 752V807H585V746Q585 669 512 669H474Q438 669 357 708T258 747T239 725ZM222 182H481L351 538L222 182ZM548 0L503
123H201L156 0H25L264 622H440L680 0H548Z" />
<glyph unicode="&#xc4;" glyph-name="Adieresis" horiz-adv-x="706" d="M570 768V669H414V768H570ZM293 768V669H138V768H293ZM223 182H482L352 538L223 182ZM548 0L503 123H202L157 0H25L265 622H440L680 0H548Z" />
<glyph unicode="&#xc5;" glyph-name="Aring" horiz-adv-x="706" d="M270 766V749Q270 731 275 726T299 720H406Q425 720 430 725T435 749V766Q435 784 430 789T406 795H299Q280 795 275 790T270 766ZM451 670H253Q184 670 184 739V776Q184 846 253 846H451Q521
846 521 776V739Q521 670 451 670ZM222 182H481L351 538L222 182ZM548 0L503 123H201L156 0H25L264 622H440L680 0H548Z" />
<glyph unicode="&#xc6;" glyph-name="AE" horiz-adv-x="1039" d="M529 198V539L299 198H529ZM663 59H988V0H529V139H259L165 0H23L451 622H975V563H663V348H941V289H663V59Z" />
<glyph unicode="&#xc7;" glyph-name="Ccedilla" horiz-adv-x="659" d="M274 -134V-49H396V-141Q396 -227 310 -227H131V-169H240Q259 -169 266 -162T274 -134ZM606 407H471V532Q471 552 466 557T440 563H244Q224 563 219 558T213 532V90Q213 70 218 65T244 59H440Q460
59 465 64T471 90V215H606V79Q606 0 527 0H157Q78 0 78 79V543Q78 622 157 622H527Q606 622 606 543V407Z" />
<glyph unicode="&#xc8;" glyph-name="Egrave" horiz-adv-x="600" d="M381 669H266L99 815H242L381 669ZM226 59H558V0H88V622H544V563H226V348H503V289H226V59Z" />
<glyph unicode="&#xc9;" glyph-name="Eacute" horiz-adv-x="600" d="M552 815L385 669H270L409 815H552ZM226 59H558V0H88V622H544V563H226V348H503V289H226V59Z" />
<glyph unicode="&#xca;" glyph-name="Ecircumflex" horiz-adv-x="600" d="M322 765L218 669H83L255 818H388L560 669H425L322 765ZM226 289V59H558V0H88V622H544V563H226V348H503V289H226Z" />
<glyph unicode="&#xcb;" glyph-name="Edieresis" horiz-adv-x="620" d="M533 768V669H377V768H533ZM256 768V669H101V768H256ZM226 59H558V0H88V622H544V563H226V348H503V289H226V59Z" />
<glyph unicode="&#xcc;" glyph-name="Igrave" horiz-adv-x="323" d="M94 622H232V0H94V622ZM74 815L213 669H98L-69 815H74Z" />
<glyph unicode="&#xcd;" glyph-name="Iacute" horiz-adv-x="323" d="M94 622H232V0H94V622ZM112 669L251 815H394L227 669H112Z" />
<glyph unicode="&#xce;" glyph-name="Icircumflex" horiz-adv-x="323" d="M94 622H232V0H94V622ZM-70 670L102 819H235L407 670H272L169 766L65 670H-70Z" />
<glyph unicode="&#xcf;" glyph-name="Idieresis" horiz-adv-x="323" d="M95 622H232V0H95V622ZM-52 768H103V669H-52V768ZM225 768H380V669H225V768Z" />
<glyph unicode="&#xd0;" glyph-name="Eth" horiz-adv-x="721" d="M508 90V532Q508 552 502 557T477 563H240V344H409V283H240V59H477Q496 59 502 64T508 90ZM106 622H564Q643 622 643 543V79Q643 0 564 0H106V283H47V344H106V622Z" />
<glyph unicode="&#xd1;" glyph-name="Ntilde" horiz-adv-x="728" d="M517 622H640V0H518L211 485V0H88V622H214L517 139V622ZM445 670T364 709T265 748T246 726V670H139V731Q139 808 214 808H248Q284 808 366 770T467 731T486 753V808H592V747Q592 670 519 670H481Q445
670 364 709Z" />
<glyph unicode="&#xd2;" glyph-name="Ograve" horiz-adv-x="683" d="M603 543V79Q603 0 524 0H158Q79 0 79 79V543Q79 622 158 622H524Q603 622 603 543ZM470 90V532Q470 552 464 557T439 563H244Q224 563 219 558T213 532V90Q213 70 218 65T244 59H439Q458 59
464 64T470 90ZM264 815L403 669H288L121 815H264Z" />
<glyph unicode="&#xd3;" glyph-name="Oacute" horiz-adv-x="683" d="M294 669L433 815H576L409 669H294ZM603 543V79Q603 0 524 0H158Q79 0 79 79V543Q79 622 158 622H524Q603 622 603 543ZM470 90V532Q470 552 464 557T439 563H244Q224 563 219 558T213 532V90Q213
70 218 65T244 59H439Q458 59 464 64T470 90Z" />
<glyph unicode="&#xd4;" glyph-name="Ocircumflex" horiz-adv-x="683" d="M103 669L275 818H408L580 669H445L342 765L238 669H103ZM603 543V79Q603 0 524 0H158Q79 0 79 79V543Q79 622 158 622H524Q603 622 603 543ZM470 90V532Q470 552 464 557T439 563H244Q224
563 219 558T213 532V90Q213 70 218 65T244 59H439Q458 59 464 64T470 90Z" />
<glyph unicode="&#xd5;" glyph-name="Otilde" horiz-adv-x="683" d="M603 543V79Q603 0 524 0H158Q79 0 79 79V543Q79 622 158 622H524Q603 622 603 543ZM470 90V532Q470 552 464 557T439 563H244Q224 563 219 558T213 532V90Q213 70 218 65T244 59H439Q458 59
464 64T470 90ZM418 670T337 709T238 748T219 726V670H112V731Q112 808 187 808H221Q257 808 339 770T440 731T459 753V808H565V747Q565 670 492 670H454Q418 670 337 709Z" />
<glyph unicode="&#xd6;" glyph-name="Odieresis" horiz-adv-x="676" d="M603 543V79Q603 0 524 0H158Q79 0 79 79V543Q79 622 158 622H524Q603 622 603 543ZM470 90V532Q470 552 464 557T439 563H244Q224 563 219 558T213 532V90Q213 70 218 65T244 59H439Q458
59 464 64T470 90ZM403 769H559V669H403V769ZM127 769H282V669H127V769Z" />
<glyph unicode="&#xd7;" glyph-name="multiply" horiz-adv-x="663" d="M593 438L418 315L590 194L529 123L338 258L146 123L86 194L257 315L82 438L143 509L338 372L532 509L593 438Z" />
<glyph unicode="&#xd8;" glyph-name="Oslash" horiz-adv-x="709" d="M493 88V446L218 67Q222 57 246 57H461Q481 57 487 62T493 88ZM215 534V172L492 551Q488 565 461 565H246Q226 565 221 560T215 534ZM622 543V79Q622 0 543 0H169L149 -27H70L105 21Q87 40 87
79V543Q87 622 166 622H543L563 649H641L605 600Q622 578 622 543Z" />
<glyph unicode="&#xd9;" glyph-name="Ugrave" horiz-adv-x="698" d="M214 622V90Q214 70 220 65T245 59H453Q472 59 478 64T484 90V622H617V79Q617 0 538 0H159Q80 0 80 79V622H214ZM279 815L418 669H303L136 815H279Z" />
<glyph unicode="&#xda;" glyph-name="Uacute" horiz-adv-x="698" d="M296 669L435 815H578L411 669H296ZM214 622V90Q214 70 220 65T245 59H453Q472 59 478 64T484 90V622H617V79Q617 0 538 0H159Q80 0 80 79V622H214Z" />
<glyph unicode="&#xdb;" glyph-name="Ucircumflex" horiz-adv-x="698" d="M109 669L281 818H414L586 669H451L348 765L244 669H109ZM214 622V90Q214 70 220 65T245 59H453Q472 59 478 64T484 90V622H617V79Q617 0 538 0H159Q80 0 80 79V622H214Z" />
<glyph unicode="&#xdc;" glyph-name="Udieresis" horiz-adv-x="698" d="M484 622H617V79Q617 0 538 0H159Q80 0 80 79V622H214V90Q214 70 220 65T245 59H453Q472 59 478 64T484 90V622ZM129 768H285V669H129V768ZM406 768H561V669H406V768Z" />
<glyph unicode="&#xdd;" glyph-name="Yacute" horiz-adv-x="659" d="M570 815L403 669H288L427 815H570ZM402 0H268V202L6 622H140L334 289L519 622H652L402 203V0Z" />
<glyph unicode="&#xde;" glyph-name="Thorn" horiz-adv-x="680" d="M486 192V430Q486 450 480 455T455 461H223V161H455Q474 161 480 166T486 192ZM223 520H540Q619 520 619 441V181Q619 102 540 102H223V0H90V622H223V520Z" />
<glyph unicode="&#xdf;" glyph-name="germandbls" horiz-adv-x="851" d="M331 154H459V90Q459 70 464 65T490 59H644Q664 59 669 64T675 90V201Q675 220 670 226T644 232H410Q331 232 331 311V384Q331 463 407 463H590Q612 463 618 468T625 491V530Q625 550 619
556T594 562H252Q233 562 227 556T221 530V0H90V543Q90 622 169 622H680Q759 622 759 543V475Q759 405 687 405H487Q468 405 462 400T456 374V321Q456 302 462 296T487 290H724Q803 290 803 211V79Q803 0 724 0H410Q331 0 331 79V154Z" />
<glyph unicode="&#xe0;" glyph-name="agrave" horiz-adv-x="640" d="M393 532H278L111 678H254L393 532ZM230 59H396Q415 59 423 66T431 92V393Q431 411 423 418T396 426H230Q210 426 205 420T199 395V90Q199 70 204 65T230 59ZM431 485H560V0H431V31Q419 0 375
0H149Q70 0 70 79V406Q70 485 149 485H375Q419 485 431 454V485Z" />
<glyph unicode="&#xe1;" glyph-name="aacute" horiz-adv-x="640" d="M547 678L380 532H265L404 678H547ZM230 59H396Q415 59 423 66T431 92V393Q431 411 423 418T396 426H230Q210 426 205 420T199 395V90Q199 70 204 65T230 59ZM431 485H560V0H431V31Q419 0 375
0H149Q70 0 70 79V406Q70 485 149 485H375Q419 485 431 454V485Z" />
<glyph unicode="&#xe2;" glyph-name="acircumflex" horiz-adv-x="640" d="M319 628L215 532H80L252 681H385L557 532H422L319 628ZM230 59H396Q415 59 423 66T431 92V393Q431 411 423 418T396 426H230Q210 426 205 420T199 395V90Q199 70 204 65T230 59ZM431 485H560V0H431V31Q419
0 375 0H149Q70 0 70 79V406Q70 485 149 485H375Q419 485 431 454V485Z" />
<glyph unicode="&#xe3;" glyph-name="atilde" horiz-adv-x="640" d="M198 589V533H91V594Q91 671 166 671H200Q236 671 318 633T419 594T438 616V671H544V610Q544 533 471 533H433Q397 533 316 572T217 611T198 589ZM230 59H396Q415 59 423 66T431 92V393Q431
411 423 418T396 426H230Q210 426 205 420T199 395V90Q199 70 204 65T230 59ZM431 485H560V0H431V31Q419 0 375 0H149Q70 0 70 79V406Q70 485 149 485H375Q419 485 431 454V485Z" />
<glyph unicode="&#xe4;" glyph-name="adieresis" horiz-adv-x="640" d="M539 631V532H384V631H539ZM263 631V532H107V631H263ZM230 59H396Q415 59 423 66T431 92V393Q431 411 423 418T396 426H230Q210 426 205 420T199 395V90Q199 70 204 65T230 59ZM431 485H560V0H431V31Q419
0 375 0H149Q70 0 70 79V406Q70 485 149 485H375Q419 485 431 454V485Z" />
<glyph unicode="&#xe5;" glyph-name="aring" horiz-adv-x="640" d="M235 629V612Q235 594 240 589T264 583H371Q390 583 395 588T400 612V629Q400 647 395 652T371 658H264Q245 658 240 653T235 629ZM416 533H218Q149 533 149 602V639Q149 709 218 709H416Q486
709 486 639V602Q486 533 416 533ZM230 59H396Q415 59 423 66T431 92V393Q431 411 423 418T396 426H230Q210 426 205 420T199 395V90Q199 70 204 65T230 59ZM431 485H560V0H431V31Q419 0 375 0H149Q70 0 70 79V406Q70 485 149 485H375Q419 485 431 454V485Z" />
<glyph unicode="&#xe6;" glyph-name="ae" horiz-adv-x="985" d="M231 59H385Q403 59 410 65T418 89V215L200 167V90Q200 70 206 65T231 59ZM751 426H576Q556 426 551 420T545 395V278H782V395Q782 414 776 420T751 426ZM901 219H545V90Q545 70 550 65T576 59H749Q768
59 774 64T780 90V144H907V79Q907 0 828 0H557Q492 0 481 37Q469 0 397 0H150Q71 0 71 79V201L418 279V396Q418 414 411 420T385 427H231Q212 427 206 422T200 396V308H71V406Q71 485 150 485H397Q469 485 481 448Q492 485 557 485H830Q909 485 909 406V221H901V219Z"
/>
<glyph unicode="&#xe7;" glyph-name="ccedilla" horiz-adv-x="600" d="M248 -134V-49H370V-141Q370 -227 284 -227H105V-169H214Q233 -169 240 -162T248 -134ZM549 320H422V395Q422 414 416 420T391 426H230Q210 426 205 420T199 395V90Q199 70 204 65T230 59H391Q410
59 416 64T422 90V164H549V79Q549 0 470 0H149Q70 0 70 79V406Q70 485 149 485H470Q549 485 549 406V320Z" />
<glyph unicode="&#xe8;" glyph-name="egrave" horiz-adv-x="630" d="M389 532H274L107 678H250L389 532ZM199 278H444V395Q444 414 438 420T413 426H230Q210 426 205 420T199 395V278ZM149 485H491Q570 485 570 406V219H199V90Q199 70 204 65T230 59H411Q430 59
436 64T442 90V145H568V79Q568 0 489 0H149Q70 0 70 79V406Q70 485 149 485Z" />
<glyph unicode="&#xe9;" glyph-name="eacute" horiz-adv-x="630" d="M553 678L386 532H271L410 678H553ZM199 278H444V395Q444 414 438 420T413 426H230Q210 426 205 420T199 395V278ZM149 485H491Q570 485 570 406V219H199V90Q199 70 204 65T230 59H411Q430 59
436 64T442 90V145H568V79Q568 0 489 0H149Q70 0 70 79V406Q70 485 149 485Z" />
<glyph unicode="&#xea;" glyph-name="ecircumflex" horiz-adv-x="630" d="M323 628L219 532H84L256 681H389L561 532H426L323 628ZM199 278H444V395Q444 414 438 420T413 426H230Q210 426 205 420T199 395V278ZM149 485H491Q570 485 570 406V219H199V90Q199 70
204 65T230 59H411Q430 59 436 64T442 90V145H568V79Q568 0 489 0H149Q70 0 70 79V406Q70 485 149 485Z" />
<glyph unicode="&#xeb;" glyph-name="edieresis" horiz-adv-x="630" d="M260 631V532H104V631H260ZM536 631V532H381V631H536ZM148 485H491Q570 485 570 406V219H198V90Q198 70 204 65T229 59H411Q430 59 436 64T442 90V145H568V79Q568 0 489 0H148Q69 0 69 79V406Q69
485 148 485ZM198 278H444V395Q444 414 438 420T413 426H229Q210 426 204 420T198 395V278Z" />
<glyph unicode="&#xec;" glyph-name="igrave" horiz-adv-x="304" d="M217 0H88V485H217V0ZM64 678L203 532H88L-79 678H64Z" />
<glyph unicode="&#xed;" glyph-name="iacute" horiz-adv-x="304" d="M217 0H88V485H217V0ZM101 532L240 678H383L216 532H101Z" />
<glyph unicode="&#xee;" glyph-name="icircumflex" horiz-adv-x="304" d="M217 0H88V485H217V0ZM-85 532L87 681H220L392 532H257L154 628L50 532H-85Z" />
<glyph unicode="&#xef;" glyph-name="idieresis" horiz-adv-x="304" d="M217 0H88V485H217V0ZM216 631H371V532H216V631ZM-61 631H95V532H-61V631Z" />
<glyph unicode="&#xf0;" glyph-name="eth" horiz-adv-x="470" d="M472 90V318H245Q226 318 220 312T214 287V90Q214 70 220 65T245 59H441Q460 59 466 64T472 90ZM601 312V79Q601 0 522 0H164Q85 0 85 79V298Q85 377 164 377H462Q447 427 403 478L237 435V492L358
523Q309 566 214 622H389Q439 589 477 553L593 583V526L521 508Q601 412 601 312Z" />
<glyph unicode="&#xf1;" glyph-name="ntilde" horiz-adv-x="642" d="M206 588V532H99V593Q99 670 174 670H208Q244 670 326 632T427 593T446 615V670H552V609Q552 532 479 532H441Q405 532 324 571T225 610T206 588ZM266 485H492Q571 485 571 406V0H442V395Q442
414 436 420T411 426H245Q210 426 210 393V362H209V0H80V485H209V451Q221 485 266 485Z" />
<glyph unicode="&#xf2;" glyph-name="ograve" horiz-adv-x="636" d="M382 532H267L100 678H243L382 532ZM437 90V395Q437 414 432 420T406 426H231Q212 426 206 420T200 395V90Q200 70 206 65T231 59H406Q426 59 431 64T437 90ZM151 485H486Q565 485 565 406V79Q565
0 486 0H151Q72 0 72 79V406Q72 485 151 485Z" />
<glyph unicode="&#xf3;" glyph-name="oacute" horiz-adv-x="636" d="M555 678L388 532H273L412 678H555ZM437 90V395Q437 414 432 420T406 426H231Q212 426 206 420T200 395V90Q200 70 206 65T231 59H406Q426 59 431 64T437 90ZM151 485H486Q565 485 565 406V79Q565
0 486 0H151Q72 0 72 79V406Q72 485 151 485Z" />
<glyph unicode="&#xf4;" glyph-name="ocircumflex" horiz-adv-x="636" d="M320 628L216 532H81L253 681H386L558 532H423L320 628ZM437 90V395Q437 414 432 420T406 426H231Q212 426 206 420T200 395V90Q200 70 206 65T231 59H406Q426 59 431 64T437 90ZM151 485H486Q565
485 565 406V79Q565 0 486 0H151Q72 0 72 79V406Q72 485 151 485Z" />
<glyph unicode="&#xf5;" glyph-name="otilde" horiz-adv-x="636" d="M202 588V532H95V593Q95 670 170 670H204Q240 670 322 632T423 593T442 615V670H548V609Q548 532 475 532H437Q401 532 320 571T221 610T202 588ZM437 90V395Q437 414 432 420T406 426H231Q212
426 206 420T200 395V90Q200 70 206 65T231 59H406Q426 59 431 64T437 90ZM151 485H486Q565 485 565 406V79Q565 0 486 0H151Q72 0 72 79V406Q72 485 151 485Z" />
<glyph unicode="&#xf6;" glyph-name="odieresis" horiz-adv-x="636" d="M150 485H486Q565 485 565 406V79Q565 0 486 0H150Q71 0 71 79V406Q71 485 150 485ZM437 395Q437 414 432 420T406 426H231Q212 426 206 420T200 395V90Q200 70 206 65T231 59H406Q426 59
431 64T437 90V395ZM105 631H261V532H105V631ZM382 631H537V532H382V631Z" />
<glyph unicode="&#xf7;" glyph-name="divide" horiz-adv-x="671" d="M52 266V355H611V266H52ZM265 508H398V421H265V508ZM265 200H398V113H265V200Z" />
<glyph unicode="&#xf8;" glyph-name="oslash" horiz-adv-x="651" d="M449 87V338L212 59Q217 55 234 55H417Q437 55 443 61T449 87ZM203 399V138L445 422Q438 430 417 430H234Q214 430 209 424T203 399ZM572 406V79Q572 0 493 0H162L139 -27H63L101 18Q79 37 79
79V406Q79 485 158 485H498L520 511H596L555 463Q572 443 572 406Z" />
<glyph unicode="&#xf9;" glyph-name="ugrave" horiz-adv-x="642" d="M393 532H278L111 678H254L393 532ZM433 485H562V0H433V31Q421 0 377 0H151Q72 0 72 79V485H201V90Q201 70 206 65T232 59H398Q417 59 425 66T433 92V485Z" />
<glyph unicode="&#xfa;" glyph-name="uacute" horiz-adv-x="642" d="M544 678L377 532H262L401 678H544ZM433 485H562V0H433V31Q421 0 377 0H151Q72 0 72 79V485H201V90Q201 70 206 65T232 59H398Q417 59 425 66T433 92V485Z" />
<glyph unicode="&#xfb;" glyph-name="ucircumflex" horiz-adv-x="642" d="M316 628L212 532H77L249 681H382L554 532H419L316 628ZM433 485H562V0H433V31Q421 0 377 0H151Q72 0 72 79V485H201V90Q201 70 206 65T232 59H398Q417 59 425 66T433 92V485Z" />
<glyph unicode="&#xfc;" glyph-name="udieresis" horiz-adv-x="649" d="M533 631V532H377V631H533ZM256 631V532H101V631H256ZM433 485H562V0H433V31Q421 0 377 0H150Q71 0 71 79V485H200V90Q200 70 206 65T231 59H398Q433 59 433 92V485Z" />
<glyph unicode="&#xfd;" glyph-name="yacute" horiz-adv-x="599" d="M223 -141H114V-82H180Q238 -82 258 -40L277 0H229L25 485H158L311 86L463 485H593L371 -38Q349 -92 319 -116T223 -141ZM265 532L404 678H547L380 532H265Z" />
<glyph unicode="&#xfe;" glyph-name="thorn" horiz-adv-x="642" d="M441 100V404Q441 424 436 429T410 435H244Q209 435 209 402V102Q209 69 244 69H410Q430 69 435 74T441 100ZM265 494H491Q570 494 570 415V89Q570 10 491 10H265Q221 10 209 41V-141H80V669H208V460Q220
494 265 494Z" />
<glyph unicode="&#xff;" glyph-name="ydieresis" horiz-adv-x="613" d="M224 -141H115V-82H181Q212 -82 229 -73T258 -40L277 0H230L26 485H159L312 86L463 485H594L372 -38Q350 -92 320 -116T224 -141ZM376 631H531V532H376V631ZM99 631H255V532H99V631Z" />
<glyph unicode="&#x2013;" glyph-name="endash" horiz-adv-x="655" d="M61 262V321H552V262H61Z" />
<glyph unicode="&#x2014;" glyph-name="emdash" horiz-adv-x="939" d="M61 262V321H875V262H61Z" />
<glyph unicode="&#x2018;" glyph-name="quoteleft" horiz-adv-x="251" d="M194 622V359H52V423L148 622H194Z" />
<glyph unicode="&#x2019;" glyph-name="quoteright" horiz-adv-x="251" d="M59 359V622H201V557L106 359H59Z" />
<glyph unicode="&#x201a;" glyph-name="quotesinglbase" horiz-adv-x="250" d="M59 -131V132H201V68L106 -131H59Z" />
<glyph unicode="&#x201c;" glyph-name="quotedblleft" horiz-adv-x="441" d="M194 622V359H52V423L148 622H194ZM388 622V359H245V423L341 622H388Z" />
<glyph unicode="&#x201d;" glyph-name="quotedblright" horiz-adv-x="441" d="M253 359V622H395V557L300 359H253ZM59 359V622H201V557L106 359H59Z" />
<glyph unicode="&#x201e;" glyph-name="quotedblbase" horiz-adv-x="441" d="M253 -131V132H395V68L300 -131H253ZM59 -131V132H201V68L106 -131H59Z" />
<glyph unicode="&#x2022;" glyph-name="bullet" horiz-adv-x="466" d="M77 372T123 411T233 450T343 411T389 318T343 224T233 185T123 224T77 317Z" />
<glyph unicode="&#x2039;" glyph-name="guilsinglleft" horiz-adv-x="346" d="M178 102L48 255L178 407H316L185 254L316 102H178Z" />
<glyph unicode="&#x203a;" glyph-name="guilsinglright" horiz-adv-x="344" d="M303 255L173 102H35L166 254L35 407H173L303 255Z" />
</font>
</defs>
</svg>
