<?xml version="1.0" standalone="no"?>
<!DOCTYPE svg PUBLIC "-//W3C//DTD SVG 1.1//EN" "http://www.w3.org/Graphics/SVG/1.1/DTD/svg11.dtd">
<svg xmlns="http://www.w3.org/2000/svg">
<defs >
<font id="PalanquinDark" horiz-adv-x="864" ><font-face
    font-family="Palanquin Dark SemiBold"
    units-per-em="1000"
    panose-1="2 11 7 4 2 2 3 2 2 4"
    ascent="1320"
    descent="-491"
    alphabetic="0" />
<glyph unicode=" " glyph-name="space" horiz-adv-x="225" />
<glyph unicode="!" glyph-name="exclam" horiz-adv-x="246" d="M59 247L40 710H206L188 204L59 247ZM208 85Q208 48 184 24T123 0Q87 0 62 24T37 85Q37 121 62 145T123 170Q159 170 183 146T208 85Z" />
<glyph unicode="&quot;" glyph-name="quotedbl" horiz-adv-x="402" d="M392 641Q392 583 349 526T243 442L210 515Q228 528 245 544T267 580Q249 587 235 608T220 656Q220 687 244 714T306 742Q341 742 366 714T392 641ZM190 641Q190 583 148 526T42 442L9 515Q27
528 44 544T66 580Q48 587 33 608T18 656Q18 687 43 714T104 742Q140 742 165 714T190 641Z" />
<glyph unicode="#" glyph-name="numbersign" horiz-adv-x="606" d="M552 517Q547 492 541 468T529 419H575L585 299H501L480 209H575L585 89H452Q445 63 440 37T428 -15L293 -10Q298 15 304 39T315 89H212Q205 63 200 37T187 -15L53 -10Q58 15 64 39T75 89H31L20
209H104Q108 231 113 254T124 299H31L20 419H153L176 517H313L289 419H393Q398 444 404 469T416 517H552ZM261 299Q256 277 251 254T241 209H343L364 299H261Z" />
<glyph unicode="$" glyph-name="dollar" horiz-adv-x="560" d="M141 -122V4Q113 12 88 22T47 43Q60 74 72 105T96 169Q124 153 171 139T258 124Q307 124 332 141T358 184Q358 245 200 299T41 502Q41 555 69 598T152 666V802L259 798V692Q266 693 273 693T287 694Q292
694 297 694T308 692V802H417V670Q436 664 453 656T485 639L434 523Q388 540 357 548T289 557Q253 557 232 544T210 502Q210 441 368 384T528 182Q528 127 497 83T409 13V-124L300 -112V-11Q291 -12 282 -12T262 -13H249V-122H141Z" />
<glyph unicode="%" glyph-name="percent" horiz-adv-x="964" d="M714 706L416 0H248L546 706H714ZM24 524Q24 606 73 654T199 702Q278 702 327 654T376 522Q376 441 325 394T196 346Q120 346 72 393T24 524ZM200 588Q180 588 166 573T152 524Q152 491 163 474T198
457Q221 457 234 473T248 522Q248 553 236 570T200 588ZM589 178Q589 261 638 308T764 356Q843 356 891 308T940 177Q940 96 889 48T761 0Q685 0 637 48T589 178ZM765 243Q744 243 731 228T717 179Q717 145 728 129T763 112Q786 112 799 128T813 177Q813 208 801
225T765 243Z" />
<glyph unicode="&amp;" glyph-name="ampersand" horiz-adv-x="694" d="M315 119Q336 119 355 126T391 146Q357 177 322 208T251 270L233 287Q223 271 217 254T211 219Q211 170 240 145T315 119ZM335 559Q298 559 281 540T263 499Q263 475 279 452T333 397L472
275Q485 306 493 340T504 409L649 350Q645 302 632 256T597 168L674 102L577 -17Q558 -1 540 15T502 48Q464 17 416 -1T312 -19Q200 -19 120 39T40 214Q40 264 65 312T130 395Q115 417 107 442T98 497Q98 577 159 636T319 696Q374 696 423 681T516 638L468 521Q435
539 403 549T335 559Z" />
<glyph unicode="&apos;" glyph-name="quotesingle" horiz-adv-x="200" d="M190 641Q190 583 148 526T42 442L9 515Q27 528 44 544T66 580Q48 587 33 608T18 656Q18 687 43 714T104 742Q140 742 165 714T190 641Z" />
<glyph unicode="(" glyph-name="parenleft" horiz-adv-x="328" d="M41 321Q41 418 74 506T168 682L310 645Q267 586 235 492T202 322Q202 245 234 148T309 -1L168 -39Q109 39 75 130T41 321Z" />
<glyph unicode=")" glyph-name="parenright" horiz-adv-x="328" d="M288 322Q288 225 255 137T160 -39L19 -2Q62 57 94 151T126 321Q126 398 95 495T20 644L161 682Q219 604 253 513T288 322Z" />
<glyph unicode="*" glyph-name="asterisk" horiz-adv-x="422" d="M211 504L145 409L41 478L112 571Q103 573 64 581T15 590L48 706L145 680Q145 688 146 728T147 777H277V680L374 706L407 590L311 572L382 478L278 409L211 504Z" />
<glyph unicode="+" glyph-name="plus" horiz-adv-x="545" d="M526 210H351V1L198 8V210H29L19 338H198V530H351V338H516L526 210Z" />
<glyph unicode="," glyph-name="comma" horiz-adv-x="204" d="M192 45Q192 -12 150 -69T44 -154L10 -80Q28 -67 45 -51T67 -15Q50 -8 35 13T20 61Q20 92 45 119T106 147Q141 147 166 119T192 45Z" />
<glyph unicode="-" glyph-name="hyphen" horiz-adv-x="322" d="M304 209H30L19 338H294L304 209Z" />
<glyph unicode="." glyph-name="period" horiz-adv-x="191" d="M180 85Q180 48 156 24T96 0Q59 0 35 24T10 85Q10 121 34 145T96 170Q131 170 155 146T180 85Z" />
<glyph unicode="/" glyph-name="slash" horiz-adv-x="479" d="M474 706L175 0H5L303 706H474Z" />
<glyph unicode="0" glyph-name="zero" horiz-adv-x="659" d="M329 579Q447 579 530 504T614 286Q614 147 530 67T328 -14Q216 -14 130 64T44 284Q44 423 128 501T329 579ZM329 122Q378 122 414 165T450 283Q450 361 415 402T328 444Q280 444 245 403T209 287Q209
209 244 166T329 122Z" />
<glyph unicode="1" glyph-name="one" horiz-adv-x="477" d="M56 124H182V366Q165 357 148 349T113 332L40 464L237 566H347V124H430Q434 93 437 62T445 0H70Q67 31 64 62T56 124Z" />
<glyph unicode="2" glyph-name="two" horiz-adv-x="518" d="M452 405Q452 342 422 288T321 173L268 128H460L477 0H40V109L218 266Q267 309 286 339T306 393Q306 416 288 431T238 446Q202 446 162 424T103 388L33 497Q64 523 118 551T244 579Q363 579 407 524T452 405Z" />
<glyph unicode="3" glyph-name="three" horiz-adv-x="555" d="M497 403Q497 364 473 325T420 272Q453 256 480 214T508 121Q508 34 438 -21T251 -77Q196 -77 133 -58T16 -6L103 104Q145 78 179 67T252 55Q290 55 316 73T343 124Q343 158 318 178T247 198H165L149
327H225Q274 327 303 344T332 392Q332 414 312 430T251 446Q217 446 182 432T115 396L37 506Q88 545 146 562T264 579Q372 579 434 529T497 403Z" />
<glyph unicode="4" glyph-name="four" horiz-adv-x="615" d="M577 56H486V-65H321V56H43L24 180L363 571H486V186H587L577 56ZM213 186H321V319L213 186Z" />
<glyph unicode="5" glyph-name="five" horiz-adv-x="537" d="M69 189L88 566H472L456 436H228L224 353Q237 360 253 364T290 368Q395 368 449 304T503 152Q503 51 436 -13T252 -78Q197 -78 133 -58T21 -7L103 109Q146 85 180 73T255 61Q298 61 326 85T355 152Q355
189 334 211T279 233Q251 233 234 219T209 189H69Z" />
<glyph unicode="6" glyph-name="six" horiz-adv-x="597" d="M448 523Q395 510 338 473T244 383Q266 396 290 403T334 411Q435 411 501 353T567 210Q567 123 502 55T330 -13Q209 -13 127 56T44 265Q44 381 136 491T372 635L448 523ZM315 296Q282 296 254 277T211
235Q219 180 248 150T323 120Q361 120 382 147T403 205Q403 242 381 269T315 296Z" />
<glyph unicode="7" glyph-name="seven" horiz-adv-x="519" d="M33 -31L292 436H49L32 566H470L505 501L194 -74L33 -31Z" />
<glyph unicode="8" glyph-name="eight" horiz-adv-x="597" d="M300 -13Q183 -13 114 43T44 193Q44 239 72 279T137 341Q108 360 88 392T67 461Q67 541 133 592T300 643Q397 643 463 592T530 461Q530 424 510 392T461 340Q497 319 525 279T553 193Q553 103 486
45T300 -13ZM232 453Q232 429 249 411T300 388Q332 393 348 411T365 454Q365 473 348 491T298 509Q267 509 250 491T232 453ZM299 120Q333 120 361 142T390 198Q390 225 367 251T300 285Q254 278 231 252T208 198Q208 165 236 143T299 120Z" />
<glyph unicode="9" glyph-name="nine" horiz-adv-x="597" d="M149 43Q201 55 258 92T352 181Q330 169 307 162T264 155Q163 155 97 213T30 356Q30 443 95 511T269 579Q389 579 471 509T553 301Q553 185 461 75T225 -69L149 43ZM282 270Q315 270 342 289T386 331Q378
386 348 416T274 446Q236 446 215 419T194 361Q194 324 216 297T282 270Z" />
<glyph unicode=":" glyph-name="colon" horiz-adv-x="191" d="M180 390Q180 354 156 330T96 305Q59 305 35 329T10 390Q10 426 34 450T96 475Q131 475 155 451T180 390ZM180 85Q180 48 156 24T96 0Q59 0 35 24T10 85Q10 121 34 145T96 170Q131 170 155 146T180 85Z" />
<glyph unicode=";" glyph-name="semicolon" horiz-adv-x="198" d="M186 390Q186 354 162 330T101 305Q64 305 40 329T15 390Q15 426 39 450T101 475Q137 475 161 451T186 390ZM185 69Q185 12 142 -45T36 -130L3 -56Q21 -43 38 -27T60 9Q43 16 28 37T13 85Q13 116
37 143T98 170Q134 170 159 142T185 69Z" />
<glyph unicode="&lt;" glyph-name="less" horiz-adv-x="369" d="M316 5L25 213V287L316 493L346 353L199 250L346 147L316 5Z" />
<glyph unicode="=" glyph-name="equal" horiz-adv-x="514" d="M494 299H31L20 420H484L494 299ZM494 89H31L20 210H484L494 89Z" />
<glyph unicode="&gt;" glyph-name="greater" horiz-adv-x="369" d="M53 493L344 285V212L53 5L24 145L170 248L24 352L53 493Z" />
<glyph unicode="?" glyph-name="question" horiz-adv-x="463" d="M438 513Q438 454 395 404T265 318L251 195L126 234L118 396Q186 418 229 450T273 515Q273 539 255 553T211 567Q183 567 142 556T43 510L22 648Q71 677 118 689T214 701Q317 701 377 649T438 513ZM265
85Q265 48 240 24T180 0Q144 0 119 24T94 85Q94 121 119 145T180 170Q215 170 240 146T265 85Z" />
<glyph unicode="@" glyph-name="at" horiz-adv-x="824" d="M593 385L570 197Q570 190 573 186T579 181Q601 181 628 213T655 303Q655 380 603 437T447 495Q337 495 259 423T181 228Q181 124 253 69T419 13Q447 13 498 18T586 40Q596 15 606 -9T626 -59Q566 -90
513 -98T410 -106Q265 -106 151 -18T37 233Q37 385 145 502T444 620Q592 620 691 529T790 308Q790 185 721 120T570 55Q551 55 532 60T497 78Q479 69 459 64T416 58Q322 58 277 105T232 226Q232 320 296 382T450 444Q454 444 459 444T468 443L554 435L593 385ZM414
186Q426 186 433 196T442 219L457 329Q417 329 392 302T367 232Q367 216 378 201T414 186Z" />
<glyph unicode="A" glyph-name="A" horiz-adv-x="691" d="M343 476L270 273H419L343 476ZM425 680L682 18L520 0L467 143H224L172 0H9L267 680H425Z" />
<glyph unicode="B" glyph-name="B" horiz-adv-x="647" d="M571 482Q570 445 555 416T515 363Q557 336 583 296T610 201Q610 92 530 46T339 0H74V680H310Q420 680 495 634T571 482ZM300 548H238V415H287Q338 415 369 429T400 479Q400 516 374 532T300 548ZM340
285H238V130H338Q384 130 412 148T440 204Q440 243 413 264T340 285Z" />
<glyph unicode="C" glyph-name="C" horiz-adv-x="602" d="M368 558Q300 558 258 498T216 338Q216 242 256 182T369 122Q409 122 443 132T505 157L567 35Q528 12 473 0T369 -13Q206 -13 126 86T46 337Q46 494 131 593T368 693Q411 693 465 680T561 641L512 529Q461
545 433 551T368 558Z" />
<glyph unicode="D" glyph-name="D" horiz-adv-x="714" d="M353 0H74V680H353Q512 680 593 586T674 344Q674 186 586 93T353 0ZM351 548H238V131H344Q414 131 459 182T504 344Q504 435 466 491T351 548Z" />
<glyph unicode="E" glyph-name="E" horiz-adv-x="585" d="M565 0H74V680H510L528 550H238V406H438L456 277H238V128H546Q551 96 555 64T565 0Z" />
<glyph unicode="F" glyph-name="F" horiz-adv-x="525" d="M453 267H238V0H74V680H496Q501 648 505 615T514 550H238V396H435L453 267Z" />
<glyph unicode="G" glyph-name="G" horiz-adv-x="669" d="M606 37Q566 14 501 1T380 -13Q217 -13 132 82T46 337Q46 500 141 596T390 693Q433 693 495 680T598 641L549 529Q498 545 464 551T392 558Q320 558 268 503T216 338Q216 228 263 175T383 122Q403 122
422 124T458 130V263H333L326 385H606V37Z" />
<glyph unicode="H" glyph-name="H" horiz-adv-x="732" d="M238 685V403H493V680H657V0H493V273H238V0H74V685H238Z" />
<glyph unicode="I" glyph-name="I" horiz-adv-x="313" d="M238 680V0H74V680H238Z" />
<glyph unicode="J" glyph-name="J" horiz-adv-x="320" d="M251 680V158Q251 84 212 46T71 -24Q55 7 38 39T5 103Q59 124 72 146T86 200V680H251Z" />
<glyph unicode="K" glyph-name="K" horiz-adv-x="684" d="M234 680V427L501 695L627 602L406 380L684 0H476L291 265L234 207V0H70V680H234Z" />
<glyph unicode="L" glyph-name="L" horiz-adv-x="559" d="M549 0H75V680H239V129H531L549 0Z" />
<glyph unicode="M" glyph-name="M" horiz-adv-x="775" d="M366 198L238 358V0H74V680H185L398 402Q447 471 495 541T593 680H700V0H535V350Q510 314 484 279T431 207Q415 206 399 203T366 198Z" />
<glyph unicode="N" glyph-name="N" horiz-adv-x="749" d="M674 680V0H518Q448 97 378 198T238 396V0H74V680H230L510 276V680H674Z" />
<glyph unicode="O" glyph-name="O" horiz-adv-x="742" d="M371 695Q534 695 615 593T697 344Q697 186 611 86T371 -14Q209 -14 128 88T46 337Q46 494 133 594T371 695ZM370 123Q444 123 485 178T527 344Q527 437 491 497T373 557Q301 557 258 497T215 338Q215
245 251 184T370 123Z" />
<glyph unicode="P" glyph-name="P" horiz-adv-x="646" d="M75 0V680H336Q449 680 530 623T612 444Q612 325 525 268T328 211H239V0H75ZM331 549H239V342H333Q380 342 411 368T442 441Q442 493 413 521T331 549Z" />
<glyph unicode="Q" glyph-name="Q" horiz-adv-x="742" d="M371 695Q534 695 615 593T697 344Q697 273 679 213T627 106L690 40L590 -47L524 20Q491 4 453 -5T371 -14Q209 -14 128 88T46 337Q46 494 133 594T371 695ZM370 123Q381 123 392 124T414 130L331 215L440
305L510 230Q518 252 522 281T527 344Q527 437 491 497T373 557Q301 557 258 497T215 338Q215 245 251 184T370 123Z" />
<glyph unicode="R" glyph-name="R" horiz-adv-x="678" d="M330 548H238V359H332Q380 359 410 383T441 453Q441 502 412 525T330 548ZM481 0Q450 57 420 114T360 229Q352 228 344 228T327 228H238V0H74V680H335Q448 680 530 627T612 455Q612 393 584 348T512 276Q551
207 589 138T667 0H481Z" />
<glyph unicode="S" glyph-name="S" horiz-adv-x="560" d="M41 503Q41 584 107 639T288 694Q339 694 392 679T485 640L435 523Q389 540 358 548T290 557Q254 557 233 542T211 502Q211 474 244 455T323 412Q395 375 461 321T527 183Q527 99 458 43T263 -13Q214 -13
148 4T47 43L97 169Q125 153 172 139T259 124Q308 124 333 142T358 185Q358 208 323 230T245 274Q176 310 109 362T41 503Z" />
<glyph unicode="T" glyph-name="T" horiz-adv-x="606" d="M8 680H579Q584 647 588 615T598 550H375V0H211V550H8V680Z" />
<glyph unicode="U" glyph-name="U" horiz-adv-x="724" d="M230 680V264Q230 193 267 158T361 123Q419 123 456 158T493 264V680H657V255Q657 130 576 59T361 -12Q228 -12 147 58T66 255V680H230Z" />
<glyph unicode="V" glyph-name="V" horiz-adv-x="691" d="M266 0L9 662L170 680L347 203L518 680H682L424 0H266Z" />
<glyph unicode="W" glyph-name="W" horiz-adv-x="1106" d="M702 0L550 439L403 0H244L9 662L170 680L325 209L472 680H632L786 210L934 680H1098L862 0H702Z" />
<glyph unicode="X" glyph-name="X" horiz-adv-x="718" d="M9 12Q69 94 129 176T250 340L13 657Q59 663 105 669T198 681L352 474Q392 525 432 577T514 680H709L450 342L705 0H505Q465 51 427 104T348 209Q307 154 266 99T183 -11L9 12Z" />
<glyph unicode="Y" glyph-name="Y" horiz-adv-x="647" d="M239 0V267L9 662L179 680L320 422L469 680H639L403 264V0H239Z" />
<glyph unicode="Z" glyph-name="Z" horiz-adv-x="595" d="M574 560Q490 461 406 357T214 128H558Q562 96 566 64T574 0H36L18 118L369 550H63Q59 583 55 615T47 680H556L574 560Z" />
<glyph unicode="[" glyph-name="bracketleft" horiz-adv-x="407" d="M233 566V41H380Q384 10 388 -22T398 -87H69V696H398L380 566H233Z" />
<glyph unicode="\" glyph-name="backslash" horiz-adv-x="479" d="M304 -4L5 710H175L474 -4H304Z" />
<glyph unicode="]" glyph-name="bracketright" horiz-adv-x="407" d="M172 41V566H25Q21 599 17 631T8 696H337V-87H8L25 41H172Z" />
<glyph unicode="^" glyph-name="asciicircum" horiz-adv-x="481" d="M179 142H17L180 412H302L464 142H305L242 255L179 142Z" />
<glyph unicode="_" glyph-name="underscore" horiz-adv-x="429" d="M410 0H30L19 129H400L410 0Z" />
<glyph unicode="`" glyph-name="grave" horiz-adv-x="257" d="M12 775H176L246 588H120L12 775Z" />
<glyph unicode="a" glyph-name="a" horiz-adv-x="513" d="M217 120Q236 120 256 129T296 154V203H225Q202 203 188 190T174 157Q174 142 186 131T217 120ZM256 501Q350 501 405 447T460 306V0H384L351 38Q327 17 291 3T216 -11Q125 -11 81 34T36 152Q36 230 88
267T224 305H295Q292 332 274 347T227 362Q199 362 163 353T99 332L55 455Q90 473 147 487T256 501Z" />
<glyph unicode="b" glyph-name="b" horiz-adv-x="601" d="M227 706V473Q249 486 279 494T337 502Q451 502 508 430T566 248Q566 139 509 64T331 -11Q292 -11 251 4T176 44L146 0H63V695L227 706ZM397 246Q397 294 373 330T295 367Q281 367 262 362T227 348V153Q243
140 264 132T305 124Q355 124 376 164T397 246Z" />
<glyph unicode="c" glyph-name="c" horiz-adv-x="487" d="M306 365Q263 365 234 331T204 242Q204 187 233 156T306 124Q334 124 357 130T412 152L459 38Q419 7 372 -2T294 -11Q176 -11 105 56T34 242Q34 362 105 431T294 501Q324 501 371 492T459 451L412 337Q381
352 358 358T306 365Z" />
<glyph unicode="d" glyph-name="d" horiz-adv-x="605" d="M305 124Q320 124 340 130T377 145V335Q360 349 337 358T295 367Q245 367 225 327T204 245Q204 197 227 161T305 124ZM542 706V0H458L425 49Q400 26 359 8T263 -11Q150 -11 92 61T34 243Q34 352 92 427T271
503Q296 503 324 496T377 475V695L542 706Z" />
<glyph unicode="e" glyph-name="e" horiz-adv-x="550" d="M289 501Q405 501 461 426T518 248V193H212Q222 158 250 141T321 123Q353 123 384 129T446 151L492 38Q453 9 396 -1T308 -11Q187 -11 111 52T34 242Q34 362 106 431T289 501ZM285 367Q255 367 236 348T209
295H361Q357 323 339 345T285 367Z" />
<glyph unicode="f" glyph-name="f" horiz-adv-x="437" d="M314 702Q345 702 381 691T435 663L388 549Q372 558 354 562T324 566Q291 566 274 547T257 494V459H377L402 330H257V0H93V330H15V459H93V513Q93 606 157 654T314 702Z" />
<glyph unicode="g" glyph-name="g" horiz-adv-x="605" d="M203 245Q203 196 226 160T304 124Q320 124 340 130T377 145V334Q360 348 337 357T295 367Q244 367 224 327T203 245ZM541 484V-2Q541 -102 475 -158T281 -214Q250 -214 189 -201T84 -158Q96 -130 108
-101T133 -43Q181 -66 213 -73T278 -81Q327 -81 352 -62T377 -4V15Q352 4 323 -3T262 -11Q149 -11 92 61T34 242Q34 352 92 427T271 502Q310 502 352 486T427 444L458 484H541Z" />
<glyph unicode="h" glyph-name="h" horiz-adv-x="611" d="M370 502Q471 502 514 445T558 301V0H394V296Q394 330 375 348T325 367Q304 367 277 356T227 332V0H63V695L227 706V464Q258 481 297 491T370 502Z" />
<glyph unicode="i" glyph-name="i" horiz-adv-x="286" d="M233 641Q233 604 206 578T142 552Q105 552 79 578T53 641Q53 678 79 705T142 732Q179 732 206 705T233 641ZM225 485V0H60V485H225Z" />
<glyph unicode="j" glyph-name="j" horiz-adv-x="294" d="M59 642Q59 679 85 705T148 732Q186 732 212 706T239 642Q239 605 213 579T148 552Q111 552 85 578T59 642ZM231 485V-2Q231 -77 185 -119T36 -194L-29 -74Q24 -55 45 -32T67 26V485H231Z" />
<glyph unicode="k" glyph-name="k" horiz-adv-x="553" d="M227 706V333Q274 374 322 415T417 499Q441 470 465 442T513 385L379 278L551 0H371L264 187Q255 180 246 172T227 157V0H63V695L227 706Z" />
<glyph unicode="l" glyph-name="l" horiz-adv-x="290" d="M227 706V0H63V695L227 706Z" />
<glyph unicode="m" glyph-name="m" horiz-adv-x="908" d="M674 503Q770 503 813 445T856 301V0H691V297Q691 331 675 349T630 367Q609 367 584 356T536 331Q537 324 537 316T538 301V0H373V297Q373 331 357 349T312 367Q293 367 270 358T225 336V0H61V484H144L180
442Q211 464 257 483T357 503Q407 503 442 486T499 441Q529 464 576 483T674 503Z" />
<glyph unicode="n" glyph-name="n" horiz-adv-x="609" d="M368 503Q469 503 512 445T556 301V0H392V297Q392 331 374 349T324 367Q303 367 275 356T225 332V0H61V484H144L182 439Q214 462 264 482T368 503Z" />
<glyph unicode="o" glyph-name="o" horiz-adv-x="603" d="M301 501Q422 501 495 433T569 240Q569 120 491 55T296 -11Q180 -11 107 54T34 245Q34 365 110 433T301 501ZM298 124Q345 124 372 152T399 240Q399 295 375 330T304 365Q256 365 230 334T204 245Q204
188 228 156T298 124Z" />
<glyph unicode="p" glyph-name="p" horiz-adv-x="601" d="M397 246Q397 294 373 330T295 367Q276 367 259 361T227 347V153Q243 140 264 132T305 124Q355 124 376 164T397 246ZM63 484H145L175 444Q211 472 253 487T337 502Q451 502 508 430T566 248Q566 139 509
64T331 -11Q306 -11 279 -4T227 15V-209L63 -219V484Z" />
<glyph unicode="q" glyph-name="q" horiz-adv-x="605" d="M542 484V-208L377 -219V16Q353 4 324 -3T263 -11Q150 -11 92 61T34 243Q34 352 92 427T271 503Q311 503 353 486T428 444L459 484H542ZM305 124Q320 124 340 130T377 145V335Q360 349 337 358T295 367Q245
367 225 327T204 245Q204 197 227 161T305 124Z" />
<glyph unicode="r" glyph-name="r" horiz-adv-x="382" d="M341 485L374 353Q339 353 299 340T225 298V0H60V484H143L187 427Q217 449 259 467T341 485Z" />
<glyph unicode="s" glyph-name="s" horiz-adv-x="459" d="M262 309Q322 288 376 251T430 147Q430 72 380 31T228 -11Q197 -11 136 4T34 50L81 164Q112 149 150 137T215 124Q238 124 250 131T262 148Q262 159 250 168T210 186Q150 206 96 242T41 343Q41 417 96
459T247 501Q277 501 330 487T424 442L377 328Q346 344 315 354T255 365Q232 365 222 358T211 342Q211 333 221 326T262 309Z" />
<glyph unicode="t" glyph-name="t" horiz-adv-x="434" d="M302 -14Q211 -14 146 33T80 173V343H9V471H80V597L244 621V471H351L376 343H244V194Q244 161 261 141T313 121Q326 121 343 125T377 138L424 25Q407 9 370 -2T302 -14Z" />
<glyph unicode="u" glyph-name="u" horiz-adv-x="601" d="M237 -19Q136 -19 94 39T52 183V484H217V187Q217 153 234 135T282 117Q301 117 327 127T375 150V484H540V0H457L419 43Q388 21 340 1T237 -19Z" />
<glyph unicode="v" glyph-name="v" horiz-adv-x="546" d="M195 0L9 467L172 485L274 204L371 485H537L346 0H195Z" />
<glyph unicode="w" glyph-name="w" horiz-adv-x="824" d="M500 0L409 267L320 0H173L9 467L172 485L252 208L330 485H492L575 208L650 485H816L647 0H500Z" />
<glyph unicode="x" glyph-name="x" horiz-adv-x="578" d="M8 0L188 242L14 463Q56 468 98 474T183 486L285 354L388 485H569L383 229Q429 172 473 115T564 0H380L286 117Q263 88 240 59T192 0H8Z" />
<glyph unicode="y" glyph-name="y" horiz-adv-x="546" d="M177 -9L187 17L8 467L171 485Q196 415 222 344T273 204Q298 273 322 344T371 485H537L322 -59Q298 -118 238 -161T108 -220L52 -90Q87 -75 127 -55T177 -9Z" />
<glyph unicode="z" glyph-name="z" horiz-adv-x="471" d="M432 393Q382 327 332 261T230 130H433L448 0H38Q34 21 29 42T18 85L221 354H56L37 485H424Q424 483 424 481T425 477Q427 456 429 435T432 393Z" />
<glyph unicode="{" glyph-name="braceleft" horiz-adv-x="310" d="M247 222Q247 189 230 160T212 103Q212 93 221 83T250 73H290L303 -40H236Q156 -40 120 -8T84 85Q84 116 99 157T115 218Q115 235 103 246T75 258H30V358H75Q91 358 103 369T115 398Q115 418 108
439T96 479Q92 492 88 506T84 533Q84 595 122 627T245 659H303L290 544H250Q230 544 221 535T212 515Q212 485 229 455T246 390Q246 358 237 340T212 309Q227 295 237 274T247 222Z" />
<glyph unicode="|" glyph-name="bar" horiz-adv-x="343" d="M253 699V-13L89 0V713Q92 713 95 713T102 712Q140 708 177 705T253 699Z" />
<glyph unicode="}" glyph-name="braceright" horiz-adv-x="310" d="M62 395Q62 428 79 457T96 515Q96 525 88 534T59 544H19L7 659H73Q151 659 188 626T226 533Q226 500 210 461T193 398Q193 380 205 369T233 358H278V259H233Q217 259 205 248T193 218Q193 198
201 178T213 138Q217 125 221 111T226 85Q226 21 186 -9T63 -40H7L19 73H59Q79 73 87 83T96 103Q96 128 81 155T64 211Q63 219 63 227T63 242Q65 267 74 282T97 308Q81 322 72 343T62 395Z" />
<glyph unicode="~" glyph-name="asciitilde" horiz-adv-x="504" d="M136 173H14Q14 263 53 316T162 369Q208 369 253 353T330 336Q345 336 355 349T367 381H489Q489 291 457 238T357 185Q309 185 268 202T186 219Q171 219 154 205T136 173Z" />
<glyph unicode="&#xa0;" glyph-name="uni00A0" horiz-adv-x="225" />
<glyph unicode="&#xa1;" glyph-name="exclamdown" horiz-adv-x="246" d="M37 625Q37 661 62 685T122 710Q159 710 183 686T208 625Q208 588 184 564T122 539Q87 539 62 563T37 625ZM187 463L205 0H39L58 506L187 463Z" />
<glyph unicode="&#xa2;" glyph-name="cent" horiz-adv-x="487" d="M306 365Q263 365 234 331T204 242Q204 187 233 156T306 124Q334 124 357 130T412 152L459 38Q437 20 412 10T361 -5V-129L218 -118V-3Q132 16 83 79T34 242Q34 341 83 406T217 492V624H360V493Q385
489 411 478T459 451L412 337Q381 352 358 358T306 365Z" />
<glyph unicode="&#xa3;" glyph-name="sterling" horiz-adv-x="513" d="M37 403H116V495Q116 582 176 632T327 683Q360 683 399 673T459 644L411 531Q395 539 378 543T347 548Q314 548 298 528T281 476V403H409L434 275H281V192Q281 174 278 158T270 128H484L502
0H47V128H56Q86 129 101 149T116 200V275H37V403Z" />
<glyph unicode="&#xa4;" glyph-name="currency" horiz-adv-x="756" d="M274 247Q275 203 305 173T378 143Q423 143 453 173T484 248Q484 292 453 322T378 352Q333 352 304 322T274 247ZM379 -12Q345 -11 311 -4T248 18Q232 2 192 -41T138 -97L28 18L138 127Q125
152 118 182T110 246Q110 280 118 311T139 367L20 478L141 589L248 477Q276 491 310 499T378 508Q412 508 446 500T508 478Q524 494 564 536T618 592L727 478L618 369Q631 344 639 314T647 249Q647 215 639 184T617 126L735 17L614 -94L508 18Q480 4 447 -3T379
-12Z" />
<glyph unicode="&#xa5;" glyph-name="yen" horiz-adv-x="647" d="M550 55H402V0H238V55H103L92 164H238V206H103L92 315H210Q159 401 109 488T8 662L178 680Q214 615 249 551T319 421Q356 486 393 550T468 680H638L431 315H540L550 206H402V164H540L550 55Z" />
<glyph unicode="&#xa6;" glyph-name="brokenbar" horiz-adv-x="343" d="M253 699V398Q215 401 178 404T102 411Q99 411 96 411T89 412V713Q92 713 95 713T102 712Q140 708 177 705T253 699ZM253 287V-13L89 0V300L253 287Z" />
<glyph unicode="&#xa7;" glyph-name="section" horiz-adv-x="688" d="M315 305Q349 289 383 269T445 224Q464 231 474 244T484 271Q484 294 449 316T371 360Q338 376 305 396T242 440Q224 435 214 423T204 396Q204 368 237 349T315 305ZM167 591Q168 672 233 726T414
780Q464 780 517 765T611 726L561 609Q514 627 484 635T416 644Q380 644 358 629T336 589Q336 564 363 546T431 508L449 499Q521 462 587 408T653 269Q653 211 618 165T518 97Q519 92 520 87T522 77Q521 -7 451 -63T256 -119Q207 -119 141 -102T41 -62L90 63Q118
47 165 33T252 18Q301 18 326 36T352 79Q352 102 317 124T238 168Q169 203 102 256T35 399Q35 456 70 501T169 567Q168 571 168 579T167 591Z" />
<glyph unicode="&#xa8;" glyph-name="dieresis" horiz-adv-x="383" d="M166 680Q166 647 144 625T89 603Q58 603 35 625T12 680Q12 711 35 733T89 756Q122 756 144 734T166 680ZM371 680Q371 647 349 625T293 603Q262 603 239 625T216 680Q216 711 239 733T293
756Q326 756 348 734T371 680Z" />
<glyph unicode="&#xa9;" glyph-name="copyright" horiz-adv-x="888" d="M444 -43Q268 -43 161 67T54 336Q54 496 161 606T444 717Q622 717 728 607T835 336Q835 178 729 68T444 -43ZM444 64Q569 64 642 142T716 337Q716 453 647 532T444 611Q320 611 246 532T171
337Q171 221 245 143T444 64ZM469 442Q432 442 407 414T381 336Q381 287 406 260T469 233Q494 233 515 239T564 260L605 155Q570 127 528 119T458 111Q354 111 291 170T227 336Q227 443 292 504T458 566Q485 566 527 558T605 522L564 417Q536 430 516 436T469 442Z"
/>
<glyph unicode="&#xaa;" glyph-name="ordfeminine" horiz-adv-x="371" d="M159 452Q172 452 183 456T205 470V483H163Q151 483 144 478T137 466Q137 460 143 456T159 452ZM180 702Q246 702 285 665T324 566V353H269L245 380Q229 365 204 356T152 346Q89 346 58
377T27 460Q27 514 63 541T158 568H199Q195 578 185 584T160 591Q141 591 116 585T71 570L40 670Q65 683 105 692T180 702Z" />
<glyph unicode="&#xab;" glyph-name="guillemotleft" horiz-adv-x="399" d="M356 76L197 223V269L356 417L385 316L312 246L385 176L356 76ZM178 76L20 223V269L178 417L208 316L135 246L208 176L178 76Z" />
<glyph unicode="&#xac;" glyph-name="logicalnot" horiz-adv-x="526" d="M512 356V110L364 117V288H23Q20 321 17 353T12 417H497L512 356Z" />
<glyph unicode="&#xad;" glyph-name="softhyphen" horiz-adv-x="130" />
<glyph unicode="&#xae;" glyph-name="registered" horiz-adv-x="745" d="M352 142Q195 142 103 240T11 479Q11 622 103 720T352 819Q510 819 602 721T694 479Q694 338 602 240T352 142ZM352 234Q465 235 529 305T594 480Q594 586 530 655T352 725Q239 725 175
656T110 480Q110 375 174 305T352 234ZM340 584H308V501H341Q366 501 383 511T400 543Q400 568 384 576T340 584ZM400 301Q388 332 376 362T350 423H308V301H208V664H357Q416 664 462 636T509 544Q509 509 492 484T448 445Q464 409 480 373T513 301H400Z" />
<glyph unicode="&#xaf;" glyph-name="overscore" horiz-adv-x="304" d="M12 742H293V613H12V742Z" />
<glyph unicode="&#xb0;" glyph-name="degree" horiz-adv-x="280" d="M271 595Q271 542 232 507T141 471Q87 471 48 506T9 595Q9 648 48 684T141 721Q192 721 231 685T271 595ZM141 626Q129 626 120 617T111 595Q111 583 120 573T141 563Q154 563 163 572T172 593Q172
606 163 616T141 626Z" />
<glyph unicode="&#xb1;" glyph-name="plusminus" horiz-adv-x="500" d="M479 294H320V146L184 153V294H32L22 405H184V557H320V405H470L479 294ZM478 0H31L21 112H470L478 0Z" />
<glyph unicode="&#xb2;" glyph-name="twosuperior" horiz-adv-x="406" d="M350 641Q350 593 328 553T252 467L219 438H353L365 337H37V424L168 537Q199 565 213 587T229 632Q229 646 217 655T184 665Q157 665 129 649T86 622L33 710Q57 729 97 750T190 771Q280
771 315 729T350 641Z" />
<glyph unicode="&#xb3;" glyph-name="threesuperior" horiz-adv-x="426" d="M376 638Q376 610 358 581T318 541Q343 528 364 497T385 428Q385 363 332 321T192 279Q151 279 104 293T16 333L82 421Q113 402 137 393T188 384Q216 384 233 397T251 430Q251 455 234
468T189 482H127L116 584H173Q210 584 226 598T243 630Q243 643 230 654T186 665Q161 665 138 655T91 627L32 716Q71 745 114 758T202 771Q283 771 329 733T376 638Z" />
<glyph unicode="&#xb4;" glyph-name="acute" horiz-adv-x="257" d="M81 775H246L138 588H12L81 775Z" />
<glyph unicode="&#xb5;" glyph-name="mu" horiz-adv-x="592" d="M247 -18Q241 -18 236 -18T227 -16V-209L63 -219V484H227V187Q227 153 244 135T292 116Q311 116 337 126T385 149V484H549V0H466Q456 10 448 21T429 43Q398 21 350 2T247 -18Z" />
<glyph unicode="&#xb6;" glyph-name="paragraph" horiz-adv-x="1026" d="M727 0V550H540V0H376V206H352Q235 206 144 264T53 446Q53 572 137 626T339 680H1014V550H891V0H727Z" />
<glyph unicode="&#xb7;" glyph-name="middot" horiz-adv-x="191" d="M180 263Q180 226 156 202T96 178Q59 178 35 202T10 263Q10 299 34 323T96 348Q131 348 155 324T180 263Z" />
<glyph unicode="&#xb8;" glyph-name="cedilla" horiz-adv-x="269" d="M93 13H207L188 -36Q223 -48 240 -78T257 -134Q257 -190 215 -219T121 -248Q95 -248 65 -238T12 -211L47 -129Q58 -134 75 -140T106 -146Q119 -146 128 -142T138 -128Q138 -114 116 -103T52
-88L93 13Z" />
<glyph unicode="&#xb9;" glyph-name="onesuperior" horiz-adv-x="386" d="M53 438H148V606L96 581L40 686L192 763H279V438H343Q346 413 349 388T354 337H63L53 438Z" />
<glyph unicode="&#xba;" glyph-name="ordmasculine" horiz-adv-x="407" d="M27 524Q27 606 74 654T203 702Q287 702 333 653T380 522Q380 441 330 393T198 345Q117 345 72 393T27 524ZM205 590Q182 590 169 575T155 524Q155 490 165 473T200 456Q227 456 239 472T251
521Q251 553 241 571T205 590Z" />
<glyph unicode="&#xbb;" glyph-name="guillemotright" horiz-adv-x="399" d="M44 417L201 270V224L44 76L14 176L86 246L14 317L44 417ZM220 417L379 270V224L220 76L191 176L264 246L191 317L220 417Z" />
<glyph unicode="&#xbc;" glyph-name="onequarter" horiz-adv-x="971" d="M53 438H148V606L96 581L40 686L192 763H279V438H343Q346 413 349 388T354 337H63L53 438ZM663 489Q593 367 522 243T380 0H223Q292 122 363 245T504 489H663ZM934 -77H860V-165H727V-77H517L502
23L763 324H860V28H943L934 -77ZM653 28H727V116L653 28Z" />
<glyph unicode="&#xbd;" glyph-name="onehalf" horiz-adv-x="970" d="M53 438H148V606L96 581L40 686L192 763H279V438H343Q346 413 349 388T354 337H63L53 438ZM677 489Q606 367 535 243T394 0H236Q305 122 376 245T517 489H677ZM933 194Q933 138 903 94T802
-8H936L948 -109H620V-21Q653 6 685 34T751 90Q783 118 797 140T812 185Q812 199 800 209T767 219Q740 219 711 203T669 176Q656 198 643 220T616 264Q640 283 680 303T773 324Q863 324 898 282T933 194Z" />
<glyph unicode="&#xbe;" glyph-name="threequarters" horiz-adv-x="986" d="M679 489L396 0H238L520 489H679ZM376 638Q376 610 358 581T318 541Q343 528 364 497T385 428Q385 363 332 321T192 279Q151 279 104 293T16 333L82 421Q113 402 137 393T188 384Q216
384 233 397T251 430Q251 455 234 468T189 482H127L116 584H173Q210 584 226 598T243 630Q243 643 230 654T186 665Q161 665 138 655T91 627L32 716Q71 745 114 758T202 771Q283 771 329 733T376 638ZM950 -77H876V-166H742V-77H533L518 24L779 325H876V29H958L950
-77ZM668 29H742V116L668 29Z" />
<glyph unicode="&#xbf;" glyph-name="questiondown" horiz-adv-x="477" d="M207 579Q207 615 231 639T292 664Q328 664 353 640T378 579Q378 543 353 518T292 493Q256 493 232 518T207 579ZM34 151Q34 210 77 260T207 346L220 468L346 430L354 269Q286 247 242
214T198 149Q198 125 216 111T261 97Q289 97 330 108T429 154L450 16Q401 -13 354 -25T257 -37Q154 -37 94 15T34 151Z" />
<glyph unicode="&#xc0;" glyph-name="Agrave" horiz-adv-x="691" d="M191 922H352L420 738H296L191 922ZM343 476L270 273H419L343 476ZM425 680L682 18L520 0L467 143H224L172 0H9L267 680H425Z" />
<glyph unicode="&#xc1;" glyph-name="Aacute" horiz-adv-x="691" d="M333 922H494L389 738H265L333 922ZM343 476L270 273H419L343 476ZM425 680L682 18L520 0L467 143H224L172 0H9L267 680H425Z" />
<glyph unicode="&#xc2;" glyph-name="Acircumflex" horiz-adv-x="691" d="M281 739H122L289 926H383L550 739H395L338 802L281 739ZM343 476L270 273H419L343 476ZM425 680L682 18L520 0L467 143H224L172 0H9L267 680H425Z" />
<glyph unicode="&#xc3;" glyph-name="Atilde" horiz-adv-x="691" d="M274 750H162Q162 832 200 864T282 896Q315 896 338 879T386 862Q396 862 403 872T410 892H518Q518 809 482 777T400 745Q368 745 345 762T298 780Q289 780 282 770T274 750ZM343 476L270 273H419L343
476ZM425 680L682 18L520 0L467 143H224L172 0H9L267 680H425Z" />
<glyph unicode="&#xc4;" glyph-name="Adieresis" horiz-adv-x="691" d="M316 830Q316 797 294 775T240 753Q209 753 186 775T162 830Q162 861 185 883T240 906Q272 906 294 884T316 830ZM521 830Q521 797 499 775T443 753Q412 753 390 775T367 830Q367 861 389
883T443 906Q477 906 499 884T521 830ZM343 476L270 273H419L343 476ZM425 680L682 18L520 0L467 143H224L172 0H9L267 680H425Z" />
<glyph unicode="&#xc5;" glyph-name="Aring" horiz-adv-x="691" d="M460 853Q460 805 425 775T342 744Q295 744 260 774T225 853Q225 900 260 932T342 965Q389 965 424 933T460 853ZM376 853Q376 866 367 875T344 885Q331 885 321 876T310 853Q310 840 320 830T344
820Q357 820 366 830T376 853ZM343 476L270 273H419L343 476ZM425 680L682 18L520 0L467 143H224L172 0H9L267 680H425Z" />
<glyph unicode="&#xc6;" glyph-name="AE" horiz-adv-x="979" d="M352 268H467V434Q439 392 410 351T352 268ZM6 21L463 680H904L922 550H632V406H832L850 277H632V128H940L958 0H467V138H262L164 -1Q125 4 85 9T6 21Z" />
<glyph unicode="&#xc7;" glyph-name="Ccedilla" horiz-adv-x="602" d="M368 558Q300 558 258 498T216 338Q216 242 256 182T369 122Q409 122 443 132T505 157L567 35Q538 18 499 7T422 -10L412 -36Q447 -48 464 -78T481 -134Q481 -190 439 -219T345 -248Q319 -248
289 -238T236 -211L271 -129Q282 -134 299 -140T330 -146Q343 -146 352 -142T362 -128Q362 -114 340 -103T276 -88L307 -9Q175 9 111 104T46 337Q46 494 131 593T368 693Q411 693 465 680T561 641L512 529Q461 545 433 551T368 558Z" />
<glyph unicode="&#xc8;" glyph-name="Egrave" horiz-adv-x="585" d="M170 922H331Q348 876 365 830T399 738H276L170 922ZM565 0H74V680H510L528 550H238V406H438L456 277H238V128H546Q551 96 555 64T565 0Z" />
<glyph unicode="&#xc9;" glyph-name="Eacute" horiz-adv-x="585" d="M296 922H457L351 738H228Q244 784 261 830T296 922ZM565 0H74V680H510L528 550H238V406H438L456 277H238V128H546Q551 96 555 64T565 0Z" />
<glyph unicode="&#xca;" glyph-name="Ecircumflex" horiz-adv-x="585" d="M241 739H83Q124 785 166 832T249 926H344L511 739H356Q342 755 328 770T299 802Q285 786 271 771T241 739ZM565 0H74V680H510L528 550H238V406H438L456 277H238V128H546Q551 96 555 64T565 0Z" />
<glyph unicode="&#xcb;" glyph-name="Edieresis" horiz-adv-x="585" d="M276 830Q276 797 254 775T199 753Q168 753 145 775T121 830Q121 861 144 883T199 906Q232 906 254 884T276 830ZM480 830Q480 797 458 775T403 753Q372 753 349 775T326 830Q326 861 349
883T403 906Q436 906 458 884T480 830ZM565 0H75V680H510L528 551H239V407H439L457 277H239V129H547L565 0Z" />
<glyph unicode="&#xcc;" glyph-name="Igrave" horiz-adv-x="313" d="M13 922H175Q191 876 208 830T242 738H119L13 922ZM238 680V0H74V680H238Z" />
<glyph unicode="&#xcd;" glyph-name="Iacute" horiz-adv-x="313" d="M139 922H300L195 738H71Q88 784 105 830T139 922ZM238 680V0H74V680H238Z" />
<glyph unicode="&#xce;" glyph-name="Icircumflex" horiz-adv-x="313" d="M102 739H-55L110 926H205L371 739H217Q203 755 189 770T160 802Q146 786 132 771T102 739ZM238 680V0H74V680H238Z" />
<glyph unicode="&#xcf;" glyph-name="Idieresis" horiz-adv-x="313" d="M127 829Q127 797 105 775T51 753Q20 753 -3 775T-26 829Q-26 861 -3 883T51 906Q83 906 105 884T127 829ZM332 829Q332 797 310 775T254 753Q223 753 201 775T178 829Q178 861 200 883T254
906Q288 906 310 884T332 829ZM238 680V0H74V680H238Z" />
<glyph unicode="&#xd0;" glyph-name="Eth" horiz-adv-x="721" d="M360 0H82V277H21Q17 309 14 341T6 405H82V680H360Q520 680 600 586T681 344Q681 186 594 93T360 0ZM355 277H246V131H352Q421 131 466 182T512 344Q512 435 473 491T358 548H246V405H340L355 277Z" />
<glyph unicode="&#xd1;" glyph-name="Ntilde" horiz-adv-x="749" d="M306 750H193Q193 832 231 864T314 896Q346 896 370 879T418 862Q427 862 434 871T441 891H549Q549 808 513 777T432 745Q399 745 376 762T330 779Q320 779 313 769T306 750ZM674 680V0H518Q448
97 378 198T238 396V0H74V680H230L510 277V680H674Z" />
<glyph unicode="&#xd2;" glyph-name="Ograve" horiz-adv-x="742" d="M225 922H386L454 738H330L225 922ZM371 695Q534 695 615 593T697 344Q697 186 611 86T371 -14Q209 -14 128 88T46 337Q46 494 133 594T371 695ZM370 123Q444 123 485 178T527 344Q527 437 491
497T373 557Q301 557 258 497T215 338Q215 245 251 184T370 123Z" />
<glyph unicode="&#xd3;" glyph-name="Oacute" horiz-adv-x="742" d="M361 922H522L416 738H293L361 922ZM371 695Q534 695 615 593T697 344Q697 186 611 86T371 -14Q209 -14 128 88T46 337Q46 494 133 594T371 695ZM370 123Q444 123 485 178T527 344Q527 437 491
497T373 557Q301 557 258 497T215 338Q215 245 251 184T370 123Z" />
<glyph unicode="&#xd4;" glyph-name="Ocircumflex" horiz-adv-x="742" d="M314 739H155L321 926H416L583 739H428L371 802L314 739ZM371 695Q534 695 615 593T697 344Q697 186 611 86T371 -14Q209 -14 128 88T46 337Q46 494 133 594T371 695ZM370 123Q444 123
485 178T527 344Q527 437 491 497T373 557Q301 557 258 497T215 338Q215 245 251 184T370 123Z" />
<glyph unicode="&#xd5;" glyph-name="Otilde" horiz-adv-x="742" d="M304 750H191Q191 832 229 864T312 896Q344 896 368 879T416 862Q425 862 432 872T439 892H547Q547 809 511 777T430 745Q397 745 374 762T328 780Q319 780 312 770T304 750ZM371 695Q534 695
615 593T697 344Q697 186 611 86T371 -14Q209 -14 128 88T46 337Q46 494 133 594T371 695ZM370 123Q444 123 485 178T527 344Q527 437 491 497T373 557Q301 557 258 497T215 338Q215 245 251 184T370 123Z" />
<glyph unicode="&#xd6;" glyph-name="Odieresis" horiz-adv-x="742" d="M345 830Q345 797 323 775T268 753Q237 753 214 775T191 830Q191 861 214 883T268 906Q301 906 323 884T345 830ZM550 830Q550 797 528 775T472 753Q441 753 418 775T395 830Q395 861 418
883T472 906Q506 906 528 884T550 830ZM371 695Q534 695 615 593T697 344Q697 186 611 86T371 -14Q209 -14 128 88T46 337Q46 494 133 594T371 695ZM370 123Q444 123 485 178T527 344Q527 437 491 497T373 557Q301 557 258 497T215 338Q215 245 251 184T370 123Z"
/>
<glyph unicode="&#xd7;" glyph-name="multiply" horiz-adv-x="575" d="M20 48Q63 100 106 153T192 258L28 464Q65 470 102 475T177 486L281 354L386 484H554L362 250Q399 200 448 138T537 29H373L274 155Q263 142 245 119T169 24Q132 30 95 35T20 48Z" />
<glyph unicode="&#xd8;" glyph-name="Oslash" horiz-adv-x="742" d="M371 695Q534 695 615 593T697 344Q697 186 611 86T371 -14Q209 -14 128 88T46 337Q46 494 133 594T371 695ZM215 338Q215 295 222 258T246 194L396 555Q390 556 385 556T373 557Q301 557 258
497T215 338ZM370 123Q444 123 485 178T527 344Q527 382 521 415T502 475L354 124Q356 124 361 124T370 123Z" />
<glyph unicode="&#xd9;" glyph-name="Ugrave" horiz-adv-x="724" d="M221 922H382L450 738H326L221 922ZM230 680V264Q230 193 267 158T361 123Q419 123 456 158T493 264V680H657V255Q657 130 576 59T361 -12Q228 -12 147 58T66 255V680H230Z" />
<glyph unicode="&#xda;" glyph-name="Uacute" horiz-adv-x="724" d="M336 922H497L392 738H268Q285 784 302 830T336 922ZM230 680V264Q230 193 267 158T361 123Q419 123 456 158T493 264V680H657V255Q657 130 576 59T361 -12Q228 -12 147 58T66 255V680H230Z" />
<glyph unicode="&#xdb;" glyph-name="Ucircumflex" horiz-adv-x="724" d="M302 739H143L310 926H405Q446 879 488 832T571 739H417Q403 755 389 770T360 802L302 739ZM230 680V264Q230 193 267 158T361 123Q419 123 456 158T493 264V680H657V255Q657 130 576 59T361
-12Q228 -12 147 58T66 255V680H230Z" />
<glyph unicode="&#xdc;" glyph-name="Udieresis" horiz-adv-x="724" d="M336 829Q336 797 314 775T259 753Q228 753 205 775T182 829Q182 861 205 883T259 906Q292 906 314 884T336 829ZM540 829Q540 797 518 775T463 753Q432 753 409 775T386 829Q386 861 409
883T463 906Q496 906 518 884T540 829ZM230 680V264Q230 193 267 158T361 123Q419 123 456 158T493 264V680H657V255Q657 130 576 59T361 -12Q228 -12 147 58T66 255V680H230Z" />
<glyph unicode="&#xdd;" glyph-name="Yacute" horiz-adv-x="647" d="M289 922H450L345 738H221L289 922ZM239 0V267L9 662L179 680L320 422L469 680H639L403 264V0H239Z" />
<glyph unicode="&#xde;" glyph-name="Thorn" horiz-adv-x="646" d="M238 680V576H335Q448 576 530 519T612 341Q612 221 524 164T327 107H238V0H74V680H238ZM330 446H238V238H332Q380 238 410 265T441 338Q441 389 412 417T330 446Z" />
<glyph unicode="&#xdf;" glyph-name="germandbls" horiz-adv-x="651" d="M317 702Q421 702 497 652T574 505Q574 469 557 429T509 367Q553 351 586 303T620 198Q620 107 553 54T378 0H282V135H364Q399 135 425 155T451 209Q451 247 427 268T372 290H288V412H317Q359
412 383 436T408 490Q408 521 386 542T323 563Q287 563 257 537T227 462V0H63V472Q63 574 131 638T317 702Z" />
<glyph unicode="&#xe0;" glyph-name="agrave" horiz-adv-x="513" d="M111 775H276L345 588H219L111 775ZM217 120Q236 120 256 129T296 154V203H225Q202 203 188 190T174 157Q174 142 186 131T217 120ZM256 501Q350 501 405 447T460 306V0H384L351 38Q327 17 291
3T216 -11Q125 -11 81 34T36 152Q36 230 88 267T224 305H295Q292 332 274 347T227 362Q199 362 163 353T99 332L55 455Q90 473 147 487T256 501Z" />
<glyph unicode="&#xe1;" glyph-name="aacute" horiz-adv-x="513" d="M236 775H400L292 588H166L236 775ZM217 120Q236 120 256 129T296 154V203H225Q202 203 188 190T174 157Q174 142 186 131T217 120ZM256 501Q350 501 405 447T460 306V0H384L351 38Q327 17 291
3T216 -11Q125 -11 81 34T36 152Q36 230 88 267T224 305H295Q292 332 274 347T227 362Q199 362 163 353T99 332L55 455Q90 473 147 487T256 501Z" />
<glyph unicode="&#xe2;" glyph-name="acircumflex" horiz-adv-x="513" d="M205 588H46L213 775H307L474 588H319L263 651L205 588ZM217 120Q236 120 256 129T296 154V203H225Q202 203 188 190T174 157Q174 142 186 131T217 120ZM256 501Q350 501 405 447T460 306V0H384L351
38Q327 17 291 3T216 -11Q125 -11 81 34T36 152Q36 230 88 267T224 305H295Q292 332 274 347T227 362Q199 362 163 353T99 332L55 455Q90 473 147 487T256 501Z" />
<glyph unicode="&#xe3;" glyph-name="atilde" horiz-adv-x="513" d="M189 600H76Q76 682 114 714T197 746Q230 746 253 729T301 712Q310 712 317 722T325 742H433Q433 659 397 627T315 595Q282 595 260 612T213 630Q204 630 197 620T189 600ZM217 120Q236 120
256 129T296 154V203H225Q202 203 188 190T174 157Q174 142 186 131T217 120ZM256 501Q350 501 405 447T460 306V0H384L351 38Q327 17 291 3T216 -11Q125 -11 81 34T36 152Q36 230 88 267T224 305H295Q292 332 274 347T227 362Q199 362 163 353T99 332L55 455Q90
473 147 487T256 501Z" />
<glyph unicode="&#xe4;" glyph-name="adieresis" horiz-adv-x="513" d="M235 680Q235 647 213 625T158 603Q127 603 104 625T81 680Q81 711 104 733T158 756Q191 756 213 734T235 680ZM439 680Q439 647 417 625T362 603Q331 603 308 625T285 680Q285 711 308 733T362
756Q395 756 417 734T439 680ZM217 120Q236 120 256 129T296 154V203H225Q202 203 188 190T174 157Q174 142 186 131T217 120ZM256 501Q350 501 405 447T460 306V0H384L351 38Q327 17 291 3T216 -11Q125 -11 81 34T36 152Q36 230 88 267T224 305H295Q292 332 274
347T227 362Q199 362 163 353T99 332L55 455Q90 473 147 487T256 501Z" />
<glyph unicode="&#xe5;" glyph-name="aring" horiz-adv-x="513" d="M375 703Q375 655 340 625T257 594Q210 594 175 624T140 703Q140 750 175 782T257 815Q304 815 339 783T375 703ZM290 703Q290 716 281 725T259 735Q246 735 236 726T226 703Q226 690 236 680T259
670Q272 670 281 680T290 703ZM217 120Q236 120 256 129T296 154V203H225Q202 203 188 190T174 157Q174 142 186 131T217 120ZM256 501Q350 501 405 447T460 306V0H384L351 38Q327 17 291 3T216 -11Q125 -11 81 34T36 152Q36 230 88 267T224 305H295Q292 332 274
347T227 362Q199 362 163 353T99 332L55 455Q90 473 147 487T256 501Z" />
<glyph unicode="&#xe6;" glyph-name="ae" horiz-adv-x="817" d="M36 150Q36 228 88 265T224 302H295Q290 323 277 342T226 362Q198 362 162 353T98 332L55 455Q89 473 147 486T255 500Q299 500 336 487T398 452Q429 475 469 487T555 500Q671 500 727 425T784 247V192H478Q488
157 516 140T587 122Q620 122 650 129T712 151Q723 123 735 95T759 38Q719 10 662 0T574 -11Q511 -11 459 5T371 56Q348 31 308 10T215 -11Q125 -11 81 33T36 150ZM551 366Q522 366 502 347T474 294H627Q623 322 605 344T551 366ZM217 120Q246 120 268 133T309
165Q307 173 305 181T302 200H225Q201 200 188 187T174 155Q174 140 186 130T217 120Z" />
<glyph unicode="&#xe7;" glyph-name="ccedilla" horiz-adv-x="487" d="M306 365Q263 365 234 331T204 242Q204 187 233 156T306 124Q334 124 357 130T412 152L459 38Q432 17 401 7T342 -7L331 -36Q366 -48 382 -78T399 -134Q399 -190 358 -219T264 -248Q238 -248
208 -238T155 -211L190 -129Q201 -134 218 -140T250 -146Q262 -146 271 -142T281 -128Q281 -114 259 -103T196 -88L228 -5Q138 11 86 75T34 242Q34 362 105 431T294 501Q324 501 371 492T459 451L412 337Q381 352 358 358T306 365Z" />
<glyph unicode="&#xe8;" glyph-name="egrave" horiz-adv-x="550" d="M138 775H302L371 588H246L138 775ZM289 501Q405 501 461 426T518 248V193H212Q222 158 250 141T321 123Q353 123 384 129T446 151L492 38Q453 9 396 -1T308 -11Q187 -11 111 52T34 242Q34 362
106 431T289 501ZM285 367Q255 367 236 348T209 295H361Q357 323 339 345T285 367Z" />
<glyph unicode="&#xe9;" glyph-name="eacute" horiz-adv-x="550" d="M270 775H434L326 588H201L270 775ZM289 501Q405 501 461 426T518 248V193H212Q222 158 250 141T321 123Q353 123 384 129T446 151L492 38Q453 9 396 -1T308 -11Q187 -11 111 52T34 242Q34 362
106 431T289 501ZM285 367Q255 367 236 348T209 295H361Q357 323 339 345T285 367Z" />
<glyph unicode="&#xea;" glyph-name="ecircumflex" horiz-adv-x="550" d="M236 588H77L244 775H338L505 588H350L293 651L236 588ZM289 501Q405 501 461 426T518 248V193H212Q222 158 250 141T321 123Q353 123 384 129T446 151L492 38Q453 9 396 -1T308 -11Q187
-11 111 52T34 242Q34 362 106 431T289 501ZM285 367Q255 367 236 348T209 295H361Q357 323 339 345T285 367Z" />
<glyph unicode="&#xeb;" glyph-name="edieresis" horiz-adv-x="550" d="M467 680Q467 647 445 625T390 603Q359 603 336 625T313 680Q313 711 336 733T390 756Q423 756 445 734T467 680ZM263 680Q263 647 241 625T185 603Q154 603 131 625T108 680Q108 711 131
733T185 756Q218 756 240 734T263 680ZM289 501Q405 501 461 426T518 248V193H212Q222 158 250 141T321 123Q353 123 384 129T446 151L492 38Q453 9 396 -1T308 -11Q187 -11 111 52T34 242Q34 362 106 431T289 501ZM285 367Q255 367 236 348T209 295H361Q357 323
339 345T285 367Z" />
<glyph unicode="&#xec;" glyph-name="igrave" horiz-adv-x="286" d="M-1 775H163L231 588H105Q78 634 52 681T-1 775ZM225 485V0H60V485H225Z" />
<glyph unicode="&#xed;" glyph-name="iacute" horiz-adv-x="286" d="M123 775H288L180 588H54L123 775ZM225 485V0H60V485H225Z" />
<glyph unicode="&#xee;" glyph-name="icircumflex" horiz-adv-x="286" d="M88 588H-70Q-28 634 13 681T96 775H190L357 588H202L146 651L88 588ZM225 485V0H60V485H225Z" />
<glyph unicode="&#xef;" glyph-name="idieresis" horiz-adv-x="286" d="M118 679Q118 647 96 625T40 603Q10 603 -12 625T-35 679Q-35 711 -13 733T40 756Q73 756 95 734T118 679ZM322 679Q322 647 300 625T245 603Q214 603 191 625T168 679Q168 711 191 733T245
756Q278 756 300 734T322 679ZM225 485V0H60V485H225Z" />
<glyph unicode="&#xf0;" glyph-name="eth" horiz-adv-x="597" d="M434 611L398 583Q467 520 510 436T553 266Q553 127 471 57T269 -13Q161 -13 96 55T30 210Q30 294 96 353T264 412Q285 412 310 403T361 380Q346 410 324 438T276 489L191 423L114 511L174 558Q155
568 137 574T103 585L180 698Q210 691 240 680T298 653L361 702L434 611ZM274 120Q318 120 348 150T386 235Q370 258 343 277T282 296Q239 296 217 269T194 206Q194 175 215 148T274 120Z" />
<glyph unicode="&#xf1;" glyph-name="ntilde" horiz-adv-x="609" d="M238 600H124Q124 682 162 714T245 746Q278 746 301 729T349 712Q358 712 365 722T373 742H481Q481 659 445 627T363 595Q331 595 308 612T262 630Q252 630 245 620T238 600ZM368 503Q469 503
512 445T556 301V0H392V297Q392 331 374 349T324 367Q303 367 275 356T225 332V0H61V484H144L182 439Q214 462 264 482T368 503Z" />
<glyph unicode="&#xf2;" glyph-name="ograve" horiz-adv-x="603" d="M160 775H325L394 588H268L160 775ZM301 501Q422 501 495 433T569 240Q569 120 491 55T296 -11Q180 -11 107 54T34 245Q34 365 110 433T301 501ZM298 124Q345 124 372 152T399 240Q399 295 375
330T304 365Q256 365 230 334T204 245Q204 188 228 156T298 124Z" />
<glyph unicode="&#xf3;" glyph-name="oacute" horiz-adv-x="603" d="M275 775H439L332 588H206L275 775ZM301 501Q422 501 495 433T569 240Q569 120 491 55T296 -11Q180 -11 107 54T34 245Q34 365 110 433T301 501ZM298 124Q345 124 372 152T399 240Q399 295 375
330T304 365Q256 365 230 334T204 245Q204 188 228 156T298 124Z" />
<glyph unicode="&#xf4;" glyph-name="ocircumflex" horiz-adv-x="603" d="M245 588H87L254 775H348L515 588H360L303 651L245 588ZM301 501Q422 501 495 433T569 240Q569 120 491 55T296 -11Q180 -11 107 54T34 245Q34 365 110 433T301 501ZM298 124Q345 124 372
152T399 240Q399 295 375 330T304 365Q256 365 230 334T204 245Q204 188 228 156T298 124Z" />
<glyph unicode="&#xf5;" glyph-name="otilde" horiz-adv-x="603" d="M233 600H120Q120 682 158 714T241 746Q274 746 297 729T345 712Q354 712 361 722T369 742H477Q477 659 441 627T359 595Q326 595 304 612T257 630Q247 630 240 620T233 600ZM301 501Q422 501
495 433T569 240Q569 120 491 55T296 -11Q180 -11 107 54T34 245Q34 365 110 433T301 501ZM298 124Q345 124 372 152T399 240Q399 295 375 330T304 365Q256 365 230 334T204 245Q204 188 228 156T298 124Z" />
<glyph unicode="&#xf6;" glyph-name="odieresis" horiz-adv-x="603" d="M274 680Q274 647 252 625T197 603Q166 603 143 625T120 680Q120 711 143 733T197 756Q230 756 252 734T274 680ZM478 680Q478 647 456 625T401 603Q370 603 347 625T324 680Q324 711 347
733T401 756Q434 756 456 734T478 680ZM301 501Q422 501 495 433T569 240Q569 120 491 55T296 -11Q180 -11 107 54T34 245Q34 365 110 433T301 501ZM298 124Q345 124 372 152T399 240Q399 295 375 330T304 365Q256 365 230 334T204 245Q204 188 228 156T298 124Z"
/>
<glyph unicode="&#xf7;" glyph-name="divide" horiz-adv-x="488" d="M330 451Q330 415 305 390T244 365Q207 365 182 390T157 451Q157 488 182 513T244 538Q280 538 305 513T330 451ZM470 212H29L19 335H459L470 212ZM330 94Q330 58 305 33T244 8Q207 8 182 33T157
94Q157 131 182 156T244 182Q280 182 305 157T330 94Z" />
<glyph unicode="&#xf8;" glyph-name="oslash" horiz-adv-x="603" d="M34 244Q34 364 109 432T301 500Q421 500 495 432T569 239Q569 119 491 54T295 -11Q179 -11 107 54T34 244ZM303 369Q256 369 227 336T198 245Q198 229 200 216T206 190Q231 235 256 279T307
369H303ZM404 239Q404 253 402 267T396 293L296 120Q343 120 373 150T404 239Z" />
<glyph unicode="&#xf9;" glyph-name="ugrave" horiz-adv-x="601" d="M160 775H324L394 588H268L160 775ZM237 -19Q136 -19 94 39T52 183V484H217V187Q217 153 234 135T282 117Q301 117 327 127T375 150V484H540V0H457L419 43Q388 21 340 1T237 -19Z" />
<glyph unicode="&#xfa;" glyph-name="uacute" horiz-adv-x="601" d="M272 775H436L328 588H202L272 775ZM237 -19Q136 -19 94 39T52 183V484H217V187Q217 153 234 135T282 117Q301 117 327 127T375 150V484H540V0H457L419 43Q388 21 340 1T237 -19Z" />
<glyph unicode="&#xfb;" glyph-name="ucircumflex" horiz-adv-x="601" d="M241 588H83L250 775H344L511 588H356L299 651L241 588ZM237 -19Q136 -19 94 39T52 183V484H217V187Q217 153 234 135T282 117Q301 117 327 127T375 150V484H540V0H457L419 43Q388 21 340
1T237 -19Z" />
<glyph unicode="&#xfc;" glyph-name="udieresis" horiz-adv-x="601" d="M475 680Q475 647 453 625T398 603Q367 603 344 625T321 680Q321 711 344 733T398 756Q431 756 453 734T475 680ZM271 680Q271 647 249 625T194 603Q163 603 140 625T117 680Q117 711 140
733T194 756Q227 756 249 734T271 680ZM237 -19Q136 -19 94 39T52 183V484H217V187Q217 153 234 135T282 117Q301 117 327 127T375 150V484H540V0H457L419 43Q388 21 340 1T237 -19Z" />
<glyph unicode="&#xfd;" glyph-name="yacute" horiz-adv-x="546" d="M232 775H397L289 588H163L232 775ZM177 -9L187 17L8 467L171 485Q196 415 222 344T273 204Q298 273 322 344T371 485H537L322 -59Q298 -118 238 -161T108 -220L52 -90Q87 -75 127 -55T177 -9Z" />
<glyph unicode="&#xfe;" glyph-name="thorn" horiz-adv-x="601" d="M397 246Q397 294 373 330T295 367Q276 367 259 361T227 347V153Q243 140 264 132T305 124Q355 124 376 164T397 246ZM227 692V475Q253 488 281 495T337 502Q451 502 508 430T566 248Q566 139
509 64T331 -11Q306 -11 279 -4T227 15V-209L63 -219V685L227 692Z" />
<glyph unicode="&#xff;" glyph-name="ydieresis" horiz-adv-x="546" d="M453 679Q453 647 431 625T376 603Q345 603 322 625T299 679Q299 711 322 733T376 756Q409 756 431 734T453 679ZM249 679Q249 647 227 625T171 603Q140 603 117 625T94 679Q94 711 117 733T171
756Q204 756 226 734T249 679ZM177 -9L187 17L8 467L171 485Q196 415 222 344T273 204Q298 273 322 344T371 485H537L322 -59Q298 -118 238 -161T108 -220L52 -90Q87 -75 127 -55T177 -9Z" />
<glyph unicode="&#x2013;" glyph-name="endash" horiz-adv-x="429" d="M410 209H30L19 338H400L410 209Z" />
<glyph unicode="&#x2014;" glyph-name="emdash" horiz-adv-x="542" d="M523 209H30L19 338H514L523 209Z" />
<glyph unicode="&#x2018;" glyph-name="quoteleft" horiz-adv-x="200" d="M10 543Q10 601 52 658T158 742L192 669Q174 656 157 640T135 604Q152 597 167 576T182 528Q182 497 158 470T96 442Q60 442 35 470T10 543Z" />
<glyph unicode="&#x2019;" glyph-name="quoteright" horiz-adv-x="200" d="M190 641Q190 583 148 526T42 442L9 515Q27 528 44 544T66 580Q48 587 33 608T18 656Q18 687 43 714T104 742Q140 742 165 714T190 641Z" />
<glyph unicode="&#x201a;" glyph-name="quotesinglbase" horiz-adv-x="200" d="M190 45Q190 -12 148 -69T42 -154L9 -80Q27 -67 44 -51T66 -15Q48 -8 33 13T18 61Q18 92 43 119T104 147Q140 147 165 119T190 45Z" />
<glyph unicode="&#x201c;" glyph-name="quotedblleft" horiz-adv-x="402" d="M10 543Q10 601 52 658T158 742L192 669Q174 656 157 640T135 604Q152 597 167 576T182 528Q182 497 158 470T96 442Q60 442 35 470T10 543ZM211 543Q211 601 254 658T360 742L394 669Q375
656 358 640T336 604Q353 597 368 576T384 528Q384 497 359 470T298 442Q262 442 237 470T211 543Z" />
<glyph unicode="&#x201d;" glyph-name="quotedblright" horiz-adv-x="402" d="M392 641Q392 583 349 526T243 442L210 515Q228 528 245 544T267 580Q249 587 235 608T220 656Q220 687 244 714T306 742Q341 742 366 714T392 641ZM190 641Q190 583 148 526T42 442L9
515Q27 528 44 544T66 580Q48 587 33 608T18 656Q18 687 43 714T104 742Q140 742 165 714T190 641Z" />
<glyph unicode="&#x201e;" glyph-name="quotedblbase" horiz-adv-x="402" d="M392 45Q392 -12 349 -69T243 -154L210 -80Q228 -67 245 -51T267 -15Q249 -8 235 13T220 61Q220 92 244 119T306 147Q341 147 366 119T392 45ZM190 45Q190 -12 148 -69T42 -154L9 -80Q27
-67 44 -51T66 -15Q48 -8 33 13T18 61Q18 92 43 119T104 147Q140 147 165 119T190 45Z" />
<glyph unicode="&#x2022;" glyph-name="bullet" horiz-adv-x="298" d="M30 331Q30 380 64 414T148 449Q197 449 232 415T268 331Q268 282 233 248T148 213Q99 213 65 247T30 331Z" />
<glyph unicode="&#x2039;" glyph-name="guilsinglleft" horiz-adv-x="243" d="M198 66L20 220V279L198 433L228 311L157 250L228 187L198 66Z" />
<glyph unicode="&#x203a;" glyph-name="guilsinglright" horiz-adv-x="243" d="M45 433L223 280V220L45 66L16 188L86 250L16 312L45 433Z" />
</font>
</defs>
</svg>
