<?xml version="1.0" standalone="no"?>
<!DOCTYPE svg PUBLIC "-//W3C//DTD SVG 1.1//EN" "http://www.w3.org/Graphics/SVG/1.1/DTD/svg11.dtd">
<svg xmlns="http://www.w3.org/2000/svg">
<defs >
<font id="QuattrocentoSans" horiz-adv-x="437" ><font-face
    font-family="Quattrocento Sans"
    units-per-em="1000"
    panose-1="2 11 5 2 5 0 0 2 0 3"
    ascent="848"
    descent="-260"
    alphabetic="0" />
<glyph unicode=" " glyph-name="space" horiz-adv-x="245" />
<glyph unicode="!" glyph-name="exclam" horiz-adv-x="259" d="M31 27Q31 48 49 65T90 83Q106 83 116 71T127 42Q127 31 122 22T108 5T90 -6T70 -11Q53 -11 42 0T31 27ZM79 150L168 682H265L126 150H79Z" />
<glyph unicode="&quot;" glyph-name="quotedbl" horiz-adv-x="333" d="M129 516L154 732H235L165 516H129ZM266 516L291 732H372L302 516H266Z" />
<glyph unicode="#" glyph-name="numbersign" horiz-adv-x="616" d="M493 446H615L594 394H471L421 275H548L527 222H398L304 0H240L334 222H208L114 0H50L144 222H28L49 275H167L217 394H95L116 446H239L328 654H392L303 446H429L518 654H582L493 446ZM231 275H357L407
394H281L231 275Z" />
<glyph unicode="$" glyph-name="dollar" horiz-adv-x="531" d="M383 664Q427 661 464 651T527 627L490 550Q470 572 437 583T369 597L323 378Q351 367 378 354T427 322T461 277T474 214Q474 159 455 119T403 51T328 9T240 -10L222 -96H162L180 -11Q122 -9 75 6T-5
43L32 116Q47 104 62 93T97 74T139 60T194 54L249 313Q216 325 189 339T143 371T114 412T103 465Q103 513 120 549T167 609T237 647T323 664L342 750H402L383 664ZM392 183Q392 204 385 220T366 249T338 272T304 291L254 56Q329 65 360 100T392 183ZM179 484Q179
453 200 435T267 399L309 598Q249 593 214 565T179 484Z" />
<glyph unicode="%" glyph-name="percent" horiz-adv-x="822" d="M271 665Q299 665 320 654T356 624T378 579T385 524Q385 482 371 441T330 367T268 314T188 294Q160 294 139 304T105 334T85 377T78 431Q78 477 92 519T133 593T194 645T271 665ZM199 339Q233 339
257 356T298 399T322 459T330 524Q330 567 313 593T260 620Q223 620 199 601T160 554T140 493T134 432Q134 339 199 339ZM148 -24H83L698 691H763L148 -24ZM655 364Q683 364 704 353T740 323T762 278T769 223Q769 181 755 140T714 66T652 13T572 -7Q544 -7 523
3T489 33T469 76T462 130Q462 176 476 218T517 292T578 344T655 364ZM583 38Q617 38 641 55T682 98T706 158T714 223Q714 266 697 292T644 319Q607 319 583 300T544 253T524 192T518 131Q518 38 583 38Z" />
<glyph unicode="&amp;" glyph-name="ampersand" horiz-adv-x="697" d="M700 427L687 365L550 353Q556 335 559 315T562 275Q562 231 546 189T499 110L582 0H498L450 62Q407 28 352 8T232 -12Q182 -12 146 1T85 35T49 85T37 146Q37 176 49 209T84 272T140 328T216
371Q182 424 182 483Q182 527 197 561T238 618T297 653T366 665Q400 665 433 654T496 621L460 550Q443 572 414 586T354 600Q334 600 316 594T283 573T261 538T252 486Q252 437 282 398L461 159Q497 212 497 271Q497 290 493 309T482 347L431 343L441 390L700 427ZM255
54Q303 54 343 68T415 109L250 324Q221 315 197 299T154 262T126 215T116 162Q116 110 154 82T255 54Z" />
<glyph unicode="&apos;" glyph-name="quotesingle" horiz-adv-x="196" d="M129 516L154 732H235L165 516H129Z" />
<glyph unicode="(" glyph-name="parenleft" horiz-adv-x="311" d="M395 758Q344 712 297 662T213 547T155 396T133 192Q133 163 136 126T149 50T173 -29T210 -104L171 -117Q111 -51 81 40T50 228Q50 307 72 381T134 524T232 655T359 771L395 758Z" />
<glyph unicode=")" glyph-name="parenright" horiz-adv-x="310" d="M163 771Q192 738 214 698T252 613T275 521T283 425Q283 347 261 272T199 129T101 -2T-26 -117L-60 -104Q5 -43 54 19T135 149T184 296T201 467Q201 548 182 623T122 758L163 771Z" />
<glyph unicode="*" glyph-name="asterisk" horiz-adv-x="438" d="M297 568L422 649L443 591L308 537L420 484L376 427L284 506L271 374H206L248 506L123 427L103 484L237 537L126 591L171 649L261 568L275 702H341L297 568Z" />
<glyph unicode="+" glyph-name="plus" horiz-adv-x="493" d="M270 265H442L431 213H259L222 41H170L207 213H36L47 265H218L252 427H304L270 265Z" />
<glyph unicode="," glyph-name="comma" horiz-adv-x="240" d="M-6 -78L49 -5H24L43 85H122L99 -20L10 -97L-6 -78Z" />
<glyph unicode="-" glyph-name="hyphen" horiz-adv-x="486" d="M410 265L399 213H61L72 265H410Z" />
<glyph unicode="." glyph-name="period" horiz-adv-x="232" d="M22 27Q22 48 40 65T80 83Q97 83 107 71T118 42Q118 31 113 22T99 5T81 -6T60 -11Q43 -11 33 0T22 27Z" />
<glyph unicode="/" glyph-name="slash" horiz-adv-x="429" d="M44 -57H-31L408 702H483L44 -57Z" />
<glyph unicode="0" glyph-name="zero" horiz-adv-x="655" d="M411 665Q463 665 501 645T565 590T604 509T617 410Q617 333 591 258T518 122T406 25T261 -12Q210 -12 172 7T110 61T73 140T61 237Q61 320 87 397T159 533T270 629T411 665ZM277 54Q342 54 390 86T471
169T520 284T536 412Q536 454 528 488T502 547T457 585T394 599Q325 599 277 566T200 480T157 363T144 238Q144 148 178 101T277 54Z" />
<glyph unicode="1" glyph-name="one" horiz-adv-x="314" d="M157 0H82L194 526L88 480L81 550L297 660L157 0Z" />
<glyph unicode="2" glyph-name="two" horiz-adv-x="507" d="M129 616Q172 637 228 651T334 665Q411 665 454 628T498 531Q498 491 480 453T430 376T358 300T272 224T179 148T89 70H409L394 0H-11L4 70Q45 112 91 151T183 229T271 304T344 377T395 450T414 523Q414
554 393 576T318 599Q296 599 271 596T220 585T172 569T133 550L129 616Z" />
<glyph unicode="3" glyph-name="three" horiz-adv-x="535" d="M149 616Q168 626 191 635T239 651T288 661T332 665Q409 665 453 630T497 529Q497 499 487 473T458 426T417 388T369 359Q414 342 439 310T465 227Q465 181 446 138T390 62T297 8T171 -12Q113 -12
67 4T-11 50L23 117Q52 88 91 71T182 54Q279 54 331 101T383 227Q383 272 349 298T237 325H210L223 382H254Q290 382 319 392T370 422T402 467T414 525Q414 558 394 578T324 599Q301 599 277 595T231 585T188 569T153 550L149 616Z" />
<glyph unicode="4" glyph-name="four" horiz-adv-x="508" d="M446 210H377L332 0H257L302 210H18L33 280L393 660H473L392 280H461L446 210ZM317 280L374 551L118 280H317Z" />
<glyph unicode="5" glyph-name="five" horiz-adv-x="542" d="M88 317L199 665H538L523 595H247L176 382Q208 389 243 393T307 398Q385 398 432 359T480 246Q480 198 461 152T403 69T310 11T183 -12Q125 -12 79 4T1 50L37 120Q68 91 105 73T198 54Q289 54 342 101T395
231Q395 274 365 300T261 327Q226 327 188 321T114 302L88 317Z" />
<glyph unicode="6" glyph-name="six" horiz-adv-x="559" d="M152 328Q187 371 236 386T334 401Q383 401 414 386T464 347T490 295T497 242Q497 201 481 156T433 74T351 12T234 -12Q187 -12 154 3T100 45T69 110T59 195Q59 230 65 279T86 380T126 483T189 574T279
639T400 664Q416 664 436 662T478 655T517 640T548 616L517 550Q489 578 453 588T387 599Q333 599 291 574T220 509T173 421T152 328ZM418 236Q418 257 413 275T395 308T364 331T316 340Q270 340 236 325T180 285T146 228T135 160Q135 109 163 79T247 49Q284 49
315 62T370 101T405 160T418 236Z" />
<glyph unicode="7" glyph-name="seven" horiz-adv-x="458" d="M20 0Q22 9 23 19T27 39Q36 81 58 129T112 227T183 327T263 425T347 516T428 595H106L121 665H526L511 595Q450 545 385 474T264 324T168 171T115 40L107 0H20Z" />
<glyph unicode="8" glyph-name="eight" horiz-adv-x="560" d="M399 362Q444 351 466 316T488 229Q488 182 472 139T421 62T337 8T218 -12Q168 -12 133 1T77 35T45 85T35 146Q35 225 79 282T199 361L200 365Q173 376 155 404T137 474Q137 515 153 550T198 610T269
650T363 665Q439 665 480 630T522 537Q522 506 512 479T485 430T446 392T400 366L399 362ZM403 215Q403 237 397 257T378 293T343 318T291 328Q245 328 212 312T158 269T126 212T116 150Q116 102 145 76T231 49Q313 49 358 94T403 215ZM438 525Q438 557 418 579T349
602Q312 602 287 592T247 563T224 522T217 475Q217 437 238 413T303 388Q334 388 359 399T401 428T428 472T438 525Z" />
<glyph unicode="9" glyph-name="nine" horiz-adv-x="560" d="M427 325Q411 303 390 289T345 267T297 255T248 251Q199 251 168 266T118 305T92 357T85 410Q85 451 101 496T149 578T231 640T347 664Q441 664 482 608T523 457Q523 422 517 373T496 272T456 169T393
78T303 13T182 -12Q166 -12 146 -10T104 -3T65 12T34 36L65 102Q93 74 129 64T195 53Q247 53 286 74T353 130T398 208T425 295Q427 303 428 309T430 324L427 325ZM335 603Q297 603 266 587T212 543T177 481T164 408Q164 367 186 340T266 312Q312 312 345 327T401
367T435 424T446 492Q446 543 418 573T335 603Z" />
<glyph unicode=":" glyph-name="colon" horiz-adv-x="244" d="M23 27Q23 48 40 65T81 83Q98 83 108 71T119 42Q119 31 114 22T100 5T82 -6T61 -11Q44 -11 34 0T23 27ZM103 400Q103 421 120 438T160 455Q177 455 188 444T199 415Q199 393 180 377T140 361Q123 361
113 372T103 400Z" />
<glyph unicode=";" glyph-name="semicolon" horiz-adv-x="253" d="M109 400Q109 421 126 438T166 455Q183 455 194 444T205 415Q205 393 186 377T146 361Q129 361 119 372T109 400ZM-1 -78L54 -5H29L48 85H127L104 -20L15 -97L-1 -78Z" />
<glyph unicode="&lt;" glyph-name="less" horiz-adv-x="411" d="M139 238L309 105L277 41L33 238L34 243L360 437L365 374L140 243L139 238Z" />
<glyph unicode="=" glyph-name="equal" horiz-adv-x="491" d="M396 189L385 137H47L58 189H396ZM428 341L417 289H79L90 341H428Z" />
<glyph unicode="&gt;" glyph-name="greater" horiz-adv-x="409" d="M257 243L88 374L120 437L363 243L362 238L34 41L30 105L256 238L257 243Z" />
<glyph unicode="?" glyph-name="question" horiz-adv-x="417" d="M87 28Q87 51 104 67T144 83Q161 83 172 72T183 43Q183 32 178 23T164 6T145 -6T124 -11Q107 -11 97 0T87 28ZM118 637Q150 658 193 672T274 686Q343 686 380 650T418 556Q418 520 404 490T368
431T320 375T268 313T221 241T188 151H124Q136 206 156 247T201 320T251 379T297 431T331 483T344 544Q344 576 324 598T259 621Q243 621 225 617T188 607T152 591T122 571L118 637Z" />
<glyph unicode="@" glyph-name="at" horiz-adv-x="726" d="M458 350Q453 356 434 356Q396 356 366 334T314 280T281 214T269 155Q269 116 291 116Q304 116 321 126T354 153T385 190T408 229L458 350ZM516 -23Q504 -32 480 -45T423 -71T351 -92T271 -101Q219 -101
175 -85T99 -39T49 33T31 128Q31 167 44 213T82 307T145 397T231 474T339 528T468 548Q528 548 570 531T640 485T680 420T693 344Q693 293 673 245T617 158T534 97T435 74Q399 74 387 85T374 116Q374 124 375 131T378 147Q354 113 324 93T268 73Q243 73 224 95T205
162Q205 212 228 254T286 326T362 372T442 389Q466 389 493 381T533 356Q505 289 490 253T468 199T460 179T458 176Q452 162 449 153T446 134Q446 115 470 115Q501 115 530 135T581 188T617 259T631 337Q631 368 622 397T591 450T537 487T457 501Q403 501 355 485T266
441T194 376T140 298T106 213T94 128Q94 81 109 47T151 -10T214 -42T291 -53Q332 -53 369 -45T436 -24T490 3T526 27L516 -23Z" />
<glyph unicode="A" glyph-name="A" horiz-adv-x="643" d="M595 0H510L460 222H165L30 0H-50L354 660H445L595 0ZM207 292H444L381 576L207 292Z" />
<glyph unicode="B" glyph-name="B" horiz-adv-x="561" d="M182 660Q216 662 258 663T337 665Q414 665 458 630T503 529Q503 477 478 435T402 365Q448 348 473 314T499 228Q499 182 480 139T423 62T330 8T204 -12Q155 -12 115 -9T42 0L182 660ZM271 325Q249 325
227 325T185 323L129 57Q166 54 215 54Q312 54 364 101T416 227Q416 272 383 298T271 325ZM329 599Q307 599 285 599T243 597L198 383Q212 382 227 382T259 382Q296 382 325 392T376 422T408 467T420 525Q420 558 400 578T329 599Z" />
<glyph unicode="C" glyph-name="C" horiz-adv-x="643" d="M628 550Q601 571 557 585T453 599Q361 599 301 568T206 487T157 375T143 252Q143 155 191 105T335 54Q398 54 454 72T549 116L555 49Q510 25 450 7T318 -12Q250 -12 202 8T122 64T75 147T60 248Q60 329
88 404T169 537T299 630T473 665Q527 665 578 654T665 622L628 550Z" />
<glyph unicode="D" glyph-name="D" horiz-adv-x="708" d="M182 660Q231 662 289 663T401 665Q472 665 526 645T614 590Q643 558 656 508T670 405Q670 326 644 251T567 118T441 24T268 -12Q197 -12 142 -9T42 0L182 660ZM279 54Q357 54 415 80T511 153T569 265T588
408Q588 451 578 486T544 546T483 585T393 599Q353 599 314 599T243 596L130 60Q191 54 279 54Z" />
<glyph unicode="E" glyph-name="E" horiz-adv-x="522" d="M424 0H42L182 660H544L529 590H242L199 385H419L404 315H184L132 70H439L424 0Z" />
<glyph unicode="F" glyph-name="F" horiz-adv-x="484" d="M393 315H184L117 0H42L182 660H539L524 590H242L199 385H408L393 315Z" />
<glyph unicode="G" glyph-name="G" horiz-adv-x="674" d="M563 55Q512 25 451 7T318 -12Q250 -12 202 8T122 64T75 147T60 248Q60 329 88 404T169 537T299 630T473 665Q531 665 583 654T675 622L638 550Q611 571 564 585T453 599Q361 599 301 568T206 487T157
375T143 252Q143 155 191 105T335 54Q379 54 419 63T495 86L534 272H609L563 55Z" />
<glyph unicode="H" glyph-name="H" horiz-adv-x="705" d="M196 375H552L613 660H688L548 0H473L537 305H181L117 0H42L182 660H257L196 375Z" />
<glyph unicode="I" glyph-name="I" horiz-adv-x="274" d="M117 0H42L182 660H257L117 0Z" />
<glyph unicode="J" glyph-name="J" horiz-adv-x="273" d="M138 101Q127 48 107 2T57 -80T-9 -135T-91 -156L-93 -101Q-54 -101 -27 -82T17 -34T45 32T63 102L182 660H257L138 101Z" />
<glyph unicode="K" glyph-name="K" horiz-adv-x="596" d="M191 348Q223 367 249 386T311 433Q371 481 433 540T550 660H636Q574 590 490 512T306 353L537 0H444L241 306L172 261L117 0H42L182 660H257L191 348Z" />
<glyph unicode="L" glyph-name="L" horiz-adv-x="481" d="M412 0H42L182 660H257L132 70H427L412 0Z" />
<glyph unicode="M" glyph-name="M" horiz-adv-x="844" d="M387 94L731 660H827L687 0H612L718 499L410 0H320L223 500L117 0H42L182 660H283L387 94Z" />
<glyph unicode="N" glyph-name="N" horiz-adv-x="705" d="M231 540L117 0H42L182 660H273L498 119L613 660H688L548 0H457L231 540Z" />
<glyph unicode="O" glyph-name="O" horiz-adv-x="762" d="M138 246Q138 156 189 105T338 54Q416 54 474 85T571 165T629 278T648 405Q648 448 636 483T598 544T533 584T439 599Q359 599 302 568T209 487T155 374T138 246ZM465 665Q531 665 579 644T660 587T709
502T725 398Q725 323 697 250T616 119T486 24T314 -12Q248 -12 200 8T121 64T75 147T60 249Q60 331 89 406T171 538T299 630T465 665Z" />
<glyph unicode="P" glyph-name="P" horiz-adv-x="532" d="M182 660H186Q219 662 258 663T332 665Q426 665 479 622T533 497Q533 449 515 404T462 325T375 269T255 248Q207 248 170 251L117 0H42L182 660ZM324 599Q303 599 283 599T243 597L184 317Q220 314 266
314Q358 314 404 363T451 495Q451 542 422 570T324 599Z" />
<glyph unicode="Q" glyph-name="Q" horiz-adv-x="764" d="M466 665Q532 665 580 644T661 587T710 502T726 398Q726 325 699 254T622 125T499 30T335 -11Q369 -15 400 -27T462 -53T526 -76T597 -87Q636 -87 686 -68L653 -132Q633 -142 613 -145T576 -148Q534 -148
497 -134T426 -104T360 -73T294 -59Q270 -59 234 -68T162 -100L158 -53Q190 -33 223 -23T287 -11Q228 -7 186 15T116 73T75 153T61 249Q61 331 90 406T172 538T300 630T466 665ZM138 246Q138 156 189 105T338 54Q416 54 474 85T571 165T629 278T648 405Q648 448
636 483T598 544T533 584T439 599Q359 599 302 568T209 487T155 374T138 246Z" />
<glyph unicode="R" glyph-name="R" horiz-adv-x="590" d="M182 660H186Q219 662 258 663T332 665Q427 665 482 625T537 510Q537 474 525 439T489 375T429 324T346 291L537 0H444L257 282Q213 282 177 285L117 0H42L182 660ZM324 599Q303 599 283 599T243 597L191
350Q209 348 229 348T273 348Q363 348 408 392T454 508Q454 548 425 573T324 599Z" />
<glyph unicode="S" glyph-name="S" horiz-adv-x="556" d="M187 484Q187 464 196 450T222 425T267 403T330 379Q360 368 389 355T441 323T478 277T492 212Q492 152 468 110T404 40T313 1T209 -12Q144 -12 92 4T3 43L40 116Q56 103 72 92T109 72T156 59T217 54Q270
54 306 64T366 91T399 132T410 182Q410 210 397 230T363 265T316 290T265 310Q230 322 202 336T153 369T122 410T111 465Q111 517 131 555T185 617T266 653T364 665Q418 665 466 654T545 627L508 550Q495 564 476 573T434 588T389 596T346 599Q273 599 230 571T187
484Z" />
<glyph unicode="T" glyph-name="T" horiz-adv-x="530" d="M581 590H370L245 0H170L295 590H84L99 660H596L581 590Z" />
<glyph unicode="U" glyph-name="U" horiz-adv-x="689" d="M164 256Q155 215 155 184Q155 115 193 85T300 54Q384 54 442 101T523 256L609 660H679L586 222Q575 173 551 131T490 57T401 7T286 -11Q228 -11 188 1T123 36T86 88T74 155Q74 185 82 222L175 660H250L164 256Z" />
<glyph unicode="V" glyph-name="V" horiz-adv-x="645" d="M73 660H158L287 84L638 660H718L316 0H221L73 660Z" />
<glyph unicode="W" glyph-name="W" horiz-adv-x="1082" d="M596 546L294 0H199L79 660H164L266 95L579 660H664L750 97L1070 660H1150L775 0H680L596 546Z" />
<glyph unicode="X" glyph-name="X" horiz-adv-x="646" d="M324 285L44 0H-42L292 341L113 660H202L352 393L614 660H700L383 337L573 0H484L324 285Z" />
<glyph unicode="Y" glyph-name="Y" horiz-adv-x="565" d="M68 660H157L299 343L568 660H655L317 271L260 0H185L241 267L68 660Z" />
<glyph unicode="Z" glyph-name="Z" horiz-adv-x="552" d="M453 0H-15L0 70L478 590H125L140 660H578L563 590L85 70H468L453 0Z" />
<glyph unicode="[" glyph-name="bracketleft" horiz-adv-x="285" d="M172 -95H12L191 749H351L342 707H247L86 -53H181L172 -95Z" />
<glyph unicode="\" glyph-name="backslash" horiz-adv-x="422" d="M126 702H199L316 -57H243L126 702Z" />
<glyph unicode="]" glyph-name="bracketright" horiz-adv-x="285" d="M136 749H296L117 -95H-43L-34 -53H61L222 707H127L136 749Z" />
<glyph unicode="^" glyph-name="asciicircum" horiz-adv-x="348" d="M322 673L410 574L412 567L402 548L394 545L303 606L186 545L180 548L178 567L182 574L314 673H322Z" />
<glyph unicode="_" glyph-name="underscore" horiz-adv-x="481" d="M407 0L396 -52H-37L-26 0H407Z" />
<glyph unicode="`" glyph-name="grave" horiz-adv-x="219" d="M322 549L137 626Q136 628 136 631T136 637Q136 654 147 666T179 680L339 579L340 572L330 552L322 549Z" />
<glyph unicode="a" glyph-name="a" horiz-adv-x="575" d="M537 460L440 0H385L395 82H391Q359 45 307 17T191 -12Q150 -12 120 2T71 42T42 100T32 171Q32 228 50 282T104 379T190 448T305 475Q372 475 409 446T450 374L482 460H537ZM211 47Q259 47 311 73T402
148L433 295Q427 352 392 384T303 416Q261 416 225 397T162 346T121 270T106 177Q106 152 111 129T129 87T162 58T211 47Z" />
<glyph unicode="b" glyph-name="b" horiz-adv-x="575" d="M263 -12Q199 -12 160 16T103 82H99L74 0H19L176 740H246L168 374Q191 417 241 446T356 475Q399 475 431 460T483 420T514 360T524 286Q524 232 507 179T456 83T374 15T263 -12ZM268 47Q317 47 351 69T407
126T439 200T449 275Q449 338 420 377T333 416Q280 416 231 384T152 295L120 148Q139 100 179 74T268 47Z" />
<glyph unicode="c" glyph-name="c" horiz-adv-x="500" d="M460 376Q441 393 401 406T318 420Q265 420 226 400T162 348T124 275T111 195Q111 164 119 137T143 88T185 55T245 43Q285 43 331 60T411 103V38Q379 20 327 4T220 -12Q172 -12 137 3T79 44T45 106T34
180Q34 234 52 287T107 381T200 449T331 475Q379 475 422 464T490 435L460 376Z" />
<glyph unicode="d" glyph-name="d" horiz-adv-x="576" d="M192 -12Q151 -12 121 2T72 42T43 100T33 171Q33 228 51 282T105 379T191 448T306 475Q373 475 410 446T451 374L528 740H598L441 0H386L396 82H392Q360 45 308 17T192 -12ZM212 47Q260 47 312 73T403
148L434 295Q428 352 393 384T304 416Q262 416 226 397T163 346T122 270T107 177Q107 152 112 129T130 87T163 58T212 47Z" />
<glyph unicode="e" glyph-name="e" horiz-adv-x="516" d="M328 475Q403 475 442 441T481 343Q481 314 472 286T454 245H114Q108 216 108 188Q108 158 115 132T138 85T178 53T236 41Q260 41 284 46T331 60T374 79T411 99V42Q396 34 375 25T329 7T276 -6T217 -12Q170
-12 136 3T78 45T44 106T32 180Q32 236 53 289T113 383T206 450T328 475ZM313 419Q244 419 199 384T131 298H408Q410 303 412 309T415 334Q415 376 385 397T313 419Z" />
<glyph unicode="f" glyph-name="f" horiz-adv-x="297" d="M132 413H55L63 450L142 459Q154 515 166 555T189 622T212 667T233 696Q257 724 287 734T348 745Q352 745 362 745T384 743T408 738T432 728L402 669Q399 669 389 672T366 680T339 689T312 693Q297 693
286 685T264 657T245 605T226 526L212 460H320L310 413H202L59 -260H-11L132 413Z" />
<glyph unicode="g" glyph-name="g" horiz-adv-x="575" d="M213 47Q236 47 261 53T311 73T359 105T402 148L433 295Q427 352 392 384T302 416Q260 416 224 397T162 346T121 271T106 180Q106 153 111 129T129 87T162 58T213 47ZM-2 -144Q19 -156 44 -166T96 -182T149
-193T197 -197Q272 -197 314 -153T377 -7L395 82H391Q375 64 354 47T307 17T252 -4T192 -12Q150 -12 120 2T70 42T41 100T32 172Q32 227 50 281T104 379T189 448T304 475Q373 475 409 446T450 374L482 460H537L438 -6Q423 -74 402 -121T350 -197T280 -239T186 -252Q79
-252 -14 -198L-2 -144Z" />
<glyph unicode="h" glyph-name="h" horiz-adv-x="543" d="M342 0L407 304Q411 323 411 342Q411 382 390 399T334 416Q309 416 283 408T233 385T188 347T152 295L89 0H19L176 740H246L168 374Q190 416 240 445T357 475Q384 475 407 469T448 450T475 416T485 364Q485
341 479 313L412 0H342Z" />
<glyph unicode="i" glyph-name="i" horiz-adv-x="224" d="M89 0H19L117 460H187L89 0ZM136 619Q136 631 141 642T155 661T175 675T199 680Q217 680 228 667T240 636Q240 612 220 595T177 578Q159 578 148 590T136 619Z" />
<glyph unicode="j" glyph-name="j" horiz-adv-x="225" d="M89 -3Q78 -54 59 -100T13 -182T-47 -237T-118 -258Q-125 -258 -131 -258T-139 -255L-143 -197Q-137 -200 -122 -200Q-88 -200 -64 -181T-24 -132T2 -68T19 -2L117 460H187L89 -3ZM137 619Q137 642 156
661T199 680Q217 680 229 667T241 636Q241 612 221 595T178 578Q160 578 149 590T137 619Z" />
<glyph unicode="k" glyph-name="k" horiz-adv-x="471" d="M270 298L403 0H323L211 250L127 181L89 0H19L176 740H246L145 265L389 460H469L270 298Z" />
<glyph unicode="l" glyph-name="l" horiz-adv-x="236" d="M95 0H25L182 740H252L95 0Z" />
<glyph unicode="m" glyph-name="m" horiz-adv-x="858" d="M338 0L403 304Q407 323 407 341Q407 382 385 399T328 416Q277 416 230 385T152 295L89 0H19L117 460H172L161 374H165Q187 416 235 445T349 475Q409 475 443 449T479 374Q508 414 555 444T671 475Q697
475 720 469T761 450T789 415T800 362Q800 340 794 313L727 0H657L722 304Q726 323 726 341Q726 382 704 399T647 416Q596 416 549 385T471 295L408 0H338Z" />
<glyph unicode="n" glyph-name="n" horiz-adv-x="543" d="M342 0L407 304Q411 323 411 342Q411 381 390 398T334 416Q309 416 283 408T233 385T188 347T152 295L89 0H19L117 460H172L161 374H165Q187 416 238 445T357 475Q384 475 407 469T448 450T475 416T485
364Q485 341 479 313L412 0H342Z" />
<glyph unicode="o" glyph-name="o" horiz-adv-x="564" d="M324 475Q374 475 409 460T468 418T501 357T512 283Q512 227 494 174T440 80T350 14T224 -12Q174 -12 138 3T78 44T44 105T33 179Q33 234 52 287T107 382T198 449T324 475ZM235 41Q285 41 322 61T385 115T423
189T436 273Q436 303 429 329T407 376T367 407T309 419Q259 419 221 399T158 345T121 271T108 187Q108 158 115 132T137 85T177 53T235 41Z" />
<glyph unicode="p" glyph-name="p" horiz-adv-x="576" d="M367 475Q408 475 438 461T487 421T516 363T526 292Q526 235 507 181T453 84T368 15T253 -12Q186 -12 149 17T108 89L34 -260H-36L117 460H172L162 374H166Q182 392 203 410T250 443T305 466T367 475ZM337
416Q289 416 242 390T156 315L125 168Q128 139 140 117T171 79T214 55T264 47Q307 47 341 66T400 118T437 192T450 278Q450 306 444 331T424 375T389 405T337 416Z" />
<glyph unicode="q" glyph-name="q" horiz-adv-x="576" d="M291 475Q324 475 350 466T397 443T430 411T453 374H457L483 460H538L385 -260H315L389 89Q367 46 318 17T202 -12Q158 -12 126 3T74 43T43 103T33 176Q33 231 51 284T102 380T183 449T291 475ZM300 416Q253
416 217 395T157 339T120 263T107 181Q107 124 133 86T215 47Q241 47 268 55T321 79T369 117T406 168L437 315Q420 364 384 390T300 416Z" />
<glyph unicode="r" glyph-name="r" horiz-adv-x="356" d="M349 386Q335 395 320 400T290 406Q270 406 250 395T210 365T175 321T146 269L89 0H19L117 460H172L158 359H162Q174 382 190 403T226 440T269 465T319 475Q338 475 357 469T384 452L349 386Z" />
<glyph unicode="s" glyph-name="s" horiz-adv-x="442" d="M245 419Q188 419 163 397T138 342Q138 325 151 307T200 281L268 265Q300 257 320 245T353 219T369 188T374 158Q374 124 358 93T314 39T245 2T157 -12Q104 -12 63 3T-2 38L30 103Q59 70 99 55T175 40Q202
40 224 48T263 69T288 100T297 136Q297 152 286 171T241 199L150 223Q100 236 82 263T63 319Q63 353 78 381T119 431T182 463T262 475Q281 475 302 473T344 465T382 452T413 434L381 374Q364 391 328 405T245 419Z" />
<glyph unicode="t" glyph-name="t" horiz-adv-x="310" d="M128 413H51L59 450L140 460L185 599H238L208 460H316L306 413H198L130 94Q127 79 127 68Q127 52 134 47T158 42Q181 42 201 49T236 66L239 13Q221 5 192 -3T129 -11Q84 -11 69 6T54 49Q54 59 56 70T60
92L128 413Z" />
<glyph unicode="u" glyph-name="u" horiz-adv-x="542" d="M183 460L118 156Q116 145 115 136T113 118Q113 78 134 63T190 47Q241 47 291 77T373 165L435 460H505L407 0H352L363 86H359Q337 44 286 16T168 -12Q141 -12 118 -7T77 11T50 45T40 96Q40 118 46 147L113
460H183Z" />
<glyph unicode="v" glyph-name="v" horiz-adv-x="521" d="M243 0H154L43 460H119L214 66L477 460H550L243 0Z" />
<glyph unicode="w" glyph-name="w" horiz-adv-x="823" d="M570 0H475L427 360L218 0H123L52 460H126L186 68L414 460H488L540 68L776 460H847L570 0Z" />
<glyph unicode="x" glyph-name="x" horiz-adv-x="514" d="M261 285L443 460H528L291 237L440 0H355L238 187L44 0H-41L208 235L67 460H152L261 285Z" />
<glyph unicode="y" glyph-name="y" horiz-adv-x="518" d="M238 -4Q217 -36 187 -79T118 -162T36 -228T-58 -256Q-66 -256 -69 -256T-77 -253V-187Q-74 -188 -71 -189T-57 -190Q10 -190 65 -134T174 15L39 460H122L223 77L469 460H548L238 -4Z" />
<glyph unicode="z" glyph-name="z" horiz-adv-x="415" d="M-4 60L311 401H78L91 460H405L392 402L75 59H330L317 0H-17L-4 60Z" />
<glyph unicode="{" glyph-name="braceleft" horiz-adv-x="283" d="M340 739Q317 737 302 728T278 706T263 674T253 637L225 494Q219 463 209 436T184 386T146 349T95 327Q133 318 147 288T162 217Q162 190 155 157T139 90T123 26T115 -23Q115 -46 125 -64T165
-85L158 -106Q126 -106 105 -99T70 -80T52 -51T47 -12Q47 12 55 45T72 113T89 181T97 237Q97 249 95 262T86 286T70 304T43 312L49 342Q76 343 94 357T123 391T139 433T149 473Q162 534 170 587T195 678T245 738T342 760L340 739Z" />
<glyph unicode="|" glyph-name="bar" horiz-adv-x="242" d="M70 -114H8L195 768H257L70 -114Z" />
<glyph unicode="}" glyph-name="braceright" horiz-adv-x="282" d="M147 760Q211 760 234 734T258 666Q258 642 251 609T234 541T217 474T209 418Q209 406 211 393T220 369T236 351T262 342L256 312Q229 311 212 298T183 265T167 224T157 184Q144 123 136 70T111
-22T60 -83T-37 -106L-35 -85Q-12 -83 3 -74T27 -52T42 -21T52 17Q62 65 70 115T95 209T137 285T210 327Q173 336 158 366T143 437Q143 464 150 497T166 564T182 628T190 677Q190 700 180 718T141 739L147 760Z" />
<glyph unicode="~" glyph-name="asciitilde" horiz-adv-x="495" d="M424 288Q423 285 416 273T395 247T363 222T320 211Q309 211 285 212T231 215T175 218T131 220Q106 220 95 214T71 195L59 202Q60 209 69 222T92 248T126 270T166 279Q179 279 200 278T245 275T295
272T343 270Q360 270 378 274T414 296L424 288Z" />
<glyph unicode="&#xa0;" glyph-name="uni00A0" horiz-adv-x="245" />
<glyph unicode="&#xa1;" glyph-name="exclamdown" horiz-adv-x="240" d="M107 421Q107 443 124 459T164 475Q181 475 191 464T202 436Q202 425 197 416T183 398T165 386T144 381Q127 381 117 393T107 421ZM152 314L65 -218H-32L105 314H152Z" />
<glyph unicode="&#xa2;" glyph-name="cent" horiz-adv-x="508" d="M356 443Q395 440 429 430T484 405L454 346Q438 360 409 371T344 387L271 44Q307 49 344 64T411 103V38Q385 23 345 9T260 -10L233 -137H173L199 -11Q156 -8 125 7T73 47T42 103T32 171Q32 219
48 266T97 351T179 414T297 444L325 577H385L356 443ZM109 187Q109 135 134 96T212 46L285 388Q240 383 207 364T152 316T120 255T109 187Z" />
<glyph unicode="&#xa3;" glyph-name="sterling" horiz-adv-x="566" d="M134 51Q165 49 195 43T256 29T317 15T381 9Q406 9 427 13T474 28L439 -45Q411 -58 394 -61T354 -65Q318 -65 286 -55T221 -32T156 -10T83 1Q73 1 45 -3T-16 -31L-20 16Q23 33 55 58T111 113T148
179T171 250L174 265H76L87 317H181Q186 363 188 407T198 486Q208 535 232 569T289 624T357 655T426 665Q472 665 511 651T572 616L540 550Q524 570 489 584T414 599Q384 599 363 591T326 567T302 532T288 488Q280 454 278 411T268 317H407L396 265H259Q246 214
215 158T133 54L134 51Z" />
<glyph unicode="&#xa4;" glyph-name="currency" horiz-adv-x="580" d="M101 107Q90 126 84 149T78 196Q78 212 80 228T90 264T113 304T154 351L89 431L125 461L188 382Q225 405 256 415T322 426Q357 426 384 416T435 382L533 460L557 431L461 351Q472 330 477
307T483 261Q483 223 468 187T410 107L473 27L436 -3L371 76Q338 54 306 43T240 31Q208 31 181 42T125 76L29 -3L6 27L101 107ZM313 378Q278 378 246 364T187 327T146 271T130 203Q130 177 138 155T163 116T201 90T250 80Q285 80 317 94T375 132T416 187T432 255Q432
281 424 303T400 342T362 368T313 378Z" />
<glyph unicode="&#xa5;" glyph-name="yen" horiz-adv-x="654" d="M283 255L286 267L268 308H122L133 360H245L112 660H201L343 343L612 660H699L438 360H552L541 308H393L361 271L357 255H530L519 203H346L304 0H229L272 203H100L111 255H283Z" />
<glyph unicode="&#xa6;" glyph-name="brokenbar" horiz-adv-x="244" d="M153 274L71 -114H9L91 274H153ZM114 380L196 768H258L176 380H114Z" />
<glyph unicode="&#xa7;" glyph-name="section" horiz-adv-x="443" d="M142 0Q160 0 177 6T207 25T229 53T237 89Q237 113 225 133T193 172T151 209T110 249T78 294T65 349Q65 371 72 393T93 435T123 472T161 502Q157 515 157 535Q157 578 175 611T220 665T279
698T339 709Q368 709 397 698T446 671L407 604Q393 624 370 635T322 646Q305 646 288 641T258 624T236 596T227 559Q227 535 239 515T271 475T313 438T354 398T386 352T399 297Q399 275 392 253T371 211T341 173T303 143Q305 135 306 127T307 111Q307 67 289 35T244
-19T185 -52T125 -63Q96 -63 67 -52T18 -25L57 42Q71 22 94 11T142 0ZM330 264Q330 292 313 315T270 360T219 407T176 462Q155 447 145 424T134 382Q134 353 151 330T194 285T245 238T288 184Q308 199 319 221T330 264Z" />
<glyph unicode="&#xa8;" glyph-name="dieresis" horiz-adv-x="220" d="M133 623Q133 643 149 659T185 676Q199 676 208 665T218 638Q218 617 202 602T166 587Q151 587 142 597T133 623ZM270 623Q270 643 286 659T322 676Q336 676 345 665T355 638Q355 617 339
602T303 587Q288 587 279 597T270 623Z" />
<glyph unicode="&#xa9;" glyph-name="copyright" horiz-adv-x="727" d="M444 654Q499 654 544 635T622 582T673 503T691 405Q691 333 659 269T575 157T454 80T312 52Q259 52 215 71T138 125T89 205T71 303Q71 373 102 437T186 549T306 625T444 654ZM436 613Q374
613 317 589T216 522T145 425T118 307Q118 262 132 223T174 155T238 110T321 93Q385 93 443 117T546 183T617 281T644 400Q644 445 629 484T587 551T522 596T436 613ZM505 442Q492 454 464 463T406 472Q370 472 345 459T305 426T283 380T276 330Q276 291 296 264T360
237Q389 237 421 248T477 279L474 223Q451 210 415 199T340 188Q274 188 244 225T213 317Q213 354 224 391T260 456T323 503T416 521Q449 521 480 514T528 493L505 442Z" />
<glyph unicode="&#xaa;" glyph-name="ordfeminine" horiz-adv-x="371" d="M276 369L281 418H277Q258 395 224 378T155 361Q123 361 107 379T91 424Q91 464 111 488T161 525T222 542T278 546H305L306 553Q307 558 307 568Q307 620 243 620Q217 620 197 614T156
596L154 632Q177 644 202 651T255 658Q275 658 294 654T327 641T350 618T359 582Q359 571 356 558L316 369H276ZM177 402Q201 402 232 418T287 464L297 512H292Q265 512 238 510T189 500T154 476T140 433Q140 402 177 402Z" />
<glyph unicode="&#xab;" glyph-name="guillemotleft" horiz-adv-x="481" d="M112 238L218 61H138L43 238L44 243L216 420H295L113 243L112 238ZM274 238L380 61H300L205 238L206 243L378 420H457L275 243L274 238Z" />
<glyph unicode="&#xac;" glyph-name="logicalnot" horiz-adv-x="634" d="M570 341L522 117H469L506 289H79L90 341H570Z" />
<glyph unicode="&#xad;" glyph-name="uni00AD" horiz-adv-x="488" d="M410 265L397 213H61L74 265H410Z" />
<glyph unicode="&#xae;" glyph-name="registered" horiz-adv-x="727" d="M444 654Q499 654 544 635T622 582T673 503T691 405Q691 333 659 269T575 157T454 80T312 52Q259 52 215 71T138 125T89 205T71 303Q71 373 102 437T186 549T306 625T444 654ZM436 613Q374
613 317 589T216 522T145 425T118 307Q118 262 132 223T174 155T238 110T321 93Q385 93 443 117T546 183T617 281T644 400Q644 445 629 484T587 551T522 596T436 613ZM318 530Q335 531 360 531T404 532Q452 532 481 517T511 460Q511 419 483 390T410 349L479 201H424L356
346H327L296 201H248L318 530ZM397 494Q386 494 377 494T358 493L335 382Q343 381 353 381T374 381Q413 381 436 400T460 453Q460 471 446 482T397 494Z" />
<glyph unicode="&#xb0;" glyph-name="degree" horiz-adv-x="356" d="M257 658Q309 658 333 631T358 563Q358 537 349 513T320 471T273 441T208 429Q155 429 132 456T108 520Q108 547 118 572T148 616T195 646T257 658ZM216 467Q262 467 284 493T307 557Q307 583
293 600T247 617Q223 617 206 610T178 589T161 560T156 527Q156 501 170 484T216 467Z" />
<glyph unicode="&#xb1;" glyph-name="plusminus" horiz-adv-x="482" d="M286 351H420L408 298H274L250 183H198L222 298H89L101 351H234L256 455H308L286 351ZM371 123L360 70H41L52 123H371Z" />
<glyph unicode="&#xb2;" glyph-name="twosuperior" horiz-adv-x="373" d="M151 616Q179 637 210 651T270 665Q315 665 338 644T361 587Q361 550 342 519T291 460T219 403T139 341H314L305 299H69L78 341Q110 373 150 402T225 459T284 517T308 579Q308 595 299
610T260 625Q234 625 205 610T153 572L151 616Z" />
<glyph unicode="&#xb3;" glyph-name="threesuperior" horiz-adv-x="355" d="M154 635Q177 648 200 656T248 665Q294 665 318 646T343 591Q343 558 320 536T268 501Q296 492 311 474T327 428Q327 404 317 381T286 338T234 306T159 294Q124 294 105 304T66 332L87
372Q104 355 119 345T165 334Q226 334 252 362T278 431Q278 454 260 467T196 481H184L191 515H206Q251 515 272 536T293 590Q293 606 283 615T243 625Q216 625 196 617T157 596L154 635Z" />
<glyph unicode="&#xb4;" glyph-name="acute" horiz-adv-x="219" d="M124 552L122 572L126 579L328 680Q342 679 349 671T357 652Q357 639 348 626L130 549L124 552Z" />
<glyph unicode="&#xb5;" glyph-name="mu" horiz-adv-x="577" d="M226 460L161 156Q157 140 157 121Q157 89 174 68T234 47Q285 47 335 77T416 165L478 460H548L451 0H396L406 86H402Q380 44 329 16T211 -12Q179 -12 152 -4T108 23L102 10Q85 -28 64 -65T16 -140L-42
-111Q-17 -77 3 -47T40 15T69 78T89 147L156 460H226Z" />
<glyph unicode="&#xb6;" glyph-name="paragraph" horiz-adv-x="538" d="M283 248H262Q212 248 176 261T117 296T82 349T71 413Q71 472 92 518T153 597T245 647T361 665Q396 665 436 664T519 660L361 -86H316L461 599H407L262 -86H212L283 248Z" />
<glyph unicode="&#xb7;" glyph-name="middot" horiz-adv-x="243" d="M67 235Q67 256 85 273T125 291Q141 291 152 279T163 250Q163 239 158 230T144 213T126 202T105 197Q88 197 78 208T67 235Z" />
<glyph unicode="&#xb8;" glyph-name="cedilla" horiz-adv-x="202" d="M-38 -178L-20 -155H-13Q-2 -160 16 -163T54 -167Q79 -167 98 -157T118 -116Q118 -96 105 -89T74 -81Q62 -81 49 -83T24 -88L18 -77L85 0H119L78 -51Q97 -47 113 -47Q143 -47 160 -64T178 -107Q178
-126 168 -143T140 -173T99 -195T49 -203Q25 -203 3 -198T-38 -184V-178Z" />
<glyph unicode="&#xb9;" glyph-name="onesuperior" horiz-adv-x="244" d="M168 299H114L175 585L112 557L108 599L246 665L168 299Z" />
<glyph unicode="&#xba;" glyph-name="ordmasculine" horiz-adv-x="389" d="M274 658Q330 658 358 623T386 540Q386 508 375 478T341 423T286 384T213 369Q183 369 162 378T128 403T108 439T101 483Q101 517 114 548T150 604T204 643T274 658ZM222 410Q252 410
273 421T308 450T328 490T334 536Q334 568 317 591T262 614Q230 614 209 602T176 572T158 531T153 488Q153 455 169 433T222 410Z" />
<glyph unicode="&#xbb;" glyph-name="guillemotright" horiz-adv-x="481" d="M355 243L248 420H327L424 243L423 238L252 61H172L354 238L355 243ZM193 243L86 420H165L262 243L261 238L90 61H10L192 238L193 243Z" />
<glyph unicode="&#xbc;" glyph-name="onequarter" horiz-adv-x="712" d="M634 110H598L574 -1H529L553 110H403L412 152L604 365H652L607 152H643L634 110ZM562 152L595 306L463 152H562ZM82 -24H17L632 691H697L82 -24ZM165 299H111L172 585L109 557L105 599L243
665L165 299Z" />
<glyph unicode="&#xbd;" glyph-name="onehalf" horiz-adv-x="714" d="M167 299H113L174 585L111 557L107 599L245 665L167 299ZM64 -24H-1L614 691H679L64 -24ZM459 315Q487 336 518 350T578 364Q623 364 646 343T669 286Q669 249 650 218T599 159T527 102T447
40H622L613 -2H377L386 40Q418 72 458 101T533 158T592 216T616 278Q616 294 607 309T568 324Q542 324 513 309T461 271L459 315Z" />
<glyph unicode="&#xbe;" glyph-name="threequarters" horiz-adv-x="751" d="M137 635Q160 648 183 656T231 665Q277 665 301 646T326 591Q326 558 303 536T251 501Q279 492 294 474T310 428Q310 404 300 381T269 338T217 306T142 294Q107 294 88 304T49 332L70
372Q87 355 102 345T148 334Q209 334 235 362T261 431Q261 454 243 467T179 481H167L174 515H189Q234 515 255 536T276 590Q276 606 266 615T226 625Q199 625 179 617T140 596L137 635ZM672 110H636L612 -1H567L591 110H441L450 152L642 365H690L645 152H681L672
110ZM600 152L633 306L501 152H600ZM134 -24H69L684 691H749L134 -24Z" />
<glyph unicode="&#xbf;" glyph-name="questiondown" horiz-adv-x="406" d="M306 437Q306 416 289 399T249 381Q232 381 221 392T210 421Q210 442 229 458T269 475Q286 475 296 464T306 437ZM274 -173Q242 -194 200 -208T119 -222Q50 -222 13 -186T-25 -92Q-25
-56 -11 -26T25 33T73 89T125 151T172 223T205 313H269Q257 258 236 217T191 144T141 85T95 33T61 -19T48 -80Q48 -112 68 -134T134 -157Q150 -157 168 -153T205 -143T240 -127T270 -107L274 -173Z" />
<glyph unicode="&#xc0;" glyph-name="Agrave" horiz-adv-x="643" d="M595 0H510L460 222H165L30 0H-50L354 660H445L595 0ZM207 292H444L381 576L207 292ZM517 718L332 795Q331 797 331 800T331 806Q331 823 342 835T374 848L534 748L535 741L525 721L517 718Z" />
<glyph unicode="&#xc1;" glyph-name="Aacute" horiz-adv-x="643" d="M595 0H510L460 222H165L30 0H-50L354 660H445L595 0ZM207 292H444L381 576L207 292ZM318 721L317 741L321 748L522 848Q537 847 544 840T551 821Q551 807 543 795L325 718L318 721Z" />
<glyph unicode="&#xc2;" glyph-name="Acircumflex" horiz-adv-x="643" d="M595 0H510L460 222H165L30 0H-50L354 660H445L595 0ZM207 292H444L381 576L207 292ZM454 842L543 743L544 736L534 716L527 713L436 775L319 713L312 716L310 736L315 743L446 842H454Z" />
<glyph unicode="&#xc3;" glyph-name="Atilde" horiz-adv-x="643" d="M595 0H510L460 222H165L30 0H-50L354 660H445L595 0ZM207 292H444L381 576L207 292ZM601 832Q595 818 586 805T563 780T534 762T496 755Q456 755 416 762T344 769Q319 769 308 763T284 744L273
752Q280 765 289 779T312 803T342 821T380 828Q405 828 423 826T456 821T486 816T520 814Q537 814 555 818T591 840L601 832Z" />
<glyph unicode="&#xc4;" glyph-name="Adieresis" horiz-adv-x="643" d="M595 0H510L460 222H165L30 0H-50L354 660H445L595 0ZM207 292H444L381 576L207 292ZM317 786Q317 806 332 822T368 839Q382 839 392 828T402 801Q402 780 385 765T349 750Q334 750 326 760T317
786ZM474 786Q474 806 489 822T525 839Q539 839 548 828T558 802Q558 780 541 765T506 750Q492 750 483 760T474 786Z" />
<glyph unicode="&#xc5;" glyph-name="Aring" horiz-adv-x="643" d="M425 782Q460 782 478 762T496 716Q496 692 482 674T448 645L595 0H510L460 222H165L30 0H-50L345 645Q333 653 327 666T320 694Q320 711 328 727T350 755T384 774T425 782ZM208 292H444L380
576L208 292ZM399 654Q421 654 438 672T456 712Q456 729 446 740T418 752Q392 752 376 736T360 697Q360 680 371 667T399 654Z" />
<glyph unicode="&#xc6;" glyph-name="AE" horiz-adv-x="762" d="M665 0H333L380 222H186L21 0H-61L431 660H785L770 590H533L490 385H660L645 315H475L423 70H680L665 0ZM395 292L458 588L238 292H395Z" />
<glyph unicode="&#xc7;" glyph-name="Ccedilla" horiz-adv-x="644" d="M182 -178L199 -155H206Q217 -160 235 -163T273 -167Q299 -167 317 -157T336 -116Q336 -96 324 -89T293 -81Q281 -81 268 -83T243 -88L237 -77L294 -11Q233 -7 189 15T117 72T75 152T61 248Q61
329 89 404T170 537T300 630T474 665Q528 665 579 654T666 622L629 550Q602 571 558 585T454 599Q362 599 302 568T207 487T158 375T144 252Q144 155 192 105T336 54Q399 54 455 72T550 116L556 49Q512 26 455 8T330 -12L298 -51Q307 -49 315 -48T331 -47Q362 -47
379 -63T397 -106Q397 -125 387 -142T359 -173T318 -195T268 -203Q244 -203 221 -198T181 -184L182 -178Z" />
<glyph unicode="&#xc8;" glyph-name="Egrave" horiz-adv-x="522" d="M424 0H42L182 660H544L529 590H242L199 385H419L404 315H184L132 70H439L424 0ZM469 718L284 795Q283 797 283 800T283 806Q283 823 294 835T326 848L486 748L488 741L477 721L469 718Z" />
<glyph unicode="&#xc9;" glyph-name="Eacute" horiz-adv-x="522" d="M424 0H42L182 660H544L529 590H242L199 385H419L404 315H184L132 70H439L424 0ZM280 721L279 741L283 748L485 848Q514 846 514 821Q514 811 511 806T505 795L287 718L280 721Z" />
<glyph unicode="&#xca;" glyph-name="Ecircumflex" horiz-adv-x="522" d="M424 0H42L182 660H544L529 590H242L199 385H419L404 315H184L132 70H439L424 0ZM413 842L502 743L503 736L493 716L486 713L395 775L278 713L271 716L269 736L274 743L405 842H413Z" />
<glyph unicode="&#xcb;" glyph-name="Edieresis" horiz-adv-x="522" d="M424 0H42L182 660H544L529 590H242L199 385H419L404 315H184L132 70H439L424 0ZM269 786Q269 806 284 822T320 839Q334 839 344 828T354 801Q354 780 337 765T301 750Q286 750 278 760T269
786ZM426 786Q426 806 441 822T477 839Q491 839 501 828T511 801Q511 780 494 765T458 750Q443 750 435 760T426 786Z" />
<glyph unicode="&#xcc;" glyph-name="Igrave" horiz-adv-x="274" d="M317 718L131 795Q130 797 130 800T130 806Q130 823 141 835T173 848L333 748L335 741L324 721L317 718ZM117 0H42L182 660H257L117 0Z" />
<glyph unicode="&#xcd;" glyph-name="Iacute" horiz-adv-x="274" d="M137 721L136 741L140 748L342 848Q357 847 364 840T371 821Q371 811 368 806T362 795L145 718L137 721ZM117 0H42L182 660H257L117 0Z" />
<glyph unicode="&#xce;" glyph-name="Icircumflex" horiz-adv-x="274" d="M260 842L350 743L351 736L341 716L333 713L243 775L126 713L118 716L117 736L122 743L253 842H260ZM117 0H42L182 660H257L117 0Z" />
<glyph unicode="&#xcf;" glyph-name="Idieresis" horiz-adv-x="274" d="M130 786Q130 806 145 822T181 839Q195 839 205 828T215 801Q215 780 198 765T162 750Q148 750 139 760T130 786ZM287 786Q287 806 302 822T338 839Q352 839 362 828T372 801Q372 780 355
765T319 750Q304 750 296 760T287 786ZM117 0H42L182 660H257L117 0Z" />
<glyph unicode="&#xd0;" glyph-name="Eth" horiz-adv-x="714" d="M29 326L38 370H125L187 660L192 661Q215 664 241 665T296 666Q355 666 403 664T491 655T562 632T619 590Q648 558 661 508T675 405Q675 326 649 251T572 118T446 24T273 -12Q202 -12 147 -9T47
0L116 326H29ZM375 370L366 326H191L134 60Q197 54 284 54Q361 54 419 80T515 153T573 265T593 408Q593 451 583 486T549 546T488 585T398 599Q358 599 319 599T248 596L200 370H375Z" />
<glyph unicode="&#xd1;" glyph-name="Ntilde" horiz-adv-x="705" d="M498 117L613 660H688L548 0H463L232 542L117 0H42L182 660H267L498 117ZM614 832Q608 818 599 805T576 780T547 762T509 755Q469 755 429 762T357 769Q332 769 321 763T297 744L286 752Q293
765 302 779T325 803T355 821T393 828Q418 828 436 826T469 821T499 816T533 814Q550 814 568 818T604 840L614 832Z" />
<glyph unicode="&#xd2;" glyph-name="Ograve" horiz-adv-x="762" d="M543 718L358 795Q358 797 358 800T357 806Q357 823 368 835T401 848L559 748L561 741L552 721L543 718ZM465 665Q531 665 579 644T660 587T709 502T725 398Q725 323 697 250T616 119T486 24T314
-12Q248 -12 200 8T121 64T75 147T60 249Q60 331 89 406T171 538T299 630T465 665ZM138 246Q138 156 189 105T338 54Q416 54 474 85T571 165T629 278T648 405Q648 448 636 483T598 544T533 584T439 599Q359 599 302 568T209 487T155 374T138 246Z" />
<glyph unicode="&#xd3;" glyph-name="Oacute" horiz-adv-x="762" d="M411 721L410 741L414 748L616 848Q630 847 637 840T644 821Q644 811 636 795L418 718L411 721ZM465 665Q531 665 579 644T660 587T709 502T725 398Q725 323 697 250T616 119T486 24T314 -12Q248
-12 200 8T121 64T75 147T60 249Q60 331 89 406T171 538T299 630T465 665ZM138 246Q138 156 189 105T338 54Q416 54 474 85T571 165T629 278T648 405Q648 448 636 483T598 544T533 584T439 599Q359 599 302 568T209 487T155 374T138 246Z" />
<glyph unicode="&#xd4;" glyph-name="Ocircumflex" horiz-adv-x="762" d="M516 842L605 743L607 736L597 716L589 713L498 775L381 713L375 716L373 736L377 743L508 842H516ZM465 665Q531 665 579 644T660 587T709 502T725 398Q725 323 697 250T616 119T486 24T314
-12Q248 -12 200 8T121 64T75 147T60 249Q60 331 89 406T171 538T299 630T465 665ZM138 246Q138 156 189 105T338 54Q416 54 474 85T571 165T629 278T648 405Q648 448 636 483T598 544T533 584T439 599Q359 599 302 568T209 487T155 374T138 246Z" />
<glyph unicode="&#xd5;" glyph-name="Otilde" horiz-adv-x="762" d="M657 832Q651 818 642 805T620 780T591 762T553 755Q513 755 473 762T401 769Q376 769 365 763T341 744L329 752Q336 765 346 779T368 803T398 821T436 828Q461 828 479 826T512 821T542 816T576
814Q593 814 611 818T647 840L657 832ZM465 665Q531 665 579 644T660 587T709 502T725 398Q725 323 697 250T616 119T486 24T314 -12Q248 -12 200 8T121 64T75 147T60 249Q60 331 89 406T171 538T299 630T465 665ZM138 246Q138 156 189 105T338 54Q416 54 474 85T571
165T629 278T648 405Q648 448 636 483T598 544T533 584T439 599Q359 599 302 568T209 487T155 374T138 246Z" />
<glyph unicode="&#xd6;" glyph-name="Odieresis" horiz-adv-x="762" d="M372 786Q372 806 388 822T424 839Q438 839 447 828T457 801Q457 780 441 765T405 750Q390 750 381 760T372 786ZM529 786Q529 806 545 822T581 839Q595 839 604 828T614 801Q614 780 598
765T562 750Q547 750 538 760T529 786ZM465 665Q531 665 579 644T660 587T709 502T725 398Q725 323 697 250T616 119T486 24T314 -12Q248 -12 200 8T121 64T75 147T60 249Q60 331 89 406T171 538T299 630T465 665ZM138 246Q138 156 189 105T338 54Q416 54 474 85T571
165T629 278T648 405Q648 448 636 483T598 544T533 584T439 599Q359 599 302 568T209 487T155 374T138 246Z" />
<glyph unicode="&#xd7;" glyph-name="multiply" horiz-adv-x="456" d="M212 202L66 81L37 118L183 239L88 359L133 396L228 276L375 397L404 360L257 239L353 117L308 80L212 202Z" />
<glyph unicode="&#xd8;" glyph-name="Oslash" horiz-adv-x="761" d="M97 97Q60 161 60 249Q60 331 89 406T171 538T299 630T465 665Q520 665 562 650T637 608L720 687L763 648L676 565Q700 530 712 488T724 398Q724 323 696 250T615 119T486 24T314 -12Q254 -12
210 4T134 51L43 -35L4 8L97 97ZM648 405Q648 467 621 514L190 105Q243 54 338 54Q416 54 474 85T571 165T629 278T648 405ZM138 246Q138 192 156 153L583 557Q557 577 522 588T439 599Q359 599 302 568T209 487T155 374T138 246Z" />
<glyph unicode="&#xd9;" glyph-name="Ugrave" horiz-adv-x="689" d="M521 718L337 795Q336 797 336 800T336 806Q336 823 347 835T379 848L539 748V741L530 721L521 718ZM164 256Q155 215 155 184Q155 115 193 85T300 54Q384 54 442 101T523 256L609 660H679L586
222Q575 173 551 131T490 57T401 7T286 -11Q228 -11 188 1T123 36T86 88T74 155Q74 185 82 222L175 660H250L164 256Z" />
<glyph unicode="&#xda;" glyph-name="Uacute" horiz-adv-x="689" d="M351 721L349 741L354 748L556 848Q585 846 585 821Q585 811 582 806T576 795L358 718L351 721ZM164 256Q155 215 155 184Q155 115 193 85T300 54Q384 54 442 101T523 256L609 660H679L586 222Q575
173 551 131T490 57T401 7T286 -11Q228 -11 188 1T123 36T86 88T74 155Q74 185 82 222L175 660H250L164 256Z" />
<glyph unicode="&#xdb;" glyph-name="Ucircumflex" horiz-adv-x="689" d="M466 842L556 743V736L547 716L538 713L448 775L331 713L323 716V736L327 743L459 842H466ZM164 256Q155 215 155 184Q155 115 193 85T300 54Q384 54 442 101T523 256L609 660H679L586
222Q575 173 551 131T490 57T401 7T286 -11Q228 -11 188 1T123 36T86 88T74 155Q74 185 82 222L175 660H250L164 256Z" />
<glyph unicode="&#xdc;" glyph-name="Udieresis" horiz-adv-x="689" d="M346 786Q346 806 362 822T398 839Q412 839 421 828T431 801Q431 780 415 765T379 750Q364 750 355 760T346 786ZM503 786Q503 806 519 822T555 839Q569 839 578 828T588 801Q588 780 572
765T536 750Q521 750 512 760T503 786ZM164 256Q155 215 155 184Q155 115 193 85T300 54Q384 54 442 101T523 256L609 660H679L586 222Q575 173 551 131T490 57T401 7T286 -11Q228 -11 188 1T123 36T86 88T74 155Q74 185 82 222L175 660H250L164 256Z" />
<glyph unicode="&#xdd;" glyph-name="Yacute" horiz-adv-x="565" d="M312 721L311 741L316 748L517 848Q546 846 546 821Q546 811 538 795L319 718L312 721ZM68 660H157L299 343L568 660H655L317 271L260 0H185L241 267L68 660Z" />
<glyph unicode="&#xde;" glyph-name="Thorn" horiz-adv-x="522" d="M225 533Q245 534 265 534T299 535Q393 535 445 494T497 375Q497 331 482 289T433 213T347 159T219 138Q205 138 184 138T142 141L112 0H42L182 660H252L225 533ZM287 469Q274 469 252 469T211
467L156 208Q175 206 196 205T229 204Q327 204 370 249T414 374Q414 419 386 444T287 469Z" />
<glyph unicode="&#xdf;" glyph-name="germandbls" horiz-adv-x="542" d="M89 0H19L122 486Q134 542 155 588T207 667T275 718T360 736Q393 736 418 727T460 702T487 665T496 621Q496 581 473 548T421 487T370 433T346 381Q346 364 356 350T382 323T415 295T449
262T474 221T485 167Q485 119 465 85T417 30T356 -2T298 -12Q265 -12 240 1T201 32L236 103Q244 73 267 57T317 40Q335 40 351 47T380 69T400 104T408 152Q408 192 388 216T343 260T298 302T277 362Q277 391 287 414T314 457T348 495T383 530T409 567T420 610Q420
636 401 655T343 675Q307 675 282 659T239 617T211 557T192 486L89 0Z" />
<glyph unicode="&#xe0;" glyph-name="agrave" horiz-adv-x="575" d="M425 549L239 626Q239 649 248 664T282 680L441 579L443 572L433 552L425 549ZM537 460L440 0H385L395 82H391Q359 45 307 17T191 -12Q150 -12 120 2T71 42T42 100T32 171Q32 228 50 282T104
379T190 448T305 475Q372 475 409 446T450 374L482 460H537ZM211 47Q259 47 311 73T402 148L433 295Q427 352 392 384T303 416Q261 416 225 397T162 346T121 270T106 177Q106 152 111 129T129 87T162 58T211 47Z" />
<glyph unicode="&#xe1;" glyph-name="aacute" horiz-adv-x="575" d="M299 552V572L303 579L504 680Q519 679 526 671T534 652Q534 641 525 626L307 549L299 552ZM537 460L440 0H385L395 82H391Q359 45 307 17T191 -12Q150 -12 120 2T71 42T42 100T32 171Q32 228
50 282T104 379T190 448T305 475Q372 475 409 446T450 374L482 460H537ZM211 47Q259 47 311 73T402 148L433 295Q427 352 392 384T303 416Q261 416 225 397T162 346T121 270T106 177Q106 152 111 129T129 87T162 58T211 47Z" />
<glyph unicode="&#xe2;" glyph-name="acircumflex" horiz-adv-x="575" d="M385 673L474 574L475 567L465 548L458 545L367 606L251 545L243 548L241 567L246 574L377 673H385ZM537 460L440 0H385L395 82H391Q359 45 307 17T191 -12Q150 -12 120 2T71 42T42 100T32
171Q32 228 50 282T104 379T190 448T305 475Q372 475 409 446T450 374L482 460H537ZM211 47Q259 47 311 73T402 148L433 295Q427 352 392 384T303 416Q261 416 225 397T162 346T121 270T106 177Q106 152 111 129T129 87T162 58T211 47Z" />
<glyph unicode="&#xe3;" glyph-name="atilde" horiz-adv-x="575" d="M546 668Q545 665 538 653T517 627T485 602T442 591Q431 591 411 592T368 595T321 598T282 600Q257 600 246 594T222 575L211 583Q212 590 221 603T244 628T278 650T318 659Q344 659 382 655T465
650Q482 650 500 654T536 676L546 668ZM537 460L440 0H385L395 82H391Q359 45 307 17T191 -12Q150 -12 120 2T71 42T42 100T32 171Q32 228 50 282T104 379T190 448T305 475Q372 475 409 446T450 374L482 460H537ZM211 47Q259 47 311 73T402 148L433 295Q427 352
392 384T303 416Q261 416 225 397T162 346T121 270T106 177Q106 152 111 129T129 87T162 58T211 47Z" />
<glyph unicode="&#xe4;" glyph-name="adieresis" horiz-adv-x="575" d="M260 618Q260 638 276 654T312 671Q326 671 335 660T344 634Q344 612 327 597T293 582Q278 582 269 592T260 618ZM417 617Q417 638 433 654T468 671Q482 671 491 660T501 633Q501 612 485
597T449 582Q435 582 426 592T417 617ZM537 460L440 0H385L395 82H391Q359 45 307 17T191 -12Q150 -12 120 2T71 42T42 100T32 171Q32 228 50 282T104 379T190 448T305 475Q372 475 409 446T450 374L482 460H537ZM211 47Q259 47 311 73T402 148L433 295Q427 352
392 384T303 416Q261 416 225 397T162 346T121 270T106 177Q106 152 111 129T129 87T162 58T211 47Z" />
<glyph unicode="&#xe5;" glyph-name="aring" horiz-adv-x="575" d="M397 683Q431 683 448 664T466 620Q466 605 459 591T439 564T408 545T367 538Q331 538 315 557T298 599Q298 614 305 629T326 656T357 675T397 683ZM372 562Q395 562 411 579T427 617Q427 633
418 646T391 659Q367 659 352 641T336 603Q336 587 345 575T372 562ZM537 460L440 0H385L395 82H391Q359 45 307 17T191 -12Q150 -12 120 2T71 42T42 100T32 171Q32 228 50 282T104 379T190 448T305 475Q372 475 409 446T450 374L482 460H537ZM211 47Q259 47 311
73T402 148L433 295Q427 352 392 384T303 416Q261 416 225 397T162 346T121 270T106 177Q106 152 111 129T129 87T162 58T211 47Z" />
<glyph unicode="&#xe6;" glyph-name="ae" horiz-adv-x="817" d="M433 396Q469 430 521 452T630 475Q705 475 744 441T783 343Q783 314 774 286T756 245H419L415 227Q409 200 409 176Q409 119 440 80T539 41Q563 41 587 46T633 58T675 75T711 95L713 42Q698 34
677 25T631 7T578 -6T519 -12Q452 -12 410 15T349 88H345Q293 33 231 11T111 -12Q57 -12 31 18T4 93Q4 138 20 170T62 224T121 260T188 280T255 290T314 292H359L362 304Q364 315 365 323T367 339Q367 359 360 372T340 396Q325 407 307 411T256 416Q214 416 180
405T112 376L109 436Q184 475 277 475Q314 475 346 469T399 446Q410 438 418 424T429 396H433ZM145 47Q165 47 189 53T237 73T285 105T328 148L348 241H339Q294 241 248 237T165 220T104 180T80 108Q80 79 97 63T145 47ZM615 419Q549 419 505 385T437 298H710Q712
303 715 309T718 334Q718 376 688 397T615 419Z" />
<glyph unicode="&#xe7;" glyph-name="ccedilla" horiz-adv-x="500" d="M460 376Q441 393 401 406T318 420Q265 420 226 400T162 348T124 275T111 195Q111 164 119 137T143 88T185 55T245 43Q285 43 329 58T408 100L411 38Q381 21 333 6T231 -12L199 -51Q208 -49
217 -48T233 -47Q263 -47 280 -63T298 -106Q298 -125 288 -142T260 -173T219 -195T169 -203Q145 -203 122 -198T82 -184L83 -178L101 -155H108Q119 -160 136 -163T174 -167Q200 -167 218 -157T237 -116Q237 -96 225 -89T194 -81Q182 -81 169 -83T144 -88L138 -77L195
-11Q153 -7 123 9T73 51T44 110T34 180Q34 234 52 287T107 381T200 449T331 475Q379 475 422 464T490 435L460 376Z" />
<glyph unicode="&#xe8;" glyph-name="egrave" horiz-adv-x="515" d="M328 475Q403 475 442 441T481 343Q481 314 472 286T454 245H114Q108 216 108 188Q108 158 115 132T138 85T178 53T236 41Q284 41 330 58T409 95L411 42Q396 34 375 25T329 7T276 -6T217 -12Q170
-12 136 3T78 45T44 106T32 180Q32 236 53 289T113 383T206 450T328 475ZM313 419Q244 419 199 384T131 298H408Q410 303 412 309T415 334Q415 376 385 397T313 419ZM402 549L217 626Q217 649 226 664T260 680L419 579L420 572L411 552L402 549Z" />
<glyph unicode="&#xe9;" glyph-name="eacute" horiz-adv-x="515" d="M328 475Q403 475 442 441T481 343Q481 314 472 286T454 245H114Q108 216 108 188Q108 158 115 132T138 85T178 53T236 41Q284 41 330 58T409 95L411 42Q396 34 375 25T329 7T276 -6T217 -12Q170
-12 136 3T78 45T44 106T32 180Q32 236 53 289T113 383T206 450T328 475ZM313 419Q244 419 199 384T131 298H408Q410 303 412 309T415 334Q415 376 385 397T313 419ZM259 552L257 572L262 579L463 680Q478 679 485 671T492 652Q492 643 490 637T484 626L265 549L259
552Z" />
<glyph unicode="&#xea;" glyph-name="ecircumflex" horiz-adv-x="515" d="M328 475Q403 475 442 441T481 343Q481 314 472 286T454 245H114Q108 216 108 188Q108 158 115 132T138 85T178 53T236 41Q284 41 330 58T409 95L411 42Q396 34 375 25T329 7T276 -6T217
-12Q170 -12 136 3T78 45T44 106T32 180Q32 236 53 289T113 383T206 450T328 475ZM313 419Q244 419 199 384T131 298H408Q410 303 412 309T415 334Q415 376 385 397T313 419ZM361 673L451 574V567L442 548L434 545L344 606L227 545L219 548L218 567L222 574L354
673H361Z" />
<glyph unicode="&#xeb;" glyph-name="edieresis" horiz-adv-x="515" d="M328 475Q403 475 442 441T481 343Q481 314 472 286T454 245H114Q108 216 108 188Q108 158 115 132T138 85T178 53T236 41Q284 41 330 58T409 95L411 42Q396 34 375 25T329 7T276 -6T217
-12Q170 -12 136 3T78 45T44 106T32 180Q32 236 53 289T113 383T206 450T328 475ZM313 419Q244 419 199 384T131 298H408Q410 303 412 309T415 334Q415 376 385 397T313 419ZM381 618Q381 638 396 654T432 671Q446 671 456 660T466 633Q466 612 449 597T413 582Q399
582 390 592T381 618ZM224 618Q224 638 239 654T275 671Q289 671 299 660T309 633Q309 612 292 597T256 582Q242 582 233 592T224 618Z" />
<glyph unicode="&#xec;" glyph-name="igrave" horiz-adv-x="224" d="M229 549L44 626Q43 628 43 631T43 637Q43 654 54 666T87 680L246 579L248 572L237 552L229 549ZM89 0H19L117 460H187L89 0Z" />
<glyph unicode="&#xed;" glyph-name="iacute" horiz-adv-x="224" d="M79 552L78 572L82 579L284 680Q298 679 305 671T313 652Q313 641 304 626L86 549L79 552ZM89 0H19L117 460H187L89 0Z" />
<glyph unicode="&#xee;" glyph-name="icircumflex" horiz-adv-x="224" d="M198 673L287 574L289 567L278 548L271 545L180 606L64 545L56 548L55 567L59 574L190 673H198ZM89 0H19L117 460H187L89 0Z" />
<glyph unicode="&#xef;" glyph-name="idieresis" horiz-adv-x="224" d="M65 618Q65 638 81 654T117 671Q131 671 140 660T150 633Q150 612 134 597T98 582Q83 582 74 592T65 618ZM222 618Q222 638 238 654T274 671Q288 671 297 660T307 633Q307 612 291 597T255
582Q240 582 231 592T222 618ZM89 0H19L117 460H187L89 0Z" />
<glyph unicode="&#xf0;" glyph-name="eth" horiz-adv-x="577" d="M445 740Q460 723 472 699T496 645L622 677L630 629L509 599Q520 557 525 512T530 420Q530 379 525 331T507 235T472 143T416 64T333 9T220 -12Q169 -12 134 4T77 46T44 107T34 180Q34 234 52 287T106
382T197 449T325 475Q380 475 419 457T470 396L473 397Q472 457 468 502T453 586L321 554L314 600L438 631Q427 660 411 686T372 740H445ZM231 41Q281 41 319 63T384 121T424 199T438 284Q438 351 404 385T310 420Q257 420 220 399T158 343T122 268T110 187Q110
158 117 132T138 85T176 53T231 41Z" />
<glyph unicode="&#xf1;" glyph-name="ntilde" horiz-adv-x="543" d="M513 663Q507 649 498 636T476 611T447 593T409 586Q369 586 329 593T257 600Q232 600 221 594T196 575L185 583Q192 596 202 610T224 634T254 652T292 659Q317 659 335 657T368 652T398 647T432
645Q449 645 467 649T503 671L513 663ZM342 0L407 304Q411 323 411 342Q411 382 390 399T334 416Q309 416 283 408T233 385T188 347T152 295L89 0H19L117 460H172L161 374H165Q187 416 238 445T357 475Q384 475 407 469T448 450T475 416T485 364Q485 341 479 313L412
0H342Z" />
<glyph unicode="&#xf2;" glyph-name="ograve" horiz-adv-x="564" d="M402 549L216 626Q215 628 215 631T215 637Q215 654 227 666T258 680L418 579L419 572L409 552L402 549ZM324 475Q374 475 409 460T468 418T501 357T512 283Q512 227 494 174T440 80T350 14T224
-12Q174 -12 138 3T78 44T44 105T33 179Q33 234 52 287T107 382T198 449T324 475ZM235 41Q285 41 322 61T385 115T423 189T436 273Q436 303 429 329T407 376T367 407T309 419Q259 419 221 399T158 345T121 271T108 187Q108 158 115 132T137 85T177 53T235 41Z"
/>
<glyph unicode="&#xf3;" glyph-name="oacute" horiz-adv-x="564" d="M266 552L264 572L269 579L470 680Q485 679 492 671T500 652Q500 641 491 626L273 549L266 552ZM324 475Q374 475 409 460T468 418T501 357T512 283Q512 227 494 174T440 80T350 14T224 -12Q174
-12 138 3T78 44T44 105T33 179Q33 234 52 287T107 382T198 449T324 475ZM235 41Q285 41 322 61T385 115T423 189T436 273Q436 303 429 329T407 376T367 407T309 419Q259 419 221 399T158 345T121 271T108 187Q108 158 115 132T137 85T177 53T235 41Z" />
<glyph unicode="&#xf4;" glyph-name="ocircumflex" horiz-adv-x="564" d="M378 673L467 574L468 567L459 548L451 545L360 606L244 545L236 548L234 567L239 574L371 673H378ZM324 475Q374 475 409 460T468 418T501 357T512 283Q512 227 494 174T440 80T350 14T224
-12Q174 -12 138 3T78 44T44 105T33 179Q33 234 52 287T107 382T198 449T324 475ZM235 41Q285 41 322 61T385 115T423 189T436 273Q436 303 429 329T407 376T367 407T309 419Q259 419 221 399T158 345T121 271T108 187Q108 158 115 132T137 85T177 53T235 41Z"
/>
<glyph unicode="&#xf5;" glyph-name="otilde" horiz-adv-x="564" d="M511 663Q505 649 496 636T473 611T444 593T406 586Q366 586 326 593T254 600Q229 600 218 594T194 575L183 583Q190 596 199 610T222 634T252 652T290 659Q315 659 333 657T366 652T396 647T430
645Q447 645 465 649T501 671L511 663ZM324 475Q374 475 409 460T468 418T501 357T512 283Q512 227 494 174T440 80T350 14T224 -12Q174 -12 138 3T78 44T44 105T33 179Q33 234 52 287T107 382T198 449T324 475ZM235 41Q285 41 322 61T385 115T423 189T436 273Q436
303 429 329T407 376T367 407T309 419Q259 419 221 399T158 345T121 271T108 187Q108 158 115 132T137 85T177 53T235 41Z" />
<glyph unicode="&#xf6;" glyph-name="odieresis" horiz-adv-x="564" d="M236 618Q236 638 252 654T288 671Q302 671 311 660T321 633Q321 612 305 597T269 582Q254 582 245 592T236 618ZM393 618Q393 638 409 654T445 671Q459 671 468 660T478 633Q478 612 462
597T426 582Q411 582 402 592T393 618ZM324 475Q374 475 409 460T468 418T501 357T512 283Q512 227 494 174T440 80T350 14T224 -12Q174 -12 138 3T78 44T44 105T33 179Q33 234 52 287T107 382T198 449T324 475ZM235 41Q285 41 322 61T385 115T423 189T436 273Q436
303 429 329T407 376T367 407T309 419Q259 419 221 399T158 345T121 271T108 187Q108 158 115 132T137 85T177 53T235 41Z" />
<glyph unicode="&#xf7;" glyph-name="divide" horiz-adv-x="562" d="M487 265L476 213H62L73 265H487ZM204 72Q204 94 222 110T262 127Q278 127 289 116T300 87Q300 76 295 67T281 50T263 38T242 33Q225 33 215 44T204 72ZM271 389Q271 410 289 427T329 445Q345
445 356 433T367 404Q367 393 362 384T348 367T330 356T309 351Q292 351 282 362T271 389Z" />
<glyph unicode="&#xf8;" glyph-name="oslash" horiz-adv-x="564" d="M58 74Q33 118 33 179Q33 234 52 287T107 382T198 449T324 475Q366 475 397 464T451 434L516 494L559 455L487 389Q500 366 506 339T512 283Q512 227 494 174T440 80T350 14T225 -12Q182 -12
150 -2T95 29L25 -35L-14 8L58 74ZM235 41Q285 41 322 61T385 115T424 189T437 273Q437 305 428 334L146 75Q161 59 183 50T235 41ZM109 187Q109 171 110 157T117 128L398 385Q382 401 360 410T309 419Q259 419 222 399T159 345T122 271T109 187Z" />
<glyph unicode="&#xf9;" glyph-name="ugrave" horiz-adv-x="542" d="M391 549L207 626Q206 628 206 631T206 637Q206 654 217 666T249 680L408 579L409 572L400 552L391 549ZM183 460L118 156Q116 145 115 136T113 118Q113 78 134 63T190 47Q241 47 291 77T373
165L435 460H505L407 0H352L363 86H359Q337 44 286 16T168 -12Q141 -12 118 -7T77 11T50 45T40 96Q40 118 46 147L113 460H183Z" />
<glyph unicode="&#xfa;" glyph-name="uacute" horiz-adv-x="542" d="M229 552V572L234 579L435 680Q449 679 456 671T464 652Q464 646 462 640T456 626L237 549L229 552ZM183 460L118 156Q116 145 115 136T113 118Q113 78 134 63T190 47Q241 47 291 77T373 165L435
460H505L407 0H352L363 86H359Q337 44 286 16T168 -12Q141 -12 118 -7T77 11T50 45T40 96Q40 118 46 147L113 460H183Z" />
<glyph unicode="&#xfb;" glyph-name="ucircumflex" horiz-adv-x="542" d="M355 673L444 574L445 567L436 548L427 545L336 606L220 545L212 548V567L215 574L348 673H355ZM183 460L118 156Q116 145 115 136T113 118Q113 78 134 63T190 47Q241 47 291 77T373 165L435
460H505L407 0H352L363 86H359Q337 44 286 16T168 -12Q141 -12 118 -7T77 11T50 45T40 96Q40 118 46 147L113 460H183Z" />
<glyph unicode="&#xfc;" glyph-name="udieresis" horiz-adv-x="542" d="M219 618Q219 638 235 654T271 671Q285 671 295 660T305 633Q305 612 288 597T252 582Q237 582 228 592T219 618ZM376 618Q376 638 392 654T428 671Q442 671 452 660T462 633Q462 612 445
597T409 582Q394 582 385 592T376 618ZM183 460L118 156Q116 145 115 136T113 118Q113 78 134 63T190 47Q241 47 291 77T373 165L435 460H505L407 0H352L363 86H359Q337 44 286 16T168 -12Q141 -12 118 -7T77 11T50 45T40 96Q40 118 46 147L113 460H183Z" />
<glyph unicode="&#xfd;" glyph-name="yacute" horiz-adv-x="518" d="M257 552L255 572L260 579L461 680Q476 679 483 671T490 652Q490 643 488 637T482 626L263 549L257 552ZM238 -4Q217 -36 187 -79T118 -162T36 -228T-58 -256Q-66 -256 -69 -256T-77 -253V-187Q-74
-188 -71 -189T-57 -190Q-37 -190 -19 -186T20 -170Q61 -145 99 -97T174 15L39 460H122L223 77L469 460H548L238 -4Z" />
<glyph unicode="&#xfe;" glyph-name="thorn" horiz-adv-x="576" d="M367 475Q408 475 438 461T487 421T516 363T526 292Q526 235 507 181T453 84T368 15T253 -12Q186 -12 149 17T108 89L34 -260H-36L177 740H247L169 374Q183 391 204 409T250 441T305 465T367
475ZM337 416Q289 416 242 390T156 315L125 168Q128 139 140 117T171 79T214 55T264 47Q307 47 341 66T400 118T437 192T450 278Q450 306 444 331T424 375T389 405T337 416Z" />
<glyph unicode="&#xff;" glyph-name="ydieresis" horiz-adv-x="518" d="M208 618Q208 638 223 654T259 671Q273 671 283 660T293 633Q293 612 276 597T240 582Q226 582 217 592T208 618ZM365 618Q365 638 380 654T416 671Q430 671 440 660T450 633Q450 612 433
597T397 582Q383 582 374 592T365 618ZM238 -4Q217 -36 187 -79T118 -162T36 -228T-58 -256Q-66 -256 -69 -256T-77 -253V-187Q-74 -188 -71 -189T-57 -190Q-37 -190 -19 -186T20 -170Q61 -145 99 -97T174 15L39 460H122L223 77L469 460H548L238 -4Z" />
<glyph unicode="&#x2013;" glyph-name="endash" horiz-adv-x="562" d="M486 265L475 213H61L72 265H486Z" />
<glyph unicode="&#x2014;" glyph-name="emdash" horiz-adv-x="790" d="M714 265L703 213H61L72 265H714Z" />
<glyph unicode="&#x2018;" glyph-name="quoteleft" horiz-adv-x="223" d="M258 715L203 642H228L209 552H130L152 657L242 734L258 715Z" />
<glyph unicode="&#x2019;" glyph-name="quoteright" horiz-adv-x="205" d="M122 571L177 644H152L171 734H250L227 629L138 552L122 571Z" />
<glyph unicode="&#x201a;" glyph-name="quotesinglbase" horiz-adv-x="240" d="M-6 -78L49 -5H24L43 85H122L99 -20L10 -97L-6 -78Z" />
<glyph unicode="&#x201c;" glyph-name="quotedblleft" horiz-adv-x="373" d="M258 715L203 642H228L209 552H130L152 657L242 734L258 715ZM408 715L353 642H378L359 552H280L302 657L392 734L408 715Z" />
<glyph unicode="&#x201d;" glyph-name="quotedblright" horiz-adv-x="355" d="M272 571L327 644H302L321 734H400L377 629L288 552L272 571ZM122 571L177 644H152L171 734H250L227 629L138 552L122 571Z" />
<glyph unicode="&#x201e;" glyph-name="quotedblbase" horiz-adv-x="401" d="M-6 -78L49 -5H24L43 85H122L99 -20L10 -97L-6 -78ZM155 -78L210 -5H185L204 85H283L260 -20L171 -97L155 -78Z" />
<glyph unicode="&#x2022;" glyph-name="bullet" horiz-adv-x="331" d="M89 231Q89 246 96 261T115 287T142 305T173 312Q196 312 212 295T228 253Q228 237 221 223T201 199T174 182T144 176Q119 176 104 192T89 231Z" />
<glyph unicode="&#x2039;" glyph-name="guilsinglleft" horiz-adv-x="319" d="M112 238L218 61H138L43 238L44 243L216 420H295L113 243L112 238Z" />
<glyph unicode="&#x203a;" glyph-name="guilsinglright" horiz-adv-x="319" d="M193 243L86 420H165L262 243L261 238L90 61H10L192 238L193 243Z" />
</font>
</defs>
</svg>
