<?xml version="1.0" standalone="no"?>
<!DOCTYPE svg PUBLIC "-//W3C//DTD SVG 1.1//EN" "http://www.w3.org/Graphics/SVG/1.1/DTD/svg11.dtd">
<svg xmlns="http://www.w3.org/2000/svg">
<defs >
<font id="Rosarivo" horiz-adv-x="473" ><font-face
    font-family="Rosarivo"
    units-per-em="1000"
    panose-1="2 0 0 0 0 0 0 0 0 0"
    ascent="979"
    descent="-424"
    alphabetic="0" />
<glyph unicode=" " glyph-name="space" horiz-adv-x="307" />
<glyph unicode="!" glyph-name="exclam" horiz-adv-x="335" d="M136 191L133 507Q133 675 108 680L84 684L81 696L85 709Q127 724 208 773Q223 773 223 764L173 195L136 191ZM137 -20Q99 11 80 55Q117 93 157 112Q198 75 212 36Q202 22 180 5T137 -20Z" />
<glyph unicode="&quot;" glyph-name="quotedbl" horiz-adv-x="433" d="M100 840Q117 847 135 847T175 840L144 573Q139 571 128 571T109 573L100 840ZM267 840Q284 847 302 847T341 840L311 573Q305 571 295 571T276 573L267 840Z" />
<glyph unicode="#" glyph-name="numbersign" horiz-adv-x="572" d="M399 127L388 -19Q362 -23 340 -32Q330 -32 325 -23Q337 32 345 128H209L199 -19Q173 -23 151 -32Q141 -32 136 -23Q148 32 156 127Q119 127 56 120Q47 124 47 135Q56 158 60 179H160L169 317Q129
316 56 309Q47 313 47 324Q56 347 60 368H173L183 493Q221 501 232 507Q242 507 248 497Q234 428 228 368H363L372 493Q408 501 421 507Q431 507 437 497Q434 482 417 369Q479 373 516 377Q525 373 525 361Q520 352 512 316H412L403 180Q443 181 516 188Q525 184
525 172Q520 163 512 127H399ZM212 179H349L359 317H224L212 179Z" />
<glyph unicode="$" glyph-name="dollar" horiz-adv-x="469" d="M251 589Q259 589 261 583Q257 533 257 509Q325 506 384 483Q377 459 368 371Q363 367 354 367T337 369Q334 403 321 447Q302 466 256 472V291L289 275Q404 219 404 128Q404 67 359 28T248 -19V-91Q233
-94 215 -101Q208 -101 204 -95L208 -20Q123 -15 80 3Q75 55 61 128Q73 135 80 135T91 133Q93 129 99 110Q112 71 125 56Q155 26 209 20V216L168 236Q71 282 71 369Q71 432 114 466T217 507V579Q234 582 251 589ZM325 103Q325 161 248 197V20Q282 24 303 45T325
103ZM185 468T167 448T148 399T166 348T212 312L217 309V472Q185 468 167 448Z" />
<glyph unicode="%" glyph-name="percent" horiz-adv-x="661" d="M308 377Q308 250 181 235Q125 235 93 275T60 378T94 478T187 520Q242 520 275 479T308 377ZM134 449T118 436T101 388T126 330T193 305T250 320T267 369T242 426T175 449ZM601 87Q601 -41 475 -56Q418
-56 386 -16T353 88T387 187T480 229Q535 229 568 189T601 87ZM427 159T411 145T395 98T420 40T486 15T543 29T560 78T535 135T468 159ZM481 523Q484 524 490 524T497 521Q509 500 531 476L345 204Q316 162 259 73T185 -55Q183 -56 179 -56L171 -53Q159 -37 136
-12L301 232Q324 265 390 370T481 523Z" />
<glyph unicode="&amp;" glyph-name="ampersand" horiz-adv-x="831" d="M529 517L649 515Q733 515 765 520Q771 509 771 503L769 495Q707 489 666 429Q633 380 609 325Q584 264 535 168Q657 52 760 35Q783 31 831 31Q833 17 833 11T832 0Q767 -3 725 -11T674 -20T644
-12T579 24T487 91Q449 41 402 15T283 -20Q178 -20 107 36T35 185Q35 260 71 313T176 423Q119 516 119 584T168 689T296 736Q352 736 396 702T440 617Q440 582 413 555Q392 534 376 523T359 511L340 528Q375 564 375 607T347 679T282 709T223 684T201 615T227 518T304
406Q382 316 479 224L507 197Q578 337 601 481Q571 487 529 487Q525 495 525 502T529 517ZM305 27Q388 27 456 117Q280 279 199 389Q163 348 150 316T136 239T145 161T172 96T225 46T305 27Z" />
<glyph unicode="&apos;" glyph-name="quotesingle" horiz-adv-x="280" d="M100 840Q121 847 137 847T175 840L144 573Q130 571 126 571T109 573L100 840Z" />
<glyph unicode="(" glyph-name="parenleft" horiz-adv-x="339" d="M299 885Q164 665 164 366T299 -156Q295 -173 272 -173Q181 -56 131 67T80 365T130 664T272 904Q283 904 290 899T299 885Z" />
<glyph unicode=")" glyph-name="parenright" horiz-adv-x="339" d="M40 -156Q175 66 175 365T40 885Q40 891 47 897T67 904Q158 787 208 664T259 366T209 67T67 -173Q57 -173 50 -169T40 -156Z" />
<glyph unicode="*" glyph-name="asterisk" horiz-adv-x="403" d="M260 872Q227 799 217 709L352 787Q379 751 400 735L397 724Q306 713 233 680L368 600Q351 564 345 533L336 531Q284 601 217 652V496Q176 491 149 480L141 488Q171 555 185 652L49 576Q25 610
3 628Q3 635 5 639Q84 646 167 679L33 756Q46 787 53 823L64 827Q113 759 184 708V864Q225 869 252 880L260 872Z" />
<glyph unicode="+" glyph-name="plus" horiz-adv-x="569" d="M313 237Q313 120 321 33Q317 24 307 24Q298 27 255 37V237Q159 237 68 229Q59 233 59 244Q66 264 72 292H255Q255 389 245 499Q249 508 261 508Q271 502 289 499T313 495V292Q410 292 501 301Q511
297 511 285Q505 273 497 237H313Z" />
<glyph unicode="," glyph-name="comma" horiz-adv-x="235" d="M184 37Q184 2 155 -50T76 -151Q60 -151 55 -136Q107 -61 107 -16Q75 10 53 55Q92 97 131 112Q149 97 164 75T184 37Z" />
<glyph unicode="-" glyph-name="hyphen" horiz-adv-x="380" d="M203 275Q267 275 324 284Q333 280 333 269Q326 249 320 221H177Q113 221 56 212Q47 216 47 227Q54 247 60 275H203Z" />
<glyph unicode="." glyph-name="period" horiz-adv-x="236" d="M111 -20Q72 13 53 55Q89 93 131 112Q172 73 185 36Q176 22 153 6T111 -20Z" />
<glyph unicode="/" glyph-name="slash" horiz-adv-x="361" d="M328 831L199 371Q91 -28 80 -97Q73 -103 63 -103Q51 -93 13 -72L143 388Q251 785 261 856Q268 861 279 861Q287 854 328 831Z" />
<glyph unicode="0" glyph-name="zero" horiz-adv-x="591" d="M404 524T467 447T531 247T466 59T288 -20Q179 -20 117 55T55 254T119 444T296 524Q404 524 467 447ZM186 437T146 398T105 276T164 129T309 65T436 106T477 230T419 375T274 437Z" />
<glyph unicode="1" glyph-name="one" horiz-adv-x="332" d="M211 531Q226 525 232 509Q215 469 212 428T208 210T217 32Q245 29 300 29Q303 14 303 13L300 -3L183 0Q89 0 17 -8Q12 -3 12 8L13 17Q111 39 121 67Q133 96 133 231T131 415L24 401Q17 411 17 421T19
436Q106 464 134 478T211 531Z" />
<glyph unicode="2" glyph-name="two" horiz-adv-x="489" d="M336 -3L175 0Q75 0 31 -5Q25 3 25 16L145 132Q148 135 170 155T206 188T242 226T278 272Q311 322 311 365T279 438T206 467T109 440Q97 369 95 339Q87 335 80 335T67 337Q63 400 56 423T48 448Q48 461
63 467Q124 493 227 524Q299 524 349 491T399 387T311 233L133 64H239Q327 64 359 70T408 95Q413 101 427 132Q429 133 438 133T453 127Q450 109 446 89T440 58Q436 26 436 9Q416 -3 336 -3Z" />
<glyph unicode="3" glyph-name="three" horiz-adv-x="477" d="M203 465Q161 465 89 439Q79 377 76 337Q68 333 59 333L47 336Q41 408 32 438L28 449Q28 459 43 465Q83 486 228 524Q403 524 403 405Q403 376 384 346T299 251L261 215Q404 123 404 5Q404 -98 317
-166T48 -299Q40 -291 40 -273Q180 -210 248 -154T316 -29T274 86T156 175L237 249Q316 320 316 380Q316 465 203 465Z" />
<glyph unicode="4" glyph-name="four" horiz-adv-x="523" d="M309 -95V-3Q207 0 120 0T-7 -5Q-12 1 -12 16Q13 42 29 64L245 351Q298 420 352 502L368 527Q384 525 396 517Q383 459 383 256V63Q454 63 467 81Q480 105 487 125Q492 127 499 127T513 120Q509 96
502 62T493 7Q477 -2 383 -4Q383 -39 388 -263Q356 -265 313 -295Q302 -295 293 -289Q309 -216 309 -95ZM309 60V368L79 60H309Z" />
<glyph unicode="5" glyph-name="five" d="M424 444Q402 429 320 429T121 433L104 309Q227 260 306 192T385 40Q385 -81 288 -164Q239 -206 187 -237T52 -309Q42 -305 40 -284Q167 -209 230 -145T293 -2T224 136T51 236L95 512Q212 507 295 507T395 524Q400 529
406 540T415 557Q429 557 439 552Q425 482 424 444Z" />
<glyph unicode="6" glyph-name="six" horiz-adv-x="576" d="M67 271Q67 364 116 463T261 624T471 716Q479 705 479 691Q353 639 281 577Q164 475 164 273Q164 170 197 98Q214 61 244 40T316 19Q377 19 410 64T443 175T404 298T301 356Q265 356 231 337Q217 344
217 363Q270 395 344 395T474 339T529 209Q529 108 463 52T289 -20Q188 -20 128 61T67 271Z" />
<glyph unicode="7" glyph-name="seven" horiz-adv-x="503" d="M499 515Q507 509 509 496Q423 383 325 191Q208 -43 129 -291Q125 -293 120 -293T111 -291Q87 -267 54 -260L43 -257Q139 -37 261 179Q336 309 415 431Q324 439 200 439T61 415Q47 389 40 372Q37 371
30 371T13 377Q36 505 36 516Q111 509 275 509T499 515Z" />
<glyph unicode="8" glyph-name="eight" horiz-adv-x="496" d="M52 525Q52 607 106 650T247 707Q315 707 372 664T429 563T397 469T291 381Q369 333 414 286T459 179Q459 91 398 43T240 -20Q164 -20 100 27T36 142T81 257T208 353Q133 398 93 437T52 525ZM119 169Q119
106 158 61T254 16T345 53T379 146T339 244T228 333Q119 254 119 169ZM353 539Q353 595 318 635T233 675T152 641T121 567Q121 495 271 401Q353 465 353 539Z" />
<glyph unicode="9" glyph-name="nine" horiz-adv-x="576" d="M509 211Q509 113 468 7T351 -172Q257 -261 149 -299Q139 -288 139 -273Q204 -237 245 -206T325 -123Q412 -11 412 209Q412 372 350 444Q314 485 257 485T168 437T135 319T173 188T275 127Q306 127
347 145Q360 138 360 120Q309 88 234 88T103 146T47 281Q47 387 113 447T288 524Q389 524 449 437T509 211Z" />
<glyph unicode=":" glyph-name="colon" horiz-adv-x="236" d="M111 324Q72 357 53 399Q89 437 131 456Q172 417 185 380Q176 366 153 350T111 324ZM111 -20Q72 13 53 55Q89 93 131 112Q172 73 185 36Q176 22 153 6T111 -20Z" />
<glyph unicode=";" glyph-name="semicolon" horiz-adv-x="244" d="M184 37Q184 2 155 -50T76 -151Q60 -151 55 -136Q107 -61 107 -16Q75 10 53 55Q92 97 131 112Q149 97 164 75T184 37ZM119 324Q80 357 61 399Q97 437 139 456Q180 417 193 380Q184 366 161 350T119 324Z" />
<glyph unicode="&lt;" glyph-name="less" horiz-adv-x="495" d="M264 156L40 252V284L264 380Q382 430 440 460Q448 460 451 449Q451 417 455 396L139 268L455 140Q451 119 451 87Q449 78 440 76Q382 106 264 156Z" />
<glyph unicode="=" glyph-name="equal" horiz-adv-x="559" d="M277 383Q412 383 509 392Q519 388 519 376Q516 370 505 323H279Q147 323 49 315Q40 319 40 329Q44 338 53 383H277ZM277 204Q412 204 509 213Q519 209 519 197Q516 191 505 144H279Q147 144 49 136Q40
140 40 151Q44 160 53 204H277Z" />
<glyph unicode="&gt;" glyph-name="greater" horiz-adv-x="495" d="M455 252L231 156Q93 95 55 76Q47 76 44 87Q44 119 40 140L356 268L40 396Q44 417 44 449Q46 458 55 460Q113 430 231 380L455 284V252Z" />
<glyph unicode="?" glyph-name="question" horiz-adv-x="416" d="M128 -20Q90 11 71 55Q104 92 148 112Q188 74 203 36Q193 22 170 5T128 -20ZM112 354T112 360T116 366Q123 366 129 368Q196 379 250 402T312 460Q317 480 317 504Q317 610 171 649Q161 652 141
657T111 665T90 672Q68 679 68 689Q68 695 72 733T77 809Q86 812 92 812T108 808Q108 786 113 772Q134 758 176 743T233 721Q363 658 363 517Q363 505 359 469Q330 401 294 368T191 320Q185 303 168 196Q161 192 150 192T129 195Q123 286 118 320Z" />
<glyph unicode="@" glyph-name="at" horiz-adv-x="904" d="M463 -193Q280 -193 172 -94T64 184Q64 301 126 403T293 564T516 623Q667 623 760 534T853 296Q853 191 807 112Q756 25 639 -7Q576 -7 556 62Q539 122 535 209Q456 49 383 12Q346 19 317 57T287 155T308
268T358 350T422 398Q476 429 516 432T567 440L613 456Q622 456 624 451Q613 294 613 165Q613 114 629 73T664 31Q696 31 732 110T769 297Q769 434 698 511T493 588Q397 588 319 529T200 378T159 185Q159 31 239 -62T467 -155Q558 -155 636 -131Q647 -140 647 -161Q553
-193 463 -193ZM408 91Q445 91 491 171T544 329L549 396Q504 396 471 392T404 328T371 177Q371 139 382 115T408 91Z" />
<glyph unicode="A" glyph-name="A" horiz-adv-x="747" d="M749 -3L632 0Q556 0 499 -8Q493 0 493 9L495 17Q534 26 549 37T565 63T551 119L492 269Q438 272 363 272L220 269L195 205Q145 81 145 29Q168 28 215 28Q217 21 217 12T215 -3L109 0Q46 0 -1 -8Q-7 -1
-7 9L-5 17Q46 31 69 61T140 197L387 757H403L633 169Q639 150 664 96T697 31Q725 28 749 28Q752 21 752 12T749 -3ZM235 308L363 304Q432 304 479 307L363 613L235 308Z" />
<glyph unicode="B" glyph-name="B" horiz-adv-x="681" d="M49 723L201 720H355Q450 720 508 678T567 555Q567 490 523 445T432 388Q514 373 559 324T605 196Q605 104 525 52T324 0Q105 0 40 -8Q35 -2 35 9L36 17Q88 29 104 54Q117 74 121 104Q133 195 133 352Q133
681 115 687Q96 692 49 692Q47 699 47 708T49 723ZM219 372V172Q219 78 225 40Q261 36 309 36Q412 36 462 71T513 184T463 315T333 367H291Q285 374 285 384L291 404H320Q480 404 480 543Q480 612 438 648T328 685T231 681Q219 633 219 372Z" />
<glyph unicode="C" glyph-name="C" horiz-adv-x="760" d="M435 -20Q263 -20 164 87T64 358T172 629T448 736Q581 736 684 703Q689 700 689 696T686 664Q673 571 672 528Q657 525 651 525T633 529Q624 598 615 632Q589 660 542 680T435 700Q321 700 247 620T172
401Q172 303 204 217T301 76T455 20T613 68Q632 100 660 175Q684 175 697 165Q683 93 676 20Q675 9 663 7Q567 -20 435 -20Z" />
<glyph unicode="D" glyph-name="D" horiz-adv-x="824" d="M376 -4L228 0Q92 0 25 -8Q20 -2 20 8L21 17Q91 31 108 56Q117 70 119 78T126 147T133 352V468Q133 681 116 687Q87 692 47 692Q44 699 44 708T47 723L159 720H255L376 724Q563 724 661 624T760 365T652
101T376 -4ZM308 685Q260 685 233 681Q221 637 221 487V172Q221 83 225 53Q292 36 365 36Q511 36 581 116T652 347Q652 483 574 580Q534 628 466 656T308 685Z" />
<glyph unicode="E" glyph-name="E" horiz-adv-x="649" d="M431 -4L260 0H207Q91 0 40 -8Q35 -2 35 9L36 17Q88 29 104 54Q117 74 121 104Q133 195 133 352Q133 681 115 687Q96 692 49 692Q47 699 47 708T49 723L201 720H316L552 727Q569 727 569 716Q569 715 566
692Q556 630 552 553Q540 547 531 547T513 551Q501 642 495 664Q404 685 332 685T231 681Q219 617 219 396Q235 392 304 392T407 396T456 412T480 461Q501 461 511 455Q501 398 501 371L503 284Q496 279 485 279L471 281L460 347Q406 356 334 356T219 351V172Q219
78 225 40Q256 36 296 36Q399 36 500 63Q515 87 529 125T545 171Q551 172 561 172T583 163Q568 92 561 16Q560 4 548 3Q504 -4 431 -4Z" />
<glyph unicode="F" glyph-name="F" horiz-adv-x="631" d="M501 360L503 273Q489 269 483 269L471 271L460 336Q424 345 336 345T219 340V224Q219 121 227 37Q273 31 352 31Q356 21 356 12T352 -3L179 0Q103 0 40 -8Q35 -2 35 9L36 17Q88 29 104 54Q117 74 121
104Q133 195 133 332Q133 680 115 687Q96 692 49 692Q47 699 47 708T49 723L201 720H329Q329 720 565 727Q583 727 583 716Q583 715 580 692Q569 620 565 553Q553 547 544 547T527 551Q516 634 508 664Q417 685 341 685T231 681Q219 635 219 385Q243 381 304 381T403
385T457 401T480 452Q499 452 511 445Q501 388 501 360Z" />
<glyph unicode="G" glyph-name="G" horiz-adv-x="817" d="M495 292L655 289Q702 289 747 297Q751 287 751 280L749 268Q711 252 707 203Q700 135 700 11Q640 11 561 -4T435 -20Q263 -20 164 87T64 358T172 629T448 736Q584 736 689 707Q696 705 696 700T696 687T694
665T691 632Q689 594 689 532Q682 528 670 528T651 531Q633 612 625 632Q546 700 434 700T247 620T172 401Q172 303 204 217T301 76T451 20T615 56V117Q615 192 609 253Q558 259 495 259Q491 266 491 275L495 292Z" />
<glyph unicode="H" glyph-name="H" horiz-adv-x="839" d="M620 352L433 357Q349 357 219 352V168Q219 32 231 31Q249 28 299 28Q301 21 301 12T299 -3L200 0Q103 0 40 -8Q35 -2 35 9L36 17Q88 29 104 54Q117 74 121 104Q133 195 133 385V552Q133 688 121 689Q103
692 53 692Q51 699 51 708T53 723Q53 723 156 720Q249 720 299 728Q303 720 303 703Q274 696 258 681T238 652Q223 604 219 396Q319 392 433 392L620 396V552Q620 688 608 689Q589 692 540 692Q537 699 537 708T540 723L643 720Q736 720 785 728Q789 719 789 703Q760
695 744 680T724 652T717 616Q705 510 705 380V168Q705 32 717 31Q736 28 791 28Q793 21 793 12T791 -3L687 0Q580 0 513 -8Q508 -2 508 9L509 17Q569 31 586 48T608 104Q619 206 620 352Z" />
<glyph unicode="I" glyph-name="I" horiz-adv-x="356" d="M49 723L179 720L307 723Q309 717 309 708L307 692Q263 692 240 689Q223 687 223 464V301Q223 206 227 119T239 31Q265 28 327 28Q329 21 329 12T327 -3L200 0Q95 0 28 -8Q23 -3 23 9L24 17Q89 31 104
50Q113 62 116 71T121 99Q133 177 133 352V464Q133 687 116 689Q93 692 49 692Q47 699 47 708T49 723Z" />
<glyph unicode="J" glyph-name="J" horiz-adv-x="353" d="M39 723L164 720Q248 720 292 728Q297 722 297 711L296 703Q252 695 239 616Q229 571 229 395V84Q229 -38 209 -90T113 -200L13 -276Q-5 -272 -5 -253L51 -196Q109 -137 124 -56T140 167V433Q140 687 124
689Q97 692 39 692Q36 699 36 708T39 723Z" />
<glyph unicode="K" glyph-name="K" horiz-adv-x="707" d="M316 -3L183 0Q84 0 25 -8Q20 -2 20 9L21 17Q81 31 98 48T121 104Q133 219 133 352V468Q133 687 116 689Q93 692 47 692Q44 699 44 708T47 723L159 720Q252 720 300 728Q304 723 304 703Q269 698 255 679T233
629Q223 577 223 395V211Q223 96 229 33Q256 28 316 28Q319 21 319 12L316 -3ZM709 31Q712 25 712 14T711 0Q645 -3 601 -11T551 -20Q520 -20 336 274Q263 390 255 401L385 524Q476 609 511 681Q493 691 433 693Q432 697 432 704L436 724Q537 720 558 720T640 725Q648
718 648 700Q588 663 544 624L340 444Q529 143 584 79Q621 36 648 33Q665 31 709 31Z" />
<glyph unicode="L" glyph-name="L" horiz-adv-x="596" d="M444 -4L273 0H207Q94 0 40 -8Q35 -2 35 9L36 17Q88 29 104 54Q117 74 124 130T132 349V551Q132 688 119 689Q100 692 59 692Q56 699 56 708T59 723L155 720Q247 720 297 728Q303 720 303 712L301 703Q260
692 247 676T231 628Q219 505 219 361V172Q219 78 225 40Q261 36 309 36Q412 36 513 63Q529 86 542 124T559 171Q564 172 574 172T596 163Q592 142 583 75T572 6Q559 -4 444 -4Z" />
<glyph unicode="M" glyph-name="M" horiz-adv-x="1015" d="M976 -3L872 0Q764 0 697 -8Q692 -2 692 9L693 17Q753 31 769 47T788 115T791 223T785 396L777 560Q731 475 634 271T507 -20H479Q284 421 229 517L187 589Q183 465 183 287T195 31Q217 28 273 28Q276
20 276 11T273 -3L160 0Q91 0 44 -8Q39 -2 39 9L40 17Q89 28 105 49T127 104Q151 275 155 643Q128 677 96 691Q92 692 40 699L37 713Q37 723 40 729L200 733Q215 733 251 680T324 563T407 395T487 217T523 135Q536 164 646 396T791 720Q892 720 952 729Q957 720
957 704Q907 693 890 671T871 624T869 530T875 296T896 31Q915 28 976 28Q979 21 979 12T976 -3Z" />
<glyph unicode="N" glyph-name="N" horiz-adv-x="860" d="M264 -3L151 0Q82 0 35 -8Q29 0 29 9L31 17Q83 29 100 54Q113 74 117 104Q135 234 140 653Q115 680 96 688T35 699Q32 705 32 714T35 729L199 733Q229 733 401 527Q499 411 688 157Q685 235 682 435T669
689Q647 692 588 692Q584 700 584 708T587 723L700 720Q769 720 816 728Q821 722 821 711L820 703Q771 692 755 672T736 616Q723 408 723 -15L699 -25L677 3Q486 255 303 481Q231 569 172 623Q172 488 172 302T185 31Q208 28 264 28Q267 20 267 12T264 -3Z" />
<glyph unicode="O" glyph-name="O" horiz-adv-x="843" d="M779 357Q779 287 760 229T711 133T642 66T568 21T496 -5Q443 -20 416 -20Q270 -20 167 88T64 357Q64 427 83 485T132 582T201 649T276 695T347 721Q399 736 428 736Q573 736 676 626T779 357ZM447 32Q560
32 618 108T677 305Q677 398 644 484T545 627T399 685Q286 685 226 607T165 412Q165 319 199 233T300 89T447 32Z" />
<glyph unicode="P" glyph-name="P" horiz-adv-x="657" d="M49 723L201 720H329Q451 720 521 668T591 506T516 339T320 283Q283 283 264 284Q259 290 259 301L264 321Q277 320 316 320Q396 320 449 367T503 493T456 628T338 685T231 681Q225 664 222 606T219 295V172Q219
90 224 37Q271 31 352 31Q356 21 356 12T352 -3L179 0Q103 0 40 -8Q35 -2 35 9L36 17Q88 29 104 54Q117 74 121 104Q133 195 133 350Q133 681 115 687Q96 692 49 692Q47 699 47 708T49 723Z" />
<glyph unicode="Q" glyph-name="Q" horiz-adv-x="843" d="M779 357Q779 123 573 24Q589 3 620 -33T674 -91T720 -128Q749 -146 797 -165Q824 -165 876 -153Q887 -163 887 -183Q876 -186 838 -199Q743 -231 729 -231Q674 -231 532 -75Q513 -55 477 -9Q432 -20 416
-20Q270 -20 167 88T64 357Q64 427 83 485T132 582T201 649T276 695T347 721Q399 736 428 736Q573 736 676 626T779 357ZM447 32Q560 32 618 108T677 305Q677 398 644 484T545 627T399 685Q286 685 226 607T165 412Q165 319 199 233T300 89T447 32Z" />
<glyph unicode="R" glyph-name="R" horiz-adv-x="704" d="M49 723L201 720H320Q433 720 498 672T563 521Q563 444 523 395T412 325Q447 264 499 186T584 72T639 32T707 28Q709 20 709 13T707 -3Q634 -7 594 -13T546 -20T516 5T463 76T409 161T354 250T316 312Q252
312 217 316V167Q217 107 224 35Q255 28 312 28Q315 20 315 11T312 -3L179 0Q103 0 40 -8Q35 -2 35 9L36 17Q88 29 104 54Q117 74 121 104Q133 195 133 350Q133 681 115 687Q96 692 49 692Q45 699 45 705T49 723ZM476 584T435 636T324 688T228 684Q217 640 217
352Q253 349 317 349T428 393T476 510Z" />
<glyph unicode="S" glyph-name="S" horiz-adv-x="639" d="M463 660Q396 703 334 703T234 669T196 584T237 494T369 412Q515 341 554 260Q572 222 572 179Q572 86 494 33T309 -20Q252 -20 190 -9T101 13Q91 91 67 191Q85 200 94 200T109 199Q137 129 161 93Q182
71 198 58T250 30T339 16T433 52T475 144Q475 189 459 209T436 239T407 262T378 281T344 300T297 325T262 345T219 370T178 398T147 427T120 460Q100 503 100 541Q100 633 177 684T363 736Q408 736 463 724T548 699Q539 664 531 553Q521 548 510 548T491 552Q490
564 479 606T463 660Z" />
<glyph unicode="T" glyph-name="T" horiz-adv-x="683" d="M504 -3L340 0Q232 0 161 -8Q156 -2 156 9L157 17Q226 28 248 45T277 103Q291 177 291 351T287 594T277 680Q252 685 216 685Q132 685 85 663L41 553Q18 553 7 561L23 716Q23 727 40 727L216 720H461L653
727Q671 727 671 716Q655 628 655 555Q647 551 635 551T616 555Q598 654 596 663Q546 685 459 685Q420 685 396 680Q393 671 389 597T384 407V228Q384 117 400 35Q446 28 504 28Q507 20 507 11T504 -3Z" />
<glyph unicode="U" glyph-name="U" horiz-adv-x="829" d="M49 723L145 720Q251 720 305 728Q311 720 311 711L309 703Q256 691 242 672Q231 658 227 628Q215 511 215 296Q215 167 267 95T429 23Q560 23 610 93T661 309V433Q661 615 651 689Q628 692 565 692Q563
700 563 709T565 723L683 720Q759 720 800 728Q805 722 805 711L804 703Q727 686 720 599Q709 470 709 284Q709 137 637 59T421 -20Q345 -20 289 -1T201 47T150 118T126 197T120 279V432Q120 513 111 689Q92 692 49 692Q47 699 47 708T49 723Z" />
<glyph unicode="V" glyph-name="V" horiz-adv-x="809" d="M4 703Q3 708 3 713T8 728Q72 720 156 720T303 723Q305 717 305 708L303 692Q245 692 221 691Q221 653 245 569T303 404L425 108L559 404Q599 493 628 577T657 688Q639 692 581 692Q579 699 579 708T581
723Q647 720 699 720T801 728Q807 722 807 711L805 703Q766 691 743 668Q710 635 666 542Q644 495 626 455T603 404L401 -39H384L168 480Q107 632 72 672Q57 689 4 703Z" />
<glyph unicode="W" glyph-name="W" horiz-adv-x="1112" d="M617 719L715 720Q765 720 803 724Q808 718 808 705L807 699Q783 691 771 673Q751 647 633 431L764 108L881 404Q965 615 976 688Q957 692 900 692Q897 697 897 706T900 723Q966 720 1011 720T1107 728Q1112
722 1112 711L1111 703Q1084 693 1065 673T1015 597T969 504L740 -39H723L571 332L392 -39H375L165 480Q106 630 71 671Q55 689 1 703Q0 707 0 715T5 728Q69 720 143 720T299 723Q301 719 301 709L299 692Q241 692 217 691Q223 605 300 404L416 108L551 380L511
480Q450 632 423 673Q411 690 376 699Q375 701 375 709T379 724Q427 720 513 720L617 719ZM540 689Q544 627 611 469Q694 655 700 689Q655 692 619 692L540 689Z" />
<glyph unicode="X" glyph-name="X" horiz-adv-x="743" d="M15 729L173 733Q188 733 242 659Q281 607 329 523T389 420L427 467Q433 475 451 497T476 528T497 555T519 585T538 615Q559 650 576 687Q527 689 483 689Q479 697 479 706T483 720H585Q655 720 723 728Q728
722 728 712L727 701Q688 690 647 652T533 527L411 381Q451 308 517 201Q617 39 680 32Q697 31 740 31Q743 24 743 15T741 0Q681 -3 634 -11T581 -20Q566 -20 528 23T436 150T337 316L285 248Q184 115 148 33Q197 31 235 31Q237 23 237 14T235 0H133Q75 0 7 -8Q1
1 1 17Q29 25 64 59T199 213L316 355Q258 456 213 532T134 644T80 688T15 699Q12 705 12 714T15 729Z" />
<glyph unicode="Y" glyph-name="Y" horiz-adv-x="723" d="M3 729L165 733Q175 733 216 678T310 530T391 352Q406 378 436 429T481 508T517 574Q554 642 564 688Q543 692 483 692Q480 699 480 708T483 723Q549 720 610 720T717 728Q723 718 723 711L721 703Q694
695 659 669Q614 637 525 500T423 313Q415 292 415 198T425 35Q466 28 540 28Q543 21 543 12L540 -3L381 0Q265 0 189 -8Q184 -2 184 9L185 17Q281 32 302 62T323 175T309 312T228 481T105 655Q83 680 64 688T3 699Q0 705 0 715T3 729Z" />
<glyph unicode="Z" glyph-name="Z" horiz-adv-x="737" d="M507 -1L323 0Q140 0 48 -12Q41 0 41 16Q73 49 96 81Q352 426 511 681H391Q232 681 147 657Q140 633 128 555Q121 551 111 551T89 553Q86 625 72 716Q72 727 89 727Q89 727 369 720H431Q558 720 657 733Q665
723 665 707Q633 684 462 435T197 40H297Q372 40 466 53T597 79Q621 111 653 177Q675 177 691 169Q672 93 660 16Q659 4 641 2T507 -1Z" />
<glyph unicode="[" glyph-name="bracketleft" horiz-adv-x="409" d="M229 439V239Q229 -49 233 -72T246 -104T275 -117L347 -124Q351 -132 351 -137L347 -151Q247 -165 168 -197Q160 -197 153 -188Q164 -91 164 255V423Q164 768 153 865Q157 875 168 875Q251 842
347 828Q351 821 351 815T347 801Q298 797 277 795T245 782T234 757Q229 718 229 439Z" />
<glyph unicode="\" glyph-name="backslash" horiz-adv-x="357" d="M195 387L324 -73L276 -103Q273 -104 269 -104L257 -99Q240 19 139 369L9 831Q46 849 57 859Q60 860 65 860L76 855Q94 738 195 387Z" />
<glyph unicode="]" glyph-name="bracketright" horiz-adv-x="409" d="M180 239V439Q180 730 177 750Q171 790 135 795L63 801Q59 806 59 813L63 828Q158 842 241 875Q250 875 256 865Q245 768 245 423V255Q245 -91 256 -188Q252 -197 241 -197Q162 -165 63 -151Q59
-145 59 -137T63 -124Q112 -121 133 -118T163 -104T174 -84Q180 -45 180 239Z" />
<glyph unicode="^" glyph-name="asciicircum" horiz-adv-x="556" d="M263 856H293Q358 725 516 365Q499 348 475 348L281 748L81 348Q57 348 40 365Q198 725 263 856Z" />
<glyph unicode="_" glyph-name="underscore" horiz-adv-x="567" d="M283 -43Q445 -43 559 -33Q568 -37 568 -49Q565 -55 555 -97H284Q124 -97 11 -105Q1 -101 1 -91Q9 -71 15 -43H283Z" />
<glyph unicode="`" glyph-name="grave" horiz-adv-x="589" d="M371 547L199 697Q213 732 255 748Q309 670 372 590L393 564Q389 547 371 547Z" />
<glyph unicode="a" glyph-name="a" horiz-adv-x="493" d="M395 364L392 120Q392 47 439 47L475 48Q479 43 479 32L477 21Q400 7 367 -20Q345 -14 330 7T312 53Q232 4 153 -20Q119 -20 83 18T47 115Q47 144 60 167T91 200Q165 237 311 265V360Q311 415 294 442T252
469T199 461T160 428T148 360Q148 356 135 352T101 347T73 356T65 385Q65 421 117 463Q129 471 187 490T255 509Q327 509 361 467T395 364ZM136 96T155 68T198 40T255 57T308 93Q311 152 311 229Q227 218 163 181Q136 168 136 120Q136 96 155 68Z" />
<glyph unicode="b" glyph-name="b" horiz-adv-x="589" d="M179 88Q179 64 235 44T313 23Q370 23 417 74T465 193Q465 297 418 368T315 439T179 376V88ZM549 231Q549 164 517 112T436 33Q343 -20 268 -20Q242 -20 131 4L92 -20Q82 -20 77 -11Q92 44 96 119T100
439V675Q100 741 90 767T48 799L13 803Q11 811 11 815L13 828Q67 838 95 847T184 895Q193 895 199 885Q179 768 179 419Q301 490 360 509Q435 493 492 418T549 231Z" />
<glyph unicode="c" glyph-name="c" horiz-adv-x="476" d="M288 509Q385 509 448 451Q445 434 428 415T388 391Q356 429 324 449T246 469T161 409T123 284T139 168T196 82T293 47T440 85Q449 80 449 65L352 -1Q342 -7 315 -13T271 -20Q158 -20 99 54T40 240Q40
306 64 357T120 436T190 482Q251 509 288 509Z" />
<glyph unicode="d" glyph-name="d" horiz-adv-x="604" d="M495 249Q495 116 500 92Q508 47 541 47Q553 47 577 48Q581 41 581 31L580 21Q512 9 480 -12L468 -20Q453 -20 433 8T413 71Q335 21 227 -20Q154 -5 97 70T40 245Q40 309 65 359T124 436T198 481Q260 509
299 509Q303 509 415 493V675Q415 766 394 786Q383 797 365 799L329 803Q325 811 325 815L329 828Q372 836 412 849Q452 864 499 895Q511 895 515 885Q495 809 495 249ZM124 192T170 122T274 51T415 113V400Q415 428 347 447T252 467Q210 467 167 410T124 283Q124
192 170 122Z" />
<glyph unicode="e" glyph-name="e" horiz-adv-x="517" d="M300 52Q382 52 445 96Q459 91 461 75L353 -1Q329 -20 246 -20T105 54T47 243T110 423T260 509Q336 509 394 458Q429 428 443 380Q446 368 471 367Q477 360 477 353T475 337Q299 296 129 280Q129 152 200
88Q240 52 300 52ZM363 357Q368 360 368 364T356 392T312 442T247 469T197 459Q141 421 133 321Q187 321 256 332T363 357Z" />
<glyph unicode="f" glyph-name="f" horiz-adv-x="352" d="M319 -3L181 0Q98 0 29 -8Q24 -2 24 9L25 17Q90 30 103 68Q119 113 119 415V448L20 447Q13 451 13 459Q18 469 24 493H120Q121 509 126 583T157 710T214 788T282 832Q336 856 382 856T505 819Q501 796
488 775T453 745Q369 813 325 813Q290 813 254 756T211 632T203 493Q279 493 335 500Q341 496 341 487Q337 479 335 467T331 451L201 449V299Q201 33 213 32Q254 28 319 28Q323 20 323 13T319 -3Z" />
<glyph unicode="g" glyph-name="g" horiz-adv-x="563" d="M211 59Q176 40 176 22T195 -11T251 -29L397 -44Q551 -59 551 -188Q551 -262 453 -321T237 -380Q149 -380 87 -331T25 -205Q25 -194 37 -185L183 -88Q89 -54 89 19Q89 27 109 40Q153 66 245 111Q155 117
105 171T55 289T79 396T138 463Q210 509 271 509Q314 509 348 499T396 488L537 512Q549 496 549 477T543 445Q503 447 421 448Q450 422 466 387T483 317Q482 250 444 206T312 112L211 59ZM116 -253T159 -292T286 -332T420 -296T471 -201Q471 -118 356 -107Q291
-101 224 -97L148 -157Q116 -184 116 -218ZM141 262T181 203T278 143T364 183T395 296T358 422T262 476T172 436T141 329Z" />
<glyph unicode="h" glyph-name="h" horiz-adv-x="625" d="M249 -3L165 0Q87 0 24 -8Q19 -2 19 9L20 17Q61 26 75 44T97 105T105 419V675Q105 766 84 786Q73 797 56 799L20 803Q17 808 17 815T20 828Q91 841 130 860Q156 873 189 895Q199 895 205 885Q185 760 185
416Q312 486 388 509Q453 509 486 461T519 332L517 204Q517 33 532 31T591 28Q595 21 595 15T591 -3L499 0Q416 0 367 -8Q361 0 361 9L363 17Q404 26 418 44T434 87T437 188T437 282T434 330T425 375T408 408Q388 439 337 439Q286 439 224 398Q215 393 201 384T185
373Q184 323 184 267Q184 36 196 32T249 28Q252 21 252 12T249 -3Z" />
<glyph unicode="i" glyph-name="i" horiz-adv-x="317" d="M269 -3L179 0Q109 0 47 -8Q41 0 41 9L43 17Q86 27 101 48Q112 64 118 86T124 216V312Q124 374 119 398T102 430T73 440L36 443Q33 447 33 456L36 469Q88 480 120 491T197 525Q208 525 212 513Q200 445
200 189Q200 143 203 88T213 31Q228 28 269 28Q272 21 272 12T269 -3ZM175 639Q139 664 124 705Q136 719 156 734T192 756Q230 728 241 689Q213 653 175 639Z" />
<glyph unicode="j" glyph-name="j" horiz-adv-x="293" d="M111 305Q111 373 102 401T59 433Q45 435 21 436Q19 443 19 451T21 463Q61 470 105 484Q170 509 189 519Q204 519 204 509Q191 436 191 189V-56Q191 -158 171 -215T88 -320L4 -384Q-12 -379 -12 -364L32
-320Q87 -265 99 -195T111 81V305ZM167 639Q131 664 116 705Q128 719 148 734T184 756Q222 728 233 689Q205 653 167 639Z" />
<glyph unicode="k" glyph-name="k" horiz-adv-x="539" d="M508 29Q513 28 525 28T547 29Q551 19 551 12T549 0Q503 -3 466 -11T424 -20Q401 -20 264 202Q211 290 205 299L303 371Q358 411 405 461Q372 468 331 469Q328 475 328 484L331 496Q413 493 439 493T515
497Q521 489 521 473L288 319Q340 237 387 165T461 62T508 29ZM249 -3L165 0Q87 0 24 -8Q19 -2 19 9L20 17Q61 26 75 44T97 105T105 419V675Q105 766 84 786Q73 797 56 799L20 803Q17 808 17 815T20 828Q91 841 130 860Q156 873 189 895Q199 895 205 885Q184 754
184 416V299Q184 36 196 32T249 28Q252 21 252 12T249 -3Z" />
<glyph unicode="l" glyph-name="l" horiz-adv-x="299" d="M275 -3L165 0Q79 0 16 -8Q11 -2 11 9L12 17Q59 26 74 44T97 105T105 419V675Q105 766 84 786Q73 797 56 799L20 803Q17 808 17 815T20 828Q91 841 130 860Q156 873 189 895Q199 895 205 885Q184 754 184
416V299Q184 36 197 32Q215 28 275 28Q277 21 277 12T275 -3Z" />
<glyph unicode="m" glyph-name="m" horiz-adv-x="915" d="M245 -3L176 0Q100 0 44 -8Q39 -2 39 9L40 17Q69 24 85 36T105 60T113 103T117 239T117 354T115 384T111 411T102 430Q92 449 68 449L29 448Q25 452 25 463L27 475Q95 484 138 503Q152 509 155 509Q164
509 177 481T199 419Q305 479 393 509Q467 509 493 417Q598 476 693 509Q747 509 777 461T808 332L807 200Q807 33 821 31T876 28Q879 21 879 12T876 -3L784 0Q715 0 665 -8Q660 -2 660 9L661 17Q695 26 705 43T720 93T725 188V262Q725 319 719 353T707 398T693
420Q678 440 649 440Q593 440 501 376Q504 356 504 332Q504 332 503 200Q503 33 517 31T560 28Q563 21 563 12T560 -3L484 0Q408 0 352 -8Q347 -2 347 8L348 17Q389 26 402 44T420 94T425 188V262Q425 319 419 353T407 398T393 420Q378 440 349 440Q288 440 201
376Q197 297 197 165T209 31Q220 28 245 28Q249 20 249 11T245 -3Z" />
<glyph unicode="n" glyph-name="n" horiz-adv-x="631" d="M68 449L29 448Q25 453 25 461T27 475Q95 484 138 503Q152 509 155 509Q164 509 177 481T199 419Q300 476 396 509Q457 509 490 461T523 332L521 200Q521 33 536 31T592 28Q596 21 596 13T592 -3L500 0Q417
0 368 -8Q363 -2 363 9L364 17Q393 24 409 36T429 60T437 95T440 187V270Q440 340 424 388Q417 407 408 416Q386 440 355 440T293 428T246 406T201 376Q197 297 197 165T210 30T261 28Q265 21 265 13T261 -3L176 0Q100 0 44 -8Q39 -2 39 9L40 17Q69 24 85 36T105
60T113 103T117 239T117 354T115 384T111 411T102 430Q92 449 68 449Z" />
<glyph unicode="o" glyph-name="o" horiz-adv-x="589" d="M549 244Q549 22 291 -20Q185 -20 113 55T40 244Q40 468 299 509Q404 509 476 432T549 244ZM313 23Q457 23 457 207Q457 311 409 389T282 467T168 417T132 273T181 101T313 23Z" />
<glyph unicode="p" glyph-name="p" horiz-adv-x="596" d="M59 443L24 441Q20 448 20 459L21 468Q91 480 125 502L137 509Q152 509 171 484T192 421Q249 457 275 470T368 509Q441 495 498 420T556 244Q556 187 538 142T490 69T428 22T362 -6Q304 -20 276 -20T187
-5V-61Q187 -328 199 -329Q229 -332 311 -332Q313 -339 313 -348T311 -363L167 -360Q81 -360 27 -368Q21 -362 21 -351L23 -343Q64 -333 78 -315T97 -269Q107 -199 107 59V303Q107 383 98 413T59 443ZM187 79Q187 64 244 44T324 23Q388 23 430 77T472 214T423 368T319
439T189 376Q187 293 187 79Z" />
<glyph unicode="q" glyph-name="q" horiz-adv-x="601" d="M465 483Q477 488 505 509Q513 509 520 500Q512 480 505 418T497 311V75Q497 -199 507 -269Q511 -297 526 -314T583 -336Q584 -340 584 -348T579 -361Q524 -360 451 -360T296 -363Q293 -357 293 -347T296
-332Q330 -332 405 -327Q419 -324 419 -61V71Q365 38 333 23T232 -20Q159 -5 100 67T40 223T69 363T146 450Q240 509 347 509Q358 509 465 483ZM217 467T171 410T124 269T173 118T280 51T419 113V401Q419 426 361 446T275 467Q217 467 171 410Z" />
<glyph unicode="r" glyph-name="r" horiz-adv-x="423" d="M67 449L28 448Q23 453 23 463L25 475Q93 484 136 503Q150 509 153 509Q164 509 178 470T195 391Q270 469 331 509Q371 509 397 486T423 427Q423 387 352 387Q337 440 301 440Q277 440 201 357Q195 281
195 115Q195 32 208 31Q231 28 289 28Q292 21 292 12T289 -3L177 0Q95 0 32 -8Q27 -2 27 9L28 17Q81 27 96 48Q107 64 112 99T117 239T117 354T115 383T111 410T102 430Q92 449 67 449Z" />
<glyph unicode="s" glyph-name="s" horiz-adv-x="463" d="M319 447Q289 473 242 473Q145 473 145 395Q145 370 163 348T209 312L287 275Q401 220 401 128Q401 60 347 20T219 -20Q180 -20 138 -13T77 3Q74 48 59 128Q70 135 77 135T88 133Q108 73 123 56Q134 45
162 32T228 19T295 40T323 103Q323 131 312 145T294 166T277 180T261 189T248 196T240 200L165 236Q68 282 68 369Q68 440 122 474T244 509Q277 509 318 501T381 483Q374 459 365 371Q360 367 352 367T335 369Q327 419 319 447Z" />
<glyph unicode="t" glyph-name="t" horiz-adv-x="360" d="M187 215Q187 49 244 49Q286 49 353 77Q368 72 368 49Q295 10 200 -20Q153 -20 129 28T104 157V389Q104 448 97 448L23 447Q16 449 16 457Q21 467 25 493H96Q104 493 104 528L103 613Q140 628 179 675Q191
675 197 669Q188 564 188 493Q261 493 332 500Q339 496 339 488Q333 478 329 451L187 449V215Z" />
<glyph unicode="u" glyph-name="u" horiz-adv-x="605" d="M489 516Q498 514 504 504Q495 436 495 280L496 137Q496 47 541 47L577 48Q581 41 581 32L580 21Q531 13 510 2L484 -10Q479 -13 469 -20Q447 -12 432 15T415 71Q330 18 220 -20Q156 -20 125 27T93 157V348Q93
416 87 434T52 459L19 463Q16 469 16 476L19 488Q36 491 96 501L167 516Q175 514 181 504Q173 449 173 215Q173 51 261 51Q292 51 323 62T371 83T412 113Q415 179 415 208V329Q415 390 410 414T394 446T365 459L332 463L329 476L332 488Q342 490 368 493T439 505T489
516Z" />
<glyph unicode="v" glyph-name="v" horiz-adv-x="496" d="M92 493L176 496Q179 491 179 481L176 465Q145 465 132 463Q141 392 179 308L267 115L336 300Q372 397 381 460Q351 465 317 465Q315 472 315 481T317 496Q357 493 404 493T488 499Q495 488 495 473Q470
462 459 451Q425 417 396 344L248 -20H233L85 328Q44 427 20 453Q7 469 -20 477Q-21 480 -21 488T-15 503Q54 493 92 493Z" />
<glyph unicode="w" glyph-name="w" horiz-adv-x="795" d="M621 496L708 493Q744 493 792 500Q799 487 799 475Q772 463 761 452Q727 416 692 329L552 -20H537L389 353L244 -20H229L85 331Q40 439 25 454T-12 477Q-13 480 -13 488T-7 503Q62 493 100 493L184 496Q187
491 187 481L184 465Q153 465 140 463Q147 406 185 308L259 117L397 493H424L568 117L639 299Q674 386 685 460Q665 463 621 465Q619 472 619 481T621 496Z" />
<glyph unicode="x" glyph-name="x" horiz-adv-x="523" d="M329 471T329 480T332 493H413Q451 493 496 500Q503 492 503 475Q482 467 466 455T417 409T369 357L291 265L353 167Q418 64 433 47T468 29H507Q509 21 509 15T507 0Q448 0 418 -4T384 -9Q361 -9 283 128L235
209L213 179Q140 81 124 31Q148 28 184 28Q187 21 187 12T184 -3Q141 0 94 0T15 -5Q8 1 8 13L9 20Q35 27 55 47Q91 84 137 145L213 245L168 324Q121 407 101 435T60 463H13Q11 475 11 481T12 493Q54 495 99 502T151 509Q156 509 202 423T272 297L332 371Q373 422
389 460Q373 463 332 463Q329 471 329 480Z" />
<glyph unicode="y" glyph-name="y" horiz-adv-x="535" d="M97 493L183 496Q185 491 185 481L183 465Q152 465 139 463Q148 402 187 308L284 68L371 291Q415 404 421 459Q385 463 347 463Q343 469 343 477T345 493H443Q489 493 527 499Q535 486 535 473Q510 462
499 451Q472 422 440 348L295 0Q282 -31 253 -107T213 -214T191 -270T168 -326Q141 -388 125 -388Q120 -388 104 -382Q61 -367 7 -355Q7 -335 16 -323Q52 -329 55 -329Q84 -329 129 -262T200 -128L236 -32L73 368Q48 431 27 453Q14 469 -12 477Q-12 495 -7 503Q59
493 97 493Z" />
<glyph unicode="z" glyph-name="z" horiz-adv-x="501" d="M348 -3L192 0Q89 0 35 -5Q27 3 27 15V19Q45 37 61 60Q221 288 323 457H239Q135 457 92 444L80 367Q75 363 66 363T49 365Q46 395 38 440T29 488Q29 497 45 497L231 493H273Q379 493 433 499Q440 491 440
473Q419 454 404 432L147 36H213Q266 36 327 45T413 63L440 132Q449 135 454 135T471 129Q456 19 456 12T444 1T348 -3Z" />
<glyph unicode="{" glyph-name="braceleft" horiz-adv-x="404" d="M167 359Q197 341 219 321T249 288L256 276Q256 162 272 13T307 -153Q329 -173 362 -191L373 -197Q373 -214 363 -228L236 -187Q217 -87 199 57T174 231T151 298T107 359Q135 386 152 423T174
486T198 647T235 864L359 903Q369 893 369 875Q325 849 305 831T270 677T256 432Q235 399 167 359Z" />
<glyph unicode="|" glyph-name="bar" horiz-adv-x="284" d="M113 68V840Q143 847 167 856Q176 856 181 847Q171 749 171 364V-408Q141 -415 117 -424Q108 -424 103 -415Q113 -317 113 68Z" />
<glyph unicode="}" glyph-name="braceright" horiz-adv-x="404" d="M237 359Q174 397 155 422L148 432Q148 541 134 676T101 829Q81 847 46 868L35 875Q35 891 45 903L169 864Q187 782 206 647T230 487T252 424T297 359Q270 335 253 298T230 232T206 56T168 -187L41
-228Q31 -217 31 -197Q73 -176 94 -156T132 13T148 276Q154 290 180 315T237 359Z" />
<glyph unicode="~" glyph-name="asciitilde" horiz-adv-x="655" d="M155 363Q137 363 121 358T99 350T77 341T55 331Q45 337 40 356Q66 371 102 394T158 430T188 443Q229 443 330 419T501 395Q529 395 600 427Q610 421 615 401Q589 386 554 363T498 328T468 315Q435
315 326 339T155 363Z" />
<glyph unicode="&#xa1;" glyph-name="exclamdown" horiz-adv-x="335" d="M199 299L201 -17Q201 -185 227 -191L251 -195Q253 -199 253 -207L249 -220Q205 -236 127 -284Q112 -284 112 -275L161 295L199 299ZM197 509Q236 477 255 435Q218 396 177 377Q136 416
123 453Q133 467 155 484T197 509Z" />
<glyph unicode="&#xa2;" glyph-name="cent" horiz-adv-x="464" d="M240 -132Q233 -132 228 -125L232 -17Q140 -5 90 69T40 247Q40 310 59 360T112 440Q171 495 233 513V615Q249 618 271 625Q278 625 281 619Q277 563 277 524Q376 524 433 465Q430 448 414 430T376
407Q334 471 276 480V40H287Q321 40 348 49T423 83Q431 77 432 63L343 -3Q316 -16 276 -20V-121Q264 -124 240 -132ZM185 477T147 416T109 281T141 139T233 49V481Q185 477 147 416Z" />
<glyph unicode="&#xa3;" glyph-name="sterling" horiz-adv-x="483" d="M48 -10Q40 -4 40 6V10Q79 39 95 91T111 245Q92 245 59 242Q51 245 51 254Q59 271 61 286H111Q112 347 137 396T195 472T254 511T291 525Q324 525 364 516T425 498Q417 471 409 388Q401 382
395 382L381 386Q378 423 365 462Q358 471 335 480T278 490T218 435T188 286Q285 286 344 293Q352 290 352 281Q345 269 341 246H188V224Q188 119 132 50Q168 48 241 48T364 66Q381 105 397 152Q401 153 409 153T429 144Q418 76 414 41T404 4Q380 -2 296 -2L204
0H167Q88 0 48 -10Z" />
<glyph unicode="&#xa4;" glyph-name="currency" horiz-adv-x="559" d="M413 360Q451 316 451 252T417 151L512 69Q497 51 480 13Q479 12 476 12L471 13Q450 51 381 120Q339 95 280 87Q227 87 187 113L101 19Q81 34 48 51Q47 52 47 55L48 60Q87 81 151 145Q115
189 115 251T144 352L63 428Q78 449 96 481Q97 483 100 483L105 481Q123 446 180 384Q217 408 285 420Q334 420 377 392L452 483Q474 465 507 452Q508 451 508 448L507 443Q473 422 413 360ZM283 136Q383 136 383 245Q383 300 358 335T283 371Q181 371 181 261Q181
207 208 172T283 136Z" />
<glyph unicode="&#xa5;" glyph-name="yen" horiz-adv-x="577" d="M21 509L132 513Q140 513 172 477T245 382T308 271Q326 297 362 348Q429 443 441 477Q425 480 376 480Q373 489 373 494T376 512Q376 512 479 509Q519 509 553 515Q557 511 557 499L556 489Q535
484 515 469T457 407T384 312Q418 312 499 319Q507 316 507 307Q504 302 496 271L356 272Q336 239 332 228T328 195Q415 195 483 201Q491 199 491 189Q488 185 480 153Q399 155 328 155V141Q328 86 335 33Q359 28 411 28Q412 20 412 11T411 -3L301 0Q225 0 163
-8Q159 -3 159 8L160 17Q199 23 220 34T247 54T254 80T256 155Q171 155 93 148Q85 151 85 160Q93 175 96 195H252Q251 205 247 223T228 271Q206 271 111 264Q103 267 103 276Q110 292 113 311H203Q158 380 93 453Q78 470 66 475T21 483Q20 489 20 497T21 509Z"
/>
<glyph unicode="&#xa6;" glyph-name="brokenbar" horiz-adv-x="284" d="M171 364V323L113 300V840Q143 847 167 856Q176 856 181 847Q171 749 171 364ZM167 -324V-392L113 -415V152Q134 157 163 168Q172 168 177 159Q167 61 167 -324Z" />
<glyph unicode="&#xa7;" glyph-name="section" horiz-adv-x="635" d="M411 695Q351 695 310 657T269 557Q269 521 291 485T345 419T416 351T487 276T542 185T564 71Q564 -50 470 -133T245 -217Q147 -217 68 -189Q56 -71 45 -5Q63 5 74 5T91 4Q95 -17 109 -68T127
-129T139 -146T169 -162T220 -171Q267 -171 307 -129T348 -19Q348 62 245 163Q202 205 159 248T86 347T56 460Q56 576 155 656T383 736Q467 736 548 715Q542 670 535 541Q530 536 514 536T492 540Q491 556 484 611T472 680Q451 695 411 695ZM425 4Q425 -76 359
-149Q415 -126 453 -74T491 37T475 140T432 218T375 281T312 340T254 398Q195 462 195 539Q195 599 243 660Q133 596 133 484Q133 433 163 381T236 283T322 194T395 100T425 4Z" />
<glyph unicode="&#xa8;" glyph-name="dieresis" horiz-adv-x="629" d="M199 591Q163 616 148 657Q160 671 180 686T216 708Q254 680 265 641Q237 605 199 591ZM415 591Q379 616 364 657Q376 671 396 686T432 708Q470 680 481 641Q453 605 415 591Z" />
<glyph unicode="&#xa9;" glyph-name="copyright" horiz-adv-x="869" d="M279 -21T170 89T60 357T169 625T435 736T700 626T809 358T700 90T435 -21ZM113 495T113 357T208 122T435 24T661 121T756 357T662 593T435 691T208 593ZM423 548Q377 548 344 499T311 378T346
249T452 191Q497 191 580 225Q587 219 587 208L503 148Q496 145 492 143T480 139T465 135Q451 131 432 131Q335 131 284 195T233 355Q233 412 253 457T302 525T364 564Q414 588 448 588Q509 588 587 564Q581 540 572 452Q560 449 556 449T545 451Q545 454 531 523Q485
548 423 548Z" />
<glyph unicode="&#xaa;" glyph-name="ordfeminine" horiz-adv-x="336" d="M255 657L253 524Q253 485 279 485L297 487Q300 481 300 465Q244 459 229 449Q201 458 197 489Q155 462 113 449Q94 449 74 470T53 522T77 568Q115 587 196 603V655Q196 713 168 713Q159
713 146 707Q121 695 121 644Q121 637 100 637T73 642T65 652T64 667Q64 687 93 709Q100 714 133 724T172 735Q214 735 234 712T255 657ZM143 488Q167 488 196 517V577Q153 571 127 553Q115 546 115 530T123 501T143 488Z" />
<glyph unicode="&#xab;" glyph-name="guillemotleft" horiz-adv-x="515" d="M228 241V255Q373 376 444 463Q453 463 460 458T471 443L332 248L471 53Q465 33 444 33Q362 129 228 241ZM33 241V255Q90 302 153 362T249 463Q268 463 274 448L276 443L137 248L276
53Q271 33 249 33Q168 129 33 241Z" />
<glyph unicode="&#xac;" glyph-name="logicalnot" horiz-adv-x="537" d="M483 348V296Q483 193 491 139Q487 129 476 129Q464 134 423 143V291H208Q136 291 49 283Q40 287 40 297Q45 310 53 348H483Z" />
<glyph unicode="&#xae;" glyph-name="registered" horiz-adv-x="551" d="M176 252T105 323T33 499T104 676T278 748T453 676T524 500T453 324T279 252ZM198 707T140 646T81 500T139 354T279 293T418 354T477 499T419 645T279 707ZM277 631Q371 631 371 561Q371
508 315 492Q324 466 333 449Q351 420 360 412T379 403H395Q399 397 399 391T397 381Q369 379 351 377T330 375T317 396T293 450T276 488H269Q252 488 241 489V440Q241 413 243 403Q251 399 273 399Q275 393 275 387T273 377H171Q168 377 168 385L169 395Q191 401
194 420T197 500T197 586T192 612Q188 615 173 615Q172 619 172 623T173 631H277ZM323 557Q323 608 276 608Q255 608 244 607Q241 581 241 512Q245 511 268 511T307 523T323 557Z" />
<glyph unicode="&#xaf;" glyph-name="overscore" horiz-adv-x="624" d="M161 652Q376 652 471 659Q480 655 480 643Q475 633 467 599Q272 599 157 592Q148 596 148 607Q155 625 161 652Z" />
<glyph unicode="&#xb0;" glyph-name="degree" horiz-adv-x="455" d="M306 736T349 692T393 578T347 469T220 419Q152 419 107 462T61 575T110 685T240 736Q306 736 349 692ZM137 542T164 505T234 467T298 493T319 565T294 650T224 688T158 662T137 589Z" />
<glyph unicode="&#xb1;" glyph-name="plusminus" horiz-adv-x="532" d="M295 276Q295 195 303 115Q299 105 288 105Q265 114 236 119V276Q144 276 63 268Q53 272 53 283Q63 306 67 333H236Q236 409 227 500Q231 509 243 509Q265 499 295 496V333Q401 333 483 343Q492
339 492 327Q483 309 479 276H295ZM264 57Q385 57 483 67Q492 63 492 51Q490 47 479 0H265Q147 0 49 -8Q40 -4 40 7Q44 17 53 57H264Z" />
<glyph unicode="&#xb2;" glyph-name="twosuperior" horiz-adv-x="311" d="M212 303L137 304H20Q15 312 15 321L117 437Q196 528 196 580Q196 607 181 624T139 641T72 631L63 575Q59 572 51 572T39 575Q31 635 31 642T37 651L149 683Q201 683 234 661T268 588Q268
563 254 539T201 469L103 352H161Q242 352 245 365L259 405Q275 405 284 401Q278 370 276 312Q258 303 212 303Z" />
<glyph unicode="&#xb3;" glyph-name="threesuperior" horiz-adv-x="289" d="M263 429Q263 372 218 333T113 293T7 316Q12 345 39 369Q101 327 130 327T175 354T192 415Q192 479 92 495L173 627H117Q89 627 61 623L55 579Q49 576 41 576T28 579Q21 661 21 668T27
676H161Q207 676 244 681Q252 678 252 668L163 535Q263 504 263 429Z" />
<glyph unicode="&#xb4;" glyph-name="acute" horiz-adv-x="589" d="M387 697L215 547Q207 547 201 551T192 564Q269 661 331 748Q371 732 387 697Z" />
<glyph unicode="&#xb5;" glyph-name="mu" horiz-adv-x="608" d="M596 51Q604 43 604 32V28Q501 -20 482 -20T444 4T420 71Q335 17 228 -20Q176 -20 149 25Q152 -64 173 -134T213 -223Q230 -238 249 -241Q252 -252 252 -265Q148 -279 137 -281Q92 -153 92 237L88
493L168 509L184 497Q172 425 172 220Q172 51 267 51Q297 51 328 62T375 84T417 113V280L416 493L492 509L507 497Q499 436 499 279V168Q499 41 535 41Q563 41 596 51Z" />
<glyph unicode="&#xb6;" glyph-name="paragraph" horiz-adv-x="908" d="M353 723L421 720H449Q453 712 453 702T449 683H432Q370 683 339 606T308 417Q308 164 408 164H449Q453 157 453 145L449 127H420L353 124Q227 124 154 209T80 428T146 642T353 723ZM823
723Q825 716 825 706T823 687Q794 687 765 681Q751 678 751 473V76Q751 -150 621 -199L388 -287Q369 -277 369 -255Q369 -249 371 -244Q371 -244 435 -213Q480 -191 502 -122Q521 -65 521 81V720H667L823 723ZM675 413Q675 588 671 680Q624 680 601 677V68Q601
2 599 -28Q594 -106 543 -179L569 -167Q675 -118 675 68V413Z" />
<glyph unicode="&#xb7;" glyph-name="middot" horiz-adv-x="249" d="M124 213Q86 244 67 288Q103 328 144 345Q185 306 199 269Q188 255 166 238T124 213Z" />
<glyph unicode="&#xb8;" glyph-name="cedilla" horiz-adv-x="508" d="M232 -116Q227 -114 228 -107T229 -89L244 0H284L277 -68Q331 -90 354 -113T377 -175T360 -234T313 -268H203Q200 -264 200 -255L201 -243Q329 -241 329 -187Q329 -162 306 -146T232 -116Z" />
<glyph unicode="&#xb9;" glyph-name="onesuperior" horiz-adv-x="227" d="M141 685Q161 681 167 671Q155 627 155 500V335Q168 332 204 332Q207 325 207 318T204 304H31Q29 315 29 328Q85 338 88 352Q93 372 93 497V611L28 595Q17 603 17 623Q82 650 141 685Z" />
<glyph unicode="&#xba;" glyph-name="ordmasculine" horiz-adv-x="388" d="M339 592Q339 473 191 449Q132 449 91 490T49 592Q49 714 196 736Q256 736 297 694T339 592ZM203 476Q273 476 273 572Q273 628 250 668T185 709Q113 709 113 613Q113 558 138 517T203 476Z" />
<glyph unicode="&#xbb;" glyph-name="guillemotright" horiz-adv-x="515" d="M287 255V241Q152 129 71 33Q52 33 46 48L44 53L183 248L44 443Q49 463 71 463Q104 423 167 363T287 255ZM481 255V241Q347 129 265 33Q256 33 250 38T239 53L377 248L239 443Q244 463
265 463Q341 372 481 255Z" />
<glyph unicode="&#xbc;" glyph-name="onequarter" horiz-adv-x="624" d="M495 725Q497 728 502 728T511 725Q515 720 540 695L339 341Q319 306 239 157T144 -25Q142 -28 137 -28T129 -25Q118 -12 96 5L303 368Q439 611 495 725ZM141 685Q161 681 167 671Q155 627
155 500V335Q168 332 204 332Q207 325 207 318T204 304H31Q29 315 29 328Q85 338 88 352Q93 372 93 497V611L28 595Q17 603 17 623Q82 650 141 685ZM476 135V276L383 135H476ZM536 233V135Q561 135 568 153L579 180Q592 180 600 173Q596 155 592 101Q576 93 536
93V31Q549 28 577 28Q580 21 580 14T577 0H423Q420 7 420 24Q470 31 473 45Q476 54 476 93L385 95Q351 95 315 91Q308 97 308 108Q335 136 343 147L517 393Q530 393 543 384Q536 341 536 233Z" />
<glyph unicode="&#xbd;" glyph-name="onehalf" horiz-adv-x="688" d="M495 725Q497 728 502 728T511 725Q515 720 540 695L339 341Q319 306 239 157T144 -25Q142 -28 137 -28T129 -25Q118 -12 96 5L303 368Q439 611 495 725ZM141 685Q161 681 167 671Q155 627
155 500V335Q168 332 204 332Q207 325 207 318T204 304H31Q29 315 29 328Q85 338 88 352Q93 372 93 497V611L28 595Q17 603 17 623Q82 650 141 685ZM589 -1L515 0H397Q392 8 392 17L495 133Q573 221 573 276Q573 303 558 320T516 337T449 327L440 271Q436 268 428
268T416 271Q408 331 408 338T415 347L527 379Q578 379 611 357T645 284Q645 258 631 234T579 165L480 48H539Q619 48 623 61L636 101Q652 101 661 97Q658 78 653 8Q635 -1 589 -1Z" />
<glyph unicode="&#xbe;" glyph-name="threequarters" horiz-adv-x="649" d="M520 725Q523 728 527 728T536 725Q540 720 565 695L364 341Q348 313 266 161T169 -25Q168 -28 163 -28T153 -23T136 -8T121 5L328 368Q444 572 520 725ZM263 429Q263 372 218 333T113
293T7 316Q12 345 39 369Q101 327 130 327T175 354T192 415Q192 479 92 495L173 627H117Q89 627 61 623L55 579Q49 576 41 576T28 579Q21 661 21 668T27 676H161Q207 676 244 681Q252 678 252 668L163 535Q263 504 263 429ZM501 135V276L408 135H501ZM625 173Q617
137 617 101Q601 93 561 93V31Q575 28 603 28Q605 21 605 14T603 0H448Q445 7 445 24Q495 31 499 45Q501 57 501 93L411 95Q376 95 340 91Q333 98 333 108Q360 136 368 147L543 393Q556 393 568 384Q561 341 561 233V135Q586 135 593 153L604 180Q618 180 625 173Z"
/>
<glyph unicode="&#xbf;" glyph-name="questiondown" horiz-adv-x="416" d="M288 509Q325 478 345 435Q310 396 268 377Q228 415 213 453Q224 467 246 484T288 509ZM324 -323Q322 -323 308 -319Q308 -295 303 -283Q282 -268 240 -254T183 -232Q53 -169 53 -28Q53
-5 57 20Q86 88 122 121T225 169Q231 186 248 293Q255 297 265 297T287 295Q293 204 301 154Q304 136 304 131Q303 128 287 121Q220 110 166 87T104 29Q99 9 99 -15Q99 -69 137 -106T276 -168Q296 -173 305 -176T326 -183T343 -191T348 -200T344 -244T339 -320L324
-323Z" />
<glyph unicode="&#xc0;" glyph-name="Agrave" horiz-adv-x="747" d="M448 771L256 895Q266 929 304 953Q368 885 443 814L468 791Q465 772 448 771ZM749 -3L632 0Q556 0 499 -8Q493 0 493 9L495 17Q534 26 549 37T565 63T551 119L492 269Q438 272 363 272L220
269L195 205Q145 81 145 29Q168 28 215 28Q217 21 217 12T215 -3L109 0Q46 0 -1 -8Q-7 -1 -7 9L-5 17Q46 31 69 61T140 197L387 757H403L633 169Q639 150 664 96T697 31Q725 28 749 28Q752 21 752 12T749 -3ZM235 308L363 304Q432 304 479 307L363 613L235 308Z"
/>
<glyph unicode="&#xc1;" glyph-name="Aacute" horiz-adv-x="747" d="M535 895L343 771Q335 771 330 776T323 791Q413 876 487 953Q525 929 535 895ZM749 -3L632 0Q556 0 499 -8Q493 0 493 9L495 17Q534 26 549 37T565 63T551 119L492 269Q438 272 363 272L220
269L195 205Q145 81 145 29Q168 28 215 28Q217 21 217 12T215 -3L109 0Q46 0 -1 -8Q-7 -1 -7 9L-5 17Q46 31 69 61T140 197L387 757H403L633 169Q639 150 664 96T697 31Q725 28 749 28Q752 21 752 12T749 -3ZM235 308L363 304Q432 304 479 307L363 613L235 308Z"
/>
<glyph unicode="&#xc2;" glyph-name="Acircumflex" horiz-adv-x="747" d="M544 761L395 857L244 761Q236 762 231 767T224 781Q315 867 388 944H400Q472 867 539 804L564 781Q561 763 544 761ZM749 -3L632 0Q556 0 499 -8Q493 0 493 9L495 17Q534 26 549 37T565
63T551 119L492 269Q438 272 363 272L220 269L195 205Q145 81 145 29Q168 28 215 28Q217 21 217 12T215 -3L109 0Q46 0 -1 -8Q-7 -1 -7 9L-5 17Q46 31 69 61T140 197L387 757H403L633 169Q639 150 664 96T697 31Q725 28 749 28Q752 21 752 12T749 -3ZM235 308L363
304Q432 304 479 307L363 613L235 308Z" />
<glyph unicode="&#xc3;" glyph-name="Atilde" horiz-adv-x="747" d="M749 -3L632 0Q556 0 499 -8Q493 0 493 9L495 17Q534 26 549 37T565 63T551 119L492 269Q438 272 363 272L220 269L195 205Q145 81 145 29Q168 28 215 28Q217 21 217 12T215 -3L109 0Q46 0 -1
-8Q-7 -1 -7 9L-5 17Q46 31 69 61T140 197L387 757H403L633 169Q639 150 664 96T697 31Q725 28 749 28Q752 21 752 12T749 -3ZM235 308L363 304Q432 304 479 307L363 613L235 308ZM476 815Q448 815 399 830T322 845T255 817Q245 823 239 837Q255 850 273 865T296
885Q324 908 345 908T413 893T492 877Q510 877 553 907Q566 902 571 884Q562 878 537 857Q491 815 476 815Z" />
<glyph unicode="&#xc4;" glyph-name="Adieresis" horiz-adv-x="747" d="M749 -3L632 0Q556 0 499 -8Q493 0 493 9L495 17Q534 26 549 37T565 63T551 119L492 269Q438 272 363 272L220 269L195 205Q145 81 145 29Q168 28 215 28Q217 21 217 12T215 -3L109 0Q46
0 -1 -8Q-7 -1 -7 9L-5 17Q46 31 69 61T140 197L387 757H403L633 169Q639 150 664 96T697 31Q725 28 749 28Q752 21 752 12T749 -3ZM235 308L363 304Q432 304 479 307L363 613L235 308ZM277 803Q243 827 227 869Q239 883 259 898T295 920Q332 892 344 853Q316 817
277 803ZM493 803Q459 827 443 869Q455 883 475 898T511 920Q548 892 560 853Q532 817 493 803Z" />
<glyph unicode="&#xc5;" glyph-name="Aring" horiz-adv-x="747" d="M749 -3L632 0Q556 0 499 -8Q493 0 493 9L495 17Q534 26 549 37T565 63T551 119L492 269Q438 272 363 272L220 269L195 205Q145 81 145 29Q168 28 215 28Q217 21 217 12T215 -3L109 0Q46 0 -1
-8Q-7 -1 -7 9L-5 17Q46 31 69 61T140 197L387 757H403L633 169Q639 150 664 96T697 31Q725 28 749 28Q752 21 752 12T749 -3ZM235 308L363 304Q432 304 479 307L363 613L235 308ZM495 879Q495 794 388 779Q345 779 315 808T285 879Q285 962 393 979Q436 979 465
950T495 879ZM397 809Q441 809 441 865Q441 898 426 923T384 948Q339 948 339 892Q339 859 355 834T397 809Z" />
<glyph unicode="&#xc6;" glyph-name="AE" horiz-adv-x="1043" d="M223 -3L112 0Q49 0 -1 -8Q-7 3 -7 8L-5 17Q47 31 75 61T167 197L463 691Q447 695 405 695Q403 700 403 707T405 723L557 720H709L945 727Q963 727 963 716Q963 715 960 692Q949 620 945 553Q933
547 924 547T907 551Q891 651 888 664Q797 685 725 685T624 681Q622 673 617 616Q612 516 612 396Q628 392 697 392T800 396T850 412T873 461Q896 461 904 455Q895 404 895 371L896 284Q890 279 879 279L864 281L853 347Q799 356 727 356T612 351V172Q612 77 619
40Q648 36 689 36Q792 36 893 63Q909 86 922 124T939 171Q944 172 954 172T976 163Q962 91 955 16Q952 4 941 3Q899 -4 824 -4L604 0Q478 0 433 -8Q428 -2 428 9L429 17Q464 24 483 39T508 69Q523 112 525 269Q493 271 409 271L265 269L231 205Q160 74 153 29Q176
28 223 28Q225 21 225 15T223 -3ZM287 308Q395 305 445 305T527 307V349Q527 525 525 602T507 680Q503 680 500 676L287 308Z" />
<glyph unicode="&#xc7;" glyph-name="Ccedilla" horiz-adv-x="760" d="M368 -116Q363 -114 364 -107T365 -89L377 -15Q233 5 151 108T69 352Q69 521 177 628T453 736Q586 736 689 703Q695 700 695 696T691 664Q679 582 677 528Q662 525 656 525T639 529Q628 603
620 632Q556 700 441 700T252 620T177 395T254 135T453 20Q550 20 619 68Q637 97 649 132T665 175Q689 175 703 165Q688 94 681 20Q680 9 668 7Q574 -20 440 -20Q425 -20 417 -19L413 -68Q467 -90 490 -113T513 -175T496 -234T449 -268H339Q336 -264 336 -255L337
-243Q465 -241 465 -187Q465 -162 442 -146T368 -116Z" />
<glyph unicode="&#xc8;" glyph-name="Egrave" horiz-adv-x="688" d="M421 771L229 895Q239 929 277 953Q343 885 416 814L441 791Q439 772 421 771ZM455 -4L284 0H231Q115 0 64 -8Q59 -2 59 9L60 17Q112 29 128 54Q141 74 145 104Q157 195 157 352Q157 681 139
687Q120 692 73 692Q71 699 71 708T73 723L225 720H340L576 727Q593 727 593 716Q593 715 590 692Q580 630 576 553Q564 547 555 547T537 551Q525 642 519 664Q428 685 356 685T255 681Q243 617 243 396Q259 392 328 392T431 396T480 412T504 461Q525 461 535 455Q525
398 525 371L527 284Q520 279 509 279L495 281L484 347Q430 356 358 356T243 351V172Q243 78 249 40Q280 36 320 36Q423 36 524 63Q539 87 553 125T569 171Q575 172 585 172T607 163Q592 92 585 16Q584 4 572 3Q528 -4 455 -4Z" />
<glyph unicode="&#xc9;" glyph-name="Eacute" horiz-adv-x="688" d="M467 895L275 771Q267 771 262 776T255 791Q345 876 419 953Q457 929 467 895ZM455 -4L284 0H231Q115 0 64 -8Q59 -2 59 9L60 17Q112 29 128 54Q141 74 145 104Q157 195 157 352Q157 681 139
687Q120 692 73 692Q71 699 71 708T73 723L225 720H340L576 727Q593 727 593 716Q593 715 590 692Q580 630 576 553Q564 547 555 547T537 551Q525 642 519 664Q428 685 356 685T255 681Q243 617 243 396Q259 392 328 392T431 396T480 412T504 461Q525 461 535 455Q525
398 525 371L527 284Q520 279 509 279L495 281L484 347Q430 356 358 356T243 351V172Q243 78 249 40Q280 36 320 36Q423 36 524 63Q539 87 553 125T569 171Q575 172 585 172T607 163Q592 92 585 16Q584 4 572 3Q528 -4 455 -4Z" />
<glyph unicode="&#xca;" glyph-name="Ecircumflex" horiz-adv-x="688" d="M507 761L357 857L207 761Q199 762 194 767T187 781Q277 867 351 944H363Q435 867 502 804L527 781Q524 763 507 761ZM455 -4L284 0H231Q115 0 64 -8Q59 -2 59 9L60 17Q112 29 128 54Q141
74 145 104Q157 195 157 352Q157 681 139 687Q120 692 73 692Q71 699 71 708T73 723L225 720H340L576 727Q593 727 593 716Q593 715 590 692Q580 630 576 553Q564 547 555 547T537 551Q525 642 519 664Q428 685 356 685T255 681Q243 617 243 396Q259 392 328 392T431
396T480 412T504 461Q525 461 535 455Q525 398 525 371L527 284Q520 279 509 279L495 281L484 347Q430 356 358 356T243 351V172Q243 78 249 40Q280 36 320 36Q423 36 524 63Q539 87 553 125T569 171Q575 172 585 172T607 163Q592 92 585 16Q584 4 572 3Q528 -4
455 -4Z" />
<glyph unicode="&#xcb;" glyph-name="Edieresis" horiz-adv-x="688" d="M455 -4L284 0H231Q115 0 64 -8Q59 -2 59 9L60 17Q112 29 128 54Q141 74 145 104Q157 195 157 352Q157 681 139 687Q120 692 73 692Q71 699 71 708T73 723L225 720H340L576 727Q593 727 593
716Q593 715 590 692Q580 630 576 553Q564 547 555 547T537 551Q525 642 519 664Q428 685 356 685T255 681Q243 617 243 396Q259 392 328 392T431 396T480 412T504 461Q525 461 535 455Q525 398 525 371L527 284Q520 279 509 279L495 281L484 347Q430 356 358 356T243
351V172Q243 78 249 40Q280 36 320 36Q423 36 524 63Q539 87 553 125T569 171Q575 172 585 172T607 163Q592 92 585 16Q584 4 572 3Q528 -4 455 -4ZM236 803Q203 827 185 869Q197 883 217 898T253 920Q291 892 303 853Q272 816 236 803ZM452 803Q419 827 401 869Q413
883 433 898T469 920Q507 892 519 853Q488 816 452 803Z" />
<glyph unicode="&#xcc;" glyph-name="Igrave" horiz-adv-x="356" d="M259 771L67 895Q75 930 115 953Q179 885 254 814L279 791Q276 772 259 771ZM307 723Q309 717 309 708T307 692Q263 692 240 689Q223 687 223 464V301Q223 206 227 119T239 31Q265 28 327 28L329
12Q329 3 327 -3L200 0Q95 0 28 -8Q23 -3 23 5T24 17Q89 31 104 50Q113 62 116 71T121 99Q133 177 133 352V464Q133 687 116 689Q93 692 49 692L47 708Q47 717 49 723L179 720L307 723Z" />
<glyph unicode="&#xcd;" glyph-name="Iacute" horiz-adv-x="356" d="M335 895L143 771Q135 771 130 776T123 791Q213 876 287 953Q325 929 335 895ZM49 723L179 720Q179 720 307 723Q309 717 309 708L307 692Q263 692 240 689Q223 687 223 464V301Q223 206 227
119T239 31Q265 28 327 28Q329 21 329 12T327 -3L200 0Q95 0 28 -8Q23 -3 23 9L24 17Q89 31 104 50Q113 62 116 71T121 99Q133 177 133 352V464Q133 687 116 689Q93 692 49 692Q47 699 47 708T49 723Z" />
<glyph unicode="&#xce;" glyph-name="Icircumflex" horiz-adv-x="356" d="M347 761L197 857L47 761Q39 762 34 767T27 781Q117 867 191 944H203Q275 867 342 804L367 781Q364 763 347 761ZM307 723Q309 717 309 708T307 692Q263 692 240 689Q223 687 223 464V301Q223
206 227 119T239 31Q265 28 327 28L329 12Q329 3 327 -3L200 0Q95 0 28 -8Q23 -3 23 5T24 17Q89 31 104 50Q113 62 116 71T121 99Q133 177 133 352V464Q133 687 116 689Q93 692 49 692L47 708Q47 717 49 723L179 720L307 723Z" />
<glyph unicode="&#xcf;" glyph-name="Idieresis" horiz-adv-x="356" d="M307 723Q309 717 309 708T307 692Q263 692 240 689Q223 687 223 464V301Q223 206 227 119T239 31Q265 28 327 28L329 12Q329 3 327 -3L200 0Q95 0 28 -8Q23 -3 23 5T24 17Q89 31 104 50Q113
62 116 71T121 99Q133 177 133 352V464Q133 687 116 689Q93 692 49 692L47 708Q47 717 49 723L179 720L307 723ZM61 803Q27 827 11 869Q23 883 43 898T79 920Q116 892 128 853Q100 817 61 803ZM277 803Q243 827 227 869Q239 883 259 898T295 920Q332 892 344 853Q316
817 277 803Z" />
<glyph unicode="&#xd0;" glyph-name="Eth" horiz-adv-x="848" d="M400 -4L252 0Q116 0 49 -8Q44 -2 44 8L45 17Q115 31 132 56Q141 70 143 78Q153 120 157 333Q139 333 87 329Q77 333 77 344Q88 362 91 384H157V468Q157 681 140 687Q111 692 71 692Q68 699 68
708T71 723L183 720H279L400 724Q587 724 685 624T784 365T676 101T400 -4ZM332 685Q284 685 257 681Q245 637 245 487V384H273Q380 384 461 392Q471 388 471 376Q460 358 457 336H245V172Q245 83 249 53Q316 36 389 36Q535 36 605 116T676 347Q676 483 598 580Q558
628 490 656T332 685Z" />
<glyph unicode="&#xd1;" glyph-name="Ntilde" horiz-adv-x="860" d="M264 -3L151 0Q82 0 35 -8Q29 0 29 9L31 17Q83 29 100 54Q113 74 117 104Q135 234 140 653Q115 680 96 688T35 699Q32 705 32 714T35 729L199 733Q229 733 401 527Q499 411 688 157Q685 235
682 435T669 689Q647 692 588 692Q584 700 584 708T587 723L700 720Q769 720 816 728Q821 722 821 711L820 703Q771 692 755 672T736 616Q723 408 723 -15L699 -25L677 3Q486 255 303 481Q231 569 172 623Q172 488 172 302T185 31Q208 28 264 28Q267 20 267 12T264
-3ZM509 815Q481 815 432 830T355 845T288 817Q278 824 272 837Q301 860 330 884T379 908T446 893T525 877Q544 877 587 907Q599 903 604 884Q592 877 558 846T509 815Z" />
<glyph unicode="&#xd2;" glyph-name="Ograve" horiz-adv-x="843" d="M511 771L319 895Q327 930 367 953Q431 885 506 814L531 791Q528 772 511 771ZM779 357Q779 287 760 229T711 133T642 66T568 21T496 -5Q443 -20 416 -20Q270 -20 167 88T64 357Q64 427 83 485T132
582T201 649T276 695T347 721Q399 736 428 736Q573 736 676 626T779 357ZM447 32Q560 32 618 108T677 305Q677 398 644 484T545 627T399 685Q286 685 226 607T165 412Q165 319 199 233T300 89T447 32Z" />
<glyph unicode="&#xd3;" glyph-name="Oacute" horiz-adv-x="843" d="M545 895L353 771Q345 771 340 776T333 791Q424 876 497 953Q537 930 545 895ZM779 357Q779 287 760 229T711 133T642 66T568 21T496 -5Q443 -20 416 -20Q270 -20 167 88T64 357Q64 427 83 485T132
582T201 649T276 695T347 721Q399 736 428 736Q573 736 676 626T779 357ZM447 32Q560 32 618 108T677 305Q677 398 644 484T545 627T399 685Q286 685 226 607T165 412Q165 319 199 233T300 89T447 32Z" />
<glyph unicode="&#xd4;" glyph-name="Ocircumflex" horiz-adv-x="843" d="M571 761L421 857L271 761Q263 762 258 767T251 781Q341 867 415 944H427Q499 867 566 804L591 781Q588 763 571 761ZM779 357Q779 287 760 229T711 133T642 66T568 21T496 -5Q443 -20
416 -20Q270 -20 167 88T64 357Q64 427 83 485T132 582T201 649T276 695T347 721Q399 736 428 736Q573 736 676 626T779 357ZM447 32Q560 32 618 108T677 305Q677 398 644 484T545 627T399 685Q286 685 226 607T165 412Q165 319 199 233T300 89T447 32Z" />
<glyph unicode="&#xd5;" glyph-name="Otilde" horiz-adv-x="843" d="M779 357Q779 287 760 229T711 133T642 66T568 21T496 -5Q443 -20 416 -20Q270 -20 167 88T64 357Q64 427 83 485T132 582T201 649T276 695T347 721Q399 736 428 736Q573 736 676 626T779 357ZM447
32Q560 32 618 108T677 305Q677 398 644 484T545 627T399 685Q286 685 226 607T165 412Q165 319 199 233T300 89T447 32ZM496 813Q468 813 419 828T345 844T275 816Q264 822 259 836Q275 849 293 864T316 884Q344 907 365 907T433 892T498 876T524 877T537 883T548
889T561 897T573 905Q585 902 591 883Q571 868 557 856Q510 813 496 813Z" />
<glyph unicode="&#xd6;" glyph-name="Odieresis" horiz-adv-x="843" d="M779 357Q779 287 760 229T711 133T642 66T568 21T496 -5Q443 -20 416 -20Q270 -20 167 88T64 357Q64 427 83 485T132 582T201 649T276 695T347 721Q399 736 428 736Q573 736 676 626T779
357ZM447 32Q560 32 618 108T677 305Q677 398 644 484T545 627T399 685Q286 685 226 607T165 412Q165 319 199 233T300 89T447 32ZM305 803Q271 827 255 869Q267 883 287 898T323 920Q360 892 372 853Q344 817 305 803ZM521 803Q487 827 471 869Q483 883 503 898T539
920Q576 892 588 853Q560 817 521 803Z" />
<glyph unicode="&#xd7;" glyph-name="multiply" horiz-adv-x="459" d="M412 103Q412 92 408 87Q396 80 368 59L229 204Q146 136 80 68Q71 68 65 75Q62 84 40 116L191 244Q120 317 48 377Q48 387 52 392Q64 399 92 420L229 277Q311 348 379 419Q388 419 393 412Q395
406 419 371L268 239Q339 166 412 103Z" />
<glyph unicode="&#xd8;" glyph-name="Oslash" horiz-adv-x="843" d="M703 609T741 530T779 369T760 229T711 133T642 66T568 21T496 -5Q443 -20 416 -20Q329 -20 252 21Q232 -12 200 -83Q197 -85 193 -85T183 -81Q163 -55 151 -43L207 52Q140 103 102 182T64 344T83
485T132 582T201 649T276 695T347 721Q399 736 428 736Q511 736 589 693Q625 756 643 799Q647 800 651 800T660 797Q665 789 677 775T693 756L636 663Q703 609 741 530ZM399 685Q286 685 226 607T165 412Q165 253 256 133L551 623Q481 685 399 685ZM447 32Q560
32 618 108T677 305Q677 380 654 453T588 581L293 93Q362 32 447 32Z" />
<glyph unicode="&#xd9;" glyph-name="Ugrave" horiz-adv-x="829" d="M548 771L356 895Q366 929 404 953Q468 885 543 814L568 791Q565 772 548 771ZM49 723L145 720Q251 720 305 728Q311 720 311 711L309 703Q256 691 242 672Q231 658 227 628Q215 511 215 296Q215
167 267 95T429 23Q560 23 610 93T661 309V433Q661 615 651 689Q628 692 565 692Q563 700 563 709T565 723L683 720Q759 720 800 728Q805 722 805 711L804 703Q727 686 720 599Q709 470 709 284Q709 137 637 59T421 -20Q345 -20 289 -1T201 47T150 118T126 197T120
279V432Q120 513 111 689Q92 692 49 692Q47 699 47 708T49 723Z" />
<glyph unicode="&#xda;" glyph-name="Uacute" horiz-adv-x="829" d="M567 895L375 771Q367 771 362 776T355 791Q445 876 519 953Q557 929 567 895ZM49 723L145 720Q251 720 305 728Q311 720 311 711L309 703Q256 691 242 672Q231 658 227 628Q215 511 215 296Q215
167 267 95T429 23Q560 23 610 93T661 309V433Q661 615 651 689Q628 692 565 692Q563 700 563 709T565 723L683 720Q759 720 800 728Q805 722 805 711L804 703Q727 686 720 599Q709 470 709 284Q709 137 637 59T421 -20Q345 -20 289 -1T201 47T150 118T126 197T120
279V432Q120 513 111 689Q92 692 49 692Q47 699 47 708T49 723Z" />
<glyph unicode="&#xdb;" glyph-name="Ucircumflex" horiz-adv-x="829" d="M605 761L456 857L305 761Q297 762 292 767T285 781Q376 867 449 944H461Q541 862 600 804L625 781Q623 763 605 761ZM49 723L145 720Q251 720 305 728Q311 720 311 711L309 703Q256 691
242 672Q231 658 227 628Q215 511 215 296Q215 167 267 95T429 23Q560 23 610 93T661 309V433Q661 615 651 689Q628 692 565 692Q563 700 563 709T565 723L683 720Q759 720 800 728Q805 722 805 711L804 703Q727 686 720 599Q709 470 709 284Q709 137 637 59T421
-20Q345 -20 289 -1T201 47T150 118T126 197T120 279V432Q120 513 111 689Q92 692 49 692Q47 699 47 708T49 723Z" />
<glyph unicode="&#xdc;" glyph-name="Udieresis" horiz-adv-x="829" d="M49 723L145 720Q251 720 305 728Q311 720 311 711L309 703Q256 691 242 672Q231 658 227 628Q215 511 215 296Q215 167 267 95T429 23Q560 23 610 93T661 309V433Q661 615 651 689Q628 692
565 692Q563 700 563 709T565 723L683 720Q759 720 800 728Q805 722 805 711L804 703Q727 686 720 599Q709 470 709 284Q709 137 637 59T421 -20Q345 -20 289 -1T201 47T150 118T126 197T120 279V432Q120 513 111 689Q92 692 49 692Q47 699 47 708T49 723ZM325
803Q291 827 275 869Q287 883 307 898T343 920Q380 892 392 853Q364 817 325 803ZM541 803Q507 827 491 869Q503 883 523 898T559 920Q596 892 608 853Q580 817 541 803Z" />
<glyph unicode="&#xdd;" glyph-name="Yacute" horiz-adv-x="723" d="M485 895L293 771Q285 771 280 776T273 791Q364 876 437 953Q477 930 485 895ZM3 729L165 733Q175 733 216 678T310 530T391 352Q406 378 436 429T481 508T517 574Q554 642 564 688Q543 692
483 692Q480 699 480 708T483 723Q549 720 610 720T717 728Q723 718 723 711L721 703Q694 695 659 669Q614 637 525 500T423 313Q415 292 415 198T425 35Q466 28 540 28Q543 21 543 12L540 -3L381 0Q265 0 189 -8Q184 -2 184 9L185 17Q281 32 302 62T323 174T310
311T229 480T105 655Q83 680 64 688T3 699Q0 705 0 715T3 729Z" />
<glyph unicode="&#xde;" glyph-name="Thorn" horiz-adv-x="628" d="M69 723L199 720L327 723Q329 717 329 708L327 692Q283 692 260 689Q250 688 244 588H347Q461 588 524 529T588 365T520 205T343 151Q304 151 280 152Q275 158 275 169L280 189Q297 188 339 188Q406
188 453 233T500 344Q500 438 455 495T323 552Q271 552 243 549V301Q243 206 247 119T259 31Q293 28 373 28Q376 21 376 12T373 -3L220 0Q124 0 61 -8Q56 -3 56 9L57 17Q102 30 119 48T141 99Q153 177 153 352V464Q153 687 136 689Q113 692 69 692Q67 699 67 708T69
723Z" />
<glyph unicode="&#xdf;" glyph-name="germandbls" horiz-adv-x="669" d="M372 856Q442 856 500 810T559 705T539 608T491 546T434 504Q365 457 365 395Q365 370 383 348T429 312L507 275Q621 220 621 128Q621 60 567 20T439 -20Q400 -20 358 -13T297 3Q294 48
279 128Q290 135 297 135T308 133Q328 73 343 56Q354 45 382 32T448 19T515 40T543 103Q543 131 532 145T514 166T497 180T481 189T468 196T460 200L385 236Q288 282 288 369Q288 403 303 432T340 479T388 517T436 555T473 600T488 659Q488 715 435 764T325 813Q290
813 255 756Q201 669 201 493V299Q201 107 213 0Q100 0 29 -8Q24 -2 24 9L25 17Q90 30 103 68Q119 113 119 415V448L20 447Q13 451 13 459Q18 469 24 493H120Q121 509 126 583T157 710T214 788T282 832Q336 856 372 856Z" />
<glyph unicode="&#xe0;" glyph-name="agrave" horiz-adv-x="493" d="M395 364L392 120Q392 47 439 47L475 48Q479 43 479 32L477 21Q400 7 367 -20Q345 -14 330 7T312 53Q232 4 153 -20Q119 -20 83 18T47 115Q47 144 60 167T91 200Q165 237 311 265V360Q311 415
294 442T252 469T199 461T160 428T148 360Q148 356 135 352T101 347T73 356T65 385Q65 421 117 463Q129 471 187 490T255 509Q327 509 361 467T395 364ZM136 96T155 68T198 40T255 57T308 93Q311 153 311 229Q227 218 163 181Q136 168 136 120Q136 96 155 68ZM297
547L125 697Q141 732 181 748Q247 657 299 590L320 564Q316 547 297 547Z" />
<glyph unicode="&#xe1;" glyph-name="aacute" horiz-adv-x="493" d="M395 364L392 120Q392 47 439 47L475 48Q479 43 479 32L477 21Q400 7 367 -20Q345 -14 330 7T312 53Q232 4 153 -20Q119 -20 83 18T47 115Q47 144 60 167T91 200Q165 237 311 265V360Q311 415
294 442T252 469T199 461T160 428T148 360Q148 356 135 352T101 347T73 356T65 385Q65 421 117 463Q129 471 187 490T255 509Q327 509 361 467T395 364ZM136 96T155 68T198 40T255 57T308 93Q311 167 311 229Q227 218 163 181Q136 168 136 120Q136 96 155 68ZM399
697L227 547Q219 547 213 551T204 564Q281 661 343 748Q383 732 399 697Z" />
<glyph unicode="&#xe2;" glyph-name="acircumflex" horiz-adv-x="493" d="M395 364L392 120Q392 47 439 47L475 48Q479 43 479 32L477 21Q400 7 367 -20Q345 -14 330 7T312 53Q232 4 153 -20Q119 -20 83 18T47 115Q47 144 60 167T91 200Q165 237 311 265V360Q311
415 294 442T252 469T199 461T160 428T148 360Q148 356 135 352T101 347T73 356T65 385Q65 421 117 463Q129 471 187 490T255 509Q327 509 361 467T395 364ZM136 96T155 68T198 40T255 57T308 93Q311 160 311 229Q227 218 163 181Q136 168 136 120Q136 96 155 68ZM243
669L111 547Q96 547 88 564Q175 669 236 756H248Q302 678 372 592L396 564Q392 547 373 547L243 669Z" />
<glyph unicode="&#xe3;" glyph-name="atilde" horiz-adv-x="493" d="M395 364L392 120Q392 47 439 47L475 48Q479 43 479 32L477 21Q400 7 367 -20Q345 -14 330 7T312 53Q232 4 153 -20Q119 -20 83 18T47 115Q47 144 60 167T91 200Q165 237 311 265V360Q311 415
294 442T252 469T199 461T160 428T148 360Q148 356 135 352T101 347T73 356T65 385Q65 421 117 463Q129 471 187 490T255 509Q327 509 361 467T395 364ZM136 96T155 68T198 40T255 57T308 93Q311 165 311 229Q227 218 163 181Q136 168 136 120Q136 96 155 68ZM315
577Q287 577 238 592T164 608T93 580Q84 585 77 600Q95 614 114 630Q163 671 184 671T251 656T317 640T343 641T356 647T367 653T380 661T392 669Q405 666 409 647Q389 632 358 605T315 577Z" />
<glyph unicode="&#xe4;" glyph-name="adieresis" horiz-adv-x="493" d="M135 592Q100 617 84 659Q115 694 152 709Q190 681 201 643Q191 629 171 614T135 592ZM351 592Q316 617 300 659Q331 694 368 709Q406 681 417 643Q407 629 387 614T351 592ZM395 364L392
120Q392 47 439 47L475 48Q479 43 479 32L477 21Q400 7 367 -20Q345 -14 330 7T312 53Q232 4 153 -20Q119 -20 83 18T47 115Q47 144 60 167T91 200Q165 237 311 265V360Q311 415 294 442T252 469T199 461T160 428T148 360Q148 356 135 352T101 347T73 356T65 385Q65
421 117 463Q129 471 187 490T255 509Q327 509 361 467T395 364ZM136 96T155 68T198 40T255 57T308 93Q311 165 311 229Q227 218 163 181Q136 168 136 120Q136 96 155 68Z" />
<glyph unicode="&#xe5;" glyph-name="aring" horiz-adv-x="493" d="M343 653Q343 570 236 553Q193 553 163 582T133 653Q133 737 241 753Q284 753 313 724T343 653ZM245 584Q289 584 289 640Q289 673 274 698T232 723Q187 723 187 667Q187 634 203 609T245 584ZM395
364L392 120Q392 47 439 47L475 48Q479 43 479 32L477 21Q400 7 367 -20Q345 -14 330 7T312 53Q232 4 153 -20Q119 -20 83 18T47 115Q47 144 60 167T91 200Q165 237 311 265V360Q311 415 294 442T252 469T199 461T160 428T148 360Q148 356 135 352T101 347T73 356T65
385Q65 421 117 463Q129 471 187 490T255 509Q327 509 361 467T395 364ZM136 96T155 68T198 40T255 57T308 93Q311 165 311 229Q227 218 163 181Q136 168 136 120Q136 96 155 68Z" />
<glyph unicode="&#xe6;" glyph-name="ae" horiz-adv-x="761" d="M553 52Q631 52 691 96Q704 91 707 75L604 -1Q580 -20 499 -20T361 63Q243 -3 155 -20Q121 -20 84 18T47 115Q47 146 60 170T91 205Q164 248 311 277V360Q311 415 294 442T252 469T199 461T160 428T148
360Q148 356 135 352T101 347T73 356T65 385Q65 421 117 463Q129 471 187 490T255 509Q349 509 381 433Q431 487 515 509Q566 509 617 479T688 380Q692 368 715 367Q721 360 721 353T719 337Q552 288 391 269Q391 215 405 169T457 87T553 52ZM137 120Q137 96 156
68T201 40Q253 40 341 97Q312 165 312 240Q231 227 164 187Q137 170 137 120ZM617 357T617 363T606 392T565 442T502 469T453 457Q404 420 395 311Q452 311 512 324T612 356Q617 357 617 363Z" />
<glyph unicode="&#xe7;" glyph-name="ccedilla" horiz-adv-x="476" d="M212 -116Q207 -114 208 -107T209 -89L221 -16Q132 1 86 71T40 240Q40 306 64 357T120 436T190 482Q251 509 288 509Q385 509 448 451Q445 434 428 415T388 391Q356 429 324 449T246 469T161
409T123 284T139 168T196 82T293 47T440 85Q449 80 449 65L352 -1Q342 -7 315 -13T271 -20H261L257 -68Q311 -90 334 -113T357 -175T340 -234T293 -268H183Q180 -264 180 -255L181 -243Q309 -241 309 -187Q309 -162 286 -146T212 -116Z" />
<glyph unicode="&#xe8;" glyph-name="egrave" horiz-adv-x="517" d="M300 52Q382 52 445 96Q459 91 461 75L353 -1Q329 -20 246 -20T105 54T47 243T110 423T260 509Q336 509 394 458Q429 428 443 380Q446 368 471 367Q477 360 477 353T475 337Q299 296 129 280Q129
152 200 88Q240 52 300 52ZM363 357Q368 360 368 364T356 392T312 442T247 469T197 459Q141 421 133 321Q187 321 256 332T363 357ZM316 547L144 697Q160 732 200 748Q247 680 318 590L339 564Q335 547 316 547Z" />
<glyph unicode="&#xe9;" glyph-name="eacute" horiz-adv-x="517" d="M300 52Q382 52 445 96Q459 91 461 75L353 -1Q329 -20 246 -20T105 54T47 243T110 423T260 509Q336 509 394 458Q429 428 443 380Q446 368 471 367Q477 360 477 353T475 337Q299 296 129 280Q129
152 200 88Q240 52 300 52ZM363 357Q368 360 368 364T356 392T312 442T247 469T197 459Q141 421 133 321Q187 321 256 332T363 357ZM372 697L200 547Q192 547 186 551T177 564Q255 661 316 748Q356 732 372 697Z" />
<glyph unicode="&#xea;" glyph-name="ecircumflex" horiz-adv-x="517" d="M300 52Q382 52 445 96Q459 91 461 75L353 -1Q329 -20 246 -20T105 54T47 243T110 423T260 509Q336 509 394 458Q429 428 443 380Q446 368 471 367Q477 360 477 353T475 337Q299 296 129
280Q129 152 200 88Q240 52 300 52ZM363 357Q368 360 368 364T356 392T312 442T247 469T197 459Q141 421 133 321Q187 321 256 332T363 357ZM259 669L127 547Q112 547 104 564Q191 669 252 756H264Q318 678 388 592L412 564Q408 547 389 547L259 669Z" />
<glyph unicode="&#xeb;" glyph-name="edieresis" horiz-adv-x="517" d="M300 52Q382 52 445 96Q459 91 461 75L353 -1Q329 -20 246 -20T105 54T47 243T110 423T260 509Q336 509 394 458Q429 428 443 380Q446 368 471 367Q477 360 477 353T475 337Q299 296 129
280Q129 152 200 88Q240 52 300 52ZM363 357Q368 360 368 364T356 392T312 442T247 469T197 459Q141 421 133 321Q187 321 256 332T363 357ZM143 591Q107 616 92 657Q104 671 124 686T160 708Q198 680 209 641Q181 605 143 591ZM359 591Q323 616 308 657Q320 671
340 686T376 708Q414 680 425 641Q397 605 359 591Z" />
<glyph unicode="&#xec;" glyph-name="igrave" horiz-adv-x="317" d="M269 -3L179 0Q109 0 47 -8Q41 0 41 9L43 17Q86 27 101 48Q112 64 118 86T124 216V312Q124 374 119 398T102 430T73 440L36 443Q33 447 33 456L36 469Q88 480 120 491T197 525Q208 525 212 513Q200
445 200 189Q200 143 203 88T213 31Q228 28 269 28Q272 21 272 12T269 -3ZM212 547L40 697Q56 732 96 748Q143 680 214 590L235 564Q231 547 212 547Z" />
<glyph unicode="&#xed;" glyph-name="iacute" horiz-adv-x="317" d="M269 -3L179 0Q109 0 47 -8Q41 0 41 9L43 17Q86 27 101 48Q112 64 118 86T124 216V312Q124 374 119 398T102 430T73 440L36 443Q33 447 33 456L36 469Q88 480 120 491T197 525Q208 525 212 513Q200
445 200 189Q200 143 203 88T213 31Q228 28 269 28Q272 21 272 12T269 -3ZM287 697L115 547Q107 547 101 551T92 564Q169 661 231 748Q271 732 287 697Z" />
<glyph unicode="&#xee;" glyph-name="icircumflex" horiz-adv-x="317" d="M269 -3L179 0Q109 0 47 -8Q41 0 41 9L43 17Q86 27 101 48Q112 64 118 86T124 216V312Q124 374 119 398T102 430T73 440L36 443Q33 447 33 456L36 469Q88 480 120 491T197 525Q208 525
212 513Q200 445 200 189Q200 143 203 88T213 31Q228 28 269 28Q272 21 272 12T269 -3ZM145 669L13 547Q5 547 0 551T-9 564Q77 669 139 756H151Q205 678 276 592L299 564Q295 547 276 547L145 669Z" />
<glyph unicode="&#xef;" glyph-name="idieresis" horiz-adv-x="317" d="M49 589Q14 615 -1 656Q11 670 31 685T67 707Q104 677 116 640Q105 626 85 611T49 589ZM239 589Q203 616 188 656Q200 670 220 685T256 707Q294 677 305 640Q276 603 239 589ZM269 -3L179
0Q109 0 47 -8Q41 0 41 9L43 17Q86 27 101 48Q112 64 118 86T124 216V312Q124 374 119 398T102 430T73 440L36 443Q33 447 33 456L36 469Q88 480 120 491T197 525Q208 525 212 513Q200 445 200 189Q200 143 203 88T213 31Q228 28 269 28Q272 21 272 12T269 -3Z"
/>
<glyph unicode="&#xf0;" glyph-name="eth" horiz-adv-x="591" d="M440 613T493 507T547 308T530 159T476 66T395 11T284 -20Q181 -20 111 55T40 244Q40 467 292 509Q356 509 417 472Q403 514 377 555T327 621L291 657L160 597Q142 607 140 639L253 687Q212 719
125 767Q127 791 144 803L149 807Q223 771 305 715L444 776Q453 771 459 761T467 736L345 685L352 681Q440 613 493 507ZM139 179T185 101T307 23T416 80T448 273Q448 328 439 391Q368 460 272 460Q204 460 172 411T139 271Z" />
<glyph unicode="&#xf1;" glyph-name="ntilde" horiz-adv-x="631" d="M68 449L29 448Q25 453 25 461T27 475Q95 484 138 503Q152 509 155 509Q164 509 177 481T199 419Q300 476 396 509Q457 509 490 461T523 332L521 200Q521 33 536 31T592 28Q596 21 596 13T592
-3L500 0Q417 0 368 -8Q363 -2 363 9L364 17Q393 24 409 36T429 60T437 95T440 187V270Q440 340 424 388Q417 407 408 416Q386 440 355 440T293 428T246 406T201 376Q197 297 197 165T210 30T261 28Q265 21 265 13T261 -3L176 0Q100 0 44 -8Q39 -2 39 9L40 17Q69
24 85 36T105 60T113 103T117 239T117 354T115 384T111 411T102 430Q92 449 68 449ZM385 593Q357 593 308 608T234 624T164 596Q155 601 148 616Q177 639 206 663T255 687T322 672T387 656T413 657T427 663T438 669T451 677T463 685Q474 682 480 663Q466 652 433
623T385 593Z" />
<glyph unicode="&#xf2;" glyph-name="ograve" horiz-adv-x="589" d="M549 244Q549 22 291 -20Q185 -20 113 55T40 244Q40 468 299 509Q404 509 476 432T549 244ZM313 23Q457 23 457 207Q457 311 409 389T282 467T168 417T132 273T181 101T313 23ZM343 547L171
697Q185 732 227 748Q281 670 344 590L365 564Q361 547 343 547Z" />
<glyph unicode="&#xf3;" glyph-name="oacute" horiz-adv-x="589" d="M549 244Q549 22 291 -20Q185 -20 113 55T40 244Q40 468 299 509Q404 509 476 432T549 244ZM313 23Q457 23 457 207Q457 311 409 389T282 467T168 417T132 273T181 101T313 23ZM431 697L259
547Q251 547 245 551T236 564Q313 661 375 748Q415 732 431 697Z" />
<glyph unicode="&#xf4;" glyph-name="ocircumflex" horiz-adv-x="589" d="M549 244Q549 22 291 -20Q185 -20 113 55T40 244Q40 468 299 509Q404 509 476 432T549 244ZM313 23Q457 23 457 207Q457 311 409 389T282 467T168 417T132 273T181 101T313 23ZM296 669L164
547Q150 547 141 564Q228 669 289 756H301Q357 678 426 592L449 564Q445 547 427 547L296 669Z" />
<glyph unicode="&#xf5;" glyph-name="otilde" horiz-adv-x="589" d="M549 244Q549 22 291 -20Q185 -20 113 55T40 244Q40 468 299 509Q404 509 476 432T549 244ZM313 23Q457 23 457 207Q457 311 409 389T282 467T168 417T132 273T181 101T313 23ZM373 593Q345
593 296 608T222 624T152 596Q143 601 136 616Q165 639 194 663T243 687T310 672T375 656T401 657T415 663T426 669T439 677T451 685Q462 682 468 663Q454 652 421 623T373 593Z" />
<glyph unicode="&#xf6;" glyph-name="odieresis" horiz-adv-x="589" d="M549 244Q549 22 291 -20Q185 -20 113 55T40 244Q40 468 299 509Q404 509 476 432T549 244ZM313 23Q457 23 457 207Q457 311 409 389T282 467T168 417T132 273T181 101T313 23ZM180 591Q147
615 129 657Q141 671 161 686T197 708Q235 680 247 641Q216 604 180 591ZM396 591Q363 615 345 657Q357 671 377 686T413 708Q451 680 463 641Q432 604 396 591Z" />
<glyph unicode="&#xf7;" glyph-name="divide" horiz-adv-x="532" d="M257 327Q221 360 203 399Q243 439 277 453Q316 414 329 380Q319 367 297 351T257 327ZM257 36Q223 67 203 108Q238 145 277 163Q316 124 329 89Q305 58 257 36ZM492 276Q487 267 482 240Q480
228 479 223H265Q147 223 49 215Q40 220 40 229Q44 238 53 283H264Q385 283 483 292Q492 287 492 276Z" />
<glyph unicode="&#xf8;" glyph-name="oslash" horiz-adv-x="589" d="M113 -71Q111 -72 106 -72T98 -70T71 -29L124 44Q40 122 40 244Q40 468 299 509Q368 509 424 473Q467 543 477 561Q480 563 485 563T495 559Q502 546 520 520L465 443Q549 365 549 244Q549 22
291 -20Q222 -20 164 13Q124 -48 113 -71ZM203 467T168 417T132 278T173 113L288 275Q340 346 387 417Q342 467 273 467ZM313 23Q457 23 457 207Q457 305 417 375L323 243Q289 197 203 72Q249 23 313 23Z" />
<glyph unicode="&#xf9;" glyph-name="ugrave" horiz-adv-x="609" d="M493 516Q502 514 508 504Q499 436 499 280L500 137Q500 47 545 47L581 48Q585 41 585 32L584 21Q534 13 514 2L488 -10Q483 -13 473 -20Q451 -12 436 15T419 71Q334 18 224 -20Q160 -20 129
27T97 157V348Q97 416 91 434T56 459L23 463Q20 469 20 476L23 488Q40 491 100 501L171 516Q179 514 185 504Q177 449 177 215Q177 51 265 51Q296 51 327 62T375 83T416 113Q419 179 419 208V329Q419 390 414 414T398 446T369 459L336 463L333 476L336 488Q346
490 372 493T443 505T493 516ZM361 547L189 697Q205 732 245 748Q311 657 363 590L384 564Q380 547 361 547Z" />
<glyph unicode="&#xfa;" glyph-name="uacute" horiz-adv-x="609" d="M493 516Q502 514 508 504Q499 436 499 280L500 137Q500 47 545 47L581 48Q585 41 585 32L584 21Q534 13 514 2L488 -10Q483 -13 473 -20Q451 -12 436 15T419 71Q334 18 224 -20Q160 -20 129
27T97 157V348Q97 416 91 434T56 459L23 463Q20 469 20 476L23 488Q40 491 100 501L171 516Q179 514 185 504Q177 449 177 215Q177 51 265 51Q296 51 327 62T375 83T416 113Q419 179 419 208V329Q419 390 414 414T398 446T369 459L336 463L333 476L336 488Q346
490 372 493T443 505T493 516ZM429 697L257 547Q249 547 244 551T235 564Q312 661 373 748Q415 732 429 697Z" />
<glyph unicode="&#xfb;" glyph-name="ucircumflex" horiz-adv-x="609" d="M493 516Q502 514 508 504Q499 436 499 280L500 137Q500 47 545 47L581 48Q585 41 585 32L584 21Q534 13 514 2L488 -10Q483 -13 473 -20Q451 -12 436 15T419 71Q334 18 224 -20Q160 -20
129 27T97 157V348Q97 416 91 434T56 459L23 463Q20 469 20 476L23 488Q40 491 100 501L171 516Q179 514 185 504Q177 449 177 215Q177 51 265 51Q296 51 327 62T375 83T416 113Q419 179 419 208V329Q419 390 414 414T398 446T369 459L336 463L333 476L336 488Q346
490 372 493T443 505T493 516ZM293 669L161 547Q153 547 148 551T139 564Q225 669 287 756H299Q353 678 424 592L447 564Q443 547 424 547L293 669Z" />
<glyph unicode="&#xfc;" glyph-name="udieresis" horiz-adv-x="609" d="M493 516Q502 514 508 504Q499 436 499 280L500 137Q500 47 545 47L581 48Q585 41 585 32L584 21Q534 13 514 2L488 -10Q483 -13 473 -20Q451 -12 436 15T419 71Q334 18 224 -20Q160 -20
129 27T97 157V348Q97 416 91 434T56 459L23 463Q20 469 20 476L23 488Q40 491 100 501L171 516Q179 514 185 504Q177 449 177 215Q177 51 265 51Q296 51 327 62T375 83T416 113Q419 179 419 208V329Q419 390 414 414T398 446T369 459L336 463L333 476L336 488Q346
490 372 493T443 505T493 516ZM172 591Q139 615 121 657Q133 671 153 686T189 708Q227 680 239 641Q208 604 172 591ZM388 591Q355 615 337 657Q349 671 369 686T405 708Q443 680 455 641Q424 604 388 591Z" />
<glyph unicode="&#xfd;" glyph-name="yacute" horiz-adv-x="535" d="M97 493L183 496Q185 491 185 481L183 465Q152 465 139 463Q148 402 187 308L284 68L371 291Q415 404 421 459Q385 463 347 463Q343 469 343 477T345 493H443Q489 493 527 499Q535 486 535 473Q510
462 499 451Q472 422 440 348L295 0Q282 -31 253 -107T213 -214T191 -270T168 -326Q141 -388 125 -388Q120 -388 104 -382Q61 -367 7 -355Q7 -335 16 -323Q52 -329 55 -329Q84 -329 129 -262T200 -128L236 -32L73 368Q48 431 27 453Q14 469 -12 477Q-12 495 -7
503Q59 493 97 493ZM411 697L239 547Q231 547 225 551T216 564Q293 661 355 748Q395 732 411 697Z" />
<glyph unicode="&#xfe;" glyph-name="thorn" horiz-adv-x="593" d="M20 803L17 815L20 828Q74 838 100 847T191 895Q199 895 205 885Q185 761 185 419Q313 492 367 509Q442 493 499 418T556 231Q556 164 524 112T444 33Q350 -20 275 -20Q256 -20 185 -5V-61Q185
-328 197 -329Q228 -332 309 -332Q312 -339 312 -348T309 -363L165 -360Q80 -360 25 -368Q20 -363 20 -351L21 -343Q62 -333 77 -315T96 -269Q107 -192 107 59V675Q107 741 97 767T55 799L20 803ZM185 88Q185 64 241 44T320 23Q377 23 424 74T472 193Q472 297 425
368T323 439T185 376V88Z" />
<glyph unicode="&#xff;" glyph-name="ydieresis" horiz-adv-x="535" d="M183 496Q185 491 185 482T183 465Q152 465 139 463Q148 402 187 308L284 68L371 291Q415 404 421 459Q385 463 347 463L343 480Q343 485 345 493H443Q489 493 527 499Q535 486 535 473Q510
462 499 451Q472 422 440 348L295 0Q282 -31 253 -107T213 -214T191 -270T169 -325T145 -371T127 -388T91 -378T7 -355Q7 -335 16 -323Q52 -329 55 -329Q84 -329 129 -262T200 -128L236 -32L73 368Q48 431 27 453Q14 469 -12 477Q-12 495 -7 503Q59 493 97 493L183
496ZM159 591Q123 616 108 657Q120 671 140 686T176 708Q214 680 225 641Q197 605 159 591ZM375 591Q339 616 324 657Q336 671 356 686T392 708Q430 680 441 641Q413 605 375 591Z" />
<glyph unicode="&#x2013;" glyph-name="endash" horiz-adv-x="665" d="M331 272Q496 272 609 281Q619 277 619 265Q613 253 605 217H332Q169 217 56 209Q47 213 47 224Q54 244 60 272H331Z" />
<glyph unicode="&#x2014;" glyph-name="emdash" horiz-adv-x="1073" d="M535 272Q824 272 1017 280Q1027 276 1027 264Q1021 251 1013 217H536Q249 217 56 209Q47 213 47 224Q54 244 60 272H535Z" />
<glyph unicode="&#x2018;" glyph-name="quoteleft" horiz-adv-x="231" d="M67 667Q67 702 96 754T175 855Q191 855 196 840Q144 765 144 720Q177 693 197 649Q160 607 120 592Q102 607 87 629T67 667Z" />
<glyph unicode="&#x2019;" glyph-name="quoteright" horiz-adv-x="197" d="M164 780Q164 745 135 693T56 592Q40 592 35 607Q87 681 87 727Q54 754 33 797Q71 838 111 855Q129 839 144 817T164 780Z" />
<glyph unicode="&#x201a;" glyph-name="quotesinglbase" horiz-adv-x="248" d="M197 37Q197 2 168 -50T89 -151Q73 -151 68 -136Q120 -61 120 -16Q87 11 67 55Q104 97 144 112Q162 97 177 75T197 37Z" />
<glyph unicode="&#x201c;" glyph-name="quotedblleft" horiz-adv-x="397" d="M67 667Q67 702 96 754T175 855Q191 855 196 840Q144 765 144 720Q177 693 197 649Q160 607 120 592Q102 607 87 629T67 667ZM233 667Q233 702 262 754T341 855Q358 855 363 840Q311
767 311 720Q344 693 364 649Q327 607 287 592Q269 607 254 629T233 667Z" />
<glyph unicode="&#x201d;" glyph-name="quotedblright" horiz-adv-x="397" d="M164 780Q164 745 135 693T56 592Q40 592 35 607Q87 681 87 727Q54 754 33 797Q71 838 111 855Q129 839 144 817T164 780ZM331 780Q331 745 302 693T223 592Q206 592 201 607Q253 679
253 727Q220 755 200 797Q236 838 277 855Q316 822 331 780Z" />
<glyph unicode="&#x201e;" glyph-name="quotedblbase" horiz-adv-x="415" d="M197 37Q197 2 168 -50T89 -151Q73 -151 68 -136Q120 -61 120 -16Q87 11 67 55Q104 97 144 112Q162 97 177 75T197 37ZM364 37Q364 2 335 -50T256 -151Q240 -151 235 -136Q287 -61 287
-16Q255 10 233 55Q272 97 311 112Q329 97 344 75T364 37Z" />
<glyph unicode="&#x2022;" glyph-name="bullet" horiz-adv-x="461" d="M213 151Q136 206 100 299Q128 331 173 365T252 412Q290 383 320 342T361 264Q338 233 294 198T213 151Z" />
<glyph unicode="&#x2039;" glyph-name="guilsinglleft" horiz-adv-x="320" d="M33 241V255Q90 302 153 362T249 463Q268 463 274 448L276 443L137 248L276 53Q271 33 249 33Q168 129 33 241Z" />
<glyph unicode="&#x203a;" glyph-name="guilsinglright" horiz-adv-x="320" d="M287 255V241Q152 129 71 33Q52 33 46 48L44 53L183 248L44 443Q49 463 71 463Q104 423 167 363T287 255Z" />
</font>
</defs>
</svg>
