<?xml version="1.0" standalone="no"?>
<!DOCTYPE svg PUBLIC "-//W3C//DTD SVG 1.1//EN" "http://www.w3.org/Graphics/SVG/1.1/DTD/svg11.dtd">
<svg xmlns="http://www.w3.org/2000/svg">
<defs >
<font id="Lemonada" horiz-adv-x="682" ><font-face
    font-family="Lemonada Light"
    units-per-em="1000"
    panose-1="0 0 4 0 0 0 0 0 0 0"
    ascent="1345"
    descent="-653"
    alphabetic="0" />
<glyph unicode=" " glyph-name="space" horiz-adv-x="330" />
<glyph unicode="!" glyph-name="exclam" horiz-adv-x="350" d="M172 242T166 251T159 279Q159 306 169 365T183 438Q198 517 207 573T216 666Q216 724 198 747Q229 775 279 775Q314 775 330 753T347 693Q347 649 306 496T234 259Q225 251 213 247T190 242Q172
242 166 251ZM121 -25T103 -8T85 35Q85 65 105 86T157 108Q184 108 201 91T219 48Q219 19 198 -3T147 -25Q121 -25 103 -8Z" />
<glyph unicode="&quot;" glyph-name="quotedbl" horiz-adv-x="436" d="M107 446T99 459T90 496Q90 516 96 537T114 595Q127 631 134 659T142 716Q142 739 135 759Q169 780 205 780Q241 780 241 730Q241 710 235 688T217 633Q203 590 196 564T189 510Q189 487 196
467Q163 446 127 446Q107 446 99 459ZM314 446T306 459T297 496Q297 516 303 537T321 595Q334 631 341 659T349 716Q349 739 342 759Q376 780 412 780Q448 780 448 730Q448 710 442 688T424 633Q410 590 403 564T396 510Q396 487 403 467Q370 446 334 446Q314 446
306 459Z" />
<glyph unicode="#" glyph-name="numbersign" horiz-adv-x="836" d="M646 499T634 498Q622 452 612 412T592 336Q588 317 578 279Q630 281 657 281Q720 281 743 272T766 239Q766 214 746 188Q691 199 622 199Q601 199 559 197L502 -49Q490 -98 444 -98Q420 -98
400 -85Q441 41 481 193L392 186Q352 182 270 176Q251 99 218 -49Q206 -98 160 -98Q136 -98 116 -85Q153 27 192 173H158Q113 173 90 176T58 189T49 216Q49 240 70 266Q126 256 196 256H214Q238 346 269 474Q248 473 206 473Q161 473 138 476T106 489T97 516Q97
540 118 566Q174 556 244 556Q274 556 289 557Q308 635 338 769Q350 818 396 818Q419 818 439 805Q404 694 367 561L443 567L578 577L622 769Q634 818 680 818Q703 818 723 805Q693 714 656 580Q672 581 705 581Q768 581 791 572T814 539Q814 514 794 488Q739 499
670 499Q646 499 634 498ZM526 361T558 495L465 488Q424 484 345 478Q313 360 289 259Q346 262 407 268L503 275Q526 361 558 495Z" />
<glyph unicode="$" glyph-name="dollar" horiz-adv-x="673" d="M335 626T280 588T224 498Q224 472 243 452T290 418T370 384Q439 357 481 334T553 273T584 178Q584 129 557 85T472 12T332 -23L324 -69Q315 -123 311 -143Q302 -195 258 -195Q235 -195 215 -183Q220
-159 225 -137T236 -94L254 -22Q173 -15 124 16T74 96Q74 117 85 134T114 161Q140 102 189 71T294 39Q379 39 430 70T481 159Q481 189 461 210T412 246T330 281Q262 309 221 331T149 392T119 487Q119 540 152 586T248 662T393 700L424 837Q436 886 480 886Q503
886 523 873Q500 800 472 701Q544 697 589 674T635 613Q635 575 611 555T545 535Q463 535 436 639Q335 626 280 588Z" />
<glyph unicode="%" glyph-name="percent" horiz-adv-x="1108" d="M183 272T137 323T90 460Q90 533 121 589T209 676T339 707Q352 707 367 705T392 698Q396 694 398 669Q484 646 484 520Q484 451 455 394T375 305T262 272Q183 272 137 323ZM304 325T333 349T379
417T396 513Q396 577 370 608T289 639Q271 639 239 630Q210 593 194 545T177 451Q177 393 201 359T267 325Q304 325 333 349ZM425 146T510 328T695 747Q705 772 721 784T761 796Q783 796 802 783Q735 659 660 494T445 9Q433 -16 417 -28T377 -40Q353 -40 336 -27Q425
146 510 328ZM748 -23T702 28T655 165Q655 238 686 294T774 381T904 412Q917 412 932 410T957 403Q961 399 963 374Q1049 351 1049 225Q1049 156 1020 99T940 10T827 -23Q748 -23 702 28ZM869 30T898 54T944 122T961 218Q961 282 935 313T854 344Q836 344 804 335Q775
298 759 250T742 156Q742 99 766 65T832 30Q869 30 898 54Z" />
<glyph unicode="&amp;" glyph-name="ampersand" horiz-adv-x="762" d="M721 445T735 436T749 406Q749 388 735 357Q681 363 662 363Q642 363 618 360Q620 229 574 127T443 -34T248 -92Q162 -92 110 -45T57 82Q57 162 105 237T237 363Q185 388 155 431T125 527Q125
601 165 657T280 744T454 775Q526 775 572 746T619 673Q619 638 595 618T533 598Q489 598 460 628T416 713Q329 698 280 651T230 534Q230 475 272 436T379 397Q436 397 483 405T587 427Q657 445 692 445Q721 445 735 436ZM362 -7T423 38T524 165T569 355Q497 345
453 340T365 335Q321 335 285 345Q165 234 165 128Q165 63 197 28T294 -7Q362 -7 423 38Z" />
<glyph unicode="&apos;" glyph-name="quotesingle" horiz-adv-x="228" d="M107 446T99 459T90 496Q90 516 96 537T114 595Q127 631 134 659T142 716Q142 739 135 759Q169 780 205 780Q241 780 241 730Q241 710 235 688T217 633Q203 590 196 564T189 510Q189 487
196 467Q163 446 127 446Q107 446 99 459Z" />
<glyph unicode="(" glyph-name="parenleft" horiz-adv-x="415" d="M115 322T150 465T239 705T341 801Q356 801 367 797T395 781Q343 732 301 643T234 444T209 231Q209 111 234 26T312 -123Q300 -138 280 -147T240 -156Q181 -156 148 -65T115 191Q115 322 150 465Z" />
<glyph unicode=")" glyph-name="parenright" horiz-adv-x="415" d="M300 323T265 180T176 -60T74 -156Q59 -156 48 -152T20 -136Q72 -87 114 2T181 201T206 414Q206 534 181 619T103 768Q115 783 135 792T175 801Q234 801 267 710T300 454Q300 323 265 180Z" />
<glyph unicode="*" glyph-name="asterisk" horiz-adv-x="592" d="M382 300T364 322T330 396T309 530L220 356Q175 363 144 382T112 417Q112 447 157 486T308 566L111 599Q108 617 108 639Q108 680 117 700T142 720Q224 720 340 579L307 776Q360 800 395 800Q421
800 429 792T437 759Q437 718 423 671T363 552L538 645Q563 620 578 591T594 544Q594 530 573 520T513 509L463 508Q406 508 344 523L484 384Q466 347 441 324T399 300Q382 300 364 322Z" />
<glyph unicode="+" glyph-name="plus" horiz-adv-x="700" d="M585 363T569 321H407L383 167Q337 151 313 151Q298 151 291 157T284 180Q284 191 287 206L305 321H197Q166 321 154 329T142 357Q142 379 158 424H322L346 578Q390 594 416 594Q431 594 437 588T444
565Q444 560 442 540L424 424H531Q562 424 573 417T585 389Q585 363 569 321Z" />
<glyph unicode="," glyph-name="comma" horiz-adv-x="334" d="M57 -143Q88 -127 108 -93T129 -31L83 30Q84 61 109 84T167 108Q199 108 218 86T238 33Q238 -38 193 -90T68 -172L57 -143Z" />
<glyph unicode="-" glyph-name="hyphen" horiz-adv-x="499" d="M69 243T69 288Q69 310 85 339Q108 335 130 335Q163 335 193 339T264 351Q305 359 333 363T391 367Q436 367 436 323Q436 298 420 272Q399 276 376 276Q343 276 316 272T240 259Q198 251 171 247T114
243Q69 243 69 288Z" />
<glyph unicode="." glyph-name="period" horiz-adv-x="284" d="M111 -25T93 -8T75 35Q75 65 95 86T147 108Q174 108 191 91T209 48Q209 19 188 -3T137 -25Q111 -25 93 -8Z" />
<glyph unicode="/" glyph-name="slash" horiz-adv-x="398" d="M131 225T259 787Q271 836 317 836Q340 836 360 823Q263 523 139 -31Q127 -80 81 -80Q57 -80 37 -67Q131 225 259 787Z" />
<glyph unicode="0" glyph-name="zero" horiz-adv-x="731" d="M260 -25T203 12T116 120T85 283Q85 406 132 500T266 647T463 700Q481 700 505 696T544 685Q551 677 554 637Q613 620 644 557T676 394Q676 277 631 182T509 31T337 -25Q260 -25 203 12ZM410 35T460
79T539 203T568 382Q568 503 523 562T384 621Q351 621 297 604Q246 529 220 443T193 270Q193 162 235 99T347 35Q410 35 460 79Z" />
<glyph unicode="1" glyph-name="one" horiz-adv-x="443" d="M160 162T178 280T235 557Q188 557 158 572T120 616Q195 639 265 676Q292 690 305 695T330 700Q363 700 363 662Q363 642 337 535Q304 396 284 287T264 79Q264 27 277 -8Q245 -25 218 -25Q190 -25 175
-1T160 70Q160 162 178 280Z" />
<glyph unicode="2" glyph-name="two" horiz-adv-x="642" d="M587 90T593 78T599 54Q599 18 563 -6T473 -30Q414 -30 355 -18T187 34Q158 3 136 -9T89 -22Q66 -22 50 -7T34 30Q34 69 66 93T148 118H159Q310 225 386 314T462 485Q462 556 431 590T336 625Q296 625
263 602T211 540T189 452Q155 457 137 476T118 527Q118 579 148 618T233 678T361 700Q423 700 470 677T544 612T571 515Q571 422 497 325T249 100L314 83Q373 67 409 59T473 51L573 110Q587 90 593 78Z" />
<glyph unicode="3" glyph-name="three" horiz-adv-x="661" d="M489 255T522 208T556 103Q556 28 510 -31T381 -123T196 -156Q115 -156 77 -135T38 -69Q38 -44 58 -27T110 -10Q139 -10 166 -32T211 -91Q276 -91 330 -66T416 1T448 95Q448 140 422 181T362 233Q294
185 249 185Q226 185 210 200T193 237Q193 270 221 290T294 311Q321 311 353 306Q402 337 432 385T462 485Q462 556 432 590T339 625Q298 625 263 602T207 540T183 452Q149 457 131 476T112 527Q112 579 143 618T232 678T364 700Q423 700 470 676T543 610T570 514Q570
453 534 393T430 282Q489 255 522 208Z" />
<glyph unicode="4" glyph-name="four" horiz-adv-x="666" d="M602 343T596 316T582 257Q560 174 547 102T533 -41Q533 -113 557 -149Q533 -161 517 -165T483 -170Q448 -170 429 -146T409 -77Q409 -42 422 16Q371 9 307 5T190 0Q115 0 82 20T49 85Q49 116 72 162T146
295Q193 376 219 426T266 530T286 630Q286 653 278 685Q296 694 309 697T340 700Q408 700 408 611Q408 523 335 393T111 85H437Q461 182 515 354Q549 377 577 377Q602 377 602 356Q602 343 596 316Z" />
<glyph unicode="5" glyph-name="five" horiz-adv-x="618" d="M345 566T308 570L266 320Q348 320 414 292T518 215T556 103Q556 29 509 -30T380 -122T197 -155Q115 -155 78 -134T40 -66Q40 -42 62 -26T115 -9Q144 -9 170 -30T215 -89Q277 -89 330 -65T415 2T446
93Q446 132 426 170T362 234T254 259Q230 259 206 254T177 249Q169 249 164 256T157 272L212 589Q165 610 165 648Q165 699 221 699Q247 699 269 681T305 633Q422 639 568 705Q575 698 579 683T583 651Q583 608 532 587T406 566Q345 566 308 570Z" />
<glyph unicode="6" glyph-name="six" horiz-adv-x="700" d="M229 -25T165 45T100 250Q100 394 172 527T348 744T530 827Q558 827 573 817T601 780Q528 751 465 711T334 592T218 390H223Q266 450 314 473T416 497Q483 497 531 467T604 383T629 261Q629 181 589
116T481 13T336 -25Q229 -25 165 45ZM384 39T425 65T493 143T521 268Q521 336 486 382T372 428Q336 428 298 403T234 330T208 215Q208 141 241 90T345 39Q384 39 425 65Z" />
<glyph unicode="7" glyph-name="seven" horiz-adv-x="555" d="M565 624T545 607T482 581Q400 441 345 285T289 -6Q289 -38 291 -57T304 -98Q272 -121 236 -121Q166 -121 166 -30Q166 78 227 238T392 572Q376 571 340 571Q200 571 140 590T80 653Q80 670 85 686T97
711Q169 681 257 662T421 638Q437 668 459 686T506 704Q565 704 565 651Q565 624 545 607Z" />
<glyph unicode="8" glyph-name="eight" horiz-adv-x="656" d="M510 348T553 299T596 184Q596 123 562 76T465 1T323 -26Q211 -26 146 22T80 157Q80 216 123 271T275 381Q206 430 167 478T128 588Q128 646 158 690T245 758T374 783Q472 783 529 735T587 605Q587
548 547 495T432 397Q510 348 553 299ZM314 705T276 677T238 598Q238 552 273 515T376 434Q443 476 467 516T492 605Q492 651 460 678T373 705Q314 705 276 677ZM397 52T442 85T487 178Q487 208 466 235T415 286T329 345Q258 307 217 258T175 156Q175 109 219 81T331
52Q397 52 442 85Z" />
<glyph unicode="9" glyph-name="nine" horiz-adv-x="679" d="M152 -152T137 -142T109 -105Q181 -76 245 -36T376 83T491 285H486Q444 225 396 202T293 179Q226 179 178 209T105 293T80 414Q80 494 120 559T228 662T373 700Q480 700 544 630T609 425Q609 281 537
148T362 -69T180 -152Q152 -152 137 -142ZM373 247T411 272T475 345T501 460Q501 534 468 585T364 636Q325 636 284 610T216 532T188 407Q188 339 223 293T337 247Q373 247 411 272Z" />
<glyph unicode=":" glyph-name="colon" horiz-adv-x="333" d="M111 -25T93 -8T75 35Q75 65 95 86T147 108Q174 108 191 91T209 48Q209 19 188 -3T137 -25Q111 -25 93 -8ZM166 426T148 443T130 486Q130 516 150 537T202 559Q229 559 246 542T264 499Q264 470 243
448T192 426Q166 426 148 443Z" />
<glyph unicode=";" glyph-name="semicolon" horiz-adv-x="333" d="M57 -143Q88 -127 108 -93T129 -31L83 30Q84 61 109 84T167 108Q199 108 218 86T238 33Q238 -38 193 -90T68 -172L57 -143ZM166 426T148 443T130 486Q130 516 150 537T202 559Q229 559 246 542T264
499Q264 470 243 448T192 426Q166 426 148 443Z" />
<glyph unicode="&lt;" glyph-name="less" horiz-adv-x="750" d="M586 212T595 204T604 186Q604 175 590 155T556 115L182 323Q160 336 151 344T142 363Q142 384 190 434L578 611Q603 622 616 622Q636 622 645 598T658 533L303 371L563 226Q586 212 595 204Z" />
<glyph unicode="=" glyph-name="equal" horiz-adv-x="700" d="M402 452T390 460T378 488Q378 510 394 555H767Q798 555 809 548T821 520Q821 494 805 452H433Q402 452 390 460ZM186 446T174 454T162 482Q162 504 178 549H551Q582 549 593 542T605 514Q605 488
589 446H217Q186 446 174 454Z" />
<glyph unicode="&gt;" glyph-name="greater" horiz-adv-x="751" d="M616 401T625 393T634 374Q634 353 586 303L198 126Q173 115 160 115Q140 115 131 139T118 204L473 366L213 511Q190 525 181 533T172 551Q172 562 186 582T220 622L594 414Q616 401 625 393Z" />
<glyph unicode="?" glyph-name="question" horiz-adv-x="601" d="M257 293T309 326T394 414T427 537Q427 604 392 644T295 684Q232 684 180 638T109 506Q85 506 73 522T60 568Q60 605 84 653T164 738T313 775Q430 775 485 708T541 542Q541 456 499 386T391 275T262
235Q237 235 219 250T201 289Q257 293 309 326ZM173 -25T155 -8T137 35Q137 65 157 86T209 108Q236 108 253 91T271 48Q271 19 250 -3T199 -25Q173 -25 155 -8Z" />
<glyph unicode="@" glyph-name="at" horiz-adv-x="1083" d="M656 -132T753 -92T926 28Q939 -1 939 -27Q939 -81 879 -129T720 -206T508 -235Q374 -235 275 -182T123 -32T69 197Q69 364 145 502T355 720T650 800Q783 800 871 756T1002 640T1044 482Q1044 387 1000
296T875 148T693 90Q641 90 641 150Q641 169 645 190L637 193Q609 144 568 117T480 90Q423 90 389 133T354 248Q354 326 391 390T492 490T631 527Q665 527 699 521Q705 507 706 498Q723 510 743 510Q761 510 772 501T783 476Q783 455 775 419T764 374Q748 309 739
257T729 151Q800 169 855 220T940 338T971 474Q971 546 938 605T832 701T645 738Q510 738 398 672T221 492T156 243Q156 61 255 -35T543 -132Q656 -132 753 -92ZM588 162T631 242T694 487Q572 483 509 420T445 257Q445 212 465 187T520 162Q588 162 631 242Z" />
<glyph unicode="A" glyph-name="A" horiz-adv-x="674" d="M546 618T545 589L544 470Q544 296 559 169T619 -1Q591 -23 554 -23Q519 -23 498 -4T464 63T447 194H176Q153 129 153 83Q153 29 166 -1Q151 -13 136 -18T98 -23Q75 -23 63 -3T50 57Q50 139 129 302T355
676L325 707Q348 721 367 727T411 734Q447 734 454 715Q473 734 498 734Q522 734 534 718T546 665Q546 618 545 589ZM445 253Q443 290 443 378V644H431Q266 401 200 253H445Z" />
<glyph unicode="B" glyph-name="B" horiz-adv-x="790" d="M592 353T637 307T682 190Q682 128 645 79T541 2T393 -26Q268 -26 195 4T122 85Q122 146 140 271T201 642L175 692Q237 726 272 726Q312 726 310 677Q413 727 506 727Q586 727 632 686T679 574Q679 511
636 457T512 368Q592 353 637 307ZM273 472T255 363Q352 369 423 395T532 465T571 563Q571 653 466 653Q384 653 303 617Q273 472 255 363ZM470 38T522 78T575 183Q575 249 530 285T402 322Q329 322 247 303Q230 187 222 66Q256 53 299 46T383 38Q470 38 522 78Z"
/>
<glyph unicode="C" glyph-name="C" horiz-adv-x="631" d="M195 -25T126 49T56 256Q56 387 113 494T267 664T478 726Q544 726 581 706T619 649Q619 618 594 597T530 575Q488 575 455 592T399 653Q330 623 277 564T193 423T162 247Q162 148 201 92T311 36Q391 36
441 92T497 234Q567 234 567 171Q567 119 533 74T442 2T318 -25Q195 -25 126 49Z" />
<glyph unicode="D" glyph-name="D" horiz-adv-x="829" d="M561 726T624 687T722 575T757 404Q757 278 704 181T554 29T334 -25Q225 -25 174 1T123 85Q123 137 141 267T201 642L175 692Q240 726 270 726Q307 726 307 683V679Q343 701 382 713T476 726Q561 726 624
687ZM435 38T504 82T611 206T650 387Q650 520 598 589T445 659Q395 659 364 651T299 625Q296 607 292 577T280 501Q222 130 222 55Q283 38 348 38Q435 38 504 82Z" />
<glyph unicode="E" glyph-name="E" horiz-adv-x="568" d="M381 604T300 624L258 365Q303 360 374 360L443 377V358Q443 324 421 306T357 288Q306 288 249 302Q221 125 221 74Q221 68 223 60H432Q486 65 531 82Q539 55 539 44Q539 7 503 -9T387 -25Q315 -25 249
-5Q210 -26 178 -26Q148 -26 134 -10T120 42Q120 102 137 226T201 642L175 692Q232 726 272 726Q308 726 308 683V682Q374 684 424 691T554 714L587 720Q592 704 592 683Q592 641 561 623T484 604Q381 604 300 624Z" />
<glyph unicode="F" glyph-name="F" horiz-adv-x="508" d="M582 704T582 683Q582 641 551 623T474 604Q375 604 300 621L258 365Q303 360 374 360L443 377V358Q443 324 421 306T357 288Q306 288 249 302Q221 125 221 74Q221 23 243 -5Q207 -26 178 -26Q148 -26
134 -10T120 42Q120 102 137 226T201 642L175 692Q232 726 272 726Q308 726 308 683Q370 685 420 692T541 713L577 720Q582 704 582 683Z" />
<glyph unicode="G" glyph-name="G" horiz-adv-x="725" d="M543 -156T557 -167Q532 -185 500 -185Q472 -185 459 -174T445 -134Q445 -89 470 19Q407 -30 328 -30Q201 -30 129 45T56 256Q56 387 115 494T276 664T495 726Q564 726 602 706T640 649Q640 617 614 596T548
575Q454 575 413 653Q341 623 284 564T195 423T162 247Q162 148 204 92T320 36Q384 36 434 69T512 162T545 294L483 332Q504 353 535 365T591 377Q619 377 630 368T642 333Q642 326 624 265Q588 135 566 38T543 -128Q543 -156 557 -167Z" />
<glyph unicode="H" glyph-name="H" horiz-adv-x="814" d="M753 674T728 517Q666 138 666 74Q666 23 688 -5Q654 -26 623 -26Q593 -26 579 -10T565 42Q565 112 591 297H248Q221 119 221 74Q221 23 243 -5Q209 -26 178 -26Q148 -26 134 -10T120 42Q120 104 137 230T201
642L175 692Q232 726 272 726Q308 726 308 683Q308 668 282 514Q265 409 257 356H600L646 642L620 692Q677 726 717 726Q753 726 753 683Q753 674 728 517Z" />
<glyph unicode="I" glyph-name="I" horiz-adv-x="369" d="M120 105T137 231T201 642L175 692Q232 726 272 726Q308 726 308 683Q308 674 283 517Q221 140 221 75Q221 24 243 -4Q209 -25 178 -25Q148 -25 134 -9T120 43Q120 105 137 231Z" />
<glyph unicode="J" glyph-name="J" horiz-adv-x="523" d="M514 622T472 603L424 269Q409 167 378 103T289 7T139 -25Q90 -25 53 -4T15 58Q15 81 31 97T80 114Q118 114 139 90T177 29Q224 34 253 57T300 131T330 269L373 585H346Q208 585 149 605T90 673Q90 690
94 707T105 732Q166 701 241 680T378 656Q386 689 406 707T456 726Q482 726 498 711T514 670Q514 622 472 603Z" />
<glyph unicode="K" glyph-name="K" horiz-adv-x="676" d="M481 266T543 154T649 2Q640 -9 618 -17T579 -25Q552 -25 534 -12T496 36T440 148L349 342L244 268Q221 114 221 74Q221 23 243 -5Q208 -26 178 -26Q148 -26 134 -10T120 42Q120 103 137 230T201 642L175
692Q237 726 272 726Q308 726 308 683Q308 667 280 499L254 337L287 362Q394 442 451 495T533 590T558 678Q558 691 550 709Q560 716 573 720T601 725Q627 725 644 707T662 662Q662 606 609 546T428 397Q481 266 543 154Z" />
<glyph unicode="L" glyph-name="L" horiz-adv-x="540" d="M500 58T500 44Q500 7 468 -9T363 -25Q302 -25 241 -9Q210 -26 178 -26Q148 -26 134 -10T120 42Q120 104 137 230T201 642L175 692Q232 726 272 726Q308 726 308 683Q308 674 283 517Q221 138 221 74Q221
68 223 60H393Q447 65 492 82Q500 58 500 44Z" />
<glyph unicode="M" glyph-name="M" horiz-adv-x="1031" d="M152 -26T138 -13T123 32Q123 92 138 215T201 642L175 692Q203 710 227 718T270 726Q321 726 347 697T393 593T457 321Q464 289 474 242T498 131H509Q544 280 618 418T780 642T944 728Q952 728 959 720T966
692Q966 676 940 513Q881 128 881 62Q881 19 904 -7Q869 -28 838 -28Q810 -28 796 -15T782 30Q782 92 796 210T853 594H848Q777 537 720 439T628 240T581 72Q564 57 544 49T505 41Q462 41 441 65T399 167T325 474Q324 479 297 594H292Q285 539 278 493T266 413Q245
269 234 184T222 64Q222 19 245 -5Q213 -26 181 -26Q152 -26 138 -13Z" />
<glyph unicode="N" glyph-name="N" horiz-adv-x="839" d="M778 672T753 517Q691 138 691 73Q691 22 713 -6Q677 -27 648 -27H645Q582 -26 544 14T456 182T305 624H300L287 543Q221 139 221 74Q221 23 243 -5Q209 -26 178 -26Q148 -26 134 -10T120 42Q120 104 137
230T201 642L175 692Q232 726 271 726H272V726H273Q322 725 356 682T439 512T584 84H591Q596 150 614 276T671 642L640 692Q700 726 742 726Q778 726 778 683Q778 672 753 517Z" />
<glyph unicode="O" glyph-name="O" horiz-adv-x="737" d="M567 371T544 410T520 501Q520 548 545 579T610 610Q657 610 683 566T710 445Q710 315 661 208T527 38T334 -25Q252 -25 190 12T94 119T60 280Q60 414 111 515T250 670T440 725Q531 725 531 674Q531 659
524 642Q511 645 494 647T465 650Q383 650 315 605T207 478T167 286Q167 163 217 100T355 36Q412 36 470 75T572 185T626 346Q567 371 544 410Z" />
<glyph unicode="P" glyph-name="P" horiz-adv-x="687" d="M529 724T576 693T647 611T672 500Q672 419 641 353T544 246T384 205Q304 205 239 236Q221 117 221 74Q221 23 243 -5Q209 -26 178 -26Q148 -26 134 -10T120 42Q120 104 137 230T201 642L175 692Q232 726
272 726Q308 726 308 683Q308 679 307 676Q340 699 377 711T464 724Q529 724 576 693ZM414 270T465 298T542 375T569 486Q569 561 532 608T408 656Q357 656 300 625L287 541Q259 366 247 290Q290 270 345 270Q414 270 465 298Z" />
<glyph unicode="Q" glyph-name="Q" horiz-adv-x="755" d="M575 -45T652 -22Q652 -29 653 -38T654 -58Q654 -114 622 -143T536 -172Q484 -172 433 -154T345 -113T257 -58Q244 -82 220 -98T163 -115Q139 -115 124 -101T109 -62Q109 -32 131 -16T188 0Q197 0 217
-2Q143 31 102 104T60 280Q60 414 111 515T250 670T440 725Q531 725 531 674Q531 659 524 642Q511 645 494 647T465 650Q383 650 315 605T207 478T167 286Q167 163 217 100T355 36Q412 36 470 75T572 185T626 346Q567 371 544 410T520 501Q520 548 545 579T610
610Q657 610 683 566T710 445Q710 315 662 208T528 38T335 -25Q381 -35 417 -40T491 -45Q575 -45 652 -22Z" />
<glyph unicode="R" glyph-name="R" horiz-adv-x="720" d="M552 180T597 107T675 2Q666 -9 644 -17T605 -25Q578 -25 560 -12T522 36T466 148L417 251Q406 250 384 250Q341 250 308 257T244 283Q221 127 221 74Q221 23 243 -5Q209 -26 178 -26Q148 -26 134 -10T120
42Q120 104 137 230T201 642L175 692Q232 726 272 726Q308 726 308 683Q308 679 307 676Q340 699 377 711T464 724Q529 724 576 696T647 620T672 515Q672 440 630 372T508 272Q552 180 597 107ZM414 315T465 339T542 406T569 501Q569 570 532 613T408 656Q357 656
300 625L288 553Q272 462 252 333Q294 315 345 315Q414 315 465 339Z" />
<glyph unicode="S" glyph-name="S" horiz-adv-x="713" d="M216 -25T148 7T80 100Q80 121 91 138T122 165Q150 104 202 72T316 39Q409 39 464 71T520 164Q520 194 499 216T445 255T355 292Q282 320 237 343T159 406T126 505Q126 565 169 615T291 696T476 726Q563
726 620 701T678 636Q678 596 653 576T583 555Q496 555 467 663Q356 650 295 610T233 516Q233 488 254 468T306 433T393 397Q468 368 514 345T594 282T627 184Q627 130 594 82T493 5T321 -25Q216 -25 148 7Z" />
<glyph unicode="T" glyph-name="T" horiz-adv-x="530" d="M587 700T587 675Q587 644 564 628T500 611Q465 611 427 616T378 622L357 490Q329 315 314 207T298 64Q298 20 320 -5Q288 -26 255 -26Q226 -26 212 -13T197 32Q197 85 216 225T278 633Q269 634 249 634L85
613Q77 629 77 651Q77 690 98 702T165 715Q205 715 289 703Q371 691 416 691L580 713Q587 700 587 675Z" />
<glyph unicode="U" glyph-name="U" horiz-adv-x="794" d="M561 -26T561 76Q561 127 580 201L575 202Q525 107 446 43T269 -22Q189 -22 155 28T121 145Q121 197 138 306T201 642L175 692Q195 706 222 716T270 727Q287 727 297 716T307 683Q307 675 280 536Q217
226 217 167Q217 107 237 78T312 49Q356 49 409 83T512 180T592 321L591 350Q588 413 588 429Q588 509 594 570T626 679T706 727Q732 727 760 705Q725 582 694 397T663 64Q663 22 678 -5Q647 -26 620 -26Q561 -26 561 76Z" />
<glyph unicode="V" glyph-name="V" horiz-adv-x="589" d="M94 298Q95 326 95 381Q95 497 80 576T20 704Q49 726 85 726Q132 726 156 689T188 568T197 326V59H209Q357 277 422 404T487 599Q487 633 482 658T463 704Q492 718 506 722T537 726Q560 726 574 703T589
640Q589 561 510 400T285 27L306 -1Q294 -13 265 -21T209 -30Q162 -30 138 -9T103 64T93 214L94 298Z" />
<glyph unicode="W" glyph-name="W" horiz-adv-x="960" d="M959 562T885 402T673 27L690 -1Q678 -13 650 -21T593 -30Q540 -30 522 5T500 108L484 339L455 288Q380 154 328 85T239 -7T161 -30Q128 -30 117 0T105 86L106 188Q107 221 107 286Q107 438 90 540T20
704Q51 726 89 726Q140 726 164 689T197 569T206 326V107Q206 87 206 76T206 59H219Q388 269 474 478L461 661Q468 674 488 682T537 690Q566 690 584 669T603 611Q603 583 595 556T568 490L581 59H593Q733 277 794 404T856 599Q856 663 829 704Q859 719 872 722T905
726Q929 726 944 703T959 640Q959 562 885 402Z" />
<glyph unicode="X" glyph-name="X" horiz-adv-x="761" d="M594 101T627 72T708 25Q694 0 669 -15T619 -30Q576 -30 544 0T469 108L368 295Q257 214 206 149T154 35Q154 14 164 -8Q159 -15 141 -22T103 -30Q76 -30 61 -11T46 39Q46 72 77 113T204 233L341 345L244
525Q206 594 172 624T90 671Q105 696 130 711T181 727Q224 727 257 696T332 588L428 408Q534 487 583 550T633 661Q633 686 624 704Q628 711 647 718T685 726Q711 726 726 707T741 656Q741 625 710 583T585 464L455 358L556 171Q594 101 627 72Z" />
<glyph unicode="Y" glyph-name="Y" horiz-adv-x="781" d="M700 726T715 702T730 639Q730 432 649 228T420 -109T81 -242Q17 -242 -14 -219T-46 -157Q-46 -135 -32 -105Q-5 -133 25 -149T115 -165Q172 -165 248 -132T397 -30Q307 -26 263 29T208 163T193 371Q190
461 186 517T165 623T118 704Q147 726 180 726Q236 726 262 682T294 574T301 397Q302 279 309 206T345 79T438 13Q524 112 575 257T627 599Q627 633 622 658T603 704Q632 718 646 722T677 726Q700 726 715 702Z" />
<glyph unicode="Z" glyph-name="Z" horiz-adv-x="638" d="M623 647T603 628T537 599L218 102Q257 93 299 81Q357 65 394 57T460 49L558 106Q572 88 577 76T583 52Q583 17 548 -6T460 -30Q402 -30 345 -18T179 33Q151 3 130 -9T84 -22Q61 -22 46 -8T30 29Q30 63
57 86T127 114L428 586Q409 585 365 585Q227 585 168 605T108 673Q108 690 113 707T126 732Q203 700 294 680T463 656Q476 685 504 705T558 726Q623 726 623 676Q623 647 603 628Z" />
<glyph unicode="[" glyph-name="bracketleft" horiz-adv-x="382" d="M147 -156T127 -142T95 -91T84 15Q84 140 102 272T162 584Q182 672 203 718T253 782T330 800Q374 800 403 785T432 740Q432 734 430 712Q420 716 381 719T318 722Q261 579 225 351T188 -81Q210
-81 245 -78T288 -71Q293 -85 293 -102Q293 -127 263 -141T180 -156Q147 -156 127 -142Z" />
<glyph unicode="\" glyph-name="backslash" horiz-adv-x="680" d="M481 -80T457 -80Q411 -80 399 -31Q275 523 178 823Q198 836 221 836Q267 836 279 787Q407 225 501 -67Q481 -80 457 -80Z" />
<glyph unicode="]" glyph-name="bracketright" horiz-adv-x="382" d="M246 800T266 786T298 735T309 629Q309 504 291 372T231 60Q211 -28 190 -74T140 -138T63 -156Q19 -156 -10 -141T-39 -96Q-39 -90 -37 -68Q-27 -72 12 -75T75 -78Q132 65 168 293T205 725Q183
725 148 722T105 715Q100 729 100 746Q100 771 130 785T213 800Q246 800 266 786Z" />
<glyph unicode="^" glyph-name="asciicircum" horiz-adv-x="689" d="M632 499Q604 476 581 464T549 451Q539 451 533 459T518 492L419 771L233 492Q206 451 189 451Q181 451 163 463T123 499L391 898Q416 938 434 938H460Q469 938 475 930T490 898L632 499Z" />
<glyph unicode="_" glyph-name="underscore" horiz-adv-x="654" d="M6 -164T-7 -156T-20 -124Q-20 -98 -4 -56Q10 -63 39 -68T107 -73Q146 -73 256 -60Q333 -51 386 -46T489 -41Q523 -41 536 -50T549 -82Q549 -107 533 -150Q520 -143 491 -138T422 -133Q383 -133
273 -146Q261 -147 184 -155T40 -164Q6 -164 -7 -156Z" />
<glyph unicode="`" glyph-name="grave" horiz-adv-x="600" d="M289 676T266 685T238 696Q183 717 140 729T51 742Q42 759 42 791Q42 846 93 846Q115 846 134 836T186 803Q222 777 254 758T332 720Q323 676 300 676Q289 676 266 685Z" />
<glyph unicode="a" glyph-name="a" horiz-adv-x="748" d="M658 514T652 484T630 386Q605 280 591 202T577 40Q577 12 591 -2Q568 -25 540 -25Q511 -25 495 -6T479 50Q479 76 487 116L477 121Q440 51 385 13T266 -25Q212 -25 171 4T108 86T85 210Q85 317 136 406T274
548T465 600Q512 600 563 592Q573 576 574 564Q591 575 609 575Q632 575 645 566T658 538Q658 514 652 484ZM498 50T562 554Q444 552 360 506T233 382T189 204Q189 131 219 91T304 50Q498 50 562 554Z" />
<glyph unicode="b" glyph-name="b" horiz-adv-x="737" d="M528 600T569 573T632 496T655 380Q655 269 595 176T431 29T205 -25Q174 -25 152 -18T115 14T99 90Q99 163 129 330T206 696L165 739Q184 755 211 764T262 774Q286 774 296 763T306 723Q306 708 300 677T287
620T277 582Q256 507 243 445L253 440Q293 517 350 558T474 600Q528 600 569 573ZM283 33T368 78T502 200T551 371Q551 445 521 485T436 526Q370 526 311 463T215 287T178 30Q283 33 368 78Z" />
<glyph unicode="c" glyph-name="c" horiz-adv-x="616" d="M205 -25T146 38T86 213Q86 321 134 409T263 549T442 600Q499 600 531 582T564 533Q564 506 542 488T488 469Q411 469 377 536Q295 499 243 410T191 206Q191 125 221 79T306 33Q371 33 412 79T459 196Q530
196 530 141Q530 97 500 59T420 -2T310 -25Q205 -25 146 38Z" />
<glyph unicode="d" glyph-name="d" horiz-adv-x="746" d="M576 35T581 20T594 -2Q567 -25 531 -25Q508 -25 495 -9T481 38Q481 53 488 116L476 121Q439 51 384 13T265 -25Q211 -25 170 4T107 86T84 210Q84 309 135 393T273 526T464 575Q513 575 557 568L580 697L539
740Q558 756 585 765T636 775Q660 775 670 764T680 724Q680 706 672 666T652 577Q617 420 597 298T576 47Q576 35 581 20ZM529 404T551 529Q439 525 357 483T232 369T188 204Q188 131 218 91T303 50Q362 50 418 103T506 247V245Q529 404 551 529Z" />
<glyph unicode="e" glyph-name="e" horiz-adv-x="647" d="M602 355T496 297T192 233V211Q192 128 223 81T310 33Q378 33 421 75T469 187Q540 187 540 133Q540 93 509 57T424 -2T303 -25Q201 -25 144 39T87 218Q87 326 133 413T260 550T441 600Q517 600 559 563T602
458Q602 355 496 297ZM373 551T325 517T243 421T197 284Q345 285 427 333T510 467Q510 505 488 528T428 551Q373 551 325 517Z" />
<glyph unicode="f" glyph-name="f" horiz-adv-x="432" d="M368 480T400 491Q407 475 407 461Q407 431 378 417T304 400Q263 247 236 93T209 -135Q209 -166 228 -178Q193 -200 167 -200Q141 -200 127 -182T113 -132Q113 -83 134 28T207 391Q149 382 112 370Q105
384 105 400Q105 431 137 445T216 460Q208 556 208 615Q208 708 244 747T336 787Q372 787 395 768T419 719Q419 690 400 673T349 655Q302 655 270 684L262 677L302 468Q368 480 400 491Z" />
<glyph unicode="g" glyph-name="g" horiz-adv-x="665" d="M602 578T602 549Q602 327 558 152T414 -129T156 -234Q90 -234 47 -212T4 -154Q4 -137 15 -118T47 -84Q69 -125 101 -144T183 -164Q232 -164 288 -134T396 -35T482 146H461Q425 79 365 41T240 3Q185 3
143 32T78 113T54 235Q54 337 98 420T227 551T424 600Q480 600 522 592Q531 578 534 563Q548 573 554 575T568 578Q602 578 602 549ZM522 424L523 476Q523 500 521 554H520L522 424ZM329 75T384 118T480 269T520 554Q408 552 326 512T201 401T158 239Q158 161 189
118T278 75Q329 75 384 118Z" />
<glyph unicode="h" glyph-name="h" horiz-adv-x="730" d="M88 -25T88 33Q88 66 105 162T159 450Q169 501 181 563T206 697L165 740Q184 756 211 765T262 775Q286 775 296 764T306 724Q306 706 300 678T280 591Q253 481 240 418L250 413Q304 511 376 555T519 600Q585
600 617 567T649 464Q649 423 640 379T614 267Q594 184 585 137T576 40Q576 11 587 -2Q563 -25 535 -25Q506 -25 493 -11T480 33Q480 71 488 117T513 249Q528 320 536 365T544 442Q544 533 476 533Q410 533 342 469T230 292T185 40Q185 9 195 -2Q172 -25 144 -25Q88
-25 88 33Z" />
<glyph unicode="i" glyph-name="i" horiz-adv-x="388" d="M236 693T220 706T203 743Q203 769 224 789T281 810Q310 810 326 796T342 760Q342 732 321 713T264 693Q236 693 220 706ZM141 -25T127 -12T113 33Q113 75 132 183T204 525L163 566Q182 582 208 591T255
600Q282 600 293 589T305 550Q305 545 288 477Q255 344 233 231T210 40Q210 9 224 -3Q199 -25 168 -25Q141 -25 127 -12Z" />
<glyph unicode="j" glyph-name="j" horiz-adv-x="397" d="M232 703T216 714T199 744Q199 765 220 782T277 800Q304 800 321 789T338 759Q338 735 317 719T260 703Q232 703 216 714ZM19 -210T3 -193T-13 -149Q-13 -121 6 -105T58 -89Q78 -89 93 -97T124 -117L133
-102Q111 -79 111 -21Q111 6 121 66T150 229Q190 453 201 525L160 566Q178 582 204 591T252 600Q279 600 290 589T301 550Q301 532 229 172L183 -58Q167 -135 134 -172T49 -210Q19 -210 3 -193Z" />
<glyph unicode="k" glyph-name="k" horiz-adv-x="626" d="M514 95T539 69T612 24Q598 0 577 -12T534 -25Q499 -25 474 -4T416 75L316 255L209 183Q202 120 202 47Q202 35 207 20T220 -2Q193 -25 157 -25Q134 -25 121 -9T107 38Q107 85 141 307T206 697L165 740Q184
756 211 765T262 775Q286 775 296 764T306 724Q306 706 298 666T278 577Q255 479 240 400T214 234L337 331Q488 455 488 551Q488 561 484 581Q493 590 507 595T535 600Q560 600 574 584T589 540Q589 437 394 307L483 146Q514 95 539 69Z" />
<glyph unicode="l" glyph-name="l" horiz-adv-x="372" d="M134 -25T121 -9T107 38Q107 85 141 307T206 697L165 740Q184 756 211 765T262 775Q286 775 296 764T306 724Q306 705 281 588Q244 403 223 275T202 47Q202 35 207 20T220 -2Q193 -25 157 -25Q134 -25 121 -9Z" />
<glyph unicode="m" glyph-name="m" horiz-adv-x="1114" d="M116 -25T116 33Q116 85 146 234T209 509L166 552Q186 572 215 584T264 596Q291 596 300 586T310 547Q310 520 301 486T277 422L287 417Q337 514 396 557T529 600Q594 600 621 566T649 470Q649 449 643
422L653 417Q705 514 766 557T903 600Q969 600 1001 567T1033 464Q1033 424 1025 381T999 267Q980 193 971 142T961 40Q961 9 971 -2Q948 -25 920 -25Q864 -25 864 38Q864 73 872 119T897 247Q914 325 921 368T929 443Q929 533 860 533Q799 533 735 469T629 292T587
40Q587 9 597 -2Q574 -25 546 -25Q490 -25 490 38Q490 73 498 119T523 247Q540 325 547 368T555 443Q555 533 486 533Q425 533 361 469T255 292T213 40Q213 9 223 -2Q200 -25 172 -25Q116 -25 116 33Z" />
<glyph unicode="n" glyph-name="n" horiz-adv-x="758" d="M116 -25T116 33Q116 78 144 221T209 509L166 552Q186 572 215 584T264 596Q291 596 300 586T310 547Q310 520 301 486T277 422L287 417Q389 600 547 600Q613 600 645 567T677 464Q677 423 668 379T642
267Q622 184 613 137T604 40Q604 11 615 -2Q592 -25 563 -25Q535 -25 522 -11T508 33Q508 71 516 117T541 249Q556 320 564 365T572 442Q572 533 504 533Q425 533 358 460T252 272T213 40Q213 9 223 -2Q200 -25 172 -25Q116 -25 116 33Z" />
<glyph unicode="o" glyph-name="o" horiz-adv-x="727" d="M252 -25T200 7T119 99T90 238Q90 344 133 426T255 554T433 600Q478 600 511 592Q523 577 525 554Q420 554 346 513T233 399T195 230Q195 139 229 86T327 33Q391 33 443 69T528 172T570 326Q528 354 510
384T491 456Q491 489 510 510T559 532Q602 532 625 492T649 380Q649 269 606 176T487 29T322 -25Q252 -25 200 7Z" />
<glyph unicode="p" glyph-name="p" horiz-adv-x="771" d="M560 600T601 571T664 489T687 365Q687 266 636 182T498 49T308 0Q257 0 212 8Q205 -55 205 -129Q205 -143 210 -158T223 -177Q198 -200 160 -200Q136 -200 123 -182T110 -127Q110 -88 139 102T209 522L168
565Q186 580 214 590T265 600Q289 600 299 589T309 549Q309 525 290 439L295 434Q332 513 387 556T506 600Q560 600 601 571ZM327 49T410 90T539 203T584 371Q584 444 554 485T468 526Q387 526 328 420T222 100L216 46Q327 49 410 90Z" />
<glyph unicode="q" glyph-name="q" horiz-adv-x="737" d="M658 510T644 433T599 210Q589 158 569 57T534 -121L575 -164Q556 -180 529 -189T478 -199Q454 -199 444 -188T434 -148Q434 -131 441 -92T460 -7Q484 101 487 116L477 121Q440 51 385 13T266 -25Q212
-25 171 4T108 86T85 210Q85 317 136 406T274 548T465 600Q517 600 563 592Q573 578 574 564Q590 575 609 575Q632 575 645 566T658 538Q658 510 644 433ZM370 50T429 114T525 293T562 554Q444 552 360 506T233 382T189 204Q189 131 219 91T304 50Q370 50 429 114Z"
/>
<glyph unicode="r" glyph-name="r" horiz-adv-x="479" d="M143 -25T129 -8T115 48Q115 90 144 237T208 509L166 552Q218 596 254 596Q278 596 289 582T300 547Q300 515 289 477T257 388L267 383Q315 493 367 547T466 601Q496 601 510 590T524 552Q524 524 500
508T439 491Q385 491 332 425T246 253T212 40Q212 9 222 -2Q199 -25 171 -25Q143 -25 129 -8Z" />
<glyph unicode="s" glyph-name="s" horiz-adv-x="611" d="M173 -25T116 0T59 72Q59 90 71 105T103 131Q127 81 168 55T258 28Q340 28 386 58T432 145Q432 179 398 199T294 244Q230 267 191 285T125 336T97 416Q97 467 133 509T236 575T390 600Q464 600 513 579T562
523Q562 489 540 472T481 454Q407 454 382 546Q291 536 240 503T189 426Q189 404 206 388T249 360T324 331Q386 310 426 291T495 239T523 160Q523 111 494 69T407 1T263 -25Q173 -25 116 0Z" />
<glyph unicode="t" glyph-name="t" horiz-adv-x="442" d="M465 535T465 499Q465 474 449 457Q421 465 363 465Q353 465 331 463Q292 334 271 238T251 48L277 4Q262 -10 244 -17T208 -25Q183 -25 168 -9T153 50Q153 99 165 158T204 324Q226 408 235 448Q189 442
164 442Q123 442 123 477Q123 503 139 521Q167 513 229 513Q242 513 248 514Q255 560 255 585Q255 611 246 667Q258 681 281 689T326 698Q351 698 363 686T375 647Q375 614 351 528Q393 535 425 535Q465 535 465 499Z" />
<glyph unicode="u" glyph-name="u" horiz-adv-x="737" d="M557 9T571 -3Q548 -25 515 -25Q487 -25 474 -4T460 63V73L450 78Q420 33 367 4T266 -25Q184 -25 145 14T105 137Q105 179 112 227T133 340Q146 404 151 439T157 505Q157 540 148 578Q163 588 179 594T206
600Q233 600 245 585T257 537Q257 512 249 467T225 345Q194 200 194 162Q194 101 220 69T297 37Q349 37 394 70T472 165Q490 268 547 512L510 566Q517 578 547 589T602 600Q629 600 640 589T652 550Q652 545 635 477Q602 344 580 231T557 40Q557 9 571 -3Z" />
<glyph unicode="v" glyph-name="v" horiz-adv-x="645" d="M149 314Q149 410 136 475T85 580Q111 600 144 600Q186 600 206 570T234 472T242 275Q242 119 242 88T243 52H253Q380 228 436 333T492 494Q492 546 471 580Q497 593 509 596T538 600Q559 600 572 581T585
528Q585 465 519 336T329 29L343 5Q331 -8 305 -16T252 -25Q210 -25 188 -7T157 54T148 178L149 314Z" />
<glyph unicode="w" glyph-name="w" horiz-adv-x="904" d="M844 466T787 337T623 29L637 5Q624 -8 599 -16T549 -25Q504 -25 488 6T468 96L456 265L438 232Q379 125 339 70T269 -5T205 -25Q182 -25 171 -16T156 14T151 79L152 245Q152 367 139 449T85 580Q111 600
144 600Q186 600 206 570T234 472T242 275V95Q242 60 241 52H251Q378 217 448 390L437 546Q437 546 437 546T438 547Q436 549 436 550Q448 557 450 558Q463 566 481 569Q487 570 500 570Q525 570 540 552T555 503Q555 459 526 398L537 52H547Q655 228 703 333T751
494Q751 546 730 580Q754 593 767 596T797 600Q818 600 831 581T844 528Q844 466 787 337Z" />
<glyph unicode="x" glyph-name="x" horiz-adv-x="640" d="M506 89T534 64T602 24Q589 2 567 -11T522 -25Q485 -25 458 1T398 89L315 240Q143 116 143 31Q143 13 151 -5Q145 -12 129 -18T95 -25Q72 -25 59 -9T45 35Q45 64 72 99T180 198L289 286L211 429Q177 486
150 511T82 550Q95 573 117 586T163 600Q200 600 228 575T287 485L367 340Q532 462 532 544Q532 564 524 580Q530 587 546 594T580 601Q603 601 616 585T630 540Q630 512 602 476T495 378L392 294L473 146Q506 89 534 64Z" />
<glyph unicode="y" glyph-name="y" horiz-adv-x="654" d="M626 600T626 547Q626 375 555 201T353 -86T56 -200Q-1 -200 -29 -180T-57 -127Q-57 -108 -44 -80Q-22 -103 5 -117T85 -131Q134 -131 199 -105T325 -25Q248 -21 211 25T164 135T151 304Q149 379 145 425T127
513T85 580Q111 600 141 600Q191 600 214 564T242 474T249 328Q250 232 256 174T287 70T365 15Q439 98 484 224T529 525Q529 566 527 580Q551 593 561 596T587 600Q626 600 626 547Z" />
<glyph unicode="z" glyph-name="z" horiz-adv-x="599" d="M554 502T481 481L223 99L280 82Q333 66 359 60T407 53L498 106Q519 76 519 52Q519 19 487 -3T407 -25Q350 -25 301 -13T178 25Q153 2 133 -8T89 -18Q66 -18 53 -3T40 33Q40 62 65 85T137 112L374 466Q358
465 322 465Q244 466 197 475T128 504T105 559Q105 572 116 605Q181 578 268 555T402 530Q415 562 440 581T494 600Q521 600 537 588T554 551Q554 502 481 481Z" />
<glyph unicode="{" glyph-name="braceleft" horiz-adv-x="336" d="M89 307T77 317T64 344Q64 358 75 368T102 378Q119 378 132 367Q136 408 138 473T141 591Q141 683 160 728T209 787T280 800Q325 800 351 785T378 740Q378 725 377 712Q367 716 329 719T268 722Q254
596 238 523T202 410T152 339Q171 317 181 288T192 225Q192 181 141 -81Q163 -81 199 -78T243 -71Q248 -89 248 -102Q248 -127 218 -141T129 -156Q40 -156 40 -46Q40 25 61 122T124 310Q115 307 105 307Q89 307 77 317Z" />
<glyph unicode="|" glyph-name="bar" horiz-adv-x="437" d="M281 797L272 858Q285 869 304 874T339 880Q362 880 372 868T382 826L176 -97L185 -158Q172 -169 153 -174T118 -180Q95 -180 85 -168T75 -126L281 797Z" />
<glyph unicode="}" glyph-name="braceright" horiz-adv-x="336" d="M258 337T270 327T283 300Q283 286 272 276T245 266Q228 266 215 277Q211 236 209 171T206 53Q206 -39 187 -84T138 -143T67 -156Q22 -156 -4 -141T-31 -96Q-31 -81 -30 -68Q-20 -72 18 -75T79
-78Q93 48 109 121T145 234T195 305Q176 327 166 356T155 419Q155 463 206 725Q184 725 148 722T104 715Q99 733 99 746Q99 771 129 785T218 800Q307 800 307 690Q307 619 286 522T223 334Q232 337 242 337Q258 337 270 327Z" />
<glyph unicode="~" glyph-name="asciitilde" horiz-adv-x="709" d="M522 350T454 340T301 312Q211 294 189 294Q160 294 150 302T139 340Q139 359 155 397Q214 397 277 407T437 435Q527 453 547 453Q576 453 586 445T597 407Q597 388 581 350Q522 350 454 340Z" />
<glyph unicode="&#xa1;" glyph-name="exclamdown" horiz-adv-x="350" d="M288 600T306 583T324 540Q324 510 304 489T252 467Q225 467 208 484T190 527Q190 556 211 578T262 600Q288 600 306 583ZM237 333T243 324T250 296Q250 269 240 210T226 137Q211 58 202
2T193 -91Q193 -149 211 -172Q180 -200 130 -200Q95 -200 79 -178T62 -118Q62 -74 103 79T175 316Q184 324 196 328T219 333Q237 333 243 324Z" />
<glyph unicode="&#xa2;" glyph-name="cent" horiz-adv-x="567" d="M273 517T227 443T180 274Q180 205 208 165T285 125Q345 125 382 164T422 263Q488 263 488 214Q488 179 465 149T401 99T312 75Q307 49 296 -19Q286 -71 240 -72Q219 -72 195 -60L231 80Q162 96
124 148T85 280Q85 361 119 429T212 541T345 600L377 737Q389 786 435 786Q458 786 478 773Q455 702 427 604Q468 601 491 586T515 546Q515 522 496 506T448 490Q377 490 346 548Q273 517 227 443Z" />
<glyph unicode="&#xa3;" glyph-name="sterling" horiz-adv-x="593" d="M528 585T455 597T301 610L258 372L295 377Q359 388 401 388Q442 388 442 355Q442 330 427 314Q396 322 334 322Q302 322 248 313L211 107Q224 104 278 88Q336 71 376 61T444 51L544 110Q558
90 564 78T570 54Q570 18 534 -6T444 -30Q392 -30 339 -18T188 34Q159 3 137 -9T90 -22Q67 -22 51 -7T35 30Q35 67 65 91T142 118L159 302Q137 300 124 300Q81 300 81 334Q81 357 98 375Q117 369 166 367L175 469Q187 593 242 645T407 698Q489 698 535 675T581
606Q581 597 574 563Q528 585 455 597Z" />
<glyph unicode="&#xa4;" glyph-name="currency" horiz-adv-x="643" d="M547 309T520 259T446 176Q477 118 517 53Q504 38 487 29T453 20Q426 20 410 51L367 139Q334 132 307 132Q259 132 222 149Q176 78 160 51Q137 20 111 20Q95 20 79 29T52 53L72 79Q87 100
109 129T160 198Q125 244 125 312Q125 370 150 416T220 494Q197 536 147 618Q160 633 178 642T212 651Q239 651 255 620Q269 592 283 560L298 528Q339 539 384 539Q415 539 441 530Q457 555 498 620Q520 651 547 651Q562 651 579 642T606 618Q541 532 508 485Q547
435 547 359Q547 309 520 259ZM377 200T414 253T452 382Q452 425 429 448T342 472L301 471Q261 435 241 391T220 305Q220 259 242 230T306 200Q377 200 414 253Z" />
<glyph unicode="&#xa5;" glyph-name="yen" horiz-adv-x="617" d="M569 399T569 365Q569 341 552 324Q525 331 471 331Q436 288 401 261Q469 269 505 269Q548 269 548 235Q548 211 531 194Q505 201 440 201Q405 201 368 198Q356 146 350 113T344 54Q344 17 358
-3Q317 -25 285 -25Q259 -25 248 -9T236 43Q236 85 262 192Q255 191 219 186T149 181Q126 181 117 189T107 214Q107 238 123 256Q149 247 219 247Q231 247 261 249Q245 270 238 316Q201 311 172 311Q149 311 140 319T130 344Q130 368 146 386Q172 377 230 377Q218
491 196 565T122 680Q148 700 185 700Q237 700 267 651T311 523T341 303H346Q389 343 427 399T489 511T512 607Q512 630 506 647T484 680Q513 693 526 696T555 700Q579 700 594 682T610 636Q610 587 586 524T521 399H526Q569 399 569 365Z" />
<glyph unicode="&#xa6;" glyph-name="brokenbar" horiz-adv-x="437" d="M301 465H207L281 797L272 858Q285 869 304 874T339 880Q362 880 372 868T382 826L301 465ZM249 236L176 -97L185 -158Q172 -169 153 -174T118 -180Q95 -180 85 -168T75 -126L156 236H249Z" />
<glyph unicode="&#xa7;" glyph-name="section" horiz-adv-x="704" d="M523 795T586 764T649 675Q649 655 639 638T610 610Q584 670 536 701T430 733Q345 733 294 702T243 612Q243 582 263 561T312 525T394 490Q463 462 504 440T574 380T604 285Q604 242 582 203T517
133Q569 84 569 15Q569 -38 538 -84T442 -158T284 -187Q185 -187 122 -156T59 -67Q59 -47 70 -30T99 -2Q125 -62 173 -93T279 -125Q363 -125 414 -94T466 -4Q466 26 446 47T397 83T315 118Q247 146 206 168T134 229T104 324Q104 367 126 406T190 476Q139 524 139
593Q139 646 170 692T266 766T424 795Q523 795 586 764ZM499 312T464 335T353 387Q288 414 265 425Q209 389 209 335Q209 297 245 274T356 221Q420 195 443 183Q499 219 499 274Q499 312 464 335Z" />
<glyph unicode="&#xa8;" glyph-name="dieresis" horiz-adv-x="600" d="M185 693T170 706T155 743Q155 769 175 789T229 810Q256 810 271 796T287 760Q287 732 266 713T212 693Q185 693 170 706ZM439 693T424 706T408 743Q408 769 428 789T483 810Q509 810 524
796T540 760Q540 732 519 713T466 693Q439 693 424 706Z" />
<glyph unicode="&#xa9;" glyph-name="copyright" horiz-adv-x="896" d="M334 150T257 189T133 305T85 493Q85 613 141 704T299 846T537 896Q582 896 605 888T638 863T650 818Q730 775 770 703T811 546Q811 422 756 332T611 196T424 150Q334 150 257 189ZM523 213T598
260T715 383T756 543Q756 609 725 671T631 774T480 815Q387 815 313 779T197 670T154 494Q154 401 190 338T288 244T423 213Q523 213 598 260ZM362 321T326 360T289 470Q289 539 319 596T400 686T512 719Q547 719 567 708T587 678Q587 662 574 651T540 639Q491
639 470 680Q415 656 380 598T345 465Q345 413 366 383T424 353Q466 353 492 382T522 458Q560 458 560 425Q560 397 542 373T494 335T428 321Q362 321 326 360Z" />
<glyph unicode="&#xaa;" glyph-name="ordfeminine" horiz-adv-x="519" d="M449 363T461 355Q439 333 412 333Q387 333 374 348T360 392Q360 406 365 433L358 436Q331 387 291 360T205 333Q151 333 118 376T84 490Q84 568 120 632T219 733T354 770Q386 770 419
764Q425 750 426 741Q443 753 463 753Q481 753 491 744T502 719Q502 691 483 617Q467 546 458 496T449 392Q449 363 461 355ZM311 405T352 485T414 730Q296 726 235 663T174 499Q174 454 193 430T246 405Q311 405 352 485Z" />
<glyph unicode="&#xab;" glyph-name="guillemotleft" horiz-adv-x="616" d="M339 468T278 417T110 300Q146 264 146 264Q222 187 250 151T278 78Q278 49 265 37T225 25Q61 229 61 288Q61 321 77 347T135 411T296 549Q297 549 307 547T328 532T339 501Q339 468
278 417ZM579 468T517 417T348 300Q377 271 377 271Q435 213 461 185T502 130T517 78Q517 48 505 37T465 25Q301 229 301 288Q301 321 317 347T375 411T536 549Q537 549 547 547T568 532T579 501Q579 468 517 417Z" />
<glyph unicode="&#xac;" glyph-name="logicalnot" horiz-adv-x="701" d="M562 424T573 417T585 389L542 102Q494 86 472 86Q457 86 450 92T443 115Q443 126 446 141L473 321H197Q166 321 154 329T142 357Q142 379 158 424H488V425L491 424H531Q562 424 573 417Z" />
<glyph unicode="&#xae;" glyph-name="registered" horiz-adv-x="896" d="M730 775T770 703T811 546Q811 422 756 332T611 196T424 150Q334 150 257 189T133 305T85 493Q85 613 141 704T299 846T537 896Q582 896 605 888T638 863T650 818Q730 775 770 703ZM523
213T598 260T715 383T756 543Q756 609 725 671T631 774T480 815Q387 815 313 779T197 670T154 494Q154 401 190 338T288 244T423 213Q523 213 598 260ZM538 428T562 390T603 335Q598 329 587 325T566 321Q551 321 542 328T521 353T492 412L466 467Q461 466 449
466Q406 466 374 484Q362 403 362 373Q362 346 374 331Q356 320 339 320Q323 320 316 328T309 356Q309 390 318 457T352 674L338 701Q367 719 389 719Q408 719 408 696V692Q442 718 491 718Q542 718 571 686T601 607Q601 568 579 532T514 478Q538 428 562 390ZM483
501T515 529T547 600Q547 637 527 659T461 682Q433 682 404 665Q398 626 397 622Q385 553 378 511Q401 501 428 501Q483 501 515 529Z" />
<glyph unicode="&#xaf;" glyph-name="overscore" horiz-adv-x="600" d="M111 708T111 753Q111 766 118 789T133 823Q144 818 161 815T193 811Q222 811 280 815Q344 819 377 819Q443 819 443 778Q443 755 431 720Q423 724 405 726T368 729Q326 729 256 718Q182
708 151 708Q111 708 111 753Z" />
<glyph unicode="&#xb0;" glyph-name="degree" horiz-adv-x="496" d="M183 258T137 306T90 437Q90 506 121 559T209 642T339 672Q352 672 367 670T392 663Q396 659 398 636Q484 613 484 494Q484 428 455 374T375 289T262 258Q183 258 137 306ZM303 309T332 332T379
396T396 487Q396 548 370 577T289 607Q271 607 239 598Q210 564 194 518T177 428Q177 374 201 342T267 309Q303 309 332 332Z" />
<glyph unicode="&#xb1;" glyph-name="plusminus" horiz-adv-x="701" d="M586 363T570 321H408L384 167Q338 151 314 151Q299 151 292 157T285 180Q285 191 288 206L306 321H198Q167 321 155 329T143 357Q143 379 159 424H323L347 578Q391 594 417 594Q432 594
438 588T445 565Q445 560 443 540L425 424H532Q563 424 574 417T586 389Q586 363 570 321ZM94 -133T82 -125T70 -97Q70 -75 86 -30H459Q490 -30 501 -37T513 -65Q513 -91 497 -133H125Q94 -133 82 -125Z" />
<glyph unicode="&#xb2;" glyph-name="uni00B2" horiz-adv-x="442" d="M434 356T434 334Q434 308 408 290T343 272Q315 272 288 278T198 303L179 309Q158 289 143 281T110 272Q91 272 78 284T65 316Q65 345 89 364T153 384Q162 384 167 383Q243 429 283 479T324
573Q324 651 252 651Q214 651 188 622T157 547Q132 549 119 564T105 603Q105 652 150 681T268 710Q332 710 372 674T412 582Q412 529 370 479T229 367L248 361Q315 338 343 338L418 379Q434 356 434 334Z" />
<glyph unicode="&#xb3;" glyph-name="uni00B3" horiz-adv-x="428" d="M138 272T106 287T73 329Q73 348 86 360T118 373Q137 373 155 358T187 316Q240 316 271 337T302 394Q302 426 270 447T188 469L187 504Q240 504 276 526T312 582Q312 613 293 630T238 648Q206
648 183 626T152 565Q129 567 117 579T104 612Q104 656 143 683T247 710Q310 710 348 680T387 599Q387 560 364 532T298 489Q339 473 360 449T381 394Q381 359 357 331T290 288T194 272Q138 272 106 287Z" />
<glyph unicode="&#xb4;" glyph-name="acute" horiz-adv-x="600" d="M103 676T94 720Q139 738 171 757T240 803Q273 826 292 836T333 846Q384 846 384 791Q384 759 375 742Q329 742 286 730T188 696Q183 694 160 685T126 676Q103 676 94 720Z" />
<glyph unicode="&#xb5;" glyph-name="uni00B5" horiz-adv-x="737" d="M557 9T571 -3Q548 -25 515 -25Q487 -25 474 -4T460 63V73L450 78Q432 36 385 9T286 -19Q213 -19 171 34Q161 -30 161 -76Q161 -145 185 -177Q160 -200 122 -200Q98 -200 85 -182T72 -127Q72
-88 101 102T171 522L130 565Q148 580 176 590T227 600Q251 600 261 589T271 549Q271 532 261 483T238 378Q217 282 206 224T194 137Q194 88 220 63T297 37Q349 37 394 70T472 165Q490 268 547 512L510 566Q517 578 547 589T602 600Q629 600 640 589T652 550Q652
545 635 477Q602 344 580 231T557 40Q557 9 571 -3Z" />
<glyph unicode="&#xb6;" glyph-name="paragraph" horiz-adv-x="568" d="M298 -99T281 -76T263 -13Q263 53 305 182T423 463H403Q338 349 237 349Q170 349 134 392T97 501Q97 557 124 611T204 699T332 734Q374 734 416 719T489 664T519 559Q519 520 507 470T471
338Q438 222 420 140T402 -22Q402 -58 420 -72Q379 -99 336 -99Q298 -99 281 -76Z" />
<glyph unicode="&#xb7;" glyph-name="middot" horiz-adv-x="333" d="M116 230T98 247T80 290Q80 320 100 341T152 363Q179 363 196 346T214 303Q214 274 193 252T142 230Q116 230 98 247Z" />
<glyph unicode="&#xb8;" glyph-name="cedilla" horiz-adv-x="600" d="M91 -287T59 -264T27 -203Q27 -168 63 -144T153 -120Q131 -131 118 -151T105 -192Q105 -238 156 -238Q190 -238 213 -214T237 -157Q237 -77 153 -39Q235 -39 281 -71T328 -159Q328 -195 304
-224T238 -270T145 -287Q91 -287 59 -264Z" />
<glyph unicode="&#xb9;" glyph-name="uni00B9" horiz-adv-x="332" d="M126 359T142 452T173 611Q153 611 134 626T108 665Q136 671 160 679T203 696Q216 702 227 706T247 710Q276 710 276 679Q276 659 266 615T253 562Q234 488 224 437T214 346Q214 308 223 287Q198
272 176 272Q126 272 126 324Q126 359 142 452Z" />
<glyph unicode="&#xba;" glyph-name="ordmasculine" horiz-adv-x="491" d="M183 333T136 383T88 518Q88 592 119 649T208 738T337 770Q369 770 385 766Q389 755 391 724Q327 726 279 701T204 627T178 514Q178 450 203 416T274 382Q336 382 375 431T414 560Q414
648 373 700Q381 712 394 718T421 725Q450 725 469 694T489 610Q489 530 461 467T382 369T262 333Q183 333 136 383Z" />
<glyph unicode="&#xbb;" glyph-name="guillemotright" horiz-adv-x="645" d="M345 264T329 238T271 174T110 36Q109 36 99 38T78 53T67 84Q67 117 129 168T298 285Q269 314 269 314Q211 372 185 400T144 455T129 507Q129 537 141 548T181 560Q345 356 345 297Q345
264 329 238ZM585 264T569 238T511 174T350 36Q349 36 339 38T318 53T307 84Q307 117 368 168T536 285Q500 321 500 321Q424 398 396 434T368 507Q368 536 381 548T421 560Q585 356 585 297Q585 264 569 238Z" />
<glyph unicode="&#xbc;" glyph-name="onequarter" horiz-adv-x="968" d="M126 359T142 452T173 611Q153 611 134 626T108 665Q136 671 160 679T203 696Q216 702 227 706T247 710Q276 710 276 679Q276 659 266 615T253 562Q234 488 224 437T214 346Q214 308 223
287Q198 272 176 272Q126 272 126 324Q126 359 142 452ZM321 146T406 328T591 747Q601 772 617 784T657 796Q679 796 698 783Q631 659 556 494T341 9Q329 -16 313 -28T273 -40Q249 -40 232 -27Q321 146 406 328ZM935 279T929 257T922 229Q908 179 899 136T890 49Q890
38 893 22T901 -6Q884 -15 872 -19T848 -23Q821 -23 807 -6T793 43V48Q723 35 657 35Q606 35 582 49T557 93Q557 110 572 133T624 204Q669 260 694 300T719 373Q719 387 712 404Q738 415 761 415Q813 415 813 348Q813 299 765 239T616 96H800Q808 139 824 191T862
288Q874 295 888 300T913 305Q926 305 930 302T935 289Q935 279 929 257Z" />
<glyph unicode="&#xbd;" glyph-name="onehalf" horiz-adv-x="1010" d="M126 359T142 452T173 611Q153 611 134 626T108 665Q136 671 160 679T203 696Q216 702 227 706T247 710Q276 710 276 679Q276 659 266 615T253 562Q234 488 224 437T214 346Q214 308 223 287Q198
272 176 272Q126 272 126 324Q126 359 142 452ZM321 146T406 328T591 747Q601 772 617 784T657 796Q679 796 698 783Q631 659 556 494T341 9Q329 -16 313 -28T273 -40Q249 -40 232 -27Q321 146 406 328ZM955 61T955 39Q955 13 929 -5T864 -23Q836 -23 809 -17T719
8L700 14Q679 -6 664 -14T631 -23Q612 -23 599 -11T586 21Q586 50 610 69T674 89Q683 89 688 88Q764 134 804 184T845 278Q845 356 773 356Q735 356 709 327T678 252Q653 254 640 269T626 308Q626 357 671 386T789 415Q853 415 893 379T933 287Q933 234 891 184T750
72L769 66Q836 43 864 43L939 84Q955 61 955 39Z" />
<glyph unicode="&#xbe;" glyph-name="threequarters" horiz-adv-x="1064" d="M138 272T106 287T73 329Q73 348 86 360T118 373Q137 373 155 358T187 316Q240 316 271 337T302 394Q302 426 270 447T188 469L187 504Q240 504 276 526T312 582Q312 613 293 630T238
648Q206 648 183 626T152 565Q129 567 117 579T104 612Q104 656 143 683T247 710Q310 710 348 680T387 599Q387 560 364 532T298 489Q339 473 360 449T381 394Q381 359 357 331T290 288T194 272Q138 272 106 287ZM417 146T502 328T687 747Q697 772 713 784T753
796Q775 796 794 783Q727 659 652 494T437 9Q425 -16 409 -28T369 -40Q345 -40 328 -27Q417 146 502 328ZM1031 279T1025 257T1018 229Q1004 179 995 136T986 49Q986 38 989 22T997 -6Q980 -15 968 -19T944 -23Q917 -23 903 -6T889 43V48Q819 35 753 35Q702 35
678 49T653 93Q653 110 668 133T720 204Q765 260 790 300T815 373Q815 387 808 404Q834 415 857 415Q909 415 909 348Q909 299 861 239T712 96H896Q904 139 920 191T958 288Q970 295 984 300T1009 305Q1022 305 1026 302T1031 289Q1031 279 1025 257Z" />
<glyph unicode="&#xbf;" glyph-name="questiondown" horiz-adv-x="601" d="M346 600T364 583T382 540Q382 510 362 489T310 467Q283 467 266 484T248 527Q248 556 269 578T320 600Q346 600 364 583ZM262 282T210 249T125 161T92 38Q92 -29 127 -69T224 -109Q287
-109 339 -63T410 69Q434 69 446 53T459 7Q459 -30 435 -78T355 -163T206 -200Q89 -200 34 -133T-22 33Q-22 119 20 189T128 300T257 340Q282 340 300 325T318 286Q262 282 210 249Z" />
<glyph unicode="&#xc0;" glyph-name="Agrave" horiz-adv-x="674" d="M546 618T545 589L544 470Q544 296 559 169T619 -1Q591 -23 554 -23Q519 -23 498 -4T464 63T447 194H176Q153 129 153 83Q153 29 166 -1Q151 -13 136 -18T98 -23Q75 -23 63 -3T50 57Q50 139
129 302T355 676L325 707Q348 721 367 727T411 734Q447 734 454 715Q473 734 498 734Q522 734 534 718T546 665Q546 618 545 589ZM445 253Q443 290 443 378V644H431Q266 401 200 253H445ZM539 811T516 820T488 831Q433 852 390 864T301 877Q292 894 292 926Q292
981 343 981Q365 981 384 971T436 938Q472 912 504 893T582 855Q573 811 550 811Q539 811 516 820Z" />
<glyph unicode="&#xc1;" glyph-name="Aacute" horiz-adv-x="674" d="M546 618T545 589L544 470Q544 296 559 169T619 -1Q591 -23 554 -23Q519 -23 498 -4T464 63T447 194H176Q153 129 153 83Q153 29 166 -1Q151 -13 136 -18T98 -23Q75 -23 63 -3T50 57Q50 139
129 302T355 676L325 707Q348 721 367 727T411 734Q447 734 454 715Q473 734 498 734Q522 734 534 718T546 665Q546 618 545 589ZM445 253Q443 290 443 378V644H431Q266 401 200 253H445ZM335 811T326 855Q371 873 403 892T472 938Q505 961 524 971T565 981Q616
981 616 926Q616 894 607 877Q561 877 518 865T420 831Q415 829 392 820T358 811Q335 811 326 855Z" />
<glyph unicode="&#xc2;" glyph-name="Acircumflex" horiz-adv-x="674" d="M546 618T545 589L544 470Q544 296 559 169T619 -1Q591 -23 554 -23Q519 -23 498 -4T464 63T447 194H176Q153 129 153 83Q153 29 166 -1Q151 -13 136 -18T98 -23Q75 -23 63 -3T50 57Q50
139 129 302T355 676L325 707Q348 721 367 727T411 734Q447 734 454 715Q473 734 498 734Q522 734 534 718T546 665Q546 618 545 589ZM445 253Q443 290 443 378V644H431Q266 401 200 253H445ZM466 1014T479 1018T522 1023Q546 1023 562 1012T580 976L585 883Q586
840 614 818Q597 808 583 804T552 799Q527 799 514 810T501 852Q501 895 503 923T513 976H499Q473 952 454 907T437 817Q434 810 415 805T372 799Q355 799 345 806T335 826Q335 863 369 914T444 1001Q466 1014 479 1018Z" />
<glyph unicode="&#xc3;" glyph-name="Atilde" horiz-adv-x="674" d="M546 618T545 589L544 470Q544 296 559 169T619 -1Q591 -23 554 -23Q519 -23 498 -4T464 63T447 194H176Q153 129 153 83Q153 29 166 -1Q151 -13 136 -18T98 -23Q75 -23 63 -3T50 57Q50 139
129 302T355 676L325 707Q348 721 367 727T411 734Q447 734 454 715Q473 734 498 734Q522 734 534 718T546 665Q546 618 545 589ZM445 253Q443 290 443 378V644H431Q266 401 200 253H445ZM305 833T295 843T284 878Q284 901 302 945Q342 934 361 934Q395 934 424
940T492 960Q513 967 533 972T568 977Q600 977 610 967T620 932Q620 904 602 864Q565 875 543 875Q510 875 480 869T413 850Q392 843 372 838T336 833Q305 833 295 843Z" />
<glyph unicode="&#xc4;" glyph-name="Adieresis" horiz-adv-x="674" d="M546 618T545 589L544 470Q544 296 559 169T619 -1Q591 -23 554 -23Q519 -23 498 -4T464 63T447 194H176Q153 129 153 83Q153 29 166 -1Q151 -13 136 -18T98 -23Q75 -23 63 -3T50 57Q50 139
129 302T355 676L325 707Q348 721 367 727T411 734Q447 734 454 715Q473 734 498 734Q522 734 534 718T546 665Q546 618 545 589ZM445 253Q443 290 443 378V644H431Q266 401 200 253H445ZM301 828T286 841T271 878Q271 904 291 924T345 945Q372 945 387 931T403
895Q403 867 382 848T328 828Q301 828 286 841ZM555 828T540 841T524 878Q524 904 544 924T599 945Q625 945 640 931T656 895Q656 867 635 848T582 828Q555 828 540 841Z" />
<glyph unicode="&#xc5;" glyph-name="Aring" horiz-adv-x="674" d="M546 618T545 589L544 470Q544 296 559 169T619 -1Q591 -23 554 -23Q519 -23 498 -4T464 63T447 194H176Q153 129 153 83Q153 29 166 -1Q151 -13 136 -18T98 -23Q75 -23 63 -3T50 57Q50 139 129
302T355 676L325 707Q348 721 367 727T411 734Q447 734 454 715Q473 734 498 734Q522 734 534 718T546 665Q546 618 545 589ZM445 253Q443 290 443 378V644H431Q266 401 200 253H445ZM381 770T345 805T306 903Q308 980 357 1027T486 1075Q550 1075 587 1040T625
942Q624 866 575 818T445 770Q381 770 345 805ZM490 826T515 859T540 943Q540 982 526 1000T480 1019Q455 1019 429 1012Q389 967 389 907Q389 872 406 849T452 826Q490 826 515 859Z" />
<glyph unicode="&#xc6;" glyph-name="AE" horiz-adv-x="832" d="M645 604T564 624L522 365Q567 360 638 360L707 377V358Q707 324 685 306T621 288Q570 288 513 302Q485 125 485 74Q485 68 487 60H696Q750 65 795 82Q803 55 803 44Q803 7 767 -9T651 -25Q579 -25
513 -5Q474 -26 442 -26Q412 -26 398 -10T384 42Q384 90 397 194H178Q148 118 148 68Q148 41 150 24T164 -7Q147 -21 130 -25T92 -29Q48 -29 48 42Q48 127 134 294T378 676L348 707Q371 717 391 721T434 726Q462 726 475 711Q512 726 536 726Q572 726 572 683V682Q639
684 689 691T818 714L851 720Q856 704 856 683Q856 641 825 623T748 604Q645 604 564 624ZM405 253Q428 411 466 644H454Q278 403 205 253H405Z" />
<glyph unicode="&#xc7;" glyph-name="Ccedilla" horiz-adv-x="631" d="M195 -25T126 49T56 256Q56 387 113 494T267 664T478 726Q544 726 581 706T619 649Q619 618 594 597T530 575Q488 575 455 592T399 653Q330 623 277 564T193 423T162 247Q162 148 201 92T311
36Q391 36 441 92T497 234Q567 234 567 171Q567 119 533 74T442 2T318 -25Q195 -25 126 49ZM152 -301T120 -278T88 -217Q88 -182 124 -158T214 -134Q192 -145 179 -165T166 -206Q166 -252 217 -252Q251 -252 274 -228T298 -171Q298 -91 214 -53Q296 -53 342 -85T389
-173Q389 -209 365 -238T299 -284T206 -301Q152 -301 120 -278Z" />
<glyph unicode="&#xc8;" glyph-name="Egrave" horiz-adv-x="568" d="M381 604T300 624L258 365Q303 360 374 360L443 377V358Q443 324 421 306T357 288Q306 288 249 302Q221 125 221 74Q221 68 223 60H432Q486 65 531 82Q539 55 539 44Q539 7 503 -9T387 -25Q315
-25 249 -5Q210 -26 178 -26Q148 -26 134 -10T120 42Q120 102 137 226T201 642L175 692Q232 726 272 726Q308 726 308 683V682Q374 684 424 691T554 714L587 720Q592 704 592 683Q592 641 561 623T484 604Q381 604 300 624ZM498 811T475 820T447 831Q392 852 349
864T260 877Q251 894 251 926Q251 981 302 981Q324 981 343 971T395 938Q431 912 463 893T541 855Q532 811 509 811Q498 811 475 820Z" />
<glyph unicode="&#xc9;" glyph-name="Eacute" horiz-adv-x="568" d="M381 604T300 624L258 365Q303 360 374 360L443 377V358Q443 324 421 306T357 288Q306 288 249 302Q221 125 221 74Q221 68 223 60H432Q486 65 531 82Q539 55 539 44Q539 7 503 -9T387 -25Q315
-25 249 -5Q210 -26 178 -26Q148 -26 134 -10T120 42Q120 102 137 226T201 642L175 692Q232 726 272 726Q308 726 308 683V682Q374 684 424 691T554 714L587 720Q592 704 592 683Q592 641 561 623T484 604Q381 604 300 624ZM294 811T285 855Q330 873 362 892T431
938Q464 961 483 971T524 981Q575 981 575 926Q575 894 566 877Q520 877 477 865T379 831Q374 829 351 820T317 811Q294 811 285 855Z" />
<glyph unicode="&#xca;" glyph-name="Ecircumflex" horiz-adv-x="568" d="M381 604T300 624L258 365Q303 360 374 360L443 377V358Q443 324 421 306T357 288Q306 288 249 302Q221 125 221 74Q221 68 223 60H432Q486 65 531 82Q539 55 539 44Q539 7 503 -9T387
-25Q315 -25 249 -5Q210 -26 178 -26Q148 -26 134 -10T120 42Q120 102 137 226T201 642L175 692Q232 726 272 726Q308 726 308 683V682Q374 684 424 691T554 714L587 720Q592 704 592 683Q592 641 561 623T484 604Q381 604 300 624ZM425 1014T438 1018T481 1023Q505
1023 521 1012T539 976L544 883Q545 840 573 818Q556 808 542 804T511 799Q486 799 473 810T460 852Q460 895 462 923T472 976H458Q432 952 413 907T396 817Q393 810 374 805T331 799Q314 799 304 806T294 826Q294 863 328 914T403 1001Q425 1014 438 1018Z" />
<glyph unicode="&#xcb;" glyph-name="Edieresis" horiz-adv-x="568" d="M381 604T300 624L258 365Q303 360 374 360L443 377V358Q443 324 421 306T357 288Q306 288 249 302Q221 125 221 74Q221 68 223 60H432Q486 65 531 82Q539 55 539 44Q539 7 503 -9T387 -25Q315
-25 249 -5Q210 -26 178 -26Q148 -26 134 -10T120 42Q120 102 137 226T201 642L175 692Q232 726 272 726Q308 726 308 683V682Q374 684 424 691T554 714L587 720Q592 704 592 683Q592 641 561 623T484 604Q381 604 300 624ZM260 828T245 841T230 878Q230 904 250
924T304 945Q331 945 346 931T362 895Q362 867 341 848T287 828Q260 828 245 841ZM514 828T499 841T483 878Q483 904 503 924T558 945Q584 945 599 931T615 895Q615 867 594 848T541 828Q514 828 499 841Z" />
<glyph unicode="&#xcc;" glyph-name="Igrave" horiz-adv-x="369" d="M120 105T137 231T201 642L175 692Q232 726 272 726Q308 726 308 683Q308 674 283 517Q221 140 221 75Q221 24 243 -4Q209 -25 178 -25Q148 -25 134 -9T120 43Q120 105 137 231ZM364 811T341
820T313 831Q258 852 215 864T126 877Q117 894 117 926Q117 981 168 981Q190 981 209 971T261 938Q297 912 329 893T407 855Q398 811 375 811Q364 811 341 820Z" />
<glyph unicode="&#xcd;" glyph-name="Iacute" horiz-adv-x="369" d="M120 105T137 231T201 642L175 692Q232 726 272 726Q308 726 308 683Q308 674 283 517Q221 140 221 75Q221 24 243 -4Q209 -25 178 -25Q148 -25 134 -9T120 43Q120 105 137 231ZM160 811T151
855Q196 873 228 892T297 938Q330 961 349 971T390 981Q441 981 441 926Q441 894 432 877Q386 877 343 865T245 831Q240 829 217 820T183 811Q160 811 151 855Z" />
<glyph unicode="&#xce;" glyph-name="Icircumflex" horiz-adv-x="369" d="M120 105T137 231T201 642L175 692Q232 726 272 726Q308 726 308 683Q308 674 283 517Q221 140 221 75Q221 24 243 -4Q209 -25 178 -25Q148 -25 134 -9T120 43Q120 105 137 231ZM291 1014T304
1018T347 1023Q371 1023 387 1012T405 976L410 883Q411 840 439 818Q422 808 408 804T377 799Q352 799 339 810T326 852Q326 895 328 923T338 976H324Q298 952 279 907T262 817Q259 810 240 805T197 799Q180 799 170 806T160 826Q160 863 194 914T269 1001Q291
1014 304 1018Z" />
<glyph unicode="&#xcf;" glyph-name="Idieresis" horiz-adv-x="369" d="M120 105T137 231T201 642L175 692Q232 726 272 726Q308 726 308 683Q308 674 283 517Q221 140 221 75Q221 24 243 -4Q209 -25 178 -25Q148 -25 134 -9T120 43Q120 105 137 231ZM126 828T111
841T96 878Q96 904 116 924T170 945Q197 945 212 931T228 895Q228 867 207 848T153 828Q126 828 111 841ZM380 828T365 841T349 878Q349 904 369 924T424 945Q450 945 465 931T481 895Q481 867 460 848T407 828Q380 828 365 841Z" />
<glyph unicode="&#xd0;" glyph-name="Eth" horiz-adv-x="829" d="M561 726T624 687T722 575T757 404Q757 278 704 181T554 29T334 -25Q225 -25 174 1T123 85Q123 146 147 306Q111 300 74 300Q27 300 27 342Q27 371 45 394Q74 384 152 384H159Q176 491 201 642L175
692Q240 726 270 726Q307 726 307 683V679Q343 701 382 713T476 726Q561 726 624 687ZM435 38T504 82T611 206T650 387Q650 520 598 589T445 659Q395 659 364 651T299 625L264 397Q336 410 382 410Q428 410 428 368Q428 337 411 317Q380 327 308 327Q291 327 253
323Q222 113 222 55Q283 38 348 38Q435 38 504 82Z" />
<glyph unicode="&#xd1;" glyph-name="Ntilde" horiz-adv-x="839" d="M778 672T753 517Q691 138 691 73Q691 22 713 -6Q677 -27 648 -27H645Q582 -26 544 14T456 182T305 624H300L287 543Q221 139 221 74Q221 23 243 -5Q209 -26 178 -26Q148 -26 134 -10T120 42Q120
104 137 230T201 642L175 692Q232 726 271 726H272V726H273Q322 725 356 682T439 512T584 84H591Q596 150 614 276T671 642L640 692Q700 726 742 726Q778 726 778 683Q778 672 753 517ZM365 833T355 843T344 878Q344 901 362 945Q402 934 421 934Q455 934 484 940T552
960Q573 967 593 972T628 977Q660 977 670 967T680 932Q680 904 662 864Q625 875 603 875Q570 875 540 869T473 850Q452 843 432 838T396 833Q365 833 355 843Z" />
<glyph unicode="&#xd2;" glyph-name="Ograve" horiz-adv-x="737" d="M567 371T544 410T520 501Q520 548 545 579T610 610Q657 610 683 566T710 445Q710 315 661 208T527 38T334 -25Q252 -25 190 12T94 119T60 280Q60 414 111 515T250 670T440 725Q531 725 531
674Q531 659 524 642Q511 645 494 647T465 650Q383 650 315 605T207 478T167 286Q167 163 217 100T355 36Q412 36 470 75T572 185T626 346Q567 371 544 410ZM586 811T563 820T535 831Q480 852 437 864T348 877Q339 894 339 926Q339 981 390 981Q412 981 431 971T483
938Q519 912 551 893T629 855Q620 811 597 811Q586 811 563 820Z" />
<glyph unicode="&#xd3;" glyph-name="Oacute" horiz-adv-x="737" d="M567 371T544 410T520 501Q520 548 545 579T610 610Q657 610 683 566T710 445Q710 315 661 208T527 38T334 -25Q252 -25 190 12T94 119T60 280Q60 414 111 515T250 670T440 725Q531 725 531
674Q531 659 524 642Q511 645 494 647T465 650Q383 650 315 605T207 478T167 286Q167 163 217 100T355 36Q412 36 470 75T572 185T626 346Q567 371 544 410ZM382 811T373 855Q418 873 450 892T519 938Q552 961 571 971T612 981Q663 981 663 926Q663 894 654 877Q608
877 565 865T467 831Q462 829 439 820T405 811Q382 811 373 855Z" />
<glyph unicode="&#xd4;" glyph-name="Ocircumflex" horiz-adv-x="737" d="M567 371T544 410T520 501Q520 548 545 579T610 610Q657 610 683 566T710 445Q710 315 661 208T527 38T334 -25Q252 -25 190 12T94 119T60 280Q60 414 111 515T250 670T440 725Q531 725
531 674Q531 659 524 642Q511 645 494 647T465 650Q383 650 315 605T207 478T167 286Q167 163 217 100T355 36Q412 36 470 75T572 185T626 346Q567 371 544 410ZM513 1014T526 1018T569 1023Q593 1023 609 1012T627 976L632 883Q633 840 661 818Q644 808 630 804T599
799Q574 799 561 810T548 852Q548 895 550 923T560 976H546Q520 952 501 907T484 817Q481 810 462 805T419 799Q402 799 392 806T382 826Q382 863 416 914T491 1001Q513 1014 526 1018Z" />
<glyph unicode="&#xd5;" glyph-name="Otilde" horiz-adv-x="737" d="M567 371T544 410T520 501Q520 548 545 579T610 610Q657 610 683 566T710 445Q710 315 661 208T527 38T334 -25Q252 -25 190 12T94 119T60 280Q60 414 111 515T250 670T440 725Q531 725 531
674Q531 659 524 642Q511 645 494 647T465 650Q383 650 315 605T207 478T167 286Q167 163 217 100T355 36Q412 36 470 75T572 185T626 346Q567 371 544 410ZM352 833T342 843T331 878Q331 901 349 945Q389 934 408 934Q442 934 471 940T539 960Q560 967 580 972T615
977Q647 977 657 967T667 932Q667 904 649 864Q612 875 590 875Q557 875 527 869T460 850Q439 843 419 838T383 833Q352 833 342 843Z" />
<glyph unicode="&#xd6;" glyph-name="Odieresis" horiz-adv-x="737" d="M567 371T544 410T520 501Q520 548 545 579T610 610Q657 610 683 566T710 445Q710 315 661 208T527 38T334 -25Q252 -25 190 12T94 119T60 280Q60 414 111 515T250 670T440 725Q531 725 531
674Q531 659 524 642Q511 645 494 647T465 650Q383 650 315 605T207 478T167 286Q167 163 217 100T355 36Q412 36 470 75T572 185T626 346Q567 371 544 410ZM348 828T333 841T318 878Q318 904 338 924T392 945Q419 945 434 931T450 895Q450 867 429 848T375 828Q348
828 333 841ZM602 828T587 841T571 878Q571 904 591 924T646 945Q672 945 687 931T703 895Q703 867 682 848T629 828Q602 828 587 841Z" />
<glyph unicode="&#xd7;" glyph-name="multiply" horiz-adv-x="663" d="M531 577T551 562T571 530Q571 508 537 481L416 370L509 253Q515 244 519 237T523 224Q523 208 509 197T477 177T451 164L341 301L191 164Q162 174 141 189T120 221Q120 241 154 270L276 382L183
499Q177 507 173 514T169 528Q169 541 181 551T219 576L241 588L351 451L501 588Q531 577 551 562Z" />
<glyph unicode="&#xd8;" glyph-name="Oslash" horiz-adv-x="737" d="M710 319T664 214T537 46T354 -24Q351 -34 347 -54Q335 -103 289 -103Q265 -103 245 -90L268 -18Q171 3 116 82T60 280Q60 414 111 515T250 670T440 725Q452 725 458 724L467 764Q479 813 525
813Q548 813 568 800Q540 712 531 679V674Q531 659 524 642L520 643Q457 425 367 36Q423 41 479 81T575 190T626 346Q567 371 544 410T520 501Q520 548 545 579T610 610Q657 610 683 566T710 445Q710 319 664 214ZM167 189T198 130T287 48Q355 280 441 649Q364
642 302 596T203 470T167 286Q167 189 198 130Z" />
<glyph unicode="&#xd9;" glyph-name="Ugrave" horiz-adv-x="794" d="M561 -26T561 76Q561 127 580 201L575 202Q525 107 446 43T269 -22Q189 -22 155 28T121 145Q121 197 138 306T201 642L175 692Q195 706 222 716T270 727Q287 727 297 716T307 683Q307 675 280
536Q217 226 217 167Q217 107 237 78T312 49Q356 49 409 83T512 180T592 321L591 350Q588 413 588 429Q588 509 594 570T626 679T706 727Q732 727 760 705Q725 582 694 397T663 64Q663 22 678 -5Q647 -26 620 -26Q561 -26 561 76ZM592 811T569 820T541 831Q486
852 443 864T354 877Q345 894 345 926Q345 981 396 981Q418 981 437 971T489 938Q525 912 557 893T635 855Q626 811 603 811Q592 811 569 820Z" />
<glyph unicode="&#xda;" glyph-name="Uacute" horiz-adv-x="794" d="M561 -26T561 76Q561 127 580 201L575 202Q525 107 446 43T269 -22Q189 -22 155 28T121 145Q121 197 138 306T201 642L175 692Q195 706 222 716T270 727Q287 727 297 716T307 683Q307 675 280
536Q217 226 217 167Q217 107 237 78T312 49Q356 49 409 83T512 180T592 321L591 350Q588 413 588 429Q588 509 594 570T626 679T706 727Q732 727 760 705Q725 582 694 397T663 64Q663 22 678 -5Q647 -26 620 -26Q561 -26 561 76ZM388 811T379 855Q424 873 456
892T525 938Q558 961 577 971T618 981Q669 981 669 926Q669 894 660 877Q614 877 571 865T473 831Q468 829 445 820T411 811Q388 811 379 855Z" />
<glyph unicode="&#xdb;" glyph-name="Ucircumflex" horiz-adv-x="794" d="M561 -26T561 76Q561 127 580 201L575 202Q525 107 446 43T269 -22Q189 -22 155 28T121 145Q121 197 138 306T201 642L175 692Q195 706 222 716T270 727Q287 727 297 716T307 683Q307 675
280 536Q217 226 217 167Q217 107 237 78T312 49Q356 49 409 83T512 180T592 321L591 350Q588 413 588 429Q588 509 594 570T626 679T706 727Q732 727 760 705Q725 582 694 397T663 64Q663 22 678 -5Q647 -26 620 -26Q561 -26 561 76ZM519 1014T532 1018T575 1023Q599
1023 615 1012T633 976L638 883Q639 840 667 818Q650 808 636 804T605 799Q580 799 567 810T554 852Q554 895 556 923T566 976H552Q526 952 507 907T490 817Q487 810 468 805T425 799Q408 799 398 806T388 826Q388 863 422 914T497 1001Q519 1014 532 1018Z" />
<glyph unicode="&#xdc;" glyph-name="Udieresis" horiz-adv-x="794" d="M561 -26T561 76Q561 127 580 201L575 202Q525 107 446 43T269 -22Q189 -22 155 28T121 145Q121 197 138 306T201 642L175 692Q195 706 222 716T270 727Q287 727 297 716T307 683Q307 675
280 536Q217 226 217 167Q217 107 237 78T312 49Q356 49 409 83T512 180T592 321L591 350Q588 413 588 429Q588 509 594 570T626 679T706 727Q732 727 760 705Q725 582 694 397T663 64Q663 22 678 -5Q647 -26 620 -26Q561 -26 561 76ZM354 828T339 841T324 878Q324
904 344 924T398 945Q425 945 440 931T456 895Q456 867 435 848T381 828Q354 828 339 841ZM608 828T593 841T577 878Q577 904 597 924T652 945Q678 945 693 931T709 895Q709 867 688 848T635 828Q608 828 593 841Z" />
<glyph unicode="&#xdd;" glyph-name="Yacute" horiz-adv-x="781" d="M700 726T715 702T730 639Q730 432 649 228T420 -109T81 -242Q17 -242 -14 -219T-46 -157Q-46 -135 -32 -105Q-5 -133 25 -149T115 -165Q172 -165 248 -132T397 -30Q307 -26 263 29T208 163T193
371Q190 461 186 517T165 623T118 704Q147 726 180 726Q236 726 262 682T294 574T301 397Q302 279 309 206T345 79T438 13Q524 112 575 257T627 599Q627 633 622 658T603 704Q632 718 646 722T677 726Q700 726 715 702ZM351 811T342 855Q387 873 419 892T488 938Q521
961 540 971T581 981Q632 981 632 926Q632 894 623 877Q577 877 534 865T436 831Q431 829 408 820T374 811Q351 811 342 855Z" />
<glyph unicode="&#xde;" glyph-name="Thorn" horiz-adv-x="702" d="M529 630T576 599T647 517T672 406Q672 325 641 259T544 152T384 111Q296 111 227 148Q221 99 221 74Q221 23 243 -5Q209 -26 178 -26Q148 -26 134 -10T120 42Q120 104 137 230T201 642L175 692Q232
726 272 726Q308 726 308 683Q308 674 291 570Q327 599 367 614T464 630Q529 630 576 599ZM414 176T465 204T542 281T569 392Q569 467 532 514T408 562Q350 562 284 522Q276 472 274 461Q242 267 234 203Q281 176 345 176Q414 176 465 204Z" />
<glyph unicode="&#xdf;" glyph-name="germandbls" horiz-adv-x="681" d="M564 372T603 318T642 197Q642 93 575 34T389 -25Q318 -25 279 -3T240 58Q240 74 251 91T281 123Q288 87 319 63T391 38Q435 38 470 59T525 118T545 203Q545 331 439 379Q495 407 529 455T563
557Q563 609 531 642T449 676Q399 676 367 655T313 583T272 442Q231 214 208 63T185 -130Q185 -171 204 -187Q194 -197 176 -203T139 -210Q113 -210 102 -191T90 -129Q90 -64 157 332Q132 329 112 329Q50 329 50 371Q50 397 67 422Q91 412 140 412Q161 412 171
413L183 485Q203 603 271 664T449 725Q510 725 557 707T630 655T656 579Q656 458 502 389Q564 372 603 318Z" />
<glyph unicode="&#xe0;" glyph-name="agrave" horiz-adv-x="748" d="M658 514T652 484T630 386Q605 280 591 202T577 40Q577 12 591 -2Q568 -25 540 -25Q511 -25 495 -6T479 50Q479 76 487 116L477 121Q440 51 385 13T266 -25Q212 -25 171 4T108 86T85 210Q85
317 136 406T274 548T465 600Q512 600 563 592Q573 576 574 564Q591 575 609 575Q632 575 645 566T658 538Q658 514 652 484ZM498 50T562 554Q444 552 360 506T233 382T189 204Q189 131 219 91T304 50Q498 50 562 554ZM527 676T504 685T476 696Q421 717 378 729T289
742Q280 759 280 791Q280 846 331 846Q353 846 372 836T424 803Q460 777 492 758T570 720Q561 676 538 676Q527 676 504 685Z" />
<glyph unicode="&#xe1;" glyph-name="aacute" horiz-adv-x="748" d="M658 514T652 484T630 386Q605 280 591 202T577 40Q577 12 591 -2Q568 -25 540 -25Q511 -25 495 -6T479 50Q479 76 487 116L477 121Q440 51 385 13T266 -25Q212 -25 171 4T108 86T85 210Q85
317 136 406T274 548T465 600Q512 600 563 592Q573 576 574 564Q591 575 609 575Q632 575 645 566T658 538Q658 514 652 484ZM498 50T562 554Q444 552 360 506T233 382T189 204Q189 131 219 91T304 50Q498 50 562 554ZM323 676T314 720Q359 738 391 757T460 803Q493
826 512 836T553 846Q604 846 604 791Q604 759 595 742Q549 742 506 730T408 696Q403 694 380 685T346 676Q323 676 314 720Z" />
<glyph unicode="&#xe2;" glyph-name="acircumflex" horiz-adv-x="748" d="M658 514T652 484T630 386Q605 280 591 202T577 40Q577 12 591 -2Q568 -25 540 -25Q511 -25 495 -6T479 50Q479 76 487 116L477 121Q440 51 385 13T266 -25Q212 -25 171 4T108 86T85 210Q85
317 136 406T274 548T465 600Q512 600 563 592Q573 576 574 564Q591 575 609 575Q632 575 645 566T658 538Q658 514 652 484ZM498 50T562 554Q444 552 360 506T233 382T189 204Q189 131 219 91T304 50Q498 50 562 554ZM454 879T467 883T510 888Q534 888 550 877T568
841L573 748Q574 705 602 683Q585 673 571 669T540 664Q515 664 502 675T489 717Q489 760 491 788T501 841H487Q461 817 442 772T425 682Q422 675 403 670T360 664Q343 664 333 671T323 691Q323 728 357 779T432 866Q454 879 467 883Z" />
<glyph unicode="&#xe3;" glyph-name="atilde" horiz-adv-x="748" d="M658 514T652 484T630 386Q605 280 591 202T577 40Q577 12 591 -2Q568 -25 540 -25Q511 -25 495 -6T479 50Q479 76 487 116L477 121Q440 51 385 13T266 -25Q212 -25 171 4T108 86T85 210Q85
317 136 406T274 548T465 600Q512 600 563 592Q573 576 574 564Q591 575 609 575Q632 575 645 566T658 538Q658 514 652 484ZM498 50T562 554Q444 552 360 506T233 382T189 204Q189 131 219 91T304 50Q498 50 562 554ZM293 698T283 708T272 743Q272 766 290 810Q330
799 349 799Q383 799 412 805T480 825Q501 832 521 837T556 842Q588 842 598 832T608 797Q608 769 590 729Q553 740 531 740Q498 740 468 734T401 715Q380 708 360 703T324 698Q293 698 283 708Z" />
<glyph unicode="&#xe4;" glyph-name="adieresis" horiz-adv-x="748" d="M658 514T652 484T630 386Q605 280 591 202T577 40Q577 12 591 -2Q568 -25 540 -25Q511 -25 495 -6T479 50Q479 76 487 116L477 121Q440 51 385 13T266 -25Q212 -25 171 4T108 86T85 210Q85
317 136 406T274 548T465 600Q512 600 563 592Q573 576 574 564Q591 575 609 575Q632 575 645 566T658 538Q658 514 652 484ZM498 50T562 554Q444 552 360 506T233 382T189 204Q189 131 219 91T304 50Q498 50 562 554ZM289 693T274 706T259 743Q259 769 279 789T333
810Q360 810 375 796T391 760Q391 732 370 713T316 693Q289 693 274 706ZM543 693T528 706T512 743Q512 769 532 789T587 810Q613 810 628 796T644 760Q644 732 623 713T570 693Q543 693 528 706Z" />
<glyph unicode="&#xe5;" glyph-name="aring" horiz-adv-x="748" d="M658 514T652 484T630 386Q605 280 591 202T577 40Q577 12 591 -2Q568 -25 540 -25Q511 -25 495 -6T479 50Q479 76 487 116L477 121Q440 51 385 13T266 -25Q212 -25 171 4T108 86T85 210Q85 317
136 406T274 548T465 600Q512 600 563 592Q573 576 574 564Q591 575 609 575Q632 575 645 566T658 538Q658 514 652 484ZM498 50T562 554Q444 552 360 506T233 382T189 204Q189 131 219 91T304 50Q498 50 562 554ZM369 635T333 670T294 768Q296 845 345 892T474
940Q538 940 575 905T613 807Q612 731 563 683T433 635Q369 635 333 670ZM478 691T503 724T528 808Q528 847 514 865T468 884Q443 884 417 877Q377 832 377 772Q377 737 394 714T440 691Q478 691 503 724Z" />
<glyph unicode="&#xe6;" glyph-name="ae" horiz-adv-x="1024" d="M979 355T873 297T569 233V211Q569 128 600 81T687 33Q755 33 798 75T846 187Q917 187 917 133Q917 93 886 57T801 -2T680 -25Q603 -25 551 13T477 121H471Q434 51 381 13T265 -25Q211 -25 170
4T107 86T84 210Q84 309 135 393T273 526T464 575Q520 575 562 567Q574 551 574 529Q455 529 368 488T235 374T188 204Q188 131 218 91T303 50Q346 50 390 80T468 165Q464 188 464 218Q464 326 510 413T637 550T818 600Q894 600 936 563T979 458Q979 355 873 297ZM750
551T702 517T620 421T574 284Q722 285 804 333T887 467Q887 505 865 528T805 551Q750 551 702 517Z" />
<glyph unicode="&#xe7;" glyph-name="ccedilla" horiz-adv-x="616" d="M205 -25T146 38T86 213Q86 321 134 409T263 549T442 600Q499 600 531 582T564 533Q564 506 542 488T488 469Q411 469 377 536Q295 499 243 410T191 206Q191 125 221 79T306 33Q371 33 412
79T459 196Q530 196 530 141Q530 97 500 59T420 -2T310 -25Q205 -25 146 38ZM162 -301T130 -278T98 -217Q98 -182 134 -158T224 -134Q202 -145 189 -165T176 -206Q176 -252 227 -252Q261 -252 284 -228T308 -171Q308 -91 224 -53Q306 -53 352 -85T399 -173Q399
-209 375 -238T309 -284T216 -301Q162 -301 130 -278Z" />
<glyph unicode="&#xe8;" glyph-name="egrave" horiz-adv-x="647" d="M602 355T496 297T192 233V211Q192 128 223 81T310 33Q378 33 421 75T469 187Q540 187 540 133Q540 93 509 57T424 -2T303 -25Q201 -25 144 39T87 218Q87 326 133 413T260 550T441 600Q517 600
559 563T602 458Q602 355 496 297ZM373 551T325 517T243 421T197 284Q345 285 427 333T510 467Q510 505 488 528T428 551Q373 551 325 517ZM512 676T489 685T461 696Q406 717 363 729T274 742Q265 759 265 791Q265 846 316 846Q338 846 357 836T409 803Q445 777
477 758T555 720Q546 676 523 676Q512 676 489 685Z" />
<glyph unicode="&#xe9;" glyph-name="eacute" horiz-adv-x="647" d="M602 355T496 297T192 233V211Q192 128 223 81T310 33Q378 33 421 75T469 187Q540 187 540 133Q540 93 509 57T424 -2T303 -25Q201 -25 144 39T87 218Q87 326 133 413T260 550T441 600Q517 600
559 563T602 458Q602 355 496 297ZM373 551T325 517T243 421T197 284Q345 285 427 333T510 467Q510 505 488 528T428 551Q373 551 325 517ZM308 676T299 720Q344 738 376 757T445 803Q478 826 497 836T538 846Q589 846 589 791Q589 759 580 742Q534 742 491 730T393
696Q388 694 365 685T331 676Q308 676 299 720Z" />
<glyph unicode="&#xea;" glyph-name="ecircumflex" horiz-adv-x="647" d="M602 355T496 297T192 233V211Q192 128 223 81T310 33Q378 33 421 75T469 187Q540 187 540 133Q540 93 509 57T424 -2T303 -25Q201 -25 144 39T87 218Q87 326 133 413T260 550T441 600Q517
600 559 563T602 458Q602 355 496 297ZM373 551T325 517T243 421T197 284Q345 285 427 333T510 467Q510 505 488 528T428 551Q373 551 325 517ZM439 879T452 883T495 888Q519 888 535 877T553 841L558 748Q559 705 587 683Q570 673 556 669T525 664Q500 664 487
675T474 717Q474 760 476 788T486 841H472Q446 817 427 772T410 682Q407 675 388 670T345 664Q328 664 318 671T308 691Q308 728 342 779T417 866Q439 879 452 883Z" />
<glyph unicode="&#xeb;" glyph-name="edieresis" horiz-adv-x="647" d="M602 355T496 297T192 233V211Q192 128 223 81T310 33Q378 33 421 75T469 187Q540 187 540 133Q540 93 509 57T424 -2T303 -25Q201 -25 144 39T87 218Q87 326 133 413T260 550T441 600Q517
600 559 563T602 458Q602 355 496 297ZM373 551T325 517T243 421T197 284Q345 285 427 333T510 467Q510 505 488 528T428 551Q373 551 325 517ZM274 693T259 706T244 743Q244 769 264 789T318 810Q345 810 360 796T376 760Q376 732 355 713T301 693Q274 693 259
706ZM528 693T513 706T497 743Q497 769 517 789T572 810Q598 810 613 796T629 760Q629 732 608 713T555 693Q528 693 513 706Z" />
<glyph unicode="&#xec;" glyph-name="igrave" horiz-adv-x="388" d="M141 -25T127 -12T113 33Q113 75 133 184T204 525L163 566Q182 582 208 591T255 600Q282 600 293 589T305 550Q305 545 288 477Q255 344 233 231T210 40Q210 9 224 -3Q199 -25 168 -25Q141 -25
127 -12ZM346 676T323 685T295 696Q240 717 197 729T108 742Q99 759 99 791Q99 846 150 846Q172 846 191 836T243 803Q279 777 311 758T389 720Q380 676 357 676Q346 676 323 685Z" />
<glyph unicode="&#xed;" glyph-name="iacute" horiz-adv-x="388" d="M141 -25T127 -12T113 33Q113 75 133 184T204 525L163 566Q182 582 208 591T255 600Q282 600 293 589T305 550Q305 545 288 477Q255 344 233 231T210 40Q210 9 224 -3Q199 -25 168 -25Q141 -25
127 -12ZM142 676T133 720Q178 738 210 757T279 803Q312 826 331 836T372 846Q423 846 423 791Q423 759 414 742Q368 742 325 730T227 696Q222 694 199 685T165 676Q142 676 133 720Z" />
<glyph unicode="&#xee;" glyph-name="icircumflex" horiz-adv-x="388" d="M141 -25T127 -12T113 33Q113 75 133 184T204 525L163 566Q182 582 208 591T255 600Q282 600 293 589T305 550Q305 545 288 477Q255 344 233 231T210 40Q210 9 224 -3Q199 -25 168 -25Q141
-25 127 -12ZM273 879T286 883T329 888Q353 888 369 877T387 841L392 748Q393 705 421 683Q404 673 390 669T359 664Q334 664 321 675T308 717Q308 760 310 788T320 841H306Q280 817 261 772T244 682Q241 675 222 670T179 664Q162 664 152 671T142 691Q142 728
176 779T251 866Q273 879 286 883Z" />
<glyph unicode="&#xef;" glyph-name="idieresis" horiz-adv-x="388" d="M141 -25T127 -12T113 33Q113 75 133 184T204 525L163 566Q182 582 208 591T255 600Q282 600 293 589T305 550Q305 545 288 477Q255 344 233 231T210 40Q210 9 224 -3Q199 -25 168 -25Q141
-25 127 -12ZM108 693T93 706T78 743Q78 769 98 789T152 810Q179 810 194 796T210 760Q210 732 189 713T135 693Q108 693 93 706ZM362 693T347 706T331 743Q331 769 351 789T406 810Q432 810 447 796T463 760Q463 732 442 713T389 693Q362 693 347 706Z" />
<glyph unicode="&#xf0;" glyph-name="eth" horiz-adv-x="701" d="M565 698T524 690Q575 623 604 536T634 354Q634 244 594 158T481 23T316 -25Q248 -25 197 7T118 98T90 235Q90 341 132 424T248 553T418 600Q457 600 477 596Q433 676 367 719T222 763Q222 790
240 808T286 827Q376 827 461 758Q498 763 538 777Q580 792 603 811Q627 794 637 769Q640 762 640 754Q640 725 593 709Q565 698 524 690ZM401 33T447 66T519 162T545 306Q545 446 498 554Q405 552 337 512T232 400T195 230Q195 138 233 86T340 33Q401 33 447 66Z"
/>
<glyph unicode="&#xf1;" glyph-name="ntilde" horiz-adv-x="758" d="M116 -25T116 33Q116 78 144 221T209 509L166 552Q186 572 215 584T264 596Q291 596 300 586T310 547Q310 520 301 486T277 422L287 417Q389 600 547 600Q613 600 645 567T677 464Q677 423 668
379T642 267Q622 184 613 137T604 40Q604 11 615 -2Q592 -25 563 -25Q535 -25 522 -11T508 33Q508 71 516 117T541 249Q556 320 564 365T572 442Q572 533 504 533Q425 533 358 460T252 272T213 40Q213 9 223 -2Q200 -25 172 -25Q116 -25 116 33ZM327 698T317 708T306
743Q306 766 324 810Q364 799 383 799Q417 799 446 805T514 825Q535 832 555 837T590 842Q622 842 632 832T642 797Q642 769 624 729Q587 740 565 740Q532 740 502 734T435 715Q414 708 394 703T358 698Q327 698 317 708Z" />
<glyph unicode="&#xf2;" glyph-name="ograve" horiz-adv-x="727" d="M252 -25T200 7T119 99T90 238Q90 344 133 426T255 554T433 600Q478 600 511 592Q523 577 525 554Q420 554 346 513T233 399T195 230Q195 139 229 86T327 33Q391 33 443 69T528 172T570 326Q528
354 510 384T491 456Q491 489 510 510T559 532Q602 532 625 492T649 380Q649 269 606 176T487 29T322 -25Q252 -25 200 7ZM520 676T497 685T469 696Q414 717 371 729T282 742Q273 759 273 791Q273 846 324 846Q346 846 365 836T417 803Q453 777 485 758T563 720Q554
676 531 676Q520 676 497 685Z" />
<glyph unicode="&#xf3;" glyph-name="oacute" horiz-adv-x="727" d="M252 -25T200 7T119 99T90 238Q90 344 133 426T255 554T433 600Q478 600 511 592Q523 577 525 554Q420 554 346 513T233 399T195 230Q195 139 229 86T327 33Q391 33 443 69T528 172T570 326Q528
354 510 384T491 456Q491 489 510 510T559 532Q602 532 625 492T649 380Q649 269 606 176T487 29T322 -25Q252 -25 200 7ZM316 676T307 720Q352 738 384 757T453 803Q486 826 505 836T546 846Q597 846 597 791Q597 759 588 742Q542 742 499 730T401 696Q396 694
373 685T339 676Q316 676 307 720Z" />
<glyph unicode="&#xf4;" glyph-name="ocircumflex" horiz-adv-x="727" d="M252 -25T200 7T119 99T90 238Q90 344 133 426T255 554T433 600Q478 600 511 592Q523 577 525 554Q420 554 346 513T233 399T195 230Q195 139 229 86T327 33Q391 33 443 69T528 172T570
326Q528 354 510 384T491 456Q491 489 510 510T559 532Q602 532 625 492T649 380Q649 269 606 176T487 29T322 -25Q252 -25 200 7ZM447 879T460 883T503 888Q527 888 543 877T561 841L566 748Q567 705 595 683Q578 673 564 669T533 664Q508 664 495 675T482 717Q482
760 484 788T494 841H480Q454 817 435 772T418 682Q415 675 396 670T353 664Q336 664 326 671T316 691Q316 728 350 779T425 866Q447 879 460 883Z" />
<glyph unicode="&#xf5;" glyph-name="otilde" horiz-adv-x="727" d="M252 -25T200 7T119 99T90 238Q90 344 133 426T255 554T433 600Q478 600 511 592Q523 577 525 554Q420 554 346 513T233 399T195 230Q195 139 229 86T327 33Q391 33 443 69T528 172T570 326Q528
354 510 384T491 456Q491 489 510 510T559 532Q602 532 625 492T649 380Q649 269 606 176T487 29T322 -25Q252 -25 200 7ZM286 698T276 708T265 743Q265 766 283 810Q323 799 342 799Q376 799 405 805T473 825Q494 832 514 837T549 842Q581 842 591 832T601 797Q601
769 583 729Q546 740 524 740Q491 740 461 734T394 715Q373 708 353 703T317 698Q286 698 276 708Z" />
<glyph unicode="&#xf6;" glyph-name="odieresis" horiz-adv-x="727" d="M252 -25T200 7T119 99T90 238Q90 344 133 426T255 554T433 600Q478 600 511 592Q523 577 525 554Q420 554 346 513T233 399T195 230Q195 139 229 86T327 33Q391 33 443 69T528 172T570 326Q528
354 510 384T491 456Q491 489 510 510T559 532Q602 532 625 492T649 380Q649 269 606 176T487 29T322 -25Q252 -25 200 7ZM282 693T267 706T252 743Q252 769 272 789T326 810Q353 810 368 796T384 760Q384 732 363 713T309 693Q282 693 267 706ZM536 693T521 706T505
743Q505 769 525 789T580 810Q606 810 621 796T637 760Q637 732 616 713T563 693Q536 693 521 706Z" />
<glyph unicode="&#xf7;" glyph-name="divide" horiz-adv-x="700" d="M166 321T154 329T142 357Q142 379 158 424H531Q562 424 573 417T585 389Q585 363 569 321H197Q166 321 154 329ZM378 535T360 552T342 595Q342 625 362 646T414 668Q441 668 458 651T476 608Q476
579 455 557T404 535Q378 535 360 552ZM305 78T287 95T269 138Q269 168 289 189T341 211Q368 211 385 194T403 151Q403 122 382 100T331 78Q305 78 287 95Z" />
<glyph unicode="&#xf8;" glyph-name="oslash" horiz-adv-x="727" d="M649 270T607 178T491 32T328 -25L325 -39Q316 -78 279 -78Q260 -78 244 -68Q257 -27 260 -18Q181 2 136 69T90 238Q90 341 131 421T247 549T417 600Q419 604 421 616Q431 655 468 655Q487 655
502 644L487 597L511 592Q523 577 525 554Q498 554 473 551Q413 347 341 33Q402 37 451 75T531 177T570 326Q528 354 510 384T491 456Q491 489 510 510T559 532Q602 532 625 492T649 380Q649 270 607 178ZM195 159T216 111T278 43Q335 245 403 537Q303 506 249
425T195 230Q195 159 216 111Z" />
<glyph unicode="&#xf9;" glyph-name="ugrave" horiz-adv-x="737" d="M557 9T571 -3Q548 -25 515 -25Q487 -25 474 -4T460 63V73L450 78Q420 33 367 4T266 -25Q184 -25 145 14T105 137Q105 179 112 227T133 340Q146 404 151 439T157 505Q157 540 148 578Q163 588
179 594T206 600Q233 600 245 585T257 537Q257 512 249 467T225 345Q194 200 194 162Q194 101 220 69T297 37Q349 37 394 70T472 165Q490 268 547 512L510 566Q517 578 547 589T602 600Q629 600 640 589T652 550Q652 545 635 477Q602 344 580 231T557 40Q557 9
571 -3ZM521 676T498 685T470 696Q415 717 372 729T283 742Q274 759 274 791Q274 846 325 846Q347 846 366 836T418 803Q454 777 486 758T564 720Q555 676 532 676Q521 676 498 685Z" />
<glyph unicode="&#xfa;" glyph-name="uacute" horiz-adv-x="737" d="M557 9T571 -3Q548 -25 515 -25Q487 -25 474 -4T460 63V73L450 78Q420 33 367 4T266 -25Q184 -25 145 14T105 137Q105 179 112 227T133 340Q146 404 151 439T157 505Q157 540 148 578Q163 588
179 594T206 600Q233 600 245 585T257 537Q257 512 249 467T225 345Q194 200 194 162Q194 101 220 69T297 37Q349 37 394 70T472 165Q490 268 547 512L510 566Q517 578 547 589T602 600Q629 600 640 589T652 550Q652 545 635 477Q602 344 580 231T557 40Q557 9
571 -3ZM317 676T308 720Q353 738 385 757T454 803Q487 826 506 836T547 846Q598 846 598 791Q598 759 589 742Q543 742 500 730T402 696Q397 694 374 685T340 676Q317 676 308 720Z" />
<glyph unicode="&#xfb;" glyph-name="ucircumflex" horiz-adv-x="737" d="M557 9T571 -3Q548 -25 515 -25Q487 -25 474 -4T460 63V73L450 78Q420 33 367 4T266 -25Q184 -25 145 14T105 137Q105 179 112 227T133 340Q146 404 151 439T157 505Q157 540 148 578Q163
588 179 594T206 600Q233 600 245 585T257 537Q257 512 249 467T225 345Q194 200 194 162Q194 101 220 69T297 37Q349 37 394 70T472 165Q490 268 547 512L510 566Q517 578 547 589T602 600Q629 600 640 589T652 550Q652 545 635 477Q602 344 580 231T557 40Q557
9 571 -3ZM448 879T461 883T504 888Q528 888 544 877T562 841L567 748Q568 705 596 683Q579 673 565 669T534 664Q509 664 496 675T483 717Q483 760 485 788T495 841H481Q455 817 436 772T419 682Q416 675 397 670T354 664Q337 664 327 671T317 691Q317 728 351
779T426 866Q448 879 461 883Z" />
<glyph unicode="&#xfc;" glyph-name="udieresis" horiz-adv-x="737" d="M557 9T571 -3Q548 -25 515 -25Q487 -25 474 -4T460 63V73L450 78Q420 33 367 4T266 -25Q184 -25 145 14T105 137Q105 179 112 227T133 340Q146 404 151 439T157 505Q157 540 148 578Q163
588 179 594T206 600Q233 600 245 585T257 537Q257 512 249 467T225 345Q194 200 194 162Q194 101 220 69T297 37Q349 37 394 70T472 165Q490 268 547 512L510 566Q517 578 547 589T602 600Q629 600 640 589T652 550Q652 545 635 477Q602 344 580 231T557 40Q557
9 571 -3ZM283 693T268 706T253 743Q253 769 273 789T327 810Q354 810 369 796T385 760Q385 732 364 713T310 693Q283 693 268 706ZM537 693T522 706T506 743Q506 769 526 789T581 810Q607 810 622 796T638 760Q638 732 617 713T564 693Q537 693 522 706Z" />
<glyph unicode="&#xfd;" glyph-name="yacute" horiz-adv-x="654" d="M626 600T626 547Q626 375 555 201T353 -86T56 -200Q-1 -200 -29 -180T-57 -127Q-57 -108 -44 -80Q-22 -103 5 -117T85 -131Q134 -131 199 -105T325 -25Q248 -21 211 25T164 135T151 304Q149
379 145 425T127 513T85 580Q111 600 141 600Q191 600 214 564T242 474T249 328Q250 232 256 174T287 70T365 15Q439 98 484 224T529 525Q529 566 527 580Q551 593 561 596T587 600Q626 600 626 547ZM273 676T264 720Q309 738 341 757T410 803Q443 826 462 836T503
846Q554 846 554 791Q554 759 545 742Q499 742 456 730T358 696Q353 694 330 685T296 676Q273 676 264 720Z" />
<glyph unicode="&#xfe;" glyph-name="thorn" horiz-adv-x="741" d="M530 600T571 571T634 489T657 365Q657 266 606 182T468 49T278 0Q233 0 182 7Q174 -68 174 -129Q174 -141 179 -156T192 -177Q165 -200 129 -200Q106 -200 93 -184T79 -137Q79 -87 121 188T206
697L165 740Q184 756 211 765T262 775Q286 775 296 764T306 724Q306 686 295 622T258 440L265 434Q302 513 357 556T476 600Q530 600 571 571ZM298 49T381 90T509 204T554 371Q554 444 524 485T438 526Q360 526 302 426T198 127Q190 73 187 46Q298 49 381 90Z"
/>
<glyph unicode="&#xff;" glyph-name="ydieresis" horiz-adv-x="654" d="M626 600T626 547Q626 375 555 201T353 -86T56 -200Q-1 -200 -29 -180T-57 -127Q-57 -108 -44 -80Q-22 -103 5 -117T85 -131Q134 -131 199 -105T325 -25Q248 -21 211 25T164 135T151 304Q149
379 145 425T127 513T85 580Q111 600 141 600Q191 600 214 564T242 474T249 328Q250 232 256 174T287 70T365 15Q439 98 484 224T529 525Q529 566 527 580Q551 593 561 596T587 600Q626 600 626 547ZM239 693T224 706T209 743Q209 769 229 789T283 810Q310 810
325 796T341 760Q341 732 320 713T266 693Q239 693 224 706ZM493 693T478 706T462 743Q462 769 482 789T537 810Q563 810 578 796T594 760Q594 732 573 713T520 693Q493 693 478 706Z" />
<glyph unicode="&#x2013;" glyph-name="endash" horiz-adv-x="655" d="M70 236T57 244T44 276Q44 302 60 344Q74 337 103 332T171 327Q210 327 320 340Q397 349 450 354T553 359Q587 359 600 350T613 318Q613 293 597 250Q584 257 555 262T486 267Q447 267 337
254Q325 253 248 245T104 236Q70 236 57 244Z" />
<glyph unicode="&#x2014;" glyph-name="emdash" horiz-adv-x="798" d="M66 236T55 243T43 271Q43 296 60 344Q80 337 116 332T200 327Q264 327 402 341Q419 342 519 350T702 359Q733 359 745 352T757 324Q757 299 740 250Q694 267 599 267Q545 267 398 254Q204
236 98 236Q66 236 55 243Z" />
<glyph unicode="&#x2018;" glyph-name="quoteleft" horiz-adv-x="319" d="M283 724Q252 708 232 674T211 612L257 551Q256 520 231 497T173 473Q141 473 122 495T102 548Q102 619 147 671T272 753L283 724Z" />
<glyph unicode="&#x2019;" glyph-name="quoteright" horiz-adv-x="349" d="M124 503Q155 519 175 553T196 615L150 676Q151 707 176 730T234 754Q266 754 285 732T305 679Q305 608 260 557T135 474L124 503Z" />
<glyph unicode="&#x201a;" glyph-name="quotesinglbase" horiz-adv-x="334" d="M57 -143Q88 -127 108 -93T129 -31L83 30Q84 61 109 84T167 108Q199 108 218 86T238 33Q238 -38 193 -90T68 -172L57 -143Z" />
<glyph unicode="&#x201c;" glyph-name="quotedblleft" horiz-adv-x="528" d="M283 724Q252 708 232 674T211 612L257 551Q256 520 231 497T173 473Q141 473 122 495T102 548Q102 619 147 671T272 753L283 724ZM492 724Q461 708 441 674T420 612L466 551Q465 520
440 497T382 473Q350 473 331 495T311 548Q311 619 356 671T481 753L492 724Z" />
<glyph unicode="&#x201d;" glyph-name="quotedblright" horiz-adv-x="558" d="M124 503Q155 519 175 553T196 615L150 676Q151 707 176 730T234 754Q266 754 285 732T305 679Q305 608 260 557T135 474L124 503ZM333 503Q364 519 384 553T405 615L359 676Q360 707
385 730T443 754Q475 754 494 732T514 679Q514 608 469 557T344 474L333 503Z" />
<glyph unicode="&#x201e;" glyph-name="quotedblbase" horiz-adv-x="543" d="M57 -143Q88 -127 108 -93T129 -31L83 30Q84 61 109 84T167 108Q199 108 218 86T238 33Q238 -38 193 -90T68 -172L57 -143ZM266 -143Q297 -127 317 -93T338 -31L292 30Q293 61 318 84T376
108Q408 108 427 86T447 33Q447 -38 402 -90T277 -172L266 -143Z" />
<glyph unicode="&#x2022;" glyph-name="bullet" horiz-adv-x="388" d="M133 235T112 256T90 307Q90 343 114 369T176 395Q209 395 230 374T251 323Q251 288 226 262T164 235Q133 235 112 256Z" />
<glyph unicode="&#x2039;" glyph-name="guilsinglleft" horiz-adv-x="378" d="M339 468T278 417T110 300Q146 264 146 264Q222 187 250 151T278 78Q278 49 265 37T225 25Q61 229 61 288Q61 321 77 347T135 411T296 549Q297 549 307 547T328 532T339 501Q339 468 278 417Z" />
<glyph unicode="&#x203a;" glyph-name="guilsinglright" horiz-adv-x="378" d="M315 253T299 227T241 163T80 25Q79 25 69 27T48 42T37 73Q37 106 98 157T266 274Q230 310 230 310Q154 387 126 423T98 496Q98 525 111 537T151 549Q315 345 315 286Q315 253 299 227Z" />
</font>
</defs>
</svg>
