<?xml version="1.0" standalone="no"?>
<!DOCTYPE svg PUBLIC "-//W3C//DTD SVG 1.1//EN" "http://www.w3.org/Graphics/SVG/1.1/DTD/svg11.dtd">
<svg xmlns="http://www.w3.org/2000/svg">
<defs >
<font id="Lusitana" horiz-adv-x="435" ><font-face
    font-family="Lusitana"
    units-per-em="1000"
    panose-1="2 0 0 0 0 0 0 0 0 0"
    ascent="956"
    descent="-341"
    alphabetic="0" />
<glyph unicode=" " glyph-name="space" horiz-adv-x="198" />
<glyph unicode="!" glyph-name="exclam" horiz-adv-x="319" d="M229 662L227 626L186 208Q186 205 183 202T177 198L137 196Q133 196 133 206L78 662Q159 694 199 702Q219 702 226 687Q229 682 229 662ZM105 19T105 44T122 85T161 101T200 87T216 48T201 6T160
-12T119 3Z" />
<glyph unicode="&quot;" glyph-name="quotedbl" horiz-adv-x="295" d="M137 722Q143 722 143 704T134 586T120 480Q108 464 94 464T68 469Q66 510 46 666Q100 714 137 722ZM249 485Q237 469 223 469T197 474Q195 515 175 671Q229 719 266 727Q274 727 272 717Q272
691 263 591T249 485Z" />
<glyph unicode="#" glyph-name="numbersign" horiz-adv-x="453" d="M36 473L72 472H123L155 625Q169 634 188 634T220 628L187 471H267L299 625Q313 634 332 634T364 628L330 470H445Q450 462 450 453T436 429T404 408T382 401L316 403L291 289H399Q404 281 404
272T390 248T358 227T336 220L277 221L244 66Q241 61 234 61Q206 61 186 79L216 223L134 225L100 66Q97 61 90 61Q62 61 42 79L72 227L-24 230Q-29 237 -29 251T-10 292H0L85 291L110 408L22 411Q7 433 36 473ZM148 290H230L253 404L173 407L148 290Z" />
<glyph unicode="$" glyph-name="dollar" horiz-adv-x="549" d="M35 506Q35 592 96 638T247 691V792Q255 798 281 803T321 809V689Q406 681 481 648Q491 628 491 564T486 463L423 465Q416 590 321 616V394Q446 336 485 290Q529 236 529 171T476 52T321 -10V-93Q316
-98 292 -102T249 -106L248 -11Q160 -4 52 35Q47 51 38 113T24 217L99 231Q118 147 153 109T248 65V295Q213 312 204 316T163 336T121 362T89 389T58 422Q35 465 35 506ZM167 534Q167 475 247 431V621Q214 616 191 595T167 534ZM397 153Q397 210 321 257V68Q397
83 397 153Z" />
<glyph unicode="%" glyph-name="percent" horiz-adv-x="698" d="M440 -2T399 46T357 167T415 298T542 356T652 308T694 186T636 55T509 -2ZM103 376T62 424T20 545T78 676T205 734T315 686T357 564T299 433T172 376ZM195 437Q255 437 255 544Q255 600 235 638T181
676Q122 676 122 567Q122 437 195 437ZM532 59Q592 59 592 166Q592 222 572 260T518 298Q459 298 459 189Q459 59 532 59ZM518 714Q542 723 568 723T612 716L157 -1Q151 -5 124 -8T87 -12T73 -12T67 -8T64 -2Q64 -1 518 714Z" />
<glyph unicode="&amp;" glyph-name="ampersand" horiz-adv-x="822" d="M814 -2L705 1Q661 1 615 -1L499 86Q404 -12 271 -12Q167 -12 97 42T27 165T60 285T169 387Q145 412 131 430T104 479T91 529T90 554Q90 623 147 672T281 722T404 686T450 590Q450 503 325
412L513 243Q528 276 538 316T549 377T479 399L462 451L612 448L748 451L761 399Q674 399 658 368L573 201L718 86Q772 44 806 44L814 -2ZM156 202Q156 145 195 103T291 61Q389 61 443 133L221 341Q195 317 176 277T156 202ZM350 617T332 641T280 665T227 641T208
586T228 519T277 455Q350 525 350 585Q350 617 332 641Z" />
<glyph unicode="&apos;" glyph-name="quotesingle" horiz-adv-x="192" d="M119 533Q107 517 93 517T67 522Q65 563 45 719Q99 767 136 775Q144 775 142 765Q142 739 133 639T119 533Z" />
<glyph unicode="(" glyph-name="parenleft" horiz-adv-x="361" d="M39 152T39 281T108 544T283 771Q287 774 296 774T326 764T348 746Q160 537 160 291Q160 166 214 36T351 -187Q351 -195 329 -207T298 -220T285 -217Q169 -120 104 16Z" />
<glyph unicode=")" glyph-name="parenright" horiz-adv-x="361" d="M321 410T321 281T256 16T75 -217Q71 -220 63 -220T32 -208T9 -187Q92 -94 146 36T200 291Q200 537 12 746Q12 754 33 764T64 774T77 771Q182 678 251 544Z" />
<glyph unicode="*" glyph-name="asterisk" horiz-adv-x="362" d="M36 441Q23 454 23 459T24 467T26 476T29 484Q32 490 36 502L137 523L43 600Q51 622 96 628L169 563Q180 611 184 662Q208 679 225 679T247 671Q247 670 242 652Q228 598 221 555Q311 580 332 589Q340
577 340 568Q340 543 328 528Q327 526 313 523Q254 510 237 505L341 424Q335 415 317 409T289 402T201 466Q181 366 181 345Q157 349 130 381L154 486L36 441Z" />
<glyph unicode="+" glyph-name="plus" horiz-adv-x="568" d="M239 197Q150 197 54 195Q44 204 40 222T35 253T39 279Q129 277 239 277Q239 399 237 446Q247 456 275 464T322 472Q320 417 320 277Q394 277 498 279Q509 268 516 242T524 195Q406 197 320 197Q320
112 322 10Q313 0 291 -6T257 -12T237 -11Q239 91 239 197Z" />
<glyph unicode="," glyph-name="comma" horiz-adv-x="242" d="M27 1Q13 14 13 73Q13 94 18 97Q40 118 80 118T147 90T173 17T141 -89T47 -193Q45 -193 39 -193T18 -187T-3 -173Q52 -122 64 -102Q86 -64 86 -34T63 2Q52 4 43 4T27 1Z" />
<glyph unicode="-" glyph-name="hyphen" horiz-adv-x="375" d="M52 264Q52 264 205 263L311 264Q318 256 324 223T331 173L204 174L63 173Q56 180 53 204T49 242T52 264Z" />
<glyph unicode="." glyph-name="period" horiz-adv-x="230" d="M83 -12T66 7T49 54T69 102T115 121T161 104T180 58T162 9T114 -12Z" />
<glyph unicode="/" glyph-name="slash" horiz-adv-x="452" d="M329 740Q356 749 385 749T432 743L129 -46Q122 -57 95 -61T52 -65T26 -61L329 740Z" />
<glyph unicode="0" glyph-name="zero" horiz-adv-x="609" d="M178 -12T102 81T25 327T101 586T302 692T506 596T584 346T508 91T305 -12ZM323 56Q386 56 419 132T453 315Q453 434 420 524Q402 572 369 600T291 628Q231 628 194 549T156 373Q156 249 188 160Q206
112 240 84T323 56Z" />
<glyph unicode="1" glyph-name="one" horiz-adv-x="340" d="M183 0L38 -1L27 51Q64 52 82 58T102 70T105 85V568Q105 611 54 611Q41 611 20 608L0 657Q74 670 119 683L214 711Q232 711 236 706T240 677L241 85Q241 51 304 51Q307 51 311 51L324 -3L183 0Z" />
<glyph unicode="2" glyph-name="two" horiz-adv-x="543" d="M218 606Q135 606 73 518Q62 518 49 526T34 548Q116 691 260 691Q353 691 415 644T477 512Q477 454 447 402Q420 355 397 326T351 272T314 228T276 186T222 132T188 99H351Q392 99 409 118T444 199L493
175Q493 138 484 82Q483 75 456 -16Q411 0 291 0H218Q97 0 20 -6Q10 19 10 33L57 70Q138 136 208 222Q332 375 332 494Q332 546 300 576T218 606Z" />
<glyph unicode="3" glyph-name="three" horiz-adv-x="452" d="M276 565T251 585T186 606T103 587T38 539Q18 539 4 574Q32 621 86 656T218 692T346 656T397 559Q397 446 238 381Q422 318 422 200Q422 100 334 44T119 -12Q39 -12 13 3Q6 9 10 24T21 40Q79 38 82
38Q169 38 227 85T285 200Q285 247 246 275T160 304T82 296Q76 306 72 324T67 349Q68 350 94 362T138 384T184 412T231 446Q276 488 276 526Z" />
<glyph unicode="4" glyph-name="four" horiz-adv-x="595" d="M311 228H46Q27 228 16 236T4 251T10 267L373 680Q382 690 392 691T412 692H431Q448 668 447 651Q433 628 433 572V312H457Q520 312 549 330Q565 312 565 297Q565 258 535 213Q490 227 433 228V-12Q354
-10 311 11V228ZM315 312V518L144 312H315Z" />
<glyph unicode="5" glyph-name="five" horiz-adv-x="453" d="M197 680H290Q325 680 341 692T374 750L418 722Q418 661 383 572Q335 584 135 584Q130 567 122 540T109 495Q252 477 329 416T407 275Q407 211 376 158T294 70Q190 1 67 1Q63 1 58 11T52 30T62 43Q155
59 218 110T281 234T204 346T17 386L89 652Q96 679 108 691Q152 680 197 680Z" />
<glyph unicode="6" glyph-name="six" horiz-adv-x="525" d="M292 407Q374 407 438 355T503 209T440 52T263 -12T87 48T24 225T118 473T354 692Q355 692 361 690T369 686T377 683T386 678T392 672Q399 666 399 659Q360 628 305 569T235 490Q192 431 173 382Q238
407 292 407ZM236 344T211 333T170 301T155 209T187 97T271 56T347 94T372 192T342 298T261 344Q236 344 211 333Z" />
<glyph unicode="7" glyph-name="seven" horiz-adv-x="514" d="M398 680Q470 680 511 690Q516 682 516 649L217 -13Q212 -12 201 -10T183 -7T168 -2Q154 2 156 16L377 583H159Q124 583 104 565T67 499L14 533Q14 533 14 557Q14 576 16 583T20 603T27 627T36 656T49
693Q87 682 184 680H398Z" />
<glyph unicode="8" glyph-name="eight" horiz-adv-x="510" d="M25 168Q25 235 72 282Q109 317 162 353Q109 390 85 415Q39 462 39 515Q39 595 99 644T258 693T408 651T461 545Q461 451 337 363Q448 300 475 237Q488 206 488 169Q488 87 424 38T259 -12T91 33T25
168ZM308 56T337 85T367 160T325 245T207 326Q182 300 164 259T146 171T177 90T258 56ZM160 537Q160 451 291 387Q313 415 326 455T340 535T315 601T248 629T183 600T160 537Z" />
<glyph unicode="9" glyph-name="nine" horiz-adv-x="525" d="M351 274Q308 256 231 256T88 316T22 470T85 627T262 691T438 631T501 453T419 208T202 -12Q161 0 156 20Q221 67 278 141T351 274ZM352 376Q370 401 370 472T338 586T254 629T178 589T153 488T183
385T270 342T352 376Z" />
<glyph unicode=":" glyph-name="colon" horiz-adv-x="243" d="M72 26T72 55T92 103T139 123T185 106T205 60T187 9T138 -12T89 7ZM72 294T72 323T92 371T139 391T185 374T205 328T187 277T138 256T89 275Z" />
<glyph unicode=";" glyph-name="semicolon" horiz-adv-x="298" d="M75 294T75 323T95 371T142 391T188 374T208 328T190 277T141 256T92 275ZM104 1Q90 14 90 73Q90 94 95 97Q118 118 158 118T224 90T250 17T218 -89T124 -193Q122 -193 116 -193T95 -187T74 -173Q129
-122 141 -102Q163 -64 163 -34T140 2Q129 4 120 4T104 1Z" />
<glyph unicode="&lt;" glyph-name="less" horiz-adv-x="500" d="M481 539T481 497T477 442L166 275V271L477 103Q480 82 480 46T477 0L68 213Q63 218 59 258T54 310T55 323L477 544Q481 539 481 497Z" />
<glyph unicode="=" glyph-name="equal" horiz-adv-x="527" d="M42 217Q42 217 267 215L474 217Q481 209 487 179T494 133L266 135L53 133Q46 140 43 162T39 196T42 217ZM37 363L262 361L469 363Q476 355 482 325T489 279L261 281L48 279Q41 286 38 308T34 342T37 363Z" />
<glyph unicode="&gt;" glyph-name="greater" horiz-adv-x="547" d="M479 323Q480 321 480 310T476 259T466 213L57 0Q54 10 54 26Q54 82 57 103L368 271V275L57 442Q53 454 53 496T57 544L479 323Z" />
<glyph unicode="?" glyph-name="question" horiz-adv-x="380" d="M287 520Q287 546 259 565T191 585T129 581T107 576Q99 576 92 607T85 665T141 692Q181 692 213 678Q285 647 322 600T360 500T340 411T270 342Q212 306 201 296T184 280Q175 268 175 250T194 210Q190
191 177 189Q170 188 149 200T105 238T83 294T102 356T159 413L182 428V427Q208 443 218 448T237 460T252 470T264 479T274 489T280 499Q287 508 287 520ZM111 19T111 44T128 85T167 101T206 87T222 48T207 6T166 -12T125 3Z" />
<glyph unicode="@" glyph-name="at" horiz-adv-x="847" d="M340 -8Q302 -8 282 20Q261 50 261 92Q261 252 370 354Q422 402 491 402Q532 402 545 373L553 408Q583 424 637 424Q573 74 573 68T571 62Q613 62 666 142T720 341Q720 436 671 483T537 531Q450 531 361
474Q312 442 272 397T206 279T180 118Q180 -5 249 -81T423 -158Q428 -163 428 -164Q428 -187 366 -187Q289 -187 212 -142Q170 -117 137 -83T82 4T60 120Q60 250 130 356T316 521T562 579T766 513T840 351Q840 284 805 216T717 99T608 19T508 -12T465 24Q465 48
484 121Q459 86 441 64T393 17T340 -8ZM422 102Q525 209 525 312Q525 327 515 342T487 358Q436 358 396 281T355 119Q355 67 374 67Q389 67 422 102Z" />
<glyph unicode="A" glyph-name="A" horiz-adv-x="747" d="M129 0L7 -4L0 51Q35 54 57 68T89 98T111 148L320 710H407L643 132Q661 87 680 69T736 50L747 -3Q701 0 596 0T444 -3L435 50Q488 50 501 57T514 75T508 98L441 248H224L182 128Q178 117 178 107Q178 86
203 69T280 51L290 -4L129 0ZM323 529L246 312H413L323 529Z" />
<glyph unicode="B" glyph-name="B" horiz-adv-x="653" d="M330 -4L188 0Q120 0 43 -3L31 51Q79 52 94 61T110 87V623Q110 641 97 650T43 659L30 713Q150 710 170 710L330 714Q565 714 565 550Q565 440 432 388Q508 374 561 327T615 211Q615 109 543 53T330 -4ZM424
590T389 620T301 650T248 643V398Q250 397 289 397Q352 397 388 433T424 529ZM248 115Q248 59 320 59T431 99T469 195Q469 273 420 308T310 343T248 342V115Z" />
<glyph unicode="C" glyph-name="C" horiz-adv-x="768" d="M434 652Q319 652 258 572T196 364T268 148T455 60Q608 60 670 213L738 198Q738 189 712 117T680 45Q576 -12 435 -12Q261 -12 151 85T40 341Q40 521 154 621T448 722Q527 722 619 700Q666 691 704 685Q715
662 715 606T709 492L637 500Q630 559 609 590Q566 652 434 652Z" />
<glyph unicode="D" glyph-name="D" horiz-adv-x="832" d="M353 -3L173 2Q120 2 43 -1L31 53Q79 54 94 63T110 89V622Q110 640 97 649T43 658L30 712Q150 709 170 709L370 711Q568 711 680 622T792 365T678 97T353 -3ZM505 60T571 135T637 352T562 573T346 652H271Q245
652 245 645V126Q245 100 250 89T285 69T380 60Q505 60 571 135Z" />
<glyph unicode="E" glyph-name="E" horiz-adv-x="669" d="M438 651L313 650H289Q248 648 248 646V399H414Q426 399 426 495L482 504L479 366Q479 309 482 243L424 232Q424 289 422 305T412 321H248V115Q248 82 266 72T327 62H421Q556 62 605 206L659 195Q659 178
630 89T587 0L356 -1Q356 -1 173 0Q120 0 43 -3L31 51Q79 52 94 61T110 87V623Q110 641 97 650T43 659L30 713Q150 710 170 710H429L585 709Q597 682 597 622T592 515L548 522Q537 591 512 621T438 651Z" />
<glyph unicode="F" glyph-name="F" horiz-adv-x="607" d="M482 504L479 366Q479 309 482 243L424 232Q424 289 422 305T412 321H248V87Q248 68 266 60T345 51L358 -3Q238 0 179 0T43 -3L31 51Q79 52 94 61T110 87V623Q110 641 97 650T43 659L30 713Q150 710 170
710H585Q597 676 597 617T592 515L548 522Q537 591 512 621T438 651H289Q248 649 248 646V399H414Q426 399 426 495L482 504Z" />
<glyph unicode="G" glyph-name="G" horiz-adv-x="820" d="M432 653Q321 653 259 572T196 362T261 147T446 60Q501 60 542 78T583 138V244Q583 257 576 264Q560 280 466 280L453 334Q573 331 642 331T788 334L800 280Q752 279 737 270T721 244V137Q721 61 695 52L702
53Q587 -12 432 -12Q249 -12 145 85T40 349T155 619T446 722Q511 722 584 707T700 685Q712 660 712 605T706 492L656 501Q642 579 583 616T432 653Z" />
<glyph unicode="H" glyph-name="H" horiz-adv-x="837" d="M253 623V399H584V623Q584 641 571 650T517 659L504 713Q624 710 668 710T789 713L801 659Q753 658 738 649T722 623V87Q722 69 735 60T789 51L802 -3Q682 0 638 0T517 -3L505 51Q553 52 568 61T584 87V322H253V87Q253
69 266 60T320 51L333 -3Q213 0 169 0T48 -3L36 51Q84 52 99 61T115 87V623Q115 641 102 650T48 659L35 713Q155 710 199 710T320 713L332 659Q284 658 269 649T253 623Z" />
<glyph unicode="I" glyph-name="I" horiz-adv-x="358" d="M248 623V87Q248 69 261 60T315 51L328 -3Q208 0 164 0T43 -3L31 51Q79 52 94 61T110 87V623Q110 641 97 650T43 659L30 713Q150 710 194 710T315 713L327 659Q279 658 264 649T248 623Z" />
<glyph unicode="J" glyph-name="J" horiz-adv-x="372" d="M263 623V66Q263 -52 197 -133T40 -256Q31 -255 26 -249Q15 -234 15 -230T26 -219Q75 -183 97 -112T121 80L125 623Q125 641 112 650T58 659L45 713Q165 710 209 710T330 713L342 659Q294 658 279 649T263 623Z" />
<glyph unicode="K" glyph-name="K" horiz-adv-x="722" d="M737 -3L610 0Q567 0 540 -1Q502 45 382 178T249 312H248V87Q248 69 261 60T315 51L328 -3Q208 0 164 0T43 -3L31 51Q79 52 94 61T110 87V623Q110 641 97 650T43 659L30 713Q150 710 194 710T315 713L327
659Q279 658 264 649T248 623V384Q309 442 398 538T487 646T421 659L408 713Q528 710 572 710T693 713L705 659Q603 656 575 626L353 389L632 87Q670 51 724 51L737 -3Z" />
<glyph unicode="L" glyph-name="L" horiz-adv-x="632" d="M329 -2L172 0Q118 0 42 -3L30 51Q78 52 93 61T109 87L113 623Q113 641 100 650T46 659L33 713Q153 710 197 710T318 713L330 659Q282 658 267 649T251 623V114Q251 61 300 61H394Q529 61 578 205L632
194Q632 177 603 89T560 0L329 -2Z" />
<glyph unicode="M" glyph-name="M" horiz-adv-x="992" d="M737 714L836 710Q873 710 949 713L961 659Q913 658 898 649T882 623V87Q882 69 895 60T949 51L962 -3Q842 0 798 0T677 -3L665 51Q713 52 728 61T744 87V503Q715 442 632 269T506 4L480 -8L216 524V87Q216
69 229 60T283 51L296 -3Q176 0 148 0T43 -3L31 51Q117 53 117 87V623Q117 659 43 659L30 713Q150 710 192 710T260 713Q279 657 329 559T394 427Q417 366 514 193Q554 283 584 354T637 475T680 570Q737 695 737 714Z" />
<glyph unicode="N" glyph-name="N" horiz-adv-x="826" d="M721 -4Q701 0 678 0T639 -3L216 534V87Q216 69 229 60T283 51L296 -3Q176 0 148 0T43 -3L31 51Q117 53 117 87V623Q117 659 43 659L30 713Q150 710 192 710T260 713Q260 701 274 681T297 646T322 611T349
575T379 538Q445 455 459 437T540 333T622 228L621 623Q621 641 608 650T554 659L541 713Q661 710 689 710T794 713L806 659Q720 657 720 623L721 -4Z" />
<glyph unicode="O" glyph-name="O" horiz-adv-x="843" d="M252 -12T146 86T40 342T153 611T430 722T699 623T803 364T693 97T417 -12ZM303 108Q361 60 450 60T593 136T648 326Q648 467 585 560T403 653Q309 653 252 575T195 383Q195 196 303 108Z" />
<glyph unicode="P" glyph-name="P" horiz-adv-x="599" d="M317 714Q435 714 509 665T584 518Q584 465 562 425T502 361Q428 315 328 315Q300 315 277 320Q266 329 266 348T274 376Q290 373 316 373Q376 373 413 412T450 523Q450 649 303 649Q248 649 248 642V87Q248
68 266 60T345 51L358 -3Q238 0 179 0T43 -3L31 51Q79 52 94 61T110 87V623Q110 641 97 650T43 659L30 713Q162 710 170 710Q297 714 317 714Z" />
<glyph unicode="Q" glyph-name="Q" horiz-adv-x="849" d="M40 345Q40 500 153 611T430 722T699 623T803 361Q803 238 731 140T532 2Q618 -7 694 -44Q845 -115 938 -115Q960 -115 999 -110T1055 -99T1079 -95T1090 -105L1109 -130Q1063 -160 996 -180T867 -200T736
-182T629 -145T537 -97L538 -98Q492 -72 450 -52T302 4L291 7L292 6Q175 39 108 129T40 345ZM303 108Q361 60 449 60T592 135T647 326Q647 467 585 560T403 653Q309 653 252 575T195 383Q195 196 303 108Z" />
<glyph unicode="R" glyph-name="R" horiz-adv-x="715" d="M730 -3L631 0Q599 0 517 -2Q508 10 495 30T462 80T391 188T312 302Q312 303 313 303H248V87Q248 69 261 60T315 51L328 -3Q208 0 164 0T43 -3L31 51Q79 52 94 61T110 87V623Q110 641 97 650T43 659L30
713Q150 710 170 710L319 714Q437 714 511 666T586 518Q586 385 446 329Q488 274 507 246H506Q616 95 626 86Q662 52 711 49L730 -3ZM248 643V358Q265 357 290 357Q369 357 409 400T450 512T409 616T308 650T248 643Z" />
<glyph unicode="S" glyph-name="S" horiz-adv-x="585" d="M137 138T177 99T281 60T374 90T403 166T368 245T282 304T181 357T95 430T59 536Q59 628 129 675T306 722T507 678Q517 658 517 594T512 493L449 495Q442 653 292 653Q252 653 226 630T200 569T225 504T289
457T372 412T455 361T519 293T545 200Q545 110 478 49T304 -12T68 35Q63 51 54 113T40 217L115 231Q137 138 177 99Z" />
<glyph unicode="T" glyph-name="T" horiz-adv-x="683" d="M455 643H400V87Q400 68 415 60T477 51L490 -3Q370 0 316 0T185 -3L173 51Q228 52 245 61T262 87V643H229Q138 643 114 620Q93 603 78 519L32 518Q22 567 22 620T34 718Q73 710 122 710H556Q623 710 657
718Q663 649 663 609T652 515L605 522Q594 602 569 620Q537 643 455 643Z" />
<glyph unicode="U" glyph-name="U" horiz-adv-x="788" d="M431 -12Q270 -12 190 51T110 253V623Q110 641 97 650T43 659L30 713Q150 710 194 710T315 713L327 659Q279 658 264 649T248 623V265Q248 60 439 60Q511 60 546 110T582 251V623Q582 641 569 650T515
659L502 713Q622 710 651 710T756 713L768 659Q720 658 705 649T689 623V260Q689 -12 431 -12Z" />
<glyph unicode="V" glyph-name="V" horiz-adv-x="722" d="M593 710L715 713L722 660Q669 654 646 628Q627 605 611 562L402 0H317L104 577Q87 622 67 641T11 660L0 713Q46 710 159 710T303 713L312 660Q259 660 247 653T234 634T239 611L402 187L540 582Q544 593
544 603Q544 624 519 641T442 660L432 713L593 710Z" />
<glyph unicode="W" glyph-name="W" horiz-adv-x="1078" d="M164 710L303 713L312 659Q259 659 247 652T234 634T239 611L402 187L500 468L460 577Q443 622 423 640T367 659L356 712Q456 710 511 710T659 713L668 659Q615 659 603 652T590 634T595 611L758 187L896
582Q900 593 900 603Q900 624 875 641T798 659L788 713L949 710L1071 713L1078 659Q1043 656 1021 642T989 612T967 562L758 0H673L538 365L402 0H317L104 577Q87 622 67 640T11 659L0 713Q46 710 164 710Z" />
<glyph unicode="X" glyph-name="X" horiz-adv-x="755" d="M297 -3L143 0L14 -3L0 52Q5 52 15 54T33 57T46 60T57 64T70 70T81 77Q91 84 103 98L304 343L123 578Q94 621 71 639T14 658L3 713Q49 710 171 710T326 713L338 658Q295 658 279 649T262 631T268 613L385
451L508 599Q519 615 519 624T514 640Q501 653 457 658L446 713L599 710L729 714L741 658Q663 658 625 610L436 384L635 122Q665 82 685 67T740 52L755 -3Q694 1 590 1T433 -4L419 52Q466 52 480 57T495 72Q495 79 490 88L366 277L223 101Q205 78 231 62Q244 55
281 51L297 -3Z" />
<glyph unicode="Y" glyph-name="Y" horiz-adv-x="763" d="M322 660Q256 660 256 640Q256 629 269 612L405 387L544 582Q564 607 564 623T548 649T493 660L483 713L634 710L756 713L763 660Q736 660 709 644T667 612T624 562L457 334L458 87Q458 69 471 60T525
51L538 -3Q418 0 374 0T253 -3L241 51Q289 52 304 61T320 87V310L134 578Q73 660 11 660L0 713Q46 710 164 710T313 713L322 660Z" />
<glyph unicode="Z" glyph-name="Z" horiz-adv-x="685" d="M432 0H132Q69 0 31 -11Q15 16 15 18L460 647H262Q180 647 154 622Q133 604 118 522L65 520Q56 566 56 624T68 722Q109 710 154 710H556Q602 710 644 722Q657 697 657 692Q431 380 264 134Q230 82 224
69H518Q556 69 574 99T602 204L659 211Q665 152 665 97T655 -4Q555 0 432 0Z" />
<glyph unicode="[" glyph-name="bracketleft" horiz-adv-x="336" d="M373 -341L340 -340Q258 -335 122 -335Q96 -335 96 -310V794Q96 820 121 820Q208 820 372 826L380 764Q354 764 323 764T260 763T221 758T212 745V-260Q212 -272 247 -275T380 -279L373 -341Z" />
<glyph unicode="\" glyph-name="backslash" horiz-adv-x="373" d="M355 -61Q344 -65 329 -65T287 -61T252 -46L-51 743Q-34 749 -19 749Q25 749 52 740L355 -61Z" />
<glyph unicode="]" glyph-name="bracketright" horiz-adv-x="336" d="M14 -340L-19 -341L-26 -279Q72 -279 107 -276T142 -260V745Q142 754 134 758Q117 764 59 764T-26 764L-18 826Q145 820 233 820Q258 820 258 794V-310Q258 -335 232 -335Q96 -335 14 -340Z" />
<glyph unicode="^" glyph-name="asciicircum" horiz-adv-x="833" d="M229 691L290 693Q302 693 311 676L498 322Q498 312 487 304T439 282L265 584L101 271Q57 286 49 294T41 309L229 691Z" />
<glyph unicode="_" glyph-name="underscore" horiz-adv-x="600" d="M4 -2Q4 -2 307 -4L577 -2Q587 -12 593 -36T600 -77L306 -74L17 -77Q9 -69 5 -52T1 -23T4 -2Z" />
<glyph unicode="`" glyph-name="grave" horiz-adv-x="266" d="M25 656Q24 657 24 659T28 664Q89 703 137 703L224 522Q218 500 188 493L25 656Z" />
<glyph unicode="a" glyph-name="a" horiz-adv-x="457" d="M189 170T166 153T143 112T159 74T203 60T254 82L252 183Q189 170 166 153ZM439 69L447 28Q430 21 377 5T310 -12T291 -9T280 2T273 14T267 31T262 47Q208 -12 139 -12Q94 -12 63 16T32 87Q32 144 77 171T249
226V262Q249 320 236 348T191 377T140 367V303Q140 297 108 291T61 285T46 321Q46 338 52 357T65 384Q83 404 142 426T233 448Q298 448 334 408T371 290V87Q371 68 387 68L414 69H439Z" />
<glyph unicode="b" glyph-name="b" horiz-adv-x="556" d="M198 107Q198 83 228 67T296 50Q345 50 369 94T393 201Q393 375 290 375Q268 375 240 367T198 348V107ZM198 391Q258 448 336 448T469 386T524 233Q524 123 460 56T290 -12Q231 -12 159 23L129 -5Q120
-13 107 -10L95 -7Q77 -2 78 18T80 129L78 619Q78 656 66 666T39 676T13 675L0 713Q91 736 167 766Q186 766 191 759T197 737L198 391Z" />
<glyph unicode="c" glyph-name="c" horiz-adv-x="459" d="M215 387T190 347T165 238T198 114T298 59T416 106Q423 113 428 107L444 85Q410 42 360 15T257 -12Q155 -12 95 50T35 207Q35 322 101 385T261 448Q308 448 362 430T436 393Q437 391 437 388Q437 372 401
321Q397 317 390 317T364 334Q309 387 262 387Z" />
<glyph unicode="d" glyph-name="d" horiz-adv-x="568" d="M357 44Q305 -12 227 -12T92 45T35 198Q35 314 101 381T249 448Q299 448 350 429V619Q350 656 337 666T306 676T275 675L262 713Q370 737 444 766Q463 766 468 759T474 737V113Q474 90 478 82Q484 68 518
68H533L554 69L563 17Q456 11 376 -12Q357 -12 357 -1V44ZM166 153T197 110T269 66T350 95V300Q350 336 327 356T264 377Q166 377 166 229Q166 153 197 110Z" />
<glyph unicode="e" glyph-name="e" horiz-adv-x="476" d="M437 236H165Q165 178 187 127Q200 97 229 78T297 59T367 74T411 101T428 107L444 85Q410 43 360 16T261 -12Q153 -12 94 49T35 215T101 384T252 448T391 399T446 251Q446 236 437 236ZM331 296Q331 387
256 387Q219 387 196 359T169 296H331Z" />
<glyph unicode="f" glyph-name="f" horiz-adv-x="374" d="M95 76V361H45Q32 389 32 402Q51 404 95 416V434Q95 515 125 590T215 716T346 766Q384 766 420 752T473 717Q474 715 474 710T463 682T434 645Q430 641 423 641Q417 644 396 659Q343 698 303 698Q220 698
220 554V424H336Q338 415 338 399T325 361H220L219 76Q219 60 230 53T278 45L289 -3Q184 0 143 0T35 -3L25 45Q66 46 80 53T95 76Z" />
<glyph unicode="g" glyph-name="g" horiz-adv-x="525" d="M170 251T194 220T256 188T312 218T332 289T309 361T246 391T189 364T170 294ZM437 294Q437 217 383 169T248 121H203Q172 113 172 97T207 75Q237 66 310 61Q399 52 422 43Q496 15 496 -66T416 -207T238
-267T80 -233T20 -122Q20 -91 41 -70Q49 -62 127 -10Q105 0 87 23T68 63T76 87T121 117T160 141Q120 155 91 193T61 279Q61 349 111 398T244 448Q268 448 327 440T435 431T504 434Q504 431 504 423Q504 379 490 354L404 370Q418 362 427 338T437 294ZM311 -203T341
-176T372 -108Q372 -29 217 -29Q199 -29 187 -36Q139 -67 139 -118Q139 -157 170 -180T256 -203Z" />
<glyph unicode="h" glyph-name="h" horiz-adv-x="608" d="M220 737V388Q296 428 331 438T391 448Q449 448 485 406T521 284V76Q521 60 532 53T580 45L591 -3Q486 0 445 0T337 -3L327 45Q368 46 382 53T397 76V254Q397 307 380 332T318 358T220 335V76Q220 45 284
45L295 -3Q190 0 149 0T41 -3L31 45Q72 46 86 53T101 76V619Q101 656 89 666T62 676T36 675L23 713Q114 736 190 766Q209 766 214 759T220 737Z" />
<glyph unicode="i" glyph-name="i" horiz-adv-x="319" d="M234 433V76Q234 60 245 53T293 45L304 -3Q199 0 159 0T51 -3L41 45Q82 46 96 53T110 76V316Q110 339 98 351T50 364H37L23 405Q113 426 201 456Q222 456 228 452T234 433ZM143 551T123 569T103 615T124
664T173 685T220 667T240 621T219 572T170 551Z" />
<glyph unicode="j" glyph-name="j" horiz-adv-x="272" d="M31 -267Q20 -267 10 -254T0 -238T5 -230Q60 -180 76 -110T94 63L96 317Q96 343 85 354T36 365H23L9 406Q99 427 187 457Q208 457 214 453T220 434L219 62Q219 -45 164 -141T31 -267ZM125 551T105 569T85
615T106 664T155 685T202 667T222 621T201 572T152 551Z" />
<glyph unicode="k" glyph-name="k" horiz-adv-x="552" d="M225 737V257Q296 320 333 366Q341 377 333 381T307 385L296 433Q401 430 421 430T510 433L520 385Q510 386 500 386Q459 386 436 365L325 251Q348 218 392 168T468 89Q519 45 558 45Q562 45 566 45L577
-3Q547 0 498 0T388 -3Q365 32 306 110T225 196V76Q225 60 236 53T284 45L295 -3Q190 0 149 0T41 -3L31 45Q72 46 86 53T101 76V619Q101 656 89 666T62 676T36 675L23 713Q129 740 195 766Q214 766 219 759T225 737Z" />
<glyph unicode="l" glyph-name="l" horiz-adv-x="325" d="M225 737V76Q225 60 236 53T284 45L295 -3Q190 0 149 0T41 -3L31 45Q72 46 86 53T101 76V619Q101 656 89 666T62 676T36 675L23 713Q129 740 195 766Q214 766 219 759T225 737Z" />
<glyph unicode="m" glyph-name="m" horiz-adv-x="850" d="M415 448T446 429T485 391Q494 395 514 405T547 421T577 434Q609 448 644 448Q707 448 743 408T780 289V76Q780 67 781 62T793 51T822 45L833 -3Q728 0 701 0T607 -3L597 45Q631 46 643 53T656 76V256Q656
311 637 334T578 358T498 340Q501 322 501 289L499 76Q499 67 500 62T512 51T541 45L552 -3Q447 0 420 0T326 -3L316 45Q350 46 362 53T375 76V256Q375 329 344 348Q328 358 299 358T216 335V76Q216 67 217 62T229 51T258 45L269 -3Q164 0 137 0T43 -3L33 45Q67
46 79 53T92 76V316Q92 340 81 349T54 359T29 358L15 399Q77 414 183 456Q196 456 199 451T205 441T208 430T209 418T210 403T211 388Q213 389 227 396T252 409T281 422T313 435Q349 448 382 448Z" />
<glyph unicode="n" glyph-name="n" horiz-adv-x="582" d="M209 423T209 418T210 403T211 388Q287 428 322 438T382 448Q440 448 476 406T512 284V76Q512 67 513 62T525 51T554 45L565 -3Q460 0 433 0T339 -3L329 45Q363 46 375 53T388 76V254Q388 307 371 332T312
358T216 335V76Q216 67 217 62T229 51T258 45L269 -3Q164 0 137 0T43 -3L33 45Q67 46 79 53T92 76V316Q92 340 81 349T54 359T29 358L15 399Q77 414 183 456Q196 456 199 451T205 441T208 430Z" />
<glyph unicode="o" glyph-name="o" horiz-adv-x="560" d="M165 159T196 105T286 50T369 95T395 210T365 333T275 388T190 342T165 227ZM171 -12T103 46T35 208T105 379T281 448T456 387T525 221T455 53T278 -12Z" />
<glyph unicode="p" glyph-name="p" horiz-adv-x="556" d="M201 107Q201 83 228 67T292 50Q341 50 365 94T390 211T365 329T289 375T201 348V107ZM194 420L196 392V388Q251 448 331 448T466 386T521 224T460 57T306 -12Q245 -12 201 17V-179Q201 -195 216 -202T280
-210L291 -258Q186 -255 136 -255T18 -258L8 -210Q49 -209 63 -202T77 -179V316Q77 340 66 349T39 359T14 358L0 399Q62 414 168 456Q181 456 184 451T190 442Q194 434 194 420Z" />
<glyph unicode="q" glyph-name="q" horiz-adv-x="542" d="M358 44Q315 -12 233 -12T93 45T36 195Q36 313 103 380T250 448Q313 448 398 415L443 454Q449 459 456 459Q463 459 493 454Q500 453 497 442Q482 377 482 320V-179Q482 -195 493 -202T541 -210L552 -258Q447
-255 397 -255T278 -258L268 -210Q358 -209 358 -179V44ZM276 66Q309 66 350 95V300Q350 336 327 356T265 377Q167 377 167 229Q167 153 198 110T276 66Z" />
<glyph unicode="r" glyph-name="r" horiz-adv-x="405" d="M319 448Q380 448 402 418Q402 405 390 382T364 342T348 325L264 356H260Q241 354 229 333T216 278V76Q216 60 231 53T295 45L306 -3Q201 0 151 0T33 -3L23 45Q64 46 78 53T92 76V316Q92 340 81 349T54
359T29 358L15 399Q77 414 183 456Q199 456 200 444T203 409T206 378Q220 399 254 423T319 448Z" />
<glyph unicode="s" glyph-name="s" horiz-adv-x="409" d="M188 50Q268 50 268 102Q268 136 186 167Q152 180 119 197T61 245T37 318Q37 378 86 413T200 448T339 420Q352 408 352 371T344 297L300 301Q294 340 269 364T210 388T158 374T140 340T164 306T222 278T291
248T350 200T374 127Q374 63 325 26T201 -11T53 12Q47 17 41 66T35 143V158L93 155Q100 100 126 75T188 50Z" />
<glyph unicode="t" glyph-name="t" horiz-adv-x="360" d="M198 105T213 82T254 59T313 85Q321 91 325 86L345 59Q319 34 304 22Q261 -11 202 -11T108 28T72 117V367H22L17 404Q72 422 100 452T154 533H178Q188 533 191 529T194 515L198 430H325Q327 421 327 405T314
367H199L198 145Q198 105 213 82Z" />
<glyph unicode="u" glyph-name="u" horiz-adv-x="566" d="M305 433L394 430Q434 430 482 436V113Q482 78 488 73T506 68H521L542 69L551 17Q480 13 393 -12Q374 -12 374 -1L368 44Q284 -12 231 -12Q74 -12 74 143L75 354Q75 363 74 368T62 379T33 385L22 433L111
430Q151 430 199 436V175Q199 78 277 78Q325 78 358 106V354Q358 363 357 368T345 379T316 385L305 433Z" />
<glyph unicode="v" glyph-name="v" horiz-adv-x="511" d="M330 433L423 430Q444 430 511 433L521 385Q477 384 463 354L301 0H227L70 341Q50 385 1 385L-10 433Q95 430 130 430T234 433L244 385Q208 384 198 377T193 353L283 135L381 354Q395 385 341 385L330 433Z" />
<glyph unicode="w" glyph-name="w" horiz-adv-x="812" d="M621 433L714 430Q734 430 802 433L812 385Q768 384 754 354L592 0H518L414 225L311 0H237L80 341Q60 385 11 385L0 433Q105 430 140 430T244 433L254 385Q218 384 208 377T203 353L293 135L383 335L371
358Q358 385 309 385L298 433Q403 430 430 430T525 433L535 385Q499 384 489 377T484 353L574 135L672 354Q686 385 632 385L621 433Z" />
<glyph unicode="x" glyph-name="x" horiz-adv-x="560" d="M327 433L430 430Q450 430 518 433L528 385Q502 384 475 375T435 351L345 226L478 76Q503 45 544 45L555 -3Q450 0 409 0T299 -3L289 45Q347 46 347 65Q347 71 342 76L263 163L187 66Q176 51 192 47L231
45L242 -3Q137 0 112 0T19 -3L9 45Q37 45 55 51T76 62Q79 64 208 219L103 341Q89 357 65 371T16 385L5 433Q110 430 151 430T259 433L269 385Q227 384 226 374Q226 369 235 358L296 285L353 357Q361 367 361 374Q361 385 338 385L327 433Z" />
<glyph unicode="y" glyph-name="y" horiz-adv-x="500" d="M309 433L402 430Q422 430 490 433L500 385Q476 384 463 378T442 354Q220 -159 218 -164T200 -195T172 -232T137 -255T83 -267T25 -245Q25 -229 38 -199T59 -168Q79 -173 110 -173Q135 -173 167 -112T222
11L70 341Q50 385 1 385L-10 433Q95 430 130 430T234 433L244 385Q208 384 198 377T193 353L276 137L360 354Q366 369 358 377T320 385L309 433Z" />
<glyph unicode="z" glyph-name="z" horiz-adv-x="451" d="M164 428L218 429H290Q341 429 400 434Q411 412 411 403L169 62H270Q315 62 332 87T361 184L413 190Q419 134 419 87T409 -4Q335 0 228 0Q93 0 27 -3Q19 10 19 20Q170 259 256 370H248Q240 370 216 370T177
370T143 365T116 350Q96 323 86 273L38 286Q41 354 43 373T56 442Q100 428 164 428Z" />
<glyph unicode="{" glyph-name="braceleft" horiz-adv-x="428" d="M45 291Q45 294 50 296Q132 302 154 336Q170 362 170 389T154 505T138 602Q138 682 205 721T360 760Q375 760 377 756T381 745Q381 743 385 730Q386 720 378 719Q318 709 286 685T253 605Q253
582 272 518T291 425T280 366T234 310T147 277Q146 276 150 272Q220 253 255 210T291 122T273 19T254 -52T253 -72Q253 -169 371 -181Q379 -182 378 -192Q373 -219 371 -223T366 -228Q261 -216 200 -165T139 -48Q139 -20 154 41T170 122T168 158T154 192Q135 228
53 248Q48 250 47 253T45 291Z" />
<glyph unicode="|" glyph-name="bar" horiz-adv-x="254" d="M84 -267V739Q97 749 123 757T170 766V-243Q161 -254 135 -260T84 -267Z" />
<glyph unicode="}" glyph-name="braceright" horiz-adv-x="428" d="M260 102T275 41T291 -48Q291 -113 230 -164T64 -228Q58 -226 57 -217L52 -192Q51 -182 59 -181Q177 -169 177 -72Q177 -65 176 -52T157 19T139 121T174 209T280 272Q284 276 283 277Q231 282
196 310Q139 355 139 422Q139 454 158 518T177 605Q177 661 145 685T52 719Q42 720 47 737Q48 739 49 745Q51 758 57 760Q64 760 70 760Q157 760 224 721T292 602Q292 593 276 505T260 397T263 365T276 336Q298 302 380 296Q385 294 385 291Q385 257 384 254T377
248Q295 228 276 192Q260 164 260 133Z" />
<glyph unicode="~" glyph-name="asciitilde" horiz-adv-x="619" d="M147 138Q133 134 107 134T74 136Q70 155 70 176Q70 246 116 293Q147 325 188 325T264 308T325 270T379 232T430 214T464 246T476 297T475 323Q512 323 542 305Q549 295 549 268Q549 216 518
170T429 124Q390 124 345 151T259 206T193 234Q147 234 147 152Q147 145 147 138Z" />
<glyph unicode="&#xa1;" glyph-name="exclamdown" horiz-adv-x="319" d="M92 -211L94 -175L135 243Q135 246 138 249T144 253L184 255Q188 255 188 245L243 -211Q162 -243 122 -251Q102 -251 95 -236Q92 -231 92 -211ZM216 430T216 405T199 364T160 348T121 362T105
401T120 443T161 461T202 446Z" />
<glyph unicode="&#xa2;" glyph-name="cent" horiz-adv-x="442" d="M38 269Q38 384 104 447T264 510Q271 510 285 508L296 594Q303 598 314 598T346 589L335 500Q407 483 439 455Q440 453 440 450Q440 434 404 383Q400 379 394 379T378 386T354 407T326 428L289
121H300Q367 121 419 168Q426 175 431 169L447 147Q379 62 281 50L268 -57Q255 -73 239 -73T210 -70L225 51Q138 62 88 122T38 269ZM277 448L262 449Q211 449 185 410T158 309Q158 177 236 136L277 448Z" />
<glyph unicode="&#xa3;" glyph-name="sterling" horiz-adv-x="563" d="M242 376L402 377H415Q425 367 425 348T423 314H248Q249 287 249 283Q249 238 225 184T170 107Q193 119 222 119Q264 119 311 91T394 62Q422 62 448 86T485 153Q487 161 490 162Q492 163 530
152Q506 -29 351 -29Q303 -29 214 22Q150 57 139 57T121 53Q117 46 119 32V15Q110 -3 100 -4Q84 -11 46 -14Q34 -10 34 25T46 74Q93 121 109 154T126 231T122 314H41Q15 317 15 376H115Q107 446 107 464Q107 558 168 625T347 693Q384 693 420 676T457 641Q450 611
414 570Q407 563 402 563Q396 563 366 580Q313 614 283 614T241 597T228 549T233 476Q237 444 242 376Z" />
<glyph unicode="&#xa4;" glyph-name="currency" horiz-adv-x="516" d="M428 208Q487 137 489 135Q489 120 469 96T425 64Q400 96 385 114T363 142Q317 114 259 114T152 141L87 68Q84 67 75 67T41 81T7 117L88 203Q56 253 56 330T108 472L41 552Q45 569 64 595T99
635Q118 600 148 567T184 525Q222 539 263 539T347 521Q394 574 405 588T419 604Q437 604 465 591T510 563L419 465Q463 407 463 334T428 208ZM158 264T184 233T253 201T329 242T361 337T334 422T265 454T191 415T158 320Z" />
<glyph unicode="&#xa5;" glyph-name="yen" horiz-adv-x="610" d="M483 678L605 681L612 628Q529 628 473 530L373 364H509V365Q513 361 517 341T521 311T520 298H373V259H515V260Q519 256 523 236T527 207T526 193H373L374 87Q374 69 387 60T441 51L454 -3Q334
0 290 0T169 -3L157 51Q205 52 220 61T236 87V193H108Q101 194 95 218T89 259H236V298H102Q95 299 89 323T83 364H220L100 547Q72 590 47 609T-13 629L-24 682Q22 679 125 679T259 682L268 629Q218 629 208 620Q205 616 205 608T215 581L321 387L403 550Q422 587
418 602T398 622T352 628L342 681L483 678Z" />
<glyph unicode="&#xa6;" glyph-name="brokenbar" horiz-adv-x="254" d="M82 304V714Q94 724 123 732T173 741V328Q164 318 136 311T82 304ZM82 -244V166Q94 176 123 184T173 193V-220Q164 -230 136 -237T82 -244Z" />
<glyph unicode="&#xa7;" glyph-name="section" horiz-adv-x="500" d="M21 410T47 449T119 519V531Q119 609 180 674T323 739Q370 739 408 720T447 662Q447 646 434 613T400 579Q390 579 362 612Q352 624 332 634T286 644T241 628T221 579Q221 530 350 424Q402
382 435 350T498 270T529 177Q529 57 430 -7V-8Q430 -92 370 -154T208 -217Q158 -217 105 -188T52 -131T65 -70T100 -37Q109 -37 126 -58Q176 -122 231 -122Q272 -122 295 -104T319 -51Q319 -34 299 -8T258 38T197 93T133 151T80 208Q21 277 21 343ZM116 403Q116
334 260 209Q376 108 407 57Q432 78 432 121Q432 190 286 311Q177 404 144 454Q133 451 125 435T116 403Z" />
<glyph unicode="&#xa8;" glyph-name="dieresis" horiz-adv-x="490" d="M121 538T102 556T83 604T103 655T153 676T202 658T222 610T202 559T152 538ZM303 538T284 556T265 604T285 655T335 676T384 658T403 610T383 559T333 538Z" />
<glyph unicode="&#xa9;" glyph-name="copyright" horiz-adv-x="741" d="M45 536T141 632T373 728T603 633T697 402T601 170T369 74T140 168T45 399ZM631 521T560 592T371 664T182 593T110 402T182 210T374 137T563 208T631 400ZM317 548T290 510T263 406T295 297T387
255Q466 255 498 335L533 327Q533 321 520 281T503 241Q449 211 368 211T230 261T173 398T232 538T383 591Q425 591 462 582T515 571Q521 560 521 528T518 465L481 468Q477 499 466 515Q445 548 381 548Z" />
<glyph unicode="&#xaa;" glyph-name="ordfeminine" horiz-adv-x="347" d="M120 510Q120 494 130 485T157 476T189 490V554Q120 540 120 510ZM275 481L291 482H307Q309 467 312 456Q229 431 223 431T211 435T204 443T199 456T195 468Q158 431 124 431T70 449T50
498T79 547T187 582V605Q187 677 149 677Q129 677 117 671V631Q117 627 97 623T68 619T59 644T70 682T119 708T177 722Q217 722 240 697T264 622V494Q264 481 275 481Z" />
<glyph unicode="&#xab;" glyph-name="guillemotleft" horiz-adv-x="509" d="M263 433Q274 410 274 389T273 362L114 230Q135 210 193 165T272 101Q273 98 273 90Q273 48 264 23Q246 41 151 113T27 193Q21 198 17 216T13 241T14 253Q108 300 236 410Q247 420 263
433ZM453 432Q464 408 464 387T463 362L304 230Q327 209 386 165T467 101Q468 99 468 93T463 61T454 23Q431 46 343 116T226 193Q220 198 217 217T214 243T215 254Q291 298 336 332T453 432Z" />
<glyph unicode="&#xac;" glyph-name="logicalnot" horiz-adv-x="656" d="M494 10Q494 10 496 147L494 281Q494 288 487 288L366 290L83 288Q77 294 74 313T70 343T73 362L367 360L558 362Q568 362 568 347L566 146L568 20Q562 14 543 11T513 7T494 10Z" />
<glyph unicode="&#xad;" glyph-name="uni00AD" horiz-adv-x="279" d="M13 236Q13 236 128 234L243 236Q250 229 255 203T261 162L127 164L23 162Q17 168 14 187T10 217T13 236Z" />
<glyph unicode="&#xae;" glyph-name="registered" horiz-adv-x="303" d="M-2 638T44 684T154 730T263 685T308 575T262 465T152 419T43 464T-2 573ZM201 689T153 689T73 659T40 576T73 491T155 459T234 489T265 574T233 658ZM149 651Q216 651 216 611Q216 585
186 574L222 527Q226 520 238 519L242 509H188L148 568H139V527Q139 520 155 520L157 509H77L75 520Q93 520 93 527V627Q93 639 77 639L75 651H149ZM139 579H147Q175 579 175 608T147 637L139 635V579Z" />
<glyph unicode="&#xaf;" glyph-name="overscore" horiz-adv-x="416" d="M84 613Q84 613 250 610Q291 610 319 613Q330 601 338 574T347 528Q314 530 271 530L100 528Q80 548 80 586Q80 600 84 613Z" />
<glyph unicode="&#xb0;" glyph-name="degree" horiz-adv-x="294" d="M126 507T151 507T191 524T207 567Q207 634 143 634Q118 634 102 618T86 571T106 524ZM94 449T58 481T21 568T55 658T145 693T237 661T272 574T238 484T149 449Z" />
<glyph unicode="&#xb1;" glyph-name="plusminus" horiz-adv-x="576" d="M239 322Q150 322 54 320Q44 329 40 347T35 378T39 404Q129 402 239 402Q239 524 237 571Q247 581 275 589T322 597Q320 542 320 402Q394 402 498 404Q509 393 516 367T524 320Q406 322 320
322Q320 237 322 135Q313 125 291 119T257 113T237 114Q239 216 239 322ZM281 66L498 69Q510 57 517 37T524 7T524 -6Q308 -2 284 -2L54 -6Q35 9 35 43Q35 56 39 69L281 66Z" />
<glyph unicode="&#xb2;" glyph-name="twosuperior" horiz-adv-x="290" d="M124 712Q91 712 63 671Q57 671 49 675T40 687Q53 718 80 739T150 761T222 740T252 680Q252 637 232 609T203 569T168 530T133 492H193Q210 492 216 494Q231 497 240 531L269 518Q269 491
266 475T251 422Q216 429 162 429H124Q66 429 22 425Q17 440 17 451L41 471Q88 504 132 559T177 660Q177 712 124 712Z" />
<glyph unicode="&#xb3;" glyph-name="threesuperior" horiz-adv-x="280" d="M172 676Q172 711 127 711T56 676Q49 676 38 700Q52 724 80 742T149 761T216 743T244 692Q244 638 159 601Q198 601 226 582T255 516T210 442T111 415T43 423Q39 426 41 439T47 453Q62
452 78 452Q179 452 179 518Q179 542 159 553T117 564T78 561Q70 577 70 584Q172 635 172 676Z" />
<glyph unicode="&#xb4;" glyph-name="acute" horiz-adv-x="254" d="M229 683Q233 680 233 678T232 675L69 512Q39 519 33 541L120 722Q168 722 229 683Z" />
<glyph unicode="&#xb5;" glyph-name="mu" horiz-adv-x="501" d="M483 80Q489 77 489 61T488 38Q464 19 415 4T339 -12Q328 -12 323 0T312 45Q239 -12 166 -12Q121 -12 81 0Q89 -110 124 -204Q134 -231 134 -237T124 -250Q97 -267 47 -267Q27 -267 16 -133T5 139V410Q10
415 44 427T100 440T126 428V173Q126 121 148 100T212 78T285 105L284 410Q289 415 326 427T381 440T403 438T409 434T411 428V97Q411 71 433 71Q438 71 483 80Z" />
<glyph unicode="&#xb6;" glyph-name="paragraph" horiz-adv-x="546" d="M365 370Q312 370 312 343L307 -103H219V59H217Q128 59 68 108T8 255Q8 457 265 457L456 458H473Q488 459 537 459L549 387Q486 380 469 377T452 365V-102H364L365 370Z" />
<glyph unicode="&#xb7;" glyph-name="middot" horiz-adv-x="230" d="M83 151T66 170T49 217T69 265T115 284T161 267T180 221T162 172T114 151Z" />
<glyph unicode="&#xb8;" glyph-name="cedilla" horiz-adv-x="833" d="M467 -109Q467 -159 424 -180T314 -202Q308 -202 303 -202T298 -189T301 -175Q374 -166 374 -118Q374 -95 360 -85T326 -72T304 -68Q299 -62 293 -49Q293 -39 317 -11T347 23H346L367 54L406
-2L368 -35Q411 -37 439 -60T467 -109Z" />
<glyph unicode="&#xb9;" glyph-name="onesuperior" horiz-adv-x="233" d="M202 429L120 431H26L20 468Q80 470 80 485V682Q80 705 64 705T37 703L26 739Q55 742 75 748Q135 766 140 766T148 764T150 748V485Q150 476 165 472T196 468L202 429Z" />
<glyph unicode="&#xba;" glyph-name="ordmasculine" horiz-adv-x="354" d="M88 537T108 503T165 468T218 497T235 570T216 649T158 684T104 655T88 581ZM92 428T49 465T5 568T50 678T163 722T274 683T318 577T274 469T161 428Z" />
<glyph unicode="&#xbb;" glyph-name="guillemotright" horiz-adv-x="509" d="M238 23Q229 48 229 73T230 101Q250 120 308 165T388 230L229 362Q228 367 228 375Q228 410 239 433Q255 420 266 411T293 388T327 361T366 332T408 302Q453 271 488 253Q489 249 489
242T485 216T475 193Q446 186 351 114T238 23ZM287 254Q288 251 288 244T285 217T276 193Q248 186 160 116T48 23Q34 67 34 83T35 101Q57 121 116 165T198 230L39 362Q38 366 38 373Q38 408 49 432Q120 367 165 333T287 254Z" />
<glyph unicode="&#xbc;" glyph-name="onequarter" horiz-adv-x="798" d="M570 693Q574 697 587 697T618 697T649 686L192 -40Q185 -51 157 -51T108 -44L570 693ZM659 107T629 107V-12Q575 -9 555 0V107H418Q409 107 401 113T398 128L587 348Q595 355 628 355Q636
343 636 334Q629 322 629 292V160H641Q676 160 690 168Q698 158 698 151Q698 123 682 99Q659 107 629 107ZM286 300L204 302H110L104 339Q140 339 152 345T164 356V582Q164 605 138 605Q122 605 111 603L100 639Q145 644 162 649Q220 666 225 666T232 664T234 648V356Q234
347 249 343T280 339L286 300ZM558 160V253L479 160H558Z" />
<glyph unicode="&#xbd;" glyph-name="onehalf" horiz-adv-x="796" d="M570 693Q574 697 587 697T618 697T649 686L192 -40Q185 -51 157 -51T108 -44L570 693ZM551 307Q507 307 476 262Q471 262 465 268T457 281Q500 359 572 359Q620 359 652 335T684 268Q684 231
669 206T646 169T619 139T592 113Q547 73 535 63H620Q643 63 651 70T667 106L696 93Q696 51 678 -5Q654 4 589 4H551Q487 4 443 0Q438 15 438 32L462 52Q510 86 557 146T605 258Q605 307 551 307ZM286 300L204 302H110L104 339Q140 339 152 345T164 356V582Q164
605 138 605Q122 605 111 603L100 639Q145 644 162 649Q220 666 225 666T232 664T234 648V356Q234 347 249 343T280 339L286 300Z" />
<glyph unicode="&#xbe;" glyph-name="threequarters" horiz-adv-x="834" d="M234 573Q234 604 189 604T118 569Q112 569 100 597Q114 621 142 639T211 658T278 640T306 589Q306 531 229 497Q269 491 296 468T323 399T274 324T172 295T105 303Q101 306 103 318T109
330Q124 329 140 329Q186 329 213 349T241 399T221 441T179 454T140 451Q132 467 132 481Q234 532 234 573ZM588 670Q592 674 605 674T636 674T667 663L210 -63Q203 -74 175 -74T126 -67L588 670ZM665 107V-12Q611 -9 591 0V107H454Q445 107 439 112T432 120T434
128L623 348Q631 355 664 355Q672 343 672 334Q665 322 665 292V160H677Q712 160 726 168Q734 158 734 151Q734 123 718 99Q695 107 665 107ZM594 160V253L515 160H594Z" />
<glyph unicode="&#xbf;" glyph-name="questiondown" horiz-adv-x="354" d="M67 -78Q67 -104 95 -123T163 -143T225 -139T247 -134Q255 -134 262 -165T269 -223T213 -250Q173 -250 141 -236Q69 -205 32 -158T-6 -58T14 31T84 100Q142 136 153 146T170 162Q179 174
179 192T160 232Q164 251 177 253Q184 254 205 242T249 204T271 148T252 86T195 29L172 14V15Q146 -1 136 -6T117 -18T102 -28T90 -37T80 -47T74 -57Q67 -66 67 -78ZM243 423T243 398T226 357T187 341T148 355T132 394T147 436T188 454T229 439Z" />
<glyph unicode="&#xc0;" glyph-name="Agrave" horiz-adv-x="747" d="M129 0L7 -4L0 51Q35 54 57 68T89 98T111 148L320 710H407L643 132Q661 87 680 69T736 50L747 -3Q701 0 596 0T444 -3L435 50Q488 50 501 57T514 75T508 98L441 248H224L182 128Q178 117 178
107Q178 86 203 69T280 51L290 -4L129 0ZM456 813Q458 808 458 797T442 769L216 820Q213 821 213 823T215 828Q244 892 286 919L456 813ZM323 529L246 312H413L323 529Z" />
<glyph unicode="&#xc1;" glyph-name="Aacute" horiz-adv-x="747" d="M129 0L7 -4L0 51Q35 54 57 68T89 98T111 148L320 710H407L643 132Q661 87 680 69T736 50L747 -3Q701 0 596 0T444 -3L435 50Q488 50 501 57T514 75T508 98L441 248H224L182 128Q178 117 178
107Q178 86 203 69T280 51L290 -4L129 0ZM323 529L246 312H413L323 529ZM546 840Q547 837 547 835T545 831L322 770Q304 787 304 805Q304 809 305 813L470 917Q520 890 546 840Z" />
<glyph unicode="&#xc2;" glyph-name="Acircumflex" horiz-adv-x="747" d="M129 0L7 -4L0 51Q35 54 57 68T89 98T111 148L320 710H407L643 132Q661 87 680 69T736 50L747 -3Q701 0 596 0T444 -3L435 50Q488 50 501 57T514 75T508 98L441 248H224L182 128Q178 117
178 107Q178 86 203 69T280 51L290 -4L129 0ZM312 930Q372 932 394 932T421 920L521 798Q521 782 485 769L363 852L242 769Q214 776 206 798L312 930ZM323 529L246 312H413L323 529Z" />
<glyph unicode="&#xc3;" glyph-name="Atilde" horiz-adv-x="747" d="M129 0L7 -4L0 51Q35 54 57 68T89 98T111 148L320 710H407L643 132Q661 87 680 69T736 50L747 -3Q701 0 596 0T444 -3L435 50Q488 50 501 57T514 75T508 98L441 248H224L182 128Q178 117 178
107Q178 86 203 69T280 51L290 -4L129 0ZM281 884L446 880Q497 880 524 912Q531 912 547 897Q548 895 548 892T546 885Q492 795 448 795L288 797Q251 797 221 772Q216 771 200 785Q198 788 198 791T200 797Q244 884 281 884ZM323 529L246 312H413L323 529Z" />
<glyph unicode="&#xc4;" glyph-name="Adieresis" horiz-adv-x="747" d="M129 0L7 -4L0 51Q35 54 57 68T89 98T111 148L320 710H407L643 132Q661 87 680 69T736 50L747 -3Q701 0 596 0T444 -3L435 50Q488 50 501 57T514 75T508 98L441 248H224L182 128Q178 117
178 107Q178 86 203 69T280 51L290 -4L129 0ZM323 529L246 312H413L323 529ZM251 818T232 836T213 884T233 935T283 956T332 938T352 890T332 839T282 818ZM433 818T414 836T395 884T415 935T465 956T514 938T533 890T513 839T463 818Z" />
<glyph unicode="&#xc5;" glyph-name="Aring" horiz-adv-x="747" d="M313 751T286 777T258 838T284 901T350 928T417 904T445 844T416 779T350 751ZM317 854T317 841T328 819T353 810T377 820T387 843Q387 873 354 873Q339 873 328 864ZM129 0L7 -4L0 51Q35 54
57 68T89 98T111 148L320 710H407L643 132Q661 87 680 69T736 50L747 -3Q701 0 596 0T444 -3L435 50Q488 50 501 57T514 75T508 98L441 248H224L182 128Q178 117 178 107Q178 86 203 69T280 51L290 -4L129 0ZM323 529L246 312H413L323 529Z" />
<glyph unicode="&#xc6;" glyph-name="AE" horiz-adv-x="1053" d="M829 651L704 650H680Q639 648 639 646V399H805Q817 399 817 495L873 504L870 366Q870 309 873 243L815 232Q815 289 813 305T803 321H639V115Q639 82 657 72T718 62H812Q947 62 996 206L1050 195Q1050
178 1021 89T978 0L747 -1Q747 -1 564 0Q510 0 434 -3L422 51Q470 52 485 61T501 87V231H274L194 103L187 86Q187 72 211 63T260 51L259 -3L105 1L-19 -3L-14 52H8Q44 55 68 78T125 149L438 640Q453 659 355 659L342 713Q519 710 561 710H820L976 709Q988 682 988
622T983 515L939 522Q928 591 903 621T829 651ZM501 319V593L330 319H501Z" />
<glyph unicode="&#xc7;" glyph-name="Ccedilla" horiz-adv-x="768" d="M434 652Q319 652 258 572T196 364T268 148T455 60Q608 60 670 213L738 198Q738 186 710 115T668 44L680 45Q585 -8 453 -12L427 -35Q470 -37 498 -60T526 -109Q526 -159 483 -180T373 -202Q367
-202 362 -202T357 -189T360 -175Q433 -166 433 -118Q433 -95 419 -85T385 -72T363 -68Q358 -62 352 -49Q352 -40 379 -9Q227 7 134 101T40 341Q40 521 154 621T448 722Q527 722 619 700Q666 691 704 685Q715 662 715 606T709 492L637 500Q630 559 609 590Q566
652 434 652Z" />
<glyph unicode="&#xc8;" glyph-name="Egrave" horiz-adv-x="669" d="M438 651L313 650H289Q248 648 248 646V399H414Q426 399 426 495L482 504L479 366Q479 309 482 243L424 232Q424 289 422 305T412 321H248V115Q248 82 266 72T327 62H421Q556 62 605 206L659
195Q659 178 630 89T587 0L356 -1Q356 -1 173 0Q120 0 43 -3L31 51Q79 52 94 61T110 87V623Q110 641 97 650T43 659L30 713Q150 710 170 710H429L585 709Q597 682 597 622T592 515L548 522Q537 591 512 621T438 651ZM406 813Q408 808 408 797T392 769L166 820Q163
821 163 823T165 828Q194 892 236 919L406 813Z" />
<glyph unicode="&#xc9;" glyph-name="Eacute" horiz-adv-x="669" d="M438 651L313 650H289Q248 648 248 646V399H414Q426 399 426 495L482 504L479 366Q479 309 482 243L424 232Q424 289 422 305T412 321H248V115Q248 82 266 72T327 62H421Q556 62 605 206L659
195Q659 178 630 89T587 0L356 -1Q356 -1 173 0Q120 0 43 -3L31 51Q79 52 94 61T110 87V623Q110 641 97 650T43 659L30 713Q150 710 170 710H429L585 709Q597 682 597 622T592 515L548 522Q537 591 512 621T438 651ZM507 840Q508 837 508 835T506 831L283 770Q265
787 265 805Q265 809 266 813L431 917Q481 890 507 840Z" />
<glyph unicode="&#xca;" glyph-name="Ecircumflex" horiz-adv-x="669" d="M438 651L313 650H289Q248 648 248 646V399H414Q426 399 426 495L482 504L479 366Q479 309 482 243L424 232Q424 289 422 305T412 321H248V115Q248 82 266 72T327 62H421Q556 62 605 206L659
195Q659 178 630 89T587 0L356 -1Q356 -1 173 0Q120 0 43 -3L31 51Q79 52 94 61T110 87V623Q110 641 97 650T43 659L30 713Q150 710 170 710H429L585 709Q597 682 597 622T592 515L548 522Q537 591 512 621T438 651ZM302 930Q362 932 384 932T411 920L511 798Q511
782 475 769L353 852L232 769Q204 776 196 798L302 930Z" />
<glyph unicode="&#xcb;" glyph-name="Edieresis" horiz-adv-x="669" d="M438 651L313 650H289Q248 648 248 646V399H414Q426 399 426 495L482 504L479 366Q479 309 482 243L424 232Q424 289 422 305T412 321H248V115Q248 82 266 72T327 62H421Q556 62 605 206L659
195Q659 178 630 89T587 0L356 -1Q356 -1 173 0Q120 0 43 -3L31 51Q79 52 94 61T110 87V623Q110 641 97 650T43 659L30 713Q150 710 170 710H429L585 709Q597 682 597 622T592 515L548 522Q537 591 512 621T438 651ZM212 771T193 789T174 837T194 888T244 909T293
891T313 843T293 792T243 771ZM394 771T375 789T356 837T376 888T426 909T475 891T494 843T474 792T424 771Z" />
<glyph unicode="&#xcc;" glyph-name="Igrave" horiz-adv-x="358" d="M248 623V87Q248 69 261 60T315 51L328 -3Q208 0 164 0T43 -3L31 51Q79 52 94 61T110 87V623Q110 641 97 650T43 659L30 713Q150 710 194 710T315 713L327 659Q279 658 264 649T248 623ZM251
813Q253 808 253 797T237 769L11 820Q8 821 8 823T10 828Q39 892 81 919L251 813Z" />
<glyph unicode="&#xcd;" glyph-name="Iacute" horiz-adv-x="358" d="M248 623V87Q248 69 261 60T315 51L328 -3Q208 0 164 0T43 -3L31 51Q79 52 94 61T110 87V623Q110 641 97 650T43 659L30 713Q150 710 194 710T315 713L327 659Q279 658 264 649T248 623ZM355
840Q356 837 356 835T354 831L131 770Q113 787 113 805Q113 809 114 813L279 917Q329 890 355 840Z" />
<glyph unicode="&#xce;" glyph-name="Icircumflex" horiz-adv-x="358" d="M248 623V87Q248 69 261 60T315 51L328 -3Q208 0 164 0T43 -3L31 51Q79 52 94 61T110 87V623Q110 641 97 650T43 659L30 713Q150 710 194 710T315 713L327 659Q279 658 264 649T248 623ZM137
930Q197 932 219 932T246 920L346 798Q346 792 338 784T310 769L188 852L67 769Q39 776 31 798L137 930Z" />
<glyph unicode="&#xcf;" glyph-name="Idieresis" horiz-adv-x="358" d="M248 623V87Q248 69 261 60T315 51L328 -3Q208 0 164 0T43 -3L31 51Q79 52 94 61T110 87V623Q110 641 97 650T43 659L30 713Q150 710 194 710T315 713L327 659Q279 658 264 649T248 623ZM57
771T38 789T19 837T39 888T89 909T138 891T158 843T138 792T88 771ZM239 771T220 789T201 837T221 888T271 909T320 891T339 843T319 792T269 771Z" />
<glyph unicode="&#xd0;" glyph-name="Eth" horiz-adv-x="834" d="M33 397Q33 397 112 396V622Q112 640 99 649T45 658L32 712Q152 709 172 709Q172 709 372 711Q570 711 682 622T794 365T680 97T355 -3L175 2Q122 2 45 -1L33 53Q81 54 96 63T112 89V338Q82 337
44 337Q30 351 30 369T33 397ZM247 395L399 397Q407 388 413 369T419 337Q369 337 247 339V126Q247 100 252 89T287 69T382 60Q507 60 573 135T639 352T564 573T348 652H273Q247 652 247 645V395Z" />
<glyph unicode="&#xd1;" glyph-name="Ntilde" horiz-adv-x="826" d="M721 -4Q701 0 678 0T639 -3L216 534V87Q216 69 229 60T283 51L296 -3Q176 0 148 0T43 -3L31 51Q117 53 117 87V623Q117 659 43 659L30 713Q150 710 192 710T260 713Q260 701 274 681T297 646T322
611T349 575T379 538Q445 455 459 437T540 333T622 228L621 623Q621 641 608 650T554 659L541 713Q661 710 689 710T794 713L806 659Q720 657 720 623L721 -4ZM355 881L520 877Q571 877 598 909Q605 909 621 894Q622 892 622 889T620 882Q566 792 522 792L362 794Q325
794 295 769Q295 769 292 769T274 782Q272 785 272 788T274 794Q318 881 355 881Z" />
<glyph unicode="&#xd2;" glyph-name="Ograve" horiz-adv-x="843" d="M252 -12T146 86T40 342T153 611T430 722T699 623T803 364T693 97T417 -12ZM303 108Q361 60 450 60T593 136T648 326Q648 467 585 560T403 653Q309 653 252 575T195 383Q195 196 303 108ZM484
813Q486 808 486 797T470 769L244 820Q241 821 241 823T243 828Q272 892 314 919L484 813Z" />
<glyph unicode="&#xd3;" glyph-name="Oacute" horiz-adv-x="843" d="M252 -12T146 86T40 342T153 611T430 722T699 623T803 364T693 97T417 -12ZM303 108Q361 60 450 60T593 136T648 326Q648 467 585 560T403 653Q309 653 252 575T195 383Q195 196 303 108ZM596
840Q597 837 597 835T595 831L372 770Q354 787 354 805Q354 809 355 813L520 917Q570 890 596 840Z" />
<glyph unicode="&#xd4;" glyph-name="Ocircumflex" horiz-adv-x="843" d="M252 -12T146 86T40 342T153 611T430 722T699 623T803 364T693 97T417 -12ZM303 108Q361 60 450 60T593 136T648 326Q648 467 585 560T403 653Q309 653 252 575T195 383Q195 196 303 108ZM374
930Q434 932 456 932T483 920L583 798Q583 782 547 769L425 852L304 769Q276 776 268 798L374 930Z" />
<glyph unicode="&#xd5;" glyph-name="Otilde" horiz-adv-x="843" d="M252 -12T146 86T40 342T153 611T430 722T699 623T803 364T693 97T417 -12ZM303 108Q361 60 450 60T593 136T648 326Q648 467 585 560T403 653Q309 653 252 575T195 383Q195 196 303 108ZM329
884L494 880Q545 880 572 912Q579 912 595 897Q596 895 596 892T594 885Q540 795 496 795L336 797Q299 797 269 772Q269 772 266 772T248 785Q246 788 246 791T248 797Q292 884 329 884Z" />
<glyph unicode="&#xd6;" glyph-name="Odieresis" horiz-adv-x="843" d="M252 -12T146 86T40 342T153 611T430 722T699 623T803 364T693 97T417 -12ZM303 108Q361 60 450 60T593 136T648 326Q648 467 585 560T403 653Q309 653 252 575T195 383Q195 196 303 108ZM299
771T280 789T261 837T281 888T331 909T380 891T400 843T380 792T330 771ZM481 771T462 789T443 837T463 888T513 909T562 891T581 843T561 792T511 771Z" />
<glyph unicode="&#xd7;" glyph-name="multiply" horiz-adv-x="548" d="M225 266L81 403Q81 422 90 446T121 482L278 323L411 457Q429 456 457 448T501 428Q387 320 332 265Q367 230 479 123Q479 108 471 79T452 35Q427 53 278 208L132 59Q113 59 88 68T52 98L225 266Z" />
<glyph unicode="&#xd8;" glyph-name="Oslash" horiz-adv-x="813" d="M144 88Q40 187 40 343T153 611T424 722Q526 722 610 683L676 767Q678 768 684 768T712 761T750 743L673 644Q803 544 803 361Q803 205 693 97T424 -12Q301 -12 207 41L139 -46Q130 -48 109
-48T48 -34L144 88ZM276 131Q341 60 440 60T593 136T648 333T595 543L276 131ZM309 653T252 575T195 388T231 200L546 602Q487 653 398 653Z" />
<glyph unicode="&#xd9;" glyph-name="Ugrave" horiz-adv-x="788" d="M431 -12Q270 -12 190 51T110 253V623Q110 641 97 650T43 659L30 713Q150 710 194 710T315 713L327 659Q279 658 264 649T248 623V265Q248 60 439 60Q511 60 546 110T582 251V623Q582 641 569
650T515 659L502 713Q622 710 651 710T756 713L768 659Q720 658 705 649T689 623V260Q689 -12 431 -12ZM460 813Q462 808 462 797T446 769L220 820Q217 821 217 823T219 828Q248 892 290 919L460 813Z" />
<glyph unicode="&#xda;" glyph-name="Uacute" horiz-adv-x="788" d="M431 -12Q270 -12 190 51T110 253V623Q110 641 97 650T43 659L30 713Q150 710 194 710T315 713L327 659Q279 658 264 649T248 623V265Q248 60 439 60Q511 60 546 110T582 251V623Q582 641 569
650T515 659L502 713Q622 710 651 710T756 713L768 659Q720 658 705 649T689 623V260Q689 -12 431 -12ZM600 840Q601 837 601 835T599 831L376 770Q358 787 358 805Q358 809 359 813L524 917Q574 890 600 840Z" />
<glyph unicode="&#xdb;" glyph-name="Ucircumflex" horiz-adv-x="788" d="M431 -12Q270 -12 190 51T110 253V623Q110 641 97 650T43 659L30 713Q150 710 194 710T315 713L327 659Q279 658 264 649T248 623V265Q248 60 439 60Q511 60 546 110T582 251V623Q582 641
569 650T515 659L502 713Q622 710 651 710T756 713L768 659Q720 658 705 649T689 623V260Q689 -12 431 -12ZM374 930Q434 932 456 932T483 920L583 798Q583 782 547 769L425 852L304 769Q276 776 268 798L374 930Z" />
<glyph unicode="&#xdc;" glyph-name="Udieresis" horiz-adv-x="788" d="M431 -12Q270 -12 190 51T110 253V623Q110 641 97 650T43 659L30 713Q150 710 194 710T315 713L327 659Q279 658 264 649T248 623V265Q248 60 439 60Q511 60 546 110T582 251V623Q582 641
569 650T515 659L502 713Q622 710 651 710T756 713L768 659Q720 658 705 649T689 623V260Q689 -12 431 -12ZM298 771T279 789T260 837T280 888T330 909T379 891T399 843T379 792T329 771ZM480 771T461 789T442 837T462 888T512 909T561 891T580 843T560 792T510
771Z" />
<glyph unicode="&#xdd;" glyph-name="Yacute" horiz-adv-x="704" d="M292 660Q226 660 226 640Q226 629 239 612L375 387L514 582Q534 607 534 623T518 649T463 660L453 713L604 710L726 713L733 660Q706 660 679 644T637 612T594 562L427 334L428 87Q428 69 441
60T495 51L508 -3Q388 0 344 0T223 -3L211 51Q259 52 274 61T290 87V310L104 578Q43 660 -19 660L-30 713Q16 710 134 710T283 713L292 660ZM598 840Q599 837 599 835T597 831L374 770Q356 787 356 805Q356 809 357 813L522 917Q572 890 598 840Z" />
<glyph unicode="&#xde;" glyph-name="Thorn" horiz-adv-x="567" d="M234 623V568Q277 570 307 570Q425 570 499 521T574 374Q574 321 552 281T492 217Q418 171 318 171Q290 171 267 176Q256 185 256 204T264 232Q280 229 306 229Q366 229 403 268T440 375T401
475T293 509Q237 509 234 494V491V87Q234 69 247 60T301 51L314 -3Q194 0 150 0T29 -3L17 51Q65 52 80 61T96 87V623Q96 641 83 650T29 659L16 713Q136 710 180 710T301 713L313 659Q265 658 250 649T234 623Z" />
<glyph unicode="&#xdf;" glyph-name="germandbls" horiz-adv-x="601" d="M95 76V361H45Q32 389 32 402Q51 404 95 416V434Q95 560 167 663T346 767Q419 767 481 725T543 609Q543 575 524 543T480 490T437 444T417 398T435 357T479 316T530 273T574 215T592 140Q592
76 549 32T433 -12T309 18Q305 23 305 33T310 66T332 104Q335 106 341 106T350 102Q392 50 435 50Q463 50 480 66T497 106T488 144T469 167T438 191T410 212T383 235T357 257T337 278T316 302Q300 331 300 349T303 378T317 403T332 422T354 444T383 472T407 498T431
534T443 580Q443 633 410 671T323 709Q220 709 220 554L219 76Q219 60 230 53T278 45L289 -3Q184 0 143 0T35 -3L25 45Q66 46 80 53T95 76Z" />
<glyph unicode="&#xe0;" glyph-name="agrave" horiz-adv-x="457" d="M189 170T166 153T143 112T159 74T203 60T254 82L252 183Q189 170 166 153ZM439 69L447 28Q430 21 377 5T310 -12T291 -9T280 2T273 14T267 31T262 47Q208 -12 139 -12Q94 -12 63 16T32 87Q32
144 77 171T249 226V262Q249 320 236 348T191 377T140 367V303Q140 297 108 291T61 285T46 321Q46 338 52 357T65 384Q83 404 142 426T233 448Q298 448 334 408T371 290V87Q371 68 387 68L414 69H439ZM80 656Q79 657 79 659T83 664Q144 703 192 703L279 522Q273
500 243 493L80 656Z" />
<glyph unicode="&#xe1;" glyph-name="aacute" horiz-adv-x="457" d="M189 170T166 153T143 112T159 74T203 60T254 82L252 183Q189 170 166 153ZM439 69L447 28Q430 21 377 5T310 -12T291 -9T280 2T273 14T267 31T262 47Q208 -12 139 -12Q94 -12 63 16T32 87Q32
144 77 171T249 226V262Q249 320 236 348T191 377T140 367V303Q140 297 108 291T61 285T46 321Q46 338 52 357T65 384Q83 404 142 426T233 448Q298 448 334 408T371 290V87Q371 68 387 68L414 69H439ZM374 683Q378 680 378 678T377 675L214 512Q184 519 178 541L265
722Q313 722 374 683Z" />
<glyph unicode="&#xe2;" glyph-name="acircumflex" horiz-adv-x="457" d="M189 170T166 153T143 112T159 74T203 60T254 82L252 183Q189 170 166 153ZM439 69L447 28Q430 21 377 5T310 -12T291 -9T280 2T273 14T267 31T262 47Q208 -12 139 -12Q94 -12 63 16T32
87Q32 144 77 171T249 226V262Q249 320 236 348T191 377T140 367V303Q140 297 108 291T61 285T46 321Q46 338 52 357T65 384Q83 404 142 426T233 448Q298 448 334 408T371 290V87Q371 68 387 68L414 69H439ZM167 693Q227 695 249 695T276 683L356 511Q356 505 348
497T320 482L218 605L117 482Q89 489 81 511L167 693Z" />
<glyph unicode="&#xe3;" glyph-name="atilde" horiz-adv-x="457" d="M189 170T166 153T143 112T159 74T203 60T254 82L252 183Q189 170 166 153ZM439 69L447 28Q430 21 377 5T310 -12T291 -9T280 2T273 14T267 31T262 47Q208 -12 139 -12Q94 -12 63 16T32 87Q32
144 77 171T249 226V262Q249 320 236 348T191 377T140 367V303Q140 297 108 291T61 285T46 321Q46 338 52 357T65 384Q83 404 142 426T233 448Q298 448 334 408T371 290V87Q371 68 387 68L414 69H439ZM116 641L281 637Q332 637 359 669Q366 669 382 654Q383 652
383 649T381 642Q327 552 283 552L123 554Q86 554 56 529Q56 529 53 529T35 542Q33 545 33 548T35 554Q78 641 116 641Z" />
<glyph unicode="&#xe4;" glyph-name="adieresis" horiz-adv-x="457" d="M189 170T166 153T143 112T159 74T203 60T254 82L252 183Q189 170 166 153ZM439 69L447 28Q430 21 377 5T310 -12T291 -9T280 2T273 14T267 31T262 47Q208 -12 139 -12Q94 -12 63 16T32 87Q32
144 77 171T249 226V262Q249 320 236 348T191 377T140 367V303Q140 297 108 291T61 285T46 321Q46 338 52 357T65 384Q83 404 142 426T233 448Q298 448 334 408T371 290V87Q371 68 387 68L414 69H439ZM98 538T79 556T60 604T80 655T130 676T179 658T199 610T179
559T129 538ZM280 538T261 556T242 604T262 655T312 676T361 658T380 610T360 559T310 538Z" />
<glyph unicode="&#xe5;" glyph-name="aring" horiz-adv-x="457" d="M183 511T154 539T124 608T152 679T223 710T295 683T325 616T295 543T224 511ZM209 651T197 640T185 612T197 585T226 574T255 586T267 615Q267 651 228 651Q209 651 197 640ZM189 170T166 153T143
112T159 74T203 60T254 82L252 183Q189 170 166 153ZM439 69L447 28Q430 21 377 5T310 -12T291 -9T280 2T273 14T267 31T262 47Q208 -12 139 -12Q94 -12 63 16T32 87Q32 144 77 171T249 226V262Q249 320 236 348T191 377T140 367V303Q140 297 108 291T61 285T46
321Q46 338 52 357T65 384Q83 404 142 426T233 448Q298 448 334 408T371 290V87Q371 68 387 68L414 69H439Z" />
<glyph unicode="&#xe6;" glyph-name="ae" horiz-adv-x="697" d="M519 59Q553 59 585 74T629 101T646 107L662 85Q628 43 578 16T479 -12Q375 -12 315 53Q246 -12 163 -12Q100 -12 66 15T32 87Q32 144 82 176T257 232Q257 240 259 252V262Q259 377 189 377Q158
377 140 367V303Q140 297 108 291T61 285T46 321Q46 338 52 357T65 384Q83 404 142 426T233 448Q305 448 338 398Q400 448 477 448T609 403T664 271Q664 256 655 256L379 202Q378 152 416 106T519 59ZM549 330T527 359T463 389T398 351T375 272Q375 262 376 252L549
296Q549 330 527 359ZM143 87T162 74T215 60T286 93Q266 130 259 183Q143 156 143 113Q143 87 162 74Z" />
<glyph unicode="&#xe7;" glyph-name="ccedilla" horiz-adv-x="459" d="M35 207Q35 322 101 385T261 448Q308 448 362 430T436 393Q437 391 437 388Q437 372 401 321Q397 317 390 317T364 334Q309 387 262 387T190 347T165 238T198 114T298 59T416 106Q423 113
428 107L444 85Q384 10 298 -8L301 -12L263 -45Q306 -47 334 -70T362 -119Q362 -169 319 -190T209 -212Q203 -212 198 -212T193 -199T196 -185Q269 -176 269 -128Q269 -105 255 -95T221 -82T199 -78Q194 -72 188 -59Q188 -49 223 -10Q136 0 86 60T35 207Z" />
<glyph unicode="&#xe8;" glyph-name="egrave" horiz-adv-x="476" d="M437 236H165Q165 178 187 127Q200 97 229 78T297 59T367 74T411 101T428 107L444 85Q410 43 360 16T261 -12Q153 -12 94 49T35 215T101 384T252 448T391 399T446 251Q446 236 437 236ZM331
296Q331 387 256 387Q219 387 196 359T169 296H331ZM119 656Q118 657 118 659T122 664Q183 703 231 703L318 522Q312 500 282 493L119 656Z" />
<glyph unicode="&#xe9;" glyph-name="eacute" horiz-adv-x="476" d="M437 236H165Q165 178 187 127Q200 97 229 78T297 59T367 74T411 101T428 107L444 85Q410 43 360 16T261 -12Q153 -12 94 49T35 215T101 384T252 448T391 399T446 251Q446 236 437 236ZM331
296Q331 387 256 387Q219 387 196 359T169 296H331ZM388 683Q392 680 392 678T391 675L228 512Q198 519 192 541L279 722Q327 722 388 683Z" />
<glyph unicode="&#xea;" glyph-name="ecircumflex" horiz-adv-x="476" d="M437 236H165Q165 178 187 127Q200 97 229 78T297 59T367 74T411 101T428 107L444 85Q410 43 360 16T261 -12Q153 -12 94 49T35 215T101 384T252 448T391 399T446 251Q446 236 437 236ZM331
296Q331 387 256 387Q219 387 196 359T169 296H331ZM207 693Q267 695 289 695T316 683L396 511Q396 505 388 497T360 482L258 605L157 482Q129 489 121 511L207 693Z" />
<glyph unicode="&#xeb;" glyph-name="edieresis" horiz-adv-x="476" d="M437 236H165Q165 178 187 127Q200 97 229 78T297 59T367 74T411 101T428 107L444 85Q410 43 360 16T261 -12Q153 -12 94 49T35 215T101 384T252 448T391 399T446 251Q446 236 437 236ZM331
296Q331 387 256 387Q219 387 196 359T169 296H331ZM136 538T117 556T98 604T118 655T168 676T217 658T237 610T217 559T167 538ZM318 538T299 556T280 604T300 655T350 676T399 658T418 610T398 559T348 538Z" />
<glyph unicode="&#xec;" glyph-name="igrave" horiz-adv-x="319" d="M234 433V76Q234 60 245 53T293 45L304 -3Q199 0 159 0T51 -3L41 45Q82 46 96 53T110 76V316Q110 339 98 351T50 364H37L23 405Q113 426 201 456Q222 456 228 452T234 433ZM1 656Q0 657 0 659T4
664Q65 703 113 703L200 522Q194 500 164 493L1 656Z" />
<glyph unicode="&#xed;" glyph-name="iacute" horiz-adv-x="319" d="M234 433V76Q234 60 245 53T293 45L304 -3Q199 0 159 0T51 -3L41 45Q82 46 96 53T110 76V316Q110 339 98 351T50 364H37L23 405Q113 426 201 456Q222 456 228 452T234 433ZM305 683Q309 680
309 678T308 675L145 512Q115 519 109 541L196 722Q244 722 305 683Z" />
<glyph unicode="&#xee;" glyph-name="icircumflex" horiz-adv-x="319" d="M234 433V76Q234 60 245 53T293 45L304 -3Q199 0 159 0T51 -3L41 45Q82 46 96 53T110 76V316Q110 339 98 351T50 364H37L23 405Q113 426 201 456Q222 456 228 452T234 433ZM98 693Q158
695 180 695T207 683L287 511Q287 505 279 497T251 482L149 605L48 482Q20 489 12 511L98 693Z" />
<glyph unicode="&#xef;" glyph-name="idieresis" horiz-adv-x="319" d="M234 433V76Q234 60 245 53T293 45L304 -3Q199 0 159 0T51 -3L41 45Q82 46 96 53T110 76V316Q110 339 98 351T50 364H37L23 405Q113 426 201 456Q222 456 228 452T234 433ZM28 538T9 556T-10
604T10 655T60 676T109 658T129 610T109 559T59 538ZM210 538T191 556T172 604T192 655T242 676T291 658T310 610T290 559T240 538Z" />
<glyph unicode="&#xf0;" glyph-name="eth" horiz-adv-x="518" d="M508 122T439 55T262 -12T86 46T18 208T88 379T261 448Q310 448 354 434Q344 472 291 549L186 481Q178 481 164 498T145 529L256 598Q206 659 165 692Q158 698 168 714T186 734Q254 694 317 636L422
701Q433 699 446 686T463 661L358 593Q427 506 448 469Q508 365 508 234Q508 122 439 55ZM148 159T179 105T269 50T352 95T378 210T348 333T258 388T173 342T148 227Z" />
<glyph unicode="&#xf1;" glyph-name="ntilde" horiz-adv-x="582" d="M209 423T209 418T210 403T211 388Q287 428 322 438T382 448Q440 448 476 406T512 284V76Q512 67 513 62T525 51T554 45L565 -3Q460 0 433 0T339 -3L329 45Q363 46 375 53T388 76V254Q388 307
371 332T312 358T216 335V76Q216 67 217 62T229 51T258 45L269 -3Q164 0 137 0T43 -3L33 45Q67 46 79 53T92 76V316Q92 340 81 349T54 359T29 358L15 399Q77 414 183 456Q196 456 199 451T205 441T208 430ZM229 641L394 637Q445 637 472 669Q479 669 495 654Q496
652 496 649T494 642Q440 552 396 552L236 554Q199 554 169 529Q169 529 166 529T148 542Q146 545 146 548T148 554Q192 641 229 641Z" />
<glyph unicode="&#xf2;" glyph-name="ograve" horiz-adv-x="560" d="M165 159T196 105T286 50T369 95T395 210T365 333T275 388T190 342T165 227ZM171 -12T103 46T35 208T105 379T281 448T456 387T525 221T455 53T278 -12ZM141 656Q140 657 140 659T144 664Q205
703 253 703L340 522Q334 500 304 493L141 656Z" />
<glyph unicode="&#xf3;" glyph-name="oacute" horiz-adv-x="560" d="M165 159T196 105T286 50T369 95T395 210T365 333T275 388T190 342T165 227ZM171 -12T103 46T35 208T105 379T281 448T456 387T525 221T455 53T278 -12ZM416 683Q420 680 420 678T419 675L256
512Q226 519 220 541L307 722Q355 722 416 683Z" />
<glyph unicode="&#xf4;" glyph-name="ocircumflex" horiz-adv-x="560" d="M165 159T196 105T286 50T369 95T395 210T365 333T275 388T190 342T165 227ZM171 -12T103 46T35 208T105 379T281 448T456 387T525 221T455 53T278 -12ZM228 693Q288 695 310 695T337 683L417
511Q417 505 409 497T381 482L279 605L178 482Q150 489 142 511L228 693Z" />
<glyph unicode="&#xf5;" glyph-name="otilde" horiz-adv-x="560" d="M165 159T196 105T286 50T369 95T395 210T365 333T275 388T190 342T165 227ZM171 -12T103 46T35 208T105 379T281 448T456 387T525 221T455 53T278 -12ZM188 641L353 637Q404 637 431 669Q438
669 454 654Q455 652 455 649T453 642Q399 552 355 552Q355 552 195 554Q158 554 128 529Q128 529 125 529T107 542Q105 545 105 548T107 554Q150 641 188 641Z" />
<glyph unicode="&#xf6;" glyph-name="odieresis" horiz-adv-x="560" d="M165 159T196 105T286 50T369 95T395 210T365 333T275 388T190 342T165 227ZM171 -12T103 46T35 208T105 379T281 448T456 387T525 221T455 53T278 -12ZM158 538T139 556T120 604T140 655T190
676T239 658T259 610T239 559T189 538ZM340 538T321 556T302 604T322 655T372 676T421 658T440 610T420 559T370 538Z" />
<glyph unicode="&#xf7;" glyph-name="divide" horiz-adv-x="568" d="M251 346T234 363T216 407T234 453T280 473T326 456T344 412T326 365T279 346ZM250 57T233 74T216 118T234 164T280 184T326 168T344 124T326 77T279 57ZM281 301L498 304Q510 292 517 272T524
243T524 229Q308 233 284 233L54 229Q35 244 35 278Q35 291 39 304L281 301Z" />
<glyph unicode="&#xf8;" glyph-name="oslash" horiz-adv-x="529" d="M15 209Q15 311 85 379T258 448Q323 448 379 424L418 479Q438 479 459 450L423 398Q505 334 505 226T435 53T262 -12Q200 -12 151 6L112 -51Q105 -53 98 -53Q77 -53 54 -34L101 32Q15 91 15
209ZM195 388T170 342T145 232T166 124L329 354Q298 388 247 388ZM269 50Q324 50 349 95T375 200T358 304L200 76Q229 50 269 50Z" />
<glyph unicode="&#xf9;" glyph-name="ugrave" horiz-adv-x="566" d="M305 433L394 430Q434 430 482 436V113Q482 78 488 73T506 68H521L542 69L551 17Q480 13 393 -12Q374 -12 374 -1L368 44Q284 -12 231 -12Q74 -12 74 143L75 354Q75 363 74 368T62 379T33 385L22
433L111 430Q151 430 199 436V175Q199 78 277 78Q325 78 358 106V354Q358 363 357 368T345 379T316 385L305 433ZM107 656Q106 657 106 659T110 664Q171 703 219 703L306 522Q300 500 270 493L107 656Z" />
<glyph unicode="&#xfa;" glyph-name="uacute" horiz-adv-x="566" d="M305 433L394 430Q434 430 482 436V113Q482 78 488 73T506 68H521L542 69L551 17Q480 13 393 -12Q374 -12 374 -1L368 44Q284 -12 231 -12Q74 -12 74 143L75 354Q75 363 74 368T62 379T33 385L22
433L111 430Q151 430 199 436V175Q199 78 277 78Q325 78 358 106V354Q358 363 357 368T345 379T316 385L305 433ZM398 683Q402 680 402 678T401 675L238 512Q208 519 202 541L289 722Q337 722 398 683Z" />
<glyph unicode="&#xfb;" glyph-name="ucircumflex" horiz-adv-x="566" d="M305 433L394 430Q434 430 482 436V113Q482 78 488 73T506 68H521L542 69L551 17Q480 13 393 -12Q374 -12 374 -1L368 44Q284 -12 231 -12Q74 -12 74 143L75 354Q75 363 74 368T62 379T33
385L22 433L111 430Q151 430 199 436V175Q199 78 277 78Q325 78 358 106V354Q358 363 357 368T345 379T316 385L305 433ZM206 693Q266 695 288 695T315 683L395 511Q395 505 387 497T359 482L257 605L156 482Q128 489 120 511L206 693Z" />
<glyph unicode="&#xfc;" glyph-name="udieresis" horiz-adv-x="566" d="M305 433L394 430Q434 430 482 436V113Q482 78 488 73T506 68H521L542 69L551 17Q480 13 393 -12Q374 -12 374 -1L368 44Q284 -12 231 -12Q74 -12 74 143L75 354Q75 363 74 368T62 379T33
385L22 433L111 430Q151 430 199 436V175Q199 78 277 78Q325 78 358 106V354Q358 363 357 368T345 379T316 385L305 433ZM141 538T122 556T103 604T123 655T173 676T222 658T242 610T222 559T172 538ZM323 538T304 556T285 604T305 655T355 676T404 658T423 610T403
559T353 538Z" />
<glyph unicode="&#xfd;" glyph-name="yacute" horiz-adv-x="473" d="M309 433L402 430Q422 430 490 433L500 385Q476 384 463 378T442 354Q220 -159 218 -164T200 -195T172 -232T137 -255T83 -267T25 -245Q25 -229 38 -199T59 -168Q79 -173 110 -173Q135 -173
167 -112T222 11L70 341Q50 385 1 385L-10 433Q95 430 130 430T234 433L244 385Q208 384 198 377T193 353L276 137L360 354Q366 369 358 377T320 385L309 433ZM416 683Q420 680 420 678T419 675L256 512Q226 519 220 541L307 722Q355 722 416 683Z" />
<glyph unicode="&#xfe;" glyph-name="thorn" horiz-adv-x="543" d="M186 388Q265 448 338 448T466 386T521 224T460 57T306 -12Q245 -12 201 17V-179Q201 -195 216 -202T280 -210L291 -258Q186 -255 136 -255T18 -258L8 -210Q49 -209 63 -202T77 -179V583Q77 607
66 616T39 626T14 625L0 666Q62 681 168 723Q180 723 186 715V388ZM201 107Q201 83 228 67T292 50Q341 50 365 94T390 211T365 329T289 375T201 348V107Z" />
<glyph unicode="&#xff;" glyph-name="ydieresis" horiz-adv-x="500" d="M309 433L402 430Q422 430 490 433L500 385Q476 384 463 378T442 354Q220 -159 218 -164T200 -195T172 -232T137 -255T83 -267T25 -245Q25 -229 38 -199T59 -168Q79 -173 110 -173Q135 -173
167 -112T222 11L70 341Q50 385 1 385L-10 433Q95 430 130 430T234 433L244 385Q208 384 198 377T193 353L276 137L360 354Q366 369 358 377T320 385L309 433ZM158 538T139 556T120 604T140 655T190 676T239 658T259 610T239 559T189 538ZM340 538T321 556T302
604T322 655T372 676T421 658T440 610T420 559T370 538Z" />
<glyph unicode="&#x2013;" glyph-name="endash" horiz-adv-x="562" d="M17 253Q17 253 282 251L530 253Q537 245 543 217T550 173L281 175L28 173Q21 180 18 200T14 232T17 253Z" />
<glyph unicode="&#x2022;" glyph-name="bullet" horiz-adv-x="520" d="M181 83T141 123T101 225T143 332T248 377T351 340T392 241T349 131T243 83Z" />
<glyph unicode="&#x2039;" glyph-name="guilsinglleft" horiz-adv-x="395" d="M313 404Q324 381 324 360T323 333L154 221Q177 199 241 163T322 112Q323 109 323 101Q323 59 314 34Q302 46 199 111T67 184Q61 189 57 207T53 232T54 244Q140 288 224 344T313 404Z" />
<glyph unicode="&#x203a;" glyph-name="guilsinglright" horiz-adv-x="395" d="M84 34Q75 59 75 84T76 112Q93 126 157 162T244 221L75 333Q74 338 74 346Q74 381 85 404Q112 382 205 325T344 244Q345 240 345 233T341 207T331 184Q302 177 199 112T84 34Z" />
</font>
</defs>
</svg>
