<?xml version="1.0" standalone="no"?>
<!DOCTYPE svg PUBLIC "-//W3C//DTD SVG 1.1//EN" "http://www.w3.org/Graphics/SVG/1.1/DTD/svg11.dtd">
<svg xmlns="http://www.w3.org/2000/svg">
<defs >
<font id="ModernAntiqua" horiz-adv-x="1192" ><font-face
    font-family="Modern Antiqua"
    units-per-em="2048"
    panose-1="2 10 6 4 2 2 2 6 2 4"
    ascent="1815"
    descent="-508"
    alphabetic="0" />
<glyph unicode=" " glyph-name="space" horiz-adv-x="600" />
<glyph unicode="!" glyph-name="exclam" horiz-adv-x="660" d="M200 52T200 107T238 200T330 239T422 201T460 107T422 14T330 -25T238 13ZM280 312L202 1382Q200 1393 200 1404Q200 1459 238 1497T330 1536T422 1498T460 1404Q460 1404 458 1382L378 312H280Z" />
<glyph unicode="&quot;" glyph-name="quotedbl" horiz-adv-x="876" d="M676 1536V1087H502V1536H676ZM374 1536V1087H200V1536H374Z" />
<glyph unicode="#" glyph-name="numbersign" horiz-adv-x="1353" d="M200 462V593H440V804H200V935H440V1175H571V935H782V1175H913V935H1153V804H913V593H1153V462H913V222H782V462H571V222H440V462H200ZM571 804V593H782V804H571Z" />
<glyph unicode="$" glyph-name="dollar" horiz-adv-x="1306" d="M120 -26V746Q162 400 265 250L284 228Q300 204 364 160Q446 103 551 86V764L434 813Q224 931 222 1154V1174Q226 1329 334 1432Q424 1518 551 1533V1815H706V1520Q824 1491 878 1410L886 1409Q958
1417 990 1536V958Q930 1205 866 1290L832 1332Q817 1346 780 1376T706 1422V924L946 826Q1171 734 1186 463V424Q1156 228 1020 106Q898 -14 705 -24V-297H551V-10Q507 0 452 16L265 96L252 101Q152 93 120 -26ZM705 699V82Q707 82 708 82Q837 82 936 238Q989
330 989 431V457Q980 582 818 652L705 699ZM551 988V1432Q498 1419 460 1382Q396 1320 396 1216Q396 1213 396 1210Q396 1053 538 993L551 988Z" />
<glyph unicode="%" glyph-name="percent" horiz-adv-x="1771" d="M361 -227L1269 1815L1406 1751L495 -297L361 -227ZM1116 298Q1116 191 1152 119Q1190 43 1270 43Q1325 43 1370 113Q1414 181 1414 319Q1414 447 1367 513Q1322 576 1263 576Q1201 576 1157 513Q1116
454 1116 298ZM1571 311Q1571 225 1530 147Q1488 67 1420 21T1267 -25Q1190 -25 1114 21Q1039 66 998 144Q963 210 963 312Q963 413 1004 492Q1046 573 1114 618Q1184 664 1267 664Q1349 664 1420 618Q1488 574 1530 492Q1571 412 1571 311ZM507 915Q562 915 607
985Q651 1053 651 1191Q651 1319 604 1385Q559 1448 500 1448Q438 1448 394 1385Q353 1326 353 1170Q353 1061 389 991Q428 915 507 915ZM808 1183Q808 1097 767 1019Q725 939 657 893T504 847Q427 847 351 893Q276 938 235 1016Q200 1082 200 1184Q200 1285 241
1364Q283 1445 351 1490Q421 1536 504 1536Q586 1536 657 1490Q725 1446 767 1364Q808 1284 808 1183Z" />
<glyph unicode="&amp;" glyph-name="ampersand" horiz-adv-x="1556" d="M130 399L131 440Q145 600 233 704Q286 767 398 810Q477 840 529 856Q413 896 332 962L294 1000Q224 1066 224 1191Q224 1205 225 1220Q235 1369 366 1463Q468 1536 624 1538H627Q782 1538
877 1450Q1010 1303 1010 1187Q1010 1132 972 1092T880 1051T788 1089T750 1183T788 1276Q824 1312 874 1315Q857 1394 780 1432Q730 1457 643 1457Q635 1457 624 1457Q559 1457 486 1390L475 1377Q420 1310 416 1223Q415 1203 415 1192Q418 1043 486 984Q559 921
642 921Q689 921 741 942L751 944L1213 386Q1268 490 1283 631Q1233 633 1197 669Q1159 707 1159 763Q1159 818 1197 856T1289 895T1381 855T1419 759Q1419 502 1281 304L1436 117L1275 0L1147 157Q930 -25 708 -25Q467 -25 312 78Q150 186 130 399ZM1084 233L662
748L635 756Q619 757 611 757Q432 750 371 630Q345 579 345 457Q345 446 345 431V412Q345 277 417 201Q531 81 712 81Q726 81 738 82Q915 97 1084 233Z" />
<glyph unicode="&apos;" glyph-name="quotesingle" horiz-adv-x="574" d="M374 1536V1087H200V1536H374Z" />
<glyph unicode="(" glyph-name="parenleft" horiz-adv-x="657" d="M536 -293Q528 -291 437 -110Q433 -102 410 -59Q325 99 267 287Q200 502 200 763Q200 989 267 1241Q312 1407 410 1586L437 1637Q449 1660 545 1813L604 1774L529 1594Q518 1571 494 1489Q441
1318 421 1189Q389 983 389 766Q389 509 427 334Q460 180 514 1Q532 -60 532 -59L607 -260L536 -293Z" />
<glyph unicode=")" glyph-name="parenright" horiz-adv-x="657" d="M121 -293Q121 -293 50 -260L125 -59Q125 -60 143 1Q197 180 230 334Q268 509 268 766Q268 983 236 1189Q216 1318 163 1489Q139 1571 128 1594L53 1774L112 1813Q208 1660 220 1637L247 1586Q345
1407 390 1241Q457 989 457 763Q457 502 390 287Q332 99 247 -59Q224 -102 220 -110Q129 -291 121 -293Z" />
<glyph unicode="*" glyph-name="asterisk" horiz-adv-x="1393" d="M200 1039L544 1145L464 1287L607 1217L697 1536L808 1214L956 1286L887 1145L1193 1039L881 940L956 795L805 879L697 543L603 873L464 794L543 943L200 1039Z" />
<glyph unicode="+" glyph-name="plus" horiz-adv-x="1233" d="M200 601V798H518V1116H715V798H1033V601H715V283H518V601H200Z" />
<glyph unicode="," glyph-name="comma" horiz-adv-x="712" d="M200 -246Q200 -246 210 -236Q283 -168 310 -104Q329 -58 332 -17V4Q299 12 273 38Q235 76 235 132Q235 187 273 225T365 264Q413 264 457 228Q500 193 509 126Q512 103 512 81Q512 1 473 -76Q400
-219 291 -242Q262 -248 234 -248Q218 -248 200 -246Z" />
<glyph unicode="-" glyph-name="hyphen" horiz-adv-x="1233" d="M200 798H1033V601H200V798Z" />
<glyph unicode="." glyph-name="period" horiz-adv-x="660" d="M200 52T200 107T238 200T330 239T422 201T460 107T422 14T330 -25T238 13Z" />
<glyph unicode="/" glyph-name="slash" horiz-adv-x="1045" d="M0 -227L908 1815L1045 1751L134 -297L0 -227Z" />
<glyph unicode="0" glyph-name="zero" horiz-adv-x="1384" d="M338 727Q338 570 370 462Q419 268 502 178Q593 80 692 80Q694 80 695 80Q697 80 698 80Q781 80 890 180Q966 274 1005 417Q1044 559 1044 727Q1044 741 1044 758Q1044 945 1005 1069Q956 1253 870
1346Q791 1431 693 1431H691Q594 1431 520 1364Q431 1292 382 1096Q338 918 338 727ZM130 580T130 744T174 1060T294 1314Q370 1415 474 1475T692 1536T910 1476T1090 1314Q1166 1212 1210 1060T1254 744T1210 440T1090 197Q1014 96 910 36T692 -25T474 35T294
197Q218 299 174 439Z" />
<glyph unicode="1" glyph-name="one" horiz-adv-x="697" d="M60 0Q184 24 248 140L250 148V1099V1108Q250 1235 60 1247L447 1551V148L449 139Q503 28 637 0H60Z" />
<glyph unicode="2" glyph-name="two" horiz-adv-x="1335" d="M130 0Q194 451 586 682L653 711Q917 813 917 1099V1118Q917 1254 852 1328Q763 1429 651 1429H649Q497 1429 397 1342Q319 1274 297 1175Q347 1173 383 1136Q421 1098 421 1043T383 950T291 911T199
951T161 1047Q161 1245 306 1392Q452 1536 645 1537H647Q841 1537 989 1418Q1138 1297 1138 1094V1062Q1126 845 963 739Q850 665 712 610Q500 541 280 235Q335 273 392 273Q394 273 395 273T398 273Q506 273 679 223L897 176Q939 167 978 167Q1111 167 1215 271Q1104
-25 946 -25Q944 -25 942 -25T938 -25T934 -25H933Q808 -25 641 25L434 72Q386 83 342 83Q220 83 131 1L130 0Z" />
<glyph unicode="3" glyph-name="three" horiz-adv-x="1248" d="M120 464Q120 519 158 559T250 600T342 562T380 468Q380 412 342 374Q306 338 256 336Q278 237 356 169Q456 82 608 82Q740 82 830 184Q896 259 896 413V432Q896 557 866 620Q824 708 754 754Q700
789 554 852L686 926Q754 973 770 990Q825 1050 825 1181Q825 1197 824 1212Q818 1302 773 1376L762 1389Q688 1457 595 1457Q514 1457 465 1432Q388 1393 371 1315Q421 1313 457 1276Q495 1238 495 1183T457 1090T365 1051T273 1091T235 1187Q235 1303 368 1450Q462
1537 615 1537H618Q779 1536 874 1474Q1015 1382 1026 1226Q1027 1212 1027 1198V1195Q1027 1083 954 996L914 956Q834 892 716 856Q726 849 847 810Q924 785 1000 716Q1107 617 1117 439L1118 398Q1099 193 959 84T614 -25T265 119Q120 266 120 464Z" />
<glyph unicode="4" glyph-name="four" horiz-adv-x="1144" d="M-60 360L894 1551V462H1067L1011 360H894V148L896 139Q950 28 1084 0H507Q631 24 695 140L697 148V360H-60ZM697 462V1147L144 462H697Z" />
<glyph unicode="5" glyph-name="five" horiz-adv-x="1262" d="M130 464Q130 519 168 559T260 600T352 562T390 468T352 374Q316 338 266 336Q288 237 366 169Q466 82 618 82Q749 82 840 184Q904 257 904 441V460Q904 608 877 668Q820 795 691 820Q655 827 619
827Q563 827 508 810Q440 798 384 708L366 680Q298 830 161 844L150 846Q306 998 306 1164T150 1511H1094Q1005 1366 844 1314Q776 1292 708 1292Q704 1292 700 1292Q664 1292 626 1300Q465 1334 372 1418Q372 1134 372 851L396 864Q496 927 632 927Q674 927 718
921Q894 897 1008 784Q1123 670 1131 465L1132 424Q1132 220 980 98T624 -25T275 119Q130 266 130 464Z" />
<glyph unicode="6" glyph-name="six" horiz-adv-x="1312" d="M726 1538Q845 1538 948 1478Q1064 1398 1112 1312Q1123 1296 1142 1249Q1152 1225 1152 1183Q1152 1182 1152 1181T1152 1179Q1152 1132 1113 1090Q1078 1052 1021 1052Q967 1052 929 1090T891 1184T929
1278Q949 1298 988 1309Q960 1351 915 1386Q855 1433 731 1447Q722 1448 712 1447Q560 1432 490 1328Q419 1223 385 1062Q357 930 357 850Q357 835 358 822L396 866Q524 962 688 962Q903 962 1046 820Q1165 694 1182 493V480V452Q1182 262 1041 120Q896 -25 692
-25Q578 -25 474 35T294 197Q218 299 174 439T130 734Q130 914 174 1063Q218 1214 294 1314Q371 1416 474 1476Q581 1538 726 1538ZM616 862Q501 862 416 764Q402 748 362 677Q362 670 362 669Q362 666 362 662Q362 593 400 444Q440 289 500 200Q579 78 739 78Q740
78 742 78Q865 78 938 204Q976 270 976 401Q976 432 974 466Q954 626 882 726Q773 862 616 862Z" />
<glyph unicode="7" glyph-name="seven" horiz-adv-x="1005" d="M0 1264Q95 1536 266 1536H269Q346 1535 514 1486L686 1439Q728 1430 768 1430H770Q901 1430 1005 1534Q977 1268 789 1009Q584 727 579 721Q493 628 469 486Q462 445 462 412Q462 334 524 279Q611
202 611 103Q611 75 608 66Q578 -25 487 -25Q434 -25 384 12Q331 51 302 127Q281 182 272 282Q270 305 270 327Q271 445 317 552Q356 643 410 705Q532 849 544 864Q658 998 710 1070Q795 1187 847 1283Q790 1238 728 1238Q726 1238 723 1238Q650 1238 477 1288L305
1335Q256 1348 210 1348H207Q91 1348 0 1264Z" />
<glyph unicode="8" glyph-name="eight" horiz-adv-x="1243" d="M698 927Q788 965 842 1058Q876 1116 876 1187Q876 1204 874 1222Q861 1336 770 1396Q703 1440 623 1440Q508 1440 438 1372Q382 1311 382 1204Q382 1202 382 1200Q382 1051 483 1011L685 931L698
927ZM120 414Q120 417 120 420Q120 480 138 548Q164 646 228 722Q301 808 384 845L357 862Q210 980 209 1155V1175Q212 1329 320 1433T601 1537Q791 1537 899 1434Q1001 1337 1001 1192Q1001 1073 939 982Q893 914 831 880L822 875L889 840Q1102 729 1123 465V426Q1108
236 986 109Q850 -24 655 -24H647Q470 -24 389 22Q296 74 232 145Q151 234 130 324Q120 367 120 414ZM502 774Q432 756 356 700Q304 652 270 570Q237 490 235 419Q235 410 236 400Q247 293 319 214Q421 102 604 86L628 88Q927 135 927 434Q927 447 926 459Q916
584 805 653L502 774Z" />
<glyph unicode="9" glyph-name="nine" horiz-adv-x="1312" d="M586 -25Q467 -25 364 35Q248 115 200 201Q189 217 170 264Q160 288 160 330Q160 331 160 332T160 334Q160 381 199 423Q234 461 291 461Q345 461 383 423T421 329T383 235Q363 215 324 204Q352 162
397 127Q457 80 581 66Q590 65 600 66Q752 81 822 185Q893 290 927 451Q955 583 955 663Q955 678 954 691L916 647Q788 551 624 551Q409 551 266 693Q147 819 130 1020V1033V1061Q130 1251 271 1393Q416 1538 620 1538Q734 1538 838 1478T1018 1316Q1094 1214 1138
1074T1182 779Q1182 599 1138 450Q1094 299 1018 199Q941 97 838 37Q731 -25 586 -25ZM696 651Q811 651 896 749Q910 765 950 836Q950 843 950 844Q950 847 950 851Q950 920 912 1069Q872 1224 812 1313Q733 1435 573 1435Q572 1435 570 1435Q447 1435 374 1309Q336
1243 336 1112Q336 1081 338 1047Q358 887 430 787Q539 651 696 651Z" />
<glyph unicode=":" glyph-name="colon" horiz-adv-x="662" d="M202 52T202 107T240 200T332 239T424 201T462 107T424 14T332 -25T240 13ZM200 631T200 686T238 779T330 818T422 780T460 686T422 593T330 554T238 592Z" />
<glyph unicode=";" glyph-name="semicolon" horiz-adv-x="712" d="M200 -272Q200 -272 210 -262Q283 -194 310 -130Q329 -84 332 -43V-22Q299 -14 273 12Q235 50 235 106Q235 161 273 199T365 238Q413 238 457 202Q500 167 509 100Q512 77 512 55Q512 -25 473
-102Q400 -245 291 -268Q262 -274 234 -274Q218 -274 200 -272ZM226 629T226 684T264 777T356 816T448 778T486 684T448 591T356 552T264 590Z" />
<glyph unicode="&lt;" glyph-name="less" horiz-adv-x="1337" d="M130 686L1074 1220L1137 1115L451 727L1137 349L1054 167L130 686Z" />
<glyph unicode="=" glyph-name="equal" horiz-adv-x="1234" d="M200 633H1033V436H200V633ZM201 981H1034V784H200L201 981Z" />
<glyph unicode="&gt;" glyph-name="greater" horiz-adv-x="1337" d="M1207 701L263 167L200 272L886 660L200 1038L283 1220L1207 701Z" />
<glyph unicode="?" glyph-name="question" horiz-adv-x="1257" d="M458 52T458 107T496 200T588 239T680 201T718 107T680 14T588 -25T496 13ZM530 388V429Q536 570 652 670L682 692Q895 848 912 1042V1072Q912 1210 872 1272Q784 1410 613 1420Q467 1419 373
1324Q302 1252 274 1174Q319 1170 352 1136Q390 1098 390 1043T352 950T260 911T168 949T130 1043Q130 1245 275 1392Q420 1536 624 1536T977 1409T1127 1077L1126 1036Q1111 847 954 742L736 596Q623 522 623 403V388H530Z" />
<glyph unicode="@" glyph-name="at" horiz-adv-x="1350" d="M802 634Q759 634 706 592Q677 569 654 506Q639 465 636 392Q635 368 635 348Q635 317 638 292Q648 206 696 156Q746 104 806 104Q806 104 830 104Q905 110 962 140L961 478Q956 537 910 584Q861 634
802 634ZM150 214T150 368T194 663T314 906Q390 1007 494 1067T712 1128Q829 1128 932 1053Q1036 977 1093 847Q1153 724 1153 564V148L1157 140Q1211 29 1350 0H962V35Q915 10 872 0Q846 -6 813 -6T741 0Q644 15 561 100Q505 159 478 242Q460 298 460 367Q460
389 462 410Q472 515 504 572Q537 631 608 672Q695 722 764 722Q837 722 920 684L952 666Q938 865 874 934Q804 1010 708 1010Q600 1010 530 948Q442 874 399 698Q360 538 360 383Q360 376 360 368Q360 212 398 76Q450 -82 540 -197Q602 -276 716 -276Q822 -276
912 -200L1012 -273Q973 -305 930 -330Q825 -391 712 -391Q598 -391 494 -331T314 -169Q238 -67 194 73Z" />
<glyph unicode="A" glyph-name="A" horiz-adv-x="1320" d="M-70 0Q53 24 117 140L120 148L655 1551L1200 148L1201 145L1204 136Q1268 24 1390 0H812Q1003 56 1003 124Q1003 131 1001 139L998 148L845 540H384L237 148L234 138Q232 132 232 125Q232 64 423 0H-70ZM422
642H806L612 1170L422 642Z" />
<glyph unicode="B" glyph-name="B" horiz-adv-x="1514" d="M549 1419Q499 1401 476 1373Q450 1341 448 1281V230Q448 186 462 163Q481 132 510 115Q585 77 685 77Q701 77 717 78Q926 91 1006 158Q1087 213 1132 302Q1163 363 1163 461Q1163 480 1162 500Q1155
640 990 710Q896 750 782 788Q629 839 612 846Q783 901 803 908Q864 930 910 956Q950 978 974 1002Q1028 1058 1028 1156Q1028 1160 1028 1166Q1028 1287 924 1368Q858 1419 714 1440Q700 1442 674 1442Q623 1441 549 1419ZM60 148Q77 149 176 170Q217 179 237
195Q250 205 250 230V1281Q250 1304 234 1319Q212 1339 182 1344Q92 1359 60 1363L404 1494Q514 1536 710 1536Q845 1536 956 1492Q1070 1447 1134 1382Q1218 1297 1230 1179Q1231 1169 1231 1159Q1231 1107 1208 1056Q1181 996 1121 952Q1088 928 997 894Q989
891 820 846Q919 838 975 831Q1122 812 1186 782Q1338 711 1373 554Q1384 505 1384 457Q1384 376 1354 294Q1311 176 1188 94Q1128 54 972 8Q859 -25 710 -25Q697 -25 661 -24Q514 -18 380 32Q130 125 60 148Z" />
<glyph unicode="C" glyph-name="C" horiz-adv-x="1366" d="M130 580T130 744T174 1060Q219 1216 294 1314Q372 1417 474 1476Q577 1536 682 1536Q687 1536 692 1536Q808 1536 907 1484Q975 1448 1015 1411L1023 1410Q1123 1418 1155 1537V959Q1103 1163 1033 1279Q999
1332 946 1371Q864 1431 752 1431Q623 1431 514 1345Q435 1254 388 1084Q342 917 342 759Q342 753 342 746Q342 590 374 462Q448 242 552 156Q637 86 771 86Q794 86 818 88Q892 94 984 152Q1035 183 1098 262Q1138 312 1164 394L1266 354Q1228 267 1178 200Q1101
98 998 39Q885 -25 739 -25Q736 -25 734 -25Q581 -25 476 35Q370 96 294 197Q219 297 174 440Q130 580 130 744Z" />
<glyph unicode="D" glyph-name="D" horiz-adv-x="1504" d="M549 1419Q500 1401 476 1373Q450 1343 448 1281V230Q448 186 462 163Q481 132 510 115Q584 78 709 78Q713 78 716 78Q832 78 948 184Q1052 296 1104 430Q1154 559 1154 730Q1154 742 1154 756Q1154 946
1115 1067Q1050 1243 942 1334Q846 1415 711 1431Q685 1434 656 1434Q601 1433 549 1419ZM60 148Q76 149 176 170Q217 179 237 195Q250 205 250 230V1281Q250 1304 234 1319Q213 1339 184 1344Q80 1361 60 1363L404 1494Q525 1536 682 1536Q695 1536 710 1536Q825
1536 956 1473Q1079 1413 1179 1302Q1264 1208 1319 1058T1374 744T1318 438Q1263 297 1179 201Q1094 103 959 38Q828 -25 688 -25Q533 -25 380 32Q142 121 60 148Z" />
<glyph unicode="E" glyph-name="E" horiz-adv-x="1322" d="M60 0Q184 24 248 140L250 148V1363L248 1371Q184 1487 60 1511H1006L1192 1189Q986 1401 915 1408L901 1409H448V642H761L775 643Q846 650 1052 862L763 361Q772 394 772 422Q772 496 712 537L705 540H448V102H1031L1045
103Q1116 110 1322 322L1136 0H60Z" />
<glyph unicode="F" glyph-name="F" horiz-adv-x="1272" d="M60 0Q184 24 248 140L250 148V1363L248 1371Q184 1487 60 1511H1006L1192 1189Q986 1401 915 1408L901 1409H448V642H761L775 643Q846 650 1052 862L763 361Q772 394 772 422Q772 496 712 537L705 540H448V148L450
139Q504 28 638 0H60Z" />
<glyph unicode="G" glyph-name="G" horiz-adv-x="1350" d="M130 580T130 744T174 1060Q219 1216 294 1314Q372 1417 474 1476Q577 1536 682 1536Q687 1536 692 1536Q808 1536 907 1484Q975 1448 1015 1411L1023 1410Q1123 1418 1155 1537V959Q1103 1163 1033 1279Q999
1332 946 1371Q864 1431 752 1431Q634 1431 524 1344Q437 1259 388 1084Q342 919 342 761Q342 755 342 748Q342 592 374 464Q432 249 498 178Q589 80 700 80Q794 80 887 165Q988 277 1004 370Q1009 399 1009 424Q1009 476 990 510L985 517Q910 622 730 642H1250Q1240
535 1210 440Q1166 298 1090 197Q1015 97 910 36Q806 -25 692 -25T474 35T294 197Q218 299 174 439Z" />
<glyph unicode="H" glyph-name="H" horiz-adv-x="1547" d="M60 0Q184 24 248 140L250 148V1363L248 1371Q184 1487 60 1511H638Q504 1483 450 1372L448 1363V642H1099V1363L1097 1371Q1033 1487 909 1511H1487Q1353 1483 1299 1372L1297 1363V148L1299 139Q1353
28 1487 0H909Q1033 24 1097 140L1099 148V540H448V148L450 139Q504 28 638 0H60Z" />
<glyph unicode="I" glyph-name="I" horiz-adv-x="698" d="M60 0Q184 24 248 140L250 148V1363L248 1371Q184 1487 60 1511H638Q504 1483 450 1372L448 1363V148L450 139Q504 28 638 0H60Z" />
<glyph unicode="J" glyph-name="J" horiz-adv-x="698" d="M60 -312Q250 -109 250 137Q250 139 250 140V148V1363L248 1371Q184 1487 60 1511H638Q504 1483 450 1372L448 1363V148V140Q448 -195 67 -311L60 -312Z" />
<glyph unicode="K" glyph-name="K" horiz-adv-x="1496" d="M60 0Q184 24 248 140L250 148V1363L248 1371Q184 1487 60 1511H638Q504 1483 450 1372L448 1363V588L1093 1393L1101 1404Q1105 1411 1105 1421Q1105 1460 932 1511H1403Q1332 1490 1220 1372L1213 1363L628
640Q683 661 728 661Q730 661 732 661Q905 661 1010 535Q1062 473 1190 183L1211 139Q1253 56 1316 56Q1317 56 1319 56Q1374 56 1419 94Q1469 138 1496 158Q1483 32 1412 -42Q1334 -123 1249 -123Q1248 -123 1247 -123Q1156 -123 1082 -29Q1067 -10 1022 75L879
378Q811 511 736 539Q646 573 575 575L571 570L448 417V148L450 139Q504 28 638 0H60Z" />
<glyph unicode="L" glyph-name="L" horiz-adv-x="1161" d="M60 0Q184 24 248 140L250 148V1363L248 1371Q184 1487 60 1511H638Q504 1483 450 1372L448 1363V102H950L964 103Q1035 110 1241 322L1055 0H60Z" />
<glyph unicode="M" glyph-name="M" horiz-adv-x="1814" d="M-20 0Q114 28 168 139L170 148L380 1551L919 337L1435 1551L1644 148L1646 139Q1700 28 1834 0H1256Q1447 71 1447 135Q1447 137 1447 140L1446 148L1315 1011L860 -40L400 1020L282 148L281 136Q283
76 472 0H-20Z" />
<glyph unicode="N" glyph-name="N" horiz-adv-x="1550" d="M60 0Q184 24 248 140L250 148V1551L1188 440V1363L1186 1371Q1122 1487 998 1511H1490Q1356 1483 1302 1372L1300 1363V-40L362 1081V148L364 139Q418 28 552 0H60Z" />
<glyph unicode="O" glyph-name="O" horiz-adv-x="1384" d="M338 727Q338 570 370 462Q419 268 502 178Q593 80 692 80Q694 80 695 80Q697 80 698 80Q781 80 890 180Q966 274 1005 417Q1044 559 1044 727Q1044 741 1044 758Q1044 945 1005 1069Q956 1253 870 1346Q791
1431 693 1431H691Q594 1431 520 1364Q431 1292 382 1096Q338 918 338 727ZM130 580T130 744T174 1060T294 1314Q370 1415 474 1475T692 1536T910 1476T1090 1314Q1166 1212 1210 1060T1254 744T1210 440T1090 197Q1014 96 910 36T692 -25T474 35T294 197Q218 299
174 439Z" />
<glyph unicode="P" glyph-name="P" horiz-adv-x="1368" d="M50 0Q174 24 238 140L240 148V1280Q240 1304 227 1315Q209 1330 166 1340Q78 1360 50 1362Q119 1393 356 1476Q524 1535 646 1535Q650 1535 654 1535Q803 1535 904 1494Q1006 1454 1074 1392Q1167 1307
1206 1212Q1232 1158 1238 1032Q1233 835 1124 720Q1026 617 904 572Q820 541 715 541Q695 541 674 542Q529 549 438 626V148L440 139Q494 28 628 0H50ZM653 1432Q575 1432 500 1395Q470 1377 452 1347Q438 1323 438 1280V782Q488 689 600 654Q648 640 693 640Q698
640 704 640Q708 640 744 642Q839 652 904 704Q1022 799 1022 1032Q1022 1152 974 1248Q932 1332 846 1386Q772 1432 653 1432Z" />
<glyph unicode="Q" glyph-name="Q" horiz-adv-x="1384" d="M130 580T130 744T174 1060T294 1314Q370 1415 474 1475T692 1536T910 1476T1090 1314Q1166 1212 1210 1060T1254 744T1210 440Q1165 295 1090 197Q1077 180 1063 163Q1065 137 1062 114L1046 -8L1041
-68V-81Q1041 -138 1187 -138Q1202 -138 1216 -137L1176 -215Q1050 -267 974 -267Q861 -267 861 -151Q861 -146 861 -140Q861 -100 869 -8L871 15Q785 -25 692 -25Q578 -25 474 35T294 197Q218 299 174 439ZM336 695Q336 590 370 460Q424 257 498 176Q586 80 702
80Q749 80 803 109Q773 115 731 115Q714 115 698 114L738 192Q877 258 957 259Q976 297 1009 417Q1048 559 1048 727Q1048 741 1048 758Q1048 946 1009 1069Q973 1217 874 1336Q795 1431 691 1431Q599 1431 520 1360Q425 1281 382 1094Q336 895 336 695Z" />
<glyph unicode="R" glyph-name="R" horiz-adv-x="1436" d="M663 1432Q585 1432 510 1395Q480 1377 462 1347Q448 1323 448 1280V782Q498 689 610 654Q658 640 703 640Q708 640 714 640Q718 640 754 642Q849 652 914 704Q1032 799 1032 1032Q1032 1152 984 1248Q942
1332 856 1386Q782 1432 663 1432ZM60 0Q184 24 248 140L250 148V1280Q250 1304 237 1315Q219 1330 176 1340Q88 1360 60 1362Q129 1393 366 1476Q534 1535 656 1535Q660 1535 664 1535Q813 1535 914 1494Q1016 1454 1084 1392Q1177 1307 1216 1212Q1242 1158 1248
1032Q1243 836 1134 720Q1051 632 948 586Q985 565 1010 535Q1061 473 1190 183L1211 139Q1254 56 1315 56Q1317 56 1319 56Q1373 56 1419 94Q1469 138 1496 158Q1483 32 1412 -42Q1334 -123 1251 -123Q1249 -123 1247 -123Q1152 -123 1082 -29Q1067 -9 1022 75L879
378Q812 508 736 539L730 541Q708 541 684 542Q540 548 448 626V148L450 139Q504 28 638 0H60Z" />
<glyph unicode="S" glyph-name="S" horiz-adv-x="1306" d="M120 746Q162 400 265 250L284 228Q300 205 364 160Q478 80 634 80Q636 80 638 80Q700 80 708 82Q856 112 936 238Q989 330 989 431V457Q980 582 818 652L478 808Q224 926 222 1154V1174Q226 1329 334
1432Q443 1536 608 1536Q611 1536 614 1536Q780 1536 875 1411L883 1410Q958 1418 990 1536V958Q930 1205 866 1290L832 1332Q817 1346 780 1376Q703 1439 622 1440Q622 1440 619 1440Q522 1440 460 1382Q396 1322 396 1216Q396 1213 396 1210Q396 1071 582 988L946
826Q1171 726 1186 463V424Q1156 228 1020 106Q887 -25 668 -25H660Q588 -25 452 16L265 96L252 101Q152 93 120 -26V746Z" />
<glyph unicode="T" glyph-name="T" horiz-adv-x="1194" d="M308 0Q432 24 496 140L498 148V1409H211L197 1408Q126 1401 -80 1189L106 1511H1088L1274 1189Q1068 1401 997 1408L983 1409H696V148L698 139Q752 28 886 0H308Z" />
<glyph unicode="U" glyph-name="U" horiz-adv-x="1547" d="M60 1511Q60 1511 638 1511Q504 1483 450 1372L448 1363V498Q453 349 554 244Q662 132 816 132T1078 244Q1179 349 1185 498V1363L1183 1371Q1119 1487 995 1511H1487Q1353 1483 1299 1372L1297 1363V498V495Q1297
389 1256 293T1145 127Q1075 57 978 16T774 -25T570 16T403 127Q334 197 292 293T250 495V498V1363L248 1371Q184 1487 60 1511Z" />
<glyph unicode="V" glyph-name="V" horiz-adv-x="1320" d="M-70 1511H508Q317 1426 317 1380Q317 1376 319 1372L322 1363L708 370L1080 1363L1083 1373Q1085 1378 1085 1384Q1080 1444 894 1511H1390Q1267 1487 1203 1371L1200 1363L665 -40L120 1363L119 1366L116
1375Q52 1487 -70 1511Z" />
<glyph unicode="W" glyph-name="W" horiz-adv-x="1877" d="M-70 1511H508Q317 1442 317 1385Q317 1378 319 1372L322 1363L715 390L887 828L628 1511H830L987 1086L1152 1511H1269L1046 944L1266 375L1640 1363L1642 1371Q1644 1377 1644 1383V1384Q1644 1441
1454 1511H1947Q1824 1487 1760 1371L1757 1363L1222 -40L946 689L665 -40L120 1363L119 1366L116 1375Q52 1487 -70 1511Z" />
<glyph unicode="X" glyph-name="X" horiz-adv-x="1248" d="M-2 0Q93 24 161 105L187 146L540 720L160 1363L155 1372Q98 1475 -30 1511H548Q370 1435 370 1384Q370 1377 374 1370L377 1363L656 885L942 1364L947 1373Q955 1386 955 1399V1400Q955 1459 771 1511H1256Q1149
1481 1092 1404L1069 1368L726 774L1093 138L1099 128Q1157 34 1278 0H700Q882 57 882 118Q882 129 876 140L872 148L606 609L312 148L307 140Q298 125 298 111Q298 48 483 0H-2Z" />
<glyph unicode="Y" glyph-name="Y" horiz-adv-x="1320" d="M370 0Q494 24 558 140L560 148V642H475L120 1363L119 1366L116 1375Q52 1487 -70 1511H508Q314 1442 314 1387Q314 1379 318 1372L322 1363L674 642H722L1083 1363L1087 1372Q1091 1379 1091 1387Q1090
1442 897 1511H1390Q1267 1487 1203 1371L1200 1363L831 642H758V148L760 139Q814 28 948 0H370Z" />
<glyph unicode="Z" glyph-name="Z" horiz-adv-x="1181" d="M0 0L849 1409H347L333 1408Q262 1401 56 1189L242 1511H1128L301 102H890L904 103Q975 110 1181 322L995 0H0Z" />
<glyph unicode="[" glyph-name="bracketleft" horiz-adv-x="765" d="M200 -297V1815H715V1695H397V-182H715V-297H200Z" />
<glyph unicode="\" glyph-name="backslash" horiz-adv-x="1045" d="M911 -297L0 1751L137 1815L1045 -227L911 -297Z" />
<glyph unicode="]" glyph-name="bracketright" horiz-adv-x="765" d="M565 -297H50V-182H368V1695H50V1815H565V-297Z" />
<glyph unicode="^" glyph-name="asciicircum" horiz-adv-x="1320" d="M150 1168L675 1518L1170 1168L1009 1014L595 1314L238 1080L150 1168Z" />
<glyph unicode="_" glyph-name="underscore" horiz-adv-x="1233" d="M200 197H1033V0H200V197Z" />
<glyph unicode="`" glyph-name="grave" horiz-adv-x="800" d="M580 1148L253 1331L236 1345Q205 1368 201 1413Q200 1423 200 1431Q200 1475 229 1504Q261 1536 305 1536Q319 1536 334 1533Q372 1525 398 1496Q409 1484 412 1479L600 1169L580 1148Z" />
<glyph unicode="a" glyph-name="a" horiz-adv-x="1198" d="M327 542Q327 317 377 210Q442 71 555 71Q570 71 585 71Q668 71 745 148L755 163Q770 179 770 230V847Q770 898 756 914L746 929Q669 1006 586 1006Q571 1006 556 1006Q443 1006 378 867Q327 758 327
542ZM110 551Q110 699 169 826Q228 954 331 1027Q437 1102 569 1102Q684 1102 852 1043Q1093 958 1158 929Q1136 928 1042 907Q1002 898 981 882Q968 872 968 847V230Q968 204 980 195Q1001 179 1041 170Q1135 149 1157 148Q1092 119 851 34Q683 -25 568 -25Q436
-25 330 50Q227 123 168 251Q110 376 110 551Z" />
<glyph unicode="b" glyph-name="b" horiz-adv-x="1198" d="M642 72Q755 73 820 211Q870 318 870 543Q870 764 806 873Q741 980 618 981Q618 981 615 981Q510 981 457 902Q430 862 428 830V821V231Q428 180 442 164L452 149Q515 86 624 73Q633 72 642 72ZM40 149Q63
151 156 171Q196 180 217 196Q230 206 230 231V1314Q230 1339 217 1349Q196 1366 153 1374Q50 1395 40 1396Q49 1400 346 1510Q373 1520 428 1536V1033Q527 1103 644 1103Q766 1103 867 1028Q967 954 1028 822Q1088 692 1088 527Q1088 379 1029 252Q969 122 867
51Q760 -24 629 -24Q514 -24 346 35Q97 122 40 149Z" />
<glyph unicode="c" glyph-name="c" horiz-adv-x="1088" d="M110 539Q110 691 170 822T331 1028Q430 1101 554 1102H557Q674 1102 777 1028Q881 953 927 848L941 816L942 814Q960 765 960 722Q960 667 922 626Q885 586 830 586Q776 586 738 624T700 718T738 811Q761
834 789 844Q772 872 742 906Q681 975 584 984H582Q451 984 382 877Q312 768 312 542V538Q312 307 401 198T588 89H590Q712 89 799 196Q834 239 862 313L978 280Q975 267 971 257Q918 132 810 51Q709 -25 572 -25H569Q431 -25 331 49T170 256Q110 386 110 539Z"
/>
<glyph unicode="d" glyph-name="d" horiz-adv-x="1198" d="M328 543Q328 318 378 211Q443 72 571 72Q668 72 746 149L756 164Q770 182 770 231V830Q768 862 741 902Q688 981 583 981H580Q457 980 392 873Q328 764 328 543ZM110 527Q110 692 170 822Q231 954 331
1028Q432 1103 554 1103Q671 1103 770 1033V1314Q770 1336 757 1349Q745 1361 691 1372Q636 1384 580 1396Q643 1424 886 1510Q917 1521 968 1536V231Q969 207 981 196Q997 182 1042 171Q1124 151 1158 149Q1097 121 852 35Q684 -24 562 -24Q558 -24 554 -24Q437
-24 331 51Q229 123 169 252Q110 379 110 527Z" />
<glyph unicode="e" glyph-name="e" horiz-adv-x="1088" d="M110 539Q110 689 170 821Q229 951 331 1027Q432 1102 554 1102Q670 1102 773 1034Q848 993 907 895Q949 825 954 743Q953 566 795 453Q661 357 478 357Q476 357 335 365Q360 262 402 198Q473 90 588
90H590Q713 90 799 196Q834 239 862 314L978 280Q974 264 971 258Q887 104 810 52Q685 -24 572 -24H569Q432 -24 331 50T170 256T110 539ZM766 744Q766 857 706 922Q654 979 562 987H560Q450 987 384 880Q334 798 322 676Q315 605 315 522Q315 494 319 457Q410
455 501 455Q548 455 568 460Q669 485 708 544Q766 641 766 744Z" />
<glyph unicode="f" glyph-name="f" horiz-adv-x="1027" d="M40 0Q164 24 228 140L230 148V1281Q230 1304 217 1316Q200 1331 156 1341Q65 1362 40 1363Q103 1392 346 1477Q514 1536 636 1536Q640 1536 644 1536Q806 1536 926 1424Q1027 1307 1027 1191Q1027 1188
1027 1186Q1027 1131 989 1090Q952 1050 897 1050T805 1088Q767 1127 767 1179Q767 1181 767 1182Q767 1238 805 1276Q841 1312 891 1314Q882 1358 792 1408Q766 1423 672 1433Q663 1434 651 1433Q528 1423 471 1374Q464 1368 442 1348Q428 1335 428 1281V850H629H637Q763
857 826 926L647 632Q653 657 653 683Q653 748 582 748Q580 748 577 748H573H428V148L430 139Q484 28 618 0H40Z" />
<glyph unicode="g" glyph-name="g" horiz-adv-x="1198" d="M110 551Q110 699 169 826Q229 955 331 1027Q437 1102 576 1102Q684 1102 852 1043Q1100 956 1158 929Q1135 927 1042 907Q1002 898 981 882Q968 872 968 847V0Q955 -222 800 -332Q656 -434 508 -434Q496
-434 484 -433Q326 -421 245 -336Q204 -293 204 -241Q204 -184 240 -148Q278 -110 333 -110Q387 -110 426 -153T465 -250Q465 -294 431 -330Q452 -342 488 -342T574 -330Q670 -307 714 -246Q770 -165 770 -20Q770 -11 770 0V45Q671 -25 554 -25Q432 -25 331 50Q231
124 170 256Q110 386 110 551ZM328 535Q328 314 392 205Q458 97 588 97Q688 97 741 176Q768 216 770 248V257V847Q770 898 756 914L746 929Q668 1006 569 1006Q562 1006 556 1006Q441 1002 378 867Q328 760 328 535Z" />
<glyph unicode="h" glyph-name="h" horiz-adv-x="1288" d="M40 0Q164 24 228 140L230 148V1314Q230 1339 217 1349Q196 1365 156 1374Q68 1394 40 1396Q74 1411 346 1510Q388 1525 428 1536V1025L431 1027Q531 1102 654 1102Q775 1102 877 1027Q978 953 1038 821T1098
538V532V197Q1098 172 1111 162Q1131 146 1172 137Q1263 117 1288 115Q1232 90 982 1Q940 -14 900 -25V534V538Q900 766 813 876Q731 980 616 980Q614 980 612 980Q485 980 428 888V148L430 139Q484 28 618 0H40Z" />
<glyph unicode="i" glyph-name="i" horiz-adv-x="658" d="M40 962Q112 994 346 1076Q383 1089 428 1102V148L430 139Q484 28 618 0H40Q164 24 228 140L230 148V880Q230 905 217 915Q196 932 150 941Q52 962 40 962ZM199 1349T199 1404T237 1497T329 1536T421 1498T459
1404T421 1311T329 1272T237 1310Z" />
<glyph unicode="j" glyph-name="j" horiz-adv-x="659" d="M199 1349T199 1404T237 1497T329 1536T421 1498T459 1404T421 1311T329 1272T237 1310ZM40 962Q112 994 346 1076Q383 1089 428 1102V27V19Q428 -316 47 -432L40 -433Q230 -230 230 19V27V880Q230 905
217 915Q197 932 153 940Q48 961 40 962Z" />
<glyph unicode="k" glyph-name="k" horiz-adv-x="1273" d="M40 0Q164 24 228 140L230 148V1314Q230 1339 217 1349Q196 1366 152 1374Q48 1395 40 1396Q49 1400 346 1510Q373 1520 428 1536V464L835 959L843 970Q847 977 847 987Q847 1026 674 1077H1145Q1074
1056 962 938L955 929L606 510H758L1103 132L1106 128L1110 124Q1226 27 1313 0H638Q847 51 847 109Q847 124 833 139L824 148L549 442L428 297V148L430 139Q484 28 618 0H40Z" />
<glyph unicode="l" glyph-name="l" horiz-adv-x="658" d="M40 1396Q91 1418 346 1510Q384 1524 428 1536V148L430 139Q484 28 618 0H40Q164 24 228 140L230 148V1314Q230 1339 217 1349Q198 1365 154 1374Q49 1395 40 1396Z" />
<glyph unicode="m" glyph-name="m" horiz-adv-x="1957" d="M40 0Q164 24 228 140L230 148V880Q230 905 217 915Q195 932 156 940Q49 961 40 962Q91 984 346 1076Q385 1090 428 1102V1025L431 1027Q544 1102 654 1102Q775 1102 877 1027Q937 983 982 919Q1075 1019
1130 1056Q1201 1102 1318 1102Q1320 1102 1323 1102Q1451 1102 1546 1027Q1651 944 1707 821Q1767 688 1767 538V532V197Q1767 172 1780 162Q1802 145 1841 137Q1948 116 1957 115Q1924 100 1651 1Q1612 -13 1569 -25V534V538Q1569 770 1482 876Q1397 980 1258
980Q1154 980 1097 888V148L1100 139Q1154 28 1288 0H710Q834 24 898 140L900 148V532V534V538Q900 766 813 876Q731 980 616 980Q614 980 612 980Q485 980 428 888V148L430 139Q484 28 618 0H40Z" />
<glyph unicode="n" glyph-name="n" horiz-adv-x="1288" d="M40 0Q164 24 228 140L230 148V880Q230 905 217 915Q197 931 156 940Q65 960 40 962Q74 977 346 1076Q388 1091 428 1102V1025L431 1027Q531 1102 654 1102Q775 1102 877 1027Q978 953 1038 821T1098
538V532V197Q1098 172 1111 162Q1131 146 1172 137Q1263 117 1288 115Q1232 90 982 1Q940 -14 900 -25V534V538Q900 766 813 876Q731 980 616 980Q614 980 612 980Q485 980 428 888V148L430 139Q484 28 618 0H40Z" />
<glyph unicode="o" glyph-name="o" horiz-adv-x="1108" d="M328 542Q328 319 378 210Q442 71 563 71Q671 71 734 228Q786 358 788 534V538Q788 746 708 874Q642 980 553 980Q552 980 550 980Q455 980 392 872Q328 763 328 542ZM110 526Q110 691 170 821Q231 953
331 1027Q432 1102 554 1102Q675 1102 777 1027Q878 953 938 821T998 538Q998 386 938 256T777 50Q677 -25 554 -25Q437 -25 331 50Q229 122 169 251Q110 378 110 526Z" />
<glyph unicode="p" glyph-name="p" horiz-adv-x="1198" d="M870 535Q870 760 820 867Q755 1006 627 1006Q530 1006 452 929L442 914Q428 898 428 847V257V248Q430 216 457 176Q510 97 615 97Q617 97 618 97Q740 97 806 205Q870 314 870 535ZM40 -433Q164 -409
228 -293L230 -285V847Q230 871 217 882Q199 898 156 907Q66 927 40 929Q105 958 346 1043Q514 1102 636 1102Q640 1102 644 1102Q761 1102 867 1027Q969 955 1029 826Q1088 699 1088 551Q1088 386 1028 256Q967 124 867 50Q766 -25 644 -25Q527 -25 428 45V-285L430
-294Q484 -405 618 -433H40Z" />
<glyph unicode="q" glyph-name="q" horiz-adv-x="1198" d="M328 535Q328 314 392 205Q458 97 588 97Q688 97 741 176Q768 216 770 248V257V847Q770 898 756 914L746 929Q668 1006 574 1006Q565 1006 556 1006Q441 1002 378 867Q328 760 328 535ZM110 551Q110 699
169 826Q228 954 331 1027Q437 1102 569 1102Q684 1102 852 1043Q1093 958 1158 929Q1136 928 1042 907Q1002 898 981 882Q968 872 968 847V-285L970 -293Q1034 -409 1158 -433H580Q714 -405 768 -294L770 -285V45Q671 -25 554 -25Q432 -25 331 50Q231 124 170
256Q110 386 110 551Z" />
<glyph unicode="r" glyph-name="r" horiz-adv-x="1026" d="M40 0Q164 24 228 140L230 148V847Q230 871 217 882Q199 898 156 907Q66 927 40 929Q109 960 346 1043Q514 1102 636 1102Q640 1102 644 1102Q806 1102 926 990Q1026 874 1026 757Q1026 754 1026 752Q1026
697 988 656Q951 616 896 616T804 654Q766 693 766 745Q766 747 766 748Q766 805 804 842Q841 878 890 880Q883 921 792 974Q747 1000 675 1000Q663 1000 651 999Q542 990 471 940Q466 937 442 914Q428 901 428 847V148L430 139Q484 28 618 0H40Z" />
<glyph unicode="s" glyph-name="s" horiz-adv-x="1006" d="M90 262Q90 317 128 355T220 394T312 356T350 262Q350 211 312 168Q304 159 294 151L306 141Q396 73 515 73Q516 73 518 73Q613 73 675 123Q729 167 733 276V295Q728 402 632 434L360 514Q207 559 168
731Q164 761 164 790Q164 889 243 986Q338 1102 508 1102Q667 1102 779 996Q816 961 836 924Q851 896 851 860Q851 806 813 767T721 728T629 767T591 861T629 954L648 967Q587 1001 509 1001H506Q439 996 385 951Q341 905 341 820Q341 813 341 806Q341 722 426
686L663 624Q767 586 818 542Q914 459 916 293Q906 170 806 66Q717 -25 513 -25Q334 -25 199 91Q129 152 107 195Q101 207 98 215Q90 236 90 262Z" />
<glyph unicode="t" glyph-name="t" horiz-adv-x="920" d="M-50 848L129 1142Q123 1117 123 1091Q123 1026 194 1026Q196 1026 199 1026H203H360V1314Q360 1337 347 1349Q332 1363 282 1373Q226 1384 170 1396Q261 1436 476 1510Q514 1523 558 1536V1026H773H781Q907
1033 970 1102L791 808Q797 833 797 859Q797 924 726 924Q724 924 721 924H717H558V148L560 139Q614 28 748 0H170Q294 24 358 140L360 148V924H147H139Q13 917 -50 848Z" />
<glyph unicode="u" glyph-name="u" horiz-adv-x="1288" d="M1248 1077Q1124 1053 1060 937L1058 929V197Q1058 172 1071 162Q1091 146 1132 137Q1223 117 1248 115Q1192 90 942 1Q900 -14 860 -25V52L857 50Q757 -25 634 -25Q513 -25 411 50Q310 124 250 256T190
539V545V880Q190 905 177 915Q156 931 116 940Q28 960 0 962Q56 987 306 1076Q348 1091 388 1102V543V539Q388 311 475 201Q557 97 672 97Q674 97 676 97Q803 97 860 189V929L858 938Q804 1049 670 1077H1248Z" />
<glyph unicode="v" glyph-name="v" horiz-adv-x="1140" d="M-40 1077H538Q347 992 347 946Q347 942 349 938L352 929L620 330L880 929L883 939Q885 944 885 950Q880 1010 694 1077H1180Q1057 1053 993 937L990 929L575 -40L150 929L149 932L146 941Q82 1053 -40 1077Z" />
<glyph unicode="w" glyph-name="w" horiz-adv-x="1812" d="M917 753L575 -40L150 929L149 932L146 941Q82 1053 -40 1077H538Q347 992 347 946Q347 942 349 938L352 929L622 340L964 1117L1300 336L1556 928L1559 938Q1561 943 1561 949Q1561 1007 1370 1076L1852
1077Q1729 1053 1665 937L1662 929L1247 -40L917 753Z" />
<glyph unicode="x" glyph-name="x" horiz-adv-x="1220" d="M0 0Q94 46 187 140L195 149L515 504L195 929L186 941Q107 1053 0 1077H578Q421 1027 421 972Q421 957 432 942L438 933L648 652L896 928L902 935Q915 950 915 966Q915 985 894 1006Q857 1040 749 1077H1220Q1120
1035 1033 937L1027 930L706 575L1028 145L1034 138Q1117 40 1220 0H642Q804 43 804 102Q804 120 788 140L781 150L572 428L321 150L312 140Q297 123 297 106Q297 49 471 0H0Z" />
<glyph unicode="y" glyph-name="y" horiz-adv-x="1140" d="M-40 1077H538Q347 992 347 946Q347 942 349 938L352 929L602 254L871 929L874 939Q876 946 876 950Q871 1010 685 1077H1180Q1057 1053 993 937L990 929L522 -240L510 -270Q442 -422 300 -433Q294 -433
287 -433Q281 -433 275 -433Q157 -433 61 -336Q20 -288 20 -241Q20 -184 56 -148Q94 -110 149 -110Q203 -110 242 -152T281 -248Q281 -294 247 -330Q275 -342 299 -342Q338 -341 366 -312L390 -280Q453 -126 492 -18L150 929L149 932L146 941Q82 1053 -40 1077Z"
/>
<glyph unicode="z" glyph-name="z" horiz-adv-x="997" d="M0 0L650 975H332L318 974Q247 967 41 755L227 1077H929L301 102H706L720 103Q791 110 997 322L811 0H0Z" />
<glyph unicode="{" glyph-name="braceleft" horiz-adv-x="776" d="M50 753Q73 765 120 787Q250 848 250 941V947L251 1373Q251 1542 372 1664Q494 1787 655 1787H663Q696 1784 726 1778V1695Q697 1703 663 1703Q576 1703 515 1647Q445 1584 445 1388L446 947V938Q446
822 286 760L267 753L286 749Q443 711 445 568Q445 562 445 556L444 126Q444 -70 514 -133Q576 -189 662 -189Q696 -189 726 -181V-266Q692 -272 657 -272Q514 -272 377 -150Q250 -37 250 136V141L251 238L250 556V563Q250 655 120 719Q68 745 50 753Z" />
<glyph unicode="|" glyph-name="bar" horiz-adv-x="555" d="M200 -297V1815H355L354 -297H200Z" />
<glyph unicode="}" glyph-name="braceright" horiz-adv-x="776" d="M726 753Q708 745 656 719Q526 655 526 563V556L525 238L526 141V136Q526 -37 399 -150Q262 -272 119 -272Q84 -272 50 -266V-181Q80 -189 114 -189Q200 -189 262 -133Q332 -70 332 126L331 556Q331
562 331 568Q333 711 490 749Q490 749 509 753L490 760Q330 822 330 938V947L331 1388Q331 1584 261 1647Q200 1703 113 1703Q79 1703 50 1695V1778Q80 1784 113 1787H121Q282 1787 404 1664Q525 1542 525 1373L526 947V941Q526 848 656 787Q703 765 726 753Z"
/>
<glyph unicode="~" glyph-name="asciitilde" horiz-adv-x="1430" d="M200 614Q296 898 499 898Q523 898 547 894Q610 883 757 813L897 744Q939 719 995 719Q1094 719 1230 844Q1143 550 936 538Q918 537 898 540Q834 550 686 624L548 690Q502 713 447 714H445Q342
714 200 614Z" />
<glyph unicode="&#xa0;" glyph-name="uni00A0" horiz-adv-x="600" />
<glyph unicode="&#xa1;" glyph-name="exclamdown" horiz-adv-x="660" d="M200 1349T200 1404T238 1497T330 1536T422 1498T460 1404T422 1311T330 1272T238 1310ZM280 1199H378L458 129Q460 107 460 107Q460 52 422 14T330 -25T238 13T200 107Q200 118 202 129L280 1199Z" />
<glyph unicode="&#xa2;" glyph-name="cent" horiz-adv-x="1128" d="M130 387T130 539T190 822T351 1028Q413 1073 484 1091V1344H639V1097Q722 1082 797 1028Q901 953 947 848L961 816L962 814Q980 765 980 722Q980 667 942 626Q905 586 850 586T758 624Q720 663
720 718T758 811Q781 834 809 844Q792 871 762 906Q714 962 639 979L638 90Q742 102 819 196Q854 238 882 313L998 280Q995 266 991 257Q938 132 830 51Q746 -12 638 -23V-298H484V-13Q411 5 351 50Q251 123 190 256Q130 387 130 539ZM484 136V956Q436 929 402
877Q332 770 332 542V538Q332 310 422 198Q452 160 484 136Z" />
<glyph unicode="&#xa3;" glyph-name="sterling" horiz-adv-x="1311" d="M130 0Q254 24 318 140L320 148L321 598H155V795H321V1164V1174Q325 1329 433 1432Q542 1536 707 1536Q710 1536 713 1536Q872 1536 984 1430Q1021 1395 1041 1358Q1056 1330 1056 1294Q1056
1240 1018 1201T926 1162T834 1201T796 1295T834 1388L839 1393Q788 1437 733 1437H731Q652 1437 600 1401Q524 1348 520 1224Q519 1195 519 1164V795H988V598H519L518 102H1020L1034 103Q1105 110 1311 322L1125 0H130Z" />
<glyph unicode="&#xa4;" glyph-name="currency" horiz-adv-x="1555" d="M499 756Q499 533 568 459Q662 348 772 348Q886 348 976 459Q1057 559 1057 752V755Q1056 925 979 1035Q899 1149 764 1149Q669 1149 585 1060Q499 969 499 756ZM1355 299L1216 160L1063
313Q937 226 776 226Q617 226 493 313L339 160L200 299L353 452Q259 585 259 756Q259 913 338 1038L200 1176L339 1315L471 1183Q604 1286 778 1286Q950 1286 1084 1183L1216 1315L1355 1176L1217 1038Q1295 914 1296 754V749Q1296 584 1202 452L1355 299Z" />
<glyph unicode="&#xa5;" glyph-name="yen" horiz-adv-x="1420" d="M420 0Q544 24 608 140L610 148V294H283V491H610V642H283L284 839H428L170 1363L169 1366L166 1375Q102 1487 -20 1511H558Q364 1442 364 1387Q364 1379 368 1372L372 1363L628 839H893L1155 1363L1159
1372Q1163 1379 1163 1387Q1162 1442 969 1511H1440Q1317 1487 1253 1371L1250 1363L982 839H1117V642H808V491H1116V294H808V148L810 139Q864 28 998 0H420Z" />
<glyph unicode="&#xa6;" glyph-name="brokenbar" horiz-adv-x="555" d="M200 -297V661H354V-297H200ZM200 850V1815H355V850H200Z" />
<glyph unicode="&#xa7;" glyph-name="section" horiz-adv-x="1226" d="M200 784Q210 902 310 1011Q322 1024 337 1035Q296 1087 278 1165Q274 1195 274 1224Q274 1323 353 1420Q448 1536 618 1536Q777 1536 889 1430Q926 1395 946 1358Q961 1330 961 1294Q961
1240 923 1201T831 1162T739 1201T701 1294Q701 1352 739 1388L757 1405Q699 1438 621 1438H618Q544 1433 494 1382Q451 1336 451 1254Q451 1247 451 1240Q451 1156 536 1120L773 1058Q877 1020 928 976Q1024 893 1026 727Q1016 604 916 500Q903 488 887 478Q930
426 948 346Q952 316 952 287Q952 188 873 91Q778 -25 608 -25Q449 -25 337 81Q300 116 280 153Q265 181 265 216Q265 272 303 310T395 348T487 310T525 216Q525 162 487 123L469 107Q530 73 605 73H608Q676 78 730 125Q775 171 775 257Q775 264 775 272Q775 355
690 391L453 453Q349 491 298 535Q202 618 200 784ZM769 559Q774 562 779 566Q839 614 843 710V729Q838 836 742 868L470 948Q463 950 457 952Q452 949 447 945Q387 897 383 801V782Q388 675 484 643L756 563Q763 561 769 559Z" />
<glyph unicode="&#xa8;" glyph-name="dieresis" horiz-adv-x="997" d="M537 1349T537 1404T575 1497T667 1536T759 1498T797 1404T759 1311T667 1272T575 1310ZM200 1349T200 1404T238 1497T330 1536T422 1498T460 1404T422 1311T330 1272T238 1310Z" />
<glyph unicode="&#xa9;" glyph-name="copyright" horiz-adv-x="1401" d="M689 1163Q738 1163 791 1135Q823 1118 843 1101Q873 1106 886 1149Q891 1167 908 1164Q926 1161 926 1144V855Q926 837 908 835T886 850Q864 946 828 1004Q815 1025 789 1044Q752 1071
707 1071Q706 1071 704 1071Q648 1071 599 1033Q562 990 541 912Q519 830 519 755Q519 755 519 710Q520 668 534 611Q569 508 617 468Q653 438 713 438Q724 438 735 439Q766 442 809 468Q829 480 861 519Q881 544 891 578L897 598L987 563L979 544Q961 502 933
463Q890 406 837 377Q776 343 697 343Q697 343 695 343Q682 340 667 340Q613 342 556 375T459 461Q420 514 396 589Q373 662 373 747Q373 833 396 912Q420 994 459 1044Q507 1105 559 1132Q619 1163 689 1163ZM701 1331Q811 1331 911 1288Q1007 1247 1090 1161Q1170
1078 1211 975Q1251 874 1251 754Q1251 638 1211 535Q1173 437 1090 350Q1011 267 911 223Q813 180 701 180Q590 180 490 223Q394 264 311 350Q230 434 190 535T150 754Q150 873 190 975T311 1161Q392 1246 490 1288T701 1331ZM701 1251Q603 1251 520 1215T366
1105Q296 1032 260 944T224 759V754Q224 655 260 566Q294 483 366 406Q436 332 519 296Q604 259 701 259T883 296Q966 332 1037 406Q1106 478 1141 565T1176 754Q1176 857 1141 945Q1107 1031 1037 1105Q968 1178 883 1215Q798 1251 701 1251Z" />
<glyph unicode="&#xaa;" glyph-name="ordfeminine" horiz-adv-x="1233" d="M420 1108Q420 1033 444 970T517 854Q569 807 619 807H620Q680 807 712 823Q722 828 729 840Q733 847 733 863V1388Q733 1390 733 1391Q733 1391 733 1392Q740 1404 724 1422Q716 1432
691 1439Q671 1445 646 1445Q631 1445 624 1444Q562 1435 519 1400Q469 1359 438 1275Q420 1218 420 1108ZM950 1410Q919 1406 889 1400Q880 1399 874 1393Q872 1391 872 1389V1388V825Q900 776 951 767Q969 764 967 746T947 728H736Q683 715 627 715Q622 715 622
715Q526 730 489 749Q418 785 373 835T299 960T270 1120Q270 1204 299 1283Q327 1358 373 1412Q425 1473 491 1503Q562 1536 622 1536Q629 1536 636 1536Q718 1536 782 1514L1029 1420L950 1410ZM200 626H1033V429H200V626Z" />
<glyph unicode="&#xab;" glyph-name="guillemotleft" horiz-adv-x="1251" d="M897 1221L985 1133L751 776L1051 362L897 201L547 696L897 1221ZM500 1221L588 1133L354 776L654 362L500 201L150 696L500 1221Z" />
<glyph unicode="&#xac;" glyph-name="logicalnot" horiz-adv-x="1233" d="M200 601V798H1033V349H859V601H200Z" />
<glyph unicode="&#xad;" glyph-name="uni00AD" horiz-adv-x="1233" d="M200 798H1033V601H200V798Z" />
<glyph unicode="&#xae;" glyph-name="registered" horiz-adv-x="1401" d="M701 1251Q603 1251 520 1215T366 1105Q343 1081 323 1055L392 1084Q437 1104 546 1142Q633 1172 698 1172Q702 1172 702 1172Q715 1174 728 1174Q779 1173 834 1151Q891 1128 925 1096Q975
1049 996 999Q1004 981 1008 958Q1012 933 1013 919Q1014 903 1014 901Q1001 782 951 731Q919 698 881 675Q885 671 890 665Q918 631 983 485L993 463Q1009 433 1027 433H1028Q1051 434 1066 447L1085 463Q1119 511 1141 565Q1176 651 1176 754T1141 945Q1107 1031
1037 1105Q968 1178 883 1215Q798 1251 701 1251ZM701 1331Q811 1331 911 1288Q1007 1247 1090 1161Q1170 1078 1211 975Q1251 874 1251 754Q1251 638 1211 535Q1173 437 1090 350Q1011 267 911 223Q813 180 701 180Q590 180 490 223Q394 264 311 350Q230 434 190
535T150 754Q150 874 190 975T311 1161Q393 1246 490 1288T701 1331ZM614 1025V781Q635 744 680 731Q700 725 726 725Q737 725 745 726Q788 731 814 752Q866 794 866 891V896Q866 962 844 1000Q823 1039 787 1061Q754 1081 705 1081H703Q666 1081 634 1065Q624
1060 617 1047Q614 1041 614 1025ZM396 404Q448 416 475 462V1025L474 1028Q467 1033 453 1036Q415 1045 398 1046L322 1053Q284 1002 260 944Q224 857 224 759V754Q224 655 260 566Q294 483 366 406L380 392Q383 401 396 404ZM409 365Q461 321 519 296Q605 259
701 259Q796 259 883 296Q909 307 933 322Q912 335 895 358Q886 370 863 413L791 565Q762 622 731 635Q720 635 710 636Q650 642 614 661V461Q638 414 693 404Q709 401 708 383T689 365H409Z" />
<glyph unicode="&#xaf;" glyph-name="overscore" horiz-adv-x="1233" d="M200 1511L1033 1512V1315H200V1511Z" />
<glyph unicode="&#xb0;" glyph-name="degree" horiz-adv-x="1008" d="M353 1170Q353 1061 389 991Q428 915 507 915Q562 915 607 985Q651 1053 651 1191Q651 1319 604 1385Q559 1448 500 1448Q438 1448 394 1385Q353 1326 353 1170ZM200 1184Q200 1285 241 1364Q283
1445 351 1490Q421 1536 504 1536Q586 1536 657 1490Q725 1446 767 1364Q808 1284 808 1183Q808 1097 767 1019Q725 939 657 893T504 847Q427 847 351 893Q276 938 235 1016Q200 1082 200 1184Z" />
<glyph unicode="&#xb1;" glyph-name="plusminus" horiz-adv-x="1233" d="M200 362H1033V165H200V362ZM200 786V983H518V1301H715V983H1033V786H715V468H518V786H200Z" />
<glyph unicode="&#xb2;" glyph-name="uni00B2" horiz-adv-x="1021" d="M200 695L208 751Q228 888 446 1106L447 1107L482 1122Q601 1168 601 1289Q601 1293 601 1297V1307Q601 1368 574 1399Q536 1442 488 1442H487Q417 1442 374 1404Q348 1381 337 1351Q353 1344
368 1330Q393 1306 393 1269Q393 1233 368 1208T311 1183Q309 1183 308 1183Q275 1183 248 1210Q223 1235 223 1271Q224 1378 302 1458Q378 1536 479 1536H486Q489 1536 492 1536T498 1536Q592 1536 671 1471Q751 1405 752 1294L751 1273Q744 1158 655 1100Q601
1065 526 1034Q443 1007 358 904Q360 904 361 904H362Q420 904 507 879L615 855Q633 851 652 851Q711 852 756 897L821 962L817 944Q766 713 659 713Q641 713 629 715Q563 726 478 741L376 764Q354 769 334 769Q282 769 242 733L200 695Z" />
<glyph unicode="&#xb3;" glyph-name="uni00B3" horiz-adv-x="939" d="M200 1015T224 1041T284 1067T345 1042T370 982T345 921Q331 906 313 900Q325 870 351 847Q395 808 464 808Q521 808 560 853Q588 884 588 954V964Q588 967 588 970Q588 1021 575 1049Q556
1088 526 1108Q501 1124 429 1155L392 1171L427 1191Q429 1192 454 1206T492 1227Q518 1243 530 1256Q552 1280 552 1338Q552 1345 552 1353Q550 1390 530 1424L527 1428Q497 1455 470 1456Q467 1456 464 1456Q422 1456 402 1446Q382 1436 372 1420Q389 1413 403
1400Q428 1375 428 1339T403 1278T343 1253T283 1279T258 1341Q258 1407 330 1487Q383 1536 467 1536H469Q555 1535 608 1501Q686 1450 693 1362Q694 1354 694 1346Q694 1280 652 1232Q651 1232 631 1211H630L629 1210Q605 1191 575 1176L590 1172Q633 1157 674
1120Q733 1066 738 968L739 946V945Q729 834 653 775T466 715T278 793Q200 871 200 979Q200 1015 224 1041Z" />
<glyph unicode="&#xb4;" glyph-name="acute" horiz-adv-x="800" d="M200 1169L388 1479Q391 1484 402 1496Q428 1525 466 1533Q481 1536 495 1536Q539 1536 571 1504Q600 1475 600 1431Q600 1423 599 1413Q595 1368 564 1345L547 1331L220 1148L200 1169Z" />
<glyph unicode="&#xb5;" glyph-name="uni00B5" horiz-adv-x="1287" d="M20 -433Q210 -230 210 19V27V880Q210 905 197 915Q176 931 136 940Q48 960 20 962Q76 987 326 1076Q368 1091 408 1102V543V539Q408 311 495 201Q577 97 692 97Q694 97 696 97Q823 97 880
189V929L878 938Q824 1049 690 1077H1268Q1144 1053 1080 937L1078 929V197Q1078 172 1091 162Q1111 146 1152 137Q1243 117 1268 115Q1212 90 962 1Q920 -14 880 -25V52L877 50Q777 -25 654 -25T431 50Q419 59 408 68V27V19Q408 -316 27 -432L20 -433Z" />
<glyph unicode="&#xb6;" glyph-name="paragraph" horiz-adv-x="1248" d="M150 984Q150 1132 209 1259Q269 1389 371 1460Q478 1535 610 1535Q725 1535 892 1476Q1138 1389 1198 1362Q1176 1361 1082 1340Q1042 1331 1021 1315Q1008 1305 1008 1280V148L1010 140Q1074
24 1198 0H938V1282H879V0H620Q754 28 808 139L810 148V478Q711 408 594 408Q472 408 371 483Q271 557 210 689Q150 819 150 984ZM368 968Q368 747 432 638Q498 530 628 530Q728 530 781 609Q808 649 810 681V690V1280Q810 1331 796 1347L786 1362Q708 1438 614
1439Q605 1439 596 1439Q483 1437 418 1300Q368 1193 368 968Z" />
<glyph unicode="&#xb7;" glyph-name="middot" horiz-adv-x="660" d="M200 639T200 694T238 787T330 826T422 788T460 694T422 601T330 562T238 600Z" />
<glyph unicode="&#xb8;" glyph-name="cedilla" horiz-adv-x="697" d="M266 84Q278 86 297 88Q331 90 356 79Q453 36 489 -129Q497 -166 497 -219Q497 -252 486 -290Q480 -312 471 -333Q445 -395 394 -418Q360 -433 329 -433Q312 -433 296 -429Q243 -416 217 -368Q200
-337 200 -304Q200 -286 205 -268Q221 -212 269 -183Q296 -167 329 -167Q353 -167 380 -176L381 -150Q381 -139 381 -137Q381 -99 368 -51Q342 43 273 81L266 84Z" />
<glyph unicode="&#xb9;" glyph-name="uni00B9" horiz-adv-x="762" d="M235 707T234 725T250 746Q301 756 329 803V1273Q329 1282 326 1289T316 1303T293 1316T252 1323L200 1326L467 1536V803Q490 758 546 746Q564 743 562 725T542 707H254Q235 707 234 725Z" />
<glyph unicode="&#xba;" glyph-name="ordmasculine" horiz-adv-x="1233" d="M200 626H1033V429H200V626ZM628 808Q652 808 701 852Q736 896 754 962Q773 1031 773 1111Q773 1111 773 1127Q766 1239 754 1277Q731 1365 691 1407Q656 1444 617 1444H616Q576 1444
543 1415Q505 1385 481 1291Q458 1201 458 1138Q459 1127 459 1119Q460 1101 460 1083Q460 1045 475 984Q498 891 536 851Q577 808 628 808ZM606 716Q552 716 498 748Q442 781 401 835Q360 887 339 956Q316 1029 316 1120Q316 1201 339 1284Q361 1364 401 1417Q443
1473 498 1504Q554 1536 616 1536Q677 1536 735 1503Q789 1472 831 1417Q872 1363 895 1284T918 1120Q918 1031 895 961Q870 886 832 835Q790 780 735 748T606 716Z" />
<glyph unicode="&#xbb;" glyph-name="guillemotright" horiz-adv-x="1251" d="M354 201L266 289L500 646L200 1060L354 1221L704 726L354 201ZM751 201L663 289L897 646L597 1060L751 1221L1101 726L751 201Z" />
<glyph unicode="&#xbc;" glyph-name="onequarter" horiz-adv-x="1536" d="M884 271H1098V530L884 271ZM1098 180H698L1236 844V271H1337L1287 180H1236V96Q1259 51 1316 40Q1333 36 1332 18T1312 0H1023Q1005 0 1003 18T1019 40Q1071 50 1098 96V180ZM235 707T234
725T250 746Q301 756 329 803V1273Q329 1282 326 1289T316 1303T293 1316T252 1323L200 1326L467 1536V803Q490 758 546 746Q564 743 562 725T542 707H254Q235 707 234 725ZM212 -227L1120 1815L1257 1751L346 -297L212 -227Z" />
<glyph unicode="&#xbd;" glyph-name="onehalf" horiz-adv-x="1691" d="M870 -21Q869 -9 869 3Q869 5 869 7Q869 9 869 11Q869 67 900 146Q941 250 999 308Q1050 358 1117 391L1152 406Q1271 452 1271 573Q1271 573 1271 581V591Q1271 652 1244 683Q1207 726 1158
726H1157Q1087 726 1044 688Q1018 665 1007 635Q1022 628 1038 614Q1063 591 1063 553Q1063 552 1063 550Q1064 518 1038 492Q1013 467 981 467Q981 467 978 467Q945 467 918 494Q893 519 893 555Q894 663 972 742Q1049 820 1149 820H1156Q1159 820 1162 820T1168
820Q1262 820 1341 755Q1421 689 1422 578L1421 557Q1414 442 1325 384Q1273 350 1196 318Q1113 291 1028 188Q1030 188 1031 188H1032Q1090 188 1177 163L1285 139Q1303 135 1322 135Q1380 135 1426 181L1491 246L1487 228Q1436 -3 1329 -3Q1311 -3 1299 -1Q1208
14 1148 25L1046 48Q1024 53 1004 53Q952 53 912 17L870 -21ZM236 707T234 725T250 746Q299 754 329 803V1273Q329 1282 326 1289Q322 1298 316 1304Q309 1311 293 1316T252 1323L200 1326L467 1536V803Q491 755 546 746Q564 743 562 725T542 707H254Q236 707 234
725ZM212 -227L1120 1815L1257 1751L346 -297L212 -227Z" />
<glyph unicode="&#xbe;" glyph-name="threequarters" horiz-adv-x="1729" d="M1077 271H1291V530L1077 271ZM1291 180H891L1430 844V271H1530L1480 180H1430V96Q1452 51 1509 40Q1526 36 1525 18T1504 0H1216Q1198 0 1196 18T1212 40Q1264 50 1291 96V180ZM200
1015T224 1041T284 1067T345 1042T370 982T345 921Q331 906 313 900Q325 870 351 847Q395 808 464 808Q521 808 560 853Q588 884 588 954V964Q588 967 588 970Q588 1021 575 1049Q556 1088 526 1108Q501 1124 429 1155L392 1171L427 1191Q429 1192 454 1206T492
1227Q518 1243 530 1256Q552 1280 552 1338Q552 1345 552 1353Q550 1390 530 1424L527 1428Q497 1455 470 1456Q467 1456 464 1456Q422 1456 402 1446Q382 1436 372 1420Q389 1413 403 1400Q428 1375 428 1339T403 1278T343 1253T283 1279T258 1341Q258 1407 330
1487Q383 1536 467 1536H469Q555 1535 608 1501Q686 1450 693 1362Q694 1354 694 1346Q694 1280 652 1232Q651 1232 631 1211H630L629 1210Q605 1191 575 1176L590 1172Q633 1157 674 1120Q733 1066 738 968L739 946V945Q729 834 653 775T466 715T278 793Q200 871
200 979Q200 1015 224 1041ZM391 -227L1299 1815L1436 1751L525 -297L391 -227Z" />
<glyph unicode="&#xbf;" glyph-name="questiondown" horiz-adv-x="1257" d="M799 1459T799 1404T761 1311T669 1272T577 1310T539 1404T577 1497T669 1536T761 1498ZM727 1123V1082Q721 941 605 841L575 819Q362 663 345 469V439Q345 301 385 239Q473 101 644
91Q791 92 884 187Q955 259 983 337Q938 341 905 374Q867 413 867 468T905 561T997 600T1089 562T1127 468Q1127 266 982 119Q837 -25 633 -25T280 102T130 434L131 475Q146 664 303 769L521 915Q634 989 634 1108V1123H727Z" />
<glyph unicode="&#xc0;" glyph-name="Agrave" horiz-adv-x="1320" d="M611 1583L591 1562L264 1745L247 1759Q216 1782 212 1827Q211 1837 211 1845Q211 1889 240 1918Q272 1950 316 1950Q330 1950 345 1947Q383 1939 409 1910Q420 1898 423 1893L611 1583ZM-70
0Q53 24 117 140L120 148L655 1551L1200 148L1201 145L1204 136Q1268 24 1390 0H812Q1003 56 1003 124Q1003 131 1001 139L998 148L845 540H384L237 148L234 138Q232 132 232 125Q232 64 423 0H-70ZM422 642H806L612 1170L422 642Z" />
<glyph unicode="&#xc1;" glyph-name="Aacute" horiz-adv-x="1320" d="M673 1583L861 1893Q864 1898 875 1910Q901 1939 939 1947Q954 1950 968 1950Q1012 1950 1044 1918Q1073 1889 1073 1845Q1073 1837 1072 1827Q1068 1782 1037 1759L1020 1745L693 1562L673
1583ZM-70 0Q53 24 117 140L120 148L655 1551L1200 148L1201 145L1204 136Q1268 24 1390 0H812Q1003 56 1003 124Q1003 131 1001 139L998 148L845 540H384L237 148L234 138Q232 132 232 125Q232 64 423 0H-70ZM422 642H806L612 1170L422 642Z" />
<glyph unicode="&#xc2;" glyph-name="Acircumflex" horiz-adv-x="1320" d="M367 1583L555 1893Q557 1896 569 1910Q587 1933 619 1943Q641 1950 657 1950H660H662Q676 1950 700 1943Q727 1935 750 1910Q761 1898 764 1893L952 1583L932 1562L662 1742L387 1562L367
1583ZM-70 0Q53 24 117 140L120 148L655 1551L1200 148L1201 145L1204 136Q1268 24 1390 0H812Q1003 56 1003 124Q1003 131 1001 139L998 148L845 540H384L237 148L234 138Q232 132 232 125Q232 64 423 0H-70ZM422 642H806L612 1170L422 642Z" />
<glyph unicode="&#xc3;" glyph-name="Atilde" horiz-adv-x="1320" d="M391 1700Q450 1950 576 1950Q589 1950 606 1946Q644 1937 736 1875L823 1814Q849 1792 881 1792Q883 1792 884 1792Q945 1792 1029 1902Q975 1645 847 1633Q835 1632 823 1635Q783 1645 692
1709L606 1767Q578 1787 544 1788H543Q479 1788 391 1700ZM-70 0Q53 24 117 140L120 148L655 1551L1200 148L1201 145L1204 136Q1268 24 1390 0H812Q1003 56 1003 124Q1003 131 1001 139L998 148L845 540H384L237 148L234 138Q232 132 232 125Q232 64 423 0H-70ZM422
642H806L612 1170L422 642Z" />
<glyph unicode="&#xc4;" glyph-name="Adieresis" horiz-adv-x="1320" d="M688 1749T688 1804T726 1897T818 1936T910 1898T948 1804T910 1711T818 1672T726 1710ZM351 1749T351 1804T389 1897T481 1936T573 1898T611 1804T573 1711T481 1672T389 1710ZM-70 0Q53
24 117 140L120 148L655 1551L1200 148L1201 145L1204 136Q1268 24 1390 0H812Q1003 56 1003 124Q1003 131 1001 139L998 148L845 540H384L237 148L234 138Q232 132 232 125Q232 64 423 0H-70ZM422 642H806L612 1170L422 642Z" />
<glyph unicode="&#xc5;" glyph-name="Aring" horiz-adv-x="1320" d="M594 1752Q594 1699 610 1669T655 1639Q674 1639 692 1667Q712 1699 712 1762Q712 1821 692 1850Q674 1876 652 1876Q629 1876 612 1851T594 1752ZM487 1765Q487 1810 510 1856Q531 1899 569
1924Q607 1950 654 1950Q702 1950 739 1925Q775 1901 798 1856Q820 1813 821 1758Q820 1712 798 1669Q775 1624 739 1600Q702 1575 654 1575Q611 1575 569 1600Q523 1628 506 1668Q487 1713 487 1748Q487 1749 487 1751Q487 1751 487 1765ZM-70 0Q53 24 117 140L120
148L655 1551L1200 148L1201 145L1204 136Q1268 24 1390 0H812Q1003 56 1003 124Q1003 131 1001 139L998 148L845 540H384L237 148L234 138Q232 132 232 125Q232 64 423 0H-70ZM422 642H806L612 1170L422 642Z" />
<glyph unicode="&#xc6;" glyph-name="AE" horiz-adv-x="1944" d="M-70 0Q53 24 117 140L120 148L812 1511H1628L1814 1189Q1608 1401 1537 1408L1523 1409H1070V642H1383L1397 643Q1468 650 1674 862L1385 361Q1394 394 1394 422Q1394 496 1334 537L1327 540H1070V102H1653L1667
103Q1738 110 1944 322L1758 0H682Q806 24 870 140L872 148V540H456L248 148L245 138Q243 132 243 125Q243 64 434 0H-70ZM872 1364L494 642H872V1363V1364Z" />
<glyph unicode="&#xc7;" glyph-name="Ccedilla" horiz-adv-x="1366" d="M130 580T130 744T174 1060Q219 1215 294 1314Q372 1417 474 1476Q577 1536 682 1536H692Q808 1536 907 1484Q975 1448 1015 1411L1023 1410Q1123 1418 1155 1537V959Q1103 1163 1033 1279Q999
1332 946 1371Q864 1431 752 1431Q623 1431 514 1345Q435 1254 388 1084Q342 917 342 759V746Q342 590 374 462Q448 242 552 156Q637 86 771 86Q794 86 818 88Q892 94 984 152Q1035 183 1098 262Q1138 312 1164 394L1266 354Q1227 265 1178 200Q1100 96 998 39Q909
-11 799 -22Q821 -67 835 -129Q843 -164 843 -219Q843 -252 832 -290Q826 -311 817 -333Q791 -395 740 -418Q706 -433 675 -433Q658 -433 642 -429Q589 -416 563 -368Q546 -337 546 -304Q546 -286 551 -268Q567 -212 615 -183Q642 -167 675 -167Q699 -167 726 -176L727
-150V-137Q727 -96 714 -51Q710 -37 705 -24Q571 -19 476 35Q371 95 294 197Q219 297 174 440Q130 580 130 744Z" />
<glyph unicode="&#xc8;" glyph-name="Egrave" horiz-adv-x="1322" d="M713 1583L693 1562L366 1745L349 1759Q318 1782 314 1827Q313 1837 313 1845Q313 1889 342 1918Q374 1950 418 1950Q432 1950 447 1947Q485 1939 511 1910Q522 1898 525 1893L713 1583ZM60
0Q184 24 248 140L250 148V1363L248 1371Q184 1487 60 1511H1006L1192 1189Q986 1401 915 1408L901 1409H448V642H761L775 643Q846 650 1052 862L763 361Q772 394 772 422Q772 496 712 537L705 540H448V102H1031L1045 103Q1116 110 1322 322L1136 0H60Z" />
<glyph unicode="&#xc9;" glyph-name="Eacute" horiz-adv-x="1322" d="M673 1583L861 1893Q864 1898 875 1910Q901 1939 939 1947Q954 1950 968 1950Q1012 1950 1044 1918Q1073 1889 1073 1845Q1073 1837 1072 1827Q1068 1782 1037 1759L1020 1745L693 1562L673
1583ZM60 0Q184 24 248 140L250 148V1363L248 1371Q184 1487 60 1511H1006L1192 1189Q986 1401 915 1408L901 1409H448V642H761L775 643Q846 650 1052 862L763 361Q772 394 772 422Q772 496 712 537L705 540H448V102H1031L1045 103Q1116 110 1322 322L1136 0H60Z"
/>
<glyph unicode="&#xca;" glyph-name="Ecircumflex" horiz-adv-x="1322" d="M407 1583L595 1893Q597 1896 609 1910Q627 1933 659 1943Q681 1950 697 1950H700H702Q716 1950 740 1943Q767 1935 790 1910Q801 1898 804 1893L992 1583L972 1562L702 1742L427 1562L407
1583ZM60 0Q184 24 248 140L250 148V1363L248 1371Q184 1487 60 1511H1006L1192 1189Q986 1401 915 1408L901 1409H448V642H761L775 643Q846 650 1052 862L763 361Q772 394 772 422Q772 496 712 537L705 540H448V102H1031L1045 103Q1116 110 1322 322L1136 0H60Z"
/>
<glyph unicode="&#xcb;" glyph-name="Edieresis" horiz-adv-x="1322" d="M649 1749T649 1804T687 1897T779 1936T871 1898T909 1804T871 1711T779 1672T687 1710ZM312 1749T312 1804T350 1897T442 1936T534 1898T572 1804T534 1711T442 1672T350 1710ZM60 0Q184
24 248 140L250 148V1363L248 1371Q184 1487 60 1511H1006L1192 1189Q986 1401 915 1408L901 1409H448V642H761L775 643Q846 650 1052 862L763 361Q772 394 772 422Q772 496 712 537L705 540H448V102H1031L1045 103Q1116 110 1322 322L1136 0H60Z" />
<glyph unicode="&#xcc;" glyph-name="Igrave" horiz-adv-x="698" d="M369 1583L349 1562L22 1745L5 1759Q-26 1782 -30 1827Q-31 1837 -31 1845Q-31 1889 -2 1918Q30 1950 74 1950Q88 1950 103 1947Q141 1939 167 1910Q178 1898 181 1893L369 1583ZM60 0Q184 24
248 140L250 148V1363L248 1371Q184 1487 60 1511H638Q504 1483 450 1372L448 1363V148L450 139Q504 28 638 0H60Z" />
<glyph unicode="&#xcd;" glyph-name="Iacute" horiz-adv-x="698" d="M329 1583L517 1893Q520 1898 531 1910Q557 1939 595 1947Q610 1950 624 1950Q668 1950 700 1918Q729 1889 729 1845Q729 1837 728 1827Q724 1782 693 1759L676 1745L349 1562L329 1583ZM60
0Q184 24 248 140L250 148V1363L248 1371Q184 1487 60 1511H638Q504 1483 450 1372L448 1363V148L450 139Q504 28 638 0H60Z" />
<glyph unicode="&#xce;" glyph-name="Icircumflex" horiz-adv-x="698" d="M60 0Q184 24 248 140L250 148V1363L248 1371Q184 1487 60 1511H638Q504 1483 450 1372L448 1363V148L450 139Q504 28 638 0H60ZM56 1583L244 1893Q248 1899 258 1910Q281 1935 308 1943Q331
1950 346 1950H350H352Q366 1950 390 1943Q419 1934 440 1910Q451 1897 454 1893L642 1583L622 1562L352 1742L76 1562L56 1583Z" />
<glyph unicode="&#xcf;" glyph-name="Idieresis" horiz-adv-x="698" d="M60 0Q184 24 248 140L250 148V1363L248 1371Q184 1487 60 1511H638Q504 1483 450 1372L448 1363V148L450 139Q504 28 638 0H60ZM388 1804Q388 1860 426 1898T518 1936Q573 1936 610 1898Q648
1859 648 1804Q648 1748 610 1710T518 1672T426 1710T388 1804ZM50 1804Q50 1860 88 1898T180 1936Q235 1936 272 1898Q310 1859 310 1804Q310 1748 272 1710T180 1672T88 1710T50 1804Z" />
<glyph unicode="&#xd0;" glyph-name="Eth" horiz-adv-x="1504" d="M60 148Q76 149 176 170Q217 179 237 195Q250 205 250 230V700H203H195Q69 693 6 624L185 918Q179 893 179 867Q179 802 250 802V1281Q250 1304 234 1319Q213 1339 184 1344Q80 1361 60 1363L404
1494Q525 1536 682 1536H710Q825 1536 956 1473Q1079 1413 1179 1302Q1264 1208 1319 1058T1374 744Q1374 581 1318 438Q1263 297 1179 201Q1093 103 959 38Q828 -25 688 -25Q533 -25 380 32Q134 124 60 148ZM549 1419Q500 1401 476 1373Q450 1343 448 1281V802H631H639Q765
809 828 878L649 584Q655 609 655 635Q655 700 584 700H579H575H448V230Q448 186 462 163Q481 132 510 115Q584 78 709 78H716Q832 78 948 184Q1052 296 1104 430Q1154 559 1154 730V756Q1154 946 1115 1067Q1050 1243 942 1334Q846 1415 711 1431Q685 1434 656
1434Q601 1433 549 1419Z" />
<glyph unicode="&#xd1;" glyph-name="Ntilde" horiz-adv-x="1550" d="M473 1700Q532 1950 658 1950Q671 1950 688 1946Q726 1937 818 1875L905 1814Q931 1792 963 1792Q965 1792 966 1792Q1027 1792 1111 1902Q1057 1645 929 1633Q917 1632 905 1635Q865 1645
774 1709L688 1767Q660 1787 626 1788H625Q561 1788 473 1700ZM60 0Q184 24 248 140L250 148V1363L248 1371Q184 1487 60 1511H391L1188 440V1363L1186 1371Q1122 1487 998 1511H1490Q1356 1483 1302 1372L1300 1363V-40L362 1203V148L364 139Q418 28 552 0H60Z"
/>
<glyph unicode="&#xd2;" glyph-name="Ograve" horiz-adv-x="1384" d="M713 1583L693 1562L366 1745L349 1759Q318 1782 314 1827Q313 1837 313 1845Q313 1889 342 1918Q374 1950 418 1950Q432 1950 447 1947Q485 1939 511 1910Q522 1898 525 1893L713 1583ZM338
727Q338 570 370 462Q419 268 502 178Q593 80 692 80Q694 80 695 80Q697 80 698 80Q781 80 890 180Q966 274 1005 417Q1044 559 1044 727Q1044 741 1044 758Q1044 945 1005 1069Q956 1253 870 1346Q791 1431 693 1431H691Q594 1431 520 1364Q431 1292 382 1096Q338
918 338 727ZM130 580T130 744T174 1060T294 1314Q370 1415 474 1475T692 1536T910 1476T1090 1314Q1166 1212 1210 1060T1254 744T1210 440T1090 197Q1014 96 910 36T692 -25T474 35T294 197Q218 299 174 439Z" />
<glyph unicode="&#xd3;" glyph-name="Oacute" horiz-adv-x="1384" d="M673 1583L861 1893Q864 1898 875 1910Q901 1939 939 1947Q954 1950 968 1950Q1012 1950 1044 1918Q1073 1889 1073 1845Q1073 1837 1072 1827Q1068 1782 1037 1759L1020 1745L693 1562L673
1583ZM338 727Q338 570 370 462Q419 268 502 178Q593 80 692 80Q694 80 695 80Q697 80 698 80Q781 80 890 180Q966 274 1005 417Q1044 559 1044 727Q1044 741 1044 758Q1044 945 1005 1069Q956 1253 870 1346Q791 1431 693 1431H691Q594 1431 520 1364Q431 1292
382 1096Q338 918 338 727ZM130 580T130 744T174 1060T294 1314Q370 1415 474 1475T692 1536T910 1476T1090 1314Q1166 1212 1210 1060T1254 744T1210 440T1090 197Q1014 96 910 36T692 -25T474 35T294 197Q218 299 174 439Z" />
<glyph unicode="&#xd4;" glyph-name="Ocircumflex" horiz-adv-x="1384" d="M130 580T130 744T174 1060Q218 1213 294 1314Q369 1414 474 1476Q578 1536 692 1536T910 1476T1090 1314Q1166 1212 1210 1060T1254 744T1210 440T1090 197Q1014 96 910 36T692 -25T474
36Q370 96 294 197Q219 297 174 440Q130 580 130 744ZM338 727Q338 570 370 462Q419 268 502 178Q593 80 692 80H695H698Q781 80 890 180Q966 274 1005 417Q1044 559 1044 727V758Q1044 945 1005 1069Q956 1253 870 1346Q791 1431 693 1431H691Q594 1431 520 1364Q431
1292 382 1096Q338 918 338 727ZM407 1583L595 1893Q597 1896 609 1910Q627 1933 659 1943Q681 1950 697 1950H700H702Q716 1950 740 1943Q767 1935 790 1910Q801 1898 804 1893L992 1583L972 1562L702 1742L427 1562L407 1583Z" />
<glyph unicode="&#xd5;" glyph-name="Otilde" horiz-adv-x="1384" d="M391 1700Q450 1950 576 1950Q589 1950 606 1946Q644 1937 736 1875L823 1814Q849 1792 881 1792Q883 1792 884 1792Q945 1792 1029 1902Q975 1645 847 1633Q835 1632 823 1635Q783 1645 692
1709L606 1767Q578 1787 544 1788H543Q479 1788 391 1700ZM338 727Q338 570 370 462Q419 268 502 178Q593 80 692 80Q694 80 695 80Q697 80 698 80Q781 80 890 180Q966 274 1005 417Q1044 559 1044 727Q1044 741 1044 758Q1044 945 1005 1069Q956 1253 870 1346Q791
1431 693 1431H691Q594 1431 520 1364Q431 1292 382 1096Q338 918 338 727ZM130 580T130 744T174 1060T294 1314Q370 1415 474 1475T692 1536T910 1476T1090 1314Q1166 1212 1210 1060T1254 744T1210 440T1090 197Q1014 96 910 36T692 -25T474 35T294 197Q218 299
174 439Z" />
<glyph unicode="&#xd6;" glyph-name="Odieresis" horiz-adv-x="1384" d="M733 1749T733 1804T771 1897T863 1936T955 1898T993 1804T955 1711T863 1672T771 1710ZM396 1749T396 1804T434 1897T526 1936T618 1898T656 1804T618 1711T526 1672T434 1710ZM338 727Q338
570 370 462Q419 268 502 178Q593 80 692 80Q694 80 695 80Q697 80 698 80Q781 80 890 180Q966 274 1005 417Q1044 559 1044 727Q1044 741 1044 758Q1044 945 1005 1069Q956 1253 870 1346Q791 1431 693 1431H691Q594 1431 520 1364Q431 1292 382 1096Q338 918
338 727ZM130 580T130 744T174 1060T294 1314Q370 1415 474 1475T692 1536T910 1476T1090 1314Q1166 1212 1210 1060T1254 744T1210 440T1090 197Q1014 96 910 36T692 -25T474 35T294 197Q218 299 174 439Z" />
<glyph unicode="&#xd7;" glyph-name="multiply" horiz-adv-x="1128" d="M339 335L200 475L425 700L200 924L339 1064L564 839L789 1064L928 924L703 700L928 475L789 335L564 560L339 335Z" />
<glyph unicode="&#xd8;" glyph-name="Oslash" horiz-adv-x="1384" d="M130 580T130 744T174 1060T294 1314Q370 1415 474 1475T692 1536T910 1476L919 1470L991 1632L1128 1568L1041 1372Q1067 1345 1090 1314Q1166 1212 1210 1060T1254 744T1210 440T1090 197Q1014
96 910 36T692 -25T474 36Q462 42 451 50L376 -118L242 -48L331 152Q312 173 294 197Q218 299 174 439ZM338 727Q338 570 370 462Q388 390 411 332L866 1351Q788 1431 693 1431H691Q594 1431 520 1364Q431 1292 382 1096Q338 918 338 727ZM962 1196L506 174Q595
80 692 80H695H698Q781 80 890 180Q966 274 1005 417Q1044 559 1044 727V758Q1044 945 1005 1069Q986 1139 962 1196Z" />
<glyph unicode="&#xd9;" glyph-name="Ugrave" horiz-adv-x="1547" d="M713 1583L693 1562L366 1745L349 1759Q318 1782 314 1827Q313 1837 313 1845Q313 1889 342 1918Q374 1950 418 1950Q432 1950 447 1947Q485 1939 511 1910Q522 1898 525 1893L713 1583ZM60
1511H638Q504 1483 450 1372L448 1363V498Q453 349 554 244Q662 132 816 132T1078 244Q1179 349 1185 498V1363L1183 1371Q1119 1487 995 1511H1487Q1353 1483 1299 1372L1297 1363V498V495Q1297 389 1256 293T1145 127Q1075 57 978 16T774 -25T570 16T403 127Q334
197 292 293T250 495V498V1363L248 1371Q184 1487 60 1511Z" />
<glyph unicode="&#xda;" glyph-name="Uacute" horiz-adv-x="1547" d="M673 1583L861 1893Q864 1898 875 1910Q901 1939 939 1947Q954 1950 968 1950Q1012 1950 1044 1918Q1073 1889 1073 1845Q1073 1837 1072 1827Q1068 1782 1037 1759L1020 1745L693 1562L673
1583ZM60 1511H638Q504 1483 450 1372L448 1363V498Q453 349 554 244Q662 132 816 132T1078 244Q1179 349 1185 498V1363L1183 1371Q1119 1487 995 1511H1487Q1353 1483 1299 1372L1297 1363V498V495Q1297 389 1256 293T1145 127Q1075 57 978 16T774 -25T570 16T403
127Q334 197 292 293T250 495V498V1363L248 1371Q184 1487 60 1511Z" />
<glyph unicode="&#xdb;" glyph-name="Ucircumflex" horiz-adv-x="1547" d="M548 1583L736 1893Q738 1896 750 1910Q768 1933 800 1943Q822 1950 838 1950H841H843Q857 1950 881 1943Q908 1935 931 1910Q942 1898 945 1893L1133 1583L1113 1562L843 1742L568 1562L548
1583ZM60 1511H638Q504 1483 450 1372L448 1363V498Q453 349 554 244Q662 132 816 132T1078 244Q1179 349 1185 498V1363L1183 1371Q1119 1487 995 1511H1487Q1353 1483 1299 1372L1297 1363V498V495Q1297 389 1256 293T1145 127Q1075 57 978 16T774 -25T570 16T403
127Q334 197 292 293T250 495V498V1363L248 1371Q184 1487 60 1511Z" />
<glyph unicode="&#xdc;" glyph-name="Udieresis" horiz-adv-x="1547" d="M884 1749T884 1804T922 1897T1014 1936T1106 1898T1144 1804T1106 1711T1014 1672T922 1710ZM547 1749T547 1804T585 1897T677 1936T769 1898T807 1804T769 1711T677 1672T585 1710ZM60
1511H638Q504 1483 450 1372L448 1363V498Q453 349 554 244Q662 132 816 132T1078 244Q1179 349 1185 498V1363L1183 1371Q1119 1487 995 1511H1487Q1353 1483 1299 1372L1297 1363V498V495Q1297 389 1256 293T1145 127Q1075 57 978 16T774 -25T570 16T403 127Q334
197 292 293T250 495V498V1363L248 1371Q184 1487 60 1511Z" />
<glyph unicode="&#xdd;" glyph-name="Yacute" horiz-adv-x="1320" d="M673 1583L861 1893Q864 1898 875 1910Q901 1939 939 1947Q954 1950 968 1950Q1012 1950 1044 1918Q1073 1889 1073 1845Q1073 1837 1072 1827Q1068 1782 1037 1759L1020 1745L693 1562L673
1583ZM370 0Q494 24 558 140L560 148V642H475L120 1363L119 1366L116 1375Q52 1487 -70 1511H508Q314 1442 314 1387Q314 1379 318 1372L322 1363L674 642H722L1083 1363L1087 1372Q1091 1379 1091 1387Q1090 1442 897 1511H1390Q1267 1487 1203 1371L1200 1363L831
642H758V148L760 139Q814 28 948 0H370Z" />
<glyph unicode="&#xde;" glyph-name="Thorn" horiz-adv-x="1378" d="M60 0Q184 24 248 140L250 148V1363L248 1371Q184 1487 60 1511H638Q504 1483 450 1372L448 1363V1206Q565 1239 656 1239H664Q809 1239 914 1198Q1016 1158 1084 1096Q1177 1011 1216 916Q1242
862 1248 736Q1243 539 1134 424Q1036 321 914 276Q830 245 725 245Q705 245 684 246Q539 253 448 330V148L450 139Q504 28 638 0H60ZM663 1136Q585 1136 510 1099Q480 1081 462 1051Q448 1027 448 984V486Q498 393 610 358Q658 344 703 344H714Q718 344 754 346Q849
356 914 408Q1032 503 1032 736Q1032 856 984 952Q942 1036 856 1090Q782 1136 663 1136Z" />
<glyph unicode="&#xdf;" glyph-name="germandbls" horiz-adv-x="1271" d="M60 0Q194 28 248 139L250 148V1076V1084Q250 1294 391 1449Q485 1536 638 1536H641Q802 1535 897 1473Q1038 1381 1049 1225Q1050 1211 1050 1197V1194Q1050 1082 977 995L937 955Q857
891 739 855Q748 849 870 809Q947 784 1023 715Q1130 616 1140 438L1141 397Q1122 191 982 83Q845 -23 650 -26V82Q770 88 853 183Q919 259 919 412V431Q919 556 889 619Q847 707 777 753Q723 788 577 851L709 925Q777 972 793 989Q848 1049 848 1180Q848 1196
847 1211Q841 1301 796 1375L785 1388Q731 1453 656 1454Q656 1454 653 1454Q571 1454 522 1400Q489 1363 468 1278Q455 1225 449 1126Q448 1105 448 1087V1084V1076V148L450 140Q514 24 638 0H60Z" />
<glyph unicode="&#xe0;" glyph-name="agrave" horiz-adv-x="1198" d="M578 1169L558 1148L231 1331L214 1345Q183 1368 179 1413Q178 1423 178 1431Q178 1475 207 1504Q239 1536 283 1536Q297 1536 312 1533Q350 1525 376 1496Q387 1484 390 1479L578 1169ZM327
542Q327 317 377 210Q442 71 555 71Q570 71 585 71Q668 71 745 148L755 163Q770 179 770 230V847Q770 898 756 914L746 929Q669 1006 586 1006Q571 1006 556 1006Q443 1006 378 867Q327 758 327 542ZM110 551Q110 699 169 826Q228 954 331 1027Q437 1102 569 1102Q684
1102 852 1043Q1093 958 1158 929Q1136 928 1042 907Q1002 898 981 882Q968 872 968 847V230Q968 204 980 195Q1001 179 1041 170Q1135 149 1157 148Q1092 119 851 34Q683 -25 568 -25Q436 -25 330 50Q227 123 168 251Q110 376 110 551Z" />
<glyph unicode="&#xe1;" glyph-name="aacute" horiz-adv-x="1198" d="M538 1169L726 1479Q729 1484 740 1496Q766 1525 804 1533Q819 1536 833 1536Q877 1536 909 1504Q938 1475 938 1431Q938 1423 937 1413Q933 1368 902 1345L885 1331L558 1148L538 1169ZM327
542Q327 317 377 210Q442 71 555 71Q570 71 585 71Q668 71 745 148L755 163Q770 179 770 230V847Q770 898 756 914L746 929Q669 1006 586 1006Q571 1006 556 1006Q443 1006 378 867Q327 758 327 542ZM110 551Q110 699 169 826Q228 954 331 1027Q437 1102 569 1102Q684
1102 852 1043Q1093 958 1158 929Q1136 928 1042 907Q1002 898 981 882Q968 872 968 847V230Q968 204 980 195Q1001 179 1041 170Q1135 149 1157 148Q1092 119 851 34Q683 -25 568 -25Q436 -25 330 50Q227 123 168 251Q110 376 110 551Z" />
<glyph unicode="&#xe2;" glyph-name="acircumflex" horiz-adv-x="1198" d="M263 1169L451 1479Q453 1482 465 1496Q483 1519 515 1529Q537 1536 553 1536H556H558Q572 1536 596 1529Q623 1521 646 1496Q657 1484 660 1479L848 1169L828 1148L558 1328L283 1148L263
1169ZM327 542Q327 317 377 210Q442 71 555 71Q570 71 585 71Q668 71 745 148L755 163Q770 179 770 230V847Q770 898 756 914L746 929Q669 1006 586 1006Q571 1006 556 1006Q443 1006 378 867Q327 758 327 542ZM110 551Q110 699 169 826Q228 954 331 1027Q437 1102
569 1102Q684 1102 852 1043Q1093 958 1158 929Q1136 928 1042 907Q1002 898 981 882Q968 872 968 847V230Q968 204 980 195Q1001 179 1041 170Q1135 149 1157 148Q1092 119 851 34Q683 -25 568 -25Q436 -25 330 50Q227 123 168 251Q110 376 110 551Z" />
<glyph unicode="&#xe3;" glyph-name="atilde" horiz-adv-x="1198" d="M287 1286Q346 1536 472 1536Q485 1536 502 1532Q540 1523 632 1461L719 1400Q745 1378 777 1378Q779 1378 780 1378Q841 1378 925 1488Q871 1231 743 1219Q731 1218 719 1221Q679 1231 588
1295L502 1353Q474 1373 440 1374H439Q375 1374 287 1286ZM327 542Q327 317 377 210Q442 71 555 71Q570 71 585 71Q668 71 745 148L755 163Q770 179 770 230V847Q770 898 756 914L746 929Q669 1006 586 1006Q571 1006 556 1006Q443 1006 378 867Q327 758 327 542ZM110
551Q110 699 169 826Q228 954 331 1027Q437 1102 569 1102Q684 1102 852 1043Q1093 958 1158 929Q1136 928 1042 907Q1002 898 981 882Q968 872 968 847V230Q968 204 980 195Q1001 179 1041 170Q1135 149 1157 148Q1092 119 851 34Q683 -25 568 -25Q436 -25 330
50Q227 123 168 251Q110 376 110 551Z" />
<glyph unicode="&#xe4;" glyph-name="adieresis" horiz-adv-x="1198" d="M620 1349T620 1404T658 1497T750 1536T842 1498T880 1404T842 1311T750 1272T658 1310ZM283 1349T283 1404T321 1497T413 1536T505 1498T543 1404T505 1311T413 1272T321 1310ZM327 542Q327
317 377 210Q442 71 555 71Q570 71 585 71Q668 71 745 148L755 163Q770 179 770 230V847Q770 898 756 914L746 929Q669 1006 586 1006Q571 1006 556 1006Q443 1006 378 867Q327 758 327 542ZM110 551Q110 699 169 826Q228 954 331 1027Q437 1102 569 1102Q684 1102
852 1043Q1093 958 1158 929Q1136 928 1042 907Q1002 898 981 882Q968 872 968 847V230Q968 204 980 195Q1001 179 1041 170Q1135 149 1157 148Q1092 119 851 34Q683 -25 568 -25Q436 -25 330 50Q227 123 168 251Q110 376 110 551Z" />
<glyph unicode="&#xe5;" glyph-name="aring" horiz-adv-x="1198" d="M510 1338Q510 1285 526 1255T571 1225Q590 1225 608 1253Q628 1285 628 1348Q628 1407 608 1436Q590 1462 568 1462Q545 1462 528 1437T510 1338ZM403 1351Q403 1396 426 1442Q447 1485 485
1510Q523 1536 570 1536Q618 1536 655 1511Q691 1487 714 1442Q736 1399 737 1344Q736 1298 714 1255Q691 1210 655 1186Q618 1161 570 1161Q527 1161 485 1186Q439 1214 422 1254Q403 1299 403 1334Q403 1335 403 1337Q403 1337 403 1351ZM327 542Q327 317 377
210Q442 71 555 71Q570 71 585 71Q668 71 745 148L755 163Q770 179 770 230V847Q770 898 756 914L746 929Q669 1006 586 1006Q571 1006 556 1006Q443 1006 378 867Q327 758 327 542ZM110 551Q110 699 169 826Q228 954 331 1027Q437 1102 569 1102Q684 1102 852
1043Q1093 958 1158 929Q1136 928 1042 907Q1002 898 981 882Q968 872 968 847V230Q968 204 980 195Q1001 179 1041 170Q1135 149 1157 148Q1092 119 851 34Q683 -25 568 -25Q436 -25 330 50Q227 123 168 251Q110 376 110 551Z" />
<glyph unicode="&#xe6;" glyph-name="ae" horiz-adv-x="1753" d="M110 551Q110 699 169 826Q228 954 331 1027Q437 1102 569 1102Q734 1102 852 1043Q912 1013 957 993Q975 1011 996 1026Q1097 1101 1219 1101Q1335 1101 1438 1033Q1513 992 1572 894Q1614 824
1619 742Q1618 565 1460 452Q1326 356 1143 356Q1141 356 1000 364Q1025 261 1067 197Q1138 89 1253 89H1255Q1378 89 1464 195Q1499 238 1527 313L1643 279Q1639 263 1636 257Q1552 103 1475 51Q1350 -25 1237 -25H1234Q1154 -25 1087 0H770V45Q671 -25 554 -25Q432
-25 331 50Q231 124 170 256Q110 386 110 551ZM328 535Q328 314 392 205Q458 97 580 97H583H586Q688 97 741 176Q768 216 770 248V257V847Q770 898 756 914L746 929Q669 1006 586 1006H556Q441 1002 378 867Q328 760 328 535ZM1431 743Q1431 856 1371 921Q1319
978 1227 986H1225Q1115 986 1049 879Q999 797 987 675Q980 604 980 521Q980 493 984 456Q1075 454 1166 454Q1213 454 1233 459Q1334 484 1373 543Q1431 640 1431 743Z" />
<glyph unicode="&#xe7;" glyph-name="ccedilla" horiz-adv-x="1088" d="M110 539Q110 691 170 822T331 1028Q430 1101 554 1102H557Q674 1102 777 1028Q881 953 927 848L941 816L942 814Q960 765 960 722Q960 667 922 626Q885 586 830 586Q776 586 738 624T700
718T738 811Q761 834 789 844Q772 872 742 906Q681 975 584 984H582Q451 984 382 877Q312 768 312 542V538Q312 307 401 198T588 89H590Q712 89 799 196Q834 239 862 313L978 280Q975 266 971 257Q918 133 810 51Q732 -8 633 -21Q655 -66 669 -129Q677 -165 677
-219Q677 -252 666 -290Q660 -311 651 -333Q625 -395 574 -418Q540 -433 509 -433Q492 -433 476 -429Q423 -416 397 -368Q380 -337 380 -304Q380 -286 385 -268Q401 -212 449 -183Q476 -167 509 -167Q533 -167 560 -176L561 -150V-137Q561 -96 548 -51Q544 -37
539 -24Q420 -17 331 50Q231 124 170 256Q110 386 110 539Z" />
<glyph unicode="&#xe8;" glyph-name="egrave" horiz-adv-x="1088" d="M578 1169L558 1148L231 1331L214 1345Q183 1368 179 1413Q178 1423 178 1431Q178 1475 207 1504Q239 1536 283 1536Q297 1536 312 1533Q350 1525 376 1496Q387 1484 390 1479L578 1169ZM110
539Q110 689 170 821Q229 951 331 1027Q432 1102 554 1102Q670 1102 773 1034Q848 993 907 895Q949 825 954 743Q953 566 795 453Q661 357 478 357Q476 357 335 365Q360 262 402 198Q473 90 588 90H590Q713 90 799 196Q834 239 862 314L978 280Q974 264 971 258Q887
104 810 52Q685 -24 572 -24H569Q432 -24 331 50T170 256T110 539ZM766 744Q766 857 706 922Q654 979 562 987H560Q450 987 384 880Q334 798 322 676Q315 605 315 522Q315 494 319 457Q410 455 501 455Q548 455 568 460Q669 485 708 544Q766 641 766 744Z" />
<glyph unicode="&#xe9;" glyph-name="eacute" horiz-adv-x="1088" d="M538 1169L726 1479Q729 1484 740 1496Q766 1525 804 1533Q819 1536 833 1536Q877 1536 909 1504Q938 1475 938 1431Q938 1423 937 1413Q933 1368 902 1345L885 1331L558 1148L538 1169ZM110
539Q110 689 170 821Q229 951 331 1027Q432 1102 554 1102Q670 1102 773 1034Q848 993 907 895Q949 825 954 743Q953 566 795 453Q661 357 478 357Q476 357 335 365Q360 262 402 198Q473 90 588 90H590Q713 90 799 196Q834 239 862 314L978 280Q974 264 971 258Q887
104 810 52Q685 -24 572 -24H569Q432 -24 331 50T170 256T110 539ZM766 744Q766 857 706 922Q654 979 562 987H560Q450 987 384 880Q334 798 322 676Q315 605 315 522Q315 494 319 457Q410 455 501 455Q548 455 568 460Q669 485 708 544Q766 641 766 744Z" />
<glyph unicode="&#xea;" glyph-name="ecircumflex" horiz-adv-x="1088" d="M263 1169L451 1479Q453 1482 465 1496Q483 1519 515 1529Q537 1536 553 1536H556H558Q572 1536 596 1529Q623 1521 646 1496Q657 1484 660 1479L848 1169L828 1148L558 1328L283 1148L263
1169ZM110 539Q110 689 170 821Q229 951 331 1027Q432 1102 554 1102Q670 1102 773 1034Q848 993 907 895Q949 825 954 743Q953 566 795 453Q661 357 478 357Q476 357 335 365Q360 262 402 198Q473 90 588 90H590Q713 90 799 196Q834 239 862 314L978 280Q974 264
971 258Q887 104 810 52Q685 -24 572 -24H569Q432 -24 331 50T170 256T110 539ZM766 744Q766 857 706 922Q654 979 562 987H560Q450 987 384 880Q334 798 322 676Q315 605 315 522Q315 494 319 457Q410 455 501 455Q548 455 568 460Q669 485 708 544Q766 641 766
744Z" />
<glyph unicode="&#xeb;" glyph-name="edieresis" horiz-adv-x="1088" d="M593 1349T593 1404T631 1497T723 1536T815 1498T853 1404T815 1311T723 1272T631 1310ZM256 1349T256 1404T294 1497T386 1536T478 1498T516 1404T478 1311T386 1272T294 1310ZM110 539Q110
689 170 821Q229 951 331 1027Q432 1102 554 1102Q670 1102 773 1034Q848 993 907 895Q949 825 954 743Q953 566 795 453Q661 357 478 357Q476 357 335 365Q360 262 402 198Q473 90 588 90H590Q713 90 799 196Q834 239 862 314L978 280Q974 264 971 258Q887 104
810 52Q685 -24 572 -24H569Q432 -24 331 50T170 256T110 539ZM766 744Q766 857 706 922Q654 979 562 987H560Q450 987 384 880Q334 798 322 676Q315 605 315 522Q315 494 319 457Q410 455 501 455Q548 455 568 460Q669 485 708 544Q766 641 766 744Z" />
<glyph unicode="&#xec;" glyph-name="igrave" horiz-adv-x="658" d="M412 1169L392 1148L65 1331L48 1345Q17 1368 13 1413Q12 1423 12 1431Q12 1475 41 1504Q73 1536 117 1536Q131 1536 146 1533Q184 1525 210 1496Q221 1484 224 1479L412 1169ZM40 962Q112 994
346 1076Q383 1089 428 1102V148L430 139Q484 28 618 0H40Q164 24 228 140L230 148V880Q230 905 217 915Q196 932 150 941Q52 962 40 962Z" />
<glyph unicode="&#xed;" glyph-name="iacute" horiz-adv-x="658" d="M245 1169L433 1479Q436 1484 447 1496Q473 1525 511 1533Q526 1536 540 1536Q584 1536 616 1504Q645 1475 645 1431Q645 1423 644 1413Q640 1368 609 1345L592 1331L265 1148L245 1169ZM40
962Q112 994 346 1076Q383 1089 428 1102V148L430 139Q484 28 618 0H40Q164 24 228 140L230 148V880Q230 905 217 915Q196 932 150 941Q52 962 40 962Z" />
<glyph unicode="&#xee;" glyph-name="icircumflex" horiz-adv-x="658" d="M39 1169L227 1479Q229 1482 241 1496Q259 1519 291 1529Q313 1536 329 1536H332H334Q348 1536 372 1529Q399 1521 422 1496Q433 1484 436 1479L624 1169L604 1148L334 1328L59 1148L39
1169ZM40 962Q112 994 346 1076Q383 1089 428 1102V148L430 139Q484 28 618 0H40Q164 24 228 140L230 148V880Q230 905 217 915Q196 932 150 941Q52 962 40 962Z" />
<glyph unicode="&#xef;" glyph-name="idieresis" horiz-adv-x="658" d="M40 962Q112 994 346 1076Q383 1089 428 1102V148L430 139Q484 28 618 0H40Q164 24 228 140L230 148V880Q230 905 217 915Q196 932 150 941Q52 962 40 962ZM368 1404Q368 1460 406 1498T498
1536Q553 1536 590 1498Q628 1459 628 1404Q628 1348 590 1310T498 1272T406 1310T368 1404ZM30 1404Q30 1460 68 1498T160 1536Q215 1536 252 1498Q290 1459 290 1404Q290 1348 252 1310T160 1272T68 1310T30 1404Z" />
<glyph unicode="&#xf0;" glyph-name="eth" horiz-adv-x="1108" d="M110 526Q110 691 170 821Q231 953 331 1027Q432 1102 554 1102Q654 1102 742 1050Q720 1139 690 1208H390L446 1310H633Q621 1326 604 1346Q531 1431 427 1431H425Q369 1429 310 1402Q232 1368
122 1248L225 1485Q321 1536 426 1536Q541 1536 644 1476Q742 1419 824 1314L827 1310H966H974Q1100 1317 1163 1386L984 1092Q990 1117 990 1143Q990 1208 919 1208H914H910H891Q924 1141 944 1060Q995 858 998 538Q998 386 938 256T777 50Q677 -25 554 -25Q437
-25 331 50Q229 122 169 251Q110 378 110 526ZM328 542Q328 319 378 210Q442 71 563 71Q671 71 734 228Q786 358 788 534V538Q788 746 708 874Q642 980 553 980H550Q455 980 392 872Q328 763 328 542Z" />
<glyph unicode="&#xf1;" glyph-name="ntilde" horiz-adv-x="1288" d="M338 1286Q397 1536 523 1536Q536 1536 553 1532Q591 1523 683 1461L770 1400Q796 1378 828 1378Q830 1378 831 1378Q892 1378 976 1488Q922 1231 794 1219Q782 1218 770 1221Q730 1231 639
1295L553 1353Q525 1373 491 1374H490Q426 1374 338 1286ZM40 0Q164 24 228 140L230 148V880Q230 905 217 915Q197 931 156 940Q65 960 40 962Q74 977 346 1076Q388 1091 428 1102V1025L431 1027Q531 1102 654 1102Q775 1102 877 1027Q978 953 1038 821T1098 538V532V197Q1098
172 1111 162Q1131 146 1172 137Q1263 117 1288 115Q1232 90 982 1Q940 -14 900 -25V534V538Q900 766 813 876Q731 980 616 980Q614 980 612 980Q485 980 428 888V148L430 139Q484 28 618 0H40Z" />
<glyph unicode="&#xf2;" glyph-name="ograve" horiz-adv-x="1108" d="M578 1169L558 1148L231 1331L214 1345Q183 1368 179 1413Q178 1423 178 1431Q178 1475 207 1504Q239 1536 283 1536Q297 1536 312 1533Q350 1525 376 1496Q387 1484 390 1479L578 1169ZM328
542Q328 319 378 210Q442 71 563 71Q671 71 734 228Q786 358 788 534V538Q788 746 708 874Q642 980 553 980Q552 980 550 980Q455 980 392 872Q328 763 328 542ZM110 526Q110 691 170 821Q231 953 331 1027Q432 1102 554 1102Q675 1102 777 1027Q878 953 938 821T998
538Q998 386 938 256T777 50Q677 -25 554 -25Q437 -25 331 50Q229 122 169 251Q110 378 110 526Z" />
<glyph unicode="&#xf3;" glyph-name="oacute" horiz-adv-x="1108" d="M538 1169L726 1479Q729 1484 740 1496Q766 1525 804 1533Q819 1536 833 1536Q877 1536 909 1504Q938 1475 938 1431Q938 1423 937 1413Q933 1368 902 1345L885 1331L558 1148L538 1169ZM328
542Q328 319 378 210Q442 71 563 71Q671 71 734 228Q786 358 788 534V538Q788 746 708 874Q642 980 553 980Q552 980 550 980Q455 980 392 872Q328 763 328 542ZM110 526Q110 691 170 821Q231 953 331 1027Q432 1102 554 1102Q675 1102 777 1027Q878 953 938 821T998
538Q998 386 938 256T777 50Q677 -25 554 -25Q437 -25 331 50Q229 122 169 251Q110 378 110 526Z" />
<glyph unicode="&#xf4;" glyph-name="ocircumflex" horiz-adv-x="1108" d="M263 1169L451 1479Q453 1482 465 1496Q483 1519 515 1529Q537 1536 553 1536H556H558Q572 1536 596 1529Q623 1521 646 1496Q657 1484 660 1479L848 1169L828 1148L558 1328L283 1148L263
1169ZM328 542Q328 319 378 210Q442 71 563 71Q671 71 734 228Q786 358 788 534V538Q788 746 708 874Q642 980 553 980Q552 980 550 980Q455 980 392 872Q328 763 328 542ZM110 526Q110 691 170 821Q231 953 331 1027Q432 1102 554 1102Q675 1102 777 1027Q878
953 938 821T998 538Q998 386 938 256T777 50Q677 -25 554 -25Q437 -25 331 50Q229 122 169 251Q110 378 110 526Z" />
<glyph unicode="&#xf5;" glyph-name="otilde" horiz-adv-x="1108" d="M253 1286Q312 1536 438 1536Q451 1536 468 1532Q506 1523 598 1461L685 1400Q711 1378 743 1378Q745 1378 746 1378Q807 1378 891 1488Q837 1231 709 1219Q697 1218 685 1221Q645 1231 554
1295L468 1353Q440 1373 406 1374H405Q341 1374 253 1286ZM328 542Q328 319 378 210Q442 71 563 71Q671 71 734 228Q786 358 788 534V538Q788 746 708 874Q642 980 553 980Q552 980 550 980Q455 980 392 872Q328 763 328 542ZM110 526Q110 691 170 821Q231 953
331 1027Q432 1102 554 1102Q675 1102 777 1027Q878 953 938 821T998 538Q998 386 938 256T777 50Q677 -25 554 -25Q437 -25 331 50Q229 122 169 251Q110 378 110 526Z" />
<glyph unicode="&#xf6;" glyph-name="odieresis" horiz-adv-x="1108" d="M597 1349T597 1404T635 1497T727 1536T819 1498T857 1404T819 1311T727 1272T635 1310ZM260 1349T260 1404T298 1497T390 1536T482 1498T520 1404T482 1311T390 1272T298 1310ZM328 542Q328
319 378 210Q442 71 563 71Q671 71 734 228Q786 358 788 534V538Q788 746 708 874Q642 980 553 980Q552 980 550 980Q455 980 392 872Q328 763 328 542ZM110 526Q110 691 170 821Q231 953 331 1027Q432 1102 554 1102Q675 1102 777 1027Q878 953 938 821T998 538Q998
386 938 256T777 50Q677 -25 554 -25Q437 -25 331 50Q229 122 169 251Q110 378 110 526Z" />
<glyph unicode="&#xf7;" glyph-name="divide" horiz-adv-x="1233" d="M200 798H1033V601H200V798ZM488 351T488 406T526 499T618 538T710 500T748 406T710 313T618 274T526 312ZM486 930T486 985T524 1078T616 1117T708 1079T746 985T708 892T616 853T524 891Z" />
<glyph unicode="&#xf8;" glyph-name="oslash" horiz-adv-x="1108" d="M110 526Q110 691 170 821Q231 953 331 1027Q432 1102 554 1102Q636 1102 710 1067L765 1190L902 1126L835 977Q896 913 938 821Q998 689 998 538Q998 386 938 256T777 50Q677 -25 554 -25Q474
-25 400 10L342 -118L208 -48L274 98Q211 161 169 251Q110 378 110 526ZM750 788L446 114Q496 71 563 71Q671 71 734 228Q786 358 788 534V538Q788 682 750 788ZM653 941Q607 980 553 980H550Q455 980 392 872Q328 763 328 542Q328 380 355 278L653 941Z" />
<glyph unicode="&#xf9;" glyph-name="ugrave" horiz-adv-x="1288" d="M578 1169L558 1148L231 1331L214 1345Q183 1368 179 1413Q178 1423 178 1431Q178 1475 207 1504Q239 1536 283 1536Q297 1536 312 1533Q350 1525 376 1496Q387 1484 390 1479L578 1169ZM1248
1077Q1124 1053 1060 937L1058 929V197Q1058 172 1071 162Q1091 146 1132 137Q1223 117 1248 115Q1192 90 942 1Q900 -14 860 -25V52L857 50Q757 -25 634 -25Q513 -25 411 50Q310 124 250 256T190 539V545V880Q190 905 177 915Q156 931 116 940Q28 960 0 962Q56
987 306 1076Q348 1091 388 1102V543V539Q388 311 475 201Q557 97 672 97Q674 97 676 97Q803 97 860 189V929L858 938Q804 1049 670 1077H1248Z" />
<glyph unicode="&#xfa;" glyph-name="uacute" horiz-adv-x="1288" d="M538 1169L726 1479Q729 1484 740 1496Q766 1525 804 1533Q819 1536 833 1536Q877 1536 909 1504Q938 1475 938 1431Q938 1423 937 1413Q933 1368 902 1345L885 1331L558 1148L538 1169ZM1248
1077Q1124 1053 1060 937L1058 929V197Q1058 172 1071 162Q1091 146 1132 137Q1223 117 1248 115Q1192 90 942 1Q900 -14 860 -25V52L857 50Q757 -25 634 -25Q513 -25 411 50Q310 124 250 256T190 539V545V880Q190 905 177 915Q156 931 116 940Q28 960 0 962Q56
987 306 1076Q348 1091 388 1102V543V539Q388 311 475 201Q557 97 672 97Q674 97 676 97Q803 97 860 189V929L858 938Q804 1049 670 1077H1248Z" />
<glyph unicode="&#xfb;" glyph-name="ucircumflex" horiz-adv-x="1288" d="M339 1169L527 1479Q529 1482 541 1496Q559 1519 591 1529Q613 1536 629 1536H632H634Q648 1536 672 1529Q699 1521 722 1496Q733 1484 736 1479L924 1169L904 1148L634 1328L359 1148L339
1169ZM1248 1077Q1124 1053 1060 937L1058 929V197Q1058 172 1071 162Q1091 146 1132 137Q1223 117 1248 115Q1192 90 942 1Q900 -14 860 -25V52L857 50Q757 -25 634 -25Q513 -25 411 50Q310 124 250 256T190 539V545V880Q190 905 177 915Q156 931 116 940Q28 960
0 962Q56 987 306 1076Q348 1091 388 1102V543V539Q388 311 475 201Q557 97 672 97Q674 97 676 97Q803 97 860 189V929L858 938Q804 1049 670 1077H1248Z" />
<glyph unicode="&#xfc;" glyph-name="udieresis" horiz-adv-x="1288" d="M662 1349T662 1404T700 1497T792 1536T884 1498T922 1404T884 1311T792 1272T700 1310ZM325 1349T325 1404T363 1497T455 1536T547 1498T585 1404T547 1311T455 1272T363 1310ZM1248 1077Q1124
1053 1060 937L1058 929V197Q1058 172 1071 162Q1091 146 1132 137Q1223 117 1248 115Q1192 90 942 1Q900 -14 860 -25V52L857 50Q757 -25 634 -25Q513 -25 411 50Q310 124 250 256T190 539V545V880Q190 905 177 915Q156 931 116 940Q28 960 0 962Q56 987 306 1076Q348
1091 388 1102V543V539Q388 311 475 201Q557 97 672 97Q674 97 676 97Q803 97 860 189V929L858 938Q804 1049 670 1077H1248Z" />
<glyph unicode="&#xfd;" glyph-name="yacute" horiz-adv-x="1140" d="M-40 1077H538Q347 992 347 946Q347 942 349 938L352 929L602 254L871 929L874 939Q876 946 876 950Q871 1010 685 1077H1180Q1057 1053 993 937L990 929L522 -240L510 -270Q442 -422 300 -433Q294
-433 287 -433Q281 -433 275 -433Q157 -433 61 -336Q20 -288 20 -241Q20 -184 56 -148Q94 -110 149 -110Q203 -110 242 -152T281 -248Q281 -294 247 -330Q275 -342 299 -342Q338 -341 366 -312L390 -280Q453 -126 492 -18L150 929L149 932L146 941Q82 1053 -40
1077ZM538 1169L726 1479Q729 1484 740 1496Q766 1525 804 1533Q819 1536 833 1536Q877 1536 909 1504Q938 1475 938 1431Q938 1423 937 1413Q933 1368 902 1345L885 1331L558 1148L538 1169Z" />
<glyph unicode="&#xfe;" glyph-name="thorn" horiz-adv-x="1198" d="M40 -433Q164 -409 228 -293L230 -285V1314Q230 1339 217 1349Q198 1365 154 1374Q49 1395 40 1396Q58 1404 346 1510Q384 1524 428 1536V1069Q545 1102 636 1102H644Q761 1102 867 1027Q969
955 1029 826Q1088 699 1088 551Q1088 386 1028 256Q967 124 867 50Q766 -25 644 -25Q527 -25 428 45V-285L430 -294Q484 -405 618 -433H40ZM870 535Q870 760 820 867Q755 1006 627 1006Q530 1006 452 929L442 914Q428 898 428 847V257V248Q430 216 457 176Q510
97 615 97H618Q740 97 806 205Q870 314 870 535Z" />
<glyph unicode="&#xff;" glyph-name="ydieresis" horiz-adv-x="1140" d="M-40 1077H538Q347 992 347 946Q347 942 349 938L352 929L602 254L871 929L874 939Q876 946 876 950Q871 1010 685 1077H1180Q1057 1053 993 937L990 929L522 -240L510 -270Q442 -422 300
-433Q294 -433 287 -433Q281 -433 275 -433Q157 -433 61 -336Q20 -288 20 -241Q20 -184 56 -148Q94 -110 149 -110Q203 -110 242 -152T281 -248Q281 -294 247 -330Q275 -342 299 -342Q338 -341 366 -312L390 -280Q453 -126 492 -18L150 929L149 932L146 941Q82
1053 -40 1077ZM652 1349T652 1404T690 1497T782 1536T874 1498T912 1404T874 1311T782 1272T690 1310ZM315 1349T315 1404T353 1497T445 1536T537 1498T575 1404T537 1311T445 1272T353 1310Z" />
<glyph unicode="&#x2013;" glyph-name="endash" horiz-adv-x="1233" d="M200 798H1033V601H200V798Z" />
<glyph unicode="&#x2014;" glyph-name="emdash" horiz-adv-x="1073" d="M0 797H1073V600H0V797Z" />
<glyph unicode="&#x2018;" glyph-name="quoteleft" horiz-adv-x="712" d="M512 1536Q512 1536 502 1526Q429 1458 402 1394Q383 1348 380 1307V1286Q413 1278 439 1252Q477 1214 477 1158Q477 1103 439 1065T347 1026Q299 1026 255 1062Q212 1097 203 1164Q200
1187 200 1209Q200 1289 239 1366Q312 1509 421 1532Q450 1538 478 1538Q494 1538 512 1536Z" />
<glyph unicode="&#x2019;" glyph-name="quoteright" horiz-adv-x="712" d="M200 1028Q200 1028 210 1038Q283 1106 310 1170Q329 1216 332 1257V1278Q299 1286 273 1312Q235 1350 235 1406Q235 1461 273 1499T365 1538Q413 1538 457 1502Q500 1467 509 1400Q512
1377 512 1355Q512 1275 473 1198Q400 1055 291 1032Q262 1026 234 1026Q218 1026 200 1028Z" />
<glyph unicode="&#x201a;" glyph-name="quotesinglbase" horiz-adv-x="712" d="M200 -275Q200 -275 210 -265Q283 -197 310 -133Q329 -87 332 -46V-25Q299 -17 273 9Q235 47 235 103Q235 158 273 196T365 235Q413 235 457 199Q500 164 509 97Q512 74 512 52Q512
-28 473 -105Q400 -248 291 -271Q262 -277 234 -277Q218 -277 200 -275Z" />
<glyph unicode="&#x201c;" glyph-name="quotedblleft" horiz-adv-x="1069" d="M869 1536Q869 1536 859 1526Q786 1458 759 1394Q740 1348 737 1307V1286Q770 1278 796 1252Q834 1214 834 1158Q834 1103 796 1065T704 1026Q656 1026 612 1062Q569 1097 560 1164Q557
1187 557 1209Q557 1289 596 1366Q669 1509 778 1532Q807 1538 835 1538Q851 1538 869 1536ZM512 1536L502 1526Q429 1458 402 1394Q383 1348 380 1307V1286Q413 1278 439 1252Q477 1214 477 1158Q477 1103 439 1065T347 1026Q299 1026 255 1062Q212 1097 203 1164Q200
1187 200 1209Q200 1289 239 1366Q312 1509 421 1532Q450 1538 478 1538Q494 1538 512 1536Z" />
<glyph unicode="&#x201d;" glyph-name="quotedblright" horiz-adv-x="1069" d="M200 1028Q200 1028 210 1038Q283 1106 310 1170Q329 1216 332 1257V1278Q299 1286 273 1312Q235 1350 235 1406Q235 1461 273 1499T365 1538Q413 1538 457 1502Q500 1467 509 1400Q512
1377 512 1355Q512 1275 473 1198Q400 1055 291 1032Q262 1026 234 1026Q218 1026 200 1028ZM557 1028L567 1038Q640 1106 667 1170Q686 1216 689 1257V1278Q656 1286 630 1312Q592 1350 592 1406Q592 1461 630 1499T722 1538Q770 1538 814 1502Q857 1467 866 1400Q869
1377 869 1355Q869 1275 830 1198Q757 1055 648 1032Q619 1026 591 1026Q575 1026 557 1028Z" />
<glyph unicode="&#x201e;" glyph-name="quotedblbase" horiz-adv-x="1069" d="M557 -275L567 -265Q640 -197 667 -133Q686 -87 689 -46V-25Q656 -17 630 9Q592 47 592 103Q592 158 630 196T722 235Q770 235 814 199Q857 164 866 97Q869 74 869 52Q869 -28 830
-105Q757 -248 648 -271Q619 -277 591 -277Q575 -277 557 -275ZM200 -275L210 -265Q283 -197 310 -133Q329 -87 332 -46V-25Q299 -17 273 9Q235 47 235 103Q235 158 273 196T365 235Q413 235 457 199Q500 164 509 97Q512 74 512 52Q512 -28 473 -105Q400 -248 291
-271Q262 -277 234 -277Q218 -277 200 -275Z" />
<glyph unicode="&#x2022;" glyph-name="bullet" horiz-adv-x="980" d="M200 578T200 696T285 898T490 982T695 898T780 696T695 494T490 410T285 494Z" />
<glyph unicode="&#x2039;" glyph-name="guilsinglleft" horiz-adv-x="854" d="M500 1221L588 1133L354 776L654 362L500 201L150 696L500 1221Z" />
<glyph unicode="&#x203a;" glyph-name="guilsinglright" horiz-adv-x="854" d="M354 201L266 289L500 646L200 1060L354 1221L704 726L354 201Z" />
</font>
</defs>
</svg>
