<?xml version="1.0" standalone="no"?>
<!DOCTYPE svg PUBLIC "-//W3C//DTD SVG 1.1//EN" "http://www.w3.org/Graphics/SVG/1.1/DTD/svg11.dtd">
<svg xmlns="http://www.w3.org/2000/svg">
<defs >
<font id="CraftyGirls" horiz-adv-x="565" ><font-face
    font-family="Crafty Girls"
    units-per-em="1024"
    panose-1="2 0 0 0 0 0 0 0 0 0"
    ascent="1001"
    descent="-461"
    alphabetic="0" />
<glyph unicode=" " glyph-name="space" horiz-adv-x="389" />
<glyph unicode="!" glyph-name="exclam" horiz-adv-x="225" d="M230 650Q230 631 225 617T213 592T196 571T180 549Q155 486 135 406T110 242Q109 231 109 220Q109 214 110 209V203Q110 190 108 179Q105 165 99 157T76 148Q58 149 52 165Q47 178 47 196V202Q48
224 53 247T60 289Q64 324 69 362T83 439T101 512T127 576Q130 582 138 597T157 627T178 654T197 666Q200 667 203 667Q212 667 218 662Q225 656 230 650ZM90 -42Q78 -39 68 -34T50 -22Q51 -18 51 -15Q51 -9 49 -6Q46 -3 46 4V8Q57 30 73 30H76Q93 28 105 15Q115
3 115 -13V-15Q114 -33 90 -42Z" />
<glyph unicode="&quot;" glyph-name="quotedbl" horiz-adv-x="226" d="M210 614Q206 599 206 579Q206 571 207 562Q209 530 210 500V490Q210 466 206 448Q201 426 182 423H176Q164 423 159 430Q153 439 152 453V461Q152 472 154 484Q156 500 158 514Q159 528 159
541Q159 558 158 575Q157 581 157 586Q157 608 166 621Q180 626 189 626H192Q202 625 210 614ZM72 616Q65 601 65 580Q65 573 66 565Q69 534 72 503V480Q72 462 70 447Q66 421 44 414Q29 416 26 427T15 445Q19 460 19 480V485Q18 507 17 530Q16 545 16 560Q16 567
17 574Q17 595 22 608T39 625H44Q55 625 72 616Z" />
<glyph unicode="#" glyph-name="numbersign" horiz-adv-x="498" d="M524 433Q519 426 516 418T507 403Q486 402 463 402H415L407 363Q402 335 396 308T384 252Q404 253 423 254T460 257Q471 247 475 228V219Q475 206 467 197Q444 194 420 193T372 191Q367 164
361 148T350 115T341 80T336 28Q326 22 312 13Q304 8 297 8Q291 8 285 12Q282 20 276 20V30Q276 47 279 58Q282 72 286 84T295 110Q298 121 298 139V148Q303 159 306 169T313 191Q278 191 244 191T177 193Q175 183 173 173T167 149Q162 127 160 111T154 80T146
50T132 14Q121 7 112 7Q111 6 110 6Q102 6 96 10Q88 13 82 19T69 33Q79 58 86 77T98 115T107 151T116 193H96Q87 193 75 191T52 189Q41 189 31 192T15 207Q16 235 35 247Q58 248 81 248T128 249Q136 287 143 324T159 403H144Q133 403 115 401Q101 399 89 399H80Q63
400 53 408Q47 413 47 423Q47 429 49 436Q51 442 57 444T70 448T84 452T95 459Q114 457 133 456T171 455Q177 474 182 492T193 530T202 571T207 619Q211 622 217 626T230 634T245 638H247Q253 638 258 635Q259 627 267 627V617Q267 600 265 589Q261 575 257 563T248
538Q245 527 245 510V501Q236 478 230 456Q267 457 301 459T368 464L376 500Q381 522 383 538T389 568T396 597T410 633Q421 640 430 641H432Q440 641 447 638Q455 634 461 628T473 614Q457 575 447 539T428 463Q442 463 457 464H461Q473 464 484 462Q496 459 507
453T524 433ZM355 402H219Q214 373 209 344T192 287Q190 276 190 267T188 250H324Q326 266 330 282T342 319Q344 340 347 361T355 402Z" />
<glyph unicode="$" glyph-name="dollar" horiz-adv-x="358" d="M382 162Q383 152 383 143Q383 120 378 101Q370 73 355 51T319 13T273 -16Q259 -16 248 -18T229 -26Q238 -43 238 -59V-60Q237 -77 230 -87T208 -98Q206 -99 205 -99Q192 -99 176 -88Q175 -82 175
-75Q175 -68 176 -60Q177 -52 177 -43Q177 -35 176 -26Q162 -10 140 -4T98 12Q70 38 57 81Q49 108 49 138Q49 154 51 171Q60 180 68 190T85 208T108 223Q118 227 133 227H139Q144 217 150 209T158 187Q147 178 138 171T122 155T112 135Q110 128 110 119Q110 113
111 106Q114 82 132 66T175 43Q195 36 217 36Q222 36 226 37Q253 38 273 49Q290 64 303 83T323 127Q321 163 312 189T282 227Q265 262 239 288T182 337T123 384T70 436Q67 456 56 467T36 493Q41 498 41 503Q41 506 40 509Q36 516 36 523V527Q38 554 51 577T73 624Q85
627 93 633T111 646T130 658T154 664Q152 685 148 703T136 736Q139 743 145 747T154 758Q162 760 169 760Q182 760 188 752Q196 740 199 721T206 682T223 652Q231 646 243 645T267 636Q278 628 285 617T304 602Q307 588 312 577T323 554T331 530Q333 523 333 514Q333
508 332 502Q325 489 315 481T298 458Q281 462 269 470T251 493Q253 504 260 509T270 524Q269 547 258 565T231 595T194 611Q186 612 179 612Q166 612 154 608Q133 600 122 583T98 549Q101 539 101 531V526Q100 522 100 517Q100 511 101 502Q112 486 123 470T148
440T177 414T214 396Q283 335 342 252Q357 231 368 208T382 162Z" />
<glyph unicode="%" glyph-name="percent" horiz-adv-x="425" d="M393 695Q418 680 420 662V657Q420 642 411 626Q401 607 386 590T363 558Q358 550 358 540T353 521Q341 494 326 470T298 420T273 368T256 310Q250 305 246 298T236 283Q224 236 207 195T171 115T131
37T95 -44Q85 -47 77 -47Q71 -47 66 -45Q53 -42 42 -34Q41 -28 41 -22Q41 8 65 16V22Q65 35 73 41Q82 47 89 56Q131 159 174 258T252 461Q265 474 274 491T292 526T308 562T326 598Q302 594 279 590Q263 587 245 587Q236 587 226 588Q226 562 218 537T195 492T160
459T115 444Q109 443 104 443Q69 443 45 467Q16 493 5 534Q10 576 25 600T72 644Q85 652 98 663T129 675Q141 675 151 670T171 658T190 643T212 631Q221 628 229 627T245 626Q252 626 259 626T276 621Q296 625 312 633T341 651T367 672T393 695ZM156 598Q141 603
128 603Q123 603 118 602Q100 599 88 590T69 567Q65 557 65 545V538Q68 518 79 510T106 501Q120 501 134 508T158 529T169 561V562Q169 579 156 598ZM440 76Q441 68 441 61Q441 50 439 41Q436 25 436 6Q427 -9 413 -22T379 -42T336 -51H331Q310 -51 289 -44Q284
-33 276 -25T261 -8T248 10T242 33Q242 48 247 62T261 89T278 115T296 140Q307 140 315 143T329 149T343 155Q348 156 353 156H359Q373 155 385 147T407 128T425 103T440 76ZM376 80Q365 95 353 97H349Q338 97 329 90Q318 82 311 67T303 33Q314 11 332 8Q336 7
340 7Q353 7 365 15Q379 24 385 42Q386 47 386 52Q386 66 376 80Z" />
<glyph unicode="&amp;" glyph-name="ampersand" horiz-adv-x="684" d="M748 447Q756 420 756 396Q756 376 750 358Q737 320 706 296T630 263Q603 258 574 258Q554 258 534 260Q555 219 555 179Q555 165 553 152Q543 99 512 55T437 -21T350 -67Q335 -65 322 -65Q309
-65 298 -67Q275 -71 250 -71Q141 -70 81 -9T16 160V173Q16 207 25 237Q36 271 53 301T90 360T129 417Q140 419 146 426T163 437Q154 453 146 468T129 501Q130 545 147 586T194 658T265 703Q287 711 311 711Q331 711 353 705Q365 702 374 696T392 683T410 669T430
655Q436 656 439 661T445 671T449 682T457 691Q465 695 475 695H484Q499 692 507 685Q508 678 508 671Q508 661 505 652Q500 637 492 624T473 599T457 574Q450 545 440 520T417 471Q410 469 404 469Q392 469 387 477Q379 487 379 504Q379 520 385 538T397 568Q394
598 378 615T343 648Q336 649 329 649Q304 649 278 640Q245 629 223 605Q202 581 195 554Q191 541 191 529Q191 516 195 505Q203 482 227 469Q244 460 271 460Q281 460 293 461Q303 448 303 437Q303 434 302 431Q298 418 286 410T256 400Q249 399 242 399Q232 399
223 401Q201 393 181 374T143 330Q123 302 106 268T82 196Q77 175 77 155Q77 137 81 119Q87 79 113 40Q123 29 135 21T159 3Q206 -16 255 -16Q259 -16 263 -15Q316 -14 362 4T442 57T490 140Q496 161 496 181Q496 196 493 210Q484 241 467 270Q455 275 446 280T427
288T407 293Q400 294 391 294H383Q369 293 352 285T318 272Q307 269 298 269Q293 269 289 270Q276 273 273 294V300Q273 317 287 327Q303 338 327 343T376 351T417 357Q435 346 463 337T525 322Q554 317 583 317Q586 317 589 318Q621 318 646 327T687 357Q699 374
699 400Q699 405 698 411Q686 417 673 421T651 434Q639 432 627 428T603 421Q599 420 594 420Q588 420 582 422Q572 425 564 437Q569 468 594 480Q614 489 639 489H648Q678 487 706 475T748 447Z" />
<glyph unicode="&apos;" glyph-name="quotesingle" horiz-adv-x="96" d="M69 618Q72 593 76 565T81 509V504Q81 480 76 459Q71 436 56 422Q46 427 35 431T16 442V454Q16 469 18 482Q20 500 22 517Q24 530 24 543V549Q23 565 16 582Q20 607 32 616Q39 620 51 620Q59
620 69 618Z" />
<glyph unicode="(" glyph-name="parenleft" horiz-adv-x="321" d="M311 805Q322 799 325 790V782Q325 776 323 770Q319 759 311 749T291 731Q290 730 288 730Q287 730 285 731Q282 732 281 732Q279 732 278 731Q272 727 258 714T229 684T202 653T188 631Q187 627
187 624Q187 621 188 619V607Q178 604 173 597T161 584Q146 539 137 494T117 400Q112 378 106 357T97 313Q96 301 96 289Q96 268 99 245Q102 209 110 173T129 102T154 36Q159 24 169 13T188 -11Q198 -25 206 -39T223 -66T245 -89T274 -105Q279 -120 279 -131Q279
-136 278 -139Q275 -152 258 -161Q249 -161 244 -157Q241 -154 235 -154Q232 -154 228 -155Q180 -113 143 -55T81 74T49 225Q46 255 46 286Q46 336 54 387Q63 403 66 419T72 452T78 484T94 514V517Q94 522 92 525Q90 527 90 530Q90 533 91 537Q117 624 164 688T278
801Q286 799 290 799Q293 799 295 800Q299 802 311 805Z" />
<glyph unicode=")" glyph-name="parenright" horiz-adv-x="357" d="M306 221Q299 161 281 108T237 8T182 -81T122 -156Q106 -155 96 -149T79 -133Q80 -100 94 -86T125 -59Q127 -52 131 -47T140 -36T147 -23Q149 -19 149 -11V-6Q164 4 174 20T192 54T207 90T226
124Q228 149 233 169T246 208Q242 224 242 239Q242 253 245 267Q251 296 253 325Q254 338 254 351Q254 404 241 454Q224 515 206 572Q188 601 170 630T132 686Q122 700 98 709T52 728T16 755Q9 763 9 773Q9 784 15 796Q24 799 32 799H40Q44 798 48 798Q55 798 62
800Q71 794 79 786T95 773Q109 765 123 763T152 749Q187 721 214 679T263 589Q272 566 280 538T303 482Q306 421 310 357Q311 335 311 313Q311 268 306 221Z" />
<glyph unicode="*" glyph-name="asterisk" horiz-adv-x="387" d="M371 481Q366 458 350 446T314 425T273 410T238 388Q254 371 267 351T294 311T323 273T357 240V231Q357 207 342 196Q313 206 293 225T258 268T227 317T193 362Q173 347 161 326T138 281T115 236T82
199Q66 204 60 218T49 247Q68 259 80 276T103 313T121 355T141 396Q130 411 112 419T75 435T40 453T15 481Q20 483 21 489T26 500Q62 490 95 478T156 448Q162 469 162 491V495Q161 519 159 544T156 598V607Q156 630 160 655Q170 665 181 665Q185 665 189 664Q205
659 208 641Q202 618 202 593Q202 568 204 542T210 489Q212 469 212 450V437H216Q239 437 256 447Q275 458 292 470T327 490Q335 493 345 493Q356 493 368 489L371 481Z" />
<glyph unicode="+" glyph-name="plus" horiz-adv-x="509" d="M494 323Q487 312 477 305T457 289Q439 295 416 297Q399 298 381 298H369Q344 297 319 295T270 293Q264 269 263 245V228Q263 211 264 195Q266 169 270 143T277 89Q270 81 264 74T250 62H246Q236 62
230 66Q224 69 214 69H210Q208 93 207 120T206 176Q205 185 205 194Q205 213 206 232Q207 260 210 286Q192 289 175 289Q167 289 159 288Q135 286 112 283T66 278Q57 277 48 277Q34 277 19 279V284Q19 292 17 297Q15 301 15 307Q15 311 16 316Q22 321 29 324T39
336Q60 330 81 330Q101 330 122 332T164 336Q175 337 185 337Q196 337 206 336Q208 354 210 376T214 423T216 473Q216 497 213 520Q212 528 209 535Q206 540 206 547V550Q208 560 215 568T233 579Q237 580 241 580Q247 580 252 579Q262 575 270 560Q265 538 265
515Q265 512 266 510Q266 484 268 457T271 402V396Q271 371 267 346Q295 343 321 343Q350 343 378 347Q431 354 484 356Q486 348 486 338T494 323Z" />
<glyph unicode="," glyph-name="comma" horiz-adv-x="159" d="M132 71Q144 55 144 41V34Q139 16 128 0T106 -34Q97 -47 97 -62Q97 -66 98 -70Q87 -75 80 -85T65 -103Q56 -106 49 -106Q42 -106 36 -103Q24 -99 11 -93Q5 -83 5 -75V-71Q7 -62 13 -53T29 -36T45 -20Q61
3 72 29T98 71H132Z" />
<glyph unicode="-" glyph-name="hyphen" horiz-adv-x="491" d="M467 295Q420 290 373 290Q349 289 325 289Q302 289 278 290Q231 290 185 292H96Q87 292 75 290T52 288Q41 288 31 291T15 305Q16 334 35 345Q83 348 138 348H248Q303 348 357 349T460 355Q471 346
475 327V318Q475 305 467 295Z" />
<glyph unicode="." glyph-name="period" horiz-adv-x="109" d="M84 -5Q76 -5 71 -7T61 -11T49 -15Q46 -16 43 -16Q39 -16 34 -15Q17 -6 16 13V22Q16 37 18 55Q37 66 52 66H56Q72 64 82 54T93 28V25Q93 10 84 -5Z" />
<glyph unicode="/" glyph-name="slash" horiz-adv-x="538" d="M532 725Q532 719 528 711T517 694T505 674T496 655Q486 629 474 602T449 550T422 504T395 468Q339 351 265 254Q213 163 162 72T54 -107Q48 -110 37 -112Q33 -113 29 -113Q24 -113 21 -111Q9 -98
7 -87Q5 -83 5 -79Q5 -73 8 -68Q11 -59 18 -50T34 -30Q60 6 84 46T131 128T178 207T225 277V287Q226 291 228 294Q281 374 329 456T425 625Q425 636 428 642T432 658Q446 676 455 697T469 745Q485 756 501 756Q506 756 511 755Q532 750 532 725Z" />
<glyph unicode="0" glyph-name="zero" horiz-adv-x="586" d="M557 458Q560 392 561 323V314Q561 250 554 197Q537 161 519 124T476 53T421 -5T347 -41Q322 -47 297 -47Q276 -47 255 -43Q208 -34 163 -20Q129 -3 104 22T56 76Q26 180 26 293Q25 295 25 297Q25 408
56 521Q82 568 116 605T196 668Q209 673 219 675T240 681Q262 687 281 698Q301 704 320 704Q344 704 367 694Q406 676 439 648Q450 639 460 630T480 611Q493 599 505 582T527 544T544 501T557 458ZM505 415Q501 423 499 429T497 442Q496 449 496 457Q496 465 495
476Q481 525 452 557T382 618Q370 627 358 635T331 653Q326 654 320 654Q304 654 290 649Q271 643 253 635Q236 627 219 618T184 602Q151 577 131 538T99 450T85 349Q84 322 84 295Q84 269 85 243Q89 177 110 123T174 39Q188 34 196 32T214 18Q230 18 243 16T269
11Q282 9 296 8Q302 7 309 7Q318 7 328 8Q336 16 345 20Q351 23 360 23Q365 23 371 22Q418 54 447 103T498 209Q503 258 503 309T505 415Z" />
<glyph unicode="1" glyph-name="one" horiz-adv-x="328" d="M251 53Q252 32 255 14Q257 4 257 -4Q257 -11 256 -17Q253 -30 242 -36Q236 -39 225 -39Q216 -39 204 -37Q202 -32 199 -27T191 -17Q193 28 193 75Q193 134 190 197Q185 309 184 434Q172 425 153 412T112
390T65 380H62Q40 380 20 394V427Q33 436 45 438H49Q60 438 71 431Q90 436 105 444T134 461Q145 484 159 503T181 551Q185 567 185 583T186 616Q186 631 187 645T194 672Q198 680 207 682H213Q218 682 224 681Q232 678 240 674T251 665V643Q251 586 247 528Q242
458 241 371Q241 336 242 297T244 216T248 134T251 53Z" />
<glyph unicode="2" glyph-name="two" horiz-adv-x="558" d="M538 10Q543 -3 543 -13V-14Q542 -25 537 -33T523 -48T505 -60Q493 -52 482 -43T458 -23Q447 -13 438 -6T419 9T397 22T368 37Q357 42 344 49Q332 54 323 54H321Q309 53 297 44T271 21T244 -5T214 -26Q200
-33 188 -34T164 -40Q155 -43 146 -49T127 -56H121Q101 -56 79 -45Q53 -33 33 -16Q30 -1 30 12Q30 19 31 25Q33 43 40 61Q85 94 150 106Q193 113 236 113Q258 113 281 111Q305 130 330 160T377 229T415 309T438 395Q444 437 444 480Q444 523 431 559Q415 604 375
622T281 646Q260 640 245 637T204 629Q166 603 138 567T103 472V467Q103 447 116 432Q130 415 144 400T166 370Q167 365 167 361Q167 349 154 335Q149 334 144 334Q138 334 134 336Q126 338 120 341T107 349T93 355Q91 373 81 382T60 401Q49 436 49 467Q49 480
51 492Q57 534 77 569T128 632T190 679Q234 687 272 693Q286 695 302 695Q327 695 354 689Q401 679 431 653T479 590T501 508Q503 484 503 460Q503 438 501 415Q497 369 483 325T449 242T408 168T368 107Q393 90 423 79T481 54Q489 36 505 27T538 10ZM230 50Q219
57 202 57Q184 57 165 54T128 46T97 37V34Q97 29 93 28Q88 26 87 20Q90 20 90 17V10Q105 2 120 2Q124 2 129 3Q147 6 164 14T197 34T230 50Z" />
<glyph unicode="3" glyph-name="three" horiz-adv-x="584" d="M533 252Q545 211 545 174Q545 136 533 102Q510 34 456 -13Q447 -21 435 -29T410 -46T384 -62T359 -73Q342 -79 328 -80Q320 -81 313 -81Q306 -81 300 -80Q286 -79 272 -76T242 -69Q235 -68 227 -68H213Q205
-68 198 -66Q186 -62 172 -53T143 -32T117 -7T98 18Q84 39 75 65T45 108Q49 115 56 123T73 137T94 144H97Q106 144 115 138Q125 135 125 124V123Q124 118 124 114Q124 106 125 98Q134 73 152 51T195 13T249 -13T309 -23Q322 -23 343 -12T386 14T427 48T456 81Q475
111 478 147V162Q478 190 471 218Q461 253 441 283T396 332Q375 319 347 306T287 286Q263 281 240 281Q231 281 223 282Q190 284 162 302Q157 316 157 331Q157 342 160 353Q165 381 175 402Q194 416 221 423T278 432H284Q309 432 333 426Q360 418 379 402Q393 410
405 425T424 459T436 498Q437 509 437 519Q437 528 436 536Q434 548 427 565T411 601T390 634T369 656Q354 666 334 669Q323 670 312 670Q303 670 295 669Q259 664 226 643T167 592T121 528T91 462H89Q84 462 83 458Q82 452 78 449Q47 455 43 470Q42 475 42 480Q42
491 47 503Q54 522 66 542T81 579Q106 607 143 640T223 697T315 724H325Q367 724 409 696Q424 686 436 669T458 632T477 590T496 549Q497 538 497 528Q497 510 495 495Q491 470 484 450T466 411T446 375Q469 346 490 315T533 252ZM325 372Q308 376 295 376Q281
376 270 375T248 371T225 365Q223 359 219 350Q218 346 218 343Q218 337 222 332Q237 334 252 335T282 340T307 351T325 372Z" />
<glyph unicode="4" glyph-name="four" horiz-adv-x="652" d="M636 207Q627 189 615 186Q609 184 602 184Q596 184 590 185Q576 188 562 195T536 207Q531 193 530 173V131Q531 109 533 87T537 47Q538 38 539 27T540 5T542 -15V-20Q542 -25 541 -27Q538 -37 527
-47T503 -62Q496 -65 490 -65Q484 -65 479 -63Q467 -59 463 -40V-34Q463 -23 468 -10Q474 6 475 20V32Q475 44 474 59Q472 80 471 100Q470 134 469 166Q468 175 468 183Q468 206 471 228Q446 233 417 244T356 261Q344 263 328 265T297 268Q286 269 276 269H266Q251
268 240 264Q226 259 216 244T196 217Q185 205 175 194T155 171Q134 161 107 149T53 132Q39 129 26 129Q14 129 3 131Q-21 136 -36 161Q-36 209 -17 237T35 281T107 302T190 311Q212 343 226 387T248 478Q254 519 254 561V573Q253 620 244 659Q252 667 260 674Q266
679 279 679H286Q307 647 312 602Q314 581 314 558Q314 534 312 508Q306 459 293 411T264 324Q317 317 366 309T472 288Q488 382 488 471V496Q485 597 481 699Q486 706 494 708H509Q516 707 523 704T534 696Q539 640 542 588T546 486V469Q546 426 544 384Q541 332
535 278Q543 265 560 261T595 251T625 237Q636 229 636 210V207ZM152 258Q132 253 108 250T65 240T33 219Q22 208 22 190Q22 186 23 181Q69 186 102 204T152 258Z" />
<glyph unicode="5" glyph-name="five" horiz-adv-x="561" d="M523 265Q526 248 526 229Q526 217 525 203Q521 170 513 144Q504 114 483 84T433 28T369 -16T296 -39Q288 -41 282 -45T269 -53Q258 -52 247 -52H227Q213 -52 199 -49Q197 -50 195 -50Q193 -50 193
-49Q191 -47 191 -45T190 -40T186 -36Q147 -34 117 -18T69 26T47 88Q46 97 46 106Q46 133 55 161Q64 173 83 193T122 226Q138 236 154 236Q157 236 161 235Q180 232 189 198Q177 186 163 176T136 153T115 124Q109 110 109 91V81Q119 63 135 48T172 23T214 9Q226
6 239 6Q248 6 256 7Q272 9 290 15T327 29T361 48T390 68Q433 105 448 165Q456 201 456 240Q456 263 453 288Q433 331 401 361T320 405Q187 402 156 298Q143 293 131 293Q125 293 120 295Q104 298 96 315Q95 322 95 329Q95 339 97 348Q101 363 102 378Q103 396
103 415Q103 449 100 486Q94 543 89 592Q87 608 86 624V634Q86 644 87 653Q89 666 95 676T116 693Q190 687 264 687H302Q394 689 500 696Q506 692 510 685T517 668V661Q517 656 516 651Q513 642 507 636Q465 636 421 636T332 637Q287 637 243 636T156 629Q160 576
160 528T166 419Q195 445 237 454Q262 460 288 460Q304 460 321 458Q363 452 401 434T463 388Q469 380 479 365T498 332T514 296T523 265Z" />
<glyph unicode="6" glyph-name="six" horiz-adv-x="563" d="M527 490Q518 486 510 486Q504 486 499 489Q488 495 480 503Q474 561 443 591Q414 617 361 617H350Q343 617 341 612T333 604Q303 600 281 588T241 561T205 529T169 497Q154 469 138 439T110 374T96
303V294Q96 261 109 226Q118 232 123 244T133 273Q154 300 186 323T258 358Q295 370 337 370H341Q384 369 427 350Q434 335 447 325T473 307T499 288T517 263Q522 249 523 235V228Q523 217 522 206Q520 190 519 173V161Q519 149 520 136Q503 98 481 66T427 11T354
-19Q338 -22 319 -22Q292 -22 260 -15Q221 -6 193 7T139 49Q101 91 77 144T39 263Q37 273 32 283T26 303V309Q26 324 30 338Q35 354 43 369T60 398T76 426Q86 470 107 503T156 562T217 609T283 650Q304 652 325 656T366 663Q381 665 396 665H406Q425 664 444 657Q467
647 481 631T517 600Q518 586 523 572T533 545T537 517Q537 503 527 490ZM467 216Q459 221 457 232T454 256Q441 266 427 277T397 297T361 311Q349 314 336 314Q328 314 320 313Q233 302 199 249Q173 209 173 149Q173 130 176 109Q189 84 215 67T274 43Q298 37
324 37Q333 37 342 38Q377 40 410 52Q416 64 423 75T438 97T451 120T460 149Q462 161 462 173V186Q462 201 467 216Z" />
<glyph unicode="7" glyph-name="seven" horiz-adv-x="599" d="M578 684Q589 669 589 647V644Q588 619 581 592T563 537T545 490Q529 448 514 409T481 343Q489 335 501 331T525 324T549 317T568 303Q570 295 570 288Q570 274 563 267Q552 257 538 249Q525 250 515
257T496 271T477 284Q471 287 464 287Q460 287 455 286Q448 284 439 274T421 249T404 221T391 199Q359 152 330 110T267 22Q261 14 251 2T229 -23T208 -43T190 -52Q183 -52 175 -48T161 -37T152 -19Q149 -13 149 -8Q149 -4 150 -1Q151 5 156 10T169 19T183 28T194
35Q219 59 244 93T295 166T343 241T388 309Q379 318 366 323T341 335T321 350T311 376Q321 389 335 391Q340 392 344 392Q354 392 364 389Q378 385 392 378T418 366Q432 379 443 399T463 444T479 493T495 543Q498 553 502 563T510 584T513 608Q513 620 508 634Q463
639 409 643Q370 645 331 645H298Q241 643 187 636T87 610Q79 607 73 603T60 595T45 591H42Q35 591 27 594Q15 606 15 616Q15 620 17 624Q23 637 39 646T78 663T117 674Q167 686 222 691Q271 695 320 695H331Q385 694 436 690T531 680H538Q542 680 546 681Q551
682 555 683T565 686H568Q572 686 578 684Z" />
<glyph unicode="8" glyph-name="eight" horiz-adv-x="598" d="M573 157Q571 125 560 100T531 55T494 17T456 -16Q417 -27 376 -39Q341 -50 304 -50H292Q247 -47 210 -31T138 0Q126 15 112 29T84 60T61 95T48 137Q46 152 46 166Q46 203 60 235Q78 278 108 314Q131
319 145 332T175 358Q136 376 107 404T71 478Q70 485 70 492Q70 511 76 528Q84 551 97 571T125 610T151 645Q166 647 180 654T209 668T239 683T272 692Q286 694 299 694Q327 694 354 687Q393 676 429 669Q441 656 455 646T483 625T510 602T532 575Q534 556 534
539Q534 507 527 483Q515 445 496 415Q479 404 463 394T426 375Q453 358 478 340T526 301Q533 283 541 266T557 232T570 197Q573 182 573 165V157ZM476 552Q459 569 439 587T393 619T340 640Q323 644 305 644Q292 644 278 642Q255 639 230 626T184 594T148 554T131
512V503Q131 484 138 468Q147 448 162 433T198 409T238 398Q260 396 282 396Q304 396 328 398Q374 403 410 421T467 471Q479 492 479 521Q479 535 476 552ZM509 121Q512 138 512 151Q512 164 510 175T504 196T496 218Q492 228 489 239T482 258Q467 287 441 300T382
318T314 325T245 331Q216 319 188 302T138 259T109 200Q106 188 106 175Q106 152 115 127Q119 116 126 108T142 90T158 72T171 50Q192 42 211 33T252 18T296 8Q305 7 314 7Q329 7 345 10Q365 17 383 22T417 34T449 48T479 70Q485 84 493 96T509 121Z" />
<glyph unicode="9" glyph-name="nine" horiz-adv-x="535" d="M519 273Q507 246 496 217T470 157T439 99T398 46Q392 39 386 35T372 24Q363 16 349 4T317 -20T282 -41T248 -53Q244 -54 240 -54Q234 -54 228 -52Q217 -49 206 -48H199Q188 -48 177 -50Q167 -53 160
-53Q156 -53 152 -52Q137 -49 123 -40T95 -26Q93 -17 93 -9Q93 2 97 11Q104 27 118 31Q122 32 125 32H130Q134 30 138 27T146 20T159 13Q161 12 163 12Q166 12 171 14Q175 15 178 15Q181 15 183 14Q199 10 215 10Q234 10 252 16Q285 27 313 49T365 102T405 161Q426
199 441 249Q451 284 451 319Q451 334 449 349Q437 336 426 322T400 295T367 272T321 258Q300 254 279 254Q272 254 266 255Q238 256 212 261T161 274T116 291Q105 306 90 312T60 333Q37 357 30 395Q26 417 26 439Q26 455 28 471Q33 509 47 542T82 591Q83 598 86
603Q88 606 88 611V615Q112 630 134 646T177 679Q221 696 256 696Q290 696 323 684Q334 680 348 678T366 673Q368 671 369 667T372 661Q380 656 384 654T399 643Q426 617 447 590T485 523Q495 500 502 470T513 407T519 340V273ZM422 500Q419 530 404 551T368 589T323
619T280 643Q274 642 267 642Q260 642 253 643Q248 644 244 644Q235 644 229 640Q212 632 194 621T159 598T129 572T108 546Q100 531 99 513T84 481V468Q84 435 92 407Q102 374 131 354Q147 343 169 333T216 317T264 308Q274 306 284 306Q296 306 307 308Q341 314
364 334T400 381T419 441Q423 463 423 484Q423 492 422 500Z" />
<glyph unicode=":" glyph-name="colon" horiz-adv-x="134" d="M114 403Q119 390 119 378Q119 366 114 354Q104 331 81 329H76Q56 329 49 343Q43 353 43 364Q43 370 45 376Q50 393 68 404Q76 409 87 409Q99 409 114 403ZM84 -5Q76 -5 71 -7T61 -11T49 -15Q46 -16
43 -16Q39 -16 34 -15Q17 -6 16 13V22Q16 37 18 55Q37 66 52 66H56Q72 64 82 54T93 28V25Q93 10 84 -5Z" />
<glyph unicode=";" glyph-name="semicolon" horiz-adv-x="188" d="M173 401Q170 394 170 386T169 368Q158 356 138 350Q129 347 120 347Q108 347 96 351Q95 359 91 364T82 375Q82 391 93 402T119 419Q126 421 134 421Q141 421 149 419Q164 415 173 401ZM132 71Q144
55 144 41V34Q139 16 128 0T106 -34Q97 -47 97 -62Q97 -66 98 -70Q87 -75 80 -85T65 -103Q56 -106 49 -106Q42 -106 36 -103Q24 -99 11 -93Q5 -83 5 -75V-71Q7 -62 13 -53T29 -36T45 -20Q61 3 72 29T98 71H132Z" />
<glyph unicode="&lt;" glyph-name="less" horiz-adv-x="499" d="M461 556Q472 548 474 538V533Q474 525 470 518Q465 508 456 502T434 495Q397 468 356 446T273 402T187 361T103 318Q146 299 186 278T266 236T349 194T437 158Q441 142 444 132Q446 126 446 119Q446
113 444 104Q436 98 426 95T404 88Q397 97 388 103T370 118Q335 131 304 147T242 180T181 214T116 245H100Q93 243 86 241Q80 253 68 258T42 268T16 278T-4 295Q-5 301 -5 306Q-5 316 -1 323Q4 334 14 341T38 352T63 362Q88 372 114 385T167 413T220 439T273 459Q295
472 316 486T359 514T406 539T461 556Z" />
<glyph unicode="=" glyph-name="equal" horiz-adv-x="518" d="M512 386Q507 380 504 372T496 356H125Q114 356 95 354Q83 352 72 352Q65 352 59 353Q42 354 32 362Q26 367 26 377Q26 383 28 390Q30 396 36 398T49 402T64 406T75 413Q124 408 172 408Q207 408 241
411Q321 417 389 420Q402 417 416 417H459Q476 415 490 409T512 386ZM487 196Q441 191 394 190H299Q251 191 205 192Q182 193 160 193Q138 193 116 192Q107 192 96 190T73 188Q62 188 52 191T36 206Q38 236 56 246Q104 249 159 249H269Q324 249 378 250T481 256Q492
246 496 227V219Q496 205 487 196Z" />
<glyph unicode="&gt;" glyph-name="greater" horiz-adv-x="482" d="M487 294Q478 284 465 278T436 268T406 261T377 251Q349 239 317 225T251 195T186 162T126 127Q118 122 105 114T77 101Q68 99 61 99Q55 99 51 100Q39 103 36 120Q35 124 35 127Q35 137 42 146Q51
157 65 166T94 182T119 194Q151 209 175 218T226 241Q231 248 239 252T253 264Q285 269 308 282T357 307Q342 323 323 333T284 353T243 371T203 391Q194 396 188 404T173 418Q153 429 132 438T89 456T50 478T16 508Q15 512 15 516Q15 524 18 529Q22 537 26 545Q44
545 60 539T91 525T121 506T153 488Q173 477 194 467T236 444Q278 420 321 402T407 361Q424 352 442 341T484 321Q483 317 483 314Q483 309 485 307Q487 303 487 298V294Z" />
<glyph unicode="?" glyph-name="question" horiz-adv-x="428" d="M448 498Q443 483 438 472T426 451T412 432T395 411Q381 394 358 380T311 354Q285 341 255 333T197 318T147 302T114 280Q100 263 100 246Q100 242 101 239Q104 218 119 203T157 179Q173 173 189
173Q196 173 204 174Q214 180 218 191T234 207Q266 206 278 184V181Q278 164 267 152Q254 139 235 131T192 121Q179 119 168 119Q159 119 151 120Q132 122 113 132T77 155T50 184T37 214V221Q37 226 38 230Q39 237 41 244T44 260V261Q44 269 40 280Q48 293 57 303T74
327Q95 335 116 346T160 367T205 384T254 391Q274 401 293 411T330 435T362 464T385 501Q386 511 386 521Q386 532 385 542Q381 561 374 577T357 607T338 635Q311 652 279 655H261Q238 655 214 650Q182 643 154 629T107 598Q106 584 103 576T97 562T92 550Q91 546
91 541V535Q92 520 100 511T116 493T130 474Q131 470 131 465Q131 458 127 448Q120 443 107 438Q97 433 91 433Q89 433 87 434Q61 444 49 469T36 524V530Q36 556 44 583Q52 612 67 631Q95 652 135 671T219 700Q245 705 270 705Q288 705 306 703Q348 696 381 665Q399
648 411 631T432 595T444 552T448 498ZM251 -60Q237 -66 220 -66H211Q187 -64 167 -60Q154 -47 152 -22Q151 -17 151 -11Q151 7 157 23Q170 28 187 28H196Q219 26 236 16T261 -13Q262 -18 262 -25Q262 -40 251 -60Z" />
<glyph unicode="@" glyph-name="at" horiz-adv-x="599" d="M584 385Q580 352 569 320T537 263T488 225Q468 216 444 216Q432 216 420 218Q398 221 388 234T363 261Q349 257 342 246T326 225Q319 227 314 227Q311 227 308 226Q300 224 294 220T281 211T266 205Q262
204 257 204Q251 204 244 206Q233 209 224 214T207 225T196 235Q186 247 183 266Q180 281 180 297V306Q181 327 186 347T199 382Q207 397 226 415T270 447T322 467Q333 470 343 470Q357 470 370 465Q375 463 382 457T395 443T407 425T413 405Q414 397 414 390Q414
381 413 372Q410 356 410 341Q409 339 409 337Q409 323 413 311Q416 296 430 282Q438 278 444 278Q445 278 446 279Q452 279 457 281T468 285T483 288Q505 306 513 331Q518 349 518 368Q518 375 517 383Q514 409 504 435T480 482Q463 501 442 519T395 549T340 565Q329
566 319 566Q299 566 279 562Q191 528 138 460T76 288Q75 279 75 270Q75 232 89 197Q106 153 140 122T222 73Q258 60 301 60Q313 60 326 61Q368 65 403 77T467 111Q472 118 474 125T477 138T481 150T490 161Q501 163 509 163Q526 163 533 155Q541 145 541 132V125Q538
107 527 88T503 58Q475 39 436 25T352 4Q323 -1 295 -1Q279 -1 264 1Q219 4 182 21Q174 25 168 31T154 42T140 51Q134 54 126 54H122Q107 70 91 86T60 120T36 160T22 211Q24 219 24 227Q24 238 21 247Q15 263 15 282Q16 307 23 331T39 378T56 425T69 472Q95 504
127 535T199 588T284 621Q308 626 334 626Q358 626 383 622Q462 592 510 532T584 385ZM340 409Q290 400 262 366Q236 334 236 288V278Q252 269 266 269Q274 269 282 272Q303 280 318 301T339 352Q342 368 342 383Q342 396 340 409Z" />
<glyph unicode="A" glyph-name="A" horiz-adv-x="786" d="M784 303Q787 297 787 291Q787 286 785 281Q780 269 771 260Q764 259 759 259Q751 259 746 261Q735 263 727 267T709 275T688 280Q680 239 675 201T663 126T646 54T617 -14Q612 -11 607 -11Q603 -11 600
-12Q596 -14 592 -14Q587 -14 581 -11Q571 0 571 12V15Q572 28 578 42T592 72T604 103Q614 148 617 194T627 280Q587 285 545 285Q531 285 516 284Q458 282 399 275T283 255T173 227Q177 188 182 155T199 83Q203 69 210 53T222 24Q223 18 223 13Q223 6 220 0Q215
-10 196 -11H193Q184 -11 177 -5Q169 2 164 12T157 36Q156 44 156 51V59Q147 74 141 92T130 131T123 171T119 210Q95 202 73 193T32 170Q11 179 7 189Q5 192 5 196Q5 202 9 208Q15 217 29 225T59 241T90 255T113 267Q111 288 111 308Q111 348 118 387Q128 445 149
497T202 594T270 678Q294 702 321 716T381 738T450 748H530Q572 716 599 672T644 575T670 464T684 344Q694 336 708 333T737 327T765 319T784 303ZM621 337Q625 352 625 367V374Q624 392 621 410T612 447T604 484Q603 489 603 494Q603 499 604 504Q605 509 605
514Q605 519 604 524Q597 556 585 587T553 644T508 684Q483 698 451 698H447Q390 696 344 666T263 598Q244 566 225 533T192 461T171 378Q167 352 167 324Q167 304 169 283Q229 296 284 306T393 324T504 335Q548 337 594 337H621Z" />
<glyph unicode="B" glyph-name="B" horiz-adv-x="748" d="M718 566Q723 548 723 526Q723 513 721 499Q716 462 708 433Q695 389 668 351T621 282Q631 263 640 244T657 204T668 161Q670 149 670 137Q670 125 668 112Q664 82 652 57T623 11T585 -26T544 -55Q523
-55 497 -55T445 -51T397 -41T360 -22Q351 -14 347 -2Q345 5 345 11Q345 15 346 19Q348 29 357 35Q363 39 373 39Q378 39 384 38Q390 37 397 31T413 19T430 6T447 -2Q494 0 529 7T588 48Q598 69 604 96Q608 119 608 142V150Q607 177 599 201T574 242Q557 236 535
224T489 203T440 191Q436 190 432 190Q412 190 394 202Q388 206 383 214T373 232T368 255V260Q368 269 370 276Q378 299 399 309T448 322Q460 323 472 323Q489 323 507 321Q537 317 564 312Q611 347 635 402T665 533Q654 562 637 585T604 633Q572 660 528 671Q490
679 451 679H437Q390 677 348 662T280 623Q269 613 254 595T237 563V557Q237 543 244 522Q252 495 257 469Q267 422 278 367T290 249Q291 209 292 167V157Q292 119 288 83Q284 41 274 2T243 -72Q216 -89 195 -89Q190 -89 186 -88Q161 -84 142 -65T110 -16T90 42Q82
68 75 98T63 155Q61 168 61 180Q61 187 62 193Q63 212 66 230T72 268T76 306Q78 334 85 363T101 420T119 471T136 513Q147 523 157 532T173 556Q173 578 164 591T145 616T124 640T110 670Q122 680 133 680H138Q151 677 163 667T187 643T207 620Q240 647 275 673T350
720Q388 728 432 728Q445 728 459 727Q519 724 574 710Q594 696 619 685T661 653Q668 645 677 634T694 612T709 588T718 566ZM501 272H476Q462 273 450 273Q438 273 429 270T417 256Q424 246 438 244Q443 243 448 243Q457 243 466 246Q480 249 490 256T501 272ZM197
-39Q223 17 232 87Q238 136 238 187Q238 208 237 230Q233 303 220 374T190 506Q166 466 148 413T122 302Q114 252 114 201Q114 192 115 183Q116 122 130 68Q134 53 139 37T153 6T171 -21T197 -39Z" />
<glyph unicode="C" glyph-name="C" horiz-adv-x="779" d="M731 556Q744 527 744 502Q744 494 743 486Q737 454 717 429T666 385T601 355Q579 357 564 363T527 372Q522 380 515 385T501 394T486 402T474 415Q472 430 470 448Q468 459 468 470Q468 476 469 482Q470
497 480 506Q488 513 503 513Q508 513 514 512Q525 498 527 484Q528 477 528 468Q528 458 527 446Q541 435 558 423Q574 412 591 412H594Q599 412 613 418T644 434T674 455T691 476Q693 482 693 489Q693 498 689 507Q684 518 684 531V539Q673 544 664 554T644 575T624
597T601 613Q593 616 581 616Q568 616 557 619Q544 624 533 631T510 639Q500 641 490 641Q480 641 471 639Q451 636 432 632T394 623T353 619Q285 590 226 548T129 439Q114 412 105 378T93 309Q91 289 91 271Q91 255 92 240Q95 206 106 181Q125 135 163 93T256
31Q281 22 318 17T397 9Q417 8 438 8Q459 8 479 9Q520 11 554 18Q566 21 581 24T611 31T639 40T661 51Q667 55 672 61T683 74T697 84Q701 86 707 86Q710 86 714 85Q730 80 733 63Q734 58 734 54Q734 41 728 28Q684 2 627 -16T506 -41Q463 -46 420 -46Q397 -46 373
-45Q305 -41 240 -22Q184 -1 141 37T71 129T38 249Q36 266 36 285Q36 335 49 392Q81 463 125 525T240 626Q291 654 344 667T467 693Q479 695 491 695Q502 695 513 693Q535 689 556 682T599 666T644 653Q654 638 666 627T691 606T713 583T731 556Z" />
<glyph unicode="D" glyph-name="D" horiz-adv-x="785" d="M743 281Q740 244 728 212T699 150T661 96T623 47Q552 3 467 -31T282 -73Q280 -87 269 -95T245 -105H242Q231 -105 222 -98Q212 -91 212 -73Q200 -69 183 -64T149 -53T116 -40T93 -22Q87 -15 87 -6Q87
-3 88 0Q90 12 108 27Q122 26 132 22T153 12T173 3T198 -3V16Q198 48 196 82Q192 124 187 167T178 254Q175 288 175 323V341Q177 416 183 486T198 622H193Q177 622 161 617Q141 611 122 605T83 594Q74 592 66 592Q55 592 44 595Q41 603 41 613V619Q42 632 48 639Q69
642 88 648T125 660T162 671T205 679Q215 685 219 697T225 724T230 750T245 769Q251 771 256 771Q264 771 269 767Q278 761 282 750Q284 742 284 734Q284 729 283 724Q281 710 275 699Q291 692 306 691H318Q327 691 336 692Q351 693 367 695Q377 696 388 696H399Q429
693 456 683T508 661T557 636T606 615Q617 599 632 583T663 550T693 515T716 475Q733 437 740 386Q744 354 744 320Q744 301 743 281ZM686 378Q685 385 682 397T675 421T667 446T660 465Q652 481 639 499T610 533T580 563T553 582Q543 587 529 591T499 602Q487
607 477 612T457 621T436 628T409 635Q372 643 336 643Q300 643 258 632Q242 556 237 473Q232 411 232 350Q232 327 233 305Q235 221 243 140T265 -13H282Q324 -13 361 -5Q406 5 445 21T521 58T593 97Q618 123 638 155T671 223T689 298Q690 313 690 329Q690 353
686 378Z" />
<glyph unicode="E" glyph-name="E" horiz-adv-x="554" d="M528 10Q503 0 477 -14T422 -40T362 -58Q344 -62 325 -62Q310 -62 294 -60Q244 -53 204 -30T127 16Q116 36 102 51T74 83Q62 118 53 153Q46 178 46 203Q46 213 47 224Q50 251 59 273T81 316T107 354T131
391Q101 425 93 465Q89 483 89 501Q89 522 94 542Q103 579 127 611T187 662Q230 685 282 691T385 702Q403 689 424 679T465 657T501 630T525 591Q512 575 499 575Q496 575 492 577Q475 582 456 597T414 628T365 648Q354 649 343 649Q321 649 299 645Q265 637 235
622T181 584T148 536Q141 519 141 502Q141 493 143 483Q149 455 177 428Q204 436 231 447T286 465T343 473Q371 473 401 458Q408 449 415 440T428 421T437 401V392Q437 385 435 377Q427 351 394 340T321 327H313Q277 327 243 335Q204 343 184 357Q169 337 152 317T122
275T103 226Q100 214 100 201Q100 185 104 167Q113 123 145 85T224 23T323 -5Q330 -6 338 -6Q383 -6 425 16Q433 20 441 28T459 44T477 57T495 63Q518 63 523 48T528 10ZM381 387Q375 406 358 413Q344 418 328 418H321Q300 416 281 408T251 391Q277 382 315 381H324Q356
381 381 387Z" />
<glyph unicode="F" glyph-name="F" horiz-adv-x="538" d="M572 694Q574 686 574 677Q574 669 572 662Q568 646 549 641Q545 640 542 640Q536 640 531 644Q524 649 512 651Q488 654 461 654H441Q402 652 363 648T289 638T228 631Q205 515 205 394Q205 302 218 206H227Q238
206 252 208Q270 210 290 212T330 215Q350 215 369 209Q372 200 372 191Q372 184 370 177Q365 161 352 156Q326 158 292 161H279Q252 161 228 153Q229 128 235 105T245 49Q248 23 260 -4T278 -54Q280 -63 280 -71Q280 -82 276 -90Q268 -105 232 -105Q219 -80 211
-50T197 11T186 74T175 133H158Q155 132 151 132Q144 132 138 133Q127 134 119 137T108 149Q108 158 110 164T115 179Q123 187 137 188T165 193Q150 293 149 403V413Q149 517 168 614Q153 612 132 601T92 582Q80 578 70 578Q63 578 58 580Q44 584 41 614Q70 634
106 646T181 671Q183 684 187 698T198 722T217 735Q219 736 222 736Q232 736 245 728Q252 724 252 714V706Q252 697 255 691Q295 696 332 698T405 701T477 703T552 708Q557 703 562 700T572 694Z" />
<glyph unicode="G" glyph-name="G" horiz-adv-x="864" d="M823 342Q815 311 803 285T776 235T746 187T716 138Q719 106 724 71T732 0Q733 -17 733 -32Q733 -51 731 -70Q728 -104 713 -133Q684 -162 658 -191T593 -240Q577 -240 562 -245T529 -255T493 -261H488Q471
-261 449 -253Q444 -251 439 -245T426 -233Q410 -225 394 -218T369 -197Q352 -169 352 -142V-133Q355 -102 372 -70Q381 -68 390 -66H409Q418 -75 420 -84V-91Q420 -97 419 -102Q416 -112 411 -121T402 -140Q410 -170 430 -184T476 -202Q483 -203 491 -203Q510
-203 530 -198Q558 -191 584 -178T630 -147T660 -113Q671 -93 674 -67Q676 -51 676 -35Q676 -24 675 -13Q673 15 669 42T660 94Q629 67 581 45T477 14Q441 7 404 7Q384 7 365 9Q307 14 258 41Q252 44 247 50T235 61Q220 71 202 85T166 116T133 149T108 181Q97 199
92 219T71 255Q61 293 61 330Q61 335 62 341Q63 383 71 422T92 498T118 566Q169 626 235 672T395 749Q430 761 463 761H466Q500 760 534 753T601 733T666 709Q675 695 691 682T720 653T740 622Q742 616 742 611Q742 599 733 586H726Q715 586 706 591Q695 598 686
608T669 631T650 652Q638 661 625 667T599 677T571 687T543 699Q503 701 467 704Q461 705 454 705Q425 705 395 693Q388 690 383 685T369 676Q356 671 343 669T319 662Q294 652 269 636T221 599T181 557T155 515Q153 511 153 506V500Q153 495 151 489Q148 478 140
467T128 445Q120 421 117 393Q114 375 114 359Q114 350 115 342Q117 297 130 263T165 200T211 148T262 98Q309 70 367 64Q388 62 409 62Q445 62 480 68Q535 78 583 102T660 161Q659 192 654 231T645 310Q643 331 643 352Q643 369 645 386Q647 423 663 449Q668 458
677 468T699 486T725 499Q735 503 745 503Q749 503 753 502Q778 499 791 482T810 440T819 390T823 342ZM770 412Q760 419 755 429T733 442Q713 427 707 402T700 347Q700 317 704 287T710 231Q723 249 735 268T756 308T769 356Q771 370 771 386Q771 399 770 412Z"
/>
<glyph unicode="H" glyph-name="H" horiz-adv-x="810" d="M766 189Q753 189 743 191T723 197T702 202Q697 203 690 203Q684 203 676 202Q671 183 671 164Q671 149 674 135Q680 100 689 65T705 -8Q709 -28 709 -48Q709 -65 706 -82Q694 -87 677 -88H674Q659 -88
652 -78Q651 -43 646 -8T633 62T620 133T609 206Q503 205 406 193T218 156Q213 130 210 100T205 40T201 -20T194 -72Q185 -79 173 -84Q166 -87 159 -87Q154 -87 148 -85Q141 -65 141 -41Q141 -39 142 -37Q142 -11 146 17T154 75T158 132Q152 134 146 134Q137 134
128 130Q112 124 98 115T70 99Q61 94 53 94Q50 94 47 95Q37 98 30 108Q25 114 25 121Q25 126 27 132Q30 142 49 149T90 164T133 177T161 192Q166 247 168 301V328Q168 368 165 406Q160 457 149 503T117 590Q110 605 102 620T88 652Q83 664 83 675Q83 678 84 681Q85
694 97 704Q124 704 138 686T161 643T178 592T201 550Q217 468 219 383T224 209Q309 230 403 245Q476 257 558 257Q580 257 602 256V270Q602 291 604 312Q607 340 611 368T618 425T622 483Q622 540 637 598T676 704Q682 717 686 729T697 751T713 767Q721 771 734
771H739Q749 761 749 746Q749 742 748 737Q744 716 733 692T709 645T692 604Q674 525 669 439T662 263Q683 263 710 259T758 247T784 224Q785 221 785 218Q785 206 766 189Z" />
<glyph unicode="I" glyph-name="I" horiz-adv-x="275" d="M198 226Q196 166 194 106T174 -8Q175 -16 175 -22Q175 -37 169 -45Q159 -57 146 -57Q145 -58 144 -58Q131 -58 119 -48Q106 -39 104 -21Q117 0 123 23T132 71T135 123Q135 149 137 176Q141 232 141 290V325Q139
401 131 477Q128 505 122 534T114 591Q112 614 110 632T97 668Q99 678 106 685T124 696Q128 697 133 697Q138 697 143 696Q153 693 161 684Q163 653 167 625T174 571T180 519V503Q180 486 178 470Q194 413 197 351Q198 306 198 261V226Z" />
<glyph unicode="J" glyph-name="J" horiz-adv-x="570" d="M487 261Q488 242 488 223Q488 141 464 72Q433 -14 366 -63Q325 -93 281 -107Q253 -116 215 -116Q194 -116 169 -113Q155 -111 135 -110T102 -103Q93 -100 88 -92T72 -73Q60 -62 47 -51T24 -24T11 12Q9
18 9 25Q9 41 15 61Q27 75 37 91T58 121T85 146T122 161Q134 144 134 131Q134 125 132 120Q124 102 109 86T80 53Q68 40 68 23Q68 19 69 14Q71 2 76 -5T89 -19T105 -32T119 -49Q160 -60 196 -60Q227 -60 255 -52Q315 -35 356 7T419 114Q437 167 437 228Q437 239
436 251Q434 282 432 318T426 392Q423 434 419 476T410 552Q407 572 400 594T386 646Q381 666 379 684Q377 691 377 698Q377 706 379 713Q382 725 393 729H399Q409 729 426 723Q444 675 454 621T470 507T479 385T487 261Z" />
<glyph unicode="K" glyph-name="K" horiz-adv-x="629" d="M655 669Q638 617 613 573T558 489T498 410T437 332Q423 323 412 312T391 288T369 265T344 245Q419 194 483 135T598 1Q594 -6 594 -15Q594 -16 595 -17V-20Q595 -29 591 -36Q575 -48 565 -48H563Q552
-47 544 -39T529 -18T514 7Q495 36 470 63T417 114T358 159T297 195Q275 187 256 177T210 161Q206 104 195 46T170 -73Q161 -75 153 -77T133 -80Q113 -59 113 -36V-34Q114 -10 123 16T143 70Q151 92 151 115Q151 121 150 128Q139 128 128 130T103 134T76 138H46Q28
156 22 187Q20 196 20 204Q20 224 30 241Q56 255 84 266Q107 275 140 275H153Q152 323 152 379T147 491T132 601T103 696Q114 712 126 717Q131 719 137 719Q142 719 148 717Q158 712 165 699T177 666Q182 634 191 596T203 516Q208 454 209 392V362Q209 319 207
285Q223 277 244 275T280 265Q296 270 307 280T329 301T350 323T374 342Q390 368 409 390T448 434T485 481T514 536Q526 542 533 552T551 569Q559 606 575 633T611 686Q616 687 620 687Q631 687 638 683Q647 677 655 669ZM157 198V201Q157 216 147 220Q141 221
135 221Q128 221 120 219Q105 215 91 207T73 191Q91 189 116 188H120Q142 188 157 198Z" />
<glyph unicode="L" glyph-name="L" horiz-adv-x="510" d="M557 -26Q557 -31 554 -37T545 -50T532 -59T516 -63Q502 -62 488 -46T456 -19Q433 -7 403 1T342 12T282 17H273Q249 17 229 14Q218 -8 205 -35T173 -86T131 -130T75 -156Q61 -159 49 -159Q10 -159 -5 -123V-118Q-5
-77 12 -49Q29 -19 57 3T119 40T185 71Q211 158 218 259Q220 290 220 321Q220 393 209 469Q205 495 199 525T185 586Q181 604 176 621T167 655T163 685Q163 699 169 710Q173 717 179 720H183Q190 720 195 718Q199 715 205 715Q208 715 212 716Q231 645 247 568T271
410Q275 359 275 308Q275 278 274 249Q270 167 249 88Q288 77 329 71T413 61Q431 53 449 42T490 21Q500 17 512 14T533 6T550 -6T557 -26ZM152 -16Q115 -16 88 -40T55 -106Q94 -98 115 -73T152 -16Z" />
<glyph unicode="M" glyph-name="M" horiz-adv-x="1075" d="M1013 363Q1011 313 1000 266T972 175T936 93T900 22Q898 -1 890 -18T863 -42Q834 -36 829 -21Q827 -15 827 -8Q827 2 832 15Q839 35 853 58T876 102Q895 144 913 194T943 298Q954 349 954 403V408Q953
464 933 520Q929 531 925 538T915 553T905 569T893 590Q876 601 861 613T829 637H819Q791 637 769 633Q743 627 721 616T680 589T639 553Q632 547 619 535T594 508T571 481T559 460Q557 452 557 443Q557 435 559 428Q561 410 566 392T575 354T582 316Q583 306 583
296V280Q581 260 579 246Q576 232 567 216T545 187T515 165Q502 159 489 159H482Q457 162 448 188T438 249Q438 283 444 319T458 380Q464 399 476 415T492 453V457Q492 485 479 514Q464 544 441 568T389 610T335 630Q325 631 316 631Q294 631 276 624Q250 614 231
594T198 545T175 486T158 422T144 360Q147 333 148 304T152 246T157 187T167 129Q169 120 174 112T181 95Q182 88 182 80V70Q181 66 181 63Q181 54 184 45Q188 31 200 18T222 -7T231 -31Q231 -43 211 -55Q189 -50 174 -31T147 9Q135 34 128 66T116 134T109 205T104
273Q103 289 100 298T97 326Q98 374 107 418T131 503Q140 529 145 546T158 578T177 604T208 634Q222 645 239 660T271 680Q288 686 305 686H308Q326 685 345 681T383 671T422 660Q429 649 439 641T460 625T483 610T505 594Q507 573 516 560T532 530Q559 550 584
572T635 615T691 656T756 690Q765 694 782 694Q799 694 817 692T850 685T873 677Q944 632 981 551Q1014 479 1014 388Q1014 376 1013 363ZM512 353Q504 326 496 295Q491 278 491 261Q491 245 495 229Q509 230 515 244T522 279V284Q522 301 519 319Q516 340 512
353Z" />
<glyph unicode="N" glyph-name="N" horiz-adv-x="750" d="M703 561Q704 551 704 540V524Q702 504 699 484T691 445T683 407Q675 361 666 316T640 227Q612 158 588 89T529 -44Q517 -47 509 -47Q507 -47 506 -46Q497 -46 483 -44Q478 -32 478 -20V-13Q480 2 486
19T503 56T523 97Q535 125 548 152T570 207Q594 287 615 359T643 511Q644 519 644 527Q644 547 640 566Q635 592 622 612T588 646T536 662H527Q503 662 474 653Q440 642 412 631Q382 619 359 598T317 549T284 487T259 417Q256 407 256 395Q256 382 252 371Q247
357 240 344T227 316T215 286T209 250V221Q210 204 212 190Q214 180 214 170V164Q213 161 213 158Q213 148 215 140Q217 133 220 128T225 117V112Q225 106 224 100Q222 93 222 87V83Q222 78 226 75T232 66Q240 33 244 1T259 -61Q247 -72 236 -79Q229 -83 219 -83Q211
-83 202 -81Q184 -18 172 55T149 206T126 359T92 501Q87 516 80 532T66 563T55 592Q51 603 51 611V615Q52 619 53 625T59 636T71 645Q75 647 80 647Q86 647 92 645Q102 643 108 632T118 606T126 574T135 541Q142 521 150 504T158 458Q165 449 168 437T173 411T178
385T188 364Q201 401 214 438T243 510T275 577T315 638Q335 645 350 655T379 678Q420 693 459 700T536 722Q568 711 596 699T647 667T684 623T703 561Z" />
<glyph unicode="O" glyph-name="O" horiz-adv-x="810" d="M774 352Q773 319 765 289T744 232T718 179T691 132Q675 124 663 112T637 86T610 61T577 42Q569 38 556 38Q543 38 530 35Q521 32 508 28T481 20T451 13Q439 11 428 11H420Q411 12 403 16T387 22Q367 25
346 25H330Q323 24 316 24Q294 24 273 28Q263 30 254 36Q248 40 242 40Q237 40 233 38Q215 53 194 66T153 92T114 121T82 159Q63 190 55 227T46 305V319Q46 353 50 388Q54 431 59 473Q82 515 104 558T156 637Q182 654 208 668T270 697Q296 708 328 714T396 723H417Q442
723 467 721Q503 717 537 707Q550 703 569 695T608 677T645 657T674 637Q689 625 698 611T716 581T732 551T751 523Q752 500 756 479T765 437T772 395Q774 379 774 363V352ZM718 403Q707 507 656 564T514 650Q496 655 476 661T440 670H438Q433 670 429 667Q424
663 417 663Q409 663 404 666T393 670Q299 666 229 615T126 483Q115 438 107 396Q99 358 99 321V312Q100 247 129 200T203 124T306 81Q351 71 397 71Q409 71 422 72Q481 75 535 94T631 149Q649 171 666 199T696 261T716 330Q720 351 720 374Q720 389 718 403Z"
/>
<glyph unicode="P" glyph-name="P" horiz-adv-x="665" d="M638 452Q637 435 634 414T622 375Q610 348 586 324T530 282T463 255Q440 249 417 249Q404 249 391 251Q379 253 362 261T331 281T314 311Q313 315 313 319Q313 332 324 348Q333 351 341 351H349Q360 348
371 345Q374 342 375 337T377 327T381 318T388 312Q397 311 405 311Q444 311 476 323Q515 337 540 365T576 432Q582 453 582 476Q582 495 578 515Q572 549 555 573T512 616T458 649T401 676Q390 677 380 677Q335 677 295 663Q246 645 207 622Q234 541 247 456T263
281V241Q263 171 258 99Q251 7 237 -86Q229 -100 211 -102Q208 -103 205 -103Q191 -103 180 -93Q174 -76 174 -62Q174 -58 175 -53Q177 -36 187 -19Q195 47 200 109T207 241V268Q207 340 198 408Q187 487 167 566Q157 561 148 552T130 530T118 501T113 465Q142
462 149 449Q152 442 152 436Q152 429 148 422Q140 408 121 401Q113 398 105 398Q92 398 77 405Q72 421 65 435T57 465V475Q57 495 63 513Q71 536 84 556T112 594T140 626Q137 635 133 643T125 660T119 679Q118 682 118 686Q118 692 120 699Q134 705 144 708Q147
709 151 709Q158 709 167 706Q176 703 177 692T184 673Q203 677 220 684T252 700T283 717T317 733Q386 732 447 715T552 663T620 576Q639 534 639 480Q639 466 638 452Z" />
<glyph unicode="Q" glyph-name="Q" horiz-adv-x="877" d="M825 337Q825 283 814 239T782 157T735 89T678 33Q684 22 691 7T708 -22T729 -46T755 -57Q764 -57 769 -55T778 -49T789 -42T805 -37Q821 -47 825 -60Q826 -65 826 -70Q826 -78 823 -85Q817 -97 805 -106T778
-117Q769 -118 760 -118Q738 -118 721 -109Q697 -96 679 -76T647 -34T621 0Q575 -24 520 -33Q479 -40 437 -40Q423 -40 409 -39Q352 -36 298 -23T200 10Q167 34 142 66T93 133Q78 180 71 238Q66 278 66 318Q66 335 67 353Q70 410 83 463T120 555Q130 571 143 584T170
608T197 629T223 652Q264 666 303 680T387 705H402Q442 705 486 701Q538 696 584 688Q607 677 628 665T681 648Q701 630 722 614T761 578T792 534T812 474Q817 442 821 406T825 337ZM768 267Q771 289 771 313V326Q770 358 767 390T758 451T748 504Q718 545 672
577T571 627T452 650H428Q377 650 324 638Q276 618 236 592T166 528Q149 495 138 454T123 367Q120 340 120 313Q120 295 121 277Q124 231 135 191T168 118T220 67Q274 34 344 23Q403 13 463 13H484Q510 24 539 31T594 50Q594 62 584 77T562 106T540 135Q531 148
531 158V160Q532 176 541 183Q548 187 558 187H564Q577 185 588 172T610 142T627 108T641 83Q687 113 722 157T768 267Z" />
<glyph unicode="R" glyph-name="R" horiz-adv-x="746" d="M710 504Q709 459 695 426T657 367T605 318T546 274Q563 234 579 195T610 116T634 33T650 -57Q640 -65 630 -72Q623 -76 616 -76Q611 -76 606 -74Q596 -70 592 -63T587 -45T586 -24T583 -1Q581 10 574
18T563 40Q555 61 554 87T543 137Q529 171 512 197T482 243Q471 243 458 240T432 233T403 228Q399 227 395 227Q384 227 372 230Q362 233 352 239T334 252T320 269T315 287Q315 295 320 305T333 324T352 341T372 350Q381 352 390 352Q397 352 405 351Q421 348 437
342T467 328T493 314Q524 330 556 352T612 403T644 471Q647 484 647 499Q647 526 636 558Q616 597 573 623T476 659Q443 665 410 665Q388 665 366 663Q309 656 262 631Q269 618 270 600T279 571Q275 552 275 532Q275 530 276 528Q276 505 278 483T283 438T289 397Q292
366 293 322T295 229T296 135T299 56Q300 37 302 16T307 -24T309 -60Q309 -76 305 -84Q301 -92 290 -98Q280 -104 274 -104H272Q257 -103 251 -91T245 -62Q244 -59 244 -55Q244 -41 246 -24Q248 -3 248 16Q249 27 249 38Q249 64 245 88Q240 121 238 147Q234 190
234 230Q234 246 235 262Q236 290 236 317Q236 344 235 371Q233 429 225 494T205 608Q194 601 179 595T149 580T119 562T95 538Q90 531 87 520T78 498Q73 488 68 477T59 455Q56 446 56 436V431Q57 418 65 404Q76 402 84 402Q93 402 100 405Q111 410 121 416T144
426Q148 428 154 428Q162 428 172 424Q177 418 178 409Q179 404 179 398Q179 393 178 387Q165 371 143 362T96 350H85Q66 350 48 356Q25 363 11 381Q5 404 5 428Q5 438 6 448Q9 482 21 514T53 572T95 615Q113 627 138 641T191 668T248 691T302 708Q311 710 327
714T362 721T396 726H407Q414 726 419 725Q437 720 457 718T497 712T537 705T573 691Q579 688 585 681T599 668Q618 656 638 641T674 605T700 559T710 504ZM429 290Q425 293 417 296T399 301H392Q387 301 383 300Q375 298 372 290Q374 285 382 282T401 279Q410
279 418 282T429 290Z" />
<glyph unicode="S" glyph-name="S" horiz-adv-x="520" d="M459 602Q464 580 464 559Q464 550 463 541Q460 511 448 488T415 450T366 435Q355 439 354 448T352 462Q353 471 357 475T368 481T380 486T392 495Q396 499 400 507T408 525T414 543T416 559Q415 576 402
591T369 619T327 639T286 649Q278 650 270 650Q248 650 228 644Q200 636 180 619T150 577Q144 562 144 546Q144 533 148 519Q173 475 209 443T285 380T360 317T423 241Q435 214 442 180T450 112Q450 77 439 47T403 -3Q384 -17 359 -28T306 -48T253 -60Q231 -63
214 -63H205Q187 -62 168 -53T133 -29T102 2T78 31Q71 41 63 49T52 64Q46 80 46 96Q46 103 47 109Q50 132 60 152T85 190T115 218Q149 213 154 200Q155 196 155 192Q155 182 148 171Q138 154 123 138T102 108Q106 85 115 69T138 39T168 16T202 -3Q216 -4 228 -4Q242
-4 255 -2Q277 1 296 8T331 25T366 44Q390 74 393 108V120Q393 148 383 176Q371 209 350 238T306 288Q297 296 289 306T272 321Q240 345 207 366T148 415Q134 430 120 452T97 500T86 555V559Q86 586 98 612Q105 627 117 637T143 657T172 675T199 696Q232 702 260
702Q273 702 285 701Q324 697 356 684T414 649T459 602Z" />
<glyph unicode="T" glyph-name="T" horiz-adv-x="567" d="M604 632Q596 627 587 627Q579 627 572 630Q553 636 533 638Q514 640 494 640Q472 640 449 638Q405 633 370 628Q364 601 364 575Q364 573 365 571Q365 542 367 513T372 454T376 394Q377 341 377 287Q377
233 378 179T384 72T396 -30Q392 -38 385 -44T369 -53Q362 -55 356 -55H351Q342 -54 333 -47Q328 35 326 122T321 296T315 463T303 615Q261 614 222 601T146 570T71 533T-5 501Q-16 509 -21 519Q-26 526 -26 535Q-26 539 -25 542Q-23 550 -18 554T-4 561T13 566T32
572Q46 578 63 587T96 605T127 623T149 635Q206 653 286 669T450 692Q463 693 483 694Q496 695 510 695H524Q545 694 565 691T597 680T613 662Q614 659 614 657Q614 646 604 632Z" />
<glyph unicode="U" glyph-name="U" horiz-adv-x="688" d="M629 425Q631 398 631 369V332Q628 282 620 235T598 148T566 81Q558 70 549 62T530 45T512 29T499 11Q477 1 454 -9T407 -28T359 -42Q341 -47 322 -47Q316 -47 309 -46Q271 -44 242 -32T190 0T147 45T111
97Q93 142 87 187T78 281Q77 292 73 302T68 325Q67 342 67 359Q67 377 68 394Q71 429 76 463T86 532T95 602Q96 607 96 612Q96 618 95 623Q94 630 94 637Q94 641 95 644Q95 654 97 663T108 682Q119 685 132 686H133Q144 686 151 679Q156 661 156 643Q156 624 154
605T147 566T141 525Q138 490 135 454T130 379Q129 360 129 341Q129 321 130 301Q131 261 138 218Q147 158 173 108T242 31Q252 24 268 20T304 13Q317 12 330 12H343Q362 13 379 17Q435 30 474 66T538 153T571 267Q577 310 577 355Q577 375 576 395Q574 421 572
448T566 502Q561 544 550 583T526 656Q539 676 551 681Q556 683 561 683Q567 683 573 679Q582 672 589 657T602 621T611 580T616 539V531Q616 522 615 513Q613 504 613 497V492Q615 474 621 458T629 425Z" />
<glyph unicode="V" glyph-name="V" horiz-adv-x="716" d="M750 717Q771 717 778 706Q783 698 783 689Q783 685 782 681Q778 667 766 656Q755 647 740 647H734Q697 626 668 598T614 538T566 471T516 406Q499 364 477 324T433 239Q428 228 422 218T412 196T404 172Q402
164 402 155Q402 149 403 142Q404 122 410 101T424 58T439 14T450 -32Q455 -62 455 -94Q455 -127 453 -159Q445 -167 437 -177T421 -198T401 -214Q392 -219 380 -219H376Q351 -217 336 -189T313 -122T305 -40Q304 -37 304 -33Q304 5 309 32Q318 56 330 81T343 132Q342
151 327 175T299 222Q288 245 278 267T256 309Q244 330 232 348T208 383T186 417T165 456Q162 464 155 468T142 480Q136 499 126 515T103 548T77 579T52 610Q43 622 34 634T16 660T1 690T-5 724Q2 727 9 727Q18 727 28 721Q45 710 60 691T90 649T115 613Q136 594
153 573T182 523Q236 457 278 380T366 226Q388 265 415 313T471 411T532 511T597 600Q606 611 620 623T649 648T679 670T707 690Q719 699 728 708T750 717ZM386 -155Q399 -137 401 -112V-99Q401 -80 398 -60Q393 -33 385 -8T369 38Q363 18 358 -9T353 -64Q353 -92
360 -116T386 -155Z" />
<glyph unicode="W" glyph-name="W" horiz-adv-x="1027" d="M964 494Q971 448 971 403Q971 382 970 362Q965 296 957 230Q947 199 934 172T911 113Q882 79 848 51T777 -4Q757 -5 743 -10T717 -24Q691 -27 667 -27Q615 -27 569 -15Q500 2 459 50Q421 17 371 -2T259
-31Q200 -14 160 15T98 103Q82 146 79 195Q77 221 77 248Q77 272 78 297Q81 345 96 399T128 498Q137 519 143 534T156 563T171 589T192 618Q197 625 208 638T231 660T255 670Q266 670 272 651Q274 645 274 639Q274 634 272 629Q268 620 261 613T245 598T232 584Q225
574 221 562T205 544Q191 503 175 457T148 361T133 260Q132 249 132 238Q132 199 142 160Q148 136 159 115T182 73Q201 49 228 40Q252 31 279 31H285Q314 32 344 42T399 70Q413 78 421 89T436 110Q426 133 421 164T415 228Q414 230 414 233Q414 262 420 289Q426
317 440 335T479 358Q483 359 487 359Q508 359 536 344Q553 315 556 280Q557 273 557 267Q557 237 546 203Q541 187 533 174T518 150T507 126Q505 119 505 112Q505 106 506 100Q509 89 515 82T530 69T548 58T566 43Q598 30 631 29Q637 28 643 28Q669 28 694 34Q724
40 752 54T804 86Q851 123 878 179T914 317Q917 349 917 385Q917 421 914 455T904 521T887 574Q884 580 879 587T869 600T861 614T857 628Q859 642 871 650T891 658Q907 658 920 638T942 590T956 535T964 494ZM509 287Q498 299 491 299Q488 299 486 297Q477 290
474 272Q472 258 472 241V230Q473 207 476 193Q493 209 497 235T509 287Z" />
<glyph unicode="X" glyph-name="X" horiz-adv-x="716" d="M674 3Q691 -15 691 -30Q691 -33 690 -37Q684 -54 668 -60Q660 -63 653 -63Q643 -63 633 -58Q615 -50 611 -23Q580 1 554 28T503 85T453 144T400 200V204Q400 212 397 217Q392 222 390 231Q333 163 273
101T143 -17Q140 -22 138 -28T133 -40Q116 -48 104 -59T76 -80Q63 -76 52 -71T36 -54Q40 -37 51 -27T74 -7T98 12T116 37Q130 44 141 53T163 73T185 93T213 107Q228 130 246 150T283 190T319 231T350 277Q278 383 200 481T53 689Q58 703 67 712Q74 719 87 719H93Q100
717 111 704T133 674T155 641T170 618Q202 574 225 541T280 475Q291 455 305 438T334 405T362 372T387 334Q402 343 412 357T432 386T452 415T477 438Q491 474 509 505T546 568T579 635T601 712Q620 720 632 720Q636 720 639 719Q651 715 653 702Q654 698 654 694Q654
683 650 668Q644 648 635 628T617 588T601 558Q588 535 580 514T564 478Q560 471 553 465T541 451Q536 443 535 435T531 421Q520 404 505 387T476 353T448 320T427 287Q476 202 537 132T674 3Z" />
<glyph unicode="Y" glyph-name="Y" horiz-adv-x="726" d="M808 -176Q803 -182 797 -188T784 -198T768 -202Q767 -203 766 -203Q758 -203 749 -198Q744 -188 743 -178T740 -159T737 -140T729 -123Q721 -112 709 -106T684 -96T655 -88T627 -79Q610 -111 605 -148T587
-224Q578 -257 567 -284T542 -333T507 -375T458 -412Q447 -418 438 -425T418 -439T394 -450T361 -455Q332 -455 311 -440T269 -407Q267 -395 264 -387T252 -368Q251 -358 251 -349Q251 -317 259 -289Q269 -252 287 -219T332 -158T388 -106Q421 -80 463 -57T562
-32Q565 1 566 38V62Q566 87 565 112Q564 150 563 187T560 260Q552 254 549 246T544 230T541 214T536 197Q521 163 501 134T457 79T408 28T356 -22Q339 -30 320 -35T280 -43Q266 -45 252 -45H241Q221 -44 203 -37Q166 -6 146 36T115 127T103 228Q102 254 102 280Q102
306 103 331Q104 378 111 420T128 502T146 582T162 664Q171 672 184 675H189Q198 675 205 669Q206 659 206 649Q206 632 204 614Q200 586 194 557T182 497T171 435Q162 358 161 284Q160 275 160 266Q160 200 170 136Q173 115 180 94T199 54T225 24T259 9Q288 10
304 18T344 37Q395 71 429 119T486 223T527 341T560 465Q559 477 559 489Q559 502 560 515Q562 540 564 566T569 619V636Q569 653 567 670Q570 681 579 687T601 697Q618 684 624 665Q628 649 628 630V624Q627 601 622 577T614 531Q611 505 611 477Q611 452 614
425Q619 369 619 309Q620 267 620 224Q620 182 619 140V99Q619 37 621 -20Q654 -25 686 -33T744 -58T787 -103T808 -176ZM557 -90Q515 -91 472 -112T392 -166T330 -239T301 -316Q300 -324 300 -331Q300 -340 302 -347Q304 -361 310 -370T324 -386T343 -399Q352
-398 361 -398H374Q384 -398 392 -395Q433 -377 463 -346T514 -275T545 -187T557 -90Z" />
<glyph unicode="Z" glyph-name="Z" horiz-adv-x="707" d="M679 675Q664 630 643 591T598 515T552 441T509 364Q526 354 549 351T596 344Q599 336 603 330T609 314Q603 304 595 297T576 284Q551 292 529 302T475 314Q433 262 395 208T312 103Q331 106 352 106Q367
106 383 105Q420 100 456 91T527 69T589 46Q611 38 635 26T672 1Q681 -10 681 -20Q681 -24 680 -27Q676 -41 643 -54Q620 -32 588 -14T518 19T440 41T362 53Q337 55 307 55Q276 55 258 46Q250 42 245 36T235 23T225 8T211 -7Q181 -36 143 -57T61 -87Q29 -70 27
-46Q26 -42 26 -39Q26 -18 38 2Q52 25 77 44T124 73Q135 77 146 79T170 82T193 84T215 90Q230 96 243 107T267 133T289 162T312 190Q326 205 341 218T365 244Q370 251 370 259T375 274Q385 290 399 301T419 334Q411 342 399 345T375 350T352 357T338 374Q340 388
348 394T365 407Q377 406 388 401T409 390T431 382Q436 380 442 380Q447 380 452 381Q462 383 466 390T474 405T481 421T495 434Q502 465 516 489T546 535T576 581T599 635Q551 645 499 645Q447 645 396 639T298 622T211 598Q205 596 194 589T171 575T147 561T131
555Q119 555 111 565Q104 573 104 583V585Q104 590 108 595T119 606T131 615T141 621Q158 629 178 635T219 646T260 658T295 672Q377 685 457 687H511Q566 687 626 685Q636 692 648 692Q652 692 657 691Q674 688 679 675ZM175 30Q147 20 122 9T84 -27Q142 -11 175
30Z" />
<glyph unicode="[" glyph-name="bracketleft" horiz-adv-x="281" d="M270 -48Q276 -57 276 -69V-74Q274 -90 269 -101Q254 -101 234 -102T193 -106T152 -110Q143 -111 136 -111Q126 -111 118 -110Q106 -109 98 -98T87 -69Q85 -58 85 -47Q85 -41 86 -35Q87 -18
94 -6V105Q95 164 95 227T97 356V388Q97 437 96 483Q94 545 91 602T81 707Q84 718 84 728Q84 735 83 743Q79 760 74 777T67 811Q66 815 66 820Q66 832 71 844Q87 844 106 845T145 848T185 851T222 853Q225 853 227 857Q229 859 231 859H232Q248 857 255 844T268
818Q265 810 259 805T250 792Q221 792 196 794Q187 795 178 795Q160 795 140 792Q134 783 134 774Q134 769 136 765Q140 752 142 738Q151 644 153 549V358Q151 263 150 169Q149 137 149 106Q149 43 151 -18Q152 -24 154 -28T158 -35V-41Q156 -44 150 -48Q159 -50
168 -50Q173 -50 178 -49Q193 -48 208 -47T240 -44H243Q258 -44 270 -48Z" />
<glyph unicode="\" glyph-name="backslash" horiz-adv-x="538" d="M517 -111Q513 -113 508 -113Q504 -113 500 -112Q489 -110 483 -107Q427 -19 376 72T273 254Q235 303 203 356T142 468Q129 482 116 503T89 550T64 602T42 655Q38 664 32 674T20 693T10 711T5
725Q5 750 26 755Q31 756 37 756Q53 756 69 745Q73 718 82 697T105 658Q107 649 110 643Q112 638 112 630V625Q160 539 208 457T309 294Q313 288 313 280V277Q337 246 360 208T406 128T453 47T503 -30Q511 -41 519 -50T531 -68Q533 -73 533 -79Q533 -83 532 -87Q529
-98 517 -111Z" />
<glyph unicode="]" glyph-name="bracketright" horiz-adv-x="269" d="M202 -137Q200 -151 194 -157T177 -165T154 -167T128 -169Q107 -171 90 -174T59 -178Q46 -178 37 -171T22 -146Q26 -128 36 -121T62 -111T93 -108T126 -102Q133 91 133 280V328Q132 540 127
751H98Q84 749 72 748T48 746Q45 745 42 745Q32 745 20 747Q13 752 9 760T5 778Q5 787 9 795T22 807Q36 803 51 803Q60 803 69 805Q94 808 118 811Q133 813 147 813H161Q181 811 195 796Q196 772 196 747Q196 723 195 700Q194 652 193 605Q192 553 192 496Q192
467 193 438Q193 348 194 255V68Q193 -25 190 -110Q190 -115 192 -118T196 -123T201 -128Q202 -130 202 -133V-137Z" />
<glyph unicode="^" glyph-name="asciicircum" horiz-adv-x="477" d="M440 214Q437 213 433 213Q423 213 415 221Q403 230 394 244T377 273T366 298Q351 330 342 354T320 405Q312 410 308 418T296 431Q291 463 278 486T253 535Q237 520 226 501T206 462T189 421T169
381Q164 373 156 367T142 351Q131 331 122 310T104 267T82 228T52 194H47Q37 194 31 197Q23 200 15 204Q15 222 21 238T35 270T54 300T72 331Q83 351 93 372T116 415Q140 457 158 500T199 585Q208 602 219 621T239 662Q243 661 246 661Q251 661 254 663Q257 665
262 665H266Q276 656 282 643T292 614T300 584T310 555Q333 498 365 430T433 304Q438 296 446 283T459 255Q461 247 461 240Q461 234 460 229Q457 217 440 214Z" />
<glyph unicode="_" glyph-name="underscore" horiz-adv-x="977" d="M976 30Q963 18 947 15Q933 11 917 11Q915 11 913 12Q895 12 875 14T832 16Q732 16 631 14T433 6Q415 15 387 15Q358 15 326 12T262 6Q242 3 224 3Q215 3 206 4Q194 5 174 6T130 8T84 13T41 21T11
36Q0 44 0 55V57Q1 78 10 84Q16 88 23 88Q25 88 28 87Q37 85 46 80T61 73Q74 69 88 69Q94 69 100 70Q113 71 126 71H138Q162 69 186 62T237 54Q277 54 319 60T405 67Q466 67 531 66T659 65Q680 64 701 64Q742 64 782 65Q842 66 893 70Q901 73 912 78T935 85Q941
86 947 86Q952 86 958 85Q968 83 974 72Q973 66 973 62Q973 55 975 51Q977 47 977 40Q977 36 976 30Z" />
<glyph unicode="`" glyph-name="grave" horiz-adv-x="788" d="M477 528Q465 516 453 516Q452 516 452 517Q438 517 424 524T396 544T370 569Q358 580 342 594T318 623Q312 631 312 640Q312 644 314 648Q318 660 347 666Q354 654 364 644T385 625T406 605T424 582Q430
575 438 571T455 561T469 548T477 528Z" />
<glyph unicode="a" glyph-name="a" horiz-adv-x="678" d="M668 24Q665 12 661 2T648 -12Q643 -14 636 -14Q631 -14 626 -13Q612 -11 597 -5T569 9T548 24Q534 37 526 54T510 88T498 121T484 145Q473 140 466 132T453 114T440 94T424 75Q403 54 374 38T310 12Q281
4 250 4Q245 4 240 5Q204 6 170 21Q135 45 107 82T61 164T42 260Q41 266 41 272Q41 316 57 362Q63 378 73 397T97 435T124 468T153 492Q189 514 232 521Q255 524 278 524Q297 524 317 522Q360 516 400 500T474 459Q483 468 496 478T525 496Q538 501 551 501H556Q571
500 585 486Q593 455 593 425V410Q590 373 580 339T556 273T528 215Q543 168 561 125T611 51H622Q638 51 646 47Q657 40 668 24ZM535 436Q515 407 513 372V356Q513 328 518 295Q524 307 532 326T545 367Q548 384 548 400V407Q547 425 535 436ZM468 222Q464 263
460 308Q457 334 457 359Q457 376 458 392Q445 412 423 428T375 454T320 468Q303 470 288 470Q276 470 264 469Q229 465 203 453T157 422Q146 402 133 378T111 327T97 271Q96 260 96 250Q96 231 100 212Q104 196 112 177T132 138T157 103T184 78Q204 64 231 60Q248
57 267 57Q277 57 287 58Q320 68 345 86T391 126T430 173T468 222Z" />
<glyph unicode="b" glyph-name="b" horiz-adv-x="687" d="M650 152Q645 99 625 63T572 1T498 -42T410 -75H402Q357 -75 322 -64Q283 -53 252 -35T195 6T142 52Q134 37 131 11T123 -39T105 -73Q99 -77 92 -77Q81 -77 65 -68Q61 -58 61 -49V-45Q62 -34 64 -23T68
0Q69 8 69 16V25Q85 91 98 170T112 326Q112 344 110 362T106 397T104 432Q104 448 109 463Q104 476 101 494T96 533T92 575T85 617Q83 632 80 651Q77 662 77 672Q77 678 78 683Q80 697 91 702Q94 703 98 703Q109 703 129 694Q145 611 155 519T166 336Q182 352 196
371T226 408T259 444T299 473Q328 488 358 494Q377 497 397 497Q407 497 418 496Q447 493 474 483T523 456Q551 436 576 403T619 330T646 243Q651 212 651 181Q651 166 650 152ZM570 79Q590 129 590 180V188Q588 242 570 290T521 376T453 436Q430 442 410 442Q397
442 386 440Q355 434 330 421T284 389T243 353Q232 330 216 310T187 267T167 221Q164 210 164 199Q164 183 169 166Q164 154 164 142Q164 141 165 140Q165 127 169 115T181 93T196 75Q209 62 227 49T263 24T300 2T333 -15Q351 -18 368 -18Q385 -18 402 -15Q436
-9 467 5T524 38T570 79Z" />
<glyph unicode="c" glyph-name="c" horiz-adv-x="638" d="M595 362Q576 364 565 371T546 388T531 408T512 425Q489 439 457 450T390 468T318 475Q281 475 248 466Q225 459 203 444T161 409T128 365T107 318Q96 279 96 241Q96 228 98 216Q102 165 122 122T176 47T258
4Q291 -4 324 -4Q327 -5 329 -5Q359 -5 388 1Q418 7 444 18T492 44Q497 48 502 54T512 67T525 77T542 81Q559 80 568 67Q574 59 574 47Q574 41 572 34Q570 29 562 23T545 11T526 -1T512 -9Q501 -15 485 -17T455 -26Q441 -32 431 -37T411 -48T389 -58T361 -63Q348
-64 334 -64Q286 -64 240 -49Q182 -31 141 1Q134 6 129 15T117 31Q103 44 89 54T67 84Q57 108 52 138T44 195Q41 218 41 240Q41 286 54 329Q73 391 110 435Q118 443 129 449T151 466Q162 476 168 486T184 502Q190 505 202 510T229 519T258 527T284 532Q306 535
325 535Q347 535 366 532Q403 525 438 512Q459 505 476 499T508 485T537 468T568 445Q579 436 592 426T612 404Q617 395 617 387V382Q614 371 595 362Z" />
<glyph unicode="d" glyph-name="d" horiz-adv-x="718" d="M738 -61Q739 -67 739 -72Q739 -92 730 -100Q719 -110 704 -110Q702 -110 700 -109Q682 -108 662 -99T628 -77Q611 -63 596 -42T568 4T544 54T524 100Q511 80 493 57T454 10T408 -35T357 -71Q337 -82 305
-92T243 -104H237Q215 -104 197 -98Q176 -91 157 -80T121 -55T86 -27Q66 1 52 38T31 117Q26 146 26 176Q26 187 27 199Q29 241 43 280Q67 322 101 354T177 411Q207 414 240 417Q268 419 295 419H306Q338 418 368 412T424 391Q437 383 444 373T467 361V462Q466 473
466 483Q466 529 472 573Q478 627 499 671T568 735H573Q595 735 609 727Q624 717 633 702T647 667T661 631Q653 509 631 398T564 193Q569 158 579 128T602 71T630 19T661 -31Q669 -36 679 -39T701 -44T722 -50T738 -61ZM584 424Q586 431 586 438Q586 444 585 450Q583
458 583 466Q583 472 584 478Q587 501 593 525T604 574Q605 586 605 598Q605 610 604 621Q600 644 584 665Q581 666 578 666Q569 666 560 658Q549 647 544 638Q528 605 524 562Q521 533 521 503Q521 488 522 473Q524 427 529 382T538 297Q555 315 559 342T571 397Q573
405 577 410T584 424ZM501 190V196Q501 209 498 223Q494 239 488 254T472 282T454 304Q445 312 429 322T393 343T354 359T320 367Q306 368 293 368Q232 368 188 345Q134 317 107 268Q82 222 82 165Q82 159 83 154Q85 90 120 23Q135 3 156 -12T204 -35Q226 -42 251
-42H258Q286 -41 314 -27Q342 -14 373 12T433 68T480 131T501 190Z" />
<glyph unicode="e" glyph-name="e" horiz-adv-x="599" d="M542 95Q535 67 515 45T475 8Q457 -6 434 -13T391 -32Q353 -34 319 -35T251 -39Q208 -28 172 -8T107 45Q94 60 79 86T53 143T37 209Q35 221 35 234Q35 254 40 272Q42 281 52 293T70 322Q96 373 127 411T208
472Q239 487 283 494Q312 498 341 498Q357 498 373 497Q418 493 458 478T522 436Q537 418 546 395T558 346V335Q558 316 553 298Q546 275 528 258Q505 236 472 219T400 190T319 174Q299 171 280 171Q258 171 238 174Q198 179 164 194T104 238Q103 227 103 217Q103
191 110 165Q120 128 140 98T189 48T254 21Q275 17 299 17Q302 17 305 18Q331 18 356 22T405 36T445 58Q460 69 469 85T495 115Q500 116 505 116Q518 116 526 112Q536 106 542 95ZM502 342Q500 361 490 373T472 406Q452 425 421 433T356 441Q321 441 286 436T221
422Q192 398 167 371T127 305Q144 275 170 259T229 235Q260 228 295 228Q297 228 300 229Q338 229 378 232Q394 243 416 253T458 275T491 304Q502 318 502 336V342Z" />
<glyph unicode="f" glyph-name="f" horiz-adv-x="407" d="M515 546Q510 538 504 530T489 517Q481 512 473 512Q472 512 471 513Q462 513 452 522Q451 528 451 533Q451 543 455 551Q461 562 469 572T484 593T492 619Q491 644 472 663T426 692T367 705H359Q333 705
311 696Q292 688 276 674T244 643Q215 611 194 564T171 459Q179 448 191 445Q199 443 209 443H215Q228 444 242 446T271 449Q280 441 288 432Q295 424 295 409V405Q284 397 270 396Q261 395 251 395H239Q222 396 205 398Q193 399 182 399H171Q167 367 167 336Q167
323 168 311Q170 268 176 227T193 145T214 64Q214 38 219 16T231 -29T243 -72Q245 -85 245 -100Q245 -109 244 -119Q231 -129 217 -129Q206 -129 194 -123Q166 -1 141 123T107 389Q95 387 76 383T39 379Q37 378 36 378Q20 378 10 386Q0 392 0 409V415Q25 427 55
429T111 439Q115 496 132 551T180 650T255 723T358 753H365Q382 753 401 750Q423 745 444 737T484 717T515 690Q539 658 540 621V618Q540 583 515 546Z" />
<glyph unicode="g" glyph-name="g" horiz-adv-x="554" d="M564 -106Q563 -139 556 -165T536 -213T506 -254T467 -293Q457 -302 450 -308T434 -318T414 -327T387 -337Q376 -341 367 -346T350 -353Q338 -355 326 -355Q316 -355 306 -353Q284 -351 262 -346T218 -337T173
-333Q152 -322 134 -301T103 -252T84 -195Q78 -171 78 -147Q78 -141 79 -135Q80 -106 91 -80T126 -36Q132 -31 141 -28T159 -19Q176 -9 190 1T221 19T259 31Q276 34 298 34H310Q313 38 313 43Q313 48 311 53Q307 61 307 70V74Q291 73 275 73Q224 73 178 86Q118
102 79 135Q63 160 50 192T31 259Q26 285 26 312V328Q28 363 42 395Q68 430 97 460T156 522Q183 535 218 542Q246 547 273 547H286Q319 545 349 535T400 506Q410 505 420 505Q434 505 447 507Q469 511 490 515T530 519Q548 519 564 509Q565 503 565 498Q565 488
562 480Q558 467 547 462Q538 463 526 464H501Q488 463 476 461T454 452Q485 405 492 352Q494 335 494 318Q494 282 484 248Q470 198 440 158T367 98Q366 92 366 83Q366 74 366 64T368 43T370 24Q446 19 491 -17T564 -106ZM417 218Q433 245 437 274Q438 285 438
297Q438 314 435 330Q430 358 419 385T393 435Q379 441 370 450T351 467T332 483T307 492Q292 494 278 494Q252 494 227 486Q188 473 158 447T109 384T84 309Q83 297 83 285Q83 258 91 231Q103 192 136 161Q172 143 219 136Q244 132 272 132Q295 132 320 135Q346
152 373 170T417 218ZM504 -106Q496 -84 472 -68T416 -40T347 -24Q325 -21 304 -21Q292 -21 280 -22Q257 -24 241 -32T212 -49T185 -69T156 -86Q139 -110 137 -139Q136 -146 136 -153Q136 -175 142 -195Q149 -222 163 -245T196 -280Q223 -285 252 -290T310 -295Q312
-296 315 -296Q341 -296 368 -290Q396 -285 420 -270Q435 -261 453 -242T484 -200T505 -151Q508 -140 508 -129Q508 -117 504 -106Z" />
<glyph unicode="h" glyph-name="h" horiz-adv-x="562" d="M521 251V240Q521 206 516 172Q510 132 501 94T481 19T461 -50Q451 -52 443 -55Q438 -57 431 -57Q427 -57 421 -56Q415 -51 411 -45T401 -33Q415 7 429 56T452 156Q458 195 458 233V257Q455 306 434 348Q417
366 396 380T347 402Q310 396 279 387T224 355Q190 322 173 269T148 154T137 28T127 -93Q109 -105 98 -105Q95 -105 93 -104Q81 -101 76 -88T70 -53Q70 -33 72 -11T76 30T80 61Q84 121 85 185V227Q85 268 84 309Q82 370 79 425T71 526Q61 543 61 573Q61 603 58
636Q56 653 51 672T46 705Q46 719 57 726Q62 729 72 729Q83 729 100 725Q111 682 118 633T129 533T135 430T141 329Q155 368 188 398T264 443Q299 455 337 455H356Q404 451 448 422Q475 386 497 346T521 251Z" />
<glyph unicode="i" glyph-name="i" horiz-adv-x="217" d="M103 648Q123 660 136 660H141Q154 657 159 646Q161 639 161 630V621Q158 606 150 597Q142 589 131 589Q129 589 128 590Q114 591 97 611Q96 615 96 618Q96 626 100 631Q103 636 103 644V648ZM183 -54Q173
-58 165 -58Q159 -58 155 -55Q144 -50 137 -38T126 -10T117 19Q100 62 88 117T71 231Q67 280 67 330V350Q68 409 77 460Q90 472 105 472H109Q126 470 133 454Q136 448 136 441Q136 434 134 426Q129 409 127 390Q125 368 125 341V323Q126 285 127 260Q127 239 128
214T134 162T143 111T157 66Q163 49 173 34T189 4T196 -24Q196 -39 183 -54Z" />
<glyph unicode="j" glyph-name="j" horiz-adv-x="252" d="M96 638H93Q81 638 72 646Q62 654 59 666Q58 671 58 675Q58 682 61 689Q66 700 82 705Q88 707 93 707Q104 707 111 701Q121 691 123 678V672Q123 661 118 652Q111 639 96 638ZM166 63Q161 -5 152 -62T122
-174Q115 -192 110 -203T99 -225T85 -244T65 -268Q40 -297 10 -322T-57 -362T-137 -378Q-140 -379 -144 -379Q-184 -379 -229 -362Q-242 -357 -255 -349T-278 -331T-294 -308Q-297 -301 -297 -294Q-297 -289 -296 -285Q-289 -263 -277 -263Q-265 -263 -251 -272T-224
-295T-202 -311Q-169 -325 -140 -325Q-132 -325 -124 -324Q-89 -319 -60 -302T-5 -259T42 -211Q48 -185 59 -165T82 -124Q97 -52 108 28Q116 95 116 164V190Q115 210 111 232T106 280Q104 310 103 339T99 395T90 447T72 491Q76 514 96 521Q102 522 107 522Q121
522 132 511Q137 482 144 456T162 407Q169 311 170 228V200Q170 131 166 63Z" />
<glyph unicode="k" glyph-name="k" horiz-adv-x="464" d="M454 -32Q451 -46 448 -58T437 -79Q385 -64 348 -34T279 32T219 106T156 178Q146 154 142 124T136 61T132 -3T123 -62Q109 -71 99 -71Q89 -71 73 -69Q66 -59 65 -49V-41Q65 -35 66 -28Q67 -18 70 -8T76
15Q85 62 89 119T94 237V261Q94 310 92 359Q90 419 86 473Q83 508 77 540T63 605T48 671T36 740Q44 748 56 755Q61 757 67 757Q75 757 83 753Q104 700 116 641T135 520T144 392T149 262Q170 271 191 288T234 328T276 374T313 419Q317 425 325 434T344 451T366 466T387
473Q401 472 410 464Q417 457 417 445V439Q416 431 412 426T401 417T389 410T377 402Q358 385 339 362T298 315T254 269T206 232Q241 171 284 120T373 18Q399 10 416 -5T454 -32Z" />
<glyph unicode="l" glyph-name="l" horiz-adv-x="224" d="M178 -51Q175 -59 168 -65T151 -73Q146 -74 140 -74Q136 -74 132 -73Q122 -72 115 -65Q104 35 92 133T75 329Q72 383 72 436Q72 479 74 522Q78 618 98 714Q108 717 117 717Q123 717 129 716Q142 711 151
701Q136 606 132 510Q129 462 129 414Q129 367 132 319Q136 224 148 131T178 -51Z" />
<glyph unicode="m" glyph-name="m" horiz-adv-x="904" d="M845 438Q860 391 862 346V325Q862 290 857 256Q850 212 837 169T808 84Q797 54 781 27T748 -23Q743 -21 740 -21H736Q733 -23 727 -23H721Q712 -17 709 -6Q707 0 707 7Q707 11 708 15Q709 25 714 35T728
50Q745 93 761 137T795 224Q797 252 800 282Q802 304 802 325V339Q801 367 795 392T772 435Q762 442 748 447T718 454Q710 455 702 455Q694 455 687 454Q671 452 658 445Q634 428 616 406T578 361Q570 340 560 320T541 278T525 235T514 188Q511 165 511 144Q511
140 512 137Q512 113 513 89T515 40V34Q515 12 511 -13Q497 -27 474 -30Q458 -16 453 2T448 41Q448 61 451 82T454 124Q454 173 452 224T440 320T412 404T360 468Q347 471 335 471Q325 471 316 469Q297 464 282 454T253 431T227 408Q220 391 211 375T193 341T175
304T163 264Q158 236 158 207Q158 199 159 192Q160 155 166 118T180 45T193 -26Q186 -42 168 -50Q162 -53 156 -53Q144 -53 133 -43Q118 6 110 69T93 200T73 331T39 445Q36 452 32 458T25 470T21 485V489Q21 496 23 505Q38 517 50 517Q53 517 55 516Q69 513 79
499T96 463T109 417T120 371T130 335Q155 387 186 431T263 508Q283 511 298 518T330 532Q371 527 399 510T447 466T478 405T497 331Q530 379 563 424T641 505Q665 511 689 511Q704 511 718 509Q756 503 792 495Q805 480 818 466T845 438Z" />
<glyph unicode="n" glyph-name="n" horiz-adv-x="610" d="M564 357Q563 313 561 268T553 179T536 96T507 23Q508 17 508 11Q508 -1 504 -10Q497 -25 486 -32Q477 -39 466 -39Q464 -39 462 -38Q448 -37 437 -24Q436 -16 436 -10Q436 -4 437 2Q439 12 443 21T453
37T463 53Q480 98 491 156T503 273V277Q503 333 490 382Q476 433 443 464Q438 469 428 472T407 476H399Q391 476 384 475Q372 474 363 471Q323 457 288 425T226 348T187 251Q175 208 175 163Q175 153 176 143Q177 120 183 99T195 56T208 14T216 -31Q208 -42 197
-49Q188 -55 175 -55Q169 -55 163 -54Q145 -17 140 25T126 110Q119 147 111 188T93 268T73 345T52 414Q48 426 44 436T37 455Q36 460 36 464Q36 468 37 473Q39 481 49 491Q57 494 64 494Q73 494 80 490Q91 482 97 468T106 437T112 407Q121 375 130 348T142 300Q162
340 185 376T238 443T303 497T387 534H392Q434 534 461 519Q489 503 507 478T538 420T564 357Z" />
<glyph unicode="o" glyph-name="o" horiz-adv-x="655" d="M606 324Q614 281 614 244Q614 209 607 179Q592 116 555 72T461 2T338 -37Q271 -35 216 -20T118 27Q100 40 89 58T68 97T51 138T31 181Q39 231 47 280T71 371Q94 399 124 427T190 476T267 509Q295 517
325 517Q338 517 352 515Q368 513 389 507T432 493T473 475T505 455Q515 446 523 436T538 416T555 396T579 381Q586 367 591 352T606 324ZM556 177Q559 195 559 213Q559 227 558 242Q553 276 552 308Q537 318 526 333T505 364T485 395T459 421Q427 433 399 446T338
461H332Q292 461 264 448Q233 434 205 415Q185 401 169 389T141 363T118 333T101 294Q92 256 92 222Q92 197 97 174Q109 120 144 80Q165 69 188 57T236 35T289 21Q303 18 318 18Q331 18 345 20Q379 25 414 39T478 74T528 121T556 177Z" />
<glyph unicode="p" glyph-name="p" horiz-adv-x="699" d="M624 116Q620 110 614 101T600 83T585 67T572 55Q567 52 558 49T537 42T515 35T495 30Q490 29 487 26T480 21H477Q472 21 469 23Q465 24 459 24H455Q445 23 436 19T418 15Q404 15 384 21T350 33Q339 39
331 48T310 67Q298 76 288 82T270 96T263 115L262 116Q262 127 270 144Q280 147 288 147Q297 147 304 144Q317 136 328 124T350 98T378 80Q408 70 436 70Q454 70 471 75Q514 85 545 113T595 184T615 273V280Q615 309 608 333Q600 359 587 381T557 421T523 458Q476
483 430 483Q424 483 418 482Q366 478 317 455Q284 440 252 424T200 381Q211 328 220 272T235 157Q238 113 238 68V38Q236 -23 224 -84Q220 -105 217 -127T211 -169T202 -208T187 -240Q175 -258 153 -270T108 -284H101Q82 -284 66 -275Q46 -265 40 -237Q22 -158
21 -73V-62Q21 17 34 93Q47 175 74 249T138 381Q138 402 127 424T105 466T94 505Q93 506 93 507Q93 524 110 538Q117 533 126 532T141 526Q146 500 156 480T178 440Q193 445 206 453T232 471T259 488T289 501Q294 503 300 503H303Q304 502 306 502Q311 502 317
504Q330 509 343 516T372 528T407 538Q416 539 428 539Q438 539 449 538Q482 529 506 521T549 500T586 472T621 430Q643 399 655 361T669 281V277Q669 237 659 197Q648 155 624 116ZM175 -68Q180 -29 183 17Q184 49 184 81V107Q183 152 180 192T172 261Q169 277
162 293T153 310Q151 309 150 306T147 301Q130 261 114 210T86 103T69 -11Q65 -45 65 -78Q65 -101 67 -124Q69 -152 76 -182T107 -231Q125 -228 136 -211T155 -171T167 -120T175 -68Z" />
<glyph unicode="q" glyph-name="q" horiz-adv-x="669" d="M787 -146Q785 -175 777 -207T754 -266T716 -310Q694 -326 666 -326H663Q648 -326 638 -322T619 -310T604 -296T586 -280Q569 -229 552 -176T522 -68T500 43Q492 92 492 141V152Q471 136 450 118T404 82T352
53T288 38Q278 37 268 37Q253 37 241 39Q219 42 200 48T164 62T131 78Q112 88 98 97T74 118T55 145T38 182Q25 215 25 248Q25 264 28 280Q37 329 60 373T116 453T175 513Q221 530 274 540Q309 546 343 546Q359 546 375 545Q423 540 462 519T522 452Q527 464 529
478T535 506T543 531T559 549Q564 550 569 550Q575 550 580 548Q588 545 596 543Q599 530 599 516V503Q596 483 591 463T579 423T569 382Q561 336 561 287Q561 284 562 281V277Q562 226 549 178Q554 150 554 117V111Q553 108 553 105Q553 72 559 45Q573 45 586
57T612 82T642 102Q647 104 652 104Q663 104 676 95Q677 89 677 85Q677 74 673 68Q666 58 657 52T638 41T623 25Q653 13 679 -2T727 -38T764 -85T787 -146ZM486 396Q481 407 477 419T469 439Q460 455 442 466T401 483T355 492Q339 493 325 493H312Q273 489 237
472T171 427T121 366T92 294Q88 273 88 252Q88 235 91 218Q97 179 121 145Q136 142 148 136T171 122T194 108T218 98Q241 92 263 92Q280 92 297 96Q334 105 366 124T424 168T472 215Q497 257 501 305V320Q501 359 486 396ZM676 -59Q665 -56 650 -48T619 -34Q608
-30 599 -30Q595 -30 592 -31Q580 -33 576 -49Q575 -52 575 -55Q575 -63 581 -72Q588 -84 593 -96Q600 -117 606 -144T620 -199T635 -249T656 -283Q692 -276 709 -246T729 -179V-172Q729 -140 717 -109Q703 -75 676 -59Z" />
<glyph unicode="r" glyph-name="r" horiz-adv-x="518" d="M516 411Q499 402 488 402Q484 402 482 404Q471 408 467 420T459 447T445 472Q437 479 431 480T418 482T405 483T386 489Q362 479 336 472T286 455T242 433T209 401Q213 345 221 292T236 188T244 83V68Q244
22 236 -26Q226 -42 209 -51T173 -70Q137 -68 119 -50T91 -7T78 47T67 98Q75 134 77 173T83 248T100 316T142 367Q146 377 146 388Q146 394 145 401Q141 419 134 437T118 473T108 506Q107 510 107 514Q107 525 111 533Q117 545 138 552Q149 545 155 535T167 513T177
489T189 465Q222 475 256 491T339 519Q352 522 364 528T386 536Q396 537 405 537Q426 537 446 533Q475 526 494 510T521 469Q524 460 524 450Q524 432 516 411ZM173 -13Q181 20 182 61V77Q182 110 179 144Q175 187 168 228T153 304Q141 273 132 228T123 137Q123
91 134 50T173 -13Z" />
<glyph unicode="s" glyph-name="s" horiz-adv-x="531" d="M515 404Q508 388 498 377Q489 367 469 367H462Q443 393 427 420T385 467Q346 480 305 485Q294 486 282 486Q250 486 215 477Q197 472 175 461T144 440Q138 432 129 424T111 407T97 387Q93 379 93 369Q93
365 94 360Q95 351 100 342T114 324T132 308T151 297Q164 291 178 289T206 284T233 279T258 267Q305 266 353 249T435 203Q467 160 467 117V110Q464 64 435 29T358 -27Q321 -42 280 -42Q268 -42 255 -41Q226 -31 200 -19T154 12T119 54T101 113H104Q110 113 116
116Q124 119 132 122Q139 124 145 124H148Q155 123 161 116Q169 111 173 101Q174 96 174 92Q174 85 171 79Q192 49 227 35Q255 23 284 23Q290 23 297 24Q332 27 363 45T408 99Q406 118 398 135T378 166Q350 182 317 192T249 210T181 228T118 251T66 286T31 340V380Q36
399 45 413T65 441T88 465T111 490Q122 496 133 501T156 511T178 524T195 541Q209 537 225 537Q227 537 229 538Q247 538 265 540T301 545H315Q324 545 332 544Q379 536 413 513T479 464Q480 453 485 446T495 432T506 419T515 404Z" />
<glyph unicode="t" glyph-name="t" horiz-adv-x="445" d="M396 513Q410 493 410 482V480Q408 468 396 463T364 458T323 457Q301 457 282 456T252 447Q239 395 239 338Q238 334 238 330Q238 277 246 225Q253 169 266 119T296 32Q308 22 317 4T346 -31Q354 -38 362
-43T378 -53T389 -66Q392 -72 392 -80V-85Q391 -100 379 -108Q369 -115 358 -115H352Q343 -113 339 -105T322 -85Q317 -80 309 -78T296 -72Q281 -59 269 -40T246 1T227 44T212 86Q204 109 197 137T185 199Q183 216 183 233Q183 244 184 254Q185 271 185 289V306Q184
334 182 367Q181 376 181 386Q181 409 185 433Q182 434 178 434Q167 434 154 426Q136 416 117 404T78 381Q61 373 47 373H41Q27 375 21 386Q15 395 15 404Q15 406 16 409Q17 420 28 428Q35 434 48 434Q53 434 58 433Q86 456 121 469T195 493Q200 533 210 580T229
671Q231 682 231 693Q231 703 232 712T236 729T249 741Q254 739 261 739Q267 739 273 738T284 734T292 724Q283 679 274 623T259 510Q271 509 283 509Q304 509 328 512Q351 514 372 514Q384 514 396 513Z" />
<glyph unicode="u" glyph-name="u" horiz-adv-x="593" d="M547 307V296Q547 274 544 254Q542 239 542 227Q542 218 543 210Q531 158 506 111T445 30T362 -23Q328 -36 290 -36Q275 -36 259 -34Q207 -28 171 -2T110 64T74 155T59 263Q58 280 58 299Q58 318 59 339Q60
359 60 380Q60 400 59 420Q58 438 54 459Q51 471 51 480Q51 486 52 490Q55 502 62 508T80 515H83Q91 515 99 512Q108 507 116 497Q117 465 117 432Q117 399 116 366Q115 347 115 329Q115 283 119 240Q124 180 142 130T202 46Q214 37 229 32T262 25T297 23T333 22Q387
42 419 81T477 169Q483 205 487 236T493 299V362Q491 393 487 430Q480 439 476 453Q473 463 473 474V479Q474 492 480 502T500 514H504Q516 514 522 509Q529 503 532 493Q535 484 535 473V470Q534 457 533 447Q533 434 535 416T539 378T544 339T547 307Z" />
<glyph unicode="v" glyph-name="v" horiz-adv-x="546" d="M538 489Q541 480 541 472V466Q539 456 535 449T524 435T512 422Q488 361 459 307T399 199T338 92T284 -23Q276 -26 269 -26Q265 -26 262 -25Q252 -23 241 -20Q223 48 195 107T137 222T77 335T27 458Q27
463 25 465T19 470T13 474T10 482V486Q10 498 15 506Q20 516 29 521Q35 524 42 524Q45 524 48 523Q58 521 67 512Q70 498 76 486T88 463T100 440T107 412Q127 377 142 338T174 261Q190 244 202 223T225 181T247 137T271 94Q297 141 326 187T383 282T434 380T472
485Q480 488 485 494T498 502Q509 500 519 497T538 489Z" />
<glyph unicode="w" glyph-name="w" horiz-adv-x="927" d="M880 269Q883 250 883 232Q883 205 876 179Q864 135 838 99T773 38T690 0Q658 -8 628 -8Q616 -8 605 -7Q563 -3 526 13T458 56T404 115Q380 97 360 69T315 16T260 -23Q242 -32 219 -32Q202 -32 182 -27Q143
-18 119 8T81 72T61 154T53 247Q52 271 52 302Q51 307 51 312Q51 337 54 363Q56 393 62 420T80 464Q87 466 93 466Q100 466 105 463Q113 457 121 451Q125 443 125 436V434Q124 426 122 418T116 403T111 386Q106 356 106 323Q105 316 105 310Q105 283 107 257Q109
224 114 192T124 129Q128 106 138 85T163 50T199 31Q208 28 217 28Q231 28 247 33Q259 37 276 51T309 82T340 118T361 148Q369 162 370 175V183Q370 192 369 201Q366 214 362 228T354 261Q346 301 345 338V346Q345 378 352 406Q360 436 379 458T430 493Q463 483
480 462T502 413Q504 399 504 386Q504 370 501 354Q496 323 486 293T462 235T438 188Q452 147 480 116T546 68T632 51Q633 50 634 50Q680 50 730 71Q774 104 808 138Q815 163 822 193T832 256Q834 273 834 290Q834 304 833 318Q830 348 817 374Q812 384 805 391T791
404T776 417T764 433Q773 462 788 468Q792 469 797 469Q807 469 818 462Q833 450 848 426T872 374T885 318Q886 310 886 303Q886 284 880 269ZM432 429Q418 419 411 400T404 359Q403 356 403 353Q403 333 407 312Q410 287 417 267Q423 283 433 304T449 349Q454
366 454 382Q454 388 453 393Q451 414 432 429Z" />
<glyph unicode="x" glyph-name="x" horiz-adv-x="531" d="M505 -15V-24Q505 -42 499 -55Q490 -72 465 -76Q453 -70 445 -61T429 -42T412 -24T388 -12Q365 30 336 64T274 132Q182 57 104 -32Q97 -32 95 -29H92Q90 -29 87 -32Q75 -50 57 -62Q39 -62 28 -49T16 -21V-18Q16
-5 25 7Q33 18 54 18H57Q105 56 149 98T231 188Q193 242 154 301T80 426Q73 440 62 458T47 491Q45 496 45 501Q45 509 50 515Q55 520 72 520Q80 520 90 519Q103 502 113 483T134 444T157 407T187 376Q193 355 202 338T223 305T247 274T268 242Q312 293 346 352T418
469Q417 473 417 477Q417 482 419 486Q421 491 421 498V503Q431 509 442 512Q449 514 455 514Q459 514 463 513Q473 511 479 504T488 483Q470 442 449 405T406 332T359 262T311 192Q334 165 356 136T402 78T450 26T505 -15Z" />
<glyph unicode="y" glyph-name="y" horiz-adv-x="584" d="M629 57Q645 37 649 5Q650 -6 650 -15Q650 -36 645 -53Q637 -79 620 -89Q614 -93 608 -93Q594 -93 575 -76V-68Q575 -61 576 -56Q578 -49 581 -42T586 -29T589 -13Q588 9 582 22T563 42T533 52T492 57Q490
-1 486 -62T472 -180T442 -289T392 -378T314 -439T204 -461Q159 -452 131 -428T80 -371Q69 -322 64 -275Q63 -263 63 -251Q63 -214 74 -173Q76 -164 82 -150T95 -120T110 -92T124 -70Q131 -61 141 -56T161 -43Q174 -30 183 -15T211 14Q222 22 238 29T268 44Q306
64 341 76T425 101Q425 128 425 157T423 216T420 274T415 328Q401 320 393 308T379 282T366 254T351 228Q341 215 325 206T291 184Q274 172 257 160T220 139T176 128Q171 127 165 127Q145 127 121 134Q91 155 76 185T58 252Q56 265 56 280Q56 302 60 326Q65 364
74 402T96 475T117 539Q128 546 141 546Q146 546 151 545Q156 538 161 532T171 518Q161 480 146 436T121 347Q115 315 115 284Q115 272 116 260Q119 218 147 184Q158 182 167 182Q173 182 179 183Q193 185 204 189T224 200T244 214Q260 225 276 232T304 254Q316
268 325 285T342 320T360 352T385 378Q394 414 405 450Q415 482 415 518V525Q426 530 437 535Q443 538 449 538Q455 538 461 535Q469 524 472 510T477 478V470Q477 457 476 444Q474 427 472 412Q475 378 476 344T478 274T480 200T485 121Q498 118 507 116T526 111T545
106T569 103Q576 97 583 93T597 85T612 75T629 57ZM428 7Q428 10 429 16T430 28Q430 34 428 38T418 44Q406 39 395 35T371 29T347 24T324 17Q316 13 306 5T284 -10Q269 -19 252 -30T220 -53T190 -78T167 -103Q153 -123 142 -152T125 -213Q120 -241 120 -269V-278Q121
-311 131 -338T161 -383T214 -404Q223 -405 231 -405Q263 -405 287 -392Q316 -377 337 -352T372 -297T401 -240Q412 -183 421 -121Q428 -71 428 -17V7Z" />
<glyph unicode="z" glyph-name="z" horiz-adv-x="542" d="M528 3Q532 -6 532 -15Q532 -20 531 -24Q527 -36 522 -47Q515 -48 509 -48Q496 -48 484 -45Q465 -41 447 -36T410 -25T371 -17Q327 -14 282 -12H243Q217 -12 192 -13Q147 -15 105 -21T27 -40Q24 -34 19
-31T10 -20Q11 -9 17 -4T24 13Q173 90 268 217Q260 222 247 222T221 224T199 232Q191 236 191 251V254Q199 266 212 268Q219 269 226 269H239Q253 267 268 264Q275 263 281 263Q288 263 294 264Q305 266 319 281T344 311Q369 343 391 379T418 468Q376 471 337 471Q297
471 261 468Q187 463 111 438Q103 433 95 426T78 413T59 405H55Q47 405 37 411Q35 420 34 431Q33 433 33 434Q33 443 40 448Q84 481 132 493T232 510T343 514Q400 514 465 521Q469 515 475 512T485 501Q483 466 474 435T451 375T420 320T385 270Q391 265 401 265H405Q417
266 431 268Q441 270 451 270H456Q468 269 475 260Q478 252 478 246Q478 241 477 237Q473 227 468 217Q462 217 456 214T445 210H440Q420 210 400 217Q385 221 372 221Q365 221 358 220Q344 217 331 206T306 181T282 152T261 127Q233 98 208 79T157 40Q197 39 246
37T346 31T444 20T528 3Z" />
<glyph unicode="{" glyph-name="braceleft" horiz-adv-x="405" d="M440 -107Q441 -111 441 -115Q441 -123 438 -129Q433 -137 430 -147Q413 -151 392 -151Q388 -152 384 -152Q367 -152 350 -150Q328 -148 308 -143T273 -130Q255 -121 243 -99T222 -50T210 8T203
64Q200 87 200 111Q200 115 201 119V138Q201 156 200 175Q199 202 195 228T179 278Q142 267 106 267Q87 267 69 270Q16 279 -15 318Q-16 324 -16 330Q-16 349 -8 363Q2 381 20 391T61 405Q71 406 82 406Q95 406 108 404Q131 401 152 393T186 371Q210 391 215 430Q218
456 218 486Q218 499 217 513Q215 557 214 602Q213 606 213 610Q213 649 226 679Q237 705 251 724T290 762Q303 773 328 783T376 795H381Q401 795 414 784Q425 775 425 756Q425 748 423 739Q415 733 408 733Q406 732 403 732Q399 732 394 733Q387 734 380 736H363Q358
735 350 731T333 721T318 709T306 699Q288 677 282 647T276 581Q276 546 278 509Q279 491 279 473Q279 455 278 438Q276 403 268 374T236 324Q251 298 255 254T262 160T268 59T285 -28T328 -82Q342 -91 363 -91Q382 -91 407 -83Q416 -88 425 -92T440 -107ZM136
324Q133 332 125 336T107 343Q100 344 91 344H86Q75 343 66 341Q70 332 78 328T98 323H118Q128 324 136 324Z" />
<glyph unicode="|" glyph-name="bar" horiz-adv-x="162" d="M126 683Q95 518 95 353Q95 336 96 319Q99 136 123 -36Q117 -51 99 -56Q94 -57 90 -57Q77 -57 67 -47Q61 49 55 143T47 331Q46 347 46 363Q46 439 52 515Q59 606 80 697Q88 700 95 700Q102 700 107 697Q118
692 126 683Z" />
<glyph unicode="}" glyph-name="braceright" horiz-adv-x="435" d="M471 320Q457 299 436 287T390 269Q371 264 351 264Q343 264 336 265Q308 267 280 276Q266 256 262 231T256 177Q255 158 255 139Q255 129 256 120V111Q256 86 253 62Q251 38 247 9T235 -49T214
-99T183 -132Q169 -140 150 -144T109 -151Q94 -153 78 -153H66Q44 -152 26 -148Q23 -139 19 -131Q15 -125 15 -116Q15 -113 16 -108Q21 -98 30 -94T49 -85Q73 -93 92 -93Q113 -93 127 -84Q155 -67 169 -31T187 54T193 153T200 248T220 320Q217 331 210 340T197
359T184 378T176 400Q173 421 173 442Q173 460 175 478Q179 518 181 557Q182 568 182 580Q182 606 179 631Q174 666 153 694Q134 719 102 727T33 738Q31 747 30 755V758Q30 764 33 771Q42 795 66 796H70Q92 796 117 787Q143 777 167 761T200 734Q213 707 224 679T247
621Q248 608 248 594Q248 573 246 552Q241 515 239 481Q238 469 238 458Q238 436 241 417Q246 388 267 370Q288 388 324 397Q349 403 374 403H393Q427 399 451 380Q471 362 471 329V320ZM390 340Q381 342 370 343H365Q357 343 349 342Q339 340 331 336T320 323Q327
323 338 322H359Q369 323 377 327T390 340Z" />
<glyph unicode="~" glyph-name="asciitilde" horiz-adv-x="564" d="M589 334Q572 319 554 304T515 277Q477 269 441 269Q412 269 384 275Q322 286 271 310Q251 320 233 329T191 340H183Q166 340 149 337Q128 332 111 321T82 293T68 254Q57 253 49 251Q44 249 38
249Q33 249 27 250Q15 262 15 273L16 274Q16 285 22 296T37 317T47 340Q67 362 95 374T157 392Q173 394 190 394Q207 394 224 392Q259 387 291 374Q294 367 300 364T308 354Q323 350 344 344T389 333T435 326Q445 324 455 324Q467 324 477 326Q496 329 508 339T522
371Q534 378 547 379H551Q561 379 569 376Q578 371 584 361Q589 352 589 338V334Z" />
<glyph unicode="&#xa0;" glyph-name="uni00A0" horiz-adv-x="389" />
<glyph unicode="&#xa1;" glyph-name="exclamdown" horiz-adv-x="197" d="M123 596Q112 597 101 606T83 629Q78 639 78 649V656Q80 670 97 680Q106 683 114 683Q129 683 139 675Q155 662 160 644Q161 638 161 632Q161 620 156 610Q148 596 128 596H123ZM147 28Q147
8 142 -13T127 -46Q119 -58 107 -58H106Q93 -57 80 -32V-26Q80 -19 82 -15Q84 -9 87 -2Q83 22 83 50Q82 59 82 68Q82 87 83 106Q84 134 85 164V175Q85 199 83 222Q81 245 74 270Q67 291 67 311V316Q68 336 74 359Q78 376 78 392Q78 397 77 403Q75 413 72 419Q69
423 69 428Q69 430 70 433Q73 446 81 454T100 466H106Q113 466 121 463Q131 457 137 443Q130 414 130 369V358Q131 305 134 247T142 130T147 28Z" />
<glyph unicode="&#xa2;" glyph-name="cent" horiz-adv-x="415" d="M410 246Q408 218 393 197T353 161T300 140T240 132Q244 124 244 110V104Q243 86 237 72T217 52Q213 51 209 51Q198 51 183 62Q179 79 179 93V103Q179 119 173 136Q120 154 86 190T23 269Q15 301
15 330Q15 337 16 344Q18 379 28 409T55 467T89 517Q119 528 144 543T203 567Q198 582 197 601T183 630Q190 637 194 646T201 662T212 674Q217 677 225 677H230Q245 675 249 664T255 638T257 607T267 580Q307 575 334 558T387 520Q400 494 402 466V458Q402 434
394 413Q385 388 367 370T323 346Q306 347 292 350T260 353Q249 363 245 378Q244 381 244 385Q244 396 253 406Q265 405 274 405Q282 405 289 406T304 408T323 410Q339 425 342 443V451Q342 464 337 476Q329 491 313 502T277 517Q269 518 262 518Q246 518 229 514Q204
508 182 497T141 474T113 453Q105 435 97 417T84 379T77 339V334Q77 315 83 296Q89 273 106 253T147 219T199 196Q221 189 243 189H253Q276 191 299 199T340 222Q345 231 345 239Q345 246 347 253Q354 256 360 259T374 266Q385 262 394 258T410 246Z" />
<glyph unicode="&#xa3;" glyph-name="sterling" horiz-adv-x="561" d="M543 30Q527 14 505 3T461 -9Q450 -8 445 -6T435 0Q427 4 424 6Q420 7 417 7T408 9Q401 11 394 12T380 17Q367 24 356 34T333 55Q321 66 310 76T290 86Q283 86 275 83T259 76Q238 66 228 61T210
49T193 37T175 21Q164 12 155 5T134 -11Q94 6 94 35Q94 45 98 56Q119 67 130 74T147 93Q158 101 167 104T186 112Q201 118 215 124T242 139Q215 179 190 223T147 318Q133 318 116 319H103Q90 319 75 318Q66 318 55 316T32 314Q20 314 11 317T-5 332Q-5 360 15 372Q50
374 79 374Q107 374 133 375Q131 382 131 388T129 402Q127 425 127 447Q127 519 153 567Q187 629 260 644Q271 647 282 648T305 649Q325 649 345 646T386 639L403 636Q419 627 445 607T493 556T526 484Q530 467 530 449Q530 421 520 390Q516 386 512 382Q504 375
499 369T491 350Q483 344 480 342T472 338Q466 334 459 331T441 328L430 330Q420 341 419 351Q418 354 418 357Q418 363 420 369Q423 377 429 384T443 399Q454 410 464 423Q472 433 472 446V451Q469 478 461 498T441 534T416 561T389 582Q368 586 355 588T324 596Q269
590 240 574T200 525Q190 499 189 465V454Q189 424 194 386Q195 383 195 381T196 375Q223 375 253 376T322 382Q333 372 337 353Q338 348 338 344Q338 331 329 321Q289 317 262 316H213Q233 261 264 216T326 146Q337 147 346 147T367 148Q418 148 461 136T535 101Q544
82 545 66V58Q545 45 543 30ZM485 64Q479 66 478 73Q454 80 434 84T395 89Q386 89 382 88Q393 82 405 75Q419 67 433 60T462 52Q472 52 484 57L485 64Z" />
<glyph unicode="&#xa4;" glyph-name="currency" horiz-adv-x="567" d="M539 615Q542 607 542 599Q542 589 538 581Q530 565 518 551T496 520T485 484Q486 461 499 444T525 404Q526 388 526 372Q526 355 525 338Q523 304 517 272T500 210T472 160Q485 143 502 131T535
103Q535 83 529 70Q521 65 511 64T489 60Q475 74 462 88T435 117Q409 99 377 88T309 72Q287 69 263 69Q251 69 238 70Q201 72 168 83Q160 74 154 63T140 41T124 22T101 10Q77 22 77 34Q76 34 76 35Q76 46 85 57Q93 69 104 81Q114 92 114 104V106Q113 120 98 130T71
157Q55 177 44 205T29 267Q26 288 26 310Q26 322 27 335Q29 369 41 401Q51 429 69 451T104 498Q100 509 92 516T77 532T65 551Q63 557 63 566Q63 573 64 581Q75 590 85 590H89Q100 588 109 580T127 561T144 544Q176 563 217 574T299 585Q340 585 377 572T439 531Q456
554 473 575T502 625Q506 626 510 626Q518 626 524 623Q531 618 539 615ZM469 310Q470 322 470 334Q470 368 462 398Q450 439 427 469T370 516Q338 531 300 531H295Q278 530 260 530T228 524Q207 518 185 502T144 464T109 419T88 377Q75 338 75 303Q75 289 77 275Q85
229 112 195T180 142T271 123Q316 123 351 137T412 177T451 237T469 310Z" />
<glyph unicode="&#xa5;" glyph-name="yen" horiz-adv-x="534" d="M508 330V321Q508 306 503 298Q496 288 484 285Q475 282 464 282Q459 282 455 283Q438 284 421 285Q413 286 404 286Q396 286 388 285Q372 284 361 277Q349 282 334 284H326Q315 284 304 280Q301
270 301 260Q301 258 302 257Q302 245 303 234T305 210V202Q305 194 304 186Q323 181 345 180H388Q410 181 433 182H441Q460 182 478 180Q483 171 486 158Q487 153 487 148Q487 141 484 133Q460 129 439 129Q417 129 396 130T354 133Q343 134 331 134Q320 134 307
133Q305 117 305 102V92Q306 71 309 50T314 5T317 -44Q311 -52 302 -54Q295 -57 287 -57Q285 -57 284 -56Q275 -56 267 -53T254 -44Q255 -29 255 -16Q255 -4 254 7Q253 27 252 45T250 84T247 133Q234 137 219 137Q209 137 197 135Q168 131 140 129Q132 128 124
128Q106 128 90 132Q68 138 63 163Q67 165 69 169T73 176Q91 175 110 175Q130 175 152 176Q195 178 240 183Q244 193 244 203V205Q243 216 241 227T238 249V254Q238 262 240 270Q223 273 208 273H196Q175 271 155 269T113 265H107Q89 265 70 270Q70 278 65 288Q62
292 62 295Q62 300 66 303Q80 314 100 316T144 319Q167 319 191 319T237 327Q232 349 223 367T201 402T176 435T150 471Q136 491 128 505T110 541Q100 556 86 561Q85 580 71 596T44 627T27 658Q26 661 26 664Q26 677 40 691Q70 678 93 653T136 597T174 534T213
477Q230 457 248 434T284 390Q299 405 311 422T334 459T354 500T374 541Q393 560 406 583T427 638Q438 649 447 662T474 681Q482 676 489 671T501 658Q486 617 466 581T424 511T381 442T344 367Q336 361 330 353T320 334Q333 330 351 330Q356 330 362 331Q386 332
412 333T464 336H467Q490 336 508 330Z" />
<glyph unicode="&#xa6;" glyph-name="brokenbar" horiz-adv-x="149" d="M107 461Q101 442 99 432T88 406H58Q50 415 48 426T38 448Q43 459 45 475T47 512Q47 531 47 552T46 593Q45 614 39 629Q35 637 35 646Q35 652 37 658Q39 670 46 679T62 691Q65 692 70 692Q74
692 80 691Q89 687 96 673Q98 658 98 638V624Q97 595 96 565V545Q96 525 97 507Q99 479 107 461ZM113 -6Q105 -14 101 -27T89 -49Q84 -50 79 -50Q75 -50 71 -49Q64 -47 59 -43T49 -32T40 -20Q50 24 50 72V92Q47 151 43 214Q47 220 52 226T65 235Q70 237 76 237H79Q86
236 92 228Q99 201 101 171T103 111T105 51T113 -6Z" />
<glyph unicode="&#xa7;" glyph-name="section" horiz-adv-x="413" d="M416 233Q418 222 418 211Q418 183 407 158Q392 122 352 106Q365 94 371 76Q377 58 377 40V37Q376 16 371 -3T356 -38Q336 -48 316 -64T269 -85Q261 -86 251 -86H241Q224 -85 208 -81T176 -72T152
-61Q137 -52 125 -38T105 -5Q99 9 99 25Q99 28 100 32Q101 51 115 69Q121 70 126 70Q132 70 136 69Q144 66 155 66Q155 58 157 53T163 42T167 32V29Q167 25 165 19Q174 0 193 -10T234 -21Q237 -22 241 -22Q259 -22 277 -16Q298 -9 312 6Q313 14 313 22Q313 34 311
44Q306 61 296 74T272 96T242 113Q224 138 202 157T156 195T109 233T68 276Q67 290 58 307T38 337Q36 349 36 359V366Q37 378 38 388T42 411V421Q42 428 41 437Q51 454 62 467T88 494Q73 512 62 535T47 583Q45 592 45 602Q45 616 49 631Q55 654 75 674Q103 702
149 717Q175 725 204 725Q224 725 245 721Q269 709 291 697T331 668T364 630T386 581Q378 570 378 554T376 522T370 493T349 474Q339 476 331 476H328Q326 475 325 475Q318 475 312 477Q308 486 308 495Q308 498 309 502Q311 514 315 526T322 551Q324 557 324 563Q324
570 322 577Q320 584 316 588T308 597T301 607Q299 611 299 617V621Q285 637 266 648T226 665Q213 667 200 667Q191 667 183 666Q161 663 142 651Q106 628 105 605Q104 603 104 601Q104 579 120 559Q136 537 162 516T209 477Q230 457 252 439T292 403Q306 389 312
376T339 357Q346 343 358 330T382 301T403 270T416 233ZM356 180Q352 235 329 272T276 337T212 391T152 450H142Q132 443 126 441T112 434Q99 415 98 391V385Q98 363 105 343Q113 319 128 300T165 273V270Q165 262 169 256Q183 245 201 233T235 210Q245 203 253
195T268 179T282 166T296 159H302Q314 159 325 166Q337 175 356 180Z" />
<glyph unicode="&#xa8;" glyph-name="dieresis" horiz-adv-x="788" d="M503 598V594Q503 577 495 571Q487 563 475 563L474 564Q462 564 450 571T432 589Q428 594 428 600Q428 604 430 608Q433 618 453 625Q465 629 474 629Q484 629 491 624Q502 615 503 598ZM292
615Q312 627 325 627H330Q343 624 348 613Q350 606 350 597V588Q347 573 339 565Q331 557 319 557H317Q303 558 286 578Q285 582 285 585Q285 593 289 598Q292 603 292 611V615Z" />
<glyph unicode="&#xa9;" glyph-name="copyright" horiz-adv-x="560" d="M545 372Q544 364 539 358T531 342Q525 325 520 305T506 271Q486 233 454 207T393 159Q371 153 346 149T294 144Q281 143 268 143Q255 143 242 144Q216 145 194 150Q163 168 135 188T82 232Q57
274 39 323T15 425Q23 457 33 485T54 544Q77 571 98 598T153 645Q186 664 227 671Q252 675 277 675Q293 675 310 674Q351 669 388 654T453 613Q460 601 469 592T487 573T504 552T519 526Q527 505 532 476T540 420Q542 407 544 394Q545 385 545 378V372ZM506 370Q501
391 499 411T495 451T489 487T476 521Q469 533 459 542T439 559T419 577T407 601Q381 615 348 626T279 638H269Q254 638 238 636Q216 633 196 629Q165 611 138 586T91 528T64 455Q59 434 59 410Q59 389 63 365Q76 338 87 310T114 258Q129 250 144 233T178 205Q204
191 229 187Q245 183 266 183Q276 183 286 184Q300 185 316 185Q332 185 343 186Q358 188 370 194T392 207T411 222T432 235Q457 262 473 298T506 370ZM412 351Q412 340 403 327T381 302T353 281T328 267Q308 263 290 263Q279 263 269 264Q241 268 218 281T177
314T151 361Q148 369 146 383T143 415V425Q143 436 144 447Q146 462 151 473Q153 478 160 484T174 498Q179 504 184 511T195 523Q201 529 212 535T234 547T257 557T275 562Q285 563 295 563Q333 563 359 544Q391 520 401 477Q395 472 388 468T369 461Q361 492 338
508Q318 521 290 521H279Q262 519 244 509T212 484T189 449Q181 432 181 415V411Q183 369 208 343T270 306Q277 305 283 305Q297 305 309 309Q324 314 341 319Q350 323 355 332T363 352T372 369T389 377Q397 376 404 368T412 351Z" />
<glyph unicode="&#xaa;" glyph-name="ordfeminine" horiz-adv-x="270" d="M262 243Q254 238 243 235Q236 233 228 233Q222 233 215 234Q208 240 207 253Q206 258 206 264Q206 273 207 283Q178 268 144 264Q131 263 119 263Q98 263 79 267Q49 274 29 292T5 340Q12
354 18 368T30 400Q46 413 66 421T109 431H118Q136 431 154 426Q176 420 196 406Q190 447 168 477Q146 506 112 506H110Q98 505 89 499T70 487Q61 482 53 481Q52 480 50 480Q43 480 34 487Q36 509 46 521T70 542T100 555Q113 558 126 558H132Q155 556 173 543T209
516Q219 507 230 501Q239 473 246 441T258 374T264 307V290Q264 266 262 243ZM199 349Q191 362 170 370T126 381H118Q100 381 85 375Q67 367 67 348V347Q67 332 87 323Q107 314 130 312H139Q157 312 175 318Q196 326 199 349Z" />
<glyph unicode="&#xab;" glyph-name="guillemotleft" horiz-adv-x="423" d="M434 29Q433 16 428 8T417 -8Q412 -9 407 -9Q399 -9 393 -6Q383 -3 370 -1Q358 17 342 32T309 61T273 91T236 126Q229 133 219 145T198 169T180 193T173 212Q173 221 179 228T194 243T212
257T226 269Q249 295 267 324T300 383Q309 383 313 388T323 396Q324 403 327 409T333 421T338 434T340 450Q351 453 362 453H374Q392 450 397 436Q387 400 368 373T328 321T285 271T250 212Q284 168 322 130T410 62Q412 49 420 43T434 29ZM246 35Q248 25 248 16Q248
-1 240 -14Q229 -29 212 -29Q208 -29 203 -28Q191 -26 186 -14T173 9Q158 27 137 47T94 86T52 124T16 156Q15 161 15 165Q15 176 20 183Q25 192 26 206Q51 232 73 261T116 322T156 386T196 450Q204 453 211 453Q219 453 226 450Q241 444 243 430V426Q243 420 237
414Q229 407 223 396Q217 385 209 370T191 339T172 307T153 276Q147 266 139 258T126 243Q116 226 107 208T83 179Q98 161 116 145T153 114T188 82T220 45Q225 42 233 41T246 35Z" />
<glyph unicode="&#xac;" glyph-name="logicalnot" horiz-adv-x="529" d="M514 116Q507 114 506 108T500 96Q495 94 486 93H479Q474 93 469 94Q460 95 453 99T443 113Q442 116 442 118Q442 123 445 128Q447 133 447 140V143Q446 146 442 149T437 156Q437 161 441
166Q443 170 443 174V176Q441 198 439 222T435 270T432 314T430 350Q394 356 357 356Q341 356 325 355Q271 351 218 345T113 335Q92 333 71 333Q40 333 9 337Q5 344 5 353Q5 358 7 364Q11 379 16 387Q106 388 183 393T343 407Q369 410 395 411T437 424Q442 420
452 420Q455 420 458 421H464Q474 421 480 417Q487 411 490 403T500 387Q494 357 493 322V304Q493 277 495 250Q498 214 503 180T514 116Z" />
<glyph unicode="&#xad;" glyph-name="sfthyphen" horiz-adv-x="491" d="M467 295Q420 290 373 290Q349 289 325 289Q302 289 278 290Q231 290 185 292H96Q87 292 75 290T52 288Q41 288 31 291T15 305Q16 334 35 345Q83 348 138 348H248Q303 348 357 349T460 355Q471
346 475 327V318Q475 305 467 295Z" />
<glyph unicode="&#xae;" glyph-name="registered" d="M549 400Q547 368 536 341T519 286Q493 256 463 226T407 176Q393 173 379 168T349 158T319 151Q313 150 308 150Q298 150 288 153Q280 149 273 147Q268 146 262 146H256Q222 148 191 160T132 190T81 229T38
270Q24 306 21 340T15 410Q23 420 23 431V433Q22 434 22 436Q22 446 25 455Q28 473 36 488T54 517T72 546T86 577Q108 604 139 621T203 655Q222 655 234 661T265 669Q281 673 294 673Q303 673 311 671Q330 667 347 660T381 645T419 634Q456 612 483 582T533 515Q537
486 544 459Q549 437 549 414V400ZM510 400Q510 405 508 407T506 414V417Q506 421 508 425Q510 430 510 435Q510 452 503 469T494 506Q481 518 470 534T444 565Q428 581 411 588T371 607Q356 614 345 622T322 632Q311 635 300 635Q289 635 278 632Q255 627 231
625Q204 611 175 599T125 565Q112 546 102 525T75 490Q74 474 67 459T57 423Q54 404 54 385Q54 358 60 333Q70 290 93 265Q116 247 143 233T194 201Q231 190 271 190Q285 190 300 192Q355 197 400 217Q418 235 437 254T472 296T498 344T510 400ZM415 494Q416 485
416 477Q416 461 412 449Q404 429 395 407Q384 399 374 391T346 380Q367 360 383 337T411 284Q409 271 400 266T381 256Q367 261 358 274Q356 299 344 318T311 347T265 360H253Q233 360 211 355Q210 350 210 343Q210 337 211 329Q214 312 215 297V292Q215 279 211
270Q206 261 190 261H184Q172 267 172 278V282Q175 296 175 313Q175 358 171 410Q169 440 169 468Q169 488 170 508V511Q170 515 169 518Q166 521 163 524Q166 529 168 535T172 549Q191 551 207 555Q216 557 226 557Q233 557 241 556Q264 561 287 561H295Q322 560
345 552T387 530T415 494ZM374 460Q376 467 376 473Q376 481 373 488Q368 499 358 506T333 518T303 524Q293 525 283 525Q267 525 251 522Q226 517 209 515Q212 500 212 483Q212 472 211 461Q209 447 209 433Q209 416 211 398Q237 398 264 400T313 409T352 428T374
460Z" />
<glyph unicode="&#xaf;" glyph-name="overscore" horiz-adv-x="788" d="M518 583Q500 572 482 572Q464 572 444 573T403 577T361 580Q349 580 337 579T313 577Q309 576 305 576Q297 576 291 577Q280 578 270 583Q269 588 269 591Q269 606 278 613Q289 622 308
624Q315 625 323 625Q336 625 351 623Q375 620 399 618T446 615Q467 615 481 623Q485 617 496 617Q506 617 511 613Q513 606 517 601Q519 597 519 591Q519 587 518 583Z" />
<glyph unicode="&#xb0;" glyph-name="degree" horiz-adv-x="194" d="M189 602Q187 583 174 567T143 540T105 524Q92 521 81 521Q74 521 68 522Q58 524 48 530T30 544T16 560T8 575Q5 586 5 596Q5 604 7 612Q11 630 22 644T50 669T85 682Q93 683 101 683Q113 683
125 681Q144 676 159 666T183 639Q189 626 189 610V602ZM142 605Q142 623 128 632Q115 639 100 639H97Q79 638 65 627Q52 617 52 598V595Q57 578 72 572Q81 568 91 568Q96 568 102 569Q117 572 129 581T142 605Z" />
<glyph unicode="&#xb1;" glyph-name="plusminus" horiz-adv-x="509" d="M494 375Q487 364 477 357T457 341Q439 347 416 349Q399 350 381 350H369Q344 349 319 347T270 345Q264 321 263 305V294Q263 283 264 272Q266 256 270 238T277 192Q270 185 264 178T250
165H246Q236 165 230 169Q224 172 214 172H210Q208 196 207 215T206 253Q205 259 205 266Q205 279 206 292Q207 312 210 338Q192 341 175 341Q167 341 159 340Q135 338 112 335T66 330Q57 329 48 329Q34 329 19 331V336Q19 344 17 349Q15 353 15 359Q15 363 16
368Q22 373 29 376T39 388Q60 382 81 382Q101 382 122 384T164 388Q175 389 185 389Q196 389 206 388Q208 406 210 420T214 450T216 482Q216 498 213 521Q212 529 209 536Q206 541 206 548V551Q208 561 215 569T233 580Q237 581 241 581Q247 581 252 580Q262 576
270 561Q265 539 265 522Q265 521 266 519Q266 501 268 484T271 446V442Q271 423 267 398Q295 395 321 395Q350 395 378 399Q431 406 484 408Q486 400 486 390T494 375ZM467 60Q420 55 373 55Q349 54 325 54Q302 54 278 55Q231 55 185 57H96Q87 57 75 55T52 53Q41
53 31 56T15 70Q16 99 35 111Q83 113 137 113T248 114Q303 114 357 115T460 121Q471 111 475 92V83Q475 70 467 60Z" />
<glyph unicode="&#xb2;" glyph-name="twosuperior" horiz-adv-x="355" d="M360 291Q352 280 345 268T323 251Q306 258 294 269T269 292T243 314T209 328Q193 316 176 301T138 275T96 259Q89 258 82 258Q65 258 46 265Q36 276 27 284T15 308V311Q15 333 29 349Q43
366 66 376T118 391Q136 393 153 393Q163 393 173 392Q199 427 213 470Q226 509 226 561V569Q212 586 200 595Q189 602 178 602H173Q160 600 152 590T137 567T125 539T112 517T94 508Q84 508 69 522Q69 547 78 574T105 623T148 657Q164 664 183 664Q193 664 203
662Q216 660 227 653T248 637T266 617T283 596Q287 571 287 547Q287 513 279 482Q265 428 239 385Q255 374 272 365T306 345T337 322T360 291ZM132 342Q115 340 99 338T79 321Q82 311 91 310Q93 309 96 309Q102 309 109 313Q118 317 125 325T132 342Z" />
<glyph unicode="&#xb3;" glyph-name="threesuperior" horiz-adv-x="319" d="M272 304Q257 285 235 269T186 244T132 235Q104 235 78 247Q68 252 62 259T49 274T36 289T18 301Q15 313 15 326Q15 338 18 351Q29 358 39 359H44Q52 359 65 357Q82 319 112 301Q127
291 144 291Q162 291 182 301Q191 305 201 314T220 335T233 358T239 381Q239 389 237 394T231 405T225 416T222 431Q204 428 182 424Q164 421 148 421H141Q122 422 110 431Q98 439 98 461V464Q114 468 138 481T183 513T217 554Q226 569 226 584Q226 589 225 595Q221
611 205 615Q201 616 197 616Q186 616 178 610Q166 601 159 589T147 562T142 538Q128 530 116 530Q111 530 107 531Q91 535 85 555Q89 586 105 612T144 654T196 673H203Q229 673 255 658Q274 643 281 621Q285 605 285 589Q285 582 284 574Q281 550 271 528T245
491Q297 453 303 402V389Q303 345 272 304Z" />
<glyph unicode="&#xb4;" glyph-name="acute" horiz-adv-x="788" d="M481 660Q460 617 427 588T360 527Q349 524 336 521Q331 519 326 519Q318 519 310 523Q308 530 308 537Q308 545 312 552Q319 562 331 568T356 581T377 597Q392 617 409 633T440 670Q449 674
458 674Q461 674 465 673Q476 671 481 660Z" />
<glyph unicode="&#xb5;" glyph-name="mu" horiz-adv-x="465" d="M470 343Q470 280 458 215T416 97T335 14Q292 -12 231 -12Q219 -12 206 -11Q183 2 159 13T113 39Q114 -12 115 -65T133 -168Q127 -173 125 -182T122 -202T119 -222T109 -235Q92 -236 85 -236L84
-237Q77 -237 66 -232Q61 -162 58 -84T53 75T49 233T46 380Q45 400 40 419Q36 434 36 448V453Q36 470 39 494T50 535T71 555H73Q85 555 103 534Q104 527 104 521Q104 512 102 504Q99 493 99 480V473Q100 466 104 460T109 447V413Q107 395 105 378T102 343V332Q102
321 103 310Q105 294 112 280T119 249V241Q119 231 118 220Q115 205 114 190Q112 178 112 167Q112 163 113 159Q113 144 119 129Q125 116 137 105T163 83T193 64T220 46H233Q256 46 276 52Q301 59 321 73T356 108T384 149Q389 176 394 202T414 249Q411 278 411
310T409 374T402 436T387 493V496Q387 501 391 504Q395 505 395 511Q395 514 394 517Q403 521 413 524T434 530Q448 516 452 491T458 439T460 386T470 343Z" />
<glyph unicode="&#xb6;" glyph-name="paragraph" horiz-adv-x="652" d="M657 609Q648 587 632 584Q625 582 618 582Q607 582 595 586Q575 591 554 599T514 609Q507 593 500 576T490 539Q490 535 493 530T497 519Q496 494 496 465V437Q497 392 500 347T510 257T524
174Q534 120 539 78T560 -6Q557 -16 550 -23T532 -33Q525 -35 518 -35Q514 -35 511 -34Q499 -33 490 -26Q489 49 477 128T453 288T440 453Q439 462 439 471Q439 545 457 619Q418 625 373 626H363Q324 626 293 619Q306 576 312 529T321 433T327 332T333 231Q334
220 335 211T347 191Q342 179 338 163T330 127T326 87T323 47Q323 38 327 30Q330 23 330 17V14Q329 8 326 -2T317 -22T305 -39T290 -46Q274 -46 268 -35Q263 -26 263 -11V-6Q264 12 268 34T277 78T283 119Q284 124 284 128Q284 140 280 148Q234 159 194 175T121
215T64 271T26 345Q28 369 31 392T39 448Q50 475 61 502T86 554T117 600T159 636Q166 640 174 642T189 646T204 653T216 666Q270 672 327 681Q357 686 389 686Q417 686 447 682Q469 679 491 673T534 661T575 651Q588 648 601 648Q608 648 614 649Q625 638 638 632T657
609ZM283 218V243Q283 330 277 416Q270 513 250 612Q220 604 202 590T159 569Q143 544 126 516T97 458T82 397Q81 390 81 382Q81 359 89 335Q96 314 110 299T141 271T177 247T216 224Q222 225 226 225Q231 225 236 224Q244 222 251 219T267 215Q268 214 270 214Q276
214 283 218Z" />
<glyph unicode="&#xb7;" glyph-name="middot" horiz-adv-x="141" d="M116 336Q112 328 112 315Q112 309 113 303Q102 291 82 285Q73 282 63 282Q52 282 39 286Q38 294 34 299T26 309Q26 326 36 337T62 354Q69 356 77 356Q84 356 92 354Q107 350 116 336Z" />
<glyph unicode="&#xb8;" glyph-name="cedilla" horiz-adv-x="788" d="M490 -60Q490 -89 474 -109T433 -138Q411 -147 388 -147Q384 -147 380 -146Q352 -145 329 -130Q328 -121 325 -114T320 -99Q319 -95 319 -91V-86Q320 -80 326 -73Q333 -70 338 -70Q341 -70
344 -71Q352 -73 359 -78T372 -90T383 -103Q399 -100 405 -99T426 -93Q433 -86 436 -75Q438 -67 438 -58V-53Q437 -42 433 -31T423 -13H412Q401 -13 392 -14Q378 -16 366 -20T342 -30T316 -40Q309 -37 307 -31T299 -20Q318 12 340 39T383 97Q389 98 393 98Q407
98 413 91V85Q413 69 408 59Q402 46 396 34Q420 34 437 26T466 5T484 -26T490 -60Z" />
<glyph unicode="&#xb9;" glyph-name="onesuperior" horiz-adv-x="206" d="M175 642Q176 617 176 593Q176 570 175 548Q173 503 171 460T166 373Q164 349 164 323Q164 302 165 281Q158 273 154 264T138 251Q129 254 121 257T104 265Q96 287 96 312V323Q98 354 103
388T112 458Q113 470 113 481Q113 504 108 525H103Q94 525 82 519Q67 511 51 509Q26 523 26 535Q26 546 38 555T69 570T101 582V592Q101 608 105 623Q111 642 122 654Q131 664 144 664H146Q160 663 175 642Z" />
<glyph unicode="&#xba;" glyph-name="ordmasculine" horiz-adv-x="325" d="M319 397Q316 365 294 337T241 290T176 262Q155 257 136 257Q124 257 113 259Q96 262 79 273T48 298T24 326T10 351Q5 368 5 386Q5 400 9 414Q16 445 35 470T82 512T142 534Q156 536 169
536Q189 536 209 532Q242 524 267 506T308 461Q320 438 320 409Q320 403 319 397ZM261 403V406Q261 429 247 445Q232 462 210 470Q191 477 170 477H162Q135 475 113 464T77 433Q63 413 63 385V381Q70 356 87 342T127 324Q138 322 149 322Q161 322 173 324Q196 328
215 339T247 366T261 403Z" />
<glyph unicode="&#xbb;" glyph-name="guillemotright" horiz-adv-x="430" d="M414 203Q385 183 365 157T327 100T293 39T257 -21Q246 -28 237 -28Q230 -28 225 -25Q210 -17 204 -1Q201 7 201 15Q201 22 204 30Q209 46 230 49Q255 99 286 141T344 233Q334 249 321
265T292 298T262 332T233 367Q227 375 219 383T203 400T191 415T186 430Q188 447 204 455Q214 459 225 459Q232 459 240 457Q270 399 314 357T407 273Q410 258 413 237Q415 224 415 214Q415 208 414 203ZM223 226Q222 212 208 202T180 173Q172 162 169 148T160
129Q151 121 140 113Q130 105 130 88V82Q112 73 100 59T78 29T59 -4T36 -35Q9 -34 -1 -25Q-10 -18 -10 -6V-4Q-9 9 0 25T21 58T46 88T66 112Q75 123 81 135T93 156Q104 169 119 188T143 223Q130 254 110 277T70 323T32 372T6 433Q13 445 27 448Q32 449 39 449Q47
449 56 447Q70 418 92 390T136 336Q144 328 150 320T163 303Q166 299 173 298T183 293Q184 292 184 290Q184 289 183 287Q182 284 182 283Q182 281 183 280Q187 272 194 266T207 254T218 242T223 226Z" />
<glyph unicode="&#xbc;" glyph-name="onequarter" horiz-adv-x="689" d="M683 161V152Q683 139 679 131Q672 121 661 117Q651 113 639 113Q638 113 636 114H609Q608 109 608 103Q608 89 612 72Q616 46 617 22V19Q617 -4 609 -21Q601 -39 573 -40Q555 -25 551 -7Q546
8 546 25Q546 27 547 29Q547 48 548 69V71Q548 91 539 111Q531 112 523 112Q499 112 477 107Q446 101 417 96Q392 91 370 91H362Q335 92 312 107Q314 122 318 134T332 154Q338 155 343 158Q345 159 349 159Q351 159 355 158Q388 183 414 216T461 289T497 370T522
455Q533 466 543 466Q552 466 560 462T578 451T599 442Q596 412 596 384Q596 380 597 375Q597 343 598 311T602 245Q603 222 603 198V174Q610 171 618 171H622Q632 172 643 174H652Q658 174 664 173Q674 171 683 161ZM543 168Q542 179 542 191V202Q543 213 543
224V235Q542 250 540 263T529 288Q510 256 489 227T449 164Q462 161 477 161Q486 161 496 162Q522 165 543 168ZM486 666Q481 643 472 625T451 589T431 553T416 512Q399 491 387 467T363 416T340 365T312 318Q306 287 288 268Q258 195 225 126T151 -6Q141 -10 133
-10Q121 -10 114 -2Q102 11 95 27Q103 39 109 51T128 71Q168 151 208 229T285 392Q308 410 312 442Q319 448 326 454T339 469Q345 499 356 523T381 571T406 619T426 672Q437 675 450 681Q456 684 461 684Q469 684 476 679Q478 676 479 672T486 666ZM185 659Q186
634 186 610Q186 587 185 565Q183 520 181 477T176 390Q175 361 175 330V298Q168 290 164 281T148 268Q139 270 131 273T115 281Q107 303 107 328V339Q109 371 113 405T122 474Q123 486 123 497Q123 520 118 542H114Q104 542 92 536Q77 527 61 525Q36 539 36 551Q36
562 48 571T79 587T111 599V609Q111 625 115 640Q121 659 132 671Q141 681 154 681H156Q170 680 185 659Z" />
<glyph unicode="&#xbd;" glyph-name="onehalf" horiz-adv-x="682" d="M666 22Q658 11 651 -1T629 -18Q612 -11 600 0T575 23T549 45T516 59Q499 47 482 32T444 5T402 -10Q395 -11 387 -11Q371 -11 352 -5Q342 7 333 15T322 39V45Q322 65 335 80Q349 97 372 107T424
121Q440 123 456 123Q467 123 479 122Q505 157 519 200T533 300Q507 333 483 333H479Q466 331 458 321T444 298T431 270T418 248T400 239Q390 239 375 253Q375 278 385 305T412 354T455 388Q471 395 489 395Q499 395 509 393Q535 388 554 368T589 326Q593 300 593
276Q593 243 586 213Q572 159 546 116Q561 105 578 96T612 76T643 53T666 22ZM439 72Q422 71 406 69T385 52Q388 41 397 40H401Q408 40 416 43Q425 47 432 55T439 72ZM486 651Q481 627 472 609T451 573T431 538T416 497Q399 476 387 452T363 401T340 350T312 303Q306
273 288 253Q258 180 225 111T151 -21Q141 -25 133 -25Q121 -25 114 -17Q102 -4 95 12Q103 23 109 36T128 56Q168 136 208 214T285 376Q296 385 303 397T312 427Q319 433 326 439T339 453Q345 483 356 508T381 556T406 604T426 657Q437 660 450 666Q456 669 461
669Q469 669 476 664Q478 660 479 656T486 651ZM185 644Q186 619 186 595Q186 571 185 549Q183 504 181 461T176 375Q175 346 175 315V283Q168 275 164 266T148 253Q139 255 131 258T115 266Q107 288 107 313V324Q109 356 113 390T122 459Q123 471 123 482Q123
505 118 527H114Q104 527 92 521Q77 512 61 510Q36 524 36 536Q36 547 48 556T79 572T111 584V594Q111 610 115 625Q121 644 132 655Q141 665 154 665H156Q170 664 185 644Z" />
<glyph unicode="&#xbe;" glyph-name="threequarters" horiz-adv-x="813" d="M787 161Q788 155 788 149Q788 138 784 131Q777 121 766 117Q756 113 744 113Q743 113 741 114H714Q713 108 713 102Q713 88 716 72Q720 46 721 22V17Q721 -4 714 -20Q705 -39 677 -40Q659
-25 655 -7Q650 8 650 25Q650 27 651 29Q651 48 652 69V71Q652 91 643 111Q635 112 627 112Q603 112 581 107Q550 101 521 96Q495 91 470 91Q468 91 466 92Q439 92 416 108Q418 122 423 134T436 154Q442 155 447 158Q450 159 454 159Q456 159 460 158Q525 209 565
289T627 455Q638 466 647 466Q656 466 665 462T683 451T704 442Q701 407 701 375Q701 343 702 311T706 245Q707 222 707 198V174Q714 171 722 171H726Q736 172 747 174H756Q762 174 768 173Q778 171 787 161ZM647 168Q646 179 646 191V202Q647 219 647 235Q647
250 644 263T633 288Q614 256 593 227T553 164Q566 161 581 161Q590 161 600 162Q626 165 647 168ZM590 666Q585 643 576 625T555 589T535 554T520 512Q503 491 491 467T468 416T444 365T416 318Q401 273 381 233T339 151Q319 111 301 70T256 -6Q246 -10 238 -10Q226
-10 219 -2Q206 11 199 27Q239 82 274 152T343 291Q361 329 379 366T416 445Q428 471 444 498T476 553T506 611T530 673Q541 676 557 682Q562 683 567 683Q576 683 583 676Q583 668 590 666ZM282 291Q267 272 245 256T197 231T142 222Q114 222 89 235Q79 240 72
247T59 262T46 277T28 288Q26 301 26 313Q26 326 28 338Q39 345 49 347H56Q64 347 75 345Q92 307 122 288Q137 279 155 279Q172 279 192 288Q201 292 211 301T230 322T243 346T249 368Q249 377 247 382T241 393T235 403T232 418Q214 416 192 412Q174 409 158 409H151Q132
410 120 419Q109 427 109 446V452Q125 456 149 469T194 501T228 541Q237 556 237 571Q237 576 236 582Q234 591 228 596T216 602Q212 603 208 603Q197 603 189 597Q177 589 170 576T158 549T152 525Q138 518 125 518Q121 518 117 519Q101 522 95 542Q99 573 115
599T154 641T206 660H214Q239 660 266 646Q285 631 291 609Q295 594 295 578Q295 570 294 562Q291 538 281 516T256 479Q307 440 313 390V376Q313 333 282 291Z" />
<glyph unicode="&#xbf;" glyph-name="questiondown" horiz-adv-x="428" d="M270 615Q257 610 240 610Q236 610 232 611Q209 612 191 622T167 651Q165 656 165 662Q165 678 177 699Q195 707 212 707H221Q243 704 258 692T278 660Q279 655 279 649Q279 633 270 615ZM387
358Q379 346 371 335T354 311Q333 303 312 292T268 271T222 254T173 247Q153 237 134 227T98 203T66 174T43 137Q42 126 42 117Q42 105 44 96Q47 77 54 61T71 31T90 3Q117 -14 150 -16Q158 -17 167 -17Q190 -17 214 -12Q245 -5 273 9T320 40Q321 54 324 62T330
76T336 88Q337 92 337 99V104Q336 119 328 128T312 145T299 164Q297 168 297 174Q297 181 300 190Q308 195 321 201Q331 205 337 205Q339 205 341 204Q367 194 379 170T392 115V109Q392 82 385 56Q376 26 361 7Q334 -13 294 -32T210 -61Q184 -66 157 -66Q140 -66
123 -64Q79 -58 46 -27Q28 -10 16 7T-4 43T-15 86T-20 140Q-15 155 -10 166T2 187T16 206T33 227Q45 243 65 255T108 278T157 296T207 311Q240 320 271 332T314 358Q327 376 327 393V400Q324 420 309 436T271 460Q254 466 237 466Q231 466 224 465Q214 458 210
447T193 431Q162 432 150 455V459Q150 473 157 483Q165 493 177 499T203 509T227 515Q241 517 254 517Q278 517 300 511Q332 501 354 480T385 428Q390 411 390 391Q390 375 387 358Z" />
<glyph unicode="&#xc0;" glyph-name="Agrave" horiz-adv-x="786" d="M784 303Q787 297 787 291Q787 286 785 281Q780 269 771 260Q764 259 759 259Q751 259 746 261Q735 263 727 267T709 275T688 280Q680 239 675 201T663 126T646 54T617 -14Q612 -11 607 -11Q603
-11 600 -12Q596 -14 592 -14Q587 -14 581 -11Q571 0 571 12V15Q572 28 578 42T592 72T604 103Q614 148 617 194T627 280Q587 285 545 285Q531 285 516 284Q458 282 399 275T283 255T173 227Q177 188 182 155T199 83Q203 69 210 53T222 24Q223 18 223 13Q223 6
220 0Q215 -10 196 -11H193Q184 -11 177 -5Q169 2 164 12T157 36Q156 44 156 51V59Q147 74 141 92T130 131T123 171T119 210Q95 202 73 193T32 170Q11 179 7 189Q5 192 5 196Q5 202 9 208Q15 217 29 225T59 241T90 255T113 267Q111 288 111 308Q111 348 118 387Q128
445 149 497T202 594T270 678Q294 702 321 716T381 738T450 748H530Q572 716 599 672T644 575T670 464T684 344Q694 336 708 333T737 327T765 319T784 303ZM621 337Q625 352 625 367V374Q624 392 621 410T612 447T604 484Q603 489 603 494Q603 499 604 504Q605
509 605 514Q605 519 604 524Q597 556 585 587T553 644T508 684Q483 698 451 698H447Q390 696 344 666T263 598Q244 566 225 533T192 461T171 378Q167 352 167 324Q167 304 169 283Q229 296 284 306T393 324T504 335Q548 337 594 337H621ZM477 845Q465 833 453
833Q452 833 452 834Q438 834 424 841T396 861T370 886Q358 897 342 911T318 940Q312 948 312 957Q312 961 314 965Q318 977 347 983Q354 971 364 961T385 942T406 922T424 899Q430 892 438 888T455 878T469 865T477 845Z" />
<glyph unicode="&#xc1;" glyph-name="Aacute" horiz-adv-x="786" d="M784 303Q787 297 787 291Q787 286 785 281Q780 269 771 260Q764 259 759 259Q751 259 746 261Q735 263 727 267T709 275T688 280Q680 239 675 201T663 126T646 54T617 -14Q612 -11 607 -11Q603
-11 600 -12Q596 -14 592 -14Q587 -14 581 -11Q571 0 571 12V15Q572 28 578 42T592 72T604 103Q614 148 617 194T627 280Q587 285 545 285Q531 285 516 284Q458 282 399 275T283 255T173 227Q177 188 182 155T199 83Q203 69 210 53T222 24Q223 18 223 13Q223 6
220 0Q215 -10 196 -11H193Q184 -11 177 -5Q169 2 164 12T157 36Q156 44 156 51V59Q147 74 141 92T130 131T123 171T119 210Q95 202 73 193T32 170Q11 179 7 189Q5 192 5 196Q5 202 9 208Q15 217 29 225T59 241T90 255T113 267Q111 288 111 308Q111 348 118 387Q128
445 149 497T202 594T270 678Q294 702 321 716T381 738T450 748H530Q572 716 599 672T644 575T670 464T684 344Q694 336 708 333T737 327T765 319T784 303ZM621 337Q625 352 625 367V374Q624 392 621 410T612 447T604 484Q603 489 603 494Q603 499 604 504Q605
509 605 514Q605 519 604 524Q597 556 585 587T553 644T508 684Q483 698 451 698H447Q390 696 344 666T263 598Q244 566 225 533T192 461T171 378Q167 352 167 324Q167 304 169 283Q229 296 284 306T393 324T504 335Q548 337 594 337H621ZM563 967Q542 924 509
895T442 834Q431 831 418 828Q413 826 408 826Q400 826 392 830Q390 837 390 844Q390 852 394 859Q401 869 413 875T438 888T459 904Q474 924 491 940T522 977Q531 981 540 981Q543 981 547 980Q558 978 563 967Z" />
<glyph unicode="&#xc2;" glyph-name="Acircumflex" horiz-adv-x="786" d="M784 303Q787 297 787 291Q787 286 785 281Q780 269 771 260Q764 259 759 259Q751 259 746 261Q735 263 727 267T709 275T688 280Q680 239 675 201T663 126T646 54T617 -14Q612 -11 607
-11Q603 -11 600 -12Q596 -14 592 -14Q587 -14 581 -11Q571 0 571 12V15Q572 28 578 42T592 72T604 103Q614 148 617 194T627 280Q587 285 545 285Q531 285 516 284Q458 282 399 275T283 255T173 227Q177 188 182 155T199 83Q203 69 210 53T222 24Q223 18 223 13Q223
6 220 0Q215 -10 196 -11H193Q184 -11 177 -5Q169 2 164 12T157 36Q156 44 156 51V59Q147 74 141 92T130 131T123 171T119 210Q95 202 73 193T32 170Q11 179 7 189Q5 192 5 196Q5 202 9 208Q15 217 29 225T59 241T90 255T113 267Q111 288 111 308Q111 348 118 387Q128
445 149 497T202 594T270 678Q294 702 321 716T381 738T450 748H530Q572 716 599 672T644 575T670 464T684 344Q694 336 708 333T737 327T765 319T784 303ZM621 337Q625 352 625 367V374Q624 392 621 410T612 447T604 484Q603 489 603 494Q603 499 604 504Q605
509 605 514Q605 519 604 524Q597 556 585 587T553 644T508 684Q483 698 451 698H447Q390 696 344 666T263 598Q244 566 225 533T192 461T171 378Q167 352 167 324Q167 304 169 283Q229 296 284 306T393 324T504 335Q548 337 594 337H621ZM567 829Q552 820 540
820Q533 820 526 824Q509 833 495 852T469 893T444 929Q430 922 420 902T400 865T376 840Q372 837 368 837Q358 837 343 852Q363 892 388 925T434 999H439Q451 999 459 992Q469 983 476 970T490 941T504 916Q520 892 536 880T567 852V829Z" />
<glyph unicode="&#xc3;" glyph-name="Atilde" horiz-adv-x="786" d="M784 303Q787 297 787 291Q787 286 785 281Q780 269 771 260Q764 259 759 259Q751 259 746 261Q735 263 727 267T709 275T688 280Q680 239 675 201T663 126T646 54T617 -14Q612 -11 607 -11Q603
-11 600 -12Q596 -14 592 -14Q587 -14 581 -11Q571 0 571 12V15Q572 28 578 42T592 72T604 103Q614 148 617 194T627 280Q587 285 545 285Q531 285 516 284Q458 282 399 275T283 255T173 227Q177 188 182 155T199 83Q203 69 210 53T222 24Q223 18 223 13Q223 6
220 0Q215 -10 196 -11H193Q184 -11 177 -5Q169 2 164 12T157 36Q156 44 156 51V59Q147 74 141 92T130 131T123 171T119 210Q95 202 73 193T32 170Q11 179 7 189Q5 192 5 196Q5 202 9 208Q15 217 29 225T59 241T90 255T113 267Q111 288 111 308Q111 348 118 387Q128
445 149 497T202 594T270 678Q294 702 321 716T381 738T450 748H530Q572 716 599 672T644 575T670 464T684 344Q694 336 708 333T737 327T765 319T784 303ZM621 337Q625 352 625 367V374Q624 392 621 410T612 447T604 484Q603 489 603 494Q603 499 604 504Q605
509 605 514Q605 519 604 524Q597 556 585 587T553 644T508 684Q483 698 451 698H447Q390 696 344 666T263 598Q244 566 225 533T192 461T171 378Q167 352 167 324Q167 304 169 283Q229 296 284 306T393 324T504 335Q548 337 594 337H621ZM597 922Q599 916 599
910Q599 906 598 903Q596 893 593 884T585 866T577 849Q542 834 509 834Q507 833 505 833Q474 833 446 842Q415 850 387 864T333 892H323Q296 892 282 877Q273 867 273 854Q273 842 279 829Q271 825 263 821Q257 818 247 818H242Q229 836 229 855Q229 863 232 871Q239
898 256 915Q270 920 283 926T309 939H313Q331 939 353 931Q376 921 400 910T449 888T494 876Q496 875 499 875Q516 875 531 885Q547 895 557 925Q568 925 576 923Q580 921 586 921Q591 921 597 922Z" />
<glyph unicode="&#xc4;" glyph-name="Adieresis" horiz-adv-x="786" d="M784 303Q787 297 787 291Q787 286 785 281Q780 269 771 260Q764 259 759 259Q751 259 746 261Q735 263 727 267T709 275T688 280Q680 239 675 201T663 126T646 54T617 -14Q612 -11 607 -11Q603
-11 600 -12Q596 -14 592 -14Q587 -14 581 -11Q571 0 571 12V15Q572 28 578 42T592 72T604 103Q614 148 617 194T627 280Q587 285 545 285Q531 285 516 284Q458 282 399 275T283 255T173 227Q177 188 182 155T199 83Q203 69 210 53T222 24Q223 18 223 13Q223 6
220 0Q215 -10 196 -11H193Q184 -11 177 -5Q169 2 164 12T157 36Q156 44 156 51V59Q147 74 141 92T130 131T123 171T119 210Q95 202 73 193T32 170Q11 179 7 189Q5 192 5 196Q5 202 9 208Q15 217 29 225T59 241T90 255T113 267Q111 288 111 308Q111 348 118 387Q128
445 149 497T202 594T270 678Q294 702 321 716T381 738T450 748H530Q572 716 599 672T644 575T670 464T684 344Q694 336 708 333T737 327T765 319T784 303ZM621 337Q625 352 625 367V374Q624 392 621 410T612 447T604 484Q603 489 603 494Q603 499 604 504Q605
509 605 514Q605 519 604 524Q597 556 585 587T553 644T508 684Q483 698 451 698H447Q390 696 344 666T263 598Q244 566 225 533T192 461T171 378Q167 352 167 324Q167 304 169 283Q229 296 284 306T393 324T504 335Q548 337 594 337H621ZM523 864V860Q523 843
515 837Q507 829 495 829L494 830Q482 830 470 837T452 855Q448 860 448 866Q448 870 450 874Q453 884 473 891Q485 895 494 895Q504 895 511 890Q522 881 523 864ZM312 881Q332 893 345 893H350Q363 890 368 879Q370 872 370 863V854Q367 839 359 831Q351 823
339 823H337Q323 824 306 844Q305 848 305 851Q305 859 309 864Q312 869 312 877V881Z" />
<glyph unicode="&#xc5;" glyph-name="Aring" horiz-adv-x="786" d="M784 303Q787 297 787 291Q787 286 785 281Q780 269 771 260Q764 259 759 259Q751 259 746 261Q735 263 727 267T709 275T688 280Q680 239 675 201T663 126T646 54T617 -14Q612 -11 607 -11Q603
-11 600 -12Q596 -14 592 -14Q587 -14 581 -11Q571 0 571 12V15Q572 28 578 42T592 72T604 103Q614 148 617 194T627 280Q587 285 545 285Q531 285 516 284Q458 282 399 275T283 255T173 227Q177 188 182 155T199 83Q203 69 210 53T222 24Q223 18 223 13Q223 6
220 0Q215 -10 196 -11H193Q184 -11 177 -5Q169 2 164 12T157 36Q156 44 156 51V59Q147 74 141 92T130 131T123 171T119 210Q95 202 73 193T32 170Q11 179 7 189Q5 192 5 196Q5 202 9 208Q15 217 29 225T59 241T90 255T113 267Q111 288 111 308Q111 348 118 387Q128
445 149 497T202 594T270 678Q295 704 323 718T387 740Q369 748 354 763T336 790Q333 801 333 811Q333 819 335 827Q339 845 350 859T377 884T413 897Q421 898 429 898Q441 898 452 896Q471 891 486 881T510 854Q517 840 517 821V817Q515 795 498 777T459 748Q476
749 493 749Q511 749 530 748Q572 716 599 672T644 575T670 464T684 344Q694 336 708 333T737 327T765 319T784 303ZM470 820Q470 838 456 847Q443 854 428 854H425Q407 853 393 842Q380 832 380 813V810Q385 793 400 787Q409 783 419 783Q424 783 430 784Q445
787 457 796T470 820ZM621 337Q625 352 625 367V374Q624 392 621 410T612 447T604 484Q603 489 603 494Q603 499 604 504Q605 509 605 514Q605 519 604 524Q597 556 585 587T553 644T508 684Q483 698 451 698H447Q390 696 344 666T263 598Q244 566 225 533T192
461T171 378Q167 352 167 324Q167 304 169 283Q229 296 284 306T393 324T504 335Q548 337 594 337H621Z" />
<glyph unicode="&#xc6;" glyph-name="AE" horiz-adv-x="1276" d="M1285 352Q1286 347 1286 342Q1286 329 1276 319Q1261 305 1239 296T1192 279T1155 262Q1066 251 974 245Q912 241 849 241Q818 241 787 242Q787 209 785 181T781 125T777 71Q776 59 776 47Q776
32 777 15Q802 14 823 14H845Q875 15 903 17T960 22T1018 28Q1035 32 1050 38T1080 51T1111 61T1148 68Q1157 59 1158 49V44Q1158 36 1155 28Q1151 18 1144 10T1128 -2Q1040 -22 939 -36Q868 -47 788 -47Q755 -47 720 -45Q708 -38 705 -29Q703 -24 703 -18Q703
-14 704 -9Q706 1 710 13T717 38Q724 76 724 119V135Q723 157 723 179Q723 209 724 239Q649 234 574 228T427 209T289 178T166 128Q171 77 178 29T206 -62Q205 -73 198 -80T181 -89Q177 -91 174 -91Q168 -91 163 -88Q154 -85 149 -75Q146 -72 146 -68Q146 -65 147
-62Q150 -54 152 -49Q141 -36 137 -18T130 20T124 58T112 88Q98 87 85 76T58 56T31 46Q30 45 29 45Q17 45 5 62Q12 79 24 91T50 113T81 131T112 148Q112 173 116 196T126 241T139 285T152 332Q158 355 159 379T172 426Q182 445 189 460T204 488T220 514T239 540Q266
574 297 612T366 673Q379 681 400 687T445 696T493 702Q509 703 523 703H537Q563 702 590 696T642 676T687 644T720 600Q740 597 761 597Q777 597 794 599Q832 603 871 610T948 625T1025 640Q1032 648 1043 652T1065 661T1088 669T1108 680Q1139 666 1139 653V652Q1137
638 1119 627T1076 607T1035 593Q976 580 904 567T757 546Q766 522 772 492T782 430T787 365Q788 349 788 333Q788 317 787 302Q846 300 902 299Q918 298 935 298Q973 298 1011 301Q1064 304 1114 313T1215 342Q1218 353 1228 360T1251 370Q1254 371 1258 371Q1265
371 1272 368Q1282 364 1285 352ZM731 299V312Q731 352 726 397Q720 449 705 496T663 582T600 637Q566 652 529 654H517Q486 654 458 648Q423 640 394 625T346 593Q310 559 281 515T229 419T192 310T172 195Q181 196 194 198T220 204T245 213T266 225Q317 239 374
250T490 270T610 286T731 299Z" />
<glyph unicode="&#xc7;" glyph-name="Ccedilla" horiz-adv-x="780" d="M744 526Q744 498 726 471T688 429Q668 415 647 409T601 389Q579 391 564 397T527 406Q518 420 502 427T474 446Q472 460 470 474T468 501Q468 514 471 525T484 546H514Q525 532 527 518Q528
511 528 501Q528 492 527 479Q540 469 555 458T591 446Q596 446 611 452T643 467T674 488T691 510Q692 516 692 521V527Q691 534 689 541T685 556Q684 561 684 566V573Q673 578 664 588T645 609T625 630T601 647Q593 650 581 650Q568 650 557 653Q543 658 531 665T507
673Q499 674 491 674Q479 674 468 672Q449 669 431 665T393 657T353 653Q335 642 316 633T276 615T237 594T200 566Q174 544 154 513T120 445T97 372T89 299Q89 253 105 222T143 159Q154 142 164 128T188 103T217 83T256 65Q302 49 356 44Q388 41 420 41Q442 41
465 43Q519 46 571 57T664 85Q672 91 676 100T688 115Q696 116 703 118Q707 119 711 119Q716 119 721 118Q731 107 733 92V85Q733 74 728 62Q704 48 674 37T611 15T543 -3T474 -19Q453 -31 447 -59Q454 -61 460 -61Q466 -61 471 -61T483 -60Q489 -60 497 -62Q534
-71 550 -98Q563 -122 563 -149V-156Q561 -188 544 -217T497 -259Q471 -262 449 -265T400 -273Q388 -268 375 -261T352 -243T340 -220Q339 -217 339 -215Q339 -204 347 -192Q355 -190 364 -190Q374 -190 384 -193Q402 -198 413 -209H421Q439 -209 457 -201Q479
-192 491 -177Q501 -165 501 -151V-147Q499 -131 474 -119Q457 -119 445 -123T422 -132T400 -143T373 -149Q357 -134 357 -120Q357 -119 358 -117Q359 -102 368 -86T387 -54T400 -22Q365 -8 324 -2T240 11Q184 33 141 71T71 163T38 283Q36 300 36 319Q36 369 49
426Q65 461 83 494T124 558T175 614T240 660Q282 683 328 697T434 723Q455 727 475 727H491Q518 724 543 718T593 703T644 687Q661 670 679 652T711 615T736 573Q744 553 744 531V526Z" />
<glyph unicode="&#xc8;" glyph-name="Egrave" horiz-adv-x="554" d="M528 10Q503 0 477 -14T422 -40T362 -58Q344 -62 325 -62Q310 -62 294 -60Q244 -53 204 -30T127 16Q116 36 102 51T74 83Q62 118 53 153Q46 178 46 203Q46 213 47 224Q50 251 59 273T81 316T107
354T131 391Q101 425 93 465Q89 483 89 501Q89 522 94 542Q103 579 127 611T187 662Q230 685 282 691T385 702Q403 689 424 679T465 657T501 630T525 591Q512 575 499 575Q496 575 492 577Q475 582 456 597T414 628T365 648Q354 649 343 649Q321 649 299 645Q265
637 235 622T181 584T148 536Q141 519 141 502Q141 493 143 483Q149 455 177 428Q204 436 231 447T286 465T343 473Q371 473 401 458Q408 449 415 440T428 421T437 401V392Q437 385 435 377Q427 351 394 340T321 327H313Q277 327 243 335Q204 343 184 357Q169 337
152 317T122 275T103 226Q100 214 100 201Q100 185 104 167Q113 123 145 85T224 23T323 -5Q330 -6 338 -6Q383 -6 425 16Q433 20 441 28T459 44T477 57T495 63Q518 63 523 48T528 10ZM381 387Q375 406 358 413Q344 418 328 418H321Q300 416 281 408T251 391Q277
382 315 381H324Q356 381 381 387ZM396 794Q384 782 372 782Q371 782 371 783Q357 783 343 790T315 810T289 835Q277 846 261 860T237 889Q231 897 231 906Q231 910 233 914Q237 926 266 932Q273 920 283 910T304 891T325 871T343 848Q349 841 357 837T374 827T388
814T396 794Z" />
<glyph unicode="&#xc9;" glyph-name="Eacute" horiz-adv-x="554" d="M528 10Q503 0 477 -14T422 -40T362 -58Q344 -62 325 -62Q310 -62 294 -60Q244 -53 204 -30T127 16Q116 36 102 51T74 83Q62 118 53 153Q46 178 46 203Q46 213 47 224Q50 251 59 273T81 316T107
354T131 391Q101 425 93 465Q89 483 89 501Q89 522 94 542Q103 579 127 611T187 662Q230 685 282 691T385 702Q403 689 424 679T465 657T501 630T525 591Q512 575 499 575Q496 575 492 577Q475 582 456 597T414 628T365 648Q354 649 343 649Q321 649 299 645Q265
637 235 622T181 584T148 536Q141 519 141 502Q141 493 143 483Q149 455 177 428Q204 436 231 447T286 465T343 473Q371 473 401 458Q408 449 415 440T428 421T437 401V392Q437 385 435 377Q427 351 394 340T321 327H313Q277 327 243 335Q204 343 184 357Q169 337
152 317T122 275T103 226Q100 214 100 201Q100 185 104 167Q113 123 145 85T224 23T323 -5Q330 -6 338 -6Q383 -6 425 16Q433 20 441 28T459 44T477 57T495 63Q518 63 523 48T528 10ZM381 387Q375 406 358 413Q344 418 328 418H321Q300 416 281 408T251 391Q277
382 315 381H324Q356 381 381 387ZM421 906Q400 863 367 834T300 773Q289 770 276 767Q271 765 266 765Q258 765 250 769Q248 776 248 783Q248 791 252 798Q259 808 271 814T296 827T317 843Q332 863 349 879T380 916Q389 920 398 920Q401 920 405 919Q416 917
421 906Z" />
<glyph unicode="&#xca;" glyph-name="Ecircumflex" horiz-adv-x="554" d="M528 10Q503 0 477 -14T422 -40T362 -58Q344 -62 325 -62Q310 -62 294 -60Q244 -53 204 -30T127 16Q116 36 102 51T74 83Q62 118 53 153Q46 178 46 203Q46 213 47 224Q50 251 59 273T81
316T107 354T131 391Q101 425 93 465Q89 483 89 501Q89 522 94 542Q103 579 127 611T187 662Q230 685 282 691T385 702Q403 689 424 679T465 657T501 630T525 591Q512 575 499 575Q496 575 492 577Q475 582 456 597T414 628T365 648Q354 649 343 649Q321 649 299
645Q265 637 235 622T181 584T148 536Q141 519 141 502Q141 493 143 483Q149 455 177 428Q204 436 231 447T286 465T343 473Q371 473 401 458Q408 449 415 440T428 421T437 401V392Q437 385 435 377Q427 351 394 340T321 327H313Q277 327 243 335Q204 343 184 357Q169
337 152 317T122 275T103 226Q100 214 100 201Q100 185 104 167Q113 123 145 85T224 23T323 -5Q330 -6 338 -6Q383 -6 425 16Q433 20 441 28T459 44T477 57T495 63Q518 63 523 48T528 10ZM381 387Q375 406 358 413Q344 418 328 418H321Q300 416 281 408T251 391Q277
382 315 381H324Q356 381 381 387ZM446 809Q431 800 419 800Q412 800 405 804Q388 813 374 832T348 873T323 909Q309 902 299 882T279 845T255 820Q251 817 247 817Q237 817 222 832Q242 872 267 905T313 979H318Q330 979 338 972Q348 963 355 950T369 921T383
896Q399 872 415 860T446 832V809Z" />
<glyph unicode="&#xcb;" glyph-name="Edieresis" horiz-adv-x="554" d="M528 10Q503 0 477 -14T422 -40T362 -58Q344 -62 325 -62Q310 -62 294 -60Q244 -53 204 -30T127 16Q116 36 102 51T74 83Q62 118 53 153Q46 178 46 203Q46 213 47 224Q50 251 59 273T81 316T107
354T131 391Q101 425 93 465Q89 483 89 501Q89 522 94 542Q103 579 127 611T187 662Q230 685 282 691T385 702Q403 689 424 679T465 657T501 630T525 591Q512 575 499 575Q496 575 492 577Q475 582 456 597T414 628T365 648Q354 649 343 649Q321 649 299 645Q265
637 235 622T181 584T148 536Q141 519 141 502Q141 493 143 483Q149 455 177 428Q204 436 231 447T286 465T343 473Q371 473 401 458Q408 449 415 440T428 421T437 401V392Q437 385 435 377Q427 351 394 340T321 327H313Q277 327 243 335Q204 343 184 357Q169 337
152 317T122 275T103 226Q100 214 100 201Q100 185 104 167Q113 123 145 85T224 23T323 -5Q330 -6 338 -6Q383 -6 425 16Q433 20 441 28T459 44T477 57T495 63Q518 63 523 48T528 10ZM381 387Q375 406 358 413Q344 418 328 418H321Q300 416 281 408T251 391Q277
382 315 381H324Q356 381 381 387ZM432 813V809Q432 792 424 786Q416 778 404 778L403 779Q391 779 379 786T361 804Q357 809 357 815Q357 819 359 823Q362 833 382 840Q394 844 403 844Q413 844 420 839Q431 830 432 813ZM221 830Q241 842 254 842H259Q272 839
277 828Q279 821 279 812V803Q276 788 268 780Q260 772 248 772H246Q232 773 215 793Q214 797 214 800Q214 808 218 813Q221 818 221 826V830Z" />
<glyph unicode="&#xcc;" glyph-name="Igrave" horiz-adv-x="275" d="M198 226Q196 166 194 106T174 -8Q175 -16 175 -22Q175 -37 169 -45Q159 -57 146 -57Q145 -58 144 -58Q131 -58 119 -48Q106 -39 104 -21Q117 0 123 23T132 71T135 123Q135 149 137 176Q141
232 141 290V325Q139 401 131 477Q128 505 122 534T114 591Q112 614 110 632T97 668Q99 678 106 685T124 696Q128 697 133 697Q138 697 143 696Q153 693 161 684Q163 653 167 625T174 571T180 519V503Q180 486 178 470Q194 413 197 351Q198 306 198 261V226ZM140
825Q128 813 116 813Q115 813 115 814Q101 814 87 821T59 841T33 866Q21 877 5 891T-19 920Q-25 928 -25 937Q-25 941 -23 945Q-19 957 10 963Q17 951 27 941T48 922T69 902T87 879Q93 872 101 868T118 858T132 845T140 825Z" />
<glyph unicode="&#xcd;" glyph-name="Iacute" horiz-adv-x="275" d="M198 226Q196 166 194 106T174 -8Q175 -16 175 -22Q175 -37 169 -45Q159 -57 146 -57Q145 -58 144 -58Q131 -58 119 -48Q106 -39 104 -21Q117 0 123 23T132 71T135 123Q135 149 137 176Q141
232 141 290V325Q139 401 131 477Q128 505 122 534T114 591Q112 614 110 632T97 668Q99 678 106 685T124 696Q128 697 133 697Q138 697 143 696Q153 693 161 684Q163 653 167 625T174 571T180 519V503Q180 486 178 470Q194 413 197 351Q198 306 198 261V226ZM246
926Q225 883 192 854T125 793Q114 790 101 787Q96 785 91 785Q83 785 75 789Q73 796 73 803Q73 811 77 818Q84 828 96 834T121 847T142 863Q157 883 174 899T205 936Q214 940 223 940Q226 940 230 939Q241 937 246 926Z" />
<glyph unicode="&#xce;" glyph-name="Icircumflex" horiz-adv-x="275" d="M198 226Q196 166 194 106T174 -8Q175 -16 175 -22Q175 -37 169 -45Q159 -57 146 -57Q145 -58 144 -58Q131 -58 119 -48Q106 -39 104 -21Q117 0 123 23T132 71T135 123Q135 149 137 176Q141
232 141 290V325Q139 401 131 477Q128 505 122 534T114 591Q112 614 110 632T97 668Q99 678 106 685T124 696Q128 697 133 697Q138 697 143 696Q153 693 161 684Q163 653 167 625T174 571T180 519V503Q180 486 178 470Q194 413 197 351Q198 306 198 261V226ZM220
788Q205 779 193 779Q186 779 179 783Q162 792 148 811T122 852T97 888Q83 881 73 861T53 824T29 799Q25 796 21 796Q11 796 -4 811Q16 851 41 884T87 958H92Q104 958 112 951Q122 942 129 929T143 900T157 875Q173 851 189 839T220 811V788Z" />
<glyph unicode="&#xcf;" glyph-name="Idieresis" horiz-adv-x="275" d="M198 226Q196 166 194 106T174 -8Q175 -16 175 -22Q175 -37 169 -45Q159 -57 146 -57Q145 -58 144 -58Q131 -58 119 -48Q106 -39 104 -21Q117 0 123 23T132 71T135 123Q135 149 137 176Q141
232 141 290V325Q139 401 131 477Q128 505 122 534T114 591Q112 614 110 632T97 668Q99 678 106 685T124 696Q128 697 133 697Q138 697 143 696Q153 693 161 684Q163 653 167 625T174 571T180 519V503Q180 486 178 470Q194 413 197 351Q198 306 198 261V226ZM228
823V819Q228 802 220 796Q212 788 200 788L199 789Q187 789 175 796T157 814Q153 819 153 825Q153 829 155 833Q158 843 178 850Q190 854 199 854Q209 854 216 849Q227 840 228 823ZM17 840Q37 852 50 852H55Q68 849 73 838Q75 831 75 822V813Q72 798 64 790Q56
782 44 782H42Q28 783 11 803Q10 807 10 810Q10 818 14 823Q17 828 17 836V840Z" />
<glyph unicode="&#xd0;" glyph-name="Eth" horiz-adv-x="760" d="M717 292Q714 255 702 223T673 161T635 107T597 58Q571 44 544 29T487 -1T427 -29T363 -49Q348 -52 333 -53T302 -55T273 -59T246 -69Q222 -66 199 -62T153 -52T112 -35T79 -9Q90 16 112 28Q129
24 141 17T172 8Q169 81 165 148T152 289Q138 289 124 286T95 282Q86 281 77 281H67Q53 282 42 289Q41 295 41 301Q41 316 50 324Q61 333 79 335H94Q104 335 115 334Q121 333 127 333Q138 333 146 336Q149 374 152 414T158 493T164 567T172 633H167Q158 633 149
631Q136 627 123 625Q115 623 107 623Q103 623 99 624Q87 625 79 637Q82 658 96 667T129 682T168 690T202 704Q220 702 237 702H248Q270 703 291 704T332 708H349Q361 708 373 707Q404 704 430 694T481 672T530 648T580 627Q591 610 606 594T637 561T667 526T690
486Q707 448 714 397Q718 365 718 331Q718 312 717 292ZM660 389Q655 423 641 453T608 510T567 557T523 597Q496 605 471 615T426 640Q378 648 330 653Q318 654 306 654Q270 654 233 643Q223 570 213 498Q205 442 205 378Q205 359 206 339Q215 335 226 335Q233
335 241 337Q261 341 280 345Q290 347 299 347Q306 347 312 346Q325 343 326 322V319Q326 301 315 296Q304 290 287 290Q286 290 284 291Q265 291 244 293Q238 294 233 294Q218 294 206 289Q216 214 220 139T239 -2H256Q298 -2 335 6Q380 16 419 32T495 69T567
108Q589 133 609 162T643 226T663 302Q665 318 665 336Q665 361 660 389Z" />
<glyph unicode="&#xd1;" glyph-name="Ntilde" horiz-adv-x="750" d="M703 561Q704 551 704 540V524Q702 504 699 484T691 445T683 407Q675 361 666 316T640 227Q612 158 588 89T529 -44Q517 -47 509 -47Q507 -47 506 -46Q497 -46 483 -44Q478 -32 478 -20V-13Q480
2 486 19T503 56T523 97Q535 125 548 152T570 207Q594 287 615 359T643 511Q644 519 644 527Q644 547 640 566Q635 592 622 612T588 646T536 662H527Q503 662 474 653Q440 642 412 631Q382 619 359 598T317 549T284 487T259 417Q256 407 256 395Q256 382 252 371Q247
357 240 344T227 316T215 286T209 250V221Q210 204 212 190Q214 180 214 170V164Q213 161 213 158Q213 148 215 140Q217 133 220 128T225 117V112Q225 106 224 100Q222 93 222 87V83Q222 78 226 75T232 66Q240 33 244 1T259 -61Q247 -72 236 -79Q229 -83 219 -83Q211
-83 202 -81Q184 -18 172 55T149 206T126 359T92 501Q87 516 80 532T66 563T55 592Q51 603 51 611V615Q52 619 53 625T59 636T71 645Q75 647 80 647Q86 647 92 645Q102 643 108 632T118 606T126 574T135 541Q142 521 150 504T158 458Q165 449 168 437T173 411T178
385T188 364Q201 401 214 438T243 510T275 577T315 638Q335 645 350 655T379 678Q420 693 459 700T536 722Q568 711 596 699T647 667T684 623T703 561ZM568 892Q570 886 570 880Q570 876 569 873Q567 863 564 854T556 836T548 819Q513 804 480 804Q478 803 476
803Q445 803 417 812Q386 820 358 834T304 862H294Q267 862 253 847Q244 837 244 824Q244 812 250 799Q242 795 234 791Q228 788 218 788H213Q200 806 200 825Q200 833 203 841Q210 868 227 885Q241 890 254 896T280 909H284Q302 909 324 901Q347 891 371 880T420
858T465 846Q467 845 470 845Q487 845 502 855Q518 865 528 895Q539 895 547 893Q551 891 557 891Q562 891 568 892Z" />
<glyph unicode="&#xd2;" glyph-name="Ograve" horiz-adv-x="810" d="M774 352Q773 319 765 289T744 232T718 179T691 132Q675 124 663 112T637 86T610 61T577 42Q569 38 556 38Q543 38 530 35Q521 32 508 28T481 20T451 13Q439 11 428 11H420Q411 12 403 16T387
22Q367 25 346 25H330Q323 24 316 24Q294 24 273 28Q263 30 254 36Q248 40 242 40Q237 40 233 38Q215 53 194 66T153 92T114 121T82 159Q63 190 55 227T46 305V319Q46 353 50 388Q54 431 59 473Q82 515 104 558T156 637Q182 654 208 668T270 697Q296 708 328 714T396
723H417Q442 723 467 721Q503 717 537 707Q550 703 569 695T608 677T645 657T674 637Q689 625 698 611T716 581T732 551T751 523Q752 500 756 479T765 437T772 395Q774 379 774 363V352ZM718 403Q707 507 656 564T514 650Q496 655 476 661T440 670H438Q433 670
429 667Q424 663 417 663Q409 663 404 666T393 670Q299 666 229 615T126 483Q115 438 107 396Q99 358 99 321V312Q100 247 129 200T203 124T306 81Q351 71 397 71Q409 71 422 72Q481 75 535 94T631 149Q649 171 666 199T696 261T716 330Q720 351 720 374Q720 389
718 403ZM497 815Q485 803 473 803Q472 803 472 804Q458 804 444 811T416 831T390 856Q378 867 362 881T338 910Q332 918 332 927Q332 931 334 935Q338 947 367 953Q374 941 384 931T405 912T426 892T444 869Q450 862 458 858T475 848T489 835T497 815Z" />
<glyph unicode="&#xd3;" glyph-name="Oacute" horiz-adv-x="810" d="M774 352Q773 319 765 289T744 232T718 179T691 132Q675 124 663 112T637 86T610 61T577 42Q569 38 556 38Q543 38 530 35Q521 32 508 28T481 20T451 13Q439 11 428 11H420Q411 12 403 16T387
22Q367 25 346 25H330Q323 24 316 24Q294 24 273 28Q263 30 254 36Q248 40 242 40Q237 40 233 38Q215 53 194 66T153 92T114 121T82 159Q63 190 55 227T46 305V319Q46 353 50 388Q54 431 59 473Q82 515 104 558T156 637Q182 654 208 668T270 697Q296 708 328 714T396
723H417Q442 723 467 721Q503 717 537 707Q550 703 569 695T608 677T645 657T674 637Q689 625 698 611T716 581T732 551T751 523Q752 500 756 479T765 437T772 395Q774 379 774 363V352ZM718 403Q707 507 656 564T514 650Q496 655 476 661T440 670H438Q433 670
429 667Q424 663 417 663Q409 663 404 666T393 670Q299 666 229 615T126 483Q115 438 107 396Q99 358 99 321V312Q100 247 129 200T203 124T306 81Q351 71 397 71Q409 71 422 72Q481 75 535 94T631 149Q649 171 666 199T696 261T716 330Q720 351 720 374Q720 389
718 403ZM522 926Q501 883 468 854T401 793Q390 790 377 787Q372 785 367 785Q359 785 351 789Q349 796 349 803Q349 811 353 818Q360 828 372 834T397 847T418 863Q433 883 450 899T481 936Q490 940 499 940Q502 940 506 939Q517 937 522 926Z" />
<glyph unicode="&#xd4;" glyph-name="Ocircumflex" horiz-adv-x="810" d="M774 352Q773 319 765 289T744 232T718 179T691 132Q675 124 663 112T637 86T610 61T577 42Q569 38 556 38Q543 38 530 35Q521 32 508 28T481 20T451 13Q439 11 428 11H420Q411 12 403
16T387 22Q367 25 346 25H330Q323 24 316 24Q294 24 273 28Q263 30 254 36Q248 40 242 40Q237 40 233 38Q215 53 194 66T153 92T114 121T82 159Q63 190 55 227T46 305V319Q46 353 50 388Q54 431 59 473Q82 515 104 558T156 637Q182 654 208 668T270 697Q296 708
328 714T396 723H417Q442 723 467 721Q503 717 537 707Q550 703 569 695T608 677T645 657T674 637Q689 625 698 611T716 581T732 551T751 523Q752 500 756 479T765 437T772 395Q774 379 774 363V352ZM718 403Q707 507 656 564T514 650Q496 655 476 661T440 670H438Q433
670 429 667Q424 663 417 663Q409 663 404 666T393 670Q299 666 229 615T126 483Q115 438 107 396Q99 358 99 321V312Q100 247 129 200T203 124T306 81Q351 71 397 71Q409 71 422 72Q481 75 535 94T631 149Q649 171 666 199T696 261T716 330Q720 351 720 374Q720
389 718 403ZM537 809Q522 800 510 800Q503 800 496 804Q479 813 465 832T439 873T414 909Q400 902 390 882T370 845T346 820Q342 817 338 817Q328 817 313 832Q333 872 358 905T404 979H409Q421 979 429 972Q439 963 446 950T460 921T474 896Q490 872 506 860T537
832V809Z" />
<glyph unicode="&#xd5;" glyph-name="Otilde" horiz-adv-x="810" d="M774 352Q773 319 765 289T744 232T718 179T691 132Q675 124 663 112T637 86T610 61T577 42Q569 38 556 38Q543 38 530 35Q521 32 508 28T481 20T451 13Q439 11 428 11H420Q411 12 403 16T387
22Q367 25 346 25H330Q323 24 316 24Q294 24 273 28Q263 30 254 36Q248 40 242 40Q237 40 233 38Q215 53 194 66T153 92T114 121T82 159Q63 190 55 227T46 305V319Q46 353 50 388Q54 431 59 473Q82 515 104 558T156 637Q182 654 208 668T270 697Q296 708 328 714T396
723H417Q442 723 467 721Q503 717 537 707Q550 703 569 695T608 677T645 657T674 637Q689 625 698 611T716 581T732 551T751 523Q752 500 756 479T765 437T772 395Q774 379 774 363V352ZM718 403Q707 507 656 564T514 650Q496 655 476 661T440 670H438Q433 670
429 667Q424 663 417 663Q409 663 404 666T393 670Q299 666 229 615T126 483Q115 438 107 396Q99 358 99 321V312Q100 247 129 200T203 124T306 81Q351 71 397 71Q409 71 422 72Q481 75 535 94T631 149Q649 171 666 199T696 261T716 330Q720 351 720 374Q720 389
718 403ZM597 902Q599 896 599 890Q599 886 598 883Q596 873 593 864T585 846T577 829Q542 814 509 814Q507 813 505 813Q474 813 446 822Q415 830 387 844T333 872H323Q296 872 282 857Q273 847 273 834Q273 822 279 809Q271 805 263 801Q257 798 247 798H242Q229
816 229 835Q229 843 232 851Q239 878 256 895Q270 900 283 906T309 919H313Q331 919 353 911Q376 901 400 890T449 868T494 856Q496 855 499 855Q516 855 531 865Q547 875 557 905Q568 905 576 903Q580 901 586 901Q591 901 597 902Z" />
<glyph unicode="&#xd6;" glyph-name="Odieresis" horiz-adv-x="810" d="M774 352Q773 319 765 289T744 232T718 179T691 132Q675 124 663 112T637 86T610 61T577 42Q569 38 556 38Q543 38 530 35Q521 32 508 28T481 20T451 13Q439 11 428 11H420Q411 12 403 16T387
22Q367 25 346 25H330Q323 24 316 24Q294 24 273 28Q263 30 254 36Q248 40 242 40Q237 40 233 38Q215 53 194 66T153 92T114 121T82 159Q63 190 55 227T46 305V319Q46 353 50 388Q54 431 59 473Q82 515 104 558T156 637Q182 654 208 668T270 697Q296 708 328 714T396
723H417Q442 723 467 721Q503 717 537 707Q550 703 569 695T608 677T645 657T674 637Q689 625 698 611T716 581T732 551T751 523Q752 500 756 479T765 437T772 395Q774 379 774 363V352ZM718 403Q707 507 656 564T514 650Q496 655 476 661T440 670H438Q433 670
429 667Q424 663 417 663Q409 663 404 666T393 670Q299 666 229 615T126 483Q115 438 107 396Q99 358 99 321V312Q100 247 129 200T203 124T306 81Q351 71 397 71Q409 71 422 72Q481 75 535 94T631 149Q649 171 666 199T696 261T716 330Q720 351 720 374Q720 389
718 403ZM513 834V830Q513 813 505 807Q497 799 485 799L484 800Q472 800 460 807T442 825Q438 830 438 836Q438 840 440 844Q443 854 463 861Q475 865 484 865Q494 865 501 860Q512 851 513 834ZM302 851Q322 863 335 863H340Q353 860 358 849Q360 842 360 833V824Q357
809 349 801Q341 793 329 793H327Q313 794 296 814Q295 818 295 821Q295 829 299 834Q302 839 302 847V851Z" />
<glyph unicode="&#xd7;" glyph-name="multiply" horiz-adv-x="439" d="M423 123V115Q423 100 418 90Q410 76 390 73Q380 77 373 85T360 101T346 117T326 126Q306 161 282 190T231 246Q193 214 157 181T89 109Q84 110 82 112Q81 113 80 113Q78 113 75 109Q70 102
64 96T50 84Q35 84 26 95T16 119Q15 120 15 121Q15 133 23 142Q30 151 47 151H50Q90 183 126 218T195 293Q163 338 131 387T69 491Q63 503 54 517T41 545Q39 549 39 553Q39 560 44 565Q49 570 64 570Q70 570 78 569Q89 555 97 539T115 506T134 475T159 449Q163
431 171 417T189 391T207 366T225 338Q262 380 291 429T351 527Q350 531 350 534Q350 538 352 542Q353 545 353 551V555Q367 564 382 564H389Q407 561 409 538Q380 470 341 412T262 296Q281 273 299 249T337 202T378 158T423 123Z" />
<glyph unicode="&#xd8;" glyph-name="Oslash" horiz-adv-x="810" d="M774 308Q773 275 765 245T744 187T718 134T691 87Q675 79 663 67T637 41T610 16T577 -3Q570 -7 559 -7Q557 -7 556 -6H553Q542 -6 530 -10Q521 -13 508 -17T481 -25T451 -31Q439 -33 429 -33H420Q411
-33 403 -29T387 -23Q367 -20 346 -20H330Q323 -21 316 -21Q294 -21 273 -17Q266 -15 259 -12T244 -6Q227 -35 211 -62T176 -118Q170 -120 159 -123Q155 -124 152 -124Q146 -124 143 -121Q131 -108 129 -98Q127 -94 127 -90Q127 -84 130 -79Q133 -70 140 -61T156
-41Q167 -27 176 -12T196 20Q165 40 134 60T82 114Q63 145 55 182T46 260V274Q46 308 50 343Q54 386 59 428Q82 470 104 513T156 592Q182 609 208 623T270 652Q296 663 328 669T396 678H417Q442 678 467 676Q503 672 537 662Q542 660 547 659T559 654Q570 671 578
690T591 735Q606 746 622 746Q627 746 633 745Q654 739 654 715Q654 709 650 701T639 684T627 664T617 645Q616 640 612 630Q631 620 647 610T674 592Q689 580 698 566T716 536T732 506T751 478Q752 455 756 434T765 392T772 351Q774 335 774 319V308ZM718 358Q710
439 678 490T588 574Q571 539 553 508T517 457Q489 399 457 346T387 243Q358 193 331 144T274 45Q318 30 367 27Q381 26 395 26Q430 26 464 32Q511 39 554 57T631 104Q649 126 666 154T696 216T716 285Q720 306 720 329Q720 344 718 358ZM538 597Q532 599 526 601T514
605Q496 611 476 617T440 625H437Q433 625 429 623Q424 619 417 619H414Q408 619 404 622Q398 625 393 625Q346 623 305 609T229 570T168 512T126 438Q115 393 107 352Q99 314 99 277V268Q101 195 135 145T224 66Q255 120 285 173T347 267V271Q347 279 350 284Q400
359 446 437T538 597Z" />
<glyph unicode="&#xd9;" glyph-name="Ugrave" horiz-adv-x="688" d="M629 425Q631 398 631 369V332Q628 282 620 235T598 148T566 81Q558 70 549 62T530 45T512 29T499 11Q477 1 454 -9T407 -28T359 -42Q341 -47 322 -47Q316 -47 309 -46Q271 -44 242 -32T190
0T147 45T111 97Q93 142 87 187T78 281Q77 292 73 302T68 325Q67 342 67 359Q67 377 68 394Q71 429 76 463T86 532T95 602Q96 607 96 612Q96 618 95 623Q94 630 94 637Q94 641 95 644Q95 654 97 663T108 682Q119 685 132 686H133Q144 686 151 679Q156 661 156 643Q156
624 154 605T147 566T141 525Q138 490 135 454T130 379Q129 360 129 341Q129 321 130 301Q131 261 138 218Q147 158 173 108T242 31Q252 24 268 20T304 13Q317 12 330 12H343Q362 13 379 17Q435 30 474 66T538 153T571 267Q577 310 577 355Q577 375 576 395Q574
421 572 448T566 502Q561 544 550 583T526 656Q539 676 551 681Q556 683 561 683Q567 683 573 679Q582 672 589 657T602 621T611 580T616 539V531Q616 522 615 513Q613 504 613 497V492Q615 474 621 458T629 425ZM406 733Q394 721 382 721Q381 721 381 722Q367
722 353 729T325 749T299 774Q287 785 271 799T247 828Q241 836 241 845Q241 849 243 853Q247 865 276 871Q283 859 293 849T314 830T335 810T353 787Q359 780 367 776T384 766T398 753T406 733Z" />
<glyph unicode="&#xda;" glyph-name="Uacute" horiz-adv-x="688" d="M629 425Q631 398 631 369V332Q628 282 620 235T598 148T566 81Q558 70 549 62T530 45T512 29T499 11Q477 1 454 -9T407 -28T359 -42Q341 -47 322 -47Q316 -47 309 -46Q271 -44 242 -32T190
0T147 45T111 97Q93 142 87 187T78 281Q77 292 73 302T68 325Q67 342 67 359Q67 377 68 394Q71 429 76 463T86 532T95 602Q96 607 96 612Q96 618 95 623Q94 630 94 637Q94 641 95 644Q95 654 97 663T108 682Q119 685 132 686H133Q144 686 151 679Q156 661 156 643Q156
624 154 605T147 566T141 525Q138 490 135 454T130 379Q129 360 129 341Q129 321 130 301Q131 261 138 218Q147 158 173 108T242 31Q252 24 268 20T304 13Q317 12 330 12H343Q362 13 379 17Q435 30 474 66T538 153T571 267Q577 310 577 355Q577 375 576 395Q574
421 572 448T566 502Q561 544 550 583T526 656Q539 676 551 681Q556 683 561 683Q567 683 573 679Q582 672 589 657T602 621T611 580T616 539V531Q616 522 615 513Q613 504 613 497V492Q615 474 621 458T629 425ZM472 855Q451 812 418 783T351 722Q340 719 327
716Q322 714 317 714Q309 714 301 718Q299 725 299 732Q299 740 303 747Q310 757 322 763T347 776T368 792Q383 812 400 828T431 865Q440 869 449 869Q452 869 456 868Q467 866 472 855Z" />
<glyph unicode="&#xdb;" glyph-name="Ucircumflex" horiz-adv-x="688" d="M629 425Q631 398 631 369V332Q628 282 620 235T598 148T566 81Q558 70 549 62T530 45T512 29T499 11Q477 1 454 -9T407 -28T359 -42Q341 -47 322 -47Q316 -47 309 -46Q271 -44 242 -32T190
0T147 45T111 97Q93 142 87 187T78 281Q77 292 73 302T68 325Q67 342 67 359Q67 377 68 394Q71 429 76 463T86 532T95 602Q96 607 96 612Q96 618 95 623Q94 630 94 637Q94 641 95 644Q95 654 97 663T108 682Q119 685 132 686H133Q144 686 151 679Q156 661 156 643Q156
624 154 605T147 566T141 525Q138 490 135 454T130 379Q129 360 129 341Q129 321 130 301Q131 261 138 218Q147 158 173 108T242 31Q252 24 268 20T304 13Q317 12 330 12H343Q362 13 379 17Q435 30 474 66T538 153T571 267Q577 310 577 355Q577 375 576 395Q574
421 572 448T566 502Q561 544 550 583T526 656Q539 676 551 681Q556 683 561 683Q567 683 573 679Q582 672 589 657T602 621T611 580T616 539V531Q616 522 615 513Q613 504 613 497V492Q615 474 621 458T629 425ZM466 727Q451 718 439 718Q432 718 425 722Q408
731 394 750T368 791T343 827Q329 820 319 800T299 763T275 738Q271 735 267 735Q257 735 242 750Q262 790 287 823T333 897H338Q350 897 358 890Q368 881 375 868T389 839T403 814Q419 790 435 778T466 750V727Z" />
<glyph unicode="&#xdc;" glyph-name="Udieresis" horiz-adv-x="688" d="M629 425Q631 398 631 369V332Q628 282 620 235T598 148T566 81Q558 70 549 62T530 45T512 29T499 11Q477 1 454 -9T407 -28T359 -42Q341 -47 322 -47Q316 -47 309 -46Q271 -44 242 -32T190
0T147 45T111 97Q93 142 87 187T78 281Q77 292 73 302T68 325Q67 342 67 359Q67 377 68 394Q71 429 76 463T86 532T95 602Q96 607 96 612Q96 618 95 623Q94 630 94 637Q94 641 95 644Q95 654 97 663T108 682Q119 685 132 686H133Q144 686 151 679Q156 661 156 643Q156
624 154 605T147 566T141 525Q138 490 135 454T130 379Q129 360 129 341Q129 321 130 301Q131 261 138 218Q147 158 173 108T242 31Q252 24 268 20T304 13Q317 12 330 12H343Q362 13 379 17Q435 30 474 66T538 153T571 267Q577 310 577 355Q577 375 576 395Q574
421 572 448T566 502Q561 544 550 583T526 656Q539 676 551 681Q556 683 561 683Q567 683 573 679Q582 672 589 657T602 621T611 580T616 539V531Q616 522 615 513Q613 504 613 497V492Q615 474 621 458T629 425ZM463 793V789Q463 772 455 766Q447 758 435 758L434
759Q422 759 410 766T392 784Q388 789 388 795Q388 799 390 803Q393 813 413 820Q425 824 434 824Q444 824 451 819Q462 810 463 793ZM252 810Q272 822 285 822H290Q303 819 308 808Q310 801 310 792V783Q307 768 299 760Q291 752 279 752H277Q263 753 246 773Q245
777 245 780Q245 788 249 793Q252 798 252 806V810Z" />
<glyph unicode="&#xdd;" glyph-name="Yacute" horiz-adv-x="726" d="M1063 -176Q1058 -182 1052 -188T1039 -198T1023 -202Q1022 -203 1021 -203Q1013 -203 1004 -198Q999 -188 998 -178T995 -159T992 -140T984 -123Q976 -112 964 -106T939 -96T910 -88T882 -79Q865
-111 860 -148T842 -224Q833 -257 822 -284T797 -333T762 -375T713 -412Q702 -418 693 -425T673 -439T649 -450T616 -455Q587 -455 566 -440T524 -407Q522 -395 519 -387T507 -368Q506 -358 506 -349Q506 -317 514 -289Q524 -252 542 -219T587 -158T643 -106Q676
-80 718 -57T817 -32Q820 1 821 38V62Q821 87 820 112Q819 150 818 187T815 260Q807 254 804 246T799 230T796 214T791 197Q776 163 756 134T712 79T663 28T611 -22Q594 -30 575 -35T535 -43Q521 -45 507 -45H496Q476 -44 458 -37Q421 -6 401 36T370 127T358 228Q357
254 357 280Q357 306 358 331Q359 378 366 420T383 502T401 582T417 664Q426 672 439 675H444Q453 675 460 669Q461 659 461 649Q461 632 459 614Q455 586 449 557T437 497T426 435Q417 358 416 284Q415 275 415 266Q415 200 425 136Q428 115 435 94T454 54T480
24T514 9Q543 10 559 18T599 37Q650 71 684 119T741 223T782 341T815 465Q814 477 814 489Q814 502 815 515Q817 540 819 566T824 619V636Q824 653 822 670Q825 681 834 687T856 697Q873 684 879 665Q883 649 883 630V624Q882 601 877 577T869 531Q866 505 866
477Q866 452 869 425Q874 369 874 309Q875 267 875 224Q875 182 874 140V99Q874 37 876 -20Q909 -25 941 -33T999 -58T1042 -103T1063 -176ZM812 -90Q770 -91 727 -112T647 -166T585 -239T556 -316Q555 -324 555 -331Q555 -340 557 -347Q559 -361 565 -370T579
-386T598 -399Q607 -398 616 -398H629Q639 -398 647 -395Q688 -377 718 -346T769 -275T800 -187T812 -90ZM531 855Q510 812 477 783T410 722Q399 719 386 716Q381 714 376 714Q368 714 360 718Q358 725 358 732Q358 740 362 747Q369 757 381 763T406 776T427 792Q442
812 459 828T490 865Q499 869 508 869Q511 869 515 868Q526 866 531 855Z" />
<glyph unicode="&#xde;" glyph-name="Thorn" horiz-adv-x="775" d="M745 377Q736 331 709 293T640 228T547 190Q512 182 476 182Q457 182 438 184Q399 188 367 202T294 224Q293 214 293 203Q293 184 296 163Q301 128 309 92T326 21T341 -44Q342 -53 347 -59T356
-70T364 -82T368 -97Q366 -113 358 -121T338 -132Q334 -133 330 -133Q322 -133 314 -129Q301 -125 291 -114V-110Q291 -104 294 -100Q297 -95 297 -87Q291 -80 288 -69T282 -46T278 -20T271 6Q268 13 262 19T254 30Q253 32 253 34Q253 37 255 41Q257 46 257 50V53Q254
82 244 115T230 180Q225 230 222 283T218 388T216 491Q216 541 217 585Q163 573 121 551T43 498H26Q18 496 11 496Q9 495 8 495Q2 495 -2 498Q-7 500 -10 508Q-4 531 12 545T47 569T86 590T120 615Q151 620 175 631T227 652Q231 672 234 696T243 740T263 769Q268
772 276 772Q286 772 301 765Q304 755 304 746V739Q302 727 298 715T291 691T287 665Q339 668 391 673T493 679Q541 679 584 670T662 632Q683 615 701 588T731 526T748 454Q749 440 749 426Q749 402 745 377ZM688 481Q685 496 677 513T658 548T633 579T605 601Q572
620 529 626Q499 629 468 629H440Q395 626 352 619T274 605V520Q272 491 272 463Q272 454 273 445Q273 408 276 372T291 297Q322 276 359 263T435 245Q452 243 468 243Q491 243 513 246Q551 252 585 270Q591 274 597 276T608 281Q631 294 649 315T678 364T692 421Q693
430 693 439Q693 460 688 481Z" />
<glyph unicode="&#xdf;" glyph-name="germandbls" horiz-adv-x="657" d="M608 93Q603 60 588 30T551 -25T503 -65T448 -88Q433 -91 414 -91Q401 -91 386 -89Q350 -85 323 -72T287 -38Q285 -33 285 -27Q285 -11 304 9Q325 3 341 -6T374 -22T409 -28Q410 -29 411
-29Q428 -29 451 -18Q469 -9 487 6T520 40T543 83Q551 103 551 124V129Q550 157 540 182T513 228T478 268T441 300Q429 294 411 283T373 260T330 240T287 230H280Q269 230 258 233Q244 236 234 244T218 266Q213 276 213 288Q213 292 214 297Q214 300 217 305T223
318T230 331T237 340Q246 349 261 357T295 371T334 381Q350 383 363 383H371Q382 383 395 377Q405 373 415 373H421Q446 378 454 398T471 444Q474 452 480 457T488 470Q491 482 491 495V504Q490 506 490 509Q490 523 498 534Q490 561 479 585T450 628T409 657T351
671Q260 656 209 604T137 464Q125 417 122 372Q121 351 121 331Q121 307 123 283Q126 239 135 195T157 106Q165 79 169 55T184 6Q189 -5 195 -16T206 -37T212 -59V-62Q212 -72 207 -81Q198 -84 191 -84Q177 -84 167 -73Q152 -58 143 -33T127 23T113 76Q109 90 101
104T90 129Q89 134 89 138Q89 142 90 146V163Q85 196 76 225T67 287V299Q67 351 75 408Q84 471 104 527T156 627T234 691Q243 695 256 697T281 704Q302 712 326 720Q341 725 362 725Q372 725 384 724Q437 719 473 687T541 607Q550 571 551 535V526Q551 495 545
466Q538 432 525 402T494 350Q497 336 505 327T522 311T540 297T558 280Q563 274 568 258T581 226Q587 212 593 199T604 169T610 135V125Q610 110 608 93ZM367 323Q357 323 343 322T316 318T293 309T281 290Q292 287 303 287Q318 287 333 294Q356 306 367 323Z"
/>
<glyph unicode="&#xe0;" glyph-name="agrave" horiz-adv-x="678" d="M668 24Q665 12 661 2T648 -12Q643 -14 636 -14Q631 -14 626 -13Q612 -11 597 -5T569 9T548 24Q534 37 526 54T510 88T498 121T484 145Q473 140 466 132T453 114T440 94T424 75Q403 54 374 38T310
12Q281 4 250 4Q245 4 240 5Q204 6 170 21Q135 45 107 82T61 164T42 260Q41 266 41 272Q41 316 57 362Q63 378 73 397T97 435T124 468T153 492Q189 514 232 521Q255 524 278 524Q297 524 317 522Q360 516 400 500T474 459Q483 468 496 478T525 496Q538 501 551
501H556Q571 500 585 486Q593 455 593 425V410Q590 373 580 339T556 273T528 215Q543 168 561 125T611 51H622Q638 51 646 47Q657 40 668 24ZM535 436Q515 407 513 372V356Q513 328 518 295Q524 307 532 326T545 367Q548 384 548 400V407Q547 425 535 436ZM468
222Q464 263 460 308Q457 334 457 359Q457 376 458 392Q445 412 423 428T375 454T320 468Q303 470 288 470Q276 470 264 469Q229 465 203 453T157 422Q146 402 133 378T111 327T97 271Q96 260 96 250Q96 231 100 212Q104 196 112 177T132 138T157 103T184 78Q204
64 231 60Q248 57 267 57Q277 57 287 58Q320 68 345 86T391 126T430 173T468 222ZM611 620Q599 608 587 608Q586 608 586 609Q572 609 558 616T530 636T504 661Q492 672 476 686T452 715Q446 723 446 732Q446 736 448 740Q452 752 481 758Q488 746 498 736T519
717T540 697T558 674Q564 667 572 663T589 653T603 640T611 620Z" />
<glyph unicode="&#xe1;" glyph-name="aacute" horiz-adv-x="678" d="M668 24Q665 12 661 2T648 -12Q643 -14 636 -14Q631 -14 626 -13Q612 -11 597 -5T569 9T548 24Q534 37 526 54T510 88T498 121T484 145Q473 140 466 132T453 114T440 94T424 75Q403 54 374 38T310
12Q281 4 250 4Q245 4 240 5Q204 6 170 21Q135 45 107 82T61 164T42 260Q41 266 41 272Q41 316 57 362Q63 378 73 397T97 435T124 468T153 492Q189 514 232 521Q255 524 278 524Q297 524 317 522Q360 516 400 500T474 459Q483 468 496 478T525 496Q538 501 551
501H556Q571 500 585 486Q593 455 593 425V410Q590 373 580 339T556 273T528 215Q543 168 561 125T611 51H622Q638 51 646 47Q657 40 668 24ZM535 436Q515 407 513 372V356Q513 328 518 295Q524 307 532 326T545 367Q548 384 548 400V407Q547 425 535 436ZM468
222Q464 263 460 308Q457 334 457 359Q457 376 458 392Q445 412 423 428T375 454T320 468Q303 470 288 470Q276 470 264 469Q229 465 203 453T157 422Q146 402 133 378T111 327T97 271Q96 260 96 250Q96 231 100 212Q104 196 112 177T132 138T157 103T184 78Q204
64 231 60Q248 57 267 57Q277 57 287 58Q320 68 345 86T391 126T430 173T468 222ZM687 742Q666 699 633 670T566 609Q555 606 542 603Q537 601 532 601Q524 601 516 605Q514 612 514 619Q514 627 518 634Q525 644 537 650T562 663T583 679Q598 699 615 715T646
752Q655 756 664 756Q667 756 671 755Q682 753 687 742Z" />
<glyph unicode="&#xe2;" glyph-name="acircumflex" horiz-adv-x="678" d="M668 24Q665 12 661 2T648 -12Q643 -14 636 -14Q631 -14 626 -13Q612 -11 597 -5T569 9T548 24Q534 37 526 54T510 88T498 121T484 145Q473 140 466 132T453 114T440 94T424 75Q403 54
374 38T310 12Q281 4 250 4Q245 4 240 5Q204 6 170 21Q135 45 107 82T61 164T42 260Q41 266 41 272Q41 316 57 362Q63 378 73 397T97 435T124 468T153 492Q189 514 232 521Q255 524 278 524Q297 524 317 522Q360 516 400 500T474 459Q483 468 496 478T525 496Q538
501 551 501H556Q571 500 585 486Q593 455 593 425V410Q590 373 580 339T556 273T528 215Q543 168 561 125T611 51H622Q638 51 646 47Q657 40 668 24ZM535 436Q515 407 513 372V356Q513 328 518 295Q524 307 532 326T545 367Q548 384 548 400V407Q547 425 535 436ZM468
222Q464 263 460 308Q457 334 457 359Q457 376 458 392Q445 412 423 428T375 454T320 468Q303 470 288 470Q276 470 264 469Q229 465 203 453T157 422Q146 402 133 378T111 327T97 271Q96 260 96 250Q96 231 100 212Q104 196 112 177T132 138T157 103T184 78Q204
64 231 60Q248 57 267 57Q277 57 287 58Q320 68 345 86T391 126T430 173T468 222ZM671 604Q656 595 644 595Q637 595 630 599Q613 608 599 627T573 668T548 704Q534 697 524 677T504 640T480 615Q476 612 472 612Q462 612 447 627Q467 667 492 700T538 774H543Q555
774 563 767Q573 758 580 745T594 716T608 691Q624 667 640 655T671 627V604Z" />
<glyph unicode="&#xe3;" glyph-name="atilde" horiz-adv-x="678" d="M668 24Q665 12 661 2T648 -12Q643 -14 636 -14Q631 -14 626 -13Q612 -11 597 -5T569 9T548 24Q534 37 526 54T510 88T498 121T484 145Q473 140 466 132T453 114T440 94T424 75Q403 54 374 38T310
12Q281 4 250 4Q245 4 240 5Q204 6 170 21Q135 45 107 82T61 164T42 260Q41 266 41 272Q41 316 57 362Q63 378 73 397T97 435T124 468T153 492Q189 514 232 521Q255 524 278 524Q297 524 317 522Q360 516 400 500T474 459Q483 468 496 478T525 496Q538 501 551
501H556Q571 500 585 486Q593 455 593 425V410Q590 373 580 339T556 273T528 215Q543 168 561 125T611 51H622Q638 51 646 47Q657 40 668 24ZM535 436Q515 407 513 372V356Q513 328 518 295Q524 307 532 326T545 367Q548 384 548 400V407Q547 425 535 436ZM468
222Q464 263 460 308Q457 334 457 359Q457 376 458 392Q445 412 423 428T375 454T320 468Q303 470 288 470Q276 470 264 469Q229 465 203 453T157 422Q146 402 133 378T111 327T97 271Q96 260 96 250Q96 231 100 212Q104 196 112 177T132 138T157 103T184 78Q204
64 231 60Q248 57 267 57Q277 57 287 58Q320 68 345 86T391 126T430 173T468 222ZM742 697Q744 691 744 685Q744 681 743 678Q741 668 738 659T730 641T722 624Q687 609 654 609Q652 608 650 608Q619 608 591 617Q560 625 532 639T478 667H468Q441 667 427 652Q418
642 418 629Q418 617 424 604Q416 600 408 596Q402 593 392 593H387Q374 611 374 630Q374 638 377 646Q384 673 401 690Q415 695 428 701T454 714H458Q476 714 498 706Q521 696 545 685T594 663T639 651Q641 650 644 650Q661 650 676 660Q692 670 702 700Q713 700
721 698Q725 696 731 696Q736 696 742 697Z" />
<glyph unicode="&#xe4;" glyph-name="adieresis" horiz-adv-x="678" d="M668 24Q665 12 661 2T648 -12Q643 -14 636 -14Q631 -14 626 -13Q612 -11 597 -5T569 9T548 24Q534 37 526 54T510 88T498 121T484 145Q473 140 466 132T453 114T440 94T424 75Q403 54 374
38T310 12Q281 4 250 4Q245 4 240 5Q204 6 170 21Q135 45 107 82T61 164T42 260Q41 266 41 272Q41 316 57 362Q63 378 73 397T97 435T124 468T153 492Q189 514 232 521Q255 524 278 524Q297 524 317 522Q360 516 400 500T474 459Q483 468 496 478T525 496Q538 501
551 501H556Q571 500 585 486Q593 455 593 425V410Q590 373 580 339T556 273T528 215Q543 168 561 125T611 51H622Q638 51 646 47Q657 40 668 24ZM535 436Q515 407 513 372V356Q513 328 518 295Q524 307 532 326T545 367Q548 384 548 400V407Q547 425 535 436ZM468
222Q464 263 460 308Q457 334 457 359Q457 376 458 392Q445 412 423 428T375 454T320 468Q303 470 288 470Q276 470 264 469Q229 465 203 453T157 422Q146 402 133 378T111 327T97 271Q96 260 96 250Q96 231 100 212Q104 196 112 177T132 138T157 103T184 78Q204
64 231 60Q248 57 267 57Q277 57 287 58Q320 68 345 86T391 126T430 173T468 222ZM647 659V655Q647 638 639 632Q631 624 619 624L618 625Q606 625 594 632T576 650Q572 655 572 661Q572 665 574 669Q577 679 597 686Q609 690 618 690Q628 690 635 685Q646 676
647 659ZM436 676Q456 688 469 688H474Q487 685 492 674Q494 667 494 658V649Q491 634 483 626Q475 618 463 618H461Q447 619 430 639Q429 643 429 646Q429 654 433 659Q436 664 436 672V676Z" />
<glyph unicode="&#xe5;" glyph-name="aring" horiz-adv-x="678" d="M668 24Q665 12 661 2T648 -12Q643 -14 636 -14Q631 -14 626 -13Q612 -11 597 -5T569 9T548 24Q534 37 526 54T510 88T498 121T484 145Q473 140 466 132T453 114T440 94T424 75Q403 54 374 38T310
12Q281 4 250 4Q245 4 240 5Q204 6 170 21Q135 45 107 82T61 164T42 260Q41 266 41 272Q41 316 57 362Q63 378 73 397T97 435T124 468T153 492Q193 516 240 522Q226 531 216 543T203 565Q200 576 200 586Q200 594 202 602Q206 620 217 634T244 659T280 672Q288
673 296 673Q308 673 319 671Q338 666 353 656T377 629Q383 616 383 600V592Q381 569 363 551T322 521Q364 515 403 499T474 459Q483 468 496 478T525 496Q538 501 551 501H556Q571 500 585 486Q593 455 593 425V410Q590 373 580 339T556 273T528 215Q543 168 561
125T611 51H622Q638 51 646 47Q657 40 668 24ZM535 436Q515 407 513 372V356Q513 328 518 295Q524 307 532 326T545 367Q548 384 548 400V407Q547 425 535 436ZM337 595Q337 612 323 621Q310 628 295 628H292Q274 627 260 617T246 585Q251 568 266 562Q276 558
286 558Q291 558 297 559Q312 562 324 571T337 595ZM468 222Q464 263 460 308Q457 334 457 359Q457 376 458 392Q445 412 423 428T375 454T320 468Q303 470 288 470Q276 470 264 469Q229 465 203 453T157 422Q146 402 133 378T111 327T97 271Q96 260 96 250Q96
231 100 212Q104 196 112 177T132 138T157 103T184 78Q204 64 231 60Q248 57 267 57Q277 57 287 58Q320 68 345 86T391 126T430 173T468 222Z" />
<glyph unicode="&#xe6;" glyph-name="ae" horiz-adv-x="1075" d="M1032 62Q984 15 922 -25Q880 -38 831 -38Q829 -38 827 -37Q776 -37 728 -26T640 8T574 62Q567 79 561 94T537 116Q510 65 465 33T360 -18Q324 -12 290 -12Q255 -12 223 -1Q210 4 199 14T173 32Q160
39 152 43T136 52T121 63T99 82Q84 96 71 112T47 148T33 193Q31 206 31 220Q31 234 33 250Q38 295 59 341T109 413Q140 439 179 454T263 480Q281 483 299 483Q328 483 354 475Q395 463 427 440Q435 441 441 445Q445 447 452 447H457Q473 436 485 421T508 390T529
356T554 326Q565 350 581 369T617 405T656 437T694 470Q741 481 789 488Q817 492 845 492Q865 492 885 490Q928 486 959 465T1008 411Q1023 381 1023 345V341Q1022 303 999 266Q973 226 924 205T816 179Q792 177 768 177Q733 177 696 182Q635 189 587 206Q587 187
591 169T607 133Q612 125 619 121T631 109Q632 106 632 103V99Q631 97 631 96Q631 92 634 89Q636 87 645 80T666 65T689 50T704 42Q712 40 726 38T751 32Q790 24 826 24Q851 24 874 28Q931 37 965 82Q969 91 969 103T978 119Q991 124 1002 124Q1014 124 1025 119Q1032
106 1034 93Q1035 89 1035 84Q1035 74 1032 62ZM965 393Q942 413 912 426Q884 437 850 437H845Q752 434 688 391T597 276Q625 257 665 246T750 232H768Q803 232 837 238Q879 245 910 264T958 315Q968 335 968 362Q968 376 965 393ZM511 246Q507 266 499 280T490
316Q472 337 450 358T403 395T348 420Q324 427 299 427H287Q237 423 199 405T136 356T99 283Q91 253 91 220Q91 205 93 189Q104 163 121 145T156 106Q181 90 212 75T278 52Q306 44 336 44Q341 44 346 45Q381 46 414 62Q433 80 451 99T482 140T503 188T511 246Z"
/>
<glyph unicode="&#xe7;" glyph-name="ccedilla" horiz-adv-x="564" d="M542 161Q522 140 504 118T464 76T414 44T348 27Q328 16 322 -13Q329 -15 335 -15Q341 -15 346 -15T358 -14Q364 -14 372 -16Q408 -25 424 -52Q438 -77 438 -105V-110Q436 -142 419 -171T372
-213Q346 -216 324 -219T275 -227Q263 -222 250 -215T227 -197T214 -174Q213 -171 213 -168Q213 -158 221 -146Q230 -144 238 -144Q249 -144 259 -147Q277 -152 288 -163H296Q314 -163 332 -155Q354 -146 366 -131Q376 -119 376 -106V-101Q373 -85 348 -73Q331
-73 320 -77T297 -86T275 -97T248 -103Q232 -88 232 -74Q232 -73 233 -71Q234 -56 242 -40T262 -8T275 24Q266 31 257 33T237 37T217 39T198 44Q174 54 156 72T114 98Q82 130 63 174T41 281Q46 300 52 314T61 355Q76 392 104 424T169 480T253 515Q286 523 323 523Q335
523 348 522Q374 520 405 506T459 472Q466 466 475 455T493 433T506 412T512 395Q511 379 501 373Q494 369 486 369Q482 369 478 370Q465 373 455 383T445 408Q431 416 419 426T393 444T365 459T332 465H325Q309 465 290 462Q266 457 248 452Q209 441 179 414T128
365Q124 345 119 327T110 291T105 256Q104 252 104 248Q104 235 108 221Q118 183 146 155T213 109T294 87Q308 85 322 85Q350 85 375 92Q413 102 442 128T482 198Q490 203 497 209T516 218Q530 210 538 198Q543 190 543 176Q543 169 542 161Z" />
<glyph unicode="&#xe8;" glyph-name="egrave" horiz-adv-x="599" d="M542 95Q535 67 515 45T475 8Q457 -6 434 -13T391 -32Q353 -34 319 -35T251 -39Q208 -28 172 -8T107 45Q94 60 79 86T53 143T37 209Q35 221 35 234Q35 254 40 272Q42 281 52 293T70 322Q96 373
127 411T208 472Q239 487 283 494Q312 498 341 498Q357 498 373 497Q418 493 458 478T522 436Q537 418 546 395T558 346V335Q558 316 553 298Q546 275 528 258Q505 236 472 219T400 190T319 174Q299 171 280 171Q258 171 238 174Q198 179 164 194T104 238Q103 227
103 217Q103 191 110 165Q120 128 140 98T189 48T254 21Q275 17 299 17Q302 17 305 18Q331 18 356 22T405 36T445 58Q460 69 469 85T495 115Q500 116 505 116Q518 116 526 112Q536 106 542 95ZM502 342Q500 361 490 373T472 406Q452 425 421 433T356 441Q321 441
286 436T221 422Q192 398 167 371T127 305Q144 275 170 259T229 235Q260 228 295 228Q297 228 300 229Q338 229 378 232Q394 243 416 253T458 275T491 304Q502 318 502 336V342ZM632 589Q620 577 608 577Q607 577 607 578Q593 578 579 585T551 605T525 630Q513
641 497 655T473 684Q467 692 467 701Q467 705 469 709Q473 721 502 727Q509 715 519 705T540 686T561 666T579 643Q585 636 593 632T610 622T624 609T632 589Z" />
<glyph unicode="&#xe9;" glyph-name="eacute" horiz-adv-x="599" d="M542 95Q535 67 515 45T475 8Q457 -6 434 -13T391 -32Q353 -34 319 -35T251 -39Q208 -28 172 -8T107 45Q94 60 79 86T53 143T37 209Q35 221 35 234Q35 254 40 272Q42 281 52 293T70 322Q96 373
127 411T208 472Q239 487 283 494Q312 498 341 498Q357 498 373 497Q418 493 458 478T522 436Q537 418 546 395T558 346V335Q558 316 553 298Q546 275 528 258Q505 236 472 219T400 190T319 174Q299 171 280 171Q258 171 238 174Q198 179 164 194T104 238Q103 227
103 217Q103 191 110 165Q120 128 140 98T189 48T254 21Q275 17 299 17Q302 17 305 18Q331 18 356 22T405 36T445 58Q460 69 469 85T495 115Q500 116 505 116Q518 116 526 112Q536 106 542 95ZM502 342Q500 361 490 373T472 406Q452 425 421 433T356 441Q321 441
286 436T221 422Q192 398 167 371T127 305Q144 275 170 259T229 235Q260 228 295 228Q297 228 300 229Q338 229 378 232Q394 243 416 253T458 275T491 304Q502 318 502 336V342ZM687 711Q666 668 633 639T566 578Q555 575 542 572Q537 570 532 570Q524 570 516
574Q514 581 514 588Q514 596 518 603Q525 613 537 619T562 632T583 648Q598 668 615 684T646 721Q655 725 664 725Q667 725 671 724Q682 722 687 711Z" />
<glyph unicode="&#xea;" glyph-name="ecircumflex" horiz-adv-x="599" d="M542 95Q535 67 515 45T475 8Q457 -6 434 -13T391 -32Q353 -34 319 -35T251 -39Q208 -28 172 -8T107 45Q94 60 79 86T53 143T37 209Q35 221 35 234Q35 254 40 272Q42 281 52 293T70 322Q96
373 127 411T208 472Q239 487 283 494Q312 498 341 498Q357 498 373 497Q418 493 458 478T522 436Q537 418 546 395T558 346V335Q558 316 553 298Q546 275 528 258Q505 236 472 219T400 190T319 174Q299 171 280 171Q258 171 238 174Q198 179 164 194T104 238Q103
227 103 217Q103 191 110 165Q120 128 140 98T189 48T254 21Q275 17 299 17Q302 17 305 18Q331 18 356 22T405 36T445 58Q460 69 469 85T495 115Q500 116 505 116Q518 116 526 112Q536 106 542 95ZM502 342Q500 361 490 373T472 406Q452 425 421 433T356 441Q321
441 286 436T221 422Q192 398 167 371T127 305Q144 275 170 259T229 235Q260 228 295 228Q297 228 300 229Q338 229 378 232Q394 243 416 253T458 275T491 304Q502 318 502 336V342ZM702 584Q687 575 675 575Q668 575 661 579Q644 588 630 607T604 648T579 684Q565
677 555 657T535 620T511 595Q507 592 503 592Q493 592 478 607Q498 647 523 680T569 754H574Q586 754 594 747Q604 738 611 725T625 696T639 671Q655 647 671 635T702 607V584Z" />
<glyph unicode="&#xeb;" glyph-name="edieresis" horiz-adv-x="599" d="M542 95Q535 67 515 45T475 8Q457 -6 434 -13T391 -32Q353 -34 319 -35T251 -39Q208 -28 172 -8T107 45Q94 60 79 86T53 143T37 209Q35 221 35 234Q35 254 40 272Q42 281 52 293T70 322Q96
373 127 411T208 472Q239 487 283 494Q312 498 341 498Q357 498 373 497Q418 493 458 478T522 436Q537 418 546 395T558 346V335Q558 316 553 298Q546 275 528 258Q505 236 472 219T400 190T319 174Q299 171 280 171Q258 171 238 174Q198 179 164 194T104 238Q103
227 103 217Q103 191 110 165Q120 128 140 98T189 48T254 21Q275 17 299 17Q302 17 305 18Q331 18 356 22T405 36T445 58Q460 69 469 85T495 115Q500 116 505 116Q518 116 526 112Q536 106 542 95ZM502 342Q500 361 490 373T472 406Q452 425 421 433T356 441Q321
441 286 436T221 422Q192 398 167 371T127 305Q144 275 170 259T229 235Q260 228 295 228Q297 228 300 229Q338 229 378 232Q394 243 416 253T458 275T491 304Q502 318 502 336V342ZM688 629V625Q688 608 680 602Q672 594 660 594L659 595Q647 595 635 602T617
620Q613 625 613 631Q613 635 615 639Q618 649 638 656Q650 660 659 660Q669 660 676 655Q687 646 688 629ZM477 646Q497 658 510 658H515Q528 655 533 644Q535 637 535 628V619Q532 604 524 596Q516 588 504 588H502Q488 589 471 609Q470 613 470 616Q470 624
474 629Q477 634 477 642V646Z" />
<glyph unicode="&#xec;" glyph-name="igrave" horiz-adv-x="217" d="M183 -54Q173 -58 165 -58Q159 -58 155 -55Q144 -50 137 -38T126 -10T117 19Q100 62 88 117T71 231Q67 280 67 330V350Q68 409 77 460Q90 472 105 472H109Q126 470 133 454Q136 448 136 441Q136
434 134 426Q129 409 127 390Q125 368 125 341V323Q126 285 127 260Q127 239 128 214T134 162T143 111T157 66Q163 49 173 34T189 4T196 -24Q196 -39 183 -54ZM140 589Q128 577 116 577Q115 577 115 578Q101 578 87 585T59 605T33 630Q21 641 5 655T-19 684Q-25
692 -25 701Q-25 705 -23 709Q-19 721 10 727Q17 715 27 705T48 686T69 666T87 643Q93 636 101 632T118 622T132 609T140 589Z" />
<glyph unicode="&#xed;" glyph-name="iacute" horiz-adv-x="217" d="M438 -54Q428 -58 420 -58Q414 -58 410 -55Q399 -50 392 -38T381 -10T372 19Q355 62 343 117T326 231Q322 280 322 330V350Q323 409 332 460Q345 472 360 472H364Q381 470 388 454Q391 448 391
441Q391 434 389 426Q384 409 382 390Q380 368 380 341V323Q381 285 382 260Q382 239 383 214T389 162T398 111T412 66Q418 49 428 34T444 4T451 -24Q451 -39 438 -54ZM245 732Q224 689 191 660T124 599Q113 596 100 593Q95 591 90 591Q82 591 74 595Q72 602 72
609Q72 617 76 624Q83 634 95 640T120 653T141 669Q156 689 173 705T204 742Q213 746 222 746Q225 746 229 745Q240 743 245 732Z" />
<glyph unicode="&#xee;" glyph-name="icircumflex" horiz-adv-x="217" d="M183 -54Q173 -58 165 -58Q159 -58 155 -55Q144 -50 137 -38T126 -10T117 19Q100 62 88 117T71 231Q67 280 67 330V350Q68 409 77 460Q90 472 105 472H109Q126 470 133 454Q136 448 136
441Q136 434 134 426Q129 409 127 390Q125 368 125 341V323Q126 285 127 260Q127 239 128 214T134 162T143 111T157 66Q163 49 173 34T189 4T196 -24Q196 -39 183 -54ZM241 563Q226 554 214 554Q207 554 200 558Q183 567 169 586T143 627T118 663Q104 656 94 636T74
599T50 574Q46 571 42 571Q32 571 17 586Q37 626 62 659T108 733H113Q125 733 133 726Q143 717 150 704T164 675T178 650Q194 626 210 614T241 586V563Z" />
<glyph unicode="&#xef;" glyph-name="idieresis" horiz-adv-x="217" d="M438 -54Q428 -58 420 -58Q414 -58 410 -55Q399 -50 392 -38T381 -10T372 19Q355 62 343 117T326 231Q322 280 322 330V350Q323 409 332 460Q345 472 360 472H364Q381 470 388 454Q391 448
391 441Q391 434 389 426Q384 409 382 390Q380 368 380 341V323Q381 285 382 260Q382 239 383 214T389 162T398 111T412 66Q418 49 428 34T444 4T451 -24Q451 -39 438 -54ZM227 629V625Q227 608 219 602Q211 594 199 594L198 595Q186 595 174 602T156 620Q152 625
152 631Q152 635 154 639Q157 649 177 656Q189 660 198 660Q208 660 215 655Q226 646 227 629ZM16 646Q36 658 49 658H54Q67 655 72 644Q74 637 74 628V619Q71 604 63 596Q55 588 43 588H41Q27 589 10 609Q9 613 9 616Q9 624 13 629Q16 634 16 642V646Z" />
<glyph unicode="&#xf0;" glyph-name="eth" horiz-adv-x="519" d="M487 313Q488 309 488 306Q488 301 486 300Q481 298 481 290Q481 258 476 223T462 153T439 88T410 36Q402 25 391 17T368 2T348 -15T333 -38Q308 -46 285 -51T243 -64Q195 -64 156 -48T92 -2T56
67Q51 86 51 108Q51 130 56 153V159Q56 200 70 236Q85 273 111 301T174 349T250 378Q284 386 320 386H333Q375 384 414 370Q408 433 377 486T307 577Q296 567 290 544T276 498T257 458Q248 444 232 444H227Q219 445 211 450T200 467V472Q200 482 206 488Q213 495
217 504Q226 526 234 555T253 611Q240 624 221 624H214Q190 621 166 617Q152 608 144 594T127 565T111 535T89 510Q80 513 73 517T59 527Q62 569 81 602T130 655T200 680Q210 681 221 681Q251 681 283 671Q293 680 298 696T309 726T327 748Q333 751 341 751Q349
751 360 748Q369 733 369 721V718Q367 704 361 692T346 667T333 641Q348 618 366 600T404 564Q416 540 428 514T451 460T469 403T477 343Q478 333 483 329Q487 325 487 316V313ZM420 283Q410 295 392 303T354 316T312 322H301Q286 322 273 320Q265 320 259 318T247
313T234 310Q231 309 227 309Q223 309 217 310Q197 301 177 282T140 238T112 185T100 129V110Q101 96 103 89Q104 87 111 83T120 73Q128 48 138 36T166 9Q185 7 200 2T230 -8Q278 3 314 31T376 99T412 186Q421 223 421 262Q421 272 420 283Z" />
<glyph unicode="&#xf1;" glyph-name="ntilde" horiz-adv-x="610" d="M564 357Q563 313 561 268T553 179T536 96T507 23Q508 17 508 11Q508 -1 504 -10Q497 -25 486 -32Q477 -39 466 -39Q464 -39 462 -38Q448 -37 437 -24Q436 -16 436 -10Q436 -4 437 2Q439 12
443 21T453 37T463 53Q480 98 491 156T503 273V277Q503 333 490 382Q476 433 443 464Q438 469 428 472T407 476H399Q391 476 384 475Q372 474 363 471Q323 457 288 425T226 348T187 251Q175 208 175 163Q175 153 176 143Q177 120 183 99T195 56T208 14T216 -31Q208
-42 197 -49Q188 -55 175 -55Q169 -55 163 -54Q145 -17 140 25T126 110Q119 147 111 188T93 268T73 345T52 414Q48 426 44 436T37 455Q36 460 36 464Q36 468 37 473Q39 481 49 491Q57 494 64 494Q73 494 80 490Q91 482 97 468T106 437T112 407Q121 375 130 348T142
300Q162 340 185 376T238 443T303 497T387 534H392Q434 534 461 519Q489 503 507 478T538 420T564 357ZM721 707Q723 701 723 695Q723 691 722 688Q720 678 717 669T709 651T701 634Q666 619 633 619Q631 618 629 618Q598 618 570 627Q539 635 511 649T457 677H447Q420
677 406 662Q397 652 397 639Q397 627 403 614Q395 610 387 606Q381 603 371 603H366Q353 621 353 640Q353 648 356 656Q363 683 380 700Q394 705 407 711T433 724H437Q455 724 477 716Q500 706 524 695T573 673T618 661Q620 660 623 660Q640 660 655 670Q671 680
681 710Q692 710 700 708Q704 706 710 706Q715 706 721 707Z" />
<glyph unicode="&#xf2;" glyph-name="ograve" horiz-adv-x="655" d="M606 324Q614 281 614 244Q614 209 607 179Q592 116 555 72T461 2T338 -37Q271 -35 216 -20T118 27Q100 40 89 58T68 97T51 138T31 181Q39 231 47 280T71 371Q94 399 124 427T190 476T267 509Q295
517 325 517Q338 517 352 515Q368 513 389 507T432 493T473 475T505 455Q515 446 523 436T538 416T555 396T579 381Q586 367 591 352T606 324ZM556 177Q559 195 559 213Q559 227 558 242Q553 276 552 308Q537 318 526 333T505 364T485 395T459 421Q427 433 399
446T338 461H332Q292 461 264 448Q233 434 205 415Q185 401 169 389T141 363T118 333T101 294Q92 256 92 222Q92 197 97 174Q109 120 144 80Q165 69 188 57T236 35T289 21Q303 18 318 18Q331 18 345 20Q379 25 414 39T478 74T528 121T556 177ZM652 610Q640 598
628 598Q627 598 627 599Q613 599 599 606T571 626T545 651Q533 662 517 676T493 705Q487 713 487 722Q487 726 489 730Q493 742 522 748Q529 736 539 726T560 707T581 687T599 664Q605 657 613 653T630 643T644 630T652 610Z" />
<glyph unicode="&#xf3;" glyph-name="oacute" horiz-adv-x="655" d="M606 324Q614 281 614 244Q614 209 607 179Q592 116 555 72T461 2T338 -37Q271 -35 216 -20T118 27Q100 40 89 58T68 97T51 138T31 181Q39 231 47 280T71 371Q94 399 124 427T190 476T267 509Q295
517 325 517Q338 517 352 515Q368 513 389 507T432 493T473 475T505 455Q515 446 523 436T538 416T555 396T579 381Q586 367 591 352T606 324ZM556 177Q559 195 559 213Q559 227 558 242Q553 276 552 308Q537 318 526 333T505 364T485 395T459 421Q427 433 399
446T338 461H332Q292 461 264 448Q233 434 205 415Q185 401 169 389T141 363T118 333T101 294Q92 256 92 222Q92 197 97 174Q109 120 144 80Q165 69 188 57T236 35T289 21Q303 18 318 18Q331 18 345 20Q379 25 414 39T478 74T528 121T556 177ZM687 732Q666 689
633 660T566 599Q555 596 542 593Q537 591 532 591Q524 591 516 595Q514 602 514 609Q514 617 518 624Q525 634 537 640T562 653T583 669Q598 689 615 705T646 742Q655 746 664 746Q667 746 671 745Q682 743 687 732Z" />
<glyph unicode="&#xf4;" glyph-name="ocircumflex" horiz-adv-x="655" d="M606 324Q614 281 614 244Q614 209 607 179Q592 116 555 72T461 2T338 -37Q271 -35 216 -20T118 27Q100 40 89 58T68 97T51 138T31 181Q39 231 47 280T71 371Q94 399 124 427T190 476T267
509Q295 517 325 517Q338 517 352 515Q368 513 389 507T432 493T473 475T505 455Q515 446 523 436T538 416T555 396T579 381Q586 367 591 352T606 324ZM556 177Q559 195 559 213Q559 227 558 242Q553 276 552 308Q537 318 526 333T505 364T485 395T459 421Q427
433 399 446T338 461H332Q292 461 264 448Q233 434 205 415Q185 401 169 389T141 363T118 333T101 294Q92 256 92 222Q92 197 97 174Q109 120 144 80Q165 69 188 57T236 35T289 21Q303 18 318 18Q331 18 345 20Q379 25 414 39T478 74T528 121T556 177ZM712 604Q697
595 685 595Q678 595 671 599Q654 608 640 627T614 668T589 704Q575 697 565 677T545 640T521 615Q517 612 513 612Q503 612 488 627Q508 667 533 700T579 774H584Q596 774 604 767Q614 758 621 745T635 716T649 691Q665 667 681 655T712 627V604Z" />
<glyph unicode="&#xf5;" glyph-name="otilde" horiz-adv-x="655" d="M606 324Q614 281 614 244Q614 209 607 179Q592 116 555 72T461 2T338 -37Q271 -35 216 -20T118 27Q100 40 89 58T68 97T51 138T31 181Q39 231 47 280T71 371Q94 399 124 427T190 476T267 509Q295
517 325 517Q338 517 352 515Q368 513 389 507T432 493T473 475T505 455Q515 446 523 436T538 416T555 396T579 381Q586 367 591 352T606 324ZM556 177Q559 195 559 213Q559 227 558 242Q553 276 552 308Q537 318 526 333T505 364T485 395T459 421Q427 433 399
446T338 461H332Q292 461 264 448Q233 434 205 415Q185 401 169 389T141 363T118 333T101 294Q92 256 92 222Q92 197 97 174Q109 120 144 80Q165 69 188 57T236 35T289 21Q303 18 318 18Q331 18 345 20Q379 25 414 39T478 74T528 121T556 177ZM773 697Q775 691
775 685Q775 681 774 678Q772 668 769 659T761 641T753 624Q718 609 685 609Q683 608 681 608Q650 608 622 617Q591 625 563 639T509 667H499Q472 667 458 652Q449 642 449 629Q449 617 455 604Q447 600 439 596Q433 593 423 593H418Q405 611 405 630Q405 638 408
646Q415 673 432 690Q446 695 459 701T485 714H489Q507 714 529 706Q552 696 576 685T625 663T670 651Q672 650 675 650Q692 650 707 660Q723 670 733 700Q744 700 752 698Q756 696 762 696Q767 696 773 697Z" />
<glyph unicode="&#xf6;" glyph-name="odieresis" horiz-adv-x="655" d="M606 324Q614 281 614 244Q614 209 607 179Q592 116 555 72T461 2T338 -37Q271 -35 216 -20T118 27Q100 40 89 58T68 97T51 138T31 181Q39 231 47 280T71 371Q94 399 124 427T190 476T267
509Q295 517 325 517Q338 517 352 515Q368 513 389 507T432 493T473 475T505 455Q515 446 523 436T538 416T555 396T579 381Q586 367 591 352T606 324ZM556 177Q559 195 559 213Q559 227 558 242Q553 276 552 308Q537 318 526 333T505 364T485 395T459 421Q427
433 399 446T338 461H332Q292 461 264 448Q233 434 205 415Q185 401 169 389T141 363T118 333T101 294Q92 256 92 222Q92 197 97 174Q109 120 144 80Q165 69 188 57T236 35T289 21Q303 18 318 18Q331 18 345 20Q379 25 414 39T478 74T528 121T556 177ZM688 649V645Q688
628 680 622Q672 614 660 614L659 615Q647 615 635 622T617 640Q613 645 613 651Q613 655 615 659Q618 669 638 676Q650 680 659 680Q669 680 676 675Q687 666 688 649ZM477 666Q497 678 510 678H515Q528 675 533 664Q535 657 535 648V639Q532 624 524 616Q516
608 504 608H502Q488 609 471 629Q470 633 470 636Q470 644 474 649Q477 654 477 662V666Z" />
<glyph unicode="&#xf7;" glyph-name="divide" horiz-adv-x="518" d="M304 489Q309 476 309 464Q309 452 304 441Q293 418 270 416H265Q245 416 238 430Q232 439 232 450Q232 456 234 462Q239 479 257 490Q266 495 277 495Q289 495 304 489ZM502 304Q497 298 494
290T485 274H114Q103 274 85 272Q71 270 59 270H49Q32 271 22 279Q15 284 15 294Q15 300 17 307Q19 314 25 316T39 320T54 324T64 331Q115 326 164 326Q198 326 230 328Q311 334 378 338Q391 335 405 335H448Q465 333 479 327T502 304ZM285 122Q277 122 272 120T262
116T250 112Q247 111 244 111Q240 111 235 112Q218 121 217 140V153Q217 167 218 182Q237 193 252 193H256Q273 191 283 181T294 155V152Q294 137 285 122Z" />
<glyph unicode="&#xf8;" glyph-name="oslash" horiz-adv-x="640" d="M620 528Q617 505 607 491T582 465T554 442T529 415Q536 404 546 391T567 362T585 330T596 294Q598 281 598 268Q598 255 596 242Q592 215 584 189T566 137T549 87Q532 69 512 55T476 20Q458
17 440 10T402 -4T362 -16Q345 -20 326 -20H319Q276 -18 237 -6T168 27Q156 20 148 9T132 -15T116 -38T95 -57Q72 -52 64 -43Q58 -36 58 -27V-23Q60 -12 68 0T87 24T108 47T121 67Q107 106 87 138T51 207V217Q51 304 84 364Q118 427 175 468Q207 485 245 494T325
508Q346 506 370 504T417 497T460 481T492 455Q501 459 514 472T541 501T567 529T586 542H602Q608 540 616 535L620 528ZM523 324Q511 332 504 344T482 361Q411 290 341 221T208 70Q238 50 278 44Q299 41 320 41Q338 41 356 43Q395 48 429 62T482 100Q499 120 512
146T532 202Q537 226 537 251V263Q535 294 523 324ZM452 415Q430 439 398 448Q371 456 341 456H332Q297 454 264 445T205 425Q159 393 131 338Q109 296 109 245Q109 228 111 211Q123 202 129 188T141 158T154 129T175 107Q205 150 240 188T312 262T384 336T452
415Z" />
<glyph unicode="&#xf9;" glyph-name="ugrave" horiz-adv-x="593" d="M547 307V296Q547 274 544 254Q542 239 542 227Q542 218 543 210Q531 158 506 111T445 30T362 -23Q328 -36 290 -36Q275 -36 259 -34Q207 -28 171 -2T110 64T74 155T59 263Q58 280 58 299Q58
318 59 339Q60 359 60 380Q60 400 59 420Q58 438 54 459Q51 471 51 480Q51 486 52 490Q55 502 62 508T80 515H83Q91 515 99 512Q108 507 116 497Q117 465 117 432Q117 399 116 366Q115 347 115 329Q115 283 119 240Q124 180 142 130T202 46Q214 37 229 32T262 25T297
23T333 22Q387 42 419 81T477 169Q483 205 487 236T493 299V362Q491 393 487 430Q480 439 476 453Q473 463 473 474V479Q474 492 480 502T500 514H504Q516 514 522 509Q529 503 532 493Q535 484 535 473V470Q534 457 533 447Q533 434 535 416T539 378T544 339T547
307ZM621 559Q609 547 597 547Q596 547 596 548Q582 548 568 555T540 575T514 600Q502 611 486 625T462 654Q456 662 456 671Q456 675 458 679Q462 691 491 697Q498 685 508 675T529 656T550 636T568 613Q574 606 582 602T599 592T613 579T621 559Z" />
<glyph unicode="&#xfa;" glyph-name="uacute" horiz-adv-x="593" d="M547 307V296Q547 274 544 254Q542 239 542 227Q542 218 543 210Q531 158 506 111T445 30T362 -23Q328 -36 290 -36Q275 -36 259 -34Q207 -28 171 -2T110 64T74 155T59 263Q58 280 58 299Q58
318 59 339Q60 359 60 380Q60 400 59 420Q58 438 54 459Q51 471 51 480Q51 486 52 490Q55 502 62 508T80 515H83Q91 515 99 512Q108 507 116 497Q117 465 117 432Q117 399 116 366Q115 347 115 329Q115 283 119 240Q124 180 142 130T202 46Q214 37 229 32T262 25T297
23T333 22Q387 42 419 81T477 169Q483 205 487 236T493 299V362Q491 393 487 430Q480 439 476 453Q473 463 473 474V479Q474 492 480 502T500 514H504Q516 514 522 509Q529 503 532 493Q535 484 535 473V470Q534 457 533 447Q533 434 535 416T539 378T544 339T547
307ZM687 691Q666 648 633 619T566 558Q555 555 542 552Q537 550 532 550Q524 550 516 554Q514 561 514 568Q514 576 518 583Q525 593 537 599T562 612T583 628Q598 648 615 664T646 701Q655 705 664 705Q667 705 671 704Q682 702 687 691Z" />
<glyph unicode="&#xfb;" glyph-name="ucircumflex" horiz-adv-x="593" d="M547 307V296Q547 274 544 254Q542 239 542 227Q542 218 543 210Q531 158 506 111T445 30T362 -23Q328 -36 290 -36Q275 -36 259 -34Q207 -28 171 -2T110 64T74 155T59 263Q58 280 58 299Q58
318 59 339Q60 359 60 380Q60 400 59 420Q58 438 54 459Q51 471 51 480Q51 486 52 490Q55 502 62 508T80 515H83Q91 515 99 512Q108 507 116 497Q117 465 117 432Q117 399 116 366Q115 347 115 329Q115 283 119 240Q124 180 142 130T202 46Q214 37 229 32T262 25T297
23T333 22Q387 42 419 81T477 169Q483 205 487 236T493 299V362Q491 393 487 430Q480 439 476 453Q473 463 473 474V479Q474 492 480 502T500 514H504Q516 514 522 509Q529 503 532 493Q535 484 535 473V470Q534 457 533 447Q533 434 535 416T539 378T544 339T547
307ZM661 553Q646 544 634 544Q627 544 620 548Q603 557 589 576T563 617T538 653Q524 646 514 626T494 589T470 564Q466 561 462 561Q452 561 437 576Q457 616 482 649T528 723H533Q545 723 553 716Q563 707 570 694T584 665T598 640Q614 616 630 604T661 576V553Z"
/>
<glyph unicode="&#xfc;" glyph-name="udieresis" horiz-adv-x="593" d="M547 307V296Q547 274 544 254Q542 239 542 227Q542 218 543 210Q531 158 506 111T445 30T362 -23Q328 -36 290 -36Q275 -36 259 -34Q207 -28 171 -2T110 64T74 155T59 263Q58 280 58 299Q58
318 59 339Q60 359 60 380Q60 400 59 420Q58 438 54 459Q51 471 51 480Q51 486 52 490Q55 502 62 508T80 515H83Q91 515 99 512Q108 507 116 497Q117 465 117 432Q117 399 116 366Q115 347 115 329Q115 283 119 240Q124 180 142 130T202 46Q214 37 229 32T262 25T297
23T333 22Q387 42 419 81T477 169Q483 205 487 236T493 299V362Q491 393 487 430Q480 439 476 453Q473 463 473 474V479Q474 492 480 502T500 514H504Q516 514 522 509Q529 503 532 493Q535 484 535 473V470Q534 457 533 447Q533 434 535 416T539 378T544 339T547
307ZM668 629V625Q668 608 660 602Q652 594 640 594L639 595Q627 595 615 602T597 620Q593 625 593 631Q593 635 595 639Q598 649 618 656Q630 660 639 660Q649 660 656 655Q667 646 668 629ZM457 646Q477 658 490 658H495Q508 655 513 644Q515 637 515 628V619Q512
604 504 596Q496 588 484 588H482Q468 589 451 609Q450 613 450 616Q450 624 454 629Q457 634 457 642V646Z" />
<glyph unicode="&#xfd;" glyph-name="yacute" horiz-adv-x="584" d="M883 57Q899 37 903 5Q904 -6 904 -15Q904 -36 899 -53Q891 -79 874 -89Q868 -93 862 -93Q848 -93 829 -76V-68Q829 -61 830 -56Q832 -49 835 -42T840 -29T843 -13Q842 9 836 22T817 42T787
52T746 57Q744 -1 740 -62T726 -180T696 -289T646 -378T568 -439T458 -461Q413 -452 385 -428T334 -371Q323 -322 318 -275Q317 -263 317 -251Q317 -214 328 -173Q330 -164 336 -150T349 -120T364 -92T378 -70Q385 -61 395 -56T415 -43Q428 -30 437 -15T465 14Q476
22 492 29T522 44Q560 64 595 76T679 101Q679 128 679 157T677 216T674 274T669 328Q655 320 647 308T633 282T620 254T605 228Q595 215 579 206T545 184Q528 172 511 160T474 139T430 128Q425 127 419 127Q399 127 375 134Q345 155 330 185T312 252Q310 265 310
280Q310 302 314 326Q319 364 328 402T350 475T371 539Q382 546 395 546Q400 546 405 545Q410 538 415 532T425 518Q415 480 400 436T375 347Q369 315 369 284Q369 272 370 260Q373 218 401 184Q412 182 421 182Q427 182 433 183Q447 185 458 189T478 200T498 214Q514
225 530 232T558 254Q570 268 579 285T596 320T614 352T639 378Q648 414 659 450Q669 482 669 518V525Q680 530 691 535Q697 538 703 538Q709 538 715 535Q723 524 726 510T731 478V470Q731 457 730 444Q728 427 726 412Q729 378 730 344T732 274T734 200T739 121Q752
118 761 116T780 111T799 106T823 103Q830 97 837 93T851 85T866 75T883 57ZM682 7Q682 10 683 16T684 28Q684 34 682 38T672 44Q660 39 649 35T625 29T601 24T578 17Q570 13 560 5T538 -10Q523 -19 506 -30T474 -53T444 -78T421 -103Q407 -123 396 -152T379 -213Q374
-241 374 -269V-278Q375 -311 385 -338T415 -383T468 -404Q477 -405 485 -405Q517 -405 541 -392Q570 -377 591 -352T626 -297T655 -240Q666 -183 675 -121Q682 -71 682 -17V7ZM716 752Q695 709 662 680T595 619Q584 616 571 613Q566 611 561 611Q553 611 545 615Q543
622 543 629Q543 637 547 644Q554 654 566 660T591 673T612 689Q627 709 644 725T675 762Q684 766 693 766Q696 766 700 765Q711 763 716 752Z" />
<glyph unicode="&#xfe;" glyph-name="thorn" horiz-adv-x="738" d="M663 399Q685 367 697 328Q708 291 708 251V248Q707 207 695 165T659 85Q655 79 648 70T634 53T619 37T606 25Q601 22 592 19T571 12T548 7T528 2Q523 1 520 -2T513 -7H510Q505 -7 502 -5Q496
-3 488 -3Q478 -4 469 -8T451 -12Q437 -11 417 -5T384 8Q373 14 365 24T345 43Q333 52 323 58T306 72T298 92V94Q298 105 306 121Q315 124 322 124Q332 124 340 119Q353 111 364 99T386 73T413 54Q444 43 473 43Q490 43 505 47Q548 56 580 84T632 153T654 242V250Q654
278 648 302Q641 328 629 350T600 392T566 429Q517 455 471 455H461Q410 452 359 430Q327 416 295 401T241 359Q251 306 259 250T271 135Q272 103 272 71Q272 43 271 16Q268 -45 255 -106Q246 -149 240 -191T215 -262Q203 -280 181 -291T135 -304Q132 -305 129
-305Q109 -305 92 -294Q73 -283 67 -255Q51 -182 51 -105Q51 -98 52 -91Q53 -7 68 74T112 229T179 360Q175 374 172 385T165 407Q160 427 152 451T133 499T111 547T87 587Q76 602 63 614T40 638T27 665Q25 669 25 674Q25 684 31 697Q43 706 53 706Q55 706 58 705Q70
702 79 692T97 667T114 642Q146 600 173 542T222 419Q236 424 249 432T276 448T303 464T333 477Q338 479 344 479H347Q348 478 350 478Q355 478 361 480Q374 484 388 491T417 503T452 511Q461 513 471 513Q482 513 494 511Q526 501 550 492T593 471T629 442T663
399ZM211 240Q208 256 202 272T193 290Q191 288 190 285T187 280Q169 241 152 190T122 84T101 -30Q96 -71 96 -109Q96 -126 97 -142Q99 -171 106 -201T135 -251Q153 -248 164 -232T184 -191T197 -140T206 -89Q212 -50 215 -5T220 86V101Q220 138 218 171Q215 211
211 240Z" />
<glyph unicode="&#xff;" glyph-name="ydieresis" horiz-adv-x="584" d="M629 57Q645 37 649 5Q650 -6 650 -15Q650 -36 645 -53Q637 -79 620 -89Q614 -93 608 -93Q594 -93 575 -76V-68Q575 -61 576 -56Q578 -49 581 -42T586 -29T589 -13Q588 9 582 22T563 42T533
52T492 57Q490 -1 486 -62T472 -180T442 -289T392 -378T314 -439T204 -461Q159 -452 131 -428T80 -371Q69 -322 64 -275Q63 -263 63 -251Q63 -214 74 -173Q76 -164 82 -150T95 -120T110 -92T124 -70Q131 -61 141 -56T161 -43Q174 -30 183 -15T211 14Q222 22 238
29T268 44Q306 64 341 76T425 101Q425 128 425 157T423 216T420 274T415 328Q401 320 393 308T379 282T366 254T351 228Q341 215 325 206T291 184Q274 172 257 160T220 139T176 128Q171 127 165 127Q145 127 121 134Q91 155 76 185T58 252Q56 265 56 280Q56 302
60 326Q65 364 74 402T96 475T117 539Q128 546 141 546Q146 546 151 545Q156 538 161 532T171 518Q161 480 146 436T121 347Q115 315 115 284Q115 272 116 260Q119 218 147 184Q158 182 167 182Q173 182 179 183Q193 185 204 189T224 200T244 214Q260 225 276 232T304
254Q316 268 325 285T342 320T360 352T385 378Q394 414 405 450Q415 482 415 518V525Q426 530 437 535Q443 538 449 538Q455 538 461 535Q469 524 472 510T477 478V470Q477 457 476 444Q474 427 472 412Q475 378 476 344T478 274T480 200T485 121Q498 118 507 116T526
111T545 106T569 103Q576 97 583 93T597 85T612 75T629 57ZM428 7Q428 10 429 16T430 28Q430 34 428 38T418 44Q406 39 395 35T371 29T347 24T324 17Q316 13 306 5T284 -10Q269 -19 252 -30T220 -53T190 -78T167 -103Q153 -123 142 -152T125 -213Q120 -241 120
-269V-278Q121 -311 131 -338T161 -383T214 -404Q223 -405 231 -405Q263 -405 287 -392Q316 -377 337 -352T372 -297T401 -240Q412 -183 421 -121Q428 -71 428 -17V7ZM688 659V655Q688 638 680 632Q672 624 660 624L659 625Q647 625 635 632T617 650Q613 655 613
661Q613 665 615 669Q618 679 638 686Q650 690 659 690Q669 690 676 685Q687 676 688 659ZM477 676Q497 688 510 688H515Q528 685 533 674Q535 667 535 658V649Q532 634 524 626Q516 618 504 618H502Q488 619 471 639Q470 643 470 646Q470 654 474 659Q477 664
477 672V676Z" />
<glyph unicode="&#x2013;" glyph-name="endash" horiz-adv-x="491" d="M467 295Q420 290 373 290Q349 289 325 289Q302 289 278 290Q231 290 185 292H96Q87 292 75 290T52 288Q41 288 31 291T15 305Q16 334 35 345Q83 348 138 348H248Q303 348 357 349T460 355Q471
346 475 327V318Q475 305 467 295Z" />
<glyph unicode="&#x2014;" glyph-name="emdash" horiz-adv-x="1007" d="M991 305Q978 293 962 289Q948 285 932 285Q930 285 928 286Q910 286 890 288T847 291Q748 291 647 289T449 281Q431 290 403 290Q374 290 342 287T277 281Q257 278 239 278Q230 278 221
279Q203 280 168 281T99 287T39 302Q15 312 15 330V331Q16 352 25 358Q31 362 39 362H43Q52 360 61 355T76 348Q89 344 103 344Q109 344 115 345Q125 346 134 346Q144 346 153 345Q177 343 202 336T253 328Q292 329 334 335T420 341Q482 341 547 340T675 339Q696
338 717 338Q758 338 798 339Q858 340 909 344Q917 347 928 352T951 359Q956 360 962 360Q967 360 973 359Q983 357 989 346V336Q990 331 990 327T992 317V314Q992 310 991 305Z" />
<glyph unicode="&#x2018;" glyph-name="quoteleft" horiz-adv-x="119" d="M113 455Q104 448 97 448Q94 448 91 450Q81 455 74 467T61 495T49 524Q43 538 35 551T20 577T9 601Q5 610 5 618V621Q16 632 26 637Q30 639 35 639Q40 639 47 636Q53 616 70 590T102 537T123
488Q125 482 125 477Q125 463 113 455Z" />
<glyph unicode="&#x2019;" glyph-name="quoteright" horiz-adv-x="129" d="M124 621V618Q124 610 121 601Q116 589 109 577T94 552T80 524Q75 511 70 495T57 467T39 450Q36 448 32 448Q25 448 16 455Q5 463 5 476Q5 482 7 488Q13 510 28 536T59 589T82 636Q89
639 95 639Q100 639 104 637Q113 632 124 621Z" />
<glyph unicode="&#x201a;" glyph-name="quotesinglbase" horiz-adv-x="129" d="M124 150V147Q124 139 121 130Q116 118 109 106T94 80T80 52Q75 39 70 23T57 -5T39 -21Q36 -23 32 -23Q25 -23 16 -16Q5 -8 5 5Q5 11 7 17Q13 39 28 65T59 118T82 165Q89 168 95 168Q100
168 104 166Q113 161 124 150Z" />
<glyph unicode="&#x201c;" glyph-name="quotedblleft" horiz-adv-x="251" d="M246 455Q237 448 229 448Q226 448 223 450Q213 455 206 467T193 495T181 524Q175 538 167 551T152 577T141 601Q137 610 137 618V621Q148 632 158 637Q162 639 167 639Q173 639 180
636Q186 616 202 590T234 537T255 488Q257 482 257 476Q257 463 246 455ZM117 448Q112 446 108 446H105Q100 447 96 450T87 456T77 461Q72 478 61 497T39 537T17 575T6 608Q5 610 5 612Q5 623 13 631Q21 639 46 639Q47 617 64 591T99 539T125 489Q127 481 127 473Q127
459 117 448Z" />
<glyph unicode="&#x201d;" glyph-name="quotedblright" horiz-adv-x="261" d="M215 639Q240 639 249 631Q256 624 256 613V608Q254 594 245 576T223 537T200 498T184 461Q179 460 175 457T166 450T156 446H153Q149 446 144 448Q134 459 134 473Q134 481 137 489Q145
513 162 539T196 591T215 639ZM124 621V618Q124 610 121 601Q116 589 109 577T94 552T80 524Q75 511 70 495T57 467T39 450Q36 448 32 448Q25 448 16 455Q5 463 5 476Q5 482 7 488Q13 510 28 536T59 589T82 636Q89 639 95 639Q100 639 104 637Q113 632 124 621Z"
/>
<glyph unicode="&#x201e;" glyph-name="quotedblbase" horiz-adv-x="261" d="M215 168Q240 168 249 160Q256 153 256 142V137Q254 123 245 105T223 66T200 27T184 -10Q179 -11 175 -14T166 -21T156 -25H153Q149 -25 144 -23Q134 -12 134 2Q134 10 137 18Q145 42
162 68T196 120T215 168ZM124 150V147Q124 139 121 130Q116 118 109 106T94 80T80 52Q75 39 70 23T57 -5T39 -21Q36 -23 32 -23Q25 -23 16 -16Q5 -8 5 5Q5 11 7 17Q13 39 28 65T59 118T82 165Q89 168 95 168Q100 168 104 166Q113 161 124 150Z" />
<glyph unicode="&#x2022;" glyph-name="bullet" horiz-adv-x="214" d="M189 306Q187 290 177 277T151 254T119 241Q109 238 100 238Q94 238 88 239Q72 242 57 257T38 284Q35 292 35 301Q35 307 37 314Q41 329 50 341T73 362T102 373Q108 374 114 374Q125 374 135
372Q151 368 163 359T183 337Q189 325 189 310V306Z" />
<glyph unicode="&#x2039;" glyph-name="guilsinglleft" horiz-adv-x="238" d="M246 35Q248 25 248 16Q248 -1 240 -14Q229 -29 212 -29Q208 -29 203 -28Q191 -26 186 -14T173 9Q158 27 137 47T94 86T52 124T16 156Q15 161 15 165Q15 176 20 183Q25 192 26 206Q51
232 73 261T116 322T156 386T196 450Q204 453 211 453Q219 453 226 450Q241 444 243 430V426Q243 420 237 414Q229 407 223 396Q217 385 209 370T191 339T172 307T153 276Q147 266 139 258T126 243Q116 226 107 208T83 179Q98 161 116 145T153 114T188 82T220 45Q225
42 233 41T246 35Z" />
<glyph unicode="&#x203a;" glyph-name="guilsinglright" horiz-adv-x="239" d="M223 226Q222 212 208 202T180 173Q172 162 169 148T160 129Q151 121 140 113Q130 105 130 88V82Q112 73 100 59T78 29T59 -4T36 -35Q9 -34 -1 -25Q-10 -18 -10 -6V-4Q-9 9 0 25T21
58T46 88T66 112Q75 123 81 135T93 156Q104 169 119 188T143 223Q130 254 110 277T70 323T32 372T6 433Q13 445 27 448Q32 449 39 449Q47 449 56 447Q70 418 92 390T136 336Q144 328 150 320T163 303Q166 299 173 298T183 293Q184 292 184 290Q184 289 183 287Q182
284 182 283Q182 281 183 280Q187 272 194 266T207 254T218 242T223 226Z" />
</font>
</defs>
</svg>
