<?xml version="1.0" standalone="no"?>
<!DOCTYPE svg PUBLIC "-//W3C//DTD SVG 1.1//EN" "http://www.w3.org/Graphics/SVG/1.1/DTD/svg11.dtd">
<svg xmlns="http://www.w3.org/2000/svg">
<defs >
<font id="Suranna" horiz-adv-x="382" ><font-face
    font-family="Suranna"
    units-per-em="780"
    panose-1="2 0 6 0 0 0 0 0 0 0"
    ascent="1101"
    descent="-607"
    alphabetic="0" />
<glyph unicode=" " glyph-name="space" horiz-adv-x="146" />
<glyph unicode="!" glyph-name="exclam" horiz-adv-x="157" d="M94 -6T79 -6T53 5T43 31T53 56T78 66T104 56T115 31T105 5ZM86 102H71Q70 190 58 313T45 456T54 488T78 499T103 488T113 456T101 313T86 102Z" />
<glyph unicode="&quot;" glyph-name="quotedbl" horiz-adv-x="167" d="M55 348H45Q42 389 35 426T27 474T33 491T50 499T67 492T73 474T66 427T55 348ZM123 348H113Q110 389 103 426T95 474T101 491T118 499T135 492T141 474T134 427T123 348Z" />
<glyph unicode="#" glyph-name="numbersign" horiz-adv-x="357" d="M43 236V264H111L145 441H172L139 264H234L268 441H295L262 264H333V236H257L243 157H313V130H237L213 0H185L209 130H114L89 0H62L85 130H22V157H91L106 236H43ZM134 236L119 157H214L229 236H134Z" />
<glyph unicode="$" glyph-name="dollar" horiz-adv-x="404" d="M219 -13L210 -12V-65H200V-11Q151 -7 106 21L54 -6H40V152H54L107 38Q149 9 200 2V221L150 234Q96 248 69 281T42 360Q42 426 80 466T186 506Q195 506 200 505V551H210V504Q213 504 222 502V551H231V502Q261
497 287 486L332 506H345V379H332L287 469Q261 482 231 487V288L268 279Q322 265 348 233T374 135T336 30T231 -12V-65H222V-13H219ZM71 392Q71 329 158 307L200 296V491Q196 492 186 491Q133 491 102 464T71 392ZM252 208L231 213V2Q284 4 316 32T348 104T326
172T252 208ZM210 2Q214 1 222 2V215L210 218V2ZM222 489L210 491V293L222 290V489Z" />
<glyph unicode="%" glyph-name="percent" horiz-adv-x="507" d="M389 -3Q344 -3 318 31T291 131Q291 197 317 231T389 265Q433 265 459 231T486 131Q486 66 460 32T389 -3ZM438 100V163Q438 252 389 252Q339 252 339 163V100Q339 10 389 10Q438 10 438 100ZM119
228Q75 228 49 262T22 363Q22 428 48 462T119 496Q164 496 190 462T217 363Q217 297 191 263T119 228ZM169 331V393Q169 483 119 483Q70 483 70 393V331Q70 242 119 242Q169 242 169 331ZM393 493L147 0H115L362 493H393Z" />
<glyph unicode="&amp;" glyph-name="ampersand" horiz-adv-x="503" d="M273 178Q211 178 211 145Q211 127 230 127T258 144Q288 137 288 110Q288 95 278 84T248 73T213 93T197 147T223 205T295 231Q324 231 360 226T421 220T462 229T480 254Q480 272 461 272T433
254Q403 261 403 288Q403 303 413 314T444 325T478 307T493 261Q493 164 401 164Q374 164 357 167Q362 142 362 122Q362 58 326 23T229 -13Q130 -13 81 27T32 133T79 234T202 273V276Q126 285 89 312T52 394T94 478T210 506Q260 506 293 482T327 417Q327 397 316
386T289 374T264 383T254 410Q280 422 279 450Q279 468 263 479T211 491T150 467T125 401Q125 341 159 313T262 281V268Q116 258 116 134Q116 73 149 38T233 2T315 32T347 120Q347 143 340 169Q332 171 317 172Q290 178 273 178Z" />
<glyph unicode="&apos;" glyph-name="quotesingle" horiz-adv-x="99" d="M55 348H45Q42 389 35 426T27 474T33 491T50 499T67 492T73 474T66 427T55 348Z" />
<glyph unicode="(" glyph-name="parenleft" horiz-adv-x="211" d="M96 220Q96 73 135 -6T216 -105L212 -120Q124 -95 74 -4T23 220T73 442T212 559L216 545Q96 502 96 220Z" />
<glyph unicode=")" glyph-name="parenright" horiz-adv-x="211" d="M116 220Q116 73 77 -6T-4 -105L0 -120Q88 -95 138 -4T189 220T139 442T0 559L-4 545Q116 502 116 220Z" />
<glyph unicode="*" glyph-name="asterisk" horiz-adv-x="277" d="M135 354L122 448Q122 455 126 460T138 465T151 460T156 449T150 401T143 354Q149 357 180 382T218 412T229 416T239 409T243 395T234 383Q228 379 190 366T147 348Q152 344 190 329T235 310T243
300T240 287T230 280T218 283T181 311T143 340L156 247Q156 240 152 235T139 230Q122 231 122 247Q122 253 128 293T135 340Q130 337 98 312T62 283T51 280T40 285T35 298T42 310T87 329T130 348Q125 352 87 365T43 383Q34 388 34 396T39 409T50 414T61 411T98
383T135 354Z" />
<glyph unicode="+" glyph-name="plus" horiz-adv-x="323" d="M150 361H173V231H303V209H173V78H150V209H21V231H150V361Z" />
<glyph unicode="," glyph-name="comma" horiz-adv-x="139" d="M37 -100L30 -90Q49 -79 64 -59T79 -18Q79 -6 65 -6T40 5T29 31Q29 47 40 56T69 66T101 51T114 9Q114 -62 37 -100Z" />
<glyph unicode="-" glyph-name="hyphen" horiz-adv-x="210" d="M38 158V179H173V158H38Z" />
<glyph unicode="." glyph-name="period" horiz-adv-x="131" d="M40 4Q30 14 30 30T40 56T66 66Q81 66 92 56T103 31Q103 15 93 5T67 -6T40 4Z" />
<glyph unicode="/" glyph-name="slash" horiz-adv-x="268" d="M243 431L52 0H20L212 431H243Z" />
<glyph unicode="0" glyph-name="zero" horiz-adv-x="425" d="M391 120T343 54T213 -13T83 54T35 246Q35 371 82 438T212 505T343 439T391 246ZM312 187V307Q312 401 286 446T213 491Q167 491 141 446T114 307V187Q114 92 140 47T213 2Q258 2 285 46T312 187Z" />
<glyph unicode="1" glyph-name="one" horiz-adv-x="209" d="M32 480V493H137V18L180 13V0H32V13L75 18V475L32 480Z" />
<glyph unicode="2" glyph-name="two" horiz-adv-x="374" d="M332 156V0H22V47L152 180Q258 286 258 388T171 491Q141 491 118 475T95 428T127 382Q127 360 114 349T81 337T48 351T34 391Q34 441 78 473T189 506T293 470T329 374T281 263Q258 238 209 194L61 65H291L316
156H332Z" />
<glyph unicode="3" glyph-name="three" horiz-adv-x="378" d="M117 268V281Q182 285 218 316T254 395T232 466T173 491T118 480T99 448Q99 416 130 401Q130 380 117 369T86 357T54 371T40 409Q40 450 81 478T185 506T287 478T327 397Q327 295 177 276V273Q254
269 301 232T348 132T301 28T164 -13Q106 -13 65 19T24 100Q24 125 38 139T72 153T104 142T118 107Q86 92 86 63T106 18T168 2T235 35T263 128Q263 258 117 268Z" />
<glyph unicode="4" glyph-name="four" horiz-adv-x="358" d="M0 118V131L261 493H276V147H332V118H276V22L332 13V0H151V13L208 22V118H0ZM30 147H208V393L30 147Z" />
<glyph unicode="5" glyph-name="five" horiz-adv-x="371" d="M77 279L66 287L94 493H257Q294 493 311 499T334 526L348 525Q344 465 319 443T248 421H100L85 299Q115 307 149 307Q232 307 285 260T339 143Q339 85 295 38Q248 -13 149 -13Q96 -13 56 19T16 100Q16
125 29 139T62 153T95 142T109 107Q77 92 77 63T98 18T154 2Q200 2 227 41T254 148T222 253T138 290Q110 289 77 279Z" />
<glyph unicode="6" glyph-name="six" horiz-adv-x="396" d="M111 329V261Q149 307 214 307T323 266T367 150T319 31T201 -13Q107 -13 70 63Q35 132 35 254T83 441T217 506Q275 506 313 482T352 422Q352 401 339 387T307 372T277 381T266 407Q284 420 284 441T265
477T217 493Q112 493 111 329ZM292 180Q292 292 207 292Q177 292 151 276T111 231V141Q111 1 201 2Q245 2 268 33T292 119V180Z" />
<glyph unicode="7" glyph-name="seven" horiz-adv-x="305" d="M170 0H85Q95 89 142 176Q164 215 183 251Q238 348 264 429H58L40 356H24V493H295Q288 430 269 360T230 239Q178 104 170 0Z" />
<glyph unicode="8" glyph-name="eight" horiz-adv-x="395" d="M32 116Q32 193 103 241Q120 253 145 265L117 284Q51 331 51 386T95 473T197 506T297 478T339 406T316 334T250 282Q296 253 315 237T351 192T367 132Q367 65 317 26T194 -13T76 21T32 116ZM164 254Q94
200 94 109Q94 66 119 34T195 2T277 29T308 92T291 154T231 211L164 254ZM158 491T132 471T105 423T120 375T167 334L232 292Q283 328 283 400Q283 440 259 465T196 491Z" />
<glyph unicode="9" glyph-name="nine" horiz-adv-x="396" d="M180 0Q285 0 285 164V232Q248 186 182 186T73 227T30 343T78 462T196 506Q289 506 327 430Q362 361 362 239T314 52T180 -13Q122 -13 84 11T46 71Q46 92 59 106T90 121T119 112T130 86Q113 73 113
52T132 16T180 0ZM104 313Q104 201 190 201Q219 201 245 217T286 262L287 348V352Q287 492 196 491Q152 491 128 460T104 374V313Z" />
<glyph unicode=":" glyph-name="colon" horiz-adv-x="149" d="M49 4Q39 14 39 30T49 56T75 66Q89 66 100 56T111 31Q111 15 101 5T75 -6T49 4ZM49 220Q39 231 39 246T49 272T75 283Q89 283 100 273T111 247Q111 231 101 221T75 210T49 220Z" />
<glyph unicode=";" glyph-name="semicolon" horiz-adv-x="165" d="M52 220Q42 231 42 246T53 272T79 283Q93 283 104 273T115 247Q115 231 105 221T78 210T52 220ZM49 -100L43 -90Q61 -79 76 -59T91 -18Q91 -6 77 -6T53 5T42 31T52 56T81 66T113 51T126 9Q126
-62 49 -100Z" />
<glyph unicode="&lt;" glyph-name="less" horiz-adv-x="299" d="M19 214V226L259 356V332L52 220L259 109V85L19 214Z" />
<glyph unicode="=" glyph-name="equal" horiz-adv-x="371" d="M44 157V181H327V157H44ZM44 259V283H327V259H44Z" />
<glyph unicode="&gt;" glyph-name="greater" horiz-adv-x="299" d="M280 226V214L40 85V109L247 220L40 332V356L280 226Z" />
<glyph unicode="?" glyph-name="question" horiz-adv-x="321" d="M159 -6T144 -6T118 5T107 31T117 56T143 66T169 56T180 31T170 5ZM137 102Q137 168 167 227Q180 251 192 275Q222 333 223 379Q223 442 205 466T156 491T102 476T79 431T110 388Q110 367 98 355T67
343T35 357T21 395Q21 443 63 474T168 506T264 478T298 384Q298 331 259 288Q243 269 224 248T189 207Q150 161 150 102H137Z" />
<glyph unicode="@" glyph-name="at" horiz-adv-x="542" d="M521 212T481 163T383 114T308 149Q274 115 226 115T152 144T126 222Q126 296 175 346T284 396Q310 396 330 385T360 355L370 386H420L362 180Q358 167 358 157Q358 133 392 133Q437 133 469 179T502
286Q502 376 443 429T285 483T118 415T49 247T117 80T284 13Q330 13 363 22T433 51L442 35Q403 13 368 4T284 -6Q177 -6 105 66T32 246T105 426T285 499T457 441T521 286Q521 212 481 163ZM305 173L353 334Q333 377 290 377T216 322T185 201Q185 171 198 154T237
136Q278 136 305 173Z" />
<glyph unicode="A" glyph-name="A" horiz-adv-x="443" d="M115 13V0H-17V13L43 38L222 506H231L400 22L457 13V0H276V13L326 21L273 167H110L60 38L115 13ZM195 397L115 180H269L195 397Z" />
<glyph unicode="B" glyph-name="B" horiz-adv-x="455" d="M424 133Q424 65 375 33T241 0H24V13L80 22V471L24 480V493H212Q310 493 351 466T393 378Q393 289 280 265V261Q424 242 424 133ZM241 250H148V15H241Q293 15 322 45T352 133V139Q352 195 323 222T241
250ZM212 477H148V266H216Q265 266 291 294T318 373V377Q319 477 212 477Z" />
<glyph unicode="C" glyph-name="C" horiz-adv-x="455" d="M403 506H416V352H403L365 448Q318 491 256 491T153 440T112 303V190Q112 103 150 53T255 2Q287 2 318 15T371 53L406 152H419V-6H406L362 25Q315 -13 260 -13Q154 -13 93 58T32 245T94 433T258 506Q314
506 362 470L403 506Z" />
<glyph unicode="D" glyph-name="D" horiz-adv-x="523" d="M24 493H259Q362 493 427 425T492 246T427 68T259 0H24V13L80 22V471L24 480V493ZM259 477H148V15H259Q328 15 370 63T413 199V294Q413 382 371 429T259 477Z" />
<glyph unicode="E" glyph-name="E" horiz-adv-x="440" d="M265 345H280V150H265L228 241H148V15H341L392 150H408V0H24V13L80 22V471L24 480V493H394V352H378L330 477H148V256H228L265 345Z" />
<glyph unicode="F" glyph-name="F" horiz-adv-x="411" d="M205 13V0H24V13L80 22V471L24 480V493H394V343H378L330 477H148V246H252L288 336H305V141H288L252 231H148V22L205 13Z" />
<glyph unicode="G" glyph-name="G" horiz-adv-x="500" d="M406 506H419V352H406L366 454Q322 491 259 491T153 441T111 303V190Q111 102 150 52T255 2Q308 2 337 37T367 134V204L310 213V226H494V213L436 204V134Q436 73 391 30T250 -13T93 58T32 246T95 434T261
506Q325 506 368 473L406 506Z" />
<glyph unicode="H" glyph-name="H" horiz-adv-x="529" d="M506 13V0H325V13L382 22V254H148V22L205 13V0H24V13L80 22V471L24 480V493H205V480L148 471V269H382V471L325 480V493H506V480L450 471V22L506 13Z" />
<glyph unicode="I" glyph-name="I" horiz-adv-x="227" d="M205 13V0H24V13L80 22V471L24 480V493H205V480L148 471V22L205 13Z" />
<glyph unicode="J" glyph-name="J" horiz-adv-x="274" d="M89 -13Q53 -13 29 3T4 45T15 83T43 96T70 87T83 69L85 60Q66 47 66 33T73 10T94 2Q114 2 124 28T137 122V471L80 480V493H259V480L202 471V122Q202 59 183 26Q160 -13 89 -13Z" />
<glyph unicode="K" glyph-name="K" horiz-adv-x="453" d="M472 0H290V13L346 21L185 265L148 228V22L205 13V0H24V13L80 22V471L24 480V493H205V480L148 471V249L348 453L281 480V493H423V480L373 453L233 313L430 22L472 13V0Z" />
<glyph unicode="L" glyph-name="L" horiz-adv-x="413" d="M24 493H205V480L148 471V15H332L382 150H399V0H24V13L80 22V471L24 480V493Z" />
<glyph unicode="M" glyph-name="M" horiz-adv-x="620" d="M81 38V471L24 480V493H161L315 97L473 493H598V480L541 471V22L598 13V0H416V13L473 22V453L291 -6H280L96 471V38L156 13V0H24V13L81 38Z" />
<glyph unicode="N" glyph-name="N" horiz-adv-x="498" d="M83 38V455L25 480V493H140L405 121V455L348 480V493H480V480L421 455V0H405L98 432V38L157 13V0H25V13L83 38Z" />
<glyph unicode="O" glyph-name="O" horiz-adv-x="526" d="M32 362T97 433T264 506Q365 506 430 434T496 247T431 60Q367 -13 265 -13T97 60T32 247ZM419 199V294Q419 383 376 437T264 491Q195 491 151 437T107 294V199Q107 108 151 55T264 2T376 55T419 199Z" />
<glyph unicode="P" glyph-name="P" horiz-adv-x="416" d="M217 191H148V22L205 13V0H24V13L80 22V471L24 480V493H217Q397 493 397 342Q397 191 217 191ZM209 477H148V206H209Q322 206 322 329V354Q322 477 209 477Z" />
<glyph unicode="Q" glyph-name="Q" horiz-adv-x="526" d="M378 -128V-142H357Q227 -142 227 -36V-9Q138 3 85 73T32 252T97 434Q163 505 264 506Q365 506 430 434T496 253T443 75T303 -9V-51Q303 -128 378 -128ZM109 107T152 55T263 2T375 54T419 199V294Q419
386 376 438T264 491T152 439T109 294V199Q109 107 152 55Z" />
<glyph unicode="R" glyph-name="R" horiz-adv-x="447" d="M450 43L460 32Q427 -6 387 -6T330 10T307 67L295 150Q282 239 196 239H148V22L205 13V0H24V13L80 22V471L24 480V493H196Q296 493 341 462T386 366Q386 260 258 243V239Q355 226 371 134L378 81Q383 50
389 36T412 21T450 43ZM196 477H148V254H217Q262 254 287 281T312 363V375Q312 477 196 477Z" />
<glyph unicode="S" glyph-name="S" horiz-adv-x="400" d="M331 506H344V379H331L287 469Q241 491 187 491T102 464T71 398T93 340T157 310L268 280Q322 267 348 234T374 134T332 27T225 -13T105 21L53 -6H40V152H53L106 38Q157 2 217 2T312 30T348 111Q348 149
326 170T251 205L149 231Q96 245 69 279T41 360Q41 426 79 466T180 506T286 486L331 506Z" />
<glyph unicode="T" glyph-name="T" horiz-adv-x="429" d="M397 356L352 477H249V22L306 13V0H125V13L181 22V477H80L32 356H15V493H416V356H397Z" />
<glyph unicode="U" glyph-name="U" horiz-adv-x="496" d="M423 135Q423 61 382 24T248 -13T115 28T73 135V471L16 480V493H198V480L141 471V135Q141 10 277 9Q408 9 408 135V455L351 480V493H482V480L423 455V135Z" />
<glyph unicode="V" glyph-name="V" horiz-adv-x="426" d="M209 -13L32 471L-17 480V493H164V480L105 472L241 103L374 452L303 480V493H435V480L391 453L214 -13H209Z" />
<glyph unicode="W" glyph-name="W" horiz-adv-x="666" d="M549 480V493H682V480L634 453L458 -13H453L333 320L208 -13H203L29 471L-13 480V493H159V480L103 471L235 106L325 341L279 471L223 480V493H405V480L352 472L486 107L619 452L549 480Z" />
<glyph unicode="X" glyph-name="X" horiz-adv-x="468" d="M149 13V0H2V13L62 47L203 236L47 471L-5 480V493H182V480L133 472L253 291L371 450L299 480V493H446V480L387 447L261 279L432 21L485 13V0H298V13L346 21L212 223L76 42L149 13Z" />
<glyph unicode="Y" glyph-name="Y" horiz-adv-x="416" d="M246 230V22L303 13V0H122V13L179 22V209L29 471L-19 480V493H167V480L109 471L239 247L357 450L284 480V493H422V480L374 450L246 230Z" />
<glyph unicode="Z" glyph-name="Z" horiz-adv-x="419" d="M49 493H388V477L100 15H315L378 141H394L379 0H17V15L305 477H114L51 360H35L49 493Z" />
<glyph unicode="[" glyph-name="bracketleft" horiz-adv-x="190" d="M185 -114H53V553H185V534H115V-96H185V-114Z" />
<glyph unicode="\" glyph-name="backslash" horiz-adv-x="268" d="M217 0L26 431H58L249 0H217Z" />
<glyph unicode="]" glyph-name="bracketright" horiz-adv-x="190" d="M7 -114H139V553H7V534H77V-96H7V-114Z" />
<glyph unicode="^" glyph-name="asciicircum" horiz-adv-x="353" d="M164 416H189L315 164H284L176 377L69 164H38L164 416Z" />
<glyph unicode="_" glyph-name="underscore" horiz-adv-x="282" d="M283 -48V-70H0V-48H283Z" />
<glyph unicode="`" glyph-name="grave" horiz-adv-x="135" d="M-2 423Q-12 432 -12 444T-4 465T20 474T43 457L88 359L79 352L-2 423Z" />
<glyph unicode="a" glyph-name="a" horiz-adv-x="343" d="M225 61Q209 29 179 12T111 -6T48 14T23 71T38 128Q80 183 203 183H225V243Q225 311 163 311Q135 311 118 298T100 268T116 246Q116 230 105 219T77 207Q62 207 51 218T39 247Q39 279 75 302T163 325Q288
325 287 230V41Q287 13 310 13Q333 13 333 40H346Q346 19 332 7T291 -6Q264 -6 245 10T225 61ZM225 105V168H203Q155 168 123 145T90 76Q90 51 103 37T144 23T196 45T225 105Z" />
<glyph unicode="b" glyph-name="b" horiz-adv-x="394" d="M13 0V13L55 18V475L13 480V493H117V254Q150 325 219 325T328 279T368 159T328 40T219 -6T117 64V0H13ZM301 129V190Q301 310 215 310Q174 310 146 277T117 194V129Q117 80 145 45T215 9Q301 9 301 129Z" />
<glyph unicode="c" glyph-name="c" horiz-adv-x="334" d="M235 228Q251 239 251 260T233 296T185 311Q141 311 117 280T93 190V129Q93 74 116 41T183 7T258 31T296 94H310Q302 48 268 21T185 -6Q117 -6 71 39T25 160T72 280T179 325T275 298T312 231Q312 210 302
200T274 189T246 200T235 228Z" />
<glyph unicode="d" glyph-name="d" horiz-adv-x="394" d="M277 0V64Q244 -6 176 -6T67 39T26 160Q26 235 66 280T175 325T277 254V475L234 480V493H339V18L382 13V0H277ZM94 190V129Q94 9 179 9Q220 9 248 43T277 124V194Q276 242 248 276T179 310Q94 310 94 190Z" />
<glyph unicode="e" glyph-name="e" horiz-adv-x="342" d="M263 32Q295 56 303 94H318Q309 48 274 21T188 -6Q118 -6 71 40Q25 85 25 158T70 278T179 325T281 287T320 190H93V129Q93 74 117 41Q143 7 187 7T263 32ZM183 311Q142 311 119 283T94 205H252Q252 311 183 311Z" />
<glyph unicode="f" glyph-name="f" horiz-adv-x="210" d="M16 0V13L59 18V301L16 307V319H59V371Q59 499 165 499Q201 499 225 482T249 434Q249 416 239 404T212 392T184 404T172 431Q194 437 194 460Q194 470 186 478T165 486Q141 486 131 464T121 390V319H201V307L121
301V18L194 13V0H16Z" />
<glyph unicode="g" glyph-name="g" horiz-adv-x="331" d="M100 104Q59 101 59 72Q59 58 75 51T115 43H216Q265 43 290 24T316 -41Q316 -100 276 -140T160 -180T47 -157T9 -94Q9 -71 25 -54T69 -37Q74 -37 92 -40Q73 -60 73 -90T94 -144T170 -168T261 -137T299
-67Q299 -40 285 -29T235 -17H115Q28 -17 28 44Q28 72 43 89T84 113Q36 145 36 204T71 294T159 325T246 298Q270 299 281 308T293 330T287 348T273 354Q273 370 284 380T311 391T338 381T349 349T328 309T258 287Q288 256 288 206T252 124T161 92Q126 92 100 104ZM229
194V224Q229 314 162 314T94 224V194Q94 151 110 127T161 103T212 127T229 194Z" />
<glyph unicode="h" glyph-name="h" horiz-adv-x="386" d="M271 235Q271 303 219 303T117 231V18L154 13V0H13V13L55 18V475L13 480V493H117V253Q167 325 237 325Q281 325 307 303T333 237V18L376 13V0H234V13L271 18V235Z" />
<glyph unicode="i" glyph-name="i" horiz-adv-x="176" d="M40 450T52 461T81 472T110 461T122 433T111 403T82 391T53 403T40 432ZM17 307V318H122V18L164 13V0H17V13L60 18V300L17 307Z" />
<glyph unicode="j" glyph-name="j" horiz-adv-x="163" d="M54 -120Q22 -120 2 -103T-19 -55Q-19 -36 -9 -25T18 -13T44 -21T55 -38L58 -46Q38 -58 38 -78Q38 -103 63 -103Q79 -103 89 -90T99 -52T77 11T55 82V301L9 307V319H116V-35Q117 -120 54 -120ZM36 450T48
461T77 472T106 461T118 433T107 403T78 391T49 403T36 432Z" />
<glyph unicode="k" glyph-name="k" horiz-adv-x="348" d="M13 0V13L55 18V475L13 480V493H117V177L258 292L205 307V319H321V307L281 292L179 209L323 18L356 13V0H212V13L249 18L133 171L117 158V18L154 13V0H13Z" />
<glyph unicode="l" glyph-name="l" horiz-adv-x="173" d="M11 480V493H119V18L162 13V0H11V13L58 18V475L11 480Z" />
<glyph unicode="m" glyph-name="m" horiz-adv-x="581" d="M225 0V13L262 18V235Q262 303 213 303T121 241V18L158 13V0H16V13L59 18V301L16 307V319H121V262Q168 325 231 325Q310 325 323 259Q371 325 435 325Q479 325 503 303T528 237V18L571 13V0H430V13L466
18V235Q466 303 417 303T325 241V18L362 13V0H225Z" />
<glyph unicode="n" glyph-name="n" horiz-adv-x="389" d="M275 235Q275 303 223 303T121 231V18L158 13V0H16V13L59 18V301L16 307V319H121V253Q171 325 241 325Q285 325 311 303T337 237V18L379 13V0H238V13L275 18V235Z" />
<glyph unicode="o" glyph-name="o" horiz-adv-x="369" d="M276 129V190Q276 246 254 278T185 311Q139 311 116 279T93 190V129Q93 74 116 41T185 7Q231 7 253 40T276 129ZM71 40Q25 86 25 159T70 278T184 325T299 279T344 160Q344 88 299 41T186 -6T71 40Z" />
<glyph unicode="p" glyph-name="p" horiz-adv-x="394" d="M117 319V254Q149 325 218 325T328 280T368 159T328 39T219 -6T117 64V-156L175 -162V-175H13V-162L55 -156V301L13 307V319H117ZM301 128V190Q301 309 215 310Q174 310 146 276T117 194V128Q117 79 145
44T215 9Q301 9 301 128Z" />
<glyph unicode="q" glyph-name="q" horiz-adv-x="394" d="M277 -156V64Q244 -6 176 -6T67 39T26 159T66 279T176 325T277 254V319H382V307L339 301V-156L382 -162V-175H204V-162L277 -156ZM94 190V128Q94 9 179 9Q220 9 248 43T277 123V194Q276 242 248 276T179
310Q94 309 94 190Z" />
<glyph unicode="r" glyph-name="r" horiz-adv-x="270" d="M16 0V13L59 18V301L16 307V319H121V272Q160 325 209 325Q232 325 250 313T268 282T257 252T228 241T198 256Q205 265 205 275T197 292T178 299Q154 299 121 249V18L170 13V0H16Z" />
<glyph unicode="s" glyph-name="s" horiz-adv-x="290" d="M88 55Q88 6 154 6Q188 6 213 23T238 64T221 99T165 124L85 149Q30 165 30 231Q30 271 62 298T145 325T225 308T254 261Q254 246 244 235T220 224T198 231T189 250Q201 259 202 274Q202 313 146 313Q106
313 83 297T59 260T67 230T100 213L198 183Q232 172 248 150T265 91T237 24T150 -6Q25 -6 25 62Q25 81 36 93T62 106Q91 106 99 80Q88 68 88 55Z" />
<glyph unicode="t" glyph-name="t" horiz-adv-x="212" d="M196 319V307L116 301V80Q116 14 163 15Q184 15 202 28L210 18Q182 -6 144 -6Q55 -6 55 79V301L10 307V319H55V371L116 386V319H196Z" />
<glyph unicode="u" glyph-name="u" horiz-adv-x="385" d="M115 319V83Q115 16 167 16Q220 16 269 81V301L225 307V319H330V18L374 13V0H269V59Q220 -6 149 -6Q104 -6 79 16T53 82V301L9 307V319H115Z" />
<glyph unicode="v" glyph-name="v" horiz-adv-x="327" d="M181 -13H164L32 301L-8 307V319H145V307L101 299L194 67L277 291L223 307V318H333V307L295 292L181 -13Z" />
<glyph unicode="w" glyph-name="w" horiz-adv-x="506" d="M362 -13H344L258 196L181 -13H164L32 301L-8 307V319H130V307L101 299L194 67L249 217L213 301L181 307V319H326V307L281 299L374 67L458 290L406 307V318H514V307L475 292L362 -13Z" />
<glyph unicode="x" glyph-name="x" horiz-adv-x="367" d="M8 0V13L49 28L153 151L38 301L1 307V319H151V307L113 300L197 192L284 292L235 307V318H348V307L304 290L206 179L331 18L370 13V0H220V13L256 18L164 137L69 27L118 13V0H8Z" />
<glyph unicode="y" glyph-name="y" horiz-adv-x="330" d="M337 318V307L295 291L156 -111Q144 -147 126 -163T74 -180T22 -164T2 -125T13 -91T44 -80T75 -100Q66 -112 66 -125T74 -147T94 -155Q123 -155 139 -111L176 -4L33 300L-8 307V318H145V307L102 299L205
79L279 291L225 307V318H337Z" />
<glyph unicode="z" glyph-name="z" horiz-adv-x="316" d="M46 227H27L34 319H286V304L95 15H231L272 100H292L285 0H23V15L214 304H83L46 227Z" />
<glyph unicode="{" glyph-name="braceleft" horiz-adv-x="192" d="M127 479L139 327Q139 284 116 256T49 220Q92 211 115 183T139 112L127 -39Q127 -77 138 -92T179 -107V-119Q124 -119 96 -98T67 -28Q67 -8 73 47T80 121Q80 215 7 214V225Q80 225 80 318Q80 337
74 392T67 468Q67 517 95 538T179 559V547Q150 547 139 532T127 479Z" />
<glyph unicode="|" glyph-name="bar" horiz-adv-x="129" d="M76 468V-148H55V468H76Z" />
<glyph unicode="}" glyph-name="braceright" horiz-adv-x="192" d="M66 479L54 327Q54 284 77 256T144 220Q101 211 78 183T54 112L66 -39Q66 -77 55 -92T14 -107V-119Q69 -119 97 -98T126 -28Q126 -8 120 47T113 121Q113 215 186 214V225Q113 225 113 318Q113
337 119 392T126 468Q126 517 98 538T14 559V547Q43 547 54 532T66 479Z" />
<glyph unicode="~" glyph-name="asciitilde" horiz-adv-x="327" d="M276 193L299 186Q297 179 289 162T273 135T252 117T225 108T197 115T176 129T157 148T139 167Q120 184 104 184T76 169T58 139L52 124Q29 131 29 130Q31 139 39 155T54 181T75 199T103 208T131
201T153 187T172 167Q203 132 224 132Q254 132 273 182L276 193Z" />
<glyph unicode="&#xa0;" glyph-name="uni00A0" horiz-adv-x="146" />
<glyph unicode="&#xa1;" glyph-name="exclamdown" horiz-adv-x="139" d="M86 325T71 325T45 314T35 288T45 263T70 253T96 263T107 288T97 314ZM78 217H63Q62 129 50 6T37 -137T46 -169T70 -180T95 -169T105 -137T93 6T78 217Z" />
<glyph unicode="&#xa2;" glyph-name="cent" horiz-adv-x="336" d="M192 408V325Q244 323 279 297T314 231Q314 210 303 200T276 189T248 200T237 228Q254 239 254 260T237 295T192 311V7Q232 9 261 32T299 94H313Q303 49 271 22T192 -6V-88H169V-5Q107 1 68 46T28
161T69 274T169 324V408H192ZM96 129Q96 80 114 48T169 9V310Q134 303 115 273T96 190V129Z" />
<glyph unicode="&#xa3;" glyph-name="sterling" horiz-adv-x="388" d="M39 252V276H105Q100 283 86 302T65 332Q46 363 46 397Q46 442 85 474T193 506T306 474T351 391Q351 366 337 352T303 337T271 348T258 382Q290 398 290 428T267 474T208 491T149 469T125
405T146 311Q156 286 160 276H261V252H166Q169 235 169 221T167 198H261V175H162Q155 151 139 128T114 97T83 69H295L333 168H350V0H40V47Q42 49 59 66T83 90Q120 136 127 175H39V198H130V203Q130 228 118 252H39Z" />
<glyph unicode="&#xa4;" glyph-name="currency" horiz-adv-x="332" d="M35 106L81 152Q58 182 58 220T82 290L36 335L52 352L99 307Q128 330 166 330T234 306L281 353L299 336L251 289Q276 260 276 222T251 152L299 107L281 90L235 136Q205 112 167 112T98 136L52
89L35 106ZM202 136T227 161T253 221T228 281T167 307T106 282T81 221T106 161T166 136Z" />
<glyph unicode="&#xa5;" glyph-name="yen" horiz-adv-x="477" d="M116 212V235H201L67 471L18 480V493H204V480L147 471L276 247L395 450L321 480V493H459V480L412 450L287 235H381V212H284V169H381V146H284V22L340 13V0H160V13L217 22V146H116V169H217V209L215 212H116Z" />
<glyph unicode="&#xa6;" glyph-name="brokenbar" horiz-adv-x="135" d="M80 468V222H55V468H80ZM80 99V-148H55V99H80Z" />
<glyph unicode="&#xa7;" glyph-name="section" horiz-adv-x="321" d="M42 396Q42 499 154 499Q208 499 240 480T273 428Q273 410 262 398T236 386T211 393T201 416Q216 425 216 443T198 474T148 487T92 471T67 426Q67 407 76 392T93 370T119 352L224 302Q292 269
292 212Q292 146 238 100Q280 66 280 17T250 -59T166 -85T78 -66T44 -14Q44 4 55 16T82 28T107 20T116 -2Q101 -13 101 -30T121 -59T171 -72T228 -56T254 -12Q254 7 245 22T226 45T199 62L94 113Q32 145 32 202Q32 239 46 263T85 310Q42 344 42 396ZM223 111Q224
111 225 110T228 108Q268 144 268 186Q268 207 251 222T194 256L96 303Q75 284 66 267T56 230T72 193T124 158L223 111Z" />
<glyph unicode="&#xa8;" glyph-name="dieresis" horiz-adv-x="240" d="M37 389Q27 400 27 415T37 441T63 452T89 442T100 416T90 390T64 379T37 389ZM152 389Q141 400 141 415T151 441T177 452T203 442T214 416T204 390T178 379T152 389Z" />
<glyph unicode="&#xa9;" glyph-name="copyright" horiz-adv-x="565" d="M70 102T50 148T30 246T50 344T104 424T185 479T283 499Q335 499 381 479T461 424T515 344T536 246Q536 194 516 148T461 68T381 14T283 -6Q231 -6 185 14T105 68ZM89 377T72 335T54 246T71
157T120 83Q187 17 283 17Q378 17 445 84Q511 151 511 246Q511 293 494 335T445 407T373 456T283 475T194 457T121 408ZM376 408H388V310H376L352 363Q324 390 284 390Q197 390 197 282V210Q197 103 284 103Q303 103 323 112T357 136L379 190H391V88H379L352 109Q322
85 284 85Q218 85 178 130T137 246T177 363T284 408Q318 408 349 386L376 408Z" />
<glyph unicode="&#xaa;" glyph-name="ordfeminine" horiz-adv-x="307" d="M144 479Q95 479 95 450Q95 435 111 430Q111 416 100 406T74 396T51 406T41 430Q41 461 70 478T141 496Q245 496 245 419V267Q245 251 261 250Q267 250 271 254T276 266H292Q292 248 279
238T246 228T211 238T191 269Q163 228 102 228Q67 228 46 245T25 291Q25 343 70 364T174 385H189V429Q189 457 178 468T144 479ZM189 318V367H174Q136 367 111 348T85 295Q85 252 123 252Q147 252 166 270T189 318Z" />
<glyph unicode="&#xab;" glyph-name="guillemotleft" horiz-adv-x="224" d="M119 171L187 243L193 238L166 167L193 94L187 89L119 162V171ZM134 290L140 284L82 167L140 49L134 43L28 161V172L134 290Z" />
<glyph unicode="&#xac;" glyph-name="logicalnot" horiz-adv-x="344" d="M44 231H299V76H277V209H44V231Z" />
<glyph unicode="&#xad;" glyph-name="uni00AD" horiz-adv-x="236" d="M198 209H38V231H198V209Z" />
<glyph unicode="&#xae;" glyph-name="registered" horiz-adv-x="565" d="M70 102T50 148T30 246T50 344T104 424T185 479T283 499Q335 499 381 479T461 424T515 344T536 246Q536 194 516 148T461 68T381 14T283 -6Q231 -6 185 14T105 68ZM89 377T72 335T54 246T71
157T120 83Q187 17 283 17Q378 17 445 84Q511 151 511 246Q511 293 494 335T445 407T373 456T283 475T194 457T121 408ZM428 119L438 107Q416 84 385 84Q339 84 332 130L324 183Q320 209 307 223T262 237H238V107L274 102V88H150V102L187 107V382L150 388V403H285Q351
403 379 383T408 322Q408 254 309 243V241Q372 232 382 171L388 137Q389 121 392 114T406 107T428 119ZM276 387H238V254H276Q352 254 352 320V328Q352 387 276 387Z" />
<glyph unicode="&#xaf;" glyph-name="overscore" horiz-adv-x="282" d="M283 431V410H0V431H283Z" />
<glyph unicode="&#xb0;" glyph-name="degree" horiz-adv-x="225" d="M49 311Q22 338 22 375T50 439T114 465T177 439T203 376T178 312Q152 285 114 285T49 311ZM180 348T180 374T160 421T113 442T67 422T47 375Q47 348 66 329T114 309Q141 309 160 328Z" />
<glyph unicode="&#xb1;" glyph-name="plusminus" horiz-adv-x="373" d="M46 69V92H329V69H46ZM175 331H198V231H329V209H198V109H175V209H46V231H175V331Z" />
<glyph unicode="&#xb2;" glyph-name="uni00B2" horiz-adv-x="237" d="M201 322V234H32V259L103 329Q153 378 153 431Q153 454 142 468T113 483T84 476T73 453T92 428Q92 416 85 409T66 401T45 410T36 433Q36 463 58 479T118 496T178 477T201 430T185 379T141 333L66
273H169L186 322H201Z" />
<glyph unicode="&#xb3;" glyph-name="uni00B3" horiz-adv-x="226" d="M81 371V384Q114 386 127 399T141 441Q141 483 102 483Q71 483 71 460Q71 445 88 438Q88 426 81 419T63 412T45 420T37 443Q37 470 57 483T111 496T165 482T186 438Q186 386 113 378V377Q204
371 203 303Q203 273 176 251T110 228T48 245T25 289Q25 303 33 311T52 320T70 314T78 294Q60 284 60 269Q60 243 101 243Q122 243 136 258T151 305T135 353T81 371Z" />
<glyph unicode="&#xb4;" glyph-name="acute" horiz-adv-x="143" d="M102 474T110 466T119 444T108 423L28 352L18 359L63 457Q70 474 86 474Z" />
<glyph unicode="&#xb5;" glyph-name="mu" horiz-adv-x="397" d="M81 20Q90 -116 154 -149Q147 -163 133 -171T102 -180Q56 -180 55 -130L59 82V319H121V83Q121 16 173 16T275 88V319H337V18L379 13V0H275V66Q225 -6 155 -6Q105 -6 81 20Z" />
<glyph unicode="&#xb6;" glyph-name="paragraph" horiz-adv-x="336" d="M141 -69V262Q84 262 52 295T20 377T52 460T140 493H310V480L254 471V-69H228V472H167V-69H141Z" />
<glyph unicode="&#xb7;" glyph-name="middot" horiz-adv-x="147" d="M91 145T75 145T46 156Q34 167 34 184T46 212T74 224T101 212T114 185T103 157Z" />
<glyph unicode="&#xb8;" glyph-name="cedilla" horiz-adv-x="210" d="M98 6L90 -27Q165 -30 165 -84Q165 -113 143 -128T92 -143T43 -137L47 -124Q54 -126 69 -126T99 -116T113 -87Q113 -47 69 -43L81 6H98Z" />
<glyph unicode="&#xb9;" glyph-name="uni00B9" horiz-adv-x="153" d="M31 480V493H101V247L127 244V231H31V244L57 247V477L31 480Z" />
<glyph unicode="&#xba;" glyph-name="ordmasculine" horiz-adv-x="308" d="M154 245Q225 245 225 337V387Q225 479 154 479Q83 479 83 387V337Q83 245 154 245ZM22 420T59 458T153 496T248 459T286 362T248 266Q210 228 153 228T59 265T22 361Z" />
<glyph unicode="&#xbb;" glyph-name="guillemotright" horiz-adv-x="224" d="M106 171L38 243L32 238L59 167L32 94L38 89L106 162V171ZM91 290L85 284L143 167L85 49L91 43L197 161V172L91 290Z" />
<glyph unicode="&#xbc;" glyph-name="onequarter" horiz-adv-x="410" d="M351 493L104 0H73L319 493H351ZM205 64V70L343 262H358V85H388V64H358V18L388 13V0H284V13L314 18V64H205ZM234 85H314V197L234 85ZM27 480V493H97V247L123 244V231H27V244L53 247V477L27 480Z" />
<glyph unicode="&#xbd;" glyph-name="onehalf" horiz-adv-x="431" d="M333 493L87 0H55L302 493H333ZM29 480V493H100V247L126 244V231H29V244L55 247V477L29 480ZM405 88V0H236V25L307 95Q358 144 358 197Q358 220 347 234T317 249T288 242T277 220T296 194Q296
182 289 175T270 167T250 176T241 199Q241 229 262 245T322 262T383 243T405 196T390 145T345 100L271 40H374L391 88H405Z" />
<glyph unicode="&#xbe;" glyph-name="threequarters" horiz-adv-x="428" d="M381 493L134 0H103L349 493H381ZM219 64V70L357 262H372V85H402V64H372V18L402 13V0H299V13L329 18V64H219ZM248 85H329V197L248 85ZM78 371V384Q111 386 124 399T138 441Q138 483 100
483Q69 483 69 460Q69 445 86 438Q86 426 79 419T61 412T43 420T35 443Q35 470 55 483T108 496T163 482T184 438Q184 386 111 378V377Q201 371 201 303Q201 273 174 251T107 228T45 245T23 289Q23 303 31 311T50 320T68 314T76 294Q58 284 58 269Q58 243 99 243Q120
243 134 258T149 305T133 353T78 371Z" />
<glyph unicode="&#xbf;" glyph-name="questiondown" horiz-adv-x="316" d="M161 324T176 324T202 313T213 287T203 262T177 252T151 262T140 287T150 313ZM183 216Q183 150 153 91Q140 67 128 43Q98 -15 97 -61Q97 -124 115 -148T164 -173T218 -158T241 -113T210
-70Q210 -49 222 -37T253 -25T285 -39T299 -77Q299 -125 257 -156T152 -188T56 -160T22 -66Q22 -13 61 30Q77 49 96 70T131 111Q170 157 170 216H183Z" />
</font>
</defs>
</svg>
