<?xml version="1.0" standalone="no"?>
<!DOCTYPE svg PUBLIC "-//W3C//DTD SVG 1.1//EN" "http://www.w3.org/Graphics/SVG/1.1/DTD/svg11.dtd">
<svg xmlns="http://www.w3.org/2000/svg">
<defs >
<font id="Asset" horiz-adv-x="2499" ><font-face
    font-family="Asset"
    units-per-em="2048"
    panose-1="2 2 10 2 8 5 0 6 4 4"
    ascent="1971"
    descent="-589"
    alphabetic="0" />
<glyph unicode=" " glyph-name="space" horiz-adv-x="885" />
<glyph unicode="!" glyph-name="exclam" horiz-adv-x="1148" d="M458 739Q458 804 430 861T358 971T265 1073T171 1171T100 1270T71 1376Q71 1462 112 1520T222 1613T383 1664T574 1680Q674 1680 765 1665T925 1614T1036 1520T1077 1376Q1077 1321 1049 1271T977
1171T884 1073T790 972T719 862T690 739Q690 718 681 704T657 680T620 666T574 661Q524 661 491 679T458 739ZM118 230Q118 287 154 337T251 425T396 485T574 507Q668 507 751 485T897 426T995 338T1031 230Q1031 173 995 123T897 36T752 -23T574 -45Q479 -45 396
-24T252 35T154 123T118 230Z" />
<glyph unicode="&quot;" glyph-name="quotedbl" horiz-adv-x="1622" d="M1111 586Q1109 698 1090 784T1043 936T983 1053T924 1147T878 1229T860 1311Q860 1416 934 1471T1161 1526Q1313 1526 1387 1471T1462 1311Q1462 1268 1445 1229T1401 1147T1343 1053T1284
936T1239 784T1218 586H1111ZM411 586Q409 698 390 784T343 936T283 1053T224 1147T178 1229T160 1311Q160 1416 234 1471T461 1526Q613 1526 687 1471T762 1311Q762 1268 745 1229T701 1147T643 1053T584 936T539 784T518 586H411Z" />
<glyph unicode="#" glyph-name="numbersign" horiz-adv-x="1884" d="M430 381Q369 380 312 379T206 375T124 371T75 367Q72 393 71 413T70 459Q70 484 71 509T75 561Q91 558 130 555T224 550T344 547T478 544L577 880Q513 878 453 877T342 873T255 869T203 865Q200
891 199 911T198 957Q198 982 199 1007T203 1059Q219 1055 260 1053T360 1048T486 1044T625 1042L736 1416H926L816 1039H1008Q1037 1039 1096 1039T1230 1040L1341 1416H1531L1422 1044Q1488 1045 1551 1046T1667 1050T1759 1054T1817 1059Q1818 1052 1819 1039T1820
1010T1821 981T1822 957Q1822 949 1822 937T1821 911T1819 886T1817 865Q1798 868 1754 870T1649 874T1517 878T1374 881L1276 545Q1344 546 1410 547T1531 551T1628 556T1689 561Q1690 554 1691 541T1692 512T1693 483T1694 459Q1694 451 1694 439T1693 413T1691
388T1689 367Q1669 370 1623 372T1513 376T1376 380T1228 383L1116 0H923L1037 386Q980 387 939 387T880 387Q866 387 842 387T784 387T710 386T624 385L511 0H318L430 381ZM670 542Q745 541 801 541T880 541Q906 541 960 541T1083 542L1184 883Q1121 884 1075
884T1008 885Q982 885 918 885T770 883L670 542Z" />
<glyph unicode="$" glyph-name="dollar" horiz-adv-x="2889" d="M320 -57Q309 -36 299 1T281 85T265 180T252 276T245 361T242 423H344Q377 356 431 304T554 213T704 147T872 104T1050 80T1229 72Q1373 72 1469 84T1623 118T1705 169T1729 232Q1729 281 1687 311T1573
360T1404 388T1199 406T976 423T754 451T549 500T380 580T265 700T223 873Q223 965 267 1035T389 1159T575 1248T810 1306T1080 1337T1371 1347H1417Q1416 1374 1415 1402T1413 1455T1411 1501T1409 1537Q1422 1540 1437 1541T1469 1544T1502 1546T1531 1547Q1556
1547 1581 1545T1633 1537Q1631 1522 1630 1500T1628 1452T1625 1397T1622 1339Q1787 1329 1933 1316T2205 1303Q2259 1303 2299 1305T2378 1312T2455 1325T2545 1347Q2556 1325 2565 1291T2583 1216T2599 1131T2611 1046T2618 970T2621 911H2508Q2494 950 2454
989T2350 1064T2205 1131T2026 1185T1820 1221T1595 1234Q1529 1234 1479 1222T1393 1191T1340 1146T1322 1093Q1322 1034 1362 997T1471 937T1631 902T1826 881T2038 862T2250 834T2445 784T2606 702T2715 576T2755 393Q2755 295 2709 224T2582 102T2391 21T2151
-27T1880 -51T1595 -57Q1597 -118 1599 -170T1605 -262Q1598 -264 1583 -265T1551 -268T1518 -270T1493 -271Q1485 -271 1470 -271T1438 -269T1406 -266T1381 -262Q1383 -224 1385 -171T1390 -52Q1298 -48 1211 -41T1035 -28T853 -18T657 -13Q604 -13 564 -15T486
-22T409 -35T320 -57Z" />
<glyph unicode="%" glyph-name="percent" horiz-adv-x="2653" d="M380 -154Q407 -133 454 -92T560 5T688 125T826 257T964 390T1092 515T1199 619T1273 693Q1308 728 1359 779T1471 893T1600 1024T1736 1163T1869 1300T1991 1427T2092 1535T2164 1613Q2183 1599
2204 1582T2247 1543T2286 1500T2320 1453Q2291 1428 2243 1383T2134 1281T2004 1156T1864 1019T1725 882T1596 755T1489 650T1414 576Q1384 546 1336 498T1227 390T1099 262T962 125T827 -12T705 -138T605 -242T538 -315Q445 -254 380 -154ZM670 708Q553 708 449
722T267 773T142 870T96 1027Q96 1122 142 1184T266 1282T449 1332T670 1347Q787 1347 891 1333T1073 1282T1198 1184T1244 1027Q1244 932 1198 871T1074 773T891 723T670 708ZM670 809Q704 809 736 818T795 852T837 918T853 1027Q853 1093 837 1135T795 1202T737
1236T670 1246Q636 1246 603 1237T545 1203T503 1136T487 1027Q487 961 503 919T544 852T603 819T670 809ZM1409 262Q1409 357 1455 419T1579 517T1762 567T1983 582Q2100 582 2204 568T2386 517T2511 419T2557 262Q2557 167 2511 106T2387 8T2204 -42T1983 -57Q1866
-57 1762 -43T1580 8T1455 105T1409 262ZM1800 262Q1800 196 1816 154T1857 87T1916 54T1983 44Q2017 44 2049 53T2108 87T2150 153T2166 262Q2166 328 2150 370T2108 437T2050 471T1983 481Q1949 481 1916 472T1858 438T1816 371T1800 262Z" />
<glyph unicode="&amp;" glyph-name="ampersand" horiz-adv-x="3748" d="M176 291Q176 352 208 396T299 472T437 525T610 561T808 586T1019 605Q953 685 917 767T880 935Q880 1140 1102 1244T1785 1348Q2009 1348 2171 1323T2439 1255T2594 1153T2644 1028Q2644
975 2599 936T2473 866T2284 811T2048 766Q2129 734 2216 704T2393 647T2569 597T2736 554Q2741 569 2743 584T2746 616Q2746 659 2678 674T2486 690V795H3475V690Q3346 690 3259 678T3111 644T3005 589T2916 514Q2970 503 3013 496T3086 485Q3171 475 3240 471T3366
466Q3442 466 3496 472T3589 490L3657 433Q3642 337 3571 248T3382 91T3101 -18T2741 -59Q2589 -59 2432 -38T2117 21Q1954 -23 1772 -40T1374 -57Q1306 -57 1219 -56T1034 -49T836 -33T640 -5T460 39T312 100T213 183T176 291ZM1621 1086Q1621 1030 1677 976T1826
869Q1897 923 1941 981T1985 1100Q1985 1139 1971 1166T1932 1211T1875 1235T1807 1243Q1766 1243 1732 1234T1674 1205T1635 1156T1621 1086ZM1110 304Q1110 243 1150 199T1261 126T1426 84T1630 70Q1693 70 1755 74T1881 89Q1672 158 1489 252T1168 459Q1110
380 1110 304Z" />
<glyph unicode="&apos;" glyph-name="quotesingle" horiz-adv-x="922" d="M411 586Q409 698 390 784T343 936T283 1053T224 1147T178 1229T160 1311Q160 1416 234 1471T461 1526Q613 1526 687 1471T762 1311Q762 1268 745 1229T701 1147T643 1053T584 936T539
784T518 586H411Z" />
<glyph unicode="(" glyph-name="parenleft" horiz-adv-x="1332" d="M240 645Q240 837 278 980T382 1225T536 1392T726 1495T937 1547T1152 1562V1449Q1075 1449 1016 1409T916 1274T854 1025T833 645Q833 419 854 265T915 17T1015 -118T1152 -159V-272Q1046 -272
937 -258T727 -206T537 -103T382 65T278 310T240 645Z" />
<glyph unicode=")" glyph-name="parenright" horiz-adv-x="1332" d="M180 -159Q257 -159 316 -119T416 16T478 264T499 645Q499 871 478 1025T417 1273T317 1408T180 1449V1562Q286 1562 395 1548T605 1496T795 1393T950 1225T1054 980T1092 645Q1092 452 1054
310T950 65T796 -102T606 -205T395 -257T180 -272V-159Z" />
<glyph unicode="*" glyph-name="asterisk" horiz-adv-x="1594" d="M324 662Q278 662 237 691T160 781Q119 851 119 911Q119 956 141 990T207 1050Q246 1072 302 1079T425 1092T565 1107T711 1145Q639 1172 566 1182T426 1197T303 1210T208 1241Q165 1266 143 1300T120
1379Q120 1437 160 1508Q195 1569 236 1598T324 1628Q367 1628 401 1609T466 1558T525 1484T588 1397T661 1305T753 1218Q741 1295 713 1363T657 1492T606 1606T584 1704Q584 1785 635 1832T792 1879Q898 1879 949 1832T1000 1704Q1000 1659 979 1606T931 1493T876
1363T838 1217Q890 1258 930 1304T1003 1396T1066 1484T1125 1558T1190 1609T1269 1628Q1314 1628 1356 1599T1433 1508Q1473 1437 1473 1379Q1473 1334 1450 1300T1385 1241Q1346 1218 1290 1211T1167 1198T1027 1182T882 1145Q954 1117 1027 1107T1167 1092T1290
1080T1386 1050Q1428 1025 1450 991T1473 911Q1473 852 1433 781Q1398 720 1357 691T1269 662Q1225 662 1191 681T1127 732T1067 806T1004 894T930 986T838 1073Q850 996 878 928T935 799T986 686T1008 588Q1008 507 957 460T800 413Q694 413 643 460T592 588Q592
633 613 685T661 798T714 926T753 1072Q701 1031 661 985T588 894T526 806T467 732T402 681T324 662Z" />
<glyph unicode="+" glyph-name="plus" horiz-adv-x="1684" d="M135 538Q132 564 131 589T130 640Q130 665 131 690T135 742Q152 738 192 736T287 731T406 727T533 724T655 723T759 722Q758 776 757 844T753 977T748 1097T740 1177Q766 1180 791 1181T842 1182Q867
1182 892 1181T944 1177Q938 1152 935 1098T929 978T925 844T924 722Q970 722 1028 723T1149 725T1274 728T1391 732T1487 736T1549 742Q1550 735 1551 722T1552 693T1553 664T1554 640Q1554 632 1554 618T1553 589T1551 561T1549 538Q1530 541 1489 543T1393 547T1275
550T1149 553T1027 555T924 557Q925 502 926 435T930 305T936 187T944 103Q937 102 924 101T895 100T866 99T842 98Q834 98 820 98T791 99T763 101T740 103Q744 131 747 185T753 305T756 437T759 557Q714 557 656 556T534 554T407 552T289 548T194 544T135 538Z"
/>
<glyph unicode="," glyph-name="comma" horiz-adv-x="1190" d="M194 -151Q225 -166 264 -179T347 -201T438 -215T534 -220Q606 -220 671 -207T786 -162T867 -81T903 44Q840 -6 758 -22T573 -39Q478 -39 395 -22T251 30T153 116T117 236Q117 300 153 352T250 441T395
498T573 518Q694 518 787 493T944 421T1040 308T1073 159Q1073 23 1030 -70T913 -222T743 -305T540 -331Q442 -331 343 -313T154 -257L194 -151Z" />
<glyph unicode="-" glyph-name="hyphen" horiz-adv-x="1684" d="M135 538Q132 564 131 589T130 640Q130 665 131 690T135 742Q151 739 185 736T267 731T370 728T484 725T598 724T703 723T787 722T840 722Q870 722 927 722T1056 724T1203 726T1349 730T1471 735T1549
742Q1550 735 1551 722T1552 693T1553 664T1554 640Q1554 632 1554 618T1553 589T1551 561T1549 538Q1526 541 1471 544T1345 549T1195 553T1045 556T919 557T840 558Q821 558 784 558T699 557T595 555T481 553T369 551T267 547T186 543T135 538Z" />
<glyph unicode="." glyph-name="period" horiz-adv-x="1147" d="M117 240Q117 304 151 356T247 445T391 502T573 522Q671 522 755 502T900 446T995 357T1030 240Q1030 175 996 123T900 33T755 -24T573 -45Q475 -45 392 -25T247 33T152 122T117 240Z" />
<glyph unicode="/" glyph-name="slash" horiz-adv-x="1112" d="M-60 -389Q-43 -363 -14 -312T51 -193T129 -46T214 115T298 277T375 427T438 552T482 638Q502 678 532 737T597 868T671 1018T749 1178T825 1335T894 1480T951 1602T990 1690Q997 1688 1009 1684T1036
1674T1063 1662T1085 1652Q1092 1648 1104 1642T1129 1627T1153 1612T1172 1598Q1154 1568 1125 1515T1059 1393T980 1245T896 1085T812 924T736 775T672 651T628 564Q611 530 583 474T519 347T445 196T365 33T287 -129T216 -276T159 -398T123 -481Q75 -468 29
-446T-60 -389Z" />
<glyph unicode="0" glyph-name="zero" horiz-adv-x="3161" d="M141 646Q141 777 197 880T352 1061T586 1193T882 1282T1219 1331T1580 1347Q1763 1347 1941 1332T2279 1282T2574 1194T2809 1062T2964 881T3020 646Q3020 514 2964 411T2809 230T2575 98T2279 9T1941
-41T1580 -57Q1397 -57 1220 -42T882 8T587 97T352 230T197 411T141 646ZM1324 643Q1324 588 1328 524T1343 394T1372 267T1417 160T1483 85T1574 56Q1625 56 1665 84T1734 159T1783 267T1815 393T1832 523T1837 643Q1837 698 1832 763T1815 894T1783 1021T1734
1129T1665 1205T1574 1234Q1522 1234 1484 1204T1418 1124T1372 1011T1343 883T1328 755T1324 643Z" />
<glyph unicode="1" glyph-name="one" horiz-adv-x="2234" d="M70 94Q250 99 371 129T567 219T673 374T705 602Q705 698 680 779T591 920T415 1014T133 1050V1171Q193 1171 275 1176T454 1189T655 1209T865 1234T1073 1262T1264 1291T1425 1320T1545 1347L1701
1302V668Q1701 560 1709 477T1739 331T1798 225T1891 153T2026 111T2209 94V0H70V94Z" />
<glyph unicode="2" glyph-name="two" horiz-adv-x="3217" d="M225 181Q225 289 288 367T478 501T791 593T1225 655Q1378 670 1494 693T1690 749T1810 829T1851 937Q1851 1000 1812 1051T1699 1137T1516 1192T1269 1212Q1227 1212 1178 1210T1079 1205T987 1198T913
1191Q1048 1186 1137 1166T1280 1115T1355 1047T1377 969Q1377 915 1337 872T1227 799T1065 752T868 736Q770 736 677 751T510 800T393 884T348 1007Q348 1060 393 1105T521 1189T717 1257T969 1307T1261 1338T1582 1349Q1629 1349 1712 1348T1899 1343T2121 1328T2354
1300T2576 1253T2763 1183T2892 1085T2940 954Q2940 839 2845 760T2553 630T2055 551T1342 510Q1117 502 961 478T707 418T566 336T522 237Q522 220 525 204Q649 307 933 350T1655 394Q1755 394 1853 393T2046 392Q2200 392 2337 404T2580 440T2755 499T2839 583Q2863
569 2891 546T2944 490T2985 415T3002 320Q3002 200 2953 123T2818 0T2618 -63T2372 -81Q2247 -81 2108 -67T1823 -30T1531 17T1245 64T977 100T741 115H717Q736 88 736 62Q736 35 720 10T677 -35T614 -67T535 -79Q473 -79 417 -63T318 -14T250 67T225 181Z" />
<glyph unicode="3" glyph-name="three" horiz-adv-x="3248" d="M201 242Q201 284 223 318T284 380T375 429T489 463T616 484T748 491Q874 491 971 474T1133 429T1232 366T1266 293Q1266 258 1236 224T1143 163T987 119T765 99Q809 96 867 92T992 83T1132 76T1281
73Q1357 73 1432 77T1575 92T1701 121T1802 168T1869 234T1893 324Q1893 378 1857 424T1744 505T1545 560T1252 582V679Q1577 679 1737 755T1897 964Q1897 1044 1851 1095T1731 1174T1561 1213T1368 1224Q1296 1224 1226 1221T1094 1213T981 1204T897 1199Q1032
1194 1121 1174T1263 1123T1338 1055T1360 977Q1360 923 1320 880T1210 807T1049 760T851 744Q753 744 660 759T493 808T376 892T331 1015Q331 1068 385 1113T535 1195T759 1260T1039 1308T1355 1337T1686 1347Q1845 1347 2000 1338T2296 1309T2555 1261T2761 1193T2897
1103T2946 992Q2946 908 2891 847T2723 743T2438 675T2030 636Q2290 628 2490 610T2826 555T3033 460T3104 317Q3104 239 3049 181T2891 82T2644 13T2321 -29T1934 -51T1498 -57Q1333 -57 1173 -49T869 -25T603 15T391 73T252 148T201 242Z" />
<glyph unicode="4" glyph-name="four" horiz-adv-x="3208" d="M52 526Q92 548 163 589T325 686T518 804T720 933T912 1061T1074 1177T1186 1269T1228 1326H2443V526H3024V399H2450Q2458 327 2476 278T2524 196T2596 144T2697 115T2828 101T2993 94V0H674V94Q796
98 898 113T1079 162T1211 254T1287 399H52V526ZM609 556Q609 543 619 536T654 526H1304Q1304 531 1304 536T1305 546V1103Q1305 1127 1272 1127Q1244 1127 1201 1109T1105 1058T996 984T884 895T779 799T692 705T632 622T609 556Z" />
<glyph unicode="5" glyph-name="five" horiz-adv-x="3120" d="M156 252Q156 307 196 349T306 421T473 466T683 481Q809 481 906 464T1069 419T1168 356T1202 283Q1202 248 1172 214T1079 153T923 109T701 89Q732 86 767 81T840 72T918 64T999 60Q1096 60 1193
68T1380 92T1548 133T1683 191T1774 267T1807 359Q1807 416 1782 460T1710 536T1600 590T1460 625T1299 644T1124 650Q1033 650 935 640T747 614T581 582T462 551L312 600Q330 665 343 755T365 940T377 1125T381 1283Q393 1286 400 1288T412 1292T423 1295T437
1296Q475 1296 499 1284T537 1253T556 1209T561 1159Q561 1156 561 1153T560 1145Q605 1177 662 1202T786 1246T925 1279T1072 1302T1220 1315T1364 1319Q1508 1319 1648 1313T1913 1300T2143 1287T2319 1281Q2374 1281 2435 1286T2554 1303T2663 1334T2751 1383Q2771
1335 2780 1291T2789 1205Q2789 1046 2680 966T2342 885Q2141 885 1954 901T1592 938T1252 975T933 992Q890 992 841 991T740 984T639 968T545 941Q541 905 537 868T529 796T521 730T512 675Q636 711 779 735T1072 773T1375 792T1669 798Q2018 798 2263 775T2664
703T2891 582T2963 410Q2963 332 2913 268T2773 151T2560 60T2290 -5T1979 -44T1645 -57Q1459 -57 1277 -52T930 -33T623 3T378 60T215 142T156 252Z" />
<glyph unicode="6" glyph-name="six" horiz-adv-x="3267" d="M195 635Q195 731 231 813T334 963T493 1086T698 1183T939 1256T1206 1307T1488 1336T1776 1346Q1945 1346 2098 1337T2383 1309T2622 1265T2804 1207T2921 1136T2962 1053Q2962 1000 2917 962T2797
898T2625 862T2423 850Q2280 850 2167 865T1974 905T1853 963T1810 1033Q1810 1068 1833 1100T1900 1158T2011 1198T2165 1213Q2135 1222 2102 1228T2036 1238T1971 1245T1913 1247Q1849 1247 1782 1241T1650 1214T1529 1155T1428 1052T1360 892T1333 665Q1411
690 1495 710T1673 746T1873 769T2100 778Q2320 778 2504 754T2821 681T3028 557T3102 378Q3102 303 3051 242T2906 133T2683 49T2396 -10T2060 -44T1689 -56Q1513 -56 1334 -45T989 -4T678 76T426 202T257 386T195 635ZM1335 561Q1340 444 1358 362T1403 223T1464
134T1537 84T1617 62T1699 57Q1747 57 1804 68T1911 110T1994 193T2028 326Q2028 404 1994 459T1905 550T1778 601T1632 617Q1550 617 1474 600T1335 561Z" />
<glyph unicode="7" glyph-name="seven" horiz-adv-x="2993" d="M322 625Q287 640 245 675T165 759T103 863T78 975Q78 1084 115 1161T238 1287T463 1358T806 1381Q983 1381 1147 1365T1473 1331T1800 1296T2145 1280Q2330 1280 2511 1302T2875 1355V1160Q2875
1037 2842 949T2755 797T2631 687T2487 604T2339 532T2206 457T2103 361T2048 231Q2036 171 1989 117T1864 20T1676 -47T1432 -72Q1353 -72 1277 -66T1131 -46T1004 -9T902 47T835 126T811 229Q811 317 860 379T996 485T1198 558T1445 609T1718 649T1996 688T2260
738T2488 809T2662 912T2761 1059Q2703 1035 2620 1015T2436 979T2220 949T1983 928T1734 915T1484 910Q1181 910 975 895T643 846T462 758T407 625H322Z" />
<glyph unicode="8" glyph-name="eight" horiz-adv-x="3126" d="M249 224Q249 285 296 328T421 399T602 445T814 473Q708 503 613 542T447 634T333 751T291 898Q291 970 338 1029T469 1135T671 1216T928 1272T1226 1305T1551 1316Q1673 1316 1808 1311T2075 1295T2326
1264T2537 1217T2682 1151T2736 1064Q2736 1023 2699 987T2598 921T2452 872T2279 843Q2431 813 2564 770T2795 668T2951 534T3008 364Q3008 278 2922 202T2658 68T2210 -23T1571 -57Q1481 -57 1376 -54T1162 -45T942 -28T730 -1T541 36T388 85T286 147T249 224ZM1257
1130Q1257 1085 1307 1050T1454 986T1690 933T2010 886Q2044 881 2077 877T2144 867Q2235 910 2242 1019Q2242 1070 2197 1107T2069 1168T1867 1203T1602 1215Q1546 1215 1486 1213T1376 1203T1292 1178T1257 1130ZM800 262Q800 207 850 167T999 101T1243 63T1577
50Q1652 50 1728 53T1867 68T1968 102T2010 162Q2010 198 1958 227T1800 284T1537 338T1169 396Q1112 404 1055 416T939 441Q915 433 891 418T847 379T815 326T800 262Z" />
<glyph unicode="9" glyph-name="nine" horiz-adv-x="3267" d="M303 217Q303 270 351 308T479 371T658 408T864 420Q1007 420 1120 407T1313 370T1435 316T1478 247Q1478 212 1455 181T1387 127T1276 91T1122 77Q1152 68 1186 62T1255 52T1322 45T1380 43Q1416
43 1470 47T1586 70T1708 124T1818 221T1899 375T1933 599Q1860 575 1780 556T1606 522T1404 500T1167 492Q947 492 763 519T446 599T239 730T165 912Q165 987 213 1048T351 1157T569 1241T855 1300T1198 1334T1588 1346Q1764 1346 1942 1335T2286 1294T2594 1214T2844
1088T3011 904T3072 655Q3072 526 3013 424T2845 242T2582 107T2239 14T1830 -39T1369 -56Q1132 -56 936 -40T599 11T381 96T303 217ZM1239 944Q1239 866 1273 811T1363 720T1490 669T1636 653Q1717 653 1793 669T1932 708Q1926 876 1896 979T1819 1139T1711 1214T1579
1233Q1531 1233 1472 1218T1361 1170T1274 1081T1239 944Z" />
<glyph unicode=":" glyph-name="colon" horiz-adv-x="1147" d="M573 661Q475 661 392 681T247 739T152 828T117 946Q117 1010 151 1062T247 1151T391 1208T573 1228Q671 1228 755 1208T900 1152T995 1063T1030 946Q1030 881 996 829T900 739T755 682T573 661ZM117
240Q117 304 151 356T247 445T391 502T573 522Q671 522 755 502T900 446T995 357T1030 240Q1030 175 996 123T900 33T755 -24T573 -45Q475 -45 392 -25T247 33T152 122T117 240Z" />
<glyph unicode=";" glyph-name="semicolon" horiz-adv-x="1190" d="M573 661Q475 661 392 681T247 739T152 828T117 946Q117 1010 151 1062T247 1151T391 1208T573 1228Q671 1228 755 1208T900 1152T995 1063T1030 946Q1030 881 996 829T900 739T755 682T573 661ZM194
-151Q225 -166 264 -179T347 -201T438 -215T534 -220Q606 -220 671 -207T786 -162T867 -81T903 44Q840 -6 758 -22T573 -39Q478 -39 395 -22T251 30T153 116T117 236Q117 300 153 352T250 441T395 498T573 518Q694 518 787 493T944 421T1040 308T1073 159Q1073
23 1030 -70T913 -222T743 -305T540 -331Q442 -331 343 -313T154 -257L194 -151Z" />
<glyph unicode="&lt;" glyph-name="less" horiz-adv-x="1429" d="M115 692Q231 737 368 789T650 900T936 1020T1207 1148Q1238 1106 1260 1066T1299 978L375 632L1299 287Q1282 240 1260 199T1207 117Q1079 182 937 244T650 365T369 475T115 573V692Z" />
<glyph unicode="=" glyph-name="equal" horiz-adv-x="1684" d="M135 738Q132 764 131 789T130 840Q130 865 131 890T135 942Q151 939 185 936T267 931T370 928T484 925T598 924T703 923T787 922T840 922Q870 922 927 922T1056 924T1203 926T1349 930T1471 935T1549
942Q1550 935 1551 922T1552 893T1553 864T1554 840Q1554 832 1554 818T1553 789T1551 761T1549 738Q1526 741 1471 744T1345 749T1195 753T1045 756T919 757T840 758Q821 758 784 758T699 757T595 755T481 753T369 751T267 747T186 743T135 738ZM135 298Q132 324
131 349T130 400Q130 425 131 450T135 502Q151 499 185 496T267 491T370 488T484 485T598 484T703 483T787 482T840 482Q870 482 927 482T1056 484T1203 486T1349 490T1471 495T1549 502Q1550 495 1551 482T1552 453T1553 424T1554 400Q1554 392 1554 378T1553
349T1551 321T1549 298Q1526 301 1471 304T1345 309T1195 313T1045 316T919 317T840 318Q821 318 784 318T699 317T595 315T481 313T369 311T267 307T186 303T135 298Z" />
<glyph unicode="&gt;" glyph-name="greater" horiz-adv-x="1429" d="M222 117Q191 158 169 199T130 287L1054 632L130 978Q147 1025 169 1065T222 1148Q307 1104 399 1062T587 980T779 900T969 825T1149 756T1314 692V573Q1236 543 1149 510T969 440T780 365T588
286T400 203T222 117Z" />
<glyph unicode="?" glyph-name="question" horiz-adv-x="2637" d="M579 1017Q486 1017 398 1032T241 1081T130 1165T88 1288Q88 1348 139 1397T279 1484T490 1549T751 1595T1043 1621T1347 1630Q1408 1630 1492 1629T1671 1623T1867 1608T2065 1580T2248 1534T2398
1467T2501 1374T2539 1250Q2539 1171 2499 1120T2388 1034T2220 973T2010 920T1771 856T1518 762Q1486 748 1468 733T1437 704T1413 678T1385 656T1341 641T1269 635Q1241 635 1215 643T1168 668T1135 708T1122 762Q1122 815 1152 856T1229 935T1329 1006T1429
1079T1505 1161T1536 1262Q1536 1333 1493 1378T1379 1449T1215 1484T1022 1494Q986 1494 932 1492T821 1487T710 1480T621 1472Q748 1467 832 1447T967 1396T1038 1328T1059 1250Q1059 1196 1021 1153T918 1080T765 1033T579 1017ZM850 230Q850 287 886 337T983
425T1128 485T1306 507Q1400 507 1483 485T1629 426T1727 338T1763 230Q1763 173 1727 123T1629 36T1484 -23T1306 -45Q1211 -45 1128 -24T984 35T886 123T850 230Z" />
<glyph unicode="@" glyph-name="at" horiz-adv-x="3256" d="M133 483Q133 623 170 739T273 949T432 1118T633 1249T866 1344T1119 1407T1379 1443T1635 1454Q1831 1454 2017 1431T2369 1360T2673 1234T2912 1049T3067 800T3123 482Q3123 363 3095 280T3016 142T2892
56T2733 10T2545 -10T2336 -14Q2236 -14 2147 -9T1983 14T1853 62T1764 143Q1701 102 1618 74T1443 29T1260 5T1088 -3Q986 -3 895 9T734 50T625 127T584 247Q584 303 609 344T678 415T784 464T919 494T1075 509T1245 513Q1272 513 1309 513T1388 511T1475 508T1565
503T1650 496T1723 487V686Q1723 780 1694 831T1602 907T1445 935T1217 940Q1307 938 1374 923T1484 883T1549 828T1571 767Q1571 726 1537 693T1445 634T1310 596T1145 582Q1041 582 962 600T828 649T745 718T717 797Q717 838 746 871T827 931T952 977T1114 1009T1304
1028T1515 1035Q1643 1035 1772 1033T2021 1019T2243 985T2422 921T2542 816T2586 660Q2586 655 2586 626T2586 563T2585 497T2585 454Q2585 366 2595 308T2625 215T2669 166T2724 151Q2770 151 2815 170T2896 230T2953 333T2975 479Q2975 658 2897 807T2655 1063T2238
1231T1635 1291Q1289 1291 1031 1234T602 1070T345 814T260 478Q260 351 293 247T398 59T580 -85T848 -187T1207 -248T1664 -268Q1855 -268 2038 -259T2392 -227T2717 -167T3006 -72L3046 -152Q2795 -300 2462 -369T1712 -438Q1351 -438 1059 -384T562 -216T245
71T133 483ZM1321 295Q1321 256 1358 228T1473 200Q1492 200 1521 202T1585 208T1657 220T1728 236Q1726 251 1725 267T1723 302V404Q1698 405 1674 405T1629 406Q1565 406 1509 401T1411 383T1345 349T1321 295Z" />
<glyph unicode="A" glyph-name="A" horiz-adv-x="3186" d="M70 94Q99 94 149 111T259 165T384 262T509 406L1131 1291H2140L2685 428Q2742 338 2809 275T2941 171T3064 113T3161 94V0H1240V94Q1284 94 1327 106T1405 142T1461 204T1482 291Q1482 312 1472 346H675Q670
332 668 321T666 300Q666 249 687 211T742 146T820 107T909 94V0H70V94ZM1412 485Q1391 525 1363 577T1297 697T1212 847T1104 1032Q1035 928 979 844T880 693T804 575T748 485H1412Z" />
<glyph unicode="B" glyph-name="B" horiz-adv-x="3300" d="M100 94Q250 99 349 129T507 225T590 398T615 668Q615 777 603 859T564 999T496 1096T397 1157T266 1188T100 1197V1291H1770Q2035 1291 2234 1285T2579 1265T2819 1228T2971 1171T3051 1091T3074 986Q3074
918 3031 869T2911 787T2732 732T2508 700T2256 684T1993 679Q2156 678 2313 675T2610 659T2869 625T3074 566T3208 473T3257 341Q3257 226 3165 159T2890 56T2439 10T1815 0H100V94ZM1684 751L1687 750Q1785 752 1862 761T1994 794T2077 858T2106 963Q2106 1028
2075 1068T1985 1131T1843 1162T1655 1171V751H1684ZM1655 128Q1751 128 1840 135T1999 168T2109 244T2151 382Q2151 469 2111 519T2003 594T1844 625T1655 632V128Z" />
<glyph unicode="C" glyph-name="C" horiz-adv-x="2858" d="M115 652Q115 809 200 937T443 1156T824 1296T1322 1346Q1469 1346 1600 1334T1844 1308T2051 1282T2222 1270Q2240 1270 2262 1276T2307 1292T2348 1318T2378 1352H2598Q2628 1300 2653 1228T2695 1077T2723
923T2733 786H2583Q2564 855 2524 911T2427 1012T2304 1089T2166 1143T2022 1174T1885 1185Q1776 1185 1677 1157T1501 1064T1380 893T1334 629Q1334 496 1383 397T1515 233T1705 135T1928 102Q1999 102 2074 114T2220 150T2356 210T2471 297T2553 410T2594 551H2743Q2743
411 2670 299T2453 107T2094 -14T1596 -57Q1375 -57 1180 -43T820 3T525 88T303 220T164 406T115 652Z" />
<glyph unicode="D" glyph-name="D" horiz-adv-x="3336" d="M100 94Q250 99 349 129T507 225T590 398T615 668Q615 777 603 859T564 999T496 1096T397 1157T266 1188T100 1197V1291H1747Q1929 1291 2109 1285T2455 1258T2762 1196T3008 1083T3171 905T3231 648Q3231
532 3189 442T3071 285T2894 170T2671 91T2417 41T2148 14T1877 3T1621 0H100V94ZM1655 121Q1750 126 1829 149T1966 229T2055 386T2087 648Q2087 762 2074 845T2034 985T1971 1078T1885 1134T1779 1161T1655 1171V121Z" />
<glyph unicode="E" glyph-name="E" horiz-adv-x="3091" d="M100 94Q250 99 349 129T507 225T590 398T615 668Q615 777 603 859T564 999T496 1096T397 1157T266 1188T100 1197V1291H2893Q2906 1227 2915 1157T2931 1016T2941 877T2944 749H2839Q2794 816 2721 875T2553
983T2350 1071T2123 1137T1887 1178T1655 1192V686Q1694 697 1752 719T1876 770T2009 829T2135 888T2237 940T2298 975Q2306 940 2311 896T2320 804T2324 710T2325 626Q2325 591 2324 548T2319 461T2310 377T2298 305Q2278 317 2234 340T2131 391T2006 450T1874
509T1752 559T1655 593V99Q1768 99 1898 115T2162 160T2422 229T2656 318T2839 424T2949 542H3054Q3054 483 3051 415T3042 276T3026 135T3003 0H100V94Z" />
<glyph unicode="F" glyph-name="F" horiz-adv-x="2986" d="M100 94Q250 99 349 129T507 225T590 398T615 668Q615 777 603 859T564 999T496 1096T397 1157T266 1188T100 1197V1291H2903Q2916 1227 2925 1157T2941 1016T2951 877T2954 749H2849Q2801 823 2726 885T2555
996T2350 1082T2123 1143T1887 1180T1655 1192V686Q1701 696 1766 718T1904 769T2050 828T2187 888T2296 940T2360 976Q2368 941 2373 898T2382 808T2387 717T2389 634Q2389 599 2387 554T2382 464T2373 376T2360 302Q2340 314 2293 337T2183 389T2046 449T1902
509T1766 560T1658 594Q1668 454 1719 358T1864 204T2098 120T2425 94V0H100V94Z" />
<glyph unicode="G" glyph-name="G" horiz-adv-x="3078" d="M115 608Q115 776 192 912T416 1145T776 1294T1261 1347Q1392 1347 1498 1341T1692 1327T1849 1308T1979 1290T2091 1275T2194 1269Q2264 1269 2308 1288T2378 1352H2628Q2658 1300 2678 1228T2710 1077T2728
923T2733 786H2583Q2564 855 2524 911T2427 1012T2304 1089T2166 1143T2022 1174T1885 1185Q1812 1185 1740 1171T1602 1126T1478 1051T1378 944T1311 804T1287 630Q1287 507 1328 404T1440 225T1609 108T1821 66Q1834 66 1856 66T1901 68T1947 71T1983 76Q1983
180 1981 254T1966 378T1927 457T1851 502T1728 522T1545 527V621H3004V527Q2947 527 2907 520T2843 496T2807 452T2796 387Q2796 343 2802 294T2822 196T2853 101T2895 14Q2713 -4 2537 -17T2186 -39T1835 -52T1477 -57Q1303 -57 1135 -47T815 -8T535 67T314 189T168
366T115 608Z" />
<glyph unicode="H" glyph-name="H" horiz-adv-x="3750" d="M100 94Q250 99 349 129T507 225T590 398T615 668Q615 777 603 859T564 999T496 1096T397 1157T266 1188T100 1197V1291H1781V1197Q1740 1197 1716 1177T1678 1102T1660 948T1655 692H2097Q2097 849 2092
948T2074 1102T2036 1177T1971 1197V1291H3650V1197Q3513 1197 3416 1176T3256 1097T3165 935T3136 668Q3136 506 3160 399T3244 225T3402 129T3650 94V0H1971V94Q1995 98 2016 123T2053 204T2081 347T2095 565H1656Q1659 436 1670 348T1697 204T1735 124T1781
94V0H100V94Z" />
<glyph unicode="I" glyph-name="I" horiz-adv-x="2269" d="M100 94Q250 99 349 129T507 225T590 398T615 668Q615 777 603 859T564 999T496 1096T397 1157T266 1188T100 1197V1291H2169V1197Q2031 1197 1934 1176T1774 1097T1684 935T1655 668Q1655 506 1679 399T1762
225T1920 129T2169 94V0H100V94Z" />
<glyph unicode="J" glyph-name="J" horiz-adv-x="2318" d="M138 89Q199 77 246 69T334 55T411 47T489 44Q572 44 628 71T719 166T767 343T782 621Q782 744 765 835T715 990T632 1094T519 1157T377 1188T207 1197V1291H2275V1197Q2177 1197 2106 1188T1986 1158T1905
1102T1857 1012T1834 885T1828 715Q1828 661 1832 607T1841 498T1851 387T1855 273Q1855 185 1828 120T1752 7T1632 -70T1476 -117T1290 -141T1081 -148Q912 -148 773 -137T518 -108T304 -65T120 -14L138 89Z" />
<glyph unicode="K" glyph-name="K" horiz-adv-x="3369" d="M100 94Q250 99 349 129T507 225T590 398T615 668Q615 777 603 859T564 999T496 1096T397 1157T266 1188T100 1197V1291H1890V1197Q1845 1197 1804 1170T1731 1082T1679 920T1655 674Q1720 708 1793 747T1937
827T2074 911T2188 991T2266 1063T2296 1123Q2296 1157 2250 1177T2095 1197V1291H3164V1197Q3107 1197 3020 1174T2825 1110T2595 1017T2349 906T2103 789T1874 676Q1996 691 2087 704T2257 728T2411 745T2574 752Q2689 752 2770 737T2908 693T3000 622T3059 527T3098
410T3128 273Q3139 220 3151 186T3185 132T3244 104T3344 95V-6Q3296 -17 3243 -26T3121 -42T2964 -53T2759 -57Q2614 -57 2507 -53T2321 -35T2189 1T2102 60T2047 149T2014 271Q2000 349 1976 404T1912 496T1809 549T1656 568Q1659 436 1673 345T1715 199T1789
119T1899 94V0H100V94Z" />
<glyph unicode="L" glyph-name="L" horiz-adv-x="2777" d="M100 94Q250 99 349 129T507 225T590 398T615 668Q615 777 603 859T564 999T496 1096T397 1157T266 1188T100 1197V1291H2169V1197Q2031 1197 1934 1176T1774 1097T1684 935T1655 668V99Q1786 99 1909
126T2140 200T2340 309T2497 443T2603 591T2649 742H2754Q2754 702 2753 644T2749 518T2742 377T2733 235T2720 105T2703 0H100V94Z" />
<glyph unicode="M" glyph-name="M" horiz-adv-x="3645" d="M100 94Q250 99 349 129T507 225T590 398T615 668Q615 832 584 935T489 1096T324 1176T86 1197V1291H1558L1892 907L2126 1291H3590V1197Q3452 1197 3355 1176T3195 1097T3105 935T3076 668Q3076 506
3100 399T3183 225T3341 129T3590 94V0H1702V94Q1801 97 1871 119T1989 179T2063 269T2104 383T2122 518T2126 668V1045L1449 -36L736 848V668Q736 590 739 518T757 384T798 269T873 180T990 120T1160 94V0H100V94Z" />
<glyph unicode="N" glyph-name="N" horiz-adv-x="3330" d="M80 94Q230 99 329 129T487 225T570 398T595 668Q595 777 583 859T544 999T476 1096T377 1157T246 1188T80 1197V1291H1826L2707 575L2709 668Q2709 832 2681 935T2590 1096T2431 1176T2195 1197V1291H3295V1197Q3203
1197 3133 1188T3012 1157T2926 1097T2870 1000T2840 859T2831 668V0H1805Q1625 156 1439 315Q1360 383 1272 458T1094 611T913 766T739 915Q727 865 722 804T716 668Q716 506 740 399T824 225T982 129T1230 94V0H80V94Z" />
<glyph unicode="O" glyph-name="O" horiz-adv-x="3023" d="M105 645Q105 792 161 901T316 1088T549 1216T840 1295T1167 1336T1511 1347Q1683 1347 1854 1336T2182 1296T2473 1216T2706 1088T2861 901T2918 645Q2918 498 2862 389T2707 202T2474 74T2183 -5T1855
-46T1511 -57Q1339 -57 1168 -46T840 -6T550 74T317 202T162 389T105 645ZM1270 645Q1270 519 1279 411T1315 225T1387 101T1506 56Q1579 56 1626 101T1702 224T1741 411T1753 645Q1753 771 1742 879T1702 1066T1627 1189T1506 1234Q1457 1234 1421 1211T1358 1148T1315
1051T1288 930T1274 792T1270 645Z" />
<glyph unicode="P" glyph-name="P" horiz-adv-x="3210" d="M100 94Q250 99 349 129T507 225T590 398T615 668Q615 777 603 859T564 999T496 1096T397 1157T266 1188T100 1197V1291H1720Q2095 1291 2363 1274T2802 1207T3054 1071T3135 843Q3135 755 3106 690T3025
578T2899 501T2737 454T2548 430T2339 423Q2248 423 2163 426T1995 434T1832 443T1669 449Q1685 352 1723 287T1830 180T2004 119T2259 94V0H100V94ZM1657 573Q1746 579 1820 597T1948 651T2031 741T2061 873Q2061 959 2033 1014T1953 1103T1825 1151T1655 1170V668Q1655
642 1655 619T1657 573Z" />
<glyph unicode="Q" glyph-name="Q" horiz-adv-x="3023" d="M105 645Q105 792 161 901T316 1088T549 1216T840 1295T1167 1336T1511 1347Q1683 1347 1854 1336T2182 1296T2473 1216T2706 1088T2861 901T2918 645Q2918 507 2869 403T2731 222T2522 94T2259 10T1959
-36T1639 -55Q1637 -64 1637 -73T1637 -90Q1637 -137 1656 -173T1709 -238T1789 -287T1889 -319T2003 -338T2124 -344Q2149 -344 2174 -342T2224 -337V-419Q2157 -434 2098 -447T1975 -470T1835 -485T1657 -491Q1564 -491 1475 -481T1316 -447T1203 -381T1160 -276Q1160
-245 1171 -214T1201 -155T1248 -100T1307 -53Q1152 -47 1003 -30T721 20T474 106T279 233T151 411T105 645ZM1270 645Q1270 519 1279 411T1315 225T1387 101T1506 56Q1579 56 1626 101T1702 224T1741 411T1753 645Q1753 771 1742 879T1702 1066T1627 1189T1506
1234Q1457 1234 1421 1211T1358 1148T1315 1051T1288 930T1274 792T1270 645Z" />
<glyph unicode="R" glyph-name="R" horiz-adv-x="3399" d="M100 94Q250 99 349 129T507 225T590 398T615 668Q615 777 603 859T564 999T496 1096T397 1157T266 1188T100 1197V1291H1720Q1980 1291 2185 1287T2545 1272T2809 1239T2986 1183T3086 1097T3117 976Q3117
906 3078 853T2968 760T2798 695T2577 652T2318 629T2029 621H2454Q2588 621 2686 612T2854 582T2971 530T3049 455T3100 355T3137 230Q3147 190 3160 164T3197 123T3255 101T3344 95V-6Q3231 -19 3136 -28T2958 -44T2804 -54T2669 -57Q2524 -57 2422 -52T2249
-32T2136 6T2069 66T2033 153T2014 271Q2005 352 1987 407T1931 499T1827 553T1656 578Q1659 443 1672 351T1714 201T1788 119T1899 94V0H100V94ZM1655 688Q1752 692 1835 705T1978 746T2072 819T2106 932Q2106 1003 2074 1048T1982 1119T1839 1157T1655 1171V688Z"
/>
<glyph unicode="S" glyph-name="S" horiz-adv-x="2840" d="M302 -57Q291 -36 281 1T263 85T247 180T234 276T227 361T224 423H326Q359 356 413 304T536 213T686 147T854 104T1032 80T1211 72Q1355 72 1451 84T1605 118T1687 169T1711 232Q1711 281 1669 311T1555
360T1386 388T1181 406T958 423T736 451T531 500T362 580T247 700T205 873Q205 965 249 1035T371 1159T557 1248T792 1306T1062 1337T1353 1347Q1471 1347 1584 1340T1802 1325T2004 1310T2187 1303Q2241 1303 2281 1305T2360 1312T2437 1325T2527 1347Q2538 1325
2547 1291T2565 1216T2581 1131T2593 1046T2600 970T2603 911H2490Q2476 950 2436 989T2332 1064T2187 1131T2008 1185T1802 1221T1577 1234Q1511 1234 1461 1222T1375 1191T1322 1146T1304 1093Q1304 1034 1344 997T1453 937T1613 902T1808 881T2020 862T2232
834T2427 784T2588 702T2697 576T2737 393Q2737 295 2691 224T2564 102T2371 21T2131 -27T1860 -51T1574 -57Q1446 -57 1333 -50T1109 -35T884 -20T639 -13Q586 -13 546 -15T468 -22T391 -35T302 -57Z" />
<glyph unicode="T" glyph-name="T" horiz-adv-x="2870" d="M400 94Q550 99 649 129T807 225T890 398T915 668V1169Q795 1147 684 1099T482 980T322 818T221 619H116Q116 658 117 711T121 825T128 950T138 1076T151 1193T167 1291H2703Q2712 1248 2719 1193T2731
1077T2741 951T2748 826T2752 712T2754 619H2649Q2613 720 2541 810T2376 973T2174 1096T1955 1169V636Q1957 484 1983 382T2068 218T2224 127T2468 94V0H400V94Z" />
<glyph unicode="U" glyph-name="U" horiz-adv-x="3450" d="M605 678Q605 841 575 942T481 1100T321 1177T90 1197V1291H2113V1197Q2020 1197 1949 1170T1831 1081T1759 917T1734 663Q1734 528 1778 426T1896 256T2063 153T2257 119Q2364 119 2454 151T2611 249T2714
416T2751 654Q2751 809 2727 913T2656 1080T2537 1170T2371 1197V1291H3423V1197Q3285 1197 3185 1178T3019 1104T2923 947T2891 681Q2891 522 2859 406T2766 207T2618 74T2419 -7T2176 -46T1894 -57Q1733 -57 1575 -52T1273 -24T1008 40T796 158T656 344T605 615V678Z"
/>
<glyph unicode="V" glyph-name="V" horiz-adv-x="3110" d="M982 0Q857 273 740 494T514 872T301 1112T100 1197V1291H1875V1197Q1823 1197 1778 1191T1699 1170T1646 1129T1627 1063Q1627 1039 1642 988T1685 867T1749 713T1828 538T1917 355T2010 177Q2029 206
2056 255T2114 365T2178 496T2243 636T2303 774T2353 897T2387 996T2400 1058Q2400 1093 2388 1119T2346 1162T2270 1188T2153 1197V1291H3055V1197Q2958 1197 2874 1164T2712 1063T2563 896T2419 662T2271 364T2112 0H982Z" />
<glyph unicode="W" glyph-name="W" horiz-adv-x="4266" d="M823 0Q782 162 737 315T647 596T564 822T497 970Q462 1033 417 1076T321 1146T213 1185T100 1197V1291H1687V1194Q1625 1194 1594 1158T1563 1063Q1563 1039 1569 994T1588 887T1620 752T1666 597T1724
430T1797 262Q1837 379 1875 489T1942 698T1990 879T2008 1027Q2008 1104 1977 1147T1873 1191V1291H3250V1195Q3216 1195 3191 1184T3150 1155T3125 1112T3116 1063Q3116 1027 3128 943T3168 748T3239 507T3342 252Q3366 310 3391 380T3440 525T3485 676T3522
823T3547 953T3557 1058Q3557 1081 3549 1105T3523 1150T3478 1183T3414 1196V1291H4211V1197Q4108 1197 4028 1164T3882 1063T3761 896T3653 662T3547 364T3431 0H2390Q2318 239 2258 425T2145 757Q2085 613 2026 424T1891 0H823Z" />
<glyph unicode="X" glyph-name="X" horiz-adv-x="3209" d="M100 94Q144 94 205 115T340 174T495 265T665 381T842 516T1019 664Q962 731 902 797T783 920T669 1024T566 1098Q521 1124 465 1143T352 1174T238 1191T137 1197V1291H2060V1197Q2026 1197 1996 1192T1944
1175T1910 1147T1897 1105Q1897 1097 1913 1070T1960 1001T2031 906T2121 792Q2179 834 2232 877T2326 960T2391 1033T2416 1090Q2416 1197 2244 1197V1291H3061V1197Q3019 1197 2980 1188T2898 1160T2807 1116T2699 1055Q2559 974 2434 888T2188 711Q2249 639
2315 566T2447 427T2575 308T2691 222Q2750 186 2811 162T2932 122T3048 101T3154 94V0H1147V94Q1186 94 1222 99T1288 117T1334 151T1352 205Q1352 215 1332 248T1277 332T1194 445T1091 577Q1029 527 967 472T856 366T775 271T744 201Q744 94 952 94V0H100V94Z"
/>
<glyph unicode="Y" glyph-name="Y" horiz-adv-x="3178" d="M497 94Q642 97 745 129T915 208T1011 307T1042 404V542Q982 633 911 717T761 874T598 1006T429 1108T261 1174T100 1197V1291H1898V1197Q1810 1197 1763 1161T1716 1063Q1716 1031 1736 984T1796 874T1891
734T2017 564Q2056 621 2103 691T2190 831T2258 961T2285 1058Q2285 1084 2276 1109T2245 1153T2183 1185T2083 1197V1291H3123V1197Q2988 1194 2864 1151T2633 1040T2437 888T2285 718T2188 555T2153 422Q2153 333 2199 271T2325 169T2512 112T2740 94V0H497V94Z"
/>
<glyph unicode="Z" glyph-name="Z" horiz-adv-x="2742" d="M95 108Q133 108 175 125T276 188T413 311T603 509T865 795T1216 1186Q1038 1185 901 1178T663 1155T492 1110T380 1037T320 931T301 784Q300 784 286 784T253 783H205V1291H2673V1197Q2632 1197 2593
1179T2501 1114T2377 990T2200 791T1950 503T1604 113Q1869 116 2055 131T2359 189T2530 308T2584 507H2631Q2651 507 2677 508V0H95V108Z" />
<glyph unicode="[" glyph-name="bracketleft" horiz-adv-x="1227" d="M255 1577H1184L1187 1474Q1075 1474 997 1468T866 1435T783 1357T738 1214T719 985T715 651Q715 455 719 319T738 92T783 -50T865 -127T996 -158T1186 -164L1183 -287H255V1577Z" />
<glyph unicode="\" glyph-name="backslash" horiz-adv-x="1112" d="M484 564Q468 596 441 650T377 774T300 923T217 1084T132 1245T54 1392T-12 1514T-60 1598Q-53 1604 -42 1611T-17 1627T8 1641T27 1652Q35 1656 48 1662T76 1673T102 1683T122 1690Q136 1656
161 1602T218 1481T287 1336T363 1178T441 1019T515 868T580 738T630 638Q646 607 673 552T737 428T814 278T898 115T982 -46T1060 -192T1126 -311T1172 -389Q1129 -423 1083 -445T989 -481Q977 -451 953 -398T896 -277T826 -129T747 32T668 195T593 346T530 473T484
564Z" />
<glyph unicode="]" glyph-name="bracketright" horiz-adv-x="1227" d="M43 -184Q154 -184 232 -178T362 -145T444 -67T489 76T508 305T512 639Q512 835 508 971T489 1198T444 1340T362 1417T231 1448T41 1454L44 1577H972V-287H43V-184Z" />
<glyph unicode="^" glyph-name="asciicircum" horiz-adv-x="1594" d="M301 299Q432 556 549 806T757 1291H876Q967 1057 1084 807T1332 299Q1290 268 1250 246T1162 207L817 1071L471 207Q424 224 383 246T301 299Z" />
<glyph unicode="_" glyph-name="underscore" horiz-adv-x="1949" d="M2009 -354V-535H-60V-354H2009Z" />
<glyph unicode="`" glyph-name="grave" horiz-adv-x="1707" d="M463 1405Q394 1434 356 1482T317 1589Q317 1631 332 1663T372 1716T428 1749T493 1761Q520 1761 549 1755T608 1736Q628 1727 670 1700T774 1632T913 1540T1079 1430T1266 1310T1468 1187H1283Q1111
1238 973 1273T731 1334T561 1375T463 1405Z" />
<glyph unicode="a" glyph-name="a" horiz-adv-x="2853" d="M125 221Q125 309 179 367T322 458T525 505T761 519Q868 519 971 517T1165 512T1332 503T1458 492V709Q1458 789 1436 844T1367 932T1248 981T1078 996Q1007 996 936 994T804 988Q898 988 976 975T1110
936T1196 876T1227 796Q1227 746 1191 709T1093 646T946 608T764 595Q675 595 595 612T452 658T354 728T317 816Q317 865 355 905T459 975T611 1028T794 1064T992 1085T1187 1092Q1326 1092 1468 1090T1742 1075T1990 1038T2192 968T2327 855T2377 688V449Q2377
356 2389 299T2424 210T2476 168T2540 157Q2571 157 2599 169T2649 207T2685 269T2701 356H2814Q2814 266 2787 202T2712 92T2596 21T2450 -21T2281 -40T2099 -45Q1986 -45 1891 -40T1719 -19T1588 29T1501 112Q1459 83 1395 55T1234 5T1003 -31T689 -45Q571 -45
469 -27T290 25T169 108T125 221ZM1010 270Q1010 250 1018 228T1046 186T1097 155T1176 142Q1203 142 1235 143T1305 148T1383 163T1468 191Q1458 232 1458 289V396Q1415 398 1371 398T1286 399Q1218 399 1166 394T1080 375T1028 335T1010 270Z" />
<glyph unicode="b" glyph-name="b" horiz-adv-x="2666" d="M230 27Q240 47 247 72T259 133T267 219T272 338T274 497T275 704Q275 894 249 1012T167 1195T24 1284T-188 1307V1400L1154 1490V940Q1196 972 1253 999T1386 1047T1558 1080T1776 1092Q1951 1092 2094
1054T2340 944T2497 769T2553 536Q2553 391 2494 282T2324 101T2053 -8T1692 -45Q1550 -45 1432 -34T1206 -10T993 15T770 26Q608 26 497 17T314 -18L230 27ZM1154 125Q1205 105 1257 94T1367 83Q1423 83 1460 105T1520 178T1552 308T1561 502Q1561 595 1554 671T1527
800T1477 882T1398 911Q1359 911 1323 902T1255 876T1198 836T1154 785V125Z" />
<glyph unicode="c" glyph-name="c" horiz-adv-x="2486" d="M123 514Q123 619 172 702T310 850T521 960T789 1035T1099 1078T1436 1092Q1554 1092 1668 1083T1885 1057T2073 1013T2223 954T2321 881T2357 793Q2357 744 2327 699T2240 618T2100 561T1909 539Q1808
539 1720 555T1566 599T1464 665T1426 750Q1426 789 1451 826T1527 893T1653 941T1828 959Q1771 975 1710 982T1585 989Q1494 989 1409 969T1257 900T1150 771T1110 570Q1110 492 1132 429T1195 315T1289 228T1407 167T1541 131T1683 119Q1798 119 1905 139T2094
193T2225 273T2274 371H2397Q2397 301 2362 243T2262 139T2110 59T1916 1T1691 -33T1445 -45Q1264 -45 1096 -34T781 2T513 70T306 174T171 320T123 514Z" />
<glyph unicode="d" glyph-name="d" horiz-adv-x="2807" d="M113 522Q113 669 173 776T336 954T575 1058T864 1092Q979 1092 1071 1083T1239 1056T1376 1012T1492 953V976Q1492 1076 1466 1140T1384 1242T1241 1293T1029 1307V1400L2391 1490V468Q2391 403 2395
351T2413 258T2453 188T2522 138T2629 107T2783 92V-2Q2715 -2 2619 -3T2415 -6T2193 -10T1978 -14T1790 -17T1654 -18Q1632 -18 1611 -7T1571 22T1536 65T1510 117Q1473 83 1423 54T1298 2T1119 -32T870 -45Q699 -45 559 0T320 123T167 304T113 522ZM1085 526Q1085
433 1092 359T1119 233T1169 154T1248 126Q1326 126 1391 158T1492 246V824Q1458 855 1423 876T1355 911T1291 929T1236 935Q1156 935 1121 834T1085 526Z" />
<glyph unicode="e" glyph-name="e" horiz-adv-x="2515" d="M113 498Q113 599 156 682T277 832T468 947T717 1028T1015 1076T1351 1092Q1586 1092 1777 1059T2103 957T2313 778T2387 517H1083Q1090 401 1122 321T1216 192T1369 121T1583 99Q1660 99 1739 106T1894
129T2035 167T2150 220T2227 288T2256 371H2387Q2387 297 2348 238T2238 133T2073 53T1865 -2T1628 -34T1377 -45Q1090 -45 857 -17T458 75T203 242T113 498ZM1487 629Q1487 720 1473 784T1434 890T1375 950T1302 970Q1259 970 1221 951T1153 890T1105 784T1082
629H1487Z" />
<glyph unicode="f" glyph-name="f" horiz-adv-x="2231" d="M60 94Q194 99 283 122T425 189T501 303T523 470V740H90V834L523 864V1083Q523 1184 562 1260T674 1392T848 1484T1075 1541T1344 1571T1646 1580Q1847 1580 1991 1559T2227 1499T2362 1406T2406 1286Q2406
1236 2376 1193T2289 1117T2149 1066T1959 1047Q1862 1047 1778 1063T1630 1106T1531 1168T1495 1244Q1495 1283 1520 1317T1594 1376T1719 1416T1893 1431Q1857 1446 1812 1454T1718 1463Q1611 1463 1545 1444T1442 1392T1391 1312T1378 1211Q1378 1145 1381 1090T1389
993T1398 924T1402 884V878H2041V740H1402V470Q1402 363 1439 293T1549 181T1732 119T1985 94V0H60V94Z" />
<glyph unicode="g" glyph-name="g" horiz-adv-x="2602" d="M2 -275Q2 -234 41 -202T146 -145T300 -104T483 -75Q401 -40 351 9T300 122Q300 166 326 203T396 272T500 326T628 365Q520 383 430 411T275 480T174 572T138 692Q138 763 179 820T292 922T465 999T683
1051T934 1082T1204 1092Q1378 1092 1540 1077T1841 1027Q1875 1106 1932 1149T2060 1213T2207 1238T2358 1242Q2381 1242 2405 1242T2456 1241T2515 1239T2585 1236Q2583 1226 2581 1207T2575 1163T2565 1115T2549 1072Q2538 1051 2516 1037T2465 1014T2405 1002T2345
998H2113Q2075 998 2040 997T1973 988Q2041 964 2096 934T2189 867T2249 787T2270 692Q2270 621 2230 566T2117 470T1944 402T1726 357T1475 333T1204 325Q1092 325 984 329T775 345L776 340Q761 340 746 335T719 322T700 302T692 277Q692 253 718 236T787 209T888
195T1007 190H1537Q1655 190 1772 190T1996 184T2194 161T2353 113T2458 30T2497 -99Q2497 -171 2464 -226T2372 -324T2232 -395T2055 -445T1852 -477T1635 -495T1413 -503T1199 -505Q1055 -505 910 -503T632 -492T384 -468T184 -427T51 -364T2 -275ZM1001 708Q1001
654 1012 605T1047 518T1109 458T1203 435Q1258 435 1297 457T1360 518T1396 605T1407 708Q1407 765 1396 815T1361 902T1297 961T1203 983Q1148 983 1110 962T1047 903T1012 815T1001 708ZM719 -268Q719 -308 756 -333T863 -373T1029 -392T1245 -398Q1307 -398
1372 -397T1499 -391T1616 -379T1712 -357T1777 -325T1801 -278Q1801 -248 1770 -227T1682 -193T1543 -171T1362 -160T1147 -155T904 -154Q874 -154 844 -152T783 -147Q719 -192 719 -268Z" />
<glyph unicode="h" glyph-name="h" horiz-adv-x="3034" d="M75 94Q165 97 232 109T347 147T426 216T475 325T501 485T508 704Q508 894 482 1012T400 1195T257 1284T45 1307V1400L1387 1490V900Q1477 940 1571 975T1764 1036T1965 1077T2174 1092Q2229 1092 2286
1088T2397 1069T2500 1023T2583 939T2640 805T2661 612Q2661 574 2659 535T2656 448Q2656 389 2658 340T2672 252T2705 183T2768 134T2870 104T3019 94V0H1623V76Q1655 97 1677 131T1712 216T1732 333T1738 488Q1738 599 1723 665T1680 765T1617 810T1538 820Q1503
820 1465 813T1387 792V470Q1387 383 1393 319T1412 207T1448 129T1502 76V0H75V94Z" />
<glyph unicode="i" glyph-name="i" horiz-adv-x="1898" d="M467 1451Q467 1502 507 1546T617 1624T780 1676T979 1695Q1085 1695 1178 1676T1342 1624T1452 1547T1492 1451Q1492 1401 1452 1357T1342 1280T1179 1228T979 1209Q874 1209 781 1228T618 1280T508
1357T467 1451ZM75 94Q213 99 307 129T460 212T545 341T571 515Q571 615 545 686T463 803T320 870T108 891V985L1450 1075V515Q1450 417 1467 341T1531 212T1663 129T1883 94V0H75V94Z" />
<glyph unicode="j" glyph-name="j" horiz-adv-x="1627" d="M832 1209Q727 1209 634 1228T471 1280T361 1357T320 1451Q320 1502 360 1546T470 1624T633 1676T832 1695Q938 1695 1031 1676T1195 1624T1305 1547T1345 1451Q1345 1401 1305 1357T1195 1280T1032 1228T832
1209ZM15 -287Q74 -294 121 -297T208 -301Q287 -301 334 -273T405 -196T437 -80T445 67V472Q445 572 419 650T337 782T194 863T-18 891V985L1336 1075Q1336 1002 1336 897T1335 677Q1335 582 1337 491T1341 316T1346 159T1348 27Q1348 -71 1322 -145T1247 -274T1133
-365T989 -422T822 -453T641 -462Q562 -462 480 -457T316 -444T159 -425T15 -406V-287Z" />
<glyph unicode="k" glyph-name="k" horiz-adv-x="2904" d="M75 94Q165 97 234 109T354 147T441 216T497 325T528 485T538 704Q538 894 512 1012T430 1195T287 1284T75 1307V1400L1417 1490V579Q1490 630 1557 685T1675 789T1756 872T1787 920Q1787 940 1744 946T1627
952V1046H2739V952Q2620 952 2478 924T2177 840T1843 699T1486 500Q1578 515 1673 527T1860 547T2037 560T2196 565Q2300 565 2380 554T2517 517T2610 452T2661 355Q2679 289 2707 242T2768 164T2832 118T2889 99V-6Q2863 -14 2803 -22T2659 -39T2470 -52T2252
-57Q2133 -57 2049 -52T1907 -33T1812 1T1754 54T1720 129T1698 228Q1690 269 1680 306T1641 373T1560 419T1417 438Q1418 348 1426 283T1454 176T1506 114T1589 94V0H75V94Z" />
<glyph unicode="l" glyph-name="l" horiz-adv-x="1807" d="M75 94Q165 97 232 107T347 142T426 208T475 317T501 479T508 704Q508 831 498 925T466 1086T408 1196T321 1263T201 1297T45 1307V1400L1387 1490V470Q1387 372 1405 303T1470 190T1594 122T1792 94V0H75V94Z" />
<glyph unicode="m" glyph-name="m" horiz-adv-x="4197" d="M75 94Q200 99 288 126T431 203T512 326T538 497Q538 620 512 695T430 812T287 867T75 881V975L1381 1065V903Q1471 943 1564 977T1754 1037T1953 1077T2160 1092Q2220 1092 2279 1087T2392 1063T2489
1004T2564 897Q2653 938 2743 973T2926 1035T3119 1077T3327 1092Q3382 1092 3439 1088T3550 1069T3653 1023T3736 939T3793 805T3814 612Q3814 574 3812 535T3809 448Q3809 360 3825 294T3882 183T3996 117T4182 94V0H2812V76Q2844 97 2866 131T2901 216T2921
333T2927 488Q2927 599 2912 665T2869 765T2806 810T2727 820Q2695 820 2662 815T2593 802Q2601 762 2606 715T2611 612Q2611 574 2609 524T2606 427Q2606 339 2610 273T2625 164T2655 98T2705 76V0H1609V76Q1641 97 1663 131T1698 216T1718 333T1724 488Q1724
599 1709 665T1666 765T1603 810T1524 820Q1490 820 1454 813T1381 795V470Q1381 383 1387 319T1406 207T1442 129T1496 76V0H75V94Z" />
<glyph unicode="n" glyph-name="n" horiz-adv-x="3074" d="M75 94Q200 99 288 126T431 203T512 326T538 497Q538 620 512 695T430 812T287 867T75 881V975L1417 1065V900Q1507 940 1601 975T1794 1036T1995 1077T2204 1092Q2259 1092 2316 1088T2427 1069T2530
1023T2613 939T2670 805T2691 612Q2691 574 2689 535T2686 448Q2686 360 2695 294T2740 183T2852 117T3059 94V0H1653V76Q1685 97 1707 131T1742 216T1762 333T1768 488Q1768 599 1753 665T1710 765T1647 810T1568 820Q1533 820 1495 813T1417 792V470Q1417 383
1423 319T1442 207T1478 129T1532 76V0H75V94Z" />
<glyph unicode="o" glyph-name="o" horiz-adv-x="2627" d="M113 523Q113 668 199 775T444 953T823 1058T1314 1093Q1583 1093 1804 1059T2183 954T2427 776T2514 523Q2514 379 2428 272T2184 95T1805 -10T1314 -45Q1044 -45 823 -11T444 94T200 272T113 523ZM1110
523Q1110 430 1124 346T1164 199T1228 98T1314 60Q1361 60 1398 97T1462 198T1503 346T1517 523Q1517 617 1503 701T1463 850T1399 952T1314 990Q1266 990 1229 952T1165 850T1124 702T1110 523Z" />
<glyph unicode="p" glyph-name="p" horiz-adv-x="2869" d="M15 -368Q105 -365 174 -352T294 -309T381 -234T437 -119T468 45T478 265Q478 392 467 487T431 652T370 768T282 841T164 879T15 890V984L1357 1074V940Q1399 972 1456 999T1590 1047T1762 1080T1979
1092Q2199 1092 2348 1050T2587 933T2717 759T2756 544Q2756 397 2697 287T2534 103T2289 -8T1985 -45Q1900 -45 1814 -36T1647 -8T1492 36T1357 96V8Q1357 -90 1381 -159T1463 -272T1620 -340T1869 -368V-462H15V-368ZM1357 237Q1426 174 1494 145T1613 115Q1693
115 1728 214T1764 520Q1764 613 1757 686T1730 811T1680 889T1601 916Q1562 916 1526 907T1458 881T1401 841T1357 790V237Z" />
<glyph unicode="q" glyph-name="q" horiz-adv-x="2731" d="M113 526Q113 627 142 708T224 852T347 960T503 1035T680 1078T870 1092Q1005 1092 1133 1081T1385 1056T1631 1031T1878 1020Q1993 1020 2106 1029T2332 1065L2415 1020Q2404 949 2396 862T2382 681T2373
494T2370 314Q2370 187 2376 88T2400 -86T2447 -213T2524 -298T2638 -347T2794 -368V-462H989V-368Q1124 -363 1219 -333T1375 -250T1464 -121T1492 53V106Q1450 74 1393 47T1259 -1T1087 -33T870 -45Q699 -45 559 -2T320 119T167 300T113 526ZM1085 545Q1085 452
1092 373T1119 236T1169 145T1248 112Q1287 112 1323 121T1390 147T1448 187T1492 238V910Q1458 927 1423 938T1355 955T1291 964T1235 967Q1156 967 1121 860T1085 545Z" />
<glyph unicode="r" glyph-name="r" horiz-adv-x="2526" d="M70 94Q204 99 293 129T435 212T511 341T533 515Q533 615 507 686T425 803T282 870T70 891V985L1412 1075V927Q1468 966 1538 996T1685 1048T1844 1081T2006 1092Q2130 1092 2220 1071T2370 1012T2458
920T2487 801Q2487 752 2457 705T2370 621T2230 560T2039 537Q1942 537 1864 552T1729 594T1643 660T1612 744Q1612 798 1644 837T1728 902T1843 941T1967 955Q1875 955 1800 947T1658 923T1532 880T1412 816V524Q1412 417 1437 339T1522 208T1678 128T1919 94V0H70V94Z"
/>
<glyph unicode="s" glyph-name="s" horiz-adv-x="2443" d="M238 -56Q227 -32 218 13T202 107T191 201T187 271H310Q337 226 413 189T604 126T868 86T1189 72Q1288 72 1345 98T1402 163Q1402 197 1367 217T1270 250T1128 269T956 282T768 296T580 320T407 361T265
427T169 526T133 667Q133 743 163 804T248 912T379 993T548 1049T747 1081T966 1092Q1052 1092 1142 1089T1322 1080T1495 1068T1652 1057T1784 1048T1881 1044Q1917 1044 1956 1046T2032 1055T2102 1070T2158 1093Q2169 1069 2178 1029T2194 944T2205 858T2209
791H2089Q2069 824 1997 859T1812 923T1557 970T1252 989Q1235 989 1209 987T1158 976T1115 951T1097 907Q1097 874 1131 853T1224 818T1361 795T1527 776T1708 754T1889 722T2055 673T2192 601T2285 497T2319 355Q2319 268 2261 195T2097 69T1848 -15T1533 -45Q1393
-45 1257 -38T990 -22T737 -6T502 1Q467 1 430 -2T357 -12T291 -29T238 -56Z" />
<glyph unicode="t" glyph-name="t" horiz-adv-x="2049" d="M330 909H58V1003Q174 1003 290 1016T512 1055T712 1122T878 1218T995 1342T1053 1497H1265V1047H1892V909H1265V597Q1265 460 1276 365T1319 210T1406 123T1548 96Q1617 96 1682 109T1797 155T1877 242T1908
380H2029Q2029 312 2014 254T1960 149T1857 65T1696 5T1464 -32T1153 -45Q1034 -45 927 -38T729 -9T564 49T438 144T358 286T330 484V909Z" />
<glyph unicode="u" glyph-name="u" horiz-adv-x="2835" d="M316 316Q316 347 318 386T324 467T329 549T332 622Q332 673 325 724T291 817T214 885T75 911Q44 911 8 908V1002L1240 1092V505Q1240 430 1248 375T1279 283T1341 228T1440 209Q1472 209 1506 214T1576
231V617Q1576 704 1560 762T1515 856T1450 912T1370 943V1020L2455 1110V468Q2455 370 2467 301T2517 188T2626 120T2817 92L2823 -2Q2755 -2 2667 -3T2482 -6T2286 -10T2095 -14T1926 -17T1798 -18Q1754 -18 1720 -6T1659 27T1615 74T1588 130Q1503 89 1419 57T1246
2T1062 -33T862 -45Q809 -45 748 -43T627 -30T510 3T410 66T342 167T316 316Z" />
<glyph unicode="v" glyph-name="v" horiz-adv-x="2622" d="M820 0Q774 74 727 154T632 315T539 472T451 617T371 741T300 834Q272 866 234 888T155 925T76 946T10 953V1047H1636V953Q1600 953 1553 950T1465 936T1395 909T1366 865Q1366 847 1383 803T1430 699T1499
565T1581 417T1669 267T1755 130Q1774 155 1807 213T1880 347T1960 504T2034 659T2088 786T2109 861Q2109 886 2085 903T2023 932T1936 948T1839 953V1047H2612V953Q2570 953 2524 948T2435 928T2352 887T2283 818Q2252 774 2219 717T2150 593T2078 453T2003 303T1924
150T1844 0H820Z" />
<glyph unicode="w" glyph-name="w" horiz-adv-x="3837" d="M722 0Q698 52 668 123T603 275T531 439T455 598T380 735T310 834Q280 866 241 888T160 925T80 946T10 953V1047H1480V953Q1409 953 1368 932T1326 874Q1326 855 1336 812T1365 709T1408 578T1462 432T1523
283T1587 145Q1607 186 1632 245T1682 372T1731 511T1773 646T1803 763T1815 848Q1815 883 1805 903T1772 935T1717 949T1638 953V1047H2986V953Q2895 953 2851 927T2806 865Q2806 847 2816 804T2846 702T2890 571T2945 426T3007 278T3073 141Q3092 178 3118 240T3172
376T3227 528T3275 673T3310 791T3324 861Q3324 877 3318 893T3292 922T3238 944T3144 953V1047H3827V953Q3706 953 3623 921T3498 818Q3474 776 3444 711T3380 570T3314 411T3251 251T3197 109T3158 0H2208Q2194 33 2175 82T2134 188T2088 309T2038 433T1987 549T1938
646Q1916 606 1891 553T1840 439T1789 315T1742 194T1701 85T1670 0H722Z" />
<glyph unicode="x" glyph-name="x" horiz-adv-x="2741" d="M75 94Q117 94 159 107T242 142T325 193T408 256Q526 350 620 427T791 573Q720 642 642 709T485 834Q461 851 427 866T355 895T275 919T196 937T127 949T75 953V1047H1861V953Q1825 953 1795 950T1744
936T1710 909T1698 865Q1698 854 1712 829T1754 768T1818 689T1900 596Q1954 633 2007 670T2102 743T2171 808T2198 861Q2198 877 2191 893T2166 922T2122 944T2054 953V1047H2730V953Q2695 953 2655 944T2571 918T2484 876T2399 818Q2287 729 2184 649T1996 497Q2072
422 2157 348T2329 212Q2364 187 2419 166T2533 128T2643 103T2726 94V0H953V94Q989 94 1019 97T1070 111T1104 138T1116 182Q1116 194 1099 222T1052 289T980 376T887 477Q833 440 779 399T681 318T610 244T582 185Q582 170 589 154T614 124T658 103T726 94V0H75V94Z"
/>
<glyph unicode="y" glyph-name="y" horiz-adv-x="2611" d="M-23 -263Q-23 -212 10 -170T104 -98T251 -50T445 -33Q542 -33 623 -48T763 -90T855 -154T888 -234Q888 -271 863 -304T787 -361T661 -400T486 -414Q516 -419 561 -424T655 -434T751 -440T832 -443Q953
-443 1065 -426T1281 -369T1479 -260T1657 -89H895Q808 77 725 219T567 478T424 681T301 826Q254 873 216 899T141 937T69 951T-10 953V1047H1656V953Q1620 953 1574 950T1485 936T1414 909T1385 864Q1385 844 1404 799T1455 693T1528 557T1613 406T1700 251T1781
107Q1807 154 1842 218T1914 355T1987 501T2051 641T2097 761T2115 844Q2115 878 2094 899T2036 933T1954 949T1859 953V1047H2622V953Q2563 953 2519 947T2439 925T2372 882T2309 813Q2248 734 2200 643T2103 449T1999 235T1870 0Q1773 -156 1658 -261T1415 -429T1148
-519T865 -546Q682 -546 521 -528T238 -475T47 -386T-23 -263Z" />
<glyph unicode="z" glyph-name="z" horiz-adv-x="2459" d="M136 104Q157 104 175 110T216 134T269 180T346 256T456 366T609 517T817 714T1090 964Q885 960 736 945T490 895T347 804T300 660H187V1047H2345V953Q2331 953 2319 947T2288 925T2241 881T2169 807T2060
697T1904 545T1690 344T1408 88Q1610 91 1762 104T2016 151T2169 241T2220 387H2333V0H136V104Z" />
<glyph unicode="{" glyph-name="braceleft" horiz-adv-x="1412" d="M335 8Q335 50 346 96T376 190T414 282T452 368T481 440T493 494Q493 525 476 544T428 575T359 591T275 596V694Q319 694 358 698T428 714T475 745T493 796Q493 817 482 849T452 922T414 1007T376
1100T347 1193T335 1282Q335 1359 366 1413T460 1501T619 1551T848 1567Q935 1567 1036 1563T1262 1547V1434Q1220 1437 1185 1437Q1101 1437 1046 1422T957 1378T911 1310T898 1223Q898 1186 912 1144T945 1057T977 967T992 878Q992 831 971 790T903 717T782 666T603
645Q712 643 786 624T906 574T972 501T992 412Q992 369 978 324T945 234T913 147T898 67Q898 19 911 -20T957 -87T1045 -131T1185 -147Q1220 -147 1262 -144V-257Q1137 -269 1036 -273T848 -277Q716 -277 620 -262T460 -212T366 -123T335 8Z" />
<glyph unicode="|" glyph-name="bar" horiz-adv-x="516" d="M196 525Q196 570 196 639T195 793T193 971T191 1161T189 1349T185 1521T181 1664T176 1763Q183 1765 196 1766T225 1769T254 1771T278 1772Q286 1772 300 1772T329 1770T357 1767T380 1763Q377 1728
375 1664T371 1518T368 1339T365 1145T363 950T362 772T361 625T360 525Q360 487 360 426T361 290T363 131T365 -40T367 -209T371 -363T375 -491T380 -579Q331 -589 278 -589Q253 -589 228 -587T176 -579Q179 -548 182 -492T187 -363T190 -206T193 -34T194 138T195
297T196 431T196 525Z" />
<glyph unicode="}" glyph-name="braceright" horiz-adv-x="1412" d="M150 -144Q192 -147 227 -147Q311 -147 366 -132T455 -88T501 -20T514 67Q514 104 500 146T467 233T435 323T420 412Q420 459 441 500T509 573T630 624T809 645Q700 647 626 666T506 716T440
789T420 878Q420 921 434 966T467 1056T499 1143T514 1223Q514 1271 501 1310T455 1377T367 1421T227 1437Q192 1437 150 1434V1547Q275 1559 376 1563T564 1567Q696 1567 792 1552T952 1502T1046 1413T1077 1282Q1077 1240 1066 1194T1036 1100T998 1008T960 922T931
850T919 796Q919 765 936 746T984 715T1053 699T1137 694V596Q1093 596 1054 592T984 576T937 545T919 494Q919 473 930 441T960 368T998 283T1036 190T1065 97T1077 8Q1077 -69 1046 -123T952 -211T793 -261T564 -277Q477 -277 376 -273T150 -257V-144Z" />
<glyph unicode="~" glyph-name="asciitilde" horiz-adv-x="1707" d="M88 591Q132 645 190 680T311 737T439 767T558 776Q643 776 730 759T905 721T1084 683T1264 665Q1296 665 1343 667T1441 676T1539 691T1619 714L1654 580Q1609 526 1551 490T1429 433T1301
402T1182 393Q1098 393 1012 410T837 449T658 488T478 506Q446 506 399 504T301 495T203 480T123 457L88 591Z" />
<glyph unicode="&#xa0;" glyph-name="space" horiz-adv-x="885" />
<glyph unicode="&#xa1;" glyph-name="exclamdown" horiz-adv-x="1148" d="M574 638Q479 638 396 660T251 719T153 807T117 915Q117 972 153 1022T251 1109T396 1168T574 1190Q668 1190 751 1169T896 1110T994 1022T1030 915Q1030 858 994 808T897 720T752 660T574
638ZM71 -231Q71 -176 99 -126T171 -26T264 72T358 173T429 283T458 406Q458 447 491 465T574 484Q599 484 620 480T656 466T681 442T690 406Q690 341 718 284T790 174T883 72T977 -26T1048 -125T1077 -231Q1077 -317 1036 -375T926 -468T765 -519T574 -535Q474
-535 383 -520T223 -469T112 -375T71 -231Z" />
<glyph unicode="&#xa2;" glyph-name="cent" horiz-adv-x="2522" d="M133 690Q133 785 174 863T289 1002T467 1110T696 1188T965 1238T1261 1264Q1259 1326 1256 1379T1250 1473Q1276 1478 1304 1480T1359 1483Q1384 1483 1413 1481T1469 1473Q1464 1435 1461 1383T1456
1268Q1573 1267 1686 1258T1900 1231T2087 1188T2235 1129T2332 1056T2367 969Q2367 920 2337 875T2250 794T2110 737T1919 715Q1818 715 1730 731T1576 775T1474 841T1436 926Q1436 965 1461 1002T1537 1069T1663 1117T1838 1135Q1781 1151 1720 1158T1595 1165Q1504
1165 1419 1145T1267 1076T1160 947T1120 746Q1120 668 1142 605T1205 491T1299 404T1417 343T1551 307T1693 295Q1808 295 1915 315T2104 369T2235 449T2284 547H2407Q2407 477 2372 419T2272 315T2120 235T1926 177T1701 143T1455 131H1419Q1421 68 1424 14T1430
-86Q1423 -88 1409 -89T1379 -92T1347 -94T1322 -95Q1314 -95 1299 -95T1268 -93T1238 -90T1214 -86Q1217 -44 1220 12T1225 135Q1071 141 931 157T669 203T449 275T280 377T171 514T133 690Z" />
<glyph unicode="&#xa3;" glyph-name="sterling" horiz-adv-x="3256" d="M174 196Q174 245 212 288T323 364T500 416T737 435Q766 435 796 434T859 431Q833 463 805 494T747 557Q685 555 626 554T513 551T413 547T330 542Q328 549 327 562T324 591T322 620T321
644Q321 652 321 666T323 695T326 723T330 746Q378 742 452 739T613 734Q595 769 585 807T574 888Q574 969 612 1034T720 1151T888 1239T1107 1300T1368 1335T1661 1347Q1764 1347 1879 1344T2112 1333T2347 1313T2570 1282T2767 1240T2924 1185T3029 1115T3067
1029Q3067 970 3025 929T2915 861T2761 823T2584 811Q2462 811 2367 828T2206 873T2106 936T2071 1009Q2071 1044 2100 1076T2188 1134T2337 1174T2547 1191Q2492 1198 2436 1204T2319 1216T2192 1225T2053 1228Q1961 1228 1884 1217T1752 1169T1667 1061T1636
870Q1636 840 1640 804T1650 727Q1724 728 1797 729T1934 731T2052 735T2141 740Q2146 714 2148 692T2151 644Q2151 619 2149 594T2141 542Q2108 545 2058 548T1946 553T1814 556T1672 559Q1675 530 1675 506Q1675 462 1669 422T1651 345Q1805 326 1955 314T2247
301Q2315 301 2387 304T2528 315T2663 336T2782 367T2876 411T2935 469H3028Q3042 448 3055 422T3077 368T3093 311T3099 255Q3099 165 3060 102T2942 -2T2741 -62T2455 -81Q2322 -81 2202 -62T1968 -13T1746 56T1529 133L1525 129Q1484 90 1419 56T1258 -3T1033
-42T738 -57Q581 -57 473 -39T299 13T203 93T174 196ZM367 182Q367 144 395 117T467 71T560 45T654 36Q741 36 800 50T894 88T945 140T960 200Q960 223 956 245T944 288Q893 295 840 298T731 302Q646 302 579 294T464 269T392 231T367 182Z" />
<glyph unicode="&#xa4;" glyph-name="currency" horiz-adv-x="1647" d="M153 59Q147 65 136 77T114 102T93 126T80 144Q93 155 120 180T180 238T251 307T324 376Q284 437 262 506T240 653Q240 730 262 800T325 931Q290 964 253 1000T181 1069T120 1127T80 1165Q83
1171 92 1182T113 1207T136 1232T153 1250Q159 1256 170 1266T194 1288T219 1308T238 1323Q248 1311 273 1284T331 1224T400 1152T470 1079Q544 1130 634 1159T824 1188Q924 1188 1013 1160T1177 1080Q1210 1115 1246 1152T1315 1224T1373 1284T1409 1323Q1416
1318 1428 1309T1453 1288T1477 1267T1494 1250Q1500 1244 1511 1232T1533 1207T1554 1183T1567 1165Q1554 1154 1527 1129T1467 1071T1395 1002T1323 932Q1364 871 1386 801T1409 653Q1409 576 1387 506T1324 375Q1358 342 1395 306T1467 238T1527 180T1567 144Q1564
138 1555 127T1534 102T1511 77T1494 59Q1488 53 1477 43T1453 21T1428 1T1409 -14Q1398 -2 1374 24T1317 84T1248 155T1178 227Q1104 176 1014 148T824 119Q723 119 633 147T469 228Q435 193 399 156T330 85T273 25T238 -14Q231 -9 219 0T194 21T170 42T153 59ZM400
653Q400 561 432 488T520 364T654 286T824 259Q915 259 993 286T1127 364T1216 488T1248 653Q1248 744 1216 817T1128 941T993 1019T824 1047Q732 1047 655 1020T521 941T432 817T400 653Z" />
<glyph unicode="&#xa5;" glyph-name="yen" horiz-adv-x="2972" d="M407 94Q517 97 600 116T742 167T840 235T898 312Q809 311 723 310T562 306T426 301T328 296Q326 303 325 318T322 350T320 383T319 408Q319 416 319 428T321 454T324 479T328 500Q364 497 427
495T569 490T739 487T922 484V542Q908 563 893 584T863 626Q786 625 705 624T551 620T419 616T328 612Q326 619 325 632T322 661T320 690T319 714Q319 722 319 735T321 762T324 789T328 811Q352 809 394 806T491 798T609 788T736 779Q650 871 555 948T362 1080T167
1166T-20 1197V1291H1768V1197Q1680 1197 1633 1161T1586 1063Q1586 1031 1606 984T1666 874T1761 734T1887 564Q1926 621 1973 691T2060 831T2128 961T2155 1058Q2155 1084 2146 1109T2115 1153T2053 1185T1953 1197V1291H2993V1197Q2874 1194 2763 1160T2554
1071T2370 944T2219 798Q2277 800 2341 802T2463 807T2565 812T2627 816Q2637 767 2637 714Q2637 689 2635 664T2627 612Q2611 614 2579 615T2503 618T2407 620T2301 623T2194 624T2094 626Q2071 588 2056 552T2032 484Q2127 485 2219 486T2391 490T2532 495T2627
500Q2632 474 2634 454T2637 408Q2637 383 2635 353T2627 296Q2595 299 2535 302T2396 307T2225 310T2038 313Q2075 195 2204 145T2560 94V0H407V94Z" />
<glyph unicode="&#xa6;" glyph-name="brokenbar" horiz-adv-x="516" d="M194 797Q194 880 194 974T192 1164T189 1352T185 1524T181 1665T176 1761Q183 1763 196 1764T225 1767T254 1769T278 1770Q286 1770 300 1770T329 1768T357 1765T380 1761Q377 1729 375
1670T371 1532T368 1361T365 1173T363 980T362 797H194ZM362 384Q362 301 362 207T364 17T367 -171T371 -343T375 -484T380 -580Q373 -582 360 -583T331 -586T302 -588T278 -589Q270 -589 256 -589T227 -587T199 -584T176 -580Q178 -548 180 -489T185 -351T188
-180T191 8T193 201T194 384H362Z" />
<glyph unicode="&#xa7;" glyph-name="section" horiz-adv-x="2642" d="M408 -118Q432 -142 481 -167T598 -215T748 -258T922 -294T1108 -318T1297 -327Q1344 -327 1383 -324T1451 -312T1494 -290T1510 -258Q1510 -227 1475 -208T1379 -175T1238 -154T1067 -138T881
-121T695 -95T523 -55T382 5T287 93T251 216Q251 270 273 314T335 393T427 456T543 503T674 537T811 561Q703 574 605 596T431 659T311 759T266 908Q266 999 324 1069T486 1186T733 1257T1044 1282Q1130 1282 1220 1279T1400 1270T1573 1258T1730 1247T1862 1238T1959
1234Q1995 1234 2031 1236T2100 1245T2163 1260T2216 1283Q2226 1259 2235 1217T2252 1129T2263 1040T2267 971H2167Q2137 995 2088 1020T1974 1068T1833 1111T1673 1147T1503 1170T1330 1179Q1314 1179 1288 1178T1237 1171T1194 1152T1176 1115Q1176 1078 1210
1053T1304 1011T1442 981T1609 957T1791 932T1973 901T2141 856T2279 790T2372 698T2407 573Q2407 489 2366 432T2245 338T2047 283T1773 258Q1851 249 1927 236T2073 205T2200 160T2301 97T2368 13T2392 -97Q2392 -187 2335 -251T2180 -356T1950 -416T1668 -436Q1537
-436 1406 -429T1142 -413T874 -397T600 -390Q565 -390 529 -393T460 -403T397 -420T346 -447Q339 -431 333 -405T320 -348T310 -283T302 -218T297 -161T295 -118H408ZM1096 434Q1096 394 1132 369T1229 327T1373 300T1549 281Q1563 305 1571 324T1583 359T1589
391T1590 423Q1590 457 1553 477T1451 509T1300 527T1118 538Q1096 491 1096 434Z" />
<glyph unicode="&#xa8;" glyph-name="dieresis" horiz-adv-x="1707" d="M920 1495Q920 1527 936 1558T984 1614T1063 1654T1173 1669Q1236 1669 1283 1654T1362 1614T1410 1558T1426 1495Q1426 1463 1410 1433T1362 1378T1283 1338T1173 1323Q1110 1323 1063 1338T984
1377T936 1432T920 1495ZM503 1323Q440 1323 393 1338T314 1377T266 1432T250 1495Q250 1527 266 1558T314 1614T393 1654T503 1669Q566 1669 613 1654T692 1614T740 1558T756 1495Q756 1463 740 1433T692 1378T613 1338T503 1323Z" />
<glyph unicode="&#xa9;" glyph-name="copyright" horiz-adv-x="3255" d="M133 553Q133 703 169 826T272 1048T429 1224T629 1358T861 1454T1113 1518T1374 1552T1634 1563Q1830 1563 2017 1538T2369 1462T2672 1332T2911 1145T3066 899T3122 591Q3122 441 3086
318T2983 96T2826 -80T2626 -214T2394 -310T2142 -374T1881 -408T1621 -419Q1424 -419 1238 -394T886 -318T583 -188T344 -1T189 245T133 553ZM290 553Q290 444 323 340T427 144T606 -26T863 -160T1203 -247T1630 -279Q1984 -279 2238 -217T2655 -43T2896 226T2974
571Q2974 680 2941 784T2837 980T2658 1150T2401 1284T2061 1371T1634 1403Q1280 1403 1026 1341T609 1167T368 898T290 553ZM586 564Q586 675 651 765T836 919T1125 1018T1504 1053Q1616 1053 1720 1045T1916 1026T2085 1008T2219 999Q2233 999 2250 1003T2283
1014T2314 1033T2338 1057H2474Q2497 1020 2515 969T2547 863T2568 755T2576 659H2442Q2421 732 2367 781T2240 862T2087 906T1932 920Q1838 920 1752 904T1599 845T1493 731T1453 548Q1453 454 1496 388T1610 279T1773 217T1965 197Q2019 197 2074 204T2182 225T2280
263T2362 320T2421 396T2450 493H2584Q2584 395 2529 316T2364 181T2091 95T1712 65Q1460 65 1253 88T898 167T668 320T586 564Z" />
<glyph unicode="&#xaa;" glyph-name="ordfeminine" horiz-adv-x="2005" d="M633 946Q564 946 494 955T368 984T277 1037T241 1118Q241 1173 273 1209T358 1267T480 1296T622 1305Q686 1305 748 1304T864 1302T964 1297T1040 1290V1400Q1040 1448 1027 1479T986
1528T915 1553T813 1560Q769 1560 727 1559T648 1555Q705 1555 751 1549T831 1530T883 1498T902 1452Q902 1422 881 1403T821 1371T732 1355T623 1350Q570 1350 522 1357T437 1379T377 1414T355 1464Q355 1494 378 1517T440 1559T532 1591T642 1613T761 1626T878
1630Q961 1630 1046 1629T1211 1620T1359 1597T1480 1555T1561 1487T1591 1387V1244Q1591 1156 1615 1116T1681 1075Q1728 1075 1748 1103T1776 1188H1854Q1854 1107 1819 1059T1724 986T1587 954T1425 947Q1359 947 1303 950T1201 962T1123 988T1069 1035Q1044
1020 1007 1005T916 976T792 955T633 946ZM772 1146Q772 1104 806 1087T889 1069Q927 1069 968 1076T1045 1093Q1042 1105 1041 1118T1040 1147V1219Q1014 1220 988 1220T937 1221Q896 1221 865 1219T814 1208T783 1186T772 1146Z" />
<glyph unicode="&#xab;" glyph-name="guillemotleft" horiz-adv-x="2168" d="M990 575Q990 623 1024 655T1126 718L1956 1111L2028 1035L1470 575L2028 115L1956 39L1126 432Q1058 463 1024 495T990 575ZM276 432Q208 463 174 495T140 575Q140 623 174 655T276
718L1106 1111L1178 1035L620 575L1178 115L1106 39L276 432Z" />
<glyph unicode="&#xac;" glyph-name="logicalnot" horiz-adv-x="1714" d="M135 857Q132 883 131 908T130 959Q130 984 131 1009T135 1061Q151 1058 185 1055T267 1050T370 1047T484 1044T598 1043T703 1042T787 1041T840 1041Q870 1041 927 1041T1056 1043T1203
1045T1349 1049T1471 1054T1549 1061Q1551 1049 1552 1011T1554 920T1556 803T1559 677T1564 557T1574 460Q1567 459 1554 458T1525 457T1496 456T1472 455Q1464 455 1450 455T1421 456T1393 458T1370 460Q1374 487 1377 535T1383 641T1386 757T1389 867Q1341 869
1287 870T1177 873T1068 874T969 875T891 876T840 877Q821 877 784 877T699 876T595 874T481 872T369 870T267 866T186 862T135 857Z" />
<glyph unicode="&#xae;" glyph-name="registered" horiz-adv-x="3255" d="M133 553Q133 703 169 826T272 1048T429 1224T629 1358T861 1454T1113 1518T1374 1552T1634 1563Q1830 1563 2017 1538T2369 1462T2672 1332T2911 1145T3066 899T3122 591Q3122 441 3086
318T2983 96T2826 -80T2626 -214T2394 -310T2142 -374T1881 -408T1621 -419Q1424 -419 1238 -394T886 -318T583 -188T344 -1T189 245T133 553ZM290 553Q290 444 323 340T427 144T606 -26T863 -160T1203 -247T1630 -279Q1984 -279 2238 -217T2655 -43T2896 226T2974
571Q2974 680 2941 784T2837 980T2658 1150T2401 1284T2061 1371T1634 1403Q1280 1403 1026 1341T609 1167T368 898T290 553ZM625 176Q720 179 783 199T883 265T936 386T952 573Q952 686 934 762T877 884T775 949T625 969V1034H1656Q1879 1034 2046 1025T2324 989T2490
916T2545 796Q2545 735 2491 688T2338 609T2104 560T1805 541H2123Q2226 541 2301 531T2428 490T2511 407T2558 269Q2563 242 2571 224T2594 196T2632 181T2689 177V106Q2618 97 2557 91T2444 80T2346 73T2260 71Q2168 71 2103 75T1992 88T1920 114T1878 156T1855
217T1843 298Q1837 353 1826 392T1790 455T1724 493T1615 510Q1616 421 1622 358T1643 255T1683 195T1750 176V111H625V176ZM1615 606Q1679 609 1738 617T1842 643T1914 692T1941 770Q1941 820 1920 853T1858 908T1756 938T1615 951V606Z" />
<glyph unicode="&#xaf;" glyph-name="overscore" horiz-adv-x="1245" d="M113 1468Q110 1494 109 1514T108 1560Q108 1585 109 1605T113 1652Q134 1647 173 1644T260 1639T362 1636T464 1633T554 1632T618 1632Q648 1632 691 1632T782 1634T881 1636T978 1640T1064
1645T1127 1652Q1128 1645 1129 1634T1130 1609T1131 1582T1132 1560Q1132 1552 1132 1540T1131 1514T1129 1489T1127 1468Q1104 1471 1064 1474T975 1479T873 1483T771 1486T682 1487T618 1488Q592 1488 551 1488T461 1486T360 1484T259 1480T173 1474T113 1468Z"
/>
<glyph unicode="&#xb0;" glyph-name="degree" horiz-adv-x="1239" d="M618 811Q541 811 473 840T355 919T275 1038T246 1183Q246 1261 275 1329T354 1448T473 1528T618 1557Q696 1557 764 1528T883 1448T963 1329T992 1183Q992 1106 963 1038T883 920T764 840T618
811ZM618 996Q657 996 691 1011T750 1051T790 1111T805 1183Q805 1222 791 1256T751 1315T691 1356T618 1371Q580 1371 546 1356T487 1316T446 1256T431 1183Q431 1145 446 1111T486 1052T546 1011T618 996Z" />
<glyph unicode="&#xb1;" glyph-name="plusminus" horiz-adv-x="1684" d="M135 698Q132 724 131 749T130 800Q130 825 131 850T135 902Q152 898 192 896T287 891T406 887T533 884T655 883T759 882Q758 936 757 1004T753 1137T748 1257T740 1337Q766 1340 791 1341T842
1342Q867 1342 892 1341T944 1337Q938 1312 935 1258T929 1138T925 1004T924 882Q970 882 1028 883T1149 885T1274 888T1391 892T1487 896T1549 902Q1550 895 1551 882T1552 853T1553 824T1554 800Q1554 792 1554 778T1553 749T1551 721T1549 698Q1530 701 1489
703T1393 707T1275 710T1149 713T1027 715T924 717Q925 662 926 595T930 465T936 347T944 263Q937 262 924 261T895 260T866 259T842 258Q834 258 820 258T791 259T763 261T740 263Q744 291 747 345T753 465T756 597T759 717Q714 717 656 716T534 714T407 712T289
708T194 704T135 698ZM135 -20Q132 6 131 31T130 82Q130 107 131 132T135 184Q151 181 185 178T267 173T370 170T484 167T598 166T703 165T787 164T840 164Q870 164 927 164T1056 166T1203 168T1349 172T1471 177T1549 184Q1550 177 1551 164T1552 135T1553 106T1554
82Q1554 74 1554 60T1553 31T1551 3T1549 -20Q1526 -17 1471 -14T1345 -9T1195 -5T1045 -2T919 -1T840 0Q821 0 784 0T699 -1T595 -3T481 -5T369 -7T267 -11T186 -15T135 -20Z" />
<glyph unicode="&#xb2;" glyph-name="twosuperior" horiz-adv-x="1769" d="M320 835Q290 835 263 844T214 872T181 919T168 984Q168 1126 290 1209T675 1324Q758 1336 822 1352T929 1392T995 1447T1017 1521Q1017 1598 934 1637T699 1676Q677 1676 651 1675T598
1672T548 1668T509 1665Q581 1661 628 1651T704 1624T744 1586T756 1539Q756 1505 733 1478T673 1432T587 1403T487 1393Q438 1393 392 1402T309 1432T250 1484T228 1561Q228 1608 274 1648T404 1717T605 1762T866 1779Q890 1779 934 1779T1033 1775T1151 1766T1275
1748T1393 1718T1493 1674T1561 1612T1587 1529Q1587 1448 1537 1393T1381 1302T1116 1247T736 1217Q616 1211 536 1192T406 1146T336 1084T315 1015Q315 1009 315 1004T317 990H318Q357 1029 425 1052T593 1089T824 1106T1121 1111Q1203 1111 1276 1118T1405 1139T1498
1175T1543 1223Q1556 1215 1571 1200T1600 1163T1621 1113T1630 1051Q1630 982 1604 939T1533 872T1426 840T1296 831Q1229 831 1154 839T999 860T840 888T686 915T544 936T423 945H412Q416 938 418 931T421 915Q421 900 413 886T392 860T360 842T320 835Z" />
<glyph unicode="&#xb3;" glyph-name="threesuperior" horiz-adv-x="1769" d="M151 1102Q151 1141 176 1168T243 1212T335 1237T439 1245Q506 1245 560 1235T652 1209T711 1172T732 1129Q732 1106 721 1087T683 1053T611 1031T499 1021Q545 1018 603 1010T739 1002Q802
1002 859 1006T961 1025T1031 1068T1057 1144Q1057 1177 1038 1204T979 1249T875 1278T721 1289V1378Q890 1378 969 1414T1048 1527Q1048 1576 1026 1605T967 1649T880 1668T775 1672Q700 1672 649 1663T563 1654Q634 1650 674 1639T734 1610T758 1571T763 1523Q763
1492 740 1469T678 1430T589 1407T484 1399Q431 1399 382 1407T295 1435T233 1483T210 1553Q210 1584 236 1611T310 1660T423 1699T564 1727T726 1744T899 1750Q982 1750 1065 1745T1224 1728T1365 1700T1478 1659T1553 1607T1581 1541Q1581 1491 1543 1455T1434
1393T1267 1353T1051 1331Q1185 1327 1299 1316T1498 1284T1629 1228T1677 1141Q1677 1072 1618 1029T1458 962T1220 930T930 921Q753 921 609 932T364 967T207 1024T151 1102Z" />
<glyph unicode="&#xb4;" glyph-name="acute" horiz-adv-x="1707" d="M287 1187Q390 1248 488 1309T675 1429T841 1539T980 1632T1084 1700T1147 1736Q1176 1749 1205 1755T1262 1761Q1295 1761 1326 1750T1382 1717T1422 1663T1438 1589Q1438 1531 1400 1483T1292
1405Q1262 1392 1195 1376T1024 1334T783 1274T472 1187H287Z" />
<glyph unicode="&#xb5;" glyph-name="mu" horiz-adv-x="2657" d="M215 1047H1092V320Q1092 273 1104 239T1139 182T1191 150T1258 139Q1294 139 1335 149T1419 178Q1416 209 1416 246V1047H2293V321Q2293 259 2314 216T2376 146T2478 107T2619 95V15Q2585 9 2525
2T2389 -11T2229 -24T2064 -34T1911 -42T1788 -45Q1646 -45 1566 -17T1451 73Q1367 20 1269 -12T1047 -45Q1036 -45 1026 -45T1004 -44Q1016 -139 1038 -227T1092 -382V-462H215V1047Z" />
<glyph unicode="&#xb6;" glyph-name="paragraph" horiz-adv-x="2680" d="M1899 1291H2634V1197Q2479 1197 2378 1138T2218 961T2136 671T2112 272Q2112 137 2126 35T2168 -141T2239 -265T2340 -345T2471 -389T2634 -406V-500H1899V1291ZM89 760Q89 844 112 916T192
1047T343 1151T579 1228T915 1275T1364 1291H1666V-500H845V-406Q958 -402 1043 -390T1192 -351T1299 -276T1369 -153T1409 29T1427 285Q1335 275 1253 271T1090 266Q835 266 647 300T335 398T150 553T89 760Z" />
<glyph unicode="&#xb7;" glyph-name="middot" horiz-adv-x="1147" d="M117 640Q117 704 151 756T247 845T391 902T573 922Q671 922 755 902T900 846T995 757T1030 640Q1030 575 996 523T900 433T755 376T573 355Q475 355 392 375T247 433T152 522T117 640Z" />
<glyph unicode="&#xb8;" glyph-name="cedilla" horiz-adv-x="1707" d="M338 -322Q350 -355 390 -383T491 -432T625 -464T779 -476Q1067 -476 1067 -352Q1067 -321 1040 -298T971 -260T880 -238T787 -231Q772 -231 753 -232T713 -235T673 -239T641 -244V99L792
156L793 -124Q821 -117 864 -115T954 -113Q993 -113 1049 -114T1168 -121T1291 -141T1402 -181T1481 -247T1512 -346Q1512 -403 1466 -448T1330 -524T1109 -572T806 -589Q737 -589 668 -582T533 -559T408 -521T304 -469T227 -402T187 -322H338Z" />
<glyph unicode="&#xb9;" glyph-name="onesuperior" horiz-adv-x="1357" d="M204 966Q295 969 353 993T446 1060T494 1161T508 1291Q508 1325 504 1360T489 1428T458 1491T409 1543T336 1578T235 1593V1674Q278 1674 335 1679T458 1692T590 1710T718 1731T831 1753T917
1773L1009 1749V1308Q1010 1227 1023 1165T1068 1059T1152 992T1281 966V884H204V966Z" />
<glyph unicode="&#xba;" glyph-name="ordmasculine" horiz-adv-x="1997" d="M277 1287Q277 1374 329 1438T476 1545T703 1609T998 1630Q1160 1630 1293 1609T1520 1546T1667 1439T1719 1287Q1719 1200 1667 1136T1521 1030T1293 967T998 946Q836 946 704 967T476
1030T329 1136T277 1287ZM998 1039Q1027 1039 1049 1057T1088 1107T1112 1185T1120 1287Q1120 1344 1112 1390T1088 1469T1050 1520T998 1538Q969 1538 947 1520T909 1469T885 1390T876 1287Q876 1231 884 1186T908 1108T946 1057T998 1039Z" />
<glyph unicode="&#xbb;" glyph-name="guillemotright" horiz-adv-x="2168" d="M1548 575L990 1035L1062 1111L1892 718Q1960 687 1994 655T2028 575Q2028 527 1994 495T1892 432L1062 39L990 115L1548 575ZM698 575L140 1035L212 1111L1042 718Q1110 687 1144
655T1178 575Q1178 527 1144 495T1042 432L212 39L140 115L698 575Z" />
<glyph unicode="&#xbc;" glyph-name="onequarter" horiz-adv-x="3188" d="M164 966Q255 969 313 993T406 1060T454 1161T468 1291Q468 1325 464 1360T449 1428T418 1491T369 1543T296 1578T195 1593V1674Q238 1674 295 1679T418 1692T550 1710T678 1731T792 1753T877
1773L969 1749V1325Q969 1240 982 1175T1026 1064T1109 994T1241 966V884H164V966ZM433 -64Q460 -43 507 -2T613 95T741 215T879 347T1017 480T1145 605T1252 709T1326 783Q1361 818 1412 869T1524 983T1653 1114T1789 1253T1922 1390T2044 1517T2145 1625T2217
1703Q2236 1689 2257 1672T2300 1633T2339 1590T2373 1543Q2344 1518 2296 1473T2187 1371T2057 1246T1917 1109T1778 972T1649 845T1542 740T1467 666Q1437 636 1389 588T1280 480T1152 352T1015 215T880 78T758 -48T658 -152T591 -225Q498 -164 433 -64ZM1420
418Q1440 429 1477 452T1560 505T1657 570T1760 642T1858 712T1940 776T1997 826T2019 858H2690V418H3015V310H2697Q2714 191 2780 128T2977 59V0H1811V59Q1869 61 1917 81T2002 134T2065 213T2104 310H1420V418ZM1697 411Q1697 408 1698 408Q1700 408 1705 412T1721
418H2117V729Q2117 742 2101 742Q2081 742 2043 723T1960 673T1869 605T1784 530T1722 462T1697 411Z" />
<glyph unicode="&#xbd;" glyph-name="onehalf" horiz-adv-x="3188" d="M204 966Q295 969 353 993T446 1060T494 1161T508 1291Q508 1325 504 1360T489 1428T458 1491T409 1543T336 1578T235 1593V1674Q278 1674 335 1679T458 1692T590 1710T718 1731T831 1753T917
1773L1009 1749V1325Q1009 1240 1022 1175T1066 1064T1149 994T1281 966V884H204V966ZM443 -64Q470 -43 517 -2T623 95T751 215T889 347T1027 480T1155 605T1262 709T1336 783Q1371 818 1422 869T1534 983T1663 1114T1799 1253T1932 1390T2054 1517T2155 1625T2227
1703Q2246 1689 2267 1672T2310 1633T2349 1590T2383 1543Q2354 1518 2306 1473T2197 1371T2067 1246T1927 1109T1788 972T1659 845T1552 740T1477 666Q1447 636 1399 588T1290 480T1162 352T1025 215T890 78T768 -48T668 -152T601 -225Q508 -164 443 -64ZM1583
21Q1583 163 1705 246T2090 361Q2173 373 2237 389T2344 429T2410 484T2432 558Q2432 635 2349 674T2114 713Q2092 713 2066 712T2013 709T1963 705T1924 702Q1996 698 2043 688T2119 661T2159 623T2171 576Q2171 542 2148 515T2088 469T2002 440T1902 430Q1853
430 1807 439T1724 469T1665 521T1643 598Q1643 645 1689 685T1819 754T2020 799T2281 816Q2305 816 2349 816T2448 812T2566 803T2690 785T2808 755T2908 711T2976 649T3002 566Q3002 485 2952 430T2796 339T2531 284T2151 254Q2031 248 1951 229T1821 183T1751
121T1730 52Q1730 46 1730 41T1732 27H1733Q1772 66 1840 89T2008 126T2239 143T2536 148Q2618 148 2691 155T2820 176T2913 212T2958 260Q2971 252 2986 237T3015 200T3036 150T3045 88Q3045 19 3019 -24T2948 -91T2841 -123T2711 -132Q2644 -132 2569 -124T2414
-103T2255 -75T2101 -48T1959 -27T1838 -18H1827Q1831 -25 1833 -32T1836 -48Q1836 -63 1828 -77T1807 -103T1775 -121T1735 -128Q1705 -128 1678 -119T1629 -91T1596 -44T1583 21Z" />
<glyph unicode="&#xbe;" glyph-name="threequarters" horiz-adv-x="3363" d="M170 1090Q170 1129 194 1157T257 1205T344 1233T442 1243Q505 1243 553 1233T635 1207T684 1170T701 1127Q701 1080 641 1050T452 1016Q496 1013 564 1008T708 1002Q768 1002 825 1006T928
1025T1000 1068T1028 1144Q1028 1177 1010 1204T954 1249T855 1278T709 1289V1378Q870 1378 949 1414T1029 1527Q1029 1576 1005 1605T942 1649T853 1668T751 1672Q715 1672 680 1670T614 1666T558 1661T516 1659Q583 1655 628 1645T700 1618T738 1580T749 1533Q749
1502 729 1477T673 1435T592 1409T494 1399Q444 1399 398 1407T315 1435T257 1483T235 1553Q235 1584 261 1611T335 1660T446 1699T584 1727T741 1744T906 1750Q985 1750 1062 1745T1209 1728T1338 1700T1441 1659T1508 1607T1533 1541Q1533 1491 1496 1455T1391
1393T1230 1353T1023 1331Q1150 1327 1258 1316T1445 1284T1570 1228T1615 1141Q1615 1072 1554 1029T1386 962T1133 930T816 921Q734 921 655 925T503 939T370 961T265 994T195 1036T170 1090ZM602 -64Q629 -43 676 -2T782 95T910 215T1048 347T1186 480T1314
605T1421 709T1495 783Q1530 818 1581 869T1693 983T1822 1114T1958 1253T2091 1390T2213 1517T2314 1625T2386 1703Q2405 1689 2426 1672T2469 1633T2508 1590T2542 1543Q2513 1518 2465 1473T2356 1371T2226 1246T2086 1109T1947 972T1818 845T1711 740T1636
666Q1606 636 1558 588T1449 480T1321 352T1184 215T1049 78T927 -48T827 -152T760 -225Q667 -164 602 -64ZM1620 418Q1640 429 1677 452T1760 505T1857 570T1960 642T2058 712T2140 776T2197 826T2219 858H2900V418H3225V310H2907Q2924 191 2990 128T3187 59V0H2011V59Q2069
61 2117 81T2202 134T2265 213T2304 310H1620V418ZM1897 411Q1897 408 1898 408Q1900 408 1907 413T1926 418H2317V729Q2317 742 2301 742Q2281 742 2243 723T2160 674T2069 605T1984 531T1922 462T1897 411Z" />
<glyph unicode="&#xbf;" glyph-name="questiondown" horiz-adv-x="2637" d="M874 915Q874 972 910 1022T1008 1109T1153 1168T1331 1190Q1425 1190 1508 1169T1653 1110T1751 1022T1787 915Q1787 858 1751 808T1654 720T1509 660T1331 638Q1236 638 1153 660T1008
719T910 807T874 915ZM98 -105Q98 -26 138 25T249 111T417 172T627 225T866 289T1119 383Q1151 397 1169 412T1200 441T1224 467T1252 489T1296 504T1368 510Q1396 510 1422 502T1469 477T1502 437T1515 383Q1515 330 1485 289T1408 210T1308 139T1208 66T1132
-16T1101 -117Q1101 -188 1144 -233T1258 -304T1422 -339T1615 -349Q1651 -349 1705 -347T1816 -342T1927 -335T2016 -327Q1888 -322 1804 -302T1670 -251T1599 -183T1578 -105Q1578 -51 1616 -8T1719 65T1872 112T2058 128Q2151 128 2239 113T2396 64T2507 -20T2549
-143Q2549 -203 2498 -252T2358 -339T2147 -404T1886 -450T1594 -476T1290 -485Q1229 -485 1145 -484T966 -478T770 -463T572 -435T389 -389T239 -322T136 -229T98 -105Z" />
<glyph unicode="&#xc0;" glyph-name="Agrave" horiz-adv-x="3186" d="M967 1435Q1078 1479 1189 1527T1404 1622T1600 1712T1765 1789T1889 1845T1961 1874Q2003 1885 2038 1885Q2073 1885 2107 1874T2168 1842T2211 1789T2228 1715Q2228 1646 2182 1596T2054
1525Q2022 1517 1953 1511T1779 1496T1531 1473T1211 1435H967ZM70 94Q99 94 149 111T259 165T384 262T509 406L1131 1291H2140L2685 428Q2742 338 2809 275T2941 171T3064 113T3161 94V0H1240V94Q1284 94 1327 106T1405 142T1461 204T1482 291Q1482 312 1472 346H675Q670
332 668 321T666 300Q666 249 687 211T742 146T820 107T909 94V0H70V94ZM1412 485Q1391 525 1363 577T1297 697T1212 847T1104 1032Q1035 928 979 844T880 693T804 575T748 485H1412Z" />
<glyph unicode="&#xc1;" glyph-name="Aacute" horiz-adv-x="3186" d="M1151 1525Q1069 1546 1023 1596T977 1715Q977 1757 993 1789T1037 1842T1098 1874T1167 1885Q1202 1885 1244 1874Q1265 1868 1315 1846T1439 1789T1605 1712T1800 1623T2015 1528T2238 1435H1994Q1816
1459 1674 1473T1426 1496T1251 1511T1151 1525ZM70 94Q99 94 149 111T259 165T384 262T509 406L1131 1291H2140L2685 428Q2742 338 2809 275T2941 171T3064 113T3161 94V0H1240V94Q1284 94 1327 106T1405 142T1461 204T1482 291Q1482 312 1472 346H675Q670 332
668 321T666 300Q666 249 687 211T742 146T820 107T909 94V0H70V94ZM1412 485Q1391 525 1363 577T1297 697T1212 847T1104 1032Q1035 928 979 844T880 693T804 575T748 485H1412Z" />
<glyph unicode="&#xc2;" glyph-name="Acircumflex" horiz-adv-x="3186" d="M800 1401Q893 1471 968 1525T1104 1623T1215 1699T1308 1759T1389 1811T1466 1860Q1495 1879 1528 1894T1615 1910Q1668 1910 1701 1895T1764 1860Q1802 1835 1840 1811T1922 1760T2015
1699T2126 1623T2262 1526T2430 1401H2266L1615 1584L964 1401H800ZM70 94Q99 94 149 111T259 165T384 262T509 406L1131 1291H2140L2685 428Q2742 338 2809 275T2941 171T3064 113T3161 94V0H1240V94Q1284 94 1327 106T1405 142T1461 204T1482 291Q1482 312 1472
346H675Q670 332 668 321T666 300Q666 249 687 211T742 146T820 107T909 94V0H70V94ZM1412 485Q1391 525 1363 577T1297 697T1212 847T1104 1032Q1035 928 979 844T880 693T804 575T748 485H1412Z" />
<glyph unicode="&#xc3;" glyph-name="Atilde" horiz-adv-x="3186" d="M912 1525Q961 1622 1015 1682T1125 1774T1239 1818T1351 1829Q1430 1829 1511 1810T1674 1769T1840 1728T2008 1709Q2072 1709 2145 1720T2283 1758L2318 1714Q2268 1616 2214 1557T2104 1464T1990
1420T1878 1409Q1799 1409 1719 1428T1556 1469T1390 1511T1222 1530Q1158 1530 1085 1519T947 1481L912 1525ZM70 94Q99 94 149 111T259 165T384 262T509 406L1131 1291H2140L2685 428Q2742 338 2809 275T2941 171T3064 113T3161 94V0H1240V94Q1284 94 1327 106T1405
142T1461 204T1482 291Q1482 312 1472 346H675Q670 332 668 321T666 300Q666 249 687 211T742 146T820 107T909 94V0H70V94ZM1412 485Q1391 525 1363 577T1297 697T1212 847T1104 1032Q1035 928 979 844T880 693T804 575T748 485H1412Z" />
<glyph unicode="&#xc4;" glyph-name="Adieresis" horiz-adv-x="3186" d="M1697 1659Q1697 1691 1713 1722T1761 1778T1840 1818T1950 1833Q2013 1833 2060 1818T2139 1778T2187 1722T2203 1659Q2203 1627 2187 1597T2139 1542T2060 1502T1950 1487Q1887 1487 1840
1502T1761 1541T1713 1596T1697 1659ZM1027 1659Q1027 1691 1043 1722T1091 1778T1170 1818T1280 1833Q1343 1833 1390 1818T1469 1778T1517 1722T1533 1659Q1533 1627 1517 1597T1469 1542T1390 1502T1280 1487Q1217 1487 1170 1502T1091 1541T1043 1596T1027
1659ZM70 94Q99 94 149 111T259 165T384 262T509 406L1131 1291H2140L2685 428Q2742 338 2809 275T2941 171T3064 113T3161 94V0H1240V94Q1284 94 1327 106T1405 142T1461 204T1482 291Q1482 312 1472 346H675Q670 332 668 321T666 300Q666 249 687 211T742 146T820
107T909 94V0H70V94ZM1412 485Q1391 525 1363 577T1297 697T1212 847T1104 1032Q1035 928 979 844T880 693T804 575T748 485H1412Z" />
<glyph unicode="&#xc5;" glyph-name="Aring" horiz-adv-x="3186" d="M1615 1360Q1552 1360 1496 1384T1399 1449T1334 1546T1310 1665Q1310 1728 1334 1784T1399 1881T1496 1947T1615 1971Q1678 1971 1734 1947T1831 1882T1897 1784T1921 1665Q1921 1602 1897
1546T1832 1449T1734 1384T1615 1360ZM1615 1496Q1650 1496 1681 1509T1735 1545T1771 1599T1785 1665Q1785 1700 1772 1731T1735 1785T1681 1821T1615 1835Q1580 1835 1549 1822T1495 1785T1459 1731T1446 1665Q1446 1630 1459 1599T1495 1545T1549 1509T1615
1496ZM70 94Q99 94 149 111T259 165T384 262T509 406L1131 1291H2140L2685 428Q2742 338 2809 275T2941 171T3064 113T3161 94V0H1240V94Q1284 94 1327 106T1405 142T1461 204T1482 291Q1482 312 1472 346H675Q670 332 668 321T666 300Q666 249 687 211T742 146T820
107T909 94V0H70V94ZM1412 485Q1391 525 1363 577T1297 697T1212 847T1104 1032Q1035 928 979 844T880 693T804 575T748 485H1412Z" />
<glyph unicode="&#xc6;" glyph-name="AE" horiz-adv-x="3648" d="M-168 94Q-105 94 -39 122T99 201T247 323T406 482L1165 1291H3356Q3369 1227 3378 1157T3394 1016T3404 877T3407 749H3302Q3255 804 3187 857T3036 958T2854 1048T2651 1118T2433 1165T2208 1182V686Q2245
697 2295 718T2399 767T2509 824T2613 881T2697 930T2751 965Q2759 930 2764 887T2773 799T2777 709T2778 626Q2778 591 2777 550T2772 466T2763 385T2751 315Q2731 327 2694 349T2608 398T2506 455T2397 511T2294 559T2208 592V109Q2321 109 2437 126T2666 172T2884
243T3080 332T3243 434T3362 542H3467Q3467 483 3464 415T3455 276T3439 135T3416 0H1002V94Q1044 94 1085 105T1160 137T1216 192T1243 271V346H566Q561 327 559 310T557 278Q557 225 578 190T633 133T705 103T781 94V0H-168V94ZM1243 485V1166Q1097 1012 993
899T817 706T703 572T634 485H1243Z" />
<glyph unicode="&#xc7;" glyph-name="Ccedilla" horiz-adv-x="2858" d="M115 652Q115 809 200 937T443 1156T824 1296T1322 1346Q1469 1346 1600 1334T1844 1308T2051 1282T2222 1270Q2240 1270 2262 1276T2307 1292T2348 1318T2378 1352H2598Q2628 1300 2653
1228T2695 1077T2723 923T2733 786H2583Q2564 855 2524 911T2427 1012T2304 1089T2166 1143T2022 1174T1885 1185Q1776 1185 1677 1157T1501 1064T1380 893T1334 629Q1334 496 1383 397T1515 233T1705 135T1928 102Q1999 102 2074 114T2220 150T2356 210T2471 297T2553
410T2594 551H2743Q2743 411 2670 299T2453 107T2094 -14T1596 -57Q1582 -57 1568 -57T1540 -56L1541 -166Q1564 -163 1599 -161T1672 -158T1747 -155T1812 -154Q1857 -154 1908 -157T2009 -168T2104 -190T2184 -227T2239 -284T2260 -364Q2260 -421 2214 -463T2078
-533T1857 -575T1554 -589Q1485 -589 1416 -583T1281 -563T1156 -530T1052 -482T975 -419T935 -340H1086Q1098 -373 1138 -398T1239 -440T1373 -465T1527 -474Q1671 -474 1743 -453T1815 -370Q1815 -339 1788 -320T1719 -291T1628 -278T1535 -274Q1520 -274 1501
-275T1461 -278T1421 -282T1389 -287V-54Q1101 -45 866 -6T464 116T206 329T115 652Z" />
<glyph unicode="&#xc8;" glyph-name="Egrave" horiz-adv-x="3091" d="M1007 1435Q1118 1479 1229 1527T1444 1622T1640 1712T1805 1789T1929 1845T2001 1874Q2043 1885 2078 1885Q2113 1885 2147 1874T2208 1842T2251 1789T2268 1715Q2268 1646 2222 1596T2094
1525Q2062 1517 1993 1511T1819 1496T1571 1473T1251 1435H1007ZM100 94Q250 99 349 129T507 225T590 398T615 668Q615 777 603 859T564 999T496 1096T397 1157T266 1188T100 1197V1291H2893Q2906 1227 2915 1157T2931 1016T2941 877T2944 749H2839Q2794 816 2721
875T2553 983T2350 1071T2123 1137T1887 1178T1655 1192V686Q1694 697 1752 719T1876 770T2009 829T2135 888T2237 940T2298 975Q2306 940 2311 896T2320 804T2324 710T2325 626Q2325 591 2324 548T2319 461T2310 377T2298 305Q2278 317 2234 340T2131 391T2006
450T1874 509T1752 559T1655 593V99Q1768 99 1898 115T2162 160T2422 229T2656 318T2839 424T2949 542H3054Q3054 483 3051 415T3042 276T3026 135T3003 0H100V94Z" />
<glyph unicode="&#xc9;" glyph-name="Eacute" horiz-adv-x="3091" d="M1191 1525Q1109 1546 1063 1596T1017 1715Q1017 1757 1033 1789T1077 1842T1138 1874T1207 1885Q1242 1885 1284 1874Q1305 1868 1355 1846T1479 1789T1645 1712T1840 1623T2055 1528T2278
1435H2034Q1856 1459 1714 1473T1466 1496T1291 1511T1191 1525ZM100 94Q250 99 349 129T507 225T590 398T615 668Q615 777 603 859T564 999T496 1096T397 1157T266 1188T100 1197V1291H2893Q2906 1227 2915 1157T2931 1016T2941 877T2944 749H2839Q2794 816 2721
875T2553 983T2350 1071T2123 1137T1887 1178T1655 1192V686Q1694 697 1752 719T1876 770T2009 829T2135 888T2237 940T2298 975Q2306 940 2311 896T2320 804T2324 710T2325 626Q2325 591 2324 548T2319 461T2310 377T2298 305Q2278 317 2234 340T2131 391T2006
450T1874 509T1752 559T1655 593V99Q1768 99 1898 115T2162 160T2422 229T2656 318T2839 424T2949 542H3054Q3054 483 3051 415T3042 276T3026 135T3003 0H100V94Z" />
<glyph unicode="&#xca;" glyph-name="Ecircumflex" horiz-adv-x="3091" d="M840 1401Q933 1471 1008 1525T1144 1623T1255 1699T1348 1759T1429 1811T1506 1860Q1535 1879 1568 1894T1655 1910Q1708 1910 1741 1895T1804 1860Q1842 1835 1880 1811T1962 1760T2055
1699T2166 1623T2302 1526T2470 1401H2306L1655 1584L1004 1401H840ZM100 94Q250 99 349 129T507 225T590 398T615 668Q615 777 603 859T564 999T496 1096T397 1157T266 1188T100 1197V1291H2893Q2906 1227 2915 1157T2931 1016T2941 877T2944 749H2839Q2794 816
2721 875T2553 983T2350 1071T2123 1137T1887 1178T1655 1192V686Q1694 697 1752 719T1876 770T2009 829T2135 888T2237 940T2298 975Q2306 940 2311 896T2320 804T2324 710T2325 626Q2325 591 2324 548T2319 461T2310 377T2298 305Q2278 317 2234 340T2131 391T2006
450T1874 509T1752 559T1655 593V99Q1768 99 1898 115T2162 160T2422 229T2656 318T2839 424T2949 542H3054Q3054 483 3051 415T3042 276T3026 135T3003 0H100V94Z" />
<glyph unicode="&#xcb;" glyph-name="Edieresis" horiz-adv-x="3091" d="M1737 1659Q1737 1691 1753 1722T1801 1778T1880 1818T1990 1833Q2053 1833 2100 1818T2179 1778T2227 1722T2243 1659Q2243 1627 2227 1597T2179 1542T2100 1502T1990 1487Q1927 1487 1880
1502T1801 1541T1753 1596T1737 1659ZM1067 1659Q1067 1691 1083 1722T1131 1778T1210 1818T1320 1833Q1383 1833 1430 1818T1509 1778T1557 1722T1573 1659Q1573 1627 1557 1597T1509 1542T1430 1502T1320 1487Q1257 1487 1210 1502T1131 1541T1083 1596T1067
1659ZM100 94Q250 99 349 129T507 225T590 398T615 668Q615 777 603 859T564 999T496 1096T397 1157T266 1188T100 1197V1291H2893Q2906 1227 2915 1157T2931 1016T2941 877T2944 749H2839Q2794 816 2721 875T2553 983T2350 1071T2123 1137T1887 1178T1655 1192V686Q1694
697 1752 719T1876 770T2009 829T2135 888T2237 940T2298 975Q2306 940 2311 896T2320 804T2324 710T2325 626Q2325 591 2324 548T2319 461T2310 377T2298 305Q2278 317 2234 340T2131 391T2006 450T1874 509T1752 559T1655 593V99Q1768 99 1898 115T2162 160T2422
229T2656 318T2839 424T2949 542H3054Q3054 483 3051 415T3042 276T3026 135T3003 0H100V94Z" />
<glyph unicode="&#xcc;" glyph-name="Igrave" horiz-adv-x="2269" d="M486 1435Q597 1479 708 1527T923 1622T1119 1712T1284 1789T1408 1845T1480 1874Q1522 1885 1557 1885Q1592 1885 1626 1874T1687 1842T1730 1789T1747 1715Q1747 1646 1701 1596T1573 1525Q1541
1517 1472 1511T1298 1496T1050 1473T730 1435H486ZM100 94Q250 99 349 129T507 225T590 398T615 668Q615 777 603 859T564 999T496 1096T397 1157T266 1188T100 1197V1291H2169V1197Q2031 1197 1934 1176T1774 1097T1684 935T1655 668Q1655 506 1679 399T1762
225T1920 129T2169 94V0H100V94Z" />
<glyph unicode="&#xcd;" glyph-name="Iacute" horiz-adv-x="2269" d="M670 1525Q588 1546 542 1596T496 1715Q496 1757 512 1789T556 1842T617 1874T686 1885Q721 1885 763 1874Q784 1868 834 1846T958 1789T1124 1712T1319 1623T1534 1528T1757 1435H1513Q1335
1459 1193 1473T945 1496T770 1511T670 1525ZM100 94Q250 99 349 129T507 225T590 398T615 668Q615 777 603 859T564 999T496 1096T397 1157T266 1188T100 1197V1291H2169V1197Q2031 1197 1934 1176T1774 1097T1684 935T1655 668Q1655 506 1679 399T1762 225T1920
129T2169 94V0H100V94Z" />
<glyph unicode="&#xce;" glyph-name="Icircumflex" horiz-adv-x="2269" d="M319 1401Q412 1471 487 1525T623 1623T734 1699T827 1759T908 1811T985 1860Q1014 1879 1047 1894T1134 1910Q1187 1910 1220 1895T1283 1860Q1321 1835 1359 1811T1441 1760T1534 1699T1645
1623T1781 1526T1949 1401H1785L1134 1584L483 1401H319ZM100 94Q250 99 349 129T507 225T590 398T615 668Q615 777 603 859T564 999T496 1096T397 1157T266 1188T100 1197V1291H2169V1197Q2031 1197 1934 1176T1774 1097T1684 935T1655 668V636Q1657 484 1683
382T1768 218T1925 127T2169 94V0H100V94Z" />
<glyph unicode="&#xcf;" glyph-name="Idieresis" horiz-adv-x="2269" d="M1216 1659Q1216 1691 1232 1722T1280 1778T1359 1818T1469 1833Q1532 1833 1579 1818T1658 1778T1706 1722T1722 1659Q1722 1627 1706 1597T1658 1542T1579 1502T1469 1487Q1406 1487 1359
1502T1280 1541T1232 1596T1216 1659ZM799 1487Q736 1487 689 1502T610 1541T562 1596T546 1659Q546 1691 562 1722T610 1778T689 1818T799 1833Q862 1833 909 1818T988 1778T1036 1722T1052 1659Q1052 1627 1036 1597T988 1542T909 1502T799 1487ZM100 94Q250
99 349 129T507 225T590 398T615 668Q615 777 603 859T564 999T496 1096T397 1157T266 1188T100 1197V1291H2169V1197Q2031 1197 1934 1176T1774 1097T1684 935T1655 668Q1655 506 1679 399T1762 225T1920 129T2169 94V0H100V94Z" />
<glyph unicode="&#xd0;" glyph-name="Eth" horiz-adv-x="3336" d="M100 94Q238 99 333 124T488 205T577 351T613 576Q548 575 486 574T367 570T262 566T177 561Q175 568 174 579T171 604T169 631T168 653Q168 661 168 673T170 699T173 724T177 745Q211 742 259
740T364 737T484 733T614 730Q609 874 577 965T483 1107T326 1178T100 1197V1291H1747Q1929 1291 2109 1285T2455 1258T2762 1196T3008 1083T3171 905T3231 648Q3231 532 3189 442T3071 285T2894 170T2671 91T2417 41T2148 14T1877 3T1621 0H100V94ZM1655 121Q1750
126 1829 149T1966 229T2055 386T2087 648Q2087 762 2074 845T2034 985T1971 1078T1885 1134T1779 1161T1655 1171V732Q1743 734 1816 737T1936 745Q1941 719 1943 699T1946 653Q1946 628 1944 608T1936 561Q1891 566 1817 569T1655 575V121Z" />
<glyph unicode="&#xd1;" glyph-name="Ntilde" horiz-adv-x="3330" d="M1009 1525Q1058 1622 1112 1682T1222 1774T1336 1818T1448 1829Q1527 1829 1608 1810T1771 1769T1937 1728T2105 1709Q2169 1709 2242 1720T2380 1758L2415 1714Q2365 1616 2311 1557T2201
1464T2087 1420T1975 1409Q1896 1409 1816 1428T1653 1469T1487 1511T1319 1530Q1255 1530 1182 1519T1044 1481L1009 1525ZM80 94Q230 99 329 129T487 225T570 398T595 668Q595 777 583 859T544 999T476 1096T377 1157T246 1188T80 1197V1291H1826L2707 575Q2708
597 2708 620T2709 668Q2709 832 2681 935T2590 1096T2431 1176T2195 1197V1291H3295V1197Q3203 1197 3133 1188T3012 1157T2926 1097T2870 1000T2840 859T2831 668V0H1805Q1625 156 1439 315Q1360 383 1272 458T1094 611T913 766T739 915Q727 865 722 804T716
668V636Q718 484 744 382T829 218T986 127T1230 94V0H80V94Z" />
<glyph unicode="&#xd2;" glyph-name="Ograve" horiz-adv-x="3023" d="M828 1435Q939 1479 1050 1527T1265 1622T1461 1712T1626 1789T1750 1845T1822 1874Q1864 1885 1899 1885Q1934 1885 1968 1874T2029 1842T2072 1789T2089 1715Q2089 1646 2043 1596T1915 1525Q1883
1517 1814 1511T1640 1496T1392 1473T1072 1435H828ZM105 645Q105 792 161 901T316 1088T549 1216T840 1295T1167 1336T1511 1347Q1683 1347 1854 1336T2182 1296T2473 1216T2706 1088T2861 901T2918 645Q2918 498 2862 389T2707 202T2474 74T2183 -5T1855 -46T1511
-57Q1339 -57 1168 -46T840 -6T550 74T317 202T162 389T105 645ZM1270 645Q1270 519 1279 411T1315 225T1387 101T1506 56Q1579 56 1626 101T1702 224T1741 411T1753 645Q1753 771 1742 879T1702 1066T1627 1189T1506 1234Q1457 1234 1421 1211T1358 1148T1315
1051T1288 930T1274 792T1270 645Z" />
<glyph unicode="&#xd3;" glyph-name="Oacute" horiz-adv-x="3023" d="M1012 1525Q930 1546 884 1596T838 1715Q838 1757 854 1789T898 1842T959 1874T1028 1885Q1063 1885 1105 1874Q1126 1868 1176 1846T1300 1789T1466 1712T1661 1623T1876 1528T2099 1435H1855Q1677
1459 1535 1473T1287 1496T1112 1511T1012 1525ZM105 645Q105 792 161 901T316 1088T549 1216T840 1295T1167 1336T1511 1347Q1683 1347 1854 1336T2182 1296T2473 1216T2706 1088T2861 901T2918 645Q2918 498 2862 389T2707 202T2474 74T2183 -5T1855 -46T1511
-57Q1339 -57 1168 -46T840 -6T550 74T317 202T162 389T105 645ZM1270 645Q1270 519 1279 411T1315 225T1387 101T1506 56Q1579 56 1626 101T1702 224T1741 411T1753 645Q1753 771 1742 879T1702 1066T1627 1189T1506 1234Q1457 1234 1421 1211T1358 1148T1315
1051T1288 930T1274 792T1270 645Z" />
<glyph unicode="&#xd4;" glyph-name="Ocircumflex" horiz-adv-x="3023" d="M661 1401Q754 1471 829 1525T965 1623T1076 1699T1169 1759T1250 1811T1327 1860Q1356 1879 1389 1894T1476 1910Q1529 1910 1562 1895T1625 1860Q1663 1835 1701 1811T1783 1760T1876
1699T1987 1623T2123 1526T2291 1401H2127L1476 1584L825 1401H661ZM105 645Q105 792 161 901T316 1088T549 1216T840 1295T1167 1336T1511 1347Q1683 1347 1854 1336T2182 1296T2473 1216T2706 1088T2861 901T2918 645Q2918 498 2862 389T2707 202T2474 74T2183
-5T1855 -46T1511 -57Q1339 -57 1168 -46T840 -6T550 74T317 202T162 389T105 645ZM1270 645Q1270 519 1279 411T1315 225T1387 101T1506 56Q1579 56 1626 101T1702 224T1741 411T1753 645Q1753 771 1742 879T1702 1066T1627 1189T1506 1234Q1457 1234 1421 1211T1358
1148T1315 1051T1288 930T1274 792T1270 645Z" />
<glyph unicode="&#xd5;" glyph-name="Otilde" horiz-adv-x="3023" d="M773 1525Q822 1622 876 1682T986 1774T1100 1818T1212 1829Q1291 1829 1372 1810T1535 1769T1701 1728T1869 1709Q1933 1709 2006 1720T2144 1758L2179 1714Q2129 1616 2075 1557T1965 1464T1851
1420T1739 1409Q1660 1409 1580 1428T1417 1469T1251 1511T1083 1530Q1019 1530 946 1519T808 1481L773 1525ZM105 645Q105 792 161 901T316 1088T549 1216T840 1295T1167 1336T1511 1347Q1683 1347 1854 1336T2182 1296T2473 1216T2706 1088T2861 901T2918 645Q2918
498 2862 389T2707 202T2474 74T2183 -5T1855 -46T1511 -57Q1339 -57 1168 -46T840 -6T550 74T317 202T162 389T105 645ZM1270 645Q1270 519 1279 411T1315 225T1387 101T1506 56Q1579 56 1626 101T1702 224T1741 411T1753 645Q1753 771 1742 879T1702 1066T1627
1189T1506 1234Q1457 1234 1421 1211T1358 1148T1315 1051T1288 930T1274 792T1270 645Z" />
<glyph unicode="&#xd6;" glyph-name="Odieresis" horiz-adv-x="3023" d="M1558 1659Q1558 1691 1574 1722T1622 1778T1701 1818T1811 1833Q1874 1833 1921 1818T2000 1778T2048 1722T2064 1659Q2064 1627 2048 1597T2000 1542T1921 1502T1811 1487Q1748 1487 1701
1502T1622 1541T1574 1596T1558 1659ZM1141 1487Q1078 1487 1031 1502T952 1541T904 1596T888 1659Q888 1691 904 1722T952 1778T1031 1818T1141 1833Q1204 1833 1251 1818T1330 1778T1378 1722T1394 1659Q1394 1627 1378 1597T1330 1542T1251 1502T1141 1487ZM105
645Q105 792 161 901T316 1088T549 1216T840 1295T1167 1336T1511 1347Q1683 1347 1854 1336T2182 1296T2473 1216T2706 1088T2861 901T2918 645Q2918 498 2862 389T2707 202T2474 74T2183 -5T1855 -46T1511 -57Q1339 -57 1168 -46T840 -6T550 74T317 202T162 389T105
645ZM1270 645Q1270 519 1279 411T1315 225T1387 101T1506 56Q1579 56 1626 101T1702 224T1741 411T1753 645Q1753 771 1742 879T1702 1066T1627 1189T1506 1234Q1457 1234 1421 1211T1358 1148T1315 1051T1288 930T1274 792T1270 645Z" />
<glyph unicode="&#xd7;" glyph-name="multiply" horiz-adv-x="1468" d="M257 142Q221 166 183 205T113 286Q237 374 358 463T601 643Q480 736 358 824T113 1000Q174 1080 257 1144Q369 1041 488 942T733 745Q858 842 977 941T1211 1144Q1250 1113 1286 1077T1355
1000Q1232 914 1110 825T866 642Q989 548 1111 460T1355 286Q1331 250 1292 212T1211 142Q1095 246 976 344T734 540Q609 441 490 342T257 142Z" />
<glyph unicode="&#xd8;" glyph-name="Oslash" horiz-adv-x="3023" d="M194 -6Q226 9 289 43T438 124Q362 164 301 215T196 330T129 473T105 645Q105 792 161 901T316 1088T549 1216T840 1295T1167 1336T1511 1347Q1626 1347 1742 1342T1969 1326T2186 1295T2386
1246Q2445 1281 2497 1312T2591 1370T2665 1415T2713 1447Q2745 1411 2767 1373T2805 1288Q2778 1276 2719 1245T2578 1169Q2656 1129 2718 1078T2825 962T2894 818T2918 645Q2918 498 2862 389T2707 202T2474 74T2183 -5T1855 -46T1511 -57Q1394 -57 1278 -52T1049
-35T831 -4T630 46Q570 10 517 -22T419 -82T340 -131T286 -166Q272 -153 258 -135T232 -95T211 -51T194 -6ZM1449 695Q1486 716 1563 760T1743 865Q1734 948 1717 1016T1672 1132T1602 1207T1506 1234Q1457 1234 1421 1211T1358 1148T1315 1051T1288 930T1274 792T1270
645V592L1449 695ZM1278 428Q1285 345 1300 277T1343 159T1410 83T1506 56Q1579 56 1626 101T1702 224T1741 411T1753 645Q1753 660 1753 674T1752 703L1521 570Q1483 548 1420 512T1278 428Z" />
<glyph unicode="&#xd9;" glyph-name="Ugrave" horiz-adv-x="3450" d="M1363 1435Q1474 1479 1585 1527T1800 1622T1996 1712T2161 1789T2285 1845T2357 1874Q2399 1885 2434 1885Q2469 1885 2503 1874T2564 1842T2607 1789T2624 1715Q2624 1646 2578 1596T2450
1525Q2418 1517 2349 1511T2175 1496T1927 1473T1607 1435H1363ZM605 678Q605 841 575 942T481 1100T321 1177T90 1197V1291H2113V1197Q2020 1197 1949 1170T1831 1081T1759 917T1734 663Q1734 528 1778 426T1896 256T2063 153T2257 119Q2364 119 2454 151T2611
249T2714 416T2751 654Q2751 809 2727 913T2656 1080T2537 1170T2371 1197V1291H3423V1197Q3285 1197 3185 1178T3019 1104T2923 947T2891 681Q2891 522 2859 406T2766 207T2618 74T2419 -7T2176 -46T1894 -57Q1733 -57 1575 -52T1273 -24T1008 40T796 158T656
344T605 615V678Z" />
<glyph unicode="&#xda;" glyph-name="Uacute" horiz-adv-x="3450" d="M1359 1525Q1277 1546 1231 1596T1185 1715Q1185 1757 1201 1789T1245 1842T1306 1874T1375 1885Q1410 1885 1452 1874Q1473 1868 1523 1846T1647 1789T1813 1712T2008 1623T2223 1528T2446
1435H2202Q2024 1459 1882 1473T1634 1496T1459 1511T1359 1525ZM605 678Q605 841 575 942T481 1100T321 1177T90 1197V1291H2113V1197Q2020 1197 1949 1170T1831 1081T1759 917T1734 663Q1734 528 1778 426T1896 256T2063 153T2257 119Q2364 119 2454 151T2611
249T2714 416T2751 654Q2751 809 2727 913T2656 1080T2537 1170T2371 1197V1291H3423V1197Q3285 1197 3185 1178T3019 1104T2923 947T2891 681Q2891 522 2859 406T2766 207T2618 74T2419 -7T2176 -46T1894 -57Q1733 -57 1575 -52T1273 -24T1008 40T796 158T656
344T605 615V678Z" />
<glyph unicode="&#xdb;" glyph-name="Ucircumflex" horiz-adv-x="3450" d="M1177 1401Q1270 1471 1345 1525T1481 1623T1592 1699T1685 1759T1766 1811T1843 1860Q1872 1879 1905 1894T1992 1910Q2045 1910 2078 1895T2141 1860Q2179 1835 2217 1811T2299 1760T2392
1699T2503 1623T2639 1526T2807 1401H2643L1992 1584L1341 1401H1177ZM605 678Q605 841 575 942T481 1100T321 1177T90 1197V1291H2113V1197Q2020 1197 1949 1170T1831 1081T1759 917T1734 663Q1734 528 1778 426T1896 256T2063 153T2257 119Q2364 119 2454 151T2611
249T2714 416T2751 654Q2751 809 2727 913T2656 1080T2537 1170T2371 1197V1291H3423V1197Q3285 1197 3185 1178T3019 1104T2923 947T2891 681Q2891 522 2859 406T2766 207T2618 74T2419 -7T2176 -46T1894 -57Q1733 -57 1575 -52T1273 -24T1008 40T796 158T656
344T605 615V678Z" />
<glyph unicode="&#xdc;" glyph-name="Udieresis" horiz-adv-x="3450" d="M2077 1659Q2077 1691 2093 1722T2141 1778T2220 1818T2330 1833Q2393 1833 2440 1818T2519 1778T2567 1722T2583 1659Q2583 1627 2567 1597T2519 1542T2440 1502T2330 1487Q2267 1487 2220
1502T2141 1541T2093 1596T2077 1659ZM1407 1659Q1407 1691 1423 1722T1471 1778T1550 1818T1660 1833Q1723 1833 1770 1818T1849 1778T1897 1722T1913 1659Q1913 1627 1897 1597T1849 1542T1770 1502T1660 1487Q1597 1487 1550 1502T1471 1541T1423 1596T1407
1659ZM605 678Q605 841 575 942T481 1100T321 1177T90 1197V1291H2113V1197Q2020 1197 1949 1170T1831 1081T1759 917T1734 663Q1734 528 1778 426T1896 256T2063 153T2257 119Q2364 119 2454 151T2611 249T2714 416T2751 654Q2751 809 2727 913T2656 1080T2537
1170T2371 1197V1291H3423V1197Q3285 1197 3185 1178T3019 1104T2923 947T2891 681Q2891 522 2859 406T2766 207T2618 74T2419 -7T2176 -46T1894 -57Q1733 -57 1575 -52T1273 -24T1008 40T796 158T656 344T605 615V678Z" />
<glyph unicode="&#xdd;" glyph-name="Yacute" horiz-adv-x="3178" d="M1132 1525Q1050 1546 1004 1596T958 1715Q958 1757 974 1789T1018 1842T1079 1874T1148 1885Q1183 1885 1225 1874Q1246 1868 1296 1846T1420 1789T1586 1712T1781 1623T1996 1528T2219 1435H1975Q1797
1459 1655 1473T1407 1496T1232 1511T1132 1525ZM497 94Q642 97 745 129T915 208T1011 307T1042 404V542Q982 633 911 717T761 874T598 1006T429 1108T261 1174T100 1197V1291H1898V1197Q1810 1197 1763 1161T1716 1063Q1716 1031 1736 984T1796 874T1891 734T2017
564Q2056 621 2103 691T2190 831T2258 961T2285 1058Q2285 1084 2276 1109T2245 1153T2183 1185T2083 1197V1291H3123V1197Q2988 1194 2864 1151T2633 1040T2437 888T2285 718T2188 555T2153 422Q2153 333 2199 271T2325 169T2512 112T2740 94V0H497V94Z" />
<glyph unicode="&#xde;" glyph-name="Thorn" horiz-adv-x="3306" d="M100 94Q246 99 344 127T501 217T587 382T615 636V668Q615 777 603 859T564 999T496 1096T397 1157T266 1188T100 1197V1291H2169V1197Q2088 1197 2021 1190T1901 1167T1806 1122T1735 1051H1747Q2120
1051 2398 1035T2862 975T3139 855T3231 658Q3231 565 3181 499T3037 386T2810 312T2513 268T2155 247T1749 240Q1807 166 1909 133T2169 94V0H100V94ZM1689 359Q1782 360 1863 370T2005 410T2101 496T2137 648Q2137 743 2103 798T2007 883T1863 921T1682 931Q1668
879 1662 814T1655 668V636Q1655 551 1664 483T1689 359Z" />
<glyph unicode="&#xdf;" glyph-name="germandbls" horiz-adv-x="3408" d="M75 94Q209 99 298 122T440 189T516 303T538 470V756H195V850L538 880V1083Q538 1224 603 1311T797 1447T1119 1513T1569 1530Q1798 1530 1977 1512T2281 1455T2470 1357T2535 1214Q2535
1163 2521 1131T2489 1073T2458 1026T2443 972Q2443 922 2482 891T2586 838T2733 798T2902 759T3071 707T3218 630T3322 514T3362 346Q3362 244 3312 171T3176 49T2973 -22T2726 -45Q2662 -45 2597 -43T2463 -38Q2396 -34 2349 -30T2264 -21T2197 -12T2134 -5T2064
-1T1975 1Q1940 1 1904 -2T1835 -12T1772 -29T1721 -56Q1714 -40 1708 -14T1695 43T1685 108T1677 173T1672 230T1670 273H1783Q1810 237 1857 200T1972 133T2126 83T2322 64Q2425 64 2480 79T2535 133Q2535 174 2496 200T2392 248T2245 288T2076 332T1907 393T1760
482T1656 612T1616 795Q1616 874 1633 926T1675 1016T1731 1080T1788 1132T1834 1188T1856 1263Q1856 1301 1840 1330T1796 1380T1730 1411T1646 1422Q1566 1422 1517 1402T1440 1348T1403 1267T1393 1169Q1393 1133 1397 1095T1405 1009T1414 904T1418 771V0H75V94Z"
/>
<glyph unicode="&#xe0;" glyph-name="agrave" horiz-adv-x="2853" d="M974 1405Q905 1434 867 1482T828 1589Q828 1631 843 1663T883 1716T939 1749T1004 1761Q1031 1761 1060 1755T1119 1736Q1139 1727 1181 1700T1285 1632T1424 1540T1590 1430T1777 1310T1979
1187H1794Q1622 1238 1484 1273T1242 1334T1072 1375T974 1405ZM125 221Q125 309 179 367T322 458T525 505T761 519Q868 519 971 517T1165 512T1332 503T1458 492V709Q1458 789 1436 844T1367 932T1248 981T1078 996Q1007 996 936 994T804 988Q898 988 976 975T1110
936T1196 876T1227 796Q1227 746 1191 709T1093 646T946 608T764 595Q675 595 595 612T452 658T354 728T317 816Q317 865 355 905T459 975T611 1028T794 1064T992 1085T1187 1092Q1326 1092 1468 1090T1742 1075T1990 1038T2192 968T2327 855T2377 688V449Q2377
356 2389 299T2424 210T2476 168T2540 157Q2571 157 2599 169T2649 207T2685 269T2701 356H2814Q2814 266 2787 202T2712 92T2596 21T2450 -21T2281 -40T2099 -45Q1986 -45 1891 -40T1719 -19T1588 29T1501 112Q1459 83 1395 55T1234 5T1003 -31T689 -45Q571 -45
469 -27T290 25T169 108T125 221ZM1010 270Q1010 250 1018 228T1046 186T1097 155T1176 142Q1203 142 1235 143T1305 148T1383 163T1468 191Q1458 232 1458 289V396Q1415 398 1371 398T1286 399Q1218 399 1166 394T1080 375T1028 335T1010 270Z" />
<glyph unicode="&#xe1;" glyph-name="aacute" horiz-adv-x="2853" d="M798 1187Q901 1248 999 1309T1186 1429T1352 1539T1491 1632T1595 1700T1658 1736Q1687 1749 1716 1755T1773 1761Q1806 1761 1837 1750T1893 1717T1933 1663T1949 1589Q1949 1531 1911 1483T1803
1405Q1773 1392 1706 1376T1535 1334T1294 1274T983 1187H798ZM125 221Q125 309 179 367T322 458T525 505T761 519Q868 519 971 517T1165 512T1332 503T1458 492V709Q1458 789 1436 844T1367 932T1248 981T1078 996Q1007 996 936 994T804 988Q898 988 976 975T1110
936T1196 876T1227 796Q1227 746 1191 709T1093 646T946 608T764 595Q675 595 595 612T452 658T354 728T317 816Q317 865 355 905T459 975T611 1028T794 1064T992 1085T1187 1092Q1326 1092 1468 1090T1742 1075T1990 1038T2192 968T2327 855T2377 688V449Q2377
356 2389 299T2424 210T2476 168T2540 157Q2571 157 2599 169T2649 207T2685 269T2701 356H2814Q2814 266 2787 202T2712 92T2596 21T2450 -21T2281 -40T2099 -45Q1986 -45 1891 -40T1719 -19T1588 29T1501 112Q1459 83 1395 55T1234 5T1003 -31T689 -45Q571 -45
469 -27T290 25T169 108T125 221ZM1010 270Q1010 250 1018 228T1046 186T1097 155T1176 142Q1203 142 1235 143T1305 148T1383 163T1468 191Q1458 232 1458 289V396Q1415 398 1371 398T1286 399Q1218 399 1166 394T1080 375T1028 335T1010 270Z" />
<glyph unicode="&#xe2;" glyph-name="acircumflex" horiz-adv-x="2853" d="M613 1187Q706 1257 779 1317T912 1427T1018 1520T1106 1597T1184 1662T1259 1716Q1288 1735 1321 1750T1408 1766Q1461 1766 1494 1751T1557 1716Q1595 1691 1632 1662T1710 1598T1798
1520T1904 1428T2036 1317T2203 1187H2039L1408 1440L777 1187H613ZM125 221Q125 309 179 367T322 458T525 505T761 519Q868 519 971 517T1165 512T1332 503T1458 492V709Q1458 789 1436 844T1367 932T1248 981T1078 996Q1007 996 936 994T804 988Q898 988 976
975T1110 936T1196 876T1227 796Q1227 746 1191 709T1093 646T946 608T764 595Q675 595 595 612T452 658T354 728T317 816Q317 865 355 905T459 975T611 1028T794 1064T992 1085T1187 1092Q1326 1092 1468 1090T1742 1075T1990 1038T2192 968T2327 855T2377 688V449Q2377
356 2389 299T2424 210T2476 168T2540 157Q2571 157 2599 169T2649 207T2685 269T2701 356H2814Q2814 266 2787 202T2712 92T2596 21T2450 -21T2281 -40T2099 -45Q1986 -45 1891 -40T1719 -19T1588 29T1501 112Q1459 83 1395 55T1234 5T1003 -31T689 -45Q571 -45
469 -27T290 25T169 108T125 221ZM1010 270Q1010 250 1018 228T1046 186T1097 155T1176 142Q1203 142 1235 143T1305 148T1383 163T1468 191Q1458 232 1458 289V396Q1415 398 1371 398T1286 399Q1218 399 1166 394T1080 375T1028 335T1010 270Z" />
<glyph unicode="&#xe3;" glyph-name="atilde" horiz-adv-x="2853" d="M725 1342Q774 1439 825 1499T928 1591T1035 1635T1144 1646Q1223 1646 1304 1627T1467 1586T1633 1545T1801 1526Q1865 1526 1928 1537T2056 1575L2091 1531Q2041 1433 1990 1374T1887 1281T1780
1237T1671 1226Q1592 1226 1512 1245T1349 1286T1183 1328T1015 1347Q951 1347 888 1336T760 1298L725 1342ZM125 221Q125 309 179 367T322 458T525 505T761 519Q868 519 971 517T1165 512T1332 503T1458 492V709Q1458 789 1436 844T1367 932T1248 981T1078 996Q1007
996 936 994T804 988Q898 988 976 975T1110 936T1196 876T1227 796Q1227 746 1191 709T1093 646T946 608T764 595Q675 595 595 612T452 658T354 728T317 816Q317 865 355 905T459 975T611 1028T794 1064T992 1085T1187 1092Q1326 1092 1468 1090T1742 1075T1990
1038T2192 968T2327 855T2377 688V449Q2377 356 2389 299T2424 210T2476 168T2540 157Q2571 157 2599 169T2649 207T2685 269T2701 356H2814Q2814 266 2787 202T2712 92T2596 21T2450 -21T2281 -40T2099 -45Q1986 -45 1891 -40T1719 -19T1588 29T1501 112Q1459
83 1395 55T1234 5T1003 -31T689 -45Q571 -45 469 -27T290 25T169 108T125 221ZM1010 270Q1010 250 1018 228T1046 186T1097 155T1176 142Q1203 142 1235 143T1305 148T1383 163T1468 191Q1458 232 1458 289V396Q1415 398 1371 398T1286 399Q1218 399 1166 394T1080
375T1028 335T1010 270Z" />
<glyph unicode="&#xe4;" glyph-name="adieresis" horiz-adv-x="2853" d="M1490 1495Q1490 1527 1506 1558T1554 1614T1633 1654T1743 1669Q1806 1669 1853 1654T1932 1614T1980 1558T1996 1495Q1996 1463 1980 1433T1932 1378T1853 1338T1743 1323Q1680 1323 1633
1338T1554 1377T1506 1432T1490 1495ZM1073 1323Q1010 1323 963 1338T884 1377T836 1432T820 1495Q820 1527 836 1558T884 1614T963 1654T1073 1669Q1136 1669 1183 1654T1262 1614T1310 1558T1326 1495Q1326 1463 1310 1433T1262 1378T1183 1338T1073 1323ZM125
221Q125 309 179 367T322 458T525 505T761 519Q868 519 971 517T1165 512T1332 503T1458 492V709Q1458 789 1436 844T1367 932T1248 981T1078 996Q1007 996 936 994T804 988Q898 988 976 975T1110 936T1196 876T1227 796Q1227 746 1191 709T1093 646T946 608T764
595Q675 595 595 612T452 658T354 728T317 816Q317 865 355 905T459 975T611 1028T794 1064T992 1085T1187 1092Q1326 1092 1468 1090T1742 1075T1990 1038T2192 968T2327 855T2377 688V449Q2377 356 2389 299T2424 210T2476 168T2540 157Q2571 157 2599 169T2649
207T2685 269T2701 356H2814Q2814 266 2787 202T2712 92T2596 21T2450 -21T2281 -40T2099 -45Q1986 -45 1891 -40T1719 -19T1588 29T1501 112Q1459 83 1395 55T1234 5T1003 -31T689 -45Q571 -45 469 -27T290 25T169 108T125 221ZM1010 270Q1010 250 1018 228T1046
186T1097 155T1176 142Q1203 142 1235 143T1305 148T1383 163T1468 191Q1458 232 1458 289V396Q1415 398 1371 398T1286 399Q1218 399 1166 394T1080 375T1028 335T1010 270Z" />
<glyph unicode="&#xe5;" glyph-name="aring" horiz-adv-x="2853" d="M1408 1256Q1345 1256 1289 1280T1192 1345T1127 1442T1103 1561Q1103 1624 1127 1680T1192 1777T1289 1843T1408 1867Q1471 1867 1527 1843T1624 1778T1690 1680T1714 1561Q1714 1498 1690
1442T1625 1345T1527 1280T1408 1256ZM1408 1392Q1443 1392 1474 1405T1528 1441T1564 1495T1578 1561Q1578 1596 1565 1627T1528 1681T1474 1717T1408 1731Q1373 1731 1342 1718T1288 1681T1252 1627T1239 1561Q1239 1526 1252 1495T1288 1441T1342 1405T1408
1392ZM125 221Q125 309 179 367T322 458T525 505T761 519Q868 519 971 517T1165 512T1332 503T1458 492V709Q1458 789 1436 844T1367 932T1248 981T1078 996Q1007 996 936 994T804 988Q898 988 976 975T1110 936T1196 876T1227 796Q1227 746 1191 709T1093 646T946
608T764 595Q675 595 595 612T452 658T354 728T317 816Q317 865 355 905T459 975T611 1028T794 1064T992 1085T1187 1092Q1326 1092 1468 1090T1742 1075T1990 1038T2192 968T2327 855T2377 688V449Q2377 356 2389 299T2424 210T2476 168T2540 157Q2571 157 2599
169T2649 207T2685 269T2701 356H2814Q2814 266 2787 202T2712 92T2596 21T2450 -21T2281 -40T2099 -45Q1986 -45 1891 -40T1719 -19T1588 29T1501 112Q1459 83 1395 55T1234 5T1003 -31T689 -45Q571 -45 469 -27T290 25T169 108T125 221ZM1010 270Q1010 250 1018
228T1046 186T1097 155T1176 142Q1203 142 1235 143T1305 148T1383 163T1468 191Q1458 232 1458 289V396Q1415 398 1371 398T1286 399Q1218 399 1166 394T1080 375T1028 335T1010 270Z" />
<glyph unicode="&#xe6;" glyph-name="ae" horiz-adv-x="3742" d="M125 228Q125 287 151 331T223 408T331 462T463 496T610 514T761 519Q858 519 948 518T1119 513T1268 505T1388 493V709Q1388 812 1357 868T1259 951T1092 983T849 988Q943 986 1014 970T1132 927T1203
866T1227 796Q1227 752 1191 716T1093 652T946 610T764 595Q657 595 574 615T434 670T347 748T317 839Q317 902 384 949T568 1028T838 1076T1167 1092Q1391 1092 1568 1066T1880 997Q2030 1045 2208 1068T2581 1092Q2801 1092 2989 1059T3317 957T3535 778T3614
517H2310Q2317 401 2349 321T2443 192T2596 121T2810 99Q2887 99 2966 106T3121 129T3262 167T3377 220T3454 288T3483 371H3614Q3614 297 3575 238T3465 133T3300 53T3092 -2T2855 -34T2604 -45Q2416 -45 2254 -33T1959 4T1721 70T1545 169Q1487 110 1392 70T1180
4T930 -33T667 -45Q609 -45 547 -41T424 -25T310 6T214 56T149 129T125 228ZM2714 649Q2714 717 2698 776T2656 878T2594 945T2519 970Q2478 970 2443 948T2380 883T2334 782T2310 649H2714ZM960 280Q960 250 974 229T1013 196T1071 177T1142 171Q1185 171 1232
178T1322 196T1402 223T1463 254Q1417 318 1400 400Q1341 403 1286 403Q1218 403 1159 398T1055 378T986 340T960 280Z" />
<glyph unicode="&#xe7;" glyph-name="ccedilla" horiz-adv-x="2486" d="M123 514Q123 619 172 702T310 850T521 960T789 1035T1099 1078T1436 1092Q1554 1092 1668 1083T1885 1057T2073 1013T2223 954T2321 881T2357 793Q2357 744 2327 699T2240 618T2100 561T1909
539Q1808 539 1720 555T1566 599T1464 665T1426 750Q1426 789 1451 826T1527 893T1653 941T1828 959Q1771 975 1710 982T1585 989Q1494 989 1409 969T1257 900T1150 771T1110 570Q1110 492 1132 429T1195 315T1289 228T1407 167T1541 131T1683 119Q1798 119 1905
139T2094 193T2225 273T2274 371H2397Q2397 301 2362 243T2262 139T2110 59T1916 1T1691 -33T1445 -45H1378L1379 -154Q1401 -151 1436 -149T1509 -146T1584 -145T1650 -144Q1695 -144 1746 -146T1847 -156T1942 -178T2022 -216T2077 -272T2098 -351Q2098 -408
2052 -452T1916 -527T1695 -573T1392 -589Q1323 -589 1254 -582T1119 -560T994 -523T890 -472T813 -407T773 -327H924Q936 -360 976 -387T1077 -434T1211 -463T1365 -474Q1509 -474 1581 -446T1653 -357Q1653 -326 1626 -307T1557 -278T1466 -265T1373 -261Q1358
-261 1339 -262T1299 -265T1259 -269T1227 -274V-41Q1072 -35 930 -19T665 26T442 98T271 200T162 338T123 514Z" />
<glyph unicode="&#xe8;" glyph-name="egrave" horiz-adv-x="2515" d="M897 1405Q828 1434 790 1482T751 1589Q751 1631 766 1663T806 1716T862 1749T927 1761Q954 1761 983 1755T1042 1736Q1062 1727 1104 1700T1208 1632T1347 1540T1513 1430T1700 1310T1902
1187H1717Q1545 1238 1407 1273T1165 1334T995 1375T897 1405ZM113 498Q113 599 156 682T277 832T468 947T717 1028T1015 1076T1351 1092Q1586 1092 1777 1059T2103 957T2313 778T2387 517H1083Q1090 401 1122 321T1216 192T1369 121T1583 99Q1660 99 1739 106T1894
129T2035 167T2150 220T2227 288T2256 371H2387Q2387 297 2348 238T2238 133T2073 53T1865 -2T1628 -34T1377 -45Q1090 -45 857 -17T458 75T203 242T113 498ZM1487 629Q1487 720 1473 784T1434 890T1375 950T1302 970Q1259 970 1221 951T1153 890T1105 784T1082
629H1487Z" />
<glyph unicode="&#xe9;" glyph-name="eacute" horiz-adv-x="2515" d="M721 1187Q824 1248 922 1309T1109 1429T1275 1539T1414 1632T1518 1700T1581 1736Q1610 1749 1639 1755T1696 1761Q1729 1761 1760 1750T1816 1717T1856 1663T1872 1589Q1872 1531 1834 1483T1726
1405Q1696 1392 1629 1376T1458 1334T1217 1274T906 1187H721ZM113 498Q113 599 156 682T277 832T468 947T717 1028T1015 1076T1351 1092Q1586 1092 1777 1059T2103 957T2313 778T2387 517H1083Q1090 401 1122 321T1216 192T1369 121T1583 99Q1660 99 1739 106T1894
129T2035 167T2150 220T2227 288T2256 371H2387Q2387 297 2348 238T2238 133T2073 53T1865 -2T1628 -34T1377 -45Q1090 -45 857 -17T458 75T203 242T113 498ZM1487 629Q1487 720 1473 784T1434 890T1375 950T1302 970Q1259 970 1221 951T1153 890T1105 784T1082
629H1487Z" />
<glyph unicode="&#xea;" glyph-name="ecircumflex" horiz-adv-x="2515" d="M536 1187Q629 1257 702 1317T835 1427T941 1520T1029 1597T1107 1662T1182 1716Q1211 1735 1244 1750T1331 1766Q1384 1766 1417 1751T1480 1716Q1518 1691 1555 1662T1633 1598T1721
1520T1827 1428T1959 1317T2126 1187H1962L1331 1440L700 1187H536ZM113 498Q113 599 156 682T277 832T468 947T717 1028T1015 1076T1351 1092Q1586 1092 1777 1059T2103 957T2313 778T2387 517H1083Q1090 401 1122 321T1216 192T1369 121T1583 99Q1660 99 1739
106T1894 129T2035 167T2150 220T2227 288T2256 371H2387Q2387 297 2348 238T2238 133T2073 53T1865 -2T1628 -34T1377 -45Q1090 -45 857 -17T458 75T203 242T113 498ZM1487 629Q1487 720 1473 784T1434 890T1375 950T1302 970Q1259 970 1221 951T1153 890T1105
784T1082 629H1487Z" />
<glyph unicode="&#xeb;" glyph-name="edieresis" horiz-adv-x="2515" d="M1413 1495Q1413 1527 1429 1558T1477 1614T1556 1654T1666 1669Q1729 1669 1776 1654T1855 1614T1903 1558T1919 1495Q1919 1463 1903 1433T1855 1378T1776 1338T1666 1323Q1603 1323 1556
1338T1477 1377T1429 1432T1413 1495ZM996 1323Q933 1323 886 1338T807 1377T759 1432T743 1495Q743 1527 759 1558T807 1614T886 1654T996 1669Q1059 1669 1106 1654T1185 1614T1233 1558T1249 1495Q1249 1463 1233 1433T1185 1378T1106 1338T996 1323ZM113 498Q113
599 156 682T277 832T468 947T717 1028T1015 1076T1351 1092Q1586 1092 1777 1059T2103 957T2313 778T2387 517H1083Q1090 401 1122 321T1216 192T1369 121T1583 99Q1660 99 1739 106T1894 129T2035 167T2150 220T2227 288T2256 371H2387Q2387 297 2348 238T2238
133T2073 53T1865 -2T1628 -34T1377 -45Q1090 -45 857 -17T458 75T203 242T113 498ZM1487 629Q1487 720 1473 784T1434 890T1375 950T1302 970Q1259 970 1221 951T1153 890T1105 784T1082 629H1487Z" />
<glyph unicode="&#xec;" glyph-name="igrave" horiz-adv-x="1894" d="M491 1405Q422 1434 384 1482T345 1589Q345 1631 360 1663T400 1716T456 1749T521 1761Q548 1761 577 1755T636 1736Q656 1727 698 1700T802 1632T941 1540T1107 1430T1294 1310T1496 1187H1311Q1139
1238 1001 1273T759 1334T589 1375T491 1405ZM75 94Q209 99 298 129T440 212T516 341T538 515Q538 615 512 686T430 803T287 870T75 891V985L1417 1075V515Q1417 417 1438 341T1513 212T1655 129T1879 94V0H75V94Z" />
<glyph unicode="&#xed;" glyph-name="iacute" horiz-adv-x="1894" d="M315 1187Q418 1248 516 1309T703 1429T869 1539T1008 1632T1112 1700T1175 1736Q1204 1749 1233 1755T1290 1761Q1323 1761 1354 1750T1410 1717T1450 1663T1466 1589Q1466 1531 1428 1483T1320
1405Q1290 1392 1223 1376T1052 1334T811 1274T500 1187H315ZM75 94Q209 99 298 129T440 212T516 341T538 515Q538 615 512 686T430 803T287 870T75 891V985L1417 1075V515Q1417 417 1438 341T1513 212T1655 129T1879 94V0H75V94Z" />
<glyph unicode="&#xee;" glyph-name="icircumflex" horiz-adv-x="1894" d="M130 1187Q223 1257 296 1317T429 1427T535 1520T623 1597T701 1662T776 1716Q805 1735 838 1750T925 1766Q978 1766 1011 1751T1074 1716Q1112 1691 1149 1662T1227 1598T1315 1520T1421
1428T1553 1317T1720 1187H1556L925 1440L294 1187H130ZM75 94Q209 99 298 129T440 212T516 341T538 515Q538 615 512 686T430 803T287 870T75 891V985L1417 1075V515Q1417 417 1438 341T1513 212T1655 129T1879 94V0H75V94Z" />
<glyph unicode="&#xef;" glyph-name="idieresis" horiz-adv-x="1894" d="M1007 1495Q1007 1527 1023 1558T1071 1614T1150 1654T1260 1669Q1323 1669 1370 1654T1449 1614T1497 1558T1513 1495Q1513 1463 1497 1433T1449 1378T1370 1338T1260 1323Q1197 1323 1150
1338T1071 1377T1023 1432T1007 1495ZM590 1323Q527 1323 480 1338T401 1377T353 1432T337 1495Q337 1527 353 1558T401 1614T480 1654T590 1669Q653 1669 700 1654T779 1614T827 1558T843 1495Q843 1463 827 1433T779 1378T700 1338T590 1323ZM75 94Q209 99 298
129T440 212T516 341T538 515Q538 615 512 686T430 803T287 870T75 891V985L1417 1075V515Q1417 417 1438 341T1513 212T1655 129T1879 94V0H75V94Z" />
<glyph unicode="&#xf0;" glyph-name="eth" horiz-adv-x="2699" d="M113 433Q113 519 168 599T343 740T652 839T1109 876Q1227 876 1323 873T1503 864Q1460 1025 1366 1140T1122 1321Q1085 1284 1058 1256T1010 1205T970 1161T932 1118T890 1070T837 1008Q803 1027
768 1063T707 1138Q749 1174 782 1203T846 1259T905 1312T966 1370Q846 1397 700 1397Q617 1397 527 1388L575 1493Q731 1511 897 1511Q948 1511 998 1509T1100 1504Q1139 1544 1170 1576T1229 1640T1285 1705T1350 1781Q1388 1756 1420 1725T1480 1651Q1424 1605
1379 1566T1290 1486Q1459 1464 1620 1425T1926 1328T2191 1197T2400 1033T2537 836T2586 607Q2586 476 2537 376T2401 202T2194 79T1932 -1T1629 -44T1303 -57Q1068 -57 889 -39T577 12T356 90T213 190T136 306T113 433ZM1088 400Q1088 307 1106 243T1155 138T1226
81T1309 63Q1382 63 1427 95T1497 190T1530 346T1539 563Q1539 614 1536 661T1526 754Q1478 757 1432 757Q1339 757 1274 738T1168 677T1107 566T1088 400Z" />
<glyph unicode="&#xf1;" glyph-name="ntilde" horiz-adv-x="3074" d="M977 1342Q1026 1439 1077 1499T1180 1591T1287 1635T1396 1646Q1475 1646 1556 1627T1719 1586T1885 1545T2053 1526Q2117 1526 2180 1537T2308 1575L2343 1531Q2293 1433 2242 1374T2139
1281T2032 1237T1923 1226Q1844 1226 1764 1245T1601 1286T1435 1328T1267 1347Q1203 1347 1140 1336T1012 1298L977 1342ZM75 94Q200 99 288 126T431 203T512 326T538 497Q538 620 512 695T430 812T287 867T75 881V975L1417 1065V900Q1507 940 1601 975T1794 1036T1995
1077T2204 1092Q2259 1092 2316 1088T2427 1069T2530 1023T2613 939T2670 805T2691 612Q2691 574 2689 535T2686 448Q2686 360 2695 294T2740 183T2852 117T3059 94V0H1653V76Q1685 97 1707 131T1742 216T1762 333T1768 488Q1768 599 1753 665T1710 765T1647 810T1568
820Q1533 820 1495 813T1417 792V470Q1417 383 1423 319T1442 207T1478 129T1532 76V0H75V94Z" />
<glyph unicode="&#xf2;" glyph-name="ograve" horiz-adv-x="2627" d="M879 1405Q810 1434 772 1482T733 1589Q733 1631 748 1663T788 1716T844 1749T909 1761Q936 1761 965 1755T1024 1736Q1044 1727 1086 1700T1190 1632T1329 1540T1495 1430T1682 1310T1884
1187H1699Q1527 1238 1389 1273T1147 1334T977 1375T879 1405ZM113 523Q113 668 199 775T444 953T823 1058T1314 1093Q1583 1093 1804 1059T2183 954T2427 776T2514 523Q2514 379 2428 272T2184 95T1805 -10T1314 -45Q1044 -45 823 -11T444 94T200 272T113 523ZM1110
523Q1110 430 1124 346T1164 199T1228 98T1314 60Q1361 60 1398 97T1462 198T1503 346T1517 523Q1517 617 1503 701T1463 850T1399 952T1314 990Q1266 990 1229 952T1165 850T1124 702T1110 523Z" />
<glyph unicode="&#xf3;" glyph-name="oacute" horiz-adv-x="2627" d="M703 1187Q806 1248 904 1309T1091 1429T1257 1539T1396 1632T1500 1700T1563 1736Q1592 1749 1621 1755T1678 1761Q1711 1761 1742 1750T1798 1717T1838 1663T1854 1589Q1854 1531 1816 1483T1708
1405Q1678 1392 1611 1376T1440 1334T1199 1274T888 1187H703ZM113 523Q113 668 199 775T444 953T823 1058T1314 1093Q1583 1093 1804 1059T2183 954T2427 776T2514 523Q2514 379 2428 272T2184 95T1805 -10T1314 -45Q1044 -45 823 -11T444 94T200 272T113 523ZM1110
523Q1110 430 1124 346T1164 199T1228 98T1314 60Q1361 60 1398 97T1462 198T1503 346T1517 523Q1517 617 1503 701T1463 850T1399 952T1314 990Q1266 990 1229 952T1165 850T1124 702T1110 523Z" />
<glyph unicode="&#xf4;" glyph-name="ocircumflex" horiz-adv-x="2627" d="M518 1187Q611 1257 684 1317T817 1427T923 1520T1011 1597T1089 1662T1164 1716Q1193 1735 1226 1750T1313 1766Q1366 1766 1399 1751T1462 1716Q1500 1691 1537 1662T1615 1598T1703
1520T1809 1428T1941 1317T2108 1187H1944L1313 1440L682 1187H518ZM113 523Q113 668 199 775T444 953T823 1058T1314 1093Q1583 1093 1804 1059T2183 954T2427 776T2514 523Q2514 379 2428 272T2184 95T1805 -10T1314 -45Q1044 -45 823 -11T444 94T200 272T113
523ZM1110 523Q1110 430 1124 346T1164 199T1228 98T1314 60Q1361 60 1398 97T1462 198T1503 346T1517 523Q1517 617 1503 701T1463 850T1399 952T1314 990Q1266 990 1229 952T1165 850T1124 702T1110 523Z" />
<glyph unicode="&#xf5;" glyph-name="otilde" horiz-adv-x="2627" d="M630 1342Q679 1439 730 1499T833 1591T940 1635T1049 1646Q1128 1646 1209 1627T1372 1586T1538 1545T1706 1526Q1770 1526 1833 1537T1961 1575L1996 1531Q1946 1433 1895 1374T1792 1281T1685
1237T1576 1226Q1497 1226 1417 1245T1254 1286T1088 1328T920 1347Q856 1347 793 1336T665 1298L630 1342ZM113 523Q113 668 199 775T444 953T823 1058T1314 1093Q1583 1093 1804 1059T2183 954T2427 776T2514 523Q2514 379 2428 272T2184 95T1805 -10T1314 -45Q1044
-45 823 -11T444 94T200 272T113 523ZM1110 523Q1110 430 1124 346T1164 199T1228 98T1314 60Q1361 60 1398 97T1462 198T1503 346T1517 523Q1517 617 1503 701T1463 850T1399 952T1314 990Q1266 990 1229 952T1165 850T1124 702T1110 523Z" />
<glyph unicode="&#xf6;" glyph-name="odieresis" horiz-adv-x="2627" d="M1395 1495Q1395 1527 1411 1558T1459 1614T1538 1654T1648 1669Q1711 1669 1758 1654T1837 1614T1885 1558T1901 1495Q1901 1463 1885 1433T1837 1378T1758 1338T1648 1323Q1585 1323 1538
1338T1459 1377T1411 1432T1395 1495ZM978 1323Q915 1323 868 1338T789 1377T741 1432T725 1495Q725 1527 741 1558T789 1614T868 1654T978 1669Q1041 1669 1088 1654T1167 1614T1215 1558T1231 1495Q1231 1463 1215 1433T1167 1378T1088 1338T978 1323ZM113 523Q113
668 199 775T444 953T823 1058T1314 1093Q1583 1093 1804 1059T2183 954T2427 776T2514 523Q2514 379 2428 272T2184 95T1805 -10T1314 -45Q1044 -45 823 -11T444 94T200 272T113 523ZM1110 523Q1110 430 1124 346T1164 199T1228 98T1314 60Q1361 60 1398 97T1462
198T1503 346T1517 523Q1517 617 1503 701T1463 850T1399 952T1314 990Q1266 990 1229 952T1165 850T1124 702T1110 523Z" />
<glyph unicode="&#xf7;" glyph-name="divide" horiz-adv-x="1684" d="M519 1072Q519 1117 543 1154T610 1216T712 1256T840 1270Q909 1270 968 1256T1070 1217T1137 1154T1162 1072Q1162 1027 1138 990T1070 926T968 886T840 871Q771 871 712 885T611 926T544
989T519 1072ZM135 542Q132 568 131 593T130 644Q130 669 131 694T135 746Q151 743 185 740T267 735T370 732T484 729T598 728T703 727T787 726T840 726Q870 726 927 726T1056 728T1203 730T1349 734T1471 739T1549 746Q1550 739 1551 726T1552 697T1553 668T1554
644Q1554 636 1554 622T1553 593T1551 565T1549 542Q1526 545 1471 548T1345 553T1195 557T1045 560T919 561T840 562Q821 562 784 562T699 561T595 559T481 557T369 555T267 551T186 547T135 542ZM519 232Q519 277 543 314T610 376T712 416T840 430Q909 430 968
416T1070 377T1137 314T1162 232Q1162 187 1138 150T1070 86T968 46T840 31Q771 31 712 45T611 86T544 149T519 232Z" />
<glyph unicode="&#xf8;" glyph-name="oslash" horiz-adv-x="2627" d="M114 -70Q155 -50 239 -6T433 99Q279 170 196 275T113 523Q113 668 199 775T444 953T823 1058T1314 1093Q1525 1093 1704 1072T2030 1008Q2098 1048 2160 1085T2273 1153T2362 1207T2420 1245Q2481
1177 2512 1085Q2477 1070 2401 1030T2222 934Q2362 863 2438 762T2514 523Q2514 379 2428 272T2184 95T1805 -10T1314 -45Q1116 -45 945 -27T632 29Q561 -13 495 -52T373 -125T274 -185T206 -229Q192 -216 178 -198T152 -158T131 -115T114 -70ZM1111 476Q1161
503 1200 525T1262 562L1503 701Q1492 763 1475 816T1433 907T1379 968T1314 990Q1266 990 1229 952T1165 850T1124 702T1110 523Q1110 511 1110 499T1111 476ZM1129 318Q1140 261 1158 214T1199 133T1251 79T1314 60Q1361 60 1398 97T1462 198T1503 346T1517 523V541L1334
437Q1299 417 1247 387T1129 318Z" />
<glyph unicode="&#xf9;" glyph-name="ugrave" horiz-adv-x="2835" d="M1000 1405Q931 1434 893 1482T854 1589Q854 1631 869 1663T909 1716T965 1749T1030 1761Q1057 1761 1086 1755T1145 1736Q1165 1727 1207 1700T1311 1632T1450 1540T1616 1430T1803 1310T2005
1187H1820Q1648 1238 1510 1273T1268 1334T1098 1375T1000 1405ZM316 316Q316 347 318 386T324 467T329 549T332 622Q332 673 325 724T291 817T214 885T75 911Q44 911 8 908V1002L1240 1092V505Q1240 430 1248 375T1279 283T1341 228T1440 209Q1472 209 1506 214T1576
231V617Q1576 704 1560 762T1515 856T1450 912T1370 943V1020L2455 1110V468Q2455 370 2467 301T2517 188T2626 120T2817 92L2823 -2Q2755 -2 2667 -3T2482 -6T2286 -10T2095 -14T1926 -17T1798 -18Q1754 -18 1720 -6T1659 27T1615 74T1588 130Q1503 89 1419 57T1246
2T1062 -33T862 -45Q809 -45 748 -43T627 -30T510 3T410 66T342 167T316 316Z" />
<glyph unicode="&#xfa;" glyph-name="uacute" horiz-adv-x="2835" d="M824 1187Q927 1248 1025 1309T1212 1429T1378 1539T1517 1632T1621 1700T1684 1736Q1713 1749 1742 1755T1799 1761Q1832 1761 1863 1750T1919 1717T1959 1663T1975 1589Q1975 1531 1937 1483T1829
1405Q1799 1392 1732 1376T1561 1334T1320 1274T1009 1187H824ZM316 316Q316 347 318 386T324 467T329 549T332 622Q332 673 325 724T291 817T214 885T75 911Q44 911 8 908V1002L1240 1092V505Q1240 430 1248 375T1279 283T1341 228T1440 209Q1472 209 1506 214T1576
231V617Q1576 704 1560 762T1515 856T1450 912T1370 943V1020L2455 1110V468Q2455 370 2467 301T2517 188T2626 120T2817 92L2823 -2Q2755 -2 2667 -3T2482 -6T2286 -10T2095 -14T1926 -17T1798 -18Q1754 -18 1720 -6T1659 27T1615 74T1588 130Q1503 89 1419 57T1246
2T1062 -33T862 -45Q809 -45 748 -43T627 -30T510 3T410 66T342 167T316 316Z" />
<glyph unicode="&#xfb;" glyph-name="ucircumflex" horiz-adv-x="2835" d="M639 1187Q732 1257 805 1317T938 1427T1044 1520T1132 1597T1210 1662T1285 1716Q1314 1735 1347 1750T1434 1766Q1487 1766 1520 1751T1583 1716Q1621 1691 1658 1662T1736 1598T1824
1520T1930 1428T2062 1317T2229 1187H2065L1434 1440L803 1187H639ZM316 316Q316 347 318 386T324 467T329 549T332 622Q332 673 325 724T291 817T214 885T75 911Q44 911 8 908V1002L1240 1092V505Q1240 430 1248 375T1279 283T1341 228T1440 209Q1472 209 1506
214T1576 231V617Q1576 704 1560 762T1515 856T1450 912T1370 943V1020L2455 1110V468Q2455 370 2467 301T2517 188T2626 120T2817 92L2823 -2Q2755 -2 2667 -3T2482 -6T2286 -10T2095 -14T1926 -17T1798 -18Q1754 -18 1720 -6T1659 27T1615 74T1588 130Q1503 89
1419 57T1246 2T1062 -33T862 -45Q809 -45 748 -43T627 -30T510 3T410 66T342 167T316 316Z" />
<glyph unicode="&#xfc;" glyph-name="udieresis" horiz-adv-x="2835" d="M1516 1495Q1516 1527 1532 1558T1580 1614T1659 1654T1769 1669Q1832 1669 1879 1654T1958 1614T2006 1558T2022 1495Q2022 1463 2006 1433T1958 1378T1879 1338T1769 1323Q1706 1323 1659
1338T1580 1377T1532 1432T1516 1495ZM846 1495Q846 1527 862 1558T910 1614T989 1654T1099 1669Q1162 1669 1209 1654T1288 1614T1336 1558T1352 1495Q1352 1463 1336 1433T1288 1378T1209 1338T1099 1323Q1036 1323 989 1338T910 1377T862 1432T846 1495ZM316
316Q316 347 318 386T324 467T329 549T332 622Q332 673 325 724T291 817T214 885T75 911Q44 911 8 908V1002L1240 1092V505Q1240 430 1248 375T1279 283T1341 228T1440 209Q1472 209 1506 214T1576 231V617Q1576 704 1560 762T1515 856T1450 912T1370 943V1020L2455
1110V468Q2455 370 2467 301T2517 188T2626 120T2817 92L2823 -2Q2755 -2 2667 -3T2482 -6T2286 -10T2095 -14T1926 -17T1798 -18Q1754 -18 1720 -6T1659 27T1615 74T1588 130Q1503 89 1419 57T1246 2T1062 -33T862 -45Q809 -45 748 -43T627 -30T510 3T410 66T342
167T316 316Z" />
<glyph unicode="&#xfd;" glyph-name="yacute" horiz-adv-x="2611" d="M1145 1187Q1248 1248 1346 1309T1533 1429T1699 1539T1838 1632T1942 1700T2005 1736Q2034 1749 2063 1755T2120 1761Q2153 1761 2184 1750T2240 1717T2280 1663T2296 1589Q2296 1531 2258
1483T2150 1405Q2120 1392 2053 1376T1882 1334T1641 1274T1330 1187H1145ZM-23 -263Q-23 -212 10 -170T104 -98T251 -50T445 -33Q542 -33 623 -48T763 -90T855 -154T888 -234Q888 -271 863 -304T787 -361T661 -400T486 -414Q516 -419 561 -424T655 -434T751 -440T832
-443Q953 -443 1065 -426T1281 -369T1479 -260T1657 -89H895Q808 77 725 219T567 478T424 681T301 826Q254 873 216 899T141 937T69 951T-10 953V1047H1656V953Q1620 953 1574 950T1485 936T1414 909T1385 864Q1385 844 1404 799T1455 693T1528 557T1613 406T1700
251T1781 107Q1807 154 1842 218T1914 355T1987 501T2051 641T2097 761T2115 844Q2115 878 2094 899T2036 933T1954 949T1859 953V1047H2622V953Q2563 953 2519 947T2439 925T2372 882T2309 813Q2248 734 2200 643T2103 449T1999 235T1870 0Q1773 -156 1658 -261T1415
-429T1148 -519T865 -546Q682 -546 521 -528T238 -475T47 -386T-23 -263Z" />
<glyph unicode="&#xfe;" glyph-name="thorn" horiz-adv-x="2819" d="M15 -368Q126 -368 206 -335T340 -243T428 -102T479 75T502 278T508 495Q508 589 501 686T475 873T421 1043T333 1180T201 1273T18 1307V1400L1360 1490V943Q1402 974 1459 1001T1592 1049T1764
1080T1979 1092Q2150 1092 2285 1050T2513 933T2656 759T2706 544Q2706 397 2651 287T2498 103T2269 -8T1985 -45Q1900 -45 1814 -36T1647 -8T1492 36T1357 96V8Q1357 -90 1378 -159T1453 -272T1595 -340T1819 -368V-462H15V-368ZM1357 220Q1426 157 1494 128T1613
98Q1693 98 1728 206T1764 520Q1764 613 1757 690T1730 821T1680 906T1601 936Q1562 936 1526 927T1458 901T1401 861T1357 810V220Z" />
<glyph unicode="&#xff;" glyph-name="ydieresis" horiz-adv-x="2611" d="M1787 1495Q1787 1527 1803 1558T1851 1614T1930 1654T2040 1669Q2103 1669 2150 1654T2229 1614T2277 1558T2293 1495Q2293 1463 2277 1433T2229 1378T2150 1338T2040 1323Q1977 1323 1930
1338T1851 1377T1803 1432T1787 1495ZM1117 1495Q1117 1527 1133 1558T1181 1614T1260 1654T1370 1669Q1433 1669 1480 1654T1559 1614T1607 1558T1623 1495Q1623 1463 1607 1433T1559 1378T1480 1338T1370 1323Q1307 1323 1260 1338T1181 1377T1133 1432T1117
1495ZM-23 -263Q-23 -212 10 -170T104 -98T251 -50T445 -33Q542 -33 623 -48T763 -90T855 -154T888 -234Q888 -271 863 -304T787 -361T661 -400T486 -414Q516 -419 561 -424T655 -434T751 -440T832 -443Q953 -443 1065 -426T1281 -369T1479 -260T1657 -89H895Q808
77 725 219T567 478T424 681T301 826Q254 873 216 899T141 937T69 951T-10 953V1047H1656V953Q1620 953 1574 950T1485 936T1414 909T1385 864Q1385 844 1404 799T1455 693T1528 557T1613 406T1700 251T1781 107Q1807 154 1842 218T1914 355T1987 501T2051 641T2097
761T2115 844Q2115 878 2094 899T2036 933T1954 949T1859 953V1047H2622V953Q2563 953 2519 947T2439 925T2372 882T2309 813Q2248 734 2200 643T2103 449T1999 235T1870 0Q1773 -156 1658 -261T1415 -429T1148 -519T865 -546Q682 -546 521 -528T238 -475T47 -386T-23
-263Z" />
<glyph unicode="&#x2013;" glyph-name="endash" horiz-adv-x="1148" d="M67 548Q64 574 63 599T62 650Q62 675 63 700T67 752Q88 747 127 744T214 739T316 736T418 733T508 732T572 732Q602 732 645 732T736 734T835 736T932 740T1018 745T1081 752Q1082 745 1083
732T1084 703T1085 674T1086 650Q1086 642 1086 628T1085 599T1083 571T1081 548Q1058 551 1018 554T929 559T827 563T725 566T636 567T572 568Q546 568 505 568T415 566T314 564T213 560T127 554T67 548Z" />
<glyph unicode="&#x2014;" glyph-name="emdash" horiz-adv-x="2172" d="M72 548Q62 597 62 650Q62 675 64 700T72 752Q103 749 155 746T274 741T416 738T570 735T725 734T870 733T993 732T1083 732Q1143 732 1228 732T1411 734T1609 736T1804 740T1974 745T2101
752Q2103 745 2104 732T2107 703T2109 674T2110 650Q2110 642 2110 628T2108 599T2105 571T2101 548Q2054 551 1974 554T1797 559T1593 563T1390 566T1211 567T1083 568Q1045 568 988 568T863 567T718 565T565 563T413 561T273 557T156 553T72 548Z" />
<glyph unicode="&#x2018;" glyph-name="quoteleft" horiz-adv-x="1092" d="M569 624Q447 624 362 655T222 742T142 873T117 1035Q117 1125 142 1196T211 1322T313 1415T437 1479T573 1515T711 1527L717 1432Q618 1432 538 1408T401 1338T312 1228T274 1082Q340
1131 431 1149T625 1168Q699 1168 763 1153T874 1105T948 1025T975 911Q975 850 945 798T860 707T732 646T569 624Z" />
<glyph unicode="&#x2019;" glyph-name="quoteright" horiz-adv-x="1092" d="M375 722Q474 722 554 746T691 816T780 926T818 1072Q752 1023 661 1005T467 986Q393 986 329 1001T218 1049T144 1129T117 1243Q117 1304 147 1356T231 1447T359 1508T523 1530Q644
1530 730 1499T870 1412T950 1281T975 1119Q975 1029 950 958T882 832T780 739T655 675T519 639T381 627L375 722Z" />
<glyph unicode="&#x201a;" glyph-name="quotesinglbase" horiz-adv-x="1092" d="M117 228Q117 289 147 341T231 432T359 493T523 515Q644 515 730 484T870 397T950 266T975 104Q975 14 950 -57T882 -183T780 -276T655 -340T519 -376T381 -388L375 -293Q474 -293
554 -269T691 -199T780 -89T818 57Q752 8 661 -10T467 -29Q393 -29 329 -14T218 34T144 114T117 228Z" />
<glyph unicode="&#x201c;" glyph-name="quotedblleft" horiz-adv-x="2092" d="M1117 1035Q1117 1125 1142 1196T1211 1322T1312 1415T1437 1479T1573 1515T1711 1527L1717 1432Q1618 1432 1538 1408T1401 1338T1312 1228T1274 1082Q1340 1131 1431 1149T1625 1168Q1699
1168 1763 1153T1874 1105T1948 1025T1975 911Q1975 850 1945 798T1860 707T1732 646T1569 624Q1447 624 1362 655T1222 742T1142 873T1117 1035ZM569 624Q447 624 362 655T222 742T142 873T117 1035Q117 1125 142 1196T211 1322T313 1415T437 1479T573 1515T711
1527L717 1432Q618 1432 538 1408T401 1338T312 1228T274 1082Q340 1131 431 1149T625 1168Q699 1168 763 1153T874 1105T948 1025T975 911Q975 850 945 798T860 707T732 646T569 624Z" />
<glyph unicode="&#x201d;" glyph-name="quotedblright" horiz-adv-x="2092" d="M1375 722Q1474 722 1554 746T1691 816T1780 926T1818 1072Q1752 1023 1661 1005T1467 986Q1393 986 1329 1001T1218 1049T1144 1129T1117 1243Q1117 1304 1147 1356T1231 1447T1359
1508T1523 1530Q1644 1530 1730 1499T1870 1412T1950 1281T1975 1119Q1975 1029 1950 958T1881 832T1779 739T1655 675T1519 639T1381 627L1375 722ZM375 722Q474 722 554 746T691 816T780 926T818 1072Q752 1023 661 1005T467 986Q393 986 329 1001T218 1049T144
1129T117 1243Q117 1304 147 1356T231 1447T359 1508T523 1530Q644 1530 730 1499T870 1412T950 1281T975 1119Q975 1029 950 958T882 832T780 739T655 675T519 639T381 627L375 722Z" />
<glyph unicode="&#x201e;" glyph-name="quotedblbase" horiz-adv-x="2092" d="M1116 228Q1116 289 1146 341T1230 432T1358 493T1522 515Q1643 515 1729 484T1869 397T1949 266T1974 104Q1974 14 1949 -57T1881 -183T1779 -276T1654 -340T1518 -376T1380 -388L1374
-293Q1473 -293 1553 -269T1690 -199T1779 -89T1817 57Q1751 8 1660 -10T1466 -29Q1392 -29 1328 -14T1217 34T1143 114T1116 228ZM117 228Q117 289 147 341T231 432T359 493T523 515Q644 515 730 484T870 397T950 266T975 104Q975 14 950 -57T882 -183T780 -276T655
-340T519 -376T381 -388L375 -293Q474 -293 554 -269T691 -199T780 -89T818 57Q752 8 661 -10T467 -29Q393 -29 329 -14T218 34T144 114T117 228Z" />
<glyph unicode="&#x2022;" glyph-name="bullet" horiz-adv-x="1276" d="M117 690Q117 755 146 817T239 928T400 1007T637 1037Q775 1037 874 1007T1036 929T1129 818T1159 690Q1159 625 1130 564T1037 454T874 377T637 347Q499 347 401 376T239 454T147 563T117 690Z" />
<glyph unicode="&#x2039;" glyph-name="guilsinglleft" horiz-adv-x="1318" d="M276 432Q208 463 174 495T140 575Q140 623 174 655T276 718L1106 1111L1178 1035L620 575L1178 115L1106 39L276 432Z" />
<glyph unicode="&#x203a;" glyph-name="guilsinglright" horiz-adv-x="1318" d="M698 575L140 1035L212 1111L1042 718Q1110 687 1144 655T1178 575Q1178 527 1144 495T1042 432L212 39L140 115L698 575Z" />
</font>
</defs>
</svg>
