<?xml version="1.0" standalone="no"?>
<!DOCTYPE svg PUBLIC "-//W3C//DTD SVG 1.1//EN" "http://www.w3.org/Graphics/SVG/1.1/DTD/svg11.dtd">
<svg xmlns="http://www.w3.org/2000/svg">
<defs >
<font id="Vollkorn" horiz-adv-x="582" ><font-face
    font-family="Vollkorn"
    units-per-em="1000"
    panose-1="0 0 5 0 0 0 0 0 0 0"
    ascent="952"
    descent="-441"
    alphabetic="0" />
<glyph unicode=" " glyph-name="space" horiz-adv-x="200" />
<glyph unicode="!" glyph-name="exclam" horiz-adv-x="411" d="M238 441T230 231Q216 225 185 225Q170 492 145 681Q169 686 200 696T246 714Q267 707 264 683Q238 441 230 231ZM266 22T249 7T207 -8Q180 -8 165 6T150 45Q150 69 167 85T211 102Q235 102 250 86T266
50Q266 22 249 7Z" />
<glyph unicode="&quot;" glyph-name="quotedbl" horiz-adv-x="343" d="M134 667Q130 637 122 532L118 479Q107 479 95 481T79 488Q74 602 60 693Q75 695 91 701T116 714Q127 712 132 703T136 681L134 667ZM283 681Q274 611 265 478Q253 478 241 480T224 487Q219
611 206 693Q220 695 236 701T263 714Q283 709 283 687V681Z" />
<glyph unicode="#" glyph-name="numbersign" horiz-adv-x="592" d="M449 443L411 263H520Q520 247 518 237T508 214H411H401L354 -8Q337 -5 328 0T310 14L353 214Q236 214 193 213L146 -8Q115 -4 103 18L144 213L30 212Q30 238 42 263H155L193 442Q118 442 83
441Q83 469 95 492H204L251 714Q281 709 294 692L252 492H412L459 714Q489 708 502 694L459 492H562Q562 476 560 466T550 443H484H449ZM401 443H241L203 263H363L401 443Z" />
<glyph unicode="$" glyph-name="dollar" horiz-adv-x="552" d="M499 107T449 54T300 -8L301 -91Q290 -91 276 -88T255 -80V-9Q204 -7 162 9T68 55Q77 111 77 197Q100 203 131 203Q135 131 164 90T255 41V299Q199 326 164 349T104 411T80 505Q80 583 126 630T255
684V744Q271 744 281 742T301 733L300 684Q344 682 383 670T448 641Q448 552 454 509Q432 500 398 500Q385 573 362 604T300 640Q299 560 299 395L318 386Q377 358 413 335T474 275T499 183Q499 107 449 54ZM167 500T190 472T255 418V639Q213 634 190 609T167 542Q167
500 190 472ZM358 43T385 71T413 143Q413 191 384 221T299 278Q299 122 300 39Q358 43 385 71Z" />
<glyph unicode="%" glyph-name="percent" horiz-adv-x="863" d="M144 9T138 30L691 686Q704 683 713 676T733 657L174 -7Q144 9 138 30ZM196 359T161 380T108 437T90 512Q90 556 109 594T165 654T256 677Q302 677 335 655T386 598T403 526Q403 455 361 407T246
359Q196 359 161 380ZM282 401T304 430T327 512Q327 566 304 600T243 635Q211 635 189 604T167 525Q167 470 190 436T254 401Q282 401 304 430ZM566 -8T531 13T478 70T460 145Q460 189 479 227T535 287T626 310Q672 310 705 288T756 231T773 159Q773 88 731 40T616
-8Q566 -8 531 13ZM652 34T674 63T697 145Q697 199 674 233T613 268Q581 268 559 237T537 158Q537 103 560 69T624 34Q652 34 674 63Z" />
<glyph unicode="&amp;" glyph-name="ampersand" horiz-adv-x="742" d="M596 76T618 67T687 55Q687 27 681 10Q652 10 606 4T535 -9Q503 35 457 89Q415 37 370 14T268 -10Q193 -10 145 21T76 102T54 208Q54 274 89 327T182 421Q142 493 142 568Q142 607 161 641T218
696T306 717Q348 717 379 709T442 682Q436 643 436 596Q436 575 437 565Q419 557 384 557Q380 620 361 646T300 673Q265 673 243 650T221 587Q221 542 240 502T315 391Q382 308 485 196Q533 276 547 334Q551 347 551 361Q551 385 533 398T472 419Q465 442 465 461Q507
458 567 458Q633 458 667 461Q667 436 663 420Q633 409 619 392T594 338Q582 295 564 254T517 161L572 102Q596 76 618 67ZM323 67T356 81T424 127L353 207Q261 312 265 307Q222 359 202 389Q172 358 155 321T138 237Q138 157 179 112T281 67Q323 67 356 81Z" />
<glyph unicode="&apos;" glyph-name="quotesingle" horiz-adv-x="198" d="M138 681Q130 624 120 477Q108 477 96 479T80 487Q75 603 60 693Q74 695 90 701T117 714Q126 712 131 706T138 690V681Z" />
<glyph unicode="(" glyph-name="parenleft" horiz-adv-x="291" d="M180 625T150 510T120 240Q120 85 152 -34T256 -266Q249 -272 233 -272Q224 -272 220 -271Q128 -149 82 -25T35 240Q35 370 77 486T215 741Q227 742 233 740T250 729Q180 625 150 510Z" />
<glyph unicode=")" glyph-name="parenright" horiz-adv-x="291" d="M172 602T214 486T256 240Q256 99 210 -25T71 -271Q67 -272 58 -272Q42 -272 35 -266Q106 -154 138 -35T171 240Q171 394 141 509T41 729Q56 742 76 741Q172 602 214 486Z" />
<glyph unicode="*" glyph-name="asterisk" horiz-adv-x="443" d="M293 613T373 635Q383 615 383 586Q383 580 381 568Q319 572 236 574Q260 528 309 451Q285 428 248 424Q235 480 209 561Q168 520 116 455Q102 463 89 476T71 505Q121 535 190 585Q135 612 60 640Q63
656 72 672T93 698Q130 666 205 610Q214 671 217 751Q233 753 252 750T284 738Q264 692 233 603Q293 613 373 635Z" />
<glyph unicode="+" glyph-name="plus" horiz-adv-x="550" d="M501 266T499 255T491 233Q402 234 298 234V13Q292 9 276 6T248 3Q250 139 250 234Q173 234 49 232Q49 245 51 261T58 283H250Q250 397 249 493Q259 499 270 501T298 503V283H501Q501 266 499 255Z" />
<glyph unicode="," glyph-name="comma" horiz-adv-x="259" d="M199 -30T169 -85T92 -185Q83 -185 74 -181T60 -170Q90 -136 107 -103T124 -43Q124 1 77 7Q77 19 79 37T85 67Q133 77 165 97Q199 84 199 25Q199 -30 169 -85Z" />
<glyph unicode="-" glyph-name="hyphen" horiz-adv-x="419" d="M359 255T346 229Q202 229 60 225Q60 242 64 261T76 294H359Q359 255 346 229Z" />
<glyph unicode="." glyph-name="period" horiz-adv-x="236" d="M84 -10T66 8T48 54Q48 82 68 102T121 122Q150 122 168 103T187 60Q187 26 167 8T116 -10Q84 -10 66 8Z" />
<glyph unicode="/" glyph-name="slash" horiz-adv-x="365" d="M62 -5T50 2T33 17L291 713Q302 710 314 702T334 687L76 -9Q62 -5 50 2Z" />
<glyph unicode="0" glyph-name="zero" horiz-adv-x="601" d="M561 177T526 117T432 24T304 -9Q234 -9 174 24T77 117T40 255Q40 332 78 389T176 476T304 506Q371 506 430 476T525 389T561 255Q561 177 526 117ZM131 218T155 167T225 82T330 48Q399 48 433 100T467
233Q467 281 444 333T377 420T275 455Q207 455 169 403T131 269Q131 218 155 167Z" />
<glyph unicode="1" glyph-name="one" horiz-adv-x="388" d="M239 78T253 60T308 40Q313 23 313 -3Q255 0 194 0Q129 0 75 -3Q75 23 80 40Q118 42 133 60T149 127V373Q149 422 135 440T80 460Q75 480 75 503Q123 500 194 500Q265 500 313 503Q313 480 308 460Q268
458 254 440T239 373V127Q239 78 253 60Z" />
<glyph unicode="2" glyph-name="two" horiz-adv-x="537" d="M461 72T472 21Q461 -2 440 -2Q312 0 247 0Q154 0 78 -2Q70 7 68 15T65 39Q143 112 236 194Q292 244 312 280T333 358Q333 408 311 434T246 460Q205 460 184 431T151 321Q115 321 97 328Q100 354 100
389Q100 434 95 458Q126 480 168 493T263 506Q339 506 384 475T430 374Q430 329 407 297T320 204L198 90H344Q374 90 387 94T406 110T414 151Q443 151 461 144Q461 72 472 21Z" />
<glyph unicode="3" glyph-name="three" horiz-adv-x="513" d="M440 490T438 462Q366 376 268 248Q318 251 363 228T435 160T463 50Q463 -9 431 -59T337 -140T196 -171Q149 -171 111 -159T50 -126Q50 -108 64 -93Q79 -104 112 -112T191 -121Q231 -121 271 -103T336
-49T362 36Q362 96 325 134T217 172Q198 172 185 165Q177 173 172 183T167 200Q281 345 334 420H212Q181 420 165 415T139 396T118 350Q93 350 77 363Q84 396 86 426T88 502Q154 500 263 500Q354 500 426 502Q440 490 438 462Z" />
<glyph unicode="4" glyph-name="four" horiz-adv-x="597" d="M540 56T535 35T529 0H431V-152Q414 -152 383 -159T348 -171Q337 -160 337 -138V0H330Q233 0 63 -6Q56 1 51 11T45 32L386 506Q398 506 411 503T431 496V79H518Q538 79 547 70Q540 56 535 35ZM337 79V357L152
79H337Z" />
<glyph unicode="5" glyph-name="five" horiz-adv-x="481" d="M204 500T307 500Q359 500 359 548Q374 553 404 553Q398 510 398 428Q388 410 353 410Q200 410 160 407L136 306Q276 276 348 222T421 67Q421 -6 384 -60T289 -142T175 -171Q139 -171 108 -162T60 -139Q60
-122 73 -106Q87 -112 115 -116T171 -121Q211 -121 245 -101T300 -45T321 40Q321 94 287 133T199 194T90 222Q82 227 78 235T73 253L134 502Q204 500 307 500Z" />
<glyph unicode="6" glyph-name="six" horiz-adv-x="506" d="M366 395T416 347T466 212Q466 147 438 97T361 19T255 -9Q148 -9 92 55T35 240Q35 379 92 467T235 594T409 638Q414 632 416 626T419 607Q292 581 224 521T138 343Q181 371 212 383T279 395Q366 395
416 347ZM320 39T348 80T377 175Q377 261 334 298T234 336Q209 336 186 329T133 304Q131 266 131 244Q131 169 153 123T205 58T264 39Q320 39 348 80Z" />
<glyph unicode="7" glyph-name="seven" horiz-adv-x="485" d="M120 -165T120 -132Q120 -44 177 86T347 409H191Q161 409 145 404T118 384T99 338Q68 338 48 350Q64 418 67 503Q119 500 245 500Q369 500 427 503Q441 486 442 465Q377 370 304 230Q258 139 242 65T226
-121Q201 -132 181 -146T149 -176Q120 -165 120 -132Z" />
<glyph unicode="8" glyph-name="eight" horiz-adv-x="508" d="M388 305T423 260T458 156Q458 80 402 36T248 -9Q157 -9 104 31T50 141Q50 205 84 249T191 336Q132 376 105 412T77 492Q77 559 123 598T249 637Q333 637 382 601T431 504Q431 452 400 418T315 354Q388
305 423 260ZM171 472T192 445T265 386L278 378Q312 400 326 425T341 491Q341 537 318 564T254 592Q216 592 194 570T171 509Q171 472 192 445ZM308 36T335 63T363 136Q363 185 331 224T227 312Q177 275 159 241T140 149Q140 97 173 67T261 36Q308 36 335 63Z"
/>
<glyph unicode="9" glyph-name="nine" horiz-adv-x="519" d="M376 506T430 440T484 242Q484 120 421 31T266 -109T90 -170Q84 -162 82 -154T80 -134Q211 -85 285 -17T382 145Q350 118 317 106T245 93Q189 93 142 117T68 184T40 283Q40 352 69 402T149 479T263
506Q376 506 430 440ZM351 156T390 192Q392 220 392 235Q392 351 354 406T249 462Q199 462 166 420T133 318Q133 225 180 191T293 156Q351 156 390 192Z" />
<glyph unicode=":" glyph-name="colon" horiz-adv-x="236" d="M90 311T75 325T60 364Q60 388 77 404T121 421Q145 421 160 405T176 369Q176 341 159 326T117 311Q90 311 75 325ZM90 25T75 39T60 78Q60 102 77 118T121 135Q145 135 160 119T176 83Q176 55 159 40T117
25Q90 25 75 39Z" />
<glyph unicode=";" glyph-name="semicolon" horiz-adv-x="259" d="M112 311T97 325T82 364Q82 388 99 404T143 421Q167 421 182 405T198 369Q198 341 181 326T139 311Q112 311 97 325ZM199 -30T169 -85T92 -185Q83 -185 74 -181T60 -170Q90 -136 107 -103T124
-43Q124 1 77 7Q77 19 79 37T85 67Q133 77 165 97Q199 84 199 25Q199 -30 169 -85Z" />
<glyph unicode="&lt;" glyph-name="less" horiz-adv-x="550" d="M258 136T66 234Q64 246 64 252Q64 273 74 287L435 505Q448 501 456 494T473 472L117 260L466 74Q468 64 468 58Q468 47 465 36T456 18Q258 136 66 234Z" />
<glyph unicode="=" glyph-name="equal" horiz-adv-x="550" d="M57 325T60 340T68 362H493Q493 332 483 314Q405 315 283 315Q146 315 57 313Q57 325 60 340ZM57 159T60 175T67 197H494Q494 166 484 148Q406 149 283 149Q145 149 57 147Q57 159 60 175Z" />
<glyph unicode="&gt;" glyph-name="greater" horiz-adv-x="550" d="M487 273T487 264Q487 244 477 228Q377 177 302 135T96 14Q84 29 84 52Q84 57 86 67L436 259L75 472Q84 486 93 494T117 506L486 277Q487 273 487 264Z" />
<glyph unicode="?" glyph-name="question" horiz-adv-x="537" d="M346 714T390 681T435 586Q435 543 418 511T364 433Q327 387 309 352T290 269Q290 257 293 236T301 201Q287 193 265 193Q247 205 233 239T219 315Q219 362 237 394T290 467Q318 499 332 522T346
577Q346 619 322 646T265 673Q227 673 206 643T177 544Q139 544 120 554Q123 592 123 617Q123 641 120 671Q150 690 186 702T274 714Q346 714 390 681ZM240 -10T222 8T204 54Q204 82 224 102T277 122Q306 122 324 103T343 60Q343 26 323 8T272 -10Q240 -10 222
8Z" />
<glyph unicode="@" glyph-name="at" horiz-adv-x="997" d="M847 -47T853 -68Q808 -131 720 -166T526 -202Q393 -202 303 -148T169 4T125 228Q125 349 174 447T316 603T536 660Q645 660 720 620T834 512T872 359Q872 257 838 173T752 40T648 -9Q611 -9 596 15T580
89Q580 133 581 165Q557 84 521 38T439 -9Q315 -9 315 198Q315 276 338 337T404 433T502 467Q551 467 592 458Q618 458 643 467Q657 462 661 444T665 371V180Q665 127 667 106T676 77T701 69Q723 69 752 103T802 201T823 351Q823 425 789 486T688 583T526 619Q416
619 340 570T226 435T187 237Q187 129 226 40T345 -103T540 -157Q625 -157 698 -129T822 -43Q847 -47 853 -68ZM483 73T508 104T554 196T584 339L585 393Q544 422 496 422Q448 422 427 377T405 228Q405 147 421 110T465 73Q483 73 508 104Z" />
<glyph unicode="A" glyph-name="A" horiz-adv-x="704" d="M679 20T679 -3Q619 0 565 0Q512 0 452 -3Q452 26 459 40Q487 43 498 49T510 69Q510 81 495 118L451 220Q292 220 187 216L160 147Q144 105 144 81Q144 61 156 52T196 40Q203 23 203 -3Q169 0 108 0Q82
0 25 -3Q25 22 32 39Q58 44 73 65T112 147L319 678Q336 682 358 682L596 136Q621 80 635 62T673 40Q679 20 679 -3ZM432 265L356 443Q326 512 312 552Q301 518 274 444L205 265H432Z" />
<glyph unicode="B" glyph-name="B" horiz-adv-x="623" d="M568 356T568 197Q568 109 509 55T328 0Q131 0 56 -3Q56 26 61 40Q89 42 103 50T124 78T131 138V549Q131 599 117 616T62 636Q57 650 57 679Q97 676 161 676L233 677Q257 678 304 678Q402 678 459 646T517
532Q517 467 478 422T372 367Q568 356 568 197ZM415 572T371 603T266 634Q244 634 225 629V375H256Q415 375 415 502Q415 572 371 603ZM390 43T425 79T461 183Q461 332 248 332H225V138Q225 96 232 77T259 50T318 43Q390 43 425 79Z" />
<glyph unicode="C" glyph-name="C" horiz-adv-x="653" d="M261 -9T189 35T76 160T35 343Q35 453 81 530T204 646T369 685Q430 685 482 673T591 633Q580 581 580 478Q558 469 527 469Q523 569 486 606T377 644Q296 644 243 606T165 506T140 370Q140 280 170 208T259
94T395 52Q442 52 492 68T585 111Q591 106 596 97T603 80Q542 33 485 12T353 -9Q261 -9 189 35Z" />
<glyph unicode="D" glyph-name="D" horiz-adv-x="730" d="M480 678T587 610T695 355Q695 144 575 72T315 0Q131 0 56 -3Q56 26 61 40Q89 42 103 50T124 78T131 138V549Q131 599 117 616T62 636Q57 650 57 679Q103 676 197 676L256 677Q276 678 315 678Q480 678
587 610ZM445 45T518 112T592 340Q592 443 552 510T445 609T299 640Q281 640 260 638T225 631V138Q225 99 232 80T258 53T315 45Q445 45 518 112Z" />
<glyph unicode="E" glyph-name="E" horiz-adv-x="601" d="M545 162T560 147Q541 88 529 -2Q451 0 315 0Q131 0 56 -3Q56 26 61 40Q89 42 103 50T124 78T130 138V549Q130 599 116 616T61 636Q56 650 56 679Q115 676 224 676Q406 676 505 679Q515 569 526 521Q511
509 481 509Q476 565 441 600T317 636H224V362H287Q350 362 373 378T398 443Q422 450 446 450Q444 416 444 341Q444 259 446 225Q419 225 400 230Q396 282 373 300T287 319H224V138Q224 100 231 81T257 53T315 45H321Q390 45 427 59T481 98T516 171Q545 162 560
147Z" />
<glyph unicode="F" glyph-name="F" horiz-adv-x="561" d="M224 636V342H293Q356 342 379 358T404 423Q428 430 452 430Q450 396 450 321Q450 239 452 205Q425 205 406 210Q402 262 379 280T293 299H224V147Q224 104 233 82T260 51T313 40Q318 26 318 -3Q272 0
192 0Q95 0 56 -3Q56 26 61 40Q101 42 115 59T130 127V549Q130 599 116 616T61 636Q56 650 56 679Q122 676 223 676Q402 676 501 679Q511 569 522 521Q507 509 477 509Q472 565 437 600T313 636H224Z" />
<glyph unicode="G" glyph-name="G" horiz-adv-x="731" d="M266 -9T192 35T76 160T35 347Q35 454 84 530T212 646T382 685Q452 685 514 673T622 638Q611 581 611 483Q587 474 558 474Q555 571 512 607T390 644Q308 644 252 606T169 506T141 369Q141 276 168 202T250
84T384 40Q416 40 439 43T485 56Q504 64 511 79T519 131V181Q519 229 514 248T491 274T433 281Q427 296 427 327Q465 324 549 324Q624 324 666 326Q666 297 660 281Q638 280 629 274T617 247T613 181V136Q613 113 615 97T626 66Q580 32 513 12T364 -9Q266 -9 192
35Z" />
<glyph unicode="H" glyph-name="H" horiz-adv-x="753" d="M623 77T637 60T692 40Q697 26 697 -3Q637 0 576 0Q506 0 455 -3Q455 26 460 40Q500 42 514 59T529 127V325Q300 325 224 319V127Q224 77 238 60T293 40Q298 26 298 -3Q238 0 177 0Q107 0 56 -3Q56 26
61 40Q101 42 115 59T130 127V549Q130 599 116 616T61 636Q56 650 56 679Q111 676 177 676Q238 676 298 679Q298 650 293 636Q253 634 239 617T224 549V368H529V549Q529 599 515 616T460 636Q455 650 455 679Q510 676 576 676Q637 676 697 679Q697 650 692 636Q652
634 638 617T623 549V127Q623 77 637 60Z" />
<glyph unicode="I" glyph-name="I" horiz-adv-x="354" d="M130 599T116 616T61 636Q56 650 56 679Q111 676 177 676Q238 676 298 679Q298 650 293 636Q253 634 239 617T224 549V127Q224 77 238 60T293 40Q298 26 298 -3Q238 0 177 0Q107 0 56 -3Q56 26 61 40Q101
42 115 59T130 127V549Q130 599 116 616Z" />
<glyph unicode="J" glyph-name="J" horiz-adv-x="329" d="M214 23T201 -40T146 -153T20 -249Q6 -241 3 -223Q63 -172 91 -115T120 34V549Q120 599 106 616T51 636Q46 650 46 679Q90 676 167 676Q252 676 288 679Q288 650 283 636Q244 634 229 616T214 549V125Q214
23 201 -40Z" />
<glyph unicode="K" glyph-name="K" horiz-adv-x="678" d="M534 104T552 86T594 56T656 43Q656 18 651 0Q551 0 492 -6Q452 60 371 163T224 326V127Q224 77 238 60T293 40Q298 26 298 -3Q238 0 177 0Q107 0 56 -3Q56 26 61 40Q101 42 115 59T130 127V549Q130 599
116 616T61 636Q56 650 56 679Q111 676 177 676Q238 676 298 679Q298 650 293 636Q253 634 239 617T224 549V355L413 553Q450 591 450 613Q450 635 417 636Q412 652 412 679Q445 676 515 676Q578 676 618 679Q618 650 612 636Q576 634 546 616T470 549L307 376Q379
307 505 142Q534 104 552 86Z" />
<glyph unicode="L" glyph-name="L" horiz-adv-x="560" d="M376 45T408 57T459 95T496 171Q525 162 540 147Q521 88 509 -2Q431 0 315 0Q131 0 56 -3Q56 26 61 40Q89 42 103 50T124 78T131 138V549Q131 599 117 616T62 636Q57 650 57 679Q115 676 178 676Q239 676
299 679Q299 650 294 636Q266 634 252 627T231 600T225 546V138Q225 99 232 80T258 53T315 45H321Q376 45 408 57Z" />
<glyph unicode="M" glyph-name="M" horiz-adv-x="931" d="M896 24T896 -3Q850 0 776 0Q705 0 654 -3Q654 21 660 40Q698 44 711 57T724 105Q724 125 721 155L685 498L478 -2Q461 -9 437 -9L204 497L172 176Q169 146 169 124Q169 78 184 61T237 40Q242 23 242 -3Q194
0 135 0Q76 0 35 -3Q35 23 40 40Q68 43 83 54T106 94T121 185L153 541Q154 550 154 565Q154 604 138 620T86 636Q81 652 81 679Q111 676 157 676Q194 676 233 679L483 126L701 679Q735 676 779 676Q815 676 855 679Q855 655 850 636Q816 636 799 619T781 560Q781
544 782 535L818 168Q823 118 831 92T853 54T891 41Q896 24 896 -3Z" />
<glyph unicode="N" glyph-name="N" horiz-adv-x="742" d="M660 676T701 679Q701 654 696 636Q673 636 661 623T643 580T637 494V0Q621 -6 594 -6L181 533V187Q181 129 187 98T208 54T250 40Q255 25 255 -3Q210 0 156 0Q94 0 56 -3Q56 25 61 40Q88 40 103 53T124
98T130 187V600L126 605Q112 622 100 628T61 636Q56 654 56 679Q86 676 130 676Q170 676 197 679L586 163V494Q586 550 580 580T559 623T517 636Q512 665 512 679Q555 676 606 676Q660 676 701 679Z" />
<glyph unicode="O" glyph-name="O" horiz-adv-x="731" d="M268 -9T193 36T77 161T35 340Q35 440 78 518T197 641T365 685Q460 685 535 642T653 520T696 340Q696 242 654 163T536 37T365 -9Q268 -9 193 36ZM448 40T495 76T568 174T593 314Q593 403 561 477T471
594T344 637Q285 637 238 603T165 508T138 367Q138 281 167 206T253 86T385 40Q448 40 495 76Z" />
<glyph unicode="P" glyph-name="P" horiz-adv-x="581" d="M436 678T491 624T546 484Q546 424 520 372T443 286T319 253Q277 253 249 264Q247 276 247 283Q247 295 250 305Q275 299 303 299Q444 299 444 455Q444 539 403 586T275 634Q253 634 224 628V147Q224 104
233 82T260 51T313 40Q318 26 318 -3Q272 0 192 0Q95 0 56 -3Q56 26 61 40Q101 42 115 59T130 127V549Q130 599 116 616T61 636Q56 650 56 679Q108 676 192 676L319 678Q436 678 491 624Z" />
<glyph unicode="Q" glyph-name="Q" horiz-adv-x="731" d="M512 3T536 -10T591 -43Q635 -71 667 -85T741 -99Q757 -99 766 -98Q766 -119 760 -138Q691 -159 636 -184Q596 -174 571 -154T515 -98Q480 -58 449 -37T365 -9Q268 -9 193 36T77 161T35 340Q35 440 78
518T197 641T365 685Q460 685 535 642T653 520T696 340Q696 225 638 137T483 12Q512 3 536 -10ZM138 281T167 206T253 86T385 40Q448 40 495 76T568 174T593 314Q593 403 561 477T471 594T344 637Q285 637 238 603T165 508T138 367Q138 281 167 206Z" />
<glyph unicode="R" glyph-name="R" horiz-adv-x="684" d="M546 101T562 82T599 54T658 43Q658 14 654 0Q552 0 497 -9Q459 52 430 109L418 131Q387 187 362 224T294 307L263 306Q248 306 224 308V127Q224 77 237 60T290 40Q295 25 295 -3Q252 0 176 0Q101 0 56
-3Q56 24 61 40Q102 42 116 59T130 127V549Q130 599 116 617T61 636Q56 652 56 678Q96 676 176 676Q231 676 259 677L343 678Q451 678 506 632T561 510Q561 444 517 396T393 328Q428 291 452 256T523 140Q546 101 562 82ZM248 351T268 351Q355 351 409 388T463
500Q463 563 424 598T298 634Q262 634 224 626V354Q248 351 268 351Z" />
<glyph unicode="S" glyph-name="S" horiz-adv-x="552" d="M213 -9T167 6T68 55Q77 111 77 197Q100 203 131 203Q135 123 171 81T285 39Q350 39 381 67T413 143Q413 182 393 209T344 253T263 295Q203 324 167 347T106 408T80 505Q80 589 134 637T281 685Q330 685
375 673T448 641Q448 552 454 509Q432 500 398 500Q384 582 356 611T280 641Q227 641 197 615T167 542Q167 503 187 475T237 429T319 385Q378 357 413 334T474 274T499 183Q499 131 475 88T399 18T271 -9Q213 -9 167 6Z" />
<glyph unicode="T" glyph-name="T" horiz-adv-x="585" d="M552 643Q552 603 559 519Q538 509 509 510Q507 570 480 601T396 632H343V127Q343 92 349 75T371 50T421 40Q426 26 426 -3Q362 0 295 0Q220 0 164 -3Q164 26 169 40Q202 42 219 49T242 75T249 127V632H198Q152
632 127 618T92 579T73 510Q40 510 25 519Q41 609 41 679Q97 676 296 676Q498 676 553 679L552 643Z" />
<glyph unicode="U" glyph-name="U" horiz-adv-x="675" d="M570 179T558 130T513 48Q456 -9 351 -9Q217 -9 162 50T106 231V549Q106 585 102 602T85 626T47 636Q42 654 42 679Q82 676 158 676Q229 676 274 679Q274 654 269 636Q237 633 224 627T205 604T200 549V245Q200
151 238 98T370 44Q398 44 427 53T476 82Q500 106 509 144T519 261V509Q519 560 514 585T495 621T450 636Q445 661 445 679Q479 676 539 676Q595 676 634 679Q634 664 629 636Q605 633 593 622T575 585T570 509V269Q570 179 558 130Z" />
<glyph unicode="V" glyph-name="V" horiz-adv-x="686" d="M618 676T661 679Q661 655 656 636Q627 629 610 602T570 518Q471 264 361 -2Q344 -6 322 -6Q206 307 115 521Q92 575 81 596T60 626T30 636Q25 656 25 679Q64 676 146 676Q210 676 267 679Q267 659 262
636Q228 634 214 627T199 600Q199 578 222 526Q290 365 371 142Q458 340 520 514Q534 554 534 580Q534 605 521 618T479 636Q474 655 474 679Q518 676 559 676Q618 676 661 679Z" />
<glyph unicode="W" glyph-name="W" horiz-adv-x="1003" d="M938 676T978 679Q978 656 971 636Q953 632 941 619T917 578T887 491L731 -3Q715 -9 691 -9Q591 275 496 522L320 -3Q304 -9 277 -9Q188 282 109 521Q90 577 80 599T60 627T30 636Q25 652 25 679Q73 676
138 676Q204 676 259 679Q259 656 254 636Q218 634 204 628T190 602Q190 582 207 533Q281 303 324 160L500 679Q513 684 544 684Q634 449 735 158L841 494Q857 548 857 574Q857 603 842 617T793 636Q786 654 786 679Q828 676 883 676Q938 676 978 679Z" />
<glyph unicode="X" glyph-name="X" horiz-adv-x="667" d="M627 22T627 -3Q584 0 505 0Q444 0 384 -2Q384 21 388 40Q412 43 423 48T435 69Q435 93 404 144Q370 202 352 231L320 284L232 155Q196 102 196 78Q196 49 249 40Q254 23 254 -3Q203 0 144 0Q81 0 40 -3Q40
25 46 42Q101 56 165 144L293 327Q213 453 171 516Q134 573 118 595T91 624T62 635Q56 654 56 679Q109 676 178 676Q237 676 299 678Q299 656 295 636Q270 631 259 623T247 601Q247 577 279 529Q307 487 361 403L434 518Q470 577 470 601Q470 616 458 624T419 636Q414
655 414 679Q464 676 516 676Q578 676 615 679Q615 651 611 636Q585 629 562 607T496 521L389 358Q452 257 512 157Q553 89 574 67T621 40Q627 22 627 -3Z" />
<glyph unicode="Y" glyph-name="Y" horiz-adv-x="630" d="M559 676T605 678Q605 658 601 639Q573 631 549 606T500 531L365 260V163Q365 108 370 85T390 54T442 40Q448 22 448 -3L401 -2Q345 0 321 0Q241 0 185 -2Q185 22 191 40Q229 43 244 51T265 80T271 150V259L105
578Q89 610 74 623T31 637Q25 655 25 678Q81 676 129 676Q232 676 263 678Q263 657 258 639Q212 635 212 609Q212 592 230 557Q290 442 347 314Q402 435 455 542Q476 584 476 603Q476 618 465 625T428 637Q421 662 421 678Q445 676 519 676Q559 676 605 678Z" />
<glyph unicode="Z" glyph-name="Z" horiz-adv-x="631" d="M549 166T568 152Q552 87 550 -3Q452 0 289 0Q128 0 66 -3Q58 13 58 29Q186 236 266 368T425 636H283Q236 636 210 627T167 590T140 508Q99 508 83 518Q92 549 97 593T102 678Q184 676 346 676Q467 676
538 678Q549 665 549 645Q358 311 185 42H339Q404 42 437 51T487 87T516 169Q549 166 568 152Z" />
<glyph unicode="[" glyph-name="bracketleft" horiz-adv-x="272" d="M70 740T130 740Q188 740 226 742Q237 732 237 704Q178 699 152 692T116 667T105 610V-157Q105 -188 118 -202T154 -222T226 -229Q232 -236 234 -245T237 -269Q209 -267 141 -267Q69 -267 35
-269V742Q70 740 130 740Z" />
<glyph unicode="\" glyph-name="backslash" horiz-adv-x="380" d="M76 713T84 709L347 0Q338 -4 310 -4Q298 -4 295 -3L31 709Q39 713 57 713Q76 713 84 709Z" />
<glyph unicode="]" glyph-name="bracketright" horiz-adv-x="272" d="M203 -267T131 -267Q63 -267 35 -269Q35 -254 37 -245T46 -229Q94 -227 117 -222T154 -203T167 -157V610Q167 649 157 667T120 692T35 704Q35 732 46 742Q84 740 142 740Q202 740 237 742V-269Q203
-267 131 -267Z" />
<glyph unicode="^" glyph-name="asciicircum" horiz-adv-x="550" d="M144 488T69 383Q58 393 52 403T42 430L248 685Q264 695 289 695Q299 695 303 694Q345 630 403 547T507 404Q500 399 489 396T467 392Q461 392 451 394L276 644Q144 488 69 383Z" />
<glyph unicode="_" glyph-name="underscore" horiz-adv-x="550" d="M32 -109T44 -92H518Q518 -103 515 -118T506 -142Q433 -141 377 -141T263 -141L108 -142L32 -143Q32 -109 44 -92Z" />
<glyph unicode="`" glyph-name="grave" horiz-adv-x="300" d="M126 639T66 704Q88 715 123 715Q142 715 162 712Q190 617 233 537Q225 533 213 533Q207 533 193 535Q126 639 66 704Z" />
<glyph unicode="a" glyph-name="a" horiz-adv-x="498" d="M396 115T400 100T418 77T458 68Q458 39 452 22Q427 20 397 12T343 -9Q331 -4 325 9T319 50Q319 67 320 76Q308 47 285 27Q246 -7 179 -7Q117 -7 84 21T50 99Q50 158 93 193T189 244T306 268Q306 329 302
352T285 392Q261 422 223 422Q178 422 158 385T135 306Q122 306 106 308T83 313Q84 323 84 347Q84 391 78 422Q118 443 164 455T248 467Q316 467 354 429Q378 405 387 366T396 256V146Q396 115 400 100ZM306 227Q258 221 226 213T171 182T147 119Q147 84 164 66T207
48Q231 48 253 63T291 110T306 189V227Z" />
<glyph unicode="b" glyph-name="b" horiz-adv-x="547" d="M410 467T458 413T507 245Q507 175 476 117T388 25T258 -9Q194 -9 145 9T63 59Q74 73 79 101T85 186V575Q85 601 80 616T59 638T10 646Q10 669 19 683Q44 683 90 694T153 717Q175 710 175 677V416Q175
397 171 373L183 393Q199 420 236 443T320 467Q410 467 458 413ZM296 37T329 54T385 114T408 232Q408 292 390 330T347 386T296 404Q246 404 211 357T175 213V72Q194 55 214 46T263 37Q296 37 329 54Z" />
<glyph unicode="c" glyph-name="c" horiz-adv-x="447" d="M195 -9T148 18T70 98T40 227Q40 289 64 344T136 433T248 467Q342 467 399 422Q392 377 392 308Q377 300 346 300Q340 357 312 388T240 420Q190 420 162 374T133 242Q133 191 150 147T199 75T276 48Q308
48 336 63T387 106Q395 102 402 95T412 78Q357 -9 248 -9Q195 -9 148 18Z" />
<glyph unicode="d" glyph-name="d" horiz-adv-x="564" d="M462 98T473 83T524 68Q524 39 518 22Q492 20 459 12T404 -9Q391 -3 385 7T379 49Q379 66 382 84T387 107Q378 88 364 65Q348 38 311 15T227 -9Q137 -9 89 45T40 213Q40 283 71 341T159 433T289 467Q330
467 372 453V575Q372 601 367 616T346 638T297 646Q297 669 306 683Q331 683 377 694T440 717Q462 710 462 677V136Q462 98 473 83ZM301 54T336 101T372 245V386Q353 403 333 412T284 421Q251 421 218 404T162 344T139 226Q139 166 157 128T200 72T251 54Q301 54
336 101Z" />
<glyph unicode="e" glyph-name="e" horiz-adv-x="474" d="M414 100T421 91T430 74Q396 30 353 11T252 -9Q183 -9 136 22T64 108T40 229Q40 294 65 348T138 434T247 467Q338 467 382 411T434 260Q430 240 419 226Q243 226 139 221Q144 144 177 96T284 47Q318 47
350 62T406 105Q414 100 421 91ZM198 419T170 385T138 271H330Q330 338 306 378T238 419Q198 419 170 385Z" />
<glyph unicode="f" glyph-name="f" horiz-adv-x="342" d="M360 714T379 708T420 689Q416 633 416 572Q389 564 359 564Q359 607 340 633T281 659Q242 659 224 624T206 519V448H308Q308 419 298 403Q247 403 206 392V147Q206 104 215 82T242 51T295 40Q300 26 300
-3Q254 0 174 0Q81 0 42 -3Q42 26 47 40Q87 42 101 59T116 127V395Q77 403 36 403Q36 430 50 448H116V488Q116 560 145 611T223 688T325 714Q360 714 379 708Z" />
<glyph unicode="g" glyph-name="g" horiz-adv-x="511" d="M350 63T389 52T445 17T463 -48Q463 -94 431 -141T341 -218T215 -249Q125 -249 83 -215T41 -114Q41 -40 115 -6Q88 3 78 20T67 68Q67 123 120 174Q90 195 74 227T57 301Q57 373 104 420T237 467Q273 467
300 458H464Q471 434 471 396Q425 407 374 412Q397 389 408 360T420 307Q420 234 372 187T239 139Q197 139 162 152Q137 127 137 105Q137 86 147 78T186 66T282 63Q350 63 389 52ZM189 422T169 391T149 314Q149 252 176 219T251 185Q285 185 305 213T326 292Q326
347 300 384T227 422Q189 422 169 391ZM281 -196T313 -181T363 -141T380 -87Q380 -60 367 -46T319 -24T215 -17Q191 -17 161 -15Q142 -31 135 -49T127 -93Q127 -145 153 -170T239 -196Q281 -196 313 -181Z" />
<glyph unicode="h" glyph-name="h" horiz-adv-x="596" d="M560 25T560 -3Q517 0 451 0Q410 0 352 -2Q345 -3 332 -3Q332 26 337 40Q374 40 390 59T406 127V279Q406 345 382 373T313 401Q285 401 259 384T217 329T200 234V127Q200 77 215 59T269 40Q274 25 274
-3Q190 0 155 0Q80 0 36 -3Q36 26 41 40Q80 40 95 58T110 127V575Q110 601 105 616T84 638T35 646Q35 669 44 683Q69 683 115 694T178 717Q200 710 200 677V423Q200 391 193 364Q195 367 198 374T208 390Q228 418 266 440T353 462Q416 462 456 423T496 299V127Q496
77 510 59T555 40Q560 25 560 -3Z" />
<glyph unicode="i" glyph-name="i" horiz-adv-x="301" d="M123 580T106 597T89 638Q89 664 106 681T148 699Q175 699 191 682T208 638Q208 615 191 598T148 580Q123 580 106 597ZM37 24T42 40Q82 40 96 58T111 127V325Q111 351 106 366T85 388T36 396Q36 419 45
433Q70 433 116 444T179 467Q201 460 201 427V127Q201 77 214 59T260 40Q265 23 265 -3Q213 0 152 0Q87 0 37 -3Q37 24 42 40Z" />
<glyph unicode="j" glyph-name="j" horiz-adv-x="283" d="M123 580T106 597T89 638Q89 664 106 681T148 699Q175 699 191 682T208 638Q208 615 191 598T148 580Q123 580 106 597ZM16 -239T13 -221Q70 -156 90 -106T111 19V325Q111 351 106 366T85 388T36 396Q36
419 45 433Q70 433 116 444T179 467Q201 460 201 427V33Q201 -66 153 -137T35 -249Q16 -239 13 -221Z" />
<glyph unicode="k" glyph-name="k" horiz-adv-x="545" d="M451 70T470 58T525 43Q525 14 520 0Q449 0 392 -9Q361 38 306 105T200 225V127Q200 77 213 59T259 40Q264 23 264 -3Q212 0 151 0Q86 0 36 -3Q36 24 41 40Q81 40 95 58T110 127V575Q110 601 105 616T84
638T35 646Q35 669 44 683Q69 683 115 694T178 717Q200 710 200 677V256L274 323Q338 380 338 403Q338 419 309 419Q303 439 303 460Q346 458 407 458Q465 458 501 460Q501 435 494 418Q464 417 437 404T372 357L277 271Q336 209 421 106Q451 70 470 58Z" />
<glyph unicode="l" glyph-name="l" horiz-adv-x="299" d="M36 24T41 40Q81 40 95 58T110 127V575Q110 601 105 616T84 638T35 646Q35 669 44 683Q69 683 115 694T178 717Q200 710 200 677V127Q200 77 213 59T259 40Q264 23 264 -3Q212 0 151 0Q86 0 36 -3Q36 24 41 40Z" />
<glyph unicode="m" glyph-name="m" horiz-adv-x="885" d="M849 25T849 -3Q804 0 740 0Q671 0 621 -3Q621 26 626 40Q666 42 680 59T695 127V279Q695 346 671 373T603 401Q575 401 550 384T509 329T492 234V127Q492 77 507 60T562 40Q567 25 567 -3Q516 0 448 0Q383
0 329 -3Q329 26 334 40Q374 42 388 59T403 127V284Q403 351 379 378T311 406Q283 406 258 389T217 334T200 239V127Q200 78 215 60T270 40Q275 25 275 -3Q224 0 156 0Q85 0 37 -3Q37 26 42 40Q82 42 96 59T111 127V325Q111 351 106 365T84 387T36 396Q36 419 45
433Q71 435 113 445T174 467Q196 460 196 427Q196 403 192 363Q204 391 208 395Q227 423 265 445T351 467Q396 467 430 447T479 383Q483 369 483 358Q490 377 500 390Q520 418 557 440T643 462Q705 462 744 423T784 299V127Q784 78 797 60T844 40Q849 25 849 -3Z"
/>
<glyph unicode="n" glyph-name="n" horiz-adv-x="597" d="M561 25T561 -3Q518 0 452 0Q411 0 353 -2Q346 -3 333 -3Q333 26 338 40Q375 40 391 59T407 127V279Q407 345 383 373T314 401Q286 401 260 384T218 329T201 234V127Q201 77 216 59T270 40Q275 25 275
-3Q191 0 156 0Q80 0 37 -3Q37 26 42 40Q81 40 96 58T111 127V325Q111 351 106 365T84 387T36 396Q36 419 45 433Q76 435 116 445T179 467Q201 460 201 423Q201 391 194 364Q196 367 199 374T209 390Q229 418 267 440T354 462Q417 462 457 423T497 299V127Q497
77 511 59T556 40Q561 25 561 -3Z" />
<glyph unicode="o" glyph-name="o" horiz-adv-x="532" d="M198 -9T147 20T68 104T40 229Q40 296 69 350T149 436T266 467Q371 467 431 402T492 229Q492 161 464 107T384 22T266 -9Q198 -9 147 20ZM332 39T362 87T392 217Q392 277 374 323T324 394T256 419Q200
419 171 373T141 250Q141 150 176 95T274 39Q332 39 362 87Z" />
<glyph unicode="p" glyph-name="p" horiz-adv-x="573" d="M243 -9T201 5V-95Q201 -138 210 -160T237 -191T290 -202Q295 -216 295 -245Q249 -242 169 -242Q76 -242 37 -245Q37 -216 42 -202Q82 -200 96 -183T111 -115V325Q111 351 106 365T84 387T36 396Q36 419
45 433Q76 435 116 445T179 467Q201 460 201 423Q201 407 198 393T186 351Q195 370 209 393Q225 420 262 443T346 467Q436 467 484 414T533 254Q533 180 502 120T414 26T284 -9Q243 -9 201 5ZM272 404T237 357T201 213V72Q220 55 240 46T289 37Q322 37 355 54T411
114T434 232Q434 310 403 357T322 404Q272 404 237 357Z" />
<glyph unicode="q" glyph-name="q" horiz-adv-x="546" d="M536 -217T536 -245Q498 -242 412 -242Q339 -242 288 -245Q288 -216 293 -202Q325 -200 342 -193T365 -167T372 -115V20Q372 63 387 123Q372 81 358 63Q337 36 300 18T224 -1Q174 -1 132 23T65 96T40 214Q40
282 71 340T157 432T284 467Q413 467 482 400Q472 384 467 359T462 291V-115Q462 -165 476 -182T531 -202Q536 -217 536 -245ZM287 60T312 77T355 133T372 233V386Q360 399 336 410T288 421Q221 421 180 370T139 227Q139 141 175 101T261 60Q287 60 312 77Z" />
<glyph unicode="r" glyph-name="r" horiz-adv-x="419" d="M368 458T399 434Q392 388 392 316Q365 307 335 307Q333 352 321 368T286 385Q268 385 248 366T215 313T201 243V147Q201 104 210 82T237 51T290 40Q295 26 295 -3Q249 0 169 0Q76 0 37 -3Q37 26 42 40Q82
42 96 59T111 127V325Q111 351 106 365T84 387T36 396Q36 419 45 433Q76 435 116 445T179 467Q201 460 201 423Q201 389 195 360T188 325Q190 331 196 349T209 377Q260 458 330 458Q368 458 399 434Z" />
<glyph unicode="s" glyph-name="s" horiz-adv-x="428" d="M338 316T307 316Q304 360 273 393T195 426Q164 426 146 411T127 371Q127 352 135 340T168 313T246 278Q301 257 331 237T375 193T388 132Q388 69 336 30T205 -9Q148 -9 113 0T40 28Q43 54 43 95Q43 122
41 152Q56 163 93 163Q100 101 131 70T215 38Q255 38 278 56T301 102Q301 120 293 133T261 159T193 190Q135 213 104 232T59 276T45 342Q45 382 71 410T136 452T211 467Q255 467 289 459T355 432Q353 402 353 385Q353 353 357 328Q338 316 307 316Z" />
<glyph unicode="t" glyph-name="t" horiz-adv-x="351" d="M148 -9T120 21T92 120V391Q62 401 20 404Q20 427 29 448H92V580Q131 591 166 620Q176 615 179 607T182 568V448H312Q312 427 303 404Q229 401 182 391V141Q182 45 240 45Q260 45 275 51T306 69Q319 54
321 36Q304 17 272 4T208 -9Q148 -9 120 21Z" />
<glyph unicode="u" glyph-name="u" horiz-adv-x="564" d="M462 98T473 83T524 68Q524 39 518 22Q492 20 459 12T404 -9Q391 -3 385 7T379 49Q379 71 382 91Q373 70 350 47Q323 20 294 8T225 -4Q154 -4 118 37T82 174V325Q82 352 78 366T60 387T16 396Q16 419 23
433Q54 435 90 445T150 467Q172 460 172 423V196Q172 126 191 92T255 57Q307 57 339 100T372 228V330Q372 356 367 370T345 392T297 401Q297 415 298 422T304 438Q342 440 379 448T440 467Q462 460 462 423V136Q462 98 473 83Z" />
<glyph unicode="v" glyph-name="v" horiz-adv-x="528" d="M477 458T513 461Q513 436 504 418Q480 413 465 392T424 309L289 0Q271 -9 243 -9Q226 35 170 162T83 355Q64 394 53 405T21 418Q18 429 17 439T15 461Q57 458 120 458Q195 458 243 461Q243 441 236 420Q202
418 188 412T174 392Q174 377 187 351Q206 309 237 234T291 100L371 300Q389 347 389 373Q389 395 377 406T338 419Q327 439 327 461Q366 458 420 458Q477 458 513 461Z" />
<glyph unicode="w" glyph-name="w" horiz-adv-x="774" d="M725 458T759 461Q759 436 751 417Q735 413 725 402T705 367T677 291L576 0Q561 -9 530 -9Q461 167 390 328L259 0Q251 -5 242 -7T215 -9Q145 190 77 358Q66 386 55 398T21 417Q15 433 15 460Q67 458 113
458Q172 458 223 461Q223 430 218 417Q190 414 179 407T167 387Q167 376 175 357Q207 277 262 119L393 458Q406 462 433 462Q489 334 574 118L631 288Q645 331 645 360Q645 388 632 401T591 417Q582 438 582 461Q620 458 671 458Q725 458 759 461Z" />
<glyph unicode="x" glyph-name="x" horiz-adv-x="521" d="M492 27T492 -2Q451 0 387 0Q311 0 272 -2Q272 28 276 40Q298 41 309 46T320 62Q320 75 302 102L245 187L203 126Q177 87 177 66Q177 40 212 40Q218 25 218 -2Q181 0 113 0Q71 0 30 -2Q30 27 36 40Q64
42 88 60T148 129L218 226Q180 281 142 331Q111 372 97 389T71 412T44 420Q37 435 37 460Q95 458 142 458Q223 458 257 460Q257 448 252 420Q231 419 221 415T210 399Q210 384 237 346Q250 330 282 285L322 346Q346 382 346 399Q346 409 338 414T311 420Q305 434
305 460Q355 458 394 458Q436 458 478 460Q478 442 472 420Q448 418 432 406T385 351L311 247L401 122Q434 74 451 58T487 40Q492 27 492 -2Z" />
<glyph unicode="y" glyph-name="y" horiz-adv-x="541" d="M496 458T526 460Q526 431 520 417Q493 410 479 391T439 313L292 -37Q254 -127 227 -172T176 -233T118 -249Q73 -249 43 -226Q40 -214 40 -195Q40 -173 44 -153Q78 -159 108 -159Q172 -159 209 -100Q226
-75 255 -7Q201 115 119 294Q95 344 80 369T52 403T21 417Q15 435 15 460Q91 458 128 458Q179 458 261 460Q261 434 254 417Q220 412 205 402T190 372Q190 351 211 307Q245 238 301 101L310 124L379 298Q396 341 396 364Q396 388 381 399T334 417Q327 437 327 460Q358
458 426 458Q496 458 526 460Z" />
<glyph unicode="z" glyph-name="z" horiz-adv-x="501" d="M448 65T456 17Q447 -2 424 -2Q322 0 245 0Q139 0 67 -2Q51 14 51 38Q113 124 196 242T315 414H223Q186 414 166 406T134 375T112 308Q80 308 60 316Q67 393 67 461Q128 458 250 458Q369 458 427 461Q440
445 440 418Q390 346 306 230T170 45H297Q335 45 354 53T382 84T395 156Q424 156 448 150Q448 65 456 17Z" />
<glyph unicode="{" glyph-name="braceleft" horiz-adv-x="327" d="M192 -242T158 -190T124 -63Q124 -29 129 14Q133 62 133 84Q133 139 112 174T35 228Q35 248 40 260Q94 278 114 311T135 394Q135 418 129 468Q123 522 123 549Q123 615 156 663T277 741Q286 728
286 714Q238 698 219 667T200 591Q200 566 205 535T211 495Q223 427 223 395Q223 338 196 301T96 246Q168 227 196 187T224 86Q224 52 214 -16Q204 -82 204 -113Q204 -161 223 -194T292 -242Q292 -251 291 -258T286 -271Q192 -242 158 -190Z" />
<glyph unicode="|" glyph-name="bar" horiz-adv-x="170" d="M60 701Q77 712 110 712L109 234L110 -230Q104 -234 88 -237T60 -241V701Z" />
<glyph unicode="}" glyph-name="braceright" horiz-adv-x="327" d="M37 -266T36 -259T35 -242Q84 -227 103 -194T123 -113Q123 -82 113 -16Q103 52 103 86Q103 146 131 186T231 246Q159 263 132 300T104 395Q104 427 116 495Q117 503 122 534T127 591Q127 636
108 667T41 714Q41 728 50 741Q138 712 171 664T204 549Q204 522 198 468Q192 418 192 394Q192 345 212 312T287 260Q292 248 292 228Q236 210 215 175T194 84Q194 62 198 14Q203 -29 203 -63Q203 -137 169 -189T41 -271Q37 -266 36 -259Z" />
<glyph unicode="~" glyph-name="asciitilde" horiz-adv-x="550" d="M49 204T46 221Q82 273 115 295T184 317Q207 317 230 310T283 288Q315 274 336 267T380 260Q428 260 473 305Q491 304 504 292Q437 198 371 198Q349 198 327 206T276 229Q243 245 223 252T180
260Q124 260 68 195Q49 204 46 221Z" />
<glyph unicode="&#xa0;" glyph-name="uni00A0" horiz-adv-x="200" />
<glyph unicode="&#xa1;" glyph-name="exclamdown" horiz-adv-x="411" d="M145 437T162 452T204 467Q231 467 246 453T261 414Q261 390 244 374T200 357Q176 357 161 373T145 409Q145 437 162 452ZM173 18T181 228Q195 234 226 234Q241 -33 266 -222Q242 -227 211
-237T165 -255Q144 -248 147 -224Q173 18 181 228Z" />
<glyph unicode="&#xa2;" glyph-name="cent" horiz-adv-x="447" d="M388 40T355 19T275 -8L277 -141Q265 -141 249 -138T227 -130V-8Q178 -3 135 25T66 105T40 227Q40 285 62 338T126 425T227 466V612Q260 612 277 601L275 466Q350 460 399 422Q392 377 392 308Q377
300 346 300Q342 345 324 374T275 414V48H276Q308 48 336 63T387 106Q395 102 402 95T412 78Q388 40 355 19ZM133 179T158 129T227 58V419Q183 413 158 367T133 242Q133 179 158 129Z" />
<glyph unicode="&#xa3;" glyph-name="sterling" horiz-adv-x="557" d="M499 97T516 80Q491 61 465 35T426 -9Q393 -9 370 2Q353 9 334 23Q309 40 288 48T230 57Q191 57 158 42T90 -8Q69 0 56 22Q119 82 147 129T176 238Q176 262 169 290L64 288Q64 303 66 312T75
334H154Q151 341 138 370T117 430T110 494Q110 544 132 587T196 658T296 685Q348 685 381 677T450 650Q448 634 448 601Q448 565 451 518Q428 507 397 509Q393 577 366 607T284 638Q246 638 220 608T194 530Q194 498 202 474T228 417Q241 394 249 375T260 334H378Q378
309 368 289Q332 290 261 290Q259 241 239 195T178 99Q209 120 233 127T287 135Q314 135 335 127T389 103Q424 83 440 83Q460 83 478 100Q499 97 516 80Z" />
<glyph unicode="&#xa4;" glyph-name="currency" horiz-adv-x="527" d="M467 77Q452 58 427 57L371 112Q346 94 318 85T263 75Q203 75 156 109L106 58Q91 59 83 62T66 76L124 137Q103 162 92 193T80 257Q80 316 115 361L60 416Q78 434 99 435L144 391Q195 431 263
431Q326 431 375 393L420 439Q433 436 441 432T457 418L404 365Q441 318 441 257Q441 189 401 141L467 77ZM322 118T354 154T386 249Q386 284 369 317T321 370T254 391Q201 391 169 356T136 264Q136 229 154 195T202 140T269 118Q322 118 354 154Z" />
<glyph unicode="&#xa5;" glyph-name="yen" horiz-adv-x="630" d="M559 676T605 678Q605 658 601 639Q573 631 549 606T500 531L424 378H534Q534 357 523 331H400L365 260V253H532Q532 226 520 206H365V163Q365 108 370 85T390 54T442 40Q448 22 448 -3L401 -2Q345
0 321 0Q241 0 185 -2Q185 22 191 40Q229 43 244 51T265 80T271 150V206H104Q104 233 115 253H271V259L234 331H113Q113 356 123 378H209L105 578Q89 610 74 623T31 637Q25 655 25 678Q81 676 129 676Q232 676 263 678Q263 657 258 639Q212 635 212 609Q212 592
230 557Q290 442 347 314Q402 435 455 542Q476 584 476 603Q476 618 465 625T428 637Q421 662 421 678Q445 676 519 676Q559 676 605 678Z" />
<glyph unicode="&#xa6;" glyph-name="brokenbar" horiz-adv-x="170" d="M60 701Q77 712 110 712Q108 650 108 527Q108 402 110 340Q104 336 88 333T60 329V701ZM60 162Q77 173 110 173Q108 106 108 -29Q108 -163 110 -230Q104 -234 88 -237T60 -241V162Z" />
<glyph unicode="&#xa7;" glyph-name="section" horiz-adv-x="528" d="M380 35T398 0T416 -84Q416 -153 376 -197T255 -242Q200 -242 168 -229T108 -191Q110 -145 110 -123Q110 -89 107 -56Q128 -50 158 -50Q166 -135 192 -165T261 -196Q301 -196 324 -175T348
-115Q348 -85 339 -66T303 -26T217 24Q130 69 96 117T61 241Q61 298 91 344T174 409Q132 442 117 478T101 561Q101 601 120 636T175 692T257 714Q336 714 390 672Q388 640 388 619Q388 585 391 555Q364 547 340 547Q328 616 308 642T255 668Q217 668 193 643T168
585Q168 558 176 540T208 502T283 461Q353 429 392 401T448 336T466 246Q466 185 432 137T336 68Q380 35 398 0ZM127 221T154 186T257 114L278 103Q342 111 370 141T398 214Q398 243 386 266T341 315T244 369L226 378Q178 368 153 339T127 266Q127 221 154 186Z"
/>
<glyph unicode="&#xa8;" glyph-name="dieresis" horiz-adv-x="300" d="M28 532T12 546T-4 583Q-4 607 10 623T51 640Q80 640 94 625T108 585Q108 562 92 547T53 532Q28 532 12 546ZM221 532T206 547T190 589Q190 613 205 626T246 640Q271 640 287 626T303 589Q303
565 290 549T249 532Q221 532 206 547Z" />
<glyph unicode="&#xa9;" glyph-name="copyright" horiz-adv-x="802" d="M495 571T573 526T696 402T742 230Q742 136 697 58T573 -65T401 -111Q306 -111 228 -66T105 57T60 230Q60 324 105 402T229 525T401 571Q495 571 573 526ZM319 528T251 489T143 381T103 230Q103
147 142 79T249 -28T401 -67Q484 -67 552 -28T659 80T699 230Q699 313 660 381T552 488T401 528Q319 528 251 489ZM454 453T485 443T554 410Q547 368 547 303Q534 296 504 296Q494 408 392 408Q338 408 314 361T289 239Q289 163 321 110T419 57Q492 57 539 108Q550
98 556 84Q529 45 490 25T393 5Q343 5 298 30T225 106T197 228Q197 295 224 346T299 425T410 453Q454 453 485 443Z" />
<glyph unicode="&#xaa;" glyph-name="ordfeminine" horiz-adv-x="435" d="M261 366T261 396Q261 406 262 416T265 431Q257 406 235 386Q204 360 155 360Q103 360 77 381T50 444Q50 501 104 530T255 574Q255 613 252 628T238 656Q221 678 192 678Q163 678 149 652T132
591Q96 591 78 598Q79 607 79 625Q79 653 74 680Q143 717 216 717Q251 717 274 709T312 685Q331 666 338 640T345 561V481Q345 448 353 437T390 425Q392 400 384 384Q361 383 334 377T285 359Q261 366 261 396ZM211 414T233 439T255 514V537Q202 529 173 514T143
461Q143 437 154 426T183 414Q211 414 233 439Z" />
<glyph unicode="&#xab;" glyph-name="guillemotleft" horiz-adv-x="510" d="M172 302T146 264Q186 193 243 117Q240 94 223 83Q155 152 60 240Q60 256 66 274Q139 338 215 417Q237 414 250 401Q172 302 146 264ZM354 330T316 267Q354 191 398 116Q392 97 375 88Q305
172 239 240Q239 259 245 273Q301 332 368 413Q389 411 402 398Q354 330 316 267Z" />
<glyph unicode="&#xac;" glyph-name="logicalnot" horiz-adv-x="550" d="M497 348V116Q474 102 446 102V298H253Q123 298 53 297Q53 309 56 325T63 348H497Z" />
<glyph unicode="&#xad;" glyph-name="uni00AD" horiz-adv-x="419" d="M359 255T346 229Q202 229 60 225Q60 242 64 261T76 294H359Q359 255 346 229Z" />
<glyph unicode="&#xae;" glyph-name="registered" horiz-adv-x="495" d="M300 773T343 748T410 680T435 585Q435 533 410 490T343 423T248 398Q196 398 153 422T85 490T60 585Q60 637 85 680T153 748T248 773Q300 773 343 748ZM291 434T325 454T379 508T399 585Q399
627 379 662T325 717T248 737Q206 737 171 717T116 662T96 585Q96 543 116 509T170 454T248 434Q291 434 325 454ZM324 609T314 591T279 566Q313 532 332 489Q320 483 306 483Q298 483 294 484Q274 530 247 559L224 560V485Q212 483 205 483Q200 483 186 485V682Q217
691 253 691Q290 691 307 677T324 633Q324 609 314 591ZM286 584T286 624Q286 666 248 666Q240 666 224 662V585Q231 584 243 584Q286 584 286 624Z" />
<glyph unicode="&#xaf;" glyph-name="overscore" horiz-adv-x="300" d="M-32 594T-30 608T-23 631H332Q332 611 323 588Q139 588 -32 585Q-32 594 -30 608Z" />
<glyph unicode="&#xb0;" glyph-name="degree" horiz-adv-x="384" d="M324 526T287 490T190 454Q130 454 95 488T60 578Q60 630 96 665T190 700Q253 700 288 666T324 579Q324 526 287 490ZM130 552T152 523T204 494Q226 494 240 513T254 568Q254 611 235 636T184
662Q161 662 146 643T130 597Q130 552 152 523Z" />
<glyph unicode="&#xb1;" glyph-name="plusminus" horiz-adv-x="550" d="M251 181Q252 216 252 275Q160 275 91 274Q91 286 94 301T101 323H252L251 473Q261 479 272 481T300 483V323H459Q459 306 458 296T450 275H400H300V133Q294 129 278 126T250 123L251 181ZM497
90Q497 73 495 63T487 42Q431 43 285 43Q140 43 53 41Q53 53 56 68T63 90H497Z" />
<glyph unicode="&#xb2;" glyph-name="uni00B2" horiz-adv-x="370" d="M40 422T40 441Q85 484 148 539Q184 571 199 598T215 662Q215 689 200 706T164 724Q140 724 129 703T111 625Q78 625 62 631Q64 661 64 679Q64 710 61 734Q92 752 120 759T189 767Q231 767
263 745T296 676Q296 639 282 613T233 556Q181 509 162 493L145 478H225Q250 478 264 491T280 534Q304 534 317 530Q317 469 325 428Q316 408 293 408Q263 408 243 409L165 410L85 409Q70 408 49 408Q40 422 40 441Z" />
<glyph unicode="&#xb3;" glyph-name="uni00B3" horiz-adv-x="369" d="M98 288T73 298T35 320Q44 337 58 347Q66 340 85 334T131 328Q156 328 181 341T222 379T239 438Q239 478 216 503T150 529Q138 529 128 526Q115 536 111 552Q199 662 226 698H164Q132 698 120
687T91 638Q68 638 54 647Q61 704 61 759Q84 758 184 758Q280 758 298 759Q303 750 304 743T306 724Q250 663 187 579Q222 582 253 567T304 521T324 448Q324 404 301 368T236 310T137 288Q98 288 73 298Z" />
<glyph unicode="&#xb4;" glyph-name="acute" horiz-adv-x="300" d="M81 529T66 537Q111 629 131 709Q166 721 198 721Q220 721 234 714Q176 647 102 531Q81 529 66 537Z" />
<glyph unicode="&#xb5;" glyph-name="uni00B5" horiz-adv-x="589" d="M482 110T486 96T505 74T549 65Q549 39 543 22Q518 22 479 13T423 -9Q398 -1 398 40Q398 65 402 93Q392 69 370 47Q344 21 315 9T249 -4Q202 -4 170 12V-40Q170 -120 184 -167Q162 -184 149
-198T113 -242Q99 -236 93 -220Q94 -211 98 -178T102 -85V325Q102 352 98 366T80 387T36 396Q36 419 43 433Q74 435 110 445T170 467Q192 460 192 423V196Q192 120 212 89T282 57Q310 57 335 76T376 133T392 228V330Q392 356 387 370T365 392T317 401Q317 415 318
422T324 438Q362 440 399 448T460 467Q482 460 482 423V136Q482 110 486 96Z" />
<glyph unicode="&#xb6;" glyph-name="paragraph" horiz-adv-x="540" d="M493 676T521 678Q521 653 515 636Q486 635 472 626T453 600T448 550V-239Q428 -249 398 -249V636Q375 639 337 641V-239Q316 -249 287 -249V318Q265 316 254 316Q147 316 92 356T36 493Q36
577 97 627T287 678L374 677Q396 676 439 676Q493 676 521 678ZM287 355V641Q227 639 193 626T143 581T127 496Q127 427 167 391T268 355H287Z" />
<glyph unicode="&#xb7;" glyph-name="middot" horiz-adv-x="236" d="M90 204T75 218T60 257Q60 281 77 297T121 314Q145 314 160 298T176 262Q176 234 159 219T117 204Q90 204 75 218Z" />
<glyph unicode="&#xb8;" glyph-name="cedilla" horiz-adv-x="300" d="M84 -229T84 -210Q116 -210 139 -195T163 -155Q163 -131 145 -116T98 -101Q80 -87 80 -63L130 16H180L132 -50Q172 -57 195 -81T219 -141Q219 -172 199 -195T149 -230T91 -242Q84 -229 84 -210Z" />
<glyph unicode="&#xb9;" glyph-name="uni00B9" horiz-adv-x="308" d="M54 431T58 448Q88 448 100 462T113 509V659Q113 690 100 704T58 719Q54 736 54 761Q87 758 155 758Q215 758 254 761Q254 736 250 719Q221 719 208 705T195 659V509Q195 476 207 462T250 448Q254
429 254 407Q207 410 155 410Q102 410 54 407Q54 431 58 448Z" />
<glyph unicode="&#xba;" glyph-name="ordmasculine" horiz-adv-x="418" d="M291 717T335 669T379 539Q379 458 333 408T208 357Q130 357 85 405T40 535Q40 588 62 629T123 694T210 717Q291 717 335 669ZM251 398T270 432T289 525Q289 595 264 636T202 677Q168
677 150 644T132 554Q132 481 154 440T217 398Q251 398 270 432Z" />
<glyph unicode="&#xbb;" glyph-name="guillemotright" horiz-adv-x="518" d="M332 184T373 249Q330 316 265 404Q282 418 302 418Q368 355 452 285Q458 273 458 253Q385 180 302 87Q286 97 279 116Q332 184 373 249ZM162 185T198 249Q162 314 108 400Q124 414
147 414Q204 350 273 284Q278 272 278 253Q206 168 147 91Q131 100 120 119Q162 185 198 249Z" />
<glyph unicode="&#xbc;" glyph-name="onequarter" horiz-adv-x="796" d="M224 726T228 718T233 690V398Q233 364 239 349T260 328T308 320Q313 305 313 279Q233 281 183 281Q127 281 53 279Q53 304 57 320Q91 322 108 327T133 349T142 398V589Q142 619 136 631T109
649T40 654Q40 679 45 696Q145 704 210 730Q224 726 228 718ZM167 0T153 18L665 714Q675 711 686 704T705 688L193 -8Q167 0 153 18ZM682 119V111Q682 81 687 67T702 48T732 42Q737 29 737 -3Q668 0 635 0Q588 0 531 -3Q531 34 535 42Q572 44 586 57T600 111V118Q506
117 428 111Q410 131 410 160Q422 175 423 176Q562 347 630 449Q635 450 643 450Q664 450 682 443V191H729Q742 191 749 189T761 181Q747 153 743 119H682ZM600 191V338L493 191H600Z" />
<glyph unicode="&#xbd;" glyph-name="onehalf" horiz-adv-x="927" d="M224 726T228 718T233 690V398Q233 364 239 349T260 328T308 320Q313 305 313 279Q233 281 183 281Q127 281 53 279Q53 304 57 320Q91 322 108 327T133 349T142 398V589Q142 619 136 631T109
649T40 654Q40 679 45 696Q145 704 210 730Q224 726 228 718ZM167 0T153 18L665 714Q675 711 686 704T705 688L193 -8Q167 0 153 18ZM887 106T887 94Q887 54 895 20Q891 9 881 4T859 -2Q854 -2 822 -1T739 0Q681 0 645 -1L578 -2Q565 11 565 38Q646 135 719 217Q745
246 757 271T769 326Q769 361 753 379T704 397Q671 397 657 375T633 294Q602 294 580 301Q583 327 583 352Q583 387 579 418Q642 449 720 449Q795 449 831 424T868 346Q868 309 848 277T780 198Q712 133 672 87H764Q792 87 806 92T827 110T838 153Q867 155 889
146Q887 106 887 94Z" />
<glyph unicode="&#xbe;" glyph-name="threequarters" horiz-adv-x="808" d="M267 541T306 512T345 423Q345 355 292 315T148 274Q104 274 75 283T30 306Q32 329 46 343Q60 333 82 327T131 321Q182 321 214 343T246 406Q246 441 221 460T158 480Q144 480 132 476Q126
483 121 494T116 514Q202 609 230 644H155Q122 644 109 635T83 592Q55 592 40 603Q50 651 48 727Q90 724 182 724Q250 724 319 727Q332 708 331 686L207 542Q267 541 306 512ZM179 0T165 18L677 714Q687 711 698 704T717 688L205 -8Q179 0 165 18ZM694 119V111Q694
81 699 67T714 48T744 42Q749 29 749 -3Q680 0 647 0Q600 0 543 -3Q543 34 547 42Q584 44 598 57T612 111V118Q518 117 440 111Q422 131 422 160Q434 175 435 176Q574 347 642 449Q647 450 655 450Q676 450 694 443V191H741Q754 191 761 189T773 181Q759 153 755
119H694ZM612 191V338L505 191H612Z" />
<glyph unicode="&#xbf;" glyph-name="questiondown" horiz-adv-x="537" d="M297 468T315 450T333 404Q333 376 313 356T260 336Q231 336 213 355T194 398Q194 432 214 450T265 468Q297 468 315 450ZM191 -256T147 -223T102 -128Q102 -85 119 -53T173 25Q210 71
228 106T247 189Q247 201 244 222T236 257Q250 265 272 265Q290 253 304 219T318 143Q318 96 300 64T247 -9Q219 -41 205 -64T191 -119Q191 -161 215 -188T272 -215Q310 -215 331 -185T360 -86Q398 -86 417 -96Q414 -134 414 -159Q414 -183 417 -213Q387 -232 351
-244T263 -256Q191 -256 147 -223Z" />
<glyph unicode="&#xc0;" glyph-name="Agrave" horiz-adv-x="704" d="M679 20T679 -3Q619 0 565 0Q512 0 452 -3Q452 26 459 40Q487 43 498 49T510 69Q510 81 495 118L451 220Q292 220 187 216L160 147Q144 105 144 81Q144 61 156 52T196 40Q203 23 203 -3Q169
0 108 0Q82 0 25 -3Q25 22 32 39Q58 44 73 65T112 147L319 678Q336 682 358 682L596 136Q621 80 635 62T673 40Q679 20 679 -3ZM432 265L356 443Q326 512 312 552Q301 518 274 444L205 265H432ZM274 807T221 860Q247 873 288 873Q303 873 311 872Q345 787 372 737Q364
734 354 733T332 732Q274 807 221 860Z" />
<glyph unicode="&#xc1;" glyph-name="Aacute" horiz-adv-x="704" d="M679 20T679 -3Q619 0 565 0Q512 0 452 -3Q452 26 459 40Q487 43 498 49T510 69Q510 81 495 118L451 220Q292 220 187 216L160 147Q144 105 144 81Q144 61 156 52T196 40Q203 23 203 -3Q169
0 108 0Q82 0 25 -3Q25 22 32 39Q58 44 73 65T112 147L319 678Q336 682 358 682L596 136Q621 80 635 62T673 40Q679 20 679 -3ZM432 265L356 443Q326 512 312 552Q301 518 274 444L205 265H432ZM334 732T324 733T306 737Q342 810 362 871Q390 878 410 878Q436 878
457 870Q401 803 346 732Q334 732 324 733Z" />
<glyph unicode="&#xc2;" glyph-name="Acircumflex" horiz-adv-x="704" d="M679 20T679 -3Q619 0 565 0Q512 0 452 -3Q452 26 459 40Q487 43 498 49T510 69Q510 81 495 118L451 220Q292 220 187 216L160 147Q144 105 144 81Q144 61 156 52T196 40Q203 23 203 -3Q169
0 108 0Q82 0 25 -3Q25 22 32 39Q58 44 73 65T112 147L319 678Q336 682 358 682L596 136Q621 80 635 62T673 40Q679 20 679 -3ZM432 265L356 443Q326 512 312 552Q301 518 274 444L205 265H432ZM189 735T186 762Q221 785 259 815T326 874Q341 878 361 878Q415 816
491 754Q480 737 457 731L433 745Q374 782 335 800Q313 790 268 766T202 728Q189 735 186 762Z" />
<glyph unicode="&#xc3;" glyph-name="Atilde" horiz-adv-x="704" d="M679 20T679 -3Q619 0 565 0Q512 0 452 -3Q452 26 459 40Q487 43 498 49T510 69Q510 81 495 118L451 220Q292 220 187 216L160 147Q144 105 144 81Q144 61 156 52T196 40Q203 23 203 -3Q169
0 108 0Q82 0 25 -3Q25 22 32 39Q58 44 73 65T112 147L319 678Q336 682 358 682L596 136Q621 80 635 62T673 40Q679 20 679 -3ZM432 265L356 443Q326 512 312 552Q301 518 274 444L205 265H432ZM379 748T364 752T327 766Q304 775 290 779T261 783Q225 783 190 751Q177
761 177 782Q226 847 288 847Q317 847 361 829Q380 821 393 817T419 813Q449 813 475 839Q493 836 501 825Q459 748 396 748Q379 748 364 752Z" />
<glyph unicode="&#xc4;" glyph-name="Adieresis" horiz-adv-x="704" d="M679 20T679 -3Q619 0 565 0Q512 0 452 -3Q452 26 459 40Q487 43 498 49T510 69Q510 81 495 118L451 220Q292 220 187 216L160 147Q144 105 144 81Q144 61 156 52T196 40Q203 23 203 -3Q169
0 108 0Q82 0 25 -3Q25 22 32 39Q58 44 73 65T112 147L319 678Q336 682 358 682L596 136Q621 80 635 62T673 40Q679 20 679 -3ZM432 265L356 443Q326 512 312 552Q301 518 274 444L205 265H432ZM217 732T201 746T185 783Q185 807 199 823T240 840Q269 840 283 825T297
785Q297 762 281 747T242 732Q217 732 201 746ZM410 732T395 747T379 789Q379 813 394 826T435 840Q460 840 476 826T492 789Q492 765 479 749T438 732Q410 732 395 747Z" />
<glyph unicode="&#xc5;" glyph-name="Aring" horiz-adv-x="704" d="M679 20T679 -3Q619 0 565 0Q512 0 452 -3Q452 26 459 40Q487 43 498 49T510 69Q510 81 495 118L451 220Q292 220 187 216L160 147Q144 105 144 81Q144 61 156 52T196 40Q203 23 203 -3Q169 0
108 0Q82 0 25 -3Q25 22 32 39Q58 44 73 65T112 147L319 678Q336 682 358 682L596 136Q621 80 635 62T673 40Q679 20 679 -3ZM432 265L356 443Q326 512 312 552Q301 518 274 444L205 265H432ZM297 723T271 743T244 797Q244 831 272 853T342 876Q380 876 407 857T434
803Q434 769 406 746T335 723Q297 723 271 743ZM360 754T371 765T383 795Q383 815 371 831T335 848Q318 848 307 836T296 801Q296 780 308 767T344 754Q360 754 371 765Z" />
<glyph unicode="&#xc6;" glyph-name="AE" horiz-adv-x="911" d="M851 88T839 -2Q697 0 588 0Q502 0 390 -2Q390 27 397 40Q424 44 437 52T455 79T461 138V298Q333 296 277 294Q215 185 199 155Q171 103 171 76Q171 59 182 51T216 38Q223 21 223 -3Q177 0 118 0Q55
0 25 -3Q25 22 32 39Q58 42 80 63T140 152L374 556Q390 582 390 600Q390 615 376 623T330 635Q324 649 324 678L483 676H517Q693 676 815 678Q825 570 836 521Q821 509 791 509Q786 565 751 600T627 636H555V341H606Q663 341 685 360T707 421Q735 428 756 428Q754
388 754 317Q754 247 756 203Q724 203 710 208Q707 239 699 257T667 287T598 298H555V138Q555 97 563 77T585 51T625 45H651Q711 45 744 59T793 98T826 171Q855 162 870 147Q851 88 839 -2ZM461 341V540Q461 595 465 629Q454 602 422 546L304 341H461Z" />
<glyph unicode="&#xc7;" glyph-name="Ccedilla" horiz-adv-x="653" d="M380 -57T403 -81T427 -141Q427 -172 407 -195T357 -230T299 -242Q292 -229 292 -210Q324 -210 347 -195T371 -155Q371 -131 353 -116T306 -101Q288 -87 288 -63L323 -8Q239 -1 174 45T72
169T35 343Q35 453 81 530T204 646T369 685Q430 685 482 673T591 633Q580 581 580 478Q558 469 527 469Q523 569 486 606T377 644Q296 644 243 606T165 506T140 370Q140 280 170 208T259 94T395 52Q442 52 492 68T585 111Q591 106 596 97T603 80Q546 36 492 15T370
-9L340 -50Q380 -57 403 -81Z" />
<glyph unicode="&#xc8;" glyph-name="Egrave" horiz-adv-x="601" d="M545 162T560 147Q541 88 529 -2Q451 0 315 0Q131 0 56 -3Q56 26 61 40Q89 42 103 50T124 78T130 138V549Q130 599 116 616T61 636Q56 650 56 679Q115 676 224 676Q406 676 505 679Q515 569
526 521Q511 509 481 509Q476 565 441 600T317 636H224V362H287Q350 362 373 378T398 443Q422 450 446 450Q444 416 444 341Q444 259 446 225Q419 225 400 230Q396 282 373 300T287 319H224V138Q224 100 231 81T257 53T315 45H321Q390 45 427 59T481 98T516 171Q545
162 560 147ZM223 807T170 860Q196 873 237 873Q252 873 260 872Q294 787 321 737Q313 734 303 733T281 732Q223 807 170 860Z" />
<glyph unicode="&#xc9;" glyph-name="Eacute" horiz-adv-x="601" d="M545 162T560 147Q541 88 529 -2Q451 0 315 0Q131 0 56 -3Q56 26 61 40Q89 42 103 50T124 78T130 138V549Q130 599 116 616T61 636Q56 650 56 679Q115 676 224 676Q406 676 505 679Q515 569
526 521Q511 509 481 509Q476 565 441 600T317 636H224V362H287Q350 362 373 378T398 443Q422 450 446 450Q444 416 444 341Q444 259 446 225Q419 225 400 230Q396 282 373 300T287 319H224V138Q224 100 231 81T257 53T315 45H321Q390 45 427 59T481 98T516 171Q545
162 560 147ZM283 732T273 733T255 737Q291 810 311 871Q339 878 359 878Q385 878 406 870Q350 803 295 732Q283 732 273 733Z" />
<glyph unicode="&#xca;" glyph-name="Ecircumflex" horiz-adv-x="601" d="M545 162T560 147Q541 88 529 -2Q451 0 315 0Q131 0 56 -3Q56 26 61 40Q89 42 103 50T124 78T130 138V549Q130 599 116 616T61 636Q56 650 56 679Q115 676 224 676Q406 676 505 679Q515
569 526 521Q511 509 481 509Q476 565 441 600T317 636H224V362H287Q350 362 373 378T398 443Q422 450 446 450Q444 416 444 341Q444 259 446 225Q419 225 400 230Q396 282 373 300T287 319H224V138Q224 100 231 81T257 53T315 45H321Q390 45 427 59T481 98T516
171Q545 162 560 147ZM138 735T135 762Q170 785 208 815T275 874Q290 878 310 878Q364 816 440 754Q429 737 406 731L382 745Q323 782 284 800Q262 790 217 766T151 728Q138 735 135 762Z" />
<glyph unicode="&#xcb;" glyph-name="Edieresis" horiz-adv-x="601" d="M545 162T560 147Q541 88 529 -2Q451 0 315 0Q131 0 56 -3Q56 26 61 40Q89 42 103 50T124 78T130 138V549Q130 599 116 616T61 636Q56 650 56 679Q115 676 224 676Q406 676 505 679Q515 569
526 521Q511 509 481 509Q476 565 441 600T317 636H224V362H287Q350 362 373 378T398 443Q422 450 446 450Q444 416 444 341Q444 259 446 225Q419 225 400 230Q396 282 373 300T287 319H224V138Q224 100 231 81T257 53T315 45H321Q390 45 427 59T481 98T516 171Q545
162 560 147ZM166 732T150 746T134 783Q134 807 148 823T189 840Q218 840 232 825T246 785Q246 762 230 747T191 732Q166 732 150 746ZM359 732T344 747T328 789Q328 813 343 826T384 840Q409 840 425 826T441 789Q441 765 428 749T387 732Q359 732 344 747Z" />
<glyph unicode="&#xcc;" glyph-name="Igrave" horiz-adv-x="354" d="M130 599T116 616T61 636Q56 650 56 679Q111 676 177 676Q238 676 298 679Q298 650 293 636Q253 634 239 617T224 549V127Q224 77 238 60T293 40Q298 26 298 -3Q238 0 177 0Q107 0 56 -3Q56
26 61 40Q101 42 115 59T130 127V549Q130 599 116 616ZM112 807T59 860Q85 873 126 873Q141 873 149 872Q183 787 210 737Q202 734 192 733T170 732Q112 807 59 860Z" />
<glyph unicode="&#xcd;" glyph-name="Iacute" horiz-adv-x="354" d="M130 599T116 616T61 636Q56 650 56 679Q111 676 177 676Q238 676 298 679Q298 650 293 636Q253 634 239 617T224 549V127Q224 77 238 60T293 40Q298 26 298 -3Q238 0 177 0Q107 0 56 -3Q56
26 61 40Q101 42 115 59T130 127V549Q130 599 116 616ZM172 732T162 733T144 737Q180 810 200 871Q228 878 248 878Q274 878 295 870Q239 803 184 732Q172 732 162 733Z" />
<glyph unicode="&#xce;" glyph-name="Icircumflex" horiz-adv-x="354" d="M49 720T46 744Q99 792 163 868Q191 873 197 873Q233 823 308 732Q298 719 272 713Q218 762 169 794Q120 758 70 710Q49 720 46 744ZM130 599T116 616T61 636Q56 650 56 679Q111 676 177
676Q238 676 298 679Q298 650 293 636Q253 634 239 617T224 549V127Q224 77 238 60T293 40Q298 26 298 -3Q238 0 177 0Q107 0 56 -3Q56 26 61 40Q101 42 115 59T130 127V549Q130 599 116 616Z" />
<glyph unicode="&#xcf;" glyph-name="Idieresis" horiz-adv-x="354" d="M75 737T59 750T43 785Q43 808 57 823T98 839Q127 839 141 825T155 787Q155 765 139 751T100 737Q75 737 59 750ZM228 738T213 752T197 791Q197 813 212 826T253 839Q278 839 294 826T310
791Q310 768 297 753T256 738Q228 738 213 752ZM130 599T116 616T61 636Q56 650 56 679Q111 676 177 676Q238 676 298 679Q298 650 293 636Q253 634 239 617T224 549V127Q224 77 238 60T293 40Q298 26 298 -3Q238 0 177 0Q107 0 56 -3Q56 26 61 40Q101 42 115 59T130
127V549Q130 599 116 616Z" />
<glyph unicode="&#xd0;" glyph-name="Eth" horiz-adv-x="730" d="M480 678T587 610T695 355Q695 144 575 72T315 0Q131 0 56 -3Q56 26 61 40Q89 42 103 50T124 78T131 138V314L60 312Q60 324 62 340T69 363H131V549Q131 599 117 616T62 636Q57 650 57 679Q103
676 197 676L256 677Q276 678 315 678Q480 678 587 610ZM445 45T518 112T592 340Q592 443 552 510T445 609T299 640Q281 640 260 638T225 631V363H371Q371 331 361 313Q313 314 232 314H225V138Q225 99 232 80T258 53T315 45Q445 45 518 112Z" />
<glyph unicode="&#xd1;" glyph-name="Ntilde" horiz-adv-x="742" d="M660 676T701 679Q701 654 696 636Q673 636 661 623T643 580T637 494V0Q621 -6 594 -6L181 533V187Q181 129 187 98T208 54T250 40Q255 25 255 -3Q210 0 156 0Q94 0 56 -3Q56 25 61 40Q88 40
103 53T124 98T130 187V600L126 605Q112 622 100 628T61 636Q56 654 56 679Q86 676 130 676Q170 676 197 679L586 163V494Q586 550 580 580T559 623T517 636Q512 665 512 679Q555 676 606 676Q660 676 701 679ZM416 748T401 752T364 766Q341 775 327 779T298 783Q262
783 227 751Q214 761 214 782Q263 847 325 847Q354 847 398 829Q417 821 430 817T456 813Q486 813 512 839Q530 836 538 825Q496 748 433 748Q416 748 401 752Z" />
<glyph unicode="&#xd2;" glyph-name="Ograve" horiz-adv-x="731" d="M268 -9T193 36T77 161T35 340Q35 440 78 518T197 641T365 685Q460 685 535 642T653 520T696 340Q696 242 654 163T536 37T365 -9Q268 -9 193 36ZM448 40T495 76T568 174T593 314Q593 403 561
477T471 594T344 637Q285 637 238 603T165 508T138 367Q138 281 167 206T253 86T385 40Q448 40 495 76ZM301 807T248 860Q274 873 315 873Q330 873 338 872Q372 787 399 737Q391 734 381 733T359 732Q301 807 248 860Z" />
<glyph unicode="&#xd3;" glyph-name="Oacute" horiz-adv-x="731" d="M268 -9T193 36T77 161T35 340Q35 440 78 518T197 641T365 685Q460 685 535 642T653 520T696 340Q696 242 654 163T536 37T365 -9Q268 -9 193 36ZM448 40T495 76T568 174T593 314Q593 403 561
477T471 594T344 637Q285 637 238 603T165 508T138 367Q138 281 167 206T253 86T385 40Q448 40 495 76ZM361 732T351 733T333 737Q369 810 389 871Q417 878 437 878Q463 878 484 870Q428 803 373 732Q361 732 351 733Z" />
<glyph unicode="&#xd4;" glyph-name="Ocircumflex" horiz-adv-x="731" d="M268 -9T193 36T77 161T35 340Q35 440 78 518T197 641T365 685Q460 685 535 642T653 520T696 340Q696 242 654 163T536 37T365 -9Q268 -9 193 36ZM448 40T495 76T568 174T593 314Q593 403
561 477T471 594T344 637Q285 637 238 603T165 508T138 367Q138 281 167 206T253 86T385 40Q448 40 495 76ZM216 735T213 762Q248 785 286 815T353 874Q368 878 388 878Q442 816 518 754Q507 737 484 731L460 745Q401 782 362 800Q340 790 295 766T229 728Q216
735 213 762Z" />
<glyph unicode="&#xd5;" glyph-name="Otilde" horiz-adv-x="731" d="M268 -9T193 36T77 161T35 340Q35 440 78 518T197 641T365 685Q460 685 535 642T653 520T696 340Q696 242 654 163T536 37T365 -9Q268 -9 193 36ZM448 40T495 76T568 174T593 314Q593 403 561
477T471 594T344 637Q285 637 238 603T165 508T138 367Q138 281 167 206T253 86T385 40Q448 40 495 76ZM406 748T391 752T354 766Q331 775 317 779T288 783Q252 783 217 751Q204 761 204 782Q253 847 315 847Q344 847 388 829Q407 821 420 817T446 813Q476 813
502 839Q520 836 528 825Q486 748 423 748Q406 748 391 752Z" />
<glyph unicode="&#xd6;" glyph-name="Odieresis" horiz-adv-x="731" d="M268 -9T193 36T77 161T35 340Q35 440 78 518T197 641T365 685Q460 685 535 642T653 520T696 340Q696 242 654 163T536 37T365 -9Q268 -9 193 36ZM448 40T495 76T568 174T593 314Q593 403
561 477T471 594T344 637Q285 637 238 603T165 508T138 367Q138 281 167 206T253 86T385 40Q448 40 495 76ZM244 732T228 746T212 783Q212 807 226 823T267 840Q296 840 310 825T324 785Q324 762 308 747T269 732Q244 732 228 746ZM437 732T422 747T406 789Q406
813 421 826T462 840Q487 840 503 826T519 789Q519 765 506 749T465 732Q437 732 422 747Z" />
<glyph unicode="&#xd7;" glyph-name="multiply" horiz-adv-x="550" d="M508 46Q500 35 486 29T455 22Q368 120 273 222Q208 150 96 22Q56 22 42 41L239 258Q175 326 43 465Q52 476 65 482T93 489L274 296L457 498Q490 490 504 472Q412 376 307 260L508 46Z" />
<glyph unicode="&#xd8;" glyph-name="Oslash" horiz-adv-x="731" d="M641 554T668 488T696 340Q696 242 654 163T536 37T365 -9Q250 -9 164 56L98 -29Q84 -29 72 -23T54 -7L129 87Q84 135 60 200T35 340Q35 440 78 518T197 641T365 685Q472 685 552 631L604 701Q639
701 655 685L591 600Q641 554 668 488ZM285 637T238 603T165 508T138 367Q138 310 151 257T190 159L501 568Q469 601 429 619T344 637Q285 637 238 603ZM448 40T495 76T568 174T593 314Q593 375 577 430T532 529L218 119Q284 40 385 40Q448 40 495 76Z" />
<glyph unicode="&#xd9;" glyph-name="Ugrave" horiz-adv-x="675" d="M570 179T558 130T513 48Q456 -9 351 -9Q217 -9 162 50T106 231V549Q106 585 102 602T85 626T47 636Q42 654 42 679Q82 676 158 676Q229 676 274 679Q274 654 269 636Q237 633 224 627T205 604T200
549V245Q200 151 238 98T370 44Q398 44 427 53T476 82Q500 106 509 144T519 261V509Q519 560 514 585T495 621T450 636Q445 661 445 679Q479 676 539 676Q595 676 634 679Q634 664 629 636Q605 633 593 622T575 585T570 509V269Q570 179 558 130ZM295 807T242 860Q268
873 309 873Q324 873 332 872Q366 787 393 737Q385 734 375 733T353 732Q295 807 242 860Z" />
<glyph unicode="&#xda;" glyph-name="Uacute" horiz-adv-x="675" d="M570 179T558 130T513 48Q456 -9 351 -9Q217 -9 162 50T106 231V549Q106 585 102 602T85 626T47 636Q42 654 42 679Q82 676 158 676Q229 676 274 679Q274 654 269 636Q237 633 224 627T205 604T200
549V245Q200 151 238 98T370 44Q398 44 427 53T476 82Q500 106 509 144T519 261V509Q519 560 514 585T495 621T450 636Q445 661 445 679Q479 676 539 676Q595 676 634 679Q634 664 629 636Q605 633 593 622T575 585T570 509V269Q570 179 558 130ZM355 732T345 733T327
737Q363 810 383 871Q411 878 431 878Q457 878 478 870Q422 803 367 732Q355 732 345 733Z" />
<glyph unicode="&#xdb;" glyph-name="Ucircumflex" horiz-adv-x="675" d="M570 179T558 130T513 48Q456 -9 351 -9Q217 -9 162 50T106 231V549Q106 585 102 602T85 626T47 636Q42 654 42 679Q82 676 158 676Q229 676 274 679Q274 654 269 636Q237 633 224 627T205
604T200 549V245Q200 151 238 98T370 44Q398 44 427 53T476 82Q500 106 509 144T519 261V509Q519 560 514 585T495 621T450 636Q445 661 445 679Q479 676 539 676Q595 676 634 679Q634 664 629 636Q605 633 593 622T575 585T570 509V269Q570 179 558 130ZM210 735T207
762Q242 785 280 815T347 874Q362 878 382 878Q436 816 512 754Q501 737 478 731L454 745Q395 782 356 800Q334 790 289 766T223 728Q210 735 207 762Z" />
<glyph unicode="&#xdc;" glyph-name="Udieresis" horiz-adv-x="675" d="M570 179T558 130T513 48Q456 -9 351 -9Q217 -9 162 50T106 231V549Q106 585 102 602T85 626T47 636Q42 654 42 679Q82 676 158 676Q229 676 274 679Q274 654 269 636Q237 633 224 627T205
604T200 549V245Q200 151 238 98T370 44Q398 44 427 53T476 82Q500 106 509 144T519 261V509Q519 560 514 585T495 621T450 636Q445 661 445 679Q479 676 539 676Q595 676 634 679Q634 664 629 636Q605 633 593 622T575 585T570 509V269Q570 179 558 130ZM238 732T222
746T206 783Q206 807 220 823T261 840Q290 840 304 825T318 785Q318 762 302 747T263 732Q238 732 222 746ZM431 732T416 747T400 789Q400 813 415 826T456 840Q481 840 497 826T513 789Q513 765 500 749T459 732Q431 732 416 747Z" />
<glyph unicode="&#xdd;" glyph-name="Yacute" horiz-adv-x="630" d="M559 676T605 678Q605 658 601 639Q573 631 549 606T500 531L365 260V163Q365 108 370 85T390 54T442 40Q448 22 448 -3L401 -2Q345 0 321 0Q241 0 185 -2Q185 22 191 40Q229 43 244 51T265
80T271 150V259L105 578Q89 610 74 623T31 637Q25 655 25 678Q81 676 129 676Q232 676 263 678Q263 657 258 639Q212 635 212 609Q212 592 230 557Q290 442 347 314Q402 435 455 542Q476 584 476 603Q476 618 465 625T428 637Q421 662 421 678Q445 676 519 676Q559
676 605 678ZM337 732T327 733T309 737Q345 810 365 871Q393 878 413 878Q439 878 460 870Q404 803 349 732Q337 732 327 733Z" />
<glyph unicode="&#xde;" glyph-name="Thorn" horiz-adv-x="587" d="M445 540T498 488T552 354Q552 304 526 258T449 181T325 151Q285 151 255 161Q253 169 253 175Q253 187 256 194Q277 189 311 189Q457 189 457 333Q457 411 415 456T286 502Q257 502 224 495V147Q224
104 233 82T260 51T313 40Q318 26 318 -3Q270 0 187 0Q112 0 56 -3Q56 26 61 40Q101 42 115 59T130 127V549Q130 599 116 616T61 636Q56 650 56 679Q111 676 177 676Q238 676 298 679Q298 650 293 636Q253 634 239 617T224 549V539L340 540Q445 540 498 488Z" />
<glyph unicode="&#xdf;" glyph-name="germandbls" horiz-adv-x="598" d="M105 397T80 400T36 404Q36 414 39 426T50 448H116V488Q116 561 148 612T230 689T330 715Q399 715 437 676T476 580Q476 534 458 507T407 450Q384 429 373 415T362 381Q362 350 382 331T444
289Q481 267 503 250T542 204T558 133Q558 97 538 65T483 13T410 -7Q365 -7 339 1T282 31Q284 48 284 89Q284 123 283 138Q290 142 304 145T330 149Q336 83 354 56T416 28Q443 28 462 52T481 113Q481 147 459 167T391 213Q356 232 334 247T297 286T282 345Q282
384 300 407T354 459Q385 482 400 501T416 550Q416 579 401 604T358 645T297 660Q249 660 228 630T206 519V-2Q172 0 130 0Q74 0 42 -3Q42 26 47 40Q87 42 101 59T116 127V392Q105 397 80 400Z" />
<glyph unicode="&#xe0;" glyph-name="agrave" horiz-adv-x="498" d="M396 115T400 100T418 77T458 68Q458 39 452 22Q427 20 397 12T343 -9Q331 -4 325 9T319 50Q319 67 320 76Q308 47 285 27Q246 -7 179 -7Q117 -7 84 21T50 99Q50 158 93 193T189 244T306 268Q306
329 302 352T285 392Q261 422 223 422Q178 422 158 385T135 306Q122 306 106 308T83 313Q84 323 84 347Q84 391 78 422Q118 443 164 455T248 467Q316 467 354 429Q378 405 387 366T396 256V146Q396 115 400 100ZM306 227Q258 221 226 213T171 182T147 119Q147 84
164 66T207 48Q231 48 253 63T291 110T306 189V227ZM165 639T105 704Q127 715 162 715Q181 715 201 712Q229 617 272 537Q264 533 252 533Q244 533 232 535Q165 639 105 704Z" />
<glyph unicode="&#xe1;" glyph-name="aacute" horiz-adv-x="498" d="M396 115T400 100T418 77T458 68Q458 39 452 22Q427 20 397 12T343 -9Q331 -4 325 9T319 50Q319 67 320 76Q308 47 285 27Q246 -7 179 -7Q117 -7 84 21T50 99Q50 158 93 193T189 244T306 268Q306
329 302 352T285 392Q261 422 223 422Q178 422 158 385T135 306Q122 306 106 308T83 313Q84 323 84 347Q84 391 78 422Q118 443 164 455T248 467Q316 467 354 429Q378 405 387 366T396 256V146Q396 115 400 100ZM306 227Q258 221 226 213T171 182T147 119Q147 84
164 66T207 48Q231 48 253 63T291 110T306 189V227ZM224 529T209 537Q254 629 274 709Q309 721 341 721Q363 721 377 714Q319 647 245 531Q224 529 209 537Z" />
<glyph unicode="&#xe2;" glyph-name="acircumflex" horiz-adv-x="498" d="M396 115T400 100T418 77T458 68Q458 39 452 22Q427 20 397 12T343 -9Q331 -4 325 9T319 50Q319 67 320 76Q308 47 285 27Q246 -7 179 -7Q117 -7 84 21T50 99Q50 158 93 193T189 244T306
268Q306 329 302 352T285 392Q261 422 223 422Q178 422 158 385T135 306Q122 306 106 308T83 313Q84 323 84 347Q84 391 78 422Q118 443 164 455T248 467Q316 467 354 429Q378 405 387 366T396 256V146Q396 115 400 100ZM306 227Q258 221 226 213T171 182T147 119Q147
84 164 66T207 48Q231 48 253 63T291 110T306 189V227ZM86 523T84 534T81 555Q120 584 162 625T238 705Q253 709 270 709Q335 621 416 541Q406 528 386 523L349 549Q282 598 246 618Q224 607 171 572T92 517Q86 523 84 534Z" />
<glyph unicode="&#xe3;" glyph-name="atilde" horiz-adv-x="498" d="M396 115T400 100T418 77T458 68Q458 39 452 22Q427 20 397 12T343 -9Q331 -4 325 9T319 50Q319 67 320 76Q308 47 285 27Q246 -7 179 -7Q117 -7 84 21T50 99Q50 158 93 193T189 244T306 268Q306
329 302 352T285 392Q261 422 223 422Q178 422 158 385T135 306Q122 306 106 308T83 313Q84 323 84 347Q84 391 78 422Q118 443 164 455T248 467Q316 467 354 429Q378 405 387 366T396 256V146Q396 115 400 100ZM306 227Q258 221 226 213T171 182T147 119Q147 84
164 66T207 48Q231 48 253 63T291 110T306 189V227ZM286 553T272 558T235 573Q214 584 197 590T162 596Q123 596 85 557Q73 566 73 587Q102 625 129 641T184 657Q198 657 211 653T237 643T253 636Q274 626 288 621T317 616Q349 616 376 647Q382 647 390 644T404
636Q357 553 300 553Q286 553 272 558Z" />
<glyph unicode="&#xe4;" glyph-name="adieresis" horiz-adv-x="498" d="M396 115T400 100T418 77T458 68Q458 39 452 22Q427 20 397 12T343 -9Q331 -4 325 9T319 50Q319 67 320 76Q308 47 285 27Q246 -7 179 -7Q117 -7 84 21T50 99Q50 158 93 193T189 244T306
268Q306 329 302 352T285 392Q261 422 223 422Q178 422 158 385T135 306Q122 306 106 308T83 313Q84 323 84 347Q84 391 78 422Q118 443 164 455T248 467Q316 467 354 429Q378 405 387 366T396 256V146Q396 115 400 100ZM306 227Q258 221 226 213T171 182T147 119Q147
84 164 66T207 48Q231 48 253 63T291 110T306 189V227ZM117 532T101 546T85 583Q85 607 99 623T140 640Q169 640 183 625T197 585Q197 562 181 547T142 532Q117 532 101 546ZM310 532T295 547T279 589Q279 613 294 626T335 640Q360 640 376 626T392 589Q392 565
379 549T338 532Q310 532 295 547Z" />
<glyph unicode="&#xe5;" glyph-name="aring" horiz-adv-x="498" d="M396 115T400 100T418 77T458 68Q458 39 452 22Q427 20 397 12T343 -9Q331 -4 325 9T319 50Q319 67 320 76Q308 47 285 27Q246 -7 179 -7Q117 -7 84 21T50 99Q50 158 93 193T189 244T306 268Q306
329 302 352T285 392Q261 422 223 422Q178 422 158 385T135 306Q122 306 106 308T83 313Q84 323 84 347Q84 391 78 422Q118 443 164 455T248 467Q316 467 354 429Q378 405 387 366T396 256V146Q396 115 400 100ZM306 227Q258 221 226 213T171 182T147 119Q147 84
164 66T207 48Q231 48 253 63T291 110T306 189V227ZM195 526T167 550T138 614Q138 654 168 681T242 708Q282 708 311 686T340 621Q340 581 310 554T235 526Q195 526 167 550ZM262 563T274 576T286 611Q286 635 273 654T235 674Q216 674 205 659T193 618Q193 594
207 579T245 563Q262 563 274 576Z" />
<glyph unicode="&#xe6;" glyph-name="ae" horiz-adv-x="701" d="M643 103T651 94T661 78Q599 -6 491 -6Q433 -6 392 23T327 102Q316 53 276 24T172 -6Q114 -6 82 21T50 100Q50 183 123 219T301 268V321Q301 369 277 395T217 422Q175 422 157 390T131 306Q118 306
102 308T79 313Q80 323 80 347Q80 391 74 422Q121 444 161 455T249 467Q323 467 362 404Q388 437 423 452T497 467Q547 467 582 440T637 371T659 283Q655 259 643 245Q501 242 394 232V230Q394 159 423 103T513 47Q591 47 636 108Q643 103 651 94ZM433 422T414
386T394 287V277Q458 285 562 288Q562 339 541 380T472 422Q433 422 414 386ZM251 47T276 89T301 218V223Q220 215 182 191T143 117Q143 79 163 63T209 47Q251 47 276 89Z" />
<glyph unicode="&#xe7;" glyph-name="ccedilla" horiz-adv-x="447" d="M364 1T273 -8L242 -50Q282 -57 305 -81T329 -141Q329 -172 309 -195T259 -230T201 -242Q194 -229 194 -210Q226 -210 249 -195T273 -155Q273 -131 255 -116T208 -101Q190 -87 190 -63L225
-8Q176 -2 134 26T66 106T40 227Q40 289 64 344T136 433T248 467Q342 467 399 422Q392 377 392 308Q377 300 346 300Q340 357 312 388T240 420Q190 420 162 374T133 242Q133 191 150 147T199 75T276 48Q308 48 336 63T387 106Q395 102 402 95T412 78Q364 1 273
-8Z" />
<glyph unicode="&#xe8;" glyph-name="egrave" horiz-adv-x="474" d="M414 100T421 91T430 74Q396 30 353 11T252 -9Q183 -9 136 22T64 108T40 229Q40 294 65 348T138 434T247 467Q338 467 382 411T434 260Q430 240 419 226Q243 226 139 221Q144 144 177 96T284
47Q318 47 350 62T406 105Q414 100 421 91ZM198 419T170 385T138 271H330Q330 338 306 378T238 419Q198 419 170 385ZM169 639T109 704Q131 715 166 715Q185 715 205 712Q233 617 276 537Q268 533 256 533Q248 533 236 535Q169 639 109 704Z" />
<glyph unicode="&#xe9;" glyph-name="eacute" horiz-adv-x="474" d="M414 100T421 91T430 74Q396 30 353 11T252 -9Q183 -9 136 22T64 108T40 229Q40 294 65 348T138 434T247 467Q338 467 382 411T434 260Q430 240 419 226Q243 226 139 221Q144 144 177 96T284
47Q318 47 350 62T406 105Q414 100 421 91ZM198 419T170 385T138 271H330Q330 338 306 378T238 419Q198 419 170 385ZM228 529T213 537Q258 629 278 709Q313 721 345 721Q367 721 381 714Q323 647 249 531Q228 529 213 537Z" />
<glyph unicode="&#xea;" glyph-name="ecircumflex" horiz-adv-x="474" d="M414 100T421 91T430 74Q396 30 353 11T252 -9Q183 -9 136 22T64 108T40 229Q40 294 65 348T138 434T247 467Q338 467 382 411T434 260Q430 240 419 226Q243 226 139 221Q144 144 177 96T284
47Q318 47 350 62T406 105Q414 100 421 91ZM198 419T170 385T138 271H330Q330 338 306 378T238 419Q198 419 170 385ZM90 523T88 534T85 555Q124 584 166 625T242 705Q257 709 274 709Q339 621 420 541Q410 528 390 523L353 549Q286 598 250 618Q228 607 175 572T96
517Q90 523 88 534Z" />
<glyph unicode="&#xeb;" glyph-name="edieresis" horiz-adv-x="474" d="M414 100T421 91T430 74Q396 30 353 11T252 -9Q183 -9 136 22T64 108T40 229Q40 294 65 348T138 434T247 467Q338 467 382 411T434 260Q430 240 419 226Q243 226 139 221Q144 144 177 96T284
47Q318 47 350 62T406 105Q414 100 421 91ZM198 419T170 385T138 271H330Q330 338 306 378T238 419Q198 419 170 385ZM121 532T105 546T89 583Q89 607 103 623T144 640Q173 640 187 625T201 585Q201 562 185 547T146 532Q121 532 105 546ZM314 532T299 547T283
589Q283 613 298 626T339 640Q364 640 380 626T396 589Q396 565 383 549T342 532Q314 532 299 547Z" />
<glyph unicode="&#xec;" glyph-name="igrave" horiz-adv-x="301" d="M37 24T42 40Q82 40 96 58T111 127V325Q111 351 106 366T85 388T36 396Q36 419 45 433Q70 433 116 444T179 467Q201 460 201 427V127Q201 77 214 59T260 40Q265 23 265 -3Q213 0 152 0Q87 0
37 -3Q37 24 42 40ZM331 639T271 704Q293 715 328 715Q347 715 367 712Q395 617 438 537Q430 533 418 533Q412 533 398 535Q331 639 271 704Z" />
<glyph unicode="&#xed;" glyph-name="iacute" horiz-adv-x="301" d="M37 24T42 40Q82 40 96 58T111 127V325Q111 351 106 366T85 388T36 396Q36 419 45 433Q70 433 116 444T179 467Q201 460 201 427V127Q201 77 214 59T260 40Q265 23 265 -3Q213 0 152 0Q87 0
37 -3Q37 24 42 40ZM134 529T119 537Q164 629 184 709Q219 721 251 721Q273 721 287 714Q229 647 155 531Q134 529 119 537Z" />
<glyph unicode="&#xee;" glyph-name="icircumflex" horiz-adv-x="301" d="M21 531T18 555Q73 616 135 705Q158 709 169 709Q208 644 280 539Q270 529 244 523Q185 589 141 625Q93 580 42 518Q21 531 18 555ZM37 24T42 40Q82 40 96 58T111 127V325Q111 351 106
366T85 388T36 396Q36 419 45 433Q70 433 116 444T179 467Q201 460 201 427V127Q201 77 214 59T260 40Q265 23 265 -3Q213 0 152 0Q87 0 37 -3Q37 24 42 40Z" />
<glyph unicode="&#xef;" glyph-name="idieresis" horiz-adv-x="301" d="M47 532T31 546T15 583Q15 607 29 623T70 640Q99 640 113 625T127 585Q127 562 111 547T72 532Q47 532 31 546ZM200 533T185 548T169 589Q169 613 184 626T225 640Q250 640 266 626T282 589Q282
565 269 549T228 533Q200 533 185 548ZM37 24T42 40Q82 40 96 58T111 127V325Q111 351 106 366T85 388T36 396Q36 419 45 433Q70 433 116 444T179 467Q201 460 201 427V127Q201 77 214 59T260 40Q265 23 265 -3Q213 0 152 0Q87 0 37 -3Q37 24 42 40Z" />
<glyph unicode="&#xf0;" glyph-name="eth" horiz-adv-x="524" d="M430 518T457 438T484 270Q484 138 426 65T258 -8Q157 -8 99 53T40 224Q40 298 68 353T147 437T266 467Q323 467 357 444Q336 500 302 544L268 527L191 487Q185 498 180 514T176 537L267 583Q208
639 125 671Q125 693 133 708Q184 708 235 717Q296 679 349 623L455 676Q470 646 469 626L381 584Q430 518 457 438ZM327 39T357 95T387 257Q387 324 375 381Q356 397 324 408T262 419Q201 419 169 369T136 233Q136 142 172 91T266 39Q327 39 357 95Z" />
<glyph unicode="&#xf1;" glyph-name="ntilde" horiz-adv-x="597" d="M561 25T561 -3Q518 0 452 0Q411 0 353 -2Q346 -3 333 -3Q333 26 338 40Q375 40 391 59T407 127V279Q407 345 383 373T314 401Q286 401 260 384T218 329T201 234V127Q201 77 216 59T270 40Q275
25 275 -3Q191 0 156 0Q80 0 37 -3Q37 26 42 40Q81 40 96 58T111 127V325Q111 351 106 365T84 387T36 396Q36 419 45 433Q76 435 116 445T179 467Q201 460 201 423Q201 391 194 364Q196 367 199 374T209 390Q229 418 267 440T354 462Q417 462 457 423T497 299V127Q497
77 511 59T556 40Q561 25 561 -3ZM347 553T333 558T296 573Q275 584 258 590T223 596Q184 596 146 557Q134 566 134 587Q163 625 190 641T245 657Q259 657 272 653T298 643T314 636Q335 626 349 621T378 616Q410 616 437 647Q443 647 451 644T465 636Q418 553 361
553Q347 553 333 558Z" />
<glyph unicode="&#xf2;" glyph-name="ograve" horiz-adv-x="532" d="M198 -9T147 20T68 104T40 229Q40 296 69 350T149 436T266 467Q371 467 431 402T492 229Q492 161 464 107T384 22T266 -9Q198 -9 147 20ZM332 39T362 87T392 217Q392 277 374 323T324 394T256
419Q200 419 171 373T141 250Q141 150 176 95T274 39Q332 39 362 87ZM189 639T129 704Q151 715 186 715Q205 715 225 712Q253 617 296 537Q288 533 276 533Q268 533 256 535Q189 639 129 704Z" />
<glyph unicode="&#xf3;" glyph-name="oacute" horiz-adv-x="532" d="M198 -9T147 20T68 104T40 229Q40 296 69 350T149 436T266 467Q371 467 431 402T492 229Q492 161 464 107T384 22T266 -9Q198 -9 147 20ZM332 39T362 87T392 217Q392 277 374 323T324 394T256
419Q200 419 171 373T141 250Q141 150 176 95T274 39Q332 39 362 87ZM248 529T233 537Q278 629 298 709Q333 721 365 721Q387 721 401 714Q343 647 269 531Q248 529 233 537Z" />
<glyph unicode="&#xf4;" glyph-name="ocircumflex" horiz-adv-x="532" d="M198 -9T147 20T68 104T40 229Q40 296 69 350T149 436T266 467Q371 467 431 402T492 229Q492 161 464 107T384 22T266 -9Q198 -9 147 20ZM332 39T362 87T392 217Q392 277 374 323T324 394T256
419Q200 419 171 373T141 250Q141 150 176 95T274 39Q332 39 362 87ZM110 523T108 534T105 555Q144 584 186 625T262 705Q277 709 294 709Q359 621 440 541Q430 528 410 523L373 549Q306 598 270 618Q248 607 195 572T116 517Q110 523 108 534Z" />
<glyph unicode="&#xf5;" glyph-name="otilde" horiz-adv-x="532" d="M198 -9T147 20T68 104T40 229Q40 296 69 350T149 436T266 467Q371 467 431 402T492 229Q492 161 464 107T384 22T266 -9Q198 -9 147 20ZM332 39T362 87T392 217Q392 277 374 323T324 394T256
419Q200 419 171 373T141 250Q141 150 176 95T274 39Q332 39 362 87ZM310 553T296 558T259 573Q238 584 221 590T186 596Q147 596 109 557Q97 566 97 587Q126 625 153 641T208 657Q222 657 235 653T261 643T277 636Q298 626 312 621T341 616Q373 616 400 647Q406
647 414 644T428 636Q381 553 324 553Q310 553 296 558Z" />
<glyph unicode="&#xf6;" glyph-name="odieresis" horiz-adv-x="532" d="M198 -9T147 20T68 104T40 229Q40 296 69 350T149 436T266 467Q371 467 431 402T492 229Q492 161 464 107T384 22T266 -9Q198 -9 147 20ZM332 39T362 87T392 217Q392 277 374 323T324 394T256
419Q200 419 171 373T141 250Q141 150 176 95T274 39Q332 39 362 87ZM141 532T125 546T109 583Q109 607 123 623T164 640Q193 640 207 625T221 585Q221 562 205 547T166 532Q141 532 125 546ZM334 532T319 547T303 589Q303 613 318 626T359 640Q384 640 400 626T416
589Q416 565 403 549T362 532Q334 532 319 547Z" />
<glyph unicode="&#xf7;" glyph-name="divide" horiz-adv-x="550" d="M252 369T239 383T225 424Q225 445 239 456T276 467Q297 467 311 456T326 424Q326 369 279 369Q252 369 239 383ZM49 249T52 265T59 288H501Q501 271 499 260T491 238L285 239Q223 239 85 237H49Q49
249 52 265ZM254 61T240 75T225 109Q225 131 237 144T274 158Q325 158 325 109Q325 88 311 75T276 61Q254 61 240 75Z" />
<glyph unicode="&#xf8;" glyph-name="oslash" horiz-adv-x="532" d="M439 393Q492 331 492 229Q492 161 464 107T384 22T266 -9Q181 -9 124 36L65 -32Q50 -32 37 -28T18 -16L92 67Q40 132 40 229Q40 296 69 350T149 436T266 467Q347 467 404 426L460 489Q492 489
512 474L439 393ZM200 419T171 373T141 250Q141 187 157 137L351 365Q312 419 256 419Q200 419 171 373ZM332 39T362 87T392 217Q392 277 373 324L176 95Q211 39 274 39Q332 39 362 87Z" />
<glyph unicode="&#xf9;" glyph-name="ugrave" horiz-adv-x="564" d="M462 98T473 83T524 68Q524 39 518 22Q492 20 459 12T404 -9Q391 -3 385 7T379 49Q379 71 382 91Q373 70 350 47Q323 20 294 8T225 -4Q154 -4 118 37T82 174V325Q82 352 78 366T60 387T16 396Q16
419 23 433Q54 435 90 445T150 467Q172 460 172 423V196Q172 126 191 92T255 57Q307 57 339 100T372 228V330Q372 356 367 370T345 392T297 401Q297 415 298 422T304 438Q342 440 379 448T440 467Q462 460 462 423V136Q462 98 473 83ZM189 639T129 704Q151 715
186 715Q205 715 225 712Q253 617 296 537Q288 533 276 533Q268 533 256 535Q189 639 129 704Z" />
<glyph unicode="&#xfa;" glyph-name="uacute" horiz-adv-x="564" d="M462 98T473 83T524 68Q524 39 518 22Q492 20 459 12T404 -9Q391 -3 385 7T379 49Q379 71 382 91Q373 70 350 47Q323 20 294 8T225 -4Q154 -4 118 37T82 174V325Q82 352 78 366T60 387T16 396Q16
419 23 433Q54 435 90 445T150 467Q172 460 172 423V196Q172 126 191 92T255 57Q307 57 339 100T372 228V330Q372 356 367 370T345 392T297 401Q297 415 298 422T304 438Q342 440 379 448T440 467Q462 460 462 423V136Q462 98 473 83ZM248 529T233 537Q278 629
298 709Q333 721 365 721Q387 721 401 714Q343 647 269 531Q248 529 233 537Z" />
<glyph unicode="&#xfb;" glyph-name="ucircumflex" horiz-adv-x="564" d="M462 98T473 83T524 68Q524 39 518 22Q492 20 459 12T404 -9Q391 -3 385 7T379 49Q379 71 382 91Q373 70 350 47Q323 20 294 8T225 -4Q154 -4 118 37T82 174V325Q82 352 78 366T60 387T16
396Q16 419 23 433Q54 435 90 445T150 467Q172 460 172 423V196Q172 126 191 92T255 57Q307 57 339 100T372 228V330Q372 356 367 370T345 392T297 401Q297 415 298 422T304 438Q342 440 379 448T440 467Q462 460 462 423V136Q462 98 473 83ZM110 523T108 534T105
555Q144 584 186 625T262 705Q277 709 294 709Q359 621 440 541Q430 528 410 523L373 549Q306 598 270 618Q248 607 195 572T116 517Q110 523 108 534Z" />
<glyph unicode="&#xfc;" glyph-name="udieresis" horiz-adv-x="564" d="M462 98T473 83T524 68Q524 39 518 22Q492 20 459 12T404 -9Q391 -3 385 7T379 49Q379 71 382 91Q373 70 350 47Q323 20 294 8T225 -4Q154 -4 118 37T82 174V325Q82 352 78 366T60 387T16
396Q16 419 23 433Q54 435 90 445T150 467Q172 460 172 423V196Q172 126 191 92T255 57Q307 57 339 100T372 228V330Q372 356 367 370T345 392T297 401Q297 415 298 422T304 438Q342 440 379 448T440 467Q462 460 462 423V136Q462 98 473 83ZM141 532T125 546T109
583Q109 607 123 623T164 640Q193 640 207 625T221 585Q221 562 205 547T166 532Q141 532 125 546ZM334 532T319 547T303 589Q303 613 318 626T359 640Q384 640 400 626T416 589Q416 565 403 549T362 532Q334 532 319 547Z" />
<glyph unicode="&#xfd;" glyph-name="yacute" horiz-adv-x="541" d="M496 458T526 460Q526 431 520 417Q493 410 479 391T439 313L292 -37Q254 -127 227 -172T176 -233T118 -249Q73 -249 43 -226Q40 -214 40 -195Q40 -173 44 -153Q78 -159 108 -159Q172 -159 209
-100Q226 -75 255 -7Q201 115 119 294Q95 344 80 369T52 403T21 417Q15 435 15 460Q91 458 128 458Q179 458 261 460Q261 434 254 417Q220 412 205 402T190 372Q190 351 211 307Q245 238 301 101L310 124L379 298Q396 341 396 364Q396 388 381 399T334 417Q327
437 327 460Q358 458 426 458Q496 458 526 460ZM279 529T264 537Q309 629 329 709Q364 721 396 721Q418 721 432 714Q374 647 300 531Q279 529 264 537Z" />
<glyph unicode="&#xfe;" glyph-name="thorn" horiz-adv-x="572" d="M242 -9T200 5V-95Q200 -138 209 -160T236 -191T289 -202Q294 -216 294 -245Q248 -242 168 -242Q75 -242 36 -245Q36 -216 41 -202Q81 -200 95 -183T110 -115V575Q110 601 105 616T84 638T35
646Q35 669 44 683Q69 683 115 694T178 717Q200 710 200 677V416Q200 397 196 373L208 393Q224 420 261 443T345 467Q435 467 483 414T532 254Q532 180 501 120T413 26T283 -9Q242 -9 200 5ZM271 404T236 357T200 213V72Q219 55 239 46T288 37Q321 37 354 54T410
114T433 232Q433 310 402 357T321 404Q271 404 236 357Z" />
<glyph unicode="&#xff;" glyph-name="ydieresis" horiz-adv-x="541" d="M496 458T526 460Q526 431 520 417Q493 410 479 391T439 313L292 -37Q254 -127 227 -172T176 -233T118 -249Q73 -249 43 -226Q40 -214 40 -195Q40 -173 44 -153Q78 -159 108 -159Q172 -159
209 -100Q226 -75 255 -7Q201 115 119 294Q95 344 80 369T52 403T21 417Q15 435 15 460Q91 458 128 458Q179 458 261 460Q261 434 254 417Q220 412 205 402T190 372Q190 351 211 307Q245 238 301 101L310 124L379 298Q396 341 396 364Q396 388 381 399T334 417Q327
437 327 460Q358 458 426 458Q496 458 526 460ZM172 532T156 546T140 583Q140 607 154 623T195 640Q224 640 238 625T252 585Q252 562 236 547T197 532Q172 532 156 546ZM365 532T350 547T334 589Q334 613 349 626T390 640Q415 640 431 626T447 589Q447 565 434
549T393 532Q365 532 350 547Z" />
<glyph unicode="&#x2013;" glyph-name="endash" horiz-adv-x="566" d="M506 252T495 235Q262 235 60 232Q60 246 63 262T71 288H506Q506 252 495 235Z" />
<glyph unicode="&#x2014;" glyph-name="emdash" horiz-adv-x="1024" d="M964 251T953 234Q267 234 60 231Q60 243 63 261T71 286H964Q964 251 953 234Z" />
<glyph unicode="&#x2018;" glyph-name="quoteleft" horiz-adv-x="242" d="M60 591T78 632T134 717Q145 717 156 714T174 704Q149 670 142 652T135 607Q135 563 182 557Q182 545 180 527T174 497Q126 487 94 467Q60 480 60 539Q60 591 78 632Z" />
<glyph unicode="&#x2019;" glyph-name="quoteright" horiz-adv-x="242" d="M182 591T164 550T108 465Q97 465 86 468T68 478Q93 512 100 530T107 575Q107 619 60 625Q60 637 62 655T68 685Q116 695 148 715Q182 702 182 643Q182 591 164 550Z" />
<glyph unicode="&#x201a;" glyph-name="quotesinglbase" horiz-adv-x="242" d="M182 -26T164 -67T108 -152Q97 -152 86 -149T68 -139Q93 -105 100 -87T107 -42Q107 2 60 8Q60 20 62 38T68 68Q116 78 148 98Q182 85 182 26Q182 -26 164 -67Z" />
<glyph unicode="&#x201c;" glyph-name="quotedblleft" horiz-adv-x="386" d="M60 586T79 631T133 715Q141 716 153 713T172 705Q156 683 145 655T133 607Q133 561 177 558Q178 544 176 525T169 496Q127 489 94 467Q60 489 60 543Q60 586 79 631ZM208 588T227 631T280
713Q289 714 300 711T319 703Q303 679 292 653T280 607Q280 561 326 558Q327 544 325 527T318 499Q272 491 242 470Q208 491 208 546Q208 588 227 631Z" />
<glyph unicode="&#x201d;" glyph-name="quotedblright" horiz-adv-x="386" d="M326 598T307 553T253 469Q245 468 233 471T214 479Q230 501 241 529T253 577Q253 623 209 626Q208 640 210 659T217 688Q259 695 292 717Q326 695 326 641Q326 598 307 553ZM178 596T159
553T106 471Q97 470 86 473T67 481Q83 505 94 531T106 577Q106 623 60 626Q59 640 61 657T68 685Q114 693 144 714Q178 693 178 638Q178 596 159 553Z" />
<glyph unicode="&#x201e;" glyph-name="quotedblbase" horiz-adv-x="386" d="M326 -20T307 -65T253 -149Q245 -150 233 -147T214 -139Q230 -117 241 -89T253 -41Q253 5 209 8Q208 22 210 41T217 70Q259 77 292 99Q326 77 326 23Q326 -20 307 -65ZM178 -22T159
-65T106 -147Q97 -148 86 -145T67 -137Q83 -113 94 -87T106 -41Q106 5 60 8Q59 22 61 39T68 67Q114 75 144 96Q178 75 178 20Q178 -22 159 -65Z" />
<glyph unicode="&#x2022;" glyph-name="bullet" horiz-adv-x="338" d="M117 151T89 182T60 260Q60 304 91 332T171 361Q221 361 249 331T278 259Q278 211 249 181T171 151Q117 151 89 182Z" />
<glyph unicode="&#x2039;" glyph-name="guilsinglleft" horiz-adv-x="356" d="M226 379T195 335T151 267Q168 235 194 193T244 117Q244 107 239 98T228 83Q123 190 60 240Q60 256 66 274Q134 330 214 418Q235 416 248 403Q226 379 195 335Z" />
<glyph unicode="&#x203a;" glyph-name="guilsinglright" horiz-adv-x="361" d="M175 184T216 249Q173 316 108 404Q125 418 145 418Q211 355 295 285Q301 273 301 253Q228 180 145 87Q129 97 122 116Q175 184 216 249Z" />
</font>
</defs>
</svg>
