<?xml version="1.0" standalone="no"?>
<!DOCTYPE svg PUBLIC "-//W3C//DTD SVG 1.1//EN" "http://www.w3.org/Graphics/SVG/1.1/DTD/svg11.dtd">
<svg xmlns="http://www.w3.org/2000/svg">
<defs >
<font id="Rambla" horiz-adv-x="489" ><font-face
    font-family="Rambla"
    units-per-em="1000"
    panose-1="2 0 8 6 2 0 0 9 0 4"
    ascent="929"
    descent="-295"
    alphabetic="0" />
<glyph unicode=" " glyph-name="space" horiz-adv-x="188" />
<glyph unicode="!" glyph-name="exclam" horiz-adv-x="246" d="M261 702L162 216H57L115 702H261ZM69 158T103 158T155 137T173 90Q173 49 142 21T76 -7T25 14T7 61Q7 105 38 131Z" />
<glyph unicode="&quot;" glyph-name="quotedbl" horiz-adv-x="386" d="M101 700H227L170 449H80L101 700ZM284 700H410L353 449H263L284 700Z" />
<glyph unicode="#" glyph-name="numbersign" horiz-adv-x="640" d="M352 277L384 372H279L247 277H352ZM582 172H428L366 -13H255L317 172H212L150 -13H39L101 172H19L35 277H136L168 372H56L73 476H203L268 668H378L314 476H419L484 668H594L530 476H630L613
372H495L463 277H598L582 172Z" />
<glyph unicode="$" glyph-name="dollar" horiz-adv-x="493" d="M41 152Q125 110 213 110T312 182Q313 188 313 194Q313 222 289 244T215 291T146 329T102 366T73 414T68 458Q68 559 136 619Q190 666 269 677L282 786H373L352 679Q415 674 497 643L440 534Q364
563 305 563Q222 563 210 497Q206 470 222 456T245 437T274 420T316 396T351 374T392 341T430 300Q454 260 454 213Q454 200 452 187Q440 109 385 57T244 -9L232 -111H141L160 -11Q52 -2 -15 33L41 152Z" />
<glyph unicode="%" glyph-name="uni0025" horiz-adv-x="810" d="M245 0H115L577 691H706L245 0ZM75 362Q53 389 53 444Q53 473 60 519T88 605T135 664Q184 700 236 700T316 686T359 628Q367 605 367 575T360 500T333 416T286 358Q236 323 172 323T75 362ZM273
571Q273 633 230 633Q202 633 183 607T156 527T147 449Q147 389 191 389Q219 389 237 414T264 493T273 571ZM665 6T640 -2T587 -10T539 -6T500 11T473 44Q460 79 460 112T467 189T495 272T542 332Q591 367 655 367T752 326Q774 300 774 244Q774 215 767 169T739
83T692 25ZM680 236Q680 300 636 300Q608 300 590 274T560 177Q556 139 556 115T560 78Q569 56 597 56T644 81T671 159T680 236Z" />
<glyph unicode="&amp;" glyph-name="ampersand" horiz-adv-x="675" d="M145 147T165 121T246 95T360 139L241 314Q204 297 178 264Q145 221 145 184ZM16 148Q16 305 194 390Q149 464 149 521Q149 532 151 542Q162 607 217 645T348 683T519 646L470 549Q400 582
343 582T277 530Q276 525 276 520Q276 486 311 436L449 230Q505 314 531 426H639Q605 259 506 151Q552 105 637 60L569 -33Q534 -17 488 11T415 65Q328 -13 222 -13T60 39Q16 79 16 148Z" />
<glyph unicode="&apos;" glyph-name="quotesingle" horiz-adv-x="203" d="M101 700H227L170 449H80L101 700Z" />
<glyph unicode="(" glyph-name="parenleft" horiz-adv-x="299" d="M346 692Q159 441 159 220Q159 80 225 -73L128 -133Q26 46 26 218Q26 480 269 752L346 692Z" />
<glyph unicode=")" glyph-name="parenright" horiz-adv-x="299" d="M-42 -73Q145 176 145 395Q145 535 79 692L176 752Q279 572 279 400Q279 140 35 -133L-42 -73Z" />
<glyph unicode="*" glyph-name="asterisk" horiz-adv-x="390" d="M295 527L387 489L323 407L259 473L253 368H158L185 476L99 407L63 491L167 526L76 562L136 649L201 579L208 686H302L276 580L362 648L399 562L295 527Z" />
<glyph unicode="+" glyph-name="plus" horiz-adv-x="481" d="M262 77H151L174 223H25L42 333H191L214 478H325L302 333H451L434 223H285L262 77Z" />
<glyph unicode="," glyph-name="comma" horiz-adv-x="214" d="M-86 -128Q24 -20 24 68Q24 90 17 116H132Q137 100 137 86T135 59Q117 -46 16 -128H-86Z" />
<glyph unicode="-" glyph-name="hyphen" horiz-adv-x="510" d="M465 332L448 223H41L58 332H465Z" />
<glyph unicode="." glyph-name="period" horiz-adv-x="237" d="M65 158T99 158T151 137T169 90Q169 49 138 21T72 -7T21 14T3 61Q3 105 34 131Z" />
<glyph unicode="/" glyph-name="slash" horiz-adv-x="434" d="M482 731L65 -118L-38 -89L382 762L482 731Z" />
<glyph unicode="0" glyph-name="zero" horiz-adv-x="545" d="M221 -13Q80 -13 48 94Q36 135 36 194T49 332Q80 525 149 603T336 681Q394 681 431 665T494 609Q521 565 521 494T510 335Q479 142 409 65T221 -13ZM367 562T316 562T235 513T189 359T173 213T178 152Q192
105 243 105T323 154T369 309T385 455T380 514Q367 562 316 562Z" />
<glyph unicode="1" glyph-name="one" horiz-adv-x="372" d="M263 1H124L208 536L77 483L49 582L260 668H368L263 1Z" />
<glyph unicode="2" glyph-name="two" horiz-adv-x="479" d="M335 528T318 547T249 567T122 537L106 637Q205 682 294 682T428 630Q462 590 462 531Q462 457 428 403T337 288T164 116H422L395 0H-20L-4 105Q101 202 234 335Q288 390 308 418Q335 455 335 491Z" />
<glyph unicode="3" glyph-name="three" horiz-adv-x="487" d="M318 503Q318 528 299 543T231 558T103 528L88 635Q193 680 285 680T422 632Q456 596 456 540Q456 523 452 494T423 427T356 365Q441 326 441 240Q441 225 439 209Q423 106 350 47T166 -13Q85 -13
-16 25L32 136Q117 104 174 104Q288 104 304 207Q306 218 306 227Q306 259 282 283T198 307H129L145 408H204Q304 408 317 489Q318 496 318 503Z" />
<glyph unicode="4" glyph-name="four" horiz-adv-x="566" d="M527 176H423L396 0H263L290 176H1L13 250L345 669H501L438 271H542L527 176ZM305 271L341 505L163 271H305Z" />
<glyph unicode="5" glyph-name="five" horiz-adv-x="483" d="M191 105Q234 105 265 133T307 226Q310 241 310 263T292 307T231 330T138 289L71 324L125 669H474L456 554H224L204 427Q241 450 290 450Q370 450 414 392Q446 349 446 282Q446 257 442 230Q425 125
356 56T184 -13T-10 48L49 147Q125 105 191 105Z" />
<glyph unicode="6" glyph-name="six" horiz-adv-x="497" d="M204 -12Q30 -12 30 187Q30 230 38 283Q69 474 160 577T374 680Q436 680 495 652L447 545Q413 558 364 558T275 523T209 413Q231 431 260 440T309 449Q393 449 433 396Q461 358 461 293Q461 150 374
58Q308 -12 204 -12ZM172 191Q172 104 225 104Q262 104 287 138T322 232Q325 249 325 270T312 312T262 333T182 311Q172 236 172 191Z" />
<glyph unicode="7" glyph-name="seven" horiz-adv-x="431" d="M467 597L318 338Q218 174 165 0H34Q80 166 183 340Q265 474 313 554H61L79 669H478L467 597Z" />
<glyph unicode="8" glyph-name="eight" horiz-adv-x="515" d="M449 105T385 47T212 -12T54 41Q16 82 16 146Q16 222 64 282Q101 328 156 358Q96 399 96 472Q96 487 99 504Q113 589 174 635T323 681T456 637Q492 603 492 548Q492 532 489 515Q472 413 371 359Q465
310 465 219Q465 205 463 190Q449 105 385 47ZM364 540T349 553T305 567T252 552Q222 534 222 490Q222 467 237 442T282 402Q314 419 337 450Q364 487 364 513ZM148 172Q148 144 168 124T229 104T298 130Q335 162 335 212Q335 242 313 263T244 305Q243 305 240
306T236 308L235 309Q162 267 150 190Q148 180 148 172Z" />
<glyph unicode="9" glyph-name="nine" horiz-adv-x="498" d="M308 679Q482 679 482 481Q482 438 473 384Q443 193 352 91T138 -12Q76 -12 17 16L65 123Q98 110 147 110T237 145T303 254Q281 236 252 227T203 218Q119 218 78 272Q50 310 50 375Q50 403 55 435Q72
539 138 609T308 679ZM340 476Q340 563 287 563Q250 563 225 530T189 435Q186 418 186 397T199 355T250 334T330 356Q340 431 340 476Z" />
<glyph unicode=":" glyph-name="colon" horiz-adv-x="263" d="M76 158T110 158T162 137T180 90Q180 49 149 21T83 -7T32 14T14 61Q14 105 45 131ZM125 455T159 455T211 434T229 387Q229 346 198 318T132 290T81 311T63 358Q63 402 94 428Z" />
<glyph unicode=";" glyph-name="semicolon" horiz-adv-x="253" d="M-65 -128Q45 -20 45 68Q45 90 38 116H153Q158 100 158 86T156 59Q138 -46 37 -128H-65ZM116 452T150 452T202 431T220 384Q220 342 189 315T124 287T72 309T54 357Q54 399 85 425Z" />
<glyph unicode="&lt;" glyph-name="less" horiz-adv-x="437" d="M21 236L35 324L419 502L400 380L176 281L368 180L349 60L21 236Z" />
<glyph unicode="=" glyph-name="equal" horiz-adv-x="486" d="M454 431L437 324H59L76 431H454ZM423 236L406 128H28L45 236H423Z" />
<glyph unicode="&gt;" glyph-name="greater" horiz-adv-x="438" d="M413 324L399 236L15 60L34 180L258 281L66 380L85 502L413 324Z" />
<glyph unicode="?" glyph-name="question" horiz-adv-x="369" d="M162 64Q162 23 130 -6Q103 -29 71 -29T21 -8T4 38Q4 78 36 106Q62 128 94 128T144 108T162 64ZM250 523Q250 595 101 608L140 700Q264 694 331 640Q381 598 381 540Q381 487 350 444Q331 417 316
405T273 370T229 334T194 293T168 238Q167 230 163 211T158 184H44Q46 210 51 251Q60 284 81 316T121 365T169 408Q192 426 204 436Q250 476 250 523Z" />
<glyph unicode="@" glyph-name="at" horiz-adv-x="799" d="M460 415Q415 415 379 375T333 273Q330 256 330 243Q330 192 372 192Q398 192 419 215T449 273L482 412Q475 415 460 415ZM456 -86T334 -86Q174 -86 90 4Q27 71 27 191Q27 232 34 280Q62 460 187 570T499
680Q665 680 737 594Q791 530 791 429Q791 396 785 358Q745 101 555 101Q526 101 500 117T467 159Q445 135 412 118T348 100Q280 100 245 144Q219 177 219 228Q219 246 222 266Q238 372 309 438T473 504Q533 504 608 469L557 261Q551 240 550 225T556 202T588 194Q652
194 677 359Q681 386 681 410Q681 479 646 523Q597 582 482 582Q346 582 258 502T146 282Q139 247 139 220T146 159T173 94T225 45Q286 12 367 12T576 54L587 -32Q456 -86 334 -86Z" />
<glyph unicode="A" glyph-name="A" horiz-adv-x="567" d="M526 0H384L362 158H169L98 0H-48L269 668H422L526 0ZM348 267L323 530L217 267H348Z" />
<glyph unicode="B" glyph-name="B" horiz-adv-x="547" d="M484 419Q465 389 424 366Q478 340 494 302Q505 278 505 252T502 204Q486 108 421 54T238 0H18L123 668H269Q346 668 389 662T464 632Q512 597 512 531T484 419ZM370 490Q372 502 372 512Q372 543 348
552Q324 562 271 562H250L225 409H292Q358 414 370 490ZM239 114Q350 114 363 208Q365 221 365 233Q365 268 341 286T257 304H209L179 114H239Z" />
<glyph unicode="C" glyph-name="C" horiz-adv-x="516" d="M436 5Q356 -13 288 -13T173 4T90 62Q38 118 38 237Q38 281 45 336Q60 431 97 500T184 608Q281 679 399 679Q474 679 547 657L507 554Q452 565 403 565Q322 565 267 515T192 339Q185 296 185 261Q185 193
212 158Q251 106 336 106Q396 106 445 114L436 5Z" />
<glyph unicode="D" glyph-name="D" horiz-adv-x="599" d="M232 129Q331 129 372 184Q409 234 424 334Q431 378 431 419T417 489Q393 538 297 538H247L182 129H232ZM206 0H18L123 667H311Q438 667 483 641Q575 589 575 438Q575 390 566 333Q549 225 505 143T387
27Q328 0 206 0Z" />
<glyph unicode="E" glyph-name="E" horiz-adv-x="535" d="M180 116H466L448 0H18L123 669H544L526 553H249L225 402H486L468 290H207L180 116Z" />
<glyph unicode="F" glyph-name="F" horiz-adv-x="512" d="M526 553H250L226 402H478L460 290H208L163 0H18L123 668H544L526 553Z" />
<glyph unicode="G" glyph-name="G" horiz-adv-x="578" d="M234 645T287 662T409 679T569 653L531 549Q467 565 394 565T266 515T191 339Q184 294 184 258Q184 106 309 106Q340 106 375 112L395 236H301L318 341H543L493 31Q377 -13 263 -13T84 70Q37 131 37 242Q37
285 48 358T96 500T183 607Z" />
<glyph unicode="H" glyph-name="H" horiz-adv-x="632" d="M443 404L485 668H628L523 0H380L425 288H206L161 0H18L123 668H266L224 404H443Z" />
<glyph unicode="I" glyph-name="I" horiz-adv-x="271" d="M267 668L162 0H18L123 668H267Z" />
<glyph unicode="J" glyph-name="J" horiz-adv-x="269" d="M-72 -186L-118 -91Q-37 -49 -6 -4T38 121L124 668H267L181 123Q164 14 107 -60T-72 -186Z" />
<glyph unicode="K" glyph-name="K" horiz-adv-x="632" d="M238 341L483 668H653L395 346L592 0H417L238 341ZM267 668L162 0H18L123 668H267Z" />
<glyph unicode="L" glyph-name="L" horiz-adv-x="471" d="M181 116H436L418 0H18L123 668H268L181 116Z" />
<glyph unicode="M" glyph-name="M" horiz-adv-x="771" d="M405 85H300L224 479L133 0H0L144 668H300L376 238L589 668H745L679 0H545L604 478L405 85Z" />
<glyph unicode="N" glyph-name="N" horiz-adv-x="681" d="M572 0H420L230 467L157 0H18L123 668H275L463 200L537 668H677L572 0Z" />
<glyph unicode="O" glyph-name="O" horiz-adv-x="616" d="M179 623T238 651T364 680T475 661T544 609Q594 541 594 448Q594 399 584 332T552 206T491 97T394 17T259 -12T134 17T64 95Q36 162 36 245Q36 289 45 334Q67 474 141 572Q179 623 238 651ZM454 439Q454
563 352 563Q220 563 184 334Q177 287 177 245T188 170Q207 110 280 110T391 169T446 334Q454 392 454 439Z" />
<glyph unicode="P" glyph-name="P" horiz-adv-x="539" d="M550 500Q550 482 547 462Q520 293 360 256Q309 244 225 244H200L162 0H18L123 668H316Q392 668 435 655T509 610Q550 567 550 500ZM408 485Q408 525 381 543T277 562H251L217 350H228Q328 350 358 371Q396
394 405 453Q408 470 408 485Z" />
<glyph unicode="Q" glyph-name="Q" horiz-adv-x="616" d="M88 48T67 96T42 186T37 259T45 334Q67 474 141 572Q179 623 238 651T364 680T475 661T544 609Q594 541 594 448Q594 399 585 334Q551 116 420 33Q531 20 620 -39L533 -137Q526 -127 497 -105T438 -68Q365
-28 259 -10Q187 -10 138 19ZM277 94Q408 94 446 334Q454 384 454 423Q454 563 352 563Q220 563 184 334Q175 280 175 238Q175 94 277 94Z" />
<glyph unicode="R" glyph-name="R" horiz-adv-x="580" d="M225 244H200L162 0H18L123 668H316Q392 668 435 655T509 610Q550 567 550 500Q550 482 547 462Q528 347 452 296Q426 277 394 266L528 33L409 -33L255 245Q246 244 225 244ZM408 481Q408 515 391 534Q367
562 277 562H251L217 350H228Q328 350 358 371Q408 402 408 481Z" />
<glyph unicode="S" glyph-name="S" horiz-adv-x="499" d="M197 -13Q147 -13 87 0T-11 33L45 152Q129 110 217 110T316 182Q317 188 317 194Q317 222 293 244T219 291T150 329T106 366T77 414T72 458Q72 571 157 632Q225 681 314 681T501 643L444 534Q368 563 309
563Q226 563 214 497Q210 470 226 456T249 437T278 420T320 396T355 374T396 341T434 300Q458 260 458 213Q458 200 456 187Q442 98 372 43T197 -13Z" />
<glyph unicode="T" glyph-name="T" horiz-adv-x="513" d="M225 553H51L69 668H564L546 553H369L282 0H138L225 553Z" />
<glyph unicode="U" glyph-name="U" horiz-adv-x="605" d="M45 175Q45 208 51 246L118 667H263L197 251Q191 211 191 182T199 138Q214 108 273 108T358 139Q382 166 395 251L461 667H606L539 246Q522 131 464 64Q393 -10 256 -11T69 64Q45 108 45 175Z" />
<glyph unicode="V" glyph-name="V" horiz-adv-x="552" d="M195 668L253 160Q293 247 368 425T472 668H614L299 0H158L53 668H195Z" />
<glyph unicode="W" glyph-name="W" horiz-adv-x="794" d="M395 612H500L569 164L685 668H818L646 0H496L429 494L207 0H57L95 668H227L183 163L395 612Z" />
<glyph unicode="X" glyph-name="X" horiz-adv-x="597" d="M545 0H384L287 231L117 0H-37L230 334L78 667H232L322 440L483 667H639L379 340L545 0Z" />
<glyph unicode="Y" glyph-name="Y" horiz-adv-x="546" d="M195 668L286 383L467 668H613L339 264L298 0H154L195 264L49 668H195Z" />
<glyph unicode="Z" glyph-name="Z" horiz-adv-x="522" d="M165 117H467L449 0H-4L-2 88L355 552H88L91 668H524L519 575L165 117Z" />
<glyph unicode="[" glyph-name="bracketleft" horiz-adv-x="343" d="M-10 -131L129 748H390L374 648L243 640L138 -24L267 -30L251 -131H-10Z" />
<glyph unicode="\" glyph-name="backslash" horiz-adv-x="425" d="M236 -118L87 731L197 762L347 -89L236 -118Z" />
<glyph unicode="]" glyph-name="bracketright" horiz-adv-x="342" d="M358 748L219 -131H-41L-25 -30L105 -24L210 640L81 648L97 748H358Z" />
<glyph unicode="^" glyph-name="asciicircum" horiz-adv-x="499" d="M305 643H393L516 295H394L327 495L194 295H74L305 643Z" />
<glyph unicode="_" glyph-name="underscore" horiz-adv-x="531" d="M454 109L437 0H5L22 109H454Z" />
<glyph unicode="`" glyph-name="grave" horiz-adv-x="343" d="M354 587L163 663L229 774L401 665L354 587Z" />
<glyph unicode="a" glyph-name="a" horiz-adv-x="507" d="M471 17Q415 -11 355 -11T273 35Q208 -13 119 -13Q51 -13 18 26Q-8 56 -8 102Q-8 157 14 192T57 242T106 268Q150 284 205 284T296 281L304 330Q306 346 306 366T291 399T225 412T107 391L92 479Q133 501
188 512T281 524Q383 524 420 480Q445 450 445 390Q445 364 440 332L407 122Q406 117 406 113Q406 94 427 94Q441 94 465 100L471 17ZM257 213T236 213Q125 213 125 131Q125 80 182 80Q225 80 268 106L285 211Q257 213 236 213Z" />
<glyph unicode="b" glyph-name="b" horiz-adv-x="539" d="M222 480Q281 522 359 522T481 460Q511 415 511 345Q511 315 506 281Q460 -13 215 -13Q160 -13 99 -3T9 22L117 701H257L222 480ZM189 100T213 100Q282 100 316 142T362 260Q368 297 368 328Q368 408 297
408Q254 408 206 381L162 105Q189 100 213 100Z" />
<glyph unicode="c" glyph-name="c" horiz-adv-x="435" d="M221 -13Q118 -13 61 54Q19 102 19 187Q19 218 25 254Q46 389 123 455T306 522Q368 522 444 499L401 398Q342 412 305 412Q246 412 209 377T158 253Q153 222 153 186T172 126Q201 91 263 91Q296 91 362
101L365 10Q283 -13 221 -13Z" />
<glyph unicode="d" glyph-name="d" horiz-adv-x="531" d="M286 522Q341 522 372 504L405 710H546L432 -7H316L314 31Q252 -9 175 -9Q81 -9 44 59Q19 104 19 171Q19 205 25 244Q69 522 286 522ZM283 412Q185 412 160 247Q155 215 155 190Q155 96 226 96Q272 96
312 119L357 398Q326 412 283 412Z" />
<glyph unicode="e" glyph-name="e" horiz-adv-x="476" d="M427 474Q458 438 458 379T426 242H155Q151 219 151 199Q151 153 172 128Q201 92 262 92T388 115L397 20Q314 -13 220 -13Q21 -13 21 184Q21 350 116 448Q186 522 297 522Q386 522 427 474ZM339 318Q343
340 343 356Q343 423 285 423Q203 423 168 318H339Z" />
<glyph unicode="f" glyph-name="f" horiz-adv-x="406" d="M495 613Q454 623 396 623T316 601T285 527L283 512H436L411 416H267L172 -186L34 -172L127 416L34 422L47 504L143 511L148 540Q164 643 227 690T409 737Q470 737 539 713L495 613Z" />
<glyph unicode="g" glyph-name="g" horiz-adv-x="487" d="M232 -23H131Q78 -40 70 -84Q69 -88 69 -92Q69 -140 169 -140Q290 -140 301 -67Q302 -63 302 -53T289 -33T232 -23ZM249 419Q179 419 166 329Q164 314 164 296T174 262T221 245T276 265T300 315T306 365Q306
419 249 419ZM263 525L350 520Q427 520 517 535V458Q497 453 410 441Q431 405 431 362Q431 346 428 330Q415 245 357 191T205 136Q172 136 153 141Q144 122 142 108Q136 77 194 77H280Q357 77 390 46T424 -28Q424 -40 422 -53Q408 -142 332 -193T148 -244T-5 -211T-51
-126Q-51 -74 -16 -35T71 26Q47 43 47 74Q47 118 91 166Q37 209 37 286Q37 307 41 330Q54 417 111 471T263 525Z" />
<glyph unicode="h" glyph-name="h" horiz-adv-x="543" d="M378 522Q438 522 470 499T506 438Q508 423 508 402T504 351L449 0H303L354 326Q358 356 358 371T346 397T305 408Q249 408 204 371L146 0H6L116 697L257 706L219 467Q299 522 378 522Z" />
<glyph unicode="i" glyph-name="i" horiz-adv-x="244" d="M228 524L146 0H6L87 512L228 524ZM161 759T195 759T247 738T265 691Q265 649 234 622T169 594T117 616T99 664Q99 706 130 732Z" />
<glyph unicode="j" glyph-name="j" horiz-adv-x="243" d="M227 522L153 51Q113 -194 -145 -207L-139 -99Q-66 -87 -32 -52T15 60L86 508L227 522ZM160 762T195 762T248 740T267 692Q267 649 235 621T168 593T115 615T97 665Q97 708 128 735Z" />
<glyph unicode="k" glyph-name="k" horiz-adv-x="549" d="M397 512H549L327 281L507 0H347L187 261L146 0H6L116 699L258 709L192 293L397 512Z" />
<glyph unicode="l" glyph-name="l" horiz-adv-x="304" d="M268 9Q214 -13 166 -13T88 -2T46 23Q26 43 26 98Q26 115 33 161L118 700H259L173 153Q171 140 171 130T176 110T207 100T262 107L268 9Z" />
<glyph unicode="m" glyph-name="m" horiz-adv-x="834" d="M235 482T283 502T383 522T459 505T496 453Q528 481 577 501T680 522T763 499T797 438Q798 425 798 405T794 351L739 0H599L650 326Q654 356 654 371T642 397T601 408Q545 408 500 371Q500 364 498 350L443
0H303L354 326Q358 356 358 371T346 397T305 408Q249 408 204 371L146 0H6L87 513H202L205 456Q235 482 283 502Z" />
<glyph unicode="n" glyph-name="n" horiz-adv-x="544" d="M381 522Q468 522 492 478Q509 448 509 414T504 351L449 0H309L360 326Q363 348 363 366T350 396T308 408Q252 408 207 371L149 0H6L87 513H205L208 456Q242 483 289 502T381 522Z" />
<glyph unicode="o" glyph-name="o" horiz-adv-x="509" d="M449 116T377 52T203 -13T53 50Q19 94 19 175Q19 211 26 254Q48 393 119 457T291 522Q478 522 478 333Q478 297 471 255Q449 116 377 52ZM342 329Q342 414 274 414Q231 414 204 381T161 254Q155 214 155
185Q155 94 222 94Q264 94 292 129T335 254Q342 298 342 329Z" />
<glyph unicode="p" glyph-name="p" horiz-adv-x="536" d="M351 522Q444 522 482 453Q506 407 506 340Q506 306 500 266Q455 -13 226 -13Q189 -13 146 5L114 -197L-28 -213L87 513H207L212 472Q283 522 351 522ZM221 100Q336 100 361 262Q365 290 365 313Q365 408
289 408Q251 408 206 383L162 107Q190 100 221 100Z" />
<glyph unicode="q" glyph-name="q" horiz-adv-x="539" d="M305 19Q247 -13 168 -13T46 50Q16 93 16 162Q16 192 22 228Q68 522 323 522Q377 522 433 511T518 484L406 -222L268 -213L305 19ZM160 183Q160 100 230 100Q271 100 321 120L365 401Q341 409 309 409Q243
409 211 368T166 249Q160 210 160 183Z" />
<glyph unicode="r" glyph-name="r" horiz-adv-x="375" d="M325 410Q244 410 203 363L146 0H6L87 513H203V448Q275 524 363 524Q388 524 409 519L367 404Q346 410 325 410Z" />
<glyph unicode="s" glyph-name="s" horiz-adv-x="418" d="M256 414Q187 414 181 369Q180 365 180 361Q180 326 248 298Q279 286 309 271T355 230T371 186Q371 91 298 34Q240 -13 141 -13Q96 -13 49 -3T-20 20L30 120Q102 94 165 94T236 143Q237 146 237 150Q237
180 169 212Q139 227 109 244T64 288T48 334Q48 431 119 482Q176 523 271 523T415 492L367 393Q300 414 256 414Z" />
<glyph unicode="t" glyph-name="t" horiz-adv-x="400" d="M223 152Q221 140 221 129T226 108T261 98T327 107L333 8Q281 -13 224 -13T137 -2T94 24Q75 44 75 100Q75 119 83 165L122 416L33 422L46 504L141 512L159 629L301 641L281 513H427L403 416H264L223 152Z" />
<glyph unicode="u" glyph-name="u" horiz-adv-x="540" d="M323 47Q236 -13 150 -13T38 32Q23 60 23 94T28 158L84 513H224L171 183Q168 155 168 140T181 113T223 101Q278 101 323 132L384 513H524L440 -13H325L323 47Z" />
<glyph unicode="v" glyph-name="v" horiz-adv-x="509" d="M223 112L394 513H535L294 0H118L42 513H183L223 112Z" />
<glyph unicode="w" glyph-name="w" horiz-adv-x="688" d="M312 504L443 513L453 115L571 513H708L512 0H362L359 373L237 0H81L56 513H193L181 112L312 504Z" />
<glyph unicode="x" glyph-name="x" horiz-adv-x="524" d="M540 513L341 264L472 0H324L247 191L109 0H-41L179 266L58 513H208L274 341L394 513H540Z" />
<glyph unicode="y" glyph-name="y" horiz-adv-x="500" d="M165 -161T119 -187T17 -213T-96 -195L-61 -98Q-61 -99 -32 -103T6 -108Q62 -108 89 -88T148 13L38 500L173 517L232 163L390 513H525L288 42Q236 -61 201 -111Z" />
<glyph unicode="z" glyph-name="z" horiz-adv-x="447" d="M428 512V434L149 95H389L386 0H-10L-11 75L268 416H63L69 512H428Z" />
<glyph unicode="{" glyph-name="braceleft" horiz-adv-x="367" d="M191 225Q191 202 187 174L169 45Q166 25 166 11Q166 -35 196 -35H291L276 -130H187Q114 -130 78 -84Q49 -48 49 10Q49 26 50 37Q77 224 75 238T69 256T56 260H13L29 364H72Q88 364 93 375T100
392T104 411T109 434T121 498T137 581Q153 662 203 708T327 754H416L401 659H306Q266 659 253 579L231 450Q212 349 164 312Q191 284 191 225Z" />
<glyph unicode="|" glyph-name="bar" horiz-adv-x="233" d="M6 -43L122 694H238L122 -43H6Z" />
<glyph unicode="}" glyph-name="braceright" horiz-adv-x="366" d="M182 399Q182 422 186 450L204 579Q207 599 207 613Q207 659 177 659H82L97 754H186Q259 754 296 708Q324 672 324 614Q324 598 323 587Q296 400 298 386T304 368T317 364H360L344 260H301Q286
260 280 249T273 232T269 213T264 190T252 126T236 43Q220 -38 170 -84T46 -130H-43L-28 -35H67Q107 -35 120 45L142 174Q161 275 209 312Q182 340 182 399Z" />
<glyph unicode="~" glyph-name="asciitilde" horiz-adv-x="564" d="M399 308Q440 308 480 354L534 299Q459 196 374 196Q326 196 263 229T162 262T84 216L29 271Q105 375 183 375Q235 375 305 339Q371 308 399 308Z" />
<glyph unicode="&#xa0;" glyph-name="uni00A0" horiz-adv-x="188" />
<glyph unicode="&#xa1;" glyph-name="exclamdown" horiz-adv-x="238" d="M-28 -178L71 308H176L118 -178H-28ZM164 366T130 366T78 387T60 434Q60 475 91 503T157 531T208 510T226 463Q226 419 195 393Z" />
<glyph unicode="&#xa2;" glyph-name="cent" horiz-adv-x="440" d="M315 496Q256 496 219 461T168 337Q163 306 163 270T182 210Q211 175 273 175Q305 175 373 185L375 94Q322 78 272 72L261 -36H171L194 73Q107 85 62 151Q29 198 29 271Q29 302 35 338Q54 460
120 526T278 603L290 719H380L355 604Q391 601 454 583L411 482Q352 496 315 496Z" />
<glyph unicode="&#xa3;" glyph-name="sterling" horiz-adv-x="491" d="M249 304Q249 199 192 115H433L415 0H16L31 100Q66 115 92 160Q128 221 128 282Q128 294 126 304H38L53 404H109Q107 419 107 440T111 491Q126 583 187 633T334 683T504 641L450 541Q378 573
333 573Q247 573 234 496Q230 474 230 451T234 404H366L357 304H249Z" />
<glyph unicode="&#xa4;" glyph-name="currency" horiz-adv-x="534" d="M400 115L459 21L381 -32L324 64Q288 47 235 47T141 68Q134 60 119 45T78 1T47 -32L-13 21L82 122Q56 166 56 216Q56 311 128 384L67 479L145 532L205 436Q249 454 296 454T376 438Q419 486
465 532L524 479L440 388Q475 341 475 284Q475 187 400 115ZM151 229Q151 194 175 165T247 136T333 169Q380 211 380 272Q380 307 356 336T284 366T198 332Q151 290 151 229Z" />
<glyph unicode="&#xa5;" glyph-name="yen" horiz-adv-x="608" d="M76 247L89 331H202L80 668H226L317 383L498 668H644L416 331H529L516 247H368L359 194H507L494 109H346L329 0H185L202 109H54L67 194H215L224 247H76Z" />
<glyph unicode="&#xa6;" glyph-name="brokenbar" horiz-adv-x="235" d="M78 407L123 694H239L194 407H78ZM7 -43L52 242H168L123 -43H7Z" />
<glyph unicode="&#xa7;" glyph-name="section" horiz-adv-x="381" d="M21 253Q21 365 124 427Q124 431 122 435Q120 456 120 472T122 500Q142 623 274 669Q291 675 340 686L347 587L299 571Q233 548 233 502Q233 464 286 367L287 364Q326 291 334 263T342 216T340
185Q323 93 237 43Q244 28 244 7Q244 -60 211 -109Q174 -167 88 -199Q60 -209 23 -214L15 -117L64 -102Q129 -80 129 -31Q129 -19 125 -8T115 19T104 46Q76 103 63 130Q36 183 29 207T21 253ZM201 128Q226 151 226 180Q226 192 221 216T161 340Q136 320 136 280Q136
272 142 248T189 149L201 128Z" />
<glyph unicode="&#xa8;" glyph-name="dieresis" horiz-adv-x="358" d="M172 735T201 735T246 718T261 687T260 667Q256 637 233 617T180 596T136 614T121 646Q121 690 146 712ZM357 735T386 735T430 717T445 678Q445 641 419 619T364 596T320 614T305 646Q305
690 331 712Z" />
<glyph unicode="&#xa9;" glyph-name="copyright" horiz-adv-x="714" d="M471 414Q437 438 393 438T313 404T266 298Q262 274 262 245T278 192Q303 157 347 157T442 184L456 135Q397 98 331 98T222 148Q192 185 192 247Q192 271 196 298Q211 397 269 447T393 498T503
466L471 414ZM443 -18T309 -18T96 75Q35 148 35 247Q35 274 39 302Q61 436 168 529T410 622T622 529Q684 456 684 359Q684 331 679 302Q658 168 551 75ZM608 352Q608 429 564 484Q505 555 399 555T212 483T113 300Q109 275 109 252Q109 174 154 118Q213 45 319
45T506 118T604 302Q608 328 608 352Z" />
<glyph unicode="&#xaa;" glyph-name="ordfeminine" horiz-adv-x="338" d="M329 421Q296 404 263 404T217 428Q180 403 138 403T79 423T62 469Q62 477 63 486Q72 534 106 552T176 571T230 569L234 595Q235 602 235 613Q235 637 193 637Q169 637 126 624L117 677Q164
703 222 703T301 678Q315 662 315 638T312 596L293 479Q292 467 303 467T326 471L329 421ZM198 528Q140 528 140 485Q140 459 168 459Q191 459 214 472L223 527H213L198 528Z" />
<glyph unicode="&#xab;" glyph-name="guillemotleft" horiz-adv-x="556" d="M543 421L381 276L498 134L404 61L258 247L267 306L472 491L543 421ZM312 421L149 276L267 134L173 61L27 247L36 306L241 491L312 421Z" />
<glyph unicode="&#xac;" glyph-name="logicalnot" horiz-adv-x="563" d="M494 225H384L401 333H54L72 442H529L494 225Z" />
<glyph unicode="&#xad;" glyph-name="uni00AD" horiz-adv-x="510" />
<glyph unicode="&#xae;" glyph-name="registered" horiz-adv-x="714" d="M443 -18T309 -18T96 75Q35 148 35 247Q35 274 39 302Q61 436 168 529T410 622T622 529Q684 456 684 359Q684 331 679 302Q658 168 551 75ZM608 352Q608 429 564 484Q505 555 399 555T212
483T113 300Q109 275 109 252Q109 174 154 118Q213 45 319 45T506 118T604 302Q608 328 608 352ZM363 497Q498 497 498 404Q498 393 496 381Q486 319 444 289Q427 276 408 270Q410 264 441 212T490 136L443 105Q392 172 349 260Q323 258 309 258H288L265 111H206L267
497H363ZM435 396Q435 424 416 438T348 452H319L296 305H316Q379 305 400 321Q427 338 434 379Q435 388 435 396Z" />
<glyph unicode="&#xaf;" glyph-name="overscore" horiz-adv-x="532" d="M589 650L572 541H130L147 650H589Z" />
<glyph unicode="&#xb0;" glyph-name="degree" horiz-adv-x="307" d="M233 443T175 443T92 478Q73 505 73 540Q73 605 114 644T214 683T298 649Q318 623 318 588Q318 525 276 484ZM249 577Q249 618 203 618Q177 618 162 602T144 562Q143 556 143 546T151 521T186
507Q238 507 248 564Q249 571 249 577Z" />
<glyph unicode="&#xb1;" glyph-name="plusminus" horiz-adv-x="508" d="M293 187H182L205 333H56L74 443H223L246 588H357L334 443H483L465 333H316L293 187ZM429 110L412 1H5L22 110H429Z" />
<glyph unicode="&#xb2;" glyph-name="twosuperior" horiz-adv-x="374" d="M254 550Q255 555 255 564T246 584T217 595T127 571L113 648Q187 680 243 680T325 650T352 579Q352 568 350 556Q342 507 275 431Q262 416 236 392T200 359T184 344H329L315 256H38L50
331Q138 405 196 467Q250 522 254 550Z" />
<glyph unicode="&#xb3;" glyph-name="threesuperior" horiz-adv-x="363" d="M333 589Q333 529 284 488Q320 464 320 417Q320 404 317 390Q307 327 262 288T155 249T33 291L79 365Q126 334 157 334Q214 334 223 388Q224 395 224 401Q224 444 174 444H125L136 514H184Q226
514 235 562Q235 565 235 568Q235 596 196 596T117 577L102 648Q171 680 226 680T307 654T333 589Z" />
<glyph unicode="&#xb4;" glyph-name="acute" horiz-adv-x="342" d="M393 663L176 587L155 665L361 774L393 663Z" />
<glyph unicode="&#xb5;" glyph-name="mu" horiz-adv-x="604" d="M203 -3Q175 -3 156 6L124 -201H-16L97 513H237L184 183Q181 155 181 140T194 113T236 101Q291 101 336 132L397 513H537L475 122Q474 117 474 113Q474 94 495 94Q509 94 533 100L539 17Q483 -11
426 -11Q350 -11 337 53Q273 -3 203 -3Z" />
<glyph unicode="&#xb6;" glyph-name="paragraph" horiz-adv-x="508" d="M55 484Q55 566 121 622Q175 668 241 668H539L529 604H457L336 -162H262L383 604H309L188 -162H110L191 351Q125 351 86 398Q55 435 55 484Z" />
<glyph unicode="&#xb7;" glyph-name="middot" horiz-adv-x="245" d="M97 345T131 345T183 324T201 277Q201 236 170 208T104 180T53 201T35 248Q35 292 66 318Z" />
<glyph unicode="&#xb8;" glyph-name="cedilla" horiz-adv-x="276" d="M204 -57Q212 -83 212 -102T210 -133Q195 -231 57 -295L16 -230Q82 -186 88 -139Q89 -130 89 -112T80 -57H204Z" />
<glyph unicode="&#xb9;" glyph-name="onesuperior" horiz-adv-x="316" d="M222 251H119L168 559L76 523L58 604L211 666H288L222 251Z" />
<glyph unicode="&#xba;" glyph-name="ordmasculine" horiz-adv-x="323" d="M175 402Q72 402 72 507Q72 528 76 552Q89 630 129 666T226 703Q331 703 331 597Q331 577 327 553Q315 475 274 439T175 402ZM252 594Q252 639 216 639Q193 639 178 621T158 568T152 516Q152
465 187 465Q234 465 248 552Q252 577 252 594Z" />
<glyph unicode="&#xbb;" glyph-name="guillemotright" horiz-adv-x="558" d="M173 278L56 423L150 493L296 308L287 249L81 63L11 136L173 278ZM405 278L287 423L381 493L527 308L518 249L312 63L242 136L405 278Z" />
<glyph unicode="&#xbc;" glyph-name="onequarter" horiz-adv-x="874" d="M818 109H755L738 0H643L660 109H496L504 164L683 408H802L766 181H829L818 109ZM671 181L691 305L605 181H671ZM236 272H133L181 580L90 544L71 625L224 687H301L236 272ZM695 765L278
-84L175 -55L595 796L695 765Z" />
<glyph unicode="&#xbd;" glyph-name="onehalf" horiz-adv-x="840" d="M236 272H133L181 580L90 544L71 625L224 687H301L236 272ZM703 334T670 334T575 313L561 390Q635 422 691 422T773 392T800 321Q800 310 798 298Q790 249 723 173Q703 150 680 130T648 101T632
86H777L763 -2H486L498 73Q511 84 553 122T645 209Q703 270 703 302ZM679 765L262 -84L159 -55L579 796L679 765Z" />
<glyph unicode="&#xbe;" glyph-name="threequarters" horiz-adv-x="873" d="M327 605Q327 545 277 504Q313 480 313 430Q313 353 256 304Q210 265 149 265T26 307L73 381Q120 350 159 350Q181 350 196 364Q217 384 217 408Q217 460 163 460H118L129 530H173Q221
530 228 578Q231 596 220 604T181 612T110 593L96 664Q165 696 220 696T301 670T327 605ZM823 109H760L743 0H648L665 109H501L509 164L688 408H807L771 181H834L823 109ZM676 181L696 305L610 181H676ZM700 752L283 -97L180 -68L600 783L700 752Z" />
<glyph unicode="&#xbf;" glyph-name="questiondown" horiz-adv-x="363" d="M293 371T261 371T211 391T193 435Q193 476 222 502T284 528T334 507T351 461Q351 421 322 396ZM185 258L196 312H310Q307 271 302 245Q293 212 272 180T232 131T184 88Q117 35 107 -2Q103
-15 103 -27Q103 -99 253 -112L213 -204Q89 -198 22 -144Q-27 -103 -27 -44Q-27 8 4 52Q22 78 37 92T81 127T125 162T160 203T185 258Z" />
<glyph unicode="&#xc0;" glyph-name="Agrave" horiz-adv-x="567" d="M427 732L236 808L302 919L474 810L427 732ZM526 0H384L362 158H169L98 0H-48L269 668H422L526 0ZM348 267L323 530L217 267H348Z" />
<glyph unicode="&#xc1;" glyph-name="Aacute" horiz-adv-x="567" d="M526 0H384L362 158H169L98 0H-48L269 668H422L526 0ZM348 267L323 530L217 267H348ZM540 811L323 735L302 813L508 922L540 811Z" />
<glyph unicode="&#xc2;" glyph-name="Acircumflex" horiz-adv-x="567" d="M526 0H384L362 158H169L98 0H-48L269 668H422L526 0ZM348 267L323 530L217 267H348ZM367 796L269 711L213 763L343 882H417L509 763L437 711L367 796Z" />
<glyph unicode="&#xc3;" glyph-name="Atilde" horiz-adv-x="567" d="M526 0H384L362 158H169L98 0H-48L269 668H422L526 0ZM348 267L323 530L217 267H348ZM336 871T378 850T442 828T500 863L540 809Q517 779 483 757T422 734T354 755T291 777T233 742L193 796Q216
826 249 848T309 871Z" />
<glyph unicode="&#xc4;" glyph-name="Adieresis" horiz-adv-x="567" d="M526 0H384L362 158H169L98 0H-48L269 668H422L526 0ZM348 267L323 530L217 267H348ZM253 854T282 854T327 837T342 806T341 786Q337 756 314 736T261 715T217 733T202 765Q202 809 227 831ZM438
854T467 854T511 836T526 797Q526 760 500 738T445 715T401 733T386 765Q386 809 412 831Z" />
<glyph unicode="&#xc5;" glyph-name="Aring" horiz-adv-x="567" d="M401 712T351 712T282 738T263 795Q263 850 299 883T385 917T454 891T473 834Q473 781 437 747ZM405 825Q405 853 374 853Q339 853 333 814Q330 798 337 787T362 775Q398 775 404 815Q405 820
405 825ZM526 0H384L362 158H169L98 0H-48L269 668H422L526 0ZM348 267L323 530L217 267H348Z" />
<glyph unicode="&#xc6;" glyph-name="AE" horiz-adv-x="817" d="M358 267L406 571L241 267H358ZM324 -1L350 158H181L93 0H-52L341 668H826L808 552H531L507 401H768L750 289H489L462 115H748L729 -1H324Z" />
<glyph unicode="&#xc7;" glyph-name="Ccedilla" horiz-adv-x="516" d="M436 5Q356 -13 288 -13T173 4T90 62Q38 118 38 237Q38 281 45 336Q60 431 97 500T184 608Q281 679 399 679Q474 679 547 657L507 554Q452 565 403 565Q322 565 267 515T192 339Q185 296 185
261Q185 193 212 158Q251 106 336 106Q396 106 445 114L436 5ZM349 -57Q357 -83 357 -102T355 -133Q340 -231 202 -295L161 -230Q227 -186 233 -139Q234 -130 234 -112T225 -57H349Z" />
<glyph unicode="&#xc8;" glyph-name="Egrave" horiz-adv-x="535" d="M180 116H466L448 0H18L123 669H544L526 553H249L225 402H486L468 290H207L180 116ZM422 732L231 808L297 919L469 810L422 732Z" />
<glyph unicode="&#xc9;" glyph-name="Eacute" horiz-adv-x="535" d="M180 116H466L448 0H18L123 669H544L526 553H249L225 402H486L468 290H207L180 116ZM464 811L247 735L226 813L432 922L464 811Z" />
<glyph unicode="&#xca;" glyph-name="Ecircumflex" horiz-adv-x="535" d="M180 116H466L448 0H18L123 669H544L526 553H249L225 402H486L468 290H207L180 116ZM336 796L238 711L182 763L312 882H386L478 763L406 711L336 796Z" />
<glyph unicode="&#xcb;" glyph-name="Edieresis" horiz-adv-x="535" d="M180 116H466L448 0H18L123 669H544L526 553H249L225 402H486L468 290H207L180 116ZM234 854T263 854T308 837T323 806T322 786Q318 756 295 736T242 715T198 733T183 765Q183 809 208 831ZM419
854T448 854T492 836T507 797Q507 760 481 738T426 715T382 733T367 765Q367 809 393 831Z" />
<glyph unicode="&#xcc;" glyph-name="Igrave" horiz-adv-x="271" d="M267 668L162 0H18L123 668H267ZM251 732L60 808L126 919L298 810L251 732Z" />
<glyph unicode="&#xcd;" glyph-name="Iacute" horiz-adv-x="271" d="M267 668L162 0H18L123 668H267ZM367 811L150 735L129 813L335 922L367 811Z" />
<glyph unicode="&#xce;" glyph-name="Icircumflex" horiz-adv-x="271" d="M267 668L162 0H18L123 668H267ZM213 796L115 711L59 763L189 882H263L355 763L283 711L213 796Z" />
<glyph unicode="&#xcf;" glyph-name="Idieresis" horiz-adv-x="271" d="M267 668L162 0H18L123 668H267ZM92 854T121 854T166 837T181 806T180 786Q176 756 153 736T100 715T56 733T41 765Q41 809 66 831ZM277 854T306 854T350 836T365 797Q365 760 339 738T284
715T240 733T225 765Q225 809 251 831Z" />
<glyph unicode="&#xd0;" glyph-name="Eth" horiz-adv-x="650" d="M362 667Q488 667 534 641Q626 589 626 438Q626 390 617 333Q600 225 556 143T438 27Q379 0 257 0H69L113 280H18L36 392H131L174 667H362ZM283 129Q382 129 423 184Q460 234 475 334Q482 378 482
419T468 489Q444 538 348 538H298L275 392H390L372 280H257L233 129H283Z" />
<glyph unicode="&#xd1;" glyph-name="Ntilde" horiz-adv-x="681" d="M572 0H420L230 467L157 0H18L123 668H275L463 200L537 668H677L572 0ZM380 871T422 850T486 828T544 863L584 809Q561 779 527 757T466 734T398 755T335 777T277 742L237 796Q260 826 293 848T353
871Z" />
<glyph unicode="&#xd2;" glyph-name="Ograve" horiz-adv-x="616" d="M179 623T238 651T364 680T475 661T544 609Q594 541 594 448Q594 399 584 332T552 206T491 97T394 17T259 -12T134 17T64 95Q36 162 36 245Q36 289 45 334Q67 474 141 572Q179 623 238 651ZM454
439Q454 563 352 563Q220 563 184 334Q177 287 177 245T188 170Q207 110 280 110T391 169T446 334Q454 392 454 439ZM454 732L263 808L329 919L501 810L454 732Z" />
<glyph unicode="&#xd3;" glyph-name="Oacute" horiz-adv-x="616" d="M179 623T238 651T364 680T475 661T544 609Q594 541 594 448Q594 399 584 332T552 206T491 97T394 17T259 -12T134 17T64 95Q36 162 36 245Q36 289 45 334Q67 474 141 572Q179 623 238 651ZM454
439Q454 563 352 563Q220 563 184 334Q177 287 177 245T188 170Q207 110 280 110T391 169T446 334Q454 392 454 439ZM513 811L296 735L275 813L481 922L513 811Z" />
<glyph unicode="&#xd4;" glyph-name="Ocircumflex" horiz-adv-x="616" d="M179 623T238 651T364 680T475 661T544 609Q594 541 594 448Q594 399 584 332T552 206T491 97T394 17T259 -12T134 17T64 95Q36 162 36 245Q36 289 45 334Q67 474 141 572Q179 623 238
651ZM454 439Q454 563 352 563Q220 563 184 334Q177 287 177 245T188 170Q207 110 280 110T391 169T446 334Q454 392 454 439ZM390 796L292 711L236 763L366 882H440L532 763L460 711L390 796Z" />
<glyph unicode="&#xd5;" glyph-name="Otilde" horiz-adv-x="616" d="M179 623T238 651T364 680T475 661T544 609Q594 541 594 448Q594 399 584 332T552 206T491 97T394 17T259 -12T134 17T64 95Q36 162 36 245Q36 289 45 334Q67 474 141 572Q179 623 238 651ZM454
439Q454 563 352 563Q220 563 184 334Q177 287 177 245T188 170Q207 110 280 110T391 169T446 334Q454 392 454 439ZM356 868T398 847T462 825T520 860L560 806Q537 776 503 754T442 731T374 752T311 774T253 739L213 793Q236 823 269 845T329 868Z" />
<glyph unicode="&#xd6;" glyph-name="Odieresis" horiz-adv-x="616" d="M179 623T238 651T364 680T475 661T544 609Q594 541 594 448Q594 399 584 332T552 206T491 97T394 17T259 -12T134 17T64 95Q36 162 36 245Q36 289 45 334Q67 474 141 572Q179 623 238 651ZM454
439Q454 563 352 563Q220 563 184 334Q177 287 177 245T188 170Q207 110 280 110T391 169T446 334Q454 392 454 439ZM269 854T298 854T343 837T358 806T357 786Q353 756 330 736T277 715T233 733T218 765Q218 809 243 831ZM454 854T483 854T527 836T542 797Q542
760 516 738T461 715T417 733T402 765Q402 809 428 831Z" />
<glyph unicode="&#xd7;" glyph-name="multiply" horiz-adv-x="514" d="M454 152L363 75L245 213L83 73L15 150L177 290L61 427L153 506L268 369L428 506L495 428L337 292L454 152Z" />
<glyph unicode="&#xd8;" glyph-name="Oslash" horiz-adv-x="616" d="M552 206Q468 -12 259 -12Q208 -12 171 0L108 -110L9 -74L85 59Q37 121 37 233Q37 434 141 572Q179 623 238 651T371 680Q409 680 437 673L497 778L594 740L529 626Q594 564 594 441T552 206ZM280
110Q353 110 391 169T446 334Q455 385 455 422T448 486L237 117Q254 110 280 110ZM184 334Q176 282 176 257T177 220L372 561Q360 563 352 563Q220 563 184 334Z" />
<glyph unicode="&#xd9;" glyph-name="Ugrave" horiz-adv-x="605" d="M45 175Q45 208 51 246L118 667H263L197 251Q191 211 191 182T199 138Q214 108 273 108T358 139Q382 166 395 251L461 667H606L539 246Q522 131 464 64Q393 -10 256 -11T69 64Q45 108 45 175ZM450
732L259 808L325 919L497 810L450 732Z" />
<glyph unicode="&#xda;" glyph-name="Uacute" horiz-adv-x="605" d="M45 175Q45 208 51 246L118 667H263L197 251Q191 211 191 182T199 138Q214 108 273 108T358 139Q382 166 395 251L461 667H606L539 246Q522 131 464 64Q393 -10 256 -11T69 64Q45 108 45 175ZM522
811L305 735L284 813L490 922L522 811Z" />
<glyph unicode="&#xdb;" glyph-name="Ucircumflex" horiz-adv-x="605" d="M45 175Q45 208 51 246L118 667H263L197 251Q191 211 191 182T199 138Q214 108 273 108T358 139Q382 166 395 251L461 667H606L539 246Q522 131 464 64Q393 -10 256 -11T69 64Q45 108 45
175ZM386 796L288 711L232 763L362 882H436L528 763L456 711L386 796Z" />
<glyph unicode="&#xdc;" glyph-name="Udieresis" horiz-adv-x="605" d="M45 175Q45 208 51 246L118 667H263L197 251Q191 211 191 182T199 138Q214 108 273 108T358 139Q382 166 395 251L461 667H606L539 246Q522 131 464 64Q393 -10 256 -11T69 64Q45 108 45
175ZM272 854T301 854T346 837T361 806T360 786Q356 756 333 736T280 715T236 733T221 765Q221 809 246 831ZM457 854T486 854T530 836T545 797Q545 760 519 738T464 715T420 733T405 765Q405 809 431 831Z" />
<glyph unicode="&#xdd;" glyph-name="Yacute" horiz-adv-x="546" d="M195 668L286 383L467 668H613L339 264L298 0H154L195 264L49 668H195ZM493 811L276 735L255 813L461 922L493 811Z" />
<glyph unicode="&#xde;" glyph-name="Thorn" horiz-adv-x="501" d="M502 436Q502 416 499 395Q474 229 317 194Q265 183 180 183H149L121 0H17L127 697H231L215 597H271Q348 597 391 585T463 542Q502 501 502 436ZM395 415Q395 451 376 474Q349 504 257 504H200L164
276H206Q304 276 344 301T393 390Q395 403 395 415Z" />
<glyph unicode="&#xdf;" glyph-name="germandbls" horiz-adv-x="600" d="M397 564Q397 612 342 612T259 584T222 493L123 -129H-15L84 495Q102 609 173 664T351 720T500 675Q534 639 534 585Q534 571 531 547T506 495T462 450Q377 387 400 344Q406 331 414 326T449
309T490 287T529 259T559 218T565 182T563 153Q550 76 494 32T352 -13Q311 -13 260 2T184 37L235 135Q322 96 375 96T435 145Q435 148 435 150Q435 180 372 210Q344 223 317 240T275 284T261 331T264 375T289 428T332 473Q391 516 396 548Q397 557 397 564Z" />
<glyph unicode="&#xe0;" glyph-name="agrave" horiz-adv-x="507" d="M471 17Q415 -11 355 -11T273 35Q208 -13 119 -13Q51 -13 18 26Q-8 56 -8 102Q-8 157 14 192T57 242T106 268Q150 284 205 284T296 281L304 330Q306 346 306 366T291 399T225 412T107 391L92
479Q133 501 188 512T281 524Q383 524 420 480Q445 450 445 390Q445 364 440 332L407 122Q406 117 406 113Q406 94 427 94Q441 94 465 100L471 17ZM257 213T236 213Q125 213 125 131Q125 80 182 80Q225 80 268 106L285 211Q257 213 236 213ZM365 587L174 663L240
774L412 665L365 587Z" />
<glyph unicode="&#xe1;" glyph-name="aacute" horiz-adv-x="507" d="M471 17Q415 -11 355 -11T273 35Q208 -13 119 -13Q51 -13 18 26Q-8 56 -8 102Q-8 157 14 192T57 242T106 268Q150 284 205 284T296 281L304 330Q306 346 306 366T291 399T225 412T107 391L92
479Q133 501 188 512T281 524Q383 524 420 480Q445 450 445 390Q445 364 440 332L407 122Q406 117 406 113Q406 94 427 94Q441 94 465 100L471 17ZM257 213T236 213Q125 213 125 131Q125 80 182 80Q225 80 268 106L285 211Q257 213 236 213ZM417 663L200 587L179
665L385 774L417 663Z" />
<glyph unicode="&#xe2;" glyph-name="acircumflex" horiz-adv-x="507" d="M299 676L201 591L145 643L275 762H349L441 643L369 591L299 676ZM471 17Q415 -11 355 -11T273 35Q208 -13 119 -13Q51 -13 18 26Q-8 56 -8 102Q-8 157 14 192T57 242T106 268Q150 284
205 284T296 281L304 330Q306 346 306 366T291 399T225 412T107 391L92 479Q133 501 188 512T281 524Q383 524 420 480Q445 450 445 390Q445 364 440 332L407 122Q406 117 406 113Q406 94 427 94Q441 94 465 100L471 17ZM257 213T236 213Q125 213 125 131Q125 80
182 80Q225 80 268 106L285 211Q257 213 236 213Z" />
<glyph unicode="&#xe3;" glyph-name="atilde" horiz-adv-x="507" d="M471 17Q415 -11 355 -11T273 35Q208 -13 119 -13Q51 -13 18 26Q-8 56 -8 102Q-8 157 14 192T57 242T106 268Q150 284 205 284T296 281L304 330Q306 346 306 366T291 399T225 412T107 391L92
479Q133 501 188 512T281 524Q383 524 420 480Q445 450 445 390Q445 364 440 332L407 122Q406 117 406 113Q406 94 427 94Q441 94 465 100L471 17ZM257 213T236 213Q125 213 125 131Q125 80 182 80Q225 80 268 106L285 211Q257 213 236 213ZM264 728T306 707T370
685T428 720L468 666Q445 636 411 614T350 591T282 612T219 634T161 599L121 653Q144 683 177 705T237 728Z" />
<glyph unicode="&#xe4;" glyph-name="adieresis" horiz-adv-x="507" d="M471 17Q415 -11 355 -11T273 35Q208 -13 119 -13Q51 -13 18 26Q-8 56 -8 102Q-8 157 14 192T57 242T106 268Q150 284 205 284T296 281L304 330Q306 346 306 366T291 399T225 412T107 391L92
479Q133 501 188 512T281 524Q383 524 420 480Q445 450 445 390Q445 364 440 332L407 122Q406 117 406 113Q406 94 427 94Q441 94 465 100L471 17ZM257 213T236 213Q125 213 125 131Q125 80 182 80Q225 80 268 106L285 211Q257 213 236 213ZM195 735T224 735T269
718T284 687T283 667Q279 637 256 617T203 596T159 614T144 646Q144 690 169 712ZM380 735T409 735T453 717T468 678Q468 641 442 619T387 596T343 614T328 646Q328 690 354 712Z" />
<glyph unicode="&#xe5;" glyph-name="aring" horiz-adv-x="507" d="M471 17Q415 -11 355 -11T273 35Q208 -13 119 -13Q51 -13 18 26Q-8 56 -8 102Q-8 157 14 192T57 242T106 268Q150 284 205 284T296 281L304 330Q306 346 306 366T291 399T225 412T107 391L92
479Q133 501 188 512T281 524Q383 524 420 480Q445 450 445 390Q445 364 440 332L407 122Q406 117 406 113Q406 94 427 94Q441 94 465 100L471 17ZM257 213T236 213Q125 213 125 131Q125 80 182 80Q225 80 268 106L285 211Q257 213 236 213ZM339 597T289 597T220
623T201 680Q201 735 237 768T323 802T392 776T411 719Q411 666 375 632ZM343 710Q343 738 312 738Q277 738 271 699Q270 694 270 687T276 670T300 660Q336 660 342 700Q343 705 343 710Z" />
<glyph unicode="&#xe6;" glyph-name="ae" horiz-adv-x="742" d="M693 474Q724 438 724 385T692 242H421Q417 219 417 199Q417 153 438 128Q467 92 528 92T654 115L663 20Q580 -13 484 -13T338 43Q306 22 251 5T145 -13Q61 -13 22 26Q-7 56 -7 105Q-7 157 14 192T57
242T106 268Q150 284 208 284T303 281L311 330Q313 346 313 366T298 399T228 412T107 391L92 479Q133 501 188 512T290 524T368 510T413 457Q470 522 561 522T693 474ZM243 213Q126 213 126 133Q126 108 143 94T194 80Q270 80 311 106Q301 140 301 169T302 211Q274
213 243 213ZM605 318Q609 339 609 355Q609 423 548 423Q465 423 430 318H605Z" />
<glyph unicode="&#xe7;" glyph-name="ccedilla" horiz-adv-x="435" d="M278 -57Q286 -83 286 -102T284 -133Q269 -231 131 -295L90 -230Q156 -186 162 -139Q163 -130 163 -112T154 -57H278ZM221 -13Q118 -13 61 54Q19 102 19 187Q19 218 25 254Q46 389 123 455T306
522Q368 522 444 499L401 398Q342 412 305 412Q246 412 209 377T158 253Q153 222 153 186T172 126Q201 91 263 91Q296 91 362 101L365 10Q283 -13 221 -13Z" />
<glyph unicode="&#xe8;" glyph-name="egrave" horiz-adv-x="476" d="M379 587L188 663L254 774L426 665L379 587ZM427 474Q458 438 458 379T426 242H155Q151 219 151 199Q151 153 172 128Q201 92 262 92T388 115L397 20Q314 -13 220 -13Q21 -13 21 184Q21 350
116 448Q186 522 297 522Q386 522 427 474ZM339 318Q343 340 343 356Q343 423 285 423Q203 423 168 318H339Z" />
<glyph unicode="&#xe9;" glyph-name="eacute" horiz-adv-x="476" d="M435 663L218 587L197 665L403 774L435 663ZM427 474Q458 438 458 379T426 242H155Q151 219 151 199Q151 153 172 128Q201 92 262 92T388 115L397 20Q314 -13 220 -13Q21 -13 21 184Q21 350
116 448Q186 522 297 522Q386 522 427 474ZM339 318Q343 340 343 356Q343 423 285 423Q203 423 168 318H339Z" />
<glyph unicode="&#xea;" glyph-name="ecircumflex" horiz-adv-x="476" d="M458 320T426 242Q426 242 155 242Q151 219 151 199Q151 92 262 92Q323 92 388 115L397 20Q314 -13 220 -13Q21 -13 21 184Q21 350 116 448Q186 522 297 522Q386 522 427 474Q458 438 458
379ZM343 356Q343 423 285 423Q203 423 168 318H339Q343 340 343 356ZM316 676L218 591L162 643L292 762H366L458 643L386 591L316 676Z" />
<glyph unicode="&#xeb;" glyph-name="edieresis" horiz-adv-x="476" d="M204 735T233 735T278 718T293 687T292 667Q288 637 265 617T212 596T168 614T153 646Q153 690 178 712ZM389 735T418 735T462 717T477 678Q477 641 451 619T396 596T352 614T337 646Q337
690 363 712ZM427 474Q458 438 458 379T426 242H155Q151 219 151 199Q151 153 172 128Q201 92 262 92T388 115L397 20Q314 -13 220 -13Q21 -13 21 184Q21 350 116 448Q186 522 297 522Q386 522 427 474ZM339 318Q343 340 343 356Q343 423 285 423Q203 423 168 318H339Z"
/>
<glyph unicode="&#xec;" glyph-name="igrave" horiz-adv-x="244" d="M230 587L39 663L105 774L277 665L230 587ZM228 524L146 0H6L87 512L228 524Z" />
<glyph unicode="&#xed;" glyph-name="iacute" horiz-adv-x="244" d="M334 663L117 587L96 665L302 774L334 663ZM228 524L146 0H6L87 512L228 524Z" />
<glyph unicode="&#xee;" glyph-name="icircumflex" horiz-adv-x="244" d="M187 676L89 591L33 643L163 762H237L329 643L257 591L187 676ZM146 0H6L87 512L228 524L146 0Z" />
<glyph unicode="&#xef;" glyph-name="idieresis" horiz-adv-x="244" d="M76 735T105 735T150 718T165 687T164 667Q160 637 137 617T84 596T40 614T25 646Q25 690 50 712ZM261 735T290 735T334 717T349 678Q349 641 323 619T268 596T224 614T209 646Q209 690 235
712ZM228 524L146 0H6L87 512L228 524Z" />
<glyph unicode="&#xf0;" glyph-name="eth" horiz-adv-x="498" d="M52 60Q21 111 21 183Q21 212 26 244Q43 352 101 405T242 459Q298 459 333 437Q333 442 333 448Q333 528 291 571L205 495L154 553L220 611Q181 623 105 627L137 719Q245 719 316 694L395 764L443
704L388 656Q472 589 472 430Q472 374 460 296T422 153T360 54Q294 -12 195 -12T52 60ZM155 190Q155 104 215 104Q254 104 280 153T328 335Q297 351 248 351Q177 349 160 244Q155 214 155 190Z" />
<glyph unicode="&#xf1;" glyph-name="ntilde" horiz-adv-x="544" d="M294 728T335 707T399 685T457 720L497 666Q474 636 440 614T379 591T311 612T248 634T190 599L150 653Q173 683 206 705T266 728ZM381 522Q468 522 492 478Q509 448 509 414T504 351L449 0H309L360
326Q363 348 363 366T350 396T308 408Q252 408 207 371L149 0H6L87 513H205L208 456Q242 483 289 502T381 522Z" />
<glyph unicode="&#xf2;" glyph-name="ograve" horiz-adv-x="509" d="M449 116T377 52T203 -13T53 50Q19 94 19 175Q19 211 26 254Q48 393 119 457T291 522Q478 522 478 333Q478 297 471 255Q449 116 377 52ZM342 329Q342 414 274 414Q231 414 204 381T161 254Q155
214 155 185Q155 94 222 94Q264 94 292 129T335 254Q342 298 342 329ZM380 587L189 663L255 774L427 665L380 587Z" />
<glyph unicode="&#xf3;" glyph-name="oacute" horiz-adv-x="509" d="M449 116T377 52T203 -13T53 50Q19 94 19 175Q19 211 26 254Q48 393 119 457T291 522Q478 522 478 333Q478 297 471 255Q449 116 377 52ZM342 329Q342 414 274 414Q231 414 204 381T161 254Q155
214 155 185Q155 94 222 94Q264 94 292 129T335 254Q342 298 342 329ZM466 663L249 587L228 665L434 774L466 663Z" />
<glyph unicode="&#xf4;" glyph-name="ocircumflex" horiz-adv-x="509" d="M53 50Q19 94 19 175Q19 211 26 254Q48 393 119 457T291 522Q478 522 478 333Q478 297 471 255Q449 116 377 52T203 -13T53 50ZM222 94Q264 94 292 129T335 254Q342 298 342 329Q342 414
274 414Q231 414 204 381T161 254Q155 214 155 185Q155 94 222 94ZM313 676L215 591L159 643L289 762H363L455 643L383 591L313 676Z" />
<glyph unicode="&#xf5;" glyph-name="otilde" horiz-adv-x="509" d="M449 116T377 52T203 -13T53 50Q19 94 19 175Q19 211 26 254Q48 393 119 457T291 522Q478 522 478 333Q478 297 471 255Q449 116 377 52ZM342 329Q342 414 274 414Q231 414 204 381T161 254Q155
214 155 185Q155 94 222 94Q264 94 292 129T335 254Q342 298 342 329ZM280 728T322 707T386 685T444 720L484 666Q461 636 427 614T366 591T298 612T235 634T177 599L137 653Q160 683 193 705T253 728Z" />
<glyph unicode="&#xf6;" glyph-name="odieresis" horiz-adv-x="509" d="M449 116T377 52T203 -13T53 50Q19 94 19 175Q19 211 26 254Q48 393 119 457T291 522Q478 522 478 333Q478 297 471 255Q449 116 377 52ZM342 329Q342 414 274 414Q231 414 204 381T161 254Q155
214 155 185Q155 94 222 94Q264 94 292 129T335 254Q342 298 342 329ZM200 735T229 735T274 718T289 687T288 667Q284 637 261 617T208 596T164 614T149 646Q149 690 174 712ZM385 735T414 735T458 717T473 678Q473 641 447 619T392 596T348 614T333 646Q333 690
359 712Z" />
<glyph unicode="&#xf7;" glyph-name="divide" horiz-adv-x="535" d="M274 501T301 501T342 485T356 457Q356 417 332 395T280 372T239 389T224 420Q224 461 249 481ZM502 332L485 223H28L45 332H502ZM223 180T250 180T291 164T305 135Q305 97 281 74T230 51T188
68T173 99Q173 139 198 159Z" />
<glyph unicode="&#xf8;" glyph-name="oslash" horiz-adv-x="509" d="M19 176Q19 212 26 254Q48 393 119 457T291 522Q327 522 361 514L414 597L483 561L429 476Q477 428 477 331Q477 296 471 255Q449 116 377 52T200 -13Q159 -13 122 0L71 -78L0 -43L57 45Q19
93 19 176ZM222 94Q264 94 292 129T331 233T341 318T341 340L188 102Q201 94 222 94ZM274 414Q231 414 204 381T161 254Q156 227 156 197L295 412Q281 414 274 414Z" />
<glyph unicode="&#xf9;" glyph-name="ugrave" horiz-adv-x="540" d="M323 47Q236 -13 150 -13T38 32Q23 60 23 94T28 158L84 513H224L171 183Q168 155 168 140T181 113T223 101Q278 101 323 132L384 513H524L440 -13H325L323 47ZM355 587L164 663L230 774L402
665L355 587Z" />
<glyph unicode="&#xfa;" glyph-name="uacute" horiz-adv-x="540" d="M323 47Q236 -13 150 -13T38 32Q23 60 23 94T28 158L84 513H224L171 183Q168 155 168 140T181 113T223 101Q278 101 323 132L384 513H524L440 -13H325L323 47ZM485 663L268 587L247 665L453
774L485 663Z" />
<glyph unicode="&#xfb;" glyph-name="ucircumflex" horiz-adv-x="540" d="M323 47Q236 -13 150 -13T38 32Q23 60 23 94T28 158L84 513H224L171 183Q168 155 168 140T181 113T223 101Q278 101 323 132L384 513H524L440 -13H325L323 47ZM330 676L232 591L176 643L306
762H380L472 643L400 591L330 676Z" />
<glyph unicode="&#xfc;" glyph-name="udieresis" horiz-adv-x="540" d="M323 47Q236 -13 150 -13T38 32Q23 60 23 94T28 158L84 513H224L171 183Q168 155 168 140T181 113T223 101Q278 101 323 132L384 513H524L440 -13H325L323 47ZM220 735T249 735T294 718T309
687T308 667Q304 637 281 617T228 596T184 614T169 646Q169 690 194 712ZM405 735T434 735T478 717T493 678Q493 641 467 619T412 596T368 614T353 646Q353 690 379 712Z" />
<glyph unicode="&#xfd;" glyph-name="yacute" horiz-adv-x="500" d="M165 -161T119 -187T17 -213T-96 -195L-61 -98Q-61 -99 -32 -103T6 -108Q62 -108 89 -88T148 13L38 500L173 517L232 163L390 513H525L288 42Q236 -61 201 -111ZM473 663L256 587L235 665L441
774L473 663Z" />
<glyph unicode="&#xfe;" glyph-name="thorn" horiz-adv-x="539" d="M222 480Q281 522 359 522T481 460Q511 415 511 345Q511 315 506 281Q460 -13 219 -13Q182 -13 146 3L112 -212H-28L117 701H257L222 480ZM189 100T213 100Q282 100 316 142T362 260Q368 297
368 328Q368 408 297 408Q254 408 206 381L162 105Q189 100 213 100Z" />
<glyph unicode="&#xff;" glyph-name="ydieresis" horiz-adv-x="500" d="M165 -161T119 -187T17 -213T-96 -195L-61 -98Q-61 -99 -32 -103T6 -108Q62 -108 89 -88T148 13L38 500L173 517L232 163L390 513H525L288 42Q236 -61 201 -111ZM196 735T225 735T270 718T285
687T284 667Q280 637 257 617T204 596T160 614T145 646Q145 690 170 712ZM381 735T410 735T454 717T469 678Q469 641 443 619T388 596T344 614T329 646Q329 690 355 712Z" />
<glyph unicode="&#x2013;" glyph-name="endash" horiz-adv-x="560" d="M515 332L498 223H41L58 332H515Z" />
<glyph unicode="&#x2014;" glyph-name="emdash" horiz-adv-x="710" d="M665 332L648 223H41L58 332H665Z" />
<glyph unicode="&#x2018;" glyph-name="quoteleft" horiz-adv-x="219" d="M299 720Q187 612 187 527Q187 503 195 476H80Q75 492 75 506T77 533Q93 637 196 720H299Z" />
<glyph unicode="&#x2019;" glyph-name="quoteright" horiz-adv-x="254" d="M57 455Q168 564 168 648Q168 672 160 699H275Q280 683 280 669T278 642Q262 539 160 455H57Z" />
<glyph unicode="&#x201a;" glyph-name="quotesinglbase" horiz-adv-x="214" d="M-86 -128Q24 -20 24 68Q24 90 17 116H132Q137 100 137 86T135 59Q117 -46 16 -128H-86Z" />
<glyph unicode="&#x201c;" glyph-name="quotedblleft" horiz-adv-x="409" d="M299 720Q187 612 187 527Q187 503 195 476H80Q75 492 75 506T77 533Q93 637 196 720H299ZM489 720Q377 612 377 527Q377 503 385 476H270Q265 492 265 506T267 533Q283 637 386 720H489Z" />
<glyph unicode="&#x201d;" glyph-name="quotedblright" horiz-adv-x="444" d="M247 455Q358 564 358 648Q358 672 350 699H465Q470 683 470 669T468 642Q452 539 350 455H247ZM57 455Q168 564 168 648Q168 672 160 699H275Q280 683 280 669T278 642Q262 539 160 455H57Z" />
<glyph unicode="&#x201e;" glyph-name="quotedblbase" horiz-adv-x="404" d="M-86 -128Q24 -20 24 68Q24 90 17 116H132Q137 100 137 86T135 59Q117 -46 16 -128H-86ZM103 -128Q214 -20 214 68Q214 90 207 116H322Q327 100 327 86T325 59Q307 -46 206 -128H103Z" />
<glyph unicode="&#x2022;" glyph-name="bullet" horiz-adv-x="356" d="M150 431T199 431T274 401T299 335Q299 273 256 235T163 197T88 227T62 293Q62 356 106 393Z" />
<glyph unicode="&#x2039;" glyph-name="guilsinglleft" horiz-adv-x="327" d="M312 423L150 278L267 136L173 63L27 249L36 308L242 493L312 423Z" />
<glyph unicode="&#x203a;" glyph-name="guilsinglright" horiz-adv-x="327" d="M174 278L56 423L150 493L296 308L287 249L81 63L11 136L174 278Z" />
</font>
</defs>
</svg>
