<?xml version="1.0" standalone="no"?>
<!DOCTYPE svg PUBLIC "-//W3C//DTD SVG 1.1//EN" "http://www.w3.org/Graphics/SVG/1.1/DTD/svg11.dtd">
<svg xmlns="http://www.w3.org/2000/svg">
<defs >
<font id="Hanuman" horiz-adv-x="1416" ><font-face
    font-family="Hanuman"
    units-per-em="2048"
    panose-1="2 2 5 2 6 5 6 2 3 4"
    ascent="2000"
    descent="-1000"
    alphabetic="0" />
<glyph unicode=" " glyph-name="space" horiz-adv-x="614" />
<glyph unicode="!" glyph-name="exclam" horiz-adv-x="680" d="M452 1489L424 410H258L228 1489H452ZM442 0H238V211H442V0Z" />
<glyph unicode="&quot;" glyph-name="quotedbl" horiz-adv-x="822" d="M708 1556L665 977H533L490 1556H708ZM332 1556L289 977H157L114 1556H332Z" />
<glyph unicode="#" glyph-name="numbersign" horiz-adv-x="1490" d="M1348 932H1055L963 556H1231V421H928L823 0H694L799 421H529L424 0H295L400 421H142V556H435L527 932H259V1067H562L667 1489H796L691 1067H961L1066 1489H1195L1090 1067H1348V932ZM929 934H655L561
554H835L929 934Z" />
<glyph unicode="$" glyph-name="dollar" horiz-adv-x="1118" d="M1024 380Q1024 233 912 128T628 1V-361H514V-4Q406 -3 297 21T106 85V287H121Q200 228 299 191T514 144V576Q489 582 453 590T392 607Q242 648 178 731T113 935Q113 1077 224 1182T514 1304V1576H628V1306Q719
1303 816 1281T976 1231V1033H961Q891 1081 808 1117T628 1161V731Q661 724 689 717T739 704Q875 672 949 593T1024 380ZM514 746V1160Q424 1152 363 1102T302 961Q302 872 346 824T514 746ZM835 354Q835 448 787 493T628 561V146Q730 158 782 207T835 354Z" />
<glyph unicode="%" glyph-name="percent" horiz-adv-x="2000" d="M807 1076Q807 851 717 743T455 634Q281 634 192 744T102 1075Q102 1299 193 1408T455 1517Q629 1517 718 1407T807 1076ZM1473 1489L693 0H528L1308 1489H1473ZM1897 413Q1897 188 1807 80T1545
-29Q1371 -29 1282 81T1192 412Q1192 636 1283 745T1545 854Q1719 854 1808 744T1897 413ZM629 1076Q629 1228 594 1306T455 1384Q352 1384 316 1305T280 1075Q280 925 314 846T455 767Q558 767 593 846T629 1076ZM1719 413Q1719 565 1684 643T1545 721Q1442 721
1406 642T1370 412Q1370 262 1404 183T1545 104Q1648 104 1683 183T1719 413Z" />
<glyph unicode="&amp;" glyph-name="ampersand" horiz-adv-x="1380" d="M1445 0H1189L985 213Q883 83 776 26T532 -31Q330 -31 199 90T67 409Q67 495 91 562T155 683Q194 735 245 774T343 843Q242 911 192 986T142 1175Q142 1246 170 1306T245 1413Q293 1460 369
1490T537 1520Q703 1520 808 1433T913 1211Q913 1162 901 1110T855 1008Q822 959 769 916T626 841L978 479Q992 561 995 657T998 909H1193V813Q1193 717 1169 597T1088 368L1445 0ZM898 301L438 772Q413 756 388 734T333 668Q309 633 291 577T272 457Q272 315 356
224T585 132Q681 132 758 172T898 301ZM532 912Q588 931 624 963T681 1033Q699 1068 708 1107T717 1191Q717 1288 661 1341T529 1394Q440 1394 389 1334T338 1184Q338 1144 345 1116T377 1049Q398 1018 435 983T532 912Z" />
<glyph unicode="&apos;" glyph-name="quotesingle" horiz-adv-x="432" d="M327 1556L284 977H148L105 1556H327Z" />
<glyph unicode="(" glyph-name="parenleft" horiz-adv-x="784" d="M710 -412H481Q307 -205 208 26T108 572Q108 880 206 1114T481 1556H710V1546Q629 1473 556 1378T419 1155Q359 1032 322 884T284 572Q284 401 320 259T419 -11Q479 -134 556 -233T710 -402V-412Z" />
<glyph unicode=")" glyph-name="parenright" horiz-adv-x="784" d="M676 572Q676 263 577 29T303 -412H74V-402Q151 -333 229 -233T365 -11Q427 118 463 261T500 572Q500 737 463 884T365 1155Q304 1279 227 1378T74 1546V1556H303Q477 1349 576 1116T676 572Z" />
<glyph unicode="*" glyph-name="asterisk" horiz-adv-x="1118" d="M1007 887L942 777L615 994L622 630H497L503 994L178 776L112 886L466 1093L112 1300L178 1410L504 1191L497 1556H622L614 1191L942 1409L1007 1299L653 1094L1007 887Z" />
<glyph unicode="+" glyph-name="plus" horiz-adv-x="1490" d="M1333 572H828V67H662V572H157V732H662V1237H828V732H1333V572Z" />
<glyph unicode="," glyph-name="comma" horiz-adv-x="620" d="M500 285L220 -370H74L250 285H500Z" />
<glyph unicode="-" glyph-name="hyphen" horiz-adv-x="744" d="M654 561H90V742H654V561Z" />
<glyph unicode="." glyph-name="period" horiz-adv-x="620" d="M429 0H190V285H429V0Z" />
<glyph unicode="/" glyph-name="slash" horiz-adv-x="783" d="M728 1556L145 -324H-24L556 1556H728Z" />
<glyph unicode="0" glyph-name="zero" horiz-adv-x="1118" d="M1035 745Q1035 344 919 157T559 -31Q313 -31 198 160T83 743Q83 1146 199 1332T559 1519Q805 1519 920 1326T1035 745ZM779 291Q808 365 820 478T832 745Q832 898 820 1011T778 1199Q748 1275 696
1314T559 1354Q476 1354 423 1315T338 1197Q308 1121 297 1005T286 743Q286 587 295 482T337 294Q366 217 419 176T559 134Q642 134 695 173T779 291Z" />
<glyph unicode="1" glyph-name="one" horiz-adv-x="1118" d="M952 0H226V152H496V1150H226V1286Q379 1286 451 1329T533 1494H688V152H952V0Z" />
<glyph unicode="2" glyph-name="two" horiz-adv-x="1118" d="M1028 0H109V209Q208 303 296 389T468 568Q638 755 700 867T762 1100Q762 1162 743 1209T689 1287Q654 1317 608 1332T507 1347Q454 1347 400 1334T295 1300Q253 1283 214 1259T151 1218H140V1430Q202
1461 312 1490T522 1520Q730 1520 848 1410T966 1110Q966 1023 946 949T889 812Q852 747 800 683T690 557Q596 455 481 345T296 171H1028V0Z" />
<glyph unicode="3" glyph-name="three" horiz-adv-x="1118" d="M511 1347Q457 1347 403 1334T297 1300Q249 1280 214 1258T150 1217H138V1428Q203 1463 314 1491T527 1520Q628 1520 703 1500T840 1436Q906 1388 939 1320T973 1161Q973 1038 892 945T698 827V813Q745
804 798 782T898 717Q944 674 973 607T1002 442Q1002 341 968 257T870 107Q805 39 713 4T504 -31Q392 -31 282 -4T97 61V272H111Q174 226 280 184T492 142Q553 142 614 161T717 225Q757 269 778 322T799 456Q799 537 776 589T710 671Q668 701 611 712T486 724H401V890H467Q602
890 686 954T771 1140Q771 1196 749 1236T693 1301Q655 1327 609 1337T511 1347Z" />
<glyph unicode="4" glyph-name="four" horiz-adv-x="1118" d="M1067 512H890V0H698V512H40V722L706 1489H890V672H1067V512ZM698 672V1254L196 672H698Z" />
<glyph unicode="5" glyph-name="five" horiz-adv-x="1118" d="M1011 474Q1011 366 977 274T880 115Q817 47 724 8T514 -31Q407 -31 304 -8T124 54V265H138Q161 248 204 227T299 186Q358 165 407 154T517 142Q577 142 634 163T732 233Q769 277 788 336T808 475Q808
554 787 605T724 689Q681 727 619 742T479 758Q398 758 316 746T185 722V1489H1002V1314H378V918Q414 922 449 924T513 926Q627 926 706 907T858 833Q932 777 971 693T1011 474Z" />
<glyph unicode="6" glyph-name="six" horiz-adv-x="1118" d="M1051 483Q1051 368 1013 271T911 109Q844 40 761 5T578 -31Q477 -31 395 3T249 104Q172 185 129 320T85 654Q85 848 125 1004T248 1277Q329 1390 457 1453T753 1517Q803 1517 846 1512T922 1496V1305H913Q886
1320 835 1332T726 1345Q540 1345 426 1220T290 847Q361 897 436 924T600 951Q687 951 752 934T889 863Q971 801 1011 706T1051 483ZM848 475Q848 567 824 629T746 735Q707 767 658 777T556 787Q486 787 420 766T290 705Q288 683 287 663T286 611Q286 456 316 361T392
217Q435 170 480 151T579 132Q699 132 773 218T848 475Z" />
<glyph unicode="7" glyph-name="seven" horiz-adv-x="1118" d="M1044 1266L400 0H187L869 1314H99V1489H1044V1266Z" />
<glyph unicode="8" glyph-name="eight" horiz-adv-x="1118" d="M811 1142Q811 1242 744 1309T558 1376Q449 1376 380 1316T310 1154Q310 1080 345 1029T452 937Q483 920 546 890T662 843Q749 910 780 980T811 1142ZM839 396Q839 488 803 542T664 652Q630 671 574
693T446 745Q363 690 319 610T275 426Q275 291 356 203T561 115Q687 115 763 190T839 396ZM559 -34Q448 -34 357 -1T202 94Q139 154 107 236T74 411Q74 532 138 633T326 795V801Q216 865 163 941T110 1131Q110 1299 237 1411T559 1523Q762 1523 884 1417T1007 1144Q1007
1044 949 946T780 793V787Q910 726 977 639T1044 415Q1044 224 906 95T559 -34Z" />
<glyph unicode="9" glyph-name="nine" horiz-adv-x="1118" d="M832 877Q832 1029 804 1124T727 1272Q683 1320 638 1338T539 1356Q416 1356 343 1268T270 1013Q270 919 294 858T372 753Q410 722 458 712T561 701Q625 701 699 723T828 783Q829 798 830 822T832
877ZM67 1005Q67 1120 104 1215T207 1379Q269 1445 358 1482T540 1519Q643 1519 726 1485T871 1385Q948 1303 990 1170T1033 834Q1033 649 992 484T869 209Q783 93 663 32T365 -29Q325 -29 280 -25T196 -8V183H206Q231 169 284 156T392 143Q588 143 700 272T827
641Q747 587 675 562T517 537Q434 537 366 555T229 625Q149 686 108 779T67 1005Z" />
<glyph unicode=":" glyph-name="colon" horiz-adv-x="724" d="M482 832H243V1117H482V832ZM482 0H243V285H482V0Z" />
<glyph unicode=";" glyph-name="semicolon" horiz-adv-x="724" d="M482 832H243V1117H482V832ZM548 285L268 -370H122L298 285H548Z" />
<glyph unicode="&lt;" glyph-name="less" horiz-adv-x="1490" d="M1275 79L201 592V712L1275 1225V1047L442 652L1275 257V79Z" />
<glyph unicode="=" glyph-name="equal" horiz-adv-x="1490" d="M1298 782H192V942H1298V782ZM1298 362H192V522H1298V362Z" />
<glyph unicode="&gt;" glyph-name="greater" horiz-adv-x="1490" d="M1289 592L215 79V257L1048 652L215 1047V1225L1289 712V592Z" />
<glyph unicode="?" glyph-name="question" horiz-adv-x="970" d="M912 1139Q912 1041 880 965T793 830Q739 772 671 723T526 628V400H347V705Q403 739 477 786T594 875Q648 926 678 986T708 1124Q708 1237 637 1292T452 1348Q352 1348 264 1315T120 1245H109V1449Q176
1476 278 1497T471 1519Q676 1519 794 1415T912 1139ZM542 0H338V211H542V0Z" />
<glyph unicode="@" glyph-name="at" horiz-adv-x="1862" d="M1739 663Q1739 524 1701 395T1592 157H1171L1146 273Q1079 216 1023 183T869 149Q715 149 617 272T519 631Q519 866 639 997T915 1128Q987 1128 1039 1110T1144 1062V1110H1303V268H1530Q1568 339 1584
452T1601 657Q1601 984 1435 1183T956 1383Q660 1383 468 1168T275 645Q275 315 462 111T951 -94Q1032 -94 1121 -83T1291 -48V-190Q1207 -210 1121 -218T950 -226Q596 -226 364 17T132 647Q132 1014 371 1266T955 1518Q1323 1518 1531 1281T1739 663ZM1142 408V926Q1086
955 1039 967T941 980Q828 980 759 896T690 634Q690 474 742 389T908 304Q969 304 1028 333T1142 408Z" />
<glyph unicode="A" glyph-name="A" horiz-adv-x="1222" d="M847 597L611 1282L375 597H847ZM694 1500L1212 0H1053L899 447H323L169 0H10L528 1500H694Z" />
<glyph unicode="B" glyph-name="B" horiz-adv-x="1257" d="M311 710V150H711Q881 150 966 220Q1051 290 1051 430Q1051 570 966 640Q881 710 711 710H311ZM661 860Q831 860 916 921Q1001 983 1001 1105Q1001 1228 916 1289Q831 1350 661 1350H311V860H661ZM161
1500H661Q906 1500 1029 1401Q1151 1303 1151 1105Q1151 1001 1117 924T1014 797Q1108 747 1154 655Q1201 563 1201 430Q1201 215 1079 108Q956 0 711 0H161V1500Z" />
<glyph unicode="C" glyph-name="C" horiz-adv-x="1253" d="M876 0T676 0Q376 0 226 188Q76 375 76 750Q76 1125 226 1313Q376 1500 676 1500Q864 1500 993 1427Q1122 1353 1192 1206L1063 1124Q1010 1245 913 1305Q817 1365 676 1365Q451 1365 339 1211Q226 1058
226 750Q226 443 339 289Q451 135 676 135Q824 135 923 202Q1023 268 1073 401L1209 333Q1143 167 1009 83Q876 0 676 0Z" />
<glyph unicode="D" glyph-name="D" horiz-adv-x="1325" d="M881 1350T661 1350H311V150H611Q856 150 979 300Q1101 450 1101 750Q1101 1050 991 1200Q881 1350 661 1350ZM1251 750Q1251 375 1091 188Q931 0 611 0H161V1500H661Q956 1500 1104 1313Q1251 1125 1251 750Z" />
<glyph unicode="E" glyph-name="E" horiz-adv-x="1278" d="M311 723V150H1201V0H161V1500H1181V1350H311V873H1151V723H311Z" />
<glyph unicode="F" glyph-name="F" horiz-adv-x="1216" d="M311 873H1070V723H311V0H161V1500H1180V1350H311V873Z" />
<glyph unicode="G" glyph-name="G" horiz-adv-x="1308" d="M1050 425V608H674V758H1200V0H1050V134Q907 0 661 0Q369 0 222 188Q76 375 76 750Q76 1125 222 1313Q369 1500 661 1500Q1025 1500 1162 1210L1022 1143Q916 1350 661 1350Q444 1350 335 1200Q226 1050
226 750Q226 450 335 300Q444 150 661 150Q955 150 1050 425Z" />
<glyph unicode="H" glyph-name="H" horiz-adv-x="1378" d="M311 693V0H161V1500H311V843H1067V1500H1217V0H1067V693H311Z" />
<glyph unicode="I" glyph-name="I" horiz-adv-x="656" d="M253 1350H103V1500H553V1350H403V150H553V0H103V150H253V1350Z" />
<glyph unicode="J" glyph-name="J" horiz-adv-x="941" d="M570 1350H415V1500H865V1350H720V400Q720 0 389 0Q57 0 57 380H207Q207 150 389 150Q570 150 570 400V1350Z" />
<glyph unicode="K" glyph-name="K" horiz-adv-x="1231" d="M1036 0L498 805L311 626V0H161V1500H311V833L1004 1500H1221L608 911L1216 0H1036Z" />
<glyph unicode="L" glyph-name="L" horiz-adv-x="1030" d="M311 150H1020V0H161V1500H311V150Z" />
<glyph unicode="M" glyph-name="M" horiz-adv-x="1616" d="M1243 1500H1455V0H1305V1218L889 0H727L311 1218V0H161V1500H373L808 225L1243 1500Z" />
<glyph unicode="N" glyph-name="N" horiz-adv-x="1393" d="M311 1267V0H161V1500H349L1082 235V1500H1232V0H1045L311 1267Z" />
<glyph unicode="O" glyph-name="O" horiz-adv-x="1322" d="M369 1500T661 1500Q954 1500 1100 1313Q1246 1125 1246 750Q1246 375 1100 188Q954 0 661 0Q369 0 222 188Q76 375 76 750Q76 1125 222 1313Q369 1500 661 1500ZM879 1350T661 1350Q444 1350 335 1200Q226
1050 226 750Q226 450 335 300Q444 150 661 150Q879 150 987 300Q1096 450 1096 750Q1096 1050 987 1200Q879 1350 661 1350Z" />
<glyph unicode="P" glyph-name="P" horiz-adv-x="1239" d="M1191 1090Q1191 885 1067 783Q944 680 696 680H311V0H161V1500H696Q944 1500 1067 1398Q1191 1295 1191 1090ZM311 830H696Q869 830 955 895Q1041 960 1041 1090Q1041 1220 955 1285Q869 1350 696 1350H311V830Z"
/>
<glyph unicode="Q" glyph-name="Q" horiz-adv-x="1334" d="M1017 348Q1096 495 1096 750Q1096 1050 987 1200Q879 1350 661 1350Q444 1350 335 1200Q226 1050 226 750Q226 450 335 300Q444 150 661 150Q821 150 922 231L674 412L762 534L1017 348ZM1053 136Q910
0 661 0Q369 0 222 188Q76 375 76 750Q76 1125 222 1313Q369 1500 661 1500Q954 1500 1100 1313Q1246 1125 1246 750Q1246 437 1144 255L1328 121L1240 0L1053 136Z" />
<glyph unicode="R" glyph-name="R" horiz-adv-x="1252" d="M311 830H696Q869 830 955 895Q1041 960 1041 1090Q1041 1220 955 1285Q869 1350 696 1350H311V830ZM1076 0L748 681Q722 680 696 680H311V0H161V1500H696Q944 1500 1067 1398Q1191 1295 1191 1090Q1191
934 1119 837Q1047 740 903 703L1242 0H1076Z" />
<glyph unicode="S" glyph-name="S" horiz-adv-x="1204" d="M615 1500Q1113 1500 1113 1100H963Q963 1350 615 1350Q267 1350 267 1147Q267 943 510 892L754 839Q1143 756 1143 399Q1143 0 615 0Q87 0 87 500H237Q237 150 615 150Q993 150 993 399Q993 649 720
708L476 761Q117 834 117 1147Q117 1500 615 1500Z" />
<glyph unicode="T" glyph-name="T" horiz-adv-x="1076" d="M464 1350H10V1500H1066V1350H614V0H464V1350Z" />
<glyph unicode="U" glyph-name="U" horiz-adv-x="1386" d="M693 0Q143 0 143 500V1500H293V500Q293 150 693 150Q1093 150 1093 500V1500H1243V500Q1243 0 693 0Z" />
<glyph unicode="V" glyph-name="V" horiz-adv-x="1222" d="M1053 1500H1212L694 0H528L10 1500H169L611 218L1053 1500Z" />
<glyph unicode="W" glyph-name="W" horiz-adv-x="1999" d="M1079 1500L1456 217L1832 1500H1989L1548 0H1363L1000 1236L636 0H451L10 1500H167L544 217L920 1500H1079Z" />
<glyph unicode="X" glyph-name="X" horiz-adv-x="1258" d="M629 619L201 0H18L538 751L20 1500H203L629 884L1055 1500H1238L721 751L1240 0H1057L629 619Z" />
<glyph unicode="Y" glyph-name="Y" horiz-adv-x="1212" d="M531 631L10 1500H185L606 797L1027 1500H1202L681 631V9H531V631Z" />
<glyph unicode="Z" glyph-name="Z" horiz-adv-x="1193" d="M930 1350H76V1500H1117V1350L264 150H1117V0H76V150L930 1350Z" />
<glyph unicode="[" glyph-name="bracketleft" horiz-adv-x="665" d="M176 1500H557V1350H326V-284H557V-434H176V1500Z" />
<glyph unicode="\" glyph-name="backslash" horiz-adv-x="752" d="M215 1500L700 -33H537L52 1500H215Z" />
<glyph unicode="]" glyph-name="bracketright" horiz-adv-x="665" d="M339 1350H108V1500H489V-434H108V-284H339V1350Z" />
<glyph unicode="^" glyph-name="asciicircum" horiz-adv-x="1046" d="M446 1500H596L913 722H772L522 1336L274 722H133L446 1500Z" />
<glyph unicode="_" glyph-name="underscore" horiz-adv-x="1197" d="M1213 -241V-376H-16V-241H1213Z" />
<glyph unicode="a" glyph-name="a" horiz-adv-x="1115" d="M819 620Q732 584 594 565Q407 539 313 478Q219 417 219 321Q219 236 274 193Q329 150 439 150Q546 150 641 204Q736 258 819 365V620ZM69 850Q69 995 182 1068Q294 1140 519 1140Q744 1140 857 1063Q969
985 969 830V0H819V186Q736 93 641 47Q546 0 439 0Q254 0 162 80Q69 161 69 321Q69 477 194 571Q318 666 567 698Q819 732 819 790V830Q819 910 744 950Q669 990 519 990Q369 990 294 955Q219 920 219 850H69Z" />
<glyph unicode="b" glyph-name="b" horiz-adv-x="1115" d="M296 0H146V1500H296V973Q392 1140 596 1140Q1046 1140 1046 570Q1046 0 596 0Q392 0 296 167V0ZM296 768T296 570Q296 373 372 262T596 150Q896 150 896 570Q896 990 596 990Q449 990 373 879Z" />
<glyph unicode="c" glyph-name="c" horiz-adv-x="1031" d="M956 210T901 143Q782 0 544 0Q307 0 188 143Q69 285 69 570Q69 855 188 998Q307 1140 544 1140Q782 1140 901 998Q924 969 943 934L812 858Q802 875 792 889Q714 990 544 990Q374 990 297 889Q219 788
219 570Q219 353 297 252Q374 150 544 150Q714 150 792 252Q823 292 841 352L986 308Q956 210 901 143Z" />
<glyph unicode="d" glyph-name="d" horiz-adv-x="1115" d="M819 167Q723 0 519 0Q69 0 69 570Q69 1140 519 1140Q723 1140 819 973V1500H969V0H819V167ZM666 990T519 990Q219 990 219 570Q219 150 519 150Q666 150 742 261T819 570Q819 768 743 879Z" />
<glyph unicode="e" glyph-name="e" horiz-adv-x="1083" d="M219 545Q224 347 297 252Q374 150 544 150Q714 150 792 252Q823 293 842 353H998Q969 225 901 143Q782 0 544 0Q307 0 188 142T69 570Q69 855 188 997T544 1140Q782 1140 900 998T1019 570V545H219ZM861
695Q845 820 792 889Q714 990 544 990Q374 990 297 889Q243 820 227 695H861Z" />
<glyph unicode="f" glyph-name="f" horiz-adv-x="501" d="M179 1140V1250Q179 1500 521 1500V1365Q329 1365 329 1250V1140H491V990H329V0H179V990H39V1140H179Z" />
<glyph unicode="g" glyph-name="g" horiz-adv-x="1115" d="M519 990Q219 990 219 570Q219 150 519 150Q666 150 742 261T819 570Q819 768 743 879T519 990ZM819 130V167Q723 0 519 0Q69 0 69 570Q69 1140 519 1140Q723 1140 819 973V1140H969V130Q969 -360 539
-360Q169 -360 89 -85L214 -65Q284 -210 539 -210Q819 -210 819 130Z" />
<glyph unicode="h" glyph-name="h" horiz-adv-x="1184" d="M898 0V710Q898 990 638 990Q501 990 400 869T298 700V0H148V1500H298V943Q454 1140 638 1140Q1048 1140 1048 710V0H898Z" />
<glyph unicode="i" glyph-name="i" horiz-adv-x="424" d="M137 1350V1500H287V1350H137ZM287 1140V0H137V1140H287Z" />
<glyph unicode="j" glyph-name="j" horiz-adv-x="474" d="M187 1350V1500H337V1350H187ZM10 -360V-210Q187 -210 187 -50V1140H337V-50Q337 -360 10 -360Z" />
<glyph unicode="k" glyph-name="k" horiz-adv-x="1054" d="M296 632L798 1140H1009L540 666L1044 0H856L434 558L296 418V0H146V1500H296V632Z" />
<glyph unicode="l" glyph-name="l" horiz-adv-x="450" d="M300 1500V0H150V1500H300Z" />
<glyph unicode="m" glyph-name="m" horiz-adv-x="1732" d="M946 700V0H796V710Q796 990 576 990Q439 990 368 869T296 700V0H146V1140H296V943Q432 1140 606 1140Q853 1140 920 908L946 943Q1082 1140 1256 1140Q1596 1140 1596 700V0H1446V710Q1446 990 1226
990Q1089 990 1018 869T946 700Z" />
<glyph unicode="n" glyph-name="n" horiz-adv-x="1184" d="M898 0V710Q898 990 638 990Q501 990 400 869T298 700V0H148V1140H298V943Q454 1140 638 1140Q1048 1140 1048 710V0H898Z" />
<glyph unicode="o" glyph-name="o" horiz-adv-x="1084" d="M867 353T867 570Q867 788 790 889Q712 990 542 990Q372 990 295 889Q217 788 217 570Q217 353 295 252Q372 150 542 150Q712 150 790 252Q867 353 867 570ZM67 285T67 570Q67 855 186 998Q305 1140 542
1140Q780 1140 899 998Q1017 855 1017 570Q1017 285 899 143Q780 0 542 0Q305 0 186 143Q67 285 67 570Z" />
<glyph unicode="p" glyph-name="p" horiz-adv-x="1115" d="M296 973Q392 1140 596 1140Q1046 1140 1046 570Q1046 0 596 0Q392 0 296 167V-360H146V1140H296V973ZM449 150T596 150Q896 150 896 570Q896 990 596 990Q449 990 373 879T296 570Q296 372 372 261Z" />
<glyph unicode="q" glyph-name="q" horiz-adv-x="1115" d="M819 1140H969V-360H819V167Q723 0 519 0Q69 0 69 570Q69 1140 519 1140Q723 1140 819 973V1140ZM819 372T819 570Q819 767 743 878T519 990Q219 990 219 570Q219 150 519 150Q666 150 742 261Z" />
<glyph unicode="r" glyph-name="r" horiz-adv-x="676" d="M656 990Q509 990 403 869T296 700V0H146V1140H296V943Q462 1140 656 1140V990Z" />
<glyph unicode="s" glyph-name="s" horiz-adv-x="1026" d="M77 0T77 361H227Q227 150 527 150Q827 150 827 350Q827 457 635 507L475 546Q107 635 107 850Q107 1140 527 1140Q947 1140 947 818H797Q797 990 527 990Q257 990 257 850Q257 743 518 676L678 637Q977
565 977 350Q977 0 527 0Q77 0 77 361Z" />
<glyph unicode="t" glyph-name="t" horiz-adv-x="566" d="M192 990H31V1140H192V1500H342V1140H551V990H342V290Q342 150 551 150V0Q192 0 192 290V990Z" />
<glyph unicode="u" glyph-name="u" horiz-adv-x="1184" d="M286 1140V430Q286 150 546 150Q683 150 784 271T886 440V1140H1036V0H886V197Q730 0 546 0Q136 0 136 430V1140H286Z" />
<glyph unicode="v" glyph-name="v" horiz-adv-x="929" d="M756 1140H913L545 0H384L16 1140H173L464 242L756 1140Z" />
<glyph unicode="w" glyph-name="w" horiz-adv-x="1448" d="M724 844L504 0H313L16 1140H171L409 231L646 1140H802L1040 231L1277 1140H1432L1135 0H944L724 844Z" />
<glyph unicode="x" glyph-name="x" horiz-adv-x="941" d="M471 433L188 0H10L382 570L10 1140H188L471 707L753 1140H931L560 570L931 0H753L471 433Z" />
<glyph unicode="y" glyph-name="y" horiz-adv-x="1023" d="M492 266L845 1140H1007L400 -360H238L407 58L16 1140H175L492 266Z" />
<glyph unicode="z" glyph-name="z" horiz-adv-x="1071" d="M982 990L250 150H1012V0H59V150L791 990H89V1140H982V990Z" />
<glyph unicode="{" glyph-name="braceleft" horiz-adv-x="635" d="M60 600Q171 623 195 667T220 883V1225Q220 1434 365 1481Q402 1493 443 1493H537V1400Q355 1400 355 1251V852Q355 581 210 530Q355 479 355 208V-191Q355 -340 537 -340V-433H443Q402 -433 365
-421Q220 -374 220 -165V177Q220 348 196 392T60 460V600Z" />
<glyph unicode="|" glyph-name="bar" horiz-adv-x="766" d="M308 1500H458V-360H308V1500Z" />
<glyph unicode="}" glyph-name="braceright" horiz-adv-x="635" d="M575 460Q464 437 440 393T415 177V-165Q415 -374 270 -421Q233 -433 192 -433H98V-340Q280 -340 280 -191V208Q280 479 425 530Q280 581 280 852V1251Q280 1400 98 1400V1493H192Q233 1493 270
1481Q415 1434 415 1225V883Q415 712 439 668T575 600V460Z" />
<glyph unicode="~" glyph-name="asciitilde" horiz-adv-x="1200" d="M800 250Q651 250 576 375L538 438Q500 500 400 500Q301 500 301 400V250H150V401Q150 650 397 650H400Q549 650 626 525L663 463Q700 400 801 400Q900 400 900 500V650H1050V500Q1050 251 800 250Z" />
<glyph unicode="&#xa0;" glyph-name="space" horiz-adv-x="614" />
</font>
</defs>
</svg>
