<?xml version="1.0" standalone="no"?>
<!DOCTYPE svg PUBLIC "-//W3C//DTD SVG 1.1//EN" "http://www.w3.org/Graphics/SVG/1.1/DTD/svg11.dtd">
<svg xmlns="http://www.w3.org/2000/svg">
<defs >
<font id="SonsieOne" horiz-adv-x="1473" ><font-face
    font-family="Sonsie One"
    units-per-em="2048"
    panose-1="2 0 0 0 0 0 0 0 0 0"
    ascent="2050"
    descent="-600"
    alphabetic="0" />
<glyph unicode=" " glyph-name="space" horiz-adv-x="772" />
<glyph unicode="!" glyph-name="exclam" horiz-adv-x="1198" d="M756 557Q560 557 490 559T419 612Q419 720 523 1123T638 1592T665 1677T739 1701T984 1719T1246 1731T1321 1674Q1321 1657 1315 1639Q1209 1351 1059 1078Q913 813 852 622Q831 557 756 557ZM820
85Q762 20 668 -18T462 -56T273 1T196 139T255 286T409 391T614 429T802 371T879 232T820 85Z" />
<glyph unicode="&quot;" glyph-name="quotedbl" horiz-adv-x="1329" d="M810 1644Q810 1500 743 1300T592 964Q567 923 548 906T502 888Q435 888 435 982Q435 1041 452 1201T471 1400T474 1468T476 1517Q477 1565 485 1612T530 1694Q592 1751 701 1751T810 1644ZM1310
1644Q1310 1500 1243 1300T1092 964Q1067 923 1048 906T1002 888Q935 888 935 982Q935 1041 952 1201T971 1400T974 1468T976 1517Q977 1565 985 1612T1030 1694Q1092 1751 1201 1751T1310 1644Z" />
<glyph unicode="#" glyph-name="numbersign" horiz-adv-x="1479" d="M418 939Q367 939 367 998Q367 1080 384 1099Q415 1135 465 1140T594 1146H615L632 1209Q648 1271 678 1400T714 1553Q724 1590 762 1590Q809 1590 845 1568T889 1527T898 1484T895 1439T890
1406T880 1368T869 1330Q862 1303 816 1140Q915 1137 988 1137T1093 1138L1112 1209Q1128 1271 1158 1400T1194 1553Q1204 1590 1242 1590Q1289 1590 1325 1568T1369 1527T1378 1484T1375 1439T1370 1406T1360 1368T1349 1330T1297 1144Q1386 1147 1426 1147Q1477
1147 1477 1088Q1477 1006 1460 987Q1429 951 1379 946T1250 940H1240L1180 723Q1308 727 1322 727Q1373 727 1373 668Q1373 586 1356 567Q1325 531 1275 526T1146 520H1124Q1101 438 1009 54Q999 16 961 16Q946 16 913 27T860 51Q824 74 824 126Q824 177 845 250T922
524Q774 529 668 529H646Q640 504 627 458T604 373T564 202T529 54Q519 16 481 16Q466 16 433 27T380 51Q344 74 344 126Q344 177 366 253T442 523Q330 519 314 519Q263 519 263 578Q263 660 280 679Q311 715 361 720T490 726H499L559 943Q437 939 418 939ZM908
717H976L1039 944Q807 949 772 949H763L699 721Q839 717 908 717Z" />
<glyph unicode="$" glyph-name="dollar" horiz-adv-x="1877" d="M1492 1710Q1492 1674 1478 1624T1461 1565Q1709 1544 1866 1477Q1896 1464 1896 1423T1861 1299T1775 1147T1689 1077Q1671 1077 1658 1091Q1526 1235 1394 1313Q1320 1033 1272 860Q1440 734 1468
706T1530 643T1583 580T1620 516Q1655 450 1655 360T1607 194T1470 72Q1301 -17 1028 -35L979 -211Q962 -272 924 -272Q875 -272 875 -210Q875 -176 904 -40H867Q758 -40 642 -29Q632 -67 620 -109T602 -176T592 -211Q575 -272 537 -272Q488 -272 488 -210Q488
-174 522 -16Q379 2 263 29T114 73T81 128T142 290T238 415Q259 415 306 383Q507 248 573 215Q623 435 653 559Q413 755 354 889Q328 950 328 1010Q328 1205 488 1347T912 1545Q953 1680 972 1714Q1002 1774 1050 1774Q1105 1774 1105 1710Q1105 1670 1075 1570Q1143
1576 1193 1576T1307 1574Q1340 1678 1359 1714Q1389 1774 1437 1774Q1492 1774 1492 1710ZM983 1196Q983 1137 1023 1081T1139 962Q1203 1212 1248 1373Q1222 1379 1174 1379T1070 1349T994 1261L987 1237Q983 1211 983 1196ZM776 460L696 168Q765 150 810 150T886
158T939 188T963 246T916 334T776 460Z" />
<glyph unicode="%" glyph-name="percent" horiz-adv-x="2164" d="M328 1400Q488 1573 836 1573Q1074 1573 1177 1466Q1232 1408 1232 1326T1197 1176T1093 1055T916 972T639 941T360 1011T249 1198T328 1400ZM545 1191Q545 1129 575 1091T694 1053T862 1135T941
1334Q941 1429 881 1454Q854 1466 813 1466Q720 1466 633 1384T545 1191ZM2036 1485Q2036 1436 1969 1380L343 33Q292 -9 257 -9T205 8T187 54Q187 101 254 157L1880 1504Q1931 1546 1966 1546T2018 1529T2036 1485ZM1056 415Q1216 588 1564 588Q1802 588 1905
480Q1960 423 1960 341T1925 191T1821 70T1644 -13T1367 -44T1088 26T977 213T1056 415ZM1273 206Q1273 144 1303 106T1422 68T1590 150T1669 349Q1669 444 1609 470Q1582 481 1541 481Q1448 481 1361 399T1273 206Z" />
<glyph unicode="&amp;" glyph-name="ampersand" horiz-adv-x="2177" d="M1636 1327Q1636 1191 1542 1097T1280 931Q1457 620 1965 226Q2004 195 2004 153T1937 84Q1536 -75 1398 -75Q1335 -75 1270 -22T1119 120Q993 47 832 4T548 -40T343 -21T196 38Q56 120 56
289Q56 644 637 824Q561 1007 561 1140T610 1369T745 1525Q919 1646 1170 1646Q1524 1646 1612 1450Q1636 1396 1636 1327ZM2088 748Q1964 651 1794 570Q1767 557 1743 557Q1694 557 1694 595Q1694 622 1742 695Q1834 834 1904 1078Q1917 1124 1963 1124T2050 1115T2133
1087T2202 1036T2230 957T2192 855T2088 748ZM1012 238Q826 459 707 679Q555 551 555 391Q555 206 800 206Q900 206 1012 238ZM1213 1077Q1397 1209 1397 1373Q1397 1509 1307 1509Q1251 1509 1217 1441T1182 1270T1213 1077Z" />
<glyph unicode="&apos;" glyph-name="quotesingle" horiz-adv-x="819" d="M810 1644Q810 1500 743 1300T592 964Q567 923 548 906T502 888Q435 888 435 982Q435 1041 452 1201T471 1400T474 1468T476 1517Q477 1565 485 1612T530 1694Q592 1751 701 1751T810 1644Z" />
<glyph unicode="(" glyph-name="parenleft" horiz-adv-x="1193" d="M1362 1598Q1094 1417 900 1109Q807 960 751 780T695 419Q695 129 839 -129Q859 -164 905 -222T952 -292Q952 -323 920 -323T811 -284Q368 -56 368 435Q368 1074 899 1465Q1062 1585 1274 1690Q1392
1748 1437 1748T1483 1719Q1483 1685 1414 1636Q1379 1611 1362 1598Z" />
<glyph unicode=")" glyph-name="parenright" horiz-adv-x="1193" d="M-8 -194Q259 -12 452 296Q546 445 602 625T658 986Q658 1276 514 1534Q494 1569 448 1627T401 1697Q401 1728 433 1728T542 1689Q985 1461 985 970Q985 331 454 -60Q291 -180 79 -285Q-39 -343
-84 -343T-130 -314Q-130 -280 -61 -230Q-26 -206 -8 -194Z" />
<glyph unicode="*" glyph-name="asterisk" horiz-adv-x="1315" d="M329 1256Q308 1276 308 1308T354 1398T442 1456T511 1439T579 1379T654 1303T727 1235T777 1190Q780 1291 812 1418T889 1629Q915 1674 955 1674T1056 1632T1116 1547T1042 1386Q1019 1348 997
1311T954 1239T925 1189Q1009 1224 1116 1247T1275 1270T1339 1269Q1396 1266 1396 1213Q1396 1141 1345 1078T1236 1014T1057 1033T910 1056Q967 978 1016 862T1066 693T1019 616T929 591T870 593T835 605T809 634Q790 681 790 773T783 998Q721 914 622 822Q463
673 406 673Q378 673 355 720T331 819T364 906T461 974T681 1089Q586 1109 484 1156T329 1256Z" />
<glyph unicode="+" glyph-name="plus" horiz-adv-x="1479" d="M1250 501Q1219 481 1200 480T1156 477T1115 476H1007L988 477H968L948 478Q927 478 916 479L872 480Q862 481 842 481L837 460Q821 398 792 250T757 79Q749 45 687 44L567 30Q545 30 536 38T527 82T549
195T625 485L573 484L552 483Q486 482 401 478L357 476Q330 475 295 475H285Q244 482 244 534V555Q244 569 245 576Q245 686 345 697Q393 702 471 702L550 701L569 700H590Q600 699 629 698T677 697H679L693 753Q709 817 730 924T756 1051Q763 1083 827 1087L943
1094Q986 1094 986 1046T948 862T908 720T904 707T900 693H945L965 694Q989 694 1037 696L1078 697Q1088 698 1108 698L1164 701H1180Q1234 703 1243 703L1267 698Q1281 692 1292 665L1294 650V623L1293 612V602L1291 586Q1287 545 1265 515L1250 501Z" />
<glyph unicode="," glyph-name="comma" horiz-adv-x="1198" d="M554 -32Q522 -37 492 -37Q351 -37 284 14T216 147Q216 260 329 344T590 429T818 363T899 195T853 -10T734 -197T566 -336T393 -391T315 -344Q315 -329 327 -316T387 -270T484 -171T554 -32Z" />
<glyph unicode="-" glyph-name="hyphen" horiz-adv-x="1479" d="M295 475Q244 475 244 534Q244 622 260 646Q292 691 342 696T471 702L889 693L1243 703Q1294 703 1294 644Q1294 556 1278 532Q1246 487 1196 482T1067 476L649 485L295 475Z" />
<glyph unicode="." glyph-name="period" horiz-adv-x="1198" d="M834 85Q776 20 682 -18T476 -56T287 1T210 139T269 286T423 391T628 429T816 371T893 232T834 85Z" />
<glyph unicode="/" glyph-name="slash" horiz-adv-x="1123" d="M170 -129L1003 1570Q1036 1635 1082 1635Q1111 1635 1132 1616T1154 1577T1148 1545L315 -154Q282 -219 236 -219Q208 -219 186 -200T164 -162T170 -129Z" />
<glyph unicode="0" glyph-name="zero" horiz-adv-x="1877" d="M911 1309Q974 1309 974 1269Q974 1242 917 1176Q803 1042 741 826T678 384Q678 95 830 95Q936 95 1034 243T1191 638T1251 1153Q1251 1296 1183 1370T1018 1444Q965 1444 868 1421T758 1398Q712 1398
712 1438Q712 1465 751 1498T856 1562Q1011 1635 1187 1635T1478 1586T1664 1450Q1813 1273 1813 1003Q1813 815 1762 648T1619 354T1408 134Q1163 -53 853 -53Q535 -53 365 112Q199 272 199 541Q199 715 254 860T404 1103T630 1255T911 1309Z" />
<glyph unicode="1" glyph-name="one" horiz-adv-x="1186" d="M829 92L830 55Q830 24 801 6T735 -12Q618 -12 506 -20T344 -28T274 -26T229 -16Q182 0 182 59T191 149Q283 480 446 823Q596 1137 596 1189Q596 1215 572 1230T517 1246T403 1219T292 1192T246 1208T230
1245Q230 1285 288 1324Q495 1464 687 1548T1018 1633Q1223 1633 1223 1449Q1223 1359 1196 1260T1090 974Q951 638 838 164Q829 127 829 92Z" />
<glyph unicode="2" glyph-name="two" horiz-adv-x="1877" d="M366 129Q283 9 232 9Q121 9 96 60Q84 82 84 115Q84 201 269 377T794 771Q1040 927 1109 996Q1182 1069 1195 1113T1209 1195Q1209 1332 1013 1332Q816 1332 586 1246Q494 1212 483 1208T454 1204Q400
1204 400 1253Q400 1281 414 1305T468 1368Q746 1636 1181 1636Q1463 1636 1616 1514Q1733 1420 1733 1254Q1733 1048 1547 902Q1385 774 1116 659Q988 604 870 554Q574 431 421 318Q684 324 1357 443Q1578 482 1619 482T1681 465T1703 407T1665 257T1564 52T1451
-49T1335 -55Q1167 -55 846 8T366 129Z" />
<glyph unicode="3" glyph-name="three" horiz-adv-x="1877" d="M830 121Q938 121 1031 214T1125 443Q1125 545 1032 627T786 744T634 829Q634 895 757 911Q994 939 1123 1017T1253 1208Q1253 1280 1183 1334T1006 1388T817 1368T663 1315T580 1278T564 1271Q518
1251 495 1251T457 1265T441 1303Q441 1379 623 1487Q880 1639 1269 1639Q1579 1639 1724 1484Q1799 1404 1799 1305T1753 1132T1626 1003Q1465 896 1226 851Q1504 816 1615 694Q1704 598 1704 443Q1704 329 1632 236T1436 84Q1182 -40 822 -40Q554 -40 388 -3T145
82Q121 97 112 109T103 151T125 259T183 406T249 475Q284 475 364 384Q593 121 830 121Z" />
<glyph unicode="4" glyph-name="four" horiz-adv-x="1877" d="M1568 656Q1792 652 1798 652Q1837 652 1837 610Q1837 576 1821 533Q1812 508 1762 503T1513 484Q1451 281 1447 154Q1446 132 1443 95T1439 36T1410 -4T1344 -22L946 -28Q841 -28 841 58Q841 208
969 449Q578 426 433 426T247 442T153 512T99 601Q99 612 113 630T194 728T319 882T446 1058Q594 1277 658 1523Q674 1583 702 1606T788 1629L1340 1645Q1412 1645 1412 1593Q1412 1569 1396 1534Q1389 1519 1188 1323Q595 747 595 703T984 658Q1036 658 1087 658Q1107
692 1141 748T1194 836T1235 907Q1277 982 1285 1017Q1300 1084 1371 1084L1532 1082Q1599 1082 1626 1056T1653 962T1568 656Z" />
<glyph unicode="5" glyph-name="five" horiz-adv-x="1877" d="M1661 790Q1736 698 1736 571T1684 348T1544 182T1340 61Q1112 -40 841 -40T404 -3T161 82Q137 97 128 109T119 151T141 259T199 406T265 475Q285 475 325 441T417 357T530 259Q677 141 823 141Q933
141 1018 192T1147 322T1191 490Q1191 611 1071 682T739 753Q671 753 564 744T450 735Q416 735 383 772T350 834T365 905T410 1032T469 1188T544 1380T618 1572Q628 1597 678 1632T750 1667T859 1660Q1128 1636 1294 1636T1529 1645T1709 1684Q1744 1684 1771 1665T1798
1617Q1798 1458 1770 1359T1700 1218T1580 1177T1262 1227T799 1341L580 861Q834 959 1079 959Q1522 959 1661 790Z" />
<glyph unicode="6" glyph-name="six" horiz-adv-x="1877" d="M1775 1598Q1775 1551 1715 1544Q1432 1509 1218 1374T889 1027T773 555Q773 417 829 297Q857 237 907 200T1030 162T1172 221T1278 379T1316 586Q1316 810 1181 810Q1152 810 1110 798T1054 785Q982
785 982 841Q982 886 1022 928Q1160 1071 1402 1071Q1585 1071 1700 967T1816 694T1748 390T1565 161T1300 14T981 -40T673 -1T432 116Q221 276 221 601Q221 786 291 953T484 1247T769 1467T1123 1608T1475 1657T1705 1647T1775 1598Z" />
<glyph unicode="7" glyph-name="seven" horiz-adv-x="1614" d="M394 -22Q304 -22 304 72T378 297T570 560T836 832Q1113 1093 1399 1296Q1316 1307 1201 1307T961 1281T746 1216T580 1140Q402 1048 362 1048T299 1068T277 1117Q277 1315 349 1455T514 1641Q555
1661 638 1661Q883 1661 1461 1442Q1539 1520 1582 1553T1658 1586T1740 1544T1789 1464T1751 1360T1650 1212T1510 1032T1350 821T1196 589Q1032 323 987 72Q979 26 944 10Q874 -22 394 -22Z" />
<glyph unicode="8" glyph-name="eight" horiz-adv-x="1877" d="M838 1590Q1045 1671 1298 1671T1682 1581T1812 1337Q1812 1257 1769 1181T1658 1058T1524 1011Q1496 1011 1478 1026T1460 1064T1473 1106T1506 1141T1544 1179Q1590 1230 1590 1318T1529 1454T1354
1503T1154 1444T1069 1291Q1069 1195 1201 1094Q1260 1049 1331 1001T1473 899T1603 786Q1735 656 1735 494Q1735 163 1370 28Q1154 -51 848 -51Q437 -51 254 139Q164 233 164 358Q164 645 680 788Q577 869 520 953T462 1142T512 1337T645 1487T838 1590ZM535 341Q535
243 620 181T831 118T1046 185T1135 349Q1135 399 1116 429T1083 478T1045 518T1003 556T952 596T900 633Q815 689 785 711Q535 571 535 341Z" />
<glyph unicode="9" glyph-name="nine" horiz-adv-x="1877" d="M239 1Q239 48 299 55Q582 90 796 225T1125 572T1241 1044Q1241 1182 1185 1302Q1157 1362 1107 1399T984 1437T842 1378T736 1220T698 1013Q698 789 833 789Q862 789 904 801T960 814Q1032 814 1032
758Q1032 713 992 671Q854 528 612 528Q429 528 314 632T198 905T266 1209T449 1438T714 1585T1033 1639T1341 1600T1582 1484Q1793 1323 1793 998Q1793 813 1723 646T1530 352T1245 132T891 -9T539 -58T309 -48T239 1Z" />
<glyph unicode=":" glyph-name="colon" horiz-adv-x="1198" d="M820 85Q762 20 668 -18T462 -56T273 1T196 139T255 286T409 391T614 429T802 371T879 232T820 85ZM1012 785Q954 720 860 682T654 644T465 701T388 839T447 986T601 1091T806 1129T994 1071T1071
932T1012 785Z" />
<glyph unicode=";" glyph-name="semicolon" horiz-adv-x="1198" d="M549 -32Q517 -37 487 -37Q346 -37 279 14T211 147Q211 260 324 344T585 429T813 363T894 195T848 -10T729 -197T561 -336T388 -391T310 -344Q310 -329 322 -316T382 -270T479 -171T549 -32ZM992
785Q934 720 840 682T634 644T445 701T368 839T427 986T581 1091T786 1129T974 1071T1051 932T992 785Z" />
<glyph unicode="&lt;" glyph-name="less" horiz-adv-x="1479" d="M1099 241Q1129 225 1129 183T1077 85T983 29Q974 29 965 35Q574 298 296 468Q267 485 267 558T370 684Q606 804 852 945T1115 1097T1140 1107Q1165 1107 1202 1048T1240 958Q1240 891 1187 866Q890
725 563 548Q838 382 1099 241Z" />
<glyph unicode="=" glyph-name="equal" horiz-adv-x="1479" d="M267 275Q216 275 216 334Q216 422 232 446Q264 491 314 496T443 502L861 493L1215 503Q1266 503 1266 444Q1266 356 1250 332Q1218 287 1168 282T1039 276L621 285L267 275ZM371 735Q320 735 320
794Q320 882 336 906Q368 951 418 956T547 962L965 953L1319 963Q1370 963 1370 904Q1370 816 1354 792Q1322 747 1272 742T1143 736L725 745L371 735Z" />
<glyph unicode="&gt;" glyph-name="greater" horiz-adv-x="1479" d="M423 875Q393 891 393 933T445 1031T539 1087Q548 1087 557 1081Q948 818 1226 648Q1255 631 1255 558T1152 432Q916 312 670 171T407 19T382 9Q357 9 320 68T282 158Q282 225 335 250Q632 391
959 568Q684 734 423 875Z" />
<glyph unicode="?" glyph-name="question" horiz-adv-x="1534" d="M394 1209Q371 1196 326 1196T281 1234Q281 1308 361 1475T492 1670T682 1719T961 1740T1221 1719T1437 1653T1591 1532T1647 1361T1610 1191T1509 1056T1367 943T1199 840T1030 744Q839 637 755
534Q743 520 713 520T614 570T545 670T600 789T735 927T892 1062Q1082 1223 1082 1285Q1082 1318 1048 1338T951 1359Q760 1359 638 1321T394 1209ZM888 85Q830 20 736 -18T530 -56T341 1T264 139T323 286T477 391T682 429T870 371T947 232T888 85Z" />
<glyph unicode="@" glyph-name="at" horiz-adv-x="2961" d="M1844 1061L2302 1040Q2328 1040 2341 1025T2354 970T2316 818T2233 598Q2112 311 2112 221Q2112 177 2138 156T2226 134Q2428 134 2553 283T2678 688Q2678 983 2404 1146T1601 1310Q877 1310 522 929Q307
698 307 385Q307 235 362 118T511 -78T742 -206Q998 -301 1359 -301T2064 -238T2669 -57L2703 -142Q2430 -282 2076 -356T1357 -430Q436 -430 222 65Q162 202 162 402T261 798T545 1140T1011 1370T1641 1454T2259 1360T2677 1094T2825 700Q2825 246 2462 68Q2243
-40 1910 -40Q1734 -40 1627 -7T1480 116Q1422 57 1313 9T1082 -40T881 -19T734 47T628 168T588 346T621 549T721 743T882 906T1105 1019T1384 1061Q1622 1061 1747 949Q1748 957 1748 974L1747 1011Q1747 1061 1844 1061ZM1314 214Q1502 214 1628 502Q1686 634
1686 716T1659 829T1551 860T1377 786T1226 598T1169 395T1209 259T1314 214Z" />
<glyph unicode="A" glyph-name="A" horiz-adv-x="1880" d="M1183 -40Q850 -40 850 181Q850 307 1009 684T1168 1208Q1168 1290 1108 1324T933 1359T700 1339T549 1319T515 1349Q515 1388 656 1452Q927 1576 1253 1576Q1511 1576 1639 1483T1768 1181Q1768 1057
1724 871T1637 520T1593 295T1616 210Q1645 180 1728 180Q1779 180 1785 169T1792 146Q1792 100 1750 71Q1591 -40 1183 -40ZM601 684L857 690Q927 690 927 649Q927 620 894 603Q778 544 494 528Q413 368 413 247Q413 193 427 148T441 82Q441 29 374 11T178 -8T7
15T-34 99Q-34 211 31 346T199 604T425 847T666 1052Q926 1245 1020 1245Q1063 1245 1063 1219T1021 1161Q932 1096 808 963T587 684H601Z" />
<glyph unicode="B" glyph-name="B" horiz-adv-x="2046" d="M1287 -40Q994 -40 749 64Q698 13 623 -3T422 -20T178 9T-9 80T-79 162Q-79 185 -59 199T-13 213Q79 213 123 242T209 352T290 536T362 732T438 916Q531 1119 671 1186Q738 1218 846 1235T1015 1253T1095
1252T1133 1245Q1171 1235 1171 1203Q1171 1181 1163 1163T1117 1084T1019 833Q1263 848 1392 934T1521 1156Q1521 1339 1211 1364Q1148 1369 1027 1369T758 1341T527 1278T376 1216T290 1187Q238 1187 238 1221T303 1304T482 1399T736 1486Q1050 1576 1385 1576T1893
1472T2067 1195T1895 909T1421 783Q1614 781 1776 690Q1854 647 1903 577T1952 415T1914 243T1812 110T1660 24Q1499 -40 1287 -40ZM991 745Q972 682 916 491T838 235T815 168Q847 164 917 164T1075 183T1232 243T1341 351T1381 516T1268 677T991 745Z" />
<glyph unicode="C" glyph-name="C" horiz-adv-x="1877" d="M861 322Q956 208 1159 208Q1349 208 1553 272Q1620 293 1652 293Q1710 293 1710 260Q1710 212 1634 158T1442 60T1180 -11T901 -40Q667 -40 489 33T213 241T115 537T169 834T315 1081T531 1285T792 1442Q1085
1576 1354 1576T1772 1466T1921 1195Q1921 1021 1818 890Q1769 826 1688 788T1504 750Q1436 750 1388 769Q1297 805 1297 872Q1297 895 1349 1002T1455 1222T1508 1378T1472 1437T1370 1453T1219 1403T1057 1265T914 1070T810 839T771 615T793 446T861 322Z" />
<glyph unicode="D" glyph-name="D" horiz-adv-x="2046" d="M1041 1360Q914 1360 771 1336T529 1281T351 1227T255 1202Q200 1202 200 1240T260 1319Q453 1448 697 1512T1165 1576T1531 1539T1767 1438T1920 1282Q2032 1111 2032 855Q2032 585 1884 358Q1721 109
1453 12Q1307 -40 1140 -40Q874 -40 724 44Q682 3 622 -8T456 -20T254 -3T85 40T-33 99T-79 158T-59 198T-12 213Q78 213 120 241T207 349T290 529T361 723T438 911Q531 1120 671 1186Q740 1218 847 1235T1062 1253T1170 1203Q1170 1165 1125 1093T1027 870T912
510T813 204L796 160Q827 157 893 157T1040 185T1182 261T1290 376T1370 516T1423 674Q1462 827 1462 1002Q1462 1360 1041 1360Z" />
<glyph unicode="E" glyph-name="E" horiz-adv-x="1877" d="M1386 919Q1424 919 1424 861T1386 760T1304 715T1212 705T1104 686T993 652T900 603Q806 543 806 439Q806 370 840 319T931 239Q1039 185 1170 185Q1371 185 1684 271Q1702 276 1715 276Q1753 276 1753
238Q1753 168 1611 102T1263 -2T876 -40T549 -17T294 52T122 176T60 355T120 536T280 669T510 758Q757 824 1055 824Q843 835 739 860T574 908T472 962Q378 1030 378 1132T454 1320T657 1462Q918 1576 1263 1576Q1732 1576 1907 1471Q1945 1448 1945 1404T1880
1257T1774 1116T1699 1077T1636 1102T1592 1164Q1483 1409 1256 1409Q1124 1409 1034 1338T943 1164T1047 987T1302 913L1386 919Z" />
<glyph unicode="F" glyph-name="F" horiz-adv-x="1877" d="M1468 843Q1612 843 1612 777Q1612 735 1564 626T1484 469T1421 422T1347 447T1260 503T1146 562T1010 594Q910 236 899 198T864 121T809 57T744 16T662 -8Q435 -43 222 9Q103 38 32 80T-39 163Q-36 186
-18 199T26 213Q118 213 161 242T244 351T317 529T381 709T448 876Q531 1059 660 1121T1051 1183Q1207 1183 1207 1131Q1207 1111 1188 1074Q1113 933 1050 729Q1135 774 1248 808T1468 843ZM1773 1051Q1628 1178 1420 1256T999 1335Q872 1335 693 1302T428 1230T315
1191Q282 1191 282 1222T337 1299T497 1392T736 1482Q1040 1576 1402 1576Q1638 1576 1797 1556Q2092 1521 2092 1444Q2089 1403 2052 1308T1964 1127T1880 1030Q1859 1024 1833 1024T1773 1051Z" />
<glyph unicode="G" glyph-name="G" horiz-adv-x="2046" d="M1557 1373Q1557 1438 1388 1438Q1316 1438 1227 1393T1060 1266T922 1083Q789 863 789 632T881 271T1162 142Q1178 142 1186 143Q1226 245 1258 355T1291 489T1263 530T1201 552Q1111 568 1111 611Q1111
667 1255 697T1598 727T1862 709T1926 648Q1926 619 1891 550T1776 216T1660 -104Q1601 -195 1481 -240T1198 -286Q901 -286 901 -223Q901 -181 976 -138Q1062 -88 1105 -27Q1123 0 1140 35Q1003 0 822 0T506 39T290 153Q135 296 135 541Q135 685 192 823T346 1073T572
1280T844 1440Q1147 1576 1443 1576T1884 1487T2030 1238Q2030 1145 1947 1064Q1853 972 1652 972Q1584 972 1536 991Q1445 1027 1445 1094Q1445 1109 1501 1223T1557 1373Z" />
<glyph unicode="H" glyph-name="H" horiz-adv-x="2046" d="M434 1227L316 1203Q294 1203 283 1209T272 1234Q272 1279 364 1354T618 1493T910 1556T1095 1511T1151 1355T1105 1101T973 749L1147 754Q1217 754 1217 713Q1217 684 1184 667Q1098 623 913 601Q843
426 806 310T768 121L771 55Q771 24 737 6T666 -12L265 -18Q154 -18 130 20Q119 39 119 78T136 191T244 480T411 882T487 1127T474 1207T434 1227ZM1640 -12L1269 -18Q1158 -18 1134 20Q1123 39 1123 68Q1123 162 1196 398T1354 898T1454 1249T1468 1405T1498 1491T1617
1510T1831 1519T1998 1528T2061 1505T2082 1445Q2082 1269 1962 942Q1912 805 1862 666Q1741 334 1741 118L1745 55Q1745 24 1711 6T1640 -12Z" />
<glyph unicode="I" glyph-name="I" horiz-adv-x="1366" d="M466 594Q223 744 223 982Q223 1088 276 1180T416 1336T614 1446Q833 1536 1076 1536Q1227 1536 1282 1472Q1330 1415 1330 1324T1287 1086T1150 678T1008 267T858 49T574 -20T232 25T72 130Q72 175 139
182Q238 194 282 226T366 340T466 594ZM648 1221Q648 1245 634 1260T597 1275T550 1259T498 1208Q431 1127 431 984T508 717Q648 1133 648 1221Z" />
<glyph unicode="J" glyph-name="J" horiz-adv-x="1366" d="M681 -340Q507 -510 211 -510Q68 -510 -25 -440T-118 -250T-75 -32T43 142Q187 290 404 385Q428 460 502 668Q650 1084 650 1173Q650 1205 639 1218T587 1232T378 1160Q331 1140 286 1140T240 1181Q240
1208 273 1238Q415 1361 635 1448T1030 1536T1267 1498T1330 1365T1274 1082T1108 584T952 138T839 -125T681 -340ZM130 -367Q155 -367 186 -286Q231 -166 358 240Q242 142 160 13T78 -242T130 -367Z" />
<glyph unicode="K" glyph-name="K" horiz-adv-x="2216" d="M464 1227L346 1203Q324 1203 313 1209T302 1237T327 1292T384 1346Q499 1428 657 1492T942 1556T1125 1511T1181 1336Q1181 1188 1035 854Q974 715 914 578Q768 247 768 121L771 55Q771 24 737 6T666
-12L265 -18Q154 -18 130 20Q119 39 119 78T133 181T214 398T346 686Q517 1035 517 1135Q517 1187 504 1207T464 1227ZM1740 1516L2148 1539Q2193 1539 2193 1500T2142 1296T2038 1048T1921 911T1769 820Q1622 757 1387 727Q1414 729 1469 729T1569 727T1662 718T1743
698T1804 664Q1859 624 1859 541Q1859 520 1850 467T1841 361T1852 274T1887 222Q1927 194 2001 194T2075 144Q2075 78 1956 22Q1825 -40 1544 -40Q1280 -40 1206 58Q1174 102 1174 174T1212 387T1251 563T1241 625T1214 666T1177 688T1136 701T1098 708Q1061 716
1061 736Q1061 780 1124 804Q1373 892 1488 1046Q1547 1125 1582 1214T1645 1429Q1663 1516 1740 1516Z" />
<glyph unicode="L" glyph-name="L" horiz-adv-x="1877" d="M510 -8L111 -18Q12 -18 12 50Q12 81 38 104T108 156T186 234T263 398T333 624Q419 973 456 1078T513 1232T556 1322T602 1394T654 1449T711 1490T779 1519T856 1539T948 1550Q1031 1556 1169 1556T1374
1543T1441 1488Q1441 1454 1364 1407Q1278 1354 1212 1235Q1141 1105 1101 992T1038 809T982 639T926 471Q832 202 669 131Q921 144 1086 220Q1176 261 1240 297T1385 404Q1490 498 1572 583T1661 676Q1687 703 1724 703T1784 685T1807 638Q1807 523 1733 285Q1707
203 1681 151T1614 58Q1536 -20 1363 -20L510 -8Z" />
<glyph unicode="M" glyph-name="M" horiz-adv-x="3073" d="M444 1227L326 1203Q304 1203 293 1209T282 1238Q282 1274 372 1352T625 1493T913 1556T1085 1505T1131 1336Q1131 1321 1127 1285Q1490 1577 1794 1577Q1937 1577 2011 1512T2085 1328V1319Q2416 1577
2677 1577Q2825 1577 2910 1508T2995 1321T2944 1051T2831 779Q2667 456 2667 351Q2667 284 2707 246T2791 200T2848 189T2879 178Q2911 166 2911 137Q2911 66 2757 13T2376 -40Q2076 -40 2076 183Q2076 282 2126 430T2236 706Q2395 1045 2395 1159Q2395 1201 2371
1227T2294 1253Q2203 1253 2063 1181Q2024 1029 1912 763T1752 338T1698 65Q1696 32 1680 10T1637 -12L1231 -18Q1124 -18 1100 18Q1089 35 1089 68T1112 197T1201 464T1328 763Q1478 1084 1478 1163Q1478 1254 1368 1254T1104 1168Q1070 1039 978 813T817 400T748
121L751 55Q751 24 717 6T646 -12L275 -18Q164 -18 140 20Q129 39 129 78T146 192T254 481T421 882T497 1127T484 1207T444 1227Z" />
<glyph unicode="N" glyph-name="N" horiz-adv-x="2218" d="M444 1227L326 1203Q304 1203 293 1209T282 1234Q282 1280 375 1355T629 1493T920 1556T1105 1511T1161 1336L1158 1291Q1357 1445 1515 1511T1824 1577T2058 1514T2140 1330Q2140 1207 2024 936Q1976
824 1928 714Q1812 446 1812 365Q1812 221 1955 196Q2032 183 2044 168T2056 137Q2056 66 1902 13T1556 -40Q1180 -40 1180 183Q1180 339 1288 594Q1333 701 1378 803Q1486 1048 1486 1145T1335 1243Q1247 1243 1137 1181Q1088 988 926 607Q778 261 778 121Q778
121 781 55Q781 24 747 6T676 -12L275 -18Q164 -18 140 20Q129 39 129 78T146 191T254 480T421 882T497 1127T484 1207T444 1227Z" />
<glyph unicode="O" glyph-name="O" horiz-adv-x="2048" d="M1041 1087Q875 952 788 686Q742 542 742 394Q742 135 911 135Q997 135 1089 206T1254 390T1375 660T1423 972Q1423 1192 1345 1285T1083 1378Q981 1378 863 1356T664 1308T517 1259T442 1237Q405 1237
405 1267Q405 1291 454 1329T592 1410T787 1490Q1036 1576 1274 1576Q1731 1576 1920 1310Q2031 1153 2031 922Q2031 747 1970 594T1800 325T1544 127Q1247 -40 871 -40Q135 -40 135 463Q135 604 196 733T356 958T580 1126Q832 1270 1086 1270Q1126 1270 1143 1256T1161
1226T1157 1201T1139 1176T1116 1152Q1091 1130 1041 1087Z" />
<glyph unicode="P" glyph-name="P" horiz-adv-x="2046" d="M1141 1099Q1080 1001 941 558Q974 556 1039 556Q1239 556 1376 693T1514 1049Q1514 1369 1129 1369Q977 1369 836 1347T612 1299T461 1251T370 1229Q320 1229 320 1265T388 1338T545 1411T763 1486Q1058
1576 1402 1576Q1856 1576 2020 1374Q2109 1265 2109 1111Q2109 819 1866 629Q1659 467 1328 423Q1231 410 1107 410T900 427Q858 292 835 221T782 107T721 39T638 1Q559 -20 428 -20T178 9T-9 80T-79 162Q-79 185 -59 199T-13 213Q79 213 123 242T209 352T292
538T370 736T452 923Q553 1131 691 1196Q758 1228 866 1245T1035 1263T1115 1262T1153 1255Q1191 1245 1191 1213Q1191 1191 1183 1173T1141 1099Z" />
<glyph unicode="Q" glyph-name="Q" horiz-adv-x="2048" d="M690 150Q1004 -90 1625 -90Q1829 -90 1995 -32Q2037 -18 2062 -18Q2115 -18 2115 -69Q2115 -109 2054 -202Q1852 -510 1595 -510Q1463 -510 1342 -454Q1167 -375 971 -198T690 150ZM1041 1087Q875 952
788 686Q742 542 742 394Q742 135 911 135Q997 135 1089 206T1254 390T1375 660T1423 972Q1423 1192 1345 1285T1083 1378Q981 1378 863 1356T664 1308T517 1259T442 1237Q405 1237 405 1267Q405 1291 454 1329T592 1410T787 1490Q1036 1576 1274 1576Q1731 1576
1920 1310Q2031 1153 2031 922Q2031 747 1970 594T1800 325T1544 127Q1247 -40 871 -40Q135 -40 135 463Q135 604 196 733T356 958T580 1126Q832 1270 1086 1270Q1126 1270 1143 1256T1161 1226T1157 1201T1139 1176T1116 1152Q1091 1130 1041 1087Z" />
<glyph unicode="R" glyph-name="R" horiz-adv-x="2218" d="M993 624L944 623Q878 431 836 291T769 108T714 40T638 1Q562 -20 432 -20T183 9T-8 80T-79 163Q-79 186 -60 199T-14 213Q78 213 121 242T204 351T281 534T353 727T431 909Q525 1109 664 1176Q731 1208
842 1225T1015 1243T1096 1242T1134 1235Q1173 1225 1173 1191Q1173 1170 1165 1152T1117 1066T978 721Q1509 783 1509 1109Q1509 1219 1440 1274Q1369 1329 1296 1341Q1187 1359 1057 1359T784 1335T564 1281T424 1227T345 1202Q292 1202 292 1237Q292 1281 349
1317Q547 1444 802 1510T1441 1576Q1638 1576 1770 1536T1972 1451T2088 1333T2133 1173T2100 1020T2010 906T1864 820Q1712 755 1453 714Q1651 714 1766 646T1881 454L1863 276Q1863 204 1936 194Q1967 189 1998 186Q2071 180 2071 130Q2071 62 1902 11T1530 -40Q1149
-40 1149 183Q1149 237 1182 337T1215 471Q1215 534 1163 579T993 624Z" />
<glyph unicode="S" glyph-name="S" horiz-adv-x="1877" d="M118 78Q93 90 93 128T154 290T250 415Q270 415 312 388T409 321T530 244Q688 150 837 150Q911 150 943 180T975 240T941 309T853 389T732 475T600 572T480 674Q357 790 357 900Q357 978 398 1041T504
1143T651 1208Q798 1256 954 1256Q997 1256 1018 1243T1039 1213T1024 1162T1009 1100T1045 1031T1140 945T1268 851T1408 745T1536 631Q1667 500 1667 378T1604 173T1427 46T1179 -19T850 -40T423 0T118 78ZM1774 1057Q1643 1213 1450 1289T1046 1366Q661 1366
304 1221Q256 1202 236 1202Q196 1202 196 1240Q196 1271 249 1314T403 1402T631 1487Q921 1576 1253 1576Q1744 1576 1994 1438Q2008 1430 2007 1391T1970 1269T1886 1117T1801 1047Q1792 1057 1774 1057Z" />
<glyph unicode="T" glyph-name="T" horiz-adv-x="1707" d="M1239 216L1441 235Q1530 235 1530 188T1472 105Q1330 20 1168 -10T853 -40T634 -35T504 -12T398 34Q309 98 309 231Q309 462 588 812Q799 1076 946 1120Q1023 1143 1125 1143T1228 1065Q1228 1039 1213
1003Q1156 886 1113 727T1070 440Q1070 216 1239 216ZM224 1039Q173 1039 173 1098Q173 1163 212 1276Q288 1491 375 1515Q399 1524 520 1524L1196 1508Q1246 1508 1487 1538T1741 1568Q1870 1568 1870 1480Q1870 1441 1843 1357T1770 1197T1687 1122Q1664 1122
1583 1159Q1338 1271 1188 1271T841 1242T548 1174T380 1101Q246 1039 224 1039Z" />
<glyph unicode="U" glyph-name="U" horiz-adv-x="2223" d="M1702 1527L2016 1523Q2072 1523 2117 1491T2162 1408T2137 1300Q2011 1015 1919 739T1827 345Q1827 296 1850 266T1906 224T1973 204Q2052 187 2052 153Q2052 100 1939 53T1689 -17T1450 -40Q1166 -40
1166 191Q1166 211 1167 222Q1070 114 914 37T613 -40Q312 -40 238 179Q216 244 216 338T254 562T339 788T442 998Q523 1160 523 1193Q523 1259 401 1279Q369 1284 351 1299T333 1339T363 1391T455 1444T598 1490Q780 1536 1026 1536Q1209 1536 1209 1424Q1209
1404 1149 1278T1018 1001T886 674T826 409T860 294T941 268T1014 271T1067 282T1110 294T1152 308T1181 318Q1226 536 1395 938Q1554 1318 1554 1415Q1554 1527 1702 1527Z" />
<glyph unicode="V" glyph-name="V" horiz-adv-x="2052" d="M1718 1515L2161 1526Q2195 1526 2195 1507Q2195 1416 2124 1234T1951 890T1730 590T1475 333T1206 130Q922 -50 717 -50Q595 -50 484 56T307 333T240 689Q240 839 308 1017Q331 1079 352 1127T373 1192T361
1223T322 1245Q286 1258 237 1265Q153 1279 153 1325Q153 1366 251 1415T522 1500T850 1537T1076 1518T1148 1445Q1148 1422 1132 1394Q947 1081 881 880T814 445Q814 367 836 289T892 211Q937 211 1015 282T1186 480T1367 760T1533 1098T1647 1448Q1651 1464 1654
1474T1674 1497T1718 1515Z" />
<glyph unicode="W" glyph-name="W" horiz-adv-x="2899" d="M2592 1515L2995 1526Q3029 1526 3029 1506Q3029 1457 3000 1358Q2917 1068 2732 796Q2491 442 2139 190Q1978 74 1825 12T1548 -50Q1363 -50 1289 230Q1122 99 962 25T679 -50T444 56T267 333T200 689Q200
841 268 1016Q291 1077 312 1125T333 1191T321 1222T282 1244Q246 1257 197 1264Q113 1278 113 1324Q113 1365 211 1414T482 1499T810 1536T1036 1517T1108 1444Q1108 1421 1092 1393Q906 1084 840 883T774 445Q774 367 796 289T852 211Q897 211 969 278T1124 465T1288
734Q1469 1070 1547 1428Q1558 1487 1618 1495L2041 1506Q2075 1506 2075 1483Q2030 1267 1886 983Q1830 871 1776 764Q1655 521 1655 397Q1655 261 1687 227Q1702 211 1737 211T1844 264T2007 426T2187 680Q2394 1012 2521 1448Q2541 1515 2592 1515Z" />
<glyph unicode="X" glyph-name="X" horiz-adv-x="1881" d="M212 1267Q152 1267 152 1311Q152 1348 203 1393T340 1480T551 1548T816 1576T1039 1497T1187 1222T1372 734T1570 303Q1616 219 1727 197Q1738 195 1760 192T1792 186T1817 179T1838 166Q1855 148 1855
118Q1855 58 1718 9T1373 -40Q1153 -40 1050 14Q946 68 888 160Q855 214 822 311T728 571Q399 137 242 23Q175 -26 136 -26T60 33T3 159T-18 260Q-18 339 40 364Q248 452 390 530T672 721Q605 895 494 1173Q471 1233 435 1254T326 1275L212 1267ZM1377 948Q1324
948 1324 1005Q1324 1028 1367 1104T1504 1294T1702 1485T1875 1564T1983 1472T2021 1215Q2021 1135 1958 1124Q1800 1096 1686 1062T1430 961Q1402 948 1377 948Z" />
<glyph unicode="Y" glyph-name="Y" horiz-adv-x="2048" d="M1704 1526L1974 1523Q2028 1523 2072 1497T2117 1430Q2117 1412 2102 1382Q2037 1252 1878 729T1680 108T1592 -79T1490 -233T1377 -347T1256 -427T1123 -476Q993 -510 827 -510Q728 -510 728 -457Q728
-425 785 -367T852 -296Q973 -140 1119 222Q1017 147 879 97T632 47T456 67T332 126Q209 212 209 387Q209 471 248 600T333 835T426 1042T477 1160T483 1193Q483 1259 361 1279Q329 1284 311 1299T293 1342T338 1404T464 1468Q649 1536 956 1536Q1139 1536 1139
1427Q1139 1347 968 963T796 437Q796 303 966 303Q1056 303 1165 338Q1354 837 1506 1467Q1514 1503 1559 1514T1704 1526Z" />
<glyph unicode="Z" glyph-name="Z" horiz-adv-x="1877" d="M1697 456Q1764 456 1764 401Q1764 339 1720 229T1641 64T1541 -15T1339 -40T1020 -6T699 88Q621 18 573 -10T464 -38T263 0T65 65T-8 108T-23 151Q-23 251 403 593Q585 739 772 890Q1231 1259 1310 1424Q1368
1547 1456 1547Q1548 1547 1720 1460Q1793 1422 1847 1369T1901 1266Q1900 1266 1900 1256Q1890 1186 1802 1072T1589 837T1318 592Q1039 356 827 213Q991 218 1156 257T1424 340T1606 420T1697 456ZM744 1509Q1144 1509 1144 1402Q1144 1358 1108 1334T973 1288T755
1220T571 1136Q415 1046 359 1046T303 1134Q303 1196 327 1272T400 1413T507 1489Q606 1509 744 1509Z" />
<glyph unicode="[" glyph-name="bracketleft" horiz-adv-x="1193" d="M207 -231Q169 -231 169 -166Q169 -36 274 335T502 1098T645 1593T748 1697L1054 1687L1387 1697Q1422 1697 1422 1629Q1422 1526 1327 1526Q1260 1526 1169 1536T1050 1546L990 1545Q908 1326
766 811T535 -78Q579 -80 628 -80T777 -70T926 -60Q961 -60 961 -128Q961 -231 866 -231Q866 -231 539 -221L207 -231Z" />
<glyph unicode="\" glyph-name="backslash" horiz-adv-x="1041" d="M465 1570L798 -129Q800 -141 800 -159T782 -198T732 -219T680 -201T653 -154L320 1545Q318 1557 318 1574T336 1613T386 1635T438 1617T465 1570Z" />
<glyph unicode="]" glyph-name="bracketright" horiz-adv-x="1192" d="M1213 1697Q1251 1697 1251 1632Q1251 1502 1146 1131T918 368T775 -127T672 -231L366 -221L33 -231Q-2 -231 -2 -163Q-2 -60 93 -60Q160 -60 251 -70T370 -80L430 -79Q512 140 654 655T885
1544Q841 1546 792 1546T643 1536T494 1526Q459 1526 459 1594Q459 1697 554 1697Q554 1697 881 1687L1213 1697Z" />
<glyph unicode="^" glyph-name="asciicircum" horiz-adv-x="1479" d="M1008 72Q903 449 809 751Q521 349 372 76Q349 34 286 34Q252 34 206 76T159 147Q159 156 164 164Q477 593 713 963Q770 1053 827 1053Q859 1053 889 1042T926 1012Q1036 697 1135 434T1234
166Q1234 127 1175 81T1082 34Q1020 34 1008 72Z" />
<glyph unicode="_" glyph-name="underscore" horiz-adv-x="1125" d="M-312 -183H1079Q1110 -183 1127 -205T1144 -259T1127 -312T1079 -335H-312Q-342 -335 -359 -313T-377 -259T-360 -206T-312 -183Z" />
<glyph unicode="`" glyph-name="grave" horiz-adv-x="1229" d="M485 1716Q604 1649 722 1543T909 1350T978 1234T966 1194T942 1182T770 1250T381 1397Q250 1441 250 1527Q250 1593 317 1658T448 1723Q472 1723 485 1716Z" />
<glyph unicode="a" glyph-name="a" horiz-adv-x="1877" d="M787 214Q975 214 1101 502Q1159 634 1159 716T1132 829T1024 860T850 786T699 598T642 395T682 259T787 214ZM1307 1061L1765 1040Q1791 1040 1804 1025T1817 990Q1817 917 1757 758T1636 442T1575 235T1590
170T1650 156T1810 198T1968 263T2032 285Q2071 285 2071 250Q2071 176 1771 56Q1670 15 1528 -12T1238 -40Q993 -40 943 116Q787 -40 523 -40Q342 -40 217 47Q81 142 81 346Q81 561 208 742Q347 943 580 1019Q709 1061 857 1061Q1084 1061 1210 949Q1211 955 1211
968L1210 1011Q1210 1061 1307 1061Z" />
<glyph unicode="b" glyph-name="b" horiz-adv-x="1877" d="M599 78Q307 -21 227 -21T97 12T47 96Q47 134 178 498Q426 1191 426 1393L425 1431Q425 1481 522 1481H783L984 1484Q1010 1484 1023 1469T1036 1434Q1036 1341 852 852L853 853Q940 952 1063 1006T1330
1061Q1747 1061 1747 671Q1747 521 1673 382T1472 140Q1800 169 1985 270Q2012 285 2032 285Q2071 285 2071 254T2036 196Q1905 105 1632 35T1046 -36Q996 -40 936 -40T771 -9T599 78ZM1050 807Q862 807 736 519Q678 387 678 305T705 192T813 161T987 235T1138
423T1195 626T1155 762T1050 807Z" />
<glyph unicode="c" glyph-name="c" horiz-adv-x="1537" d="M692 653Q646 530 646 427T667 274T730 196Q873 106 1296 186Q1497 224 1588 254T1696 285Q1731 285 1731 251T1678 182Q1538 91 1283 26T714 -40T236 72T73 382Q73 505 124 614T265 803T474 943Q712
1061 1014 1061Q1366 1061 1508 980Q1524 967 1524 932T1493 814T1412 662T1319 592T1252 637T1210 710T1163 778T1107 837T1042 872T950 887T841 855T751 771T692 653Z" />
<glyph unicode="d" glyph-name="d" horiz-adv-x="1877" d="M2026 285Q2071 285 2071 244Q2071 215 2029 184Q1917 102 1695 31T1306 -40T1062 -6T953 116Q895 57 786 9T556 -40T357 -19T217 47T118 167T81 346T112 549T207 742T362 906T580 1019T857 1061Q1100
1061 1261 940Q1317 1296 1317 1405L1316 1434Q1316 1484 1413 1484L1861 1463Q1885 1463 1899 1449T1913 1416Q1913 1260 1748 777T1583 246T1596 179T1653 159T1801 195T1959 258T2026 285ZM787 214Q975 214 1101 502Q1173 640 1173 746Q1173 804 1146 835T1037
866T858 790T702 600T642 395T682 259T787 214Z" />
<glyph unicode="e" glyph-name="e" horiz-adv-x="1537" d="M1696 285Q1731 285 1731 253T1684 193T1566 134T1373 59Q1090 -40 734 -40Q58 -40 58 376Q58 579 186 736T531 977T1002 1061T1375 982T1494 765Q1494 623 1381 533T1079 399Q890 355 646 337Q662 182
868 144Q921 135 980 135Q1214 135 1655 276Q1682 285 1696 285ZM647 447Q821 495 922 594T1023 833Q1023 870 999 892T927 914T826 872T737 762Q661 621 647 447Z" />
<glyph unicode="f" glyph-name="f" horiz-adv-x="1366" d="M590 -391Q589 -412 573 -427T543 -443T339 -435T50 -427Q36 -427 26 -417T16 -394Q38 -144 114 191Q58 222 26 246Q-25 280 -25 315T18 350Q36 350 62 338T141 305Q288 900 468 1198Q570 1366 698 1442T999
1519T1266 1426T1360 1151Q1360 841 1183 579T713 183Q744 180 768 180Q1182 180 1483 279Q1500 285 1519 285Q1560 285 1560 250Q1560 224 1529 204Q1405 130 1175 81T647 23Q603 -218 590 -391ZM694 264Q897 401 1029 665T1161 1201Q1161 1300 1142 1338T1093
1377T1044 1360T1000 1288T946 1154T843 847T694 264Z" />
<glyph unicode="g" glyph-name="g" horiz-adv-x="1877" d="M28 -340Q28 -279 124 -222T374 -123Q651 -47 951 -6Q986 92 1016 181Q909 102 776 57T535 12T353 30T216 89Q81 175 81 372T187 728T474 973T886 1061T1242 961Q1333 989 1453 1010T1642 1032T1758 999T1806
924T1777 795T1675 508T1538 104Q1740 159 1968 267Q2006 285 2027 285Q2071 285 2071 250Q2071 223 2035 197Q1870 73 1496 -31L1469 -120Q1441 -214 1367 -286T1198 -402T980 -472Q766 -520 497 -520Q28 -520 28 -340ZM977 305Q1055 368 1113 501T1172 716T1145
829T1037 860T860 791T703 613T642 415T681 285T769 244T842 247T906 264T977 305ZM863 -253L910 -120Q463 -191 463 -323Q463 -362 500 -385T595 -409Q808 -409 863 -253Z" />
<glyph unicode="h" glyph-name="h" horiz-adv-x="1880" d="M522 1481L980 1484Q1003 1484 1017 1470T1032 1422T991 1229T899 914Q1030 970 1189 1015T1475 1061Q1571 1061 1650 1008Q1738 949 1738 829Q1738 710 1645 508T1552 250Q1552 168 1631 168Q1787 168
1984 269Q2014 285 2033 285Q2074 285 2074 249T2029 184T1914 123T1741 51Q1498 -40 1222 -40T946 96Q946 184 1046 410T1147 716Q1147 811 1008 811Q931 811 856 787Q691 303 619 28Q614 9 597 0T566 -9L51 -20Q40 -20 27 -7T13 27T77 228T219 621T361 1062T426
1403L425 1431Q425 1481 522 1481Z" />
<glyph unicode="i" glyph-name="i" horiz-adv-x="1027" d="M1032 1410Q1032 1303 914 1224T664 1144T459 1197T386 1328T442 1468T587 1567T782 1603T959 1548T1032 1410ZM751 169Q819 169 935 201T1105 259T1179 285Q1221 285 1221 243Q1221 224 1190 200Q1088
124 823 42T350 -40Q221 -40 134 1T47 126Q47 177 134 376Q298 753 298 944L297 982Q297 1032 394 1032L888 1043Q914 1043 927 1028T940 993Q940 924 877 766T751 454T688 235T751 169Z" />
<glyph unicode="j" glyph-name="j" horiz-adv-x="1025" d="M1174 285Q1219 285 1219 244Q1219 188 965 104Q807 51 634 22Q611 -62 572 -181Q514 -356 399 -433T85 -510T-234 -460Q-311 -428 -311 -383T-259 -337L-191 -341Q-115 -341 -41 -183Q3 -87 75 135Q219
583 305 977Q311 1007 324 1019T380 1032L866 1043Q892 1043 908 1030T925 996T904 921T862 810T820 688T786 585T753 472T727 377T700 271T675 176Q905 190 1074 254Q1155 285 1174 285ZM1038 1410Q1038 1303 920 1224T670 1144T465 1197T392 1328T448 1468T593
1567T788 1603T965 1548T1038 1410Z" />
<glyph unicode="k" glyph-name="k" horiz-adv-x="1704" d="M1264 1032L1655 1043Q1681 1043 1694 1028T1707 993Q1707 921 1660 854T1538 735T1365 640Q1187 561 979 518Q1121 539 1227 539Q1481 539 1481 380Q1481 355 1468 306T1455 226Q1455 162 1519 162Q1566
162 1654 196T1791 258T1855 285T1885 275T1898 238T1855 180Q1709 77 1505 19T1140 -40T921 -8T864 100Q864 138 885 216T906 341Q906 474 747 488Q627 160 619 28Q617 -9 566 -9L51 -20Q40 -20 27 -7T13 27T77 228T219 621T361 1062T426 1403L425 1431Q425 1481
522 1481L980 1484Q1003 1484 1017 1470T1032 1438Q1032 1352 946 1073T782 583Q962 630 1065 731T1168 944L1167 982Q1167 1032 1264 1032Z" />
<glyph unicode="l" glyph-name="l" horiz-adv-x="1023" d="M532 1473L1022 1484Q1048 1484 1061 1469T1074 1434Q1074 1329 883 828T691 238Q691 201 706 183T759 164Q878 164 1128 274Q1153 285 1176 285Q1217 285 1217 253Q1217 226 1176 197T1063 133T888 57T655
-12T381 -40T152 -2T66 140Q66 212 251 705Q320 889 378 1087T436 1385L435 1423Q435 1473 532 1473Z" />
<glyph unicode="m" glyph-name="m" horiz-adv-x="2558" d="M383 1029L857 1040Q883 1040 896 1025T909 987T898 914Q1165 1061 1363 1061Q1449 1061 1522 1018T1618 891Q1944 1061 2158 1061Q2252 1061 2324 1008Q2401 950 2401 845T2365 623T2292 405T2255 263T2276
200T2332 179Q2461 179 2652 269Q2688 285 2707 285Q2752 285 2752 249Q2752 217 2714 189T2602 126T2422 53T2169 -13T1911 -40T1741 -2T1685 96T1723 276T1801 513T1840 684T1814 761T1737 785T1623 769Q1607 598 1490 248Q1441 101 1435 64T1427 22T1420 7Q1411
-9 1382 -9Q1238 -9 1098 -14T917 -20T876 27T907 167T976 352Q1075 596 1075 716Q1075 805 959 805Q910 805 866 789Q827 656 732 368T624 44Q608 -9 567 -9L53 -20Q42 -20 29 -7T15 25T57 156T151 398T244 683T287 941L286 979Q286 1029 383 1029Z" />
<glyph unicode="n" glyph-name="n" horiz-adv-x="1880" d="M2037 285Q2074 285 2074 251T2038 190T1930 131T1754 57T1510 -11T1245 -40Q948 -40 948 96Q948 184 1048 410T1149 716Q1149 805 1010 805Q947 805 867 789Q829 655 732 363T622 31T568 -9L53 -20Q42
-20 29 -7T15 25T57 156T151 398T245 683T288 941L287 979Q287 1029 384 1029L858 1040Q884 1040 897 1025T910 987T899 914Q1251 1061 1477 1061Q1573 1061 1652 1008Q1740 949 1740 829Q1740 706 1647 507T1554 261Q1554 168 1628 168Q1675 168 1788 203T1956
262T2037 285Z" />
<glyph unicode="o" glyph-name="o" horiz-adv-x="1707" d="M251 67Q63 180 63 410Q63 530 112 635T248 818T450 950Q680 1061 977 1061Q1561 1061 1608 691Q1678 668 1752 668T1877 679T1971 712T2035 734Q2073 734 2073 697T2014 620Q1903 544 1720 544Q1651
544 1608 551Q1576 299 1348 132Q1239 52 1081 6T753 -40T462 -14T251 67ZM614 322Q614 137 749 137Q835 137 909 231T1025 464T1067 747T966 892Q878 892 796 809T664 594T614 322Z" />
<glyph unicode="p" glyph-name="p" horiz-adv-x="1877" d="M362 1029L816 1040Q842 1040 855 1025T868 990T861 923T854 853Q1038 1061 1345 1061Q1532 1061 1639 966T1747 695Q1747 355 1480 139Q1790 161 1956 254Q2011 285 2037 285Q2071 285 2071 248Q2071
222 2034 195Q1864 76 1597 19T1021 -38Q983 -40 964 -40Q858 -40 752 -8T576 82Q507 -129 507 -405L508 -434Q508 -484 411 -484L-54 -496Q-78 -496 -92 -482T-106 -449Q-106 -278 81 214T268 874L264 957Q264 994 282 1011T362 1029ZM1050 807Q862 807 736 519Q678
387 678 305T705 192T813 161T987 235T1138 423T1195 626T1155 762T1050 807Z" />
<glyph unicode="q" glyph-name="q" horiz-adv-x="1877" d="M1299 -485L825 -496Q799 -496 786 -481T773 -446Q773 -364 959 115Q901 57 789 9T555 -40T357 -19T217 47T118 167T81 346T112 549T207 742T362 906T580 1019T857 1061Q1080 1061 1240 937Q1338 969
1503 1000T1722 1032T1801 1012T1827 955T1786 808T1669 502T1544 170H1558Q1679 170 1797 203T1967 260T2035 285Q2071 285 2071 252T2026 184T1815 95T1492 18Q1395 -276 1395 -397L1396 -435Q1396 -485 1299 -485ZM787 214Q978 214 1100 493Q1161 632 1161 740Q1161
792 1132 826T1023 860T850 786T699 598T642 395T682 259T787 214Z" />
<glyph unicode="r" glyph-name="r" horiz-adv-x="1365" d="M384 1029L858 1040Q884 1040 897 1025T910 996T903 953T885 881T871 826Q949 919 1066 990T1272 1061Q1461 1061 1461 980T1410 785T1314 635Q1292 619 1261 619T1202 639Q1081 729 938 729Q883 729
842 721Q803 587 718 328T624 38Q609 -9 568 -9Q423 -9 257 -24T67 -40T29 -27T15 5T57 139T151 388T245 680T288 941L287 979Q287 1029 384 1029Z" />
<glyph unicode="s" glyph-name="s" horiz-adv-x="1534" d="M726 -39Q701 -40 652 -40Q422 -40 219 3T-22 103Q-34 121 -34 148T30 234T118 294T167 277T224 234T293 184Q384 124 512 124Q563 124 594 150T626 215T600 284T531 334T437 377T335 424T240 480Q145
547 145 646T205 819T358 936T566 1010Q770 1061 951 1061T1289 1043T1505 988Q1521 979 1521 941T1494 831T1426 699T1351 638Q1338 638 1329 649Q1234 763 1145 824T950 886Q870 886 836 854T801 786T839 719T935 661T1060 601T1185 531T1281 442T1320 307T1261
149Q1509 199 1649 272Q1673 285 1690 285Q1728 285 1728 247Q1728 215 1689 189T1560 125T1346 49Q1057 -39 726 -39Z" />
<glyph unicode="t" glyph-name="t" horiz-adv-x="1197" d="M994 1018L1257 1052Q1331 1052 1331 994T1261 922T945 883Q911 794 843 636Q704 312 704 247Q704 176 792 176Q1076 176 1302 271Q1335 285 1354 285Q1391 285 1391 252T1343 187Q1196 90 900 25T354
-40Q212 -40 137 4T62 127Q62 206 166 422Q283 664 334 847Q272 844 248 844Q189 844 189 892Q189 927 208 939T247 956T282 962T323 966T361 969Q374 1045 374 1112L373 1150Q373 1195 487 1211Q525 1216 726 1261T972 1306Q1044 1306 1044 1256Q1044 1170 994
1018Z" />
<glyph unicode="u" glyph-name="u" horiz-adv-x="1880" d="M405 1029L857 1040Q883 1040 896 1025T909 979T854 821T742 550T686 340Q686 216 818 216Q881 216 956 232Q980 317 1036 457Q1178 808 1207 991Q1212 1028 1260 1028Q1405 1028 1565 1034T1749 1040T1787
1027T1801 1001Q1801 953 1739 798T1615 478T1553 236T1620 160T1807 196T1974 259T2036 285Q2074 285 2074 249T2021 181T1892 115T1710 44Q1466 -40 1213 -40T928 96Q831 56 769 34T597 -14T395 -40Q101 -40 101 200Q101 283 133 401T204 616Q307 871 307 932T325
1011T405 1029Z" />
<glyph unicode="v" glyph-name="v" horiz-adv-x="1705" d="M340 1029L869 1040Q902 1040 902 996Q902 972 884 948Q795 833 741 687T686 402Q686 330 716 276T789 222Q866 222 964 350T1137 650T1234 958Q1240 995 1252 1010T1301 1025L1692 1036Q1728 1036 1728
1008V994Q1728 872 1629 692Q1659 687 1701 687Q1858 687 1987 759Q2015 775 2034 775Q2074 775 2074 739T2031 669Q1887 559 1643 559Q1586 559 1550 565Q1543 553 1527 531Q1421 383 1222 240T822 12T495 -73Q402 -73 304 -4Q108 133 108 416Q108 537 153 704T256
972Q288 1028 340 1029Z" />
<glyph unicode="w" glyph-name="w" horiz-adv-x="2514" d="M353 1029L882 1040Q921 1040 921 1001Q921 978 897 948Q811 840 753 703T694 424Q694 275 741 237Q761 221 792 221Q857 221 914 272T1012 401T1086 581Q1141 757 1166 962Q1168 986 1183 1007T1233
1029L1762 1040Q1801 1040 1801 1007Q1801 981 1777 948Q1574 666 1574 403Q1574 231 1675 231Q1752 231 1818 296T1927 466Q2019 689 2019 962Q2019 1020 2086 1029Q2108 1032 2269 1036T2477 1040T2523 998Q2523 848 2440 696Q2486 687 2533 687Q2690 687 2819
759Q2847 775 2866 775Q2906 775 2906 739T2863 669Q2719 559 2475 559Q2410 559 2359 569L2314 508Q2197 353 2030 221T1689 12T1380 -65Q1293 -65 1210 11T1075 204Q922 78 765 2T490 -75Q325 -75 219 68T113 442Q113 540 154 707T252 966Q275 1003 295 1016T353
1029Z" />
<glyph unicode="x" glyph-name="x" horiz-adv-x="1705" d="M1050 884Q1093 797 1116 727Q1278 886 1397 978T1590 1071Q1642 1071 1682 988T1723 796Q1723 776 1708 752T1662 721T1536 714T1358 688T1171 582Q1278 298 1355 203Q1394 153 1458 153T1625 187T1782
253T1857 285Q1899 285 1899 248Q1899 223 1856 185Q1711 58 1535 3T1142 -52Q824 -52 718 82Q658 156 604 283Q446 133 323 46T113 -41Q49 -41 6 41T-38 212T7 304Q33 307 101 309T242 316Q417 328 549 428Q539 458 517 528T482 632Q419 810 365 838Q339 852 290
852T194 843T136 834Q98 834 98 870T178 950T395 1028T632 1061T778 1057T862 1041T927 1017T978 982T1017 939T1050 884Z" />
<glyph unicode="y" glyph-name="y" horiz-adv-x="1877" d="M2034 285Q2071 285 2071 251Q2071 184 1815 77Q1655 10 1463 -31Q1439 -98 1420 -149T1351 -265T1232 -372T1085 -444T908 -490Q731 -520 494 -520T128 -467T0 -314Q0 -256 50 -209T180 -130T386 -72Q599
-29 921 -1Q948 88 960 148Q669 40 426 40Q101 40 101 255Q101 406 191 628T282 941L281 979Q281 1029 378 1029L611 1025L822 1040Q848 1040 861 1025T874 971T845 837T780 658Q685 435 685 358Q685 314 717 291T801 268Q911 268 1006 329Q1113 618 1203 972Q1212
1009 1256 1009Q1401 1009 1567 1024T1757 1040T1796 1028T1810 1005Q1810 962 1511 104Q1659 139 1786 187T1960 260T2034 285ZM835 -253Q864 -180 885 -115Q435 -172 435 -323Q435 -362 475 -396T557 -431Q648 -431 727 -385T835 -253Z" />
<glyph unicode="z" glyph-name="z" horiz-adv-x="1705" d="M1065 946Q1144 1055 1180 1055T1341 1036T1592 978T1719 899Q1719 850 1642 770Q1475 593 982 240Q915 192 888 172Q1056 160 1212 160Q1534 160 1762 255Q1835 285 1861 285Q1899 285 1899 252Q1899
205 1700 100Q1613 54 1483 12T1250 -30T1051 -16T900 14T802 44T752 58T716 35Q629 -34 582 -34T369 -2T91 59T-22 161Q-22 192 6 219T108 290T278 387Q541 532 903 793Q854 796 782 796T621 775T471 724T359 662Q240 590 219 590T184 606T170 652T236 833T336
1016T402 1054T496 1061T789 986T1030 910T1065 946Z" />
<glyph unicode="{" glyph-name="braceleft" horiz-adv-x="1193" d="M853 -231L526 -221Q382 -221 319 -189T255 -87T301 123T394 407T441 603T417 665T330 676T247 687T226 732T239 787T297 818T387 831T475 856T528 919Q583 1127 608 1236T652 1415T683 1517T716
1589T756 1642T808 1672Q855 1694 966 1694L1374 1697Q1409 1697 1409 1629Q1409 1526 1314 1526L1171 1546Q1053 1546 1012 1451T886 933Q881 911 879 899Q852 767 507 761Q593 759 668 736Q812 693 812 618Q812 576 721 310T630 8Q630 -89 750 -89L913 -60Q948
-60 948 -128Q948 -231 853 -231Z" />
<glyph unicode="|" glyph-name="bar" horiz-adv-x="980" d="M141 -509L763 1645Q782 1710 842 1710Q874 1710 892 1691T910 1650T908 1620L286 -534Q267 -599 207 -599Q177 -599 157 -580T137 -541T141 -509Z" />
<glyph unicode="}" glyph-name="braceright" horiz-adv-x="1193" d="M466 1697L793 1687Q937 1687 1000 1655T1064 1553T1018 1343T925 1059T878 863T902 801T989 790T1072 779T1093 734T1080 679T1022 648T932 635T844 610T791 547Q736 339 711 230T667 51T636
-51T603 -123T563 -176T511 -206Q464 -228 353 -228L-55 -231Q-90 -231 -90 -163Q-90 -60 5 -60L148 -80Q266 -80 307 15T433 533Q438 555 440 567Q467 699 812 705Q726 707 651 730Q507 773 507 848Q507 890 598 1156T689 1458Q689 1555 569 1555L406 1526Q371
1526 371 1594Q371 1697 466 1697Z" />
<glyph unicode="~" glyph-name="asciitilde" horiz-adv-x="1479" d="M1267 547Q1116 445 942 445Q872 445 787 471T624 524T508 551T386 508T271 465T213 507T187 576Q187 620 250 662Q401 764 575 764Q645 764 731 738T894 686T1009 659T1131 701T1248 744T1306
703T1330 626T1267 547Z" />
<glyph unicode="&#xa0;" glyph-name="nbspace" horiz-adv-x="772" />
<glyph unicode="&#xa1;" glyph-name="exclamdown" horiz-adv-x="1198" d="M532 663Q728 663 798 661T869 608Q869 500 765 97T650 -372T623 -457T549 -481T304 -499T42 -511T-33 -454Q-33 -437 -27 -419Q79 -131 229 142Q375 407 436 598Q457 663 532 663ZM467
1134Q526 1200 620 1238T826 1276T1015 1219T1092 1081T1033 934T879 829T674 791T486 849T409 988T467 1134Z" />
<glyph unicode="&#xa2;" glyph-name="cent" horiz-adv-x="1744" d="M1079 1193Q1109 1253 1157 1253Q1212 1253 1212 1189Q1212 1162 1185 1059Q1414 1049 1561 986Q1592 973 1592 947Q1592 841 1551 737T1478 633Q1461 633 1448 650Q1322 823 1136 872Q1053 562
931 117Q1032 127 1160 220Q1267 297 1390 403Q1406 417 1426 417Q1468 417 1468 381Q1468 339 1443 190T1389 24Q1292 -35 888 -39L837 -223Q820 -284 782 -284Q733 -284 733 -222Q733 -189 764 -39Q292 -27 176 214Q141 289 141 382Q141 530 214 656T412 867Q671
1046 1029 1060Q1060 1157 1079 1193ZM804 153Q887 547 978 882Q910 868 856 817T772 695T726 549T710 399T734 258T804 153Z" />
<glyph unicode="&#xa3;" glyph-name="sterling" horiz-adv-x="1877" d="M1310 -20L457 2Q380 2 298 -8T158 -18Q59 -18 59 50Q59 81 85 104T155 156T221 218Q301 328 345 594Q191 583 130 583Q81 583 81 648T108 749T182 786T290 789H375Q406 993 430 1085T488
1240T558 1350T647 1432T744 1492T852 1532T961 1557T1074 1570Q1168 1577 1289 1577T1550 1552T1752 1488Q1768 1479 1768 1441T1741 1322T1673 1171T1598 1101Q1584 1101 1576 1112Q1452 1280 1389 1342T1255 1404Q1163 1404 1092 1233Q1049 1131 1011 976T968
806Q1316 835 1351 836T1386 761Q1386 676 1342 650Q1305 629 1213 629T922 631Q892 529 873 471Q780 200 613 130Q869 138 1026 190Q1198 248 1313 338Q1419 421 1568 576Q1596 606 1634 606T1693 588T1714 522Q1714 429 1678 276T1562 52T1310 -20Z" />
<glyph unicode="&#xa4;" glyph-name="currency" horiz-adv-x="1877" d="M431 598Q431 834 558 1010Q466 1068 388 1132Q363 1151 363 1181T406 1265T488 1319Q507 1319 522 1308Q599 1248 700 1151Q859 1264 1071 1264T1413 1151Q1527 1237 1639 1308Q1657 1319
1681 1319T1734 1279T1762 1199T1719 1132Q1607 1060 1513 1011Q1550 923 1550 817Q1550 575 1413 400Q1504 341 1588 275Q1613 255 1613 225T1570 142T1488 88Q1469 88 1454 99Q1368 165 1265 265Q1106 162 901 162T572 262Q446 168 337 99Q319 88 294 88T242
128T214 208T257 275Q365 344 468 399Q431 485 431 598ZM1052 1110Q955 1110 876 1068T748 956Q646 809 646 616Q646 477 717 397T921 316T1147 382T1288 559T1336 809T1265 1029T1052 1110Z" />
<glyph unicode="&#xa5;" glyph-name="yen" horiz-adv-x="2048" d="M1116 -12L745 -18Q634 -18 610 20Q599 39 599 76T621 204Q438 193 362 193Q317 193 317 254Q317 354 412 354Q459 354 659 344Q685 436 697 482Q514 471 439 471Q394 471 394 532Q394 632 489
632Q546 632 704 623Q657 790 591 951T494 1172T438 1251T370 1278Q293 1290 293 1336Q293 1409 432 1469Q586 1536 893 1536Q974 1536 1016 1509T1076 1427Q1110 1315 1156 1116T1223 759Q1321 943 1381 1099T1492 1452Q1502 1490 1520 1503T1578 1517L1974 1526Q2067
1526 2067 1430Q2067 1286 1880 1098Q1792 1009 1607 846T1370 624Q1570 632 1606 632T1643 574Q1643 471 1548 471Q1472 471 1270 480Q1253 410 1240 344Q1480 354 1531 354Q1566 354 1566 296Q1566 193 1471 193Q1384 193 1221 201Q1217 158 1217 109L1221 55Q1221
24 1187 6T1116 -12Z" />
<glyph unicode="&#xa6;" glyph-name="brokenbar" horiz-adv-x="980" d="M398 374H550L286 -534Q267 -599 207 -599Q177 -599 157 -581T137 -542T141 -509L398 374ZM662 779H510L763 1645Q782 1710 842 1710Q872 1710 892 1692T912 1653T908 1620L662 779Z" />
<glyph unicode="&#xa7;" glyph-name="section" horiz-adv-x="1958" d="M38 3Q26 21 26 48T90 134T178 194T227 177T284 134T353 84Q444 24 572 24Q623 24 654 50T686 115T660 184T591 234T497 277T395 324T300 380Q205 447 205 556Q205 764 459 872Q593 930 772
951Q756 988 756 1047T790 1170T885 1277T1018 1352T1177 1402Q1345 1436 1492 1436Q1814 1436 1916 1373Q1932 1364 1932 1325T1915 1223T1867 1107T1802 1053Q1789 1053 1780 1064Q1694 1167 1620 1214T1461 1261Q1381 1261 1347 1229T1312 1156T1367 1067T1500
973T1656 878T1790 763T1845 629Q1845 492 1723 414T1337 336Q1263 336 1226 338Q1280 266 1280 184T1235 38T1110 -64Q950 -140 716 -140T279 -97T38 3ZM1237 595Q1237 647 1178 687Q1128 720 1003 772Q956 786 916 786T844 778T787 746T761 684T804 615T938 537L941
538Q1024 499 1099 499Q1237 499 1237 595Z" />
<glyph unicode="&#xa8;" glyph-name="dieresis" horiz-adv-x="1229" d="M536 1447Q536 1354 433 1285T215 1216T37 1262T-27 1376T22 1497T148 1583T317 1615T472 1567T536 1447ZM1207 1331Q1159 1278 1082 1247T912 1216T757 1262T693 1376T742 1497T868 1583T1037
1615T1192 1567T1256 1452T1207 1331Z" />
<glyph unicode="&#xa9;" glyph-name="copyright" horiz-adv-x="2190" d="M1449 1214Q1449 1263 1376 1263T1219 1173T1078 948T1020 697T1075 513T1246 445Q1358 445 1475 486Q1514 499 1540 499T1566 478Q1566 437 1493 393T1309 319T1096 289Q889 289 764 391T638
665Q638 772 682 878T801 1070T969 1221Q1165 1360 1342 1360T1604 1283T1689 1070Q1689 910 1581 830Q1524 787 1464 787T1365 806T1326 864Q1326 880 1387 1031T1449 1214ZM338 439Q265 611 265 800T338 1161T537 1458T834 1656T1195 1730T1556 1657T1853 1458T2051
1161T2125 800T2052 439T1853 142T1556 -56T1195 -130T834 -57T537 142T338 439ZM380 801Q380 581 489 394T785 98T1192 -11Q1357 -11 1508 53T1768 226T1941 485T2006 801T1942 1117T1768 1377T1508 1550T1192 1615T877 1551T618 1377T445 1117T380 801Z" />
<glyph unicode="&#xaa;" glyph-name="ordfeminine" horiz-adv-x="1505" d="M697 1272Q697 1231 723 1205T802 1179Q915 1179 986 1314Q1015 1370 1015 1422Q1015 1500 936 1500Q839 1500 768 1434T697 1272ZM1121 1645L1420 1633Q1437 1633 1445 1624T1454 1604Q1454
1552 1375 1379T1296 1163Q1296 1125 1337 1125Q1360 1125 1402 1139T1463 1154Q1491 1154 1491 1122T1430 1058T1289 1015T1064 1003T883 1093Q785 1003 609 1003Q493 1003 410 1053Q321 1106 321 1225Q321 1378 448 1502Q509 1561 608 1598T840 1635T1058 1571V1616Q1058
1645 1121 1645Z" />
<glyph unicode="&#xab;" glyph-name="guillemotleft" horiz-adv-x="2311" d="M1001 11Q992 11 955 39T783 172Q504 387 365 484Q343 499 343 541T383 653T464 738Q674 823 989 960T1311 1097Q1335 1097 1352 1078T1369 1029Q1369 975 1312 936T1142 816Q931 666
744 556Q822 478 872 418T976 294T1064 190T1098 110T1070 40T1001 11ZM1801 11Q1792 11 1755 39T1583 172Q1304 387 1165 484Q1143 499 1143 541T1183 653T1264 738Q1474 823 1789 960T2111 1097Q2135 1097 2152 1078T2169 1029Q2169 975 2112 936T1942 816Q1731
666 1544 556Q1622 478 1672 418T1776 294T1864 190T1898 110T1870 40T1801 11Z" />
<glyph unicode="&#xac;" glyph-name="logicalnot" horiz-adv-x="1479" d="M295 475Q244 475 244 534Q244 622 260 646Q292 691 342 696T471 702L889 693L1243 703Q1294 703 1294 644Q1294 523 1222 247Q1214 213 1152 212L1032 198Q1010 198 1001 206T992 250T1017
378T1044 476L649 485L295 475Z" />
<glyph unicode="&#xad;" glyph-name="uni00AD" horiz-adv-x="1543" d="M400 475Q349 475 349 534Q349 622 366 646Q397 691 447 696T576 702L994 693L1348 703Q1399 703 1399 644Q1399 556 1382 532Q1351 487 1301 482T1172 476L754 485L400 475Z" />
<glyph unicode="&#xae;" glyph-name="registered" horiz-adv-x="2190" d="M338 439Q265 611 265 800T338 1161T537 1458T834 1656T1195 1730T1556 1657T1853 1458T2051 1161T2125 800T2052 439T1853 142T1556 -56T1195 -130T834 -57T537 142T338 439ZM380 801Q380
581 489 394T785 98T1192 -11Q1357 -11 1508 53T1768 226T1941 485T2006 801T1942 1117T1768 1377T1508 1550T1192 1615T877 1551T618 1377T445 1117T380 801ZM1611 662L1602 508Q1602 479 1619 467T1657 454Q1712 456 1712 418Q1712 375 1622 344T1426 313Q1224
313 1224 451Q1224 493 1241 569T1259 678T1222 743T1121 776H1094Q1032 494 1025 466Q1002 373 959 345T818 317T637 356T553 435Q553 449 563 457T605 466T660 484T706 557T751 707T793 878T846 1026T927 1125Q998 1166 1132 1166Q1197 1166 1197 1134Q1197 1116
1174 1068T1107 835Q1248 853 1331 916T1414 1083Q1414 1238 1169 1238Q1004 1238 884 1190Q839 1171 803 1156T759 1141Q731 1141 731 1162Q731 1190 761 1212Q975 1373 1358 1373Q1538 1373 1652 1294Q1744 1231 1744 1120Q1744 994 1633 926Q1534 864 1365 832Q1470
832 1540 785T1611 662Z" />
<glyph unicode="&#xaf;" glyph-name="overscore" horiz-adv-x="1229" d="M215 1304Q170 1304 170 1368T199 1469T265 1505L651 1485Q726 1485 850 1495T1024 1505Q1059 1505 1059 1441T1031 1341T955 1304T787 1314T589 1324T390 1314T215 1304Z" />
<glyph unicode="&#xb0;" glyph-name="degree" horiz-adv-x="1177" d="M1073 1648Q1073 1740 1020 1794T874 1849T703 1772T624 1603T677 1457T822 1404T994 1480T1073 1648ZM419 1561Q419 1666 460 1758T570 1914Q718 2050 913 2050Q1071 2050 1174 1947T1277
1701T1210 1445T1029 1267T771 1201T523 1304T419 1561Z" />
<glyph unicode="&#xb1;" glyph-name="plusminus" horiz-adv-x="1479" d="M1250 501Q1219 481 1200 480T1156 477T1115 476H1007L988 477H968L948 478Q927 478 916 479L872 480Q862 481 842 481L837 460Q821 398 792 250T757 79Q749 45 687 44L567 30Q545 30 536
38T527 82T549 195T625 485L573 484L552 483Q486 482 401 478L357 476Q330 475 295 475H285Q244 482 244 534V555Q244 569 245 576Q245 686 345 697Q393 702 471 702L550 701L569 700H590Q600 699 629 698T677 697H679L693 753Q709 817 730 924T756 1051Q763 1083
827 1087L943 1094Q986 1094 986 1046T948 862T908 720T904 707T900 693H945L965 694Q989 694 1037 696L1078 697Q1088 698 1108 698L1164 701H1180Q1234 703 1243 703L1267 698Q1281 692 1292 665L1294 650V623L1293 612V602L1291 586Q1287 545 1265 515L1250
501ZM219 -52Q168 -52 168 7Q168 95 184 119Q216 164 266 169T395 175L813 166L1167 176Q1218 176 1218 117Q1218 29 1202 5Q1170 -40 1120 -45T991 -51L573 -42L219 -52Z" />
<glyph unicode="&#xb2;" glyph-name="twosuperior" horiz-adv-x="1330" d="M1348 1270Q1401 1270 1401 1241Q1401 1199 1348 1109T1260 1015Q1186 1010 1116 1010T876 1040T575 1104Q512 1067 436 1051T322 1034T233 1072T181 1135Q181 1188 599 1392Q755 1468
813 1513T871 1601Q871 1657 789 1657Q679 1657 619 1646T514 1625Q442 1609 432 1609Q394 1609 394 1639Q394 1675 442 1698Q711 1827 1051 1827Q1232 1827 1329 1776T1427 1625Q1427 1479 1244 1398Q1158 1361 1068 1333Q778 1243 689 1195Q834 1197 1078 1233T1348
1270Z" />
<glyph unicode="&#xb3;" glyph-name="threesuperior" horiz-adv-x="1330" d="M1014 1827Q1445 1827 1445 1660T1013 1446Q1226 1434 1326 1390T1427 1249Q1427 1016 772 1016Q583 1016 443 1034T270 1067T231 1088T224 1116T258 1215T323 1292Q337 1292 386 1260Q563
1142 714 1142Q779 1142 827 1176T875 1260T825 1345T700 1385T603 1400T577 1416T573 1440Q573 1482 662 1487Q814 1497 878 1526T943 1601Q943 1686 813 1686Q716 1686 607 1653T478 1619T447 1631T436 1666T478 1710Q721 1827 1014 1827Z" />
<glyph unicode="&#xb4;" glyph-name="acute" horiz-adv-x="1229" d="M743 1712Q764 1723 794 1723Q865 1723 937 1668T1010 1550Q1010 1476 898 1436Q561 1313 327 1201Q288 1182 260 1182Q219 1182 219 1219T289 1342T485 1534T743 1712Z" />
<glyph unicode="&#xb5;" glyph-name="mu" horiz-adv-x="1479" d="M1303 1040Q1341 1040 1341 997T1289 801T1185 485T1133 266Q1133 159 1200 159Q1247 159 1292 183T1352 208Q1390 208 1390 172Q1390 123 1329 62Q1227 -40 1089 -40Q904 -40 869 127Q807 52 703
7T477 -39T317 71Q288 -25 175 -448Q165 -482 105 -483L-25 -497Q-47 -497 -56 -489T-65 -445T-46 -341T72 43Q297 763 297 947Q297 992 311 1010T365 1029L527 1040Q553 1040 566 1025T579 972T537 794T452 510T409 307T449 215T565 183Q743 183 890 332Q905 386
978 625T1081 991Q1091 1028 1134 1028L1303 1040Z" />
<glyph unicode="&#xb6;" glyph-name="paragraph" horiz-adv-x="2046" d="M1979 1280Q1955 1280 1890 1308T1763 1358Q1722 1156 1548 432Q1427 -68 1427 -356Q1427 -397 1412 -410Q1390 -429 1229 -429Q1227 -403 1227 -382Q1227 -177 1404 449Q1587 1094 1615
1400Q1566 1412 1514 1418Q1487 1146 1352 670Q1201 142 1162 -55T1123 -328T1126 -433Q1066 -440 1011 -440T937 -422T918 -346T945 -164T1002 67T1091 377T1179 683Q1045 594 788 594Q573 594 414 682Q334 727 287 805T239 986Q239 1164 349 1298T660 1504T1128
1576Q1555 1576 1852 1445Q2012 1375 2012 1311Q2012 1280 1979 1280Z" />
<glyph unicode="&#xb7;" glyph-name="middot" horiz-adv-x="1198" d="M944 632Q886 567 792 529T586 491T397 548T320 686T379 833T533 938T738 976T926 918T1003 779T944 632Z" />
<glyph unicode="&#xb8;" glyph-name="cedilla" horiz-adv-x="1229" d="M768 -112Q880 -112 946 -171T1013 -327T968 -484Q881 -600 685 -600T318 -499Q266 -468 241 -441T215 -384Q215 -325 268 -325Q290 -325 332 -350T461 -402T604 -430T692 -405T722 -338T693
-273T599 -248T498 -238T463 -190T510 -54T617 100L689 65L632 -128Q708 -112 768 -112Z" />
<glyph unicode="&#xb9;" glyph-name="onesuperior" horiz-adv-x="1069" d="M622 1624L432 1598Q387 1598 387 1633Q387 1663 443 1685Q808 1833 1031 1833Q1190 1833 1190 1745Q1190 1666 1126 1521T1040 1317T997 1187T976 1096T960 1062T918 1048L575 1041Q486
1041 472 1054T458 1089T480 1156T565 1332Q679 1565 679 1597Q679 1624 622 1624Z" />
<glyph unicode="&#xba;" glyph-name="ordmasculine" horiz-adv-x="1505" d="M822 1003Q603 1003 483 1073T362 1260T446 1462Q615 1635 989 1635Q1254 1635 1366 1528Q1425 1470 1425 1388T1387 1238T1276 1116Q1120 1003 822 1003ZM832 1115Q891 1115 942 1163T1022
1287T1051 1445T981 1528Q887 1528 814 1435T740 1229T832 1115Z" />
<glyph unicode="&#xbb;" glyph-name="guillemotright" horiz-adv-x="2311" d="M621 1097Q630 1097 667 1069T839 936Q1118 721 1257 624Q1279 609 1279 567T1239 455T1158 370Q948 285 633 148T311 11Q287 11 270 30T253 79Q253 133 321 179Q364 209 479 292Q691
444 877 552Q793 638 750 690T644 816T553 924T524 998T552 1068T621 1097ZM1421 1097Q1430 1097 1467 1069T1639 936Q1918 721 2057 624Q2079 609 2079 567T2039 455T1958 370Q1748 285 1433 148T1111 11Q1087 11 1070 30T1053 79Q1053 133 1121 179Q1164 209
1279 292Q1491 444 1677 552Q1593 638 1550 690T1444 816T1353 924T1324 998T1352 1068T1421 1097Z" />
<glyph unicode="&#xbc;" glyph-name="onequarter" horiz-adv-x="3008" d="M2590 317L2736 324Q2769 324 2769 304Q2769 255 2759 240T2717 221T2566 212Q2549 130 2547 98T2542 48T2539 24Q2539 9 2515 1T2461 -7L2101 -10Q2015 -10 2015 30Q2015 59 2029 87T2092
196Q1744 184 1617 184T1442 192Q1317 214 1317 273Q1317 305 1382 362Q1521 483 1683 720Q1702 748 1724 759T1791 770Q1791 770 2207 778Q2267 778 2267 753Q2267 742 2258 731T2124 621Q1760 336 1760 314Q1760 301 1905 304T2068 307T2119 309T2166 310Q2262
456 2273 485T2343 514L2516 513Q2571 513 2593 501T2616 458T2590 317ZM794 1364L604 1338Q559 1338 559 1373Q559 1403 615 1425Q980 1573 1203 1573Q1362 1573 1362 1485Q1362 1406 1298 1261T1212 1057T1169 927T1148 836T1132 802T1090 788L747 781Q658 781
644 794T630 829T652 896T737 1072Q851 1305 851 1337Q851 1364 794 1364ZM2310 1485Q2310 1436 2243 1380L617 33Q566 -9 531 -9T479 8T461 54Q461 101 528 157L2154 1504Q2205 1546 2240 1546T2292 1529T2310 1485Z" />
<glyph unicode="&#xbd;" glyph-name="onehalf" horiz-adv-x="3008" d="M894 1364L704 1338Q659 1338 659 1373Q659 1403 715 1425Q1080 1573 1303 1573Q1462 1573 1462 1485Q1462 1406 1398 1261T1312 1057T1269 927T1248 836T1232 802T1190 788L847 781Q758 781
744 794T730 829T752 896T837 1072Q951 1305 951 1337Q951 1364 894 1364ZM2410 1485Q2410 1436 2343 1380L717 33Q666 -9 631 -9T579 8T561 54Q561 101 628 157L2254 1504Q2305 1546 2340 1546T2392 1529T2410 1485ZM2596 201Q2596 159 2543 69T2455 -25Q2381
-30 2311 -30T2071 0T1770 64Q1707 27 1631 11T1517 -6T1428 32T1376 95Q1376 148 1794 352Q1950 428 2008 473T2066 561Q2066 617 1984 617Q1874 617 1784 600Q1754 595 1696 582T1627 569Q1589 569 1589 599Q1589 635 1637 658Q1906 787 2246 787Q2427 787 2524
736T2622 585Q2622 439 2438 358Q2353 321 2163 262T1884 155Q2029 157 2273 193T2543 230Q2596 230 2596 201Z" />
<glyph unicode="&#xbe;" glyph-name="threequarters" horiz-adv-x="3008" d="M2660 317L2806 324Q2839 324 2839 304Q2839 255 2829 240T2787 221T2636 212Q2619 130 2617 98T2612 48T2609 24Q2609 9 2585 1T2531 -7L2171 -10Q2085 -10 2085 30Q2085 59 2099 87T2162
196Q1814 184 1687 184T1512 192Q1387 214 1387 273Q1387 305 1452 362Q1591 483 1753 720Q1772 748 1794 759T1861 770Q1861 770 2277 778Q2337 778 2337 753Q2337 742 2328 731T2194 621Q1830 336 1830 314Q1830 301 1975 304T2138 307T2189 309T2236 310Q2332
456 2343 485T2413 514L2586 513Q2641 513 2663 501T2686 458T2660 317ZM2398 1485Q2398 1436 2331 1380L705 33Q654 -9 619 -9T567 8T549 54Q549 101 616 157L2242 1504Q2293 1546 2328 1546T2380 1529T2398 1485ZM1040 1578Q1471 1578 1471 1411T1039 1197Q1252
1185 1352 1141T1453 1000Q1453 767 798 767Q609 767 469 785T296 818T257 839T250 867T284 966T349 1043Q363 1043 412 1010Q589 893 740 893Q805 893 853 927T901 1011T851 1096T726 1136T629 1151T603 1167T599 1192Q599 1233 688 1238Q840 1248 904 1277T969
1352Q969 1437 839 1437Q742 1437 633 1404T504 1370T473 1382T462 1417T504 1461Q747 1578 1040 1578Z" />
<glyph unicode="&#xbf;" glyph-name="questiondown" horiz-adv-x="1534" d="M1200 20Q1223 33 1268 33T1313 -5Q1313 -79 1233 -246T1102 -441T912 -490T631 -511Q349 -511 156 -424Q59 -380 3 -303T-53 -123Q-53 44 86 174Q149 233 227 286T395 389T564 484Q755
592 839 695Q851 709 881 709T980 659T1049 559T994 440T859 302T702 167T568 40T512 -54T546 -109T643 -130Q834 -130 956 -92T1200 20ZM705 1143Q764 1209 858 1247T1064 1285T1253 1228T1330 1090T1271 943T1117 838T912 800T724 858T647 997T705 1143Z" />
<glyph unicode="&#xc0;" glyph-name="Agrave" horiz-adv-x="1880" d="M1183 -40Q850 -40 850 181Q850 307 1009 684T1168 1208Q1168 1290 1108 1324T933 1359T700 1339T549 1319T515 1349Q515 1388 656 1452Q927 1576 1253 1576Q1511 1576 1639 1483T1768 1181Q1768
1057 1724 871T1637 520T1593 295T1616 210Q1645 180 1728 180Q1779 180 1785 169T1792 146Q1792 100 1750 71Q1591 -40 1183 -40ZM601 684L857 690Q927 690 927 649Q927 620 894 603Q778 544 494 528Q413 368 413 247Q413 193 427 148T441 82Q441 29 374 11T178
-8T7 15T-34 99Q-34 211 31 346T199 604T425 847T666 1052Q926 1245 1020 1245Q1063 1245 1063 1219T1021 1161Q932 1096 808 963T587 684H601ZM1681 1674Q1681 1636 1641 1636T1490 1670Q1294 1729 1032 1755Q975 1760 937 1799T899 1903T953 2009T1094 2050T1292
2002T1485 1890T1624 1765T1681 1674Z" />
<glyph unicode="&#xc1;" glyph-name="Aacute" horiz-adv-x="1880" d="M1183 -40Q850 -40 850 181Q850 307 1009 684T1168 1208Q1168 1290 1108 1324T933 1359T700 1339T549 1319T515 1349Q515 1388 656 1452Q927 1576 1253 1576Q1511 1576 1639 1483T1768 1181Q1768
1057 1724 871T1637 520T1593 295T1616 210Q1645 180 1728 180Q1779 180 1785 169T1792 146Q1792 100 1750 71Q1591 -40 1183 -40ZM601 684L857 690Q927 690 927 649Q927 620 894 603Q778 544 494 528Q413 368 413 247Q413 193 427 148T441 82Q441 29 374 11T178
-8T7 15T-34 99Q-34 211 31 346T199 604T425 847T666 1052Q926 1245 1020 1245Q1063 1245 1063 1219T1021 1161Q932 1096 808 963T587 684H601ZM1611 2013Q1709 2050 1789 2050T1935 2001T2001 1886Q2001 1847 1974 1814T1888 1772Q1879 1771 1821 1763T1733 1751T1641
1738T1535 1721T1435 1702T1330 1679T1238 1654T1163 1641T1130 1680Q1130 1737 1275 1839T1611 2013Z" />
<glyph unicode="&#xc2;" glyph-name="Acircumflex" horiz-adv-x="1880" d="M1183 -40Q850 -40 850 181Q850 307 1009 684T1168 1208Q1168 1290 1108 1324T933 1359T700 1339T549 1319T515 1349Q515 1388 656 1452Q927 1576 1253 1576Q1511 1576 1639 1483T1768
1181Q1768 1057 1724 871T1637 520T1593 295T1616 210Q1645 180 1728 180Q1779 180 1785 169T1792 146Q1792 100 1750 71Q1591 -40 1183 -40ZM601 684L857 690Q927 690 927 649Q927 620 894 603Q778 544 494 528Q413 368 413 247Q413 193 427 148T441 82Q441 29
374 11T178 -8T7 15T-34 99Q-34 211 31 346T199 604T425 847T666 1052Q926 1245 1020 1245Q1063 1245 1063 1219T1021 1161Q932 1096 808 963T587 684H601ZM1419 1782Q1015 1627 949 1627Q929 1627 915 1639T901 1672Q901 1714 1009 1797T1317 2007Q1357 2032 1386
2040T1466 2049T1546 2034T1604 1991Q1735 1861 1802 1781T1870 1660T1823 1620T1693 1653Q1552 1710 1419 1782Z" />
<glyph unicode="&#xc3;" glyph-name="Atilde" horiz-adv-x="1880" d="M1183 -40Q850 -40 850 181Q850 307 1009 684T1168 1208Q1168 1290 1108 1324T933 1359T700 1339T549 1319T515 1349Q515 1388 656 1452Q927 1576 1253 1576Q1511 1576 1639 1483T1768 1181Q1768
1057 1724 871T1637 520T1593 295T1616 210Q1645 180 1728 180Q1779 180 1785 169T1792 146Q1792 100 1750 71Q1591 -40 1183 -40ZM601 684L857 690Q927 690 927 649Q927 620 894 603Q778 544 494 528Q413 368 413 247Q413 193 427 148T441 82Q441 29 374 11T178
-8T7 15T-34 99Q-34 211 31 346T199 604T425 847T666 1052Q926 1245 1020 1245Q1063 1245 1063 1219T1021 1161Q932 1096 808 963T587 684H601ZM943 1705Q874 1705 874 1754Q874 1786 899 1816T949 1872Q1088 2024 1263 2024Q1366 2024 1483 1974T1649 1923T1789
1954T1910 1985T1960 1972T1980 1929T1905 1818Q1766 1665 1590 1665Q1520 1665 1445 1690T1302 1741T1196 1767T1065 1736T943 1705Z" />
<glyph unicode="&#xc4;" glyph-name="Adieresis" horiz-adv-x="1880" d="M1183 -40Q850 -40 850 181Q850 307 1009 684T1168 1208Q1168 1290 1108 1324T933 1359T700 1339T549 1319T515 1349Q515 1388 656 1452Q927 1576 1253 1576Q1511 1576 1639 1483T1768 1181Q1768
1057 1724 871T1637 520T1593 295T1616 210Q1645 180 1728 180Q1779 180 1785 169T1792 146Q1792 100 1750 71Q1591 -40 1183 -40ZM601 684L857 690Q927 690 927 649Q927 620 894 603Q778 544 494 528Q413 368 413 247Q413 193 427 148T441 82Q441 29 374 11T178
-8T7 15T-34 99Q-34 211 31 346T199 604T425 847T666 1052Q926 1245 1020 1245Q1063 1245 1063 1219T1021 1161Q932 1096 808 963T587 684H601ZM1279 1749Q1228 1697 1149 1669T976 1641T816 1683T748 1791T799 1909T930 1991T1103 2020T1264 1976T1331 1867T1279
1749ZM2071 1862Q2071 1770 1964 1706T1740 1641T1556 1683T1488 1791T1539 1909T1670 1991T1843 2020T2004 1976T2071 1862Z" />
<glyph unicode="&#xc5;" glyph-name="Aring" horiz-adv-x="1880" d="M1183 -40Q850 -40 850 181Q850 307 1009 684T1168 1208Q1168 1290 1108 1324T933 1359T700 1339T549 1319T515 1349Q515 1388 656 1452Q927 1576 1253 1576Q1511 1576 1639 1483T1768 1181Q1768
1057 1724 871T1637 520T1593 295T1616 210Q1645 180 1728 180Q1779 180 1785 169T1792 146Q1792 100 1750 71Q1591 -40 1183 -40ZM601 684L857 690Q927 690 927 649Q927 620 894 603Q778 544 494 528Q413 368 413 247Q413 193 427 148T441 82Q441 29 374 11T178
-8T7 15T-34 99Q-34 211 31 346T199 604T425 847T666 1052Q926 1245 1020 1245Q1063 1245 1063 1219T1021 1161Q932 1096 808 963T587 684H601ZM1424 1899Q1342 1899 1292 1877T1221 1827T1200 1756T1244 1686T1363 1660T1499 1693T1560 1787Q1560 1899 1424 1899ZM952
1742Q952 1875 1088 1957T1424 2040Q1810 2040 1810 1826Q1810 1700 1672 1618T1338 1535Q952 1535 952 1742Z" />
<glyph unicode="&#xc6;" glyph-name="AE" horiz-adv-x="2613" d="M2121 919Q2159 919 2159 861T2121 760T2042 715T1955 707T1852 689T1743 661T1640 619T1552 562Q1471 493 1471 391Q1471 185 1905 185Q2022 185 2173 211T2379 257T2450 276Q2488 276 2488 238Q2488
166 2337 102T1932 -1T1434 -40T1068 -16T899 56T850 176T904 395T1024 684Q1198 1066 1198 1208Q1198 1288 1125 1323T935 1359T700 1339T549 1319T515 1349Q515 1388 656 1452Q927 1576 1253 1576Q1468 1576 1560 1507Q1750 1576 1998 1576Q2467 1576 2642 1471Q2680
1448 2680 1404T2615 1257T2509 1116T2434 1077T2371 1102T2327 1164Q2218 1409 1991 1409Q1819 1409 1725 1284Q1677 1221 1677 1138Q1677 913 2037 913L2121 919ZM601 684L857 690Q927 690 927 649Q927 620 894 603Q778 544 494 528Q413 368 413 247Q413 193
427 148T441 82Q441 29 374 11T178 -8T7 15T-34 99Q-34 211 31 346T199 604T425 847T666 1052Q926 1245 1020 1245Q1063 1245 1063 1219T1021 1161Q932 1096 808 963T587 684H601Z" />
<glyph unicode="&#xc7;" glyph-name="Ccedilla" horiz-adv-x="1877" d="M861 322Q956 208 1159 208Q1349 208 1553 272Q1620 293 1652 293Q1710 293 1710 260Q1710 212 1634 158T1442 60T1180 -11T901 -40Q667 -40 489 33T213 241T115 537T169 834T315 1081T531
1285T792 1442Q1085 1576 1354 1576T1772 1466T1921 1195Q1921 1021 1818 890Q1769 826 1688 788T1504 750Q1436 750 1388 769Q1297 805 1297 872Q1297 895 1349 1002T1455 1222T1508 1378T1472 1437T1370 1453T1219 1403T1057 1265T914 1070T810 839T771 615T793
446T861 322ZM1092 -112Q1204 -112 1270 -171T1337 -327T1292 -484Q1205 -600 1009 -600T642 -499Q590 -468 565 -441T539 -384Q539 -325 592 -325Q614 -325 656 -350T785 -402T928 -430T1016 -405T1046 -338T1017 -273T923 -248T822 -238T787 -190T834 -54T941
100L1013 65L956 -128Q1032 -112 1092 -112Z" />
<glyph unicode="&#xc8;" glyph-name="Egrave" horiz-adv-x="1877" d="M1386 919Q1424 919 1424 861T1386 760T1304 715T1212 705T1104 686T993 652T900 603Q806 543 806 439Q806 370 840 319T931 239Q1039 185 1170 185Q1371 185 1684 271Q1702 276 1715 276Q1753
276 1753 238Q1753 168 1611 102T1263 -2T876 -40T549 -17T294 52T122 176T60 355T120 536T280 669T510 758Q757 824 1055 824Q843 835 739 860T574 908T472 962Q378 1030 378 1132T454 1320T657 1462Q918 1576 1263 1576Q1732 1576 1907 1471Q1945 1448 1945 1404T1880
1257T1774 1116T1699 1077T1636 1102T1592 1164Q1483 1409 1256 1409Q1124 1409 1034 1338T943 1164T1047 987T1302 913L1386 919ZM1620 1674Q1620 1636 1580 1636T1430 1670Q1233 1729 971 1755Q914 1760 876 1799T838 1903T892 2009T1033 2050T1231 2002T1424
1890T1563 1765T1620 1674Z" />
<glyph unicode="&#xc9;" glyph-name="Eacute" horiz-adv-x="1877" d="M1386 919Q1424 919 1424 861T1386 760T1304 715T1212 705T1104 686T993 652T900 603Q806 543 806 439Q806 370 840 319T931 239Q1039 185 1170 185Q1371 185 1684 271Q1702 276 1715 276Q1753
276 1753 238Q1753 168 1611 102T1263 -2T876 -40T549 -17T294 52T122 176T60 355T120 536T280 669T510 758Q757 824 1055 824Q843 835 739 860T574 908T472 962Q378 1030 378 1132T454 1320T657 1462Q918 1576 1263 1576Q1732 1576 1907 1471Q1945 1448 1945 1404T1880
1257T1774 1116T1699 1077T1636 1102T1592 1164Q1483 1409 1256 1409Q1124 1409 1034 1338T943 1164T1047 987T1302 913L1386 919ZM1550 2013Q1648 2050 1728 2050T1874 2001T1940 1886Q1940 1847 1913 1814T1827 1772Q1818 1771 1760 1763T1672 1751T1580 1738T1474
1721T1374 1702T1269 1679T1177 1654T1102 1641T1069 1680Q1069 1737 1214 1839T1550 2013Z" />
<glyph unicode="&#xca;" glyph-name="Ecircumflex" horiz-adv-x="1877" d="M1386 919Q1424 919 1424 861T1386 760T1304 715T1212 705T1104 686T993 652T900 603Q806 543 806 439Q806 370 840 319T931 239Q1039 185 1170 185Q1371 185 1684 271Q1702 276 1715
276Q1753 276 1753 238Q1753 168 1611 102T1263 -2T876 -40T549 -17T294 52T122 176T60 355T120 536T280 669T510 758Q757 824 1055 824Q843 835 739 860T574 908T472 962Q378 1030 378 1132T454 1320T657 1462Q918 1576 1263 1576Q1732 1576 1907 1471Q1945 1448
1945 1404T1880 1257T1774 1116T1699 1077T1636 1102T1592 1164Q1483 1409 1256 1409Q1124 1409 1034 1338T943 1164T1047 987T1302 913L1386 919ZM1358 1782Q954 1627 888 1627Q868 1627 854 1639T840 1672Q840 1714 948 1797T1256 2007Q1296 2032 1325 2040T1405
2049T1485 2034T1543 1991Q1674 1861 1741 1781T1809 1660T1762 1620T1632 1653Q1491 1710 1358 1782Z" />
<glyph unicode="&#xcb;" glyph-name="Edieresis" horiz-adv-x="1877" d="M1386 919Q1424 919 1424 861T1386 760T1304 715T1212 705T1104 686T993 652T900 603Q806 543 806 439Q806 370 840 319T931 239Q1039 185 1170 185Q1371 185 1684 271Q1702 276 1715 276Q1753
276 1753 238Q1753 168 1611 102T1263 -2T876 -40T549 -17T294 52T122 176T60 355T120 536T280 669T510 758Q757 824 1055 824Q843 835 739 860T574 908T472 962Q378 1030 378 1132T454 1320T657 1462Q918 1576 1263 1576Q1732 1576 1907 1471Q1945 1448 1945 1404T1880
1257T1774 1116T1699 1077T1636 1102T1592 1164Q1483 1409 1256 1409Q1124 1409 1034 1338T943 1164T1047 987T1302 913L1386 919ZM1218 1749Q1167 1697 1088 1669T915 1641T755 1683T687 1791T738 1909T869 1991T1042 2020T1203 1976T1270 1867T1218 1749ZM2010
1862Q2010 1770 1903 1706T1679 1641T1495 1683T1427 1791T1478 1909T1609 1991T1782 2020T1943 1976T2010 1862Z" />
<glyph unicode="&#xcc;" glyph-name="Igrave" horiz-adv-x="1366" d="M466 594Q223 744 223 982Q223 1088 276 1180T416 1336T614 1446Q833 1536 1076 1536Q1227 1536 1282 1472Q1330 1415 1330 1324T1287 1086T1150 678T1008 267T858 49T574 -20T232 25T72 130Q72
175 139 182Q238 194 282 226T366 340T466 594ZM648 1221Q648 1245 634 1260T597 1275T550 1259T498 1208Q431 1127 431 984T508 717Q648 1133 648 1221ZM1377 1674Q1377 1636 1337 1636T1186 1670Q990 1729 728 1755Q671 1760 633 1799T595 1903T649 2009T790
2050T988 2002T1181 1890T1320 1765T1377 1674Z" />
<glyph unicode="&#xcd;" glyph-name="Iacute" horiz-adv-x="1366" d="M466 594Q223 744 223 982Q223 1088 276 1180T416 1336T614 1446Q833 1536 1076 1536Q1227 1536 1282 1472Q1330 1415 1330 1324T1287 1086T1150 678T1008 267T858 49T574 -20T232 25T72 130Q72
175 139 182Q238 194 282 226T366 340T466 594ZM648 1221Q648 1245 634 1260T597 1275T550 1259T498 1208Q431 1127 431 984T508 717Q648 1133 648 1221ZM1307 2013Q1405 2050 1485 2050T1631 2001T1697 1886Q1697 1847 1670 1814T1584 1772Q1575 1771 1517 1763T1429
1751T1337 1738T1231 1721T1131 1702T1026 1679T934 1654T859 1641T826 1680Q826 1737 971 1839T1307 2013Z" />
<glyph unicode="&#xce;" glyph-name="Icircumflex" horiz-adv-x="1366" d="M466 594Q223 744 223 982Q223 1088 276 1180T416 1336T614 1446Q833 1536 1076 1536Q1227 1536 1282 1472Q1330 1415 1330 1324T1287 1086T1150 678T1008 267T858 49T574 -20T232 25T72
130Q72 175 139 182Q238 194 282 226T366 340T466 594ZM648 1221Q648 1245 634 1260T597 1275T550 1259T498 1208Q431 1127 431 984T508 717Q648 1133 648 1221ZM1115 1782Q711 1627 645 1627Q625 1627 611 1639T597 1672Q597 1714 705 1797T1013 2007Q1053 2032
1082 2040T1162 2049T1242 2034T1300 1991Q1431 1861 1498 1781T1566 1660T1519 1620T1389 1653Q1248 1710 1115 1782Z" />
<glyph unicode="&#xcf;" glyph-name="Idieresis" horiz-adv-x="1366" d="M466 594Q223 744 223 982Q223 1088 276 1180T416 1336T614 1446Q833 1536 1076 1536Q1227 1536 1282 1472Q1330 1415 1330 1324T1287 1086T1150 678T1008 267T858 49T574 -20T232 25T72
130Q72 175 139 182Q238 194 282 226T366 340T466 594ZM648 1221Q648 1245 634 1260T597 1275T550 1259T498 1208Q431 1127 431 984T508 717Q648 1133 648 1221ZM975 1749Q924 1697 845 1669T672 1641T512 1683T444 1791T495 1909T626 1991T799 2020T960 1976T1027
1867T975 1749ZM1767 1862Q1767 1770 1660 1706T1436 1641T1252 1683T1184 1791T1235 1909T1366 1991T1539 2020T1700 1976T1767 1862Z" />
<glyph unicode="&#xd0;" glyph-name="Eth" horiz-adv-x="2046" d="M1063 598L802 600Q704 600 470 576T152 552Q103 552 103 617T130 718T204 755T312 758L526 757Q651 757 885 780T1169 806Q1208 806 1208 730Q1208 645 1164 619Q1127 598 1063 598ZM1041 1360Q914
1360 771 1336T529 1281T351 1227T255 1202Q200 1202 200 1240T260 1319Q453 1448 697 1512T1165 1576T1531 1539T1767 1438T1920 1282Q2032 1111 2032 855Q2032 585 1884 358Q1721 109 1453 12Q1307 -40 1140 -40Q874 -40 724 44Q682 3 622 -8T456 -20T254 -3T85
40T-33 99T-79 158T-59 198T-12 213Q78 213 120 241T207 349T290 529T361 723T438 911Q531 1120 671 1186Q740 1218 847 1235T1062 1253T1170 1203Q1170 1165 1125 1093T1027 870T912 510T813 204L796 160Q827 157 893 157T1040 185T1182 261T1290 376T1370 516T1423
674Q1462 827 1462 1002Q1462 1360 1041 1360Z" />
<glyph unicode="&#xd1;" glyph-name="Ntilde" horiz-adv-x="2218" d="M444 1227L326 1203Q304 1203 293 1209T282 1234Q282 1280 375 1355T629 1493T920 1556T1105 1511T1161 1336L1158 1291Q1357 1445 1515 1511T1824 1577T2058 1514T2140 1330Q2140 1207 2024
936Q1976 824 1928 714Q1812 446 1812 365Q1812 221 1955 196Q2032 183 2044 168T2056 137Q2056 66 1902 13T1556 -40Q1180 -40 1180 183Q1180 339 1288 594Q1333 701 1378 803Q1486 1048 1486 1145T1335 1243Q1247 1243 1137 1181Q1088 988 926 607Q778 261 778
121Q778 121 781 55Q781 24 747 6T676 -12L275 -18Q164 -18 140 20Q129 39 129 78T146 191T254 480T421 882T497 1127T484 1207T444 1227ZM999 1705Q930 1705 930 1754Q930 1786 955 1816T1005 1872Q1144 2024 1319 2024Q1422 2024 1539 1974T1705 1923T1845 1954T1966
1985T2016 1972T2036 1929T1961 1818Q1822 1665 1646 1665Q1576 1665 1501 1690T1358 1741T1252 1767T1121 1736T999 1705Z" />
<glyph unicode="&#xd2;" glyph-name="Ograve" horiz-adv-x="2048" d="M1041 1087Q875 952 788 686Q742 542 742 394Q742 135 911 135Q997 135 1089 206T1254 390T1375 660T1423 972Q1423 1192 1345 1285T1083 1378Q981 1378 863 1356T664 1308T517 1259T442 1237Q405
1237 405 1267Q405 1291 454 1329T592 1410T787 1490Q1036 1576 1274 1576Q1731 1576 1920 1310Q2031 1153 2031 922Q2031 747 1970 594T1800 325T1544 127Q1247 -40 871 -40Q135 -40 135 463Q135 604 196 733T356 958T580 1126Q832 1270 1086 1270Q1126 1270 1143
1256T1161 1226T1157 1201T1139 1176T1116 1152Q1091 1130 1041 1087ZM1714 1674Q1714 1636 1674 1636T1524 1670Q1327 1729 1065 1755Q1008 1760 970 1799T932 1903T986 2009T1127 2050T1325 2002T1518 1890T1657 1765T1714 1674Z" />
<glyph unicode="&#xd3;" glyph-name="Oacute" horiz-adv-x="2048" d="M1041 1087Q875 952 788 686Q742 542 742 394Q742 135 911 135Q997 135 1089 206T1254 390T1375 660T1423 972Q1423 1192 1345 1285T1083 1378Q981 1378 863 1356T664 1308T517 1259T442 1237Q405
1237 405 1267Q405 1291 454 1329T592 1410T787 1490Q1036 1576 1274 1576Q1731 1576 1920 1310Q2031 1153 2031 922Q2031 747 1970 594T1800 325T1544 127Q1247 -40 871 -40Q135 -40 135 463Q135 604 196 733T356 958T580 1126Q832 1270 1086 1270Q1126 1270 1143
1256T1161 1226T1157 1201T1139 1176T1116 1152Q1091 1130 1041 1087ZM1644 2013Q1742 2050 1822 2050T1968 2001T2034 1886Q2034 1847 2007 1814T1921 1772Q1912 1771 1854 1763T1766 1751T1674 1738T1568 1721T1468 1702T1363 1679T1271 1654T1196 1641T1163
1680Q1163 1737 1308 1839T1644 2013Z" />
<glyph unicode="&#xd4;" glyph-name="Ocircumflex" horiz-adv-x="2048" d="M1041 1087Q875 952 788 686Q742 542 742 394Q742 135 911 135Q997 135 1089 206T1254 390T1375 660T1423 972Q1423 1192 1345 1285T1083 1378Q981 1378 863 1356T664 1308T517 1259T442
1237Q405 1237 405 1267Q405 1291 454 1329T592 1410T787 1490Q1036 1576 1274 1576Q1731 1576 1920 1310Q2031 1153 2031 922Q2031 747 1970 594T1800 325T1544 127Q1247 -40 871 -40Q135 -40 135 463Q135 604 196 733T356 958T580 1126Q832 1270 1086 1270Q1126
1270 1143 1256T1161 1226T1157 1201T1139 1176T1116 1152Q1091 1130 1041 1087ZM1452 1782Q1048 1627 982 1627Q962 1627 948 1639T934 1672Q934 1714 1042 1797T1350 2007Q1390 2032 1419 2040T1499 2049T1579 2034T1637 1991Q1768 1861 1835 1781T1903 1660T1856
1620T1726 1653Q1585 1710 1452 1782Z" />
<glyph unicode="&#xd5;" glyph-name="Otilde" horiz-adv-x="2048" d="M1041 1087Q875 952 788 686Q742 542 742 394Q742 135 911 135Q997 135 1089 206T1254 390T1375 660T1423 972Q1423 1192 1345 1285T1083 1378Q981 1378 863 1356T664 1308T517 1259T442 1237Q405
1237 405 1267Q405 1291 454 1329T592 1410T787 1490Q1036 1576 1274 1576Q1731 1576 1920 1310Q2031 1153 2031 922Q2031 747 1970 594T1800 325T1544 127Q1247 -40 871 -40Q135 -40 135 463Q135 604 196 733T356 958T580 1126Q832 1270 1086 1270Q1126 1270 1143
1256T1161 1226T1157 1201T1139 1176T1116 1152Q1091 1130 1041 1087ZM976 1705Q907 1705 907 1754Q907 1786 932 1816T982 1872Q1121 2024 1296 2024Q1399 2024 1516 1974T1682 1923T1822 1954T1943 1985T1993 1972T2013 1929T1938 1818Q1799 1665 1623 1665Q1553
1665 1478 1690T1335 1741T1229 1767T1098 1736T976 1705Z" />
<glyph unicode="&#xd6;" glyph-name="Odieresis" horiz-adv-x="2048" d="M1041 1087Q875 952 788 686Q742 542 742 394Q742 135 911 135Q997 135 1089 206T1254 390T1375 660T1423 972Q1423 1192 1345 1285T1083 1378Q981 1378 863 1356T664 1308T517 1259T442
1237Q405 1237 405 1267Q405 1291 454 1329T592 1410T787 1490Q1036 1576 1274 1576Q1731 1576 1920 1310Q2031 1153 2031 922Q2031 747 1970 594T1800 325T1544 127Q1247 -40 871 -40Q135 -40 135 463Q135 604 196 733T356 958T580 1126Q832 1270 1086 1270Q1126
1270 1143 1256T1161 1226T1157 1201T1139 1176T1116 1152Q1091 1130 1041 1087ZM1312 1749Q1261 1697 1182 1669T1009 1641T849 1683T781 1791T832 1909T963 1991T1136 2020T1297 1976T1364 1867T1312 1749ZM2104 1862Q2104 1770 1997 1706T1773 1641T1589 1683T1521
1791T1572 1909T1703 1991T1876 2020T2037 1976T2104 1862Z" />
<glyph unicode="&#xd7;" glyph-name="multiply" horiz-adv-x="1479" d="M369 994Q468 1090 487 1090T522 1072T578 1004T684 870T797 727Q1008 908 1172 1053Q1186 1067 1207 1067T1284 1008T1340 930T1331 895T1303 861T1268 829T1226 793T1159 735T941 550L985
500Q1027 452 1094 384T1195 277T1229 219T1154 136T1060 72T1022 86T978 130Q943 174 890 248T771 408Q486 169 395 85Q379 71 358 71T287 125T237 203T254 251T288 291T340 336T385 373L628 581L562 652Q485 730 410 822T335 937T369 994Z" />
<glyph unicode="&#xd8;" glyph-name="Oslash" horiz-adv-x="2048" d="M429 196L477 35Q415 -6 319 -82Q177 -193 152 -193T100 -151T72 -62T110 10T262 98T429 196ZM1808 1352Q1869 1393 1972 1472Q2120 1587 2141 1587T2189 1540T2217 1448T2175 1377T2027 1292T1856
1191L1808 1352ZM1041 1087Q875 952 788 686Q742 542 742 394Q742 135 911 135Q997 135 1089 206T1254 390T1375 660T1423 972Q1423 1192 1345 1285T1083 1378Q981 1378 863 1356T664 1308T517 1259T442 1237Q405 1237 405 1267Q405 1291 454 1329T592 1410T787
1490Q1036 1576 1274 1576Q1731 1576 1920 1310Q2031 1153 2031 922Q2031 747 1970 594T1800 325T1544 127Q1247 -40 871 -40Q135 -40 135 463Q135 604 196 733T356 958T580 1126Q832 1270 1086 1270Q1126 1270 1143 1256T1161 1226T1157 1201T1139 1176T1116 1152Q1091
1130 1041 1087Z" />
<glyph unicode="&#xd9;" glyph-name="Ugrave" horiz-adv-x="2223" d="M1702 1527L2016 1523Q2072 1523 2117 1491T2162 1408T2137 1300Q2011 1015 1919 739T1827 345Q1827 296 1850 266T1906 224T1973 204Q2052 187 2052 153Q2052 100 1939 53T1689 -17T1450 -40Q1166
-40 1166 191Q1166 211 1167 222Q1070 114 914 37T613 -40Q312 -40 238 179Q216 244 216 338T254 562T339 788T442 998Q523 1160 523 1193Q523 1259 401 1279Q369 1284 351 1299T333 1339T363 1391T455 1444T598 1490Q780 1536 1026 1536Q1209 1536 1209 1424Q1209
1404 1149 1278T1018 1001T886 674T826 409T860 294T941 268T1014 271T1067 282T1110 294T1152 308T1181 318Q1226 536 1395 938Q1554 1318 1554 1415Q1554 1527 1702 1527ZM1776 1674Q1776 1636 1736 1636T1586 1670Q1389 1729 1127 1755Q1070 1760 1032 1799T994
1903T1048 2009T1189 2050T1387 2002T1580 1890T1719 1765T1776 1674Z" />
<glyph unicode="&#xda;" glyph-name="Uacute" horiz-adv-x="2223" d="M1702 1527L2016 1523Q2072 1523 2117 1491T2162 1408T2137 1300Q2011 1015 1919 739T1827 345Q1827 296 1850 266T1906 224T1973 204Q2052 187 2052 153Q2052 100 1939 53T1689 -17T1450 -40Q1166
-40 1166 191Q1166 211 1167 222Q1070 114 914 37T613 -40Q312 -40 238 179Q216 244 216 338T254 562T339 788T442 998Q523 1160 523 1193Q523 1259 401 1279Q369 1284 351 1299T333 1339T363 1391T455 1444T598 1490Q780 1536 1026 1536Q1209 1536 1209 1424Q1209
1404 1149 1278T1018 1001T886 674T826 409T860 294T941 268T1014 271T1067 282T1110 294T1152 308T1181 318Q1226 536 1395 938Q1554 1318 1554 1415Q1554 1527 1702 1527ZM1706 2013Q1804 2050 1884 2050T2030 2001T2096 1886Q2096 1847 2069 1814T1983 1772Q1974
1771 1916 1763T1828 1751T1736 1738T1630 1721T1530 1702T1425 1679T1333 1654T1258 1641T1225 1680Q1225 1737 1370 1839T1706 2013Z" />
<glyph unicode="&#xdb;" glyph-name="Ucircumflex" horiz-adv-x="2223" d="M1702 1527L2016 1523Q2072 1523 2117 1491T2162 1408T2137 1300Q2011 1015 1919 739T1827 345Q1827 296 1850 266T1906 224T1973 204Q2052 187 2052 153Q2052 100 1939 53T1689 -17T1450
-40Q1166 -40 1166 191Q1166 211 1167 222Q1070 114 914 37T613 -40Q312 -40 238 179Q216 244 216 338T254 562T339 788T442 998Q523 1160 523 1193Q523 1259 401 1279Q369 1284 351 1299T333 1339T363 1391T455 1444T598 1490Q780 1536 1026 1536Q1209 1536 1209
1424Q1209 1404 1149 1278T1018 1001T886 674T826 409T860 294T941 268T1014 271T1067 282T1110 294T1152 308T1181 318Q1226 536 1395 938Q1554 1318 1554 1415Q1554 1527 1702 1527ZM1514 1782Q1110 1627 1044 1627Q1024 1627 1010 1639T996 1672Q996 1714 1104
1797T1412 2007Q1452 2032 1481 2040T1561 2049T1641 2034T1699 1991Q1830 1861 1897 1781T1965 1660T1918 1620T1788 1653Q1647 1710 1514 1782Z" />
<glyph unicode="&#xdc;" glyph-name="Udieresis" horiz-adv-x="2223" d="M1702 1527L2016 1523Q2072 1523 2117 1491T2162 1408T2137 1300Q2011 1015 1919 739T1827 345Q1827 296 1850 266T1906 224T1973 204Q2052 187 2052 153Q2052 100 1939 53T1689 -17T1450
-40Q1166 -40 1166 191Q1166 211 1167 222Q1070 114 914 37T613 -40Q312 -40 238 179Q216 244 216 338T254 562T339 788T442 998Q523 1160 523 1193Q523 1259 401 1279Q369 1284 351 1299T333 1339T363 1391T455 1444T598 1490Q780 1536 1026 1536Q1209 1536 1209
1424Q1209 1404 1149 1278T1018 1001T886 674T826 409T860 294T941 268T1014 271T1067 282T1110 294T1152 308T1181 318Q1226 536 1395 938Q1554 1318 1554 1415Q1554 1527 1702 1527ZM1374 1749Q1323 1697 1244 1669T1071 1641T911 1683T843 1791T894 1909T1025
1991T1198 2020T1359 1976T1426 1867T1374 1749ZM2166 1862Q2166 1770 2059 1706T1835 1641T1651 1683T1583 1791T1634 1909T1765 1991T1938 2020T2099 1976T2166 1862Z" />
<glyph unicode="&#xdd;" glyph-name="Yacute" horiz-adv-x="2048" d="M1704 1526L1974 1523Q2028 1523 2072 1497T2117 1430Q2117 1412 2102 1382Q2037 1252 1878 729T1680 108T1592 -79T1490 -233T1377 -347T1256 -427T1123 -476Q993 -510 827 -510Q728 -510
728 -457Q728 -425 785 -367T852 -296Q973 -140 1119 222Q1017 147 879 97T632 47T456 67T332 126Q209 212 209 387Q209 471 248 600T333 835T426 1042T477 1160T483 1193Q483 1259 361 1279Q329 1284 311 1299T293 1342T338 1404T464 1468Q649 1536 956 1536Q1139
1536 1139 1427Q1139 1347 968 963T796 437Q796 303 966 303Q1056 303 1165 338Q1354 837 1506 1467Q1514 1503 1559 1514T1704 1526ZM1602 2013Q1700 2050 1780 2050T1926 2001T1992 1886Q1992 1847 1965 1814T1879 1772Q1870 1771 1812 1763T1724 1751T1632 1738T1526
1721T1426 1702T1321 1679T1229 1654T1154 1641T1121 1680Q1121 1737 1266 1839T1602 2013Z" />
<glyph unicode="&#xde;" glyph-name="Thorn" horiz-adv-x="2046" d="M434 1227L316 1203Q294 1203 283 1209T272 1234Q272 1279 364 1354T618 1493T910 1556T1095 1511T1151 1353T1098 1079T953 696T828 377Q889 371 971 371T1145 394T1315 465T1439 596T1485
790Q1485 990 1302 1004Q1189 1013 1189 1048Q1189 1067 1223 1094Q1344 1190 1564 1190Q1679 1190 1777 1141T1936 995T1998 774T1955 554T1837 397T1647 296Q1442 226 1109 226Q938 226 790 255Q768 173 768 121L771 55Q771 24 737 6T666 -12L265 -18Q154 -18
130 20Q119 39 119 78T136 191T244 480T411 882T487 1127T474 1207T434 1227Z" />
<glyph unicode="&#xdf;" glyph-name="germandbls" horiz-adv-x="2047" d="M1448 -39L1374 -40Q1159 -40 970 2Q739 52 739 126Q739 175 788 234T888 294Q911 294 950 252T1018 184Q1089 124 1183 124Q1358 124 1358 260Q1358 340 1220 415Q1162 446 1105 479T1007
564T966 673T988 772T1046 846T1125 908T1211 970T1290 1039Q1371 1123 1371 1245Q1371 1324 1325 1370T1214 1417Q1104 1417 1015 1292T825 849T646 231T526 -391Q523 -412 508 -427T479 -443T288 -435T17 -427Q3 -427 -7 -417T-17 -394Q9 -114 73 193Q33 215
-16 247T-65 315T-22 350Q-4 350 19 340T98 307Q236 913 421 1168Q515 1296 617 1372Q824 1528 1198 1528Q1483 1528 1657 1450T1831 1236Q1831 1177 1797 1126T1713 1041T1603 976T1492 922Q1374 869 1374 824Q1374 771 1495 726Q1549 705 1613 682T1743 629T1862
560Q1983 476 1983 353T1921 144Q2142 192 2269 272Q2295 285 2311 285T2337 275T2348 240T2311 189T2193 125T1998 49Q1736 -39 1439 -39L1683 117Q1799 117 1921 144Q1856 56 1734 9T1448 -39Z" />
<glyph unicode="&#xe0;" glyph-name="agrave" horiz-adv-x="1877" d="M787 214Q975 214 1101 502Q1159 634 1159 716T1132 829T1024 860T850 786T699 598T642 395T682 259T787 214ZM1307 1061L1765 1040Q1791 1040 1804 1025T1817 990Q1817 917 1757 758T1636
442T1575 235T1590 170T1650 156T1810 198T1968 263T2032 285Q2071 285 2071 250Q2071 176 1771 56Q1670 15 1528 -12T1238 -40Q993 -40 943 116Q787 -40 523 -40Q342 -40 217 47Q81 142 81 346Q81 561 208 742Q347 943 580 1019Q709 1061 857 1061Q1084 1061 1210
949Q1211 955 1211 968L1210 1011Q1210 1061 1307 1061ZM972 1716Q1091 1649 1209 1543T1396 1350T1465 1234T1453 1194T1429 1182T1257 1250T868 1397Q737 1441 737 1527Q737 1593 804 1658T935 1723Q959 1723 972 1716Z" />
<glyph unicode="&#xe1;" glyph-name="aacute" horiz-adv-x="1877" d="M787 214Q975 214 1101 502Q1159 634 1159 716T1132 829T1024 860T850 786T699 598T642 395T682 259T787 214ZM1307 1061L1765 1040Q1791 1040 1804 1025T1817 990Q1817 917 1757 758T1636
442T1575 235T1590 170T1650 156T1810 198T1968 263T2032 285Q2071 285 2071 250Q2071 176 1771 56Q1670 15 1528 -12T1238 -40Q993 -40 943 116Q787 -40 523 -40Q342 -40 217 47Q81 142 81 346Q81 561 208 742Q347 943 580 1019Q709 1061 857 1061Q1084 1061 1210
949Q1211 955 1211 968L1210 1011Q1210 1061 1307 1061ZM1320 1712Q1341 1723 1371 1723Q1442 1723 1514 1668T1587 1550Q1587 1476 1475 1436Q1138 1313 904 1201Q865 1182 837 1182Q796 1182 796 1219T866 1342T1062 1534T1320 1712Z" />
<glyph unicode="&#xe2;" glyph-name="acircumflex" horiz-adv-x="1877" d="M787 214Q975 214 1101 502Q1159 634 1159 716T1132 829T1024 860T850 786T699 598T642 395T682 259T787 214ZM1307 1061L1765 1040Q1791 1040 1804 1025T1817 990Q1817 917 1757 758T1636
442T1575 235T1590 170T1650 156T1810 198T1968 263T2032 285Q2071 285 2071 250Q2071 176 1771 56Q1670 15 1528 -12T1238 -40Q993 -40 943 116Q787 -40 523 -40Q342 -40 217 47Q81 142 81 346Q81 561 208 742Q347 943 580 1019Q709 1061 857 1061Q1084 1061 1210
949Q1211 955 1211 968L1210 1011Q1210 1061 1307 1061ZM1393 1669Q1679 1330 1679 1240Q1679 1198 1636 1198T1537 1235Q1382 1341 1218 1440Q1049 1364 809 1235Q754 1205 726 1205Q670 1205 670 1252T806 1432T1116 1685Q1154 1711 1184 1719T1279 1727T1393
1669Z" />
<glyph unicode="&#xe3;" glyph-name="atilde" horiz-adv-x="1877" d="M787 214Q975 214 1101 502Q1159 634 1159 716T1132 829T1024 860T850 786T699 598T642 395T682 259T787 214ZM1307 1061L1765 1040Q1791 1040 1804 1025T1817 990Q1817 917 1757 758T1636
442T1575 235T1590 170T1650 156T1810 198T1968 263T2032 285Q2071 285 2071 250Q2071 176 1771 56Q1670 15 1528 -12T1238 -40Q993 -40 943 116Q787 -40 523 -40Q342 -40 217 47Q81 142 81 346Q81 561 208 742Q347 943 580 1019Q709 1061 857 1061Q1084 1061 1210
949Q1211 955 1211 968L1210 1011Q1210 1061 1307 1061ZM720 1291Q651 1291 651 1340Q651 1372 676 1402T726 1458Q884 1630 1030 1630Q1135 1630 1260 1568T1456 1505Q1484 1505 1567 1548T1684 1591Q1757 1591 1757 1542Q1757 1504 1682 1424Q1525 1251 1377
1251Q1307 1251 1227 1282T1074 1345T963 1377T841 1334T720 1291Z" />
<glyph unicode="&#xe4;" glyph-name="adieresis" horiz-adv-x="1877" d="M787 214Q975 214 1101 502Q1159 634 1159 716T1132 829T1024 860T850 786T699 598T642 395T682 259T787 214ZM1307 1061L1765 1040Q1791 1040 1804 1025T1817 990Q1817 917 1757 758T1636
442T1575 235T1590 170T1650 156T1810 198T1968 263T2032 285Q2071 285 2071 250Q2071 176 1771 56Q1670 15 1528 -12T1238 -40Q993 -40 943 116Q787 -40 523 -40Q342 -40 217 47Q81 142 81 346Q81 561 208 742Q347 943 580 1019Q709 1061 857 1061Q1084 1061 1210
949Q1211 955 1211 968L1210 1011Q1210 1061 1307 1061ZM1133 1447Q1133 1354 1030 1285T812 1216T634 1262T570 1376T619 1497T745 1583T914 1615T1069 1567T1133 1447ZM1804 1331Q1756 1278 1679 1247T1509 1216T1354 1262T1290 1376T1339 1497T1465 1583T1634
1615T1789 1567T1853 1452T1804 1331Z" />
<glyph unicode="&#xe5;" glyph-name="aring" horiz-adv-x="1877" d="M787 214Q975 214 1101 502Q1159 634 1159 716T1132 829T1024 860T850 786T699 598T642 395T682 259T787 214ZM1307 1061L1765 1040Q1791 1040 1804 1025T1817 990Q1817 917 1757 758T1636 442T1575
235T1590 170T1650 156T1810 198T1968 263T2032 285Q2071 285 2071 250Q2071 176 1771 56Q1670 15 1528 -12T1238 -40Q993 -40 943 116Q787 -40 523 -40Q342 -40 217 47Q81 142 81 346Q81 561 208 742Q347 943 580 1019Q709 1061 857 1061Q1084 1061 1210 949Q1211
955 1211 968L1210 1011Q1210 1061 1307 1061ZM1403 1435Q1403 1482 1368 1509T1277 1536T1176 1524T1097 1477T1063 1390T1104 1307T1217 1277T1346 1318T1403 1435ZM1278 1677Q1653 1677 1653 1453Q1653 1325 1519 1239T1192 1152Q815 1152 815 1369Q815 1503
947 1590T1278 1677Z" />
<glyph unicode="&#xe6;" glyph-name="ae" horiz-adv-x="2554" d="M1241 1004L1240 1041Q1240 1091 1337 1091Q1381 1091 1526 1061T1736 1030Q1874 1061 2020 1061Q2268 1061 2386 982T2505 765Q2505 623 2392 533T2090 399Q1901 355 1657 337Q1673 182 1880 144Q1932
135 1991 135Q2225 135 2666 276Q2693 285 2707 285Q2742 285 2742 251Q2742 220 2695 193T2577 134T2384 59Q2101 -40 1745 -40Q1363 -40 1229 96Q1166 160 1145 260Q1004 85 869 22Q739 -40 572 -40Q343 -40 232 36Q81 139 81 362Q81 496 144 617T318 830T594
976T949 1031Q1049 1031 1087 1017T1125 974T1101 929T991 875Q848 814 745 675T642 377Q642 304 682 259T787 214Q899 214 1004 323T1175 616T1241 1004ZM1658 447Q1832 495 1933 594T2034 833Q2034 870 2010 892T1938 914T1837 872T1748 762Q1672 621 1658 447Z"
/>
<glyph unicode="&#xe7;" glyph-name="ccedilla" horiz-adv-x="1537" d="M692 653Q646 530 646 427T667 274T730 196Q873 106 1296 186Q1497 224 1588 254T1696 285Q1731 285 1731 251T1678 182Q1538 91 1283 26T714 -40T236 72T73 382Q73 505 124 614T265 803T474
943Q712 1061 1014 1061Q1366 1061 1508 980Q1524 967 1524 932T1493 814T1412 662T1319 592T1252 637T1210 710T1163 778T1107 837T1042 872T950 887T841 855T751 771T692 653ZM959 -112Q1071 -112 1137 -171T1204 -327T1159 -484Q1072 -600 876 -600T509 -499Q457
-468 432 -441T406 -384Q406 -325 459 -325Q481 -325 523 -350T652 -402T795 -430T883 -405T913 -338T884 -273T790 -248T689 -238T654 -190T701 -54T808 100L880 65L823 -128Q899 -112 959 -112Z" />
<glyph unicode="&#xe8;" glyph-name="egrave" horiz-adv-x="1537" d="M1696 285Q1731 285 1731 253T1684 193T1566 134T1373 59Q1090 -40 734 -40Q58 -40 58 376Q58 579 186 736T531 977T1002 1061T1375 982T1494 765Q1494 623 1381 533T1079 399Q890 355 646
337Q662 182 868 144Q921 135 980 135Q1214 135 1655 276Q1682 285 1696 285ZM647 447Q821 495 922 594T1023 833Q1023 870 999 892T927 914T826 872T737 762Q661 621 647 447ZM802 1716Q921 1649 1039 1543T1226 1350T1295 1234T1283 1194T1259 1182T1087 1250T698
1397Q567 1441 567 1527Q567 1593 634 1658T765 1723Q789 1723 802 1716Z" />
<glyph unicode="&#xe9;" glyph-name="eacute" horiz-adv-x="1537" d="M1696 285Q1731 285 1731 253T1684 193T1566 134T1373 59Q1090 -40 734 -40Q58 -40 58 376Q58 579 186 736T531 977T1002 1061T1375 982T1494 765Q1494 623 1381 533T1079 399Q890 355 646
337Q662 182 868 144Q921 135 980 135Q1214 135 1655 276Q1682 285 1696 285ZM647 447Q821 495 922 594T1023 833Q1023 870 999 892T927 914T826 872T737 762Q661 621 647 447ZM1150 1712Q1171 1723 1201 1723Q1272 1723 1344 1668T1417 1550Q1417 1476 1305 1436Q968
1313 734 1201Q695 1182 667 1182Q626 1182 626 1219T696 1342T892 1534T1150 1712Z" />
<glyph unicode="&#xea;" glyph-name="ecircumflex" horiz-adv-x="1537" d="M1696 285Q1731 285 1731 253T1684 193T1566 134T1373 59Q1090 -40 734 -40Q58 -40 58 376Q58 579 186 736T531 977T1002 1061T1375 982T1494 765Q1494 623 1381 533T1079 399Q890 355
646 337Q662 182 868 144Q921 135 980 135Q1214 135 1655 276Q1682 285 1696 285ZM647 447Q821 495 922 594T1023 833Q1023 870 999 892T927 914T826 872T737 762Q661 621 647 447ZM1223 1669Q1509 1330 1509 1240Q1509 1198 1466 1198T1367 1235Q1212 1341 1048
1440Q879 1364 639 1235Q584 1205 556 1205Q500 1205 500 1252T636 1432T946 1685Q984 1711 1014 1719T1109 1727T1223 1669Z" />
<glyph unicode="&#xeb;" glyph-name="edieresis" horiz-adv-x="1537" d="M1696 285Q1731 285 1731 253T1684 193T1566 134T1373 59Q1090 -40 734 -40Q58 -40 58 376Q58 579 186 736T531 977T1002 1061T1375 982T1494 765Q1494 623 1381 533T1079 399Q890 355 646
337Q662 182 868 144Q921 135 980 135Q1214 135 1655 276Q1682 285 1696 285ZM647 447Q821 495 922 594T1023 833Q1023 870 999 892T927 914T826 872T737 762Q661 621 647 447ZM963 1447Q963 1354 860 1285T642 1216T464 1262T400 1376T449 1497T575 1583T744 1615T899
1567T963 1447ZM1634 1331Q1586 1278 1509 1247T1339 1216T1184 1262T1120 1376T1169 1497T1295 1583T1464 1615T1619 1567T1683 1452T1634 1331Z" />
<glyph unicode="&#xec;" glyph-name="igrave" horiz-adv-x="1027" d="M771 169Q839 169 955 201T1125 259T1199 285Q1241 285 1241 243Q1241 224 1210 200Q1108 124 843 42T370 -40Q241 -40 154 1T67 126Q67 177 154 376Q318 753 318 944L317 982Q317 1032 414
1032L908 1043Q934 1043 947 1028T960 993Q960 924 897 766T771 454T708 235T771 169ZM537 1716Q656 1649 774 1543T961 1350T1030 1234T1018 1194T994 1182T822 1250T433 1397Q302 1441 302 1527Q302 1593 369 1658T500 1723Q524 1723 537 1716Z" />
<glyph unicode="&#xed;" glyph-name="iacute" horiz-adv-x="1027" d="M771 169Q839 169 955 201T1125 259T1199 285Q1241 285 1241 243Q1241 224 1210 200Q1108 124 843 42T370 -40Q241 -40 154 1T67 126Q67 177 154 376Q318 753 318 944L317 982Q317 1032 414
1032L908 1043Q934 1043 947 1028T960 993Q960 924 897 766T771 454T708 235T771 169ZM851 1712Q872 1723 902 1723Q973 1723 1045 1668T1118 1550Q1118 1476 1006 1436Q669 1313 435 1201Q396 1182 368 1182Q327 1182 327 1219T397 1342T593 1534T851 1712Z" />
<glyph unicode="&#xee;" glyph-name="icircumflex" horiz-adv-x="1027" d="M771 169Q839 169 955 201T1125 259T1199 285Q1241 285 1241 243Q1241 224 1210 200Q1108 124 843 42T370 -40Q241 -40 154 1T67 126Q67 177 154 376Q318 753 318 944L317 982Q317 1032
414 1032L908 1043Q934 1043 947 1028T960 993Q960 924 897 766T771 454T708 235T771 169ZM924 1669Q1210 1330 1210 1240Q1210 1198 1167 1198T1068 1235Q913 1341 749 1440Q580 1364 340 1235Q285 1205 257 1205Q201 1205 201 1252T337 1432T647 1685Q685 1711
714 1719T810 1727T924 1669Z" />
<glyph unicode="&#xef;" glyph-name="idieresis" horiz-adv-x="1027" d="M771 169Q839 169 955 201T1125 259T1199 285Q1241 285 1241 243Q1241 224 1210 200Q1108 124 843 42T370 -40Q241 -40 154 1T67 126Q67 177 154 376Q318 753 318 944L317 982Q317 1032
414 1032L908 1043Q934 1043 947 1028T960 993Q960 924 897 766T771 454T708 235T771 169ZM664 1447Q664 1354 561 1285T343 1216T165 1262T101 1376T150 1497T276 1583T445 1615T600 1567T664 1447ZM1335 1331Q1287 1278 1210 1247T1040 1216T885 1262T821 1376T870
1497T996 1583T1165 1615T1320 1567T1384 1452T1335 1331Z" />
<glyph unicode="&#xf0;" glyph-name="eth" horiz-adv-x="1877" d="M684 1322L888 1432Q761 1511 573 1534Q519 1541 519 1578Q519 1625 599 1636T840 1647T1171 1595L1459 1732Q1466 1736 1476 1736Q1507 1736 1532 1699T1558 1622T1525 1567L1380 1507Q1566 1400
1668 1225T1771 831Q1771 404 1468 166Q1802 214 1965 272Q1999 285 2022 285Q2061 285 2061 253T2026 196Q1919 122 1593 54T945 -32Q867 -40 781 -40T603 -28T414 18T247 104T131 243T86 441T129 649T251 820T436 946Q649 1051 938 1051Q1070 1051 1133 1043Q1103
1208 1015 1319L743 1190Q734 1185 708 1185T662 1201T642 1258T684 1322ZM1150 888Q1116 892 1097 892Q998 892 912 845T770 720Q650 557 650 363Q650 143 825 143Q895 143 957 203T1061 358T1127 570T1152 758T1150 888Z" />
<glyph unicode="&#xf1;" glyph-name="ntilde" horiz-adv-x="1880" d="M2037 285Q2074 285 2074 251T2038 190T1930 131T1754 57T1510 -11T1245 -40Q948 -40 948 96Q948 184 1048 410T1149 716Q1149 805 1010 805Q947 805 867 789Q829 655 732 363T622 31T568 -9L53
-20Q42 -20 29 -7T15 25T57 156T151 398T245 683T288 941L287 979Q287 1029 384 1029L858 1040Q884 1040 897 1025T910 987T899 914Q1251 1061 1477 1061Q1573 1061 1652 1008Q1740 949 1740 829Q1740 706 1647 507T1554 261Q1554 168 1628 168Q1675 168 1788 203T1956
262T2037 285ZM720 1291Q651 1291 651 1340Q651 1372 676 1402T726 1458Q884 1630 1030 1630Q1135 1630 1260 1568T1456 1505Q1484 1505 1567 1548T1684 1591Q1757 1591 1757 1542Q1757 1504 1682 1424Q1525 1251 1377 1251Q1307 1251 1227 1282T1074 1345T963
1377T841 1334T720 1291Z" />
<glyph unicode="&#xf2;" glyph-name="ograve" horiz-adv-x="1707" d="M251 67Q63 180 63 410Q63 530 112 635T248 818T450 950Q680 1061 977 1061Q1561 1061 1608 691Q1678 668 1752 668T1877 679T1971 712T2035 734Q2073 734 2073 697T2014 620Q1903 544 1720
544Q1651 544 1608 551Q1576 299 1348 132Q1239 52 1081 6T753 -40T462 -14T251 67ZM614 322Q614 137 749 137Q835 137 909 231T1025 464T1067 747T966 892Q878 892 796 809T664 594T614 322ZM850 1716Q969 1649 1087 1543T1274 1350T1343 1234T1331 1194T1307
1182T1135 1250T746 1397Q615 1441 615 1527Q615 1593 682 1658T813 1723Q837 1723 850 1716Z" />
<glyph unicode="&#xf3;" glyph-name="oacute" horiz-adv-x="1707" d="M251 67Q63 180 63 410Q63 530 112 635T248 818T450 950Q680 1061 977 1061Q1561 1061 1608 691Q1678 668 1752 668T1877 679T1971 712T2035 734Q2073 734 2073 697T2014 620Q1903 544 1720
544Q1651 544 1608 551Q1576 299 1348 132Q1239 52 1081 6T753 -40T462 -14T251 67ZM614 322Q614 137 749 137Q835 137 909 231T1025 464T1067 747T966 892Q878 892 796 809T664 594T614 322ZM1198 1712Q1219 1723 1249 1723Q1320 1723 1392 1668T1465 1550Q1465
1476 1353 1436Q1016 1313 782 1201Q743 1182 715 1182Q674 1182 674 1219T744 1342T940 1534T1198 1712Z" />
<glyph unicode="&#xf4;" glyph-name="ocircumflex" horiz-adv-x="1707" d="M251 67Q63 180 63 410Q63 530 112 635T248 818T450 950Q680 1061 977 1061Q1561 1061 1608 691Q1678 668 1752 668T1877 679T1971 712T2035 734Q2073 734 2073 697T2014 620Q1903 544
1720 544Q1651 544 1608 551Q1576 299 1348 132Q1239 52 1081 6T753 -40T462 -14T251 67ZM614 322Q614 137 749 137Q835 137 909 231T1025 464T1067 747T966 892Q878 892 796 809T664 594T614 322ZM1271 1669Q1557 1330 1557 1240Q1557 1198 1514 1198T1415 1235Q1260
1341 1096 1440Q927 1364 687 1235Q632 1205 604 1205Q548 1205 548 1252T684 1432T994 1685Q1032 1711 1062 1719T1157 1727T1271 1669Z" />
<glyph unicode="&#xf5;" glyph-name="otilde" horiz-adv-x="1707" d="M251 67Q63 180 63 410Q63 530 112 635T248 818T450 950Q680 1061 977 1061Q1561 1061 1608 691Q1678 668 1752 668T1877 679T1971 712T2035 734Q2073 734 2073 697T2014 620Q1903 544 1720
544Q1651 544 1608 551Q1576 299 1348 132Q1239 52 1081 6T753 -40T462 -14T251 67ZM614 322Q614 137 749 137Q835 137 909 231T1025 464T1067 747T966 892Q878 892 796 809T664 594T614 322ZM598 1291Q529 1291 529 1340Q529 1372 554 1402T604 1458Q762 1630
908 1630Q1013 1630 1138 1568T1334 1505Q1362 1505 1445 1548T1562 1591Q1635 1591 1635 1542Q1635 1504 1560 1424Q1403 1251 1255 1251Q1185 1251 1105 1282T952 1345T841 1377T719 1334T598 1291Z" />
<glyph unicode="&#xf6;" glyph-name="odieresis" horiz-adv-x="1707" d="M251 67Q63 180 63 410Q63 530 112 635T248 818T450 950Q680 1061 977 1061Q1561 1061 1608 691Q1678 668 1752 668T1877 679T1971 712T2035 734Q2073 734 2073 697T2014 620Q1903 544 1720
544Q1651 544 1608 551Q1576 299 1348 132Q1239 52 1081 6T753 -40T462 -14T251 67ZM614 322Q614 137 749 137Q835 137 909 231T1025 464T1067 747T966 892Q878 892 796 809T664 594T614 322ZM1011 1447Q1011 1354 908 1285T690 1216T512 1262T448 1376T497 1497T623
1583T792 1615T947 1567T1011 1447ZM1682 1331Q1634 1278 1557 1247T1387 1216T1232 1262T1168 1376T1217 1497T1343 1583T1512 1615T1667 1567T1731 1452T1682 1331Z" />
<glyph unicode="&#xf7;" glyph-name="divide" horiz-adv-x="1479" d="M295 475Q244 475 244 534Q244 622 260 646Q292 691 342 696T471 702L889 693L1243 703Q1294 703 1294 644Q1294 556 1278 532Q1246 487 1196 482T1067 476L649 485L295 475ZM1101 970Q1101
902 1015 845T835 787T687 826T634 933T720 1060T901 1119T1048 1079T1101 970ZM931 242Q931 174 845 117T665 59T517 98T464 205T550 332T731 391T878 351T931 242Z" />
<glyph unicode="&#xf8;" glyph-name="oslash" horiz-adv-x="1707" d="M279 276L327 115Q265 74 169 -2Q27 -113 2 -113T-50 -71T-78 18T-40 90T112 178T279 276ZM1310 924Q1371 965 1474 1044Q1622 1159 1643 1159T1691 1112T1719 1020T1677 949T1529 864T1358
763L1310 924ZM251 67Q63 180 63 410Q63 530 112 635T248 818T450 950Q680 1061 977 1061Q1561 1061 1608 691Q1678 668 1752 668T1877 679T1971 712T2035 734Q2073 734 2073 697T2014 620Q1903 544 1720 544Q1651 544 1608 551Q1576 299 1348 132Q1239 52 1081
6T753 -40T462 -14T251 67ZM614 322Q614 137 749 137Q835 137 909 231T1025 464T1067 747T966 892Q878 892 796 809T664 594T614 322Z" />
<glyph unicode="&#xf9;" glyph-name="ugrave" horiz-adv-x="1880" d="M405 1029L857 1040Q883 1040 896 1025T909 979T854 821T742 550T686 340Q686 216 818 216Q881 216 956 232Q980 317 1036 457Q1178 808 1207 991Q1212 1028 1260 1028Q1405 1028 1565 1034T1749
1040T1787 1027T1801 1001Q1801 953 1739 798T1615 478T1553 236T1620 160T1807 196T1974 259T2036 285Q2074 285 2074 249T2021 181T1892 115T1710 44Q1466 -40 1213 -40T928 96Q831 56 769 34T597 -14T395 -40Q101 -40 101 200Q101 283 133 401T204 616Q307 871
307 932T325 1011T405 1029ZM931 1716Q1050 1649 1168 1543T1355 1350T1424 1234T1412 1194T1388 1182T1216 1250T827 1397Q696 1441 696 1527Q696 1593 763 1658T894 1723Q918 1723 931 1716Z" />
<glyph unicode="&#xfa;" glyph-name="uacute" horiz-adv-x="1880" d="M405 1029L857 1040Q883 1040 896 1025T909 979T854 821T742 550T686 340Q686 216 818 216Q881 216 956 232Q980 317 1036 457Q1178 808 1207 991Q1212 1028 1260 1028Q1405 1028 1565 1034T1749
1040T1787 1027T1801 1001Q1801 953 1739 798T1615 478T1553 236T1620 160T1807 196T1974 259T2036 285Q2074 285 2074 249T2021 181T1892 115T1710 44Q1466 -40 1213 -40T928 96Q831 56 769 34T597 -14T395 -40Q101 -40 101 200Q101 283 133 401T204 616Q307 871
307 932T325 1011T405 1029ZM1279 1712Q1300 1723 1330 1723Q1401 1723 1473 1668T1546 1550Q1546 1476 1434 1436Q1097 1313 863 1201Q824 1182 796 1182Q755 1182 755 1219T825 1342T1021 1534T1279 1712Z" />
<glyph unicode="&#xfb;" glyph-name="ucircumflex" horiz-adv-x="1880" d="M405 1029L857 1040Q883 1040 896 1025T909 979T854 821T742 550T686 340Q686 216 818 216Q881 216 956 232Q980 317 1036 457Q1178 808 1207 991Q1212 1028 1260 1028Q1405 1028 1565
1034T1749 1040T1787 1027T1801 1001Q1801 953 1739 798T1615 478T1553 236T1620 160T1807 196T1974 259T2036 285Q2074 285 2074 249T2021 181T1892 115T1710 44Q1466 -40 1213 -40T928 96Q831 56 769 34T597 -14T395 -40Q101 -40 101 200Q101 283 133 401T204
616Q307 871 307 932T325 1011T405 1029ZM1352 1669Q1638 1330 1638 1240Q1638 1198 1595 1198T1496 1235Q1341 1341 1177 1440Q1008 1364 768 1235Q713 1205 685 1205Q629 1205 629 1252T765 1432T1075 1685Q1113 1711 1143 1719T1238 1727T1352 1669Z" />
<glyph unicode="&#xfc;" glyph-name="udieresis" horiz-adv-x="1880" d="M405 1029L857 1040Q883 1040 896 1025T909 979T854 821T742 550T686 340Q686 216 818 216Q881 216 956 232Q980 317 1036 457Q1178 808 1207 991Q1212 1028 1260 1028Q1405 1028 1565 1034T1749
1040T1787 1027T1801 1001Q1801 953 1739 798T1615 478T1553 236T1620 160T1807 196T1974 259T2036 285Q2074 285 2074 249T2021 181T1892 115T1710 44Q1466 -40 1213 -40T928 96Q831 56 769 34T597 -14T395 -40Q101 -40 101 200Q101 283 133 401T204 616Q307 871
307 932T325 1011T405 1029ZM1092 1447Q1092 1354 989 1285T771 1216T593 1262T529 1376T578 1497T704 1583T873 1615T1028 1567T1092 1447ZM1763 1331Q1715 1278 1638 1247T1468 1216T1313 1262T1249 1376T1298 1497T1424 1583T1593 1615T1748 1567T1812 1452T1763
1331Z" />
<glyph unicode="&#xfd;" glyph-name="yacute" horiz-adv-x="1877" d="M2034 285Q2071 285 2071 251Q2071 184 1815 77Q1655 10 1463 -31Q1439 -98 1420 -149T1351 -265T1232 -372T1085 -444T908 -490Q731 -520 494 -520T128 -467T0 -314Q0 -256 50 -209T180 -130T386
-72Q599 -29 921 -1Q948 88 960 148Q669 40 426 40Q101 40 101 255Q101 406 191 628T282 941L281 979Q281 1029 378 1029L611 1025L822 1040Q848 1040 861 1025T874 971T845 837T780 658Q685 435 685 358Q685 314 717 291T801 268Q911 268 1006 329Q1113 618 1203
972Q1212 1009 1256 1009Q1401 1009 1567 1024T1757 1040T1796 1028T1810 1005Q1810 962 1511 104Q1659 139 1786 187T1960 260T2034 285ZM835 -253Q864 -180 885 -115Q435 -172 435 -323Q435 -362 475 -396T557 -431Q648 -431 727 -385T835 -253ZM1243 1712Q1264
1723 1294 1723Q1365 1723 1437 1668T1510 1550Q1510 1476 1398 1436Q1061 1313 827 1201Q788 1182 760 1182Q719 1182 719 1219T789 1342T985 1534T1243 1712Z" />
<glyph unicode="&#xfe;" glyph-name="thorn" horiz-adv-x="1877" d="M783 1481L984 1484Q1010 1484 1023 1469T1036 1424T1006 1294Q970 1168 852 851Q1038 1061 1345 1061Q1532 1061 1639 966T1747 695Q1747 355 1480 139Q1790 161 1956 254Q2011 285 2037 285Q2071
285 2071 248Q2071 222 2034 195Q1864 76 1597 19T1021 -38Q983 -40 964 -40Q862 -40 760 -10T586 74Q575 70 572 69Q507 -139 507 -405L508 -434Q508 -484 411 -484L-54 -496Q-78 -496 -92 -482T-106 -449Q-106 -361 -32 -126T165 446T328 894Q432 1193 432 1330L425
1431Q425 1481 522 1481H783ZM1050 807Q862 807 736 519Q678 387 678 305T705 192T813 161T987 235T1138 423T1195 626T1155 762T1050 807Z" />
<glyph unicode="&#xff;" glyph-name="ydieresis" horiz-adv-x="1877" d="M2034 285Q2071 285 2071 251Q2071 184 1815 77Q1655 10 1463 -31Q1439 -98 1420 -149T1351 -265T1232 -372T1085 -444T908 -490Q731 -520 494 -520T128 -467T0 -314Q0 -256 50 -209T180
-130T386 -72Q599 -29 921 -1Q948 88 960 148Q669 40 426 40Q101 40 101 255Q101 406 191 628T282 941L281 979Q281 1029 378 1029L611 1025L822 1040Q848 1040 861 1025T874 971T845 837T780 658Q685 435 685 358Q685 314 717 291T801 268Q911 268 1006 329Q1113
618 1203 972Q1212 1009 1256 1009Q1401 1009 1567 1024T1757 1040T1796 1028T1810 1005Q1810 962 1511 104Q1659 139 1786 187T1960 260T2034 285ZM835 -253Q864 -180 885 -115Q435 -172 435 -323Q435 -362 475 -396T557 -431Q648 -431 727 -385T835 -253ZM1056
1447Q1056 1354 953 1285T735 1216T557 1262T493 1376T542 1497T668 1583T837 1615T992 1567T1056 1447ZM1727 1331Q1679 1278 1602 1247T1432 1216T1277 1262T1213 1376T1262 1497T1388 1583T1557 1615T1712 1567T1776 1452T1727 1331Z" />
<glyph unicode="&#x2013;" glyph-name="endash" horiz-adv-x="1491" d="M728 485L269 475Q244 475 244 521T245 588T250 636Q259 689 288 695T357 702L848 693L1260 703Q1286 703 1286 657T1285 590T1280 542Q1271 489 1241 483T1172 476L728 485Z" />
<glyph unicode="&#x2014;" glyph-name="emdash" horiz-adv-x="2529" d="M295 475Q244 475 244 534Q244 622 260 646Q292 691 342 696T471 702L1453 693L2277 703Q2328 703 2328 644Q2328 556 2312 532Q2280 487 2230 482T2101 476L1213 485L295 475Z" />
<glyph unicode="&#x2018;" glyph-name="quoteleft" horiz-adv-x="819" d="M829 1707Q887 1707 887 1663Q887 1639 841 1571T748 1428T702 1324T718 1267T752 1220Q803 1167 803 1115Q803 1098 797 1079Q771 998 703 938T545 878T409 930T363 1089T447 1343T656
1598T829 1707Z" />
<glyph unicode="&#x2019;" glyph-name="quoteright" horiz-adv-x="819" d="M358 878Q308 878 308 922Q308 955 374 1042Q499 1210 499 1255T457 1366T415 1466Q415 1554 499 1630T678 1707T820 1659T867 1522Q867 1393 779 1260T536 978Q431 878 358 878Z" />
<glyph unicode="&#x201a;" glyph-name="quotesinglbase" horiz-adv-x="819" d="M85 -510Q35 -510 35 -466Q35 -442 82 -375T178 -234T226 -125T184 -22T142 78Q142 166 226 242T405 319T547 271T594 134Q594 5 506 -128T263 -410Q158 -510 85 -510Z" />
<glyph unicode="&#x201c;" glyph-name="quotedblleft" horiz-adv-x="1423" d="M829 1707Q887 1707 887 1663Q887 1639 841 1571T748 1428T702 1324T718 1267T752 1220Q803 1167 803 1115Q803 1098 797 1079Q771 998 703 938T545 878T409 930T363 1089T447 1343T656
1598T829 1707ZM1399 1707Q1457 1707 1457 1663Q1457 1639 1411 1571T1318 1428T1272 1324T1288 1267T1322 1220Q1373 1167 1373 1115Q1373 1098 1367 1079Q1341 998 1273 938T1115 878T979 930T933 1089T1017 1343T1226 1598T1399 1707Z" />
<glyph unicode="&#x201d;" glyph-name="quotedblright" horiz-adv-x="1423" d="M358 878Q308 878 308 922Q308 955 374 1042Q499 1210 499 1255T457 1366T415 1466Q415 1554 499 1630T678 1707T820 1659T867 1522Q867 1393 779 1260T536 978Q431 878 358 878ZM958
878Q908 878 908 922Q908 955 974 1042Q1099 1210 1099 1255T1057 1366T1015 1466Q1015 1554 1099 1630T1278 1707T1420 1659T1467 1522Q1467 1393 1379 1260T1136 978Q1031 878 958 878Z" />
<glyph unicode="&#x201e;" glyph-name="quotedblbase" horiz-adv-x="1523" d="M140 -410Q90 -410 90 -366Q90 -342 137 -275T233 -134T281 -25T239 78T197 178Q197 266 281 342T460 419T602 371T649 234Q649 105 561 -28T318 -310Q213 -410 140 -410ZM740 -410Q690
-410 690 -366Q690 -333 756 -246Q881 -78 881 -33T839 78T797 178Q797 266 881 342T1060 419T1202 371T1249 234Q1249 105 1161 -28T918 -310Q813 -410 740 -410Z" />
<glyph unicode="&#x2022;" glyph-name="bullet" horiz-adv-x="1365" d="M1105 657Q1032 576 914 529T657 481T422 552T326 724T400 908T591 1038T847 1086T1082 1013T1178 840T1105 657Z" />
<glyph unicode="&#x2039;" glyph-name="guilsinglleft" horiz-adv-x="1541" d="M1001 11Q992 11 955 39T783 172Q504 387 365 484Q343 499 343 541T383 653T464 738Q674 823 989 960T1311 1097Q1335 1097 1352 1078T1369 1029Q1369 975 1312 936T1142 816Q931
666 744 556Q822 478 872 418T976 294T1064 190T1098 110T1070 40T1001 11Z" />
<glyph unicode="&#x203a;" glyph-name="guilsinglright" horiz-adv-x="1541" d="M621 1097Q630 1097 667 1069T839 936Q1118 721 1257 624Q1279 609 1279 567T1239 455T1158 370Q948 285 633 148T311 11Q287 11 270 30T253 79Q253 133 321 179Q364 209 479 292Q691
444 877 552Q793 638 750 690T644 816T553 924T524 998T552 1068T621 1097Z" />
</font>
</defs>
</svg>
