<?xml version="1.0" standalone="no"?>
<!DOCTYPE svg PUBLIC "-//W3C//DTD SVG 1.1//EN" "http://www.w3.org/Graphics/SVG/1.1/DTD/svg11.dtd">
<svg xmlns="http://www.w3.org/2000/svg">
<defs >
<font id="Kadwa" horiz-adv-x="1234" ><font-face
    font-family="Kadwa"
    units-per-em="2048"
    panose-1="0 0 5 0 0 0 0 0 0 0"
    ascent="2691"
    descent="-1421"
    alphabetic="0" />
<glyph unicode=" " glyph-name="space" horiz-adv-x="471" />
<glyph unicode="!" glyph-name="exclam" horiz-adv-x="655" d="M215 1536H451L420 512L246 502L215 1536ZM195 190T233 228T328 266Q389 266 425 228T461 123Q461 57 423 19T328 -20Q267 -20 231 17T195 123Q195 190 233 228Z" />
<glyph unicode="&quot;" glyph-name="quotedbl" horiz-adv-x="794" d="M133 1577H328L287 1065H133V1577ZM485 1577H682L639 1065H485V1577Z" />
<glyph unicode="#" glyph-name="numbersign" horiz-adv-x="1413" d="M471 1229H635L592 911H889L932 1229H1096L1053 911H1280V778H1034L995 481H1229V348H977L932 0H768L813 348H516L471 0H307L352 348H133V481H371L410 778H184V911H428L471 1229ZM870 778H573L535
481H831L870 778Z" />
<glyph unicode="$" glyph-name="dollar" horiz-adv-x="1116" d="M406 -18T326 -3T196 28T133 51V379H276L317 190Q323 186 348 177T416 159T512 150Q631 150 716 198T801 338Q801 397 765 437T676 502T526 561Q401 604 327 643T198 754T143 942Q143 1098 240 1187T492
1298V1536H645V1305Q719 1299 792 1283T913 1250T973 1229L963 922H840L788 1106Q780 1110 753 1119T682 1137T594 1147Q477 1147 413 1097T348 973Q348 914 385 873T477 805T629 743Q748 700 823 662T951 554T1004 379Q1004 217 905 119T645 -8V-287H492V-20Q406
-18 326 -3Z" />
<glyph unicode="%" glyph-name="percent" horiz-adv-x="1669" d="M92 1257T186 1355T430 1454Q573 1454 660 1365T748 1106Q748 928 655 833T410 737Q265 737 179 823T92 1085Q92 1257 186 1355ZM502 0H317L1147 1434H1331L502 0ZM246 870T420 870Q594 870 594
1096Q594 1200 551 1260T420 1321Q332 1321 289 1261T246 1096Q246 870 420 870ZM901 500T995 598T1239 696Q1382 696 1469 607T1556 348Q1556 170 1463 75T1219 -20Q1074 -20 988 66T901 328Q901 500 995 598ZM1055 113T1229 113Q1403 113 1403 338Q1403 442 1360
502T1229 563Q1141 563 1098 503T1055 338Q1055 113 1229 113Z" />
<glyph unicode="&amp;" glyph-name="ampersand" horiz-adv-x="1372" d="M1126 217T992 99T625 -20Q381 -20 262 92T143 399Q143 508 204 593T343 731T420 778Q420 772 353 806T232 908T178 1085Q178 1269 304 1361T655 1454Q735 1454 822 1436T968 1398T1044 1372L1034
1085H903L860 1249Q854 1251 827 1258T749 1273T635 1280Q514 1280 452 1225T389 1075Q389 971 467 906T655 840H1290V717L1126 676V430Q1126 217 992 99ZM569 676T503 641T397 546T358 410Q358 283 434 219T645 154Q776 154 849 222T922 420V676H645Q569 676 503
641Z" />
<glyph unicode="&apos;" glyph-name="quotesingle" horiz-adv-x="419" d="M113 1577H307L266 1065H113V1577Z" />
<glyph unicode="(" glyph-name="parenleft" horiz-adv-x="675" d="M528 1352T442 1089T356 584Q356 316 440 28T674 -471H492Q314 -223 233 22T152 573Q152 862 232 1090T492 1577H676Q528 1352 442 1089Z" />
<glyph unicode=")" glyph-name="parenright" horiz-adv-x="675" d="M360 1319T441 1091T522 573Q522 268 441 23T182 -471H0Q150 -260 233 27T317 584Q317 826 231 1089T-2 1577H182Q360 1319 441 1091Z" />
<glyph unicode="*" glyph-name="asterisk" horiz-adv-x="825" d="M348 1247L322 1501L471 1505L457 1245L401 1200L348 1247ZM457 1245L692 1346L743 1202L487 1143L428 1182L457 1245ZM313 1147L51 1198L100 1341L348 1247L375 1182L313 1147ZM399 1081L266 850L143
936L313 1147L385 1151L399 1081ZM659 940L541 850L399 1081L418 1151L487 1143L659 940Z" />
<glyph unicode="+" glyph-name="plus" horiz-adv-x="1269" d="M549 1085H723V625H1167V461H723V0H549V461H102V625H549V1085Z" />
<glyph unicode="," glyph-name="comma" horiz-adv-x="542" d="M143 188T180 227T276 266Q335 266 372 231T410 115Q410 31 347 -84T174 -315L82 -238Q90 -228 115 -189T165 -102T190 -20Q190 0 172 33Q143 86 143 129Q143 188 180 227Z" />
<glyph unicode="-" glyph-name="hyphen" horiz-adv-x="768" d="M655 471H123V645H655V471Z" />
<glyph unicode="." glyph-name="period" horiz-adv-x="532" d="M133 190T172 228T266 266Q327 266 363 228T399 123Q399 57 362 19T266 -20Q205 -20 169 17T133 123Q133 190 172 228Z" />
<glyph unicode="/" glyph-name="slash" horiz-adv-x="1036" d="M297 0H82L760 1434H975L297 0Z" />
<glyph unicode="0" glyph-name="zero" horiz-adv-x="1320" d="M967 1454T1082 1277T1198 737Q1198 368 1067 174T666 -20Q396 -20 270 165T143 707Q143 1455 686 1454Q967 1454 1082 1277ZM510 1280T440 1144T369 717Q369 436 443 295T676 154Q834 154 903 295T973
727Q973 1014 907 1147T676 1280Q510 1280 440 1144Z" />
<glyph unicode="1" glyph-name="one" horiz-adv-x="1048" d="M160 174H475V1198L127 973L41 1120L518 1434H690V174H997V0H160V174Z" />
<glyph unicode="2" glyph-name="two" horiz-adv-x="1167" d="M369 422T510 562T725 819T799 1044Q799 1153 725 1216T522 1280Q473 1280 425 1271T346 1253T307 1239L287 1044H123L113 1372Q131 1378 195 1397T353 1435T532 1454Q774 1454 899 1363T1024 1065Q1024
934 957 805T752 529T379 174H1065V0H92V174Q369 422 510 562Z" />
<glyph unicode="3" glyph-name="three" horiz-adv-x="1126" d="M592 829T675 891T758 1075Q758 1167 686 1223T492 1280Q437 1280 387 1271T305 1253T266 1239L246 1055H82L72 1372Q90 1378 154 1397T315 1435T502 1454Q721 1454 847 1367T973 1096Q973 963 907
875T707 754Q844 725 924 634T1004 430Q1004 270 923 170T719 25T461 -20Q342 -20 249 2T99 51T41 82L102 246Q102 244 161 220T303 175T471 154Q612 154 695 223T778 420Q778 535 687 600T440 666H287V829H451Q592 829 675 891Z" />
<glyph unicode="4" glyph-name="four" horiz-adv-x="1249" d="M932 512H1167V338H932V0H721V338H61L41 492L696 1464L932 1434V512ZM721 1188L266 512H721V1188Z" />
<glyph unicode="5" glyph-name="five" horiz-adv-x="1085" d="M324 870H389Q573 870 707 816T912 665T983 440Q983 295 910 191T718 33T471 -20Q352 -20 257 2T102 51T41 82L102 246Q102 244 158 220T295 175T461 154Q584 154 671 226T758 430Q758 565 647 636T338
707H123L150 1434H926L920 1260H342L324 870Z" />
<glyph unicode="6" glyph-name="six" horiz-adv-x="1228" d="M1004 1272T961 1276T860 1280Q647 1280 533 1169T383 940T348 778Q348 780 399 808T528 858T696 881Q817 881 917 830T1077 681T1137 451Q1137 312 1071 204T891 38T645 -20Q387 -20 255 151T123 604Q123
854 207 1045T459 1345T870 1454Q933 1454 978 1445T1024 1434L1014 1270Q1004 1272 961 1276ZM338 350T425 252T645 154Q770 154 846 227T922 430Q922 567 848 637T635 707Q561 707 496 687T384 641T338 614V553Q338 350 425 252Z" />
<glyph unicode="7" glyph-name="seven" horiz-adv-x="1028" d="M446 0H211L754 1249H205L164 1055H10V1434H993V1280L446 0Z" />
<glyph unicode="8" glyph-name="eight" horiz-adv-x="1208" d="M1085 952T1000 874T821 760Q954 705 1030 624T1106 410Q1106 287 1044 189T862 35T584 -20Q353 -20 228 93T102 389Q102 534 196 622T385 752Q270 809 207 882T143 1075Q143 1261 274 1357T635 1454Q852
1454 968 1353T1085 1085Q1085 952 1000 874ZM358 1006T397 959T495 883T651 819Q729 848 799 911T870 1075Q870 1169 803 1224T614 1280Q493 1280 426 1225T358 1075Q358 1006 397 959ZM881 471T839 521T735 603T563 678Q475 637 402 574T328 399Q328 284 400
220T604 156Q735 156 808 220T881 399Q881 471 839 521Z" />
<glyph unicode="9" glyph-name="nine" horiz-adv-x="1228" d="M227 162T274 158T379 154Q598 154 709 267T851 496T881 666Q881 664 830 636T701 586T532 563Q411 563 311 611T152 754T92 983Q92 1126 158 1233T337 1397T584 1454Q842 1454 974 1283T1106 829Q1106
577 1025 386T778 88T369 -20Q306 -20 256 -11T205 0L215 164Q227 162 274 158ZM891 1087T804 1183T584 1280Q459 1280 383 1207T307 1004Q307 738 594 737Q668 737 733 757T845 802T891 829V891Q891 1087 804 1183Z" />
<glyph unicode=":" glyph-name="colon" horiz-adv-x="573" d="M154 856T192 894T287 932Q348 932 384 894T420 788Q420 722 382 684T287 645Q226 645 190 683T154 788Q154 856 192 894ZM154 190T192 228T287 266Q348 266 384 228T420 123Q420 57 382 19T287 -20Q226
-20 190 17T154 123Q154 190 192 228Z" />
<glyph unicode=";" glyph-name="semicolon" horiz-adv-x="573" d="M152 856T190 894T285 932Q346 932 382 894T418 788Q418 722 380 684T285 645Q224 645 188 683T152 788Q152 856 190 894ZM293 -199T356 -84T420 115Q420 195 383 230T287 266Q228 266 191 227T154
129Q154 86 182 33Q200 0 201 -20Q201 -53 177 -101T126 -188T92 -238L184 -315Q293 -199 356 -84Z" />
<glyph unicode="&lt;" glyph-name="less" horiz-adv-x="1249" d="M102 471V614L1147 1085V911L328 543L1147 164V-10L102 471Z" />
<glyph unicode="=" glyph-name="equal" horiz-adv-x="1228" d="M1116 676H113V840H1116V676ZM1116 276H113V440H1116V276Z" />
<glyph unicode="&gt;" glyph-name="greater" horiz-adv-x="1249" d="M102 1085L1147 614V471L102 -10V164L922 543L102 911V1085Z" />
<glyph unicode="?" glyph-name="question" horiz-adv-x="985" d="M291 489T283 559T274 668Q274 723 314 772T438 895Q536 981 586 1044T637 1188Q637 1272 584 1312T422 1352Q359 1352 292 1341T207 1325L174 1479Q184 1483 223 1494T319 1515T432 1526Q616 1526
734 1452T852 1208Q852 1128 820 1061T744 944T627 825Q549 753 511 706T473 606Q473 557 475 523T477 479L293 467Q291 489 283 559ZM268 190T307 228T401 266Q462 266 498 228T535 123Q535 57 497 19T401 -20Q340 -20 304 17T268 123Q268 190 307 228Z" />
<glyph unicode="@" glyph-name="at" horiz-adv-x="1679" d="M588 1073T632 1088T739 1118T862 1133Q995 1133 1059 1076T1124 897V530Q1124 487 1150 464T1221 440Q1301 440 1347 517T1393 727Q1393 901 1327 1031T1137 1230T850 1300Q680 1300 555 1230T364 1028T297
717Q297 441 432 287T809 133Q868 133 922 144T1012 168T1055 184L1137 61Q1137 59 1091 38T969 -2T799 -20Q477 -20 305 167T133 707Q133 930 223 1099T478 1361T860 1454Q1073 1454 1229 1367T1471 1118T1556 737Q1556 542 1463 430T1210 317Q1128 317 1078 347T1008
410T987 453Q987 451 948 417T856 355T745 326Q634 326 576 384T518 555Q518 670 600 726T850 782H961V881Q961 994 821 993Q786 993 737 983T656 965T612 952L575 1069Q588 1073 632 1088ZM762 672T720 645T678 555Q678 512 706 487T784 461Q827 461 866 481T929
524T961 553V672H862Q762 672 720 645Z" />
<glyph unicode="A" glyph-name="A" horiz-adv-x="1484" d="M645 1423L850 1434L1305 162L1475 123V0H881V123L1071 162L993 389H461L381 162L573 123V0H10V123L178 162L645 1423ZM731 1169L516 553H938L731 1169Z" />
<glyph unicode="B" glyph-name="B" horiz-adv-x="1290" d="M256 1270L82 1311V1423L461 1434H696Q897 1434 1017 1344T1137 1075Q1137 811 870 743Q1028 706 1108 621T1188 410Q1188 199 1056 100T666 0H82V123L256 164V1270ZM758 819T840 877T922 1055Q922 1159
857 1214T686 1270H461V819H614Q758 819 840 877ZM821 164T897 224T973 399Q973 546 883 606T614 666H461V164H676Q821 164 897 224Z" />
<glyph unicode="C" glyph-name="C" horiz-adv-x="1361" d="M1042 1243T1008 1252T915 1271T788 1280Q581 1280 470 1130T358 696Q358 430 478 297T799 164Q895 164 986 201T1142 281T1208 328L1290 195Q1290 189 1217 133T1029 28T778 -20Q467 -20 295 162T123
686Q123 919 207 1092T445 1360T809 1454Q909 1454 1011 1432T1192 1382T1270 1352L1260 1004H1106L1051 1239Q1042 1243 1008 1252Z" />
<glyph unicode="D" glyph-name="D" horiz-adv-x="1495" d="M266 1270L92 1311V1423L481 1434H737Q1040 1434 1211 1253T1382 737Q1382 514 1300 347T1063 90T707 0H92V123L266 164V1270ZM918 164T1032 304T1147 727Q1147 1003 1037 1136T727 1270H481V164H717Q918
164 1032 304Z" />
<glyph unicode="E" glyph-name="E" horiz-adv-x="1259" d="M963 829V666H492V164H963L1004 369H1137V0H102V123L276 164V1270L102 1311V1423L492 1434H1116V1085H983L932 1270H492V829H963Z" />
<glyph unicode="F" glyph-name="F" horiz-adv-x="1167" d="M942 809V645H471V164L676 123V0H82V123L256 164V1270L82 1311V1423L471 1434H1096V1096H963L911 1270H471V809H942Z" />
<glyph unicode="G" glyph-name="G" horiz-adv-x="1536" d="M1300 98T1224 67T1030 8T778 -20Q467 -20 295 162T123 686Q123 919 207 1092T445 1360T809 1454Q909 1454 1011 1432T1192 1382T1270 1352L1260 1014H1126L1065 1239Q1055 1243 1017 1252T918 1271T788
1280Q581 1280 470 1130T358 696Q358 428 480 291T809 154Q872 154 935 165T1042 188T1096 205V541L922 582V694L1454 705V582L1300 541V102Q1300 98 1224 67Z" />
<glyph unicode="H" glyph-name="H" horiz-adv-x="1628" d="M82 123L256 164V1270L82 1311V1423L666 1434V1311L471 1270V819H1157V1270L963 1311V1423L1546 1434V1311L1372 1270V164L1546 123V0H963V123L1157 164V655H471V164L666 123V0H82V123Z" />
<glyph unicode="I" glyph-name="I" horiz-adv-x="747" d="M92 123L266 164V1270L92 1311V1423L655 1434V1311L481 1270V164L655 123V0H92V123Z" />
<glyph unicode="J" glyph-name="J" horiz-adv-x="735" d="M479 1270V92Q479 -94 376 -200T90 -307Q57 -307 14 -303T-41 -297L-23 -143H80Q176 -143 220 -94T264 51V1270L90 1311V1423L653 1434V1311L479 1270Z" />
<glyph unicode="K" glyph-name="K" horiz-adv-x="1413" d="M92 123L266 164V1270L92 1311V1423L676 1434V1311L481 1270V819H670L1024 1423L1362 1434V1311L1159 1270L848 752L1270 164L1444 123V0H860V123L1034 164L682 655H481V164L676 123V0H92V123Z" />
<glyph unicode="L" glyph-name="L" horiz-adv-x="1085" d="M922 399H1065V0H72V123L246 164V1270L72 1311V1423L635 1434V1311L461 1270V164H881L922 399Z" />
<glyph unicode="M" glyph-name="M" horiz-adv-x="1812" d="M1352 1188L1290 1034L973 389L809 379L492 1044L440 1188V164L635 123V0H82V123L256 164V1270L82 1311V1423L543 1434L913 614L1300 1423L1731 1434V1311L1556 1270V164L1731 123V0H1157V123L1352 164V1188Z" />
<glyph unicode="N" glyph-name="N" horiz-adv-x="1617" d="M635 123V0H82V123L256 164V1270L82 1311V1423L512 1434L1188 289V1270L1014 1311V1423L1546 1434V1311L1372 1270V0H1116L440 1128V164L635 123Z" />
<glyph unicode="O" glyph-name="O" horiz-adv-x="1546" d="M985 1454T1128 1367T1347 1118T1423 737Q1423 514 1338 342T1100 75T748 -20Q447 -20 285 167T123 707Q123 930 204 1100T435 1362T788 1454Q985 1454 1128 1367ZM573 1280T466 1142T358 717Q358 438
458 296T758 154Q963 154 1075 298T1188 727Q1188 1001 1084 1140T778 1280Q573 1280 466 1142Z" />
<glyph unicode="P" glyph-name="P" horiz-adv-x="1208" d="M256 1270L82 1311V1423L471 1434H686Q913 1434 1035 1321T1157 1014Q1157 778 1013 655T604 532H471V164L645 123V0H82V123L256 164V1270ZM772 696T857 770T942 983Q942 1110 873 1190T676 1270H471V696H604Q772
696 857 770Z" />
<glyph unicode="Q" glyph-name="Q" horiz-adv-x="1515" d="M1673 -266T1618 -295T1492 -351T1372 -379Q1319 -379 1259 -351T1106 -266L698 -16Q422 4 273 189T123 707Q123 930 209 1099T450 1361T809 1454Q1112 1454 1278 1263T1444 737Q1444 461 1319 269T977
10L1198 -123Q1264 -162 1315 -183T1413 -205Q1446 -205 1489 -189T1564 -156T1608 -133L1690 -256Q1673 -266 1618 -295ZM580 1280T464 1139T348 717Q348 445 456 300T778 154Q993 154 1106 299T1219 727Q1219 1280 799 1280Q580 1280 464 1139Z" />
<glyph unicode="R" glyph-name="R" horiz-adv-x="1331" d="M256 1270L82 1311V1423L471 1434H696Q913 1434 1035 1336T1157 1065Q1157 764 891 666Q940 623 1014 481L1176 156L1321 123V0H1014L840 379Q791 485 754 535T675 605T563 625H471V164L645 123V0H82V123L256
164V1270ZM774 778T858 845T942 1034Q942 1136 871 1203T686 1270H471V778H625Q774 778 858 845Z" />
<glyph unicode="S" glyph-name="S" horiz-adv-x="1222" d="M356 201T385 189T464 165T573 154Q696 154 791 212T887 373Q887 439 846 483T745 556T578 623Q439 672 354 715T208 839T147 1047Q147 1250 285 1352T633 1454Q719 1454 815 1436T979 1398T1065 1372L1055
1024H922L852 1243Q844 1245 813 1254T733 1272T635 1280Q504 1280 433 1222T362 1081Q362 1015 403 971T505 897T678 829Q811 782 896 740T1040 622T1100 428Q1100 281 1028 180T835 29T565 -20Q469 -20 376 -2T222 35T143 61V420H307L348 205Q356 201 385 189Z"
/>
<glyph unicode="T" glyph-name="T" horiz-adv-x="1157" d="M266 123L471 164V1270H205L154 1065H20V1434H1137V1065H1004L952 1270H686V164L891 123V0H266V123Z" />
<glyph unicode="U" glyph-name="U" horiz-adv-x="1617" d="M1362 283T1235 132T799 -20Q506 -20 381 120T256 553V1270L82 1311V1423L666 1434V1311L471 1270V553Q471 399 506 313T614 191T809 154Q938 154 1010 195T1115 329T1147 584V1270L952 1311V1423L1536
1434V1311L1362 1270V584Q1362 283 1235 132Z" />
<glyph unicode="V" glyph-name="V" horiz-adv-x="1433" d="M10 1423L584 1434V1311L397 1272L719 276L1061 1270L870 1311V1423L1423 1434V1311L1264 1270L809 0H604L168 1270L10 1311V1423Z" />
<glyph unicode="W" glyph-name="W" horiz-adv-x="2119" d="M10 1423L584 1434V1311L406 1270L625 342L963 1423L1157 1434L1489 319L1743 1270L1556 1311V1423L2109 1434V1311L1948 1270L1587 0H1362L1116 942L1057 1163L993 932L717 0H512L170 1270L10 1311V1423Z" />
<glyph unicode="X" glyph-name="X" horiz-adv-x="1433" d="M584 727L205 1270L51 1311V1423L594 1434V1311L461 1270L727 881L993 1270L850 1311V1423L1393 1434V1311L1208 1270L840 737L1239 164L1413 123V0H860V123L983 154L696 573L389 164L563 123V0H20V123L154
154L584 727Z" />
<glyph unicode="Y" glyph-name="Y" horiz-adv-x="1320" d="M553 530L158 1272L20 1311V1423L532 1434V1311L393 1270L666 696L967 1270L809 1311V1423L1300 1434V1311L1174 1274L768 535V164L942 123V0H379V123L553 164V530Z" />
<glyph unicode="Z" glyph-name="Z" horiz-adv-x="1259" d="M358 164H993L1034 369H1167V0H82V143L901 1270H328L276 1065H143V1434H1178V1290L358 164Z" />
<glyph unicode="[" glyph-name="bracketleft" horiz-adv-x="706" d="M184 1577L625 1567V1434L379 1411V-305L625 -328V-461L184 -471V1577Z" />
<glyph unicode="\" glyph-name="backslash" horiz-adv-x="1036" d="M61 1434H276L954 0H739L61 1434Z" />
<glyph unicode="]" glyph-name="bracketright" horiz-adv-x="706" d="M328 -305V1411L82 1434V1567L522 1577V-471L82 -461V-328L328 -305Z" />
<glyph unicode="^" glyph-name="asciicircum" horiz-adv-x="1167" d="M512 1434H655L1044 655H866L578 1229L297 655H123L512 1434Z" />
<glyph unicode="_" glyph-name="underscore" horiz-adv-x="1024" d="M1028 -307H-4V-164H1028V-307Z" />
<glyph unicode="`" glyph-name="grave" horiz-adv-x="501" d="M502 1321L430 1219L0 1485L102 1638L502 1321Z" />
<glyph unicode="a" glyph-name="a" horiz-adv-x="1157" d="M170 1030T234 1049T387 1087T553 1106Q739 1106 835 1032T932 788V164L1096 123V10L778 0L735 143Q669 77 583 29T399 -20Q254 -20 173 60T92 287Q92 457 214 530T563 604H727V768Q727 858 677 905T532
952Q477 952 431 945T359 931T326 922L297 768H164L154 1024Q170 1030 234 1049ZM432 471T367 430T301 297Q301 227 341 185T451 143Q519 143 580 180T684 260T727 307V471H584Q432 471 367 430Z" />
<glyph unicode="b" glyph-name="b" horiz-adv-x="1208" d="M530 1106T686 1106Q901 1106 1008 964T1116 573Q1116 397 1052 263T860 55T553 -20Q453 -20 369 -9T236 14T174 31V1413L10 1454V1567L379 1577V987Q530 1106 686 1106ZM379 162T434 153T584 143Q752
143 826 256T901 553Q901 733 839 837T645 942Q563 942 504 913T412 849T379 809V164Q379 162 434 153Z" />
<glyph unicode="c" glyph-name="c" horiz-adv-x="1044" d="M774 926T721 934T604 942Q457 942 377 847T297 563Q297 358 381 251T614 143Q700 143 771 171T887 230T932 266L1004 143Q1004 139 941 96T786 17T594 -20Q344 -20 213 128T82 543Q82 707 147 835T333
1034T614 1106Q696 1106 774 1088T901 1050T963 1024L952 748H819L788 922Q774 926 721 934Z" />
<glyph unicode="d" glyph-name="d" horiz-adv-x="1259" d="M1208 10L860 0L844 117Q707 -20 522 -20Q307 -20 200 122T92 512Q92 784 229 945T635 1106Q735 1106 829 1073V1413L655 1454V1567L1034 1577V164L1208 123V10ZM823 905T799 914T726 933T614 942Q307
942 307 532Q307 352 369 248T563 143Q641 143 700 177T794 251T829 297V901Q823 905 799 914Z" />
<glyph unicode="e" glyph-name="e" horiz-adv-x="1105" d="M297 344T379 244T594 143Q684 143 761 168T888 222T938 256L1010 150Q1010 146 944 101T780 18T573 -20Q331 -20 207 126T82 532Q82 694 145 825T323 1031T584 1106Q1014 1106 1014 625Q1014 592 1010
559T1004 516L297 512Q297 344 379 244ZM797 791T744 868T573 946Q454 946 385 866T305 666H797Q797 791 744 868Z" />
<glyph unicode="f" glyph-name="f" horiz-adv-x="849" d="M276 1384T374 1490T655 1597Q741 1597 810 1581T921 1547T963 1526V1270H819L788 1434Q780 1436 746 1440T666 1444Q564 1444 523 1392T481 1239V1075H752L745 922H481V164L686 113V0H102V113L276 164V922H92V1055L276
1075V1198Q276 1384 374 1490Z" />
<glyph unicode="g" glyph-name="g" horiz-adv-x="1198" d="M952 928T965 904T991 833T1004 727Q1004 526 883 427T553 328Q496 328 453 335T399 346L389 154H707Q908 154 1012 78T1116 -143Q1116 -317 981 -414T584 -512Q353 -512 223 -444T92 -215Q92 -133 140
-76T247 13T307 41Q307 39 274 49T212 85T184 158Q184 189 207 240T257 334T291 389Q291 383 247 420T168 527T133 707Q133 902 255 1004T584 1106Q643 1106 688 1098T757 1081T788 1067L1147 1075V963L948 934Q952 928 965 904ZM453 963T396 903T338 717Q338 604
395 538T563 471Q686 471 742 529T799 717Q799 836 743 899T573 963Q453 963 396 903ZM430 4T393 -21T327 -88T297 -184Q297 -284 376 -321T614 -358Q770 -358 846 -310T922 -164Q922 -70 855 -35T655 0H430Q430 4 393 -21Z" />
<glyph unicode="h" glyph-name="h" horiz-adv-x="1331" d="M496 1014T592 1060T788 1106Q952 1106 1034 1009T1116 737V164L1270 113V0H778V113L911 162V717Q911 828 870 880T733 932Q655 932 588 895T475 815T430 768V164L563 113V0H51V113L225 164V1413L51 1454V1567L430
1577V958Q496 1014 592 1060Z" />
<glyph unicode="i" glyph-name="i" horiz-adv-x="686" d="M215 1491T254 1529T348 1567Q481 1567 481 1423Q481 1357 440 1319T348 1280Q287 1280 251 1318T215 1423Q215 1491 254 1529ZM614 0H82V113L256 164V922L82 963V1075L461 1085V164L614 113V0Z" />
<glyph unicode="j" glyph-name="j" horiz-adv-x="591" d="M172 1491T211 1529T305 1567Q438 1567 438 1423Q438 1357 397 1319T305 1280Q244 1280 208 1318T172 1423Q172 1491 211 1529ZM428 -279T330 -385T49 -492Q16 -492 -27 -488T-82 -481L-63 -338H39Q141
-338 182 -286T223 -133V922L49 963V1075L428 1085V-92Q428 -279 330 -385Z" />
<glyph unicode="k" glyph-name="k" horiz-adv-x="1187" d="M758 934L666 963V1075L1116 1085V963L971 938H969L758 625L1022 164H1024L1178 113V0H901L608 522H430V164L563 113V0H51V113L225 164V1413L51 1454V1567L430 1577V676H604L758 934Z" />
<glyph unicode="l" glyph-name="l" horiz-adv-x="628" d="M618 0H51V113L225 164V1413L51 1454V1567L434 1577V164L618 113V0Z" />
<glyph unicode="m" glyph-name="m" horiz-adv-x="2007" d="M496 995T598 1050T809 1106Q1016 1106 1094 930Q1145 981 1249 1043T1475 1106Q1639 1106 1715 1010T1792 737V164L1946 113V0H1454V113L1587 164V717Q1587 830 1548 881T1413 932Q1335 932 1272 895T1167
815T1126 768V164L1260 113V0H788V113L922 164V717Q922 830 883 881T748 932Q670 932 607 895T502 815T461 768V164L594 113V0H82V113L256 164V922L82 963V1075L420 1085L438 940Q496 995 598 1050Z" />
<glyph unicode="n" glyph-name="n" horiz-adv-x="1361" d="M502 995T605 1050T819 1106Q983 1106 1065 1009T1147 737V164L1300 113V0H809V113L942 164V717Q942 828 899 880T758 932Q680 932 615 895T505 815T461 768V164L594 113V0H82V113L256 164V922L82 963V1075L420
1085L438 940Q502 995 605 1050Z" />
<glyph unicode="o" glyph-name="o" horiz-adv-x="1167" d="M831 1106T958 960T1085 563Q1085 391 1022 258T842 53T573 -20Q340 -20 211 120T82 532Q82 704 148 834T333 1035T604 1106Q831 1106 958 960ZM442 942T370 843T297 543Q297 144 584 143Q734 143 802
245T870 553Q870 942 594 942Q442 942 370 843Z" />
<glyph unicode="p" glyph-name="p" horiz-adv-x="1259" d="M561 1106T727 1106Q944 1106 1055 963T1167 573Q1167 301 1028 141T614 -20Q526 -20 430 8V-317L645 -358V-471H61V-358L225 -317V922L51 963V1075L399 1085L416 971Q561 1106 727 1106ZM434 180T457
171T529 153T645 143Q952 143 952 553Q952 731 886 836T686 942Q604 942 547 911T460 842T430 799V184Q434 180 457 171Z" />
<glyph unicode="q" glyph-name="q" horiz-adv-x="1187" d="M829 98Q677 -21 522 -20Q92 -20 92 512Q92 688 156 822T348 1031T655 1106Q755 1106 839 1097T973 1078T1034 1065V-317L1198 -358V-471H625V-358L829 -317V98ZM829 924T772 933T625 942Q457 942 382
830T307 532Q307 352 369 248T563 143Q645 143 704 173T796 236T829 276V922Q829 924 772 933Z" />
<glyph unicode="r" glyph-name="r" horiz-adv-x="952" d="M496 999T575 1052T748 1106Q793 1106 833 1099T900 1085T932 1075L922 778H788L758 932Q656 932 582 883T461 772V164L666 113V0H82V113L256 164V922L82 963V1075L420 1085L438 936Q496 999 575 1052Z" />
<glyph unicode="s" glyph-name="s" horiz-adv-x="960" d="M260 150T311 142T432 133Q663 133 664 295Q664 361 608 394T432 465Q323 500 256 532T140 626T92 786Q92 940 196 1023T467 1106Q539 1106 616 1093T748 1064T817 1044L811 768H678L645 928Q639 930 619
936T561 947T479 952Q297 952 297 815Q297 749 355 714T532 639Q638 602 706 571T821 480T868 330Q868 160 740 70T418 -20Q334 -20 262 -10T147 10T94 25V328H238L260 152Q260 150 311 142Z" />
<glyph unicode="t" glyph-name="t" horiz-adv-x="808" d="M748 922H451V264Q451 139 553 139Q619 139 713 190L768 82Q629 -20 481 -20Q377 -20 312 48T246 276V922H41V1055L246 1075V1333L451 1374V1075H748V922Z" />
<glyph unicode="u" glyph-name="u" horiz-adv-x="1331" d="M1280 10L942 0L922 143Q861 88 756 34T543 -20Q379 -20 297 76T215 346V922L41 963V1075L420 1085V367Q420 258 463 206T604 154Q682 154 747 189T857 268T901 315V922L727 963V1075L1106 1085V164L1280
123V10Z" />
<glyph unicode="v" glyph-name="v" horiz-adv-x="1144" d="M571 184L817 932L676 963V1075L1135 1085V963L1022 942L674 0H449L113 932L10 963V1075L471 1085V963L328 942L571 184Z" />
<glyph unicode="w" glyph-name="w" horiz-adv-x="1699" d="M492 184L760 1075L954 1106L1208 184L1372 932L1229 963V1075L1690 1085V963L1571 942L1321 0H1085L891 635L842 831L799 635L604 0H369L113 932L10 963V1075L471 1085V963L317 942L492 184Z" />
<glyph unicode="x" glyph-name="x" horiz-adv-x="1157" d="M584 686L829 1075L1126 1085V963L952 932L696 553L958 160L1147 113V0H647V113L729 137L561 408L307 0H10V113L190 160L451 543L188 934L31 963V1075L498 1085V963L426 950L584 686Z" />
<glyph unicode="y" glyph-name="y" horiz-adv-x="1181" d="M604 225L829 932L686 963V1075L1171 1085V963L1038 942L748 131L729 82Q661 -100 602 -216T443 -412T195 -492Q162 -492 119 -488T63 -481L82 -338H184Q284 -338 359 -254T510 -4L143 932L20 963V1075L502
1085V963L358 942L604 225Z" />
<glyph unicode="z" glyph-name="z" horiz-adv-x="993" d="M739 154L768 317H911V0H92V154L690 932H305L276 778H133V1085H922V932L322 154H739Z" />
<glyph unicode="{" glyph-name="braceleft" horiz-adv-x="757" d="M598 1454T544 1435T467 1369T444 1239V889Q444 785 396 712T254 604Q348 569 396 497T444 319V-113Q444 -197 466 -243T543 -308T696 -328V-461H604Q418 -461 337 -382T256 -113V319Q256 421
213 476T61 532V676Q170 676 213 731T256 889V1239Q256 1429 337 1508T604 1587H696V1454Q598 1454 544 1435Z" />
<glyph unicode="|" glyph-name="bar" horiz-adv-x="573" d="M205 1546H369V-471H205V1546Z" />
<glyph unicode="}" glyph-name="braceright" horiz-adv-x="768" d="M360 1587T441 1509T522 1239V889Q522 787 565 732T717 676V532Q608 532 565 477T522 319V-113Q522 -303 441 -382T174 -461H82V-328Q180 -328 234 -309T311 -243T334 -113V319Q334 423 382 496T524
604Q430 639 382 711T334 889V1239Q334 1323 312 1369T235 1434T82 1454V1587H174Q360 1587 441 1509Z" />
<glyph unicode="~" glyph-name="asciitilde" horiz-adv-x="1282" d="M123 510T161 563T267 661T432 707Q498 707 550 688T670 631Q731 598 776 581T872 563Q921 563 964 590T1036 650T1065 686L1159 612Q1159 606 1118 550T1011 447T862 399Q796 399 741 418T612
475Q544 510 499 526T401 543Q352 543 311 518T244 462T217 428L123 502Q123 510 161 563Z" />
<glyph unicode="&#xa0;" glyph-name="nbspace" horiz-adv-x="471" />
<glyph unicode="&#xa1;" glyph-name="exclamdown" horiz-adv-x="645" d="M451 918T413 879T317 840Q256 840 220 877T184 983Q184 1051 223 1088T317 1126Q378 1126 414 1089T451 983Q451 918 413 879ZM440 -430H205L236 594L410 604L440 -430Z" />
<glyph unicode="&#xa2;" glyph-name="cent" horiz-adv-x="1044" d="M719 1241T787 1222T899 1183T952 1157L942 891H809L778 1065Q778 1067 723 1076T604 1085Q450 1085 379 1007T307 758Q307 389 614 389Q692 389 755 411T860 460T901 492L981 379Q981 377 928
341T801 272T645 227V0H492V231Q295 260 194 393T92 737Q92 932 195 1068T492 1237V1434H645V1245Q719 1241 787 1222Z" />
<glyph unicode="&#xa3;" glyph-name="sterling" horiz-adv-x="1280" d="M123 123L236 154Q304 172 326 228T348 420Q348 494 338 610Q338 637 334 686H123V825L324 848Q318 946 317 1044Q317 1237 418 1345T727 1454Q836 1454 929 1441T1077 1412T1147 1393V1106H1014L983
1276Q963 1278 888 1284T737 1290Q626 1290 574 1236T522 1085Q522 954 530 850H870V686H541Q553 502 553 440Q553 350 533 289T487 193T461 164H981L1024 379H1157V0H123V123Z" />
<glyph unicode="&#xa4;" glyph-name="currency" horiz-adv-x="1183" d="M985 743T985 614Q985 489 920 387L1081 225L981 119L815 283Q715 215 586 215Q457 215 362 276L203 119L102 225L262 385Q207 477 207 604Q207 729 270 827L102 995L203 1102L373 934Q475
1004 606 1004Q729 1004 821 944L981 1102L1081 995L926 840Q985 743 985 614ZM381 492T434 425T596 358Q705 358 758 425T811 610Q811 729 758 794T596 860Q487 860 434 795T381 610Q381 492 434 425Z" />
<glyph unicode="&#xa5;" glyph-name="yen" horiz-adv-x="1320" d="M158 1272L20 1311V1423L532 1434V1311L393 1270L666 717L967 1270L809 1311V1423L1300 1434V1311L1174 1274L868 737H1120V594H199V737H453L158 1272ZM1120 317H768V164L942 123V0H379V123L553
164V317H199V461H1120V317Z" />
<glyph unicode="&#xa6;" glyph-name="brokenbar" horiz-adv-x="614" d="M379 1567V748H215V1567H379ZM379 297V-543H215V297H379Z" />
<glyph unicode="&#xa7;" glyph-name="section" horiz-adv-x="1116" d="M741 1425T708 1429T641 1434Q549 1434 495 1382T440 1249Q440 1192 472 1144T552 1059T684 967Q784 899 845 849T950 727T993 563Q993 450 949 377T846 262Q903 174 903 72Q903 -39 854 -125T716
-259T514 -307Q436 -307 371 -294T266 -266T217 -246L227 82H358L401 -133Q409 -135 441 -139T518 -143Q604 -143 656 -90T709 41Q709 98 677 146T597 231T465 324Q365 390 303 441T197 563T154 727Q154 840 198 913T301 1028Q246 1112 246 1219Q246 1330 296 1415T435
1549T637 1597Q715 1597 780 1584T885 1556T934 1536L924 1208H801L752 1423Q741 1425 708 1429ZM799 590T767 636T689 718T559 809Q453 879 403 920Q348 865 348 758Q348 676 406 618T588 481Q705 405 745 371Q798 428 799 532Q799 590 767 636Z" />
<glyph unicode="&#xa8;" glyph-name="dieresis" horiz-adv-x="1054" d="M205 1491T237 1523T317 1556Q370 1556 400 1524T430 1434Q430 1377 398 1344T317 1311Q264 1311 235 1343T205 1434Q205 1491 237 1523ZM625 1491T657 1523T737 1556Q790 1556 820 1524T850
1434Q850 1377 817 1344T737 1311Q684 1311 655 1343T625 1434Q625 1491 657 1523Z" />
<glyph unicode="&#xa9;" glyph-name="copyright" horiz-adv-x="1679" d="M92 920T189 1090T457 1357T840 1454Q1053 1454 1224 1362T1491 1104T1587 727Q1587 516 1486 345T1208 77T819 -20Q606 -20 441 72T184 329T92 707Q92 920 189 1090ZM256 545T326 411T527
202T829 127Q1001 127 1136 201T1347 410T1423 717Q1423 889 1348 1023T1137 1232T829 1307Q657 1307 527 1232T327 1023T256 717Q256 545 326 411ZM912 1004T840 1004Q742 1004 694 929T645 713Q645 580 699 516T850 451Q899 451 948 471T1029 513T1069 541L1124
446Q1124 442 1081 409T976 346T840 317Q668 317 570 415T471 702Q471 897 573 1012T854 1128Q911 1128 968 1114T1065 1085T1114 1065L1110 848H995L967 987Q912 1004 840 1004Z" />
<glyph unicode="&#xaa;" glyph-name="ordfeminine" horiz-adv-x="958" d="M143 1397T196 1412T320 1440T446 1454Q579 1454 644 1397T709 1219V793L825 764V672L602 662L569 768Q569 766 532 733T441 674T330 647Q219 647 161 705T102 877Q102 998 187 1051T434
1104H545V1206Q545 1255 511 1285T418 1315Q371 1315 328 1307T272 1294L252 1188H139L129 1393Q143 1397 196 1412ZM350 993T306 968T262 877Q262 834 290 808T369 782Q412 782 450 802T514 845T545 874V993H446Q350 993 306 968ZM825 338H119V481H825V338Z" />
<glyph unicode="&#xab;" glyph-name="guillemotleft" horiz-adv-x="1105" d="M410 154L123 481V604L410 932L532 850L307 543L532 236L410 154ZM860 154L563 481V604L860 932L983 850L748 543L983 236L860 154Z" />
<glyph unicode="&#xac;" glyph-name="logicalnot" horiz-adv-x="1259" d="M1147 174H973V563H123V727H1147V174Z" />
<glyph unicode="&#xad;" glyph-name="softhyphen" horiz-adv-x="778" d="M655 471H123V645H655V471Z" />
<glyph unicode="&#xae;" glyph-name="registered" horiz-adv-x="1474" d="M113 1098T193 1241T417 1465T737 1546Q915 1546 1057 1470T1281 1256T1362 942Q1362 766 1276 624T1043 399T717 317Q539 317 402 393T189 606T113 922Q113 1098 193 1241ZM266 788T321
680T481 511T727 451Q868 451 977 511T1147 681T1208 932Q1208 1073 1148 1182T978 1352T727 1413Q586 1413 482 1353T322 1184T266 932Q266 788 321 680ZM522 1182L440 1198V1274L748 1280Q852 1280 919 1230T987 1092Q987 959 860 911Q860 911 876 900Q891 889
918 836L983 707L1065 686V604H889L807 778Q774 850 755 867T694 885H655V707L737 686V604H440V686L522 707V1182ZM782 979T816 1006T850 1081Q850 1126 821 1152T737 1178H655V979H727Q782 979 816 1006Z" />
<glyph unicode="&#xaf;" glyph-name="overscore" horiz-adv-x="573" d="M563 1352H10V1505H563V1352Z" />
<glyph unicode="&#xb0;" glyph-name="degree" horiz-adv-x="839" d="M102 1335T191 1420T420 1505Q561 1505 649 1424T737 1208Q737 1065 648 978T420 891Q279 891 191 973T102 1198Q102 1335 191 1420ZM246 1116T291 1065T420 1014Q504 1014 549 1065T594 1208Q594
1290 546 1336T420 1382Q342 1382 294 1336T246 1208Q246 1116 291 1065Z" />
<glyph unicode="&#xb1;" glyph-name="plusminus" horiz-adv-x="1259" d="M543 1106H717V778H1147V618H717V287H543V618H113V778H543V1106ZM1147 0H113V160H1147V0Z" />
<glyph unicode="&#xb2;" glyph-name="twosuperior" horiz-adv-x="798" d="M100 1395T142 1407T245 1431T365 1444Q523 1444 609 1384T696 1198Q696 1116 662 1052T551 915T317 719H717V573H72V715L184 807Q325 920 387 975T480 1080T512 1188Q512 1311 358 1311Q311
1311 271 1302T231 1290L217 1167H94L88 1391Q100 1395 142 1407Z" />
<glyph unicode="&#xb3;" glyph-name="threesuperior" horiz-adv-x="774" d="M84 1407T130 1417T239 1435T358 1444Q503 1444 584 1387T666 1225Q666 1141 617 1090T485 1022Q563 1014 622 961T682 831Q682 698 585 631T326 563Q258 563 195 579T91 614T41 639L82
762Q92 758 128 743T220 714T334 700Q414 700 458 734T502 829Q502 890 455 919T309 948H225V1073H319Q491 1073 492 1204Q492 1310 348 1311Q293 1311 251 1303T209 1292L199 1178H80L72 1405Q84 1407 130 1417Z" />
<glyph unicode="&#xb4;" glyph-name="acute" horiz-adv-x="501" d="M399 1638L502 1485L72 1219L0 1321L399 1638Z" />
<glyph unicode="&#xb5;" glyph-name="micro" horiz-adv-x="1341" d="M1290 123V10L952 0L932 143Q864 86 764 33T553 -20Q492 -20 430 0V-471H225V922L51 963V1075L430 1085V346Q434 248 477 201T614 154Q692 154 757 189T867 268T911 315V922L737 963V1075L1116
1085V164L1290 123Z" />
<glyph unicode="&#xb6;" glyph-name="paragraph" horiz-adv-x="1290" d="M983 -348H805V1270H643V-348H287V-225L471 -184V627Q373 637 294 692T169 837T123 1034Q123 1147 173 1238T318 1381T543 1434H805L1157 1423V1311L983 1270V-348Z" />
<glyph unicode="&#xb7;" glyph-name="middot" horiz-adv-x="540" d="M133 694T172 733T270 772Q336 772 372 734T408 625Q408 555 369 516T270 477Q204 477 169 515T133 625Q133 694 172 733Z" />
<glyph unicode="&#xb8;" glyph-name="cedilla" horiz-adv-x="892" d="M584 -102T631 -149T678 -266Q678 -348 617 -398T455 -449Q396 -449 345 -437T263 -410T225 -391L274 -307Q280 -311 305 -321T364 -341T432 -350Q483 -350 514 -326T545 -262Q545 -215 500
-189T377 -162V0H500V-88Q584 -102 631 -149Z" />
<glyph unicode="&#xb9;" glyph-name="onesuperior" horiz-adv-x="716" d="M123 707H317V1249L102 1116L31 1239L340 1434H492V707H676V573H123V707Z" />
<glyph unicode="&#xba;" glyph-name="ordmasculine" horiz-adv-x="1013" d="M678 1454T774 1352T870 1065Q870 872 764 759T481 645Q303 645 203 745T102 1034Q102 1161 152 1256T294 1403T502 1454Q678 1454 774 1352ZM395 1311T336 1245T276 1044Q276 919 335
854T492 788Q588 788 642 855T696 1055Q696 1176 641 1243T492 1311Q395 1311 336 1245ZM850 338H123V481H850V338Z" />
<glyph unicode="&#xbb;" glyph-name="guillemotright" horiz-adv-x="1105" d="M246 932L543 604V481L246 154L123 236L358 543L123 850L246 932ZM696 932L983 604V481L696 154L573 236L799 543L573 850L696 932Z" />
<glyph unicode="&#xbc;" glyph-name="onequarter" horiz-adv-x="1986" d="M174 707H369V1249L154 1116L82 1239L391 1434H543V707H717V573H174V707ZM645 0H461L1290 1434H1475L645 0ZM1741 319H1884V186H1741V0H1567V186H1137L1124 307L1540 881L1741 860V319ZM1567
686L1303 319H1567V686Z" />
<glyph unicode="&#xbd;" glyph-name="onehalf" horiz-adv-x="1945" d="M174 707H369V1249L154 1116L82 1239L391 1434H543V707H717V573H174V707ZM645 0H461L1290 1434H1475L645 0ZM1300 233Q1441 346 1503 401T1596 507T1628 614Q1628 737 1475 737Q1430 737 1389
728T1348 717L1333 594H1210L1204 817Q1216 821 1258 833T1361 858T1481 870Q1639 870 1725 810T1812 625Q1812 543 1778 479T1667 341T1434 145H1833V0H1188V141L1300 233Z" />
<glyph unicode="&#xbe;" glyph-name="threequarters" horiz-adv-x="1972" d="M115 1407T161 1417T270 1435T389 1444Q534 1444 615 1387T696 1225Q696 1141 647 1090T516 1022Q594 1014 653 961T713 831Q713 698 616 631T356 563Q288 563 225 579T122 614T72 639L113
762Q123 758 159 743T251 714T365 700Q445 700 488 734T532 829Q532 890 485 919T340 948H256V1073H350Q522 1073 522 1204Q522 1310 379 1311Q324 1311 282 1303T240 1292L229 1178H111L102 1405Q115 1407 161 1417ZM631 0H446L1276 1434H1460L631 0ZM1726 319H1870V186H1726V0H1552V186H1122L1110
307L1526 881L1726 860V319ZM1552 686L1288 319H1552V686Z" />
<glyph unicode="&#xbf;" glyph-name="questiondown" horiz-adv-x="974" d="M717 918T679 879T584 840Q523 840 487 877T451 983Q451 1051 489 1088T584 1126Q645 1126 681 1089T717 983Q717 918 679 879ZM694 616T702 547T711 438Q711 383 671 334T547 211Q449
125 399 62T348 -82Q348 -166 401 -206T563 -246Q626 -246 693 -235T778 -219L811 -373Q801 -377 762 -388T666 -409T553 -420Q369 -420 251 -346T133 -102Q133 -22 165 45T241 162T358 281Q436 353 474 399T512 500Q512 549 510 582T508 627L692 639Q694 616 702
547Z" />
<glyph unicode="&#xc0;" glyph-name="Agrave" horiz-adv-x="1484" d="M645 1423L850 1434L1305 162L1475 123V0H881V123L1071 162L993 389H461L381 162L573 123V0H10V123L178 162L645 1423ZM731 1169L516 553H938L731 1169ZM983 1618L901 1505L502 1761L604 1915L983
1618Z" />
<glyph unicode="&#xc1;" glyph-name="Aacute" horiz-adv-x="1484" d="M645 1423L850 1434L1305 162L1475 123V0H881V123L1071 162L993 389H461L381 162L573 123V0H10V123L178 162L645 1423ZM731 1169L516 553H938L731 1169ZM639 1614L1012 1911L1116 1761L717
1505L639 1614Z" />
<glyph unicode="&#xc2;" glyph-name="Acircumflex" horiz-adv-x="1486" d="M379 1628L676 1874L799 1884L1096 1628L1014 1536L741 1726L461 1536L379 1628ZM645 1423L850 1434L1305 162L1475 123V0H881V123L1071 162L993 389H461L381 162L573 123V0H10V123L178
162L645 1423ZM731 1169L516 553H938L731 1169Z" />
<glyph unicode="&#xc3;" glyph-name="Atilde" horiz-adv-x="1484" d="M416 1636T446 1686T527 1780T641 1823Q690 1823 734 1811T834 1774Q893 1749 927 1739T999 1729Q1036 1729 1066 1748T1112 1787T1133 1815L1204 1753Q1204 1747 1177 1699T1101 1610T989
1569Q940 1569 898 1581T797 1616Q744 1639 707 1649T631 1659Q594 1659 562 1639T511 1597T487 1569L416 1630Q416 1636 446 1686ZM645 1423L850 1434L1305 162L1475 123V0H881V123L1071 162L993 389H461L381 162L573 123V0H10V123L178 162L645 1423ZM731 1169L516
553H938L731 1169Z" />
<glyph unicode="&#xc4;" glyph-name="Adieresis" horiz-adv-x="1484" d="M440 1747T473 1779T553 1812Q606 1812 636 1780T666 1690Q666 1633 633 1600T553 1567Q500 1567 470 1599T440 1690Q440 1747 473 1779ZM860 1747T893 1779T973 1812Q1026 1812 1055 1780T1085
1690Q1085 1633 1053 1600T973 1567Q920 1567 890 1599T860 1690Q860 1747 893 1779ZM645 1423L850 1434L1305 162L1475 123V0H881V123L1071 162L993 389H461L381 162L573 123V0H10V123L178 162L645 1423ZM731 1169L516 553H938L731 1169Z" />
<glyph unicode="&#xc5;" glyph-name="Aring" horiz-adv-x="1484" d="M512 1698T546 1752T634 1835T748 1864Q842 1864 912 1804T983 1638Q983 1564 947 1509T852 1427L1305 162L1475 123V0H881V123L1071 162L993 389H461L381 162L573 123V0H10V123L178 162L645
1423Q586 1450 549 1502T512 1628Q512 1698 546 1752ZM635 1571T664 1538T748 1505Q797 1505 828 1540T860 1634Q860 1695 831 1728T748 1761Q699 1761 667 1727T635 1632Q635 1571 664 1538ZM731 1169L516 553H938L731 1169Z" />
<glyph unicode="&#xc6;" glyph-name="AE" horiz-adv-x="1964" d="M983 420H532L403 158L563 123V0H10V123L193 164L760 1270L586 1311V1423L844 1434H1821V1085H1688L1636 1270H1198V829H1667V666H1198V164H1667L1708 369H1841V0H799V123L983 164V420ZM952 1270L614
584H983V1270H952Z" />
<glyph unicode="&#xc7;" glyph-name="Ccedilla" horiz-adv-x="1361" d="M1042 1243T1008 1252T915 1271T788 1280Q581 1280 470 1130T358 696Q358 430 478 297T799 164Q895 164 986 201T1142 281T1208 328L1290 195Q1290 191 1230 143T1076 48T870 -14V-90Q952
-104 998 -150T1044 -272Q1044 -350 979 -400T819 -451Q760 -451 707 -437T621 -407T580 -387L633 -301Q641 -305 667 -316T733 -338T809 -348Q848 -348 874 -326T901 -266Q901 -219 857 -192T737 -164V-18Q444 -6 284 174T123 686Q123 919 207 1092T445 1360T809
1454Q909 1454 1011 1432T1192 1382T1270 1352L1260 1006H1106L1051 1239Q1042 1243 1008 1252Z" />
<glyph unicode="&#xc8;" glyph-name="Egrave" horiz-adv-x="1259" d="M963 829V666H492V164H963L1004 369H1137V0H102V123L276 164V1270L102 1311V1423L492 1434H1116V1085H983L932 1270H492V829H963ZM839 1618L757 1505L358 1761L460 1915L839 1618Z" />
<glyph unicode="&#xc9;" glyph-name="Eacute" horiz-adv-x="1259" d="M963 829V666H492V164H963L1004 369H1137V0H102V123L276 164V1270L102 1311V1423L492 1434H1116V1085H983L932 1270H492V829H963ZM496 1614L869 1911L973 1761L574 1505L496 1614Z" />
<glyph unicode="&#xca;" glyph-name="Ecircumflex" horiz-adv-x="1259" d="M276 1628L573 1874L696 1884L993 1628L911 1536L639 1726L358 1536L276 1628ZM963 829V666H492V164H963L1004 369H1137V0H102V123L276 164V1270L102 1311V1423L492 1434H1116V1085H983L932
1270H492V829H963Z" />
<glyph unicode="&#xcb;" glyph-name="Edieresis" horiz-adv-x="1259" d="M963 829V666H492V164H963L1004 369H1137V0H102V123L276 164V1270L102 1311V1423L492 1434H1116V1085H983L932 1270H492V829H963ZM328 1747T360 1779T440 1812Q493 1812 523 1780T553 1690Q553
1633 521 1600T440 1567Q387 1567 358 1599T328 1690Q328 1747 360 1779ZM748 1747T780 1779T860 1812Q913 1812 943 1780T973 1690Q973 1633 940 1600T860 1567Q807 1567 778 1599T748 1690Q748 1747 780 1779Z" />
<glyph unicode="&#xcc;" glyph-name="Igrave" horiz-adv-x="737" d="M532 1618L451 1505L51 1761L154 1915L532 1618ZM102 123L276 164V1270L102 1311V1423L666 1434V1311L492 1270V164L666 123V0H102V123Z" />
<glyph unicode="&#xcd;" glyph-name="Iacute" horiz-adv-x="747" d="M92 123L266 164V1270L92 1311V1423L655 1434V1311L481 1270V164L655 123V0H92V123ZM199 1614L572 1911L676 1761L277 1505L199 1614Z" />
<glyph unicode="&#xce;" glyph-name="Icircumflex" horiz-adv-x="770" d="M41 1628L324 1874L446 1884L729 1628L647 1536L389 1726L123 1536L41 1628ZM109 123L283 164V1270L109 1311V1423L672 1434V1311L498 1270V164L672 123V0H109V123Z" />
<glyph unicode="&#xcf;" glyph-name="Idieresis" horiz-adv-x="727" d="M41 1747T73 1779T154 1812Q207 1812 236 1780T266 1690Q266 1633 234 1600T154 1567Q101 1567 71 1599T41 1690Q41 1747 73 1779ZM461 1747T493 1779T573 1812Q626 1812 656 1780T686 1690Q686
1633 654 1600T573 1567Q520 1567 491 1599T461 1690Q461 1747 493 1779ZM82 123L256 164V1270L82 1311V1423L645 1434V1311L471 1270V164L645 123V0H82V123Z" />
<glyph unicode="&#xd0;" glyph-name="Eth" horiz-adv-x="1511" d="M266 1270L92 1311V1423L481 1434H743Q1046 1434 1217 1253T1389 737Q1389 514 1306 347T1069 90T713 0H92V123L266 164V676H92V838H266V1270ZM799 676H479V164H723Q924 164 1038 304T1153 727Q1153
1003 1043 1136T733 1270H479V838H799V676Z" />
<glyph unicode="&#xd1;" glyph-name="Ntilde" horiz-adv-x="1617" d="M399 1636T430 1686T511 1780T625 1823Q674 1823 718 1811T817 1774Q876 1749 910 1739T983 1729Q1020 1729 1049 1748T1095 1787T1116 1815L1188 1753Q1188 1747 1161 1699T1085 1610T973
1569Q924 1569 882 1581T780 1616Q727 1639 690 1649T614 1659Q577 1659 546 1639T495 1597T471 1569L399 1630Q399 1636 430 1686ZM1372 0H1116L440 1128V164L635 123V0H82V123L256 164V1270L82 1311V1423L512 1434L1188 289V1270L1014 1311V1423L1546 1434V1311L1372
1270V0Z" />
<glyph unicode="&#xd2;" glyph-name="Ograve" horiz-adv-x="1546" d="M985 1454T1128 1367T1347 1118T1423 737Q1423 514 1338 342T1100 75T748 -20Q447 -20 285 167T123 707Q123 930 204 1100T435 1362T788 1454Q985 1454 1128 1367ZM573 1280T466 1142T358 717Q358
438 458 296T758 154Q963 154 1075 298T1188 727Q1188 1001 1084 1140T778 1280Q573 1280 466 1142ZM962 1618L880 1505L481 1761L583 1915L962 1618Z" />
<glyph unicode="&#xd3;" glyph-name="Oacute" horiz-adv-x="1546" d="M985 1454T1128 1367T1347 1118T1423 737Q1423 514 1338 342T1100 75T748 -20Q447 -20 285 167T123 707Q123 930 204 1100T435 1362T788 1454Q985 1454 1128 1367ZM573 1280T466 1142T358 717Q358
438 458 296T758 154Q963 154 1075 298T1188 727Q1188 1001 1084 1140T778 1280Q573 1280 466 1142ZM567 1614L940 1911L1044 1761L645 1505L567 1614Z" />
<glyph unicode="&#xd4;" glyph-name="Ocircumflex" horiz-adv-x="1546" d="M408 1628L705 1874L827 1884L1124 1628L1042 1536L770 1726L489 1536L408 1628ZM985 1454T1128 1367T1347 1118T1423 737Q1423 514 1338 342T1100 75T748 -20Q447 -20 285 167T123 707Q123
930 204 1100T435 1362T788 1454Q985 1454 1128 1367ZM573 1280T466 1142T358 717Q358 438 458 296T758 154Q963 154 1075 298T1188 727Q1188 1001 1084 1140T778 1280Q573 1280 466 1142Z" />
<glyph unicode="&#xd5;" glyph-name="Otilde" horiz-adv-x="1546" d="M377 1636T407 1686T488 1780T602 1823Q651 1823 695 1811T795 1774Q854 1749 888 1739T961 1729Q998 1729 1027 1748T1073 1787T1094 1815L1165 1753Q1165 1747 1138 1699T1062 1610T950 1569Q901
1569 859 1581T758 1616Q705 1639 668 1649T592 1659Q555 1659 524 1639T473 1597T449 1569L377 1630Q377 1636 407 1686ZM985 1454T1128 1367T1347 1118T1423 737Q1423 514 1338 342T1100 75T748 -20Q447 -20 285 167T123 707Q123 930 204 1100T435 1362T788 1454Q985
1454 1128 1367ZM573 1280T466 1142T358 717Q358 438 458 296T758 154Q963 154 1075 298T1188 727Q1188 1001 1084 1140T778 1280Q573 1280 466 1142Z" />
<glyph unicode="&#xd6;" glyph-name="Odieresis" horiz-adv-x="1546" d="M451 1747T483 1779T563 1812Q616 1812 646 1780T676 1690Q676 1633 643 1600T563 1567Q510 1567 481 1599T451 1690Q451 1747 483 1779ZM870 1747T903 1779T983 1812Q1036 1812 1066 1780T1096
1690Q1096 1633 1063 1600T983 1567Q930 1567 900 1599T870 1690Q870 1747 903 1779ZM985 1454T1128 1367T1347 1118T1423 737Q1423 514 1338 342T1100 75T748 -20Q447 -20 285 167T123 707Q123 930 204 1100T435 1362T788 1454Q985 1454 1128 1367ZM573 1280T466
1142T358 717Q358 438 458 296T758 154Q963 154 1075 298T1188 727Q1188 1001 1084 1140T778 1280Q573 1280 466 1142Z" />
<glyph unicode="&#xd7;" glyph-name="multiply" horiz-adv-x="1228" d="M991 1034L1106 920L729 543L1106 166L991 51L614 428L238 51L123 166L500 543L123 920L238 1034L614 657L991 1034Z" />
<glyph unicode="&#xd8;" glyph-name="Oslash" horiz-adv-x="1566" d="M1325 1210T1379 1066T1434 737Q1434 514 1349 342T1110 75T758 -20Q588 -20 461 41L307 -215L174 -143L336 125Q133 309 133 707Q133 930 214 1100T445 1362T799 1454Q967 1454 1098 1389L1229
1608L1362 1536L1223 1305Q1325 1210 1379 1066ZM909 1280T788 1280Q583 1280 476 1142T369 717Q369 463 453 319L999 1227Q909 1280 788 1280ZM645 154T768 154Q973 154 1085 298T1198 727Q1198 977 1110 1118L561 207Q645 154 768 154Z" />
<glyph unicode="&#xd9;" glyph-name="Ugrave" horiz-adv-x="1617" d="M1362 283T1235 132T799 -20Q506 -20 381 120T256 553V1270L82 1311V1423L666 1434V1311L471 1270V553Q471 399 506 313T614 191T809 154Q938 154 1010 195T1115 329T1147 584V1270L952 1311V1423L1536
1434V1311L1362 1270V584Q1362 283 1235 132ZM962 1618L880 1505L481 1761L583 1915L962 1618Z" />
<glyph unicode="&#xda;" glyph-name="Uacute" horiz-adv-x="1617" d="M1362 283T1235 132T799 -20Q506 -20 381 120T256 553V1270L82 1311V1423L666 1434V1311L471 1270V553Q471 399 506 313T614 191T809 154Q938 154 1010 195T1115 329T1147 584V1270L952 1311V1423L1536
1434V1311L1362 1270V584Q1362 283 1235 132ZM657 1614L1030 1911L1134 1761L735 1505L657 1614Z" />
<glyph unicode="&#xdb;" glyph-name="Ucircumflex" horiz-adv-x="1617" d="M451 1628L748 1874L870 1884L1167 1628L1085 1536L813 1726L532 1536L451 1628ZM1362 283T1235 132T799 -20Q506 -20 381 120T256 553V1270L82 1311V1423L666 1434V1311L471 1270V553Q471
399 506 313T614 191T809 154Q938 154 1010 195T1115 329T1147 584V1270L952 1311V1423L1536 1434V1311L1362 1270V584Q1362 283 1235 132Z" />
<glyph unicode="&#xdc;" glyph-name="Udieresis" horiz-adv-x="1619" d="M481 1747T514 1779T594 1812Q647 1812 677 1780T707 1690Q707 1633 674 1600T594 1567Q541 1567 511 1599T481 1690Q481 1747 514 1779ZM901 1747T934 1779T1014 1812Q1067 1812 1096 1780T1126
1690Q1126 1633 1094 1600T1014 1567Q961 1567 931 1599T901 1690Q901 1747 934 1779ZM471 553Q471 399 506 313T614 191T809 154Q938 154 1010 195T1115 329T1147 584V1270L952 1311V1423L1536 1434V1311L1362 1270V584Q1362 283 1235 132T799 -20Q506 -20 381
120T256 553V1270L82 1311V1423L666 1434V1311L471 1270V553Z" />
<glyph unicode="&#xdd;" glyph-name="Yacute" horiz-adv-x="1320" d="M553 530L158 1272L20 1311V1423L532 1434V1311L393 1270L666 696L967 1270L809 1311V1423L1300 1434V1311L1174 1274L768 535V164L942 123V0H379V123L553 164V530ZM526 1614L899 1911L1003
1761L604 1505L526 1614Z" />
<glyph unicode="&#xde;" glyph-name="Thorn" horiz-adv-x="1218" d="M907 1157T1032 1057T1157 778Q1157 555 1017 436T614 317H471V164L645 123V0H82V123L256 164V1270L82 1311V1423L645 1434V1311L471 1270V1157H686Q907 1157 1032 1057ZM776 481T864 549T952
748Q952 859 879 926T676 993H471V481H614Q776 481 864 549Z" />
<glyph unicode="&#xdf;" glyph-name="germandbls" horiz-adv-x="1433" d="M276 1188Q276 1378 396 1487T717 1597Q936 1597 1067 1520T1198 1280Q1198 1192 1158 1135T1042 1010Q985 959 958 923T930 840Q930 770 979 731T1130 647Q1218 606 1272 573T1365 480T1403
332Q1403 230 1343 150T1184 25T979 -20Q901 -20 835 -10T728 10T678 25L676 319H809L840 154Q840 152 873 143T958 133Q1056 133 1122 172T1188 291Q1188 359 1141 396T993 481Q907 518 851 553T756 650T717 809Q717 895 755 948T866 1063Q929 1114 961 1156T993
1260Q993 1358 918 1401T727 1444Q618 1444 550 1386T481 1229V0H102V113L276 164V922H61V1055L276 1075V1188Z" />
<glyph unicode="&#xe0;" glyph-name="agrave" horiz-adv-x="1157" d="M170 1030T234 1049T387 1087T553 1106Q739 1106 835 1032T932 788V164L1096 123V10L778 0L735 143Q669 77 583 29T399 -20Q254 -20 173 60T92 287Q92 457 214 530T563 604H727V768Q727 858
677 905T532 952Q477 952 431 945T359 931T326 922L297 768H164L154 1024Q170 1030 234 1049ZM432 471T367 430T301 297Q301 227 341 185T451 143Q519 143 580 180T684 260T727 307V471H584Q432 471 367 430ZM778 1321L706 1219L276 1485L378 1638L778 1321Z" />
<glyph unicode="&#xe1;" glyph-name="aacute" horiz-adv-x="1157" d="M170 1030T234 1049T387 1087T553 1106Q739 1106 835 1032T932 788V164L1096 123V10L778 0L735 143Q669 77 583 29T399 -20Q254 -20 173 60T92 287Q92 457 214 530T563 604H727V768Q727 858
677 905T532 952Q477 952 431 945T359 931T326 922L297 768H164L154 1024Q170 1030 234 1049ZM432 471T367 430T301 297Q301 227 341 185T451 143Q519 143 580 180T684 260T727 307V471H584Q432 471 367 430ZM727 1638L830 1485L400 1219L328 1321L727 1638Z" />
<glyph unicode="&#xe2;" glyph-name="acircumflex" horiz-adv-x="1157" d="M164 1321L471 1597L594 1608L901 1321L819 1229L537 1450L246 1229L164 1321ZM670 78T583 29T399 -20Q254 -20 173 60T92 287Q92 457 214 530T563 604H727V768Q727 858 677 905T532 952Q477
952 431 945T359 931T326 922L297 768H164L154 1024Q170 1030 234 1049T387 1087T553 1106Q739 1106 835 1032T932 788V164L1096 123V10L778 0L735 143Q670 78 583 29ZM301 227T341 185T451 143Q519 143 580 180T684 260T727 307V471H584Q432 471 367 430T301 297Q301
227 341 185Z" />
<glyph unicode="&#xe3;" glyph-name="atilde" horiz-adv-x="1157" d="M150 1380T179 1430T259 1523T375 1565Q424 1565 466 1553T559 1516Q608 1493 643 1483T717 1473Q750 1473 781 1492T832 1531T856 1559L928 1487Q928 1481 899 1432T821 1341T707 1300Q658
1300 616 1312T522 1350Q473 1373 438 1383T365 1393Q326 1393 294 1373T244 1331T221 1303L150 1374Q150 1380 179 1430ZM670 78T583 29T399 -20Q254 -20 173 60T92 287Q92 457 214 530T563 604H727V768Q727 858 677 905T532 952Q477 952 431 945T359 931T326
922L297 768H164L154 1024Q170 1030 234 1049T387 1087T553 1106Q739 1106 835 1032T932 788V164L1096 123V10L778 0L735 143Q670 78 583 29ZM301 227T341 185T451 143Q519 143 580 180T684 260T727 307V471H584Q432 471 367 430T301 297Q301 227 341 185Z" />
<glyph unicode="&#xe4;" glyph-name="adieresis" horiz-adv-x="1157" d="M215 1491T248 1523T328 1556Q381 1556 410 1524T440 1434Q440 1377 408 1344T328 1311Q275 1311 245 1343T215 1434Q215 1491 248 1523ZM635 1491T667 1523T748 1556Q801 1556 830 1524T860
1434Q860 1377 828 1344T748 1311Q695 1311 665 1343T635 1434Q635 1491 667 1523ZM670 78T583 29T399 -20Q254 -20 173 60T92 287Q92 457 214 530T563 604H727V768Q727 858 677 905T532 952Q477 952 431 945T359 931T326 922L297 768H164L154 1024Q170 1030 234
1049T387 1087T553 1106Q739 1106 835 1032T932 788V164L1096 123V10L778 0L735 143Q670 78 583 29ZM301 227T341 185T451 143Q519 143 580 180T684 260T727 307V471H584Q432 471 367 430T301 297Q301 227 341 185Z" />
<glyph unicode="&#xe5;" glyph-name="aring" horiz-adv-x="1157" d="M342 1513T376 1567T464 1650T578 1679Q672 1679 742 1619T813 1454Q813 1384 779 1330T691 1248T578 1219Q484 1219 413 1279T342 1444Q342 1513 376 1567ZM465 1386T494 1354T578 1321Q627
1321 658 1356T690 1450Q690 1511 661 1544T578 1577Q529 1577 497 1542T465 1448Q465 1386 494 1354ZM670 78T583 29T399 -20Q254 -20 173 60T92 287Q92 457 214 530T563 604H727V768Q727 858 677 905T532 952Q477 952 431 945T359 931T326 922L297 768H164L154
1024Q170 1030 234 1049T387 1087T553 1106Q739 1106 835 1032T932 788V164L1096 123V10L778 0L735 143Q670 78 583 29ZM301 227T341 185T451 143Q519 143 580 180T684 260T727 307V471H584Q432 471 367 430T301 297Q301 227 341 185Z" />
<glyph unicode="&#xe6;" glyph-name="ae" horiz-adv-x="1710" d="M1638 592T1634 559T1628 516L922 512Q922 344 1003 244T1219 143Q1309 143 1385 168T1512 222T1563 256L1634 150Q1634 146 1568 101T1404 18T1198 -20Q909 -20 795 197Q740 125 638 53T399 -20Q254
-20 173 60T92 287Q92 457 214 530T563 604H727V768Q727 858 677 905T532 952Q477 952 431 945T359 931T326 922L297 768H164L154 1024Q170 1030 234 1049T387 1087T553 1106Q799 1106 872 963Q935 1033 1020 1069T1208 1106Q1638 1106 1638 625Q1638 592 1634
559ZM1421 791T1368 868T1198 946Q1079 946 1010 866T930 666H1421Q1421 791 1368 868ZM430 471T364 430T297 297Q297 227 339 185T451 143Q519 143 580 182T684 267T727 317V471H584Q430 471 364 430Z" />
<glyph unicode="&#xe7;" glyph-name="ccedilla" horiz-adv-x="1044" d="M774 926T721 934T604 942Q457 942 377 847T297 563Q297 358 381 251T614 143Q700 143 771 171T887 230T932 266L1004 143Q1004 139 951 103T819 30T655 -16V-90Q737 -106 785 -153T834 -272Q834
-350 772 -399T614 -449Q555 -449 503 -437T420 -410T381 -391L430 -307Q436 -311 462 -321T528 -341T604 -350Q645 -350 672 -328T700 -266Q700 -219 654 -191T532 -162V-16Q311 0 197 146T82 543Q82 707 147 835T333 1034T614 1106Q696 1106 774 1088T901 1050T963
1024L952 748H819L788 922Q774 926 721 934Z" />
<glyph unicode="&#xe8;" glyph-name="egrave" horiz-adv-x="1105" d="M297 344T379 244T594 143Q684 143 761 168T888 222T938 256L1010 150Q1010 146 944 101T780 18T573 -20Q331 -20 207 126T82 532Q82 694 145 825T323 1031T584 1106Q1014 1106 1014 625Q1014
592 1010 559T1004 516L297 512Q297 344 379 244ZM797 791T744 868T573 946Q454 946 385 866T305 666H797Q797 791 744 868ZM778 1321L706 1219L276 1485L378 1638L778 1321Z" />
<glyph unicode="&#xe9;" glyph-name="eacute" horiz-adv-x="1105" d="M297 344T379 244T594 143Q684 143 761 168T888 222T938 256L1010 150Q1010 146 944 101T780 18T573 -20Q331 -20 207 126T82 532Q82 694 145 825T323 1031T584 1106Q1014 1106 1014 625Q1014
592 1010 559T1004 516L297 512Q297 344 379 244ZM797 791T744 868T573 946Q454 946 385 866T305 666H797Q797 791 744 868ZM757 1638L860 1485L430 1219L358 1321L757 1638Z" />
<glyph unicode="&#xea;" glyph-name="ecircumflex" horiz-adv-x="1085" d="M186 1321L494 1597L616 1608L924 1321L842 1229L559 1450L268 1229L186 1321ZM297 344T379 244T594 143Q684 143 761 168T888 222T938 256L1010 150Q1010 146 944 101T780 18T573 -20Q331
-20 207 126T82 532Q82 694 145 825T323 1031T584 1106Q1014 1106 1014 625Q1014 592 1010 559T1004 516L297 512Q297 344 379 244ZM797 791T744 868T573 946Q454 946 385 866T305 666H797Q797 791 744 868Z" />
<glyph unicode="&#xeb;" glyph-name="edieresis" horiz-adv-x="1085" d="M236 1491T268 1523T348 1556Q401 1556 431 1524T461 1434Q461 1377 428 1344T348 1311Q295 1311 266 1343T236 1434Q236 1491 268 1523ZM655 1491T688 1523T768 1556Q821 1556 851 1524T881
1434Q881 1377 848 1344T768 1311Q715 1311 685 1343T655 1434Q655 1491 688 1523ZM297 344T379 244T594 143Q684 143 761 168T888 222T938 256L1010 150Q1010 146 944 101T780 18T573 -20Q331 -20 207 126T82 532Q82 694 145 825T323 1031T584 1106Q1014 1106
1014 625Q1014 592 1010 559T1004 516L297 512Q297 344 379 244ZM797 791T744 868T573 946Q454 946 385 866T305 666H797Q797 791 744 868Z" />
<glyph unicode="&#xec;" glyph-name="igrave" horiz-adv-x="686" d="M614 0H82V113L256 164V922L82 963V1075L461 1085V164L614 113V0ZM533 1321L461 1219L31 1485L133 1638L533 1321Z" />
<glyph unicode="&#xed;" glyph-name="iacute" horiz-adv-x="686" d="M614 0H82V113L256 164V922L82 963V1075L461 1085V164L614 113V0ZM532 1638L635 1485L205 1219L133 1321L532 1638Z" />
<glyph unicode="&#xee;" glyph-name="icircumflex" horiz-adv-x="706" d="M0 1321L287 1597L410 1608L696 1321L614 1229L352 1450L82 1229L0 1321ZM625 0H92V113L266 164V922L92 963V1075L471 1085V164L625 113V0Z" />
<glyph unicode="&#xef;" glyph-name="idieresis" horiz-adv-x="686" d="M31 1491T63 1523T143 1556Q196 1556 226 1524T256 1434Q256 1377 223 1344T143 1311Q90 1311 61 1343T31 1434Q31 1491 63 1523ZM430 1491T463 1523T543 1556Q596 1556 625 1524T655 1434Q655
1377 623 1344T543 1311Q490 1311 460 1343T430 1434Q430 1491 463 1523ZM614 0H82V113L256 164V922L82 963V1075L461 1085V164L614 113V0Z" />
<glyph unicode="&#xf0;" glyph-name="eth" horiz-adv-x="1177" d="M913 1247T999 1036T1085 543Q1085 375 1022 248T842 51T573 -20Q342 -20 212 115T82 502Q82 762 217 908T584 1055Q725 1055 836 969Q762 1172 606 1300L338 1157L256 1270L477 1389Q389 1438
276 1475L338 1604Q504 1565 641 1479L870 1604L954 1489L762 1384Q913 1247 999 1036ZM297 891T297 512Q297 338 368 241T584 143Q734 143 802 238T870 522Q870 700 806 795T594 891Q297 891 297 512Z" />
<glyph unicode="&#xf1;" glyph-name="ntilde" horiz-adv-x="1361" d="M293 1380T322 1430T402 1523T518 1565Q567 1565 609 1553T702 1516Q751 1493 786 1483T860 1473Q893 1473 924 1492T975 1531T999 1559L1071 1487Q1071 1481 1043 1432T965 1341T850 1300Q801
1300 759 1312T666 1350Q617 1373 582 1383T508 1393Q469 1393 438 1373T388 1331T365 1303L293 1374Q293 1380 322 1430ZM502 995T605 1050T819 1106Q983 1106 1065 1009T1147 737V164L1300 113V0H809V113L942 164V717Q942 828 899 880T758 932Q680 932 615 895T505
815T461 768V164L594 113V0H82V113L256 164V922L82 963V1075L420 1085L438 940Q502 995 605 1050Z" />
<glyph unicode="&#xf2;" glyph-name="ograve" horiz-adv-x="1167" d="M831 1106T958 960T1085 563Q1085 391 1022 258T842 53T573 -20Q340 -20 211 120T82 532Q82 704 148 834T333 1035T604 1106Q831 1106 958 960ZM442 942T370 843T297 543Q297 144 584 143Q734
143 802 245T870 553Q870 942 594 942Q442 942 370 843ZM799 1321L727 1219L297 1485L399 1638L799 1321Z" />
<glyph unicode="&#xf3;" glyph-name="oacute" horiz-adv-x="1167" d="M831 1106T958 960T1085 563Q1085 391 1022 258T842 53T573 -20Q340 -20 211 120T82 532Q82 704 148 834T333 1035T604 1106Q831 1106 958 960ZM442 942T370 843T297 543Q297 144 584 143Q734
143 802 245T870 553Q870 942 594 942Q442 942 370 843ZM768 1638L871 1485L441 1219L369 1321L768 1638Z" />
<glyph unicode="&#xf4;" glyph-name="ocircumflex" horiz-adv-x="1167" d="M225 1321L532 1597L655 1608L963 1321L881 1229L598 1450L307 1229L225 1321ZM831 1106T958 960T1085 563Q1085 391 1022 258T842 53T573 -20Q340 -20 211 120T82 532Q82 704 148 834T333
1035T604 1106Q831 1106 958 960ZM442 942T370 843T297 543Q297 144 584 143Q734 143 802 245T870 553Q870 942 594 942Q442 942 370 843Z" />
<glyph unicode="&#xf5;" glyph-name="otilde" horiz-adv-x="1167" d="M195 1378T225 1428T306 1522T420 1565Q469 1565 512 1553T608 1516Q661 1493 695 1482T768 1470Q805 1470 834 1489T880 1529T901 1556L973 1485Q973 1479 946 1431T870 1341T758 1300Q709
1300 668 1312T569 1348Q520 1368 486 1379T410 1391Q373 1391 341 1371T290 1329T266 1300L195 1372Q195 1378 225 1428ZM831 1106T958 960T1085 563Q1085 391 1022 258T842 53T573 -20Q340 -20 211 120T82 532Q82 704 148 834T333 1035T604 1106Q831 1106 958
960ZM442 942T370 843T297 543Q297 144 584 143Q734 143 802 245T870 553Q870 942 594 942Q442 942 370 843Z" />
<glyph unicode="&#xf6;" glyph-name="odieresis" horiz-adv-x="1167" d="M256 1491T289 1523T369 1556Q422 1556 451 1524T481 1434Q481 1377 449 1344T369 1311Q316 1311 286 1343T256 1434Q256 1491 289 1523ZM676 1491T708 1523T788 1556Q841 1556 871 1524T901
1434Q901 1377 869 1344T788 1311Q735 1311 706 1343T676 1434Q676 1491 708 1523ZM831 1106T958 960T1085 563Q1085 391 1022 258T842 53T573 -20Q340 -20 211 120T82 532Q82 704 148 834T333 1035T604 1106Q831 1106 958 960ZM442 942T370 843T297 543Q297 144
584 143Q734 143 802 245T870 553Q870 942 594 942Q442 942 370 843Z" />
<glyph unicode="&#xf7;" glyph-name="divide" horiz-adv-x="1269" d="M502 1030T541 1068T635 1106Q696 1106 732 1068T768 963Q768 897 730 858T635 819Q574 819 538 857T502 963Q502 1030 541 1068ZM1167 461H102V625H1167V461ZM502 190T541 228T635 266Q696
266 732 228T768 123Q768 57 730 19T635 -20Q574 -20 538 17T502 123Q502 190 541 228Z" />
<glyph unicode="&#xf8;" glyph-name="oslash" horiz-adv-x="1187" d="M92 235T92 532Q92 704 158 834T343 1035T614 1106Q729 1106 823 1065L952 1280L1075 1208L942 985Q1018 915 1057 807T1096 563Q1096 391 1033 258T852 53T584 -20Q465 -20 365 18L225 -215L102
-143L244 94Q92 235 92 532ZM453 942T380 843T307 543Q307 375 354 281L733 913Q676 942 604 942Q453 942 380 843ZM881 709T834 805L457 174Q514 143 594 143Q744 143 812 245T881 553Q881 709 834 805Z" />
<glyph unicode="&#xf9;" glyph-name="ugrave" horiz-adv-x="1331" d="M1280 10L942 0L922 143Q861 88 756 34T543 -20Q379 -20 297 76T215 346V922L41 963V1075L420 1085V367Q420 258 463 206T604 154Q682 154 747 189T857 268T901 315V922L727 963V1075L1106
1085V164L1280 123V10ZM860 1321L788 1219L358 1485L460 1638L860 1321Z" />
<glyph unicode="&#xfa;" glyph-name="uacute" horiz-adv-x="1331" d="M1280 10L942 0L922 143Q861 88 756 34T543 -20Q379 -20 297 76T215 346V922L41 963V1075L420 1085V367Q420 258 463 206T604 154Q682 154 747 189T857 268T901 315V922L727 963V1075L1106
1085V164L1280 123V10ZM839 1638L942 1485L512 1219L440 1321L839 1638Z" />
<glyph unicode="&#xfb;" glyph-name="ucircumflex" horiz-adv-x="1331" d="M297 1321L604 1597L727 1608L1034 1321L952 1229L670 1450L379 1229L297 1321ZM1280 10L942 0L922 143Q861 88 756 34T543 -20Q379 -20 297 76T215 346V922L41 963V1075L420 1085V367Q420
258 463 206T604 154Q682 154 747 189T857 268T901 315V922L727 963V1075L1106 1085V164L1280 123V10Z" />
<glyph unicode="&#xfc;" glyph-name="udieresis" horiz-adv-x="1331" d="M317 1491T350 1523T430 1556Q483 1556 513 1524T543 1434Q543 1377 510 1344T430 1311Q377 1311 347 1343T317 1434Q317 1491 350 1523ZM737 1491T770 1523T850 1556Q903 1556 933 1524T963
1434Q963 1377 930 1344T850 1311Q797 1311 767 1343T737 1434Q737 1491 770 1523ZM1280 10L942 0L922 143Q861 88 756 34T543 -20Q379 -20 297 76T215 346V922L41 963V1075L420 1085V367Q420 258 463 206T604 154Q682 154 747 189T857 268T901 315V922L727 963V1075L1106
1085V164L1280 123V10Z" />
<glyph unicode="&#xfd;" glyph-name="yacute" horiz-adv-x="1181" d="M604 225L829 932L686 963V1075L1171 1085V963L1038 942L748 131L729 82Q661 -100 602 -216T443 -412T195 -492Q162 -492 119 -488T63 -481L82 -338H184Q284 -338 359 -254T510 -4L143 932L20
963V1075L502 1085V963L358 942L604 225ZM891 1638L994 1485L564 1219L492 1321L891 1638Z" />
<glyph unicode="&#xfe;" glyph-name="thorn" horiz-adv-x="1259" d="M61 -358L225 -317V1413L51 1454V1567L430 1577V983Q430 987 476 1019T587 1078T727 1106Q944 1106 1055 963T1167 573Q1167 301 1028 141T614 -20Q569 -20 528 -14T462 -1T430 8V-317L645 -358V-471H61V-358ZM434
180T457 171T529 153T645 143Q952 143 952 553Q952 731 886 836T686 942Q604 942 547 911T460 842T430 799V184Q434 180 457 171Z" />
<glyph unicode="&#xff;" glyph-name="ydieresis" horiz-adv-x="1181" d="M276 1491T309 1523T389 1556Q442 1556 472 1524T502 1434Q502 1377 469 1344T389 1311Q336 1311 306 1343T276 1434Q276 1491 309 1523ZM696 1491T729 1523T809 1556Q862 1556 892 1524T922
1434Q922 1377 889 1344T809 1311Q756 1311 726 1343T696 1434Q696 1491 729 1523ZM502 1085V963L358 942L604 225L829 932L686 963V1075L1171 1085V963L1038 942L748 131L729 82Q661 -100 602 -216T443 -412T195 -492Q162 -492 119 -488T63 -481L82 -338H184Q284
-338 359 -254T510 -4L143 932L20 963V1075L502 1085Z" />
<glyph unicode="&#x2013;" glyph-name="endash" horiz-adv-x="1024" d="M1024 584H0V748H1024V584Z" />
<glyph unicode="&#x2014;" glyph-name="emdash" horiz-adv-x="1986" d="M1987 584H0V748H1987V584Z" />
<glyph unicode="&#x2018;" glyph-name="quoteleft" horiz-adv-x="573" d="M399 1094T363 1055T266 1016Q207 1016 170 1051T133 1167Q133 1251 196 1366T369 1597L461 1520Q453 1510 427 1471T377 1384T352 1303Q352 1283 371 1249Q400 1196 399 1153Q399 1094 363 1055Z" />
<glyph unicode="&#x2019;" glyph-name="quoteright" horiz-adv-x="573" d="M121 1104T146 1143T196 1230T221 1311Q221 1331 203 1364Q174 1417 174 1460Q174 1519 211 1558T307 1597Q366 1597 403 1562T440 1446Q440 1362 377 1248T205 1016L113 1094Q121 1104
146 1143Z" />
<glyph unicode="&#x201a;" glyph-name="quotesinglbase" horiz-adv-x="573" d="M121 -268T146 -229T196 -142T221 -61Q221 -41 203 -8Q174 45 174 88Q174 147 211 186T307 225Q366 225 403 190T440 74Q440 -10 377 -125T205 -356L113 -279Q121 -268 146 -229Z" />
<glyph unicode="&#x201c;" glyph-name="quotedblleft" horiz-adv-x="972" d="M399 1094T363 1055T266 1016Q207 1016 170 1051T133 1167Q133 1251 196 1366T369 1597L461 1520Q453 1510 427 1471T377 1384T352 1303Q352 1283 371 1249Q400 1196 399 1153Q399 1094
363 1055ZM799 1094T762 1055T666 1016Q607 1016 570 1051T532 1167Q532 1251 595 1366T768 1597L860 1520Q852 1510 827 1471T777 1384T752 1303Q752 1283 770 1249Q799 1196 799 1153Q799 1094 762 1055Z" />
<glyph unicode="&#x201d;" glyph-name="quotedblright" horiz-adv-x="972" d="M121 1104T146 1143T196 1230T221 1311Q221 1331 203 1364Q174 1417 174 1460Q174 1519 211 1558T307 1597Q366 1597 403 1562T440 1446Q440 1362 377 1248T205 1016L113 1094Q121
1104 146 1143ZM520 1104T545 1143T596 1230T621 1311Q621 1331 602 1364Q573 1417 573 1460Q573 1519 610 1558T707 1597Q766 1597 803 1562T840 1446Q840 1362 777 1248T604 1016L512 1094Q520 1104 545 1143Z" />
<glyph unicode="&#x201e;" glyph-name="quotedblbase" horiz-adv-x="972" d="M121 -268T146 -229T196 -142T221 -61Q221 -41 203 -8Q174 45 174 88Q174 147 211 186T307 225Q366 225 403 190T440 74Q440 -10 377 -125T205 -356L113 -279Q121 -268 146 -229ZM520
-268T545 -229T596 -142T621 -61Q621 -41 602 -8Q573 45 573 88Q573 147 610 186T707 225Q766 225 803 190T840 74Q840 -10 777 -125T604 -356L512 -279Q520 -268 545 -229Z" />
<glyph unicode="&#x2022;" glyph-name="bullet" horiz-adv-x="1034" d="M174 733T218 809T338 929T502 973Q590 973 665 929T785 809T829 645Q829 557 785 482T666 362T502 317Q414 317 338 361T218 481T174 645Q174 733 218 809Z" />
<glyph unicode="&#x2039;" glyph-name="guilsinglleft" horiz-adv-x="645" d="M113 481V604L410 932L532 850L297 543L532 236L410 154L113 481Z" />
<glyph unicode="&#x203a;" glyph-name="guilsinglright" horiz-adv-x="645" d="M246 932L543 604V481L246 154L123 236L358 543L123 850L246 932Z" />
</font>
</defs>
</svg>
