<?xml version="1.0" standalone="no"?>
<!DOCTYPE svg PUBLIC "-//W3C//DTD SVG 1.1//EN" "http://www.w3.org/Graphics/SVG/1.1/DTD/svg11.dtd">
<svg xmlns="http://www.w3.org/2000/svg">
<defs >
<font id="Share" horiz-adv-x="405" ><font-face
    font-family="Share"
    units-per-em="1000"
    panose-1="2 0 5 6 4 0 0 2 0 4"
    ascent="885"
    descent="-242"
    alphabetic="0" />
<glyph unicode=" " glyph-name="space" horiz-adv-x="260" />
<glyph unicode="!" glyph-name="exclam" horiz-adv-x="250" d="M75 0V100H175V0H75ZM82 208V700H167V208H82Z" />
<glyph unicode="&quot;" glyph-name="quotedbl" horiz-adv-x="360" d="M130 453H75L55 610V700H150V610L130 453ZM285 453H230L210 610V700H305V610L285 453Z" />
<glyph unicode="#" glyph-name="numbersign" horiz-adv-x="470" d="M284 455H204L186 255H266L284 455ZM340 180L324 0H244L260 180H180L164 0H84L100 180H30L36 255H106L124 455H54L60 530H130L145 700H225L210 530H290L305 700H385L370 530H440L434 455H364L346
255H416L410 180H340Z" />
<glyph unicode="$" glyph-name="dollar" horiz-adv-x="470" d="M192 -110V-5Q140 -3 94 10V83Q117 77 146 73T210 68Q262 68 280 97T299 184Q299 249 281 276T228 310Q151 326 117 373T82 494Q82 571 111 611T192 666V780H277V675Q303 674 324 670T365 660V587Q339
593 312 597T259 602Q240 602 224 598T196 582T178 552T171 505Q171 455 185 428T241 393Q277 386 304 372T350 335T378 277T388 194Q388 148 381 115T359 60T325 24T277 3V-110H192Z" />
<glyph unicode="%" glyph-name="percent" horiz-adv-x="856" d="M290 496Q290 577 275 612T222 648Q184 648 169 613T154 496Q154 415 169 380T222 344Q260 344 275 379T290 496ZM359 500Q359 453 354 414T334 346T293 301T222 285Q179 285 152 301T110 345T90
413T85 500Q85 547 90 585T110 650T152 692T222 707Q266 707 293 692T334 650T354 585T359 500ZM345 0H267L512 700H590L345 0ZM702 204Q702 285 687 320T634 356Q596 356 581 321T566 204Q566 123 581 88T634 52Q672 52 687 87T702 204ZM771 208Q771 161 766 122T746
54T705 9T634 -7Q591 -7 564 9T522 53T502 121T497 208Q497 255 502 293T522 358T564 400T634 415Q678 415 705 400T746 358T766 293T771 208Z" />
<glyph unicode="&amp;" glyph-name="ampersand" horiz-adv-x="507" d="M65 198Q65 235 68 269T81 331T105 379T145 408Q110 429 94 458T78 535Q78 591 92 625T130 677T188 701T260 707Q298 707 324 701T360 692V619Q356 620 344 622T316 627T285 632T258 634Q239
634 222 631T192 619T171 592T163 544Q163 500 181 470T247 440H482V367H399V5Q361 -1 322 -4T236 -7Q153 -7 109 39T65 198ZM237 66Q268 66 288 69T320 74V367H232Q205 367 189 352T165 312T154 255T151 188Q151 130 175 98T237 66Z" />
<glyph unicode="&apos;" glyph-name="quotesingle" horiz-adv-x="205" d="M130 453H75L55 610V700H150V610L130 453Z" />
<glyph unicode="(" glyph-name="parenleft" horiz-adv-x="320" d="M55 350Q55 490 82 604T177 820H260Q229 767 207 714T169 604T147 485T140 350Q140 278 147 216T169 96T206 -14T260 -120H177Q109 -18 82 96T55 350Z" />
<glyph unicode=")" glyph-name="parenright" horiz-adv-x="320" d="M265 350Q265 210 238 96T143 -120H60Q91 -67 113 -14T151 96T173 215T180 350Q180 422 173 484T151 604T114 714T60 820H143Q211 718 238 604T265 350Z" />
<glyph unicode="*" glyph-name="asterisk" horiz-adv-x="480" d="M293 515L399 392L327 340L239 482L148 340L78 393L185 515L40 547L67 627L208 570L195 722H285L272 570L415 625L440 546L293 515Z" />
<glyph unicode="+" glyph-name="plus" horiz-adv-x="550" d="M315 275V118H235V275H84V350H235V508H315V350H465V275H315Z" />
<glyph unicode="," glyph-name="comma" horiz-adv-x="230" d="M93 -140H25L65 0V100H165V0L93 -140Z" />
<glyph unicode="-" glyph-name="hyphen" horiz-adv-x="495" d="M85 275V350H410V275H85Z" />
<glyph unicode="." glyph-name="period" horiz-adv-x="230" d="M65 0V100H165V0H65Z" />
<glyph unicode="/" glyph-name="slash" horiz-adv-x="325" d="M84 -110H5L241 810H320L84 -110Z" />
<glyph unicode="0" glyph-name="zero" horiz-adv-x="470" d="M328 353Q328 436 325 490T311 576T283 621T235 634Q205 634 187 621T159 576T146 490T142 353Q142 272 145 218T158 129T186 81T235 66Q265 66 283 80T311 129T324 217T328 353ZM413 358Q413 266 407
198T382 84T328 16T235 -7Q177 -7 142 15T88 83T63 197T57 358Q57 446 63 511T88 620T142 685T235 707Q294 707 329 686T382 621T407 512T413 358Z" />
<glyph unicode="1" glyph-name="one" horiz-adv-x="470" d="M90 0V75H211V621L80 569V650L201 700H296V75H395V0H90Z" />
<glyph unicode="2" glyph-name="two" horiz-adv-x="470" d="M65 0V88L215 316Q237 350 251 370T274 411T286 458T290 529Q290 575 271 604T205 634Q173 634 140 628T83 617V690Q87 691 99 693T128 699T165 704T205 707Q294 707 334 661T375 520Q375 481 371 453T358
399T333 347T294 285L155 74H385V0H65Z" />
<glyph unicode="3" glyph-name="three" horiz-adv-x="470" d="M373 198Q373 86 331 40T204 -7Q186 -7 165 -5T124 1T90 6T73 10V85Q82 83 97 81T131 76T168 71T203 69Q241 69 264 99T287 188Q287 258 271 292T201 327H119V400H191Q221 400 238 413T264 446T274
487T276 523Q276 583 258 608T201 634Q168 634 134 628T78 617V690Q82 691 94 693T123 699T160 704T199 707Q238 707 268 698T318 667T350 607T361 514Q361 463 344 423T285 369Q334 362 353 317T373 198Z" />
<glyph unicode="4" glyph-name="four" horiz-adv-x="470" d="M352 156V0H267V156H69V242L168 700H249L154 229H267L274 457H352V229H422V156H352Z" />
<glyph unicode="5" glyph-name="five" horiz-adv-x="470" d="M180 627V421H200Q254 421 289 409T344 371T372 306T380 212Q380 149 369 107T337 40T283 4T210 -7Q172 -7 140 -1T85 10V83Q99 80 135 73T214 66Q259 66 276 102T294 202Q294 245 290 273T275 318T247
341T205 348H95V700H360V627H180Z" />
<glyph unicode="6" glyph-name="six" horiz-adv-x="470" d="M411 220Q411 156 398 113T362 43T306 5T234 -7Q188 -7 156 6T103 61T73 179T63 380Q63 483 78 547T120 646T185 694T271 707Q283 707 297 706T324 702T349 697T367 692V621Q347 626 320 631T261 637Q234
637 214 630T179 598T158 530T148 413Q165 424 190 434T254 444Q307 444 338 429T385 384T406 314T411 220ZM247 372Q209 372 183 361T148 345Q148 252 153 197T169 112T196 74T234 65Q282 65 304 102T326 211Q326 253 324 283T314 333T290 362T247 372Z" />
<glyph unicode="7" glyph-name="seven" horiz-adv-x="470" d="M204 0H115L282 625H60V700H365V603L204 0Z" />
<glyph unicode="8" glyph-name="eight" horiz-adv-x="470" d="M338 188Q338 228 334 256T315 301T273 327T201 335Q181 324 168 313T146 285T135 245T132 188Q132 117 157 91T235 65Q287 65 312 91T338 188ZM326 523Q326 579 306 607T235 635Q184 635 164 607T144
523Q144 489 149 465T167 425T204 403T264 396Q300 411 313 445T326 523ZM423 198Q423 93 380 43T235 -7Q134 -7 91 43T47 198Q47 239 54 265T74 309T102 338T134 360Q98 377 80 420T61 514Q61 570 73 607T109 666T164 698T235 707Q274 707 306 698T361 667T396
607T409 514Q409 489 406 469T393 431T369 400T331 372Q380 361 401 317T423 198Z" />
<glyph unicode="9" glyph-name="nine" horiz-adv-x="470" d="M56 497Q56 555 69 595T107 660T163 696T232 707Q281 707 314 692T367 638T395 529T404 350Q404 229 392 159T354 51T292 4T206 -7Q194 -7 180 -6T153 -2T128 3T110 8V81Q130 76 157 71T216 65Q242
65 261 72T292 103T310 170T318 286Q302 276 276 266T213 256Q162 256 131 271T84 318T62 394T56 497ZM220 328Q258 328 283 339T319 355Q319 448 314 503T298 588T270 626T229 635Q183 635 162 598T141 489Q141 447 143 417T153 367T177 338T220 328Z" />
<glyph unicode=":" glyph-name="colon" horiz-adv-x="230" d="M65 0V100H165V0H65ZM65 400V500H165V400H65Z" />
<glyph unicode=";" glyph-name="semicolon" horiz-adv-x="230" d="M93 -140H25L65 0V100H165V0L93 -140ZM65 400V500H165V400H65Z" />
<glyph unicode="&lt;" glyph-name="less" horiz-adv-x="550" d="M85 280V385L465 564V472L155 336L465 199V105L85 280Z" />
<glyph unicode="=" glyph-name="equal" horiz-adv-x="550" d="M85 175V250H465V175H85ZM85 375V450H465V375H85Z" />
<glyph unicode="&gt;" glyph-name="greater" horiz-adv-x="550" d="M85 105V199L401 336L85 472V564L465 385V280L85 105Z" />
<glyph unicode="?" glyph-name="question" horiz-adv-x="360" d="M104 0V100H204V0H104ZM325 540Q325 511 323 492T313 455T290 418T250 368L196 304V208H111V329L171 400Q195 429 209 446T230 479T238 509T240 549Q240 598 218 616T157 634Q126 634 92 629T35
618V691Q45 693 58 696T87 701T118 705T147 707Q188 707 221 701T277 676T312 626T325 540Z" />
<glyph unicode="@" glyph-name="at" horiz-adv-x="815" d="M472 472Q466 474 456 475T435 477Q412 477 391 472T354 452T329 410T319 339Q319 299 324 274T339 236T363 219T394 214Q416 214 431 220T455 236T468 258T472 281V472ZM730 401Q730 344 725 293T705
202T662 139T585 116Q573 116 558 120T530 132T506 155T491 191Q477 171 446 158T373 144Q349 144 326 151T283 178T251 236T239 335Q239 400 255 440T300 504T366 535T448 544Q471 544 499 540T550 530V221Q550 206 559 194T587 181Q607 181 618 196T636 240T645
309T647 401Q647 475 639 521T605 592T532 627T408 636Q333 636 286 623T213 576T178 487T168 345Q168 268 176 215T209 128T280 79T404 64Q422 64 445 65T490 69T532 73T561 76V5Q548 3 529 1T488 -3T444 -6T404 -7Q308 -7 246 12T148 73T99 182T85 345Q85 451
102 520T157 631T257 690T408 707Q496 707 557 695T657 650T712 557T730 401Z" />
<glyph unicode="A" glyph-name="A" horiz-adv-x="500" d="M250 634L169 252H332L250 634ZM386 0L348 177H153L114 0H25L194 700H309L475 0H386Z" />
<glyph unicode="B" glyph-name="B" horiz-adv-x="512" d="M363 204Q363 270 342 301T265 332H172V71Q186 70 202 69Q216 68 232 67T264 66Q284 66 302 71T333 91T355 133T363 204ZM348 517Q348 579 330 607T255 635Q219 635 196 632Q183 630 172 629V404H255Q270
404 286 407T316 421T339 454T348 517ZM452 211Q452 148 438 107T399 40T337 4T255 -7Q223 -7 193 -7T139 -4Q111 -2 85 0V700Q113 702 140 704Q163 706 191 706T243 707Q288 707 323 698T384 666T422 609T435 524Q435 461 410 424T355 373Q370 368 387 358T418
329T442 282T452 211Z" />
<glyph unicode="C" glyph-name="C" horiz-adv-x="423" d="M378 10Q370 8 356 5T327 0T295 -5T267 -7Q213 -7 175 8T113 65T77 177T65 361Q65 472 78 539T117 644T184 694T279 707Q303 707 330 703T378 693V619Q353 625 322 628T261 632Q234 632 214 623T180 584T161
500T154 354Q154 260 161 204T181 117T215 78T262 68Q293 68 326 73T378 83V10Z" />
<glyph unicode="D" glyph-name="D" horiz-adv-x="526" d="M372 354Q372 444 365 499T343 584T311 624T269 634Q255 634 239 634T207 632Q189 631 172 630V70Q187 69 204 68Q218 67 235 67T268 66Q291 66 310 80T343 127T364 216T372 354ZM461 361Q461 249 449
178T411 65T347 9T259 -7Q230 -7 200 -7T143 -4Q113 -2 85 0V700Q112 702 140 704Q164 706 192 706T247 707Q300 707 340 695T407 645T447 540T461 361Z" />
<glyph unicode="E" glyph-name="E" horiz-adv-x="473" d="M85 0V700H413V627H172V398H388V325H172V73H413V0H85Z" />
<glyph unicode="F" glyph-name="F" horiz-adv-x="458" d="M172 627V388H388V315H172V0H85V700H413V627H172Z" />
<glyph unicode="G" glyph-name="G" horiz-adv-x="500" d="M430 10Q390 2 352 -2T273 -7Q216 -7 176 8T112 65T76 177T65 361Q65 472 79 539T121 644T194 694T297 707Q323 707 356 703T409 693V621Q377 627 344 630T279 634Q247 634 224 625T185 585T162 500T154
354Q154 260 160 203T181 116T216 76T268 66Q285 66 306 68T347 73V295H258V368H430V10Z" />
<glyph unicode="H" glyph-name="H" horiz-adv-x="550" d="M378 0V322H172V0H85V700H172V396H378V700H465V0H378Z" />
<glyph unicode="I" glyph-name="I" horiz-adv-x="317" d="M45 0V73H115V627H45V700H272V627H202V73H272V0H45Z" />
<glyph unicode="J" glyph-name="J" horiz-adv-x="400" d="M320 251Q320 170 310 120T279 41T224 3T142 -7Q133 -7 120 -6T92 -4T62 -1T35 3V77Q46 75 61 74T90 71T117 69T136 68Q163 68 181 74T211 98T228 152T233 244V627H72V700H320V251V251Z" />
<glyph unicode="K" glyph-name="K" horiz-adv-x="492" d="M364 0L208 321L172 261V0H85V700H172V393L359 700H452L262 394L462 0H364Z" />
<glyph unicode="L" glyph-name="L" horiz-adv-x="410" d="M85 0V700H172V76H395V0H85Z" />
<glyph unicode="M" glyph-name="M" horiz-adv-x="630" d="M462 0V628L355 235H272L165 628V0H85V700H226L317 342L407 700H545V0H462Z" />
<glyph unicode="N" glyph-name="N" horiz-adv-x="547" d="M319 0L166 626V0H85V700H227L381 74V700H462V0H319Z" />
<glyph unicode="O" glyph-name="O" horiz-adv-x="548" d="M394 353Q394 436 388 490T368 576T331 621T274 634Q240 634 217 621T180 576T160 490T154 353Q154 272 160 218T180 129T217 81T274 66Q308 66 331 80T368 129T388 217T394 353ZM483 358Q483 266 474
198T441 84T377 16T274 -7Q212 -7 172 15T108 83T75 197T65 358Q65 446 74 511T107 620T171 685T274 707Q336 707 376 686T440 621T473 512T483 358Z" />
<glyph unicode="P" glyph-name="P" horiz-adv-x="500" d="M361 483Q361 558 341 596T266 635Q224 635 198 632Q183 630 172 629V337H266Q287 337 304 344T334 369T354 414T361 483ZM450 490Q450 433 440 391T406 320T346 278T256 264H172V0H85V700Q110 702 138
704Q162 706 192 706T254 707Q311 707 349 691T409 645T441 576T450 490Z" />
<glyph unicode="Q" glyph-name="Q" horiz-adv-x="548" d="M274 -7Q212 -7 172 15T108 83T75 197T65 358Q65 446 74 511T107 620T171 685T274 707Q336 707 376 686T440 621T473 512T483 358Q483 232 462 147T384 23L503 0V-84L274 -7ZM394 353Q394 436 388 490T368
576T331 621T274 634Q240 634 217 621T180 576T160 490T154 353Q154 272 160 218T180 129T217 81T274 66Q308 66 331 80T368 129T388 217T394 353Z" />
<glyph unicode="R" glyph-name="R" horiz-adv-x="515" d="M448 503Q448 425 425 375T348 304L485 0H389L261 290H172V0H85V700Q110 702 138 704Q162 706 192 706T254 707Q311 707 348 693T408 651T439 587T448 503ZM359 496Q359 569 339 602T266 635Q224 635 198
632Q183 630 172 629V363H266Q287 363 304 368T333 388T352 429T359 496Z" />
<glyph unicode="S" glyph-name="S" horiz-adv-x="434" d="M381 199Q381 137 367 97T327 34T265 2T183 -7Q159 -7 126 -3T67 8V81Q90 75 121 71T193 66Q245 66 268 96T292 189Q292 225 287 249T272 289T247 313T211 325Q169 334 140 348T93 384T67 438T58 514Q58
568 72 604T113 664T176 697T255 707Q280 707 309 703T361 692V619Q335 625 303 629T245 634Q226 634 209 628T178 609T156 576T147 525Q147 495 150 475T161 441T185 421T224 408Q260 401 289 388T338 352T370 291T381 199Z" />
<glyph unicode="T" glyph-name="T" horiz-adv-x="425" d="M256 624V0H169V624H15V700H410V624H256Z" />
<glyph unicode="U" glyph-name="U" horiz-adv-x="535" d="M455 185Q455 84 405 39T268 -7Q182 -7 131 38T80 185V700H167V166Q167 113 195 90T268 66Q313 66 340 89T368 166V700H455V185Z" />
<glyph unicode="V" glyph-name="V" horiz-adv-x="473" d="M291 0H172L35 700H123L233 88L352 700H438L291 0Z" />
<glyph unicode="W" glyph-name="W" horiz-adv-x="589" d="M505 0H369L302 304L229 0H99L65 700H142L172 55L262 405H344L435 55L466 700H539L505 0Z" />
<glyph unicode="X" glyph-name="X" horiz-adv-x="496" d="M363 0L249 268L129 0H35L205 362L50 700H145L250 459L358 700H451L293 363L461 0H363Z" />
<glyph unicode="Y" glyph-name="Y" horiz-adv-x="491" d="M289 325V0H199V325L20 700H116L248 409L380 700H471L289 325Z" />
<glyph unicode="Z" glyph-name="Z" horiz-adv-x="436" d="M134 74H381V0H45V88L303 626H68V700H391V612L134 74Z" />
<glyph unicode="[" glyph-name="bracketleft" horiz-adv-x="325" d="M85 -120V820H275V745H165V-45H275V-120H85Z" />
<glyph unicode="\" glyph-name="backslash" horiz-adv-x="325" d="M5 810H84L320 -110H241L5 810Z" />
<glyph unicode="]" glyph-name="bracketright" horiz-adv-x="325" d="M50 -120V-45H160V745H50V820H240V-120H50Z" />
<glyph unicode="^" glyph-name="asciicircum" horiz-adv-x="487" d="M351 420L247 700L133 420H45L189 760H303L442 420H351Z" />
<glyph unicode="_" glyph-name="underscore" horiz-adv-x="510" d="M3 -170V-95H507V-170H3Z" />
<glyph unicode="`" glyph-name="grave" horiz-adv-x="303" d="M179 580L47 715H156L260 580H179Z" />
<glyph unicode="a" glyph-name="a" horiz-adv-x="481" d="M406 0Q399 0 389 2T367 9T347 24T331 49Q312 22 281 8T199 -7Q172 -7 145 -2T97 20T63 66T50 141Q50 222 97 265T228 308H307V362Q307 394 289 414T232 435Q189 435 157 430T87 414V487Q115 495 150 501T222
507Q271 507 303 498T355 468T383 416T392 342V102Q392 87 402 79T436 70V0H406ZM219 65Q245 65 262 73T289 92T303 116T307 135V240H223Q207 240 192 235T164 219T145 190T137 147Q137 100 158 83T219 65Z" />
<glyph unicode="b" glyph-name="b" horiz-adv-x="499" d="M434 282Q434 200 423 145T387 56T322 8T221 -7Q194 -7 174 -6T138 -3T108 1T80 5V700H165V463Q212 507 276 507Q364 507 399 451T434 282ZM260 435Q239 435 222 427T192 406T172 379T165 350V69Q176 67
192 66T231 65Q267 65 289 78T324 117T342 181T347 272Q347 320 343 351T328 401T301 427T260 435Z" />
<glyph unicode="c" glyph-name="c" horiz-adv-x="404" d="M349 9Q325 2 296 -2T240 -7Q197 -7 164 2T109 40T76 121T65 260Q65 327 75 374T107 450T161 493T239 507Q264 507 295 502T349 492V418Q321 424 296 428T233 432Q211 432 196 423T171 392T157 333T152
240Q152 184 157 150T173 98T199 74T233 68Q274 68 300 73T349 83V9Z" />
<glyph unicode="d" glyph-name="d" horiz-adv-x="504" d="M354 0L347 42Q324 19 295 6T228 -7Q180 -7 149 8T99 52T73 125T65 228Q65 376 116 441T283 507Q300 507 314 506T339 503V700H424V0H354ZM244 65Q267 65 285 73T315 94T333 122T339 150V431Q328 433 312
434T273 435Q237 435 214 421T177 379T158 311T152 218Q152 173 157 144T174 97T202 72T244 65Z" />
<glyph unicode="e" glyph-name="e" horiz-adv-x="468" d="M150 220Q151 171 157 141T175 93T201 71T235 65Q277 65 311 70T369 81V9Q345 2 309 -2T245 -7Q202 -7 169 2T112 38T77 115T65 250Q65 319 76 368T111 448T168 493T247 507Q333 507 370 451T408 295V220H150ZM245
436Q221 436 204 429T176 405T159 360T151 288H325V315Q325 372 308 404T245 436Z" />
<glyph unicode="f" glyph-name="f" horiz-adv-x="311" d="M180 427V0H95V427H30V500H95V578Q95 643 130 675T222 707Q254 707 277 703T316 695V624Q300 628 281 631T235 635Q208 635 194 621T180 585V500H301V427H180Z" />
<glyph unicode="g" glyph-name="g" horiz-adv-x="521" d="M445 325Q445 240 396 199T243 157Q206 157 177 163Q167 141 167 120Q167 107 172 92Q206 95 239 97T297 100Q333 100 363 94T416 72T450 26T463 -49Q463 -87 449 -113T409 -157T349 -182T274 -190Q255
-190 228 -188T174 -184T122 -178T83 -172V-100Q102 -103 126 -106T177 -112T231 -115T282 -117Q333 -117 354 -98T376 -49Q376 -11 359 7T292 25Q278 25 256 24T211 22T165 18T127 14Q110 30 98 57T85 108Q85 138 92 158T112 192Q83 214 72 249T60 333Q60 387
77 421T122 474T188 500T268 507Q312 507 346 493L491 500V425L422 428Q445 385 445 325ZM360 333Q360 354 356 372T339 405T308 427T258 436Q193 436 169 410T145 325Q145 304 149 286T165 254T195 234T243 226Q268 226 289 230T326 245T351 278T360 333Z" />
<glyph unicode="h" glyph-name="h" horiz-adv-x="506" d="M80 0V700H165V463Q188 484 216 495T280 507Q323 507 352 497T398 465T423 410T431 330V0H346V340Q346 387 331 411T265 435Q244 435 226 427T194 406T173 379T165 350V0H80Z" />
<glyph unicode="i" glyph-name="i" horiz-adv-x="245" d="M75 610V700H170V610H75ZM80 0V500H165V0H80Z" />
<glyph unicode="j" glyph-name="j" horiz-adv-x="245" d="M165 -43Q165 -99 134 -137T41 -175Q17 -175 -4 -174T-46 -170V-99Q-30 -101 -7 -102T28 -103Q80 -103 80 -48V500H165V-43ZM75 610V700H170V610H75Z" />
<glyph unicode="k" glyph-name="k" horiz-adv-x="464" d="M330 0L195 249L165 214V0H80V700H165V320L318 500H422L253 307L429 0H330Z" />
<glyph unicode="l" glyph-name="l" horiz-adv-x="265" d="M225 5Q214 3 200 0T165 -3Q150 -3 135 2T108 20T88 55T80 112V700H165V117Q165 91 171 81T198 70Q206 70 213 72T225 75V5Z" />
<glyph unicode="m" glyph-name="m" horiz-adv-x="730" d="M80 0V500H150L157 456Q203 507 270 507Q317 507 345 490T389 444Q437 507 515 507Q592 507 623 465T655 330V0H570V340Q570 388 557 411T500 435Q480 435 464 427T435 406T417 379T410 350V0H325V340Q325
388 312 411T255 435Q235 435 219 427T190 406T172 379T165 350V0H80Z" />
<glyph unicode="n" glyph-name="n" horiz-adv-x="506" d="M80 0V500H150L157 455Q206 507 280 507Q323 507 352 497T398 465T423 410T431 330V0H346V340Q346 387 331 411T265 435Q244 435 226 427T194 406T173 379T165 350V0H80Z" />
<glyph unicode="o" glyph-name="o" horiz-adv-x="510" d="M445 260Q445 181 433 130T397 48T338 5T255 -7Q209 -7 174 5T114 47T78 129T65 260Q65 388 111 447T255 507Q353 507 399 448T445 260ZM358 245Q358 298 353 335T337 394T305 427T255 437Q225 437 205
427T174 395T157 335T152 245Q152 147 175 105T255 63Q312 63 335 105T358 245Z" />
<glyph unicode="p" glyph-name="p" horiz-adv-x="499" d="M80 -170V500H150L158 457Q206 507 276 507Q364 507 399 451T434 282Q434 200 423 145T387 56T322 8T221 -7Q204 -7 190 -6T165 -3V-170H80ZM260 435Q239 435 222 427T192 406T172 379T165 350V69Q176
67 192 66T231 65Q267 65 289 78T324 117T342 181T347 272Q347 320 343 351T328 401T301 427T260 435Z" />
<glyph unicode="q" glyph-name="q" horiz-adv-x="504" d="M339 -170V34Q317 14 290 4T228 -7Q180 -7 149 8T99 52T73 125T65 228Q65 376 116 441T283 507Q310 507 330 506T366 503T396 499T424 495V-170H339ZM244 65Q267 65 285 73T315 94T333 122T339 150V431Q328
433 312 434T273 435Q237 435 214 421T177 379T158 311T152 218Q152 173 157 144T174 97T202 72T244 65Z" />
<glyph unicode="r" glyph-name="r" horiz-adv-x="338" d="M80 0V500H150L156 449Q173 475 198 491T260 507Q278 507 291 506T313 502V413Q300 416 284 419T253 422Q228 422 212 412T185 386T170 349T165 308V0H80Z" />
<glyph unicode="s" glyph-name="s" horiz-adv-x="402" d="M352 145Q352 62 307 28T184 -7Q141 -7 111 -2T64 9V82Q73 80 87 78T119 73T154 68T191 66Q211 66 224 72T246 89T259 113T263 140Q263 176 251 193T200 217Q123 231 92 265T60 356Q60 397 73 425T108
472T161 498T228 507Q267 507 293 501T335 490V417Q309 423 285 429T220 435Q197 435 183 429T160 412T150 388T147 361Q147 306 211 296Q289 283 320 247T352 145Z" />
<glyph unicode="t" glyph-name="t" horiz-adv-x="321" d="M175 425V120Q175 113 177 104T184 86T199 71T225 65Q248 65 264 68T291 75V5Q281 2 257 -2T205 -7Q175 -7 153 3T117 31T97 73T90 125V425H25V500H90V620H175V500H291V425H175Z" />
<glyph unicode="u" glyph-name="u" horiz-adv-x="491" d="M341 0L334 41Q313 18 285 6T219 -7Q177 -7 150 4T106 37T82 94T75 174V500H160V164Q160 140 162 122T173 91T195 72T232 65Q253 65 270 73T299 93T318 119T326 147V500H411V0H341Z" />
<glyph unicode="v" glyph-name="v" horiz-adv-x="462" d="M293 0H170L35 500H126L234 71L339 500H427L293 0Z" />
<glyph unicode="w" glyph-name="w" horiz-adv-x="670" d="M531 0H400L337 271L268 0H140L40 500H128L209 64L298 410H383L466 64L547 500H630L531 0Z" />
<glyph unicode="x" glyph-name="x" horiz-adv-x="464" d="M329 0L234 185L134 0H40L185 258L52 500H150L236 335L323 500H416L281 262L429 0H329Z" />
<glyph unicode="y" glyph-name="y" horiz-adv-x="463" d="M283 -44Q275 -73 266 -97T244 -139T210 -165T159 -175Q143 -175 127 -173T102 -169V-96Q113 -98 126 -99T154 -100Q182 -100 194 -55L210 0H190L35 500H127L243 87L341 500H428L283 -44Z" />
<glyph unicode="z" glyph-name="z" horiz-adv-x="403" d="M137 74H343V0H45V80L262 426H65V500H353V411L137 74Z" />
<glyph unicode="{" glyph-name="braceleft" horiz-adv-x="325" d="M35 405Q49 405 63 408T89 421T108 449T116 499V698Q116 765 140 795T225 825Q235 825 248 824T270 820V752Q265 753 257 754T239 755Q216 755 205 746T194 713V469Q194 440 184 419T159 383T125
360T89 349Q106 347 124 340T158 318T184 282T194 231V-13Q194 -36 205 -45T239 -55Q249 -55 257 -54T270 -52V-120Q262 -122 249 -123T225 -125Q165 -125 141 -95T116 2V201Q116 232 109 250T90 279T64 292T35 295V405Z" />
<glyph unicode="|" glyph-name="bar" horiz-adv-x="290" d="M105 -110V810H185V-110H105Z" />
<glyph unicode="}" glyph-name="braceright" horiz-adv-x="325" d="M290 295Q276 295 262 292T236 279T217 251T209 201V2Q209 -65 185 -95T100 -125Q90 -125 77 -124T55 -120V-52Q60 -53 68 -54T86 -55Q109 -55 120 -46T131 -13V231Q131 260 141 281T166 317T200
339T236 349Q219 352 201 360T167 382T141 418T131 469V713Q131 736 120 745T86 755Q76 755 68 754T55 752V820Q63 822 76 823T100 825Q160 825 184 795T209 698V499Q209 468 216 450T235 421T261 408T290 405V295Z" />
<glyph unicode="~" glyph-name="asciitilde" horiz-adv-x="510" d="M85 344Q120 365 142 371T187 377Q207 377 225 371T260 358T295 344T332 338Q358 338 381 349T425 374V296Q402 281 377 272T323 263Q302 263 285 269T251 282T217 296T178 302Q152 302 129 291T85
266V344Z" />
<glyph unicode="&#xa0;" glyph-name="uni00A0" horiz-adv-x="260" />
<glyph unicode="&#xa1;" glyph-name="exclamdown" horiz-adv-x="250" d="M175 500V400H75V500H175ZM168 292V-200H83V292H168Z" />
<glyph unicode="&#xa2;" glyph-name="cent" horiz-adv-x="470" d="M237 -110V-6Q203 -3 177 10T134 54T108 133T99 259Q99 379 132 436T237 503V600H317V503Q335 501 352 498T383 491V417Q355 423 330 427T267 431Q245 431 230 422T205 391T191 332T186 239Q186
183 191 149T207 97T233 73T267 67Q308 67 334 72T383 82V8Q368 3 351 0T317 -5V-110H237Z" />
<glyph unicode="&#xa3;" glyph-name="sterling" horiz-adv-x="470" d="M223 413H351V340H223V73H421V0H66V73H136V340H66V413H136V469Q136 543 146 589T178 662T233 697T315 707Q332 707 359 705T411 698V623Q401 625 388 626T362 629T338 631T321 632Q291 632
272 627T242 606T227 558T223 476V413Z" />
<glyph unicode="&#xa4;" glyph-name="currency" horiz-adv-x="570" d="M421 106Q393 85 359 75T285 65Q203 65 147 106L88 47L32 103L95 166Q81 192 73 225T65 300Q65 341 73 374T95 433L32 497L88 553L147 494Q205 535 285 535Q365 535 421 494L481 553L537 497L474
433Q488 407 496 374T504 300Q504 259 496 226T474 166L537 103L481 47L421 106ZM417 300Q417 341 407 371T379 423T337 454T285 465Q257 465 233 455T190 423T162 372T152 300Q152 260 162 229T190 177T232 146T285 135Q313 135 337 145T379 177T407 229T417 300Z"
/>
<glyph unicode="&#xa5;" glyph-name="yen" horiz-adv-x="470" d="M279 115V0H189V115H59V190H189V265H59V340H186L20 700H116L238 427L359 700H450L281 340H409V265H279V190H409V115H279Z" />
<glyph unicode="&#xa6;" glyph-name="brokenbar" horiz-adv-x="290" d="M105 -110V250H185V-110H105ZM105 450V810H185V450H105Z" />
<glyph unicode="&#xa7;" glyph-name="section" horiz-adv-x="470" d="M83 347Q83 388 100 415T145 459Q123 474 112 501T101 560Q101 601 114 629T149 674T202 699T269 707Q308 707 334 702T376 693V619Q350 626 326 631T261 636Q239 636 225 629T201 612T188
589T184 565Q184 504 248 494Q326 481 356 444T387 353Q387 310 369 284T322 240Q347 224 358 196T369 139Q369 99 356 72T321 27T268 1T201 -7Q162 -7 136 -2T94 8V80Q120 74 144 70T209 65Q231 65 245 72T269 89T282 112T286 134Q286 163 271 182T222 206Q144
219 114 257T83 347ZM301 348Q301 365 298 378T286 402T260 420T215 433Q196 426 183 403T169 352Q169 335 171 322T182 298T207 280T251 268Q259 272 267 280T283 298T296 322T301 348Z" />
<glyph unicode="&#xa8;" glyph-name="dieresis" horiz-adv-x="355" d="M235 595V675H320V595H235ZM35 595V675H120V595H35Z" />
<glyph unicode="&#xa9;" glyph-name="copyright" horiz-adv-x="800" d="M471 163Q462 161 443 158T410 155Q380 155 358 163T322 194T300 255T292 356Q292 417 300 454T324 511T363 538T416 545Q422 545 430 544T446 542T461 540T471 537V489Q457 492 440 493T408
495Q393 495 382 492T364 474T353 431T349 352Q349 300 353 271T364 227T383 209T409 205Q426 205 443 207T471 211V163ZM715 350Q715 267 699 201T646 88T550 18T405 -7Q320 -7 259 17T160 87T103 199T85 350Q85 433 103 499T159 611T258 682T405 707Q491 707
550 682T646 611T699 499T715 350ZM638 350Q638 416 629 469T593 560T522 618T405 639Q334 639 287 619T213 562T174 471T162 350Q162 284 173 231T212 140T287 82T405 61Q476 61 521 81T593 139T628 230T638 350Z" />
<glyph unicode="&#xaa;" glyph-name="ordfeminine" horiz-adv-x="395" d="M327 326Q317 326 298 332T268 359Q240 323 172 323Q151 323 131 327T96 343T70 376T60 432Q60 493 95 526T194 560H247V598Q247 618 236 632T197 646Q165 646 141 643T88 631V690Q109
697 135 701T189 705Q226 705 250 698T290 676T311 638T317 583V399Q317 388 324 382T350 375V326H327ZM67 0V75H318V0H67ZM187 383Q207 383 218 389T236 403T245 419T247 434V504H190Q166 504 149 489T131 437Q131 408 144 396T187 383Z" />
<glyph unicode="&#xab;" glyph-name="guillemotleft" horiz-adv-x="465" d="M164 92L75 299L164 506H230L167 299L230 92H164ZM324 92L235 299L324 506H390L327 299L390 92H324Z" />
<glyph unicode="&#xac;" glyph-name="logicalnot" horiz-adv-x="575" d="M420 106V275H70V350H505V106H420Z" />
<glyph unicode="&#xad;" glyph-name="uni00AD" horiz-adv-x="495" d="M85 275V350H410V275H85Z" />
<glyph unicode="&#xae;" glyph-name="registered" horiz-adv-x="800" d="M715 350Q715 267 699 201T646 88T550 18T405 -7Q320 -7 259 17T160 87T103 199T85 350Q85 433 103 499T159 611T258 682T405 707Q491 707 550 682T646 611T699 499T715 350ZM638 350Q638
416 629 469T593 560T522 618T405 639Q334 639 287 619T213 562T174 471T162 350Q162 284 173 231T212 140T287 82T405 61Q476 61 521 81T593 139T628 230T638 350ZM510 435Q510 393 497 365T455 324L530 159H469L402 316H364V159H310V544Q323 545 338 546Q351
547 367 547T400 547Q463 547 486 517T510 435ZM455 431Q455 471 446 486T407 501Q396 501 388 501T374 500Q368 499 364 499V364H407Q418 364 427 366T442 375T451 395T455 431Z" />
<glyph unicode="&#xaf;" glyph-name="overscore" horiz-adv-x="325" d="M35 605V675H290V605H35Z" />
<glyph unicode="&#xb0;" glyph-name="degree" horiz-adv-x="363" d="M259 552Q259 569 256 585T243 614T219 635T181 643Q158 643 143 635T119 615T107 586T103 552Q103 535 106 518T119 487T143 465T181 456Q204 456 219 464T243 487T255 518T259 552ZM333 551Q333
518 325 490T298 439T251 405T181 392Q140 392 112 405T65 439T39 490T30 551Q30 583 38 611T65 660T111 693T181 705Q222 705 251 693T298 661T324 612T333 551Z" />
<glyph unicode="&#xb1;" glyph-name="plusminus" horiz-adv-x="550" d="M315 275V143H235V275H85V350H235V508H315V350H465V275H315ZM85 0V75H465V0H85Z" />
<glyph unicode="&#xb2;" glyph-name="twosuperior" horiz-adv-x="410" d="M66 205V276L178 433Q195 459 205 476T221 509T229 541T231 579Q231 608 219 624T171 641Q147 641 122 638T79 630V694Q86 695 113 700T171 705Q305 705 305 572Q305 548 303 530T293 494T275
456T246 410L148 270H312V205H66Z" />
<glyph unicode="&#xb3;" glyph-name="threesuperior" horiz-adv-x="410" d="M312 351Q312 267 277 234T179 200Q165 200 149 201T119 205T94 208T80 211V275Q94 272 121 268T174 263Q203 263 220 283T237 343Q237 391 225 414T172 438H115V501H165Q188 501 201
509T220 529T227 554T229 579Q229 618 215 630T172 642Q147 642 124 638T84 630V694Q87 695 96 696T118 700T146 703T175 705Q204 705 227 700T268 679T294 639T303 572Q303 537 289 510T245 472Q277 465 294 435T312 351Z" />
<glyph unicode="&#xb4;" glyph-name="acute" horiz-adv-x="303" d="M45 580L149 715H258L126 580H45Z" />
<glyph unicode="&#xb5;" glyph-name="mu" horiz-adv-x="496" d="M80 -170V500H165V150Q166 109 180 87T237 65Q258 65 275 73T304 93T323 119T331 147V500H416V0H346L339 41Q318 18 290 6T224 -7Q192 -7 165 4V-170H80Z" />
<glyph unicode="&#xb6;" glyph-name="paragraph" horiz-adv-x="510" d="M360 0V700H440V0H360ZM305 0H222V374H198Q171 374 146 380T100 405T68 457T55 543Q55 588 68 619T102 670T150 698T205 707Q248 707 275 704Q291 702 305 700V633Q285 637 267 638T234 640Q178
640 155 618T131 541Q131 495 145 469T203 442H305V0Z" />
<glyph unicode="&#xb7;" glyph-name="middot" horiz-adv-x="230" d="M65 260V360H165V260H65Z" />
<glyph unicode="&#xb8;" glyph-name="cedilla" horiz-adv-x="302" d="M66 -131Q80 -134 94 -135T120 -137Q140 -137 150 -131T161 -106Q161 -99 158 -93T145 -84T121 -78T80 -76L100 50H165L154 -27Q199 -32 218 -51T237 -109Q237 -157 208 -178T129 -200Q111
-200 97 -198T66 -193V-131Z" />
<glyph unicode="&#xb9;" glyph-name="onesuperior" horiz-adv-x="410" d="M94 205V271H182V630L86 591V662L174 700H257V271H329V205H94Z" />
<glyph unicode="&#xba;" glyph-name="ordmasculine" horiz-adv-x="416" d="M279 508Q279 541 277 567T267 611T245 639T208 649Q185 649 171 640T150 612T140 567T137 508Q137 475 139 451T149 411T171 387T208 379Q231 379 245 387T266 410T276 450T279 508ZM351
522Q351 463 342 424T314 362T270 330T208 321Q173 321 147 330T102 362T75 424T65 522Q65 618 99 662T208 707Q282 707 316 663T351 522ZM68 0V75H344V0H68Z" />
<glyph unicode="&#xbb;" glyph-name="guillemotright" horiz-adv-x="465" d="M235 92L298 299L235 506H301L390 299L301 92H235ZM75 92L138 299L75 506H141L230 299L141 92H75Z" />
<glyph unicode="&#xbc;" glyph-name="onequarter" horiz-adv-x="875" d="M84 205V271H172V630L76 591V662L164 700H247V271H319V205H84ZM745 117V0H671V117H524V191L598 495H667L594 181H671L678 324H745V181H795V117H745ZM326 -100H246L566 810H646L326 -100Z" />
<glyph unicode="&#xbd;" glyph-name="onehalf" horiz-adv-x="875" d="M84 205V271H172V630L76 591V662L164 700H247V271H319V205H84ZM568 0V71L680 228Q697 254 707 271T723 304T731 336T733 374Q733 403 721 419T673 436Q649 436 624 433T581 425V489Q588 490
615 495T673 500Q807 500 807 367Q807 343 805 325T795 289T777 251T748 205L650 65H814V0H568ZM331 -100H251L568 810H651L331 -100Z" />
<glyph unicode="&#xbe;" glyph-name="threequarters" horiz-adv-x="875" d="M319 351Q319 267 284 234T186 200Q172 200 156 201T126 205T101 208T87 211V275Q101 272 128 268T181 263Q210 263 227 283T244 343Q244 391 232 414T179 438H122V501H172Q195 501 208
509T227 529T234 554T236 579Q236 618 222 630T179 642Q154 642 131 638T91 630V694Q94 695 103 696T125 700T153 703T182 705Q211 705 234 700T275 679T301 639T310 572Q310 537 296 510T252 472Q284 465 301 435T319 351ZM738 117V0H664V117H517V191L591 495H660L587
181H664L671 324H738V181H788V117H738ZM315 -100H235L555 810H635L315 -100Z" />
<glyph unicode="&#xbf;" glyph-name="questiondown" horiz-adv-x="360" d="M256 500V400H156V500H256ZM35 -40Q35 -11 37 8T47 45T70 82T110 132L164 196V292H249V171L189 100Q165 71 151 54T130 21T122 -9T120 -49Q120 -98 142 -116T203 -134Q234 -134 268 -129T325
-118V-191Q315 -193 302 -196T273 -201T243 -205T213 -207Q172 -207 139 -201T83 -176T48 -126T35 -40Z" />
<glyph unicode="&#xc0;" glyph-name="Agrave" horiz-adv-x="500" d="M254 726L122 841H233L337 726H254ZM250 634L169 252H332L250 634ZM386 0L348 177H153L114 0H25L194 700H309L475 0H386Z" />
<glyph unicode="&#xc1;" glyph-name="Aacute" horiz-adv-x="500" d="M161 726L265 841H376L244 726H161ZM250 634L161 252H332L250 634ZM386 0L348 177H153L114 0H25L194 700H309L475 0H386Z" />
<glyph unicode="&#xc2;" glyph-name="Acircumflex" horiz-adv-x="500" d="M309 730L249 794L189 730H93L203 845H295L406 730H309ZM250 634L169 252H332L250 634ZM386 0L348 177H153L114 0H25L194 700H309L475 0H386Z" />
<glyph unicode="&#xc3;" glyph-name="Atilde" horiz-adv-x="500" d="M250 634L169 252H332L250 634ZM386 0L348 177H153L114 0H25L194 700H309L475 0H386ZM122 807Q145 826 166 833T208 840Q226 840 240 834T268 821T294 807T322 801Q348 801 365 810T402 837V764Q382
745 362 738T316 731Q297 731 283 737T257 750T231 764T202 770Q176 770 157 759T122 734V807Z" />
<glyph unicode="&#xc4;" glyph-name="Adieresis" horiz-adv-x="500" d="M250 634L169 252H332L250 634ZM386 0L348 177H153L114 0H25L194 700H309L475 0H386ZM307 735V815H386L392 735H307ZM107 735V815H192V735H107Z" />
<glyph unicode="&#xc5;" glyph-name="Aring" horiz-adv-x="500" d="M346 753Q346 729 338 709T315 675L475 0H386L348 177H153L114 0H25L188 674Q172 688 164 708T156 753Q156 797 181 826T250 855Q295 855 320 827T346 753ZM250 634L169 252H332L250 634ZM288
754Q288 774 281 788T250 803Q228 803 221 788T213 754Q213 737 220 721T250 705Q275 705 281 720T288 754Z" />
<glyph unicode="&#xc6;" glyph-name="AE" horiz-adv-x="748" d="M390 0L370 177H171L114 0H25L264 700H668V627H401L428 398H663V325H437L467 73H688V0H390ZM195 252H361L320 627L195 252Z" />
<glyph unicode="&#xc7;" glyph-name="Ccedilla" horiz-adv-x="423" d="M180 -131Q194 -134 208 -135T234 -137Q254 -137 264 -131T275 -106Q275 -99 272 -93T259 -84T235 -78T194 -76L206 -1Q169 7 143 29T99 93T73 201T65 361Q65 472 78 539T117 644T184 694T279
707Q303 707 330 703T378 693V619Q353 625 322 628T261 632Q234 632 214 623T180 584T161 500T154 354Q154 260 161 204T181 117T215 78T262 68Q293 68 326 73T378 83V10Q370 8 357 5T329 0T299 -5T271 -7L268 -27Q313 -32 332 -51T351 -109Q351 -157 322 -178T243
-200Q225 -200 211 -198T180 -193V-131Z" />
<glyph unicode="&#xc8;" glyph-name="Egrave" horiz-adv-x="473" d="M244 726L112 841H223L327 726H244ZM85 0V700H413V627H172V398H388V325H172V73H413V0H85Z" />
<glyph unicode="&#xc9;" glyph-name="Eacute" horiz-adv-x="473" d="M182 726L286 841H397L265 726H182ZM85 0V700H413V627H172V398H388V325H172V73H413V0H85Z" />
<glyph unicode="&#xca;" glyph-name="Ecircumflex" horiz-adv-x="473" d="M309 730L249 794L189 730H93L203 845H295L406 730H309ZM85 0V700H413V627H172V398H388V325H172V73H413V0H85Z" />
<glyph unicode="&#xcb;" glyph-name="Edieresis" horiz-adv-x="473" d="M85 0V700H413V627H172V398H388V325H172V73H413V0H85ZM308 735V815H393V735H308ZM108 735V815H193V735H108Z" />
<glyph unicode="&#xcc;" glyph-name="Igrave" horiz-adv-x="317" d="M170 726L38 841H149L253 726H170ZM45 0V73H115V627H45V700H272V627H202V73H272V0H45Z" />
<glyph unicode="&#xcd;" glyph-name="Iacute" horiz-adv-x="317" d="M61 726L165 841H276L144 726H61ZM45 0V73H115V627H45V700H272V627H202V73H272V0H45Z" />
<glyph unicode="&#xce;" glyph-name="Icircumflex" horiz-adv-x="317" d="M218 730L158 794L98 730H2L112 845H204L315 730H218ZM45 0V73H115V627H45V700H272V627H202V73H272V0H45Z" />
<glyph unicode="&#xcf;" glyph-name="Idieresis" horiz-adv-x="317" d="M45 0V73H115V627H45V700H272V627H202V73H272V0H45ZM216 735V815H301V735H216ZM16 735V815H101V735H16Z" />
<glyph unicode="&#xd0;" glyph-name="Eth" horiz-adv-x="536" d="M471 361Q471 249 459 178T421 65T357 9T269 -7Q240 -7 210 -7T153 -4Q123 -2 95 0V325H25V400H95V700Q122 702 150 704Q174 706 202 706T257 707Q310 707 350 695T417 645T457 540T471 361ZM382
354Q382 444 375 499T353 584T321 624T279 634Q265 634 249 634T217 632Q199 631 182 630V400H295V325H182V70Q197 69 214 68Q228 67 245 67T278 66Q301 66 320 80T353 127T374 216T382 354Z" />
<glyph unicode="&#xd1;" glyph-name="Ntilde" horiz-adv-x="547" d="M319 0L166 626V0H85V700H227L381 74V700H462V0H319ZM132 807Q155 826 176 833T218 840Q236 840 250 834T278 821T304 807T332 801Q358 801 375 810T412 837V764Q392 745 372 738T326 731Q307
731 293 737T267 750T241 764T212 770Q186 770 167 759T132 734V807Z" />
<glyph unicode="&#xd2;" glyph-name="Ograve" horiz-adv-x="548" d="M263 726L131 841H242L346 726H263ZM394 353Q394 436 388 490T368 576T331 621T274 634Q240 634 217 621T180 576T160 490T154 353Q154 272 160 218T180 129T217 81T274 66Q308 66 331 80T368
129T388 217T394 353ZM483 358Q483 266 474 198T441 84T377 16T274 -7Q212 -7 172 15T108 83T75 197T65 358Q65 446 74 511T107 620T171 685T274 707Q336 707 376 686T440 621T473 512T483 358Z" />
<glyph unicode="&#xd3;" glyph-name="Oacute" horiz-adv-x="548" d="M206 726L310 841H421L289 726H206ZM394 353Q394 436 388 490T368 576T331 621T274 634Q240 634 217 621T180 576T160 490T154 353Q154 272 160 218T180 129T217 81T274 66Q308 66 331 80T368
129T388 217T394 353ZM483 358Q483 266 474 198T441 84T377 16T274 -7Q212 -7 172 15T108 83T75 197T65 358Q65 446 74 511T107 620T171 685T274 707Q336 707 376 686T440 621T473 512T483 358Z" />
<glyph unicode="&#xd4;" glyph-name="Ocircumflex" horiz-adv-x="548" d="M334 730L274 794L214 730H118L228 845H320L431 730H334ZM394 353Q394 436 388 490T368 576T331 621T274 634Q240 634 217 621T180 576T160 490T154 353Q154 272 160 218T180 129T217 81T274
66Q308 66 331 80T368 129T388 217T394 353ZM483 358Q483 266 474 198T441 84T377 16T274 -7Q212 -7 172 15T108 83T75 197T65 358Q65 446 74 511T107 620T171 685T274 707Q336 707 376 686T440 621T473 512T483 358Z" />
<glyph unicode="&#xd5;" glyph-name="Otilde" horiz-adv-x="548" d="M394 353Q394 436 388 490T368 576T331 621T274 634Q240 634 217 621T180 576T160 490T154 353Q154 272 160 218T180 129T217 81T274 66Q308 66 331 80T368 129T388 217T394 353ZM483 358Q483
266 474 198T441 84T377 16T274 -7Q212 -7 172 15T108 83T75 197T65 358Q65 446 74 511T107 620T171 685T274 707Q336 707 376 686T440 621T473 512T483 358ZM138 807Q161 826 182 833T224 840Q242 840 256 834T284 821T310 807T338 801Q364 801 381 810T418 837V764Q398
745 378 738T332 731Q313 731 299 737T273 750T247 764T218 770Q192 770 173 759T138 734V807Z" />
<glyph unicode="&#xd6;" glyph-name="Odieresis" horiz-adv-x="548" d="M332 735V815H417V735H332ZM132 735V815H217V735H132ZM394 353Q394 436 388 490T368 576T331 621T274 634Q240 634 217 621T180 576T160 490T154 353Q154 272 160 218T180 129T217 81T274
66Q308 66 331 80T368 129T388 217T394 353ZM483 358Q483 266 474 198T441 84T377 16T274 -7Q212 -7 172 15T108 83T75 197T65 358Q65 446 74 511T107 620T171 685T274 707Q336 707 376 686T440 621T473 512T483 358Z" />
<glyph unicode="&#xd7;" glyph-name="multiply" horiz-adv-x="550" d="M275 253L158 137L102 193L218 310L102 427L158 483L275 367L392 483L448 427L332 310L448 193L392 137L275 253Z" />
<glyph unicode="&#xd8;" glyph-name="Oslash" horiz-adv-x="548" d="M483 358Q483 266 474 198T441 84T377 16T274 -7Q255 -7 239 -5T208 0L181 -91H105L143 36Q98 78 82 157T65 358Q65 446 74 511T107 620T171 685T274 707Q293 707 309 706T341 699L369 791H445L407
664Q450 624 466 549T483 358ZM154 353Q154 280 159 229T175 143L319 626Q298 634 274 634Q240 634 217 621T180 576T160 490T154 353ZM394 353Q394 493 375 556L230 73Q248 66 274 66Q308 66 331 80T368 129T388 217T394 353Z" />
<glyph unicode="&#xd9;" glyph-name="Ugrave" horiz-adv-x="535" d="M253 726L121 841H232L336 726H253ZM455 185Q455 84 405 39T268 -7Q182 -7 131 38T80 185V700H167V166Q167 113 195 90T268 66Q313 66 340 89T368 166V700H455V185Z" />
<glyph unicode="&#xda;" glyph-name="Uacute" horiz-adv-x="535" d="M206 726L310 841H421L289 726H206ZM455 185Q455 84 405 39T268 -7Q182 -7 131 38T80 185V700H167V166Q167 113 195 90T268 66Q313 66 340 89T368 166V700H455V185Z" />
<glyph unicode="&#xdb;" glyph-name="Ucircumflex" horiz-adv-x="535" d="M329 730L269 794L209 730H113L223 845H315L426 730H329ZM455 185Q455 84 405 39T268 -7Q182 -7 131 38T80 185V700H167V166Q167 113 195 90T268 66Q313 66 340 89T368 166V700H455V185Z" />
<glyph unicode="&#xdc;" glyph-name="Udieresis" horiz-adv-x="535" d="M327 735V815H412V735H327ZM127 735V815H212V735H127ZM455 185Q455 84 405 39T268 -7Q182 -7 131 38T80 185V700H167V166Q167 113 195 90T268 66Q313 66 340 89T368 166V700H455V185Z" />
<glyph unicode="&#xdd;" glyph-name="Yacute" horiz-adv-x="491" d="M186 726L290 841H401L269 726H186ZM289 325V0H199V325L20 700H116L248 409L380 700H471L289 325Z" />
<glyph unicode="&#xde;" glyph-name="Thorn" horiz-adv-x="510" d="M450 362Q450 305 440 264T406 195T346 154T256 141H172V0H85V700H172V570Q191 571 211 572T254 574Q311 574 349 558T409 514T441 447T450 362ZM361 355Q361 430 341 466T266 502Q224 502 198
499Q183 497 172 496V214H266Q287 214 304 220T334 243T354 287T361 355Z" />
<glyph unicode="&#xdf;" glyph-name="germandbls" horiz-adv-x="519" d="M459 156Q459 66 415 30T290 -7Q285 -7 276 -7T257 -5T236 -2T218 2V76Q235 71 255 68T293 65Q334 65 352 91T370 151Q370 171 367 186T354 214T331 236T295 256Q252 276 233 302T214 377Q214
429 246 458T332 496Q337 510 339 526T341 562Q341 589 320 612T249 635Q211 635 188 612T165 540V0H80V533Q80 617 126 662T251 707Q293 707 323 696T374 664T405 617T415 557Q415 539 414 525T411 496T406 467T399 433Q339 433 317 417T294 372Q294 358 301 346T328
326Q353 316 376 302T418 268T448 221T459 156Z" />
<glyph unicode="&#xe0;" glyph-name="agrave" horiz-adv-x="481" d="M406 0Q399 0 389 2T367 9T347 24T331 49Q312 22 281 8T199 -7Q172 -7 145 -2T97 20T63 66T50 141Q50 222 97 265T228 308H307V362Q307 394 289 414T232 435Q189 435 157 430T87 414V487Q115
495 150 501T222 507Q271 507 303 498T355 468T383 416T392 342V102Q392 87 402 79T436 70V0H406ZM219 65Q245 65 262 73T289 92T303 116T307 135V240H223Q207 240 192 235T164 219T145 190T137 147Q137 100 158 83T219 65ZM240 580L108 715H217L321 580H240Z"
/>
<glyph unicode="&#xe1;" glyph-name="aacute" horiz-adv-x="481" d="M406 0Q399 0 389 2T367 9T347 24T331 49Q312 22 281 8T199 -7Q172 -7 145 -2T97 20T63 66T50 141Q50 222 97 265T228 308H307V362Q307 394 289 414T232 435Q189 435 157 430T87 414V487Q115
495 150 501T222 507Q271 507 303 498T355 468T383 416T392 342V102Q392 87 402 79T436 70V0H406ZM219 65Q245 65 262 73T289 92T303 116T307 135V240H223Q207 240 192 235T164 219T145 190T137 147Q137 100 158 83T219 65ZM182 580L286 715H395L263 580H182Z"
/>
<glyph unicode="&#xe2;" glyph-name="acircumflex" horiz-adv-x="481" d="M406 0Q399 0 389 2T367 9T347 24T331 49Q312 22 281 8T199 -7Q172 -7 145 -2T97 20T63 66T50 141Q50 222 97 265T228 308H307V362Q307 394 289 414T232 435Q189 435 157 430T87 414V487Q115
495 150 501T222 507Q271 507 303 498T355 468T383 416T392 342V102Q392 87 402 79T436 70V0H406ZM219 65Q245 65 262 73T289 92T303 116T307 135V240H223Q207 240 192 235T164 219T145 190T137 147Q137 100 158 83T219 65ZM305 580L245 664L185 580H89L201 715H289L402
580H305Z" />
<glyph unicode="&#xe3;" glyph-name="atilde" horiz-adv-x="481" d="M406 0Q399 0 389 2T367 9T347 24T331 49Q312 22 281 8T199 -7Q172 -7 145 -2T97 20T63 66T50 141Q50 222 97 265T228 308H307V362Q307 394 289 414T232 435Q189 435 157 430T87 414V487Q115
495 150 501T222 507Q271 507 303 498T355 468T383 416T392 342V102Q392 87 402 79T436 70V0H406ZM219 65Q245 65 262 73T289 92T303 116T307 135V240H223Q207 240 192 235T164 219T145 190T137 147Q137 100 158 83T219 65ZM101 667Q124 686 145 693T187 700Q205
700 219 694T247 681T273 667T301 661Q327 661 344 670T381 697V624Q361 605 341 598T295 591Q276 591 262 597T236 610T210 624T181 630Q155 630 136 619T101 594V667Z" />
<glyph unicode="&#xe4;" glyph-name="adieresis" horiz-adv-x="481" d="M406 0Q399 0 389 2T367 9T347 24T331 49Q312 22 281 8T199 -7Q172 -7 145 -2T97 20T63 66T50 141Q50 222 97 265T228 308H307V362Q307 394 289 414T232 435Q189 435 157 430T87 414V487Q115
495 150 501T222 507Q271 507 303 498T355 468T383 416T392 342V102Q392 87 402 79T436 70V0H406ZM219 65Q245 65 262 73T289 92T303 116T307 135V240H223Q207 240 192 235T164 219T145 190T137 147Q137 100 158 83T219 65ZM297 595V675H382V595H297ZM97 595V675H182V595H97Z"
/>
<glyph unicode="&#xe5;" glyph-name="aring" horiz-adv-x="481" d="M267 646Q267 666 260 680T229 695Q207 695 200 680T192 646Q192 629 199 613T229 597Q254 597 260 612T267 646ZM325 645Q325 601 299 572T229 543Q185 543 160 572T135 645Q135 689 160 718T229
747Q274 747 299 719T325 645ZM406 0Q399 0 389 2T367 9T347 24T331 49Q312 22 281 8T199 -7Q172 -7 145 -2T97 20T63 66T50 141Q50 222 97 265T228 308H307V362Q307 394 289 414T232 435Q189 435 157 430T87 414V487Q115 495 150 501T222 507Q271 507 303 498T355
468T383 416T392 342V102Q392 87 402 79T436 70V0H406ZM219 65Q245 65 262 73T289 92T303 116T307 135V240H223Q207 240 192 235T164 219T145 190T137 147Q137 100 158 83T219 65Z" />
<glyph unicode="&#xe6;" glyph-name="ae" horiz-adv-x="710" d="M389 230Q389 177 396 145T414 95T442 71T477 65Q519 65 554 71T611 83V10Q587 3 551 -2T487 -7Q435 -7 398 7T339 65Q321 31 289 12T199 -7Q172 -7 145 -2T97 20T63 66T50 141Q50 219 97 258T228
298H307V362Q307 392 289 413T232 435Q189 435 157 429T87 412V485Q115 493 150 500T222 507Q276 507 310 494T361 454Q406 507 489 507Q575 507 612 451T650 295V230H389ZM219 65Q243 65 259 72T286 90T301 112T307 132V230H223Q207 230 192 226T164 212T145 187T137
147Q137 100 158 83T219 65ZM487 436Q464 436 447 430T418 407T400 365T391 298H567V315Q567 372 550 404T487 436Z" />
<glyph unicode="&#xe7;" glyph-name="ccedilla" horiz-adv-x="404" d="M164 -131Q178 -134 192 -135T218 -137Q238 -137 248 -131T259 -106Q259 -99 256 -93T243 -84T219 -78T178 -76L189 -3Q158 2 135 16T97 61T73 139T65 260Q65 327 75 374T107 450T161 493T239
507Q264 507 295 502T349 492V418Q321 424 296 428T233 432Q211 432 196 423T171 392T157 333T152 240Q152 184 157 150T173 98T199 74T233 68Q274 68 300 73T349 83V9Q328 3 304 -1T255 -7L252 -27Q297 -32 316 -51T335 -109Q335 -157 306 -178T227 -200Q209 -200
195 -198T164 -193V-131Z" />
<glyph unicode="&#xe8;" glyph-name="egrave" horiz-adv-x="468" d="M150 220Q151 171 157 141T175 93T201 71T235 65Q277 65 311 70T369 81V9Q345 2 309 -2T245 -7Q202 -7 169 2T112 38T77 115T65 250Q65 319 76 368T111 448T168 493T247 507Q333 507 370 451T408
295V220H150ZM245 436Q221 436 204 429T176 405T159 360T151 288H325V315Q325 372 308 404T245 436ZM238 580L106 715H215L319 580H238Z" />
<glyph unicode="&#xe9;" glyph-name="eacute" horiz-adv-x="468" d="M150 220Q151 171 157 141T175 93T201 71T235 65Q277 65 311 70T369 81V9Q345 2 309 -2T245 -7Q202 -7 169 2T112 38T77 115T65 250Q65 319 76 368T111 448T168 493T247 507Q333 507 370 451T408
295V220H150ZM245 436Q221 436 204 429T176 405T159 360T151 288H325V315Q325 372 308 404T245 436ZM182 580L286 715H395L263 580H182Z" />
<glyph unicode="&#xea;" glyph-name="ecircumflex" horiz-adv-x="468" d="M150 220Q151 171 157 141T175 93T201 71T235 65Q277 65 311 70T369 81V9Q345 2 309 -2T245 -7Q202 -7 169 2T112 38T77 115T65 250Q65 319 76 368T111 448T168 493T247 507Q333 507 370
451T408 295V220H150ZM245 436Q221 436 204 429T176 405T159 360T151 288H325V315Q325 372 308 404T245 436ZM307 580L247 664L187 580H91L203 715H291L404 580H307Z" />
<glyph unicode="&#xeb;" glyph-name="edieresis" horiz-adv-x="468" d="M150 220Q151 171 157 141T175 93T201 71T235 65Q277 65 311 70T369 81V9Q345 2 309 -2T245 -7Q202 -7 169 2T112 38T77 115T65 250Q65 319 76 368T111 448T168 493T247 507Q333 507 370
451T408 295V220H150ZM245 436Q221 436 204 429T176 405T159 360T151 288H325V315Q325 372 308 404T245 436ZM307 595V675H392V595H307ZM107 595V675H192V595H107Z" />
<glyph unicode="&#xec;" glyph-name="igrave" horiz-adv-x="245" d="M80 0V500H165V0H80ZM108 580L-24 715H80L189 580H108Z" />
<glyph unicode="&#xed;" glyph-name="iacute" horiz-adv-x="245" d="M80 0V500H165V0H80ZM55 580L159 715H268L136 580H55Z" />
<glyph unicode="&#xee;" glyph-name="icircumflex" horiz-adv-x="245" d="M80 0V500H165V0H80ZM182 580L122 664L62 580H-34L78 715H166L279 580H182Z" />
<glyph unicode="&#xef;" glyph-name="idieresis" horiz-adv-x="245" d="M80 0V500H165V0H80ZM180 595V675H265V595H180ZM-20 595V675H65V595H-20Z" />
<glyph unicode="&#xf0;" glyph-name="eth" horiz-adv-x="503" d="M239 556H157L201 632Q182 634 161 634T114 637V707Q149 705 180 704T239 697L270 750H352L310 678Q339 666 361 645T398 589T420 506T428 389Q428 265 419 188T389 68T333 9T246 -7Q209 -7 177
4T121 42T84 112T70 220Q70 274 75 319T98 396T148 446T232 464Q269 464 296 454T341 433Q337 515 321 556T272 614L239 556ZM239 392Q212 392 196 380T170 344T158 287T155 211Q155 140 174 103T252 65Q275 65 291 75T319 116T337 207T343 364Q332 369 305 380T239
392Z" />
<glyph unicode="&#xf1;" glyph-name="ntilde" horiz-adv-x="506" d="M80 0V500H150L157 455Q206 507 280 507Q323 507 352 497T398 465T423 410T431 330V0H346V340Q346 387 331 411T265 435Q244 435 226 427T194 406T173 379T165 350V0H80ZM134 667Q157 686 178
693T220 700Q238 700 252 694T280 681T306 667T334 661Q360 661 377 670T414 697V624Q394 605 374 598T328 591Q309 591 295 597T269 610T243 624T214 630Q188 630 169 619T134 594V667Z" />
<glyph unicode="&#xf2;" glyph-name="ograve" horiz-adv-x="510" d="M445 260Q445 181 433 130T397 48T338 5T255 -7Q209 -7 174 5T114 47T78 129T65 260Q65 388 111 447T255 507Q353 507 399 448T445 260ZM358 245Q358 298 353 335T337 394T305 427T255 437Q225
437 205 427T174 395T157 335T152 245Q152 147 175 105T255 63Q312 63 335 105T358 245ZM253 580L121 715H230L334 580H253Z" />
<glyph unicode="&#xf3;" glyph-name="oacute" horiz-adv-x="510" d="M445 260Q445 181 433 130T397 48T338 5T255 -7Q209 -7 174 5T114 47T78 129T65 260Q65 388 111 447T255 507Q353 507 399 448T445 260ZM358 245Q358 298 353 335T337 394T305 427T255 437Q225
437 205 427T174 395T157 335T152 245Q152 147 175 105T255 63Q312 63 335 105T358 245ZM187 580L291 715H400L268 580H187Z" />
<glyph unicode="&#xf4;" glyph-name="ocircumflex" horiz-adv-x="510" d="M445 260Q445 181 433 130T397 48T338 5T255 -7Q209 -7 174 5T114 47T78 129T65 260Q65 388 111 447T255 507Q353 507 399 448T445 260ZM358 245Q358 298 353 335T337 394T305 427T255
437Q225 437 205 427T174 395T157 335T152 245Q152 147 175 105T255 63Q312 63 335 105T358 245ZM315 580L255 664L195 580H99L211 715H299L412 580H315Z" />
<glyph unicode="&#xf5;" glyph-name="otilde" horiz-adv-x="510" d="M445 260Q445 181 433 130T397 48T338 5T255 -7Q209 -7 174 5T114 47T78 129T65 260Q65 388 111 447T255 507Q353 507 399 448T445 260ZM358 245Q358 298 353 335T337 394T305 427T255 437Q225
437 205 427T174 395T157 335T152 245Q152 147 175 105T255 63Q312 63 335 105T358 245ZM120 667Q143 686 164 693T206 700Q224 700 238 694T266 681T292 667T320 661Q346 661 363 670T400 697V624Q380 605 360 598T314 591Q295 591 281 597T255 610T229 624T200
630Q174 630 155 619T120 594V667Z" />
<glyph unicode="&#xf6;" glyph-name="odieresis" horiz-adv-x="510" d="M445 260Q445 181 433 130T397 48T338 5T255 -7Q209 -7 174 5T114 47T78 129T65 260Q65 388 111 447T255 507Q353 507 399 448T445 260ZM358 245Q358 298 353 335T337 394T305 427T255 437Q225
437 205 427T174 395T157 335T152 245Q152 147 175 105T255 63Q312 63 335 105T358 245ZM313 595V675H398V595H313ZM113 595V675H198V595H113Z" />
<glyph unicode="&#xf7;" glyph-name="divide" horiz-adv-x="550" d="M85 275V350H465V275H85ZM225 65V165H325V65H225ZM225 460V560H325V460H225Z" />
<glyph unicode="&#xf8;" glyph-name="oslash" horiz-adv-x="510" d="M445 260Q445 181 433 130T397 48T338 5T255 -7Q231 -7 210 -4L182 -89H104L141 22Q104 48 85 104T65 260Q65 388 111 447T255 507Q267 507 278 506T301 503L330 589H407L369 475Q445 420 445
260ZM152 245Q152 155 171 113L278 435Q273 436 267 436T255 437Q225 437 205 427T174 395T157 335T152 245ZM358 245Q358 294 354 329T340 387L233 64Q238 63 243 63T255 63Q312 63 335 105T358 245Z" />
<glyph unicode="&#xf9;" glyph-name="ugrave" horiz-adv-x="491" d="M341 0L334 41Q313 18 285 6T219 -7Q177 -7 150 4T106 37T82 94T75 174V500H160V164Q160 140 162 122T173 91T195 72T232 65Q253 65 270 73T299 93T318 119T326 147V500H411V0H341ZM241 580L109
715H218L322 580H241Z" />
<glyph unicode="&#xfa;" glyph-name="uacute" horiz-adv-x="491" d="M341 0L334 41Q313 18 285 6T219 -7Q177 -7 150 4T106 37T82 94T75 174V500H160V164Q160 140 162 122T173 91T195 72T232 65Q253 65 270 73T299 93T318 119T326 147V500H411V0H341ZM184 580L288
715H397L265 580H184Z" />
<glyph unicode="&#xfb;" glyph-name="ucircumflex" horiz-adv-x="491" d="M341 0L334 41Q313 18 285 6T219 -7Q177 -7 150 4T106 37T82 94T75 174V500H160V164Q160 140 162 122T173 91T195 72T232 65Q253 65 270 73T299 93T318 119T326 147V500H411V0H341ZM305
580L245 664L185 580H89L201 715H289L402 580H305Z" />
<glyph unicode="&#xfc;" glyph-name="udieresis" horiz-adv-x="491" d="M341 0L334 41Q313 18 285 6T219 -7Q177 -7 150 4T106 37T82 94T75 174V500H160V164Q160 140 162 122T173 91T195 72T232 65Q253 65 270 73T299 93T318 119T326 147V500H411V0H341ZM302 595V675H387V595H302ZM102
595V675H187V595H102Z" />
<glyph unicode="&#xfd;" glyph-name="yacute" horiz-adv-x="463" d="M283 -44Q275 -73 266 -97T244 -139T210 -165T159 -175Q143 -175 127 -173T102 -169V-96Q113 -98 126 -99T154 -100Q182 -100 194 -55L210 0H190L35 500H127L243 87L341 500H428L283 -44ZM193
580L297 715H406L274 580H193Z" />
<glyph unicode="&#xfe;" glyph-name="thorn" horiz-adv-x="499" d="M80 -170V700H165V463Q212 507 276 507Q364 507 399 451T434 282Q434 200 423 145T387 56T322 8T221 -7Q204 -7 190 -6T165 -3V-170H80ZM260 435Q239 435 222 427T192 406T172 379T165 350V69Q176
67 192 66T231 65Q267 65 289 78T324 117T342 181T347 272Q347 320 343 351T328 401T301 427T260 435Z" />
<glyph unicode="&#xff;" glyph-name="ydieresis" horiz-adv-x="463" d="M283 -44Q275 -73 266 -97T244 -139T210 -165T159 -175Q143 -175 127 -173T102 -169V-96Q113 -98 126 -99T154 -100Q182 -100 194 -55L210 0H190L35 500H127L243 87L341 500H428L283 -44ZM290
595V675H375V595H290ZM90 595V675H175V595H90Z" />
<glyph unicode="&#x2013;" glyph-name="endash" horiz-adv-x="550" d="M85 275V350H465V275H85Z" />
<glyph unicode="&#x2014;" glyph-name="emdash" horiz-adv-x="605" d="M65 275V350H540V275H65Z" />
<glyph unicode="&#x2018;" glyph-name="quoteleft" horiz-adv-x="225" d="M115 699H180L150 542V452H55V542L115 699Z" />
<glyph unicode="&#x2019;" glyph-name="quoteright" horiz-adv-x="225" d="M110 453H45L75 610V700H170V610L110 453Z" />
<glyph unicode="&#x201a;" glyph-name="quotesinglbase" horiz-adv-x="220" d="M115 -157H50L80 0V90H175V0L115 -157Z" />
<glyph unicode="&#x201c;" glyph-name="quotedblleft" horiz-adv-x="380" d="M115 699H180L150 542V452H55V542L115 699ZM270 699H335L305 542V452H210V542L270 699Z" />
<glyph unicode="&#x201d;" glyph-name="quotedblright" horiz-adv-x="380" d="M265 453H200L230 610V700H325V610L265 453ZM110 453H45L75 610V700H170V610L110 453Z" />
<glyph unicode="&#x201e;" glyph-name="quotedblbase" horiz-adv-x="375" d="M270 -157H205L235 0V90H330V0L270 -157ZM115 -157H50L80 0V90H175V0L115 -157Z" />
<glyph unicode="&#x2022;" glyph-name="bullet" horiz-adv-x="290" d="M70 235V390H220V235H70Z" />
<glyph unicode="&#x2039;" glyph-name="guilsinglleft" horiz-adv-x="305" d="M164 92L75 299L164 506H230L167 299L230 92H164Z" />
<glyph unicode="&#x203a;" glyph-name="guilsinglright" horiz-adv-x="305" d="M75 92L138 299L75 506H141L230 299L141 92H75Z" />
</font>
</defs>
</svg>
