<?xml version="1.0" standalone="no"?>
<!DOCTYPE svg PUBLIC "-//W3C//DTD SVG 1.1//EN" "http://www.w3.org/Graphics/SVG/1.1/DTD/svg11.dtd">
<svg xmlns="http://www.w3.org/2000/svg">
<defs >
<font id="Prompt" horiz-adv-x="600" ><font-face
    font-family="Prompt Semibold"
    units-per-em="1000"
    panose-1="0 0 7 0 0 0 0 0 0 0"
    ascent="1090"
    descent="-422"
    alphabetic="0" />
<glyph unicode=" " glyph-name="space" horiz-adv-x="350" />
<glyph unicode="!" glyph-name="exclam" horiz-adv-x="229" d="M139 699H287L185 219H37L139 699ZM31 -15T13 2T-6 48Q-6 89 25 118T96 147Q125 147 144 129T163 82Q163 56 148 34T110 -1T61 -15Q31 -15 13 2Z" />
<glyph unicode="&quot;" glyph-name="quotedbl" horiz-adv-x="355" d="M130 699H242L200 500H88L130 699ZM308 699H420L378 500H266L308 699Z" />
<glyph unicode="#" glyph-name="numbersign" horiz-adv-x="773" d="M100 149H13L38 264H157L230 411H112L136 525H286L372 699H507L421 525H586L672 699H808L722 525H802L778 411H666L593 264H704L679 149H536L463 0H327L400 149H235L162 0H27L100 149ZM457 264L530
411H365L292 264H457Z" />
<glyph unicode="$" glyph-name="dollar" horiz-adv-x="568" d="M179 -14Q124 -12 75 -1T-5 27L18 136Q98 93 201 88L248 309Q247 309 247 309T247 310Q171 344 136 383T101 476Q101 494 106 521Q122 594 183 644T332 709L352 802H460L441 712Q522 706 584 675L561
569Q492 606 419 610L373 392Q451 356 485 320T520 228Q520 209 515 181Q498 103 441 54T288 -9L268 -103H160L179 -14ZM309 597Q253 574 241 521Q239 513 239 500Q239 481 248 467T276 441L309 597ZM344 118T362 144T381 203Q381 221 372 235T345 261L312 104Q344
118 362 144Z" />
<glyph unicode="%" glyph-name="percent" horiz-adv-x="892" d="M175 347T134 387T93 491Q93 511 97 530Q108 581 140 623T219 689T319 714Q385 714 426 673T468 569Q468 547 464 530Q453 479 421 438T341 372T241 347Q175 347 134 387ZM664 699H815L280 0H129L664
699ZM304 445T335 476T366 550Q366 578 349 594T297 611Q257 611 226 579T195 503Q195 476 211 461T262 445Q304 445 335 476ZM555 -15T514 25T473 130Q473 151 477 168Q488 219 520 261T600 327T699 352Q765 352 806 311T848 207Q848 185 844 168Q834 117 802
76T723 10T621 -15Q555 -15 514 25ZM683 83T714 114T745 189Q745 217 728 233T676 249Q636 249 606 218T575 144Q575 116 592 100T641 83Q683 83 714 114Z" />
<glyph unicode="&amp;" glyph-name="ampersand" horiz-adv-x="788" d="M133 -15T74 24T15 138Q15 159 19 178Q33 244 77 290T206 382Q179 414 165 444T151 507Q151 527 155 544Q171 619 237 666T397 714Q474 714 520 676T566 578Q566 560 562 544Q550 487 515
447T408 365L526 226Q558 269 578 364H705Q688 286 666 235T604 133L715 0H534L486 54Q436 18 374 2T233 -15Q133 -15 74 24ZM389 465T412 491T435 555Q435 607 375 607Q338 607 316 588T286 534Q284 524 284 519Q284 499 295 481T332 434Q389 465 412 491ZM306
88T346 101T416 137L286 296Q231 273 202 245T165 178Q163 164 163 159Q163 123 190 106T260 88Q306 88 346 101Z" />
<glyph unicode="&apos;" glyph-name="quotesingle" horiz-adv-x="177" d="M130 699H242L200 500H88L130 699Z" />
<glyph unicode="(" glyph-name="parenleft" horiz-adv-x="351" d="M21 -54T21 106Q21 183 39 270Q93 529 283 714H440Q247 519 194 270Q177 187 177 115Q177 -41 252 -174H95Q21 -54 21 106Z" />
<glyph unicode=")" glyph-name="parenright" horiz-adv-x="351" d="M118 21T171 270Q188 353 188 425Q188 581 113 714H270Q344 594 344 433Q344 357 326 270Q270 9 82 -174H-74Q118 21 171 270Z" />
<glyph unicode="*" glyph-name="asterisk" horiz-adv-x="440" d="M110 420L208 523L105 564L152 638L246 602L267 699H369L348 602L458 639L471 559L353 519L407 416L321 364L273 459L184 363L110 420Z" />
<glyph unicode="+" glyph-name="plus" horiz-adv-x="409" d="M145 243H33L58 359H169L194 473H314L289 359H402L377 243H265L241 129H121L145 243Z" />
<glyph unicode="," glyph-name="comma" horiz-adv-x="304" d="M77 59H233L88 -149H-50L77 59Z" />
<glyph unicode="-" glyph-name="hyphen" horiz-adv-x="409" d="M58 361H402L377 241H33L58 361Z" />
<glyph unicode="." glyph-name="period" horiz-adv-x="179" d="M19 0T6 13T-8 45Q-8 72 14 93T63 114Q84 114 96 102T109 69Q109 41 88 21T39 0Q19 0 6 13Z" />
<glyph unicode="/" glyph-name="slash" horiz-adv-x="501" d="M418 714H570L134 0H-18L418 714Z" />
<glyph unicode="0" glyph-name="zero" horiz-adv-x="688" d="M176 -15T110 52T44 241Q44 291 56 349Q93 522 192 618T445 714Q559 714 625 646T691 455Q691 406 679 349Q642 177 541 81T290 -15Q176 -15 110 52ZM395 125T448 184T524 347Q536 400 536 443Q536
506 507 539T415 572Q339 572 286 512T210 347Q198 293 198 250Q198 189 227 157T320 125Q395 125 448 184Z" />
<glyph unicode="1" glyph-name="one" horiz-adv-x="381" d="M240 533L72 428L104 574L300 699H427L279 0H127L240 533Z" />
<glyph unicode="2" glyph-name="two" horiz-adv-x="583" d="M1 91L150 205L219 257Q285 306 321 336T384 399T418 467Q422 484 422 503Q422 537 400 554T326 572Q276 572 221 555T117 505L148 650Q198 681 258 697T384 714Q478 714 532 667T587 541Q587 517 581
490Q565 416 516 358T365 223L237 125H527L501 0H-18L1 91Z" />
<glyph unicode="3" glyph-name="three" horiz-adv-x="577" d="M138 -15T82 -5T-13 27L12 145Q100 101 206 101Q284 101 328 127T382 201Q385 213 385 224Q385 262 351 278T247 295H155L180 411H268Q342 411 385 441T429 530Q429 564 403 581T321 598Q265 598 215
585T113 542L138 662Q188 687 247 700T366 714Q474 714 530 673T587 557Q587 537 582 510Q572 462 539 421T452 354Q540 320 540 235Q540 219 535 194Q511 91 434 38T203 -15Q138 -15 82 -5Z" />
<glyph unicode="4" glyph-name="four" horiz-adv-x="612" d="M322 155H-6L14 247L444 699H594L503 272H606L581 155H478L446 0H290L322 155ZM369 272L422 518L189 272H369Z" />
<glyph unicode="5" glyph-name="five" horiz-adv-x="577" d="M129 -15T76 -3T-12 32L16 163Q54 135 105 120T206 104Q284 104 329 134T387 223Q390 238 390 251Q390 294 358 316T265 339Q230 339 190 332T118 313L64 348L167 699H596L570 574H284L244 439Q301
451 356 451Q443 451 495 404T547 277Q547 249 542 226Q519 111 429 48T187 -15Q129 -15 76 -3Z" />
<glyph unicode="6" glyph-name="six" horiz-adv-x="623" d="M152 -15T93 42T34 203Q34 245 45 298Q73 429 135 523T286 665T480 714Q547 714 595 698L568 572Q530 593 467 593Q381 593 318 544T224 399Q259 429 308 445T411 461Q497 461 546 417T596 292Q596 261
589 230Q574 160 531 105T418 17T261 -15Q152 -15 93 42ZM341 100T382 134T436 222Q441 245 441 262Q441 346 339 346Q301 346 266 326T210 270T189 194Q189 153 215 127T287 100Q341 100 382 134Z" />
<glyph unicode="7" glyph-name="seven" horiz-adv-x="539" d="M428 574H94L120 699H615L593 596L196 0H45L428 574Z" />
<glyph unicode="8" glyph-name="eight" horiz-adv-x="617" d="M148 -15T83 29T18 153Q18 172 23 197Q36 258 75 301T169 363Q142 383 127 413T111 480Q111 499 115 515Q135 608 214 661T410 714Q507 714 565 671T624 555Q624 534 620 515Q610 466 579 426T502
363Q539 348 560 317T581 241Q581 224 576 197Q554 94 471 40T255 -15Q148 -15 83 29ZM399 402T437 437T475 526Q475 560 453 579T386 598Q331 598 294 563T256 473Q256 439 278 421T344 402Q399 402 437 437ZM335 99T374 129T425 210Q428 224 428 235Q428 274
401 296T326 319Q272 319 232 290T181 210Q177 188 177 179Q177 141 203 120T280 99Q335 99 374 129Z" />
<glyph unicode="9" glyph-name="nine" horiz-adv-x="623" d="M121 -15T76 0L102 126Q143 105 204 105Q290 105 353 154T448 299Q413 269 366 254T266 238Q212 238 169 259T100 321T75 417Q75 442 81 470Q105 581 186 647T409 714Q516 714 576 656T636 492Q636
447 626 400Q537 -15 190 -15Q121 -15 76 0ZM384 352T426 387T480 475Q484 497 484 507Q484 548 459 573T385 598Q332 598 290 564T236 475Q232 459 232 440Q232 399 257 376T332 352Q384 352 426 387Z" />
<glyph unicode=":" glyph-name="colon" horiz-adv-x="217" d="M103 341T86 358T68 402Q68 438 97 465T162 493Q189 493 206 476T224 433Q224 397 195 369T130 341Q103 341 86 358ZM33 12T16 29T-2 73Q-2 109 27 136T92 164Q119 164 136 147T154 104Q154 68 125
40T60 12Q33 12 16 29Z" />
<glyph unicode=";" glyph-name="semicolon" horiz-adv-x="304" d="M180 341T163 358T145 402Q145 438 174 465T239 493Q266 493 283 476T301 433Q301 397 272 369T207 341Q180 341 163 358ZM77 59H233L88 -149H-50L77 59Z" />
<glyph unicode="&lt;" glyph-name="less" horiz-adv-x="536" d="M39 272L62 378L583 609L550 450L243 319L495 189L462 40L39 272Z" />
<glyph unicode="=" glyph-name="equal" horiz-adv-x="523" d="M90 509H549L524 391H65L90 509ZM42 286H501L476 167H17L42 286Z" />
<glyph unicode="&gt;" glyph-name="greater" horiz-adv-x="536" d="M23 199L329 329L78 460L111 609L534 378L511 272L-10 40L23 199Z" />
<glyph unicode="?" glyph-name="question" horiz-adv-x="521" d="M147 241Q158 296 187 335T269 408Q277 413 284 417T299 426Q344 452 364 470T390 515Q392 527 392 533Q392 587 293 587Q246 587 195 576T97 544L125 673Q224 714 331 714Q397 714 447 695T525
640T553 557Q553 538 549 522Q541 486 523 460T480 413T410 365Q363 334 344 320T313 288T295 240L290 219H142L147 241ZM135 -15T117 2T99 47Q99 88 129 117T200 147Q229 147 248 129T267 82Q267 56 252 34T214 -1T165 -15Q135 -15 117 2Z" />
<glyph unicode="@" glyph-name="at" horiz-adv-x="906" d="M218 -76T125 -6T32 196Q32 239 42 285Q69 410 145 507T335 659T580 714Q739 714 825 647T912 454Q912 420 902 368Q877 252 811 180T653 107Q618 107 591 124T558 169Q528 139 487 123T400 107Q335 107
293 140T250 240Q250 258 255 286Q270 355 308 409T406 495T540 526Q582 526 626 515T699 488L638 260Q634 247 634 234Q634 216 643 207T669 197Q741 197 778 368Q787 412 787 446Q787 528 732 567T557 606Q461 606 380 568T243 458T166 285Q157 243 157 208Q157
117 217 73T405 29Q506 29 590 56L569 -47Q485 -76 382 -76Q218 -76 125 -6ZM472 206T497 227T531 281L568 418Q550 427 516 427Q470 427 433 390T383 295Q378 270 378 255Q378 230 391 218T433 206Q472 206 497 227Z" />
<glyph unicode="A" glyph-name="A" horiz-adv-x="772" d="M410 699H559L690 0H540L512 152H235L143 0H-18L410 699ZM498 273L455 539L300 273H498Z" />
<glyph unicode="B" glyph-name="B" horiz-adv-x="661" d="M150 699H493Q571 699 619 659T667 550Q667 528 663 508Q653 461 623 423T551 363Q626 333 626 251Q626 232 621 205Q601 107 534 54T362 0H2L150 699ZM404 415Q444 415 471 435T508 499Q511 516 511 528Q511
559 492 571T434 583H277L242 415H404ZM349 116Q398 116 427 135T468 204Q471 221 471 233Q471 267 449 282T383 298H217L178 116H349Z" />
<glyph unicode="C" glyph-name="C" horiz-adv-x="693" d="M264 -15T194 18T85 114T46 262Q46 305 56 349Q79 460 143 542T301 669T511 714Q657 714 739 648L709 504Q672 541 620 557T495 574Q386 574 310 514T211 349Q202 309 202 274Q202 198 250 161T399 123Q472
123 533 140T651 197L621 53Q515 -15 356 -15Q264 -15 194 18Z" />
<glyph unicode="D" glyph-name="D" horiz-adv-x="703" d="M150 699H393Q488 699 558 666T666 573T704 431Q704 389 696 353Q623 0 247 0H2L150 699ZM271 127Q378 127 449 187T541 353Q550 395 550 430Q550 501 509 536T376 572H275L180 127H271Z" />
<glyph unicode="E" glyph-name="E" horiz-adv-x="559" d="M150 699H635L608 572H275L241 410H486L460 288H215L180 127H513L487 0H2L150 699Z" />
<glyph unicode="F" glyph-name="F" horiz-adv-x="549" d="M150 699H635L608 571H275L240 408H485L460 291H215L154 0H2L150 699Z" />
<glyph unicode="G" glyph-name="G" horiz-adv-x="704" d="M263 -15T193 18T85 113T46 261Q46 305 56 349Q79 460 143 542T303 669T511 714Q587 714 642 699T740 650L710 508Q674 543 624 558T503 574Q391 574 312 514T211 349Q202 310 202 275Q202 121 391 121Q454
121 504 143L533 278H420L443 390H703L632 53Q518 -15 356 -15Q263 -15 193 18Z" />
<glyph unicode="H" glyph-name="H" horiz-adv-x="713" d="M150 699H302L243 419H548L607 699H759L611 0H459L521 293H216L154 0H2L150 699Z" />
<glyph unicode="I" glyph-name="I" horiz-adv-x="257" d="M150 699H302L154 0H2L150 699Z" />
<glyph unicode="J" glyph-name="J" horiz-adv-x="387" d="M45 -15T12 -9T-37 6L-9 137Q4 130 26 126T71 122Q117 122 143 143T179 209L283 699H435L328 195Q307 95 246 40T76 -15Q45 -15 12 -9Z" />
<glyph unicode="K" glyph-name="K" horiz-adv-x="701" d="M150 699H302L237 394L566 699H747L379 358L619 0H438L222 322L154 0H2L150 699Z" />
<glyph unicode="L" glyph-name="L" horiz-adv-x="537" d="M150 699H302L180 127H500L474 0H2L150 699Z" />
<glyph unicode="M" glyph-name="M" horiz-adv-x="835" d="M150 699H295L411 231L726 699H880L732 0H587L671 397L402 0H332L232 397L148 0H2L150 699Z" />
<glyph unicode="N" glyph-name="N" horiz-adv-x="696" d="M150 699H298L494 247L590 699H742L594 0H447L250 452L154 0H2L150 699Z" />
<glyph unicode="O" glyph-name="O" horiz-adv-x="810" d="M262 -15T193 19T85 117T47 264Q47 304 56 349Q79 457 143 540T301 668T507 714Q597 714 666 680T773 582T811 434Q811 394 802 349Q779 241 716 159T559 31T352 -15Q262 -15 193 19ZM442 125T497 152T592
230T647 349Q655 387 655 415Q655 490 610 531T477 572Q415 572 360 545T265 467T211 349Q203 309 203 280Q203 206 248 166T382 125Q442 125 497 152Z" />
<glyph unicode="P" glyph-name="P" horiz-adv-x="625" d="M150 699H444Q541 699 600 648T660 513Q660 484 655 463Q631 346 553 287T344 227H202L154 0H2L150 699ZM349 354Q416 354 452 378T501 463Q505 482 505 499Q505 540 478 556T395 572H275L229 354H349Z" />
<glyph unicode="Q" glyph-name="Q" horiz-adv-x="808" d="M218 0T132 70T46 265Q46 301 56 351Q79 458 145 540T307 668T507 714Q597 714 666 680T773 583T811 436Q811 396 802 351Q788 285 745 223T647 124H769L743 0H375Q218 0 132 70ZM447 133T501 158T594
233T647 350Q655 392 655 422Q655 572 477 572Q415 572 360 545T265 468T211 350Q204 319 204 288Q204 213 250 173T384 133Q447 133 501 158Z" />
<glyph unicode="R" glyph-name="R" horiz-adv-x="640" d="M150 699H453Q548 699 605 654T662 525Q662 498 656 468Q640 390 593 336T473 256L552 0H396L323 237H204L154 0H2L150 699ZM355 364Q421 364 455 388T502 468Q506 485 506 504Q506 542 481 557T399 572H275L231
364H355Z" />
<glyph unicode="S" glyph-name="S" horiz-adv-x="568" d="M144 -15T84 -3T-12 29L16 163Q64 137 118 124T224 111Q289 111 324 136T360 204Q360 233 334 252T237 302Q161 336 126 375T91 469Q91 487 96 514Q108 573 150 618T255 689T394 714Q456 714 502 704T590
673L562 543Q483 587 395 587Q339 587 303 568T259 512Q257 502 257 497Q257 476 270 462T307 435T381 401Q461 365 495 329T530 238Q530 215 524 186Q504 91 424 38T208 -15Q144 -15 84 -3Z" />
<glyph unicode="T" glyph-name="T" horiz-adv-x="590" d="M290 572H86L113 699H673L646 572H442L321 0H169L290 572Z" />
<glyph unicode="U" glyph-name="U" horiz-adv-x="711" d="M220 -15T163 14T77 94T48 211Q48 244 56 282L145 699H297L208 280Q201 243 201 224Q201 173 232 149T332 124Q404 124 454 164T520 280L609 699H761L672 282Q641 134 555 60T302 -15Q220 -15 163 14Z" />
<glyph unicode="V" glyph-name="V" horiz-adv-x="772" d="M130 699H288L374 202L673 699H838L411 0H262L130 699Z" />
<glyph unicode="W" glyph-name="W" horiz-adv-x="993" d="M130 699H290L319 247L538 699H655L678 247L899 699H1058L714 0H575L544 443L326 0H178L130 699Z" />
<glyph unicode="X" glyph-name="X" horiz-adv-x="750" d="M313 352L134 699H308L425 471L639 699H813L487 352L668 0H494L374 232L156 0H-18L313 352Z" />
<glyph unicode="Y" glyph-name="Y" horiz-adv-x="732" d="M294 266L130 699H287L394 408L631 699H797L443 266L387 0H238L294 266Z" />
<glyph unicode="Z" glyph-name="Z" horiz-adv-x="615" d="M3 101L445 572H112L139 699H660L638 597L198 127H558L532 0H-18L3 101Z" />
<glyph unicode="[" glyph-name="bracketleft" horiz-adv-x="328" d="M149 787H422L395 660H274L140 31H261L234 -96H-39L149 787Z" />
<glyph unicode="\" glyph-name="backslash" horiz-adv-x="501" d="M133 714H285L419 0H267L133 714Z" />
<glyph unicode="]" glyph-name="bracketright" horiz-adv-x="328" d="M-22 31H99L233 660H112L139 787H412L224 -96H-49L-22 31Z" />
<glyph unicode="^" glyph-name="asciicircum" horiz-adv-x="574" d="M329 719H449L573 383H428L360 579L208 383H63L329 719Z" />
<glyph unicode="_" glyph-name="underscore" horiz-adv-x="483" d="M-18 0H401L373 -128H-46L-18 0Z" />
<glyph unicode="`" glyph-name="grave" horiz-adv-x="293" d="M140 744H299L330 568H191L140 744Z" />
<glyph unicode="a" glyph-name="a" horiz-adv-x="660" d="M140 -15T83 38T26 180Q26 208 32 239Q48 314 93 372T202 462T341 495Q451 495 503 437L513 480H664L562 0H416L427 52Q382 17 336 1T232 -15Q140 -15 83 38ZM342 102T384 126T452 194L471 285Q466 326
434 351T355 377Q294 377 247 339T187 239Q181 212 181 189Q181 145 207 124T291 102Q342 102 384 126Z" />
<glyph unicode="b" glyph-name="b" horiz-adv-x="665" d="M268 -15T229 1T159 52L148 0H2L159 739H310L245 437Q283 465 332 480T433 495Q494 495 540 471T613 403T639 300Q639 268 632 239Q616 163 572 106T464 17T324 -15Q268 -15 229 1ZM372 102T418 139T478
239Q483 264 483 281Q483 327 456 352T370 377Q323 377 280 352T213 285L194 194Q201 152 232 127T311 102Q372 102 418 139Z" />
<glyph unicode="c" glyph-name="c" horiz-adv-x="543" d="M158 -15T92 36T26 181Q26 209 32 239Q58 361 148 428T372 495Q429 495 475 484T550 451L525 332Q498 355 458 366T371 377Q301 377 252 343T187 239Q182 219 182 195Q182 146 213 124T311 102Q409 102
492 149L467 31Q384 -15 262 -15Q158 -15 92 36Z" />
<glyph unicode="d" glyph-name="d" horiz-adv-x="665" d="M174 -15T127 9T53 78T26 183Q26 209 32 239Q48 315 91 373T198 463T341 495Q451 495 503 437L568 739H719L562 0H416L427 52Q382 17 336 1T232 -15Q174 -15 127 9ZM343 102T385 127T452 194L471 285Q466
326 434 351T355 377Q294 377 247 339T187 239Q183 220 183 200Q183 153 212 128T296 102Q343 102 385 127Z" />
<glyph unicode="e" glyph-name="e" horiz-adv-x="604" d="M164 -15T95 37T26 183Q26 208 32 238Q58 359 139 427T359 495Q432 495 481 469T555 398T580 299Q580 273 574 247L561 186H165Q161 94 317 94Q363 94 414 102T504 124L481 18Q443 3 386 -6T274 -15Q164
-15 95 37ZM439 284Q441 298 441 305Q441 385 333 385Q276 385 238 358T186 284H439Z" />
<glyph unicode="f" glyph-name="f" horiz-adv-x="369" d="M109 371H40L64 480H133L148 551Q168 646 231 695T394 744Q445 744 480 728L455 607Q427 620 396 620Q354 620 330 601T296 539L284 480H398L374 371H260L182 0H31L109 371Z" />
<glyph unicode="g" glyph-name="g" horiz-adv-x="665" d="M163 -230T116 -221T40 -197L63 -86Q132 -120 234 -120Q314 -120 356 -87T413 12L419 42Q380 13 338 -1T235 -15Q177 -15 130 10T55 80T27 185Q27 212 33 240Q57 358 138 426T341 495Q397 495 436 479T506
428L518 480H664L568 31Q541 -97 458 -163T211 -230Q163 -230 116 -221ZM343 102T386 127T452 195L471 285Q464 327 433 352T355 377Q294 377 248 340T188 241Q183 216 183 199Q183 153 211 128T296 102Q343 102 386 127Z" />
<glyph unicode="h" glyph-name="h" horiz-adv-x="615" d="M159 739H310L243 425Q284 460 331 477T427 495Q503 495 544 453T585 345Q585 326 580 301L517 0H366L426 284Q430 301 430 319Q430 347 414 362T360 377Q322 377 285 359T217 304L153 0H2L159 739Z" />
<glyph unicode="i" glyph-name="i" horiz-adv-x="270" d="M171 554T153 571T134 617Q134 658 165 687T237 716Q267 716 285 699T304 653Q304 612 273 583T202 554Q171 554 153 571ZM111 480H263L161 0H9L111 480Z" />
<glyph unicode="j" glyph-name="j" horiz-adv-x="267" d="M168 554T150 571T131 617Q131 656 162 686T234 716Q263 716 281 698T300 652Q300 612 269 583T199 554Q168 554 150 571ZM-150 -231T-180 -216L-155 -95Q-132 -108 -92 -108Q-17 -108 -1 -29L108 480H259L147
-46Q127 -142 68 -186T-94 -231Q-150 -231 -180 -216Z" />
<glyph unicode="k" glyph-name="k" horiz-adv-x="610" d="M159 739H310L212 277L430 480H605L352 246L528 0H353L199 216L153 0H2L159 739Z" />
<glyph unicode="l" glyph-name="l" horiz-adv-x="256" d="M159 739H310L153 0H2L159 739Z" />
<glyph unicode="m" glyph-name="m" horiz-adv-x="873" d="M104 480H245L232 422Q270 457 315 476T405 495Q460 495 489 478T530 426Q568 459 616 477T709 495Q848 495 848 371Q848 349 841 312L775 0H631L692 291Q697 314 697 328Q697 354 683 365T635 377Q579
377 535 333Q532 310 526 281L467 0H322L384 296Q389 319 389 332Q389 356 376 366T333 377Q274 377 213 310L148 0H2L104 480Z" />
<glyph unicode="n" glyph-name="n" horiz-adv-x="615" d="M104 480H250L237 421Q278 458 327 476T427 495Q505 495 545 454T585 347Q585 328 580 301L517 0H366L426 284Q430 301 430 319Q430 349 413 363T360 377Q322 377 285 359T217 304L153 0H2L104 480Z" />
<glyph unicode="o" glyph-name="o" horiz-adv-x="642" d="M196 -15T142 9T57 78T27 184Q27 212 33 240Q57 356 148 425T376 495Q488 495 552 442T616 297Q616 270 610 240Q585 122 495 54T267 -15Q196 -15 142 9ZM353 103T397 140T455 240Q460 267 460 285Q460
377 351 377Q289 377 245 341T188 240Q183 213 183 196Q183 103 292 103Q353 103 397 140Z" />
<glyph unicode="p" glyph-name="p" horiz-adv-x="665" d="M104 480H250L238 427Q326 495 433 495Q525 495 582 443T639 301Q639 273 633 241Q617 165 574 107T467 17T324 -15Q275 -15 233 1T162 43L106 -219H-45L104 480ZM372 103T419 141T479 241Q483 258 483
278Q483 325 454 351T370 377Q323 377 281 352T213 286L194 195Q200 153 232 128T311 103Q372 103 419 141Z" />
<glyph unicode="q" glyph-name="q" horiz-adv-x="665" d="M420 43Q382 14 336 0T232 -15Q173 -15 126 9T53 79T26 183Q26 206 33 241Q57 358 138 426T341 495Q449 495 506 427L518 480H664L515 -219H364L420 43ZM343 103T386 128T452 195L471 286Q464 328 433
352T355 377Q294 377 248 340T188 241Q183 216 183 198Q183 103 296 103Q343 103 386 128Z" />
<glyph unicode="r" glyph-name="r" horiz-adv-x="409" d="M104 480H250L235 411Q271 446 327 464T449 483L425 368Q355 368 299 347T213 283L153 0H2L104 480Z" />
<glyph unicode="s" glyph-name="s" horiz-adv-x="504" d="M141 -15T83 -4T-7 29L18 147Q53 123 105 108T206 93Q247 93 267 100T292 126Q295 141 286 150T257 167T187 190Q117 212 84 240T51 312Q51 329 55 345Q72 421 137 458T308 495Q358 495 409 485T486 457L461
342Q436 361 392 373T304 385Q263 385 239 377T210 347Q207 332 218 323T258 306T320 288Q393 267 423 241T453 171Q453 155 448 130Q434 62 373 24T195 -15Q141 -15 83 -4Z" />
<glyph unicode="t" glyph-name="t" horiz-adv-x="387" d="M133 -15T97 21T61 117Q61 136 66 161L110 371H40L64 480H134L164 624H315L285 480H398L374 371H261L221 181Q216 154 216 142Q216 119 229 111T277 102Q309 102 344 118L320 5Q269 -15 199 -15Q133 -15 97 21Z" />
<glyph unicode="u" glyph-name="u" horiz-adv-x="615" d="M113 -15T72 25T30 133Q30 160 35 181L99 480H250L189 197Q185 178 185 161Q185 130 202 117T256 103Q294 103 331 121T398 175L463 480H614L512 0H366L378 58Q338 21 289 3T189 -15Q113 -15 72 25Z" />
<glyph unicode="v" glyph-name="v" horiz-adv-x="606" d="M92 480H214L273 148L474 480H606L306 0H188L92 480Z" />
<glyph unicode="w" glyph-name="w" horiz-adv-x="841" d="M84 480H235L259 180L409 480H535L558 180L709 480H860L599 0H467L438 298L283 0H141L84 480Z" />
<glyph unicode="x" glyph-name="x" horiz-adv-x="645" d="M241 248L98 480H262L343 347L482 480H651L406 245L557 0H395L303 147L150 0H-18L241 248Z" />
<glyph unicode="y" glyph-name="y" horiz-adv-x="612" d="M124 -230T77 -221T1 -197L24 -86Q93 -120 195 -120Q267 -120 305 -87T364 12L381 69Q341 32 292 14T192 -4Q116 -4 75 36T33 144Q33 171 38 192L99 480H250L192 208Q188 189 188 172Q188 141 205 128T259
114Q297 114 334 132T401 186L463 480H614L519 31Q492 -97 411 -163T172 -230Q124 -230 77 -221Z" />
<glyph unicode="z" glyph-name="z" horiz-adv-x="509" d="M0 87L302 371H67L91 480H521L502 392L202 109H450L427 0H-18L0 87Z" />
<glyph unicode="{" glyph-name="braceleft" horiz-adv-x="350" d="M84 -97T64 -79T44 -25Q44 -6 48 11L91 213Q93 229 93 234Q93 279 47 279H21L49 411H75Q104 411 122 428T147 476L190 678Q202 733 233 760T310 787H439L412 659H373Q353 659 343 650T328 620L291
444Q273 361 200 338V336Q249 320 249 264Q249 246 245 230L211 70Q209 58 209 54Q209 41 216 36T239 30H278L251 -97H122Q84 -97 64 -79Z" />
<glyph unicode="|" glyph-name="bar" horiz-adv-x="217" d="M154 812H306L103 -144H-49L154 812Z" />
<glyph unicode="}" glyph-name="braceright" horiz-adv-x="350" d="M-17 30H22Q42 30 51 39T66 70L105 252Q124 337 196 358V360Q147 378 147 432Q147 450 151 466L183 620Q185 632 185 637Q185 648 179 653T156 659H117L144 787H274Q312 787 332 769T352 714Q352
695 348 678L305 476Q302 464 302 454Q302 411 348 411H374L346 279H320Q292 279 274 262T249 213L206 11Q194 -43 163 -70T86 -97H-44L-17 30Z" />
<glyph unicode="~" glyph-name="asciitilde" horiz-adv-x="527" d="M357 250T331 257T268 280Q235 294 211 301T161 309Q92 309 35 252L63 385Q86 408 118 420T188 433Q215 433 241 426T303 403Q335 389 360 382T410 374Q480 374 535 432L507 299Q485 275 454
263T384 250Q357 250 331 257Z" />
<glyph unicode="&#xa0;" glyph-name="uni00A0" horiz-adv-x="350" />
<glyph unicode="&#xa1;" glyph-name="exclamdown" horiz-adv-x="229" d="M116 388T98 405T79 451Q79 490 110 520T181 550Q210 550 229 532T248 486Q248 445 217 417T147 388Q116 388 98 405ZM57 313H205L103 -167H-45L57 313Z" />
<glyph unicode="&#xa2;" glyph-name="cent" horiz-adv-x="543" d="M216 -12Q130 -1 78 49T25 181Q25 202 32 239Q55 349 131 415T323 492L342 581H450L431 491Q508 482 550 451L525 332Q481 369 406 375L348 104Q426 112 492 149L467 31Q405 -3 324 -12L305 -101H197L216
-12ZM296 365Q207 335 187 239Q181 214 181 194Q181 128 242 110L296 365Z" />
<glyph unicode="&#xa3;" glyph-name="sterling" horiz-adv-x="487" d="M8 127H82L121 309H51L77 431H147L165 514Q186 612 253 663T427 714Q480 714 515 698L489 577Q461 590 430 590Q376 590 350 569T314 502L299 431H449L423 309H273L234 127H431L405 0H-18L8 127Z" />
<glyph unicode="&#xa4;" glyph-name="currency" d="M6 116L105 179Q93 208 93 240Q93 252 97 276Q109 328 146 375L75 437L155 515L229 444Q288 479 351 479Q417 479 460 444L563 514L609 437L512 375Q524 348 524 317Q524 299 519 276Q508 222 471 179L542 116L462
38L387 107Q329 73 265 73Q203 73 158 107L54 38L6 116ZM328 181T361 208T403 276Q407 296 407 306Q407 337 388 355T329 373Q299 373 272 356T227 311T210 250Q210 218 229 200T288 181Q328 181 361 208Z" />
<glyph unicode="&#xa5;" glyph-name="yen" horiz-adv-x="732" d="M256 85H124L145 184H277L288 238H156L177 336H267L130 699H292L399 408L636 699H797L500 336H590L569 238H437L426 184H558L537 85H405L387 0H238L256 85Z" />
<glyph unicode="&#xa6;" glyph-name="brokenbar" horiz-adv-x="217" d="M154 812H306L222 416H70L154 812ZM35 251H187L103 -144H-49L35 251Z" />
<glyph unicode="&#xa7;" glyph-name="section" horiz-adv-x="568" d="M111 -170T51 -158T-45 -126L-17 8Q31 -18 85 -31T191 -44Q254 -44 284 -25T322 32Q324 46 324 50Q324 69 312 83T277 109T203 145Q128 179 93 219T58 315Q58 332 63 359Q72 402 100 435Q94
452 94 474Q94 501 100 525Q119 613 198 663T394 714Q456 714 502 704T590 673L562 543Q483 587 395 587Q279 587 262 510Q261 506 261 497Q261 471 288 451T381 400Q463 362 497 329T531 240Q531 221 524 186Q515 145 489 111Q496 88 496 68Q496 53 491 31Q467
-71 390 -120T175 -170Q111 -170 51 -158ZM395 199T397 206Q399 218 399 222Q399 248 377 265T300 307Q270 320 244 336T208 366Q200 352 197 338Q196 334 196 325Q196 300 218 282T291 239Q330 221 353 208T388 179Q395 199 397 206Z" />
<glyph unicode="&#xa8;" glyph-name="dieresis" horiz-adv-x="445" d="M151 574T134 590T117 630Q117 665 145 691T207 717Q232 717 248 701T264 660Q264 625 238 600T177 574Q151 574 134 590ZM387 574T371 589T354 630Q354 665 381 691T443 717Q468 717 484
701T500 660Q500 625 474 600T413 574Q387 574 371 589Z" />
<glyph unicode="&#xa9;" glyph-name="copyright" horiz-adv-x="806" d="M260 -15T192 19T85 118T47 266Q47 306 56 349Q79 457 143 540T300 668T504 714Q592 714 660 680T767 582T806 433Q806 394 797 349Q774 241 711 159T555 31T349 -15Q260 -15 192 19ZM445
91T509 121T620 210T683 349Q692 393 692 430Q692 606 481 606Q407 606 343 576T233 487T171 349Q162 307 162 271Q162 183 215 137T372 91Q445 91 509 121ZM301 132T251 175T200 296Q200 321 206 348Q228 451 298 507T472 564Q571 564 621 527L599 427Q577 446
544 455T472 465Q416 465 379 436T329 348Q324 321 324 306Q324 267 347 249T421 231Q502 231 572 272L551 172Q477 132 379 132Q301 132 251 175Z" />
<glyph unicode="&#xaa;" glyph-name="ordfeminine" horiz-adv-x="426" d="M146 349T112 374T78 444Q78 456 81 468Q93 525 138 557T253 589Q283 589 309 583T354 564L356 573Q358 585 358 590Q358 613 339 624T277 635Q214 635 155 611L172 690Q198 700 236 707T310
714Q387 714 427 683T467 599Q467 584 464 569L420 360H318L325 391Q273 349 198 349Q146 349 112 374ZM269 420T293 430T332 458L339 493Q310 517 264 517Q202 517 192 468Q190 458 190 454Q190 420 243 420Q269 420 293 430Z" />
<glyph unicode="&#xab;" glyph-name="guillemotleft" horiz-adv-x="656" d="M47 307L54 342L342 556L404 461L208 318L343 177L243 93L47 307ZM316 307L323 342L611 556L673 461L477 318L612 177L512 93L316 307Z" />
<glyph unicode="&#xac;" glyph-name="logicalnot" horiz-adv-x="446" d="M273 243H33L58 361H440L391 129H249L273 243Z" />
<glyph unicode="&#xad;" glyph-name="uni00AD" horiz-adv-x="409" d="M58 361H402L377 241H33L58 361Z" />
<glyph unicode="&#xae;" glyph-name="registered" horiz-adv-x="806" d="M260 -15T192 19T85 118T47 266Q47 306 56 349Q79 457 143 540T300 668T504 714Q592 714 660 680T767 582T806 433Q806 394 797 349Q774 241 711 159T555 31T349 -15Q260 -15 192 19ZM445
91T509 121T620 210T683 349Q692 393 692 430Q692 606 481 606Q407 606 343 576T233 487T171 349Q162 307 162 271Q162 183 215 137T372 91Q445 91 509 121ZM316 555H490Q552 555 589 528T626 451Q626 441 622 419Q612 373 583 342T510 295L550 153H443L406 284H369L341
153H231L316 555ZM449 371Q510 371 520 419Q522 431 522 436Q522 453 510 460T473 468H408L387 371H449Z" />
<glyph unicode="&#xaf;" glyph-name="overscore" horiz-adv-x="399" d="M126 682H460L440 584H106L126 682Z" />
<glyph unicode="&#xb0;" glyph-name="degree" horiz-adv-x="353" d="M168 439T135 472T102 554Q102 599 128 639T195 703T280 727Q331 727 363 695T396 613Q396 598 393 583Q385 544 359 511T295 459T219 439Q168 439 135 472ZM262 524T282 541T307 583Q308 587
308 595Q308 614 296 627T262 640Q238 640 218 623T192 583Q191 579 191 572Q191 552 204 538T237 524Q262 524 282 541Z" />
<glyph unicode="&#xb1;" glyph-name="plusminus" horiz-adv-x="409" d="M152 275H40L65 391H176L201 505H321L296 391H409L384 275H272L248 161H128L152 275ZM6 116H350L326 0H-18L6 116Z" />
<glyph unicode="&#xb2;" glyph-name="uni00B2" horiz-adv-x="340" d="M74 433L150 484Q214 526 240 549T266 595Q266 619 228 619Q203 619 172 610T119 586L139 679Q161 692 197 700T265 709Q321 709 351 684T382 620Q382 614 380 600Q374 572 356 550T312 508T228
450H353L336 370H60L74 433Z" />
<glyph unicode="&#xb3;" glyph-name="uni00B3" horiz-adv-x="345" d="M103 360T62 380L79 457Q98 446 124 441T175 435Q205 435 222 442T244 469Q248 486 236 493T189 501H142L157 570H203Q232 570 248 579T264 605Q264 618 251 625T213 632Q164 632 117 606L134
684Q159 696 193 702T264 709Q319 709 351 688T384 629Q384 600 368 575T321 535Q362 522 362 482Q362 472 359 460Q349 414 304 387T187 360Q103 360 62 380Z" />
<glyph unicode="&#xb4;" glyph-name="acute" horiz-adv-x="293" d="M210 744H368L242 568H102L210 744Z" />
<glyph unicode="&#xb6;" glyph-name="paragraph" horiz-adv-x="760" d="M324 269H279Q188 269 136 313T83 443Q83 473 91 513Q116 634 203 698T411 762H838L648 -134H496L660 637H554L390 -134H238L324 269Z" />
<glyph unicode="&#xb7;" glyph-name="middot" horiz-adv-x="179" d="M69 239T56 252T43 285Q43 312 65 333T114 354Q135 354 147 342T160 309Q160 282 138 261T89 239Q69 239 56 252Z" />
<glyph unicode="&#xb8;" glyph-name="cedilla" horiz-adv-x="319" d="M0 -248T-27 -245T-67 -235L-50 -158Q-42 -164 -27 -167T5 -171Q35 -171 52 -160T69 -126Q69 -87 -21 -87L32 0H166L136 -49Q170 -54 188 -73T207 -123Q207 -134 204 -146Q194 -196 148 -222T31
-248Q0 -248 -27 -245Z" />
<glyph unicode="&#xb9;" glyph-name="uni00B9" horiz-adv-x="233" d="M185 589L95 533L116 633L219 699H319L249 370H138L185 589Z" />
<glyph unicode="&#xba;" glyph-name="ordmasculine" horiz-adv-x="479" d="M185 348T138 386T90 490Q90 512 94 531Q112 614 178 664T341 714Q419 714 466 675T513 571Q513 554 508 531Q490 445 426 397T263 348Q185 348 138 386ZM324 434T355 461T396 531Q400
553 400 562Q400 594 381 611T323 628Q277 628 247 603T207 531Q204 516 204 503Q204 470 223 452T282 434Q324 434 355 461Z" />
<glyph unicode="&#xbb;" glyph-name="guillemotright" horiz-adv-x="656" d="M20 189L215 330L81 473L181 556L377 342L370 307L82 93L20 189ZM289 189L484 330L350 473L450 556L646 342L639 307L351 93L289 189Z" />
<glyph unicode="&#xbc;" glyph-name="onequarter" horiz-adv-x="750" d="M583 699H737L202 0H48L583 699ZM185 589L95 533L116 633L219 699H319L249 370H138L185 589ZM525 63H375L390 135L574 329H691L651 140H697L681 63H635L622 0H512L525 63ZM565 140L586 236L491
140H565Z" />
<glyph unicode="&#xbd;" glyph-name="onehalf" horiz-adv-x="769" d="M583 699H737L202 0H48L583 699ZM185 589L95 533L116 633L219 699H319L249 370H138L185 589ZM424 63L457 84Q541 139 575 166T614 216Q615 219 615 225Q615 249 577 249Q553 249 522 240T469
216L489 309Q511 322 547 330T615 339Q674 339 703 316T732 254Q732 242 729 230Q723 202 706 180T662 139T578 80H703L686 0H411L424 63Z" />
<glyph unicode="&#xbe;" glyph-name="threequarters" horiz-adv-x="763" d="M103 360T62 380L79 457Q98 446 124 441T175 435Q205 435 222 442T244 469Q248 486 236 493T189 501H142L157 570H203Q232 570 248 579T264 605Q264 618 251 625T213 632Q164 632 117
606L134 684Q159 696 193 702T264 709Q321 709 352 688T384 631Q384 601 368 576T321 535Q362 522 362 482Q362 472 359 460Q349 414 304 387T187 360Q103 360 62 380ZM597 699H751L216 0H62L597 699ZM538 63H388L403 135L587 329H704L664 140H710L694 63H648L635
0H525L538 63ZM578 140L599 236L504 140H578Z" />
<glyph unicode="&#xbf;" glyph-name="questiondown" horiz-adv-x="521" d="M305 388T286 405T267 451Q267 490 298 520T368 550Q398 550 416 532T435 487Q435 446 405 417T334 388Q305 388 286 405ZM105 -179T43 -138T-20 -24Q-20 -4 -16 13Q-8 49 10 75T53 120T123
169Q170 199 189 213T220 246T239 295L243 315H391L387 293Q375 238 346 198T264 126L236 109Q199 88 181 75T152 43T141 -1Q141 -27 163 -40T240 -53Q287 -53 338 -42T437 -9L409 -139Q312 -179 202 -179Q105 -179 43 -138Z" />
<glyph unicode="&#xc0;" glyph-name="Agrave" horiz-adv-x="772" d="M353 918H512L544 742H404L353 918ZM410 699H559L690 0H540L512 152H235L143 0H-18L410 699ZM498 273L455 539L300 273H498Z" />
<glyph unicode="&#xc1;" glyph-name="Aacute" horiz-adv-x="772" d="M515 918H674L548 742H409L515 918ZM410 699H559L690 0H540L512 152H235L143 0H-18L410 699ZM498 273L455 539L300 273H498Z" />
<glyph unicode="&#xc2;" glyph-name="Acircumflex" horiz-adv-x="772" d="M443 918H578L692 742H542L494 834L406 742H256L443 918ZM410 699H559L690 0H540L512 152H235L143 0H-18L410 699ZM498 273L455 539L300 273H498Z" />
<glyph unicode="&#xc3;" glyph-name="Atilde" horiz-adv-x="772" d="M299 857Q342 900 411 900Q433 900 452 894T505 875Q531 863 551 857T594 850Q656 850 705 900L681 785Q640 743 571 743Q546 743 524 749T474 769Q444 782 427 787T389 793Q327 793 275 742L299
857ZM410 699H559L690 0H540L512 152H235L143 0H-18L410 699ZM498 273L455 539L300 273H498Z" />
<glyph unicode="&#xc4;" glyph-name="Adieresis" horiz-adv-x="772" d="M332 752T316 767T299 808Q299 843 326 869T387 895Q412 895 428 879T444 838Q444 803 418 778T357 752Q332 752 316 767ZM568 752T551 768T534 808Q534 843 562 869T624 895Q649 895 665
879T681 837Q681 803 654 778T594 752Q568 752 551 768ZM410 699H559L690 0H540L512 152H235L143 0H-18L410 699ZM498 273L455 539L300 273H498Z" />
<glyph unicode="&#xc5;" glyph-name="Aring" horiz-adv-x="772" d="M394 672Q364 700 364 747Q364 789 387 826T449 885T528 908Q576 908 606 878T636 803Q636 766 616 732T563 675L690 0H540L512 152H235L143 0H-18L394 672ZM509 727T526 741T548 776Q549 779
549 786Q549 803 539 813T510 824Q490 824 473 810T451 776Q450 772 450 765Q450 748 461 738T489 727Q509 727 526 741ZM498 273L455 539L300 273H498Z" />
<glyph unicode="&#xc6;" glyph-name="AE" horiz-adv-x="915" d="M449 699H986L959 572H658L624 410H838L812 288H598L563 127H864L838 0H385L418 158H250L145 0H-18L449 699ZM443 275L507 572H505L324 275H443Z" />
<glyph unicode="&#xc7;" glyph-name="Ccedilla" horiz-adv-x="693" d="M277 -248T250 -245T209 -235L226 -158Q235 -164 250 -167T282 -171Q312 -171 329 -160T346 -126Q346 -87 256 -87L301 -11Q184 3 115 75T46 262Q46 305 56 349Q79 460 143 542T301 669T511
714Q657 714 739 648L709 504Q672 541 620 557T495 574Q386 574 310 514T211 349Q202 309 202 274Q202 198 250 161T399 123Q472 123 533 140T651 197L621 53Q541 2 435 -10L412 -49Q446 -54 464 -74T482 -124Q482 -184 434 -216T308 -248Q277 -248 250 -245Z"
/>
<glyph unicode="&#xc8;" glyph-name="Egrave" horiz-adv-x="559" d="M267 918H426L458 742H318L267 918ZM150 699H635L608 572H275L241 410H486L460 288H215L180 127H513L487 0H2L150 699Z" />
<glyph unicode="&#xc9;" glyph-name="Eacute" horiz-adv-x="559" d="M405 918H564L438 742H299L405 918ZM150 699H635L608 572H275L241 410H486L460 288H215L180 127H513L487 0H2L150 699Z" />
<glyph unicode="&#xca;" glyph-name="Ecircumflex" horiz-adv-x="559" d="M343 918H478L592 742H442L394 834L306 742H156L343 918ZM150 699H635L608 572H275L241 410H486L460 288H215L180 127H513L487 0H2L150 699Z" />
<glyph unicode="&#xcb;" glyph-name="Edieresis" horiz-adv-x="559" d="M239 752T223 767T206 808Q206 843 233 869T294 895Q319 895 335 879T351 838Q351 803 325 778T264 752Q239 752 223 767ZM475 752T458 768T441 808Q441 843 469 869T531 895Q556 895 572
879T588 837Q588 803 561 778T501 752Q475 752 458 768ZM150 699H635L608 572H275L241 410H486L460 288H215L180 127H513L487 0H2L150 699Z" />
<glyph unicode="&#xcc;" glyph-name="Igrave" horiz-adv-x="260" d="M97 918H256L288 742H148L97 918ZM151 699H303L155 0H3L151 699Z" />
<glyph unicode="&#xcd;" glyph-name="Iacute" horiz-adv-x="260" d="M253 918H412L286 742H147L253 918ZM151 699H303L155 0H3L151 699Z" />
<glyph unicode="&#xce;" glyph-name="Icircumflex" horiz-adv-x="260" d="M186 918H321L435 742H285L237 834L149 742H-1L186 918ZM151 699H303L155 0H3L151 699Z" />
<glyph unicode="&#xcf;" glyph-name="Idieresis" horiz-adv-x="260" d="M75 752T59 767T42 808Q42 843 69 869T130 895Q155 895 171 879T187 838Q187 803 161 778T100 752Q75 752 59 767ZM311 752T294 768T277 808Q277 843 305 869T367 895Q392 895 408 879T424
837Q424 803 397 778T337 752Q311 752 294 768ZM151 699H303L155 0H3L151 699Z" />
<glyph unicode="&#xd0;" glyph-name="Eth" horiz-adv-x="733" d="M94 292H39L63 406H118L180 699H423Q518 699 588 666T696 573T734 431Q734 389 726 353Q653 0 277 0H32L94 292ZM301 127Q408 127 479 187T571 353Q580 395 580 430Q580 501 539 536T406 572H305L269
406H428L404 292H245L210 127H301Z" />
<glyph unicode="&#xd1;" glyph-name="Ntilde" horiz-adv-x="696" d="M269 857Q312 900 381 900Q403 900 422 894T475 875Q501 863 521 857T564 850Q626 850 675 900L651 785Q610 743 541 743Q516 743 494 749T444 769Q414 782 397 787T359 793Q297 793 245 742L269
857ZM150 699H298L494 247L590 699H742L594 0H447L250 452L154 0H2L150 699Z" />
<glyph unicode="&#xd2;" glyph-name="Ograve" horiz-adv-x="810" d="M387 918H546L578 742H438L387 918ZM262 -15T193 19T85 117T47 264Q47 304 56 349Q79 457 143 540T301 668T507 714Q597 714 666 680T773 582T811 434Q811 394 802 349Q779 241 716 159T559
31T352 -15Q262 -15 193 19ZM442 125T497 152T592 230T647 349Q655 387 655 415Q655 490 610 531T477 572Q415 572 360 545T265 467T211 349Q203 309 203 280Q203 206 248 166T382 125Q442 125 497 152Z" />
<glyph unicode="&#xd3;" glyph-name="Oacute" horiz-adv-x="810" d="M528 918H687L561 742H422L528 918ZM262 -15T193 19T85 117T47 264Q47 304 56 349Q79 457 143 540T301 668T507 714Q597 714 666 680T773 582T811 434Q811 394 802 349Q779 241 716 159T559
31T352 -15Q262 -15 193 19ZM442 125T497 152T592 230T647 349Q655 387 655 415Q655 490 610 531T477 572Q415 572 360 545T265 467T211 349Q203 309 203 280Q203 206 248 166T382 125Q442 125 497 152Z" />
<glyph unicode="&#xd4;" glyph-name="Ocircumflex" horiz-adv-x="810" d="M462 918H597L711 742H561L513 834L425 742H275L462 918ZM262 -15T193 19T85 117T47 264Q47 304 56 349Q79 457 143 540T301 668T507 714Q597 714 666 680T773 582T811 434Q811 394 802
349Q779 241 716 159T559 31T352 -15Q262 -15 193 19ZM442 125T497 152T592 230T647 349Q655 387 655 415Q655 490 610 531T477 572Q415 572 360 545T265 467T211 349Q203 309 203 280Q203 206 248 166T382 125Q442 125 497 152Z" />
<glyph unicode="&#xd5;" glyph-name="Otilde" horiz-adv-x="810" d="M318 857Q361 900 430 900Q452 900 471 894T524 875Q550 863 570 857T613 850Q675 850 724 900L700 785Q659 743 590 743Q565 743 543 749T493 769Q463 782 446 787T408 793Q346 793 294 742L318
857ZM262 -15T193 19T85 117T47 264Q47 304 56 349Q79 457 143 540T301 668T507 714Q597 714 666 680T773 582T811 434Q811 394 802 349Q779 241 716 159T559 31T352 -15Q262 -15 193 19ZM442 125T497 152T592 230T647 349Q655 387 655 415Q655 490 610 531T477
572Q415 572 360 545T265 467T211 349Q203 309 203 280Q203 206 248 166T382 125Q442 125 497 152Z" />
<glyph unicode="&#xd6;" glyph-name="Odieresis" horiz-adv-x="810" d="M351 752T335 767T318 808Q318 843 345 869T406 895Q431 895 447 879T463 838Q463 803 437 778T376 752Q351 752 335 767ZM587 752T570 768T553 808Q553 843 581 869T643 895Q668 895 684
879T700 837Q700 803 673 778T613 752Q587 752 570 768ZM262 -15T193 19T85 117T47 264Q47 304 56 349Q79 457 143 540T301 668T507 714Q597 714 666 680T773 582T811 434Q811 394 802 349Q779 241 716 159T559 31T352 -15Q262 -15 193 19ZM442 125T497 152T592
230T647 349Q655 387 655 415Q655 490 610 531T477 572Q415 572 360 545T265 467T211 349Q203 309 203 280Q203 206 248 166T382 125Q442 125 497 152Z" />
<glyph unicode="&#xd7;" glyph-name="multiply" horiz-adv-x="394" d="M194 221L99 143L31 228L126 307L64 386L168 471L230 392L326 472L393 386L297 307L359 228L256 142L194 221Z" />
<glyph unicode="&#xd8;" glyph-name="Oslash" horiz-adv-x="810" d="M171 30Q112 67 79 126T46 263Q46 306 56 349Q79 457 143 540T301 668T507 714Q547 714 587 706L635 784H758L687 668Q746 632 778 572T811 433Q811 393 802 349Q779 241 716 159T559 31T352
-15Q313 -15 271 -7L223 -86H100L171 30ZM504 571L477 572Q415 572 360 545T265 467T211 349Q203 316 203 279Q203 201 252 161L504 571ZM442 125T497 152T592 230T647 349Q654 381 654 415Q654 495 605 535L353 126Q362 125 382 125Q442 125 497 152Z" />
<glyph unicode="&#xd9;" glyph-name="Ugrave" horiz-adv-x="711" d="M334 918H493L525 742H385L334 918ZM220 -15T163 14T77 94T48 211Q48 244 56 282L145 699H297L208 280Q201 243 201 224Q201 173 232 149T332 124Q404 124 454 164T520 280L609 699H761L672
282Q641 134 555 60T302 -15Q220 -15 163 14Z" />
<glyph unicode="&#xda;" glyph-name="Uacute" horiz-adv-x="711" d="M479 918H638L512 742H373L479 918ZM220 -15T163 14T77 94T48 211Q48 244 56 282L145 699H297L208 280Q201 243 201 224Q201 173 232 149T332 124Q404 124 454 164T520 280L609 699H761L672
282Q641 134 555 60T302 -15Q220 -15 163 14Z" />
<glyph unicode="&#xdb;" glyph-name="Ucircumflex" horiz-adv-x="711" d="M412 918H547L661 742H511L463 834L375 742H225L412 918ZM220 -15T163 14T77 94T48 211Q48 244 56 282L145 699H297L208 280Q201 243 201 224Q201 173 232 149T332 124Q404 124 454 164T520
280L609 699H761L672 282Q641 134 555 60T302 -15Q220 -15 163 14Z" />
<glyph unicode="&#xdc;" glyph-name="Udieresis" horiz-adv-x="711" d="M301 752T285 767T268 808Q268 843 295 869T356 895Q381 895 397 879T413 838Q413 803 387 778T326 752Q301 752 285 767ZM537 752T520 768T503 808Q503 843 531 869T593 895Q618 895 634
879T650 837Q650 803 623 778T563 752Q537 752 520 768ZM220 -15T163 14T77 94T48 211Q48 244 56 282L145 699H297L208 280Q201 243 201 224Q201 173 232 149T332 124Q404 124 454 164T520 280L609 699H761L672 282Q641 134 555 60T302 -15Q220 -15 163 14Z" />
<glyph unicode="&#xdd;" glyph-name="Yacute" horiz-adv-x="738" d="M482 918H641L515 742H376L482 918ZM297 266L133 699H290L397 408L634 699H800L446 266L390 0H241L297 266Z" />
<glyph unicode="&#xde;" glyph-name="Thorn" horiz-adv-x="625" d="M150 699H302L277 579H425Q521 579 578 532T636 401Q636 381 631 351Q587 124 328 124H180L154 0H2L150 699ZM327 251Q388 251 426 272T477 351Q481 370 481 387Q481 424 457 438T385 452H250L207
251H327Z" />
<glyph unicode="&#xdf;" glyph-name="germandbls" horiz-adv-x="648" d="M249 -15T209 3L237 135Q269 114 331 114Q380 114 413 143T458 222Q461 237 461 249Q461 285 436 302T360 319H305L330 433H374Q461 433 480 526Q483 538 483 550Q483 580 462 596T396 613Q336
613 302 588T256 507L149 0H-3L101 493Q127 615 202 679T423 744Q494 744 542 720T615 655T639 566Q639 547 634 524Q624 477 596 438T524 379Q614 347 614 255Q614 232 608 205Q585 99 519 42T333 -15Q249 -15 209 3Z" />
<glyph unicode="&#xe0;" glyph-name="agrave" horiz-adv-x="660" d="M329 711H488L520 535H380L329 711ZM140 -15T83 38T26 180Q26 208 32 239Q48 314 93 372T202 462T341 495Q451 495 503 437L513 480H664L562 0H416L427 52Q382 17 336 1T232 -15Q140 -15 83
38ZM342 102T384 126T452 194L471 285Q466 326 434 351T355 377Q294 377 247 339T187 239Q181 212 181 189Q181 145 207 124T291 102Q342 102 384 126Z" />
<glyph unicode="&#xe1;" glyph-name="aacute" horiz-adv-x="660" d="M451 711H610L484 535H345L451 711ZM140 -15T83 38T26 180Q26 208 32 239Q48 314 93 372T202 462T341 495Q451 495 503 437L513 480H664L562 0H416L427 52Q382 17 336 1T232 -15Q140 -15 83
38ZM342 102T384 126T452 194L471 285Q466 326 434 351T355 377Q294 377 247 339T187 239Q181 212 181 189Q181 145 207 124T291 102Q342 102 384 126Z" />
<glyph unicode="&#xe2;" glyph-name="acircumflex" horiz-adv-x="660" d="M395 711H530L644 535H494L446 627L358 535H208L395 711ZM140 -15T83 38T26 180Q26 208 32 239Q48 314 93 372T202 462T341 495Q451 495 503 437L513 480H664L562 0H416L427 52Q382 17
336 1T232 -15Q140 -15 83 38ZM342 102T384 126T452 194L471 285Q466 326 434 351T355 377Q294 377 247 339T187 239Q181 212 181 189Q181 145 207 124T291 102Q342 102 384 126Z" />
<glyph unicode="&#xe3;" glyph-name="atilde" horiz-adv-x="660" d="M262 650Q305 693 374 693Q396 693 415 687T468 668Q494 656 514 650T557 643Q619 643 668 693L644 578Q603 536 534 536Q509 536 487 542T437 562Q407 575 390 580T352 586Q290 586 238 535L262
650ZM140 -15T83 38T26 180Q26 208 32 239Q48 314 93 372T202 462T341 495Q451 495 503 437L513 480H664L562 0H416L427 52Q382 17 336 1T232 -15Q140 -15 83 38ZM342 102T384 126T452 194L471 285Q466 326 434 351T355 377Q294 377 247 339T187 239Q181 212 181
189Q181 145 207 124T291 102Q342 102 384 126Z" />
<glyph unicode="&#xe4;" glyph-name="adieresis" horiz-adv-x="660" d="M278 545T262 560T245 601Q245 636 272 662T333 688Q358 688 374 672T390 631Q390 596 364 571T303 545Q278 545 262 560ZM514 545T497 561T480 601Q480 636 508 662T570 688Q595 688 611
672T627 630Q627 596 600 571T540 545Q514 545 497 561ZM140 -15T83 38T26 180Q26 208 32 239Q48 314 93 372T202 462T341 495Q451 495 503 437L513 480H664L562 0H416L427 52Q382 17 336 1T232 -15Q140 -15 83 38ZM342 102T384 126T452 194L471 285Q466 326 434
351T355 377Q294 377 247 339T187 239Q181 212 181 189Q181 145 207 124T291 102Q342 102 384 126Z" />
<glyph unicode="&#xe5;" glyph-name="aring" horiz-adv-x="660" d="M382 535T353 564T323 639Q323 681 346 718T408 777T487 799Q535 799 565 769T595 694Q595 652 571 616T509 557T430 535Q382 535 353 564ZM468 618T485 632T507 667Q508 670 508 677Q508 694
498 704T469 715Q449 715 432 701T410 667Q409 663 409 656Q409 639 420 629T448 618Q468 618 485 632ZM140 -15T83 38T26 180Q26 208 32 239Q48 314 93 372T202 462T341 495Q451 495 503 437L513 480H664L562 0H416L427 52Q382 17 336 1T232 -15Q140 -15 83 38ZM342
102T384 126T452 194L471 285Q466 326 434 351T355 377Q294 377 247 339T187 239Q181 212 181 189Q181 145 207 124T291 102Q342 102 384 126Z" />
<glyph unicode="&#xe6;" glyph-name="ae" horiz-adv-x="964" d="M108 -15T59 20T10 116Q10 135 14 151Q30 231 93 275T253 320Q296 320 333 311T396 286L399 298Q402 312 402 322Q402 355 375 370T287 385Q200 385 118 352L142 462Q177 476 230 485T334 495Q450
495 505 429Q544 462 600 478T719 495Q791 495 841 469T915 399T940 301Q940 274 934 247L921 188H526Q525 94 677 94Q723 94 774 102T864 124L841 18Q803 3 747 -6T636 -15Q574 -15 525 4T443 60Q348 -15 188 -15Q108 -15 59 20ZM799 283Q801 299 801 305Q801
344 775 364T693 385Q636 385 598 358T547 283H799ZM277 85T309 98T364 136L375 186Q332 220 270 220Q228 220 202 203T169 151Q166 139 166 129Q166 107 183 96T240 85Q277 85 309 98Z" />
<glyph unicode="&#xe7;" glyph-name="ccedilla" horiz-adv-x="543" d="M177 -248T150 -245T109 -235L126 -158Q135 -164 150 -167T182 -171Q212 -171 229 -160T246 -126Q246 -87 156 -87L202 -10Q122 4 74 53T26 181Q26 209 32 239Q58 361 148 428T372 495Q429
495 475 484T550 451L525 332Q498 355 458 366T371 377Q301 377 252 343T187 239Q182 219 182 195Q182 146 213 124T311 102Q409 102 492 149L467 31Q410 -1 335 -10L312 -49Q346 -54 364 -74T382 -124Q382 -184 334 -216T208 -248Q177 -248 150 -245Z" />
<glyph unicode="&#xe8;" glyph-name="egrave" horiz-adv-x="604" d="M246 711H405L437 535H297L246 711ZM164 -15T95 37T26 183Q26 208 32 238Q58 359 139 427T359 495Q432 495 481 469T555 398T580 299Q580 273 574 247L561 186H165Q161 94 317 94Q363 94 414
102T504 124L481 18Q443 3 386 -6T274 -15Q164 -15 95 37ZM439 284Q441 298 441 305Q441 385 333 385Q276 385 238 358T186 284H439Z" />
<glyph unicode="&#xe9;" glyph-name="eacute" horiz-adv-x="604" d="M379 711H538L412 535H273L379 711ZM164 -15T95 37T26 183Q26 208 32 238Q58 359 139 427T359 495Q432 495 481 469T555 398T580 299Q580 273 574 247L561 186H165Q161 94 317 94Q363 94 414
102T504 124L481 18Q443 3 386 -6T274 -15Q164 -15 95 37ZM439 284Q441 298 441 305Q441 385 333 385Q276 385 238 358T186 284H439Z" />
<glyph unicode="&#xea;" glyph-name="ecircumflex" horiz-adv-x="613" d="M332 711H467L581 535H431L383 627L295 535H145L332 711ZM173 -15T104 37T35 183Q35 208 41 238Q67 359 148 427T368 495Q441 495 490 469T564 398T589 299Q589 273 583 247L570 186H174Q170
94 326 94Q372 94 423 102T513 124L490 18Q452 3 395 -6T283 -15Q173 -15 104 37ZM448 284Q450 298 450 305Q450 385 342 385Q285 385 247 358T195 284H448Z" />
<glyph unicode="&#xeb;" glyph-name="edieresis" horiz-adv-x="604" d="M212 545T196 560T179 601Q179 636 206 662T267 688Q292 688 308 672T324 631Q324 596 298 571T237 545Q212 545 196 560ZM448 545T431 561T414 601Q414 636 442 662T504 688Q529 688 545
672T561 630Q561 596 534 571T474 545Q448 545 431 561ZM164 -15T95 37T26 183Q26 208 32 238Q58 359 139 427T359 495Q432 495 481 469T555 398T580 299Q580 273 574 247L561 186H165Q161 94 317 94Q363 94 414 102T504 124L481 18Q443 3 386 -6T274 -15Q164 -15
95 37ZM439 284Q441 298 441 305Q441 385 333 385Q276 385 238 358T186 284H439Z" />
<glyph unicode="&#xec;" glyph-name="igrave" horiz-adv-x="257" d="M53 711H212L244 535H104L53 711ZM104 480H256L154 0H2L104 480Z" />
<glyph unicode="&#xed;" glyph-name="iacute" horiz-adv-x="257" d="M205 711H364L238 535H99L205 711ZM104 480H256L154 0H2L104 480Z" />
<glyph unicode="&#xee;" glyph-name="icircumflex" horiz-adv-x="257" d="M141 711H276L390 535H240L192 627L104 535H-46L141 711ZM104 480H256L154 0H2L104 480Z" />
<glyph unicode="&#xef;" glyph-name="idieresis" horiz-adv-x="257" d="M30 545T14 560T-3 601Q-3 636 24 662T85 688Q110 688 126 672T142 631Q142 596 116 571T55 545Q30 545 14 560ZM266 545T249 561T232 601Q232 636 260 662T322 688Q347 688 363 672T379
630Q379 596 352 571T292 545Q266 545 249 561ZM104 480H256L154 0H2L104 480Z" />
<glyph unicode="&#xf0;" glyph-name="eth" horiz-adv-x="631" d="M143 -15T83 36T23 171Q23 196 29 223Q52 331 136 393T336 455Q381 455 420 441T482 401Q488 436 488 465Q488 512 472 543L323 475L340 551L421 588Q393 598 358 598Q325 598 288 592T226 576L252
697Q277 704 315 709T384 714Q499 714 561 653L690 712L674 637L598 602Q625 548 625 465Q625 401 609 324Q586 216 534 140T409 25T249 -15Q143 -15 83 36ZM332 100T371 134T421 220Q425 242 425 250Q425 291 399 315T330 339Q270 339 233 308T183 220Q179 203
179 185Q179 144 203 122T279 100Q332 100 371 134Z" />
<glyph unicode="&#xf1;" glyph-name="ntilde" horiz-adv-x="615" d="M174 650Q217 693 286 693Q308 693 327 687T380 668Q406 656 426 650T469 643Q531 643 580 693L556 578Q515 536 446 536Q421 536 399 542T349 562Q319 575 302 580T264 586Q202 586 150 535L174
650ZM104 480H250L237 421Q278 458 327 476T427 495Q505 495 545 454T585 347Q585 328 580 301L517 0H366L426 284Q430 301 430 319Q430 349 413 363T360 377Q322 377 285 359T217 304L153 0H2L104 480Z" />
<glyph unicode="&#xf2;" glyph-name="ograve" horiz-adv-x="642" d="M259 711H418L450 535H310L259 711ZM196 -15T142 9T57 78T27 184Q27 212 33 240Q57 356 148 425T376 495Q488 495 552 442T616 297Q616 270 610 240Q585 122 495 54T267 -15Q196 -15 142 9ZM353
103T397 140T455 240Q460 267 460 285Q460 377 351 377Q289 377 245 341T188 240Q183 213 183 196Q183 103 292 103Q353 103 397 140Z" />
<glyph unicode="&#xf3;" glyph-name="oacute" horiz-adv-x="642" d="M401 711H560L434 535H295L401 711ZM196 -15T142 9T57 78T27 184Q27 212 33 240Q57 356 148 425T376 495Q488 495 552 442T616 297Q616 270 610 240Q585 122 495 54T267 -15Q196 -15 142 9ZM353
103T397 140T455 240Q460 267 460 285Q460 377 351 377Q289 377 245 341T188 240Q183 213 183 196Q183 103 292 103Q353 103 397 140Z" />
<glyph unicode="&#xf4;" glyph-name="ocircumflex" horiz-adv-x="662" d="M354 711H489L603 535H453L405 627L317 535H167L354 711ZM216 -15T162 9T77 78T47 184Q47 212 53 240Q77 356 168 425T396 495Q508 495 572 442T636 297Q636 270 630 240Q605 122 515 54T287
-15Q216 -15 162 9ZM373 103T417 140T475 240Q480 267 480 285Q480 377 371 377Q309 377 265 341T208 240Q203 213 203 196Q203 103 312 103Q373 103 417 140Z" />
<glyph unicode="&#xf5;" glyph-name="otilde" horiz-adv-x="656" d="M204 650Q247 693 316 693Q338 693 357 687T410 668Q436 656 456 650T499 643Q561 643 610 693L586 578Q545 536 476 536Q451 536 429 542T379 562Q349 575 332 580T294 586Q232 586 180 535L204
650ZM210 -15T156 9T71 78T41 184Q41 212 47 240Q71 356 162 425T390 495Q502 495 566 442T630 297Q630 270 624 240Q599 122 509 54T281 -15Q210 -15 156 9ZM367 103T411 140T469 240Q474 267 474 285Q474 377 365 377Q303 377 259 341T202 240Q197 213 197 196Q197
103 306 103Q367 103 411 140Z" />
<glyph unicode="&#xf6;" glyph-name="odieresis" horiz-adv-x="651" d="M232 545T216 560T199 601Q199 636 226 662T287 688Q312 688 328 672T344 631Q344 596 318 571T257 545Q232 545 216 560ZM468 545T451 561T434 601Q434 636 462 662T524 688Q549 688 565
672T581 630Q581 596 554 571T494 545Q468 545 451 561ZM205 -15T151 9T66 78T36 184Q36 212 42 240Q66 356 157 425T385 495Q497 495 561 442T625 297Q625 270 619 240Q594 122 504 54T276 -15Q205 -15 151 9ZM362 103T406 140T464 240Q469 267 469 285Q469 377
360 377Q298 377 254 341T197 240Q192 213 192 196Q192 103 301 103Q362 103 406 140Z" />
<glyph unicode="&#xf7;" glyph-name="divide" horiz-adv-x="409" d="M214 392T201 405T187 440Q187 470 210 492T262 514Q284 514 297 501T311 465Q311 437 288 415T236 392Q214 392 201 405ZM58 361H402L377 241H33L58 361ZM149 87T136 100T122 135Q122 165 145
187T197 209Q219 209 232 196T246 160Q246 132 223 110T171 87Q149 87 136 100Z" />
<glyph unicode="&#xf8;" glyph-name="oslash" horiz-adv-x="642" d="M123 18Q77 44 52 86T27 184Q27 210 33 240Q57 356 148 425T376 495Q389 495 415 493L460 566H579L516 464Q565 439 590 396T616 296Q616 270 610 240Q585 122 495 54T267 -15Q244 -15 223 -12L178
-86H59L123 18ZM343 377Q284 375 243 338T188 240Q183 213 183 195Q183 163 198 140L343 377ZM354 104T397 141T455 240Q460 267 460 284Q460 322 442 344L294 103Q354 104 397 141Z" />
<glyph unicode="&#xf9;" glyph-name="ugrave" horiz-adv-x="615" d="M243 711H402L434 535H294L243 711ZM113 -15T72 25T30 133Q30 160 35 181L99 480H250L189 197Q185 178 185 161Q185 130 202 117T256 103Q294 103 331 121T398 175L463 480H614L512 0H366L378
58Q338 21 289 3T189 -15Q113 -15 72 25Z" />
<glyph unicode="&#xfa;" glyph-name="uacute" horiz-adv-x="615" d="M380 711H539L413 535H274L380 711ZM113 -15T72 25T30 133Q30 160 35 181L99 480H250L189 197Q185 178 185 161Q185 130 202 117T256 103Q294 103 331 121T398 175L463 480H614L512 0H366L378
58Q338 21 289 3T189 -15Q113 -15 72 25Z" />
<glyph unicode="&#xfb;" glyph-name="ucircumflex" horiz-adv-x="615" d="M316 711H451L565 535H415L367 627L279 535H129L316 711ZM113 -15T72 25T30 133Q30 160 35 181L99 480H250L189 197Q185 178 185 161Q185 130 202 117T256 103Q294 103 331 121T398 175L463
480H614L512 0H366L378 58Q338 21 289 3T189 -15Q113 -15 72 25Z" />
<glyph unicode="&#xfc;" glyph-name="udieresis" horiz-adv-x="615" d="M207 545T191 560T174 601Q174 636 201 662T262 688Q287 688 303 672T319 631Q319 596 293 571T232 545Q207 545 191 560ZM443 545T426 561T409 601Q409 636 437 662T499 688Q524 688 540
672T556 630Q556 596 529 571T469 545Q443 545 426 561ZM113 -15T72 25T30 133Q30 160 35 181L99 480H250L189 197Q185 178 185 161Q185 130 202 117T256 103Q294 103 331 121T398 175L463 480H614L512 0H366L378 58Q338 21 289 3T189 -15Q113 -15 72 25Z" />
<glyph unicode="&#xfd;" glyph-name="yacute" horiz-adv-x="612" d="M389 711H548L422 535H283L389 711ZM124 -230T77 -221T1 -197L24 -86Q93 -120 195 -120Q267 -120 305 -87T364 12L381 69Q341 32 292 14T192 -4Q116 -4 75 36T33 144Q33 171 38 192L99 480H250L192
208Q188 189 188 172Q188 141 205 128T259 114Q297 114 334 132T401 186L463 480H614L519 31Q492 -97 411 -163T172 -230Q124 -230 77 -221Z" />
<glyph unicode="&#xfe;" glyph-name="thorn" horiz-adv-x="665" d="M150 699H301L245 437Q283 465 332 480T433 495Q493 495 539 471T612 403T639 299Q639 271 633 241Q608 124 527 55T324 -15Q273 -15 231 0T162 43L106 -219H-45L150 699ZM372 103T419 141T479
241Q483 260 483 281Q483 327 455 352T370 377Q323 377 281 352T213 286L194 195Q200 153 232 128T311 103Q372 103 419 141Z" />
<glyph unicode="&#xff;" glyph-name="ydieresis" horiz-adv-x="612" d="M224 545T208 560T191 601Q191 636 218 662T279 688Q304 688 320 672T336 631Q336 596 310 571T249 545Q224 545 208 560ZM460 545T443 561T426 601Q426 636 454 662T516 688Q541 688 557
672T573 630Q573 596 546 571T486 545Q460 545 443 561ZM124 -230T77 -221T1 -197L24 -86Q93 -120 195 -120Q267 -120 305 -87T364 12L381 69Q341 32 292 14T192 -4Q116 -4 75 36T33 144Q33 171 38 192L99 480H250L192 208Q188 189 188 172Q188 141 205 128T259
114Q297 114 334 132T401 186L463 480H614L519 31Q492 -97 411 -163T172 -230Q124 -230 77 -221Z" />
<glyph unicode="&#x2013;" glyph-name="endash" horiz-adv-x="656" d="M58 361H650L625 241H33L58 361Z" />
<glyph unicode="&#x2014;" glyph-name="emdash" horiz-adv-x="795" d="M58 361H788L763 241H33L58 361Z" />
<glyph unicode="&#x2018;" glyph-name="quoteleft" horiz-adv-x="271" d="M215 714H340L233 516H91L215 714Z" />
<glyph unicode="&#x2019;" glyph-name="quoteright" horiz-adv-x="275" d="M198 714H343L220 516H91L198 714Z" />
<glyph unicode="&#x201a;" glyph-name="quotesinglbase" horiz-adv-x="275" d="M62 71H207L84 -127H-45L62 71Z" />
<glyph unicode="&#x201c;" glyph-name="quotedblleft" horiz-adv-x="453" d="M215 714H338L231 516H91L215 714ZM399 714H522L415 516H275L399 714Z" />
<glyph unicode="&#x201d;" glyph-name="quotedblright" horiz-adv-x="453" d="M198 714H338L215 516H91L198 714ZM382 714H522L398 516H275L382 714Z" />
<glyph unicode="&#x201e;" glyph-name="quotedblbase" horiz-adv-x="453" d="M62 71H202L79 -127H-45L62 71ZM246 71H386L262 -127H139L246 71Z" />
<glyph unicode="&#x2022;" glyph-name="bullet" horiz-adv-x="261" d="M87 199T65 221T43 277Q43 308 60 335T106 379T165 396Q201 396 222 375T244 320Q244 288 227 260T182 216T123 199Q87 199 65 221Z" />
<glyph unicode="&#x2039;" glyph-name="guilsinglleft" horiz-adv-x="387" d="M47 307L54 342L342 556L404 467L208 324L343 183L243 93L47 307Z" />
<glyph unicode="&#x203a;" glyph-name="guilsinglright" horiz-adv-x="387" d="M20 183L215 324L81 467L181 556L377 342L370 307L82 93L20 183Z" />
</font>
</defs>
</svg>
