<?xml version="1.0" standalone="no"?>
<!DOCTYPE svg PUBLIC "-//W3C//DTD SVG 1.1//EN" "http://www.w3.org/Graphics/SVG/1.1/DTD/svg11.dtd">
<svg xmlns="http://www.w3.org/2000/svg">
<defs >
<font id="SeaweedScript" horiz-adv-x="370" ><font-face
    font-family="Seaweed Script"
    units-per-em="1024"
    panose-1="2 0 0 0 0 0 0 0 0 0"
    ascent="969"
    descent="-421"
    alphabetic="0" />
<glyph unicode=" " glyph-name="space" horiz-adv-x="317" />
<glyph unicode="!" glyph-name="exclam" horiz-adv-x="314" d="M340 749Q349 750 354 745Q364 744 374 744T395 743Q398 743 401 743T407 742Q415 738 420 727T418 707Q420 699 418 694T415 681Q405 664 398 648T379 617Q375 608 373 604T369 595Q367 590 364
587T358 578Q353 568 349 560T339 543Q330 525 319 508T301 471Q296 463 292 454T282 436Q277 428 273 419T263 401L248 378Q246 373 245 369T241 359Q237 349 234 340T225 322Q220 312 216 304T206 288Q201 279 198 270T186 254Q184 245 180 239T173 225Q164 204
153 185T130 145Q123 141 117 136T99 130Q94 129 91 130T84 134Q74 137 72 141T67 147Q67 152 67 157T65 166Q73 189 81 213T100 261Q105 271 110 280T121 299Q126 308 129 318T138 337Q148 357 153 377T169 415Q175 432 182 448T196 481Q204 501 208 503Q207 506
209 510T213 518Q215 528 219 535Q224 551 229 565T243 592Q245 600 247 606T252 621Q254 628 256 634T261 646Q263 656 266 667T273 689Q279 703 284 715T298 735Q301 738 305 741T314 746Q321 748 327 747T340 749ZM61 84Q74 86 81 82Q88 76 89 76T91 76Q104
69 108 51T105 18Q94 2 87 -6T69 -19Q61 -24 55 -27T38 -28Q8 -24 1 -9T-4 23Q-2 32 1 38Q3 42 4 44T8 49Q22 68 44 79Q49 81 52 82T61 84Z" />
<glyph unicode="&quot;" glyph-name="quotedbl" horiz-adv-x="266" d="M172 481Q169 479 163 473Q147 468 139 471T133 486Q134 495 139 510T150 542T163 576T174 606Q176 611 176 616T178 626Q188 652 198 674T216 716Q227 730 241 738T267 746Q272 742 281 741T294
734Q299 729 298 726T292 711Q287 698 280 681T263 644Q257 632 249 619T233 593Q217 563 203 534T172 481ZM384 738Q406 738 419 728Q411 693 398 665T371 610Q359 583 341 550T308 488Q305 485 302 483T296 477Q279 469 271 476T264 501Q265 509 270 524T282
555Q290 581 298 602T316 649Q318 654 319 659T325 669Q322 682 334 698T354 726Q362 731 369 733T384 738Z" />
<glyph unicode="#" glyph-name="numbersign" horiz-adv-x="637" d="M639 727Q644 731 648 730T657 729Q658 724 661 721T666 712Q654 686 645 672T629 640Q623 631 622 624T615 612Q613 604 610 598T602 583Q600 578 598 574T598 563Q593 554 588 547T580 528Q593
527 605 534T634 541Q638 541 641 540T648 539Q652 538 657 539T667 541Q672 542 677 542T687 542Q697 543 699 540T707 539Q711 537 712 532T719 525Q720 514 716 510T706 498Q702 492 700 487T695 477Q691 472 686 472T674 470Q660 472 646 470T619 465T592 462T565
466Q558 465 553 466T541 465Q530 441 521 413T497 364Q489 343 478 320T459 275Q491 269 520 275T581 280Q588 280 595 280T610 279Q618 266 617 261T614 253T607 246T599 239Q590 227 584 215Q582 211 581 207T575 201Q558 202 547 199T525 196Q520 196 517 197T508
198Q488 198 471 197T433 198Q428 198 424 199T414 198Q414 185 415 177T410 167Q408 159 404 154T397 142Q393 130 390 118T382 93Q380 89 379 86T377 78Q376 63 372 55T365 39Q360 29 357 20T346 5Q341 5 336 4T324 3Q315 5 308 12T293 24Q282 30 279 35T276
46Q278 55 284 64T293 82Q309 114 322 143T349 201Q325 203 303 203T257 202Q252 202 248 201T238 200Q228 199 220 199T204 198Q199 188 196 178T188 157Q184 146 179 137T168 119Q168 111 164 108Q156 87 147 67T132 23Q124 13 122 12T118 9Q103 -6 96 0T81 12Q77
23 73 30T65 44Q67 65 76 80T92 112Q97 125 102 137T115 161Q121 177 125 181T129 194Q115 199 102 195T75 193Q65 194 52 198Q48 200 45 201T40 204Q36 202 34 203T28 206Q22 214 21 221T23 239Q25 249 27 251T34 261Q69 261 100 261T158 260Q164 269 167 279T175
301Q181 315 189 333T205 366Q214 386 222 411T239 459Q226 463 210 462T177 459Q167 458 157 458T137 456Q132 455 126 455T117 458Q110 464 111 470T113 484Q115 489 119 494T122 506Q129 518 129 518Q155 523 187 522T248 523Q252 523 257 523T264 525Q267 527
271 536T279 548Q284 554 286 559T292 570Q300 583 307 593T319 616Q324 622 326 630T334 643Q342 662 344 672T352 692Q357 703 363 711T379 724Q395 730 403 730T417 721Q429 715 431 710Q430 704 430 698T426 689Q421 677 416 666T406 644Q389 612 378 585T353
530Q368 530 382 529T413 528Q424 529 435 528T458 528Q472 528 485 530T513 531Q521 547 527 562T542 593Q560 628 578 663T616 734Q625 734 629 732T638 732L639 727ZM470 463Q466 465 463 465T456 463Q445 462 433 461T413 456Q405 458 399 458T384 457Q365
456 348 458T315 459Q305 436 299 417T286 384Q283 379 279 373Q273 363 269 354T258 335Q250 323 244 305T232 273Q244 267 256 268T282 270Q295 272 301 272T312 272Q319 274 326 274T340 276Q351 276 364 275T389 275Q409 320 431 371T476 464L470 463Z" />
<glyph unicode="$" glyph-name="dollar" horiz-adv-x="404" d="M436 654Q442 652 449 652T461 650Q465 648 468 647T476 644Q480 643 484 638T490 631Q499 623 498 623T497 620Q499 616 501 615T506 612Q510 606 504 600T497 589Q495 585 494 583T487 579Q477
574 474 574T468 574Q460 574 452 578T436 582Q431 585 424 584T414 588Q404 585 391 586T366 586Q345 585 332 583T305 577Q294 573 291 570T284 564Q280 561 277 558T269 553Q264 545 259 535T250 514Q249 510 250 502T256 489Q257 479 262 471T272 455Q286 440
291 432T304 418Q311 410 316 402T330 388Q334 381 338 375T346 360Q353 349 364 340T377 314Q379 306 382 298T384 279Q381 265 380 253T376 230Q374 223 373 217T369 204Q367 196 365 187T357 173Q354 167 350 161T342 148Q333 135 323 125T298 105Q288 99 281
96T265 89Q257 86 248 83T230 77Q225 75 220 73T208 71Q200 69 191 69T173 70Q168 59 162 51T151 33Q143 30 140 23T131 11Q124 0 119 -7T108 -20Q106 -27 101 -28T91 -24Q88 -19 85 -10T82 6Q91 28 98 41T110 65Q113 73 115 75T117 82Q67 97 45 148Q40 153 37
161T29 173Q28 178 26 180T22 188Q17 190 14 195T10 206Q13 217 12 221T12 230Q22 235 25 241T34 253Q33 258 35 264Q41 266 45 264T55 259Q70 244 76 235T88 216T101 199T117 185Q120 179 126 175T137 166Q140 163 144 160T154 156Q159 152 165 150T177 143Q191
143 201 145T223 153Q236 157 242 161Q246 165 249 169T256 176Q267 187 278 198T297 224Q307 247 303 276T292 333Q280 344 268 353T246 377Q243 379 237 385Q229 392 222 399T206 416Q201 421 193 427T183 440Q181 445 180 451T177 462Q175 471 174 479T173 496Q173
504 174 511T174 527Q172 545 180 558T195 584Q200 592 204 600T216 615Q220 616 222 619T228 624Q233 624 234 626T241 629Q253 636 259 638T271 644Q275 645 278 645T284 648Q288 647 291 648T297 650Q305 652 313 652T330 652Q340 653 349 655T370 657Q379 674
385 692T403 724Q404 729 407 733T413 743Q418 754 425 758Q430 767 434 766T443 762Q450 756 452 746T457 725Q458 715 456 706T449 688T441 671T436 654Z" />
<glyph unicode="%" glyph-name="percent" horiz-adv-x="613" d="M609 722Q618 734 628 736T649 740Q656 736 659 731Q661 728 661 725T664 718Q669 711 675 706T679 688Q678 685 676 680T671 671Q669 667 664 664T655 656Q647 648 639 640T622 625Q615 616 608
610T594 596Q586 583 575 575Q559 558 545 539T513 502Q495 473 477 450Q452 430 433 401T392 346Q388 341 384 337T377 325Q370 318 364 311T352 297Q346 291 340 285T327 272L311 256Q306 250 301 244T289 231Q260 207 234 176Q229 170 226 162T217 147Q209 141
204 134T190 121Q176 100 160 86Q151 78 142 71T124 56Q116 54 110 49T95 42Q91 37 86 33T75 23Q72 19 71 15T65 7Q60 4 54 1T43 -3Q34 -4 29 0T18 7Q17 12 16 18T15 31Q21 42 28 46Q41 65 56 81T88 114Q105 129 119 146T150 178Q160 190 169 201T190 223Q195 230
200 236T211 250Q216 256 221 263T231 276Q244 301 261 318T296 356Q312 376 329 395T361 435Q371 446 380 457T398 480Q418 502 431 518T458 550Q472 570 489 589T521 629Q527 637 535 643T550 657Q536 654 522 651T494 643Q487 639 483 639Q480 638 476 636T466
634Q459 634 452 638T440 645Q428 647 426 642T420 631Q412 617 406 608T395 590Q393 585 391 581T387 571Q381 561 373 553T359 534Q348 523 340 512T321 489Q317 486 314 484T307 479Q300 473 294 466T280 452Q267 444 256 436T230 421Q225 418 221 416T211 413Q205
410 199 406T185 398Q171 401 155 405T128 417Q107 442 100 476Q102 493 105 510T115 543Q117 548 119 552T123 561Q129 575 135 588T152 613Q169 635 189 654T233 688Q241 693 248 698T263 708Q280 717 297 725Q308 730 319 734T341 743Q352 741 364 748T392 754Q415
753 430 741Q436 736 441 731T449 717Q456 712 462 705T476 693Q484 690 492 690T511 692Q524 694 538 695T564 700Q579 707 589 712T609 722ZM381 698Q361 693 345 686T313 668Q296 657 277 646T242 622Q232 614 224 608T209 593Q202 585 195 573T180 550Q175
544 171 537T164 520Q163 513 163 500T167 483Q171 481 174 481T183 482Q191 480 198 480Q207 481 214 486T230 496Q240 501 251 510Q261 517 272 525T291 541Q296 546 300 550T310 560Q319 568 327 575T342 590Q349 604 354 614T366 635Q369 642 372 648T378 659Q380
667 380 673T381 685Q381 688 382 691T381 698ZM573 172Q562 154 553 138T530 103Q524 94 516 86Q510 78 506 72T494 57Q489 53 484 49T473 40Q465 33 458 27T439 14Q435 12 431 10T421 6Q405 -2 389 -6Q384 -7 379 -8T366 -8Q351 -5 347 -6T337 -7Q317 -5 307
3T291 26Q290 38 289 49T287 74Q286 95 295 121T314 168Q319 179 324 190T338 209Q343 213 346 216T354 224Q359 228 362 232T370 240Q374 245 380 248T391 256Q396 260 402 263T414 271Q425 279 435 288T456 303Q468 310 480 313T504 325Q520 330 530 333T551
339Q555 340 559 341T568 341Q575 339 579 335T587 325Q590 323 593 322T598 315Q601 310 602 304T605 290Q607 283 608 276T609 261Q606 237 597 215T573 172ZM553 285Q549 283 546 281T538 276Q524 273 511 265Q504 262 498 259T485 252Q481 250 477 249T468
246Q457 240 448 231T429 212Q418 199 412 191T398 171Q393 164 389 158T380 143Q375 132 373 120T367 94Q362 80 365 74T372 57Q374 52 374 47T377 36Q384 38 393 40T410 42Q421 47 428 55T445 69Q453 74 458 78T470 88Q478 96 484 105T499 122Q506 134 516 146T535
171Q546 188 555 208T567 250Q560 255 559 265T553 285Z" />
<glyph unicode="&amp;" glyph-name="ampersand" horiz-adv-x="566" d="M458 752Q470 756 478 755T495 757Q505 747 508 745T514 740Q522 732 527 722T537 701Q539 696 538 691T537 681Q537 675 537 669T537 655Q533 647 532 637T528 617Q526 611 522 605T512 592Q510
590 507 587T501 582Q499 576 494 573T485 566Q479 559 477 558T472 555Q469 553 467 552T463 548Q445 533 436 527T418 513Q409 504 398 497Q378 477 359 457T319 419Q321 404 321 388T323 356Q323 351 323 347T324 339Q322 332 323 330T324 325Q323 318 323 316T324
312Q324 299 326 296T331 288Q330 284 332 281T332 274Q337 266 340 256T348 238Q353 216 364 199T383 163Q391 153 392 148T396 139Q413 152 428 166T461 191Q482 206 497 221T531 248Q539 260 546 273T550 300Q538 294 531 294T519 289Q510 288 504 284T490 275Q480
268 475 264T464 249Q453 241 445 228T426 204Q420 218 422 227T430 245Q443 262 450 269Q458 278 458 280T460 284Q475 299 483 306Q500 323 512 332T537 350Q547 347 557 353T577 357Q586 351 588 349T592 343Q594 341 596 339T600 335Q602 333 603 330T606 324Q605
313 607 307Q608 301 607 294T601 280Q592 252 581 242T559 218Q549 208 542 202T526 190Q518 181 510 174T493 157Q480 146 468 136T443 115Q436 110 431 104T419 93Q421 84 427 78T431 61Q433 56 435 52T439 42Q445 35 446 24T451 2Q459 -31 475 -56Q463 -67
454 -63Q448 -55 441 -52T424 -45Q417 -37 416 -37T415 -37Q410 -32 409 -26T403 -15Q400 -10 396 -8T387 -1Q376 12 368 23T352 46Q346 46 343 44T334 40Q318 32 307 27T285 16Q273 10 262 4T239 -10Q224 -14 218 -14T206 -14Q200 -15 194 -17T181 -18Q168 -14
162 -14T151 -13Q141 -13 139 -10Q130 -8 121 -6T102 -1Q90 1 86 3T79 8Q64 17 58 22T48 36Q34 51 25 68T8 103Q4 112 2 122T-6 142Q-7 145 -8 148T-10 157Q-10 159 -9 163T-5 173Q-4 177 -3 180T0 186Q1 189 2 192T3 199Q9 207 12 217T24 236Q26 244 32 248Q34
254 39 257Q41 262 45 265T55 272Q63 281 69 288T84 300Q94 312 105 319T122 336Q125 338 129 340T135 347Q154 360 166 377T198 407Q213 420 229 432T261 459Q265 471 264 480T263 499Q268 534 275 563Q273 566 275 572T279 583Q284 599 289 609T300 630Q308 635
312 644Q317 652 324 658T335 671Q340 674 342 678T350 685Q355 693 363 698T380 711Q388 719 397 725T419 736Q426 744 436 747T458 752ZM133 258Q128 251 123 245T112 231Q105 226 104 225T104 223Q99 216 92 210T81 194Q79 188 79 182T78 171Q79 151 81 143T84
126Q90 109 93 101T97 84Q101 78 103 76T109 75Q117 69 122 65T134 57Q136 56 139 55T145 54Q154 56 162 57T179 60Q188 61 198 63T218 66Q222 66 230 68Q253 70 266 73T291 78Q298 83 306 86T324 94Q322 105 318 115T312 136Q305 156 302 166T295 188Q287 207
283 225T276 262Q275 268 275 275T273 289Q272 293 272 296T270 305Q268 322 268 339T266 374Q238 358 215 337T170 295Q158 285 150 277T136 261L133 258ZM324 516Q326 520 328 521T333 526Q347 541 354 545Q359 552 366 556T379 568Q389 578 398 584Q410 595
418 603T436 622Q439 632 442 635T447 643Q451 653 453 661T455 675Q444 682 443 685T437 689Q433 689 428 686T421 682Q408 675 397 673Q395 670 392 669T387 664Q380 661 379 660T376 656Q374 654 371 652T365 648Q360 643 358 638T351 626Q346 618 341 611T333
595Q331 587 330 578T326 561Q325 554 324 548T322 535Q321 530 320 524T322 516H324Z" />
<glyph unicode="&apos;" glyph-name="quotesingle" horiz-adv-x="144" d="M172 481Q169 479 163 473Q147 468 139 471T133 486Q134 495 139 510T150 542T163 576T174 606Q176 611 176 616T178 626Q188 652 198 674T216 716Q227 730 241 738T267 746Q272 742 281
741T294 734Q299 729 298 726T292 711Q287 698 280 681T263 644Q257 632 249 619T233 593Q217 563 203 534T172 481Z" />
<glyph unicode="(" glyph-name="parenleft" horiz-adv-x="278" d="M66 -43Q62 -41 62 -37T60 -28Q56 -14 55 -2Q54 6 54 14T54 31Q49 62 51 99T61 174Q63 183 65 193T71 213Q75 223 77 232T81 250Q83 256 86 261T91 273Q93 285 95 292Q100 304 106 317T117 345Q125
364 131 382T147 419Q153 429 159 438T172 458Q178 468 183 477T195 497Q213 523 233 549T276 604Q311 646 345 687T422 764Q429 766 431 764T439 758Q443 755 448 753T451 743Q450 739 446 733T436 722Q425 707 412 694T388 666Q380 656 373 646T358 625Q354 619
350 614T343 604Q336 593 330 585T318 565Q313 557 310 550T303 535Q300 528 296 522T289 511Q281 497 274 483T261 456Q258 451 255 446T249 436Q244 428 239 419T228 400Q224 391 222 383T214 365Q212 361 210 359T206 353Q202 346 199 338T191 323Q174 285 159
246T133 172Q131 169 131 166T129 161Q126 151 126 144T123 126Q121 119 121 114T120 100Q118 92 118 84T116 66Q114 46 116 32T118 1Q118 -4 120 -14Q121 -19 121 -24T119 -33Q115 -38 108 -39T95 -45Q86 -46 80 -44T66 -43Z" />
<glyph unicode=")" glyph-name="parenright" horiz-adv-x="283" d="M304 762Q307 760 307 756T309 748Q310 742 311 735T314 721Q315 713 315 705T315 689Q320 657 318 620T308 545Q305 523 298 506Q295 496 293 487T289 469Q287 464 284 458T279 445Q277 440
276 436T273 427Q269 415 264 402T253 374Q245 355 238 337T222 301Q217 290 211 281T198 261Q191 251 186 242T175 223Q157 195 137 170T93 116Q58 72 24 31T-53 -45Q-59 -47 -62 -45T-71 -39Q-75 -36 -79 -34T-82 -24Q-80 -19 -76 -14T-68 -3Q-55 12 -43 25T-18
53Q-10 63 -4 73T11 94Q15 99 19 105T27 116Q34 126 40 135T51 155Q55 162 58 169T67 184Q70 191 74 197T81 208Q89 223 95 236T109 263Q111 268 114 273T121 283Q126 292 131 301T140 319Q145 328 148 337T156 355Q158 357 159 360T163 366Q167 373 170 381T177
396Q195 434 210 474T237 547Q238 550 239 553T241 558Q243 568 243 575T246 593Q248 600 248 605T250 618Q252 627 252 635T253 653Q256 673 254 687T252 718Q252 722 251 725T250 733Q249 738 249 743T251 752Q255 757 261 758T273 764Q283 765 289 763T304 762Z"
/>
<glyph unicode="*" glyph-name="asterisk" horiz-adv-x="355" d="M394 744Q389 738 390 731T390 719Q386 701 376 687T356 657Q350 646 345 636T334 615Q353 617 367 621T397 629Q408 631 420 634T443 641Q449 641 455 642T467 645Q483 642 488 639Q490 625 483
607T466 574Q459 570 452 574Q440 572 429 575T406 577Q401 577 397 578T388 577Q370 571 360 572T338 571Q342 564 342 562T342 557Q344 553 347 551T354 545Q360 537 362 532Q371 527 381 524T397 515Q405 506 408 506T415 503Q412 496 410 492T403 486Q395 471
384 461Q382 459 379 458T373 455Q370 453 364 445Q357 440 350 437T338 426Q329 424 325 427T318 435Q317 457 313 476T303 516Q301 525 299 534T291 548Q279 537 270 525T251 500Q232 478 219 457T191 414Q186 413 180 413Q178 416 174 417T169 423Q160 424 156
427T147 435Q144 440 142 443T138 454Q134 459 134 462T134 467Q143 474 142 474T143 477Q163 488 183 499T220 524Q243 538 263 560Q253 562 245 561T227 560Q219 561 211 562T194 561Q182 559 170 556T145 554Q140 547 134 549T128 558Q128 565 131 575T139 596Q142
604 145 611T154 626Q157 630 161 633T167 642Q175 646 179 647Q181 645 184 645T191 642Q196 640 199 637T207 631Q226 629 234 624T254 617Q259 613 267 612T283 610Q284 618 286 626T291 643Q293 653 294 662T298 680Q300 693 300 704T307 729Q316 733 325 733T343
733Q356 734 369 739T394 744Z" />
<glyph unicode="+" glyph-name="plus" horiz-adv-x="472" d="M364 515Q368 507 368 502T369 492Q367 488 367 486T365 479Q360 470 356 463T348 446Q343 435 336 422T321 396Q316 382 309 368T295 340Q312 344 325 345T349 345Q354 345 360 345T371 344Q380 343
389 343T409 345Q421 346 432 345T454 343Q463 332 460 323T449 304Q435 302 426 299T409 296Q402 293 396 293T382 291Q379 289 375 288T368 284Q354 282 349 283T339 284Q329 285 320 285T300 285Q296 285 293 285T286 284Q281 283 276 283T265 282Q257 259 246
236T227 189Q224 177 219 169Q217 164 213 156Q211 149 210 144T206 132Q204 127 202 123T196 113Q191 109 186 105T175 99Q168 99 162 97T150 97Q139 94 139 95T136 99Q131 103 131 107T131 113Q130 116 131 120T133 129Q147 155 159 181Q161 186 162 190T166
198Q168 204 168 208T171 218Q176 232 186 246T202 280Q170 277 143 276T90 281Q75 282 69 288T65 304Q62 310 64 313T69 321Q75 328 76 328T78 328Q91 335 94 332Q102 333 112 334T131 336Q139 335 146 335T158 334Q178 336 194 336T227 337Q231 344 233 351T240
367Q244 374 248 381T257 396Q265 413 271 429T288 458Q296 470 299 478T309 494Q313 499 318 503T327 512Q333 515 338 518T349 524Q359 526 365 525L364 515Z" />
<glyph unicode="," glyph-name="comma" horiz-adv-x="136" d="M-25 -40Q-11 -32 1 -17Q-8 -16 -17 -10T-30 9Q-32 22 -29 38T-17 61Q-15 65 -11 68T-4 75Q9 88 26 83Q31 82 35 82T42 84Q46 82 49 80T55 76Q57 68 61 61T65 45Q65 34 60 23T53 1Q47 -2 45 -10T39
-26Q31 -33 24 -40T11 -55Q3 -57 -4 -62Q-7 -65 -8 -68T-12 -71Q-14 -71 -17 -69T-22 -65Q-22 -58 -24 -55T-26 -50L-25 -40Z" />
<glyph unicode="-" glyph-name="hyphen" horiz-adv-x="409" d="M398 336Q396 332 397 330T396 323Q394 319 391 316T385 308Q380 300 378 294T369 283Q358 281 347 279T325 275Q316 275 303 274T280 275Q270 276 267 276T261 276Q247 276 230 273T197 269Q186
270 176 271T151 270Q140 268 137 268T131 268Q126 267 122 267T113 265Q108 263 102 261T89 260Q86 260 84 262T77 266Q72 268 68 269T61 275Q63 282 64 291T73 310Q75 312 78 315T84 322Q88 327 89 329T96 336Q101 338 105 338T115 342Q123 340 131 341T144 338Q159
338 172 336T202 334Q212 334 221 335T243 338H278Q286 338 294 339T312 340Q321 341 329 340T345 338Q353 339 363 340T383 342Q388 340 392 340T398 336Z" />
<glyph unicode="." glyph-name="period" horiz-adv-x="139" d="M22 88Q24 86 28 85T34 81Q39 83 44 81T54 77Q57 70 65 62Q68 51 68 41T65 22Q57 15 54 7T44 -7Q39 -12 33 -15T19 -23Q6 -27 -2 -24T-18 -14Q-28 -5 -30 9T-28 37T-17 64T-2 82Q4 84 9 85T22 88Z" />
<glyph unicode="/" glyph-name="slash" horiz-adv-x="388" d="M593 741Q574 717 555 690T512 636Q482 600 447 565T388 496Q383 486 377 477T365 459Q353 443 349 437T340 424Q317 396 291 367T242 308Q218 278 192 249T141 191Q124 171 108 151T76 113Q65 99
55 87T36 62Q20 47 4 30T-30 4Q-35 2 -41 -1T-54 -6Q-59 -8 -67 -11T-78 -13Q-82 -5 -84 -5T-88 -2Q-93 2 -92 5T-82 20Q-78 25 -75 29T-69 37Q-59 48 -48 58T-26 80Q-15 91 -5 104T15 129Q31 149 46 169T79 212L115 257Q123 268 131 280T148 303Q161 315 172 328Q189
345 206 365T238 402Q252 419 266 436T295 471Q322 503 352 536T408 602Q416 610 422 619T436 636Q444 645 452 653T468 671Q479 683 487 695T509 720Q511 722 514 724T521 729Q525 733 528 737T536 743Q538 745 541 747T550 752Q557 756 560 758T568 760Q571 760
576 760T584 758Q586 756 585 753T585 745L593 741Z" />
<glyph unicode="0" glyph-name="zero" horiz-adv-x="535" d="M512 724Q519 722 522 718T531 709Q536 704 541 700T552 689Q561 680 568 671T581 647Q586 634 588 618T591 583T591 547T589 514Q584 494 581 475T569 435Q567 430 566 424T562 411Q559 400 557 389T552
367Q550 356 546 346T538 324Q526 305 517 284T497 242Q494 236 490 230T482 218Q479 212 476 206T469 194Q459 177 447 160T424 126Q399 104 373 85T326 40Q313 33 305 27Q299 19 295 15Q281 6 275 1T262 -8Q243 -14 234 -19T215 -25Q202 -24 190 -20T166 -12Q156
-7 156 -7T153 -8Q136 3 121 16T94 46Q88 58 84 73L75 100Q73 108 72 115T68 131Q63 145 61 159T55 189Q54 194 52 197T48 203Q47 215 46 218T43 223Q42 226 42 230T41 238Q40 257 46 275Q45 281 45 286T47 298Q49 303 50 307T54 316Q56 321 56 325T59 333Q68 351
73 361T83 381Q87 401 95 417T114 447T134 476T154 506Q170 529 184 547T212 584Q226 602 243 617T278 647Q284 652 289 657T301 667Q307 672 313 677T326 686Q331 689 337 692T349 698Q356 702 365 707T382 715Q388 717 395 719T408 726Q413 726 418 728T429 731Q435
733 441 733T455 735Q462 735 468 735T481 733Q486 732 497 732T512 724ZM497 508Q498 512 498 515T499 522Q494 534 497 547T503 573Q499 581 498 589T493 604Q480 618 476 625T468 641Q461 646 451 646T433 646Q420 648 417 646T409 644Q399 642 390 641T372
637Q363 629 355 622T339 606Q335 601 331 597T322 587Q317 582 313 577T303 566Q292 552 281 538T259 508Q245 487 229 470T200 430Q192 418 185 405T169 378Q167 376 167 373T164 367Q162 363 160 360T155 354Q153 351 153 348T151 342Q149 339 147 337T144 332Q143
330 143 327T143 321Q138 306 139 300T138 286Q134 275 134 270T134 258Q132 230 129 203T131 152Q136 146 137 138T142 123Q146 117 148 113Q153 103 158 99T172 87Q182 75 186 75T199 74Q205 74 211 74T223 75Q231 77 238 80T252 88Q272 99 292 111T332 134Q338
146 345 156T360 175Q364 179 366 182T372 188Q381 202 392 213T412 241Q422 255 430 273Q435 282 438 290T444 307Q450 317 451 322T455 332Q457 337 457 340T460 349Q464 357 464 360T464 365Q468 375 471 384T476 404Q481 417 485 431T494 460Q486 468 490 482T497
508Z" />
<glyph unicode="1" glyph-name="one" horiz-adv-x="364" d="M162 77Q183 76 196 75T223 74Q225 72 226 68T231 62Q239 47 235 40T223 22Q220 17 218 14T216 4Q210 4 206 -1T195 -1Q187 -3 181 -3T169 -4Q157 -6 157 -6T155 -5Q141 -3 129 -3T104 -7Q90 -3 88 -3T84
-5T82 -8T77 -12Q51 -16 32 -27Q27 -26 19 -30Q12 -29 9 -32T-1 -35Q-6 -32 -9 -22T-8 -6Q-12 12 -9 21T3 43Q18 57 33 57T57 63Q76 96 85 123T105 182Q106 188 109 192T114 202Q119 213 121 222T128 238Q129 244 132 252T138 270T144 287T150 301Q157 306 160
308Q163 310 164 313T168 318Q173 329 174 334T181 344Q189 364 198 376Q201 383 203 389T210 400Q210 405 212 406T213 413Q218 420 221 427T228 443Q236 464 242 478T256 507Q261 516 263 524T270 538Q270 543 271 547T275 556Q277 559 279 563T284 569Q294 589
303 603T319 635Q310 634 305 630T291 622Q284 616 274 612Q266 607 259 602T243 593Q238 591 231 591T220 588Q205 586 199 596T197 618Q198 621 199 623T202 629Q203 632 203 636T206 642Q208 646 211 647T216 652Q233 657 240 662T253 672Q264 677 274 682T294
692Q307 700 317 707T338 721Q341 729 348 733T362 742Q365 744 369 747T374 754Q378 755 379 757T385 758Q394 755 396 755T401 754Q404 753 404 751T402 747T399 742T401 736Q403 734 410 731T419 726Q422 716 422 714T425 708Q426 703 425 697T425 685Q426 675
423 664Q422 660 422 658T421 652Q414 627 404 608T385 570Q383 565 381 561T376 553Q371 545 367 537T357 521Q350 502 341 485T322 450Q309 430 300 409T279 368Q267 351 258 339T239 312Q237 288 229 268T213 227Q206 205 197 185T182 142Q174 122 170 106T162
77Z" />
<glyph unicode="2" glyph-name="two" horiz-adv-x="471" d="M121 71Q139 76 154 78T177 86Q190 90 198 92T215 99Q223 99 230 99T245 100Q259 100 268 100T285 99Q293 97 302 94T322 92Q334 94 343 94T365 92Q369 90 372 89T380 85Q388 82 397 82T417 78Q419 74
418 72T416 65Q416 61 417 58T419 52Q420 45 420 44T419 38Q425 24 419 15T402 1Q385 5 366 9T328 14Q298 15 266 14T206 7Q201 5 195 4T183 1Q172 -3 162 -5T141 -12Q132 -14 122 -16T100 -22Q95 -23 90 -25T80 -27Q70 -28 60 -26T45 -16Q33 -11 27 2T13 29Q11
33 11 35T8 42Q2 53 6 62T15 84Q23 97 29 106T41 123Q45 128 48 132T54 141Q58 146 62 150T69 159Q71 162 72 165T75 171Q77 173 79 174T84 178Q99 193 113 209T145 239Q152 248 159 256T174 272Q192 287 206 304T242 334Q247 339 252 342T262 351Q267 356 271
362T281 373Q287 378 294 382T306 393Q311 398 315 404T324 415Q336 430 349 446T378 476Q393 499 409 520T443 564Q445 569 448 574T454 585Q456 594 456 604T456 626Q459 644 452 654T444 676Q442 678 438 679T432 677Q430 680 426 681T416 682Q411 682 405 681T396
678Q388 681 382 680T371 679Q366 678 360 678T349 676Q345 672 341 668T334 659Q324 651 315 643T295 626Q290 622 286 616T275 607Q267 596 258 588T243 566Q237 562 235 558T229 549Q227 547 225 545T221 541Q220 539 220 535T220 527Q219 519 219 511T218 493Q221
485 225 481Q231 484 237 488T250 497Q255 502 261 505T273 513Q288 523 299 534Q306 542 315 547T329 561Q331 565 333 569T337 578Q339 582 340 586T343 594Q345 599 348 602T350 612Q366 609 364 590Q364 586 363 582T361 573Q361 569 362 565T362 557Q352 541
348 535T340 522Q311 496 282 470T215 425Q205 423 198 427T183 433Q178 438 174 444T163 454Q160 459 158 463T153 472Q145 486 142 497T136 519Q136 524 137 533T138 550Q139 567 146 581T161 607Q163 611 163 616T166 625Q169 632 174 638Q187 652 201 663T227
686Q240 691 243 698Q248 700 253 704T264 713Q271 719 278 723T294 733Q303 734 309 738T323 744Q328 746 333 747T342 752Q351 753 360 755T381 757Q394 758 409 757T438 756Q463 757 481 746T514 723Q525 716 527 713T529 705Q527 694 528 692T532 686Q535 679
535 671T540 658Q540 649 544 638T548 613Q547 603 542 597T535 580Q533 563 530 557T525 544Q514 521 505 503T482 471L467 459Q462 454 459 449T449 441Q436 425 422 411T395 380Q382 366 372 351T348 322Q342 316 339 310Q329 306 324 300T314 289Q310 284 306
281T298 273Q290 265 281 258T263 243Q254 235 245 228T228 212Q212 194 194 178Q192 175 190 173T185 167Q177 158 167 143T150 116Q146 111 143 108T136 99Q131 91 126 80L121 71Z" />
<glyph unicode="3" glyph-name="three" horiz-adv-x="502" d="M540 696Q545 681 547 663T544 627Q542 612 541 604T537 588Q529 578 525 569T512 551Q502 540 497 532T484 515Q474 505 471 502T463 495Q455 485 452 484T445 480Q443 478 441 476T437 472Q432 469
427 467Q411 451 395 436T360 407Q348 396 340 392T326 381Q345 379 366 386Q383 387 399 386T428 376Q436 368 438 368T442 366Q444 363 448 359T458 351Q465 345 471 339T480 325Q481 322 481 319T480 311Q482 306 483 300T486 288Q488 274 487 261T483 233Q482
228 482 224T480 215Q478 206 472 197T462 179Q457 169 452 160T439 142Q434 135 433 133T431 128Q424 120 420 113T410 98Q404 91 399 85T387 73Q373 63 362 60T341 48Q332 43 324 41T310 34Q298 32 287 25T262 14L250 11Q245 9 240 7T230 2Q225 0 220 -2T210
-6Q205 -8 201 -11T188 -15Q165 -29 132 -24Q128 -23 125 -21T116 -18Q106 -16 98 -15T83 -11Q79 -9 75 -6T67 -2Q53 5 43 14T20 33Q15 35 11 39T1 49Q1 54 1 58T0 68Q1 73 2 78T5 88Q10 99 18 109T34 129Q40 136 48 141T61 156Q67 158 70 163T79 170Q88 180 100
185T124 197Q128 196 131 198T137 203Q140 204 144 204T151 206Q163 204 175 203T198 195Q202 193 205 191T212 186Q214 183 217 181T224 173Q229 169 233 164T230 155Q212 155 203 160Q199 163 194 167T183 172Q178 173 174 171T165 167Q145 156 127 141T91 108Q88
104 86 102T81 95Q77 90 77 82T77 63Q82 65 89 59T101 54Q115 48 133 48T165 55Q173 60 181 61T199 67Q204 69 208 71T217 76Q228 81 236 86Q249 94 253 96T262 102Q272 110 284 117T307 131Q326 147 344 160T382 190Q389 204 393 223T397 259Q396 263 393 272T388
285Q386 290 386 295T382 305Q379 308 377 312T370 318Q358 323 351 327T334 330Q317 328 301 325T270 316Q264 312 263 312T259 312Q249 310 239 307T216 305Q211 297 202 294Q198 296 196 297T189 300Q182 316 178 330Q175 336 173 346Q173 348 176 352T181 360Q182
365 187 368T197 376Q202 381 204 383T208 388Q220 394 222 397T228 403Q232 407 236 409T244 413Q252 417 258 422T273 432Q279 437 285 442T297 453Q302 457 307 461T317 468Q323 475 330 480T344 492Q349 492 351 496T359 501Q373 515 390 527T421 553Q424 555
426 558T433 564Q440 574 441 592T450 625Q452 631 455 638T457 654Q456 662 449 670T434 682Q428 685 416 681T398 674Q388 668 383 666T372 662Q357 655 340 650T306 636Q304 633 301 630T296 625Q292 614 287 608T274 594Q271 591 269 588T265 582Q256 573 255
570T251 564Q249 561 246 559T241 555Q238 552 236 549T231 543Q227 540 223 538T217 530Q212 528 207 527T195 526Q184 529 182 527T178 521T175 516T171 515Q158 523 154 524T145 530Q137 540 136 555T136 585Q132 596 141 603T157 616Q160 620 162 622T167 627Q172
631 177 634T186 642Q193 644 197 647T207 653Q227 667 241 675T273 689L327 719Q334 722 335 722T337 724Q348 729 360 734T386 744Q392 747 398 748T413 751Q426 754 438 755T464 754Q469 753 473 751T482 746Q487 744 492 743T503 740Q509 737 513 733T524 725Q526
719 531 715T539 706L540 696Z" />
<glyph unicode="4" glyph-name="four" horiz-adv-x="469" d="M430 396Q440 394 455 395T482 395Q494 381 493 370T490 348Q490 339 490 335T485 326Q474 313 462 310T437 303T410 298T388 294Q386 290 385 285T380 276Q376 263 374 256T369 239Q362 227 361 223T358
213Q351 199 351 195T349 185Q348 182 347 179T344 173Q343 164 342 163T341 160Q337 149 334 140T327 121Q320 103 317 98T311 85Q309 77 307 71T302 56Q301 54 301 50T300 41Q295 34 292 25T279 14Q274 5 270 5T262 3Q249 5 244 0T227 -11Q209 -30 183 -37Q177
-41 175 -40T170 -39Q165 -35 163 -27Q165 -14 169 -4T178 16Q180 29 184 37T193 57Q202 72 207 88T220 120Q223 127 226 133T234 146Q240 157 246 165T257 184Q262 195 267 204T278 225Q284 243 286 255T294 281Q288 282 280 282T267 280Q257 281 247 281T226
279Q216 282 204 281T178 281Q167 279 157 281T140 288Q134 293 130 300T117 310Q108 312 101 312T86 313Q78 314 73 319T61 330Q55 352 57 362Q70 371 72 376Q78 380 79 385Q88 392 98 408Q102 410 104 413T111 419Q128 436 146 454T181 489Q186 496 192 501T203
513Q210 526 218 537T233 562Q241 567 245 575T258 589Q264 597 272 602T287 616Q322 645 353 677T420 739Q432 752 439 758T459 761Q467 759 477 753T496 740Q505 734 516 731Q521 732 525 730T532 728Q540 725 543 719Q547 719 548 717T553 713Q557 702 557 685T553
656Q547 646 547 643T541 638Q534 620 528 604T513 570Q510 559 506 550T499 527Q483 502 476 485T458 451Q453 443 448 432T440 411Q437 408 435 405T430 396ZM470 671Q464 666 458 661T444 652Q433 641 420 634T394 614Q381 604 368 595T349 568Q335 554 321
540T291 511Q278 500 269 486Q259 481 254 472T243 452Q238 448 235 443T225 435Q213 418 197 401T170 365Q188 368 210 368T249 371Q254 372 259 372T269 373Q290 375 303 377T333 379Q338 387 342 395T351 412Q357 423 361 432T371 446Q375 458 380 464T388 478Q409
509 421 541T449 604Q452 610 452 614T455 623Q460 634 465 646T472 671H470Z" />
<glyph unicode="5" glyph-name="five" horiz-adv-x="478" d="M200 390Q204 390 206 391T212 395Q219 398 227 399T243 403Q247 404 250 406T258 409Q261 411 264 411T271 412Q275 413 278 414T285 416Q290 417 294 417T303 417Q309 419 315 420T327 421Q337 419
339 419T344 420Q355 420 363 414T380 401Q389 396 397 393T414 384Q419 379 420 378T424 376Q435 363 443 351T454 318Q456 308 457 300T458 280Q458 272 457 264T455 248Q455 233 451 223Q447 215 445 209T439 194Q434 179 428 164T413 134Q407 126 407 125T407
122L398 113Q393 105 388 98T376 85Q373 77 365 71T351 58Q349 55 346 52T340 46Q338 44 335 44T330 41Q329 35 325 32T318 24Q298 14 284 11T256 4Q243 0 232 -4T208 -14Q197 -18 186 -19Q181 -19 177 -19T167 -19Q157 -22 155 -21T151 -19Q143 -19 136 -19T122
-15Q112 -12 101 -12T79 -8Q75 -6 67 0Q62 4 57 7T48 14Q38 29 33 34T23 47Q17 54 14 63T6 81Q4 84 3 87T0 95Q2 106 1 117T5 139Q13 142 18 148T32 159Q43 155 53 145Q58 143 60 139T66 130Q75 116 79 111T88 100Q97 92 109 85Q114 81 118 77T128 69Q139 66 140
65T144 62Q154 62 154 62T157 60Q163 58 173 59T188 61Q205 60 218 68T245 82Q253 87 259 91T271 99Q278 104 284 110T296 122Q302 127 307 133T319 145Q325 150 331 155T341 166Q343 170 345 175T349 185Q352 193 354 198T359 212Q369 231 373 253T373 300Q358
312 341 321T304 338Q293 339 282 337T258 332Q250 331 247 330T241 328Q239 327 236 327T229 325Q210 317 194 305T160 285Q157 282 153 280T144 275Q134 274 126 279Q115 270 102 276Q94 281 94 285T88 295Q80 304 78 317T80 343Q88 348 91 358T98 379Q106 398
114 416T127 455Q133 469 139 482T153 509Q163 526 169 541T186 568Q189 570 193 572T200 578Q207 584 207 589T212 600Q218 611 224 622T237 647Q239 652 241 659T245 672Q250 685 253 697T264 718Q267 720 270 721T278 723Q299 735 323 735T371 736Q374 736 377
737T384 738Q399 737 415 738T444 738Q464 743 484 744T521 749Q538 751 554 755T587 759Q593 759 599 759T611 762Q619 762 628 762T643 760Q646 756 649 752T652 740Q636 720 619 714T588 698Q579 688 572 686T556 679Q551 677 548 674T540 670L520 668Q504 667
498 666T486 664Q481 663 476 664T463 663Q452 662 449 659Q435 658 422 656T395 651Q384 649 373 647T350 641Q342 639 334 637T316 633Q308 621 302 608T288 583Q283 572 278 564T267 545Q262 534 259 524T251 504Q236 476 223 449T200 390Z" />
<glyph unicode="6" glyph-name="six" horiz-adv-x="478" d="M534 690Q529 685 522 684T511 677Q498 673 486 670T461 664Q453 661 446 659T430 654Q421 650 415 646Q404 639 396 629T374 612Q355 598 340 587T311 563Q300 557 293 549T275 534Q270 528 266 523T255
513Q246 499 237 486T218 459Q216 455 215 451T210 442Q207 439 204 434T199 425Q196 420 193 414T187 402Q185 400 184 398T181 391Q177 388 175 383T169 373Q170 368 167 364T166 355Q172 359 175 365T187 374Q202 387 225 399Q226 401 229 404T236 406Q243 413
254 416Q263 425 276 427Q284 432 294 435T315 441Q318 442 322 443T332 446Q343 447 354 444T376 439Q384 434 390 430T404 421Q417 407 429 388T450 349Q452 345 454 340T453 329Q455 308 460 289T466 251Q467 240 465 229T460 206Q458 194 456 186L450 168Q444
157 439 145T427 124Q423 118 420 115Q417 111 415 107T409 98Q399 88 397 86Q393 81 390 76T381 67Q372 52 358 42Q353 37 346 32T331 20Q326 15 321 10T310 2Q298 -5 295 -6T290 -8Q286 -10 282 -12T273 -17Q266 -27 264 -25Q261 -28 255 -28T245 -32Q242 -31
232 -31Q228 -31 224 -32T216 -34Q211 -34 208 -32T202 -27Q197 -27 194 -27T186 -29Q169 -28 156 -20T132 -4Q126 -3 122 0T114 6Q109 10 106 12T101 17Q99 19 97 21T93 26Q80 40 74 59T60 99Q55 113 49 127T44 158Q45 172 43 184T41 213Q42 251 52 285T72 353Q77
370 85 385T101 414Q109 427 112 436T122 454Q124 461 128 465T135 475Q140 481 143 487T153 499Q168 520 181 538T215 571Q228 585 241 599T268 626Q277 638 289 647T313 666T336 684T357 706Q369 713 376 720Q413 743 458 758Q466 756 478 756T498 757Q509 751
518 743Q521 737 520 732T524 722Q526 714 531 708T534 690ZM145 95Q156 83 160 78T169 65Q174 63 178 63T187 62Q194 60 200 57T215 54Q218 55 221 56T228 58Q235 60 240 61T251 63Q256 65 260 66T270 69Q273 70 275 70T281 72Q286 74 293 75T305 79Q313 86 323
97Q328 102 331 107T338 118Q340 121 343 124T349 130Q352 138 355 142T361 151Q364 156 366 160T372 169Q377 178 382 191T388 215Q390 229 390 246T390 279Q390 285 389 293T386 307Q385 309 383 311T379 316Q375 322 373 328T366 338Q363 341 360 342T354 345Q343
353 334 356T312 360Q307 358 301 356T290 353Q284 349 278 347T266 343Q261 339 257 337T249 332Q243 327 237 323T222 316Q217 310 211 307T200 298Q197 295 196 291T193 283Q188 273 182 263T178 242Q174 229 173 222T172 209Q173 200 178 192T185 176Q194 169
199 165T209 157Q212 155 214 155T218 150Q219 142 208 140T188 141Q180 147 180 148T178 151Q173 154 169 159T160 167Q151 179 148 184T141 195Q138 200 136 205T128 214Q124 182 128 151T145 95Z" />
<glyph unicode="7" glyph-name="seven" horiz-adv-x="442" d="M622 754Q624 749 621 746T621 739Q617 721 614 701T603 667Q598 659 592 652T580 637Q576 633 574 631T570 623Q557 610 548 594T525 565Q520 556 514 548T501 532Q494 521 485 511T467 492Q459 477
451 466T434 438Q431 436 429 434T425 428Q414 415 406 406T389 386Q384 378 383 378T380 375Q376 368 372 364T364 355Q353 344 340 332T317 306Q315 303 313 302T309 297Q301 290 296 280T281 266Q267 250 256 232T230 196Q224 184 220 177T212 163Q202 144 190
126T167 88Q160 77 154 65T140 41Q138 37 135 35T132 27Q127 21 124 14T116 1Q102 -6 88 -3Q81 -5 79 -7T68 -9Q59 -11 52 -16T35 -19Q28 -17 27 -8T28 9Q30 14 34 19T40 29Q42 37 43 42T48 53Q50 58 52 61T57 70Q64 79 70 88T84 106Q92 117 99 128T112 153Q124
170 132 187T151 220Q176 260 202 296T261 362Q266 364 270 368T280 377Q287 384 293 390T306 404Q309 408 312 411T318 419L326 427Q332 435 335 439T341 451Q352 468 364 484T388 515Q403 540 418 566T451 615Q462 628 471 642T490 672Q484 675 475 673T461 673Q449
672 441 672T424 672T406 670T384 667Q374 665 368 663T351 657Q345 655 342 657T333 657Q321 654 316 648Q311 646 309 645T301 642Q290 640 280 637T259 630Q248 627 236 627T213 622Q202 623 191 628T172 641Q160 645 157 645T152 647Q147 649 144 650T138 653Q133
654 129 653T118 654Q113 656 110 658T102 663Q104 666 103 668T104 674Q111 686 126 689T155 695Q160 696 165 697T175 701Q180 702 185 702T197 705Q207 707 217 710T238 715Q247 717 258 720T281 725Q286 725 291 725T301 726Q309 730 312 733Q314 735 316 737T322
742Q333 738 337 739T346 743Q351 744 355 744T366 746Q376 749 386 749T406 751Q417 753 426 756T447 758Q456 757 461 757T471 756T482 755T497 755Q511 759 527 758T559 757Q573 758 584 759T608 759Q612 758 614 756T622 754Z" />
<glyph unicode="8" glyph-name="eight" horiz-adv-x="468" d="M631 807Q631 805 632 802T631 796Q629 789 624 783T614 771Q609 763 605 754T595 735Q589 721 590 716T591 705Q590 700 589 697T585 690Q583 685 582 680T577 669Q574 664 573 658T570 647Q565 642
562 636T554 626Q551 617 545 611T532 598Q527 592 522 585T510 573Q500 560 490 548T468 523Q466 519 464 517T459 511Q443 495 430 479T401 446Q381 430 364 413T332 375Q340 358 351 345T368 311Q374 304 377 295T386 279Q390 267 391 259T397 243Q399 227 403
214Q407 206 407 199T408 182Q408 158 406 133T393 86Q392 79 388 75T384 66Q370 45 356 32T326 7Q314 5 303 0T280 -10Q268 -9 259 -15T239 -23Q229 -27 220 -29T204 -34Q190 -36 177 -36T150 -37Q131 -39 123 -34T104 -24Q102 -19 99 -17T95 -11Q86 -3 77 4T58
22Q55 24 52 27T48 34Q41 45 38 47T32 55Q24 76 21 99T15 147Q19 162 25 172T36 195Q38 201 42 207T50 219Q54 225 58 230T66 241Q74 246 78 252T90 263Q100 276 109 287T130 310Q139 317 146 325T163 341Q179 362 196 381T232 418Q230 425 226 431T217 443Q213
451 211 458T205 472Q203 479 199 484T191 498Q188 506 187 516T184 537Q183 542 182 549T184 563Q186 568 187 573T190 584Q193 590 196 596T201 609Q208 630 218 642T233 669Q240 672 242 680Q247 684 250 688T259 696Q267 704 278 712Q283 716 287 721T298 730Q313
743 336 749T383 751Q385 750 387 749T393 746Q424 739 447 735T492 722Q496 721 500 719T510 717Q514 715 517 712T524 706Q537 716 540 721T549 732Q551 737 554 739T561 745Q566 751 570 757T580 768Q582 770 585 771T590 774Q601 782 608 791T624 812L631 807ZM452
680Q443 682 434 682T417 685Q400 683 379 684T343 678Q338 679 335 677T326 674Q324 671 321 668T316 662Q308 655 303 647T289 633Q282 623 276 614T265 594Q264 592 264 589T263 583Q261 571 259 559T261 536Q263 531 265 526T270 516Q278 501 284 488T296 459Q299
460 302 464T312 467Q314 470 322 472Q325 474 328 476T333 480Q335 483 336 485T340 493Q343 498 346 502T354 511Q362 520 371 528Q379 540 383 544T393 554Q398 559 402 565T412 577Q422 587 431 596T452 616Q454 621 460 627Q465 635 472 641T482 658Q486 661
488 668Q479 670 470 674T452 680ZM214 52Q220 52 227 53T241 57Q245 59 250 67Q258 74 258 76T261 80Q268 89 276 97T292 116Q298 124 303 130T313 144Q321 162 324 182T326 221Q325 232 325 241T322 259Q314 287 301 311T276 357Q246 334 220 309T170 255Q149
235 132 210T112 147Q114 141 115 135T119 124Q125 112 133 98Q141 84 150 69T172 45Q183 47 194 47T214 52Z" />
<glyph unicode="9" glyph-name="nine" horiz-adv-x="421" d="M444 401Q438 392 434 380T425 356Q419 344 413 331T398 303Q393 294 388 285T380 264Q366 239 353 216T324 169Q315 155 306 142T286 116Q282 112 278 108T271 100Q263 93 256 87T240 72Q238 70 237
68T232 63Q222 56 218 50T207 41Q200 31 190 25T171 10Q168 5 167 3T164 -1Q160 -3 155 -5T145 -11Q141 -14 137 -17T128 -22Q124 -23 121 -22T115 -25Q112 -23 108 -23T101 -19Q98 -14 98 -10T99 3Q100 12 105 25T113 50Q115 53 115 56T116 62Q120 64 122 68T127
76Q135 86 146 93T165 112Q176 120 184 130T204 151Q210 162 219 169T234 187Q249 204 258 214T275 238Q278 240 279 243T282 250Q287 259 292 269T303 290Q309 298 314 309T324 332Q327 337 329 342T333 352Q324 347 317 341T302 329Q299 327 295 325T289 321Q276
315 271 312T258 308Q247 304 241 305T226 308Q215 310 204 312T184 322Q179 325 176 329T168 335Q160 346 148 353T126 371Q122 378 116 384T106 398Q104 401 104 405T102 414Q100 419 99 425T97 440Q96 464 100 486T109 531Q115 542 119 554T131 575Q136 588
148 598Q150 603 153 606T160 613Q165 621 170 627T182 640Q196 654 207 669T232 699Q250 712 263 723Q268 728 273 730T287 735Q291 736 294 737T301 741Q314 746 326 747T352 746Q361 746 371 746T385 741Q407 738 420 728T449 706Q453 700 459 695T469 683Q474
674 477 662T484 638Q488 627 488 616T489 594Q491 586 491 579T493 564Q493 553 491 541T486 519Q484 508 482 500T475 483Q475 471 470 459Q468 446 465 438T458 422Q450 411 449 407T444 401ZM410 606Q401 624 396 633T388 651Q386 655 386 658T383 666Q381
672 375 675T366 685Q356 689 348 687T331 684Q327 682 324 679T315 674Q306 663 294 656T270 637Q255 622 241 600Q234 595 230 588T219 575Q212 562 203 552T185 527Q184 513 181 504T177 484T176 464T181 447Q188 406 212 379Q218 381 224 375Q234 373 245 374T267
377Q284 379 297 380T322 387Q332 398 343 408T364 430Q367 434 369 436T373 442Q376 453 377 453T379 456Q381 462 382 464T385 470Q388 478 392 480Q396 494 401 503T411 523Q415 530 416 537Q417 542 416 546T415 555Q416 564 418 573T422 593Q420 597 418 600T410
606Z" />
<glyph unicode=":" glyph-name="colon" horiz-adv-x="185" d="M1 88Q3 86 7 85T13 81Q18 83 23 81T34 77Q36 73 38 70T44 62Q47 51 47 41T44 22Q37 15 34 7T24 -7Q18 -12 12 -15T-1 -23Q-14 -27 -23 -24T-39 -14Q-49 -5 -50 9T-49 37T-38 64T-23 82Q-16 84 -11
85T1 88ZM129 376Q131 374 135 373T141 369Q146 371 151 369T161 365Q166 355 172 350Q174 339 174 329T172 309Q165 303 162 295T152 281Q145 276 139 273T127 265Q114 261 105 264T89 273Q78 282 77 296T78 324T89 351T105 370Q111 372 116 373T129 376Z" />
<glyph unicode=";" glyph-name="semicolon" horiz-adv-x="187" d="M131 376Q133 374 137 373T143 369Q149 371 153 369T163 365Q168 355 174 350Q176 339 176 329T174 309Q167 303 164 295T154 281Q147 276 141 273T129 265Q116 261 107 264T91 273Q80 282 79
296T80 324T92 351T108 370Q113 372 118 373T131 376ZM-45 -40Q-37 -35 -31 -30T-19 -17Q-29 -16 -38 -10T-50 9Q-52 22 -49 38T-38 61Q-36 65 -32 68T-25 75Q-18 81 -11 83T5 83Q10 82 14 82T22 84Q26 82 29 80T35 76Q37 68 40 61T44 45Q44 34 40 23T33 1Q27 -2
25 -10T18 -26Q10 -33 4 -40T-9 -55Q-17 -57 -25 -62Q-28 -65 -29 -68T-33 -71Q-42 -60 -42 -60Q-47 -48 -45 -46T-45 -40Z" />
<glyph unicode="&lt;" glyph-name="less" horiz-adv-x="508" d="M78 321Q91 329 91 332T98 336Q108 340 108 341T110 343Q127 350 140 356T164 370Q180 375 193 381T226 392Q232 396 241 400Q263 412 281 422T323 442Q331 446 340 449T357 457Q360 459 363 461T372
464Q390 474 411 482T452 502Q464 504 471 509Q490 514 508 519T549 526Q554 526 559 526T564 523Q578 522 581 518T590 509Q593 502 584 497T563 486Q544 477 526 469T492 456Q470 448 454 441T418 428Q411 426 406 423T393 415Q384 408 370 402T341 390Q323 383
307 376T271 362Q260 359 255 357T246 353Q237 351 231 349T217 344Q209 338 197 335T177 325Q175 320 174 318T172 311Q178 309 180 309T183 308Q188 295 205 284T237 262Q239 260 241 259T249 256Q264 247 274 236T306 218Q314 214 316 209Q324 208 326 204Q332
202 337 198T344 188Q343 175 341 168T337 154T335 141T329 128Q325 129 320 128T314 130Q299 124 296 126T287 131Q271 136 267 138T257 143Q249 147 245 152T233 161Q223 167 213 173T194 186Q183 196 174 204T156 221Q142 228 137 234Q134 239 130 242T124 249Q122
263 115 264T101 269Q96 271 95 274T91 279Q79 287 77 290T72 296Q69 299 65 303T61 310Q63 318 78 321Z" />
<glyph unicode="=" glyph-name="equal" horiz-adv-x="473" d="M336 412Q344 414 351 413T366 412Q384 414 393 413T413 412Q424 413 427 412T434 410Q439 410 442 410T449 408Q453 408 456 408T462 406Q464 404 464 399T460 389Q458 386 455 383T447 377Q444 375
441 375T432 372Q430 371 428 370T422 367Q416 365 412 363T402 356Q398 356 395 354T388 351Q385 350 382 350T374 351Q369 351 364 351T354 352Q344 352 333 352T311 355Q305 357 299 357T287 357Q277 358 268 359T248 356Q243 356 236 356T224 357Q216 358 207
356T189 353Q184 353 180 353T171 353Q162 351 162 351T160 352Q146 350 140 351T130 354Q124 356 121 360T122 376Q125 384 131 389T143 400Q152 408 154 408T158 412Q163 411 168 412T181 414Q196 417 200 416T210 414Q225 414 230 415T240 415Q247 414 250 414T255
414Q265 412 273 413T290 414Q298 413 304 413T317 413Q322 413 327 413T336 412ZM402 306Q403 292 403 290T399 284Q392 275 385 268T370 257Q357 251 352 248T342 242Q340 240 337 240T331 239Q323 238 314 238T297 238Q287 238 277 238T258 239Q250 239 242
239T225 238Q220 238 216 238T207 238H160Q154 238 147 238T135 237Q128 238 127 238T124 237Q118 236 111 236T97 237Q89 237 82 237T69 241Q67 243 64 247T61 254Q61 257 63 261T66 270Q74 281 75 284T79 291Q92 297 96 297T106 298Q115 299 124 301T141 304Q149
305 155 303T170 300Q178 298 187 298T204 298Q218 297 230 299T256 302Q261 302 266 302T275 303Q281 304 289 304T302 303Q307 305 313 305T326 305Q333 305 338 305T348 304Q360 304 375 305T402 305V306Z" />
<glyph unicode="&gt;" glyph-name="greater" horiz-adv-x="487" d="M482 333Q469 325 469 322T461 317Q453 313 453 312T451 310Q433 303 420 298T396 284Q379 279 366 272T333 261Q326 256 319 253Q297 242 278 231T238 211Q229 207 220 204T202 197Q200 195
197 193T187 189Q169 179 148 171T109 152Q103 150 98 149T89 144Q71 139 53 134T10 126Q5 127 1 127T-5 130Q-19 131 -22 135T-30 144Q-34 152 -24 157T-3 167Q17 176 34 184T68 198Q90 205 106 212T141 225Q149 227 154 230T166 238Q176 246 190 251T219 263Q236
270 252 277T289 291Q299 294 304 296T313 300Q322 302 328 304T343 309Q351 315 363 319T383 329Q384 334 385 336T388 342Q382 344 380 344T377 345Q371 358 355 369T324 391Q322 393 319 394T311 397Q296 407 286 417T254 435Q244 440 243 444Q228 452 222 456T215
465Q217 478 219 485T222 499T224 512T230 525Q235 524 240 525T246 523Q260 528 264 526T273 522Q294 514 303 510Q311 506 315 502T327 493Q337 486 347 480T366 467Q376 458 385 449T404 431Q416 426 422 419Q425 415 429 412T435 404Q437 390 445 388T459 384Q463
382 464 379T468 374Q475 371 475 370T478 369Q480 367 482 364T487 357Q491 354 495 350T498 343Q498 335 482 333Z" />
<glyph unicode="?" glyph-name="question" horiz-adv-x="454" d="M101 84Q103 86 106 85T112 82Q123 84 131 79Q138 70 139 68T144 61Q149 55 152 48T151 31Q145 21 144 17T141 8Q137 2 129 -3Q125 -14 115 -17T91 -25Q88 -26 85 -27T80 -28Q69 -29 62 -22T47
-10Q39 9 42 30Q44 42 49 52T59 71Q83 74 101 84ZM398 689Q355 680 317 668T243 639Q238 634 231 632T222 624Q218 618 216 613T209 606Q206 598 205 597T202 593Q199 586 197 584T194 579Q191 572 188 569T182 561Q180 556 179 548T179 534Q180 528 183 523T190
515Q197 514 204 513T218 510Q228 507 233 509T242 513Q257 521 274 530T303 549Q307 557 311 564T317 583Q318 590 318 596T319 610Q328 614 329 612T332 609Q339 598 343 581T346 549Q346 542 343 533T336 518Q334 515 330 512T321 506Q308 497 305 496T299 489Q274
475 249 463T198 439Q192 440 186 440T175 439Q166 440 156 444T139 453Q132 456 128 466T121 485Q119 493 117 500T114 516Q114 524 114 534T115 552Q115 579 122 597Q127 607 127 609T129 614Q133 626 140 634T157 648T175 660T194 673Q203 677 209 679T219 686Q224
688 229 690T240 694Q252 701 263 708T288 723Q299 728 312 733T337 743Q341 748 347 749T362 753Q369 755 374 756T384 754Q392 757 400 757T416 759Q423 762 426 762T432 762Q434 762 437 763T443 764Q453 764 460 763T479 761Q489 761 495 761T509 758Q512 757
515 757T521 754Q523 752 526 749T532 743Q538 738 542 735T552 725Q556 718 557 716T561 711Q564 706 566 699Q572 688 579 678T585 652Q588 642 586 632T583 610Q584 597 579 590T571 577Q567 566 564 561T558 551Q556 541 552 534T543 519Q534 507 529 501T516
490Q510 482 502 477T484 466Q479 463 473 461T460 455Q454 451 448 446T437 436Q431 432 425 429T412 421Q404 418 399 414T386 406Q378 401 372 397T356 387Q341 378 326 369T296 349Q287 342 279 335T261 321Q253 312 252 310T250 304Q242 290 237 280T226 259Q221
249 218 238T211 215Q209 210 207 205T202 194Q198 181 195 175Q193 169 190 160T180 150Q179 146 176 144T171 140Q161 138 151 132T127 129Q121 124 114 123Q108 125 106 126T99 126Q90 131 90 142T96 161Q108 190 118 211T143 252Q145 255 147 257T151 263Q153
268 153 273T157 283Q164 304 175 320T194 356Q196 358 197 361T201 366Q202 373 203 374T205 378Q220 389 239 392T275 403Q291 414 300 419T319 433Q329 441 338 448T357 463Q376 480 396 498T434 537Q438 542 442 549T450 563Q455 574 458 591Q460 605 461 619T454
645Q446 651 444 654T439 659Q428 666 426 667T422 670Q420 672 417 672T411 675Q409 677 407 678T401 680L398 689Z" />
<glyph unicode="@" glyph-name="at" horiz-adv-x="795" d="M126 112Q118 125 116 140T104 167Q98 187 93 204T82 242Q84 245 84 248T85 255Q83 266 83 278T83 302Q84 307 84 312T84 323Q89 378 108 429T155 524Q155 527 156 531T161 537Q171 556 185 572T213 605Q218
611 224 618T239 632Q257 648 276 662Q287 670 298 676T321 690Q330 699 341 705T364 717Q372 725 386 727T413 733Q417 735 424 738T434 735Q442 740 452 741T473 745Q478 746 486 747T499 745Q508 747 517 747T534 744Q542 746 550 744T567 740Q575 738 583 738T599
735Q613 730 627 725T654 716Q680 703 701 688T741 653Q741 649 743 647T746 641Q758 632 763 618T776 589Q785 569 791 545Q796 528 798 511T803 475Q804 471 804 467T804 459Q804 454 804 451T805 442Q805 430 802 416T796 386Q793 372 788 357T778 331Q776 321
772 313T762 297Q751 279 745 259T725 224Q722 213 716 208T702 195Q695 187 688 182T674 169Q668 168 664 163T655 155Q651 152 647 150T637 145Q625 137 616 135T599 129Q587 130 577 134T557 144Q549 149 543 154T529 165Q504 194 500 233Q494 228 491 221T481
209Q477 201 472 195T461 182Q454 177 448 174T435 165Q428 163 423 160T409 155Q404 154 397 151T384 147Q379 146 373 146T362 146Q356 146 347 147T332 152Q323 160 319 161T313 165Q311 167 310 169T307 175Q305 177 304 179T300 184Q291 198 286 217T278 256Q280
299 288 343Q290 355 294 369T303 397Q305 405 308 412T314 425Q316 430 317 432T323 439Q329 450 332 452T337 457Q339 460 341 462T345 468Q350 473 353 479T361 492Q369 500 376 510T392 528Q397 530 402 533T410 542Q413 543 415 544T420 548Q430 551 437 559T455
570Q463 572 470 573T487 577Q498 579 502 578Q508 577 513 574T524 568Q536 558 547 550T563 528Q567 535 567 541T573 552Q578 557 583 558T593 565Q602 565 607 566Q613 560 618 551T626 531Q628 527 629 524T629 517Q629 512 627 508T623 499Q621 497 619 495T616
490Q614 484 612 476Q608 465 605 453T597 429Q590 409 580 388T567 347Q561 317 558 286Q554 262 562 245T587 214Q594 210 603 214T620 220Q626 222 630 223T640 226Q645 228 650 235T659 247Q665 252 669 257T678 268Q683 278 689 287T699 306Q701 310 702 313T707
322Q709 326 710 329T714 336Q719 347 721 361T726 389Q728 411 726 433T726 475Q724 483 724 492T723 509Q716 558 690 591T635 655Q636 665 629 666T614 670Q607 672 599 675T583 680Q578 681 574 681T564 682Q555 684 545 685T523 684Q511 688 498 686T472 679Q465
677 459 676T444 672Q437 670 431 666T416 657Q411 655 406 653T395 649Q389 645 384 641T371 633Q366 631 361 628T351 623Q342 618 338 615T330 609Q324 605 319 602T309 594Q298 589 289 579T269 564Q267 562 265 560T259 555Q251 543 244 532T227 510Q216 499
213 491T205 475Q203 472 200 469T195 461Q190 453 188 443T181 423Q174 409 171 396T166 367Q164 359 164 353T161 340Q158 321 158 304T159 270Q160 261 160 254T162 238Q164 235 165 233T167 226Q169 220 170 214T173 203Q178 191 181 181Q187 169 190 162T198
150T207 139T223 125Q230 119 236 113T250 100Q253 98 257 96T265 91Q273 86 282 81T301 71Q306 68 310 64T321 58Q333 54 346 54T374 52Q378 51 381 50T388 48Q391 47 395 47T402 47Q412 40 419 40Q424 38 427 37T435 35Q444 29 456 30T480 33T506 38T530 39Q536
41 541 42T552 41Q553 33 549 27T542 16Q537 13 531 11T519 6Q507 2 504 0T495 -4Q478 -5 460 -10T430 -19Q423 -21 417 -20T401 -19H388Q383 -18 377 -17T364 -16Q356 -15 349 -16T334 -16Q325 -15 312 -11Q296 -6 287 -5Q276 -2 265 3T243 12Q235 14 228 16T214
20Q208 26 205 26T199 28Q185 43 176 51T163 70Q154 77 146 86T130 106L126 112ZM474 510Q466 507 463 506T454 499Q452 497 449 496T443 492Q439 487 436 482T429 472Q426 470 423 468T418 463Q413 457 411 449T401 435Q395 418 388 406T376 377Q373 368 369 359T359
341Q355 330 354 318T350 297Q352 289 350 279T349 260Q351 254 354 249T359 238Q365 230 375 228T397 224Q402 226 406 227T416 230Q429 240 441 250T461 275Q468 281 473 287T484 302Q485 310 489 318T498 333Q504 345 507 348T513 356Q515 360 515 364T518 372Q520
375 521 378T524 385Q529 406 534 425T544 465Q535 463 529 463T514 463Q508 466 506 472T504 485T503 501T503 516Q496 518 488 515T474 510Z" />
<glyph unicode="A" glyph-name="A" horiz-adv-x="600" d="M513 729Q512 725 512 722T511 717Q522 697 523 670T527 617Q532 622 536 626T544 636Q549 641 552 645T559 655Q561 659 564 662T571 668Q576 673 581 679T591 690Q595 695 598 699T606 708Q614 718 622
728T641 745Q650 743 651 742T654 741Q667 737 669 729T672 714Q672 709 671 702T668 690Q666 684 663 679T660 668Q659 662 658 656T652 646Q654 632 647 623T634 606Q630 601 627 593Q623 588 622 584T616 574Q613 570 608 567T598 559Q589 548 586 545T581 540Q576
534 573 528T565 516Q562 512 559 510T553 504Q551 501 550 497T546 489Q544 485 542 482T538 476Q536 472 535 468T531 460Q523 446 517 434Q514 428 512 422T507 409Q505 403 502 398T497 387Q492 376 489 364T480 340Q476 331 473 322T465 305Q460 286 456 268T445
231Q438 211 432 190T419 147Q414 123 412 102T411 57Q417 57 422 54T434 53Q439 54 444 58T456 65Q461 67 464 67T470 72Q476 74 481 76T490 84Q501 87 510 93T528 105Q533 108 538 111T548 117Q553 119 558 121T567 127Q569 129 575 133T584 139Q594 142 600
146T608 153Q612 152 620 157T634 162Q638 160 642 160T649 157Q648 153 648 150T649 143Q649 141 644 134T636 125Q633 121 625 114T611 105Q606 94 597 86T579 69Q569 64 560 56T544 41Q520 27 495 10T442 -22Q430 -27 419 -32T392 -40Q383 -41 377 -39T362 -34Q359
-25 354 -18T344 -4T336 10T332 28Q331 31 332 35T334 43Q335 46 335 49T336 56Q338 67 340 77T345 100Q344 116 346 128T350 154Q345 152 343 149T335 143Q327 134 318 126T296 112Q283 103 271 93T245 75Q223 55 199 39T152 4Q144 1 137 -2T119 -7Q108 -13 99
-9T81 1Q75 6 71 10T60 19Q49 37 44 52T28 79Q27 84 25 87T20 95Q17 108 17 119T15 142Q16 164 23 183T36 218Q37 221 37 224T38 230Q39 233 40 237T44 245Q46 253 49 260T54 275Q56 280 57 283T60 289Q65 298 67 307T73 325Q81 351 90 376T114 425Q116 428 118
430T123 436L144 469Q155 484 167 497T191 525Q205 538 216 553T241 580Q243 586 248 589T255 599Q264 605 270 614T287 629Q306 650 326 669T366 709Q383 711 389 722Q403 731 420 741T455 756Q460 758 468 755T483 750Q498 747 503 741T513 729ZM102 170Q107
151 110 136T120 104Q124 102 125 99T131 93Q135 91 143 91T154 91Q159 93 164 96Q172 100 179 104T194 113Q199 115 204 117T214 121Q224 123 231 127T247 136Q267 147 286 162T325 189Q351 221 374 260T406 351Q407 363 408 370T412 386Q414 392 415 399T419
412Q427 438 431 461T442 506Q445 514 447 522T452 538Q458 545 458 548T458 553Q460 558 462 561T466 570Q470 580 474 594T478 620Q475 637 474 643T469 657Q466 665 460 677T446 692Q435 694 425 684T410 668Q408 666 405 665T399 660Q397 658 395 655T389 649Q387
647 385 644T380 638Q376 633 372 628T362 616Q357 611 354 605T346 594Q340 587 334 581T325 567Q314 559 304 547Q299 541 295 535T288 522Q280 518 276 510T265 497Q256 489 255 486T251 480Q236 462 224 442T200 401Q201 398 199 396T197 388Q191 380 186 369Q182
361 180 354T174 338Q172 334 171 331T167 325Q165 319 163 314T159 303Q157 298 154 293T147 283Q145 279 145 275T142 266Q140 261 138 257T133 248Q131 243 130 238T126 227Q124 224 123 222T119 218Q117 215 116 212T113 205Q108 200 103 196T95 185Q97 183
98 178T102 170Z" />
<glyph unicode="B" glyph-name="B" horiz-adv-x="553" d="M390 352Q394 346 402 345T415 339Q423 337 427 337T437 335Q444 328 445 328T445 326Q458 314 469 299Q471 295 472 289T476 276Q478 271 478 266T480 256Q482 239 478 225T472 197Q467 190 467 183T465
169Q464 166 463 163T460 156Q457 142 451 132T439 110Q438 103 436 97T433 86Q432 82 429 79T427 72Q419 68 419 60Q417 58 414 56T408 48Q394 38 390 34T380 25Q376 23 373 19T365 13Q362 11 359 9T352 5Q345 0 338 -4T323 -14Q317 -17 313 -20T303 -25Q298 -27
292 -28T280 -31Q260 -34 241 -28T208 -15Q197 -10 184 -6T160 6Q144 19 137 39T119 78Q120 85 117 89T110 98Q108 103 106 106T101 113Q97 128 96 130Q84 128 80 117T70 95Q69 89 67 85T61 75Q59 70 59 66T55 60Q43 59 42 54T36 50Q37 43 33 38T31 25Q30 20 28
17T23 9Q16 6 5 4T-12 9Q-21 11 -26 14T-31 23Q-31 27 -29 29T-28 36Q-21 52 -11 64T5 93Q13 107 20 121T36 150Q44 167 53 181T69 212Q71 216 71 218T70 225Q80 254 94 279T121 330Q126 348 135 364T151 399Q162 420 170 436T188 469Q195 477 197 486T206 501Q208
506 210 510T215 519Q223 539 230 548T239 569Q244 574 248 582T257 599Q259 604 262 611T269 626Q271 629 272 631T274 637Q279 642 281 648T287 660Q280 667 270 663T251 654Q234 647 219 639T190 623Q175 615 161 612T132 606Q124 611 122 608T114 607Q112 607
110 606T102 604Q99 609 103 611T109 618Q132 632 157 643T205 669Q230 684 249 693T287 714Q310 722 329 731T375 743Q386 750 400 749T426 752Q434 752 445 752T467 752Q490 751 502 750T526 746Q530 745 534 744T543 742Q554 738 565 736T585 728Q600 715 607
707T618 686Q624 672 629 661T635 637Q636 632 636 626T635 613Q634 604 635 595T635 574Q634 562 631 550T622 527Q617 516 616 505T607 485Q601 474 598 468T590 454Q588 452 586 450T582 444Q571 435 561 426T537 410Q527 400 515 392T490 375Q487 373 484 371T474
367Q466 365 461 364T446 361Q434 360 422 358T399 354L390 352ZM331 392Q345 398 359 404T387 416Q395 418 402 420T415 425Q426 432 430 434T438 439Q444 442 449 447T460 455Q466 460 471 463T483 472Q487 475 491 477T500 483Q507 490 511 498T523 512Q528
522 532 532T539 553Q542 562 545 570T550 587Q551 597 552 601T553 609Q553 613 551 617T547 624Q542 635 535 645T522 665Q513 672 501 678T473 680Q471 682 466 682T459 681Q452 682 445 682T429 680T414 678T404 675Q402 673 400 670T396 663Q391 654 387 651T377
639Q373 634 370 630T365 621Q360 619 359 616T355 610Q350 608 349 602T344 594Q336 582 333 574T324 551Q316 536 310 523T296 495Q294 489 292 484T288 474Q285 469 281 465T273 455Q262 438 255 421T237 388Q215 355 197 322Q192 318 192 313T187 306Q179 295
174 289Q172 285 170 281T166 272Q163 267 160 262T154 251Q149 240 143 230T132 210Q130 206 128 203T124 197Q122 189 121 189T119 186Q118 181 120 178T124 170Q125 167 125 165T126 159Q130 148 132 144T139 130Q141 126 142 123T145 117Q147 113 148 110T152
102Q158 90 167 81T184 61Q193 55 204 56T227 56Q237 60 247 58T268 55Q271 56 273 57T279 57Q285 60 291 63T304 69Q313 77 322 83T337 100Q339 102 340 104T344 110Q348 115 350 120T355 132Q366 143 372 153T386 173Q388 181 394 187T401 203Q401 222 398 231T392
250Q390 254 390 258T388 267Q380 279 376 287T365 301Q361 303 357 303T348 305Q337 309 326 313T302 319Q297 322 293 325T284 330Q280 336 275 337Q275 343 270 345T263 352Q261 357 261 363T258 374Q263 377 270 377T282 381Q290 381 296 383T310 388Q316 389
321 388T331 389V392Z" />
<glyph unicode="C" glyph-name="C" horiz-adv-x="528" d="M604 734Q605 729 608 726T614 720Q615 712 615 704T618 687Q618 683 618 679T621 671Q618 636 612 614T600 564Q599 559 598 555T596 545Q595 541 595 538T595 531Q593 525 589 518T581 503Q565 474 546
448T497 408Q486 403 479 399T460 392Q453 388 444 384T425 377Q421 375 417 375T409 374Q404 372 401 371T394 368Q386 366 382 366Q375 367 372 374T369 390Q365 394 360 397T353 408Q350 419 349 420T347 423Q342 437 343 454T351 483Q353 488 357 490T362 498Q370
503 376 508T390 519Q400 536 413 545T438 564Q442 567 444 571T452 579Q455 582 459 584T466 589Q468 591 470 593T474 597Q478 599 482 599T490 601Q504 603 504 600T504 592Q499 589 492 587T478 582Q476 574 470 570T458 559Q454 554 452 550T442 543Q437 531
430 523T415 505Q415 494 411 487T401 471Q399 467 397 463T395 457Q396 455 397 452T401 445Q403 442 405 440T409 435Q433 450 456 465T497 501Q502 510 506 518T516 537Q518 547 522 556T531 574Q536 584 540 594T545 615Q546 623 546 632T548 647Q546 652 548
660T549 677Q542 692 535 694T520 699Q512 694 503 688T486 675Q480 669 474 663T463 649Q450 635 442 625T426 603Q409 592 395 579T364 555Q351 545 339 535T315 513Q305 502 294 493T274 472Q266 461 257 450T239 427Q234 422 230 416T221 404Q216 399 212 393T203
382Q200 377 198 372T193 361Q183 349 174 337T157 308Q145 292 139 277T124 246Q122 232 117 221T109 196Q108 189 106 183T102 168Q100 161 100 154T98 140Q92 127 92 122T87 113Q90 105 92 99T100 87Q102 83 106 80T112 73Q116 63 118 61T125 56Q128 54 132
51T141 47Q146 45 151 45T162 45Q167 45 171 45T180 45Q188 47 199 49T219 54Q233 58 246 62T272 71Q285 76 293 85T311 99Q327 111 333 118T348 131Q355 140 356 140T358 141Q365 149 371 155T385 170Q396 175 403 183Q411 186 416 191T428 201Q436 207 439 210Q443
214 446 218T454 227Q456 229 460 231T468 239Q470 242 472 247T479 252Q485 253 492 247T499 233Q490 219 489 216Q482 206 474 197T458 177Q450 168 442 159T427 138Q420 127 412 119T394 100Q381 86 369 74T345 45Q340 40 335 36T325 26Q320 23 316 20T306 13Q286
6 266 -5T220 -24Q209 -27 198 -31T172 -34Q170 -33 167 -33T161 -32Q155 -31 149 -28T134 -24Q129 -24 125 -25T116 -27Q94 -13 81 -4T56 19Q48 32 45 35T38 44Q34 50 30 56T22 71Q22 75 20 78T15 85Q10 102 10 120T11 157Q12 162 11 166T10 176Q10 184 13 193T18
210Q24 232 31 251T49 288Q58 300 62 311T72 334Q77 345 82 355T93 377Q98 387 103 397T118 415Q121 426 127 433T139 449Q149 463 159 475T178 502Q186 508 192 515T205 529Q212 537 218 543T232 558Q236 561 239 564T246 571Q253 579 260 585T275 597Q284 601
292 608Q301 617 309 626T327 644Q341 658 356 671T388 696Q398 707 412 714T440 729Q448 732 453 734T466 741Q477 748 482 748T490 753Q502 753 511 756T531 757Q535 756 538 755T544 752Q563 750 571 746Q579 742 586 739T604 734Z" />
<glyph unicode="D" glyph-name="D" horiz-adv-x="564" d="M274 584Q247 575 223 565T177 540Q170 535 165 529T153 517Q133 502 111 502Q102 507 100 512Q108 532 119 545T143 573Q154 580 163 587T181 602Q190 610 199 618T218 631Q232 638 244 644T269 659Q287
673 309 684T353 705Q364 710 374 714T396 720Q407 723 419 725T442 731Q458 733 472 738T504 742Q508 742 510 741T516 739Q529 739 534 737T545 733Q555 729 563 725T580 715Q585 712 588 709T595 703Q603 698 605 696T611 690Q616 685 620 683T624 673Q628 662
632 652T636 629Q636 624 635 619T631 609Q629 602 629 596T625 585Q623 571 621 558T616 529Q615 524 615 518T614 507Q612 494 607 483T602 460Q596 439 589 427T574 401Q564 387 557 370T542 335Q540 332 540 328T537 321Q528 310 527 306T524 297Q521 290 518
282T511 265Q509 262 505 254Q502 248 498 242T488 229Q472 204 455 182T418 139Q393 114 366 93T311 49Q301 41 291 33T269 16Q264 12 259 9T248 1Q232 -14 208 -25Q196 -28 193 -29T188 -31Q182 -33 176 -33T164 -34Q161 -34 158 -35T151 -36Q143 -35 135 -32T118
-27Q114 -26 111 -25T104 -23Q97 -19 91 -16T79 -9Q64 -5 61 2T53 15Q47 34 44 49T35 83Q33 90 32 95T31 108Q32 113 35 119T41 131Q49 145 53 159T66 188Q68 190 69 193T73 198Q76 204 78 210T83 221Q91 238 99 254T118 287Q129 306 136 318T155 342Q161 359 170
372T185 403Q191 411 195 422T205 443Q213 463 221 477Q223 480 225 483T228 490Q231 499 235 508T243 525Q251 542 258 555T274 584ZM494 666Q480 665 468 661T442 651Q433 648 425 644T409 636Q400 631 393 626T377 615Q376 612 375 610T372 604Q361 593 356
580T343 554Q335 541 329 529T315 503Q310 492 305 484T295 465Q282 444 278 432Q275 425 271 419T264 404Q261 397 258 391T252 377Q250 372 250 366T247 355Q244 346 241 337T234 317Q229 309 224 303T214 290Q210 279 207 275T201 265Q196 257 192 248T183 230Q181
227 179 224T174 217Q171 211 169 205T164 190Q161 183 158 177T152 165Q148 158 145 151T140 138Q137 131 135 124T130 110Q124 98 122 92T118 79Q116 73 114 67T111 54Q107 51 106 47T105 39T105 30T102 22Q118 24 127 30T151 38Q161 43 168 50T190 59Q206 69
218 80T250 99Q265 112 281 123T309 152Q314 154 323 161Q329 168 334 175T345 190Q355 198 362 208T380 225Q384 235 391 241T404 256Q412 266 418 277T433 297Q447 323 462 347T489 400Q499 413 506 427T519 456Q526 463 528 474T541 488Q549 500 549 516T552
547Q553 552 552 556T551 564Q552 572 553 580T553 595Q548 603 548 605T546 610Q544 616 544 621Q542 629 542 632T538 641Q533 648 531 654T523 665Q515 666 509 666T494 666Z" />
<glyph unicode="E" glyph-name="E" horiz-adv-x="441" d="M502 715Q509 706 518 701T536 688Q542 681 544 679Q544 668 540 658T534 636Q532 610 526 596T521 569Q521 560 526 550T523 532Q518 527 513 526T499 522Q491 520 484 518T468 515Q463 516 458 517T446
519Q443 522 442 524T438 532Q440 537 440 541T440 551Q441 565 447 576T457 600Q457 609 460 615Q460 623 463 629T465 641Q469 646 470 652T473 667Q464 671 453 671T434 667Q396 666 372 647T333 601Q325 592 318 581T302 558Q292 543 286 535T275 519Q271 513
268 507T261 493Q258 486 254 480T247 465Q246 462 245 459T243 454Q242 451 243 448T245 442Q246 437 246 433T248 424Q254 414 256 409T261 398Q264 393 267 390T274 382Q285 380 294 378T313 375Q324 374 334 377T355 378Q364 384 372 377T382 364Q383 357 382
348T377 334Q373 327 367 323T355 315Q344 314 335 312T316 310Q292 304 266 298T213 284Q203 282 201 280T194 278Q180 273 168 267T145 253Q136 245 131 242T124 232Q111 217 95 204L68 170Q63 165 63 163T61 156Q61 146 59 135T55 115Q54 103 55 93T61 75Q63
73 65 70T70 61Q74 54 77 50T88 40Q91 38 95 36T101 34Q103 34 106 35T113 38Q116 39 119 39T124 41Q141 46 153 55T182 71Q186 73 190 75T200 80Q212 89 224 98T253 115Q264 120 274 127T292 141Q297 150 302 156T311 171Q315 172 316 175T321 182Q319 186 318
190T314 197Q305 196 296 199T276 200Q274 200 271 199T265 197Q249 194 235 187T211 170Q210 165 208 163T203 158Q198 148 195 138T184 118Q181 118 178 121T174 127Q174 129 175 133T176 141Q177 144 176 146T176 154Q177 160 178 168T181 181Q185 195 189 200T199
208Q201 211 204 213T213 219Q221 224 223 226T228 231Q233 233 239 235T251 239Q258 240 265 242T282 245Q292 243 296 242Q300 242 303 243T311 243Q314 243 316 243T322 242Q328 243 333 244T343 240Q352 238 358 233T370 221Q372 218 374 216T378 210Q383 198
381 184T371 160Q370 156 368 154T364 148Q342 126 333 106Q320 97 311 86T288 67Q281 59 272 55T254 44Q245 37 235 30T213 18Q204 12 194 9Q182 1 169 -4T143 -17Q126 -22 109 -31T75 -45Q69 -46 59 -43Q51 -41 40 -34T25 -18Q18 -16 15 -8T6 6Q3 11 0 16T-7
29Q-16 41 -20 51Q-25 66 -26 70T-30 79Q-32 84 -34 88T-40 96Q-44 116 -37 136T-22 170Q-18 175 -16 179T-12 189Q-7 198 -2 205T8 221Q13 229 16 238T26 255Q29 266 36 271T50 285Q55 287 58 290T66 296Q89 306 107 316T146 334Q176 340 207 353Q199 362 195
376T185 407Q184 411 182 414T179 422Q177 432 177 434T175 438Q174 445 174 452T174 468Q174 473 174 479T176 490Q180 500 180 503T180 509Q181 513 182 515T184 522Q189 529 194 537T205 553Q212 564 218 572T228 589Q236 594 241 602T254 616Q267 631 279 645T308
671Q319 676 328 683T346 696Q355 704 365 708T386 720Q391 721 394 723T401 727Q408 731 420 734Q427 736 432 738T446 739Q456 738 463 737T475 730Q483 729 488 725T498 715H502Z" />
<glyph unicode="F" glyph-name="F" horiz-adv-x="430" d="M545 717Q548 708 548 705Q550 702 555 697T564 691Q576 691 577 690T581 688Q581 677 582 676T584 673Q584 669 582 659Q580 651 575 643T565 627Q560 619 555 612T544 598Q539 591 537 585T527 572Q520
567 513 562T500 551L488 536Q486 531 483 528T477 520Q471 511 468 502T454 486Q440 461 422 440T388 395Q399 394 410 395T436 398Q466 400 492 401T544 402Q552 396 549 387Q544 387 542 385T534 384Q530 382 529 379T526 374Q520 356 500 356T462 353Q451 352
451 352T449 351Q431 349 413 347T376 342Q371 338 365 339T353 339Q350 337 349 334T346 328Q341 321 337 315T328 302Q323 297 319 291T310 278Q306 275 304 271T298 263Q290 252 281 241T263 218Q258 209 253 201T241 182Q238 176 236 170T231 157Q228 149 225
144T219 131Q214 123 209 114T199 95Q186 75 172 53T144 6Q140 0 137 -6T129 -18Q126 -22 123 -24T116 -28Q108 -34 97 -41T78 -53Q67 -57 63 -63T57 -76Q42 -83 36 -76T31 -63Q31 -59 36 -52T44 -41L54 -26Q57 -18 58 -15T62 -9Q64 -5 65 -3T67 3Q72 9 75 15T82
29Q90 37 96 48T111 68Q113 74 116 78T123 86Q129 98 136 109T145 137Q149 153 155 161T166 178Q168 185 170 191T177 202Q183 212 187 220T196 238Q201 252 211 266Q213 269 215 271T219 278Q223 284 225 291T232 304Q235 309 238 312T242 324Q233 326 226 322Q214
321 199 319T167 316Q162 316 156 316T143 314Q138 312 133 310T123 312Q119 318 118 318T115 321Q110 331 104 337Q102 340 102 342T97 347Q94 350 91 358Q101 371 118 371Q162 381 205 385T290 395Q293 397 294 400T298 407Q303 413 308 418T317 432Q321 434
322 437T326 442Q330 447 330 451T333 457Q344 472 348 478T357 492Q362 499 367 504T377 516Q381 521 384 524T390 532Q398 546 411 561Q422 574 429 589Q435 590 436 594T442 602Q447 614 454 623T466 645Q461 646 454 643T439 640Q429 638 423 636T409 632Q394
630 378 623T346 612Q308 608 274 604T205 597Q197 596 189 595T173 594Q157 594 141 591Q136 592 132 591T123 591Q111 595 108 597T100 599Q96 601 94 603T90 605Q83 614 82 616T88 623Q92 633 104 635T125 641Q139 644 152 646T181 652Q197 657 206 657T223
662Q238 663 251 666T279 673Q283 675 287 675T295 679Q306 679 306 681Q357 691 405 704T506 722Q517 723 527 722T545 717Z" />
<glyph unicode="G" glyph-name="G" horiz-adv-x="605" d="M757 765Q768 757 762 745T748 720Q744 715 741 710T735 702Q727 687 722 681T711 668Q706 660 703 653T693 639Q691 633 687 628T680 616Q676 608 675 607T672 603Q670 600 669 596T665 589Q653 572 646
563Q644 560 643 557T639 552Q632 538 624 526T609 500Q607 495 606 491T602 482Q600 477 599 474T595 465Q593 460 589 455T584 442Q573 421 564 399T543 354Q551 352 558 354T572 357Q586 359 599 360T628 365Q638 363 649 366Q651 367 654 368T660 369Q665 370
669 369T678 368Q684 367 687 368T692 367Q690 365 688 361T690 356Q680 347 671 346T651 342Q649 337 644 334T631 328Q625 326 620 325T608 326Q600 324 595 324T582 322Q578 321 574 320T568 318H557Q541 318 530 313Q525 310 524 305T519 295Q512 264 497 235T469
178Q455 150 442 123T412 73Q401 51 384 38T348 11Q343 5 335 1T322 -9Q312 -10 311 -11T307 -11Q299 -8 291 -12Q280 -16 268 -19T247 -28Q232 -30 229 -32T223 -35Q216 -34 215 -35T212 -36Q206 -38 198 -39T184 -40Q181 -39 178 -38T171 -36Q162 -33 162 -32T159
-31Q155 -29 150 -29T139 -29Q131 -27 121 -26T100 -22Q91 -17 84 -12T66 -4Q57 3 49 8T33 22Q19 31 9 46Q7 50 5 54T-2 62Q-5 70 -8 74T-14 87Q-19 93 -20 102T-29 117Q-31 129 -31 143T-29 172Q-29 177 -30 181T-31 191Q-31 200 -30 211T-19 224Q-2 245 7 263T36
286Q51 294 70 299T111 306Q122 303 132 305T153 309Q159 309 165 310T176 314Q181 321 182 330T189 346Q191 356 195 364T202 380Q204 386 207 392T213 406Q232 436 247 471T278 542Q280 546 282 550T284 559Q284 561 282 565T278 573Q273 582 270 591T266 610Q264
621 264 630T265 649Q267 671 271 692Q284 700 296 708T322 722Q332 722 337 718Q347 717 350 717T358 715Q371 712 378 702T390 678T396 649T399 621Q400 613 405 609T415 600Q424 603 433 606T455 611Q462 612 467 614T477 614Q518 625 556 638T624 673Q638 684
653 693T680 716Q688 724 695 732T710 749Q713 758 715 761Q719 767 722 768T726 775Q735 778 738 777Q753 782 755 783Q760 778 760 770L757 765ZM505 539Q490 531 473 524T433 517Q425 515 419 516Q408 518 396 521T374 527Q371 535 361 537T343 542Q336 528
329 516T316 489Q303 457 291 428T262 370Q256 359 251 348T243 326Q260 328 277 331T312 336Q348 334 388 339T467 346Q470 351 471 356T477 365Q483 374 483 377T486 384Q491 392 495 400T505 417Q509 426 512 434T521 453Q526 462 531 470T542 488Q548 499 553
509T565 530Q570 544 577 548Q577 553 579 554T582 561Q585 563 586 566T590 572Q591 576 594 578T598 584Q573 573 552 560T505 539ZM432 297Q417 295 402 294T375 288Q348 284 326 281T283 273Q270 269 266 269T258 269Q245 267 233 263T207 257Q200 249 195
239T179 224Q168 207 158 189T136 151Q126 153 121 152Q119 168 121 177T128 197Q130 202 132 206T135 215Q136 226 138 230T142 239Q131 237 119 233T98 221Q90 219 86 214T76 203Q73 200 71 199T68 193Q70 177 68 171T63 159T58 146T57 131Q60 108 70 94T89 66Q92
61 94 57T99 51Q106 49 107 48T110 46Q124 38 142 33T178 29Q183 27 196 27Q213 27 231 28T266 31Q273 36 280 41T293 53Q301 58 308 64T323 76Q329 80 333 82Q341 87 345 92T356 105Q364 116 373 128T386 156Q393 168 398 183Q406 194 411 208T423 233Q428 249
432 258T440 279Q443 283 446 288T450 300Q445 301 440 300T432 297Z" />
<glyph unicode="H" glyph-name="H" horiz-adv-x="638" d="M739 736Q748 731 751 723T755 703Q755 695 755 689T756 674Q753 668 748 663T741 649Q732 627 720 610T695 573Q684 563 678 549T665 518Q645 485 627 451T591 382Q605 379 619 376T646 367Q651 359 653
359T654 355Q656 341 652 336T640 335Q633 333 629 335Q613 331 599 329T567 325Q561 312 555 300T543 275Q513 222 489 169T443 58Q441 49 439 41T433 26Q431 14 427 5Q425 0 424 -4T421 -14Q418 -22 413 -26T404 -37Q398 -31 395 -36T389 -47Q378 -49 374 -42T369
-27Q365 -22 360 -22T349 -18Q341 11 334 29T319 63Q317 71 315 77T311 91Q309 96 307 101T302 111Q300 114 300 117T298 123Q293 134 286 145T273 166Q265 176 263 181T256 190Q250 202 250 204T248 209Q241 217 238 221T231 227Q226 230 220 232T209 237Q204
239 199 241T186 246Q177 228 171 208T153 172Q147 158 140 145T126 117Q121 110 119 102T113 85Q110 79 106 73T98 61Q87 43 71 30T40 1Q29 -8 22 -10T6 -8Q3 -4 1 -7T-4 -13Q-11 -13 -13 -11T-20 -4Q-18 5 -14 12T-5 27Q0 29 1 35T6 44Q9 58 13 69T26 90Q28 95
30 100T35 112Q38 117 42 121T49 130Q56 152 63 164T77 190Q84 211 93 229T112 267Q107 269 107 276T102 287Q100 309 87 319Q92 326 92 332Q94 334 97 336T106 340Q110 342 113 343T121 346Q129 347 136 347T152 350Q159 361 163 373T175 394Q176 397 178 400T179
406Q187 416 193 428T207 451Q214 467 223 480T241 511Q250 522 256 540T268 573Q270 578 270 581T272 589Q274 594 278 600T285 612Q289 619 292 625T297 639Q294 645 288 642T273 634Q265 630 259 626T245 617Q201 595 168 567Q163 566 158 564T146 561Q139 566
139 567T137 570Q140 573 147 576T154 584Q153 603 164 613T187 634Q202 643 213 648T234 662Q247 667 259 673T285 686Q290 688 294 692T304 700Q316 708 329 716T357 732Q365 734 365 735T368 737Q377 740 382 742T393 748Q401 751 408 755T425 758Q433 758 440
751T439 737Q447 729 447 715T449 687Q449 682 450 678T450 669Q449 664 447 660T444 651Q440 646 438 641T432 630Q430 621 425 616T417 605Q408 598 403 592Q399 592 399 589T396 583Q376 578 363 561T336 524Q319 513 308 500Q304 495 302 489T295 476Q287 463
278 447T261 416Q259 410 256 405T251 393Q246 383 243 378T238 365Q255 365 272 367T306 371Q332 369 354 376T401 385Q405 387 408 387T415 387Q437 388 459 388T506 387Q510 389 512 393T517 401Q519 406 522 410T528 418Q531 426 534 429T539 437Q545 449 546
451T550 458Q567 487 579 507Q581 510 582 513T586 521Q588 525 588 530T594 539Q598 549 603 560T614 582Q619 592 624 601T634 621Q636 626 638 630T642 640Q650 651 655 662Q659 668 663 674T671 687Q676 700 682 710Q684 714 686 717T689 723Q691 726 690 729T690
736Q692 739 695 742T700 749Q702 751 705 754T713 755Q716 758 719 760T727 764Q732 763 734 761T740 756Q742 751 743 745T739 736ZM442 317Q439 318 436 318T429 318Q422 318 415 321Q394 322 374 319T337 318Q310 314 283 312T229 304Q223 303 218 302T207
298Q205 294 204 291T201 282Q215 266 233 253Q246 237 259 223T287 195Q295 190 298 180Q304 175 307 168T316 154Q326 153 329 146T337 133Q345 120 355 107T372 80Q375 78 376 76T380 71Q390 104 397 129T416 178Q417 185 421 192T425 207Q436 233 448 258T471
310Q463 311 457 313T442 317Z" />
<glyph unicode="I" glyph-name="I" horiz-adv-x="283" d="M498 729Q492 716 492 711T489 701Q487 696 487 694T484 688Q481 683 478 683T470 678Q468 675 465 672T460 667Q457 662 456 658T449 652Q446 651 443 651T437 650Q426 646 419 645T404 643Q392 638 388
638T380 637Q376 636 372 635T361 631Q356 614 347 602T332 573Q314 544 301 519T276 471Q271 466 268 459T260 444Q255 434 254 433T252 430Q250 426 248 422T244 412Q238 404 236 399T231 388Q228 383 225 378T219 367Q209 343 202 326T189 288Q187 281 185 272T179
258Q160 209 140 158T102 55Q118 55 128 60T155 66Q166 51 157 36Q149 26 148 21T145 12Q139 5 138 2T133 -4Q124 -12 102 -15Q91 -17 84 -20T67 -26Q61 -27 56 -28T47 -30Q43 -30 40 -30T33 -31Q16 -31 5 -33T-18 -38Q-26 -40 -33 -43T-50 -46Q-53 -46 -56 -45T-63
-43Q-66 -40 -69 -36T-72 -26Q-72 -21 -71 -17T-70 -7Q-70 5 -62 11T-48 26Q-33 28 -22 33T6 40Q20 81 37 124T70 208Q73 216 76 223T83 239Q88 252 93 264T104 290Q110 297 113 307Q115 312 115 315T118 324Q122 332 127 340T137 356Q144 366 151 375T166 395Q173
415 181 433T198 471Q200 484 206 499T218 526Q224 537 228 549T239 573Q241 580 244 585T249 598Q253 604 255 611T261 627Q257 625 254 625T246 623Q243 622 239 620T230 617Q214 615 202 617Q189 619 185 635Q184 643 188 643T195 651Q194 674 201 685T219 699Q224
701 228 701T236 705Q246 708 256 708T278 711Q289 713 299 714T318 716Q329 719 338 721T360 723Q367 723 373 722T386 720Q393 720 399 719T414 720Q420 721 425 724T437 725Q447 727 457 729T479 731Q490 730 490 731T493 732L498 729Z" />
<glyph unicode="J" glyph-name="J" horiz-adv-x="367" d="M-11 253Q-9 245 -10 233T-12 209Q-12 196 -13 191T-16 180Q-18 170 -21 159T-26 135Q-26 128 -26 122T-27 108Q-27 100 -28 90T-25 72Q-23 67 -17 59T-9 43Q-1 38 -1 37T-1 33Q3 25 10 23Q20 17 34 18T61
16Q79 19 93 27Q97 29 101 31T109 37Q112 42 114 49T120 63Q123 70 126 82T130 101Q141 120 147 141T161 182Q165 194 169 204T178 226Q182 237 186 247T197 267Q200 283 206 295T218 319Q225 335 233 349Q242 364 249 378T266 406Q273 423 282 438T298 471Q303
485 307 498T319 522Q327 538 332 551T345 578Q346 583 347 587T351 596Q343 594 336 588T319 579Q311 574 302 568T287 554Q284 542 281 539T275 532Q269 531 264 530T253 527Q247 529 246 533T241 542Q236 551 238 556T243 565Q245 568 247 570T251 575Q264 587
278 597T305 618Q311 624 317 630T329 642L356 663Q366 670 373 678T389 694T407 707T434 715Q438 716 441 717T449 718Q455 719 455 718T462 719Q467 720 470 721T479 725Q484 727 489 727T498 730Q501 731 504 730T512 728Q518 723 519 716T519 701T514 686T507
673Q504 667 500 661T490 652Q482 641 474 630T457 607Q449 596 443 583T428 559Q420 547 413 535T399 510Q391 493 381 478T362 443Q357 431 354 419T345 394Q343 391 342 388T338 381Q336 377 336 374T332 369Q325 350 317 334T303 297Q301 295 300 292T297 286Q298
285 297 277T294 264Q288 253 285 247T278 234Q267 213 258 190T238 144Q232 134 228 124T218 101Q218 94 215 89T210 78Q206 69 205 61T198 45Q195 41 192 38T187 30Q185 26 185 22T182 13Q180 7 175 1T165 -10Q160 -15 158 -20T150 -30Q144 -33 139 -36T128 -42Q115
-49 103 -52Q94 -54 91 -55T82 -57Q75 -57 71 -56T60 -55Q52 -58 44 -56T28 -52Q24 -52 20 -52T11 -51Q-4 -48 -17 -38T-45 -25Q-68 -10 -83 15T-110 71Q-115 89 -112 108T-108 148Q-106 161 -105 172T-101 194Q-99 201 -97 207T-92 219Q-88 225 -83 230T-74 242Q-68
246 -58 246T-38 247Q-31 249 -24 252T-11 253Z" />
<glyph unicode="K" glyph-name="K" horiz-adv-x="529" d="M248 366Q259 372 266 380T285 394Q291 402 299 408T315 423Q326 429 334 435T350 452Q357 458 362 461T373 468Q393 486 411 506T452 545Q457 551 462 556T473 567Q479 572 485 577T497 589Q502 594 505
599T513 611Q517 616 521 622T528 634Q536 646 543 658T556 683Q560 698 562 702T567 711Q570 717 571 723T577 735Q581 739 588 740T600 737Q609 740 613 737T621 724Q623 719 622 714T621 702Q619 689 619 676T616 651Q615 647 614 643T610 635Q606 627 604 624Q602
621 601 618T598 611Q596 607 592 604T583 595Q569 581 557 567T534 537Q524 525 522 522T517 514Q514 509 510 505T501 496Q499 494 498 491T495 486Q483 473 470 460T446 433Q443 428 440 423T433 413Q430 411 426 409T417 401Q415 399 412 398T406 394Q395 387
384 381T361 367Q352 360 343 354T325 342Q310 331 302 319T273 301Q270 287 274 277T281 259Q283 254 284 248T288 234Q291 225 293 217T299 198Q301 194 302 190T305 182Q307 174 308 167T312 152Q316 136 324 120Q327 109 333 101T343 84Q348 81 351 76T359
67Q368 58 373 48T388 30Q395 29 402 29T416 31Q420 33 423 36T431 42Q435 46 439 48T445 54Q465 65 478 79T505 108Q512 113 517 118T529 129Q544 133 550 136T562 140Q569 142 575 142T587 140Q585 136 586 132T585 123Q583 116 580 111T572 100Q564 92 555 85T539
70Q529 63 522 56T506 42Q498 34 490 28T473 14Q458 0 444 -16T412 -44Q400 -57 387 -57Q382 -55 377 -54T367 -51Q352 -40 336 -32T311 -5Q303 1 298 10T287 30Q284 33 281 36T275 45Q271 47 269 50T263 57Q254 75 246 98T231 139Q230 142 229 145T227 153Q225
156 224 158T222 164Q219 170 218 177T214 193Q212 201 208 209T201 225Q198 234 195 243T187 260Q173 241 170 229T162 206Q155 195 154 191T151 181Q146 173 141 165T132 146Q130 141 129 137T125 127Q123 122 123 117T120 106Q118 103 116 101T112 95Q107 87
104 78T96 57Q94 42 94 31T92 7Q85 1 83 -2T77 -7Q73 -9 70 -10T61 -13Q52 -25 48 -27T40 -32Q37 -34 34 -37T28 -42Q17 -47 3 -46T-22 -40Q-24 -35 -24 -34T-26 -27Q-22 -17 -22 -10Q-12 7 -7 25T10 57Q14 62 16 66T23 75Q29 88 37 101T50 130Q59 142 63 158T74
188Q82 205 88 224T106 257Q111 268 117 279T128 302Q130 309 132 316T137 330Q140 336 143 342T150 355Q156 365 159 376T168 398Q182 430 197 462T226 526Q235 551 245 574T263 621Q260 621 257 618T252 612Q247 610 243 607T234 600Q221 591 205 575Q200 571
194 567T181 558Q164 549 151 548Q144 557 144 558T144 562Q141 568 138 568T133 574Q132 581 132 588T134 600Q136 604 140 608T150 617Q158 627 167 634Q183 647 202 657Q208 662 216 667T232 676Q240 680 249 682T264 687Q269 690 275 699T286 713Q296 724 303
727T314 735Q317 739 318 744T324 754Q331 762 336 763T353 760Q361 760 367 760T375 758Q381 754 388 745T396 725Q396 715 393 705T388 685Q376 660 364 634T341 582Q337 574 334 566T328 550Q326 545 326 540T321 532Q313 522 310 515T302 503Q299 496 296 490T290
477Q287 468 286 460T282 440Q280 431 275 422T265 402Q260 393 257 384T248 366Z" />
<glyph unicode="L" glyph-name="L" horiz-adv-x="397" d="M87 56Q104 61 119 69T154 82Q179 85 204 85T252 91Q276 95 295 97T332 90Q334 82 332 71T327 51Q324 42 322 37T315 24Q310 20 305 18T294 13Q285 15 275 11Q272 15 262 13Q248 14 237 9T212 6Q204 4
195 4T174 1Q163 -1 154 -6T134 -9Q123 -14 111 -18T86 -28Q75 -34 74 -34T70 -35Q60 -40 56 -41T46 -44Q38 -44 32 -42T17 -36Q12 -33 10 -30T4 -20Q-8 -8 -13 5Q-15 7 -18 9T-24 13Q-29 30 -24 42T-13 68Q-7 83 -3 99T11 127Q14 136 22 148Q28 158 31 169T41
190Q44 195 47 199T54 208Q55 213 57 215T61 222Q71 231 76 244T91 267Q99 278 103 291T116 315Q120 325 122 330T128 341Q132 350 135 362T144 382Q146 391 150 397T156 414Q161 421 163 431T170 449Q170 453 172 456T173 463Q178 468 178 475T184 487Q183 494
189 502Q190 507 192 510T196 517Q205 534 207 541T213 555Q215 557 217 559T220 566Q222 571 224 577T228 588Q230 593 231 597T234 604Q241 614 241 615T241 617Q243 622 245 626T249 634Q260 661 267 678T285 712Q285 720 283 728T285 744Q293 748 300 753T317
761Q321 762 324 758T331 751Q340 743 347 732T359 708Q361 700 361 690T357 672Q354 661 349 655Q351 642 349 633T343 616Q333 606 327 592Q321 585 317 577T308 560Q304 552 299 544T291 526Q282 515 281 510T274 500Q262 474 253 452T233 408Q234 403 231 401T229
393Q219 375 215 352T199 311Q190 282 177 259T152 208Q147 206 145 196Q134 179 128 158T111 119Q106 104 98 88T87 56Z" />
<glyph unicode="M" glyph-name="M" horiz-adv-x="904" d="M15 -40Q17 -29 21 -21T28 -4Q37 17 48 33Q50 41 53 47T61 58Q67 72 70 84T81 110Q93 133 105 157T130 206Q136 217 141 228T154 251Q156 259 158 267T163 283Q162 289 164 292T168 300L171 312Q174 323
179 331T187 350Q190 352 192 356T196 364Q204 386 212 407T228 451Q233 464 237 470T243 487Q253 510 263 532T284 578Q291 595 298 608Q302 616 307 623T314 638Q316 644 314 651Q303 650 295 644T275 632Q270 629 264 625Q260 620 259 620T255 617Q246 612 237
605T217 592Q208 584 198 576T179 559Q175 552 166 547Q161 542 157 536T147 525Q146 512 141 501T131 478Q129 473 128 470T126 463Q130 461 133 464T141 467Q155 473 165 482T186 499Q196 507 204 517T221 539Q230 548 232 550T239 553Q244 548 244 546T244 542Q234
518 225 505T208 476Q197 465 192 456T180 438Q175 429 170 421T157 407Q139 403 130 407T113 415Q109 417 105 417T97 421Q92 427 90 429T89 436Q87 438 85 444T83 456Q87 466 87 467T87 471Q88 474 89 477T92 483Q94 487 94 491T97 501Q100 510 108 521Q110 526
112 532T117 543L122 555Q124 563 124 563T126 566Q130 578 132 582T135 591Q160 628 197 654Q211 665 226 676T258 697Q266 705 277 712T299 727Q307 731 314 736T331 744Q338 746 344 743Q354 737 357 737T362 737Q368 735 372 728T378 716Q381 710 384 702T390
683Q391 678 391 673T393 663Q393 658 394 653T395 643Q394 634 389 625T380 609Q373 595 368 581T354 552Q348 544 348 543T347 540Q343 530 341 526T337 516Q332 504 327 492T316 465Q321 466 325 474Q328 476 330 479T335 487Q341 493 343 496Q347 501 349 505T356
514Q367 525 377 538T398 564Q411 576 421 592T439 626Q445 631 450 636T461 648Q477 661 488 674T511 697T539 714T573 718Q578 712 582 705T592 693Q600 673 605 651T610 599Q608 591 604 583T597 564Q595 559 594 555T590 546Q586 534 578 519T566 489Q563 486
563 482T561 472Q555 459 555 452T553 437Q548 419 544 401T536 364Q534 358 533 353T531 343Q529 337 528 331T524 318Q527 319 530 323T536 332Q541 340 546 348T557 364Q565 375 572 385T587 406Q597 421 602 430T613 449Q621 457 626 465T638 481Q645 495 651
505T659 521Q668 533 677 544T696 566Q705 575 710 579T722 589Q734 604 752 620Q766 640 785 655T822 687Q833 691 839 697T851 699Q861 707 869 705T880 700Q893 688 895 684Q897 681 898 677T901 670L907 655Q909 651 911 646T915 636Q919 628 922 617T925 595Q924
590 923 584T920 571Q917 563 915 557T910 544Q908 539 908 535T905 527Q899 511 889 491T874 457Q873 448 867 441Q865 432 862 425T856 410Q854 405 854 401T851 391Q849 386 846 381T841 370Q839 362 837 355T831 340Q827 329 823 319T813 301Q793 268 780 230T750
156Q749 150 746 144T741 132Q736 126 734 116T728 97Q725 87 729 81T736 72Q741 69 750 70T765 73Q771 75 779 77T793 81Q801 84 806 87T818 93Q823 97 831 99Q834 102 837 103T842 106Q854 116 864 128T888 150Q905 177 934 197Q945 191 948 186T955 176Q956
166 952 161T945 148Q929 132 914 115T883 82Q878 71 873 60T858 42Q841 30 829 20T803 5Q778 -10 751 -31Q741 -38 726 -44Q719 -40 718 -40T716 -38Q700 -36 693 -26T675 -6Q662 7 655 31Q651 44 648 56T646 85Q647 96 651 106T659 125Q676 163 696 204T729 283Q732
288 732 291T734 298Q738 308 743 318T754 338Q757 352 762 363T773 388Q779 397 782 409T792 430Q797 447 804 468T813 508Q814 516 813 523T813 539Q814 551 816 565T816 594Q811 590 806 587T796 580Q790 575 784 571T772 561Q766 555 765 555T762 552Q757 543
753 541T746 534Q738 521 733 516T722 504Q722 502 720 495T717 486Q701 459 687 445Q676 428 665 413T643 381Q633 365 624 356T606 335Q596 325 588 313T569 291Q561 280 554 270T539 247Q537 242 530 230T521 213Q516 204 513 194T505 176Q497 162 488 149T471
122Q467 113 466 105T459 94Q454 82 448 73T436 50Q433 43 427 40T414 40Q406 43 401 52T391 67Q389 75 386 81T382 95Q381 99 382 104T383 113Q380 125 383 132T388 146Q392 157 395 159Q397 166 398 172T402 185Q404 190 406 194T410 204Q412 209 413 213T417
222Q418 226 418 228T420 234Q422 243 425 251T433 270Q436 278 439 286T446 303T453 320T460 334Q462 339 465 346T471 359Q477 370 477 372T478 377Q474 384 478 395T488 419Q493 431 495 444T501 469Q506 486 513 508T523 551Q523 559 524 566T518 574Q516 579
514 584T508 592Q498 592 493 586T481 573Q470 558 458 546T434 518Q423 507 410 491T389 464Q387 457 381 453T371 444Q366 438 359 430T347 414Q343 409 339 404T329 394Q326 390 323 386T316 376Q307 367 304 362T296 353Q289 340 282 327T266 300Q262 298 260
293T255 284Q253 273 249 266T241 251Q226 228 216 210T196 171Q191 161 190 159T187 155Q184 148 181 142T174 130Q172 127 172 124T168 119Q157 87 142 60T114 0Q112 -2 111 -5T108 -12Q97 -23 94 -21T85 -19Q81 -19 79 -22T69 -25Q60 -25 58 -27T50 -32Q42 -37
40 -38T35 -37Q34 -40 31 -40T26 -44Q24 -41 21 -42T15 -40Z" />
<glyph unicode="N" glyph-name="N" horiz-adv-x="608" d="M308 547Q326 560 331 572T345 595Q351 600 356 605T366 618Q379 635 392 651T420 685Q424 690 428 696T437 706Q442 710 447 711T458 717Q477 724 493 732T529 743Q535 739 538 735T547 726Q556 723 560
715T569 697Q573 689 575 687T580 680Q584 669 585 657T592 634Q595 632 596 630T601 625Q605 619 603 612T602 596Q604 592 605 588T607 580Q608 565 607 549T604 517Q603 509 603 502T603 487Q601 477 599 468T594 450Q592 438 590 431Q588 426 587 423T584 414Q565
380 545 348T511 278Q506 269 505 265T500 257Q498 250 496 245T489 232Q481 218 474 202T458 171Q453 161 449 152T439 131Q435 122 432 114T424 94Q423 91 422 86T420 79Q420 76 423 73T428 66Q432 61 435 57T444 51Q452 50 459 52T474 52Q478 54 481 55T489
58Q511 70 530 84T571 111Q582 120 593 128T616 146Q623 149 632 155T648 155Q648 149 649 146T648 139Q647 134 645 133T640 128Q637 123 637 117T636 103Q634 97 630 94T624 85Q598 63 570 43T514 3Q510 1 507 -1T499 -5Q488 -11 479 -17T458 -28Q456 -31 453
-31T445 -34Q441 -35 438 -37T432 -38Q428 -38 425 -36T418 -33Q407 -29 395 -28T374 -20Q371 -12 372 -6T370 8Q366 16 362 23T356 39Q350 54 350 65T350 87Q351 98 354 107T362 125Q367 133 370 141T378 159Q383 172 385 180T391 196Q395 204 398 211T404 227Q416
248 425 270T443 315Q446 323 450 330T457 346Q462 357 464 369T472 392Q474 395 475 398T478 407Q486 424 493 444T510 481Q515 495 520 508T528 541Q529 549 529 557T526 572Q520 586 520 592T514 602Q512 609 511 611T508 618Q505 620 503 621T498 625Q481 612
467 600T435 575Q417 560 406 550T383 529Q376 522 374 522Q357 508 344 483Q330 459 317 437T292 391Q278 371 268 347T246 300Q242 289 239 279T229 261Q225 254 220 247T210 232Q203 223 196 215T182 196Q178 190 176 184T171 172Q169 166 167 160T161 147Q159
139 156 136Q151 123 145 111T134 87Q133 81 130 72T124 53T117 35T112 20Q107 17 103 14T93 9Q88 3 82 3T68 -1Q64 -3 61 -6T52 -12Q47 -15 41 -16T30 -22Q27 -24 26 -27T22 -32Q14 -30 10 -33T-1 -34Q-6 -32 -7 -26T-10 -13Q-6 -3 -5 -1T-1 4Q1 7 1 10T4 15Q6
20 9 25T15 35Q16 37 19 43T27 57T34 71T39 80Q42 85 44 89T50 99Q52 104 55 108T62 118Q66 126 67 126T69 128Q71 131 71 134T74 140Q79 150 85 159T96 177Q100 182 102 187T108 199Q113 210 119 220T131 242Q136 253 141 265T152 289Q157 300 163 310T173 334Q181
348 187 359T199 382Q203 390 206 397T213 413Q216 418 218 424T225 436Q227 441 228 446T234 455Q234 460 236 462T240 467Q245 486 249 505T258 545Q257 550 258 555T261 568Q262 581 263 591T265 613Q266 618 266 623T266 632Q265 640 260 647T250 660Q240 659
233 653T218 642Q207 634 204 631Q201 629 199 626T194 621Q184 614 181 608T174 596Q172 594 170 591T166 586Q161 581 157 575T147 563Q147 555 143 547T139 529Q138 524 138 516T140 502Q140 498 141 494T145 484Q147 476 148 472T155 465Q160 467 163 470T169
476Q170 478 171 481T175 486Q177 488 178 491T182 497Q187 505 191 513T198 535Q195 554 203 571Q202 573 202 576T203 583Q215 582 219 572Q221 561 221 546T219 515Q218 504 217 496T212 481Q207 471 201 460T187 440Q181 438 176 434T166 426Q154 418 152 416T144
412Q134 416 131 420T122 427Q117 435 111 445T101 465Q99 469 98 474T95 485Q92 498 89 513T87 546Q87 552 89 559T93 573Q103 589 111 607T127 642Q135 661 145 676T162 710Q167 717 169 717T170 722Q184 726 192 736T217 748Q222 749 226 749T237 751Q251 756
265 759Q286 756 297 751Q308 738 310 734T317 723Q319 720 321 716T324 709Q328 695 330 680T330 648Q328 642 327 637T325 625Q322 606 316 586T308 547Z" />
<glyph unicode="O" glyph-name="O" horiz-adv-x="551" d="M510 659Q515 633 522 612T531 566Q531 560 531 554T531 542V530Q531 522 530 515T528 500Q527 482 522 465Q521 454 520 454T519 453Q517 442 516 432T513 411Q531 409 554 407T599 406Q604 407 608 409T618
413Q635 415 645 421T669 431Q665 420 659 418Q656 408 654 405T648 399Q643 395 639 393T630 386Q614 377 605 377T587 373Q580 374 571 375T554 375Q549 378 543 378T531 376Q519 372 515 371T507 367Q505 361 505 358T503 353Q502 342 502 332T498 310Q494 301
494 299T492 292Q489 287 487 280T483 266Q478 261 477 254T475 239Q474 231 470 224T462 209Q460 204 458 200T453 190Q441 175 430 158Q425 147 420 139T409 120Q401 106 389 96T365 74Q359 69 353 63T342 52Q337 47 332 42T321 31Q314 26 307 21T291 10Q275
1 260 -7T227 -25Q219 -30 212 -34T197 -42Q191 -44 185 -44T172 -46Q164 -48 157 -49T141 -51Q130 -50 117 -47T96 -38Q83 -26 81 -21T73 -11Q72 -7 71 -6T69 0Q62 10 58 20Q49 39 46 53T44 84Q42 100 42 120T42 160Q42 167 42 173T43 185Q42 193 42 200T43 214Q44
224 44 229T47 239Q52 244 52 249T53 259Q57 286 66 307Q69 315 72 322T77 338Q83 355 90 369T105 399Q119 428 134 452T166 503Q171 506 173 511T179 520Q187 537 198 549T220 573Q225 577 229 581T238 591Q241 594 244 596T250 603Q254 605 257 608T264 614Q268
617 272 620T280 626Q288 632 294 638T309 650Q317 651 319 651T321 654Q333 664 336 668T343 678Q351 683 357 689T371 701Q377 708 379 710T385 714Q387 717 389 718T393 722Q398 724 402 726T412 731Q419 730 423 731T432 731Q438 730 441 727T450 719Q462 717
468 707T483 691Q488 683 494 676T506 659H510ZM432 468Q437 461 444 456T458 445Q458 471 460 501T461 558Q458 569 455 579T449 601Q445 605 444 609T440 617Q435 623 435 624T433 628Q431 630 429 632T424 637Q412 638 405 633T390 622Q388 608 389 596T392
573Q395 554 398 535T408 502Q409 495 416 486T432 468ZM298 555Q293 550 288 546T279 536Q273 531 269 526T260 516Q255 511 251 507T243 496Q240 494 238 491T233 485Q223 472 219 467T213 457Q207 453 204 447T197 433Q191 425 186 416T177 398Q169 384 168
379T164 369Q160 363 157 353Q140 317 127 271Q125 262 122 254T117 238Q116 234 116 230T117 222Q116 212 115 203T114 182Q114 162 114 145T116 110Q116 97 118 89Q120 85 125 81T134 74Q142 66 150 58T172 54Q177 51 183 54T195 55Q200 57 205 57T215 60Q223
62 230 64T245 69Q253 72 261 74T276 81Q296 98 305 108Q312 115 319 120T332 132Q337 137 342 142T351 156Q354 159 356 162T361 170Q366 176 368 183T376 197Q382 214 390 229T403 260Q412 279 418 293T428 323Q431 326 431 330T434 338Q439 352 442 365T450
394Q446 396 443 396T437 397Q429 400 423 407T408 416Q404 419 402 421T395 425Q379 442 365 460T341 502Q332 522 327 539T318 577Q312 571 308 566T298 555Z" />
<glyph unicode="P" glyph-name="P" horiz-adv-x="469" d="M90 79Q85 71 83 61T76 43Q72 35 67 28T60 11Q59 4 60 -5T60 -20Q59 -24 56 -27T56 -36Q38 -44 24 -42T0 -33Q-5 -34 -8 -32T-16 -27Q-21 -25 -21 -20T-22 -11Q-27 4 -29 9T-31 22Q-29 35 -22 43T-9 62Q-3
77 2 88T15 109Q16 113 18 116T23 122Q25 127 27 130T31 138Q34 143 36 149T42 160Q44 165 47 170T53 180Q54 183 55 186T59 191Q59 197 61 199T63 209Q68 215 72 221T81 234Q92 252 98 261T109 282Q109 287 111 290T115 298Q117 301 118 305T122 311Q129 331 134
343T144 366Q147 373 149 375T153 380Q159 395 163 402T169 418Q174 429 180 438T189 461Q193 464 194 468T200 476Q202 482 205 488T211 500Q214 504 216 508T220 517Q227 530 235 541T249 565Q255 580 257 584T261 593Q248 589 234 584T202 580Q191 582 188 580T180
578Q175 577 172 577T164 575Q147 569 141 566T127 567Q128 575 129 584T135 599Q159 619 187 633T247 662Q258 665 267 667T284 674Q292 691 301 706T322 733Q332 739 331 738T335 737Q339 735 340 733T344 725Q347 721 348 717T355 712Q358 711 361 712T369 715Q379
716 384 718T395 719Q400 721 406 721T418 724Q425 725 430 727T444 730Q470 732 499 725Q503 723 507 721T517 716Q525 712 531 710T543 703Q553 693 559 683Q563 682 566 679T572 674Q578 663 584 654T592 631Q594 614 591 597T584 562Q583 557 582 553T580 544Q579
541 579 538T580 530Q579 518 576 507T569 485Q561 456 553 430T523 388Q518 380 512 374T499 361Q486 345 465 336Q435 314 404 297Q392 289 380 281T354 267Q347 261 339 257T321 247Q298 236 279 226T236 209Q218 205 202 204T172 206Q169 207 164 209T156 212Q151
210 148 200T143 184Q137 170 129 157T114 129Q108 117 102 104T90 79ZM228 294Q236 300 248 299T269 300Q278 302 279 302T283 301Q286 301 291 302T298 304Q310 308 321 315T343 326Q348 331 354 334T367 343Q372 348 377 353T389 360Q394 368 395 368T396 370Q406
377 412 386T426 407Q433 416 440 425T452 446Q458 454 463 460T473 475Q475 477 475 480T477 486Q482 498 485 502Q488 512 492 516Q494 520 496 523T500 530Q502 535 504 538T509 546Q511 548 511 551T514 557Q515 560 516 562T519 567Q522 575 520 584T518 599Q514
614 513 623T507 637Q505 639 502 639T497 642Q487 646 484 646T475 647Q468 644 459 645T438 646Q432 646 426 644T415 643Q411 641 408 640T401 639Q396 638 392 638T384 637Q371 635 360 630T335 621Q335 613 333 607T331 594Q325 577 317 561T304 528Q293 508
284 487T264 444Q258 431 250 418T240 388Q235 377 233 367T226 348Q224 343 222 339T218 330Q216 327 215 324T212 315Q207 306 206 300T202 288Q207 289 213 292T228 294Z" />
<glyph unicode="Q" glyph-name="Q" horiz-adv-x="547" d="M420 -17Q427 -17 429 -20T434 -27T440 -33T449 -34Q456 -41 458 -45T469 -50Q477 -51 486 -54T503 -58Q514 -59 523 -58T544 -58Q552 -59 564 -60T578 -69Q575 -73 573 -82Q568 -86 565 -90T556 -97Q546
-107 544 -109T537 -113Q527 -118 525 -118T521 -118Q514 -119 507 -121T495 -125Q487 -126 481 -126T470 -128Q462 -127 453 -127T436 -129Q418 -131 404 -124T377 -109Q371 -101 365 -93T352 -78Q346 -62 338 -57Q333 -48 331 -42T323 -32Q315 -15 309 -3T293
19Q285 15 283 12Q266 7 255 -4Q244 -7 235 -13T214 -23Q203 -31 191 -33T165 -34T140 -27T120 -16Q112 -1 93 4Q88 11 86 21T79 38Q79 48 76 53Q74 68 71 72T66 81Q63 85 61 90T56 100Q51 108 49 109T48 114Q38 149 42 201Q45 214 46 218T49 228Q58 267 69 304T94
376Q99 389 103 401T114 425Q117 430 120 436T126 447Q129 453 131 458T138 468Q146 483 155 494Q156 498 158 500T162 506Q164 510 164 513T167 521Q170 528 174 534T181 549Q188 555 193 560T202 573Q224 604 250 627T305 669Q314 671 321 676T333 688Q338 689
344 695Q359 705 371 709Q375 711 378 713T385 718Q405 729 428 736T475 746H486Q494 742 495 742T499 742Q503 741 505 738T513 735Q539 704 549 670T565 599Q564 575 566 549T565 498Q564 489 563 482T560 466Q558 458 557 450T550 434Q547 420 542 408T529 382Q527
379 527 376T524 369Q523 366 522 363T518 357Q511 341 505 332T495 310Q484 291 476 276T461 245Q458 238 455 232T450 218Q446 211 444 205T437 193Q430 182 429 179T426 171Q420 163 418 159Q416 155 414 151T410 142Q404 136 400 128T391 112T381 96T367 86Q365
82 362 80T358 73Q358 69 362 65T368 58Q371 54 373 51T379 45Q386 36 392 27T407 9Q409 2 412 -4T420 -17ZM335 153Q341 160 343 163T348 170Q353 177 357 183T365 198Q367 203 370 207T375 217Q378 223 380 230T385 245Q393 259 396 267T404 283Q404 286 405
288T409 295Q414 304 417 314T426 333Q430 341 433 347T439 360Q440 368 445 373Q450 388 457 403T469 433Q471 439 472 445T476 457Q478 463 480 468T485 480Q491 497 494 513T501 549Q505 566 507 583T504 616Q502 623 500 628T495 639Q485 652 476 653T458 654Q453
656 447 656T435 657Q430 659 425 660T414 663Q404 661 400 658T389 652Q385 647 380 644T370 637Q364 634 359 629T348 623Q328 605 307 587T264 552Q259 544 252 538T243 519Q238 514 235 507T226 494Q220 480 212 469T198 443Q195 436 193 435T190 430Q188 428
187 426T183 421Q177 407 172 394T162 365Q158 351 156 337T150 307Q148 299 145 291T140 274Q138 263 138 252T135 226Q134 213 132 199T131 174Q131 167 133 161T135 147Q138 144 139 139T144 130Q157 133 171 136T199 142Q208 142 212 145Q222 147 226 147T237
146Q244 146 250 146T263 146Q270 144 277 142T289 137Q300 131 302 130T308 127Q316 133 321 140T335 153ZM230 72Q219 70 209 66T186 60Q182 57 176 56T168 50Q177 48 182 44T197 38Q210 42 219 47T240 55Q245 61 251 64T260 76Q252 75 245 74T230 72Z" />
<glyph unicode="R" glyph-name="R" horiz-adv-x="552" d="M288 280Q294 268 301 258T312 232Q316 227 316 221T318 209Q325 184 335 161T356 116Q358 99 366 89T377 61Q385 42 395 25T415 -9Q420 -12 425 -15T436 -22Q440 -24 443 -26T451 -31Q456 -33 460 -34T470
-37Q474 -39 476 -42T482 -47Q486 -48 490 -49T498 -50Q515 -58 527 -61T550 -68Q555 -70 562 -72T575 -74Q583 -78 585 -82T591 -92T601 -102T617 -108Q620 -110 621 -113T627 -120Q637 -128 636 -130T633 -135Q626 -136 619 -137T609 -143Q603 -143 596 -143T583
-140Q566 -141 552 -138T518 -133Q507 -133 497 -134T479 -132Q457 -123 444 -116T417 -101Q406 -96 397 -89T377 -77Q363 -61 350 -46T326 -13Q322 -6 320 -2T315 6Q311 15 308 17T303 23Q300 28 298 35T294 49Q292 58 290 66T285 83Q283 89 280 93T275 105Q271
116 268 127T262 152Q259 171 255 181T248 202Q242 217 231 237T212 272Q210 277 210 280T206 285Q201 280 197 268T189 250Q178 232 175 222T166 201Q163 181 155 166Q153 152 145 145Q140 127 133 109T120 74Q118 65 115 57T113 41Q113 33 111 27T106 13Q101
-1 85 -4T53 -11Q47 -13 39 -15Q27 -18 14 -25T-14 -31Q-23 -29 -21 -21T-13 -8Q-8 3 -3 14T9 35Q11 44 16 49Q22 53 24 60Q26 62 27 65T30 70Q32 75 32 80T35 91Q38 99 40 107T48 126Q50 132 52 138T58 152Q60 158 64 163T71 175Q77 189 80 197T88 214Q96 235
106 252T127 290Q129 293 131 295T134 302Q138 304 140 309T146 316Q150 322 152 328T158 338Q169 358 177 378Q179 383 179 387T182 395Q188 402 189 406T193 413Q197 420 201 426T210 441Q215 456 223 468T237 495Q243 504 244 505T245 508Q258 533 268 554T290
599Q279 597 271 589T253 578Q251 575 249 573T245 569Q220 557 199 542T162 505Q157 503 152 500T141 493Q134 490 123 489T106 496Q102 525 111 539T128 567Q141 579 156 588T185 607Q198 616 201 619T209 624Q233 640 259 659Q275 673 294 680Q313 686 326 689T350
698Q382 704 409 713T464 733Q478 735 490 735T518 737Q522 734 529 734T543 734Q551 732 558 731T574 727Q580 721 591 719T613 712Q621 708 628 705T643 697Q650 689 650 683T650 666Q651 661 651 657T653 647Q653 643 654 640T656 634Q657 617 658 601T658 567Q656
555 651 547T641 527Q635 517 628 507T613 486Q610 484 608 483T604 477Q591 467 580 461T561 449Q557 447 553 445T545 441Q541 437 535 433T524 425Q516 417 510 414T502 404Q479 391 461 375T422 344Q414 337 407 330T389 318Q375 312 369 307T351 300Q338 292
322 287T288 280ZM511 670Q507 669 501 669T488 667Q478 665 466 660T442 653Q426 649 417 646T403 641Q401 639 401 634T398 626Q394 616 388 608T379 591Q368 578 363 566T353 542Q340 525 333 512Q328 506 327 506T326 503Q314 491 307 476T288 450Q280 438
277 429T265 413Q261 405 258 398T250 382Q241 362 228 343Q228 338 226 335T221 328Q225 325 229 327T236 331Q259 344 286 353T335 378Q354 389 370 398T401 419Q416 427 424 431T443 440Q451 447 460 452T474 464Q485 473 494 484T513 506Q518 507 519 509T525
512Q533 523 544 531T562 551Q567 559 569 567T577 585Q575 593 580 601T584 617Q582 624 576 629T567 641Q565 649 563 653T558 663Q554 665 551 667T541 668Q536 670 528 670T511 670Z" />
<glyph unicode="S" glyph-name="S" horiz-adv-x="481" d="M198 596Q203 604 204 610T210 625Q230 636 246 651T283 677Q297 687 305 690T322 700Q331 704 339 708T359 715Q367 717 373 720T385 726Q399 731 413 735T440 743Q445 745 452 748T465 750Q476 748 478
749T483 750Q491 751 496 748T509 743Q515 741 520 740T531 737Q536 735 539 732T546 725Q550 723 553 720T561 714Q569 697 579 680T589 639Q583 630 582 630T580 628Q569 621 564 616T553 604L539 590Q536 588 532 587T527 580Q519 576 514 570T501 561Q492 550
479 544T455 529Q444 522 441 520T434 515Q423 510 415 505T395 496Q390 494 386 491T374 489Q369 491 364 493T355 489Q342 487 331 493T318 512Q306 522 311 539Q313 547 318 555T328 570Q333 579 337 587T346 604Q360 619 374 632T411 650Q418 652 425 654T438
658Q441 656 444 658T450 658Q454 655 453 651T452 642Q449 638 444 637T435 634T426 630T421 621Q393 597 371 561Q374 559 379 556T389 552Q397 550 407 556T424 565Q452 578 474 600Q480 605 486 611T496 623Q500 628 503 633T511 641Q512 650 509 655T501 666T491
677T484 689Q479 691 476 696T467 703Q465 703 459 704T451 705Q426 700 412 694T384 682Q350 664 321 640Q318 638 314 636T308 632Q303 628 300 622T291 610Q286 603 281 597T273 582Q267 579 265 571T258 557Q256 549 253 543T248 527Q257 509 261 499T271 479Q272
468 277 460T288 440Q302 417 313 392T339 343Q345 329 350 316T367 292Q369 285 372 279T379 265Q383 253 390 239Q393 231 397 225T403 213Q407 204 409 191T411 168Q411 158 410 154T407 148T403 142T399 130Q390 114 378 101T357 71Q351 63 344 57T330 45Q323
40 316 36T302 26Q285 11 267 5T232 -13Q226 -13 220 -14T208 -18Q203 -20 198 -22T186 -26Q181 -28 178 -30T169 -34Q155 -37 139 -37T106 -34Q87 -27 77 -28T58 -20Q53 -18 53 -15T48 -9Q37 0 34 2T28 7Q13 19 4 35Q1 40 -2 45T-6 54Q-8 60 -7 66T-9 79Q-8 86
-9 94T-10 108Q-10 117 -8 126T-8 140Q-6 153 -2 159T8 174Q25 182 36 188T60 201Q65 203 68 205T76 209Q85 214 95 217T116 225Q125 230 134 234T153 243Q159 243 164 246T177 249Q179 249 182 249T188 248Q193 248 199 248T210 246Q215 244 219 240T230 236Q237
229 241 221T249 203Q251 198 252 189T254 174Q253 159 244 151T226 132Q212 127 195 115Q185 116 177 112T158 104Q153 103 147 104T136 103Q131 102 126 99T116 98Q111 100 109 106T108 118Q114 128 125 130T148 139Q158 144 165 152T181 168Q186 174 193 180T196
196Q187 203 176 200T155 193Q137 185 120 176T85 159Q77 156 73 152Q71 149 70 144T67 135Q60 120 63 105Q65 100 68 96T71 86Q75 82 78 79T84 71Q87 69 89 69T95 67Q105 61 119 56Q125 54 137 50T155 46Q160 45 168 48T182 53Q205 64 229 76T276 99Q284 104 291
110T303 125Q312 136 318 152T327 185Q328 189 328 192T328 199Q322 210 322 212T321 217Q314 229 313 233T309 242Q302 253 292 261T279 285Q273 290 271 298T260 308Q258 313 257 316T253 326Q247 333 244 341Q238 346 234 352T225 365Q217 373 214 377Q210 382
208 388T200 399Q197 404 193 408T186 418Q178 427 173 438T165 464Q167 476 161 485T158 508Q163 522 169 536T179 562Q184 564 185 569T188 580L198 596Z" />
<glyph unicode="T" glyph-name="T" horiz-adv-x="387" d="M645 744Q650 736 648 725Q647 720 642 714T633 702Q623 694 621 690T613 683Q596 676 585 676T557 677Q545 677 540 676T522 672Q518 671 516 670T509 668Q504 666 500 666T492 663Q487 664 486 663T480
660Q473 659 471 658T464 655Q461 657 456 656T446 653Q438 651 433 650T422 646Q421 643 419 641T418 635Q412 628 408 619T397 604Q394 599 391 594T383 584Q381 576 377 571T368 559Q359 544 351 521T334 482Q330 469 323 460T311 439Q303 405 289 376T262 316Q257
305 256 304T254 299Q249 294 247 287T241 272Q240 269 234 263Q232 258 230 252T226 241Q223 237 223 233T221 227Q215 216 215 213T214 207Q206 191 204 183T197 167Q197 162 195 158T191 150Q193 142 188 133T179 115Q172 98 168 93T162 81Q157 69 154 65T147
55Q142 44 138 34T127 15Q127 11 127 7T126 -2Q124 -7 120 -12T112 -19Q102 -19 98 -20T90 -22Q85 -20 80 -16T71 -8Q60 5 51 13T41 36Q40 43 43 50T54 59Q65 82 70 98T83 130Q85 134 86 137T90 146Q92 151 93 154T96 163Q99 171 103 178T112 193Q120 208 127 222T143
251Q145 257 148 261T154 272Q156 278 155 282T154 292Q155 298 159 302T164 313Q169 321 173 328T183 343Q188 352 189 356T194 366Q198 372 199 376Q202 384 205 391T213 403Q215 413 219 419T229 433Q233 446 239 457T251 481Q256 492 260 509T270 537Q283 560
294 583T317 630Q303 630 287 630T259 631Q254 631 253 630T245 629Q241 629 237 630T228 631Q220 632 209 629T188 623Q175 621 173 617T160 610Q155 608 150 609T139 606Q128 608 120 616T105 635Q103 639 99 638T94 642Q92 650 94 658Q95 661 97 663T99 668Q107
670 113 671T125 677Q142 680 152 683T180 690Q190 695 190 695T193 694Q203 696 216 699T243 705Q257 707 265 707T290 707Q308 706 326 708T360 713Q367 715 371 715T378 717Q384 718 389 718T397 722Q416 726 432 729T463 734T493 740T529 746Q546 748 555 750T584
751Q590 750 596 750T610 749Q615 748 623 746T639 746L645 744Z" />
<glyph unicode="U" glyph-name="U" horiz-adv-x="622" d="M461 65Q475 61 490 65Q494 66 496 67T501 71Q507 73 513 75T524 80Q530 84 535 86T544 91Q547 93 552 98T560 102Q562 107 571 112T583 122Q588 122 599 130T614 141Q626 146 634 144T645 134Q646 129
644 123T639 109T630 96T621 88Q621 86 614 80T606 72Q604 68 596 63T585 55Q583 54 579 51T573 45Q569 43 563 40T553 35Q545 30 537 23T521 10Q516 8 512 6T506 -2Q490 -10 476 -24T444 -45Q439 -44 436 -43T428 -39Q422 -20 410 -10Q405 6 398 20T388 52Q380
76 380 101T377 154Q380 168 378 188Q373 188 370 185T364 179Q359 176 356 173T350 167Q340 158 336 155T329 148Q323 140 316 130T302 112Q295 103 293 101T290 95Q286 94 284 92T278 88Q275 84 272 82T265 78Q256 71 247 63T228 47Q219 39 209 31T187 14Q182
6 173 2T156 -8Q146 -14 141 -11T131 -8Q122 -10 115 -7T98 0Q90 4 87 8T76 17Q72 19 69 22T61 30Q49 35 46 45T39 67Q35 78 33 88T31 111Q33 128 37 144T41 174Q43 182 43 191T45 207Q46 214 47 218T50 227Q52 238 58 249Q61 263 66 278T77 310Q83 329 90 348T104
386Q107 393 108 399T113 413Q115 416 117 419T122 426Q124 429 125 433T130 439Q135 453 142 463T158 485Q163 488 164 495Q171 501 175 509T186 525Q189 536 193 545T200 565Q208 585 217 603T236 641Q236 646 240 652Q242 661 244 667T251 680Q252 688 256 691T261
702Q265 705 265 708T268 714Q272 721 279 724T292 733Q300 734 309 735T328 739Q338 741 342 742T352 746Q362 740 368 732T380 712Q372 702 368 697T359 685Q353 675 348 664T338 642L327 620Q324 611 320 603T312 585Q309 578 309 574T306 566Q303 558 299 551T293
535Q285 520 279 509T267 486Q265 483 265 481T262 475Q260 472 256 464Q251 455 247 445T238 425Q231 414 231 412T229 406Q222 398 221 395T218 388Q215 384 213 381T207 373Q205 369 202 364T196 355Q187 344 182 334Q178 325 176 317T170 304Q168 296 165 289T160
273Q143 242 131 209T108 141Q108 132 102 124T101 102Q110 93 113 88T119 79Q122 76 125 74T131 69Q142 77 152 86T177 101Q180 102 182 107T187 114Q204 126 219 140T253 166Q276 181 296 199T340 234Q345 240 350 243Q359 260 372 271T400 294Q402 296 404 298T409
302Q422 340 435 377T468 447Q470 458 474 465T481 481Q487 491 490 497T497 510Q511 536 525 563T553 618Q570 645 595 670Q605 673 610 681Q616 688 617 690T620 694L625 705Q632 716 633 719T636 728Q648 733 659 736T682 743Q688 745 692 747T705 748Q712 742
718 735Q720 727 719 721T711 711Q705 699 698 690T686 669Q674 654 664 637T646 602Q637 585 627 569T608 534Q600 517 591 502T573 469Q567 459 567 458T566 454Q564 450 562 446T557 436Q555 431 553 427T549 417Q547 414 545 412T544 406Q530 377 518 347T494
287Q490 271 485 259T474 232Q471 207 462 185T449 137Q449 114 454 98T461 65Z" />
<glyph unicode="V" glyph-name="V" horiz-adv-x="521" d="M254 688Q246 690 239 693T223 699Q217 701 215 699T207 692Q202 686 198 682T188 670Q167 643 153 617T125 564Q129 559 136 557T148 550Q164 558 173 573T194 602Q196 611 202 618T210 634Q211 638 211
642T214 649Q216 641 218 637T222 625Q224 606 221 588Q220 585 219 582T216 575Q212 564 211 562T207 557Q204 554 201 551T195 543Q187 535 184 526Q179 524 177 521T170 512Q165 508 162 504T152 503Q138 500 124 503T95 508Q89 510 87 515T80 521Q78 524 78
528T73 535Q73 541 72 545T72 555Q73 559 74 562T78 569Q80 574 80 579T83 588Q91 599 99 609T114 633Q122 641 128 650T142 670Q149 674 152 680Q168 697 180 709T205 734Q211 741 219 746T239 754Q256 760 263 760T280 761Q293 756 299 746T313 725Q316 720 317
717T322 708Q326 698 330 684T329 654Q328 641 324 627T317 597Q316 591 316 586T315 572Q314 563 311 554T304 535Q300 524 299 513T296 490Q291 460 284 431T270 371Q267 354 261 338T250 306Q246 302 245 295T241 280Q233 258 228 237T224 193Q224 177 222 162T218
129Q224 130 226 139Q234 147 239 155T249 172Q251 175 253 177T257 182Q259 185 260 188T264 196Q270 204 278 212T293 229Q298 237 302 245T312 259Q327 283 343 305T376 349Q402 384 426 415T476 478Q482 491 492 501T511 522Q515 526 518 530T525 538Q539 555
552 571T579 605Q584 613 589 622T602 638Q610 646 614 654T624 669Q630 675 632 678Q634 680 636 682T640 686Q646 695 650 697T656 702Q663 705 668 708T679 714Q686 716 690 719T702 725Q706 729 711 731T721 737Q725 739 728 741T734 745Q748 732 745 720T737
698Q734 693 729 689T720 681Q712 673 706 665T692 647Q684 634 673 621T651 597Q649 593 647 590T642 584Q638 579 636 575T629 568Q627 563 623 560T617 552Q608 544 600 532Q594 524 593 524T591 522Q583 509 575 501Q571 496 568 488Q563 483 560 477T552 463Q550
460 548 457T544 450Q540 442 537 435T528 420Q524 412 521 406T513 394Q503 383 493 369T472 345Q470 340 467 337T460 330Q452 320 446 310T431 290Q426 283 422 277T412 264Q407 259 403 253T393 240Q389 235 386 231T379 220Q371 214 367 205T353 188Q347 178
341 169T327 148Q325 144 324 141T321 132Q319 127 316 124T312 116Q292 92 279 73T250 37Q244 28 239 22T230 8Q224 -1 215 -9T196 -25Q190 -30 182 -29T169 -20Q156 -13 154 -8T145 6Q133 8 136 22T141 49Q143 64 144 81T147 115Q148 137 149 159T152 204Q153
207 153 209T152 215Q152 220 153 225T154 236Q154 241 154 245T155 254Q156 273 160 289T169 323Q176 341 180 360T190 399Q198 422 203 450Q204 453 204 456T204 463Q205 468 206 472T207 481Q211 500 214 512T223 538Q225 543 225 546T227 554Q231 563 235 574T244
597Q247 605 250 614T256 631Q259 652 259 665T254 688Z" />
<glyph unicode="W" glyph-name="W" horiz-adv-x="766" d="M972 757Q971 753 972 751T976 746Q974 742 972 739T970 730Q965 724 961 716T952 702Q940 685 930 669T909 639Q905 634 904 630T899 623Q891 614 889 610T885 600Q883 596 882 595T881 592T879 588T874
582Q872 578 870 574T865 565Q860 557 856 550T847 535Q845 530 843 528T839 520Q832 511 830 509T826 504T822 498T817 488Q814 479 813 474T810 465T806 457T799 447Q793 436 788 429T777 413Q773 407 772 405T769 402T766 398T761 390Q753 379 746 368T731 345Q726
337 722 329T712 314Q708 301 697 292Q686 270 677 247T659 200Q655 195 654 189Q647 178 647 176T644 171Q636 160 631 152T621 137Q616 131 612 126T605 112Q597 101 590 90T577 65Q573 60 571 56T566 47Q557 38 553 28Q536 11 520 -5T483 -35Q478 -36 473 -37T462
-38Q456 -37 451 -34T439 -32Q432 -28 425 -15Q423 -7 422 -2T419 10Q414 23 412 32Q410 43 412 54T418 80Q422 94 425 108T431 137Q434 157 438 177T446 215Q449 226 452 237T455 259Q455 265 455 271T457 284Q463 312 473 339T494 393Q496 398 498 404T501 417Q502
425 502 431T503 446Q504 450 504 452T505 458Q505 461 505 464T505 470Q505 475 506 480T510 492Q511 498 511 504T512 517Q479 476 453 436T398 356Q393 345 386 336T373 317Q368 309 362 301T351 284Q347 275 344 267T336 252Q333 247 329 242T322 232Q317 227
312 222T301 212Q296 210 292 204T284 190T275 175T268 165Q259 143 248 124T225 86Q221 80 218 74T209 61Q199 46 193 34T175 12Q173 7 170 4T166 -5Q161 -11 152 -14T134 -22Q127 -26 118 -29T97 -27Q95 -26 93 -23T88 -20Q86 -14 82 -12T73 -5Q71 -3 70 -1T66
5Q60 12 55 20T46 40Q46 42 46 45T45 52Q44 57 43 60T41 71Q42 79 44 86T49 100Q53 115 58 127T68 156Q72 169 76 176Q79 185 80 190T84 199T87 207T92 220Q95 236 99 248T109 275Q112 287 119 307T133 348T147 388T156 421Q159 426 161 432T165 444Q169 459 176
479T190 520T203 561T214 597Q218 606 219 620T221 649Q196 632 181 618T148 590Q144 584 138 580T126 569Q121 568 118 565T110 559Q105 557 98 556T85 555Q82 555 79 556T73 557Q68 557 61 554T49 549Q45 547 43 545T36 541Q31 539 27 540T18 543Q14 544 11 544T5
547Q7 552 10 555T16 563Q24 568 31 578Q36 580 39 583T46 590Q49 593 53 595T60 602Q71 607 79 615T99 629Q109 635 114 639T126 647Q130 650 133 653T141 660Q151 668 160 674T178 688Q188 702 198 708T220 719Q225 722 230 724T241 726Q244 726 246 726T252
725Q262 725 266 721T278 713Q282 710 285 708T291 700Q294 700 296 699T301 695Q303 689 306 684T308 670Q307 665 306 661T304 651Q300 644 298 639T294 629Q292 625 292 620T292 610Q290 600 287 590T282 569Q280 566 280 563T279 556Q273 544 270 537T264 522T258
506T254 495Q252 487 250 481T245 467Q243 459 241 450T237 431Q234 422 232 413T227 395Q226 392 223 380T215 355T208 330T204 315Q203 312 203 309T201 304Q201 296 198 290T190 275Q187 267 185 260T178 245Q172 226 167 212T156 184T147 155T137 119Q139 117
141 115T146 112Q149 112 152 113T159 117Q163 119 166 121T172 125Q174 127 175 130T177 135Q183 142 184 146T188 151Q190 162 196 168T206 184Q209 186 210 190T214 197Q216 202 220 210T230 228T239 245T247 258Q249 265 252 270T260 283L272 301Q274 305 278
309T285 317Q287 321 288 323T292 329Q295 333 298 337T304 345Q307 349 310 352T318 360Q325 368 329 377T339 393Q344 406 351 417T366 439Q372 451 378 462T392 485Q398 498 407 507Q413 519 414 519Q425 536 436 551T459 583Q464 589 467 595T476 606Q484 620
492 630T508 648Q520 656 523 657T530 660Q538 665 540 667T545 672Q547 674 549 676T551 682Q555 686 557 688T562 693Q567 698 570 703T582 703Q586 701 590 694Q592 692 594 689T598 682Q599 677 598 671T598 658Q602 647 606 636T608 609Q604 602 603 593T599
573Q596 561 593 554T591 541Q587 533 586 524T583 507Q580 492 575 479T569 450Q568 436 563 417T556 382Q554 375 555 371T557 360Q555 344 555 338T554 324Q553 319 552 314T550 303Q548 296 547 290T543 278Q541 266 539 254T534 231Q535 227 534 224T531 216Q529
211 529 205T528 194Q527 189 527 183T524 171Q519 158 519 151T517 139Q518 131 514 123T511 106Q516 110 519 115T526 125Q529 130 533 133T541 142Q549 150 555 161T566 183Q568 186 570 192T575 203Q584 217 593 237Q595 241 596 244T599 252Q602 261 604 270T609
288Q611 292 612 295T616 303Q621 313 626 322T638 340Q646 357 651 365T660 381T670 397T681 419Q684 421 685 424T689 431Q692 442 695 449T702 465Q705 467 706 471T711 477Q715 486 719 493T729 508Q733 514 735 517T739 525Q745 537 746 538Q754 547 755 549T756
552T758 555T762 560Q765 567 766 569T769 572T771 576T776 586Q784 597 785 600T793 613Q795 615 796 619T799 625Q808 637 810 641T816 649Q821 656 826 663T836 678Q841 683 846 686T856 695Q860 695 863 698T870 705Q882 708 890 716T909 732Q916 737 922 742T934
754Q943 762 954 763T972 757Z" />
<glyph unicode="X" glyph-name="X" horiz-adv-x="612" d="M766 755Q765 748 762 746T756 739Q753 737 751 733T743 725Q738 719 734 713T723 702Q721 695 717 691T708 682Q703 677 698 673T688 665Q679 657 671 649T653 632Q645 625 642 621T636 610Q628 602 621
591T605 569Q601 565 598 562T590 554Q586 549 582 545T573 538Q567 528 560 522T547 506Q544 504 541 501T537 494Q532 491 528 487T521 477Q510 468 502 457T482 436Q479 431 476 427T468 419Q457 406 446 395T424 369Q422 366 417 361T410 352Q409 348 410 342T411
332Q416 304 416 280Q418 263 418 246T425 217Q425 203 429 192T437 167Q439 162 439 157T439 145Q441 121 448 96T459 45Q460 37 461 30T466 15Q473 7 473 5T474 1Q476 -3 481 -7T492 -13Q498 -18 503 -20T513 -26Q521 -23 523 -25T528 -29Q535 -31 542 -30T557
-30Q562 -30 567 -31T579 -33Q584 -32 589 -32T600 -30Q608 -28 616 -28T628 -22Q630 -46 620 -56Q612 -59 605 -61T590 -68Q565 -72 541 -75Q536 -75 532 -76T523 -77Q520 -77 517 -76T511 -75Q506 -76 501 -77T490 -78Q479 -75 477 -74T472 -74Q464 -70 458 -64T446
-50Q431 -41 420 -28T396 -3Q394 5 391 13T382 29Q380 40 379 53T379 81Q377 83 377 86T377 93Q365 103 363 115T358 137Q358 147 356 156T353 174L351 190V205Q349 224 349 245T347 288Q336 278 327 267T306 246Q303 241 299 238T291 229Q276 218 270 213T258
199Q247 190 242 180Q229 170 218 156T196 127Q192 123 190 121T187 114Q175 101 168 94T152 76Q142 64 132 52T110 31Q105 28 101 25T91 18Q84 13 76 10T59 2Q49 -3 39 -5T16 -13Q8 -16 1 -22T-16 -28Q-18 -26 -21 -26T-26 -23Q-20 -11 -14 -1T-2 22Q7 34 16 45T35
68Q45 79 55 88T75 111Q80 116 86 124Q89 127 91 130T97 137Q125 167 153 195T208 255Q213 260 218 266T229 279Q242 290 251 302Q255 303 257 306T263 313Q272 321 276 325T285 335Q294 347 303 360T323 385Q326 388 330 394Q332 397 335 399T339 404Q340 408
338 418Q337 427 337 437T335 457Q335 464 335 470T334 484Q334 491 333 497T332 509Q331 517 331 523T331 538Q329 548 329 557T326 577Q328 586 327 592T324 607Q324 612 324 617T322 626Q320 629 317 631T312 636Q304 642 301 645Q295 653 289 653T278 651Q266
648 258 641T241 625Q238 622 235 619T229 614Q222 604 220 603T215 597Q205 588 196 575Q195 558 186 539T174 500V489Q173 477 174 476T178 472Q189 465 194 469T206 473Q216 485 219 500T225 532Q226 540 226 546T226 558Q226 565 225 572T229 586Q232 585 233
583T237 578Q243 574 245 570T249 562Q249 548 248 532T244 499Q242 480 237 464T216 437Q205 431 194 427Q185 423 178 425Q163 429 151 440Q145 451 138 461T129 486Q129 491 129 494T131 503Q134 519 139 535T153 567Q157 577 160 582T169 595Q175 603 182 612T196
630Q213 647 230 664T263 698Q271 703 280 710T298 724Q301 726 304 728T309 733Q313 735 318 735T328 736Q332 737 335 738T340 735Q350 737 356 734T371 729Q375 725 380 722T388 713Q390 711 391 707T394 699Q398 692 399 685T403 670Q402 662 403 658T403 647Q405
639 405 631T403 611Q406 605 406 598T406 583Q404 569 405 556T407 528Q409 513 409 496T412 464Q419 468 424 477Q431 482 438 491T452 508Q461 516 469 525T484 545Q491 549 495 554T505 564Q519 580 534 594T563 626Q572 637 581 647T601 669Q611 679 620 690T639
712Q644 714 647 717T655 723Q664 723 670 724T681 729Q686 729 688 729T693 733Q704 735 715 741T737 753Q746 757 754 760T766 755Z" />
<glyph unicode="Y" glyph-name="Y" horiz-adv-x="601" d="M431 712Q432 699 429 690T424 672Q419 662 415 657T408 645Q405 641 403 637T399 630Q396 625 392 621T385 612Q382 607 380 603T374 593Q369 586 365 579T356 564Q354 560 352 557T348 549Q343 543 337
535T326 519Q323 514 321 507Q318 498 316 495T311 488Q305 480 299 472T289 452Q286 435 278 423T263 397Q257 383 251 368T239 338Q233 320 227 303T218 266Q226 258 236 263T252 275Q262 279 268 287Q287 295 299 306T324 332Q330 333 333 337T341 343Q353 361
368 377T400 408Q402 413 406 416T414 423Q421 430 427 437T441 453Q444 458 449 461T457 466Q459 468 461 470T467 474Q477 482 489 490T511 507Q516 513 521 519T534 531Q539 542 544 551T553 572Q561 582 565 592Q581 615 586 631T597 662T609 690T628 718Q636
725 647 730T669 741Q683 747 699 748T728 751Q734 749 734 744T733 731Q733 724 730 718T726 707Q710 672 695 648Q691 637 688 628T680 607Q678 603 676 599T671 590Q669 586 666 584T660 577Q658 571 657 567T653 557Q651 553 649 549T645 541Q638 530 636 524T632
513Q627 505 624 495T613 476Q607 466 607 464T605 460Q598 450 598 449T597 445Q587 428 583 416T570 392Q564 374 559 355T546 319Q544 303 539 290T529 262Q521 244 518 229Q512 216 508 208T501 190Q491 182 487 172Q483 170 481 166T475 156Q473 154 471 153T468
146Q453 128 440 114T416 82Q405 71 395 59T373 35Q362 25 352 15T333 -6Q322 -14 312 -22T293 -39Q277 -51 265 -61T239 -80Q224 -90 210 -97T182 -115Q172 -119 168 -120T159 -124Q154 -125 149 -127T139 -129Q134 -126 132 -127T128 -127Q121 -124 119 -124T115
-125Q110 -124 107 -122T98 -117Q93 -115 90 -115T82 -111Q74 -101 66 -99T50 -91Q48 -89 46 -87T40 -82Q36 -79 34 -76T30 -67Q28 -62 28 -58T26 -49Q19 -29 13 -7T7 40V59Q8 64 9 68T11 77Q11 80 10 82T7 88Q6 92 5 98T6 109Q7 111 11 116T19 124Q31 127 37 132T51
140Q58 138 62 141T73 146Q85 148 93 135T96 106Q94 99 92 92T89 76Q87 62 87 44T90 11Q92 1 94 -12T99 -34Q109 -51 125 -66Q127 -65 132 -65T140 -66Q150 -61 155 -59T165 -54Q182 -42 201 -24T238 8Q254 19 266 34Q272 42 279 50T294 66Q302 76 310 85T327 103Q335
113 343 122T359 141Q367 155 375 164T390 186Q399 196 406 207T421 230Q431 246 439 261T455 297Q459 308 462 317T470 336Q476 351 483 367T496 399Q485 392 477 385T458 372Q451 364 444 358T428 345Q416 329 401 317T372 290Q357 276 345 261T317 232Q313 231
307 225Q299 221 293 215T276 204Q274 203 271 203T265 201Q261 200 259 199T251 197Q246 196 241 194T231 190Q222 189 209 192T185 198Q180 200 176 201T168 206Q161 211 158 219T150 236Q147 241 144 245T138 255Q139 260 137 265T136 278Q136 283 137 287T141
296Q142 301 143 305T146 315Q149 330 153 343T163 370Q180 406 193 433T225 484Q231 497 235 506T246 523Q256 545 265 565T289 602Q295 625 305 642T326 679Q315 677 307 670T289 657Q267 644 254 626T222 595Q211 586 206 582T195 572Q186 572 178 569T163 562T146
556T126 557Q122 555 118 555T108 558Q104 560 101 562T93 565Q86 569 84 580T85 600Q96 607 110 612Q118 616 124 619T139 627Q145 630 150 632T162 640Q178 653 197 666Q223 691 255 711T312 759Q320 760 325 764T338 766Q361 758 374 750Q383 751 392 746T408
738Q414 736 418 734T429 723L431 712Z" />
<glyph unicode="Z" glyph-name="Z" horiz-adv-x="531" d="M624 727Q623 725 619 724T614 722Q619 711 616 696Q614 681 605 670T590 647Q582 641 576 634T564 620Q556 614 549 606T532 593Q528 587 521 583Q516 575 511 569T500 557Q495 551 489 545T476 534Q460
515 447 500T420 471Q415 461 407 454T394 434Q381 422 377 416T368 403Q366 399 362 397T356 391Q353 387 351 384T346 377Q335 364 324 352T302 326Q291 313 281 301T259 276Q245 256 230 236T199 197Q185 174 170 160Q166 152 159 142T145 120T130 99T118 82Q115
81 113 79T109 74Q149 75 182 81T243 88Q252 89 262 90T284 93Q289 93 294 93T304 92Q312 92 320 92T337 93Q346 91 355 90T373 87Q381 85 389 84T406 81Q409 79 411 78T416 76Q418 75 421 75T428 73Q435 71 443 69T458 62Q460 57 465 54T476 45Q481 40 481 35T474
24Q466 21 458 17T439 14Q429 6 419 7T395 6Q388 0 377 -3T360 5Q349 9 336 7T311 7Q291 11 280 10T257 7Q236 6 217 4T177 0Q163 -4 145 -4T113 -8Q99 -8 84 -10T54 -14Q38 -16 27 -19T7 -24Q-3 -25 -10 -21T-22 -10Q-24 -1 -26 4T-31 15Q-34 37 -23 53T-2 81Q1
87 5 92T14 102Q22 114 30 125T47 144Q57 161 71 171T96 197Q114 216 124 230T146 255Q153 265 159 270Q166 281 173 290T188 307Q190 311 196 315Q213 341 232 363T268 410Q291 430 308 447T335 489Q343 498 350 506T366 521Q369 523 371 525T376 529Q381 534
384 539T392 550Q399 558 406 566T421 582Q423 584 425 587T431 592Q433 597 437 600T443 609Q455 622 465 638T487 667Q474 669 461 666T433 660Q419 658 406 655T380 649Q375 647 370 645T358 642Q352 642 347 643T336 643Q328 643 322 643T308 645Q304 646 301
646T294 647Q286 649 280 649T269 652Q263 657 257 657T242 658Q230 658 218 658T196 665Q184 672 182 674T177 680Q171 690 172 696T178 705Q190 705 194 707T204 711Q225 715 238 716T263 720Q289 725 314 728T365 740Q379 740 394 745Q428 745 457 745T518 743Q523
745 530 744T544 742Q558 741 577 742T612 736Q623 729 624 727Z" />
<glyph unicode="[" glyph-name="bracketleft" horiz-adv-x="236" d="M443 746Q439 746 436 743T429 737Q416 734 410 740Q396 738 388 738T368 738Q356 727 353 715T342 690Q340 687 337 684T332 676Q324 659 317 642T304 608Q292 572 276 535T240 463Q232 449
227 434T215 404Q193 358 174 309T133 212Q130 204 128 197T123 181Q109 155 98 130T76 78Q74 73 71 69T66 59Q58 42 52 24T40 -11Q54 -14 69 -11T99 -12Q101 -17 100 -23T92 -37Q84 -42 76 -42T59 -44Q51 -42 42 -43T24 -45Q11 -44 7 -45T-2 -45Q-5 -45 -8 -44T-15
-42Q-22 -40 -27 -39T-35 -34Q-38 -26 -35 -13T-33 10Q-29 24 -25 38T-13 67Q-5 87 5 107T24 144Q29 154 31 163T41 180Q55 218 76 257T115 334Q122 347 126 360T136 385Q138 389 139 392T143 400Q148 412 152 422T163 445Q169 461 177 476Q187 493 193 509T208
544Q213 555 217 565T227 587Q232 598 235 609T243 631Q251 651 260 671T271 708Q273 710 275 714T279 721Q288 732 297 743T321 759Q339 768 356 767T393 766Q397 766 401 767T409 768Q414 768 417 767T425 765Q431 765 437 767T447 768Q451 766 450 764T447 758T443
752T443 746Z" />
<glyph unicode="\" glyph-name="backslash" horiz-adv-x="259" d="M205 741Q207 717 210 690T215 636Q216 600 212 565T213 496Q215 486 216 477T220 459Q222 443 223 437T226 424Q228 396 227 367T227 308Q229 278 228 249T228 191Q229 171 229 151T231 113Q231
99 231 87T233 62Q231 47 230 30T219 4Q212 -1 204 -6Q200 -8 195 -11T185 -13Q176 -5 173 -5T166 -2Q158 2 156 5T153 20Q153 25 153 29T152 37Q151 48 153 58T157 80Q159 91 159 104T157 129Q155 149 153 169T148 212Q146 223 146 234T144 257Q142 268 141 280T139
303Q139 308 139 314T141 328Q142 345 142 365T142 402Q142 419 141 436T140 471Q140 503 140 536T140 602Q140 610 140 619T139 636Q139 645 140 653T141 671Q141 683 139 695T139 720Q144 733 144 737T145 743Q146 745 149 747T154 752Q157 756 158 758T165 760Q173
760 181 758Q184 756 186 753T194 745Q197 743 199 743T205 741Z" />
<glyph unicode="]" glyph-name="bracketright" horiz-adv-x="230" d="M-116 -24Q-112 -25 -109 -21T-101 -15Q-91 -11 -82 -18Q-70 -16 -61 -16T-41 -16Q-29 -5 -26 7T-14 32Q-12 36 -10 39T-5 46Q4 63 10 80T24 114Q36 150 51 187T87 259Q95 273 100 288T113
317Q133 364 153 413T195 511Q201 525 205 541Q218 567 229 592T252 644Q254 649 257 653T262 663Q269 680 275 698T288 733Q273 736 259 733T228 734Q226 739 227 745T236 759Q244 764 252 764T268 766Q276 764 285 765T303 767Q316 766 320 767T329 768Q333 767
336 766T342 764Q349 762 354 761T361 756Q365 748 362 735T360 712Q352 686 340 655Q332 635 322 616T304 579Q299 568 297 559T286 542Q272 503 252 464T213 388Q206 375 202 362T191 337Q189 333 188 330T184 322Q179 311 175 301T165 276Q162 269 159 262T150
246Q140 229 134 213T120 179Q115 168 110 157T100 135Q95 124 93 113T85 91Q77 71 68 52T56 15Q54 12 52 8T48 1Q39 -10 30 -21T7 -37Q-11 -45 -29 -44T-66 -44Q-70 -44 -74 -44T-82 -45Q-87 -45 -90 -44T-98 -43Q-103 -43 -109 -45T-121 -45Q-124 -44 -123 -42T-120
-36T-117 -30T-116 -24Z" />
<glyph unicode="^" glyph-name="asciicircum" horiz-adv-x="536" d="M446 642Q439 638 434 633T423 621Q416 608 411 603T401 593Q394 581 388 575T376 562Q369 554 363 546T349 531Q339 523 335 519T326 513Q315 504 305 494T285 473Q282 470 279 468T273 463Q265
455 259 446T243 429Q229 412 214 396T182 364Q177 359 174 354T166 343Q149 328 138 311Q131 306 125 298Q115 290 105 284T83 273Q71 274 62 282T51 301Q53 307 55 312T65 325Q67 328 69 331T74 337Q81 344 89 355Q105 374 123 391T155 423Q172 446 190 465T229
503Q240 512 249 521T269 539Q273 544 277 548T286 556Q300 570 314 585T342 615Q350 626 358 634T375 651Q380 659 386 665T398 680Q400 684 406 688Q408 691 409 694T414 700Q422 711 432 719T452 737Q462 745 473 749T498 757Q507 757 507 755T511 750Q512 745
513 742T514 733Q518 723 519 712T522 690Q521 675 522 662T523 633Q523 621 524 619T523 613Q531 604 531 587T532 555Q534 547 535 542T537 528Q538 519 535 509T534 489Q531 482 531 476T529 462Q527 446 529 433T539 412Q539 403 543 394T546 374Q545 369 545
362T542 349Q538 334 528 326T506 306Q501 303 496 298T485 290Q477 296 473 297Q473 303 472 309T469 322Q469 332 468 336Q464 343 464 347T464 356Q464 362 463 366T463 377Q458 394 456 412T450 450Q452 459 453 467T453 482Q452 498 452 512Q451 519 451 526T451
541Q450 548 448 553T445 565V580Q444 585 444 590T443 599Q444 604 444 609T445 621Q446 627 447 632T446 642Z" />
<glyph unicode="_" glyph-name="underscore" horiz-adv-x="392" d="M374 2Q372 -1 369 -2T364 -7Q354 -10 345 -10T325 -11Q318 -10 312 -10T301 -12Q287 -13 270 -13T242 -13Q233 -13 224 -12T206 -11Q190 -11 176 -11T145 -11Q131 -10 117 -8T89 -4Q67 -1 43
-2T-2 2Q-13 0 -22 -2T-39 -10Q-52 -11 -65 -11T-91 -11Q-95 -9 -97 -6T-102 2Q-104 18 -97 26T-84 44Q-82 47 -81 50T-75 55Q-63 60 -50 59T-26 56Q-13 56 -2 57T20 54Q31 54 38 56T55 57Q61 57 66 57T78 56Q92 57 106 57T134 56Q166 58 200 57T271 59Q287 56
307 58T346 60Q352 61 357 59T368 56Q385 54 389 47T391 32Q390 26 384 17Q381 12 376 10T374 2Z" />
<glyph unicode="`" glyph-name="grave" horiz-adv-x="551" d="M346 769Q348 768 351 769T357 769Q372 762 381 751T396 727Q406 720 412 710T425 690T438 669T457 652Q461 647 458 639T446 621Q431 609 417 609Q405 616 397 624Q392 623 390 624T384 626Q364 649
352 668T323 705Q318 717 316 718T311 723Q298 729 306 738T321 756Q336 759 346 769Z" />
<glyph unicode="a" glyph-name="a" horiz-adv-x="424" d="M314 270Q315 267 312 258Q307 252 306 245Q304 241 303 238T300 230Q298 224 298 216T298 201Q296 190 295 180T293 158Q293 147 291 133T287 108Q291 101 292 93T299 80Q319 83 331 89T354 108Q363 112
366 115T378 123Q380 125 382 127T386 131Q397 137 399 139T406 143Q423 154 432 166Q441 173 444 178T460 189Q467 197 474 202T489 216Q494 216 497 214T504 210Q507 202 505 194T498 178Q493 171 493 170T492 168Q489 164 485 161T477 153Q472 144 469 144T464
142Q455 137 452 134T440 126Q429 120 427 118T423 115Q410 101 400 93T377 70Q373 67 369 64T362 56Q353 50 348 44T335 30Q329 27 322 22T307 12Q303 10 299 8T289 5Q277 3 267 7T248 13Q244 19 238 23Q229 34 225 49T217 81Q209 76 202 68T184 55Q164 36 142
19T96 -18Q93 -21 90 -23T85 -24Q80 -30 72 -31T53 -31Q43 -26 35 -24T19 -18Q2 -15 -9 -3T-29 25Q-32 33 -33 40T-37 56Q-38 64 -40 69T-40 80Q-42 83 -41 86T-40 94Q-41 108 -38 124T-28 153Q-26 157 -20 163Q-18 166 -17 169T-14 174Q-12 177 -8 180T-1 186Q4
193 10 198T23 210Q26 213 28 217T36 223Q40 230 45 234T56 244Q73 265 98 279T143 311Q150 314 155 318T165 326Q178 337 192 333T218 326Q228 317 237 308T254 288Q261 289 270 289T289 290Q292 290 295 291T300 293Q315 288 315 278L314 270ZM183 263Q156 250
134 233T92 195Q87 190 82 186T72 176Q68 171 65 164T58 151Q56 147 54 145T50 139Q48 134 48 129T49 118Q49 113 49 108T50 98Q53 87 53 76Q53 68 54 57T62 41Q68 37 74 39T86 42Q121 69 152 98T207 165Q205 191 206 215T202 261Q198 263 193 263T183 263Z" />
<glyph unicode="b" glyph-name="b" horiz-adv-x="368" d="M276 205Q280 168 276 140T260 82Q245 59 227 42Q221 36 216 29T204 17Q197 12 189 9T176 -2Q172 -3 169 -4T161 -8Q151 -10 147 -12T137 -17Q132 -19 128 -18T119 -18Q114 -19 111 -22T102 -27Q92 -30
84 -26T70 -15Q51 -8 45 2T31 23Q21 33 19 43T14 67Q9 98 6 129Q5 138 6 148T6 168Q5 182 5 199T7 228Q9 237 12 245T17 261Q21 272 23 281T29 300Q31 305 33 309T37 317Q39 322 40 326T44 336Q46 344 50 352T57 369Q59 376 60 381T68 391Q72 401 75 411T84 431Q89
441 92 451T101 471Q110 483 111 486T115 495Q121 503 123 507Q135 527 147 547T173 587Q191 612 208 636T249 684Q253 690 259 697T271 712Q278 719 284 726T297 738Q310 749 315 754T332 760Q352 761 365 750T384 721Q382 703 385 687T383 656Q374 639 366 621T349
585Q340 565 331 551T314 521Q308 510 301 500T288 477Q283 472 280 466T270 454Q265 443 258 434T243 417Q231 394 220 372T195 330Q190 329 187 325T181 316Q173 306 165 297T147 278Q145 271 136 262T123 248Q121 245 120 242T116 236Q114 232 111 229T105 223Q102
215 100 214T96 210Q90 201 89 201T87 200Q81 189 79 188T76 185Q77 171 76 166T74 156Q76 147 76 136T76 113Q77 102 78 93T83 75Q86 66 94 60T113 54Q117 55 124 58T135 63Q140 67 145 73T155 84Q167 99 179 118T202 154Q207 170 210 176T215 190Q217 201 217
211T220 229Q222 235 229 244T242 259Q251 267 253 267T257 267Q274 269 279 266T295 263Q301 264 307 265T321 266Q329 265 336 265T351 266Q364 269 383 269Q389 269 396 269T412 270Q421 271 430 274T447 276Q454 275 457 268T460 253Q459 248 455 241T447 232Q439
234 438 233T435 232Q428 233 423 235T411 240Q397 242 384 239T357 232Q351 230 345 228T331 223Q328 222 325 222T318 220Q311 218 306 217T294 214Q286 212 285 210T276 205ZM223 544Q200 509 179 473T136 396Q133 390 131 384T125 369Q120 363 117 353T110
333Q105 320 100 308T97 284Q109 292 117 306T133 335Q138 340 142 346T151 359Q156 365 160 371T169 382Q183 402 193 425T217 471Q223 482 229 493T241 515Q246 528 251 540T261 565Q264 580 268 585T274 599Q259 587 247 573T223 544Z" />
<glyph unicode="c" glyph-name="c" horiz-adv-x="343" d="M416 230Q426 218 426 213T425 202Q420 196 417 190T408 178Q403 174 398 173T388 166Q382 164 378 161T366 159Q342 135 324 120T285 91Q270 78 254 67T220 45Q215 40 211 36T201 28Q189 16 177 7T153
-13Q142 -21 130 -24T106 -32Q87 -40 77 -35Q66 -37 59 -38T40 -37Q37 -36 34 -34T27 -30Q17 -26 12 -22T2 -13Q-1 -10 -5 -5T-11 5Q-16 13 -17 24T-22 47Q-24 58 -28 69T-31 92Q-30 100 -28 107T-23 123Q-17 137 -13 149T-4 172Q-1 177 2 180T9 188Q11 190 11
194T14 201Q22 210 31 219T47 240Q52 247 57 252T68 265Q74 273 76 274T81 279Q87 285 92 291T102 305Q109 312 116 320T132 333Q141 338 150 342T171 351Q176 353 180 356T190 361Q196 363 201 364T210 369Q216 368 221 371T231 376Q236 377 240 376T248 378Q251
376 254 376T260 374Q264 373 267 369T272 360Q274 345 265 329T248 305Q243 297 237 292T223 281Q211 281 199 280T176 280Q174 276 171 275T169 269Q135 240 109 208T68 131Q63 114 58 107T53 91Q59 70 73 56T101 39Q117 37 129 45T153 59Q167 69 180 77T209
94Q213 96 217 98T225 104Q238 113 248 121T270 138Q275 139 277 141T285 144Q303 160 324 172T368 198Q375 205 382 210T397 223Q404 223 407 226T416 230Z" />
<glyph unicode="d" glyph-name="d" horiz-adv-x="447" d="M344 86Q352 86 354 85T359 84Q363 84 370 88T385 99T399 111T410 120Q419 122 428 130T445 148T459 168T472 184Q496 208 505 219T518 234T521 238T527 237Q535 237 538 230T545 217Q543 215 543 211T541
204Q539 201 535 198T528 191L518 179Q506 167 498 153T481 126T465 101T447 83Q420 66 405 47T370 17Q368 17 368 17T366 18Q362 18 360 16T354 14Q346 17 340 19T328 27T314 41T296 68Q291 76 288 84T280 102Q272 117 267 126T261 160Q261 170 263 190T267 222Q251
206 239 184T214 142Q197 116 180 94T161 58Q155 52 150 44T142 30T137 19T137 16Q123 -7 97 -16T47 -26Q38 -25 29 -24T12 -17L-3 -6Q-19 2 -25 19T-31 56Q-19 87 -17 112T-5 161Q9 198 34 227T88 280T141 323T182 360Q189 361 198 366T217 376T237 386T259 390Q271
390 277 387T288 380T293 370T298 360Q304 376 308 393T319 425Q325 456 339 491T368 555T394 605T408 629Q423 652 441 669T472 705Q482 716 491 732T507 753Q522 749 529 742T538 726T539 710T538 698Q538 682 535 666L501 595Q487 569 475 542T451 487Q432 451
411 424T371 366Q367 355 361 346T348 326L330 283Q324 275 324 268Q326 263 326 260T326 255Q326 246 326 237T325 218Q325 192 326 167T329 118Q327 114 327 113Q327 106 334 99T344 86ZM248 329L223 313Q215 310 203 299T182 279L161 260Q154 247 142 238T122
218Q111 204 101 185T91 153Q86 135 80 122T74 93Q74 80 82 80T95 79Q107 87 119 100T143 128T163 157T176 182Q187 201 201 222T232 261L258 303Q260 308 262 312T264 321Q264 328 260 333Q256 333 253 332T248 329Z" />
<glyph unicode="e" glyph-name="e" horiz-adv-x="331" d="M169 285Q162 276 155 268T139 253Q133 242 125 233T109 216Q105 208 100 204T89 194Q86 189 82 184T74 174T68 163T69 150Q80 148 91 153T110 162Q118 167 126 170T142 179L168 205Q175 211 180 218T191
233Q193 243 199 253T204 274Q203 280 201 284T197 294Q187 294 182 291T169 285ZM8 221Q10 222 16 229T31 246T46 263T56 272Q59 277 61 280T69 287Q77 302 90 311T115 334Q134 342 153 354T197 368Q208 363 218 365T238 360Q243 351 247 349T253 343Q257 330
259 327T262 318Q263 303 264 297T264 284Q261 257 254 233Q252 227 250 221T245 209Q238 200 235 194T228 183Q216 171 207 163Q198 158 189 152T169 144Q164 141 160 139T150 135Q140 128 130 125T109 116Q103 114 96 109T82 101Q76 99 68 98T54 94Q59 83 58
69T63 44Q76 41 91 40T121 40Q126 41 132 43T144 47Q155 49 165 52T184 60Q213 70 240 87T287 124Q299 132 313 146T336 172Q351 188 362 197T384 205Q392 205 399 196T398 175Q388 169 377 157T354 140Q345 134 332 118T309 94Q305 90 299 85T288 74Q274 62 258
52Q252 54 249 50T241 42Q238 40 235 38T228 34Q220 27 211 20T191 8Q171 -4 151 -12T112 -34Q106 -35 101 -35T91 -37Q85 -39 81 -39T68 -37Q50 -32 38 -25T14 -5Q8 1 1 6T-10 17Q-13 22 -17 33T-24 56T-29 81T-31 99Q-29 103 -27 113T-22 134T-18 156T-16 170Q-15
171 -11 178T-3 195T5 211T8 221Z" />
<glyph unicode="f" glyph-name="f" horiz-adv-x="334" d="M13 -224Q18 -220 21 -215T29 -205Q33 -200 37 -196T45 -185Q49 -180 52 -175T60 -165Q62 -161 64 -159T68 -151Q82 -124 88 -103T103 -57Q109 -49 111 -40T119 -22Q125 -9 126 3T135 28Q143 42 146 61T154
100Q156 114 158 125T162 147Q163 156 164 165T164 182Q163 187 160 190T154 198Q153 202 154 204T153 211Q156 216 167 220T186 227Q192 226 197 225T204 221Q209 223 212 221T220 218Q223 218 226 219T232 220Q249 216 260 218T285 224Q293 226 301 227T317 230Q322
232 325 234T333 237Q338 239 342 239T352 239Q358 240 363 242T376 243Q391 247 402 250T427 257Q433 246 434 244T436 240Q435 235 430 231T419 232Q409 228 405 226T397 222Q385 218 376 216T357 207Q347 206 339 204T319 198Q310 196 301 193Q280 180 264 176T234
164Q227 159 223 153T220 136Q223 123 220 116T214 101Q212 94 211 88T205 76Q202 66 201 58T198 41Q195 30 192 20T187 -1Q187 -7 187 -13T188 -27Q188 -36 184 -47T177 -69Q172 -83 167 -98T155 -128Q149 -141 145 -152T134 -174Q111 -210 86 -243T32 -308Q25
-311 20 -316T9 -326Q2 -328 -2 -331T-12 -338Q-23 -339 -34 -339T-51 -333Q-59 -335 -61 -332T-69 -324Q-73 -316 -74 -308T-78 -289Q-79 -284 -80 -281T-81 -272Q-82 -261 -82 -250T-80 -225Q-79 -218 -77 -212T-73 -198Q-71 -188 -71 -179T-70 -160Q-67 -121
-58 -81T-42 -3Q-40 4 -39 10T-36 24Q-30 46 -24 64T-10 97Q-8 102 -7 106T-4 116Q1 126 2 131T5 141Q10 158 15 173T28 205Q31 215 35 226T42 245Q45 253 48 260T54 274Q55 277 55 280T56 285Q58 291 61 296T68 308Q76 327 84 345T100 384Q103 391 107 397T113
411Q118 431 123 440T134 460Q138 467 141 473T150 487Q161 507 172 528T196 567Q214 580 224 596Q238 606 248 619T271 643Q280 651 288 660T307 677Q310 680 313 682T319 688Q324 689 330 695Q336 700 343 706T355 720Q363 722 371 731T390 742Q400 741 402 743T408
748Q419 730 419 719T414 691Q412 686 410 680T404 667Q400 658 398 651T392 636Q391 626 387 617T379 597Q377 592 376 587T373 575Q371 572 369 569T364 561Q361 557 359 554T355 547Q350 542 349 539T345 531Q340 523 334 515T323 498Q315 487 307 477T291 455Q287
448 283 441T274 429Q271 425 270 422T266 416Q255 402 245 389T221 364Q214 351 205 343T187 325Q179 321 174 315T164 300T155 285T143 272Q138 263 133 254T119 238Q114 229 109 221T96 205Q91 186 84 168T71 131Q69 122 67 113T62 94Q61 89 59 85T56 75Q54
68 54 61T51 47Q49 39 49 31T49 13Q47 1 48 0T49 -3Q49 -11 46 -23T42 -46Q40 -60 37 -73T31 -98Q29 -103 28 -107T25 -117Q19 -131 17 -140T12 -157Q9 -165 5 -175T3 -196Q4 -203 8 -209T13 -224ZM306 590Q297 584 290 578T274 564Q259 550 248 537Q237 523 229
508T208 482Q193 453 182 435T162 396Q160 387 157 380T150 364Q145 353 139 343T137 323Q150 335 160 349T182 377Q194 391 197 399Q206 412 213 420T227 437Q234 443 240 453Q253 464 262 478T282 507Q284 509 285 512T288 517Q294 524 295 527T298 534Q303 545
307 556T317 579Q312 585 306 590Z" />
<glyph unicode="g" glyph-name="g" horiz-adv-x="427" d="M291 250Q293 248 296 253T302 262Q304 267 305 272T309 282Q315 293 324 305T339 328Q341 330 343 331T348 336Q356 337 359 338T365 341Q376 338 379 324Q378 316 373 312T365 300Q363 296 363 292T362
284Q357 267 349 252T334 220Q329 210 325 200T317 179Q306 159 296 137T275 92Q284 94 291 99T306 110Q311 112 315 113T324 117Q333 123 336 125T344 129Q347 131 350 133T357 138Q359 140 362 141T368 144Q373 146 377 149T386 155Q392 158 396 161T408 166Q411
167 414 168T420 172Q423 173 426 175T431 178Q437 180 438 181T441 183Q451 186 452 187T456 190Q468 198 474 199T493 209Q499 208 504 208T513 205Q509 186 499 180T476 168Q459 153 447 145T416 124Q404 119 395 113Q386 113 382 110T372 104Q368 102 364 101T355
98Q345 92 343 91T338 88Q328 75 319 71T303 59Q286 54 275 43T249 25Q241 2 236 -21T222 -66Q214 -89 206 -112T191 -159Q180 -178 173 -200T156 -244Q148 -250 145 -261T132 -279Q127 -290 118 -297T101 -313Q99 -315 97 -317T93 -323Q81 -335 67 -347T42 -374Q31
-381 22 -389T4 -406Q-1 -408 -4 -409T-12 -408Q-22 -411 -33 -409T-42 -396Q-48 -391 -49 -388T-52 -380Q-48 -372 -52 -366T-56 -354Q-56 -341 -53 -329Q-51 -316 -47 -307T-37 -286Q-31 -272 -27 -260T-17 -233Q-10 -222 -8 -210T0 -185Q4 -177 8 -170T14 -154Q22
-139 31 -127T48 -100Q74 -63 108 -36T177 18Q181 23 182 24T185 27T188 29T195 35Q197 36 197 39T201 45Q209 67 220 94T236 140Q231 138 229 133T223 125Q221 122 218 120T213 116Q211 114 208 112T203 106Q196 100 192 96T184 87T176 79T164 68Q156 57 148 48T128
32Q113 21 97 14T67 2Q60 0 54 -2T42 -5Q40 -6 37 -6T31 -5Q15 -5 4 -1Q1 1 -1 2T-5 8Q-7 10 -10 13T-15 20Q-17 25 -17 30T-19 41Q-21 51 -24 59T-25 77Q-24 80 -23 82T-23 88Q-24 91 -25 94T-28 100Q-30 103 -31 106T-33 113Q-34 118 -32 123T-31 133Q-28 140
-26 147T-18 160Q-11 170 -9 176T-2 188Q3 197 8 204T19 219Q38 252 61 279Q65 281 68 282T72 287Q96 298 116 311Q127 314 135 321T155 333Q164 337 174 343T195 350Q205 350 210 353T220 359Q235 367 252 366Q260 358 268 354T282 341Q284 337 284 331T286 318Q288
313 289 308T292 297Q293 285 292 273T291 250ZM238 292Q234 289 230 289T221 287Q219 285 217 284T212 280Q203 275 193 272T174 263Q169 259 166 255T158 247Q152 243 146 240T134 232Q131 229 130 226T123 223Q112 202 96 185T70 146Q65 144 64 139T59 129Q48
109 50 99T54 78Q60 70 70 73T89 82Q99 89 108 97T128 115Q138 123 146 132T163 151Q167 156 171 159T179 167Q184 172 188 176T197 184Q205 195 211 205T226 224Q231 237 236 248T246 271Q244 276 244 282T239 292H238ZM157 -70Q154 -71 152 -73T145 -79Q135 -89
126 -99T108 -123Q99 -136 88 -148T72 -175Q61 -192 53 -210T39 -250Q37 -262 35 -269T32 -283Q38 -277 44 -271T56 -258Q58 -256 59 -253T63 -248Q75 -231 88 -215T112 -182Q117 -176 121 -171T129 -159Q147 -134 157 -106T178 -47Q172 -53 167 -57T157 -70Z"
/>
<glyph unicode="h" glyph-name="h" horiz-adv-x="473" d="M48 76Q71 96 90 119T133 167Q138 172 143 179T153 194Q157 200 163 205T173 216Q176 221 180 224T190 231Q195 236 199 239T208 247Q217 254 225 261T244 274Q250 275 253 278T260 286Q265 285 269 287T278
291Q292 288 300 280T317 264Q324 261 328 259T336 253Q340 245 343 238T346 222Q346 216 345 210T343 198Q339 186 340 185T341 182Q342 174 336 166T332 148Q333 145 330 133T327 118Q329 112 329 103T334 89Q344 85 348 85T355 85Q367 91 385 105T412 130Q422
138 430 145T452 160Q464 168 468 172T481 187Q484 190 488 193T497 200Q500 203 505 206T513 211Q517 211 524 211T534 207Q536 199 534 193T529 182Q525 176 520 171Q516 164 511 158Q506 153 500 147T486 136Q481 130 477 126T467 116Q462 111 458 105T449 94Q438
85 428 77T408 57Q403 55 400 53T393 48Q383 45 374 38T356 24T336 10T314 5Q303 0 295 4T279 14Q268 21 258 30T246 55Q244 81 252 104T264 150Q264 152 265 157T267 169T268 181T268 189Q266 191 266 196T257 206Q252 209 253 207T245 205Q237 202 231 197T218
187Q208 176 196 167T174 146Q166 137 159 128T143 110Q130 95 116 80T88 51Q81 43 75 35T62 19Q50 4 36 -10Q30 -20 19 -29T-3 -42Q-6 -40 -9 -42T-16 -44Q-28 -39 -30 -39T-33 -34Q-43 -28 -41 -15T-36 9Q-26 54 -9 98T19 186Q24 203 29 217T41 248Q48 262 50
276T60 305Q64 312 67 320T73 335Q84 355 94 384T115 437Q127 469 140 499T169 558Q174 578 181 595T200 630Q210 643 213 651T222 666Q234 680 249 688T275 711Q283 715 290 717T305 722Q307 720 307 717T308 710Q310 710 309 704T309 694Q309 679 307 674T302
663Q301 657 301 653T300 644Q297 635 297 634T298 630Q298 626 297 621T296 611Q295 600 291 588T283 566Q277 559 276 555T272 550Q266 533 261 517T246 487Q242 476 236 466T224 445Q222 440 220 436T215 426Q208 413 201 400T183 375Q165 337 145 299T106 224Q99
213 96 205Q93 198 93 193T87 182Q84 173 82 165T74 150Q70 129 62 113T48 76Z" />
<glyph unicode="i" glyph-name="i" horiz-adv-x="267" d="M231 498Q233 495 233 492T236 487Q234 478 233 469T231 450Q231 446 233 443T236 437Q231 425 229 423T226 418Q221 416 219 412T210 408Q208 405 206 404T202 398Q186 391 166 399Q161 408 152 412Q139
431 151 457Q153 462 155 467T160 475Q171 483 176 485Q180 487 184 490T195 495Q197 496 200 496T208 498Q212 499 215 500T221 501L231 498ZM76 56Q85 60 98 59T119 63Q123 66 126 69T133 71Q149 77 160 83T184 92Q187 93 191 96T198 101Q214 106 221 111T234
121T247 131T264 145Q278 153 287 159T308 174Q310 179 313 181T319 188Q337 188 339 174Q334 163 326 156T310 140Q302 135 297 131T287 119Q286 119 281 115T275 110Q269 103 267 101T263 99T259 96T249 88Q242 77 231 70Q210 50 186 36T141 7Q137 5 134 2T127
-5Q122 -9 112 -13T93 -20Q87 -24 82 -26Q60 -27 48 -19Q35 -12 28 -8T16 5Q5 10 3 23T-3 50Q-4 55 -5 61T-5 75Q-3 86 -2 98T3 120Q8 131 8 142T14 164Q20 174 20 175T20 178Q22 181 24 184T29 191L35 206Q39 213 44 220T52 237Q54 243 57 248T65 259Q68 265 70
271T75 285Q78 293 82 301T92 317Q96 325 99 329T111 334Q115 335 120 334T130 334Q143 340 148 340T155 343Q166 342 171 336T183 324Q177 295 170 280T153 247Q148 239 143 229T134 211Q129 200 124 192T114 172Q112 167 110 163T105 153Q103 146 100 141T93
130Q90 124 87 118T82 105Q77 93 76 91T74 86Q72 75 68 68T71 58L76 56Z" />
<glyph unicode="j" glyph-name="j" horiz-adv-x="247" d="M139 431Q144 437 145 439T147 446Q155 450 162 452T177 459Q192 469 198 472T211 478Q218 474 222 472T230 468Q232 462 235 456T234 441Q223 434 223 429T223 421Q220 416 217 411T211 401Q201 396 198
390T190 379Q183 377 178 376T165 374Q147 377 140 393Q136 406 139 431ZM69 62Q76 65 84 68T99 76Q115 84 123 90T140 102T156 114T177 126Q180 130 184 132T193 140Q203 148 207 152T215 159T224 166T240 177Q254 193 272 205T304 233Q313 235 316 227T317 212Q315
207 311 205T302 197Q307 183 300 176T284 162Q278 154 273 152Q261 135 245 125T211 102Q200 94 196 91T190 86T182 82T163 72Q148 61 133 52T100 35Q87 27 75 18T49 -2Q46 -5 42 -8T35 -15Q28 -25 25 -36T15 -58Q11 -72 7 -84T-1 -110Q-3 -121 -5 -131T-11 -152Q-16
-160 -17 -162T-20 -170Q-28 -183 -28 -187T-31 -197Q-33 -204 -36 -210T-41 -225Q-43 -232 -44 -237T-52 -245Q-54 -250 -56 -254T-61 -264Q-66 -269 -71 -274T-78 -286Q-81 -299 -90 -305T-101 -322Q-117 -339 -132 -357T-167 -389Q-170 -396 -175 -400T-184
-412Q-189 -415 -192 -415T-201 -417Q-219 -420 -224 -414T-237 -402Q-245 -378 -251 -351T-258 -295Q-260 -290 -259 -285T-259 -274Q-260 -270 -261 -267T-260 -260Q-263 -248 -257 -231T-245 -203Q-242 -192 -238 -181T-225 -164Q-214 -144 -200 -129T-170 -99Q-151
-81 -136 -66T-100 -41Q-87 -30 -73 -22T-45 -2Q-43 12 -37 24T-27 47Q-19 68 -8 93Q-1 106 3 114T12 130Q14 141 21 151T34 172Q43 192 49 213T65 255Q66 261 69 266T75 279Q77 283 77 286T79 294Q86 304 88 309T95 316Q100 314 104 313T113 310Q115 301 125 299T146
296Q151 292 155 290T163 282Q164 276 163 270T159 259Q157 253 153 249T145 239Q142 234 139 228T133 216Q128 206 124 196T115 175Q113 171 112 168T108 160Q106 156 106 153T103 145Q99 135 97 130T89 114Q85 106 84 99T79 84Q76 79 73 75T69 62ZM-96 -85Q-103
-89 -108 -94T-121 -103Q-131 -119 -145 -132T-170 -160Q-172 -163 -174 -166T-179 -171Q-182 -178 -182 -185T-185 -199Q-186 -204 -189 -208T-195 -217Q-203 -235 -203 -255T-209 -296Q-212 -307 -210 -310T-204 -314Q-202 -314 -198 -310T-191 -303Q-187 -300
-184 -297T-179 -291Q-170 -279 -161 -268T-145 -246Q-142 -244 -140 -240T-135 -230T-131 -219T-127 -211Q-123 -206 -120 -196T-114 -181Q-104 -161 -96 -146T-81 -110Q-78 -102 -75 -92T-70 -72Q-68 -70 -67 -66T-63 -56Q-73 -64 -81 -70T-96 -85Z" />
<glyph unicode="k" glyph-name="k" horiz-adv-x="452" d="M116 242Q123 245 131 250T145 261Q157 270 167 279T189 297Q196 302 201 306T212 315Q217 318 221 321T231 327Q245 333 255 337Q258 338 261 340T269 343Q277 344 283 340T294 333Q303 328 311 324T327
313Q332 304 338 296T349 276Q350 273 350 268T350 258Q351 251 353 244T357 230T359 216T353 201Q324 184 292 172Q284 166 276 162T259 152Q251 141 240 134T220 118Q224 105 230 96T244 79Q247 74 251 71T261 65Q266 63 277 62T293 61Q299 63 307 65T322 71Q336
72 342 80T357 95Q362 99 367 101T377 110Q380 118 386 123Q399 136 410 141Q417 151 428 153T447 161L461 171Q468 176 474 181T487 191Q493 195 498 197T507 205Q511 207 514 208T520 210Q525 203 526 201T528 195Q527 190 524 189T520 182Q509 175 498 168T476
151Q475 146 474 144T470 137Q456 127 444 115T418 92Q413 89 409 85T398 78Q383 64 368 51T336 26Q331 23 326 20T314 14Q308 9 302 8T289 4Q277 -1 269 -6T248 -14Q242 -16 237 -14T223 -13Q216 -9 209 -8Q208 -5 202 4T193 16Q189 29 185 34T177 46Q172 54 171
63T164 81Q165 86 163 88T161 95Q149 104 147 107T142 115Q142 126 142 128T144 132Q150 138 157 142T170 153Q175 154 178 157T186 163Q198 171 209 178T234 194Q244 199 246 211T251 234Q245 244 243 244T238 246Q235 248 233 251T227 255Q224 254 219 251T211
246Q194 236 177 229T144 211Q136 207 128 203T114 196Q112 195 110 193T105 188Q97 171 93 164T84 147Q83 144 82 142T78 137Q73 129 70 121T61 106Q59 94 54 81T44 54Q41 42 37 32T20 19Q15 11 15 7T9 -5Q5 -7 2 -7T-7 -11Q-8 -11 -12 -14T-20 -20T-29 -26T-34
-29Q-42 -31 -44 -29T-51 -28Q-57 -16 -61 -13Q-59 -5 -58 1T-52 13Q-49 17 -45 22T-38 33Q-36 37 -36 40T-35 48Q-33 53 -30 58T-23 69Q-19 79 -15 88T-6 108Q-3 119 -1 129T6 151Q11 162 16 174T23 198Q24 203 26 206T30 214Q32 219 34 225T40 238Q45 244 45
247T48 252Q50 255 50 257T53 262Q55 267 58 272T63 282Q66 286 68 295Q70 297 71 300T73 305Q76 316 77 326T85 347Q89 361 90 367T99 384Q102 392 106 400T113 417Q116 425 119 432T124 449Q131 463 135 471T144 489Q152 505 155 513T164 529Q167 537 168 543T173
556Q182 568 184 575T189 588Q199 611 212 635T243 677Q248 682 253 687T263 699Q271 707 279 712T294 725Q307 722 309 721T314 719Q319 712 321 700T323 676Q323 669 320 662T317 648Q316 644 316 641T314 636Q312 625 308 616T300 597Q285 561 269 536T237 480Q230
469 225 459T214 434Q208 422 201 410T184 388Q178 377 174 367T161 346Q159 339 156 334T148 322Q144 314 141 308T135 293Q130 280 125 267T116 242Z" />
<glyph unicode="l" glyph-name="l" horiz-adv-x="268" d="M322 236Q333 233 336 229T340 221Q332 210 331 207T324 201Q311 181 295 166T264 131Q259 126 255 121T246 111Q235 103 226 94T207 76Q202 72 198 69T188 60Q183 55 179 52T170 45Q164 38 158 31T146
16Q135 11 126 4T105 -8Q100 -11 96 -17T84 -26Q76 -29 67 -28T52 -23Q47 -19 44 -18T39 -17Q30 -4 26 11T17 44Q15 49 14 54T12 67Q11 71 11 75T8 84Q6 89 4 94T1 106Q-1 118 -1 129T2 152Q8 185 19 215T43 272Q45 283 48 291T55 309Q60 316 62 325T67 343Q70
351 74 360T81 379Q84 389 86 399T93 417Q101 438 108 457T123 495Q125 501 127 507T133 518Q135 524 138 528T144 538Q144 543 147 545T153 552Q158 560 160 568T168 584L180 599Q182 603 184 607T190 614Q201 632 214 650T241 688Q250 702 261 714T284 739Q288
744 293 750T305 757Q314 758 325 755Q328 750 330 745T335 732Q337 701 333 672T324 615Q323 610 323 606T323 596Q321 590 318 581T313 563Q313 549 307 538T299 516Q296 514 296 510T292 503Q290 492 286 483T278 465Q263 444 248 425T218 384Q201 358 182 334T145
284Q132 273 123 259T100 234Q95 214 91 191T81 143Q80 136 78 130T74 116Q72 108 73 99T70 82Q72 77 72 71T76 59Q78 56 81 53T88 50Q95 54 96 54T99 54Q104 57 109 62T118 71Q123 73 125 75T131 80Q134 82 136 83T141 86Q155 101 168 108T189 127Q199 133 207
138Q213 141 217 146T229 155Q231 158 233 160T237 165Q249 173 260 181T285 197Q287 202 291 205T299 211Q302 214 304 217T311 222Q312 227 315 229T322 236ZM267 609Q258 607 255 600T248 584Q244 576 242 572T240 560Q209 509 184 453T132 340Q152 360 169
388T206 436Q220 470 237 499T263 566Q259 578 264 587T268 609H267Z" />
<glyph unicode="m" glyph-name="m" horiz-adv-x="701" d="M68 127Q73 128 76 131T83 138Q86 140 89 142T96 146Q108 155 118 166T140 185Q153 200 166 212T191 241Q206 252 221 267Q229 272 236 278T253 290Q258 296 264 303T278 315Q286 323 295 327T313 339Q328
347 340 342T359 328Q361 323 364 319T371 309Q373 306 375 304T377 296Q377 284 374 273T369 251Q367 237 367 224T362 196Q368 188 371 179T381 164Q385 165 390 172Q395 176 401 179T413 188Q421 196 427 202T441 216Q448 223 455 229T470 242Q478 250 484 258T499
275Q502 279 505 280T511 287Q519 291 524 298T540 308Q550 309 553 308T562 301Q567 297 569 291T577 281Q582 271 584 267T591 259Q595 251 593 243T588 227Q587 215 586 212T584 203Q578 168 566 135Q567 127 570 121T572 103Q578 102 583 103T593 105Q603 109
613 114T633 127Q646 137 660 146T687 166Q692 170 695 173T703 181Q713 189 722 194T742 204Q747 207 750 210T757 217Q762 222 771 227T788 237Q802 238 802 233T804 223Q791 214 780 205T756 185Q753 183 751 182T743 178Q740 176 738 173T731 167Q725 162 719
158T708 148Q701 143 695 138T684 128Q679 123 675 117T665 106Q660 104 657 101T649 95Q647 89 646 85T640 75Q633 69 631 66T626 60Q623 58 619 57T611 53Q606 50 602 46T593 38Q585 33 580 30T565 24Q555 17 550 17T540 17Q538 16 536 19T530 22Q523 28 520
27T513 28Q503 39 503 45T502 58Q500 73 498 88T495 121Q495 128 496 134T499 147Q499 151 498 154T497 161Q498 169 500 176T501 190Q488 175 481 169T468 154Q454 146 442 137T415 122Q401 108 388 97T361 72Q353 62 345 54T325 40Q318 38 314 38T306 40Q285
52 281 71T282 113Q279 119 280 126T282 141T285 155T285 166Q288 181 293 197T300 228Q305 235 302 239T295 246Q278 236 263 223T231 195Q223 188 216 182T200 168Q192 161 184 155T170 140Q163 131 160 128T153 123Q148 120 145 117T139 112Q135 109 131 108T122
104Q116 100 110 94T98 82Q93 77 89 74T81 66Q74 56 67 48T52 31Q51 26 47 22T37 12Q33 8 29 3T19 -4Q16 -5 12 -5T4 -8Q-2 -10 -9 -13T-24 -15Q-31 -14 -36 -14T-46 -9Q-46 -1 -51 2Q-49 14 -45 26T-38 49Q-31 59 -27 71T-16 96Q-11 110 -6 122T5 146Q9 158 12
168T20 186Q26 196 27 201Q31 206 34 214T38 228Q44 235 46 245T52 264Q54 268 55 271T58 279Q59 284 59 288T61 298Q65 303 69 306T77 315Q82 316 84 320T90 326Q102 330 102 331T105 333Q117 339 120 340T127 344Q131 346 133 346T139 349Q141 351 147 355T155
361Q165 357 172 349T176 326Q175 321 173 317T169 308Q167 303 167 299T164 290Q157 278 155 272T150 259Q148 256 147 253T143 246Q140 238 138 233T130 223Q127 219 124 216T118 208Q111 199 104 188T89 168Q84 158 79 148T68 127Z" />
<glyph unicode="n" glyph-name="n" horiz-adv-x="437" d="M80 123Q88 128 93 136T105 152Q118 167 133 177Q140 187 150 192T167 209Q169 212 170 215T174 221Q192 246 215 265Q221 270 226 275T240 285Q249 290 257 298T276 310Q283 313 289 314T302 318Q309
320 314 321T327 321Q343 314 351 294Q353 289 350 273T341 237T329 199T321 173Q319 165 320 165T321 162Q319 157 318 153T316 144Q314 136 313 123T314 101Q325 102 325 103T328 104Q331 105 334 105T341 105Q352 108 361 113T378 127Q396 135 411 143Q425 153
433 157T459 170Q465 177 476 182T496 195Q498 197 501 200T507 202Q512 197 513 192T514 184Q506 176 506 172T503 166Q498 161 488 157Q479 153 478 151T474 146Q472 144 469 142T463 137Q461 134 458 134T451 132Q445 127 441 123T432 114Q424 106 422 103T411
93Q406 90 401 87T391 81Q377 74 363 64T335 44Q325 38 315 34T295 23Q291 23 290 23T284 22Q279 25 274 23T264 22Q254 30 251 32T245 37Q243 42 243 48T241 58Q241 80 242 100T249 142Q250 149 253 161T258 186T261 207T259 218Q248 212 237 200T215 180Q207
174 200 169T184 158Q177 153 172 148T161 136Q154 129 148 123T134 110Q130 106 127 104T120 98Q115 93 111 89T99 81Q93 73 84 63T65 42T46 19T32 -1Q20 -11 7 -18T-26 -20Q-36 -14 -39 -10T-46 -4Q-45 7 -44 17T-38 38Q-37 40 -36 42T-32 48Q-27 57 -26 68T-19
89Q-13 99 -12 105T-7 117Q-5 122 -2 126T4 136Q6 141 11 147T18 159Q21 170 25 181T34 203Q36 210 38 216T43 229Q48 240 53 250T63 272Q66 278 68 282T75 292Q78 297 80 302T86 312Q89 317 91 323T99 336Q106 344 110 351T123 360Q127 358 131 360T140 363T149
365T156 362Q169 354 175 348T183 337Q188 328 184 319T170 302Q166 285 156 270T138 241Q136 236 134 231T130 221Q124 207 118 193T103 166Q99 158 96 153T90 145T85 136T80 123Z" />
<glyph unicode="o" glyph-name="o" horiz-adv-x="381" d="M497 289Q502 288 503 285T509 282Q510 277 509 274T505 269T502 264T501 257Q492 251 479 250T459 239Q442 231 423 229T382 222Q372 215 369 214T361 211Q351 215 340 215T318 218Q312 216 307 216T295
214Q291 206 291 196T288 178L282 166Q281 161 281 157T278 147Q276 144 274 140T271 131Q264 123 261 113T250 95Q247 85 241 79T228 65Q217 50 209 39T186 20Q181 12 174 9Q168 3 166 -1Q157 -6 146 -13T123 -23Q106 -27 90 -22T60 -8Q51 -9 46 -5T32 2Q21 12
8 20T-11 42Q-13 53 -15 64T-20 84Q-22 93 -21 103T-20 123Q-20 134 -20 141T-16 160Q-10 173 -8 181T-4 196Q-1 201 2 207T9 218Q15 227 23 236T39 253Q45 261 50 266Q58 274 67 281T85 297Q87 300 90 302T96 306Q106 312 114 316T134 325Q142 329 149 330T167
334Q174 334 179 334T189 336Q186 344 196 347T211 349Q221 349 227 345T238 334Q249 326 260 313Q262 311 265 310T270 307Q274 302 275 296T282 285Q285 283 288 280T292 272Q297 270 301 269T311 266Q316 264 321 265T334 265Q339 264 343 263T352 261Q360 262
368 265T388 266Q403 262 419 269T453 278Q457 278 460 278T467 279Q472 283 480 285T497 289ZM211 259Q201 268 200 270T196 274Q192 278 186 279T175 281Q159 284 149 278T128 265Q112 255 100 240Q97 235 94 229T88 216Q84 208 81 202T76 186Q71 176 70 170T68
158Q67 148 65 137T62 118Q63 115 65 110T69 103Q71 98 73 92T78 83Q83 76 91 74T109 69Q120 63 124 64T130 65Q143 67 153 76T173 90Q181 102 190 115T208 143Q211 147 213 152T217 161Q224 169 224 170T224 173Q231 188 230 196T230 212Q225 223 222 236T211
259Z" />
<glyph unicode="p" glyph-name="p" horiz-adv-x="393" d="M271 116Q288 121 305 125T340 131Q356 132 373 137Q380 139 387 141T400 146Q407 148 413 149T425 152Q433 146 433 146T434 143L426 129Q422 126 417 125T406 122Q402 120 400 118T396 115Q392 114 390
115T385 118Q361 102 330 96T271 81Q261 76 251 71T230 58Q222 42 208 27T178 1Q175 -1 172 -3T166 -7Q159 -10 151 -12T135 -16Q133 -18 130 -20T125 -22Q119 -23 113 -20T100 -16Q95 -6 94 -4T90 0Q87 11 79 19T65 38Q63 42 62 46T60 55Q61 66 69 74T85 87Q91
78 95 80T103 84Q108 86 111 86T118 88Q126 90 134 91T150 94Q160 95 167 94T183 94Q188 103 195 111T210 126Q215 138 223 152T239 179L248 197Q250 199 251 201T255 207Q257 215 257 222T255 239Q246 244 236 254Q230 252 225 254T213 254Q210 253 207 251T200
247Q191 242 181 238T164 226Q153 215 146 207T131 190Q121 182 119 179T114 173Q108 167 102 162T91 151Q89 148 86 146T80 140Q74 133 70 125T60 109Q55 101 50 93T40 77Q29 46 15 17T-10 -45Q-12 -56 -13 -56T-14 -59Q-16 -67 -17 -73T-22 -86Q-24 -94 -28 -102T-36
-119Q-42 -133 -48 -149T-60 -181Q-65 -192 -68 -203T-76 -225Q-79 -231 -79 -237T-82 -249Q-85 -260 -89 -272T-95 -295Q-110 -309 -115 -319Q-126 -330 -138 -338T-165 -353Q-170 -353 -176 -353T-189 -352T-200 -347T-205 -338Q-206 -329 -205 -315T-198 -291Q-194
-280 -190 -270T-181 -253Q-175 -228 -166 -209Q-161 -198 -156 -189T-147 -168Q-145 -161 -144 -153T-138 -139Q-131 -122 -121 -107T-99 -77Q-94 -69 -90 -61T-81 -44Q-72 -29 -66 -12T-49 19Q-44 30 -39 39T-29 59Q-27 64 -26 69T-22 80Q-16 89 -11 99Q-2 119
7 138T29 177Q30 188 34 197T43 217Q46 225 47 234T51 251Q53 258 58 265T67 280Q69 283 71 286T75 293Q78 299 79 303T85 313Q96 326 100 328T111 335Q131 336 136 326T145 304Q143 296 141 288T137 269Q145 276 154 284T172 300Q189 310 205 321T241 341Q246
343 251 345T262 347Q267 347 270 345T280 341Q285 336 291 332T303 321Q307 316 309 309T313 295Q315 288 318 281T323 268Q323 263 322 258T321 248Q321 245 321 242T322 234Q321 223 314 209T302 184Q298 176 295 169T288 154Q283 143 279 134T271 116Z" />
<glyph unicode="q" glyph-name="q" horiz-adv-x="377" d="M271 308Q279 314 284 321T294 336Q300 338 303 341T312 346Q324 348 336 339T351 322Q352 316 349 311T347 300Q341 294 341 285Q332 268 324 251T311 214Q305 184 293 158T271 105Q258 79 240 52Q232
42 227 32T216 11Q211 0 206 -10T196 -32Q188 -46 184 -62Q176 -91 165 -120T140 -177Q133 -192 129 -209T119 -243Q115 -251 112 -260T104 -278Q100 -286 97 -294T89 -310Q85 -327 76 -341T56 -368Q53 -372 46 -376T34 -381Q25 -382 15 -378T-2 -368Q-9 -363 -13
-359T-15 -344Q-13 -336 -9 -328T0 -312Q3 -303 6 -294T13 -274Q24 -249 38 -222T66 -174Q85 -140 102 -112T133 -55Q139 -33 151 -13T170 30Q175 36 177 43T183 58Q185 63 186 67T188 76Q188 82 184 78T174 70Q169 67 165 63T154 57Q150 53 150 52T147 48Q140
40 132 31T118 11Q113 7 109 2T97 -5Q93 -13 82 -14T60 -15Q50 -14 41 -14T24 -13Q15 -7 14 -7T11 -6Q0 6 -5 12T-12 25Q-13 27 -13 30T-14 36Q-16 44 -18 54T-20 75Q-20 91 -19 109T-16 146Q-13 156 -12 162T-8 175Q-5 186 1 196T13 216Q27 234 42 248Q50 256
57 263T73 278Q78 282 81 285T88 293Q93 296 97 298T106 304Q110 306 114 310T122 318Q129 323 135 327T147 337Q155 340 162 345T177 354Q185 357 195 358T216 358Q226 353 229 353T234 353Q242 351 243 344T249 332Q254 327 260 321T271 308ZM218 259Q215 258
211 257T203 255Q197 254 191 255T180 257Q172 256 159 254T141 250Q133 247 128 240T115 238Q113 235 112 233T109 228Q101 223 97 216T88 200Q83 191 78 182T71 162Q67 155 62 148T55 132Q53 126 51 119T50 103Q50 100 51 97T54 90Q54 82 55 79T59 72Q61 68 62
64T65 57Q70 55 75 50T88 46Q95 48 104 56T118 70Q126 78 131 85T142 99Q153 110 162 120T181 141Q185 144 189 146T197 154Q203 164 204 165T207 168Q210 172 212 177T217 187Q226 204 236 220T252 255Q244 256 235 257T218 259Z" />
<glyph unicode="r" glyph-name="r" horiz-adv-x="390" d="M291 79Q295 84 297 86T303 91Q310 106 318 115T336 133T355 149T379 168Q384 168 387 171T396 177Q403 183 407 186T415 194Q427 200 436 209T457 226Q466 228 474 224Q478 216 477 207T467 197Q464 194
461 191T452 187Q446 186 444 185T439 179Q438 169 437 168T434 164Q428 154 422 147T409 133T397 119T384 100Q378 96 375 89Q357 79 349 74T333 60Q327 56 327 54T325 50Q315 42 314 38T309 31Q299 24 294 19T281 10Q275 5 264 -2T240 -15T215 -23T193 -22Q189
-19 186 -17T179 -12Q172 -4 165 1T151 16Q144 26 142 37T134 60Q133 72 134 83T138 103Q149 137 164 162T186 219Q175 230 174 239T168 266Q142 249 120 223T81 170Q74 158 69 148T57 130Q52 125 52 124T50 120Q42 110 40 106T36 99Q34 96 31 93T26 87Q12 67 1
50T-23 14Q-28 6 -32 -3T-42 -19Q-52 -20 -53 -16T-53 -9Q-59 -5 -62 3T-66 22T-66 42T-62 59Q-65 68 -64 69T-63 72Q-50 90 -37 108T-8 142Q-3 149 1 156T12 169Q21 185 32 199T52 230Q57 235 59 241T68 251Q75 263 79 274T90 293Q92 300 95 304T103 313Q104 318
108 321T116 330Q118 337 121 339T124 346Q129 351 134 356T143 370Q157 378 162 378T171 383Q179 383 190 383T202 376Q203 374 202 371T200 365Q201 356 200 356T199 354Q198 351 198 347T199 338Q198 330 197 326T201 314Q203 311 207 309T214 302Q217 299 217
296T221 290Q223 287 227 285T233 278Q238 274 237 273T241 269Q253 254 258 238Q264 226 269 218T269 202Q267 200 266 197T262 190Q258 186 254 180Q252 176 251 173T248 166Q239 152 230 140T213 115Q214 86 224 73Q236 59 239 59Q245 58 253 63T266 71Q270
73 273 75T280 78Q291 82 290 81T291 79Z" />
<glyph unicode="s" glyph-name="s" horiz-adv-x="312" d="M106 147Q108 143 105 136T99 124Q100 120 101 118T100 111Q107 106 109 100T116 86Q121 80 126 76T137 67Q142 70 145 70T153 72Q162 84 167 100Q168 104 169 109T170 118Q169 132 162 145T151 172Q147
180 148 190T148 208Q147 213 145 216T141 223Q139 231 139 241T135 258Q131 254 122 243T103 219T85 195T72 180Q67 173 61 168T50 155Q46 150 37 139T17 114T-1 90T-13 74Q-15 71 -23 59T-42 33T-61 7T-72 -9Q-78 -19 -87 -26T-110 -34Q-111 -33 -112 -29T-113
-19T-115 -10T-118 -3Q-115 3 -114 9T-105 20Q-103 27 -93 42T-71 75T-49 107T-34 128Q-30 132 -21 143T-3 166T14 190T27 206Q30 215 40 230T62 262T85 294T103 318Q108 326 111 332T119 345Q121 347 123 349T126 354Q128 362 124 365T121 376Q129 392 138 397T156
414Q161 418 165 420T175 427Q179 431 185 431T196 431T206 427T212 422Q213 419 212 414T210 404Q208 395 206 388T202 371Q200 360 199 350T205 331Q204 326 205 319T209 306Q211 274 220 243T241 185Q241 180 242 175T246 165Q249 133 240 102T223 40Q217 30
213 17Q211 11 209 7T203 -2Q198 -10 194 -20T178 -36Q171 -38 165 -36T152 -36Q147 -37 143 -38T135 -40Q122 -42 114 -38T93 -31Q93 -28 90 -27T85 -23Q81 -7 77 0T71 15Q68 26 68 36T63 58Q59 66 59 69T60 75Q60 88 59 103T71 129Q76 133 78 139T87 151Q89 153
93 153T100 152L106 147Z" />
<glyph unicode="t" glyph-name="t" horiz-adv-x="304" d="M305 552Q318 550 327 549T343 548T359 547T379 550Q401 553 418 555T457 560Q463 561 469 560T482 559Q495 559 507 560T531 562Q535 563 538 564T544 564Q553 564 562 564T578 558Q581 548 580 547T578
544Q577 531 575 531T572 529Q564 527 559 526T550 519Q533 515 519 517T489 513Q482 510 475 506T456 505Q446 505 433 504T408 502Q385 500 369 499T337 497T307 495T269 494Q261 487 259 477T248 461Q240 442 235 436T228 420Q214 402 203 383T176 346Q174 335
169 327T161 304Q150 289 145 271T132 233Q130 225 128 218T122 202Q118 192 113 184T102 165Q100 163 100 160T99 154Q96 147 93 142T88 131Q86 126 86 121T83 110Q82 107 81 105T79 99Q76 85 79 80T84 70Q86 64 88 60T91 50Q96 48 100 46T110 44Q116 43 123 49T135
57Q142 59 148 59T160 62Q166 67 170 72T181 79Q197 83 198 85T205 93Q212 98 217 102T231 112Q241 117 242 118T251 125Q261 130 268 136T284 147Q294 151 296 152T298 155T300 158T310 165Q314 173 319 178T331 191Q337 198 343 203T355 213Q358 215 360 217T367
221Q373 226 376 229T388 240Q390 242 393 245T398 249Q402 249 404 246T411 243Q410 230 410 227T408 219Q402 210 395 209T383 198Q380 200 376 199T369 196Q371 192 371 189T372 182Q354 164 348 153Q336 140 335 139T334 137Q334 137 333 136T326 129Q312 118
305 108T284 90Q273 82 269 78T257 67Q253 63 250 59T241 50Q234 45 228 41T216 31Q201 24 195 15T175 -2Q166 -8 151 -17T124 -30Q121 -31 119 -32T113 -34Q105 -29 98 -24T85 -10Q76 -3 71 0T60 8Q50 25 38 42T18 80Q16 84 16 88T14 98Q12 106 10 112T9 127Q9
133 11 140T15 155Q19 168 24 180T33 206Q36 217 39 226T46 246Q48 251 48 255T54 262Q58 282 67 300T85 336Q96 357 105 379T126 422Q127 434 134 442Q135 453 142 463T152 485Q141 488 128 486T104 481Q86 480 66 481Q59 482 53 483T40 485Q31 484 27 486T17
487Q4 498 -2 502T-13 509T-23 517T-31 531Q-31 534 -28 536T-23 540Q-15 542 -5 542T11 545Q27 543 40 547T69 550Q72 550 75 549T81 548Q86 547 89 548T98 550Q104 551 111 550T125 550Q138 551 156 548T189 549Q194 563 200 577T211 606Q215 612 219 619T225
634Q231 644 234 650T243 662Q250 676 253 689T263 719Q276 733 289 753Q296 752 300 757T314 756Q314 753 316 751T317 743Q322 738 325 734T330 725Q332 717 329 707T330 687Q332 682 331 678T332 669Q334 664 337 659T341 646Q341 643 340 639T336 629Q332 614
330 608T326 595Q319 587 319 585T318 580Q315 574 312 566T305 552Z" />
<glyph unicode="u" glyph-name="u" horiz-adv-x="443" d="M245 29Q239 42 243 68Q245 79 246 85T250 108Q252 123 255 139T261 171Q246 148 233 123T202 80Q199 71 195 68T187 62T178 56T170 44Q165 39 161 34T154 20Q149 18 144 12Q135 3 132 2T127 -1Q117 -9
110 -13T92 -18Q81 -20 64 -21T36 -23Q29 -18 26 -17T15 -13Q2 -8 1 -8T-4 -5Q-12 1 -15 4T-22 12Q-39 38 -41 78Q-42 92 -36 106T-25 131Q-20 142 -12 154T1 176Q4 182 4 185T3 192T2 198T5 207Q7 214 11 221T20 237Q30 254 39 265T54 295Q59 309 67 316T88 330Q93
328 102 331T117 339Q124 339 128 343Q139 345 139 343T142 341Q144 340 147 341T153 341Q156 331 158 328T160 323Q160 320 160 315T158 308Q152 300 152 299T150 295Q144 287 135 274T119 250Q114 242 109 239T100 228Q98 224 97 221T94 213Q83 190 68 165T41
116Q40 108 38 101T35 86Q35 85 35 81T34 71T34 60T35 54Q41 46 42 46T44 46Q48 36 49 35T56 31Q60 30 67 32T79 37Q91 43 97 49T109 63Q114 69 123 81T141 105T159 129T173 147Q179 160 187 171T202 194Q210 210 216 221T230 247Q236 255 242 262T252 283Q254
290 259 296T268 308Q275 314 277 319T284 326Q295 329 301 330T316 330Q324 335 333 335T350 334Q350 329 352 328T355 322Q359 313 355 300T350 274Q348 264 343 256T334 236Q330 221 329 218T326 207Q322 189 318 174T312 138Q312 133 311 128T309 118Q309 113
309 106T315 97Q321 95 324 98T335 105Q340 109 345 114T355 123Q360 128 366 131T377 139Q393 153 407 168T439 193Q455 210 471 224T509 249Q517 236 513 228T503 211Q501 209 496 206T488 201Q486 199 483 196T478 193Q478 189 476 187T471 182Q458 162 442
147T411 115Q404 113 403 109T396 100Q392 95 388 92T380 83Q374 76 370 70T357 57Q352 52 350 47T342 36Q334 28 331 28T325 19Q317 13 316 11T313 9Q311 8 306 8T301 5Q294 2 291 -1T281 -5Q268 -7 263 -4T251 7L245 29Z" />
<glyph unicode="v" glyph-name="v" horiz-adv-x="392" d="M143 346Q151 348 152 347T156 345Q160 340 157 329Q153 312 143 299T127 270Q120 256 116 249T109 233Q104 222 99 209T89 181Q85 173 83 168Q78 157 75 149T71 127V100Q73 86 73 70T80 43Q93 49 107
63T132 86Q139 96 147 104T162 124Q174 134 178 150Q183 156 187 162T197 176Q205 187 210 201Q213 209 213 217T212 233Q213 242 215 250T216 266Q218 270 219 274T223 284Q225 289 230 295T241 306Q248 315 254 324T269 338Q274 340 281 343T293 347Q300 348
313 351T333 353Q337 352 340 349T349 349Q357 340 357 334T353 321Q347 312 346 310T344 305Q335 290 326 272T311 238Q321 233 337 233T367 237Q371 238 374 239T382 241Q390 243 401 244T421 250Q432 256 435 256T442 258Q461 263 474 268Q481 270 488 273T501
275Q503 273 503 268T505 258Q497 251 493 252Q477 244 459 238T423 225Q411 220 407 220T398 219Q380 211 370 208T352 201Q349 199 347 197T340 193Q324 190 311 190T285 184Q282 178 277 171T266 158Q261 148 256 141T243 126Q234 118 225 109T208 92Q194 69
176 50T137 11Q132 10 128 7T118 1Q105 -3 103 -4T97 -7Q89 -11 87 -12T82 -16Q79 -18 76 -18T71 -22Q58 -20 56 -25Q51 -25 48 -26T41 -26Q38 -24 37 -22T33 -17Q18 -11 15 -4T6 7Q1 19 1 31T-2 56Q-3 60 -4 63T-6 71Q-8 79 -8 87T-10 103Q-5 120 -9 134Q-7 141
-4 152T0 172Q1 182 2 190T7 206T14 222T24 242Q28 251 33 260T43 279Q48 289 49 292T56 303Q59 308 61 312T68 321Q76 329 83 333T100 343Q105 342 111 343T124 346T136 348T143 346Z" />
<glyph unicode="w" glyph-name="w" horiz-adv-x="622" d="M68 71Q80 76 92 85Q100 96 109 106T128 126Q134 132 139 138T152 151Q154 153 156 154T160 159Q165 166 169 172T179 186Q186 190 192 197T204 210Q206 212 208 214T213 218Q216 221 217 225T221 233Q229
247 237 258Q259 270 282 279T326 287Q328 285 332 283T338 276Q343 268 340 257T330 241Q322 218 319 189T317 134Q315 131 315 126T313 118Q317 110 323 102T340 94Q352 97 355 97T360 98Q364 100 366 102T372 106Q374 110 376 112T380 117Q390 129 399 143T418
170Q424 180 428 187T438 207Q440 212 442 217T447 229Q449 235 447 245T447 261Q452 268 452 273Q459 284 459 286T460 290Q462 292 464 294T466 301Q482 317 507 327Q525 330 538 335T560 332Q558 329 561 327T564 321Q565 316 564 313T562 307Q556 296 555 296T553
295Q551 291 550 286T546 274Q543 266 539 257T529 238Q524 226 527 223T531 214Q534 212 537 211T544 208Q547 206 549 203T557 198Q560 197 565 197T577 197Q585 196 587 197T595 202Q606 208 608 211T613 216Q618 218 622 218T631 220Q642 224 655 230T680 242Q685
244 689 246T696 253Q700 254 701 254T708 255Q710 250 713 246T710 236Q699 225 684 216T657 195Q645 190 635 184T611 173Q596 164 589 160T577 154Q559 154 544 153Q539 152 536 154T526 158Q512 162 506 168T494 179Q487 168 482 155T468 133Q465 123 460 116T451
98Q441 87 434 74T416 50Q393 21 357 1Q350 3 343 -1T331 -2Q310 -7 304 1T290 12Q281 26 280 37T275 59Q273 65 271 69T269 79Q266 92 263 100T257 120Q256 129 256 138T254 157Q236 154 232 145T219 130Q215 119 208 114T196 97Q185 91 177 81T157 62Q147 56
144 52T135 46Q132 41 127 37T117 27Q112 22 108 18T99 9Q95 4 92 2T85 -3Q82 -5 79 -8T74 -13Q60 -22 52 -26T38 -28Q30 -30 23 -26T10 -17Q5 -10 0 -4T-7 10Q-13 18 -18 28T-27 50Q-28 70 -30 80T-31 100Q-30 112 -24 121T-13 141Q-14 149 -10 153T-7 163Q2 187
12 199T27 229Q32 246 39 258T52 287Q56 294 58 302T66 318Q69 321 71 324T77 329Q85 331 91 336T105 343Q112 345 116 345T126 348Q139 356 143 357T153 360Q160 354 164 348T166 331Q160 325 159 322T156 315Q154 311 150 308T144 301Q142 297 141 294T137 288Q135
286 133 284T128 279Q126 277 125 274T122 268Q118 263 113 259T105 251Q103 245 102 237T98 220Q95 210 87 195T75 168Q73 159 72 151T68 134Q67 130 65 127T62 121Q57 107 57 91T68 71Z" />
<glyph unicode="x" glyph-name="x" horiz-adv-x="401" d="M151 225Q160 231 168 238T186 252Q207 269 229 285T272 319Q275 323 281 327Q292 333 292 334T295 337Q299 339 304 338T315 338Q328 341 342 338T360 333Q365 335 369 335T377 337Q385 337 388 334T395
328Q395 325 395 322T394 314Q384 305 373 297T348 282Q333 274 328 269T314 261Q299 254 288 246T262 229Q246 217 229 207T195 183Q189 179 187 177T181 172Q182 165 184 160T186 146Q188 143 189 139T193 131Q198 122 201 114T211 96Q215 90 218 84T228 75Q230
70 232 68T237 60Q241 53 247 53T260 55T274 60T287 66Q297 67 302 71T314 81Q319 85 324 88T335 96Q345 103 355 109T376 121Q381 128 387 132T400 142Q409 148 414 153T427 163Q433 169 437 172T445 179Q452 182 457 185T467 196Q472 196 475 199T484 204Q486
195 484 190T479 180Q473 174 467 169T453 160Q451 158 449 157T444 153Q442 151 440 150T435 146Q430 136 427 134T420 128Q413 124 410 120T398 111Q377 91 362 78T330 51Q316 43 302 36T273 19Q269 17 265 14T258 10Q253 8 248 8T237 4Q227 0 216 -5T196 -9Q191
-8 188 -6T179 -4Q176 3 166 7T159 22Q153 30 148 39T138 56Q139 69 135 77T125 93Q124 96 123 99T121 105Q119 110 117 114T113 123Q102 117 97 113T83 101Q78 97 74 94T65 87Q53 80 46 73Q41 68 38 64T30 57Q25 54 20 51T9 44Q4 40 1 37T-9 29Q-12 27 -15 23T-22
17Q-28 12 -35 9T-48 1Q-60 -11 -70 -17T-93 -22Q-98 -19 -103 -18T-114 -14T-123 -8T-128 -3Q-124 1 -120 3T-111 9Q-100 20 -89 27T-65 43Q-57 48 -53 55T-40 68Q-36 75 -31 78Q-29 80 -27 83T-22 88Q-11 94 -11 95T-10 97Q-2 103 2 109Q5 111 9 113T17 119Q27
127 35 133T53 146Q58 151 64 155T75 163Q81 175 78 178T74 183Q73 187 73 191T72 200L69 215Q68 223 65 229T60 244Q58 250 57 256T53 268Q51 274 50 281T46 293Q43 298 42 301T43 311Q44 316 44 320T48 327Q56 332 58 334T62 338Q70 341 79 346T95 355Q109 364
115 359T124 345Q119 333 119 330T120 324Q118 314 118 307T124 294Q122 290 123 287T127 282Q130 265 137 252T151 225Z" />
<glyph unicode="y" glyph-name="y" horiz-adv-x="458" d="M74 79Q84 77 92 84T109 96Q113 101 118 106T130 116Q144 134 161 150Q169 160 177 169T193 188Q198 195 201 201T208 213Q213 221 219 229T229 248Q233 254 239 258T250 268Q253 272 255 277T261 285Q265
288 265 290T268 294Q271 299 275 303T284 312Q295 321 302 327T317 339Q335 345 353 343T380 330Q381 317 383 306T380 276Q376 266 370 256T361 236Q359 233 357 230T353 225Q343 198 332 173T310 121Q335 133 348 142T376 159Q385 165 394 171T413 183Q421 193
431 199T452 213Q459 220 466 224T481 234Q486 238 490 242T500 249Q504 253 507 257T516 264Q521 266 525 268T534 273Q538 275 541 278T550 283Q553 287 557 292T568 296Q570 299 575 299T584 297Q584 293 585 291T585 284Q580 280 576 277T566 271Q553 257 544
251T528 234Q511 217 493 200T457 167Q451 167 446 163T436 161Q430 163 426 153Q413 139 399 127T368 104Q348 83 323 68T278 32Q276 12 268 -6T254 -43Q246 -60 243 -73T232 -98Q229 -115 222 -129T207 -158Q205 -169 197 -179T184 -201Q182 -206 179 -210T174
-220Q171 -225 169 -230T164 -240Q162 -242 160 -244T156 -249L144 -270Q136 -287 124 -298T97 -324Q92 -329 89 -334T80 -344Q75 -349 70 -353T60 -364Q52 -367 47 -373T37 -387Q33 -389 31 -391T24 -396Q16 -399 14 -400T10 -403Q3 -407 -5 -407T-19 -413Q-29
-413 -33 -409T-42 -400Q-47 -391 -47 -380T-44 -357T-39 -334T-37 -311Q-32 -295 -31 -284T-27 -264Q-20 -253 -19 -248T-13 -241Q-12 -235 -10 -231T-7 -222Q-4 -220 -2 -217T4 -212Q14 -192 19 -178T32 -150Q35 -142 37 -135T42 -122Q47 -111 55 -100T72 -78Q79
-69 81 -65T86 -58Q94 -52 94 -51T94 -49Q100 -43 106 -37T120 -25Q126 -18 132 -12T146 -1Q152 6 158 12T172 23Q188 34 201 47T229 72Q231 86 236 97T243 121Q247 128 250 137T255 154Q258 157 259 162T263 173Q268 183 268 190Q269 196 269 200T271 211Q272
216 272 225Q265 219 260 211T249 196Q247 194 245 192T241 184Q236 178 234 177T232 174Q209 148 187 121T141 67Q132 59 122 52T101 36Q93 30 82 22T55 18Q32 9 18 21T-5 49Q-9 55 -11 59T-13 75Q-11 86 -8 97T-3 123Q-1 134 0 145T5 168Q8 182 13 195T25 217Q30
232 34 245T44 273Q49 289 56 304T71 333Q76 340 80 345T90 357Q100 358 106 360T118 366Q125 368 132 369T145 373Q156 378 159 378T164 380Q166 375 170 374T175 367Q175 360 170 350T162 335Q158 328 154 319T145 303Q143 294 140 286T133 268Q123 257 116 243T100
213Q98 208 96 204T91 195Q89 186 88 177T84 159Q82 154 81 149T78 136Q76 122 75 108T74 79ZM216 -7Q196 -20 181 -35T150 -67Q143 -75 136 -82T123 -99Q118 -108 113 -117T99 -135Q87 -146 84 -152T78 -164Q74 -172 71 -179T62 -194Q57 -204 53 -214T44 -234Q37
-252 33 -268T30 -302Q30 -306 30 -309T33 -315Q38 -315 48 -311Q56 -304 63 -297T78 -282Q86 -273 93 -266T108 -250Q122 -234 133 -216T152 -174Q158 -163 162 -151T172 -128Q183 -96 195 -67T217 -7H216Z" />
<glyph unicode="z" glyph-name="z" horiz-adv-x="319" d="M140 178Q151 180 163 182T190 183Q197 183 203 184T217 184Q220 183 223 183T229 182Q231 181 233 179T239 175Q253 162 257 149T261 124Q261 119 260 113T256 101Q255 95 254 88T250 73Q246 59 240 48T225
26Q220 18 216 11T205 -2Q197 -18 189 -31T171 -57Q161 -68 155 -80T138 -103Q134 -109 130 -114T121 -124Q116 -129 113 -134T104 -145Q96 -156 87 -166T69 -187Q59 -198 50 -207T30 -224Q17 -229 7 -239T-14 -259Q-28 -270 -39 -282T-65 -306Q-70 -310 -75 -313T-85
-322Q-102 -334 -112 -339T-133 -351Q-137 -353 -140 -356T-146 -362Q-152 -364 -157 -365T-167 -369Q-170 -371 -176 -372T-189 -374T-201 -375T-210 -371Q-217 -366 -217 -364T-219 -360Q-223 -355 -226 -350T-234 -340Q-236 -332 -236 -325T-230 -313Q-232 -293
-222 -277T-204 -245Q-187 -228 -171 -211T-137 -176Q-130 -164 -120 -155T-99 -135Q-93 -127 -86 -121T-70 -106Q-64 -101 -58 -96T-46 -86Q-41 -81 -35 -77T-23 -67Q-13 -55 -7 -50T5 -38Q17 -27 21 -21T32 -11Q37 -5 41 1T51 14Q54 17 58 20T66 29Q68 34 68
40T71 52Q77 55 79 53T84 48Q88 37 86 26T75 7Q63 -9 54 -21T31 -41Q27 -46 24 -52T15 -62Q9 -72 4 -80T-9 -97Q-12 -102 -16 -105T-22 -115Q-27 -125 -36 -130T-49 -146Q-68 -165 -83 -179T-112 -207T-139 -236T-160 -261Q-168 -272 -170 -278T-170 -288T-162
-291T-150 -287Q-137 -281 -132 -277T-118 -266Q-104 -258 -91 -250T-66 -231Q-53 -221 -43 -209T-20 -185Q-6 -164 11 -147T47 -113Q62 -89 76 -70T108 -33Q111 -30 113 -27T117 -18Q126 -4 136 9T157 38Q167 53 172 68T183 104Q180 109 179 112T176 118Q170 126
155 127T130 126Q125 124 121 122T111 124Q97 121 84 115T56 102Q49 100 42 97T29 98Q25 101 21 108T14 120Q12 123 10 128T10 140Q12 145 18 152T29 163Q33 166 37 167T46 171Q51 174 56 179T66 190Q74 198 83 202T98 215Q109 223 122 232T148 254Q151 257 153
260T159 266Q167 276 177 288T190 318Q191 323 184 329T172 337Q167 338 163 337T155 334Q148 332 141 330T127 326Q124 325 122 323T118 319Q106 315 103 314T95 312Q91 308 90 304T85 295Q83 291 80 290T74 285Q69 272 65 269T56 261Q52 261 48 258T39 257Q32
252 22 255T8 266Q6 277 -2 284T-12 302Q-14 310 -13 318T-10 337Q-6 339 -4 342T2 349Q20 359 39 364T80 375Q91 377 101 380T121 386Q133 388 144 390T169 395Q177 392 186 394T203 393Q206 392 208 389T213 384Q216 382 219 381T226 377Q237 366 243 364T254
357Q255 351 258 348T263 339Q263 314 246 304Q232 285 219 268T188 234Q186 229 183 226T177 218Q171 215 166 209T156 196Q152 191 148 187T140 178Z" />
<glyph unicode="{" glyph-name="braceleft" horiz-adv-x="283" d="M173 345Q178 340 183 336T193 327Q194 316 198 309T206 293Q208 288 206 272Q205 267 205 262T204 251Q202 244 199 237T194 221Q188 207 180 191T164 160Q159 152 156 145T148 130Q145 122 141
115T133 101Q126 90 120 78T108 55Q100 46 96 37Q91 28 90 19T85 -1Q80 -15 84 -19T91 -26Q98 -32 101 -31T112 -29Q117 -29 122 -31T128 -35Q107 -46 94 -49T67 -51Q61 -50 58 -48T50 -44Q45 -42 43 -40T39 -34Q37 -32 34 -28T29 -19Q29 -12 28 -10T26 -5Q25 -1
26 2T28 10Q29 19 30 22T33 29Q37 44 41 61T54 95Q62 109 68 122T83 152Q89 164 93 177T103 202Q108 213 110 224T116 249Q121 263 126 277T128 302Q123 305 116 306T103 309Q99 311 97 314T90 317Q92 321 90 323T88 330Q89 335 94 343T101 357Q107 372 121 377T143
384Q149 386 154 384Q165 390 174 398T195 415Q200 421 202 427T208 440Q217 463 227 487T246 534Q249 544 251 548T255 558Q256 563 258 571T263 586Q273 606 281 619T297 644Q302 652 306 661T317 677Q322 682 326 686T333 696Q341 704 349 711T367 725Q383 730
395 740T425 756Q431 758 438 759T453 764Q458 765 461 765T468 767Q472 770 478 770T488 771Q496 770 500 766T507 757Q506 750 507 747T505 741Q498 740 491 741T476 740Q474 740 471 739T465 736Q457 734 448 733T434 729Q431 727 429 724T422 718Q417 713 412
712T403 705Q394 688 388 681T377 666Q365 648 355 631T335 592Q326 571 317 547Q315 541 314 534T310 521Q302 501 293 480T275 439Q267 419 256 401T228 368Q217 359 203 354T173 345Z" />
<glyph unicode="|" glyph-name="bar" horiz-adv-x="262" d="M375 741Q367 717 358 690T336 636Q319 600 299 565T267 496Q265 486 263 477T258 459Q253 443 252 437T247 424Q235 396 221 367T195 308Q182 278 168 249T140 191Q131 171 123 151T105 113Q99 99 94
87T85 62Q75 47 66 30T43 4Q35 -1 23 -6Q18 -8 11 -11T1 -13Q-5 -5 -8 -5T-13 -2Q-20 2 -20 5T-16 20Q-14 25 -13 29T-10 37Q-5 48 2 58T16 80Q23 91 28 104T38 129Q46 149 53 169T70 212Q74 223 78 234T87 257Q91 268 94 280T103 303Q105 308 109 314T117 328Q126
345 135 365T153 402Q161 419 168 436T183 471Q198 503 214 536T245 602Q249 610 252 619T260 636Q265 645 269 653T279 671Q284 683 288 695T300 720Q301 722 303 724T308 729Q310 733 312 737T316 743Q318 745 321 747T329 752Q334 756 336 758T343 760Q353 760
359 758Q363 756 363 753T366 745L375 741Z" />
<glyph unicode="}" glyph-name="braceright" horiz-adv-x="298" d="M212 375Q207 380 202 384T194 393Q192 404 188 411T180 427Q177 434 179 447Q180 453 180 458T181 469Q183 476 186 483T193 499Q198 513 206 529T222 559Q226 567 229 574T237 590Q241 598
244 605T253 618Q260 630 265 642T278 665Q281 670 284 674T289 683Q294 692 295 701T300 720Q301 723 302 725T305 730Q305 735 301 738T295 745Q287 752 284 751T274 749Q269 749 263 751T257 755Q278 766 291 769T318 771Q324 770 327 768T336 764Q340 761 342
759T347 754Q349 752 352 747T356 739Q356 732 357 730T359 725Q360 719 357 710Q357 700 356 697T353 691Q349 676 345 659T331 625Q324 611 318 598T303 568Q296 556 292 542T283 518Q278 507 276 495T269 471Q264 457 260 443T257 418Q262 415 269 414T283 410Q286
408 288 405T295 402Q293 398 295 396T297 390Q296 385 291 377T284 362Q281 351 276 348T265 343T252 338T242 335H231Q220 330 211 322T190 305Q185 299 183 293T178 280Q169 257 159 233T139 186Q136 176 134 172T131 162Q129 157 127 149T122 134Q107 102 89
76Q84 68 80 59T69 42Q64 37 59 33T52 24Q44 16 36 9T18 -5Q2 -10 -10 -20T-39 -36Q-46 -38 -53 -39T-67 -44Q-72 -45 -75 -46T-83 -47Q-86 -50 -92 -50T-103 -51Q-111 -50 -115 -46T-122 -37Q-121 -30 -122 -27T-120 -22Q-113 -20 -106 -21T-90 -20Q-88 -20 -85
-19T-79 -16Q-71 -14 -63 -13T-49 -9Q-46 -7 -44 -4T-37 2Q-31 7 -27 8T-17 15Q-9 32 -3 39T8 54Q20 72 30 89T50 128Q55 139 59 150T68 173Q70 179 71 185T75 199Q84 219 93 240T111 281Q118 300 129 318T157 352Q169 361 183 365T212 375Z" />
<glyph unicode="~" glyph-name="asciitilde" horiz-adv-x="446" d="M399 297Q393 293 386 290T371 284T357 281T346 285Q341 284 337 284T327 284Q307 279 297 282T276 288Q274 288 271 288T264 288Q259 289 256 292T248 297Q240 299 231 299Q223 301 214 303T194
304Q169 302 144 294T93 280Q85 278 76 275T61 280Q65 284 64 288T72 298Q73 305 77 312T87 329Q113 346 142 352T200 370Q218 371 237 369T262 354Q272 352 279 348T293 341T308 335T330 336Q341 333 354 337T380 342Q390 348 402 353T423 359Q429 357 431 354T436
346Q432 340 431 335T428 324T424 312T416 299Q408 297 404 297T399 297Z" />
<glyph unicode="&#xa0;" glyph-name="uni00A0" horiz-adv-x="317" />
<glyph unicode="&#xa1;" glyph-name="exclamdown" horiz-adv-x="314" d="M-26 -28Q-35 -29 -40 -24Q-50 -23 -60 -23T-81 -22Q-84 -22 -87 -22T-93 -21Q-101 -17 -106 -6T-104 14Q-106 22 -104 27T-101 40Q-91 57 -84 73T-65 104Q-61 113 -59 117T-55 126Q-53
131 -50 134T-44 143Q-39 153 -35 161T-25 178Q-16 196 -5 213T13 250Q18 258 22 267T32 285Q37 293 41 302T51 320L66 343Q68 348 69 352T73 362Q77 372 80 381T89 399Q94 409 98 417T108 433Q113 442 116 451T128 467Q130 476 134 482T141 496Q150 517 161 536T184
576Q191 580 197 585T215 591Q220 592 223 591T230 587Q240 584 242 580T247 574Q247 569 247 564T249 555Q241 532 233 508T214 460Q209 450 204 441T193 422Q188 413 185 403T176 384Q166 364 161 344T145 306Q139 289 132 273T118 240Q110 220 106 218Q107 215
105 211T101 203Q99 193 95 186Q90 170 85 156T71 129Q69 121 67 115T62 100Q60 93 58 87T53 75Q51 65 48 54T41 32Q35 18 30 6T16 -14Q13 -17 9 -20T0 -25Q-7 -27 -13 -26T-26 -28ZM253 637Q240 635 233 639Q226 645 225 645T223 645Q210 652 206 670T209 703Q220
719 227 727T245 740Q253 745 259 748T276 749Q306 745 313 730T318 698Q316 689 313 683Q311 679 310 677T306 672Q292 653 270 642Q265 640 262 639T253 637Z" />
<glyph unicode="&#xa2;" glyph-name="cent" horiz-adv-x="400" d="M417 608Q427 603 439 604T459 598Q463 594 464 590T470 583Q476 559 463 547Q459 544 454 546T444 549Q435 549 432 551T425 554Q420 553 415 554T404 555Q401 555 399 554T393 552Q385 550 374
549T356 546Q343 540 326 535T299 522Q276 506 263 488T233 453Q223 437 215 422T196 389Q194 384 191 381T187 371Q183 366 180 360T175 348Q168 335 164 324Q159 311 153 299T144 273Q139 256 140 236T150 203Q148 198 151 194T158 186Q165 179 171 178Q174 176
178 175T187 171Q201 169 210 169T227 169Q237 170 243 174T258 184Q264 188 270 192T283 199Q287 201 291 204T300 210Q305 213 311 217T323 219Q328 223 334 226T350 228Q353 226 354 222T360 220Q359 217 358 214T358 208Q356 205 356 201T354 194Q352 189 350
187T346 181Q341 175 338 173T332 169Q330 166 327 164T322 159Q319 156 316 154T309 150Q292 132 281 124T259 106Q256 100 249 102T237 99Q233 96 231 94T224 89Q216 89 211 88T201 84T191 82T178 83Q174 80 174 76T171 67Q169 64 167 57T164 47Q162 43 162 40T161
32Q155 20 151 16T143 6Q135 4 123 10T101 18Q92 31 94 37T100 49Q109 63 114 77T127 102Q122 111 110 116Q99 127 96 132T87 142Q85 144 83 148T79 156Q77 165 75 167T70 174Q63 192 62 206T62 234Q62 244 66 248Q64 268 70 287T78 326Q83 346 90 362T106 396Q112
402 116 411T127 427Q135 445 150 463Q176 494 208 517Q211 521 213 524T221 531Q232 545 245 556T270 581Q281 586 294 589T319 598Q330 603 335 604T344 608Q352 617 355 620T360 629Q370 642 378 654T394 679Q399 684 402 687T409 695Q414 700 417 703T426 710Q434
705 443 699T450 686Q452 683 453 680T456 674Q454 666 450 660T441 649Q432 638 427 629T417 608Z" />
<glyph unicode="&#xa3;" glyph-name="sterling" horiz-adv-x="470" d="M432 615Q440 611 446 608T451 599Q450 597 447 594T441 588Q436 582 433 576T425 564Q422 559 420 556T416 546Q415 540 416 534T419 521Q424 514 425 514T425 511Q431 508 435 508T447 510Q465
531 471 565T479 633Q476 635 475 638T469 640Q470 644 467 645T461 648Q456 650 452 651T442 652Q440 652 437 651T431 649Q420 647 409 645T393 639Q378 627 371 619T356 603Q346 586 335 571T312 542Q305 519 296 500T282 457Q275 433 269 417T258 380Q276 383
285 383T303 383Q306 383 308 384T314 386Q325 388 334 387T354 382Q356 371 352 365T346 355Q340 354 335 351T324 348Q317 334 315 333T307 330Q286 328 266 325T226 314Q222 304 219 295T211 274Q203 265 199 257T187 240Q175 217 164 194T138 150Q133 138 128
128T117 105Q127 107 135 111T155 117Q162 121 167 121T181 123Q183 125 189 127T197 127Q212 131 224 134T250 139Q265 140 281 141T314 143Q318 143 322 143T331 142Q348 142 359 137T379 126Q396 122 403 99Q417 92 429 88Q431 83 432 75T425 65Q420 51 415
51L401 58Q396 58 390 59T378 62Q368 65 367 65T365 67Q362 68 358 68T350 68Q342 69 335 69T319 68Q299 68 276 68T230 62Q221 64 210 61T186 55Q179 53 174 52T165 56Q143 51 121 46T78 35Q73 33 67 30T56 25Q48 21 40 18T24 7Q20 7 18 5T12 3Q8 1 3 -1T-7 -3Q-24
4 -29 20T-28 53Q-20 57 -10 67Q-8 69 -5 70T1 74Q3 76 4 79T8 84Q10 86 13 88T18 93Q24 99 28 105T39 117Q47 125 55 133T72 153Q80 169 90 184T108 217Q118 236 125 246T139 275Q143 280 144 286T150 299Q135 299 120 299T92 303Q90 304 90 309T87 317Q81 322
76 326T69 339Q78 346 81 344Q105 350 127 352T174 362Q184 395 197 424T222 484Q242 525 260 567T306 641Q313 654 322 663T342 682Q343 685 345 687T349 691Q357 698 366 703T387 713Q401 718 415 721T444 721Q448 720 450 719T456 716Q463 713 471 712T484 705Q494
694 499 692T508 684Q518 673 524 657Q526 652 524 646Q529 631 525 613T515 580Q509 554 500 530T479 483Q472 477 471 474T468 468Q467 467 464 465T458 461Q453 459 449 457T439 455Q434 456 428 458T418 465Q415 468 414 471T408 476Q400 487 394 498T382 521Q381
542 384 550T391 570Q398 576 403 584T416 598Q420 603 424 606T432 615Z" />
<glyph unicode="&#xa4;" glyph-name="currency" horiz-adv-x="481" d="M251 498Q256 499 259 500T266 504Q283 509 297 510T328 514Q336 516 344 518T361 520Q366 520 371 519T381 517Q397 514 402 509T415 501Q418 499 421 499T429 497Q437 501 443 506T458 517Q468
528 478 538T499 558Q501 563 504 565T511 570Q535 570 538 560T547 542Q549 535 546 529T538 517T527 506T515 498Q499 485 489 474T467 453Q468 427 464 396Q463 387 463 380T458 361Q454 351 446 336Q439 322 433 310T418 287Q411 280 410 276Q399 264 395 258T386
247Q388 242 390 236T395 224Q398 219 402 215T409 206Q411 203 411 199T413 190Q415 187 416 183T416 175Q414 170 411 168T402 161Q392 157 385 150T368 138Q363 139 360 139T351 140Q342 148 338 160T328 184Q322 193 322 197T318 202Q313 203 306 199T293 191Q290
190 287 190T281 188Q268 183 260 182T243 178Q228 175 216 176T192 180T169 186T142 190Q115 175 93 160T49 125Q45 123 41 122T33 118Q26 123 24 123T20 126Q14 131 12 140T10 160Q30 182 52 201T96 239Q90 254 89 275T95 319Q99 347 112 366T138 406Q153 428
162 438T183 457Q182 470 182 476T181 488Q177 502 173 514T171 547Q175 552 179 556T188 566Q198 568 204 574T219 582Q222 581 224 582T230 582Q238 575 238 567T240 552Q243 539 247 526T251 498ZM399 428Q397 433 395 437T389 445Q378 453 370 454T352 457Q346
458 338 458T323 457Q317 456 312 456T302 456Q287 454 273 447T244 436Q233 426 222 417T201 393Q193 385 187 374T174 352Q172 349 170 346T165 340Q162 330 160 318Q159 310 159 303T158 289Q158 279 159 270T164 254Q166 249 173 243T187 237Q192 237 195 238T203
239Q207 238 210 237T216 236Q218 236 222 237T229 239Q240 240 249 240T268 241Q276 243 283 245T299 251Q335 264 355 293Q360 299 365 304T374 318Q384 338 391 359T402 399Q407 402 407 405T411 411Q409 416 406 419T399 428Z" />
<glyph unicode="&#xa5;" glyph-name="yen" horiz-adv-x="418" d="M262 421Q280 435 296 452T326 489Q340 503 352 518T379 548Q381 553 384 555T390 561Q400 568 403 575Q415 582 415 586Q422 588 425 591T435 597Q441 613 447 620Q451 632 453 635T456 644Q458
650 458 657T459 670Q459 673 461 675T466 679Q476 684 476 686Q485 687 494 689T512 694Q527 695 534 696T547 698Q559 691 563 682T565 665Q563 657 557 651T546 639Q539 628 535 623T527 613Q516 594 497 575Q495 573 492 571T486 566Q484 563 481 561T476 554Q469
550 465 544T454 531Q452 529 448 526T444 518Q434 506 424 496T404 474Q396 467 389 461T374 446Q372 444 369 442T364 436Q353 421 346 415T333 401Q330 398 328 395T322 390Q307 372 291 356T259 322Q268 320 276 321T293 324T309 327T327 329Q330 329 333 328T339
326Q345 326 351 326T362 327Q374 321 372 307Q364 303 366 296Q346 289 329 285T293 282Q284 283 275 282T257 283Q250 284 244 285T230 286Q227 284 226 281T223 274Q218 262 213 252T202 228Q212 227 221 227T240 229Q245 230 250 230T258 232Q264 231 270 232T284
234Q288 233 291 233T297 232Q305 232 312 234T329 234Q335 230 337 217Q331 211 327 209Q324 203 318 200T305 193Q299 190 294 187T280 183Q275 183 271 183T262 184Q250 183 237 183T211 184Q203 184 196 183T181 182Q179 180 179 177T176 171Q171 150 165 130T154
88Q153 84 153 80T150 71Q148 63 147 57T144 46Q138 44 136 39T127 31Q115 28 112 26T105 20Q94 16 80 14T55 18Q48 27 46 28T40 31Q41 35 39 37T36 44Q35 51 39 56T44 68Q47 70 48 74T52 80Q53 85 55 88T57 96Q61 105 67 112T79 128Q83 131 84 135T90 142Q96 159
100 166T109 182Q93 186 79 181T50 173Q49 167 44 166T37 173Q32 184 31 193Q34 199 37 205T46 214Q53 221 60 218Q76 221 92 220T126 219Q129 222 130 226T134 232Q139 245 144 256T155 279Q152 281 149 280T141 276Q138 275 135 275T128 276Q115 275 103 272T79
274Q75 277 74 281T70 291Q73 297 78 301T84 313Q95 316 95 315T97 314Q109 315 122 314Q142 310 152 312T173 316Q178 324 178 328T183 334Q189 346 189 348T193 352Q195 363 196 364T197 368Q198 372 198 376T196 384Q194 399 192 416T188 453Q187 461 187 468T185
485Q184 503 185 520T186 558Q185 574 184 589T183 620Q175 635 172 642T162 653Q160 657 160 661T160 671Q171 677 175 679T185 685Q189 687 193 687T202 690Q207 691 211 694T220 699Q228 702 237 702T256 705Q260 702 263 699T271 693Q278 684 278 675T274 655Q273
650 273 646T270 639Q268 628 265 617T259 593Q257 581 256 568T253 541Q253 533 253 523T253 503Q255 483 256 463T262 421Z" />
<glyph unicode="&#xa6;" glyph-name="brokenbar" horiz-adv-x="241" d="M350 748Q350 745 349 742T348 736Q351 726 349 716T342 691Q340 685 336 679T329 666Q327 660 326 656T322 646Q318 640 314 634T305 621Q303 617 303 614T300 607Q288 578 276 548T253
489Q250 479 249 477T247 473Q242 462 238 451T222 432Q222 424 214 418Q198 410 186 416T172 433Q180 441 182 449T187 469Q189 474 190 479T195 492Q197 496 197 500T200 509Q209 535 220 561T239 614Q244 639 256 667T279 724Q283 728 288 733T300 743Q313 753
317 757T329 760Q334 758 340 755T350 748ZM119 316Q121 318 123 322T127 328Q130 329 134 330T142 329Q150 334 158 335T170 331Q172 328 172 321T170 308Q159 287 154 273T143 244Q140 236 138 227Q134 212 129 202T119 180Q117 177 117 174T115 167Q112 159
108 151T100 135Q95 122 91 110T81 86Q77 78 73 69T63 53Q58 43 54 33T42 14Q38 9 34 5T25 -4Q15 -7 9 -11Q6 -10 3 -11T-2 -14Q-7 -14 -10 -11T-18 -8Q-22 2 -21 13T-10 40Q-8 45 -4 50T4 62Q9 71 14 79T18 95Q26 110 30 128T44 161Q53 187 64 214T87 265Q92 278
96 289T106 311Q110 313 113 315T119 316Z" />
<glyph unicode="&#xa7;" glyph-name="section" horiz-adv-x="425" d="M435 761Q423 760 409 755Q403 753 398 750T388 744Q373 739 370 732T359 720Q348 698 341 672T335 614Q335 609 335 605T336 597Q338 583 340 570T348 546Q356 535 362 525T376 505Q380 495
385 485T395 464Q397 457 399 452T401 439Q401 429 402 419T404 397Q404 394 404 391T403 384Q403 379 403 375T404 366Q403 358 399 352T391 338Q386 331 383 324T375 310Q373 307 370 305T365 298Q362 295 360 292T355 286Q353 278 349 274T340 267T331 259T325
247Q320 245 317 243T309 238Q305 235 301 235T291 232Q283 230 274 227T253 227Q257 216 260 201T267 171Q271 165 273 159T279 144Q281 135 282 125T285 105Q287 100 287 94T287 81Q287 74 288 68T289 53Q287 47 283 38Q280 33 277 28T269 17Q264 8 263 8T261
6Q248 -11 230 -24Q223 -29 215 -34T198 -43Q189 -48 175 -54T146 -62Q133 -65 123 -61T103 -53Q97 -55 91 -53Q71 -49 56 -39T22 -24Q7 -13 -2 4T-22 36Q-30 45 -35 53T-45 75Q-47 81 -49 88T-51 101L-48 112Q-46 117 -46 119T-46 124Q-35 131 -33 127T-26 120Q-20
121 -15 121T-4 117Q-1 115 0 113T4 108Q8 97 10 93T15 83Q17 81 20 79T26 73Q34 62 41 50T61 32Q66 32 73 30T84 25Q91 21 95 18T110 14Q119 15 126 17T140 24Q151 29 158 33T172 45Q176 50 178 54T184 62Q188 67 192 70T199 78Q212 107 204 140T184 200Q179 214
175 227T162 252Q158 252 156 252T150 251Q142 256 143 264T147 278Q145 295 139 313T131 349Q130 355 131 362T132 377Q132 382 132 386T134 396Q138 413 145 427T162 455Q168 464 173 468T181 480Q186 482 189 486T199 494Q205 502 215 510T237 522Q246 525 256
524T276 524Q275 536 269 545T261 566Q255 573 251 581T243 601Q240 609 236 616T233 634Q233 637 234 640T236 646Q238 653 238 659T240 673Q249 690 255 708T276 737Q278 744 282 748T289 759Q305 778 328 789T375 808Q389 813 405 815T436 819Q452 821 465 817T492
810Q496 805 502 804T515 800Q519 798 521 796T529 794Q534 789 539 784T549 773Q552 770 555 765T558 755Q558 746 553 744T546 734Q541 733 538 729T530 724Q526 724 521 725T511 729Q507 731 504 735T496 741Q493 743 489 743T481 745Q473 749 468 751T457 756Q451
757 445 757T435 761ZM301 357Q311 368 320 381T333 411Q336 425 334 436T327 458Q325 466 324 469Q323 471 320 475T315 478Q305 473 295 472T274 467Q263 463 254 457T236 444Q231 436 225 429T214 413Q212 411 210 408T207 402Q205 398 205 390T204 377Q204
359 206 340T214 306Q223 306 231 310T247 317Q249 321 252 321T258 324Q261 326 263 328T270 331Q278 336 286 342T301 357Z" />
<glyph unicode="&#xa8;" glyph-name="dieresis" horiz-adv-x="551" d="M382 730Q384 719 387 711T389 689Q388 685 386 681T381 672Q379 667 379 663T376 655Q372 651 365 648T351 642T336 639T325 642Q323 643 322 645T316 651Q311 655 306 659T299 671Q297 679
299 689Q301 701 308 714T328 732Q345 736 351 739T370 738Q373 736 375 734T382 730ZM534 737Q543 741 550 737T564 730Q563 719 568 708Q566 702 566 697T564 686Q562 683 560 680T557 674Q549 653 532 647T496 644Q489 647 487 654T480 666Q476 684 478 701T494
726Q502 731 511 733T527 743L534 737Z" />
<glyph unicode="&#xa9;" glyph-name="copyright" horiz-adv-x="598" d="M686 579Q688 565 686 548T683 514Q682 504 682 492T679 469Q677 457 673 445T667 420Q665 411 663 401T656 380Q649 361 643 345T627 313Q621 304 615 298Q610 289 605 281T593 266Q584
259 577 250T561 230Q556 223 550 216T536 204Q522 191 508 181T475 162Q471 160 467 159T458 155Q453 153 447 150T437 142Q429 137 420 133T401 125Q396 120 393 119T384 115Q375 113 366 113T345 113Q322 115 306 114T273 115Q245 122 225 129T186 144Q184 147
181 148T175 151Q170 154 165 157T153 164Q151 167 149 169T144 175Q143 185 134 194Q131 196 128 198T123 205Q109 222 97 237T79 272Q77 277 77 282T74 292Q70 304 70 311Q68 321 66 330T62 349Q63 354 62 359T61 370Q65 390 67 414T78 459Q81 471 83 479T91
494Q101 507 106 516T115 537Q120 543 123 551T132 564Q136 572 140 577T148 589Q152 592 155 596T161 605Q167 612 167 613T169 616Q174 620 174 622T176 626Q182 634 190 642T206 658Q210 665 215 670Q224 678 227 679T232 683Q236 685 238 687T243 691Q248 695
253 697T262 706Q278 715 285 718T298 726Q340 742 380 753Q387 758 395 759T414 761Q419 762 424 764T433 762Q442 766 451 764T470 759Q476 758 481 758T492 756Q498 754 502 751T512 744Q520 740 530 738T550 731Q560 727 568 723T585 715Q599 700 617 689T650
659Q653 655 655 651T660 641Q668 630 675 620T687 595Q689 590 690 587T686 579ZM417 710Q400 705 383 699T348 685Q341 681 334 679T321 673Q312 671 306 667Q303 665 299 662T293 657Q286 649 284 649T280 647Q269 640 259 630T238 608Q233 603 228 599T217
589Q212 584 207 579T198 568Q193 563 190 556T183 544Q174 522 168 509T156 482Q148 461 143 440T135 399Q132 380 129 362T127 327Q127 321 127 316T128 308Q130 303 133 300T140 292Q150 282 160 273T179 255Q193 243 203 229T230 206Q235 199 242 196T258 190Q262
189 265 189T273 188Q290 186 307 184T344 181Q372 181 402 184Q408 185 413 185T423 186Q428 188 433 194Q441 199 449 204T465 213Q473 216 482 221Q497 234 503 239T515 252Q528 264 534 271T548 288Q554 295 559 302T570 316Q578 329 584 340T596 364Q601 374
603 384T608 407Q611 421 614 434T620 460Q621 465 622 470T623 480Q624 485 624 490T624 500Q625 509 625 518T625 537Q624 550 623 562T617 586Q613 596 608 605T597 624Q589 635 577 644T554 662Q530 679 504 694T440 714Q435 709 429 710T417 710ZM444 554Q446
529 438 507T425 459Q431 461 435 466T444 477Q449 485 455 494T467 512Q469 516 472 520T477 529Q480 535 482 540T486 550Q478 565 475 570T468 583Q447 583 430 578T397 562T368 541T341 517Q333 505 324 493T306 467Q301 459 295 443Q293 437 291 431T287 418Q285
413 285 408T286 397Q285 392 285 387T285 377Q284 364 284 354T287 336Q292 333 292 326Q302 314 314 309Q328 306 332 304T341 303Q358 307 368 308T387 312Q392 314 397 320T408 332Q413 337 418 341T428 351Q430 355 432 356T437 362Q448 375 454 382T465 397Q469
394 475 391T481 380Q480 362 475 352T465 333Q461 325 459 322Q456 317 453 313T445 304Q441 299 439 295T433 287Q429 284 426 281T420 273Q412 268 404 263T386 253Q375 254 366 249T346 241Q341 240 335 240T323 240Q311 243 308 243T302 242Q295 244 287 248T273
254Q269 256 268 259T263 265Q255 269 249 276T238 292Q227 308 224 337Q222 354 223 370T227 408Q234 441 247 470T278 525Q288 538 298 549T323 569Q328 573 333 576T343 583Q357 593 372 603T403 623Q411 627 418 629T433 636Q436 636 439 637T445 639Q458 642
464 644Q475 647 481 646T493 642Q498 639 501 634T509 623Q511 619 513 617T515 610Q519 602 521 592T525 571Q527 566 530 557T527 543Q520 523 511 510T493 479Q486 474 481 463Q473 455 464 447T444 431Q439 426 433 424T418 424Q414 426 405 432T393 442Q390
449 391 456T392 472Q395 477 396 481T403 488Q405 493 407 497T412 506Q421 518 428 530T444 554Z" />
<glyph unicode="&#xaa;" glyph-name="ordfeminine" horiz-adv-x="341" d="M439 684Q450 681 450 683T453 688Q462 683 464 683T467 680Q469 678 469 671T467 657Q466 654 463 650T456 640Q453 635 451 630T445 621Q436 609 434 604T427 593Q417 573 409 552T392
509Q387 494 382 481T371 454Q369 446 367 438T360 425Q358 411 359 401T358 377Q349 373 347 374T343 377Q336 367 327 368Q316 370 314 384T310 412Q284 394 256 377Q248 372 239 367T216 360Q211 360 206 360T197 359Q182 360 173 366T156 381Q133 387 124 404Q115
409 112 417T102 432Q101 459 111 469Q111 491 120 506T138 537Q142 542 145 546T151 556Q159 577 171 588T197 611Q204 617 207 621T213 627Q226 637 230 640T241 647Q246 650 250 654T259 660Q270 669 279 668Q289 672 301 678T326 689Q332 691 339 694T353 693Q358
691 360 686T368 677Q373 676 373 673T376 668Q375 661 379 654Q390 654 400 654T418 658Q420 660 422 663T426 669Q430 674 433 676T439 684ZM333 646Q329 644 325 642T317 637Q298 627 274 610Q257 598 241 584T211 552Q207 546 205 544T202 539Q199 532 197
525T189 511Q187 505 183 498T179 483Q177 480 176 476T173 467Q176 455 181 445T193 423Q198 422 202 418T213 412Q219 411 224 414T236 419Q254 429 272 437T307 457Q310 477 317 494T334 529T352 564T367 599Q366 603 363 606T356 613Q351 621 350 623T346 628Q342
633 340 638T341 651L333 646ZM324 293Q323 289 324 287T323 280Q317 279 317 275T313 269Q305 271 304 271T300 268Q289 269 275 268T249 265Q208 259 166 259T88 256Q86 256 83 255T76 253Q70 251 68 251T61 257Q53 257 47 258T41 269Q46 280 52 289T63 309Q77
309 89 311T115 315Q129 317 144 317T175 316Q186 316 198 317T223 316Q227 318 233 317T242 312Q253 311 264 309T288 305Q298 303 308 302T324 293Z" />
<glyph unicode="&#xab;" glyph-name="guillemotleft" horiz-adv-x="434" d="M153 173Q160 181 160 184T165 188Q172 195 172 196T174 196Q180 203 188 208T202 221Q211 226 218 233T238 243Q240 245 241 247T245 252Q258 262 268 272T292 292Q297 296 301 299T311
305Q330 323 342 331T365 349Q368 351 371 352T376 356Q387 361 397 366T421 374Q437 370 438 365T443 356Q445 349 440 344T428 335Q418 326 408 318T388 305Q375 297 366 291T346 279Q342 275 339 272T332 265Q327 258 319 253T302 242Q283 226 262 214Q257 211
254 210T249 205Q244 204 240 202T231 197Q226 190 220 187T209 177Q208 173 208 171T206 165Q216 148 225 138T243 117Q258 102 264 92T283 75Q288 70 289 65Q302 54 304 46Q299 26 300 13T296 -13Q278 -16 276 -14T271 -10Q263 -5 260 -3T254 2Q250 6 248 10T241
19Q235 25 229 30T218 43Q213 52 208 61T197 78Q189 84 186 90Q184 94 183 97T179 104Q178 107 178 109T179 115Q178 118 174 120T166 124Q160 135 159 135T159 137Q154 140 150 150Q148 153 146 157T143 164Q143 166 145 169T153 173ZM-6 173Q1 181 1 184T6 188Q13
195 13 196T15 196Q22 203 29 208T43 221Q52 226 59 233T79 243Q81 245 82 247T86 252Q99 262 110 272T133 292Q138 296 143 299T153 305Q172 323 184 331T206 349Q209 351 212 352T217 356Q228 361 238 366T262 374Q278 370 280 365T285 356Q287 349 282 344T269
335Q259 326 249 318T229 305Q216 297 207 291T187 279Q183 275 180 272T173 265Q168 258 160 253T143 242Q133 234 124 227T103 214Q98 211 95 210T90 205Q85 204 82 202T73 197Q68 190 62 187T50 177Q49 173 49 171T47 165Q57 148 66 138T84 117Q99 102 105 92T124
75Q129 70 130 65Q143 54 145 46Q140 26 141 13T137 -13Q120 -16 118 -14T113 -10Q104 -5 101 -3T95 2Q91 6 89 10T82 19Q77 25 71 30T59 43Q54 52 49 61T38 78Q32 83 28 90Q26 94 24 97T20 104Q19 107 19 109T20 115Q19 118 15 120T7 124Q1 135 0 135T0 137Q-6
141 -6 143T-9 150Q-11 153 -13 157T-15 164Q-15 171 -6 173Z" />
<glyph unicode="&#xac;" glyph-name="logicalnot" horiz-adv-x="616" d="M542 227Q539 225 537 223T531 219Q523 214 519 214T512 213Q503 212 496 214Q488 216 485 222T484 239Q486 248 492 260T504 285Q507 292 510 299T516 313Q510 311 505 312T493 314Q485
314 477 313T461 312Q458 312 455 312T449 313Q437 314 426 314T402 315Q399 315 397 315T391 315Q377 316 364 316T336 316Q329 316 322 314T309 315Q301 313 295 313T283 314Q269 313 257 314T233 314Q228 314 224 313T216 314Q202 311 187 311T158 308Q150 307
144 307T131 305Q124 304 119 304T105 305Q90 303 83 304Q78 305 73 306T65 311T62 319T65 332Q70 346 79 353T99 373Q106 377 113 377T128 379Q136 379 144 379T161 378Q172 378 183 378T205 376H223Q226 376 229 377T237 379Q248 378 250 378T254 379Q276 375
288 375T310 370Q321 373 329 372T346 367Q360 373 372 373T398 374Q432 376 465 376T532 377Q544 376 555 376T577 375Q583 375 589 375T602 374Q615 373 615 370T616 361Q612 345 607 333T593 302Q591 296 588 290T581 278Q579 274 577 271T572 266Q569 252 565
244T556 230Q547 226 546 226T542 227Z" />
<glyph unicode="&#xad;" glyph-name="sfthyphen" horiz-adv-x="409" d="M398 336Q396 332 397 330T396 323Q394 319 391 316T385 308Q380 300 378 294T369 283Q358 281 347 279T325 275Q316 275 303 274T280 275Q270 276 267 276T261 276Q247 276 230 273T197
269Q186 270 176 271T151 270Q140 268 137 268T131 268Q126 267 122 267T113 265Q108 263 102 261T89 260Q86 260 84 262T77 266Q72 268 68 269T61 275Q63 282 64 291T73 310Q75 312 78 315T84 322Q88 327 89 329T96 336Q101 338 105 338T115 342Q123 340 131 341T144
338Q159 338 172 336T202 334Q212 334 221 335T243 338H278Q286 338 294 339T312 340Q321 341 329 340T345 338Q353 339 363 340T383 342Q388 340 392 340T398 336Z" />
</font>
</defs>
</svg>
