<?xml version="1.0" standalone="no"?>
<!DOCTYPE svg PUBLIC "-//W3C//DTD SVG 1.1//EN" "http://www.w3.org/Graphics/SVG/1.1/DTD/svg11.dtd">
<svg xmlns="http://www.w3.org/2000/svg">
<defs >
<font id="Katibeh" horiz-adv-x="553" ><font-face
    font-family="Katibeh"
    units-per-em="1000"
    panose-1="0 0 5 0 0 0 0 0 0 0"
    ascent="490"
    descent="-510"
    alphabetic="0" />
<glyph unicode=" " glyph-name="space" horiz-adv-x="168" />
<glyph unicode="!" glyph-name="exclam" horiz-adv-x="169" d="M102 495T118 490T142 477Q142 441 125 321T93 138H76Q62 201 44 321T26 477Q34 485 50 490T84 495Q102 495 118 490ZM33 62T51 81T84 101Q100 101 119 82T138 46Q138 29 119 10T84 -9Q69 -9 51 10T33
46Q33 62 51 81Z" />
<glyph unicode="&quot;" glyph-name="quotedbl" horiz-adv-x="257" d="M94 522T109 503Q109 476 97 420T71 336H55Q41 362 29 418T17 503Q33 522 64 522Q94 522 109 503ZM225 522T240 503Q240 475 228 419T202 336H185Q172 363 160 419T148 503Q164 522 194 522Q225
522 240 503Z" />
<glyph unicode="#" glyph-name="numbersign" horiz-adv-x="452" d="M146 319L187 467H233L192 319H308L349 467H396L355 319H420L408 276H343L319 189H384L371 146H306L266 0H220L260 146H144L103 0H57L98 146H33L44 189H109L133 276H69L81 319H146ZM272 189L296
276H180L156 189H272Z" />
<glyph unicode="$" glyph-name="dollar" horiz-adv-x="389" d="M362 77T321 43T208 2V-84Q201 -99 180 -99V1Q109 1 66 28T22 101Q22 131 42 148T94 166Q118 166 140 154Q109 138 109 91Q109 63 129 44T185 24Q220 24 241 44T262 94Q262 125 237 145T161 192Q119
213 93 230T48 274T29 338Q29 390 70 425T180 465V552Q188 567 208 567V466Q274 465 314 440T355 373Q355 346 337 331T288 315Q266 315 242 326Q255 336 262 351T269 382Q269 407 252 424T202 442Q166 442 147 424T127 380Q127 353 142 333T178 300T238 267Q278
247 303 231T345 191T362 134Q362 77 321 43Z" />
<glyph unicode="%" glyph-name="percent" horiz-adv-x="726" d="M23 393T59 434T154 475Q210 475 242 438T275 336Q275 267 239 224T144 181Q88 181 56 221T23 328Q23 393 59 434ZM101 270T113 237T148 204Q171 204 183 236T196 327Q196 386 183 419T148 453Q126
453 114 419T101 327Q101 270 113 237ZM443 486H477L282 -20H249L443 486ZM450 203T486 244T581 285Q637 285 669 248T702 146Q702 77 666 34T571 -9Q515 -9 483 31T450 138Q450 203 486 244ZM528 80T540 47T575 14Q598 14 610 46T623 137Q623 196 610 229T575
263Q553 263 541 229T528 137Q528 80 540 47Z" />
<glyph unicode="&amp;" glyph-name="ampersand" horiz-adv-x="442" d="M442 176T328 170Q342 157 350 140T359 103Q359 76 343 50T290 8T197 -9Q114 -9 65 26T16 125Q16 170 47 203T138 251Q93 262 68 289T42 359Q42 389 62 416T121 459T214 476Q274 476 306 450T339
387Q339 348 307 329T219 308Q254 335 254 385Q254 414 240 434T205 455Q176 455 160 428T143 363Q143 315 166 290T228 265V250Q172 236 146 202T120 124Q120 79 143 46T209 12Q248 12 274 39T301 115Q301 149 287 168Q232 168 209 157T176 128L169 131Q169 173
183 190T227 207Q237 207 259 205Q278 202 303 202Q379 202 379 257Q379 272 369 291T348 320Q387 319 414 301T442 248Q442 176 328 170Z" />
<glyph unicode="&apos;" glyph-name="quotesingle" horiz-adv-x="126" d="M94 522T109 503Q109 476 97 420T71 336H55Q41 362 29 418T17 503Q33 522 64 522Q94 522 109 503Z" />
<glyph unicode="(" glyph-name="parenleft" horiz-adv-x="238" d="M129 123T153 53T221 -52L209 -68Q24 9 24 215Q24 423 209 498L221 483Q177 448 153 378T129 215Q129 123 153 53Z" />
<glyph unicode=")" glyph-name="parenright" horiz-adv-x="238" d="M109 307T85 377T17 483L29 498Q214 423 214 215Q214 9 29 -68L17 -52Q61 -17 85 53T109 215Q109 307 85 377Z" />
<glyph unicode="*" glyph-name="asterisk" horiz-adv-x="373" d="M326 400T326 396T326 385L201 388L304 317Q274 272 219 255L183 373L148 255Q95 270 63 317L165 388L40 385Q40 397 41 403Q42 447 72 485L173 407L131 527Q158 537 183 537Q208 537 235 527L192
406L294 485Q323 448 326 403Q326 400 326 396Z" />
<glyph unicode="+" glyph-name="plus" horiz-adv-x="404" d="M177 257V370H226V257H339V207H226V95H177V207H64V257H177Z" />
<glyph unicode="," glyph-name="comma" horiz-adv-x="144" d="M45 102T74 102Q98 102 112 90T127 50Q127 26 113 3T68 -57L37 -91L10 -73L39 -8Q48 10 48 26Q48 46 31 60L19 68L16 87L24 91Q45 102 74 102Z" />
<glyph unicode="-" glyph-name="hyphen" horiz-adv-x="231" d="M21 177T25 190T38 209L209 216Q209 183 192 170L21 164Q21 177 25 190Z" />
<glyph unicode="." glyph-name="period" horiz-adv-x="154" d="M22 65T41 85T76 106Q92 106 111 86T131 48Q131 31 112 11T76 -9Q60 -9 41 11T22 48Q22 65 41 85Z" />
<glyph unicode="/" glyph-name="slash" horiz-adv-x="241" d="M201 508H235L40 -41H7L201 508Z" />
<glyph unicode="0" glyph-name="zero" horiz-adv-x="459" d="M32 303T57 358T130 444T238 476Q325 476 375 413T426 247Q426 174 401 116T329 24T221 -9Q132 -9 82 59T32 234Q32 303 57 358ZM133 132T158 73T229 13Q274 13 299 73T325 233Q325 332 300 393T229
454Q183 454 158 394T133 233Q133 132 158 73Z" />
<glyph unicode="1" glyph-name="one" horiz-adv-x="314" d="M271 10L262 0H72L66 18L95 25Q121 31 129 42T137 83V397L43 337Q35 342 26 358T9 393L224 477L241 463L233 451V131Q233 91 239 68T262 22L271 10Z" />
<glyph unicode="2" glyph-name="two" horiz-adv-x="396" d="M123 342T132 318T155 280Q100 281 67 304T33 365Q33 414 78 445T194 476Q273 476 318 444T364 354Q364 295 304 228T113 74H376Q376 51 370 30T354 0H36L17 33Q111 113 162 167T236 265T258 355Q258
398 240 426T194 455Q165 455 144 428T123 363Q123 342 132 318Z" />
<glyph unicode="3" glyph-name="three" horiz-adv-x="396" d="M121 62T141 41T189 19Q224 19 246 45T268 114Q268 166 240 196T162 226Q140 226 113 220L110 239Q187 258 221 286T255 369Q255 406 239 429T193 453Q168 453 151 431T133 374Q133 330 151 299Q98
299 71 321T43 378Q43 422 84 449T191 476Q263 476 310 444T357 363Q357 280 230 244Q296 233 333 200T371 120Q371 59 324 25T192 -9Q121 -9 76 19T30 93Q30 131 61 154T153 178Q138 162 130 143T121 95Q121 62 141 41Z" />
<glyph unicode="4" glyph-name="four" horiz-adv-x="404" d="M391 133Q391 123 388 117T377 105H331Q331 80 337 63T360 22L369 10L360 0H170L163 18L193 25Q219 31 227 42T235 83V105H23L12 123L175 467H266L278 457L77 133H235V224Q235 245 232 257T221 283L228
293L331 311V133H391Z" />
<glyph unicode="5" glyph-name="five" horiz-adv-x="396" d="M265 270T316 231T367 125Q367 64 320 28T192 -9Q121 -9 76 19T30 93Q30 129 64 152T153 178L155 170Q139 160 130 140T121 95Q121 63 142 41T191 19Q224 19 244 48T264 125Q264 180 230 210T134 241Q108
241 73 233L61 256L73 467H343Q343 443 337 423T319 393H98L91 261Q136 270 179 270Q265 270 316 231Z" />
<glyph unicode="6" glyph-name="six" horiz-adv-x="429" d="M289 412T273 432T232 452Q203 452 181 422T146 337T133 212Q133 189 137 174H141Q151 219 179 240T257 262Q317 262 352 230T388 142Q388 73 343 32T223 -9Q166 -9 123 18T55 96T31 213Q31 292 57 351T131
443T243 476Q303 476 341 451T380 388Q380 354 353 333T268 312Q278 327 283 346T289 380Q289 412 273 432ZM195 231T177 202T158 127Q158 76 173 48T217 19Q248 19 265 49T283 132Q283 178 267 204T224 231Q195 231 177 202Z" />
<glyph unicode="7" glyph-name="seven" horiz-adv-x="331" d="M98 54T84 42T45 22L31 18L37 0H203L211 10L204 22Q195 42 195 61Q195 85 209 123L328 450L316 467H10Q10 444 16 424T32 393H267L112 83Q98 54 84 42Z" />
<glyph unicode="8" glyph-name="eight" horiz-adv-x="409" d="M322 228T351 199T380 123Q380 62 329 26T193 -10Q119 -10 76 19T33 99Q33 139 59 170T130 217Q88 242 64 272T40 346Q40 405 89 441T217 477Q288 477 329 447T370 367Q370 329 343 300T268 257Q322
228 351 199ZM180 453T159 435T138 389Q138 350 164 325T241 272Q282 313 282 374Q282 409 262 431T210 453Q180 453 159 435ZM235 13T257 32T280 84Q280 110 264 129T228 161T159 200Q141 179 131 153T120 98Q120 60 142 37T199 13Q235 13 257 32Z" />
<glyph unicode="9" glyph-name="nine" horiz-adv-x="429" d="M141 47T155 31T193 15Q238 15 262 63T286 197L284 253L280 254Q264 223 234 206T165 189Q111 189 77 226T43 320Q43 364 65 400T126 456T213 476Q294 476 341 411T388 233Q388 120 333 56T182 -9Q126
-9 90 15T53 77Q53 108 81 126T161 145Q141 120 141 74Q141 47 155 31ZM239 228T257 258T276 336Q276 384 259 415T215 447Q186 447 168 416T149 337Q149 289 166 259T210 228Q239 228 257 258Z" />
<glyph unicode=":" glyph-name="colon" horiz-adv-x="154" d="M22 65T41 85T76 106Q92 106 111 86T131 48Q131 31 112 11T76 -9Q60 -9 41 11T22 48Q22 65 41 85ZM22 279T41 299T76 320Q92 320 111 300T131 262Q131 245 112 225T76 205Q60 205 41 225T22 262Q22
279 41 299Z" />
<glyph unicode=";" glyph-name="semicolon" horiz-adv-x="154" d="M46 102T75 102Q99 102 113 90T128 50Q128 26 114 3T69 -57L38 -91L11 -73L40 -8Q49 10 49 26Q49 46 32 60L20 68L17 87L25 91Q46 102 75 102ZM22 279T41 299T76 320Q92 320 111 300T131 262Q131
245 112 225T76 205Q60 205 41 225T22 262Q22 279 41 299Z" />
<glyph unicode="&lt;" glyph-name="less" horiz-adv-x="404" d="M339 368V319L120 232L339 146V96L64 207V257L339 368Z" />
<glyph unicode="=" glyph-name="equal" horiz-adv-x="405" d="M340 327V278H65V327H340ZM340 187V137H65V187H340Z" />
<glyph unicode="&gt;" glyph-name="greater" horiz-adv-x="405" d="M65 96V146L285 232L65 319V368L340 257V207L65 96Z" />
<glyph unicode="?" glyph-name="question" horiz-adv-x="330" d="M225 493T268 462T312 380Q312 340 290 310T224 237Q192 208 175 189T152 146L149 134H136L106 165Q161 221 187 272T213 375Q213 421 198 447T156 473Q134 473 120 454T106 402Q106 378 114 359T139
328L137 321Q82 323 49 346T15 404Q15 443 54 468T155 493Q225 493 268 462ZM91 62T109 81T142 101Q158 101 176 82T195 46Q195 29 177 10T142 -9Q127 -9 109 10T91 46Q91 62 109 81Z" />
<glyph unicode="@" glyph-name="at" horiz-adv-x="628" d="M599 154T577 111T516 42T432 16Q346 16 346 136Q327 96 304 78T250 59Q214 59 193 88T172 166Q172 242 213 287T323 332Q348 332 400 324L444 319L449 311L444 302Q436 293 435 275Q422 113 422 93Q422
67 428 52T447 37Q473 37 489 84T505 207Q505 302 456 359T326 417Q269 417 223 384T150 292T123 161Q123 64 174 9T314 -46Q382 -46 445 -16L452 -32Q413 -53 377 -62T300 -72Q222 -72 160 -42T64 41T29 163Q29 238 69 301T179 402T329 439Q407 439 468 409T564
326T599 205Q599 154 577 111ZM292 308T277 275T261 183Q261 149 270 128T296 106Q321 106 337 161T356 300Q341 308 320 308Q292 308 277 275Z" />
<glyph unicode="A" glyph-name="A" horiz-adv-x="468" d="M419 62T431 46T468 10L459 0H278L272 18L287 22Q302 27 308 34T315 55Q315 63 304 96L284 155H129L121 130Q106 85 106 62Q106 40 114 22L121 10L112 0H2L-5 18L10 22Q34 29 46 41T69 86L171 380Q178
405 178 415Q178 437 146 446L135 449L142 467H278L409 90Q419 62 431 46ZM274 183L206 386L139 183H274Z" />
<glyph unicode="B" glyph-name="B" horiz-adv-x="449" d="M364 234T393 202T423 127Q423 69 374 35T242 0H33L26 18Q51 25 62 31T77 49T81 83V354Q81 389 76 405T50 433L38 440L42 453Q74 463 124 469T216 476Q304 476 353 443T403 351Q403 314 380 287T315 245Q364
234 393 202ZM277 22T300 51T324 125Q324 171 293 200T205 239V251Q251 251 277 278T304 351Q304 397 282 424T223 452Q201 452 189 438T177 397V111Q177 70 194 46T241 22Q277 22 300 51Z" />
<glyph unicode="C" glyph-name="C" horiz-adv-x="415" d="M134 -9T78 59T21 233Q21 339 78 407T243 476Q312 476 355 450T399 380Q399 338 364 314T276 290Q306 322 306 377Q306 409 287 430T236 452Q179 452 153 387T126 233Q126 176 142 129T190 55T263 27Q310
27 341 46T399 101L411 92Q384 47 342 19T241 -9Q134 -9 78 59Z" />
<glyph unicode="D" glyph-name="D" horiz-adv-x="495" d="M26 18Q51 25 62 31T77 49T81 83V354Q81 389 76 405T50 433L38 440L42 453Q75 463 124 469T214 476Q341 476 407 414T474 233Q474 126 413 63T245 0H33L26 18ZM371 20T371 233Q371 331 333 390T231 450Q205
450 191 442T177 419V113Q177 66 191 43T236 20Q371 20 371 233Z" />
<glyph unicode="E" glyph-name="E" horiz-adv-x="413" d="M80 376T74 399T51 445L43 456L51 467H272Q327 467 346 480L358 489L368 480V355L348 348Q330 402 313 422T263 442H218Q192 442 184 433T176 392V250H248Q278 250 292 256T314 280L319 294L332 286V174L310
166L306 188Q302 209 284 217T226 225H176V74Q176 44 185 35T225 25H274Q304 25 321 46T355 119L376 112V-8L365 -17Q351 -7 333 -4T283 0H32L25 18Q50 25 61 31T76 49T80 83V336Q80 376 74 399Z" />
<glyph unicode="F" glyph-name="F" horiz-adv-x="371" d="M20 18Q45 25 56 31T71 49T75 83V336Q75 376 69 399T46 445L38 456L46 467H256Q311 467 330 480L342 489L352 480V355L332 348Q314 402 297 422T246 442H213Q187 442 179 433T171 392V242H242Q281 242
293 272L298 286L311 279V167L289 159L285 180Q281 202 267 209T214 217H171V131Q171 92 177 69T201 22L209 10L201 0H27L20 18Z" />
<glyph unicode="G" glyph-name="G" horiz-adv-x="463" d="M441 200L433 189Q419 171 415 150T410 86V0L400 -4L348 23Q299 -9 238 -9Q138 -9 80 56T21 231Q21 344 84 410T256 476Q325 476 368 450T412 380Q412 338 377 314T289 290Q303 307 311 326T319 377Q319
411 299 431T249 452Q193 452 160 392T126 231Q126 172 143 126T192 53T263 27Q293 27 321 38V128Q321 151 317 161T302 178T266 192L272 211H433L441 200Z" />
<glyph unicode="H" glyph-name="H" horiz-adv-x="530" d="M450 91T453 73T465 42T493 12L485 0H309L303 18Q326 24 336 30T350 48T354 83V223H177V126Q177 91 180 73T191 42T219 12L212 0H36L30 18Q63 27 72 38T81 83V343Q81 391 74 410T37 454L45 467H215L222
451Q193 434 185 420T177 368V251H354V343Q354 391 347 410T310 454L318 467H488L496 451Q467 434 459 420T450 368V126Q450 91 453 73Z" />
<glyph unicode="I" glyph-name="I" horiz-adv-x="252" d="M27 18Q50 24 60 30T74 48T78 83V343Q78 391 71 410T34 454L43 467H212L219 451Q190 434 182 420T174 368V122Q174 75 181 56T217 12L209 0H34L27 18Z" />
<glyph unicode="J" glyph-name="J" horiz-adv-x="332" d="M62 -9T32 13T1 70Q1 108 32 132T111 161L114 154Q101 143 93 122T85 75Q85 50 95 34T125 17Q149 17 161 42T173 112V374Q173 401 169 414T153 434T117 449L124 467H298L306 456L298 445Q282 423 276 399T269
336V173Q269 -9 112 -9Q62 -9 32 13Z" />
<glyph unicode="K" glyph-name="K" horiz-adv-x="454" d="M469 34Q447 11 424 1T373 -9Q334 -9 313 10T273 80L235 178Q223 205 212 217T176 230V122Q176 76 183 57T219 12L212 0H32L25 18Q50 25 61 31T76 49T80 83V343Q80 391 73 410T37 454L45 467H219L226 451Q194
434 185 419T176 368V244H179L298 379Q307 390 310 398T315 418Q315 425 307 445L301 456L314 467H432L438 449L415 442Q387 430 362 402L222 242Q274 238 304 221T348 169L394 53Q399 40 406 35T424 29Q440 29 461 45L469 34Z" />
<glyph unicode="L" glyph-name="L" horiz-adv-x="376" d="M78 374T75 392T63 424T34 454L43 467H217L224 451Q201 438 191 428T178 403T174 356V77Q174 45 183 35T223 25H261Q290 25 307 44T342 119L362 112V-8L352 -17Q339 -7 323 -4T275 0H29L23 18Q48 25 59
31T74 49T78 83V338Q78 374 75 392Z" />
<glyph unicode="M" glyph-name="M" horiz-adv-x="600" d="M537 86T547 59T579 10L571 0H397L390 18Q423 27 432 36T442 69Q442 82 426 312L420 399L285 15H257L123 396L109 168Q105 120 105 101Q105 75 111 56T136 10L127 0H16L10 18Q36 26 47 32T63 49T70 83L82
275Q87 342 87 363Q87 397 80 413T46 454L53 467H199L302 156L411 467H540L550 456Q531 428 525 410T518 363Q518 344 522 304L535 126Q537 86 547 59Z" />
<glyph unicode="N" glyph-name="N" horiz-adv-x="490" d="M433 422T427 398T420 336V57Q420 36 429 22L438 10L429 0H325L103 383V131Q103 91 109 68T132 22L141 10L132 0H22L15 18Q41 25 51 31T66 48T70 83V347Q70 391 62 411T27 454L35 467H165L388 81V384Q388
414 376 426T324 449L330 467H449L458 456L449 445Q433 422 427 398Z" />
<glyph unicode="O" glyph-name="O" horiz-adv-x="494" d="M143 -9T82 56T21 233Q21 345 82 410T247 476Q351 476 412 411T474 233Q474 122 413 57T247 -9Q143 -9 82 56ZM281 14T309 41T354 118T370 231Q370 295 355 346T312 425T249 454Q212 454 183 426T138 346T122
228Q122 131 155 73T244 14Q281 14 309 41Z" />
<glyph unicode="P" glyph-name="P" horiz-adv-x="422" d="M412 278T392 246T338 196T267 179Q228 179 193 199L195 208L212 207L229 208Q268 214 290 243T312 322Q312 377 288 414T220 452Q197 452 187 439T176 410V131Q176 91 182 68T206 22L214 10L206 0H32L25
18Q51 25 61 31T76 48T80 83V349Q80 384 75 402T49 433L37 440L41 453Q70 462 116 469T205 476Q307 476 359 434T412 321Q412 278 392 246Z" />
<glyph unicode="Q" glyph-name="Q" horiz-adv-x="494" d="M417 -132T432 -123T462 -96L474 -105Q454 -136 431 -151T373 -166Q334 -166 309 -150T265 -103T218 -8Q126 1 74 65T21 233Q21 345 82 410T247 476Q351 476 412 411T474 233Q474 137 427 74T298 -4Q308
-26 312 -37Q334 -87 350 -109T397 -132Q417 -132 432 -123ZM122 131T155 73T244 14Q281 14 309 41T354 118T370 231Q370 295 355 346T312 425T249 454Q212 454 183 426T138 346T122 228Q122 131 155 73Z" />
<glyph unicode="R" glyph-name="R" horiz-adv-x="450" d="M464 34Q428 -9 370 -9Q334 -9 314 7T278 64L249 152Q239 179 231 191T206 211L189 220L191 230Q199 229 212 229Q224 229 229 230Q266 236 287 264T308 336Q308 389 283 420T217 452Q172 452 172 410V131Q172
92 178 69T202 22L210 10L202 0H28L21 18Q46 25 57 31T72 49T76 83V349Q76 384 71 402T45 433L33 440L37 453Q68 463 116 469T203 476Q298 476 353 438T408 334Q408 288 379 253T303 205Q339 189 353 151L388 53Q396 29 419 29Q437 29 456 45L464 34Z" />
<glyph unicode="S" glyph-name="S" horiz-adv-x="388" d="M127 350T155 325T239 267Q280 244 304 227T345 184T362 124Q362 62 313 27T180 -9Q109 -9 66 18T22 91Q22 121 42 138T94 156Q118 156 140 144Q109 128 109 81Q109 53 129 34T185 14Q221 14 241 34T262
84Q262 119 237 141T159 194Q118 216 92 235T47 282T29 348Q29 405 77 440T204 476Q271 476 313 451T355 383Q355 356 337 341T288 325Q266 325 242 336Q255 346 262 361T269 392Q269 417 251 434T198 452Q164 452 146 434T127 390Q127 350 155 325Z" />
<glyph unicode="T" glyph-name="T" horiz-adv-x="402" d="M248 60T252 49T268 31T304 18L297 0H123L115 10L123 22Q140 45 146 68T152 131V400Q152 425 148 433T130 442H119Q85 442 68 422T33 348L13 355V480L23 489L35 480Q54 467 109 467H292Q347 467 366 480L378
489L389 480V355L368 348Q349 403 333 422T283 442H270Q257 442 253 434T248 400V83Q248 60 252 49Z" />
<glyph unicode="U" glyph-name="U" horiz-adv-x="481" d="M418 80T374 36T245 -9Q162 -9 115 37T68 166V345Q68 391 60 411T25 454L32 467H207L214 451Q191 439 181 430T168 405T164 360V157Q164 90 190 56T266 21Q323 21 354 56T385 157V384Q385 415 374 426T324
449L331 467H447L456 456L447 445Q430 422 424 399T418 336V166Q418 80 374 36Z" />
<glyph unicode="V" glyph-name="V" horiz-adv-x="452" d="M450 456Q425 436 413 420T392 377L266 0H179L51 377Q41 405 30 421T-7 456L1 467H183L189 449L175 445Q159 441 153 434T147 412Q147 402 154 380L254 79L354 378Q361 400 361 411Q361 423 355 430T333
442L315 449L322 467H442L450 456Z" />
<glyph unicode="W" glyph-name="W" horiz-adv-x="701" d="M706 456Q681 437 669 421T647 377L521 0H435L350 281L266 0H179L51 377Q41 405 30 420T-7 456L1 467H183L189 449L175 445Q160 440 154 433T147 412Q147 402 154 380L254 82L331 342L320 377Q310 405
299 420T262 456L270 467H452L459 449L444 445Q428 441 422 434T416 412Q416 402 423 380L511 81L610 378Q617 400 617 411Q617 423 611 430T589 442L571 449L577 467H698L706 456Z" />
<glyph unicode="X" glyph-name="X" horiz-adv-x="447" d="M416 34T446 10L438 0H240L235 18L250 22Q278 30 278 47Q278 64 259 92L198 185L132 88Q124 76 121 69T118 51Q118 40 127 22L132 10L120 0H13L7 18L22 22Q37 26 47 34T68 57L178 215L65 387Q35 431 4
456L12 467H210L215 449L200 445Q172 438 172 420Q172 404 191 374L247 288L309 379Q317 391 320 398T323 415Q323 426 315 445L309 456L321 467H428L434 449L419 445Q404 441 394 433T373 410L267 258L387 75Q416 34 446 10Z" />
<glyph unicode="Y" glyph-name="Y" horiz-adv-x="405" d="M395 456L385 445Q358 412 339 376L248 202V83Q248 60 252 49T268 31T303 18L297 0H122L114 10L122 22Q139 44 145 67T152 131V200L57 374Q41 406 27 423T-8 456L1 467H184L189 449L174 445Q145 439 145
422Q145 416 150 405T165 375L233 247L305 384Q313 397 313 410Q313 423 305 432T285 445L266 449L272 467H387L395 456Z" />
<glyph unicode="Z" glyph-name="Z" horiz-adv-x="388" d="M9 0L259 442H138Q106 442 88 422T52 348L33 355V480L43 489L55 480Q72 467 129 467H380L131 25H265Q294 25 311 46T347 119L367 112V-8L357 -17Q343 -7 325 -4T274 0H9Z" />
<glyph unicode="[" glyph-name="bracketleft" horiz-adv-x="261" d="M256 503V476L204 469Q183 465 176 458T168 434V-4Q168 -20 175 -27T204 -38L256 -46V-73H68V503H256Z" />
<glyph unicode="\" glyph-name="backslash" horiz-adv-x="241" d="M7 508H40L235 -41H202L7 508Z" />
<glyph unicode="]" glyph-name="bracketright" horiz-adv-x="261" d="M193 -73H5V-46L57 -38Q78 -35 85 -28T93 -4V434Q93 451 86 458T57 469L5 476V503H193V-73Z" />
<glyph unicode="^" glyph-name="asciicircum" horiz-adv-x="404" d="M341 259H288L201 424L115 259H62L174 467H229L341 259Z" />
<glyph unicode="_" glyph-name="underscore" horiz-adv-x="231" d="M-17 -42T-13 -29T0 -9H248Q248 -42 231 -55H-17Q-17 -42 -13 -29Z" />
<glyph unicode="`" glyph-name="grave" horiz-adv-x="187" d="M154 369L72 399Q28 414 28 449Q28 479 65 494L167 385L154 369Z" />
<glyph unicode="a" glyph-name="a" horiz-adv-x="365" d="M118 209T89 209Q68 209 56 221T44 257Q44 291 77 311T165 332Q229 332 265 304T302 228V55Q302 27 322 27Q341 27 359 42L367 32Q330 -9 279 -9Q249 -9 234 6T215 53H211Q195 24 169 8T108 -9Q70 -9 47
14T24 76Q24 119 65 144T176 169Q189 169 213 167V217Q213 266 201 287T162 309Q143 309 132 297T121 266Q121 236 139 221Q118 209 89 209ZM213 41T213 148Q163 148 138 132T113 85Q113 65 124 53T154 41Q213 41 213 148Z" />
<glyph unicode="b" glyph-name="b" horiz-adv-x="395" d="M269 332T301 312T352 255T371 174Q371 122 347 81T279 15T183 -9Q147 -9 111 2T52 32V427Q52 435 49 438T39 441H8L5 451Q24 469 54 479T115 490Q128 490 135 485T143 469V301Q158 316 180 324T229 332Q269
332 301 312ZM271 14T271 157Q271 228 251 265T190 303Q165 303 143 288V24Q165 14 188 14Q271 14 271 157Z" />
<glyph unicode="c" glyph-name="c" horiz-adv-x="336" d="M318 211T298 192T249 173Q226 173 207 185Q229 205 229 241Q229 270 217 288T182 307Q156 307 140 267T123 161Q123 99 146 62T213 24Q243 24 264 35T305 67L317 59Q296 29 262 10T183 -9Q113 -9 68 38T23
159Q23 238 70 285T195 332Q250 332 284 308T318 244Q318 211 298 192Z" />
<glyph unicode="d" glyph-name="d" horiz-adv-x="408" d="M405 32Q368 -9 318 -9Q287 -9 272 4T252 49Q226 19 198 5T136 -9Q86 -9 55 35T23 149Q23 233 67 282T187 332Q222 332 251 316V427Q251 441 238 441H204L200 451Q220 469 251 479T312 490Q325 490 333
485T341 469V57Q341 27 360 27Q379 27 397 42L405 32ZM226 39T251 81V296Q231 306 207 306Q123 306 123 161Q123 102 139 71T188 39Q226 39 251 81Z" />
<glyph unicode="e" glyph-name="e" horiz-adv-x="345" d="M243 24T265 34T308 70L320 61Q297 28 262 10T184 -9Q138 -9 102 13T44 73T23 161Q23 239 70 285T197 332Q253 332 288 306T324 237Q324 189 284 161T173 132Q145 132 122 136Q127 84 152 54T214 24Q243
24 265 34ZM155 308T138 271T120 166V150Q131 150 147 152Q189 157 211 179T234 239Q234 269 221 288T186 308Q155 308 138 271Z" />
<glyph unicode="f" glyph-name="f" horiz-adv-x="226" d="M151 42T157 34T188 20L201 17L195 0H39L31 10L39 20Q51 36 55 54T60 105V282H9Q9 299 11 304T23 312L60 321Q60 407 97 453T205 499Q249 499 276 480T304 430Q304 403 288 387T246 370Q226 370 209 378Q227
393 227 423Q227 447 218 461T193 475Q173 475 162 454T151 395V321H224Q224 293 209 282H151V66Q151 42 157 34Z" />
<glyph unicode="g" glyph-name="g" horiz-adv-x="397" d="M134 -116T147 -130T182 -144Q252 -144 252 -30V67Q227 38 200 24T140 10Q91 10 61 51T30 159Q30 239 79 285T211 332Q233 332 259 328T292 323Q334 317 350 315L358 307L350 295Q341 283 341 270V0Q341
-79 296 -122T169 -166Q119 -166 88 -147T57 -97Q57 -70 73 -54T115 -37Q134 -37 152 -45Q134 -63 134 -94Q134 -116 147 -130ZM228 58T251 100V299Q228 309 207 309Q169 309 150 276T130 178Q130 120 145 89T188 58Q228 58 251 100Z" />
<glyph unicode="h" glyph-name="h" horiz-adv-x="435" d="M364 27T383 27Q402 27 420 42L428 32Q391 -9 341 -9Q305 -9 290 9T274 70V223Q274 281 237 281Q201 281 179 232T157 104Q157 73 161 55T177 20L185 10L177 0H32L26 17L40 20Q56 24 61 32T66 66V423Q66
431 63 436T53 441H22L18 451Q37 469 67 479T128 490Q141 490 149 485T157 469V222Q171 269 206 300T282 332Q325 332 344 304T364 215V57Q364 27 383 27Z" />
<glyph unicode="i" glyph-name="i" horiz-adv-x="212" d="M149 27T168 27Q187 27 205 42L213 32Q176 -9 126 -9Q90 -9 74 9T58 70V268Q58 282 45 282H14L11 293Q31 310 61 321T121 332Q133 332 141 326T149 310V57Q149 27 168 27ZM48 446T68 468T105 490Q123 490
143 468T164 428Q164 409 144 388T105 366Q88 366 68 387T48 428Q48 446 68 468Z" />
<glyph unicode="j" glyph-name="j" horiz-adv-x="197" d="M-88 -70T-72 -54T-30 -37Q-11 -37 7 -45Q-2 -53 -6 -66T-11 -95Q-11 -116 -3 -129T22 -143Q58 -143 58 -77V268Q58 282 45 282H14L11 293Q30 309 61 320T121 332Q134 332 142 326T150 310V0Q150 -80 114
-123T16 -166Q-30 -166 -59 -147T-88 -97Q-88 -70 -72 -54ZM46 446T66 468T103 490Q121 490 141 468T162 428Q162 409 142 388T103 366Q86 366 66 387T46 428Q46 446 66 468Z" />
<glyph unicode="k" glyph-name="k" horiz-adv-x="382" d="M395 30Q360 -9 308 -9Q276 -9 258 5T229 52L198 140Q192 157 183 166T157 179V104Q157 73 161 55T177 20L185 10L177 0H32L26 17L40 20Q56 24 61 32T66 66V427Q66 441 53 441H22L18 451Q37 469 67 479T128
490Q141 490 149 485T157 469V198L217 242Q238 257 246 266T254 285Q254 299 242 309L234 315L242 325H363L369 308Q344 302 313 280L195 194Q239 189 263 173T298 127L326 47Q333 25 354 25Q369 25 387 40L395 30Z" />
<glyph unicode="l" glyph-name="l" horiz-adv-x="205" d="M142 27T161 27Q180 27 198 42L206 32Q171 -9 119 -9Q84 -9 68 7T52 60V427Q52 441 39 441H7L4 451Q23 469 53 479T114 490Q127 490 134 485T142 469V57Q142 27 161 27Z" />
<glyph unicode="m" glyph-name="m" horiz-adv-x="625" d="M356 279T337 305T277 332Q238 332 207 300T163 222V304Q163 314 156 319T135 325Q105 325 75 314T25 286L28 276H60Q73 276 73 261V66Q73 41 68 33T47 20L33 17L39 0H184L192 10L184 20Q172 37 168 55T163
104Q163 174 181 227T231 281Q269 281 269 223V0H380L388 10L380 20Q369 37 365 55T359 104Q359 174 377 227T427 281Q465 281 465 223V79Q465 30 480 11T532 -9Q582 -9 619 32L611 42Q593 27 574 27Q555 27 555 57V215Q555 275 536 303T473 332Q437 332 405 301T359
222H357Q356 279 337 305Z" />
<glyph unicode="n" glyph-name="n" horiz-adv-x="441" d="M371 27T390 27Q409 27 427 42L435 32Q398 -9 348 -9Q312 -9 297 9T281 70V223Q281 281 244 281Q208 281 186 232T163 104Q163 74 168 56T184 20L192 10L184 0H39L33 17L47 20Q63 24 68 32T73 66V261Q73
280 60 280H28L25 291Q45 308 75 319T135 330Q148 330 155 324T163 308V222Q177 269 213 300T289 332Q332 332 351 304T371 215V57Q371 27 390 27Z" />
<glyph unicode="o" glyph-name="o" horiz-adv-x="385" d="M23 240T68 286T192 332Q270 332 316 286T362 161Q362 83 316 37T192 -9Q114 -9 69 37T23 161Q23 240 68 286ZM261 226T242 268T194 311Q162 311 142 270T122 161Q122 93 140 53T190 13Q221 13 241 53T261
159Q261 226 242 268Z" />
<glyph unicode="p" glyph-name="p" horiz-adv-x="399" d="M313 332T344 288T376 171Q376 120 358 80T306 17T230 -6Q206 -6 185 1T148 23V-91Q148 -115 154 -123T185 -137L198 -140L192 -157H37L29 -147L37 -137Q49 -121 53 -103T58 -53V261Q58 279 45 279H14L11
290Q30 307 60 318T120 329Q133 329 140 323T148 307V263Q173 299 200 315T262 332Q313 332 344 288ZM233 23T254 58T276 161Q276 220 260 251T214 283Q174 283 148 230V36Q167 23 192 23Q233 23 254 58Z" />
<glyph unicode="q" glyph-name="q" horiz-adv-x="405" d="M226 19T198 5T136 -9Q86 -9 55 35T23 149Q23 233 73 282T210 332Q241 332 291 323Q333 317 350 315L357 307L349 295Q344 289 343 284T341 270V-53Q341 -84 345 -102T361 -137L369 -147L361 -157H205L198
-140L212 -137Q237 -132 244 -124T251 -91V49Q226 19 198 5ZM123 102T139 71T188 39Q227 39 250 81V300Q227 309 206 309Q165 309 144 272T123 161Q123 102 139 71Z" />
<glyph unicode="r" glyph-name="r" horiz-adv-x="317" d="M273 332T293 314T313 266Q313 239 297 223T255 206Q235 206 218 214Q236 229 236 259Q236 273 230 281T214 289Q190 289 174 241T158 120Q158 83 162 61T178 20L186 10L178 0H33L27 17L41 20Q57 24 62
32T67 66V261Q67 280 54 280H23L19 291Q38 308 66 319T123 330Q136 330 144 324T152 308V235H155Q176 332 241 332Q273 332 293 314Z" />
<glyph unicode="s" glyph-name="s" horiz-adv-x="327" d="M122 239T141 224T201 189Q234 173 252 162T283 131T297 86Q297 43 257 17T148 -9Q97 -9 64 9T31 58Q31 78 46 91T83 105Q100 105 117 98Q100 85 100 56Q100 36 114 25T148 14Q171 14 187 26T204 60Q204
81 188 93T136 123Q104 138 85 150T51 184T37 235Q37 280 75 306T171 332Q222 332 254 313T287 264Q287 241 273 230T237 219Q216 219 200 228Q218 245 218 271Q218 288 205 298T171 309Q148 309 135 296T122 264Q122 239 141 224Z" />
<glyph unicode="t" glyph-name="t" horiz-adv-x="237" d="M93 -9T75 9T57 70V282H7Q7 299 9 304T21 312Q54 321 73 340T104 395Q107 406 114 408T148 411V321H230Q230 308 226 298T215 282H148V57Q148 27 173 27Q184 27 197 34T222 53L230 43Q187 -9 134 -9Q93 -9 75 9Z" />
<glyph unicode="u" glyph-name="u" horiz-adv-x="429" d="M254 47T220 19T146 -9Q102 -9 81 19T60 105V268Q60 282 47 282H16L13 293Q33 310 63 321T122 332Q135 332 142 326T150 310V110Q150 76 160 58T188 39Q225 39 247 84T270 203Q270 242 265 263T245 301L236
312L244 321L359 330V57Q359 27 377 27Q396 27 414 42L422 32Q387 -9 335 -9Q297 -9 283 13T268 91Q254 47 220 19Z" />
<glyph unicode="v" glyph-name="v" horiz-adv-x="364" d="M237 23T255 64T274 169Q274 254 238 303L229 314L237 322L321 332Q324 289 324 263Q324 135 285 63T180 -9Q128 -9 102 22T64 124L43 268Q42 276 39 279T30 282H3L0 293Q20 311 48 321T103 332Q118 332
124 323T135 287L161 108Q168 59 177 41T205 23Q237 23 255 64Z" />
<glyph unicode="w" glyph-name="w" horiz-adv-x="557" d="M127 -9T101 22T64 124L43 268Q42 276 39 279T30 282H3L0 293Q20 311 48 321T103 332Q118 332 124 323T135 288L161 108Q168 59 177 41T204 23Q232 23 248 57T265 149Q265 207 250 268Q248 276 246 279T237
282H211L208 293Q227 311 255 321T311 332Q325 332 332 323T342 288L367 113Q375 59 384 41T408 23Q435 23 451 63T468 169Q468 213 460 245T432 303L424 314L431 322L515 332Q518 293 518 263Q518 135 482 63T377 -9Q336 -9 315 12T280 89Q260 -9 175 -9Q127 -9
101 22Z" />
<glyph unicode="x" glyph-name="x" horiz-adv-x="366" d="M368 30Q351 9 330 0T282 -9Q251 -9 232 6T192 59L155 127Q113 73 113 51Q113 37 124 20L131 10L123 0H18L12 16L143 148L74 275Q62 297 45 297Q31 297 13 284L6 295Q24 315 44 323T91 332Q123 332 142
317T180 264L214 201Q252 249 252 272Q252 287 242 304L234 313L242 323H348L354 307L226 179L298 47Q310 25 327 25Q342 25 359 40L368 30Z" />
<glyph unicode="y" glyph-name="y" horiz-adv-x="406" d="M350 330V0Q350 -79 305 -122T178 -166Q128 -166 97 -147T66 -97Q66 -70 82 -54T124 -37Q143 -37 161 -45Q143 -63 143 -94Q143 -116 156 -130T191 -144Q261 -144 261 -30V97Q248 59 216 35T146 10Q102
10 81 37T60 119V268Q60 282 47 282H16L13 293Q32 310 63 321T122 332Q135 332 142 326T150 310V108Q150 52 185 52Q219 52 240 93T261 202Q261 238 255 261T236 301L228 312L235 321L350 330Z" />
<glyph unicode="z" glyph-name="z" horiz-adv-x="322" d="M220 30Q242 30 253 38T269 67L277 104L297 97V-8L289 -16Q275 -7 259 -4T212 0H23L16 20L193 295H101Q80 295 68 286T52 258L45 221L24 228V333L32 341Q46 332 62 329T110 325H294Q307 313 307 297L289
287L124 30H220Z" />
<glyph unicode="{" glyph-name="braceleft" horiz-adv-x="214" d="M149 27T161 -9T204 -54L199 -73Q123 -65 82 -19T40 105Q40 160 30 181T-9 208V222Q20 227 30 248T40 325Q40 403 81 449T199 503L204 485Q174 476 162 441T149 332Q149 234 77 217Q149 202 149
102Q149 27 161 -9Z" />
<glyph unicode="|" glyph-name="bar" horiz-adv-x="228" d="M82 484H146V-53H82V484Z" />
<glyph unicode="}" glyph-name="braceright" horiz-adv-x="214" d="M65 202T137 217Q65 234 65 332Q65 405 53 440T10 485L15 503Q91 495 132 449T174 325Q174 270 184 249T223 222V208Q194 203 184 182T174 105Q174 27 133 -19T15 -73L10 -54Q40 -46 52 -10T65
102Q65 202 137 217Z" />
<glyph unicode="~" glyph-name="asciitilde" horiz-adv-x="404" d="M309 231T274 231Q256 231 240 226T202 210Q177 199 161 194T127 189Q90 189 64 209V259Q94 238 130 238Q160 238 202 259Q227 270 242 275T276 280Q315 280 339 259V209Q309 231 274 231Z" />
<glyph unicode="&#xa0;" glyph-name="uni00A0" horiz-adv-x="168" />
<glyph unicode="&#xa1;" glyph-name="exclamdown" horiz-adv-x="169" d="M135 261T117 242T84 222Q68 222 49 241T30 277Q30 294 49 313T84 332Q99 332 117 313T135 277Q135 261 117 242ZM66 -172T50 -167T26 -154Q26 -118 43 2T75 185H92Q106 122 124 2T142 -154Q134
-162 118 -167T84 -172Q66 -172 50 -167Z" />
<glyph unicode="&#xa2;" glyph-name="cent" horiz-adv-x="332" d="M243 97T264 108T305 140L317 132Q297 103 265 84T189 64V-39Q182 -54 161 -54V65Q99 73 61 119T23 232Q23 302 60 347T161 402V506Q169 521 189 521V405H195Q250 405 284 381T318 317Q318 284
298 265T249 246Q226 246 207 258Q229 278 229 314Q229 343 217 361T182 380Q156 380 140 340T123 234Q123 172 146 135T213 97Q243 97 264 108Z" />
<glyph unicode="&#xa3;" glyph-name="sterling" horiz-adv-x="398" d="M174 155T161 126T111 74H375Q375 22 353 0H37L20 28Q55 51 75 88T96 161Q96 177 93 192H31Q31 213 46 220H87Q84 229 78 252T68 294T64 332Q64 397 105 436T233 476Q296 476 336 451T376
384Q376 343 342 320T260 294Q275 310 282 333T289 382Q289 412 272 432T231 452Q202 452 184 425T165 322Q165 304 167 282T170 252Q172 240 174 220H298Q298 200 283 192H175Q174 155 161 126Z" />
<glyph unicode="&#xa4;" glyph-name="currency" horiz-adv-x="413" d="M376 63T358 63L299 122Q258 96 205 96Q152 96 113 122L44 53Q34 66 34 83L91 140Q55 179 55 235Q55 291 92 330L23 398Q34 408 54 408L113 349Q150 374 205 374Q261 374 299 347L370 418Q379
406 379 387L320 329Q356 290 356 235Q356 180 320 141L389 72Q376 63 358 63ZM228 119T244 151T261 237Q261 292 247 322T209 352Q183 352 167 320T151 233Q151 179 165 149T203 119Q228 119 244 151Z" />
<glyph unicode="&#xa5;" glyph-name="yen" horiz-adv-x="405" d="M360 412T341 376L293 285H369Q369 265 354 257H279L250 202V197H369Q369 177 354 169H250V83Q250 60 254 49T270 31T305 18L299 0H124L116 10L124 22Q141 44 147 67T154 131V169H35Q35 190 50
197H154V200L123 257H35Q35 278 50 285H107L59 374Q43 406 29 423T-6 456L3 467H186L191 449L176 445Q147 439 147 422Q147 416 152 405T167 375L235 247L307 384Q315 397 315 410Q315 423 307 432T287 445L268 449L274 467H389L397 456L387 445Q360 412 341 376Z"
/>
<glyph unicode="&#xa6;" glyph-name="brokenbar" horiz-adv-x="228" d="M82 484H146V294H82V484ZM82 137H146V-53H82V137Z" />
<glyph unicode="&#xa7;" glyph-name="section" horiz-adv-x="298" d="M286 368T255 347T178 324L175 333Q198 357 198 399Q198 420 187 433T160 446Q140 446 127 430T113 387Q113 346 163 295Q204 255 220 229T237 175Q237 142 219 112L94 233Q59 267 47 297T35
357Q35 405 68 440T174 475Q223 475 254 455T286 403Q286 368 255 347ZM12 -59T43 -39T120 -16L123 -24Q99 -49 99 -90Q99 -111 110 -124T138 -137Q158 -137 171 -121T185 -78Q185 -37 135 14Q94 54 78 80T61 133Q61 167 80 197L203 76Q238 42 250 12T263 -48Q263
-96 230 -131T125 -166Q75 -166 44 -146T12 -94Q12 -59 43 -39Z" />
<glyph unicode="&#xa8;" glyph-name="dieresis" horiz-adv-x="274" d="M20 438T37 457T69 476Q84 476 101 457T119 423Q119 407 102 389T69 371Q55 371 38 389T20 423Q20 438 37 457ZM154 438T171 457T203 476Q218 476 236 457T254 423Q254 407 236 389T203 371Q189
371 172 389T154 423Q154 438 171 457Z" />
<glyph unicode="&#xa9;" glyph-name="copyright" horiz-adv-x="441" d="M33 375T58 418T126 486T220 512Q271 512 314 487T382 418T408 324Q408 273 383 230T314 162T220 136Q169 136 126 161T58 230T33 324Q33 375 58 418ZM49 277T72 238T134 176T220 153Q267
153 306 176T368 238T391 324Q391 370 368 409T306 472T220 495Q174 495 135 472T72 410T49 324Q49 277 72 238ZM283 192T229 192Q170 192 139 229T108 324Q108 382 139 419T230 457Q267 457 290 442T314 401Q314 374 295 359T244 343V349Q251 356 255 369T260
398Q260 418 251 430T225 443Q195 443 181 408T166 324Q166 277 187 245T243 212Q283 212 312 245L318 240Q283 192 229 192Z" />
<glyph unicode="&#xaa;" glyph-name="ordfeminine" horiz-adv-x="270" d="M120 235T76 235Q50 235 32 250T14 295Q14 333 42 350T112 368Q135 368 148 365V395Q148 457 120 457Q106 457 99 447T92 421Q92 399 109 389L108 382Q29 382 29 422Q29 446 54 461T120
476Q166 476 195 457T224 402V283Q224 263 234 263Q247 263 261 276L269 265Q242 235 207 235Q157 235 151 281H147Q120 235 76 235ZM125 275T136 293T149 347Q137 352 124 352Q109 352 99 342T89 311Q89 296 94 286T111 275Q125 275 136 293Z" />
<glyph unicode="&#xab;" glyph-name="guillemotleft" horiz-adv-x="336" d="M158 63T140 53T100 40Q54 115 39 141T24 181Q24 193 39 222T100 323Q147 317 172 275Q162 259 135 232T102 201L81 181Q108 156 135 129T172 88Q158 63 140 53ZM294 47T245 40L233 60Q193
124 181 146T168 181Q168 193 183 221T245 323Q292 316 316 275Q307 261 280 234T225 181Q299 113 316 88Q294 47 245 40Z" />
<glyph unicode="&#xac;" glyph-name="logicalnot" horiz-adv-x="405" d="M340 257V109H296V207H65V257H340Z" />
<glyph unicode="&#xad;" glyph-name="uni00AD" horiz-adv-x="231" d="M21 177T25 190T38 209L209 216Q209 183 192 170L21 164Q21 177 25 190Z" />
<glyph unicode="&#xae;" glyph-name="registered" horiz-adv-x="441" d="M33 375T58 418T126 486T220 512Q271 512 314 487T382 418T408 324Q408 273 383 230T314 162T220 136Q169 136 126 161T58 230T33 324Q33 375 58 418ZM49 277T72 238T134 176T220 153Q267
153 306 176T368 238T391 324Q391 370 368 409T306 472T220 495Q174 495 135 472T72 410T49 324Q49 277 72 238ZM317 193T298 193Q284 193 272 201T257 229L246 280Q242 299 230 307T193 317V248Q193 230 198 223T217 211L224 209L220 198H123L118 205L123 211Q133
223 136 236T139 277V387Q139 405 136 414T123 432L118 436L121 444Q137 449 164 453T216 458Q270 458 296 438T323 385Q323 361 307 345T265 322V320Q299 311 308 270L317 223Q319 211 332 211L335 203Q317 193 298 193ZM230 329T248 341T267 390Q267 413 255
428T221 444Q192 444 192 418V329Q230 329 248 341Z" />
<glyph unicode="&#xaf;" glyph-name="overscore" horiz-adv-x="265" d="M32 436T49 452H233Q233 435 229 419T216 395H32Q32 436 49 452Z" />
<glyph unicode="&#xb0;" glyph-name="degree" horiz-adv-x="296" d="M22 410T56 442T148 475Q206 475 240 443T275 355Q275 300 241 268T148 235Q90 235 56 267T22 355Q22 410 56 442ZM191 404T180 429T150 454Q129 454 117 427T104 353Q104 306 115 281T145 255Q166
255 178 282T191 357Q191 404 180 429Z" />
<glyph unicode="&#xb1;" glyph-name="plusminus" horiz-adv-x="404" d="M177 257V370H226V257H339V207H226V95H177V207H64V257H177ZM340 49V-1H65V49H340Z" />
<glyph unicode="&#xb2;" glyph-name="uni00B2" horiz-adv-x="261" d="M22 433T51 452T126 472Q179 472 208 452T237 393Q237 318 80 234H244Q244 201 226 187H24L12 209Q95 275 126 316T158 398Q158 421 149 435T126 450Q112 450 103 437T93 402Q93 387 97 374T110
355L108 348Q67 349 45 363T22 402Q22 433 51 452Z" />
<glyph unicode="&#xb3;" glyph-name="uni00B3" horiz-adv-x="261" d="M91 206T123 206Q140 206 151 222T162 264Q162 290 147 305T106 320Q91 320 75 316L72 330L88 334Q155 351 155 406Q155 427 146 441T124 455Q114 455 107 444T99 417Q99 403 102 390T111 371L109
364Q70 365 49 378T28 417Q28 443 56 460T129 477Q173 477 201 458T230 408Q230 360 174 336Q204 329 221 309T238 261Q238 224 208 204T125 183Q78 183 49 201T20 248Q20 270 42 283T103 297L105 290Q91 276 91 250Q91 206 123 206Z" />
<glyph unicode="&#xb4;" glyph-name="acute" horiz-adv-x="187" d="M177 479T177 449Q177 414 133 399L50 369L37 385L139 494Q177 479 177 449Z" />
<glyph unicode="&#xb5;" glyph-name="uni00B5" horiz-adv-x="429" d="M256 43T235 24T185 -2Q173 -6 160 -6Q151 -6 147 -5V-136L51 -127L43 -119L51 -107Q56 -100 58 -84T60 -33V268L16 282L13 293Q30 308 57 318T114 330L124 331Q133 331 139 328Q150 323 150
310V98Q150 32 191 32Q226 32 248 74T270 185Q270 231 264 260T242 312L250 321L359 330V0H320L268 72Q256 43 235 24Z" />
<glyph unicode="&#xb6;" glyph-name="paragraph" horiz-adv-x="336" d="M108 -12T118 -27T144 -42Q164 -42 176 -23T188 30V148Q114 157 68 198T22 297Q22 352 55 385T146 418Q182 418 238 408Q279 402 293 401L300 393L292 381Q283 369 283 356V114Q283 21 246
-22T128 -66Q81 -66 52 -46T22 8Q22 43 53 68T133 97L136 89Q108 64 108 13Q108 -12 118 -27Z" />
<glyph unicode="&#xb7;" glyph-name="middot" horiz-adv-x="145" d="M17 241T36 261T71 282Q87 282 106 262T126 224Q126 207 107 187T71 167Q55 167 36 187T17 224Q17 241 36 261Z" />
<glyph unicode="&#xb8;" glyph-name="cedilla" horiz-adv-x="228" d="M102 -42T115 -42Q152 -42 179 -60T207 -114Q207 -149 176 -170T97 -192Q63 -192 39 -180T15 -144Q15 -129 25 -118T54 -106Q72 -106 84 -112Q80 -116 77 -124T74 -142Q74 -157 81 -165T101
-174Q119 -174 129 -157T139 -116Q139 -91 127 -77T94 -63Q77 -63 60 -73L48 -61L108 12H134L90 -42L93 -45Q102 -42 115 -42Z" />
<glyph unicode="&#xb9;" glyph-name="uni00B9" horiz-adv-x="225" d="M140 252T143 238T157 208L162 200L156 192H27L21 208L42 212Q56 215 60 221T64 245V412L21 384Q10 386 0 399T-12 425L131 478Q143 473 150 461L140 454V272Q140 252 143 238Z" />
<glyph unicode="&#xba;" glyph-name="ordmasculine" horiz-adv-x="281" d="M18 411T51 443T141 476Q197 476 230 444T264 356Q264 301 231 268T141 235Q85 235 52 268T18 356Q18 411 51 443ZM184 393T174 426T142 459Q122 459 110 430T98 355Q98 308 109 281T140
253Q159 253 171 281T184 354Q184 393 174 426Z" />
<glyph unicode="&#xbb;" glyph-name="guillemotright" horiz-adv-x="336" d="M34 111T110 181Q34 253 19 275Q42 316 90 323Q137 248 152 221T167 181Q167 169 152 142T90 40Q42 47 19 88Q34 111 110 181ZM179 111T255 181Q179 253 164 275Q188 316 236 323Q283
246 297 220T312 181Q312 169 297 142T236 40Q188 47 164 88Q179 111 255 181Z" />
<glyph unicode="&#xbc;" glyph-name="onequarter" horiz-adv-x="613" d="M156 250T159 236T173 206L178 198L172 190H43L37 206L58 210Q72 213 76 219T80 243V410L37 382Q26 384 16 397T4 423L147 476Q159 471 166 459L156 452V270Q156 250 159 236ZM369 486H403L208
-20H175L369 486ZM600 71T589 63H567Q567 40 585 16L591 8L584 0H459L455 16L473 20Q486 23 491 30T496 53V63H372L364 74L452 280H521L529 272L412 90H496V133Q496 146 494 153T487 168L492 176L567 181V90H600Q600 71 589 63Z" />
<glyph unicode="&#xbd;" glyph-name="onehalf" horiz-adv-x="614" d="M156 250T159 236T173 206L178 198L172 190H43L37 206L58 210Q72 213 76 219T80 243V410L37 382Q26 384 16 397T4 423L147 476Q159 471 166 459L156 452V270Q156 250 159 236ZM369 486H403L208
-20H175L369 486ZM375 246T404 265T479 285Q532 285 561 265T590 206Q590 131 433 47H597Q597 14 579 0H377L365 22Q448 88 479 129T511 211Q511 234 502 248T479 263Q465 263 456 250T446 215Q446 200 450 187T463 168L461 161Q420 162 398 176T375 215Q375 246
404 265Z" />
<glyph unicode="&#xbe;" glyph-name="threequarters" horiz-adv-x="649" d="M91 204T123 204Q140 204 151 220T162 262Q162 288 147 303T106 318Q91 318 75 314L72 328L88 332Q155 349 155 404Q155 425 146 439T124 453Q114 453 107 442T99 415Q99 401 102 388T111
369L109 362Q70 363 49 376T28 415Q28 441 56 458T129 475Q173 475 201 456T230 406Q230 358 174 334Q204 327 221 307T238 259Q238 222 208 202T125 181Q78 181 49 199T20 246Q20 268 42 281T103 295L105 288Q91 274 91 248Q91 204 123 204ZM405 486H439L244 -20H211L405
486ZM636 71T625 63H603Q603 40 621 16L627 8L620 0H495L491 16L509 20Q522 23 527 30T532 53V63H408L400 74L488 280H557L565 272L448 90H532V133Q532 146 530 153T523 168L528 176L603 181V90H636Q636 71 625 63Z" />
<glyph unicode="&#xbf;" glyph-name="questiondown" horiz-adv-x="330" d="M239 261T221 242T188 222Q172 222 154 241T135 277Q135 294 153 313T188 332Q203 332 221 313T239 277Q239 261 221 242ZM105 -170T62 -139T18 -57Q18 -17 40 13T106 86Q138 115 155
134T178 177L181 189H194L224 158Q169 102 143 51T117 -52Q117 -98 132 -124T174 -150Q196 -150 210 -131T224 -79Q224 -55 216 -36T191 -5L193 2Q248 0 281 -23T315 -81Q315 -120 276 -145T175 -170Q105 -170 62 -139Z" />
<glyph unicode="&#xc0;" glyph-name="Agrave" horiz-adv-x="468" d="M419 62T431 46T468 10L459 0H278L272 18L287 22Q302 27 308 34T315 55Q315 63 304 96L284 155H129L121 130Q106 85 106 62Q106 40 114 22L121 10L112 0H2L-5 18L10 22Q34 29 46 41T69 86L171
380Q178 405 178 415Q178 437 146 446L135 449L142 467H278L409 90Q419 62 431 46ZM274 183L206 386L139 183H274ZM277 511L194 541Q151 556 151 591Q151 622 188 636L290 527L277 511Z" />
<glyph unicode="&#xc1;" glyph-name="Aacute" horiz-adv-x="468" d="M419 62T431 46T468 10L459 0H278L272 18L287 22Q302 27 308 34T315 55Q315 63 304 96L284 155H129L121 130Q106 85 106 62Q106 40 114 22L121 10L112 0H2L-5 18L10 22Q34 29 46 41T69 86L171
380Q178 405 178 415Q178 437 146 446L135 449L142 467H278L409 90Q419 62 431 46ZM274 183L206 386L139 183H274ZM316 621T316 591Q316 556 272 541L190 511L177 527L279 636Q316 621 316 591Z" />
<glyph unicode="&#xc2;" glyph-name="Acircumflex" horiz-adv-x="468" d="M419 62T431 46T468 10L459 0H278L272 18L287 22Q302 27 308 34T315 55Q315 63 304 96L284 155H129L121 130Q106 85 106 62Q106 40 114 22L121 10L112 0H2L-5 18L10 22Q34 29 46 41T69
86L171 380Q178 405 178 415Q178 437 146 446L135 449L142 467H278L409 90Q419 62 431 46ZM274 183L206 386L139 183H274ZM316 511L234 567L152 511L137 524Q156 560 178 589T217 633H251Q284 607 331 524L316 511Z" />
<glyph unicode="&#xc3;" glyph-name="Atilde" horiz-adv-x="468" d="M419 62T431 46T468 10L459 0H278L272 18L287 22Q302 27 308 34T315 55Q315 63 304 96L284 155H129L121 130Q106 85 106 62Q106 40 114 22L121 10L112 0H2L-5 18L10 22Q34 29 46 41T69 86L171
380Q178 405 178 415Q178 437 146 446L135 449L142 467H278L409 90Q419 62 431 46ZM274 183L206 386L139 183H274ZM317 563T298 545T259 527Q248 527 241 530T222 540Q215 545 208 548T192 552Q172 552 144 527L128 542Q149 576 168 594T207 612Q218 612 225 609T243
598Q261 586 274 586Q294 586 321 612L338 597Q317 563 298 545Z" />
<glyph unicode="&#xc4;" glyph-name="Adieresis" horiz-adv-x="468" d="M419 62T431 46T468 10L459 0H278L272 18L287 22Q302 27 308 34T315 55Q315 63 304 96L284 155H129L121 130Q106 85 106 62Q106 40 114 22L121 10L112 0H2L-5 18L10 22Q34 29 46 41T69 86L171
380Q178 405 178 415Q178 437 146 446L135 449L142 467H278L409 90Q419 62 431 46ZM274 183L206 386L139 183H274ZM117 580T134 599T166 618Q181 618 198 599T216 565Q216 549 199 531T166 513Q152 513 135 531T117 565Q117 580 134 599ZM251 580T268 599T300 618Q315
618 333 599T351 565Q351 549 333 531T300 513Q286 513 269 531T251 565Q251 580 268 599Z" />
<glyph unicode="&#xc5;" glyph-name="Aring" horiz-adv-x="468" d="M419 62T431 46T468 10L459 0H278L272 18L287 22Q302 27 308 34T315 55Q315 63 304 96L284 155H129L121 130Q106 85 106 62Q106 40 114 22L121 10L112 0H2L-5 18L10 22Q34 29 46 41T69 86L171
380Q178 405 178 415Q178 437 146 446L135 449L142 467H278L409 90Q419 62 431 46ZM274 183L206 386L139 183H274ZM195 498T175 518T154 570Q154 602 174 622T233 642Q273 642 294 622T315 570Q315 538 294 518T233 498Q195 498 175 518ZM245 517T251 532T258 570Q258
593 252 608T233 623Q222 623 216 608T209 570Q209 548 215 533T233 517Q245 517 251 532Z" />
<glyph unicode="&#xc6;" glyph-name="AE" horiz-adv-x="645" d="M608 112V-8L598 -17Q584 -7 569 -4T522 0H264L257 18L271 22Q296 29 304 41T313 83V205H175L117 100Q103 73 103 51Q103 37 111 22L118 10L109 0H-1L-8 18L7 22Q40 31 57 61L283 467H504Q561 467
578 480L590 489L601 480V355L580 348Q562 404 545 423T495 442H450Q425 442 417 433T409 392V233H480Q511 233 525 239T546 263L551 276L564 269V154L542 146L538 167Q534 188 517 196T458 204H409V74Q409 43 418 34T458 25H507Q535 25 552 45T588 119L608 112ZM313
233V443H306L190 233H313Z" />
<glyph unicode="&#xc7;" glyph-name="Ccedilla" horiz-adv-x="415" d="M221 -9T212 -8L184 -42L187 -45Q196 -42 209 -42Q246 -42 273 -60T301 -114Q301 -149 270 -170T191 -192Q157 -192 133 -180T109 -144Q109 -129 119 -118T148 -106Q166 -106 178 -112Q174
-116 171 -124T168 -142Q168 -157 175 -165T195 -174Q213 -174 223 -157T233 -116Q233 -91 221 -77T188 -63Q171 -63 154 -73L142 -61L189 -4Q107 12 64 76T21 233Q21 339 78 407T243 476Q312 476 355 450T399 380Q399 338 364 314T276 290Q306 322 306 377Q306
409 287 430T236 452Q179 452 153 387T126 233Q126 176 142 129T190 55T263 27Q310 27 341 46T399 101L411 92Q384 47 342 19T241 -9Q221 -9 212 -8Z" />
<glyph unicode="&#xc8;" glyph-name="Egrave" horiz-adv-x="413" d="M80 376T74 399T51 445L43 456L51 467H272Q327 467 346 480L358 489L368 480V355L348 348Q330 402 313 422T263 442H218Q192 442 184 433T176 392V250H248Q278 250 292 256T314 280L319 294L332
286V174L310 166L306 188Q302 209 284 217T226 225H176V74Q176 44 185 35T225 25H274Q304 25 321 46T355 119L376 112V-8L365 -17Q351 -7 333 -4T283 0H32L25 18Q50 25 61 31T76 49T80 83V336Q80 376 74 399ZM250 511L167 541Q124 556 124 591Q124 622 161 636L263
527L250 511Z" />
<glyph unicode="&#xc9;" glyph-name="Eacute" horiz-adv-x="413" d="M80 376T74 399T51 445L43 456L51 467H272Q327 467 346 480L358 489L368 480V355L348 348Q330 402 313 422T263 442H218Q192 442 184 433T176 392V250H248Q278 250 292 256T314 280L319 294L332
286V174L310 166L306 188Q302 209 284 217T226 225H176V74Q176 44 185 35T225 25H274Q304 25 321 46T355 119L376 112V-8L365 -17Q351 -7 333 -4T283 0H32L25 18Q50 25 61 31T76 49T80 83V336Q80 376 74 399ZM289 621T289 591Q289 556 245 541L163 511L150 527L252
636Q289 621 289 591Z" />
<glyph unicode="&#xca;" glyph-name="Ecircumflex" horiz-adv-x="413" d="M80 376T74 399T51 445L43 456L51 467H272Q327 467 346 480L358 489L368 480V355L348 348Q330 402 313 422T263 442H218Q192 442 184 433T176 392V250H248Q278 250 292 256T314 280L319
294L332 286V174L310 166L306 188Q302 209 284 217T226 225H176V74Q176 44 185 35T225 25H274Q304 25 321 46T355 119L376 112V-8L365 -17Q351 -7 333 -4T283 0H32L25 18Q50 25 61 31T76 49T80 83V336Q80 376 74 399ZM289 511L207 567L125 511L110 524Q129 560
151 589T190 633H224Q257 607 304 524L289 511Z" />
<glyph unicode="&#xcb;" glyph-name="Edieresis" horiz-adv-x="413" d="M80 376T74 399T51 445L43 456L51 467H272Q327 467 346 480L358 489L368 480V355L348 348Q330 402 313 422T263 442H218Q192 442 184 433T176 392V250H248Q278 250 292 256T314 280L319 294L332
286V174L310 166L306 188Q302 209 284 217T226 225H176V74Q176 44 185 35T225 25H274Q304 25 321 46T355 119L376 112V-8L365 -17Q351 -7 333 -4T283 0H32L25 18Q50 25 61 31T76 49T80 83V336Q80 376 74 399ZM90 580T107 599T139 618Q154 618 171 599T189 565Q189
549 172 531T139 513Q125 513 108 531T90 565Q90 580 107 599ZM224 580T241 599T273 618Q288 618 306 599T324 565Q324 549 306 531T273 513Q259 513 242 531T224 565Q224 580 241 599Z" />
<glyph unicode="&#xcc;" glyph-name="Igrave" horiz-adv-x="252" d="M27 18Q50 24 60 30T74 48T78 83V343Q78 391 71 410T34 454L43 467H212L219 451Q190 434 182 420T174 368V122Q174 75 181 56T217 12L209 0H34L27 18ZM170 511L87 541Q44 556 44 591Q44 622
81 636L183 527L170 511Z" />
<glyph unicode="&#xcd;" glyph-name="Iacute" horiz-adv-x="252" d="M27 18Q50 24 60 30T74 48T78 83V343Q78 391 71 410T34 454L43 467H212L219 451Q190 434 182 420T174 368V122Q174 75 181 56T217 12L209 0H34L27 18ZM209 621T209 591Q209 556 165 541L83 511L70
527L172 636Q209 621 209 591Z" />
<glyph unicode="&#xce;" glyph-name="Icircumflex" horiz-adv-x="252" d="M27 18Q50 24 60 30T74 48T78 83V343Q78 391 71 410T34 454L43 467H212L219 451Q190 434 182 420T174 368V122Q174 75 181 56T217 12L209 0H34L27 18ZM209 511L127 567L45 511L30 524Q49
560 71 589T110 633H144Q177 607 224 524L209 511Z" />
<glyph unicode="&#xcf;" glyph-name="Idieresis" horiz-adv-x="252" d="M27 18Q50 24 60 30T74 48T78 83V343Q78 391 71 410T34 454L43 467H212L219 451Q190 434 182 420T174 368V122Q174 75 181 56T217 12L209 0H34L27 18ZM10 580T27 599T59 618Q74 618 91 599T109
565Q109 549 92 531T59 513Q45 513 28 531T10 565Q10 580 27 599ZM144 580T161 599T193 618Q208 618 226 599T244 565Q244 549 226 531T193 513Q179 513 162 531T144 565Q144 580 161 599Z" />
<glyph unicode="&#xd0;" glyph-name="Eth" horiz-adv-x="495" d="M341 476T407 414T474 233Q474 126 413 63T245 0H33L26 18Q51 25 62 31T77 49T81 83V213H22Q22 243 34 254H81V354Q81 389 76 405T50 433L38 440L42 453Q75 463 124 469T214 476Q341 476 407 414ZM371
20T371 233Q371 331 333 390T231 450Q205 450 191 442T177 419V254H298Q298 226 285 213H177V113Q177 66 191 43T236 20Q371 20 371 233Z" />
<glyph unicode="&#xd1;" glyph-name="Ntilde" horiz-adv-x="490" d="M433 422T427 398T420 336V57Q420 36 429 22L438 10L429 0H325L103 383V131Q103 91 109 68T132 22L141 10L132 0H22L15 18Q41 25 51 31T66 48T70 83V347Q70 391 62 411T27 454L35 467H165L388
81V384Q388 414 376 426T324 449L330 467H449L458 456L449 445Q433 422 427 398ZM328 563T309 545T270 527Q259 527 252 530T233 540Q226 545 219 548T203 552Q183 552 155 527L139 542Q160 576 179 594T218 612Q229 612 236 609T254 598Q272 586 285 586Q305 586
332 612L349 597Q328 563 309 545Z" />
<glyph unicode="&#xd2;" glyph-name="Ograve" horiz-adv-x="494" d="M143 -9T82 56T21 233Q21 345 82 410T247 476Q351 476 412 411T474 233Q474 122 413 57T247 -9Q143 -9 82 56ZM281 14T309 41T354 118T370 231Q370 295 355 346T312 425T249 454Q212 454 183
426T138 346T122 228Q122 131 155 73T244 14Q281 14 309 41ZM291 511L208 541Q165 556 165 591Q165 622 202 636L304 527L291 511Z" />
<glyph unicode="&#xd3;" glyph-name="Oacute" horiz-adv-x="494" d="M143 -9T82 56T21 233Q21 345 82 410T247 476Q351 476 412 411T474 233Q474 122 413 57T247 -9Q143 -9 82 56ZM281 14T309 41T354 118T370 231Q370 295 355 346T312 425T249 454Q212 454 183
426T138 346T122 228Q122 131 155 73T244 14Q281 14 309 41ZM330 621T330 591Q330 556 286 541L204 511L191 527L293 636Q330 621 330 591Z" />
<glyph unicode="&#xd4;" glyph-name="Ocircumflex" horiz-adv-x="494" d="M143 -9T82 56T21 233Q21 345 82 410T247 476Q351 476 412 411T474 233Q474 122 413 57T247 -9Q143 -9 82 56ZM281 14T309 41T354 118T370 231Q370 295 355 346T312 425T249 454Q212 454
183 426T138 346T122 228Q122 131 155 73T244 14Q281 14 309 41ZM330 511L248 567L166 511L151 524Q170 560 192 589T231 633H265Q298 607 345 524L330 511Z" />
<glyph unicode="&#xd5;" glyph-name="Otilde" horiz-adv-x="494" d="M143 -9T82 56T21 233Q21 345 82 410T247 476Q351 476 412 411T474 233Q474 122 413 57T247 -9Q143 -9 82 56ZM281 14T309 41T354 118T370 231Q370 295 355 346T312 425T249 454Q212 454 183
426T138 346T122 228Q122 131 155 73T244 14Q281 14 309 41ZM331 563T312 545T273 527Q262 527 255 530T236 540Q229 545 222 548T206 552Q186 552 158 527L142 542Q163 576 182 594T221 612Q232 612 239 609T257 598Q275 586 288 586Q308 586 335 612L352 597Q331
563 312 545Z" />
<glyph unicode="&#xd6;" glyph-name="Odieresis" horiz-adv-x="494" d="M143 -9T82 56T21 233Q21 345 82 410T247 476Q351 476 412 411T474 233Q474 122 413 57T247 -9Q143 -9 82 56ZM281 14T309 41T354 118T370 231Q370 295 355 346T312 425T249 454Q212 454
183 426T138 346T122 228Q122 131 155 73T244 14Q281 14 309 41ZM131 580T148 599T180 618Q195 618 212 599T230 565Q230 549 213 531T180 513Q166 513 149 531T131 565Q131 580 148 599ZM265 580T282 599T314 618Q329 618 347 599T365 565Q365 549 347 531T314
513Q300 513 283 531T265 565Q265 580 282 599Z" />
<glyph unicode="&#xd7;" glyph-name="multiply" horiz-adv-x="404" d="M166 232L73 326L108 361L202 267L296 361L331 326L237 232L331 138L296 103L202 197L108 103L73 138L166 232Z" />
<glyph unicode="&#xd8;" glyph-name="Oslash" horiz-adv-x="494" d="M407 431T440 373T474 233Q474 122 413 57T247 -9Q215 -9 188 -3L173 -46H134L152 8Q90 33 56 91T21 233Q21 345 82 410T247 476Q282 476 309 469L321 503H362L346 457Q407 431 440 373ZM122
171T134 126T168 53L299 437Q276 454 249 454Q212 454 183 426T138 346T122 228Q122 171 134 126ZM281 14T309 41T354 118T370 231Q370 285 359 329T328 405L198 26Q219 14 244 14Q281 14 309 41Z" />
<glyph unicode="&#xd9;" glyph-name="Ugrave" horiz-adv-x="481" d="M418 80T374 36T245 -9Q162 -9 115 37T68 166V345Q68 391 60 411T25 454L32 467H207L214 451Q191 439 181 430T168 405T164 360V157Q164 90 190 56T266 21Q323 21 354 56T385 157V384Q385 415
374 426T324 449L331 467H447L456 456L447 445Q430 422 424 399T418 336V166Q418 80 374 36ZM315 511L232 541Q189 556 189 591Q189 622 226 636L328 527L315 511Z" />
<glyph unicode="&#xda;" glyph-name="Uacute" horiz-adv-x="481" d="M418 80T374 36T245 -9Q162 -9 115 37T68 166V345Q68 391 60 411T25 454L32 467H207L214 451Q191 439 181 430T168 405T164 360V157Q164 90 190 56T266 21Q323 21 354 56T385 157V384Q385 415
374 426T324 449L331 467H447L456 456L447 445Q430 422 424 399T418 336V166Q418 80 374 36ZM354 621T354 591Q354 556 310 541L228 511L215 527L317 636Q354 621 354 591Z" />
<glyph unicode="&#xdb;" glyph-name="Ucircumflex" horiz-adv-x="481" d="M418 80T374 36T245 -9Q162 -9 115 37T68 166V345Q68 391 60 411T25 454L32 467H207L214 451Q191 439 181 430T168 405T164 360V157Q164 90 190 56T266 21Q323 21 354 56T385 157V384Q385
415 374 426T324 449L331 467H447L456 456L447 445Q430 422 424 399T418 336V166Q418 80 374 36ZM354 511L272 567L190 511L175 524Q194 560 216 589T255 633H289Q322 607 369 524L354 511Z" />
<glyph unicode="&#xdc;" glyph-name="Udieresis" horiz-adv-x="481" d="M418 80T374 36T245 -9Q162 -9 115 37T68 166V345Q68 391 60 411T25 454L32 467H207L214 451Q191 439 181 430T168 405T164 360V157Q164 90 190 56T266 21Q323 21 354 56T385 157V384Q385
415 374 426T324 449L331 467H447L456 456L447 445Q430 422 424 399T418 336V166Q418 80 374 36ZM155 580T172 599T204 618Q219 618 236 599T254 565Q254 549 237 531T204 513Q190 513 173 531T155 565Q155 580 172 599ZM289 580T306 599T338 618Q353 618 371 599T389
565Q389 549 371 531T338 513Q324 513 307 531T289 565Q289 580 306 599Z" />
<glyph unicode="&#xdd;" glyph-name="Yacute" horiz-adv-x="405" d="M395 456L385 445Q358 412 339 376L248 202V83Q248 60 252 49T268 31T303 18L297 0H122L114 10L122 22Q139 44 145 67T152 131V200L57 374Q41 406 27 423T-8 456L1 467H184L189 449L174 445Q145
439 145 422Q145 416 150 405T165 375L233 247L305 384Q313 397 313 410Q313 423 305 432T285 445L266 449L272 467H387L395 456ZM302 621T302 591Q302 556 258 541L176 511L163 527L265 636Q302 621 302 591Z" />
<glyph unicode="&#xde;" glyph-name="Thorn" horiz-adv-x="418" d="M412 167T371 127T268 86Q250 86 229 92T193 106L195 116Q209 114 217 114Q225 114 230 115Q269 121 290 151T312 229Q312 288 287 323T220 358Q200 358 189 348T177 320V131Q177 87 184 64T214
10L206 0H32L25 18Q61 28 71 39T81 83V342Q81 374 77 391T61 422T24 454L32 467H215L222 451Q195 437 187 424T178 373Q205 382 235 382Q316 382 364 340T412 228Q412 167 371 127Z" />
<glyph unicode="&#xdf;" glyph-name="germandbls" horiz-adv-x="426" d="M274 -9T247 0T200 30L208 41Q232 25 265 25Q293 25 309 39T325 77Q325 115 281 144L235 176Q206 197 196 212T186 252Q186 267 194 281T219 317Q240 343 250 362T261 407Q261 435 250 450T217
466Q187 466 170 432T153 334V113Q153 79 158 59T177 21L185 10L177 0H22L16 17L30 21Q48 26 54 37T61 76V300Q61 388 107 439T234 490Q287 490 317 469T348 412Q348 391 336 376T302 341Q282 325 272 312T261 283Q261 272 268 263T294 241L345 205Q382 180 399
153T416 94Q416 49 385 20T303 -9Q274 -9 247 0Z" />
<glyph unicode="&#xe0;" glyph-name="agrave" horiz-adv-x="365" d="M118 209T89 209Q68 209 56 221T44 257Q44 291 77 311T165 332Q229 332 265 304T302 228V55Q302 27 322 27Q341 27 359 42L367 32Q330 -9 279 -9Q249 -9 234 6T215 53H211Q195 24 169 8T108
-9Q70 -9 47 14T24 76Q24 119 65 144T176 169Q189 169 213 167V217Q213 266 201 287T162 309Q143 309 132 297T121 266Q121 236 139 221Q118 209 89 209ZM213 41T213 148Q163 148 138 132T113 85Q113 65 124 53T154 41Q213 41 213 148ZM211 369L128 399Q85 414
85 449Q85 480 122 494L224 385L211 369Z" />
<glyph unicode="&#xe1;" glyph-name="aacute" horiz-adv-x="365" d="M118 209T89 209Q68 209 56 221T44 257Q44 291 77 311T165 332Q229 332 265 304T302 228V55Q302 27 322 27Q341 27 359 42L367 32Q330 -9 279 -9Q249 -9 234 6T215 53H211Q195 24 169 8T108
-9Q70 -9 47 14T24 76Q24 119 65 144T176 169Q189 169 213 167V217Q213 266 201 287T162 309Q143 309 132 297T121 266Q121 236 139 221Q118 209 89 209ZM213 41T213 148Q163 148 138 132T113 85Q113 65 124 53T154 41Q213 41 213 148ZM250 479T250 449Q250 414
206 399L124 369L111 385L213 494Q250 479 250 449Z" />
<glyph unicode="&#xe2;" glyph-name="acircumflex" horiz-adv-x="365" d="M118 209T89 209Q68 209 56 221T44 257Q44 291 77 311T165 332Q229 332 265 304T302 228V55Q302 27 322 27Q341 27 359 42L367 32Q330 -9 279 -9Q249 -9 234 6T215 53H211Q195 24 169 8T108
-9Q70 -9 47 14T24 76Q24 119 65 144T176 169Q189 169 213 167V217Q213 266 201 287T162 309Q143 309 132 297T121 266Q121 236 139 221Q118 209 89 209ZM213 41T213 148Q163 148 138 132T113 85Q113 65 124 53T154 41Q213 41 213 148ZM250 369L168 425L86 369L71
382Q90 418 112 447T151 491H185Q218 465 265 382L250 369Z" />
<glyph unicode="&#xe3;" glyph-name="atilde" horiz-adv-x="365" d="M118 209T89 209Q68 209 56 221T44 257Q44 291 77 311T165 332Q229 332 265 304T302 228V55Q302 27 322 27Q341 27 359 42L367 32Q330 -9 279 -9Q249 -9 234 6T215 53H211Q195 24 169 8T108
-9Q70 -9 47 14T24 76Q24 119 65 144T176 169Q189 169 213 167V217Q213 266 201 287T162 309Q143 309 132 297T121 266Q121 236 139 221Q118 209 89 209ZM213 41T213 148Q163 148 138 132T113 85Q113 65 124 53T154 41Q213 41 213 148ZM251 421T232 403T193 385Q182
385 175 388T156 398Q149 403 142 406T126 410Q106 410 78 385L62 400Q83 434 102 452T141 470Q152 470 159 467T177 456Q195 444 208 444Q228 444 255 470L272 455Q251 421 232 403Z" />
<glyph unicode="&#xe4;" glyph-name="adieresis" horiz-adv-x="365" d="M118 209T89 209Q68 209 56 221T44 257Q44 291 77 311T165 332Q229 332 265 304T302 228V55Q302 27 322 27Q341 27 359 42L367 32Q330 -9 279 -9Q249 -9 234 6T215 53H211Q195 24 169 8T108
-9Q70 -9 47 14T24 76Q24 119 65 144T176 169Q189 169 213 167V217Q213 266 201 287T162 309Q143 309 132 297T121 266Q121 236 139 221Q118 209 89 209ZM213 41T213 148Q163 148 138 132T113 85Q113 65 124 53T154 41Q213 41 213 148ZM51 438T68 457T100 476Q115
476 132 457T150 423Q150 407 133 389T100 371Q86 371 69 389T51 423Q51 438 68 457ZM185 438T202 457T234 476Q249 476 267 457T285 423Q285 407 267 389T234 371Q220 371 203 389T185 423Q185 438 202 457Z" />
<glyph unicode="&#xe5;" glyph-name="aring" horiz-adv-x="365" d="M118 209T89 209Q68 209 56 221T44 257Q44 291 77 311T165 332Q229 332 265 304T302 228V55Q302 27 322 27Q341 27 359 42L367 32Q330 -9 279 -9Q249 -9 234 6T215 53H211Q195 24 169 8T108 -9Q70
-9 47 14T24 76Q24 119 65 144T176 169Q189 169 213 167V217Q213 266 201 287T162 309Q143 309 132 297T121 266Q121 236 139 221Q118 209 89 209ZM213 41T213 148Q163 148 138 132T113 85Q113 65 124 53T154 41Q213 41 213 148ZM129 356T109 376T88 428Q88 460
108 480T167 500Q207 500 228 480T249 428Q249 396 228 376T167 356Q129 356 109 376ZM179 375T185 390T192 428Q192 451 186 466T167 481Q156 481 150 466T143 428Q143 406 149 391T167 375Q179 375 185 390Z" />
<glyph unicode="&#xe6;" glyph-name="ae" horiz-adv-x="535" d="M436 24T457 36T498 70L510 61Q489 30 455 11T375 -9Q324 -9 285 18T229 92Q215 38 183 15T111 -9Q72 -9 48 13T24 76Q24 118 63 143T176 169Q200 169 213 167V217Q213 266 201 287T162 309Q143
309 132 297T121 266Q121 236 139 221Q118 209 89 209Q68 209 56 221T44 257Q44 291 77 311T165 332Q238 332 275 296Q319 332 386 332Q443 332 478 305T514 237Q514 197 477 170T363 142Q349 142 311 146Q315 91 339 58T405 24Q436 24 457 36ZM345 308T328 270T310
166V160Q320 160 338 162Q385 167 406 188T427 239Q427 268 413 288T375 308Q345 308 328 270ZM188 52T200 76T213 151Q113 151 113 89Q113 68 121 57T144 43L152 42Q159 42 167 45Q188 52 200 76Z" />
<glyph unicode="&#xe7;" glyph-name="ccedilla" horiz-adv-x="336" d="M243 24T264 35T305 67L317 59Q296 29 262 10T183 -9H172L145 -42L148 -45Q157 -42 170 -42Q207 -42 234 -60T262 -114Q262 -149 231 -170T152 -192Q118 -192 94 -180T70 -144Q70 -129 80
-118T109 -106Q127 -106 139 -112Q135 -116 132 -124T129 -142Q129 -157 136 -165T156 -174Q174 -174 184 -157T194 -116Q194 -91 182 -77T149 -63Q132 -63 115 -73L103 -61L148 -6Q91 5 57 50T23 159Q23 238 70 285T195 332Q250 332 284 308T318 244Q318 211 298
192T249 173Q226 173 207 185Q229 205 229 241Q229 270 217 288T182 307Q156 307 140 267T123 161Q123 99 146 62T213 24Q243 24 264 35Z" />
<glyph unicode="&#xe8;" glyph-name="egrave" horiz-adv-x="345" d="M243 24T265 34T308 70L320 61Q297 28 262 10T184 -9Q138 -9 102 13T44 73T23 161Q23 239 70 285T197 332Q253 332 288 306T324 237Q324 189 284 161T173 132Q145 132 122 136Q127 84 152 54T214
24Q243 24 265 34ZM155 308T138 271T120 166V150Q131 150 147 152Q189 157 211 179T234 239Q234 269 221 288T186 308Q155 308 138 271ZM230 369L147 399Q104 414 104 449Q104 480 141 494L243 385L230 369Z" />
<glyph unicode="&#xe9;" glyph-name="eacute" horiz-adv-x="345" d="M243 24T265 34T308 70L320 61Q297 28 262 10T184 -9Q138 -9 102 13T44 73T23 161Q23 239 70 285T197 332Q253 332 288 306T324 237Q324 189 284 161T173 132Q145 132 122 136Q127 84 152 54T214
24Q243 24 265 34ZM155 308T138 271T120 166V150Q131 150 147 152Q189 157 211 179T234 239Q234 269 221 288T186 308Q155 308 138 271ZM269 479T269 449Q269 414 225 399L143 369L130 385L232 494Q269 479 269 449Z" />
<glyph unicode="&#xea;" glyph-name="ecircumflex" horiz-adv-x="345" d="M243 24T265 34T308 70L320 61Q297 28 262 10T184 -9Q138 -9 102 13T44 73T23 161Q23 239 70 285T197 332Q253 332 288 306T324 237Q324 189 284 161T173 132Q145 132 122 136Q127 84 152
54T214 24Q243 24 265 34ZM155 308T138 271T120 166V150Q131 150 147 152Q189 157 211 179T234 239Q234 269 221 288T186 308Q155 308 138 271ZM269 369L187 425L105 369L90 382Q109 418 131 447T170 491H204Q237 465 284 382L269 369Z" />
<glyph unicode="&#xeb;" glyph-name="edieresis" horiz-adv-x="345" d="M243 24T265 34T308 70L320 61Q297 28 262 10T184 -9Q138 -9 102 13T44 73T23 161Q23 239 70 285T197 332Q253 332 288 306T324 237Q324 189 284 161T173 132Q145 132 122 136Q127 84 152
54T214 24Q243 24 265 34ZM155 308T138 271T120 166V150Q131 150 147 152Q189 157 211 179T234 239Q234 269 221 288T186 308Q155 308 138 271ZM70 438T87 457T119 476Q134 476 151 457T169 423Q169 407 152 389T119 371Q105 371 88 389T70 423Q70 438 87 457ZM204
438T221 457T253 476Q268 476 286 457T304 423Q304 407 286 389T253 371Q239 371 222 389T204 423Q204 438 221 457Z" />
<glyph unicode="&#xec;" glyph-name="igrave" horiz-adv-x="212" d="M149 27T168 27Q187 27 205 42L213 32Q176 -9 126 -9Q90 -9 74 9T58 70V268Q58 282 45 282H14L11 293Q31 310 61 321T121 332Q133 332 141 326T149 310V57Q149 27 168 27ZM149 369L66 399Q23
414 23 449Q23 480 60 494L162 385L149 369Z" />
<glyph unicode="&#xed;" glyph-name="iacute" horiz-adv-x="212" d="M149 27T168 27Q187 27 205 42L213 32Q176 -9 126 -9Q90 -9 74 9T58 70V268Q58 282 45 282H14L11 293Q31 310 61 321T121 332Q133 332 141 326T149 310V57Q149 27 168 27ZM188 479T188 449Q188
414 144 399L62 369L49 385L151 494Q188 479 188 449Z" />
<glyph unicode="&#xee;" glyph-name="icircumflex" horiz-adv-x="212" d="M149 27T168 27Q187 27 205 42L213 32Q176 -9 126 -9Q90 -9 74 9T58 70V268Q58 282 45 282H14L11 293Q31 310 61 321T121 332Q133 332 141 326T149 310V57Q149 27 168 27ZM188 369L106
425L24 369L9 382Q28 418 50 447T89 491H123Q156 465 203 382L188 369Z" />
<glyph unicode="&#xef;" glyph-name="idieresis" horiz-adv-x="212" d="M149 27T168 27Q187 27 205 42L213 32Q176 -9 126 -9Q90 -9 74 9T58 70V268Q58 282 45 282H14L11 293Q31 310 61 321T121 332Q133 332 141 326T149 310V57Q149 27 168 27ZM-11 438T6 457T38
476Q53 476 70 457T88 423Q88 407 71 389T38 371Q24 371 7 389T-11 423Q-11 438 6 457ZM123 438T140 457T172 476Q187 476 205 457T223 423Q223 407 205 389T172 371Q158 371 141 389T123 423Q123 438 140 457Z" />
<glyph unicode="&#xf0;" glyph-name="eth" horiz-adv-x="394" d="M332 375T350 310T369 175Q369 87 324 39T196 -9Q116 -9 70 35T23 155Q23 230 63 274T171 319Q223 319 257 285L261 287Q252 347 238 392L164 355Q164 375 167 383T179 396L227 420Q197 489 154
489Q134 489 122 473T109 430Q109 407 115 388T133 358L130 349Q84 349 58 370T31 426Q31 465 67 489T160 514Q192 514 223 497T281 447L360 487Q360 467 357 459T346 446L299 423Q332 375 350 310ZM233 13T253 50T274 146Q274 209 253 248T198 287Q163 287 143
250T122 149Q122 88 143 51T199 13Q233 13 253 50Z" />
<glyph unicode="&#xf1;" glyph-name="ntilde" horiz-adv-x="441" d="M371 27T390 27Q409 27 427 42L435 32Q398 -9 348 -9Q312 -9 297 9T281 70V223Q281 281 244 281Q208 281 186 232T163 104Q163 74 168 56T184 20L192 10L184 0H39L33 17L47 20Q63 24 68 32T73
66V261Q73 280 60 280H28L25 291Q45 308 75 319T135 330Q148 330 155 324T163 308V222Q177 269 213 300T289 332Q332 332 351 304T371 215V57Q371 27 390 27ZM303 421T284 403T245 385Q234 385 227 388T208 398Q201 403 194 406T178 410Q158 410 130 385L114 400Q135
434 154 452T193 470Q204 470 211 467T229 456Q247 444 260 444Q280 444 307 470L324 455Q303 421 284 403Z" />
<glyph unicode="&#xf2;" glyph-name="ograve" horiz-adv-x="385" d="M23 240T68 286T192 332Q270 332 316 286T362 161Q362 83 316 37T192 -9Q114 -9 69 37T23 161Q23 240 68 286ZM261 226T242 268T194 311Q162 311 142 270T122 161Q122 93 140 53T190 13Q221
13 241 53T261 159Q261 226 242 268ZM235 369L152 399Q109 414 109 449Q109 480 146 494L248 385L235 369Z" />
<glyph unicode="&#xf3;" glyph-name="oacute" horiz-adv-x="385" d="M23 240T68 286T192 332Q270 332 316 286T362 161Q362 83 316 37T192 -9Q114 -9 69 37T23 161Q23 240 68 286ZM261 226T242 268T194 311Q162 311 142 270T122 161Q122 93 140 53T190 13Q221
13 241 53T261 159Q261 226 242 268ZM274 479T274 449Q274 414 230 399L148 369L135 385L237 494Q274 479 274 449Z" />
<glyph unicode="&#xf4;" glyph-name="ocircumflex" horiz-adv-x="385" d="M23 240T68 286T192 332Q270 332 316 286T362 161Q362 83 316 37T192 -9Q114 -9 69 37T23 161Q23 240 68 286ZM261 226T242 268T194 311Q162 311 142 270T122 161Q122 93 140 53T190 13Q221
13 241 53T261 159Q261 226 242 268ZM274 369L192 425L110 369L95 382Q114 418 136 447T175 491H209Q242 465 289 382L274 369Z" />
<glyph unicode="&#xf5;" glyph-name="otilde" horiz-adv-x="385" d="M23 240T68 286T192 332Q270 332 316 286T362 161Q362 83 316 37T192 -9Q114 -9 69 37T23 161Q23 240 68 286ZM261 226T242 268T194 311Q162 311 142 270T122 161Q122 93 140 53T190 13Q221
13 241 53T261 159Q261 226 242 268ZM275 421T256 403T217 385Q206 385 199 388T180 398Q173 403 166 406T150 410Q130 410 102 385L86 400Q107 434 126 452T165 470Q176 470 183 467T201 456Q219 444 232 444Q252 444 279 470L296 455Q275 421 256 403Z" />
<glyph unicode="&#xf6;" glyph-name="odieresis" horiz-adv-x="385" d="M23 240T68 286T192 332Q270 332 316 286T362 161Q362 83 316 37T192 -9Q114 -9 69 37T23 161Q23 240 68 286ZM261 226T242 268T194 311Q162 311 142 270T122 161Q122 93 140 53T190 13Q221
13 241 53T261 159Q261 226 242 268ZM75 438T92 457T124 476Q139 476 156 457T174 423Q174 407 157 389T124 371Q110 371 93 389T75 423Q75 438 92 457ZM209 438T226 457T258 476Q273 476 291 457T309 423Q309 407 291 389T258 371Q244 371 227 389T209 423Q209
438 226 457Z" />
<glyph unicode="&#xf7;" glyph-name="divide" horiz-adv-x="405" d="M156 361T172 379T203 397Q216 397 233 379T250 347Q250 332 234 315T203 297Q189 297 173 314T156 347Q156 361 172 379ZM340 257V207H65V257H340ZM156 131T172 149T203 167Q216 167 233 149T250
117Q250 102 234 85T203 67Q189 67 173 84T156 117Q156 131 172 149Z" />
<glyph unicode="&#xf8;" glyph-name="oslash" horiz-adv-x="385" d="M319 292T340 253T362 161Q362 83 316 37T192 -9Q160 -9 136 -2L117 -43H78L103 12Q64 32 44 70T23 161Q23 240 68 286T192 332Q221 332 245 326L265 369H306L280 312Q319 292 340 253ZM122
109T132 76L229 291Q214 311 194 311Q162 311 142 270T122 161Q122 109 132 76ZM221 13T241 53T261 159Q261 209 250 247L152 33Q167 13 190 13Q221 13 241 53Z" />
<glyph unicode="&#xf9;" glyph-name="ugrave" horiz-adv-x="429" d="M254 47T220 19T146 -9Q102 -9 81 19T60 105V268Q60 282 47 282H16L13 293Q33 310 63 321T122 332Q135 332 142 326T150 310V110Q150 76 160 58T188 39Q225 39 247 84T270 203Q270 242 265 263T245
301L236 312L244 321L359 330V57Q359 27 377 27Q396 27 414 42L422 32Q387 -9 335 -9Q297 -9 283 13T268 91Q254 47 220 19ZM257 369L174 399Q131 414 131 449Q131 480 168 494L270 385L257 369Z" />
<glyph unicode="&#xfa;" glyph-name="uacute" horiz-adv-x="429" d="M254 47T220 19T146 -9Q102 -9 81 19T60 105V268Q60 282 47 282H16L13 293Q33 310 63 321T122 332Q135 332 142 326T150 310V110Q150 76 160 58T188 39Q225 39 247 84T270 203Q270 242 265 263T245
301L236 312L244 321L359 330V57Q359 27 377 27Q396 27 414 42L422 32Q387 -9 335 -9Q297 -9 283 13T268 91Q254 47 220 19ZM296 479T296 449Q296 414 252 399L170 369L157 385L259 494Q296 479 296 449Z" />
<glyph unicode="&#xfb;" glyph-name="ucircumflex" horiz-adv-x="429" d="M254 47T220 19T146 -9Q102 -9 81 19T60 105V268Q60 282 47 282H16L13 293Q33 310 63 321T122 332Q135 332 142 326T150 310V110Q150 76 160 58T188 39Q225 39 247 84T270 203Q270 242
265 263T245 301L236 312L244 321L359 330V57Q359 27 377 27Q396 27 414 42L422 32Q387 -9 335 -9Q297 -9 283 13T268 91Q254 47 220 19ZM296 369L214 425L132 369L117 382Q136 418 158 447T197 491H231Q264 465 311 382L296 369Z" />
<glyph unicode="&#xfc;" glyph-name="udieresis" horiz-adv-x="429" d="M254 47T220 19T146 -9Q102 -9 81 19T60 105V268Q60 282 47 282H16L13 293Q33 310 63 321T122 332Q135 332 142 326T150 310V110Q150 76 160 58T188 39Q225 39 247 84T270 203Q270 242 265
263T245 301L236 312L244 321L359 330V57Q359 27 377 27Q396 27 414 42L422 32Q387 -9 335 -9Q297 -9 283 13T268 91Q254 47 220 19ZM97 438T114 457T146 476Q161 476 178 457T196 423Q196 407 179 389T146 371Q132 371 115 389T97 423Q97 438 114 457ZM231 438T248
457T280 476Q295 476 313 457T331 423Q331 407 313 389T280 371Q266 371 249 389T231 423Q231 438 248 457Z" />
<glyph unicode="&#xfd;" glyph-name="yacute" horiz-adv-x="406" d="M350 330V0Q350 -79 305 -122T178 -166Q128 -166 97 -147T66 -97Q66 -70 82 -54T124 -37Q143 -37 161 -45Q143 -63 143 -94Q143 -116 156 -130T191 -144Q261 -144 261 -30V97Q248 59 216 35T146
10Q102 10 81 37T60 119V268Q60 282 47 282H16L13 293Q32 310 63 321T122 332Q135 332 142 326T150 310V108Q150 52 185 52Q219 52 240 93T261 202Q261 238 255 261T236 301L228 312L235 321L350 330ZM285 479T285 449Q285 414 241 399L159 369L146 385L248 494Q285
479 285 449Z" />
<glyph unicode="&#xfe;" glyph-name="thorn" horiz-adv-x="399" d="M313 332T344 288T376 171Q376 120 358 80T306 17T230 -6Q206 -6 185 1T148 22V-91Q148 -115 154 -123T185 -137L198 -140L192 -157H37L29 -147L37 -137Q49 -121 53 -103T58 -53V423Q58 431 55
436T45 441H14L11 451Q29 469 59 479T120 490Q133 490 140 485T148 469V263Q173 299 200 315T262 332Q313 332 344 288ZM233 23T254 58T276 161Q276 220 260 251T214 283Q174 283 148 230V36Q167 23 192 23Q233 23 254 58Z" />
<glyph unicode="&#xff;" glyph-name="ydieresis" horiz-adv-x="406" d="M350 330V0Q350 -79 305 -122T178 -166Q128 -166 97 -147T66 -97Q66 -70 82 -54T124 -37Q143 -37 161 -45Q143 -63 143 -94Q143 -116 156 -130T191 -144Q261 -144 261 -30V97Q248 59 216
35T146 10Q102 10 81 37T60 119V268Q60 282 47 282H16L13 293Q32 310 63 321T122 332Q135 332 142 326T150 310V108Q150 52 185 52Q219 52 240 93T261 202Q261 238 255 261T236 301L228 312L235 321L350 330ZM86 438T103 457T135 476Q150 476 167 457T185 423Q185
407 168 389T135 371Q121 371 104 389T86 423Q86 438 103 457ZM220 438T237 457T269 476Q284 476 302 457T320 423Q320 407 302 389T269 371Q255 371 238 389T220 423Q220 438 237 457Z" />
<glyph unicode="&#x2013;" glyph-name="endash" horiz-adv-x="506" d="M33 177T37 190T49 209L475 216Q475 183 458 170L33 164Q33 177 37 190Z" />
<glyph unicode="&#x2014;" glyph-name="emdash" horiz-adv-x="592" d="M33 177T37 190T49 209L558 216Q558 183 541 170L33 164Q33 177 37 190Z" />
<glyph unicode="&#x2018;" glyph-name="quoteleft" horiz-adv-x="146" d="M94 316T65 316Q41 316 27 328T12 368Q12 392 26 415T71 475L102 509L129 491L100 426Q91 408 91 392Q91 372 108 358L120 350L123 331L115 327Q94 316 65 316Z" />
<glyph unicode="&#x2019;" glyph-name="quoteright" horiz-adv-x="146" d="M53 521T82 521Q106 521 120 509T135 469Q135 445 121 422T76 362L45 328L18 346L47 411Q56 429 56 445Q56 465 39 479L27 487L24 506L32 510Q53 521 82 521Z" />
<glyph unicode="&#x201a;" glyph-name="quotesinglbase" horiz-adv-x="144" d="M45 102T74 102Q98 102 112 90T127 50Q127 26 113 3T68 -57L37 -91L10 -73L39 -8Q48 10 48 26Q48 46 31 60L19 68L16 87L24 91Q45 102 74 102Z" />
<glyph unicode="&#x201c;" glyph-name="quotedblleft" horiz-adv-x="277" d="M94 316T65 316Q41 316 27 328T12 368Q12 392 26 415T71 475L102 509L129 491L100 426Q91 408 91 392Q91 372 108 358L120 350L123 331L115 327Q94 316 65 316ZM224 316T195 316Q171
316 157 328T142 368Q142 392 156 415T201 475L232 509L259 491L230 426Q221 408 221 392Q221 372 238 358L250 350L253 331L245 327Q224 316 195 316Z" />
<glyph unicode="&#x201d;" glyph-name="quotedblright" horiz-adv-x="277" d="M53 521T82 521Q106 521 120 509T135 469Q135 445 121 422T76 362L45 328L18 346L47 411Q56 429 56 445Q56 465 39 479L27 487L24 506L32 510Q53 521 82 521ZM183 521T212 521Q236
521 250 509T265 469Q265 445 251 422T206 362L175 328L148 346L177 411Q186 429 186 445Q186 465 169 479L157 487L154 506L162 510Q183 521 212 521Z" />
<glyph unicode="&#x201e;" glyph-name="quotedblbase" horiz-adv-x="274" d="M45 103T74 103Q98 103 112 91T127 51Q127 27 113 4T68 -56L37 -90L10 -72L39 -7Q48 11 48 27Q48 47 31 61L19 69L16 88L24 92Q45 103 74 103ZM176 103T205 103Q229 103 243 91T258
51Q258 27 244 4T199 -56L168 -90L141 -72L170 -7Q179 11 179 27Q179 47 162 61L150 69L147 88L155 92Q176 103 205 103Z" />
<glyph unicode="&#x2022;" glyph-name="bullet" horiz-adv-x="194" d="M24 232T36 250T65 282T97 295Q111 295 128 282T158 251T171 217Q171 202 159 184T129 153T97 140Q83 140 66 153T36 184T24 217Q24 232 36 250Z" />
<glyph unicode="&#x2039;" glyph-name="guilsinglleft" horiz-adv-x="191" d="M158 63T140 53T100 40Q54 115 39 141T24 181Q24 193 39 222T100 323Q147 317 172 275Q162 259 135 232T102 201L81 181Q108 156 135 129T172 88Q158 63 140 53Z" />
<glyph unicode="&#x203a;" glyph-name="guilsinglright" horiz-adv-x="191" d="M34 111T110 181Q34 253 19 275Q42 316 90 323Q137 248 152 221T167 181Q167 169 152 142T90 40Q42 47 19 88Q34 111 110 181Z" />
</font>
</defs>
</svg>
