<?xml version="1.0" standalone="no"?>
<!DOCTYPE svg PUBLIC "-//W3C//DTD SVG 1.1//EN" "http://www.w3.org/Graphics/SVG/1.1/DTD/svg11.dtd">
<svg xmlns="http://www.w3.org/2000/svg">
<defs >
<font id="Assistant" horiz-adv-x="492" ><font-face
    font-family="Assistant SemiBold"
    units-per-em="1000"
    panose-1="0 0 7 0 0 0 0 0 0 0"
    ascent="1021"
    descent="-287"
    alphabetic="0" />
<glyph unicode=" " glyph-name="space" horiz-adv-x="200" />
<glyph unicode="!" glyph-name="exclam" horiz-adv-x="304" d="M104 565L101 670H203L200 565L186 208H118L104 565ZM123 -12T104 8T84 59Q84 90 103 110T152 131Q181 131 200 111T220 59Q220 28 201 8T152 -12Q123 -12 104 8Z" />
<glyph unicode="&quot;" glyph-name="quotedbl" horiz-adv-x="458" d="M82 585L79 689H184L181 585L161 409H102L82 585ZM276 585L273 689H378L375 585L355 409H296L276 585Z" />
<glyph unicode="#" glyph-name="numbersign" horiz-adv-x="506" d="M113 199H35V267H121L138 404H55V472H146L169 650H231L209 472H333L356 650H418L396 472H476V404H388L371 267H456V199H363L339 0H276L300 199H176L152 0H89L113 199ZM308 267L325 404H201L184 267H308Z" />
<glyph unicode="$" glyph-name="dollar" horiz-adv-x="506" d="M446 100T405 52T291 -8V-110H220V-11Q173 -6 127 14T48 66L94 135Q172 71 245 71Q296 71 322 95T348 164Q348 196 332 219T291 257T224 295Q176 319 146 340T94 394T73 474Q73 542 113 588T220 646V747H291V647Q336
642 370 623T435 570L382 511Q352 540 326 553T264 566Q221 566 196 543T171 479Q171 452 186 432T223 399T285 366Q336 341 368 320T423 262T446 171Q446 100 405 52Z" />
<glyph unicode="%" glyph-name="percent" horiz-adv-x="829" d="M116 263T74 318T32 471Q32 568 74 622T185 677Q254 677 296 623T338 471Q338 373 296 318T185 263Q116 263 74 318ZM561 667H625L266 -12H202L561 667ZM221 323T242 360T264 471Q264 544 243 580T185
617Q149 617 128 581T106 471Q106 398 127 361T185 323Q221 323 242 360ZM575 -12T533 43T491 196Q491 293 533 347T644 402Q713 402 755 348T797 196Q797 98 755 43T644 -12Q575 -12 533 43ZM680 48T701 85T723 196Q723 269 702 305T644 342Q608 342 587 306T565
196Q565 123 586 86T644 48Q680 48 701 85Z" />
<glyph unicode="&amp;" glyph-name="ampersand" horiz-adv-x="626" d="M584 -12Q511 6 429 61Q346 -12 235 -12Q174 -12 128 12T56 77T30 171Q30 232 63 275T156 359Q114 441 114 507Q114 551 134 588T190 646T273 667Q337 667 374 630T411 532Q411 474 374 432T266
340Q333 247 423 176Q482 254 510 358H603Q563 223 490 128Q559 84 610 71L584 -12ZM200 461T228 405Q278 437 304 465T331 531Q331 560 317 578T274 597Q241 597 221 572T200 508Q200 461 228 405ZM127 128T161 98T247 67Q303 67 361 112Q263 196 198 290Q164
263 146 236T127 177Q127 128 161 98Z" />
<glyph unicode="&apos;" glyph-name="quotesingle" horiz-adv-x="264" d="M82 585L79 689H184L181 585L161 409H102L82 585Z" />
<glyph unicode="(" glyph-name="parenleft" horiz-adv-x="315" d="M146 -71T113 40T79 278Q79 405 112 516T211 733L274 705Q218 611 190 502T162 278Q162 164 190 55T274 -149L211 -177Q146 -71 113 40Z" />
<glyph unicode=")" glyph-name="parenright" horiz-adv-x="315" d="M41 -149Q97 -55 125 54T153 278Q153 392 125 501T41 705L104 733Q169 627 202 516T236 278Q236 151 203 40T104 -177L41 -149Z" />
<glyph unicode="*" glyph-name="asterisk" horiz-adv-x="429" d="M95 433L152 530L52 573L70 626L176 601L186 712H243L253 602L360 626L377 573L277 530L334 433L288 400L215 486L141 400L95 433Z" />
<glyph unicode="+" glyph-name="plus" horiz-adv-x="506" d="M214 293H34V367H214V559H292V367H472V293H292V101H214V293Z" />
<glyph unicode="," glyph-name="comma" horiz-adv-x="264" d="M173 131T194 102T215 22Q215 -47 177 -99T70 -177L47 -120Q93 -101 118 -70T144 2Q141 1 134 1Q106 1 86 18T66 66Q66 95 86 113T136 131Q173 131 194 102Z" />
<glyph unicode="-" glyph-name="hyphen" horiz-adv-x="317" d="M42 289H276V214H42V289Z" />
<glyph unicode="." glyph-name="period" horiz-adv-x="264" d="M103 -12T84 8T64 59Q64 90 83 110T132 131Q161 131 180 111T200 59Q200 28 181 8T132 -12Q103 -12 84 8Z" />
<glyph unicode="/" glyph-name="slash" horiz-adv-x="347" d="M259 710H329L81 -160H11L259 710Z" />
<glyph unicode="0" glyph-name="zero" horiz-adv-x="506" d="M154 -12T98 75T42 321Q42 480 98 564T253 649Q352 649 408 564T464 321Q464 162 408 75T253 -12Q154 -12 98 75ZM306 68T336 129T367 321Q367 569 253 569Q139 569 139 321Q139 190 169 129T253 68Q306
68 336 129Z" />
<glyph unicode="1" glyph-name="one" horiz-adv-x="463" d="M45 83H189V523H72V587Q157 602 214 637H290V83H418V0H45V83Z" />
<glyph unicode="2" glyph-name="two" horiz-adv-x="506" d="M39 59Q148 166 206 229T298 348T332 452Q332 506 303 537T220 568Q155 568 91 495L34 551Q79 600 125 624T233 649Q323 649 376 597T430 457Q430 402 400 344T320 228T186 80Q254 86 293 86H461V0H39V59Z" />
<glyph unicode="3" glyph-name="three" horiz-adv-x="506" d="M106 -12T25 78L74 143Q107 110 145 91T230 71Q285 71 319 99T354 176Q354 232 310 262T160 292V367Q332 367 332 476Q332 519 305 543T231 568Q164 568 100 506L47 569Q136 649 235 649Q325 649 379
605T434 484Q434 379 321 335V331Q381 316 418 275T456 171Q456 115 427 74T349 10T238 -12Q106 -12 25 78Z" />
<glyph unicode="4" glyph-name="four" horiz-adv-x="506" d="M479 169H396V0H301V169H18V237L279 637H396V248H479V169ZM301 248V410Q301 451 306 538H302Q298 531 269 477Q265 471 261 463T250 443L120 248H301Z" />
<glyph unicode="5" glyph-name="five" horiz-adv-x="506" d="M167 -12T116 12T24 76L72 141Q105 109 142 90T226 71Q283 71 319 107T356 203Q356 263 322 297T231 331Q201 331 179 323T126 294L76 326L96 637H427V551H184L169 382Q212 405 259 405Q346 405 402
355T458 206Q458 139 428 90T347 14T238 -12Q167 -12 116 12Z" />
<glyph unicode="6" glyph-name="six" horiz-adv-x="506" d="M368 392T417 342T467 195Q467 134 441 87T370 14T272 -12Q208 -12 157 22T76 126T46 297Q46 417 79 496T169 612T293 649Q390 649 456 579L401 517Q383 539 355 552T298 566Q230 566 187 507T140 315Q168
350 207 371T283 392Q368 392 417 342ZM315 66T344 101T373 195Q373 254 345 286T265 318Q234 318 203 299T143 239Q151 153 184 110T271 66Q315 66 344 101Z" />
<glyph unicode="7" glyph-name="seven" horiz-adv-x="506" d="M180 176T220 299T352 551H44V637H464V575Q390 483 352 400T297 226T275 0H172Q180 176 220 299Z" />
<glyph unicode="8" glyph-name="eight" horiz-adv-x="506" d="M194 -12T145 10T69 73T41 163Q41 219 74 261T158 330V334Q70 396 70 482Q70 532 94 569T161 628T257 649Q341 649 391 602T441 478Q441 433 416 394T355 329V325Q406 295 435 257T465 160Q465 112
439 73T364 11T254 -12Q194 -12 145 10ZM356 410T356 472Q356 518 329 547T255 576Q214 576 188 551T161 482Q161 435 195 408T297 354Q356 410 356 472ZM307 61T338 89T370 163Q370 198 350 222T299 261T208 301Q173 276 152 244T131 173Q131 124 166 93T256 61Q307
61 338 89Z" />
<glyph unicode="9" glyph-name="nine" horiz-adv-x="506" d="M297 649T348 615T429 511T459 340Q459 220 426 141T336 25T212 -12Q115 -12 49 58L104 120Q123 98 150 85T207 71Q276 71 319 130T365 322Q337 286 298 266T222 245Q137 245 88 295T38 442Q38 503
64 550T135 623T233 649Q297 649 348 615ZM271 319T303 338T362 398Q354 484 321 527T234 571Q190 571 161 536T132 442Q132 383 160 351T240 319Q271 319 303 338Z" />
<glyph unicode=":" glyph-name="colon" horiz-adv-x="264" d="M103 338T84 358T64 409Q64 440 83 460T132 481Q161 481 180 461T200 409Q200 378 181 358T132 338Q103 338 84 358ZM103 -12T84 8T64 59Q64 90 83 110T132 131Q161 131 180 111T200 59Q200 28 181
8T132 -12Q103 -12 84 8Z" />
<glyph unicode=";" glyph-name="semicolon" horiz-adv-x="264" d="M103 338T84 358T64 409Q64 440 83 460T132 481Q161 481 180 461T200 409Q200 378 181 358T132 338Q103 338 84 358ZM173 131T194 102T215 22Q215 -47 177 -99T70 -177L47 -120Q93 -101 118 -70T144
2Q141 1 134 1Q106 1 86 18T66 66Q66 95 86 113T136 131Q173 131 194 102Z" />
<glyph unicode="&lt;" glyph-name="less" horiz-adv-x="506" d="M34 294V370L472 541V455L137 334V330L472 209V123L34 294Z" />
<glyph unicode="=" glyph-name="equal" horiz-adv-x="506" d="M34 477H472V403H34V477ZM34 513H472V439H34V513Z" />
<glyph unicode="&gt;" glyph-name="greater" horiz-adv-x="506" d="M34 209L369 330V334L34 455V541L472 370V294L34 123V209Z" />
<glyph unicode="?" glyph-name="question" horiz-adv-x="436" d="M156 228T156 235Q156 282 176 318T233 399Q262 434 277 459T292 512Q292 551 269 575T204 599Q145 599 96 545L39 597Q115 682 216 682Q295 682 342 639T390 519Q390 478 372 446T318 371Q282
330 264 298T246 226Q246 214 247 208H158Q156 228 156 235ZM175 -12T156 8T136 59Q136 90 155 110T204 131Q233 131 252 111T272 59Q272 28 253 8T204 -12Q175 -12 156 8Z" />
<glyph unicode="@" glyph-name="at" horiz-adv-x="863" d="M309 -160T228 -118T98 6T50 204Q50 336 108 438T264 596T477 653Q579 653 655 611T772 491T813 314Q813 230 782 170T703 78T605 46Q562 46 533 66T498 122H496Q472 92 439 73T375 54Q320 54 286 92T251
198Q251 254 276 309T346 399T446 434Q499 434 525 385H527L539 426H604L563 220Q556 195 556 172Q556 112 615 112Q647 112 677 136T726 206T745 311Q745 391 714 453T621 552T469 588Q380 588 300 540T171 405T122 207Q122 112 160 44T266 -60T418 -95Q460 -95
501 -84T577 -52L602 -110Q515 -160 410 -160Q309 -160 228 -118ZM435 121T480 176L507 328Q495 348 481 357T448 366Q413 366 387 341T345 279T330 204Q330 162 347 142T395 121Q435 121 480 176Z" />
<glyph unicode="A" glyph-name="A" horiz-adv-x="552" d="M388 187H160L104 0H0L217 655H335L552 0H444L388 187ZM364 268L338 356Q324 403 307 465T281 555Q280 563 276 574H272Q240 451 211 356L185 268H364Z" />
<glyph unicode="B" glyph-name="B" horiz-adv-x="593" d="M86 655H289Q396 655 457 617T519 494Q519 445 494 406T426 352V348Q485 335 520 296T555 192Q555 98 487 49T305 0H86V655ZM277 381Q419 381 419 480Q419 531 385 553T280 575H188V381H277ZM293 80Q372
80 413 109T455 197Q455 304 293 304H188V80H293Z" />
<glyph unicode="C" glyph-name="C" horiz-adv-x="574" d="M258 -12T192 28T88 144T50 326Q50 430 89 507T195 625T346 667Q403 667 450 644T531 585L476 519Q419 578 348 578Q291 578 248 548T180 461T155 329Q155 212 206 145T345 77Q427 77 490 147L545 83Q464
-12 341 -12Q258 -12 192 28Z" />
<glyph unicode="D" glyph-name="D" horiz-adv-x="621" d="M86 655H256Q408 655 489 572T571 330Q571 171 490 86T261 0H86V655ZM249 83Q355 83 410 145T466 330Q466 451 411 511T249 572H188V83H249Z" />
<glyph unicode="E" glyph-name="E" horiz-adv-x="533" d="M86 655H473V569H188V385H429V299H188V86H483V0H86V655Z" />
<glyph unicode="F" glyph-name="F" horiz-adv-x="503" d="M86 655H474V569H188V368H431V282H188V0H86V655Z" />
<glyph unicode="G" glyph-name="G" horiz-adv-x="623" d="M265 -12T197 28T89 144T50 326Q50 430 90 507T199 626T356 667Q470 667 550 585L495 519Q467 547 435 562T359 578Q298 578 252 548T181 462T155 329Q155 211 209 144T363 77Q394 77 422 85T467 110V264H337V348H559V65Q525
30 471 9T353 -12Q265 -12 197 28Z" />
<glyph unicode="H" glyph-name="H" horiz-adv-x="658" d="M86 655H188V387H470V655H572V0H470V298H188V0H86V655Z" />
<glyph unicode="I" glyph-name="I" horiz-adv-x="274" d="M86 655H188V0H86V655Z" />
<glyph unicode="J" glyph-name="J" horiz-adv-x="488" d="M88 -12T27 97L98 148Q138 77 205 77Q255 77 279 108T303 209V655H405V200Q405 106 358 47T216 -12Q88 -12 27 97Z" />
<glyph unicode="K" glyph-name="K" horiz-adv-x="589" d="M86 655H188V344H191L441 655H555L352 402L588 0H475L290 322L188 198V0H86V655Z" />
<glyph unicode="L" glyph-name="L" horiz-adv-x="495" d="M86 655H188V86H466V0H86V655Z" />
<glyph unicode="M" glyph-name="M" horiz-adv-x="737" d="M86 655H204L324 322L348 249L368 190H372Q388 238 392 252L415 322L533 655H651V0H557V326Q557 380 568 505L570 528H566L514 377L399 64H336L221 377L169 528H165L167 505Q178 380 178 326V0H86V655Z" />
<glyph unicode="N" glyph-name="N" horiz-adv-x="652" d="M86 655H191L409 268L478 130H482Q480 162 478 175Q477 186 473 242T469 347V655H566V0H461L243 388L174 525H170L174 475Q175 463 179 410T183 311V0H86V655Z" />
<glyph unicode="O" glyph-name="O" horiz-adv-x="670" d="M251 -12T187 29T86 148T50 330Q50 434 86 510T186 626T335 667Q419 667 483 627T584 510T620 330Q620 226 584 149T484 30T335 -12Q251 -12 187 29ZM389 77T430 108T493 196T515 330Q515 445 466 511T335
578Q253 578 204 512T155 330Q155 254 177 197T240 108T335 77Q389 77 430 108Z" />
<glyph unicode="P" glyph-name="P" horiz-adv-x="575" d="M86 655H284Q534 655 534 457Q534 354 467 302T288 249H188V0H86V655ZM278 331Q357 331 395 362T433 457Q433 520 395 546T274 573H188V331H278Z" />
<glyph unicode="Q" glyph-name="Q" horiz-adv-x="670" d="M640 -153Q600 -170 540 -170Q449 -170 384 -126T287 -8Q216 4 163 48T80 164T50 330Q50 434 86 510T186 626T335 667Q419 667 483 627T584 510T620 330Q620 193 559 104T395 -6Q417 -46 458 -66T551 -86Q591
-86 621 -76L640 -153ZM155 251T177 193T240 104T335 72Q389 72 430 103T493 193T515 330Q515 445 466 511T335 578Q253 578 204 512T155 330Q155 251 177 193Z" />
<glyph unicode="R" glyph-name="R" horiz-adv-x="582" d="M444 0L297 265H188V0H86V655H300Q410 655 473 611T536 465Q536 392 500 346T399 279L559 0H444ZM188 347H288Q360 347 397 376T435 465Q435 523 399 548T288 573H188V347Z" />
<glyph unicode="S" glyph-name="S" horiz-adv-x="540" d="M206 -12T146 13T40 85L100 155Q136 119 182 98T275 77Q333 77 366 102T399 171Q399 199 387 217T354 248T294 276L203 316Q70 371 70 487Q70 538 97 579T174 643T284 667Q341 667 393 645T482 585L429
520Q363 578 284 578Q233 578 203 555T173 493Q173 467 187 449T222 420T279 394L370 355Q434 329 468 288T503 179Q503 126 475 83T395 14T273 -12Q206 -12 146 13Z" />
<glyph unicode="T" glyph-name="T" horiz-adv-x="542" d="M220 569H27V655H515V569H322V0H220V569Z" />
<glyph unicode="U" glyph-name="U" horiz-adv-x="651" d="M211 -12T147 57T83 280V655H185V274Q185 168 222 123T326 77Q470 77 470 274V655H568V280Q568 127 504 58T326 -12Q211 -12 147 57Z" />
<glyph unicode="V" glyph-name="V" horiz-adv-x="527" d="M-2 655H106L204 315Q212 287 218 263T231 219Q251 143 264 101H268Q293 185 308 243Q306 236 328 315L425 655H529L324 0H204L-2 655Z" />
<glyph unicode="W" glyph-name="W" horiz-adv-x="794" d="M20 655H125L187 313Q211 173 222 103H226Q245 198 270 313L355 655H445L530 313L575 103H579L613 313L675 655H773L643 0H518L429 366Q411 450 399 516H395Q380 437 369 391Q368 381 364 366L277 0H154L20 655Z" />
<glyph unicode="X" glyph-name="X" horiz-adv-x="529" d="M202 338L26 655H139L219 500Q229 482 248 444L269 402H273Q300 464 318 500L395 655H503L327 333L515 0H402L315 164L261 270H257Q239 230 207 164L122 0H14L202 338Z" />
<glyph unicode="Y" glyph-name="Y" horiz-adv-x="490" d="M194 248L-3 655H106L183 480Q224 381 244 337H248L272 391Q303 463 310 480L387 655H493L296 248V0H194V248Z" />
<glyph unicode="Z" glyph-name="Z" horiz-adv-x="540" d="M42 61L371 569H72V655H497V594L168 86H500V0H42V61Z" />
<glyph unicode="[" glyph-name="bracketleft" horiz-adv-x="315" d="M92 708H280V652H168V-96H280V-152H92V708Z" />
<glyph unicode="\" glyph-name="backslash" horiz-adv-x="347" d="M18 710H88L336 -160H266L18 710Z" />
<glyph unicode="]" glyph-name="bracketright" horiz-adv-x="315" d="M35 -96H147V652H35V708H223V-152H35V-96Z" />
<glyph unicode="^" glyph-name="asciicircum" horiz-adv-x="506" d="M210 670H296L449 281H363L303 443L255 577H251L203 443L143 281H57L210 670Z" />
<glyph unicode="_" glyph-name="underscore" horiz-adv-x="500" d="M12 -67H488V-130H12V-67Z" />
<glyph unicode="`" glyph-name="grave" horiz-adv-x="546" d="M116 727L186 794L331 623L280 573L116 727Z" />
<glyph unicode="a" glyph-name="a" horiz-adv-x="511" d="M129 -12T89 26T49 130Q49 209 119 251T342 311Q340 419 248 419Q186 419 107 369L69 437Q169 501 266 501Q355 501 399 448T443 294V0H360L352 56H349Q268 -12 193 -12Q129 -12 89 26ZM255 68T282 82T342
126V247Q236 234 192 207T147 137Q147 103 168 86T224 68Q255 68 282 82Z" />
<glyph unicode="b" glyph-name="b" horiz-adv-x="559" d="M271 -12T236 4T169 51H166L157 0H77V709H178V521L175 437Q209 466 247 483T322 501Q414 501 464 434T515 253Q515 172 486 112T409 20T305 -12Q271 -12 236 4ZM341 72T376 119T411 251Q411 417 295 417Q240
417 178 357V117Q205 94 232 83T285 72Q341 72 376 119Z" />
<glyph unicode="c" glyph-name="c" horiz-adv-x="459" d="M210 -12T157 18T74 107T43 244Q43 323 76 381T164 470T284 501Q364 501 427 445L377 379Q355 398 334 408T289 418Q226 418 187 370T147 244Q147 166 185 119T286 71Q341 71 393 116L435 49Q402 19 361
4T276 -12Q210 -12 157 18Z" />
<glyph unicode="d" glyph-name="d" horiz-adv-x="560" d="M154 -12T100 56T45 244Q45 321 74 379T151 469T254 501Q293 501 323 488T386 446L382 527V709H483V0H400L392 55H389Q359 25 322 7T246 -12Q154 -12 100 56ZM301 72T328 86T382 132V372Q332 417 274 417Q239
417 211 396T166 336T149 245Q149 162 180 117T270 72Q301 72 328 86Z" />
<glyph unicode="e" glyph-name="e" horiz-adv-x="502" d="M465 242T461 218H138Q145 144 188 106T294 67Q353 67 411 104L446 40Q368 -12 281 -12Q214 -12 160 19T75 108T43 244Q43 321 74 379T157 469T266 501Q361 501 413 439T465 270Q465 242 461 218ZM377
288Q377 352 349 387T268 422Q222 422 186 388T140 288H377Z" />
<glyph unicode="f" glyph-name="f" horiz-adv-x="306" d="M195 640T195 552V489H294V408H195V0H94V408H28V484L94 489V551Q94 630 132 675T248 721Q292 721 334 704L314 628Q287 640 260 640Q195 640 195 552Z" />
<glyph unicode="g" glyph-name="g" horiz-adv-x="513" d="M154 -220T98 -187T42 -91Q42 -60 60 -33T113 16V20Q69 48 69 101Q69 128 84 152T123 192V196Q96 217 78 251T59 326Q59 379 84 419T153 480T248 501Q286 501 319 489H492V413H398Q413 397 422 374T431
323Q431 245 379 200T248 155Q212 155 179 170Q166 158 159 147T152 118Q152 95 171 83T234 70H325Q413 70 456 41T500 -49Q500 -96 469 -135T379 -197T245 -220Q154 -220 98 -187ZM288 220T314 249T341 326Q341 374 315 402T248 430Q208 430 182 402T155 326Q155
278 181 249T248 220Q288 220 314 249ZM301 -153T333 -141T384 -109T402 -65Q402 -35 380 -23T311 -11H236Q199 -11 171 -4Q128 -36 128 -76Q128 -112 163 -132T260 -153Q301 -153 333 -141Z" />
<glyph unicode="h" glyph-name="h" horiz-adv-x="552" d="M77 709H178V521L174 424Q212 460 249 480T333 501Q483 501 483 308V0H382V295Q382 358 363 386T299 414Q266 414 240 399T178 347V0H77V709Z" />
<glyph unicode="i" glyph-name="i" horiz-adv-x="255" d="M77 489H178V0H77V489ZM101 581T84 598T66 642Q66 668 83 685T128 702Q155 702 172 685T190 642Q190 615 173 598T128 581Q101 581 84 598Z" />
<glyph unicode="j" glyph-name="j" horiz-adv-x="256" d="M102 581T85 598T67 642Q67 668 84 685T129 702Q156 702 173 685T191 642Q191 615 174 598T129 581Q102 581 85 598ZM82 489H183L182 -38Q182 -211 36 -211Q-7 -211 -40 -198L-21 -122Q5 -130 23 -130Q56
-130 68 -108T81 -39L82 489Z" />
<glyph unicode="k" glyph-name="k" horiz-adv-x="510" d="M77 709H176V250H179L372 489H483L317 291L502 0H392L259 222L176 126V0H77V709Z" />
<glyph unicode="l" glyph-name="l" horiz-adv-x="264" d="M125 -12T101 20T77 114V709H178V108Q178 89 185 80T202 71Q211 71 220 73L233 -3Q210 -12 178 -12Q125 -12 101 20Z" />
<glyph unicode="m" glyph-name="m" horiz-adv-x="837" d="M77 489H160L168 421H171Q207 458 243 479T322 501Q423 501 457 411Q498 455 535 478T616 501Q691 501 728 452T766 308V0H665V295Q665 358 646 386T583 414Q533 414 472 347V0H371V295Q371 358 352 386T289
414Q239 414 178 347V0H77V489Z" />
<glyph unicode="n" glyph-name="n" horiz-adv-x="554" d="M77 489H160L168 421H171Q210 459 248 480T333 501Q483 501 483 308V0H382V295Q382 358 363 386T299 414Q266 414 240 399T178 347V0H77V489Z" />
<glyph unicode="o" glyph-name="o" horiz-adv-x="546" d="M212 -12T159 19T75 108T43 244Q43 323 74 381T158 470T273 501Q335 501 387 470T471 381T503 244Q503 166 472 108T387 19T273 -12Q212 -12 159 19ZM331 71T365 118T399 244Q399 322 365 370T273 418Q216
418 182 370T147 244Q147 166 181 119T273 71Q331 71 365 118Z" />
<glyph unicode="p" glyph-name="p" horiz-adv-x="560" d="M77 489H160L168 435H171Q250 501 322 501Q414 501 464 434T515 252Q515 171 486 112T409 20T305 -12Q241 -12 175 43L178 -40V-199H77V489ZM341 72T376 119T411 251Q411 417 295 417Q241 417 178 357V117Q231
72 285 72Q341 72 376 119Z" />
<glyph unicode="q" glyph-name="q" horiz-adv-x="560" d="M382 -33L386 52Q356 23 320 6T246 -12Q154 -12 100 56T45 244Q45 321 74 379T151 469T254 501Q295 501 326 487T391 442H394L403 489H483V-199H382V-33ZM301 72T328 86T382 132V372Q332 417 274 417Q239
417 211 396T166 336T149 245Q149 162 180 117T270 72Q301 72 328 86Z" />
<glyph unicode="r" glyph-name="r" horiz-adv-x="362" d="M77 489H160L168 401H171Q197 448 233 474T310 501Q343 501 364 491L346 403Q319 411 297 411Q264 411 232 386T178 305V0H77V489Z" />
<glyph unicode="s" glyph-name="s" horiz-adv-x="426" d="M161 -12T112 7T26 56L74 121Q109 94 142 80T213 65Q255 65 277 83T299 131Q299 161 272 178T191 216Q126 240 88 271T50 358Q50 421 97 461T224 501Q310 501 382 444L335 381Q307 402 281 413T226 424Q187
424 167 407T146 363Q146 343 160 330T192 308T251 285Q295 269 324 253T374 208T395 137Q395 95 374 62T310 8T210 -12Q161 -12 112 7Z" />
<glyph unicode="t" glyph-name="t" horiz-adv-x="351" d="M93 -12T93 159V408H22V484L98 489L110 624H194V489H322V408H194V159Q194 114 211 92T266 69Q289 69 319 81L337 6Q283 -12 241 -12Q93 -12 93 159Z" />
<glyph unicode="u" glyph-name="u" horiz-adv-x="551" d="M71 -12T71 181V489H172V194Q172 131 191 103T255 75Q289 75 315 92T373 149V489H474V0H391L383 74H380Q344 32 307 10T221 -12Q71 -12 71 181Z" />
<glyph unicode="v" glyph-name="v" horiz-adv-x="483" d="M12 489H115L199 225L242 79H246L289 225L373 489H471L302 0H185L12 489Z" />
<glyph unicode="w" glyph-name="w" horiz-adv-x="735" d="M24 489H126L191 223L211 123L218 84H222Q241 173 254 223L323 489H417L487 223L512 120Q514 108 520 84H524Q535 137 538 154L552 223L616 489H711L584 0H463L400 243Q389 287 378 342L369 385H365Q346
288 334 242L273 0H156L24 489Z" />
<glyph unicode="x" glyph-name="x" horiz-adv-x="466" d="M171 255L25 489H134L193 390L239 308H243L284 390L336 489H441L295 244L452 0H343L278 104Q248 158 227 191H223L177 104L119 0H14L171 255Z" />
<glyph unicode="y" glyph-name="y" horiz-adv-x="483" d="M66 -205T38 -195L57 -116Q80 -123 93 -123Q165 -123 196 -30L206 3L12 489H115L206 236L236 145L251 98H255Q266 134 272 160L294 236L373 489H471L291 -30Q260 -116 216 -160T99 -205Q66 -205 38 -195Z" />
<glyph unicode="z" glyph-name="z" horiz-adv-x="435" d="M33 54L275 408H60V489H402V435L160 81H410V0H33V54Z" />
<glyph unicode="{" glyph-name="braceleft" horiz-adv-x="315" d="M166 -152T138 -122T110 -16Q110 31 115 81Q119 139 119 170Q119 203 99 224T33 247V309Q79 310 99 331T119 385Q119 417 115 475Q110 525 110 572Q110 648 138 678T230 708H280V652H256Q219 652
206 633T192 567Q192 539 194 485Q197 440 197 391Q197 340 183 315T133 280V276Q167 267 182 241T197 165Q197 116 194 72Q192 16 192 -11Q192 -58 205 -77T256 -96H280V-152H230Q166 -152 138 -122Z" />
<glyph unicode="|" glyph-name="bar" horiz-adv-x="249" d="M90 750H159V-250H90V750Z" />
<glyph unicode="}" glyph-name="braceright" horiz-adv-x="315" d="M35 -96H59Q96 -96 109 -78T123 -11Q123 16 121 72Q118 116 118 165Q118 215 133 241T182 276V280Q148 289 133 314T118 391Q118 440 121 485Q123 539 123 567Q123 615 110 633T59 652H35V708H85Q149
708 177 678T205 572Q205 525 200 475Q196 417 196 385Q196 353 216 332T282 309V247Q236 246 216 225T196 170Q196 139 200 81Q205 31 205 -16Q205 -92 177 -122T85 -152H35V-96Z" />
<glyph unicode="~" glyph-name="asciitilde" horiz-adv-x="506" d="M311 252T289 263T236 298Q213 316 197 325T164 334Q121 334 89 274L34 314Q63 362 96 385T166 408Q195 408 217 397T270 362Q293 344 309 335T342 326Q385 326 417 386L472 345Q443 297 409
275T340 252Q311 252 289 263Z" />
<glyph unicode="&#xa0;" glyph-name="uni00A0" horiz-adv-x="204" />
<glyph unicode="&#xa1;" glyph-name="exclamdown" horiz-adv-x="304" d="M123 358T104 378T84 430Q84 461 103 481T152 501Q181 501 200 481T220 430Q220 399 201 379T152 358Q123 358 104 378ZM104 -76L118 281H186L200 -76L203 -181H101L104 -76Z" />
<glyph unicode="&#xa2;" glyph-name="cent" horiz-adv-x="506" d="M435 101T400 85T326 65V-35H266V66Q172 78 117 141T61 309Q61 410 118 473T266 551V654H326V554Q401 549 455 496L407 433Q369 467 326 471V148Q374 152 421 191L464 127Q435 101 400 85ZM160
249T188 208T266 153V464Q216 451 188 410T160 309Q160 249 188 208Z" />
<glyph unicode="&#xa3;" glyph-name="sterling" horiz-adv-x="506" d="M466 86V0H52V62Q102 88 130 133T158 234Q158 254 153 281H53V343L120 347H135Q123 386 117 410T111 459Q111 546 164 597T305 649Q401 649 465 572L408 516Q388 540 365 553T313 566Q264
566 237 536T209 455Q209 431 214 409T229 347H385V281H244Q248 251 248 233Q248 187 235 154T191 90V86H466Z" />
<glyph unicode="&#xa4;" glyph-name="currency" horiz-adv-x="506" d="M25 151L88 215Q52 264 52 329Q52 396 87 444L25 509L77 562L145 493Q194 526 253 526Q312 526 361 493L429 562L482 509L418 444Q454 397 454 329Q454 266 418 215L482 151L429 97L361 167Q338
151 310 142T253 133Q194 133 145 167L77 97L25 151ZM299 206T330 240T362 329Q362 384 331 418T253 453Q207 453 176 419T144 329Q144 275 175 241T253 206Q299 206 330 240Z" />
<glyph unicode="&#xa5;" glyph-name="yen" horiz-adv-x="506" d="M202 155H43V209H202V271H43V325H178L20 637H125L195 477L252 343H256Q293 430 288 418Q294 430 300 445T314 477L384 637H486L327 325H463V271H303V209H463V155H303V0H202V155Z" />
<glyph unicode="&#xa6;" glyph-name="brokenbar" horiz-adv-x="249" d="M159 486V35V12H90V475V486H159Z" />
<glyph unicode="&#xa7;" glyph-name="section" horiz-adv-x="506" d="M463 240T442 209T379 153Q407 118 407 73Q407 11 361 -29T237 -70Q183 -70 136 -51T58 5L118 59Q170 7 237 7Q273 7 294 24T315 68Q315 98 289 116T208 159Q155 183 123 202T67 255T43 338Q43
378 65 411T126 467Q96 502 96 549Q96 608 138 647T255 686Q302 686 343 670T417 626L369 562Q315 609 260 609Q224 609 206 594T188 553Q188 526 213 508T293 465Q346 442 380 422T438 367T463 284Q463 240 442 209ZM130 318T146 298T186 265T252 233Q305 209
324 198Q351 212 363 230T376 276Q376 305 359 325T317 360T248 392Q204 412 183 423Q130 394 130 345Q130 318 146 298Z" />
<glyph unicode="&#xa8;" glyph-name="dieresis" horiz-adv-x="546" d="M149 582T133 598T117 638Q117 662 132 678T173 694Q197 694 213 678T229 638Q229 615 213 599T173 582Q149 582 133 598ZM349 582T333 598T317 638Q317 662 333 678T373 694Q398 694 413
678T429 638Q429 614 413 598T373 582Q349 582 333 598Z" />
<glyph unicode="&#xa9;" glyph-name="copyright" horiz-adv-x="746" d="M285 -10T211 31T92 149T48 324Q48 423 92 498T210 613T373 654Q461 654 535 614T654 498T698 324Q698 225 654 149T536 32T373 -10Q285 -10 211 31ZM448 37T510 73T608 174T645 324Q645
407 609 471T510 571T373 607Q298 607 236 572T138 472T101 324Q101 240 137 175T236 73T373 37Q448 37 510 73ZM330 126T288 150T222 218T197 323Q197 380 223 423T292 489T384 513Q424 513 454 498T511 456L471 410Q450 430 432 439T389 449Q337 449 306 414T275
323Q275 262 305 226T385 190Q413 190 435 200T481 231L516 181Q484 154 453 140T382 126Q330 126 288 150Z" />
<glyph unicode="&#xaa;" glyph-name="ordfeminine" horiz-adv-x="349" d="M89 381T62 408T35 477Q35 529 81 557T230 596Q229 627 216 644T172 661Q130 661 74 628L47 678Q117 721 184 721Q244 721 274 686T304 583V389H245L237 425H233Q185 381 134 381Q89 381
62 408ZM193 439T230 475V551Q164 544 136 527T107 483Q107 439 158 439Q193 439 230 475Z" />
<glyph unicode="&#xab;" glyph-name="guillemotleft" horiz-adv-x="444" d="M46 215V289L182 441L223 407L107 252L223 96L182 63L46 215ZM213 215V289L349 441L390 407L274 252L390 96L349 63L213 215Z" />
<glyph unicode="&#xac;" glyph-name="logicalnot" horiz-adv-x="506" d="M394 293H34V367H472V101H394V293Z" />
<glyph unicode="&#xad;" glyph-name="uni00AD" horiz-adv-x="317" d="M42 289H276V214H42V289Z" />
<glyph unicode="&#xae;" glyph-name="registered" horiz-adv-x="435" d="M165 317T121 342T52 412T26 515Q26 572 51 617T121 688T217 714Q269 714 313 689T382 618T408 515Q408 458 383 413T313 342T217 317Q165 317 121 342ZM281 357T322 401T364 515Q364 585
323 629T217 674Q153 674 112 630T70 515Q70 445 111 401T217 357Q281 357 322 401ZM142 618H222Q257 618 279 602T301 553Q301 535 291 520T264 498L309 417H259L225 484H188V417H142V618ZM212 519Q231 519 241 527T252 550Q252 582 214 582H188V519H212Z" />
<glyph unicode="&#xaf;" glyph-name="overscore" horiz-adv-x="546" d="M136 666H410V598H136V666Z" />
<glyph unicode="&#xb0;" glyph-name="degree" horiz-adv-x="341" d="M116 420T78 457T40 552Q40 611 78 648T171 685Q226 685 264 648T302 552Q302 494 264 457T171 420Q116 420 78 457ZM203 473T223 495T244 552Q244 587 224 609T171 632Q139 632 119 610T98
552Q98 517 118 495T171 473Q203 473 223 495Z" />
<glyph unicode="&#xb1;" glyph-name="plusminus" horiz-adv-x="506" d="M214 301H34V375H214V559H292V375H472V301H292V136H214V301ZM34 74H472V0H34V74Z" />
<glyph unicode="&#xb4;" glyph-name="acute" horiz-adv-x="546" d="M215 623L360 794L430 727L266 573L215 623Z" />
<glyph unicode="&#xb6;" glyph-name="paragraph" horiz-adv-x="582" d="M180 218T110 274T40 439Q40 552 106 603T285 655H329V218H294Q180 218 110 274ZM384 655H486V-80H384V655Z" />
<glyph unicode="&#xb7;" glyph-name="middot" horiz-adv-x="264" d="M103 250T84 270T64 321Q64 352 83 372T132 393Q161 393 180 373T200 321Q200 290 181 270T132 250Q103 250 84 270Z" />
<glyph unicode="&#xb8;" glyph-name="cedilla" horiz-adv-x="546" d="M173 -184Q233 -180 256 -169T280 -136Q280 -117 263 -107T203 -90L248 3H311L282 -63Q319 -72 337 -88T356 -135Q356 -222 182 -230L173 -184Z" />
<glyph unicode="&#xba;" glyph-name="ordmasculine" horiz-adv-x="367" d="M141 381T106 401T49 460T28 551Q28 603 49 641T105 700T183 721Q225 721 260 701T317 642T338 551Q338 499 317 461T261 402T183 381Q141 381 106 401ZM220 441T241 471T262 551Q262
601 242 631T183 661Q146 661 125 631T104 551Q104 501 125 471T183 441Q220 441 241 471Z" />
<glyph unicode="&#xbb;" glyph-name="guillemotright" horiz-adv-x="444" d="M54 96L170 252L54 407L95 441L231 289V215L95 63L54 96ZM221 96L337 252L221 407L262 441L398 289V215L262 63L221 96Z" />
<glyph unicode="&#xbc;" glyph-name="onequarter" horiz-adv-x="809" d="M160 285V585H74V634Q108 640 130 649T175 675H237V285H160ZM615 667L256 -12H192L551 667H615ZM784 99H726V0H657V99H479V138L636 390H726V152H784V99ZM657 152V214L662 325H658L611 245L555
152H657Z" />
<glyph unicode="&#xbd;" glyph-name="onehalf" horiz-adv-x="819" d="M160 585H74V634Q108 640 130 649T175 675H237V285H160V585ZM539 667H603L244 -12H180L539 667ZM499 43Q598 130 639 176T680 262Q680 297 661 317T610 338Q568 338 530 284L485 325Q510 361
545 381T621 402Q682 402 718 369T755 274Q755 241 739 209T696 146T622 65H773V0H499V43Z" />
<glyph unicode="&#xbe;" glyph-name="threequarters" horiz-adv-x="819" d="M324 338T283 306T182 273Q134 273 96 293T33 350L82 388Q120 333 176 333Q207 333 227 350T248 396Q248 427 219 443T135 460V507Q181 507 207 524T233 571Q233 597 216 612T169 627Q130
627 94 582L49 622Q77 654 109 670T181 687Q235 687 272 658T309 581Q309 519 244 487Q279 477 301 452T324 391Q324 338 283 306ZM640 667L281 -12H217L576 667H640ZM794 99H736V0H667V99H489V138L646 390H736V152H794V99ZM667 152V214L672 325H668L621 245L565
152H667Z" />
<glyph unicode="&#xbf;" glyph-name="questiondown" horiz-adv-x="436" d="M203 358T184 378T164 430Q164 461 183 481T232 501Q261 501 280 481T300 430Q300 399 281 379T232 358Q203 358 184 378ZM141 -193T94 -150T46 -30Q46 11 64 43T119 118Q155 163 172
193T190 263Q190 275 189 281H278Q280 261 280 254Q280 207 260 171T203 90Q174 55 159 30T144 -23Q144 -62 167 -86T232 -110Q291 -110 340 -56L397 -108Q321 -193 220 -193Q141 -193 94 -150Z" />
<glyph unicode="&#xc0;" glyph-name="Agrave" horiz-adv-x="552" d="M388 187H160L104 0H0L217 655H335L552 0H444L388 187ZM364 268L338 356Q324 403 307 465T281 555Q280 563 276 574H272Q240 451 211 356L185 268H364ZM128 808L184 875L334 743L289 692L128 808Z" />
<glyph unicode="&#xc1;" glyph-name="Aacute" horiz-adv-x="552" d="M388 187H160L104 0H0L217 655H335L552 0H444L388 187ZM364 268L338 356Q324 403 307 465T281 555Q280 563 276 574H272Q240 451 211 356L185 268H364ZM214 743L364 875L420 808L259 692L214 743Z" />
<glyph unicode="&#xc2;" glyph-name="Acircumflex" horiz-adv-x="552" d="M388 187H160L104 0H0L217 655H335L552 0H444L388 187ZM364 268L338 356Q324 403 307 465T281 555Q280 563 276 574H272Q240 451 211 356L185 268H364ZM120 725L220 837H328L428 725L384
695L276 785H272L164 695L120 725Z" />
<glyph unicode="&#xc3;" glyph-name="Atilde" horiz-adv-x="552" d="M388 187H160L104 0H0L217 655H335L552 0H444L388 187ZM364 268L338 356Q324 403 307 465T281 555Q280 563 276 574H272Q240 451 211 356L185 268H364ZM320 704T301 714T255 744Q236 759 226
765T203 771Q185 771 173 756T158 710L91 715Q94 777 123 810T200 844Q228 844 247 834T293 804Q312 789 322 783T345 777Q383 777 390 838L457 833Q454 771 425 738T348 704Q320 704 301 714Z" />
<glyph unicode="&#xc4;" glyph-name="Adieresis" horiz-adv-x="552" d="M388 187H160L104 0H0L217 655H335L552 0H444L388 187ZM364 268L338 356Q324 403 307 465T281 555Q280 563 276 574H272Q240 451 211 356L185 268H364ZM145 711T130 726T114 766Q114 790
129 805T169 821Q193 821 208 806T224 766Q224 742 209 727T169 711Q145 711 130 726ZM355 711T340 726T324 766Q324 790 339 805T379 821Q403 821 418 806T434 766Q434 742 419 727T379 711Q355 711 340 726Z" />
<glyph unicode="&#xc5;" glyph-name="Aring" horiz-adv-x="552" d="M388 187H160L104 0H0L217 655H335L552 0H444L388 187ZM364 268L338 356Q324 403 307 465T281 555Q280 563 276 574H272Q240 451 211 356L185 268H364ZM229 698T201 723T172 791Q172 833 200
858T274 884Q319 884 347 859T376 791Q376 749 348 724T274 698Q229 698 201 723ZM294 740T308 754T322 791Q322 814 308 828T274 842Q253 842 239 828T225 791Q225 768 239 754T274 740Q294 740 308 754Z" />
<glyph unicode="&#xc6;" glyph-name="AE" horiz-adv-x="829" d="M779 86V0H397V179H199L109 0H2L336 655H769V569H499V385H725V299H499V86H779ZM397 260V576H393Q373 533 368 524Q332 446 294 370L239 260H397Z" />
<glyph unicode="&#xc7;" glyph-name="Ccedilla" horiz-adv-x="574" d="M258 -12T192 28T88 144T50 326Q50 430 89 507T195 625T346 667Q403 667 450 644T531 585L476 519Q419 578 348 578Q291 578 248 548T180 461T155 329Q155 212 206 145T345 77Q427 77 490
147L545 83Q464 -12 341 -12Q258 -12 192 28Z" />
<glyph unicode="&#xc8;" glyph-name="Egrave" horiz-adv-x="533" d="M86 655H473V569H188V385H429V299H188V86H483V0H86V655ZM140 808L196 875L346 743L301 692L140 808Z" />
<glyph unicode="&#xc9;" glyph-name="Eacute" horiz-adv-x="533" d="M86 655H473V569H188V385H429V299H188V86H483V0H86V655ZM226 743L376 875L432 808L271 692L226 743Z" />
<glyph unicode="&#xca;" glyph-name="Ecircumflex" horiz-adv-x="533" d="M86 655H473V569H188V385H429V299H188V86H483V0H86V655ZM132 725L232 837H340L440 725L396 695L288 785H284L176 695L132 725Z" />
<glyph unicode="&#xcb;" glyph-name="Edieresis" horiz-adv-x="533" d="M86 655H473V569H188V385H429V299H188V86H483V0H86V655ZM157 711T142 726T126 766Q126 790 141 805T181 821Q205 821 220 806T236 766Q236 742 221 727T181 711Q157 711 142 726ZM367 711T352
726T336 766Q336 790 351 805T391 821Q415 821 430 806T446 766Q446 742 431 727T391 711Q367 711 352 726Z" />
<glyph unicode="&#xcc;" glyph-name="Igrave" horiz-adv-x="274" d="M86 655H188V0H86V655ZM-9 808L47 875L197 743L152 692L-9 808Z" />
<glyph unicode="&#xcd;" glyph-name="Iacute" horiz-adv-x="274" d="M86 655H188V0H86V655ZM77 743L227 875L283 808L122 692L77 743Z" />
<glyph unicode="&#xce;" glyph-name="Icircumflex" horiz-adv-x="274" d="M86 655H188V0H86V655ZM-17 725L83 837H191L291 725L247 695L139 785H135L27 695L-17 725Z" />
<glyph unicode="&#xcf;" glyph-name="Idieresis" horiz-adv-x="274" d="M86 655H188V0H86V655ZM8 711T-7 726T-23 766Q-23 790 -8 805T32 821Q56 821 71 806T87 766Q87 742 72 727T32 711Q8 711 -7 726ZM218 711T203 726T187 766Q187 790 202 805T242 821Q266
821 281 806T297 766Q297 742 282 727T242 711Q218 711 203 726Z" />
<glyph unicode="&#xd0;" glyph-name="Eth" horiz-adv-x="644" d="M431 655T512 572T594 330Q594 171 513 86T284 0H109V315H31V365L109 369V655H279Q431 655 512 572ZM378 83T433 145T489 330Q489 451 434 511T272 572H211V369H353V315H211V83H272Q378 83 433 145Z" />
<glyph unicode="&#xd1;" glyph-name="Ntilde" horiz-adv-x="652" d="M86 655H191L409 268L478 130H482Q480 162 478 175Q477 186 473 242T469 347V655H566V0H461L243 388L174 525H170L174 475Q175 463 179 410T183 311V0H86V655ZM375 704T356 714T310 744Q291
759 281 765T258 771Q240 771 228 756T213 710L146 715Q149 777 178 810T255 844Q283 844 302 834T348 804Q367 789 377 783T400 777Q438 777 445 838L512 833Q509 771 480 738T403 704Q375 704 356 714Z" />
<glyph unicode="&#xd2;" glyph-name="Ograve" horiz-adv-x="670" d="M251 -12T187 29T86 148T50 330Q50 434 86 510T186 626T335 667Q419 667 483 627T584 510T620 330Q620 226 584 149T484 30T335 -12Q251 -12 187 29ZM389 77T430 108T493 196T515 330Q515 445
466 511T335 578Q253 578 204 512T155 330Q155 254 177 197T240 108T335 77Q389 77 430 108ZM189 808L245 875L395 743L350 692L189 808Z" />
<glyph unicode="&#xd3;" glyph-name="Oacute" horiz-adv-x="670" d="M251 -12T187 29T86 148T50 330Q50 434 86 510T186 626T335 667Q419 667 483 627T584 510T620 330Q620 226 584 149T484 30T335 -12Q251 -12 187 29ZM389 77T430 108T493 196T515 330Q515 445
466 511T335 578Q253 578 204 512T155 330Q155 254 177 197T240 108T335 77Q389 77 430 108ZM275 743L425 875L481 808L320 692L275 743Z" />
<glyph unicode="&#xd4;" glyph-name="Ocircumflex" horiz-adv-x="670" d="M251 -12T187 29T86 148T50 330Q50 434 86 510T186 626T335 667Q419 667 483 627T584 510T620 330Q620 226 584 149T484 30T335 -12Q251 -12 187 29ZM389 77T430 108T493 196T515 330Q515
445 466 511T335 578Q253 578 204 512T155 330Q155 254 177 197T240 108T335 77Q389 77 430 108ZM181 725L281 837H389L489 725L445 695L337 785H333L225 695L181 725Z" />
<glyph unicode="&#xd5;" glyph-name="Otilde" horiz-adv-x="670" d="M251 -12T187 29T86 148T50 330Q50 434 86 510T186 626T335 667Q419 667 483 627T584 510T620 330Q620 226 584 149T484 30T335 -12Q251 -12 187 29ZM389 77T430 108T493 196T515 330Q515 445
466 511T335 578Q253 578 204 512T155 330Q155 254 177 197T240 108T335 77Q389 77 430 108ZM381 704T362 714T316 744Q297 759 287 765T264 771Q246 771 234 756T219 710L152 715Q155 777 184 810T261 844Q289 844 308 834T354 804Q373 789 383 783T406 777Q444
777 451 838L518 833Q515 771 486 738T409 704Q381 704 362 714Z" />
<glyph unicode="&#xd6;" glyph-name="Odieresis" horiz-adv-x="670" d="M251 -12T187 29T86 148T50 330Q50 434 86 510T186 626T335 667Q419 667 483 627T584 510T620 330Q620 226 584 149T484 30T335 -12Q251 -12 187 29ZM389 77T430 108T493 196T515 330Q515
445 466 511T335 578Q253 578 204 512T155 330Q155 254 177 197T240 108T335 77Q389 77 430 108ZM206 711T191 726T175 766Q175 790 190 805T230 821Q254 821 269 806T285 766Q285 742 270 727T230 711Q206 711 191 726ZM416 711T401 726T385 766Q385 790 400 805T440
821Q464 821 479 806T495 766Q495 742 480 727T440 711Q416 711 401 726Z" />
<glyph unicode="&#xd7;" glyph-name="multiply" horiz-adv-x="506" d="M50 176L201 330L50 484L102 537L253 382L404 537L457 484L306 330L457 176L404 122L253 277L102 122L50 176Z" />
<glyph unicode="&#xd8;" glyph-name="Oslash" horiz-adv-x="670" d="M560 555Q622 468 622 330Q622 226 586 149T486 30T337 -12Q236 -12 165 47L102 -33L47 9L117 99Q52 191 52 330Q52 434 88 510T188 626T337 667Q441 667 513 607L576 688L631 646L560 555ZM157
247T184 185L453 530Q407 578 337 578Q255 578 206 512T157 330Q157 247 184 185ZM517 409T492 468L224 124Q271 77 337 77Q391 77 432 108T495 196T517 330Q517 409 492 468Z" />
<glyph unicode="&#xd9;" glyph-name="Ugrave" horiz-adv-x="651" d="M211 -12T147 57T83 280V655H185V274Q185 168 222 123T326 77Q470 77 470 274V655H568V280Q568 127 504 58T326 -12Q211 -12 147 57ZM179 808L235 875L385 743L340 692L179 808Z" />
<glyph unicode="&#xda;" glyph-name="Uacute" horiz-adv-x="651" d="M211 -12T147 57T83 280V655H185V274Q185 168 222 123T326 77Q470 77 470 274V655H568V280Q568 127 504 58T326 -12Q211 -12 147 57ZM265 743L415 875L471 808L310 692L265 743Z" />
<glyph unicode="&#xdb;" glyph-name="Ucircumflex" horiz-adv-x="651" d="M211 -12T147 57T83 280V655H185V274Q185 168 222 123T326 77Q470 77 470 274V655H568V280Q568 127 504 58T326 -12Q211 -12 147 57ZM171 725L271 837H379L479 725L435 695L327 785H323L215
695L171 725Z" />
<glyph unicode="&#xdc;" glyph-name="Udieresis" horiz-adv-x="651" d="M211 -12T147 57T83 280V655H185V274Q185 168 222 123T326 77Q470 77 470 274V655H568V280Q568 127 504 58T326 -12Q211 -12 147 57ZM196 711T181 726T165 766Q165 790 180 805T220 821Q244
821 259 806T275 766Q275 742 260 727T220 711Q196 711 181 726ZM406 711T391 726T375 766Q375 790 390 805T430 821Q454 821 469 806T485 766Q485 742 470 727T430 711Q406 711 391 726Z" />
<glyph unicode="&#xdd;" glyph-name="Yacute" horiz-adv-x="490" d="M194 248L-3 655H106L183 480Q224 381 244 337H248L272 391Q303 463 310 480L387 655H493L296 248V0H194V248ZM185 743L335 875L391 808L230 692L185 743Z" />
<glyph unicode="&#xde;" glyph-name="Thorn" horiz-adv-x="593" d="M86 655H188V548H298Q544 548 544 350Q544 247 477 195T298 142H188V0H86V655ZM288 224Q367 224 405 255T443 350Q443 413 406 439T288 466H188V224H288Z" />
<glyph unicode="&#xdf;" glyph-name="germandbls" horiz-adv-x="592" d="M322 -12T253 36L291 106Q342 65 394 65Q429 65 449 85T470 136Q470 168 449 188T384 230Q349 250 329 264T294 302T279 360Q279 389 289 411T321 461Q342 488 352 508T362 556Q362 592
342 615T284 638Q233 638 205 600T177 491V0H77V507Q77 604 131 661T285 719Q340 719 379 699T439 643T460 567Q460 531 447 505T409 447Q391 424 382 408T373 372Q373 347 391 331T447 295Q484 275 507 258T547 213T564 141Q564 75 519 32T397 -12Q322 -12 253
36Z" />
<glyph unicode="&#xe0;" glyph-name="agrave" horiz-adv-x="511" d="M129 -12T89 26T49 130Q49 209 119 251T342 311Q340 419 248 419Q186 419 107 369L69 437Q169 501 266 501Q355 501 399 448T443 294V0H360L352 56H349Q268 -12 193 -12Q129 -12 89 26ZM255
68T282 82T342 126V247Q236 234 192 207T147 137Q147 103 168 86T224 68Q255 68 282 82ZM118 727L188 794L333 623L282 573L118 727Z" />
<glyph unicode="&#xe1;" glyph-name="aacute" horiz-adv-x="511" d="M129 -12T89 26T49 130Q49 209 119 251T342 311Q340 419 248 419Q186 419 107 369L69 437Q169 501 266 501Q355 501 399 448T443 294V0H360L352 56H349Q268 -12 193 -12Q129 -12 89 26ZM255
68T282 82T342 126V247Q236 234 192 207T147 137Q147 103 168 86T224 68Q255 68 282 82ZM217 623L362 794L432 727L268 573L217 623Z" />
<glyph unicode="&#xe2;" glyph-name="acircumflex" horiz-adv-x="511" d="M129 -12T89 26T49 130Q49 209 119 251T342 311Q340 419 248 419Q186 419 107 369L69 437Q169 501 266 501Q355 501 399 448T443 294V0H360L352 56H349Q268 -12 193 -12Q129 -12 89 26ZM255
68T282 82T342 126V247Q236 234 192 207T147 137Q147 103 168 86T224 68Q255 68 282 82ZM112 604L224 741H326L438 604L397 566L277 673H273L153 566L112 604Z" />
<glyph unicode="&#xe3;" glyph-name="atilde" horiz-adv-x="511" d="M129 -12T89 26T49 130Q49 209 119 251T342 311Q340 419 248 419Q186 419 107 369L69 437Q169 501 266 501Q355 501 399 448T443 294V0H360L352 56H349Q268 -12 193 -12Q129 -12 89 26ZM255
68T282 82T342 126V247Q236 234 192 207T147 137Q147 103 168 86T224 68Q255 68 282 82ZM320 576T302 587T258 622Q241 638 230 646T206 654Q168 654 163 582L97 586Q99 652 126 689T205 726Q230 726 249 714T291 680Q310 663 321 656T345 648Q382 648 387 720L453
716Q451 650 425 613T346 576Q320 576 302 587Z" />
<glyph unicode="&#xe4;" glyph-name="adieresis" horiz-adv-x="511" d="M129 -12T89 26T49 130Q49 209 119 251T342 311Q340 419 248 419Q186 419 107 369L69 437Q169 501 266 501Q355 501 399 448T443 294V0H360L352 56H349Q268 -12 193 -12Q129 -12 89 26ZM255
68T282 82T342 126V247Q236 234 192 207T147 137Q147 103 168 86T224 68Q255 68 282 82ZM151 582T135 598T119 638Q119 662 134 678T175 694Q199 694 215 678T231 638Q231 615 215 599T175 582Q151 582 135 598ZM351 582T335 598T319 638Q319 662 335 678T375 694Q400
694 415 678T431 638Q431 614 415 598T375 582Q351 582 335 598Z" />
<glyph unicode="&#xe5;" glyph-name="aring" horiz-adv-x="511" d="M129 -12T89 26T49 130Q49 209 119 251T342 311Q340 419 248 419Q186 419 107 369L69 437Q169 501 266 501Q355 501 399 448T443 294V0H360L352 56H349Q268 -12 193 -12Q129 -12 89 26ZM255 68T282
82T342 126V247Q236 234 192 207T147 137Q147 103 168 86T224 68Q255 68 282 82ZM221 557T190 585T159 657Q159 701 190 729T275 757Q329 757 360 729T391 657Q391 613 360 585T275 557Q221 557 190 585ZM298 599T313 615T328 657Q328 683 313 699T275 715Q252
715 237 699T222 657Q222 631 237 615T275 599Q298 599 313 615Z" />
<glyph unicode="&#xe6;" glyph-name="ae" horiz-adv-x="785" d="M135 -12T95 26T55 129Q55 208 124 251T344 312Q342 419 251 419Q192 419 113 369L75 437Q175 501 264 501Q314 501 349 476T403 406Q433 451 472 476T559 501Q649 501 698 438T748 268Q748 242
744 218H437Q441 150 481 110T579 69Q610 69 636 79T693 108L729 40Q651 -12 566 -12Q467 -12 395 75Q295 -12 199 -12Q135 -12 95 26ZM660 283Q660 350 634 386T556 422Q509 422 477 385T437 283H660ZM262 68T297 85T361 133Q346 170 344 224L343 247Q242 234
198 207T153 137Q153 103 174 86T230 68Q262 68 297 85Z" />
<glyph unicode="&#xe7;" glyph-name="ccedilla" horiz-adv-x="459" d="M319 -72T337 -88T356 -135Q356 -222 182 -230L173 -184Q233 -180 256 -169T280 -136Q280 -117 263 -107T203 -90L242 -10Q153 2 98 69T43 244Q43 323 76 381T164 470T284 501Q364 501 427
445L377 379Q355 398 334 408T289 418Q226 418 187 370T147 244Q147 166 185 119T286 71Q341 71 393 116L435 49Q380 0 305 -10L282 -63Q319 -72 337 -88Z" />
<glyph unicode="&#xe8;" glyph-name="egrave" horiz-adv-x="502" d="M465 242T461 218H138Q145 144 188 106T294 67Q353 67 411 104L446 40Q368 -12 281 -12Q214 -12 160 19T75 108T43 244Q43 321 74 379T157 469T266 501Q361 501 413 439T465 270Q465 242 461
218ZM377 288Q377 352 349 387T268 422Q222 422 186 388T140 288H377ZM113 727L183 794L328 623L277 573L113 727Z" />
<glyph unicode="&#xe9;" glyph-name="eacute" horiz-adv-x="502" d="M465 242T461 218H138Q145 144 188 106T294 67Q353 67 411 104L446 40Q368 -12 281 -12Q214 -12 160 19T75 108T43 244Q43 321 74 379T157 469T266 501Q361 501 413 439T465 270Q465 242 461
218ZM377 288Q377 352 349 387T268 422Q222 422 186 388T140 288H377ZM212 623L357 794L427 727L263 573L212 623Z" />
<glyph unicode="&#xea;" glyph-name="ecircumflex" horiz-adv-x="502" d="M465 242T461 218H138Q145 144 188 106T294 67Q353 67 411 104L446 40Q368 -12 281 -12Q214 -12 160 19T75 108T43 244Q43 321 74 379T157 469T266 501Q361 501 413 439T465 270Q465 242
461 218ZM377 288Q377 352 349 387T268 422Q222 422 186 388T140 288H377ZM107 604L219 741H321L433 604L392 566L272 673H268L148 566L107 604Z" />
<glyph unicode="&#xeb;" glyph-name="edieresis" horiz-adv-x="502" d="M465 242T461 218H138Q145 144 188 106T294 67Q353 67 411 104L446 40Q368 -12 281 -12Q214 -12 160 19T75 108T43 244Q43 321 74 379T157 469T266 501Q361 501 413 439T465 270Q465 242
461 218ZM377 288Q377 352 349 387T268 422Q222 422 186 388T140 288H377ZM146 582T130 598T114 638Q114 662 129 678T170 694Q194 694 210 678T226 638Q226 615 210 599T170 582Q146 582 130 598ZM346 582T330 598T314 638Q314 662 330 678T370 694Q395 694 410
678T426 638Q426 614 410 598T370 582Q346 582 330 598Z" />
<glyph unicode="&#xec;" glyph-name="igrave" horiz-adv-x="255" d="M77 489H178V0H77V489ZM-29 727L41 794L186 623L135 573L-29 727Z" />
<glyph unicode="&#xed;" glyph-name="iacute" horiz-adv-x="255" d="M77 489H178V0H77V489ZM70 623L215 794L285 727L121 573L70 623Z" />
<glyph unicode="&#xee;" glyph-name="icircumflex" horiz-adv-x="255" d="M77 489H178V0H77V489ZM-35 604L77 741H179L291 604L250 566L130 673H126L6 566L-35 604Z" />
<glyph unicode="&#xef;" glyph-name="idieresis" horiz-adv-x="255" d="M77 489H178V0H77V489ZM4 582T-12 598T-28 638Q-28 662 -13 678T28 694Q52 694 68 678T84 638Q84 615 68 599T28 582Q4 582 -12 598ZM204 582T188 598T172 638Q172 662 188 678T228 694Q253
694 268 678T284 638Q284 614 268 598T228 582Q204 582 188 598Z" />
<glyph unicode="&#xf0;" glyph-name="eth" horiz-adv-x="549" d="M492 466T492 260Q492 180 465 119T387 23T270 -12Q211 -12 161 17T81 99T50 224Q50 291 77 342T151 421T255 449Q292 449 325 435T381 391Q354 494 281 565L139 493L111 541L235 604Q195 634 130
670L175 733Q255 692 313 644L455 717L483 668L357 604Q492 466 492 260ZM332 71T364 120T396 255Q396 274 394 308Q367 344 337 358T273 372Q213 372 179 332T144 224Q144 178 161 144T208 90T273 71Q332 71 364 120Z" />
<glyph unicode="&#xf1;" glyph-name="ntilde" horiz-adv-x="554" d="M77 489H160L168 421H171Q210 459 248 480T333 501Q483 501 483 308V0H382V295Q382 358 363 386T299 414Q266 414 240 399T178 347V0H77V489ZM344 576T326 587T282 622Q265 638 254 646T230
654Q192 654 187 582L121 586Q123 652 150 689T229 726Q254 726 273 714T315 680Q334 663 345 656T369 648Q406 648 411 720L477 716Q475 650 449 613T370 576Q344 576 326 587Z" />
<glyph unicode="&#xf2;" glyph-name="ograve" horiz-adv-x="546" d="M212 -12T159 19T75 108T43 244Q43 323 74 381T158 470T273 501Q335 501 387 470T471 381T503 244Q503 166 472 108T387 19T273 -12Q212 -12 159 19ZM331 71T365 118T399 244Q399 322 365 370T273
418Q216 418 182 370T147 244Q147 166 181 119T273 71Q331 71 365 118ZM116 727L186 794L331 623L280 573L116 727Z" />
<glyph unicode="&#xf3;" glyph-name="oacute" horiz-adv-x="546" d="M212 -12T159 19T75 108T43 244Q43 323 74 381T158 470T273 501Q335 501 387 470T471 381T503 244Q503 166 472 108T387 19T273 -12Q212 -12 159 19ZM331 71T365 118T399 244Q399 322 365 370T273
418Q216 418 182 370T147 244Q147 166 181 119T273 71Q331 71 365 118ZM215 623L360 794L430 727L266 573L215 623Z" />
<glyph unicode="&#xf4;" glyph-name="ocircumflex" horiz-adv-x="546" d="M212 -12T159 19T75 108T43 244Q43 323 74 381T158 470T273 501Q335 501 387 470T471 381T503 244Q503 166 472 108T387 19T273 -12Q212 -12 159 19ZM331 71T365 118T399 244Q399 322 365
370T273 418Q216 418 182 370T147 244Q147 166 181 119T273 71Q331 71 365 118ZM110 604L222 741H324L436 604L395 566L275 673H271L151 566L110 604Z" />
<glyph unicode="&#xf5;" glyph-name="otilde" horiz-adv-x="546" d="M212 -12T159 19T75 108T43 244Q43 323 74 381T158 470T273 501Q335 501 387 470T471 381T503 244Q503 166 472 108T387 19T273 -12Q212 -12 159 19ZM331 71T365 118T399 244Q399 322 365 370T273
418Q216 418 182 370T147 244Q147 166 181 119T273 71Q331 71 365 118ZM318 576T300 587T256 622Q239 638 228 646T204 654Q166 654 161 582L95 586Q97 652 124 689T203 726Q228 726 247 714T289 680Q308 663 319 656T343 648Q380 648 385 720L451 716Q449 650
423 613T344 576Q318 576 300 587Z" />
<glyph unicode="&#xf6;" glyph-name="odieresis" horiz-adv-x="546" d="M212 -12T159 19T75 108T43 244Q43 323 74 381T158 470T273 501Q335 501 387 470T471 381T503 244Q503 166 472 108T387 19T273 -12Q212 -12 159 19ZM331 71T365 118T399 244Q399 322 365
370T273 418Q216 418 182 370T147 244Q147 166 181 119T273 71Q331 71 365 118ZM149 582T133 598T117 638Q117 662 132 678T173 694Q197 694 213 678T229 638Q229 615 213 599T173 582Q149 582 133 598ZM349 582T333 598T317 638Q317 662 333 678T373 694Q398 694
413 678T429 638Q429 614 413 598T373 582Q349 582 333 598Z" />
<glyph unicode="&#xf7;" glyph-name="divide" horiz-adv-x="506" d="M226 449T209 466T191 510Q191 536 209 553T253 570Q279 570 297 553T315 510Q315 483 298 466T253 449Q226 449 209 466ZM34 367H472V293H34V367ZM226 89T209 106T191 150Q191 176 209 193T253
210Q279 210 297 193T315 150Q315 123 298 106T253 89Q226 89 209 106Z" />
<glyph unicode="&#xf8;" glyph-name="oslash" horiz-adv-x="546" d="M503 347T503 244Q503 166 472 108T387 19T273 -12Q196 -12 136 34L88 -24L46 9L98 72Q43 142 43 244Q43 323 74 381T158 470T273 501Q351 501 410 454L458 513L500 480L448 417Q503 347 503
244ZM142 189T160 148L355 388Q322 421 273 421Q215 421 179 373T142 249Q142 189 160 148ZM331 68T367 115T404 239Q404 299 386 341L190 101Q225 68 273 68Q331 68 367 115Z" />
<glyph unicode="&#xf9;" glyph-name="ugrave" horiz-adv-x="551" d="M71 -12T71 181V489H172V194Q172 131 191 103T255 75Q289 75 315 92T373 149V489H474V0H391L383 74H380Q344 32 307 10T221 -12Q71 -12 71 181ZM124 727L194 794L339 623L288 573L124 727Z" />
<glyph unicode="&#xfa;" glyph-name="uacute" horiz-adv-x="551" d="M71 -12T71 181V489H172V194Q172 131 191 103T255 75Q289 75 315 92T373 149V489H474V0H391L383 74H380Q344 32 307 10T221 -12Q71 -12 71 181ZM223 623L368 794L438 727L274 573L223 623Z" />
<glyph unicode="&#xfb;" glyph-name="ucircumflex" horiz-adv-x="551" d="M71 -12T71 181V489H172V194Q172 131 191 103T255 75Q289 75 315 92T373 149V489H474V0H391L383 74H380Q344 32 307 10T221 -12Q71 -12 71 181ZM118 604L230 741H332L444 604L403 566L283
673H279L159 566L118 604Z" />
<glyph unicode="&#xfc;" glyph-name="udieresis" horiz-adv-x="551" d="M71 -12T71 181V489H172V194Q172 131 191 103T255 75Q289 75 315 92T373 149V489H474V0H391L383 74H380Q344 32 307 10T221 -12Q71 -12 71 181ZM157 582T141 598T125 638Q125 662 140 678T181
694Q205 694 221 678T237 638Q237 615 221 599T181 582Q157 582 141 598ZM357 582T341 598T325 638Q325 662 341 678T381 694Q406 694 421 678T437 638Q437 614 421 598T381 582Q357 582 341 598Z" />
<glyph unicode="&#xfd;" glyph-name="yacute" horiz-adv-x="483" d="M66 -205T38 -195L57 -116Q80 -123 93 -123Q165 -123 196 -30L206 3L12 489H115L206 236L236 145L251 98H255Q266 134 272 160L294 236L373 489H471L291 -30Q260 -116 216 -160T99 -205Q66 -205
38 -195ZM194 623L339 794L409 727L245 573L194 623Z" />
<glyph unicode="&#xfe;" glyph-name="thorn" horiz-adv-x="560" d="M77 709H178V522L176 442Q249 501 317 501Q411 501 463 434T515 252Q515 171 486 112T409 20T305 -12Q241 -12 176 40L178 -40V-199H77V709ZM341 72T376 119T411 251Q411 417 295 417Q241 417
178 357V117Q231 72 285 72Q341 72 376 119Z" />
<glyph unicode="&#xff;" glyph-name="ydieresis" horiz-adv-x="483" d="M66 -205T38 -195L57 -116Q80 -123 93 -123Q165 -123 196 -30L206 3L12 489H115L206 236L236 145L251 98H255Q266 134 272 160L294 236L373 489H471L291 -30Q260 -116 216 -160T99 -205Q66
-205 38 -195ZM128 582T112 598T96 638Q96 662 111 678T152 694Q176 694 192 678T208 638Q208 615 192 599T152 582Q128 582 112 598ZM328 582T312 598T296 638Q296 662 312 678T352 694Q377 694 392 678T408 638Q408 614 392 598T352 582Q328 582 312 598Z" />
<glyph unicode="&#x2013;" glyph-name="endash" horiz-adv-x="480" d="M42 286H438V218H42V286Z" />
<glyph unicode="&#x2014;" glyph-name="emdash" horiz-adv-x="800" d="M42 286H758V218H42V286Z" />
<glyph unicode="&#x2018;" glyph-name="quoteleft" horiz-adv-x="264" d="M153 522T170 507T188 465Q188 436 172 419T128 402Q94 402 75 428T56 504Q56 628 173 692L199 646Q158 621 139 592T119 521Q122 522 128 522Q153 522 170 507Z" />
<glyph unicode="&#x2019;" glyph-name="quoteright" horiz-adv-x="264" d="M170 698T189 672T208 596Q208 472 91 408L65 454Q106 479 125 508T145 579Q142 578 136 578Q111 578 94 593T76 635Q76 664 92 681T136 698Q170 698 189 672Z" />
<glyph unicode="&#x201a;" glyph-name="quotesinglbase" horiz-adv-x="264" d="M170 138T189 112T208 36Q208 -88 91 -152L65 -106Q106 -81 125 -52T145 19Q142 18 136 18Q111 18 94 33T76 75Q76 104 92 121T136 138Q170 138 189 112Z" />
<glyph unicode="&#x201c;" glyph-name="quotedblleft" horiz-adv-x="458" d="M153 522T170 507T188 465Q188 436 172 419T128 402Q94 402 75 428T56 504Q56 628 173 692L199 646Q158 621 139 592T119 521Q122 522 128 522Q153 522 170 507ZM347 522T364 507T382
465Q382 436 366 419T322 402Q288 402 269 428T250 504Q250 628 367 692L393 646Q352 621 333 592T313 521Q316 522 322 522Q347 522 364 507Z" />
<glyph unicode="&#x201d;" glyph-name="quotedblright" horiz-adv-x="458" d="M170 698T189 672T208 596Q208 472 91 408L65 454Q106 479 125 508T145 579Q142 578 136 578Q111 578 94 593T76 635Q76 664 92 681T136 698Q170 698 189 672ZM364 698T383 672T402
596Q402 472 285 408L259 454Q300 479 319 508T339 579Q336 578 330 578Q305 578 288 593T270 635Q270 664 286 681T330 698Q364 698 383 672Z" />
<glyph unicode="&#x201e;" glyph-name="quotedblbase" horiz-adv-x="458" d="M170 138T189 112T208 36Q208 -88 91 -152L65 -106Q106 -81 125 -52T145 19Q142 18 136 18Q111 18 94 33T76 75Q76 104 92 121T136 138Q170 138 189 112ZM364 138T383 112T402 36Q402
-88 285 -152L259 -106Q300 -81 319 -52T339 19Q336 18 330 18Q305 18 288 33T270 75Q270 104 286 121T330 138Q364 138 383 112Z" />
<glyph unicode="&#x2022;" glyph-name="bullet" horiz-adv-x="316" d="M109 137T75 172T40 263Q40 318 74 353T158 389Q207 389 241 354T276 263Q276 208 242 173T158 137Q109 137 75 172Z" />
<glyph unicode="&#x2039;" glyph-name="guilsinglleft" horiz-adv-x="277" d="M46 215V289L182 441L223 407L107 252L223 96L182 63L46 215Z" />
<glyph unicode="&#x203a;" glyph-name="guilsinglright" horiz-adv-x="277" d="M54 96L170 252L54 407L95 441L231 289V215L95 63L54 96Z" />
</font>
</defs>
</svg>
