<?xml version="1.0" standalone="no"?>
<!DOCTYPE svg PUBLIC "-//W3C//DTD SVG 1.1//EN" "http://www.w3.org/Graphics/SVG/1.1/DTD/svg11.dtd">
<svg xmlns="http://www.w3.org/2000/svg">
<defs >
<font id="CreteRound" horiz-adv-x="446" ><font-face
    font-family="Crete Round"
    units-per-em="1000"
    panose-1="2 0 5 3 5 0 0 2 0 4"
    ascent="990"
    descent="-286"
    alphabetic="0" />
<glyph unicode=" " glyph-name="space" horiz-adv-x="200" />
<glyph unicode="!" glyph-name="exclam" horiz-adv-x="253" d="M138 156H114Q103 156 99 160T94 175L72 510V659Q72 670 76 674T91 678H161Q172 678 176 674T180 659V508L158 175Q157 164 153 160T138 156ZM193 19T176 1T127 -17T77 0T58 44T77 89T126 107T174
90T193 46Z" />
<glyph unicode="&quot;" glyph-name="quotedbl" horiz-adv-x="374" d="M125 457H97Q85 457 81 460T75 476L63 559Q60 575 60 597V660Q60 671 64 675T79 679H143Q154 679 158 675T162 660V595Q162 575 159 557L147 476Q146 464 142 461T125 457ZM277 457H249Q237
457 233 460T227 476L215 559Q212 575 212 597V660Q212 671 216 675T231 679H295Q306 679 310 675T314 660V595Q314 575 311 557L299 476Q298 464 294 461T277 457Z" />
<glyph unicode="#" glyph-name="numbersign" horiz-adv-x="563" d="M183 330H80Q70 330 67 333T63 347V349Q63 360 66 363T80 366H190L218 514Q219 524 223 527T239 531H241Q258 531 255 514L227 366H359L385 514Q386 524 390 527T406 531H408Q425 531 422 514L396
366H506Q516 366 519 363T523 349V347Q523 336 520 333T506 330H389L368 207H483Q494 207 497 204T500 190V188Q500 178 497 175T483 171H361L331 0Q330 -10 326 -13T311 -17H309Q299 -17 296 -14T294 0L324 171H191L159 0Q158 -10 154 -13T139 -17H137Q127 -17
124 -14T122 0L154 171H57Q46 171 43 174T40 188V190Q40 200 43 203T57 207H160L183 330ZM352 330H220L197 207H331L352 330Z" />
<glyph unicode="$" glyph-name="dollar" horiz-adv-x="431" d="M165 -98H161Q150 -98 147 -94T144 -79L153 -15Q101 -12 70 -4T35 9T31 25V131Q31 142 35 146T50 150H98Q109 150 113 146T116 131L113 77Q128 65 163 60L183 212Q94 244 68 276Q37 313 37 365Q37
436 88 482T227 531L233 577Q235 588 239 592T255 596H259Q270 596 273 592T275 577L269 530Q306 528 337 520T371 508T375 492V386Q375 375 371 371T356 367H308Q297 367 294 371T291 386L296 439Q275 449 258 452L240 313Q327 279 341 265T371 233Q398 202 398
145Q398 72 344 28T195 -17L187 -79Q185 -90 181 -94T165 -98ZM205 57Q290 59 290 122Q290 149 274 165T223 197L205 57ZM216 454Q141 449 141 394Q141 370 155 355T200 325L216 454Z" />
<glyph unicode="%" glyph-name="percent" horiz-adv-x="832" d="M131 285T86 335T40 473T89 609T207 657T320 611T364 475T319 336T202 285ZM165 591T147 562T128 471T146 381T203 353Q277 353 277 472Q277 535 260 563T204 591ZM559 -17T514 33T468 171T517 307T635
355T748 309T792 173T747 34T630 -17ZM556 166Q556 51 631 51Q669 51 687 79T705 170T688 261T632 289T575 260T556 166ZM607 638L299 0Q294 -11 289 -14T272 -17H233Q220 -17 220 -9Q220 -5 222 0L529 638Q534 649 539 652T556 655H596Q609 655 609 647Q609 643
607 638Z" />
<glyph unicode="&amp;" glyph-name="ampersand" horiz-adv-x="647" d="M588 320H543V59Q543 41 527 32Q485 10 424 -4T306 -18Q80 -18 80 176Q80 249 120 298T217 360Q96 404 96 514Q96 592 150 644T305 696Q483 696 484 532Q485 521 481 517T466 513H413Q401
513 397 517T392 532Q389 572 369 592T301 612T228 583T202 508T230 433T328 403H588Q599 403 603 399T607 384V338Q607 327 603 323T588 320ZM264 320T225 282T185 185T219 96T319 65T433 93V320H339Q264 320 225 282Z" />
<glyph unicode="&apos;" glyph-name="quotesingle" horiz-adv-x="222" d="M125 457H97Q85 457 81 460T75 476L63 559Q60 575 60 597V660Q60 671 64 675T79 679H143Q154 679 158 675T162 660V595Q162 575 159 557L147 476Q146 464 142 461T125 457Z" />
<glyph unicode="(" glyph-name="parenleft" horiz-adv-x="336" d="M301 -85V-131Q301 -142 297 -146T282 -150H177Q165 -150 161 -147T155 -131L83 288Q82 298 82 307T83 326L145 727Q146 739 150 742T167 746H272Q283 746 287 742T291 727V678Q291 667 287 663T272
660L229 663L176 307L237 -70L282 -67Q293 -66 297 -70T301 -85Z" />
<glyph unicode=")" glyph-name="parenright" horiz-adv-x="336" d="M35 -131V-85Q35 -74 39 -70T54 -67L99 -70L160 307L107 663L64 660Q53 659 49 663T45 678V727Q45 738 49 742T64 746H169Q181 746 185 743T191 727L253 326Q254 316 254 307T253 288L181 -131Q180
-143 176 -146T159 -150H54Q43 -150 39 -146T35 -131Z" />
<glyph unicode="*" glyph-name="asterisk" horiz-adv-x="486" d="M205 610L219 727Q221 738 225 742T240 746H245Q256 746 260 742T266 727L277 610L386 659Q403 668 413 649Q416 643 416 636T407 622L308 554L408 482Q417 475 417 468T413 455L411 454Q405 444
400 443T384 446L279 495L265 380Q263 369 259 365T244 361H240Q229 361 225 365T219 380L207 495L99 446Q93 443 86 443T73 455Q69 459 69 468T78 484L176 552L78 623Q69 630 69 637Q69 642 74 652Q80 662 85 663T101 660L205 610Z" />
<glyph unicode="+" glyph-name="plus" horiz-adv-x="530" d="M54 330H227V503Q227 514 231 518T246 522H281Q292 522 296 518T300 503V330H476Q487 330 491 326T495 311V284Q495 273 491 269T476 265H300V77Q300 66 296 62T281 58H246Q235 58 231 62T227 77V265H54Q43
265 39 269T35 284V311Q35 322 39 326T54 330Z" />
<glyph unicode="," glyph-name="comma" horiz-adv-x="292" d="M169 -58L114 -145Q107 -157 101 -157Q99 -157 85 -152T68 -141T70 -125L106 -19Q105 -17 100 -11T92 -2T85 7T78 19T72 30Q67 41 67 64T86 106T140 125T195 107T215 53T169 -58Z" />
<glyph unicode="-" glyph-name="hyphen" horiz-adv-x="282" d="M233 218H49Q38 218 34 222T30 237V296Q30 307 34 311T49 315H233Q244 315 248 311T252 296V237Q252 226 248 222T233 218Z" />
<glyph unicode="." glyph-name="period" horiz-adv-x="279" d="M161 -19T126 -19T71 0T51 49T72 99T126 119T180 100T201 51T181 1Z" />
<glyph unicode="/" glyph-name="slash" horiz-adv-x="449" d="M395 745Q410 745 410 737Q410 733 408 727L113 -83Q109 -94 105 -97T88 -101H49Q34 -101 34 -93Q34 -89 36 -83L330 727Q334 738 338 741T355 745H395Z" />
<glyph unicode="0" glyph-name="zero" horiz-adv-x="576" d="M35 252Q35 326 57 382T118 470Q194 531 297 531T470 466T541 261T469 55T283 -12T102 55T35 252ZM152 253Q152 168 184 119T287 70T391 114T426 255Q426 447 289 447T152 253Z" />
<glyph unicode="1" glyph-name="one" horiz-adv-x="339" d="M44 511H212Q223 511 227 507T231 492V79H300Q311 80 315 76T319 61V19Q319 8 315 4T300 0H50Q39 0 35 4T31 19V61Q31 72 35 76T50 79H119V432L44 428Q33 427 29 431T25 446V492Q25 503 29 507T44 511Z" />
<glyph unicode="2" glyph-name="two" horiz-adv-x="526" d="M231 447Q143 447 131 361Q129 350 125 346T110 342H58Q40 342 40 357Q40 439 97 485T245 531T387 489T439 361Q439 225 264 120Q236 103 197 82H403L399 132Q398 143 402 147T417 151H464Q475 151 479
147T483 132V-34Q483 -45 479 -49T464 -53H417Q406 -53 402 -49T399 -34L402 0H62Q51 0 47 4T43 19V60Q43 78 60 86Q164 140 235 196Q324 265 324 353Q324 397 304 422T231 447Z" />
<glyph unicode="3" glyph-name="three" horiz-adv-x="483" d="M218 -141Q20 -141 20 31Q20 46 38 46H94Q106 46 109 43T115 27Q119 -19 144 -38T222 -58T303 -32T332 57Q332 164 225 169Q214 170 194 170H165Q154 170 150 174T146 189V233Q146 244 150 247T185
253T230 257Q320 274 320 360T229 447T128 361Q126 350 122 346T107 342H54Q43 342 39 346T36 361Q40 445 96 488T242 531T379 490T428 373Q428 264 299 217Q358 209 400 169T442 56Q442 -34 381 -87T218 -141Z" />
<glyph unicode="4" glyph-name="four" horiz-adv-x="524" d="M486 15H403V-114Q403 -125 399 -129T384 -133H312Q301 -133 297 -129T293 -114V15H49Q38 15 34 19T30 34V78Q30 98 40 113L277 495Q287 511 306 511H385Q396 511 400 507T404 492V99H486Q497 99 501
95T505 80V34Q505 23 501 19T486 15ZM294 394L112 99H294V394Z" />
<glyph unicode="5" glyph-name="five" horiz-adv-x="475" d="M403 415H176L155 266Q202 293 256 293Q335 293 385 241T436 86T376 -79T210 -141Q20 -141 11 29Q11 40 14 44T29 48H88Q99 48 103 44T109 29Q117 -58 208 -58Q324 -58 324 74T219 207Q168 207 123
173Q113 166 105 166T89 169L78 174Q67 179 65 183T63 200L96 492Q98 503 102 507T117 511H403Q414 511 418 507T422 492V434Q422 423 418 419T403 415Z" />
<glyph unicode="6" glyph-name="six" horiz-adv-x="546" d="M312 656Q469 656 482 507Q483 496 480 492T465 488H410Q398 488 394 492T388 507Q378 572 305 572Q159 572 154 351Q207 425 305 425T453 371T504 218T444 54T279 -12Q42 -12 42 295Q42 477 112 566T312
656ZM276 338Q233 338 200 318Q156 291 156 224T183 114T276 70Q394 70 394 204T276 338Z" />
<glyph unicode="7" glyph-name="seven" horiz-adv-x="461" d="M333 415H29Q18 415 14 419T10 434V492Q10 503 14 507T29 511H432Q443 511 447 507T451 492V448Q451 428 443 412L190 -116Q182 -133 163 -133H88Q69 -133 77 -116L333 415Z" />
<glyph unicode="8" glyph-name="eight" horiz-adv-x="534" d="M38 153Q38 266 168 335Q118 364 93 397T68 486Q68 567 127 611T272 656T407 616T455 518T427 425T345 354Q426 319 458 281T490 177Q490 92 428 40T257 -12T93 33T38 153ZM379 163Q379 217 330 249Q295
272 246 294Q144 235 144 160Q144 67 261 67T379 163ZM351 506Q351 578 271 578Q229 578 203 558T177 500T200 437T265 390Q292 409 307 422T337 458T351 506Z" />
<glyph unicode="9" glyph-name="nine" horiz-adv-x="546" d="M239 -142Q74 -142 63 7Q62 18 66 22T81 26H136Q148 26 152 23T160 -4Q171 -58 243 -58Q387 -58 392 163Q339 89 241 89T92 147T42 303T102 466T274 531Q504 531 504 228Q504 -142 239 -142ZM270 176Q316
176 348 201T388 270Q390 281 390 305Q390 364 362 406T270 449Q152 449 152 313T270 176Z" />
<glyph unicode=":" glyph-name="colon" horiz-adv-x="279" d="M161 -19T126 -19T71 0T51 49T72 99T126 119T180 100T201 51T181 1ZM161 378T126 378T71 397T51 446T72 496T126 516T180 497T201 448T181 398Z" />
<glyph unicode=";" glyph-name="semicolon" horiz-adv-x="300" d="M169 -58L114 -145Q107 -157 101 -157Q99 -157 85 -152T68 -141T70 -125L106 -19Q105 -17 100 -11T92 -2T85 7T78 19T72 30Q67 41 67 64T86 106T140 125T195 107T215 53T169 -58ZM182 378T147
378T92 397T72 446T93 496T147 516T201 497T222 448T202 398Z" />
<glyph unicode="&lt;" glyph-name="less" horiz-adv-x="530" d="M477 465V425Q477 413 474 409T460 399L139 268L460 129Q471 124 474 119T477 102V60Q477 47 469 47Q465 47 460 49L70 224Q53 232 53 251V281Q53 293 56 297T70 307L460 477Q465 479 468 479Q477
479 477 465Z" />
<glyph unicode="=" glyph-name="equal" horiz-adv-x="530" d="M35 339V366Q35 377 39 381T54 385H476Q487 385 491 381T495 366V339Q495 328 491 324T476 320H54Q43 320 39 324T35 339ZM35 160V187Q35 198 39 202T54 206H476Q487 206 491 202T495 187V160Q495
149 491 145T476 141H54Q43 141 39 145T35 160Z" />
<glyph unicode="&gt;" glyph-name="greater" horiz-adv-x="530" d="M391 268L67 400Q53 406 53 421V469Q53 480 60 480Q63 480 67 478L463 306Q477 300 477 285V247Q477 232 463 226L67 47Q63 45 60 45Q53 45 53 56V106Q53 121 67 127L391 268Z" />
<glyph unicode="?" glyph-name="question" horiz-adv-x="465" d="M226 158H178Q167 158 163 162T159 177V347Q159 358 162 362T177 370Q321 402 321 514Q321 619 225 619Q138 619 128 533Q126 522 122 518T107 514H54Q36 514 36 529Q36 610 92 653T236 696T377
652T430 520T380 380T245 305V177Q245 166 241 162T226 158ZM268 19T251 1T202 -17T152 0T133 44T152 89T201 107T249 90T268 46Z" />
<glyph unicode="@" glyph-name="at" horiz-adv-x="848" d="M47 229Q47 407 155 516T439 625T711 533T807 269Q807 169 770 91Q750 49 710 25T621 0Q525 0 523 63Q471 0 385 0Q327 0 287 32T246 132Q246 208 294 244T401 290T517 300V324Q517 371 499 393T436 416T374
403T352 363Q350 352 346 348T330 344H285Q274 344 271 348T268 363Q275 431 327 460T452 490Q618 490 618 337V97Q618 48 651 48Q705 48 734 108T764 263Q764 416 679 501T438 587T188 487T95 225T190 -18T440 -100Q471 -100 492 -98T516 -99T522 -113V-115Q525
-133 507 -134Q471 -137 436 -137Q264 -137 158 -50Q106 -6 77 65T47 229ZM519 147V236Q417 233 386 214Q371 206 359 189T347 146Q347 78 423 78Q468 78 493 98T519 147Z" />
<glyph unicode="A" glyph-name="A" horiz-adv-x="696" d="M214 214L168 79H228Q243 79 243 64V15Q243 0 228 0H15Q0 0 0 15V64Q0 79 15 79H74L274 665Q280 679 294 679H391Q405 679 411 665L613 79H681Q696 79 696 64V15Q696 0 681 0H430Q415 0 415 15V64Q415
79 430 79H492L445 214H214ZM329 583L234 289H423L329 583Z" />
<glyph unicode="B" glyph-name="B" horiz-adv-x="587" d="M39 15V64Q39 79 54 79H107V598H55Q40 598 40 613V664Q40 680 55 680Q175 685 283 685T455 644T520 525Q520 469 486 428T404 367Q481 355 521 310T562 200Q562 115 499 63T332 3Q289 0 194 0H54Q39 0
39 15ZM219 315V77H264Q352 77 400 105T449 202Q449 315 291 315H219ZM219 604V398H257Q405 398 405 501Q405 559 369 581T266 604H219Z" />
<glyph unicode="C" glyph-name="C" horiz-adv-x="629" d="M43 336Q43 432 71 505T147 618Q239 696 355 696T565 645Q578 638 578 625V496Q578 481 563 481H507Q492 481 493 496L496 566Q434 608 355 608Q163 608 163 352Q163 272 182 213T249 114T377 75T497 107L493
177Q492 192 507 192H564Q579 192 579 177V50Q579 36 569 31Q481 -12 368 -12Q204 -12 124 81T43 336Z" />
<glyph unicode="D" glyph-name="D" horiz-adv-x="679" d="M55 679Q183 685 245 685T337 683T407 672T476 651T538 612T590 554Q636 478 636 358Q636 177 536 89T263 0H55Q40 0 40 15V64Q40 79 55 79H107V598H55Q40 598 40 613V664Q40 679 55 679ZM395 78T455 150T516
347T460 537T283 602H219V78H285Q395 78 455 150Z" />
<glyph unicode="E" glyph-name="E" horiz-adv-x="555" d="M220 599V386H369L365 437Q364 452 379 452H435Q450 452 450 437V260Q450 245 435 245H379Q364 245 365 260L368 308H220V78H449L445 149Q444 164 459 164H515Q530 164 530 149V15Q530 0 515 0H55Q40 0
40 15V64Q40 79 55 79H108V598H55Q40 598 40 613V664Q40 679 55 679H495Q510 679 510 664V530Q510 515 495 515H439Q424 515 425 530L429 599H220Z" />
<glyph unicode="F" glyph-name="F" horiz-adv-x="540" d="M220 599V391H379L375 442Q374 457 389 457H445Q460 457 460 442V265Q460 250 445 250H389Q374 250 375 265L378 313H220V79H323Q338 79 338 64V15Q338 0 323 0H55Q40 0 40 15V64Q40 79 55 79H108V598H55Q40
598 40 613V664Q40 679 55 679H505Q520 679 520 664V530Q520 515 505 515H449Q434 515 435 530L439 599H220Z" />
<glyph unicode="G" glyph-name="G" horiz-adv-x="695" d="M607 234V64Q607 50 593 43Q550 20 487 4T353 -12T218 15T116 91Q43 187 43 341Q43 435 71 506T147 618Q239 696 358 696T564 643Q578 635 578 621V496Q578 481 563 481H506Q491 481 492 496L495 563Q432
608 359 608T241 572T180 482T163 353T181 217T248 117T374 77T504 112V234H440Q425 234 425 249V299Q425 314 440 314H660Q675 314 675 299V249Q675 234 660 234H607Z" />
<glyph unicode="H" glyph-name="H" horiz-adv-x="743" d="M220 598V392H523V598H470Q455 598 455 613V664Q455 679 470 679H688Q703 679 703 664V613Q703 598 688 598H635V79H688Q703 79 703 64V15Q703 0 688 0H470Q455 0 455 15V64Q455 79 470 79H523V306H220V79H273Q288
79 288 64V15Q288 0 273 0H55Q40 0 40 15V64Q40 79 55 79H108V598H55Q40 598 40 613V664Q40 679 55 679H273Q288 679 288 664V613Q288 598 273 598H220Z" />
<glyph unicode="I" glyph-name="I" horiz-adv-x="328" d="M220 598V79H273Q288 79 288 64V15Q288 0 273 0H55Q40 0 40 15V64Q40 79 55 79H108V598H55Q40 598 40 613V664Q40 679 55 679H273Q288 679 288 664V613Q288 598 273 598H220Z" />
<glyph unicode="J" glyph-name="J" horiz-adv-x="329" d="M109 -38V598H56Q41 598 41 613V664Q41 679 56 679H274Q289 679 289 664V613Q289 598 274 598H221V-42Q221 -240 38 -240Q-31 -240 -75 -219Q-82 -216 -82 -211T-80 -200L-62 -148Q-57 -133 -44 -138Q-10
-151 29 -151T89 -125T109 -38Z" />
<glyph unicode="K" glyph-name="K" horiz-adv-x="664" d="M220 598V384H272L458 598H405Q390 598 390 613V664Q390 679 405 679H609Q624 679 624 664V611Q624 596 609 596H558L360 365L559 79H624Q639 79 639 64V15Q639 0 624 0H496Q481 0 472 12L271 302H220V79H273Q288
79 288 64V15Q288 0 273 0H55Q40 0 40 15V64Q40 79 55 79H108V598H55Q40 598 40 613V664Q40 679 55 679H273Q288 679 288 664V613Q288 598 273 598H220Z" />
<glyph unicode="L" glyph-name="L" horiz-adv-x="525" d="M220 598V79H429L425 149Q424 164 439 164H495Q510 164 510 149V-48Q510 -63 495 -63H439Q424 -63 425 -48L428 0H55Q40 0 40 15V64Q40 79 55 79H108V598H55Q40 598 40 613V664Q40 679 55 679H293Q308
679 308 664V613Q308 598 293 598H220Z" />
<glyph unicode="M" glyph-name="M" horiz-adv-x="909" d="M476 0H410Q395 0 389 14L195 507V79H258Q273 79 273 64V15Q273 0 258 0H55Q40 0 40 15V64Q40 79 55 79H108V598H55Q40 598 40 613V664Q40 679 55 679H230Q246 679 250 665L456 128L667 665Q671 679 687
679H854Q869 679 869 664V613Q869 598 854 598H801V79H854Q869 79 869 64V15Q869 0 854 0H634Q619 0 619 15V64Q619 79 634 79H694V506L497 14Q491 0 476 0Z" />
<glyph unicode="N" glyph-name="N" horiz-adv-x="743" d="M645 598V15Q645 0 630 0H557Q542 0 534 12L195 513V79H278Q293 79 293 64V15Q293 0 278 0H55Q40 0 40 15V64Q40 79 55 79H108V598H55Q40 598 40 613V664Q40 679 55 679H202Q216 679 225 666L558 160V598H505Q490
598 490 613V664Q490 679 505 679H698Q713 679 713 664V613Q713 598 698 598H645Z" />
<glyph unicode="O" glyph-name="O" horiz-adv-x="692" d="M43 333Q43 433 73 507T152 621Q245 696 354 696Q391 696 425 690T502 664T575 609T627 510T649 361Q649 181 561 85T334 -12T119 76T43 333ZM345 82Q524 82 524 345T342 608Q278 608 237 574T179 488T163
368Q163 82 345 82Z" />
<glyph unicode="P" glyph-name="P" horiz-adv-x="565" d="M40 15V64Q40 79 55 79H107V599H55Q40 599 40 614V664Q40 679 55 679Q183 685 264 685Q530 685 530 490Q530 389 465 330T288 271Q244 271 219 274V79H302Q317 79 317 64V15Q317 0 302 0H55Q40 0 40 15ZM219
602V351Q228 350 265 350Q415 350 415 483Q415 531 391 558T334 594T255 602H219Z" />
<glyph unicode="Q" glyph-name="Q" horiz-adv-x="692" d="M357 -11L333 -12Q194 -12 119 75T43 332Q43 413 63 477T115 582T190 648Q266 696 354 696Q391 696 425 690T502 663T575 608T627 509T649 360Q649 234 604 150T481 23Q500 -46 572 -108Q583 -117 574
-129L551 -157Q546 -163 541 -163T529 -160Q397 -92 357 -11ZM345 82Q524 82 524 345T342 608Q278 608 237 573T179 487T163 367Q163 82 345 82Z" />
<glyph unicode="R" glyph-name="R" horiz-adv-x="616" d="M40 15V64Q40 79 55 79H107V599H55Q40 599 40 614V664Q40 679 55 679Q183 685 268 685Q528 685 528 499Q528 434 495 385T407 309L524 79H586Q601 79 601 64V15Q601 0 586 0H454Q439 0 432 13L296 282H276Q244
282 219 285V79H282Q297 79 297 64V15Q297 0 282 0H55Q40 0 40 15ZM219 602V361Q227 360 242 360Q323 360 368 392T413 488Q413 602 255 602H219Z" />
<glyph unicode="S" glyph-name="S" horiz-adv-x="517" d="M283 696Q357 696 431 674Q445 670 445 656V518Q445 503 430 503H374Q359 503 360 518L363 585Q323 609 274 609T196 586T166 520T193 452T270 406T337 380T386 354T434 317T463 267T477 198Q477 99 415
44T237 -12Q152 -12 69 14Q55 18 55 32V191Q55 206 70 206H126Q141 206 140 191L136 108Q149 96 179 86T242 75Q366 75 366 176Q366 225 333 253T248 299T168 330T113 366Q57 408 57 495T117 639T283 696Z" />
<glyph unicode="T" glyph-name="T" horiz-adv-x="593" d="M436 0H158Q143 0 143 15V64Q143 79 158 79H240V599H105L110 521Q111 506 96 506H35Q20 506 20 521V664Q20 679 35 679H558Q573 679 573 664V521Q573 506 558 506H497Q482 506 483 521L488 599H353V79H436Q451
79 451 64V15Q451 0 436 0Z" />
<glyph unicode="U" glyph-name="U" horiz-adv-x="713" d="M205 598V284Q205 234 210 202T230 138Q259 78 354 78T487 130T524 281V598H471Q456 598 456 613V664Q456 679 471 679H673Q688 679 688 664V613Q688 598 673 598H620V260Q620 150 568 74Q540 34 487 11T357
-12Q209 -12 151 52T93 249V598H40Q25 598 25 613V664Q25 679 40 679H258Q273 679 273 664V613Q273 598 258 598H205Z" />
<glyph unicode="V" glyph-name="V" horiz-adv-x="684" d="M269 14L82 598H20Q5 598 5 613V664Q5 679 20 679H274Q289 679 289 664V613Q289 598 274 598H213L355 119L517 598H453Q438 598 438 613V664Q438 679 453 679H664Q679 679 679 664V613Q679 598 664 598H611L406
14Q400 0 386 0H289Q275 0 269 14Z" />
<glyph unicode="W" glyph-name="W" horiz-adv-x="997" d="M216 15L72 598H20Q5 598 5 613V664Q5 679 20 679H270Q285 679 285 664V613Q285 598 270 598H199L306 133L452 665Q456 679 471 679H553Q568 679 572 665L717 130L832 598H766Q751 598 751 613V664Q751
679 766 679H977Q992 679 992 664V613Q992 598 977 598H924L770 15Q766 0 751 0H657Q642 0 638 14L498 512L364 14Q360 0 345 0H235Q220 0 216 15Z" />
<glyph unicode="X" glyph-name="X" horiz-adv-x="677" d="M176 78H239Q254 78 254 63V15Q254 0 239 0H21Q6 0 6 15V63Q6 78 21 78H74L269 338L79 598H25Q10 598 10 613V664Q10 679 25 679H275Q290 679 290 664V613Q290 598 275 598H214L343 418L474 598H418Q403
598 403 613V664Q403 679 418 679H629Q644 679 644 664V613Q644 598 629 598H577L392 356L591 78H652Q667 78 667 63V15Q667 0 652 0H390Q375 0 375 15V63Q375 78 390 78H454L318 269L176 78Z" />
<glyph unicode="Y" glyph-name="Y" horiz-adv-x="664" d="M279 257L77 598H25Q10 598 10 613V664Q10 679 25 679H279Q294 679 294 664V613Q294 598 279 598H208L352 352L495 598H428Q413 598 413 613V664Q413 679 428 679H639Q654 679 654 664V613Q654 598 639
598H586L391 270V78H444Q459 78 459 63V15Q459 0 444 0H226Q211 0 211 15V63Q211 78 226 78H279V257Z" />
<glyph unicode="Z" glyph-name="Z" horiz-adv-x="588" d="M63 679H535Q550 679 550 664V616Q550 601 541 589L165 78H471L465 149Q464 164 479 164H538Q553 164 553 149V-48Q553 -63 538 -63H482Q467 -63 468 -48L471 0H46Q31 0 31 15V63Q31 78 40 90L412 601H133L138
521Q139 506 124 506H63Q48 506 48 521V664Q48 679 63 679Z" />
<glyph unicode="[" glyph-name="bracketleft" horiz-adv-x="337" d="M309 -83V-131Q309 -142 305 -146T290 -150H145Q134 -150 130 -146T126 -131V727Q126 738 130 742T145 746H290Q301 746 305 742T309 727V676Q309 665 305 661T290 658L222 663V-70L290 -65Q301
-64 305 -68T309 -83Z" />
<glyph unicode="\" glyph-name="backslash" horiz-adv-x="434" d="M400 -93Q400 -101 385 -101H346Q334 -101 330 -98T321 -83L26 727Q24 733 24 737Q24 745 39 745H79Q91 745 95 742T104 727L398 -83Q400 -89 400 -93Z" />
<glyph unicode="]" glyph-name="bracketright" horiz-adv-x="337" d="M28 -131V-83Q28 -72 32 -68T47 -65L115 -70V663L47 658Q36 657 32 661T28 676V727Q28 738 32 742T47 746H192Q203 746 207 742T211 727V-131Q211 -142 207 -146T192 -150H47Q36 -150 32 -146T28
-131Z" />
<glyph unicode="^" glyph-name="asciicircum" horiz-adv-x="584" d="M394 328L279 587L163 328Q157 314 142 314H76Q66 314 66 321Q66 324 68 328L236 676Q242 690 257 690H304Q319 690 325 676L493 328Q495 324 495 321Q495 314 484 314H415Q400 314 394 328Z" />
<glyph unicode="_" glyph-name="underscore" horiz-adv-x="500" d="M488 -161H12Q1 -161 -3 -157T-7 -142V-123Q-7 -112 -3 -108T12 -104H488Q499 -104 503 -108T507 -123V-142Q507 -153 503 -157T488 -161Z" />
<glyph unicode="`" glyph-name="grave" horiz-adv-x="500" d="M195 715Q191 722 191 727T205 732H277Q289 732 293 729T302 714L345 598Q347 592 347 589Q347 580 332 580H288Q268 580 260 597L195 715Z" />
<glyph unicode="a" glyph-name="a" horiz-adv-x="524" d="M328 297V332Q328 403 288 421Q269 429 233 429Q165 429 151 365Q148 350 136 350H72Q56 350 58 365Q62 438 117 472T257 506Q436 506 436 342V79H479Q494 79 494 64V15Q494 0 479 0H361Q348 0 346 15L339
61Q285 -12 183 -12Q119 -12 77 21T35 129Q35 226 116 262Q183 293 276 296Q295 296 328 297ZM330 151V228Q234 228 212 219T173 201Q141 184 141 139Q141 70 220 70Q272 70 301 94T330 151Z" />
<glyph unicode="b" glyph-name="b" horiz-adv-x="584" d="M89 79V663H35Q20 663 20 678V731Q20 746 35 746H186Q201 746 201 731V420Q225 460 265 483T353 506Q445 506 497 445T549 255T490 57T333 -12Q278 -12 238 7T179 56L173 15Q172 0 158 0H36Q21 0 21 15V64Q21
79 36 79H89ZM201 302V125Q213 107 247 90T315 73Q436 73 436 244Q436 368 380 400Q356 414 314 414T237 384T201 302Z" />
<glyph unicode="c" glyph-name="c" horiz-adv-x="468" d="M149 254Q149 72 290 72Q335 72 395 99Q410 105 416 90L434 46Q439 32 426 25Q365 -12 272 -12Q151 -12 93 56T35 242T94 433T272 506Q362 506 405 457T448 332Q448 319 431 319H371Q355 319 354 334Q349
422 265 422Q205 422 177 381T149 254Z" />
<glyph unicode="d" glyph-name="d" horiz-adv-x="583" d="M495 79H538Q553 79 553 64V15Q553 0 538 0H425Q412 0 410 15L402 74Q351 -12 239 -12Q141 -12 88 49T35 240T96 438T255 506Q299 506 333 490T383 450V663H330Q315 663 315 678V731Q315 746 330 746H480Q495
746 495 731V79ZM383 188V364Q370 384 338 401T272 418Q148 418 148 250Q148 121 204 89Q228 75 270 75T347 106T383 188Z" />
<glyph unicode="e" glyph-name="e" horiz-adv-x="489" d="M265 -12Q146 -12 91 57T35 241T94 431T264 506Q319 506 358 486T419 430Q459 362 459 273Q459 231 455 227T440 223H146Q151 151 181 112T287 72Q342 72 400 98Q414 105 420 90L439 44Q444 32 430 24Q364
-12 265 -12ZM146 297H354Q356 422 256 422Q197 422 173 385T146 297Z" />
<glyph unicode="f" glyph-name="f" horiz-adv-x="358" d="M209 414V79H315Q330 79 330 64V15Q330 0 315 0H35Q20 0 20 15V64Q20 79 35 79H97V414H35Q20 414 20 429V480Q20 495 35 495H97V592Q97 712 172 745Q203 759 257 759T367 734Q376 730 376 724T375 715L360
665Q355 653 343 658Q303 676 267 676T220 653T209 568V495H330Q345 495 345 480V429Q345 414 330 414H209Z" />
<glyph unicode="g" glyph-name="g" horiz-adv-x="570" d="M490 413V58Q490 -6 485 -61Q477 -146 423 -193T268 -240T100 -210Q88 -205 92 -190L110 -137Q114 -123 130 -129Q191 -154 253 -154T347 -124T378 -18V60Q334 -12 236 -12T87 51T35 242T95 438T247 506T395
441L405 480Q410 495 423 495H545Q560 495 560 480V428Q560 413 545 413H490ZM378 187V365Q374 371 366 380T329 403T267 418Q214 418 181 379T148 252T172 120T265 74Q309 74 343 105T378 187Z" />
<glyph unicode="h" glyph-name="h" horiz-adv-x="599" d="M20 679V731Q20 746 35 746H186Q201 746 201 731V423Q257 506 356 506Q511 506 511 336V79H570Q585 79 585 64V15Q585 0 570 0H351Q336 0 336 15V64Q336 79 351 79H399V286Q399 349 383 378T317 407T234
377T201 309V79H262Q277 79 277 64V15Q277 0 262 0H35Q20 0 20 15V64Q20 79 35 79H89V664H35Q20 664 20 679Z" />
<glyph unicode="i" glyph-name="i" horiz-adv-x="294" d="M206 79H269Q284 79 284 64V15Q284 0 269 0H31Q16 0 16 15V64Q16 79 31 79Q31 79 94 79V413H40Q25 413 25 428V480Q25 495 40 495H191Q206 495 206 480V79ZM66 604T66 635T85 686T137 707T189 687T209
635T189 584T137 564T85 584Z" />
<glyph unicode="j" glyph-name="j" horiz-adv-x="289" d="M206 480V-41Q206 -240 29 -240Q-47 -240 -91 -219Q-100 -214 -100 -209T-99 -199L-79 -144Q-74 -131 -60 -136Q-27 -148 10 -148Q94 -148 94 -31V413H40Q25 413 25 428V480Q25 495 40 495H191Q206 495
206 480ZM66 604T66 635T85 686T137 707T189 687T209 635T189 584T137 564T85 584Z" />
<glyph unicode="k" glyph-name="k" horiz-adv-x="566" d="M206 731V332H257L412 484Q423 495 438 495H516Q531 495 531 480V428Q531 413 516 413H455L345 306L482 79H541Q556 79 556 64V15Q556 0 541 0H412Q398 0 389 13L239 255H206V79H259Q274 79 274 64V15Q274
0 259 0H41Q26 0 26 15V64Q26 79 41 79H94V665H40Q25 665 25 680V731Q25 746 40 746H191Q206 746 206 731Z" />
<glyph unicode="l" glyph-name="l" horiz-adv-x="294" d="M206 731V79H269Q284 79 284 64V15Q284 0 269 0H31Q16 0 16 15V64Q16 79 31 79H94V664H40Q25 664 25 679V731Q25 746 40 746H191Q206 746 206 731Z" />
<glyph unicode="m" glyph-name="m" horiz-adv-x="893" d="M25 428V480Q25 495 40 495H177Q190 495 192 480L200 422Q252 506 356 506T493 418Q547 506 650 506Q805 506 805 336V79H862Q877 79 877 64V15Q877 0 862 0H642Q627 0 627 15V64Q627 79 642 79H693V286Q693
349 677 378T613 407T535 381T506 320V79H554Q569 79 569 64V15Q569 0 554 0H349Q334 0 334 15V64Q334 79 349 79H394V286Q394 349 378 378T313 407T235 378T206 309V79H267Q282 79 282 64V15Q282 0 267 0H41Q26 0 26 15V64Q26 79 41 79H94V413H40Q25 413 25 428Z"
/>
<glyph unicode="n" glyph-name="n" horiz-adv-x="604" d="M25 427V480Q25 495 40 495H176Q189 495 192 480L201 422Q257 506 361 506Q516 506 516 336V79H574Q589 79 589 64V15Q589 0 574 0H356Q341 0 341 15V64Q341 79 356 79H404V286Q404 349 388 378T322 407T239
377T206 309V79H268Q283 79 283 64V15Q283 0 268 0H41Q26 0 26 15V64Q26 79 41 79H94V413H40Q25 413 25 427Z" />
<glyph unicode="o" glyph-name="o" horiz-adv-x="532" d="M35 240Q35 315 58 370T118 453Q189 506 272 506Q333 506 375 487T440 443T480 371T497 261Q497 127 430 58T257 -12T94 51T35 240ZM265 70Q325 70 352 114T380 247T353 379T263 424Q148 424 148 262Q148
70 265 70Z" />
<glyph unicode="p" glyph-name="p" horiz-adv-x="584" d="M89 -151V413H35Q20 413 20 428V480Q20 495 35 495H171Q183 495 186 480L196 420Q247 506 353 506Q445 506 497 446T549 267Q549 124 488 56T331 -12Q252 -12 201 30V-150H307Q322 -150 322 -165V-215Q322
-230 307 -230H36Q21 -230 21 -215V-166Q21 -151 36 -151H89ZM201 304V113Q217 97 250 84T315 71Q373 71 404 110T436 244Q436 372 380 401Q356 414 314 414T237 385T201 304Z" />
<glyph unicode="q" glyph-name="q" horiz-adv-x="575" d="M495 -152H548Q563 -152 563 -167V-215Q563 -230 548 -230H398Q383 -230 383 -215V63Q336 -12 238 -12T87 51T35 241T96 437T255 506Q302 506 340 488T399 439L409 480Q414 495 425 495H550Q565 495 565
480V428Q565 413 550 413H495V-152ZM383 189V364Q379 370 371 379T334 402T272 417Q216 417 182 377T148 254Q148 120 204 88Q228 74 271 74T348 105T383 189Z" />
<glyph unicode="r" glyph-name="r" horiz-adv-x="451" d="M217 449T255 477T338 506T407 498Q419 494 419 480V345Q419 330 404 330H339Q324 330 325 345L329 403Q324 404 312 404Q266 404 236 367T206 266V79H316Q331 79 331 64V15Q331 0 316 0H41Q26 0 26 15V64Q26
79 41 79H94V413H40Q25 413 25 428V480Q25 495 40 495H172Q186 495 189 480L200 409Q217 449 255 477Z" />
<glyph unicode="s" glyph-name="s" horiz-adv-x="441" d="M56 418T107 462T236 506T371 488Q385 484 385 470V364Q385 349 370 349H312Q296 349 299 364L304 415Q274 431 238 431Q158 431 158 375Q158 346 184 329T247 302T321 278T385 232T411 149Q411 73 358
31T209 -12Q142 -12 68 8Q55 12 55 27V133Q55 148 70 148H128Q143 148 142 133L139 81Q166 61 216 61Q305 61 305 124Q305 156 280 174T218 203T144 225T82 269T56 352Q56 418 107 462Z" />
<glyph unicode="t" glyph-name="t" horiz-adv-x="369" d="M199 413V161Q199 114 211 93T256 72T320 86Q331 90 336 78L354 32Q355 29 355 24T345 12Q297 -12 231 -12Q142 -12 114 34Q94 64 91 92Q87 130 87 172V413H30Q15 413 15 428V480Q15 495 30 495H87V630Q87
645 102 645H184Q199 645 199 630V495H300Q315 495 315 480V428Q315 413 300 413H199Z" />
<glyph unicode="u" glyph-name="u" horiz-adv-x="599" d="M510 79H554Q569 79 569 64V15Q569 0 554 0H442Q430 0 427 15L418 71Q354 -12 250 -12Q88 -12 88 158V413H35Q20 413 20 428V480Q20 495 35 495H185Q200 495 200 480V188Q200 128 215 103T281 77T365 107T398
175V413H335Q320 413 320 428V480Q320 495 335 495H495Q510 495 510 480V79Z" />
<glyph unicode="v" glyph-name="v" horiz-adv-x="519" d="M165 481L281 111L386 413H335Q320 413 320 428V480Q320 495 335 495H481Q493 495 497 488T501 476T499 465L328 14Q324 0 308 0H222Q208 0 202 14L65 413H15Q0 413 0 428V480Q0 495 15 495H146Q161 495 165 481Z" />
<glyph unicode="w" glyph-name="w" horiz-adv-x="781" d="M165 480L256 123L355 481Q359 495 374 495H454Q469 495 473 481L575 121L664 413H616Q601 413 601 428V480Q601 495 616 495H744Q756 495 760 489T765 477T764 468L626 14Q622 0 607 0H517Q502 0 498
15L403 368L304 14Q300 0 285 0H195Q180 0 176 14L67 413H15Q0 413 0 428V480Q0 495 15 495H146Q161 495 165 480Z" />
<glyph unicode="x" glyph-name="x" horiz-adv-x="553" d="M520 480V428Q520 413 505 413H445L333 263L446 79H515Q530 79 530 64V15Q530 0 515 0H384Q370 0 361 13L263 179L190 79H245Q260 79 260 64V15Q260 0 245 0H38Q23 0 23 15V64Q23 79 38 79H90L217 248L117
413H53Q38 413 38 428V480Q38 495 53 495H178Q193 495 200 482L288 327L352 413H315Q300 413 300 428V480Q300 495 315 495H505Q520 495 520 480Z" />
<glyph unicode="y" glyph-name="y" horiz-adv-x="519" d="M165 481L282 117L386 413H335Q320 413 320 428V480Q320 495 335 495H481Q493 495 497 488T501 476T499 465L285 -94Q270 -132 260 -152T230 -196Q193 -240 121 -240T3 -218Q-5 -214 -5 -208T-4 -199L13
-150Q17 -137 32 -141Q80 -157 110 -157T157 -142T192 -77L217 -11L65 413H15Q0 413 0 428V480Q0 495 15 495H146Q161 495 165 481Z" />
<glyph unicode="z" glyph-name="z" horiz-adv-x="452" d="M422 141L421 15Q421 0 406 0H50Q35 0 35 15V73Q35 88 44 100L293 415H127L129 362Q130 347 115 347H60Q45 347 45 362V480Q45 495 60 495H403Q418 495 418 480V424Q418 409 409 397L154 78H339L337 141Q336
156 351 156H407Q422 156 422 141Z" />
<glyph unicode="{" glyph-name="braceleft" horiz-adv-x="328" d="M137 273H59Q48 273 44 277T40 292V340Q40 351 44 355T59 359H137L110 727Q109 738 113 742T128 746H281Q292 746 296 742T300 727V676Q300 665 296 661T281 658L213 663V-70L281 -65Q292 -64
296 -68T300 -83V-131Q300 -142 296 -146T281 -150H128Q117 -150 113 -146T110 -131L137 273Z" />
<glyph unicode="|" glyph-name="bar" horiz-adv-x="257" d="M167 726V-82Q167 -93 163 -97T148 -101H109Q98 -101 94 -97T90 -82V726Q90 737 94 741T109 745H148Q159 745 163 741T167 726Z" />
<glyph unicode="}" glyph-name="braceright" horiz-adv-x="330" d="M281 273H203L230 -131Q231 -142 227 -146T212 -150H59Q48 -150 44 -146T40 -131V-83Q40 -72 44 -68T59 -65L127 -70V663L59 658Q48 657 44 661T40 676V727Q40 738 44 742T59 746H212Q223 746
227 742T230 727L203 359H281Q292 359 296 355T300 340V292Q300 281 296 277T281 273Z" />
<glyph unicode="~" glyph-name="asciitilde" horiz-adv-x="636" d="M72 303T104 335T175 368T309 341T435 313T476 320T489 347T504 367H541Q556 367 556 348Q556 280 526 248T449 216T305 243T185 270T154 261T145 228Q145 215 131 215H87Q72 215 72 231Q72 303
104 335Z" />
<glyph unicode="&#xa0;" glyph-name="uni00A0" horiz-adv-x="200" />
<glyph unicode="&#xa1;" glyph-name="exclamdown" horiz-adv-x="253" d="M114 338H138Q149 338 153 334T158 319L180 -14V-165Q180 -176 176 -180T161 -184H91Q80 -184 76 -180T72 -165V-16L94 319Q95 330 99 334T114 338ZM58 476T76 493T126 511T175 493T193
448T175 404T126 387T77 405T58 449Z" />
<glyph unicode="&#xa2;" glyph-name="cent" horiz-adv-x="468" d="M224 -62H220Q209 -62 206 -58T204 -43L215 41Q64 76 64 273Q64 375 118 441T278 509L287 577Q289 588 293 592T309 596H313Q324 596 327 592T329 577L320 507Q379 496 410 454T442 349Q443 338
439 334T424 330H380Q368 330 365 333T359 349Q353 415 309 428L268 120Q277 118 308 118T387 138Q405 146 411 128L423 93Q427 82 426 77T414 67Q350 34 277 34H256L246 -43Q244 -54 240 -58T224 -62ZM267 431Q217 427 192 387T166 277Q166 172 227 131L267 431Z"
/>
<glyph unicode="&#xa3;" glyph-name="sterling" horiz-adv-x="454" d="M141 0L33 -4Q26 -4 22 -2T16 13L13 25Q12 30 12 38T31 61Q89 104 92 233H51Q40 233 37 237T34 252L37 276Q39 287 43 291T58 295H96L100 360Q106 449 156 490T283 531Q328 531 394 515Q405
512 408 508T412 491V384Q412 373 408 369T393 365H351Q340 365 336 369T333 384L337 435Q309 454 272 454T219 434T201 367L197 295H341Q352 295 355 291T357 276L354 250Q353 238 349 235T332 231H193Q191 181 180 151T137 83H348L344 135Q343 146 347 150T362
154H410Q421 154 425 150T429 135V19Q429 8 425 4T410 0H141Z" />
<glyph unicode="&#xa5;" glyph-name="yen" horiz-adv-x="523" d="M215 220H111Q100 220 96 224T92 239V252Q92 263 96 267T111 271H193L71 431H36Q25 431 21 434T17 449V492Q17 503 21 507T36 511H227Q238 511 242 507T246 492V449Q246 438 242 435T227 431H185L278
304L372 431H330Q319 431 315 434T311 449V492Q311 503 315 507T330 511H481Q492 511 496 507T500 492V449Q500 438 496 435T481 431H449L329 271H411Q422 271 426 267T430 252V239Q430 228 426 224T411 220H307V176H411Q422 176 426 172T430 157V144Q430 133 426
129T411 125H307V79H340Q351 80 355 76T359 61V19Q359 8 355 4T340 0H183Q172 0 168 4T164 19V61Q164 72 168 76T183 79H215V125H111Q100 125 96 129T92 144V157Q92 168 96 172T111 176H215V220Z" />
<glyph unicode="&#xa6;" glyph-name="brokenbar" horiz-adv-x="257" d="M167 214V-82Q167 -93 163 -97T148 -101H109Q98 -101 94 -97T90 -82V214Q90 225 94 229T109 233H148Q159 233 163 229T167 214ZM109 745H148Q159 745 163 741T167 726V462Q167 451 163 447T148
443H109Q98 443 94 447T90 462V726Q90 737 94 741T109 745Z" />
<glyph unicode="&#xa7;" glyph-name="section" horiz-adv-x="573" d="M300 13T271 65T188 184T114 284T74 363T55 457Q55 559 122 627T305 695Q502 695 502 539Q502 532 499 529T485 525H435Q424 525 420 529T414 544Q403 619 325 619T246 560Q246 507 355 375Q404
316 414 299T438 262T456 230T469 199T481 164Q490 121 490 94Q490 -24 417 -102T234 -181Q156 -181 109 -148T57 -28Q56 -17 59 -13T74 -9H123Q135 -9 138 -12T144 -28Q150 -105 225 -105Q257 -105 278 -88T300 -29ZM379 -50Q404 6 404 67T378 182T314 281T241
370Q167 461 167 542Q167 554 169 567L163 570Q144 527 144 475T171 373T235 279T308 186Q381 87 381 -15Q381 -32 379 -50Z" />
<glyph unicode="&#xa8;" glyph-name="dieresis" horiz-adv-x="500" d="M391 628T374 612T329 595T284 611T267 656T284 701T329 717Q391 717 391 657Q391 628 374 612ZM188 628T171 612T126 595T81 611T64 656T81 701T126 717Q188 717 188 657Q188 628 171 612Z" />
<glyph unicode="&#xa9;" glyph-name="copyright" horiz-adv-x="880" d="M78 492T178 592T437 693T699 594T802 341T700 88T435 -12T175 86T78 338ZM121 198T209 110T437 22T668 108T759 337T667 569T434 658T207 570T121 340ZM449 480Q353 480 353 346Q353 280
373 246T443 211Q477 211 495 222T517 264Q519 275 523 279T538 283H561Q572 283 576 279T579 264Q577 211 542 179T437 147Q348 147 307 201T266 343T311 487T450 544Q513 544 545 512T580 427Q580 416 576 412T561 408H538Q527 408 523 412T517 427Q510 480 449
480Z" />
<glyph unicode="&#xaa;" glyph-name="ordfeminine" horiz-adv-x="530" d="M308 547V572Q308 603 297 619T250 636T202 625T184 590Q181 580 173 580H120Q110 580 110 590Q114 644 154 670T265 696T365 665T394 579V393H424Q435 393 435 382V345Q435 334 424 334H332Q323
334 321 345L316 378Q278 325 205 325Q159 325 129 349T99 426Q99 484 136 508Q155 521 172 529T219 540Q258 545 308 547ZM310 444V497Q243 497 229 491T204 478Q184 466 184 434Q184 387 233 387Q270 387 290 404T310 444Z" />
<glyph unicode="&#xab;" glyph-name="guillemotleft" horiz-adv-x="493" d="M190 492H248Q267 492 259 475L164 288L256 101Q264 84 245 84H185Q165 84 158 101L73 270Q70 278 70 286T74 304L162 475Q170 492 190 492ZM356 492H414Q427 492 427 484Q427 480 425
475L330 288L422 101Q430 84 411 84H351Q331 84 324 101L239 270Q236 278 236 286T240 304L328 475Q336 492 356 492Z" />
<glyph unicode="&#xac;" glyph-name="logicalnot" horiz-adv-x="530" d="M476 167H451Q440 167 436 171T432 186V285H54Q43 285 39 289T35 304V331Q35 342 39 346T54 350H476Q487 350 491 346T495 331V186Q495 175 491 171T476 167Z" />
<glyph unicode="&#xad;" glyph-name="uni00AD" horiz-adv-x="282" d="M233 218H49Q38 218 34 222T30 237V276Q30 287 34 291T49 295H233Q244 295 248 291T252 276V237Q252 226 248 222T233 218Z" />
<glyph unicode="&#xae;" glyph-name="registered" horiz-adv-x="498" d="M65 642T115 692T245 742T376 693T428 567T377 440T244 390T114 439T65 565ZM93 497T135 455T245 413T356 454T400 564T356 676T244 719T134 677T93 566ZM232 481H175Q167 481 167 488V495Q167
502 174 502H186V636H175Q167 636 167 644V655Q167 663 176 663H247Q310 663 310 615Q310 582 276 568L310 502H328Q336 502 336 495V488Q336 481 328 481H289Q281 481 279 487L243 560H220V502H232Q240 502 240 493V489Q240 481 232 481ZM237 636H220V584H236Q274
584 274 613Q274 636 237 636Z" />
<glyph unicode="&#xaf;" glyph-name="overscore" horiz-adv-x="500" d="M380 622H120Q109 622 105 626T101 641V684Q101 695 105 699T120 703H380Q391 703 395 699T399 684V641Q399 630 395 626T380 622Z" />
<glyph unicode="&#xb0;" glyph-name="degree" horiz-adv-x="336" d="M208 668T168 668T101 641T73 573T100 506T168 478T235 505T263 573T236 640ZM225 435T168 435T71 475T30 573T70 670T168 711T265 671T306 573T266 476Z" />
<glyph unicode="&#xb1;" glyph-name="plusminus" horiz-adv-x="530" d="M54 337H227V510Q227 521 231 525T246 529H281Q292 529 296 525T300 510V337H476Q487 337 491 333T495 318V291Q495 280 491 276T476 272H300V65H476Q487 65 491 61T495 46V19Q495 8 491
4T476 0H54Q43 0 39 4T35 19V46Q35 57 39 61T54 65H227V272H54Q43 272 39 276T35 291V318Q35 329 39 333T54 337Z" />
<glyph unicode="&#xb2;" glyph-name="twosuperior" horiz-adv-x="345" d="M161 696Q105 696 97 647Q95 635 91 632T74 628H45Q34 628 31 631T28 642Q28 697 68 728T168 759Q306 759 306 638Q306 539 159 453H302Q317 453 317 438V403Q317 388 302 388H65Q54 388
50 392T46 407V423Q46 440 63 450Q134 495 177 539T221 635Q221 665 208 680T161 696Z" />
<glyph unicode="&#xb3;" glyph-name="threesuperior" horiz-adv-x="335" d="M155 701Q105 701 96 661Q93 649 89 646T73 642H50Q38 642 35 646T32 661Q36 710 74 734T170 759T261 734T295 662Q295 606 231 575Q262 569 283 548T304 489Q304 434 263 403T152 372Q22
372 22 476Q22 483 25 486T39 490H74Q85 490 89 486T95 471Q101 429 154 429Q224 429 224 485Q224 513 210 525Q190 541 121 541Q110 541 106 545T102 560V580Q102 591 106 595T126 599T164 601Q217 606 217 653T155 701Z" />
<glyph unicode="&#xb4;" glyph-name="acute" horiz-adv-x="500" d="M180 580Q165 580 165 589Q165 592 167 598L209 714Q213 725 217 728T234 732H306Q320 732 320 727T316 715L251 597Q246 587 241 584T223 580H180Z" />
<glyph unicode="&#xb5;" glyph-name="mu" horiz-adv-x="599" d="M510 79H554Q569 79 569 64V15Q569 0 554 0H442Q430 0 427 15L418 71Q360 -7 264 -7Q223 -7 193 3V-187Q193 -202 178 -202H103Q88 -202 88 -187V480Q88 495 103 495H185Q200 495 200 480V186Q200
126 215 101T281 75T365 106T398 175V480Q398 495 413 495H495Q510 495 510 480V79Z" />
<glyph unicode="&#xb6;" glyph-name="paragraph" horiz-adv-x="525" d="M466 597H417V39Q417 -160 240 -160Q184 -160 133 -142Q123 -138 121 -133T122 -118L138 -73Q142 -62 146 -60T171 -65T231 -72T289 -44T308 48V276H280Q175 276 118 327T60 477Q60 535 83
576T147 638Q222 679 325 679H466Q477 679 481 675T485 660V615Q485 604 481 600T466 597Z" />
<glyph unicode="&#xb7;" glyph-name="middot" horiz-adv-x="253" d="M161 279T126 279T71 298T51 347T72 397T126 417T180 398T201 349T181 299Z" />
<glyph unicode="&#xb8;" glyph-name="cedilla" horiz-adv-x="500" d="M240 3H282L260 -32L276 -46Q314 -79 314 -108Q314 -149 218 -213Q213 -216 208 -216T197 -210L189 -200Q185 -195 185 -190T190 -180Q231 -144 231 -124T209 -87L200 -80Q190 -71 197 -59L240 3Z" />
<glyph unicode="&#xb9;" glyph-name="onesuperior" horiz-adv-x="301" d="M73 749H186Q197 749 201 745T205 730V455H251Q262 456 266 452T270 437V407Q270 396 266 392T251 388H77Q66 388 62 392T58 407V437Q58 448 62 452T77 455H120V684L73 682Q62 681 58 685T54
700V730Q54 741 58 745T73 749Z" />
<glyph unicode="&#xba;" glyph-name="ordmasculine" horiz-adv-x="532" d="M185 677T213 686T266 696T310 694T353 682T395 654T424 602T436 521Q436 427 386 377T259 326T139 371T96 506Q96 559 113 598T157 657ZM179 526Q179 388 264 388T350 512T264 637Q221
637 200 606T179 526Z" />
<glyph unicode="&#xbb;" glyph-name="guillemotright" horiz-adv-x="493" d="M79 84Q65 84 65 89T69 101L164 289L71 475Q63 492 82 492H142Q162 492 169 475L254 306Q257 298 257 290T253 272L165 101Q160 91 155 88T137 84H79ZM245 84Q231 84 231 89T235 101L330
289L237 475Q229 492 248 492H308Q328 492 335 475L420 306Q423 298 423 290T419 272L331 101Q326 91 321 88T303 84H245Z" />
<glyph unicode="&#xbc;" glyph-name="onequarter" horiz-adv-x="900" d="M118 642H231Q242 642 246 638T250 623V348H296Q307 349 311 345T315 330V300Q315 289 311 285T296 281H122Q111 281 107 285T103 300V330Q103 341 107 345T122 348H165V577L118 575Q107
574 103 578T99 593V623Q99 634 103 638T118 642ZM680 662L360 0Q352 -17 333 -17H294Q281 -17 281 -9Q281 -5 283 0L602 662Q610 679 629 679H669Q688 679 680 662ZM754 0H704Q689 0 689 15V73H543Q532 73 528 77T524 92V111Q524 128 535 145L672 346Q683 361
702 361H750Q761 361 765 357T769 342V131H813Q824 131 828 127T832 112V92Q832 81 828 77T813 73H769V15Q769 0 754 0ZM689 281L587 131H689V281Z" />
<glyph unicode="&#xbd;" glyph-name="onehalf" horiz-adv-x="900" d="M118 642H231Q242 642 246 638T250 623V348H296Q307 349 311 345T315 330V300Q315 289 311 285T296 281H122Q111 281 107 285T103 300V330Q103 341 107 345T122 348H165V577L118 575Q107 574
103 578T99 593V623Q99 634 103 638T118 642ZM653 662L333 0Q328 -11 323 -14T306 -17H267Q254 -17 254 -9Q254 -5 256 0L575 662Q580 673 585 676T602 679H642Q661 679 653 662ZM671 308Q615 308 607 259Q605 247 601 244T584 240H555Q544 240 541 243T538 254Q538
309 578 340T678 371Q816 371 816 250Q816 151 669 65H812Q827 65 827 50V15Q827 0 812 0H575Q564 0 560 4T556 19V35Q556 52 573 62Q644 107 687 151T731 247Q731 277 718 292T671 308Z" />
<glyph unicode="&#xbe;" glyph-name="threequarters" horiz-adv-x="900" d="M201 594Q151 594 142 554Q139 542 135 539T119 535H96Q84 535 81 539T78 554Q82 603 120 627T216 652T307 627T341 555Q341 499 277 468Q308 462 329 441T350 382Q350 327 309 296T198
265Q68 265 68 369Q68 376 71 379T85 383H120Q131 383 135 379T141 364Q147 322 200 322Q270 322 270 378Q270 406 256 418Q236 434 167 434Q156 434 152 438T148 453V473Q148 484 152 488T172 492T210 494Q263 499 263 546T201 594ZM681 662L361 0Q356 -11 351
-14T334 -17H295Q282 -17 282 -9Q282 -5 284 0L603 662Q608 673 613 676T630 679H670Q689 679 681 662ZM754 0H704Q689 0 689 15V73H543Q532 73 528 77T524 92V111Q524 128 535 145L672 346Q683 361 702 361H750Q761 361 765 357T769 342V131H813Q824 131 828 127T832
112V92Q832 81 828 77T813 73H769V15Q769 0 754 0ZM689 281L587 131H689V281Z" />
<glyph unicode="&#xbf;" glyph-name="questiondown" horiz-adv-x="465" d="M239 336H287Q298 336 302 332T306 317V147Q306 136 303 132T288 124Q144 92 144 -20Q144 -125 240 -125Q327 -125 337 -39Q339 -28 343 -24T358 -20H411Q429 -20 429 -35Q429 -116 373
-159T229 -202T88 -158T35 -26T85 114T220 189V317Q220 328 224 332T239 336ZM197 475T214 493T263 511T313 494T332 450T313 405T264 387T216 404T197 448Z" />
<glyph unicode="&#xc0;" glyph-name="Agrave" horiz-adv-x="696" d="M214 214L168 79H228Q243 79 243 64V15Q243 0 228 0H15Q0 0 0 15V64Q0 79 15 79H74L274 665Q280 679 294 679H391Q405 679 411 665L613 79H681Q696 79 696 64V15Q696 0 681 0H430Q415 0 415
15V64Q415 79 430 79H492L445 214H214ZM329 583L234 289H423L329 583ZM342 841L383 749Q385 744 385 740Q385 732 372 732H332Q313 732 302 747L237 843Q233 848 233 853T245 858H315Q334 858 342 841Z" />
<glyph unicode="&#xc1;" glyph-name="Aacute" horiz-adv-x="696" d="M214 214L168 79H228Q243 79 243 64V15Q243 0 228 0H15Q0 0 0 15V64Q0 79 15 79H74L274 665Q280 679 294 679H391Q405 679 411 665L613 79H681Q696 79 696 64V15Q696 0 681 0H430Q415 0 415
15V64Q415 79 430 79H492L445 214H214ZM329 583L234 289H423L329 583ZM312 746L357 844Q363 858 378 858H456Q465 858 465 854T462 846L392 744Q384 732 369 732H321Q310 732 310 739Q310 742 312 746Z" />
<glyph unicode="&#xc2;" glyph-name="Acircumflex" horiz-adv-x="696" d="M214 214L168 79H228Q243 79 243 64V15Q243 0 228 0H15Q0 0 0 15V64Q0 79 15 79H74L274 665Q280 679 294 679H391Q405 679 411 665L613 79H681Q696 79 696 64V15Q696 0 681 0H430Q415 0
415 15V64Q415 79 430 79H492L445 214H214ZM329 583L234 289H423L329 583ZM258 732H203Q194 732 194 736T197 744L279 851Q288 863 303 863H379Q394 863 403 851L485 744Q488 740 488 736T479 732H422Q406 732 397 744L339 815L282 744Q273 732 258 732Z" />
<glyph unicode="&#xc3;" glyph-name="Atilde" horiz-adv-x="696" d="M214 214L168 79H228Q243 79 243 64V15Q243 0 228 0H15Q0 0 0 15V64Q0 79 15 79H74L274 665Q280 679 294 679H391Q405 679 411 665L613 79H681Q696 79 696 64V15Q696 0 681 0H430Q415 0 415
15V64Q415 79 430 79H492L445 214H214ZM329 583L234 289H423L329 583ZM178 817T200 837T250 858T344 838T433 817Q467 817 467 844Q467 857 482 857H506Q518 857 518 843Q518 793 497 769T443 744T344 763T263 782Q233 782 233 760Q233 753 231 752T221 750H190Q178
750 178 764Q178 817 200 837Z" />
<glyph unicode="&#xc4;" glyph-name="Adieresis" horiz-adv-x="696" d="M214 214L168 79H228Q243 79 243 64V15Q243 0 228 0H15Q0 0 0 15V64Q0 79 15 79H74L274 665Q280 679 294 679H391Q405 679 411 665L613 79H681Q696 79 696 64V15Q696 0 681 0H430Q415 0 415
15V64Q415 79 430 79H492L445 214H214ZM329 583L234 289H423L329 583ZM511 771T494 755T449 738T404 754T387 799T404 844T449 860Q511 860 511 800Q511 771 494 755ZM308 771T291 755T246 738T201 754T184 799T201 844T246 860Q308 860 308 800Q308 771 291 755Z"
/>
<glyph unicode="&#xc5;" glyph-name="Aring" horiz-adv-x="696" d="M214 214L168 79H228Q243 79 243 64V15Q243 0 228 0H15Q0 0 0 15V64Q0 79 15 79H74L274 665Q280 679 294 679H391Q405 679 411 665L613 79H681Q696 79 696 64V15Q696 0 681 0H430Q415 0 415 15V64Q415
79 430 79H492L445 214H214ZM329 583L234 289H423L329 583ZM443 765T415 735T342 705T270 734T244 805T272 877T345 906T416 878T443 808ZM344 854Q302 854 302 806Q302 785 313 771T344 757T375 771T387 806T376 841T344 854Z" />
<glyph unicode="&#xc6;" glyph-name="AE" horiz-adv-x="879" d="M437 214H239L168 79H220Q231 80 235 76T239 61V19Q239 8 235 4T220 0H19Q8 0 4 4T0 19V61Q0 72 4 76T19 79H67L344 599H296Q285 598 281 602T277 617V660Q277 671 281 675T296 679H820Q831 679
835 675T839 660V534Q839 523 835 519T820 515H772Q761 515 757 519T754 534L758 599H549V386H698L694 433Q693 444 697 448T712 452H760Q771 452 775 448T779 433V264Q779 253 775 249T760 245H712Q701 245 697 249T694 264L697 308H549V79H778L774 145Q773 156
777 160T792 164H840Q851 164 855 160T859 145V19Q859 8 855 4T840 0H388Q377 0 373 4T369 19V61Q369 72 373 76T388 79H437V214ZM437 289V599L273 289H437Z" />
<glyph unicode="&#xc7;" glyph-name="Ccedilla" horiz-adv-x="629" d="M43 336Q43 432 71 505T147 618Q239 696 355 696T565 645Q578 638 578 625V496Q578 481 563 481H507Q492 481 493 496L496 566Q434 608 355 608Q163 608 163 352Q163 272 182 213T249 114T377
75T497 107L493 177Q492 192 507 192H564Q579 192 579 177V50Q579 36 569 31Q491 -7 392 -11L379 -32L395 -46Q433 -79 433 -108Q433 -149 337 -213Q332 -216 327 -216T316 -210L308 -200Q299 -189 309 -180Q350 -144 350 -124T328 -87L319 -80Q308 -71 316 -59L349
-11Q194 -6 119 86T43 336Z" />
<glyph unicode="&#xc8;" glyph-name="Egrave" horiz-adv-x="555" d="M220 599V386H369L365 437Q364 452 379 452H435Q450 452 450 437V260Q450 245 435 245H379Q364 245 365 260L368 308H220V78H449L445 149Q444 164 459 164H515Q530 164 530 149V15Q530 0 515
0H55Q40 0 40 15V64Q40 79 55 79H108V598H55Q40 598 40 613V664Q40 679 55 679H495Q510 679 510 664V530Q510 515 495 515H439Q424 515 425 530L429 599H220ZM293 841L334 749Q336 744 336 740Q336 732 323 732H283Q264 732 253 747L188 843Q184 848 184 853T196
858H266Q278 858 283 855T293 841Z" />
<glyph unicode="&#xc9;" glyph-name="Eacute" horiz-adv-x="555" d="M220 599V386H369L365 437Q364 452 379 452H435Q450 452 450 437V260Q450 245 435 245H379Q364 245 365 260L368 308H220V78H449L445 149Q444 164 459 164H515Q530 164 530 149V15Q530 0 515
0H55Q40 0 40 15V64Q40 79 55 79H108V598H55Q40 598 40 613V664Q40 679 55 679H495Q510 679 510 664V530Q510 515 495 515H439Q424 515 425 530L429 599H220ZM271 746L316 844Q322 858 337 858H415Q424 858 424 854T421 846L351 744Q344 732 328 732H280Q269 732
269 739Q269 742 271 746Z" />
<glyph unicode="&#xca;" glyph-name="Ecircumflex" horiz-adv-x="555" d="M220 599V386H369L365 437Q364 452 379 452H435Q450 452 450 437V260Q450 245 435 245H379Q364 245 365 260L368 308H220V78H449L445 149Q444 164 459 164H515Q530 164 530 149V15Q530
0 515 0H55Q40 0 40 15V64Q40 79 55 79H108V598H55Q40 598 40 613V664Q40 679 55 679H495Q510 679 510 664V530Q510 515 495 515H439Q424 515 425 530L429 599H220ZM205 732H150Q141 732 141 736T144 744L226 851Q235 863 250 863H326Q341 863 350 851L432 744Q435
740 435 736T426 732H369Q353 732 344 744L286 815L229 744Q220 732 205 732Z" />
<glyph unicode="&#xcb;" glyph-name="Edieresis" horiz-adv-x="555" d="M220 599V386H369L365 437Q364 452 379 452H435Q450 452 450 437V260Q450 245 435 245H379Q364 245 365 260L368 308H220V78H449L445 149Q444 164 459 164H515Q530 164 530 149V15Q530 0
515 0H55Q40 0 40 15V64Q40 79 55 79H108V598H55Q40 598 40 613V664Q40 679 55 679H495Q510 679 510 664V530Q510 515 495 515H439Q424 515 425 530L429 599H220ZM454 771T437 755T392 738T347 754T330 799T347 844T392 860Q454 860 454 800Q454 771 437 755ZM251
771T234 755T189 738T144 754T127 799T144 844T189 860Q251 860 251 800Q251 771 234 755Z" />
<glyph unicode="&#xcc;" glyph-name="Igrave" horiz-adv-x="328" d="M220 598V79H273Q288 79 288 64V15Q288 0 273 0H55Q40 0 40 15V64Q40 79 55 79H108V598H55Q40 598 40 613V664Q40 679 55 679H273Q288 679 288 664V613Q288 598 273 598H220ZM161 841L202 749Q204
744 204 740Q204 732 191 732H151Q132 732 121 747L56 843Q52 848 52 853T64 858H134Q146 858 151 855T161 841Z" />
<glyph unicode="&#xcd;" glyph-name="Iacute" horiz-adv-x="328" d="M220 598V79H273Q288 79 288 64V15Q288 0 273 0H55Q40 0 40 15V64Q40 79 55 79H108V598H55Q40 598 40 613V664Q40 679 55 679H273Q288 679 288 664V613Q288 598 273 598H220ZM116 746L161 844Q167
858 182 858H260Q269 858 269 854T266 846L196 744Q188 732 173 732H125Q114 732 114 739Q114 742 116 746Z" />
<glyph unicode="&#xce;" glyph-name="Icircumflex" horiz-adv-x="328" d="M220 598V79H273Q288 79 288 64V15Q288 0 273 0H55Q40 0 40 15V64Q40 79 55 79H108V598H55Q40 598 40 613V664Q40 679 55 679H273Q288 679 288 664V613Q288 598 273 598H220ZM81 732H26Q17
732 17 736T20 744L102 851Q111 863 126 863H202Q217 863 226 851L308 744Q311 740 311 736T302 732H245Q229 732 220 744L162 815L105 744Q96 732 81 732Z" />
<glyph unicode="&#xcf;" glyph-name="Idieresis" horiz-adv-x="328" d="M220 598V79H273Q288 79 288 64V15Q288 0 273 0H55Q40 0 40 15V64Q40 79 55 79H108V598H55Q40 598 40 613V664Q40 679 55 679H273Q288 679 288 664V613Q288 598 273 598H220ZM327 771T310
755T265 738T220 754T203 799T220 844T265 860Q327 860 327 800Q327 771 310 755ZM124 771T107 755T62 738T17 754T0 799T17 844T62 860Q124 860 124 800Q124 771 107 755Z" />
<glyph unicode="&#xd0;" glyph-name="Eth" horiz-adv-x="692" d="M68 679Q196 685 258 685T350 683T420 672T489 651T551 612T602 554Q649 478 649 358Q649 177 549 89T276 0H68Q53 0 53 15V64Q53 79 68 79H120V314H72Q61 314 57 318T53 333V348Q53 359 57 363T72
367H120V598H68Q53 598 53 613V664Q53 679 68 679ZM408 78T468 150T529 347T473 537T296 602H232V367H382Q393 367 397 363T401 348V333Q401 322 397 318T382 314H232V78H298Q408 78 468 150Z" />
<glyph unicode="&#xd1;" glyph-name="Ntilde" horiz-adv-x="743" d="M645 598V15Q645 0 630 0H557Q542 0 534 12L195 513V79H278Q293 79 293 64V15Q293 0 278 0H55Q40 0 40 15V64Q40 79 55 79H108V598H55Q40 598 40 613V664Q40 679 55 679H202Q216 679 225 666L558
160V598H505Q490 598 490 613V664Q490 679 505 679H698Q713 679 713 664V613Q713 598 698 598H645ZM201 817T223 837T273 858T367 838T456 817Q490 817 490 844Q490 857 505 857H529Q541 857 541 843Q541 793 520 769T465 744T366 763T286 782Q256 782 256 760Q256
753 254 752T244 750H213Q201 750 201 764Q201 817 223 837Z" />
<glyph unicode="&#xd2;" glyph-name="Ograve" horiz-adv-x="692" d="M43 333Q43 433 73 507T152 621Q245 696 354 696Q391 696 425 690T502 664T575 609T627 510T649 361Q649 181 561 85T334 -12T119 76T43 333ZM345 82Q524 82 524 345T342 608Q278 608 237 574T179
488T163 368Q163 82 345 82ZM364 841L405 749Q407 744 407 740Q407 732 394 732H354Q335 732 324 747L259 843Q255 848 255 853T267 858H337Q356 858 364 841Z" />
<glyph unicode="&#xd3;" glyph-name="Oacute" horiz-adv-x="692" d="M43 333Q43 433 73 507T152 621Q245 696 354 696Q391 696 425 690T502 664T575 609T627 510T649 361Q649 181 561 85T334 -12T119 76T43 333ZM345 82Q524 82 524 345T342 608Q278 608 237 574T179
488T163 368Q163 82 345 82ZM315 746L360 844Q366 858 381 858H459Q468 858 468 854T465 846L395 744Q388 732 372 732H324Q313 732 313 739Q313 742 315 746Z" />
<glyph unicode="&#xd4;" glyph-name="Ocircumflex" horiz-adv-x="692" d="M43 333Q43 433 73 507T152 621Q245 696 354 696Q391 696 425 690T502 664T575 609T627 510T649 361Q649 181 561 85T334 -12T119 76T43 333ZM345 82Q524 82 524 345T342 608Q278 608 237
574T179 488T163 368Q163 82 345 82ZM273 732H218Q209 732 209 736T212 744L294 851Q303 863 318 863H394Q409 863 418 851L500 744Q503 740 503 736T494 732H437Q421 732 412 744L354 815L297 744Q288 732 273 732Z" />
<glyph unicode="&#xd5;" glyph-name="Otilde" horiz-adv-x="692" d="M43 333Q43 433 73 507T152 621Q245 696 354 696Q391 696 425 690T502 664T575 609T627 510T649 361Q649 181 561 85T334 -12T119 76T43 333ZM345 82Q524 82 524 345T342 608Q278 608 237 574T179
488T163 368Q163 82 345 82ZM176 817T198 837T248 858T342 838T431 817Q465 817 465 844Q465 857 480 857H504Q516 857 516 843Q516 793 495 769T441 744T342 763T261 782Q231 782 231 760Q231 753 229 752T219 750H188Q176 750 176 764Q176 817 198 837Z" />
<glyph unicode="&#xd6;" glyph-name="Odieresis" horiz-adv-x="692" d="M43 333Q43 433 73 507T152 621Q245 696 354 696Q391 696 425 690T502 664T575 609T627 510T649 361Q649 181 561 85T334 -12T119 76T43 333ZM345 82Q524 82 524 345T342 608Q278 608 237
574T179 488T163 368Q163 82 345 82ZM509 771T492 755T447 738T402 754T385 799T402 844T447 860Q509 860 509 800Q509 771 492 755ZM306 771T289 755T244 738T199 754T182 799T199 844T244 860Q306 860 306 800Q306 771 289 755Z" />
<glyph unicode="&#xd7;" glyph-name="multiply" horiz-adv-x="530" d="M88 169L211 291L88 414Q82 420 82 427T88 440L114 466Q120 472 127 472L140 466L262 343L387 468Q394 474 400 474L413 468L433 448Q446 435 433 422L308 297L442 164Q448 158 448 151T442
138L416 112Q410 106 403 106L390 112L257 245L134 123Q121 110 108 123L88 143Q82 150 82 156T88 169Z" />
<glyph unicode="&#xd8;" glyph-name="Oslash" horiz-adv-x="692" d="M43 333Q43 433 73 507T152 621Q245 696 354 696Q395 696 434 688L455 743Q459 754 463 757T480 761H511Q522 761 525 758T524 743L496 667Q649 594 649 361Q649 181 561 85T333 -12Q286 -12
249 -2L225 -67Q221 -78 217 -81T200 -85H170Q159 -85 156 -82T157 -67L189 19Q43 95 43 333ZM345 82Q524 82 524 342Q524 498 458 564L284 92Q312 82 345 82ZM163 368Q163 194 228 127L402 599Q375 608 342 608Q278 608 237 574T179 488T163 368Z" />
<glyph unicode="&#xd9;" glyph-name="Ugrave" horiz-adv-x="713" d="M205 598V284Q205 234 210 202T230 138Q259 78 354 78T487 130T524 281V598H471Q456 598 456 613V664Q456 679 471 679H673Q688 679 688 664V613Q688 598 673 598H620V260Q620 150 568 74Q540
34 487 11T357 -12Q209 -12 151 52T93 249V598H40Q25 598 25 613V664Q25 679 40 679H258Q273 679 273 664V613Q273 598 258 598H205ZM370 841L411 749Q413 744 413 740Q413 732 400 732H360Q341 732 330 747L265 843Q261 848 261 853T273 858H343Q362 858 370 841Z"
/>
<glyph unicode="&#xda;" glyph-name="Uacute" horiz-adv-x="713" d="M205 598V284Q205 234 210 202T230 138Q259 78 354 78T487 130T524 281V598H471Q456 598 456 613V664Q456 679 471 679H673Q688 679 688 664V613Q688 598 673 598H620V260Q620 150 568 74Q540
34 487 11T357 -12Q209 -12 151 52T93 249V598H40Q25 598 25 613V664Q25 679 40 679H258Q273 679 273 664V613Q273 598 258 598H205ZM337 746L382 844Q388 858 403 858H481Q490 858 490 854T487 846L417 744Q410 732 394 732H346Q335 732 335 739Q335 742 337 746Z"
/>
<glyph unicode="&#xdb;" glyph-name="Ucircumflex" horiz-adv-x="713" d="M205 598V284Q205 234 210 202T230 138Q259 78 354 78T487 130T524 281V598H471Q456 598 456 613V664Q456 679 471 679H673Q688 679 688 664V613Q688 598 673 598H620V260Q620 150 568
74Q540 34 487 11T357 -12Q209 -12 151 52T93 249V598H40Q25 598 25 613V664Q25 679 40 679H258Q273 679 273 664V613Q273 598 258 598H205ZM283 732H228Q219 732 219 736T222 744L304 851Q313 863 328 863H404Q419 863 428 851L510 744Q513 740 513 736T504 732H447Q431
732 422 744L364 815L307 744Q298 732 283 732Z" />
<glyph unicode="&#xdc;" glyph-name="Udieresis" horiz-adv-x="713" d="M205 598V284Q205 234 210 202T230 138Q259 78 354 78T487 130T524 281V598H471Q456 598 456 613V664Q456 679 471 679H673Q688 679 688 664V613Q688 598 673 598H620V260Q620 150 568 74Q540
34 487 11T357 -12Q209 -12 151 52T93 249V598H40Q25 598 25 613V664Q25 679 40 679H258Q273 679 273 664V613Q273 598 258 598H205ZM529 771T512 755T467 738T422 754T405 799T422 844T467 860Q529 860 529 800Q529 771 512 755ZM326 771T309 755T264 738T219
754T202 799T219 844T264 860Q326 860 326 800Q326 771 309 755Z" />
<glyph unicode="&#xdd;" glyph-name="Yacute" horiz-adv-x="664" d="M279 257L77 598H25Q10 598 10 613V664Q10 679 25 679H279Q294 679 294 664V613Q294 598 279 598H208L352 352L495 598H428Q413 598 413 613V664Q413 679 428 679H639Q654 679 654 664V613Q654
598 639 598H586L391 270V78H444Q459 78 459 63V15Q459 0 444 0H226Q211 0 211 15V63Q211 78 226 78H279V257ZM314 746L359 844Q365 858 380 858H458Q467 858 467 854T464 846L394 744Q387 732 371 732H323Q312 732 312 739Q312 742 314 746Z" />
<glyph unicode="&#xde;" glyph-name="Thorn" horiz-adv-x="565" d="M298 0H59Q48 0 44 4T40 19V61Q40 72 44 76T59 79H107V599H59Q48 598 44 602T40 617V660Q40 671 44 675T59 679H266Q277 679 281 675T285 660V617Q285 606 281 602T266 599H219V568H267Q530 568
530 374Q530 270 462 214T283 157Q244 157 219 160V79H298Q309 80 313 76T317 61V19Q317 8 313 4T298 0ZM269 483H219V237Q227 236 250 236Q333 236 374 265T415 364T377 458T269 483Z" />
<glyph unicode="&#xdf;" glyph-name="germandbls" horiz-adv-x="636" d="M515 120Q515 170 438 202Q406 216 374 231T320 276T297 346T316 425T359 487T402 544T422 607Q422 681 316 681Q257 681 232 651T206 563V79H247Q258 80 262 76T266 61V19Q266 8 262 4T247
0H36Q25 0 21 4T17 19V61Q17 72 21 76T36 79H94V556Q94 649 143 704T318 760Q411 760 468 726T525 618Q525 583 506 548T462 488Q399 424 399 381Q399 335 476 298Q508 282 539 264T593 214T616 136Q616 67 568 28T448 -12T323 6Q312 10 310 14T310 30L320 68Q323
78 327 80T342 79Q394 57 436 57Q515 57 515 120Z" />
<glyph unicode="&#xe0;" glyph-name="agrave" horiz-adv-x="524" d="M328 297V332Q328 403 288 421Q269 429 233 429Q165 429 151 365Q148 350 136 350H72Q56 350 58 365Q62 438 117 472T257 506Q436 506 436 342V79H479Q494 79 494 64V15Q494 0 479 0H361Q348
0 346 15L339 61Q285 -12 183 -12Q119 -12 77 21T35 129Q35 226 116 262Q183 293 276 296Q295 296 328 297ZM330 151V228Q234 228 212 219T173 201Q141 184 141 139Q141 70 220 70Q272 70 301 94T330 151ZM411 715Q407 722 407 727T421 732H493Q505 732 509 729T518
714L561 598Q563 592 563 589Q563 580 548 580H504Q484 580 476 597L411 715Z" />
<glyph unicode="&#xe1;" glyph-name="aacute" horiz-adv-x="524" d="M328 297V332Q328 403 288 421Q269 429 233 429Q165 429 151 365Q148 350 136 350H72Q56 350 58 365Q62 438 117 472T257 506Q436 506 436 342V79H479Q494 79 494 64V15Q494 0 479 0H361Q348
0 346 15L339 61Q285 -12 183 -12Q119 -12 77 21T35 129Q35 226 116 262Q183 293 276 296Q295 296 328 297ZM330 151V228Q234 228 212 219T173 201Q141 184 141 139Q141 70 220 70Q272 70 301 94T330 151ZM230 580Q215 580 215 589Q215 592 217 598L259 714Q263
725 267 728T284 732H356Q370 732 370 727T366 715L301 597Q296 587 291 584T273 580H230Z" />
<glyph unicode="&#xe2;" glyph-name="acircumflex" horiz-adv-x="524" d="M328 297V332Q328 403 288 421Q269 429 233 429Q165 429 151 365Q148 350 136 350H72Q56 350 58 365Q62 438 117 472T257 506Q436 506 436 342V79H479Q494 79 494 64V15Q494 0 479 0H361Q348
0 346 15L339 61Q285 -12 183 -12Q119 -12 77 21T35 129Q35 226 116 262Q183 293 276 296Q295 296 328 297ZM330 151V228Q234 228 212 219T173 201Q141 184 141 139Q141 70 220 70Q272 70 301 94T330 151ZM177 580H118Q108 580 108 584T111 593L195 728Q204 741
218 741H294Q308 741 317 728L401 593Q404 588 404 584T394 580H335Q320 580 312 592L254 677L200 593Q191 580 177 580Z" />
<glyph unicode="&#xe3;" glyph-name="atilde" horiz-adv-x="524" d="M328 297V332Q328 403 288 421Q269 429 233 429Q165 429 151 365Q148 350 136 350H72Q56 350 58 365Q62 438 117 472T257 506Q436 506 436 342V79H479Q494 79 494 64V15Q494 0 479 0H361Q348
0 346 15L339 61Q285 -12 183 -12Q119 -12 77 21T35 129Q35 226 116 262Q183 293 276 296Q295 296 328 297ZM330 151V228Q234 228 212 219T173 201Q141 184 141 139Q141 70 220 70Q272 70 301 94T330 151ZM80 671T102 691T152 712T246 692T335 671Q369 671 369
698Q369 711 384 711H408Q420 711 420 697Q420 647 399 623T345 598T246 617T165 636Q135 636 135 614Q135 607 133 606T123 604H92Q80 604 80 618Q80 671 102 691Z" />
<glyph unicode="&#xe4;" glyph-name="adieresis" horiz-adv-x="524" d="M328 297V332Q328 403 288 421Q269 429 233 429Q165 429 151 365Q148 350 136 350H72Q56 350 58 365Q62 438 117 472T257 506Q436 506 436 342V79H479Q494 79 494 64V15Q494 0 479 0H361Q348
0 346 15L339 61Q285 -12 183 -12Q119 -12 77 21T35 129Q35 226 116 262Q183 293 276 296Q295 296 328 297ZM330 151V228Q234 228 212 219T173 201Q141 184 141 139Q141 70 220 70Q272 70 301 94T330 151ZM409 628T392 612T347 595T302 611T285 656T302 701T347
717Q409 717 409 657Q409 628 392 612ZM206 628T189 612T144 595T99 611T82 656T99 701T144 717Q206 717 206 657Q206 628 189 612Z" />
<glyph unicode="&#xe5;" glyph-name="aring" horiz-adv-x="524" d="M328 297V332Q328 403 288 421Q269 429 233 429Q165 429 151 365Q148 350 136 350H72Q56 350 58 365Q62 438 117 472T257 506Q436 506 436 342V79H479Q494 79 494 64V15Q494 0 479 0H361Q348
0 346 15L339 61Q285 -12 183 -12Q119 -12 77 21T35 129Q35 226 116 262Q183 293 276 296Q295 296 328 297ZM330 151V228Q234 228 212 219T173 201Q141 184 141 139Q141 70 220 70Q272 70 301 94T330 151ZM357 625T329 595T256 565T184 594T158 665T186 737T259
766T330 738T357 668ZM258 714Q216 714 216 666Q216 645 227 631T258 617T289 631T301 666T290 701T258 714Z" />
<glyph unicode="&#xe6;" glyph-name="ae" horiz-adv-x="778" d="M716 22Q644 -12 556 -12Q441 -12 384 51Q296 -12 194 -12Q122 -12 79 23T35 136Q35 199 72 243Q98 273 165 292Q210 306 252 307T328 309V336Q328 385 308 407T243 429Q162 429 151 369Q149 357
145 354T128 350H76Q65 350 62 354T59 369Q72 506 252 506Q364 506 397 436Q453 506 557 506Q662 506 708 438Q748 378 748 285Q748 244 744 240T727 235H435Q435 72 579 72Q630 72 687 97Q698 101 702 100T711 87L726 48Q730 37 729 32T716 22ZM141 145Q141 70
228 70Q263 70 298 83T351 113Q324 160 324 235Q297 234 282 234T242 230T202 221T172 206Q141 187 141 145ZM594 412Q575 422 545 422T492 410T458 379Q437 345 435 309H638Q638 391 594 412Z" />
<glyph unicode="&#xe7;" glyph-name="ccedilla" horiz-adv-x="468" d="M149 254Q149 72 290 72Q335 72 395 99Q410 105 416 90L434 46Q439 32 426 25Q374 -7 293 -11L280 -32L296 -46Q334 -79 334 -108Q334 -149 238 -213Q233 -216 228 -216T217 -210L209 -200Q200
-189 210 -180Q251 -144 251 -124T229 -87L220 -80Q210 -71 217 -59L250 -11Q140 -5 88 63T35 245T94 433T272 506Q362 506 405 457T448 332Q448 319 431 319H371Q355 319 354 334Q349 422 265 422Q205 422 177 381T149 254Z" />
<glyph unicode="&#xe8;" glyph-name="egrave" horiz-adv-x="489" d="M265 -12Q146 -12 91 57T35 241T94 431T264 506Q319 506 358 486T419 430Q459 362 459 273Q459 231 455 227T440 223H146Q151 151 181 112T287 72Q342 72 400 98Q414 105 420 90L439 44Q444
32 430 24Q364 -12 265 -12ZM146 297H354Q356 422 256 422Q197 422 173 385T146 297ZM422 715Q418 722 418 727T432 732H504Q516 732 520 729T529 714L572 598Q574 592 574 589Q574 580 559 580H515Q495 580 487 597L422 715Z" />
<glyph unicode="&#xe9;" glyph-name="eacute" horiz-adv-x="489" d="M265 -12Q146 -12 91 57T35 241T94 431T264 506Q319 506 358 486T419 430Q459 362 459 273Q459 231 455 227T440 223H146Q151 151 181 112T287 72Q342 72 400 98Q414 105 420 90L439 44Q444
32 430 24Q364 -12 265 -12ZM146 297H354Q356 422 256 422Q197 422 173 385T146 297ZM247 580Q232 580 232 589Q232 592 234 598L276 714Q280 725 284 728T301 732H373Q387 732 387 727T383 715L318 597Q310 580 290 580H247Z" />
<glyph unicode="&#xea;" glyph-name="ecircumflex" horiz-adv-x="489" d="M265 -12Q146 -12 91 57T35 241T94 431T264 506Q319 506 358 486T419 430Q459 362 459 273Q459 231 455 227T440 223H146Q151 151 181 112T287 72Q342 72 400 98Q414 105 420 90L439 44Q444
32 430 24Q364 -12 265 -12ZM146 297H354Q356 422 256 422Q197 422 173 385T146 297ZM182 580H123Q113 580 113 584T116 593L200 728Q209 741 223 741H299Q313 741 322 728L406 593Q409 588 409 584T399 580H340Q325 580 317 592L259 677L205 593Q196 580 182 580Z"
/>
<glyph unicode="&#xeb;" glyph-name="edieresis" horiz-adv-x="489" d="M265 -12Q146 -12 91 57T35 241T94 431T264 506Q319 506 358 486T419 430Q459 362 459 273Q459 231 455 227T440 223H146Q151 151 181 112T287 72Q342 72 400 98Q414 105 420 90L439 44Q444
32 430 24Q364 -12 265 -12ZM146 297H354Q356 422 256 422Q197 422 173 385T146 297ZM429 628T412 612T367 595T322 611T305 656T322 701T367 717Q429 717 429 657Q429 628 412 612ZM226 628T209 612T164 595T119 611T102 656T119 701T164 717Q226 717 226 657Q226
628 209 612Z" />
<glyph unicode="&#xec;" glyph-name="igrave" horiz-adv-x="294" d="M206 480V79H269Q284 79 284 64V15Q284 0 269 0H31Q16 0 16 15V64Q16 79 31 79H94V413H40Q25 413 25 428V480Q25 495 40 495H191Q206 495 206 480ZM40 715Q36 722 36 727T50 732H122Q134 732
138 729T147 714L190 598Q192 592 192 589Q192 580 177 580H133Q113 580 105 597L40 715Z" />
<glyph unicode="&#xed;" glyph-name="iacute" horiz-adv-x="294" d="M206 480V79H269Q284 79 284 64V15Q284 0 269 0H31Q16 0 16 15V64Q16 79 31 79H94V413H40Q25 413 25 428V480Q25 495 40 495H191Q206 495 206 480ZM114 580Q99 580 99 589Q99 592 101 598L143
714Q147 725 151 728T168 732H240Q254 732 254 727T250 715L185 597Q180 587 175 584T157 580H114Z" />
<glyph unicode="&#xee;" glyph-name="icircumflex" horiz-adv-x="294" d="M206 480V79H269Q284 79 284 64V15Q284 0 269 0H31Q16 0 16 15V64Q16 79 31 79H94V413H40Q25 413 25 428V480Q25 495 40 495H191Q206 495 206 480ZM326 580H267Q257 580 257 584T260 593L344
728Q353 741 367 741H443Q457 741 466 728L550 593Q553 588 553 584T543 580H484Q469 580 461 592L403 677L349 593Q340 580 326 580Z" />
<glyph unicode="&#xef;" glyph-name="idieresis" horiz-adv-x="294" d="M206 79H269Q284 79 284 64V15Q284 0 269 0H31Q16 0 16 15V64Q16 79 31 79Q31 79 94 79V413H40Q25 413 25 428V480Q25 495 40 495H191Q206 495 206 480V79ZM288 628T271 612T226 595T181
611T164 656T181 701T226 717Q288 717 288 657Q288 628 271 612ZM85 628T68 612T23 595T-22 611T-39 656T-22 701T23 717Q85 717 85 657Q85 628 68 612Z" />
<glyph unicode="&#xf0;" glyph-name="eth" horiz-adv-x="528" d="M357 568L264 525Q254 520 249 522T240 534L234 548Q232 554 232 558Q232 568 244 573L335 616Q292 674 224 674Q145 674 138 598Q136 587 132 583T117 579H71Q60 579 56 583T53 598Q57 747 228
747Q353 747 416 653L505 695Q515 700 520 698T529 686L536 670Q539 664 539 661Q539 652 526 647L440 607Q491 498 491 298Q491 142 435 65T265 -12T93 47T35 206T87 369T236 431T387 356Q385 484 357 568ZM383 259Q367 292 331 318T247 344T170 310T141 214T170
111T260 70Q344 70 367 136Q383 183 383 242Q383 250 383 259Z" />
<glyph unicode="&#xf1;" glyph-name="ntilde" horiz-adv-x="604" d="M25 427V480Q25 495 40 495H176Q189 495 192 480L201 422Q257 506 361 506Q516 506 516 336V79H574Q589 79 589 64V15Q589 0 574 0H356Q341 0 341 15V64Q341 79 356 79H404V286Q404 349 388
378T322 407T239 377T206 309V79H268Q283 79 283 64V15Q283 0 268 0H41Q26 0 26 15V64Q26 79 41 79H94V413H40Q25 413 25 427ZM132 671T154 691T204 712T298 692T387 671Q421 671 421 698Q421 711 436 711H460Q472 711 472 697Q472 647 451 623T397 598T298 617T217
636Q187 636 187 614Q187 607 185 606T175 604H144Q132 604 132 618Q132 671 154 691Z" />
<glyph unicode="&#xf2;" glyph-name="ograve" horiz-adv-x="532" d="M35 240Q35 315 58 370T118 453Q189 506 272 506Q333 506 375 487T440 443T480 371T497 261Q497 127 430 58T257 -12T94 51T35 240ZM265 70Q325 70 352 114T380 247T353 379T263 424Q148 424
148 262Q148 70 265 70ZM432 715Q428 722 428 727T442 732H514Q526 732 530 729T539 714L582 598Q584 592 584 589Q584 580 569 580H525Q505 580 497 597L432 715Z" />
<glyph unicode="&#xf3;" glyph-name="oacute" horiz-adv-x="532" d="M35 240Q35 315 58 370T118 453Q189 506 272 506Q333 506 375 487T440 443T480 371T497 261Q497 127 430 58T257 -12T94 51T35 240ZM265 70Q325 70 352 114T380 247T353 379T263 424Q148 424
148 262Q148 70 265 70ZM253 580Q238 580 238 589Q238 592 240 598L282 714Q286 725 290 728T307 732H379Q393 732 393 727T389 715L324 597Q316 580 296 580H253Z" />
<glyph unicode="&#xf4;" glyph-name="ocircumflex" horiz-adv-x="532" d="M35 240Q35 315 58 370T118 453Q189 506 272 506Q333 506 375 487T440 443T480 371T497 261Q497 127 430 58T257 -12T94 51T35 240ZM265 70Q325 70 352 114T380 247T353 379T263 424Q148
424 148 262Q148 70 265 70ZM189 580H130Q120 580 120 584T123 593L207 728Q216 741 230 741H306Q320 741 329 728L413 593Q416 588 416 584T406 580H347Q332 580 324 592L266 677L212 593Q203 580 189 580Z" />
<glyph unicode="&#xf5;" glyph-name="otilde" horiz-adv-x="532" d="M35 240Q35 315 58 370T118 453Q189 506 272 506Q333 506 375 487T440 443T480 371T497 261Q497 127 430 58T257 -12T94 51T35 240ZM265 70Q325 70 352 114T380 247T353 379T263 424Q148 424
148 262Q148 70 265 70ZM96 671T118 691T168 712T262 692T351 671Q385 671 385 698Q385 711 400 711H424Q436 711 436 697Q436 647 415 623T361 598T262 617T181 636Q151 636 151 614Q151 607 149 606T139 604H108Q96 604 96 618Q96 671 118 691Z" />
<glyph unicode="&#xf6;" glyph-name="odieresis" horiz-adv-x="532" d="M35 240Q35 315 58 370T118 453Q189 506 272 506Q333 506 375 487T440 443T480 371T497 261Q497 127 430 58T257 -12T94 51T35 240ZM265 70Q325 70 352 114T380 247T353 379T263 424Q148
424 148 262Q148 70 265 70ZM437 628T420 612T375 595T330 611T313 656T330 701T375 717Q437 717 437 657Q437 628 420 612ZM234 628T217 612T172 595T127 611T110 656T127 701T172 717Q234 717 234 657Q234 628 217 612Z" />
<glyph unicode="&#xf7;" glyph-name="divide" horiz-adv-x="530" d="M299 82T264 82T209 101T189 150T210 200T264 220T318 201T339 152T319 102ZM299 388T264 388T209 407T189 456T210 506T264 526T318 507T339 458T319 408ZM35 284V311Q35 322 39 326T54 330H476Q487
330 491 326T495 311V284Q495 273 491 269T476 265H54Q43 265 39 269T35 284Z" />
<glyph unicode="&#xf8;" glyph-name="oslash" horiz-adv-x="532" d="M35 240Q35 315 58 370T118 453T194 493T272 506T341 499L373 573Q377 584 381 587T398 591H422Q433 591 436 588T435 573L394 478Q497 422 497 261Q497 127 430 58T256 -12Q217 -12 184 -3L150
-83Q146 -94 142 -97T125 -101H102Q91 -101 88 -98T89 -83L133 19Q35 79 35 240ZM265 70Q325 70 352 114T380 247T351 381L220 79Q240 70 265 70ZM148 262Q148 165 176 119L305 417Q284 424 263 424Q148 424 148 262Z" />
<glyph unicode="&#xf9;" glyph-name="ugrave" horiz-adv-x="599" d="M510 79H554Q569 79 569 64V15Q569 0 554 0H442Q430 0 427 15L418 71Q354 -12 250 -12Q88 -12 88 158V413H35Q20 413 20 428V480Q20 495 35 495H185Q200 495 200 480V188Q200 128 215 103T281
77T365 107T398 175V413H335Q320 413 320 428V480Q320 495 335 495H495Q510 495 510 480V79ZM208 715Q204 722 204 727T218 732H290Q302 732 306 729T315 714L358 598Q360 592 360 589Q360 580 345 580H301Q281 580 273 597L208 715Z" />
<glyph unicode="&#xfa;" glyph-name="uacute" horiz-adv-x="599" d="M510 79H554Q569 79 569 64V15Q569 0 554 0H442Q430 0 427 15L418 71Q354 -12 250 -12Q88 -12 88 158V413H35Q20 413 20 428V480Q20 495 35 495H185Q200 495 200 480V188Q200 128 215 103T281
77T365 107T398 175V413H335Q320 413 320 428V480Q320 495 335 495H495Q510 495 510 480V79ZM261 580Q246 580 246 589Q246 592 248 598L290 714Q294 725 298 728T315 732H387Q401 732 401 727T397 715L332 597Q324 580 304 580H261Z" />
<glyph unicode="&#xfb;" glyph-name="ucircumflex" horiz-adv-x="599" d="M510 79H554Q569 79 569 64V15Q569 0 554 0H442Q430 0 427 15L418 71Q354 -12 250 -12Q88 -12 88 158V413H35Q20 413 20 428V480Q20 495 35 495H185Q200 495 200 480V188Q200 128 215 103T281
77T365 107T398 175V413H335Q320 413 320 428V480Q320 495 335 495H495Q510 495 510 480V79ZM216 580H157Q147 580 147 584T150 593L234 728Q243 741 257 741H333Q347 741 356 728L440 593Q443 588 443 584T433 580H374Q359 580 351 592L293 677L239 593Q230 580
216 580Z" />
<glyph unicode="&#xfc;" glyph-name="udieresis" horiz-adv-x="599" d="M510 79H554Q569 79 569 64V15Q569 0 554 0H442Q430 0 427 15L418 71Q354 -12 250 -12Q88 -12 88 158V413H35Q20 413 20 428V480Q20 495 35 495H185Q200 495 200 480V188Q200 128 215 103T281
77T365 107T398 175V413H335Q320 413 320 428V480Q320 495 335 495H495Q510 495 510 480V79ZM450 628T433 612T388 595T343 611T326 656T343 701T388 717Q450 717 450 657Q450 628 433 612ZM247 628T230 612T185 595T140 611T123 656T140 701T185 717Q247 717 247
657Q247 628 230 612Z" />
<glyph unicode="&#xfd;" glyph-name="yacute" horiz-adv-x="519" d="M165 481L282 117L386 413H335Q320 413 320 428V480Q320 495 335 495H481Q493 495 497 488T501 476T499 465L285 -94Q270 -132 260 -152T230 -196Q193 -240 121 -240T3 -218Q-5 -214 -5 -208T-4
-199L13 -150Q17 -137 32 -141Q80 -157 110 -157T157 -142T192 -77L217 -11L65 413H15Q0 413 0 428V480Q0 495 15 495H146Q161 495 165 481ZM264 580Q249 580 249 589Q249 592 251 598L293 714Q297 725 301 728T318 732H390Q404 732 404 727T400 715L335 597Q330
587 325 584T307 580H264Z" />
<glyph unicode="&#xfe;" glyph-name="thorn" horiz-adv-x="584" d="M89 -151V664H35Q20 664 20 679V731Q20 746 35 746H186Q198 746 201 731V422Q225 459 265 482T353 506Q445 506 497 446T549 267Q549 124 488 56T331 -12Q252 -12 201 30V-150H307Q322 -150 322
-165V-215Q322 -230 307 -230H36Q21 -230 21 -215V-166Q21 -151 36 -151H89ZM201 304V113Q217 97 250 84T315 71Q373 71 404 110T436 244Q436 372 380 401Q356 414 314 414T237 385T201 304Z" />
<glyph unicode="&#xff;" glyph-name="ydieresis" horiz-adv-x="519" d="M165 481L282 117L386 413H335Q320 413 320 428V480Q320 495 335 495H481Q493 495 497 488T501 476T499 465L285 -94Q270 -132 260 -152T230 -196Q193 -240 121 -240T3 -218Q-5 -214 -5 -208T-4
-199L13 -150Q17 -137 32 -141Q80 -157 110 -157T157 -142T192 -77L217 -11L65 413H15Q0 413 0 428V480Q0 495 15 495H146Q161 495 165 481ZM428 628T411 612T366 595T321 611T304 656T321 701T366 717Q428 717 428 657Q428 628 411 612ZM225 628T208 612T163 595T118
611T101 656T118 701T163 717Q225 717 225 657Q225 628 208 612Z" />
<glyph unicode="&#x2013;" glyph-name="endash" horiz-adv-x="500" d="M481 248H19Q8 248 4 252T0 267V306Q0 317 4 321T19 325H481Q492 325 496 321T500 306V267Q500 256 496 252T481 248Z" />
<glyph unicode="&#x2014;" glyph-name="emdash" horiz-adv-x="999" d="M980 248H19Q8 248 4 252T0 267V306Q0 317 4 321T19 325H980Q991 325 995 321T999 306V267Q999 256 995 252T980 248Z" />
<glyph unicode="&#x2018;" glyph-name="quoteleft" horiz-adv-x="254" d="M176 746Q190 740 190 735T187 722L158 632Q189 591 189 565T173 522T129 506T84 522T66 559T72 600Q80 624 105 664L149 738Q155 748 162 748T175 746H176Z" />
<glyph unicode="&#x2019;" glyph-name="quoteright" horiz-adv-x="254" d="M86 513Q72 519 72 524T75 537L104 627Q73 668 73 694T89 737T133 753T178 737T196 700T190 660Q182 635 157 595L113 521Q107 511 100 511T87 513H86Z" />
<glyph unicode="&#x201a;" glyph-name="quotesinglbase" horiz-adv-x="254" d="M86 -148Q72 -142 72 -137T75 -124L104 -34Q73 7 73 33T89 76T133 92T178 76T196 39T190 -2Q182 -26 157 -66L113 -140Q107 -150 100 -150T87 -148H86Z" />
<glyph unicode="&#x201c;" glyph-name="quotedblleft" horiz-adv-x="404" d="M105 664L149 738Q155 748 162 748T175 746H176Q187 741 189 737T187 722L158 632Q189 591 189 565T173 522T129 506T84 522T66 559T72 600Q80 624 105 664ZM326 746Q340 740 340 735T337
722L308 632Q339 591 339 565T323 522T279 506T234 522T216 559T222 600Q230 624 255 664L299 738Q305 748 312 748T325 746H326Z" />
<glyph unicode="&#x201d;" glyph-name="quotedblright" horiz-adv-x="404" d="M86 513Q72 519 72 524T75 537L104 627Q73 668 73 694T89 737T133 753T178 737T196 700T190 660Q182 635 157 595L113 521Q107 511 100 511T87 513H86ZM236 513Q222 519 222 524T225
537L254 627Q223 668 223 694T239 737T283 753T328 737T346 700T340 660Q332 635 307 595L263 521Q257 511 250 511T237 513H236Z" />
<glyph unicode="&#x201e;" glyph-name="quotedblbase" horiz-adv-x="394" d="M86 -148Q72 -142 72 -137T75 -124L104 -34Q73 7 73 33T89 76T133 92T178 76T196 39T190 -2Q182 -26 157 -66L113 -140Q107 -150 100 -150T87 -148H86ZM236 -148Q222 -142 222 -137T225
-124L254 -34Q223 7 223 33T239 76T283 92T328 76T346 39T340 -2Q332 -26 307 -66L263 -140Q257 -150 250 -150T237 -148H236Z" />
<glyph unicode="&#x2022;" glyph-name="bullet" horiz-adv-x="361" d="M281 302T255 275T181 248T107 274T80 340T107 407T180 435T253 409T281 343Z" />
<glyph unicode="&#x2039;" glyph-name="guilsinglleft" horiz-adv-x="327" d="M190 492H248Q261 492 261 484Q261 480 259 475L164 288L256 101Q264 84 245 84H185Q165 84 158 101L73 270Q70 278 70 286T74 304L162 475Q170 492 190 492Z" />
<glyph unicode="&#x203a;" glyph-name="guilsinglright" horiz-adv-x="327" d="M79 84Q65 84 65 89T69 101L164 289L71 475Q63 492 82 492H142Q162 492 169 475L254 306Q257 298 257 290T253 272L165 101Q160 91 155 88T137 84H79Z" />
</font>
</defs>
</svg>
