<?xml version="1.0" standalone="no"?>
<!DOCTYPE svg PUBLIC "-//W3C//DTD SVG 1.1//EN" "http://www.w3.org/Graphics/SVG/1.1/DTD/svg11.dtd">
<svg xmlns="http://www.w3.org/2000/svg">
<defs >
<font id="Simonetta" horiz-adv-x="903" ><font-face
    font-family="Simonetta Black"
    units-per-em="2048"
    panose-1="2 0 10 4 7 0 0 2 0 3"
    ascent="1970"
    descent="-594"
    alphabetic="0" />
<glyph unicode=" " glyph-name="space" horiz-adv-x="457" />
<glyph unicode="!" glyph-name="exclam" horiz-adv-x="625" d="M129 162Q129 208 144 241T183 296T238 328T303 338Q335 338 366 328T422 297T462 242T477 162Q477 120 464 86T427 27T372 -11T303 -25Q266 -25 235 -12T180 27T143 86T129 162ZM514 1391Q502 1308
492 1228T472 1071T455 924T441 793Q426 650 416 524H215Q212 650 208 793Q206 854 203 924T197 1070T189 1227T178 1391Q187 1390 204 1389T244 1388T293 1387T346 1386Q373 1386 399 1386T447 1387T486 1389T514 1391Z" />
<glyph unicode="&quot;" glyph-name="quotedbl" horiz-adv-x="840" d="M328 944H166L113 1483H418L328 944ZM700 944H537L485 1483H788L700 944Z" />
<glyph unicode="#" glyph-name="numbersign" horiz-adv-x="1567" d="M696 1026H956L1022 1391H1257L1192 1026H1489L1481 854H1391Q1348 854 1290 854T1161 852L1108 543H1393L1386 371H1299Q1257 371 1201 371T1077 369L1011 0H776L842 367L580 362L516 0H281L342
354Q254 351 177 347T41 338L47 543H377L428 838Q341 835 268 831T137 821L143 1026H461L526 1391H761L696 1026ZM666 846L612 543H872L926 850L666 846Z" />
<glyph unicode="$" glyph-name="dollar" horiz-adv-x="1237" d="M614 1202Q539 1202 494 1170T449 1079Q449 1049 462 1023T500 973T558 928T631 885L805 793Q869 760 929 721T1037 631T1112 516T1141 371Q1141 308 1118 244T1045 126T915 30T721 -29V-242H467L479
-39Q420 -37 363 -32T252 -19T152 -3T66 16L80 465H311L315 432Q320 393 332 350T375 271T458 212T596 188Q678 188 728 219T778 307Q778 336 765 360T728 407T670 451T592 496L397 600Q335 633 279 672T180 760T112 870T86 1010Q86 1078 105 1147T173 1273T308
1372T526 1425V1577H780L770 1427Q870 1419 961 1405T1120 1374L1092 926H860L856 952Q850 990 839 1033T803 1114T733 1177T614 1202Z" />
<glyph unicode="%" glyph-name="percent" horiz-adv-x="1616" d="M260 68L1087 1204Q1032 1173 957 1153T776 1133H735Q741 1107 745 1078T750 1020Q750 934 721 860T644 730T531 642T397 610Q310 610 250 637T152 711T99 820T82 950Q82 1028 107 1100T179 1227T291
1316T438 1350Q489 1350 531 1340T608 1309Q639 1298 692 1288T823 1278Q888 1278 944 1284T1045 1300T1127 1322T1190 1346L1266 1448L1395 1339L389 -41L260 68ZM874 340Q874 418 899 490T972 617T1084 706T1231 739Q1311 739 1369 714T1466 644T1523 540T1542
410Q1542 324 1513 249T1436 119T1324 32T1190 0Q1102 0 1042 27T945 101T891 210T874 340ZM317 979Q317 904 345 862T416 819Q458 819 486 861T514 979Q514 1054 486 1097T416 1141Q374 1141 346 1098T317 979ZM1110 369Q1110 293 1138 251T1208 209Q1250 209
1278 251T1307 369Q1307 444 1279 487T1208 530Q1166 530 1138 487T1110 369Z" />
<glyph unicode="&amp;" glyph-name="ampersand" horiz-adv-x="1550" d="M1298 639Q1258 639 1229 622T1170 569T1108 482T1028 358Q1096 299 1154 261T1267 205T1373 189T1481 213L1546 86Q1517 59 1484 36T1412 -4T1333 -31T1249 -41Q1132 -41 1037 -1T854 121Q780
47 691 3T487 -41Q399 -41 324 -15T195 60T109 181T78 342Q78 417 99 478T157 590T242 683T342 762Q316 825 302 886T287 1004Q287 1097 315 1175T395 1311T520 1400T686 1432Q754 1432 809 1411T902 1351T962 1262T983 1149Q983 1080 955 1024T881 921T778 832T664
750Q683 718 708 683T760 612T816 543T872 485Q905 542 934 597T990 702T1046 792T1109 863T1183 909T1276 926Q1321 926 1355 912T1412 876T1446 824T1458 766Q1458 752 1456 734T1446 695T1425 652T1391 608Q1362 624 1343 631T1298 639ZM553 195Q591 195 630
210T700 254Q629 326 562 410T444 580Q409 542 390 500T371 401Q371 359 382 322T417 256T474 212T553 195ZM549 1069Q549 999 580 918Q634 963 668 1011T702 1120Q702 1161 688 1186T641 1212Q619 1212 602 1200T573 1168T555 1123T549 1069Z" />
<glyph unicode="&apos;" glyph-name="quotesingle" horiz-adv-x="467" d="M328 944H164L113 1483H416L328 944Z" />
<glyph unicode="(" glyph-name="parenleft" horiz-adv-x="780" d="M793 1358Q559 1189 450 979T340 526Q340 406 357 301T419 97T538 -101T729 -303L641 -432Q502 -347 394 -246T211 -27T98 229T59 526Q59 676 107 819T242 1088T448 1315T709 1485L793 1358Z" />
<glyph unicode=")" glyph-name="parenright" horiz-adv-x="780" d="M-14 -305Q219 -136 328 74T438 526Q438 646 421 751T359 956T240 1153T49 1356L137 1485Q276 1399 384 1299T567 1079T680 823T719 526Q719 376 671 233T536 -35T330 -262T70 -432L-14 -305Z" />
<glyph unicode="*" glyph-name="asterisk" horiz-adv-x="938" d="M51 1137Q85 1183 109 1222T152 1303L385 1135L365 1425Q386 1423 401 1422T427 1420T447 1419T465 1419Q480 1419 499 1419T559 1425L520 1130Q549 1149 581 1171T647 1216T711 1260T768 1298Q787
1256 807 1217T856 1133L588 1016Q653 985 720 951T846 889Q837 878 822 856T792 809T763 762T741 727L512 903Q515 828 520 752T528 608Q521 608 508 608T481 609T453 609T434 610Q428 610 415 610T386 609T358 609T338 608L381 899L133 729Q128 741 116 764T91
813T65 860T45 895L317 1016L51 1137Z" />
<glyph unicode="+" glyph-name="plus" horiz-adv-x="1098" d="M1022 549H645V172H457V549H80V737H457V1114H645V737H1022V549Z" />
<glyph unicode="," glyph-name="comma" horiz-adv-x="549" d="M70 -184Q116 -144 143 -90T170 16Q170 55 148 92T74 158Q74 192 85 224T119 282T175 323T252 338Q289 338 322 325T380 285T421 217T436 121Q436 79 425 27T384 -82T304 -197T176 -307L70 -184Z" />
<glyph unicode="-" glyph-name="hyphen" horiz-adv-x="776" d="M672 618L666 389H102L109 618H672Z" />
<glyph unicode="." glyph-name="period" horiz-adv-x="541" d="M82 162Q82 208 97 241T136 296T191 328T256 338Q288 338 319 328T375 297T415 242T430 162Q430 120 417 86T380 27T325 -11T256 -25Q219 -25 188 -12T133 27T96 86T82 162Z" />
<glyph unicode="/" glyph-name="slash" horiz-adv-x="1217" d="M1155 1473L274 -356H61L942 1473H1155Z" />
<glyph unicode="0" glyph-name="zero" horiz-adv-x="1280" d="M598 -41Q501 -41 424 -14T287 62T185 177T115 322T76 486T63 662Q63 751 76 843T117 1020T191 1181T300 1312T448 1400T639 1432Q737 1432 815 1405T952 1329T1055 1214T1125 1069T1165 904T1178
729Q1178 640 1165 548T1122 371T1048 210T938 79T789 -9T598 -41ZM621 172Q668 172 703 197T763 262T803 355T828 463T840 571T844 668Q844 721 840 783T825 906T799 1024T757 1125T699 1195T621 1221Q572 1221 537 1196T476 1131T436 1038T412 930T400 822T397
725Q397 672 401 610T416 487T442 369T484 268T543 198T621 172Z" />
<glyph unicode="1" glyph-name="one" horiz-adv-x="872" d="M639 1356Q635 1298 632 1215T625 1038T619 846T614 659T611 496T610 379Q610 323 619 289T644 236T685 208T739 195L778 188L770 -6Q714 -2 655 2Q604 5 545 7T428 10Q372 10 286 8T88 -6L96 188Q123
191 151 194Q175 196 204 198T262 201Q267 249 271 316T278 461T283 619T287 776T290 917T291 1026L106 932L10 1112Q82 1154 146 1198T265 1284T368 1364T453 1432L639 1356Z" />
<glyph unicode="2" glyph-name="two" horiz-adv-x="1128" d="M459 1171Q427 1171 400 1159T352 1125T321 1072T309 1004Q309 991 310 980T315 954Q291 936 257 926T190 915Q158 915 129 925T77 955T41 1005T27 1077Q27 1162 66 1228T171 1339T324 1408T506 1432Q609
1432 694 1407T842 1333T938 1212T973 1044Q973 952 930 862T807 677T615 481T367 268H584Q651 268 694 284T766 325T812 382T844 444L872 506L1038 479Q1029 422 1021 354T1005 219T992 95T981 0H72L2 190Q69 260 140 331T279 475T407 617T512 753T583 881T610
997Q610 1076 572 1123T459 1171Z" />
<glyph unicode="3" glyph-name="three" horiz-adv-x="1128" d="M481 215Q525 215 562 228T627 268T670 335T686 428Q686 470 673 504T635 563T576 601T498 614Q457 614 412 603T332 575L268 768L379 811Q414 825 452 847T521 899T573 965T594 1042Q594 1063 588
1082T567 1116T531 1140T479 1149Q457 1149 428 1144T366 1125T294 1088T213 1030L90 1180Q136 1228 189 1273T305 1353T441 1410T602 1432Q696 1432 763 1410T875 1350T940 1258T961 1141Q961 1095 944 1049T898 963T832 890T756 838Q814 829 865 802T954 733T1014
634T1036 510Q1036 432 1011 361T941 229T836 118T704 33T554 -22T395 -41Q300 -41 231 -25T118 22T52 93T31 182Q31 242 62 288T152 367Q193 326 231 297T308 250T389 224T481 215Z" />
<glyph unicode="4" glyph-name="four" horiz-adv-x="1221" d="M897 379Q897 323 906 289T933 236T975 208T1030 195L1069 188L1061 -6Q1001 -2 939 2Q886 5 824 7T705 10Q651 10 570 8T379 -6L385 188Q411 191 440 194Q464 196 494 198T553 201Q556 241 558 289T563
393H0L6 614L727 1432L930 1356Q926 1309 922 1227T914 1045T907 836T901 625Q958 628 1004 631T1085 636Q1125 639 1157 641L1090 393H897V379ZM264 602Q336 602 414 603T571 608Q574 705 576 792T578 942L264 602Z" />
<glyph unicode="5" glyph-name="five" horiz-adv-x="1106" d="M428 215Q471 215 510 229T578 272T625 347T643 457Q643 496 630 533T588 598T516 644T412 662Q373 662 332 655T262 639L162 766L240 1391H633Q676 1391 705 1395T757 1410T797 1443T838 1499L868
1548L1040 1475Q1027 1438 1015 1392T990 1296T964 1196T938 1102H432L401 866Q440 877 481 882T565 887Q645 887 722 867T861 802T959 690T997 524Q997 446 974 374T909 240T807 125T677 37T522 -20T350 -41Q255 -41 186 -25T73 22T7 93T-14 182Q-14 242 17 288T106
367Q148 326 186 297T262 250T341 224T428 215Z" />
<glyph unicode="6" glyph-name="six" horiz-adv-x="1153" d="M987 1253Q909 1220 835 1175T696 1073T575 951T479 811Q523 825 568 832T664 840Q733 840 803 818T931 750T1025 633T1061 461Q1061 343 1018 250T903 93T740 -6T553 -41Q448 -41 357 -8T197 90T89
250T49 469Q49 585 82 690T173 888T311 1062T487 1212T687 1336T903 1432L987 1253ZM539 631Q500 631 466 624T399 604Q391 567 387 530T383 453Q383 385 396 334T433 250T489 199T559 182Q595 182 625 197T678 240T712 311T725 410Q725 457 716 497T685 567T628
614T539 631Z" />
<glyph unicode="7" glyph-name="seven" horiz-adv-x="1059" d="M135 129Q223 266 299 380T445 606T585 837T729 1102H420Q373 1102 343 1095T292 1074T259 1040T233 993L193 907L8 936Q37 1056 62 1165T109 1391H979L1057 1282Q963 1086 883 910T730 572T591 258T457
-41L135 129Z" />
<glyph unicode="8" glyph-name="eight" horiz-adv-x="1169" d="M1032 1112Q1032 1053 1017 1005T974 914T911 835T834 762Q880 723 921 681T995 594T1046 500T1065 395Q1065 293 1019 212T896 75T720 -11T514 -41Q433 -41 351 -20T202 46T95 157T53 315Q53 386
74 446T132 558T218 656T322 743Q281 779 245 816T183 894T141 977T125 1069Q125 1131 144 1182T198 1274T279 1344T378 1393T490 1422T606 1432Q687 1432 764 1412T900 1353T996 1253T1032 1112ZM702 324Q702 362 685 398T638 469T569 538T485 608Q450 581 420
550T366 486T329 417T315 344Q315 298 331 263T374 203T439 167T520 154Q559 154 592 165T650 198T688 251T702 324ZM481 1122Q481 1095 495 1067T535 1011T594 953T668 893Q691 913 711 933T748 977T773 1026T782 1083Q782 1120 770 1149T736 1198T685 1228T623
1239Q597 1239 572 1232T526 1211T494 1175T481 1122Z" />
<glyph unicode="9" glyph-name="nine" horiz-adv-x="1153" d="M125 137Q204 170 278 215T417 317T537 440T633 580Q544 551 451 551Q382 551 311 573T183 641T89 758T53 930Q53 1047 96 1140T211 1298T374 1397T561 1432Q666 1432 757 1399T917 1301T1024 1141T1063
922Q1063 806 1031 701T940 503T801 329T626 179T425 55T209 -41L125 137ZM575 760Q648 760 713 784Q721 823 725 861T729 938Q729 1005 716 1056T680 1140T624 1191T553 1208Q518 1208 488 1193T436 1150T402 1079T389 981Q389 934 398 894T429 824T486 777T575
760Z" />
<glyph unicode=":" glyph-name="colon" horiz-adv-x="569" d="M96 162Q96 208 111 241T150 296T205 328T270 338Q302 338 333 328T389 297T429 242T444 162Q444 120 431 86T394 27T339 -11T270 -25Q233 -25 202 -12T147 27T110 86T96 162ZM117 750Q117 796 132
829T171 883T226 915T291 926Q323 926 354 916T410 884T450 829T465 750Q465 708 452 674T415 615T360 577T291 563Q254 563 223 576T168 615T131 674T117 750Z" />
<glyph unicode=";" glyph-name="semicolon" horiz-adv-x="575" d="M117 750Q117 796 132 829T171 883T226 915T291 926Q323 926 354 916T410 884T450 829T465 750Q465 708 452 674T415 615T360 577T291 563Q254 563 223 576T168 615T131 674T117 750ZM84 -184Q130
-144 157 -90T184 16Q184 55 162 92T88 158Q88 192 100 224T134 282T190 323T266 338Q303 338 336 325T395 285T436 217T451 121Q451 79 440 27T399 -82T319 -197T190 -307L84 -184Z" />
<glyph unicode="&lt;" glyph-name="less" horiz-adv-x="1114" d="M74 696L926 1128L1008 969L340 631L1008 295L926 135L74 565V696Z" />
<glyph unicode="=" glyph-name="equal" horiz-adv-x="1169" d="M1057 737H115V926H1057V737ZM1057 369H115V557H1057V369Z" />
<glyph unicode="&gt;" glyph-name="greater" horiz-adv-x="1112" d="M1042 565L190 135L109 295L772 631L109 969L190 1128L1042 696V565Z" />
<glyph unicode="?" glyph-name="question" horiz-adv-x="815" d="M350 1042Q324 1034 300 1031T254 1028Q183 1028 139 1064T94 1174Q94 1232 122 1279T196 1361T301 1413T422 1432Q503 1432 566 1410T672 1349T739 1260T762 1153Q762 1090 745 1040T699 949T635
878T561 823T487 779T423 742T378 710T360 678Q360 659 377 647T434 635Q486 635 521 642T594 664V657Q594 616 583 574T548 498T486 442T395 420Q353 420 318 433T257 473T217 537T203 623Q203 682 219 733T266 830T338 921T432 1012Q448 1027 464 1042T492 1076T512
1115T520 1161Q520 1175 516 1188T502 1213T476 1230T438 1237Q420 1237 403 1230T372 1207T350 1167T342 1110Q342 1095 343 1078T350 1042ZM209 162Q209 208 224 241T263 296T318 328T383 338Q415 338 446 328T502 297T542 242T557 162Q557 120 544 86T507 27T452
-11T383 -25Q346 -25 315 -12T260 27T223 86T209 162Z" />
<glyph unicode="@" glyph-name="at" horiz-adv-x="1540" d="M1098 248Q1147 258 1186 288T1252 363T1294 464T1309 584Q1309 666 1281 743T1196 881T1051 977T844 1014Q720 1014 613 967T426 837T300 640T254 391Q254 268 289 164T393 -16T567 -135T811 -178Q868
-178 922 -171T1030 -150T1139 -113T1255 -61L1303 -168Q1159 -245 1030 -282T774 -319Q626 -319 496 -269T268 -127T115 91T59 369Q59 480 87 580T166 767T289 923T451 1042T642 1118T858 1145Q993 1145 1103 1107T1292 995T1414 818T1458 584Q1458 464 1415 365T1297
196T1121 86T903 47L842 145L885 319L874 326Q844 281 809 237T737 154T662 87T588 47L438 96Q434 110 431 128T424 164T420 200T418 231Q418 361 455 471T551 661T685 786T836 831Q867 831 902 829T974 821T1047 807T1118 788Q1107 650 1104 517T1098 248ZM899
688Q880 693 858 696T815 700Q774 700 743 670T690 588T657 470T645 328Q645 312 645 297T647 264Q672 265 711 294T789 372T857 487T897 629L899 688Z" />
<glyph unicode="A" glyph-name="A" horiz-adv-x="1477" d="M1262 426Q1286 361 1307 322T1350 259T1392 225T1438 205L1485 188L1477 -6Q1411 0 1327 5T1149 10Q1049 10 958 5T791 -6L799 188Q851 195 889 198T965 201L901 408Q811 406 696 402T455 389Q441 354
435 327T428 279Q428 238 450 220T512 195L551 188L543 -6Q512 -2 469 2Q432 5 379 7T254 10Q219 10 191 10T131 8T62 3T-31 -6L-23 188Q-11 190 7 193Q22 195 44 197T96 201L625 1391L881 1432L1262 426ZM539 635H831L713 1020H672L539 635Z" />
<glyph unicode="B" glyph-name="B" horiz-adv-x="1389" d="M276 1012Q276 1067 268 1101T243 1154T203 1182T150 1196L106 1202L113 1397Q144 1393 187 1390Q224 1388 278 1386T403 1384Q503 1384 588 1391T754 1399Q871 1399 960 1374T1108 1304T1197 1196T1227
1055Q1227 1007 1217 961T1188 875T1147 803T1100 750Q1149 729 1190 699T1260 627T1306 531T1323 408Q1323 315 1289 237T1189 101T1027 12T807 -20Q751 -20 695 -16T583 -5T473 5T367 10Q298 10 228 7T72 -6L80 188Q106 191 134 194Q158 196 187 198T246 201Q250
249 254 315T261 457T267 612T272 766T275 904T276 1012ZM954 406Q954 447 940 481T896 540T820 578T709 592Q681 592 649 591T596 586L590 244Q608 232 631 224T679 210T724 203T758 201Q798 201 833 213T896 251T938 314T954 406ZM705 809Q739 809 773 809T842
805Q866 834 883 876T901 963Q901 1013 885 1052T840 1119T768 1161T674 1176Q666 1176 648 1176T621 1174Q618 1111 615 1047Q612 992 609 928T604 807Q613 808 626 808T654 809T682 809T705 809Z" />
<glyph unicode="C" glyph-name="C" horiz-adv-x="1405" d="M1067 940Q1067 985 1058 1033T1023 1120T948 1185T819 1210Q747 1210 679 1179T558 1085T472 931T440 715Q440 574 484 477T601 320T768 232T961 205Q1007 205 1052 208T1139 218T1215 231T1278 248L1333
45Q1286 28 1229 13T1109 -15T978 -34T842 -41Q669 -41 528 5T287 141T133 363T78 670Q78 850 137 992T302 1231T558 1380T889 1432Q967 1432 1030 1427T1146 1414T1245 1396T1335 1374L1319 926H1067V940Z" />
<glyph unicode="D" glyph-name="D" horiz-adv-x="1620" d="M246 201Q250 259 253 329T259 475T265 628T270 775T273 907T274 1012Q274 1067 265 1101T240 1154T199 1182T145 1196L106 1202L115 1397Q161 1391 206 1387Q244 1383 288 1381T367 1378Q426 1378 482
1381T597 1389T717 1397T848 1401Q1012 1401 1142 1354T1363 1218T1502 1003T1550 719Q1550 647 1536 565T1488 402T1396 246T1251 114T1044 22T764 -12Q714 -12 664 -9T562 -1T457 6T346 10Q330 10 301 9T234 7T154 2T72 -6L80 188Q97 191 114 193T150 196T193
199T246 201ZM616 1178Q610 971 606 828T598 592T594 448T591 373T590 344T590 338Q590 304 599 281T631 244T695 223T801 217Q834 217 875 226T959 257T1042 317T1114 411T1165 546T1184 729Q1184 772 1177 823T1153 924T1105 1022T1028 1105T919 1162T770 1184Q727
1184 685 1183T616 1178Z" />
<glyph unicode="E" glyph-name="E" horiz-adv-x="1384" d="M827 231Q886 235 925 251T989 298T1031 372T1059 479H1298L1239 -20Q1075 -6 896 1T526 8Q467 8 412 7T301 5T189 1T72 -6L80 188Q110 191 140 194Q166 196 194 198T246 201Q250 249 253 315T260 457T266
612T270 766T273 904T274 1012Q274 1067 265 1101T240 1154T199 1182T145 1196L106 1202L115 1397Q177 1391 239 1387T368 1380T505 1376T657 1374Q807 1374 967 1380T1303 1397L1272 926H1040L1034 981Q1029 1019 1019 1049T990 1100T940 1135T866 1153L621 1178L608
805L1004 821L993 573L600 600L588 217L827 231Z" />
<glyph unicode="F" glyph-name="F" horiz-adv-x="1288" d="M590 379Q590 323 599 289T626 236T668 208T723 195L762 188L754 -6Q709 -2 656 2Q610 5 550 7T418 10Q349 10 265 8T72 -6L80 188Q106 191 134 194Q158 196 187 198T246 201Q250 259 253 329T259 475T265
628T270 775T273 907T274 1012Q274 1067 265 1101T240 1154T199 1182T145 1196L106 1202L115 1397Q177 1391 239 1387T365 1380T499 1376T647 1374Q793 1374 950 1380T1282 1397L1251 926H1020L1014 981Q1009 1019 999 1049T969 1102T920 1137T846 1155L621 1178L602
764L1004 780L993 532L596 559L590 379V379Z" />
<glyph unicode="G" glyph-name="G" horiz-adv-x="1589" d="M1042 225Q1045 286 1046 317T1048 361T1049 377T1049 381Q1049 429 1039 459T1012 506T970 532T918 545L877 551L885 745Q941 741 998 737Q1047 734 1103 732T1208 729Q1250 729 1290 729T1373 731T1462
736T1561 745L1552 551Q1525 548 1497 545Q1473 543 1444 541T1386 539L1370 45Q1323 28 1262 13T1134 -15T1004 -34T889 -41Q716 -41 568 5T310 141T138 364T76 672Q76 854 139 995T313 1234T578 1381T913 1432Q987 1432 1051 1427T1171 1414T1276 1396T1370 1374L1354
926H1102V940Q1102 985 1092 1032T1052 1119T971 1184T836 1210Q764 1210 693 1180T566 1088T475 931T440 707Q440 587 473 490T562 325T694 219T854 182Q911 182 959 192T1042 225Z" />
<glyph unicode="H" glyph-name="H" horiz-adv-x="1749" d="M1008 1397Q1052 1392 1105 1388Q1150 1385 1211 1383T1343 1380Q1413 1380 1497 1382T1690 1397L1681 1202Q1655 1199 1627 1196Q1603 1194 1574 1192T1516 1190Q1512 1131 1509 1061T1502 915T1496
763T1491 616T1488 484T1487 379Q1487 323 1496 289T1521 236T1562 208T1616 195L1655 188L1647 -6Q1602 -2 1549 2Q1503 5 1443 7T1311 10Q1242 10 1158 8T965 -6L973 188Q999 191 1027 194Q1051 196 1080 198T1139 201Q1144 284 1149 389T1157 602Q1116 602 1056
601T921 598T764 593T596 584Q594 522 594 470T594 379Q594 323 603 289T628 236T669 208T723 195L762 188L754 -6Q709 -2 656 2Q610 5 550 7T418 10Q349 10 265 8T72 -6L80 188Q106 191 134 194Q158 196 187 198T246 201Q250 259 253 329T259 475T265 628T270
775T273 907T274 1012Q274 1067 265 1101T240 1154T199 1182T145 1196L106 1202L115 1397Q159 1392 212 1388Q257 1385 318 1383T451 1380Q520 1380 604 1382T797 1397L788 1202Q762 1199 734 1196Q710 1194 681 1192T623 1190L604 829H1165Q1167 883 1167 930T1167
1012Q1167 1067 1158 1101T1133 1154T1092 1182T1038 1196L999 1202L1008 1397Z" />
<glyph unicode="I" glyph-name="I" horiz-adv-x="858" d="M115 1397Q159 1392 212 1388Q257 1385 318 1383T451 1380Q520 1380 604 1382T797 1397L788 1202Q762 1199 734 1196Q710 1194 681 1192T623 1190Q619 1131 616 1061T609 915T603 763T598 616T595 484T594
379Q594 323 603 289T628 236T669 208T723 195L762 188L754 -6Q709 -2 656 2Q610 5 550 7T418 10Q349 10 265 8T72 -6L80 188Q106 191 134 194Q158 196 187 198T246 201Q250 259 253 329T259 475T265 628T270 775T273 907T274 1012Q274 1067 265 1101T240 1154T199
1182T145 1196L106 1202L115 1397Z" />
<glyph unicode="J" glyph-name="J" horiz-adv-x="799" d="M90 1397Q133 1392 187 1388Q232 1385 293 1383T426 1380Q495 1380 579 1382T772 1397L764 1202Q738 1199 710 1196Q686 1194 657 1192T598 1190Q595 1154 592 1095T586 962T579 804T573 634T567 465T562
308T558 177T555 84Q552 8 525 -69T435 -227T268 -390T6 -561L-113 -375Q-32 -307 35 -233Q63 -202 91 -166T143 -92T184 -15T207 63Q214 114 220 191T231 360T239 547T245 732T249 894T250 1012Q250 1067 241 1101T216 1154T175 1182T121 1196L82 1202L90 1397V1397Z"
/>
<glyph unicode="K" glyph-name="K" horiz-adv-x="1559" d="M115 1397Q159 1392 212 1388Q257 1385 318 1383T451 1380Q520 1380 604 1382T797 1397L788 1202Q762 1199 734 1196Q710 1194 681 1192T623 1190Q619 1131 616 1061T609 915T603 763T598 616T595 484T594
379Q594 323 603 289T628 236T669 208T723 195L762 188L754 -6Q709 -2 656 2Q610 5 550 7T418 10Q349 10 265 8T72 -6L80 188Q106 191 134 194Q158 196 187 198T246 201Q250 259 253 329T259 475T265 628T270 775T273 907T274 1012Q274 1067 265 1101T240 1154T199
1182T145 1196L106 1202L115 1397ZM911 1397Q956 1391 1028 1387T1194 1382Q1276 1382 1355 1385T1493 1397L1483 1204L1458 1200Q1398 1194 1335 1155T1194 1026L983 786L1149 547Q1194 482 1238 420T1330 307T1427 220T1536 170L1530 16Q1502 -1 1474 -6T1417
-12Q1337 -12 1265 7T1127 67T1000 174T879 332L668 659L670 727L1028 1192Q1008 1194 987 1195T946 1198Q924 1200 903 1202L911 1397Z" />
<glyph unicode="L" glyph-name="L" horiz-adv-x="1321" d="M78 188Q104 191 132 194Q156 196 185 198T244 201Q248 259 251 329T257 475T263 628T268 775T271 907T272 1012Q272 1067 263 1101T238 1154T197 1182T143 1196L104 1202L113 1397Q157 1392 210 1388Q255
1385 316 1383T449 1380Q518 1380 602 1382T795 1397L786 1202Q760 1199 732 1196Q708 1194 679 1192T621 1190Q613 1116 606 872T588 223L805 240Q862 244 900 260T964 305T1006 377T1036 479H1296L1237 -20Q1081 -6 915 1T555 8Q434 8 312 5T70 -6L78 188Z" />
<glyph unicode="M" glyph-name="M" horiz-adv-x="1966" d="M330 1391L608 1432L969 571H1010L1331 1391L1659 1432L1755 379Q1760 323 1770 289T1795 236T1833 208T1886 195L1925 188L1919 -6Q1879 -2 1830 2Q1788 5 1729 7T1599 10Q1531 10 1449 7T1257 -6L1266
188Q1292 191 1320 194Q1344 196 1373 198T1432 201L1380 850H1339L1026 55H825L500 850H459Q456 731 454 649T450 513T448 430T447 386T446 368T446 362Q446 312 455 282T480 233T520 207T573 195L614 188L606 -6Q564 -2 516 2Q474 5 419 7T301 10Q266 10 237
9T174 7T102 2T8 -6L16 188Q42 191 70 194Q94 196 123 198T182 201L330 1391Z" />
<glyph unicode="N" glyph-name="N" horiz-adv-x="1649" d="M1188 987Q1186 1050 1175 1088T1146 1149T1101 1181T1040 1196L993 1202L1001 1397Q1048 1392 1096 1388Q1138 1385 1188 1383T1286 1380Q1320 1380 1353 1380T1424 1383T1505 1388T1602 1397L1593 1204Q1573
1201 1550 1198Q1530 1196 1505 1194T1450 1192L1425 557Q1422 464 1420 389T1417 248T1416 123T1415 2L1208 -41L485 848L449 842L467 406Q469 343 479 304T509 243T554 210T614 195L662 188L653 -6Q607 -2 559 2Q517 5 467 7T369 10Q334 10 301 10T230 8T150
3T53 -6L61 188Q81 191 106 194Q126 196 153 198T209 201L231 844Q238 999 241 1116T244 1323V1391L442 1432L1167 543L1204 549L1188 987Z" />
<glyph unicode="O" glyph-name="O" horiz-adv-x="1595" d="M76 688Q76 843 130 979T284 1215T528 1374T848 1432Q1014 1432 1141 1374T1354 1219T1485 993T1530 725Q1530 620 1505 523T1433 340T1320 185T1173 64T998 -13T801 -41Q615 -41 479 17T253 174T120
406T76 688ZM791 1210Q702 1210 636 1167T527 1056T462 903T440 735Q440 623 466 523T540 347T657 227T811 182Q900 182 966 224T1075 335T1140 489T1161 659Q1161 770 1136 870T1062 1045T946 1165T791 1210Z" />
<glyph unicode="P" glyph-name="P" horiz-adv-x="1321" d="M621 1171Q617 1113 614 1044T607 902T602 754T598 611T595 483T594 379Q594 323 603 289T628 236T669 208T723 195L762 188L754 -6Q709 -2 656 2Q610 5 550 7T418 10Q349 10 265 8T72 -6L80 188Q106
191 134 194Q158 196 187 198T246 201Q250 259 253 329T259 475T265 628T270 775T273 907T274 1012Q274 1067 265 1101T240 1154T199 1182T145 1196L106 1202L115 1397Q159 1393 206 1390Q246 1388 292 1386T383 1384Q455 1384 510 1386T611 1391T699 1396T788
1399Q913 1399 1008 1371T1168 1288T1265 1157T1298 983Q1298 906 1277 842T1218 726T1131 636T1025 572T908 533T791 520Q734 520 682 532L692 750Q711 746 720 746T741 745Q782 745 817 760T878 803T919 871T934 963Q934 1066 867 1121T686 1176Q669 1176 651
1175T621 1171Z" />
<glyph unicode="Q" glyph-name="Q" horiz-adv-x="1595" d="M344 -186Q370 -171 402 -156T471 -129T545 -108T623 -100Q682 -100 738 -113T846 -148T946 -194T1038 -242T1120 -282T1192 -305L1368 -250L1452 -424Q1422 -456 1385 -485T1306 -537T1217 -573T1120
-586Q1065 -586 1012 -569T909 -526T814 -467T729 -405T657 -349T600 -311L410 -367L344 -186ZM76 688Q76 843 130 979T284 1215T528 1374T848 1432Q1014 1432 1141 1374T1354 1219T1485 993T1530 725Q1530 620 1505 523T1433 340T1320 185T1173 64T998 -13T801
-41Q615 -41 479 17T253 174T120 406T76 688ZM791 1210Q702 1210 636 1167T527 1056T462 903T440 735Q440 623 466 523T540 347T657 227T811 182Q900 182 966 224T1075 335T1140 489T1161 659Q1161 770 1136 870T1062 1045T946 1165T791 1210Z" />
<glyph unicode="R" glyph-name="R" horiz-adv-x="1470" d="M596 379Q596 323 604 289T629 236T669 208T723 195L762 188L754 -6Q709 -2 656 2Q610 5 550 7T418 10Q349 10 265 8T72 -6L80 188Q106 191 134 194Q158 196 187 198T246 201Q250 259 253 329T259 475T265
628T270 775T273 907T274 1012Q274 1067 265 1101T240 1154T199 1182T145 1196L106 1202L115 1397Q163 1393 211 1390Q253 1388 301 1386T393 1384Q435 1384 483 1386T582 1391T684 1396T786 1399Q911 1399 1007 1370T1167 1287T1265 1156T1298 981Q1298 911 1280
854T1230 751T1154 670T1055 610L1145 446Q1183 377 1223 325T1303 239T1378 187T1446 170L1438 0Q1423 -3 1404 -6Q1387 -8 1364 -10T1311 -12Q1239 -12 1175 4T1051 60T939 162T836 319L719 539Q708 537 698 537T676 537Q654 537 633 538T598 539Q596 495 596
452T596 379ZM627 1174Q624 1139 621 1092T614 989T609 873T604 750Q621 746 638 746T676 745Q798 745 867 800T936 963Q936 1020 916 1060T862 1126T781 1164T682 1176Q667 1176 653 1176T627 1174Z" />
<glyph unicode="S" glyph-name="S" horiz-adv-x="1253" d="M643 1202Q568 1202 523 1170T477 1079Q477 1049 491 1023T529 973T586 928T659 885L834 793Q898 760 958 721T1065 631T1140 516T1169 371Q1169 298 1138 225T1038 92T859 -4T588 -41Q520 -41 451 -37T318
-25T197 -7T94 16L109 465H340L344 432Q348 393 360 350T403 271T486 212T625 188Q706 188 756 219T807 307Q807 336 794 360T757 407T699 451T621 496L426 600Q364 633 308 672T209 760T141 870T115 1010Q115 1060 125 1110T159 1207T223 1295T323 1366T466 1414T659
1432Q728 1432 796 1428T927 1415T1047 1397T1149 1374L1120 926H889L885 952Q879 990 868 1033T832 1114T762 1177T643 1202Z" />
<glyph unicode="T" glyph-name="T" horiz-adv-x="1384" d="M1155 926L1147 981Q1142 1019 1131 1043T1101 1082T1051 1104T977 1116L881 1126Q875 1039 871 951T864 781T859 627T856 500T855 408T854 362Q854 312 863 282T888 233T928 207T981 195L1024 188L1018
-6Q973 -2 920 2Q874 5 814 7T682 10Q613 10 529 8T336 -6L342 188Q369 191 397 194Q421 196 451 198T510 201Q513 259 517 328T524 470T530 618T535 761T538 889T539 993V1161Q496 1165 471 1167T434 1170T417 1171T410 1171Q381 1171 356 1162T311 1130T277 1070T256
975L250 926H55L70 1397Q164 1392 263 1388Q305 1386 352 1385T449 1383T550 1381T649 1380Q767 1380 862 1380T1042 1383T1208 1389T1380 1403L1350 926H1155Z" />
<glyph unicode="U" glyph-name="U" horiz-adv-x="1593" d="M1372 510Q1350 244 1202 103T774 -39Q643 -39 539 -5T361 92T249 246T209 449Q209 472 210 518T213 620T217 738T221 855T224 952T225 1012Q225 1067 216 1101T191 1154T150 1182T96 1196L57 1202L66
1397Q108 1392 159 1388Q203 1385 262 1383T393 1380Q462 1380 546 1382T739 1397L731 1202Q704 1199 677 1196Q653 1194 625 1192T567 1190Q556 891 552 727T547 514Q547 426 569 363T631 260T724 201T838 182Q908 182 962 204T1052 268T1106 369T1126 500Q1128
628 1129 716T1131 862T1132 952T1133 998T1133 1016T1133 1020Q1133 1072 1124 1104T1097 1155T1057 1182T1004 1196L963 1202L971 1397Q1004 1392 1049 1388Q1087 1385 1141 1383T1268 1380Q1302 1380 1338 1380T1415 1382T1502 1387T1602 1397L1593 1202Q1567
1199 1539 1196Q1515 1194 1486 1192T1427 1190L1372 510Z" />
<glyph unicode="V" glyph-name="V" horiz-adv-x="1522" d="M1008 944Q1028 1004 1041 1048T1055 1120Q1055 1139 1050 1152T1035 1173T1008 1187T971 1196L930 1202L938 1397Q970 1392 1013 1388Q1050 1385 1103 1383T1229 1380Q1263 1380 1299 1380T1376 1382T1463
1387T1563 1397L1554 1202Q1528 1199 1500 1196Q1476 1194 1447 1192T1389 1190L860 0L604 -41L201 1026Q181 1079 163 1110T127 1160T87 1185T41 1196L2 1202L10 1397Q54 1392 108 1388Q154 1385 215 1383T348 1380Q417 1380 501 1382T694 1397L686 1202Q660 1199
632 1196Q608 1194 579 1192T520 1190L772 373H813L1008 944Z" />
<glyph unicode="W" glyph-name="W" horiz-adv-x="2021" d="M1583 958Q1600 1025 1610 1062T1620 1126Q1620 1158 1601 1172T1542 1194L1489 1202L1497 1397Q1563 1389 1641 1385T1804 1380Q1846 1380 1880 1381T1946 1384T2008 1390T2071 1397L2062 1202Q2047
1199 2036 1197T2013 1194T1988 1192T1958 1190L1487 0L1212 -43L1036 629H1006L793 0L510 -41L209 1040Q196 1088 179 1118T141 1164T97 1188T51 1198L20 1202L29 1397Q95 1391 180 1386T360 1380Q461 1380 545 1385T705 1397L696 1202Q658 1196 622 1194T551
1190L690 459H731L973 1223L1204 1260L1421 459H1454L1583 958Z" />
<glyph unicode="X" glyph-name="X" horiz-adv-x="1569" d="M266 1081Q241 1113 220 1133T181 1167T146 1186T111 1196L80 1202L88 1397Q154 1389 233 1385T403 1380Q500 1380 586 1384T748 1397L739 1202Q710 1197 670 1195T598 1190L831 903L911 1004Q946 1049
958 1076T971 1126Q971 1158 950 1173T891 1194L844 1202L852 1397Q918 1389 1007 1385T1194 1380Q1291 1380 1380 1384T1534 1397L1526 1202Q1497 1197 1477 1196T1430 1192L963 741L1315 309Q1342 277 1363 256T1403 221T1439 202T1475 193L1505 188L1497 -6Q1431
0 1352 5T1182 10Q1085 10 999 7T838 -6L846 188Q875 192 915 195T987 201L743 492L659 379Q643 356 633 340T616 311T607 287T604 264Q604 232 624 217T678 195L721 188L713 -6Q647 0 560 5T375 10Q278 10 192 6T41 -6L49 188Q64 191 76 192T101 195T127 197T158
199L608 653L266 1081Z" />
<glyph unicode="Y" glyph-name="Y" horiz-adv-x="1444" d="M942 991Q971 1039 984 1071T997 1128Q997 1159 978 1173T924 1194L877 1202L885 1397Q951 1389 1021 1385T1176 1380Q1259 1380 1338 1384T1483 1397L1475 1204Q1459 1201 1447 1199T1422 1196T1398
1194T1368 1192L893 510Q892 480 892 462T891 431T891 407T891 379Q891 323 900 289T925 236T966 208T1020 195L1059 188L1051 -6Q1007 -2 954 2Q909 5 849 7T717 10Q648 10 563 8T369 -6L377 188Q403 191 431 194Q455 196 484 198T543 201Q544 222 546 253T550
321T553 396T557 473L190 1075Q169 1109 150 1132T113 1169T78 1189T43 1198L14 1202L23 1397Q89 1391 178 1386T360 1380Q461 1380 546 1385T707 1397L696 1202Q644 1196 606 1194T530 1190L772 766H811L942 991Z" />
<glyph unicode="Z" glyph-name="Z" horiz-adv-x="1378" d="M125 897L143 1397Q293 1389 433 1385T721 1380Q794 1380 864 1381T1005 1384T1148 1390T1296 1397L1282 1157L494 223L799 244Q871 246 904 260T963 300T1010 370T1046 479H1305L1246 -20Q1116 -9 964
-2Q833 3 662 4T365 4T179 -1T61 -6L70 213L852 1169L549 1149Q509 1147 485 1134T443 1092T413 1016T383 897H125Z" />
<glyph unicode="[" glyph-name="bracketleft" horiz-adv-x="688" d="M606 -356H378H133L197 1473H670L668 1300H440L387 -184H614L606 -356Z" />
<glyph unicode="\" glyph-name="backslash" horiz-adv-x="1352" d="M1223 -356H1010L127 1473H340L1223 -356Z" />
<glyph unicode="]" glyph-name="bracketright" horiz-adv-x="692" d="M252 -184L303 1300H76L82 1473H559L494 -356H242H16L23 -184H252Z" />
<glyph unicode="^" glyph-name="asciicircum" horiz-adv-x="899" d="M274 877H61L391 1391H508L838 877H627L451 1151L274 877Z" />
<glyph unicode="_" glyph-name="underscore" horiz-adv-x="1552" d="M150 -303H1337V-401H150V-303Z" />
<glyph unicode="`" glyph-name="grave" horiz-adv-x="655" d="M442 1092L102 1403Q119 1415 144 1437T196 1483T246 1529T283 1565L553 1192L442 1092Z" />
<glyph unicode="a" glyph-name="a" horiz-adv-x="1069" d="M1081 84Q1032 34 971 5T838 -25Q753 -25 703 18T635 129Q611 97 581 69T512 20T428 -13T324 -25Q255 -25 205 -5T121 48T72 125T55 213Q55 281 82 331T153 418T255 478T374 515T494 534T604 541Q606
555 606 563T606 582Q606 637 574 665T485 694Q463 694 437 689T385 669T337 630T303 565Q279 565 244 567T176 583T120 623T96 698Q96 737 113 769T159 826T228 870T312 901T402 920T492 926Q584 926 658 910T785 856T866 757T895 606Q895 577 892 530T885 433T878
342T874 281Q874 259 880 245T897 221T919 209T944 205Q961 205 973 208T1001 219L1081 84ZM582 373Q549 373 508 367T430 346T369 309T344 254Q344 226 364 208T422 190Q450 190 479 200T532 233T573 290T598 373H582Z" />
<glyph unicode="b" glyph-name="b" horiz-adv-x="1079" d="M588 659Q544 659 501 644T422 606L410 201Q434 193 460 188T518 182Q562 182 599 204T663 266T705 360T721 477Q721 561 685 610T588 659ZM385 733Q456 826 538 876T719 926Q803 926 862 893T959 807T1013
687T1030 549Q1030 455 1010 376T953 234T869 122T763 41T644 -8T518 -25Q470 -25 418 -20T312 -3T204 29T98 80Q106 171 113 271T127 473T138 674T146 863T152 1026T154 1153Q154 1187 149 1221T127 1282T84 1326T12 1346L18 1507Q73 1509 138 1515T267 1531T390
1553T489 1577L385 733Z" />
<glyph unicode="c" glyph-name="c" horiz-adv-x="948" d="M897 119Q815 50 708 13T475 -25Q374 -25 294 5T157 91T70 227T39 406Q39 513 75 608T179 773T343 885T557 926Q631 926 694 908T805 857T878 782T905 690Q905 593 832 545T616 496Q614 537 609 575T591
642T557 689T504 707Q468 707 439 689T390 637T359 556T348 449Q348 385 366 339T417 262T496 218T600 203Q651 203 715 214T836 248L897 119Z" />
<glyph unicode="d" glyph-name="d" horiz-adv-x="1108" d="M666 692H623Q569 692 519 671T431 610T369 516T346 393Q346 348 358 313T391 255T437 219T487 207Q529 207 573 225T649 281L666 692ZM682 1153Q682 1247 649 1293T541 1346L547 1507Q601 1509 666 1515T795
1531T918 1553T1018 1577Q997 1356 983 1177T961 849T949 580T946 356Q946 262 985 215T1100 162L1094 0H1079Q1022 0 975 -2T884 -10T801 -22T715 -41L754 170Q727 132 692 97T613 34T514 -9T395 -25Q321 -25 256 -2T142 69T65 191T37 367Q37 494 86 597T219 773T414
886T651 926H676Q677 966 678 997T680 1054T681 1104T682 1153Z" />
<glyph unicode="e" glyph-name="e" horiz-adv-x="1010" d="M340 373Q347 336 366 305T416 251T489 216T588 203Q639 203 702 212T823 244L887 119Q805 50 703 13T475 -25Q371 -25 290 6T153 95T68 231T39 406Q39 510 71 604T164 770T315 884T520 926Q618 926 694
899T822 822T901 704T928 553Q928 525 925 496T919 441Q915 412 911 385Q851 376 769 373T594 369Q563 369 529 369T462 370T397 371T340 373ZM512 707Q486 707 461 697T414 666T376 614T350 539Q389 540 434 544T520 552T588 559T621 565V580Q621 635 594 671T512
707Z" />
<glyph unicode="f" glyph-name="f" horiz-adv-x="797" d="M197 901L203 1024Q206 1093 232 1161T298 1290T391 1404T498 1495T609 1555T713 1577Q790 1577 834 1539T879 1425Q879 1396 873 1374T857 1333T832 1298T803 1266Q769 1286 738 1297T668 1309Q587 1309
550 1260T506 1114L494 901Q537 902 583 905T670 912T743 919T793 926L752 688Q693 689 641 690Q596 691 551 692T481 696Q479 661 478 621T477 540T477 460T477 387Q477 340 485 300T510 229T553 181T616 162L610 0H588Q456 0 349 -8T141 -41Q157 115 169 306T193
727Q173 728 143 731T83 737Q49 741 12 745L18 901H197Z" />
<glyph unicode="g" glyph-name="g" horiz-adv-x="1178" d="M928 686Q930 672 931 652T932 618Q932 537 896 474T799 366T655 298T481 274H455Q446 263 441 246T439 213T459 182T510 164L762 133Q885 115 943 65T1001 -80Q1001 -137 976 -194T907 -304T800 -402T662
-481T502 -534T326 -553Q177 -553 98 -499T18 -346Q18 -300 34 -262T78 -190T142 -128T219 -70Q204 -64 188 -55T157 -30T134 6T125 59Q125 95 139 127T176 189T224 246T274 297Q220 315 183 343T124 406T92 482T82 563Q82 638 115 703T207 817T348 892T530 920Q601
920 656 911T752 886T821 853T866 817Q882 837 901 855T942 888T989 911T1044 920Q1106 920 1142 888T1178 797Q1178 755 1163 722T1122 668Q1096 686 1067 694T1001 702Q981 702 962 699T928 686ZM373 -98Q345 -124 327 -161T309 -238Q309 -260 315 -279T338 -313T379
-335T442 -344Q475 -344 514 -335T588 -307T645 -263T668 -203Q668 -192 665 -180T649 -157T615 -136T555 -121L373 -98ZM506 717Q475 717 454 704T420 672T401 628T395 582Q395 562 401 540T421 498T459 467T516 455Q544 455 564 466T598 496T617 536T623 582Q623
602 617 625T596 669T560 703T506 717Z" />
<glyph unicode="h" glyph-name="h" horiz-adv-x="1153" d="M385 727Q420 767 459 803T542 866T638 910T748 926Q808 926 857 905T940 844T993 743T1012 604Q1012 571 1009 531T1003 452T996 383T993 338Q993 301 1001 269T1026 213T1070 176T1133 162L1126 0H1106Q1034
0 976 -2T865 -10T762 -24T657 -45Q670 27 681 107T699 262T711 402T715 508Q715 591 686 625T600 659Q555 659 512 644T438 610Q436 588 434 551T429 465T425 361T424 244T427 121T436 0Q379 0 331 -4T240 -15T160 -30T86 -45Q101 39 111 136T129 337T142 548T149
761T153 966T154 1153Q154 1247 121 1293T12 1346L18 1507Q73 1509 138 1515T267 1531T390 1553T489 1577L385 727Z" />
<glyph unicode="i" glyph-name="i" horiz-adv-x="616" d="M164 1235Q164 1281 179 1314T218 1369T273 1401T338 1411Q370 1411 401 1401T457 1370T497 1315T512 1235Q512 1193 499 1159T462 1101T407 1063T338 1049Q301 1049 270 1062T215 1100T178 1159T164 1235ZM584
0H561Q429 0 321 -8T111 -41Q121 29 131 96T150 230T163 362T168 496Q168 595 135 641T27 694L33 856Q169 861 287 880T508 926Q486 783 469 636T451 352Q451 252 489 207T590 162L584 0Z" />
<glyph unicode="j" glyph-name="j" horiz-adv-x="592" d="M162 1235Q162 1281 177 1314T216 1369T271 1401T336 1411Q368 1411 399 1401T455 1370T495 1315T510 1235Q510 1193 497 1159T460 1101T405 1063T336 1049Q299 1049 268 1062T213 1100T176 1159T162 1235ZM506
926Q481 770 471 568T455 127L453 20Q451 -49 430 -118T375 -251T295 -370T200 -465T98 -529T-2 -553Q-79 -553 -123 -515T-168 -401Q-168 -372 -162 -350T-146 -309T-121 -274T-92 -242Q-58 -262 -27 -273T43 -285Q97 -285 118 -236T145 -90Q152 30 156 124T162
290T165 412T166 496Q166 595 133 641T25 694L31 856Q167 861 285 880T506 926Z" />
<glyph unicode="k" glyph-name="k" horiz-adv-x="1090" d="M412 530Q457 615 501 688T593 813T695 896T817 926Q859 926 891 912T946 873T981 818T993 752Q993 711 978 671T928 596Q908 608 884 614T829 621Q771 621 714 599T616 524L735 371Q774 320 808 281T876
212T941 165T1008 139L999 0Q965 -12 931 -17T862 -23Q817 -23 771 -12T678 24T585 91T496 195L414 309Q411 247 411 187T410 86V0Q305 0 229 -12T90 -41Q105 119 116 285T136 609T149 907T154 1153Q154 1247 121 1293T12 1346L18 1507Q73 1509 138 1515T267 1531T390
1553T489 1577L412 530Z" />
<glyph unicode="l" glyph-name="l" horiz-adv-x="588" d="M422 377Q422 338 430 300T455 231T498 181T561 162L555 0H532Q466 0 407 -2T294 -8T188 -21T86 -41Q111 146 124 318T144 643T152 925T154 1153Q154 1247 121 1293T12 1346L18 1507Q73 1509 138 1515T267
1531T390 1553T489 1577Q462 1360 449 1179T429 849T423 583T422 377Z" />
<glyph unicode="m" glyph-name="m" horiz-adv-x="1668" d="M1647 162L1641 0H1620Q1548 0 1490 -2T1379 -8T1277 -21T1172 -41Q1185 31 1195 110T1214 265T1227 403T1233 555Q1233 598 1211 628T1143 659Q1126 659 1107 655T1069 644T1032 628T999 610Q996 588
994 546T989 451T986 336T985 215T988 98T997 0Q949 0 901 -3T807 -12T723 -25T655 -41Q663 24 671 103T685 264T696 421T700 555Q700 600 679 629T610 659Q594 659 575 656T536 646T497 631T461 610Q457 561 454 505T450 389T449 272T450 162T453 68T459 0Q411
0 361 -3T265 -12T178 -25T109 -41Q122 31 131 109T148 259T158 393T162 496Q162 596 129 642T20 694L27 856Q81 858 138 864T249 880T353 902T444 926L406 727Q492 830 587 878T766 926Q802 926 835 918T896 892T946 844T983 770Q1008 794 1040 821T1110 872T1190
910T1278 926Q1338 926 1384 909T1461 854T1509 754T1526 604Q1524 523 1516 436T1509 334Q1508 301 1516 269T1541 213T1585 176T1647 162Z" />
<glyph unicode="n" glyph-name="n" horiz-adv-x="1176" d="M406 727Q440 766 479 802T564 865T662 909T774 926Q902 926 968 844T1034 604Q1034 571 1031 531T1025 452T1019 383T1016 338Q1016 301 1024 269T1049 213T1093 176T1155 162L1149 0H1128Q1056 0 998
-2T887 -8T785 -21T680 -41Q693 31 703 110T721 265T733 403T737 508Q737 551 730 580T708 626T673 651T623 659Q578 659 535 644T461 610Q459 588 457 551T453 465T450 361T449 244T451 121T457 0Q399 0 351 -3T260 -12T181 -25T109 -41Q122 31 131 109T148 259T158
393T162 496Q162 541 155 576T132 637T88 676T20 694L27 856Q147 861 251 881T444 926L406 727Z" />
<glyph unicode="o" glyph-name="o" horiz-adv-x="1051" d="M39 414Q39 513 75 605T179 769T343 883T557 926Q674 926 758 894T897 804T978 670T1004 504Q1004 393 963 296T851 128T689 16T494 -25Q367 -25 280 10T140 106T63 246T39 414ZM348 449Q348 391 361
345T398 265T452 215T518 197Q555 197 587 214T643 265T680 344T694 449Q694 509 681 556T644 637T588 689T518 707Q483 707 452 689T398 638T362 557T348 449Z" />
<glyph unicode="p" glyph-name="p" horiz-adv-x="1110" d="M426 -113Q425 -151 431 -192T452 -267T495 -323T565 -346L559 -508H537Q404 -508 296 -518T86 -553Q102 -410 115 -263T139 23T154 283T160 496Q160 590 129 639T18 694L25 856Q79 858 135 864T245 880T348
902T438 926L401 733Q447 788 492 825T583 885T672 916T758 926Q837 926 894 895T989 813T1043 695T1061 559Q1061 413 1016 304T897 121T729 12T535 -25Q526 -25 512 -25T482 -24T453 -22T428 -20L426 -113ZM618 659Q575 659 533 645T457 610Q451 547 447 475T440
341Q436 268 434 197Q465 189 494 186T553 182Q594 182 630 205T693 268T736 364T752 483Q752 567 715 613T618 659Z" />
<glyph unicode="q" glyph-name="q" horiz-adv-x="1055" d="M987 868Q973 740 963 603T945 334T934 80T930 -135Q930 -174 938 -211T963 -278T1006 -326T1069 -346L1063 -508H1036Q904 -508 798 -518T590 -553Q599 -476 606 -404T620 -258T632 -109T643 51Q600
19 540 -3T408 -25Q333 -25 266 -3T147 67T67 187T37 362Q37 486 84 590T214 768T406 884T641 926Q752 926 839 910T987 868ZM666 694H629Q573 694 522 673T431 612T369 516T346 391Q346 343 359 309T393 253T443 220T500 209Q538 209 575 228T649 279L666 694Z"
/>
<glyph unicode="r" glyph-name="r" horiz-adv-x="897" d="M463 616Q461 596 459 560T454 479T451 380T449 274Q449 208 450 138T459 0Q353 0 263 -12T109 -41Q122 31 131 109T148 259T158 393T162 496Q162 596 129 642T20 694L27 856Q81 858 138 864T249 880T353
902T444 926L406 727Q437 772 473 809T547 872T623 912T700 926Q784 926 830 879T877 745Q877 683 854 644T793 573Q777 587 756 599T710 622T661 637T610 643Q594 643 574 642T532 637T493 628T463 616Z" />
<glyph unicode="s" glyph-name="s" horiz-adv-x="922" d="M348 342Q277 371 223 399T133 461T79 534T61 629Q61 680 85 732T164 828T306 898T520 926Q597 926 661 914T771 876T842 815T868 731Q868 669 832 619T729 551Q700 577 667 607T598 662T523 704T444 721Q412
721 394 707T375 670Q375 655 390 642T429 616T482 593T539 571L565 561Q646 529 702 498T793 433T844 358T860 268Q860 214 833 161T747 67T601 1T391 -25Q312 -25 247 -12T135 26T63 89T37 176Q37 242 75 285T182 346Q200 323 227 295T290 241T370 198T465 180Q499
180 523 196T547 238Q547 254 528 267T479 293T414 318T348 342Z" />
<glyph unicode="t" glyph-name="t" horiz-adv-x="782" d="M381 -27Q302 -27 254 -2T181 64T147 159T139 270Q139 304 141 354T147 465T155 592T164 729L0 745L6 901H170Q171 937 171 967T172 1025T173 1082T174 1143L502 1221Q489 1139 481 1059T467 901Q500 902
535 904T604 910T670 917T727 926L694 688L453 696Q446 605 442 516T438 358Q438 320 448 296T473 257T507 237T543 231Q575 231 605 242T655 268L737 131Q704 96 662 67T573 17T477 -15T381 -27Z" />
<glyph unicode="u" glyph-name="u" horiz-adv-x="1184" d="M1004 356Q1004 262 1043 215T1157 162L1151 0H1137Q1079 0 1032 -2T942 -10T858 -22T772 -41L811 168Q784 133 741 99T644 37T530 -8T410 -25Q350 -25 299 -6T211 51T152 147T131 283Q131 349 138 412T145
530Q145 561 137 588T114 637T74 673T18 690L25 852Q92 854 153 861T271 878T379 900T483 926Q472 861 463 785T445 632T433 486T428 365Q428 330 438 307T465 269T506 248T559 242Q601 242 640 257T707 289Q708 310 709 345T712 424T714 520T715 623Q715 685 715
750T709 881Q814 881 904 895T1057 926Q1041 838 1031 751T1014 587T1006 450T1004 356Z" />
<glyph unicode="v" glyph-name="v" horiz-adv-x="1028" d="M360 901Q383 809 404 729T446 571T492 410T545 233Q575 284 598 337T636 441T660 537T668 618Q668 690 649 745T598 848Q622 868 643 882T687 907T733 921T788 926Q881 926 927 878T973 735Q973 669
951 587T883 412T767 214T600 0H303Q273 116 242 228T176 452T101 675T10 901H360Z" />
<glyph unicode="w" glyph-name="w" horiz-adv-x="1477" d="M344 901L461 326L662 901H840L1028 250Q1068 330 1092 421T1116 600Q1116 725 1038 848Q1061 867 1082 881T1126 906T1174 921T1231 926Q1273 926 1308 912T1368 870T1407 804T1421 713Q1421 647 1402
570T1340 404T1231 215T1067 0L834 -41L692 416L547 0L276 -41Q246 80 214 206T149 454T81 690T10 901H344Z" />
<glyph unicode="x" glyph-name="x" horiz-adv-x="1026" d="M14 901H408Q454 821 504 739T598 588Q610 598 618 612T633 641T642 672T645 702Q645 740 632 779T584 860Q627 891 677 908T788 926Q834 926 868 912T924 875T956 821T967 758Q967 705 946 660T888 575T805
499T707 430Q759 355 797 301T869 200T936 107T1012 0H614Q566 80 522 157T426 315Q401 288 385 259T369 188Q369 148 383 113T432 41Q390 13 340 -6T229 -25Q141 -25 98 21T55 150Q55 197 76 243T133 331T216 409T317 473L14 901Z" />
<glyph unicode="y" glyph-name="y" horiz-adv-x="1044" d="M365 901Q377 847 394 783T430 649T469 511T508 380T544 266T573 180Q587 213 603 256T632 348T655 446T664 541Q664 630 646 709T590 848Q639 886 684 906T788 926Q830 926 865 915T925 879T965 816T979
725Q979 642 949 538T861 313T719 54T528 -231Q483 -294 432 -352T326 -455T214 -526T98 -553Q54 -553 20 -541T-36 -506T-70 -453T-82 -385Q-82 -360 -75 -335T-57 -288T-30 -246T4 -215Q39 -241 72 -252T145 -264Q185 -264 219 -251T282 -216T333 -168T371 -115Q292
134 196 393T2 901H365Z" />
<glyph unicode="z" glyph-name="z" horiz-adv-x="1032" d="M41 152Q109 218 183 296T326 451T452 599T545 721Q471 721 418 706T327 666T261 605T211 530Q190 537 166 554T120 597T85 654T70 723Q70 769 86 806T134 870T209 911T309 926Q353 926 402 921T498 910T589
898T666 893Q711 893 762 899T868 926L971 731Q911 680 852 616T733 483T615 341T496 201Q575 201 630 212T725 245T792 297T844 365Q869 350 891 329T929 282T955 228T965 168Q965 124 949 89T901 28T826 -11T727 -25Q679 -25 634 -19T545 -6T454 8T358 14Q312
14 274 8T208 -7T164 -21T145 -25L41 152Z" />
<glyph unicode="{" glyph-name="braceleft" horiz-adv-x="688" d="M324 526Q376 494 409 454T460 367T485 270T492 168Q492 102 486 35T479 -104Q479 -127 481 -147T492 -185T516 -220T559 -250L631 -287L578 -430Q467 -408 393 -368T273 -272T209 -151T190 -12Q190
37 196 96T203 217Q203 252 201 280T189 332T162 374T113 408L39 444L43 616L121 649Q158 664 179 689T210 756T224 862T227 1018Q227 1099 247 1172T315 1306T443 1412T645 1483L688 1339L610 1300Q578 1284 560 1264T533 1215T522 1147T520 1053V973Q520 914
515 851T490 729T431 618T324 526Z" />
<glyph unicode="|" glyph-name="bar" horiz-adv-x="463" d="M131 1554H332V-401H131V1554Z" />
<glyph unicode="}" glyph-name="braceright" horiz-adv-x="688" d="M360 526Q308 557 276 598T225 686T200 783T193 885Q193 951 199 1018T205 1157Q205 1179 203 1199T192 1238T168 1273T125 1303L53 1339L106 1483Q217 1460 291 1420T411 1325T475 1204T494
1065Q494 1015 488 957T481 836Q481 800 483 772T495 720T522 679T571 645L645 608L641 436L563 403Q526 388 505 363T474 296T460 191T457 35Q457 -46 437 -119T369 -254T241 -360T39 -430L-4 -287L74 -248Q105 -232 123 -212T150 -162T161 -94T164 0V80Q164 139
169 202T194 324T253 435T360 526Z" />
<glyph unicode="~" glyph-name="asciitilde" horiz-adv-x="1024" d="M727 641Q749 641 773 657T818 694Q842 718 864 748L963 670Q943 631 917 588T857 507T784 445T700 420Q652 420 598 437T490 475T387 513T299 530Q276 530 253 513T209 475Q186 450 164 420L61
498Q80 536 107 580T168 663T241 726T326 752Q374 752 428 735T536 697T639 659T727 641Z" />
<glyph unicode="&#xa0;" glyph-name="nbspace" horiz-adv-x="457" />
<glyph unicode="&#xa1;" glyph-name="exclamdown" horiz-adv-x="555" d="M461 739Q461 693 446 660T407 605T352 573T287 563Q255 563 224 573T168 604T128 659T113 739Q113 781 126 815T163 874T218 912T287 926Q324 926 355 913T410 874T447 815T461 739ZM76
-510Q88 -428 98 -346T118 -187T135 -37T149 98Q164 245 174 377H375Q378 245 382 98Q384 35 386 -37T393 -186T401 -346T412 -510Q403 -509 386 -509T346 -508T297 -507T244 -506Q217 -506 191 -506T143 -507T103 -508T76 -510Z" />
<glyph unicode="&#xa2;" glyph-name="cent" horiz-adv-x="948" d="M897 119Q832 63 752 30T580 -16V-231H348L360 -12Q285 3 226 38T125 126T61 250T39 406Q39 493 63 572T134 717T246 831T395 903V1098H627L614 922Q677 915 730 894T822 843T883 773T905 690Q905
593 832 545T616 496Q614 537 609 575T591 642T557 689T504 707Q468 707 439 689T390 637T359 556T348 449Q348 385 366 339T417 262T496 218T600 203Q651 203 715 214T836 248L897 119Z" />
<glyph unicode="&#xa3;" glyph-name="sterling" horiz-adv-x="1157" d="M221 877Q216 898 212 915T205 950T201 986T199 1026Q199 1090 224 1144T292 1244T392 1324T514 1383T649 1419T786 1432Q933 1432 1004 1376T1075 1223Q1075 1132 1018 1082T856 1026Q850
1071 835 1110T796 1179T737 1226T657 1243Q616 1243 588 1229T543 1189T518 1131T510 1059Q510 1017 514 970T528 877Q583 878 641 879T751 883T844 889T907 897L827 653Q765 647 692 647Q663 647 632 647T569 649Q572 626 573 610T575 578Q575 527 562 480T527
391T478 310T424 240Q448 256 476 268Q500 279 531 288T598 297Q639 297 680 286T760 262T833 238T897 227Q932 227 964 245T1036 295L1137 154Q1110 126 1077 95T1005 37T921 -7T823 -25Q763 -25 705 -5T591 40T481 85T375 106Q352 106 331 100T295 82L172 -41L41
100Q108 167 152 230T221 355T256 482T266 618Q266 632 265 646T262 674L117 690L123 877H221Z" />
<glyph unicode="&#xa4;" glyph-name="currency" horiz-adv-x="1444" d="M150 698Q150 783 174 861T242 1008L61 1188L221 1348L401 1167Q466 1211 541 1235T698 1260Q783 1260 860 1236T1004 1167L1184 1348L1343 1188L1163 1008Q1208 940 1232 862T1257 698Q1257
617 1234 541T1167 399L1343 225L1184 66L1012 238Q944 191 865 166T698 141Q613 141 536 167T393 238L221 66L61 225L238 399Q196 465 173 541T150 698ZM377 705Q377 636 402 575T472 469T576 396T702 369Q771 369 830 396T934 468T1004 575T1030 705Q1030 774
1005 835T935 942T831 1015T702 1042Q635 1042 576 1015T473 943T403 836T377 705Z" />
<glyph unicode="&#xa5;" glyph-name="yen" horiz-adv-x="1581" d="M969 991Q998 1039 1011 1071T1024 1128Q1024 1159 1004 1173T950 1194L903 1202L911 1397Q977 1389 1047 1385T1202 1380Q1286 1380 1365 1384T1509 1397L1501 1204Q1485 1201 1473 1199T1449
1196T1425 1194T1395 1192L1143 831H1352L1346 659Q1297 658 1242 658Q1195 657 1138 657T1020 655L920 512H1341L1335 340Q1280 339 1214 339Q1157 338 1082 338T918 336Q922 294 932 269T959 228T998 206T1047 195L1085 188L1077 -6Q1034 -2 981 2Q936 5 875
7T743 10Q674 10 589 8T395 -6L403 188Q429 191 457 194Q481 196 510 198T569 201L578 328Q463 325 358 319T170 307L178 512H559L479 645Q401 642 325 638T184 627L193 831H365L217 1075Q196 1109 177 1132T140 1169T105 1189T70 1198L41 1202L49 1397Q115 1391
204 1386T387 1380Q487 1380 572 1385T733 1397L723 1202Q670 1196 632 1194T557 1190L799 766H838L969 991Z" />
<glyph unicode="&#xa6;" glyph-name="brokenbar" horiz-adv-x="489" d="M143 1554H346V858H143V1554ZM143 295H346V-401H143V295Z" />
<glyph unicode="&#xa7;" glyph-name="section" horiz-adv-x="936" d="M641 35Q647 63 649 93T651 156Q651 215 638 270T602 378T551 479T492 573Q438 655 395 717T321 828T269 915T240 987Q233 959 231 929T229 866Q229 807 242 752T278 644T330 543T389 449Q443
366 485 304T559 194T611 107T641 35ZM387 -262Q422 -262 444 -238T467 -168Q467 -128 456 -89T422 -9T369 79T297 182Q238 265 192 336T113 479T64 630T47 809Q47 873 61 944T104 1085T173 1217T269 1328T389 1404T532 1432Q591 1432 635 1420T707 1386T750 1334T764
1270Q764 1246 755 1220T722 1170T661 1130T567 1106Q562 1148 552 1176T529 1223T499 1249T467 1257Q455 1257 444 1252T423 1237T407 1214T401 1182Q401 1129 438 1066T541 918Q600 840 656 762T755 601T825 431T852 250Q852 180 836 102T787 -53T709 -198T604
-320T472 -404T317 -436Q258 -436 215 -424T142 -389T99 -337T84 -272Q84 -248 94 -222T128 -171T191 -129T289 -104Q293 -149 304 -179T328 -227T357 -254T387 -262Z" />
<glyph unicode="&#xa8;" glyph-name="dieresis" horiz-adv-x="870" d="M242 1102Q213 1102 188 1112T143 1141T113 1190T102 1257Q102 1290 112 1320T141 1372T187 1408T248 1421Q276 1421 301 1411T345 1382T374 1335T385 1270Q385 1236 376 1206T348 1152T303
1116T242 1102ZM623 1102Q595 1102 570 1112T526 1141T496 1190T485 1257Q485 1290 495 1320T524 1372T571 1408T633 1421Q661 1421 685 1411T728 1382T757 1335T768 1270Q768 1236 759 1206T730 1152T684 1116T623 1102Z" />
<glyph unicode="&#xa9;" glyph-name="copyright" horiz-adv-x="1620" d="M152 696Q152 605 176 521T243 363T347 228T481 124T639 57T815 33Q906 33 990 57T1148 124T1282 228T1386 362T1453 520T1477 696Q1477 787 1453 872T1386 1030T1283 1165T1148 1269T990
1336T815 1360Q724 1360 640 1336T482 1269T347 1165T243 1031T176 872T152 696ZM80 696Q80 797 106 891T180 1066T295 1215T444 1330T620 1404T815 1430Q916 1430 1010 1404T1185 1330T1334 1215T1448 1067T1522 891T1548 696Q1548 595 1522 501T1449 326T1334
178T1186 63T1010 -11T815 -37Q714 -37 620 -11T445 63T296 178T181 326T107 501T80 696ZM971 846Q971 873 967 900T948 949T905 985T829 999Q786 999 747 981T678 927T630 838T612 715Q612 633 638 577T708 486T805 436T913 420Q969 420 1020 426T1106 444L1139
324Q1110 314 1076 305T1003 288T923 277T842 272Q746 272 662 299T516 378T417 509T381 688Q381 793 418 876T521 1016T676 1103T870 1133Q916 1133 953 1130T1023 1123T1084 1112T1139 1100L1133 838H971V846Z" />
<glyph unicode="&#xaa;" glyph-name="ordfeminine" horiz-adv-x="881" d="M911 925Q873 886 826 864T723 841Q657 841 619 874T566 960Q547 935 524 914T471 876T405 850T325 841Q271 841 232 856T168 897T130 956T117 1025Q117 1078 137 1117T192 1184T271 1230T363
1259T457 1274T542 1279Q543 1290 543 1296T543 1311Q543 1353 519 1375T449 1397Q432 1397 412 1393T372 1378T335 1348T309 1297Q290 1297 263 1299T211 1311T167 1342T148 1400Q148 1431 161 1455T197 1500T250 1534T315 1558T385 1572T455 1577Q526 1577 583
1564T682 1522T745 1446T767 1329Q767 1307 764 1270T759 1195T754 1124T751 1078Q751 1061 756 1050T768 1031T786 1022T805 1019Q818 1019 827 1021T849 1030L911 925ZM525 1149Q499 1149 467 1144T407 1128T360 1099T340 1057Q340 1035 355 1021T401 1007Q422
1007 444 1015T485 1040T518 1084T537 1149H525Z" />
<glyph unicode="&#xab;" glyph-name="guillemotleft" horiz-adv-x="995" d="M877 236L809 170L463 524L831 877L897 811L709 524L877 236ZM639 145L551 59L41 524L580 989L668 903L365 524L639 145Z" />
<glyph unicode="&#xac;" glyph-name="logicalnot" horiz-adv-x="1106" d="M989 324H801V549H109V737H989V324Z" />
<glyph unicode="&#xad;" glyph-name="uni00AD" horiz-adv-x="776" d="M672 618L666 389H102L109 618H672Z" />
<glyph unicode="&#xae;" glyph-name="registered" horiz-adv-x="1090" d="M86 958Q86 1056 123 1142T224 1292T373 1393T557 1430Q654 1430 740 1393T890 1292T991 1142T1028 958Q1028 860 991 775T890 625T740 524T557 487Q459 487 374 524T224 625T123 774T86
958ZM143 956Q143 871 175 796T264 665T396 576T555 543Q641 543 716 575T848 664T938 796T971 956Q971 1041 938 1116T849 1248T717 1337T555 1370Q471 1370 396 1338T265 1249T176 1117T143 956ZM498 848Q498 827 501 814T512 794T529 783T551 776L565 772L561
696Q543 697 522 699Q504 700 480 701T428 702Q400 702 367 702T291 696L295 772Q305 773 316 775Q325 776 337 777T360 778Q362 812 364 857T367 947T370 1033T371 1100Q371 1121 368 1134T358 1154T341 1164T319 1171L305 1176L307 1251Q327 1250 346 1249Q363
1248 382 1248T418 1247Q452 1247 492 1250T573 1253Q674 1253 726 1209T778 1087Q778 1032 751 996T680 940L717 874Q746 820 778 793T836 766L831 698Q825 697 818 696Q812 695 803 695T782 694Q725 694 680 722T594 825L547 911H500Q498 894 498 877T498 848ZM510
1163Q508 1135 506 1090T502 995Q508 993 515 993T530 993Q578 993 606 1015T635 1079Q635 1125 605 1144T532 1163H510Z" />
<glyph unicode="&#xaf;" glyph-name="overscore" horiz-adv-x="1182" d="M834 1296L827 1108H262L268 1296H834Z" />
<glyph unicode="&#xb0;" glyph-name="degree" horiz-adv-x="735" d="M263 1151Q263 1097 297 1061T391 1024Q417 1024 439 1033T477 1060T502 1101T511 1151Q511 1204 477 1239T391 1274Q331 1274 297 1239T263 1151ZM102 1151Q102 1210 124 1261T184 1351T276
1410T391 1432Q450 1432 501 1411T591 1351T650 1262T672 1151Q672 1089 651 1036T591 945T502 884T391 862Q329 862 276 884T185 944T124 1036T102 1151Z" />
<glyph unicode="&#xb1;" glyph-name="plusminus" horiz-adv-x="1157" d="M1047 59H104V248H1047V59ZM1047 737H670V360H481V737H104V926H481V1303H670V926H1047V737Z" />
<glyph unicode="&#xb2;" glyph-name="twosuperior" horiz-adv-x="713" d="M324 1438Q290 1438 267 1413T244 1348Q244 1340 245 1335T248 1321Q234 1310 216 1304T180 1298Q145 1298 119 1319T92 1386Q92 1431 113 1466T169 1526T252 1564T350 1577Q405 1577 451
1564T530 1524T581 1459T600 1368Q600 1319 577 1271T511 1171T408 1066T274 950H391Q427 950 450 958T489 981T513 1012T530 1047L547 1079L637 1065Q632 1034 627 998T618 925T611 858T604 807H117L80 909Q134 965 191 1023T296 1138T375 1247T406 1343Q406 1385
386 1411T324 1438Z" />
<glyph unicode="&#xb3;" glyph-name="threesuperior" horiz-adv-x="676" d="M330 934Q378 934 408 962T438 1047Q438 1092 412 1118T340 1145Q318 1145 294 1139T252 1124L217 1227L276 1249Q295 1256 315 1268T352 1295T380 1330T391 1372Q391 1394 377 1410T330
1427Q307 1427 270 1415T188 1366L123 1444Q147 1469 175 1493T237 1535T310 1565T395 1577Q444 1577 479 1566T538 1534T573 1485T584 1423Q584 1399 575 1375T550 1329T516 1291T475 1264Q506 1259 533 1245T581 1209T613 1156T625 1090Q625 1028 596 975T519
882T410 820T285 797Q185 797 139 830T92 915Q92 947 108 972T156 1014Q178 992 198 977T238 953T281 939T330 934Z" />
<glyph unicode="&#xb4;" glyph-name="acute" horiz-adv-x="643" d="M102 1186L354 1565Q368 1551 393 1529T445 1484T499 1442T541 1415L211 1092L102 1186Z" />
<glyph unicode="&#xb5;" glyph-name="mu" horiz-adv-x="1163" d="M264 61Q262 43 262 26T262 -6Q262 -101 275 -166T313 -275T371 -344T446 -383Q437 -410 421 -440T380 -495T325 -536T256 -553Q220 -553 186 -543T126 -508T84 -441T68 -334Q68 -251 77 -135T98
114T119 384T129 651Q129 767 123 881Q228 881 314 895T463 926Q452 861 442 785T425 634T413 489T408 369Q408 299 442 271T539 242Q581 242 619 257T686 289Q687 310 688 345T691 424T693 520T694 623Q694 685 694 750T688 881Q793 881 883 895T1036 926Q1024
854 1014 780T998 633T987 490T983 356Q983 262 1022 215T1137 162L1130 0H1116Q1059 0 1012 -2T921 -10T837 -22T752 -41L791 168Q764 133 727 99T647 37T555 -8T457 -25Q389 -25 342 -1T264 61Z" />
<glyph unicode="&#xb6;" glyph-name="paragraph" horiz-adv-x="1163" d="M854 -514H655L713 1169H582L522 -514H324L369 774H336Q252 774 194 800T99 868T46 962T29 1069Q29 1130 48 1188T107 1291T209 1363T358 1391Q446 1391 546 1386T762 1380Q833 1380 909
1383T1067 1397L1059 1182Q1036 1179 1017 1177T981 1174T947 1171T911 1169L854 -514Z" />
<glyph unicode="&#xb7;" glyph-name="middot" horiz-adv-x="532" d="M96 717Q96 763 111 796T150 851T205 883T270 893Q302 893 333 883T389 852T429 797T444 717Q444 675 431 641T394 582T339 544T270 530Q233 530 202 543T147 582T110 641T96 717Z" />
<glyph unicode="&#xb8;" glyph-name="cedilla" horiz-adv-x="604" d="M193 -193Q208 -131 219 -71T238 35H375L354 -72Q384 -79 411 -91T458 -123T490 -170T502 -233Q502 -281 482 -323T425 -395T339 -443T233 -461Q168 -461 135 -431T102 -356Q102 -330 113 -305T156
-254Q180 -276 218 -295T297 -315Q323 -315 337 -303T352 -268Q352 -249 340 -235T307 -212T256 -198T193 -193Z" />
<glyph unicode="&#xb9;" glyph-name="onesuperior" horiz-adv-x="586" d="M422 1014Q422 985 427 967T440 937T461 922T489 915L512 913L508 807Q473 809 440 812Q411 814 378 815T319 817Q292 817 242 816T127 807L133 924Q147 925 162 927Q175 928 190 929T221
930Q224 968 226 1025T231 1142T235 1258T236 1350L141 1298L86 1407Q163 1452 223 1499T322 1577L438 1538Q435 1512 433 1470T430 1377T427 1272T424 1169T423 1078T422 1014Z" />
<glyph unicode="&#xba;" glyph-name="ordmasculine" horiz-adv-x="881" d="M104 1178Q104 1255 131 1327T209 1454T331 1543T489 1577Q575 1577 638 1552T742 1482T803 1378T823 1247Q823 1161 792 1087T709 957T587 870T442 838Q349 838 285 865T180 939T122
1047T104 1178ZM358 1206Q358 1131 388 1089T465 1047Q510 1047 539 1089T569 1206Q569 1282 540 1325T465 1368Q418 1368 388 1325T358 1206Z" />
<glyph unicode="&#xbb;" glyph-name="guillemotright" horiz-adv-x="995" d="M117 813L184 879L530 524L162 172L94 238L285 524L117 813ZM354 903L442 989L952 524L414 59L326 145L629 524L354 903Z" />
<glyph unicode="&#xbc;" glyph-name="onequarter" horiz-adv-x="1499" d="M430 829Q430 800 435 782T448 752T469 737T497 730L520 728L516 622Q481 624 448 627Q419 629 386 630T327 632Q300 632 250 631T135 622L141 739Q155 740 170 742Q183 743 198 744T229
745Q232 783 234 840T239 957T243 1073T244 1165L149 1113L94 1222Q171 1267 231 1314T330 1392L446 1353Q443 1327 441 1285T438 1192T435 1087T432 984T431 893T430 829ZM163 68L1165 1448L1294 1339L292 -41L163 68ZM941 334Q977 334 1016 335T1093 338Q1093
383 1094 426T1095 502L941 334ZM1369 0Q1334 2 1301 5Q1272 7 1239 8T1179 10Q1153 10 1104 9T991 0L995 117Q1009 118 1024 120Q1037 121 1052 122T1083 123Q1086 161 1089 215H794L796 334L1181 770L1300 731Q1298 705 1296 662T1291 566T1288 456T1285 344Q1314
346 1337 347T1378 351Q1398 353 1415 354L1378 215H1283V207Q1283 178 1288 161T1302 134T1325 119T1353 111L1374 106L1369 0Z" />
<glyph unicode="&#xbd;" glyph-name="onehalf" horiz-adv-x="1544" d="M430 829Q430 800 435 782T448 752T469 737T497 730L520 728L516 622Q481 624 448 627Q419 629 386 630T327 632Q300 632 250 631T135 622L141 739Q155 740 170 742Q183 743 198 744T229 745Q232
783 234 840T239 957T243 1073T244 1165L149 1113L94 1222Q171 1267 231 1314T330 1392L446 1353Q443 1327 441 1285T438 1192T435 1087T432 984T431 893T430 829ZM163 68L1165 1448L1294 1339L292 -41L163 68ZM1162 632Q1128 632 1105 607T1082 542Q1082 534 1083
529T1086 515Q1072 504 1054 498T1018 492Q983 492 957 513T930 580Q930 625 951 660T1007 720T1090 758T1188 771Q1243 771 1289 758T1368 718T1419 653T1438 562Q1438 513 1415 465T1349 365T1246 260T1112 144H1229Q1265 144 1288 152T1327 175T1351 206T1368
241L1385 273L1475 259Q1470 228 1465 192T1456 119T1449 52T1442 1H955L918 103Q972 159 1029 217T1134 332T1213 441T1244 537Q1244 579 1224 605T1162 632Z" />
<glyph unicode="&#xbe;" glyph-name="threequarters" horiz-adv-x="1561" d="M330 748Q378 748 408 776T438 861Q438 906 412 932T340 959Q318 959 294 953T252 938L217 1041L276 1063Q295 1070 315 1082T352 1109T380 1144T391 1186Q391 1208 377 1224T330 1241Q307
1241 270 1229T188 1180L123 1258Q147 1283 175 1307T237 1349T310 1379T395 1391Q444 1391 479 1380T538 1348T573 1299T584 1237Q584 1213 575 1189T550 1143T516 1105T475 1078Q506 1073 533 1059T581 1023T613 970T625 904Q625 842 596 789T519 696T410 634T285
611Q185 611 139 644T92 729Q92 761 108 786T156 828Q178 806 198 791T238 767T281 753T330 748ZM232 68L1234 1448L1363 1339L361 -41L232 68ZM1004 335Q1040 335 1079 336T1156 339Q1156 384 1157 427T1158 503L1004 335ZM1432 1Q1397 3 1364 6Q1335 8 1302 9T1242
11Q1216 11 1167 10T1054 1L1058 118Q1072 119 1087 121Q1100 122 1115 123T1146 124Q1149 162 1152 216H857L859 335L1244 771L1363 732Q1361 706 1359 663T1354 567T1351 457T1348 345Q1377 347 1400 348T1441 352Q1461 354 1478 355L1441 216H1346V208Q1346
179 1351 162T1365 135T1388 120T1416 112L1437 107L1432 1Z" />
<glyph unicode="&#xbf;" glyph-name="questiondown" horiz-adv-x="793" d="M586 739Q586 693 571 660T532 605T477 573T412 563Q380 563 349 573T293 604T253 659T238 739Q238 781 251 815T288 874T343 912T412 926Q449 926 480 913T535 874T572 815T586 739ZM444
-141Q470 -133 494 -130T541 -127Q612 -127 656 -163T700 -272Q700 -331 672 -378T598 -459T493 -511T373 -530Q292 -530 229 -508T123 -447T56 -359T33 -252Q33 -168 62 -107T137 0T233 78T330 135T404 180T434 223Q434 242 418 254T360 266Q334 266 313 264T274
259T238 250T201 238V246Q201 286 212 328T247 404T308 459T399 481Q441 481 476 468T537 429T577 365T592 279Q592 220 576 169T529 71T457 -20T362 -111Q346 -126 330 -141T302 -175T282 -214T274 -260Q274 -288 293 -312T356 -336Q375 -336 392 -329T423 -306T445
-266T453 -209Q453 -193 451 -177T444 -141Z" />
<glyph unicode="&#xc0;" glyph-name="Agrave" horiz-adv-x="1477" d="M1262 426Q1286 361 1307 322T1350 259T1392 225T1438 205L1485 188L1477 -6Q1411 0 1327 5T1149 10Q1049 10 958 5T791 -6L799 188Q851 195 889 198T965 201L901 408Q811 406 696 402T455
389Q441 354 435 327T428 279Q428 238 450 220T512 195L551 188L543 -6Q512 -2 469 2Q432 5 379 7T254 10Q219 10 191 10T131 8T62 3T-31 -6L-23 188Q-11 190 7 193Q22 195 44 197T96 201L625 1391L881 1432L1262 426ZM539 635H831L713 1020H672L539 635ZM834 1503L432
1733Q444 1748 463 1775T503 1831T541 1887T570 1929L920 1628L834 1503Z" />
<glyph unicode="&#xc1;" glyph-name="Aacute" horiz-adv-x="1477" d="M1262 426Q1286 361 1307 322T1350 259T1392 225T1438 205L1485 188L1477 -6Q1411 0 1327 5T1149 10Q1049 10 958 5T791 -6L799 188Q851 195 889 198T965 201L901 408Q811 406 696 402T455
389Q441 354 435 327T428 279Q428 238 450 220T512 195L551 188L543 -6Q512 -2 469 2Q432 5 379 7T254 10Q219 10 191 10T131 8T62 3T-31 -6L-23 188Q-11 190 7 193Q22 195 44 197T96 201L625 1391L881 1432L1262 426ZM539 635H831L713 1020H672L539 635ZM698 1618L1024
1935Q1035 1919 1054 1892T1096 1838T1139 1786T1174 1751L784 1503L698 1618Z" />
<glyph unicode="&#xc2;" glyph-name="Acircumflex" horiz-adv-x="1477" d="M1262 426Q1286 361 1307 322T1350 259T1392 225T1438 205L1485 188L1477 -6Q1411 0 1327 5T1149 10Q1049 10 958 5T791 -6L799 188Q851 195 889 198T965 201L901 408Q811 406 696 402T455
389Q441 354 435 327T428 279Q428 238 450 220T512 195L551 188L543 -6Q512 -2 469 2Q432 5 379 7T254 10Q219 10 191 10T131 8T62 3T-31 -6L-23 188Q-11 190 7 193Q22 195 44 197T96 201L625 1391L881 1432L1262 426ZM539 635H831L713 1020H672L539 635ZM553 1503L452
1606L801 1962L1089 1606L985 1503L778 1669L553 1503Z" />
<glyph unicode="&#xc3;" glyph-name="Atilde" horiz-adv-x="1477" d="M1262 426Q1286 361 1307 322T1350 259T1392 225T1438 205L1485 188L1477 -6Q1411 0 1327 5T1149 10Q1049 10 958 5T791 -6L799 188Q851 195 889 198T965 201L901 408Q811 406 696 402T455
389Q441 354 435 327T428 279Q428 238 450 220T512 195L551 188L543 -6Q512 -2 469 2Q432 5 379 7T254 10Q219 10 191 10T131 8T62 3T-31 -6L-23 188Q-11 190 7 193Q22 195 44 197T96 201L625 1391L881 1432L1262 426ZM539 635H831L713 1020H672L539 635ZM952 1767Q975
1767 997 1783T1038 1820Q1059 1844 1079 1874L1178 1796Q1158 1758 1132 1714T1072 1633T999 1571T915 1546Q874 1546 833 1563T754 1601T683 1639T627 1657Q604 1657 582 1640T542 1601Q521 1576 502 1546L399 1624Q418 1662 445 1706T506 1789T579 1852T664
1878Q704 1878 745 1861T825 1823T896 1785T952 1767Z" />
<glyph unicode="&#xc4;" glyph-name="Adieresis" horiz-adv-x="1477" d="M1262 426Q1286 361 1307 322T1350 259T1392 225T1438 205L1485 188L1477 -6Q1411 0 1327 5T1149 10Q1049 10 958 5T791 -6L799 188Q851 195 889 198T965 201L901 408Q811 406 696 402T455
389Q441 354 435 327T428 279Q428 238 450 220T512 195L551 188L543 -6Q512 -2 469 2Q432 5 379 7T254 10Q219 10 191 10T131 8T62 3T-31 -6L-23 188Q-11 190 7 193Q22 195 44 197T96 201L625 1391L881 1432L1262 426ZM539 635H831L713 1020H672L539 635ZM588 1546Q559
1546 534 1556T489 1585T459 1634T448 1702Q448 1735 458 1764T487 1816T533 1852T594 1866Q622 1866 647 1856T691 1827T720 1779T731 1714Q731 1680 722 1650T694 1596T649 1560T588 1546ZM969 1546Q941 1546 916 1556T872 1585T842 1634T831 1702Q831 1735 841
1764T870 1816T917 1852T979 1866Q1007 1866 1031 1856T1074 1827T1103 1779T1114 1714Q1114 1680 1105 1650T1076 1596T1030 1560T969 1546Z" />
<glyph unicode="&#xc5;" glyph-name="Aring" horiz-adv-x="1477" d="M1262 426Q1286 361 1307 322T1350 259T1392 225T1438 205L1485 188L1477 -6Q1411 0 1327 5T1149 10Q1049 10 958 5T791 -6L799 188Q851 195 889 198T965 201L901 408Q811 406 696 402T455 389Q441
354 435 327T428 279Q428 238 450 220T512 195L551 188L543 -6Q512 -2 469 2Q432 5 379 7T254 10Q219 10 191 10T131 8T62 3T-31 -6L-23 188Q-11 190 7 193Q22 195 44 197T96 201L625 1391L881 1432L1262 426ZM539 635H831L713 1020H672L539 635ZM776 1845Q727
1845 702 1812T676 1733Q676 1713 682 1694T700 1658T732 1632T778 1622Q825 1622 850 1650T876 1733Q876 1751 871 1771T853 1807T822 1834T776 1845ZM520 1716Q520 1766 540 1812T596 1893T685 1949T801 1970Q861 1970 904 1953T976 1907T1018 1841T1032 1761Q1032
1705 1010 1657T950 1574T862 1518T754 1497Q689 1497 645 1516T573 1566T533 1636T520 1716Z" />
<glyph unicode="&#xc6;" glyph-name="AE" horiz-adv-x="2054" d="M500 385Q489 350 484 323T479 276Q479 236 497 219T547 195L580 188L571 -6Q537 -3 497 -1T412 4T324 7T238 8Q153 8 81 4T-55 -6L-47 186Q-30 189 -17 191T10 195T37 198T68 201L573 1014Q584
1031 589 1047T594 1079Q594 1102 584 1121T551 1153L436 1221L444 1397Q486 1393 542 1390T664 1385T799 1380T939 1377T1072 1375T1190 1374H1327Q1477 1374 1637 1380T1972 1397L1942 926H1710L1704 981Q1699 1019 1689 1049T1660 1100T1610 1135T1536 1153L1290
1178L1278 805L1673 821L1663 573L1270 600L1257 217L1497 231Q1555 234 1593 249T1657 294T1699 369T1729 479H1968L1909 -20Q1745 -6 1566 1T1196 8Q1137 8 1081 7T970 5T859 1T741 -6L750 188Q780 191 810 194Q836 196 864 198T915 201Q919 243 921 297T926
408Q847 404 738 400T500 385ZM633 635H936Q938 708 940 782T944 925T947 1053T950 1155H909L633 635Z" />
<glyph unicode="&#xc7;" glyph-name="Ccedilla" horiz-adv-x="1405" d="M618 -193Q629 -149 638 -106T653 -25Q520 -3 414 52T233 195T118 402T78 670Q78 850 137 992T302 1231T558 1380T889 1432Q967 1432 1030 1427T1146 1414T1245 1396T1335 1374L1319 926H1067V940Q1067
985 1058 1033T1023 1120T948 1185T819 1210Q747 1210 679 1179T558 1085T472 931T440 715Q440 574 484 477T601 320T768 232T961 205Q1007 205 1052 208T1139 218T1215 231T1278 248L1333 45Q1286 28 1229 13T1109 -15T978 -34T842 -41Q828 -41 814 -41T786 -39L780
-72Q810 -79 837 -91T884 -123T916 -170T928 -233Q928 -281 908 -323T851 -395T765 -443T659 -461Q594 -461 561 -431T528 -356Q528 -330 539 -305T582 -254Q606 -276 644 -295T723 -315Q749 -315 763 -303T778 -268Q778 -249 766 -235T733 -212T682 -198T618 -193Z"
/>
<glyph unicode="&#xc8;" glyph-name="Egrave" horiz-adv-x="1384" d="M827 231Q886 235 925 251T989 298T1031 372T1059 479H1298L1239 -20Q1075 -6 896 1T526 8Q467 8 412 7T301 5T189 1T72 -6L80 188Q110 191 140 194Q166 196 194 198T246 201Q250 249 253 315T260
457T266 612T270 766T273 904T274 1012Q274 1067 265 1101T240 1154T199 1182T145 1196L106 1202L115 1397Q177 1391 239 1387T368 1380T505 1376T657 1374Q807 1374 967 1380T1303 1397L1272 926H1040L1034 981Q1029 1019 1019 1049T990 1100T940 1135T866 1153L621
1178L608 805L1004 821L993 573L600 600L588 217L827 231ZM830 1503L428 1733Q440 1748 459 1775T499 1831T537 1887T566 1929L916 1628L830 1503Z" />
<glyph unicode="&#xc9;" glyph-name="Eacute" horiz-adv-x="1384" d="M827 231Q886 235 925 251T989 298T1031 372T1059 479H1298L1239 -20Q1075 -6 896 1T526 8Q467 8 412 7T301 5T189 1T72 -6L80 188Q110 191 140 194Q166 196 194 198T246 201Q250 249 253 315T260
457T266 612T270 766T273 904T274 1012Q274 1067 265 1101T240 1154T199 1182T145 1196L106 1202L115 1397Q177 1391 239 1387T368 1380T505 1376T657 1374Q807 1374 967 1380T1303 1397L1272 926H1040L1034 981Q1029 1019 1019 1049T990 1100T940 1135T866 1153L621
1178L608 805L1004 821L993 573L600 600L588 217L827 231ZM565 1618L891 1935Q902 1919 921 1892T963 1838T1006 1786T1041 1751L651 1503L565 1618Z" />
<glyph unicode="&#xca;" glyph-name="Ecircumflex" horiz-adv-x="1384" d="M827 231Q886 235 925 251T989 298T1031 372T1059 479H1298L1239 -20Q1075 -6 896 1T526 8Q467 8 412 7T301 5T189 1T72 -6L80 188Q110 191 140 194Q166 196 194 198T246 201Q250 249
253 315T260 457T266 612T270 766T273 904T274 1012Q274 1067 265 1101T240 1154T199 1182T145 1196L106 1202L115 1397Q177 1391 239 1387T368 1380T505 1376T657 1374Q807 1374 967 1380T1303 1397L1272 926H1040L1034 981Q1029 1019 1019 1049T990 1100T940
1135T866 1153L621 1178L608 805L1004 821L993 573L600 600L588 217L827 231ZM537 1503L436 1606L785 1962L1073 1606L969 1503L762 1669L537 1503Z" />
<glyph unicode="&#xcb;" glyph-name="Edieresis" horiz-adv-x="1384" d="M827 231Q886 235 925 251T989 298T1031 372T1059 479H1298L1239 -20Q1075 -6 896 1T526 8Q467 8 412 7T301 5T189 1T72 -6L80 188Q110 191 140 194Q166 196 194 198T246 201Q250 249 253
315T260 457T266 612T270 766T273 904T274 1012Q274 1067 265 1101T240 1154T199 1182T145 1196L106 1202L115 1397Q177 1391 239 1387T368 1380T505 1376T657 1374Q807 1374 967 1380T1303 1397L1272 926H1040L1034 981Q1029 1019 1019 1049T990 1100T940 1135T866
1153L621 1178L608 805L1004 821L993 573L600 600L588 217L827 231ZM566 1546Q537 1546 512 1556T467 1585T437 1634T426 1702Q426 1735 436 1764T465 1816T511 1852T572 1866Q600 1866 625 1856T669 1827T698 1779T709 1714Q709 1680 700 1650T672 1596T627 1560T566
1546ZM947 1546Q919 1546 894 1556T850 1585T820 1634T809 1702Q809 1735 819 1764T848 1816T895 1852T957 1866Q985 1866 1009 1856T1052 1827T1081 1779T1092 1714Q1092 1680 1083 1650T1054 1596T1008 1560T947 1546Z" />
<glyph unicode="&#xcc;" glyph-name="Igrave" horiz-adv-x="858" d="M115 1397Q159 1392 212 1388Q257 1385 318 1383T451 1380Q520 1380 604 1382T797 1397L788 1202Q762 1199 734 1196Q710 1194 681 1192T623 1190Q619 1131 616 1061T609 915T603 763T598 616T595
484T594 379Q594 323 603 289T628 236T669 208T723 195L762 188L754 -6Q709 -2 656 2Q610 5 550 7T418 10Q349 10 265 8T72 -6L80 188Q106 191 134 194Q158 196 187 198T246 201Q250 259 253 329T259 475T265 628T270 775T273 907T274 1012Q274 1067 265 1101T240
1154T199 1182T145 1196L106 1202L115 1397ZM539 1503L137 1733Q149 1748 168 1775T208 1831T246 1887T275 1929L625 1628L539 1503Z" />
<glyph unicode="&#xcd;" glyph-name="Iacute" horiz-adv-x="858" d="M115 1397Q159 1392 212 1388Q257 1385 318 1383T451 1380Q520 1380 604 1382T797 1397L788 1202Q762 1199 734 1196Q710 1194 681 1192T623 1190Q619 1131 616 1061T609 915T603 763T598 616T595
484T594 379Q594 323 603 289T628 236T669 208T723 195L762 188L754 -6Q709 -2 656 2Q610 5 550 7T418 10Q349 10 265 8T72 -6L80 188Q106 191 134 194Q158 196 187 198T246 201Q250 259 253 329T259 475T265 628T270 775T273 907T274 1012Q274 1067 265 1101T240
1154T199 1182T145 1196L106 1202L115 1397ZM305 1618L631 1935Q642 1919 661 1892T703 1838T746 1786T781 1751L391 1503L305 1618Z" />
<glyph unicode="&#xce;" glyph-name="Icircumflex" horiz-adv-x="858" d="M115 1397Q159 1392 212 1388Q257 1385 318 1383T451 1380Q520 1380 604 1382T797 1397L788 1202Q762 1199 734 1196Q710 1194 681 1192T623 1190Q619 1131 616 1061T609 915T603 763T598
616T595 484T594 379Q594 323 603 289T628 236T669 208T723 195L762 188L754 -6Q709 -2 656 2Q610 5 550 7T418 10Q349 10 265 8T72 -6L80 188Q106 191 134 194Q158 196 187 198T246 201Q250 259 253 329T259 475T265 628T270 775T273 907T274 1012Q274 1067 265
1101T240 1154T199 1182T145 1196L106 1202L115 1397ZM238 1503L137 1606L486 1962L774 1606L670 1503L463 1669L238 1503Z" />
<glyph unicode="&#xcf;" glyph-name="Idieresis" horiz-adv-x="858" d="M115 1397Q159 1392 212 1388Q257 1385 318 1383T451 1380Q520 1380 604 1382T797 1397L788 1202Q762 1199 734 1196Q710 1194 681 1192T623 1190Q619 1131 616 1061T609 915T603 763T598
616T595 484T594 379Q594 323 603 289T628 236T669 208T723 195L762 188L754 -6Q709 -2 656 2Q610 5 550 7T418 10Q349 10 265 8T72 -6L80 188Q106 191 134 194Q158 196 187 198T246 201Q250 259 253 329T259 475T265 628T270 775T273 907T274 1012Q274 1067 265
1101T240 1154T199 1182T145 1196L106 1202L115 1397ZM275 1546Q246 1546 221 1556T176 1585T146 1634T135 1702Q135 1735 145 1764T174 1816T220 1852T281 1866Q309 1866 334 1856T378 1827T407 1779T418 1714Q418 1680 409 1650T381 1596T336 1560T275 1546ZM656
1546Q628 1546 603 1556T559 1585T529 1634T518 1702Q518 1735 528 1764T557 1816T604 1852T666 1866Q694 1866 718 1856T761 1827T790 1779T801 1714Q801 1680 792 1650T763 1596T717 1560T656 1546Z" />
<glyph unicode="&#xd0;" glyph-name="Eth" horiz-adv-x="1620" d="M246 201Q251 281 255 380T264 586Q215 583 167 580T70 571L80 829H272Q274 883 274 930T274 1012Q274 1067 265 1101T240 1154T199 1182T145 1196L106 1202L115 1397Q161 1391 206 1387Q244 1383
288 1381T367 1378Q426 1378 482 1381T597 1389T717 1397T848 1401Q1012 1401 1142 1354T1363 1218T1502 1003T1550 719Q1550 647 1536 565T1488 402T1396 246T1251 114T1044 22T764 -12Q714 -12 664 -9T562 -1T457 6T346 10Q330 10 301 9T234 7T154 2T72 -6L80
188Q97 191 114 193T150 196T193 199T246 201ZM604 829H838L831 604Q803 603 767 603Q736 602 693 602T598 600Q595 508 594 456T591 378T590 346T590 338Q590 304 599 281T631 244T695 223T801 217Q834 217 875 226T959 257T1042 317T1114 411T1165 546T1184 729Q1184
772 1177 823T1153 924T1105 1022T1028 1105T919 1162T770 1184Q727 1184 685 1183T616 1178L604 829Z" />
<glyph unicode="&#xd1;" glyph-name="Ntilde" horiz-adv-x="1649" d="M1188 987Q1186 1050 1175 1088T1146 1149T1101 1181T1040 1196L993 1202L1001 1397Q1048 1392 1096 1388Q1138 1385 1188 1383T1286 1380Q1320 1380 1353 1380T1424 1383T1505 1388T1602 1397L1593
1204Q1573 1201 1550 1198Q1530 1196 1505 1194T1450 1192L1425 557Q1422 464 1420 389T1417 248T1416 123T1415 2L1208 -41L485 848L449 842L467 406Q469 343 479 304T509 243T554 210T614 195L662 188L653 -6Q607 -2 559 2Q517 5 467 7T369 10Q334 10 301 10T230
8T150 3T53 -6L61 188Q81 191 106 194Q126 196 153 198T209 201L231 844Q238 999 241 1116T244 1323V1391L442 1432L1167 543L1204 549L1188 987ZM1079 1767Q1102 1767 1124 1783T1165 1820Q1186 1844 1206 1874L1305 1796Q1285 1758 1259 1714T1199 1633T1126
1571T1042 1546Q1001 1546 960 1563T881 1601T810 1639T754 1657Q731 1657 709 1640T669 1601Q648 1576 629 1546L526 1624Q545 1662 572 1706T633 1789T706 1852T791 1878Q831 1878 872 1861T952 1823T1023 1785T1079 1767Z" />
<glyph unicode="&#xd2;" glyph-name="Ograve" horiz-adv-x="1595" d="M76 688Q76 843 130 979T284 1215T528 1374T848 1432Q1014 1432 1141 1374T1354 1219T1485 993T1530 725Q1530 620 1505 523T1433 340T1320 185T1173 64T998 -13T801 -41Q615 -41 479 17T253
174T120 406T76 688ZM791 1210Q702 1210 636 1167T527 1056T462 903T440 735Q440 623 466 523T540 347T657 227T811 182Q900 182 966 224T1075 335T1140 489T1161 659Q1161 770 1136 870T1062 1045T946 1165T791 1210ZM959 1503L557 1733Q569 1748 588 1775T628
1831T666 1887T695 1929L1045 1628L959 1503Z" />
<glyph unicode="&#xd3;" glyph-name="Oacute" horiz-adv-x="1595" d="M76 688Q76 843 130 979T284 1215T528 1374T848 1432Q1014 1432 1141 1374T1354 1219T1485 993T1530 725Q1530 620 1505 523T1433 340T1320 185T1173 64T998 -13T801 -41Q615 -41 479 17T253
174T120 406T76 688ZM791 1210Q702 1210 636 1167T527 1056T462 903T440 735Q440 623 466 523T540 347T657 227T811 182Q900 182 966 224T1075 335T1140 489T1161 659Q1161 770 1136 870T1062 1045T946 1165T791 1210ZM667 1618L993 1935Q1004 1919 1023 1892T1065
1838T1108 1786T1143 1751L753 1503L667 1618Z" />
<glyph unicode="&#xd4;" glyph-name="Ocircumflex" horiz-adv-x="1595" d="M76 688Q76 843 130 979T284 1215T528 1374T848 1432Q1014 1432 1141 1374T1354 1219T1485 993T1530 725Q1530 620 1505 523T1433 340T1320 185T1173 64T998 -13T801 -41Q615 -41 479
17T253 174T120 406T76 688ZM791 1210Q702 1210 636 1167T527 1056T462 903T440 735Q440 623 466 523T540 347T657 227T811 182Q900 182 966 224T1075 335T1140 489T1161 659Q1161 770 1136 870T1062 1045T946 1165T791 1210ZM623 1503L522 1606L871 1962L1159
1606L1055 1503L848 1669L623 1503Z" />
<glyph unicode="&#xd5;" glyph-name="Otilde" horiz-adv-x="1595" d="M76 688Q76 843 130 979T284 1215T528 1374T848 1432Q1014 1432 1141 1374T1354 1219T1485 993T1530 725Q1530 620 1505 523T1433 340T1320 185T1173 64T998 -13T801 -41Q615 -41 479 17T253
174T120 406T76 688ZM791 1210Q702 1210 636 1167T527 1056T462 903T440 735Q440 623 466 523T540 347T657 227T811 182Q900 182 966 224T1075 335T1140 489T1161 659Q1161 770 1136 870T1062 1045T946 1165T791 1210ZM1024 1767Q1047 1767 1069 1783T1110 1820Q1131
1844 1151 1874L1250 1796Q1230 1758 1204 1714T1144 1633T1071 1571T987 1546Q946 1546 905 1563T826 1601T755 1639T699 1657Q676 1657 654 1640T614 1601Q593 1576 574 1546L471 1624Q490 1662 517 1706T578 1789T651 1852T736 1878Q776 1878 817 1861T897 1823T968
1785T1024 1767Z" />
<glyph unicode="&#xd6;" glyph-name="Odieresis" horiz-adv-x="1595" d="M76 688Q76 843 130 979T284 1215T528 1374T848 1432Q1014 1432 1141 1374T1354 1219T1485 993T1530 725Q1530 620 1505 523T1433 340T1320 185T1173 64T998 -13T801 -41Q615 -41 479 17T253
174T120 406T76 688ZM791 1210Q702 1210 636 1167T527 1056T462 903T440 735Q440 623 466 523T540 347T657 227T811 182Q900 182 966 224T1075 335T1140 489T1161 659Q1161 770 1136 870T1062 1045T946 1165T791 1210ZM645 1546Q616 1546 591 1556T546 1585T516
1634T505 1702Q505 1735 515 1764T544 1816T590 1852T651 1866Q679 1866 704 1856T748 1827T777 1779T788 1714Q788 1680 779 1650T751 1596T706 1560T645 1546ZM1026 1546Q998 1546 973 1556T929 1585T899 1634T888 1702Q888 1735 898 1764T927 1816T974 1852T1036
1866Q1064 1866 1088 1856T1131 1827T1160 1779T1171 1714Q1171 1680 1162 1650T1133 1596T1087 1560T1026 1546Z" />
<glyph unicode="&#xd7;" glyph-name="multiply" horiz-adv-x="1075" d="M98 338L408 647L98 956L231 1090L541 780L848 1090L981 956L672 647L981 338L848 205L541 514L231 205L98 338Z" />
<glyph unicode="&#xd8;" glyph-name="Oslash" horiz-adv-x="1595" d="M186 -104L326 106Q262 156 215 220T137 359T91 517T76 688Q76 843 130 979T284 1215T528 1374T848 1432Q938 1432 1014 1414T1159 1364L1280 1546L1407 1458L1288 1280Q1347 1231 1392 1169T1468
1036T1514 886T1530 725Q1530 620 1505 523T1433 340T1320 185T1173 64T998 -13T801 -41Q699 -41 612 -23T453 27L309 -188L186 -104ZM791 1210Q702 1210 636 1167T527 1056T462 903T440 735Q440 638 458 550T514 391L999 1122Q956 1164 904 1187T791 1210ZM1161
659Q1161 750 1144 834T1094 987L610 262Q652 224 702 203T811 182Q900 182 966 224T1075 335T1140 489T1161 659Z" />
<glyph unicode="&#xd9;" glyph-name="Ugrave" horiz-adv-x="1593" d="M1372 510Q1350 244 1202 103T774 -39Q643 -39 539 -5T361 92T249 246T209 449Q209 472 210 518T213 620T217 738T221 855T224 952T225 1012Q225 1067 216 1101T191 1154T150 1182T96 1196L57
1202L66 1397Q108 1392 159 1388Q203 1385 262 1383T393 1380Q462 1380 546 1382T739 1397L731 1202Q704 1199 677 1196Q653 1194 625 1192T567 1190Q556 891 552 727T547 514Q547 426 569 363T631 260T724 201T838 182Q908 182 962 204T1052 268T1106 369T1126
500Q1128 628 1129 716T1131 862T1132 952T1133 998T1133 1016T1133 1020Q1133 1072 1124 1104T1097 1155T1057 1182T1004 1196L963 1202L971 1397Q1004 1392 1049 1388Q1087 1385 1141 1383T1268 1380Q1302 1380 1338 1380T1415 1382T1502 1387T1602 1397L1593
1202Q1567 1199 1539 1196Q1515 1194 1486 1192T1427 1190L1372 510ZM934 1503L532 1733Q544 1748 563 1775T603 1831T641 1887T670 1929L1020 1628L934 1503Z" />
<glyph unicode="&#xda;" glyph-name="Uacute" horiz-adv-x="1593" d="M1372 510Q1350 244 1202 103T774 -39Q643 -39 539 -5T361 92T249 246T209 449Q209 472 210 518T213 620T217 738T221 855T224 952T225 1012Q225 1067 216 1101T191 1154T150 1182T96 1196L57
1202L66 1397Q108 1392 159 1388Q203 1385 262 1383T393 1380Q462 1380 546 1382T739 1397L731 1202Q704 1199 677 1196Q653 1194 625 1192T567 1190Q556 891 552 727T547 514Q547 426 569 363T631 260T724 201T838 182Q908 182 962 204T1052 268T1106 369T1126
500Q1128 628 1129 716T1131 862T1132 952T1133 998T1133 1016T1133 1020Q1133 1072 1124 1104T1097 1155T1057 1182T1004 1196L963 1202L971 1397Q1004 1392 1049 1388Q1087 1385 1141 1383T1268 1380Q1302 1380 1338 1380T1415 1382T1502 1387T1602 1397L1593
1202Q1567 1199 1539 1196Q1515 1194 1486 1192T1427 1190L1372 510ZM739 1618L1065 1935Q1076 1919 1095 1892T1137 1838T1180 1786T1215 1751L825 1503L739 1618Z" />
<glyph unicode="&#xdb;" glyph-name="Ucircumflex" horiz-adv-x="1593" d="M1372 510Q1350 244 1202 103T774 -39Q643 -39 539 -5T361 92T249 246T209 449Q209 472 210 518T213 620T217 738T221 855T224 952T225 1012Q225 1067 216 1101T191 1154T150 1182T96
1196L57 1202L66 1397Q108 1392 159 1388Q203 1385 262 1383T393 1380Q462 1380 546 1382T739 1397L731 1202Q704 1199 677 1196Q653 1194 625 1192T567 1190Q556 891 552 727T547 514Q547 426 569 363T631 260T724 201T838 182Q908 182 962 204T1052 268T1106
369T1126 500Q1128 628 1129 716T1131 862T1132 952T1133 998T1133 1016T1133 1020Q1133 1072 1124 1104T1097 1155T1057 1182T1004 1196L963 1202L971 1397Q1004 1392 1049 1388Q1087 1385 1141 1383T1268 1380Q1302 1380 1338 1380T1415 1382T1502 1387T1602
1397L1593 1202Q1567 1199 1539 1196Q1515 1194 1486 1192T1427 1190L1372 510ZM645 1503L544 1606L893 1962L1181 1606L1077 1503L870 1669L645 1503Z" />
<glyph unicode="&#xdc;" glyph-name="Udieresis" horiz-adv-x="1593" d="M1372 510Q1350 244 1202 103T774 -39Q643 -39 539 -5T361 92T249 246T209 449Q209 472 210 518T213 620T217 738T221 855T224 952T225 1012Q225 1067 216 1101T191 1154T150 1182T96 1196L57
1202L66 1397Q108 1392 159 1388Q203 1385 262 1383T393 1380Q462 1380 546 1382T739 1397L731 1202Q704 1199 677 1196Q653 1194 625 1192T567 1190Q556 891 552 727T547 514Q547 426 569 363T631 260T724 201T838 182Q908 182 962 204T1052 268T1106 369T1126
500Q1128 628 1129 716T1131 862T1132 952T1133 998T1133 1016T1133 1020Q1133 1072 1124 1104T1097 1155T1057 1182T1004 1196L963 1202L971 1397Q1004 1392 1049 1388Q1087 1385 1141 1383T1268 1380Q1302 1380 1338 1380T1415 1382T1502 1387T1602 1397L1593
1202Q1567 1199 1539 1196Q1515 1194 1486 1192T1427 1190L1372 510ZM688 1546Q659 1546 634 1556T589 1585T559 1634T548 1702Q548 1735 558 1764T587 1816T633 1852T694 1866Q722 1866 747 1856T791 1827T820 1779T831 1714Q831 1680 822 1650T794 1596T749 1560T688
1546ZM1069 1546Q1041 1546 1016 1556T972 1585T942 1634T931 1702Q931 1735 941 1764T970 1816T1017 1852T1079 1866Q1107 1866 1131 1856T1174 1827T1203 1779T1214 1714Q1214 1680 1205 1650T1176 1596T1130 1560T1069 1546Z" />
<glyph unicode="&#xdd;" glyph-name="Yacute" horiz-adv-x="1444" d="M942 991Q971 1039 984 1071T997 1128Q997 1159 978 1173T924 1194L877 1202L885 1397Q951 1389 1021 1385T1176 1380Q1259 1380 1338 1384T1483 1397L1475 1204Q1459 1201 1447 1199T1422
1196T1398 1194T1368 1192L893 510Q892 480 892 462T891 431T891 407T891 379Q891 323 900 289T925 236T966 208T1020 195L1059 188L1051 -6Q1007 -2 954 2Q909 5 849 7T717 10Q648 10 563 8T369 -6L377 188Q403 191 431 194Q455 196 484 198T543 201Q544 222 546
253T550 321T553 396T557 473L190 1075Q169 1109 150 1132T113 1169T78 1189T43 1198L14 1202L23 1397Q89 1391 178 1386T360 1380Q461 1380 546 1385T707 1397L696 1202Q644 1196 606 1194T530 1190L772 766H811L942 991ZM671 1618L997 1935Q1008 1919 1027 1892T1069
1838T1112 1786T1147 1751L757 1503L671 1618Z" />
<glyph unicode="&#xde;" glyph-name="Thorn" horiz-adv-x="1282" d="M594 379Q594 323 603 289T628 236T669 208T723 195L762 188L754 -6Q709 -2 655 2Q609 5 548 7T416 10Q347 10 264 8T72 -6L80 188Q106 191 133 194Q156 196 185 198T244 201Q248 259 251 329T257
475T263 628T268 775T271 907T272 1012Q272 1067 264 1101T239 1154T199 1182T145 1196L106 1202L115 1397Q158 1392 211 1388Q256 1385 316 1383T449 1380Q518 1380 603 1382T797 1397L788 1202Q761 1199 733 1196Q709 1194 680 1192T621 1190L618 1098Q657 1101
697 1102T776 1104Q1016 1104 1129 1009T1243 739Q1243 628 1202 547T1094 414T944 336T778 311Q752 311 723 314T670 324L680 557Q695 554 706 554T729 553Q803 553 841 592T879 717Q879 791 827 825T672 860Q653 860 636 859T608 856Q602 753 599 633T594 379Z"
/>
<glyph unicode="&#xdf;" glyph-name="germandbls" horiz-adv-x="1395" d="M1051 793Q988 793 958 775T928 731Q928 713 945 699T990 671T1056 642T1135 606Q1178 585 1225 557T1311 491T1375 404T1401 291Q1401 227 1375 170T1292 70T1149 1T940 -25Q861 -25 795
-12T681 26T607 89T580 176Q580 242 618 282T725 342Q743 319 770 291T833 239T913 199T1008 182Q1042 182 1066 192T1090 233Q1090 252 1071 269T1023 301T958 331T891 362Q821 397 769 431T682 502T630 582T612 676Q612 731 632 788T697 892T816 969T995 999Q996
1008 997 1019T998 1041T999 1063T999 1081Q999 1214 943 1286T788 1358Q729 1358 680 1333T594 1254T536 1120T512 926Q510 825 508 719T503 513T499 324T495 165T492 53T489 0H158Q164 73 169 144T180 296T191 469T201 680Q145 671 89 663T-16 647L-6 897H205Q213
1078 261 1207T389 1418T572 1538T797 1577Q933 1577 1031 1536T1192 1425T1286 1261T1317 1065Q1317 990 1302 912T1260 756Q1237 766 1210 773T1155 785T1101 791T1051 793Z" />
<glyph unicode="&#xe0;" glyph-name="agrave" horiz-adv-x="1069" d="M1081 84Q1032 34 971 5T838 -25Q753 -25 703 18T635 129Q611 97 581 69T512 20T428 -13T324 -25Q255 -25 205 -5T121 48T72 125T55 213Q55 281 82 331T153 418T255 478T374 515T494 534T604
541Q606 555 606 563T606 582Q606 637 574 665T485 694Q463 694 437 689T385 669T337 630T303 565Q279 565 244 567T176 583T120 623T96 698Q96 737 113 769T159 826T228 870T312 901T402 920T492 926Q584 926 658 910T785 856T866 757T895 606Q895 577 892 530T885
433T878 342T874 281Q874 259 880 245T897 221T919 209T944 205Q961 205 973 208T1001 219L1081 84ZM582 373Q549 373 508 367T430 346T369 309T344 254Q344 226 364 208T422 190Q450 190 479 200T532 233T573 290T598 373H582ZM555 1092L215 1403Q232 1415 257
1437T309 1483T359 1529T396 1565L666 1192L555 1092Z" />
<glyph unicode="&#xe1;" glyph-name="aacute" horiz-adv-x="1069" d="M1081 84Q1032 34 971 5T838 -25Q753 -25 703 18T635 129Q611 97 581 69T512 20T428 -13T324 -25Q255 -25 205 -5T121 48T72 125T55 213Q55 281 82 331T153 418T255 478T374 515T494 534T604
541Q606 555 606 563T606 582Q606 637 574 665T485 694Q463 694 437 689T385 669T337 630T303 565Q279 565 244 567T176 583T120 623T96 698Q96 737 113 769T159 826T228 870T312 901T402 920T492 926Q584 926 658 910T785 856T866 757T895 606Q895 577 892 530T885
433T878 342T874 281Q874 259 880 245T897 221T919 209T944 205Q961 205 973 208T1001 219L1081 84ZM582 373Q549 373 508 367T430 346T369 309T344 254Q344 226 364 208T422 190Q450 190 479 200T532 233T573 290T598 373H582ZM374 1186L626 1565Q640 1551 665
1529T717 1484T771 1442T813 1415L483 1092L374 1186Z" />
<glyph unicode="&#xe2;" glyph-name="acircumflex" horiz-adv-x="1069" d="M1081 84Q1032 34 971 5T838 -25Q753 -25 703 18T635 129Q611 97 581 69T512 20T428 -13T324 -25Q255 -25 205 -5T121 48T72 125T55 213Q55 281 82 331T153 418T255 478T374 515T494 534T604
541Q606 555 606 563T606 582Q606 637 574 665T485 694Q463 694 437 689T385 669T337 630T303 565Q279 565 244 567T176 583T120 623T96 698Q96 737 113 769T159 826T228 870T312 901T402 920T492 926Q584 926 658 910T785 856T866 757T895 606Q895 577 892 530T885
433T878 342T874 281Q874 259 880 245T897 221T919 209T944 205Q961 205 973 208T1001 219L1081 84ZM582 373Q549 373 508 367T430 346T369 309T344 254Q344 226 364 208T422 190Q450 190 479 200T532 233T573 290T598 373H582ZM305 1092L204 1194L544 1565L841
1194L737 1092L530 1274L305 1092Z" />
<glyph unicode="&#xe3;" glyph-name="atilde" horiz-adv-x="1069" d="M1081 84Q1032 34 971 5T838 -25Q753 -25 703 18T635 129Q611 97 581 69T512 20T428 -13T324 -25Q255 -25 205 -5T121 48T72 125T55 213Q55 281 82 331T153 418T255 478T374 515T494 534T604
541Q606 555 606 563T606 582Q606 637 574 665T485 694Q463 694 437 689T385 669T337 630T303 565Q279 565 244 567T176 583T120 623T96 698Q96 737 113 769T159 826T228 870T312 901T402 920T492 926Q584 926 658 910T785 856T866 757T895 606Q895 577 892 530T885
433T878 342T874 281Q874 259 880 245T897 221T919 209T944 205Q961 205 973 208T1001 219L1081 84ZM582 373Q549 373 508 367T430 346T369 309T344 254Q344 226 364 208T422 190Q450 190 479 200T532 233T573 290T598 373H582ZM694 1313Q717 1313 739 1329T780
1366Q801 1389 821 1419L920 1341Q900 1303 874 1259T814 1178T741 1117T657 1092Q616 1092 575 1109T496 1147T425 1185T369 1202Q346 1202 324 1185T284 1147Q263 1122 244 1092L141 1169Q160 1208 187 1252T248 1335T321 1398T406 1423Q446 1423 487 1406T567
1368T638 1330T694 1313Z" />
<glyph unicode="&#xe4;" glyph-name="adieresis" horiz-adv-x="1069" d="M1081 84Q1032 34 971 5T838 -25Q753 -25 703 18T635 129Q611 97 581 69T512 20T428 -13T324 -25Q255 -25 205 -5T121 48T72 125T55 213Q55 281 82 331T153 418T255 478T374 515T494 534T604
541Q606 555 606 563T606 582Q606 637 574 665T485 694Q463 694 437 689T385 669T337 630T303 565Q279 565 244 567T176 583T120 623T96 698Q96 737 113 769T159 826T228 870T312 901T402 920T492 926Q584 926 658 910T785 856T866 757T895 606Q895 577 892 530T885
433T878 342T874 281Q874 259 880 245T897 221T919 209T944 205Q961 205 973 208T1001 219L1081 84ZM582 373Q549 373 508 367T430 346T369 309T344 254Q344 226 364 208T422 190Q450 190 479 200T532 233T573 290T598 373H582ZM332 1102Q303 1102 278 1112T233
1141T203 1190T192 1257Q192 1290 202 1320T231 1372T277 1408T338 1421Q366 1421 391 1411T435 1382T464 1335T475 1270Q475 1236 466 1206T438 1152T393 1116T332 1102ZM713 1102Q685 1102 660 1112T616 1141T586 1190T575 1257Q575 1290 585 1320T614 1372T661
1408T723 1421Q751 1421 775 1411T818 1382T847 1335T858 1270Q858 1236 849 1206T820 1152T774 1116T713 1102Z" />
<glyph unicode="&#xe5;" glyph-name="aring" horiz-adv-x="1069" d="M1081 84Q1032 34 971 5T838 -25Q753 -25 703 18T635 129Q611 97 581 69T512 20T428 -13T324 -25Q255 -25 205 -5T121 48T72 125T55 213Q55 281 82 331T153 418T255 478T374 515T494 534T604
541Q606 555 606 563T606 582Q606 637 574 665T485 694Q463 694 437 689T385 669T337 630T303 565Q279 565 244 567T176 583T120 623T96 698Q96 737 113 769T159 826T228 870T312 901T402 920T492 926Q584 926 658 910T785 856T866 757T895 606Q895 577 892 530T885
433T878 342T874 281Q874 259 880 245T897 221T919 209T944 205Q961 205 973 208T1001 219L1081 84ZM582 373Q549 373 508 367T430 346T369 309T344 254Q344 226 364 208T422 190Q450 190 479 200T532 233T573 290T598 373H582ZM526 1440Q477 1440 452 1407T426
1327Q426 1308 432 1289T450 1253T482 1227T528 1217Q575 1217 600 1245T626 1327Q626 1345 621 1365T603 1401T572 1429T526 1440ZM270 1311Q270 1361 290 1407T346 1488T435 1544T551 1565Q611 1565 654 1548T726 1502T768 1435T782 1356Q782 1300 760 1252T700
1168T612 1112T504 1092Q439 1092 395 1111T323 1160T283 1230T270 1311Z" />
<glyph unicode="&#xe6;" glyph-name="ae" horiz-adv-x="1516" d="M860 373Q868 336 887 305T936 251T1010 216T1108 203Q1133 203 1162 205T1223 212T1284 224T1343 244L1407 119Q1325 50 1223 13T995 -25Q916 -25 857 -7T756 38T687 94T645 145Q591 65 514 20T324
-25Q255 -25 205 -5T121 48T72 125T55 213Q55 281 82 331T153 418T255 478T374 515T494 534T604 541Q606 555 606 563T606 582Q606 637 574 665T485 694Q463 694 437 689T385 669T337 630T303 565Q279 565 244 567T176 583T120 623T96 698Q96 737 113 769T159 826T228
870T312 901T402 920T492 926Q586 926 658 908T780 850Q831 887 900 906T1051 926Q1149 926 1221 896T1340 815T1411 696T1434 553Q1434 525 1431 496T1425 441Q1421 412 1417 385Q1357 376 1282 373T1114 369Q1083 369 1049 369T982 370T917 371T860 373ZM1036
707Q1011 707 986 697T939 666T900 614T874 539Q913 540 959 544T1044 552T1112 559T1145 565V580Q1145 635 1118 671T1036 707ZM582 373Q549 373 508 367T430 346T369 309T344 254Q344 226 364 208T422 190Q450 190 479 200T532 233T573 290T598 373H582Z" />
<glyph unicode="&#xe7;" glyph-name="ccedilla" horiz-adv-x="948" d="M897 119Q825 57 731 21T528 -23L520 -72Q550 -79 577 -91T624 -123T656 -170T668 -233Q668 -281 648 -323T591 -395T505 -443T399 -461Q334 -461 301 -431T268 -356Q268 -330 279 -305T322
-254Q346 -276 384 -295T463 -315Q489 -315 503 -303T518 -268Q518 -249 506 -235T473 -212T422 -198T358 -193Q369 -148 378 -104T395 -18Q312 -8 246 26T134 115T64 243T39 406Q39 513 75 608T179 773T343 885T557 926Q631 926 694 908T805 857T878 782T905 690Q905
593 832 545T616 496Q614 537 609 575T591 642T557 689T504 707Q468 707 439 689T390 637T359 556T348 449Q348 385 366 339T417 262T496 218T600 203Q651 203 715 214T836 248L897 119Z" />
<glyph unicode="&#xe8;" glyph-name="egrave" horiz-adv-x="1010" d="M340 373Q347 336 366 305T416 251T489 216T588 203Q639 203 702 212T823 244L887 119Q805 50 703 13T475 -25Q371 -25 290 6T153 95T68 231T39 406Q39 510 71 604T164 770T315 884T520 926Q618
926 694 899T822 822T901 704T928 553Q928 525 925 496T919 441Q915 412 911 385Q851 376 769 373T594 369Q563 369 529 369T462 370T397 371T340 373ZM512 707Q486 707 461 697T414 666T376 614T350 539Q389 540 434 544T520 552T588 559T621 565V580Q621 635
594 671T512 707ZM563 1092L223 1403Q240 1415 265 1437T317 1483T367 1529T404 1565L674 1192L563 1092Z" />
<glyph unicode="&#xe9;" glyph-name="eacute" horiz-adv-x="1010" d="M340 373Q347 336 366 305T416 251T489 216T588 203Q639 203 702 212T823 244L887 119Q805 50 703 13T475 -25Q371 -25 290 6T153 95T68 231T39 406Q39 510 71 604T164 770T315 884T520 926Q618
926 694 899T822 822T901 704T928 553Q928 525 925 496T919 441Q915 412 911 385Q851 376 769 373T594 369Q563 369 529 369T462 370T397 371T340 373ZM512 707Q486 707 461 697T414 666T376 614T350 539Q389 540 434 544T520 552T588 559T621 565V580Q621 635
594 671T512 707ZM391 1186L643 1565Q657 1551 682 1529T734 1484T788 1442T830 1415L500 1092L391 1186Z" />
<glyph unicode="&#xea;" glyph-name="ecircumflex" horiz-adv-x="1010" d="M340 373Q347 336 366 305T416 251T489 216T588 203Q639 203 702 212T823 244L887 119Q805 50 703 13T475 -25Q371 -25 290 6T153 95T68 231T39 406Q39 510 71 604T164 770T315 884T520
926Q618 926 694 899T822 822T901 704T928 553Q928 525 925 496T919 441Q915 412 911 385Q851 376 769 373T594 369Q563 369 529 369T462 370T397 371T340 373ZM512 707Q486 707 461 697T414 666T376 614T350 539Q389 540 434 544T520 552T588 559T621 565V580Q621
635 594 671T512 707ZM309 1092L208 1194L548 1565L845 1194L741 1092L534 1274L309 1092Z" />
<glyph unicode="&#xeb;" glyph-name="edieresis" horiz-adv-x="1010" d="M340 373Q347 336 366 305T416 251T489 216T588 203Q639 203 702 212T823 244L887 119Q805 50 703 13T475 -25Q371 -25 290 6T153 95T68 231T39 406Q39 510 71 604T164 770T315 884T520
926Q618 926 694 899T822 822T901 704T928 553Q928 525 925 496T919 441Q915 412 911 385Q851 376 769 373T594 369Q563 369 529 369T462 370T397 371T340 373ZM512 707Q486 707 461 697T414 666T376 614T350 539Q389 540 434 544T520 552T588 559T621 565V580Q621
635 594 671T512 707ZM334 1102Q305 1102 280 1112T235 1141T205 1190T194 1257Q194 1290 204 1320T233 1372T279 1408T340 1421Q368 1421 393 1411T437 1382T466 1335T477 1270Q477 1236 468 1206T440 1152T395 1116T334 1102ZM715 1102Q687 1102 662 1112T618
1141T588 1190T577 1257Q577 1290 587 1320T616 1372T663 1408T725 1421Q753 1421 777 1411T820 1382T849 1335T860 1270Q860 1236 851 1206T822 1152T776 1116T715 1102Z" />
<glyph unicode="&#xec;" glyph-name="igrave" horiz-adv-x="616" d="M584 0H561Q429 0 321 -8T111 -41Q121 29 131 96T150 230T163 362T168 496Q168 595 135 641T27 694L33 856Q169 861 287 880T508 926Q486 783 469 636T451 352Q451 252 489 207T590 162L584
0ZM281 1092L-59 1403Q-42 1415 -17 1437T35 1483T85 1529T122 1565L392 1192L281 1092Z" />
<glyph unicode="&#xed;" glyph-name="iacute" horiz-adv-x="616" d="M584 0H561Q429 0 321 -8T111 -41Q121 29 131 96T150 230T163 362T168 496Q168 595 135 641T27 694L33 856Q169 861 287 880T508 926Q486 783 469 636T451 352Q451 252 489 207T590 162L584
0ZM200 1186L452 1565Q466 1551 491 1529T543 1484T597 1442T639 1415L309 1092L200 1186Z" />
<glyph unicode="&#xee;" glyph-name="icircumflex" horiz-adv-x="616" d="M584 0H561Q429 0 321 -8T111 -41Q121 29 131 96T150 230T163 362T168 496Q168 595 135 641T27 694L33 856Q169 861 287 880T508 926Q486 783 469 636T451 352Q451 252 489 207T590 162L584
0ZM376 1092L275 1194L615 1565L912 1194L808 1092L601 1274L376 1092Z" />
<glyph unicode="&#xef;" glyph-name="idieresis" horiz-adv-x="616" d="M584 0H561Q429 0 321 -8T111 -41Q121 29 131 96T150 230T163 362T168 496Q168 595 135 641T27 694L33 856Q169 861 287 880T508 926Q486 783 469 636T451 352Q451 252 489 207T590 162L584
0ZM407 1102Q378 1102 353 1112T308 1141T278 1190T267 1257Q267 1290 277 1320T306 1372T352 1408T413 1421Q441 1421 466 1411T510 1382T539 1335T550 1270Q550 1236 541 1206T513 1152T468 1116T407 1102ZM788 1102Q760 1102 735 1112T691 1141T661 1190T650
1257Q650 1290 660 1320T689 1372T736 1408T798 1421Q826 1421 850 1411T893 1382T922 1335T933 1270Q933 1236 924 1206T895 1152T849 1116T788 1102Z" />
<glyph unicode="&#xf0;" glyph-name="eth" horiz-adv-x="1073" d="M860 1235Q928 1123 962 990T997 709Q997 548 964 413T864 181T700 29T471 -25Q370 -25 292 7T159 96T76 228T47 387Q47 514 89 614T201 784T364 889T557 926Q579 926 607 924T664 918Q653 970
638 1021T600 1120Q520 1083 449 1047T322 975L330 1186Q347 1194 369 1204T414 1225T462 1246T508 1266Q463 1317 407 1353T279 1409L285 1577Q428 1577 550 1520T766 1360Q819 1378 869 1392T965 1419L1014 1292L860 1235ZM516 207Q567 207 599 241T650 337T676
483T686 666Q654 680 614 686T539 692Q499 692 466 675T408 627T370 552T356 455Q356 385 369 338T404 261T455 220T516 207Z" />
<glyph unicode="&#xf1;" glyph-name="ntilde" horiz-adv-x="1176" d="M406 727Q440 766 479 802T564 865T662 909T774 926Q902 926 968 844T1034 604Q1034 571 1031 531T1025 452T1019 383T1016 338Q1016 301 1024 269T1049 213T1093 176T1155 162L1149 0H1128Q1056
0 998 -2T887 -8T785 -21T680 -41Q693 31 703 110T721 265T733 403T737 508Q737 551 730 580T708 626T673 651T623 659Q578 659 535 644T461 610Q459 588 457 551T453 465T450 361T449 244T451 121T457 0Q399 0 351 -3T260 -12T181 -25T109 -41Q122 31 131 109T148
259T158 393T162 496Q162 541 155 576T132 637T88 676T20 694L27 856Q147 861 251 881T444 926L406 727ZM772 1313Q795 1313 817 1329T858 1366Q879 1389 899 1419L998 1341Q978 1303 952 1259T892 1178T819 1117T735 1092Q694 1092 653 1109T574 1147T503 1185T447
1202Q424 1202 402 1185T362 1147Q341 1122 322 1092L219 1169Q238 1208 265 1252T326 1335T399 1398T484 1423Q524 1423 565 1406T645 1368T716 1330T772 1313Z" />
<glyph unicode="&#xf2;" glyph-name="ograve" horiz-adv-x="1051" d="M39 414Q39 513 75 605T179 769T343 883T557 926Q674 926 758 894T897 804T978 670T1004 504Q1004 393 963 296T851 128T689 16T494 -25Q367 -25 280 10T140 106T63 246T39 414ZM348 449Q348
391 361 345T398 265T452 215T518 197Q555 197 587 214T643 265T680 344T694 449Q694 509 681 556T644 637T588 689T518 707Q483 707 452 689T398 638T362 557T348 449ZM548 1092L208 1403Q225 1415 250 1437T302 1483T352 1529T389 1565L659 1192L548 1092Z" />
<glyph unicode="&#xf3;" glyph-name="oacute" horiz-adv-x="1051" d="M39 414Q39 513 75 605T179 769T343 883T557 926Q674 926 758 894T897 804T978 670T1004 504Q1004 393 963 296T851 128T689 16T494 -25Q367 -25 280 10T140 106T63 246T39 414ZM348 449Q348
391 361 345T398 265T452 215T518 197Q555 197 587 214T643 265T680 344T694 449Q694 509 681 556T644 637T588 689T518 707Q483 707 452 689T398 638T362 557T348 449ZM397 1186L649 1565Q663 1551 688 1529T740 1484T794 1442T836 1415L506 1092L397 1186Z" />
<glyph unicode="&#xf4;" glyph-name="ocircumflex" horiz-adv-x="1051" d="M39 414Q39 513 75 605T179 769T343 883T557 926Q674 926 758 894T897 804T978 670T1004 504Q1004 393 963 296T851 128T689 16T494 -25Q367 -25 280 10T140 106T63 246T39 414ZM348 449Q348
391 361 345T398 265T452 215T518 197Q555 197 587 214T643 265T680 344T694 449Q694 509 681 556T644 637T588 689T518 707Q483 707 452 689T398 638T362 557T348 449ZM344 1092L243 1194L583 1565L880 1194L776 1092L569 1274L344 1092Z" />
<glyph unicode="&#xf5;" glyph-name="otilde" horiz-adv-x="1051" d="M39 414Q39 513 75 605T179 769T343 883T557 926Q674 926 758 894T897 804T978 670T1004 504Q1004 393 963 296T851 128T689 16T494 -25Q367 -25 280 10T140 106T63 246T39 414ZM348 449Q348
391 361 345T398 265T452 215T518 197Q555 197 587 214T643 265T680 344T694 449Q694 509 681 556T644 637T588 689T518 707Q483 707 452 689T398 638T362 557T348 449ZM714 1313Q737 1313 759 1329T800 1366Q821 1389 841 1419L940 1341Q920 1303 894 1259T834
1178T761 1117T677 1092Q636 1092 595 1109T516 1147T445 1185T389 1202Q366 1202 344 1185T304 1147Q283 1122 264 1092L161 1169Q180 1208 207 1252T268 1335T341 1398T426 1423Q466 1423 507 1406T587 1368T658 1330T714 1313Z" />
<glyph unicode="&#xf6;" glyph-name="odieresis" horiz-adv-x="1051" d="M39 414Q39 513 75 605T179 769T343 883T557 926Q674 926 758 894T897 804T978 670T1004 504Q1004 393 963 296T851 128T689 16T494 -25Q367 -25 280 10T140 106T63 246T39 414ZM348 449Q348
391 361 345T398 265T452 215T518 197Q555 197 587 214T643 265T680 344T694 449Q694 509 681 556T644 637T588 689T518 707Q483 707 452 689T398 638T362 557T348 449ZM355 1102Q326 1102 301 1112T256 1141T226 1190T215 1257Q215 1290 225 1320T254 1372T300
1408T361 1421Q389 1421 414 1411T458 1382T487 1335T498 1270Q498 1236 489 1206T461 1152T416 1116T355 1102ZM736 1102Q708 1102 683 1112T639 1141T609 1190T598 1257Q598 1290 608 1320T637 1372T684 1408T746 1421Q774 1421 798 1411T841 1382T870 1335T881
1270Q881 1236 872 1206T843 1152T797 1116T736 1102Z" />
<glyph unicode="&#xf7;" glyph-name="divide" horiz-adv-x="1104" d="M1024 549H82V737H1024V549ZM377 279Q377 319 389 347T423 394T471 421T526 430Q554 430 581 422T630 395T665 348T678 279Q678 243 667 213T635 162T586 129T526 117Q494 117 467 128T420
161T389 213T377 279ZM399 1004Q399 1044 411 1072T445 1119T493 1146T549 1155Q577 1155 604 1147T653 1120T687 1073T700 1004Q700 968 689 938T657 887T609 854T549 842Q517 842 490 853T443 886T411 938T399 1004Z" />
<glyph unicode="&#xf8;" glyph-name="oslash" horiz-adv-x="1157" d="M92 414Q92 513 128 605T232 769T396 883T610 926Q700 926 769 907T891 852L1028 987L1116 899L981 766Q1019 712 1038 646T1057 504Q1057 393 1016 296T904 128T742 16T547 -25Q451 -25 379
-5T254 51L88 -111L0 -23L166 141Q128 198 110 267T92 414ZM748 449Q748 491 739 530L459 254Q480 226 509 212T571 197Q609 197 641 214T697 265T734 344T748 449ZM401 449Q401 429 401 412T406 377L686 651Q663 677 634 692T571 707Q536 707 505 689T451 638T415
557T401 449Z" />
<glyph unicode="&#xf9;" glyph-name="ugrave" horiz-adv-x="1184" d="M1004 356Q1004 262 1043 215T1157 162L1151 0H1137Q1079 0 1032 -2T942 -10T858 -22T772 -41L811 168Q784 133 741 99T644 37T530 -8T410 -25Q350 -25 299 -6T211 51T152 147T131 283Q131
349 138 412T145 530Q145 561 137 588T114 637T74 673T18 690L25 852Q92 854 153 861T271 878T379 900T483 926Q472 861 463 785T445 632T433 486T428 365Q428 330 438 307T465 269T506 248T559 242Q601 242 640 257T707 289Q708 310 709 345T712 424T714 520T715
623Q715 685 715 750T709 881Q814 881 904 895T1057 926Q1041 838 1031 751T1014 587T1006 450T1004 356ZM577 1092L237 1403Q254 1415 279 1437T331 1483T381 1529T418 1565L688 1192L577 1092Z" />
<glyph unicode="&#xfa;" glyph-name="uacute" horiz-adv-x="1184" d="M1004 356Q1004 262 1043 215T1157 162L1151 0H1137Q1079 0 1032 -2T942 -10T858 -22T772 -41L811 168Q784 133 741 99T644 37T530 -8T410 -25Q350 -25 299 -6T211 51T152 147T131 283Q131
349 138 412T145 530Q145 561 137 588T114 637T74 673T18 690L25 852Q92 854 153 861T271 878T379 900T483 926Q472 861 463 785T445 632T433 486T428 365Q428 330 438 307T465 269T506 248T559 242Q601 242 640 257T707 289Q708 310 709 345T712 424T714 520T715
623Q715 685 715 750T709 881Q814 881 904 895T1057 926Q1041 838 1031 751T1014 587T1006 450T1004 356ZM446 1186L698 1565Q712 1551 737 1529T789 1484T843 1442T885 1415L555 1092L446 1186Z" />
<glyph unicode="&#xfb;" glyph-name="ucircumflex" horiz-adv-x="1184" d="M1004 356Q1004 262 1043 215T1157 162L1151 0H1137Q1079 0 1032 -2T942 -10T858 -22T772 -41L811 168Q784 133 741 99T644 37T530 -8T410 -25Q350 -25 299 -6T211 51T152 147T131 283Q131
349 138 412T145 530Q145 561 137 588T114 637T74 673T18 690L25 852Q92 854 153 861T271 878T379 900T483 926Q472 861 463 785T445 632T433 486T428 365Q428 330 438 307T465 269T506 248T559 242Q601 242 640 257T707 289Q708 310 709 345T712 424T714 520T715
623Q715 685 715 750T709 881Q814 881 904 895T1057 926Q1041 838 1031 751T1014 587T1006 450T1004 356ZM387 1092L286 1194L626 1565L923 1194L819 1092L612 1274L387 1092Z" />
<glyph unicode="&#xfc;" glyph-name="udieresis" horiz-adv-x="1184" d="M1004 356Q1004 262 1043 215T1157 162L1151 0H1137Q1079 0 1032 -2T942 -10T858 -22T772 -41L811 168Q784 133 741 99T644 37T530 -8T410 -25Q350 -25 299 -6T211 51T152 147T131 283Q131
349 138 412T145 530Q145 561 137 588T114 637T74 673T18 690L25 852Q92 854 153 861T271 878T379 900T483 926Q472 861 463 785T445 632T433 486T428 365Q428 330 438 307T465 269T506 248T559 242Q601 242 640 257T707 289Q708 310 709 345T712 424T714 520T715
623Q715 685 715 750T709 881Q814 881 904 895T1057 926Q1041 838 1031 751T1014 587T1006 450T1004 356ZM408 1102Q379 1102 354 1112T309 1141T279 1190T268 1257Q268 1290 278 1320T307 1372T353 1408T414 1421Q442 1421 467 1411T511 1382T540 1335T551 1270Q551
1236 542 1206T514 1152T469 1116T408 1102ZM789 1102Q761 1102 736 1112T692 1141T662 1190T651 1257Q651 1290 661 1320T690 1372T737 1408T799 1421Q827 1421 851 1411T894 1382T923 1335T934 1270Q934 1236 925 1206T896 1152T850 1116T789 1102Z" />
<glyph unicode="&#xfd;" glyph-name="yacute" horiz-adv-x="1044" d="M365 901Q377 847 394 783T430 649T469 511T508 380T544 266T573 180Q587 213 603 256T632 348T655 446T664 541Q664 630 646 709T590 848Q639 886 684 906T788 926Q830 926 865 915T925 879T965
816T979 725Q979 642 949 538T861 313T719 54T528 -231Q483 -294 432 -352T326 -455T214 -526T98 -553Q54 -553 20 -541T-36 -506T-70 -453T-82 -385Q-82 -360 -75 -335T-57 -288T-30 -246T4 -215Q39 -241 72 -252T145 -264Q185 -264 219 -251T282 -216T333 -168T371
-115Q292 134 196 393T2 901H365ZM391 1186L643 1565Q657 1551 682 1529T734 1484T788 1442T830 1415L500 1092L391 1186Z" />
<glyph unicode="&#xfe;" glyph-name="thorn" horiz-adv-x="1069" d="M582 659Q538 659 494 645T416 610Q410 547 406 475T399 341Q395 268 393 197Q424 189 453 186T512 182Q553 182 589 205T652 268T695 364T711 483Q711 567 677 613T582 659ZM360 733Q406 788
451 825T540 885T627 916T713 926Q792 926 850 897T945 817T1001 700T1020 559Q1020 413 975 304T854 121T684 12T489 -25Q480 -25 467 -25T439 -24T411 -22T387 -20Q386 -65 386 -121T396 -227T436 -311T524 -346L518 -508H496Q363 -508 255 -518T45 -553Q72 -306
90 -82T121 354T138 767T143 1174Q143 1208 141 1231T127 1280T88 1321T12 1339L18 1507Q73 1509 135 1515T258 1531T374 1553T471 1577L360 733Z" />
<glyph unicode="&#xff;" glyph-name="ydieresis" horiz-adv-x="1044" d="M365 901Q377 847 394 783T430 649T469 511T508 380T544 266T573 180Q587 213 603 256T632 348T655 446T664 541Q664 630 646 709T590 848Q639 886 684 906T788 926Q830 926 865 915T925
879T965 816T979 725Q979 642 949 538T861 313T719 54T528 -231Q483 -294 432 -352T326 -455T214 -526T98 -553Q54 -553 20 -541T-36 -506T-70 -453T-82 -385Q-82 -360 -75 -335T-57 -288T-30 -246T4 -215Q39 -241 72 -252T145 -264Q185 -264 219 -251T282 -216T333
-168T371 -115Q292 134 196 393T2 901H365ZM332 1102Q303 1102 278 1112T233 1141T203 1190T192 1257Q192 1290 202 1320T231 1372T277 1408T338 1421Q366 1421 391 1411T435 1382T464 1335T475 1270Q475 1236 466 1206T438 1152T393 1116T332 1102ZM713 1102Q685
1102 660 1112T616 1141T586 1190T575 1257Q575 1290 585 1320T614 1372T661 1408T723 1421Q751 1421 775 1411T818 1382T847 1335T858 1270Q858 1236 849 1206T820 1152T774 1116T713 1102Z" />
<glyph unicode="&#x2013;" glyph-name="endash" horiz-adv-x="1137" d="M1018 410H104L113 598H1024L1018 410Z" />
<glyph unicode="&#x2014;" glyph-name="emdash" horiz-adv-x="1481" d="M1362 410H104L113 598H1368L1362 410Z" />
<glyph unicode="&#x2018;" glyph-name="quoteleft" horiz-adv-x="537" d="M479 1454Q433 1414 406 1360T379 1254Q379 1215 401 1178T475 1112Q475 1078 464 1046T430 988T374 947T297 932Q260 932 227 945T169 985T128 1053T113 1149Q113 1191 124 1243T165 1352T245
1467T373 1577L479 1454Z" />
<glyph unicode="&#x2019;" glyph-name="quoteright" horiz-adv-x="516" d="M103 1055Q149 1095 176 1149T203 1255Q203 1294 181 1331T107 1397Q107 1431 118 1463T152 1521T208 1562T285 1577Q322 1577 355 1564T413 1524T454 1456T469 1360Q469 1318 458 1266T417
1157T337 1042T209 932L103 1055Z" />
<glyph unicode="&#x201a;" glyph-name="quotesinglbase" horiz-adv-x="549" d="M70 -184Q116 -144 143 -90T170 16Q170 55 148 92T74 158Q74 192 85 224T119 282T175 323T252 338Q289 338 322 325T380 285T421 217T436 121Q436 79 425 27T384 -82T304 -197T176
-307L70 -184Z" />
<glyph unicode="&#x201c;" glyph-name="quotedblleft" horiz-adv-x="938" d="M479 1454Q433 1414 406 1359T379 1253Q379 1215 401 1178T475 1112Q475 1077 464 1045T430 988T374 947T297 932Q260 932 227 945T169 985T128 1052T113 1149Q113 1191 124 1243T165
1352T245 1467T373 1577L479 1454ZM881 1454Q858 1434 839 1410T807 1359T787 1306T780 1253Q780 1215 803 1178T877 1112Q877 1077 865 1045T831 988T775 947T698 932Q661 932 628 945T570 985T529 1052T514 1149Q514 1191 525 1243T566 1352T646 1467T774 1577L881
1454Z" />
<glyph unicode="&#x201d;" glyph-name="quotedblright" horiz-adv-x="918" d="M504 1055Q550 1095 577 1149T604 1255Q604 1294 582 1331T508 1397Q508 1431 519 1463T553 1521T609 1562T686 1577Q723 1577 756 1564T814 1524T855 1456T870 1360Q870 1318 859
1266T818 1157T738 1042T610 932L504 1055ZM102 1055Q149 1095 176 1149T203 1255Q203 1294 180 1331T106 1397Q106 1431 118 1463T152 1521T208 1562T285 1577Q322 1577 355 1564T413 1524T454 1456T469 1360Q469 1318 458 1266T417 1157T337 1042T209 932L102
1055Z" />
<glyph unicode="&#x201e;" glyph-name="quotedblbase" horiz-adv-x="950" d="M471 -184Q517 -144 544 -90T571 16Q571 55 549 92T475 158Q475 192 487 224T521 282T577 323T653 338Q690 338 723 325T782 285T823 217T838 121Q838 79 827 27T786 -82T706 -197T578
-307L471 -184ZM70 -184Q116 -144 143 -90T170 16Q170 55 148 92T74 158Q74 192 85 224T119 282T175 323T252 338Q289 338 322 325T380 285T421 217T436 121Q436 79 425 27T384 -82T304 -197T176 -307L70 -184Z" />
<glyph unicode="&#x2022;" glyph-name="bullet" horiz-adv-x="713" d="M143 705Q143 762 161 804T210 873T279 913T358 926Q399 926 438 913T509 873T559 804T578 705Q578 653 561 611T515 538T445 490T358 473Q313 473 274 490T206 537T160 610T143 705Z" />
<glyph unicode="&#x2039;" glyph-name="guilsinglleft" horiz-adv-x="733" d="M639 145L551 59L41 524L580 989L668 903L365 524L639 145Z" />
<glyph unicode="&#x203a;" glyph-name="guilsinglright" horiz-adv-x="731" d="M90 903L178 989L688 524L150 59L61 145L365 524L90 903Z" />
</font>
</defs>
</svg>
