<?xml version="1.0" standalone="no"?>
<!DOCTYPE svg PUBLIC "-//W3C//DTD SVG 1.1//EN" "http://www.w3.org/Graphics/SVG/1.1/DTD/svg11.dtd">
<svg xmlns="http://www.w3.org/2000/svg">
<defs >
<font id="Meddon" horiz-adv-x="1218" ><font-face
    font-family="Meddon"
    units-per-em="2048"
    panose-1="2 0 0 0 0 0 0 0 0 0"
    ascent="2860"
    descent="-1457"
    alphabetic="0" />
<glyph unicode=" " glyph-name="space" horiz-adv-x="600" />
<glyph unicode="!" glyph-name="exclam" horiz-adv-x="729" d="M498 1402Q529 1512 566 1558T648 1605Q670 1605 682 1598T700 1574T707 1534T708 1475Q708 1454 691 1395T645 1255T578 1077T498 883Q473 826 444 761T385 630T326 498T272 376Q267 364 259 358T244
352Q228 352 228 371Q228 374 228 376T230 383L338 799Q360 883 383 970T427 1137T466 1286T498 1402ZM77 -35Q42 -35 26 -10T10 48Q10 75 19 103T44 155T84 193T137 208Q167 208 188 200T222 179T240 149T246 114Q246 83 231 56T191 9T136 -23T77 -35Z" />
<glyph unicode="&quot;" glyph-name="quotedbl" horiz-adv-x="899" d="M207 1494Q194 1477 174 1466T142 1455Q129 1455 121 1465T113 1496Q113 1523 122 1568T146 1665T181 1770T224 1867T269 1937T313 1964Q344 1964 365 1957T398 1939T416 1913T421 1883Q421
1861 414 1840T400 1805Q373 1752 352 1713T310 1640T264 1571T207 1494ZM592 1509Q567 1478 549 1466T518 1454Q501 1454 493 1470T484 1508Q484 1513 484 1517T485 1527Q490 1555 498 1598T519 1689T546 1787T581 1875T622 1939T672 1964Q712 1964 738 1957T780
1938T802 1911T809 1880Q809 1854 787 1807T732 1706T661 1599T592 1509Z" />
<glyph unicode="#" glyph-name="numbersign" horiz-adv-x="1900" d="M494 1247Q483 1252 483 1261Q483 1270 490 1280T498 1302Q527 1309 580 1312T699 1318L816 1615Q832 1654 858 1717T917 1853T983 1999T1048 2131T1103 2228T1142 2265Q1150 2265 1156 2259T1162
2238Q1161 2231 1161 2223T1157 2202Q1148 2166 1141 2147T1129 2118T1119 2102T1110 2086Q1099 2063 1080 2019T1039 1920T994 1808T951 1701T919 1619T904 1578Q892 1552 865 1485T798 1320H841Q946 1320 1018 1320T1139 1318T1221 1315T1280 1313T1333 1310T1395
1307Q1427 1392 1457 1469T1516 1615Q1532 1654 1558 1717T1616 1853T1682 1999T1747 2131T1803 2228T1842 2265Q1850 2265 1856 2259T1862 2238Q1861 2231 1861 2223T1857 2202Q1848 2166 1841 2147T1829 2118T1819 2102T1810 2086Q1799 2063 1780 2019T1739 1920T1694
1808T1651 1701T1619 1619T1604 1578Q1591 1551 1562 1479T1491 1301Q1534 1298 1565 1295T1618 1290L1660 1286Q1683 1285 1702 1275T1721 1253Q1721 1236 1654 1231T1459 1223L1252 696Q1329 692 1379 690T1457 683T1497 672T1508 652Q1508 644 1488 639T1431
630T1341 624T1222 621Q1168 484 1114 348T1009 87T913 -146T834 -333T777 -457T748 -502Q743 -502 743 -488Q744 -479 745 -466T750 -436L759 -398Q828 -206 920 43T1134 620Q1086 619 1037 619T940 619Q885 619 834 619T738 619T659 620T602 622H522Q468 485
414 348T309 87T213 -145T134 -332T77 -457T48 -502Q43 -502 43 -488Q44 -479 45 -466T50 -436L59 -398Q94 -301 134 -191T221 46T321 315T435 622Q401 623 371 625T317 630T279 640T265 655Q265 663 272 673T280 694Q308 700 357 703T467 709L664 1228Q638 1228
612 1229T562 1232T521 1238T494 1247ZM761 1227Q716 1115 665 985T557 710H640Q739 710 807 710T922 710T1000 708T1056 706T1105 704T1164 700L1362 1222Q1336 1222 1310 1222T1257 1221Q1188 1221 1121 1221T996 1223T892 1225T819 1227H761Z" />
<glyph unicode="$" glyph-name="dollar" horiz-adv-x="1710" d="M1481 1844Q1476 1828 1472 1820T1464 1807T1457 1798T1451 1787Q1444 1773 1435 1753T1415 1707Q1476 1683 1521 1650T1597 1578T1643 1497T1658 1414Q1658 1366 1637 1322T1575 1244T1470 1190T1323
1170Q1253 1170 1208 1192L1049 790Q1105 730 1159 669T1255 544T1324 415T1350 281Q1350 203 1321 138T1241 19T1124 -73T982 -139T827 -179T671 -193H654Q630 -250 610 -296T575 -374T550 -425T536 -443Q531 -443 531 -430Q532 -422 533 -411T537 -387L545 -353Q555
-329 568 -292T604 -191Q449 -185 340 -151T162 -66T61 47T29 171Q29 226 52 277T117 369T219 433T353 457Q364 457 376 458T407 459Q400 457 399 450T397 434V425Q397 416 395 409T385 402Q325 402 279 385T202 339T154 271T138 191Q138 136 166 81T254 -20T403
-93T617 -122Q620 -122 623 -122T629 -121Q657 -46 691 45T763 240T843 455T928 681Q862 756 791 830T659 980T561 1130T522 1281Q522 1362 551 1428T631 1546T745 1638T879 1702T1019 1740T1149 1753Q1206 1753 1255 1747T1349 1728Q1370 1771 1390 1809T1427
1877T1457 1924T1479 1941Q1495 1941 1495 1918Q1495 1909 1493 1891T1481 1844ZM752 1264Q752 1211 771 1160T824 1057T900 954T992 850Q1032 959 1070 1057T1144 1247Q1122 1281 1122 1334Q1122 1385 1153 1431T1250 1509Q1268 1551 1288 1596T1329 1686Q1262
1715 1191 1715Q1146 1715 1096 1704T998 1668T905 1607T826 1520T772 1406T752 1264ZM1125 300Q1125 381 1085 460T981 618Q943 522 904 424T827 231T753 48T685 -117Q763 -107 841 -76T983 8T1085 134T1125 300ZM1569 1371Q1569 1407 1557 1445T1521 1521T1466
1592T1393 1652L1334 1507L1336 1503L1331 1499Q1314 1455 1303 1428T1285 1382T1274 1354T1266 1334T1257 1312T1244 1280Q1254 1241 1285 1225T1359 1208Q1414 1208 1454 1221T1519 1256T1557 1307T1569 1371Z" />
<glyph unicode="%" glyph-name="percent" horiz-adv-x="2232" d="M1678 2148Q1669 2122 1647 2073T1597 1964T1537 1839T1478 1717T1431 1618T1406 1561Q1396 1532 1369 1470T1301 1321T1211 1130T1106 913T994 687T883 467T780 267T693 105T629 -3T596 -43Q594
-43 584 -41T563 -33T542 -20T533 0Q533 6 534 7Q536 14 557 59T613 180T695 355T799 573T916 819T1041 1082T1168 1348T1291 1605Q1309 1643 1339 1704T1406 1836T1480 1976T1553 2104T1615 2197T1656 2233Q1664 2233 1669 2228T1678 2216T1683 2201T1685 2186Q1685
2162 1678 2148ZM1952 1324Q2007 1324 2050 1296T2123 1220T2168 1107T2184 969Q2184 862 2156 771T2082 606T1973 475T1843 380T1705 322T1571 302Q1518 302 1473 315T1394 357T1341 426T1322 525Q1322 640 1346 744T1412 937T1514 1097T1643 1219T1791 1297T1952
1324ZM1474 550Q1474 502 1484 468T1513 410T1557 376T1612 365Q1653 365 1699 385T1791 443T1879 538T1953 666T2005 825T2024 1014Q2024 1077 2013 1123T1982 1200T1935 1244T1876 1259Q1835 1259 1790 1236T1700 1170T1614 1064T1542 922T1493 750T1474 550ZM659
1774Q713 1774 755 1747T826 1672T870 1562T885 1426Q885 1321 858 1232T785 1070T679 942T552 849T416 792T285 773Q234 773 190 786T112 827T61 895T42 992Q42 1105 65 1206T130 1395T230 1552T356 1671T502 1747T659 1774ZM190 1016Q190 923 228 879T326 835Q366
835 411 854T501 911T587 1004T659 1129T709 1285T728 1470Q728 1532 717 1577T687 1652T641 1696T584 1710Q524 1710 455 1660T327 1519T229 1300T190 1016Z" />
<glyph unicode="&amp;" glyph-name="ampersand" horiz-adv-x="2711" d="M-42 382Q8 415 59 449Q103 478 154 512T250 578Q318 625 386 683T511 792Q576 852 638 913L741 1062Q761 1086 782 1117T823 1178Q845 1211 866 1246Q852 1288 846 1339T840 1451Q840 1535
852 1631T886 1826T941 2023T1013 2212T1100 2380T1200 2515T1310 2604T1429 2637Q1499 2637 1549 2621T1630 2576T1675 2505T1690 2413Q1690 2354 1673 2285T1626 2141T1554 1986T1465 1826T1365 1668T1259 1518T1155 1382T1058 1267Q1066 1192 1086 1122T1140
997T1223 910T1340 877Q1375 877 1405 890T1460 926Q1455 974 1452 1019T1449 1110Q1449 1174 1459 1233T1488 1339T1535 1412T1599 1440Q1640 1440 1658 1402T1677 1305Q1677 1220 1647 1121T1548 928Q1563 858 1582 792T1619 674T1649 586T1662 541Q1662 527
1657 515T1642 493T1622 477T1599 471Q1590 471 1577 479T1546 523T1510 635T1471 846Q1439 821 1404 807T1326 792Q1287 792 1245 806Q1140 843 1071 924T963 1116Q875 998 799 884T667 662T578 458T545 278Q545 191 583 129T690 26T852 -34T1055 -53Q1166 -53
1289 -34T1538 20T1787 107T2023 224T2231 368T2397 536T2507 724T2547 930Q2547 944 2547 956T2545 983Q2498 995 2448 1009T2349 1036T2254 1057T2168 1066Q2138 1066 2118 1060T2084 1045T2057 1025T2031 1005T1998 990T1949 984Q1929 984 1915 991T1892 1011T1878
1037T1873 1064Q1873 1108 1900 1135T1965 1177T2045 1197T2114 1202Q2168 1202 2219 1189T2319 1156T2417 1113T2513 1070T2610 1037T2710 1023Q2738 1023 2761 1035T2807 1063T2851 1091T2899 1104Q2926 1104 2936 1093T2946 1065Q2946 1041 2920 1021T2858 985T2782
962T2716 953Q2689 953 2658 958T2591 971V961Q2595 933 2597 906T2599 853Q2599 722 2556 605T2437 384T2256 194T2029 34T1770 -93T1496 -185T1220 -242T958 -262Q828 -262 717 -241T525 -175T397 -64T350 94Q350 148 368 224T416 384T481 553T552 711Q549 704
525 685T464 637T379 576T282 509T183 442T94 383T24 339T-16 317Q-27 310 -36 310Q-49 310 -55 320T-62 343Q-62 368 -42 382ZM1439 2565Q1381 2565 1333 2529T1244 2432T1172 2291T1115 2120T1073 1935T1044 1754T1027 1590T1021 1461V1430Q1076 1488 1136 1569T1253
1742T1362 1932T1453 2123T1515 2298T1538 2441Q1538 2499 1515 2532T1439 2565ZM1585 1139Q1603 1187 1612 1232T1621 1312Q1621 1337 1615 1353T1593 1369Q1577 1369 1563 1351T1539 1305T1523 1240T1517 1167Q1517 1132 1520 1094T1531 1017Q1550 1049 1562
1080T1585 1139Z" />
<glyph unicode="&apos;" glyph-name="quotesingle" horiz-adv-x="688" d="M274 1514Q261 1497 241 1486T209 1475Q196 1475 188 1485T180 1516Q180 1543 189 1586T213 1680T248 1780T291 1872T336 1938T380 1964Q411 1964 432 1957T465 1939T483 1913T488 1883Q488
1861 481 1840T467 1805Q440 1752 419 1716T377 1650T332 1588T274 1514Z" />
<glyph unicode="(" glyph-name="parenleft" horiz-adv-x="1399" d="M1363 2125Q1395 2111 1395 2097Q1395 2086 1381 2078T1349 2069Q1347 2069 1344 2069T1335 2071Q1257 2089 1188 2089Q1099 2089 1014 2046T852 1927T705 1747T577 1521T471 1262T391 986T341
708T323 442Q323 304 345 186T413 -20T533 -157T708 -207Q767 -207 833 -189Q835 -189 838 -188T846 -186Q856 -186 864 -196T872 -220Q872 -241 846 -256T784 -282T711 -296T649 -301Q501 -301 395 -238T221 -65T121 192T89 507Q89 642 108 785T165 1071T257 1351T379
1610T529 1835T704 2012T900 2129T1115 2171Q1237 2171 1363 2125Z" />
<glyph unicode=")" glyph-name="parenright" horiz-adv-x="1344" d="M42 -236Q22 -234 15 -229T7 -217Q7 -210 12 -203T27 -190T46 -181T68 -177Q162 -177 253 -131T429 -2T592 192T737 435T858 710T950 1001T1009 1291T1030 1564Q1030 1691 1009 1799T941 1987T823
2110T649 2155Q608 2155 561 2149T459 2129Q457 2129 457 2129T455 2128Q444 2128 436 2139T427 2162Q427 2174 443 2184T484 2203T539 2216T598 2225T652 2231T690 2233Q844 2233 953 2176T1133 2018T1235 1783T1268 1492Q1268 1355 1245 1208T1177 914T1071 624T930
353T760 117T564 -71T347 -194T114 -239Q79 -239 42 -236Z" />
<glyph unicode="*" glyph-name="asterisk" horiz-adv-x="946" d="M521 1286Q535 1297 549 1301T579 1305Q599 1305 608 1296T617 1261Q617 1239 608 1200T586 1115T556 1018T524 924Q601 955 686 989T852 1044Q861 1047 867 1047Q886 1047 895 1034T905 1002Q903
987 894 971T862 939Q851 934 812 925T723 903T621 880T533 861Q578 773 613 705T665 592Q665 590 665 590T666 589Q666 588 667 588Q666 581 656 573T633 556T606 543T582 537Q575 537 571 540Q549 573 531 614T496 695T468 768T445 820Q432 812 409 793T358 748T298
694T236 639T178 590T131 555Q127 551 115 551Q94 551 75 566T56 604Q56 614 63 626T86 650Q123 678 165 709T247 770T318 825T368 867Q346 875 315 887T250 913T183 941T122 969T79 994T62 1011Q63 1019 68 1029T80 1049T96 1064T113 1071H115Q138 1066 178 1048T262
1008T349 965T419 932Q429 970 441 1024T465 1132T492 1228T521 1286Z" />
<glyph unicode="+" glyph-name="plus" horiz-adv-x="888" d="M568 1206Q585 1221 602 1226T638 1231H653Q668 1230 672 1210T671 1157T654 1079T625 984Q606 927 584 864T539 742Q566 740 592 740Q599 740 605 740T667 741H746Q807 741 839 735T863 706Q854 677
848 669T826 661Q808 661 777 661T704 661T615 660T514 658Q475 552 429 442T330 201Q322 179 302 170T259 161Q247 161 235 165T212 175T197 188T193 203Q199 227 212 266T240 351T273 447T305 539T332 618T347 670Q321 670 292 671T246 671Q231 670 209 670T161
673T111 678T67 685T37 696T29 710Q30 714 31 717T34 726Q38 738 65 744T133 752T226 755T330 755Q341 755 353 755T376 754L426 893Q429 903 437 927T457 982T483 1047T511 1112T540 1169T568 1206Z" />
<glyph unicode="," glyph-name="comma" horiz-adv-x="639" d="M71 -166Q93 -173 120 -173Q184 -173 237 -131T333 -25Q285 -22 252 -7T197 30T166 80T156 133Q156 174 173 216T221 291T290 346T373 368Q407 368 440 356T500 323T543 273T560 209Q560 165 546 116T505
19T441 -74T359 -153T263 -207T157 -227Q115 -227 59 -213L71 -166Z" />
<glyph unicode="-" glyph-name="hyphen" horiz-adv-x="1690" d="M167 371Q150 383 145 399T140 434Q140 446 162 453T221 465T304 470T399 472Q449 472 524 470T689 465T875 458T1066 450T1244 442T1393 436T1495 431T1533 427Q1555 425 1574 410T1594 380Q1594
368 1582 361Q1570 355 1533 350T1442 342T1318 336T1174 332T1019 329T863 328Q800 328 742 328T635 328T550 330T492 332Q481 332 457 332T400 334T332 337T264 344T205 355T167 371Z" />
<glyph unicode="." glyph-name="period" horiz-adv-x="664" d="M241 -17Q207 -17 183 -4T142 31T119 81T111 141Q111 192 128 245T177 343T254 416T357 445Q416 445 457 430T523 390T559 333T570 266Q570 208 540 157T463 67T357 6T241 -17Z" />
<glyph unicode="/" glyph-name="slash" horiz-adv-x="1151" d="M1128 2153Q1123 2135 1118 2125T1109 2109T1101 2099T1093 2086Q1082 2063 1063 2019T1022 1920T977 1808T934 1701T902 1619T887 1578Q874 1551 844 1478T772 1298T679 1061T573 787T460 497T348
212T244 -46T157 -256T94 -398T61 -450Q60 -451 56 -451Q54 -452 51 -452T44 -452Q31 -452 19 -447T6 -424Q6 -413 12 -398Q77 -227 144 -50T280 304T416 656T549 998T678 1320T799 1615Q815 1654 841 1717T900 1853T966 1999T1031 2131T1087 2228T1125 2265Q1133
2265 1139 2259T1145 2238Q1145 2226 1142 2206T1128 2153Z" />
<glyph unicode="0" glyph-name="zero" horiz-adv-x="1386" d="M982 1324Q1055 1324 1112 1287T1208 1186T1267 1037T1288 855Q1288 713 1252 593T1153 375T1009 202T837 77T655 0T478 -26Q409 -26 349 -8T245 46T175 138T150 269Q150 421 181 558T269 813T403
1024T573 1185T770 1288T982 1324ZM350 302Q350 239 364 193T402 117T460 72T533 57Q587 57 648 83T769 161T885 286T983 455T1050 665T1076 914Q1076 998 1061 1059T1020 1160T959 1219T881 1238Q827 1238 767 1208T648 1120T535 980T440 794T375 566T350 302Z"
/>
<glyph unicode="1" glyph-name="one" horiz-adv-x="832" d="M102 92Q103 108 108 117T121 131T137 141T151 154Q163 176 181 217T220 307T262 408T302 503T332 578T348 615Q366 646 390 695T444 804T505 929T571 1059T637 1181T700 1283T757 1353T804 1379Q828
1379 837 1352T847 1292Q841 1264 828 1218T787 1094T711 898T591 605Q576 569 549 511T488 385T413 249T332 126T252 36T178 1Q161 1 147 2T123 12T108 36T102 81V92Z" />
<glyph unicode="2" glyph-name="two" horiz-adv-x="1059" d="M873 45Q859 32 829 25T765 15T703 10T664 9Q652 9 632 9T584 8Q541 8 485 8T368 10T248 13T141 17T59 23T17 31Q9 33 7 41T4 57Q4 71 10 83T29 97L55 102Q68 104 85 107T126 116L127 117Q310 234 440
352T654 590T777 830T816 1072Q816 1121 803 1155T767 1210T711 1240T639 1249Q594 1249 540 1239T432 1212Q423 1209 415 1208T402 1207Q386 1207 382 1216T377 1237Q378 1242 380 1247T386 1255Q413 1273 449 1287T524 1311T606 1326T687 1331Q751 1331 810 1315T916
1264T990 1171T1018 1032Q1018 923 985 828T896 648T765 490T607 354T436 237T268 138Q293 142 329 145T406 152T490 159T572 164T642 168T692 171Q701 171 715 173T746 177T781 181T817 183Q851 183 877 172T903 130Q903 105 896 82T873 45Z" />
<glyph unicode="3" glyph-name="three" d="M220 268Q274 263 295 250T316 216Q316 193 303 181T273 162T241 154T220 152Q216 152 212 145T203 127T197 109T194 97Q193 92 193 88T192 79Q192 42 218 16T283 -28T371 -53T465 -61Q544 -61 605 -23T709 77T772 216T794
373Q794 436 781 496T738 608T665 701T557 767L574 843Q659 846 726 871T840 934T912 1013T937 1093Q937 1122 924 1148T889 1193T836 1224T771 1235Q738 1235 704 1232T638 1223T578 1213T531 1202Q525 1200 520 1200Q490 1200 490 1224Q490 1232 497 1236Q594
1278 683 1296T852 1314Q916 1314 968 1296T1057 1247T1115 1178T1136 1098Q1136 1060 1114 1012T1042 920T911 841T713 794Q795 759 855 710T956 600T1015 473T1035 337Q1035 246 999 159T890 4T710 -105T458 -147Q383 -147 315 -132T194 -89T111 -19T80 75Q80
90 83 107Q92 156 109 187T147 236T186 261T220 268Z" />
<glyph unicode="4" glyph-name="four" horiz-adv-x="1590" d="M871 -49Q871 -52 857 -60T819 -76T766 -92T709 -99Q700 -99 684 -98T655 -91T635 -75T640 -45Q654 -15 668 7T698 52T732 100T773 162T824 247T887 367Q736 376 621 392T417 426Q296 335 217 335Q144
335 111 361T77 424Q77 457 99 488T158 545T239 590T329 619Q390 658 475 720T666 869T895 1067T1157 1316L1324 1311Q1337 1331 1350 1341T1374 1351Q1392 1351 1392 1329Q1392 1321 1389 1311Q1343 1178 1298 1054T1211 816T1130 604T1057 420Q1068 418 1078
418T1099 418H1130Q1179 418 1236 429T1348 452T1450 476T1529 487Q1565 487 1571 467L1574 446Q1575 443 1575 435Q1575 409 1549 394T1479 371T1381 361T1269 358Q1206 358 1148 358T1036 360Q993 240 965 161T918 36T889 -30T871 -49ZM517 499Q557 491 599 482T689
465T794 450T922 436Q1001 575 1085 759T1251 1174Q1173 1088 1083 997T897 817T704 647T517 499Z" />
<glyph unicode="5" glyph-name="five" horiz-adv-x="1161" d="M467 1244Q475 1258 484 1269T518 1284Q543 1287 589 1289T690 1294T803 1297T911 1298Q961 1298 993 1297T1044 1291T1070 1278T1078 1256Q1078 1241 1074 1225T1061 1197T1042 1176T1019 1167Q1000
1167 957 1167T855 1169T727 1172T589 1176Q538 1067 478 943T343 683Q385 714 421 736T493 771T568 791T654 798Q755 798 824 770T936 694T997 586T1016 462Q1016 379 981 292T879 134T712 17T485 -29Q412 -29 353 -25T245 -10T154 18T73 59Q57 68 49 84T41 117Q41
122 43 131T52 150T67 167T91 174Q102 174 109 170Q139 145 177 127T257 98T338 81T411 75Q494 75 563 90T684 145T771 253T820 429Q823 450 823 474Q823 511 814 550T780 622T713 675T607 696Q550 696 494 682T390 649T304 617T247 602Q218 602 218 637Q218 651
221 669T235 710Q311 871 365 1003T467 1244Z" />
<glyph unicode="6" glyph-name="six" horiz-adv-x="1391" d="M1233 1257Q1256 1253 1266 1240T1276 1210Q1276 1190 1264 1174T1230 1158Q1215 1158 1208 1159T1196 1161T1185 1164T1166 1165Q1035 1165 924 1126T724 1029T569 903T461 778Q495 785 526 788T588
792Q687 792 777 761T936 677T1045 553T1086 400Q1086 296 1036 215T905 79T720 -6T508 -35Q440 -35 375 -8T260 73T179 209T148 399Q148 493 179 594T269 792T408 975T590 1127T807 1231T1052 1270Q1097 1270 1141 1267T1233 1257ZM403 689Q360 646 335 606T297
524T279 438T275 345Q275 272 300 218T367 128T463 75T575 57Q635 57 694 78T801 142T877 248T906 395Q906 467 879 525T804 626T693 690T557 713Q481 713 403 689Z" />
<glyph unicode="7" glyph-name="seven" horiz-adv-x="1288" d="M332 -36Q405 126 492 279T679 574T887 848T1113 1100Q1087 1113 1053 1123T980 1139T900 1149T816 1152Q758 1152 702 1141T589 1115T475 1090T358 1078Q343 1078 321 1081T279 1094T244 1125T229
1180Q229 1209 242 1250T289 1349Q294 1358 310 1361T344 1365Q358 1365 367 1364T377 1360V1159Q406 1159 456 1168T565 1190T683 1211T787 1221Q869 1221 964 1207T1157 1167Q1178 1186 1200 1205T1244 1243T1286 1278T1322 1308L1395 1282Q1378 1272 1343 1232T1260
1131T1155 991T1035 825T910 644T786 462T673 290T579 142T512 29T479 -36H332Z" />
<glyph unicode="8" glyph-name="eight" horiz-adv-x="1224" d="M103 299Q102 304 102 308T102 318Q102 368 121 416T172 508T245 593T328 670T410 737T481 793Q481 794 475 806T462 841T448 894T442 964Q442 1038 485 1092T597 1181T753 1233T931 1250Q1017 1250
1096 1236T1237 1193T1334 1124T1371 1029Q1371 968 1337 899T1241 759T1098 621T920 498Q960 451 989 386T1018 228Q1018 156 987 105T905 19T785 -31T643 -47Q551 -47 458 -24T287 44T160 153T103 299ZM336 337Q342 265 376 210T460 118T571 61T692 42Q753 42
796 52T866 82T905 127T917 185Q917 228 898 278T846 381T773 485T688 583T601 666T522 727Q486 698 453 657T393 567T351 465T335 361Q335 354 335 348T336 337ZM536 951Q537 904 564 858T634 767T730 676T834 584Q860 607 895 637T967 704T1041 779T1107 860T1154
942T1172 1024Q1172 1063 1148 1093T1085 1145T993 1176T883 1187Q817 1187 755 1173T644 1130T566 1056T536 951Z" />
<glyph unicode="9" glyph-name="nine" horiz-adv-x="1224" d="M937 720Q945 758 949 798T953 881Q953 981 931 1051T872 1166T787 1231T684 1251Q615 1251 545 1223T418 1145T325 1031T289 893Q289 833 320 794T403 732T520 700T653 691Q738 691 812 700T937 720ZM455
-68Q441 -71 428 -71Q402 -71 382 -62T361 -37Q361 -30 371 -19T405 3Q496 44 569 98T700 212T798 335T867 456T909 563T925 648Q858 617 782 603T628 588Q533 588 444 610T285 675T173 782T130 930Q130 1018 175 1091T294 1217T462 1299T652 1329Q744 1329 831
1299T986 1205T1095 1038T1137 792Q1137 713 1122 627T1072 454T985 286T856 135T681 14T455 -68Z" />
<glyph unicode=":" glyph-name="colon" horiz-adv-x="570" d="M474 911Q474 869 456 836T410 779T346 744T276 731Q247 731 221 739T176 765T144 810T132 876Q132 914 144 947T181 1005T239 1044T315 1059Q359 1059 389 1046T438 1011T465 964T474 911ZM254 67Q215
67 188 78T143 109T117 154T108 208Q108 243 120 279T154 344T207 391T276 409Q320 409 350 398T399 368T426 325T435 275Q435 232 425 195T393 129T337 84T254 67Z" />
<glyph unicode=";" glyph-name="semicolon" horiz-adv-x="523" d="M87 -104Q123 -104 152 -91T203 -53T243 2T272 70Q252 67 231 67Q192 67 165 78T120 109T94 154T85 208Q85 243 97 279T131 344T184 391T253 409Q297 409 327 398T376 368T403 325T412 275Q412
235 406 189T385 95T346 5T285 -72T200 -126T87 -146V-104ZM451 911Q451 869 433 836T387 779T323 744T253 731Q224 731 198 739T153 765T121 810T109 876Q109 914 121 947T158 1005T216 1044T292 1059Q336 1059 366 1046T415 1011T442 964T451 911Z" />
<glyph unicode="&lt;" glyph-name="less" horiz-adv-x="671" d="M74 558Q164 625 234 675T359 759T454 810T526 827Q535 827 544 825T562 817T575 805T581 788Q581 772 551 747T472 687T360 611T232 519L195 491Q225 450 263 408T335 330T396 268T428 231Q469
175 469 147Q469 133 462 124T445 109T426 101T414 98Q388 98 344 133T247 221T143 335T49 450Q40 461 37 471T33 491Q33 503 37 513T48 533T62 548T74 558Z" />
<glyph unicode="=" glyph-name="equal" horiz-adv-x="1133" d="M153 860Q140 870 140 885Q140 932 186 951T322 970Q382 970 450 966T585 962Q685 962 750 957T856 945T915 933T941 926Q954 925 967 920T990 907T1007 890T1014 871Q1014 852 987 841T911 824T799
817T662 815Q622 815 590 818T544 825Q536 825 515 825T461 824Q423 824 376 825T285 829T205 840T153 860ZM153 451Q139 462 139 480Q139 501 170 513T253 532T368 539T497 541Q624 541 706 539T838 535T910 531T941 529Q954 527 967 522T990 508T1007 491T1014
472Q1014 451 971 439T855 421T689 413T495 411Q508 411 519 412Q528 413 536 413T544 416Q536 416 515 416T461 415Q423 415 376 416T285 420T205 431T153 451Z" />
<glyph unicode="&gt;" glyph-name="greater" horiz-adv-x="662" d="M587 384Q493 313 423 261T301 173T210 121T141 104Q135 104 125 106T104 112T86 123T78 137Q78 152 110 180T194 247T310 330T439 423L476 451Q446 491 411 534T346 616T292 683T263 721Q222
777 222 805Q222 819 229 828T246 843T264 851T276 854Q292 854 315 837T367 792T426 726T489 649T552 568T612 492Q620 481 623 471T628 451Q628 426 613 409T587 384Z" />
<glyph unicode="?" glyph-name="question" horiz-adv-x="1497" d="M523 73Q487 73 487 86Q487 100 519 129T603 202T723 306T859 442T996 611T1115 814T1200 1051T1232 1325Q1232 1370 1214 1410T1155 1481T1049 1529T890 1547Q775 1547 666 1519T472 1433T334
1291T282 1094Q282 1027 304 981T361 904T434 857T508 830T564 817T587 809Q587 807 592 796T597 772Q597 761 589 752T557 743Q435 743 347 770T201 842T116 946T88 1071Q88 1149 125 1221T227 1355T378 1467T564 1554T769 1609T979 1629Q1076 1629 1162 1608T1313
1539T1416 1417T1454 1238Q1454 1121 1418 1009T1323 794T1187 596T1028 422T863 278T712 168T593 98T523 73ZM372 -432Q343 -432 323 -421T289 -392T269 -350T263 -300Q263 -258 277 -213T318 -131T383 -70T468 -46Q517 -46 551 -58T606 -92T636 -140T646 -196Q646
-244 621 -287T557 -362T468 -413T372 -432Z" />
<glyph unicode="@" glyph-name="at" horiz-adv-x="2639" d="M2529 422Q2529 370 2499 323T2415 233T2290 153T2136 84T1966 28T1792 -14T1624 -40T1476 -49Q1446 -49 1426 -33T1393 10T1374 76T1368 158Q1368 190 1370 226T1378 299Q1357 218 1317 159T1226 59T1121
0T1014 -20Q970 -20 931 -7T863 34T816 103T799 199Q799 223 802 250T815 309Q831 374 876 435T986 551T1129 649T1290 726T1455 775T1608 793Q1686 793 1745 769T1831 692H1677Q1659 617 1637 543T1591 389T1543 218T1495 20V17Q1495 5 1527 5Q1558 5 1614 16T1741
48T1892 95T2050 154T2200 222T2327 294T2414 367T2447 436Q2447 547 2422 654T2347 859T2225 1038T2060 1181T1854 1275T1610 1309Q1465 1309 1307 1277T995 1181T703 1024T460 809T293 538T231 215Q231 79 252 -25T313 -208T408 -340T532 -427T680 -475T847 -490Q976
-490 1116 -464T1396 -397T1672 -309T1926 -220T2141 -148T2300 -113L2330 -145Q2279 -183 2196 -228T2007 -320T1777 -410T1519 -488T1248 -542T977 -563Q863 -563 757 -546T557 -489T386 -387T253 -232T166 -18T135 262Q135 464 191 626T344 912T574 1126T858
1273T1175 1357T1505 1384Q1749 1384 1938 1313T2258 1115T2457 810T2529 422ZM1507 694Q1466 694 1409 688T1289 665T1164 614T1054 526T975 392T944 203Q944 117 968 81T1030 45Q1060 45 1096 63T1170 112T1243 180T1309 258T1360 336T1390 403L1507 694Z" />
<glyph unicode="A" glyph-name="A" horiz-adv-x="2917" d="M2917 411Q2923 414 2929 414Q2941 414 2951 402T2961 376Q2961 361 2951 348T2920 321T2866 287T2787 241Q2759 224 2712 193T2606 124T2481 47T2349 -25T2221 -78T2109 -99Q2078 -99 2053 -90T2009
-61T1981 -8T1971 72Q1971 135 1992 214T2045 378T2118 548T2197 709T2269 844T2320 938Q2256 939 2186 943T2054 957T1943 979T1872 1010Q1778 896 1662 776T1413 542T1134 327T836 150T527 30T217 -15Q158 -15 104 -11T0 3T-96 31T-185 77Q-202 88 -220 100T-252
124T-276 147T-287 169H-266Q-265 169 -243 161T-183 141T-98 115T3 88T112 68T219 60Q347 60 468 105T706 227T935 408T1158 628T1375 866T1590 1105T1804 1324T2019 1505T2239 1628T2464 1673Q2545 1673 2598 1652T2681 1594T2724 1511T2737 1411Q2737 1354 2726
1294T2701 1180T2674 1083T2657 1015L2656 1007Q2828 1037 2957 1087T3174 1201T3304 1335T3348 1479Q3348 1562 3289 1640T3111 1779T2811 1876T2387 1913Q2282 1913 2151 1902T1870 1871T1557 1828T1223 1779T881 1729T543 1686T219 1656T-78 1644Q-190 1644
-284 1654T-451 1689Q-462 1692 -492 1710T-561 1756T-642 1814T-719 1873T-777 1922T-800 1951Q-800 1954 -795 1954Q-788 1954 -772 1948T-725 1926Q-574 1849 -373 1818T89 1786Q227 1786 401 1800T774 1834T1193 1879T1643 1923T2110 1958T2580 1972Q2816 1972
2986 1933T3266 1829T3428 1679T3480 1503Q3480 1436 3454 1369T3376 1241T3249 1124T3078 1028T2865 959T2613 925Q2604 906 2578 863T2514 762T2433 635T2343 495T2256 355T2182 228T2130 128T2110 66Q2110 33 2124 19T2164 4Q2196 4 2245 24T2354 77T2483 153T2625
241T2772 331T2917 411ZM2361 1010Q2390 1071 2425 1139T2492 1275T2544 1405T2565 1516Q2565 1561 2548 1580T2502 1599Q2466 1599 2416 1574T2309 1507T2194 1411T2085 1299T1992 1184T1930 1077Q1942 1061 1985 1049T2089 1028T2221 1015T2361 1010Z" />
<glyph unicode="B" glyph-name="B" horiz-adv-x="3313" d="M0 516Q0 630 34 744T133 963T293 1158T507 1316T772 1421T1081 1459Q1228 1459 1351 1436T1572 1374T1745 1288T1867 1192Q1910 1311 1954 1419T2052 1619T2170 1785T2321 1911T2516 1992T2765 2020Q2863
2020 2939 1990T3069 1906T3149 1781T3177 1627Q3177 1543 3147 1462T3055 1303T2896 1148T2667 998Q2788 988 2877 942T3024 824T3112 661T3141 472Q3141 388 3122 308Q3152 324 3185 342T3248 376L3313 411Q3328 417 3338 417Q3362 417 3362 393Q3362 376 3351
362T3321 336T3279 311T3231 285Q3196 265 3168 247T3107 211Q3063 9 2969 -148T2745 -414T2455 -579T2120 -636Q2040 -636 1962 -622T1810 -584T1671 -527T1550 -457T1451 -381T1381 -305Q1178 -305 997 -288T663 -231T387 -129T178 26T46 238T0 516ZM1354 834Q1354
847 1388 866T1481 905T1621 947T1797 986L1845 1131Q1798 1174 1735 1210T1583 1272T1373 1313T1090 1328Q929 1328 793 1297T545 1212T348 1083T204 923T117 741T87 551Q87 461 118 374T207 209T349 63T538 -52T770 -128T1039 -156H1045Q1043 -142 1042 -130T1041
-105Q1041 -57 1055 -23T1094 33T1149 65T1213 75Q1255 75 1296 62T1370 25Q1431 87 1481 166T1573 338T1652 531T1724 740Q1673 737 1623 736T1518 735Q1442 735 1398 759T1354 834ZM1470 -208Q1633 -195 1803 -166T2149 -88T2508 31T2883 198Q2893 244 2902 306T2912
456Q2912 507 2906 561T2885 668T2843 766T2776 849T2679 909T2546 936Q2483 909 2423 885T2298 840T2160 802T1997 771Q1966 630 1923 494T1816 236T1663 14T1453 -156Q1456 -169 1460 -181T1470 -208ZM2291 1044Q2396 1044 2492 1032Q2760 1180 2892 1338T3025
1661Q3025 1721 3006 1772T2947 1860T2849 1918T2710 1939Q2581 1939 2490 1907T2335 1817T2230 1676T2158 1492T2104 1274T2053 1029Q2090 1032 2118 1034T2172 1039T2226 1043T2291 1044ZM2870 96Q2781 53 2691 7T2502 -83T2297 -166T2067 -236T1804 -285T1500
-306Q1545 -349 1610 -394T1752 -476T1913 -536T2079 -560Q2245 -560 2377 -509T2607 -368T2771 -159T2870 96ZM2033 933Q2029 914 2026 896T2017 859Q2072 868 2114 879T2195 903T2271 932T2356 966Q2347 967 2340 967T2324 967Q2282 964 2248 961T2182 954T2114
945T2033 933ZM1523 836Q1568 832 1612 831T1699 829H1744Q1748 840 1751 850T1758 870Q1686 856 1628 846T1523 836Z" />
<glyph unicode="C" glyph-name="C" horiz-adv-x="1796" d="M1459 2045Q1568 2045 1650 2027T1795 1976Q1889 2027 1991 2068T2198 2139T2409 2184T2617 2200Q2641 2200 2654 2189T2668 2163Q2668 2152 2657 2143T2623 2134Q2544 2134 2451 2119T2261 2075T2066
2007T1880 1918Q1947 1858 1977 1778T2007 1604Q2007 1496 1976 1381T1890 1154T1761 942T1603 767T1427 648T1247 603Q1176 603 1125 621T1041 671T992 749T976 851Q976 929 1001 1020T1072 1207T1185 1403T1333 1596T1513 1776T1719 1934Q1665 1959 1597 1972T1444
1986Q1308 1986 1192 1948T978 1844T801 1686T659 1489T552 1265T477 1028T433 791T418 568Q418 460 454 361T560 186T729 64T958 18Q1014 18 1083 39T1227 93T1381 169T1534 255T1676 340T1796 411Q1800 414 1806 414Q1817 414 1825 404T1833 380Q1833 367 1825
353T1796 328Q1726 289 1654 245T1508 157T1356 73T1200 1T1038 -48T870 -67Q682 -67 547 -16T323 123T192 329T150 581Q150 739 191 909T310 1241T502 1550T761 1806T1082 1980T1459 2045ZM1360 735Q1433 735 1505 770T1641 867T1761 1009T1856 1182T1919 1370T1942
1558Q1942 1652 1911 1734T1810 1876Q1717 1812 1634 1734T1479 1572T1351 1399T1254 1225T1193 1061T1171 918Q1171 835 1216 785T1360 735Z" />
<glyph unicode="D" glyph-name="D" horiz-adv-x="2448" d="M2046 1937Q2066 1937 2076 1926T2087 1898Q2087 1887 2074 1876T2042 1853T2001 1830T1961 1806Q2040 1729 2102 1638T2209 1442T2276 1220T2300 975Q2300 833 2256 715T2133 499T1948 326T1717 191Q1743
169 1776 160T1847 150Q1891 150 1940 161T2040 191T2141 232T2236 280Q2290 309 2342 341T2448 411Q2452 414 2459 414Q2469 414 2477 405T2485 382Q2485 369 2471 353T2434 318T2382 282T2323 246T2263 213T2212 186Q2161 159 2103 134T1985 89T1863 57T1743
45Q1695 45 1651 55T1566 86L1518 111Q1415 76 1309 51T1100 11T899 -12T715 -20Q643 -20 570 -6T422 25Q350 -7 275 -25T119 -43Q99 -43 78 -37T40 -19T11 11T0 53Q0 81 18 98T63 125T119 138T172 141Q205 141 238 139T303 131Q416 211 515 309T706 518T882 746T1052
984T1223 1222T1401 1450T1594 1658T1811 1835Q1692 1938 1520 1999T1122 2060Q1015 2060 900 2042T675 1986T466 1890T293 1750T175 1565T131 1331Q131 1251 147 1196T193 1107T263 1057T352 1041Q418 1041 493 1067T642 1136T784 1236T905 1353T989 1474T1020
1585Q1020 1614 1006 1645Q1003 1649 1003 1654Q1003 1660 1008 1665T1019 1673T1033 1679T1047 1681Q1062 1681 1074 1671T1086 1640V1634Q1114 1565 1114 1493Q1114 1420 1085 1354T1007 1232T891 1132T750 1056T596 1007T440 990Q362 990 292 1009T170 1070T86
1176T55 1331Q55 1461 97 1572T211 1774T382 1934T592 2051T825 2123T1065 2148Q1304 2148 1509 2079T1880 1878Q1917 1898 1956 1913T2040 1937H2046ZM1476 289Q1523 315 1561 315Q1577 315 1601 307Q1721 391 1812 496T1964 718T2057 959T2088 1205Q2088 1361
2040 1501T1891 1756Q1803 1685 1720 1590T1556 1385T1396 1153T1237 910T1075 668T906 442T727 243T534 87Q591 76 647 69T762 61Q954 61 1114 97T1414 199Q1411 206 1411 216Q1411 233 1426 251T1476 289ZM131 37Q166 37 204 61H189Q163 61 138 58T90 47Q100
41 110 39T131 37Z" />
<glyph unicode="E" glyph-name="E" horiz-adv-x="1933" d="M1682 193Q1635 193 1612 215T1589 263Q1589 285 1605 301T1653 318Q1673 318 1696 319T1741 321T1778 325T1801 332L1933 411Q1945 417 1955 417Q1966 417 1972 410T1978 391Q1978 373 1967 359T1932
329T1876 295T1798 249Q1799 241 1799 234T1799 220Q1799 83 1750 -25T1616 -215T1422 -356T1190 -450T943 -504T704 -521Q569 -521 458 -489T260 -398T108 -259T1 -83T-62 120T-83 339Q-83 469 -56 599T25 850T158 1074T340 1254T569 1375T845 1419Q899 1419 947
1416T1038 1405Q1090 1519 1157 1620T1304 1798T1475 1918T1666 1963Q1738 1963 1782 1932T1851 1850Q1890 1909 1929 1961T2000 2053T2055 2117T2085 2144Q2092 2136 2102 2126T2123 2105T2141 2083T2153 2061Q2138 2044 2109 2013T2043 1941T1964 1850T1882 1748Q1886
1725 1887 1701T1889 1653Q1889 1588 1876 1517T1840 1384T1785 1284T1715 1244Q1695 1244 1681 1254T1657 1281T1644 1320T1639 1369Q1639 1408 1651 1455T1685 1554T1737 1663T1804 1778Q1787 1820 1752 1847T1653 1875Q1578 1875 1510 1833T1381 1721T1268 1559T1174
1369Q1304 1317 1368 1203T1433 898Q1433 847 1429 793T1416 677Q1378 407 1296 274T1102 141Q1048 141 1005 177T932 278T886 436T870 641Q870 716 877 797T901 965T942 1141T1003 1320Q965 1325 925 1327T841 1330Q741 1330 657 1291T503 1184T382 1024T293 824T239
601T221 367Q221 263 235 163T280 -28T355 -194T462 -325T600 -412T771 -443Q850 -443 940 -430T1122 -385T1305 -304T1476 -182T1623 -12T1734 211Q1722 205 1710 199T1682 193ZM1366 685Q1373 734 1376 778T1379 863Q1379 954 1363 1023T1316 1144T1241 1230T1140
1287Q1095 1169 1067 1060T1027 871Q1016 790 1009 707T1002 542Q1002 474 1008 414T1027 308T1062 237T1116 211Q1149 211 1185 235T1255 314T1318 460T1366 685ZM1818 1537Q1821 1560 1823 1588T1826 1647V1669Q1769 1587 1735 1510T1700 1369Q1700 1346 1706
1331T1726 1316Q1742 1316 1756 1335T1782 1385T1803 1456T1818 1537Z" />
<glyph unicode="F" glyph-name="F" horiz-adv-x="1827" d="M1827 411Q1839 417 1849 417Q1860 417 1866 410T1872 391Q1872 377 1861 360T1827 328Q1769 288 1710 253T1591 186Q1540 159 1482 134T1363 89T1241 57T1122 45Q1075 45 1033 54Q978 -41 909 -121T764
-265T608 -377T448 -458T295 -507T157 -524Q124 -524 103 -520T68 -508T50 -491T44 -473Q44 -457 55 -446T78 -434Q138 -434 205 -412T342 -350T479 -255T608 -132T722 13T812 172Q791 194 791 215Q791 232 806 250T856 289L861 292Q876 329 900 385T955 511T1020
657T1091 813Q1039 810 986 807T878 799Q854 698 807 625T698 504T565 433T422 410Q341 410 265 437T130 518T36 648T0 823Q0 1011 51 1153T195 1399T414 1570T692 1678T1013 1735T1360 1752Q1445 1752 1527 1749T1694 1741Q1713 1747 1732 1747Q1753 1747 1769
1743T1797 1733Q1972 1719 2140 1700T2457 1663T2730 1633T2944 1620Q3055 1620 3153 1630T3338 1656T3498 1694T3631 1739Q3701 1765 3761 1794T3873 1858L3961 1792Q3881 1704 3786 1645T3582 1550T3355 1499T3110 1484Q2950 1484 2782 1503T2444 1550T2105 1609T1777
1663Q1744 1631 1697 1583T1603 1481T1515 1369T1453 1262Q1419 1181 1388 1088T1326 891Q1473 891 1624 892T1917 894T2187 896T2415 899T2583 901T2671 902Q2713 902 2738 895T2774 881Q2780 855 2780 843Q2780 829 2774 825T2757 820Q2744 820 2725 823T2679
826Q2547 826 2428 826T2199 828T1988 829T1791 830Q1664 830 1546 829T1306 823Q1280 736 1254 649T1203 480T1152 324T1100 189Q1126 168 1158 159T1227 150Q1271 150 1320 161T1420 191T1521 232T1616 280Q1670 309 1721 341T1827 411ZM1326 1325Q1331 1334
1344 1356T1376 1410T1421 1477T1475 1551T1535 1623T1600 1685Q1534 1692 1471 1696T1346 1700Q1185 1700 1033 1684T747 1630T501 1527T307 1367T181 1138T136 831Q136 735 156 667T212 557T295 495T396 475Q460 475 528 500T660 568T775 670T860 797L817 794Q811
793 806 793T795 793Q741 793 715 812T688 857Q688 889 728 911Q765 931 847 931Q851 931 855 931Q888 931 910 928T950 921T983 911T1017 902T1062 894T1127 891Q1166 978 1202 1056T1265 1194T1302 1272L1326 1325Z" />
<glyph unicode="G" glyph-name="G" horiz-adv-x="2411" d="M2411 411Q2423 417 2433 417Q2444 417 2450 410T2456 391Q2456 377 2445 360T2411 328Q2353 288 2295 253T2175 187Q2123 160 2065 135T1947 90T1825 58T1705 46Q1697 46 1689 46T1672 47Q1613 -30 1572
-83T1501 -176T1446 -249T1396 -315T1339 -392T1262 -493Q1459 -526 1655 -566T2034 -643T2381 -703T2681 -729Q2706 -729 2718 -738T2731 -759Q2731 -779 2701 -797T2606 -816Q2466 -813 2300 -787T1952 -726T1578 -651T1195 -581L1173 -610Q1020 -809 887 -966T632
-1232T399 -1399T179 -1457Q46 -1457 -48 -1434T-201 -1369T-288 -1273T-316 -1153Q-316 -1077 -281 -994T-184 -829T-37 -675T148 -547T358 -458T583 -425Q714 -425 848 -437T1125 -471Q1157 -429 1180 -399T1225 -341T1274 -280T1338 -202T1429 -90T1561 71Q1542
79 1525 87T1491 106Q1381 23 1280 -36T1088 -134T916 -189T763 -207Q646 -207 556 -164T404 -45T310 133T278 356Q278 466 304 584T391 821T549 1059T791 1287T1128 1498T1571 1682Q1493 1718 1389 1743T1158 1783T883 1806T567 1813Q233 1813 -161 1792T-1000
1740Q-995 1744 -994 1747T-992 1753Q-992 1758 -994 1762T-997 1770Q-997 1775 -989 1783Q-975 1783 -963 1783T-936 1782Q-847 1782 -742 1788T-518 1805T-269 1827T1 1849T286 1866T582 1873Q854 1873 1125 1845T1663 1738Q1801 1789 1920 1816T2152 1843Q2333
1843 2465 1814T2683 1738T2812 1635T2854 1527Q2854 1493 2837 1463T2786 1411T2702 1375T2585 1362Q2534 1362 2473 1372T2347 1400T2217 1439T2091 1484Q2019 1511 1948 1541T1803 1606Q1571 1518 1382 1414T1043 1196T783 964T601 729T494 504T458 299Q458
224 477 163T537 57T640 -12T786 -37Q899 -37 1050 11T1397 170Q1374 193 1374 216Q1374 228 1387 245T1421 277T1470 304T1525 316Q1559 316 1594 290Q1694 356 1802 435T2031 612L2027 498L1756 155Q1769 152 1782 151T1809 150Q1854 150 1903 161T2003 190T2104
232T2199 280Q2253 309 2305 341T2411 411ZM1058 -561Q946 -546 839 -538T625 -529Q529 -529 429 -557T233 -634T53 -746T-95 -877T-196 -1016T-233 -1147Q-233 -1193 -210 -1231T-138 -1298T-9 -1343T183 -1359Q274 -1359 361 -1318T530 -1211T685 -1060T823 -891T942
-727T1037 -591L1058 -561ZM2617 1431Q2680 1431 2707 1446T2735 1488Q2735 1510 2717 1537T2666 1591T2591 1645T2499 1691T2396 1723T2290 1736Q2237 1736 2189 1732T2095 1718T2004 1694T1910 1660Q1932 1651 1978 1631T2086 1585T2219 1532T2362 1483T2499
1446T2617 1431ZM1853 426Q1799 372 1748 325T1645 232L1651 224Q1655 219 1659 214T1668 203L1853 426Z" />
<glyph unicode="H" glyph-name="H" horiz-adv-x="2324" d="M1375 124Q1375 146 1362 159T1332 180T1302 196T1288 216Q1288 233 1303 251T1353 289Q1354 289 1356 291Q1355 305 1355 319T1355 348Q1355 540 1401 739T1526 1137Q1423 1066 1310 983T1081 816T849
654T624 513Q557 301 482 147T329 -116T170 -291T12 -396T-136 -447T-270 -460Q-379 -460 -429 -429T-479 -338Q-479 -274 -422 -184T-256 16T8 250T360 504Q423 643 486 797T609 1108T721 1419T819 1713T895 1973T945 2183Q952 2199 963 2207T986 2215Q1005 2215
1014 2202T1023 2169V2162Q1004 2080 982 1975T935 1751T881 1501T822 1235T756 965T684 703Q798 760 913 833T1144 985T1370 1140T1588 1282Q1645 1406 1710 1521T1845 1737T1984 1920T2122 2061T2251 2152T2365 2185Q2405 2185 2432 2177T2477 2154T2501 2119T2508
2077Q2508 2038 2492 1993T2453 1908T2409 1837T2377 1796L2379 1800Q2373 1798 2341 1775T2254 1710T2126 1612T1964 1486Q1890 1345 1820 1188T1695 870T1607 548T1574 242V211Q1603 176 1642 163T1731 150Q1750 150 1769 153T1810 170L1835 165Q1901 182 1964
207T2088 265T2208 334T2324 411Q2336 417 2346 417Q2357 417 2363 410T2369 391Q2369 377 2358 360T2324 328Q2234 265 2146 216T1954 123Q1967 112 1969 100T1971 76Q2124 76 2262 59T2518 11T2732 -60T2895 -146T2999 -241T3036 -337Q3036 -399 2994 -445T2878
-522T2707 -569T2496 -585Q2375 -585 2245 -567T1990 -510T1754 -416T1558 -282T1425 -109T1375 105V124ZM1618 45Q1611 45 1605 45T1592 46Q1603 -56 1647 -137T1757 -281T1909 -388T2086 -461T2274 -503T2457 -517Q2538 -517 2609 -507T2732 -477T2815 -429T2845
-366Q2845 -339 2816 -309T2737 -246T2618 -183T2473 -122T2311 -68T2145 -25T1985 4T1843 15Q1780 15 1740 11T1690 6Q1632 6 1632 29Q1632 38 1639 45H1618ZM239 251Q167 197 95 143T-44 38T-169 -62T-270 -153T-337 -231T-362 -293Q-362 -322 -329 -337T-217
-352Q-163 -352 -122 -336T-46 -286T19 -202T83 -85T153 66T239 251ZM2365 2105Q2352 2098 2320 2059T2243 1954T2143 1800T2029 1606Q2126 1680 2206 1746T2343 1869T2431 1972T2463 2054Q2463 2109 2385 2130L2375 2118Q2371 2113 2368 2110T2365 2105Z" />
<glyph unicode="I" glyph-name="I" horiz-adv-x="2103" d="M2103 411Q2115 417 2125 417Q2136 417 2142 410T2148 391Q2148 376 2137 360T2103 328Q2046 290 1989 256T1872 192Q1822 166 1766 142T1652 99T1536 69T1423 57Q1375 57 1333 66T1252 99Q1191 2 1115
-76T940 -209T718 -293T441 -323Q330 -323 247 -294T109 -215T27 -97T0 48Q0 131 28 221T109 402T236 577T401 735T600 864T825 951Q831 1077 880 1194T1029 1406T1287 1563T1667 1644Q1668 1644 1669 1644T1672 1645Q1717 1645 1737 1630T1757 1579Q1757 1539
1737 1471T1682 1293Q1640 1164 1605 1045T1535 808Q1573 772 1606 726T1665 621T1708 490T1730 332Q1733 323 1733 315Q1733 304 1727 295T1709 285Q1697 285 1693 293T1683 314Q1641 396 1592 481T1485 646Q1442 507 1395 387T1288 160Q1321 111 1400 111Q1443
111 1496 124T1607 158T1724 206T1838 261Q1904 294 1969 331T2103 411ZM973 -39Q1004 -3 1034 68T1099 232Q1037 299 987 378T900 545T844 725T824 909Q724 880 629 827T450 705T296 555T174 390T95 223T66 64Q66 2 89 -54T161 -154T283 -222T459 -247Q621 -247
751 -196T973 -39ZM1070 983Q1090 983 1119 981T1184 974T1260 958T1342 931Q1381 1044 1418 1150T1491 1346T1559 1504T1621 1608Q1477 1607 1355 1556T1141 1418T990 1216T917 970Q955 976 993 979T1070 983ZM1137 334Q1179 449 1221 575T1309 835Q1246 883 1177
911T1027 940Q997 940 969 938T914 930Q913 919 913 908T913 884Q913 745 966 604T1137 334Z" />
<glyph unicode="J" glyph-name="J" horiz-adv-x="1581" d="M1581 411Q1593 417 1603 417Q1614 417 1620 410T1626 391Q1626 376 1615 360T1581 328L1506 278Q1471 255 1423 225T1314 159V158Q1237 -10 1137 -137T927 -351T702 -480T483 -524Q366 -524 276 -483T125
-375T32 -226T0 -59Q0 13 24 80T98 198T223 280T403 311Q454 311 500 293T581 239T636 148T657 18Q657 -4 644 -20Q691 -20 747 -8T865 26T992 77T1123 140Q1136 165 1147 191T1169 246Q1178 270 1200 322T1253 446T1321 601T1397 772T1474 945T1547 1105T1609
1236T1652 1325Q1381 1369 1186 1409T865 1487T680 1557T620 1620Q620 1649 662 1673T798 1718T1041 1753T1406 1779T1907 1794T2557 1800Q2863 1800 3090 1793T3477 1778T3734 1764T3879 1757Q3904 1757 3921 1759T3949 1770T3963 1800T3968 1855Q3968 1882 3985
1895T4025 1909Q4046 1909 4064 1896T4082 1855Q4082 1816 4079 1786T4062 1734T4018 1702T3936 1691Q3846 1691 3778 1690T3654 1688T3551 1684T3458 1679T3360 1675T3246 1671T3101 1668T2914 1667Q2851 1667 2768 1667T2587 1669T2379 1672T2154 1676Q2159 1663
2160 1650T2162 1622Q2162 1597 2157 1573T2146 1532Q2111 1439 2068 1388T1976 1312T1878 1278T1779 1262Q1759 1214 1730 1143T1666 988T1593 809T1515 622T1438 440T1367 276Q1415 304 1453 329T1521 372L1581 411ZM407 -434Q483 -434 569 -400T740 -305T906
-162T1051 16Q984 -17 916 -46T781 -96T652 -129T535 -142Q483 -142 444 -130T378 -99T338 -59T324 -18Q324 14 349 38T407 73Q401 91 396 107T381 136T359 156T323 164Q260 164 215 144T140 91T96 14T82 -78Q82 -140 104 -203T169 -318T271 -401T407 -434ZM1677
1372Q1696 1406 1720 1447T1772 1529T1833 1609T1901 1678Q1847 1679 1794 1679T1687 1679Q1565 1679 1450 1678T1233 1673T1046 1665T900 1651T805 1631T771 1604Q771 1587 820 1565T977 1514T1257 1450T1677 1372ZM2029 1677L1783 1313Q1787 1311 1790 1311T1797
1311Q1832 1311 1867 1327T1935 1370T1996 1431T2045 1502T2078 1573T2090 1636Q2090 1665 2074 1677H2029Z" />
<glyph unicode="K" glyph-name="K" horiz-adv-x="2495" d="M2495 411Q2507 417 2517 417Q2528 417 2534 410T2540 391Q2540 377 2529 360T2495 328L2267 173Q2176 113 2102 74T1968 12T1858 -21T1766 -30Q1710 -30 1670 -7T1603 58T1565 157T1553 283Q1553 401
1585 536T1675 808Q1678 815 1678 825Q1678 838 1674 854T1666 885T1657 915T1653 939Q1653 957 1667 974T1700 1006T1742 1028T1779 1037Q1796 1037 1817 1027T1856 996Q1881 967 1906 952T1957 931T2009 924T2061 923Q2101 923 2143 944T2224 1002T2297 1087T2356
1187T2397 1294T2412 1397Q2412 1487 2378 1526T2286 1565Q2240 1565 2181 1544T2055 1485T1916 1398T1769 1290T1623 1170T1483 1046T1358 928T1254 822T1178 738T1136 684Q1095 616 1047 539T948 382T848 227T754 83T675 -38T619 -125Q605 -143 592 -164T567
-204T543 -238T522 -260Q472 -284 425 -284Q377 -284 345 -262T313 -201Q313 -197 327 -185T361 -154T403 -114T443 -68Q497 4 562 98T699 299T847 523T1000 761T1149 999T1287 1228T1407 1437T1502 1615T1564 1749T1587 1830Q1587 1848 1574 1848Q1569 1848 1533
1807T1436 1699T1295 1545T1123 1369T928 1193T723 1040T519 931T326 890Q281 890 236 909T155 965T97 1058T75 1185Q75 1264 125 1349T265 1520T482 1692T762 1859T1092 2016T1457 2157T1843 2277T2237 2370T2625 2430T2994 2451Q3029 2451 3046 2437T3063 2405Q3063
2386 3046 2371T2994 2356Q2776 2356 2541 2321T2070 2226T1606 2084T1172 1910T792 1718T491 1521T293 1334T221 1171Q221 1131 232 1103T261 1056T302 1030T349 1021Q400 1021 466 1049T609 1126T767 1239T934 1377T1102 1526T1262 1676T1406 1813T1526 1926T1614
2003T1662 2032L1682 2037Q1691 2039 1702 2041T1726 2043Q1745 2043 1759 2036T1774 2007Q1774 1914 1736 1805T1629 1564T1465 1274T1256 922Q1326 998 1415 1089T1604 1271T1807 1449T2012 1601T2204 1708T2370 1748Q2444 1748 2496 1731T2582 1683T2630 1610T2646
1518Q2646 1449 2619 1370T2546 1213T2436 1062T2299 935T2147 847T1990 814Q1971 814 1949 817T1907 827L1860 841Q1829 783 1804 722T1762 601T1735 483T1725 374Q1725 324 1734 284T1764 214T1815 168T1889 152Q1974 152 2050 174T2192 230T2317 300T2425 368L2495
411Z" />
<glyph unicode="L" glyph-name="L" horiz-adv-x="1807" d="M1328 1169Q1352 1160 1379 1153T1434 1142T1488 1134T1536 1129Q1574 1245 1631 1345T1755 1527T1897 1672T2045 1778T2187 1844T2313 1866Q2386 1866 2430 1828T2475 1710Q2475 1663 2449 1605T2373
1486T2254 1362T2097 1245T1906 1144T1687 1070Q1642 948 1594 822T1492 570T1376 324T1237 95Q1326 16 1413 -60T1592 -197T1780 -293T1985 -330Q2103 -330 2237 -278T2528 -104Q2634 -34 2704 -1T2806 32Q2831 32 2831 13Q2831 -14 2774 -77T2592 -238Q2508 -306
2432 -354T2284 -432T2146 -476T2019 -490Q1898 -490 1790 -444T1581 -323T1382 -157T1181 27Q1115 -51 1040 -115T880 -226T698 -298T492 -324Q366 -324 273 -288T120 -193T30 -59T0 95Q0 172 28 246T110 377T244 470T428 505Q530 505 621 481T796 417T957 322T1107
208Q1165 307 1218 414T1322 633T1421 856T1518 1076Q1497 1076 1471 1077T1417 1081T1362 1086T1310 1095Q1265 1103 1218 1106T1128 1120T1053 1153T1001 1221Q993 1240 993 1258Q993 1272 999 1286T1016 1311T1043 1330T1078 1337Q1109 1337 1144 1318T1213
1272T1277 1217T1328 1169ZM481 -248Q577 -248 659 -220T812 -142T944 -23T1059 130Q989 185 915 233T759 317T590 373T402 394Q343 394 299 369T224 303T179 209T163 99Q163 36 182 -26T241 -138T340 -217T481 -248ZM1708 1146Q1805 1179 1892 1228T2054 1335T2189
1453T2291 1571T2356 1676T2379 1757Q2379 1802 2333 1802Q2300 1802 2248 1778T2136 1710T2011 1606T1888 1472T1783 1317T1708 1146Z" />
<glyph unicode="M" glyph-name="M" horiz-adv-x="3253" d="M3253 411Q3265 417 3275 417Q3286 417 3292 410T3298 391Q3298 377 3287 360T3253 328L3104 241Q3032 199 2937 143T2727 17Q2621 -46 2550 -71T2430 -97Q2398 -97 2377 -88T2343 -63T2324 -27T2318
14Q2318 70 2329 156T2360 346T2405 567T2459 799T2515 1027T2567 1232T2611 1396T2641 1502L1688 46Q1688 45 1678 30T1651 -3T1611 -35T1559 -50Q1533 -50 1526 -35T1518 -5Q1518 1 1518 7T1521 16L1623 1087Q1582 1016 1522 917T1386 703T1222 464T1036 218Q1063
156 1063 85Q1063 30 1048 -26T1003 -134T931 -231T835 -310T717 -363T580 -382Q577 -382 573 -378T565 -368T558 -355T555 -343Q555 -341 557 -338T564 -335Q648 -335 722 -298T852 -202T940 -72T973 69Q973 105 964 138Q875 43 781 -41T592 -187T400 -286T211
-323Q138 -323 79 -310T-22 -268T-87 -194T-110 -87Q-110 -5 -75 64T19 189T155 288T315 359T482 402T639 417Q745 417 821 394T950 328Q1073 479 1187 646T1396 982T1557 1314T1652 1622Q1652 1624 1659 1652T1680 1722T1713 1812T1757 1900T1811 1968T1875 1995Q1903
1995 1920 1983T1946 1952T1959 1910T1963 1866Q1963 1854 1963 1843T1961 1824L1772 345L2707 1751Q2710 1776 2717 1804T2739 1857T2776 1898T2832 1914Q2866 1914 2885 1909T2915 1895T2927 1877T2930 1856Q2930 1795 2913 1696T2866 1475T2800 1214T2725 938T2650
668T2584 427T2538 239T2520 126Q2520 114 2521 99T2529 72T2547 50T2580 41Q2600 41 2630 51T2707 88Q2862 176 2999 257T3253 411ZM226 -257Q279 -257 352 -219T512 -114T693 47T884 251Q845 280 786 297T645 314Q575 314 500 302T353 267T215 211T102 133T24
34T-5 -85Q-5 -175 57 -216T226 -257Z" />
<glyph unicode="N" glyph-name="N" horiz-adv-x="2432" d="M2432 411Q2444 417 2454 417Q2465 417 2471 410T2477 391Q2477 377 2466 360T2432 328Q2375 294 2312 256T2184 180T2056 106T1936 43T1833 -3T1754 -24Q1754 -28 1729 -42T1668 -73T1590 -102T1517
-115Q1492 -115 1476 -105T1459 -68Q1459 -66 1460 -61T1461 -53L1214 1397Q1082 1060 977 787T773 307Q862 286 926 252T1033 175T1095 78T1115 -33Q1115 -96 1091 -169T1023 -318T919 -468T788 -606Q780 -613 765 -623T732 -644T698 -661T671 -668Q662 -668 662
-660Q662 -651 676 -626Q730 -534 791 -453T904 -299T990 -158T1024 -26Q1024 22 1008 64T958 141T870 201T740 240Q699 109 623 13T453 -146T260 -241T70 -272Q12 -272 -37 -259T-123 -221T-181 -158T-202 -70Q-202 -27 -178 20T-111 114T-8 201T124 273T278 322T447
341Q489 341 527 339T600 334Q657 448 714 574T827 828T937 1082T1044 1322T1147 1534T1243 1703T1331 1814T1412 1855Q1434 1855 1449 1847T1472 1825T1484 1793T1488 1757Q1488 1741 1486 1726T1482 1698T1478 1677T1476 1667L1730 174L2272 1542Q2287 1578 2308
1618T2356 1693T2412 1751T2475 1774Q2509 1774 2529 1769T2561 1755T2577 1737T2584 1716L1808 90Q1885 114 1961 149T2114 227T2270 316T2432 411ZM561 256Q561 260 557 260Q483 260 407 244T260 201T127 139T17 64T-57 -14T-84 -89Q-84 -146 -48 -173T46 -201Q107
-201 183 -171T332 -83T467 60T561 256Z" />
<glyph unicode="O" glyph-name="O" horiz-adv-x="2396" d="M2396 411Q2408 417 2418 417Q2429 417 2435 410T2441 391Q2441 377 2430 360T2396 328L2173 196Q2137 175 2102 166T2036 156Q1976 156 1923 183T1822 256Q1673 154 1518 69T1218 -77T944 -173T722 -207Q605
-207 515 -164T363 -45T269 133T237 356Q237 443 264 549T346 770T479 1003T663 1233T895 1444T1173 1620Q1088 1649 999 1674T812 1719T606 1749T376 1760Q42 1760 -348 1738T-1185 1688Q-1191 1688 -1193 1694T-1197 1707T-1199 1722T-1199 1733Q-1199 1738 -1196
1742T-1182 1747Q-1179 1747 -1129 1751T-994 1763T-797 1780T-558 1799T-299 1818T-40 1834T198 1846T397 1851Q508 1851 617 1837T836 1799T1054 1744T1271 1677Q1426 1744 1595 1782T1959 1821Q2101 1821 2216 1796T2413 1728T2539 1629T2584 1511Q2584 1487
2577 1462T2554 1414Q2592 1358 2592 1284Q2592 1159 2539 1033T2394 783T2179 543T1915 322Q1945 286 1981 265T2061 243Q2089 243 2121 255T2188 286T2255 326T2318 365L2396 411ZM745 -37Q826 -37 940 -10T1187 67T1462 189T1743 350Q1704 405 1673 467T1621
592T1588 712T1576 815Q1576 902 1594 986T1648 1148T1736 1291T1856 1408Q1747 1436 1647 1471T1447 1544Q1291 1467 1154 1365T903 1149T698 915T546 683T450 471T417 299Q417 224 436 163T496 57T599 -12T745 -37ZM1756 805Q1756 772 1761 727T1779 630T1808
525T1850 423Q1978 514 2090 618T2287 835T2420 1069T2469 1315Q2469 1337 2465 1352Q2426 1341 2385 1341Q2273 1341 2174 1351T1981 1379Q1924 1330 1882 1264T1811 1122T1770 965T1756 805ZM2141 1712Q1978 1712 1831 1679T1543 1588Q1649 1554 1750 1524T1957
1468Q2018 1497 2086 1512T2232 1528Q2331 1528 2397 1510T2509 1460Q2526 1497 2526 1538Q2526 1583 2495 1615T2412 1669T2289 1701T2141 1712ZM2254 1479Q2206 1479 2163 1470T2081 1443Q2169 1427 2251 1418T2422 1409Q2427 1409 2431 1409T2441 1410Q2418
1442 2373 1460T2254 1479Z" />
<glyph unicode="P" glyph-name="P" horiz-adv-x="2167" d="M2167 411Q2179 417 2189 417Q2200 417 2206 410T2212 391Q2212 377 2201 360T2167 328Q2095 286 2021 252T1871 187Q1811 160 1744 135T1608 90T1468 58T1331 46Q1304 46 1279 48T1230 57Q1215 21 1194
-24T1149 -114T1105 -197T1072 -257Q1054 -299 1016 -318T934 -337Q912 -337 892 -331T855 -312T830 -283T820 -244Q820 -231 824 -224Q836 -197 859 -149T909 -44T963 73T1010 185Q1002 193 1001 200T999 216Q999 231 1010 246T1046 278Q1086 358 1126 435T1200
580T1259 700T1296 783Q1231 784 1177 804T1085 860T1025 945T1003 1053Q1003 1132 1034 1197T1117 1308T1232 1379T1362 1405Q1449 1405 1503 1377T1587 1302T1628 1198T1639 1082Q1639 1044 1628 1009T1605 943T1581 888T1570 847V842Q1618 848 1690 854T1850
870T2031 896T2218 937T2393 998T2539 1085T2639 1204T2676 1360Q2676 1424 2624 1478T2485 1577T2285 1654T2050 1709T1807 1742T1581 1754Q1464 1754 1332 1750T1071 1730T823 1685T614 1604T469 1476T415 1292Q415 1263 443 1250T513 1230T604 1221T695 1208T765
1178T793 1119Q793 1102 756 1094T662 1085Q621 1085 574 1090T480 1105T390 1132T313 1170T260 1222T240 1287Q240 1379 278 1450T383 1577T540 1672T732 1739T945 1784T1164 1810T1373 1823T1557 1826Q1653 1826 1761 1822T1982 1806T2204 1777T2416 1733T2603
1671T2753 1589T2853 1485T2889 1356Q2889 1272 2851 1204T2748 1080T2593 983T2400 908T2185 853T1961 814T1743 788T1546 772Q1527 749 1500 693T1438 561T1365 394T1285 212Q1312 179 1350 165T1435 150Q1488 150 1546 161T1664 190T1782 232T1895 280Q1962
309 2030 342T2167 411ZM1320 844Q1341 889 1367 939T1417 1041T1457 1140T1473 1229Q1473 1285 1446 1319T1348 1354Q1289 1354 1236 1334T1142 1277T1078 1186T1054 1067Q1054 1013 1074 972T1129 902T1213 859T1320 844Z" />
<glyph unicode="Q" glyph-name="Q" horiz-adv-x="2496" d="M845 793Q845 908 864 1011T919 1214Q829 1158 734 1085T547 923T375 735T232 524T135 297T99 57Q99 33 93 16T79 -13T63 -29T50 -35Q38 -35 29 -22T14 10T4 51T0 92Q0 244 43 382T159 644T329 874T534
1069T757 1228T978 1349Q1034 1459 1108 1554T1269 1729T1452 1871T1649 1975T1851 2040T2050 2063Q2179 2063 2293 2022T2492 1892T2627 1667T2677 1340Q2677 1221 2644 1090T2551 823T2406 552T2215 291T1988 53T1731 -151Q1902 -235 2077 -319T2433 -472T2800
-583T3178 -626Q3239 -626 3313 -625T3468 -618T3629 -601T3786 -568T3928 -516T4044 -439T4121 -333T4150 -193Q4150 -177 4135 -145T4102 -78T4069 -9T4054 45Q4054 66 4086 66Q4129 66 4160 40T4211 -24T4240 -105T4250 -181Q4250 -276 4219 -354T4133 -496T4007
-609T3853 -695T3684 -757T3513 -798T3353 -821T3218 -828Q3072 -828 2931 -802T2654 -730T2384 -626T2122 -499T1867 -360T1618 -222Q1452 -319 1282 -372T933 -426Q786 -426 679 -393T501 -308T396 -192T361 -63Q361 -13 382 33T443 114T544 169T683 190Q790
190 899 169T1119 112T1343 28T1573 -75Q1688 8 1793 111T1988 329T2151 567T2275 813T2355 1054T2383 1280Q2383 1440 2345 1554T2241 1742T2087 1849T1898 1883Q1793 1883 1681 1849T1461 1751T1257 1597T1088 1397Q1176 1430 1246 1447T1368 1464Q1431 1464
1475 1447T1549 1400T1591 1329T1605 1240Q1605 1178 1584 1109T1526 972T1435 842T1319 733T1182 657T1031 629Q1001 629 968 638T908 668T863 719T845 793ZM887 -327Q1039 -327 1183 -278T1469 -144Q1369 -93 1271 -50T1077 25T885 75T696 93Q637 93 594 81T522
49T480 1T466 -57Q466 -102 494 -150T577 -237T709 -302T887 -327ZM1277 1363Q1235 1363 1168 1339T1016 1270Q971 1176 947 1078T923 870Q923 851 925 829T936 787T960 754T1003 740Q1057 740 1108 762T1204 823T1286 910T1349 1013T1391 1119T1406 1219Q1406
1250 1399 1276T1376 1322T1336 1352T1277 1363Z" />
<glyph unicode="R" glyph-name="R" horiz-adv-x="2798" d="M2798 411Q2810 417 2820 417Q2831 417 2837 410T2843 391Q2843 377 2832 360T2798 328Q2665 250 2536 173T2289 33T2072 -67T1897 -106Q1858 -106 1828 -94T1776 -56T1744 10T1732 109Q1732 151 1738
202T1758 316Q1772 383 1795 454T1843 592T1891 719T1927 820Q1904 817 1885 817Q1816 817 1766 842T1683 910T1634 1009T1618 1125Q1618 1197 1640 1269T1704 1398T1808 1491T1949 1527Q2046 1527 2107 1495T2202 1412T2249 1296T2261 1166Q2261 1121 2258 1078T2250
999T2243 933T2239 888Q2398 934 2505 1003T2678 1154T2772 1329T2800 1515Q2800 1646 2750 1742T2613 1900T2411 1993T2165 2023Q1998 2023 1811 1982Q1756 1763 1695 1572T1572 1218T1451 921T1340 683T1247 504T1181 386Q1255 329 1313 289T1414 219T1486 171T1532
136L1515 108Q1500 108 1473 119T1411 148T1339 189T1266 237T1200 286T1152 330Q1103 248 1036 184T887 76T711 8T514 -15Q402 -15 303 2T112 74Q94 83 75 94T40 116T13 138T0 158H18Q20 158 57 142T154 106T287 70T436 54Q510 54 576 72T698 121T801 192T882
277T940 367T975 454Q866 539 789 622T662 786T589 945T566 1098Q566 1211 613 1315T744 1511T941 1683T1187 1828T1463 1941T1754 2020Q1771 2059 1787 2098T1821 2177H1857Q1849 2140 1841 2104T1823 2033Q1911 2048 1994 2056T2159 2064Q2271 2064 2376 2048T2574
2000T2742 1918T2872 1802T2957 1651T2987 1465Q2987 1402 2975 1333Q2959 1243 2906 1159T2760 1005T2532 884T2216 809Q2209 788 2191 736T2148 616T2097 473T2045 329T2003 206T1977 128Q1971 108 1971 91Q1971 56 1993 37T2055 17Q2086 17 2125 29T2213 70Q2263
99 2318 130T2441 201T2597 292T2798 411ZM1055 541Q1065 556 1097 619T1180 782T1293 1013T1428 1298T1576 1619T1729 1962Q1608 1929 1491 1881T1268 1770T1074 1632T921 1472T820 1291T783 1092Q783 963 847 825T1055 541ZM1937 879Q1952 927 1971 981T2008
1089T2038 1196T2050 1292Q2050 1352 2021 1388T1917 1425Q1853 1425 1806 1399T1727 1331T1679 1236T1663 1128Q1663 1078 1676 1032T1715 949T1780 892T1871 870Q1902 870 1937 879Z" />
<glyph unicode="S" glyph-name="S" horiz-adv-x="2592" d="M2370 284Q2389 293 2421 310T2486 347T2549 383T2592 411Q2605 421 2614 421Q2622 421 2626 408T2631 377Q2631 374 2631 371T2630 365Q2628 353 2598 331T2522 282T2418 223T2303 161T2194 104T2107
59Q2035 22 1964 -13T1825 -71Q1719 -113 1585 -135T1278 -157Q1147 -157 1032 -124T832 -31T697 114T647 302Q647 316 648 329T651 357Q594 341 549 329T463 309T384 296T303 292Q222 292 164 309T68 356T13 429T-5 524Q-5 595 25 679T112 852T246 1031T419 1206T625
1362T854 1489T1098 1574T1350 1605Q1413 1605 1457 1597T1528 1575T1569 1548T1582 1521Q1582 1508 1574 1503T1554 1497Q1539 1497 1517 1505T1462 1522T1381 1540T1268 1548Q1177 1548 1079 1519T882 1440T687 1322T505 1177T346 1017T219 853T136 697T106 560Q106
520 120 487T164 431T242 394T357 381Q399 381 431 384T496 393T567 410T660 433Q680 542 722 650T824 856T955 1039T1107 1186T1270 1283T1435 1319Q1495 1319 1552 1298T1662 1230T1759 1111T1841 935Q1937 990 2025 1045T2202 1161Q2217 1287 2235 1400T2286
1616Q2345 1793 2416 1920T2569 2130T2739 2252T2924 2292Q2973 2292 3014 2282T3086 2252T3132 2203T3149 2136Q3149 2114 3145 2097Q3127 2014 3081 1917T2954 1715T2757 1498T2482 1276Q2465 1192 2451 1106T2422 935T2392 768T2359 610Q2327 489 2283 381T2169
182Q2232 214 2286 242T2370 284ZM2064 429Q2086 495 2106 578T2142 750T2172 925T2195 1086Q2028 979 1853 882Q1858 865 1861 848T1864 810Q1864 789 1860 761T1846 707T1822 663T1788 645Q1772 645 1762 656T1751 684Q1751 702 1754 719T1757 752Q1757 794 1747
824Q1481 679 1224 566T734 381Q733 373 733 367T733 353Q733 247 776 173T894 53T1065 -15T1271 -36Q1337 -36 1395 -31T1508 -15Q1492 8 1486 27T1480 51Q1480 72 1490 89T1518 119T1558 139T1607 146Q1641 146 1672 132T1722 85Q1730 71 1741 61Q1861 123 1938
218T2064 429ZM1740 879Q1705 976 1665 1045T1581 1159T1488 1225T1389 1246Q1329 1246 1268 1218T1146 1139T1027 1016T917 856T818 667T736 454Q971 523 1224 631T1740 879ZM2563 1593Q2544 1536 2529 1479T2500 1361Q2638 1460 2735 1557T2897 1746T2998 1921T3049
2073Q3050 2076 3050 2087Q3050 2122 3017 2145T2929 2168Q2875 2168 2832 2140T2747 2046T2661 1869T2563 1593Z" />
<glyph unicode="T" glyph-name="T" horiz-adv-x="2222" d="M2222 411Q2234 417 2244 417Q2255 417 2261 410T2267 391Q2267 377 2256 360T2222 328Q2164 288 2106 253T1986 186Q1934 159 1876 134T1758 89T1636 57T1516 45Q1436 45 1374 70Q1353 34 1332 1T1289
-65Q1392 -122 1489 -180T1673 -293T1833 -397T1962 -484T2051 -547T2093 -579Q2117 -599 2127 -621T2138 -663Q2138 -680 2130 -691T2108 -702Q2091 -702 2073 -689T2031 -644Q2016 -625 1978 -594T1884 -523T1756 -437T1599 -341T1422 -242T1231 -144Q1156 -242
1075 -313T903 -432T713 -501T498 -524Q373 -524 280 -485T124 -384T31 -242T0 -81Q0 17 24 85T92 196T198 258T335 278Q416 278 510 258T706 203T915 121T1130 19Q1153 54 1174 90T1216 163Q1202 176 1194 189T1185 216Q1185 236 1210 262T1294 309Q1364 446 1426
587T1542 862T1645 1112T1734 1317T1811 1455T1877 1506Q1789 1506 1676 1521T1438 1559T1184 1608T936 1658T715 1696T540 1711Q451 1711 389 1688T288 1627T232 1537T214 1430Q214 1359 240 1287T310 1156T414 1060T540 1023Q668 1023 750 1045T882 1100T953
1173T984 1245T992 1301T999 1323Q1009 1323 1019 1315T1038 1295T1051 1267T1056 1237Q1056 1156 1021 1094T926 989T789 924T630 902Q505 902 405 948T235 1067T126 1231T88 1412Q88 1482 113 1547T191 1661T327 1740T524 1770Q616 1770 721 1757T938 1725T1167
1682T1400 1640T1628 1607T1844 1594Q1962 1594 2080 1615T2331 1689Q2341 1684 2353 1677T2376 1662T2394 1644T2401 1624Q2401 1608 2378 1594Q2328 1564 2290 1547T2220 1519T2158 1506T2095 1503Q2061 1503 2022 1504T1929 1506Q1804 1101 1690 784T1458 229L1462
224Q1489 184 1529 167T1621 150Q1665 150 1714 161T1814 191T1915 232T2010 280Q2064 309 2116 341T2222 411ZM529 -434Q606 -434 678 -408T817 -333T947 -217T1069 -69Q972 -26 876 10T688 73T514 115T360 130Q300 130 256 112T182 64T139 -6T124 -89Q124 -148
150 -209T227 -321T354 -402T529 -434Z" />
<glyph unicode="U" glyph-name="U" horiz-adv-x="2121" d="M2274 1594Q2273 1594 2273 1595L2274 1596Q2274 1595 2274 1594ZM1998 -726Q2074 -726 2140 -701T2255 -634T2331 -541T2359 -436Q2359 -387 2333 -341T2249 -259T2100 -202T1877 -180Q1775 -180 1675
-182T1486 -189Q1495 -318 1543 -418T1664 -587T1823 -690T1998 -726ZM1528 71L1656 144L1763 204L1854 254L1937 302L2121 411Q2133 417 2143 417Q2154 417 2160 410T2166 391Q2166 377 2155 360T2121 328L2001 255L1862 174L1697 80L1500 -28L1491 -31Q1487 -60
1486 -86T1484 -136Q1593 -118 1740 -104T2051 -89Q2170 -89 2253 -112T2388 -173T2464 -261T2488 -366Q2488 -435 2455 -505T2364 -631T2232 -722T2071 -758Q2000 -758 1921 -742T1764 -695T1613 -616T1481 -507T1382 -368T1328 -198L1235 -204Q1225 -205 1217
-205T1200 -206Q1174 -206 1160 -202T1145 -184Q1145 -169 1184 -136T1323 -43Q1324 -9 1326 26L1328 94Q1330 127 1332 153T1338 196Q1257 136 1175 84T1012 -6T853 -66T703 -88Q651 -88 608 -64T530 0T469 95T425 210T398 335T389 459Q389 570 414 696T480 948T569
1195T666 1417T752 1594T813 1706Q712 1721 598 1736T360 1763T105 1782T-162 1790Q-338 1790 -469 1777T-693 1739T-847 1680T-941 1605T-989 1516T-1003 1418Q-1003 1371 -995 1323T-978 1226T-960 1131T-952 1041Q-952 980 -975 928T-1063 838Q-1064 837 -1067
837Q-1072 837 -1075 840T-1079 846T-1081 853V857Q-1081 859 -1079 860T-1074 864L-1067 867Q-1067 869 -1077 886T-1101 934T-1133 1004T-1165 1091T-1190 1191T-1200 1299Q-1200 1365 -1182 1431T-1119 1559T-997 1674T-805 1766T-528 1828T-155 1851Q-98 1851
-18 1847T159 1834L367 1814Q478 1804 596 1792L836 1766L1080 1739L1024 1622L952 1471L872 1294L791 1100Q751 1001 716 900T653 701T610 514T594 347Q594 286 602 223T628 109T678 25T757 -8Q811 -8 881 22T1032 105T1201 228T1380 378Q1429 552 1510 730T1695
1081T1920 1411T2172 1702Q2173 1705 2181 1705Q2200 1705 2215 1696T2240 1672T2258 1641T2270 1610Q2269 1611 2267 1611Q2258 1611 2232 1582T2168 1499T2081 1370L1979 1205L1868 1010Q1815 911 1757 792Q1723 722 1688 637Q1651 549 1617 452T1553 253T1506
59L1528 71ZM2270 1610Q2273 1607 2273 1597Q2273 1601 2270 1610Z" />
<glyph unicode="V" glyph-name="V" horiz-adv-x="1792" d="M1096 -23Q1094 -28 1066 -42T998 -73T915 -102T838 -115Q816 -115 803 -107T789 -81Q789 -75 791 -70T796 -53Q834 90 874 232T952 509T1024 771T1083 1009T1123 1214T1138 1378Q1138 1597 1102 1774T999
2088T840 2325T635 2489T396 2583T132 2614Q-29 2614 -196 2574T-525 2459T-840 2276T-1124 2033T-1360 1736T-1530 1392Q-1550 1338 -1562 1318T-1583 1297Q-1592 1297 -1596 1318T-1600 1362Q-1600 1372 -1600 1379T-1598 1392Q-1551 1589 -1454 1758T-1224 2066T-928
2312T-586 2493T-218 2604T156 2642Q320 2642 475 2611T768 2517T1021 2357T1219 2128T1348 1827T1395 1452Q1395 1354 1379 1216T1329 911T1242 557T1116 174L1962 1542Q1986 1579 2016 1619T2079 1694T2148 1751T2217 1774Q2251 1774 2270 1769T2298 1755T2310
1737T2313 1716L1096 -23Z" />
<glyph unicode="W" glyph-name="W" horiz-adv-x="1863" d="M366 137L456 278L547 415Q516 425 477 442L366 137ZM-94 1284Q-94 1205 -72 1120T0 950T127 782T317 624L457 1021Q504 1156 528 1233Q558 1326 558 1409T538 1551T482 1649T402 1706T305 1724Q236 1724
166 1693T37 1605T-57 1466T-94 1284ZM504 517Q523 507 546 496L590 477L772 735L946 970L1104 1176L1237 1348L1338 1480Q1380 1535 1399 1566L1407 1578L1426 1606L1449 1638Q1460 1653 1466 1659L1483 1677Q1496 1671 1503 1662T1514 1644T1519 1627T1520 1612L1523
1561Q1525 1526 1526 1487T1528 1405Q1528 1264 1520 1113T1500 808T1472 504L1441 214L1518 390L1610 586L1712 796L1818 1007L1922 1212L2019 1402L2104 1566L2171 1697Q2191 1736 2210 1759Q2230 1783 2252 1796T2300 1815T2357 1820Q2391 1820 2417 1808T2461
1776T2488 1732T2497 1683Q2497 1662 2491 1643T2470 1608T2435 1584T2386 1575Q2352 1575 2312 1543T2229 1460T2141 1342L2055 1206L1976 1073L1910 958L1784 698L1650 416L1506 106L1355 -237Q1339 -273 1317 -299T1269 -327Q1243 -327 1229 -312T1207 -268T1199
-200T1197 -112Q1197 -14 1202 98T1216 328T1236 561T1258 783T1281 982T1301 1142L1316 1248Q1321 1283 1322 1286L1118 1011L1022 881L915 738L804 588L693 437Q778 406 868 380T1065 332L1053 306Q941 317 842 336T652 381L299 -92L246 -164Q218 -204 189 -239T130
-299T76 -323Q68 -323 56 -320T33 -309T14 -293T6 -273Q6 -270 26 -212L82 -50L170 204L286 536Q158 612 66 703T-85 892T-172 1090T-200 1286Q-200 1411 -151 1506T-24 1665T154 1762Q252 1794 351 1794Q436 1794 514 1770T653 1698T750 1578T786 1409Q786 1349
772 1281Q760 1216 730 1135L504 517Z" />
<glyph unicode="X" glyph-name="X" horiz-adv-x="3795" d="M3458 1885Q3516 1885 3569 1879Q3669 1928 3789 1956T4061 1984Q4189 1984 4336 1960L4390 1894Q4290 1923 4202 1936T4032 1949Q3920 1949 3828 1927T3659 1865Q3762 1842 3835 1798T3955 1695T4023
1568T4045 1429Q4045 1340 4014 1255T3928 1103T3797 995T3629 954Q3517 954 3434 985T3295 1068T3211 1190T3183 1338Q3183 1401 3201 1467T3256 1596T3348 1718T3476 1825Q3468 1826 3460 1826T3443 1826Q3311 1826 3192 1769T2973 1615T2791 1391T2653 1122T2566
834T2535 555Q2535 442 2559 344T2635 174T2766 60T2957 18Q3013 18 3082 39T3226 93T3380 169T3533 255T3675 340T3795 411Q3799 414 3805 414Q3816 414 3824 404T3832 380Q3832 367 3824 353T3795 328Q3725 289 3653 245T3507 157T3355 73T3199 1T3037 -48T2869
-67Q2745 -67 2650 -31T2485 70T2374 223T2313 415Q2229 301 2131 194T1922 -6T1693 -177T1449 -309T1194 -395T933 -426Q786 -426 679 -393T501 -308T396 -192T361 -63Q361 -26 375 -10T408 6Q429 6 447 -11T466 -57Q466 -102 494 -150T577 -237T709 -302T887
-327Q1024 -327 1164 -279T1440 -145T1704 56T1944 305T2150 585T2311 877T2415 1162T2453 1424Q2453 1525 2422 1609T2324 1754T2152 1849T1898 1883Q1824 1883 1740 1863T1570 1807T1399 1719T1238 1605T1096 1468T985 1315Q1048 1291 1091 1262T1161 1202T1200
1136T1212 1068Q1212 1015 1187 965T1124 876T1039 814T949 790Q923 790 900 800T860 832T833 890T823 975Q823 1072 845 1159Q767 1159 689 1141T539 1083T405 977T297 815T225 591T199 297Q199 273 193 256T179 227T163 211T150 205Q138 205 129 218T114 250T104
291T100 332Q100 513 127 657T202 912T316 1101T460 1230T624 1303T801 1326Q828 1326 853 1325T903 1322Q954 1431 1032 1528T1205 1708T1408 1857T1626 1969T1845 2039T2050 2064Q2163 2064 2265 2032T2448 1932T2586 1760T2665 1511Q2739 1593 2826 1662T3012
1780T3223 1857T3458 1885ZM3976 1417Q3976 1483 3954 1548T3884 1667T3761 1760T3579 1816Q3515 1771 3468 1715T3389 1598T3341 1474T3325 1351Q3325 1284 3344 1225T3402 1122T3497 1051T3631 1025Q3707 1025 3770 1058T3880 1147T3951 1272T3976 1417ZM923
1157Q916 1126 911 1095Q906 1069 903 1041T900 991Q900 923 921 895T974 867Q999 867 1027 883T1079 924T1118 980T1134 1041Q1134 1064 1123 1085T1088 1122T1023 1147T923 1157Z" />
<glyph unicode="Y" glyph-name="Y" horiz-adv-x="2410" d="M779 -1306Q878 -1306 960 -1262T1114 -1140T1246 -955Q1306 -848 1360 -721T1465 -452L1565 -165L1454 -229Q1408 -255 1391 -263Q1279 -316 1166 -394Q1061 -467 975 -546T821 -708T708 -869T638 -1019T614
-1147Q614 -1220 654 -1263T779 -1306ZM2410 411Q2422 417 2432 417Q2443 417 2449 410T2455 391Q2455 377 2444 360T2410 328L1943 54Q1872 -124 1790 -303T1616 -649T1424 -959T1219 -1210T1003 -1378T780 -1440Q709 -1440 658 -1422Q610 -1406 574 -1372Q540
-1340 524 -1295T508 -1195Q508 -1123 534 -1038T611 -862T733 -676T898 -492T1100 -320Q1210 -239 1335 -173L1470 -102L1614 -24L1740 263Q1805 405 1876 536Q1942 657 2028 786Q2054 825 2081 861L2003 768Q1904 653 1805 551T1605 362T1403 214T1200 117T995
82Q927 82 881 94T807 128T766 179T753 244Q753 305 786 377T870 528T978 686T1087 844T1170 990T1204 1116Q1204 1190 1159 1247T1037 1343T856 1402T638 1422Q508 1422 370 1398Q231 1375 100 1327T-149 1204T-355 1027T-495 795T-547 505Q-547 460 -543 413T-527
315L-570 324Q-586 394 -593 458T-600 582Q-600 747 -554 879T-427 1114T-237 1290Q-128 1364 -3 1411T259 1481T531 1504Q675 1504 807 1476T1040 1397T1202 1272T1263 1108Q1263 1046 1235 978T1165 838T1073 694L982 557Q939 491 911 433T883 328Q883 301 892
279T923 242T978 218T1063 209Q1176 209 1288 255Q1399 301 1505 376T1711 547T1897 743T2058 939L2187 1110L2277 1231Q2312 1277 2322 1277Q2366 1277 2387 1286T2414 1296Q2419 1296 2420 1289T2421 1263Q2421 1218 2391 1115T2305 869T2170 549T1992 181L2156
270L2289 344L2410 411Z" />
<glyph unicode="Z" glyph-name="Z" horiz-adv-x="1527" d="M-68 -1099Q-68 -979 -27 -870T85 -662T249 -474T446 -303Q360 -197 291 -70T173 196T97 481T70 774Q70 892 89 1005T150 1217T257 1400T412 1544T621 1638T886 1672Q1033 1672 1143 1616T1328 1468T1439
1256T1477 1011Q1477 915 1460 820T1407 638T1319 474T1194 341T1034 249T836 207Q912 175 955 148T1030 98L1527 411Q1531 414 1539 414Q1550 414 1561 405T1572 382Q1572 371 1562 357T1527 328L1061 44Q1076 27 1086 1T1103 -58T1113 -124T1116 -190Q1116 -270
1100 -364T1052 -558T975 -759T874 -953T750 -1128T607 -1270T448 -1364T275 -1399Q195 -1399 132 -1380T24 -1322T-44 -1228T-68 -1099ZM818 259Q897 259 964 290T1086 377T1183 506T1253 667T1296 848T1311 1037Q1311 1147 1286 1249T1209 1431T1078 1557T891
1605Q776 1605 685 1576T525 1493T406 1367T325 1206T279 1019T264 815Q264 671 283 525T338 240T422 -20T527 -238Q582 -197 638 -159T748 -85T852 -17T945 45Q934 64 915 83T867 119T798 146T703 163Q672 166 637 166T571 170T520 182T500 211Q500 232 524 250T601
268Q604 268 607 268Q639 268 694 264T818 259ZM988 -16Q950 -41 902 -75T801 -152T692 -245T582 -352Q611 -409 637 -455T685 -534T722 -584T745 -602Q748 -602 750 -596Q748 -611 742 -625T724 -639Q716 -639 711 -634Q663 -600 615 -546T518 -421Q438 -501 369
-586T249 -762T169 -945T139 -1133Q139 -1167 145 -1198T166 -1254T208 -1293T273 -1308Q326 -1308 379 -1281T485 -1205T588 -1093T685 -955T772 -803T846 -648T903 -502T942 -375Q960 -302 969 -245T982 -143T986 -68T988 -16Z" />
<glyph unicode="[" glyph-name="bracketleft" horiz-adv-x="2203" d="M1474 -388Q1397 -373 1310 -358T1129 -332T933 -313T726 -305Q651 -305 582 -311T455 -332T355 -368T293 -422Q266 -464 244 -482T195 -500Q175 -500 148 -489T97 -462T55 -427T38 -394Q38
-370 66 -343T140 -289T243 -243T360 -213Q432 -154 493 -44T620 246Q629 271 651 323T705 445T775 599T853 770T932 942T1004 1102T1064 1235T1103 1325Q1138 1413 1164 1477T1216 1586T1267 1659T1328 1702T1410 1723T1522 1729Q1571 1729 1643 1718T1796 1694T1963
1670T2124 1659Q2159 1659 2173 1644T2187 1603Q2187 1589 2163 1579T2104 1560T2032 1546T1969 1533Q1949 1528 1926 1527T1876 1525Q1831 1525 1780 1530T1677 1543T1578 1562T1491 1584T1426 1605T1393 1624L1230 1262Q1119 990 1021 753T840 327T690 4T574
-198H583Q706 -198 825 -208T1057 -233T1274 -268T1474 -305Q1497 -319 1508 -336T1519 -368Q1519 -379 1513 -386T1496 -394Q1486 -394 1474 -388Z" />
<glyph unicode="\" glyph-name="backslash" horiz-adv-x="553" d="M13 2031Q13 2051 15 2063T22 2081T31 2088T42 2090Q56 2090 69 2069T96 2011T120 1928T143 1831T163 1731T181 1638Q205 1509 233 1355T292 1035T351 702T407 378L532 -367Q534 -387 536 -404T538
-432Q538 -455 528 -460T508 -466H500Q492 -466 477 -413T440 -268T394 -53T341 212T284 504T228 802T176 1084T131 1329T96 1516T76 1623Q70 1657 60 1706T39 1810T21 1923T13 2031Z" />
<glyph unicode="]" glyph-name="bracketright" horiz-adv-x="1797" d="M9 -345Q8 -345 8 -342Q8 -336 17 -319T46 -281T98 -237T175 -196T281 -165T418 -152Q488 -152 571 -164T757 -206Q776 -160 798 -116T842 -28T888 63T932 161Q953 212 985 288T1055 453T1136
640T1221 831L1428 1297L1580 1668Q1565 1658 1528 1648T1441 1627T1330 1607T1211 1591T1096 1579T999 1575Q976 1575 961 1578T925 1581Q896 1581 860 1577T798 1573Q783 1573 774 1575T763 1585Q763 1590 768 1598Q792 1627 818 1643T880 1661Q930 1664 989
1673T1112 1693T1238 1718T1357 1742T1462 1762T1543 1772Q1560 1773 1576 1773T1606 1774Q1672 1774 1704 1760T1736 1707Q1736 1665 1703 1584T1609 1371Q1593 1338 1568 1278T1512 1142T1445 978T1375 801T1305 625T1241 467T1189 341T1154 262Q1134 221 1121
194T1097 145T1079 104T1063 60T1043 2T1016 -82Q980 -189 949 -259T889 -371T834 -430T782 -447Q753 -447 726 -430T672 -392T618 -351T560 -325Q491 -311 436 -305T334 -298Q267 -298 219 -307T137 -328T79 -349T38 -359Q23 -359 9 -345Z" />
<glyph unicode="^" glyph-name="asciicircum" horiz-adv-x="1706" d="M1119 170Q1120 168 1120 158Q1120 138 1107 125T1077 111Q1065 111 1053 119T1031 147L878 544L528 147Q514 136 499 136Q485 136 474 144T463 167Q463 178 472 190L759 635Q797 683 836 713T908
744Q923 744 938 741T966 726T992 693T1013 635L1119 170Z" />
<glyph unicode="_" glyph-name="underscore" horiz-adv-x="1288" d="M178 33Q168 40 168 56Q168 95 194 105T268 115Q436 115 557 115T764 112T905 109T997 106T1055 102T1097 98Q1119 94 1119 69Q1119 48 1108 29T1078 8Q1055 6 1017 5T933 2T834 1T729 0Q666
0 607 0T503 1H454Q422 1 381 2T299 6T226 15T178 33Z" />
<glyph unicode="`" glyph-name="grave" horiz-adv-x="1706" d="M887 152Q882 141 872 131T844 121L817 145L377 727Q378 746 391 759T424 780T467 793T511 799T548 801T569 801L887 152Z" />
<glyph unicode="a" glyph-name="a" horiz-adv-x="1412" d="M0 328Q-7 324 -13 324Q-23 324 -28 332T-33 354Q-33 368 -26 384T0 411L370 629Q439 669 517 698T675 745T835 772T984 781Q1024 781 1059 776T1119 760T1159 734T1174 700Q1174 686 1164 680T1141 672T1113
668T1090 663Q1084 644 1071 605T1045 524T1022 450T1010 412Q997 370 975 306T925 133Q926 133 947 144T1003 175T1082 219T1173 270L1412 411Q1426 419 1436 419Q1447 419 1453 412T1459 393Q1459 379 1448 361T1412 328L880 16Q860 4 843 -1T812 -6Q792 -6 778
3T755 28T742 64T737 108Q737 133 742 158T755 206Q726 149 688 107T606 37T516 -6T426 -20Q382 -20 343 -6T275 35T228 104T211 199Q211 231 217 270T235 349T260 427T289 498L0 328ZM909 696Q829 696 756 669T621 598T508 498T422 382T367 264T347 160Q347 109
369 78T443 46Q473 46 508 64T580 113T652 182T718 260T770 337T803 403L909 696Z" />
<glyph unicode="b" glyph-name="b" horiz-adv-x="1351" d="M915 95Q905 93 897 93T880 91Q814 37 724 7T522 -23Q453 -23 406 -11T329 24T287 80T274 158Q274 243 300 341T371 545L0 328Q-8 323 -17 323Q-27 323 -32 331T-38 351Q-38 365 -29 382T0 411L425 662Q476
763 538 862T667 1050T803 1217T938 1350T1062 1438T1167 1470Q1245 1470 1280 1444T1315 1373Q1315 1333 1290 1282T1220 1172T1112 1051T975 928T816 810T643 706Q662 711 680 712T716 714Q783 714 843 690T949 627T1022 542T1049 453Q1049 378 1029 310T967
184L1351 411Q1361 414 1370 414Q1394 414 1394 390Q1394 353 1351 328Q1329 315 1294 294T1216 247T1129 197T1043 150T968 113T915 95ZM899 354Q899 410 868 452T785 527T670 584T540 628Q489 510 460 397T430 178Q430 127 452 95T524 63Q615 63 677 78T783 121Q757
143 745 173T733 233Q733 266 755 282T808 299Q828 299 849 292T889 270Q899 306 899 354ZM1176 1411Q1146 1411 1105 1388T1017 1322T918 1221T818 1094T722 947T639 788Q680 812 740 855T867 951T1000 1064T1120 1180T1207 1284T1240 1364Q1240 1386 1225 1398T1176
1411Z" />
<glyph unicode="c" glyph-name="c" horiz-adv-x="1301" d="M0 328Q-7 324 -13 324Q-23 324 -29 333T-35 355Q-35 369 -27 384T0 411Q142 495 242 559T421 666T563 732T698 755Q798 755 847 728T897 652Q897 621 887 597T859 557T819 532T773 523Q755 523 736 538T716
587Q716 647 703 672T666 697Q644 697 617 676T560 619T503 536T454 437T419 332T405 231Q405 141 445 100T548 59Q620 59 701 95T875 184T1073 298T1301 411Q1313 417 1321 417Q1342 417 1342 392Q1342 378 1333 359T1301 328Q1243 302 1182 265T1057 186T924
104T786 31T642 -22T494 -43Q418 -43 365 -22T279 34T231 117T216 217Q216 263 228 311T263 404T315 487T381 552L0 328Z" />
<glyph unicode="d" glyph-name="d" horiz-adv-x="1425" d="M242 244Q242 281 264 333T323 439T406 542T498 623L0 328Q-4 326 -7 326T-14 325Q-25 325 -31 333T-37 353Q-37 367 -28 383T0 411L275 578Q331 612 402 650T549 721T704 774T852 796Q917 796 967 776L1228
1303Q1238 1324 1249 1348T1279 1394T1326 1429T1400 1444Q1414 1444 1417 1435T1421 1410Q1419 1396 1414 1379T1404 1344T1393 1313T1385 1292L1087 644Q1065 579 1033 510T970 375T918 252T896 155Q896 141 899 128T913 115Q926 115 952 125T1013 153T1086 195T1165
248L1425 411Q1433 415 1437 415Q1445 415 1449 407T1454 388Q1454 371 1447 355T1425 328Q1368 290 1308 250T1186 170T1067 94T954 28Q877 -15 816 -15Q776 -15 762 7T748 64Q748 85 751 107T762 156Q735 117 700 86T626 33T544 0T461 -12Q417 -12 377 2T307
48T260 128T242 244ZM894 592Q898 603 904 619T917 650T928 677T933 695Q933 701 910 704T849 707Q799 707 748 681T648 611T557 513T483 399T433 283T414 180Q414 118 435 92T490 65Q536 65 589 104T697 212T802 379T894 592Z" />
<glyph unicode="e" glyph-name="e" horiz-adv-x="993" d="M0 328Q-10 321 -23 321Q-36 321 -44 328T-52 348Q-52 361 -41 377T0 411L253 560Q281 639 325 696T423 791T535 847T649 866Q705 866 741 837T778 745Q778 707 751 666T676 584T564 508T428 449Q428 401
427 358T425 277Q425 245 427 219T435 174T453 145T483 134Q511 134 550 156T650 214Q704 246 788 294T993 411Q997 414 1004 414Q1015 414 1023 405T1032 381Q1032 369 1024 355T993 328Q894 269 801 209T626 99T473 18T351 -14Q316 -14 290 1T245 49T217 135T207
266Q207 278 208 304T213 361T222 421T234 466Q227 462 214 454T182 436T144 413T104 389L0 328ZM670 737Q672 743 672 750Q672 775 664 787T635 799Q612 799 582 782T524 730T473 645T442 528Q483 549 522 576T592 632T644 688T670 737Z" />
<glyph unicode="f" glyph-name="f" horiz-adv-x="1149" d="M771 865Q930 956 1056 1042T1271 1209T1407 1365T1454 1509Q1454 1526 1450 1546T1429 1584T1378 1614T1283 1626Q1214 1626 1156 1591T1047 1496T956 1358T880 1196T819 1026T771 865ZM1149 411Q1162
416 1167 416Q1179 416 1186 408T1194 387Q1194 373 1184 358T1149 328L892 165Q838 131 781 94T667 20T559 -51T465 -115Q417 -326 346 -476T196 -722T41 -862T-93 -907Q-144 -907 -174 -875T-205 -783Q-205 -735 -168 -658T-65 -488T90 -297T285 -104Q297 -41
319 41T369 217T429 413T493 618L0 328Q-13 323 -18 323Q-31 323 -40 331T-49 352Q-49 364 -38 379T0 411Q73 454 147 497T289 581T417 656T518 716Q518 716 522 736Q525 755 531 787T548 862T569 948T594 1035T623 1114Q649 1176 687 1242T774 1371T879 1489T1000
1586T1133 1652T1276 1677Q1349 1677 1401 1663T1486 1624T1534 1571T1550 1511Q1550 1431 1516 1360T1423 1223T1286 1099T1120 985T940 879T761 777Q723 660 690 558T626 364T567 189T510 28Q549 52 597 81T697 141T803 205T907 268L1149 411ZM-102 -740Q-99
-784 -72 -784Q-47 -784 -7 -748T78 -645T169 -485T249 -275Q210 -312 169 -355T88 -444T15 -533T-46 -616T-87 -688T-102 -740Z" />
<glyph unicode="g" glyph-name="g" horiz-adv-x="1538" d="M1538 411Q1545 415 1555 415Q1567 415 1576 408T1586 387Q1586 374 1575 359T1538 328Q1489 299 1426 262T1289 180T1133 87T965 -15Q892 -132 808 -248T634 -469T456 -666T285 -824T132 -929T8 -967Q-30
-967 -60 -960T-110 -936T-141 -889T-152 -816Q-152 -791 -121 -750T-34 -657T99 -542T267 -411T462 -271T672 -126Q784 12 924 180Q886 145 841 114T749 60T654 22T566 8Q512 8 467 19T388 54T337 118T318 213Q318 270 334 322T379 422T442 510T515 585Q552 625
593 661T683 730L0 328Q-17 319 -28 319Q-53 319 -53 344Q-53 358 -41 376T0 411Q171 515 321 595T599 729T831 812T1015 840Q1121 840 1177 787T1233 621Q1233 573 1220 516T1182 395T1123 260T1046 117Q1190 208 1315 282T1538 411ZM517 205Q517 120 538 85T611
49Q648 49 691 67T778 113T863 177T940 247T999 310T1034 356Q1058 392 1073 420T1097 476T1109 537T1112 615Q1112 630 1103 647T1081 678T1052 701T1024 710Q906 710 815 669T659 557T559 396T517 205ZM14 -872Q40 -872 86 -834T203 -721T371 -534T596 -272Q531
-319 458 -371T313 -474T176 -576T60 -669T-20 -747T-50 -804Q-50 -813 -47 -825T-37 -847T-17 -865T14 -872Z" />
<glyph unicode="h" glyph-name="h" horiz-adv-x="1594" d="M207 136Q207 170 210 210T219 295T233 385T250 475L0 328Q-10 321 -22 321Q-34 321 -42 329T-51 349Q-51 363 -40 378T0 411L260 574Q276 620 306 698T380 871T482 1072T613 1282T773 1480T961 1647T1179
1761T1428 1804Q1540 1804 1623 1789T1760 1745T1840 1680T1867 1598Q1867 1529 1808 1454T1630 1306L492 605L432 220Q483 251 534 282T630 343T713 396T774 438Q785 448 803 461T845 485T896 504T952 512Q973 512 994 508T1031 487T1058 441T1069 360V102Q1079
108 1106 124T1173 164T1258 214T1352 268L1594 411Q1615 423 1630 423Q1653 423 1653 400Q1653 384 1640 366T1594 328Q1484 263 1384 204T1202 99T1063 25T983 -8Q972 -10 960 -11T936 -12Q900 -12 878 -3T843 23T826 61T821 106Q821 129 829 154T842 211L870
430Q719 324 594 242Q550 207 507 175T429 118T367 79T332 64Q313 64 291 66T251 75T220 97T207 136ZM510 733Q636 818 772 908T1047 1088T1325 1262T1595 1423Q1671 1480 1712 1529T1753 1617Q1753 1667 1677 1696T1436 1726Q1359 1726 1282 1697T1131 1616T986
1497T853 1350T735 1189T636 1024T559 868T510 733Z" />
<glyph unicode="i" glyph-name="i" horiz-adv-x="1124" d="M1124 328Q969 239 861 174T677 66T549 3T453 -18Q411 -18 382 -8T333 19T306 60T297 112Q297 133 306 155T328 200T357 248T385 303L537 643L0 328Q-13 323 -18 323Q-30 323 -39 331T-49 352Q-49 364
-39 379T0 411L259 562Q310 592 362 622T459 678T541 724T598 756H727Q731 753 734 746T737 725Q737 699 722 652T685 545T635 422T583 299Q559 242 533 185T481 68Q508 68 566 95T708 168T897 277T1124 411Q1128 415 1139 415Q1151 415 1161 407T1172 385Q1172
373 1162 359T1124 328ZM848 1106Q854 1106 870 1106T908 1103T952 1097T994 1084T1026 1062T1040 1030L895 920L829 889Q811 889 801 899T786 920L848 1106Z" />
<glyph unicode="j" glyph-name="j" horiz-adv-x="912" d="M757 725Q757 666 743 606T701 481T633 345T542 193Q657 263 751 318T912 411Q916 414 922 414Q933 414 944 405T955 381Q955 369 946 356T912 328Q880 309 832 279T724 208T593 120T446 19Q370 -97 282
-213T101 -435T-84 -633T-261 -792T-419 -898T-544 -937Q-607 -937 -635 -920T-663 -871Q-663 -832 -629 -776T-534 -651T-391 -505T-212 -345T-10 -178T203 -11Q249 60 294 138T385 303L538 645L0 328Q-7 324 -15 324Q-27 324 -37 332T-48 354Q-48 365 -38 380T0
411Q69 450 132 487T255 560L594 756Q611 766 637 772T687 779Q715 779 735 767T757 725ZM-518 -842Q-492 -842 -433 -811T-291 -708T-107 -517T106 -225Q19 -288 -64 -350T-221 -472T-359 -584T-467 -682T-538 -761T-564 -815Q-564 -842 -518 -842ZM848 1106Q854
1106 870 1106T908 1103T952 1097T994 1084T1026 1062T1040 1030L895 920L829 889Q811 889 801 899T786 920L848 1106Z" />
<glyph unicode="k" glyph-name="k" horiz-adv-x="1446" d="M578 750Q643 790 709 844T836 958T950 1082T1042 1203T1103 1310T1126 1393Q1126 1417 1113 1431T1069 1445Q964 1445 886 1392T750 1246T651 1025T578 750ZM1198 756Q1198 783 1161 783Q1125 783 1062
752T922 668T764 542T612 388T488 218T416 42Q413 27 398 15T362 -6T319 -18T279 -18T251 -1T245 34Q246 34 256 86Q264 132 291 248L359 541L0 328Q-10 321 -23 321Q-35 321 -42 328T-50 348Q-50 362 -39 378T0 411L365 626Q420 825 478 987T616 1263T806 1440T1076
1502Q1169 1502 1209 1473T1250 1395Q1250 1349 1220 1289T1137 1163T1017 1026T874 890T722 766T574 665L468 225Q490 315 532 394Q576 474 633 541T758 663T893 754T1028 812T1150 832Q1186 832 1215 823T1266 794T1299 744T1311 672Q1311 648 1282 619T1207
561T1109 505T1010 457Q1048 428 1064 397T1081 330Q1081 282 1039 227T930 109L980 138L1052 179L1136 228L1225 280L1446 411Q1453 415 1461 415Q1472 415 1481 407T1490 385Q1490 373 1480 358T1446 328L1173 165L1068 102L971 44L894 0Q862 -19 850 -25Q840
-30 831 -33T813 -36Q753 -36 726 -11T698 48Q698 68 716 86T776 123L842 184Q872 213 893 236T927 276T940 304Q940 337 926 350T895 371T863 389T849 425Q849 442 875 464T940 513L1024 568Q1069 598 1107 629T1172 692T1198 756Z" />
<glyph unicode="l" glyph-name="l" horiz-adv-x="1137" d="M1137 411Q1144 415 1152 415Q1164 415 1174 407T1184 385Q1184 373 1174 358T1137 328Q1086 299 1026 264T902 191T775 118T656 52T553 1T478 -29Q462 -34 449 -35T424 -37Q382 -37 355 -16T313 40T291
123T285 224Q285 296 292 370T305 508L88 380L0 328Q-7 324 -16 324Q-28 324 -37 332T-46 354Q-46 366 -36 380T0 411L311 594Q359 760 410 899T521 1150T652 1347T811 1488T1006 1573T1246 1602Q1312 1602 1357 1591T1430 1558T1471 1506T1484 1440Q1484 1395
1454 1344T1373 1237T1255 1126T1114 1014T964 908T818 813T690 734T594 677Q576 614 558 545T526 406T502 268T493 139Q493 115 497 98T513 81Q532 81 569 95T656 135T763 192T885 262T1012 337T1137 411ZM608 769Q668 801 750 853T921 967T1096 1099T1250 1234T1361
1359T1403 1463Q1403 1500 1365 1522T1239 1545Q1102 1545 1002 1496T829 1350T703 1108T608 769Z" />
<glyph unicode="m" glyph-name="m" horiz-adv-x="2225" d="M2225 411Q2238 416 2246 416Q2260 416 2271 409T2283 389Q2283 375 2253 351T2180 298T2091 243T2012 195Q1968 166 1913 126T1800 47T1685 -17T1582 -44Q1541 -44 1513 -15T1484 80Q1484 119 1496 171T1536
293Q1569 375 1593 437T1634 543T1658 615T1666 660Q1666 694 1641 694Q1616 694 1571 662T1471 576T1355 455T1239 313T1140 169T1073 40Q1069 30 1058 21T1033 4T1001 -8T968 -13Q941 -13 921 2T901 56Q901 88 913 129T938 208Q955 268 974 329T1011 442Q1031
501 1051 557Q1060 572 1070 589T1089 625T1102 660T1108 692Q1108 717 1085 717Q1038 717 978 684T853 597T724 476T606 340T513 209T459 102Q450 75 443 55T426 22T404 3T370 -4Q328 -4 314 19T299 80Q299 97 309 132T335 214T372 313T412 420T452 524T484 613L0
328Q-13 321 -25 321Q-37 321 -45 328T-54 347Q-54 360 -42 377T0 411L357 621Q370 631 387 641T424 659T464 672T504 677Q526 677 543 667T573 641T591 606T598 570Q598 552 596 535T586 492T565 429T531 334Q566 381 604 431T686 530T777 623T880 700T994 752T1122
772Q1142 772 1161 763T1196 733T1221 682T1231 609Q1231 560 1217 497T1167 352Q1238 456 1310 526T1451 643T1582 713T1694 750Q1722 750 1753 742T1809 719T1850 679T1867 623Q1867 614 1866 605T1862 586Q1850 544 1829 496T1784 397T1735 299T1689 208T1656
132T1643 79Q1643 55 1661 55Q1676 55 1707 74T1780 121T1869 184T1965 248L2225 411Z" />
<glyph unicode="n" glyph-name="n" horiz-adv-x="1756" d="M1209 648Q1171 648 1114 627T989 568T848 479T704 368T570 242T459 108Q454 103 454 86T449 49T427 15T374 0Q348 0 334 6T312 22T302 47T300 80Q300 98 310 133T336 214T372 313T412 419T451 522T483
612L0 328Q-5 327 -8 327T-14 326Q-28 326 -34 333T-41 352Q-41 366 -31 382T0 411Q150 500 247 557T404 650T492 702T537 727Q551 735 562 738T588 741Q617 741 635 724T654 686Q654 665 641 629T609 549T570 462T536 379Q530 364 527 355T519 333T506 303T483
251Q525 305 581 364T704 479T846 587T1002 676T1167 737T1334 760Q1385 760 1404 739T1424 680Q1424 650 1413 607T1383 514T1340 406T1290 290T1237 172T1187 59Q1244 82 1306 119T1438 202T1587 301T1756 411Q1763 415 1775 415Q1799 415 1799 388Q1799 374
1788 358T1756 328Q1637 254 1541 187T1366 68T1221 -14T1099 -45Q1065 -45 1041 -37T1002 -14T979 19T971 60Q971 83 980 105T1007 154Q1038 222 1076 296T1146 438T1200 557T1222 632Q1222 648 1209 648Z" />
<glyph unicode="o" glyph-name="o" horiz-adv-x="1451" d="M939 813Q996 813 1040 790T1115 728T1162 635T1178 522Q1178 487 1170 445T1147 359T1111 270T1063 189Q1082 199 1109 214T1166 246T1230 283T1296 320L1451 411Q1458 415 1470 415Q1493 415 1493 391Q1493
358 1451 328Q1415 304 1357 268T1232 198T1095 137T965 106Q887 48 782 13T537 -23Q468 -23 421 -11T344 24T302 80T289 158Q289 222 315 295T379 437T462 567T542 666Q510 638 452 599T320 516T164 423T0 328Q-12 323 -22 323Q-35 323 -42 330T-49 350Q-49 364
-38 379T0 411Q152 500 259 564T444 674T580 746T691 788T803 808T939 813ZM539 63Q602 63 662 89T779 160Q766 175 761 194T756 233Q756 268 779 285T834 303Q868 303 900 283Q932 306 961 338T1011 406T1045 480T1058 554Q1058 585 1047 613T1010 663T943 696T842
709Q793 709 745 683T652 614T569 515T502 400T458 284T442 180Q442 128 465 96T539 63Z" />
<glyph unicode="p" glyph-name="p" horiz-adv-x="1225" d="M0 411L530 749Q530 749 538 760Q545 770 560 785T596 818T646 851T708 876T784 886Q842 886 907 875T1028 833T1119 748T1156 607Q1156 566 1134 514T1071 405T973 292T848 184L1225 411Q1232 414 1240
414Q1251 414 1257 406T1264 386Q1264 372 1255 356T1225 328Q1101 254 1003 202T824 114T679 59T555 28T441 14T327 11Q286 -79 240 -168T151 -342T71 -504T11 -649Q8 -658 0 -674T-21 -706T-46 -733T-73 -745Q-90 -745 -108 -741T-142 -730T-168 -712T-178 -687Q-178
-681 -177 -680Q-166 -623 -134 -544T-55 -369T47 -168T160 47T270 264T367 471Q373 486 383 502T405 534T429 566T450 593Q433 584 389 558T284 495T149 415T0 328Q-6 325 -11 325Q-22 325 -31 334T-40 358Q-40 370 -31 384T0 411ZM849 770Q795 770 737 716T618
571T498 358T381 101Q440 101 506 118T639 166T765 241T872 338T946 453T974 581Q974 624 967 658T945 718T907 756T849 770Z" />
<glyph unicode="q" glyph-name="q" horiz-adv-x="1225" d="M1225 411Q1232 414 1240 414Q1251 414 1257 406T1264 386Q1264 372 1255 357T1225 328L959 155Q892 112 835 53T727 -74T634 -216T552 -366T482 -515T420 -652Q410 -675 386 -683T336 -691Q327 -691
316 -690T295 -686T277 -675T270 -654Q270 -643 278 -612T296 -545T315 -480T328 -443Q360 -368 384 -315T429 -223T470 -155T512 -99T563 -41T629 31Q571 5 517 -9T414 -23Q369 -23 332 -11T267 26T225 88T210 175Q210 275 246 366T343 538Q322 524 296 508T241
474T185 440T129 407L0 328Q-6 325 -11 325Q-22 325 -31 334T-40 358Q-40 370 -31 384T0 411Q186 520 325 603T562 744Q637 795 709 822T844 849Q916 849 961 806T1007 668Q1007 635 995 575T959 442T897 292T811 145L1225 411ZM795 750Q734 750 677 726T569 661T478
568T407 461T361 350T344 249Q344 211 353 180T383 125T434 89T507 76Q525 76 545 82T586 95T627 110T665 121Q707 207 743 288T805 441T846 571T861 671Q861 709 846 729T795 750Z" />
<glyph unicode="r" glyph-name="r" horiz-adv-x="1296" d="M1121 721Q1121 696 1112 663T1089 592T1059 515T1029 440T1006 371T997 317Q997 298 1005 287T1033 276Q1047 276 1072 286T1132 315T1208 358T1296 411Q1306 417 1316 417Q1327 417 1335 409T1344 389Q1344
376 1333 362T1296 328Q1166 231 1059 178T887 125Q835 125 805 141T775 191Q775 223 802 272T893 388Q917 428 931 475T951 568T960 652T962 714Q962 752 950 772T908 793Q876 793 846 765T785 686T724 568T663 421T598 256T529 83Q523 66 514 48T494 15T468 -11T437
-21Q399 -21 380 -4T361 52Q361 63 362 75T372 103L565 490Q603 588 646 652T725 755Q643 706 561 657T403 563T260 477T139 405T50 354T0 328Q-8 323 -17 323Q-28 323 -35 331T-43 352Q-43 366 -34 382T0 413L267 569Q319 600 372 631T471 690T554 738T609 770Q657
798 702 818T793 851T884 871T982 881Q1004 881 1028 868T1073 832T1107 781T1121 721Z" />
<glyph unicode="s" glyph-name="s" horiz-adv-x="967" d="M672 637Q672 595 678 575T691 540T705 506T712 448Q712 421 707 388T686 319T644 249T575 187L967 411Q974 415 981 415Q992 415 1000 407T1009 384Q1009 373 1000 357T967 328Q844 258 756 207T605 118T502
57T435 16Q387 -13 344 -23T259 -33Q227 -33 213 -22T198 2T214 27T257 39Q306 39 352 72T433 163T490 298T512 461Q512 474 517 511T535 591T566 675T613 737L0 328Q-10 321 -21 321Q-32 321 -39 329T-46 349Q-46 363 -36 380T0 411Q161 520 270 592T449 710L589
805Q620 818 654 825T717 833Q749 833 769 823T790 789Q790 781 772 763T731 723T691 677T672 637Z" />
<glyph unicode="t" glyph-name="t" horiz-adv-x="1104" d="M1083 1395Q1026 1395 975 1371T879 1305T793 1205T718 1080T654 939T600 790Q735 887 837 974T1008 1133T1111 1260T1146 1351Q1146 1371 1134 1383T1083 1395ZM1184 805Q1208 793 1208 776Q1208 750
1189 728T1138 689T1067 658T988 636T912 622Q872 617 852 618Q774 620 698 621L551 623Q521 511 504 432T479 294T468 192T466 109Q466 87 472 74T492 61Q541 61 600 94Q660 127 734 178L900 291Q1036 384 1104 411Q1109 413 1124 420Q1132 423 1139 423Q1161
423 1161 400Q1161 385 1148 365Q1134 346 1104 328Q951 236 878 184L707 60Q631 6 568 -26Q504 -58 439 -58Q383 -58 352 -28Q322 2 308 45T290 139T287 228Q287 304 295 379T318 523L161 424L0 328Q-5 325 -11 325Q-22 325 -32 334T-42 358Q-42 369 -33 383T0
411L177 512Q261 562 339 613L341 622L213 619Q203 619 194 618T177 617Q160 617 150 627T137 651Q137 662 154 672T202 690Q233 699 276 706T371 720Q431 908 501 1046T658 1274T854 1408T1098 1452Q1161 1452 1189 1433T1218 1378Q1218 1330 1176 1262T1057 1112T874
937T638 747Q702 753 768 758L898 769Q962 774 1023 780T1141 793Q1152 796 1157 801T1174 807Q1178 807 1184 805Z" />
<glyph unicode="u" glyph-name="u" horiz-adv-x="1753" d="M553 25Q592 30 650 56T777 125T921 224T1072 344T1217 478T1346 618Q1350 624 1351 639T1359 671T1380 700T1425 713Q1450 713 1465 707T1487 691T1497 666T1499 633Q1499 615 1491 584T1468 512T1436
424T1400 330T1364 236T1333 150Q1346 157 1371 172T1428 207T1497 250T1570 296L1753 411Q1760 415 1768 415Q1779 415 1788 407T1797 385Q1797 371 1787 357T1753 328L1281 51Q1273 46 1266 36T1249 15T1226 -2T1191 -10Q1171 -10 1158 0T1145 29Q1145 52 1156
89T1185 170T1225 263T1269 358T1309 446T1339 518Q1296 464 1238 401T1111 276T963 155T802 52T634 -20T465 -47Q417 -47 399 -22T381 47Q381 86 394 139T428 252T475 375T527 496T575 604T612 688Q565 663 501 626T358 543T190 442T0 328Q-11 322 -20 322Q-32
322 -41 330T-50 351Q-50 363 -39 378T0 411Q127 488 241 552T447 661T605 732T700 758Q760 758 784 734T809 668Q809 625 788 569T734 451T665 328T596 211T543 113T521 47Q521 24 544 24Q552 24 553 25Z" />
<glyph unicode="v" glyph-name="v" horiz-adv-x="1018" d="M633 106Q597 95 577 95Q548 58 516 28T444 -23T359 -55T254 -66Q232 -66 217 -41T190 25T171 116T159 216T154 310T152 382Q152 397 152 406T153 418L0 328Q-12 322 -21 322Q-46 322 -46 350Q-46 364
-36 380T0 411L155 502Q159 553 168 610T195 717T240 798T309 831Q332 831 347 827T370 813T382 782T385 731Q385 688 382 634T375 521T365 400T355 282T347 176T344 92Q344 63 346 46T356 29Q370 29 398 62T472 159Q462 177 458 196T453 233Q453 268 476 285T531
302Q551 302 563 298Q623 392 696 510T860 778L993 795L786 449Q746 382 713 321T648 204Q651 190 651 176Q651 176 666 186Q682 195 708 211T767 249T834 292L1018 411Q1028 417 1037 417Q1048 417 1055 409T1063 389Q1063 375 1053 360T1018 328Q1000 316 971
297T906 256T831 211T756 167T687 130T633 106Z" />
<glyph unicode="w" glyph-name="w" horiz-adv-x="2382" d="M1528 108Q1531 108 1546 125T1586 170T1641 236T1703 313T1766 392T1824 466Q1822 480 1821 493T1819 520Q1819 595 1845 652T1911 747T1994 806T2076 826Q2127 826 2148 805T2169 749Q2169 714 2152
669T2107 573T2041 468T1963 362Q1990 320 2025 294T2103 267Q2135 267 2170 287L2382 411Q2389 415 2396 415Q2407 415 2414 407T2422 384Q2422 371 2413 356T2382 328L2232 240Q2195 218 2160 209T2093 199Q2036 199 1989 223T1907 290Q1885 262 1856 228T1791
159T1716 91T1635 32T1552 -9T1469 -25Q1422 -25 1392 0T1343 70T1318 175T1311 307Q1311 407 1321 514T1342 728Q1318 728 1287 696T1218 612T1139 494T1049 358T951 222T846 103T735 19T620 -13Q593 -13 575 3T545 47T529 113T524 196Q524 265 533 341T554 486T577
608T594 682Q561 660 518 634T428 579T330 521T231 463L0 328Q-8 323 -15 321T-29 319Q-52 319 -52 343Q-52 357 -41 375T0 411L599 766Q601 767 622 779T675 805T742 830T806 842Q817 836 829 829T850 811T866 789T873 761Q873 758 873 755T872 748L765 155L892
302Q935 352 979 412T1071 533T1169 651T1275 753T1389 825T1515 852Q1552 852 1566 843T1581 816Q1581 800 1572 778T1552 730T1530 673T1516 610Q1514 585 1510 544T1502 455T1494 355T1490 257Q1490 225 1492 198T1498 151T1510 120T1528 108ZM1904 590Q1902
584 1902 578T1900 564Q1932 606 1944 632T1956 669Q1956 679 1950 679Q1942 679 1928 657T1904 590Z" />
<glyph unicode="x" glyph-name="x" horiz-adv-x="1755" d="M1755 411Q1762 415 1770 415Q1783 415 1792 407T1801 384Q1801 371 1791 357T1755 328Q1680 283 1631 253T1547 200T1486 160T1431 123T1365 81T1270 24Q1215 -13 1157 -31T1041 -49Q988 -49 939 -33T849
16T776 98T728 216Q653 162 579 115T435 32T301 -23T180 -43Q107 -43 62 3T16 150Q16 192 25 244T54 360L0 328Q-7 324 -12 324Q-21 324 -26 332T-32 352Q-32 367 -15 388T29 429T87 463T148 477Q182 477 206 451T230 360Q230 333 212 304T173 245T133 185T115
125Q115 81 156 81Q193 81 252 106T383 173T531 270T683 384Q690 426 690 469T692 559T698 661T719 780Q722 808 735 822T779 836Q786 836 794 830T808 816T818 799T822 786Q820 747 817 718T811 663T806 609T803 548Q803 528 804 504T807 450Q850 481 901 520T1008
601T1122 686T1236 771Q1239 773 1249 779T1271 791T1293 803T1306 808Q1360 808 1360 755Q1360 736 1352 724T1328 701Q1273 660 1211 613T1086 515T961 413T845 310Q880 192 939 129T1080 66Q1114 66 1151 77T1228 114Q1286 147 1325 170T1397 211T1460 247T1530
287T1622 338T1755 411Z" />
<glyph unicode="y" glyph-name="y" horiz-adv-x="1727" d="M1727 328Q1671 295 1619 264T1513 197T1405 122T1288 32Q1238 -98 1180 -237T1057 -508T922 -759T779 -967T630 -1108T479 -1161Q441 -1161 414 -1152T369 -1128T343 -1095T334 -1057Q334 -1028 351
-973T406 -842T504 -674T651 -476T850 -255T1109 -20Q1167 115 1208 207T1276 360T1320 457T1345 518Q1303 464 1245 401T1118 275T970 154T808 52T640 -20T471 -47Q423 -47 405 -22T387 47Q387 86 400 139T435 253T482 377T535 500T583 609T620 693Q575 664 507
624T356 536T183 435T0 328Q-14 320 -25 320Q-37 320 -44 327T-52 347Q-52 361 -41 377T0 411Q131 488 229 546T401 648T525 720T612 766T672 790T716 798Q746 798 765 786T795 754T811 712T815 668Q815 625 794 569T740 451T671 328T602 211T549 113T527 47Q527
24 550 24Q586 24 643 48T771 115T919 215T1074 339T1222 476T1352 618Q1356 624 1357 639T1365 671T1386 700T1431 713Q1456 713 1471 707T1493 691T1503 666T1505 633Q1505 635 1504 635Q1502 635 1489 599T1455 498T1403 345T1334 154Q1425 220 1521 283T1727
411Q1733 414 1739 414Q1750 414 1759 405T1769 382Q1769 370 1760 356T1727 328ZM830 -395Q796 -431 759 -487T686 -607T617 -739T560 -866T521 -970T506 -1036Q506 -1059 528 -1059Q554 -1059 583 -1035T644 -969T709 -873T775 -757T840 -633T903 -511Q941 -420
973 -341T1036 -192Q942 -280 830 -395Z" />
<glyph unicode="z" glyph-name="z" horiz-adv-x="1191" d="M0 328Q-13 323 -18 323Q-31 323 -40 330T-50 352Q-50 363 -40 378T0 411L467 686Q473 695 477 704T481 719Q488 756 501 787T529 841T557 880T579 900Q592 910 610 910Q626 910 637 900T649 874Q649
859 638 843Q635 839 630 833T620 816T611 790T607 752Q607 739 608 731T609 711Q609 710 625 694T666 650T719 587T772 512T813 432T830 354Q830 323 813 296T757 250T652 219T491 207H465Q546 174 594 148T676 98L1191 411Q1195 414 1203 414Q1214 414 1225 405T1236
382Q1236 371 1226 357T1191 328L716 44Q762 -34 784 -137T806 -359Q806 -474 786 -596T727 -833T632 -1052T504 -1232T344 -1354T157 -1399Q68 -1399 -6 -1374T-132 -1301T-214 -1183T-243 -1022Q-243 -899 -202 -789T-93 -579T64 -391T245 -226T431 -81T600 45Q586
64 564 83T510 119T436 146T339 163Q306 166 269 166T201 170T149 184T128 218Q128 237 151 253Q173 268 220 268Q223 268 226 268Q261 268 320 264T445 260Q487 260 528 264T602 282T654 318T674 378Q674 423 645 487T541 646L0 328ZM-25 -980Q-28 -1009 -28 -1044Q-28
-1087 -22 -1133T3 -1219T54 -1283T140 -1308Q221 -1308 292 -1254T422 -1111T527 -905T606 -666T655 -422T672 -199Q672 -144 668 -98T652 -16Q601 -54 534 -111T394 -241T250 -400T121 -580T24 -776T-25 -980Z" />
<glyph unicode="{" glyph-name="braceleft" horiz-adv-x="1131" d="M275 928Q315 921 363 899T454 839T524 749T553 630Q553 547 538 468T504 319T470 193T454 99Q454 36 467 -5T507 -71T574 -104T669 -114Q699 -114 715 -126T732 -153Q732 -173 704 -190T610
-208Q515 -208 453 -182T355 -108T305 4T290 146Q290 197 299 254T318 370T338 490T347 608Q347 737 278 813T61 914Q43 919 36 926T28 942Q28 966 70 971Q146 976 202 993T298 1037T364 1097T410 1168T441 1246T466 1326Q497 1468 546 1580T663 1769T821 1888T1023
1929Q1068 1929 1086 1916T1105 1887Q1105 1872 1090 1860T1052 1847Q981 1847 930 1812T839 1717T767 1581T703 1423T634 1260T548 1111T432 994T275 928Z" />
<glyph unicode="|" glyph-name="bar" horiz-adv-x="463" d="M364 1484L213 262L140 -321Q139 -335 132 -347T116 -369T95 -383T72 -388Q54 -388 42 -373T29 -322Q29 -318 34 -255T49 -86T73 164T105 471Q120 608 130 697T147 844T160 938T169 1005T179 1071T191
1163T209 1307T234 1528Q239 1575 247 1649T265 1807T287 1975T313 2128T342 2238T375 2281Q394 2281 406 2274T424 2255T432 2231T434 2204Q434 2177 429 2117T417 1982T401 1824T384 1671T371 1549T364 1484Z" />
<glyph unicode="}" glyph-name="braceright" horiz-adv-x="1074" d="M502 545Q518 606 547 648T614 718T694 763T779 793Q749 797 713 815T646 863T593 936T571 1031Q571 1117 586 1200T620 1357T654 1491T670 1592Q670 1664 661 1711T632 1785T583 1824T515 1835Q485
1835 469 1847T452 1874Q452 1894 480 1911T574 1929Q650 1929 700 1901T780 1821T822 1700T834 1545Q834 1479 825 1416T805 1290T785 1167T776 1043Q776 1001 786 963T822 894T891 842T1001 813Q1021 810 1029 803T1037 787Q1037 776 1027 768T998 755Q908 741
849 706T753 621T694 514T658 395Q623 254 574 142T458 -48T302 -167T101 -208Q56 -208 38 -195T19 -166Q19 -151 34 -139T72 -126Q153 -126 214 -82T326 48T418 259T502 545Z" />
<glyph unicode="~" glyph-name="asciitilde" horiz-adv-x="1296" d="M332 202Q332 185 320 177T293 169Q243 169 243 225Q243 271 257 306T294 366T345 402T404 415Q451 415 507 398T621 360T738 322T847 305Q867 305 879 311T899 347Q904 365 915 373T941 382Q964
382 985 362T1006 305Q1006 276 992 253T956 212T906 185T854 175Q830 175 805 178T754 186T706 196T665 207Q623 218 585 229T512 250T450 265T399 271Q367 271 350 256T332 202Z" />
<glyph unicode="&#xa0;" glyph-name="uni00A0" horiz-adv-x="600" />
<glyph unicode="&#xa1;" glyph-name="exclamdown" horiz-adv-x="733" d="M235 168Q204 58 167 12T85 -35Q62 -35 50 -28T33 -4T26 36T25 95Q25 117 42 175T88 315T155 492T235 687Q260 744 289 809T348 940T407 1072T461 1194Q466 1206 474 1212T489 1218Q505
1218 505 1199Q505 1196 505 1194T503 1187L395 771Q373 687 350 600T306 433T267 284T235 168ZM656 1605Q691 1605 707 1580T723 1522Q723 1495 714 1467T689 1415T649 1377T596 1362Q566 1362 545 1370T511 1391T493 1421T487 1456Q487 1487 502 1514T542 1561T597
1593T656 1605Z" />
<glyph unicode="&#xa2;" glyph-name="cent" horiz-adv-x="1350" d="M1038 988Q1031 970 1025 961T1013 946T1003 936T994 923Q985 907 972 884T944 832T911 773T875 711Q918 691 942 648T966 532Q966 469 952 436T892 403Q874 403 855 418T835 467Q835 512 831
545T818 603Q805 577 795 558T772 515T740 458T691 371T616 239T508 45Q526 33 549 27T605 20Q633 20 679 40T784 92T911 166T1050 251T1192 336T1330 411V328Q1297 308 1241 273T1116 195T970 109T819 30T676 -28T558 -51Q531 -51 507 -48T462 -38Q431 -93 404
-143T355 -234T318 -306T297 -351Q290 -367 275 -376T245 -386Q235 -386 228 -381T221 -362Q221 -355 223 -346T233 -325L402 -11Q371 8 349 35T313 94T293 163T286 236Q286 281 295 327T320 415T359 492T410 552L29 328V411Q131 475 235 533T437 634T622 703T779
729Q784 729 789 729T800 728Q833 789 871 855T944 977T1007 1069T1049 1105Q1056 1105 1061 1099T1067 1081Q1067 1070 1061 1047T1038 988ZM767 669Q758 672 749 672Q720 672 687 649T620 588T555 499T500 395T462 285T447 181Q447 158 450 138T462 99L702 545Q712
567 727 596T767 669Z" />
<glyph unicode="&#xa3;" glyph-name="sterling" horiz-adv-x="2595" d="M504 -248Q600 -248 682 -220T835 -142T967 -23T1082 130Q1004 190 925 238T764 321T598 375T425 394Q366 394 322 369T247 303T202 209T186 99Q186 36 205 -26T264 -138T363 -217T504 -248ZM2071
1628Q2027 1628 1987 1587T1908 1473T1828 1301T1743 1088Q1840 1132 1908 1195T2020 1326T2084 1457T2104 1564Q2104 1593 2096 1610T2071 1628ZM1130 208Q1187 308 1230 402T1308 578Q1102 596 950 610T682 638Q676 642 665 646T644 655T627 666T619 684Q619
693 644 699T715 710T825 715T970 717Q1061 717 1160 715T1362 710L1437 896Q1404 896 1355 899T1250 909T1138 927T1037 954T964 993T936 1043Q936 1067 950 1087T982 1108Q981 1108 991 1106Q1117 1061 1221 1042T1420 1023Q1456 1023 1491 1026Q1547 1157 1607
1272T1737 1474T1890 1611T2075 1661Q2138 1661 2168 1626T2198 1530Q2198 1485 2182 1431T2134 1320T2058 1206T1956 1098T1831 1004T1684 935Q1662 878 1639 821T1591 703Q1672 700 1745 698T1879 693T1983 690T2050 689Q2060 689 2087 689T2151 691T2230 693T2311
696T2384 697T2437 698Q2477 698 2477 676Q2477 659 2451 635T2372 589T2241 552T2060 536Q2007 536 1945 538T1815 543T1675 550T1528 560Q1526 551 1514 525T1481 459T1435 373T1379 278T1320 182T1260 95Q1311 54 1366 6T1480 -91T1600 -185T1724 -265T1852
-321T1983 -342Q2034 -342 2082 -329T2181 -284Q2290 -218 2358 -183T2459 -148Q2484 -148 2484 -167Q2484 -194 2428 -259T2245 -418Q2185 -463 2127 -481T2011 -500Q1938 -500 1866 -474T1724 -406T1585 -308T1452 -195T1324 -79T1204 27Q1138 -51 1063 -115T903
-226T721 -298T515 -324Q389 -324 296 -288T143 -193T53 -59T23 95Q23 172 51 246T133 377T267 470T451 505Q502 505 562 491T687 452T815 397T937 333T1045 268T1130 208Z" />
<glyph unicode="&#xa4;" glyph-name="currency" horiz-adv-x="1296" d="M842 1091Q863 1086 883 1081T921 1068Q966 1143 991 1184T1031 1245T1057 1269T1085 1273Q1107 1273 1116 1267T1126 1244Q1126 1233 1122 1220T1113 1195T1103 1174T1094 1159L1007 1028Q1098
974 1138 899T1179 738Q1179 667 1154 596T1082 459T971 340T828 250Q832 240 841 222T860 180T878 131T888 81Q888 78 886 73T879 63T871 54T862 50Q850 50 818 88T741 219Q706 210 669 205T593 200Q533 200 471 213T357 246Q313 183 284 145T236 86T207 58T192
51Q187 51 181 55T168 65T158 77T154 88Q154 105 169 133T203 190T243 247T273 289Q189 343 153 414T116 566Q116 630 138 695T200 820T296 932T420 1024L377 1117Q372 1128 365 1151T358 1197Q358 1212 363 1221T383 1230Q407 1230 422 1218T450 1185T473 1132T500
1062Q551 1082 605 1093T717 1105Q746 1105 777 1102T842 1091ZM974 779Q974 848 960 896T922 975T863 1020T790 1034Q739 1034 683 1013T572 955T467 869T379 761T318 641T295 515Q295 452 309 408T348 335T407 293T481 280Q531 280 587 299T698 353T803 434T891
536T951 653T974 779Z" />
<glyph unicode="&#xa5;" glyph-name="yen" horiz-adv-x="2304" d="M804 -322Q788 -311 783 -304T777 -279Q777 -268 798 -261T852 -251T929 -246T1017 -244Q1066 -244 1141 -246T1304 -251L1355 -147Q1326 -146 1305 -146T1269 -145Q1259 -145 1238 -145T1188
-143T1130 -140T1071 -134T1020 -125T987 -111Q979 -106 965 -105T937 -102T913 -97T903 -85Q903 -75 922 -69T974 -58T1046 -53T1128 -52Q1174 -52 1244 -53T1398 -58Q1455 59 1506 160T1600 337Q1523 273 1430 226T1245 148T1075 102T948 87Q872 87 816 122T728
233Q724 240 724 258Q724 295 750 349T815 467T899 603T984 745T1049 883T1075 1006Q1075 1077 1047 1133T971 1230T860 1291T727 1312Q662 1312 594 1293T463 1232T343 1126T245 972T179 766T154 505Q154 460 158 413T174 315L131 324Q115 394 108 458T101 582Q101
733 123 852T183 1061T273 1215T385 1319T512 1377T645 1396Q707 1396 767 1382T882 1341T983 1278T1062 1197T1115 1103T1134 998Q1134 939 1116 873T1071 738T1011 603T952 477T906 370T888 290Q888 264 910 248T964 224T1028 212T1084 209Q1183 209 1280 250T1471
358T1652 512T1815 688T1957 864T2071 1017T2151 1126T2193 1167Q2213 1167 2227 1168T2249 1170Q2260 1170 2260 1165Q2260 1159 2248 1141Q2215 1091 2193 1054T2153 987T2120 932T2088 879Q2008 757 1938 637T1805 399T1684 164T1571 -65Q1672 -69 1768 -73T1942
-82Q2032 -86 2112 -91Q2131 -93 2148 -106T2165 -132Q2165 -149 2137 -153T2048 -158Q2007 -158 1955 -157T1844 -153T1721 -150T1591 -148H1531L1478 -257Q1550 -260 1622 -262T1759 -268T1881 -275T1978 -280T2044 -284L2067 -285Q2087 -287 2105 -301T2123
-329Q2123 -342 2101 -349T2036 -359T1931 -362T1790 -363Q1709 -363 1621 -363T1448 -362H1426Q1411 -392 1391 -432T1352 -508L1307 -595L1374 -568L1404 -651L1258 -722Q1240 -789 1208 -850T1136 -965T1050 -1062T956 -1136T864 -1184T780 -1201Q729 -1201
697 -1168T665 -1059Q665 -972 696 -909T786 -797T929 -712T1121 -638L1251 -361Q1200 -361 1163 -360T1105 -358Q1096 -358 1073 -358T1020 -357T957 -353T893 -347T839 -337T804 -322ZM821 -1101Q848 -1101 883 -1070T955 -991T1023 -883T1077 -767Q1006 -791
950 -815T853 -867T792 -925T770 -993Q770 -1007 771 -1026T778 -1061T794 -1089T821 -1101Z" />
<glyph unicode="&#xa6;" glyph-name="brokenbar" horiz-adv-x="410" d="M147 471Q154 541 162 613T183 744T212 840T253 878Q276 878 288 870T306 849T313 820T314 787Q314 745 309 691T297 585T284 490T276 427Q253 241 238 110T213 -108T198 -246T191 -321Q190
-336 183 -348T167 -369T146 -383T123 -388Q105 -388 93 -373T80 -322Q83 -252 88 -171T101 8T121 220T147 471ZM276 1528Q281 1575 289 1649T307 1807T329 1975T355 2128T384 2238T417 2281Q436 2281 448 2274T466 2255T474 2231T476 2204Q476 2177 472 2117T460
1982T444 1824T428 1671T414 1549T406 1484Q395 1391 387 1327T374 1221T365 1156T359 1122T357 1107T356 1103T355 1099T353 1082Q352 1067 345 1055T328 1034T307 1020T284 1015Q261 1015 250 1034T239 1101Q239 1114 240 1142T245 1219T256 1344T276 1528Z"
/>
<glyph unicode="&#xa7;" glyph-name="section" horiz-adv-x="989" d="M602 320L606 307Q612 288 612 271T615 236Q615 186 596 144T545 66T470 5T382 -39T288 -66T198 -75Q165 -75 136 -70T86 -53T53 -24T41 18Q41 45 46 61T61 87T86 99T121 103Q144 103 164 91T184
52Q184 43 182 38T177 29T172 18T170 -2Q170 -10 176 -15T198 -21Q242 -21 290 -7T378 34T445 104T471 202Q471 245 457 274T420 326T373 369T325 414T289 472T274 553Q274 570 279 593T299 643T338 696T400 747Q387 772 380 797T372 849Q372 925 413 983T517 1080T653
1140T790 1161Q823 1161 851 1156T901 1139T934 1110T946 1068Q946 1014 928 994T867 973Q843 973 824 984T804 1023Q804 1032 806 1038T811 1051T816 1066T818 1088Q818 1096 812 1101T790 1107Q746 1107 698 1093T610 1051T543 981T517 884Q517 835 531 799T567
734T614 679T660 624T696 559T711 473Q711 456 708 437T695 397T663 355T606 314L602 320ZM398 576Q398 555 411 536T446 498T492 459T540 415L534 424Q563 435 576 448T589 478Q589 495 575 517T539 565T491 620T441 682L454 662Q424 636 411 616T398 576Z" />
<glyph unicode="&#xa8;" glyph-name="dieresis" horiz-adv-x="1386" d="M840 53Q811 53 791 61T758 83T739 115T733 154Q733 182 743 210T772 262T815 301T871 316Q902 316 925 308T962 284T984 250T991 210Q991 183 980 155T949 105T902 68T840 53ZM273 53Q253
53 239 60T216 80T203 109T199 143Q199 172 209 202T237 258T281 300T339 316Q373 316 396 308T433 285T453 253T460 214Q460 181 443 152T399 101T339 66T273 53Z" />
<glyph unicode="&#xa9;" glyph-name="copyright" horiz-adv-x="2146" d="M999 298Q930 298 879 323T795 393T745 498T728 627Q728 711 753 796T830 951T959 1063T1140 1107Q1240 1107 1289 1080T1339 1004Q1339 973 1329 949T1301 909T1261 884T1215 875Q1197
875 1178 890T1158 939Q1158 999 1144 1025T1106 1052Q1083 1052 1054 1029T993 968T933 880T880 774T842 662T828 555Q828 504 840 470T874 414T925 384T988 374Q1034 374 1084 387T1182 422T1272 467T1344 515Q1361 528 1377 528Q1389 528 1396 521T1404 502Q1404
486 1388 465T1343 421T1275 376T1191 337T1097 309T999 298ZM1232 1839Q1442 1839 1592 1776T1838 1604T1980 1353T2026 1050Q2026 898 1988 739T1878 431T1703 148T1472 -84T1191 -240T869 -298Q665 -298 522 -244T289 -97T157 123T116 392Q116 509 141 633T211
881T321 1124T464 1349T633 1545T822 1700T1023 1802T1232 1839ZM1232 1710Q1100 1710 982 1656T762 1508T580 1290T441 1027T353 740T322 455Q322 321 353 202T451 -6T622 -146T873 -198Q1015 -198 1145 -144T1389 4T1595 222T1754 486T1856 772T1892 1057Q1892
1191 1855 1310T1739 1518T1534 1658T1232 1710Z" />
<glyph unicode="&#xaa;" glyph-name="ordfeminine" horiz-adv-x="1100" d="M769 1191Q820 1191 863 1186T938 1172T988 1149T1006 1117Q1006 1112 999 1110T983 1108Q953 1108 924 1109T866 1111Q860 1092 849 1059T828 992T810 932T802 901Q802 890 796 868T780
812T761 737T743 646Q743 646 754 654Q765 661 789 679T852 726T949 799Q962 806 971 806Q982 806 987 800T992 783Q992 769 982 753T949 723L692 539Q660 521 640 521Q614 521 602 547T590 621Q590 692 613 801Q594 727 562 672T490 580T405 525T315 506Q275 506
240 519T177 557T135 619T119 706Q119 755 134 810T181 918T264 1021T387 1108T554 1168T769 1191ZM682 1114Q617 1114 559 1093T453 1037T365 956T299 861T258 762T243 670Q243 622 263 595T330 567Q356 567 386 584T446 628T504 690T557 761T598 831T622 892L682
1114Z" />
<glyph unicode="&#xab;" glyph-name="guillemotleft" horiz-adv-x="1707" d="M472 558Q562 625 632 675T757 759T852 810T924 827Q933 827 942 825T960 817T973 805T979 788Q979 772 949 747T870 687T758 611T630 519L593 491Q623 450 661 408T733 330T794 268T826
231Q867 175 867 147Q867 133 860 124T843 109T824 101T812 98Q786 98 742 133T645 221T541 335T447 450Q438 461 435 471T431 491Q431 503 435 513T446 533T460 548T472 558ZM847 548Q941 618 1011 670T1133 758T1224 810T1292 828Q1298 828 1309 826T1330 820T1348
809T1356 795Q1356 778 1323 750T1239 684T1123 602T995 509L958 481Q988 440 1023 397T1088 315T1142 249T1171 211Q1212 155 1212 127Q1212 113 1205 104T1188 89T1169 81T1157 78Q1139 78 1116 95T1065 140T1006 206T944 283T882 363T822 440Q813 451 810 461T806
481Q806 493 810 503T821 523T835 538T847 548Z" />
<glyph unicode="&#xac;" glyph-name="logicalnot" horiz-adv-x="1520" d="M249 468Q217 468 200 488T183 535Q183 550 189 564T207 590T239 609T286 617H607Q664 616 724 616T836 614L953 611Q1007 611 1053 611T1137 612Q1192 612 1232 610T1297 601T1335 579T1347
541Q1347 516 1334 480T1296 393Q1274 349 1252 317T1204 251T1150 174T1087 63Q1073 37 1055 19T1011 0Q999 0 985 5T971 32Q971 40 973 49T980 72Q981 76 993 98T1020 149T1050 203T1072 242Q1096 290 1116 326T1154 390T1187 435T1215 467L814 473Q664 472 526
470T249 468Z" />
<glyph unicode="&#xad;" glyph-name="uni00AD" horiz-adv-x="1707" d="M546 339Q536 346 536 362Q536 381 543 393T563 411T593 419T629 421Q789 421 904 420T1098 416T1222 410T1285 404Q1297 403 1302 395T1307 375Q1307 354 1296 335T1266 314Q1243 312 1209
311T1133 308T1045 307T951 306Q894 306 840 306T741 307H707Q688 307 666 308T623 312T581 321T546 339Z" />
<glyph unicode="&#xae;" glyph-name="registered" horiz-adv-x="2145" d="M2026 945Q2026 832 2003 715T1937 481T1832 255T1693 46T1523 -135T1326 -276T1106 -369T869 -403Q665 -403 522 -349T289 -202T157 18T116 287Q116 404 141 528T211 776T321 1019T464
1244T633 1440T822 1595T1023 1697T1232 1734Q1442 1734 1592 1671T1838 1499T1980 1248T2026 945ZM873 -303Q981 -303 1082 -272T1274 -183T1447 -49T1597 121T1720 317T1813 527T1872 743T1892 952Q1892 1086 1855 1205T1739 1413T1534 1553T1232 1605Q1100 1605
982 1551T762 1403T580 1185T441 922T353 635T322 350Q322 290 327 234T346 124Q407 125 454 155T536 228T594 315T632 392Q636 402 651 440T692 540T750 682T823 857T905 1057T995 1274Q1050 1285 1101 1289T1200 1294Q1329 1294 1430 1263T1601 1179T1708 1062T1745
928Q1745 873 1719 819T1638 720T1499 642T1299 596Q1295 584 1284 552T1258 476T1227 383T1196 290T1171 212T1157 165Q1154 154 1154 145Q1154 104 1200 104Q1235 104 1287 133L1608 321Q1614 324 1620 324Q1633 324 1633 310Q1633 291 1608 275Q1535 231 1463
188T1325 112T1202 57T1103 36Q1058 36 1032 64T1006 158Q1006 181 1009 208T1020 268Q1028 305 1045 352T1080 445T1115 532T1139 596Q1133 595 1127 595T1116 594Q1078 594 1051 608T1005 645T978 698T969 762Q969 781 972 801Q939 710 909 628T853 479T807 363T772
287Q744 235 697 198T592 136T474 99T356 86Q381 0 424 -71T531 -194T680 -274T873 -303ZM1130 1252Q1119 1200 1103 1152T1068 1059T1033 973T1003 893Q1026 932 1063 958T1151 985Q1205 985 1238 968T1290 922T1316 858T1323 786Q1323 738 1317 698T1311 637V633Q1376
654 1424 687T1503 760T1550 847T1566 941Q1566 1001 1542 1057T1472 1158T1357 1229T1200 1256Q1183 1256 1166 1255T1130 1252ZM1144 628Q1153 653 1164 683T1184 744T1200 803T1207 855Q1207 888 1192 908T1134 929Q1099 929 1073 915T1030 877T1003 825T994
765Q994 738 1001 713T1022 667T1058 635T1108 623Q1119 623 1144 628Z" />
<glyph unicode="&#xaf;" glyph-name="overscore" horiz-adv-x="1520" d="M472 15Q444 15 429 33T413 74Q413 87 418 100T435 123T463 140T505 147Q524 147 564 146T648 142T732 139T790 137Q872 137 925 135T1009 128T1052 112T1065 86Q1065 75 1058 65T1040 46T1015
33T987 27Q845 27 719 21T472 15Z" />
<glyph unicode="&#xb0;" glyph-name="degree" horiz-adv-x="1386" d="M864 1315Q864 1261 837 1217T768 1143T678 1096T586 1079Q526 1079 503 1099T479 1157Q479 1215 501 1266T561 1357T649 1418T756 1441Q808 1441 836 1405T864 1315ZM587 1116Q632 1116 669
1136T734 1187T777 1257T792 1331Q792 1359 775 1377T718 1396Q686 1396 656 1372T601 1312T561 1236T546 1166Q546 1144 556 1130T587 1116Z" />
<glyph unicode="&#xb1;" glyph-name="plusminus" horiz-adv-x="1136" d="M542 1247Q554 1263 570 1268T605 1273H621Q637 1272 648 1252T666 1196T676 1115T679 1016Q679 962 677 906T671 795Q697 793 734 792T813 789T894 787T967 785T1020 782T1040 778Q1059
778 1067 764T1075 727Q1075 712 1072 697T1063 669T1051 648T1036 639Q1015 638 977 638T888 636T780 632T660 626Q658 572 657 524T655 427T652 323T646 203Q646 180 628 171T586 161Q560 161 541 170T520 194Q518 219 516 256T512 336T508 423T505 508T502 579T499
628Q473 628 452 628T414 630Q403 630 378 630T321 632T254 636T186 643T128 654T89 669Q72 681 67 697T62 732Q62 736 62 739T63 748Q63 765 84 776T141 794T225 803T327 806Q369 806 412 805T500 801L503 922Q503 933 503 957T505 1014T509 1081T516 1149T527
1208T542 1247Z" />
<glyph unicode="&#xb2;" glyph-name="uni00B2" horiz-adv-x="1707" d="M873 45Q859 32 829 25T765 15T703 10T664 9Q652 9 632 9T584 8Q541 8 485 8T368 10T248 13T141 17T59 23T17 31Q9 33 7 41T4 57Q4 71 10 83T29 97L55 102Q68 104 85 107T126 116L127 117Q310
234 440 352T654 590T777 830T816 1072Q816 1121 803 1155T767 1210T711 1240T639 1249Q594 1249 540 1239T432 1212Q423 1209 415 1208T402 1207Q386 1207 382 1216T377 1237Q378 1242 380 1247T386 1255Q413 1273 449 1287T524 1311T606 1326T687 1331Q751 1331
810 1315T916 1264T990 1171T1018 1032Q1018 923 985 828T896 648T765 490T607 354T436 237T268 138Q293 142 329 145T406 152T490 159T572 164T642 168T692 171Q701 171 715 173T746 177T781 181T817 183Q851 183 877 172T903 130Q903 105 896 82T873 45Z" />
<glyph unicode="&#xb3;" glyph-name="uni00B3" horiz-adv-x="1707" d="M220 268Q274 263 295 250T316 216Q316 193 303 181T273 162T241 154T220 152Q216 152 212 145T203 127T197 109T194 97Q193 92 193 88T192 79Q192 42 218 16T283 -28T371 -53T465 -61Q544
-61 605 -23T709 77T772 216T794 373Q794 436 781 496T738 608T665 701T557 767L574 843Q659 846 726 871T840 934T912 1013T937 1093Q937 1122 924 1148T889 1193T836 1224T771 1235Q738 1235 704 1232T638 1223T578 1213T531 1202Q525 1200 520 1200Q490 1200
490 1224Q490 1232 497 1236Q594 1278 683 1296T852 1314Q916 1314 968 1296T1057 1247T1115 1178T1136 1098Q1136 1060 1114 1012T1042 920T911 841T713 794Q795 759 855 710T956 600T1015 473T1035 337Q1035 246 999 159T890 4T710 -105T458 -147Q383 -147 315
-132T194 -89T111 -19T80 75Q80 90 83 107Q92 156 109 187T147 236T186 261T220 268Z" />
<glyph unicode="&#xb4;" glyph-name="acute" horiz-adv-x="1706" d="M1104 801Q1107 801 1122 801T1158 799T1203 793T1247 781T1281 759T1296 727L856 145L829 121Q811 121 801 131T786 152L1104 801Z" />
<glyph unicode="&#xb5;" glyph-name="uni00B5" horiz-adv-x="1753" d="M260 -377Q254 -400 243 -430T216 -486T179 -531T130 -550Q95 -550 78 -529T60 -472Q60 -453 69 -424T94 -362T127 -295T163 -229T193 -174T213 -138Q303 35 372 167T492 400T578 572T634
697Q587 672 520 634T370 547T193 443T0 328Q-11 322 -20 322Q-32 322 -41 330T-50 351Q-50 363 -39 378T0 411Q127 488 241 552T447 661T605 732T700 758Q760 758 784 734T809 668Q809 625 788 569T734 451T665 328T596 211T543 113T521 47Q521 24 544 24Q585
24 644 49T772 117T918 219T1069 344T1216 480T1346 618Q1350 624 1351 639T1359 671T1380 700T1425 713Q1450 713 1465 707T1487 691T1497 666T1499 633Q1499 615 1491 584T1468 512T1436 424T1400 330T1364 236T1333 150Q1346 157 1371 172T1428 207T1497 250T1570
296L1753 411Q1760 415 1768 415Q1779 415 1788 407T1797 385Q1797 371 1787 357T1753 328L1250 10Q1218 -10 1191 -10Q1171 -10 1158 0T1145 29Q1145 52 1156 89T1185 170T1225 263T1269 358T1309 446T1339 518Q1303 473 1251 415T1134 297T997 178T848 75T696
1T547 -27Q512 -27 479 -20T415 3Q398 -50 375 -104T330 -209T288 -303T260 -377Z" />
<glyph unicode="&#xb6;" glyph-name="paragraph" horiz-adv-x="1168" d="M610 -19Q658 196 697 361T766 648T819 853T857 991T879 1073T886 1113Q886 1129 881 1138T866 1152T845 1158T817 1160Q791 1160 769 1159T732 1156Q717 1101 697 1020T656 844T611 645T567
442L462 -53Q459 -68 449 -80T423 -100T391 -113T355 -117Q337 -117 321 -113T292 -100T272 -78T264 -47Q264 -42 264 -38T266 -28L462 734Q382 742 315 766T197 828T119 912T91 1012Q91 1081 113 1133T175 1224T267 1287T381 1328T510 1349T645 1355Q690 1355
739 1353T836 1343T927 1321T1002 1281T1054 1220T1074 1131Q1074 1098 1065 1058L813 -44Q805 -79 777 -95T715 -111Q695 -111 676 -106T642 -90T618 -66T608 -33Q608 -29 610 -19Z" />
<glyph unicode="&#xb7;" glyph-name="middot.001" horiz-adv-x="1386" d="M599 480Q565 480 541 493T500 528T477 578T469 638Q469 689 486 742T535 840T612 913T715 942Q774 942 815 927T881 887T917 830T928 763Q928 705 898 654T821 564T715 503T599 480Z" />
<glyph unicode="&#xb8;" glyph-name="cedilla" horiz-adv-x="1346" d="M405 -337Q420 -282 453 -263T528 -244Q554 -244 581 -249T633 -260T681 -272T721 -277Q738 -277 748 -270T759 -242Q759 -217 739 -201T667 -185Q658 -185 650 -185T633 -186Q613 -186 600
-178T585 -135L649 6H738L650 -128Q710 -130 752 -139T820 -164T859 -200T871 -243Q871 -279 836 -311T747 -367T633 -405T519 -419Q468 -419 435 -404T402 -357Q402 -348 405 -337Z" />
<glyph unicode="&#xb9;" glyph-name="uni00B9" horiz-adv-x="999" d="M222 92Q223 108 228 117T241 131T257 141T271 154Q283 176 301 217T340 307T382 408T422 503T452 578T468 615Q486 646 510 695T564 804T625 929T691 1059T757 1181T820 1283T877 1353T924
1379Q948 1379 957 1352T967 1292Q961 1264 948 1218T907 1094T831 898T711 605Q696 569 669 511T608 385T533 249T452 126T372 36T298 1Q281 1 267 2T243 12T228 36T222 81V92Z" />
<glyph unicode="&#xba;" glyph-name="ordmasculine" horiz-adv-x="958" d="M651 1185Q702 1185 739 1170T800 1129T835 1066T847 989Q847 938 831 882T783 772T705 669T601 582T472 522T321 500Q265 500 225 511T160 543T123 593T111 658Q111 709 125 768T169
885T243 998T348 1093T483 1160T651 1185ZM323 570Q367 570 415 589T511 641T601 716T676 803T728 894T747 979Q747 1005 738 1027T707 1066T653 1091T571 1100Q531 1100 491 1079T415 1022T347 941T293 847T256 752T243 666Q243 624 262 597T323 570Z" />
<glyph unicode="&#xbb;" glyph-name="guillemotright" horiz-adv-x="1707" d="M1207 374Q1116 306 1046 256T921 172T827 122T755 105Q737 105 719 114T700 144Q700 160 730 185T809 245T920 321T1049 413L1086 441Q1056 481 1018 523T946 601T885 664T853 701Q812
757 812 785Q812 799 819 808T836 823T855 831T867 834Q884 834 909 818T966 774T1033 711T1102 636T1170 557T1232 482Q1240 471 1243 461T1248 441Q1248 416 1233 399T1207 374ZM832 384Q738 313 668 261T546 173T455 121T386 104Q380 104 370 106T349 112T331
123T323 137Q323 152 355 180T439 247T555 330T684 423L721 451Q691 491 656 534T591 616T537 683T508 721Q467 777 467 805Q467 819 474 828T491 843T509 851T521 854Q537 854 560 837T612 792T671 726T734 649T797 568T857 492Q865 481 868 471T873 451Q873 426
858 409T832 384Z" />
<glyph unicode="&#xbc;" glyph-name="onequarter" horiz-adv-x="2346" d="M1872 1828Q1862 1810 1855 1800T1841 1784T1830 1773T1819 1761Q1801 1738 1770 1694T1701 1595T1625 1483T1554 1377T1499 1294T1473 1253Q1453 1226 1403 1153T1283 973T1125 736T943
461T750 171T560 -113T386 -371T241 -581T139 -723T92 -775Q91 -776 87 -776Q85 -777 74 -777Q64 -777 54 -773T44 -757Q44 -746 58 -723Q169 -552 284 -375T517 -21T749 332T977 673T1194 995T1396 1290Q1416 1319 1446 1362T1513 1457T1589 1564T1668 1673T1745
1775T1814 1860T1867 1918T1900 1940Q1914 1940 1914 1926Q1914 1916 1906 1894T1872 1828ZM236 92Q237 108 242 117T255 131T271 141T285 154Q297 176 315 217T353 307T395 408T434 504T465 578T482 615Q500 646 524 695T578 804T639 929T705 1059T771 1181T834
1283T891 1353T938 1379Q962 1379 971 1352T981 1292Q975 1264 962 1218T921 1094T845 898T725 605Q710 569 683 511T622 385T547 249T466 126T386 36T312 1Q295 1 281 2T257 12T242 36T236 81V92ZM1039 149Q1100 188 1185 250T1376 399T1605 597T1867 846L2034
841Q2047 861 2060 871T2084 881Q2102 881 2102 859Q2102 851 2099 841Q2053 708 2008 584T1921 346T1840 134T1767 -50Q1778 -52 1788 -52T1809 -52H1840Q1889 -52 1946 -41T2058 -18T2160 6T2239 17Q2275 17 2281 -3L2284 -24Q2285 -27 2285 -35Q2285 -61 2259
-76T2189 -99T2091 -109T1979 -112Q1916 -112 1858 -112T1746 -110Q1703 -230 1668 -324T1605 -482T1561 -580T1536 -614Q1537 -615 1540 -615Q1541 -615 1542 -616Q1542 -619 1521 -622T1468 -630T1400 -636T1336 -639Q1299 -639 1290 -635Q1317 -597 1348 -549T1417
-436T1499 -290T1597 -103Q1446 -94 1331 -78T1127 -44Q1006 -135 927 -135Q854 -135 821 -109T787 -46Q787 -13 809 18T868 75T949 120T1039 149ZM1227 29Q1267 21 1309 12T1399 -5T1504 -20T1632 -34Q1711 105 1795 289T1961 704Q1883 618 1793 527T1607 347T1414
177T1227 29Z" />
<glyph unicode="&#xbd;" glyph-name="onehalf" horiz-adv-x="2000" d="M1860 1828Q1850 1810 1843 1800T1829 1784T1818 1773T1807 1761Q1789 1738 1758 1694T1689 1595T1613 1483T1542 1377T1487 1294T1461 1253Q1441 1226 1391 1153T1271 973T1113 736T931 461T738
171T548 -113T374 -371T229 -581T127 -723T80 -775Q79 -776 75 -776Q73 -777 62 -777Q52 -777 42 -773T32 -757Q32 -746 46 -723Q157 -552 272 -375T505 -21T737 332T965 673T1182 995T1384 1290Q1404 1319 1434 1362T1501 1457T1577 1564T1656 1673T1733 1775T1802
1860T1855 1918T1888 1940Q1902 1940 1902 1926Q1902 1916 1894 1894T1860 1828ZM161 92Q162 108 167 117T180 131T196 141T210 154Q222 176 240 217T278 307T320 408T359 504T390 578T407 615Q425 646 449 695T503 804T564 929T630 1059T696 1181T759 1283T816
1353T863 1379Q887 1379 896 1352T906 1292Q900 1264 887 1218T846 1094T770 898T650 605Q635 569 608 511T547 385T472 249T391 126T311 36T237 1Q220 1 206 2T182 12T167 36T161 81V92ZM1619 -684Q1605 -697 1575 -704T1511 -714T1449 -719T1410 -720Q1398 -720
1378 -720T1330 -721Q1287 -721 1231 -721T1114 -719T994 -716T887 -712T805 -706T763 -698Q755 -696 753 -688T750 -672Q750 -658 756 -646T775 -632L801 -627Q814 -625 831 -622T872 -613L873 -612Q1056 -495 1186 -377T1400 -139T1523 101T1562 343Q1562 392
1549 426T1513 481T1457 511T1385 520Q1340 520 1286 510T1178 483Q1169 480 1161 479T1148 478Q1132 478 1128 487T1123 508Q1124 513 1126 518T1132 526Q1159 544 1195 558T1270 582T1352 597T1433 602Q1497 602 1556 586T1662 535T1736 442T1764 303Q1764 194
1731 99T1642 -81T1511 -239T1353 -375T1182 -492T1014 -591Q1039 -587 1075 -584T1152 -577T1236 -570T1318 -565T1388 -560T1438 -558Q1447 -558 1461 -556T1492 -552T1527 -548T1563 -546Q1597 -546 1623 -557T1649 -599Q1649 -624 1642 -647T1619 -684Z" />
<glyph unicode="&#xbe;" glyph-name="threequarters" horiz-adv-x="2538" d="M2265 1828Q2255 1810 2248 1800T2234 1784T2223 1773T2212 1761Q2194 1738 2163 1694T2094 1595T2018 1483T1947 1377T1892 1294T1866 1253Q1846 1226 1796 1153T1676 973T1518 736T1336
461T1143 171T953 -113T779 -371T634 -581T532 -723T485 -775Q484 -776 480 -776Q478 -777 467 -777Q457 -777 447 -773T437 -757Q437 -746 451 -723Q562 -552 677 -375T910 -21T1142 332T1370 673T1587 995T1789 1290Q1809 1319 1839 1362T1906 1457T1982 1564T2061
1673T2138 1775T2207 1860T2260 1918T2293 1940Q2307 1940 2307 1926Q2307 1916 2299 1894T2265 1828ZM164 268Q218 263 239 250T260 216Q260 193 247 181T217 162T185 154T164 152Q160 152 156 145T147 127T141 109T138 97Q137 92 137 88T136 79Q136 42 162 16T227
-28T315 -53T409 -61Q488 -61 549 -23T653 77T716 216T738 373Q738 436 725 496T682 608T609 701T501 767L518 843Q603 846 670 871T784 934T856 1013T881 1093Q881 1122 868 1148T833 1193T780 1224T715 1235Q682 1235 648 1232T582 1223T522 1213T475 1202Q469
1200 464 1200Q434 1200 434 1224Q434 1232 441 1236Q538 1278 627 1296T796 1314Q860 1314 912 1296T1001 1247T1059 1178T1080 1098Q1080 1060 1058 1012T986 920T855 841T657 794Q739 759 799 710T900 600T959 473T979 337Q979 246 943 159T834 4T654 -105T402
-147Q327 -147 259 -132T138 -89T55 -19T24 75Q24 90 27 107Q36 156 53 187T91 236T130 261T164 268ZM1197 -81Q1258 -42 1343 20T1534 169T1763 367T2025 616L2192 611Q2205 631 2218 641T2242 651Q2260 651 2260 629Q2260 621 2257 611Q2211 478 2166 354T2079
116T1998 -96T1925 -280Q1936 -282 1946 -282T1967 -282H1998Q2047 -282 2104 -271T2216 -248T2318 -224T2397 -213Q2433 -213 2439 -233L2442 -254Q2443 -257 2443 -265Q2443 -291 2417 -306T2347 -329T2249 -339T2137 -342Q2074 -342 2016 -342T1904 -340Q1861
-460 1826 -554T1763 -712T1719 -810T1694 -844Q1695 -845 1698 -845Q1699 -845 1700 -846Q1700 -849 1679 -852T1626 -860T1558 -866T1494 -869Q1457 -869 1448 -865Q1475 -827 1506 -779T1575 -666T1657 -520T1755 -333Q1604 -324 1489 -308T1285 -274Q1164 -365
1085 -365Q1012 -365 979 -339T945 -276Q945 -243 967 -212T1026 -155T1107 -110T1197 -81ZM1385 -201Q1425 -209 1467 -218T1557 -235T1662 -250T1790 -264Q1869 -125 1953 59T2119 474Q2041 388 1951 297T1765 117T1572 -53T1385 -201Z" />
<glyph unicode="&#xbf;" glyph-name="questiondown" horiz-adv-x="1520" d="M982 1123Q1018 1123 1018 1110Q1018 1096 986 1067T902 994T782 890T646 754T509 585T390 382T305 145T273 -129Q273 -174 291 -214T350 -285T456 -333T615 -351Q730 -351 839 -323T1033
-237T1171 -96T1223 102Q1223 169 1201 215T1144 292T1071 339T997 366T941 379T918 387Q918 389 913 400T908 424Q908 435 916 444T948 453Q1070 453 1158 426T1304 354T1389 250T1417 125Q1417 47 1380 -25T1278 -159T1127 -271T941 -358T736 -413T526 -433Q429
-433 343 -412T192 -343T89 -221T51 -42Q51 75 87 187T182 402T318 600T477 774T642 918T793 1028T912 1098T982 1123ZM1133 1628Q1162 1628 1182 1617T1216 1588T1236 1546T1242 1496Q1242 1454 1228 1409T1187 1327T1122 1266T1037 1242Q988 1242 954 1254T899
1288T869 1336T859 1392Q859 1440 884 1483T948 1558T1037 1609T1133 1628Z" />
<glyph unicode="&#xc0;" glyph-name="Agrave" horiz-adv-x="3136" d="M3073 411Q3079 414 3085 414Q3097 414 3107 402T3117 376Q3117 361 3107 348T3076 321T3022 287T2943 241Q2915 224 2868 193T2762 124T2637 47T2505 -25T2377 -78T2265 -99Q2234 -99 2209
-90T2165 -61T2137 -8T2127 72Q2127 135 2148 214T2201 378T2274 548T2353 709T2425 844T2476 938Q2412 939 2342 943T2210 957T2099 979T2028 1010Q1934 896 1818 776T1569 542T1290 327T992 150T683 30T373 -15Q314 -15 260 -11T156 3T60 31T-29 77Q-46 88 -64
100T-96 124T-120 147T-131 169H-110Q-109 169 -87 161T-27 141T58 115T159 88T268 68T375 60Q503 60 624 105T862 227T1091 408T1314 628T1531 866T1746 1105T1960 1324T2175 1505T2395 1628T2620 1673Q2701 1673 2754 1652T2837 1594T2880 1511T2893 1411Q2893
1354 2882 1294T2857 1180T2830 1083T2813 1015L2812 1007Q2984 1037 3113 1087T3330 1201T3460 1335T3504 1479Q3504 1562 3445 1640T3267 1779T2967 1876T2543 1913Q2438 1913 2307 1902T2026 1871T1713 1828T1379 1779T1037 1729T699 1686T375 1656T78 1644Q-34
1644 -128 1654T-295 1689Q-306 1692 -336 1710T-405 1756T-486 1814T-563 1873T-621 1922T-644 1951Q-644 1954 -639 1954Q-632 1954 -616 1948T-569 1926Q-418 1849 -217 1818T245 1786Q383 1786 557 1800T930 1834T1349 1879T1799 1923T2266 1958T2736 1972Q2972
1972 3142 1933T3422 1829T3584 1679T3636 1503Q3636 1436 3610 1369T3532 1241T3405 1124T3234 1028T3021 959T2769 925Q2760 906 2734 863T2670 762T2589 635T2499 495T2412 355T2338 228T2286 128T2266 66Q2266 33 2280 19T2320 4Q2352 4 2401 24T2510 77T2639
153T2781 241T2928 331T3073 411ZM2517 1010Q2546 1071 2581 1139T2648 1275T2700 1405T2721 1516Q2721 1561 2704 1580T2658 1599Q2622 1599 2572 1574T2465 1507T2350 1411T2241 1299T2148 1184T2086 1077Q2098 1061 2141 1049T2245 1028T2377 1015T2517 1010ZM2885
1801Q2880 1790 2870 1780T2842 1770L2815 1794L2375 2376Q2376 2395 2389 2408T2422 2429T2465 2442T2509 2448T2546 2450T2567 2450L2885 1801Z" />
<glyph unicode="&#xc1;" glyph-name="Aacute" horiz-adv-x="3136" d="M3073 411Q3079 414 3085 414Q3097 414 3107 402T3117 376Q3117 361 3107 348T3076 321T3022 287T2943 241Q2915 224 2868 193T2762 124T2637 47T2505 -25T2377 -78T2265 -99Q2234 -99 2209
-90T2165 -61T2137 -8T2127 72Q2127 135 2148 214T2201 378T2274 548T2353 709T2425 844T2476 938Q2412 939 2342 943T2210 957T2099 979T2028 1010Q1934 896 1818 776T1569 542T1290 327T992 150T683 30T373 -15Q314 -15 260 -11T156 3T60 31T-29 77Q-46 88 -64
100T-96 124T-120 147T-131 169H-110Q-109 169 -87 161T-27 141T58 115T159 88T268 68T375 60Q503 60 624 105T862 227T1091 408T1314 628T1531 866T1746 1105T1960 1324T2175 1505T2395 1628T2620 1673Q2701 1673 2754 1652T2837 1594T2880 1511T2893 1411Q2893
1354 2882 1294T2857 1180T2830 1083T2813 1015L2812 1007Q2984 1037 3113 1087T3330 1201T3460 1335T3504 1479Q3504 1562 3445 1640T3267 1779T2967 1876T2543 1913Q2438 1913 2307 1902T2026 1871T1713 1828T1379 1779T1037 1729T699 1686T375 1656T78 1644Q-34
1644 -128 1654T-295 1689Q-306 1692 -336 1710T-405 1756T-486 1814T-563 1873T-621 1922T-644 1951Q-644 1954 -639 1954Q-632 1954 -616 1948T-569 1926Q-418 1849 -217 1818T245 1786Q383 1786 557 1800T930 1834T1349 1879T1799 1923T2266 1958T2736 1972Q2972
1972 3142 1933T3422 1829T3584 1679T3636 1503Q3636 1436 3610 1369T3532 1241T3405 1124T3234 1028T3021 959T2769 925Q2760 906 2734 863T2670 762T2589 635T2499 495T2412 355T2338 228T2286 128T2266 66Q2266 33 2280 19T2320 4Q2352 4 2401 24T2510 77T2639
153T2781 241T2928 331T3073 411ZM2517 1010Q2546 1071 2581 1139T2648 1275T2700 1405T2721 1516Q2721 1561 2704 1580T2658 1599Q2622 1599 2572 1574T2465 1507T2350 1411T2241 1299T2148 1184T2086 1077Q2098 1061 2141 1049T2245 1028T2377 1015T2517 1010ZM3154
2367Q3157 2367 3172 2367T3208 2365T3253 2359T3297 2347T3331 2325T3346 2293L2906 1711L2879 1687Q2861 1687 2851 1697T2836 1718L3154 2367Z" />
<glyph unicode="&#xc2;" glyph-name="Acircumflex" horiz-adv-x="3136" d="M3073 411Q3079 414 3085 414Q3097 414 3107 402T3117 376Q3117 361 3107 348T3076 321T3022 287T2943 241Q2915 224 2868 193T2762 124T2637 47T2505 -25T2377 -78T2265 -99Q2234 -99
2209 -90T2165 -61T2137 -8T2127 72Q2127 135 2148 214T2201 378T2274 548T2353 709T2425 844T2476 938Q2412 939 2342 943T2210 957T2099 979T2028 1010Q1934 896 1818 776T1569 542T1290 327T992 150T683 30T373 -15Q314 -15 260 -11T156 3T60 31T-29 77Q-46
88 -64 100T-96 124T-120 147T-131 169H-110Q-109 169 -87 161T-27 141T58 115T159 88T268 68T375 60Q503 60 624 105T862 227T1091 408T1314 628T1531 866T1746 1105T1960 1324T2175 1505T2395 1628T2620 1673Q2701 1673 2754 1652T2837 1594T2880 1511T2893 1411Q2893
1354 2882 1294T2857 1180T2830 1083T2813 1015L2812 1007Q2984 1037 3113 1087T3330 1201T3460 1335T3504 1479Q3504 1562 3445 1640T3267 1779T2967 1876T2543 1913Q2438 1913 2307 1902T2026 1871T1713 1828T1379 1779T1037 1729T699 1686T375 1656T78 1644Q-34
1644 -128 1654T-295 1689Q-306 1692 -336 1710T-405 1756T-486 1814T-563 1873T-621 1922T-644 1951Q-644 1954 -639 1954Q-632 1954 -616 1948T-569 1926Q-418 1849 -217 1818T245 1786Q383 1786 557 1800T930 1834T1349 1879T1799 1923T2266 1958T2736 1972Q2972
1972 3142 1933T3422 1829T3584 1679T3636 1503Q3636 1436 3610 1369T3532 1241T3405 1124T3234 1028T3021 959T2769 925Q2760 906 2734 863T2670 762T2589 635T2499 495T2412 355T2338 228T2286 128T2266 66Q2266 33 2280 19T2320 4Q2352 4 2401 24T2510 77T2639
153T2781 241T2928 331T3073 411ZM2517 1010Q2546 1071 2581 1139T2648 1275T2700 1405T2721 1516Q2721 1561 2704 1580T2658 1599Q2622 1599 2572 1574T2465 1507T2350 1411T2241 1299T2148 1184T2086 1077Q2098 1061 2141 1049T2245 1028T2377 1015T2517 1010ZM3074
2111Q3079 2092 3084 2067T3096 2006T3113 1918T3138 1796Q3138 1794 3138 1793T3139 1790Q3139 1771 3124 1761T3091 1751Q3079 1751 3070 1756T3056 1772Q3027 1850 2994 1927T2928 2083Q2834 2005 2742 1929T2553 1772Q2542 1764 2529 1764Q2515 1764 2502 1771T2489
1791Q2489 1798 2498 1809Q2548 1869 2585 1912T2651 1984T2699 2034T2734 2068T2761 2094T2787 2120Q2802 2137 2822 2154T2865 2186T2914 2210T2963 2220Q2998 2220 3027 2196T3074 2111Z" />
<glyph unicode="&#xc3;" glyph-name="Atilde" horiz-adv-x="3136" d="M3073 411Q3079 414 3085 414Q3097 414 3107 402T3117 376Q3117 361 3107 348T3076 321T3022 287T2943 241Q2915 224 2868 193T2762 124T2637 47T2505 -25T2377 -78T2265 -99Q2234 -99 2209
-90T2165 -61T2137 -8T2127 72Q2127 135 2148 214T2201 378T2274 548T2353 709T2425 844T2476 938Q2412 939 2342 943T2210 957T2099 979T2028 1010Q1934 896 1818 776T1569 542T1290 327T992 150T683 30T373 -15Q314 -15 260 -11T156 3T60 31T-29 77Q-46 88 -64
100T-96 124T-120 147T-131 169H-110Q-109 169 -87 161T-27 141T58 115T159 88T268 68T375 60Q503 60 624 105T862 227T1091 408T1314 628T1531 866T1746 1105T1960 1324T2175 1505T2395 1628T2620 1673Q2701 1673 2754 1652T2837 1594T2880 1511T2893 1411Q2893
1354 2882 1294T2857 1180T2830 1083T2813 1015L2812 1007Q2984 1037 3113 1087T3330 1201T3460 1335T3504 1479Q3504 1562 3445 1640T3267 1779T2967 1876T2543 1913Q2438 1913 2307 1902T2026 1871T1713 1828T1379 1779T1037 1729T699 1686T375 1656T78 1644Q-34
1644 -128 1654T-295 1689Q-306 1692 -336 1710T-405 1756T-486 1814T-563 1873T-621 1922T-644 1951Q-644 1954 -639 1954Q-632 1954 -616 1948T-569 1926Q-418 1849 -217 1818T245 1786Q383 1786 557 1800T930 1834T1349 1879T1799 1923T2266 1958T2736 1972Q2972
1972 3142 1933T3422 1829T3584 1679T3636 1503Q3636 1436 3610 1369T3532 1241T3405 1124T3234 1028T3021 959T2769 925Q2760 906 2734 863T2670 762T2589 635T2499 495T2412 355T2338 228T2286 128T2266 66Q2266 33 2280 19T2320 4Q2352 4 2401 24T2510 77T2639
153T2781 241T2928 331T3073 411ZM2517 1010Q2546 1071 2581 1139T2648 1275T2700 1405T2721 1516Q2721 1561 2704 1580T2658 1599Q2622 1599 2572 1574T2465 1507T2350 1411T2241 1299T2148 1184T2086 1077Q2098 1061 2141 1049T2245 1028T2377 1015T2517 1010ZM2719
2032Q2719 2015 2707 2007T2680 1999Q2630 1999 2630 2055Q2630 2101 2644 2136T2681 2196T2732 2232T2791 2245Q2838 2245 2894 2228T3008 2190T3125 2152T3234 2135Q3254 2135 3266 2141T3286 2177Q3291 2195 3302 2203T3328 2212Q3351 2212 3372 2192T3393 2135Q3393
2106 3379 2083T3343 2042T3293 2015T3241 2005Q3217 2005 3192 2008T3141 2016T3093 2026T3052 2037Q3010 2048 2972 2059T2899 2080T2837 2095T2786 2101Q2754 2101 2737 2086T2719 2032Z" />
<glyph unicode="&#xc4;" glyph-name="Adieresis" horiz-adv-x="3136" d="M3073 411Q3079 414 3085 414Q3097 414 3107 402T3117 376Q3117 361 3107 348T3076 321T3022 287T2943 241Q2915 224 2868 193T2762 124T2637 47T2505 -25T2377 -78T2265 -99Q2234 -99 2209
-90T2165 -61T2137 -8T2127 72Q2127 135 2148 214T2201 378T2274 548T2353 709T2425 844T2476 938Q2412 939 2342 943T2210 957T2099 979T2028 1010Q1934 896 1818 776T1569 542T1290 327T992 150T683 30T373 -15Q314 -15 260 -11T156 3T60 31T-29 77Q-46 88 -64
100T-96 124T-120 147T-131 169H-110Q-109 169 -87 161T-27 141T58 115T159 88T268 68T375 60Q503 60 624 105T862 227T1091 408T1314 628T1531 866T1746 1105T1960 1324T2175 1505T2395 1628T2620 1673Q2701 1673 2754 1652T2837 1594T2880 1511T2893 1411Q2893
1354 2882 1294T2857 1180T2830 1083T2813 1015L2812 1007Q2984 1037 3113 1087T3330 1201T3460 1335T3504 1479Q3504 1562 3445 1640T3267 1779T2967 1876T2543 1913Q2438 1913 2307 1902T2026 1871T1713 1828T1379 1779T1037 1729T699 1686T375 1656T78 1644Q-34
1644 -128 1654T-295 1689Q-306 1692 -336 1710T-405 1756T-486 1814T-563 1873T-621 1922T-644 1951Q-644 1954 -639 1954Q-632 1954 -616 1948T-569 1926Q-418 1849 -217 1818T245 1786Q383 1786 557 1800T930 1834T1349 1879T1799 1923T2266 1958T2736 1972Q2972
1972 3142 1933T3422 1829T3584 1679T3636 1503Q3636 1436 3610 1369T3532 1241T3405 1124T3234 1028T3021 959T2769 925Q2760 906 2734 863T2670 762T2589 635T2499 495T2412 355T2338 228T2286 128T2266 66Q2266 33 2280 19T2320 4Q2352 4 2401 24T2510 77T2639
153T2781 241T2928 331T3073 411ZM2517 1010Q2546 1071 2581 1139T2648 1275T2700 1405T2721 1516Q2721 1561 2704 1580T2658 1599Q2622 1599 2572 1574T2465 1507T2350 1411T2241 1299T2148 1184T2086 1077Q2098 1061 2141 1049T2245 1028T2377 1015T2517 1010ZM3314
1968Q3285 1968 3265 1976T3232 1998T3213 2030T3207 2069Q3207 2097 3217 2125T3246 2177T3289 2216T3345 2231Q3376 2231 3399 2223T3436 2199T3458 2165T3465 2125Q3465 2098 3454 2070T3423 2020T3376 1983T3314 1968ZM2747 1968Q2727 1968 2713 1975T2690
1995T2677 2024T2673 2058Q2673 2087 2683 2117T2711 2173T2755 2215T2813 2231Q2847 2231 2870 2223T2907 2200T2927 2168T2934 2129Q2934 2096 2917 2067T2873 2016T2813 1981T2747 1968Z" />
<glyph unicode="&#xc5;" glyph-name="Aring" horiz-adv-x="3136" d="M3073 411Q3079 414 3085 414Q3097 414 3107 402T3117 376Q3117 361 3107 348T3076 321T3022 287T2943 241Q2915 224 2868 193T2762 124T2637 47T2505 -25T2377 -78T2265 -99Q2234 -99 2209
-90T2165 -61T2137 -8T2127 72Q2127 135 2148 214T2201 378T2274 548T2353 709T2425 844T2476 938Q2412 939 2342 943T2210 957T2099 979T2028 1010Q1934 896 1818 776T1569 542T1290 327T992 150T683 30T373 -15Q314 -15 260 -11T156 3T60 31T-29 77Q-46 88 -64
100T-96 124T-120 147T-131 169H-110Q-109 169 -87 161T-27 141T58 115T159 88T268 68T375 60Q503 60 624 105T862 227T1091 408T1314 628T1531 866T1746 1105T1960 1324T2175 1505T2395 1628T2620 1673Q2701 1673 2754 1652T2837 1594T2880 1511T2893 1411Q2893
1354 2882 1294T2857 1180T2830 1083T2813 1015L2812 1007Q2984 1037 3113 1087T3330 1201T3460 1335T3504 1479Q3504 1562 3445 1640T3267 1779T2967 1876T2543 1913Q2438 1913 2307 1902T2026 1871T1713 1828T1379 1779T1037 1729T699 1686T375 1656T78 1644Q-34
1644 -128 1654T-295 1689Q-306 1692 -336 1710T-405 1756T-486 1814T-563 1873T-621 1922T-644 1951Q-644 1954 -639 1954Q-632 1954 -616 1948T-569 1926Q-418 1849 -217 1818T245 1786Q383 1786 557 1800T930 1834T1349 1879T1799 1923T2266 1958T2736 1972Q2972
1972 3142 1933T3422 1829T3584 1679T3636 1503Q3636 1436 3610 1369T3532 1241T3405 1124T3234 1028T3021 959T2769 925Q2760 906 2734 863T2670 762T2589 635T2499 495T2412 355T2338 228T2286 128T2266 66Q2266 33 2280 19T2320 4Q2352 4 2401 24T2510 77T2639
153T2781 241T2928 331T3073 411ZM2517 1010Q2546 1071 2581 1139T2648 1275T2700 1405T2721 1516Q2721 1561 2704 1580T2658 1599Q2622 1599 2572 1574T2465 1507T2350 1411T2241 1299T2148 1184T2086 1077Q2098 1061 2141 1049T2245 1028T2377 1015T2517 1010ZM3088
2007Q3088 1953 3061 1909T2992 1835T2902 1788T2810 1771Q2750 1771 2727 1791T2703 1849Q2703 1907 2725 1958T2785 2049T2873 2110T2980 2133Q3032 2133 3060 2097T3088 2007ZM2811 1808Q2856 1808 2893 1828T2958 1879T3001 1949T3016 2023Q3016 2051 2999
2069T2942 2088Q2910 2088 2880 2064T2825 2004T2785 1928T2770 1858Q2770 1836 2780 1822T2811 1808Z" />
<glyph unicode="&#xc6;" glyph-name="AE" horiz-adv-x="5143" d="M2257 26Q2248 11 2231 -1T2192 -22T2148 -35T2104 -40Q2077 -40 2059 -31T2040 -2Q2040 11 2052 32Q2094 100 2136 184T2220 357T2300 536T2371 703T2431 842T2476 938Q2412 939 2342 943T2210
957T2099 979T2028 1010Q1934 896 1818 776T1569 542T1290 327T992 150T683 30T373 -15Q314 -15 260 -11T156 3T60 31T-29 77Q-46 88 -64 100T-96 124T-120 147T-131 169H-110Q-109 169 -87 161T-27 141T58 115T159 88T268 68T375 60Q503 60 624 105T862 227T1091
408T1314 628T1531 866T1746 1105T1960 1324T2175 1505T2395 1628T2620 1673Q2681 1673 2726 1661T2803 1626T2854 1573T2882 1506Q2985 1581 3109 1624T3383 1668Q3437 1668 3485 1665T3576 1654Q3628 1768 3695 1869T3842 2047T4013 2167T4204 2212Q4276 2212
4320 2181T4389 2099Q4458 2184 4489 2254T4521 2381Q4521 2460 4461 2515T4289 2603T4018 2652T3662 2667Q3557 2667 3426 2656T3145 2625T2832 2582T2498 2533T2156 2483T1818 2440T1494 2410T1197 2398Q1085 2398 991 2408T824 2443Q813 2446 783 2464T714 2510T633
2568T556 2627T498 2676T475 2705Q475 2708 480 2708Q487 2708 503 2702T550 2680Q701 2603 902 2572T1364 2540Q1502 2540 1676 2554T2049 2588T2468 2633T2918 2677T3385 2712T3855 2726Q4042 2726 4186 2702T4427 2631T4574 2520T4624 2373Q4624 2292 4575 2198T4420
1997Q4424 1974 4425 1950T4427 1902Q4427 1837 4414 1766T4378 1633T4323 1533T4253 1493Q4233 1493 4219 1503T4195 1530T4182 1569T4177 1618Q4177 1657 4189 1704T4223 1803T4275 1912T4342 2027Q4325 2069 4290 2096T4191 2124Q4116 2124 4048 2082T3919 1970T3806
1808T3712 1618Q3842 1566 3906 1452T3971 1147Q3971 1096 3967 1042T3954 926Q3916 656 3834 523T3640 390Q3586 390 3543 426T3470 527T3424 685T3408 890Q3408 965 3415 1046T3439 1214T3480 1390T3541 1569Q3503 1574 3463 1576T3379 1579Q3287 1579 3207 1545T3061
1452T2942 1311T2853 1133Q2842 1094 2832 1064T2813 1016Q2759 822 2759 616Q2759 512 2773 412T2818 221T2893 55T3000 -76T3138 -163T3309 -194Q3388 -194 3478 -181T3660 -136T3843 -55T4014 67T4161 237T4272 460Q4260 454 4248 448T4220 442Q4173 442 4150
464T4127 512Q4127 534 4143 550T4191 567Q4211 567 4234 568T4279 570T4316 574T4339 581L4471 660Q4483 666 4493 666Q4504 666 4510 659T4516 640Q4516 622 4505 608T4470 578T4414 544T4336 498Q4337 490 4337 483T4337 469Q4337 350 4297 249T4188 66T4024
-79T3820 -184T3591 -248T3351 -270Q3244 -270 3141 -253T2945 -199T2774 -109T2639 18T2550 184T2518 390Q2518 426 2521 463T2532 543Q2496 462 2455 381T2375 229T2305 105T2257 26ZM3904 934Q3911 983 3914 1027T3917 1112Q3917 1203 3901 1272T3854 1393T3779
1479T3678 1536Q3633 1418 3605 1309T3565 1120Q3554 1039 3547 956T3540 791Q3540 723 3546 663T3565 557T3600 486T3654 460Q3687 460 3723 484T3793 563T3856 709T3904 934ZM2517 1010Q2546 1071 2581 1139T2648 1275T2700 1405T2721 1516Q2721 1561 2704 1580T2658
1599Q2622 1599 2572 1574T2465 1507T2350 1411T2241 1299T2148 1184T2086 1077Q2098 1061 2141 1049T2245 1028T2377 1015T2517 1010ZM4356 1786Q4359 1809 4361 1837T4364 1896V1918Q4307 1836 4273 1759T4238 1618Q4238 1595 4244 1580T4264 1565Q4280 1565
4294 1584T4320 1634T4341 1705T4356 1786Z" />
<glyph unicode="&#xc7;" glyph-name="Ccedilla" horiz-adv-x="1522" d="M1191 2045Q1300 2045 1382 2027T1527 1976Q1621 2027 1723 2068T1930 2139T2141 2184T2349 2200Q2373 2200 2386 2189T2400 2163Q2400 2152 2389 2143T2355 2134Q2276 2134 2183 2119T1993
2075T1798 2007T1612 1918Q1679 1858 1709 1778T1739 1604Q1739 1496 1708 1381T1622 1154T1493 942T1335 767T1159 648T979 603Q908 603 857 621T773 671T724 749T708 851Q708 929 733 1020T804 1207T917 1403T1065 1596T1245 1776T1451 1934Q1397 1959 1329 1972T1176
1986Q1040 1986 924 1948T710 1844T533 1686T391 1489T284 1265T209 1028T165 791T150 568Q150 460 186 361T292 186T461 64T690 18Q746 18 815 39T959 93T1113 169T1266 255T1408 340T1528 411Q1532 414 1538 414Q1549 414 1557 404T1565 380Q1565 367 1557 353T1528
328Q1458 289 1386 245T1240 157T1088 73T932 1T770 -48T602 -67Q414 -67 279 -16T55 123T-76 329T-118 581Q-118 739 -77 909T42 1241T234 1550T493 1806T814 1980T1191 2045ZM1092 735Q1165 735 1237 770T1373 867T1493 1009T1588 1182T1651 1370T1674 1558Q1674
1652 1643 1734T1542 1876Q1449 1812 1366 1734T1211 1572T1083 1399T986 1225T925 1061T903 918Q903 835 948 785T1092 735ZM202 -390Q217 -335 250 -316T325 -297Q351 -297 378 -302T430 -313T478 -325T518 -330Q535 -330 545 -323T556 -295Q556 -270 536 -254T464
-238Q455 -238 447 -238T430 -239Q410 -239 397 -231T382 -188L446 -47H535L447 -181Q507 -183 549 -192T617 -217T656 -253T668 -296Q668 -332 633 -364T544 -420T430 -458T316 -472Q265 -472 232 -457T199 -410Q199 -401 202 -390Z" />
<glyph unicode="&#xc8;" glyph-name="Egrave" horiz-adv-x="2007" d="M1756 193Q1709 193 1686 215T1663 263Q1663 285 1679 301T1727 318Q1747 318 1770 319T1815 321T1852 325T1875 332L2007 411Q2019 417 2029 417Q2040 417 2046 410T2052 391Q2052 373 2041
359T2006 329T1950 295T1872 249Q1873 241 1873 234T1873 220Q1873 83 1824 -25T1690 -215T1496 -356T1264 -450T1017 -504T778 -521Q643 -521 532 -489T334 -398T182 -259T75 -83T12 120T-9 339Q-9 469 18 599T99 850T232 1074T414 1254T643 1375T919 1419Q973
1419 1021 1416T1112 1405Q1164 1519 1231 1620T1378 1798T1549 1918T1740 1963Q1812 1963 1856 1932T1925 1850Q1964 1909 2003 1961T2074 2053T2129 2117T2159 2144Q2166 2136 2176 2126T2197 2105T2215 2083T2227 2061Q2212 2044 2183 2013T2117 1941T2038 1850T1956
1748Q1960 1725 1961 1701T1963 1653Q1963 1588 1950 1517T1914 1384T1859 1284T1789 1244Q1769 1244 1755 1254T1731 1281T1718 1320T1713 1369Q1713 1408 1725 1455T1759 1554T1811 1663T1878 1778Q1861 1820 1826 1847T1727 1875Q1652 1875 1584 1833T1455 1721T1342
1559T1248 1369Q1378 1317 1442 1203T1507 898Q1507 847 1503 793T1490 677Q1452 407 1370 274T1176 141Q1122 141 1079 177T1006 278T960 436T944 641Q944 716 951 797T975 965T1016 1141T1077 1320Q1039 1325 999 1327T915 1330Q815 1330 731 1291T577 1184T456
1024T367 824T313 601T295 367Q295 263 309 163T354 -28T429 -194T536 -325T674 -412T845 -443Q924 -443 1014 -430T1196 -385T1379 -304T1550 -182T1697 -12T1808 211Q1796 205 1784 199T1756 193ZM1440 685Q1447 734 1450 778T1453 863Q1453 954 1437 1023T1390
1144T1315 1230T1214 1287Q1169 1169 1141 1060T1101 871Q1090 790 1083 707T1076 542Q1076 474 1082 414T1101 308T1136 237T1190 211Q1223 211 1259 235T1329 314T1392 460T1440 685ZM1892 1537Q1895 1560 1897 1588T1900 1647V1669Q1843 1587 1809 1510T1774
1369Q1774 1346 1780 1331T1800 1316Q1816 1316 1830 1335T1856 1385T1877 1456T1892 1537ZM1713 2146Q1708 2135 1698 2125T1670 2115L1643 2139L1203 2721Q1204 2740 1217 2753T1250 2774T1293 2787T1337 2793T1374 2795T1395 2795L1713 2146Z" />
<glyph unicode="&#xc9;" glyph-name="Eacute" horiz-adv-x="2007" d="M1756 193Q1709 193 1686 215T1663 263Q1663 285 1679 301T1727 318Q1747 318 1770 319T1815 321T1852 325T1875 332L2007 411Q2019 417 2029 417Q2040 417 2046 410T2052 391Q2052 373 2041
359T2006 329T1950 295T1872 249Q1873 241 1873 234T1873 220Q1873 83 1824 -25T1690 -215T1496 -356T1264 -450T1017 -504T778 -521Q643 -521 532 -489T334 -398T182 -259T75 -83T12 120T-9 339Q-9 469 18 599T99 850T232 1074T414 1254T643 1375T919 1419Q973
1419 1021 1416T1112 1405Q1164 1519 1231 1620T1378 1798T1549 1918T1740 1963Q1812 1963 1856 1932T1925 1850Q1964 1909 2003 1961T2074 2053T2129 2117T2159 2144Q2166 2136 2176 2126T2197 2105T2215 2083T2227 2061Q2212 2044 2183 2013T2117 1941T2038 1850T1956
1748Q1960 1725 1961 1701T1963 1653Q1963 1588 1950 1517T1914 1384T1859 1284T1789 1244Q1769 1244 1755 1254T1731 1281T1718 1320T1713 1369Q1713 1408 1725 1455T1759 1554T1811 1663T1878 1778Q1861 1820 1826 1847T1727 1875Q1652 1875 1584 1833T1455 1721T1342
1559T1248 1369Q1378 1317 1442 1203T1507 898Q1507 847 1503 793T1490 677Q1452 407 1370 274T1176 141Q1122 141 1079 177T1006 278T960 436T944 641Q944 716 951 797T975 965T1016 1141T1077 1320Q1039 1325 999 1327T915 1330Q815 1330 731 1291T577 1184T456
1024T367 824T313 601T295 367Q295 263 309 163T354 -28T429 -194T536 -325T674 -412T845 -443Q924 -443 1014 -430T1196 -385T1379 -304T1550 -182T1697 -12T1808 211Q1796 205 1784 199T1756 193ZM1440 685Q1447 734 1450 778T1453 863Q1453 954 1437 1023T1390
1144T1315 1230T1214 1287Q1169 1169 1141 1060T1101 871Q1090 790 1083 707T1076 542Q1076 474 1082 414T1101 308T1136 237T1190 211Q1223 211 1259 235T1329 314T1392 460T1440 685ZM1892 1537Q1895 1560 1897 1588T1900 1647V1669Q1843 1587 1809 1510T1774
1369Q1774 1346 1780 1331T1800 1316Q1816 1316 1830 1335T1856 1385T1877 1456T1892 1537ZM1500 2630Q1503 2630 1518 2630T1554 2628T1599 2622T1643 2610T1677 2588T1692 2556L1252 1974L1225 1950Q1207 1950 1197 1960T1182 1981L1500 2630Z" />
<glyph unicode="&#xca;" glyph-name="Ecircumflex" horiz-adv-x="2007" d="M1756 193Q1709 193 1686 215T1663 263Q1663 285 1679 301T1727 318Q1747 318 1770 319T1815 321T1852 325T1875 332L2007 411Q2019 417 2029 417Q2040 417 2046 410T2052 391Q2052 373
2041 359T2006 329T1950 295T1872 249Q1873 241 1873 234T1873 220Q1873 83 1824 -25T1690 -215T1496 -356T1264 -450T1017 -504T778 -521Q643 -521 532 -489T334 -398T182 -259T75 -83T12 120T-9 339Q-9 469 18 599T99 850T232 1074T414 1254T643 1375T919 1419Q973
1419 1021 1416T1112 1405Q1164 1519 1231 1620T1378 1798T1549 1918T1740 1963Q1812 1963 1856 1932T1925 1850Q1964 1909 2003 1961T2074 2053T2129 2117T2159 2144Q2166 2136 2176 2126T2197 2105T2215 2083T2227 2061Q2212 2044 2183 2013T2117 1941T2038 1850T1956
1748Q1960 1725 1961 1701T1963 1653Q1963 1588 1950 1517T1914 1384T1859 1284T1789 1244Q1769 1244 1755 1254T1731 1281T1718 1320T1713 1369Q1713 1408 1725 1455T1759 1554T1811 1663T1878 1778Q1861 1820 1826 1847T1727 1875Q1652 1875 1584 1833T1455 1721T1342
1559T1248 1369Q1378 1317 1442 1203T1507 898Q1507 847 1503 793T1490 677Q1452 407 1370 274T1176 141Q1122 141 1079 177T1006 278T960 436T944 641Q944 716 951 797T975 965T1016 1141T1077 1320Q1039 1325 999 1327T915 1330Q815 1330 731 1291T577 1184T456
1024T367 824T313 601T295 367Q295 263 309 163T354 -28T429 -194T536 -325T674 -412T845 -443Q924 -443 1014 -430T1196 -385T1379 -304T1550 -182T1697 -12T1808 211Q1796 205 1784 199T1756 193ZM1440 685Q1447 734 1450 778T1453 863Q1453 954 1437 1023T1390
1144T1315 1230T1214 1287Q1169 1169 1141 1060T1101 871Q1090 790 1083 707T1076 542Q1076 474 1082 414T1101 308T1136 237T1190 211Q1223 211 1259 235T1329 314T1392 460T1440 685ZM1892 1537Q1895 1560 1897 1588T1900 1647V1669Q1843 1587 1809 1510T1774
1369Q1774 1346 1780 1331T1800 1316Q1816 1316 1830 1335T1856 1385T1877 1456T1892 1537ZM1847 2435Q1852 2416 1857 2391T1869 2330T1886 2242T1911 2120Q1911 2118 1911 2117T1912 2114Q1912 2095 1897 2085T1864 2075Q1852 2075 1843 2080T1829 2096Q1800
2174 1767 2251T1701 2407Q1607 2329 1515 2253T1326 2096Q1315 2088 1302 2088Q1288 2088 1275 2095T1262 2115Q1262 2122 1271 2133Q1321 2193 1358 2236T1424 2308T1472 2358T1507 2392T1534 2418T1560 2444Q1575 2461 1595 2478T1638 2510T1687 2534T1736 2544Q1771
2544 1800 2520T1847 2435Z" />
<glyph unicode="&#xcb;" glyph-name="Edieresis" horiz-adv-x="2007" d="M1756 193Q1709 193 1686 215T1663 263Q1663 285 1679 301T1727 318Q1747 318 1770 319T1815 321T1852 325T1875 332L2007 411Q2019 417 2029 417Q2040 417 2046 410T2052 391Q2052 373
2041 359T2006 329T1950 295T1872 249Q1873 241 1873 234T1873 220Q1873 83 1824 -25T1690 -215T1496 -356T1264 -450T1017 -504T778 -521Q643 -521 532 -489T334 -398T182 -259T75 -83T12 120T-9 339Q-9 469 18 599T99 850T232 1074T414 1254T643 1375T919 1419Q973
1419 1021 1416T1112 1405Q1164 1519 1231 1620T1378 1798T1549 1918T1740 1963Q1812 1963 1856 1932T1925 1850Q1964 1909 2003 1961T2074 2053T2129 2117T2159 2144Q2166 2136 2176 2126T2197 2105T2215 2083T2227 2061Q2212 2044 2183 2013T2117 1941T2038 1850T1956
1748Q1960 1725 1961 1701T1963 1653Q1963 1588 1950 1517T1914 1384T1859 1284T1789 1244Q1769 1244 1755 1254T1731 1281T1718 1320T1713 1369Q1713 1408 1725 1455T1759 1554T1811 1663T1878 1778Q1861 1820 1826 1847T1727 1875Q1652 1875 1584 1833T1455 1721T1342
1559T1248 1369Q1378 1317 1442 1203T1507 898Q1507 847 1503 793T1490 677Q1452 407 1370 274T1176 141Q1122 141 1079 177T1006 278T960 436T944 641Q944 716 951 797T975 965T1016 1141T1077 1320Q1039 1325 999 1327T915 1330Q815 1330 731 1291T577 1184T456
1024T367 824T313 601T295 367Q295 263 309 163T354 -28T429 -194T536 -325T674 -412T845 -443Q924 -443 1014 -430T1196 -385T1379 -304T1550 -182T1697 -12T1808 211Q1796 205 1784 199T1756 193ZM1440 685Q1447 734 1450 778T1453 863Q1453 954 1437 1023T1390
1144T1315 1230T1214 1287Q1169 1169 1141 1060T1101 871Q1090 790 1083 707T1076 542Q1076 474 1082 414T1101 308T1136 237T1190 211Q1223 211 1259 235T1329 314T1392 460T1440 685ZM1892 1537Q1895 1560 1897 1588T1900 1647V1669Q1843 1587 1809 1510T1774
1369Q1774 1346 1780 1331T1800 1316Q1816 1316 1830 1335T1856 1385T1877 1456T1892 1537ZM1821 2107Q1792 2107 1772 2115T1739 2137T1720 2169T1714 2208Q1714 2236 1724 2264T1753 2316T1796 2355T1852 2370Q1883 2370 1906 2362T1943 2338T1965 2304T1972
2264Q1972 2237 1961 2209T1930 2159T1883 2122T1821 2107ZM1254 2107Q1234 2107 1220 2114T1197 2134T1184 2163T1180 2197Q1180 2226 1190 2256T1218 2312T1262 2354T1320 2370Q1354 2370 1377 2362T1414 2339T1434 2307T1441 2268Q1441 2235 1424 2206T1380
2155T1320 2120T1254 2107Z" />
<glyph unicode="&#xcc;" glyph-name="Igrave" horiz-adv-x="1975" d="M2237 411Q2249 417 2259 417Q2270 417 2276 410T2282 391Q2282 376 2271 360T2237 328Q2180 290 2123 256T2006 192Q1956 166 1900 142T1786 99T1670 69T1557 57Q1509 57 1467 66T1386 99Q1325
2 1249 -76T1074 -209T852 -293T575 -323Q464 -323 381 -294T243 -215T161 -97T134 48Q134 131 162 221T243 402T370 577T535 735T734 864T959 951Q965 1077 1014 1194T1163 1406T1421 1563T1801 1644Q1802 1644 1803 1644T1806 1645Q1851 1645 1871 1630T1891
1579Q1891 1539 1871 1471T1816 1293Q1774 1164 1739 1045T1669 808Q1707 772 1740 726T1799 621T1842 490T1864 332Q1867 323 1867 315Q1867 304 1861 295T1843 285Q1831 285 1827 293T1817 314Q1775 396 1726 481T1619 646Q1576 507 1529 387T1422 160Q1455 111
1534 111Q1577 111 1630 124T1741 158T1858 206T1972 261Q2038 294 2103 331T2237 411ZM1107 -39Q1138 -3 1168 68T1233 232Q1171 299 1121 378T1034 545T978 725T958 909Q858 880 763 827T584 705T430 555T308 390T229 223T200 64Q200 2 223 -54T295 -154T417
-222T593 -247Q755 -247 885 -196T1107 -39ZM1204 983Q1224 983 1253 981T1318 974T1394 958T1476 931Q1515 1044 1552 1150T1625 1346T1693 1504T1755 1608Q1611 1607 1489 1556T1275 1418T1124 1216T1051 970Q1089 976 1127 979T1204 983ZM1271 334Q1313 449
1355 575T1443 835Q1380 883 1311 911T1161 940Q1131 940 1103 938T1048 930Q1047 919 1047 908T1047 884Q1047 745 1100 604T1271 334ZM1761 1966Q1756 1955 1746 1945T1718 1935L1691 1959L1251 2541Q1252 2560 1265 2573T1298 2594T1341 2607T1385 2613T1422
2615T1443 2615L1761 1966Z" />
<glyph unicode="&#xcd;" glyph-name="Iacute" horiz-adv-x="1975" d="M2237 411Q2249 417 2259 417Q2270 417 2276 410T2282 391Q2282 376 2271 360T2237 328Q2180 290 2123 256T2006 192Q1956 166 1900 142T1786 99T1670 69T1557 57Q1509 57 1467 66T1386 99Q1325
2 1249 -76T1074 -209T852 -293T575 -323Q464 -323 381 -294T243 -215T161 -97T134 48Q134 131 162 221T243 402T370 577T535 735T734 864T959 951Q965 1077 1014 1194T1163 1406T1421 1563T1801 1644Q1802 1644 1803 1644T1806 1645Q1851 1645 1871 1630T1891
1579Q1891 1539 1871 1471T1816 1293Q1774 1164 1739 1045T1669 808Q1707 772 1740 726T1799 621T1842 490T1864 332Q1867 323 1867 315Q1867 304 1861 295T1843 285Q1831 285 1827 293T1817 314Q1775 396 1726 481T1619 646Q1576 507 1529 387T1422 160Q1455 111
1534 111Q1577 111 1630 124T1741 158T1858 206T1972 261Q2038 294 2103 331T2237 411ZM1107 -39Q1138 -3 1168 68T1233 232Q1171 299 1121 378T1034 545T978 725T958 909Q858 880 763 827T584 705T430 555T308 390T229 223T200 64Q200 2 223 -54T295 -154T417
-222T593 -247Q755 -247 885 -196T1107 -39ZM1204 983Q1224 983 1253 981T1318 974T1394 958T1476 931Q1515 1044 1552 1150T1625 1346T1693 1504T1755 1608Q1611 1607 1489 1556T1275 1418T1124 1216T1051 970Q1089 976 1127 979T1204 983ZM1271 334Q1313 449
1355 575T1443 835Q1380 883 1311 911T1161 940Q1131 940 1103 938T1048 930Q1047 919 1047 908T1047 884Q1047 745 1100 604T1271 334ZM1879 2632Q1882 2632 1897 2632T1933 2630T1978 2624T2022 2612T2056 2590T2071 2558L1631 1976L1604 1952Q1586 1952 1576
1962T1561 1983L1879 2632Z" />
<glyph unicode="&#xce;" glyph-name="Icircumflex" horiz-adv-x="1975" d="M2237 411Q2249 417 2259 417Q2270 417 2276 410T2282 391Q2282 376 2271 360T2237 328Q2180 290 2123 256T2006 192Q1956 166 1900 142T1786 99T1670 69T1557 57Q1509 57 1467 66T1386
99Q1325 2 1249 -76T1074 -209T852 -293T575 -323Q464 -323 381 -294T243 -215T161 -97T134 48Q134 131 162 221T243 402T370 577T535 735T734 864T959 951Q965 1077 1014 1194T1163 1406T1421 1563T1801 1644Q1802 1644 1803 1644T1806 1645Q1851 1645 1871 1630T1891
1579Q1891 1539 1871 1471T1816 1293Q1774 1164 1739 1045T1669 808Q1707 772 1740 726T1799 621T1842 490T1864 332Q1867 323 1867 315Q1867 304 1861 295T1843 285Q1831 285 1827 293T1817 314Q1775 396 1726 481T1619 646Q1576 507 1529 387T1422 160Q1455 111
1534 111Q1577 111 1630 124T1741 158T1858 206T1972 261Q2038 294 2103 331T2237 411ZM1107 -39Q1138 -3 1168 68T1233 232Q1171 299 1121 378T1034 545T978 725T958 909Q858 880 763 827T584 705T430 555T308 390T229 223T200 64Q200 2 223 -54T295 -154T417
-222T593 -247Q755 -247 885 -196T1107 -39ZM1204 983Q1224 983 1253 981T1318 974T1394 958T1476 931Q1515 1044 1552 1150T1625 1346T1693 1504T1755 1608Q1611 1607 1489 1556T1275 1418T1124 1216T1051 970Q1089 976 1127 979T1204 983ZM1271 334Q1313 449
1355 575T1443 835Q1380 883 1311 911T1161 940Q1131 940 1103 938T1048 930Q1047 919 1047 908T1047 884Q1047 745 1100 604T1271 334ZM1881 2271Q1886 2252 1891 2227T1903 2166T1920 2078T1945 1956Q1945 1954 1945 1953T1946 1950Q1946 1931 1931 1921T1898
1911Q1886 1911 1877 1916T1863 1932Q1834 2010 1801 2087T1735 2243Q1641 2165 1549 2089T1360 1932Q1349 1924 1336 1924Q1322 1924 1309 1931T1296 1951Q1296 1958 1305 1969Q1355 2029 1392 2072T1458 2144T1506 2194T1541 2228T1568 2254T1594 2280Q1609 2297
1629 2314T1672 2346T1721 2370T1770 2380Q1805 2380 1834 2356T1881 2271Z" />
<glyph unicode="&#xcf;" glyph-name="Idieresis" horiz-adv-x="1975" d="M2237 411Q2249 417 2259 417Q2270 417 2276 410T2282 391Q2282 376 2271 360T2237 328Q2180 290 2123 256T2006 192Q1956 166 1900 142T1786 99T1670 69T1557 57Q1509 57 1467 66T1386
99Q1325 2 1249 -76T1074 -209T852 -293T575 -323Q464 -323 381 -294T243 -215T161 -97T134 48Q134 131 162 221T243 402T370 577T535 735T734 864T959 951Q965 1077 1014 1194T1163 1406T1421 1563T1801 1644Q1802 1644 1803 1644T1806 1645Q1851 1645 1871 1630T1891
1579Q1891 1539 1871 1471T1816 1293Q1774 1164 1739 1045T1669 808Q1707 772 1740 726T1799 621T1842 490T1864 332Q1867 323 1867 315Q1867 304 1861 295T1843 285Q1831 285 1827 293T1817 314Q1775 396 1726 481T1619 646Q1576 507 1529 387T1422 160Q1455 111
1534 111Q1577 111 1630 124T1741 158T1858 206T1972 261Q2038 294 2103 331T2237 411ZM1107 -39Q1138 -3 1168 68T1233 232Q1171 299 1121 378T1034 545T978 725T958 909Q858 880 763 827T584 705T430 555T308 390T229 223T200 64Q200 2 223 -54T295 -154T417
-222T593 -247Q755 -247 885 -196T1107 -39ZM1204 983Q1224 983 1253 981T1318 974T1394 958T1476 931Q1515 1044 1552 1150T1625 1346T1693 1504T1755 1608Q1611 1607 1489 1556T1275 1418T1124 1216T1051 970Q1089 976 1127 979T1204 983ZM1271 334Q1313 449
1355 575T1443 835Q1380 883 1311 911T1161 940Q1131 940 1103 938T1048 930Q1047 919 1047 908T1047 884Q1047 745 1100 604T1271 334ZM1901 2018Q1872 2018 1852 2026T1819 2048T1800 2080T1794 2119Q1794 2147 1804 2175T1833 2227T1876 2266T1932 2281Q1963
2281 1986 2273T2023 2249T2045 2215T2052 2175Q2052 2148 2041 2120T2010 2070T1963 2033T1901 2018ZM1334 2018Q1314 2018 1300 2025T1277 2045T1264 2074T1260 2108Q1260 2137 1270 2167T1298 2223T1342 2265T1400 2281Q1434 2281 1457 2273T1494 2250T1514
2218T1521 2179Q1521 2146 1504 2117T1460 2066T1400 2031T1334 2018Z" />
<glyph unicode="&#xd0;" glyph-name="Eth" horiz-adv-x="2497" d="M419 769Q402 781 397 797T392 832Q392 867 414 888T473 921T556 936T651 940Q697 940 742 939T836 934T938 926T1053 915Q1143 1044 1234 1172T1423 1419T1628 1644T1860 1835Q1741 1938 1569
1999T1171 2060Q1064 2060 949 2042T724 1986T515 1890T342 1750T224 1565T180 1331Q180 1251 196 1196T242 1107T312 1057T401 1041Q467 1041 542 1067T691 1136T833 1236T954 1353T1038 1474T1069 1585Q1069 1614 1055 1645Q1052 1649 1052 1654Q1052 1660 1057
1665T1068 1673T1082 1679T1096 1681Q1111 1681 1123 1671T1135 1640V1634Q1163 1565 1163 1493Q1163 1420 1134 1354T1056 1232T940 1132T799 1056T645 1007T489 990Q411 990 341 1009T219 1070T135 1176T104 1331Q104 1461 146 1572T260 1774T431 1934T641 2051T874
2123T1114 2148Q1353 2148 1558 2079T1929 1878Q1966 1898 2005 1913T2089 1937H2095Q2115 1937 2125 1926T2136 1898Q2136 1887 2123 1876T2091 1853T2050 1830T2010 1806Q2089 1729 2151 1638T2258 1442T2325 1220T2349 975Q2349 833 2305 715T2182 499T1997
326T1766 191Q1792 169 1825 160T1896 150Q1940 150 1989 161T2089 190T2189 232T2284 280Q2338 309 2390 341T2496 411V328Q2439 288 2381 253T2261 186Q2210 159 2152 134T2034 89T1912 57T1792 45Q1744 45 1700 55T1615 86L1567 111Q1464 76 1358 51T1149 11T948
-12T764 -20Q692 -20 619 -6T471 25Q399 -7 324 -25T168 -43Q148 -43 127 -37T89 -19T60 11T49 53Q49 81 67 98T112 125T168 138T221 141Q254 141 287 139T352 131Q434 189 509 257T654 401T789 559T918 727L744 730Q733 731 709 731T652 733T585 737T517 743T459
753T419 769ZM1525 289Q1572 315 1610 315Q1626 315 1650 307Q1770 391 1861 496T2013 718T2106 959T2137 1205Q2137 1361 2089 1501T1940 1756Q1850 1684 1765 1587T1598 1376T1436 1139T1273 891Q1376 879 1467 868T1630 846L1785 825Q1807 822 1826 808T1846
778Q1846 766 1834 759Q1823 753 1789 748T1705 740T1591 734T1456 730T1311 727T1164 726Q1098 629 1029 537T888 363T740 210T583 87Q640 76 696 69T811 61Q1003 61 1163 97T1463 199Q1460 206 1460 216Q1460 233 1475 251T1525 289ZM180 37Q215 37 253 61H238Q212
61 187 58T139 47Q149 41 159 39T180 37Z" />
<glyph unicode="&#xd1;" glyph-name="Ntilde" horiz-adv-x="3078" d="M3078 411Q3090 417 3100 417Q3111 417 3117 410T3123 391Q3123 377 3112 360T3078 328Q3021 294 2958 256T2830 180T2702 106T2582 43T2479 -3T2400 -24Q2400 -28 2375 -42T2314 -73T2236
-102T2163 -115Q2138 -115 2122 -105T2105 -68Q2105 -66 2106 -61T2107 -53L1860 1397Q1728 1060 1623 787T1419 307Q1508 286 1572 252T1679 175T1741 78T1761 -33Q1761 -96 1737 -169T1669 -318T1565 -468T1434 -606Q1426 -613 1411 -623T1378 -644T1344 -661T1317
-668Q1308 -668 1308 -660Q1308 -651 1322 -626Q1376 -534 1437 -453T1550 -299T1636 -158T1670 -26Q1670 22 1654 64T1604 141T1516 201T1386 240Q1345 109 1269 13T1099 -146T906 -241T716 -272Q658 -272 609 -259T523 -221T465 -158T444 -70Q444 -27 468 20T535
114T638 201T770 273T924 322T1093 341Q1135 341 1173 339T1246 334Q1303 448 1360 574T1473 828T1583 1082T1690 1322T1793 1534T1889 1703T1977 1814T2058 1855Q2080 1855 2095 1847T2118 1825T2130 1793T2134 1757Q2134 1741 2132 1726T2128 1698T2124 1677T2122
1667L2376 174L2918 1542Q2933 1578 2954 1618T3002 1693T3058 1751T3121 1774Q3155 1774 3175 1769T3207 1755T3223 1737T3230 1716L2454 90Q2531 114 2607 149T2760 227T2916 316T3078 411ZM1207 256Q1207 260 1203 260Q1129 260 1053 244T906 201T773 139T663
64T589 -14T562 -89Q562 -146 598 -173T692 -201Q753 -201 829 -171T978 -83T1113 60T1207 256ZM2439 2167Q2439 2150 2427 2142T2400 2134Q2350 2134 2350 2190Q2350 2236 2364 2271T2401 2331T2452 2367T2511 2380Q2558 2380 2614 2363T2728 2325T2845 2287T2954
2270Q2974 2270 2986 2276T3006 2312Q3011 2330 3022 2338T3048 2347Q3071 2347 3092 2327T3113 2270Q3113 2241 3099 2218T3063 2177T3013 2150T2961 2140Q2937 2140 2912 2143T2861 2151T2813 2161T2772 2172Q2730 2183 2692 2194T2619 2215T2557 2230T2506 2236Q2474
2236 2457 2221T2439 2167Z" />
<glyph unicode="&#xd2;" glyph-name="Ograve" horiz-adv-x="2335" d="M2597 411Q2609 417 2619 417Q2630 417 2636 410T2642 391Q2642 377 2631 360T2597 328L2374 196Q2338 175 2303 166T2237 156Q2177 156 2124 183T2023 256Q1874 154 1719 69T1419 -77T1145
-173T923 -207Q806 -207 716 -164T564 -45T470 133T438 356Q438 443 465 549T547 770T680 1003T864 1233T1096 1444T1374 1620Q1289 1649 1200 1674T1013 1719T807 1749T577 1760Q243 1760 -147 1738T-984 1688Q-990 1688 -992 1694T-996 1707T-998 1722T-998 1733Q-998
1738 -995 1742T-981 1747Q-978 1747 -928 1751T-793 1763T-596 1780T-357 1799T-98 1818T161 1834T399 1846T598 1851Q709 1851 818 1837T1037 1799T1255 1744T1472 1677Q1627 1744 1796 1782T2160 1821Q2302 1821 2417 1796T2614 1728T2740 1629T2785 1511Q2785
1487 2778 1462T2755 1414Q2793 1358 2793 1284Q2793 1159 2740 1033T2595 783T2380 543T2116 322Q2146 286 2182 265T2262 243Q2290 243 2322 255T2389 286T2456 326T2519 365L2597 411ZM946 -37Q1027 -37 1141 -10T1388 67T1663 189T1944 350Q1905 405 1874 467T1822
592T1789 712T1777 815Q1777 902 1795 986T1849 1148T1937 1291T2057 1408Q1948 1436 1848 1471T1648 1544Q1492 1467 1355 1365T1104 1149T899 915T747 683T651 471T618 299Q618 224 637 163T697 57T800 -12T946 -37ZM1957 805Q1957 772 1962 727T1980 630T2009
525T2051 423Q2179 514 2291 618T2488 835T2621 1069T2670 1315Q2670 1337 2666 1352Q2627 1341 2586 1341Q2474 1341 2375 1351T2182 1379Q2125 1330 2083 1264T2012 1122T1971 965T1957 805ZM2342 1712Q2179 1712 2032 1679T1744 1588Q1850 1554 1951 1524T2158
1468Q2219 1497 2287 1512T2433 1528Q2532 1528 2598 1510T2710 1460Q2727 1497 2727 1538Q2727 1583 2696 1615T2613 1669T2490 1701T2342 1712ZM2455 1479Q2407 1479 2364 1470T2282 1443Q2370 1427 2452 1418T2623 1409Q2628 1409 2632 1409T2642 1410Q2619
1442 2574 1460T2455 1479ZM2291 2083Q2286 2072 2276 2062T2248 2052L2221 2076L1781 2658Q1782 2677 1795 2690T1828 2711T1871 2724T1915 2730T1952 2732T1973 2732L2291 2083Z" />
<glyph unicode="&#xd3;" glyph-name="Oacute" horiz-adv-x="2335" d="M2597 411Q2609 417 2619 417Q2630 417 2636 410T2642 391Q2642 377 2631 360T2597 328L2374 196Q2338 175 2303 166T2237 156Q2177 156 2124 183T2023 256Q1874 154 1719 69T1419 -77T1145
-173T923 -207Q806 -207 716 -164T564 -45T470 133T438 356Q438 443 465 549T547 770T680 1003T864 1233T1096 1444T1374 1620Q1289 1649 1200 1674T1013 1719T807 1749T577 1760Q243 1760 -147 1738T-984 1688Q-990 1688 -992 1694T-996 1707T-998 1722T-998 1733Q-998
1738 -995 1742T-981 1747Q-978 1747 -928 1751T-793 1763T-596 1780T-357 1799T-98 1818T161 1834T399 1846T598 1851Q709 1851 818 1837T1037 1799T1255 1744T1472 1677Q1627 1744 1796 1782T2160 1821Q2302 1821 2417 1796T2614 1728T2740 1629T2785 1511Q2785
1487 2778 1462T2755 1414Q2793 1358 2793 1284Q2793 1159 2740 1033T2595 783T2380 543T2116 322Q2146 286 2182 265T2262 243Q2290 243 2322 255T2389 286T2456 326T2519 365L2597 411ZM946 -37Q1027 -37 1141 -10T1388 67T1663 189T1944 350Q1905 405 1874 467T1822
592T1789 712T1777 815Q1777 902 1795 986T1849 1148T1937 1291T2057 1408Q1948 1436 1848 1471T1648 1544Q1492 1467 1355 1365T1104 1149T899 915T747 683T651 471T618 299Q618 224 637 163T697 57T800 -12T946 -37ZM1957 805Q1957 772 1962 727T1980 630T2009
525T2051 423Q2179 514 2291 618T2488 835T2621 1069T2670 1315Q2670 1337 2666 1352Q2627 1341 2586 1341Q2474 1341 2375 1351T2182 1379Q2125 1330 2083 1264T2012 1122T1971 965T1957 805ZM2342 1712Q2179 1712 2032 1679T1744 1588Q1850 1554 1951 1524T2158
1468Q2219 1497 2287 1512T2433 1528Q2532 1528 2598 1510T2710 1460Q2727 1497 2727 1538Q2727 1583 2696 1615T2613 1669T2490 1701T2342 1712ZM2455 1479Q2407 1479 2364 1470T2282 1443Q2370 1427 2452 1418T2623 1409Q2628 1409 2632 1409T2642 1410Q2619
1442 2574 1460T2455 1479ZM2234 2715Q2237 2715 2252 2715T2288 2713T2333 2707T2377 2695T2411 2673T2426 2641L1986 2059L1959 2035Q1941 2035 1931 2045T1916 2066L2234 2715Z" />
<glyph unicode="&#xd4;" glyph-name="Ocircumflex" horiz-adv-x="2335" d="M2597 411Q2609 417 2619 417Q2630 417 2636 410T2642 391Q2642 377 2631 360T2597 328L2374 196Q2338 175 2303 166T2237 156Q2177 156 2124 183T2023 256Q1874 154 1719 69T1419 -77T1145
-173T923 -207Q806 -207 716 -164T564 -45T470 133T438 356Q438 443 465 549T547 770T680 1003T864 1233T1096 1444T1374 1620Q1289 1649 1200 1674T1013 1719T807 1749T577 1760Q243 1760 -147 1738T-984 1688Q-990 1688 -992 1694T-996 1707T-998 1722T-998 1733Q-998
1738 -995 1742T-981 1747Q-978 1747 -928 1751T-793 1763T-596 1780T-357 1799T-98 1818T161 1834T399 1846T598 1851Q709 1851 818 1837T1037 1799T1255 1744T1472 1677Q1627 1744 1796 1782T2160 1821Q2302 1821 2417 1796T2614 1728T2740 1629T2785 1511Q2785
1487 2778 1462T2755 1414Q2793 1358 2793 1284Q2793 1159 2740 1033T2595 783T2380 543T2116 322Q2146 286 2182 265T2262 243Q2290 243 2322 255T2389 286T2456 326T2519 365L2597 411ZM946 -37Q1027 -37 1141 -10T1388 67T1663 189T1944 350Q1905 405 1874 467T1822
592T1789 712T1777 815Q1777 902 1795 986T1849 1148T1937 1291T2057 1408Q1948 1436 1848 1471T1648 1544Q1492 1467 1355 1365T1104 1149T899 915T747 683T651 471T618 299Q618 224 637 163T697 57T800 -12T946 -37ZM1957 805Q1957 772 1962 727T1980 630T2009
525T2051 423Q2179 514 2291 618T2488 835T2621 1069T2670 1315Q2670 1337 2666 1352Q2627 1341 2586 1341Q2474 1341 2375 1351T2182 1379Q2125 1330 2083 1264T2012 1122T1971 965T1957 805ZM2342 1712Q2179 1712 2032 1679T1744 1588Q1850 1554 1951 1524T2158
1468Q2219 1497 2287 1512T2433 1528Q2532 1528 2598 1510T2710 1460Q2727 1497 2727 1538Q2727 1583 2696 1615T2613 1669T2490 1701T2342 1712ZM2455 1479Q2407 1479 2364 1470T2282 1443Q2370 1427 2452 1418T2623 1409Q2628 1409 2632 1409T2642 1410Q2619
1442 2574 1460T2455 1479ZM2294 2344Q2299 2325 2304 2300T2316 2239T2333 2151T2358 2029Q2358 2027 2358 2026T2359 2023Q2359 2004 2344 1994T2311 1984Q2299 1984 2290 1989T2276 2005Q2247 2083 2214 2160T2148 2316Q2054 2238 1962 2162T1773 2005Q1762
1997 1749 1997Q1735 1997 1722 2004T1709 2024Q1709 2031 1718 2042Q1768 2102 1805 2145T1871 2217T1919 2267T1954 2301T1981 2327T2007 2353Q2022 2370 2042 2387T2085 2419T2134 2443T2183 2453Q2218 2453 2247 2429T2294 2344Z" />
<glyph unicode="&#xd5;" glyph-name="Otilde" horiz-adv-x="2335" d="M2597 411Q2609 417 2619 417Q2630 417 2636 410T2642 391Q2642 377 2631 360T2597 328L2374 196Q2338 175 2303 166T2237 156Q2177 156 2124 183T2023 256Q1874 154 1719 69T1419 -77T1145
-173T923 -207Q806 -207 716 -164T564 -45T470 133T438 356Q438 443 465 549T547 770T680 1003T864 1233T1096 1444T1374 1620Q1289 1649 1200 1674T1013 1719T807 1749T577 1760Q243 1760 -147 1738T-984 1688Q-990 1688 -992 1694T-996 1707T-998 1722T-998 1733Q-998
1738 -995 1742T-981 1747Q-978 1747 -928 1751T-793 1763T-596 1780T-357 1799T-98 1818T161 1834T399 1846T598 1851Q709 1851 818 1837T1037 1799T1255 1744T1472 1677Q1627 1744 1796 1782T2160 1821Q2302 1821 2417 1796T2614 1728T2740 1629T2785 1511Q2785
1487 2778 1462T2755 1414Q2793 1358 2793 1284Q2793 1159 2740 1033T2595 783T2380 543T2116 322Q2146 286 2182 265T2262 243Q2290 243 2322 255T2389 286T2456 326T2519 365L2597 411ZM946 -37Q1027 -37 1141 -10T1388 67T1663 189T1944 350Q1905 405 1874 467T1822
592T1789 712T1777 815Q1777 902 1795 986T1849 1148T1937 1291T2057 1408Q1948 1436 1848 1471T1648 1544Q1492 1467 1355 1365T1104 1149T899 915T747 683T651 471T618 299Q618 224 637 163T697 57T800 -12T946 -37ZM1957 805Q1957 772 1962 727T1980 630T2009
525T2051 423Q2179 514 2291 618T2488 835T2621 1069T2670 1315Q2670 1337 2666 1352Q2627 1341 2586 1341Q2474 1341 2375 1351T2182 1379Q2125 1330 2083 1264T2012 1122T1971 965T1957 805ZM2342 1712Q2179 1712 2032 1679T1744 1588Q1850 1554 1951 1524T2158
1468Q2219 1497 2287 1512T2433 1528Q2532 1528 2598 1510T2710 1460Q2727 1497 2727 1538Q2727 1583 2696 1615T2613 1669T2490 1701T2342 1712ZM2455 1479Q2407 1479 2364 1470T2282 1443Q2370 1427 2452 1418T2623 1409Q2628 1409 2632 1409T2642 1410Q2619
1442 2574 1460T2455 1479ZM1837 2167Q1837 2150 1825 2142T1798 2134Q1748 2134 1748 2190Q1748 2236 1762 2271T1799 2331T1850 2367T1909 2380Q1956 2380 2012 2363T2126 2325T2243 2287T2352 2270Q2372 2270 2384 2276T2404 2312Q2409 2330 2420 2338T2446
2347Q2469 2347 2490 2327T2511 2270Q2511 2241 2497 2218T2461 2177T2411 2150T2359 2140Q2335 2140 2310 2143T2259 2151T2211 2161T2170 2172Q2128 2183 2090 2194T2017 2215T1955 2230T1904 2236Q1872 2236 1855 2221T1837 2167Z" />
<glyph unicode="&#xd6;" glyph-name="Odieresis" horiz-adv-x="2335" d="M2597 411Q2609 417 2619 417Q2630 417 2636 410T2642 391Q2642 377 2631 360T2597 328L2374 196Q2338 175 2303 166T2237 156Q2177 156 2124 183T2023 256Q1874 154 1719 69T1419 -77T1145
-173T923 -207Q806 -207 716 -164T564 -45T470 133T438 356Q438 443 465 549T547 770T680 1003T864 1233T1096 1444T1374 1620Q1289 1649 1200 1674T1013 1719T807 1749T577 1760Q243 1760 -147 1738T-984 1688Q-990 1688 -992 1694T-996 1707T-998 1722T-998 1733Q-998
1738 -995 1742T-981 1747Q-978 1747 -928 1751T-793 1763T-596 1780T-357 1799T-98 1818T161 1834T399 1846T598 1851Q709 1851 818 1837T1037 1799T1255 1744T1472 1677Q1627 1744 1796 1782T2160 1821Q2302 1821 2417 1796T2614 1728T2740 1629T2785 1511Q2785
1487 2778 1462T2755 1414Q2793 1358 2793 1284Q2793 1159 2740 1033T2595 783T2380 543T2116 322Q2146 286 2182 265T2262 243Q2290 243 2322 255T2389 286T2456 326T2519 365L2597 411ZM946 -37Q1027 -37 1141 -10T1388 67T1663 189T1944 350Q1905 405 1874 467T1822
592T1789 712T1777 815Q1777 902 1795 986T1849 1148T1937 1291T2057 1408Q1948 1436 1848 1471T1648 1544Q1492 1467 1355 1365T1104 1149T899 915T747 683T651 471T618 299Q618 224 637 163T697 57T800 -12T946 -37ZM1957 805Q1957 772 1962 727T1980 630T2009
525T2051 423Q2179 514 2291 618T2488 835T2621 1069T2670 1315Q2670 1337 2666 1352Q2627 1341 2586 1341Q2474 1341 2375 1351T2182 1379Q2125 1330 2083 1264T2012 1122T1971 965T1957 805ZM2342 1712Q2179 1712 2032 1679T1744 1588Q1850 1554 1951 1524T2158
1468Q2219 1497 2287 1512T2433 1528Q2532 1528 2598 1510T2710 1460Q2727 1497 2727 1538Q2727 1583 2696 1615T2613 1669T2490 1701T2342 1712ZM2455 1479Q2407 1479 2364 1470T2282 1443Q2370 1427 2452 1418T2623 1409Q2628 1409 2632 1409T2642 1410Q2619
1442 2574 1460T2455 1479ZM2306 2018Q2277 2018 2257 2026T2224 2048T2205 2080T2199 2119Q2199 2147 2209 2175T2238 2227T2281 2266T2337 2281Q2368 2281 2391 2273T2428 2249T2450 2215T2457 2175Q2457 2148 2446 2120T2415 2070T2368 2033T2306 2018ZM1739
2018Q1719 2018 1705 2025T1682 2045T1669 2074T1665 2108Q1665 2137 1675 2167T1703 2223T1747 2265T1805 2281Q1839 2281 1862 2273T1899 2250T1919 2218T1926 2179Q1926 2146 1909 2117T1865 2066T1805 2031T1739 2018Z" />
<glyph unicode="&#xd7;" glyph-name="multiply" horiz-adv-x="1072" d="M358 673Q326 717 326 738Q326 750 332 757T347 769T361 774T369 776Q388 776 414 755T470 699T532 622T597 539Q646 580 696 622T791 699T871 754T926 776Q927 776 932 775T941 772T950
764T954 751Q954 744 950 734T933 712Q929 708 912 692T862 646T778 572T655 466Q687 429 718 391T775 317T815 251T831 202Q831 193 826 188T812 178T796 173T781 171Q758 171 734 187T683 233T627 302T564 388Q512 342 466 303T380 234T308 188T253 171Q244 171
229 176T214 192Q214 205 237 232T297 293T382 367T478 443L507 465Q484 496 460 529T414 592T378 643T358 673Z" />
<glyph unicode="&#xd8;" glyph-name="Oslash" horiz-adv-x="2335" d="M2335 411Q2347 417 2357 417Q2368 417 2374 410T2380 391Q2380 377 2369 360T2335 328L2112 196Q2076 175 2041 166T1975 156Q1915 156 1862 183T1761 256Q1612 154 1457 69T1157 -77T883
-173T661 -207Q590 -207 530 -191T418 -145Q331 -229 258 -298T128 -418T37 -496T-8 -524Q-14 -524 -14 -517Q-13 -508 -4 -489T21 -446L49 -405Q121 -327 195 -249T344 -90Q261 -14 219 101T176 356Q176 444 204 552T287 777T424 1014T611 1248T848 1462T1132
1640Q1045 1671 954 1698T762 1746T551 1778T315 1790Q-19 1790 -409 1768T-1246 1718Q-1257 1718 -1258 1724T-1260 1733Q-1260 1738 -1257 1742T-1243 1747Q-1240 1747 -1190 1751T-1055 1763T-858 1780T-619 1799T-360 1818T-101 1834T137 1846T336 1851Q447
1851 556 1837T775 1799T993 1744T1210 1677Q1365 1744 1534 1782T1898 1821Q1975 1821 2044 1813T2174 1791Q2225 1838 2280 1888T2390 1985T2496 2075T2591 2148T2667 2197T2717 2216Q2728 2216 2736 2207T2744 2187Q2744 2173 2731 2149T2682 2079Q2668 2060
2657 2051T2637 2037T2620 2028T2603 2018Q2583 2001 2552 1972T2482 1906T2402 1828T2318 1744Q2416 1700 2469 1640T2523 1511Q2523 1487 2516 1462T2493 1414Q2531 1358 2531 1284Q2531 1159 2478 1033T2333 783T2118 543T1854 322Q1884 286 1920 265T2000 243Q2028
243 2060 255T2127 286T2194 326T2257 365L2335 411ZM1785 1410Q1679 1438 1582 1472T1386 1544Q1230 1467 1093 1365T842 1149T637 915T485 683T389 471T356 299Q356 213 381 146T460 33Q630 213 802 394T1142 750T1473 1092T1785 1410ZM1695 805Q1695 772 1700
727T1718 630T1747 525T1789 423Q1917 514 2029 618T2226 835T2359 1069T2408 1315Q2408 1337 2404 1352Q2365 1341 2324 1341Q2219 1341 2127 1349T1946 1374Q1914 1343 1876 1305T1798 1226Q1745 1132 1720 1023T1695 805ZM684 -37Q765 -37 879 -10T1126 67T1401
189T1682 350Q1643 405 1612 467T1560 592T1527 712T1515 815Q1515 886 1527 955Q1413 840 1289 716T1038 465T787 217T550 -17Q610 -37 684 -37ZM2080 1712Q1917 1712 1770 1679T1482 1588Q1576 1557 1667 1529T1852 1478Q1917 1544 1980 1606Q2000 1626 2028
1653T2089 1712H2080ZM2101 1525Q2134 1528 2171 1528Q2270 1528 2336 1510T2448 1460Q2465 1497 2465 1538Q2465 1568 2451 1592T2410 1636T2348 1670T2268 1694Q2238 1665 2212 1638T2163 1589T2125 1551T2101 1525ZM2193 1479Q2145 1479 2102 1470T2020 1443Q2108
1427 2190 1418T2361 1409Q2366 1409 2370 1409T2380 1410Q2357 1442 2312 1460T2193 1479Z" />
<glyph unicode="&#xd9;" glyph-name="Ugrave" horiz-adv-x="3226" d="M3380 1594Q3379 1594 3379 1595L3380 1596Q3380 1595 3380 1594ZM3104 -726Q3180 -726 3246 -701T3361 -634T3437 -541T3465 -436Q3465 -387 3439 -341T3355 -259T3206 -202T2983 -180Q2881
-180 2781 -182T2592 -189Q2601 -318 2649 -418T2770 -587T2929 -690T3104 -726ZM2634 71L2762 144L2869 204L2960 254L3043 302L3227 411Q3239 417 3249 417Q3260 417 3266 410T3272 391Q3272 377 3261 360T3227 328L3107 255L2968 174L2803 80L2606 -28L2597
-31Q2593 -60 2592 -86T2590 -136Q2699 -118 2846 -104T3157 -89Q3276 -89 3359 -112T3494 -173T3570 -261T3594 -366Q3594 -435 3561 -505T3470 -631T3338 -722T3177 -758Q3106 -758 3027 -742T2870 -695T2719 -616T2587 -507T2488 -368T2434 -198L2341 -204Q2331
-205 2323 -205T2306 -206Q2280 -206 2266 -202T2251 -184Q2251 -169 2290 -136T2429 -43Q2430 -9 2432 26L2434 94Q2436 127 2438 153T2444 196Q2363 136 2281 84T2118 -6T1959 -66T1809 -88Q1757 -88 1714 -64T1636 0T1575 95T1531 210T1504 335T1495 459Q1495
570 1520 696T1586 948T1675 1195T1772 1417T1858 1594T1919 1706Q1818 1721 1704 1736T1466 1763T1211 1782T944 1790Q768 1790 637 1777T413 1739T259 1680T165 1605T117 1516T103 1418Q103 1371 111 1323T128 1226T146 1131T154 1041Q154 980 131 928T43 838Q42
837 39 837Q34 837 31 840T27 846T25 853V857Q25 859 27 860T32 864L39 867Q39 869 29 886T5 934T-27 1004T-59 1091T-84 1191T-94 1299Q-94 1365 -76 1431T-13 1559T109 1674T301 1766T578 1828T951 1851Q1008 1851 1088 1847T1265 1834L1473 1814Q1584 1804 1702
1792L1942 1766L2186 1739L2130 1622L2058 1471L1978 1294L1897 1100Q1857 1001 1822 900T1759 701T1716 514T1700 347Q1700 286 1708 223T1734 109T1784 25T1863 -8Q1917 -8 1987 22T2138 105T2307 228T2486 378Q2535 552 2616 730T2801 1081T3026 1411T3278 1702Q3279
1705 3287 1705Q3306 1705 3321 1696T3346 1672T3364 1641T3376 1610Q3375 1611 3373 1611Q3364 1611 3338 1582T3274 1499T3187 1370L3085 1205L2974 1010Q2921 911 2863 792Q2829 722 2794 637Q2757 549 2723 452T2659 253T2612 59L2634 71ZM3376 1610Q3379 1607
3379 1597Q3379 1601 3376 1610ZM2796 1974Q2791 1963 2781 1953T2753 1943L2726 1967L2286 2549Q2287 2568 2300 2581T2333 2602T2376 2615T2420 2621T2457 2623T2478 2623L2796 1974Z" />
<glyph unicode="&#xda;" glyph-name="Uacute" horiz-adv-x="3226" d="M3380 1594Q3379 1594 3379 1595L3380 1596Q3380 1595 3380 1594ZM3104 -726Q3180 -726 3246 -701T3361 -634T3437 -541T3465 -436Q3465 -387 3439 -341T3355 -259T3206 -202T2983 -180Q2881
-180 2781 -182T2592 -189Q2601 -318 2649 -418T2770 -587T2929 -690T3104 -726ZM2634 71L2762 144L2869 204L2960 254L3043 302L3227 411Q3239 417 3249 417Q3260 417 3266 410T3272 391Q3272 377 3261 360T3227 328L3107 255L2968 174L2803 80L2606 -28L2597
-31Q2593 -60 2592 -86T2590 -136Q2699 -118 2846 -104T3157 -89Q3276 -89 3359 -112T3494 -173T3570 -261T3594 -366Q3594 -435 3561 -505T3470 -631T3338 -722T3177 -758Q3106 -758 3027 -742T2870 -695T2719 -616T2587 -507T2488 -368T2434 -198L2341 -204Q2331
-205 2323 -205T2306 -206Q2280 -206 2266 -202T2251 -184Q2251 -169 2290 -136T2429 -43Q2430 -9 2432 26L2434 94Q2436 127 2438 153T2444 196Q2363 136 2281 84T2118 -6T1959 -66T1809 -88Q1757 -88 1714 -64T1636 0T1575 95T1531 210T1504 335T1495 459Q1495
570 1520 696T1586 948T1675 1195T1772 1417T1858 1594T1919 1706Q1818 1721 1704 1736T1466 1763T1211 1782T944 1790Q768 1790 637 1777T413 1739T259 1680T165 1605T117 1516T103 1418Q103 1371 111 1323T128 1226T146 1131T154 1041Q154 980 131 928T43 838Q42
837 39 837Q34 837 31 840T27 846T25 853V857Q25 859 27 860T32 864L39 867Q39 869 29 886T5 934T-27 1004T-59 1091T-84 1191T-94 1299Q-94 1365 -76 1431T-13 1559T109 1674T301 1766T578 1828T951 1851Q1008 1851 1088 1847T1265 1834L1473 1814Q1584 1804 1702
1792L1942 1766L2186 1739L2130 1622L2058 1471L1978 1294L1897 1100Q1857 1001 1822 900T1759 701T1716 514T1700 347Q1700 286 1708 223T1734 109T1784 25T1863 -8Q1917 -8 1987 22T2138 105T2307 228T2486 378Q2535 552 2616 730T2801 1081T3026 1411T3278 1702Q3279
1705 3287 1705Q3306 1705 3321 1696T3346 1672T3364 1641T3376 1610Q3375 1611 3373 1611Q3364 1611 3338 1582T3274 1499T3187 1370L3085 1205L2974 1010Q2921 911 2863 792Q2829 722 2794 637Q2757 549 2723 452T2659 253T2612 59L2634 71ZM3376 1610Q3379 1607
3379 1597Q3379 1601 3376 1610ZM3105 2590Q3108 2590 3123 2590T3159 2588T3204 2582T3248 2570T3282 2548T3297 2516L2857 1934L2830 1910Q2812 1910 2802 1920T2787 1941L3105 2590Z" />
<glyph unicode="&#xdb;" glyph-name="Ucircumflex" horiz-adv-x="3226" d="M3380 1594Q3379 1594 3379 1595L3380 1596Q3380 1595 3380 1594ZM3104 -726Q3180 -726 3246 -701T3361 -634T3437 -541T3465 -436Q3465 -387 3439 -341T3355 -259T3206 -202T2983 -180Q2881
-180 2781 -182T2592 -189Q2601 -318 2649 -418T2770 -587T2929 -690T3104 -726ZM2634 71L2762 144L2869 204L2960 254L3043 302L3227 411Q3239 417 3249 417Q3260 417 3266 410T3272 391Q3272 377 3261 360T3227 328L3107 255L2968 174L2803 80L2606 -28L2597
-31Q2593 -60 2592 -86T2590 -136Q2699 -118 2846 -104T3157 -89Q3276 -89 3359 -112T3494 -173T3570 -261T3594 -366Q3594 -435 3561 -505T3470 -631T3338 -722T3177 -758Q3106 -758 3027 -742T2870 -695T2719 -616T2587 -507T2488 -368T2434 -198L2341 -204Q2331
-205 2323 -205T2306 -206Q2280 -206 2266 -202T2251 -184Q2251 -169 2290 -136T2429 -43Q2430 -9 2432 26L2434 94Q2436 127 2438 153T2444 196Q2363 136 2281 84T2118 -6T1959 -66T1809 -88Q1757 -88 1714 -64T1636 0T1575 95T1531 210T1504 335T1495 459Q1495
570 1520 696T1586 948T1675 1195T1772 1417T1858 1594T1919 1706Q1818 1721 1704 1736T1466 1763T1211 1782T944 1790Q768 1790 637 1777T413 1739T259 1680T165 1605T117 1516T103 1418Q103 1371 111 1323T128 1226T146 1131T154 1041Q154 980 131 928T43 838Q42
837 39 837Q34 837 31 840T27 846T25 853V857Q25 859 27 860T32 864L39 867Q39 869 29 886T5 934T-27 1004T-59 1091T-84 1191T-94 1299Q-94 1365 -76 1431T-13 1559T109 1674T301 1766T578 1828T951 1851Q1008 1851 1088 1847T1265 1834L1473 1814Q1584 1804 1702
1792L1942 1766L2186 1739L2130 1622L2058 1471L1978 1294L1897 1100Q1857 1001 1822 900T1759 701T1716 514T1700 347Q1700 286 1708 223T1734 109T1784 25T1863 -8Q1917 -8 1987 22T2138 105T2307 228T2486 378Q2535 552 2616 730T2801 1081T3026 1411T3278 1702Q3279
1705 3287 1705Q3306 1705 3321 1696T3346 1672T3364 1641T3376 1610Q3375 1611 3373 1611Q3364 1611 3338 1582T3274 1499T3187 1370L3085 1205L2974 1010Q2921 911 2863 792Q2829 722 2794 637Q2757 549 2723 452T2659 253T2612 59L2634 71ZM3376 1610Q3379 1607
3379 1597Q3379 1601 3376 1610ZM3032 2209Q3037 2190 3042 2165T3054 2104T3071 2016T3096 1894Q3096 1892 3096 1891T3097 1888Q3097 1869 3082 1859T3049 1849Q3037 1849 3028 1854T3014 1870Q2985 1948 2952 2025T2886 2181Q2792 2103 2700 2027T2511 1870Q2500
1862 2487 1862Q2473 1862 2460 1869T2447 1889Q2447 1896 2456 1907Q2506 1967 2543 2010T2609 2082T2657 2132T2692 2166T2719 2192T2745 2218Q2760 2235 2780 2252T2823 2284T2872 2308T2921 2318Q2956 2318 2985 2294T3032 2209Z" />
<glyph unicode="&#xdc;" glyph-name="Udieresis" horiz-adv-x="3226" d="M3380 1594Q3379 1594 3379 1595L3380 1596Q3380 1595 3380 1594ZM3104 -726Q3180 -726 3246 -701T3361 -634T3437 -541T3465 -436Q3465 -387 3439 -341T3355 -259T3206 -202T2983 -180Q2881
-180 2781 -182T2592 -189Q2601 -318 2649 -418T2770 -587T2929 -690T3104 -726ZM2634 71L2762 144L2869 204L2960 254L3043 302L3227 411Q3239 417 3249 417Q3260 417 3266 410T3272 391Q3272 377 3261 360T3227 328L3107 255L2968 174L2803 80L2606 -28L2597
-31Q2593 -60 2592 -86T2590 -136Q2699 -118 2846 -104T3157 -89Q3276 -89 3359 -112T3494 -173T3570 -261T3594 -366Q3594 -435 3561 -505T3470 -631T3338 -722T3177 -758Q3106 -758 3027 -742T2870 -695T2719 -616T2587 -507T2488 -368T2434 -198L2341 -204Q2331
-205 2323 -205T2306 -206Q2280 -206 2266 -202T2251 -184Q2251 -169 2290 -136T2429 -43Q2430 -9 2432 26L2434 94Q2436 127 2438 153T2444 196Q2363 136 2281 84T2118 -6T1959 -66T1809 -88Q1757 -88 1714 -64T1636 0T1575 95T1531 210T1504 335T1495 459Q1495
570 1520 696T1586 948T1675 1195T1772 1417T1858 1594T1919 1706Q1818 1721 1704 1736T1466 1763T1211 1782T944 1790Q768 1790 637 1777T413 1739T259 1680T165 1605T117 1516T103 1418Q103 1371 111 1323T128 1226T146 1131T154 1041Q154 980 131 928T43 838Q42
837 39 837Q34 837 31 840T27 846T25 853V857Q25 859 27 860T32 864L39 867Q39 869 29 886T5 934T-27 1004T-59 1091T-84 1191T-94 1299Q-94 1365 -76 1431T-13 1559T109 1674T301 1766T578 1828T951 1851Q1008 1851 1088 1847T1265 1834L1473 1814Q1584 1804 1702
1792L1942 1766L2186 1739L2130 1622L2058 1471L1978 1294L1897 1100Q1857 1001 1822 900T1759 701T1716 514T1700 347Q1700 286 1708 223T1734 109T1784 25T1863 -8Q1917 -8 1987 22T2138 105T2307 228T2486 378Q2535 552 2616 730T2801 1081T3026 1411T3278 1702Q3279
1705 3287 1705Q3306 1705 3321 1696T3346 1672T3364 1641T3376 1610Q3375 1611 3373 1611Q3364 1611 3338 1582T3274 1499T3187 1370L3085 1205L2974 1010Q2921 911 2863 792Q2829 722 2794 637Q2757 549 2723 452T2659 253T2612 59L2634 71ZM3376 1610Q3379 1607
3379 1597Q3379 1601 3376 1610ZM3079 2017Q3050 2017 3030 2025T2997 2047T2978 2079T2972 2118Q2972 2146 2982 2174T3011 2226T3054 2265T3110 2280Q3141 2280 3164 2272T3201 2248T3223 2214T3230 2174Q3230 2147 3219 2119T3188 2069T3141 2032T3079 2017ZM2512
2017Q2492 2017 2478 2024T2455 2044T2442 2073T2438 2107Q2438 2136 2448 2166T2476 2222T2520 2264T2578 2280Q2612 2280 2635 2272T2672 2249T2692 2217T2699 2178Q2699 2145 2682 2116T2638 2065T2578 2030T2512 2017Z" />
<glyph unicode="&#xdd;" glyph-name="Yacute" horiz-adv-x="3010" d="M1379 -1306Q1478 -1306 1560 -1262T1714 -1140T1846 -955Q1906 -848 1960 -721T2065 -452L2165 -165L2054 -229Q2008 -255 1991 -263Q1879 -316 1766 -394Q1661 -467 1575 -546T1421 -708T1308
-869T1238 -1019T1214 -1147Q1214 -1220 1254 -1263T1379 -1306ZM3010 411Q3022 417 3032 417Q3043 417 3049 410T3055 391Q3055 377 3044 360T3010 328L2543 54Q2472 -124 2390 -303T2216 -649T2024 -959T1819 -1210T1603 -1378T1380 -1440Q1309 -1440 1258 -1422Q1210
-1406 1174 -1372Q1140 -1340 1124 -1295T1108 -1195Q1108 -1123 1134 -1038T1211 -862T1333 -676T1498 -492T1700 -320Q1810 -239 1935 -173L2070 -102L2214 -24L2340 263Q2405 405 2476 536Q2542 657 2628 786Q2654 825 2681 861L2603 768Q2504 653 2405 551T2205
362T2003 214T1800 117T1595 82Q1527 82 1481 94T1407 128T1366 179T1353 244Q1353 305 1386 377T1470 528T1578 686T1687 844T1770 990T1804 1116Q1804 1190 1759 1247T1637 1343T1456 1402T1238 1422Q1108 1422 970 1398Q831 1375 700 1327T451 1204T245 1027T105
795T53 505Q53 460 57 413T73 315L30 324Q14 394 7 458T0 582Q0 747 46 879T173 1114T363 1290Q472 1364 597 1411T859 1481T1131 1504Q1275 1504 1407 1476T1640 1397T1802 1272T1863 1108Q1863 1046 1835 978T1765 838T1673 694L1582 557Q1539 491 1511 433T1483
328Q1483 301 1492 279T1523 242T1578 218T1663 209Q1776 209 1888 255Q1999 301 2105 376T2311 547T2497 743T2658 939L2787 1110L2877 1231Q2912 1277 2922 1277Q2966 1277 2987 1286T3014 1296Q3019 1296 3020 1289T3021 1263Q3021 1218 2991 1115T2905 869T2770
549T2592 181L2756 270L2889 344L3010 411ZM2571 2155Q2574 2155 2589 2155T2625 2153T2670 2147T2714 2135T2748 2113T2763 2081L2323 1499L2296 1475Q2278 1475 2268 1485T2253 1506L2571 2155Z" />
<glyph unicode="&#xde;" glyph-name="Thorn" horiz-adv-x="1225" d="M0 411Q94 466 165 507T292 582T393 642T483 695Q518 763 562 852T653 1040T741 1240T816 1435Q819 1442 823 1451T837 1467T860 1480T899 1485Q923 1485 938 1465T954 1423Q954 1420 954 1418T953
1413Q944 1369 921 1307T866 1170T796 1014T718 846Q781 862 864 862Q917 862 962 849T1041 810T1094 746T1116 657Q1116 619 1103 570T1065 464T1006 348T928 232L1225 411Q1232 414 1240 414Q1251 414 1257 406T1264 386Q1264 372 1255 357T1225 328L699 3Q669
-16 637 -33T572 -63T503 -85T432 -93Q381 -93 348 -83T292 -56Q256 -145 222 -233T158 -406T100 -567T51 -709Q45 -727 24 -736T-23 -745Q-41 -745 -59 -741T-93 -728T-117 -708T-127 -680Q-127 -624 -103 -544T-40 -369T51 -167T157 49T266 265T367 471L425 581L0
328Q-6 325 -11 325Q-22 325 -31 334T-40 358Q-40 370 -31 384T0 411ZM849 770Q790 770 727 713T599 560T470 337T346 71Q376 65 412 59T491 53Q549 53 609 81T724 156T829 263T915 388T973 515T994 631Q994 694 961 732T849 770Z" />
<glyph unicode="&#xdf;" glyph-name="germandbls" horiz-adv-x="1968" d="M1968 411Q1974 414 1980 414Q1991 414 1998 405T2005 382Q2005 368 1997 353T1968 328Q1856 274 1741 218T1503 104T1252 -15T982 -141Q936 -165 901 -174T837 -183Q759 -183 715 -166T671
-129Q671 -83 693 -60T746 -28T811 -19T870 -19Q950 -19 1031 2T1188 63T1330 163T1445 297T1522 464T1550 660Q1550 709 1537 755T1498 840T1432 909T1336 957Q1267 891 1192 836T1037 740T876 678T711 655Q691 655 676 661T649 679T631 703T625 731Q625 777 658
829T760 925T938 998T1199 1027Q1259 1095 1316 1170T1424 1321T1516 1473T1588 1619T1634 1752T1651 1866Q1651 1930 1620 1967T1520 2005Q1413 2005 1317 1959T1136 1833T974 1644T830 1409T703 1145T592 870T495 600T411 354T339 149T277 0Q274 -15 265 -26T243
-45T216 -56T186 -60Q161 -60 142 -50T123 -18Q123 -13 124 -9T127 0L335 554Q265 505 204 464T96 392T22 344T-6 326Q-14 326 -20 337T-27 363Q-27 376 -21 389T0 412L155 511Q180 527 213 552T278 603T334 653T367 691Q418 779 464 884T557 1102T656 1328T768
1548T904 1746T1072 1907T1281 2014T1540 2054Q1605 2054 1651 2036T1728 1984T1772 1905T1786 1804Q1786 1723 1759 1626T1681 1427T1561 1223T1406 1029Q1493 1012 1555 980T1657 904T1716 807T1735 695Q1735 661 1729 617T1708 523T1668 418T1602 310T1506 204T1375
106Q1406 116 1460 141T1579 198T1710 266T1833 332T1926 384T1968 411ZM672 737Q672 714 683 707T706 698Q752 698 804 717T912 772T1025 855T1140 963Q1089 954 1035 939T928 904T830 862T748 818T693 775T672 737Z" />
<glyph unicode="&#xe0;" glyph-name="agrave" horiz-adv-x="1412" d="M0 328Q-7 324 -13 324Q-23 324 -28 332T-33 354Q-33 368 -26 384T0 411L370 629Q439 669 517 698T675 745T835 772T984 781Q1024 781 1059 776T1119 760T1159 734T1174 700Q1174 686 1164
680T1141 672T1113 668T1090 663Q1084 644 1071 605T1045 524T1022 450T1010 412Q997 370 975 306T925 133Q926 133 947 144T1003 175T1082 219T1173 270L1412 411Q1426 419 1436 419Q1447 419 1453 412T1459 393Q1459 379 1448 361T1412 328L880 16Q860 4 843
-1T812 -6Q792 -6 778 3T755 28T742 64T737 108Q737 133 742 158T755 206Q726 149 688 107T606 37T516 -6T426 -20Q382 -20 343 -6T275 35T228 104T211 199Q211 231 217 270T235 349T260 427T289 498L0 328ZM909 696Q829 696 756 669T621 598T508 498T422 382T367
264T347 160Q347 109 369 78T443 46Q473 46 508 64T580 113T652 182T718 260T770 337T803 403L909 696ZM961 977Q956 966 946 956T918 946L891 970L451 1552Q452 1571 465 1584T498 1605T541 1618T585 1624T622 1626T643 1626L961 977Z" />
<glyph unicode="&#xe1;" glyph-name="aacute" horiz-adv-x="1412" d="M0 328Q-7 324 -13 324Q-23 324 -28 332T-33 354Q-33 368 -26 384T0 411L370 629Q439 669 517 698T675 745T835 772T984 781Q1024 781 1059 776T1119 760T1159 734T1174 700Q1174 686 1164
680T1141 672T1113 668T1090 663Q1084 644 1071 605T1045 524T1022 450T1010 412Q997 370 975 306T925 133Q926 133 947 144T1003 175T1082 219T1173 270L1412 411Q1426 419 1436 419Q1447 419 1453 412T1459 393Q1459 379 1448 361T1412 328L880 16Q860 4 843
-1T812 -6Q792 -6 778 3T755 28T742 64T737 108Q737 133 742 158T755 206Q726 149 688 107T606 37T516 -6T426 -20Q382 -20 343 -6T275 35T228 104T211 199Q211 231 217 270T235 349T260 427T289 498L0 328ZM909 696Q829 696 756 669T621 598T508 498T422 382T367
264T347 160Q347 109 369 78T443 46Q473 46 508 64T580 113T652 182T718 260T770 337T803 403L909 696ZM1178 1626Q1181 1626 1196 1626T1232 1624T1277 1618T1321 1606T1355 1584T1370 1552L930 970L903 946Q885 946 875 956T860 977L1178 1626Z" />
<glyph unicode="&#xe2;" glyph-name="acircumflex" horiz-adv-x="1412" d="M0 328Q-7 324 -13 324Q-23 324 -28 332T-33 354Q-33 368 -26 384T0 411L370 629Q439 669 517 698T675 745T835 772T984 781Q1024 781 1059 776T1119 760T1159 734T1174 700Q1174 686
1164 680T1141 672T1113 668T1090 663Q1084 644 1071 605T1045 524T1022 450T1010 412Q997 370 975 306T925 133Q926 133 947 144T1003 175T1082 219T1173 270L1412 411Q1426 419 1436 419Q1447 419 1453 412T1459 393Q1459 379 1448 361T1412 328L880 16Q860 4
843 -1T812 -6Q792 -6 778 3T755 28T742 64T737 108Q737 133 742 158T755 206Q726 149 688 107T606 37T516 -6T426 -20Q382 -20 343 -6T275 35T228 104T211 199Q211 231 217 270T235 349T260 427T289 498L0 328ZM909 696Q829 696 756 669T621 598T508 498T422 382T367
264T347 160Q347 109 369 78T443 46Q473 46 508 64T580 113T652 182T718 260T770 337T803 403L909 696ZM1212 1296Q1217 1277 1222 1252T1234 1191T1251 1103T1276 981Q1276 979 1276 978T1277 975Q1277 956 1262 946T1229 936Q1217 936 1208 941T1194 957Q1165
1035 1132 1112T1066 1268Q972 1190 880 1114T691 957Q680 949 667 949Q653 949 640 956T627 976Q627 983 636 994Q686 1054 723 1097T789 1169T837 1219T872 1253T899 1279T925 1305Q940 1322 960 1339T1003 1371T1052 1395T1101 1405Q1136 1405 1165 1381T1212
1296Z" />
<glyph unicode="&#xe3;" glyph-name="atilde" horiz-adv-x="1412" d="M0 328Q-7 324 -13 324Q-23 324 -28 332T-33 354Q-33 368 -26 384T0 411L370 629Q439 669 517 698T675 745T835 772T984 781Q1024 781 1059 776T1119 760T1159 734T1174 700Q1174 686 1164
680T1141 672T1113 668T1090 663Q1084 644 1071 605T1045 524T1022 450T1010 412Q997 370 975 306T925 133Q926 133 947 144T1003 175T1082 219T1173 270L1412 411Q1426 419 1436 419Q1447 419 1453 412T1459 393Q1459 379 1448 361T1412 328L880 16Q860 4 843
-1T812 -6Q792 -6 778 3T755 28T742 64T737 108Q737 133 742 158T755 206Q726 149 688 107T606 37T516 -6T426 -20Q382 -20 343 -6T275 35T228 104T211 199Q211 231 217 270T235 349T260 427T289 498L0 328ZM909 696Q829 696 756 669T621 598T508 498T422 382T367
264T347 160Q347 109 369 78T443 46Q473 46 508 64T580 113T652 182T718 260T770 337T803 403L909 696ZM533 1006Q533 989 521 981T494 973Q444 973 444 1029Q444 1075 458 1110T495 1170T546 1206T605 1219Q652 1219 708 1202T822 1164T939 1126T1048 1109Q1068
1109 1080 1115T1100 1151Q1105 1169 1116 1177T1142 1186Q1165 1186 1186 1166T1207 1109Q1207 1080 1193 1057T1157 1016T1107 989T1055 979Q1031 979 1006 982T955 990T907 1000T866 1011Q824 1022 786 1033T713 1054T651 1069T600 1075Q568 1075 551 1060T533
1006Z" />
<glyph unicode="&#xe4;" glyph-name="adieresis" horiz-adv-x="1412" d="M0 328Q-7 324 -13 324Q-23 324 -28 332T-33 354Q-33 368 -26 384T0 411L370 629Q439 669 517 698T675 745T835 772T984 781Q1024 781 1059 776T1119 760T1159 734T1174 700Q1174 686 1164
680T1141 672T1113 668T1090 663Q1084 644 1071 605T1045 524T1022 450T1010 412Q997 370 975 306T925 133Q926 133 947 144T1003 175T1082 219T1173 270L1412 411Q1426 419 1436 419Q1447 419 1453 412T1459 393Q1459 379 1448 361T1412 328L880 16Q860 4 843
-1T812 -6Q792 -6 778 3T755 28T742 64T737 108Q737 133 742 158T755 206Q726 149 688 107T606 37T516 -6T426 -20Q382 -20 343 -6T275 35T228 104T211 199Q211 231 217 270T235 349T260 427T289 498L0 328ZM909 696Q829 696 756 669T621 598T508 498T422 382T367
264T347 160Q347 109 369 78T443 46Q473 46 508 64T580 113T652 182T718 260T770 337T803 403L909 696ZM1170 878Q1141 878 1121 886T1088 908T1069 940T1063 979Q1063 1007 1073 1035T1102 1087T1145 1126T1201 1141Q1232 1141 1255 1133T1292 1109T1314 1075T1321
1035Q1321 1008 1310 980T1279 930T1232 893T1170 878ZM603 878Q583 878 569 885T546 905T533 934T529 968Q529 997 539 1027T567 1083T611 1125T669 1141Q703 1141 726 1133T763 1110T783 1078T790 1039Q790 1006 773 977T729 926T669 891T603 878Z" />
<glyph unicode="&#xe5;" glyph-name="aring" horiz-adv-x="1412" d="M0 328Q-7 324 -13 324Q-23 324 -28 332T-33 354Q-33 368 -26 384T0 411L370 629Q439 669 517 698T675 745T835 772T984 781Q1024 781 1059 776T1119 760T1159 734T1174 700Q1174 686 1164 680T1141
672T1113 668T1090 663Q1084 644 1071 605T1045 524T1022 450T1010 412Q997 370 975 306T925 133Q926 133 947 144T1003 175T1082 219T1173 270L1412 411Q1426 419 1436 419Q1447 419 1453 412T1459 393Q1459 379 1448 361T1412 328L880 16Q860 4 843 -1T812 -6Q792
-6 778 3T755 28T742 64T737 108Q737 133 742 158T755 206Q726 149 688 107T606 37T516 -6T426 -20Q382 -20 343 -6T275 35T228 104T211 199Q211 231 217 270T235 349T260 427T289 498L0 328ZM909 696Q829 696 756 669T621 598T508 498T422 382T367 264T347 160Q347
109 369 78T443 46Q473 46 508 64T580 113T652 182T718 260T770 337T803 403L909 696ZM1186 1203Q1186 1149 1159 1105T1090 1031T1000 984T908 967Q848 967 825 987T801 1045Q801 1103 823 1154T883 1245T971 1306T1078 1329Q1130 1329 1158 1293T1186 1203ZM909
1004Q954 1004 991 1024T1056 1075T1099 1145T1114 1219Q1114 1247 1097 1265T1040 1284Q1008 1284 978 1260T923 1200T883 1124T868 1054Q868 1032 878 1018T909 1004Z" />
<glyph unicode="&#xe6;" glyph-name="ae" horiz-adv-x="1594" d="M0 411L394 643Q541 729 666 765T880 802Q977 802 1024 769Q1084 817 1148 841T1266 866Q1322 866 1358 837T1395 745Q1395 707 1368 666T1293 584T1181 508T1045 449L973 37Q1091 103 1244 193T1594
411V328Q1483 258 1379 195T1190 84T1044 8T963 -20Q923 -20 895 5H892Q880 5 863 25T829 80T801 160T789 254Q789 266 790 278T793 303Q765 217 726 157T642 58T549 1T454 -17Q403 -17 358 2T278 54T223 135T202 239Q202 302 229 372T323 518L0 328V411ZM857 515Q869
563 889 603T936 678L961 728Q921 739 885 744T814 749Q740 749 681 728T575 670T495 585T439 484T407 376T396 271Q396 229 403 193T424 130T458 88T505 72Q531 72 563 90T633 148T713 252T803 411L857 515ZM1287 737Q1289 743 1289 750Q1289 775 1281 787T1252
799Q1229 799 1199 782T1141 730T1090 645T1059 528Q1100 549 1139 576T1209 632T1261 688T1287 737Z" />
<glyph unicode="&#xe7;" glyph-name="ccedilla" horiz-adv-x="1301" d="M0 328Q-7 324 -13 324Q-23 324 -29 333T-35 355Q-35 369 -27 384T0 411Q142 495 242 559T421 666T563 732T698 755Q798 755 847 728T897 652Q897 621 887 597T859 557T819 532T773 523Q755
523 736 538T716 587Q716 647 703 672T666 697Q644 697 617 676T560 619T503 536T454 437T419 332T405 231Q405 141 445 100T548 59Q620 59 701 95T875 184T1073 298T1301 411Q1313 417 1321 417Q1342 417 1342 392Q1342 378 1333 359T1301 328Q1243 302 1182 265T1057
186T924 104T786 31T642 -22T494 -43Q418 -43 365 -22T279 34T231 117T216 217Q216 263 228 311T263 404T315 487T381 552L0 328ZM212 -383Q227 -328 260 -309T335 -290Q361 -290 388 -295T440 -306T488 -318T528 -323Q545 -323 555 -316T566 -288Q566 -263 546
-247T474 -231Q465 -231 457 -231T440 -232Q420 -232 407 -224T392 -181L456 -40H545L457 -174Q517 -176 559 -185T627 -210T666 -246T678 -289Q678 -325 643 -357T554 -413T440 -451T326 -465Q275 -465 242 -450T209 -403Q209 -394 212 -383Z" />
<glyph unicode="&#xe8;" glyph-name="egrave" horiz-adv-x="993" d="M0 328Q-10 321 -23 321Q-36 321 -44 328T-52 348Q-52 361 -41 377T0 411L253 560Q281 639 325 696T423 791T535 847T649 866Q705 866 741 837T778 745Q778 707 751 666T676 584T564 508T428
449Q428 401 427 358T425 277Q425 245 427 219T435 174T453 145T483 134Q511 134 550 156T650 214Q704 246 788 294T993 411Q997 414 1004 414Q1015 414 1023 405T1032 381Q1032 369 1024 355T993 328Q894 269 801 209T626 99T473 18T351 -14Q316 -14 290 1T245
49T217 135T207 266Q207 278 208 304T213 361T222 421T234 466Q227 462 214 454T182 436T144 413T104 389L0 328ZM670 737Q672 743 672 750Q672 775 664 787T635 799Q612 799 582 782T524 730T473 645T442 528Q483 549 522 576T592 632T644 688T670 737ZM758 1000Q753
989 743 979T715 969L688 993L248 1575Q249 1594 262 1607T295 1628T338 1641T382 1647T419 1649T440 1649L758 1000Z" />
<glyph unicode="&#xe9;" glyph-name="eacute" horiz-adv-x="993" d="M0 328Q-10 321 -23 321Q-36 321 -44 328T-52 348Q-52 361 -41 377T0 411L253 560Q281 639 325 696T423 791T535 847T649 866Q705 866 741 837T778 745Q778 707 751 666T676 584T564 508T428
449Q428 401 427 358T425 277Q425 245 427 219T435 174T453 145T483 134Q511 134 550 156T650 214Q704 246 788 294T993 411Q997 414 1004 414Q1015 414 1023 405T1032 381Q1032 369 1024 355T993 328Q894 269 801 209T626 99T473 18T351 -14Q316 -14 290 1T245
49T217 135T207 266Q207 278 208 304T213 361T222 421T234 466Q227 462 214 454T182 436T144 413T104 389L0 328ZM670 737Q672 743 672 750Q672 775 664 787T635 799Q612 799 582 782T524 730T473 645T442 528Q483 549 522 576T592 632T644 688T670 737ZM741 1663Q744
1663 759 1663T795 1661T840 1655T884 1643T918 1621T933 1589L493 1007L466 983Q448 983 438 993T423 1014L741 1663Z" />
<glyph unicode="&#xea;" glyph-name="ecircumflex" horiz-adv-x="993" d="M0 328Q-10 321 -23 321Q-36 321 -44 328T-52 348Q-52 361 -41 377T0 411L253 560Q281 639 325 696T423 791T535 847T649 866Q705 866 741 837T778 745Q778 707 751 666T676 584T564 508T428
449Q428 401 427 358T425 277Q425 245 427 219T435 174T453 145T483 134Q511 134 550 156T650 214Q704 246 788 294T993 411Q997 414 1004 414Q1015 414 1023 405T1032 381Q1032 369 1024 355T993 328Q894 269 801 209T626 99T473 18T351 -14Q316 -14 290 1T245
49T217 135T207 266Q207 278 208 304T213 361T222 421T234 466Q227 462 214 454T182 436T144 413T104 389L0 328ZM670 737Q672 743 672 750Q672 775 664 787T635 799Q612 799 582 782T524 730T473 645T442 528Q483 549 522 576T592 632T644 688T670 737ZM879 1262Q884
1243 889 1218T901 1157T918 1069T943 947Q943 945 943 944T944 941Q944 922 929 912T896 902Q884 902 875 907T861 923Q832 1001 799 1078T733 1234Q639 1156 547 1080T358 923Q347 915 334 915Q320 915 307 922T294 942Q294 949 303 960Q353 1020 390 1063T456
1135T504 1185T539 1219T566 1245T592 1271Q607 1288 627 1305T670 1337T719 1361T768 1371Q803 1371 832 1347T879 1262Z" />
<glyph unicode="&#xeb;" glyph-name="edieresis" horiz-adv-x="993" d="M0 328Q-10 321 -23 321Q-36 321 -44 328T-52 348Q-52 361 -41 377T0 411L253 560Q281 639 325 696T423 791T535 847T649 866Q705 866 741 837T778 745Q778 707 751 666T676 584T564 508T428
449Q428 401 427 358T425 277Q425 245 427 219T435 174T453 145T483 134Q511 134 550 156T650 214Q704 246 788 294T993 411Q997 414 1004 414Q1015 414 1023 405T1032 381Q1032 369 1024 355T993 328Q894 269 801 209T626 99T473 18T351 -14Q316 -14 290 1T245
49T217 135T207 266Q207 278 208 304T213 361T222 421T234 466Q227 462 214 454T182 436T144 413T104 389L0 328ZM670 737Q672 743 672 750Q672 775 664 787T635 799Q612 799 582 782T524 730T473 645T442 528Q483 549 522 576T592 632T644 688T670 737ZM839 973Q810
973 790 981T757 1003T738 1035T732 1074Q732 1102 742 1130T771 1182T814 1221T870 1236Q901 1236 924 1228T961 1204T983 1170T990 1130Q990 1103 979 1075T948 1025T901 988T839 973ZM272 973Q252 973 238 980T215 1000T202 1029T198 1063Q198 1092 208 1122T236
1178T280 1220T338 1236Q372 1236 395 1228T432 1205T452 1173T459 1134Q459 1101 442 1072T398 1021T338 986T272 973Z" />
<glyph unicode="&#xec;" glyph-name="igrave" horiz-adv-x="1124" d="M1124 328Q969 239 861 174T677 66T549 3T453 -18Q421 -18 399 -8T364 19T344 60T337 112Q337 155 350 204T385 303L537 643L0 328Q-13 323 -18 323Q-30 323 -39 331T-49 352Q-49 364 -39 379T0
411L259 562Q310 592 362 622T459 678T541 724T598 756H727Q731 753 734 746T737 725Q737 699 722 652T685 545T635 422T583 299Q559 242 533 185T481 68Q508 68 566 95T708 168T897 277T1124 411Q1128 415 1139 415Q1151 415 1161 407T1172 385Q1172 373 1162
359T1124 328ZM902 907Q897 896 887 886T859 876L832 900L392 1482Q393 1501 406 1514T439 1535T482 1548T526 1554T563 1556T584 1556L902 907Z" />
</font>
</defs>
</svg>
