<?xml version="1.0" standalone="no"?>
<!DOCTYPE svg PUBLIC "-//W3C//DTD SVG 1.1//EN" "http://www.w3.org/Graphics/SVG/1.1/DTD/svg11.dtd">
<svg xmlns="http://www.w3.org/2000/svg">
<defs >
<font id="Gruppo" horiz-adv-x="1040" ><font-face
    font-family="Gruppo"
    units-per-em="2048"
    panose-1="2 0 6 4 6 0 0 2 0 4"
    ascent="1639"
    descent="-340"
    alphabetic="0" />
<glyph unicode=" " glyph-name="space" horiz-adv-x="460" />
<glyph unicode="!" glyph-name="exclam" horiz-adv-x="330" d="M108 1065Q108 1090 125 1100T164 1110Q186 1110 203 1099T221 1063L189 250Q188 236 181 229T164 221Q155 221 148 228T140 250Q132 453 127 592T118 822T112 962T109 1034T108 1061T108 1065ZM108
46Q108 72 124 88T166 105Q191 105 208 89T226 46Q226 21 209 6T166 -10Q140 -10 124 5T108 46Z" />
<glyph unicode="&quot;" glyph-name="quotedbl" horiz-adv-x="403" d="M85 1004Q83 1022 81 1038T78 1068T75 1090T74 1099Q74 1117 88 1126T123 1135Q143 1135 157 1126T171 1099Q170 1099 169 1091T167 1069T164 1038T160 1004L149 910Q147 899 140 894T123
889Q114 889 106 894T97 910L85 1004ZM241 1004Q239 1022 237 1038T234 1068T231 1090T230 1099Q230 1117 244 1126T279 1135Q299 1135 313 1126T327 1099Q326 1099 325 1091T323 1069T320 1038T316 1004L305 910Q303 899 296 894T279 889Q270 889 262 894T253
910L241 1004Z" />
<glyph unicode="#" glyph-name="numbersign" horiz-adv-x="758" d="M159 650Q135 650 118 656T101 683Q101 707 118 712T158 717H635Q659 717 677 712T695 681Q695 661 677 656T636 650H159ZM211 58Q207 34 199 17T170 0Q153 0 148 8T142 29Q142 42 145 57L308
1054Q312 1079 320 1096T353 1114Q367 1114 371 1106T376 1083Q376 1077 376 1070T374 1056L211 58ZM450 58Q446 34 438 17T409 0Q392 0 387 8T381 29Q381 42 384 57L547 1054Q551 1079 559 1096T592 1114Q606 1114 611 1105T616 1081Q616 1075 616 1069T614 1056L450
58ZM120 353Q96 353 79 359T62 385Q62 397 66 404T79 414T97 418T119 419H596Q620 419 638 414T656 384Q656 363 638 358T597 353H120Z" />
<glyph unicode="$" glyph-name="dollar" horiz-adv-x="1523" d="M1427 311Q1427 224 1385 164T1273 65T1109 7T913 -18V-63Q913 -78 913 -90T909 -112T898 -127T878 -133Q864 -133 857 -128T846 -114T842 -94T841 -71V-20H829Q794 -20 759 -19T688 -15V-63Q688
-78 688 -90T684 -112T673 -127T653 -133Q639 -133 632 -128T621 -114T617 -94T616 -71V-9Q538 -2 465 9T331 34T222 62T149 90Q135 97 129 107T122 129Q122 141 128 149T148 158Q154 158 162 155Q190 143 236 130T342 103T472 79T616 59V551Q516 558 425 571T263
612T152 689T110 815Q110 900 151 958T263 1054T424 1109T616 1132V1230Q616 1243 616 1255T620 1276T631 1290T653 1296Q666 1296 673 1290T683 1275T687 1253T688 1227V1135H716Q748 1135 779 1134T841 1130V1230Q841 1243 841 1255T845 1276T856 1290T878 1296Q891
1296 898 1290T908 1275T912 1253T913 1227V1125Q977 1119 1037 1109T1148 1087T1241 1062T1311 1036Q1319 1032 1323 1025T1327 1009Q1327 995 1318 983T1291 971Q1281 971 1274 975Q1202 1004 1109 1025T913 1058V610Q1014 601 1107 585T1271 536T1384 449T1427
311ZM1342 311Q1342 373 1308 413T1216 478T1079 515T913 534V47Q1001 51 1079 67T1216 114T1308 193T1342 311ZM195 821Q195 767 228 733T319 677T452 646T616 629V1066Q529 1061 453 1046T319 1001T228 927T195 821ZM841 46V539H688V52Q764 46 841 46ZM720 1069Q712
1069 704 1069T688 1068V624Q726 622 764 620T841 615V1065Q810 1067 780 1068T720 1069Z" />
<glyph unicode="%" glyph-name="percent" horiz-adv-x="1268" d="M360 46Q347 26 337 12T311 -2Q290 -2 283 10T275 32Q275 47 280 56T295 80L906 1075Q917 1094 927 1109T956 1124Q978 1124 985 1114T992 1094Q992 1080 987 1067T973 1042L360 46ZM707 347Q707
396 727 440T781 517T862 569T961 589Q1013 589 1059 570T1139 517T1193 440T1213 347Q1213 297 1193 254T1139 177T1059 125T961 106Q908 106 862 125T782 177T727 253T707 347ZM777 345Q777 309 791 277T830 221T888 183T961 169Q998 169 1031 183T1089 221T1128
277T1143 345Q1143 381 1129 413T1090 470T1032 508T961 522Q922 522 889 508T830 470T791 414T777 345ZM60 803Q60 852 80 896T134 973T214 1025T312 1045Q364 1045 410 1026T490 973T544 896T564 803Q564 753 544 710T490 633T410 581T312 562Q260 562 214 581T134
633T80 709T60 803ZM128 801Q128 765 142 733T182 677T241 639T312 625Q349 625 382 639T440 677T479 733T494 801Q494 837 480 869T441 926T383 964T312 978Q274 978 241 964T183 926T143 870T128 801Z" />
<glyph unicode="&amp;" glyph-name="ampersand" horiz-adv-x="1164" d="M134 331Q134 254 159 201T226 113T322 64T436 48Q508 48 576 68T702 123Q689 153 682 192T675 279V636H364Q311 619 269 594T196 533T150 447T134 331ZM471 1085Q423 1085 383 1072T313
1035T268 978T251 905Q251 873 260 844T285 789T319 739T358 695H675V855Q675 871 687 878T715 886Q730 886 742 879T755 855V695H916Q943 695 950 688T957 666Q957 655 950 646T916 636H755V279Q755 206 770 161T810 91T870 58T944 49Q977 49 1006 60T1058 86T1098
112T1123 124Q1133 124 1139 117T1145 100Q1145 87 1127 69T1078 33T1009 3T930 -10Q870 -10 821 7T736 67Q667 25 590 4T434 -18Q360 -18 292 2T172 65T89 173T58 327Q58 413 84 473T149 573T235 636T322 671Q300 681 276 699T230 747T195 816T181 909Q181 964
204 1008T266 1082T354 1128T457 1144Q532 1144 580 1133T657 1107T697 1078T708 1058Q708 1047 701 1037T682 1027Q674 1027 659 1036T618 1056T557 1076T471 1085Z" />
<glyph unicode="&apos;" glyph-name="quotesingle" horiz-adv-x="246" d="M85 1004Q83 1022 81 1038T78 1068T75 1090T74 1099Q74 1117 88 1126T123 1135Q143 1135 157 1126T171 1099Q170 1099 169 1091T167 1069T164 1038T160 1004L149 910Q147 899 140 894T123
889Q114 889 106 894T97 910L85 1004Z" />
<glyph unicode="(" glyph-name="parenleft" horiz-adv-x="444" d="M70 551Q70 642 80 732T111 903T166 1053T244 1173T349 1252T481 1281Q498 1281 506 1271T514 1249Q514 1237 506 1227T481 1217Q390 1217 327 1160T224 1010T166 797T148 552Q148 427 166 308T223
95T326 -56T481 -113Q498 -113 506 -123T514 -145Q514 -157 506 -167T481 -177Q408 -177 349 -149T245 -70T166 50T112 199T80 370T70 551Z" />
<glyph unicode=")" glyph-name="parenright" horiz-adv-x="444" d="M374 551Q374 459 364 370T333 200T278 50T200 -69T95 -148T-37 -177Q-54 -177 -62 -167T-70 -145Q-70 -133 -62 -123T-37 -113Q54 -113 117 -56T220 94T278 307T296 552Q296 677 278 796T221
1009T118 1160T-37 1217Q-54 1217 -62 1227T-70 1249Q-70 1261 -62 1271T-37 1281Q36 1281 95 1253T199 1173T278 1053T332 903T364 732T374 551Z" />
<glyph unicode="*" glyph-name="asterisk" horiz-adv-x="868" d="M542 979Q550 996 558 1007T578 1018Q596 1018 607 1007T619 987Q619 979 615 970T605 949L480 699L757 705Q778 705 790 699T802 669Q802 646 791 640T759 634L485 641L627 406Q633 396 638 386T643
366Q643 356 631 345T603 334Q589 334 582 344T565 371L436 606L325 362Q317 344 310 333T290 322Q270 322 259 334T248 354Q248 362 252 371T262 391L387 641L108 635Q87 634 76 640T65 671Q65 697 80 702T119 707L381 699L240 934Q233 945 229 955T224 973Q224
981 235 993T264 1006Q276 1006 284 996T302 969L431 733L542 979Z" />
<glyph unicode="+" glyph-name="plus" horiz-adv-x="797" d="M368 511V742Q368 759 377 767T398 775Q409 775 418 767T428 742V511H690Q709 511 717 503T726 483Q726 473 718 465T690 457H428V224Q428 207 419 200T398 192Q386 192 377 199T368 224V457H107Q88
457 80 465T71 483Q71 494 79 502T107 511H368Z" />
<glyph unicode="," glyph-name="comma" horiz-adv-x="323" d="M85 -88Q122 -88 135 -69T148 -21Q131 -16 115 0T99 46Q99 75 119 90T169 105Q181 105 193 101T214 87T230 64T237 31Q237 5 228 -22T199 -72T152 -109T85 -124V-88Z" />
<glyph unicode="-" glyph-name="hyphen" horiz-adv-x="603" d="M481 518Q495 518 501 506T508 480Q508 468 502 456T481 444H122Q108 444 102 456T95 480Q95 493 101 505T122 518H481Z" />
<glyph unicode="." glyph-name="period" horiz-adv-x="312" d="M93 52Q93 81 110 99T157 117Q184 117 203 99T223 52Q223 24 204 7T157 -10Q128 -10 111 7T93 52Z" />
<glyph unicode="/" glyph-name="slash" horiz-adv-x="602" d="M131 4Q120 -19 112 -36T86 -53Q72 -53 65 -49T54 -38T50 -24T49 -11Q49 -1 52 6T61 25L471 1118Q478 1141 487 1158T520 1176Q541 1176 547 1165T553 1141Q553 1130 550 1120T543 1098L131 4Z" />
<glyph unicode="0" glyph-name="zero" horiz-adv-x="1060" d="M892 557Q892 687 877 783T821 943T710 1038T530 1069Q422 1069 352 1038T241 944T184 784T168 557Q168 426 184 330T241 171T352 76T530 45Q639 45 709 76T820 170T876 330T892 557ZM92 557Q92 687
109 794T175 976T308 1093T530 1135Q666 1135 751 1094T885 977T950 794T968 557Q968 426 951 320T885 138T752 21T530 -21Q394 -21 309 20T175 137T110 319T92 557Z" />
<glyph unicode="1" glyph-name="one" horiz-adv-x="452" d="M313 70Q313 57 313 45T310 22T300 6T280 0Q265 0 258 6T246 22T242 44T241 70V1044H87Q77 1044 66 1044T46 1046T30 1055T24 1073Q24 1088 30 1096T46 1109T66 1113T85 1114H278Q293 1114 300 1108T310
1091T313 1069T313 1044V70Z" />
<glyph unicode="2" glyph-name="two" horiz-adv-x="925" d="M447 1065Q359 1065 286 1049T155 1015Q137 1010 129 1010Q112 1010 103 1017T93 1036Q93 1055 127 1073T214 1104T329 1126T447 1134Q557 1134 635 1112T762 1049T834 951T857 823Q857 737 827 677T747
573T634 497T505 436T375 377T263 305T183 207T152 70H752Q775 70 786 59T797 34Q797 20 786 9T752 -2H119Q90 -2 85 14T80 70Q80 158 110 222T189 333T302 416T431 482T560 543T673 612T753 701T783 823Q783 888 760 934T693 1009T587 1051T447 1065Z" />
<glyph unicode="3" glyph-name="three" horiz-adv-x="946" d="M289 570Q271 570 263 580T254 602Q254 614 262 624T289 634H431Q527 634 590 653T692 702T745 772T761 851Q761 889 750 927T705 996T612 1046T455 1065Q400 1065 346 1058T249 1041T180 1025T153
1016Q135 1011 127 1011Q110 1011 101 1018T91 1037Q91 1056 125 1074T212 1105T327 1127T445 1135Q565 1135 640 1110T758 1045T816 953T832 850Q832 815 820 776T778 701T696 639T565 604Q645 593 701 568T792 504T843 416T859 307Q859 238 839 178T770 74T643
4T445 -21Q386 -21 323 -13T209 9T124 41T91 77Q91 88 100 95T127 103Q137 103 151 100T181 91T213 81T245 73Q287 64 338 56T445 48Q548 48 615 67T722 122T777 205T793 313Q793 363 777 409T719 491T608 548T431 570H289Z" />
<glyph unicode="4" glyph-name="four" horiz-adv-x="1058" d="M1044 381Q1044 359 1020 353T962 347Q947 347 931 347T898 348H753V70Q753 57 753 45T749 22T738 6T718 0Q703 0 696 6T685 22T682 44T681 70V348H173Q146 348 131 354T109 370T101 392T100 418V1047Q100
1059 100 1071T105 1092T116 1108T139 1114Q152 1114 159 1108T169 1092T172 1070T173 1047V418H681V1044Q681 1057 681 1069T685 1092T695 1108T718 1114Q731 1114 738 1108T748 1092T752 1070T753 1044V418H972Q988 418 1001 418T1024 414T1039 404T1044 381Z"
/>
<glyph unicode="5" glyph-name="five" horiz-adv-x="869" d="M439 29Q521 29 577 50T667 111T715 206T730 328Q730 383 716 422T668 487T578 525T439 537H189Q175 537 161 537T134 543T114 559T106 592Q106 605 107 607L147 1024Q148 1036 149 1048T157 1071T178
1087T220 1094H658Q678 1094 688 1084T698 1059Q698 1046 688 1036T658 1025H220L180 607H439Q521 607 588 593T704 545T778 458T804 324Q804 222 778 153T704 40T589 -21T439 -40Q380 -40 317 -32T203 -10T118 22T85 58Q85 69 94 76T121 84Q131 84 145 81T175
72T207 62T239 54Q281 45 333 37T439 29Z" />
<glyph unicode="6" glyph-name="six" horiz-adv-x="1023" d="M93 557Q93 714 112 823T182 1002T321 1102T545 1134Q604 1134 667 1126T781 1104T866 1072T899 1036Q899 1025 890 1018T863 1010Q853 1010 839 1013T809 1022T777 1032T745 1040Q703 1049 652 1057T545
1065Q455 1065 386 1051T268 988T195 841T170 579Q187 587 212 595T277 611T370 622T499 627Q610 627 694 613T834 562T919 461T948 298Q948 237 926 180T852 78T717 7T512 -20Q396 -20 316 9T187 107T115 285T93 557ZM170 526Q170 390 188 298T247 151T354 73T516
49Q621 49 690 71T799 129T856 211T872 306Q872 391 849 440T780 516T663 549T499 557Q436 557 386 555T297 548T226 538T170 526Z" />
<glyph unicode="7" glyph-name="seven" horiz-adv-x="707" d="M251 57Q243 39 232 31T209 23Q195 23 186 33T176 60Q176 75 180 82L599 1044H74Q55 1044 46 1054T36 1079Q36 1092 45 1103T74 1114H629Q660 1114 671 1099T683 1063Q683 1053 681 1044T675 1024L251 57Z" />
<glyph unicode="8" glyph-name="eight" horiz-adv-x="1030" d="M515 567Q408 567 338 546T227 490T170 409T153 313Q153 255 171 206T231 121T342 65T515 45Q618 45 687 65T799 121T859 206T877 313Q877 363 861 409T803 490T692 546T515 567ZM515 -21Q396 -21
315 4T183 73T110 178T87 307Q87 366 101 415T149 501T235 565T366 604Q291 614 242 641T165 703T125 777T114 850Q114 902 132 953T195 1044T317 1110T515 1135Q635 1135 712 1110T835 1045T898 953T916 850Q916 816 905 777T866 703T788 641T664 604Q741 591
794 565T881 502T928 415T943 307Q943 238 921 178T848 74T715 4T515 -21ZM515 637Q611 637 674 655T776 704T829 772T845 851Q845 890 831 928T780 998T679 1049T515 1069Q415 1069 351 1050T250 999T199 929T185 851Q185 811 200 773T254 704T355 656T515 637Z"
/>
<glyph unicode="9" glyph-name="nine" horiz-adv-x="1023" d="M929 557Q929 400 910 291T840 112T701 12T477 -20Q418 -20 355 -12T241 10T156 42T123 78Q123 89 132 96T159 104Q169 104 183 101T213 92T245 82T277 74Q319 65 370 57T477 49Q567 49 636 63T754
126T827 273T852 535Q835 527 810 519T745 503T652 492T523 487Q412 487 328 501T188 552T103 653T74 816Q74 877 96 934T170 1036T305 1107T510 1134Q626 1134 706 1105T835 1007T907 829T929 557ZM852 588Q852 724 834 816T775 963T668 1041T506 1065Q401 1065
332 1043T223 985T166 903T150 808Q150 723 173 674T242 598T359 565T523 557Q586 557 636 559T725 566T796 576T852 588Z" />
<glyph unicode=":" glyph-name="colon" horiz-adv-x="393" d="M133 561Q133 590 150 608T197 626Q224 626 243 608T263 561Q263 533 244 516T197 499Q168 499 151 516T133 561ZM133 204Q133 233 150 251T197 269Q224 269 243 251T263 204Q263 176 244 159T197
142Q168 142 151 159T133 204Z" />
<glyph unicode=";" glyph-name="semicolon" horiz-adv-x="379" d="M123 561Q123 590 140 608T187 626Q214 626 233 608T253 561Q253 533 234 516T187 499Q158 499 141 516T123 561ZM125 71Q162 71 175 90T188 138Q171 143 155 159T139 205Q139 234 159 249T209
264Q221 264 233 260T254 246T270 223T277 190Q277 164 268 137T239 87T192 50T125 35V71Z" />
<glyph unicode="&lt;" glyph-name="less" horiz-adv-x="775" d="M65 335Q65 357 78 367T116 388L620 622Q626 624 630 625T640 627Q655 627 664 616T674 591Q674 568 653 559L166 335L653 112Q664 107 669 98T674 79Q674 66 665 55T640 44Q635 44 620 49L116 283Q92
294 79 304T65 335Z" />
<glyph unicode="=" glyph-name="equal" horiz-adv-x="906" d="M779 499Q779 488 773 479T754 470H149Q136 470 131 479T125 499Q125 510 130 519T149 528H754Q767 528 773 519T779 499ZM781 638Q781 627 775 618T756 609H151Q138 609 133 618T127 638Q127 649
132 658T151 667H756Q769 667 775 658T781 638Z" />
<glyph unicode="&gt;" glyph-name="greater" horiz-adv-x="773" d="M708 335Q708 357 695 367T657 388L153 622Q147 624 143 625T133 627Q118 627 109 616T99 591Q99 568 120 559L607 335L120 112Q109 107 104 98T99 79Q99 66 108 55T133 44Q138 44 153 49L657
283Q681 294 694 304T708 335Z" />
<glyph unicode="?" glyph-name="question" horiz-adv-x="888" d="M295 264Q295 235 291 215T262 194Q247 194 240 199T228 214T224 236T223 262V512Q223 524 231 534T258 544Q366 544 445 554T581 581T672 623T727 675T754 736T762 801Q762 859 747 908T692 992T585
1046T414 1066Q326 1066 253 1050T122 1016Q104 1011 96 1011Q79 1011 70 1018T60 1037Q60 1056 94 1074T181 1105T296 1127T414 1135Q532 1135 611 1110T739 1041T807 936T828 807Q828 769 823 731T799 656T745 589T650 535T504 497T295 480V264ZM203 46Q203 72
219 88T261 105Q286 105 303 89T321 46Q321 21 304 6T261 -10Q235 -10 219 5T203 46Z" />
<glyph unicode="@" glyph-name="at" horiz-adv-x="1334" d="M1055 -48Q999 -74 918 -96T721 -119Q551 -119 429 -80T227 33T111 214T73 457Q73 584 117 689T244 871T448 989T723 1031Q995 1031 1131 916T1268 573Q1268 469 1254 385T1210 241T1138 149T1038 116Q983
116 952 149T921 253Q904 233 879 212T819 173T738 144T634 132Q549 132 490 156T395 220T342 314T325 424Q325 527 361 599T455 716T584 781T724 801Q772 801 809 794T874 777T920 754T950 730Q955 755 962 768T985 781Q1002 781 1012 768T1023 718Q1023 712 1023
696T1020 638T1012 523T998 331Q997 318 996 300T994 262Q994 246 996 231T1003 203T1018 184T1043 176Q1077 176 1104 203T1151 281T1181 406T1192 575Q1192 972 723 972Q588 972 482 935T302 830T189 667T150 457Q150 336 180 240T279 78T456 -24T723 -60Q828
-60 905 -40T1037 5Q1044 9 1054 9Q1066 9 1072 2T1078 -15Q1078 -24 1073 -33T1055 -48ZM945 686Q906 703 851 719T730 735Q670 735 612 717T508 662T433 568T404 433Q404 315 460 257T639 198Q689 198 731 209T808 236T866 270T904 302L923 321L945 686Z" />
<glyph unicode="A" glyph-name="A" horiz-adv-x="1349" d="M622 1063Q638 1092 647 1103T674 1114Q688 1114 698 1104T726 1063L1278 67Q1289 47 1289 28Q1289 10 1279 0T1255 -10Q1241 -10 1228 -1T1200 34L1030 342H318L146 30Q135 9 121 0T92 -10Q75 -10 67
2T59 34Q59 42 62 50T71 68L622 1063ZM1001 401L674 998L347 401H1001Z" />
<glyph unicode="B" glyph-name="B" horiz-adv-x="1408" d="M1278 326Q1278 224 1239 161T1132 62T970 13T770 0H194Q177 0 169 10T160 35V1077Q160 1095 171 1104T199 1114H657Q729 1114 799 1113T931 1103T1046 1077T1137 1029T1197 951T1219 836Q1219 778 1203
738T1163 671T1108 629T1050 606T999 596T965 594H958Q1019 588 1076 573T1177 528T1249 448T1278 326ZM1134 836Q1134 887 1117 926T1052 993T918 1034T694 1048H245V619H718Q826 619 904 627T1034 660T1109 726T1134 836ZM1193 326Q1193 395 1160 441T1065 514T915
552T718 564H245V66H808Q943 66 1020 88T1136 146T1183 229T1193 326Z" />
<glyph unicode="C" glyph-name="C" horiz-adv-x="1489" d="M123 557Q123 713 170 822T312 1001T546 1103T873 1135Q1003 1135 1125 1112T1373 1036Q1389 1029 1396 1019T1403 998Q1403 986 1394 977T1371 968Q1367 968 1352 973Q1237 1021 1114 1045T873 1069Q695
1069 569 1040T363 948T245 789T208 557Q208 422 245 326T362 167T569 75T873 45Q991 45 1114 69T1352 141Q1360 145 1370 145Q1385 145 1394 136T1404 115Q1404 105 1397 95T1373 78Q1246 26 1125 3T873 -21Q687 -21 547 11T312 112T171 291T123 557Z" />
<glyph unicode="D" glyph-name="D" horiz-adv-x="1670" d="M1547 559Q1547 399 1505 292T1380 120T1174 28T887 0H199Q184 0 177 0T165 4T161 15T160 35V1077Q160 1092 160 1099T165 1110T177 1113T201 1114H887Q1050 1114 1173 1086T1380 993T1505 821T1547 559ZM1462
559Q1462 688 1433 780T1337 932T1160 1020T887 1048H245V66H887Q1050 66 1160 94T1337 181T1433 334T1462 559Z" />
<glyph unicode="E" glyph-name="E" horiz-adv-x="1302" d="M1187 35Q1187 20 1182 13T1169 3T1148 0T1121 0H187Q177 0 172 1T165 6T162 16T161 35V1067Q161 1082 161 1091T165 1105T175 1112T198 1114H1111Q1126 1114 1139 1114T1162 1111T1179 1101T1185 1079Q1185
1067 1179 1061T1163 1051T1139 1048T1111 1048H246V610H1106Q1128 610 1143 604T1158 578Q1158 556 1146 549T1113 542H246V66H1113Q1128 66 1141 66T1164 63T1181 54T1187 35Z" />
<glyph unicode="F" glyph-name="F" horiz-adv-x="1239" d="M246 70Q246 41 238 21T205 0Q176 0 169 20T161 68V1077Q161 1092 161 1099T165 1110T175 1113T198 1114H1176Q1189 1114 1200 1114T1220 1110T1234 1099T1239 1079Q1239 1056 1222 1052T1176 1048H246V594H1033Q1062
594 1080 590T1099 563Q1099 550 1094 543T1079 533T1058 529T1033 528H246V70Z" />
<glyph unicode="G" glyph-name="G" horiz-adv-x="1623" d="M873 45Q1024 45 1161 65T1437 118V536H927Q915 536 903 536T880 540T863 551T856 571Q856 584 862 591T879 601T901 605T927 606H1437Q1479 606 1494 590T1509 536V118Q1509 87 1486 71T1437 49Q1289
20 1150 0T873 -21Q687 -21 547 11T312 112T171 291T123 557Q123 713 170 822T312 1001T546 1103T873 1135Q1003 1135 1125 1112T1373 1036Q1389 1029 1396 1019T1403 998Q1403 986 1394 977T1371 968Q1367 968 1352 973Q1237 1021 1114 1045T873 1069Q695 1069
569 1040T363 948T245 789T208 557Q208 422 245 326T362 167T569 75T873 45Z" />
<glyph unicode="H" glyph-name="H" horiz-adv-x="1373" d="M159 1044Q159 1057 160 1069T167 1092T182 1108T207 1114Q218 1114 225 1108T236 1091T242 1069T244 1044V606H1129V1044Q1129 1057 1130 1069T1135 1092T1148 1108T1171 1114Q1186 1114 1194 1108T1207
1092T1213 1070T1214 1044V70Q1214 57 1213 45T1208 22T1195 6T1172 0Q1157 0 1149 6T1136 22T1130 44T1129 70V544H244V70Q244 58 242 46T236 23T224 7T205 0Q190 0 181 6T167 22T161 44T159 70V1044Z" />
<glyph unicode="I" glyph-name="I" horiz-adv-x="1031" d="M473 1048H116Q103 1048 90 1048T67 1051T50 1060T43 1079Q43 1094 50 1101T67 1111T91 1114T116 1114H915Q930 1114 943 1114T965 1111T981 1101T987 1081Q987 1067 981 1061T966 1051T943 1048T915
1048H558V66H915Q930 66 943 66T965 63T981 53T987 33Q987 19 981 13T966 3T943 0T915 0H116Q104 0 91 0T68 3T50 13T43 35Q43 47 49 53T66 63T90 66T116 66H473V1048Z" />
<glyph unicode="J" glyph-name="J" horiz-adv-x="1057" d="M898 594Q898 438 878 323T808 131T675 18T467 -20Q382 -20 307 -10T171 26T69 97T7 214Q3 222 3 238Q3 258 13 267T37 277Q50 277 62 268T80 240Q96 171 136 133T230 76T346 53T467 49Q573 49 640 84T746
189T798 359T813 594V1044Q813 1073 821 1093T858 1114Q871 1114 879 1108T891 1091T896 1069T898 1044V594Z" />
<glyph unicode="K" glyph-name="K" horiz-adv-x="1229" d="M516 621L1099 77Q1119 59 1119 37Q1119 22 1109 11T1084 0Q1067 0 1051 15L453 580L246 444V70Q246 41 237 21T204 0Q175 0 168 20T160 68V1048Q160 1077 168 1095T206 1114Q230 1114 238 1095T246 1050V524L1047
1099Q1058 1107 1068 1110T1087 1114Q1103 1114 1111 1105T1120 1082Q1120 1060 1098 1044L516 621Z" />
<glyph unicode="L" glyph-name="L" horiz-adv-x="1145" d="M201 0Q186 0 178 1T165 5T161 16T160 37V1049Q160 1075 169 1094T207 1114Q231 1114 238 1094T245 1049V66H1104Q1124 66 1134 56T1145 33Q1145 20 1135 10T1104 0H201Z" />
<glyph unicode="M" glyph-name="M" horiz-adv-x="1768" d="M884 139L1504 1071Q1519 1094 1534 1104T1565 1114Q1584 1114 1596 1099T1609 1060V70Q1609 41 1602 21T1566 0Q1541 0 1533 20T1524 70V958L933 86Q909 52 884 52Q857 52 835 86L244 958V70Q244 41
236 21T202 0Q173 0 166 20T159 70V1060Q159 1083 171 1098T203 1114Q217 1114 232 1104T264 1071L884 139Z" />
<glyph unicode="N" glyph-name="N" horiz-adv-x="1527" d="M1282 128V1038Q1282 1053 1283 1066T1288 1090T1301 1107T1325 1114Q1351 1114 1359 1092T1367 1038V64Q1367 0 1333 0Q1310 0 1276 31L245 986V70Q245 41 237 21T204 0Q175 0 168 20T160 70V1049Q160
1079 171 1095T201 1111Q226 1111 259 1081L1282 128Z" />
<glyph unicode="O" glyph-name="O" horiz-adv-x="1715" d="M1592 557Q1592 411 1549 303T1415 122T1186 15T857 -21Q667 -21 529 14T300 122T167 302T123 557Q123 703 166 811T300 992T528 1099T857 1135Q1047 1135 1185 1100T1414 992T1548 812T1592 557ZM208
557Q208 417 248 320T368 162T571 73T857 45Q1021 45 1143 72T1346 161T1467 320T1507 557Q1507 696 1467 793T1346 952T1143 1041T857 1069Q693 1069 571 1042T369 953T248 794T208 557Z" />
<glyph unicode="P" glyph-name="P" horiz-adv-x="1187" d="M1154 717Q1154 626 1132 564T1069 460T973 397T848 363T703 350T543 348H245V76Q245 47 238 24T206 0Q177 0 169 22T160 76V1077Q160 1092 162 1099T171 1110T186 1113T211 1114H543Q634 1114 714 1109T863
1089T985 1046T1076 975T1134 867T1154 717ZM1069 717Q1069 821 1038 886T942 987T778 1035T543 1048H245V410H543Q679 410 778 418T942 458T1038 551T1069 717Z" />
<glyph unicode="Q" glyph-name="Q" horiz-adv-x="1715" d="M1592 557Q1592 305 1461 164T1049 -10L1074 -133Q1076 -145 1078 -156T1080 -176Q1080 -190 1073 -199T1045 -209Q1023 -209 1016 -191T1004 -150L977 -17Q948 -19 919 -20T857 -21Q667 -21 529 14T300
122T167 302T123 557Q123 703 166 811T300 992T528 1099T857 1135Q1047 1135 1185 1100T1414 992T1548 812T1592 557ZM208 557Q208 417 248 320T368 162T571 73T857 45Q912 45 963 48L951 109Q949 120 947 130T945 150Q945 164 952 175T981 187Q1001 187 1008 169T1021
126L1035 54Q1154 68 1242 103T1390 200T1478 350T1507 557Q1507 696 1467 793T1346 952T1143 1041T857 1069Q693 1069 571 1042T369 953T248 794T208 557Z" />
<glyph unicode="R" glyph-name="R" horiz-adv-x="1256" d="M1141 768Q1141 707 1123 661T1075 581T1003 524T914 487T817 465T718 456L1086 69Q1095 60 1098 51T1103 33Q1103 19 1094 10T1069 0Q1058 0 1046 5T1021 24L620 452H246V76Q246 61 245 48T239 24T228
7T208 0Q179 0 170 22T161 76V1077Q161 1092 161 1099T165 1110T175 1113T198 1114H488Q581 1114 665 1112T822 1100T954 1068T1054 1008T1118 911T1141 768ZM1056 768Q1056 867 1020 923T911 1007T733 1041T488 1048H246V518H621Q708 518 787 526T925 560T1020
636T1056 768Z" />
<glyph unicode="S" glyph-name="S" horiz-adv-x="1540" d="M1427 311Q1427 247 1404 198T1340 112T1243 50T1120 9T980 -13T829 -20Q722 -20 616 -9T418 18T256 54T149 90Q135 97 129 107T122 129Q122 141 128 149T148 158Q154 158 162 155Q201 139 274 120T439
85T636 57T844 46Q944 46 1034 59T1192 103T1301 185T1342 311Q1342 374 1308 414T1214 479T1076 516T909 535T726 545T544 557T376 580T238 624T145 699T110 815Q110 879 134 928T200 1012T299 1071T424 1109T566 1129T716 1135Q809 1135 899 1127T1068 1104T1210
1072T1311 1036Q1319 1032 1323 1025T1327 1009Q1327 995 1318 983T1291 971Q1281 971 1274 975Q1221 997 1157 1014T1020 1044T872 1062T720 1069Q616 1069 521 1057T354 1017T238 941T195 821Q195 766 229 732T323 676T461 645T628 628T811 618T993 603T1161
574T1299 522T1392 438T1427 311Z" />
<glyph unicode="T" glyph-name="T" horiz-adv-x="1343" d="M1325 1077Q1325 1057 1311 1053T1275 1048H716V74Q716 59 715 46T710 23T697 6T674 0Q648 0 640 22T631 74V1048H71Q49 1048 34 1052T18 1077Q18 1092 25 1099T42 1110T66 1113T92 1114H1253Q1268 1114
1281 1114T1303 1110T1319 1100T1325 1077Z" />
<glyph unicode="U" glyph-name="U" horiz-adv-x="1586" d="M794 45Q957 45 1066 76T1240 172T1333 332T1360 560V1044Q1360 1070 1368 1092T1401 1114Q1416 1114 1424 1108T1437 1092T1443 1070T1445 1044V560Q1445 404 1405 294T1283 113T1080 11T794 -21Q630
-21 508 11T304 113T182 293T141 560V1044Q141 1057 142 1069T149 1092T162 1108T186 1114Q211 1114 218 1092T226 1044V560Q226 429 253 333T346 172T521 77T794 45Z" />
<glyph unicode="V" glyph-name="V" horiz-adv-x="1427" d="M714 90L1285 1064Q1296 1083 1308 1097T1334 1113Q1353 1113 1361 1101T1369 1078Q1369 1067 1363 1055T1348 1029L765 35Q754 17 741 9T713 0Q683 0 662 35L77 1029Q69 1043 64 1055T58 1080Q58 1088
66 1100T91 1113Q108 1111 119 1097T142 1064L714 90Z" />
<glyph unicode="W" glyph-name="W" horiz-adv-x="1792" d="M1276 125L1610 1059Q1618 1079 1628 1096T1655 1114Q1675 1114 1682 1103T1690 1081Q1690 1070 1687 1058T1678 1032L1325 53Q1314 30 1305 15T1276 0Q1256 0 1247 15T1229 53L895 981L563 53Q555 30
544 15T514 0Q494 0 485 15T467 53L115 1032Q110 1046 106 1058T101 1081Q101 1092 109 1103T137 1114Q156 1114 165 1097T183 1059L514 125L848 1059Q856 1079 865 1096T893 1114Q916 1114 925 1099T944 1059L1276 125Z" />
<glyph unicode="X" glyph-name="X" horiz-adv-x="1435" d="M717 596L1213 1093Q1233 1113 1253 1113Q1267 1113 1275 1103T1284 1079Q1284 1071 1280 1061T1267 1042L769 547L1276 75Q1289 63 1294 51T1300 28Q1300 16 1293 8T1273 0Q1251 0 1226 24L717 498L208
23Q193 9 182 5T161 0Q148 0 141 7T133 27Q133 50 158 74L665 547L167 1042Q149 1060 149 1079Q149 1093 158 1103T181 1113Q201 1113 221 1093L717 596Z" />
<glyph unicode="Y" glyph-name="Y" horiz-adv-x="1165" d="M583 535L1040 1089Q1059 1113 1082 1113Q1115 1113 1115 1077Q1115 1060 1098 1040L626 471V69Q626 40 619 20T586 0Q571 0 563 5T549 20T543 42T541 67V473L67 1040Q57 1051 54 1059T50 1080Q50 1095
59 1104T83 1114Q105 1114 126 1089L583 535Z" />
<glyph unicode="Z" glyph-name="Z" horiz-adv-x="1335" d="M172 66H1212Q1235 66 1247 56T1259 33Q1259 20 1247 10T1212 0H120Q83 0 65 4T47 36Q47 52 55 63T79 88L1163 1048H120Q97 1048 86 1058T75 1081Q75 1093 86 1103T120 1114H1208Q1243 1114 1266 1109T1290
1079Q1290 1065 1279 1052T1257 1026L172 66Z" />
<glyph unicode="[" glyph-name="bracketleft" horiz-adv-x="391" d="M332 -174Q332 -197 311 -203T261 -209H154Q139 -209 131 -204T120 -189T116 -167T115 -139V1253Q115 1268 115 1280T120 1302T132 1317T156 1323H261Q276 1323 288 1323T311 1319T326 1309T332
1290Q332 1275 327 1268T311 1257T289 1254T261 1253H187V-139Q210 -139 229 -139T265 -138Q297 -138 314 -144T332 -174Z" />
<glyph unicode="\" glyph-name="backslash" horiz-adv-x="644" d="M582 16Q590 -1 593 -13T596 -33Q596 -44 588 -53T561 -63Q543 -63 533 -47T514 -10L62 1092Q54 1109 51 1121T47 1141Q47 1152 55 1163T84 1174Q93 1174 99 1169T111 1156T120 1138T129 1118L582 16Z" />
<glyph unicode="]" glyph-name="bracketright" horiz-adv-x="390" d="M58 -174Q58 -151 80 -145T140 -139H204V1253H130Q117 1253 104 1253T81 1257T65 1267T58 1290Q58 1302 64 1309T81 1319T104 1322T130 1323H234Q249 1323 257 1318T270 1303T274 1281T275
1253V-139Q275 -154 275 -166T271 -188T259 -203T236 -209H130Q117 -209 104 -208T81 -203T65 -193T58 -174Z" />
<glyph unicode="^" glyph-name="asciicircum" horiz-adv-x="619" d="M312 1204L172 1049Q163 1038 150 1022T123 991T96 965T72 954Q58 954 49 966T39 987Q39 1002 48 1011T70 1038Q78 1049 95 1072T135 1123T184 1180T234 1233T278 1272T310 1288Q321 1288 330
1283T348 1272L365 1255L551 1038Q564 1026 572 1014T580 989Q580 981 572 968T547 954Q535 954 523 967T494 997L312 1204Z" />
<glyph unicode="_" glyph-name="underscore" horiz-adv-x="1511" d="M1388 228Q1388 211 1379 198T1350 184H160Q140 184 132 197T123 228Q123 245 131 258T160 272H1350Q1370 272 1379 259T1388 228Z" />
<glyph unicode="`" glyph-name="grave" horiz-adv-x="376" d="M353 1013Q361 1005 361 995Q361 984 353 977T334 969Q327 969 319 974L27 1211Q12 1223 12 1239Q12 1250 18 1261T33 1280T53 1294T76 1300Q90 1300 101 1289L353 1013Z" />
<glyph unicode="a" glyph-name="a" horiz-adv-x="1191" d="M214 224Q214 176 238 143T307 89T411 59T544 49Q632 49 700 61T819 93T905 134T963 178V379Q863 393 756 405T540 418Q463 418 403 409T300 378T236 319T214 224ZM639 727Q543 727 475 722T359 709T277
692T219 674Q207 674 197 686T187 712Q187 725 199 731Q207 735 236 744T319 762T452 779T640 786Q691 786 741 780T835 756T918 709T984 632T1028 517T1044 358V70Q1044 58 1043 46T1038 24T1025 7T1003 0Q980 0 972 21T963 74V143Q943 118 911 91T830 42T713
5T552 -10Q465 -10 389 3T256 44T167 116T134 224Q134 297 164 345T249 423T375 465T532 477Q595 477 658 473T779 460T883 439T963 409Q963 511 936 573T864 669T761 715T639 727Z" />
<glyph unicode="b" glyph-name="b" horiz-adv-x="1255" d="M689 786Q779 786 859 768T1000 704T1096 584T1132 396Q1132 284 1103 207T1017 81T878 12T689 -10Q608 -10 540 0T417 25T317 60T239 97V73Q239 58 238 45T233 22T221 6T198 0Q183 0 176 6T164 22T160
45T159 73V1065Q159 1097 172 1105T201 1114Q216 1114 227 1106T239 1065V587Q250 629 278 660T344 714T429 750T521 772T611 783T689 786ZM689 727Q629 726 558 718T422 687T307 626T239 524V140Q282 124 331 108T437 78T556 57T689 49Q785 49 853 69T966 131T1031
239T1052 396Q1052 490 1024 554T946 656T831 710T689 727Z" />
<glyph unicode="c" glyph-name="c" horiz-adv-x="1132" d="M628 727Q513 727 432 708T300 648T224 541T200 385Q200 293 226 229T306 125T440 67T627 49Q675 49 724 56T819 73T902 97T964 122Q979 127 985 127Q998 127 1005 120T1013 101Q1013 93 1008 85T992
70Q904 25 810 8T628 -10Q514 -10 421 8T261 71T157 192T120 385Q120 501 154 578T253 701T412 767T628 786Q716 786 810 769T992 706Q1003 700 1008 692T1013 675Q1013 664 1006 657T985 649Q979 649 964 654Q940 666 902 679T819 702T725 720T628 727Z" />
<glyph unicode="d" glyph-name="d" horiz-adv-x="1255" d="M566 -10Q476 -10 396 8T255 72T159 192T123 380Q123 492 152 569T238 695T377 764T566 786Q672 786 748 774T876 742T962 701T1016 659V1043Q1016 1056 1016 1069T1021 1092T1032 1108T1055 1114Q1070
1114 1078 1109T1090 1094T1095 1073T1096 1045V54Q1096 22 1084 11T1057 0Q1040 0 1028 10T1016 52V191Q1005 148 977 117T911 63T826 27T734 4T644 -7T566 -10ZM566 49Q626 50 697 58T833 89T948 150T1016 252V612Q993 630 958 650T869 687T741 716T566 727Q470
727 402 707T289 645T224 537T203 380Q203 285 231 222T309 120T424 66T566 49Z" />
<glyph unicode="e" glyph-name="e" horiz-adv-x="1130" d="M600 727Q507 727 435 711T313 660T234 568T202 431H956V485Q956 535 938 579T877 656T767 708T600 727ZM548 49Q643 49 714 61T836 90T919 125T970 155Q976 157 978 157Q989 157 998 147T1008 124Q1008
113 998 106Q989 97 960 78T875 40T739 5T547 -10Q431 -10 350 19T218 100T144 225T121 385Q121 501 158 578T259 701T411 767T600 786Q808 786 911 707T1015 479Q1015 465 1013 448T1008 416T1000 390T991 379H697L201 389Q203 296 225 232T291 127T399 68T548
49Z" />
<glyph unicode="f" glyph-name="f" horiz-adv-x="689" d="M264 751H629Q644 751 651 744T659 727Q659 718 651 711T629 703H264V49Q264 17 253 9T224 0Q210 0 197 8T184 49V703H96Q82 703 75 710T68 727Q68 736 75 743T96 751H185V816Q185 897 201 952T248 1041T322
1090T419 1105Q449 1105 476 1104T530 1098T588 1086T655 1066Q686 1056 686 1035Q686 1027 678 1019T655 1010Q643 1010 636 1014Q582 1033 532 1040T433 1047Q394 1047 363 1039T309 1005T276 935T264 816V751Z" />
<glyph unicode="g" glyph-name="g" horiz-adv-x="1239" d="M647 717Q528 717 444 700T305 643T226 539T201 383Q201 291 222 227T290 124T415 67T606 49Q658 49 710 54T814 72T912 104T1000 150V524Q993 552 975 585T917 648T812 697T647 717ZM621 -270Q703 -270
772 -256T892 -211T971 -135T1000 -23V96Q957 66 908 46T808 13T704 -4T602 -10Q488 -10 399 7T248 69T154 189T121 383Q121 500 158 577T263 701T426 767T639 786Q742 786 808 767T915 719T974 656T1000 594Q1000 612 999 635T997 682Q997 716 1003 741T1032 766Q1047
766 1056 760T1070 743T1078 721T1080 696V-23Q1080 -181 961 -260T621 -340Q549 -340 493 -333T393 -315T315 -288T254 -258Q243 -255 228 -243T213 -213Q213 -194 226 -186T246 -178Q255 -178 267 -184T294 -199T329 -217T371 -233Q413 -247 473 -258T621 -270Z"
/>
<glyph unicode="h" glyph-name="h" horiz-adv-x="1198" d="M1051 72Q1051 59 1050 46T1044 23T1033 7T1013 0Q998 0 990 6T978 23T972 46T971 72V418Q971 496 959 554T914 650T820 708T664 727Q606 727 539 718T412 685T304 622T239 524V72Q239 59 238 46T232
23T221 7T201 0Q187 0 179 6T166 23T160 46T159 72V1044Q159 1056 160 1068T165 1091T178 1107T201 1114Q213 1114 220 1108T232 1092T237 1070T239 1044V594Q250 634 276 664T338 715T417 750T503 772T588 783T664 786Q772 786 846 768T965 706T1031 593T1051
418V72Z" />
<glyph unicode="i" glyph-name="i" horiz-adv-x="426" d="M252 63Q252 50 251 39T247 19T235 5T212 0Q184 0 178 17T172 63V705Q172 730 179 748T214 766Q239 766 245 748T252 707V63ZM159 992Q159 1015 174 1030T212 1046Q235 1046 251 1031T267 992Q267 969
251 955T212 941Q189 941 174 955T159 992Z" />
<glyph unicode="j" glyph-name="j" horiz-adv-x="483" d="M359 94Q359 59 358 19T348 -61T321 -138T271 -203T188 -249T66 -266Q53 -266 41 -266T20 -262T6 -251T0 -231Q0 -218 5 -211T20 -201T41 -198T66 -197Q149 -197 192 -171T255 -104T277 -10T279 94V714Q279
736 286 751T320 766Q349 766 354 751T359 714V94ZM265 992Q265 1015 280 1030T318 1046Q341 1046 357 1031T373 992Q373 969 357 955T318 941Q295 941 280 955T265 992Z" />
<glyph unicode="k" glyph-name="k" horiz-adv-x="999" d="M904 59Q911 52 913 45T917 30Q917 16 908 8T882 0Q874 -1 867 3T851 16L392 430L240 345V44Q240 21 227 11T200 0Q187 0 174 10T160 44V1070Q160 1090 174 1100T202 1110Q216 1110 228 1100T240 1070V410L866
774Q872 777 879 777Q892 777 900 767T909 746Q909 733 892 722L453 461L904 59Z" />
<glyph unicode="l" glyph-name="l" horiz-adv-x="399" d="M240 70Q240 41 233 21T201 0Q186 0 178 5T166 20T161 42T160 68V1042Q160 1057 161 1070T166 1092T179 1108T203 1114Q215 1114 222 1108T234 1092T239 1070T240 1044V70Z" />
<glyph unicode="m" glyph-name="m" horiz-adv-x="1630" d="M1403 489Q1403 558 1392 604T1357 677T1298 716T1215 727Q1087 727 1003 675T862 532V52Q862 34 859 24T849 9T837 2T824 0Q817 0 810 1T796 7T786 22T782 52V532Q782 623 740 675T603 727Q532 727 471
711T363 668T283 605T239 528V52Q239 17 228 9T204 0Q197 0 189 1T175 7T164 22T159 52V717Q159 749 172 757T200 766Q217 766 227 758T238 717V594Q254 639 288 675T370 735T477 773T601 786Q677 786 723 766T796 716T832 654T848 599Q866 630 896 663T971 723T1076
768T1213 786Q1351 786 1417 716T1483 489V52Q1483 34 1479 24T1470 9T1457 2T1444 0Q1436 0 1429 1T1416 7T1407 22T1403 52V489Z" />
<glyph unicode="n" glyph-name="n" horiz-adv-x="1192" d="M1045 72Q1045 59 1043 46T1037 23T1024 7T1004 0Q989 0 982 6T970 23T966 46T965 72V418Q965 496 954 554T909 650T816 708T660 727Q601 727 535 718T409 685T303 622T239 524V72Q239 59 238 46T233
23T222 7T202 0Q188 0 180 6T167 23T161 46T159 72V720Q159 737 166 751T201 766Q226 766 232 753T239 720V594Q267 658 317 696T426 754T547 780T660 786Q768 786 841 768T960 706T1025 593T1045 418V72Z" />
<glyph unicode="o" glyph-name="o" horiz-adv-x="1240" d="M620 -10Q482 -10 387 17T234 96T149 220T123 385Q123 491 152 566T243 691T398 763T620 786Q748 786 841 763T996 691T1087 567T1117 385Q1117 293 1091 220T1007 96T853 18T620 -10ZM620 49Q711 49
777 62T889 100T964 156T1009 225T1031 303T1037 385Q1037 478 1013 543T938 649T808 708T620 727Q510 727 432 709T302 649T227 543T203 385Q203 344 208 304T230 226T275 156T350 100T463 63T620 49Z" />
<glyph unicode="p" glyph-name="p" horiz-adv-x="1255" d="M689 786Q779 786 859 768T1000 704T1096 584T1132 396Q1132 284 1103 207T1017 81T878 12T689 -10Q608 -10 540 0T417 25T317 60T239 97L237 -267Q237 -280 237 -292T232 -315T221 -331T198 -337Q183
-337 176 -331T164 -314T160 -290T159 -261V717Q159 749 171 757T197 766Q214 766 224 758T234 717V585Q246 627 275 658T343 712T427 749T519 772T610 783T689 786ZM689 727Q629 726 558 718T422 687T307 626T239 524V140Q282 124 331 108T437 78T556 57T689 49Q785
49 853 69T966 131T1031 239T1052 396Q1052 490 1024 554T946 656T831 710T689 727Z" />
<glyph unicode="q" glyph-name="q" horiz-adv-x="1197" d="M566 786Q601 786 644 783T733 772T824 750T908 713T975 659T1016 585V714Q1016 746 1029 756T1059 766Q1073 766 1084 755T1096 712V-269Q1096 -284 1095 -296T1090 -318T1078 -332T1055 -338Q1040 -338
1033 -332T1021 -316T1017 -294T1016 -267V117Q997 97 964 75T877 33T748 2T566 -10Q460 -10 378 11T239 81T153 206T123 396Q123 509 158 584T254 704T395 767T566 786ZM566 727Q491 727 425 711T309 656T232 554T203 396Q203 305 223 240T288 132T401 69T566
49Q666 49 740 60T867 87T956 124T1016 164V524Q998 587 948 626T833 687T697 717T566 727Z" />
<glyph unicode="r" glyph-name="r" horiz-adv-x="809" d="M748 762Q759 759 764 751T769 732Q769 719 761 708T735 697Q730 697 729 697T723 699Q684 710 649 716T571 722Q512 722 459 711T362 676T286 616T238 530V70Q238 44 231 22T199 0Q185 0 177 6T164 22T159
44T158 70V710Q158 733 166 749T203 766Q225 766 231 750T238 710V594Q254 655 293 693T381 751T481 779T571 786Q609 786 636 784T684 778T719 770T748 762Z" />
<glyph unicode="s" glyph-name="s" horiz-adv-x="1182" d="M992 209Q992 262 955 291T856 333T716 350T556 356T396 365T256 392T157 451T119 557Q119 626 156 670T255 740T393 776T550 786Q681 786 794 765T1004 692Q1014 687 1017 680T1022 664Q1022 651 1014
641T996 631Q990 631 988 633Q903 676 796 701T554 727Q486 727 422 719T309 691T229 639T199 557Q199 507 236 480T335 441T475 425T635 419T795 409T935 380T1034 318T1072 209Q1072 148 1034 106T933 39T788 2T617 -10Q563 -10 501 -8T376 4T256 33T155 87Q141
98 141 113Q141 126 148 135T167 145Q175 145 179 141Q221 112 269 94T372 66T485 53T607 49Q682 49 751 56T874 82T960 131T992 209Z" />
<glyph unicode="t" glyph-name="t" horiz-adv-x="714" d="M597 751Q612 751 619 744T627 727Q627 718 620 711T597 703H265V279Q265 206 280 161T320 91T380 58T454 49Q502 49 548 66T654 115Q666 121 677 121Q690 121 697 114T705 95Q705 75 683 63Q641 40 609
26T549 4T495 -7T440 -10Q386 -10 340 5T259 53T205 142T185 279V703H97Q83 703 76 710T69 727Q69 736 76 743T97 751H185V1000Q185 1032 198 1040T225 1049Q242 1049 253 1041T265 1000V751H597Z" />
<glyph unicode="u" glyph-name="u" horiz-adv-x="1178" d="M938 141Q917 116 885 90T805 41T693 5T545 -10Q438 -10 363 10T239 74T169 185T147 348V694Q147 707 148 720T154 743T166 759T187 766Q202 766 210 760T221 743T226 720T227 694V348Q227 264 241 207T290
115T387 65T545 49Q615 49 674 61T783 91T871 133T939 178V694Q939 707 940 720T944 743T955 759T976 766Q991 766 999 760T1012 743T1018 720T1019 694V70Q1019 57 1018 45T1012 22T1001 6T981 0Q953 0 946 18T938 61V70V141Z" />
<glyph unicode="v" glyph-name="v" horiz-adv-x="1024" d="M512 -10Q489 -10 478 4T461 29L71 695Q65 705 63 713T61 730Q61 747 71 756T95 766Q106 766 118 759T139 735L512 73L885 735Q894 751 906 758T929 766Q943 766 953 757T963 730Q963 714 953 695L563
29Q556 18 544 4T512 -10Z" />
<glyph unicode="w" glyph-name="w" horiz-adv-x="1356" d="M952 90L1164 726Q1172 748 1184 757T1209 766Q1225 766 1237 754T1250 720Q1250 705 1246 698L1010 49Q1000 23 985 9T952 -5Q933 -5 920 7T897 49L678 674L459 49Q448 20 434 8T404 -5Q365 -5 346 49L110
698Q106 705 106 720Q106 741 118 753T147 766Q160 766 172 757T192 726L404 90L616 712Q634 766 677 766Q696 766 713 753T740 712L952 90Z" />
<glyph unicode="x" glyph-name="x" horiz-adv-x="1139" d="M971 70Q993 49 993 27Q993 -3 961 -3Q944 -3 921 17L570 337L219 17Q206 6 197 2T177 -3Q146 -3 146 28Q146 48 169 70L516 387L165 698Q145 715 145 735Q145 748 154 757T178 766Q198 766 219 748L570
436L921 748Q940 766 961 766Q975 766 984 758T994 735Q994 716 975 698L624 387L971 70Z" />
<glyph unicode="y" glyph-name="y" horiz-adv-x="1170" d="M587 -275Q690 -275 759 -253T869 -179T928 -42T946 170Q935 129 910 100T851 51T776 19T693 1T611 -8T536 -10Q428 -10 354 9T234 75T168 198T147 387V694Q147 707 148 720T153 743T164 759T186 766Q201
766 209 760T221 743T226 720T227 694V387Q227 289 239 224T286 120T380 65T536 49Q593 49 658 57T781 86T884 144T946 240V694Q946 707 947 720T953 743T964 759T984 766Q999 766 1007 760T1019 743T1025 720T1026 694V203Q1026 49 1002 -54T924 -219T788 -308T587
-334Q503 -334 446 -325T349 -303T283 -272T238 -240Q230 -232 230 -221Q230 -207 237 -198T261 -188Q269 -188 278 -194Q297 -208 322 -222T384 -248T470 -267T587 -275Z" />
<glyph unicode="z" glyph-name="z" horiz-adv-x="1032" d="M151 0Q134 0 122 13T109 45Q109 71 135 94L820 699H173Q158 699 145 699T122 702T106 711T100 730Q100 745 105 752T121 763T143 766T171 766H875Q899 766 912 754T925 723Q925 698 901 677L211 67H865Q880
67 893 67T916 64T932 54T938 31Q938 19 932 13T915 3T893 0T867 0H151Z" />
<glyph unicode="{" glyph-name="braceleft" horiz-adv-x="605" d="M42 782Q108 782 149 801T214 854T249 932T265 1027T272 1129T281 1232T304 1326T352 1404T435 1457T566 1477Q583 1477 591 1467T599 1444Q599 1431 591 1422T566 1413H549Q481 1413 442 1386T382
1313T353 1211T341 1092T330 972T305 865T250 786T151 750Q214 745 250 714T304 635T329 528T341 408T353 289T382 186T442 114T549 86Q554 86 558 86T568 87Q584 87 591 77T599 56Q599 43 591 33T566 23Q487 23 436 42T352 95T304 173T281 268T272 370T265 473T250
567T215 645T149 698T42 718Q25 718 17 728T9 750Q9 762 17 772T42 782Z" />
<glyph unicode="|" glyph-name="bar" horiz-adv-x="304" d="M188 -63Q188 -78 188 -90T184 -112T173 -127T153 -133Q138 -133 131 -128T120 -113T117 -91T116 -66V1225Q116 1240 116 1252T120 1275T130 1290T153 1296Q166 1296 173 1290T183 1275T187 1253T188 1227V-63Z" />
<glyph unicode="}" glyph-name="braceright" horiz-adv-x="605" d="M564 782Q581 782 589 772T597 750Q597 738 589 728T564 718Q498 718 457 699T392 646T357 568T341 473T334 371T325 268T302 174T254 96T171 43T40 23Q23 23 15 33T7 56Q7 67 14 77T38 87Q43
87 47 87T57 86Q124 86 163 113T224 186T253 289T265 408T276 528T302 634T356 713T455 750Q392 755 357 786T302 865T277 972T266 1092T253 1210T224 1313T164 1385T57 1413H40Q23 1413 15 1422T7 1444Q7 1456 15 1466T40 1477Q119 1477 170 1458T254 1405T302
1327T325 1232T334 1130T341 1027T356 933T391 855T457 802T564 782Z" />
<glyph unicode="~" glyph-name="asciitilde" horiz-adv-x="969" d="M668 475Q696 475 722 482T769 509T802 561T814 647H887Q887 569 863 521T805 447T734 412T668 403Q623 403 589 418T526 457T473 507T423 558T369 596T306 612Q278 612 252 605T206 579T173
526T160 440H89Q89 518 112 565T169 639T240 675T306 684Q351 684 385 669T448 630T501 580T551 529T605 491T668 475Z" />
<glyph unicode="&#xa1;" glyph-name="exclamdown" horiz-adv-x="328" d="M108 35Q108 10 125 0T164 -10Q186 -10 203 1T221 37L189 850Q188 864 181 871T164 879Q155 879 148 872T140 850Q132 647 127 508T118 278T112 138T109 66T108 39T108 35ZM108 1054Q108
1028 124 1012T166 995Q191 995 208 1011T226 1054Q226 1079 209 1094T166 1110Q140 1110 124 1095T108 1054Z" />
<glyph unicode="&#xa2;" glyph-name="cent" horiz-adv-x="1132" d="M658 -63Q658 -78 658 -90T654 -112T643 -127T623 -133Q608 -133 601 -128T590 -113T587 -91T586 -66V-9Q481 -6 395 14T248 79T154 199T120 385Q120 496 151 571T241 692T388 760T586 785V879Q586
894 586 906T590 929T600 944T623 950Q636 950 643 944T653 929T657 907T658 881V785Q740 783 825 766T992 706Q1003 700 1008 692T1013 675Q1013 664 1006 657T985 649Q979 649 964 654Q942 665 908 677T833 699T747 716T658 726V49Q703 51 748 58T833 76T908
99T964 122Q979 127 985 127Q998 127 1005 120T1013 101Q1013 93 1008 85T992 70Q911 28 826 11T658 -9V-63ZM200 385Q200 298 224 236T296 133T416 72T586 49V726Q482 723 409 702T290 640T222 535T200 385Z" />
<glyph unicode="&#xa3;" glyph-name="sterling" horiz-adv-x="987" d="M232 192Q289 192 337 183T430 161T519 132T611 103T716 80T842 71Q874 71 893 65T912 36Q912 9 893 5T844 0Q764 0 702 9T588 33T493 64T408 95T325 119T232 129Q178 129 157 117T135 91Q135
77 156 66T229 54Q319 54 357 85T396 179Q396 184 395 198T388 248T373 349T344 521H134Q111 521 101 532T90 556Q90 570 100 581T134 592H334L315 753Q313 770 312 786T311 817Q311 902 336 962T404 1060T504 1117T624 1135Q652 1135 683 1133T746 1122T811 1099T878
1060Q887 1053 891 1044T896 1025Q896 1012 886 1005T863 998Q850 998 848 1000T835 1010Q775 1048 719 1059T621 1070Q575 1070 533 1056T459 1012T408 933T389 816Q389 791 392 763L411 592H703Q718 592 730 592T752 588T767 577T773 557Q773 531 754 526T703
521H421Q438 420 448 358T463 259T470 209T472 189Q472 135 451 97T396 35T319 1T232 -10Q188 -10 156 -2T102 21T71 53T61 90Q61 109 71 127T102 160T155 183T232 192Z" />
<glyph unicode="&#xa4;" glyph-name="currency" horiz-adv-x="958" d="M786 494Q798 485 812 473T838 448T858 426T866 410L860 395L848 385Q842 379 835 379L817 385L727 469Q676 426 612 404T479 381Q410 381 346 403T231 469L215 453Q205 443 191 430T164 406T140
387T125 379L108 385Q92 398 92 410Q103 427 113 436T135 457L188 508Q96 615 96 748Q96 814 118 876T188 987Q180 992 165 1005T133 1034T104 1064T92 1087L98 1102Q103 1107 108 1112T125 1118L141 1112L231 1028Q282 1071 346 1093T479 1116Q548 1116 612 1094T727
1028Q732 1033 746 1048T778 1078T811 1106T835 1118Q836 1117 841 1115T851 1109T861 1100T866 1087L860 1071L770 987Q818 938 840 876T862 748Q862 691 844 633T788 530L770 508Q775 506 777 503T786 494ZM781 748Q781 808 758 861T694 954T598 1017T480 1041Q417
1041 362 1019T266 957T202 864T178 748Q178 688 202 635T267 541T363 478T480 454Q543 454 597 477T693 541T757 634T781 748Z" />
<glyph unicode="&#xa5;" glyph-name="yen" horiz-adv-x="1165" d="M908 467Q908 456 902 447T883 438H626V69Q626 40 619 20T586 0Q571 0 563 5T549 20T543 42T541 67V438H278Q265 438 260 447T254 467Q254 478 259 487T278 496H522L454 577H280Q267 577 262 586T256
606Q256 617 261 626T280 635H405L67 1040Q57 1051 54 1059T50 1080Q50 1095 59 1104T83 1114Q105 1114 126 1089L583 535L1040 1089Q1059 1113 1082 1113Q1115 1113 1115 1077Q1115 1060 1098 1040L761 635H885Q898 635 904 626T910 606Q910 595 904 586T885 577H713L646
496H883Q896 496 902 487T908 467Z" />
<glyph unicode="&#xa6;" glyph-name="brokenbar" horiz-adv-x="307" d="M189 694Q189 665 185 645T156 625Q141 625 134 630T122 645T118 667T117 692V1225Q117 1240 117 1252T122 1275T133 1290T156 1296Q168 1296 175 1290T185 1275T188 1253T189 1227V694ZM189
-57Q189 -86 185 -106T156 -127Q141 -127 134 -122T122 -107T118 -85T117 -59V473Q117 488 117 501T122 523T133 539T156 545Q168 545 175 539T185 523T188 501T189 475V-57Z" />
<glyph unicode="&#xa7;" glyph-name="section" horiz-adv-x="1108" d="M954 209Q954 262 917 291T818 333T678 350T518 356T358 365T218 392T119 451T81 557Q81 595 93 625T128 678T182 719T250 748Q212 757 181 771T128 806T94 855T81 922Q81 991 118 1035T217
1105T355 1141T512 1151Q643 1151 756 1130T966 1057Q976 1052 979 1045T984 1029Q984 1016 976 1006T958 996Q952 996 950 998Q865 1041 758 1066T516 1092Q448 1092 384 1084T271 1056T191 1004T161 922Q161 872 198 845T297 806T437 790T597 784T757 774T897
745T996 683T1034 574Q1034 502 984 459T853 392Q893 383 926 368T983 331T1020 279T1034 209Q1034 148 996 106T895 39T750 2T579 -10Q525 -10 463 -8T338 4T218 33T117 87Q103 98 103 113Q103 126 110 135T129 145Q137 145 141 141Q183 112 231 94T334 66T447
53T569 49Q644 49 713 56T836 82T922 131T954 209ZM954 574Q954 626 917 655T819 698T680 715T521 721Q453 721 388 714T273 688T192 638T161 557Q161 506 198 479T297 440T437 425T597 419Q667 420 732 428T846 454T924 501T954 574Z" />
<glyph unicode="&#xa8;" glyph-name="dieresis" horiz-adv-x="723" d="M87 996Q87 1022 103 1038T145 1055Q170 1055 187 1039T205 996Q205 971 188 956T145 940Q119 940 103 955T87 996ZM526 996Q526 1022 542 1038T584 1055Q609 1055 626 1039T644 996Q644 971
627 956T584 940Q558 940 542 955T526 996Z" />
<glyph unicode="&#xa9;" glyph-name="copyright" horiz-adv-x="1181" d="M248 556Q248 639 276 698T350 796T456 853T581 871Q645 871 708 855T827 806Q841 798 841 782Q841 770 833 760T813 750Q804 750 800 754Q755 781 699 796T586 811Q534 811 486 797T400
753T339 674T316 556Q316 487 339 439T399 360T485 315T586 301Q643 301 699 316T800 358Q804 362 813 362Q824 362 832 352T841 330Q841 314 827 306Q772 274 709 258T581 241Q516 241 456 259T350 315T276 413T248 556ZM1040 556Q1040 656 1002 731T901 857T758
933T594 959Q510 959 430 934T288 858T187 732T148 556Q148 456 186 381T287 255T430 179T594 153Q678 153 758 178T900 254T1001 380T1040 556ZM1106 556Q1106 441 1062 354T945 209T780 122T590 92Q494 92 402 121T237 209T120 354T75 556Q75 671 119 758T236
903T401 990T590 1020Q687 1020 779 991T944 903T1061 758T1106 556Z" />
<glyph unicode="&#xaa;" glyph-name="ordfeminine" horiz-adv-x="1191" d="M843 259Q852 259 858 252T865 235Q865 225 859 218T843 211H302Q293 211 287 218T280 235Q280 245 286 252T302 259H843ZM214 560Q214 512 238 479T307 425T411 395T544 385Q632 385
700 397T819 429T905 470T963 514V715Q863 729 756 741T540 754Q463 754 403 745T300 714T236 655T214 560ZM639 1063Q543 1063 475 1058T359 1045T277 1028T219 1010Q207 1010 197 1022T187 1048Q187 1061 199 1067Q207 1071 236 1080T319 1098T452 1115T640 1122Q691
1122 741 1116T835 1092T918 1045T984 968T1028 853T1044 694V406Q1044 394 1043 382T1038 360T1025 343T1003 336Q980 336 972 357T963 410V479Q943 454 911 427T830 378T713 341T552 326Q465 326 389 339T256 380T167 452T134 560Q134 633 164 681T249 759T375
801T532 813Q595 813 658 809T779 796T883 775T963 745Q963 847 936 909T864 1005T761 1051T639 1063Z" />
<glyph unicode="&#xab;" glyph-name="guillemotleft" horiz-adv-x="646" d="M256 367Q247 358 244 350T239 335Q239 318 256 301L497 49Q509 37 524 37Q539 37 551 47T563 72Q563 85 551 97L313 334L551 571Q562 582 562 596Q562 610 551 620T524 631Q509 631
497 619L256 367ZM57 367Q48 358 45 350T40 335Q40 318 57 301L298 49Q310 37 325 37Q340 37 352 47T364 72Q364 85 352 97L114 334L352 571Q363 582 363 596Q363 610 352 620T325 631Q310 631 298 619L57 367Z" />
<glyph unicode="&#xac;" glyph-name="logicalnot" horiz-adv-x="731" d="M623 327Q623 313 616 307T600 300Q592 300 585 306T578 327V482H623V327ZM596 504Q610 504 616 497T623 481Q623 473 617 466T596 459H164Q150 459 144 466T137 481Q137 490 143 497T164 504H596Z" />
<glyph unicode="&#xad;" glyph-name="uni00AD" horiz-adv-x="827" d="M556 518Q570 518 576 506T583 480Q583 468 577 456T556 444H197Q183 444 177 456T170 480Q170 493 176 505T197 518H556Z" />
<glyph unicode="&#xae;" glyph-name="registered" horiz-adv-x="1181" d="M887 674Q887 621 865 587T810 532T740 504T674 495L837 304Q844 297 844 285Q844 273 835 264T811 254Q796 254 785 268L601 493H430V290Q430 270 420 261T396 252Q384 252 374 261T363
290V830Q363 846 371 855T396 865H527Q602 865 668 862T782 842T859 785T887 674ZM819 674Q819 729 800 758T743 799T651 813T527 815H430V542H601Q643 542 682 544T751 558T800 597T819 674ZM1040 556Q1040 656 1002 731T901 857T758 933T594 959Q510 959 430
934T288 858T187 732T148 556Q148 456 186 381T287 255T430 179T594 153Q678 153 758 178T900 254T1001 380T1040 556ZM1106 556Q1106 441 1062 354T945 209T780 122T590 92Q494 92 402 121T237 209T120 354T75 556Q75 671 119 758T236 903T401 990T590 1020Q687
1020 779 991T944 903T1061 758T1106 556Z" />
<glyph unicode="&#xb0;" glyph-name="degree" horiz-adv-x="367" d="M301 997Q301 973 292 953T267 917T230 894T184 885Q160 885 139 893T102 917T76 952T66 997Q66 1021 75 1041T100 1077T137 1101T184 1110Q208 1110 229 1102T266 1078T291 1042T301 997ZM117
997Q117 971 136 952T184 932Q212 932 232 951T252 997Q252 1024 232 1042T184 1061Q156 1061 137 1043T117 997Z" />
<glyph unicode="&#xb1;" glyph-name="plusminus" horiz-adv-x="829" d="M384 511V742Q384 759 393 767T414 775Q425 775 434 767T444 742V511H706Q725 511 733 503T742 483Q742 473 734 465T706 457H444V224Q444 207 435 200T414 192Q402 192 393 199T384 224V457H123Q104
457 96 465T87 483Q87 494 95 502T123 511H384ZM706 54Q725 54 733 46T742 26Q742 16 734 8T706 0H123Q104 0 96 8T87 26Q87 37 95 45T123 54H706Z" />
<glyph unicode="&#xb2;" glyph-name="twosuperior" horiz-adv-x="925" d="M247 994Q238 991 230 991Q213 991 203 1001T193 1024Q193 1048 224 1058Q287 1078 365 1096T524 1114Q580 1114 632 1103T724 1065T789 993T813 879Q813 823 789 779T724 700T633 638T528
587T424 542T332 500T268 454T243 399H749Q772 399 783 388T794 363Q794 349 783 338T749 327H198Q188 327 181 334T170 352T164 375T162 400Q162 441 186 473T251 531T344 581T449 627T555 674T647 729T712 797T737 884Q735 933 717 965T671 1016T605 1043T526
1051Q485 1051 445 1045T369 1030T301 1011T247 994Z" />
<glyph unicode="&#xb3;" glyph-name="threesuperior" horiz-adv-x="946" d="M244 1003Q233 995 221 995Q208 995 200 1004T192 1027Q192 1039 212 1054T269 1083T355 1106T465 1116Q546 1116 602 1100T693 1056T743 993T759 919Q759 889 752 859T725 802T671 753T584
715Q644 698 682 673T743 618T775 555T784 488Q784 446 767 407T711 337T613 289T465 270Q399 270 348 279T263 303T211 332T193 359Q193 371 203 379T228 388Q234 388 249 383Q294 361 345 349T465 336Q535 336 582 349T658 385T699 435T711 492Q711 527 697 561T650
621T566 664T440 681H379Q361 681 353 691T344 713Q344 725 352 735T379 745H440Q509 745 556 759T632 798T674 852T687 912Q687 940 677 966T643 1012T578 1044T475 1057Q420 1057 378 1050T308 1032T263 1014T244 1003Z" />
<glyph unicode="&#xb4;" glyph-name="acute" horiz-adv-x="376" d="M275 1277Q286 1288 300 1288Q311 1288 322 1283T343 1269T358 1249T364 1227Q364 1211 349 1199L57 962Q49 957 42 957Q31 957 23 964T15 983Q15 993 23 1001L275 1277Z" />
<glyph unicode="&#xb5;" glyph-name="mu" horiz-adv-x="1178" d="M938 141Q917 116 885 90T805 41T693 5T545 -10Q438 -10 363 10T239 74T169 185T147 348V694Q147 707 148 720T154 743T166 759T187 766Q202 766 210 760T221 743T226 720T227 694V348Q227 264
241 207T290 115T387 65T545 49Q615 49 674 61T783 91T871 133T939 178V694Q939 707 940 720T944 743T955 759T976 766Q991 766 999 760T1012 743T1018 720T1019 694V70Q1019 57 1018 45T1012 22T1001 6T981 0Q953 0 946 18T938 61V70V141Z" />
<glyph unicode="&#xb6;" glyph-name="paragraph" horiz-adv-x="816" d="M404 542Q319 542 254 566T146 630T80 721T57 825Q57 878 79 928T147 1019T261 1084T423 1111L654 1114Q674 1114 681 1108T688 1077V76Q688 45 680 23T642 0Q618 0 611 23T603 76V1021H489V76Q489
45 481 23T443 0Q419 0 412 23T404 76V542Z" />
<glyph unicode="&#xb7;" glyph-name="middot" horiz-adv-x="0" />
<glyph unicode="&#xb8;" glyph-name="cedilla" horiz-adv-x="266" d="M210 10Q223 29 236 29Q244 29 249 23T254 7Q254 -1 250 -8L84 -298Q76 -312 66 -318T45 -324Q31 -324 21 -315T11 -291Q11 -277 21 -264L210 10Z" />
<glyph unicode="&#xb9;" glyph-name="onesuperior" horiz-adv-x="452" d="M331 403Q331 390 331 378T328 355T318 339T298 333Q283 333 276 339T264 355T260 377T259 403V1039H105Q95 1039 84 1039T64 1041T48 1050T42 1068Q42 1083 48 1091T64 1104T84 1108T103
1109H296Q311 1109 318 1103T328 1086T331 1064T331 1039V403Z" />
<glyph unicode="&#xba;" glyph-name="ordmasculine" horiz-adv-x="1125" d="M822 262Q831 262 837 255T844 238Q844 228 838 221T822 214H281Q272 214 266 221T259 238Q259 248 265 255T281 262H822ZM625 323Q487 323 392 350T239 429T154 553T128 718Q128 824
157 899T248 1024T403 1096T625 1119Q753 1119 846 1096T1001 1024T1092 900T1122 718Q1122 626 1096 553T1012 429T858 351T625 323ZM625 382Q716 382 782 395T894 433T969 489T1014 558T1036 636T1042 718Q1042 811 1018 876T943 982T813 1041T625 1060Q515 1060
437 1042T307 982T232 876T208 718Q208 677 213 637T235 559T280 489T355 433T468 396T625 382Z" />
<glyph unicode="&#xbb;" glyph-name="guillemotright" horiz-adv-x="647" d="M389 367Q398 358 401 350T406 335Q406 318 389 301L148 49Q136 37 121 37Q106 37 94 47T82 72Q82 85 94 97L332 334L94 571Q83 582 83 596Q83 610 94 620T121 631Q136 631 148 619L389
367ZM588 367Q597 358 600 350T605 335Q605 318 588 301L347 49Q335 37 320 37Q305 37 293 47T281 72Q281 85 293 97L531 334L293 571Q282 582 282 596Q282 610 293 620T320 631Q335 631 347 619L588 367Z" />
<glyph unicode="&#xbc;" glyph-name="onequarter" horiz-adv-x="1570" d="M414 4Q403 -19 395 -36T369 -53Q355 -53 348 -49T337 -38T333 -24T332 -11Q332 -1 335 6T344 25L754 1118Q761 1141 770 1158T803 1176Q824 1176 830 1165T836 1141Q836 1130 833 1120T826
1098L414 4ZM331 403Q331 390 331 378T328 355T318 339T298 333Q283 333 276 339T264 355T260 377T259 403V1039H105Q95 1039 84 1039T64 1041T48 1050T42 1068Q42 1083 48 1091T64 1104T84 1108T103 1109H296Q311 1109 318 1103T328 1086T331 1064T331 1039V403ZM1562
321Q1562 300 1544 294T1491 288H1321V70Q1321 57 1321 45T1317 22T1306 6T1286 0Q1271 0 1264 6T1253 22T1250 44T1249 70V288H877Q850 288 835 294T813 310T805 332T804 358V709Q804 721 804 733T809 754T820 770T843 776Q856 776 863 770T873 754T876 732T877
709V358H1249V706Q1249 719 1249 731T1253 754T1263 770T1286 776Q1299 776 1306 770T1316 754T1320 732T1321 706V358H1490Q1523 358 1542 354T1562 321Z" />
<glyph unicode="&#xbd;" glyph-name="onehalf" horiz-adv-x="1570" d="M447 4Q436 -19 428 -36T402 -53Q388 -53 381 -49T370 -38T366 -24T365 -11Q365 -1 368 6T377 25L787 1118Q794 1141 803 1158T836 1176Q857 1176 863 1165T869 1141Q869 1130 866 1120T859
1098L447 4ZM331 403Q331 390 331 378T328 355T318 339T298 333Q283 333 276 339T264 355T260 377T259 403V1039H105Q95 1039 84 1039T64 1041T48 1050T42 1068Q42 1083 48 1091T64 1104T84 1108T103 1109H296Q311 1109 318 1103T328 1086T331 1064T331 1039V403ZM931
667Q922 664 914 664Q897 664 887 674T877 697Q877 721 908 731Q971 751 1049 769T1208 787Q1264 787 1316 776T1408 738T1473 666T1497 552Q1497 496 1473 452T1408 373T1317 311T1212 260T1108 215T1016 173T952 127T927 72H1433Q1456 72 1467 61T1478 36Q1478
22 1467 11T1433 0H882Q872 0 865 7T854 25T848 48T846 73Q846 114 870 146T935 204T1028 254T1133 300T1239 347T1331 402T1396 470T1421 557Q1419 606 1401 638T1355 689T1289 716T1210 724Q1169 724 1129 718T1053 703T985 684T931 667Z" />
<glyph unicode="&#xbe;" glyph-name="threequarters" horiz-adv-x="2087" d="M154 1003Q143 1000 135 1000Q119 1000 111 1008T102 1027Q102 1039 122 1054T178 1083T265 1106T375 1116Q456 1116 512 1100T603 1056T653 993T669 919Q669 889 661 859T633 802T576
753T484 715Q547 698 587 673T651 618T684 555T694 488Q694 446 677 407T621 337T523 289T375 270Q297 270 243 282T156 311T107 344T91 368Q91 379 100 386T127 394Q146 394 165 383T210 364Q238 354 279 347T375 339Q448 339 496 353T574 389T615 441T627 502Q627
535 613 567T566 624T480 665T350 681H289Q271 681 263 691T254 713Q254 725 262 735T289 745H350Q422 745 471 759T550 798T593 852T606 912Q606 940 596 966T561 1012T493 1044T385 1057Q330 1057 287 1049T215 1031T170 1013T154 1003ZM2032 264Q2032 242 2008
236T1950 230Q1935 230 1919 230T1886 231H1741V70Q1741 57 1741 45T1737 22T1726 6T1706 0Q1691 0 1684 6T1673 22T1670 44T1669 70V231H1325Q1298 231 1283 237T1261 253T1253 275T1252 301V708Q1252 720 1252 732T1257 753T1268 769T1291 775Q1304 775 1311
769T1321 753T1324 731T1325 708V301H1669V705Q1669 718 1669 730T1673 753T1683 769T1706 775Q1719 775 1726 769T1736 753T1740 731T1741 705V301H1960Q1976 301 1989 301T2012 297T2027 287T2032 264ZM833 4Q822 -19 814 -36T788 -53Q774 -53 767 -49T756 -38T752
-24T751 -11Q751 -1 754 6T763 25L1173 1118Q1180 1141 1189 1158T1222 1176Q1243 1176 1249 1165T1255 1141Q1255 1130 1252 1120T1245 1098L833 4Z" />
<glyph unicode="&#xbf;" glyph-name="questiondown" horiz-adv-x="888" d="M592 861Q592 890 596 910T625 931Q640 931 647 926T659 911T663 889T664 863V613Q664 601 656 591T629 581Q521 581 442 571T306 544T215 502T160 450T133 389T125 324Q125 266 140 217T195
133T302 79T473 59Q561 59 634 75T765 109Q783 114 791 114Q808 114 817 107T827 88Q827 69 793 51T706 20T591 -2T473 -10Q355 -10 276 15T148 84T80 189T59 318Q59 356 64 394T88 469T142 536T237 590T383 628T592 645V861ZM684 1079Q684 1053 668 1037T626 1020Q601
1020 584 1036T566 1079Q566 1104 583 1119T626 1135Q652 1135 668 1120T684 1079Z" />
<glyph unicode="&#xc0;" glyph-name="Agrave" horiz-adv-x="1349" d="M622 1063Q638 1092 647 1103T674 1114Q688 1114 698 1104T726 1063L1278 67Q1289 47 1289 28Q1289 10 1279 0T1255 -10Q1241 -10 1228 -1T1200 34L1030 342H318L146 30Q135 9 121 0T92 -10Q75
-10 67 2T59 34Q59 42 62 50T71 68L622 1063ZM1001 401L674 998L347 401H1001ZM841 1352Q849 1344 849 1334Q849 1323 841 1316T822 1308Q815 1308 807 1313L515 1550Q500 1562 500 1578Q500 1589 506 1600T521 1619T541 1633T564 1639Q578 1639 589 1628L841 1352Z"
/>
<glyph unicode="&#xc1;" glyph-name="Aacute" horiz-adv-x="1349" d="M622 1063Q638 1092 647 1103T674 1114Q688 1114 698 1104T726 1063L1278 67Q1289 47 1289 28Q1289 10 1279 0T1255 -10Q1241 -10 1228 -1T1200 34L1030 342H318L146 30Q135 9 121 0T92 -10Q75
-10 67 2T59 34Q59 42 62 50T71 68L622 1063ZM1001 401L674 998L347 401H1001ZM760 1616Q771 1627 785 1627Q796 1627 807 1622T828 1608T843 1588T849 1566Q849 1550 834 1538L542 1301Q534 1296 527 1296Q516 1296 508 1303T500 1322Q500 1332 508 1340L760 1616Z"
/>
<glyph unicode="&#xc2;" glyph-name="Acircumflex" horiz-adv-x="1349" d="M622 1063Q638 1092 647 1103T674 1114Q688 1114 698 1104T726 1063L1278 67Q1289 47 1289 28Q1289 10 1279 0T1255 -10Q1241 -10 1228 -1T1200 34L1030 342H318L146 30Q135 9 121 0T92
-10Q75 -10 67 2T59 34Q59 42 62 50T71 68L622 1063ZM1001 401L674 998L347 401H1001ZM544 1231H468L621 1466Q645 1504 674 1504Q685 1504 699 1495T727 1466L880 1231H804L674 1449L544 1231Z" />
<glyph unicode="&#xc3;" glyph-name="Atilde" horiz-adv-x="1349" d="M622 1063Q638 1092 647 1103T674 1114Q688 1114 698 1104T726 1063L1278 67Q1289 47 1289 28Q1289 10 1279 0T1255 -10Q1241 -10 1228 -1T1200 34L1030 342H318L146 30Q135 9 121 0T92 -10Q75
-10 67 2T59 34Q59 42 62 50T71 68L622 1063ZM1001 401L674 998L347 401H1001ZM812 1323Q834 1323 840 1340T847 1391H910Q912 1377 913 1364T915 1336Q915 1300 890 1278T816 1255Q775 1255 738 1266T667 1290T600 1314T534 1325Q513 1325 508 1313T502 1287Q502
1279 502 1273T503 1260H440Q434 1285 434 1315Q434 1350 460 1373T534 1396Q574 1396 611 1385T683 1360T750 1335T812 1323Z" />
<glyph unicode="&#xc4;" glyph-name="Adieresis" horiz-adv-x="1349" d="M622 1063Q638 1092 647 1103T674 1114Q688 1114 698 1104T726 1063L1278 67Q1289 47 1289 28Q1289 10 1279 0T1255 -10Q1241 -10 1228 -1T1200 34L1030 342H318L146 30Q135 9 121 0T92
-10Q75 -10 67 2T59 34Q59 42 62 50T71 68L622 1063ZM1001 401L674 998L347 401H1001ZM386 1346Q386 1372 402 1388T444 1405Q469 1405 486 1389T504 1346Q504 1321 487 1306T444 1290Q418 1290 402 1305T386 1346ZM825 1346Q825 1372 841 1388T883 1405Q908 1405
925 1389T943 1346Q943 1321 926 1306T883 1290Q857 1290 841 1305T825 1346Z" />
<glyph unicode="&#xc5;" glyph-name="Aring" horiz-adv-x="1349" d="M622 1063Q638 1092 647 1103T674 1114Q688 1114 698 1104T726 1063L1278 67Q1289 47 1289 28Q1289 10 1279 0T1255 -10Q1241 -10 1228 -1T1200 34L1030 342H318L146 30Q135 9 121 0T92 -10Q75
-10 67 2T59 34Q59 42 62 50T71 68L622 1063ZM1001 401L674 998L347 401H1001ZM792 1336Q792 1312 783 1292T758 1256T721 1233T675 1224Q651 1224 630 1232T593 1256T567 1291T557 1336Q557 1360 566 1380T591 1416T628 1440T675 1449Q699 1449 720 1441T757 1417T782
1381T792 1336ZM608 1336Q608 1310 627 1291T675 1271Q703 1271 723 1290T743 1336Q743 1363 723 1381T675 1400Q647 1400 628 1382T608 1336Z" />
<glyph unicode="&#xc6;" glyph-name="AE" horiz-adv-x="1446" d="M1352 35Q1352 20 1346 13T1330 3T1306 0T1278 0H666Q651 0 644 0T632 4T628 15T627 35V348H269Q253 317 234 278T193 199T150 119T109 50T73 1T46 -18Q27 -18 18 -7T9 12Q9 25 15 37T30 63L578
1065Q589 1084 598 1098T619 1114H1276Q1291 1114 1304 1114T1327 1111T1344 1101T1350 1079Q1350 1067 1344 1061T1328 1051T1304 1048T1276 1048H712V601H1249Q1263 601 1276 601T1300 599T1317 590T1323 572Q1323 550 1311 545T1278 539Q1271 539 1264 539T1249
540H712V66H1278Q1293 66 1306 66T1329 63T1346 54T1352 35ZM627 397V1014L290 397H627Z" />
<glyph unicode="&#xc7;" glyph-name="Ccedilla" horiz-adv-x="1489" d="M123 557Q123 713 170 822T312 1001T546 1103T873 1135Q1003 1135 1125 1112T1373 1036Q1389 1029 1396 1019T1403 998Q1403 986 1394 977T1371 968Q1367 968 1352 973Q1237 1021 1114 1045T873
1069Q695 1069 569 1040T363 948T245 789T208 557Q208 422 245 326T362 167T569 75T873 45Q991 45 1114 69T1352 141Q1360 145 1370 145Q1385 145 1394 136T1404 115Q1404 105 1397 95T1373 78Q1246 26 1125 3T873 -21Q687 -21 547 11T312 112T171 291T123 557ZM841
10Q854 29 867 29Q875 29 880 23T885 7Q885 -1 881 -8L715 -298Q707 -312 697 -318T676 -324Q662 -324 652 -315T642 -291Q642 -277 652 -264L841 10Z" />
<glyph unicode="&#xc8;" glyph-name="Egrave" horiz-adv-x="1189" d="M1187 35Q1187 20 1182 13T1169 3T1148 0T1121 0H187Q177 0 172 1T165 6T162 16T161 35V1067Q161 1082 161 1091T165 1105T175 1112T198 1114H1111Q1126 1114 1139 1114T1162 1111T1179 1101T1185
1079Q1185 1067 1179 1061T1163 1051T1139 1048T1111 1048H246V610H1106Q1128 610 1143 604T1158 578Q1158 556 1146 549T1113 542H246V66H1113Q1128 66 1141 66T1164 63T1181 54T1187 35ZM840 1352Q848 1344 848 1334Q848 1323 840 1316T821 1308Q814 1308 806
1313L514 1550Q499 1562 499 1578Q499 1589 505 1600T520 1619T540 1633T563 1639Q577 1639 588 1628L840 1352Z" />
<glyph unicode="&#xc9;" glyph-name="Eacute" horiz-adv-x="1189" d="M1187 35Q1187 20 1182 13T1169 3T1148 0T1121 0H187Q177 0 172 1T165 6T162 16T161 35V1067Q161 1082 161 1091T165 1105T175 1112T198 1114H1111Q1126 1114 1139 1114T1162 1111T1179 1101T1185
1079Q1185 1067 1179 1061T1163 1051T1139 1048T1111 1048H246V610H1106Q1128 610 1143 604T1158 578Q1158 556 1146 549T1113 542H246V66H1113Q1128 66 1141 66T1164 63T1181 54T1187 35ZM759 1616Q770 1627 784 1627Q795 1627 806 1622T827 1608T842 1588T848
1566Q848 1550 833 1538L541 1301Q533 1296 526 1296Q515 1296 507 1303T499 1322Q499 1332 507 1340L759 1616Z" />
<glyph unicode="&#xca;" glyph-name="Ecircumflex" horiz-adv-x="1189" d="M1187 35Q1187 20 1182 13T1169 3T1148 0T1121 0H187Q177 0 172 1T165 6T162 16T161 35V1067Q161 1082 161 1091T165 1105T175 1112T198 1114H1111Q1126 1114 1139 1114T1162 1111T1179
1101T1185 1079Q1185 1067 1179 1061T1163 1051T1139 1048T1111 1048H246V610H1106Q1128 610 1143 604T1158 578Q1158 556 1146 549T1113 542H246V66H1113Q1128 66 1141 66T1164 63T1181 54T1187 35ZM543 1231H467L620 1466Q644 1504 673 1504Q684 1504 698 1495T726
1466L879 1231H803L673 1449L543 1231Z" />
<glyph unicode="&#xcb;" glyph-name="Edieresis" horiz-adv-x="1302" d="M1187 35Q1187 20 1182 13T1169 3T1148 0T1121 0H187Q177 0 172 1T165 6T162 16T161 35V1067Q161 1082 161 1091T165 1105T175 1112T198 1114H1111Q1126 1114 1139 1114T1162 1111T1179
1101T1185 1079Q1185 1067 1179 1061T1163 1051T1139 1048T1111 1048H246V610H1106Q1128 610 1143 604T1158 578Q1158 556 1146 549T1113 542H246V66H1113Q1128 66 1141 66T1164 63T1181 54T1187 35ZM385 1344Q385 1370 401 1386T443 1403Q468 1403 485 1387T503
1344Q503 1319 486 1304T443 1288Q417 1288 401 1303T385 1344ZM824 1344Q824 1370 840 1386T882 1403Q907 1403 924 1387T942 1344Q942 1319 925 1304T882 1288Q856 1288 840 1303T824 1344Z" />
<glyph unicode="&#xcc;" glyph-name="Igrave" horiz-adv-x="1031" d="M473 1048H116Q103 1048 90 1048T67 1051T50 1060T43 1079Q43 1094 50 1101T67 1111T91 1114T116 1114H915Q930 1114 943 1114T965 1111T981 1101T987 1081Q987 1067 981 1061T966 1051T943
1048T915 1048H558V66H915Q930 66 943 66T965 63T981 53T987 33Q987 19 981 13T966 3T943 0T915 0H116Q104 0 91 0T68 3T50 13T43 35Q43 47 49 53T66 63T90 66T116 66H473V1048ZM682 1352Q690 1344 690 1334Q690 1323 682 1316T663 1308Q656 1308 648 1313L356
1550Q341 1562 341 1578Q341 1589 347 1600T362 1619T382 1633T405 1639Q419 1639 430 1628L682 1352Z" />
<glyph unicode="&#xcd;" glyph-name="Iacute" horiz-adv-x="1031" d="M473 1048H116Q103 1048 90 1048T67 1051T50 1060T43 1079Q43 1094 50 1101T67 1111T91 1114T116 1114H915Q930 1114 943 1114T965 1111T981 1101T987 1081Q987 1067 981 1061T966 1051T943
1048T915 1048H558V66H915Q930 66 943 66T965 63T981 53T987 33Q987 19 981 13T966 3T943 0T915 0H116Q104 0 91 0T68 3T50 13T43 35Q43 47 49 53T66 63T90 66T116 66H473V1048ZM601 1616Q612 1627 626 1627Q637 1627 648 1622T669 1608T684 1588T690 1566Q690
1550 675 1538L383 1301Q375 1296 368 1296Q357 1296 349 1303T341 1322Q341 1332 349 1340L601 1616Z" />
<glyph unicode="&#xce;" glyph-name="Icircumflex" horiz-adv-x="1031" d="M473 1048H116Q103 1048 90 1048T67 1051T50 1060T43 1079Q43 1094 50 1101T67 1111T91 1114T116 1114H915Q930 1114 943 1114T965 1111T981 1101T987 1081Q987 1067 981 1061T966 1051T943
1048T915 1048H558V66H915Q930 66 943 66T965 63T981 53T987 33Q987 19 981 13T966 3T943 0T915 0H116Q104 0 91 0T68 3T50 13T43 35Q43 47 49 53T66 63T90 66T116 66H473V1048ZM385 1231H309L462 1466Q486 1504 515 1504Q526 1504 540 1495T568 1466L721 1231H645L515
1449L385 1231Z" />
<glyph unicode="&#xcf;" glyph-name="Idieresis" horiz-adv-x="1031" d="M473 1048H116Q103 1048 90 1048T67 1051T50 1060T43 1079Q43 1094 50 1101T67 1111T91 1114T116 1114H915Q930 1114 943 1114T965 1111T981 1101T987 1081Q987 1067 981 1061T966 1051T943
1048T915 1048H558V66H915Q930 66 943 66T965 63T981 53T987 33Q987 19 981 13T966 3T943 0T915 0H116Q104 0 91 0T68 3T50 13T43 35Q43 47 49 53T66 63T90 66T116 66H473V1048ZM227 1344Q227 1370 243 1386T285 1403Q310 1403 327 1387T345 1344Q345 1319 328
1304T285 1288Q259 1288 243 1303T227 1344ZM666 1344Q666 1370 682 1386T724 1403Q749 1403 766 1387T784 1344Q784 1319 767 1304T724 1288Q698 1288 682 1303T666 1344Z" />
<glyph unicode="&#xd0;" glyph-name="Eth" horiz-adv-x="1650" d="M1784 559Q1784 399 1742 292T1617 120T1411 28T1124 0H436Q421 0 414 0T402 4T398 15T397 35V1077Q397 1092 397 1099T402 1110T414 1113T438 1114H1124Q1287 1114 1410 1086T1617 993T1742 821T1784
559ZM1699 559Q1699 688 1670 780T1574 932T1397 1020T1124 1048H482V66H1124Q1287 66 1397 94T1574 181T1670 334T1699 559ZM666 614Q680 614 686 602T693 576Q693 564 687 552T666 540H307Q293 540 287 552T280 576Q280 589 286 601T307 614H666Z" />
<glyph unicode="&#xd1;" glyph-name="Ntilde" horiz-adv-x="1531" d="M1282 128V1038Q1282 1053 1283 1066T1288 1090T1301 1107T1325 1114Q1351 1114 1359 1092T1367 1038V64Q1367 0 1333 0Q1310 0 1276 31L245 986V70Q245 41 237 21T204 0Q175 0 168 20T160
70V1049Q160 1079 171 1095T201 1111Q226 1111 259 1081L1282 128ZM904 1323Q926 1323 932 1340T939 1391H1002Q1004 1377 1005 1364T1007 1336Q1007 1300 982 1278T908 1255Q867 1255 830 1266T759 1290T692 1314T626 1325Q605 1325 600 1313T594 1287Q594 1279
594 1273T595 1260H532Q526 1285 526 1315Q526 1350 552 1373T626 1396Q666 1396 703 1385T775 1360T842 1335T904 1323Z" />
<glyph unicode="&#xd2;" glyph-name="Ograve" horiz-adv-x="1715" d="M1592 557Q1592 411 1549 303T1415 122T1186 15T857 -21Q667 -21 529 14T300 122T167 302T123 557Q123 703 166 811T300 992T528 1099T857 1135Q1047 1135 1185 1100T1414 992T1548 812T1592
557ZM208 557Q208 417 248 320T368 162T571 73T857 45Q1021 45 1143 72T1346 161T1467 320T1507 557Q1507 696 1467 793T1346 952T1143 1041T857 1069Q693 1069 571 1042T369 953T248 794T208 557ZM1024 1352Q1032 1344 1032 1334Q1032 1323 1024 1316T1005 1308Q998
1308 990 1313L698 1550Q683 1562 683 1578Q683 1589 689 1600T704 1619T724 1633T747 1639Q761 1639 772 1628L1024 1352Z" />
<glyph unicode="&#xd3;" glyph-name="Oacute" horiz-adv-x="1715" d="M1592 557Q1592 411 1549 303T1415 122T1186 15T857 -21Q667 -21 529 14T300 122T167 302T123 557Q123 703 166 811T300 992T528 1099T857 1135Q1047 1135 1185 1100T1414 992T1548 812T1592
557ZM208 557Q208 417 248 320T368 162T571 73T857 45Q1021 45 1143 72T1346 161T1467 320T1507 557Q1507 696 1467 793T1346 952T1143 1041T857 1069Q693 1069 571 1042T369 953T248 794T208 557ZM943 1616Q954 1627 968 1627Q979 1627 990 1622T1011 1608T1026
1588T1032 1566Q1032 1550 1017 1538L725 1301Q717 1296 710 1296Q699 1296 691 1303T683 1322Q683 1332 691 1340L943 1616Z" />
<glyph unicode="&#xd4;" glyph-name="Ocircumflex" horiz-adv-x="1715" d="M1592 557Q1592 411 1549 303T1415 122T1186 15T857 -21Q667 -21 529 14T300 122T167 302T123 557Q123 703 166 811T300 992T528 1099T857 1135Q1047 1135 1185 1100T1414 992T1548 812T1592
557ZM208 557Q208 417 248 320T368 162T571 73T857 45Q1021 45 1143 72T1346 161T1467 320T1507 557Q1507 696 1467 793T1346 952T1143 1041T857 1069Q693 1069 571 1042T369 953T248 794T208 557ZM727 1231H651L804 1466Q828 1504 857 1504Q868 1504 882 1495T910
1466L1063 1231H987L857 1449L727 1231Z" />
<glyph unicode="&#xd5;" glyph-name="Otilde" horiz-adv-x="1715" d="M1592 557Q1592 411 1549 303T1415 122T1186 15T857 -21Q667 -21 529 14T300 122T167 302T123 557Q123 703 166 811T300 992T528 1099T857 1135Q1047 1135 1185 1100T1414 992T1548 812T1592
557ZM208 557Q208 417 248 320T368 162T571 73T857 45Q1021 45 1143 72T1346 161T1467 320T1507 557Q1507 696 1467 793T1346 952T1143 1041T857 1069Q693 1069 571 1042T369 953T248 794T208 557ZM995 1323Q1017 1323 1023 1340T1030 1391H1093Q1095 1377 1096
1364T1098 1336Q1098 1300 1073 1278T999 1255Q958 1255 921 1266T850 1290T783 1314T717 1325Q696 1325 691 1313T685 1287Q685 1279 685 1273T686 1260H623Q617 1285 617 1315Q617 1350 643 1373T717 1396Q757 1396 794 1385T866 1360T933 1335T995 1323Z" />
<glyph unicode="&#xd6;" glyph-name="Odieresis" horiz-adv-x="1715" d="M1592 557Q1592 411 1549 303T1415 122T1186 15T857 -21Q667 -21 529 14T300 122T167 302T123 557Q123 703 166 811T300 992T528 1099T857 1135Q1047 1135 1185 1100T1414 992T1548 812T1592
557ZM208 557Q208 417 248 320T368 162T571 73T857 45Q1021 45 1143 72T1346 161T1467 320T1507 557Q1507 696 1467 793T1346 952T1143 1041T857 1069Q693 1069 571 1042T369 953T248 794T208 557ZM569 1344Q569 1370 585 1386T627 1403Q652 1403 669 1387T687
1344Q687 1319 670 1304T627 1288Q601 1288 585 1303T569 1344ZM1008 1344Q1008 1370 1024 1386T1066 1403Q1091 1403 1108 1387T1126 1344Q1126 1319 1109 1304T1066 1288Q1040 1288 1024 1303T1008 1344Z" />
<glyph unicode="&#xd7;" glyph-name="multiply" horiz-adv-x="665" d="M332 434L209 315Q200 306 190 296T169 275T146 259T125 252Q112 252 103 262T93 283Q93 297 104 310T132 338L283 483L127 631Q110 645 101 657T91 682Q91 694 102 704T125 715Q135 715 146
708T167 691T188 670T207 651L332 532L457 651Q466 660 476 671T498 691T519 708T539 715Q550 715 562 705T574 682Q574 671 564 658T539 631L385 483L537 338Q551 324 561 311T572 285Q572 274 563 262T541 250Q529 250 515 261T486 287L332 434Z" />
<glyph unicode="&#xd8;" glyph-name="Oslash" horiz-adv-x="1715" d="M650 -102Q641 -126 632 -142T605 -159Q593 -159 586 -155T574 -145T569 -133T568 -120Q568 -111 571 -102T580 -81L1070 1222Q1074 1234 1077 1244T1086 1263T1099 1275T1119 1280Q1140 1280
1146 1269T1152 1245Q1152 1234 1149 1224T1142 1202L650 -102ZM1592 557Q1592 411 1549 303T1415 122T1186 15T857 -21Q667 -21 529 14T300 122T167 302T123 557Q123 703 166 811T300 992T528 1099T857 1135Q1047 1135 1185 1100T1414 992T1548 812T1592 557ZM208
557Q208 417 248 320T368 162T571 73T857 45Q1021 45 1143 72T1346 161T1467 320T1507 557Q1507 696 1467 793T1346 952T1143 1041T857 1069Q693 1069 571 1042T369 953T248 794T208 557Z" />
<glyph unicode="&#xd9;" glyph-name="Ugrave" horiz-adv-x="1587" d="M794 45Q957 45 1066 76T1240 172T1333 332T1360 560V1044Q1360 1070 1368 1092T1401 1114Q1416 1114 1424 1108T1437 1092T1443 1070T1445 1044V560Q1445 404 1405 294T1283 113T1080 11T794
-21Q630 -21 508 11T304 113T182 293T141 560V1044Q141 1057 142 1069T149 1092T162 1108T186 1114Q211 1114 218 1092T226 1044V560Q226 429 253 333T346 172T521 77T794 45ZM961 1352Q969 1344 969 1334Q969 1323 961 1316T942 1308Q935 1308 927 1313L635 1550Q620
1562 620 1578Q620 1589 626 1600T641 1619T661 1633T684 1639Q698 1639 709 1628L961 1352Z" />
<glyph unicode="&#xda;" glyph-name="Uacute" horiz-adv-x="1587" d="M794 45Q957 45 1066 76T1240 172T1333 332T1360 560V1044Q1360 1070 1368 1092T1401 1114Q1416 1114 1424 1108T1437 1092T1443 1070T1445 1044V560Q1445 404 1405 294T1283 113T1080 11T794
-21Q630 -21 508 11T304 113T182 293T141 560V1044Q141 1057 142 1069T149 1092T162 1108T186 1114Q211 1114 218 1092T226 1044V560Q226 429 253 333T346 172T521 77T794 45ZM880 1616Q891 1627 905 1627Q916 1627 927 1622T948 1608T963 1588T969 1566Q969 1550
954 1538L662 1301Q654 1296 647 1296Q636 1296 628 1303T620 1322Q620 1332 628 1340L880 1616Z" />
<glyph unicode="&#xdb;" glyph-name="Ucircumflex" horiz-adv-x="1587" d="M794 45Q957 45 1066 76T1240 172T1333 332T1360 560V1044Q1360 1070 1368 1092T1401 1114Q1416 1114 1424 1108T1437 1092T1443 1070T1445 1044V560Q1445 404 1405 294T1283 113T1080
11T794 -21Q630 -21 508 11T304 113T182 293T141 560V1044Q141 1057 142 1069T149 1092T162 1108T186 1114Q211 1114 218 1092T226 1044V560Q226 429 253 333T346 172T521 77T794 45ZM664 1231H588L741 1466Q765 1504 794 1504Q805 1504 819 1495T847 1466L1000
1231H924L794 1449L664 1231Z" />
<glyph unicode="&#xdc;" glyph-name="Udieresis" horiz-adv-x="1586" d="M794 45Q957 45 1066 76T1240 172T1333 332T1360 560V1044Q1360 1070 1368 1092T1401 1114Q1416 1114 1424 1108T1437 1092T1443 1070T1445 1044V560Q1445 404 1405 294T1283 113T1080 11T794
-21Q630 -21 508 11T304 113T182 293T141 560V1044Q141 1057 142 1069T149 1092T162 1108T186 1114Q211 1114 218 1092T226 1044V560Q226 429 253 333T346 172T521 77T794 45ZM506 1344Q506 1370 522 1386T564 1403Q589 1403 606 1387T624 1344Q624 1319 607 1304T564
1288Q538 1288 522 1303T506 1344ZM945 1344Q945 1370 961 1386T1003 1403Q1028 1403 1045 1387T1063 1344Q1063 1319 1046 1304T1003 1288Q977 1288 961 1303T945 1344Z" />
<glyph unicode="&#xdd;" glyph-name="Yacute" horiz-adv-x="1165" d="M583 535L1040 1089Q1059 1113 1082 1113Q1115 1113 1115 1077Q1115 1060 1098 1040L626 471V69Q626 40 619 20T586 0Q571 0 563 5T549 20T543 42T541 67V473L67 1040Q57 1051 54 1059T50 1080Q50
1095 59 1104T83 1114Q105 1114 126 1089L583 535ZM668 1616Q679 1627 693 1627Q704 1627 715 1622T736 1608T751 1588T757 1566Q757 1550 742 1538L450 1301Q442 1296 435 1296Q424 1296 416 1303T408 1322Q408 1332 416 1340L668 1616Z" />
<glyph unicode="&#xde;" glyph-name="Thorn" horiz-adv-x="1030" d="M245 264V76Q245 47 238 24T206 0Q177 0 169 22T160 76V1034Q160 1065 168 1087T206 1110Q230 1110 237 1087T245 1034V894H493Q646 894 742 867T894 794T969 692T989 575Q989 516 970 461T896
361T745 291T493 264H245ZM245 330H493Q628 330 710 351T836 406T894 485T909 576Q909 623 894 668T834 749T708 806T493 828H245V330Z" />
<glyph unicode="&#xdf;" glyph-name="germandbls" horiz-adv-x="1209" d="M1170 288Q1170 239 1162 199T1131 126T1067 71T961 31T804 8T585 0Q562 0 542 6T521 32Q521 56 540 61T589 66Q737 66 835 75T991 107T1074 172T1098 280Q1098 336 1079 375T1026 441T949
483T856 506T756 516T658 518H591Q558 518 534 520T495 529T472 551T464 589Q464 616 483 631T546 655Q584 663 629 673T719 696T806 726T880 767T931 819T951 885Q951 937 930 971T867 1025T764 1054T625 1063Q526 1063 452 1050T328 1001T255 906T230 752V-4Q230
-33 226 -53T198 -73Q183 -73 176 -68T164 -53T160 -32T159 -4V752Q159 856 186 929T269 1047T414 1114T624 1135Q720 1135 795 1123T921 1082T998 1003T1025 878Q1025 831 1004 795T950 730T873 682T784 648T695 625T618 608T563 596T542 586Q542 582 555 581T591
580H638Q694 580 755 578T876 567T988 540T1082 489T1146 408T1170 288Z" />
<glyph unicode="&#xe0;" glyph-name="agrave" horiz-adv-x="1191" d="M214 224Q214 176 238 143T307 89T411 59T544 49Q632 49 700 61T819 93T905 134T963 178V379Q863 393 756 405T540 418Q463 418 403 409T300 378T236 319T214 224ZM639 727Q543 727 475 722T359
709T277 692T219 674Q207 674 197 686T187 712Q187 725 199 731Q207 735 236 744T319 762T452 779T640 786Q691 786 741 780T835 756T918 709T984 632T1028 517T1044 358V70Q1044 58 1043 46T1038 24T1025 7T1003 0Q980 0 972 21T963 74V143Q943 118 911 91T830
42T713 5T552 -10Q465 -10 389 3T256 44T167 116T134 224Q134 297 164 345T249 423T375 465T532 477Q595 477 658 473T779 460T883 439T963 409Q963 511 936 573T864 669T761 715T639 727ZM756 1013Q764 1005 764 995Q764 984 756 977T737 969Q730 969 722 974L430
1211Q415 1223 415 1239Q415 1250 421 1261T436 1280T456 1294T479 1300Q493 1300 504 1289L756 1013Z" />
<glyph unicode="&#xe1;" glyph-name="aacute" horiz-adv-x="1191" d="M214 224Q214 176 238 143T307 89T411 59T544 49Q632 49 700 61T819 93T905 134T963 178V379Q863 393 756 405T540 418Q463 418 403 409T300 378T236 319T214 224ZM639 727Q543 727 475 722T359
709T277 692T219 674Q207 674 197 686T187 712Q187 725 199 731Q207 735 236 744T319 762T452 779T640 786Q691 786 741 780T835 756T918 709T984 632T1028 517T1044 358V70Q1044 58 1043 46T1038 24T1025 7T1003 0Q980 0 972 21T963 74V143Q943 118 911 91T830
42T713 5T552 -10Q465 -10 389 3T256 44T167 116T134 224Q134 297 164 345T249 423T375 465T532 477Q595 477 658 473T779 460T883 439T963 409Q963 511 936 573T864 669T761 715T639 727ZM675 1277Q686 1288 700 1288Q711 1288 722 1283T743 1269T758 1249T764
1227Q764 1211 749 1199L457 962Q449 957 442 957Q431 957 423 964T415 983Q415 993 423 1001L675 1277Z" />
<glyph unicode="&#xe2;" glyph-name="acircumflex" horiz-adv-x="1191" d="M214 224Q214 176 238 143T307 89T411 59T544 49Q632 49 700 61T819 93T905 134T963 178V379Q863 393 756 405T540 418Q463 418 403 409T300 378T236 319T214 224ZM639 727Q543 727 475
722T359 709T277 692T219 674Q207 674 197 686T187 712Q187 725 199 731Q207 735 236 744T319 762T452 779T640 786Q691 786 741 780T835 756T918 709T984 632T1028 517T1044 358V70Q1044 58 1043 46T1038 24T1025 7T1003 0Q980 0 972 21T963 74V143Q943 118 911
91T830 42T713 5T552 -10Q465 -10 389 3T256 44T167 116T134 224Q134 297 164 345T249 423T375 465T532 477Q595 477 658 473T779 460T883 439T963 409Q963 511 936 573T864 669T761 715T639 727ZM459 892H383L536 1127Q560 1165 589 1165Q600 1165 614 1156T642
1127L795 892H719L589 1110L459 892Z" />
<glyph unicode="&#xe3;" glyph-name="atilde" horiz-adv-x="1191" d="M214 224Q214 176 238 143T307 89T411 59T544 49Q632 49 700 61T819 93T905 134T963 178V379Q863 393 756 405T540 418Q463 418 403 409T300 378T236 319T214 224ZM639 727Q543 727 475 722T359
709T277 692T219 674Q207 674 197 686T187 712Q187 725 199 731Q207 735 236 744T319 762T452 779T640 786Q691 786 741 780T835 756T918 709T984 632T1028 517T1044 358V70Q1044 58 1043 46T1038 24T1025 7T1003 0Q980 0 972 21T963 74V143Q943 118 911 91T830
42T713 5T552 -10Q465 -10 389 3T256 44T167 116T134 224Q134 297 164 345T249 423T375 465T532 477Q595 477 658 473T779 460T883 439T963 409Q963 511 936 573T864 669T761 715T639 727ZM727 984Q749 984 755 1001T762 1052H825Q827 1038 828 1025T830 997Q830
961 805 939T731 916Q690 916 653 927T582 951T515 975T449 986Q428 986 423 974T417 948Q417 940 417 934T418 921H355Q349 946 349 976Q349 1011 375 1034T449 1057Q489 1057 526 1046T598 1021T665 996T727 984Z" />
<glyph unicode="&#xe4;" glyph-name="adieresis" horiz-adv-x="1191" d="M214 224Q214 176 238 143T307 89T411 59T544 49Q632 49 700 61T819 93T905 134T963 178V379Q863 393 756 405T540 418Q463 418 403 409T300 378T236 319T214 224ZM639 727Q543 727 475
722T359 709T277 692T219 674Q207 674 197 686T187 712Q187 725 199 731Q207 735 236 744T319 762T452 779T640 786Q691 786 741 780T835 756T918 709T984 632T1028 517T1044 358V70Q1044 58 1043 46T1038 24T1025 7T1003 0Q980 0 972 21T963 74V143Q943 118 911
91T830 42T713 5T552 -10Q465 -10 389 3T256 44T167 116T134 224Q134 297 164 345T249 423T375 465T532 477Q595 477 658 473T779 460T883 439T963 409Q963 511 936 573T864 669T761 715T639 727ZM301 1005Q301 1031 317 1047T359 1064Q384 1064 401 1048T419 1005Q419
980 402 965T359 949Q333 949 317 964T301 1005ZM740 1005Q740 1031 756 1047T798 1064Q823 1064 840 1048T858 1005Q858 980 841 965T798 949Q772 949 756 964T740 1005Z" />
<glyph unicode="&#xe5;" glyph-name="aring" horiz-adv-x="1191" d="M214 224Q214 176 238 143T307 89T411 59T544 49Q632 49 700 61T819 93T905 134T963 178V379Q863 393 756 405T540 418Q463 418 403 409T300 378T236 319T214 224ZM639 727Q543 727 475 722T359
709T277 692T219 674Q207 674 197 686T187 712Q187 725 199 731Q207 735 236 744T319 762T452 779T640 786Q691 786 741 780T835 756T918 709T984 632T1028 517T1044 358V70Q1044 58 1043 46T1038 24T1025 7T1003 0Q980 0 972 21T963 74V143Q943 118 911 91T830
42T713 5T552 -10Q465 -10 389 3T256 44T167 116T134 224Q134 297 164 345T249 423T375 465T532 477Q595 477 658 473T779 460T883 439T963 409Q963 511 936 573T864 669T761 715T639 727ZM707 997Q707 973 698 953T673 917T636 894T590 885Q566 885 545 893T508
917T482 952T472 997Q472 1021 481 1041T506 1077T543 1101T590 1110Q614 1110 635 1102T672 1078T697 1042T707 997ZM523 997Q523 971 542 952T590 932Q618 932 638 951T658 997Q658 1024 638 1042T590 1061Q562 1061 543 1043T523 997Z" />
<glyph unicode="&#xe6;" glyph-name="ae" horiz-adv-x="1774" d="M130 219Q130 171 155 139T224 86T330 58T463 49Q550 49 617 57T737 77T826 106T890 137V338Q863 352 818 366T716 391T595 410T468 418Q391 418 329 409T222 376T154 314T130 219ZM921 681Q984
739 1082 762T1301 786Q1509 786 1612 707T1716 479Q1716 465 1712 448T1702 416T1687 390T1672 379H951V137Q972 123 1005 108T1082 79T1182 58T1303 49Q1351 49 1400 56T1495 73T1578 97T1640 122Q1655 127 1661 127Q1674 127 1681 120T1689 101Q1689 93 1684
85T1668 70Q1580 25 1486 8T1304 -10Q1167 -10 1072 19T920 100Q890 72 843 52T737 18T609 -3T471 -10Q384 -10 307 2T173 41T83 112T50 219Q50 292 82 341T171 421T301 464T460 477Q524 477 587 470T707 450T811 422T890 389L889 647Q871 660 835 674T747 700T625
719T470 727Q422 727 374 722T283 704T208 671T157 621Q142 596 122 596Q113 596 106 603T98 623Q98 629 100 635T106 649Q124 684 162 710T250 753T361 778T483 786Q536 786 597 783T719 770T832 738T921 681ZM1650 431L1653 452Q1655 460 1656 469T1657 485Q1657
535 1639 579T1578 656T1468 708T1301 727Q1231 727 1175 719T1076 700T1002 674T951 648V431H1650Z" />
<glyph unicode="&#xe7;" glyph-name="ccedilla" horiz-adv-x="1132" d="M628 727Q513 727 432 708T300 648T224 541T200 385Q200 293 226 229T306 125T440 67T627 49Q675 49 724 56T819 73T902 97T964 122Q979 127 985 127Q998 127 1005 120T1013 101Q1013 93
1008 85T992 70Q904 25 810 8T628 -10Q514 -10 421 8T261 71T157 192T120 385Q120 501 154 578T253 701T412 767T628 786Q716 786 810 769T992 706Q1003 700 1008 692T1013 675Q1013 664 1006 657T985 649Q979 649 964 654Q940 666 902 679T819 702T725 720T628
727ZM644 10Q657 29 670 29Q678 29 683 23T688 7Q688 -1 684 -8L518 -298Q510 -312 500 -318T479 -324Q465 -324 455 -315T445 -291Q445 -277 455 -264L644 10Z" />
<glyph unicode="&#xe8;" glyph-name="egrave" horiz-adv-x="1130" d="M600 727Q507 727 435 711T313 660T234 568T202 431H956V485Q956 535 938 579T877 656T767 708T600 727ZM548 49Q643 49 714 61T836 90T919 125T970 155Q976 157 978 157Q989 157 998 147T1008
124Q1008 113 998 106Q989 97 960 78T875 40T739 5T547 -10Q431 -10 350 19T218 100T144 225T121 385Q121 501 158 578T259 701T411 767T600 786Q808 786 911 707T1015 479Q1015 465 1013 448T1008 416T1000 390T991 379H697L201 389Q203 296 225 232T291 127T399
68T548 49ZM735 1013Q743 1005 743 995Q743 984 735 977T716 969Q709 969 701 974L409 1211Q394 1223 394 1239Q394 1250 400 1261T415 1280T435 1294T458 1300Q472 1300 483 1289L735 1013Z" />
<glyph unicode="&#xe9;" glyph-name="eacute" horiz-adv-x="1130" d="M600 727Q507 727 435 711T313 660T234 568T202 431H956V485Q956 535 938 579T877 656T767 708T600 727ZM548 49Q643 49 714 61T836 90T919 125T970 155Q976 157 978 157Q989 157 998 147T1008
124Q1008 113 998 106Q989 97 960 78T875 40T739 5T547 -10Q431 -10 350 19T218 100T144 225T121 385Q121 501 158 578T259 701T411 767T600 786Q808 786 911 707T1015 479Q1015 465 1013 448T1008 416T1000 390T991 379H697L201 389Q203 296 225 232T291 127T399
68T548 49ZM654 1277Q665 1288 679 1288Q690 1288 701 1283T722 1269T737 1249T743 1227Q743 1211 728 1199L436 962Q428 957 421 957Q410 957 402 964T394 983Q394 993 402 1001L654 1277Z" />
<glyph unicode="&#xea;" glyph-name="ecircumflex" horiz-adv-x="1130" d="M600 727Q507 727 435 711T313 660T234 568T202 431H956V485Q956 535 938 579T877 656T767 708T600 727ZM548 49Q643 49 714 61T836 90T919 125T970 155Q976 157 978 157Q989 157 998
147T1008 124Q1008 113 998 106Q989 97 960 78T875 40T739 5T547 -10Q431 -10 350 19T218 100T144 225T121 385Q121 501 158 578T259 701T411 767T600 786Q808 786 911 707T1015 479Q1015 465 1013 448T1008 416T1000 390T991 379H697L201 389Q203 296 225 232T291
127T399 68T548 49ZM438 892H362L515 1127Q539 1165 568 1165Q579 1165 593 1156T621 1127L774 892H698L568 1110L438 892Z" />
<glyph unicode="&#xeb;" glyph-name="edieresis" horiz-adv-x="1130" d="M600 727Q507 727 435 711T313 660T234 568T202 431H956V485Q956 535 938 579T877 656T767 708T600 727ZM548 49Q643 49 714 61T836 90T919 125T970 155Q976 157 978 157Q989 157 998 147T1008
124Q1008 113 998 106Q989 97 960 78T875 40T739 5T547 -10Q431 -10 350 19T218 100T144 225T121 385Q121 501 158 578T259 701T411 767T600 786Q808 786 911 707T1015 479Q1015 465 1013 448T1008 416T1000 390T991 379H697L201 389Q203 296 225 232T291 127T399
68T548 49ZM280 1005Q280 1031 296 1047T338 1064Q363 1064 380 1048T398 1005Q398 980 381 965T338 949Q312 949 296 964T280 1005ZM719 1005Q719 1031 735 1047T777 1064Q802 1064 819 1048T837 1005Q837 980 820 965T777 949Q751 949 735 964T719 1005Z" />
<glyph unicode="&#xec;" glyph-name="igrave" horiz-adv-x="312" d="M196 63Q196 50 195 39T191 19T179 5T156 0Q128 0 122 17T116 63V705Q116 734 122 754T156 775Q181 775 188 754T196 707V63ZM580 1013Q588 1005 588 995Q588 984 580 977T561 969Q554 969 546
974L254 1211Q239 1223 239 1239Q239 1250 245 1261T260 1280T280 1294T303 1300Q317 1300 328 1289L580 1013Z" />
<glyph unicode="&#xed;" glyph-name="iacute" horiz-adv-x="312" d="M196 63Q196 50 195 39T191 19T179 5T156 0Q128 0 122 17T116 63V705Q116 734 122 754T156 775Q181 775 188 754T196 707V63ZM499 1277Q510 1288 524 1288Q535 1288 546 1283T567 1269T582 1249T588
1227Q588 1211 573 1199L281 962Q273 957 266 957Q255 957 247 964T239 983Q239 993 247 1001L499 1277Z" />
<glyph unicode="&#xee;" glyph-name="icircumflex" horiz-adv-x="312" d="M196 63Q196 50 195 39T191 19T179 5T156 0Q128 0 122 17T116 63V705Q116 734 122 754T156 775Q181 775 188 754T196 707V63ZM283 892H207L360 1127Q384 1165 413 1165Q424 1165 438 1156T466
1127L619 892H543L413 1110L283 892Z" />
<glyph unicode="&#xef;" glyph-name="idieresis" horiz-adv-x="312" d="M196 63Q196 50 195 39T191 19T179 5T156 0Q128 0 122 17T116 63V705Q116 734 122 754T156 775Q181 775 188 754T196 707V63ZM-131 1005Q-131 1031 -115 1047T-73 1064Q-48 1064 -31 1048T-13
1005Q-13 980 -30 965T-73 949Q-99 949 -115 964T-131 1005ZM308 1005Q308 1031 324 1047T366 1064Q391 1064 408 1048T426 1005Q426 980 409 965T366 949Q340 949 324 964T308 1005Z" />
<glyph unicode="&#xf0;" glyph-name="eth" horiz-adv-x="1064" d="M1046 1016Q1054 1018 1058 1018Q1069 1018 1074 1011T1080 995Q1080 980 1061 974L652 835Q644 832 639 832Q628 832 623 839T617 855Q617 869 637 877L1046 1016ZM978 557Q978 396 956 286T885
107T755 10T559 -20Q437 -20 354 7T220 78T146 179T123 298Q123 397 151 461T236 561T377 612T572 627Q647 627 701 623T794 611T858 596T901 579Q901 744 876 841T803 987T686 1051T526 1065Q438 1065 365 1049T234 1015Q216 1010 208 1010Q191 1010 182 1017T172
1036Q172 1055 206 1073T293 1104T408 1126T526 1134Q662 1134 750 1103T888 1002T958 824T978 557ZM901 526Q876 531 845 536T774 546T685 554T572 557Q478 557 408 550T292 516T222 441T199 306Q199 257 215 211T271 129T381 71T555 49Q651 49 717 72T824 151T883
297T901 526Z" />
<glyph unicode="&#xf1;" glyph-name="ntilde" horiz-adv-x="1192" d="M1045 72Q1045 59 1043 46T1037 23T1024 7T1004 0Q989 0 982 6T970 23T966 46T965 72V418Q965 496 954 554T909 650T816 708T660 727Q601 727 535 718T409 685T303 622T239 524V72Q239 59 238
46T233 23T222 7T202 0Q188 0 180 6T167 23T161 46T159 72V720Q159 737 166 751T201 766Q226 766 232 753T239 720V594Q267 658 317 696T426 754T547 780T660 786Q768 786 841 768T960 706T1025 593T1045 418V72ZM766 984Q788 984 794 1001T801 1052H864Q866 1038
867 1025T869 997Q869 961 844 939T770 916Q729 916 692 927T621 951T554 975T488 986Q467 986 462 974T456 948Q456 940 456 934T457 921H394Q388 946 388 976Q388 1011 414 1034T488 1057Q528 1057 565 1046T637 1021T704 996T766 984Z" />
<glyph unicode="&#xf2;" glyph-name="ograve" horiz-adv-x="1240" d="M620 -10Q482 -10 387 17T234 96T149 220T123 385Q123 491 152 566T243 691T398 763T620 786Q748 786 841 763T996 691T1087 567T1117 385Q1117 293 1091 220T1007 96T853 18T620 -10ZM620
49Q711 49 777 62T889 100T964 156T1009 225T1031 303T1037 385Q1037 478 1013 543T938 649T808 708T620 727Q510 727 432 709T302 649T227 543T203 385Q203 344 208 304T230 226T275 156T350 100T463 63T620 49ZM787 1013Q795 1005 795 995Q795 984 787 977T768
969Q761 969 753 974L461 1211Q446 1223 446 1239Q446 1250 452 1261T467 1280T487 1294T510 1300Q524 1300 535 1289L787 1013Z" />
<glyph unicode="&#xf3;" glyph-name="oacute" horiz-adv-x="1240" d="M620 -10Q482 -10 387 17T234 96T149 220T123 385Q123 491 152 566T243 691T398 763T620 786Q748 786 841 763T996 691T1087 567T1117 385Q1117 293 1091 220T1007 96T853 18T620 -10ZM620
49Q711 49 777 62T889 100T964 156T1009 225T1031 303T1037 385Q1037 478 1013 543T938 649T808 708T620 727Q510 727 432 709T302 649T227 543T203 385Q203 344 208 304T230 226T275 156T350 100T463 63T620 49ZM706 1277Q717 1288 731 1288Q742 1288 753 1283T774
1269T789 1249T795 1227Q795 1211 780 1199L488 962Q480 957 473 957Q462 957 454 964T446 983Q446 993 454 1001L706 1277Z" />
<glyph unicode="&#xf4;" glyph-name="ocircumflex" horiz-adv-x="1240" d="M620 -10Q482 -10 387 17T234 96T149 220T123 385Q123 491 152 566T243 691T398 763T620 786Q748 786 841 763T996 691T1087 567T1117 385Q1117 293 1091 220T1007 96T853 18T620 -10ZM620
49Q711 49 777 62T889 100T964 156T1009 225T1031 303T1037 385Q1037 478 1013 543T938 649T808 708T620 727Q510 727 432 709T302 649T227 543T203 385Q203 344 208 304T230 226T275 156T350 100T463 63T620 49ZM490 892H414L567 1127Q591 1165 620 1165Q631 1165
645 1156T673 1127L826 892H750L620 1110L490 892Z" />
<glyph unicode="&#xf5;" glyph-name="otilde" horiz-adv-x="1240" d="M620 -10Q482 -10 387 17T234 96T149 220T123 385Q123 491 152 566T243 691T398 763T620 786Q748 786 841 763T996 691T1087 567T1117 385Q1117 293 1091 220T1007 96T853 18T620 -10ZM620
49Q711 49 777 62T889 100T964 156T1009 225T1031 303T1037 385Q1037 478 1013 543T938 649T808 708T620 727Q510 727 432 709T302 649T227 543T203 385Q203 344 208 304T230 226T275 156T350 100T463 63T620 49ZM758 984Q780 984 786 1001T793 1052H856Q858 1038
859 1025T861 997Q861 961 836 939T762 916Q721 916 684 927T613 951T546 975T480 986Q459 986 454 974T448 948Q448 940 448 934T449 921H386Q380 946 380 976Q380 1011 406 1034T480 1057Q520 1057 557 1046T629 1021T696 996T758 984Z" />
<glyph unicode="&#xf6;" glyph-name="odieresis" horiz-adv-x="1240" d="M620 -10Q482 -10 387 17T234 96T149 220T123 385Q123 491 152 566T243 691T398 763T620 786Q748 786 841 763T996 691T1087 567T1117 385Q1117 293 1091 220T1007 96T853 18T620 -10ZM620
49Q711 49 777 62T889 100T964 156T1009 225T1031 303T1037 385Q1037 478 1013 543T938 649T808 708T620 727Q510 727 432 709T302 649T227 543T203 385Q203 344 208 304T230 226T275 156T350 100T463 63T620 49ZM332 1005Q332 1031 348 1047T390 1064Q415 1064
432 1048T450 1005Q450 980 433 965T390 949Q364 949 348 964T332 1005ZM771 1005Q771 1031 787 1047T829 1064Q854 1064 871 1048T889 1005Q889 980 872 965T829 949Q803 949 787 964T771 1005Z" />
<glyph unicode="&#xf7;" glyph-name="divide" horiz-adv-x="681" d="M483 518Q497 518 503 506T510 480Q510 468 504 456T483 444H124Q110 444 104 456T97 480Q97 493 103 505T124 518H483ZM277 303Q277 332 294 350T341 368Q368 368 387 350T407 303Q407 275
388 258T341 241Q312 241 295 258T277 303ZM277 665Q277 694 294 712T341 730Q368 730 387 712T407 665Q407 637 388 620T341 603Q312 603 295 620T277 665Z" />
<glyph unicode="&#xf8;" glyph-name="oslash" horiz-adv-x="1240" d="M620 -10Q482 -10 387 17T234 96T149 220T123 385Q123 491 152 566T243 691T398 763T620 786Q748 786 841 763T996 691T1087 567T1117 385Q1117 293 1091 220T1007 96T853 18T620 -10ZM620
49Q711 49 777 62T889 100T964 156T1009 225T1031 303T1037 385Q1037 478 1013 543T938 649T808 708T620 727Q510 727 432 709T302 649T227 543T203 385Q203 344 208 304T230 226T275 156T350 100T463 63T620 49ZM455 -175Q444 -198 436 -215T410 -232Q396 -232
389 -228T378 -217T374 -203T373 -190Q373 -180 376 -173T385 -154L795 939Q802 962 811 979T844 997Q865 997 871 986T877 962Q877 951 874 941T867 919L455 -175Z" />
<glyph unicode="&#xf9;" glyph-name="ugrave" horiz-adv-x="1175" d="M1193 141Q1172 116 1140 90T1060 41T948 5T800 -10Q693 -10 618 10T494 74T424 185T402 348V694Q402 707 403 720T409 743T421 759T442 766Q457 766 465 760T476 743T481 720T482 694V348Q482
264 496 207T545 115T642 65T800 49Q870 49 929 61T1038 91T1126 133T1194 178V694Q1194 707 1195 720T1199 743T1210 759T1231 766Q1246 766 1254 760T1267 743T1273 720T1274 694V70Q1274 57 1273 45T1267 22T1256 6T1236 0Q1208 0 1201 18T1193 61V70V141ZM748
1013Q756 1005 756 995Q756 984 748 977T729 969Q722 969 714 974L422 1211Q407 1223 407 1239Q407 1250 413 1261T428 1280T448 1294T471 1300Q485 1300 496 1289L748 1013Z" />
<glyph unicode="&#xfa;" glyph-name="uacute" horiz-adv-x="1175" d="M1193 141Q1172 116 1140 90T1060 41T948 5T800 -10Q693 -10 618 10T494 74T424 185T402 348V694Q402 707 403 720T409 743T421 759T442 766Q457 766 465 760T476 743T481 720T482 694V348Q482
264 496 207T545 115T642 65T800 49Q870 49 929 61T1038 91T1126 133T1194 178V694Q1194 707 1195 720T1199 743T1210 759T1231 766Q1246 766 1254 760T1267 743T1273 720T1274 694V70Q1274 57 1273 45T1267 22T1256 6T1236 0Q1208 0 1201 18T1193 61V70V141ZM667
1277Q678 1288 692 1288Q703 1288 714 1283T735 1269T750 1249T756 1227Q756 1211 741 1199L449 962Q441 957 434 957Q423 957 415 964T407 983Q407 993 415 1001L667 1277Z" />
<glyph unicode="&#xfb;" glyph-name="ucircumflex" horiz-adv-x="1175" d="M1193 141Q1172 116 1140 90T1060 41T948 5T800 -10Q693 -10 618 10T494 74T424 185T402 348V694Q402 707 403 720T409 743T421 759T442 766Q457 766 465 760T476 743T481 720T482 694V348Q482
264 496 207T545 115T642 65T800 49Q870 49 929 61T1038 91T1126 133T1194 178V694Q1194 707 1195 720T1199 743T1210 759T1231 766Q1246 766 1254 760T1267 743T1273 720T1274 694V70Q1274 57 1273 45T1267 22T1256 6T1236 0Q1208 0 1201 18T1193 61V70V141ZM451
892H375L528 1127Q552 1165 581 1165Q592 1165 606 1156T634 1127L787 892H711L581 1110L451 892Z" />
<glyph unicode="&#xfc;" glyph-name="udieresis" horiz-adv-x="1178" d="M938 141Q917 116 885 90T805 41T693 5T545 -10Q438 -10 363 10T239 74T169 185T147 348V694Q147 707 148 720T154 743T166 759T187 766Q202 766 210 760T221 743T226 720T227 694V348Q227
264 241 207T290 115T387 65T545 49Q615 49 674 61T783 91T871 133T939 178V694Q939 707 940 720T944 743T955 759T976 766Q991 766 999 760T1012 743T1018 720T1019 694V70Q1019 57 1018 45T1012 22T1001 6T981 0Q953 0 946 18T938 61V70V141ZM295 1005Q295 1031
311 1047T353 1064Q378 1064 395 1048T413 1005Q413 980 396 965T353 949Q327 949 311 964T295 1005ZM734 1005Q734 1031 750 1047T792 1064Q817 1064 834 1048T852 1005Q852 980 835 965T792 949Q766 949 750 964T734 1005Z" />
<glyph unicode="&#xfd;" glyph-name="yacute" horiz-adv-x="1170" d="M587 -275Q690 -275 759 -253T869 -179T928 -42T946 170Q935 129 910 100T851 51T776 19T693 1T611 -8T536 -10Q428 -10 354 9T234 75T168 198T147 387V694Q147 707 148 720T153 743T164 759T186
766Q201 766 209 760T221 743T226 720T227 694V387Q227 289 239 224T286 120T380 65T536 49Q593 49 658 57T781 86T884 144T946 240V694Q946 707 947 720T953 743T964 759T984 766Q999 766 1007 760T1019 743T1025 720T1026 694V203Q1026 49 1002 -54T924 -219T788
-308T587 -334Q503 -334 446 -325T349 -303T283 -272T238 -240Q230 -232 230 -221Q230 -207 237 -198T261 -188Q269 -188 278 -194Q297 -208 322 -222T384 -248T470 -267T587 -275ZM672 1277Q683 1288 697 1288Q708 1288 719 1283T740 1269T755 1249T761 1227Q761
1211 746 1199L454 962Q446 957 439 957Q428 957 420 964T412 983Q412 993 420 1001L672 1277Z" />
<glyph unicode="&#xfe;" glyph-name="thorn" horiz-adv-x="1196" d="M630 786Q720 786 800 766T941 700T1037 580T1073 396Q1073 286 1044 209T958 83T819 12T630 -10Q559 -10 495 -2T374 18T269 46T180 78L178 -267Q178 -280 178 -292T173 -315T162 -331T139
-337Q124 -337 117 -331T105 -314T101 -290T100 -261V1061Q100 1093 111 1101T137 1110Q154 1110 164 1102T175 1061V594Q186 636 214 667T282 719T368 754T461 774T552 783T630 786ZM630 727Q570 726 499 718T363 687T248 626T180 524V140Q223 124 272 108T378
78T497 57T630 49Q726 49 794 69T907 131T972 239T993 396Q993 490 965 554T887 656T772 710T630 727Z" />
<glyph unicode="&#xff;" glyph-name="ydieresis" horiz-adv-x="1170" d="M587 -275Q690 -275 759 -253T869 -179T928 -42T946 170Q935 129 910 100T851 51T776 19T693 1T611 -8T536 -10Q428 -10 354 9T234 75T168 198T147 387V694Q147 707 148 720T153 743T164
759T186 766Q201 766 209 760T221 743T226 720T227 694V387Q227 289 239 224T286 120T380 65T536 49Q593 49 658 57T781 86T884 144T946 240V694Q946 707 947 720T953 743T964 759T984 766Q999 766 1007 760T1019 743T1025 720T1026 694V203Q1026 49 1002 -54T924
-219T788 -308T587 -334Q503 -334 446 -325T349 -303T283 -272T238 -240Q230 -232 230 -221Q230 -207 237 -198T261 -188Q269 -188 278 -194Q297 -208 322 -222T384 -248T470 -267T587 -275ZM298 1005Q298 1031 314 1047T356 1064Q381 1064 398 1048T416 1005Q416
980 399 965T356 949Q330 949 314 964T298 1005ZM737 1005Q737 1031 753 1047T795 1064Q820 1064 837 1048T855 1005Q855 980 838 965T795 949Q769 949 753 964T737 1005Z" />
<glyph unicode="&#x2013;" glyph-name="endash" horiz-adv-x="677" d="M482 588Q496 588 502 576T509 550Q509 538 503 526T482 514H123Q109 514 103 526T96 550Q96 563 102 575T123 588H482Z" />
<glyph unicode="&#x2014;" glyph-name="emdash" horiz-adv-x="1435" d="M1350 228Q1350 211 1341 198T1312 184H122Q102 184 94 197T85 228Q85 245 93 258T122 272H1312Q1332 272 1341 259T1350 228Z" />
<glyph unicode="&#x2018;" glyph-name="quoteleft" horiz-adv-x="311" d="M241 1080H231Q205 1080 196 1073T187 1054Q187 1045 191 1034T201 1012T213 992T222 976Q227 967 227 959T228 944Q228 912 206 893T155 874Q140 874 125 880T99 899T80 934T72 985Q72
1017 81 1044T107 1092T149 1123T206 1134Q223 1134 241 1131V1080Z" />
<glyph unicode="&#x2019;" glyph-name="quoteright" horiz-adv-x="316" d="M77 928H87Q113 928 122 935T131 954Q131 963 127 974T117 996T105 1016T96 1032Q91 1041 91 1049T90 1064Q90 1096 112 1115T163 1134Q178 1134 193 1128T219 1109T238 1074T246 1023Q246
991 237 964T211 916T169 885T112 874Q95 874 77 877V928Z" />
<glyph unicode="&#x201a;" glyph-name="quotesinglbase" horiz-adv-x="289" d="M107 109Q105 127 103 143T100 173T97 195T96 204Q96 222 110 231T145 240Q165 240 179 231T193 204Q192 204 191 196T189 174T186 143T182 109L171 15Q169 4 162 -1T145 -6Q136 -6
128 -1T119 15L107 109Z" />
<glyph unicode="&#x201c;" glyph-name="quotedblleft" horiz-adv-x="512" d="M241 1080H231Q205 1080 196 1073T187 1054Q187 1045 191 1034T201 1012T213 992T222 976Q227 967 227 959T228 944Q228 912 206 893T155 874Q140 874 125 880T99 899T80 934T72 985Q72
1017 81 1044T107 1092T149 1123T206 1134Q223 1134 241 1131V1080ZM443 1080H433Q407 1080 398 1073T389 1054Q389 1045 393 1034T403 1012T415 992T424 976Q429 967 429 959T430 944Q430 912 408 893T357 874Q342 874 327 880T301 899T282 934T274 985Q274 1017
283 1044T309 1092T351 1123T408 1134Q425 1134 443 1131V1080Z" />
<glyph unicode="&#x201d;" glyph-name="quotedblright" horiz-adv-x="524" d="M77 928H87Q113 928 122 935T131 954Q131 963 127 974T117 996T105 1016T96 1032Q91 1041 91 1049T90 1064Q90 1096 112 1115T163 1134Q178 1134 193 1128T219 1109T238 1074T246 1023Q246
991 237 964T211 916T169 885T112 874Q95 874 77 877V928ZM285 928H295Q321 928 330 935T339 954Q339 963 335 974T325 996T313 1016T304 1032Q299 1041 299 1049T298 1064Q298 1096 320 1115T371 1134Q386 1134 401 1128T427 1109T446 1074T454 1023Q454 991 445
964T419 916T377 885T320 874Q303 874 285 877V928Z" />
<glyph unicode="&#x201e;" glyph-name="quotedblbase" horiz-adv-x="445" d="M107 97Q105 115 103 131T100 161T97 183T96 192Q96 210 110 219T145 228Q165 228 179 219T193 192Q192 192 191 184T189 162T186 131T182 97L171 3Q169 -8 162 -13T145 -18Q136 -18
128 -13T119 3L107 97ZM263 97Q261 115 259 131T256 161T253 183T252 192Q252 210 266 219T301 228Q321 228 335 219T349 192Q348 192 347 184T345 162T342 131T338 97L327 3Q325 -8 318 -13T301 -18Q292 -18 284 -13T275 3L263 97Z" />
<glyph unicode="&#x2022;" glyph-name="bullet" horiz-adv-x="851" d="M777 403Q777 333 749 272T673 166T561 94T425 68Q353 68 289 94T177 166T102 273T74 403Q74 473 101 534T176 642T288 714T425 741Q497 741 561 715T673 642T749 535T777 403Z" />
<glyph unicode="&#x2039;" glyph-name="guilsinglleft" horiz-adv-x="448" d="M300 619Q312 631 327 631Q342 631 353 621T365 596Q365 582 354 571L116 334L354 97Q366 85 366 72Q366 58 354 48T327 37Q312 37 300 49L59 301Q42 318 42 335Q42 341 46 349T59
367L300 619Z" />
<glyph unicode="&#x203a;" glyph-name="guilsinglright" horiz-adv-x="448" d="M389 367Q398 358 401 350T406 335Q406 318 389 301L148 49Q136 37 121 37Q106 37 94 47T82 72Q82 85 94 97L332 334L94 571Q83 582 83 596Q83 610 94 620T121 631Q136 631 148 619L389 367Z" />
</font>
</defs>
</svg>
