<?xml version="1.0" standalone="no"?>
<!DOCTYPE svg PUBLIC "-//W3C//DTD SVG 1.1//EN" "http://www.w3.org/Graphics/SVG/1.1/DTD/svg11.dtd">
<svg xmlns="http://www.w3.org/2000/svg">
<defs >
<font id="LondrinaShadow" horiz-adv-x="443" ><font-face
    font-family="Londrina Shadow"
    units-per-em="1000"
    panose-1="0 0 5 0 0 0 0 0 0 0"
    ascent="945"
    descent="-238"
    alphabetic="0" />
<glyph unicode=" " glyph-name="space" horiz-adv-x="200" />
<glyph unicode="!" glyph-name="exclam" horiz-adv-x="217" d="M106 719T131 719Q165 719 184 712L183 697Q197 695 204 692Q204 644 202 546Q200 444 200 393Q200 262 206 146Q150 140 89 140H55V160H35V230Q35 325 34 373L33 515Q33 616 39 712H50Q106 719 131
719ZM43 622T43 513L44 376Q45 330 45 238V170H46Q65 170 75 171Q139 171 175 175Q170 270 170 405Q170 576 174 704Q158 709 133 709Q105 709 51 702H48Q43 622 43 513ZM60 -29T58 -9H51Q43 -9 41 -2T38 22Q38 43 41 68Q42 78 43 92T44 125Q66 135 95 135Q109
135 139 133Q169 131 186 131L185 111H206L205 47Q203 -3 203 -29H186L166 -28H146L71 -29Q60 -29 58 -9ZM128 2L166 1H173Q173 29 175 87L176 121Q164 121 138 123Q110 125 96 125Q68 125 54 119V118Q54 104 53 91T51 65Q48 38 48 16Q48 1 51 1L126 2H128Z" />
<glyph unicode="&quot;" glyph-name="quotedbl" horiz-adv-x="378" d="M58 716Q79 720 116 720Q151 720 158 709V698Q173 697 178 689L180 430H132L87 429H70Q54 429 47 431V449Q41 449 27 451L26 551V588Q26 639 29 714H40L58 716ZM251 716Q272 720 309 720Q344
720 351 709V698Q366 697 371 689L373 430H325L280 429H263Q247 429 240 431V449Q234 449 220 451L219 551V588Q219 639 222 714H233L251 716ZM39 702Q36 659 36 601L37 460L66 459L136 460H150V500L149 633Q148 665 148 706Q145 711 124 711Q104 711 76 708T40
704H39V702ZM232 702Q229 659 229 601L230 460L259 459L329 460H343V500L342 633Q341 665 341 706Q338 711 317 711Q297 711 269 708T233 704H232V702Z" />
<glyph unicode="#" glyph-name="numbersign" horiz-adv-x="669" d="M566 353Q560 335 558 326Q550 302 548 297L538 267L563 266Q594 266 635 263Q637 258 639 252T644 245T655 243Q660 230 662 216T664 185Q664 153 666 129Q640 125 607 125H564Q521 125 487
124L479 101Q451 14 427 -29H418Q404 -31 371 -31L292 -29L296 -10Q288 -9 272 -9Q280 23 298 75L316 128H310Q277 128 246 127Q234 94 227 79Q215 53 201 13L202 14Q197 -6 191 -18T169 -30Q153 -28 122 -28L76 -30L50 -31Q50 -28 51 -22T54 -10Q37 -10 30 -11Q36
23 45 53T71 123Q68 122 59 122H53Q44 122 42 125T37 143Q26 143 19 144Q15 185 15 246V286Q35 266 90 266Q112 266 129 267Q130 271 135 292T155 353Q146 353 125 353T48 352V372H28L27 503Q42 494 126 494Q159 494 179 495H189L199 494Q206 494 224 553T250 650Q266
647 387 643Q387 638 385 624L407 623Q407 608 403 592T383 528L373 496H447Q455 510 468 553T497 651Q517 646 538 646L580 647L600 648Q613 648 620 644T627 626H634Q641 626 644 623T647 610Q647 598 641 576T624 520L615 492H649V472H669V459L677 356L566 353ZM639
482L576 483Q595 549 605 580Q617 620 617 629Q617 638 595 638L565 637Q555 636 536 636Q520 636 504 639H502Q469 512 452 486H333Q359 572 363 586Q377 628 377 633Q325 635 314 635Q267 636 258 638V637Q252 610 235 555T211 487L210 485L200 484L179 485Q159
484 128 484Q51 484 39 489L36 490L38 382Q111 382 132 383H156H176Q154 318 146 288L140 267Q136 255 110 255Q27 255 25 262Q25 238 26 225Q26 176 28 153H37Q54 153 63 154L94 155Q92 149 89 142T83 126Q53 48 43 0Q66 1 102 1L150 0Q158 0 162 8T169 25T172
37Q187 78 198 101Q205 117 219 157Q242 158 275 158H311Q327 158 329 157H336Q331 140 314 90Q311 83 302 56T285 1Q312 0 350 0Q380 0 389 0T399 1L402 2Q422 37 447 117Q460 153 461 154H464Q491 155 529 155H573Q614 155 635 158V160Q633 186 633 216Q633 227
632 236T628 253Q565 257 521 257H498Q498 257 519 320L540 383L646 386L639 478V482ZM276 321L297 385L299 386Q332 386 418 384L420 383Q414 360 401 326Q384 280 380 261L379 258L254 257L276 321ZM323 355Q310 318 295 267L371 268Q371 268 384 307L392 329Q394
333 397 340T402 355H323Z" />
<glyph unicode="$" glyph-name="dollar" horiz-adv-x="445" d="M452 93T422 51T330 -21L329 -50V-89Q329 -126 281 -126H261L239 -127H211Q177 -127 168 -104Q155 -99 150 -89T145 -63L146 -37V-30Q146 -23 144 -19H143Q84 0 60 33Q29 58 20 94T10 191Q10 219
12 230T26 247T66 252Q80 252 100 250Q118 248 126 248Q150 248 163 244T181 225Q193 221 198 212T204 186V170V156Q204 148 206 145T217 141Q230 141 241 148T253 167Q253 201 224 233T137 311Q91 348 75 366Q49 397 34 433T18 507Q18 559 54 600T147 658V663L142
737Q142 755 155 759T199 763H223Q285 763 306 746V723Q317 723 321 723T326 722V651Q361 640 394 607T441 545Q451 524 453 506T456 454V448Q456 428 445 420T412 412H396Q378 412 370 411L340 410Q296 410 284 436Q257 447 257 491H254Q241 491 229 481T217 456Q217
429 244 405T319 351L346 333Q394 298 423 246T452 140Q452 93 422 51ZM187 493T202 507T234 521Q254 521 260 512T268 485Q271 463 280 452T320 440L348 441Q357 442 376 442H392Q413 442 419 449T426 480Q426 507 424 524T412 561Q398 590 371 615T309 644Q296
645 296 658V740Q291 753 220 753H188Q170 753 161 750T152 737L157 663L158 654Q147 649 118 632Q74 607 64 597Q28 561 28 507Q28 472 43 436T82 373Q102 351 151 313Q206 270 234 238T263 167Q263 152 249 142T217 131Q187 131 180 149T173 185T174 206Q174
227 163 232T126 238Q112 238 105 239Q100 239 88 240T66 242Q43 242 34 238T22 224T20 191Q20 140 27 108T57 51T126 11Q145 5 151 -6T157 -35L156 -63Q156 -80 163 -88T191 -97H219Q268 -97 283 -93T299 -69V-29L300 6Q304 6 331 22T363 44Q422 92 422 160Q422
204 400 250T340 325L308 347Q251 385 219 414T187 476Q187 493 202 507ZM147 655H148V657L147 655Z" />
<glyph unicode="%" glyph-name="percent" horiz-adv-x="604" d="M10 540L14 565Q18 596 23 615T44 651Q83 693 129 693Q177 693 209 663T257 591T273 510V500Q278 515 278 515H277Q281 532 286 543Q303 577 341 721Q358 717 382 717L428 718Q467 718 494 705L492
701L489 694Q502 690 514 685L510 677Q506 670 506 666Q506 657 489 604T467 536L460 515L445 473Q424 416 402 349Q434 376 472 376Q520 376 552 346T600 274T616 193Q616 117 589 56T492 -5Q456 -5 438 6T401 40Q377 59 370 78T357 137Q358 134 352 168L351 197Q349
195 348 192T347 187V188Q330 140 325 127L268 -17V-16Q265 -25 256 -28T227 -31H170H130Q119 -31 119 -15V-10L110 -11Q99 -11 99 4Q99 25 119 72V71L127 93H126Q147 155 159 182L158 181Q174 229 213 333Q188 312 151 312Q114 312 95 324T58 357Q34 376 27 395T14
454Q15 451 9 485L8 513L10 540ZM342 268T404 457T475 683Q477 688 478 692T481 701Q473 706 463 707T436 708Q417 708 407 707L378 706Q361 706 349 709Q337 660 320 610T300 554Q241 375 213 299T180 211Q169 187 168 178Q153 144 136 90Q135 87 121 53T107 3Q107
-1 110 -1H111Q134 0 166 0H201H213Q225 0 231 1T239 7L296 151Q342 268 404 457ZM19 487Q20 480 25 437T57 368T130 342Q187 342 215 394T243 511V531Q243 591 216 637T126 683Q71 681 50 642T20 538L18 513L19 488V487ZM97 553L96 565Q96 583 106 595T130 608Q151
608 156 579T162 509Q162 506 162 481T154 438T127 420Q112 420 108 430T103 456T102 479L97 552V553ZM133 440V431Q140 433 143 438T147 450T149 459V458Q149 458 149 459T150 462V467L151 488Q152 495 152 509Q152 545 145 577Q136 574 131 566V567Q127 560 127
533L132 459L133 440ZM362 170Q363 163 368 120T400 51T473 25Q530 25 558 77T586 194V214Q586 274 559 320T469 366Q414 364 393 325T363 221L361 196L362 171V170ZM440 236L439 248Q439 266 449 278T473 291Q494 291 499 262T505 192Q505 189 505 164T497 121T470
103Q455 103 451 113T446 139T445 162L440 235V236ZM476 123V114Q484 116 488 125T493 145V150L494 171Q495 178 495 192Q495 228 488 260Q479 257 474 249V250Q470 243 470 216L475 142L476 123Z" />
<glyph unicode="&amp;" glyph-name="ampersand" horiz-adv-x="565" d="M575 -18T553 -24T496 -31H491Q459 -31 445 -30T415 -21T381 5Q328 -26 239 -31Q171 -31 119 5T37 100T8 220Q8 269 36 321T104 411Q31 509 31 580Q31 624 60 661T137 719T234 741Q289 741
335 714T409 644T436 559Q436 527 425 502T387 435L381 426Q352 383 352 373Q352 353 364 331Q365 336 369 357T389 388T433 398H504Q522 398 532 393T548 374Q560 370 565 361T571 331Q571 304 565 283T544 228V229Q540 219 537 208T528 190V191Q522 177 515 163T507
145Q507 143 518 130T537 108Q556 85 567 67T583 25V12L582 6Q575 -18 553 -24ZM553 43Q548 66 537 82T503 129V128Q497 135 487 147T477 165Q477 170 487 191T504 224L512 245V244Q528 281 534 302T541 351Q541 373 532 380T504 388H433Q400 388 389 375T374 334Q370
311 365 302Q322 356 322 394Q322 403 328 415T351 451Q376 488 391 518T406 579Q406 619 384 654T323 710T234 731Q186 731 142 711T69 656T41 580Q41 540 63 497T118 410Q75 370 47 320T18 220Q18 164 41 114T110 31T219 -1Q312 4 362 38Q390 12 410 6T471 -1H476Q508
-1 527 4T552 29L553 34V43ZM254 557T247 531T222 501V502Q212 502 202 528T191 577Q191 618 234 618Q254 618 254 597Q254 557 247 531ZM221 582T221 557Q221 537 227 514Q242 528 244 587Q221 582 221 557ZM199 139T184 161T169 211Q169 247 185 267T226 288Q266
288 279 263T292 199Q292 176 291 167T283 152T262 142Q241 139 235 139Q199 139 184 161ZM277 154L282 209Q282 233 276 245T242 258Q221 258 210 241T199 189Q199 170 205 160T235 149Q241 149 255 151Q259 151 265 152T276 154H277Z" />
<glyph unicode="&apos;" glyph-name="quotesingle" horiz-adv-x="185" d="M58 716Q79 720 116 720Q151 720 158 709V698Q173 697 178 689L180 430H132L87 429H70Q54 429 47 431V449Q41 449 27 451L26 551V588Q26 639 29 714H40L58 716ZM39 702Q36 659 36 601L37
460L66 459L136 460H150V500L149 633Q148 665 148 706Q145 711 124 711Q104 711 76 708T40 704H39V702Z" />
<glyph unicode="(" glyph-name="parenleft" horiz-adv-x="314" d="M57 82Q39 114 32 141T22 202Q22 234 23 258T25 299Q28 349 28 396V444Q29 457 29 485Q29 533 33 565T53 626Q79 672 121 696T212 721Q239 721 295 713L297 696L315 693Q318 672 318 641L317 595Q316
581 316 553Q275 541 253 521T221 468T207 375Q207 362 206 358V315L205 278Q205 224 216 186L215 187Q223 164 248 152T300 139V123L299 121Q305 119 311 119T320 119V103Q318 88 318 56V20Q318 -4 317 -14Q310 -25 301 -27T283 -30T271 -30H248Q180 -30 122 13Q84
39 57 83V82ZM257 0Q276 0 282 8T289 34L288 66Q288 72 288 90T290 124L289 129Q259 130 230 150T186 203Q175 241 175 301V353Q175 398 178 433T194 501Q199 531 226 551T286 581Q288 631 288 658V676Q288 695 286 704L285 705Q252 709 212 711Q137 709 88 658T38
504Q39 491 39 481T38 464V444V398Q38 331 32 203Q35 171 42 145T66 87Q79 60 108 41Q167 0 228 0H257Z" />
<glyph unicode=")" glyph-name="parenright" horiz-adv-x="313" d="M83 -30Q62 -30 49 -27T36 -8Q13 -1 13 57Q13 76 14 86Q14 93 14 102T14 123L15 139Q47 140 76 159T119 207L118 206Q129 244 129 298L128 335V378Q125 390 123 423Q120 460 116 483T101 523Q81
539 38 553Q38 562 35 565T26 570T18 573Q18 600 17 614L16 661Q16 694 20 714Q55 719 102 721Q156 719 204 689T281 606Q296 579 300 550T304 474L306 424V376Q306 345 307 321T309 279Q312 230 312 182Q309 151 302 123T277 62Q260 33 232 13Q174 -30 106 -30H83ZM276
331T276 398V444Q275 457 275 467T276 484V504Q276 540 271 568T252 621Q228 667 189 689T102 711Q75 711 29 705L28 704Q25 682 25 658Q25 639 27 605L28 581Q70 569 91 548T121 489T138 380L139 301Q139 241 128 203Q114 171 85 151T25 129L24 124Q26 107 26
66Q26 26 27 9Q35 0 56 0H86Q147 0 206 41Q246 69 261 110T282 203Q276 331 276 398Z" />
<glyph unicode="*" glyph-name="asterisk" horiz-adv-x="367" d="M378 431Q378 422 373 416T363 404T355 396L345 386L269 328L250 349L249 348Q247 350 227 370T199 399Q191 393 180 380Q160 360 146 349T122 337Q89 369 27 423L28 425L7 443Q37 484 78 525Q71
536 52 555Q49 558 37 572T17 598T7 618Q17 623 56 662Q93 699 105 708Q113 706 144 679T186 639Q205 652 261 708L375 594Q373 581 363 569T335 539Q318 523 310 512Q320 505 346 472Q370 440 377 437L378 431ZM348 450Q344 454 338 462T324 478Q282 529 278 529Q282
539 308 565Q342 597 344 611L301 653Q268 684 260 695L186 627Q184 628 154 656Q112 696 107 697L106 696Q98 690 63 655Q26 616 19 613Q23 603 56 566Q89 529 89 524V523L60 492Q27 457 20 446Q55 416 84 388L106 367Q113 367 149 403Q174 428 179 430Q186 427
232 381Q236 378 242 371T252 361L254 362L319 414Q323 418 335 429T348 448V450Z" />
<glyph unicode="+" glyph-name="plus" horiz-adv-x="445" d="M151 96Q150 97 150 101Q135 99 132 98L131 117V116Q128 136 128 152L129 170V209Q44 217 32 226L33 239Q16 242 12 246L13 276Q13 324 10 360L9 398Q11 397 29 397Q57 397 90 399T136 403Q136 463
140 502T145 543Q167 529 200 529Q225 529 238 530L278 531Q296 531 310 529V510Q325 510 330 509V427L329 404L354 405Q410 405 433 401L432 383Q439 383 453 381Q452 367 452 342V298Q452 253 448 221Q434 214 368 214Q338 214 331 213Q331 200 326 137Q323 110
323 96Q323 82 282 82Q260 82 248 83L211 84Q194 84 176 82T152 78L151 97V96ZM151 114Q175 114 191 113L256 112Q293 112 293 116V118Q293 133 296 158Q300 206 300 228V240Q309 245 371 245Q415 245 419 247Q422 272 422 317Q422 364 423 392Q408 395 363 395H330L313
394Q306 394 303 398T300 416V520H286L202 519Q164 519 155 524Q152 505 149 464T146 394Q142 392 91 388T23 384H19Q19 377 21 338T24 272L23 251Q23 245 66 242T135 239H137Q140 236 140 192L139 150V137Q139 125 141 117V115L142 114H151Z" />
<glyph unicode="," glyph-name="comma" horiz-adv-x="188" d="M158 -135Q148 -130 141 -129T119 -128H77Q71 -122 71 -108H57Q52 -103 52 -92Q52 -80 58 -57T66 -28Q64 -27 60 -27H57Q45 -27 41 -17V-7H34Q21 -7 21 10Q21 52 26 127Q48 135 74 135Q104 135 146
130L168 128L167 109L188 108L180 -19Q180 -26 178 -32T176 -43L168 -85L158 -135ZM147 -16T148 -11T150 1L151 4H153V119H156Q94 125 75 125Q51 125 36 120L35 119Q31 53 31 8V4Q32 3 34 3L81 -1Q76 -27 68 -59Q60 -93 60 -96Q60 -99 83 -99Q98 -99 107 -98Q122
-98 130 -100L138 -61L146 -21Q147 -16 148 -11Z" />
<glyph unicode="-" glyph-name="hyphen" horiz-adv-x="521" d="M28 295L29 372H492V352H512L511 295Q510 277 510 244Q510 200 515 165L56 172L46 182V192H36L26 202L28 295ZM485 195Q480 224 480 262L481 312Q482 329 482 362H39L38 323L36 202Q40 202 56 202T110
201Q302 195 445 195H485Z" />
<glyph unicode="." glyph-name="period" horiz-adv-x="189" d="M42 -9H25Q21 16 21 52L22 97Q23 107 23 123Q51 135 101 135Q139 135 165 123L167 109Q170 108 176 107T184 102T187 86Q187 67 184 29T179 -30L45 -29L42 -9ZM152 2Q152 16 155 65T158 119Q145 125
101 125Q50 125 33 117Q33 105 32 96L31 47Q31 12 34 1L37 0H152V2Z" />
<glyph unicode="/" glyph-name="slash" horiz-adv-x="412" d="M180 -16Q177 -25 168 -28T139 -31H82H42Q31 -31 31 -15V-10L22 -11Q11 -11 11 4Q11 25 31 72V71L39 93H38Q58 154 71 182L70 181Q73 197 165 441Q170 454 190 515H189Q193 532 198 543Q215 577 253
721Q270 717 294 717L340 718Q379 718 406 705L404 701L401 694Q414 690 426 685L422 677Q418 670 418 666Q418 657 401 604T379 536L372 515L357 473Q325 382 312 341Q307 325 291 277T259 187V188Q242 140 237 127L180 -17V-16ZM254 268T316 457T387 683Q389
688 390 692T393 701Q385 706 375 707T348 708Q329 708 319 707L290 706Q273 706 261 709Q249 660 232 610T212 554Q153 375 125 299T92 211Q81 187 80 178Q65 144 48 90Q47 87 33 53T19 3Q19 -1 22 -1H23Q46 0 78 0H113H125Q137 0 143 1T151 7L208 151Q254 268
316 457Z" />
<glyph unicode="0" glyph-name="zero" horiz-adv-x="513" d="M74 623Q102 666 150 693T254 720Q344 720 403 667T490 534T518 377V341Q518 257 491 172T409 29T271 -28Q215 -28 172 -7T102 46Q67 77 50 119T29 204T22 315L21 341Q19 379 19 398Q19 462 31 517T73
622L74 623ZM29 379T31 341L32 315Q34 235 42 182T80 83T174 15Q211 1 258 1Q336 1 388 54T464 186T489 347L488 373Q489 382 489 400Q489 473 466 544T390 662T256 710Q202 710 155 685T82 618Q52 571 41 517T29 398Q29 379 31 341ZM93 602V603H94L93 602ZM177
452T192 502T254 552Q294 552 308 501T322 371V331Q322 256 309 211T254 165Q239 165 231 169Q201 174 189 230T177 347Q177 452 192 502ZM243 174T255 174Q288 174 298 210T309 277T311 313Q312 329 312 371Q312 471 289 518Q278 521 268 521Q250 521 238 511T217
458T208 327Q208 264 222 213L221 214Q224 207 226 197T231 179H233L234 178Q243 174 255 174Z" />
<glyph unicode="1" glyph-name="one" horiz-adv-x="366" d="M221 -30T165 -21V-4L145 -1V105Q145 171 151 303Q155 388 156 428Q150 422 143 422Q135 422 102 431T40 451T12 470Q12 473 13 474Q-8 485 -8 490Q-6 510 21 561T81 663T119 720L128 722Q182 724 214
724Q272 724 328 719V711Q328 704 331 702T348 699Q354 614 354 522Q354 444 348 294Q347 266 345 196T343 68Q343 21 344 -2Q344 -30 273 -30Q221 -30 165 -21ZM313 88Q313 165 319 315Q320 343 322 414T324 542Q324 639 319 710Q271 714 214 714Q185 714 123
712Q118 707 87 658T30 559T2 489Q2 481 56 467T123 452Q132 452 138 461T151 486Q161 507 166 507Q167 505 167 498V489Q167 425 161 297Q155 169 155 105V7Q218 0 253 0Q314 0 314 18Q313 29 313 53V88Z" />
<glyph unicode="2" glyph-name="two" horiz-adv-x="498" d="M488 -1Q488 -8 490 -12Q490 -22 488 -24T476 -26L96 -31H47Q40 -24 40 -18V-11H27Q20 -4 20 2Q23 40 23 75Q24 140 30 179T59 258Q87 289 118 311T199 364Q247 392 272 411Q304 435 304 474Q304 511
280 516Q244 516 231 481T215 394Q166 386 93 386Q71 386 48 392Q46 402 45 404T38 408T28 412Q21 447 21 485Q21 594 79 658V657Q104 690 153 705T262 721Q335 721 389 692T472 610T502 488L503 435Q503 383 482 348T430 293T348 247Q307 227 284 213T244 178Q243
173 240 166T234 152H270L361 153Q423 155 458 155Q463 144 464 135H478Q489 105 489 73L488 41V6V-1ZM460 5Q457 16 457 27Q457 47 458 58L459 90Q459 127 451 145Q411 145 341 143Q273 141 236 141Q200 141 200 151Q200 180 216 201T253 235T311 268L366 296Q416
321 444 357T473 452Q473 533 458 588T396 677T262 711Q145 711 88 652T31 485Q31 453 37 420L38 418Q60 415 84 415Q122 415 186 423L187 425Q190 478 204 512T261 546Q286 542 299 522T313 474Q313 452 304 433T278 403Q245 377 192 346Q149 320 120 300T65 250Q44
217 39 180T33 79Q33 41 30 2Q30 0 31 -1H456L460 5Z" />
<glyph unicode="3" glyph-name="three" horiz-adv-x="492" d="M28 229T42 229Q61 229 91 233Q119 238 148 238Q157 238 163 234T178 217Q185 217 188 214T195 203T203 191Q223 174 248 174Q273 174 288 195L287 194Q295 208 295 224Q295 248 278 256T233 264Q218
264 185 257Q180 267 176 279L165 277Q152 299 152 336Q152 348 154 372L155 407Q155 423 154 434Q174 441 213 443Q254 445 274 453T294 489Q294 505 291 511T273 518Q248 518 222 501T187 460Q170 457 99 457H51L38 459V477L18 479L17 513Q16 521 16 541Q16 571
23 586L22 585Q41 650 105 684T248 719Q320 719 379 688T469 608Q476 595 480 573T484 531L485 464Q486 441 486 399Q486 341 483 284Q481 208 481 173Q472 -31 262 -31Q196 -31 134 -11V-12Q103 -3 83 17Q53 47 41 69T24 124T20 230Q28 229 42 229ZM318 -1T364
24T435 104Q444 122 446 141T451 194Q451 211 452 220Q456 307 456 418Q456 461 454 551V561Q454 631 394 670T248 709Q192 709 141 690T58 633T26 540L27 511Q28 504 28 489V487L87 488H131Q155 488 160 489Q168 513 196 530T253 548Q276 548 290 534T304 489Q304
453 281 444T215 434Q211 434 194 433T165 428V427Q166 420 166 409L165 373Q163 347 163 335Q163 317 164 307T170 289Q187 293 213 293Q253 293 279 276T305 224Q305 194 288 179T248 164Q222 164 196 183T162 227L160 228H147Q135 228 90 223Q62 218 41 218L30
219L28 218Q30 202 32 170Q35 121 41 94T70 44Q76 36 100 26T161 7T242 -1Q318 -1 364 24Z" />
<glyph unicode="4" glyph-name="four" horiz-adv-x="469" d="M406 695T422 693L421 665Q418 599 416 508T414 341V340Q428 340 435 339L462 338L461 318L468 317L482 318L476 156Q458 150 443 150L424 151Q416 151 401 148H404Q414 148 414 139Q405 3 400 -22Q394
-30 375 -31T307 -33H243Q239 -29 239 -13H223Q218 -8 218 23Q218 61 225 147L226 161H155Q98 161 68 162T35 169Q35 171 34 174T31 183Q15 185 9 211T3 310Q3 330 7 342T26 379Q30 388 38 401Q107 535 228 712L259 713Q319 715 361 715H378Q393 715 402 713L401
695Q406 695 422 693ZM384 333T384 362Q384 463 391 683L392 704H390Q385 705 362 705Q314 705 258 703L233 702L232 701Q135 555 52 404Q24 350 14 339Q13 328 13 309Q13 267 17 235T24 194Q25 193 66 192T127 191Q230 191 238 189L235 144Q226 36 226 2V-2Q226
-3 227 -3H287Q333 -3 350 -2T371 4Q374 18 384 159Q384 168 384 173T385 180Q388 181 398 181L425 180Q436 180 446 183L452 328L431 329Q413 331 404 331Q394 331 391 330L385 329Q384 333 384 362ZM260 326T236 326Q223 327 192 327H151L133 328Q143 347 172
397T231 495T267 542Q268 542 268 541L265 327Q260 326 236 326ZM205 394T178 336H233Q242 336 245 336T250 335Q252 335 252 335T255 336L257 484Q205 394 178 336Z" />
<glyph unicode="5" glyph-name="five" horiz-adv-x="503" d="M195 209H215L216 196Q217 181 220 174T235 166Q269 166 288 191T307 251Q307 306 273 320H274Q254 324 222 324Q201 324 157 322Q124 319 91 319Q67 319 48 322V339Q45 339 39 339T28 342L27 501Q26
547 26 644L27 706Q29 706 45 706T103 707Q415 713 450 713Q462 713 467 710T475 693Q490 690 493 681T497 646Q497 624 493 584Q490 560 490 544V525Q474 523 413 521T298 518Q299 517 302 517Q402 500 454 412T506 202Q506 156 500 112Q489 65 453 31T366 -21T259
-39Q197 -39 144 -15T59 53T27 156Q27 191 34 226L195 230V209ZM43 214Q37 180 37 153Q37 74 95 33T239 -9Q321 -9 388 29T470 134Q476 178 476 222Q476 349 424 430T256 511Q227 511 196 505L193 507Q190 512 189 524T187 541L186 547H213Q276 547 359 549T460
554V565Q464 596 464 663V690Q464 699 462 701T452 704Q436 704 115 698L37 696H36L37 565Q38 525 38 443V351Q38 349 54 349Q71 349 119 351Q171 353 199 353Q229 353 256 350Q284 341 300 313T317 251Q317 213 296 185T235 156Q215 156 200 172T185 220V221H43V214Z"
/>
<glyph unicode="6" glyph-name="six" horiz-adv-x="503" d="M512 166Q512 101 478 57T386 -10T262 -33Q209 -33 174 -19T112 27Q62 69 42 150T22 341Q22 373 26 433Q30 493 30 518Q30 541 32 557T42 590V589Q69 650 139 684T292 718Q348 718 395 688T469 610T496
512Q496 490 488 456Q440 449 369 449H336L334 469H316Q316 493 310 513T289 533Q258 533 244 504T229 430Q229 396 234 351Q253 358 281 363T336 369Q383 369 420 346T480 285T509 208L511 184L512 166ZM473 284T436 321T336 359Q264 359 204 325V338Q204 356
202 392Q199 422 199 450Q199 497 215 529T268 562Q319 562 326 479L328 478L380 480Q429 480 460 485Q466 509 466 532Q466 579 444 619T382 684T289 708Q240 708 187 692T95 644T46 571Q40 549 40 518L38 489Q32 419 32 341Q32 182 76 89T242 -4Q307 -4 361 16T449
77T482 180Q482 195 481 203L479 227Q473 284 436 321ZM358 173T339 162T299 150Q277 150 262 162T247 196Q247 220 270 235T317 250Q338 250 350 238T362 204V191Q358 173 339 162ZM352 212T349 219H338Q318 219 298 207T277 175Q277 165 281 162T297 159Q314
159 330 168T352 191V204Q352 212 349 219Z" />
<glyph unicode="7" glyph-name="seven" horiz-adv-x="476" d="M17 610T17 664V717Q164 722 287 722Q395 722 473 713L471 695Q479 695 493 693Q491 663 491 646Q491 613 492 597L493 543Q458 461 419 386T309 187Q238 61 194 -23Q183 -23 149 -25Q119 -28 84 -28Q46
-28 22 -20L28 -5Q12 -3 2 0Q50 102 104 211Q206 424 256 534L231 535Q129 541 81 541L44 540L32 551Q32 558 33 560H24L12 571Q17 610 17 664ZM61 571Q112 571 214 565Q234 563 279 561Q239 470 189 366T127 238Q71 125 16 7Q32 2 64 2Q94 2 123 5Q157 7 168 7Q210
89 289 229Q352 341 391 415T463 565L462 619Q461 634 461 664Q461 689 462 704V705Q384 712 284 712Q162 712 27 707V706Q27 684 26 673Q26 603 22 570H24L61 571Z" />
<glyph unicode="8" glyph-name="eight" horiz-adv-x="490" d="M493 475Q493 455 488 441L489 442Q480 405 466 378T422 325L425 322Q458 294 474 255T490 172Q490 111 464 63T388 -14T266 -42Q189 -42 132 -10T45 76T14 196Q14 240 28 280T73 352Q49 381 36 419T23
498Q23 553 44 602T106 684T200 718Q224 719 263 719Q306 719 334 714T388 693L397 687Q415 675 428 663T464 615Q476 594 481 574T491 523Q491 518 492 517V518Q493 515 493 503V475ZM463 523Q463 586 438 624T383 685Q359 699 333 704T263 709Q224 709 200 708Q149
706 111 676T53 598T33 498Q33 409 87 352Q56 321 40 281T24 196Q24 101 82 45T246 -12Q350 -12 405 45T460 191Q460 238 442 278T386 345V346Q463 409 463 495V523ZM221 437T208 455T194 496L195 504V506L196 507Q201 521 217 526T246 531Q268 531 279 518T291
486Q291 467 279 452T246 437Q221 437 208 455ZM224 468Q229 447 245 447Q261 447 271 458T281 486Q281 495 278 497T265 500Q251 500 244 498T231 489T234 491L230 488L224 468ZM261 277T281 262T302 224V219L301 213Q296 193 286 183T243 173Q215 173 201 185T186
218Q186 241 200 259T237 277Q261 277 281 262ZM291 215T291 216T292 219Q292 234 282 240T256 247Q248 247 245 246L246 247Q232 242 224 228T216 198Q216 187 221 185T232 182T241 182Q255 182 267 185H266Q276 188 278 190T285 200V199L288 205Q290 207 290
209T291 212V214Q291 215 291 216Z" />
<glyph unicode="9" glyph-name="nine" horiz-adv-x="513" d="M506 288T508 260Q510 230 510 218Q510 110 451 25Q426 -5 384 -19T289 -34Q217 -34 155 -6T55 72T18 183V197Q18 212 20 219V232Q39 232 81 234Q111 237 143 237Q170 237 195 233Q198 222 201 218T215
213Q223 187 245 187Q287 187 293 260Q273 256 249 256Q185 256 132 289T49 379T18 503Q18 615 85 665T256 719Q311 719 344 715T409 694T468 638V639Q490 605 496 562T504 451L506 303Q506 288 508 260ZM473 537T467 579T440 653Q417 688 382 697T286 708L256
709Q157 705 93 657T28 503Q28 438 55 389T127 313T229 286Q266 286 302 301L303 300L304 279Q304 236 291 207T244 177Q223 177 208 190T187 224Q165 227 140 227Q106 227 73 224Q43 222 30 222V217Q27 199 27 182Q27 125 60 83T148 18T269 -4Q319 -4 360 11T427
57Q479 131 479 234L478 279Q476 307 476 323L474 471Q473 537 467 579ZM223 434T208 466V467Q201 482 201 504Q201 524 221 536T262 549Q288 549 305 534T323 495Q323 484 322 482Q312 459 300 447T263 434Q223 434 208 466ZM313 509T305 514T282 519Q264 519
248 510T231 484Q231 461 236 453T263 444Q282 444 291 452T313 486V495Q313 509 305 514Z" />
<glyph unicode=":" glyph-name="colon" horiz-adv-x="205" d="M50 327H33Q29 352 29 388L30 433Q31 443 31 459Q59 471 109 471Q147 471 173 459L175 445Q178 444 184 443T192 438T195 422Q195 403 192 365T187 306L53 307L50 327ZM160 338Q160 352 163 401T166
455Q153 461 109 461Q58 461 41 453Q41 441 40 432L39 383Q39 348 42 337L160 336V338ZM50 -9H33Q29 16 29 52L30 97Q31 107 31 123Q59 135 109 135Q148 135 173 123L175 109Q178 108 184 107T192 102T195 86Q195 67 192 29T187 -30L53 -29L50 -9ZM160 2Q160 16
163 65T166 119Q153 125 109 125Q58 125 41 117Q41 105 40 96L39 47Q39 12 42 1L45 0H160V2Z" />
<glyph unicode=";" glyph-name="semicolon" horiz-adv-x="205" d="M50 327H33Q29 352 29 388L30 433Q31 443 31 459Q59 471 109 471Q147 471 173 459L175 445Q178 444 184 443T192 438T195 422Q195 416 190 348Q187 320 187 306L53 307L50 327ZM160 336V338Q160
352 163 401T166 455Q153 461 109 461Q58 461 41 453Q41 441 40 432L39 383Q39 348 42 337H158L160 336ZM167 -135Q157 -130 150 -129T128 -128H86Q81 -123 81 -113V-108H66Q61 -103 61 -92Q61 -80 67 -57T75 -28Q73 -27 69 -27H66Q54 -27 50 -17V-7H42Q30 -7 30
10Q30 52 35 127Q57 135 83 135Q113 135 155 130L177 128L176 109L197 108L189 -19Q189 -26 187 -32T185 -43L177 -85L167 -135ZM156 -16T157 -11T159 1L160 4H162V119H165Q103 125 84 125Q60 125 45 120L44 119Q40 53 40 8V4Q41 3 43 3L90 -1Q85 -27 77 -59Q69
-93 69 -96Q69 -99 92 -99Q107 -99 116 -98Q131 -98 139 -100L147 -61L155 -21Q156 -16 157 -11Z" />
<glyph unicode="&lt;" glyph-name="less" horiz-adv-x="363" d="M343 40Q319 16 283 -14L263 6Q261 6 261 8L189 73Q122 132 80 173T0 270Q44 327 134 415L194 476L199 481Q216 500 257 541Q273 532 288 517T307 497L320 484Q334 470 348 461Q346 459 346 458Q357
447 368 441Q343 410 311 377T272 335Q225 286 193 249L220 222Q254 188 290 153T358 93L356 91Q361 87 366 83T378 73L359 56L343 40ZM302 127T241 188Q187 242 158 267Q184 300 254 372Q307 425 334 459Q323 466 299 492Q296 495 283 508T258 528Q192 458 153
419L103 368Q42 307 13 270Q45 227 80 192T171 107Q243 42 264 20L265 19Q285 36 303 54L332 83L343 93Q302 127 241 188Z" />
<glyph unicode="=" glyph-name="equal" horiz-adv-x="466" d="M33 409L34 473H433V453H453L452 403Q451 389 451 365Q451 335 456 290L61 296L51 306V316H41L31 326L33 409ZM426 320Q422 345 422 378L423 463H44L43 427L41 326Q44 326 58 326T108 325Q313 320
391 320H426ZM33 202L34 266H433V246H453L452 196Q451 182 451 158Q451 128 456 83L61 89L51 99V109H41L31 119L33 202ZM426 113Q422 138 422 171L423 256H44L43 220L41 119Q44 119 58 119T108 118Q313 113 391 113H426Z" />
<glyph unicode="&gt;" glyph-name="greater" horiz-adv-x="363" d="M47 129T109 191Q163 243 191 268Q180 281 126 337Q120 343 83 382T15 461Q32 471 58 499Q60 501 74 515T106 540L126 520L184 461L189 456Q210 433 227 417T249 395L252 392Q266 375 285 355T316
322Q363 275 383 250Q347 203 309 165T213 75Q149 17 118 -15Q56 39 52 45T42 57L24 76L5 94Q47 129 109 191ZM47 67Q74 40 98 19L99 20Q128 50 192 108Q252 163 285 195T350 270Q321 307 260 368L210 419Q171 458 105 528Q91 520 64 491Q37 464 29 459Q44 439
73 409T114 366Q188 287 205 267Q176 242 122 188Q61 127 20 93L31 83L47 67Z" />
<glyph unicode="?" glyph-name="question" horiz-adv-x="451" d="M142 289T158 327T208 410Q212 415 228 437T252 476T261 507Q261 517 251 521T231 526Q219 526 212 520T195 499Q178 473 159 466Q133 464 119 464Q90 464 26 470Q26 481 27 488Q22 489 17 489T6
490Q9 546 36 597T109 682T213 717H212Q219 718 233 718Q291 718 343 689T428 610T461 508Q461 458 439 420T374 336Q352 311 351 310Q330 278 315 240T300 171Q300 163 303 151Q272 147 238 147H162Q154 155 152 167H142Q135 174 134 180T132 199L134 239Q142
289 158 327ZM142 187Q142 181 146 177H147Q156 178 174 178L230 177H247Q262 177 270 179V180Q269 182 269 188Q269 201 274 214Q281 252 292 280T323 336Q332 348 354 372Q392 414 411 448T431 532Q431 581 405 621T333 685T234 708Q173 708 124 680T47 603T16
499V498Q28 498 50 496Q84 494 104 494Q114 494 138 496Q147 499 152 505T166 525Q177 542 185 549T208 557Q237 557 253 541T270 508Q270 487 256 462T215 403Q192 373 183 356Q166 331 159 305T144 237L142 199V187ZM151 -9H134Q130 16 130 52L131 97Q132 107
132 123Q160 135 210 135Q249 135 274 123L276 109Q279 108 285 107T293 102T296 86Q296 67 293 29T288 -30L154 -29L151 -9ZM261 2Q261 16 264 65T267 119Q254 125 210 125Q159 125 142 117Q142 105 141 96L140 47Q140 12 143 1L146 0H261V2Z" />
<glyph unicode="@" glyph-name="at" horiz-adv-x="564" d="M563 233T551 194T498 137L509 112Q511 114 513 114T518 117L563 19Q499 -22 441 -37T313 -53Q243 -53 193 -38T110 17Q56 59 40 137T23 321V376V406Q23 464 34 510T75 596Q102 629 138 644T228 666H227Q242
669 280 669Q343 669 390 657T477 609Q497 589 497 589Q538 550 550 493T563 360V306Q563 233 551 194ZM465 154T490 174T524 232T533 326V380Q533 463 517 522T445 620T280 659Q216 659 165 645T83 590Q54 552 44 507T33 406V376Q33 290 40 195Q42 165 57 122T90
53Q123 9 172 -7T293 -23Q360 -23 417 -9T531 42L493 124Q446 101 388 85T292 69Q223 69 187 96T139 177T126 327V349Q126 448 153 511T270 574Q292 574 321 569T369 555H368Q433 517 439 408V380Q439 371 440 360T440 339Q440 249 424 237Q403 241 403 341V371L404
408Q405 417 405 432Q405 451 395 462L392 464Q369 479 333 479Q275 479 237 453T182 387T164 303Q164 242 191 201T278 160Q326 160 359 187Q358 189 369 174L377 167Q399 154 418 154Q465 154 490 174ZM420 474T412 493T384 526H385Q368 534 338 539T290 544Q211
544 184 488T156 342Q163 394 198 433V432Q216 455 254 472T333 489Q372 489 397 472H400Q402 470 407 462T417 452H420Q421 450 422 449T424 446Q420 474 412 493ZM316 383T323 382Q323 325 316 290T277 254Q265 254 257 263T249 286V289Q249 383 307 383Q316
383 323 382ZM298 264T303 279T309 324Q309 334 311 350Q279 339 279 273V264Q298 264 303 279ZM472 124T438 124Q400 124 377 153Q345 130 298 130Q241 130 205 169L200 174Q198 176 193 180T185 189Q163 213 157 252Q160 198 169 152T198 96V97Q227 79 292 79L309
80H320Q354 82 405 99T497 136Q472 124 438 124Z" />
<glyph unicode="A" glyph-name="A" horiz-adv-x="434" d="M429 -35T405 -35Q359 -35 315 -25Q311 -13 308 -10T301 -7T295 -5Q287 20 273 76Q265 109 260 124T248 139Q240 139 235 139T220 138Q213 119 206 77Q198 38 192 15T175 -29Q172 -29 167 -30T153 -31Q142
-30 107 -30L64 -29L11 -28L14 -8H-9L5 66Q33 228 66 385T149 709Q167 711 170 711Q174 711 196 710T288 716Q292 699 293 694L308 696Q317 645 371 420Q391 338 392 333L469 -28Q429 -35 405 -35ZM280 705Q236 701 193 701H172Q160 701 157 700Q109 539 78 387T15
63Q12 44 9 28T4 2L6 1H30L109 0Q119 -1 133 -1Q144 -1 146 0L149 1Q158 16 163 37T174 93Q184 149 193 168Q204 168 211 168T222 169H235L255 167Q263 149 271 117T282 77Q292 30 302 4H303Q342 -5 385 -5Q410 -5 437 0V1L362 351L280 705ZM186 286Q198 375 197
367Q205 434 210 464T222 495Q229 495 237 448T260 286L210 285L186 286ZM235 410L219 296H248L235 410Z" />
<glyph unicode="B" glyph-name="B" horiz-adv-x="477" d="M460 272T478 239T496 161Q496 47 426 6T243 -35Q187 -35 146 -31H147L85 -28H81H74Q53 -28 53 -8Q37 -4 34 -3Q30 102 30 235Q30 345 31 399L32 565V701Q114 725 196 725Q269 725 331 700T431 621T469
488Q469 414 419 327V325Q419 322 423 318V317Q460 272 478 239ZM387 348T390 352Q439 434 439 508Q439 617 370 666T196 715Q122 715 42 693L41 692Q42 645 42 553Q42 446 41 393L40 233Q40 107 44 4Q52 2 54 2H66Q86 2 102 1T130 -1Q190 -5 223 -5Q331 -5 398
34T466 181Q466 224 449 255T395 331Q387 339 387 344Q387 348 390 352ZM204 417T184 420Q178 440 178 471L179 506Q180 515 180 531V544Q193 551 217 551Q253 551 283 538T313 491Q313 470 300 450Q290 431 272 424T227 417Q204 417 184 420ZM303 503T297 508T278
517H279Q259 521 237 521Q219 521 211 518V508L210 474Q208 446 208 433L209 427H227Q276 427 291 455Q303 474 303 491Q303 503 297 508ZM188 140L186 141Q172 160 172 201Q172 248 183 281L207 279Q239 278 260 274T296 252T311 201Q311 178 301 165Q288 149
269 144T224 139L188 140ZM301 214T295 236V235L294 236Q274 248 236 248Q227 248 211 250Q202 205 202 181Q202 177 202 167T206 153T225 149Q249 149 265 153T293 171Q301 182 301 201Q301 214 295 236Z" />
<glyph unicode="C" glyph-name="C" horiz-adv-x="488" d="M210 277Q210 226 216 196T242 162H241L250 161Q275 161 287 171T302 197T309 242Q311 272 316 297Q337 294 357 294L404 295Q442 295 465 289Q467 284 467 281T470 272L485 269Q499 230 499 189Q499 119
467 66T376 -15T244 -44Q192 -44 144 -24T64 33T26 121Q21 221 21 336L22 489Q23 504 23 536L22 547Q22 581 35 608V607Q58 671 103 703T227 736Q296 736 360 699T463 602T502 475Q502 436 486 392Q457 385 423 385Q379 385 324 396L322 412Q308 414 305 419T302
438T300 460Q299 468 299 487T290 517T263 528Q252 528 239 524T220 515Q218 513 214 465T210 328V277ZM274 558T287 545T304 512T310 461Q310 455 311 444T313 425Q357 415 403 415Q431 415 459 421Q472 456 472 495Q472 558 438 611T348 695T227 726Q159 726
113 698T44 604Q32 575 32 549Q32 540 33 537Q33 506 32 491L31 336Q31 222 36 122Q42 54 97 20T224 -14Q294 -14 350 13T437 91T469 209Q469 247 458 280Q439 285 406 285L353 284Q342 284 324 286Q320 272 318 241Q316 212 312 194T293 163T249 151Q206 151 193
195T179 312V348Q179 442 184 490T193 542Q201 550 217 554T247 558Q274 558 287 545Z" />
<glyph unicode="D" glyph-name="D" horiz-adv-x="482" d="M464 537T483 452L482 453Q490 429 492 386L489 329Q487 244 478 200Q457 139 424 85T345 -25Q249 -28 140 -28Q114 -29 67 -29L64 -8L47 -9Q29 122 29 326Q29 411 30 454L31 590Q31 655 30 687Q30 689
31 690Q33 695 38 700Q64 707 90 709T153 712Q184 712 200 711L246 710Q272 710 285 711Q325 699 364 668T422 602H421Q464 537 483 452ZM255 700Q223 700 206 701L156 702Q87 702 43 691L40 687Q41 655 41 591L40 455Q39 411 39 322Q39 222 42 146T56 1L57 2Q232
2 320 5Q366 62 397 112T447 217L448 219Q458 272 460 362L462 407Q459 461 441 516T393 617Q375 647 346 670T284 701L255 700ZM252 216Q235 213 217 213Q194 213 184 222Q182 268 182 293L183 360Q184 381 184 420Q184 443 182 481V485H185Q203 488 223 488Q283
488 306 445T329 343Q329 298 301 254Q291 239 278 228T254 216H252ZM319 298T319 343Q319 365 311 396T289 451L279 456Q255 458 243 458Q234 458 212 456Q214 418 214 393L213 316Q211 264 211 239L212 223H217Q228 223 238 224T253 226L255 225Q258 225 266
231H265Q280 240 293 260V259Q319 298 319 343Z" />
<glyph unicode="E" glyph-name="E" horiz-adv-x="481" d="M495 85T495 69Q495 21 483 -27Q439 -27 351 -29L221 -30Q132 -30 55 -24V-5L35 -4Q35 48 34 117T32 222Q29 330 29 439Q29 565 37 699Q115 703 217 705T387 708Q466 708 470 696Q470 689 473 686T483
680T490 676V677Q494 654 494 624Q494 608 492 576Q490 542 490 524Q439 512 361 512H325L286 513Q255 513 224 510Q224 495 222 471L221 438V429L239 428L278 429Q283 429 328 426Q329 423 330 417T334 408T348 406Q353 380 353 345Q353 314 352 298L351 250Q321
242 274 242Q237 242 229 240Q226 225 226 194Q226 164 227 151Q347 145 417 145Q441 145 473 147V135L474 126Q486 126 493 127V115Q495 85 495 69ZM448 135T420 135Q395 135 362 136T311 138Q257 141 201 141L200 142Q196 167 196 214Q196 246 200 267Q204 270
218 271T249 272Q301 272 321 278L322 365Q322 400 319 417V418Q292 418 278 419Q223 419 196 421L195 422Q191 437 191 460Q191 474 193 500L194 539L198 540Q216 542 237 542T265 542H344Q417 542 460 552V553L461 600Q463 632 463 648Q463 671 460 695Q460 698
387 698Q231 698 46 689Q40 592 40 449Q40 375 42 229Q45 118 45 5Q104 0 190 0Q233 0 323 2L455 3Q465 42 465 88Q465 104 463 134V136Q448 135 420 135Z" />
<glyph unicode="F" glyph-name="F" horiz-adv-x="494" d="M379 418Q386 397 386 372Q386 348 385 335L384 290Q384 275 385 264T386 243Q386 233 358 229T278 220Q271 219 265 219T253 218Q246 117 246 12V-28Q202 -33 129 -33Q65 -33 51 -23V-10Q35 -7 31 -3Q31
201 32 296L33 689Q67 696 149 701T309 707Q428 707 500 690V674Q504 672 520 670Q520 645 521 629L522 573Q522 550 519 505L427 500Q298 493 250 489Q244 467 244 454L243 443Q243 433 258 433Q320 433 359 438Q362 431 364 416L379 418ZM354 285T354 300L355
348Q356 363 356 390Q356 418 353 427Q336 424 306 424T266 424Q245 424 235 427T219 440T214 474Q214 499 223 518Q267 522 394 529Q440 530 490 534Q491 543 491 566V607L490 682Q430 697 309 697Q231 697 154 692T43 680V537L42 306Q41 243 41 114L42 1Q49 -3
109 -3Q180 -3 216 1V32Q218 174 224 246H225Q245 250 289 254Q333 258 353 261Q356 261 356 263Q354 285 354 300Z" />
<glyph unicode="G" glyph-name="G" horiz-adv-x="481" d="M236 357T236 355L238 357Q256 368 319 368Q357 368 409 364L448 362L460 361Q460 356 462 342L480 341Q481 332 485 287T489 205Q489 140 481 103V104Q472 21 406 -12T245 -46Q179 -46 130 -13T54 76T27
200Q17 284 17 365V419Q17 503 30 564T93 669T239 712Q305 712 360 685T449 608T482 493Q482 489 482 473T475 449T450 441H412Q405 441 387 441T335 445Q334 448 333 453T329 460T315 465Q307 490 302 501T285 520T251 528Q249 528 239 528T224 521T213 496Q194
433 194 312V269Q194 228 198 198T214 146L226 143H225Q229 142 238 142Q264 142 283 151H282Q296 157 302 167T313 208H294Q269 208 255 213Q253 224 251 227T244 231T235 233Q231 263 231 296Q231 343 230 357H233Q236 357 236 355ZM240 345Q242 332 242 320T242
305V277V264Q242 249 244 240Q246 238 255 238L304 239H311Q317 239 319 236T322 221Q322 166 299 149T236 132Q193 132 178 176T163 285L164 332Q164 405 172 468T194 546Q202 554 209 556T230 558L255 557Q281 557 297 531T323 474Q354 470 375 470Q447 470 449
475L450 481Q452 503 452 513Q452 603 392 652T239 702Q145 702 97 662Q55 632 41 568T26 424L27 357Q27 246 37 171T90 40T225 -16Q314 -16 378 15T451 125Q459 162 459 225Q459 271 451 351L448 352L415 354Q361 358 317 358Q259 358 243 348L240 346V345Z" />
<glyph unicode="H" glyph-name="H" horiz-adv-x="499" d="M461 -30T400 -30Q358 -30 339 -31L336 -10Q324 -10 319 -11Q312 42 310 142Q308 215 305 250Q283 252 278 252Q249 252 225 247Q224 232 224 198L225 138Q226 118 226 79Q226 16 219 -19Q201 -30 170
-30Q158 -30 134 -28Q110 -26 102 -26Q84 -26 65 -36L63 -8Q54 -10 45 -16Q39 55 34 244T29 591Q29 676 30 708L45 709Q59 706 72 706Q82 706 106 708Q134 710 150 710Q162 710 170 706T181 688Q187 687 191 686T199 684Q203 649 205 582Q209 487 218 439H229Q260
439 285 443H292Q298 515 298 585Q298 663 295 703Q343 717 410 717H424Q440 717 452 715V696Q464 696 472 695L499 -23Q461 -30 400 -30ZM431 707T410 707Q345 707 305 695Q308 635 308 584Q308 511 301 434H300Q265 429 231 429Q207 429 192 433H191Q182 480
178 575Q176 645 170 696Q157 700 134 700L107 699L74 697L65 696Q54 696 43 699L40 698Q39 666 39 591Q39 432 43 252T54 1Q61 5 76 5Q88 5 112 3Q133 0 152 0Q166 0 174 1T190 7Q195 42 195 93Q195 132 194 152L193 210Q193 242 196 275Q223 282 257 282Q280
282 312 277L313 276Q318 235 320 146Q320 54 328 0H329Q337 1 358 1H394Q440 1 469 6L442 706Q431 707 410 707Z" />
<glyph unicode="I" glyph-name="I" horiz-adv-x="260" d="M232 693H252V679Q252 600 251 540T249 440Q245 278 245 194Q245 85 251 -19Q235 -35 178 -35L133 -34Q118 -33 91 -33Q69 -33 48 -38L49 -14Q32 -16 28 -18Q35 85 35 170Q35 227 34 270T32 342Q28 456
28 515Q28 613 38 716Q52 718 56 718Q84 718 114 716Q137 713 174 713H232V693ZM151 703T97 706Q67 708 51 708H47V706Q38 625 38 516Q38 458 39 415T41 343Q45 225 45 164Q45 80 39 -4Q53 -2 62 -2Q74 -2 106 -4Q142 -6 162 -6Q210 -6 221 5Q215 113 215 223Q215
305 219 463Q220 503 221 562T222 699V703H175Q151 703 97 706Z" />
<glyph unicode="J" glyph-name="J" horiz-adv-x="463" d="M435 702H455V642Q455 599 457 509Q460 440 460 366Q460 333 459 317L458 268Q456 193 449 144T416 51T336 -13H337Q291 -38 220 -38Q98 -38 46 47T-7 258L-6 296Q9 301 28 302T67 303Q129 303 169 294V277L189
274V260Q189 255 191 230T202 190T229 175Q248 175 257 192T270 236Q266 353 266 519Q265 531 265 556Q265 580 267 628Q269 678 269 703V720L435 722V702ZM279 703Q276 610 276 519Q276 359 280 236Q277 206 265 186T229 165Q191 165 177 198T159 280V286Q112
293 67 293Q31 293 4 288Q3 277 3 257Q3 166 31 93T126 0Q166 -8 200 -8Q264 -8 313 16Q364 35 388 77T419 167T428 288Q428 316 429 329Q430 346 430 358T429 380Q429 453 426 523Q424 617 424 662Q424 695 425 712L279 710V703Z" />
<glyph unicode="K" glyph-name="K" horiz-adv-x="459" d="M465 -31T428 -31L384 -30Q354 -28 339 -28Q333 -22 323 -8H319Q268 46 215 182Q215 145 217 73Q219 5 219 -23Q189 -32 140 -32Q94 -32 53 -23Q51 -10 49 -8T42 -5T33 -3Q29 84 29 200Q29 323 32 449Q33
490 34 569T35 709H59L127 708Q148 707 189 707V687H209Q210 648 210 557V516Q221 535 239 571Q244 579 266 621T321 708L340 707L406 708Q441 708 475 703L469 686L495 683Q479 631 455 583T391 467Q343 386 323 340L497 -23Q465 -31 428 -31ZM310 401T336 446T367
500Q405 565 427 608T462 695Q438 698 413 698L352 697Q334 697 326 698Q301 661 261 587Q237 542 222 516T186 463L182 458L181 457Q180 481 180 531V623Q180 673 179 697Q142 697 123 698L64 699Q52 699 48 697T44 689Q44 566 41 444Q39 282 39 201Q39 92 43
5Q76 -2 120 -2Q165 -2 189 5Q189 34 187 102Q185 178 185 214Q185 247 186 263Q203 232 231 169Q258 110 279 70T324 2L347 1Q385 -1 406 -1Q439 -1 463 4L292 359Q310 401 336 446Z" />
<glyph unicode="L" glyph-name="L" horiz-adv-x="461" d="M489 17Q489 -8 486 -18T476 -29T450 -30L433 -29Q416 -29 402 -30Q338 -32 224 -32Q114 -32 46 -31V-11H26V17Q33 158 33 349Q33 563 29 710Q42 715 65 718T113 722Q173 722 209 706L208 693Q213 691
218 690T229 686Q227 614 227 567Q227 507 229 387L230 210V170Q366 162 428 162Q447 162 469 164V142L489 144Q489 123 487 103L486 82L487 72V71L489 17ZM456 109T458 127L459 152Q457 151 444 151Q425 151 349 155Q331 156 292 158T230 160Q214 160 200 158V159L201
237Q201 292 199 408Q197 522 197 580Q197 622 199 700Q171 712 113 712Q90 712 70 710T39 703Q43 504 43 349Q43 158 36 17V-1Q65 -1 78 -2L215 -3Q295 -3 388 0Q400 1 416 1L438 0Q451 0 455 6T459 37L457 91L456 101Q456 109 458 127Z" />
<glyph unicode="M" glyph-name="M" horiz-adv-x="501" d="M458 -28T422 -28L374 -29Q360 -30 334 -30Q333 -23 333 -9L314 -10Q311 44 311 169L309 292Q306 284 298 260T281 225T266 213Q258 213 246 233Q231 234 210 284Q209 260 209 214Q209 126 219 -26Q180
-32 136 -32L104 -33Q80 -33 67 -29T53 -10H48Q40 -10 34 2Q32 8 32 49T31 165Q31 436 34 693Q61 702 95 702Q114 702 124 701L156 700Q174 700 185 701L199 680L205 681Q224 659 247 591L256 566Q263 599 278 641T308 704Q322 702 332 702Q350 702 398 704Q437
707 470 707L469 687H490Q489 662 489 601L490 496Q491 461 491 390V353Q491 316 489 297V298L486 -32Q458 -28 422 -28ZM461 338T461 377V416Q461 484 460 518L459 621Q459 672 460 697Q429 697 390 694L328 692Q314 692 312 693Q303 681 292 650T272 588Q266
568 261 552T253 537Q247 537 239 555T215 614Q206 639 197 661T181 691H180Q169 690 145 690L109 691H93Q60 691 44 686Q41 430 41 165Q41 59 42 30T48 0L123 -1Q161 -1 188 3Q179 140 179 234Q179 309 185 382L188 372L196 351Q212 305 225 274T247 243Q251 243
261 267T281 319Q303 377 310 389Q319 308 321 135Q321 112 322 70T324 0L387 1H423Q434 1 456 -1L459 318Q461 338 461 377Z" />
<glyph unicode="N" glyph-name="N" horiz-adv-x="498" d="M337 -10H326L282 86Q261 129 242 172T210 249V139Q210 17 212 -28Q191 -35 158 -35Q140 -35 127 -34T104 -32Q79 -29 52 -29V-9H32V71Q32 134 30 254L29 432Q29 589 39 708Q63 714 93 714Q114 714 149
709T186 695Q189 684 197 681T206 675Q223 633 245 585T309 449V470Q309 497 307 543L306 615Q305 628 307 656L308 691V713Q343 720 390 720Q426 720 466 712V695L486 692V362L487 191L486 134V40L487 0L486 -28Q483 -29 472 -32T444 -35Q420 -35 393 -32Q361
-30 346 -30L337 -10ZM457 20L456 100L457 211V297Q457 354 456 382V704Q428 710 390 710Q353 710 318 704Q316 638 316 615L317 546Q319 498 319 470Q319 452 317 435T312 415Q310 415 277 481T228 582Q220 601 212 617T200 641L189 664L176 694Q176 698 144 701T93
704Q65 704 48 700Q39 591 39 432L40 253Q42 135 42 71V1Q65 1 89 -2Q97 -3 109 -4T138 -5Q163 -5 182 0Q181 11 181 38V83Q181 173 183 255T188 337Q191 337 201 307L211 277Q230 224 289 95L332 0Q354 0 378 -3Q410 -5 424 -5Q442 -5 457 0V20Z" />
<glyph unicode="O" glyph-name="O" horiz-adv-x="483" d="M479 548T482 519T486 447V385Q486 370 485 312T480 205L477 172Q469 80 437 32Q409 -7 355 -25T243 -44Q175 -44 126 -23T51 53V52Q35 79 30 114T24 198Q24 221 23 232Q18 317 18 390V427Q18 516 34 583T102
680Q165 711 240 711Q292 711 341 694T419 642Q452 609 466 575V576Q479 548 482 519ZM194 700T151 689T84 653Q49 614 39 558T28 427V392Q28 352 30 303T33 233L36 168Q38 65 85 26T223 -14Q278 -14 330 4T409 58Q440 106 447 193L450 226Q455 290 455 378V479Q455
516 452 542T437 592Q418 646 363 673T240 700Q194 700 151 689ZM330 300V266Q330 215 327 194T308 157Q296 142 276 134T235 126Q197 126 178 145T152 193T142 266Q140 298 138 311Q136 345 136 362Q136 563 247 563Q298 563 313 515T328 416L330 348V300ZM318
420Q317 428 316 459T303 512T268 533Q237 533 211 509T177 452V453Q167 409 167 342Q167 309 168 292V293Q172 265 174 237Q175 231 177 204T187 153L186 154L189 148Q209 136 235 136Q276 136 301 164L300 163Q314 180 317 196T320 261V300V348L318 416V420Z"
/>
<glyph unicode="P" glyph-name="P" horiz-adv-x="497" d="M514 406T479 351T387 263T266 230Q249 230 241 231V189Q241 93 244 -19Q234 -19 216 -22Q209 -23 186 -25T141 -28Q96 -28 54 -23Q54 -9 50 -6T34 -3Q30 94 30 339V460Q30 628 27 703Q103 724 183 724Q266
724 339 697T461 612T514 471V470Q514 406 479 351ZM478 607T391 660T182 714Q111 714 37 695Q41 583 41 340V164Q41 80 44 6Q71 2 121 2Q187 2 211 10L214 12Q211 109 211 196V235Q211 254 210 263Q228 260 246 260Q302 260 357 289T448 368T484 476V491Q478 607
391 660ZM340 431T307 419T217 406L195 405H192Q184 430 184 487Q184 534 183 555Q189 561 225 561Q275 561 309 533Q324 524 332 509T340 475Q340 431 307 419ZM226 531T213 527Q214 512 214 484V455V438Q214 423 216 416H221Q269 416 299 427T330 476Q330 505
304 518T245 531Q226 531 213 527Z" />
<glyph unicode="Q" glyph-name="Q" horiz-adv-x="495" d="M456 636T477 549T498 348Q498 323 496 285Q493 254 493 211Q493 155 480 115L481 117Q473 87 460 60Q477 43 477 28Q477 5 451 -16T397 -38Q391 -38 380 -30T359 -11Q341 -22 315 -29T262 -37Q201 -37
164 -17T83 47Q45 84 33 132T20 252V391Q20 461 24 517T42 621Q56 666 115 695T253 724Q314 724 347 715T408 673Q456 636 477 549ZM468 304T468 368Q468 511 439 602Q417 654 393 677T338 707T253 714Q178 714 122 687T52 618Q38 569 34 513T30 381V235Q30 134
80 64T242 -7Q271 -7 300 2T340 24Q347 14 359 3T377 -8Q399 -8 423 11T447 48Q447 55 439 65T428 78Q452 135 456 165Q461 186 463 231L465 264Q468 304 468 368ZM253 207T244 202T231 193T226 179Q226 166 237 151T269 116Q267 115 260 115H251Q214 115 193 129T162
177T152 271Q152 361 153 397T160 488Q163 524 169 539T192 560T250 565Q294 565 313 545T336 484Q340 440 342 399T344 293Q344 223 334 182Q327 189 317 207Q310 220 306 226T294 232Q284 232 274 224T259 211Q253 207 244 202ZM328 221T329 232T332 248V246Q333
257 333 286V361Q333 424 331 463T314 525Q297 535 270 535Q234 535 219 531T199 513T190 467Q183 387 183 323V297L182 245Q182 184 191 154L190 155Q195 137 210 131T247 125Q216 156 216 179Q216 192 221 197T239 210Q255 219 262 226Q269 232 277 237T294 242Q301
242 305 239T315 228T328 217Q328 221 329 232Z" />
<glyph unicode="R" glyph-name="R" horiz-adv-x="518" d="M93 717T135 722T223 727Q304 727 362 708T461 643Q533 554 533 478Q533 435 514 391T459 314T374 277Q392 245 437 179Q477 121 502 78T545 -14L551 -27H537Q521 -27 483 -29Q439 -31 416 -31Q395 -31
363 -29Q361 -26 359 -21T354 -12T343 -9Q291 114 236 199V173Q236 145 241 55Q244 13 244 -15Q223 -25 198 -28T137 -31L93 -30H35Q34 -10 34 13L33 104V185Q33 341 30 505T21 707Q93 717 135 722ZM343 306Q394 310 430 339T484 412T502 498Q502 551 476 600T402
680T296 713Q263 717 222 717Q177 717 138 713T33 699Q38 670 41 521T44 203V100Q44 52 43 33V2Q46 1 50 1Q63 1 71 0L111 -1Q148 -1 173 1T214 11Q206 110 206 192Q206 230 209 255L211 252Q249 206 286 136T350 1H351Q385 -1 403 -1Q425 -1 465 1Q501 3 516 3Q498
51 471 96T405 199Q395 215 374 247T338 305L343 306ZM284 575T306 555T328 499Q328 463 308 448T241 433Q210 433 185 436H184Q181 453 181 506L179 559Q215 575 250 575Q284 575 306 555ZM242 545T209 532Q211 506 211 486L210 457L211 443H241Q264 443 285 446H284Q301
450 310 464T319 499Q319 545 270 545Q242 545 209 532Z" />
<glyph unicode="S" glyph-name="S" horiz-adv-x="485" d="M440 437T402 437Q355 437 320 447Q321 450 321 462Q307 464 300 467Q301 470 301 480Q301 501 291 508T263 515Q243 515 229 503T215 468Q215 452 222 448T239 442T253 440Q315 431 370 393T459 300T493
189Q493 122 463 71T384 -7T276 -35Q210 -35 146 -6T42 75T1 188L2 201V215Q29 219 60 219L118 218Q138 217 175 217Q175 206 178 197H195Q195 172 206 163T239 153Q261 153 276 165T291 199Q291 230 268 242T221 258T190 264L175 267Q145 273 125 286T82 323Q12
390 12 482Q12 544 43 596T127 678T246 709Q313 709 370 684T463 612T498 501Q498 476 492 444H484Q440 437 402 437ZM468 502T468 521Q468 610 405 654T246 699Q183 699 132 670T52 591T22 482Q22 447 37 407T83 335T157 297Q166 295 209 287T276 256T301 199Q301
171 283 157T239 143Q210 143 189 159T165 207Q134 207 118 208L64 209Q36 209 12 206V189Q12 130 48 86T140 19T257 -5Q312 -5 359 19T434 92T463 208Q463 263 434 311T357 392T252 430Q185 437 185 489Q185 516 202 530T243 545Q271 545 292 529T313 487Q313
478 312 475Q345 466 381 466Q412 466 462 474H463Q468 502 468 521Z" />
<glyph unicode="T" glyph-name="T" d="M464 642T464 616Q464 570 456 508Q424 513 410 513Q383 513 336 510H331Q330 501 330 457Q330 362 337 -23Q314 -27 274 -27H245Q189 -27 158 -32Q155 -27 153 -10L138 -12Q133 -3 133 26L134 179Q134 322 125 511Q117 512
100 512Q94 512 79 512T51 513T27 518Q26 520 26 524T21 531T7 538Q4 545 2 574T-1 637Q-1 691 0 714Q63 714 95 715L191 716Q336 716 433 705L442 696V686L453 685L462 676Q464 642 464 616ZM10 704L11 702Q9 689 9 664Q9 555 15 545Q20 543 46 543Q81 543 101
542T135 533L136 532Q144 350 144 172Q144 95 142 39V9L143 -1Q161 2 182 2H224Q283 2 307 6V8Q300 392 300 477V513Q300 533 302 537L303 540H306Q358 543 388 543Q412 543 428 540Q434 584 434 636Q434 657 432 695Q333 705 191 705L10 704Z" />
<glyph unicode="U" glyph-name="U" horiz-adv-x="505" d="M504 542T504 456Q504 283 487 130Q477 52 421 3T282 -46Q219 -46 161 -23T66 45T27 147Q27 219 29 363Q32 474 32 588Q32 659 31 690Q56 690 69 691L111 692Q158 692 192 682L191 667Q194 666 201 665T212
662Q208 587 208 484Q208 340 221 164V166Q223 155 230 152T250 148Q269 148 284 159T304 190V188Q309 302 309 463Q311 609 313 681Q367 689 416 689Q437 689 451 687T475 677L479 669V664Q490 661 495 657L499 649Q504 542 504 456ZM377 679T323 672Q322 630
321 571T320 479Q318 284 314 188Q309 165 291 152T250 138Q230 138 214 149T191 183Q178 339 178 504Q178 599 182 674V675Q155 682 115 682L73 681Q62 680 41 680H40L41 679L42 585Q42 475 39 364Q37 220 37 147Q38 94 71 57T155 2T262 -16Q346 -16 397 29T457
151Q474 292 474 476Q474 562 469 669Q453 679 414 679Q377 679 323 672Z" />
<glyph unicode="V" glyph-name="V" horiz-adv-x="440" d="M444 499T405 341T307 -29Q300 -29 280 -31Q256 -33 236 -33Q206 -33 185 -31T144 -22Q143 -19 142 -15T136 -8T124 -2Q35 317 6 685Q15 696 41 701T100 706Q147 706 167 701Q169 687 172 684T187 681Q190
664 192 630T194 587Q196 511 201 446T219 307Q230 355 238 403T248 465L257 521V520Q261 542 262 553Q263 561 268 594T280 655T294 705Q330 698 386 698Q427 698 447 694L455 682Q454 681 454 676L467 674L475 662Q444 499 405 341ZM299 693T299 691Q285 636
267 519Q253 429 241 365T211 223Q187 322 178 413T164 610Q160 681 158 692Q146 696 100 696Q27 696 16 682V681Q45 322 133 5Q157 -3 216 -3Q233 -3 252 -1T279 1Q338 214 376 368T445 684Q425 688 381 688Q376 688 350 688T301 693Q299 693 299 691Z" />
<glyph unicode="W" glyph-name="W" horiz-adv-x="465" d="M468 574T445 351Q420 115 409 -23Q394 -27 374 -27H313Q310 -23 301 -7H293Q281 9 273 31T258 87L250 116Q247 104 245 93T239 71Q232 38 226 17T209 -22Q178 -28 155 -28Q135 -28 107 -24L104 -6Q101
-6 87 -4L74 87Q47 279 31 424T13 705Q49 711 88 711Q106 711 136 709L175 708Q175 693 179 690T188 687T195 688Q200 632 200 521V462V426Q200 392 202 375Q212 455 233 476Q242 467 249 452L253 456Q263 449 270 430T285 375L287 445Q291 621 298 702Q333 710
378 710Q416 710 449 707L456 695L455 688L469 687L476 675Q468 574 445 351ZM412 700T378 700Q335 700 307 694V693Q302 635 298 480Q298 462 296 390T289 268Q283 284 262 367Q241 457 234 463Q234 463 232 458L220 408Q214 385 206 354T187 281Q177 320 174
370T170 488V599Q170 659 166 698L144 699Q108 701 88 701Q56 701 23 696V695Q25 561 39 433T83 94Q88 65 96 5H97Q120 2 135 2Q156 2 184 7Q191 18 197 40T208 85Q216 120 222 142T238 173H239Q247 161 254 137T269 87Q278 50 284 32T298 3H364Q370 3 380 5Q388
101 399 217T415 374Q437 588 446 696L445 697Q412 700 378 700Z" />
<glyph unicode="X" glyph-name="X" horiz-adv-x="436" d="M452 624T433 573Q402 487 386 434T361 322Q377 243 418 108Q447 9 457 -30Q430 -27 418 -27Q396 -27 384 -28L337 -29Q320 -29 310 -25T295 -6Q279 -3 270 22T253 88L248 110Q246 119 242 136T233 167Q227
151 222 130T214 100Q194 22 171 -28Q141 -30 118 -30Q86 -30 64 -28T17 -17L20 -4Q14 -2 9 -1T-3 3Q6 36 40 137Q64 206 78 252T103 347Q92 408 74 462T18 614Q13 624 5 646L-15 698Q57 703 99 703H118Q143 703 153 700T163 682Q176 681 186 652T210 567Q214 545
223 515Q238 563 251 611Q268 674 278 705Q325 709 409 709H449V695L447 689H469V675Q452 624 433 573ZM439 700Q333 700 286 696V695Q278 670 263 615Q236 509 217 467Q203 505 161 651Q158 664 151 688Q148 693 137 693H99Q56 693 -1 689L14 650Q52 554 76 485T113
347Q103 299 75 216L61 173L33 88Q18 43 9 9Q26 3 46 2T98 0Q115 0 145 2Q156 24 165 54T182 114Q201 189 220 231L221 230Q240 192 257 112Q264 84 272 55T289 6L290 5Q305 1 334 1L367 2Q378 3 398 3H411Q421 3 424 2L401 85L375 170Q343 266 331 341Q340 400
357 457T404 596Q428 664 439 698L440 700H439Z" />
<glyph unicode="Y" glyph-name="Y" horiz-adv-x="435" d="M455 587T421 509T326 301Q272 188 240 116T182 -31Q172 -29 161 -29L114 -30Q76 -32 57 -32H44Q29 -32 17 -30L23 -12Q19 -12 -3 -10Q34 104 132 347Q123 388 108 427T69 519Q42 584 28 621T3 702Q30
702 55 705Q64 706 77 707T109 708Q157 708 161 683Q169 681 178 677Q192 610 233 507Q242 529 267 605Q271 618 281 648T300 697Q331 705 412 705Q424 705 460 702V689Q459 685 458 684Q474 682 480 682V669Q455 587 421 509ZM434 695T412 695Q341 695 307 688Q292
654 274 596Q262 560 250 525T226 471Q207 512 183 580T149 690Q132 698 102 698Q87 698 76 697T57 695Q36 692 16 692Q25 654 40 615T79 520Q105 459 119 422T142 347V345Q92 221 63 146T11 -1H13Q16 -2 25 -2H37Q54 -2 86 0L131 1H144Q153 1 156 0Q181 74 212
144T296 326Q352 441 388 524T450 692V693Q434 695 412 695Z" />
<glyph unicode="Z" glyph-name="Z" horiz-adv-x="474" d="M448 454T411 400T310 255L247 166Q291 170 362 170H416L437 171Q445 171 450 167T457 150H474Q479 120 479 82Q479 62 477 33T474 -10L472 -33Q348 -26 244 -26Q128 -26 48 -31Q44 -21 42 -10Q31 -10
28 -11Q15 22 15 65L16 94Q17 104 17 123Q17 136 15 160Q47 233 94 304T218 481L240 510Q193 514 137 516T43 518Q41 522 39 528T35 538H23Q13 555 13 596Q13 639 10 660T-9 698Q100 708 200 708Q240 708 324 706Q412 704 460 704L462 684H480Q483 661 483 629Q483
592 482 573V574Q481 554 481 515L480 509Q448 454 411 400ZM452 588Q454 626 454 645Q454 670 451 694Q406 694 322 696L198 697Q151 697 102 696T13 690L15 686V685Q21 665 21 626V604Q21 562 29 548Q72 548 150 544T270 535L222 468Q151 370 104 299T25 159Q26
148 26 126L25 67Q25 26 34 -1Q141 4 224 4Q338 4 443 -2V0Q448 52 448 101Q448 132 445 160V163Q412 161 390 161T352 160Q316 160 278 158T193 150L194 151Q234 213 297 301Q402 451 451 534V535L452 588Z" />
<glyph unicode="[" glyph-name="bracketleft" horiz-adv-x="321" d="M88 -30T53 -33V-11L33 -13V338Q33 549 44 714Q74 719 112 719Q147 719 183 716Q227 714 250 714Q283 714 307 717V695Q311 695 327 697V664Q327 658 327 634T324 591T314 558H298Q283 558 259
556L224 555L210 556Q206 504 206 438Q206 355 212 209L214 147Q230 145 262 143Q276 143 300 141Q300 126 303 124T320 121Q325 69 325 19Q325 -3 323 -29L195 -30Q88 -30 53 -33ZM295 13T295 39Q295 91 291 132Q271 134 258 134Q214 136 184 142V143Q184 185
180 289Q176 401 176 460Q176 537 181 586H182Q189 585 199 585Q212 585 236 587Q260 589 271 589L288 588H291Q297 608 297 640V706Q288 704 270 704Q247 704 195 706Q156 709 115 709Q81 709 53 705V704Q43 554 43 337L44 118L43 2V-2Q73 0 118 0H294Q295 13
295 39Z" />
<glyph unicode="\" glyph-name="backslash" horiz-adv-x="412" d="M256 -9T252 4V3L195 147Q187 165 181 186L173 208V207Q153 257 135 313T113 379Q76 490 59 535Q52 559 37 604Q13 674 13 686H14Q13 687 13 691T10 697L6 705Q33 718 71 718L118 717Q138 717
159 721Q161 715 162 710T165 698L179 701Q203 606 214 573T233 521Q240 508 243 495H242Q246 485 249 472Q259 438 267 421L331 245Q356 172 362 161L361 162Q374 135 394 73H393L401 51V52Q408 35 414 16T420 -16Q420 -31 409 -31Q382 -30 347 -30Q323 -30 312
-30T296 -31Q289 -31 280 -28Q275 -23 272 -16V-17L269 -9Q256 -9 252 4ZM263 2T269 1T285 0T297 0H333Q366 0 389 -1H390Q392 -1 392 3Q392 19 379 53T364 90Q347 144 332 178Q330 183 312 227T200 554Q197 560 180 610T151 709Q137 706 122 706L93 707Q83 708
64 708Q47 708 37 707T19 701Q23 694 37 649Q85 497 108 428L126 374Q171 235 204 151L261 7Q263 2 269 1Z" />
<glyph unicode="]" glyph-name="bracketright" horiz-adv-x="321" d="M36 -9H18Q16 17 16 39Q16 89 21 141Q41 143 53 143Q61 144 84 145T127 151Q127 190 131 290Q135 398 135 458Q135 507 132 555Q120 555 96 557L62 558H43Q40 564 38 578H23Q17 596 16 616T14
657T14 684V717Q38 714 71 714Q93 714 137 716Q172 719 209 719Q248 719 277 713Q277 701 279 698T288 694T297 693Q307 557 307 348V109Q306 83 306 64T307 33Q308 16 308 -18V-33Q271 -30 166 -30L38 -29L36 -9ZM203 0Q248 0 278 -2V2Q276 104 276 156L277 367Q277
581 268 704V705Q240 709 205 709Q169 709 136 706Q90 704 69 704H51Q33 704 24 706V640Q24 608 30 588H33L49 589Q60 589 86 587Q110 585 122 585Q132 585 139 586H140Q145 537 145 460Q145 401 141 289Q137 185 137 143V142Q108 136 63 134Q50 134 30 132Q26
91 26 39Q26 13 27 1L124 0H203Z" />
<glyph unicode="^" glyph-name="asciicircum" horiz-adv-x="440" d="M443 452L444 450Q444 447 416 444T354 440Q348 440 327 440T284 452T239 498H240Q238 499 238 500T235 502Q229 496 206 471T170 443Q148 441 146 441L114 443Q78 446 12 449Q15 454 18 458T25
467L-8 469Q28 519 65 557T158 645L220 703L457 466L443 452ZM162 636Q107 586 74 552T11 478Q111 472 128 472Q140 472 149 473Q155 474 181 502Q209 532 217 535Q226 530 247 505Q250 502 263 488T283 473Q302 470 333 470Q369 470 395 474T428 479H430L220 689L162
636Z" />
<glyph unicode="_" glyph-name="underscore" horiz-adv-x="650" d="M134 -31Q186 -31 322 -29Q462 -29 576 -27H623L620 -47H643Q636 -86 636 -120L637 -180L520 -179L134 -178H53L52 -158H33Q33 -137 32 -120L31 -42V-32L134 -31ZM41 -104T42 -123T43 -148H83Q164
-148 219 -149L441 -150H607L606 -93Q606 -71 611 -37H514Q430 -37 288 -39T99 -41L41 -42V-71Q41 -104 42 -123Z" />
<glyph unicode="`" glyph-name="grave" horiz-adv-x="255" d="M115 676T178 609Q240 545 270 521L269 520Q283 506 290 501Q272 497 242 494T183 491Q150 491 129 494Q101 527 59 563V562Q32 584 17 600T-1 620L81 703Q115 676 178 609ZM14 619L48 588Q107 533
115 523Q124 521 142 521Q230 521 249 527Q249 527 193 583Q117 663 82 690L13 620L14 619Z" />
<glyph unicode="a" glyph-name="a" horiz-adv-x="476" d="M471 463T471 454V444Q470 417 470 366L471 254Q472 216 472 141Q472 82 469 20V13Q469 -8 466 -18T448 -31H434Q420 -31 398 -29L369 -28Q362 -28 348 -30L326 -31Q310 -27 305 -11Q292 -6 289 0Q237
-32 186 -32Q133 -32 93 14T31 129T9 266Q9 342 35 396T106 479T209 507Q237 507 252 503T281 483Q282 488 283 499T288 513T301 516Q310 516 317 515T332 513H341Q367 513 440 508L449 499L450 488H460L469 479Q471 463 471 454ZM330 503L303 504Q293 504 291
492T289 456V451Q280 473 266 483T235 495T187 497Q140 496 102 466T41 383T19 266Q19 207 35 145T84 41T166 -2Q200 -2 236 14T298 56Q298 50 296 40T294 21Q294 4 306 -1Q314 -1 328 1L349 2L382 1Q404 -1 414 -1H426Q434 1 436 7T439 26V40Q443 99 443 171L442
281Q440 355 440 393Q440 440 441 464V474Q441 482 439 498Q411 500 341 503H330ZM266 363T276 359T290 340T293 291V236Q293 200 290 180T273 149T231 138Q190 138 166 169T142 246Q142 279 148 299Q154 326 178 344T241 363Q266 363 276 359ZM172 256T172 226Q172
148 231 148Q256 148 267 159T280 189T283 247V273L284 303Q284 319 280 326T261 333Q226 333 205 317T178 277V276Q172 256 172 226Z" />
<glyph unicode="b" glyph-name="b" horiz-adv-x="464" d="M200 632Q202 600 202 577Q202 556 201 542L200 502Q230 512 272 512Q371 512 422 450T473 265Q470 178 456 117T401 14T278 -28Q226 -28 201 8V-11Q201 -23 192 -27T164 -31Q125 -31 105 -30L45 -29L44
-9H25Q24 30 24 122Q24 200 25 261T27 366Q31 544 31 638V713Q57 718 99 718Q128 718 152 713T177 703V692Q197 687 197 683V672L200 632ZM167 705T146 706T99 708Q62 708 41 704V638Q41 542 37 362Q36 319 35 256T34 111Q34 36 35 1Q67 1 84 0L138 -1Q171 -1 171
9Q171 20 172 35T178 50Q179 50 182 46Q203 2 256 2Q336 2 376 41T428 138T443 285Q443 361 424 417T362 488Q328 502 272 502Q233 502 202 494T170 475Q171 506 171 551V597Q171 638 169 657L167 692V703Q167 705 146 706ZM329 204T304 165T238 126Q206 126 191
143T171 191T166 271Q166 327 169 349T185 378T227 386Q311 386 322 315Q329 296 329 257Q329 204 304 165ZM307 339T292 347T247 356Q222 356 212 349T199 322T196 251V220Q196 178 203 157T238 136Q275 136 297 172T319 257Q319 260 319 279T313 312L312 314Q307
339 292 347Z" />
<glyph unicode="c" glyph-name="c" horiz-adv-x="442" d="M446 101T440 63T421 9Q399 -22 362 -32T272 -43Q205 -43 163 -34T88 8L79 17Q16 64 16 207V238Q16 297 13 322Q13 361 16 387T33 448L32 447Q41 484 87 503T196 522Q204 521 233 521L257 522Q302 522
343 507T406 460L410 457Q437 437 445 391T453 261Q421 256 406 256Q381 256 349 260T307 265Q306 267 305 272T300 280T287 285Q284 308 275 319T244 330Q240 330 226 328H227Q203 321 195 302T187 253V222Q187 211 185 187L184 159Q184 147 195 144T224 140Q252
140 265 149H264Q270 152 274 163T282 187T286 205Q310 203 325 203L356 204Q366 205 386 205Q410 205 423 202L431 191L430 184L443 182L451 171Q446 101 440 63ZM342 194Q330 193 309 193Q297 193 294 194Q287 160 274 145T224 129Q195 129 175 142T155 181V217Q155
270 159 299T178 344T227 361Q255 361 273 343T296 294Q348 285 386 285Q410 285 423 289Q423 299 422 349T411 428T384 469Q361 491 327 501T253 512L215 511Q202 511 195 512Q128 512 91 494T39 435T23 323Q26 296 26 266L25 209Q25 120 53 62T161 -9L208 -10Q242
-12 261 -12Q308 -12 341 -2T393 35Q405 47 410 85T421 192Q407 195 383 195L342 194Z" />
<glyph unicode="d" glyph-name="d" horiz-adv-x="463" d="M453 527T457 353Q458 310 459 247T460 102Q460 10 459 -29L399 -30Q379 -31 340 -31Q322 -31 313 -27T303 -11V-9L290 -8L288 -6Q262 -28 223 -28Q179 -28 146 -12T90 30Q11 93 11 285Q11 362 33 421T99
497Q136 512 192 512Q252 512 284 495L282 597Q282 620 284 652L287 692V703Q287 708 311 713T365 718Q404 718 433 712V695L453 692V618Q453 527 457 353ZM430 36T430 110Q430 191 429 254T427 362Q423 542 423 638V704Q402 708 365 708Q340 708 319 707T297 703V692L295
657Q293 638 293 597V551Q293 506 294 475Q290 486 260 494T191 502Q146 502 102 488Q60 473 41 417T21 285Q23 199 35 140T88 42T208 2Q259 2 282 46Q283 50 286 50Q290 50 293 27T294 2Q317 -1 345 -1L389 0Q403 1 429 1Q430 36 430 110ZM267 386T279 379T294
349T298 271Q298 221 294 191T274 144T226 126Q185 126 160 165T135 257Q135 296 142 315Q153 386 237 386Q267 386 279 379ZM288 309Q288 336 283 346T257 356Q181 356 172 294L171 292Q165 278 165 250Q165 136 226 136Q254 136 267 152T284 196T288 271V309Z"
/>
<glyph unicode="e" glyph-name="e" horiz-adv-x="444" d="M186 176T189 160T204 124V122Q217 115 236 115Q257 115 271 134T285 193V203Q307 201 318 201L353 202Q364 203 387 203Q404 203 432 198L431 181L452 178Q452 70 429 23T369 -33T257 -43Q197 -43 162
-35T101 4Q55 42 33 113T11 267Q11 364 34 426Q55 474 107 499T223 525Q300 525 352 492T430 404T456 282Q456 276 453 231Q434 226 353 222T208 218Q193 218 186 219V202Q186 176 189 160ZM168 248T225 248Q280 248 344 251T424 259Q426 289 426 302Q426 402 382
458T223 515Q163 515 113 491T43 423Q20 361 20 257Q20 153 55 77T164 -10L208 -11Q242 -13 261 -13Q308 -13 341 -3T394 34Q407 45 412 80T422 190Q407 193 383 193L344 192Q332 191 311 191Q299 191 296 192V184Q296 145 279 125T236 105Q159 105 156 233V251Q168
248 225 248ZM316 330Q316 327 309 327Q304 327 289 328T253 329L188 328Q169 328 163 330T157 339Q157 416 242 416Q261 416 277 406Q295 397 305 379T316 341V330ZM279 386T262 386Q227 386 212 374T190 338L209 339H253L296 338L306 337V341Q306 364 293 377L292
378Q279 386 262 386Z" />
<glyph unicode="f" glyph-name="f" horiz-adv-x="379" d="M224 -25T208 -25Q187 -25 167 -28Q145 -30 131 -30L114 -31Q106 -31 101 -27T95 -9L78 -8Q73 22 73 136L74 289V325L24 324L23 345L4 344L1 486H72Q72 548 98 603T183 679V678Q245 699 333 699Q368 699
381 698Q382 694 383 688T388 680T401 678Q411 651 411 614Q411 591 407 557Q404 536 404 522Q397 523 382 523Q349 523 313 518T271 511Q260 509 254 501T247 483H386Q382 468 382 463H406Q401 439 401 435Q401 433 401 432T402 428V407Q402 394 400 376Q397 340
397 317L335 321Q275 326 246 326V-28Q224 -25 208 -25ZM324 351L367 348Q372 397 372 409V458Q372 470 373 473H220Q217 485 217 497Q217 537 249 541Q328 553 361 553H374Q381 607 381 634Q381 666 374 688Q359 689 333 689Q245 689 186 669Q130 651 106 603T82
496Q82 482 83 475Q72 476 49 476H11L14 354Q27 355 51 355H85Q85 318 84 289L83 130Q83 28 87 1Q94 0 106 0Q119 0 147 2Q168 5 193 5Q209 5 216 4V356L324 351Z" />
<glyph unicode="g" glyph-name="g" horiz-adv-x="467" d="M463 372T463 207Q463 52 458 -63V-87Q458 -165 416 -195T330 -230Q316 -232 305 -232Q242 -232 200 -226T119 -197T51 -129Q43 -118 39 -96T35 -52Q35 -40 36 -35Q60 -25 99 -25Q104 -25 121 -25T150
-27Q115 -18 84 5T41 57V56Q17 102 12 177Q12 266 21 331T69 448T188 507Q215 507 240 500T281 476Q281 494 288 507Q324 511 353 511Q379 511 393 510L439 509L440 489H459Q463 372 463 207ZM428 20T431 90Q433 182 433 227Q433 382 429 499L377 500Q359 501 324
501Q291 501 291 484L292 467V458Q292 449 290 449L288 450Q277 474 255 485T201 497Q116 497 77 448T30 336T22 178Q25 142 31 115T50 61Q81 -2 180 -2Q188 -1 205 -1Q239 0 259 4T294 24Q293 17 293 6L294 -18Q294 -59 278 -79T233 -100Q208 -100 191 -85T173
-41Q141 -36 90 -36Q68 -36 56 -39T44 -52Q44 -119 90 -159T205 -200L288 -201Q305 -201 308 -200Q349 -195 388 -171T428 -81V-53Q428 20 431 90ZM270 374T284 335T299 232L298 179Q295 155 291 142T273 121T233 112Q187 112 161 146T135 228V256Q135 283 146
310T179 356T228 374Q270 374 284 335ZM288 220T285 264T275 338Q263 344 248 344Q219 344 203 329L205 330Q184 306 175 282T165 225V208Q165 170 179 147T234 123Q257 123 267 129T281 146T288 180Q288 220 285 264ZM182 -32T183 -39T185 -49L203 -52Q203 -72
209 -81T233 -90Q250 -90 266 -76T283 -40L284 -24Q269 -29 252 -30T230 -31Q210 -31 201 -32Q187 -32 180 -31Q182 -32 183 -39Z" />
<glyph unicode="h" glyph-name="h" horiz-adv-x="448" d="M190 716T194 704T199 664L198 594L197 476Q241 505 301 505Q333 505 363 494T408 460L420 451Q446 431 446 283Q446 244 444 166Q442 90 442 55Q442 15 444 -27Q408 -32 360 -32H300Q299 -25 299 -12H280Q277
19 277 109V159Q277 213 275 246T264 303Q257 306 243 306Q213 306 202 286T190 209Q190 182 192 134Q194 84 194 61Q194 18 190 -14V-25Q155 -34 132 -34Q118 -34 110 -33L86 -32H75Q60 -32 46 -34V-12L26 -14Q26 101 25 175L24 476V590Q24 696 26 734Q50 731
71 731Q79 731 97 734T148 737Q175 737 176 725V717Q190 716 194 704ZM167 715Q167 723 165 725T154 728Q126 728 91 723Q75 721 71 721H59Q46 721 36 723Q34 603 34 493V355L35 131Q36 79 36 -3Q48 -2 68 -2L116 -3Q137 -3 160 3V7Q164 40 164 81Q164 107 162
157Q160 207 160 233Q160 293 175 314T223 336Q259 336 269 315T282 267T285 230Q287 215 287 182V147V73V41Q287 11 289 -2L347 -3Q383 -3 414 2Q412 40 412 65Q412 100 414 178Q416 260 416 298Q416 367 411 409T393 464Q359 495 300 495Q268 495 243 485T196
463T167 446V697V715Z" />
<glyph unicode="i" glyph-name="i" horiz-adv-x="207" d="M181 708H201L202 654Q204 596 204 567Q193 550 156 550Q147 550 117 552H118L84 553Q64 553 49 552V573L29 572Q29 591 27 629Q25 675 25 710V731L181 728V708ZM35 705Q35 674 37 632Q39 598 39 583H56Q71
583 99 581L135 580Q168 580 174 590Q174 622 172 678Q171 696 171 718L35 721V705ZM185 491L205 488Q205 431 203 315Q200 228 200 137Q200 48 204 -17Q196 -25 182 -28T146 -31Q117 -31 102 -30H103L79 -29Q57 -29 42 -34Q42 -27 44 -9Q29 -11 22 -14Q27 53 27
124Q27 164 25 244Q23 324 23 366Q23 436 30 513Q37 513 40 514L56 516Q64 516 86 515T135 513H158L185 508V491ZM102 503T72 505L43 506H39V505Q33 452 33 368Q33 330 35 248Q37 166 37 123Q37 55 33 0Q35 1 49 1Q70 1 83 0L128 -1Q150 -1 160 0T174 6Q170 77
170 167Q170 265 173 361Q175 455 175 500V503H135Q102 503 72 505Z" />
<glyph unicode="j" glyph-name="j" horiz-adv-x="204" d="M175 708H195L196 654Q198 596 198 567Q187 550 152 550L122 551Q98 553 79 553Q58 553 46 552V573L26 572Q26 591 24 629Q22 675 22 710V731L175 728V708ZM32 705Q32 674 34 632Q36 598 36 583H53Q67
583 95 581L130 580Q162 580 168 590Q168 622 166 678Q165 696 165 718L32 721V705ZM45 505T59 505Q70 505 83 506T102 508Q123 511 143 511L158 512Q166 512 171 508T178 490L196 489Q200 453 200 408L199 337Q198 316 198 278Q198 253 199 244V104Q199 39 196
-13T184 -120Q162 -173 95 -195T-60 -218L-85 -219Q-97 -219 -104 -215T-113 -198Q-137 -198 -137 -145Q-137 -120 -133 -80Q-130 -58 -130 -41Q-122 -42 -102 -42Q-62 -42 -26 -34T24 -8Q25 34 25 131Q25 298 28 364V508Q45 505 59 505ZM35 311T35 178V79Q35 16
34 -12Q20 -34 -19 -43T-99 -53Q-113 -53 -120 -52Q-121 -59 -124 -84T-128 -133Q-128 -169 -120 -187Q-107 -188 -80 -188Q5 -188 69 -168T154 -99Q170 3 170 129Q170 182 169 209L168 300Q168 340 169 362L170 433Q170 472 167 500Q160 501 148 501Q135 501 107
499Q84 496 60 496Q45 496 38 497V363Q35 311 35 178Z" />
<glyph unicode="k" glyph-name="k" horiz-adv-x="435" d="M325 235T336 216Q383 142 416 87T479 -30Q459 -30 413 -32Q363 -34 336 -34Q316 -34 305 -30T286 -11L277 -9Q247 37 221 95Q211 117 205 128L206 69Q206 9 198 -31Q183 -30 153 -30H137Q105 -32 87 -32Q83
-32 72 -32T54 -28T47 -11Q42 -11 28 -9Q24 96 24 232Q24 313 26 479Q28 647 28 736Q59 736 76 737L131 738Q141 738 163 736L184 735V716L204 715V487Q204 467 203 457L202 426L220 456Q247 501 272 531Q293 524 327 524L370 525Q400 527 416 527Q438 527 451
526Q448 521 445 517T438 507Q458 507 471 506Q437 453 408 414T334 316L301 273Q325 235 336 216ZM356 -4T398 -2Q432 0 443 0Q417 52 389 99T312 224L269 293L326 368Q404 471 434 517H420L377 516Q343 514 326 514Q290 514 276 520Q253 493 233 456Q202 402
174 377Q172 399 172 415Q172 444 173 460L174 507V726Q156 728 144 728L108 727L38 726Q38 643 36 479Q34 315 34 231Q34 105 38 0Q60 -2 71 -2Q87 -2 115 0L152 1L170 0Q176 32 176 88L175 150Q174 166 174 193Q192 170 206 145T238 82Q267 23 282 0Q299 -4 333
-4Q356 -4 398 -2Z" />
<glyph unicode="l" glyph-name="l" horiz-adv-x="206" d="M185 714H205Q205 668 203 502Q202 453 201 373T200 186Q200 48 204 -17Q196 -25 182 -28T146 -31Q117 -31 102 -30H103L79 -29Q57 -29 42 -34L43 -10Q31 -10 22 -14Q29 84 29 167Q29 228 25 354Q21 478
21 543Q21 648 30 737L185 734V714ZM30 631T30 536Q30 450 35 347Q39 221 39 160Q39 80 33 0Q35 1 49 1Q70 1 83 0L128 -1Q150 -1 160 0T174 6Q171 55 171 207Q171 322 173 522L175 724L39 727Q30 631 30 536Z" />
<glyph unicode="m" glyph-name="m" horiz-adv-x="684" d="M196 475Q245 505 302 505Q334 505 362 495T408 461L431 473Q461 489 484 497T537 505Q569 505 599 494T644 460L656 451Q682 431 682 283Q682 244 680 166Q678 90 678 55Q678 15 680 -27Q644 -32 596
-32H536Q535 -25 535 -12H516Q513 19 513 109V159Q513 213 511 246T500 303Q493 306 480 306Q459 306 447 297V273Q447 235 445 159Q443 83 443 48Q443 30 446 -27Q410 -32 362 -32H301Q300 -25 300 -12H281Q278 19 278 109V159Q278 217 276 249T265 303Q258 306
244 306Q214 306 203 286T191 209Q191 182 193 134Q195 84 195 61Q195 18 191 -14V-25Q156 -34 133 -34Q119 -34 111 -33L87 -32H76Q61 -32 47 -34V-12L27 -14L26 175Q24 301 24 366Q24 419 26 509Q50 506 71 506Q79 506 97 509T148 512Q175 512 176 500Q176 494
185 490T196 480V475ZM126 503T91 498Q75 496 71 496H59Q46 496 36 498Q34 467 34 407V346Q34 285 36 169L37 -3Q49 -2 69 -2L117 -3Q138 -3 161 3V7Q165 40 165 81Q165 107 163 157Q161 207 161 233Q161 293 176 314T224 336Q260 336 270 315T283 267T286 230Q288
215 288 182V147V73V41Q288 11 290 -2L348 -3Q384 -3 415 2Q413 36 413 58Q413 91 415 163Q417 241 417 278V322Q436 336 460 336Q496 336 506 315T518 267T521 230Q523 215 523 182V147V73V41Q523 11 525 -2L583 -3Q619 -3 650 2Q648 40 648 65Q648 100 650 178Q652
260 652 298Q652 367 647 409T629 464Q595 495 536 495Q501 495 475 484T404 447Q394 471 364 483T301 495Q269 495 244 485T197 463T168 446L169 469Q169 503 154 503Q126 503 91 498Z" />
<glyph unicode="n" glyph-name="n" horiz-adv-x="450" d="M197 475Q246 505 303 505Q335 505 365 494T410 460L422 451Q448 431 448 283Q448 244 446 166Q444 90 444 55Q444 15 446 -27Q410 -32 362 -32H302Q301 -25 301 -12H282Q279 19 279 109V159Q279 217 277
249T266 303Q258 306 245 306Q215 306 204 286T192 209Q192 182 194 134Q196 84 196 61Q196 18 192 -14V-25Q157 -34 134 -34Q120 -34 112 -33L88 -32H77Q62 -32 48 -34V-12L28 -14L27 175Q25 301 25 366Q25 419 27 509Q51 506 72 506Q80 506 98 509T149 512Q176
512 177 500Q177 494 186 490T197 480V475ZM127 503T92 498Q76 496 72 496H60Q47 496 37 498Q35 467 35 407V346Q35 285 37 169L38 -3Q50 -2 70 -2L118 -3Q139 -3 162 3V7Q166 40 166 81Q166 107 164 157Q162 207 162 233Q162 293 177 314T225 336Q261 336 271
315T284 267T287 230Q289 215 289 182V147V73V41Q289 11 291 -2L349 -3Q385 -3 416 2Q414 40 414 65Q414 100 416 178Q418 260 418 298Q418 367 413 409T395 464Q361 495 302 495Q270 495 245 485T198 463T169 446L170 469Q170 503 155 503Q127 503 92 498Z" />
<glyph unicode="o" glyph-name="o" horiz-adv-x="448" d="M51 492T95 508T196 524Q204 523 233 523L257 524Q295 524 331 512T391 477H390Q393 473 399 467T410 457L409 458Q436 440 445 386T455 252Q455 181 446 105T421 11Q400 -19 364 -30T280 -41Q229 -41
198 -38T136 -22T77 21L68 30Q37 59 26 104T15 211V247L16 281Q16 293 15 304T14 324Q14 367 16 389T31 442H30Q31 448 32 454T36 462V461L35 458L36 460Q51 492 95 508ZM25 283V209Q25 121 54 64T161 -7L208 -8Q242 -10 261 -10Q308 -10 341 0T393 37Q410 54 415
113T425 272Q425 281 423 336T412 425T384 470Q339 514 253 514L215 513Q202 513 195 514Q144 514 101 499T45 456Q34 417 29 387T24 325L25 283ZM300 363T300 259Q300 216 296 191T275 149T223 133Q193 133 174 146T155 188Q156 201 156 234Q156 280 158 305T170
338Q190 363 230 363Q300 363 300 259ZM188 305T187 265T185 167Q185 151 195 147T223 143Q284 143 284 185Q290 239 290 263Q290 296 283 314T248 332Q242 332 226 330H227Q208 325 198 312L196 310Q188 305 187 265Z" />
<glyph unicode="p" glyph-name="p" horiz-adv-x="464" d="M438 413T453 352T473 195Q473 117 451 59T385 -17Q347 -32 292 -32Q266 -32 241 -28T200 -16L202 -117Q202 -140 200 -174L197 -212V-223Q197 -228 173 -233T119 -238Q77 -238 51 -233V-216L31 -213V-138Q31
-46 27 128Q26 172 25 234T24 378Q24 470 25 509L82 510Q101 511 137 511Q158 511 169 507T181 491V489Q195 489 195 486Q221 508 261 508Q344 508 394 449Q438 413 453 352ZM404 27T423 83T443 215Q440 304 428 362T376 459T256 498Q203 498 182 454Q179 450 178
450Q174 450 171 473T170 498Q160 500 141 500L35 499Q34 463 34 389Q34 307 35 244T37 138Q41 -42 41 -138V-204Q62 -208 99 -208Q124 -208 145 -207T167 -203V-192L169 -157Q171 -138 171 -97V-51Q171 -7 170 24Q172 13 202 6T272 -2Q328 -2 362 12Q404 27 423
83ZM279 374T304 335T329 243Q329 204 322 185Q311 114 227 114Q197 114 185 121T170 151T166 229Q166 279 170 309T190 356T238 374Q279 374 304 335ZM319 283T305 313T258 344Q230 344 217 328T200 284T196 209Q196 180 197 159T201 126Q207 124 215 124T227
124Q303 124 312 186L313 188Q319 202 319 221T319 243Q319 283 305 313Z" />
<glyph unicode="q" glyph-name="q" horiz-adv-x="463" d="M287 -207T287 -203V-192L284 -154Q282 -120 282 -97L283 -23Q247 -32 212 -32Q11 -32 11 215Q13 299 27 362T84 466T205 508Q257 508 282 472L283 471V491Q283 503 294 507T327 511Q363 511 382 510L439
509V489H459Q460 450 460 358Q460 280 459 219T457 114Q453 -64 453 -158V-233Q427 -238 385 -238Q356 -238 332 -233T307 -223V-212Q287 -207 287 -203ZM297 -205T318 -206T365 -208Q402 -208 423 -204V-138Q423 -42 427 138Q428 181 429 244T430 389Q430 463
429 499L324 500Q293 500 293 491Q293 480 292 465T286 450Q283 450 282 454Q259 498 208 498Q129 498 89 459T36 360T21 215Q21 139 40 83T102 12Q136 -2 191 -2Q230 -2 260 5T294 24Q293 -7 293 -51V-97Q293 -138 295 -157L297 -192V-203Q297 -205 318 -206ZM135
296T160 335T226 374Q258 374 273 357T293 309T298 229Q298 173 295 151T279 122T237 114Q153 114 142 185Q135 204 135 243Q135 296 160 335ZM174 141T190 133T237 124Q262 124 272 131T285 158T288 229V260Q288 302 281 323T246 344Q209 344 187 308T165 223Q165
220 165 201T171 168L172 166Q174 141 190 133Z" />
<glyph unicode="r" glyph-name="r" horiz-adv-x="368" d="M195 488T198 486Q255 504 307 504Q332 504 350 502T368 497V482Q388 479 388 477L387 392Q386 375 386 348Q386 332 389 287L366 295L367 294L355 298L356 297Q316 307 303 309T279 311T265 311Q231 311
215 298T198 249Q202 126 202 -13V-25Q170 -34 143 -34Q127 -34 119 -33L89 -32H77Q62 -32 48 -34V-12L28 -14L27 175Q25 301 25 366Q25 419 27 509Q51 506 72 506Q80 506 98 508T149 511Q182 511 182 499V490Q195 488 198 486ZM172 499Q172 501 160 501Q127 501
104 499T72 496H60Q47 496 37 498Q35 467 35 407V346Q35 285 37 169L38 -3Q50 -2 71 -2L125 -3Q149 -3 172 3V7Q172 60 170 144Q168 228 168 275Q168 312 187 326T245 341Q251 341 262 341T289 340T328 331Q333 329 338 328T349 324L358 321Q357 332 357 353V390L358
497Q358 499 337 499Q299 499 248 489T173 465Q173 472 173 475T172 480V499Z" />
<glyph unicode="s" glyph-name="s" horiz-adv-x="450" d="M423 310T381 310Q346 310 301 318L302 326Q302 332 297 334T287 337T281 338L282 346Q282 362 272 368T246 378Q228 373 218 363T208 341Q208 322 228 314L226 315Q338 297 399 257T460 130Q460 38 400
-4T242 -46Q172 -46 117 -20T32 52T1 152V166Q32 170 69 170L121 169Q137 168 168 168Q168 160 173 148H188Q188 113 233 113Q274 113 274 153Q274 168 259 174T209 188Q166 196 143 206H144Q83 227 47 274T11 373Q11 420 41 462T122 519Q156 529 226 529Q293 529
336 519T406 475Q466 426 466 326L458 316Q423 310 381 310ZM295 519T226 519Q21 519 21 373Q21 328 48 291T127 235Q151 224 203 214Q246 204 265 194T284 160Q284 130 271 117T233 103Q205 103 183 118T159 158L44 159Q21 159 11 157V152Q11 75 69 30T222 -16Q313
-16 371 21T429 150Q429 202 405 233T339 279T225 305Q202 313 190 328T178 360Q178 377 191 392T229 408Q252 408 273 391T294 354Q294 348 293 346Q324 340 361 340Q402 340 436 346Q436 403 415 445T349 507Q295 519 226 519Z" />
<glyph unicode="t" glyph-name="t" horiz-adv-x="387" d="M278 505T347 510L372 512Q380 500 383 491L392 492Q406 475 406 445Q406 434 404 412Q402 390 402 378Q402 367 405 347H248Q248 222 249 163Q268 154 297 150T356 145Q375 145 383 146L384 129V125Q396
125 403 126Q403 109 406 88Q410 56 410 34Q410 -3 400 -30Q387 -31 353 -31Q258 -31 187 -3T89 87Q79 144 76 196T73 319V343L21 344V364H1L4 506Q31 505 75 505Q75 540 74 558L73 617Q73 663 77 696Q99 698 110 698Q125 698 151 696Q171 693 192 693H205Q218
693 225 695V673Q231 673 245 675V504Q278 505 347 510ZM208 683T192 683Q167 683 146 686Q118 688 105 688Q93 688 86 687Q83 659 83 618L84 551Q85 531 85 495H51Q27 495 14 496L11 374H49Q72 374 83 375V319Q83 249 86 197T99 88Q119 39 183 19T333 -1Q360 -1
373 0Q380 22 380 54Q380 81 373 135Q366 134 352 134Q310 134 272 143T219 175Q218 206 218 271V377H373Q372 380 372 393Q372 403 374 427Q376 451 376 464Q376 492 367 502L324 499L216 494L215 550V684Q208 683 192 683Z" />
<glyph unicode="u" glyph-name="u" horiz-adv-x="450" d="M219 -25T167 -25Q135 -25 103 -15T60 18Q39 35 31 76T22 197Q22 236 24 314Q26 390 26 425Q26 465 24 507Q59 512 106 512H168Q168 499 169 492H188Q191 461 191 371V321Q191 263 193 232T205 176Q219
174 225 174Q253 174 265 192T278 259Q278 283 276 335Q273 373 273 413Q273 464 278 495V505Q307 513 335 513L382 512H393Q408 512 422 514V492L442 494L443 305Q445 179 445 114Q445 61 443 -29Q395 -26 398 -26Q389 -26 370 -29T321 -32Q305 -32 299 -28T292
-12Q275 -11 273 0L272 4Q219 -25 167 -25ZM323 -3T358 2Q374 4 378 4Q381 4 413 2Q415 106 415 154Q415 215 413 331L412 503Q400 502 380 502L331 503Q311 503 288 497V493Q283 462 283 417Q283 392 285 340Q288 301 288 262Q288 206 273 185T225 164Q197 164
184 178T168 212T163 270Q161 285 161 318V352V427V459Q161 489 159 502L101 503Q65 503 34 498Q35 479 35 435Q35 401 33 321Q31 241 31 201Q31 56 55 36Q89 5 147 5Q184 5 210 16T281 54L280 30Q280 -3 294 -3Q323 -3 358 2Z" />
<glyph unicode="v" glyph-name="v" horiz-adv-x="429" d="M184 459T200 357Q213 272 223 219L242 313Q266 448 287 506Q307 506 343 508Q379 510 399 510H413Q430 510 442 508L435 490Q440 490 462 488Q436 419 419 350T379 174Q375 157 361 92T331 -30Q301 -35
251 -35L184 -34Q163 -33 126 -33L123 -13H106Q58 286 -3 513Q28 508 47 508Q70 508 82 509Q89 509 111 509T151 507L160 499Q160 491 162 489T171 487L180 479Q184 459 200 357ZM53 498H36Q20 498 11 500Q67 295 115 -3Q146 -3 164 -4L229 -5Q275 -5 303 -1Q325
80 350 201Q371 302 388 369T428 499L397 500Q377 500 343 498Q311 496 294 496Q284 471 276 435T261 364T252 317Q231 195 216 155Q203 191 193 247T169 384Q162 433 150 497Q124 499 111 499L53 498Z" />
<glyph unicode="w" glyph-name="w" horiz-adv-x="683" d="M187 448T191 419T200 366Q218 249 225 215Q234 252 264 399Q268 419 287 511Q297 509 312 509L350 510Q359 511 379 511Q393 511 415 508L418 490Q421 490 435 488Q444 449 455 362Q470 258 479 215Q488
250 507 346Q519 407 527 445T545 506Q564 506 596 508Q630 510 647 510L696 508L689 489L716 488Q690 419 673 350T633 174Q629 157 615 92T585 -30Q555 -35 510 -35L449 -34Q430 -33 392 -33L388 -13H372Q366 16 354 102Q350 78 349 66Q348 58 343 28T331 -30Q301
-35 251 -35L184 -34Q163 -33 126 -33L123 -13H106Q58 286 -3 513Q28 508 47 508Q70 508 82 509Q90 509 112 509T152 507L161 499Q161 491 163 489T172 487L181 479Q187 448 191 419ZM54 498H37Q20 498 11 500Q67 295 115 -3Q146 -3 164 -4L229 -5Q275 -5 303 -1Q313
40 325 126Q335 196 342 229Q349 191 370 66L381 -3Q412 -3 429 -4L487 -5Q529 -5 557 -1Q579 80 604 201Q625 302 642 369T682 499Q670 500 649 500Q630 500 598 498Q568 496 552 496Q543 472 532 418T517 348Q488 200 470 155Q458 189 449 236T425 381Q413 464
406 499Q390 502 377 502L351 501Q333 499 320 499Q304 499 295 500L293 489Q291 480 289 465T284 441L282 430L260 325Q246 257 238 225T216 155Q203 191 193 247T170 383Q151 497 151 497Q125 499 111 499L54 498Z" />
<glyph unicode="x" glyph-name="x" horiz-adv-x="413" d="M443 491Q443 471 439 470L412 395L404 374Q371 282 360 226Q372 168 400 82Q423 13 434 -32Q413 -29 403 -29H379L354 -30Q278 -30 268 -26L260 -8L248 -6Q238 15 229 53Q227 60 218 90L210 59Q199 4
180 -31H139L101 -32H94Q67 -32 50 -31T17 -22L20 -8Q8 -7 -3 -2Q5 35 37 125Q42 139 55 178T76 247Q66 291 52 334T11 448L-11 506Q30 510 72 510Q159 510 167 502Q169 491 172 488T180 485T187 482Q201 415 212 382L245 507Q288 511 423 511Q423 493 420 491H443ZM368
501Q272 501 253 498Q246 477 233 425Q215 352 205 327Q192 363 170 451L158 497Q155 498 146 499T123 500H72Q47 500 2 497Q10 477 16 460Q42 396 59 346T86 247Q72 193 43 109Q15 27 9 4Q24 -2 50 -2T81 -2H95L140 -1H154Q166 23 180 79Q182 87 189 114T207 162V161Q216
141 223 115T231 82Q245 26 255 3H256Q262 0 318 0H334L383 1H392Q399 1 401 0Q395 25 385 58T370 105Q341 194 330 246Q337 285 349 322T382 416Q387 430 395 451T412 500L413 501H368Z" />
<glyph unicode="y" glyph-name="y" horiz-adv-x="449" d="M189 433Q215 277 234 200L243 274Q245 287 252 343T268 441T288 509L336 510Q352 511 384 511Q394 511 454 508Q452 503 449 489L474 488Q427 304 397 167Q372 52 341 -24T239 -154T47 -208H36Q20 -208
6 -206Q5 -202 4 -197T-1 -189T-14 -186Q-27 -142 -27 -99Q-27 -63 -21 -34L23 -35Q33 -36 52 -36Q80 -36 95 -27T110 7Q110 16 109 23V22Q75 208 -11 513Q20 508 40 508L78 509H110Q139 509 152 507L161 499Q161 492 163 490T172 487L181 479L189 433ZM47 498H29Q12
498 3 500Q14 463 20 436Q56 306 79 212T119 24Q120 17 120 6Q120 -24 102 -35T51 -46Q31 -46 20 -45L-12 -44Q-17 -71 -17 -99Q-17 -145 -6 -177Q5 -178 27 -178Q149 -178 217 -126T315 1T369 195Q380 249 388 278L397 315Q420 417 441 499Q424 500 394 500L308
499H295Q284 472 277 429T260 310Q250 237 244 200T229 137Q204 206 165 421L151 497Q125 499 110 499L47 498Z" />
<glyph unicode="z" glyph-name="z" horiz-adv-x="456" d="M463 426Q462 412 462 385Q462 361 465 340Q445 319 343 220L274 152Q283 151 300 151H338Q396 151 439 157V134L459 137Q459 85 460 58L461 -23Q213 -29 33 -29L34 -9H13L15 35Q15 59 13 85Q11 105 11
116Q11 138 39 169T115 242L137 262L161 285Q201 323 209 331Q84 323 39 316Q37 330 37 338L19 336Q16 384 16 387Q16 401 18 425L19 462L18 507L195 508H309Q319 506 329 506Q352 506 365 507L405 508H422Q435 508 438 506L444 497V488Q450 488 458 486L464 477L463
426ZM389 498T374 497L331 496Q320 496 306 498L28 497L29 470L28 434Q26 408 26 393Q26 385 28 347Q96 356 251 363Q230 338 201 310T143 254Q60 177 22 129Q21 122 21 111Q21 103 23 83Q25 57 25 34L24 1Q185 1 431 7L430 80Q429 103 429 146Q386 140 341 140L260
141Q227 141 212 140Q255 188 333 262Q403 330 434 363Q432 372 432 389Q432 421 433 437L434 497Q432 498 414 498Q389 498 374 497Z" />
<glyph unicode="{" glyph-name="braceleft" horiz-adv-x="318" d="M291 -31T282 -31Q231 -31 193 -10T134 43T113 103Q113 112 115 128Q117 148 117 157Q117 205 103 234T46 264H41Q32 264 27 267T21 284Q8 284 4 294T-1 322Q-1 368 6 404Q11 403 22 403Q74 403
96 437T118 525Q118 537 116 561V560Q113 574 113 586Q113 643 149 666T253 690Q259 690 298 687Q300 672 302 670T310 667T318 667Q322 639 322 610Q322 588 320 558Q296 550 284 543T268 523V524Q265 503 265 481L266 452Q267 443 267 424Q267 387 258 362T224
321Q266 287 266 208L265 173Q265 145 271 130T303 112V96Q312 92 323 92V17Q323 -9 322 -20L313 -29Q291 -31 282 -31ZM293 103Q235 107 235 192L236 229Q236 312 183 342Q215 354 226 379T237 446L236 506Q236 536 241 550T257 571T290 585Q292 615 292 630Q292
654 289 678Q263 680 253 680Q192 680 158 660T123 586Q123 577 125 557Q128 542 128 525Q128 467 106 430T31 392Q20 392 15 393Q9 351 9 327Q9 294 21 294H27Q81 294 104 255T127 157Q127 146 125 128Q123 112 123 104Q123 77 139 53T187 14T262 -1Q270 -1 292
1Q294 27 294 44L293 103Z" />
<glyph unicode="|" glyph-name="bar" horiz-adv-x="201" d="M141 -58T93 -56Q76 -55 55 -55V-36L35 -35V736L83 735Q91 734 104 734Q126 734 165 739V717Q169 717 185 719L187 -58H168Q141 -58 93 -56ZM157 350Q157 587 155 703V728V729Q125 724 105 724Q92 724
85 725L45 726V-25L68 -26Q116 -28 148 -28H157V350Z" />
<glyph unicode="}" glyph-name="braceright" horiz-adv-x="318" d="M35 -17T35 -14T32 -10T25 -9L16 0Q15 11 15 37V112Q47 114 60 137T73 194Q73 203 72 211T71 228Q71 302 111 339Q110 342 107 345Q85 359 78 382T71 444L72 500Q72 508 70 524L69 546Q65 548
56 551T42 558T37 572L19 578Q15 603 15 630Q15 661 20 687Q59 690 65 690Q105 690 134 683T184 651Q204 637 214 615T224 565V555Q224 545 222 540V541Q220 517 220 505Q220 456 234 430T296 403Q307 403 312 404L315 383Q325 383 332 384Q333 378 336 353T339
305Q339 287 335 276T317 264H311Q262 264 242 227T221 137Q221 126 223 108Q225 92 225 84Q225 55 207 29T155 -14T76 -31Q67 -31 45 -29L36 -20Q35 -17 35 -14ZM122 -1T158 31T195 108Q191 128 191 157Q191 216 213 255T290 294H297Q309 294 309 327Q309 351
303 393Q296 392 287 392Q235 392 213 429T190 525Q190 537 192 557Q194 577 194 586Q194 639 160 659T65 680Q53 680 29 678Q25 657 25 630Q25 606 28 585Q52 576 61 570T76 550T82 506L81 446Q81 405 92 380T135 342Q81 311 81 229Q81 220 82 211T83 192Q83 107
25 103L24 44Q24 27 26 1Q48 -1 55 -1Q122 -1 158 31Z" />
<glyph unicode="~" glyph-name="asciitilde" horiz-adv-x="570" d="M171 107T101 107Q70 107 24 105Q26 114 30 126Q21 125 4 125Q14 166 39 226T87 313Q110 336 140 348T203 361Q242 361 274 340T344 270Q352 264 363 264Q384 264 401 292T425 345Q490 350 545
350L554 341L555 330H565L574 321Q577 306 577 291Q577 232 545 177T467 106H468Q444 96 415 96Q372 96 334 122T277 188Q270 192 255 192Q239 192 214 181L215 182Q202 174 198 165T194 144Q194 136 199 116L187 103Q171 107 101 107ZM164 154T164 163Q164 185
183 203T238 222Q255 222 265 215T286 193Q300 160 329 143T394 126Q437 126 472 152T526 221T546 310V321Q546 332 544 337L541 340Q523 340 514 339Q472 339 433 336Q428 312 408 283T362 254Q348 254 337 263T308 291Q285 319 262 335T203 351Q127 351 85 289T17
136Q40 137 81 137Q153 137 169 133V134Q164 154 164 163Z" />
<glyph unicode="&#xa0;" glyph-name="uni00A0" horiz-adv-x="200" />
<glyph unicode="&#xa1;" glyph-name="exclamdown" horiz-adv-x="216" d="M177 641T179 621H186Q194 621 196 614T199 590Q199 569 196 543Q195 533 194 519T193 486Q172 477 142 477Q127 477 97 479Q67 481 51 481V500Q44 501 31 501L32 565Q34 615 34 641H51L71
640H91L166 641Q177 641 179 621ZM89 630L51 631H44Q44 603 42 545L41 511Q51 511 79 509Q107 507 121 507Q149 507 163 513V514Q163 527 164 541T166 567Q169 596 169 616Q169 631 166 631L91 630H89ZM143 -107T106 -107Q72 -107 53 -100V-85Q40 -83 33 -80Q33
-32 35 66Q37 168 37 219Q37 351 31 466Q102 472 182 472L181 451Q189 452 202 452Q201 417 201 336L202 219Q203 180 203 101Q203 -13 199 -100H187Q143 -107 106 -107ZM173 15T173 121L172 251Q171 294 171 380Q171 435 172 462H171Q152 462 142 461Q78 461 42
457Q47 330 47 226Q47 56 43 -72Q58 -77 84 -77Q112 -77 166 -70H169Q173 15 173 121Z" />
<glyph unicode="&#xa2;" glyph-name="cent" horiz-adv-x="350" d="M225 355L226 303H279Q310 303 329 295V281Q334 279 339 278T349 275Q349 257 351 233Q353 209 353 197Q353 149 315 112T226 65L227 31Q227 29 227 19T220 2T196 -5Q188 -5 180 -1T172 15Q157
17 154 27T151 63Q106 69 68 101T25 175Q19 224 19 288Q19 334 20 358L21 441Q20 444 20 456Q20 491 33 524T73 578T133 599Q145 599 152 598V649Q155 654 163 657T183 661Q197 661 207 654L206 641Q217 641 227 634Q227 621 226 610T225 591Q258 583 288 555T338
488T357 410Q357 384 347 355Q320 351 298 351Q260 351 231 358Q229 363 229 367T228 374L225 375V355ZM196 345V403Q196 447 197 474Q210 466 213 452T218 415Q218 396 220 387Q250 381 278 381Q298 381 320 384V385Q327 403 327 430Q327 467 311 502T265 560T198
584H197Q196 591 196 604L197 649V650Q193 654 183 654Q171 654 167 650T162 636V610V600Q162 590 160 586Q146 589 135 589Q87 589 59 550T30 458Q30 447 31 442L30 360Q29 337 29 292Q29 228 35 176Q41 137 73 115T144 92Q154 92 161 93Q161 87 161 68T163 36T175
24Q186 24 193 29L196 30Q197 33 197 46L196 79Q196 90 197 93L199 94Q249 100 286 135T324 219Q324 230 322 254Q319 271 319 288V289Q304 293 283 293L244 292Q231 292 228 293Q226 279 226 269Q225 243 220 228T198 206H197L196 345ZM162 384T162 339L161 206Q142
215 136 240T130 301V336Q130 342 130 361T132 398Q133 407 133 427T140 459T160 472Q162 384 162 339Z" />
<glyph unicode="&#xa3;" glyph-name="sterling" horiz-adv-x="486" d="M134 379T141 380Q140 415 140 493Q140 562 142 616T148 679H161Q241 679 283 686V663L303 666Q305 556 305 500Q305 462 303 374H315Q329 374 347 372L374 371Q396 371 414 378Q414 369 416
353Q425 354 434 358Q434 350 436 336L437 309Q437 294 435 266Q433 244 433 236Q433 217 449 201L355 203Q349 203 331 203T306 202T299 197Q299 188 302 177Q368 173 371 173Q459 166 479 166L477 147L499 146Q490 12 490 -28H398Q268 -28 221 -26T160 -13L161
-1Q145 2 140 7Q142 21 142 53V86Q142 128 140 206H60Q52 206 46 207T31 211V226Q21 226 11 231Q11 283 10 313T8 351Q8 381 64 381L92 380Q101 379 120 379Q134 379 141 380ZM127 368T120 368Q111 368 91 370L66 371Q18 371 18 354Q18 348 19 320T21 237Q22 236
28 236H86Q123 236 148 235Q152 175 152 86V55Q152 25 150 11Q158 5 196 4T326 2H460Q460 46 468 157L401 161Q289 168 283 168Q281 170 276 191T271 224Q271 230 279 231T309 233H341Q377 233 404 232Q402 234 402 243Q402 248 404 270Q407 321 407 328Q407 341
405 365H404Q396 361 376 361Q359 361 314 364Q305 364 273 366Q275 472 275 519Q275 564 273 674V675Q245 669 182 669H156Q150 657 150 493V442Q150 393 152 370H143Q127 368 120 368Z" />
<glyph unicode="&#xa4;" glyph-name="currency" horiz-adv-x="607" d="M141 659L142 660L186 610L224 568L236 571Q270 577 300 577Q341 577 388 570L421 608L485 680L603 579L601 577L623 559Q593 526 538 463Q550 437 554 411T559 344V325Q559 282 554 246T532
180Q571 128 607 113L601 108Q615 97 627 93L595 67Q585 64 559 38Q538 18 523 7T494 -5Q487 -5 472 15H471L399 87Q349 79 306 79Q267 79 224 87Q181 29 156 -5Q143 -5 128 5T86 40Q82 44 68 56T43 76T21 87L26 93Q15 102 1 107L77 198L81 202Q73 228 71 247T68
295V336Q68 434 81 490L46 530Q45 532 44 532T42 535V534Q29 547 4 580L122 680L141 659ZM18 578Q37 553 49 542Q70 521 92 491Q78 441 78 317Q78 277 80 252T92 201V200Q88 195 84 191T77 182Q57 156 48 146L18 111Q27 107 60 77Q89 51 105 38T131 25L200 118Q242
109 286 109Q339 109 385 119Q410 89 429 72Q451 52 476 25Q489 25 530 64Q533 67 547 79T570 95L589 111Q559 125 500 200Q519 237 524 278T529 381Q529 440 506 484L540 523Q547 530 589 578L486 666Q488 668 436 610L391 559Q341 567 300 567Q281 567 251 562L217
558L121 666L18 578ZM425 459T425 373Q425 316 412 272T357 223H355Q342 223 318 219Q294 215 281 215Q236 215 216 228T190 268T184 350Q184 392 195 416T236 452Q273 459 304 459Q425 459 425 373ZM232 415T223 391T214 329L213 293Q213 263 219 246T243 227Q253
225 265 225T281 225Q293 225 317 229Q343 233 357 233H356Q415 241 415 374Q415 409 391 419T328 429Q300 429 258 422L259 423Q232 415 223 391Z" />
<glyph unicode="&#xa5;" glyph-name="yen" horiz-adv-x="530" d="M467 221T456 221Q410 221 380 220T346 213H356L403 214Q436 214 474 212V193Q481 192 494 192V160L493 126Q493 110 499 81H474Q389 81 289 76Q283 64 269 29Q256 -8 244 -31Q224 -27 201 -27L168
-28Q142 -30 123 -30Q115 -30 85 -28Q85 -18 88 -9L65 -8Q69 31 88 70L89 74Q71 74 60 75T37 85V96Q27 98 17 105V138Q17 161 18 177T26 210Q56 208 62 208Q143 208 143 215H139L107 214Q72 214 39 223Q37 234 35 236T28 240T19 243Q16 263 16 280Q16 286 16 305T21
345Q64 350 135 350H163Q181 350 192 351Q177 398 141 489Q114 554 98 602T72 703Q84 701 100 701L153 702Q191 704 210 704Q220 704 227 700T242 682Q245 681 255 681Q262 662 266 648T273 624Q277 613 284 590T298 547Q307 565 349 660L361 689Q364 694 402 697T474
701Q507 701 526 697L520 680Q533 680 546 677Q485 495 410 351L417 352H433Q461 352 474 343V331Q478 329 484 327T494 323V263V250Q494 237 496 232L485 219Q467 221 456 221ZM464 259T464 270T464 286V338L463 339Q456 343 436 343L398 342Q374 342 366 348Q451
502 513 689Q495 691 474 691Q377 691 369 683Q322 570 290 512Q270 554 244 640Q235 671 228 692Q217 693 197 693L156 692Q128 690 114 690Q106 690 84 692Q92 650 107 607T150 495Q189 398 205 343L206 341Q168 339 151 339H97Q53 339 30 336H28L27 304Q26 295
26 278Q26 273 28 251Q39 246 54 245T85 244L148 245H166L167 244Q162 239 157 223T148 202V201L107 200Q75 198 57 198Q40 198 32 199Q27 184 27 147V111V110Q38 104 52 104T69 104H92Q104 104 111 101L97 66Q90 49 84 31T76 1H79Q87 0 103 0Q117 0 145 2L184
3Q203 3 219 0L220 1Q226 14 236 42Q253 89 263 106Q363 111 441 111H466Q464 125 464 131V202Q448 203 412 203L300 202L301 203Q307 212 310 223Q315 236 320 242T336 248Q352 248 384 250L432 251Q444 251 466 249V250Q464 259 464 270Z" />
<glyph unicode="&#xa6;" glyph-name="brokenbar" horiz-adv-x="147" />
<glyph unicode="&#xa7;" glyph-name="section" horiz-adv-x="867" />
<glyph unicode="&#xa8;" glyph-name="dieresis" horiz-adv-x="349" d="M46 496T45 500T44 512H27Q23 532 23 566L24 606Q25 615 25 631Q37 635 57 637T96 640Q133 640 154 630V616Q159 614 164 613T174 610Q173 593 171 556T165 491L47 492Q46 496 45 500ZM220
496T219 500T218 512H201Q197 532 197 566L198 606Q199 615 199 631Q211 635 231 637T270 640Q307 640 328 630V616Q333 614 338 613T348 610Q347 593 345 556T339 491L221 492Q220 496 219 500ZM138 523Q138 537 141 578T144 624Q133 629 96 629Q54 629 35 623Q35
615 34 600T33 562Q33 537 36 522H138V523ZM312 521V523Q312 537 315 578T318 624Q307 629 270 629Q228 629 209 623Q209 615 208 600T207 562Q207 537 210 522H213L310 521H312Z" />
<glyph unicode="&#xa9;" glyph-name="copyright" horiz-adv-x="553" d="M520 171T487 142T415 103T316 87Q290 85 276 83Q144 83 86 153Q41 192 35 246V245Q26 299 26 373Q26 428 33 466T69 538Q105 582 158 596T286 610Q334 610 372 602T452 567Q456 567 470
554T491 533Q524 506 537 468T550 379Q550 356 547 329T543 292Q537 250 536 228V227Q520 171 487 142ZM519 452T505 490T456 553L444 561Q384 600 286 600Q187 600 117 568T40 446Q36 405 36 358Q36 280 49 229T111 146T255 113L278 115Q341 120 381 128T456 165T506
249Q507 263 511 293Q512 302 516 336T520 400Q519 452 505 490ZM446 301T431 252T361 195Q331 189 266 187L215 184Q169 187 146 209T116 262T109 341V376Q109 437 125 475T193 522Q214 522 233 525Q259 527 272 527Q390 527 428 482Q447 457 447 408L446 374Q446
301 431 252ZM283 433T288 423T294 399T296 380Q312 376 331 376Q349 376 352 382T356 406Q356 444 327 470T259 497Q231 497 209 480T186 427V424L185 347Q185 291 189 264T210 224T260 211Q303 211 329 234T355 298Q355 314 352 320T329 326H298Q297 319 297
305T290 283T269 275Q250 275 247 293T243 342V377Q243 409 244 416T248 426Q250 428 256 429T267 433Q283 433 288 423ZM283 400T281 400L275 398V392Q273 366 273 324Q273 301 274 292V286Q285 288 287 299T289 321T288 336H324Q327 336 338 336T355 331T363
315Q376 315 380 307T384 286Q384 261 375 240T347 203Q389 203 408 233T432 300T436 387V416Q435 437 433 448T424 470Q405 484 364 493H365Q349 495 331 496T305 497Q337 481 362 450T387 386Q387 375 380 349Q364 346 350 346Q331 346 306 351Q306 362 304 365T296
369Q291 370 288 373T285 390L284 401Q283 400 281 400ZM188 476T204 489Q162 477 151 445T139 358Q139 234 154 214Q176 199 214 194Q222 194 229 195Q195 212 185 243T175 348L176 423V427Q176 441 182 453V452Q188 476 204 489Z" />
<glyph unicode="&#xaa;" glyph-name="ordfeminine" horiz-adv-x="276" d="M269 701T270 698T271 691V588L272 545Q272 493 269 469V466V457Q269 449 266 445T253 439H229L213 440L201 439H188Q177 441 174 455Q148 438 119 438Q87 438 66 468Q40 485 28 524T15
605Q15 661 42 697T110 733Q122 733 134 732T154 726Q154 734 156 736T162 738Q165 738 169 737T179 736H190L239 733L249 723Q249 715 251 713H259L269 703Q269 701 270 698ZM170 726Q164 726 163 720T162 699Q157 715 145 719T110 723Q74 723 50 690T25 605Q25
555 44 512T99 468Q117 468 136 476T167 498Q167 493 166 489T164 480Q164 471 170 469L193 470L226 469H232Q239 470 239 476V490L240 525Q241 536 241 559L240 658Q240 690 241 707V711Q241 714 240 717T239 723L189 726H170ZM155 654T159 650T164 630V602Q164
575 163 564T156 546T133 539Q113 539 100 555T87 595Q87 613 91 621Q93 636 105 645T138 654Q155 654 159 650ZM117 590T117 575Q117 563 119 556T133 549Q147 549 150 559T154 596V624Q126 623 121 599L120 597Q117 590 117 575Z" />
<glyph unicode="&#xab;" glyph-name="guillemotleft" horiz-adv-x="583" d="M356 84L377 65L343 32Q319 8 283 -22Q251 10 187 66Q124 121 82 163T0 262Q44 319 134 407L194 468L199 473Q216 492 257 533Q271 525 285 511T303 493Q330 465 348 453Q346 451 346
450Q357 439 368 433Q343 402 311 369T272 327Q225 278 193 241L248 187L281 155Q334 104 357 85L356 84ZM582 79T587 75T599 65L580 48L564 32Q540 8 504 -22L482 0Q453 29 395 79Q331 136 294 173T221 262Q265 319 355 407L415 468L420 473Q437 492 478 533Q498
522 529 489Q551 466 569 453Q567 451 567 450Q578 439 589 433Q564 402 532 369T493 327Q446 278 414 241Q506 145 579 85L577 83Q582 79 587 75ZM343 85Q302 119 241 180Q187 234 158 259Q184 292 254 364Q307 417 334 451Q323 458 299 484Q296 487 283 500T258
520Q192 450 153 411L103 360Q42 299 13 262Q45 219 80 184T171 99Q243 34 264 12L265 11Q285 28 303 46L332 75L343 85ZM564 85Q523 119 462 180Q408 234 379 259Q405 292 475 364Q528 417 555 451Q544 458 520 484Q517 487 504 500T479 520Q413 450 374 411L324
360Q263 299 234 262Q266 219 301 184T392 99Q464 34 485 12L486 11Q506 28 524 46L553 75L564 85ZM358 85H357L360 88L358 85ZM377 65L380 68L378 65H377Z" />
<glyph unicode="&#xac;" glyph-name="logicalnot" horiz-adv-x="471" d="M386 241H366V272L365 382Q278 382 156 386T31 393V411Q13 411 11 413V427L10 482Q15 482 44 482T151 483Q421 483 444 473V457Q455 456 464 453Q464 424 463 397L461 257V221H386V241ZM431
266L433 322Q435 380 435 411Q435 434 434 443L433 467L434 470H410Q302 472 130 472H20V457L21 424V417L39 416L175 414Q315 412 375 412V363L376 271V251H431V266Z" />
<glyph unicode="&#xad;" glyph-name="uni00AD" horiz-adv-x="369" d="M345 316L342 296H365Q360 258 360 254V242L361 218H316L61 219H47V239H27V259L26 304L36 314L345 316ZM36 289L37 256V249H57L175 248H331V289L333 306H253L137 305Q106 304 61 304H36V289Z" />
<glyph unicode="&#xae;" glyph-name="registered" horiz-adv-x="553" d="M514 162T481 136T410 101T313 87Q302 85 276 83Q144 83 86 153Q41 192 35 246V245Q26 299 26 373Q26 428 33 466T69 538Q105 582 158 596T286 610Q334 610 372 602T452 567Q458 567 472
553T489 535Q522 507 536 468T550 377Q550 320 537 236V237Q535 231 534 224T533 214H532Q514 162 481 136ZM519 450T506 488T456 553L444 561Q384 600 286 600Q187 600 117 568T40 446Q36 405 36 358Q36 280 49 229T111 146T255 113L283 115Q341 119 379 127T451
160T503 237Q511 262 515 308T519 397Q519 450 506 488ZM446 301T431 252T361 195L346 192L266 186Q255 185 238 185Q166 185 139 212T112 288L111 316Q109 356 109 376Q109 397 110 408L113 441Q115 469 140 496T198 523Q230 527 272 527Q390 527 428 482Q447
457 447 408L446 374Q446 301 431 252ZM308 338Q337 340 354 364T372 416Q372 459 342 482T263 505Q236 505 182 498Q186 478 186 304Q186 214 184 214H194Q236 214 255 219L253 245Q251 275 251 292V304Q251 314 253 318L254 316Q267 303 276 285T299 237L312
214H322L352 215Q361 216 377 216Q365 249 328 302Q307 333 305 337L308 338ZM402 367T386 342T341 310Q347 298 365 272Q368 268 378 253T396 222Q416 238 424 265T434 317T436 387V416Q435 437 433 448T424 470Q408 480 384 487T340 495Q402 448 402 396Q402
367 386 342ZM148 452T143 420L140 387L139 362Q139 343 141 303V304Q142 294 142 276Q142 251 144 238T157 214T191 198H190Q200 196 204 196L203 204L194 203Q188 203 186 203T184 204L179 206Q176 206 176 259V304Q176 337 174 399L173 473Q148 452 143 420ZM283
448T292 441T301 418Q301 389 268 389Q261 389 243 391H242V416Q242 435 241 442Q256 448 269 448Q283 448 292 441ZM290 399T290 417H284Q275 417 271 416V399Q290 399 290 417ZM280 249T282 231Q285 216 285 197L316 200Q312 204 305 204Q298 213 293 228Q288
236 285 244T280 258Q280 249 282 231Z" />
<glyph unicode="&#xb0;" glyph-name="degree" horiz-adv-x="298" d="M48 402T32 434T15 504L16 535Q16 591 38 620T106 658H114L139 659Q146 660 160 660Q177 660 195 655Q207 651 213 650L214 649H213Q243 640 254 629H253L274 609H273Q291 593 297 572T303 519V510Q303
466 288 430T235 382H236Q212 371 161 371Q126 371 96 380L95 381Q48 402 32 434ZM160 401T192 406L202 408Q242 421 257 452T273 530V552Q273 593 246 621T160 650H141Q83 650 55 623T26 535Q26 526 26 509T29 480L31 466Q34 447 45 435T79 410Q109 401 141 401Q160
401 192 406ZM217 591T217 546Q217 514 210 491T179 463H178Q170 463 156 461T136 459Q112 459 102 465T88 486T85 531Q85 555 91 568T113 588Q131 591 151 591Q217 591 217 546ZM123 554T120 544T116 515V494L117 470L135 469Q153 469 168 472H174Q194 472 200
496T207 544Q207 561 177 561Q156 561 135 558L136 559Q123 554 120 544Z" />
<glyph unicode="&#xb1;" glyph-name="plusminus" horiz-adv-x="501" d="M177 238Q176 239 176 243Q161 241 158 240L157 259V258Q154 278 154 294L155 312V351Q70 359 58 368L59 381Q42 384 38 388L39 418Q39 466 36 502L35 540Q37 539 55 539Q83 539 116 541T162
545Q162 605 166 644T171 685Q193 671 226 671Q251 671 264 672L304 673Q322 673 336 671V652Q351 652 356 651V569L355 546L380 547Q436 547 459 543L458 525Q465 525 479 523Q478 509 478 484V440Q478 395 474 363Q460 356 394 356Q364 356 357 355Q357 342 352
279Q349 252 349 238Q349 224 308 224Q286 224 274 225L237 226Q220 226 202 224T178 220L177 239V238ZM177 256Q201 256 217 255L282 254Q319 254 319 258V260Q319 275 322 300Q326 348 326 370V382Q335 387 397 387Q441 387 445 389Q448 414 448 459Q448 506
449 534Q434 537 389 537H356L339 536Q332 536 329 540T326 558V662H312L228 661Q190 661 181 666Q178 647 175 606T172 536Q168 534 117 530T49 526H45Q45 519 47 480T50 414L49 393Q49 387 92 384T161 381H163Q166 378 166 334L165 292V279Q165 267 167 259V257L168
256H177ZM20 104L21 181H484V161H504L503 104Q502 86 502 53Q502 9 507 -26L48 -19L38 -9V1H28L18 11L20 104ZM477 4Q472 33 472 71L473 121Q474 138 474 171H31L30 132L28 11Q32 11 48 11T102 10Q294 4 437 4H477Z" />
<glyph unicode="&#xb2;" glyph-name="uni00B2" horiz-adv-x="264" d="M41 305L42 323L21 325Q23 367 23 381Q23 405 26 420T39 452Q56 469 91 493L79 492Q76 492 66 492T50 496T44 513L27 515Q23 530 23 554Q23 606 53 636T141 666Q203 666 234 621T265 510Q262
479 244 463T191 429Q166 417 153 408H231Q234 401 236 388H251Q257 370 257 347V329L256 306L73 303L41 305ZM228 336L226 344Q226 351 227 358T228 373Q228 390 224 398L112 397Q110 399 110 402Q110 422 123 433T166 459Q198 474 215 489T235 531Q235 589 217
622T141 656Q86 656 60 629T33 554Q33 539 36 524V523L59 522Q78 522 103 525V526Q103 547 110 564T138 581Q149 579 155 570T161 549Q161 530 147 517T102 486Q66 466 48 447Q39 432 37 416T33 371Q33 347 32 335V333H53L226 336H228ZM151 531T151 549Q143 546
140 539T134 519L136 521Q151 531 151 549Z" />
<glyph unicode="&#xb3;" glyph-name="uni00B3" horiz-adv-x="254" d="M253 407T248 374T219 321T143 301Q88 301 66 320V321L60 323Q55 327 51 333T45 341L46 340L47 341L40 343Q25 357 22 377T18 416T19 441Q32 441 52 443Q70 445 82 445Q91 445 94 443T102 434T111
424H116Q116 416 129 416Q138 416 142 423L141 422Q144 427 144 433H138Q122 433 108 430Q102 440 100 452L88 450Q79 469 79 488L80 502V522H38V542H18V562L17 574Q17 591 21 600L20 599Q29 630 59 646T128 663Q166 663 197 645T245 599L244 600Q252 590 252 571V561L253
473Q253 407 248 374ZM223 401T223 463V505L222 582V591Q222 619 194 636T128 653Q87 653 57 633T27 576L28 553L55 552H63L88 553Q91 564 104 572T130 580Q154 580 154 556Q154 539 144 534T115 529Q101 529 90 526L91 516Q91 508 90 500T89 484Q89 469 93 462Q102
465 114 465Q131 465 142 457T154 433Q154 420 146 413T128 405Q116 405 105 414T89 434H82Q71 434 55 432L34 431H28Q30 411 30 403Q32 381 35 370T47 351Q50 350 68 341T123 331Q158 331 180 342T213 378Q223 401 223 463ZM139 539T143 550Q131 545 125 539Q139
539 143 550Z" />
<glyph unicode="&#xb4;" glyph-name="acute" horiz-adv-x="255" d="M273 599T237 566H238Q177 516 166 496Q145 493 112 493Q83 493 53 496T5 504L20 517Q12 519 2 520T-15 524Q22 556 75 612Q137 676 174 705L193 684L194 685L275 601Q273 599 237 566ZM138 665T62
585Q6 529 6 529Q24 523 91 523H112Q131 523 140 525Q146 537 175 563T210 593L241 621L242 622L173 692Q138 665 62 585Z" />
<glyph unicode="&#xb5;" glyph-name="uni00B5" horiz-adv-x="458" d="M258 -19T207 -25Q207 -103 210 -145Q210 -150 210 -157T211 -182Q205 -190 191 -192T153 -195Q124 -195 109 -194H110L87 -193Q65 -193 50 -198V-174Q39 -174 30 -178V-134L29 49Q29 124 32
283Q35 352 35 453Q35 477 33 507Q68 512 116 512H178Q178 499 179 492H198Q201 461 201 371V321Q201 263 203 232T215 176Q229 174 235 174Q263 174 275 192T288 260Q288 302 285 345Q284 359 283 380T282 429Q282 471 287 506Q326 510 353 510H361Q391 510 432
514V492Q438 492 452 494L453 305Q455 179 455 114Q455 62 453 -28Q434 -28 421 -29T398 -31Q371 -34 343 -34Q320 -34 311 -29T302 -12Q290 -9 285 -4Q258 -19 207 -25ZM222 9T248 18T291 54Q292 45 292 39T291 29Q291 25 293 1Q294 -4 321 -4Q349 -4 393 0L423
2Q425 106 425 154Q425 215 423 331L422 503Q398 500 384 500H334Q321 500 296 497Q291 468 291 427Q291 399 292 378T294 343Q298 287 298 258Q298 205 283 185T235 164Q207 164 194 178T178 212T173 270Q171 285 171 318V352V427V459Q171 489 169 502L111 503Q75
503 44 498L45 448Q45 394 43 302Q39 174 39 8V-70Q39 -118 39 -138T40 -164Q42 -163 56 -163Q77 -163 90 -164L135 -165Q157 -165 167 -164T181 -158Q181 -146 181 -140T180 -131Q177 -118 177 -61V4Q222 9 248 18Z" />
<glyph unicode="&#xb6;" glyph-name="paragraph" horiz-adv-x="672" d="M662 718H682L683 665Q685 601 685 568Q674 551 635 551Q627 551 605 553L584 554Q584 474 583 399T581 263Q577 43 577 -48Q577 -184 580 -221Q572 -229 558 -232T522 -235Q493 -235 478
-234H479L455 -233Q433 -233 418 -238Q418 -231 420 -213Q405 -215 398 -218Q409 -72 409 279Q409 472 411 555Q399 556 375 556Q368 185 368 -10Q368 -162 372 -221Q364 -229 350 -232T314 -235Q285 -235 270 -234H271L247 -233Q225 -233 210 -238Q210 -231 212
-213Q197 -215 190 -218Q200 -109 200 104Q200 166 198 286L191 285Q129 285 93 312T21 408Q9 460 9 527Q9 603 20 652T73 720Q91 728 112 730T168 734Q176 734 188 734T218 737L662 740V718ZM219 727Q206 726 182 726Q133 724 106 720T58 698T28 645Q19 582 19
526Q19 464 31 412Q58 359 84 337T158 315Q176 315 208 320Q210 184 210 104Q210 -105 201 -204Q203 -203 217 -203Q238 -203 251 -204L296 -205Q318 -205 328 -204T342 -198Q338 -139 338 10Q338 215 345 586L422 585Q419 482 419 248Q418 58 417 -33T409 -204Q411
-203 425 -203Q446 -203 459 -204L504 -205Q526 -205 536 -204T550 -198Q547 -161 547 -26Q547 133 554 525L555 584L575 583Q603 581 614 581Q650 581 655 591Q655 624 653 686Q652 706 652 728L557 730H395L219 727Z" />
<glyph unicode="&#xb7;" glyph-name="middot" horiz-adv-x="164" d="M136 382H156L157 328Q159 270 159 242Q153 231 144 228T121 224L95 225Q70 225 50 224V245L30 244Q30 263 28 301Q26 347 26 382V403L136 402V382ZM36 377Q36 346 38 304Q40 270 40 255H59L102
254Q123 254 129 264Q129 296 127 352Q126 370 126 392L36 393V377Z" />
<glyph unicode="&#xb8;" glyph-name="cedilla" horiz-adv-x="190" d="M180 -15L206 -16Q203 -26 177 -105L154 -178H70Q48 -178 38 -176T27 -167L30 -158Q7 -156 7 -147Q32 -78 48 -31Q51 -21 64 18Q71 10 75 8T87 6L186 4L180 -15ZM77 -2L68 0Q61 -19 58 -29T52
-46Q50 -51 17 -147Q17 -148 31 -148L126 -147L141 -102Q170 -19 173 -6L87 -4L77 -2Z" />
<glyph unicode="&#xb9;" glyph-name="uni00B9" horiz-adv-x="187" d="M175 310T164 307T143 304T129 305Q102 305 87 312V326Q84 326 78 327T67 332V380Q67 433 72 501Q57 505 40 513T22 525Q22 530 23 532Q2 541 2 545Q2 554 12 573T33 611Q53 644 53 651L84
652H103Q112 652 157 649Q157 635 160 632T177 629Q180 600 180 562V547Q180 517 178 453Q175 404 175 352V322Q175 310 164 307ZM145 424T148 472Q150 536 150 567V604Q150 616 148 640Q118 642 103 642L63 641Q62 639 37 601T12 545Q12 542 32 537T63 529Q69
529 74 541T83 553V545Q83 504 80 463Q79 449 78 429T77 380V338Q113 335 120 335Q132 335 138 336T145 342V372Q145 424 148 472Z" />
<glyph unicode="&#xba;" glyph-name="ordmasculine" horiz-adv-x="254" d="M41 609Q42 609 44 612T47 618Q64 637 82 647T126 657Q168 657 197 630T242 565T258 491V465Q258 404 230 355T147 305Q94 305 65 343Q35 366 26 405T16 493Q16 533 20 560T42 612L41
610V609ZM26 420T45 378T127 335Q177 335 202 380T228 483V511Q228 563 204 605T128 647Q105 647 81 636T50 606Q34 583 30 556T26 486Q26 420 45 378ZM92 534T99 555T126 577Q145 577 150 549T156 478Q156 446 150 426T125 405Q120 405 116 408Q103 411 98 434T92
485Q92 534 99 555ZM132 546T127 528T122 465Q122 439 127 419L126 417L127 415Q127 416 128 416H129Q137 420 139 428T143 447T145 464V472Q146 481 146 500Q146 529 142 546Q132 546 127 528Z" />
<glyph unicode="&#xbb;" glyph-name="guillemotright" horiz-adv-x="583" d="M204 58T175 32Q145 5 117 -23Q55 31 51 37T41 49L23 68L4 86Q46 121 108 183Q162 235 190 260Q179 273 125 329Q119 335 82 374T14 453Q31 463 57 491Q59 493 73 507T105 532L125 512L183
453L188 448L248 387L251 384Q265 367 284 347T315 314Q362 267 382 242Q363 216 351 203L411 260Q400 273 346 329Q340 335 303 374T235 453Q252 463 278 491Q280 493 294 507T326 532L354 503L409 448Q423 434 439 416Q464 391 469 387L472 384Q486 367 505 347T536
314Q583 267 603 242Q567 195 529 157T433 67Q369 9 338 -23Q276 31 272 37T262 49L244 68L228 82Q204 58 175 32ZM46 59Q73 32 97 11L98 12Q127 42 191 100Q251 155 284 187T349 262Q320 299 259 360L209 411Q170 450 104 520Q90 512 63 483Q36 456 28 451Q43
431 72 401T113 358Q187 279 204 259Q175 234 121 180Q60 119 19 85L30 75L46 59ZM267 59Q294 32 318 11L319 12Q348 42 412 100Q472 155 505 187T570 262Q541 299 480 360L430 411Q391 450 325 520Q311 512 284 483Q257 456 249 451Q264 431 293 401T334 358Q408
279 425 259Q396 234 342 180Q281 119 240 85L251 75L267 59Z" />
<glyph unicode="&#xbc;" glyph-name="onequarter" horiz-adv-x="595" d="M241 -27T235 -28T219 -30T204 -30Q195 -30 186 -29T168 -28Q149 -28 129 -34L137 -8Q120 -10 109 -14Q129 45 203 253Q256 397 291 502T358 721Q368 718 380 718L420 719Q455 719 468 708L464
698Q481 695 488 688L426 501L402 429Q299 126 245 -16L244 -18Q241 -27 235 -28ZM260 122T301 241T403 542L457 704V705Q451 710 430 710L402 709Q394 708 378 708Q367 708 365 709Q339 611 308 520T219 267Q155 91 125 1Q126 2 138 2Q158 2 169 1L199 0Q211 0
212 1L214 5L216 8Q260 122 301 241ZM200 282T188 278T159 273Q133 273 101 278V296Q91 296 81 298V355Q81 416 86 498Q78 500 68 504L48 512Q25 521 25 526Q25 531 26 533Q5 542 5 546Q7 562 35 610T71 666H97L120 667Q147 667 181 665Q181 651 184 648T192 644T201
645Q204 612 204 568V552Q204 495 201 439Q199 365 199 327V310Q199 299 200 293V292Q200 282 188 278ZM169 347Q169 403 172 460Q174 534 174 572V613Q174 625 172 655Q138 657 120 657L75 656Q69 650 43 605T15 545Q15 542 42 535T75 527Q82 527 88 541T96 555Q97
553 97 545Q97 498 94 450Q93 435 92 406T91 355V306L114 305Q130 303 139 303Q151 303 160 305T170 312Q169 315 169 321V347ZM560 -24T548 -25T504 -27H471V-7H451V81H421Q389 81 380 83T367 102Q364 103 357 103T347 120T344 178Q344 186 345 189T351 199Q373
236 459 365H496L555 366V345L575 346V229L574 190H585L584 171Q587 170 594 170H605L600 72H584Q584 72 567 75V65Q567 53 564 45L562 22Q561 7 563 -4T566 -18Q560 -24 548 -25ZM570 180T565 181T553 183Q548 183 547 182Q545 190 545 233V356H502L464 355Q422
292 366 204L354 186V175Q354 133 359 113V112Q360 111 375 111H443Q461 111 462 110L461 55V3H514Q532 3 535 8T539 32Q539 47 540 57V58L542 77Q542 85 543 88L545 102Q547 103 553 103H563Q569 103 571 104H572L575 180Q570 180 565 181ZM479 181L435 180L429
181Q432 184 441 199Q477 253 481 253L482 252L480 182L479 181Z" />
<glyph unicode="&#xbd;" glyph-name="onehalf" horiz-adv-x="602" d="M241 -27T235 -28T219 -30T204 -30Q195 -30 186 -29T168 -28Q149 -28 129 -34L137 -8Q120 -10 109 -14Q129 45 203 253Q256 397 291 502T358 721Q368 718 380 718L420 719Q455 719 468 708L464
698Q481 695 488 688L426 501L364 317Q368 323 371 327T377 335V334Q391 351 416 359T473 368Q542 368 575 322T608 213Q608 172 588 150T528 111Q497 98 482 83Q510 83 524 84L573 85Q575 80 576 76T580 65H593Q601 48 601 27V0L600 -26L400 -28L366 -27L367 -7H346Q348
31 348 42Q348 75 351 94T367 135Q381 151 402 164T427 181Q419 180 403 180Q400 180 390 180T374 184T368 200L351 203Q347 220 347 245Q347 256 349 274Q337 238 330 221Q275 60 245 -16L244 -18Q241 -27 235 -28ZM457 705Q451 710 430 710L402 709Q394 708 378
708Q367 708 365 709Q339 611 308 520T219 267Q155 91 125 1Q126 2 138 2Q158 2 169 1L199 0Q211 0 212 1L214 5L216 8Q260 122 301 241T403 542L457 704V705ZM200 282T188 278T159 273Q133 273 101 278V296Q91 296 81 298V355Q81 416 86 498Q70 502 48 512T25
526Q25 531 26 533Q5 542 5 546Q7 562 35 610T71 666H97L120 667Q147 667 181 665Q181 651 184 648T192 644T201 645Q204 612 204 568V552Q204 495 201 439Q199 365 199 327Q199 305 200 293V292Q200 282 188 278ZM169 347Q169 403 172 460Q174 534 174 572V613Q174
625 172 655Q138 657 120 657L75 656Q69 650 43 605T15 545Q15 542 42 535T75 527Q82 527 88 541T96 555Q97 553 97 545Q97 498 94 450Q93 435 92 406T91 355V306L114 305Q130 303 139 303Q151 303 160 305T170 312Q169 319 169 329V347ZM572 4T572 5L570 14Q570
23 571 31T572 49Q572 63 567 75L470 74L456 73Q442 73 442 79Q442 101 456 113T502 142Q539 161 558 179T578 233Q578 292 557 325T473 358Q414 358 386 329T357 245Q357 229 360 212L361 211Q368 210 381 210Q404 210 435 214V215Q435 239 443 257T472 275Q485
273 492 263T499 239Q499 220 483 206T433 171Q427 167 407 154T374 127Q364 111 361 90T358 38Q358 15 357 3L380 2L570 4Q572 4 572 5ZM478 242T474 233T466 206Q478 214 483 220T489 239Q489 243 488 244Q478 242 474 233Z" />
<glyph unicode="&#xbe;" glyph-name="threequarters" horiz-adv-x="626" d="M274 -27T268 -28T252 -30T237 -30Q228 -30 219 -29T201 -28Q181 -28 162 -34L170 -8Q153 -10 142 -14Q162 45 236 253Q289 397 324 502T391 721Q401 718 413 718L453 719Q488 719 501
708L497 698Q514 695 521 688L459 501L435 429Q332 126 278 -16L277 -18Q274 -27 268 -28ZM490 705Q484 710 463 710L435 709Q427 708 411 708Q400 708 398 709Q372 611 341 520T252 267Q188 91 158 1Q159 2 171 2Q191 2 202 1L232 0Q244 0 245 1L247 5L249 8Q293
122 334 241T436 542L490 704V705ZM31 422T49 424Q65 426 77 426L98 425Q101 415 111 405Q121 395 133 395Q144 395 149 403L148 402Q151 407 151 414Q151 418 141 418Q128 418 108 416Q102 428 101 438L88 436Q80 457 80 476Q80 485 81 494T82 516L33 517V536H13V557L12
569Q12 587 16 596H15Q24 630 57 648T132 666Q174 666 206 647T258 599H257Q266 585 266 565V557L267 475Q267 446 265 392V380Q261 330 236 301T148 272Q125 272 113 273T85 282V281Q77 283 72 286L36 318Q22 335 18 354T14 422Q31 422 49 424ZM177 302T200 320T230
377T237 494L236 578V585Q236 618 205 637T132 656Q88 656 55 634T22 571L23 547L53 546H62L89 547Q94 559 108 568T137 577Q161 577 161 546Q161 530 149 525T115 519Q92 519 92 512Q92 503 91 493T90 471Q90 454 94 447Q108 449 115 449Q135 449 148 440T162
414Q162 400 153 392T133 384Q119 384 107 393T90 416H89Q76 416 54 414Q32 412 24 412L23 411L26 385Q27 363 30 350T44 324Q47 323 66 313T128 302Q177 302 200 320ZM136 543T123 529Q137 530 143 533T151 546Q136 543 123 529ZM593 -22T581 -23T537 -25H504V-5H484V83H454Q422
83 413 85T400 104Q397 105 390 105T380 122T377 180Q377 188 378 191T384 201Q407 238 492 367H529L588 368V347L608 348V231L607 192H618L617 173Q620 172 627 172H638L633 74H617Q617 74 600 77V67Q600 55 597 47L595 24Q594 9 596 -2T599 -16Q593 -22 581 -23ZM603
182T598 183T586 185Q581 185 580 184Q578 192 578 235V358H535L497 357Q455 294 399 206L387 188V177Q387 135 392 115V114Q393 113 408 113H476Q494 113 495 112L494 57V5H547Q565 5 568 10T572 34Q572 49 573 59V60L575 79Q575 87 576 90L578 104Q580 105 586
105H596Q602 105 604 106H605L608 182Q603 182 598 183ZM512 183L468 182L462 183Q465 186 474 201Q510 255 514 255L515 254L513 184L512 183Z" />
<glyph unicode="&#xbf;" glyph-name="questiondown" horiz-adv-x="450" d="M318 611T318 605H336Q340 582 340 544L339 499Q338 488 338 472Q305 461 258 461Q214 461 193 471V485Q181 486 173 491Q173 513 176 561T182 626L316 625Q318 611 318 605ZM189 616V614Q189
592 184 517L183 497Q197 491 237 491Q284 491 308 499L309 569V589Q309 608 307 615H191L189 616ZM327 306T311 268T261 184Q236 151 223 129T209 88Q209 78 219 74T240 70Q251 70 258 76T276 97Q277 99 283 107T296 121T310 130Q336 132 351 132Q380 132 444
126L442 107L464 106Q461 50 434 -1T361 -86T257 -121H258Q250 -122 233 -122Q176 -122 124 -93T41 -15T9 86Q9 136 30 172T91 254L119 286Q151 333 166 404Q166 407 168 414T170 426Q170 435 167 445Q199 449 233 449Q240 449 253 449T290 448L308 449Q316 440
317 428L328 429Q335 422 336 416T338 396L336 357Q327 306 311 268ZM308 428Q308 435 304 439H303Q294 438 276 438L219 439Q206 439 180 437V436Q181 434 181 427Q181 415 176 402Q169 364 158 336T127 280Q125 277 96 243Q59 203 39 169T19 86Q19 37 45 -4T116
-68T214 -92Q275 -92 324 -64T403 13T434 117V118L406 119Q366 121 346 121Q323 121 312 120Q303 117 297 110T283 91Q272 75 263 67T241 59Q212 59 196 75T179 107Q179 127 194 153T236 214Q262 251 267 260Q284 285 291 311T306 379L308 417V428Z" />
<glyph unicode="&#xc0;" glyph-name="Agrave" horiz-adv-x="434" d="M156 903T219 836Q281 772 311 748L310 747Q324 733 331 728Q313 724 283 721T224 718Q191 718 170 721Q142 754 100 790V789Q73 811 58 827T40 847L122 930Q156 903 219 836ZM55 846L89 815Q148
760 156 750Q165 748 183 748Q271 748 290 754Q290 754 234 810Q158 890 123 917L54 847L55 846ZM429 -35T405 -35Q359 -35 315 -25Q311 -13 308 -10T301 -7T295 -5Q287 20 273 76Q265 109 260 124T248 139Q240 139 235 139T220 138Q213 119 206 77Q198 38 192
15T175 -29Q172 -29 167 -30T153 -31Q142 -30 107 -30L64 -29L12 -28L14 -8H-8Q6 89 47 296T149 709Q167 711 170 711Q174 711 196 710T288 716Q290 706 294 694L308 696Q317 667 369 436L392 333L469 -28Q429 -35 405 -35ZM338 459Q334 476 312 576T280 705Q236
701 193 701H172Q160 701 157 700Q97 499 58 303T4 2L6 1H30L109 0Q119 -1 133 -1Q144 -1 146 0L149 1Q158 16 163 37T174 93Q184 149 193 168Q204 168 211 168T222 169H235L255 167Q263 149 271 117T282 77Q292 30 302 4H303Q342 -5 385 -5Q410 -5 437 0V1L362
351L338 459ZM186 286Q198 375 197 367Q205 434 210 464T222 495Q229 495 237 448T260 286L210 285L186 286ZM235 410L219 296H248L235 410Z" />
<glyph unicode="&#xc1;" glyph-name="Aacute" horiz-adv-x="434" d="M399 824T363 791H364Q303 741 292 721Q271 718 238 718Q209 718 179 721T131 729L146 742Q138 744 127 745T111 749Q148 781 201 837Q263 901 300 930L319 909L320 910L401 826Q399 824 363
791ZM264 890T188 810Q132 754 132 754Q150 748 217 748H238Q257 748 266 750Q272 762 301 788T336 818L367 846L368 847L299 917Q264 890 188 810ZM429 -35T405 -35Q359 -35 315 -25Q311 -13 308 -10T301 -7T295 -5Q287 20 273 76Q265 109 260 124T248 139Q240
139 235 139T220 138Q213 119 206 77Q198 38 192 15T175 -29Q172 -29 167 -30T153 -31Q142 -30 107 -30L64 -29L12 -28L14 -8H-8Q56 407 149 709Q167 711 170 711Q174 711 196 710T288 716Q290 706 294 694L308 696Q317 667 369 436L392 333L469 -28Q429 -35 405
-35ZM338 459Q334 476 312 576T280 705Q236 701 193 701H172Q160 701 157 700Q97 499 58 303T4 2L6 1H30L109 0Q119 -1 133 -1Q144 -1 146 0L149 1Q158 16 163 37T174 93Q184 149 193 168Q204 168 211 168T222 169H235L255 167Q263 149 271 117T282 77Q292 30 302
4H303Q342 -5 385 -5Q410 -5 437 0V1L362 351L338 459ZM186 286Q198 375 197 367Q205 434 210 464T222 495Q229 495 237 448T260 286L210 285L186 286ZM235 410L219 296H248L235 410Z" />
<glyph unicode="&#xc2;" glyph-name="Acircumflex" horiz-adv-x="434" d="M419 749L397 729L398 727Q398 726 374 723T325 719Q321 719 305 719T272 730T235 768Q227 763 218 750Q205 735 194 727T168 719L129 721Q124 722 60 726Q62 729 73 743L40 746Q76 794
110 828T196 909L221 932L241 912L419 749ZM182 882Q134 838 108 813T59 755Q130 749 148 749Q150 749 166 751Q173 754 194 777Q213 798 218 800Q223 798 230 789T241 777Q263 751 269 751Q277 749 292 749Q325 749 351 752T382 756H384L221 918L182 882ZM429
-35T405 -35Q359 -35 315 -25Q311 -13 308 -10T301 -7T295 -5Q287 20 273 76Q265 109 260 124T248 139Q240 139 235 139T220 138Q213 119 206 77Q198 38 192 15T175 -29Q172 -29 167 -30T153 -31Q142 -30 107 -30L64 -29L11 -28L14 -8H-9L5 66Q33 228 66 385T149
709Q167 711 170 711Q174 711 196 710T288 716Q292 699 293 694L308 696Q317 645 371 420Q391 338 392 333L469 -28Q429 -35 405 -35ZM280 705Q236 701 193 701H172Q160 701 157 700Q109 539 78 387T15 63Q12 44 9 28T4 2L6 1H30L109 0Q119 -1 133 -1Q144 -1 146
0L149 1Q158 16 163 37T174 93Q184 149 193 168Q204 168 211 168T222 169H235L255 167Q263 149 271 117T282 77Q292 30 302 4H303Q342 -5 385 -5Q410 -5 437 0V1L362 351L280 705ZM186 286Q198 375 197 367Q205 434 210 464T222 495Q229 495 237 448T260 286L210
285L186 286ZM235 410L219 296H248L235 410Z" />
<glyph unicode="&#xc3;" glyph-name="Atilde" horiz-adv-x="434" d="M135 728T86 728L23 726Q24 734 29 747L3 746Q23 824 60 877T159 931Q189 931 217 912T266 865V866Q270 857 282 857Q296 857 310 878T329 919Q367 923 394 923T428 923L430 910L431 902L448
903L450 890V891Q451 884 451 873Q451 837 436 802T393 743T327 719Q292 719 260 740T216 791L207 793Q196 793 184 789T165 776L166 777L163 771V772Q160 763 160 757Q160 747 164 738L152 724Q135 728 86 728ZM130 764T130 775Q130 786 134 795L137 801Q144 812
159 817T188 823Q208 823 223 800Q234 775 256 762T305 749Q341 749 367 770T407 823T421 891Q421 903 420 910L418 913Q400 913 390 912Q354 912 336 910Q330 889 315 868T282 847Q270 847 261 854T239 876Q219 898 202 909T158 921Q62 921 17 757Q34 758 66 758Q117
758 134 754V755Q130 764 130 775ZM429 -35T405 -35Q359 -35 315 -25Q311 -13 308 -10T301 -7T295 -5Q287 20 273 76Q265 109 260 124T248 139Q240 139 235 139T220 138Q213 119 206 77Q198 38 192 15T175 -29Q172 -29 167 -30T153 -31Q142 -30 107 -30L64 -29L11
-28L14 -8H-9L5 66Q33 228 66 385T149 709Q167 711 170 711Q174 711 196 710T288 716Q290 706 294 694L308 696Q317 667 369 436L392 333L469 -28Q429 -35 405 -35ZM338 459Q334 476 312 576T280 705Q236 701 193 701H172Q160 701 157 700Q109 539 78 387T15 63Q12
44 9 28T4 2L6 1H30L109 0Q119 -1 133 -1Q144 -1 146 0L149 1Q158 16 163 37T174 93Q184 149 193 168Q204 168 211 168T222 169H235L255 167Q263 149 271 117T282 77Q292 30 302 4H303Q342 -5 385 -5Q410 -5 437 0V1L362 351L338 459ZM186 286Q198 375 197 367Q205
434 210 464T222 495Q229 495 237 448T260 286L210 285L186 286ZM235 410L219 296H248L235 410Z" />
<glyph unicode="&#xc4;" glyph-name="Adieresis" horiz-adv-x="434" d="M79 733T78 737T77 749H60Q56 769 56 803L57 843Q58 852 58 868Q70 872 90 874T129 877Q166 877 187 867V853Q192 851 197 850T207 847Q206 830 204 793T198 728L80 729Q79 733 78 737ZM253
733T252 737T251 749H234Q230 769 230 803L231 843Q232 852 232 868Q244 872 264 874T303 877Q340 877 361 867V853Q366 851 371 850T381 847Q380 830 378 793T372 728L254 729Q253 733 252 737ZM171 759V760Q171 774 174 815T177 861Q166 866 129 866Q87 866 68
860Q68 852 67 837T66 799Q66 774 69 759H72L169 758L171 759ZM345 758V760Q345 774 348 815T351 861Q340 866 303 866Q261 866 242 860Q242 852 241 837T240 799Q240 774 243 759H246L343 758H345ZM429 -35T405 -35Q359 -35 315 -25Q311 -13 308 -10T301 -7T295
-5Q287 20 273 76Q265 109 260 124T248 139Q240 139 235 139T220 138Q213 119 206 77Q198 38 192 15T175 -29Q172 -29 167 -30T153 -31Q142 -30 107 -30L64 -29L11 -28L14 -8H-9L5 66Q33 228 66 385T149 709Q167 711 170 711Q174 711 196 710T288 716Q292 699 293
694L308 696Q317 645 371 420Q391 338 392 333L469 -28Q429 -35 405 -35ZM280 705Q236 701 193 701H172Q160 701 157 700Q109 539 78 387T15 63Q12 44 9 28T4 2L6 1H30L109 0Q119 -1 133 -1Q144 -1 146 0L149 1Q158 16 163 37T174 93Q184 149 193 168Q204 168 211
168T222 169H235L255 167Q263 149 271 117T282 77Q292 30 302 4H303Q342 -5 385 -5Q410 -5 437 0V1L362 351L280 705ZM186 286Q198 375 197 367Q205 434 210 464T222 495Q229 495 237 448T260 286L210 285L186 286ZM235 410L219 296H248L235 410Z" />
<glyph unicode="&#xc5;" glyph-name="Aring" horiz-adv-x="434" d="M306 731T281 726T219 721Q191 721 174 726T145 751Q126 762 120 786T114 845Q114 869 118 887T133 921Q148 933 168 939T210 945Q240 945 267 937T308 909V907Q326 896 331 878T336 831Q336
786 321 753L320 752Q306 731 281 726ZM306 876T298 906Q285 923 259 929T204 936Q161 936 143 915T124 845Q124 811 128 793T150 763T204 751Q235 751 258 755T292 777Q306 814 306 850Q306 876 298 906ZM262 891T262 849Q262 824 257 813T243 800T214 795H204Q183
795 176 809T169 848Q169 875 186 885Q199 891 216 891Q262 891 262 849ZM199 847T199 825Q199 812 200 805H220Q241 807 246 817T252 845Q252 856 250 858T236 861Q225 861 210 856L211 857Q199 847 199 825ZM429 -35T405 -35Q359 -35 315 -25Q311 -13 308 -10T301
-7T295 -5Q287 20 273 76Q265 109 260 124T248 139Q240 139 235 139T220 138Q213 119 206 77Q198 38 192 15T175 -29Q172 -29 167 -30T153 -31Q142 -30 107 -30L64 -29L11 -28L14 -8H-9L5 66Q33 228 66 385T149 709Q167 711 170 711Q174 711 196 710T288 716Q292
699 293 694L308 696Q317 645 371 420Q391 338 392 333L469 -28Q429 -35 405 -35ZM280 705Q236 701 193 701H172Q160 701 157 700Q109 539 78 387T15 63Q12 44 9 28T4 2L6 1H30L109 0Q119 -1 133 -1Q144 -1 146 0L149 1Q158 16 163 37T174 93Q184 149 193 168Q204
168 211 168T222 169H235L255 167Q263 149 271 117T282 77Q292 30 302 4H303Q342 -5 385 -5Q410 -5 437 0V1L362 351L280 705ZM186 286Q198 375 197 367Q205 434 210 464T222 495Q229 495 237 448T260 286L210 285L186 286ZM235 410L219 296H248L235 410Z" />
<glyph unicode="&#xc6;" glyph-name="AE" horiz-adv-x="716" d="M729 100T729 74Q729 22 718 -26Q671 -26 579 -28L447 -29Q355 -29 292 -25Q291 -21 290 -16T285 -8T272 -5L264 27L257 51V50Q253 61 247 87Q240 88 209 88L201 67L202 68L195 41Q188 12 182 -5T169
-29Q143 -29 130 -28L90 -27Q77 -27 51 -29Q23 -31 10 -31L13 -9Q11 -10 6 -10Q2 -11 -10 -11Q2 57 7 89T15 136Q23 190 32 233T78 427T145 703Q279 709 557 709Q696 709 704 708Q704 694 708 691T718 687T724 688Q727 640 727 632Q727 599 726 582L725 527Q696
520 671 518T606 516H571L524 517Q489 517 458 513Q458 497 456 473L455 444V432H491Q496 432 517 432T561 428L564 410Q567 410 581 408Q586 382 586 348Q586 316 585 301L584 252Q556 245 515 245L479 246Q469 246 463 244Q462 235 461 217T460 185Q460 163 461
152Q476 151 507 151H553Q649 151 708 146V127L728 126V115Q729 100 729 74ZM652 141T553 141Q478 141 440 143H439Q430 162 430 205Q430 251 433 270Q437 274 453 275T489 276Q536 276 554 280L555 323Q556 338 556 366Q556 396 552 419Q530 422 507 422H475Q446
422 431 425Q425 439 425 464Q425 476 427 498L428 529V542Q462 547 509 547L592 546Q658 546 695 555V557Q695 588 696 604L697 652V670Q697 689 695 699V701Q334 701 153 693Q117 541 56 288Q35 204 31 177L25 141L18 98L2 -1Q12 -1 32 1L62 2L145 1L148 3Q154
31 172 91Q177 105 180 116L183 118Q210 118 218 118T229 117Q234 116 252 116V115Q256 95 260 80T267 53Q273 36 280 5Q343 1 425 1Q468 1 558 3L690 4L692 6Q699 44 699 94Q699 119 698 134V137Q652 141 553 141ZM228 283T219 284T200 285Q191 285 188 284H186Q190
328 195 349T218 421L219 418Q223 402 233 370Q235 363 243 336T254 287Q250 283 237 283Q228 283 219 284ZM229 291T238 291Q240 291 240 291T243 292L235 325L229 347Q224 333 222 318T219 294H220Q229 291 238 291Z" />
<glyph unicode="&#xc7;" glyph-name="Ccedilla" horiz-adv-x="476" d="M29 536Q38 635 94 682Q113 695 134 699T182 703H226Q284 703 328 689T406 635Q444 602 465 553T487 452Q487 431 483 404T466 377Q439 371 412 371Q386 371 323 380Q322 383 320 388T315
396T303 400Q295 422 293 456Q290 485 285 497T261 510Q228 510 217 479T205 394L206 329V295Q206 238 212 200T238 156H236Q238 155 245 155Q268 155 279 165T295 191T302 241Q303 254 307 284Q330 284 343 285L387 286Q428 286 454 278Q456 266 459 263T474 258Q487
214 487 180Q487 125 464 77T398 -3T299 -39Q298 -40 298 -44L269 -158Q258 -157 242 -157L211 -158Q203 -159 188 -159H181Q169 -159 165 -157T161 -145V-139Q146 -139 144 -137T141 -125Q141 -118 151 -80Q161 -42 162 -37Q98 -29 63 34T25 184V194Q23 280 23
339Q23 450 28 525V529Q28 534 30 538L29 536ZM33 288T35 194V184Q38 103 66 48T159 -8Q170 -8 177 -7V-10Q174 -30 161 -82Q151 -115 151 -125Q151 -129 162 -129L190 -128Q212 -126 225 -126L241 -127V-125Q249 -99 261 -50Q264 -34 271 -9L274 -10Q328 -8 370
22T434 100T457 200Q457 232 446 270Q427 276 388 276L346 275Q335 274 316 274L313 242Q310 209 306 190T288 158T244 145Q202 145 189 189T176 306V348L175 414Q175 471 188 505T240 540Q266 540 279 528T296 500T303 454Q305 421 310 409H312Q368 401 392 401Q421
401 444 407L447 408Q457 437 457 472Q457 538 423 597T331 679Q309 688 285 690T226 693H182Q129 693 103 676Q72 651 55 610T38 524Q33 449 33 339Q33 288 35 194Z" />
<glyph unicode="&#xc8;" glyph-name="Egrave" horiz-adv-x="481" d="M223 894T303 812L344 770Q361 753 368 748L367 747Q381 733 388 728Q370 724 340 721T281 718Q248 718 227 721Q199 754 157 790V789Q130 811 115 827T97 847L179 930Q223 894 303 812ZM112
846L146 815Q205 760 213 750Q222 748 240 748Q328 748 347 754Q347 754 291 810Q215 890 180 917L111 847L112 846ZM495 85T495 69Q495 21 483 -27Q439 -27 351 -29L221 -30Q132 -30 55 -24V-5L35 -4Q35 48 34 117T32 222Q29 330 29 439Q29 565 37 699Q115 703
217 705T387 708Q423 708 440 706T463 699T472 684Q488 681 490 676V677Q494 654 494 624Q494 608 492 576Q490 542 490 524Q439 512 361 512H325L286 513Q255 513 224 510Q224 495 222 471L221 438V429L239 428L278 429Q283 429 328 426Q329 423 330 417T334 408T348
406Q353 380 353 345Q353 314 352 298L351 250Q321 242 274 242Q237 242 229 240Q226 225 226 194Q226 164 227 151Q347 145 417 145Q441 145 473 147V135L474 126Q486 126 493 127V115Q495 85 495 69ZM448 135T420 135Q395 135 362 136T311 138Q257 141 201 141L200
142Q196 167 196 214Q196 246 200 267Q204 270 218 271T249 272Q301 272 321 278L322 365Q322 400 319 417V418Q292 418 278 419Q223 419 196 421L195 422Q191 437 191 460Q191 474 193 500L194 539L198 540Q216 542 237 542T265 542H344Q417 542 460 552V553L461
600Q463 632 463 648Q463 671 460 695Q460 698 387 698Q231 698 46 689Q40 592 40 449Q40 375 42 229Q45 118 45 5Q104 0 190 0Q233 0 323 2L455 3Q465 42 465 88Q465 104 463 134V136Q448 135 420 135Z" />
<glyph unicode="&#xc9;" glyph-name="Eacute" horiz-adv-x="481" d="M427 824T391 791H392Q331 741 320 721Q299 718 266 718Q237 718 207 721T159 729L174 742Q166 744 155 745T139 749Q176 781 229 837Q291 901 328 930L347 909L348 910L429 826Q427 824 391
791ZM292 890T216 810Q160 754 160 754Q178 748 245 748H266Q285 748 294 750Q300 762 329 788T364 818L395 846L396 847L327 917Q292 890 216 810ZM495 85T495 69Q495 21 483 -27Q439 -27 351 -29L221 -30Q132 -30 55 -24V-5L35 -4Q35 48 34 117T32 222Q29 330
29 439Q29 565 37 699Q115 703 217 705T387 708Q466 708 470 696Q470 688 473 685T483 680T490 676V677Q494 654 494 624Q494 608 492 576Q490 542 490 524Q439 512 361 512H325L286 513Q255 513 224 510Q224 495 222 471L221 438V429L239 428L278 429Q283 429
328 426Q329 423 330 417T334 408T348 406Q353 380 353 345Q353 314 352 298L351 250Q321 242 274 242Q237 242 229 240Q226 225 226 194Q226 164 227 151Q347 145 417 145Q441 145 473 147V135L474 126Q486 126 493 127V115Q495 85 495 69ZM448 135T420 135Q395
135 362 136T311 138Q257 141 201 141L200 142Q196 167 196 214Q196 246 200 267Q204 270 218 271T249 272Q301 272 321 278L322 365Q322 400 319 417V418Q292 418 278 419Q223 419 196 421L195 422Q191 437 191 460Q191 474 193 500L194 539L198 540Q216 542 237
542T265 542H344Q417 542 460 552V553L461 600Q463 632 463 648Q463 671 460 695Q460 698 387 698Q231 698 46 689Q40 592 40 449Q40 375 42 229Q45 118 45 5Q104 0 190 0Q233 0 323 2L455 3Q465 42 465 88Q465 104 463 134V136Q448 135 420 135Z" />
<glyph unicode="&#xca;" glyph-name="Ecircumflex" horiz-adv-x="481" d="M428 729L429 727Q429 726 405 723T356 719Q351 719 336 719T305 729T266 768Q258 763 249 750Q236 735 225 727T199 719L160 721Q155 722 91 726Q93 729 104 743L71 746Q107 794 141 828T227
909L252 932L442 743L428 729ZM213 882Q165 838 139 813T90 755Q161 749 179 749Q181 749 197 751Q204 754 225 777Q244 798 249 800Q254 798 261 789T272 777Q294 751 300 751Q308 749 323 749Q356 749 382 752T413 756H415L252 918L213 882ZM495 85T495 69Q495
21 483 -27Q439 -27 351 -29L221 -30Q132 -30 55 -24V-5L35 -4Q35 48 34 117T32 222Q29 330 29 439Q29 565 37 699Q115 703 217 705T387 708Q466 708 470 696Q470 688 473 685T483 680T490 676V677Q494 654 494 624Q494 608 492 576Q490 542 490 524Q439 512 361
512H325L286 513Q255 513 224 510Q224 495 222 471L221 438V429L239 428L278 429Q283 429 328 426Q329 423 330 417T334 408T348 406Q353 380 353 345Q353 314 352 298L351 250Q321 242 274 242Q237 242 229 240Q226 225 226 194Q226 164 227 151Q347 145 417 145Q441
145 473 147V135L474 126Q486 126 493 127V115Q495 85 495 69ZM448 135T420 135Q395 135 362 136T311 138Q257 141 201 141L200 142Q196 167 196 214Q196 246 200 267Q204 270 218 271T249 272Q301 272 321 278L322 365Q322 400 319 417V418Q292 418 278 419Q223
419 196 421L195 422Q191 437 191 460Q191 474 193 500L194 539L198 540Q216 542 237 542T265 542H344Q417 542 460 552V553L461 600Q463 632 463 648Q463 671 460 695Q460 698 387 698Q231 698 46 689Q40 592 40 449Q40 375 42 229Q45 118 45 5Q104 0 190 0Q233
0 323 2L455 3Q465 42 465 88Q465 104 463 134V136Q448 135 420 135Z" />
<glyph unicode="&#xcb;" glyph-name="Edieresis" horiz-adv-x="481" d="M118 733T117 737T116 749H99Q95 769 95 803L96 843Q97 852 97 868Q109 872 129 874T168 877Q205 877 226 867V853Q231 851 236 850T246 847Q245 830 243 793T237 728L119 729Q118 733 117
737ZM292 733T291 737T290 749H273Q269 769 269 803L270 843Q271 852 271 868Q283 872 303 874T342 877Q379 877 400 867V853Q405 851 410 850T420 847Q419 830 417 793T411 728L293 729Q292 733 291 737ZM210 760Q210 774 213 815T216 861Q205 866 168 866Q126
866 107 860Q107 852 106 837T105 799Q105 774 108 759H210V760ZM384 758V760Q384 774 387 815T390 861Q379 866 342 866Q300 866 281 860Q281 852 280 837T279 799Q279 774 282 759H285L382 758H384ZM495 85T495 69Q495 21 483 -27Q439 -27 351 -29L221 -30Q132
-30 55 -24V-5L35 -4Q35 48 34 117T32 222Q29 330 29 439Q29 565 37 699Q115 703 217 705T387 708Q466 708 470 696V697Q470 688 473 685T483 680T490 675V677Q494 654 494 624Q494 608 492 576Q490 542 490 524Q439 512 361 512H325L286 513Q255 513 224 510Q224
495 222 471L221 438V429L239 428L278 429Q283 429 328 426Q329 423 330 417T334 408T348 406Q353 380 353 345Q353 314 352 298L351 250Q321 242 274 242Q237 242 229 240Q226 225 226 194Q226 164 227 151Q347 145 417 145Q441 145 473 147V135L474 126Q486 126
493 127V115Q495 85 495 69ZM448 135T420 135Q395 135 362 136T311 138Q257 141 201 141L200 142Q196 167 196 214Q196 246 200 267Q204 270 218 271T249 272Q301 272 321 278L322 365Q322 400 319 417V418Q292 418 278 419Q223 419 196 421L195 422Q191 437 191
460Q191 474 193 500L194 539L198 540Q216 542 237 542T265 542H344Q417 542 460 552V553L461 600Q463 632 463 648Q463 671 460 695Q460 698 387 698Q231 698 46 689Q40 592 40 449Q40 375 42 229Q45 118 45 5Q104 0 190 0Q233 0 323 2L455 3Q465 42 465 88Q465
104 463 134V136Q448 135 420 135Z" />
<glyph unicode="&#xcc;" glyph-name="Igrave" horiz-adv-x="260" d="M91 899T152 834Q211 773 241 748L240 747Q254 733 261 728Q243 724 213 721T154 718Q121 718 100 721Q72 754 30 790V789Q3 811 -12 827T-30 847L52 930Q91 899 152 834ZM-15 846L19 815Q78
760 86 750Q95 748 113 748Q201 748 220 754Q220 754 164 810Q88 890 53 917L-16 847L-15 846ZM232 693H252V679Q252 600 251 540T249 440Q245 278 245 194Q245 85 251 -19Q235 -35 178 -35L133 -34Q118 -33 91 -33Q69 -33 48 -38L49 -14Q32 -16 28 -18Q35 85 35
170Q35 227 34 270T32 342Q28 456 28 515Q28 613 38 716Q52 718 56 718Q84 718 114 716Q137 713 174 713H232V693ZM151 703T97 706Q67 708 51 708H47V706Q38 625 38 516Q38 458 39 415T41 343Q45 225 45 164Q45 80 39 -4Q53 -2 62 -2Q74 -2 106 -4Q142 -6 162 -6Q210
-6 221 5Q215 113 215 223Q215 305 219 463Q220 503 221 562T222 699V703H175Q151 703 97 706Z" />
<glyph unicode="&#xcd;" glyph-name="Iacute" horiz-adv-x="259" d="M326 824T290 791H291Q230 741 219 721Q198 718 165 718Q136 718 106 721T58 729L73 742Q65 744 54 745T38 749Q75 781 128 837Q190 901 227 930L246 909L247 910L328 826Q326 824 290 791ZM191
890T115 810Q59 754 59 754Q77 748 144 748H165Q184 748 193 750Q199 762 228 788T263 818L294 846L295 847L226 917Q191 890 115 810ZM232 693H252V679Q252 600 251 540T249 440Q245 278 245 194Q245 85 251 -19Q235 -35 178 -35L133 -34Q118 -33 91 -33Q69 -33
48 -38L49 -14Q32 -16 28 -18Q35 85 35 170Q35 227 34 270T32 342Q28 456 28 515Q28 613 38 716Q52 718 56 718Q84 718 114 716Q137 713 174 713H232V693ZM151 703T97 706Q67 708 51 708H47V706Q38 625 38 516Q38 458 39 415T41 343Q45 225 45 164Q45 80 39 -4Q53
-2 62 -2Q74 -2 106 -4Q142 -6 162 -6Q210 -6 221 5Q215 113 215 223Q215 305 219 463Q220 503 221 562T222 699V703H175Q151 703 97 706Z" />
<glyph unicode="&#xce;" glyph-name="Icircumflex" horiz-adv-x="260" d="M320 729L321 727Q321 726 297 723T248 719Q244 719 228 719T195 730T158 768Q150 763 141 750Q128 735 117 727T91 719L52 721Q47 722 -17 726Q-16 729 -4 743L-37 746Q-1 794 33 828T119
909L144 932L334 743L320 729ZM105 882Q57 838 31 813T-18 755Q53 749 71 749Q73 749 89 751Q96 754 117 777Q136 798 141 800Q146 798 153 789T164 777Q186 751 192 751Q200 749 215 749Q248 749 274 752T305 756H307L144 918L105 882ZM232 693H252V679Q252 600
251 540T249 440Q245 278 245 194Q245 85 251 -19Q235 -35 178 -35L133 -34Q118 -33 91 -33Q69 -33 48 -38L49 -14Q32 -16 28 -18Q35 85 35 170Q35 227 34 270T32 342Q28 456 28 515Q28 613 38 716Q52 718 56 718Q84 718 114 716Q137 713 174 713H232V693ZM151
703T97 706Q67 708 51 708H47V706Q38 625 38 516Q38 458 39 415T41 343Q45 225 45 164Q45 80 39 -4Q53 -2 62 -2Q74 -2 106 -4Q142 -6 162 -6Q210 -6 221 5Q215 113 215 223Q215 305 219 463Q220 503 221 562T222 699V703H175Q151 703 97 706Z" />
<glyph unicode="&#xcf;" glyph-name="Idieresis" horiz-adv-x="260" d="M12 733T11 737T10 749H-7Q-11 769 -11 803L-10 843Q-9 852 -9 868Q3 872 23 874T62 877Q99 877 120 867V853Q125 851 130 850T140 847Q139 830 137 793T131 728L13 729Q12 733 11 737ZM186
733T185 737T184 749H167Q163 769 163 803L164 843Q165 852 165 868Q177 872 197 874T236 877Q273 877 294 867V853Q299 851 304 850T314 847Q313 830 311 793T305 728L187 729Q186 733 185 737ZM104 760Q104 774 107 815T110 861Q99 866 62 866Q20 866 1 860Q1
852 0 837T-1 799Q-1 774 2 759H104V760ZM278 758V760Q278 774 281 815T284 861Q273 866 236 866Q194 866 175 860Q175 852 174 837T173 799Q173 774 176 759H179L276 758H278ZM232 693H252V679Q252 600 251 540T249 440Q245 278 245 194Q245 85 251 -19Q235 -35
178 -35L133 -34Q118 -33 91 -33Q69 -33 48 -38L49 -14Q32 -16 28 -18Q35 85 35 170Q35 227 34 270T32 342Q28 456 28 515Q28 613 38 716Q52 718 56 718Q84 718 114 716Q137 713 174 713H232V693ZM151 703T97 706Q67 708 51 708H47V706Q38 625 38 516Q38 458 39
415T41 343Q45 225 45 164Q45 80 39 -4Q53 -2 62 -2Q74 -2 106 -4Q142 -6 162 -6Q210 -6 221 5Q215 113 215 223Q215 305 219 463Q220 503 221 562T222 699V703H175Q151 703 97 706Z" />
<glyph unicode="&#xd0;" glyph-name="Eth" horiz-adv-x="482" d="M43 546Q43 598 41 696Q149 715 214 715Q301 715 366 665T464 506V507Q491 420 491 327Q491 260 476 197Q451 86 415 36T341 -22Q303 -30 239 -30Q215 -30 165 -28Q111 -26 83 -26H66L65 -5L46
-6Q42 111 42 242H9V262H-11Q-11 281 -13 319Q-15 365 -15 399V420L42 419L43 546ZM-5 394Q-5 363 -3 321Q-1 287 -1 272H24Q43 272 52 271Q52 132 56 4H80Q104 4 150 2Q198 0 223 0Q284 0 319 8Q403 27 446 219Q461 291 461 347Q461 421 444 490T392 618Q363 666
318 685T214 705Q186 705 152 701T87 692L51 687Q53 589 53 546L52 409L-5 410V394ZM180 164T173 170T165 190Q165 197 166 204T167 221V278L230 277Q230 309 228 365Q227 383 227 405L168 406L169 472Q169 494 167 524Q193 534 226 534Q292 534 312 469T332 339Q332
300 325 263T306 205Q289 180 268 172T201 164Q180 164 173 170ZM308 229T315 264T322 336Q322 381 314 424T285 494L283 496Q265 504 246 504Q226 504 198 497Q199 482 199 452L198 416Q213 415 237 415V395H257L258 342Q260 280 260 247L197 248L198 175L231
176H238Q278 181 298 211L297 210Q308 229 315 264Z" />
<glyph unicode="&#xd1;" glyph-name="Ntilde" horiz-adv-x="516" d="M177 726T128 726L65 724Q66 732 71 745L45 744Q65 822 102 875T201 929Q231 929 259 910T308 863V864Q312 855 324 855Q338 855 352 876T371 917Q400 920 421 920T448 920H457Q464 920 468
916T473 900Q488 900 491 894T494 872Q494 832 478 797T432 740T368 718Q333 718 302 738T258 789L246 791Q228 791 215 782T202 755Q202 745 206 736L194 722Q177 726 128 726ZM172 762T172 773Q172 794 187 807T226 821Q240 821 249 816T265 798Q276 773 298
761T348 748Q381 748 407 768T449 820T464 888Q464 895 462 909L460 911Q442 911 432 910Q396 910 378 908Q372 887 357 866T324 845Q312 845 303 852T281 874Q261 896 244 907T200 919Q104 919 59 755Q76 756 108 756Q159 756 176 752V753Q172 762 172 773ZM496
-38T459 -38Q448 -38 422 -36Q400 -33 377 -33Q358 -33 341 -36Q339 -32 337 -27T331 -14L321 -16Q284 64 232 199Q230 121 230 83L231 -29Q205 -36 188 -36Q174 -36 142 -32Q110 -28 88 -28Q72 -28 52 -31V-8L32 -11V47Q32 105 30 227Q28 351 28 417Q28 571 38
701Q62 711 94 711Q148 711 203 695Q204 693 205 688T210 679T223 675Q230 643 306 521Q307 519 308 518T310 514Q310 539 307 569Q307 580 306 602T304 641Q304 673 309 707Q346 716 402 716Q454 716 484 710V693L504 690L503 362Q504 320 504 238V140Q504 44
506 -4L505 -18Q496 -38 459 -38ZM474 46T474 104V162V260Q474 342 473 382L474 702Q438 706 402 706Q350 706 318 699V696Q314 676 314 642Q314 626 315 604T317 571Q320 540 320 514Q320 487 316 474Q310 485 273 545Q246 589 221 632T194 687V688Q144 701 94
701Q65 701 48 695Q38 569 38 428Q38 365 40 243Q42 123 42 63V1L43 0Q57 2 66 2Q83 2 117 -2Q151 -6 166 -6Q186 -6 201 -1L202 0Q200 72 200 103Q200 200 207 294L217 267Q242 201 271 127T327 -5H328Q342 -3 351 -3Q373 -3 395 -6Q425 -8 438 -8Q469 -8 475
3L476 17Q474 46 474 104Z" />
<glyph unicode="&#xd2;" glyph-name="Ograve" horiz-adv-x="485" d="M168 903T231 836Q293 772 323 748Q321 746 343 728Q325 724 295 721T236 718Q203 718 182 721Q154 754 112 790V789Q85 811 70 827T52 847L134 930Q168 903 231 836ZM67 846L101 815Q160 760
168 750Q177 748 195 748Q283 748 302 754Q302 754 246 810Q170 890 135 917L66 847L67 846ZM480 553T483 524T487 452V390Q487 375 486 317T481 210L478 177Q470 85 438 37Q410 -2 356 -20T244 -39Q176 -39 127 -18T52 58V57Q36 84 31 119T25 203Q25 226 24 237Q19
322 19 395V432Q19 521 35 588T103 685Q166 716 241 716Q293 716 342 699T420 647Q453 614 467 580V581Q480 553 483 524ZM195 705T152 694T85 658Q50 619 40 563T29 432V397Q29 357 31 308T34 238L37 173Q39 70 86 31T224 -9Q279 -9 331 9T410 63Q441 111 448
198L451 231Q456 295 456 383V484Q456 521 453 547T438 597Q419 651 364 678T241 705Q195 705 152 694ZM331 305V271Q331 220 328 199T309 162Q297 147 277 139T236 131Q198 131 179 150T153 198T143 271Q141 303 139 316Q137 350 137 367Q137 568 248 568Q299
568 314 520T329 421L331 353V305ZM319 425Q318 433 317 464T304 517T269 538Q238 538 212 514T178 457V458Q168 414 168 347Q168 314 169 297V298Q173 270 175 242Q176 236 178 209T188 158L187 159L190 153Q209 141 236 141Q277 141 302 169L301 168Q315 185
318 201T321 266V305V353L319 421V425Z" />
<glyph unicode="&#xd3;" glyph-name="Oacute" horiz-adv-x="485" d="M433 824T397 791H398Q337 741 326 721Q305 718 272 718Q243 718 213 721T165 729L180 742Q172 744 161 745T145 749Q182 781 235 837Q297 901 334 930L353 909L354 910L435 826Q433 824 397
791ZM298 890T222 810Q166 754 166 754Q184 748 251 748H272Q291 748 300 750Q306 762 335 788T370 818L401 846L402 847L333 917Q298 890 222 810ZM480 553T483 524T487 452V390Q487 375 486 317T481 210L478 177Q470 85 438 37Q410 -2 356 -20T244 -39Q176 -39
127 -18T52 58V57Q36 84 31 119T25 203Q25 226 24 237Q19 322 19 395V432Q19 521 35 588T103 685Q166 716 241 716Q293 716 342 699T420 647Q453 614 467 580V581Q480 553 483 524ZM195 705T152 694T85 658Q50 619 40 563T29 432V397Q29 357 31 308T34 238L37 173Q39
70 86 31T224 -9Q279 -9 331 9T410 63Q441 111 448 198L451 231Q456 295 456 383V484Q456 521 453 547T438 597Q419 651 364 678T241 705Q195 705 152 694ZM331 305V271Q331 220 328 199T309 162Q297 147 277 139T236 131Q198 131 179 150T153 198T143 271Q141
303 139 316Q137 350 137 367Q137 568 248 568Q299 568 314 520T329 421L331 353V305ZM319 425Q318 433 317 464T304 517T269 538Q238 538 212 514T178 457V458Q168 414 168 347Q168 314 169 297V298Q173 270 175 242Q176 236 178 209T188 158L187 159L190 153Q209
141 236 141Q277 141 302 169L301 168Q315 185 318 201T321 266V305V353L319 421V425Z" />
<glyph unicode="&#xd4;" glyph-name="Ocircumflex" horiz-adv-x="484" d="M423 729L424 727Q424 726 400 723T351 719Q346 719 331 719T300 729T261 768Q253 763 244 750Q231 735 220 727T194 719L155 721Q150 722 86 726Q88 729 99 743L66 746Q102 794 136 828T222
909L247 932L437 743L423 729ZM208 882Q160 838 134 813T85 755Q156 749 174 749Q176 749 192 751Q199 754 220 777Q239 798 244 800Q249 798 256 789T267 777Q289 751 295 751Q303 749 318 749Q351 749 377 752T408 756H410L247 918L208 882ZM479 553T482 524T486
452V390Q486 375 485 317T480 210L477 177Q469 85 437 37Q409 -2 355 -20T243 -39Q175 -39 126 -18T51 58V57Q35 84 30 119T24 203Q24 226 23 237Q18 322 18 395V432Q18 521 34 588T102 685Q165 716 240 716Q292 716 341 699T419 647Q452 614 466 580V581Q479 553
482 524ZM194 705T151 694T84 658Q49 619 39 563T28 432V397Q28 357 30 308T33 238L36 173Q38 70 85 31T223 -9Q278 -9 330 9T409 63Q440 111 447 198L450 231Q455 295 455 383V484Q455 521 452 547T437 597Q418 651 363 678T240 705Q194 705 151 694ZM330 305V271Q330
220 327 199T308 162Q296 147 276 139T235 131Q197 131 178 150T152 198T142 271Q140 303 138 316Q136 350 136 367Q136 568 247 568Q298 568 313 520T328 421L330 353V305ZM318 425Q317 433 316 464T303 517T268 538Q237 538 211 514T177 457V458Q167 414 167
347Q167 314 168 297V298Q172 270 174 242Q175 236 177 209T187 158L186 159L189 153Q209 141 235 141Q276 141 301 169L300 168Q314 185 317 201T320 266V305V353L318 421V425Z" />
<glyph unicode="&#xd5;" glyph-name="Otilde" horiz-adv-x="484" d="M157 717T108 717L45 715Q46 723 51 736L25 735Q45 813 82 866T181 920Q211 920 239 901T288 854V855Q292 846 304 846Q318 846 332 867T351 908Q380 911 401 911T428 911H437Q444 911 448 907T453
891Q468 891 471 885T474 863Q474 823 458 788T412 731T348 709Q313 709 282 729T238 780L226 782Q208 782 195 773T182 746Q182 736 186 727L174 713Q157 717 108 717ZM152 753T152 764Q152 785 167 798T206 812Q220 812 229 807T245 789Q256 764 278 752T328
739Q361 739 387 759T429 811T444 879Q444 886 442 900L440 902Q422 902 412 901Q376 901 358 899Q352 878 337 857T304 836Q292 836 283 843T261 865Q241 887 224 898T180 910Q84 910 39 746Q56 747 88 747Q139 747 156 743V744Q152 753 152 764ZM479 553T482
524T486 452V390Q486 375 485 317T480 210L477 177Q469 85 437 37Q409 -2 355 -20T243 -39Q175 -39 126 -18T51 58V57Q35 84 30 119T24 203Q24 226 23 237Q18 322 18 395V432Q18 521 34 588T102 685Q165 716 240 716Q292 716 341 699T419 647Q452 614 466 580V581Q479
553 482 524ZM194 705T151 694T84 658Q49 619 39 563T28 432V397Q28 357 30 308T33 238L36 173Q38 70 85 31T223 -9Q278 -9 330 9T409 63Q440 111 447 198L450 231Q455 295 455 383V484Q455 521 452 547T437 597Q418 651 363 678T240 705Q194 705 151 694ZM330
305V271Q330 220 327 199T308 162Q296 147 276 139T235 131Q197 131 178 150T152 198T142 271Q140 303 138 316Q136 350 136 367Q136 568 247 568Q298 568 313 520T328 421L330 353V305ZM318 425Q317 433 316 464T303 517T268 538Q237 538 211 514T177 457V458Q167
414 167 347Q167 314 168 297V298Q172 270 174 242Q175 236 177 209T187 158L186 159L189 153Q209 141 235 141Q276 141 301 169L300 168Q314 185 317 201T320 266V305V353L318 421V425Z" />
<glyph unicode="&#xd6;" glyph-name="Odieresis" horiz-adv-x="484" d="M116 733T115 737T114 749H97Q93 769 93 803L94 843Q95 852 95 868Q107 872 127 874T166 877Q203 877 224 867V853Q229 851 234 850T244 847Q243 830 241 793T235 728L117 729Q116 733 115
737ZM290 733T289 737T288 749H271Q267 769 267 803L268 843Q269 852 269 868Q281 872 301 874T340 877Q377 877 398 867V853Q403 851 408 850T418 847Q417 830 415 793T409 728L291 729Q290 733 289 737ZM208 758V760Q208 774 211 815T214 861Q203 866 166 866Q124
866 105 860Q105 852 104 837T103 799Q103 774 106 759H109L206 758H208ZM382 760Q382 774 385 815T388 861Q377 866 340 866Q298 866 279 860Q279 852 278 837T277 799Q277 774 280 759H382V760ZM479 553T482 524T486 452V390Q486 375 485 317T480 210L477 177Q469
85 437 37Q409 -2 355 -20T243 -39Q175 -39 126 -18T51 58V57Q35 84 30 119T24 203Q24 226 23 237Q18 322 18 395V432Q18 521 34 588T102 685Q165 716 240 716Q292 716 341 699T419 647Q452 614 466 580V581Q479 553 482 524ZM194 705T151 694T84 658Q49 619 39
563T28 432V397Q28 357 30 308T33 238L36 173Q38 70 85 31T223 -9Q278 -9 330 9T409 63Q440 111 447 198L450 231Q455 295 455 383V484Q455 521 452 547T437 597Q418 651 363 678T240 705Q194 705 151 694ZM330 305V271Q330 220 327 199T308 162Q296 147 276 139T235
131Q197 131 178 150T152 198T142 271Q140 303 138 316Q136 350 136 367Q136 568 247 568Q298 568 313 520T328 421L330 353V305ZM318 425Q317 433 316 464T303 517T268 538Q237 538 211 514T177 457V458Q167 414 167 347Q167 314 168 297V298Q172 270 174 242Q175
236 177 209T187 158L186 159L189 153Q209 141 235 141Q276 141 301 169L300 168Q314 185 317 201T320 266V305V353L318 421V425Z" />
<glyph unicode="&#xd7;" glyph-name="multiply" horiz-adv-x="735" d="M698 714H718V405Q718 90 723 -11L722 -12Q720 -21 712 -25T665 -33T545 -37Q359 -37 56 -28Q56 -15 57 -8H36Q41 105 41 198Q41 312 36 455Q35 486 33 573T31 736L698 734V714ZM41 653T43
569T46 453Q51 311 51 198Q51 115 46 2Q349 -7 525 -7Q638 -7 665 -4T692 5T693 13Q687 120 687 367V499L688 724L41 726Q41 653 43 569ZM145 228Q145 527 148 643Q190 565 208 520T242 417L255 372Q240 337 230 305Q202 222 145 101V228ZM363 640L459 641Q443
590 417 536T387 474Q362 424 357 410L341 447L330 473Q327 481 304 536T267 640H363ZM585 537T586 480L587 282V208Q587 138 585 107Q573 138 537 204Q506 260 488 299T465 370Q470 401 488 441T539 544Q574 612 585 638Q585 537 586 480ZM421 610T383 610H300Q311
573 329 529T363 448L378 478Q412 548 437 611Q421 610 383 610ZM241 381T228 426Q219 462 209 493T176 567Q175 444 175 190Q191 229 208 275L220 308Q228 335 244 371Q241 381 228 426ZM548 491T525 437T495 350Q500 323 516 288T558 205L576 170Q577 209 577
288L576 481Q575 500 575 531Q548 491 525 437ZM452 99T409 97T318 95Q293 95 259 97Q273 143 323 251L356 328L463 103Q452 99 409 97ZM352 227Q347 217 329 177T299 105H318Q395 105 449 111L372 271L352 227Z" />
<glyph unicode="&#xd8;" glyph-name="Oslash" horiz-adv-x="479" d="M481 285T478 226T464 109Q447 37 392 4T253 -29H233Q214 -29 204 -31Q194 -44 183 -47T149 -50H117Q66 -50 47 -51Q44 -47 44 -39L45 -30Q30 -30 27 -31Q25 -27 25 -19Q25 5 47 63V62L48 67L49
69Q19 185 19 340Q19 394 25 506Q26 515 27 538T33 580T46 614V613Q66 653 88 675L92 679Q137 714 220 714Q239 714 271 712Q272 724 274 728T290 733Q297 732 312 732Q333 732 344 733L377 734Q414 734 434 722Q434 713 433 710Q440 708 454 702Q454 688 451 678T442
653Q435 641 435 633V631Q462 598 472 558T483 467Q483 451 481 413V367Q481 285 478 226ZM453 536T443 575T406 645V650Q406 659 414 681Q423 700 424 716Q418 721 408 722T379 723L314 722Q296 722 289 723H288Q282 723 281 713T278 701Q269 702 251 703T220
704Q183 704 153 697T98 671L95 668Q60 633 50 598T36 506Q36 499 36 489T33 465Q29 408 29 339Q29 187 59 71V67Q59 67 52 46Q32 -5 32 -18Q32 -20 33 -21Q44 -20 70 -20H122H142Q158 -20 165 -18H164L165 -17Q178 -8 178 -2H180Q191 -1 207 0T233 1Q272 1 290
3Q359 9 394 55T441 167T452 322L451 434Q453 468 453 487Q453 536 443 575ZM139 316L141 339Q143 357 145 397Q148 448 153 479T175 535T226 563L234 562Q223 526 206 475T179 392Q159 336 141 279Q138 287 138 300L139 316ZM192 500T188 483T183 450T182 430Q197
478 208 515Q192 500 188 483ZM322 382T324 350Q328 310 328 280Q328 224 318 187Q313 164 286 150T231 130L229 131Q242 168 253 201Q314 373 322 395V391Q322 382 324 350ZM319 237T319 283L309 256Q304 241 292 210T274 155Q301 168 308 190V189Q319 237 319
283Z" />
<glyph unicode="&#xd9;" glyph-name="Ugrave" horiz-adv-x="505" d="M202 899T263 834Q322 773 352 748L351 747Q365 733 372 728Q354 724 324 721T265 718Q232 718 211 721Q183 754 141 790V789Q114 811 99 827T81 847L163 930Q202 899 263 834ZM96 846L130 815Q189
760 197 750Q206 748 224 748Q312 748 331 754Q331 754 275 810Q199 890 164 917L95 847L96 846ZM504 542T504 456Q504 283 487 130Q477 52 421 3T282 -46Q219 -46 161 -23T66 45T27 147Q27 219 29 363Q32 474 32 588Q32 659 31 690Q56 690 69 691L111 692Q158
692 192 682L191 667Q194 666 201 665T212 662Q208 587 208 484Q208 340 221 164V166Q223 155 230 152T250 148Q269 148 284 159T304 190V188Q309 302 309 463Q311 609 313 682Q325 682 339 683T362 685Q394 689 416 689Q459 689 479 676V664L499 656V649Q504 542
504 456ZM454 679T415 679Q372 679 323 672Q322 630 321 571T320 479Q318 284 314 188Q309 165 291 152T250 138Q230 138 214 149T191 183Q178 339 178 504Q178 599 182 674V675Q155 682 115 682L73 681Q62 680 41 680H40L41 679L42 585Q42 475 39 364Q37 220 37
147Q38 94 71 57T155 2T262 -16Q346 -16 397 29T457 151Q474 292 474 476Q474 562 469 669V670Q454 679 415 679Z" />
<glyph unicode="&#xda;" glyph-name="Uacute" horiz-adv-x="505" d="M450 824T414 791H415Q354 741 343 721Q322 718 289 718Q260 718 230 721T182 729L197 742Q189 744 178 745T162 749Q199 781 252 837Q314 901 351 930L370 909L371 910L452 826Q450 824 414
791ZM315 890T239 810Q183 754 183 754Q201 748 268 748H289Q308 748 317 750Q323 762 352 788T387 818L418 846L419 847L350 917Q315 890 239 810ZM504 542T504 456Q504 283 487 130Q477 52 421 3T282 -46Q219 -46 161 -23T66 45T27 147Q27 219 29 363Q32 474
32 588Q32 659 31 690Q56 690 69 691L111 692Q158 692 192 682L191 667Q194 666 201 665T212 662Q208 587 208 484Q208 340 221 164V166Q223 155 230 152T250 148Q269 148 284 159T304 190V188Q309 302 309 463Q311 609 313 682Q325 682 339 683T362 685Q394 689
416 689Q459 689 479 676V664L499 656V649Q504 542 504 456ZM454 679T415 679Q372 679 323 672Q322 630 321 571T320 479Q318 284 314 188Q309 165 291 152T250 138Q230 138 214 149T191 183Q178 339 178 504Q178 599 182 674V675Q155 682 115 682L73 681Q62 680
41 680H40L41 679L42 585Q42 475 39 364Q37 220 37 147Q38 94 71 57T155 2T262 -16Q346 -16 397 29T457 151Q474 292 474 476Q474 562 469 669V670Q454 679 415 679Z" />
<glyph unicode="&#xdb;" glyph-name="Ucircumflex" horiz-adv-x="505" d="M424 729L425 727Q425 726 401 723T352 719Q348 719 332 719T299 730T262 768Q254 763 245 750Q232 735 221 727T195 719L156 721Q151 722 87 726Q89 729 100 743L67 746Q103 794 137 828T223
909L248 932L438 743L424 729ZM209 882Q161 838 135 813T86 755Q157 749 175 749Q177 749 193 751Q200 754 221 777Q240 798 245 800Q250 798 257 789T268 777Q290 751 296 751Q304 749 319 749Q352 749 378 752T409 756H411L248 918L209 882ZM504 542T504 456Q504
283 487 130Q477 52 421 3T282 -46Q219 -46 161 -23T66 45T27 147Q27 219 29 363Q32 474 32 588Q32 659 31 690Q56 690 69 691L111 692Q158 692 192 682L191 667Q194 666 201 665T212 662Q208 587 208 484Q208 340 221 164V166Q223 155 230 152T250 148Q269 148
284 159T304 190V188Q309 302 309 463Q311 609 313 682Q325 682 339 683T362 685Q394 689 416 689Q459 689 479 676V664L499 656V649Q504 542 504 456ZM454 679T415 679Q372 679 323 672Q322 630 321 571T320 479Q318 284 314 188Q309 165 291 152T250 138Q230
138 214 149T191 183Q178 339 178 504Q178 599 182 674V675Q155 682 115 682L73 681Q62 680 41 680H40L41 679L42 585Q42 475 39 364Q37 220 37 147Q38 94 71 57T155 2T262 -16Q346 -16 397 29T457 151Q474 292 474 476Q474 562 469 669V670Q454 679 415 679Z"
/>
<glyph unicode="&#xdc;" glyph-name="Udieresis" horiz-adv-x="505" d="M122 733T121 737T120 749H103Q99 769 99 803L100 843Q101 852 101 868Q113 872 133 874T172 877Q209 877 230 867V853Q235 851 240 850T250 847Q249 830 247 793T241 728L123 729Q122 733
121 737ZM296 733T295 737T294 749H277Q273 769 273 803L274 843Q275 852 275 868Q287 872 307 874T346 877Q383 877 404 867V853Q409 851 414 850T424 847Q423 830 421 793T415 728L297 729Q296 733 295 737ZM214 758V760Q214 774 217 815T220 861Q209 866 172
866Q131 866 111 860Q111 852 110 837T109 799Q109 774 112 759H115L212 758H214ZM388 760Q388 774 391 815T394 861Q383 866 346 866Q305 866 285 860Q285 852 284 837T283 799Q283 774 286 759H388V760ZM504 542T504 456Q504 283 487 130Q477 52 421 3T282 -46Q219
-46 161 -23T66 45T27 147Q27 219 29 363Q32 474 32 588Q32 659 31 690Q56 690 69 691L111 692Q158 692 192 682L191 667Q194 666 201 665T212 662Q208 587 208 484Q208 340 221 164V166Q223 155 230 152T250 148Q269 148 284 159T304 190V188Q309 302 309 463Q311
609 313 682Q325 682 339 683T362 685Q394 689 416 689Q459 689 479 676V664L499 656V649Q504 542 504 456ZM454 679T415 679Q372 679 323 672Q322 630 321 571T320 479Q318 284 314 188Q309 165 291 152T250 138Q230 138 214 149T191 183Q178 339 178 504Q178
599 182 674V675Q155 682 115 682L73 681Q62 680 41 680H40L41 679L42 585Q42 475 39 364Q37 220 37 147Q38 94 71 57T155 2T262 -16Q346 -16 397 29T457 151Q474 292 474 476Q474 562 469 669V670Q454 679 415 679Z" />
<glyph unicode="&#xdd;" glyph-name="Yacute" horiz-adv-x="434" d="M416 824T380 791H381Q320 741 309 721Q288 718 255 718Q226 718 196 721T148 729L163 742Q155 744 144 745T128 749Q165 781 218 837Q280 901 317 930L336 909L337 910L418 826Q416 824 380
791ZM281 890T205 810Q149 754 149 754Q167 748 234 748H255Q274 748 283 750Q289 762 318 788T353 818L384 846L385 847L316 917Q281 890 205 810ZM453 584T418 503T325 301Q271 188 239 116T181 -32Q159 -30 144 -30Q117 -30 105 -31L60 -32Q28 -32 17 -31Q19
-26 20 -21T23 -11H-3Q23 67 79 208Q89 234 105 275T131 343Q122 383 108 420T69 513Q65 522 50 559T22 632T3 698Q27 698 54 701Q63 702 77 703T112 704Q145 704 177 693L180 678Q188 677 197 673Q216 590 233 547Q260 601 301 694Q366 701 410 701Q442 701 458
697V685L456 680Q467 680 478 677V665Q453 584 418 503ZM432 691T410 691Q356 691 308 685L306 684Q259 571 227 513Q195 579 168 686Q151 694 115 694Q102 694 85 693T59 691Q35 688 16 688Q25 650 39 612T78 517Q105 453 118 418T141 344V342L102 242Q34 69 11
-2H13Q21 -3 37 -3Q54 -3 86 -1L130 0Q147 0 155 -1Q180 73 212 147T295 325Q352 444 387 524T448 688V689Q432 691 410 691Z" />
<glyph unicode="&#xde;" glyph-name="Thorn" horiz-adv-x="478" d="M488 320T471 256T418 147T331 103Q301 103 270 114T213 145Q213 88 210 22Q209 13 209 1Q209 -9 212 -18Q197 -34 145 -34L92 -33Q61 -33 46 -38L47 -13Q33 -15 26 -18Q34 118 34 228Q34 285
32 395Q30 503 30 561Q30 660 34 740L190 737V717H210L211 671Q212 660 212 633Q226 639 243 640T290 642Q339 639 384 606T459 513T488 381Q488 320 471 256ZM359 133T392 175T442 280T458 401Q458 466 436 518T376 600T290 632Q244 632 220 625T182 586V649Q182
666 182 675T181 689Q180 697 180 727L44 730Q40 651 40 564Q40 510 42 402Q44 292 44 233Q44 83 37 -4Q40 -3 57 -3L125 -4Q173 -4 181 4Q179 12 179 18Q179 26 181 64T183 187Q207 163 242 148T311 133Q359 133 392 175ZM335 335T311 304T246 273Q207 273 196
295T184 366V419Q184 458 186 472T199 492T236 498Q275 498 299 480T329 434Q335 414 335 381Q335 335 311 304ZM313 451T298 459T256 468Q234 468 226 463T216 444T214 388V362Q214 331 215 315T221 287Q229 283 246 283Q283 283 304 310T325 381Q325 411 319
431V432Q313 451 298 459Z" />
<glyph unicode="&#xdf;" glyph-name="germandbls" horiz-adv-x="470" d="M233 385T244 404T274 445Q288 462 293 470T298 488Q298 497 294 506V505Q285 513 272 517H273Q253 521 225 521Q202 521 191 517V516Q188 492 188 441Q188 408 189 387V388Q194 311 194
222Q194 205 195 195Q197 155 197 61Q197 -30 178 -30Q104 -30 80 -29H75H68Q47 -29 47 -9Q31 -5 28 -4Q24 101 24 235Q24 345 25 399L26 565V701Q108 725 190 725Q263 725 325 700T425 621T463 488Q463 414 413 327V325Q413 321 417 317Q454 272 472 239T490 161Q490
95 461 52T386 -12T288 -32Q271 -32 241 -30Q240 -26 239 -21T234 -13T221 -10Q212 23 212 61Q212 66 212 91T222 134T257 152H256Q290 157 290 198Q290 218 283 237T263 269Q228 304 228 349V357Q233 385 244 404ZM238 331T245 318T266 283Q283 258 291 241T300
198Q300 176 290 161T258 142Q221 140 221 85Q221 25 229 0Q259 -2 268 -2Q318 -2 361 17T432 77T460 181Q460 224 443 255T389 331Q381 339 381 344Q381 348 384 352Q433 434 433 508Q433 617 364 666T190 715Q116 715 36 693L35 692Q36 645 36 553Q36 446 35
393L34 233Q34 106 38 3Q46 1 48 1H60Q84 0 158 0Q167 0 167 72Q167 204 166 233T163 271Q163 289 161 333Q158 426 158 456Q158 507 162 544Q177 551 205 551Q247 551 277 538T308 488Q308 472 300 458T273 426Q246 402 238 355V348Q238 331 245 318Z" />
<glyph unicode="&#xe0;" glyph-name="agrave" horiz-adv-x="476" d="M216 740T279 673Q341 609 371 585L370 584Q384 570 391 565Q373 561 343 558T284 555Q251 555 230 558Q202 591 160 627V626Q133 648 118 664T100 684L182 767Q216 740 279 673ZM115 683L149
652Q208 597 216 587Q225 585 243 585Q331 585 350 591Q350 591 294 647Q218 727 183 754L114 684L115 683ZM471 463T471 454V444Q470 417 470 366L471 254Q472 216 472 141Q472 82 469 20V13Q469 -8 466 -18T448 -31H434Q420 -31 398 -29L369 -28Q362 -28 348
-30L326 -31Q310 -27 305 -11Q292 -6 289 0Q237 -32 186 -32Q133 -32 93 14T31 129T9 266Q9 342 35 396T106 479T209 507Q237 507 252 503T281 483Q282 488 283 499T288 513T301 516Q310 516 317 515T332 513H341Q367 513 440 508L449 499L450 488H460L469 479Q471
463 471 454ZM330 503L303 504Q293 504 291 492T289 456V451Q280 473 266 483T235 495T187 497Q140 496 102 466T41 383T19 266Q19 207 35 145T84 41T166 -2Q200 -2 236 14T298 56Q298 50 296 40T294 21Q294 4 306 -1Q314 -1 328 1L349 2L382 1Q404 -1 414 -1H426Q434
1 436 7T439 26V40Q443 99 443 171L442 281Q440 355 440 393Q440 440 441 464V474Q441 482 439 498Q411 500 341 503H330ZM266 363T276 359T290 340T293 291V236Q293 200 290 180T273 149T231 138Q190 138 166 169T142 246Q142 279 148 299Q154 326 178 344T241
363Q266 363 276 359ZM172 256T172 226Q172 148 231 148Q256 148 267 159T280 189T283 247V273L284 303Q284 319 280 326T261 333Q226 333 205 317T178 277V276Q172 256 172 226Z" />
<glyph unicode="&#xe1;" glyph-name="aacute" horiz-adv-x="476" d="M426 661T390 628H391Q330 578 319 558Q298 555 265 555Q236 555 206 558T158 566L173 579Q165 581 154 582T138 586Q175 618 228 674Q290 738 327 767L346 746L347 747L428 663Q426 661 390
628ZM291 727T215 647Q159 591 159 591Q177 585 244 585H265Q284 585 293 587Q299 599 328 625T363 655L394 683L395 684L326 754Q291 727 215 647ZM471 463T471 454V444Q470 417 470 366L471 254Q472 216 472 141Q472 82 469 20V13Q469 -8 466 -18T448 -31H434Q420
-31 398 -29L369 -28Q362 -28 348 -30L326 -31Q310 -27 305 -11Q292 -6 289 0Q237 -32 186 -32Q133 -32 93 14T31 129T9 266Q9 342 35 396T106 479T209 507Q237 507 252 503T281 483Q282 488 283 499T288 513T301 516Q310 516 317 515T332 513H341Q367 513 440
508L449 499L450 488H460L469 479Q471 463 471 454ZM330 503L303 504Q293 504 291 492T289 456V451Q280 473 266 483T235 495T187 497Q140 496 102 466T41 383T19 266Q19 207 35 145T84 41T166 -2Q200 -2 236 14T298 56Q298 50 296 40T294 21Q294 4 306 -1Q314
-1 328 1L349 2L382 1Q404 -1 414 -1H426Q434 1 436 7T439 26V40Q443 99 443 171L442 281Q440 355 440 393Q440 440 441 464V474Q441 482 439 498Q411 500 341 503H330ZM266 363T276 359T290 340T293 291V236Q293 200 290 180T273 149T231 138Q190 138 166 169T142
246Q142 279 148 299Q154 326 178 344T241 363Q266 363 276 359ZM172 256T172 226Q172 148 231 148Q256 148 267 159T280 189T283 247V273L284 303Q284 319 280 326T261 333Q226 333 205 317T178 277V276Q172 256 172 226Z" />
<glyph unicode="&#xe2;" glyph-name="acircumflex" horiz-adv-x="476" d="M428 568L429 566Q429 565 405 562T356 558Q352 558 336 558T303 569T266 607Q258 602 249 589Q236 574 225 566T199 558L160 560Q155 561 91 565Q93 568 104 582L71 585Q107 633 141 667T227
748L252 771L442 582L428 568ZM213 721Q165 677 139 652T90 594Q161 588 179 588Q181 588 197 590Q204 593 225 616Q244 637 249 639Q254 637 261 628T272 616Q294 590 300 590Q308 588 323 588Q356 588 382 591T413 595H415L252 757L213 721ZM471 463T471 454V444Q470
417 470 366L471 254Q472 216 472 141Q472 82 469 20V13Q469 -8 466 -18T448 -31H434Q420 -31 398 -29L369 -28Q362 -28 348 -30L326 -31Q310 -27 305 -11Q292 -6 289 0Q237 -32 186 -32Q133 -32 93 14T31 129T9 266Q9 342 35 396T106 479T209 507Q237 507 252
503T281 483Q282 488 283 499T288 513T301 516Q310 516 317 515T332 513H341Q367 513 440 508L449 499L450 488H460L469 479Q471 463 471 454ZM330 503L303 504Q293 504 291 492T289 456V451Q280 473 266 483T235 495T187 497Q140 496 102 466T41 383T19 266Q19
207 35 145T84 41T166 -2Q200 -2 236 14T298 56Q298 50 296 40T294 21Q294 4 306 -1Q314 -1 328 1L349 2L382 1Q404 -1 414 -1H426Q434 1 436 7T439 26V40Q443 99 443 171L442 281Q440 355 440 393Q440 440 441 464V474Q441 482 439 498Q411 500 341 503H330ZM266
363T276 359T290 340T293 291V236Q293 200 290 180T273 149T231 138Q190 138 166 169T142 246Q142 279 148 299Q154 326 178 344T241 363Q266 363 276 359ZM172 256T172 226Q172 148 231 148Q256 148 267 159T280 189T283 247V273L284 303Q284 319 280 326T261
333Q226 333 205 317T178 277V276Q172 256 172 226Z" />
<glyph unicode="&#xe3;" glyph-name="atilde" horiz-adv-x="476" d="M165 563T116 563L53 561Q54 569 59 582L33 581Q53 659 90 712T189 766Q219 766 247 747T296 700V701Q300 692 312 692Q326 692 340 713T359 754Q397 758 424 758T458 758L460 745L461 737L478
738L480 725V726Q481 719 481 708Q481 672 466 637T423 578T357 554Q322 554 290 575T246 626L238 628Q226 628 214 624T195 611L196 612L193 606V607Q190 598 190 592Q190 582 194 573L182 559Q165 563 116 563ZM160 599T160 610Q160 621 164 630L167 636Q174
647 189 652T218 658Q238 658 253 635Q264 610 286 597T335 584Q371 584 397 605T437 658T451 726Q451 738 450 745L448 748Q430 748 420 747Q384 747 366 745Q360 724 345 703T312 682Q300 682 291 689T269 711Q249 733 232 744T188 756Q92 756 47 592Q64 593
96 593Q147 593 164 589V590Q160 599 160 610ZM471 463T471 454V444Q470 417 470 366L471 254Q472 216 472 141Q472 82 469 20V13Q469 -8 466 -18T448 -31H434Q420 -31 398 -29L369 -28Q362 -28 348 -30L326 -31Q310 -27 305 -11Q292 -6 289 0Q237 -32 186 -32Q133
-32 93 14T31 129T9 266Q9 342 35 396T106 479T209 507Q237 507 252 503T281 483Q282 488 283 499T288 513T301 516Q310 516 317 515T332 513H341Q367 513 440 508L449 499L450 488H460L469 479Q471 463 471 454ZM330 503L303 504Q293 504 291 492T289 456V451Q280
473 266 483T235 495T187 497Q140 496 102 466T41 383T19 266Q19 207 35 145T84 41T166 -2Q200 -2 236 14T298 56Q298 50 296 40T294 21Q294 4 306 -1Q314 -1 328 1L349 2L382 1Q404 -1 414 -1H426Q434 1 436 7T439 26V40Q443 99 443 171L442 281Q440 355 440 393Q440
440 441 464V474Q441 482 439 498Q411 500 341 503H330ZM266 363T276 359T290 340T293 291V236Q293 200 290 180T273 149T231 138Q190 138 166 169T142 246Q142 279 148 299Q154 326 178 344T241 363Q266 363 276 359ZM172 256T172 226Q172 148 231 148Q256 148
267 159T280 189T283 247V273L284 303Q284 319 280 326T261 333Q226 333 205 317T178 277V276Q172 256 172 226Z" />
<glyph unicode="&#xe4;" glyph-name="adieresis" horiz-adv-x="476" d="M261 747H281L282 693Q284 635 284 606Q273 589 236 589Q227 589 197 591H198L164 592Q144 592 129 591V612L109 611Q109 630 107 668Q105 714 105 749V770L261 767V747ZM445 747H465L466
693Q468 635 468 606Q457 589 420 589Q411 589 381 591H382L348 592Q328 592 313 591V612L293 611Q293 630 291 668Q289 714 289 749V770L445 767V747ZM115 744Q115 713 117 671Q119 637 119 622H136Q151 622 179 620L215 619Q248 619 254 629Q254 661 252 717Q251
735 251 757L115 760V744ZM299 744Q299 713 301 671Q303 637 303 622H320Q335 622 363 620L399 619Q432 619 438 629Q438 661 436 717Q435 735 435 757L299 760V744ZM471 463T471 454V444Q470 417 470 366L471 254Q472 216 472 141Q472 82 469 20V13Q469 -8 466
-18T448 -31H434Q420 -31 398 -29L369 -28Q362 -28 348 -30L326 -31Q310 -27 305 -11Q292 -6 289 0Q237 -32 186 -32Q133 -32 93 14T31 129T9 266Q9 342 35 396T106 479T209 507Q237 507 252 503T281 483Q282 488 283 499T288 513T301 516Q310 516 317 515T332
513H341Q367 513 440 508L449 499L450 488H460L469 479Q471 463 471 454ZM330 503L303 504Q293 504 291 492T289 456V451Q280 473 266 483T235 495T187 497Q140 496 102 466T41 383T19 266Q19 207 35 145T84 41T166 -2Q200 -2 236 14T298 56Q298 50 296 40T294
21Q294 4 306 -1Q314 -1 328 1L349 2L382 1Q404 -1 414 -1H426Q434 1 436 7T439 26V40Q443 99 443 171L442 281Q440 355 440 393Q440 440 441 464V474Q441 482 439 498Q411 500 341 503H330ZM266 363T276 359T290 340T293 291V236Q293 200 290 180T273 149T231
138Q190 138 166 169T142 246Q142 249 142 266T148 299Q154 326 178 344T241 363Q266 363 276 359ZM172 256T172 226Q172 148 231 148Q256 148 267 159T280 189T283 247V273L284 303Q284 319 280 326T261 333Q226 333 205 317T178 277V276Q172 256 172 226Z" />
<glyph unicode="&#xe5;" glyph-name="aring" horiz-adv-x="476" d="M341 548T316 543T254 538Q226 538 209 543T180 568Q161 579 155 603T149 662Q149 686 153 704T168 738Q183 750 203 756T245 762Q275 762 302 754T343 726V724Q361 713 366 695T371 648Q371
603 356 570L355 569Q341 548 316 543ZM341 693T333 723Q320 740 294 746T239 753Q196 753 178 732T159 662Q159 628 163 610T185 580T239 568Q270 568 293 572T327 594Q341 631 341 667Q341 693 333 723ZM297 708T297 666Q297 641 292 630T278 617T249 612H239Q218
612 211 626T204 665Q204 692 221 702Q234 708 251 708Q297 708 297 666ZM234 664T234 642Q234 629 235 622H254Q275 624 281 632T287 657Q287 672 285 675T271 678Q260 678 245 673L246 674Q234 664 234 642ZM471 463T471 454V444Q470 417 470 366L471 254Q472
216 472 141Q472 82 469 20V13Q469 -8 466 -18T448 -31H434Q420 -31 398 -29L369 -28Q362 -28 348 -30L326 -31Q310 -27 305 -11Q292 -6 289 0Q237 -32 186 -32Q133 -32 93 14T31 129T9 266Q9 342 35 396T106 479T209 507Q237 507 252 503T281 483Q282 488 283
499T288 513T301 516Q310 516 317 515T332 513H341Q367 513 440 508L449 499L450 488H460L469 479Q471 463 471 454ZM330 503L303 504Q293 504 291 492T289 456V451Q280 473 266 483T235 495T187 497Q140 496 102 466T41 383T19 266Q19 207 35 145T84 41T166 -2Q200
-2 236 14T298 56Q298 50 296 40T294 21Q294 4 306 -1Q314 -1 328 1L349 2L382 1Q404 -1 414 -1H426Q434 1 436 7T439 26V40Q443 99 443 171L442 281Q440 355 440 393Q440 440 441 464V474Q441 482 439 498Q411 500 341 503H330ZM266 363T276 359T290 340T293 291V236Q293
200 290 180T273 149T231 138Q190 138 166 169T142 246Q142 279 148 299Q154 326 178 344T241 363Q266 363 276 359ZM172 256T172 226Q172 148 231 148Q256 148 267 159T280 189T283 247V273L284 303Q284 319 280 326T261 333Q226 333 205 317T178 277V276Q172
256 172 226Z" />
<glyph unicode="&#xe6;" glyph-name="ae" horiz-adv-x="703" d="M460 161T468 141T508 121Q527 121 539 139T552 194V204Q570 202 584 202Q605 202 615 203L649 204Q667 204 692 199L690 183L712 179Q710 161 705 111Q701 68 697 47T682 15L683 17Q664 -10 631
-20T552 -30Q477 -30 437 -21T368 22L366 23Q288 -38 208 -38Q154 -38 106 -13T28 53T-1 141Q-1 211 47 256T178 301Q230 301 269 285V337Q269 368 239 368Q218 368 202 352T186 310Q149 303 101 303Q74 303 58 307T41 326Q27 328 25 333T22 353Q22 401 51 434T128
483T226 499Q265 499 299 490T354 464Q381 485 417 496T493 508Q565 508 615 477T690 394T715 280Q715 259 713 229Q694 223 618 220T481 216Q467 216 460 217V202Q460 161 468 141ZM442 246T495 246Q546 246 607 249T683 257Q685 287 685 300Q685 392 643 445T493
498Q453 498 417 486T354 451Q334 469 300 479T226 489Q177 489 133 475T60 430T31 356Q31 340 41 336T75 332Q109 332 156 339Q156 365 175 381T219 398Q242 398 260 383T279 339V303Q279 283 280 268Q239 291 178 291Q98 291 54 249T9 141Q9 98 33 64T99 11T187
-8Q230 -8 269 9T349 59Q375 22 414 11T531 0Q574 0 605 9T655 43Q666 52 670 81T680 171Q680 184 681 191Q668 194 645 194L608 193Q597 192 577 192Q566 192 563 193V185Q563 148 548 130T508 111Q433 111 430 232V249Q442 246 495 246ZM581 323Q581 320 575
320Q570 320 557 321T522 322L459 321Q442 321 437 323T431 331Q431 363 449 383T512 404Q525 404 545 395Q562 387 571 370T581 333V323ZM500 374T486 363T465 331L479 332H522Q568 332 571 329V333Q571 339 566 355T561 366Q557 367 549 370T532 374Q500 374
486 363ZM115 178T140 196T193 215Q223 215 247 201T272 152Q272 128 255 111T200 94Q185 94 169 97Q115 106 115 145Q115 178 140 196ZM188 104T200 104Q232 104 247 118T263 153Q263 185 213 185Q188 185 167 170T146 125Q146 115 151 112T170 107H171Q188 104
200 104Z" />
<glyph unicode="&#xe7;" glyph-name="ccedilla" d="M431 193T431 183L452 180Q447 109 441 67T421 9Q403 -16 375 -27T309 -41Q273 -130 263 -178H179Q157 -178 147 -176T136 -166L139 -158Q116 -156 116 -146Q146 -66 155 -34V-33Q114 -18 88 8L79 17Q16 64 16
207V238Q16 297 13 322Q13 361 16 387T33 448L32 447Q41 484 87 503T196 522Q204 521 233 521L257 522Q302 522 343 507T406 460L410 457Q437 437 445 391T453 261Q421 256 406 256Q381 256 349 260T307 265Q306 267 305 272T300 280T287 285Q284 308 275 319T244
330Q240 330 226 328H227Q203 321 195 302T187 253V222Q187 211 185 187L184 159Q184 147 195 144T224 140Q252 140 265 149H264Q270 152 274 163T282 187T286 205Q310 203 325 203L356 204Q366 205 386 205Q404 205 432 200Q431 193 431 183ZM405 47T410 85T421
192Q407 195 383 195L342 194Q330 193 309 193Q297 193 294 194Q287 160 274 145T224 129Q195 129 175 142T155 181V217Q155 270 159 299T178 344T227 361Q255 361 273 343T296 294Q348 285 386 285Q410 285 423 289Q423 299 422 349T411 428T384 469Q361 491 327
501T253 512L215 511Q202 511 195 512Q128 512 91 494T39 435T23 323Q26 296 26 266L25 209Q25 120 53 62T161 -9L174 -10L165 -37Q163 -42 161 -48T156 -63L126 -147Q126 -148 140 -148L235 -147Q239 -129 260 -74Q273 -37 281 -12Q321 -9 348 1T393 35Q405 47
410 85Z" />
<glyph unicode="&#xe8;" glyph-name="egrave" horiz-adv-x="444" d="M204 731T284 649L325 607Q342 590 349 585L348 584Q362 570 369 565Q351 561 321 558T262 555Q229 555 208 558Q180 591 138 627V626Q111 648 96 664T78 684L160 767Q204 731 284 649ZM93 683L127
652Q186 597 194 587Q203 585 221 585Q309 585 328 591Q328 591 272 647Q196 727 161 754L92 684L93 683ZM186 176T189 160T204 124V122Q217 115 236 115Q257 115 271 134T285 193V203Q307 201 318 201L353 202Q364 203 387 203Q404 203 432 198L431 181L452 178Q452
70 429 23T369 -33T257 -43Q197 -43 162 -35T101 4Q55 42 33 113T11 267Q11 364 34 426Q55 474 107 499T223 525Q300 525 352 492T430 404T456 282Q456 276 453 231Q434 226 353 222T208 218Q193 218 186 219V202Q186 176 189 160ZM168 248T225 248Q280 248 344
251T424 259Q426 289 426 302Q426 402 382 458T223 515Q163 515 113 491T43 423Q20 361 20 257Q20 153 55 77T164 -10L208 -11Q242 -13 261 -13Q308 -13 341 -3T394 34Q407 45 412 80T422 190Q407 193 383 193L344 192Q332 191 311 191Q299 191 296 192V184Q296
145 279 125T236 105Q159 105 156 233V251Q168 248 225 248ZM316 330Q316 327 309 327Q304 327 289 328T253 329L188 328Q169 328 163 330T157 339Q157 416 242 416Q261 416 277 406Q295 397 305 379T316 341V330ZM279 386T262 386Q227 386 212 374T190 338L209
339H253L296 338L306 337V341Q306 364 293 377L292 378Q279 386 262 386Z" />
<glyph unicode="&#xe9;" glyph-name="eacute" horiz-adv-x="444" d="M411 661T375 628H376Q315 578 304 558Q283 555 250 555Q221 555 191 558T143 566L158 579Q150 581 139 582T123 586Q160 618 213 674Q275 738 312 767L331 746L332 747L413 663Q411 661 375
628ZM276 727T200 647Q144 591 144 591Q162 585 229 585H250Q269 585 278 587Q284 599 313 625T348 655L379 683L380 684L311 754Q276 727 200 647ZM186 176T189 160T204 124V122Q217 115 236 115Q257 115 271 134T285 193V203Q307 201 318 201L353 202Q364 203
387 203Q404 203 432 198L431 181L452 178Q452 70 429 23T369 -33T257 -43Q197 -43 162 -35T101 4Q55 42 33 113T11 267Q11 364 34 426Q55 474 107 499T223 525Q300 525 352 492T430 404T456 282Q456 276 453 231Q433 226 352 222T209 218Q193 218 186 219V202Q186
176 189 160ZM168 248T225 248Q280 248 344 251T424 259Q426 289 426 302Q426 402 382 458T223 515Q163 515 113 491T43 423Q20 361 20 257Q20 153 55 77T164 -10L208 -11Q242 -13 261 -13Q308 -13 341 -3T394 34Q407 45 412 80T422 190Q407 193 383 193L344 192Q332
191 311 191Q299 191 296 192V184Q296 145 279 125T236 105Q159 105 156 233V251Q168 248 225 248ZM316 330Q316 327 309 327Q304 327 289 328T253 329L188 328Q169 328 163 330T157 339Q157 416 242 416Q261 416 277 406Q295 397 305 379T316 341V330ZM279 386T262
386Q227 386 212 374T190 338L209 339H253L296 338L306 337V341Q306 364 293 377L292 378Q279 386 262 386Z" />
<glyph unicode="&#xea;" glyph-name="ecircumflex" horiz-adv-x="444" d="M410 568L411 566Q411 565 387 562T338 558Q334 558 318 558T285 569T248 607Q240 602 231 589Q218 574 207 566T181 558L142 560Q137 561 73 565Q75 568 86 582L53 585Q89 633 123 667T209
748L234 771L424 582L410 568ZM195 721Q147 677 121 652T72 594Q143 588 161 588Q163 588 179 590Q186 593 207 616Q226 637 231 639Q236 637 243 628T254 616Q276 590 282 590Q290 588 305 588Q338 588 364 591T395 595H397L234 757L195 721ZM186 176T189 160T204
124V122Q217 115 236 115Q257 115 271 134T285 193V203Q307 201 318 201L353 202Q364 203 387 203Q404 203 432 198L431 181L452 178Q452 70 429 23T369 -33T257 -43Q197 -43 162 -35T101 4Q55 42 33 113T11 267Q11 364 34 426Q55 474 107 499T223 525Q300 525
352 492T430 404T456 282Q456 276 453 231Q433 226 352 222T209 218Q193 218 186 219V202Q186 176 189 160ZM168 248T225 248Q280 248 344 251T424 259Q426 289 426 302Q426 402 382 458T223 515Q163 515 113 491T43 423Q20 361 20 257Q20 153 55 77T164 -10L208
-11Q242 -13 261 -13Q308 -13 341 -3T394 34Q407 45 412 80T422 190Q407 193 383 193L344 192Q332 191 311 191Q299 191 296 192V184Q296 145 279 125T236 105Q159 105 156 233V251Q168 248 225 248ZM316 330Q316 327 309 327Q304 327 289 328T253 329L188 328Q169
328 163 330T157 339Q157 416 242 416Q261 416 277 406Q295 397 305 379T316 341V330ZM279 386T262 386Q227 386 212 374T190 338L209 339H253L296 338L306 337V341Q306 364 293 377L292 378Q279 386 262 386Z" />
<glyph unicode="&#xeb;" glyph-name="edieresis" horiz-adv-x="444" d="M208 747H228L229 693Q231 635 231 606Q220 589 183 589Q174 589 144 591H145L111 592Q91 592 76 591V612L56 611Q56 630 54 668Q52 714 52 749V770L208 767V747ZM392 747H412L413 693Q415
635 415 606Q404 589 367 589Q358 589 328 591H329L295 592Q275 592 260 591V612L240 611Q240 630 238 668Q236 714 236 749V770L392 767V747ZM62 744Q62 713 64 671Q66 637 66 622H83Q98 622 126 620L162 619Q195 619 201 629Q201 661 199 717Q198 735 198 757L62
760V744ZM246 744Q246 713 248 671Q250 637 250 622H267Q282 622 310 620L346 619Q379 619 385 629Q385 661 383 717Q382 735 382 757L246 760V744ZM186 176T189 160T204 124V122Q217 115 236 115Q257 115 271 134T285 193V203Q307 201 318 201L353 202Q364 203
387 203Q404 203 432 198L431 181L452 178Q452 70 429 23T369 -33T257 -43Q197 -43 162 -35T101 4Q55 42 33 113T11 267Q11 364 34 426Q55 474 107 499T223 525Q300 525 352 492T430 404T456 282Q456 276 453 231Q434 226 353 222T208 218Q193 218 186 219V202Q186
176 189 160ZM168 248T225 248Q280 248 344 251T424 259Q426 289 426 302Q426 402 382 458T223 515Q163 515 113 491T43 423Q20 361 20 257Q20 153 55 77T164 -10L208 -11Q242 -13 261 -13Q308 -13 341 -3T394 34Q407 45 412 80T422 190Q407 193 383 193L344 192Q332
191 311 191Q299 191 296 192V184Q296 145 279 125T236 105Q159 105 156 233V251Q168 248 225 248ZM316 330Q316 327 309 327Q304 327 289 328T253 329L188 328Q169 328 163 330T157 339Q157 416 242 416Q261 416 277 406Q295 397 305 379T316 341V330ZM279 386T262
386Q227 386 212 374T190 338L209 339H253L296 338L306 337V341Q306 364 293 377L292 378Q279 386 262 386Z" />
<glyph unicode="&#xec;" glyph-name="igrave" horiz-adv-x="207" d="M56 731T136 649L177 607Q194 590 201 585L200 584Q214 570 221 565Q203 561 173 558T114 555Q81 555 60 558Q32 591 -10 627V626Q-37 648 -52 664T-70 684L12 767Q56 731 136 649ZM-55 683L-21
652Q38 597 46 587Q55 585 73 585Q161 585 180 591Q180 591 124 647Q48 727 13 754L-56 684L-55 683ZM185 491L205 488Q205 431 203 315Q200 228 200 137Q200 48 204 -17Q196 -25 182 -28T146 -31Q117 -31 102 -30H103L79 -29Q57 -29 42 -34Q42 -27 44 -9Q29 -11
22 -14Q27 53 27 124Q27 164 25 244Q23 324 23 366Q23 436 30 513Q37 513 40 514L56 516Q64 516 86 515T135 513H158L185 508V491ZM102 503T72 505L43 506H39V505Q33 452 33 368Q33 330 35 248Q37 166 37 123Q37 55 33 0Q35 1 49 1Q70 1 83 0L128 -1Q150 -1 160
0T174 6Q170 77 170 167Q170 265 173 361Q175 455 175 500V503H135Q102 503 72 505Z" />
<glyph unicode="&#xed;" glyph-name="iacute" horiz-adv-x="207" d="M294 661T258 628H259Q198 578 187 558Q166 555 133 555Q104 555 74 558T26 566L41 579Q33 581 22 582T6 586Q43 618 96 674Q158 738 195 767L214 746L215 747L296 663Q294 661 258 628ZM159
727T83 647Q27 591 27 591Q45 585 112 585H133Q152 585 161 587Q167 599 196 625T231 655L262 683L263 684L194 754Q159 727 83 647ZM107 513T130 514T161 516H163Q170 516 174 513T179 496H182Q188 496 198 491Q204 424 204 346Q204 310 202 230Q200 148 200 104Q200
33 205 -34Q189 -29 168 -29L144 -30H145Q130 -31 101 -31Q79 -31 65 -28T43 -17V-8Q29 -5 23 3Q27 68 27 157Q27 216 25 332Q22 421 22 513H72Q107 513 130 514ZM32 500Q32 455 34 361Q37 265 37 167Q37 77 33 6Q36 1 46 0T78 -1L124 0Q137 1 158 1Q172 1 174
0Q170 55 170 123Q170 166 172 248Q174 330 174 368Q174 439 168 505V506H164L135 505Q105 503 72 503H32V500Z" />
<glyph unicode="&#xee;" glyph-name="icircumflex" horiz-adv-x="207" d="M284 568L285 566Q285 565 261 562T212 558Q207 558 192 558T161 568T122 607Q114 602 105 589Q92 574 81 566T55 558L16 560Q11 561 -53 565Q-52 568 -40 582L-73 585Q-37 633 -3 667T83
748L108 771L298 582L284 568ZM69 721Q21 677 -5 652T-54 594Q17 588 35 588Q37 588 53 590Q60 593 81 616Q100 637 105 639Q110 637 117 628T128 616Q150 590 156 590Q164 588 179 588Q212 588 238 591T269 595H271L108 757L69 721ZM185 491L205 488Q205 431 203
315Q200 228 200 137Q200 48 204 -17Q196 -25 182 -28T146 -31Q117 -31 102 -30H103L79 -29Q57 -29 42 -34Q42 -27 44 -9Q29 -11 22 -14Q27 53 27 124Q27 164 25 244Q23 324 23 366Q23 436 30 513Q37 513 40 514L56 516Q64 516 86 515T135 513H158L185 508V491ZM102
503T72 505L43 506H39V505Q33 452 33 368Q33 330 35 248Q37 166 37 123Q37 55 33 0Q35 1 49 1Q70 1 83 0L128 -1Q150 -1 160 0T174 6Q170 77 170 167Q170 265 173 361Q175 455 175 500V503H135Q102 503 72 505Z" />
<glyph unicode="&#xef;" glyph-name="idieresis" horiz-adv-x="207" d="M91 747H111L112 693Q114 635 114 606Q103 589 66 589Q57 589 27 591H28L-6 592Q-26 592 -41 591V612L-61 611Q-61 630 -63 668Q-65 714 -65 749V770L91 767V747ZM275 747H295L296 693Q298
635 298 606Q287 589 250 589Q241 589 211 591H212L178 592Q158 592 143 591V612L123 611Q123 630 121 668Q119 714 119 749V770L275 767V747ZM-55 744Q-55 713 -53 671Q-51 637 -51 622H-34Q-19 622 9 620L45 619Q78 619 84 629Q84 661 82 717Q81 735 81 757L-55
760V744ZM129 744Q129 713 131 671Q133 637 133 622H150Q165 622 193 620L229 619Q262 619 268 629Q268 661 266 717Q265 735 265 757L129 760V744ZM185 491L205 488Q205 431 203 315Q200 228 200 137Q200 48 204 -17Q196 -25 182 -28T146 -31Q117 -31 102 -30H103L79
-29Q57 -29 42 -34Q42 -27 44 -9Q29 -11 22 -14Q27 53 27 124Q27 164 25 244Q23 324 23 366Q23 436 30 513Q37 513 40 514L56 516Q64 516 86 515T135 513H158L185 508V491ZM102 503T72 505L43 506H39V505Q33 452 33 368Q33 330 35 248Q37 166 37 123Q37 55 33 0Q35
1 49 1Q70 1 83 0L128 -1Q150 -1 160 0T174 6Q170 77 170 167Q170 265 173 361Q175 455 175 500V503H135Q102 503 72 505Z" />
<glyph unicode="&#xf0;" glyph-name="eth" horiz-adv-x="531" d="M173 848T193 835T218 819Q236 806 278 790Q300 806 311 815T329 829Q344 842 355 850T390 868Q399 854 408 847L410 848Q414 840 419 836T433 827Q435 826 449 817T489 783L511 761Q497 752 453
725Q445 721 418 704Q450 673 473 631V632Q497 585 508 525T531 369Q539 300 539 242Q539 -54 284 -54Q219 -54 166 -34T78 27Q14 76 9 178L8 206L7 232Q7 347 54 403T221 460Q281 460 321 442Q320 452 317 485T304 549T276 602Q165 528 117 498Q109 509 99 519L97
518Q96 519 60 552Q56 555 50 559T33 577Q27 580 22 585T7 607L17 612Q35 620 63 637T116 674Q106 678 76 695Q48 711 42 714Q42 715 48 721L22 734Q22 740 30 748Q55 771 68 782T86 798Q108 819 129 833T160 848Q173 848 193 835ZM73 632T36 604L26 597Q27 595
46 580Q88 548 100 531Q152 564 258 635Q295 603 307 569T326 480Q330 442 334 425Q310 436 287 443T221 450Q107 450 62 397T17 232L18 206L19 178Q19 110 53 65T142 -2T264 -24Q399 -24 454 51T509 262Q509 319 501 388Q491 478 481 533T447 639T382 725L429
754L451 767Q456 770 462 773T476 783Q458 802 432 816Q418 824 408 832T387 855Q379 851 325 812L279 779Q248 789 213 811Q186 828 159 839H156Q148 839 137 831T98 794Q91 786 40 741L94 707Q122 690 147 684Q73 632 36 604ZM145 222T145 230Q145 266 163 288T224
310Q276 310 319 283T363 201Q363 167 337 147T262 127Q224 127 192 143T149 192L147 208Q145 222 145 230ZM186 155T210 146T263 137Q305 137 329 155T353 203Q353 246 319 263T241 280Q209 280 193 259T176 207Q176 196 177 189L179 175Q186 155 210 146Z" />
<glyph unicode="&#xf1;" glyph-name="ntilde" horiz-adv-x="450" d="M143 563T94 563L31 561Q32 569 37 582L11 581Q31 659 68 712T167 766Q197 766 225 747T274 700V701Q278 692 290 692Q304 692 318 713T337 754Q375 758 402 758T436 758L438 745L439 737L456
738L458 725V726Q459 719 459 708Q459 672 444 637T401 578T335 554Q300 554 268 575T224 626L216 628Q204 628 192 624T173 611L174 612L171 606V607Q168 598 168 592Q168 582 172 573L160 559Q143 563 94 563ZM138 599T138 610Q138 621 142 630L145 636Q152 647
167 652T196 658Q216 658 231 635Q242 610 264 597T313 584Q349 584 375 605T415 658T429 726Q429 738 428 745L426 748Q408 748 398 747Q362 747 344 745Q338 724 323 703T290 682Q278 682 269 689T247 711Q227 733 210 744T166 756Q70 756 25 592Q42 593 74 593Q125
593 142 589V590Q138 599 138 610ZM197 475Q246 505 303 505Q335 505 365 494T410 460L422 451Q448 431 448 283Q448 244 446 166Q444 90 444 55Q444 15 446 -27Q410 -32 362 -32H302Q301 -25 301 -12H282Q279 19 279 109V159Q279 213 277 246T266 303Q258 306
245 306Q215 306 204 286T192 209Q192 182 194 134Q196 84 196 61Q196 18 192 -14V-25Q157 -34 134 -34Q120 -34 112 -33L88 -32H77Q62 -32 48 -34V-12L28 -14L27 175Q25 301 25 366Q25 419 27 509Q51 506 72 506Q80 506 98 509T149 512Q176 512 177 500Q177 494
186 490T197 480V475ZM127 503T92 498Q76 496 72 496H60Q47 496 37 498Q35 467 35 407V346Q35 285 37 169L38 -3Q50 -2 70 -2L118 -3Q139 -3 162 3V7Q166 40 166 81Q166 107 164 157Q162 207 162 233Q162 293 177 314T225 336Q261 336 271 315T284 267T287 230Q289
215 289 182V147V73V41Q289 11 291 -2L349 -3Q385 -3 416 2Q414 40 414 65Q414 100 416 178Q418 260 418 298Q418 367 413 409T395 464Q361 495 302 495Q270 495 245 485T198 463T169 446L170 469Q170 503 155 503Q127 503 92 498Z" />
<glyph unicode="&#xf2;" glyph-name="ograve" horiz-adv-x="448" d="M183 738T250 669Q303 616 303 616L312 607Q329 590 336 585L335 584Q349 570 356 565Q338 561 308 558T249 555Q216 555 195 558Q167 591 125 627V626Q98 648 83 664T65 684L147 767Q183 738
250 669ZM80 683L114 652Q173 597 181 587Q190 585 208 585Q296 585 315 591Q315 591 259 647Q183 727 148 754L79 684L80 683ZM51 492T95 508T196 524Q204 523 233 523L257 524Q295 524 331 512T391 477H390Q393 473 399 467T410 457L409 458Q436 440 445 386T455
252Q455 181 446 105T421 11Q400 -19 364 -30T280 -41Q229 -41 198 -38T136 -22T77 21L68 30Q37 59 26 104T15 211V247L16 281Q16 293 15 304T14 324Q14 367 16 389T31 442H30Q31 448 32 454T36 462V461L35 458L36 460Q51 492 95 508ZM25 283V209Q25 121 54 64T161
-7L208 -8Q242 -10 261 -10Q308 -10 341 0T393 37Q410 54 415 113T425 272Q425 281 423 336T412 425T384 470Q339 514 253 514L215 513Q202 513 195 514Q144 514 101 499T45 456Q34 417 29 387T24 325L25 283ZM300 363T300 259Q300 216 296 191T275 149T223 133Q193
133 174 146T155 188Q156 201 156 234Q156 280 158 305T170 338Q190 363 230 363Q300 363 300 259ZM188 305T187 265T185 167Q185 151 195 147T223 143Q284 143 284 185Q290 239 290 263Q290 296 283 314T248 332Q242 332 226 330H227Q208 325 198 312L196 310Q188
305 187 265Z" />
<glyph unicode="&#xf3;" glyph-name="oacute" horiz-adv-x="448" d="M411 661T375 628H376Q315 578 304 558Q283 555 250 555Q221 555 191 558T143 566L158 579Q150 581 139 582T123 586Q160 618 213 674Q275 738 312 767L331 746L332 747L413 663Q411 661 375
628ZM276 727T200 647Q144 591 144 591Q162 585 229 585H250Q269 585 278 587Q284 599 313 625T348 655L379 683L380 684L311 754Q276 727 200 647ZM51 492T95 508T196 524Q204 523 233 523L257 524Q295 524 331 512T391 477H390Q393 473 399 467T410 457L409 458Q436
440 445 386T455 252Q455 181 446 105T421 11Q400 -19 364 -30T280 -41Q229 -41 198 -38T136 -22T77 21L68 30Q37 59 26 104T15 211V247L16 281Q16 293 15 304T14 324Q14 367 16 389T31 442H30Q31 448 32 454T36 462V461L35 458L36 460Q51 492 95 508ZM25 283V209Q25
121 54 64T161 -7L208 -8Q242 -10 261 -10Q308 -10 341 0T393 37Q410 54 415 113T425 272Q425 281 423 336T412 425T384 470Q339 514 253 514L215 513Q202 513 195 514Q144 514 101 499T45 456Q34 417 29 387T24 325L25 283ZM300 363T300 259Q300 216 296 191T275
149T223 133Q193 133 174 146T155 188Q156 201 156 234Q156 280 158 305T170 338Q190 363 230 363Q300 363 300 259ZM188 305T187 265T185 167Q185 151 195 147T223 143Q284 143 284 185Q290 239 290 263Q290 296 283 314T248 332Q242 332 226 330H227Q208 325
198 312L196 310Q188 305 187 265Z" />
<glyph unicode="&#xf4;" glyph-name="ocircumflex" horiz-adv-x="448" d="M408 568L409 566Q409 565 385 562T336 558Q332 558 316 558T283 569T246 607Q238 602 229 589Q216 574 205 566T179 558L140 560Q135 561 71 565Q73 568 84 582L51 585Q87 633 121 667T207
748L232 771L422 582L408 568ZM193 721Q145 677 119 652T70 594Q141 588 159 588Q161 588 177 590Q184 593 205 616Q224 637 229 639Q234 637 241 628T252 616Q274 590 280 590Q288 588 303 588Q336 588 362 591T393 595H395L232 757L193 721ZM51 492T95 508T196
524Q204 523 233 523L257 524Q295 524 331 512T391 477H390Q393 473 399 467T410 457L409 458Q436 440 445 386T455 252Q455 181 446 105T421 11Q400 -19 364 -30T280 -41Q229 -41 198 -38T136 -22T77 21L68 30Q37 59 26 104T15 211V247L16 281Q16 293 15 304T14
324Q14 367 16 389T31 442H30Q31 448 32 454T36 462V461L35 458L36 460Q51 492 95 508ZM25 283V209Q25 121 54 64T161 -7L208 -8Q242 -10 261 -10Q308 -10 341 0T393 37Q410 54 415 113T425 272Q425 281 423 336T412 425T384 470Q339 514 253 514L215 513Q202 513
195 514Q144 514 101 499T45 456Q34 417 29 387T24 325L25 283ZM300 363T300 259Q300 216 296 191T275 149T223 133Q193 133 174 146T155 188Q156 201 156 234Q156 280 158 305T170 338Q190 363 230 363Q300 363 300 259ZM188 305T187 265T185 167Q185 151 195
147T223 143Q284 143 284 185Q290 239 290 263Q290 296 283 314T248 332Q242 332 226 330H227Q208 325 198 312L196 310Q188 305 187 265Z" />
<glyph unicode="&#xf5;" glyph-name="otilde" horiz-adv-x="448" d="M141 563T92 563L29 561Q30 569 35 582L9 581Q29 659 66 712T165 766Q195 766 223 747T272 700V701Q276 692 288 692Q302 692 316 713T335 754Q373 758 400 758T434 758L436 745L437 737L454
738L456 725V726Q457 719 457 708Q457 672 442 637T399 578T333 554Q298 554 266 575T222 626L213 628Q202 628 190 624T171 611L172 612L169 606V607Q166 598 166 592Q166 582 170 573L158 559Q141 563 92 563ZM136 599T136 610Q136 621 140 630L143 636Q150 647
165 652T194 658Q214 658 229 635Q240 610 262 597T311 584Q347 584 373 605T413 658T427 726Q427 738 426 745L424 748Q406 748 396 747Q360 747 342 745Q336 724 321 703T288 682Q276 682 267 689T245 711Q225 733 208 744T164 756Q68 756 23 592Q40 593 72 593Q123
593 140 589V590Q136 599 136 610ZM51 492T95 508T196 524Q204 523 233 523L257 524Q295 524 331 512T391 477H390Q393 473 399 467T410 457L409 458Q436 440 445 386T455 252Q455 181 446 105T421 11Q400 -19 364 -30T280 -41Q229 -41 198 -38T136 -22T77 21L68
30Q37 59 26 104T15 211V247L16 281Q16 293 15 304T14 324Q14 367 16 389T31 442H30Q31 448 32 454T36 462V461L35 458L36 460Q51 492 95 508ZM25 283V209Q25 121 54 64T161 -7L208 -8Q242 -10 261 -10Q308 -10 341 0T393 37Q410 54 415 113T425 272Q425 281 423
336T412 425T384 470Q339 514 253 514L215 513Q202 513 195 514Q144 514 101 499T45 456Q34 417 29 387T24 325L25 283ZM300 363T300 259Q300 216 296 191T275 149T223 133Q193 133 174 146T155 188Q156 201 156 234Q156 280 158 305T170 338Q190 363 230 363Q300
363 300 259ZM188 305T187 265T185 167Q185 151 195 147T223 143Q284 143 284 185Q290 239 290 263Q290 296 283 314T248 332Q242 332 226 330H227Q208 325 198 312L196 310Q188 305 187 265Z" />
<glyph unicode="&#xf6;" glyph-name="odieresis" horiz-adv-x="448" d="M204 747H224L225 693Q227 635 227 606Q216 589 179 589Q170 589 140 591H141L107 592Q87 592 72 591V612L52 611Q52 630 50 668Q48 714 48 749V770L204 767V747ZM388 747H408L409 693Q411
635 411 606Q400 589 363 589Q354 589 324 591H325L291 592Q271 592 256 591V612L236 611Q236 630 234 668Q232 714 232 749V770L388 767V747ZM58 744Q58 713 60 671Q62 637 62 622H79Q94 622 122 620L158 619Q191 619 197 629Q197 661 195 717Q194 735 194 757L58
760V744ZM242 744Q242 713 244 671Q246 637 246 622H263Q278 622 306 620L342 619Q375 619 381 629Q381 661 379 717Q378 735 378 757L242 760V744ZM51 492T95 508T196 524Q204 523 233 523L257 524Q295 524 331 512T391 477H390Q393 473 399 467T410 457L409 458Q436
440 445 386T455 252Q455 181 446 105T421 11Q400 -19 364 -30T280 -41Q229 -41 198 -38T136 -22T77 21L68 30Q37 59 26 104T15 211V247L16 281Q16 293 15 304T14 324Q14 367 16 389T31 442H30Q31 448 32 454T36 462V461L35 458L36 460Q51 492 95 508ZM25 283V209Q25
121 54 64T161 -7L208 -8Q242 -10 261 -10Q308 -10 341 0T393 37Q410 54 415 113T425 272Q425 281 423 336T412 425T384 470Q339 514 253 514L215 513Q202 513 195 514Q144 514 101 499T45 456Q34 417 29 387T24 325L25 283ZM300 363T300 259Q300 216 296 191T275
149T223 133Q193 133 174 146T155 188Q156 201 156 234Q156 280 158 305T170 338Q190 363 230 363Q300 363 300 259ZM188 305T187 265T185 167Q185 151 195 147T223 143Q284 143 284 185Q290 239 290 263Q290 296 283 314T248 332Q242 332 226 330H227Q208 325
198 312L196 310Q188 305 187 265Z" />
<glyph unicode="&#xf7;" glyph-name="divide" horiz-adv-x="466" d="M176 327H159Q155 352 155 388L156 433Q157 443 157 459Q185 471 235 471Q274 471 299 459L301 445Q304 444 310 443T318 438T321 422Q321 403 318 365T313 306L179 307L176 327ZM286 336V338Q286
352 289 401T292 455Q279 461 235 461Q184 461 167 453Q167 441 166 432L165 383Q165 348 168 337H284L286 336ZM14 297H453V277H473L472 233Q471 219 471 192Q471 163 475 136L42 141L32 151V161H22L12 171L14 297ZM77 170Q128 169 219 168T408 166H445Q441 183
441 211L442 249Q443 262 443 287H24Q24 283 23 261T22 198V171L77 170ZM176 -9H159Q155 16 155 52L156 97Q157 107 157 123Q185 135 235 135Q274 135 299 123L301 109Q304 108 310 107T318 102T321 86Q321 67 318 29T313 -30L179 -29L176 -9ZM286 2Q286 16 289
65T292 119Q279 125 235 125Q184 125 167 117Q167 105 166 96L165 47Q165 12 168 1L286 0V2Z" />
<glyph unicode="&#xf8;" glyph-name="oslash" horiz-adv-x="351" d="M355 205Q355 136 348 87T313 2T232 -39Q225 -40 211 -40Q207 -40 192 -40T166 -43T148 -53Q136 -57 109 -57L74 -56H41Q39 -50 39 -48L41 -36H21Q20 -35 20 -29Q20 -5 36 38Q14 126 14 229Q14
259 17 289Q18 300 19 315T20 351Q20 426 64 471L68 475Q105 501 160 501Q172 501 194 499Q196 514 212 514Q216 512 225 512L272 513Q301 513 316 504L315 492Q319 490 325 488T336 484Q336 466 330 453T323 435V433Q357 391 357 318Q357 301 355 277V252V205ZM327
372T320 399T294 448L293 452Q293 460 299 474Q300 476 303 484T306 498Q298 503 276 503L235 502H224Q214 502 210 504H209Q205 504 205 497T203 488Q195 489 185 490T160 491Q104 491 74 467L71 464Q47 440 40 414T30 346L28 320Q24 279 24 229Q24 127 46 40V37Q40
23 34 3T28 -24V-26H52L91 -27Q110 -27 122 -24H121L122 -23Q131 -14 131 -13H132Q144 -11 170 -11Q185 -11 211 -9Q280 -3 303 57T326 210L325 298Q327 324 327 338Q327 372 320 399ZM103 220T109 262L111 290Q112 335 121 360T166 390L171 389Q155 338 133 274Q110
206 105 188Q103 190 103 196Q103 220 109 262ZM234 260T236 238Q236 231 237 217T239 188Q239 148 231 122Q226 106 206 95T168 81L167 82L185 134Q213 219 234 270V268Q234 260 236 238ZM224 132T226 148L217 121L214 113Q217 116 218 119T222 125L221 124Q224
132 226 148Z" />
<glyph unicode="&#xf9;" glyph-name="ugrave" horiz-adv-x="450" d="M190 731T270 649L311 607Q328 590 335 585Q334 584 341 577T355 565Q337 561 307 558T248 555Q215 555 194 558Q166 591 124 627V626Q97 648 82 664T64 684L146 767Q190 731 270 649ZM79 683L113
652Q172 597 180 587Q189 585 207 585Q295 585 314 591Q314 591 258 647Q182 727 147 754L78 684L79 683ZM219 -25T167 -25Q135 -25 103 -15T60 18Q38 32 30 75T21 205Q21 265 24 325Q26 405 26 441Q26 456 23 507Q58 512 106 512H168Q168 499 169 492H188Q191
461 191 371V321Q191 263 193 232T205 176Q219 174 225 174Q253 174 265 192T278 259Q278 283 276 335Q273 373 273 413Q273 464 278 495V505Q307 513 335 513L382 512H393Q408 512 422 514V492L442 494L443 305Q445 179 445 114Q445 61 443 -29Q395 -26 398 -26Q389
-26 370 -29T321 -32Q305 -32 299 -28T292 -12Q275 -11 273 0L272 4Q219 -25 167 -25ZM323 -3T358 2Q374 4 378 4Q381 4 413 2Q415 106 415 154Q415 215 413 331L412 503Q400 502 380 502L331 503Q311 503 288 497V493Q283 462 283 417Q283 392 285 340Q288 301
288 262Q288 206 273 185T225 164Q197 164 184 178T168 212T163 270Q161 285 161 318V352V427V459Q161 489 159 502L101 503Q65 503 34 498Q35 479 35 438Q35 404 33 322Q31 240 31 199Q31 56 55 36Q91 5 147 5Q184 5 210 16T281 54L280 30Q280 -3 294 -3Q323 -3
358 2Z" />
<glyph unicode="&#xfa;" glyph-name="uacute" horiz-adv-x="449" d="M410 661T374 628H375Q314 578 303 558Q282 555 249 555Q220 555 190 558T142 566L157 579Q149 581 138 582T122 586Q159 618 212 674Q274 738 311 767L330 746L331 747L412 663Q410 661 374
628ZM275 727T199 647Q143 591 143 591Q161 585 228 585H249Q268 585 277 587Q283 599 312 625T347 655L378 683L379 684L310 754Q275 727 199 647ZM219 -25T167 -25Q135 -25 103 -15T60 18Q38 32 30 75T21 205Q21 265 24 325Q26 405 26 441Q26 456 23 507Q58 512
106 512H168Q168 499 169 492H188Q191 461 191 371V321Q191 263 193 232T205 176Q219 174 225 174Q253 174 265 192T278 259Q278 283 276 335Q273 373 273 413Q273 464 278 495V505Q307 513 335 513L382 512H393Q408 512 422 514V492L442 494L443 305Q445 179 445
114Q445 61 443 -29Q395 -26 398 -26Q389 -26 370 -29T321 -32Q305 -32 299 -28T292 -12Q275 -11 273 0L272 4Q219 -25 167 -25ZM323 -3T358 2Q374 4 378 4Q381 4 413 2Q415 106 415 154Q415 215 413 331L412 503Q400 502 380 502L331 503Q311 503 288 497V493Q283
462 283 417Q283 392 285 340Q288 301 288 262Q288 206 273 185T225 164Q197 164 184 178T168 212T163 270Q161 285 161 318V352V427V459Q161 489 159 502L101 503Q65 503 34 498Q35 479 35 438Q35 404 33 322Q31 240 31 199Q31 56 55 36Q91 5 147 5Q184 5 210
16T281 54L280 30Q280 -3 294 -3Q323 -3 358 2Z" />
<glyph unicode="&#xfb;" glyph-name="ucircumflex" horiz-adv-x="450" d="M407 568L408 566Q408 565 384 562T335 558Q330 558 315 558T284 568T245 607Q237 602 228 589Q215 574 204 566T178 558L139 560Q134 561 70 565Q72 568 83 582L50 585Q86 633 120 667T206
748L231 771L421 582L407 568ZM192 721Q144 677 118 652T69 594Q140 588 158 588Q160 588 176 590Q183 593 204 616Q223 637 228 639Q233 637 240 628T251 616Q273 590 279 590Q287 588 302 588Q335 588 361 591T392 595H394L231 757L192 721ZM219 -25T167 -25Q135
-25 103 -15T60 18Q38 32 30 75T21 205Q21 265 24 325Q26 405 26 441Q26 456 23 507Q58 512 106 512H168Q168 499 169 492H188Q191 461 191 371V321Q191 263 193 232T205 176Q219 174 225 174Q253 174 265 192T278 259Q278 283 276 335Q273 373 273 413Q273 464
278 495V505Q307 513 335 513L382 512H393Q408 512 422 514V492L442 494L443 305Q445 179 445 114Q445 61 443 -29Q395 -26 398 -26Q389 -26 370 -29T321 -32Q305 -32 299 -28T292 -12Q275 -11 273 0L272 4Q219 -25 167 -25ZM323 -3T358 2Q374 4 378 4Q381 4 413
2Q415 106 415 154Q415 215 413 331L412 503Q400 502 380 502L331 503Q311 503 288 497V493Q283 462 283 417Q283 392 285 340Q288 301 288 262Q288 206 273 185T225 164Q197 164 184 178T168 212T163 270Q161 285 161 318V352V427V459Q161 489 159 502L101 503Q65
503 34 498Q35 479 35 438Q35 404 33 322Q31 240 31 199Q31 56 55 36Q91 5 147 5Q184 5 210 16T281 54L280 30Q280 -3 294 -3Q323 -3 358 2Z" />
<glyph unicode="&#xfc;" glyph-name="udieresis" horiz-adv-x="449" d="M203 747H223L224 693Q226 635 226 606Q215 589 178 589Q169 589 139 591H140L106 592Q86 592 71 591V612L51 611Q51 630 49 668Q47 714 47 749V770L203 767V747ZM387 747H407L408 693Q410
635 410 606Q399 589 362 589Q353 589 323 591H324L290 592Q270 592 255 591V612L235 611Q235 630 233 668Q231 714 231 749V770L387 767V747ZM57 744Q57 713 59 671Q61 637 61 622H78Q93 622 121 620L157 619Q190 619 196 629Q196 661 194 717Q193 735 193 757L57
760V744ZM241 744Q241 713 243 671Q245 637 245 622H262Q277 622 305 620L341 619Q374 619 380 629Q380 661 378 717Q377 735 377 757L241 760V744ZM219 -25T167 -25Q135 -25 103 -15T60 18Q38 32 30 75T21 205Q21 265 24 325Q26 405 26 441Q26 456 23 507Q58 512
106 512H168Q168 499 169 492H188Q191 461 191 371V321Q191 263 193 232T205 176Q219 174 225 174Q253 174 265 192T278 259Q278 283 276 335Q273 373 273 413Q273 464 278 495V505Q307 513 335 513L382 512H393Q408 512 422 514V492L442 494L443 305Q445 179 445
114Q445 61 443 -29Q395 -26 398 -26Q389 -26 370 -29T321 -32Q305 -32 299 -28T292 -12Q275 -11 273 0L272 4Q219 -25 167 -25ZM323 -3T358 2Q374 4 378 4Q381 4 413 2Q415 106 415 154Q415 215 413 331L412 503Q400 502 380 502L331 503Q311 503 288 497V493Q283
462 283 417Q283 392 285 340Q288 301 288 262Q288 206 273 185T225 164Q197 164 184 178T168 212T163 270Q161 285 161 318V352V427V459Q161 489 159 502L101 503Q65 503 34 498Q35 479 35 438Q35 404 33 322Q31 240 31 199Q31 56 55 36Q91 5 147 5Q184 5 210
16T281 54L280 30Q280 -3 294 -3Q323 -3 358 2Z" />
<glyph unicode="&#xfd;" glyph-name="yacute" horiz-adv-x="449" d="M393 661T357 628H358Q297 578 286 558Q265 555 232 555Q203 555 173 558T125 566L140 579Q132 581 121 582T105 586Q142 618 195 674Q257 738 294 767L313 746L314 747L395 663Q393 661 357
628ZM258 727T182 647Q126 591 126 591Q144 585 211 585H232Q251 585 260 587Q266 599 295 625T330 655L361 683L362 684L293 754Q258 727 182 647ZM189 433Q215 277 234 200L243 274Q245 287 252 343T268 441T288 509L336 510Q352 511 384 511Q394 511 454 508Q452
503 449 489L474 488Q427 304 397 167Q372 52 341 -24T239 -154T47 -208H36Q20 -208 6 -206Q5 -202 4 -197T-1 -189T-14 -186Q-27 -142 -27 -99Q-27 -63 -21 -34L23 -35Q33 -36 52 -36Q80 -36 95 -27T110 7Q110 16 109 23V22Q75 208 -11 513Q20 508 40 508L78 509H110Q139
509 152 507L161 499Q161 492 163 490T172 487L181 479L189 433ZM47 498H29Q12 498 3 500Q14 463 20 436Q56 306 79 212T119 24Q120 17 120 6Q120 -24 102 -35T51 -46Q31 -46 20 -45L-12 -44Q-17 -71 -17 -99Q-17 -145 -6 -177Q5 -178 27 -178Q148 -178 215 -128T311
-5T366 184Q380 248 388 278L397 315Q420 417 441 499Q424 500 394 500L308 499H295Q284 472 277 429T260 310Q250 237 244 200T229 137Q204 206 165 421L151 497Q125 499 110 499L47 498Z" />
<glyph unicode="&#xfe;" glyph-name="thorn" horiz-adv-x="470" d="M206 -154T209 -189Q201 -197 187 -200T149 -203Q117 -203 102 -202H103L78 -201Q55 -201 40 -206Q40 -190 41 -182Q29 -182 20 -186Q25 -51 25 168V371Q25 610 31 736L187 733V713H207Q207 587
206 500V498Q220 504 237 505T283 507Q332 504 377 471T452 378T481 246Q481 185 464 121T411 12T324 -32Q295 -32 264 -21T206 10V-115Q206 -154 209 -189ZM200 28T235 13T304 -2Q352 -2 385 40T435 145T451 266Q451 331 429 383T369 465T283 497Q237 497 213
490T175 451L177 723L41 726Q36 603 36 289Q36 -34 30 -172Q32 -171 47 -171Q69 -171 82 -172L131 -173Q154 -173 165 -172T179 -166Q176 -130 176 -91V52Q200 28 235 13ZM328 200T304 169T239 138Q200 138 189 160T177 231V284Q177 323 179 337T192 357T229 363Q268
363 292 345T322 299Q328 279 328 246Q328 200 304 169ZM306 316T291 324T249 333Q227 333 219 328T209 309T207 253V227Q207 196 208 180T214 152Q222 148 239 148Q276 148 297 175T318 246Q318 276 312 296V297Q306 316 291 324Z" />
</font>
</defs>
</svg>
