<?xml version="1.0" standalone="no"?>
<!DOCTYPE svg PUBLIC "-//W3C//DTD SVG 1.1//EN" "http://www.w3.org/Graphics/SVG/1.1/DTD/svg11.dtd">
<svg xmlns="http://www.w3.org/2000/svg">
<defs >
<font id="FiraSansExtraCondensed" horiz-adv-x="438" ><font-face
    font-family="Fira Sans Extra Condensed Thin"
    units-per-em="1000"
    panose-1="2 11 3 3 5 0 0 2 0 4"
    ascent="935"
    descent="-265"
    alphabetic="0" />
<glyph unicode=" " glyph-name="space" horiz-adv-x="241" />
<glyph unicode="!" glyph-name="exclam" horiz-adv-x="216" d="M119 681L118 202H98L97 681H119ZM118 37T124 30T131 14Q131 5 125 -1T108 -8Q98 -8 92 -2T85 14Q85 23 91 30T108 37Q118 37 124 30Z" />
<glyph unicode="&quot;" glyph-name="quotedbl" horiz-adv-x="305" d="M75 441L73 681H95L92 441H75ZM213 441L211 681H233L230 441H213Z" />
<glyph unicode="#" glyph-name="numbersign" horiz-adv-x="401" d="M389 459H324L292 220H359V200H290L263 0H242L268 200H98L72 0H51L77 200H12V220H80L111 459H42V479H114L138 662H159L135 479H305L329 662H351L327 479H389V459ZM271 220L302 459H132L101 220H271Z" />
<glyph unicode="$" glyph-name="dollar" horiz-adv-x="430" d="M375 100T332 48T222 -9V-146H202V-10Q152 -9 115 11T43 69L57 83Q91 47 125 29T206 10Q272 10 312 56T353 175Q353 242 322 279T213 347Q130 379 97 417T63 518Q63 579 102 623T203 671V811H223V671Q266
669 297 652T358 603L344 589Q313 621 283 635T213 650Q156 650 121 612T86 518Q86 461 115 428T221 365Q303 334 339 292T375 176Q375 100 332 48Z" />
<glyph unicode="%" glyph-name="percent" horiz-adv-x="639" d="M503 695L521 686L143 -15L125 -6L503 695ZM220 673T250 633T280 519Q280 444 251 403T168 361Q117 361 87 402T56 516Q56 591 85 632T168 673Q220 673 250 633ZM123 654T101 618T78 516Q78 453
101 417T168 380Q213 380 235 417T258 519Q258 582 236 618T168 654Q123 654 101 618ZM522 302T552 262T583 148Q583 73 554 32T471 -10Q419 -10 389 31T359 145Q359 220 388 261T471 302Q522 302 552 262ZM425 283T403 247T380 145Q380 82 402 46T471 9Q516 9
538 46T561 148Q561 211 539 247T471 283Q425 283 403 247Z" />
<glyph unicode="&amp;" glyph-name="ampersand" horiz-adv-x="588" d="M309 692T342 653T376 548Q376 491 345 451T242 361L433 140Q472 234 491 352L512 348Q492 225 447 126L552 5L536 -7L436 107Q403 51 359 21T252 -10Q181 -10 135 37T89 165Q89 231 119 276T210
365Q162 422 144 457T125 544Q125 611 160 651T253 692Q309 692 342 653ZM205 672T176 637T147 545Q147 502 162 470T228 376Q295 420 324 458T354 548Q354 607 326 639T253 672Q205 672 176 637ZM167 313T140 269T112 165Q112 96 151 54T252 11Q309 11 349 38T421
121L224 351Q167 313 140 269Z" />
<glyph unicode="&apos;" glyph-name="quotesingle" horiz-adv-x="167" d="M75 441L73 681H95L92 441H75Z" />
<glyph unicode="(" glyph-name="parenleft" horiz-adv-x="266" d="M212 820Q165 736 139 677T95 537T77 350Q77 244 94 164T138 24T212 -120L197 -129Q149 -48 121 14T74 160T55 350Q55 457 73 540T120 685T197 829L212 820Z" />
<glyph unicode=")" glyph-name="parenright" horiz-adv-x="266" d="M117 748T145 686T192 540T211 350Q211 243 193 160T146 15T69 -129L54 -120Q101 -36 127 23T171 163T189 350Q189 456 172 536T128 676T54 820L69 829Q117 748 145 686Z" />
<glyph unicode="*" glyph-name="asterisk" horiz-adv-x="365" d="M321 603L195 557L274 431L257 420L183 546L108 420L91 431L170 556L44 603L52 622L174 571L172 732H193L192 572L313 622L321 603Z" />
<glyph unicode="+" glyph-name="plus" horiz-adv-x="398" d="M211 493V341H335V320H211V168H189V320H63V341H189V493H211Z" />
<glyph unicode="," glyph-name="comma" horiz-adv-x="157" d="M91 37T97 31T104 15Q104 4 95 -18L57 -130H41L73 -7Q58 0 58 14Q58 24 65 30T81 37Q91 37 97 31Z" />
<glyph unicode="-" glyph-name="hyphen" horiz-adv-x="328" d="M63 302V323H265V302H63Z" />
<glyph unicode="." glyph-name="period" horiz-adv-x="151" d="M86 37T92 30T98 14Q98 5 92 -1T76 -8Q66 -8 60 -2T53 14Q53 23 59 30T76 37Q86 37 92 30Z" />
<glyph unicode="/" glyph-name="slash" horiz-adv-x="426" d="M298 798L318 793L127 -95L107 -90L298 798Z" />
<glyph unicode="0" glyph-name="zero" horiz-adv-x="455" d="M308 673T348 590T388 330Q388 155 348 73T228 -10Q147 -10 107 73T66 332Q66 507 106 590T228 673Q308 673 348 590ZM159 652T124 575T89 332Q89 165 123 88T228 11Q297 11 331 87T366 330Q366 498
332 575T228 652Q159 652 124 575Z" />
<glyph unicode="1" glyph-name="one" horiz-adv-x="325" d="M212 661V0H190V634L50 525L38 542L194 661H212Z" />
<glyph unicode="2" glyph-name="two" horiz-adv-x="372" d="M236 673T273 629T310 513Q310 447 288 388T215 252T53 22H323L319 0H27V21Q141 175 193 254T266 391T288 513Q288 577 257 614T172 652Q130 652 99 632T39 572L23 583Q55 629 90 651T172 673Q236 673 273 629Z" />
<glyph unicode="3" glyph-name="three" horiz-adv-x="391" d="M243 673T280 629T318 511Q318 441 285 402T198 353Q259 348 296 306T333 184Q333 96 290 43T175 -10Q125 -10 90 10T23 73L38 84Q69 44 100 27T174 10Q237 10 274 57T311 183Q311 263 272 302T164
342H132L134 362H163Q197 362 228 378T278 428T297 511Q297 577 265 615T178 653Q142 653 112 638T52 589L38 600Q69 638 103 655T178 673Q243 673 280 629Z" />
<glyph unicode="4" glyph-name="four" horiz-adv-x="414" d="M382 207V187H306V0H285V187H41V205L210 673L229 666L64 207H285L288 418H306V207H382Z" />
<glyph unicode="5" glyph-name="five" horiz-adv-x="390" d="M321 641H92V376Q136 415 193 415Q263 415 302 362T342 214Q342 112 299 51T180 -10Q92 -10 35 65L51 78Q77 44 108 28T181 11Q246 11 283 65T320 214Q320 303 286 348T191 394Q162 394 138 385T88
354H71V661H325L321 641Z" />
<glyph unicode="6" glyph-name="six" horiz-adv-x="429" d="M300 427T338 376T377 222Q377 108 338 49T230 -10Q144 -10 105 70T66 288Q66 472 115 572T253 673Q280 673 302 664T345 636L332 620Q297 652 252 652Q176 652 133 562T88 313Q148 427 237 427Q300
427 338 376ZM291 11T323 65T355 221Q355 314 323 360T237 406Q148 406 88 279Q91 11 230 11Q291 11 323 65Z" />
<glyph unicode="7" glyph-name="seven" horiz-adv-x="356" d="M321 661V643L97 -6L76 2L298 641H31V661H321Z" />
<glyph unicode="8" glyph-name="eight" horiz-adv-x="437" d="M326 311T355 273T384 167Q384 83 339 37T218 -10Q141 -10 97 37T53 168Q53 304 182 363Q125 391 101 424T77 513Q77 589 118 631T219 673Q280 673 320 633T361 512Q361 457 337 419T256 345Q326 311
355 273ZM99 462T120 432T204 371L239 353Q292 386 315 422T339 512Q339 583 306 618T219 653Q166 653 133 618T99 513Q99 462 120 432ZM284 11T323 50T362 167Q362 212 349 241T309 292T232 337L199 352Q134 322 105 278T75 168Q75 90 113 51T218 11Q284 11 323
50Z" />
<glyph unicode="9" glyph-name="nine" horiz-adv-x="420" d="M285 673T322 605T360 397Q360 276 331 196T246 67T103 -15L96 3Q174 34 225 77T306 190T338 362Q283 255 197 255Q131 255 90 309T49 459Q49 562 91 617T205 673Q285 673 322 605ZM241 276T275 305T338
393Q338 526 307 589T206 652Q144 652 109 604T73 458Q73 370 106 323T197 276Q241 276 275 305Z" />
<glyph unicode=":" glyph-name="colon" horiz-adv-x="151" d="M86 37T92 30T98 14Q98 5 92 -1T76 -8Q66 -8 60 -2T53 14Q53 23 59 30T76 37Q86 37 92 30ZM86 452T92 445T98 429Q98 420 92 414T76 407Q66 407 60 413T53 429Q53 438 59 445T76 452Q86 452 92 445Z" />
<glyph unicode=";" glyph-name="semicolon" horiz-adv-x="157" d="M91 37T97 31T104 15Q104 4 95 -18L57 -130H41L73 -7Q58 0 58 14Q58 24 65 30T81 37Q91 37 97 31ZM86 452T92 445T98 429Q98 420 92 414T76 407Q66 407 60 413T53 429Q53 438 59 445T76 452Q86
452 92 445Z" />
<glyph unicode="&lt;" glyph-name="less" horiz-adv-x="405" d="M331 502L343 485L83 333L343 177L332 159L62 325V341L331 502Z" />
<glyph unicode="=" glyph-name="equal" horiz-adv-x="398" d="M63 400V420H335V400H63ZM63 498V518H335V498H63Z" />
<glyph unicode="&gt;" glyph-name="greater" horiz-adv-x="405" d="M74 502L343 341V325L73 159L62 177L322 333L62 485L74 502Z" />
<glyph unicode="?" glyph-name="question" horiz-adv-x="375" d="M254 691T289 653T324 555Q324 507 306 479T251 418Q226 396 211 379T185 335T174 271V202H153V273Q153 313 164 341T190 388T232 428Q267 458 284 484T302 555Q302 608 273 639T195 671Q155 671
126 653T67 594L51 606Q81 650 115 670T195 691Q254 691 289 653ZM173 37T179 30T186 14Q186 5 180 -1T163 -8Q153 -8 147 -2T141 14Q141 23 147 30T163 37Q173 37 179 30Z" />
<glyph unicode="@" glyph-name="at" horiz-adv-x="846" d="M540 692T613 642T723 504T761 309Q761 151 723 83T626 15Q584 15 560 46T528 132Q488 17 406 17Q346 17 309 72T271 232Q271 353 317 415T435 477Q487 477 543 444V184Q543 109 564 72T626 34Q675 34
706 96T738 308Q738 413 704 495T601 624T437 671Q341 671 266 615T150 461T108 244Q108 108 149 14T264 -128T435 -176Q516 -176 586 -145L592 -164Q555 -180 518 -188T435 -197Q333 -197 254 -147T130 3T85 244Q85 369 129 471T253 633T437 692Q540 692 613 642ZM448
37T478 73T522 168V433Q499 444 479 450T436 456Q371 456 333 398T294 232Q294 136 324 87T407 37Q448 37 478 73Z" />
<glyph unicode="A" glyph-name="A" horiz-adv-x="470" d="M420 0L363 203H106L49 0H28L221 681H249L443 0H420ZM112 224H357L235 663L112 224Z" />
<glyph unicode="B" glyph-name="B" horiz-adv-x="482" d="M351 355T392 312T433 184Q433 93 381 47T235 0H100V681H207Q303 681 354 638T405 513Q405 450 373 411T281 361Q351 355 392 312ZM122 660V370H238Q306 370 343 409T381 512Q381 584 338 622T211 660H122ZM319
21T364 61T410 184Q410 266 367 308T242 350H122V21H236Q319 21 364 61Z" />
<glyph unicode="C" glyph-name="C" horiz-adv-x="443" d="M325 691T356 677T416 633L403 618Q374 645 348 657T284 670Q195 670 141 590T86 340Q86 177 139 95T281 12Q323 12 351 26T408 68L422 53Q363 -10 281 -10Q217 -10 168 29T91 146T63 340Q63 459 91 537T169
653T282 691Q325 691 356 677Z" />
<glyph unicode="D" glyph-name="D" horiz-adv-x="510" d="M310 681T378 609T447 348Q447 155 377 78T205 0H100V681H201Q310 681 378 609ZM122 660V21H206Q300 21 361 93T423 348Q423 530 361 595T201 660H122Z" />
<glyph unicode="E" glyph-name="E" horiz-adv-x="407" d="M365 681L362 660H122V370H330V349H122V21H371V0H100V681H365Z" />
<glyph unicode="F" glyph-name="F" horiz-adv-x="388" d="M100 0V681H361L358 660H122V356H326V335H122V0H100Z" />
<glyph unicode="G" glyph-name="G" horiz-adv-x="498" d="M328 691T360 677T426 632L412 617Q382 645 353 657T286 670Q233 670 188 639T115 534T86 345Q86 173 139 93T288 12Q327 12 358 22T417 53V333H299L296 354H439V41Q368 -10 290 -10Q183 -10 123 77T63
345Q63 465 94 542T176 655T286 691Q328 691 360 677Z" />
<glyph unicode="H" glyph-name="H" horiz-adv-x="542" d="M420 0V349H122V0H100V681H122V370H420V681H443V0H420Z" />
<glyph unicode="I" glyph-name="I" horiz-adv-x="222" d="M122 681V0H100V681H122Z" />
<glyph unicode="J" glyph-name="J" horiz-adv-x="229" d="M134 87Q134 35 125 3T93 -52T24 -100L18 -84Q57 -61 76 -40T104 11T112 89V681H134V87Z" />
<glyph unicode="K" glyph-name="K" horiz-adv-x="433" d="M122 681V0H100V681H122ZM407 681L152 367L420 0H394L125 367L381 681H407Z" />
<glyph unicode="L" glyph-name="L" horiz-adv-x="375" d="M122 681V22H358L355 0H100V681H122Z" />
<glyph unicode="M" glyph-name="M" horiz-adv-x="628" d="M564 0H543L511 345Q494 535 485 660L325 84H303L141 660Q138 618 128 511L115 354L86 0H64L124 681H157L314 112L470 681H503L564 0Z" />
<glyph unicode="N" glyph-name="N" horiz-adv-x="544" d="M444 0H415L119 655Q122 553 122 477V0H100V681H129L425 26Q425 40 424 48Q422 128 422 205V681H444V0Z" />
<glyph unicode="O" glyph-name="O" horiz-adv-x="565" d="M386 691T444 603T503 340Q503 168 446 79T283 -10Q181 -10 122 79T63 339Q63 511 122 601T283 691Q386 691 444 603ZM192 670T139 587T86 339Q86 176 139 94T283 12Q378 12 428 93T479 340Q479 507 428
588T283 670Q192 670 139 587Z" />
<glyph unicode="P" glyph-name="P" horiz-adv-x="454" d="M303 681T358 634T413 484Q413 379 355 331T180 282H122V0H100V681H183Q303 681 358 634ZM287 303T338 345T390 483Q390 577 342 618T183 660H122V303H182Q287 303 338 345Z" />
<glyph unicode="Q" glyph-name="Q" horiz-adv-x="565" d="M398 4T441 -11T520 -64L503 -81Q462 -39 413 -24T283 -8Q181 -8 122 80T63 339Q63 454 90 533T167 651T283 691Q386 691 444 603T503 340Q503 47 342 6Q398 4 441 -11ZM86 176T139 94T283 12Q378 12 428
93T479 340Q479 507 428 588T283 670Q192 670 139 587T86 339Q86 176 139 94Z" />
<glyph unicode="R" glyph-name="R" horiz-adv-x="471" d="M411 0L256 326Q232 324 220 324H122V0H100V681H207Q314 681 362 636T410 504Q410 433 376 389T278 330L436 0H411ZM386 345T386 504Q386 582 345 621T205 660H122V345H216Q386 345 386 504Z" />
<glyph unicode="S" glyph-name="S" horiz-adv-x="440" d="M267 691T301 674T367 622L353 608Q322 640 291 655T218 670Q160 670 124 631T87 534Q87 476 117 442T226 377Q311 344 348 301T385 182Q385 128 363 84T302 15T212 -10Q159 -10 119 11T43 72L58 85Q91
49 126 31T211 12Q279 12 320 59T362 181Q362 251 330 288T218 358Q133 392 99 431T64 534Q64 576 83 612T138 669T218 691Q267 691 301 674Z" />
<glyph unicode="T" glyph-name="T" horiz-adv-x="392" d="M381 681L379 660H208V0H185V660H13V681H381Z" />
<glyph unicode="U" glyph-name="U" horiz-adv-x="523" d="M433 172Q433 92 390 41T262 -10Q175 -10 133 41T90 172V681H112V174Q112 101 149 57T262 12Q338 12 374 57T411 174V681H433V172Z" />
<glyph unicode="V" glyph-name="V" horiz-adv-x="451" d="M423 681L239 0H212L28 681H51L226 22L401 681H423Z" />
<glyph unicode="W" glyph-name="W" horiz-adv-x="658" d="M624 681L494 0H466L329 659L192 0H164L34 681H57L178 24L315 681H343L480 24L602 681H624Z" />
<glyph unicode="X" glyph-name="X" horiz-adv-x="400" d="M212 370L388 0H364L198 355L36 0H12L184 369L32 681H56L198 384L339 681H362L212 370Z" />
<glyph unicode="Y" glyph-name="Y" horiz-adv-x="408" d="M391 681L217 270V0H194V270L16 681H41L206 292L368 681H391Z" />
<glyph unicode="Z" glyph-name="Z" horiz-adv-x="418" d="M377 681V662L57 22H368L365 0H33V21L354 660H64V681H377Z" />
<glyph unicode="[" glyph-name="bracketleft" horiz-adv-x="257" d="M191 796V778H103V-88H191V-106H82V796H191Z" />
<glyph unicode="\" glyph-name="backslash" horiz-adv-x="426" d="M127 798L318 -90L298 -95L107 793L127 798Z" />
<glyph unicode="]" glyph-name="bracketright" horiz-adv-x="257" d="M175 796V-106H66V-88H154V778H66V796H175Z" />
<glyph unicode="^" glyph-name="asciicircum" horiz-adv-x="432" d="M223 823L369 527H341L214 796L87 527H60L206 823H223Z" />
<glyph unicode="_" glyph-name="underscore" horiz-adv-x="431" d="M36 -100V-79H396V-100H36Z" />
<glyph unicode="`" glyph-name="grave" horiz-adv-x="215" d="M48 759L192 668L182 654L35 738L48 759Z" />
<glyph unicode="a" glyph-name="a" horiz-adv-x="434" d="M339 55T347 35T377 6L372 -10Q345 0 333 22T319 86Q295 38 263 14T184 -10Q123 -10 88 32T53 144Q53 223 100 265T231 308H317V377Q317 442 293 475T213 509Q157 509 92 478L84 495Q150 529 214 529Q339
529 339 379V96Q339 55 347 35ZM274 11T317 120V288H233Q156 288 117 252T77 144Q77 81 105 46T184 11Q274 11 317 120Z" />
<glyph unicode="b" glyph-name="b" horiz-adv-x="464" d="M328 529T367 463T406 264Q406 130 366 60T248 -10Q170 -10 117 78L115 0H96V733L118 736V439Q173 529 255 529Q328 529 367 463ZM314 11T348 74T382 264Q382 509 253 509Q209 509 178 484T118 410V107Q172
11 247 11Q314 11 348 74Z" />
<glyph unicode="c" glyph-name="c" horiz-adv-x="375" d="M267 529T293 517T344 479L331 465Q289 509 233 509Q163 509 123 447T82 257Q82 132 122 72T232 11Q290 11 336 57L348 44Q297 -10 233 -10Q152 -10 106 57T59 257Q59 391 105 460T233 529Q267 529 293 517Z" />
<glyph unicode="d" glyph-name="d" horiz-adv-x="468" d="M373 733V0H353L351 88Q305 -10 218 -10Q144 -10 102 59T59 258Q59 384 103 456T226 529Q304 529 351 447V736L373 733ZM264 11T295 39T351 124V415Q305 509 226 509Q160 509 121 445T82 262Q82 139 118
75T218 11Q264 11 295 39Z" />
<glyph unicode="e" glyph-name="e" horiz-adv-x="433" d="M380 268T378 246H81Q84 127 124 69T230 11Q266 11 293 24T348 65L362 51Q332 21 301 6T231 -10Q151 -10 105 58T59 255Q59 388 103 458T225 529Q302 529 341 465T380 284Q380 268 378 246ZM358 273T358
292Q358 395 325 452T225 509Q161 509 122 449T81 265H357Q358 273 358 292Z" />
<glyph unicode="f" glyph-name="f" horiz-adv-x="253" d="M165 716T143 694T120 624V519H240L236 499H120V0H98V499H25V519H98V627Q98 679 126 708T202 737Q252 737 298 706L288 689Q266 703 247 709T204 716Q165 716 143 694Z" />
<glyph unicode="g" glyph-name="g" horiz-adv-x="402" d="M389 526Q348 512 262 511Q303 496 325 457T348 356Q348 277 310 234T203 190Q173 190 141 204Q99 174 99 129Q99 63 189 63H241Q306 63 342 31T378 -57Q378 -121 335 -159T206 -197Q116 -197 76 -164T35
-58H56Q57 -122 91 -149T206 -176Q282 -176 318 -144T355 -58Q355 -10 325 16T239 43H187Q132 43 105 65T78 126Q78 177 124 211Q52 256 52 358Q52 438 92 483T201 529Q284 529 317 533T382 550L389 526ZM139 509T107 469T75 358Q75 287 111 249T203 210Q261 210
293 247T326 356Q326 428 293 468T200 509Q139 509 107 469Z" />
<glyph unicode="h" glyph-name="h" horiz-adv-x="477" d="M328 529T357 490T386 379V0H364V377Q364 441 341 475T270 509Q223 509 186 476T118 381V0H96V733L118 736V413Q182 529 272 529Q328 529 357 490Z" />
<glyph unicode="i" glyph-name="i" horiz-adv-x="213" d="M118 519V0H96V519H118ZM115 724T120 718T126 704Q126 696 121 691T107 685Q98 685 93 690T87 704Q87 712 92 718T107 724Q115 724 120 718Z" />
<glyph unicode="j" glyph-name="j" horiz-adv-x="213" d="M118 -25Q118 -72 108 -102T78 -152T23 -195L14 -179Q60 -150 78 -119T96 -24V519H118V-25ZM114 724T119 718T125 704Q125 696 120 691T106 685Q97 685 92 690T86 704Q86 712 91 718T106 724Q114 724 119 718Z" />
<glyph unicode="k" glyph-name="k" horiz-adv-x="382" d="M118 736V0H96V733L118 736ZM349 519L148 284L369 0H343L123 284L323 519H349Z" />
<glyph unicode="l" glyph-name="l" horiz-adv-x="227" d="M124 -10T108 8T91 61V733L113 736V61Q113 10 154 10Q168 10 185 17L192 0Q170 -10 152 -10Q124 -10 108 8Z" />
<glyph unicode="m" glyph-name="m" horiz-adv-x="696" d="M549 529T577 489T605 379V0H583V377Q583 439 561 474T496 509Q419 509 361 384V0H339V378Q339 440 317 474T253 509Q176 509 118 384V0H96V519H115L117 417Q172 529 253 529Q297 529 324 499T359 413Q414
529 497 529Q549 529 577 489Z" />
<glyph unicode="n" glyph-name="n" horiz-adv-x="477" d="M328 529T357 490T386 379V0H364V377Q364 441 341 475T270 509Q182 509 118 381V0H96V519H115L117 414Q147 470 184 499T272 529Q328 529 357 490Z" />
<glyph unicode="o" glyph-name="o" horiz-adv-x="460" d="M312 529T356 463T401 262Q401 127 356 59T229 -10Q148 -10 104 58T59 259Q59 393 105 461T231 529Q312 529 356 463ZM161 509T121 447T81 259Q81 135 119 73T229 11Q301 11 340 73T379 262Q379 387 341
448T231 509Q161 509 121 447Z" />
<glyph unicode="p" glyph-name="p" horiz-adv-x="464" d="M328 529T367 464T406 264Q406 130 365 60T249 -10Q207 -10 174 13T118 76V-192L96 -196V519H115L117 438Q172 529 254 529Q328 529 367 464ZM313 11T347 74T382 264Q382 509 254 509Q211 509 179 484T118
410V106Q173 11 248 11Q313 11 347 74Z" />
<glyph unicode="q" glyph-name="q" horiz-adv-x="468" d="M373 519V-196L351 -192V85Q304 -10 221 -10Q146 -10 103 60T59 258Q59 384 103 456T225 529Q307 529 351 448L354 519H373ZM264 11T295 38T351 117V416Q305 509 225 509Q160 509 121 445T82 262Q82 140
118 76T220 11Q264 11 295 38Z" />
<glyph unicode="r" glyph-name="r" horiz-adv-x="299" d="M264 529T284 523L280 505Q262 510 244 510Q197 510 168 472T118 351V0H96V519H115L116 400Q135 467 165 498T244 529Q264 529 284 523Z" />
<glyph unicode="s" glyph-name="s" horiz-adv-x="378" d="M226 529T256 516T316 474L304 459Q276 485 250 497T189 509Q142 509 111 480T79 401Q79 360 104 335T195 284Q269 254 298 223T328 134Q328 70 288 30T187 -10Q140 -10 106 7T42 56L55 70Q86 39 115 25T187
10Q239 10 272 43T306 134Q306 169 295 191T258 231T184 268Q115 295 86 324T57 401Q57 456 95 492T188 529Q226 529 256 516Z" />
<glyph unicode="t" glyph-name="t" horiz-adv-x="268" d="M269 20Q228 -10 185 -10Q141 -10 116 18T91 97V499H21V519H91V650L113 652V519H230L227 499H113V98Q113 57 132 34T187 11Q224 11 258 35L269 20Z" />
<glyph unicode="u" glyph-name="u" horiz-adv-x="473" d="M378 0H358L357 102Q333 52 297 21T213 -10Q156 -10 124 28T91 135V519H113V136Q113 75 139 43T213 11Q260 11 294 42T356 133V519H378V0Z" />
<glyph unicode="v" glyph-name="v" horiz-adv-x="378" d="M355 519L206 0H179L22 519H46L192 19L333 519H355Z" />
<glyph unicode="w" glyph-name="w" horiz-adv-x="570" d="M539 519L428 0H398L286 497L174 0H144L31 519H54L159 23L273 519H300L413 22L517 519H539Z" />
<glyph unicode="x" glyph-name="x" horiz-adv-x="366" d="M195 279L348 0H323L182 266L42 0H18L169 278L38 519H63L182 291L304 519H328L195 279Z" />
<glyph unicode="y" glyph-name="y" horiz-adv-x="374" d="M204 -1Q187 -63 170 -98T126 -156T53 -195L49 -177Q91 -162 115 -141T153 -89T184 0H176L22 519H45L191 18L329 519H352L204 -1Z" />
<glyph unicode="z" glyph-name="z" horiz-adv-x="338" d="M308 519V501L50 21H303L301 0H25V18L284 499H47V519H308Z" />
<glyph unicode="{" glyph-name="braceleft" horiz-adv-x="268" d="M200 800Q166 800 151 780T135 716V433Q135 392 120 374T71 349Q104 343 119 325T135 265V-18Q135 -61 151 -81T201 -102V-120Q159 -120 137 -96T114 -17V266Q114 305 99 321T50 338V360Q83 360
98 376T114 432V716Q114 770 136 794T201 818L200 800Z" />
<glyph unicode="|" glyph-name="bar" horiz-adv-x="338" d="M179 801V-98H158V801H179Z" />
<glyph unicode="}" glyph-name="braceright" horiz-adv-x="268" d="M110 818T132 794T154 716V432Q154 393 169 377T218 360V338Q185 338 170 322T154 266V-17Q154 -71 132 -95T67 -120V-102Q102 -102 117 -82T133 -18V265Q133 306 148 325T198 349Q165 355 149
373T133 433V716Q133 760 118 780T68 800L67 818Q110 818 132 794Z" />
<glyph unicode="~" glyph-name="asciitilde" horiz-adv-x="377" d="M237 281T222 288T185 310Q166 322 153 328T128 335Q110 335 98 325T72 293L56 302Q71 328 88 341T128 355Q144 355 158 348T194 327Q213 314 226 308T253 302Q269 302 280 312T305 343L321 335Q306
308 291 295T252 281Q237 281 222 288Z" />
<glyph unicode="&#xa0;" glyph-name="uni00A0" horiz-adv-x="242" />
<glyph unicode="&#xa1;" glyph-name="exclamdown" horiz-adv-x="216" d="M118 453T124 446T131 430Q131 421 125 414T108 407Q98 407 92 414T85 430Q85 439 91 446T108 453Q118 453 124 446ZM118 252L119 -192H97L98 252H118Z" />
<glyph unicode="&#xa2;" glyph-name="cent" horiz-adv-x="375" d="M302 -6T241 -10V-146H221V-10Q146 -5 103 62T59 257Q59 386 102 455T223 529V676H242V529Q272 527 296 516T344 479L331 465Q289 509 233 509Q163 509 123 447T82 257Q82 132 122 72T232 11Q290
11 336 57L348 44Q302 -6 241 -10Z" />
<glyph unicode="&#xa3;" glyph-name="sterling" horiz-adv-x="412" d="M140 89T126 64T78 21H358L355 0H50V21Q88 42 103 66T118 135V343H66V364H118V512Q118 583 151 628T246 673Q283 673 312 657T366 606L351 594Q329 624 305 638T246 653Q194 653 167 615T140
512V364H316V343H140V137Q140 89 126 64Z" />
<glyph unicode="&#xa4;" glyph-name="currency" horiz-adv-x="460" d="M389 121L325 198Q286 161 229 161Q174 161 136 197L72 121L57 133L122 212Q85 262 85 340Q85 418 121 467L55 546L70 559L134 482Q174 520 229 520Q289 520 325 482L388 559L402 546L338
468Q374 419 374 340Q374 261 337 213L405 133L389 121ZM288 180T320 222T352 340Q352 417 321 459T229 501Q171 501 139 459T107 340Q107 263 139 222T229 180Q288 180 320 222Z" />
<glyph unicode="&#xa5;" glyph-name="yen" horiz-adv-x="400" d="M384 661L220 329H322V308H212V190H322V168H212V0H190V168H82V190H190V308H82V329H182L16 661H41L201 331L361 661H384Z" />
<glyph unicode="&#xa6;" glyph-name="brokenbar" horiz-adv-x="338" d="M179 801V443H158V801H179ZM179 262V-98H158V262H179Z" />
<glyph unicode="&#xa7;" glyph-name="section" horiz-adv-x="436" d="M315 140T326 118T337 62Q337 5 301 -29T208 -64Q171 -64 141 -53T83 -20L95 -4Q145 -43 208 -43Q258 -43 286 -14T315 61Q315 103 294 127T209 178Q161 198 134 216T94 258T80 322Q80 359
97 390T150 452Q124 470 113 492T102 547Q102 604 137 638T227 672Q261 672 288 662T344 629L333 612Q307 633 282 642T227 652Q180 652 152 624T124 548Q124 519 133 501T165 466T236 430Q300 403 328 371T356 288Q356 247 340 216T290 158Q315 140 326 118ZM102
290T112 270T145 233T215 197Q251 182 274 169Q306 193 320 221T334 287Q334 329 312 357T229 411Q189 428 165 442Q132 415 117 386T102 322Q102 290 112 270Z" />
<glyph unicode="&#xa8;" glyph-name="dieresis" horiz-adv-x="237" d="M64 712T69 707T74 692Q74 684 69 679T55 673Q47 673 42 678T36 692Q36 700 41 706T55 712Q64 712 69 707ZM202 712T207 706T213 692Q213 684 208 679T194 673Q185 673 180 678T174 692Q174
700 179 706T194 712Q202 712 207 706Z" />
<glyph unicode="&#xa9;" glyph-name="copyright" horiz-adv-x="663" d="M399 722T451 689T532 590T562 435Q562 346 533 281T451 182T332 148Q265 148 213 181T132 280T102 435Q102 524 131 589T213 688T332 722Q399 722 451 689ZM271 701T223 670T149 579T122
435Q122 350 148 290T222 200T332 169Q393 169 440 200T514 291T541 435Q541 520 515 580T441 670T332 701Q271 701 223 670ZM355 606T372 599T404 577L393 563Q380 574 366 580T331 586Q295 586 269 551T243 437Q243 358 267 322T333 285Q371 285 401 313L412
297Q378 265 332 265Q282 265 252 308T221 437Q221 523 253 564T331 606Q355 606 372 599Z" />
<glyph unicode="&#xaa;" glyph-name="ordfeminine" horiz-adv-x="420" d="M284 517V573Q284 616 265 638T200 661Q160 661 106 637L100 656Q155 681 202 681Q306 681 306 575V350Q306 325 313 312T336 292L331 277Q309 285 299 300T287 345Q248 277 178 277Q130
277 102 308T74 393Q74 452 110 484T209 517H284ZM248 297T284 373V496H210Q98 496 98 393Q98 347 120 322T180 297Q248 297 284 373ZM74 21H346V1H74V21Z" />
<glyph unicode="&#xab;" glyph-name="guillemotleft" horiz-adv-x="466" d="M203 503L218 494L101 288L218 83L203 74L78 281V295L203 503ZM373 503L388 494L271 288L388 83L373 74L248 281V295L373 503Z" />
<glyph unicode="&#xac;" glyph-name="logicalnot" horiz-adv-x="406" d="M343 331V198H320V310H63V331H343Z" />
<glyph unicode="&#xad;" glyph-name="uni00AD" horiz-adv-x="328" d="M63 302V323H265V302H63Z" />
<glyph unicode="&#xae;" glyph-name="registered" horiz-adv-x="523" d="M314 721T356 695T422 620T446 502Q446 435 423 384T357 306T261 278Q208 278 167 304T101 380T77 498Q77 565 100 615T166 693T261 721Q314 721 356 695ZM335 297T381 352T427 502Q427
597 381 650T261 703Q188 703 142 648T96 498Q96 403 142 350T261 297Q335 297 381 352ZM335 503T284 489L344 369H321L263 487H220V369H200V638H250Q291 638 313 618T335 562Q335 503 284 489ZM220 506H262Q315 506 315 562Q315 618 254 618H220V506Z" />
<glyph unicode="&#xaf;" glyph-name="overscore" horiz-adv-x="234" d="M209 685H35V705H209V685Z" />
<glyph unicode="&#xb0;" glyph-name="degree" horiz-adv-x="410" d="M131 411T99 448T66 552Q66 616 99 653T180 691Q231 691 262 654T294 551Q294 486 263 449T180 411Q131 411 99 448ZM222 431T246 462T271 551Q271 609 247 640T180 672Q140 672 115 640T89
552Q89 495 114 463T180 431Q222 431 246 462Z" />
<glyph unicode="&#xb1;" glyph-name="plusminus" horiz-adv-x="398" d="M63 0V20H335V0H63ZM211 493V341H335V320H211V168H189V320H63V341H189V493H211Z" />
<glyph unicode="&#xb2;" glyph-name="uni00B2" horiz-adv-x="328" d="M206 738T230 710T255 634Q255 593 242 559T201 486T105 360L92 343H265L261 322H68V342Q143 436 175 481T220 559T233 633Q233 673 214 695T162 718Q114 718 79 670L64 682Q86 711 109 724T162
738Q206 738 230 710Z" />
<glyph unicode="&#xb3;" glyph-name="uni00B3" horiz-adv-x="328" d="M206 740T232 712T258 639Q258 597 237 572T181 541Q218 539 242 512T267 436Q267 383 238 349T158 315Q99 315 60 368L74 379Q93 355 113 345T158 335Q199 335 222 362T246 435Q246 483 223
506T161 530H140L142 549H159Q191 549 214 571T237 638Q237 676 217 698T164 720Q141 720 122 711T81 681L69 694Q91 718 113 729T164 740Q206 740 232 712Z" />
<glyph unicode="&#xb4;" glyph-name="acute" horiz-adv-x="216" d="M178 759L191 738L43 654L34 668L178 759Z" />
<glyph unicode="&#xb5;" glyph-name="uni00B5" horiz-adv-x="478" d="M379 -5Q368 33 363 59T357 122Q303 -10 212 -10Q173 -10 149 10T114 69Q118 2 118 -64V-192L96 -194V519H118V142Q118 74 144 43T212 11Q299 11 354 150V519H376V170Q376 118 382 78T399 -3L379 -5Z" />
<glyph unicode="&#xb6;" glyph-name="paragraph" horiz-adv-x="565" d="M428 681V-192L406 -196V661H292V-192L270 -196V306Q177 309 135 360T93 494Q93 583 141 632T274 681H428Z" />
<glyph unicode="&#xb7;" glyph-name="middot" horiz-adv-x="151" d="M86 349T92 342T98 326Q98 317 92 311T76 304Q66 304 60 310T53 326Q53 335 59 342T76 349Q86 349 92 342Z" />
<glyph unicode="&#xb8;" glyph-name="cedilla" horiz-adv-x="188" d="M88 -74Q163 -82 163 -141Q163 -175 143 -193T92 -212Q60 -212 35 -194L45 -178Q66 -193 92 -193Q114 -193 128 -180T142 -141Q142 -115 125 -103T68 -90L73 9H90L88 -74Z" />
<glyph unicode="&#xb9;" glyph-name="uni00B9" horiz-adv-x="329" d="M200 732V322H179V708L89 643L79 658L183 732H200Z" />
<glyph unicode="&#xba;" glyph-name="ordmasculine" horiz-adv-x="413" d="M274 681T310 632T346 481Q346 379 309 328T206 277Q140 277 104 328T68 479Q68 580 105 630T207 681Q274 681 310 632ZM151 662T121 618T90 479Q90 386 120 341T206 296Q263 296 293
341T324 481Q324 662 207 662Q151 662 121 618ZM71 0V20H343V0H71Z" />
<glyph unicode="&#xbb;" glyph-name="guillemotright" horiz-adv-x="466" d="M92 503L218 295V281L92 74L78 83L194 288L78 494L92 503ZM262 503L388 295V281L262 74L248 83L364 288L248 494L262 503Z" />
<glyph unicode="&#xbc;" glyph-name="onequarter" horiz-adv-x="734" d="M200 681V271H179V657L89 592L79 607L183 681H200ZM526 742L544 734L210 -66L192 -58L526 742ZM683 132V112H635V0H614V112H458V130L566 418L583 411L477 132H614L617 259H635V132H683Z" />
<glyph unicode="&#xbd;" glyph-name="onehalf" horiz-adv-x="735" d="M200 681V271H179V657L89 592L79 607L183 681H200ZM526 742L544 734L210 -66L192 -58L526 742ZM613 416T637 388T662 312Q662 271 649 237T608 164T512 38L499 21H672L668 0H475V20Q550 114
582 159T627 237T640 311Q640 351 621 373T569 396Q521 396 486 348L471 360Q493 389 516 402T569 416Q613 416 637 388Z" />
<glyph unicode="&#xbe;" glyph-name="threequarters" horiz-adv-x="733" d="M206 689T232 661T258 588Q258 546 237 521T181 490Q218 488 242 461T267 385Q267 332 238 298T158 264Q99 264 60 317L74 328Q93 304 113 294T158 284Q199 284 222 311T246 384Q246
432 223 455T161 479H140L142 498H159Q191 498 214 520T237 587Q237 625 217 647T164 669Q141 669 122 660T81 630L69 643Q91 667 113 678T164 689Q206 689 232 661ZM525 742L543 734L209 -66L191 -58L525 742ZM682 132V112H634V0H613V112H457V130L565 418L582
411L476 132H613L616 259H634V132H682Z" />
<glyph unicode="&#xbf;" glyph-name="questiondown" horiz-adv-x="375" d="M202 407T196 414T189 430Q189 439 195 446T212 453Q222 453 228 446T234 430Q234 421 228 414T212 407Q202 407 196 414ZM122 -197T87 -159T51 -63Q51 -15 69 13T124 73Q150 96 165 113T190
157T201 221V252H222V218Q222 178 211 150T185 105T143 64Q108 34 91 8T73 -63Q73 -113 102 -144T180 -176Q221 -176 250 -158T308 -99L324 -112Q294 -155 259 -176T180 -197Q122 -197 87 -159Z" />
<glyph unicode="&#xc0;" glyph-name="Agrave" horiz-adv-x="470" d="M420 0L363 203H106L49 0H28L221 681H249L443 0H420ZM112 224H357L235 663L112 224ZM170 857L313 777L305 763L158 836L170 857Z" />
<glyph unicode="&#xc1;" glyph-name="Aacute" horiz-adv-x="470" d="M420 0L363 203H106L49 0H28L221 681H249L443 0H420ZM112 224H357L235 663L112 224ZM301 858L312 836L164 764L157 778L301 858Z" />
<glyph unicode="&#xc2;" glyph-name="Acircumflex" horiz-adv-x="470" d="M420 0L363 203H106L49 0H28L221 681H249L443 0H420ZM112 224H357L235 663L112 224ZM140 767L129 778L228 869H240L340 778L328 767L234 846L140 767Z" />
<glyph unicode="&#xc3;" glyph-name="Atilde" horiz-adv-x="470" d="M420 0L363 203H106L49 0H28L221 681H249L443 0H420ZM112 224H357L235 663L112 224ZM268 804T256 810T228 828Q225 830 216 836T200 845T186 848Q172 848 162 840T138 813L124 821Q139 844 153
855T186 867Q198 867 208 862T235 845Q250 834 260 829T282 823Q296 823 307 832T331 864L345 857Q331 829 316 817T282 804Q268 804 256 810Z" />
<glyph unicode="&#xc4;" glyph-name="Adieresis" horiz-adv-x="470" d="M420 0L363 203H106L49 0H28L221 681H249L443 0H420ZM112 224H357L235 663L112 224ZM180 838T185 833T190 818Q190 810 185 805T171 799Q163 799 158 804T152 818Q152 826 157 832T171 838Q180
838 185 833ZM318 838T323 832T329 818Q329 810 324 805T310 799Q301 799 296 804T290 818Q290 826 295 832T310 838Q318 838 323 832Z" />
<glyph unicode="&#xc5;" glyph-name="Aring" horiz-adv-x="470" d="M420 0L363 203H106L49 0H28L221 681H249L443 0H420ZM112 224H357L235 663L112 224ZM266 927T284 907T302 849Q302 811 284 791T235 770Q204 770 186 790T168 848Q168 886 186 906T235 927Q266
927 284 907ZM188 910T188 848Q188 787 235 787Q282 787 282 849Q282 910 235 910Q188 910 188 848Z" />
<glyph unicode="&#xc6;" glyph-name="AE" horiz-adv-x="623" d="M398 21H587V0H380L338 196H93L32 0H9L226 681H544L541 660H262L324 370H537V349H328L398 21ZM100 218H334L239 663L100 218Z" />
<glyph unicode="&#xc7;" glyph-name="Ccedilla" horiz-adv-x="443" d="M364 -9T284 -10L282 -74Q357 -82 357 -141Q357 -175 337 -193T286 -212Q254 -212 229 -194L239 -178Q260 -193 286 -193Q308 -193 322 -180T336 -141Q336 -115 319 -103T262 -90L266 -9Q174
-3 119 86T63 340Q63 459 91 537T169 653T282 691Q325 691 356 677T416 633L403 618Q374 645 348 657T284 670Q195 670 141 590T86 340Q86 177 139 95T281 12Q323 12 351 26T408 68L422 53Q364 -9 284 -10Z" />
<glyph unicode="&#xc8;" glyph-name="Egrave" horiz-adv-x="407" d="M365 681L362 660H122V370H330V349H122V21H371V0H100V681H365ZM171 857L314 777L306 763L159 836L171 857Z" />
<glyph unicode="&#xc9;" glyph-name="Eacute" horiz-adv-x="407" d="M365 681L362 660H122V370H330V349H122V21H371V0H100V681H365ZM302 858L313 836L165 764L158 778L302 858Z" />
<glyph unicode="&#xca;" glyph-name="Ecircumflex" horiz-adv-x="407" d="M365 681L362 660H122V370H330V349H122V21H371V0H100V681H365ZM141 767L130 778L229 869H241L341 778L329 767L235 846L141 767Z" />
<glyph unicode="&#xcb;" glyph-name="Edieresis" horiz-adv-x="407" d="M365 681L362 660H122V370H330V349H122V21H371V0H100V681H365ZM181 838T186 833T191 818Q191 810 186 805T172 799Q164 799 159 804T153 818Q153 826 158 832T172 838Q181 838 186 833ZM319
838T324 832T330 818Q330 810 325 805T311 799Q302 799 297 804T291 818Q291 826 296 832T311 838Q319 838 324 832Z" />
<glyph unicode="&#xcc;" glyph-name="Igrave" horiz-adv-x="222" d="M122 681V0H100V681H122ZM46 857L189 777L181 763L34 836L46 857Z" />
<glyph unicode="&#xcd;" glyph-name="Iacute" horiz-adv-x="222" d="M122 681V0H100V681H122ZM177 858L188 836L40 764L33 778L177 858Z" />
<glyph unicode="&#xce;" glyph-name="Icircumflex" horiz-adv-x="222" d="M122 681V0H100V681H122ZM16 767L5 778L104 869H116L216 778L204 767L110 846L16 767Z" />
<glyph unicode="&#xcf;" glyph-name="Idieresis" horiz-adv-x="222" d="M122 681V0H100V681H122ZM56 838T61 833T66 818Q66 810 61 805T47 799Q39 799 34 804T28 818Q28 826 33 832T47 838Q56 838 61 833ZM194 838T199 832T205 818Q205 810 200 805T186 799Q177
799 172 804T166 818Q166 826 171 832T186 838Q194 838 199 832Z" />
<glyph unicode="&#xd0;" glyph-name="Eth" horiz-adv-x="509" d="M309 681T377 609T446 348Q446 155 376 78T204 0H99V341H21V363H99V681H200Q309 681 377 609ZM299 21T360 93T422 348Q422 530 360 595T200 660H121V363H276V341H121V21H205Q299 21 360 93Z" />
<glyph unicode="&#xd1;" glyph-name="Ntilde" horiz-adv-x="544" d="M444 0H415L119 655Q122 553 122 477V0H100V681H129L425 26Q425 40 424 48Q422 128 422 205V681H444V0ZM310 804T298 810T270 828Q267 830 258 836T242 845T228 848Q214 848 204 840T180 813L166
821Q181 844 195 855T228 867Q240 867 250 862T277 845Q292 834 302 829T324 823Q338 823 349 832T373 864L387 857Q373 829 358 817T324 804Q310 804 298 810Z" />
<glyph unicode="&#xd2;" glyph-name="Ograve" horiz-adv-x="565" d="M386 691T444 603T503 340Q503 168 446 79T283 -10Q181 -10 122 79T63 339Q63 511 122 601T283 691Q386 691 444 603ZM192 670T139 587T86 339Q86 176 139 94T283 12Q378 12 428 93T479 340Q479
507 428 588T283 670Q192 670 139 587ZM218 857L361 777L353 763L206 836L218 857Z" />
<glyph unicode="&#xd3;" glyph-name="Oacute" horiz-adv-x="565" d="M386 691T444 603T503 340Q503 168 446 79T283 -10Q181 -10 122 79T63 339Q63 511 122 601T283 691Q386 691 444 603ZM192 670T139 587T86 339Q86 176 139 94T283 12Q378 12 428 93T479 340Q479
507 428 588T283 670Q192 670 139 587ZM349 858L360 836L212 764L205 778L349 858Z" />
<glyph unicode="&#xd4;" glyph-name="Ocircumflex" horiz-adv-x="565" d="M386 691T444 603T503 340Q503 168 446 79T283 -10Q181 -10 122 79T63 339Q63 511 122 601T283 691Q386 691 444 603ZM192 670T139 587T86 339Q86 176 139 94T283 12Q378 12 428 93T479
340Q479 507 428 588T283 670Q192 670 139 587ZM188 767L177 778L276 869H288L388 778L376 767L282 846L188 767Z" />
<glyph unicode="&#xd5;" glyph-name="Otilde" horiz-adv-x="565" d="M386 691T444 603T503 340Q503 168 446 79T283 -10Q181 -10 122 79T63 339Q63 511 122 601T283 691Q386 691 444 603ZM192 670T139 587T86 339Q86 176 139 94T283 12Q378 12 428 93T479 340Q479
507 428 588T283 670Q192 670 139 587ZM316 804T304 810T276 828Q273 830 264 836T248 845T234 848Q220 848 210 840T186 813L172 821Q187 844 201 855T234 867Q246 867 256 862T283 845Q298 834 308 829T330 823Q344 823 355 832T379 864L393 857Q379 829 364
817T330 804Q316 804 304 810Z" />
<glyph unicode="&#xd6;" glyph-name="Odieresis" horiz-adv-x="565" d="M386 691T444 603T503 340Q503 168 446 79T283 -10Q181 -10 122 79T63 339Q63 511 122 601T283 691Q386 691 444 603ZM192 670T139 587T86 339Q86 176 139 94T283 12Q378 12 428 93T479 340Q479
507 428 588T283 670Q192 670 139 587ZM228 838T233 833T238 818Q238 810 233 805T219 799Q211 799 206 804T200 818Q200 826 205 832T219 838Q228 838 233 833ZM366 838T371 832T377 818Q377 810 372 805T358 799Q349 799 344 804T338 818Q338 826 343 832T358
838Q366 838 371 832Z" />
<glyph unicode="&#xd7;" glyph-name="multiply" horiz-adv-x="398" d="M305 455L321 442L214 307L321 173L304 160L199 294L94 160L77 173L184 307L77 442L94 455L199 320L305 455Z" />
<glyph unicode="&#xd8;" glyph-name="Oslash" horiz-adv-x="565" d="M434 638T468 555T503 340Q503 169 445 80T283 -10Q242 -10 210 4L183 -111L161 -104L192 12Q130 46 97 128T63 339Q63 453 90 532T167 651T283 691Q322 691 354 678L383 798L405 792L372 670Q434
638 468 555ZM86 217T116 141T200 33L350 658Q319 670 283 670Q192 670 139 587T86 339Q86 217 116 141ZM378 12T428 93T479 340Q479 586 366 650L217 25Q246 12 283 12Q378 12 428 93Z" />
<glyph unicode="&#xd9;" glyph-name="Ugrave" horiz-adv-x="523" d="M433 172Q433 92 390 41T262 -10Q175 -10 133 41T90 172V681H112V174Q112 101 149 57T262 12Q338 12 374 57T411 174V681H433V172ZM197 857L340 777L332 763L185 836L197 857Z" />
<glyph unicode="&#xda;" glyph-name="Uacute" horiz-adv-x="523" d="M433 172Q433 92 390 41T262 -10Q175 -10 133 41T90 172V681H112V174Q112 101 149 57T262 12Q338 12 374 57T411 174V681H433V172ZM328 858L339 836L191 764L184 778L328 858Z" />
<glyph unicode="&#xdb;" glyph-name="Ucircumflex" horiz-adv-x="523" d="M433 172Q433 92 390 41T262 -10Q175 -10 133 41T90 172V681H112V174Q112 101 149 57T262 12Q338 12 374 57T411 174V681H433V172ZM167 767L156 778L255 869H267L367 778L355 767L261 846L167
767Z" />
<glyph unicode="&#xdc;" glyph-name="Udieresis" horiz-adv-x="523" d="M433 172Q433 92 390 41T262 -10Q175 -10 133 41T90 172V681H112V174Q112 101 149 57T262 12Q338 12 374 57T411 174V681H433V172ZM207 838T212 833T217 818Q217 810 212 805T198 799Q190
799 185 804T179 818Q179 826 184 832T198 838Q207 838 212 833ZM345 838T350 832T356 818Q356 810 351 805T337 799Q328 799 323 804T317 818Q317 826 322 832T337 838Q345 838 350 832Z" />
<glyph unicode="&#xdd;" glyph-name="Yacute" horiz-adv-x="408" d="M391 681L217 270V0H194V270L16 681H41L206 292L368 681H391ZM270 858L281 836L133 764L126 778L270 858Z" />
<glyph unicode="&#xde;" glyph-name="Thorn" horiz-adv-x="454" d="M304 554T358 506T413 355Q413 246 356 197T185 147H122V0H100V681H122V554H188Q304 554 358 506ZM289 168T339 210T390 355Q390 450 343 491T188 533H122V168H185Q289 168 339 210Z" />
<glyph unicode="&#xdf;" glyph-name="germandbls" horiz-adv-x="471" d="M295 737T329 703T363 611Q363 572 349 547T306 493Q285 472 275 457T264 420Q264 395 278 378T323 335Q354 310 374 288T409 232T424 148Q424 77 392 34T303 -10Q279 -10 262 -5T227 11L235
28Q249 20 264 16T302 11Q348 11 374 47T401 148Q401 193 388 225T355 277T306 322Q273 349 258 369T242 420Q242 444 253 461T286 500Q313 528 326 551T340 611Q340 661 313 688T239 716Q185 716 152 677T118 568V0H96V571Q96 647 136 692T239 737Q295 737 329
703Z" />
<glyph unicode="&#xe0;" glyph-name="agrave" horiz-adv-x="434" d="M339 55T347 35T377 6L372 -10Q345 0 333 22T319 86Q295 38 263 14T184 -10Q123 -10 88 32T53 144Q53 223 100 265T231 308H317V377Q317 442 293 475T213 509Q157 509 92 478L84 495Q150 529
214 529Q339 529 339 379V96Q339 55 347 35ZM274 11T317 120V288H233Q156 288 117 252T77 144Q77 81 105 46T184 11Q274 11 317 120ZM150 759L294 668L284 654L137 738L150 759Z" />
<glyph unicode="&#xe1;" glyph-name="aacute" horiz-adv-x="434" d="M339 55T347 35T377 6L372 -10Q345 0 333 22T319 86Q295 38 263 14T184 -10Q123 -10 88 32T53 144Q53 223 100 265T231 308H317V377Q317 442 293 475T213 509Q157 509 92 478L84 495Q150 529
214 529Q339 529 339 379V96Q339 55 347 35ZM274 11T317 120V288H233Q156 288 117 252T77 144Q77 81 105 46T184 11Q274 11 317 120ZM272 759L285 738L137 654L128 668L272 759Z" />
<glyph unicode="&#xe2;" glyph-name="acircumflex" horiz-adv-x="434" d="M339 55T347 35T377 6L372 -10Q345 0 333 22T319 86Q295 38 263 14T184 -10Q123 -10 88 32T53 144Q53 223 100 265T231 308H317V377Q317 442 293 475T213 509Q157 509 92 478L84 495Q150
529 214 529Q339 529 339 379V96Q339 55 347 35ZM274 11T317 120V288H233Q156 288 117 252T77 144Q77 81 105 46T184 11Q274 11 317 120ZM118 655L107 665L206 762H219L317 665L306 655L212 739L118 655Z" />
<glyph unicode="&#xe3;" glyph-name="atilde" horiz-adv-x="434" d="M339 55T347 35T377 6L372 -10Q345 0 333 22T319 86Q295 38 263 14T184 -10Q123 -10 88 32T53 144Q53 223 100 265T231 308H317V377Q317 442 293 475T213 509Q157 509 92 478L84 495Q150 529
214 529Q339 529 339 379V96Q339 55 347 35ZM274 11T317 120V288H233Q156 288 117 252T77 144Q77 81 105 46T184 11Q274 11 317 120ZM247 678T235 684T207 702Q204 704 195 710T179 719T165 722Q151 722 141 714T117 687L103 695Q118 718 132 729T165 741Q177 741
187 736T214 719Q229 708 239 703T261 697Q275 697 286 706T310 738L324 731Q310 703 295 691T261 678Q247 678 235 684Z" />
<glyph unicode="&#xe4;" glyph-name="adieresis" horiz-adv-x="434" d="M339 55T347 35T377 6L372 -10Q345 0 333 22T319 86Q295 38 263 14T184 -10Q123 -10 88 32T53 144Q53 223 100 265T231 308H317V377Q317 442 293 475T213 509Q157 509 92 478L84 495Q150
529 214 529Q339 529 339 379V96Q339 55 347 35ZM274 11T317 120V288H233Q156 288 117 252T77 144Q77 81 105 46T184 11Q274 11 317 120ZM152 712T157 707T162 692Q162 684 157 679T143 673Q135 673 130 678T124 692Q124 700 129 706T143 712Q152 712 157 707ZM290
712T295 706T301 692Q301 684 296 679T282 673Q273 673 268 678T262 692Q262 700 267 706T282 712Q290 712 295 706Z" />
<glyph unicode="&#xe5;" glyph-name="aring" horiz-adv-x="434" d="M339 55T347 35T377 6L372 -10Q345 0 333 22T319 86Q295 38 263 14T184 -10Q123 -10 88 32T53 144Q53 223 100 265T231 308H317V377Q317 442 293 475T213 509Q157 509 92 478L84 495Q150 529
214 529Q339 529 339 379V96Q339 55 347 35ZM274 11T317 120V288H233Q156 288 117 252T77 144Q77 81 105 46T184 11Q274 11 317 120ZM244 801T262 781T280 723Q280 685 262 665T213 644Q182 644 164 664T146 722Q146 760 164 780T213 801Q244 801 262 781ZM166
784T166 722Q166 661 213 661Q260 661 260 723Q260 784 213 784Q166 784 166 722Z" />
<glyph unicode="&#xe6;" glyph-name="ae" horiz-adv-x="692" d="M638 268T636 246H340Q342 129 382 70T489 11Q525 11 552 24T607 66L620 51Q589 20 559 5T488 -10Q436 -10 398 20T339 108Q304 45 267 18T182 -10Q122 -10 88 32T53 144Q53 223 99 265T229 308H317V370Q317
440 292 474T209 509Q159 509 92 477L86 495Q154 529 210 529Q273 529 303 494T337 390Q356 458 393 493T484 529Q561 529 599 466T638 284Q638 268 636 246ZM616 292Q616 396 583 452T484 509Q421 509 381 447T340 265H616V292ZM229 11T263 39T332 132Q317 185
317 255V288H228Q156 288 116 251T76 144Q76 82 105 47T184 11Q229 11 263 39Z" />
<glyph unicode="&#xe7;" glyph-name="ccedilla" horiz-adv-x="375" d="M299 -9T237 -10L235 -74Q310 -82 310 -141Q310 -175 290 -193T239 -212Q207 -212 182 -194L192 -178Q213 -193 239 -193Q261 -193 275 -180T289 -141Q289 -115 272 -103T215 -90L219 -9Q144
-4 102 63T59 257Q59 391 105 460T233 529Q267 529 293 517T344 479L331 465Q289 509 233 509Q163 509 123 447T82 257Q82 132 122 72T232 11Q290 11 336 57L348 44Q299 -9 237 -10Z" />
<glyph unicode="&#xe8;" glyph-name="egrave" horiz-adv-x="433" d="M380 268T378 246H81Q84 127 124 69T230 11Q266 11 293 24T348 65L362 51Q332 21 301 6T231 -10Q151 -10 105 58T59 255Q59 388 103 458T225 529Q302 529 341 465T380 284Q380 268 378 246ZM358
273T358 292Q358 395 325 452T225 509Q161 509 122 449T81 265H357Q358 273 358 292ZM162 759L306 668L296 654L149 738L162 759Z" />
<glyph unicode="&#xe9;" glyph-name="eacute" horiz-adv-x="433" d="M380 268T378 246H81Q84 127 124 69T230 11Q266 11 293 24T348 65L362 51Q332 21 301 6T231 -10Q151 -10 105 58T59 255Q59 388 103 458T225 529Q302 529 341 465T380 284Q380 268 378 246ZM358
273T358 292Q358 395 325 452T225 509Q161 509 122 449T81 265H357Q358 273 358 292ZM284 759L297 738L149 654L140 668L284 759Z" />
<glyph unicode="&#xea;" glyph-name="ecircumflex" horiz-adv-x="433" d="M380 268T378 246H81Q84 127 124 69T230 11Q266 11 293 24T348 65L362 51Q332 21 301 6T231 -10Q151 -10 105 58T59 255Q59 388 103 458T225 529Q302 529 341 465T380 284Q380 268 378
246ZM358 273T358 292Q358 395 325 452T225 509Q161 509 122 449T81 265H357Q358 273 358 292ZM130 655L119 665L218 762H231L329 665L318 655L224 739L130 655Z" />
<glyph unicode="&#xeb;" glyph-name="edieresis" horiz-adv-x="433" d="M380 268T378 246H81Q84 127 124 69T230 11Q266 11 293 24T348 65L362 51Q332 21 301 6T231 -10Q151 -10 105 58T59 255Q59 388 103 458T225 529Q302 529 341 465T380 284Q380 268 378 246ZM358
273T358 292Q358 395 325 452T225 509Q161 509 122 449T81 265H357Q358 273 358 292ZM164 712T169 707T174 692Q174 684 169 679T155 673Q147 673 142 678T136 692Q136 700 141 706T155 712Q164 712 169 707ZM302 712T307 706T313 692Q313 684 308 679T294 673Q285
673 280 678T274 692Q274 700 279 706T294 712Q302 712 307 706Z" />
<glyph unicode="&#xec;" glyph-name="igrave" horiz-adv-x="213" d="M118 519V0H96V519H118ZM44 759L188 668L178 654L31 738L44 759Z" />
<glyph unicode="&#xed;" glyph-name="iacute" horiz-adv-x="213" d="M118 519V0H96V519H118ZM166 759L179 738L31 654L22 668L166 759Z" />
<glyph unicode="&#xee;" glyph-name="icircumflex" horiz-adv-x="213" d="M118 519V0H96V519H118ZM12 655L1 665L100 762H113L211 665L200 655L106 739L12 655Z" />
<glyph unicode="&#xef;" glyph-name="idieresis" horiz-adv-x="213" d="M118 519V0H96V519H118ZM46 712T51 707T56 692Q56 684 51 679T37 673Q29 673 24 678T18 692Q18 700 23 706T37 712Q46 712 51 707ZM184 712T189 706T195 692Q195 684 190 679T176 673Q167
673 162 678T156 692Q156 700 161 706T176 712Q184 712 189 706Z" />
<glyph unicode="&#xf0;" glyph-name="eth" horiz-adv-x="447" d="M318 606T351 520T384 301Q384 144 341 67T220 -10Q144 -10 102 54T59 230Q59 328 100 394T214 461Q258 461 293 437T359 365Q353 459 325 527T239 651L171 566L154 573L225 662Q202 681 173 696T116
718L121 738Q185 720 238 676L293 746L308 735L252 664Q318 606 351 520ZM288 11T324 83T361 303Q361 327 360 335Q296 441 215 441Q152 441 117 382T82 229Q82 126 118 69T220 11Q288 11 324 83Z" />
<glyph unicode="&#xf1;" glyph-name="ntilde" horiz-adv-x="477" d="M328 529T357 490T386 379V0H364V377Q364 441 341 475T270 509Q182 509 118 381V0H96V519H115L117 414Q147 470 184 499T272 529Q328 529 357 490ZM277 678T265 684T237 702Q234 704 225 710T209
719T195 722Q181 722 171 714T147 687L133 695Q148 718 162 729T195 741Q207 741 217 736T244 719Q259 708 269 703T291 697Q305 697 316 706T340 738L354 731Q340 703 325 691T291 678Q277 678 265 684Z" />
<glyph unicode="&#xf2;" glyph-name="ograve" horiz-adv-x="460" d="M312 529T356 463T401 262Q401 127 356 59T229 -10Q148 -10 104 58T59 259Q59 393 105 461T231 529Q312 529 356 463ZM161 509T121 447T81 259Q81 135 119 73T229 11Q301 11 340 73T379 262Q379
387 341 448T231 509Q161 509 121 447ZM167 759L311 668L301 654L154 738L167 759Z" />
<glyph unicode="&#xf3;" glyph-name="oacute" horiz-adv-x="460" d="M312 529T356 463T401 262Q401 127 356 59T229 -10Q148 -10 104 58T59 259Q59 393 105 461T231 529Q312 529 356 463ZM161 509T121 447T81 259Q81 135 119 73T229 11Q301 11 340 73T379 262Q379
387 341 448T231 509Q161 509 121 447ZM289 759L302 738L154 654L145 668L289 759Z" />
<glyph unicode="&#xf4;" glyph-name="ocircumflex" horiz-adv-x="460" d="M312 529T356 463T401 262Q401 127 356 59T229 -10Q148 -10 104 58T59 259Q59 393 105 461T231 529Q312 529 356 463ZM161 509T121 447T81 259Q81 135 119 73T229 11Q301 11 340 73T379
262Q379 387 341 448T231 509Q161 509 121 447ZM135 655L124 665L223 762H236L334 665L323 655L229 739L135 655Z" />
<glyph unicode="&#xf5;" glyph-name="otilde" horiz-adv-x="460" d="M312 529T356 463T401 262Q401 127 356 59T229 -10Q148 -10 104 58T59 259Q59 393 105 461T231 529Q312 529 356 463ZM161 509T121 447T81 259Q81 135 119 73T229 11Q301 11 340 73T379 262Q379
387 341 448T231 509Q161 509 121 447ZM264 678T252 684T224 702Q221 704 212 710T196 719T182 722Q168 722 158 714T134 687L120 695Q135 718 149 729T182 741Q194 741 204 736T231 719Q246 708 256 703T278 697Q292 697 303 706T327 738L341 731Q327 703 312
691T278 678Q264 678 252 684Z" />
<glyph unicode="&#xf6;" glyph-name="odieresis" horiz-adv-x="460" d="M312 529T356 463T401 262Q401 127 356 59T229 -10Q148 -10 104 58T59 259Q59 393 105 461T231 529Q312 529 356 463ZM161 509T121 447T81 259Q81 135 119 73T229 11Q301 11 340 73T379 262Q379
387 341 448T231 509Q161 509 121 447ZM169 712T174 707T179 692Q179 684 174 679T160 673Q152 673 147 678T141 692Q141 700 146 706T160 712Q169 712 174 707ZM307 712T312 706T318 692Q318 684 313 679T299 673Q290 673 285 678T279 692Q279 700 284 706T299
712Q307 712 312 706Z" />
<glyph unicode="&#xf7;" glyph-name="divide" horiz-adv-x="398" d="M209 146T215 139T221 123Q221 114 215 108T199 101Q189 101 183 107T176 123Q176 132 182 139T199 146Q209 146 215 139ZM209 560T215 553T221 537Q221 528 215 522T199 515Q189 515 183 521T176
537Q176 546 182 553T199 560Q209 560 215 553ZM63 321V341H335V321H63Z" />
<glyph unicode="&#xf8;" glyph-name="oslash" horiz-adv-x="460" d="M353 483T377 421T401 262Q401 127 356 59T229 -10Q198 -10 170 1L136 -118L116 -113L153 10Q107 37 83 99T59 259Q59 393 105 461T231 529Q263 529 291 518L324 639L343 634L308 509Q353 483
377 421ZM81 79T160 30L285 499Q262 509 231 509Q161 509 121 447T81 259Q81 79 160 30ZM301 11T340 73T379 262Q379 440 301 490L177 21Q198 11 229 11Q301 11 340 73Z" />
<glyph unicode="&#xf9;" glyph-name="ugrave" horiz-adv-x="473" d="M378 0H358L357 102Q333 52 297 21T213 -10Q156 -10 124 28T91 135V519H113V136Q113 75 139 43T213 11Q260 11 294 42T356 133V519H378V0ZM172 759L316 668L306 654L159 738L172 759Z" />
<glyph unicode="&#xfa;" glyph-name="uacute" horiz-adv-x="473" d="M378 0H358L357 102Q333 52 297 21T213 -10Q156 -10 124 28T91 135V519H113V136Q113 75 139 43T213 11Q260 11 294 42T356 133V519H378V0ZM294 759L307 738L159 654L150 668L294 759Z" />
<glyph unicode="&#xfb;" glyph-name="ucircumflex" horiz-adv-x="473" d="M378 0H358L357 102Q333 52 297 21T213 -10Q156 -10 124 28T91 135V519H113V136Q113 75 139 43T213 11Q260 11 294 42T356 133V519H378V0ZM140 655L129 665L228 762H241L339 665L328 655L234
739L140 655Z" />
<glyph unicode="&#xfc;" glyph-name="udieresis" horiz-adv-x="473" d="M378 0H358L357 102Q333 52 297 21T213 -10Q156 -10 124 28T91 135V519H113V136Q113 75 139 43T213 11Q260 11 294 42T356 133V519H378V0ZM174 712T179 707T184 692Q184 684 179 679T165
673Q157 673 152 678T146 692Q146 700 151 706T165 712Q174 712 179 707ZM312 712T317 706T323 692Q323 684 318 679T304 673Q295 673 290 678T284 692Q284 700 289 706T304 712Q312 712 317 706Z" />
<glyph unicode="&#xfd;" glyph-name="yacute" horiz-adv-x="374" d="M204 -1Q187 -63 170 -98T126 -156T53 -195L49 -177Q91 -162 115 -141T153 -89T184 0H176L22 519H45L191 18L329 519H352L204 -1ZM248 759L261 738L113 654L104 668L248 759Z" />
<glyph unicode="&#xfe;" glyph-name="thorn" horiz-adv-x="464" d="M328 529T367 464T406 264Q406 130 365 60T249 -10Q207 -10 174 13T118 76V-192L96 -196V733L118 736V439Q172 529 254 529Q328 529 367 464ZM313 11T347 74T382 264Q382 509 254 509Q211 509
179 484T118 410V106Q173 11 248 11Q313 11 347 74Z" />
<glyph unicode="&#xff;" glyph-name="ydieresis" horiz-adv-x="374" d="M204 -1Q187 -63 170 -98T126 -156T53 -195L49 -177Q91 -162 115 -141T153 -89T184 0H176L22 519H45L191 18L329 519H352L204 -1ZM128 712T133 707T138 692Q138 684 133 679T119 673Q111
673 106 678T100 692Q100 700 105 706T119 712Q128 712 133 707ZM266 712T271 706T277 692Q277 684 272 679T258 673Q249 673 244 678T238 692Q238 700 243 706T258 712Q266 712 271 706Z" />
<glyph unicode="&#x2013;" glyph-name="endash" horiz-adv-x="427" d="M40 302V323H387V302H40Z" />
<glyph unicode="&#x2014;" glyph-name="emdash" horiz-adv-x="637" d="M40 303V323H598V303H40Z" />
<glyph unicode="&#x2018;" glyph-name="quoteleft" horiz-adv-x="187" d="M82 562T77 568T71 584Q71 592 79 612L118 724H134L100 604Q113 598 113 584Q113 575 107 569T92 562Q82 562 77 568Z" />
<glyph unicode="&#x2019;" glyph-name="quoteright" horiz-adv-x="187" d="M105 725T110 719T116 703Q116 695 108 675L69 563H53L87 683Q74 689 74 703Q74 712 80 718T95 725Q105 725 110 719Z" />
<glyph unicode="&#x201a;" glyph-name="quotesinglbase" horiz-adv-x="187" d="M105 38T110 32T116 16Q116 8 108 -12L69 -124H53L87 -4Q74 2 74 16Q74 25 80 31T95 38Q105 38 110 32Z" />
<glyph unicode="&#x201c;" glyph-name="quotedblleft" horiz-adv-x="299" d="M82 583T77 589T71 605Q71 613 79 633L118 745H134L100 625Q113 619 113 605Q113 596 107 590T92 583Q82 583 77 589ZM194 583T189 589T183 605Q183 613 191 633L230 745H246L212 625Q225
619 225 605Q225 596 219 590T204 583Q194 583 189 589Z" />
<glyph unicode="&#x201d;" glyph-name="quotedblright" horiz-adv-x="299" d="M105 725T110 719T116 703Q116 695 108 675L69 563H53L87 683Q74 689 74 703Q74 712 80 718T95 725Q105 725 110 719ZM217 725T222 719T228 703Q228 695 220 675L181 563H165L199 683Q186
689 186 703Q186 712 192 718T207 725Q217 725 222 719Z" />
<glyph unicode="&#x201e;" glyph-name="quotedblbase" horiz-adv-x="299" d="M105 38T110 32T116 16Q116 8 108 -12L69 -124H53L87 -4Q74 2 74 16Q74 25 80 31T95 38Q105 38 110 32ZM217 38T222 32T228 16Q228 8 220 -12L181 -124H165L199 -4Q186 2 186 16Q186
25 192 31T207 38Q217 38 222 32Z" />
<glyph unicode="&#x2022;" glyph-name="bullet" horiz-adv-x="213" d="M121 383T129 374T138 350Q138 337 130 328T106 318Q92 318 83 327T74 350Q74 364 83 373T106 383Q121 383 129 374Z" />
<glyph unicode="&#x2039;" glyph-name="guilsinglleft" horiz-adv-x="296" d="M203 503L218 494L101 288L218 83L203 74L78 281V295L203 503Z" />
<glyph unicode="&#x203a;" glyph-name="guilsinglright" horiz-adv-x="296" d="M92 503L218 295V281L92 74L78 83L194 288L78 494L92 503Z" />
</font>
</defs>
</svg>
