<?xml version="1.0" standalone="no"?>
<!DOCTYPE svg PUBLIC "-//W3C//DTD SVG 1.1//EN" "http://www.w3.org/Graphics/SVG/1.1/DTD/svg11.dtd">
<svg xmlns="http://www.w3.org/2000/svg">
<defs >
<font id="Khula" horiz-adv-x="1247" ><font-face
    font-family="Khula ExtraBold"
    units-per-em="1978"
    panose-1="2 0 0 0 0 0 0 0 0 0"
    ascent="1978"
    descent="-1198"
    alphabetic="0" />
<glyph unicode=" " glyph-name="space" horiz-adv-x="532" />
<glyph unicode="!" glyph-name="exclam" horiz-adv-x="713" d="M542 68T493 23T355 -23T216 22T165 149T214 276T354 322T494 277T542 150ZM551 1316L505 464H208L162 1316H551Z" />
<glyph unicode="&quot;" glyph-name="quotedbl" horiz-adv-x="1068" d="M160 1316H480L443 841H197L160 1316ZM587 1316H908L871 841H624L587 1316Z" />
<glyph unicode="#" glyph-name="numbersign" horiz-adv-x="1220" d="M1187 732H938L911 580H1129V352H868L802 0H561L626 352H475L411 0H171L236 352H33V580H280L308 732H94V966H352L417 1316H658L591 966H741L805 1316H1047L981 966H1187V732ZM547 732L520 580H669L697
732H547Z" />
<glyph unicode="$" glyph-name="dollar" horiz-adv-x="1080" d="M454 -107V61Q254 70 74 149V448Q178 395 301 360T508 324T627 343T663 403T614 471T420 553T205 660T104 778T72 940Q72 1235 454 1275V1399H640V1277Q821 1266 1001 1189L894 932Q708 1017 554
1017Q484 1017 454 1000T424 945T469 881T663 800Q852 732 933 648T1015 420T919 183T640 67V-107H454Z" />
<glyph unicode="%" glyph-name="percent" horiz-adv-x="1748" d="M1373 591Q1338 591 1322 545T1305 396Q1305 201 1373 201T1442 396T1373 591ZM1527 811T1620 700T1713 396T1624 94T1375 -14T1124 98Q1034 211 1034 404T1122 704T1368 811ZM373 1115Q337 1115
321 1068T304 919T320 771T372 724T423 770T440 920Q440 1115 373 1115ZM1101 1316H1368L638 0H371L1101 1316ZM526 1335T619 1224T712 919T623 617T374 508T123 620Q33 732 33 926T121 1227T367 1335Z" />
<glyph unicode="&amp;" glyph-name="ampersand" horiz-adv-x="1472" d="M192 1020Q192 1164 302 1248T605 1333T904 1249T1010 1020Q1010 820 772 675L951 505Q1020 611 1045 739H1410Q1383 613 1324 487T1194 276L1482 0H1027L938 92Q860 41 805 21Q697 -18 542
-18Q330 -21 196 88T65 365Q65 601 310 726Q192 858 192 1020ZM427 391Q427 334 468 298T575 262Q672 262 724 306L501 533Q427 477 427 391ZM693 1020Q693 1102 603 1102Q562 1102 535 1078T508 1008Q508 940 588 868Q638 897 665 937T693 1020Z" />
<glyph unicode="&apos;" glyph-name="quotesingle" horiz-adv-x="640" d="M160 1316H480L443 841H197L160 1316Z" />
<glyph unicode="(" glyph-name="parenleft" horiz-adv-x="725" d="M352 -212Q100 80 100 606T352 1433H645Q531 1273 470 1062T409 612T468 160T643 -212H352Z" />
<glyph unicode=")" glyph-name="parenright" horiz-adv-x="727" d="M499 1284T563 1072T627 605T563 141T374 -212H82Q196 -58 256 155T316 607T256 1059T80 1433H374Q499 1284 563 1072Z" />
<glyph unicode="*" glyph-name="asterisk" horiz-adv-x="990" d="M359 1400H632L598 1084L918 1174L951 909L669 890L855 640L621 516L492 770L382 517L137 640L322 890L40 913L81 1174L394 1084L359 1400Z" />
<glyph unicode="+" glyph-name="plus" horiz-adv-x="1043" d="M400 204V529H65V770H400V1101H642V770H976V529H642V204H400Z" />
<glyph unicode="," glyph-name="comma" horiz-adv-x="570" d="M140 269H448L461 248Q373 -94 302 -257H51Q118 65 140 269Z" />
<glyph unicode="-" glyph-name="hyphen" horiz-adv-x="708" d="M608 434H100V714H608V434Z" />
<glyph unicode="." glyph-name="period" horiz-adv-x="533" d="M454 68T405 23T267 -23T128 22T77 150T126 277T267 322T406 277T454 150Z" />
<glyph unicode="/" glyph-name="slash" horiz-adv-x="814" d="M499 1335H811L320 -18H9L499 1335Z" />
<glyph unicode="0" glyph-name="zero" horiz-adv-x="1080" d="M606 1050T540 1050T446 966T418 657T446 349T540 265T634 351T661 657T633 962Q606 1050 540 1050ZM65 1005T181 1170T536 1335Q1015 1335 1015 656Q1015 309 899 146T540 -18Q65 -18 65 656Q65 1005
181 1170Z" />
<glyph unicode="1" glyph-name="one" horiz-adv-x="1080" d="M848 1316V0H487V697Q487 811 492 929Q457 887 409 844L260 721L76 948L527 1316H848Z" />
<glyph unicode="2" glyph-name="two" horiz-adv-x="1080" d="M1010 293V0H55V234L376 559Q516 706 557 757T615 846T632 930T599 1006T505 1036T383 1002T236 895L40 1124Q140 1214 211 1254Q356 1335 545 1335Q736 1339 862 1235T985 975Q985 826 905 702Q863
637 795 566T512 302V293H1010Z" />
<glyph unicode="3" glyph-name="three" horiz-adv-x="1080" d="M455 -18Q246 -18 63 53V348Q231 262 404 262Q520 262 574 295T628 402T565 506T348 540H267V807H350Q621 807 621 946Q621 997 582 1022T473 1048Q347 1048 212 964L65 1201Q167 1272 276 1303T529
1335Q734 1335 850 1254T966 1030Q966 907 891 820T675 693V688Q1004 646 1004 376Q1004 193 859 88T455 -18Z" />
<glyph unicode="4" glyph-name="four" horiz-adv-x="1080" d="M556 520V673Q556 716 559 788T564 867H554Q525 798 485 737L339 520H556ZM1052 520V255H907V0H556V255H31V516L579 1316H907V520H1052Z" />
<glyph unicode="5" glyph-name="five" horiz-adv-x="1080" d="M443 846Q527 862 598 862Q710 863 801 811T945 660T995 438Q995 216 861 99T461 -18Q232 -18 85 53V345Q162 309 262 286T431 262Q530 262 583 304T636 425T581 546T432 588T238 556L107 621L157
1316H907V1020H459L443 846Z" />
<glyph unicode="6" glyph-name="six" horiz-adv-x="1080" d="M417 461Q417 373 454 319T550 264T644 308T679 443Q679 603 554 603Q492 603 455 562T417 461ZM744 1058Q565 1058 478 979T383 724H394Q475 877 652 877T926 765T1023 443T901 108T552 -18T194 133Q63
285 63 556Q62 961 234 1146T752 1335Q835 1335 940 1319V1041Q847 1058 744 1058Z" />
<glyph unicode="7" glyph-name="seven" horiz-adv-x="1080" d="M70 1020V1314H1020V1104L556 0H188L640 1020H70Z" />
<glyph unicode="8" glyph-name="eight" horiz-adv-x="1080" d="M387 361Q387 304 427 271T536 238Q695 238 695 354Q695 399 659 441T536 536Q387 458 387 361ZM601 882T625 912T649 984T618 1051T542 1078T465 1052T433 983Q433 904 538 846Q601 882 625 912ZM336
1335T544 1335T867 1251T983 1013Q983 804 756 693Q902 610 961 527T1021 350Q1021 175 895 79T538 -18T185 76T61 346Q61 462 116 542T301 688Q100 822 100 1015Q100 1166 218 1250Z" />
<glyph unicode="9" glyph-name="nine" horiz-adv-x="1080" d="M1020 714Q1020 328 853 155T320 -18Q200 -18 137 -9V273Q214 258 292 258Q681 258 698 586H688Q651 519 618 492Q550 433 411 433Q240 433 144 547T48 871T172 1205T514 1329Q755 1329 887 1169T1020
714ZM665 850Q665 931 625 988T524 1045T427 1001T392 874Q392 706 520 706Q578 706 622 748Q665 790 665 850Z" />
<glyph unicode=":" glyph-name="colon" horiz-adv-x="573" d="M494 68T445 23T307 -23T168 22T117 150T166 277T307 322T446 277T494 150ZM494 779T445 734T307 688T167 733T117 860T166 987T307 1032T446 987T494 861Z" />
<glyph unicode=";" glyph-name="semicolon" horiz-adv-x="587" d="M180 269H488L501 248Q413 -94 342 -257H91Q158 65 180 269ZM499 779T451 734T312 688T172 733T123 860T171 987T311 1032T450 987T499 861Z" />
<glyph unicode="&lt;" glyph-name="less" horiz-adv-x="1043" d="M975 426V160L65 564V719L975 1174V907L417 652L975 426Z" />
<glyph unicode="=" glyph-name="equal" horiz-adv-x="1043" d="M978 322H65V566H978V322ZM978 733H65V975H978V733Z" />
<glyph unicode="&gt;" glyph-name="greater" horiz-adv-x="1043" d="M65 160V426L623 652L65 907V1174L975 719V564L65 160Z" />
<glyph unicode="?" glyph-name="question" horiz-adv-x="1097" d="M713 68T664 23T526 -23T387 22T337 150T385 277T525 322T664 277T713 150ZM652 464H375V542Q375 630 410 689T530 802T645 893T676 972T642 1036T553 1058Q416 1058 235 962L110 1207Q334 1335
578 1335Q778 1335 892 1247T1007 1006Q1007 898 957 819T802 672T675 577T652 510V464Z" />
<glyph unicode="@" glyph-name="at" horiz-adv-x="1653" d="M895 805Q797 805 741 745T684 587Q684 406 804 406Q874 406 905 460T948 660L957 800Q917 805 895 805ZM1579 680Q1579 554 1536 444T1414 272T1238 210Q1167 210 1110 238T1020 317H1006Q910 210 772
210Q608 210 520 305T431 575Q428 766 556 886T892 1003Q965 1003 1053 988T1213 948L1194 568L1192 483Q1192 406 1238 406T1312 484Q1342 562 1342 682Q1342 897 1220 1014T876 1131Q620 1133 468 973T319 545Q319 316 446 192T802 67T1272 153V-53Q1068 -139
822 -139Q473 -139 273 43Q74 226 74 549Q74 778 177 958T461 1235T862 1333T1244 1253T1492 1025T1579 680Z" />
<glyph unicode="A" glyph-name="A" horiz-adv-x="1338" d="M1338 0H949L885 247H457L391 0H0L429 1321H904L1338 0ZM531 538H811Q687 1006 669 1104Q649 980 531 538Z" />
<glyph unicode="B" glyph-name="B" horiz-adv-x="1242" d="M616 551H498V274H623Q789 274 789 415Q789 481 745 516T616 551ZM498 1047V811H605Q682 811 723 842T765 936Q765 1047 598 1047H498ZM142 0V1316H601Q869 1316 999 1236T1129 988Q1129 877 1073 799T923
698V689Q1044 657 1100 583T1156 385Q1156 206 1022 103T654 0H142Z" />
<glyph unicode="C" glyph-name="C" horiz-adv-x="1196" d="M1030 962Q857 1043 729 1043T530 939T459 652Q459 273 748 273Q880 273 1082 355V55Q918 -18 709 -18Q411 -18 252 155Q94 328 94 654Q92 857 169 1012T393 1252T732 1335Q946 1335 1139 1242L1030 962Z" />
<glyph unicode="D" glyph-name="D" horiz-adv-x="1353" d="M577 292Q738 292 814 385T890 666T819 941T601 1029H498V292H577ZM1259 686Q1259 357 1078 179T568 0H142V1316H598Q914 1316 1086 1154T1259 686Z" />
<glyph unicode="E" glyph-name="E" horiz-adv-x="1012" d="M923 290V0H142V1316H923V1030H498V823H892V538H498V290H923Z" />
<glyph unicode="F" glyph-name="F" horiz-adv-x="994" d="M492 494V0H142V1316H920V1030H492V779H886V494H492Z" />
<glyph unicode="G" glyph-name="G" horiz-adv-x="1364" d="M670 496V770H1238V61Q1008 -18 730 -18Q427 -18 260 158Q94 334 94 657T275 1157T785 1335Q1023 1335 1211 1252L1099 973Q958 1043 795 1043T546 942T461 655T538 371T760 274Q841 274 905 290V496H670Z" />
<glyph unicode="H" glyph-name="H" horiz-adv-x="1412" d="M1270 1316V0H913V536H499V0H142V1316H499V828H913V1316H1270Z" />
<glyph unicode="I" glyph-name="I" horiz-adv-x="642" d="M499 0H142V1316H499V0Z" />
<glyph unicode="J" glyph-name="J" horiz-adv-x="649" d="M-146 -118Q-61 -137 -14 -137Q73 -137 111 -84T149 98V1316H507V129Q507 -140 390 -276T39 -413Q-61 -413 -146 -394V-118Z" />
<glyph unicode="K" glyph-name="K" horiz-adv-x="1266" d="M499 0H142V1316H499V744Q529 803 608 913L885 1316H1273L859 726L1266 0H865L605 503L499 440V0Z" />
<glyph unicode="L" glyph-name="L" horiz-adv-x="1073" d="M1004 0H142V1316H498V287H1004V0Z" />
<glyph unicode="M" glyph-name="M" horiz-adv-x="1782" d="M1314 577Q1314 691 1327 946H1319L1054 0H715L446 948H438Q457 713 457 571V0H142V1316H616L890 382H897L1166 1316H1641V0H1314V577Z" />
<glyph unicode="N" glyph-name="N" horiz-adv-x="1537" d="M1395 1316V0H929L448 927H440Q457 701 457 593V0H142V1316H607L1085 401H1091Q1078 593 1078 721V1316H1395Z" />
<glyph unicode="O" glyph-name="O" horiz-adv-x="1469" d="M735 1045Q468 1045 468 662T733 278Q869 278 934 371T999 660T934 950T735 1045ZM94 990T258 1163T735 1336T1211 1165T1373 660T1211 155T736 -18T259 156T94 660Z" />
<glyph unicode="P" glyph-name="P" horiz-adv-x="1165" d="M498 1029V726H562Q643 726 690 771T737 895Q737 1029 589 1029H498ZM598 1316Q845 1316 971 1208T1097 889T967 556Q836 436 598 436H498V0H142V1316H598Z" />
<glyph unicode="Q" glyph-name="Q" horiz-adv-x="1469" d="M735 1045Q468 1045 468 662T733 278Q869 278 934 371T999 660T934 950T735 1045ZM94 990T258 1163T735 1336T1211 1165T1373 660Q1373 212 1089 57L1410 -313H967L734 -20V-19L733 -18Q423 -18 259 156T94 660Z" />
<glyph unicode="R" glyph-name="R" d="M498 479V0H142V1316H573Q1110 1316 1110 927Q1110 698 886 573L1270 0H867L588 479H498ZM498 1047V746H564Q751 746 751 911Q751 1047 568 1047H498Z" />
<glyph unicode="S" glyph-name="S" horiz-adv-x="1064" d="M81 382Q187 327 295 299T486 271T608 297T647 369Q647 396 632 416Q616 436 587 455T417 539T216 655Q90 763 90 947T222 1233Q355 1335 586 1335Q789 1335 1003 1240L894 966Q710 1050 575 1050Q509
1050 476 1027T443 966T483 896T697 787T936 620Q1003 534 1003 400Q1005 214 863 97T487 -18Q354 -18 264 1T81 65V382Z" />
<glyph unicode="T" glyph-name="T" horiz-adv-x="1089" d="M723 1025V0H367V1025H46V1316H1043V1025H723Z" />
<glyph unicode="U" glyph-name="U" horiz-adv-x="1395" d="M905 1316H1261V524Q1261 265 1115 124T697 -18T279 119Q135 257 135 516V1316H492V544Q492 406 543 342T701 278T856 341T905 545V1316Z" />
<glyph unicode="V" glyph-name="V" horiz-adv-x="1279" d="M640 339Q650 454 698 645L881 1316H1279L848 0H429L0 1316H400L579 649Q634 430 640 339Z" />
<glyph unicode="W" glyph-name="W" horiz-adv-x="1915" d="M1887 1316L1563 0H1143L1017 573Q1006 615 988 714T960 895Q943 754 905 590L774 0H354L28 1316H371L514 656Q562 437 580 308Q592 400 622 557T679 818L795 1316H1124L1237 818Q1263 707 1293 551T1335
308Q1344 398 1399 654L1544 1316H1887Z" />
<glyph unicode="X" glyph-name="X" horiz-adv-x="1333" d="M879 645L1327 0H916L660 411L406 0H4L440 673L30 1316H424L661 909L890 1316H1296L879 645Z" />
<glyph unicode="Y" glyph-name="Y" horiz-adv-x="1224" d="M791 0H433V503L0 1316H387L612 828L839 1316H1224L791 514V0Z" />
<glyph unicode="Z" glyph-name="Z" horiz-adv-x="1126" d="M1080 287V0H55V220L625 1029H68V1316H1066V1097L496 287H1080Z" />
<glyph unicode="[" glyph-name="bracketleft" horiz-adv-x="598" d="M554 -1V-230H105V1433H554V1204H391V-1H554Z" />
<glyph unicode="\" glyph-name="backslash" horiz-adv-x="814" d="M5 1335H317L807 -18H496L5 1335Z" />
<glyph unicode="]" glyph-name="bracketright" horiz-adv-x="598" d="M42 -230V-1H206V1204H42V1433H492V-230H42Z" />
<glyph unicode="^" glyph-name="asciicircum" horiz-adv-x="967" d="M243 452H-14L382 1321H535L992 452H726L466 971L355 709L243 452Z" />
<glyph unicode="_" glyph-name="underscore" horiz-adv-x="922" d="M925 -120V-341H-4V-120H925Z" />
<glyph unicode="`" glyph-name="grave" horiz-adv-x="1103" d="M860 1241H626Q582 1269 443 1365Q319 1453 238 1517V1536H625Q672 1473 807 1327L860 1267V1241Z" />
<glyph unicode="a" glyph-name="a" horiz-adv-x="1148" d="M1030 0H787L719 135H712Q643 48 568 15T376 -18Q231 -18 149 69T67 311Q67 625 508 643L679 649V663Q679 789 554 789Q444 789 271 714L169 946Q348 1038 619 1038Q815 1038 922 940T1030 669V0ZM426
324Q426 230 526 230Q590 230 635 270T680 376V455L599 452Q426 444 426 324Z" />
<glyph unicode="b" glyph-name="b" horiz-adv-x="1185" d="M748 516Q748 761 616 761Q542 761 508 710T473 549V499Q473 374 507 320T619 265Q682 265 715 329T748 516ZM473 888Q572 1038 741 1038T1008 898T1106 511T1007 123Q910 -18 733 -18Q630 -18 554 27Q518
50 473 100H452L396 0H121V1400H473V1084Q473 1028 461 888H473Z" />
<glyph unicode="c" glyph-name="c" horiz-adv-x="994" d="M586 -18Q337 -18 207 116T77 505T216 898T614 1038Q790 1038 948 960L844 700Q704 761 616 761T482 695T435 507Q435 262 616 262Q770 262 913 352V72Q776 -18 586 -18Z" />
<glyph unicode="d" glyph-name="d" horiz-adv-x="1185" d="M452 1038Q538 1038 602 1003T719 888H726Q709 1012 709 1128V1400H1064V0H798L723 129H709Q618 -18 438 -18Q275 -22 176 122T76 512T177 898T452 1038ZM509 754T471 689T433 504T471 322T587 260T700
311T739 477V505Q739 638 701 696T579 754Q509 754 471 689Z" />
<glyph unicode="e" glyph-name="e" horiz-adv-x="1139" d="M741 710T701 754T595 798T488 758T440 636H742Q741 710 701 754ZM614 -18Q359 -18 218 117Q77 254 77 508T207 900T574 1038T936 917T1062 571V415H433Q436 329 495 281T650 232T826 249T995 310V57Q915
15 827 -1T614 -18Z" />
<glyph unicode="f" glyph-name="f" horiz-adv-x="761" d="M744 1020V756H527V0H175V756H40V929L183 1015V1032Q183 1234 265 1322T529 1410Q661 1410 807 1362L732 1134Q667 1152 605 1152Q564 1152 546 1127T527 1047V1020H744Z" />
<glyph unicode="g" glyph-name="g" horiz-adv-x="1117" d="M450 -35Q393 -35 354 -61T315 -129T362 -196T487 -223Q614 -223 692 -191Q769 -159 769 -109Q769 -69 724 -52T588 -35H450ZM1084 1020V850L944 798Q973 745 973 677Q973 510 857 420T512 330Q453 330
422 337Q409 315 409 293Q409 267 450 253T562 239H732Q1075 239 1075 -50Q1075 -235 916 -339T470 -443Q253 -443 136 -371T18 -162Q18 21 245 74Q198 94 164 137T129 226T154 308T264 396Q183 432 139 506T94 688Q94 854 207 946T531 1038Q608 1038 728 1020H1084ZM535
842Q426 842 426 686T535 529Q640 529 640 685T535 842Z" />
<glyph unicode="h" glyph-name="h" horiz-adv-x="1235" d="M1117 0H763V556Q763 761 642 761Q554 761 514 688T473 448V0H121V1400H473V1201Q473 1073 459 894H475Q525 971 593 1004T756 1038Q928 1038 1022 940T1117 663V0Z" />
<glyph unicode="i" glyph-name="i" horiz-adv-x="599" d="M475 1020V0H123V1020H475ZM489 1273Q489 1119 302 1119T114 1273Q114 1354 158 1392T300 1430T443 1391T489 1273Z" />
<glyph unicode="j" glyph-name="j" horiz-adv-x="598" d="M95 -443Q48 -443 -7 -436T-94 -420V-146Q-37 -162 14 -162Q121 -162 121 -9V1020H473V-83Q473 -251 375 -347T95 -443ZM487 1273Q487 1119 300 1119T112 1273Q112 1354 156 1392T298 1430T441 1391T487 1273Z" />
<glyph unicode="k" glyph-name="k" horiz-adv-x="1215" d="M475 0H121V1400H475V850Q475 711 455 573H463Q526 675 571 732L800 1020H1192L839 586L1215 0H813L589 365L475 278V0Z" />
<glyph unicode="l" glyph-name="l" horiz-adv-x="596" d="M473 1400V0H121V1400H473Z" />
<glyph unicode="m" glyph-name="m" horiz-adv-x="1843" d="M1725 0H1373V554Q1373 660 1345 710T1255 761Q1174 761 1137 692T1099 475V0H746V554Q746 659 719 710T632 761Q548 761 511 687T473 446V0H121V1020H387L431 894H452Q491 963 568 1000T744 1038Q965
1038 1054 904H1082Q1125 967 1202 1002T1372 1038Q1551 1038 1638 946T1725 663V0Z" />
<glyph unicode="n" glyph-name="n" horiz-adv-x="1235" d="M1117 0H765V556Q765 761 642 761Q554 761 514 691T473 446V0H121V1020H387L431 894H452Q542 1038 760 1038Q929 1038 1023 940T1117 663V0Z" />
<glyph unicode="o" glyph-name="o" horiz-adv-x="1174" d="M737 647T702 711T587 776T471 711T435 512T471 310T587 243T702 309T737 511ZM1095 512Q1095 262 961 122T589 -18T214 125Q77 268 77 514T211 899Q346 1038 589 1038Q816 1041 957 896T1095 512Z" />
<glyph unicode="p" glyph-name="p" horiz-adv-x="1185" d="M733 -18Q653 -18 593 8T473 100H457Q473 -3 473 -33V-443H121V1020H408L457 890H473Q570 1038 741 1038T1009 897Q1106 758 1106 512T1005 123Q904 -18 733 -18ZM687 265T717 323T748 515T718 704T614
761T508 708T473 542V514Q473 383 508 324T615 265Z" />
<glyph unicode="q" glyph-name="q" horiz-adv-x="1185" d="M435 503Q435 371 471 313T587 255T703 305T739 472V514Q739 649 702 707T580 765Q435 765 435 503ZM712 129Q625 -18 449 -18T174 122Q77 262 77 510T176 898T454 1038T726 894H733L760 1020H1064V-443H712V-21Q712
5 723 129H712Z" />
<glyph unicode="r" glyph-name="r" horiz-adv-x="865" d="M737 1038Q771 1038 844 1027L813 695Q767 706 693 706Q473 706 473 501V0H121V1020H383L438 857H455Q499 939 578 988T737 1038Z" />
<glyph unicode="s" glyph-name="s" horiz-adv-x="983" d="M806 551Q909 470 909 310T799 66T477 -18Q364 -18 280 -6T109 39V320Q195 282 291 260T463 238Q577 238 577 290Q577 317 546 337T359 420Q217 480 162 552T107 737Q107 878 217 958T516 1038T901 951L805
724Q734 756 658 778T529 800Q443 800 443 758Q443 732 473 714T647 638Q754 594 806 551Z" />
<glyph unicode="t" glyph-name="t" horiz-adv-x="848" d="M526 359Q526 260 621 260Q691 260 791 295V39Q726 10 660 -4T505 -18Q330 -18 251 68T171 336V756H48V899L204 1010L295 1224H526V1020H776V756H526V359Z" />
<glyph unicode="u" glyph-name="u" horiz-adv-x="1235" d="M1113 0H848L804 127H783Q739 57 660 20T475 -18Q307 -18 214 80T120 355V1020H472V463Q472 361 500 311T593 260Q684 260 722 331T761 573V1020H1113V0Z" />
<glyph unicode="v" glyph-name="v" horiz-adv-x="1126" d="M556 313H562Q562 358 579 415L760 1020H1126L737 0H389L0 1020H367L540 417Q540 415 543 402T548 376Q556 338 556 313Z" />
<glyph unicode="w" glyph-name="w" horiz-adv-x="1678" d="M1375 0H999L884 486L857 633L839 751H833Q791 508 774 433L670 0H301L22 1020H369L452 628Q490 431 498 293H503Q506 372 553 608L647 1020H1036L1122 603Q1163 407 1174 293H1180Q1184 352 1197 464Q1212
574 1226 628L1316 1020H1655L1375 0Z" />
<glyph unicode="x" glyph-name="x" horiz-adv-x="1161" d="M9 0L337 520L26 1020H426L580 733L739 1020H1139L820 520L1152 0H752L580 310L409 0H9Z" />
<glyph unicode="y" glyph-name="y" horiz-adv-x="1124" d="M236 -443Q166 -443 92 -428V-151Q141 -162 194 -162Q292 -162 344 -93Q370 -59 400 14L-2 1020H369L542 435Q555 386 559 324H566Q574 390 588 433L765 1020H1124L721 -65Q643 -271 530 -357T236 -443Z" />
<glyph unicode="z" glyph-name="z" horiz-adv-x="934" d="M888 269V0H44V201L466 751H68V1020H868V802L464 269H888Z" />
<glyph unicode="{" glyph-name="braceleft" horiz-adv-x="862" d="M89 456V727Q192 727 251 767T310 880V1109Q310 1234 354 1296T497 1386T773 1415V1164Q691 1161 664 1151Q602 1131 602 1068V824Q602 722 551 668T386 597V587Q500 569 551 516T602 365V117Q602
52 672 32Q705 23 773 21V-230Q598 -230 498 -201T354 -110T310 80V303Q310 375 251 415T89 456Z" />
<glyph unicode="|" glyph-name="bar" horiz-adv-x="938" d="M348 -401V1400H589V-401H348Z" />
<glyph unicode="}" glyph-name="braceright" horiz-adv-x="861" d="M772 727V456Q672 456 612 415T552 303V80Q552 -45 508 -108T365 -201T89 -230V21Q185 24 222 46T260 117V365Q260 463 311 516T476 587V597Q362 614 311 668T260 824V1068Q260 1131 197 1151Q171
1161 89 1164V1415Q264 1415 364 1386T508 1296T552 1109V880Q552 808 610 768T772 727Z" />
<glyph unicode="~" glyph-name="asciitilde" horiz-adv-x="1043" d="M487 533Q370 582 272 582T65 473V726Q158 823 302 823Q364 823 418 812T554 767Q674 717 769 717Q814 717 870 746T976 826V573Q881 475 739 475Q673 475 617 488T487 533Z" />
<glyph unicode="&#xa0;" glyph-name="nbspace" horiz-adv-x="532" />
<glyph unicode="&#xa9;" glyph-name="copyright" horiz-adv-x="1519" d="M798 874Q724 874 684 819T643 654T682 492T804 440Q929 440 1036 501V293Q922 236 791 236Q600 236 495 347Q391 460 391 658T492 967T781 1078Q932 1078 1071 1008L988 823Q894 874 798
874ZM230 799T230 658T301 393T495 198Q618 129 760 129T1025 199T1218 393T1289 658T1219 922T1026 1115Q904 1187 761 1187T495 1116T301 922ZM1435 474T1345 319T1100 73T759 -18T416 74T171 323T83 659T173 995T420 1244T757 1335T1092 1247Q1248 1160 1341
1002Q1435 845 1435 660Z" />
<glyph unicode="&#xd7;" glyph-name="multiply" horiz-adv-x="1043" d="M111 409L348 651L109 892L273 1062L516 822L763 1062L932 897L686 651L929 406L763 239L516 483L273 241L111 409Z" />
<glyph unicode="&#xf7;" glyph-name="divide" horiz-adv-x="1043" d="M661 228T623 187T520 146T418 186T380 300T415 413T519 452T624 413T661 301ZM976 529H65V770H976V529ZM661 930T623 889T520 848T418 888T380 1002T415 1115T519 1154T624 1115T661 1003Z" />
<glyph unicode="&#x2013;" glyph-name="endash" horiz-adv-x="988" d="M888 453H100V701H888V453Z" />
<glyph unicode="&#x2014;" glyph-name="emdash" horiz-adv-x="1906" d="M1806 453H100V701H1806V453Z" />
<glyph unicode="&#x2018;" glyph-name="quoteleft" horiz-adv-x="689" d="M451 789H143L130 809Q220 1160 289 1314H539Q480 1039 451 789Z" />
<glyph unicode="&#x2019;" glyph-name="quoteright" horiz-adv-x="670" d="M218 1314H526L540 1294Q458 969 380 789H130Q190 1071 218 1314Z" />
<glyph unicode="&#x201c;" glyph-name="quotedblleft" horiz-adv-x="1148" d="M910 789H602L589 809Q679 1160 748 1314H998Q939 1039 910 789ZM451 789H143L130 809Q220 1160 289 1314H539Q480 1039 451 789Z" />
<glyph unicode="&#x201d;" glyph-name="quotedblright" horiz-adv-x="1128" d="M218 1314H526L540 1294Q458 969 380 789H130Q190 1071 218 1314ZM677 1314H985L998 1294Q914 961 839 789H589Q649 1071 677 1314Z" />
<glyph unicode="&#x2022;" glyph-name="bullet" horiz-adv-x="723" d="M656 519T578 434T360 348T144 432T67 673T143 913T360 997T579 912T656 673Z" />
</font>
</defs>
</svg>
