<?xml version="1.0" standalone="no"?>
<!DOCTYPE svg PUBLIC "-//W3C//DTD SVG 1.1//EN" "http://www.w3.org/Graphics/SVG/1.1/DTD/svg11.dtd">
<svg xmlns="http://www.w3.org/2000/svg">
<defs >
<font id="PragatiNarrow" horiz-adv-x="459" ><font-face
    font-family="Pragati Narrow"
    units-per-em="1000"
    panose-1="2 11 8 6 2 2 2 2 11 4"
    ascent="1158"
    descent="-534"
    alphabetic="0" />
<glyph unicode=" " glyph-name="space" horiz-adv-x="210" />
<glyph unicode="!" glyph-name="exclam" horiz-adv-x="251" d="M175 342T162 181H87L75 359L55 630H196Q175 342 162 181ZM62 0V126H189V0H62Z" />
<glyph unicode="&quot;" glyph-name="quotedbl" horiz-adv-x="358" d="M134 374H61L42 495V630H154V495L134 374ZM301 374H228L208 495V630H320V495L301 374Z" />
<glyph unicode="#" glyph-name="numbersign" horiz-adv-x="419" d="M414 386H339L311 257H378V179H293L253 0H172L212 179H144L103 0H22L62 179H4V257H80L108 386H41V464H126L166 642H248L207 464H276L316 642H397L357 464H414V386ZM230 257L258 386H189L161 257H230Z" />
<glyph unicode="$" glyph-name="dollar" horiz-adv-x="419" d="M295 562T334 527T374 437Q374 429 374 424T373 416H272V417Q271 468 233 484V365Q281 352 311 339T364 296T386 218Q386 75 233 63V-45H182V63Q110 70 70 111T30 216L31 227H132V220Q132 190 146
173T182 148V280Q137 292 108 305T58 346T37 421Q37 485 77 522T182 567V665H233V567Q295 562 334 527ZM162 477T150 463T138 431Q138 413 149 401T182 381V484Q162 477 150 463ZM255 152T270 166T285 205Q285 226 272 239T233 263V147Q255 152 270 166Z" />
<glyph unicode="%" glyph-name="percent" horiz-adv-x="670" d="M222 642T254 605T286 475Q286 384 254 347T159 310Q96 310 64 347T32 475Q32 567 64 604T159 642Q222 642 254 605ZM105 0L489 630H568L183 0H105ZM134 574T124 551T114 483V469Q114 424 124 400T159
376Q185 376 194 400T204 469V483Q204 528 195 551T159 574Q134 574 124 551ZM575 321T607 284T639 155Q639 63 607 26T512 -11Q449 -11 417 26T385 155Q385 246 417 283T512 321Q575 321 607 284ZM486 254T477 231T467 162V148Q467 103 476 80T512 56Q538 56 547
79T557 148V162Q557 207 548 230T512 254Q486 254 477 231Z" />
<glyph unicode="&amp;" glyph-name="ampersand" horiz-adv-x="544" d="M346 642T402 595T458 469V443H347V461Q347 504 324 526T255 549Q211 549 186 527T161 464Q161 420 186 394T251 367H289V274H254Q148 274 148 175Q148 128 174 105T250 82Q347 82 347 176V367H530V274H458V178Q458
90 404 40T248 -11Q153 -11 93 38T33 170Q33 230 62 269T140 323V328Q95 349 71 382T46 469Q46 551 103 596T257 642Q346 642 402 595Z" />
<glyph unicode="&apos;" glyph-name="quotesingle" horiz-adv-x="179" d="M127 374H54L34 495V630H147V495L127 374Z" />
<glyph unicode="(" glyph-name="parenleft" horiz-adv-x="251" d="M189 587T159 478T129 266Q129 164 159 55T237 -145H164Q98 -60 63 46T28 265Q28 379 63 485T164 676H237Q189 587 159 478Z" />
<glyph unicode=")" glyph-name="parenright" horiz-adv-x="251" d="M153 591T188 485T224 265Q224 152 189 47T86 -145H14Q62 -55 92 54T123 266Q123 369 93 478T14 676H86Q153 591 188 485Z" />
<glyph unicode="*" glyph-name="asterisk" horiz-adv-x="293" d="M287 530L202 490L287 451L251 389L174 444L183 350H111L121 444L44 389L7 451L93 490L7 530L44 591L121 537L111 630H183L174 538L251 591L287 530Z" />
<glyph unicode="+" glyph-name="plus" horiz-adv-x="440" d="M409 186H266V0H172V186H30V282H172V470H266V282H409V186Z" />
<glyph unicode="," glyph-name="comma" horiz-adv-x="210" d="M42 -144L92 0H42V126H168V11L107 -144H42Z" />
<glyph unicode="-" glyph-name="hyphen" horiz-adv-x="251" d="M15 303H236V194H15V303Z" />
<glyph unicode="." glyph-name="period" horiz-adv-x="210" d="M42 126H168V0H42V126Z" />
<glyph unicode="/" glyph-name="slash" horiz-adv-x="210" d="M131 676H210L80 -45H1L131 676Z" />
<glyph unicode="0" glyph-name="zero" horiz-adv-x="419" d="M269 642T309 613T370 512T392 315Q392 191 371 120T309 19T210 -11Q150 -11 110 18T49 119T28 315Q28 440 49 512T110 613T210 642Q269 642 309 613ZM182 549T168 528T148 464T142 347V283Q142 210
147 167T167 103T210 82Q237 82 251 103T271 167T277 283V347Q277 421 272 464T252 528T210 549Q182 549 168 528Z" />
<glyph unicode="1" glyph-name="one" horiz-adv-x="419" d="M418 0H36V93H178V487H35V560Q77 565 135 584T234 630H289V93H418V0Z" />
<glyph unicode="2" glyph-name="two" horiz-adv-x="419" d="M295 642T342 602T389 478Q389 425 367 374T313 282T235 189L199 147Q180 124 168 103H392V0H30V22Q30 72 49 113Q65 152 90 185T159 267Q198 311 220 340T258 404T274 479Q274 506 260 526T215 547Q183
547 168 520T152 451V414H38Q37 417 36 426T35 450Q35 546 87 594T219 642Q295 642 342 602Z" />
<glyph unicode="3" glyph-name="three" horiz-adv-x="419" d="M287 642T334 597T381 469Q381 416 359 383T298 328V323Q341 308 366 269T392 170Q392 87 342 38T210 -11Q121 -11 72 39T23 178V194H138V176Q138 130 156 106T208 82Q241 82 259 105T277 175Q277
274 202 274H171V367H203Q230 367 247 392T265 464Q265 507 250 528T208 549Q180 549 165 527T149 461V443H34V469Q34 547 82 594T207 642Q287 642 334 597Z" />
<glyph unicode="4" glyph-name="four" horiz-adv-x="419" d="M260 567T227 484T159 333T103 235H234V376Q251 411 269 460T296 548H344V235H409V142H344V0H234V142H7V231Q55 314 96 422T166 642H277Q260 567 227 484Z" />
<glyph unicode="5" glyph-name="five" horiz-adv-x="419" d="M155 379Q195 410 244 410Q312 410 355 358T398 206Q398 103 349 46T213 -11Q129 -11 79 44T28 196H142Q142 143 161 112T213 81Q246 81 265 113T284 206Q284 260 266 290T219 320Q175 320 152 266L45
282L67 630H371V527H163L155 379Z" />
<glyph unicode="6" glyph-name="six" horiz-adv-x="419" d="M294 642T334 586T375 437H262Q262 493 250 521T206 549Q179 549 166 526T148 461T141 346Q157 370 183 383T239 396Q313 396 352 340T392 193Q392 132 370 86T308 14T218 -11Q124 -11 76 59T28 297Q28
486 74 564T210 642Q294 642 334 586ZM182 306T165 276T148 193Q148 144 165 113T213 82Q245 82 261 112T278 193Q278 245 262 275T213 306Q182 306 165 276Z" />
<glyph unicode="7" glyph-name="seven" horiz-adv-x="419" d="M320 440T266 309T212 47Q212 22 213 0H92Q92 142 145 282T279 527H21V630H398V556Q320 440 266 309Z" />
<glyph unicode="8" glyph-name="eight" horiz-adv-x="419" d="M290 642T334 592T379 466Q379 421 362 384T310 323Q392 283 392 173Q392 92 347 41T210 -11Q118 -11 73 40T28 173Q28 283 108 323Q75 346 58 383T41 466Q41 542 85 592T210 642Q290 642 334 592ZM182
550T168 527T153 459Q153 414 167 391T210 368Q237 368 252 391T267 459Q267 504 252 527T210 550Q182 550 168 527ZM176 277T159 252T141 178Q141 130 158 106T210 81Q243 81 260 105T278 178Q278 225 261 251T210 277Q176 277 159 252Z" />
<glyph unicode="9" glyph-name="nine" horiz-adv-x="419" d="M296 642T344 572T392 334Q392 146 346 68T210 -11Q126 -11 85 45T44 194H157Q157 138 170 110T213 82Q252 82 264 129T278 284Q262 261 236 248T180 234Q106 234 67 290T28 438Q28 500 50 546T112
617T202 642Q296 642 344 572ZM174 549T158 519T141 438Q141 385 157 355T206 324Q238 324 254 354T271 438Q271 488 255 518T206 549Q174 549 158 519Z" />
<glyph unicode=":" glyph-name="colon" horiz-adv-x="251" d="M51 484H178V358H51V484ZM51 126H178V0H51V126Z" />
<glyph unicode=";" glyph-name="semicolon" horiz-adv-x="251" d="M51 484H178V358H51V484ZM50 -144L100 0H50V126H177V11L115 -144H50Z" />
<glyph unicode="&lt;" glyph-name="less" horiz-adv-x="440" d="M410 100V-8L31 181V297L410 488V380L124 240L410 100Z" />
<glyph unicode="=" glyph-name="equal" horiz-adv-x="440" d="M30 379H409V283H30V379ZM30 183H409V88H30V183Z" />
<glyph unicode="&gt;" glyph-name="greater" horiz-adv-x="440" d="M31 -8V100L317 240L31 380V488L410 297V181L31 -8Z" />
<glyph unicode="?" glyph-name="question" horiz-adv-x="461" d="M320 642T368 597T416 478Q416 418 399 383T350 311Q326 283 314 261T302 207V181H186V220Q186 257 199 282T240 339Q268 373 282 400T296 468Q296 493 283 518T232 543Q192 543 177 513T161 447Q161
437 161 431T162 422H46Q46 425 45 434T44 454Q44 536 94 589T239 642Q320 642 368 597ZM181 126H308V0H181V126Z" />
<glyph unicode="@" glyph-name="at" horiz-adv-x="735" d="M532 642T622 557T713 295Q713 198 685 136T615 47T530 20Q488 20 467 35T435 78H431Q410 49 386 35T320 20Q279 20 245 48T210 144Q210 227 267 262T427 297V343Q427 369 418 383T382 397Q353 397 341
384T329 352V339H232Q231 344 231 358Q231 413 271 446T379 479Q454 479 491 446T528 349V139Q528 105 556 105Q593 105 619 151T646 296Q646 439 575 508T378 578Q242 578 166 493T90 240Q90 81 153 2T349 -77Q382 -77 427 -69T496 -48V-115Q470 -126 426 -133T349
-140Q193 -140 108 -47T23 241Q23 448 122 545T379 642Q532 642 622 557ZM313 225T313 153Q313 130 325 117T361 104Q395 104 411 131T427 200V225Q313 225 313 153Z" />
<glyph unicode="A" glyph-name="A" horiz-adv-x="544" d="M423 0L385 124H152L114 0H0L203 630H340L543 0H423ZM265 516T260 487T249 440L184 229H353L289 440Q283 460 277 488T270 525H266Q265 516 260 487Z" />
<glyph unicode="B" glyph-name="B" horiz-adv-x="544" d="M401 630T449 587T498 474Q498 421 471 384T401 331V328Q450 312 481 270T513 170Q513 118 488 80T421 21T327 0H55V630H327Q401 630 449 587ZM294 375Q334 375 356 397T378 453Q378 488 357 507T300 526H173V375H294ZM307
105Q345 105 368 125T392 184Q392 223 369 247T302 271H173V105H307Z" />
<glyph unicode="C" glyph-name="C" horiz-adv-x="544" d="M387 642T450 581T514 396H393Q393 467 363 504T282 541Q217 541 185 488T153 338V292Q153 195 186 143T286 90Q339 90 369 126T399 234H514Q514 114 451 52T282 -11Q161 -11 96 70T31 315Q31 479 96 560T282
642Q387 642 450 581Z" />
<glyph unicode="D" glyph-name="D" horiz-adv-x="544" d="M260 630Q380 630 446 552T513 324Q513 165 447 83T260 0H55V630H260ZM250 105Q317 105 354 155T392 302V347Q392 435 355 480T250 526H173V105H250Z" />
<glyph unicode="E" glyph-name="E" horiz-adv-x="503" d="M457 630V526H173V375H416V270H173V105H463V0H55V630H457Z" />
<glyph unicode="F" glyph-name="F" horiz-adv-x="461" d="M425 630V526H173V367H389V262H173V0H55V630H425Z" />
<glyph unicode="G" glyph-name="G" horiz-adv-x="587" d="M278 343H540V0H464L443 70Q413 31 369 10T275 -11Q157 -11 94 70T31 315Q31 479 100 560T298 642Q363 642 418 615T507 536T540 410H419Q419 471 384 506T295 541Q223 541 188 488T153 338V292Q153 193
188 142T296 90Q351 90 385 131T419 241H278V343Z" />
<glyph unicode="H" glyph-name="H" horiz-adv-x="544" d="M371 0V270H173V0H55V630H173V375H371V630H489V0H371Z" />
<glyph unicode="I" glyph-name="I" horiz-adv-x="210" d="M46 630H163V0H46V630Z" />
<glyph unicode="J" glyph-name="J" horiz-adv-x="419" d="M364 71T318 30T186 -11Q101 -11 55 30T8 150V199H125V159Q125 125 141 108T186 90Q246 90 246 159V630H364V150Q364 71 318 30Z" />
<glyph unicode="K" glyph-name="K" horiz-adv-x="544" d="M536 630L349 374L542 0H409L272 282L174 161V0H55V630H174V308L405 630H536Z" />
<glyph unicode="L" glyph-name="L" horiz-adv-x="461" d="M440 110V0H55V630H173V110H440Z" />
<glyph unicode="M" glyph-name="M" horiz-adv-x="628" d="M471 0V401Q471 430 472 460T475 503H471Q469 497 467 481L456 432L361 0H259L171 405Q161 441 148 503H145Q146 491 147 459T149 401V0H49V630H214L292 283Q298 257 306 207T317 140H321Q323 157 330
208T342 283L419 630H579V0H471Z" />
<glyph unicode="N" glyph-name="N" horiz-adv-x="544" d="M385 0L189 347L161 407L157 404Q157 398 158 383T159 352V0H55V630H159L354 283Q360 273 370 253T383 225L385 227V280V630H489V0H385Z" />
<glyph unicode="O" glyph-name="O" horiz-adv-x="587" d="M418 642T486 561T555 315Q555 152 487 71T293 -11Q168 -11 100 70T31 315Q31 478 99 560T293 642Q418 642 486 561ZM224 541T189 488T153 338V292Q153 196 188 143T293 90Q362 90 398 143T434 292V338Q434
434 398 487T293 541Q224 541 189 488Z" />
<glyph unicode="P" glyph-name="P" horiz-adv-x="503" d="M55 0V630H281Q376 630 427 578T478 441Q478 352 424 298T281 244H173V0H55ZM268 348Q311 348 334 373T357 441Q357 480 334 503T268 526H173V348H268Z" />
<glyph unicode="Q" glyph-name="Q" horiz-adv-x="587" d="M31 478T99 560T293 642Q418 642 486 561T555 315Q555 199 520 124T418 16L540 -114H395L305 -11H293Q168 -11 100 70T31 315Q31 478 99 560ZM153 196T188 143T293 90Q362 90 398 143T434 292V338Q434
434 398 487T293 541Q224 541 189 488T153 338V292Q153 196 188 143Z" />
<glyph unicode="R" glyph-name="R" horiz-adv-x="544" d="M412 630T462 581T512 450Q512 394 484 352T407 289L527 0H400L295 263H173V0H55V630H319Q412 630 462 581ZM173 367H303Q385 367 385 450Q385 486 366 506T307 526H173V367Z" />
<glyph unicode="S" glyph-name="S" horiz-adv-x="503" d="M341 642T398 596T456 456V445H336V453Q336 493 313 517T250 541Q208 541 185 522T162 473Q162 447 177 431T216 404T281 381Q340 363 377 345T441 289T468 189Q468 86 409 38T245 -11Q186 -11 137 11T58
78T28 185V205H151L150 190Q150 145 176 118T251 90Q300 90 323 111T346 164Q346 195 330 215T288 246T220 272Q163 291 128 309T67 365T41 465Q41 522 69 562T145 622T251 642Q341 642 398 596Z" />
<glyph unicode="T" glyph-name="T" horiz-adv-x="461" d="M289 526V0H172V526H16V630H446V526H289Z" />
<glyph unicode="U" glyph-name="U" horiz-adv-x="544" d="M489 96T432 43T272 -11Q169 -11 113 42T56 198V630H174V202Q174 148 199 119T272 90Q320 90 345 119T371 202V630H489V198Q489 96 432 43Z" />
<glyph unicode="V" glyph-name="V" horiz-adv-x="503" d="M0 630H122L254 179H258L388 630H503L311 0H192L0 630Z" />
<glyph unicode="W" glyph-name="W" horiz-adv-x="711" d="M369 401Q365 422 362 452T357 491H353Q352 481 348 454T340 401L256 0H137L0 630H116L192 242Q196 225 199 195T204 155H208Q209 165 212 195T219 242L296 630H430L504 242Q508 227 512 196T517 155H520Q521
164 524 193T532 242L609 630H710L574 0H456L369 401Z" />
<glyph unicode="X" glyph-name="X" horiz-adv-x="503" d="M502 0H371L249 238H244L123 0H0L178 331L17 630H148L254 424H258L363 630H486L322 333L502 0Z" />
<glyph unicode="Y" glyph-name="Y" horiz-adv-x="503" d="M193 0V238L0 630H124L253 354H257L385 630H503L311 238V0H193Z" />
<glyph unicode="Z" glyph-name="Z" horiz-adv-x="461" d="M176 105H441V0H15V45L274 526H34V630H435V584L176 105Z" />
<glyph unicode="[" glyph-name="bracketleft" horiz-adv-x="251" d="M152 -60H228V-148H45V676H228V589H152V-60Z" />
<glyph unicode="\" glyph-name="backslash" horiz-adv-x="210" d="M1 676H79L210 -45H131L1 676Z" />
<glyph unicode="]" glyph-name="bracketright" horiz-adv-x="251" d="M23 -60H99V589H23V676H206V-148H23V-60Z" />
<glyph unicode="^" glyph-name="asciicircum" horiz-adv-x="440" d="M222 519L131 270H29L173 630H271L416 270H314L222 519Z" />
<glyph unicode="_" glyph-name="underscore" horiz-adv-x="419" d="M0 -58H418V-122H0V-58Z" />
<glyph unicode="`" glyph-name="grave" horiz-adv-x="251" d="M20 661V665H131L210 543H119L20 661Z" />
<glyph unicode="a" glyph-name="a" horiz-adv-x="419" d="M282 495T323 458T364 353V114Q364 98 371 90T390 82H412V4Q386 -11 346 -11Q314 -11 292 6T261 52H257Q234 20 207 5T134 -11Q88 -11 50 19T12 125Q12 218 75 256T253 294V344Q253 373 242 389T202 405Q172
405 159 390T145 354V340H36Q35 345 35 361Q35 421 80 458T200 495Q282 495 323 458ZM126 214T126 135Q126 81 180 81Q217 81 235 110T253 186V214Q126 214 126 135Z" />
<glyph unicode="b" glyph-name="b" horiz-adv-x="461" d="M165 434Q178 462 207 478T274 495Q341 495 382 432T423 242Q423 115 382 52T267 -11Q232 -11 204 6T158 59H154L142 0H51V665H161V434H165ZM196 394T179 360T161 258V225Q161 157 178 123T234 89Q273
89 290 123T308 225V259Q308 327 291 360T234 394Q196 394 179 360Z" />
<glyph unicode="c" glyph-name="c" horiz-adv-x="419" d="M297 495T341 448T386 302H274Q274 401 217 401Q183 401 168 366T153 259V225Q153 152 168 117T220 82Q250 82 263 106T277 182H386Q386 84 343 37T220 -11Q126 -11 82 50T37 241Q37 371 82 433T217 495Q297
495 341 448Z" />
<glyph unicode="d" glyph-name="d" horiz-adv-x="461" d="M307 59H303Q285 24 257 7T193 -11Q119 -11 78 52T37 242Q37 368 78 431T187 495Q224 495 253 479T295 434H300V665H410V0H318L307 59ZM187 394T170 360T153 259V225Q153 157 170 123T226 89Q265 89 282
123T300 225V258Q300 325 283 359T226 394Q187 394 170 360Z" />
<glyph unicode="e" glyph-name="e" horiz-adv-x="419" d="M302 495T345 433T389 241V214H144Q145 146 161 113T218 79Q247 79 263 103T280 171H389Q389 81 342 35T218 -11Q28 -11 28 241Q28 495 214 495Q302 495 345 433ZM180 405T164 377T145 294H274Q274 348
259 376T214 405Q180 405 164 377Z" />
<glyph unicode="f" glyph-name="f" horiz-adv-x="251" d="M190 672T213 669T251 661V579H206Q167 579 167 540V484H251V391H167V0H57V391H8V484H57V543Q57 598 83 635T171 672Q190 672 213 669Z" />
<glyph unicode="g" glyph-name="g" horiz-adv-x="461" d="M447 465T368 441Q387 420 397 392T408 330Q408 254 361 210T228 165H182Q167 165 158 157T149 136Q149 124 157 116T178 107H344Q392 107 424 73T456 -19Q456 -62 435 -96T378 -148T298 -167H122Q76 -167
46 -136T15 -56Q15 7 76 43Q58 54 48 72T37 114Q37 144 57 166T108 200Q80 221 65 254T50 330Q50 406 96 450T228 495Q274 495 309 480Q333 499 344 523T356 565H447Q447 465 368 441ZM195 413T178 392T160 330Q160 291 177 270T228 248Q262 248 279 269T297 330Q297
370 280 391T228 413Q195 413 178 392ZM152 5T139 -8T126 -38Q126 -59 139 -71T171 -83H294Q315 -83 329 -71T344 -38Q344 -18 331 -7T298 5H171Q152 5 139 -8Z" />
<glyph unicode="h" glyph-name="h" horiz-adv-x="461" d="M183 459T213 477T282 495Q341 495 375 458T410 339V0H300V309Q300 354 284 374T236 394Q204 394 183 367T161 297V0H51V665H161V432H164Q183 459 213 477Z" />
<glyph unicode="i" glyph-name="i" horiz-adv-x="210" d="M50 665H160V565H50V665ZM50 484H160V0H50V484Z" />
<glyph unicode="j" glyph-name="j" horiz-adv-x="210" d="M50 665H160V565H50V665ZM160 -93T135 -130T48 -167Q27 -167 4 -164T-34 -156V-75H6Q50 -75 50 -30V484H160V-37Q160 -93 135 -130Z" />
<glyph unicode="k" glyph-name="k" horiz-adv-x="419" d="M413 484L269 287L420 0H297L201 201L160 151V0H50V665H160V291L295 484H413Z" />
<glyph unicode="l" glyph-name="l" horiz-adv-x="210" d="M50 665H160V0H50V665Z" />
<glyph unicode="m" glyph-name="m" horiz-adv-x="670" d="M622 495T622 339V0H512V309Q512 355 499 374T458 394Q430 394 411 369T391 305V0H282V309Q282 355 269 374T227 394Q198 394 180 367T161 297V0H51V484H142L154 424H159Q178 456 207 475T274 495Q351
495 378 424Q398 455 430 475T503 495Q622 495 622 339Z" />
<glyph unicode="n" glyph-name="n" horiz-adv-x="461" d="M341 495T375 458T410 339V0H300V309Q300 354 284 374T236 394Q204 394 183 367T161 297V0H51V484H142L154 424H159Q180 456 210 475T282 495Q341 495 375 458Z" />
<glyph unicode="o" glyph-name="o" horiz-adv-x="461" d="M329 495T376 433T424 241Q424 112 376 51T231 -11Q133 -11 85 50T37 241Q37 371 85 433T231 495Q329 495 376 433ZM189 401T171 366T153 259V225Q153 152 171 117T231 82Q273 82 291 117T309 225V259Q309
331 291 366T231 401Q189 401 171 366Z" />
<glyph unicode="p" glyph-name="p" horiz-adv-x="461" d="M341 495T382 432T423 241Q423 115 382 52T274 -11Q237 -11 208 5T165 50H161V-159H51V484H142L154 424H158Q176 459 204 477T267 495Q341 495 382 432ZM195 394T178 360T161 259V226Q161 158 178 124T234
89Q273 89 290 123T308 225V259Q308 327 291 360T234 394Q195 394 178 360Z" />
<glyph unicode="q" glyph-name="q" horiz-adv-x="461" d="M228 495T256 477T303 424H307L318 484H410V-159H300V50H295Q282 21 253 5T187 -11Q120 -11 79 52T37 241Q37 369 78 432T193 495Q228 495 256 477ZM187 394T170 360T153 259V225Q153 157 170 123T226
89Q265 89 282 123T300 226V259Q300 327 283 360T226 394Q187 394 170 360Z" />
<glyph unicode="r" glyph-name="r" horiz-adv-x="293" d="M263 495T275 492T290 488V381H251Q211 381 186 355T161 269V0H51V484H142L155 413H161Q173 449 192 472T244 495Q263 495 275 492Z" />
<glyph unicode="s" glyph-name="s" horiz-adv-x="419" d="M282 495T328 460T374 363L373 342H261V344Q260 374 246 389T207 405Q181 405 166 392T150 357Q150 331 171 320T237 296Q283 284 313 271T364 228T386 146Q386 -11 206 -11Q124 -11 77 31T30 142L31 154H144V147Q145
112 164 96T210 79Q236 79 255 91T274 131Q274 161 252 174T181 201Q136 213 107 226T58 268T37 347Q37 418 85 456T210 495Q282 495 328 460Z" />
<glyph unicode="t" glyph-name="t" horiz-adv-x="251" d="M237 391H167V122Q167 103 177 93T206 82H237V0Q225 -4 206 -7T171 -11Q110 -11 84 26T57 119V391H8V484H57L74 620H167V484H237V391Z" />
<glyph unicode="u" glyph-name="u" horiz-adv-x="461" d="M307 59H302Q281 28 250 9T179 -11Q119 -11 85 26T51 145V484H161V175Q161 129 177 109T225 89Q257 89 278 116T300 184V484H410V0H318L307 59Z" />
<glyph unicode="v" glyph-name="v" horiz-adv-x="419" d="M154 0L4 484H120L182 276Q190 249 196 219T203 180L212 131H216Q219 147 226 189Q227 198 232 225T243 276L305 484H416L265 0H154Z" />
<glyph unicode="w" glyph-name="w" horiz-adv-x="587" d="M310 231Q304 262 301 300T296 350H290Q290 339 287 301T277 232L230 0H119L1 484H111L157 285Q166 244 171 196T177 133H180Q181 147 186 194T201 284L241 484H353L393 283Q400 254 406 202T414 133H417Q419
149 426 193T441 283L484 484H586L469 0H358L310 231Z" />
<glyph unicode="x" glyph-name="x" horiz-adv-x="419" d="M415 0H290L209 160H204L123 0H4L145 250L16 484H140L212 343H217L289 484H408L277 253L415 0Z" />
<glyph unicode="y" glyph-name="y" horiz-adv-x="419" d="M258 -64T218 -115T112 -167Q84 -167 63 -164T41 -159V-75H90Q116 -75 135 -57T164 0L4 484H121L193 257Q204 222 211 170L218 131H223L229 170Q237 228 245 256L305 484H416L283 25Q258 -64 218 -115Z" />
<glyph unicode="z" glyph-name="z" horiz-adv-x="376" d="M361 93V0H17V47L204 391H28V484H354V438L165 93H361Z" />
<glyph unicode="{" glyph-name="braceleft" horiz-adv-x="293" d="M202 605T202 549Q202 495 197 425L194 368Q193 319 170 294T96 269V260Q147 260 169 235T194 161L197 106Q202 36 202 -20Q202 -75 274 -75V-147Q190 -147 142 -119T93 -10V167Q93 196 72 209T22
223V307Q51 307 72 320T93 362V540Q93 619 141 647T274 676V605Q202 605 202 549Z" />
<glyph unicode="|" glyph-name="bar" horiz-adv-x="211" d="M64 665H147V-159H64V665Z" />
<glyph unicode="}" glyph-name="braceright" horiz-adv-x="293" d="M103 676T152 648T201 540V362Q201 334 221 321T271 307V223Q242 223 222 210T201 167V-10Q201 -89 152 -118T20 -147V-75Q92 -75 92 -20Q92 19 96 91L99 161Q101 211 123 235T198 260V269Q146
269 123 294T99 368L96 439Q92 513 92 549Q92 605 20 605V676Q103 676 152 648Z" />
<glyph unicode="~" glyph-name="asciitilde" horiz-adv-x="440" d="M416 257T402 240T362 207T303 192Q283 192 265 199T221 220Q196 234 178 241T138 249Q109 249 84 234T42 201T25 181V291Q25 294 39 311T79 344T138 359Q157 359 174 353T218 332Q244 318 263
311T303 303Q332 303 357 317T399 349T416 369V259Q416 257 402 240Z" />
<glyph unicode="&#xa0;" glyph-name="uni00A0" horiz-adv-x="210" />
<glyph unicode="&#xa1;" glyph-name="exclamdown" horiz-adv-x="251" d="M62 358V484H189V358H62ZM174 153T196 -147H55Q62 -57 74 123Q79 183 87 303H162Q174 153 196 -147Z" />
<glyph unicode="&#xa2;" glyph-name="cent" horiz-adv-x="419" d="M310 560T348 513T386 375H284Q284 459 241 474V155Q288 166 288 256H386Q386 164 348 117T241 63V-45H190V64Q111 73 74 134T37 315Q37 434 75 496T190 567V665H241V567Q310 560 348 513ZM141
453T141 333V297Q141 181 190 158V473Q141 453 141 333Z" />
<glyph unicode="&#xa3;" glyph-name="sterling" horiz-adv-x="419" d="M309 642T353 597T398 464V451H289V475Q289 511 274 530T232 549Q206 549 192 532T177 483V358H287V265H176L165 99H392V0H19V99H66V265H8V358H66V459Q66 549 109 595T232 642Q309 642 353 597Z" />
<glyph unicode="&#xa4;" glyph-name="currency" horiz-adv-x="419" d="M272 530T324 486L363 524L418 467L373 422Q399 373 399 314Q399 256 372 205L418 160L362 104L323 142Q272 99 210 99Q146 99 95 142L56 104L0 160L46 206Q20 253 20 314Q20 374 45 421L0
467L55 524L94 486Q146 530 210 530Q272 530 324 486ZM179 448T154 430T113 382T98 314Q98 278 113 248T154 200T210 182Q240 182 265 200T306 248T321 314Q321 351 306 381T266 430T210 448Q179 448 154 430Z" />
<glyph unicode="&#xa5;" glyph-name="yen" horiz-adv-x="419" d="M393 279H265V215H393V140H265V0H155V140H26V215H154V280H26V354H123L4 630H124L210 389H214L300 630H415L297 354H393V279Z" />
<glyph unicode="&#xa6;" glyph-name="brokenbar" horiz-adv-x="211" d="M64 665H147V322H64V665ZM64 183H147V-159H64V183Z" />
<glyph unicode="&#xa7;" glyph-name="section" horiz-adv-x="419" d="M291 642T337 607T384 511L383 489H270V491Q269 551 216 551Q190 551 175 539T159 503Q159 477 172 459T204 429T259 398Q303 376 330 358T377 307T396 228Q396 190 381 156T337 97Q384 48
384 -20Q384 -92 336 -129T210 -167Q139 -167 93 -132T47 -35L48 -15H160V-17Q161 -77 214 -77Q240 -77 255 -64T271 -29Q271 8 247 29T171 76Q127 98 100 116T53 167T34 246Q34 283 49 318T94 378Q47 425 47 495Q47 566 95 604T219 642Q291 642 337 607ZM142 303T142
279Q142 245 159 222T195 186T267 144Q288 167 288 196Q288 226 274 248T239 284T182 319L162 330Q142 303 142 279Z" />
<glyph unicode="&#xa8;" glyph-name="dieresis" horiz-adv-x="251" d="M-1 665H92V565H-1V665ZM160 665H252V565H160V665Z" />
<glyph unicode="&#xa9;" glyph-name="copyright" horiz-adv-x="555" d="M359 642T418 602T509 488T541 315Q541 216 509 143T418 29T278 -11Q197 -11 138 29T47 142T15 315Q15 414 46 488T137 602T278 642Q359 642 418 602ZM180 591T124 517T67 315Q67 231 92
169T165 74T278 40Q343 40 390 73T463 169T489 315Q489 442 433 516T278 591Q180 591 124 517ZM342 509T379 473T416 363H337Q337 401 322 420T280 440Q246 440 229 411T212 329V303Q212 250 229 221T282 192Q308 192 323 211T339 267H416Q416 197 379 160T280
123Q208 123 170 171T131 315Q131 412 169 460T280 509Q342 509 379 473Z" />
<glyph unicode="&#xaa;" glyph-name="ordfeminine" horiz-adv-x="279" d="M194 675T222 650T250 578V422Q250 411 255 406T267 400H282V343Q264 334 238 334Q217 334 202 345T181 376H178Q162 355 144 345T95 334Q64 334 38 354T12 425Q12 487 53 513T171 540V574Q171
591 165 600T140 610Q122 610 114 602T106 580V571H29Q28 574 28 583Q28 625 58 650T138 675Q194 675 222 650ZM137 486T115 474T93 432Q93 399 126 399Q149 399 160 418T171 467V486Q137 486 115 474Z" />
<glyph unicode="&#xab;" glyph-name="guillemotleft" horiz-adv-x="419" d="M142 115L18 300L142 484H226L127 300L226 115H142ZM311 115L186 300L311 484H394L295 300L394 115H311Z" />
<glyph unicode="&#xac;" glyph-name="logicalnot" horiz-adv-x="440" d="M313 321H27V425H409V172H313V321Z" />
<glyph unicode="&#xad;" glyph-name="uni00AD" horiz-adv-x="251" d="M15 303H236V194H15V303Z" />
<glyph unicode="&#xae;" glyph-name="registered" horiz-adv-x="555" d="M359 642T418 602T509 488T541 315Q541 216 509 143T418 29T278 -11Q197 -11 138 29T47 142T15 315Q15 414 46 488T137 602T278 642Q359 642 418 602ZM180 591T124 517T67 315Q67 231 92
169T165 74T278 40Q343 40 390 73T463 169T489 315Q489 442 433 516T278 591Q180 591 124 517ZM350 502T379 476T409 408Q409 374 394 353T352 321V317Q372 310 389 287T406 218Q406 185 412 171T432 152V133Q426 130 416 128T396 126Q327 126 327 197Q327 243
311 262T272 281H239V129H160V502H305Q350 502 379 476ZM277 352Q300 352 314 363T329 393Q329 410 316 420T280 431H239V352H277Z" />
<glyph unicode="&#xaf;" glyph-name="overscore" horiz-adv-x="251" d="M8 630H242V551H8V630Z" />
<glyph unicode="&#xb0;" glyph-name="degree" horiz-adv-x="368" d="M218 642T248 625T295 577T313 512Q313 476 296 446T248 399T182 381Q127 381 90 419T52 512Q52 547 69 577T116 624T182 642Q218 642 248 625ZM154 578T134 559T114 512Q114 483 134 463T182
443Q210 443 230 463T250 512Q250 540 230 559T182 578Q154 578 134 559Z" />
<glyph unicode="&#xb1;" glyph-name="plusminus" horiz-adv-x="504" d="M441 291H298V132H204V291H62V387H204V547H298V387H441V291ZM62 95H441V0H62V95Z" />
<glyph unicode="&#xb2;" glyph-name="uni00B2" horiz-adv-x="251" d="M174 675T202 651T231 575Q231 533 211 500T151 420L133 400Q128 392 121 383T106 362H233V294H14V311Q14 349 31 378T83 449Q121 490 138 517T155 576Q155 590 148 600T125 610Q109 610 101
596T93 560V535H20Q20 537 19 543T18 558Q18 617 49 646T128 675Q174 675 202 651Z" />
<glyph unicode="&#xb3;" glyph-name="uni00B3" horiz-adv-x="251" d="M172 675T201 648T230 570Q230 541 218 522T183 488Q206 475 220 452T235 396Q235 346 205 317T126 287Q72 287 42 318T12 401V416H88V400Q88 350 125 350Q160 350 160 400Q160 429 149 441T122
453H99V515H123Q135 515 144 528T154 567Q154 589 146 600T125 612Q95 612 95 566V551H20V570Q20 617 48 646T124 675Q172 675 201 648Z" />
<glyph unicode="&#xb4;" glyph-name="acute" horiz-adv-x="251" d="M44 543L123 665H234V661L135 543H44Z" />
<glyph unicode="&#xb5;" glyph-name="uni00B5" horiz-adv-x="461" d="M307 59H302Q285 28 259 9T198 -11Q180 -11 161 -4V-159H51V484H161V175Q161 129 177 109T225 89Q257 89 278 116T300 184V484H410V0H318L307 59Z" />
<glyph unicode="&#xb6;" glyph-name="paragraph" horiz-adv-x="419" d="M368 -159H294V561H245V-159H172V230Q128 235 93 263T37 335T17 430Q17 485 40 530T104 603T193 630H413V561H368V-159Z" />
<glyph unicode="&#xb7;" glyph-name="middot" horiz-adv-x="210" d="M49 376H160V256H49V376Z" />
<glyph unicode="&#xb8;" glyph-name="cedilla" horiz-adv-x="251" d="M170 -32T190 -47T210 -93Q210 -134 180 -150T110 -167Q72 -167 33 -160V-115H99Q115 -115 123 -110T131 -93Q131 -81 124 -76T100 -71H70L80 10H142L138 -30Q170 -32 190 -47Z" />
<glyph unicode="&#xb9;" glyph-name="uni00B9" horiz-adv-x="251" d="M233 294H30V358H99V572H29V623Q51 626 82 638T135 665H172V358H233V294Z" />
<glyph unicode="&#xba;" glyph-name="ordmasculine" horiz-adv-x="275" d="M206 675T238 634T270 503Q270 416 238 375T139 333Q73 333 41 374T9 503Q9 592 41 633T139 675Q206 675 238 634ZM114 607T103 585T92 516V492Q92 445 103 423T139 400Q166 400 177 422T188
492V516Q188 562 177 584T139 607Q114 607 103 585Z" />
<glyph unicode="&#xbb;" glyph-name="guillemotright" horiz-adv-x="419" d="M25 115L124 300L25 484H108L234 300L108 115H25ZM193 115L292 300L193 484H277L401 300L277 115H193Z" />
<glyph unicode="&#xbc;" glyph-name="onequarter" horiz-adv-x="629" d="M484 642H544L181 -11H120L484 642ZM233 260H30V323H99V538H29V590Q51 592 82 603T135 630H172V323H233V260ZM518 318T488 249T434 146H496V179Q508 199 523 237T544 300H569V146H607V82H569V0H496V82H365V138Q392
187 416 251T459 381H531Q518 318 488 249Z" />
<glyph unicode="&#xbd;" glyph-name="onehalf" horiz-adv-x="629" d="M479 642H540L177 -11H114L479 642ZM233 260H30V323H99V538H29V590Q51 592 82 603T135 630H172V323H233V260ZM551 381T579 357T607 282Q607 240 587 206T529 127Q515 111 509 103Q499 92 483
68H609V0H391V17Q391 56 408 85T461 155Q498 198 514 224T531 282Q531 296 525 306T502 316Q486 316 478 302T470 265V240H397Q396 242 395 249T394 265Q394 323 425 352T504 381Q551 381 579 357Z" />
<glyph unicode="&#xbe;" glyph-name="threequarters" horiz-adv-x="629" d="M186 642T214 615T243 537Q243 507 232 488T197 454Q220 443 235 420T250 363Q250 313 220 284T139 254Q86 254 57 284T27 368V383H102V367Q102 317 138 317Q155 317 164 329T174 367Q174
420 135 420H112V482H136Q150 482 158 495T167 535Q167 578 138 578Q108 578 108 532V518H33V537Q33 584 62 613T138 642Q186 642 214 615ZM479 642H541L178 -11H115L479 642ZM515 318T485 249T432 146H494V179Q506 200 521 238T542 300H567V146H605V82H567V0H494V82H362V138Q415
232 456 381H528Q515 318 485 249Z" />
<glyph unicode="&#xbf;" glyph-name="questiondown" horiz-adv-x="461" d="M153 484H280V358H153V484ZM275 227T262 202T221 144Q192 109 178 83T164 16Q164 -9 178 -34T229 -59Q269 -59 284 -29T300 36Q300 47 299 53T298 61H415Q415 58 416 49T417 29Q417 -53
367 -105T222 -158Q140 -158 92 -113T44 5Q44 65 61 100T111 173Q135 201 147 223T159 277V303H275V263Q275 227 262 202Z" />
<glyph unicode="&#xc0;" glyph-name="Agrave" horiz-adv-x="544" d="M244 691L146 809L147 812H257L336 691H244ZM423 0L385 124H152L114 0H0L203 630H340L543 0H423ZM265 516T260 487T249 440L184 229H353L289 440Q283 460 277 488T270 525H266Q265 516 260 487Z" />
<glyph unicode="&#xc1;" glyph-name="Aacute" horiz-adv-x="544" d="M300 691H209L288 812H398L399 809L300 691ZM423 0L385 124H152L114 0H0L203 630H340L543 0H423ZM265 516T260 487T249 440L184 229H353L289 440Q283 460 277 488T270 525H266Q265 516 260 487Z" />
<glyph unicode="&#xc2;" glyph-name="Acircumflex" horiz-adv-x="544" d="M313 687L272 751L231 687H149L228 812H318L396 687H313ZM423 0L385 124H152L114 0H0L203 630H340L543 0H423ZM265 516T260 487T249 440L184 229H353L289 440Q283 460 277 488T270 525H266Q265
516 260 487Z" />
<glyph unicode="&#xc3;" glyph-name="Atilde" horiz-adv-x="544" d="M426 768T403 734T336 700Q321 700 309 704T273 717Q254 725 241 729T214 733Q198 733 190 726T178 700H118Q118 743 141 777T208 812Q223 812 238 808T272 794Q291 786 304 782T330 778Q345
778 354 785T366 812H426Q426 768 403 734ZM423 0L385 124H152L114 0H0L203 630H340L543 0H423ZM265 516T260 487T249 440L184 229H353L289 440Q283 460 277 488T270 525H266Q265 516 260 487Z" />
<glyph unicode="&#xc4;" glyph-name="Adieresis" horiz-adv-x="544" d="M147 711V812H238V711H147ZM306 711V812H399V711H306ZM423 0L385 124H152L114 0H0L203 630H340L543 0H423ZM265 516T260 487T249 440L184 229H353L289 440Q283 460 277 488T270 525H266Q265
516 260 487Z" />
<glyph unicode="&#xc5;" glyph-name="Aring" horiz-adv-x="544" d="M309 839T335 813T361 751Q361 714 335 688T272 662Q236 662 210 688T184 751Q184 788 210 813T272 839Q309 839 335 813ZM255 794T243 782T230 751Q230 733 242 721T272 709Q289 709 301 721T314
751Q314 769 302 781T272 794Q255 794 243 782ZM423 0L385 124H152L114 0H0L203 630H340L543 0H423ZM265 516T260 487T249 440L184 229H353L289 440Q283 460 277 488T270 525H266Q265 516 260 487Z" />
<glyph unicode="&#xc6;" glyph-name="AE" horiz-adv-x="754" d="M402 526L440 375H669V270H465L505 105H714V0H411L381 124H148L102 0H-7L234 630H709V526H402ZM284 494T282 485T275 468L186 229H356L300 468L291 502H288Q284 494 282 485Z" />
<glyph unicode="&#xc7;" glyph-name="Ccedilla" horiz-adv-x="544" d="M387 642T450 581T514 396H393Q393 467 363 504T282 541Q217 541 185 488T153 338V292Q153 195 186 143T286 90Q339 90 369 126T399 234H514Q514 121 457 59T304 -10L302 -30Q334 -32 354
-47T374 -93Q374 -134 344 -150T274 -167Q234 -167 197 -160V-115H262Q295 -115 295 -93Q295 -81 288 -76T264 -71H234L241 -8Q139 4 85 84T31 315Q31 479 96 560T282 642Q387 642 450 581Z" />
<glyph unicode="&#xc8;" glyph-name="Egrave" horiz-adv-x="503" d="M224 691L124 809L125 812H235L314 691H224ZM173 526V375H416V270H173V105H463V0H55V630H457V526H173Z" />
<glyph unicode="&#xc9;" glyph-name="Eacute" horiz-adv-x="503" d="M280 691H188L267 812H378L379 809L280 691ZM173 526V375H416V270H173V105H463V0H55V630H457V526H173Z" />
<glyph unicode="&#xca;" glyph-name="Ecircumflex" horiz-adv-x="503" d="M252 751L210 687H128L207 812H297L375 687H292L252 751ZM457 630V526H173V375H416V270H173V105H463V0H55V630H457Z" />
<glyph unicode="&#xcb;" glyph-name="Edieresis" horiz-adv-x="503" d="M125 711V812H217V711H125ZM286 711V812H378V711H286ZM173 526V375H416V270H173V105H463V0H55V630H457V526H173Z" />
<glyph unicode="&#xcc;" glyph-name="Igrave" horiz-adv-x="210" d="M77 691L-22 809L-21 812H89L168 691H77ZM46 0V630H163V0H46Z" />
<glyph unicode="&#xcd;" glyph-name="Iacute" horiz-adv-x="210" d="M133 691H42L121 812H231L232 809L133 691ZM46 0V630H163V0H46Z" />
<glyph unicode="&#xce;" glyph-name="Icircumflex" horiz-adv-x="210" d="M106 751L64 687H-20L60 812H151L229 687H147L106 751ZM46 630H163V0H46V630Z" />
<glyph unicode="&#xcf;" glyph-name="Idieresis" horiz-adv-x="210" d="M-21 711V812H71V711H-21ZM139 711V812H232V711H139ZM46 0V630H163V0H46Z" />
<glyph unicode="&#xd0;" glyph-name="Eth" horiz-adv-x="544" d="M55 630H260Q380 630 446 552T513 324Q513 165 447 83T260 0H55V287H9V365H55V630ZM288 365V287H173V105H250Q317 105 354 155T392 302V347Q392 435 355 480T250 526H173V365H288Z" />
<glyph unicode="&#xd1;" glyph-name="Ntilde" horiz-adv-x="544" d="M426 768T403 734T336 700Q321 700 309 704T273 717Q254 725 241 729T214 733Q198 733 190 726T178 700H118Q118 743 141 777T208 812Q223 812 238 808T272 794Q291 786 304 782T330 778Q345
778 354 785T366 812H426Q426 768 403 734ZM385 0L189 347L161 407L157 404Q157 398 158 383T159 352V0H55V630H159L354 283Q360 273 370 253T383 225L385 227V280V630H489V0H385Z" />
<glyph unicode="&#xd2;" glyph-name="Ograve" horiz-adv-x="587" d="M265 691L166 809L167 812H278L357 691H265ZM418 642T486 561T555 315Q555 152 487 71T293 -11Q168 -11 100 70T31 315Q31 478 99 560T293 642Q418 642 486 561ZM224 541T189 488T153 338V292Q153
196 188 143T293 90Q362 90 398 143T434 292V338Q434 434 398 487T293 541Q224 541 189 488Z" />
<glyph unicode="&#xd3;" glyph-name="Oacute" horiz-adv-x="587" d="M321 691H230L309 812H420L421 809L321 691ZM418 642T486 561T555 315Q555 152 487 71T293 -11Q168 -11 100 70T31 315Q31 478 99 560T293 642Q418 642 486 561ZM224 541T189 488T153 338V292Q153
196 188 143T293 90Q362 90 398 143T434 292V338Q434 434 398 487T293 541Q224 541 189 488Z" />
<glyph unicode="&#xd4;" glyph-name="Ocircumflex" horiz-adv-x="587" d="M294 751L253 687H171L250 812H339L417 687H335L294 751ZM418 642T486 561T555 315Q555 152 487 71T293 -11Q168 -11 100 70T31 315Q31 478 99 560T293 642Q418 642 486 561ZM224 541T189
488T153 338V292Q153 196 188 143T293 90Q362 90 398 143T434 292V338Q434 434 398 487T293 541Q224 541 189 488Z" />
<glyph unicode="&#xd5;" glyph-name="Otilde" horiz-adv-x="587" d="M448 768T425 734T358 700Q343 700 331 704T295 717Q276 725 263 729T236 733Q220 733 212 726T201 700H138Q138 743 161 777T230 812Q245 812 257 808T293 795Q329 778 353 778Q383 778 387
812H448Q448 768 425 734ZM418 642T486 561T555 315Q555 152 487 71T293 -11Q168 -11 100 70T31 315Q31 478 99 560T293 642Q418 642 486 561ZM224 541T189 488T153 338V292Q153 196 188 143T293 90Q362 90 398 143T434 292V338Q434 434 398 487T293 541Q224 541
189 488Z" />
<glyph unicode="&#xd6;" glyph-name="Odieresis" horiz-adv-x="587" d="M167 711V812H259V711H167ZM329 711V812H420V711H329ZM418 642T486 561T555 315Q555 152 487 71T293 -11Q168 -11 100 70T31 315Q31 478 99 560T293 642Q418 642 486 561ZM224 541T189 488T153
338V292Q153 196 188 143T293 90Q362 90 398 143T434 292V338Q434 434 398 487T293 541Q224 541 189 488Z" />
<glyph unicode="&#xd7;" glyph-name="multiply" horiz-adv-x="440" d="M292 235L426 102L361 35L226 171L93 35L27 102L161 235L27 369L93 436L226 302L361 436L426 369L292 235Z" />
<glyph unicode="&#xd8;" glyph-name="Oslash" horiz-adv-x="587" d="M555 478T555 315Q555 152 487 71T293 -11Q210 -11 151 25L114 -34H36L101 69Q31 153 31 315Q31 478 99 560T293 642Q377 642 436 605L473 665H551L486 561Q555 478 555 315ZM224 541T189 488T153
338V292Q153 223 170 178L376 512Q344 541 293 541Q224 541 189 488ZM242 90T293 90Q362 90 398 143T434 292V338Q434 405 416 450L210 119Q242 90 293 90Z" />
<glyph unicode="&#xd9;" glyph-name="Ugrave" horiz-adv-x="544" d="M244 691L146 809L147 812H257L336 691H244ZM489 96T432 43T272 -11Q169 -11 113 42T56 198V630H174V202Q174 148 199 119T272 90Q320 90 345 119T371 202V630H489V198Q489 96 432 43Z" />
<glyph unicode="&#xda;" glyph-name="Uacute" horiz-adv-x="544" d="M300 691H209L288 812H398L399 809L300 691ZM489 96T432 43T272 -11Q169 -11 113 42T56 198V630H174V202Q174 148 199 119T272 90Q320 90 345 119T371 202V630H489V198Q489 96 432 43Z" />
<glyph unicode="&#xdb;" glyph-name="Ucircumflex" horiz-adv-x="544" d="M313 687L272 751L231 687H149L228 812H318L396 687H313ZM489 96T432 43T272 -11Q169 -11 113 42T56 198V630H174V202Q174 148 199 119T272 90Q320 90 345 119T371 202V630H489V198Q489
96 432 43Z" />
<glyph unicode="&#xdc;" glyph-name="Udieresis" horiz-adv-x="544" d="M147 711V812H238V711H147ZM306 711V812H399V711H306ZM489 96T432 43T272 -11Q169 -11 113 42T56 198V630H174V202Q174 148 199 119T272 90Q320 90 345 119T371 202V630H489V198Q489 96 432 43Z" />
<glyph unicode="&#xdd;" glyph-name="Yacute" horiz-adv-x="503" d="M280 691H188L267 812H378L379 809L280 691ZM311 0H193V238L0 630H124L253 354H257L385 630H503L311 238V0Z" />
<glyph unicode="&#xde;" glyph-name="Thorn" horiz-adv-x="503" d="M281 519Q376 519 427 467T478 329Q478 240 424 186T281 132H173V0H55V630H173V519H281ZM173 236H268Q311 236 334 260T357 329Q357 368 334 391T268 414H173V236Z" />
<glyph unicode="&#xdf;" glyph-name="germandbls" horiz-adv-x="461" d="M314 676T365 630T416 503Q416 458 392 419T329 363V360Q375 343 405 297T435 197Q435 139 411 94T344 25T251 0H191V94H239Q274 94 298 124T323 198Q323 239 299 268T239 297H191V401H236Q264
401 284 430T305 501Q305 538 286 560T229 582Q192 582 170 557T147 486V0H36V478Q36 579 90 627T234 676Q314 676 365 630Z" />
<glyph unicode="&#xe0;" glyph-name="agrave" horiz-adv-x="419" d="M172 543L73 661L74 665H184L263 543H172ZM282 495T323 458T364 353V114Q364 98 371 90T390 82H412V4Q386 -11 346 -11Q314 -11 292 6T261 52H257Q234 20 207 5T134 -11Q88 -11 50 19T12 125Q12
218 75 256T253 294V344Q253 373 242 389T202 405Q172 405 159 390T145 354V340H36Q35 345 35 361Q35 421 80 458T200 495Q282 495 323 458ZM126 214T126 135Q126 81 180 81Q217 81 235 110T253 186V214Q126 214 126 135Z" />
<glyph unicode="&#xe1;" glyph-name="aacute" horiz-adv-x="419" d="M227 543H136L215 665H326L327 661L227 543ZM282 495T323 458T364 353V114Q364 98 371 90T390 82H412V4Q386 -11 346 -11Q314 -11 292 6T261 52H257Q234 20 207 5T134 -11Q88 -11 50 19T12 125Q12
218 75 256T253 294V344Q253 373 242 389T202 405Q172 405 159 390T145 354V340H36Q35 345 35 361Q35 421 80 458T200 495Q282 495 323 458ZM126 214T126 135Q126 81 180 81Q217 81 235 110T253 186V214Q126 214 126 135Z" />
<glyph unicode="&#xe2;" glyph-name="acircumflex" horiz-adv-x="419" d="M200 604L158 541H76L155 665H245L323 541H241L200 604ZM282 495T323 458T364 353V114Q364 98 371 90T390 82H412V4Q386 -11 346 -11Q314 -11 292 6T261 52H257Q234 20 207 5T134 -11Q88
-11 50 19T12 125Q12 218 75 256T253 294V344Q253 373 242 389T202 405Q172 405 159 390T145 354V340H36Q35 345 35 361Q35 421 80 458T200 495Q282 495 323 458ZM126 214T126 135Q126 81 180 81Q217 81 235 110T253 186V214Q126 214 126 135Z" />
<glyph unicode="&#xe3;" glyph-name="atilde" horiz-adv-x="419" d="M354 621T331 587T263 552Q248 552 234 556T200 570Q164 587 141 587Q110 587 106 552H45Q45 596 68 630T135 665Q150 665 163 661T199 647Q235 630 258 630Q273 630 281 638T293 665H354Q354
621 331 587ZM282 495T323 458T364 353V114Q364 98 371 90T390 82H412V4Q386 -11 346 -11Q314 -11 292 6T261 52H257Q234 20 207 5T134 -11Q88 -11 50 19T12 125Q12 218 75 256T253 294V344Q253 373 242 389T202 405Q172 405 159 390T145 354V340H36Q35 345 35
361Q35 421 80 458T200 495Q282 495 323 458ZM126 214T126 135Q126 81 180 81Q217 81 235 110T253 186V214Q126 214 126 135Z" />
<glyph unicode="&#xe4;" glyph-name="adieresis" horiz-adv-x="419" d="M74 565V665H165V565H74ZM234 565V665H326V565H234ZM282 495T323 458T364 353V114Q364 98 371 90T390 82H412V4Q386 -11 346 -11Q314 -11 292 6T261 52H257Q234 20 207 5T134 -11Q88 -11
50 19T12 125Q12 218 75 256T253 294V344Q253 373 242 389T202 405Q172 405 159 390T145 354V340H36Q35 345 35 361Q35 421 80 458T200 495Q282 495 323 458ZM126 214T126 135Q126 81 180 81Q217 81 235 110T253 186V214Q126 214 126 135Z" />
<glyph unicode="&#xe5;" glyph-name="aring" horiz-adv-x="419" d="M237 693T262 667T288 604Q288 567 263 542T200 516Q164 516 138 541T111 604Q111 641 137 667T200 693Q237 693 262 667ZM182 646T170 634T157 604Q157 586 169 574T200 562Q217 562 229 574T241
604Q241 622 229 634T200 646Q182 646 170 634ZM282 495T323 458T364 353V114Q364 98 371 90T390 82H412V4Q386 -11 346 -11Q314 -11 292 6T261 52H257Q234 20 207 5T134 -11Q88 -11 50 19T12 125Q12 218 75 256T253 294V344Q253 373 242 389T202 405Q172 405 159
390T145 354V340H36Q35 345 35 361Q35 421 80 458T200 495Q282 495 323 458ZM126 214T126 135Q126 81 180 81Q217 81 235 110T253 186V214Q126 214 126 135Z" />
<glyph unicode="&#xe6;" glyph-name="ae" horiz-adv-x="670" d="M548 495T591 433T634 241V214H389Q390 146 407 113T464 79Q492 79 508 103T525 171H634Q634 81 588 35T464 -11Q365 -11 319 54Q290 23 256 6T174 -11Q121 -11 78 19T34 125Q34 218 96 256T274
294V344Q274 373 263 389T224 405Q193 405 179 390T165 354V340H58Q57 345 57 361Q57 421 102 458T220 495Q302 495 344 448Q389 495 460 495Q548 495 591 433ZM426 405T409 377T390 294H519Q519 347 504 376T460 405Q426 405 409 377ZM218 214T183 196T147 135Q147
81 202 81Q239 81 256 110T274 186V214Q218 214 183 196Z" />
<glyph unicode="&#xe7;" glyph-name="ccedilla" horiz-adv-x="419" d="M297 495T341 448T386 302H274Q274 401 217 401Q183 401 168 366T153 259V225Q153 152 168 117T220 82Q250 82 263 106T277 182H386Q386 90 348 43T241 -10L239 -30Q272 -32 292 -47T312 -93Q312
-134 282 -150T211 -167Q173 -167 134 -160V-115H200Q233 -115 233 -93Q233 -81 226 -76T202 -71H172L179 -7Q106 4 72 65T37 241Q37 371 82 433T217 495Q297 495 341 448Z" />
<glyph unicode="&#xe8;" glyph-name="egrave" horiz-adv-x="419" d="M182 543L83 661V665H194L274 543H182ZM302 495T345 433T389 241V214H144Q145 146 161 113T218 79Q247 79 263 103T280 171H389Q389 81 342 35T218 -11Q28 -11 28 241Q28 495 214 495Q302 495
345 433ZM180 405T164 377T145 294H274Q274 348 259 376T214 405Q180 405 164 377Z" />
<glyph unicode="&#xe9;" glyph-name="eacute" horiz-adv-x="419" d="M237 543H147L226 665H336L337 661L237 543ZM302 495T345 433T389 241V214H144Q145 146 161 113T218 79Q247 79 263 103T280 171H389Q389 81 342 35T218 -11Q28 -11 28 241Q28 495 214 495Q302
495 345 433ZM180 405T164 377T145 294H274Q274 348 259 376T214 405Q180 405 164 377Z" />
<glyph unicode="&#xea;" glyph-name="ecircumflex" horiz-adv-x="419" d="M210 604L170 541H86L165 665H256L334 541H251L210 604ZM302 495T345 433T389 241V214H144Q145 146 161 113T218 79Q247 79 263 103T280 171H389Q389 81 342 35T218 -11Q28 -11 28 241Q28
495 214 495Q302 495 345 433ZM180 405T164 377T145 294H274Q274 348 259 376T214 405Q180 405 164 377Z" />
<glyph unicode="&#xeb;" glyph-name="edieresis" horiz-adv-x="419" d="M83 565V665H176V565H83ZM244 565V665H337V565H244ZM302 495T345 433T389 241V214H144Q145 146 161 113T218 79Q247 79 263 103T280 171H389Q389 81 342 35T218 -11Q28 -11 28 241Q28 495
214 495Q302 495 345 433ZM180 405T164 377T145 294H274Q274 348 259 376T214 405Q180 405 164 377Z" />
<glyph unicode="&#xec;" glyph-name="igrave" horiz-adv-x="210" d="M77 543L-22 661L-21 665H89L168 543H77ZM50 0V484H160V0H50Z" />
<glyph unicode="&#xed;" glyph-name="iacute" horiz-adv-x="210" d="M133 543H42L121 665H231L232 661L133 543ZM50 0V484H160V0H50Z" />
<glyph unicode="&#xee;" glyph-name="icircumflex" horiz-adv-x="210" d="M106 604L64 541H-20L60 665H151L229 541H147L106 604ZM50 484H160V0H50V484Z" />
<glyph unicode="&#xef;" glyph-name="idieresis" horiz-adv-x="210" d="M-21 565V665H71V565H-21ZM139 565V665H232V565H139ZM50 0V484H160V0H50Z" />
<glyph unicode="&#xf0;" glyph-name="eth" horiz-adv-x="461" d="M250 654T283 621L402 631V565L334 558Q424 427 424 241Q424 112 376 51T231 -11Q133 -11 85 50T37 241Q37 364 81 429T205 495Q226 495 250 488L253 491Q239 517 218 547L99 537V604L168 610Q156
624 134 646L120 661L122 665H237Q250 654 283 621ZM189 401T171 366T153 259V225Q153 152 171 117T231 82Q273 82 291 117T309 225V259Q309 331 291 366T231 401Q189 401 171 366Z" />
<glyph unicode="&#xf1;" glyph-name="ntilde" horiz-adv-x="461" d="M385 621T362 587T294 552Q279 552 265 556T231 570Q195 587 173 587Q141 587 137 552H76Q76 596 99 630T166 665Q181 665 196 661T230 647Q249 639 262 635T289 630Q320 630 324 665H385Q385
621 362 587ZM341 495T375 458T410 339V0H300V309Q300 354 284 374T236 394Q204 394 183 367T161 297V0H51V484H142L154 424H159Q180 456 210 475T282 495Q341 495 375 458Z" />
<glyph unicode="&#xf2;" glyph-name="ograve" horiz-adv-x="461" d="M202 543L103 661L104 665H214L293 543H202ZM329 495T376 433T424 241Q424 112 376 51T231 -11Q133 -11 85 50T37 241Q37 371 85 433T231 495Q329 495 376 433ZM189 401T171 366T153 259V225Q153
152 171 117T231 82Q273 82 291 117T309 225V259Q309 331 291 366T231 401Q189 401 171 366Z" />
<glyph unicode="&#xf3;" glyph-name="oacute" horiz-adv-x="461" d="M258 543H167L246 665H357L358 661L258 543ZM329 495T376 433T424 241Q424 112 376 51T231 -11Q133 -11 85 50T37 241Q37 371 85 433T231 495Q329 495 376 433ZM189 401T171 366T153 259V225Q153
152 171 117T231 82Q273 82 291 117T309 225V259Q309 331 291 366T231 401Q189 401 171 366Z" />
<glyph unicode="&#xf4;" glyph-name="ocircumflex" horiz-adv-x="461" d="M231 604L189 541H107L186 665H276L354 541H271L231 604ZM329 495T376 433T424 241Q424 112 376 51T231 -11Q133 -11 85 50T37 241Q37 371 85 433T231 495Q329 495 376 433ZM189 401T171
366T153 259V225Q153 152 171 117T231 82Q273 82 291 117T309 225V259Q309 331 291 366T231 401Q189 401 171 366Z" />
<glyph unicode="&#xf5;" glyph-name="otilde" horiz-adv-x="461" d="M385 621T362 587T294 552Q279 552 265 556T231 570Q195 587 173 587Q141 587 137 552H76Q76 596 99 630T166 665Q181 665 196 661T230 647Q249 639 262 635T289 630Q320 630 324 665H385Q385
621 362 587ZM329 495T376 433T424 241Q424 112 376 51T231 -11Q133 -11 85 50T37 241Q37 371 85 433T231 495Q329 495 376 433ZM189 401T171 366T153 259V225Q153 152 171 117T231 82Q273 82 291 117T309 225V259Q309 331 291 366T231 401Q189 401 171 366Z" />
<glyph unicode="&#xf6;" glyph-name="odieresis" horiz-adv-x="461" d="M104 565V665H196V565H104ZM265 565V665H357V565H265ZM329 495T376 433T424 241Q424 112 376 51T231 -11Q133 -11 85 50T37 241Q37 371 85 433T231 495Q329 495 376 433ZM189 401T171 366T153
259V225Q153 152 171 117T231 82Q273 82 291 117T309 225V259Q309 331 291 366T231 401Q189 401 171 366Z" />
<glyph unicode="&#xf7;" glyph-name="divide" horiz-adv-x="504" d="M204 432H300V330H204V432ZM30 282H473V186H30V282ZM204 138H300V37H204V138Z" />
<glyph unicode="&#xf8;" glyph-name="oslash" horiz-adv-x="461" d="M424 377T424 241Q424 112 376 51T231 -11Q178 -11 137 8L116 -29H48L89 46Q37 109 37 241Q37 371 85 433T231 495Q284 495 322 475L343 513H412L371 439Q424 377 424 241ZM189 401T171 366T153
259V225Q153 202 155 168L274 387Q257 401 231 401Q189 401 171 366ZM203 82T231 82Q273 82 291 117T309 225V259Q309 283 305 317L186 98Q203 82 231 82Z" />
<glyph unicode="&#xf9;" glyph-name="ugrave" horiz-adv-x="461" d="M202 543L103 661L104 665H214L293 543H202ZM318 0L307 59H302Q281 28 250 9T179 -11Q119 -11 85 26T51 145V484H161V175Q161 129 177 109T225 89Q257 89 278 116T300 184V484H410V0H318Z" />
<glyph unicode="&#xfa;" glyph-name="uacute" horiz-adv-x="461" d="M258 543H167L246 665H357L358 661L258 543ZM318 0L307 59H302Q281 28 250 9T179 -11Q119 -11 85 26T51 145V484H161V175Q161 129 177 109T225 89Q257 89 278 116T300 184V484H410V0H318Z" />
<glyph unicode="&#xfb;" glyph-name="ucircumflex" horiz-adv-x="461" d="M231 604L189 541H107L186 665H276L354 541H271L231 604ZM307 59H302Q281 28 250 9T179 -11Q119 -11 85 26T51 145V484H161V175Q161 129 177 109T225 89Q257 89 278 116T300 184V484H410V0H318L307
59Z" />
<glyph unicode="&#xfc;" glyph-name="udieresis" horiz-adv-x="461" d="M104 565V665H196V565H104ZM265 565V665H357V565H265ZM318 0L307 59H302Q281 28 250 9T179 -11Q119 -11 85 26T51 145V484H161V175Q161 129 177 109T225 89Q257 89 278 116T300 184V484H410V0H318Z" />
<glyph unicode="&#xfd;" glyph-name="yacute" horiz-adv-x="419" d="M237 543H147L226 665H336L337 661L237 543ZM258 -64T218 -115T112 -167Q84 -167 63 -164T41 -159V-75H90Q116 -75 135 -57T164 0L4 484H121L193 257Q204 222 211 170L218 131H223L229 170Q237
228 245 256L305 484H416L283 25Q258 -64 218 -115Z" />
<glyph unicode="&#xfe;" glyph-name="thorn" horiz-adv-x="461" d="M341 495T382 432T423 241Q423 115 382 52T274 -11Q237 -11 208 5T165 50H161V-159H51V665H161V429Q179 461 206 478T267 495Q341 495 382 432ZM308 259Q308 327 291 360T234 394Q195 394 178
360T161 259V226Q161 158 178 124T234 89Q273 89 290 123T308 225V259Z" />
<glyph unicode="&#xff;" glyph-name="ydieresis" horiz-adv-x="419" d="M83 565V665H176V565H83ZM244 565V665H337V565H244ZM258 -64T218 -115T112 -167Q84 -167 63 -164T41 -159V-75H90Q116 -75 135 -57T164 0L4 484H121L193 257Q204 222 211 170L218 131H223L229
170Q237 228 245 256L305 484H416L283 25Q258 -64 218 -115Z" />
<glyph unicode="&#x2013;" glyph-name="endash" horiz-adv-x="419" d="M0 293H419V203H0V293Z" />
<glyph unicode="&#x2014;" glyph-name="emdash" horiz-adv-x="754" d="M0 293H754V203H0V293Z" />
<glyph unicode="&#x2018;" glyph-name="quoteleft" horiz-adv-x="210" d="M168 361H42V476L102 630H168L118 488H168V361Z" />
<glyph unicode="&#x2019;" glyph-name="quoteright" horiz-adv-x="210" d="M42 361L92 504H42V630H168V516L107 361H42Z" />
<glyph unicode="&#x201a;" glyph-name="quotesinglbase" horiz-adv-x="210" d="M42 -144L92 0H42V126H168V11L107 -144H42Z" />
<glyph unicode="&#x201c;" glyph-name="quotedblleft" horiz-adv-x="376" d="M167 488V361H41V476L101 630H167L116 488H167ZM336 488V361H209V476L269 630H336L285 488H336Z" />
<glyph unicode="&#x201d;" glyph-name="quotedblright" horiz-adv-x="376" d="M42 361L92 504H42V630H168V516L107 361H42ZM210 361L260 504H210V630H337V516L276 361H210Z" />
<glyph unicode="&#x201e;" glyph-name="quotedblbase" horiz-adv-x="376" d="M42 -144L92 0H42V126H168V11L107 -144H42ZM210 -144L260 0H210V126H337V11L276 -144H210Z" />
<glyph unicode="&#x2022;" glyph-name="bullet" horiz-adv-x="264" d="M177 430T209 397T242 316Q242 270 210 236T131 202Q86 202 54 236T21 316Q21 363 53 396T131 430Q177 430 209 397Z" />
<glyph unicode="&#x2039;" glyph-name="guilsinglleft" horiz-adv-x="251" d="M142 115L18 300L142 484H226L127 300L226 115H142Z" />
<glyph unicode="&#x203a;" glyph-name="guilsinglright" horiz-adv-x="251" d="M25 115L124 300L25 484H108L234 300L108 115H25Z" />
</font>
</defs>
</svg>
