<?xml version="1.0" standalone="no"?>
<!DOCTYPE svg PUBLIC "-//W3C//DTD SVG 1.1//EN" "http://www.w3.org/Graphics/SVG/1.1/DTD/svg11.dtd">
<svg xmlns="http://www.w3.org/2000/svg">
<defs >
<font id="AveriaLibre" horiz-adv-x="883" ><font-face
    font-family="Averia Libre"
    units-per-em="2048"
    panose-1="2 0 6 3 0 0 0 0 0 4"
    ascent="1952"
    descent="-492"
    alphabetic="0" />
<glyph unicode=" " horiz-adv-x="561" />
<glyph unicode="!" horiz-adv-x="599" d="M479 1430H502Q565 1430 565 1386V1376Q565 1367 473 944T362 460T287 398T232 430V441Q232 464 240 514T260 651T277 778T311 1039T356 1324T400 1409T479 1430ZM361 127Q361 63 325 27T228 -9H216Q123 -9 123 56L120
80V96Q120 164 155 199T245 235H273Q358 235 358 171L361 151V127Z" />
<glyph unicode="&quot;" horiz-adv-x="772" d="M266 1331Q266 1331 269 1375Q269 1449 370 1449H405Q445 1449 445 1425V1419L444 1413Q444 1327 338 1009Q317 945 266 945H242Q217 945 217 969V974L257 1222Q259 1236 259 1242L260 1248L261 1255L265 1312V1325L266
1331ZM703 1450H716Q768 1450 768 1425V1414Q768 1267 661 1010Q634 945 582 945H564Q538 945 538 969V975L539 981Q539 983 547 1034T558 1094L562 1120L565 1133L578 1223L580 1236L585 1306Q585 1399 607 1424T703 1450Z" />
<glyph unicode="#" horiz-adv-x="1230" d="M472 564V556Q472 551 484 551H524L530 552L672 551H690Q723 551 734 567T765 656T801 769T817 837V842Q817 852 794 852H782L776 851H765L753 850H742L719 848H684L667 849H656L650 850H639L628 851H599Q587 849 582
849Q559 849 548 821Q472 631 472 564ZM694 63T650 63T605 103T637 254T670 394T561 423T426 382Q418 370 384 266T329 125Q296 67 250 67T203 113Q203 129 225 210T247 338T213 411L192 421L165 427L139 434Q103 450 103 484T147 539Q165 548 235 556T322 582T367
687T395 801Q395 843 320 846Q207 851 207 895T254 962Q279 974 350 981T452 1024T522 1180T568 1310Q588 1341 644 1341Q684 1341 684 1290T636 1094L616 1027Q616 997 632 987T739 976T852 998Q862 1008 904 1135T960 1286Q990 1334 1047 1334Q1081 1334 1081
1282Q1081 1275 1061 1196T1040 1068T1059 1002L1080 991L1109 986L1139 980Q1190 966 1190 939V918Q1190 881 1138 860Q1130 857 1056 850T964 823T920 716T894 603Q894 569 987 562T1080 508T1039 444Q1021 436 954 428T851 390T781 265L759 199Q730 113 723
103Q694 63 650 63Z" />
<glyph unicode="$" horiz-adv-x="1097" d="M435 1040V1013Q435 960 484 903T572 846H577Q587 846 592 863Q668 1116 668 1239V1244Q668 1255 659 1255H649Q567 1255 501 1189T435 1040ZM548 141V131Q548 120 559 120H571Q668 120 740 201T813 374V392Q813 451
762 517T659 584H654Q638 584 633 564Q548 252 548 141ZM442 -169H422Q400 -169 389 -107T363 -22T269 29T161 84Q104 134 104 220Q104 263 122 290T174 317T280 244T393 170T462 275Q512 455 512 567Q512 631 420 706T296 844T263 989Q263 1132 363 1237Q438 1315
571 1359Q638 1382 659 1393T710 1458T766 1511Q785 1511 833 1422Q847 1396 973 1329Q1057 1284 1057 1213V1188Q1057 1112 978 1112Q952 1112 896 1151T814 1191Q779 1191 757 1123Q705 964 705 860Q705 818 728 789L842 704Q912 652 951 589T991 427Q991 267
881 149Q808 71 650 14Q556 -20 542 -31T503 -105T442 -169Z" />
<glyph unicode="%" horiz-adv-x="1532" d="M647 1118Q647 1190 619 1232T546 1275H522Q464 1275 406 1200T348 1033L345 1001V970Q348 949 348 924T377 862T452 824H464L470 825Q533 825 588 903T643 1061Q645 1073 645 1080L647 1111V1118ZM1088 128H1107Q1175
128 1234 213T1294 409V447Q1291 468 1291 478Q1291 521 1261 554T1194 588H1176Q1108 588 1050 505T992 339Q990 325 990 320L988 288V281Q988 211 1016 170T1088 128ZM541 1374H572Q675 1374 736 1302T798 1136V1085Q798 1030 770 955T694 827Q585 710 450 710H440Q334
710 269 780T203 959V990Q203 1138 306 1256T541 1374ZM238 59Q238 68 261 101Q485 426 1185 1278Q1262 1372 1323 1372H1340Q1388 1372 1388 1349Q1388 1337 1345 1278Q883 648 440 128Q361 35 300 35T238 59ZM1178 687H1220Q1310 687 1377 620T1444 434L1445
423Q1445 266 1344 142Q1296 82 1227 52T1100 21H1079Q979 21 911 89T843 276V296Q843 444 943 567Q986 620 1053 653T1178 687Z" />
<glyph unicode="&amp;" horiz-adv-x="1428" d="M705 890H714Q783 890 866 985T949 1150V1179Q949 1223 918 1258T840 1294H804Q730 1294 681 1231T631 1099V1064Q631 988 679 916Q696 890 705 890ZM569 126H604Q679 126 774 170T869 250V256Q869 266 733 462T579
659H566Q556 659 501 620T399 508T352 348V339Q352 241 415 184T569 126ZM895 660Q895 612 929 586T1053 559Q1066 559 1094 612T1192 716T1339 766Q1383 766 1383 717T1283 515T1182 275Q1182 251 1225 170T1269 66T1243 43T1166 55T1058 68T847 48Q843 48 734
19T536 -10Q343 -10 240 79T137 321Q137 520 342 683Q475 789 475 845Q474 853 454 922T434 1061Q434 1215 548 1317T806 1419H836Q948 1419 1020 1353T1092 1197T994 937T895 660Z" />
<glyph unicode="&apos;" horiz-adv-x="468" d="M392 1450H416Q465 1450 465 1421L464 1415V1409Q464 1267 357 1010Q330 945 272 945Q234 945 234 970V981L244 1038Q248 1061 262 1143T276 1249L279 1288V1301L280 1313Q280 1401 301 1425T392 1450Z" />
<glyph unicode="(" horiz-adv-x="709" d="M337 299Q337 39 433 -153Q490 -267 490 -295Q490 -340 425 -340Q383 -340 327 -260T218 -30T165 311V376Q165 713 333 1060Q409 1215 535 1364T718 1514T775 1478T706 1364T603 1235Q511 1101 448 933Q337 637 337 299Z" />
<glyph unicode=")" horiz-adv-x="711" d="M434 870Q434 1128 340 1324Q284 1442 284 1464Q284 1512 334 1512T438 1436T547 1211T603 861V797Q603 638 558 454Q472 101 263 -156Q112 -341 45 -341Q-8 -341 -8 -308T58 -200Q227 -13 330 262T434 870Z" />
<glyph unicode="*" horiz-adv-x="903" d="M587 1386H604Q640 1386 640 1341T625 1220Q615 1167 615 1150Q614 1143 616 1143Q622 1143 695 1182T795 1221Q859 1221 859 1170T787 1075Q763 1060 720 1045T677 1021Q677 1000 717 958T757 863T722 810Q661 810 621
829T579 849Q563 849 537 811Q496 752 432 752Q411 752 399 789Q399 791 390 822T380 854T316 856T253 913V927Q253 932 278 974T317 1030T331 1047T315 1064T276 1114T254 1178Q254 1233 319 1233Q345 1233 398 1203T477 1173Q483 1173 490 1249T516 1355T587
1386Z" />
<glyph unicode="+" horiz-adv-x="1102" d="M662 665T840 665T1018 634V618Q1018 550 989 537T807 524T645 516T619 354T599 192Q587 146 530 146H496Q457 146 457 210L473 349Q489 489 489 503T312 518T135 547V562Q135 631 162 645T343 660T505 667T531 823T553
990Q566 1034 623 1034H640Q695 1034 695 984Q695 976 688 915L683 880L662 676Q662 665 840 665Z" />
<glyph unicode="," horiz-adv-x="528" d="M352 179V138Q352 34 258 -119Q215 -190 161 -234T81 -278H75Q37 -278 37 -244Q37 -236 66 -197T122 -118T148 -41T135 35T121 122T157 202T248 232H277Q352 232 352 179Z" />
<glyph unicode="-" horiz-adv-x="793" d="M678 625Q705 625 705 598L704 591V585Q704 495 662 484Q636 477 390 477H320L306 476H201L181 475H174Q134 475 134 497V510Q134 600 171 615Q191 623 441 623L574 625H678Z" />
<glyph unicode="." horiz-adv-x="520" d="M105 102L107 123Q107 176 145 207T238 239H251Q299 239 326 217T353 152V122Q353 66 311 16Q285 -15 219 -15H206Q104 -15 104 81V97L105 102Z" />
<glyph unicode="/" horiz-adv-x="820" d="M786 1475T852 1475T918 1449Q918 1436 872 1347L809 1223Q785 1179 781 1171L691 995Q655 925 646 907T601 819L583 784Q574 766 556 731L313 258Q294 219 286 204T271 175T242 118L170 -22Q106 -155 34 -155H16Q-34
-155 -34 -130Q-34 -124 21 -11Q455 883 733 1380Q786 1475 852 1475Z" />
<glyph unicode="0" horiz-adv-x="1174" d="M308 500V443Q308 284 369 198T518 112Q688 112 804 300Q866 401 902 546T938 817V859Q938 1015 878 1102T719 1190H705Q634 1190 560 1137Q414 1033 344 756Q308 612 308 500ZM115 442V500Q115 503 115 505Q115 641
166 812Q265 1145 516 1273Q615 1324 733 1324H753Q1008 1324 1100 1056Q1129 973 1129 865Q1129 861 1129 858V801Q1129 798 1129 795Q1129 658 1082 502Q986 179 761 46Q645 -23 531 -23H492Q406 -23 334 13Q190 86 143 254Q115 355 115 442Z" />
<glyph unicode="1" horiz-adv-x="866" d="M427 0H369Q273 0 235 27T197 77V91Q197 132 268 201T361 333T421 655T460 983T366 1052T271 1099Q271 1141 370 1190Q604 1307 675 1307Q722 1307 722 1247Q722 1232 706 1153L679 1020L661 920Q655 885 650 861T607
613T569 340T606 231T643 127T584 42T427 0Z" />
<glyph unicode="2" horiz-adv-x="1071" d="M798 867T798 967T747 1114T616 1161T450 1088Q310 969 299 969Q253 969 253 1019T288 1123T386 1224Q511 1315 670 1315T918 1234T1007 1024V995Q1007 861 875 695Q799 600 589 421T379 202T490 162T730 184T863 207Q911
207 911 142T850 38T665 -2H602L571 -1H509L446 1L289 3Q81 3 81 46V67Q81 126 183 230Q207 255 421 451T700 734Q798 867 798 967Z" />
<glyph unicode="3" horiz-adv-x="1061" d="M684 1320Q971 1320 971 1127V1100Q971 955 833 815L770 758Q735 726 735 715T796 662Q931 571 931 391Q931 319 896 236Q860 150 785 84Q621 -61 423 -61H392Q260 -61 171 -9T81 106T154 170Q170 170 269 130T444 89Q559
89 647 173T735 368T680 532T528 606T430 675Q430 712 536 766Q766 882 766 1051Q766 1097 732 1127T628 1158T457 1116T326 1074Q287 1074 287 1124Q287 1207 411 1263T684 1320Z" />
<glyph unicode="4" horiz-adv-x="1104" d="M266 440T266 435T280 430H620Q663 430 674 464Q701 551 713 664T739 850L765 1001V1014L762 1016Q756 1016 636 874T391 586ZM691 -68H651Q604 -68 585 -48T565 17T581 122T598 184Q598 249 473 280Q441 288 299 288T129
298Q85 314 85 366Q85 392 108 427Q222 601 723 1150Q840 1278 906 1278H925Q977 1278 977 1207Q977 1196 936 933T895 561Q895 521 926 468T976 401T995 372Q995 320 961 286T891 239T847 216T831 114T789 -23T691 -68Z" />
<glyph unicode="5" horiz-adv-x="1067" d="M408 839Q408 815 455 815L511 817Q540 818 594 818Q646 818 720 792Q945 711 945 435Q945 337 898 246Q799 51 593 -22Q499 -56 411 -56H380Q288 -56 205 -23Q86 24 86 76Q86 113 111 138T166 163T280 128T419 92Q561
92 654 190T747 440Q747 553 661 617Q594 667 471 667Q452 667 413 663L326 654Q276 654 259 670T242 730T294 989T371 1243T429 1291T641 1301T892 1309T977 1318Q1036 1318 1036 1270Q1036 1192 948 1155Q901 1135 743 1135L590 1138Q511 1138 478 1085Q408 971
408 839Z" />
<glyph unicode="6" horiz-adv-x="1106" d="M305 348Q305 242 368 173T529 104L538 105Q654 105 743 217T833 480Q833 586 779 655T633 724H595Q485 724 396 635T307 414L305 395V348ZM1015 481Q1015 374 970 278Q882 88 693 13Q605 -22 511 -22Q230 -22 148 213Q120
291 120 376V401Q120 576 190 744Q333 1084 613 1241Q784 1337 912 1337H932Q1007 1337 1007 1284Q1007 1254 856 1201T619 1077T483 924T432 806Q432 796 448 796T535 812T676 829Q827 829 921 735T1015 481Z" />
<glyph unicode="7" horiz-adv-x="1036" d="M1062 1256V1239Q1062 1202 1033 1151T920 967Q836 833 698 591T531 290T457 133T394 6Q356 -56 281 -56T205 -2Q205 78 509 576T813 1094Q813 1139 672 1139Q456 1139 374 1111T272 1082Q209 1082 209 1139Q209 1218
251 1262T376 1306H400L424 1305L671 1301Q955 1301 990 1297Q1062 1289 1062 1256Z" />
<glyph unicode="8" horiz-adv-x="1096" d="M704 1258H682Q589 1258 520 1189T451 1039V1004Q453 990 453 983Q453 931 513 871T645 810H659Q732 810 815 911Q872 981 872 1069V1097Q872 1167 822 1212T704 1258ZM806 378V413Q806 507 727 580T559 653T379 553T287
337V303Q287 222 346 163T492 103H528Q629 103 717 184T806 378ZM102 313Q102 415 152 495T292 648T382 729T354 774T298 864T271 997Q271 1155 395 1268T688 1381T954 1309T1051 1099Q1051 1003 1009 936T898 808T829 730Q829 728 880 677T962 569T993 416Q993
229 848 102T499 -25H453Q303 -25 203 65T102 291V313Z" />
<glyph unicode="9" horiz-adv-x="1107" d="M363 791Q363 693 422 629T579 564H589Q716 564 801 656T886 898V927Q886 1039 826 1109T683 1180H646Q538 1180 452 1070T365 847L363 829V791ZM182 813Q182 900 220 995T329 1159T492 1268T678 1308H704Q864 1308 965
1204Q1012 1156 1041 1080T1071 920V870Q1071 712 1002 540T827 240T571 33T304 -47T185 1Q185 35 348 95T590 221T713 359T757 472Q757 482 736 482T654 468Q592 454 520 453Q518 453 516 453Q446 453 381 482Q182 570 182 813Z" />
<glyph unicode=":" horiz-adv-x="566" d="M243 798L245 819Q245 872 282 903T366 934H396Q437 934 463 912T490 840V824Q490 763 448 713Q423 683 365 683H335Q323 686 315 686Q245 686 245 753L242 777V794L243 798ZM119 107L121 128Q121 181 158 212T243 243H272Q284
240 293 240Q363 240 363 173L366 153V128Q366 72 324 22Q298 -9 237 -9H216Q176 -9 149 10T122 57Q120 65 120 69L118 86V102L119 107Z" />
<glyph unicode=";" horiz-adv-x="562" d="M408 918Q444 918 469 897T494 841V804Q491 792 491 784Q491 735 452 703T365 670H340Q328 673 320 673Q254 673 254 748V780L258 809Q258 847 292 881T364 915L388 918H408ZM374 183V155Q374 58 312 -49T166 -224Q132
-252 106 -252L101 -251H95Q62 -251 62 -217Q62 -202 90 -168Q168 -72 168 -7Q168 15 155 52T141 122Q141 250 276 250H290Q374 250 374 183Z" />
<glyph unicode="&lt;" horiz-adv-x="1104" d="M373 591Q373 575 564 458T833 282T911 163T873 102Q850 102 341 420Q152 538 152 575V589Q152 632 227 678Q518 856 903 1043Q986 1083 1001 1083Q1029 1083 1029 1049V1034Q1029 984 947 927T619 744T373 591Z" />
<glyph unicode="=" horiz-adv-x="1171" d="M1082 821V804Q1082 747 1062 727T973 707H227Q187 707 187 737V746Q187 802 207 822T287 843H1043Q1082 843 1082 821ZM233 483H1000Q1039 483 1039 453V444Q1039 385 1018 366T919 347H183Q144 347 144 378V396Q144
443 164 463T233 483Z" />
<glyph unicode="&gt;" horiz-adv-x="1100" d="M249 971T249 1027T275 1083H288Q365 1083 925 691Q995 642 995 604V590Q995 547 919 503Q221 101 146 101Q123 101 123 142Q123 202 206 260T536 444T782 598Q782 609 563 750T311 919Q249 971 249 1027Z" />
<glyph unicode="?" horiz-adv-x="945" d="M734 1107Q734 1163 694 1201T588 1240T431 1186T307 1132Q257 1132 257 1200T361 1333T592 1397H611Q748 1397 839 1320T930 1123V1104Q930 1000 870 914T692 730T544 594T508 530T495 458T486 406Q473 378 419 378Q356
378 356 466T390 612T532 775T666 914Q734 1008 734 1107ZM499 132Q499 69 450 34T358 -1H345Q303 -1 279 23T254 85V107L255 111V120Q257 128 257 133Q257 201 289 233T368 266H404Q416 263 434 263T477 243T502 182V155Q499 140 499 132Z" />
<glyph unicode="@" horiz-adv-x="1753" d="M1021 851H999Q883 851 775 708T667 424V397Q667 339 696 300T765 261H780L787 262Q827 262 863 287Q940 340 995 423Q1109 594 1109 741V772Q1109 851 1021 851ZM1668 752Q1668 523 1536 347Q1474 264 1386 220T1238
175T1134 197L1099 219L1046 258Q1018 258 926 210T758 161T625 212Q547 283 547 391Q547 623 689 781Q831 940 1018 940Q1147 940 1211 922Q1256 909 1256 834Q1256 813 1229 647T1201 424T1221 350T1289 331L1326 344Q1380 372 1432 461T1484 684Q1484 916 1349
1046T1006 1176Q743 1176 555 977Q457 874 403 742T349 477Q349 70 656 -60Q759 -103 857 -103T1062 -81T1201 -59Q1225 -59 1225 -94Q1225 -139 1056 -186Q946 -217 808 -217Q538 -217 355 -50Q273 25 214 147T155 409V468Q155 636 229 806T423 1091T697 1275T1022
1345H1082Q1082 1345 1086 1345Q1192 1345 1308 1298Q1544 1203 1628 981Q1668 877 1668 752Z" />
<glyph unicode="A" horiz-adv-x="1343" d="M916 621V636Q916 698 893 830T861 1032T844 1133T831 1165H828Q826 1165 673 896T519 602Q519 589 644 589H839Q916 589 916 621ZM890 1407Q978 1407 1007 1292Q1021 1236 1064 946T1126 505T1151 322T1191 232T1226
138T1177 58T1067 16Q940 16 940 77Q940 90 948 124T956 218Q956 378 901 426Q871 452 679 452T446 423Q383 377 319 227Q299 181 287 126T262 53Q233 14 156 14H134Q95 14 64 46T33 100Q33 148 79 199Q190 324 400 712T751 1310Q816 1407 890 1407Z" />
<glyph unicode="B" horiz-adv-x="1222" d="M532 798H590L599 799H616Q795 799 889 871T984 1069V1096Q984 1183 921 1230T744 1278H683L674 1277H658L625 1274Q567 1274 554 1234Q481 1015 481 836V821Q481 798 532 798ZM459 136H567L577 137L606 138Q616 139
626 139Q753 139 845 224T938 433V473Q938 573 842 631Q772 673 617 673H607L597 672H568L531 670Q513 668 504 668Q455 668 440 617Q363 355 363 183V166Q363 136 459 136ZM1181 1106Q1181 918 1021 806Q939 748 939 743T959 725L977 715Q1057 667 1097 604Q1137
540 1137 436Q1136 332 1086 248Q941 6 543 5H324Q81 5 81 42Q81 53 119 117T184 292T276 791T342 1234L314 1348Q314 1389 372 1397T631 1406L705 1407Q951 1407 1066 1334T1181 1106Z" />
<glyph unicode="C" horiz-adv-x="1271" d="M132 530V562Q132 713 188 870T345 1149T588 1344T874 1416H905Q1131 1416 1214 1367T1297 1214Q1297 1179 1274 1147T1225 1115T1135 1163T1011 1241T855 1270Q762 1270 666 1213Q463 1092 383 813Q347 686 347 571Q347
246 562 159Q623 134 720 134T1016 232Q1081 264 1105 264Q1142 264 1142 211Q1142 189 1095 134T951 31T703 -16T453 19T280 133Q132 287 132 530Z" />
<glyph unicode="D" horiz-adv-x="1384" d="M1147 813V863Q1147 1056 1044 1163T762 1271H712Q577 1271 553 1214T490 912T409 438T366 189V175Q366 135 506 135H539Q806 135 966 318Q1051 415 1099 550T1147 813ZM81 45Q81 49 139 146Q167 193 187 295Q333 1041
333 1213Q333 1240 320 1276T306 1339Q306 1375 361 1384Q481 1403 705 1403H754Q1179 1403 1310 1099Q1356 992 1356 867V818Q1356 652 1284 484Q1140 150 803 43Q674 2 471 2H304L165 5Q81 5 81 45Z" />
<glyph unicode="E" horiz-adv-x="1187" d="M1193 1323Q1193 1204 1102 1204Q1083 1204 980 1231T725 1258Q626 1258 576 1169Q507 1047 507 901Q507 807 664 807Q716 807 784 822T888 838T948 812T971 758Q971 671 927 632Q901 609 842 609L812 615L783 625L753
633Q696 647 617 647Q481 647 443 576Q395 486 395 256Q395 190 439 166T577 141T731 156T878 197T987 222Q1033 222 1033 171T1009 78T937 18T604 -1H408Q207 -1 146 11T85 56T122 151T184 319T277 785T346 1186T332 1267T317 1336Q317 1370 376 1385T673 1401L712
1402Q751 1403 790 1403L948 1405H1025Q1193 1405 1193 1323Z" />
<glyph unicode="F" horiz-adv-x="1135" d="M856 829Q955 828 955 710Q955 656 934 626T886 596T812 612T738 629Q536 629 480 562Q447 522 422 428T396 196L401 113Q401 15 228 15Q156 15 131 37T106 98T144 199T197 332Q346 1031 346 1210Q346 1239 330 1280T314
1337Q314 1376 382 1385Q516 1402 849 1402L1072 1407H1102Q1186 1407 1186 1324Q1186 1269 1164 1234T1119 1198T1058 1218T964 1254T772 1270T591 1202Q565 1161 541 1044T517 880Q517 793 638 793H641Q687 793 768 811T856 829Z" />
<glyph unicode="G" horiz-adv-x="1361" d="M875 1404H913Q1114 1404 1182 1378Q1298 1334 1298 1235Q1298 1195 1271 1165T1225 1134T1091 1195T862 1257T656 1200Q471 1085 395 862Q349 728 349 613Q349 291 574 196Q645 166 747 166T923 226T998 395Q998 445
950 507T901 587Q901 631 1032 631T1208 608Q1235 594 1235 557Q1235 549 1159 236Q1133 128 1093 89T909 10T707 -30H672Q460 -30 307 123Q224 206 182 321T139 545V584Q139 752 199 898Q323 1198 584 1330Q730 1404 875 1404Z" />
<glyph unicode="H" horiz-adv-x="1458" d="M1135 12Q943 12 943 89Q943 107 973 166T1034 344T1065 549T999 647Q957 655 672 655Q508 655 465 592Q442 558 415 447T387 244L399 118Q399 65 337 36T177 6T79 54Q79 94 123 145T188 291Q340 963 340 1162Q340 1191
320 1239T299 1311T331 1355T444 1377Q614 1377 614 1306Q614 1290 582 1232T526 1069T501 896T535 811T778 793L905 791L947 790Q1070 790 1108 846Q1177 948 1177 1151L1166 1279Q1166 1323 1214 1356T1369 1389H1406Q1476 1389 1476 1345T1438 1249T1386 1145T1297
691T1221 248T1242 149T1264 90Q1264 12 1135 12Z" />
<glyph unicode="I" horiz-adv-x="681" d="M300 -1H262Q160 -1 129 20T97 61V77Q97 83 171 184Q201 225 231 348T310 786T360 1147T336 1231T312 1310T367 1374T519 1398H576Q687 1398 687 1345V1331Q687 1314 619 1228Q595 1198 575 1116T490 675T425 256T447
156T470 82T427 24T300 -1Z" />
<glyph unicode="J" horiz-adv-x="816" d="M509 841T509 967T499 1139T472 1214T455 1276Q455 1335 512 1365T639 1396T749 1364T790 1288V1274Q790 1126 644 469Q598 261 535 118T364 -108T127 -191H107Q39 -191 -4 -158Q-23 -144 -23 -124Q-23 -77 47 -32Q60
-23 134 3T255 70T342 202Q434 409 488 720Q509 841 509 967Z" />
<glyph unicode="K" horiz-adv-x="1313" d="M1114 1387T1213 1387T1313 1344Q1313 1341 1123 1164T820 861Q754 787 754 744Q754 735 959 371Q1030 246 1102 172T1175 34Q1175 -7 1071 -7T919 44Q904 61 804 253T665 508Q595 624 557 624Q490 624 446 512T401 190Q401
100 351 56T223 12T125 25T104 66T140 149T191 289Q338 1087 338 1186Q338 1211 323 1251T307 1294Q307 1343 338 1359T437 1375T546 1351T587 1293Q587 1292 537 1138T487 874Q487 828 514 828Q574 828 774 1013T1015 1259Q1023 1270 1040 1303T1070 1348Q1114
1387 1213 1387Z" />
<glyph unicode="L" horiz-adv-x="1119" d="M505 1398Q635 1398 635 1321Q635 1314 596 1246T536 1082Q388 423 388 219Q388 168 439 149Q473 136 585 136Q698 136 760 154T895 201T1000 231T1032 181Q1032 71 986 32T836 -8H785L759 -7L655 -5Q629 -4 603 -4L496
-2H444Q201 -2 145 10T89 70Q89 95 129 151T188 294Q336 980 336 1167Q336 1188 317 1239T298 1295Q298 1337 334 1367T431 1398H505Z" />
<glyph unicode="M" horiz-adv-x="1751" d="M511 1008Q484 1008 393 579Q363 439 344 290T323 135Q310 106 275 78T182 49Q101 49 101 125L118 166L166 246Q185 287 209 395Q348 1030 348 1233L346 1275L344 1310Q344 1339 374 1359Q405 1379 462 1379T565 1349T649
1250T785 836T910 491L936 526Q985 596 1177 896Q1368 1196 1414 1254Q1511 1378 1642 1378Q1721 1378 1721 1333Q1721 1323 1691 1247T1631 953T1584 623L1576 567Q1531 273 1531 250L1536 206L1550 168L1561 129Q1561 78 1545 59Q1515 23 1446 23T1336 51T1294
134Q1294 141 1323 255T1398 691Q1427 900 1427 973Q1427 1012 1419 1012Q1405 1012 1218 702T956 283T811 175Q772 175 749 224T635 641T511 1008Z" />
<glyph unicode="N" horiz-adv-x="1476" d="M1159 18Q1064 18 985 146Q961 184 752 618T503 1052Q489 1052 477 1011T410 655T356 297T361 219L371 156Q371 90 318 54T179 18T94 78Q94 109 135 177T195 324Q348 1008 348 1217Q348 1242 337 1284T325 1341Q326 1379
408 1379Q556 1379 666 1212Q735 1106 911 737T1101 367T1126 402T1191 738T1245 1152L1243 1187Q1239 1241 1239 1253Q1239 1305 1273 1345T1385 1386H1422Q1456 1386 1479 1364T1502 1303T1458 1198T1377 968T1294 539T1234 182T1217 81Q1200 18 1159 18Z" />
<glyph unicode="O" horiz-adv-x="1455" d="M1221 822V872Q1221 1050 1132 1167T888 1285H854Q765 1285 671 1231T499 1071T381 827T341 568V552Q341 550 341 549Q341 265 524 157Q584 121 658 121H708Q798 121 890 174T1057 327T1176 565T1221 822ZM1430 881V836Q1430
674 1370 512Q1250 191 968 50Q828 -20 674 -20H652Q523 -20 425 26T265 144Q132 297 132 545V567Q132 725 192 890T366 1180Q588 1424 911 1425Q1138 1425 1283 1276Q1346 1211 1388 1106T1430 881Z" />
<glyph unicode="P" horiz-adv-x="1182" d="M514 709H602Q904 709 991 896Q1027 973 1027 1049V1059Q1027 1155 966 1216T796 1278L776 1280H696Q581 1280 562 1237Q552 1214 540 1140T499 924T469 745V737Q469 709 514 709ZM191 1Q99 1 99 76Q99 110 140 188T200
353Q348 1049 348 1244Q348 1266 340 1297T332 1336Q332 1375 375 1388Q454 1412 665 1412L713 1414H786Q1105 1414 1197 1215Q1225 1155 1225 1064T1189 886Q1076 614 707 582Q588 572 515 529T423 444T403 313L410 241L414 172Q414 82 346 34Q299 1 212 1H191Z"
/>
<glyph unicode="Q" horiz-adv-x="1474" d="M337 605V553Q338 470 366 382Q420 215 552 157Q621 127 696 127H712Q791 127 878 186Q1039 296 1131 422Q1177 486 1210 591T1243 807V859Q1242 938 1216 1023Q1161 1199 1022 1254Q957 1280 888 1280H853Q761 1280
668 1229T502 1084T383 857T337 605ZM1439 844Q1439 640 1336 425Q1276 299 1165 185T1054 55Q1054 19 1158 -77Q1194 -111 1231 -124T1269 -144Q1269 -160 1238 -177Q1159 -220 1085 -220H1061Q944 -220 751 -130Q426 22 337 101T196 301T144 567V595Q144 738
198 895T359 1173T599 1358T880 1423H937Q1040 1423 1136 1379Q1334 1288 1403 1084Q1439 978 1439 872V844Z" />
<glyph unicode="R" horiz-adv-x="1255" d="M526 749H609Q786 749 875 819Q993 913 993 1051V1080Q993 1171 924 1224T736 1278H679L670 1277H652Q634 1275 625 1275Q558 1275 541 1219Q464 973 464 793V777Q464 749 526 749ZM164 10Q78 10 78 93Q78 107 119 174T188
353T275 832T335 1235T327 1310T319 1351Q319 1388 382 1397T612 1406H738Q1069 1406 1157 1221Q1186 1160 1186 1057T1128 865T976 709T883 605Q883 528 1000 289Q1034 220 1085 169T1137 80T1113 22T1006 2T881 57T782 289T695 514Q642 598 544 598Q469 598 421
501Q386 431 386 278L397 158Q397 10 164 10Z" />
<glyph unicode="S" horiz-adv-x="1115" d="M1096 1251Q1096 1192 1068 1159T1018 1126T897 1203T698 1280T524 1223T448 1073T530 911Q567 880 724 798Q880 716 950 634T1020 450Q1020 242 877 114T486 -14Q438 -14 314 9T154 56Q78 105 78 195Q78 252 116 297Q135
320 174 320Q193 320 256 260T379 167T548 133T736 202T814 365T740 530Q698 570 547 651T335 801Q254 894 254 1037Q254 1108 294 1184T401 1314Q535 1421 704 1421H737Q937 1421 1016 1380T1096 1251Z" />
<glyph unicode="T" horiz-adv-x="1202" d="M618 1162Q618 1253 507 1253Q434 1253 362 1221Q350 1216 299 1187T225 1158Q186 1158 186 1211Q186 1344 262 1386Q307 1411 589 1411H1169Q1239 1411 1270 1394T1302 1333Q1302 1236 1269 1199Q1253 1181 1238 1181T1145
1219T998 1258T890 1237T827 1127T739 666T676 261T693 173T711 113Q711 64 669 32T533 -1H505Q358 -1 358 69Q358 103 408 178T484 369Q618 967 618 1162Z" />
<glyph unicode="U" horiz-adv-x="1414" d="M663 -4Q211 -4 211 417V454Q211 554 258 815T306 1108T290 1187T273 1254Q273 1316 337 1368Q363 1389 446 1389T558 1370T586 1309Q586 1301 563 1247T530 1151T465 785T410 425Q410 273 486 204T682 134T889 195T1020
350T1129 756T1193 1160L1177 1299Q1177 1394 1312 1394H1346Q1382 1394 1401 1380Q1442 1350 1442 1299T1403 1179T1358 1090T1291 734T1160 269T966 68T701 -4H663Z" />
<glyph unicode="V" horiz-adv-x="1335" d="M525 1259L516 1140Q516 1100 569 709T627 301T643 285L657 301Q780 468 1062 1032Q1121 1148 1133 1222T1155 1314Q1197 1401 1364 1401Q1430 1401 1430 1339Q1430 1295 1359 1216T1044 693T701 103Q634 4 564 4H537Q478
4 447 127Q434 178 388 514T298 1082Q286 1148 250 1215T213 1310Q213 1390 322 1390T478 1359T525 1259Z" />
<glyph unicode="W" horiz-adv-x="1923" d="M1148 1311Q1148 1311 1149 1311Q1231 1311 1231 1146Q1231 1058 1255 923T1295 620T1315 440T1332 428Q1365 428 1534 770Q1592 888 1652 1046T1729 1229Q1803 1345 1909 1345Q1936 1345 1936 1314T1892 1166Q1743 772
1496 302Q1455 225 1391 162T1277 98T1200 131T1140 268T1070 623T1024 874Q1018 874 888 637Q596 103 505 103Q455 103 422 150T373 261L364 311Q361 335 349 476L331 639Q277 1130 277 1212T306 1319Q321 1332 368 1332T455 1290T508 1202T524 1042T555 686T601
443Q612 443 630 467Q734 605 851 867Q886 944 928 1088T983 1248Q1032 1311 1148 1311Z" />
<glyph unicode="X" horiz-adv-x="1321" d="M861 694Q861 661 1012 335Q1065 220 1105 178Q1184 94 1184 54Q1184 1 1049 1T875 36T836 163T730 477Q695 551 679 551Q637 551 439 270Q389 199 357 125T317 44Q276 9 160 9T43 48T120 151T271 299T464 541T584 744T491
975T359 1203Q282 1286 282 1320T316 1370T441 1386T571 1361T609 1248T722 947Q748 898 758 898Q814 898 991 1142Q1038 1207 1056 1267T1093 1344Q1143 1390 1284 1390Q1373 1390 1373 1343Q1373 1312 1301 1261T1160 1126Q965 892 933 852Q861 762 861 694Z"
/>
<glyph unicode="Y" horiz-adv-x="1241" d="M510 8Q388 8 388 75Q388 110 424 167Q519 317 519 527Q519 674 403 967Q340 1126 321 1156T279 1211T235 1261T214 1317Q214 1362 340 1362T500 1307Q506 1298 516 1231T560 1081Q673 803 697 803Q707 803 728 823Q834
922 986 1148Q1014 1189 1037 1249T1066 1316Q1117 1373 1254 1373H1276Q1322 1373 1322 1343T1226 1230Q1177 1189 1022 972T817 670T735 463T703 279T718 173T734 95T688 35T566 7L538 8H510Z" />
<glyph unicode="Z" horiz-adv-x="1223" d="M1271 1365Q1270 1316 1238 1270T1067 1056Q384 233 384 176Q384 136 558 136T804 150T964 200T1074 237Q1115 237 1115 182T1101 100T1026 32T840 -10H764L689 -8Q613 -6 575 -6L538 -5Q500 -4 462 -4L311 -2Q125 -2
96 11T67 71Q67 133 510 670T953 1230Q953 1263 801 1263T580 1245T439 1198T351 1168Q291 1168 291 1249T369 1373Q423 1403 564 1403H753L790 1402L1094 1403H1169Q1271 1403 1271 1365Z" />
<glyph unicode="[" horiz-adv-x="729" d="M810 1491Q810 1410 696 1391T580 1370Q540 1352 519 1295T396 591T294 -105T318 -175T406 -209T495 -237T520 -298Q520 -336 436 -336H284Q168 -336 136 -325T104 -266V-244Q104 -208 227 577T369 1423T434 1501Q464
1512 633 1512L736 1513Q810 1513 810 1491Z" />
<glyph unicode="\" horiz-adv-x="830" d="M726 -122V-137Q726 -168 658 -168T561 -80Q523 41 423 430T239 1122T155 1453T223 1482T320 1394Q439 1017 670 91Q676 65 701 -24T726 -122Z" />
<glyph unicode="]" horiz-adv-x="730" d="M353 1512H478Q616 1512 651 1501T686 1406T646 1092T528 372T432 -203T381 -310T262 -332L236 -333Q211 -334 185 -334L134 -336H59Q-17 -336 -17 -317Q-17 -265 33 -235Q57 -220 134 -209T237 -179T280 -101T398 592T498
1276T476 1351T391 1386T302 1414T274 1471T353 1512Z" />
<glyph unicode="^" horiz-adv-x="1062" d="M658 1372H671Q704 1372 734 1317Q791 1212 879 1004T967 787Q967 751 910 751H898Q828 751 722 1005Q645 1186 625 1186Q617 1186 510 1026T355 809T256 752T205 769Q205 828 562 1311Q607 1372 658 1372Z" />
<glyph unicode="_" horiz-adv-x="1050" d="M874 -93Q936 -93 936 -124Q936 -178 921 -199T849 -220H24Q-17 -220 -17 -198V-179Q-17 -116 9 -105T178 -93H446L457 -94L650 -93H682L692 -94L778 -93H874Z" />
<glyph unicode="`" horiz-adv-x="669" d="M566 1124V1111Q566 1089 531 1089H511Q473 1089 356 1223T238 1385V1399Q238 1432 297 1432L307 1434H328Q387 1434 424 1397Q432 1389 499 1269T566 1124Z" />
<glyph unicode="a" horiz-adv-x="1067" d="M267 372V352Q267 261 302 199T401 136H419Q476 136 545 186T662 319Q759 484 759 686V733Q759 792 727 819T627 846H617Q560 846 495 812T372 695Q267 546 267 372ZM78 304V344Q78 439 119 553T236 758T411 903T608
958H626Q669 958 754 936T886 914Q969 914 969 848V820Q969 772 928 582T887 323T922 214T957 133T918 64T831 36T729 86T638 136Q629 136 524 80T340 24H322Q220 24 149 101T78 304Z" />
<glyph unicode="b" horiz-adv-x="1066" d="M326 299V241Q326 184 369 150T493 115L503 116Q552 116 612 148T719 247Q829 407 829 574V614Q829 703 791 766T685 830H657Q608 830 542 788Q411 705 360 505Q326 369 326 299ZM100 123Q100 149 120 240T147 360L195
619L199 643Q293 1144 293 1190T283 1287T273 1352Q273 1404 303 1435T390 1466H411Q512 1466 512 1375Q512 1325 478 1141T443 925Q443 877 494 877Q508 877 596 903T753 930Q869 930 941 842T1013 621V597Q1013 496 973 382T857 178T688 45T510 1H487Q426 1 350
26T247 52L198 46Q100 46 100 123Z" />
<glyph unicode="c" horiz-adv-x="906" d="M93 326V390Q93 392 93 394Q93 486 136 597Q227 834 432 928Q523 970 611 970H631L652 969Q760 969 824 927T889 843T867 774T814 746T718 789T596 833Q476 833 382 699T288 391Q288 268 340 201T491 133Q546 133 638
165T761 198T792 153T674 47T446 -14H425Q279 -14 186 82T93 326Z" />
<glyph unicode="d" horiz-adv-x="1094" d="M276 351Q276 256 317 195T431 133H440Q505 133 568 177T670 289T740 483T772 706V715Q772 844 630 844H600Q490 844 394 726Q346 667 313 576T279 419L277 400L276 371V351ZM910 266L942 101Q942 83 917 59T813 34Q778
34 741 63T668 93L629 97Q605 97 507 62T355 27H333Q231 27 160 108T89 328V354Q89 466 143 591T281 802T450 919T665 950T833 1000T871 1216Q871 1239 860 1277T849 1351T899 1429T1022 1471T1094 1407V1386Q1094 1375 1002 864T910 266Z" />
<glyph unicode="e" horiz-adv-x="958" d="M579 855Q498 855 408 754T317 567Q317 533 352 533H363L370 534L407 538Q512 538 662 606Q750 646 750 709V733Q750 781 716 819T629 857H597Q585 855 579 855ZM454 -10H412Q287 -10 191 83T94 324V386Q94 494 140 609Q237
848 441 937Q536 978 651 978T844 912T921 741V722Q921 595 811 529Q727 478 481 435Q368 415 352 408Q299 386 299 309T368 177Q416 139 492 139T659 174T777 210Q811 210 811 170Q811 109 686 50T454 -10Z" />
<glyph unicode="f" horiz-adv-x="707" d="M526 1072Q526 1026 544 1007T630 962T698 903T611 834T498 757Q448 674 384 333T290 -84T209 -198T97 -237H73Q-4 -237 -4 -185Q-4 -149 63 -59T160 141Q239 429 239 707Q239 782 216 836T192 914T244 974T313 1039T347
1116L383 1218Q451 1381 593 1444Q667 1477 752 1477H779Q859 1477 894 1440Q910 1423 910 1398T885 1340T812 1307L708 1322Q626 1322 576 1244T526 1072Z" />
<glyph unicode="g" horiz-adv-x="1090" d="M806 636V676Q806 766 762 801T638 836H617Q496 836 399 716Q351 657 320 572T288 420V371Q288 257 336 196T458 134H468Q536 134 600 176Q728 259 773 436Q806 568 806 636ZM99 328Q99 448 148 568Q241 796 436 888Q538
936 652 936Q705 936 777 904T866 872L881 878L914 894Q950 908 972 908Q1026 908 1026 856V835Q1026 813 979 629T885 148T780 -250T608 -419T362 -486T147 -442T63 -342Q63 -307 84 -286T146 -265T260 -284T381 -304Q517 -304 598 -202T680 80Q680 97 668 97Q668
97 667 97Q654 97 607 74Q462 4 357 3Q99 3 99 328Z" />
<glyph unicode="h" horiz-adv-x="1093" d="M403 1456Q512 1456 512 1354Q512 1309 475 1109T438 876T459 843Q492 843 586 885T768 928T912 864T970 674Q970 616 942 440T914 184L917 115Q917 76 905 63T830 50T747 88T726 180T753 402T780 644T739 761T644 804T540
769T441 654T345 345T290 99Q250 15 176 15T102 79V105Q102 109 143 299T242 809T300 1190L290 1316Q290 1380 321 1418T403 1456Z" />
<glyph unicode="i" horiz-adv-x="583" d="M451 1399H462Q558 1399 558 1335Q560 1329 560 1324L562 1305V1297L561 1293Q561 1289 561 1285L559 1269Q559 1224 526 1191T452 1158H433L399 1163Q340 1163 340 1225L337 1248V1263L342 1299Q342 1327 372 1363T451
1399ZM439 151Q439 97 377 57T210 16H198Q130 16 130 93V105Q130 142 159 242Q255 571 255 731Q255 772 231 806T207 877T257 940T391 967H403Q473 967 473 907V895Q473 885 428 631T382 352L380 329L381 307Q381 254 410 215T439 151Z" />
<glyph unicode="j" horiz-adv-x="568" d="M405 1162Q347 1162 347 1226Q345 1234 345 1237L344 1253V1261L345 1265Q345 1322 378 1361T463 1401H489Q497 1399 511 1399T547 1377T569 1321V1290L565 1262Q565 1232 536 1197T468 1162L445 1159H419Q409 1162 405
1162ZM473 865V831Q473 766 395 355T270 -161T131 -334T-61 -403H-78Q-154 -403 -154 -351Q-154 -284 -27 -245Q64 -217 107 -108T205 339T260 717T237 812T213 880Q213 917 265 940T395 964Q420 964 446 936T473 865Z" />
<glyph unicode="k" horiz-adv-x="1027" d="M341 1463T407 1463T491 1437T509 1364T455 1023T400 677T427 626T611 764T769 904Q810 936 881 936T952 900T796 711T640 496Q640 463 716 337T837 153T882 71Q882 20 771 20Q700 20 666 64T559 273T454 438Q404 438
374 372Q355 331 332 222T295 90Q258 25 170 25Q117 25 117 93Q117 108 210 652T304 1274L292 1375Q292 1419 316 1441Z" />
<glyph unicode="l" horiz-adv-x="571" d="M289 1395Q289 1473 453 1473H470Q507 1473 526 1456T545 1390V1374Q545 1365 455 874T364 306T395 179T427 117Q427 76 369 41T228 5H213Q174 5 148 33T121 107V123Q121 172 152 291T257 796T330 1267Q330 1292 310 1328T289
1395Z" />
<glyph unicode="m" horiz-adv-x="1612" d="M1371 48Q1267 48 1267 256Q1267 308 1284 422T1301 601T1270 718T1184 771Q1013 771 925 383Q911 322 894 223T860 81Q830 5 755 5H717Q660 5 660 65Q660 89 684 187Q770 538 770 673Q770 733 741 760T681 788Q606 788
542 741T435 621T357 398T297 183Q253 76 207 76Q183 76 158 104T132 180T148 302T187 567T218 795T252 863T309 893T388 858T446 822T512 859T580 903Q678 955 755 955T868 931T938 859T977 810Q999 810 1103 867T1318 925Q1386 925 1440 868T1494 725T1467 469T1439
205L1442 173L1444 142Q1444 85 1429 67T1371 48Z" />
<glyph unicode="n" horiz-adv-x="1113" d="M203 589L193 726Q193 804 229 870Q264 936 316 936Q398 936 422 843Q434 793 448 793T520 838T643 914T795 944T940 893T999 732V704Q999 679 969 496T939 253T955 154T972 106Q972 48 835 48Q741 48 741 215Q741 245
771 425T801 663T771 769T689 817T573 780T458 661T357 353T305 121Q271 32 211 32H195Q164 32 141 55T118 111T160 303T203 589Z" />
<glyph unicode="o" horiz-adv-x="1038" d="M458 115H489Q598 115 687 232Q741 303 769 397T798 536L800 556L801 587V598L800 608Q800 724 751 791T620 858H610L600 857Q553 857 495 825T389 725Q286 579 286 406V355Q286 251 336 183T458 115ZM458 -14H426Q364
-14 297 13T186 91Q93 199 93 369L94 385Q94 502 138 614Q231 853 428 940Q527 984 618 984H650Q723 984 791 954T903 875Q997 771 997 634V587Q997 484 952 369T838 171T668 37T458 -14Z" />
<glyph unicode="p" horiz-adv-x="1090" d="M493 118H523Q571 118 636 153T750 257Q858 414 858 589V620Q858 710 818 776T704 843H675Q620 843 541 789Q439 719 386 506Q352 370 352 285V246Q352 192 386 155T493 118ZM327 926Q363 926 399 907T462 888T571 918T716
948H758Q805 948 864 924T966 847Q1040 757 1040 632V584Q1040 474 988 353T847 147T641 27Q600 15 468 6T313 -19Q271 -46 271 -150L282 -269Q282 -350 223 -405T90 -460H69Q0 -460 0 -407Q0 -398 24 -318T64 -178T151 242T223 715L209 831Q209 926 327 926Z"
/>
<glyph unicode="q" horiz-adv-x="1068" d="M788 687V725Q788 795 747 825T631 855L621 854Q564 854 501 819T388 711Q282 557 282 383V354Q284 334 284 324Q284 253 325 197T438 140H448Q505 140 574 185T677 287Q730 378 759 493T788 687ZM698 -448Q572 -448
572 -361Q572 -344 617 -181T663 30T632 79Q620 79 593 70L527 48Q463 32 389 32Q265 32 182 121T99 357V381Q99 484 141 594Q227 821 427 922Q517 967 607 967H630Q685 967 753 943T839 919T898 932T967 945Q1024 945 1024 888Q1024 874 994 754T896 226T828 -211L835
-327Q835 -375 804 -411T719 -448H698Z" />
<glyph unicode="r" horiz-adv-x="802" d="M244 4H213Q121 4 121 66V81Q121 85 171 304T221 645Q221 688 213 727T204 820T235 912T326 949T409 918T440 836T454 784Q464 784 514 832Q637 950 747 951Q821 951 821 887V874Q821 824 785 803T673 774T565 751T490
675T417 498T376 266T349 101Q318 4 244 4Z" />
<glyph unicode="s" horiz-adv-x="860" d="M513 971H558Q655 971 732 937T809 860V842Q809 815 789 790T737 764T640 805T514 847T409 817T364 730T419 630Q440 613 547 557T705 443T756 291Q756 164 647 74T400 -16H353Q243 -16 153 21T62 114V134Q62 159 84 189T142
219Q157 219 239 166T403 112T529 154T575 250T541 336T399 424T253 521Q188 588 188 678Q188 804 286 887T513 971Z" />
<glyph unicode="t" horiz-adv-x="717" d="M691 916Q691 865 601 844T482 762T415 550T377 279Q377 211 416 186Q436 173 513 173T590 124T535 44Q451 -3 355 -3T210 67Q176 116 176 202T211 470T247 726T215 827Q165 867 165 886Q165 925 214 951Q304 999 315
1018T349 1112T402 1224T480 1262Q535 1262 535 1195L527 1068Q527 1025 540 1009T622 974T691 916Z" />
<glyph unicode="u" horiz-adv-x="1112" d="M901 29T845 29T761 57Q750 68 735 115T698 162Q689 162 631 120Q411 16 354 15Q350 15 346 16Q248 16 197 75T146 243Q146 288 183 491T220 734T207 812T193 874Q193 921 306 921H326Q375 921 394 884T414 778T379 533T344
288Q344 137 460 137Q513 137 581 188T700 327T805 704Q820 790 832 820Q867 910 929 910Q958 910 980 887T1003 832V809Q1003 786 989 706T965 567T956 388L967 194Q967 132 934 81Z" />
<glyph unicode="v" horiz-adv-x="1012" d="M134 871Q134 949 270 949Q330 949 359 922T406 828T441 491T480 221Q493 221 510 240Q614 359 696 526T803 827Q814 882 829 905Q868 964 961 964H981Q1012 964 1012 918V901Q1012 840 973 760Q822 451 704 271T520
36Q483 5 430 5Q354 5 329 76Q316 111 292 294Q245 647 190 739T134 871Z" />
<glyph unicode="w" horiz-adv-x="1485" d="M1432 903V865Q1432 779 1390 670Q1301 438 1170 191Q1126 108 1080 74T976 40Q933 40 888 135T809 386T768 543T674 409Q459 78 382 78Q316 78 280 169Q269 196 255 324T206 588T171 767V795Q171 942 260 942T381 842Q392
810 396 704Q435 282 466 256Q496 256 593 475Q642 585 684 726T735 881Q765 928 852 928Q913 928 935 847Q948 799 952 702T965 523Q992 269 1013 269Q1056 269 1164 495Q1196 561 1245 696T1305 850Q1352 927 1424 927Q1432 927 1432 903Z" />
<glyph unicode="x" horiz-adv-x="1006" d="M484 328Q456 328 347 185T236 40Q188 -4 139 -4H116Q18 -4 18 39T101 142T205 224Q398 422 398 488Q398 570 303 713Q295 724 238 778T180 874Q180 889 197 900Q255 938 350 938Q399 938 426 902T502 751T574 636T685
755Q717 799 745 844T792 908Q835 950 890 950H913Q999 950 999 922T826 720T653 469Q653 413 743 258Q779 196 834 152T890 85T874 51Q825 16 715 16Q658 16 623 68T543 224T484 328Z" />
<glyph unicode="y" horiz-adv-x="1020" d="M411 30Q411 61 346 222T251 516T214 673T176 758T146 839T189 883T296 908Q365 908 400 790T463 464T510 255Q533 255 562 282Q622 338 683 459T789 735T838 893Q880 950 967 950Q1022 950 1022 904Q1022 852 938 671Q663
77 565 -72T341 -323T136 -425T56 -381T158 -292T306 -196Q411 -76 411 30Z" />
<glyph unicode="z" horiz-adv-x="949" d="M928 957T928 908T642 548T355 184Q355 152 483 152T691 169T790 186Q829 186 829 122Q829 -11 628 -11Q627 -11 625 -11H575Q529 -11 402 1T184 13L159 11L110 8Q54 8 54 39Q54 91 119 177Q139 204 387 480T636 783T519
809T332 788T252 766Q193 766 193 816Q193 892 229 928T370 964H474Q502 964 595 957T763 950L885 957Q928 957 928 908Z" />
<glyph unicode="{" horiz-adv-x="739" d="M438 376Q438 314 407 160T375 -67T436 -190Q531 -267 531 -299Q531 -340 474 -340Q345 -340 273 -279T200 -90Q200 -21 235 141T270 380T218 497Q131 566 131 577Q131 623 211 661T327 776Q354 833 381 1059T457 1359Q558
1511 753 1511H777Q817 1511 817 1483Q817 1430 727 1388T602 1284T549 1046T504 795T444 684T373 622T335 586L344 574L375 545Q438 476 438 376Z" />
<glyph unicode="|" horiz-adv-x="584" d="M169 -318Q169 -303 195 -38T242 432L246 473L249 514L257 595Q265 677 275 777L283 857Q287 898 291 938L295 978L298 1018L306 1099Q322 1256 326 1313T339 1440T418 1511H438Q487 1511 487 1462Q487 1449 457 1144T414
716L406 635Q400 561 389 446T373 290L365 210Q357 133 356 113T336 -94T316 -295Q307 -367 237 -367H217Q169 -367 169 -318Z" />
<glyph unicode="}" horiz-adv-x="748" d="M442 1154T442 1223T423 1321T345 1389T286 1470T337 1512Q464 1512 537 1452T611 1266Q611 1198 578 1034T544 798T595 682Q680 610 680 600Q680 553 601 516T485 399Q458 340 431 116T351 -189Q252 -339 64 -339H40Q-3
-339 -3 -314Q-3 -263 92 -215T217 -104T269 144T316 394T371 490T440 552T481 585Q480 592 446 625Q378 691 378 813Q378 868 410 1011Z" />
<glyph unicode="~" horiz-adv-x="1072" d="M766 549H745Q687 549 563 614T394 679T278 622T186 565Q153 565 153 598Q153 673 239 744T408 815H439Q505 815 613 750T773 685T895 741T989 797Q1021 797 1021 764Q1021 690 918 605Q850 549 766 549Z" />
<glyph unicode="&#xa0;" horiz-adv-x="561" />
<glyph unicode="&#xa1;" horiz-adv-x="571" d="M430 1128Q466 1128 494 1105T523 1035V1023Q523 977 493 935T423 893Q407 889 404 889H372Q334 889 309 914T283 977V997Q283 1046 315 1085T383 1124L411 1128H430ZM408 674L376 434L374 422L373 409L370 385L364
348L361 323L357 299L354 274Q352 259 328 57T284 -212T234 -300T140 -320T77 -279V-269Q77 -264 159 132T284 660Q305 726 367 726Q408 726 408 696V674Z" />
<glyph unicode="&#xa2;" horiz-adv-x="958" d="M316 469V419Q316 344 354 273T424 202H430Q453 202 461 244Q517 524 559 692T601 879V885Q601 896 593 896H587Q570 896 510 859T400 745Q316 614 316 469ZM311 70Q141 193 141 414Q141 634 278 809Q361 915 529
994Q583 1019 612 1048Q614 1050 651 1117T712 1185Q744 1185 762 1132Q795 1032 828 1003Q919 922 919 875Q919 809 857 809Q836 809 789 828T735 848Q698 848 675 768Q568 402 568 270Q568 201 632 201Q650 201 705 217T787 234T813 213Q813 167 688 103T532
-5Q448 -124 412 -124Q388 -124 388 -55T311 70Z" />
<glyph unicode="&#xa3;" horiz-adv-x="1133" d="M64 22V43Q64 70 137 134T239 253Q291 352 291 477Q291 537 253 565Q178 620 178 634Q178 661 234 704T301 765T329 880Q370 1114 472 1229Q610 1385 839 1385Q951 1385 1020 1345T1089 1235Q1089 1211 1069 1188T991
1164Q987 1164 916 1194T790 1225T683 1196T596 1114Q519 997 519 835Q519 764 579 733Q585 730 679 714T774 664Q774 626 669 592T521 509T439 358T400 208T445 141T586 123T760 150Q774 155 827 178T900 202Q966 202 966 133Q966 39 890 -3Q832 -35 702 -35L323
-12Q296 -12 256 -15L223 -18L161 -26Q64 -26 64 22Z" />
<glyph unicode="&#xa4;" horiz-adv-x="1115" d="M548 434H589Q682 434 761 520T840 729V738Q840 836 783 899T635 962H618Q520 962 442 877T363 672V648Q363 561 415 498T548 434ZM1055 1052Q1055 1043 1001 985T947 901T956 830T966 725T927 569T887 455T924
389T961 319T938 274T893 252T826 299T741 347Q733 346 675 328T559 310T464 318L419 328Q377 339 372 339Q341 339 287 289T214 239T170 265Q146 290 146 310T196 388T247 481Q247 491 241 515L232 551Q224 593 224 659T259 819T295 928T262 993T229 1061T253
1107T302 1135T367 1089T451 1042Q453 1042 519 1060T642 1079Q699 1079 758 1060T838 1041T918 1088T992 1135T1031 1111T1055 1068V1052Z" />
<glyph unicode="&#xa5;" horiz-adv-x="1238" d="M551 0Q463 0 419 24T375 105Q375 118 389 146T403 194T361 276T318 365T383 435T449 522Q449 529 397 570T344 636T388 710T432 834T361 1063Q332 1127 286 1188T240 1283T271 1338T360 1359Q473 1359 500 1298Q506
1284 510 1244T519 1187T600 983T683 796Q711 796 908 1061Q997 1181 1013 1210T1046 1284T1081 1345T1145 1361H1168Q1251 1361 1251 1318Q1251 1281 1156 1184T979 957T897 757Q897 737 919 698T941 645Q941 604 863 570T784 507Q784 470 842 436T900 383Q900
351 799 291T697 180L699 157L707 132L711 107Q711 0 551 0Z" />
<glyph unicode="&#xa6;" horiz-adv-x="537" d="M235 769V793L239 847L243 891L246 918Q252 972 253 994T257 1039T259 1071L262 1098Q268 1152 269 1174T273 1220T275 1252L278 1279Q281 1306 281 1316L284 1343Q286 1361 286 1371L289 1398Q291 1416 291 1447T309
1492T376 1507H384Q438 1507 438 1479V1454Q435 1427 435 1418L432 1391Q424 1319 422 1292T419 1247T415 1207T411 1157T406 1107T402 1062T396 1000Q390 927 390 913L387 886Q385 868 385 825T369 762T306 742H280Q235 742 235 769ZM205 -368H179Q141 -368 141
-342V-309Q145 -273 145 -256L148 -229Q150 -211 150 -202L153 -175Q158 -130 158 -112Q160 -94 160 -85L163 -58Q165 -40 165 -31L168 -4Q170 14 170 23L173 60Q180 123 180 141L183 168Q185 186 185 195L190 250L193 277Q195 295 195 327T210 377T271 396H305Q343
396 343 362V345Q336 282 336 264L333 237Q327 183 326 161T322 116T318 71T316 39L313 12Q306 -51 304 -79T301 -124T299 -151L296 -188Q292 -224 292 -233L288 -277Q288 -330 273 -349T205 -368Z" />
<glyph unicode="&#xa7;" horiz-adv-x="1014" d="M739 589V623Q739 701 681 766Q581 878 504 878H494Q455 878 409 826T362 716V695Q362 584 563 457Q616 423 623 423H642Q662 423 700 471T739 589ZM348 1075Q348 1221 449 1317T702 1414H730Q802 1414 855 1382T908
1315T889 1251T839 1222Q831 1222 779 1255T659 1288T558 1245T524 1143T585 1021Q599 1006 705 927T862 785T913 642V612Q913 518 834 411T755 272L757 250Q759 220 759 204Q759 37 659 -68Q603 -127 529 -155T391 -183H363Q267 -183 204 -143T141 -63T161 5T211
34Q217 34 285 -3T419 -40T524 1T565 105T513 223Q486 252 394 323Q304 394 256 458T208 606Q208 744 310 843Q371 902 371 931Q348 1046 348 1075Z" />
<glyph unicode="&#xa8;" horiz-adv-x="832" d="M323 1320H344Q381 1320 406 1295T431 1229V1222Q431 1175 400 1138T325 1100H300Q267 1100 243 1124T218 1184V1205L222 1229Q222 1257 253 1288T323 1320ZM691 1100H673Q643 1100 618 1120T591 1156T590 1174L588
1188V1202Q594 1226 594 1243T622 1288T676 1317Q684 1319 686 1319L704 1321H711Q751 1321 776 1296T801 1236V1215L797 1190Q797 1164 765 1132T691 1100Z" />
<glyph unicode="&#xa9;" horiz-adv-x="1582" d="M282 655V618Q282 507 326 410Q413 220 595 144Q692 103 812 103L830 104H849Q942 104 1055 156Q1286 261 1380 510Q1420 615 1420 727V745L1419 764Q1419 850 1386 944T1286 1114T1120 1234T916 1279H879Q647 1279
466 1098Q376 1008 329 889T282 655ZM915 1103Q1143 1103 1143 985Q1143 926 1091 926Q1077 926 1014 964T884 1003Q770 1003 698 907T625 670T688 461T855 393Q909 393 978 421T1069 450T1092 404T1012 317T828 277H810Q677 277 583 375T488 625V662Q488 751 524
837T623 985T762 1075T898 1103H915ZM1533 762V718Q1533 587 1476 455T1321 223T1089 64T831 5H787Q680 5 567 45T362 172T222 375T173 597V664Q173 790 231 926T387 1161T616 1318T874 1377H918Q1162 1377 1347 1206Q1428 1130 1480 1010T1533 762Z" />
<glyph unicode="&#xaa;" horiz-adv-x="831" d="M593 1166Q593 1215 523 1215H518Q435 1215 369 1140T302 996L300 986L299 964V959Q299 909 320 881T366 852H390Q447 852 518 933T590 1114L593 1140V1166ZM653 1343Q722 1343 722 1208Q722 1137 712 1074T701 977T726
911T752 872V862Q752 827 724 799T656 771H646Q630 771 584 797T520 824T435 806T317 787T230 823T193 905V937Q193 973 226 1033Q336 1234 379 1287T494 1341L529 1337H567L628 1343H653Z" />
<glyph unicode="&#xab;" horiz-adv-x="1045" d="M606 866Q606 834 461 680T316 509T400 359T484 177T441 128H433Q398 128 306 256Q128 502 128 508Q128 528 329 717T564 906H572Q606 906 606 874V866ZM694 508Q694 503 774 364T855 181T814 137T680 264Q511 498
511 508T700 708T932 897H940Q972 897 972 864V856Q972 823 833 675T694 508Z" />
<glyph unicode="&#xac;" horiz-adv-x="1184" d="M432 728H993Q1037 728 1053 705T1070 612Q1070 438 1030 307Q1022 282 983 282T926 298T908 383L912 471Q912 574 860 594Q837 603 497 603T156 639Q156 716 187 724Q202 728 432 728Z" />
<glyph unicode="&#xad;" horiz-adv-x="773" d="M693 603V589Q693 500 653 485Q628 476 389 476H367L346 475H304L297 474H241L213 473H152Q124 473 124 500V514Q124 601 163 619Q181 627 428 627L589 630H665Q693 630 693 603Z" />
<glyph unicode="&#xae;" horiz-adv-x="1412" d="M867 1057V1077L863 1103Q863 1125 833 1155T746 1186H686Q656 1186 645 1160T634 1035L632 1018V1009L630 991V974L629 958V947Q629 933 650 933H654L658 934L683 935L701 936Q865 936 865 1035Q867 1043 867 1057ZM682
392H714Q808 392 904 435T1075 556Q1224 711 1224 920T1098 1267Q1036 1335 949 1371T789 1407H740Q646 1407 552 1365Q368 1282 275 1079Q230 979 230 862V846Q230 667 344 542Q479 392 682 392ZM634 650Q634 583 516 583Q459 583 459 618Q459 618 459 619V631Q459
635 477 663T498 708T506 780L509 810Q510 827 520 930T530 1102T527 1182T518 1206T512 1226Q512 1256 657 1256L704 1257H720Q848 1257 911 1213T975 1072Q975 1010 912 937T848 861Q848 839 894 765T968 663T995 609T959 582H931Q887 582 866 605T787 745T681
862Q664 862 641 836T618 734L634 650ZM1319 964V925Q1319 925 1319 921Q1319 800 1264 684Q1157 456 944 363Q819 308 690 308L671 309H652Q650 309 648 309Q557 309 455 354Q352 400 280 478Q138 632 137 843V881Q137 996 186 1108T316 1307T516 1446T747 1499H785Q787
1499 790 1499Q892 1499 992 1458Q1203 1372 1285 1147Q1319 1055 1319 964Z" />
<glyph unicode="&#xaf;" horiz-adv-x="820" d="M815 1208Q815 1139 756 1139H224Q201 1139 201 1158V1171Q201 1254 254 1254H793Q817 1254 817 1228Q815 1216 815 1208Z" />
<glyph unicode="&#xb0;" horiz-adv-x="706" d="M482 1294H462Q406 1294 354 1242T302 1117V1101Q302 1045 339 1001T425 957H456Q466 959 471 959Q515 959 561 1011T607 1112L609 1123V1160Q609 1206 572 1250T482 1294ZM443 860H417Q321 860 257 930T192 1100L193
1108Q193 1214 274 1302T460 1390H503Q591 1390 655 1320T719 1168V1133Q719 1014 628 937T443 860Z" />
<glyph unicode="&#xb1;" horiz-adv-x="1107" d="M719 792T877 792T1036 756V740Q1036 682 999 666Q982 659 832 659T671 640T648 496T631 354Q620 320 575 320H542Q499 320 499 377L519 605Q519 651 493 656Q487 657 328 657T169 700Q169 772 212 785Q236 792
378 792T532 804T556 953T574 1105Q584 1136 633 1136H650Q706 1136 706 1077L684 832Q684 798 708 794Q719 792 877 792ZM981 203V185Q981 97 928 97L908 96H574L534 95H159Q114 95 114 129V139Q114 196 133 212T217 228H945Q981 228 981 203Z" />
<glyph unicode="&#xb2;" horiz-adv-x="758" d="M572 1214Q572 1317 470 1317Q426 1317 363 1264T283 1211Q260 1211 260 1258T329 1365T499 1424H518Q610 1424 664 1376T719 1252V1234Q719 1155 642 1058Q602 1008 487 909T371 785Q371 772 442 772T573 780T644
789Q672 789 672 753T638 685T540 654H485L467 655H430L357 657Q163 657 163 695Q163 746 311 873T515 1078T572 1214Z" />
<glyph unicode="&#xb3;" horiz-adv-x="747" d="M486 1428H522Q598 1428 643 1399T689 1309V1293Q689 1208 589 1117Q545 1078 545 1074T580 1049Q668 999 668 888T572 699T357 621H340Q267 621 212 652T157 719Q157 766 221 766Q233 766 276 748T375 729T478 771T526
877T483 974Q463 989 408 1005T353 1047Q353 1067 447 1125T541 1256Q541 1319 458 1319Q424 1319 367 1295T294 1270Q268 1270 268 1312T336 1391T486 1428Z" />
<glyph unicode="&#xb4;" horiz-adv-x="659" d="M566 1422H604Q659 1422 659 1398V1394Q659 1347 465 1175Q360 1082 314 1082H309Q273 1082 273 1098V1102Q273 1160 458 1371Q503 1422 566 1422Z" />
<glyph unicode="&#xb5;" horiz-adv-x="1130" d="M912 30T860 30T762 77T697 124Q694 124 592 74T397 23L370 24Q337 26 325 26Q275 26 241 -53Q224 -91 206 -195T174 -324Q137 -389 78 -389H60Q38 -389 38 -354V-284Q38 -156 224 830Q240 917 335 917H360Q429
917 429 816Q429 753 390 564T350 304T380 190T469 147T589 182T699 291T797 575T849 791Q880 875 911 875T967 851T992 791T979 640T965 424L983 166Q983 111 948 71Z" />
<glyph unicode="&#xb6;" horiz-adv-x="1184" d="M827 -142Q750 -142 750 -75Q750 -49 777 114Q809 311 835 601T884 1024L903 1134Q903 1180 826 1180Q773 1180 755 1112Q752 1101 732 940T684 634T616 269T571 32Q541 -48 483 -48Q432 -48 432 20Q432 31 443
147T455 419T422 668Q407 711 340 782T244 910T215 1032V1068Q215 1151 263 1236Q395 1470 758 1470H951Q1117 1470 1157 1436L1167 1422Q1167 1414 1119 1283T1061 1092T1022 833T975 508T943 300T921 151L909 76L907 42L904 7Q899 -50 897 -60Q881 -142 827 -142Z"
/>
<glyph unicode="&#xb7;" horiz-adv-x="487" d="M278 753H295L299 752H307Q319 749 323 749Q352 749 376 720T401 652V632Q401 585 365 542T271 499H254L250 500H242Q234 502 222 502T181 526T152 580Q150 588 150 592L149 612Q149 616 149 620L152 645Q152 686
192 719T278 753Z" />
<glyph unicode="&#xb8;" horiz-adv-x="1417" d="M486 -225V-241Q486 -327 411 -379T235 -432T134 -390V-384Q134 -341 220 -341Q268 -341 299 -319T330 -263T295 -203T260 -146Q260 -80 298 -28Q315 -4 359 -4H366Q385 -4 385 -29Q378 -71 378 -80T405 -108T441
-135Q486 -176 486 -225Z" />
<glyph unicode="&#xb9;" horiz-adv-x="638" d="M366 657H331Q222 657 222 705V714Q222 742 263 778T320 860Q366 1005 366 1180Q366 1236 331 1256Q266 1294 266 1305T310 1344Q433 1419 514 1419H523Q552 1419 552 1393V1383Q552 1376 531 1276T506 1150T483
1006T463 853T484 785T505 725Q505 657 366 657Z" />
<glyph unicode="&#xba;" horiz-adv-x="793" d="M636 1096V1109Q636 1186 602 1234T513 1283H500Q425 1283 366 1201T306 1035L304 1022V983Q304 914 340 868T428 822H440L447 823Q516 823 576 905T636 1096ZM507 1374H538Q635 1374 707 1307T780 1137V1096Q780
953 676 842T426 730H416Q302 730 232 800T161 979V999L162 1010Q162 1153 265 1263T507 1374Z" />
<glyph unicode="&#xbb;" horiz-adv-x="1042" d="M222 847Q222 897 262 897H270Q302 897 388 784Q565 553 565 529V520Q565 504 369 321T138 138T103 179T243 361T383 522Q383 526 303 671T222 847ZM473 168Q473 203 618 358T764 521T679 676T594 865T636 907H645Q675
907 812 728T949 527V518Q949 496 741 312T503 128T473 160V168Z" />
<glyph unicode="&#xbc;" horiz-adv-x="1618" d="M1013 311T1013 309T1023 307H1147Q1227 307 1235 310Q1254 317 1254 364Q1262 404 1264 422Q1274 491 1282 539T1291 589T1296 615V626L1294 627Q1290 627 1152 469ZM368 590Q264 590 264 644Q264 675 305 704T362
778Q413 931 413 1151Q413 1204 377 1222Q313 1254 313 1262Q313 1283 356 1311Q461 1379 552 1379Q588 1379 588 1347V1327Q588 1311 577 1260T564 1198T533 1006T504 786T528 707T552 651T528 613T451 592L427 590H368ZM1345 1420H1362Q1404 1420 1404 1403Q1404
1353 509 92Q428 -22 367 -22Q324 -22 324 -6V7Q324 71 1241 1337Q1301 1420 1345 1420ZM1266 -4H1229Q1182 -4 1182 57Q1182 78 1192 112T1203 155T1172 186T1015 209T889 257V265Q889 295 1122 553T1395 811H1406Q1443 811 1443 759Q1443 732 1420 604T1397 407T1448
295Q1465 281 1465 270Q1465 230 1414 192T1363 122Q1363 -4 1266 -4Z" />
<glyph unicode="&#xbd;" horiz-adv-x="1681" d="M352 594Q286 594 286 639V657Q286 681 325 715T381 800Q428 948 428 1124Q428 1180 398 1210Q390 1218 361 1230T331 1262T374 1308Q492 1380 566 1380H576Q607 1380 607 1345V1335Q607 1316 595 1258T553 1013T523
791T542 720T562 661T532 616T432 592H385Q363 594 352 594ZM1314 1417T1366 1417T1418 1391Q1418 1378 1375 1315Q820 495 488 58Q425 -25 372 -25T319 -1Q319 16 402 133T509 285T599 414L621 444Q649 486 653 491L729 598Q755 634 765 649T803 704T837 753T870
799L892 829Q906 849 924 875L956 921Q965 934 978 952L1032 1029Q1093 1113 1154 1202T1264 1354ZM1405 601Q1405 643 1377 668T1298 693T1185 634T1111 574Q1084 574 1084 617Q1084 684 1162 740T1330 797H1350Q1434 797 1492 752T1551 616T1478 431Q1443 385
1319 275T1195 137Q1195 125 1272 125T1414 135T1480 145Q1502 145 1502 104T1464 35T1362 7L1343 8H1305L1249 10L1211 12L1173 13H1116Q988 13 988 45Q988 102 1130 225T1339 431T1405 601Z" />
<glyph unicode="&#xbe;" horiz-adv-x="1741" d="M1081 318H1276Q1314 318 1314 372L1318 396Q1323 419 1327 447T1332 484T1339 524T1345 566L1355 622V630L1354 632Q1350 632 1229 494L1223 486L1202 463Q1198 460 1188 448L1169 426Q1166 422 1163 419T1152
407L1077 321Q1077 318 1081 318ZM514 1388H552Q708 1388 708 1286V1270Q708 1185 593 1077Q555 1042 555 1032Q555 1028 575 1018Q693 962 693 848T599 649T369 565H351Q269 565 223 596T177 649V660Q177 700 236 700Q261 700 301 683T379 666Q452 666 504 714T557
827T525 922T432 969T372 1001T465 1086T558 1220T483 1284Q453 1284 392 1259T313 1233Q287 1233 287 1275T347 1352T514 1388ZM1416 1424H1433Q1475 1424 1475 1408Q1475 1373 573 84Q504 -14 441 -14Q399 -14 399 2Q399 38 1290 1311Q1369 1424 1416 1424ZM1327
11H1290Q1242 11 1242 69Q1242 93 1253 123T1264 166T1235 200T1080 221T955 273Q955 286 1179 548T1454 810H1464Q1499 810 1499 758Q1499 757 1477 609T1455 414T1471 347T1505 308T1522 285V279Q1522 239 1473 205T1423 133Q1423 11 1327 11Z" />
<glyph unicode="&#xbf;" horiz-adv-x="897" d="M623 1127H650Q686 1127 714 1104T743 1042V1015Q740 1003 740 985T710 930T647 893L616 888H596Q584 891 570 891T531 911T506 958L503 977V1000Q506 1012 506 1030T538 1088T623 1127ZM563 735Q630 735 630 620Q630
548 597 485T462 323T308 145T255 -11T296 -127T399 -166T550 -115T662 -63Q710 -63 710 -126T612 -249T384 -308H365Q230 -308 144 -235T57 -57V-39Q57 62 112 152T291 353T450 513T487 632T504 718T563 735Z" />
<glyph unicode="&#xc0;" horiz-adv-x="1369" d="M923 655V669L922 677Q922 732 900 854T876 995Q849 1203 833 1203Q823 1203 772 1106T694 966T595 786T522 643Q522 627 715 627L782 626H833Q923 626 923 655ZM1000 1546H986Q938 1546 877 1599Q666 1784 666
1830L667 1834Q667 1867 726 1867H750Q807 1867 852 1822Q1020 1654 1020 1574V1570Q1020 1546 1000 1546ZM893 1433H915Q977 1433 1013 1289Q1032 1213 1095 772L1104 718Q1111 670 1119 607L1138 440Q1145 380 1151 340T1194 243T1231 150T1183 78T1070 42Q941
42 941 116V117L949 151Q962 192 962 261Q962 413 898 463Q868 487 678 487T439 445T343 309T283 152T263 77Q237 41 161 41H139Q103 41 67 74T31 125Q31 175 81 224Q179 320 397 716T775 1343Q837 1433 893 1433Z" />
<glyph unicode="&#xc1;" horiz-adv-x="1367" d="M918 656V670L917 678Q917 753 894 885T863 1078T846 1171T831 1205Q822 1205 761 1090T608 821T515 641Q515 627 709 627L734 626H751Q918 626 918 656ZM774 1479H767Q753 1479 753 1497V1502Q753 1566 960 1752Q1061
1843 1126 1843T1191 1795Q1191 1716 1097 1647T895 1529T774 1479ZM856 1460T917 1460T1009 1343T1095 940T1163 539T1186 393T1225 316T1257 229T1208 155Q1160 122 1100 122Q986 122 985 197Q985 198 991 229T997 290Q997 446 932 507Q901 536 711 536T481 497Q421
439 358 304Q342 271 332 217T303 139T229 116H209Q171 116 138 146T104 212T159 302Q238 381 451 781T802 1382Q856 1460 917 1460Z" />
<glyph unicode="&#xc2;" horiz-adv-x="1365" d="M838 1193T834 1193T675 923T520 631Q520 619 654 619H841Q923 619 923 654V662Q921 676 921 685L907 798L901 839Q898 863 895 880T881 993T854 1141ZM669 1545H655Q633 1545 633 1563T784 1720T978 1859H985Q1024
1859 1086 1770Q1205 1598 1205 1573T1162 1548T1041 1634T947 1720Q944 1720 888 1677Q716 1545 669 1545ZM891 1424H913Q978 1424 1017 1254Q1033 1183 1054 1039L1068 927Q1074 877 1088 790T1116 598L1123 542L1129 487L1136 432Q1143 368 1149 331T1192 233T1228
157V137Q1228 100 1175 67T1053 33T951 65Q938 77 938 93T949 149T960 227Q960 402 896 454Q866 478 676 478T436 436T341 303T282 146T261 68Q237 32 158 32H137Q104 32 67 65T29 116Q29 146 757 1311Q828 1424 891 1424Z" />
<glyph unicode="&#xc3;" horiz-adv-x="1369" d="M837 1189T832 1189T800 1140T752 1057Q518 693 518 632Q518 616 702 616L804 615Q922 615 922 649V657L919 688Q919 923 845 1163Q837 1189 832 1189ZM1268 1742Q1268 1676 1194 1625T1057 1573T911 1614T790 1656T700
1613T624 1570T599 1592V1599Q599 1652 674 1716T821 1780H829Q887 1780 964 1734T1081 1687T1171 1729T1245 1771T1268 1749V1742ZM832 1422T884 1422T962 1391T1005 1293T1067 924T1115 595L1121 540L1128 484L1134 429Q1141 361 1148 323T1191 229T1227 139T1179
68T1057 30T950 62Q937 74 937 88T947 144T958 249Q958 400 894 452Q865 476 675 476T436 434T339 297T279 140T260 65Q236 29 169 29T65 62T28 114Q28 154 59 193Q230 407 415 743T771 1332Q832 1422 884 1422Z" />
<glyph unicode="&#xc4;" horiz-adv-x="1365" d="M516 634Q516 620 657 620H843Q916 620 916 649V663L915 671Q915 733 878 943L877 951L871 985L870 994L869 1002L866 1019Q845 1195 828 1195Q823 1195 798 1149T743 1052Q516 674 516 634ZM782 1801Q860 1801
860 1738L863 1722V1701Q858 1681 858 1670T830 1623T743 1587H740Q656 1587 656 1647Q654 1653 654 1657L652 1673V1680L656 1708Q656 1737 686 1767T744 1798L764 1801H782ZM1097 1558H1061L1042 1562Q996 1562 996 1624L993 1645V1655Q993 1697 1044 1739T1139
1782H1165Q1171 1780 1175 1780Q1219 1780 1219 1723V1693L1214 1657Q1214 1637 1181 1598T1097 1558ZM892 1432H914Q971 1432 1008 1288Q1011 1277 1061 974T1131 522T1155 341T1196 252T1232 161T1196 100Q1135 55 1075 55Q947 55 947 129L950 145Q966 217 966
246Q966 415 900 469Q870 493 682 493T450 456Q385 400 322 259Q304 220 291 160T272 91Q248 54 184 54T84 86T48 139Q48 187 97 236Q185 324 409 732T775 1344Q836 1432 892 1432Z" />
<glyph unicode="&#xc5;" horiz-adv-x="1365" d="M927 1821T911 1821T866 1786T837 1721V1693Q837 1659 862 1634T917 1609H938Q971 1609 1004 1642T1037 1716V1740Q1034 1749 1034 1764T1008 1801T966 1822L959 1824H936Q927 1821 911 1821ZM890 630Q932 630 932
663V670Q932 887 849 1177Q842 1201 835 1201T792 1134T711 986T597 776T527 636T715 627L740 626H816L825 627L874 629Q882 630 890 630ZM746 1683V1714Q748 1726 748 1732Q748 1789 810 1844T926 1900L938 1902H975Q1038 1902 1083 1851T1129 1738V1732Q1126
1714 1126 1701Q1126 1644 1063 1588T930 1531H905Q852 1531 799 1572T746 1683ZM1070 32Q934 32 934 94Q934 103 950 150T967 256Q967 421 913 475Q885 503 691 503T448 467T317 261Q291 207 283 145T263 68Q239 36 173 36T69 67T32 127T68 200Q196 352 389 703T762
1326Q834 1435 901 1435Q949 1435 971 1405T1021 1269T1098 769T1158 323T1205 228T1241 141T1182 66T1070 32Z" />
<glyph unicode="&#xc6;" horiz-adv-x="1841" d="M875 609Q914 609 914 657Q914 673 956 840T1012 1046T1047 1131T1067 1186V1199Q1067 1230 1052 1230H1046Q1026 1230 929 1056Q906 1014 884 958T847 879T731 766T629 666V655Q629 618 765 618L841 609H875ZM1805
1293V1271Q1805 1228 1752 1228Q1728 1228 1637 1248T1485 1269Q1370 1269 1322 1204Q1244 1099 1244 936Q1244 874 1277 849T1352 824T1441 832L1511 844Q1568 844 1600 814T1632 759Q1632 634 1550 634Q1547 634 1494 648T1409 662Q1244 662 1190 587T1135 344Q1135
256 1180 215T1350 174Q1392 174 1500 206T1621 239Q1663 239 1663 169T1613 73T1451 47H1359Q979 47 916 65T853 151L860 181L880 251Q902 335 902 369Q902 456 851 478Q826 489 716 489T530 427Q480 386 299 87Q280 56 234 56T149 84T109 149T172 247T484 653T802
1089T902 1236T946 1309Q985 1355 1060 1366Q1093 1371 1237 1371L1654 1384Q1720 1384 1762 1362T1805 1293Z" />
<glyph unicode="&#xc7;" horiz-adv-x="1313" d="M139 583Q139 738 196 901T364 1188T622 1385T920 1457H984Q1159 1457 1258 1403Q1298 1381 1331 1333T1365 1252T1344 1196T1302 1172T1206 1214T1063 1275T887 1294Q780 1294 684 1238Q477 1117 394 834Q360 716
360 592Q360 364 461 250T739 136Q874 136 1061 224Q1150 266 1153 266Q1200 266 1200 226T1164 136Q1050 -22 733 -22Q731 -22 729 -22H696Q436 -22 278 156Q139 313 139 583ZM559 -423H545Q455 -423 455 -385V-369Q455 -343 507 -343T593 -313T628 -250T597 -190T565
-151Q565 -110 606 -54Q625 -28 663 -28H682Q702 -28 702 -71Q702 -89 742 -129T783 -216V-223L782 -230Q782 -296 719 -359T559 -423Z" />
<glyph unicode="&#xc8;" horiz-adv-x="1191" d="M894 1554H885L880 1555Q828 1555 767 1608Q571 1780 571 1824V1837Q571 1872 638 1872H673Q719 1872 754 1837T855 1704T920 1590V1577Q920 1554 894 1554ZM513 915Q513 829 675 829Q720 829 785 844T876 859T928
835T956 756T928 661T848 620Q828 620 770 641T633 663Q492 663 446 593T400 278Q400 204 440 176T588 147T811 182L983 234Q1037 234 1037 194Q1037 68 938 32Q882 12 556 12H476Q195 12 143 27T90 80T130 168T187 290Q362 1019 362 1232Q362 1252 340 1297T318
1362Q318 1395 384 1408Q487 1428 845 1428H1005Q1116 1428 1147 1414Q1195 1392 1195 1338T1173 1253T1127 1223T1058 1240T926 1276T745 1294T593 1216Q567 1181 540 1080T513 915Z" />
<glyph unicode="&#xc9;" horiz-adv-x="1190" d="M1115 1843V1830Q1115 1795 913 1638Q804 1553 748 1553H733Q709 1553 709 1569V1582Q709 1641 894 1803Q966 1866 1010 1866L1037 1869H1048Q1115 1869 1115 1843ZM513 915Q513 829 674 829Q719 829 784 844T874
859T927 836T956 757T927 661T861 620T769 641T633 663Q492 663 446 593T400 278Q400 203 439 174T593 145T905 212Q967 233 982 233Q1036 233 1036 169Q1036 125 1010 86T933 30T636 12H398Q191 12 141 26T90 80T130 168T188 291Q363 1030 363 1233Q363 1250 341
1296T318 1363Q318 1396 403 1412T845 1429H1005Q1117 1429 1147 1415Q1194 1393 1194 1338T1172 1253T1115 1224Q1107 1224 1061 1241T927 1277T745 1296T593 1217Q568 1182 541 1080T513 915Z" />
<glyph unicode="&#xca;" horiz-adv-x="1189" d="M624 1555T581 1555T537 1575T687 1733T880 1871T960 1823Q1106 1633 1106 1588V1582Q1106 1556 1062 1556T941 1639T847 1723Q842 1723 784 1678Q624 1555 581 1555ZM513 911Q513 825 675 825Q720 825 785 840T876
855T928 831T956 752T928 657T848 616Q828 616 770 637T633 659Q492 659 446 589T400 274Q400 200 440 172T588 143T811 178L983 230Q1037 230 1037 190Q1037 64 938 28Q882 8 556 8H476Q195 8 143 23T90 76T130 164T187 286Q362 1015 362 1228Q362 1248 340 1293T318
1358Q318 1391 384 1404Q487 1424 845 1424H1005Q1116 1424 1147 1410Q1195 1388 1195 1334T1173 1249T1127 1219T1058 1236T926 1272T745 1290T593 1212Q567 1177 540 1076T513 911Z" />
<glyph unicode="&#xcb;" horiz-adv-x="1189" d="M770 1726V1695L765 1672Q765 1649 736 1620T683 1591Q674 1588 670 1588L649 1586L646 1587H635Q620 1590 618 1590Q559 1590 559 1673L560 1677Q560 1732 592 1764T652 1797L673 1800H690Q724 1800 747 1777T770
1726ZM1142 1700Q1142 1656 1108 1622T1035 1587H1007L987 1591Q934 1591 934 1647L931 1663V1687L936 1714Q936 1738 966 1768T1026 1798Q1034 1800 1036 1800L1050 1801H1054L1057 1800Q1138 1800 1138 1740Q1141 1731 1141 1730L1142 1717V1700ZM520 915Q520
829 682 829Q726 829 790 843T882 858T936 835T963 756T935 660T855 619Q837 619 778 641T641 663Q500 663 454 593T407 278Q407 204 447 175T594 146T844 190T990 234Q1044 234 1044 194Q1044 67 945 31Q891 12 563 12H483Q202 12 150 27T97 80T137 168T194 290Q370
1023 370 1200Q370 1249 348 1295T325 1362Q325 1395 409 1411T852 1428H972Q1123 1428 1154 1414Q1202 1392 1202 1338T1180 1254T1134 1223Q1133 1223 1132 1223Q1108 1223 1064 1240Q923 1294 761 1294Q657 1294 601 1216Q573 1177 547 1078T520 915Z" />
<glyph unicode="&#xcc;" horiz-adv-x="649" d="M617 1577V1568Q617 1547 590 1547H585L580 1548H576Q521 1548 450 1610Q267 1770 267 1815V1824Q267 1861 335 1861H371Q425 1861 470 1810Q617 1642 617 1577ZM222 10Q85 10 85 80Q85 106 133 156T197 273T240
491T273 673T287 755T300 839T309 899T334 1035T356 1185T327 1260T298 1333Q298 1421 537 1421H556Q658 1421 658 1365Q658 1331 616 1289T560 1195T468 703T389 230T416 158T443 87T402 32T294 10H222Z" />
<glyph unicode="&#xcd;" horiz-adv-x="654" d="M753 1860Q818 1860 818 1833V1829Q818 1786 665 1667T454 1547H438Q411 1547 411 1565V1569Q411 1584 434 1614Q538 1748 601 1803T715 1858L726 1860H753ZM247 9Q92 9 92 76Q92 105 140 156T209 293T296 777T363
1201T334 1262T304 1326Q304 1422 544 1422H562Q666 1422 666 1366Q666 1333 622 1289T565 1192T475 701T396 231T423 157T451 85T409 32T283 9H247Z" />
<glyph unicode="&#xce;" horiz-adv-x="658" d="M277 1548H263Q238 1548 238 1569Q238 1578 379 1719T572 1861T654 1819Q806 1616 806 1574Q806 1549 762 1549T637 1630T548 1712T486 1670Q328 1548 277 1548ZM240 6Q85 6 85 73Q85 104 132 151T195 255Q223 360
290 772T357 1201T328 1257T298 1322Q298 1417 519 1417H556Q659 1417 659 1361Q659 1328 616 1285T563 1203T498 853T416 414T389 239T416 154T443 86T410 32T294 6H240Z" />
<glyph unicode="&#xcf;" horiz-adv-x="655" d="M471 1708V1698Q471 1655 440 1616T355 1577H345Q307 1577 285 1599T262 1650V1681Q265 1690 265 1704T294 1755T376 1792H383Q417 1792 444 1771T471 1708ZM735 1792H759Q835 1792 835 1730Q837 1724 837 1720L839
1704V1697L834 1666Q834 1649 807 1616T752 1582L718 1577Q682 1577 656 1598T629 1659V1669L634 1704Q634 1729 665 1760T735 1792ZM247 7Q93 7 93 74Q93 108 140 152T206 269T267 588L274 628L316 878Q321 920 343 1037T366 1187T336 1259T306 1323Q306 1418
509 1418H564Q667 1418 667 1362Q667 1330 625 1290T570 1205T476 703T396 219T423 152T451 91Q451 7 284 7H247Z" />
<glyph unicode="&#xd0;" horiz-adv-x="1419" d="M1179 815V855Q1179 1055 1069 1173T753 1292Q608 1292 575 1240Q555 1208 526 1072T496 874T529 799T637 780T726 770Q760 761 760 723T732 670T622 656Q475 656 450 603Q442 586 410 408T378 206V189Q378 131
474 131H553Q825 131 1000 326Q1083 418 1131 551T1179 815ZM92 49Q92 59 133 122T189 244Q246 472 246 609Q246 653 188 660T129 713Q129 766 201 785T288 830T323 995T343 1185T324 1281T305 1346T320 1377Q370 1415 693 1415H771Q1073 1415 1239 1249Q1384 1104
1384 852V825Q1384 668 1320 505Q1191 178 847 56Q703 5 490 5H360L189 9Q92 9 92 49Z" />
<glyph unicode="&#xd1;" horiz-adv-x="1499" d="M863 1790H887Q931 1790 1005 1746T1121 1701T1210 1741T1285 1781T1312 1755Q1312 1698 1244 1635T1095 1572L1087 1573Q1041 1573 960 1618T840 1664T752 1624T677 1583T650 1609Q650 1662 720 1726T863 1790ZM1440
1403Q1531 1403 1531 1310Q1531 1286 1488 1231T1419 1085T1356 782T1299 470T1258 223L1240 94Q1225 26 1187 26H1157Q1099 26 995 195Q972 232 761 650T506 1069Q491 1069 483 1046T413 699T352 325T361 227L369 194L375 164Q375 27 158 27Q95 27 95 77Q95 111
137 174T199 319T258 628T325 998T354 1194T340 1290T325 1351Q325 1394 400 1394Q548 1394 667 1235Q728 1153 924 762T1139 370L1151 391Q1164 429 1218 735T1272 1158L1269 1194Q1263 1254 1263 1262Q1263 1403 1440 1403Z" />
<glyph unicode="&#xd2;" horiz-adv-x="1477" d="M1243 841V909Q1243 1087 1145 1208T898 1329H881Q672 1329 516 1135Q437 1037 389 901T340 638V587Q340 393 437 271T703 149Q910 149 1068 345Q1149 445 1196 582T1243 841ZM1015 1542H1006Q957 1542 895 1596Q683
1782 683 1822L684 1826Q684 1858 744 1858H774Q827 1858 875 1810T982 1673T1042 1568L1041 1563V1559Q1041 1542 1015 1542ZM1449 893V848Q1449 701 1393 542T1226 258T972 67T690 0Q441 0 296 145Q219 222 177 334T135 560V606Q135 756 192 912Q311 1240 595
1380Q743 1454 889 1454H935Q1045 1454 1142 1409Q1326 1324 1404 1130Q1449 1017 1449 893Z" />
<glyph unicode="&#xd3;" horiz-adv-x="1478" d="M1247 861V895L1246 912Q1246 1085 1152 1208T917 1331H865Q780 1331 677 1275T494 1104T376 857T339 618V584Q339 396 434 272T670 148H704Q923 148 1089 373Q1161 470 1204 604T1247 861ZM1148 1858H1169Q1230
1858 1230 1834V1830Q1230 1793 1112 1701Q904 1539 854 1539H839Q815 1539 815 1555V1563Q815 1620 1022 1801Q1087 1858 1148 1858ZM1446 826Q1446 674 1381 518Q1248 199 968 65Q831 0 693 0H647Q538 0 440 45Q252 132 178 322Q132 440 132 560V605Q132 755
192 918Q250 1081 362 1204Q590 1455 909 1455Q1151 1455 1301 1294Q1376 1214 1411 1102T1447 871L1446 848V826Z" />
<glyph unicode="&#xd4;" horiz-adv-x="1477" d="M714 143Q802 143 902 195Q1002 248 1080 352Q1248 579 1248 860V877Q1248 977 1220 1063Q1136 1322 891 1322H874Q774 1322 676 1265T504 1108T385 875T339 602L340 585Q340 390 433 267T679 143H714ZM649 1561Q649
1574 799 1711T992 1849T1069 1813Q1223 1644 1223 1577Q1223 1550 1176 1550T1049 1630T961 1711T841 1625T678 1539Q649 1539 649 1556V1561ZM1449 886V840Q1449 691 1390 529T1221 246T973 60T696 -7H649Q540 -6 444 38Q250 128 173 336Q135 440 135 553V598Q135
749 193 908T360 1191T611 1380T888 1446H935Q1032 1446 1132 1406Q1329 1327 1411 1102Q1449 998 1449 886Z" />
<glyph unicode="&#xd5;" horiz-adv-x="1477" d="M1247 847V899Q1247 986 1216 1070Q1126 1314 899 1315H882Q768 1315 670 1255Q473 1135 390 888Q339 740 339 606V572Q339 387 434 262Q476 206 540 172T671 138H722Q828 138 924 202Q1122 333 1207 597Q1247 721
1247 847ZM1067 1572H1059L1051 1573Q1001 1573 925 1616T808 1659T717 1616T639 1573T613 1598Q613 1660 687 1717T842 1774Q887 1774 972 1732T1089 1689T1173 1732T1244 1776Q1277 1776 1277 1750Q1277 1683 1205 1628T1067 1572ZM1448 880V835Q1448 684 1390
526T1227 248T982 59T695 -12H649Q428 -12 280 148Q208 225 171 333T134 547V593Q134 755 197 918T370 1198T617 1378T888 1441H934Q1038 1441 1136 1398Q1330 1313 1410 1097Q1448 993 1448 880Z" />
<glyph unicode="&#xd6;" horiz-adv-x="1477" d="M1243 844V895Q1243 1076 1147 1202Q1101 1262 1036 1291T907 1321H872Q780 1321 681 1268Q484 1162 383 870Q340 745 340 604L341 587Q341 382 438 262T695 142Q908 142 1062 333Q1145 436 1194 573T1243 844ZM767
1794H792Q869 1794 869 1730L872 1713V1693Q869 1681 869 1664T838 1615T781 1584Q775 1582 771 1582L754 1580H747Q712 1580 686 1601T660 1661V1675L664 1702Q664 1730 696 1762T767 1794ZM1148 1789H1165Q1235 1789 1235 1719V1695Q1235 1651 1199 1608T1106
1564H1103L1099 1565H1092L1080 1567Q1027 1567 1027 1634V1655L1031 1680Q1031 1708 1065 1748T1148 1789ZM1449 886V841Q1449 690 1391 532T1227 253T980 63T696 -6H650Q550 -6 452 34T280 155T171 341T135 553V599Q135 760 197 920T364 1194T605 1378T889 1447H935Q1040
1447 1138 1404Q1332 1319 1411 1103Q1449 999 1449 886Z" />
<glyph unicode="&#xd7;" horiz-adv-x="1085" d="M906 286T906 268T876 222T831 194Q800 194 683 324T557 455T406 323T243 190T197 217T172 264T317 415T463 563T351 710T238 867Q238 880 268 908T312 936Q342 936 459 805T583 674Q597 674 736 808T904 942Q920
942 944 915T968 869Q968 839 824 715T679 570T792 418Z" />
<glyph unicode="&#xd8;" horiz-adv-x="1467" d="M348 623V552Q348 416 399 327Q416 298 429 298Q474 298 748 653Q922 879 1052 1108Q1084 1165 1084 1177V1189Q1084 1239 1036 1274T926 1309H899Q792 1309 689 1254T513 1099T394 868T348 623ZM618 124H653Q754
124 860 200Q1060 343 1162 636Q1222 809 1222 954V967Q1222 1131 1178 1131Q1160 1131 1026 926T709 468T525 211V201Q525 180 551 152T618 124ZM623 -9L419 9Q365 9 332 0T288 -9Q214 -9 214 63Q214 74 231 125T248 205T228 288Q180 416 180 564Q180 716 234
884Q287 1050 393 1170T658 1359T971 1427L1167 1412Q1213 1412 1245 1424T1290 1436H1304Q1369 1436 1369 1372L1368 1356L1360 1320Q1353 1277 1353 1250Q1353 1222 1372 1170Q1431 1007 1431 889V863Q1431 695 1370 532T1205 252T959 63T673 -9H623Z" />
<glyph unicode="&#xd9;" horiz-adv-x="1431" d="M992 1553H978Q925 1553 829 1637Q669 1777 669 1826V1830Q669 1869 742 1869H767Q777 1867 782 1867Q828 1867 881 1806Q1018 1649 1018 1588V1571Q1018 1553 992 1553ZM431 1410Q590 1410 590 1348Q590 1323 564
1267T532 1188T471 804T416 430Q416 286 496 214T698 142T908 204T1047 371T1160 787T1223 1184Q1223 1196 1214 1243L1208 1271Q1198 1312 1198 1323Q1198 1379 1241 1396T1348 1414T1438 1383T1466 1313T1424 1209T1370 1100T1306 741T1179 290T980 84T708 12H671Q453
12 338 123T223 449Q223 532 254 733T302 1025T320 1149T298 1224T276 1287Q276 1355 341 1395Q366 1410 431 1410Z" />
<glyph unicode="&#xda;" horiz-adv-x="1432" d="M1235 1839V1831Q1235 1793 1081 1673T864 1552H854Q827 1552 827 1570V1578Q827 1641 1026 1815Q1083 1865 1148 1865H1170Q1235 1865 1235 1839ZM1373 1416Q1415 1416 1441 1386T1467 1317T1425 1212T1370 1099T1325
844T1264 514T1170 272T979 81T704 11H667Q474 11 360 104Q293 159 259 242T225 419V455Q225 457 225 459Q225 608 302 1022Q323 1136 323 1159T300 1220Q276 1262 276 1293Q276 1357 347 1396Q372 1410 452 1410T562 1389T592 1344T563 1264T525 1163Q416 593
416 437T509 201Q581 140 701 140Q934 140 1052 374Q1099 466 1160 778T1222 1186L1200 1326Q1200 1381 1242 1398T1373 1416Z" />
<glyph unicode="&#xdb;" horiz-adv-x="1431" d="M697 1553H683Q657 1553 657 1574Q657 1581 799 1723T992 1865H1007Q1047 1865 1107 1779Q1226 1607 1226 1585V1579Q1226 1554 1183 1554T1059 1635T969 1717T912 1680Q747 1553 697 1553ZM416 426Q416 282 496
210Q578 138 698 137Q935 137 1048 368Q1098 469 1160 782T1223 1180Q1223 1192 1214 1239L1208 1267Q1198 1308 1198 1318Q1198 1375 1241 1392T1348 1410T1438 1379T1466 1309T1424 1205T1370 1098T1306 738T1180 287T983 81T708 8H670Q454 8 338 118Q223 228
223 445Q223 527 254 728T302 1020T320 1144T298 1219T276 1283Q276 1351 341 1391Q366 1406 448 1406T560 1385T590 1341T564 1262T532 1184T471 804T416 426Z" />
<glyph unicode="&#xdc;" horiz-adv-x="1431" d="M746 1583Q670 1583 670 1644L667 1657V1677Q667 1729 701 1763T773 1797H801Q832 1797 855 1774T879 1713V1703L875 1675Q875 1648 844 1617T784 1586L764 1583H746ZM1252 1704Q1252 1704 1249 1677Q1249 1649
1216 1616T1139 1583H1125Q1087 1583 1064 1606T1040 1660V1684Q1040 1722 1069 1757T1125 1793L1152 1798H1170Q1205 1798 1229 1774T1253 1711V1708L1252 1704ZM419 427Q419 282 500 211T702 139Q936 139 1052 369Q1099 464 1162 780T1226 1181Q1226 1193 1217
1240L1212 1268Q1201 1317 1201 1320Q1201 1375 1244 1393T1351 1411T1442 1381T1470 1311T1428 1206T1375 1100T1323 818T1253 462T1152 237T961 68T712 9H674Q358 9 263 234Q227 319 227 410V483Q227 505 255 706T304 1009T324 1145T302 1223T279 1284Q279 1352
345 1392Q370 1407 452 1407T564 1386T594 1343T568 1265T535 1185T474 801T419 427Z" />
<glyph unicode="&#xdd;" horiz-adv-x="1260" d="M1131 1832V1819Q1131 1782 976 1662T764 1541H749Q725 1541 725 1557V1565Q725 1575 749 1611Q816 1712 899 1785T1041 1858H1058Q1131 1858 1131 1832ZM516 17Q514 17 513 17Q391 17 391 94Q391 122 431 178Q521
302 521 565Q521 712 399 1026Q347 1161 325 1191T282 1243L250 1276Q215 1316 215 1341Q215 1377 320 1377T470 1353T514 1266T663 872Q686 821 698 821Q742 821 988 1159Q1028 1213 1041 1268T1075 1343Q1123 1391 1259 1391Q1316 1391 1316 1370V1357Q1316 1349
1208 1247Q1161 1203 1006 976T807 673T731 468T698 277T718 168T739 104Q739 67 694 42T571 16L544 17H516Z" />
<glyph unicode="&#xde;" horiz-adv-x="1140" d="M968 808V839Q968 944 891 1004T701 1065H682Q562 1065 539 1012Q525 981 516 915T472 689T438 480V471Q438 441 511 441H549Q641 441 725 472T859 552Q968 661 968 808ZM251 14Q103 14 103 68Q103 99 152 160T221
304T344 968Q373 1131 373 1208Q373 1234 349 1278T324 1353Q324 1411 441 1411H463Q547 1411 622 1371Q668 1346 668 1285T724 1192Q725 1192 867 1149Q1010 1106 1058 1063Q1163 970 1163 830V827V802Q1163 706 1117 616Q988 366 611 344Q550 340 527 333T464
286T425 211L440 143Q440 86 384 50T251 14Z" />
<glyph unicode="&#xdf;" horiz-adv-x="1150" d="M848 1170Q848 1207 819 1234T752 1262Q615 1262 499 1032Q441 916 374 536T256 21T152 -173T28 -232T-43 -172Q-43 -156 14 -84Q124 58 176 487Q187 579 202 718T222 877Q238 961 307 1096T507 1335T769 1439T979
1368T1058 1197T961 981T864 777Q864 727 960 589T1056 330T958 108Q842 -10 660 -10Q578 -10 523 20T468 87Q468 150 554 150L583 147Q645 139 651 139Q759 139 811 200T864 340T768 553T671 768T759 978T848 1170Z" />
<glyph unicode="&#xe0;" horiz-adv-x="1069" d="M277 416V376Q277 284 315 226T418 168H427Q488 168 560 221T676 355Q766 525 766 711V758Q766 874 637 874H618Q563 874 498 837T387 735Q277 575 277 416ZM520 1469H540Q609 1469 642 1419Q777 1216 777 1145L776
1140V1136Q776 1116 746 1116H732Q700 1116 580 1253T460 1430V1438Q460 1469 520 1469ZM90 326V366Q90 480 139 594Q239 827 436 929Q527 976 617 976H635Q663 976 761 955T892 933Q976 933 976 868V855Q976 826 935 610T894 337T928 238T963 156T925 88T818 59Q784
59 733 107T644 156Q630 156 531 102T348 47H331Q231 47 161 123T90 326Z" />
<glyph unicode="&#xe1;" horiz-adv-x="1069" d="M276 414V374Q276 288 312 228T409 168H427Q478 168 550 218T666 344Q769 527 769 727V746Q769 822 739 850T646 878H617Q548 878 485 832T381 726Q276 573 276 414ZM624 1118H614Q583 1118 583 1133V1137Q583 1190
777 1412Q823 1464 896 1464H901Q969 1464 969 1437Q969 1398 812 1258T624 1118ZM971 870V856Q971 833 931 614T890 339T924 240T959 158T920 89T829 60T729 108T640 157Q628 157 526 103T345 48H328Q219 48 153 129T86 335T128 574T242 777T414 922T612 979H630Q673
979 759 958T889 936Q971 936 971 870Z" />
<glyph unicode="&#xe2;" horiz-adv-x="1069" d="M278 412V363Q278 282 314 223T406 163H433Q472 163 536 199Q668 273 732 477Q771 601 771 700V747Q771 814 737 841T636 868H626Q511 868 406 747Q352 684 315 585T278 412ZM746 1466Q788 1466 816 1426Q958 1221
958 1149Q958 1124 917 1124T802 1220T721 1316Q708 1316 603 1219T451 1122H443Q414 1122 414 1140V1145Q414 1163 565 1314T746 1466ZM91 320V359Q91 470 139 586Q238 824 437 923Q531 970 618 970H636Q674 970 762 948T906 926Q977 926 977 862V848Q977 820
936 604T895 331T929 232T964 150T925 82T837 52T735 100T645 149Q629 149 530 95T327 40T158 121T91 320Z" />
<glyph unicode="&#xe3;" horiz-adv-x="1069" d="M276 404V374Q276 284 312 224T414 164H432Q468 164 534 199Q664 268 734 490Q770 604 770 694V759Q770 867 643 867H624Q508 867 404 747Q353 688 315 590T276 404ZM816 1153H808Q756 1153 677 1197T559 1242T467
1201T392 1159T370 1178V1185Q370 1238 442 1299T583 1361T726 1317T838 1272T925 1312T998 1353T1022 1332V1325Q1022 1272 957 1213T816 1153ZM975 863V850Q975 816 934 600T893 328T928 233T963 153T924 84T818 54Q783 54 732 102T644 151Q631 151 529 97T348
42H330Q228 42 158 120Q89 197 89 324Q89 591 256 784Q332 872 431 921T616 971H634Q667 971 762 950T892 928Q975 928 975 863Z" />
<glyph unicode="&#xe4;" horiz-adv-x="1070" d="M280 421V372Q280 290 316 230T416 170H434Q481 170 551 217T660 329Q769 514 769 709V765Q769 817 740 846T635 875H625Q573 875 512 843T398 744T312 581T280 421ZM532 1389H556Q568 1386 573 1386Q635 1386 635
1310V1286Q635 1250 605 1212T528 1174H504Q492 1177 487 1177Q426 1177 426 1259V1269L431 1300Q431 1326 462 1357T532 1389ZM994 1307V1296Q994 1235 956 1197T879 1159H863Q835 1159 812 1182T789 1245V1261L790 1264V1271Q792 1277 792 1291T823 1342T888
1380L909 1383H926Q994 1383 994 1307ZM93 328V368Q93 474 139 589Q235 829 439 931Q533 978 619 978H638Q666 978 764 957T904 935T962 918T979 851T938 611T897 352T931 240T966 159T927 91T821 61Q787 61 736 109T647 158Q634 158 532 104T351 49H334Q234 49
164 125T93 328Z" />
<glyph unicode="&#xe5;" horiz-adv-x="1068" d="M812 1313V1337Q812 1370 786 1396T731 1422H711L691 1418Q674 1418 642 1386T610 1311V1294L611 1290V1283Q613 1277 613 1266T637 1230T698 1205H705L731 1209Q749 1209 780 1240T812 1313ZM273 422V362Q273 278
311 220T405 162H432Q485 162 557 215T670 337T740 518T770 734V743Q770 812 744 843T643 874H624L614 873Q498 873 400 752Q342 681 308 587T273 422ZM706 1123H680Q618 1123 567 1169T515 1284V1303Q515 1373 573 1438T704 1503L717 1505H742Q803 1505 855 1459T907
1350V1318Q907 1248 845 1186T706 1123ZM89 332V371Q89 465 130 579T244 781T416 925T615 983H633Q661 983 756 962T891 940Q974 940 974 874V846Q974 826 934 612T893 343T927 245T962 164T924 95T836 64T733 113T644 163Q633 163 530 108T348 53H331Q230 53 160
129T89 332Z" />
<glyph unicode="&#xe6;" horiz-adv-x="1429" d="M316 340V331Q316 258 345 210T433 161H442Q480 161 545 201T646 303Q661 328 727 527T794 776V784Q794 802 767 825T673 848L664 847Q537 847 427 687T316 340ZM918 569Q918 538 953 538H959L974 540Q1087 540
1183 614T1279 767V801Q1279 875 1195 875H1171Q1096 875 1006 774T916 584V580Q918 574 918 569ZM1357 209Q1357 152 1238 86T1026 20T879 47T775 130T708 187T566 108T346 28T190 104T129 292V319Q129 431 179 549T314 756Q485 936 723 936Q769 936 816 942T885
949T941 932T990 914T1076 941T1220 969H1246Q1343 969 1396 914T1450 782V757Q1450 645 1372 586Q1271 510 1057 457Q957 432 944 425Q899 401 899 332T948 211T1067 160T1231 196T1341 232T1357 209Z" />
<glyph unicode="&#xe7;" horiz-adv-x="930" d="M105 361V405Q105 407 105 409Q105 516 154 631Q257 874 474 965Q562 1002 660 1002T821 969Q925 914 925 857Q925 828 904 801T853 774T758 813T631 853Q497 853 404 721T311 397Q311 277 368 208T524 139Q588 139
684 173T802 208Q832 208 832 159Q832 104 714 43T493 -18Q298 -18 202 90T105 361ZM372 -426H342Q257 -426 257 -384V-378Q257 -344 315 -344T402 -315T432 -252T401 -195T369 -152Q369 -101 416 -49Q432 -31 471 -31H491Q503 -31 503 -75Q503 -96 545 -133T588
-224V-231Q588 -304 521 -365T372 -426Z" />
<glyph unicode="&#xe8;" horiz-adv-x="919" d="M317 593V583L318 578Q318 554 350 554H356Q368 556 374 556Q483 556 635 632Q735 682 735 752V757Q735 811 702 848T617 886H593Q581 884 575 884Q498 884 408 783T317 593ZM701 1119H676Q634 1119 568 1194Q415
1369 415 1434V1443Q415 1476 475 1476H504L523 1473Q567 1473 605 1404Q723 1192 723 1144V1140Q723 1119 701 1119ZM457 22H416Q274 22 188 122T102 378V398Q102 512 150 628Q246 858 442 948Q534 990 631 990H651Q755 990 826 927T898 757T816 591Q701 507 462
460Q369 442 337 423T304 332T362 213T490 166T654 202T757 238Q794 238 794 205Q794 152 678 87T457 22Z" />
<glyph unicode="&#xe9;" horiz-adv-x="919" d="M628 889H598Q502 889 408 783T313 586V580Q313 553 337 553H354Q466 553 634 637Q736 688 736 752V775Q736 814 707 851T628 889ZM893 1465Q927 1465 927 1445V1441Q927 1412 781 1266T596 1119H577Q546 1119 546
1134V1138Q546 1182 713 1397Q767 1467 850 1467H878Q888 1465 893 1465ZM436 22Q281 22 190 117T98 376V396Q98 503 140 614T258 814T432 947T624 992H644Q750 992 822 930T894 761T816 596Q708 516 457 463Q363 443 332 424T300 327T376 197Q422 166 492 166T649
202T763 238T790 208Q790 145 667 84T436 22Z" />
<glyph unicode="&#xea;" horiz-adv-x="919" d="M579 877Q503 877 410 773T317 578L318 573Q318 545 351 545L357 546Q463 546 643 628Q740 672 740 738V750L739 756Q739 801 710 839T633 877L621 879H597Q585 877 579 877ZM698 1475H705Q739 1475 769 1432Q775
1423 789 1393L835 1299L847 1277L854 1262L862 1247L865 1239Q899 1171 899 1156V1149Q899 1120 856 1120T755 1195Q753 1197 716 1250T672 1304Q657 1304 557 1212T403 1119H396Q366 1119 366 1139V1145Q366 1163 434 1231T531 1333Q651 1475 698 1475ZM103 351V391Q103
494 145 605T261 802T432 935T642 983T827 919T899 747T799 571T462 453Q367 433 343 419Q305 398 305 325T362 206T493 159T652 194T770 230Q795 230 795 198Q795 131 644 62Q539 14 437 14H417Q289 14 196 107T103 351Z" />
<glyph unicode="&#xeb;" horiz-adv-x="920" d="M323 593V578Q323 555 350 555H362L368 556Q468 556 635 632Q741 680 741 748V765Q741 810 712 848T630 886H599Q507 886 415 783T323 593ZM455 1175Q422 1175 400 1197T377 1260V1267L378 1271L381 1295Q382 1299
382 1309T409 1354T472 1389L479 1391H510Q582 1391 582 1326L585 1306V1295L584 1292Q584 1242 552 1210T492 1178L472 1175H455ZM939 1284Q939 1234 910 1199T859 1164Q853 1162 850 1162L838 1160H821Q812 1163 799 1163T760 1188T734 1245V1271Q734 1305 768
1345T840 1386L846 1388H869Q934 1388 934 1330Q937 1320 937 1316L939 1299V1284ZM443 23H423Q290 23 199 118T108 380Q108 621 261 805Q334 893 433 942T645 992T831 930T904 762V743Q904 656 829 598Q728 521 468 462Q372 441 349 428Q310 406 310 334T368 215T498
168T657 203T775 239Q801 239 801 207Q801 143 649 71Q547 23 443 23Z" />
<glyph unicode="&#xec;" horiz-adv-x="549" d="M471 1132V1124Q471 1105 437 1105H433Q387 1105 336 1163Q162 1362 162 1420V1429Q162 1460 221 1460H256Q320 1460 344 1416Q471 1187 471 1132ZM435 902V877Q435 863 389 606T343 298T381 214T419 162Q419 112
362 70T218 28H194Q130 28 130 107V130Q130 176 178 428T227 717T203 803T178 879T225 936T354 966T435 902Z" />
<glyph unicode="&#xed;" horiz-adv-x="552" d="M597 1454H617Q686 1454 686 1425V1421Q686 1391 544 1249T358 1106H348Q309 1106 309 1125V1129Q309 1193 494 1404Q538 1454 597 1454ZM450 903V878Q450 859 403 606T356 299T393 213T431 162Q431 115 375 71T217
27Q141 27 141 119Q141 164 191 426T242 724T218 809T193 861Q193 906 241 936T366 967H388Q450 967 450 903Z" />
<glyph unicode="&#xee;" horiz-adv-x="562" d="M410 1458T454 1458T532 1397Q653 1170 653 1143V1137Q653 1115 616 1115H609Q560 1115 499 1204T422 1293Q419 1293 315 1205T156 1117Q126 1117 126 1135V1140Q126 1146 151 1178Q266 1327 369 1421Q410 1458 454
1458ZM443 898V873Q443 849 396 595T349 292T386 210T424 160Q424 102 367 69Q290 25 211 25H200Q134 25 134 113L135 125V136Q135 166 184 433T234 728T210 798T186 871T233 932T357 962H380Q443 962 443 898Z" />
<glyph unicode="&#xef;" horiz-adv-x="566" d="M272 1376Q336 1376 336 1309L339 1288V1274Q339 1221 305 1187T236 1152H216Q207 1155 192 1155T155 1177T132 1242V1250L133 1253Q133 1257 133 1261L138 1289Q138 1316 168 1346T225 1377L231 1379H255Q264 1376
272 1376ZM626 1382T637 1382T671 1360T694 1305V1277Q691 1268 691 1250T658 1199T581 1166H571Q533 1166 509 1190T485 1242V1270L489 1294Q489 1321 519 1351T573 1381Q579 1383 583 1383L597 1385H614Q626 1382 637 1382ZM448 908V883Q448 864 401 611T354
306T392 220T430 168Q430 111 366 73T217 34H206Q141 34 141 124Q141 159 191 429T241 731T216 808T191 865Q191 912 240 941T363 971H385Q448 971 448 908Z" />
<glyph unicode="&#xf0;" horiz-adv-x="1031" d="M627 832H599Q486 832 396 712Q338 635 306 539T274 371V351Q274 251 323 180T455 108H465Q589 108 684 243Q732 311 761 407T790 552L793 582V610Q793 695 739 774Q699 832 627 832ZM733 994Q733 1108 551 1108Q452
1108 452 1148Q452 1173 502 1211T553 1270T514 1343T474 1417Q474 1460 539 1460Q579 1460 657 1415T761 1370T830 1385T914 1401T954 1365Q954 1338 905 1293T856 1209T889 1089T950 906T977 651V625Q977 353 820 174T437 -6Q363 -6 295 23Q95 108 95 370Q95
469 140 580T268 769T436 878T605 908T711 925T733 994Z" />
<glyph unicode="&#xf1;" horiz-adv-x="1103" d="M596 1363H619Q662 1363 736 1319T851 1274T939 1313T1012 1353T1039 1328Q1039 1270 971 1208T834 1145H818Q768 1145 692 1191T577 1237T486 1197T413 1157Q388 1157 388 1182Q388 1242 459 1302T596 1363ZM833
62Q794 62 765 97T736 191T765 425T794 668T764 779T683 821T567 776T454 646Q392 541 340 271Q320 166 307 136Q273 57 213 57Q181 57 156 81T131 134T169 317T208 552T206 653T198 698T193 735Q193 815 229 873T323 932T410 869Q449 781 453 781T514 827T637
908T785 944H810Q890 944 940 891T990 743V715Q990 679 958 503T926 269T951 170T976 117T965 98Q910 62 833 62Z" />
<glyph unicode="&#xf2;" horiz-adv-x="1011" d="M464 144H484Q530 144 589 178T690 279Q788 430 788 602V623Q788 748 738 816T624 884H594Q538 884 480 844T376 734Q287 596 287 426V395Q287 288 336 216T464 144ZM745 1154V1145Q745 1123 714 1123H704Q668 1123
617 1174Q428 1363 428 1433V1441Q428 1472 504 1472L509 1471Q581 1471 617 1417Q745 1225 745 1154ZM980 650V605Q980 499 933 384Q833 139 629 48Q543 10 441 10Q289 10 195 114T101 373V419Q101 421 101 424Q101 524 142 627Q230 852 427 950Q519 996 611 996H641Q786
996 883 889T980 650Z" />
<glyph unicode="&#xf3;" horiz-adv-x="1012" d="M285 423V392Q285 281 335 213T465 144H475Q533 144 592 184T695 293Q789 438 789 609V640Q787 660 787 670Q787 756 739 822T612 888H601Q485 888 385 747T285 423ZM844 1467H888Q937 1467 937 1445V1441Q937 1399
783 1262T592 1124H582Q549 1124 549 1138V1142Q549 1195 742 1416Q787 1467 844 1467ZM460 11H429Q357 11 291 41T183 123Q96 229 96 398Q96 520 141 634Q222 840 403 943Q501 998 600 998H646Q777 998 876 894T976 644V613Q976 502 928 386Q833 152 644 58Q550
11 460 11Z" />
<glyph unicode="&#xf4;" horiz-adv-x="1011" d="M623 878H593Q542 878 483 837T371 715Q286 584 286 404L287 394Q287 277 337 208T468 139L478 140Q599 140 695 280T792 589V619Q792 737 744 807T623 878ZM417 1124H403Q375 1124 375 1143Q375 1153 518 1309T707
1466T781 1429Q922 1241 922 1161V1155Q922 1131 879 1131T769 1209L678 1316Q670 1316 565 1220T417 1124ZM980 644V598Q980 492 934 378Q839 145 642 48Q554 4 457 4H441Q292 4 197 104T101 367V413Q101 515 148 634T275 834Q431 990 626 990Q770 990 866 899Q919
848 949 777T980 644Z" />
<glyph unicode="&#xf5;" horiz-adv-x="1011" d="M457 139H477Q527 139 584 173T686 269Q790 416 790 591V632Q790 733 743 804T620 876H600Q543 876 483 837T384 739Q284 584 284 403V393Q284 283 333 211T457 139ZM543 1364H567Q612 1364 683 1321T794 1278T882
1319T957 1361T983 1342V1335Q983 1279 917 1218T778 1157H762Q712 1157 639 1201T526 1245T437 1204T361 1163T334 1188Q334 1238 402 1301T543 1364ZM98 382V398Q98 512 142 622Q230 846 424 944Q516 990 610 990Q785 990 881 883T978 629V613L977 598Q976 491
930 377Q835 143 639 48Q548 4 454 4H439Q280 4 189 110T98 382Z" />
<glyph unicode="&#xf6;" horiz-adv-x="1011" d="M462 145H482Q532 145 587 177T689 276Q792 422 792 597V628Q792 749 743 816T624 883H594Q557 883 500 853T389 745Q291 602 291 431V390Q291 283 341 214T462 145ZM535 1389Q595 1389 595 1314V1290Q595 1246
561 1212T488 1177H463Q431 1177 408 1200T384 1262V1269L389 1303Q389 1323 417 1356T477 1390L498 1393H512L515 1392H522Q533 1389 535 1389ZM955 1292L951 1267Q951 1236 916 1201T834 1165H820L817 1166H810Q801 1169 797 1169Q747 1169 747 1233V1264Q750
1276 750 1282Q750 1317 785 1352T870 1388H877Q950 1388 950 1336Q953 1327 953 1326L955 1310V1292ZM984 651V605Q984 500 936 381Q844 155 646 55Q558 11 461 11H445L430 12Q296 12 201 112T105 374V420Q105 522 152 642Q239 863 444 957Q531 997 630 997Q769
997 870 906Q916 864 950 791T984 651Z" />
<glyph unicode="&#xf7;" horiz-adv-x="1100" d="M504 908V927Q506 933 506 945T539 997T630 1037H653Q665 1034 684 1034T728 1009T754 950V940Q754 902 706 854Q679 827 623 827H603L577 831Q554 831 529 856T504 908ZM462 686H895Q1029 686 1029 654V645Q1029
568 984 560Q950 554 564 554L524 553H377Q164 553 164 586V594Q164 670 209 680Q236 686 462 686ZM666 270Q666 270 664 252Q664 221 635 192T579 162Q569 159 565 159L546 157H535Q500 157 473 179T445 239V261Q445 310 478 343T554 377H584Q593 374 601 374Q664
374 664 310L667 288V274L666 270Z" />
<glyph unicode="&#xf8;" horiz-adv-x="996" d="M287 411V387Q287 269 313 269T457 439Q691 777 691 796V802Q691 864 606 864H598Q477 864 382 726T287 411ZM777 670T777 696T763 722H759Q747 722 692 636T511 368T384 175Q384 116 437 116H466Q518 116 574 158T680
277Q780 433 780 607V646Q777 670 777 696ZM109 355V392Q109 394 109 396Q109 510 160 630Q265 878 499 957Q571 981 675 981T841 1000T903 1020Q948 1020 948 972Q948 959 935 923T921 859T942 766T963 620V602Q963 480 917 363T792 164T621 42T402 1T228 -18T168
-37H157Q119 -37 119 18Q119 19 135 67T151 129T130 221T109 355Z" />
<glyph unicode="&#xf9;" horiz-adv-x="1099" d="M556 1462Q604 1462 631 1414Q757 1187 757 1141Q757 1115 724 1115H710Q673 1115 558 1246T443 1419V1432Q443 1465 511 1465H531Q546 1462 556 1462ZM346 296Q346 150 459 150Q507 150 572 200T695 345T805 721Q836
900 909 900Q944 900 966 874T989 804Q989 802 967 653T944 452T957 316T970 210Q970 150 931 103T839 56T759 91Q755 96 736 145T699 195Q692 194 644 158Q484 35 356 35Q355 35 354 35H329Q251 35 203 88T154 220T193 491T232 736T211 824T190 875Q190 921 300
921H318Q372 921 394 885T416 777T381 545T346 296Z" />
<glyph unicode="&#xfa;" horiz-adv-x="1101" d="M955 1433V1424Q955 1383 805 1250T620 1116H609L604 1117Q572 1117 572 1131V1139Q572 1168 752 1399Q796 1455 851 1455L862 1457H900Q910 1455 916 1455Q955 1455 955 1433ZM317 922Q415 922 415 777Q415 705
380 545T345 295Q345 149 459 149Q508 149 576 204T691 340T775 570Q821 798 826 814Q855 901 909 901Q946 901 967 875T988 815T966 649T943 461T956 323T969 195T931 104T840 57T758 93Q749 105 730 161Q714 194 698 194Q688 194 634 154Q476 36 352 36H327Q247
36 201 90T154 236V262Q154 282 192 494T231 750T211 831T190 878Q190 922 299 922H317Z" />
<glyph unicode="&#xfb;" horiz-adv-x="1099" d="M402 1147Q402 1155 545 1311T732 1467T808 1422Q944 1226 944 1154V1148Q944 1122 901 1122T785 1218T707 1314Q698 1314 646 1266Q490 1122 439 1122L431 1123H424Q402 1123 402 1141V1147ZM318 918Q415 918 415
782Q415 716 380 538T345 290T375 183T450 146T561 190T690 333T800 693Q819 795 833 826Q865 897 905 897T967 871T988 812T966 647T943 455T956 309T970 207Q970 147 931 100T830 53T742 121L730 156Q714 192 699 192Q697 192 629 144T490 63T334 31T201 85T154
230V257Q154 305 193 496T232 736T211 822T189 872Q189 918 299 918H318Z" />
<glyph unicode="&#xfc;" horiz-adv-x="1099" d="M618 1283Q618 1244 589 1207T525 1170L504 1167H487Q475 1170 470 1170Q412 1170 412 1229L409 1245V1269Q409 1314 443 1348T514 1382H539Q615 1382 615 1317L618 1297V1283ZM776 1245V1266L777 1269V1276Q779
1284 779 1297T806 1345T864 1379Q872 1381 874 1381L888 1383H902Q914 1380 927 1380T963 1358T986 1295V1291L985 1288V1277Q982 1262 982 1260Q982 1232 952 1202T899 1172Q890 1169 886 1169L869 1167H858L834 1171Q776 1171 776 1245ZM350 305Q350 158 463
158Q509 158 576 209T701 358T809 730Q824 810 837 838Q870 908 924 908Q948 908 970 883T993 812Q993 811 971 662T948 460T961 324T974 219Q974 159 936 112T844 65T763 100Q761 102 740 153T703 204Q698 204 644 164Q480 43 360 43Q359 43 358 43H333Q255 43
207 97T158 231T197 505T236 748T215 834T194 884Q194 930 304 930H322Q376 930 398 894T420 786T385 554T350 305Z" />
<glyph unicode="&#xfd;" horiz-adv-x="1004" d="M927 1428V1419Q927 1380 778 1247T589 1114H584Q545 1114 545 1130T614 1251T733 1404T839 1453H855Q927 1453 927 1428ZM405 57Q405 100 346 264T260 544T223 692T179 775T146 842T170 872Q232 912 296 912T398
806T468 486T514 273T551 293Q616 348 678 482T758 686T784 814T808 897Q845 952 928 952Q985 952 985 906V882Q985 847 897 645Q691 173 569 -14T302 -333Q205 -421 128 -421T50 -374T149 -286T307 -171Q405 -50 405 57Z" />
<glyph unicode="&#xfe;" horiz-adv-x="1052" d="M452 105H481Q543 105 607 146T714 250Q814 395 814 562V592Q814 681 771 753T659 825H632Q575 825 516 777T421 660Q321 460 321 246L320 236Q320 105 452 105ZM992 586V557Q992 450 939 334Q834 103 629 30Q554
4 438 -3T282 -39T243 -186L244 -209L246 -234Q247 -250 247 -283Q247 -372 189 -423T20 -474Q-39 -474 -39 -434Q-39 -429 1 -313T85 38T218 717T307 1215Q307 1220 307 1225Q307 1273 298 1304Q288 1338 288 1374Q288 1447 380 1447H382Q434 1447 466 1418T499
1321T480 1103T461 942Q461 861 512 861Q527 861 601 882T710 904Q836 904 914 815T992 586Z" />
<glyph unicode="&#xff;" horiz-adv-x="1003" d="M439 1168Q405 1168 383 1190T360 1248V1265Q360 1309 391 1346T470 1384H484Q521 1384 544 1361T567 1307V1283L563 1259Q563 1240 537 1207T483 1173L456 1168H439ZM934 1306V1282Q934 1236 902 1204T845 1172Q839
1170 835 1170L818 1168H808L804 1169H797Q791 1171 788 1171Q730 1171 730 1230L727 1250V1267Q727 1310 758 1347T842 1385H849L879 1380Q934 1380 934 1306ZM401 66Q401 117 342 278T261 547T225 694T178 786T145 853T168 883Q227 922 299 922Q361 922 398 808T466
489T513 284Q572 284 681 506Q761 668 784 825Q793 881 809 906Q846 962 928 962Q983 962 983 916Q983 856 906 683Q678 170 566 -2T332 -292T128 -410T45 -363T145 -272T302 -161Q401 -42 401 66Z" />
<glyph unicode="&#x2013;" horiz-adv-x="1091" d="M159 470Q118 470 118 499L119 508V518Q119 593 170 604Q189 608 558 608H630L640 607L804 608H978Q1019 608 1019 579Q1019 489 976 476Q959 471 548 471H282L251 470H159Z" />
<glyph unicode="&#x2014;" horiz-adv-x="1687" d="M111 492V506Q111 569 130 584T185 603T910 607L1548 608H1565Q1624 608 1624 572Q1624 511 1601 492T1529 472L1497 471H791L742 470H154Q111 470 111 492Z" />
<glyph unicode="&#x2018;" horiz-adv-x="504" d="M221 1100L224 1141Q224 1236 309 1353T464 1471Q500 1471 500 1439V1434Q500 1426 472 1388L456 1366Q401 1297 401 1231Q401 1209 420 1170T440 1108L442 1096V1083Q442 1043 410 1014T321 985H314Q220 985 220
1067V1094L221 1100Z" />
<glyph unicode="&#x2019;" horiz-adv-x="513" d="M426 1458H440Q514 1458 514 1395V1369L513 1362Q513 1263 430 1121Q391 1054 334 1013T256 971H251Q216 971 216 1004V1009Q216 1025 242 1051Q324 1133 324 1214L296 1320L295 1326L294 1333L295 1352Q295 1396
326 1427T426 1458Z" />
<glyph unicode="&#x201a;" horiz-adv-x="514" d="M354 158Q354 158 351 116Q351 22 257 -107T90 -237Q54 -237 54 -203V-198L126 -99Q162 -49 162 8Q162 24 146 65T129 140Q129 254 263 254H283Q355 254 355 179V165L354 158Z" />
<glyph unicode="&#x201c;" horiz-adv-x="828" d="M454 1473H465Q496 1473 496 1442V1437Q496 1426 468 1392Q394 1300 394 1235Q394 1215 411 1172T429 1088T399 1018T314 987H294Q209 987 209 1063V1089Q209 1197 283 1324Q325 1396 378 1434T454 1473ZM851 1445V1435Q852
1426 826 1394Q750 1300 749 1239Q749 1217 767 1172T785 1083T749 1013T668 987H648Q565 987 565 1057V1097Q565 1208 639 1324Q687 1400 756 1450Q788 1473 810 1473H816Q851 1473 851 1445Z" />
<glyph unicode="&#x201d;" horiz-adv-x="833" d="M497 1395V1356Q497 1259 413 1115Q374 1048 317 1007T240 965H234Q199 965 199 998V1002Q199 1004 269 1100Q307 1152 307 1207Q307 1224 293 1262T279 1345T309 1420T389 1450L403 1452H423Q497 1452 497 1395ZM594
964H588Q553 964 553 997V1002Q553 1004 623 1100Q662 1154 662 1207Q662 1213 648 1259T634 1333Q634 1452 765 1452H779Q852 1452 852 1395V1363L848 1321Q848 1225 753 1095T594 964Z" />
<glyph unicode="&#x201e;" horiz-adv-x="851" d="M245 242H273Q342 242 342 173V166L341 160V153Q341 47 260 -92Q217 -166 160 -207T80 -249H75Q40 -249 40 -215V-210Q40 -197 65 -169T120 -100T150 -25T135 51T119 138T152 212T245 242ZM703 183V150Q703 36
638 -67T500 -222Q461 -250 440 -250Q401 -250 401 -214Q401 -212 456 -136T512 -8Q512 12 497 50T481 124Q481 242 609 242H630Q703 242 703 183Z" />
<glyph unicode="&#x2022;" horiz-adv-x="860" d="M444 370H427Q342 370 274 432T205 590V615Q205 727 292 807T481 887H489Q581 887 650 824T720 667V641Q720 522 630 446T444 370Z" />
<glyph unicode="&#x2039;" horiz-adv-x="706" d="M152 523Q152 536 351 722T591 909T633 874T489 685T345 512T429 365T514 188T469 138H460Q425 138 324 270Q152 495 152 514V523Z" />
<glyph unicode="&#x203a;" horiz-adv-x="708" d="M250 859Q250 908 300 908Q335 908 434 779Q607 553 607 526Q607 510 409 324T170 138T130 173V181Q130 199 274 362T418 527Q418 536 334 681T250 859Z" />
</font>
</defs>
</svg>
