<?xml version="1.0" standalone="no"?>
<!DOCTYPE svg PUBLIC "-//W3C//DTD SVG 1.1//EN" "http://www.w3.org/Graphics/SVG/1.1/DTD/svg11.dtd">
<svg xmlns="http://www.w3.org/2000/svg">
<defs >
<font id="ArefRuqaa" horiz-adv-x="1057" ><font-face
    font-family="Aref Ruqaa"
    units-per-em="2048"
    panose-1="2 0 5 3 0 0 0 0 0 0"
    ascent="2500"
    descent="-500"
    alphabetic="0" />
<glyph unicode=" " glyph-name="space" horiz-adv-x="300" />
<glyph unicode="!" glyph-name="exclam" horiz-adv-x="520" d="M101 174L283 362Q289 369 296 369Q302 369 308 363L457 219Q464 212 464 206Q464 200 458 194L276 6Q269 0 263 0Q257 0 251 5L102 149Q95 156 95 162Q95 168 101 174ZM417 951Q420 912 420 875Q420
770 399 688Q370 576 326 487Q314 463 302 437T271 396Q265 391 261 391Q256 391 256 398Q254 410 254 413Q274 534 274 647Q274 789 242 916Q183 1143 98 1310Q91 1323 71 1356Q53 1385 53 1398V1401Q80 1473 113 1544T177 1689Q255 1524 327 1355T417 951Z" />
<glyph unicode="&quot;" glyph-name="quotedbl" horiz-adv-x="440" d="M70 885L29 1196Q18 1286 18 1346Q18 1423 88 1423Q113 1423 134 1413T156 1382V1276L113 885H70ZM317 885L272 1280Q262 1352 262 1368Q262 1417 342 1417Q363 1417 382 1407T401 1378Q401
1313 399 1282L360 885H317Z" />
<glyph unicode="#" glyph-name="numbersign" horiz-adv-x="1519" d="M743 1444L758 1423L652 1042H1075L1186 1442L1208 1448L1253 1444L1268 1423L1162 1042H1466L1479 975L1454 958H1138L1019 530H1343L1356 463L1331 446H995L874 12L807 18L799 47L910 446H486L365
12L297 18L289 47L400 446H61L49 467L41 510L57 530H423L542 958H195L182 979L174 1022L190 1042H565L676 1442L698 1448L743 1444ZM509 530H933L1052 958H628L509 530Z" />
<glyph unicode="$" glyph-name="dollar" horiz-adv-x="964" d="M903 1214L780 1106L754 1112Q704 1307 553 1327V814Q574 803 598 793Q756 724 832 640T909 442Q909 320 827 218T624 60Q589 45 553 33V-203L471 -219V14Q424 6 377 6Q268 6 181 55T55 205L168 334L201
332Q273 96 459 96Q465 96 471 96V659Q398 691 346 722Q283 758 236 804T167 906T145 1032Q145 1120 179 1192T272 1308T404 1377Q437 1388 471 1394V1618L553 1634V1401Q556 1401 559 1401Q618 1401 661 1394T750 1369T834 1312T903 1214ZM553 112Q610 132 656
178Q737 259 737 381Q737 458 668 530Q617 583 553 619V112ZM471 1324Q409 1311 363 1262Q301 1196 301 1100Q301 1045 325 998T394 914Q431 882 471 857V1324Z" />
<glyph unicode="%" glyph-name="percent" horiz-adv-x="1542" d="M1196 700Q1319 668 1410 574T1501 367Q1501 277 1446 185T1301 34T1122 -25Q1036 -25 973 21T881 135T852 279Q852 409 950 517T1196 700ZM1094 594Q973 524 973 350Q973 283 999 221T1080 114T1208
70Q1260 70 1297 90T1351 146T1376 217T1384 297Q1384 411 1303 498T1094 594ZM385 1628Q508 1596 599 1502T690 1294Q690 1204 635 1113T490 962T311 903Q225 903 162 949T70 1063T41 1206Q41 1295 92 1379T217 1521T385 1628ZM283 1522Q162 1452 162 1278Q162
1211 188 1148T269 1041T397 997Q449 997 486 1017T540 1073T565 1145T573 1225Q573 1339 492 1426T283 1522ZM1399 1569L1401 1542L129 -2L72 35L74 63L1335 1591H1358L1399 1569Z" />
<glyph unicode="&amp;" glyph-name="ampersand" horiz-adv-x="1511" d="M709 729L713 817Q828 811 1122 811Q1381 811 1442 817L1436 719Q1352 733 1135 733Q1153 656 1153 604Q1153 433 1001 236L1008 229Q1120 109 1223 109Q1394 109 1460 387L1503 377Q1492
318 1476 266T1432 159T1367 65T1277 2T1159 -23Q1017 -23 893 98L883 106Q731 -16 569 -16Q339 -16 227 96Q167 156 134 235T100 399Q100 532 171 617T424 813Q371 941 371 1065Q371 1212 463 1321T705 1430Q785 1430 849 1376T913 1241Q913 1100 817 1014Q776
976 691 922T569 852Q714 531 971 268Q1049 383 1049 545Q1049 633 975 707Q960 722 936 729T897 738T850 739Q787 739 709 729ZM852 139Q579 442 442 770Q342 704 301 626T260 446Q260 350 302 263T423 120T600 63Q757 63 852 139ZM553 891Q680 970 723 1031T766
1192Q766 1247 722 1302T629 1358Q594 1358 569 1344T529 1311T508 1260T498 1204T496 1145Q496 1025 553 891Z" />
<glyph unicode="&apos;" glyph-name="quotesingle" horiz-adv-x="434" d="M180 893L143 1288Q139 1338 139 1364Q139 1392 160 1407T213 1423Q274 1423 274 1356Q274 1328 266 1274L213 893H180Z" />
<glyph unicode="(" glyph-name="parenleft" horiz-adv-x="796" d="M616 -334V-383Q554 -378 501 -347T411 -270T344 -163T297 -44T268 78Q231 287 231 573Q231 840 272 1044Q288 1126 313 1196T378 1336T479 1451T616 1511V1456Q569 1444 530 1412T463 1331T414
1226T380 1099T358 964T345 821T340 686T338 561Q338 484 339 425T344 283T356 138T378 4T412 -120T461 -220T528 -296T616 -334Z" />
<glyph unicode=")" glyph-name="parenright" horiz-adv-x="796" d="M176 1452V1507Q565 1426 565 557Q565 489 564 434T559 303T546 167T524 36T490 -89T440 -198T373 -290T286 -353T176 -387V-338Q253 -318 306 -271T389 -137Q422 -40 438 87T457 297T459 531Q459
554 459 565Q459 848 420 1047Q409 1104 399 1144T369 1238T325 1329T263 1401T176 1452Z" />
<glyph unicode="*" glyph-name="asterisk" horiz-adv-x="569" d="M322 918H240Q255 1016 258 1145Q164 1072 100 997L57 1069Q138 1109 236 1178Q167 1228 61 1284L117 1341Q189 1272 256 1221Q256 1349 240 1417H322Q306 1338 299 1223Q376 1285 438 1350L489
1286Q395 1242 309 1180Q418 1099 489 1065L436 1006Q383 1065 299 1130Q302 1009 322 918Z" />
<glyph unicode="+" glyph-name="plus" horiz-adv-x="1548" d="M811 565H1452L1442 483H811V-137L729 -152V483H94L109 565H729V1188L811 1200V565Z" />
<glyph unicode="," glyph-name="comma" horiz-adv-x="569" d="M225 -430L186 -401Q322 -223 322 -125Q322 -74 295 -39L152 131Q137 150 137 184Q137 222 177 252T258 283Q308 283 352 212T417 64T438 -55Q438 -129 389 -213T225 -430Z" />
<glyph unicode="-" glyph-name="hyphen" horiz-adv-x="684" d="M578 483H94L109 565H590L578 483Z" />
<glyph unicode="." glyph-name="period" horiz-adv-x="569" d="M158 49T158 106T198 203T295 244T392 204T432 106T392 9T295 -31T198 9Z" />
<glyph unicode="/" glyph-name="slash" horiz-adv-x="1028" d="M938 1464L948 1442L152 -393L86 -377L80 -348L870 1470L893 1475L938 1464Z" />
<glyph unicode="0" glyph-name="zero" horiz-adv-x="1024" d="M594 1442Q770 1330 856 1139T942 729Q942 627 925 525T868 322T770 144T623 19T424 -29Q363 -29 312 -5T224 58T160 153T116 266T89 389T74 510T70 621Q70 809 138 984T336 1288Q417 1369 594 1442ZM479
1311Q392 1256 329 1165T237 970T207 760Q207 555 250 408Q272 332 307 267T398 154T516 106Q576 106 624 127T705 186T759 270T793 372T810 479T815 584Q815 854 676 1104Q664 1126 640 1161T568 1244T479 1311Z" />
<glyph unicode="1" glyph-name="one" horiz-adv-x="1024" d="M631 1458L643 1434Q629 1179 629 885Q629 201 635 45L463 -10L438 0Q455 484 455 858Q455 895 456 950T458 1036T457 1107T450 1170T433 1213T404 1244T358 1253H188V1309L631 1458Z" />
<glyph unicode="2" glyph-name="two" horiz-adv-x="1024" d="M967 164L920 4H25V37Q229 244 365 403Q436 486 484 549T582 696T658 866T684 1040Q684 1083 672 1127T635 1214T562 1284T453 1311Q377 1311 311 1276T172 1180L131 1219Q339 1450 563 1450Q697 1450
784 1359T872 1133Q872 1003 774 829Q718 727 627 604T483 416T301 203Q297 199 297 195Q297 180 324 180H956L967 164Z" />
<glyph unicode="3" glyph-name="three" horiz-adv-x="1024" d="M494 782V766Q913 729 913 440Q913 338 867 248T744 97T571 0T371 -35Q195 -35 51 78L37 100L123 248H143Q261 47 422 47Q556 47 638 145T721 381Q721 507 621 614Q532 707 256 707L258 760Q450 804
549 888T649 1106Q649 1199 585 1254T426 1309Q389 1309 340 1290T260 1252T176 1200L147 1245Q375 1438 518 1438Q648 1438 732 1365T817 1163Q817 1022 727 923T494 782Z" />
<glyph unicode="4" glyph-name="four" horiz-adv-x="1024" d="M739 1442L754 1430Q752 1375 752 500L766 481H958L969 467L936 391H768L752 375Q752 102 758 57L594 -10L584 2Q594 74 594 373L580 391H-2V481L584 1370L739 1442ZM594 498V1198Q594 1214 584 1214Q577
1214 573 1210Q500 1127 383 944Q304 821 218 674T131 496L141 481H582L594 498Z" />
<glyph unicode="5" glyph-name="five" horiz-adv-x="1024" d="M256 1217V846V831Q412 907 526 907Q704 907 811 798T918 514Q918 399 873 299T753 128T577 18T365 -23Q267 -23 178 17T27 131L25 156L115 270H137Q156 227 177 193T227 125T296 72T381 53Q491 53
570 111T685 259T721 457Q721 524 706 583T658 695T569 778T436 809Q311 809 197 700L170 723V1393L184 1407H870L815 1247Q370 1237 281 1237Q271 1237 264 1232T256 1217Z" />
<glyph unicode="6" glyph-name="six" horiz-adv-x="1024" d="M965 1409L924 1298L905 1290Q846 1313 786 1313Q610 1313 467 1180Q268 996 264 627L279 625Q461 772 657 772Q792 772 878 670T965 432Q965 344 924 260T817 113T662 12T483 -27Q400 -27 332 4T220
87T147 206T105 344T92 487Q92 683 162 864T367 1180Q473 1291 599 1362T852 1434Q900 1434 965 1409ZM270 543Q270 482 277 422T302 295T350 180T428 98T539 66Q664 66 733 147T803 352Q803 469 723 556T524 643Q464 643 385 611T270 543Z" />
<glyph unicode="7" glyph-name="seven" horiz-adv-x="1024" d="M1012 1380L696 864Q425 421 338 25L166 -16L154 0Q212 198 487 664Q688 1014 815 1217L803 1241H115L100 1260L143 1421Q167 1413 321 1409T586 1405H1012V1380Z" />
<glyph unicode="8" glyph-name="eight" horiz-adv-x="1024" d="M487 684Q372 624 312 549T252 362Q252 288 280 222T366 111T502 66Q627 66 696 142T766 344Q766 400 748 445T688 533T604 606T487 684ZM639 788Q731 726 780 688T871 603T928 511T944 403Q944 307
901 226T788 92T630 10T449 -20Q260 -20 168 72Q82 158 82 322Q82 378 96 424T133 506T201 580T291 647T412 721V743Q182 902 182 1085Q182 1143 202 1193T252 1280T330 1348T420 1402T520 1446H539Q696 1446 793 1368T891 1163Q891 1061 818 969T639 811V788ZM571
844Q638 890 678 961T719 1112Q719 1166 691 1219T601 1311T457 1350Q390 1306 365 1261T340 1151Q340 1005 571 844Z" />
<glyph unicode="9" glyph-name="nine" horiz-adv-x="1024" d="M438 23L264 -18L244 -2Q289 102 475 342Q649 575 715 688L705 700Q539 612 397 612Q325 612 253 655T132 778T82 952Q82 1125 162 1225Q202 1275 304 1335T504 1438Q722 1438 834 1344T946 1081Q946
1000 908 899T827 725T717 553Q578 351 530 262Q454 125 438 23ZM719 786Q782 849 782 987Q782 1076 746 1149T633 1271T449 1319Q394 1319 350 1275T285 1171T264 1055Q264 973 293 899T385 773T530 721Q654 721 719 786Z" />
<glyph unicode=":" glyph-name="colon" horiz-adv-x="442" d="M102 44T102 92T137 174T221 209Q268 209 302 174T336 92T302 10T221 -25Q172 -25 137 9ZM102 767T102 815T137 897T221 932Q268 932 302 897T336 815T302 733T221 698Q172 698 137 732Z" />
<glyph unicode=";" glyph-name="semicolon" horiz-adv-x="442" d="M98 771T98 819T133 901T217 936Q264 936 298 901T332 819T298 737T217 702Q168 702 133 736ZM182 -389L152 -362Q248 -233 248 -131Q248 -101 221 -53L152 51Q133 81 133 104Q133 157 152 176L156
180Q186 203 221 203Q271 203 319 113T367 -45Q367 -89 353 -133T302 -230T249 -306T182 -389Z" />
<glyph unicode="&lt;" glyph-name="less" horiz-adv-x="1548" d="M1393 1034L1389 1016L319 522V498L1382 4L1393 -16L1370 -63L1350 -74L121 500V524L1352 1087L1374 1081L1393 1034Z" />
<glyph unicode="=" glyph-name="equal" horiz-adv-x="1548" d="M1466 674H111L125 756H1479L1466 674ZM1466 270H111L125 352H1479L1466 270Z" />
<glyph unicode="&gt;" glyph-name="greater" horiz-adv-x="1548" d="M160 1012L156 1032L176 1081L197 1087L1430 524V500L201 -74L180 -63L164 -14L172 4L1233 502V520L160 1012Z" />
<glyph unicode="?" glyph-name="question" horiz-adv-x="741" d="M217 47T217 94T251 176T332 211Q381 211 416 177T451 94T416 12T332 -23Q285 -23 251 12ZM381 432L287 367Q250 390 226 429T201 512Q201 560 254 625Q287 668 338 718T429 806T507 890T567 993T588
1116Q588 1201 525 1277T387 1354Q323 1354 272 1313T221 1206Q221 1133 287 1081L150 999Q92 1051 92 1141Q92 1221 153 1287T299 1386T469 1419Q587 1419 660 1347T733 1157Q733 1078 672 975Q646 931 600 883T508 795T421 716T352 636T326 561Q326 497 381 455V432Z"
/>
<glyph unicode="@" glyph-name="at" horiz-adv-x="1417" d="M893 283V612Q893 688 866 713Q816 760 758 760Q666 760 602 705Q568 676 542 613T514 451Q510 346 561 279Q606 219 721 219Q796 219 893 283ZM928 760L1014 805L1022 797Q1014 691 1014 477Q1014 450
1015 393T1016 309Q1016 215 1075 215Q1121 215 1157 244T1213 321T1245 416T1260 510Q1266 587 1251 658T1203 786T1123 893T1018 975T893 1029T754 1052T608 1042Q446 1012 311 899Q219 789 184 637T182 332T313 74Q457 -60 655 -74L684 -104L596 -190Q443 -179
318 -92T121 121Q36 275 42 445T137 760Q222 901 365 1013T668 1157Q758 1177 847 1164T1017 1120T1167 1031T1285 904T1358 747T1376 567Q1362 381 1231 250Q1193 207 1116 166T987 125Q911 125 897 209L872 215Q712 125 608 125Q544 125 496 150T421 218T382
308T369 408Q369 487 392 557T460 684T580 775T754 809T928 760Z" />
<glyph unicode="A" glyph-name="A" horiz-adv-x="1353" d="M954 156L844 541Q841 547 834 553T821 559H360Q348 559 340 543L100 35L-86 -4L-92 16Q310 692 602 1270Q604 1276 604 1284Q604 1290 598 1297T580 1307L395 1337V1393H793Q823 1227 983 649Q1013 540
1033 472T1088 311T1157 162Q1194 100 1288 100Q1289 100 1376 106L1378 53L1165 -8Q1118 -20 1073 -20Q1049 -20 1030 -7T997 36T975 89T954 156ZM639 1171L401 672Q399 668 399 653Q399 649 404 644T414 639H799Q813 639 813 653Q809 670 809 672L666 1171Q662
1180 651 1180Q647 1180 643 1177T639 1171Z" />
<glyph unicode="B" glyph-name="B" horiz-adv-x="1157" d="M317 664V135Q317 99 343 90T471 80Q551 80 621 101T746 162T834 271T866 426Q866 497 841 549T777 631T680 679T567 703T444 709Q349 709 333 704Q321 700 317 692V664ZM317 842V801Q320 787 335 784T387
780Q471 780 543 799T673 857T764 962T797 1116Q797 1178 771 1221T697 1286T593 1318T467 1327Q464 1327 456 1327Q328 1328 317 1288V842ZM657 774L655 758Q874 729 963 648T1053 412Q1053 321 1020 249T934 130T808 54T662 11T510 -2Q482 -2 445 -2T371 -2T295
-1T222 0T162 1T120 2H104L102 23Q113 39 126 53T142 75T147 102T150 166V1251Q150 1266 146 1278T129 1299T108 1315T78 1328T48 1338T13 1348T-20 1356L-18 1391L-4 1405H502Q971 1405 971 1133Q971 1075 954 1026T909 941T839 873T755 819T657 774Z" />
<glyph unicode="C" glyph-name="C" horiz-adv-x="1255" d="M1137 1081L1108 1083Q1007 1348 741 1348Q633 1348 546 1311T403 1212T308 1066T254 892T238 705Q238 575 291 441T403 248Q495 156 573 117T770 78Q951 78 1153 215L1188 156Q913 -31 698 -31Q404 -31
252 121Q55 318 55 668Q55 1021 242 1208Q352 1318 500 1375T811 1432Q1112 1432 1253 1200L1137 1081Z" />
<glyph unicode="D" glyph-name="D" horiz-adv-x="1490" d="M332 1178V348Q337 141 369 109Q396 82 530 82Q690 82 813 121T1011 225T1133 381T1199 567T1217 772Q1217 885 1181 1008T1067 1210Q999 1277 862 1299T496 1321Q376 1321 360 1313Q358 1312 352 1310T344
1306T339 1297T335 1275T333 1238T332 1178ZM115 4V25Q144 47 151 72T160 162V1174Q160 1208 156 1270Q155 1284 145 1296T115 1316T79 1329T38 1340T2 1350V1389L16 1405H657Q791 1405 898 1390T1084 1347T1219 1276T1313 1184T1371 1069T1401 937T1409 788Q1409
585 1365 447T1206 186Q1040 4 588 4H115Z" />
<glyph unicode="E" glyph-name="E" horiz-adv-x="1075" d="M852 688Q692 700 610 700Q595 700 570 700T529 700T489 701T451 700T417 698T388 695T366 689T351 681T346 670V385Q346 211 377 156Q399 117 439 104T573 90Q717 90 1053 119L1063 109L1036 0H242Q188
30 188 135V1143Q188 1233 170 1274Q150 1319 14 1339L12 1380L27 1395L330 1397Q409 1397 587 1402T825 1409Q893 1409 920 1407L915 1305L907 1290Q537 1311 479 1311H397Q348 1301 348 1155V815Q348 809 350 805T356 797T366 792T379 789T395 787T414 786T435
786T458 786T483 786Q648 786 852 801L864 786L852 688Z" />
<glyph unicode="F" glyph-name="F" horiz-adv-x="845" d="M154 737L158 1067Q158 1077 158 1107T159 1153T157 1198T152 1243T140 1280T120 1310T90 1325L-23 1352V1395L-8 1409Q704 1409 854 1413V1305L838 1288Q788 1291 634 1310T395 1329Q343 1329 330 1282Q325
1263 323 1241T318 1112T315 801Q315 792 322 783T342 774Q429 774 604 785T823 799L821 698L811 688Q632 698 342 698Q333 698 325 692T317 676Q317 312 328 27L139 -4Q154 461 154 737Z" />
<glyph unicode="G" glyph-name="G" horiz-adv-x="1378" d="M684 606L1249 629Q1260 117 1260 68Q866 -35 709 -35Q589 -35 480 6T289 129Q190 228 144 367T98 664Q98 1025 287 1214Q398 1325 549 1378T870 1432Q1007 1432 1112 1377T1298 1200L1180 1083L1155
1085Q1089 1216 998 1273T778 1331Q667 1331 580 1295T438 1198T348 1053T298 882T283 696Q283 604 303 517T368 348T478 206T639 109T852 72Q954 72 1044 92Q1059 95 1068 107T1081 144T1086 184T1086 234T1085 274T1086 306T1087 356T1086 411T1078 465T1060
505T1028 524Q895 536 696 543L684 553V606Z" />
<glyph unicode="H" glyph-name="H" horiz-adv-x="1423" d="M1421 29L1409 0H1104L1081 43Q1092 590 1092 684Q1092 693 1086 701T1067 709H365Q354 709 346 702T338 684Q338 640 337 532T336 365Q336 155 348 53L160 -4L147 6Q168 249 168 752Q168 1092 156 1262Q155
1279 151 1288T134 1305T110 1317T66 1331T6 1350L4 1389L18 1403H350L360 1393Q334 1248 334 813Q334 788 358 788H1067Q1092 788 1092 813Q1092 901 1089 1095T1085 1378L1266 1413L1276 1401Q1253 1084 1253 659Q1253 411 1262 162Q1262 136 1284 116T1336 86T1388
71T1419 66L1421 29Z" />
<glyph unicode="I" glyph-name="I" horiz-adv-x="632" d="M616 -2H74V51Q110 58 133 63T177 76T209 88T230 104T243 123T250 150T253 181T254 223T256 274V1018Q256 1175 250 1253Q249 1264 248 1271T244 1284T238 1294T227 1302T211 1309T187 1315T157 1322T117
1330T68 1341V1386L82 1399H594L606 1386V1343L469 1313Q428 1304 424 1260Q416 1206 415 1119T415 903T418 735Q418 596 422 346Q422 330 421 288T421 220T427 161T448 109T487 82Q612 47 621 47L616 -2Z" />
<glyph unicode="J" glyph-name="J" horiz-adv-x="530" d="M338 1245V186Q338 -51 241 -212T-63 -479L-92 -442Q-26 -401 16 -357T95 -242T147 -63T164 197V1245Q164 1268 156 1292T131 1321L-16 1358V1401L-2 1413H510L524 1401L520 1352L381 1323Q363 1319 351
1296T338 1245Z" />
<glyph unicode="K" glyph-name="K" horiz-adv-x="1210" d="M371 653L352 651Q352 267 365 51L199 -8L182 2V303V1219Q182 1257 172 1282Q160 1305 98 1327T18 1350L23 1384L39 1399H362L377 1384Q360 1333 353 1189T346 733L362 731L950 1399H1135L1133 1380L537
778Q520 761 520 756Q520 747 530 737Q1060 207 1212 72L1210 49L1036 -14Q910 121 663 364T371 653Z" />
<glyph unicode="L" glyph-name="L" horiz-adv-x="964" d="M1024 98L995 -10Q843 4 150 4V33Q195 94 195 293V1272Q195 1296 185 1315T152 1339Q134 1342 105 1348T55 1359T33 1364L35 1399L49 1413H535L547 1401V1358Q539 1358 414 1329Q381 1324 377 1278Q365
1053 365 805Q365 502 379 115Q380 106 389 97T406 88Q501 88 648 95T895 110T1004 119L1024 98Z" />
<glyph unicode="M" glyph-name="M" horiz-adv-x="1972" d="M1556 1413H1767V1389Q1743 1376 1731 1346T1718 1291T1716 1211Q1716 1200 1716 1194Q1716 880 1722 658T1753 209Q1758 162 1790 128T1872 94Q1876 94 1987 106V57Q1799 -12 1708 -12Q1655 -12 1617
5T1579 59V432Q1579 447 1559 1122Q1559 1134 1554 1143T1542 1153Q1530 1153 1520 1137L934 2H872Q854 45 794 189T707 398T627 587T541 787T468 950T397 1102Q385 1122 375 1122Q360 1122 340 988T300 645T269 301T248 47L94 -6L80 0Q215 696 285 1210Q287 1218
287 1235Q287 1263 272 1285T229 1315L90 1354L94 1399L109 1413H469Q522 1260 610 1050T764 696T944 311Q958 283 967 283Q973 283 980 289T991 301L1556 1413Z" />
<glyph unicode="N" glyph-name="N" horiz-adv-x="1525" d="M1378 1421L1391 1405Q1360 871 1360 0H1286Q1212 83 1149 164L823 569Q620 820 344 1137Q330 1155 322 1155Q307 1155 307 1120Q307 809 356 51L213 -10L195 8Q221 535 221 981Q221 1025 220 1113T219
1245Q219 1249 219 1258T220 1269T217 1279T211 1288T198 1297T177 1306T146 1316T103 1329T45 1343L37 1399L53 1413H385Q582 1153 683 1020T951 680T1229 354Q1245 338 1251 338Q1264 338 1264 354Q1264 665 1214 1389L1378 1421Z" />
<glyph unicode="O" glyph-name="O" horiz-adv-x="1544" d="M96 651Q96 852 143 992T303 1253Q393 1350 535 1392T838 1434Q961 1434 1073 1396T1264 1278Q1353 1187 1394 1045T1436 745Q1436 681 1434 641T1425 543T1400 427T1352 311Q1277 157 1091 60T668 -37Q546
-37 448 2T285 107T177 263T115 449T96 651ZM287 713Q287 555 323 429T449 205Q591 47 776 47Q875 47 955 84T1087 184T1176 330T1227 503T1243 688Q1243 779 1228 869T1176 1047T1088 1202T954 1310T772 1352Q669 1352 586 1315T448 1217T356 1072T303 900T287
713Z" />
<glyph unicode="P" glyph-name="P" horiz-adv-x="1062" d="M483 1311H369Q350 1311 350 1288Q338 1018 338 698Q338 686 345 680T360 674Q576 674 707 771T838 1036Q838 1113 810 1168T730 1254T619 1297T483 1311ZM352 45L182 -12L168 2Q169 72 175 384T182 866Q182
1027 172 1229Q168 1285 129 1307T20 1339V1376L35 1391H561Q807 1391 920 1306T1034 1053Q1034 864 903 733Q792 620 530 600Q519 599 488 598T436 596T390 591T352 580T338 561Q338 548 344 357T352 45Z" />
<glyph unicode="Q" glyph-name="Q" horiz-adv-x="1499" d="M1450 -356L1464 -397Q1260 -481 1147 -481Q1097 -481 1050 -466T963 -430T883 -369T812 -297T745 -212T686 -124T629 -33Q511 -33 405 2T229 117Q144 212 100 342T55 614Q55 831 102 981T262 1247Q440
1430 791 1430Q1071 1430 1227 1274Q1316 1185 1356 1041T1397 750Q1397 612 1389 557T1358 430Q1342 384 1335 364T1310 308T1272 242T1219 178Q1096 44 854 -14L846 -35Q937 -204 973 -250Q988 -271 1008 -290T1064 -334T1154 -372T1272 -387Q1329 -387 1450
-356ZM719 45Q829 45 915 85T1054 189T1141 340T1189 514T1202 692Q1202 816 1173 931T1088 1142T943 1294T741 1352Q628 1352 540 1311T397 1205T308 1049T260 870T246 684Q246 367 420 188Q481 124 560 85T719 45Z" />
<glyph unicode="R" glyph-name="R" horiz-adv-x="1085" d="M348 758Q348 727 367 727Q454 727 531 747T672 807T772 915T809 1071Q809 1128 789 1171T735 1241T656 1283T565 1305T467 1311H385Q363 1311 360 1257Q348 864 348 758ZM569 678L565 662L1104 55V37L901
-16Q454 558 391 621Q373 639 350 639Q350 244 360 47L190 -12L168 6Q186 340 186 899Q186 904 183 1043T180 1251Q180 1281 143 1303T72 1334T23 1343L25 1378L37 1391H594Q786 1391 898 1317T1010 1104Q1010 1000 976 922T880 794T742 717T569 678Z" />
<glyph unicode="S" glyph-name="S" horiz-adv-x="964" d="M860 1241L731 1126L705 1133Q646 1362 455 1362Q358 1362 293 1292T227 1120Q227 1063 252 1013T325 924T423 856T541 797Q706 725 786 637T866 428Q866 330 815 243T684 97T504 4T307 -31Q193 -31 101
20T-31 178L86 313L121 311Q196 63 393 63Q514 63 600 150T686 365Q686 446 612 523T438 643Q339 685 274 723T159 810T86 916T63 1049Q63 1142 99 1217T197 1340T335 1412T498 1438Q560 1438 606 1431T700 1404T787 1344T860 1241Z" />
<glyph unicode="T" glyph-name="T" horiz-adv-x="1103" d="M1112 1411V1313L1096 1298Q983 1303 893 1308T766 1315T706 1318T666 1319Q656 1319 651 1296T643 1211T640 1100T639 942Q639 912 639 897Q639 513 666 35L461 -20L442 -2Q469 437 469 778Q469 1181
465 1303Q465 1315 446 1315Q434 1315 8 1300L-8 1315V1413L6 1427Q45 1426 197 1416T563 1405Q650 1405 1100 1425L1112 1411Z" />
<glyph unicode="U" glyph-name="U" horiz-adv-x="1425" d="M328 1110L311 551Q311 106 672 106Q828 106 1032 227Q1032 604 1040 1350L1221 1421L1233 1407Q1200 1159 1200 414Q1200 372 1200 352T1201 295T1205 240T1212 194T1224 153T1241 125T1265 104T1298
98Q1321 98 1361 106T1417 115L1425 80L1415 66Q1175 -10 1102 -10Q1085 -10 1073 -6T1054 8T1042 25T1036 50T1034 76T1033 104T1034 131L1018 143Q768 -18 541 -18Q459 -18 395 0T292 44T226 110T186 184T164 260Q147 374 147 631Q147 710 149 870T152 1110V1231Q152
1259 129 1281T72 1315T12 1331T-29 1337L-33 1378L-16 1393H330L344 1380Q340 1360 334 1251T328 1110Z" />
<glyph unicode="V" glyph-name="V" horiz-adv-x="1359" d="M1225 1393L1401 1427L1413 1389Q1295 1245 1128 958Q882 503 715 20L575 -33L555 -18L262 969Q255 991 240 1037T216 1111T193 1176T164 1247Q141 1295 103 1311T-31 1341L-33 1397L-18 1409L340 1430Q460
844 678 283Q683 274 694 268Q707 272 817 510Q822 521 824 527T831 543T840 561L1083 1122Q1124 1219 1225 1393Z" />
<glyph unicode="W" glyph-name="W" horiz-adv-x="1935" d="M1894 1382L2060 1411V1368L1825 983Q1747 854 1600 558T1358 33L1235 -23L1210 -6Q1118 514 987 1098Q982 1122 973 1122T954 1098L897 969Q811 777 766 675T645 378T524 37L393 -23L371 -12Q294 416
211 768Q130 1097 68 1257Q53 1295 17 1312T-80 1341L-84 1391L-68 1405L252 1411Q301 1148 483 334Q485 322 498 322Q508 322 512 330Q589 482 743 830T961 1354L1116 1413L1130 1401Q1130 1269 1257 666Q1260 651 1283 530T1323 347T1358 285T1384 299L1548 647L1772
1143Q1802 1208 1894 1382Z" />
<glyph unicode="X" glyph-name="X" horiz-adv-x="1220" d="M1217 1376L834 954Q719 818 696 778Q698 757 828 547T1016 268L1139 121Q1150 110 1176 94T1214 74L1225 66V33L999 -23L971 -10Q926 34 877 117L584 606H559Q481 513 351 322T170 23L-23 0V33L532 707Q522
707 236 1208Q221 1234 201 1253T145 1287T96 1307T33 1325Q24 1328 20 1329V1380L35 1393Q170 1398 334 1409L635 864H653Q701 912 854 1128T1022 1380L1217 1407V1376Z" />
<glyph unicode="Y" glyph-name="Y" horiz-adv-x="1064" d="M434 612L129 1217Q96 1281 60 1302T-47 1333V1391L-33 1405H264L553 739Q561 723 578 723Q586 723 631 792T721 942Q741 978 838 1143T983 1384L1157 1419L1165 1382Q862 985 753 830Q683 730 616 627L635
37L451 -23L428 -4Q434 201 434 612Z" />
<glyph unicode="Z" glyph-name="Z" horiz-adv-x="1210" d="M1116 1360Q857 990 299 125L311 139H1190L1208 121L1171 -25Q907 0 -6 0L-8 43L860 1284L846 1305Q373 1305 199 1286L186 1296V1407L205 1423Q609 1399 1116 1399V1360Z" />
<glyph unicode="[" glyph-name="bracketleft" horiz-adv-x="569" d="M571 1458L328 1432V-170L571 -197V-246Q352 -246 246 -256V1518Q334 1507 571 1507V1458Z" />
<glyph unicode="\" glyph-name="backslash" horiz-adv-x="1028" d="M877 -393L80 1442L90 1464L154 1479L948 -350L942 -377L877 -393Z" />
<glyph unicode="]" glyph-name="bracketright" horiz-adv-x="569" d="M242 1432L-2 1458V1507Q236 1507 324 1518V-256Q218 -246 -2 -246V-197L242 -170V1432Z" />
<glyph unicode="^" glyph-name="asciicircum" horiz-adv-x="1024" d="M555 1376L877 1049L797 995L549 1249L258 981L211 1006L555 1376Z" />
<glyph unicode="_" glyph-name="underscore" horiz-adv-x="1548" d="M1548 -233H0V-152H1548V-233Z" />
<glyph unicode="`" glyph-name="grave" horiz-adv-x="1064" d="M557 997L594 1061L349 1382L322 1386L226 1313L557 997Z" />
<glyph unicode="a" glyph-name="a" horiz-adv-x="1105" d="M805 883L913 946L924 936Q911 692 911 489Q911 469 910 429T908 357T907 286T913 216T926 161T951 120T991 106Q1025 106 1124 143L1139 94Q1133 91 1111 78T1081 59T1051 42T1019 24T990 9T959 -5T931
-15T904 -23T881 -25Q828 -25 801 6T764 96L733 104Q538 -25 399 -25Q318 -25 257 11T163 109T114 237T98 379Q98 468 115 550T170 706T263 835T402 922T586 954Q638 954 697 936T805 883ZM760 203V674Q760 709 759 728T750 773T727 815Q662 883 588 883Q474 883
393 805Q351 764 319 673T283 440Q279 288 340 195Q393 111 543 111Q641 111 760 203Z" />
<glyph unicode="b" glyph-name="b" horiz-adv-x="1040" d="M-57 1354L-45 1364L301 1401L313 1386Q285 1092 285 885Q285 885 285 817L303 807Q397 878 485 918T670 958Q806 958 882 863T958 631Q958 477 920 362Q866 199 709 90T375 -20Q341 -20 310 -14T246
10T190 58T151 137T135 252V1227Q135 1242 134 1250T130 1266T120 1278T105 1285T81 1291T48 1296T1 1303T-57 1311V1354ZM293 711Q285 571 285 469Q285 392 288 339T304 233T338 148T397 98T487 78Q565 78 625 111T719 201T771 324T788 465Q788 653 727 743Q669
831 573 831Q430 831 293 711Z" />
<glyph unicode="c" glyph-name="c" horiz-adv-x="841" d="M809 233L831 197Q720 88 609 25T373 -39Q304 -39 249 -23T157 20T94 88T53 168T30 260T20 352T18 444Q18 675 164 824T537 973Q636 973 700 917T774 772L664 664L629 676Q616 778 569 835T455 893Q372
893 310 834T218 688T188 508Q188 450 194 397T220 288T271 190T355 123T477 96Q627 96 791 238L809 233Z" />
<glyph unicode="d" glyph-name="d" horiz-adv-x="1060" d="M561 1352L571 1360L905 1401L922 1382V225Q926 169 942 134T999 98Q1024 98 1124 137L1141 90Q1080 48 1051 29T968 -14T877 -39Q821 -39 790 5T756 111Q542 -37 399 -37Q316 -37 254 0T159 98T110 228T94
369Q94 457 112 539T170 696T265 825T402 913T580 946Q655 946 750 915L764 924Q764 946 764 991T763 1066T761 1131T757 1192T750 1233Q742 1258 722 1274T672 1297T619 1305T563 1307L561 1352ZM756 195L764 635Q764 673 761 703T745 768T713 824T656 862T571
877Q516 877 470 857T392 800T336 719T299 621T279 518T272 416Q272 358 284 305T323 204T399 127T514 98Q570 98 643 126T756 195Z" />
<glyph unicode="e" glyph-name="e" horiz-adv-x="888" d="M334 811Q279 752 260 685T240 532Q240 520 244 496L252 487L666 651Q692 660 692 705Q692 775 640 836T506 897Q404 897 334 811ZM825 653L248 403Q253 351 269 303T316 211T396 141T512 115Q649 115
827 254L850 250L877 213Q623 -25 410 -25Q331 -25 270 4T172 79T112 192T79 323T70 463Q70 675 174 795Q249 883 355 931T578 979Q708 979 788 898T868 696Q868 684 861 676T848 664T825 653Z" />
<glyph unicode="f" glyph-name="f" horiz-adv-x="602" d="M-29 889H186L199 901Q199 1068 236 1151Q281 1256 365 1313T549 1370Q685 1370 739 1260L621 1149L596 1157Q592 1177 590 1188T578 1221T558 1255T526 1277T477 1288Q415 1288 385 1180T354 901L362
889H616L627 874L612 829L598 817H362L350 805V578Q350 274 371 25L209 -25L174 -2Q201 389 201 580V801L188 817H-41L-51 831L-43 877L-29 889Z" />
<glyph unicode="g" glyph-name="g" horiz-adv-x="1021" d="M739 106Q664 63 626 43T518 0T389 -23Q260 -23 176 88T92 377Q92 643 225 797T561 952Q709 952 801 883L905 942L934 930Q915 577 915 168Q915 -45 870 -176Q830 -284 721 -367Q578 -477 389 -477Q228
-477 106 -362L207 -236H236Q265 -295 326 -344T440 -393Q519 -393 579 -355T677 -250T735 -97T758 92L739 106ZM758 203V743Q754 811 700 847T575 883Q506 883 451 852T362 772T307 660T277 536T268 416Q268 286 343 196T502 106Q566 106 640 137T758 203Z" />
<glyph unicode="h" glyph-name="h" horiz-adv-x="1107" d="M1176 219L1202 199V176Q1118 86 1041 33T881 -20Q814 -20 780 39T745 182Q745 242 749 377T754 545Q754 596 751 634T736 711T706 773T655 812T578 827Q503 827 435 794T287 705Q287 592 285 368T283
33L135 -12L123 8Q150 525 152 819Q152 853 152 917T153 1011T152 1088T146 1162T133 1216T111 1262Q108 1266 103 1270T90 1277T75 1284T56 1290T36 1296T14 1301T-7 1306T-28 1311T-47 1315V1352L-37 1360L287 1395L299 1380Q291 1206 291 815L307 799Q384 846
437 874T569 928T719 954Q745 954 785 939T852 897Q865 885 874 869T888 828T897 782T901 726T902 667T902 600T901 532V381Q901 372 900 342T899 294T902 247T910 200T925 164T952 136T991 127Q1079 127 1176 219Z" />
<glyph unicode="i" glyph-name="i" horiz-adv-x="528" d="M319 803L303 373Q303 251 322 192T393 133Q446 133 489 156T582 225L608 205V182Q457 -16 319 -16Q281 -16 256 -9T206 21T169 92T156 213L168 666Q168 840 96 840Q36 840 -68 774L-94 811Q97 965 193
965Q258 965 288 921T319 803ZM348 1280Q345 1229 310 1197T225 1165Q176 1165 141 1199T106 1284T148 1366T238 1399Q288 1399 318 1364T348 1280Z" />
<glyph unicode="j" glyph-name="j" horiz-adv-x="505" d="M-53 768L-80 805Q115 958 209 958Q244 958 268 947T306 914T325 872T334 821Q348 733 348 315Q348 -15 324 -84Q243 -319 -78 -473L-111 -440Q108 -310 152 -156Q193 -7 193 315Q193 411 193 480T190
605T184 698T175 761T164 802T148 824T128 834T102 836Q94 836 82 833T59 825T31 812T3 798T-27 782T-53 768ZM236 1399Q283 1399 318 1368T354 1288Q354 1235 318 1196T229 1157Q179 1157 147 1193T115 1280Q115 1329 150 1364T236 1399Z" />
<glyph unicode="k" glyph-name="k" horiz-adv-x="989" d="M340 545L614 797Q745 916 778 944T846 993L940 934V911Q717 780 504 602Q467 570 467 561Q467 555 483 528Q597 384 713 267T885 150Q968 150 1044 229L1083 188Q1062 160 1047 141T1002 90T947 37T888
2T823 -14Q778 -14 746 6T662 86Q479 332 334 494L309 479V27L164 -14L152 0Q155 108 161 301T172 654T176 958Q176 1146 158 1217Q145 1262 107 1279T-18 1307V1350L-8 1358L319 1405L313 1391V545H340Z" />
<glyph unicode="l" glyph-name="l" horiz-adv-x="522" d="M575 229H598L621 205Q475 -23 309 -23Q253 -23 219 -1T163 86T141 266L156 1040Q156 1191 145 1245Q142 1258 135 1268T115 1284T91 1294T60 1301T30 1304T-3 1306T-33 1307V1354L-20 1364L317 1405L330
1391Q328 1311 315 1004T301 530Q301 503 301 464T300 399T299 339T301 283T307 236T318 194T337 164T363 142T399 133Q431 133 465 150T520 182T575 229Z" />
<glyph unicode="m" glyph-name="m" horiz-adv-x="1691" d="M760 -8Q760 4 770 209T780 551T744 753T612 819Q569 819 511 798T422 759T373 729Q362 460 362 285Q362 134 367 29L229 -20L201 -4Q202 80 208 269T215 559Q215 723 202 773Q185 844 133 844Q84 844
-20 784L-45 823Q126 961 236 965Q362 965 362 813L379 801Q393 808 442 836T515 876T582 906T660 932T731 940Q788 940 837 912T915 834L948 829Q1083 900 1155 922Q1221 942 1276 942Q1383 942 1438 887Q1449 875 1457 860T1469 823T1476 780T1479 725T1480 664T1480
590T1479 508V240Q1479 106 1583 106Q1632 106 1741 188H1769L1784 145Q1724 91 1683 58T1578 -6T1456 -37Q1389 -37 1353 10T1317 121Q1317 123 1322 291T1327 551Q1327 684 1288 751T1153 819Q1043 819 924 750Q920 562 920 467Q920 248 932 37L780 -20L760 -8Z"
/>
<glyph unicode="n" glyph-name="n" horiz-adv-x="1206" d="M367 37L223 -12L193 2Q211 470 211 610Q211 730 197 788T135 846Q115 846 88 835T40 812T-18 774L-53 819Q8 863 42 887T132 938T223 965Q294 965 327 928T371 825L387 813Q498 880 592 920T774 961Q880
961 932 901Q951 878 960 805T971 675T973 524Q973 281 975 256Q980 160 1015 137Q1035 123 1071 123Q1128 123 1235 205H1262L1280 162Q1202 85 1115 33T958 -20Q811 -20 811 160L821 510Q821 675 781 757T637 840Q530 840 373 715Q360 397 360 238Q360 180 367
37Z" />
<glyph unicode="o" glyph-name="o" horiz-adv-x="1064" d="M258 647Q242 579 242 489Q242 432 249 377T275 262T324 158T404 84T518 55T630 80T708 145T755 238T779 344T786 451Q786 508 781 560T758 671T712 772T633 843T516 872Q428 872 357 814T258 647ZM463
-29Q361 -29 285 7T163 105T95 241T66 401Q66 530 88 629T178 801Q247 877 348 914T563 952Q671 952 752 913T879 806T947 659T969 489Q969 253 850 121Q782 44 681 8T463 -29Z" />
<glyph unicode="p" glyph-name="p" horiz-adv-x="1034" d="M315 -422L150 -485L129 -463Q141 -320 141 193V645Q141 726 122 785T61 844Q13 844 -88 784L-117 823Q57 963 162 963Q227 963 257 923T295 809L311 801Q501 952 688 952Q748 952 797 931T877 876T930
797T960 705T969 610Q969 497 930 384T822 181T653 34T436 -23Q381 -23 315 -6L295 -23Q301 -297 315 -422ZM299 135Q382 59 479 59Q551 59 607 85T698 154T756 253T788 369T797 489Q797 628 739 726T586 825Q511 825 444 796T301 707Q301 702 298 616T295 516Q295
482 295 443T295 367T296 296T297 233T298 182T299 148V135Z" />
<glyph unicode="q" glyph-name="q" horiz-adv-x="1083" d="M782 -498L750 -465Q753 -428 755 -331T761 -98T766 111L752 121Q572 -14 399 -14Q322 -14 263 23T171 120T122 246T106 381Q106 469 123 551T180 709T275 841T414 931T598 965Q687 965 801 907L819 911L909
1032L952 1024Q924 691 924 231Q924 -165 948 -438L782 -498ZM766 215V678Q766 713 765 733T756 780T733 823Q667 889 596 889Q529 889 477 864T391 796T335 695T304 572T295 436Q295 370 308 314T348 211T421 139T528 113Q586 113 649 141T766 215Z" />
<glyph unicode="r" glyph-name="r" horiz-adv-x="675" d="M631 694L606 705Q597 755 571 789T498 823Q441 823 401 785T340 696Q327 665 324 612T323 462T326 348Q326 193 332 37L188 -6L158 12Q182 298 182 498Q182 507 182 525Q182 564 182 583T181 638T178
694T172 741T161 784T145 815T123 837T94 844Q47 844 -66 780L-90 815Q-28 864 3 887T90 939T186 969Q313 969 334 821L354 813Q502 956 580 956Q726 956 741 795L631 694Z" />
<glyph unicode="s" glyph-name="s" horiz-adv-x="768" d="M662 784L549 709L524 723Q513 883 391 883Q319 883 271 836T223 717Q223 658 276 614T449 520Q569 468 626 411T684 283Q684 208 650 146T559 46T436 -14T299 -35Q88 -35 -2 135L98 281L127 279Q133 182
199 113T360 43Q426 43 480 90T535 199Q535 236 518 267T469 323T406 364T332 399Q278 421 237 444T157 499T97 572T76 662Q76 750 129 818T263 920T430 954Q521 954 589 912T662 784Z" />
<glyph unicode="t" glyph-name="t" horiz-adv-x="649" d="M207 1192L379 1251L393 1241Q373 1004 371 901L383 891H645L655 883L639 829L627 819H383L371 807V420Q371 357 376 310T395 214T439 139T516 113Q571 113 702 197L727 193L741 162Q549 -18 406 -18Q306
-18 258 45Q226 86 219 146T211 416V805L199 819H-31L-41 829L-27 879L-14 891H199L211 903Q211 1139 207 1192Z" />
<glyph unicode="u" glyph-name="u" horiz-adv-x="1083" d="M1190 215L1212 176Q1149 121 1105 86T996 18T883 -16Q755 -16 741 131L725 133Q474 -20 340 -20Q277 -20 233 2T166 62T135 140T125 229Q125 264 129 399T133 563Q133 698 126 743T98 811Q83 829 41
829Q2 829 -104 768L-131 809Q-70 856 -39 878T50 929T147 958Q229 958 257 906Q282 858 284 702Q284 671 283 598Q283 535 283 500Q283 321 296 256Q322 130 419 109Q442 104 467 104Q510 104 563 123T647 160T735 213Q735 278 736 439T737 674Q737 848 735 891L893
963L920 940Q895 643 895 371Q895 330 895 309T898 255T907 204T924 168T953 141T995 133Q1057 133 1174 219L1190 215Z" />
<glyph unicode="v" glyph-name="v" horiz-adv-x="870" d="M760 942Q766 946 776 946Q808 946 839 886T870 741Q870 664 841 592T758 434Q642 248 432 35Q378 -18 371 -23H322L180 506Q137 663 100 749T20 836Q-34 836 -109 793L-127 842Q-78 876 -44 897T41 940T129
961Q164 961 190 941T236 874T272 777T308 644Q310 634 311 629T315 616T319 600Q323 584 340 511T370 392T399 288T432 199T459 168Q463 168 471 175T491 195T508 213Q727 473 727 639Q727 670 713 711T689 772T651 844Q649 846 649 854T657 870L760 942Z" />
<glyph unicode="w" glyph-name="w" horiz-adv-x="1495" d="M1278 852Q1276 856 1276 864Q1276 877 1280 879L1397 950Q1399 952 1409 952Q1443 952 1470 878T1497 756Q1497 680 1467 607T1382 442Q1268 253 1059 27Q1016 -16 987 -16Q971 -16 955 -2T934 27Q895
136 748 717Q738 737 729 737Q710 737 707 727Q474 300 340 10L254 -16L240 -4L190 455Q181 535 170 599T149 703T126 772T105 814T85 835T69 843T57 844Q8 844 -113 780L-131 821Q-11 907 41 932Q101 961 143 961Q182 961 212 943T259 893T286 832T303 764Q317
691 326 608T345 424T362 266L385 262Q611 669 725 903L831 956L856 950Q956 463 1055 197Q1060 185 1070 176T1092 166Q1107 166 1122 186Q1236 330 1276 397Q1356 529 1356 639Q1356 719 1278 852Z" />
<glyph unicode="x" glyph-name="x" horiz-adv-x="823" d="M729 946L793 887Q799 881 799 879Q799 871 793 868Q631 755 440 530Q475 454 510 389T584 262T663 165T735 129Q790 129 881 207H897L913 168Q880 133 865 117T816 68T759 19T706 -11T651 -25Q627 -25
606 -16T560 19T518 68T472 143T425 230T368 340Q362 351 359 357T351 373T342 391H328Q272 305 245 261T175 137T104 -16L72 -25L14 27V43Q126 223 305 457Q215 640 183 692Q97 834 29 834Q-25 834 -102 782L-131 819Q40 950 111 950Q185 950 221 911Q251 878
305 787T408 602L420 600Q519 731 705 946Q707 950 717 950Q725 950 729 946Z" />
<glyph unicode="y" glyph-name="y" horiz-adv-x="1062" d="M119 -373L115 -350L205 -236H231Q267 -302 323 -347T444 -393Q507 -393 556 -370T635 -314T685 -234T716 -150T733 -70Q746 5 750 131L737 141Q661 93 612 66T488 11T352 -16Q311 -16 278 -4T223 26T185
74T160 131T147 195T141 259T139 322Q139 367 143 458T147 602Q147 664 144 702T132 775T103 824T53 840Q17 840 -92 782L-115 821Q84 958 170 958Q233 958 266 917T299 815Q299 758 295 641T291 463Q295 327 308 265T348 168Q390 115 477 115Q522 115 578 134T665
171T752 221Q756 365 756 440Q756 637 739 877L901 954L926 946Q915 780 913 548T907 150T883 -100Q830 -289 693 -383T379 -477Q308 -477 235 -447T119 -373Z" />
<glyph unicode="z" glyph-name="z" horiz-adv-x="747" d="M713 946H725L754 920Q497 648 160 193L170 176Q431 150 590 150Q632 150 666 163T729 203T774 252T813 309L858 285L774 121Q740 54 694 19T575 -16Q565 -17 520 -13T410 -1T311 10L72 33Q7 33 -55 -55H-68L-98
-16L506 764Q486 760 444 760Q411 760 324 779T199 799Q147 799 110 766T16 653L-25 680L78 862Q110 910 136 928T205 946Q256 946 380 915T563 883Q636 883 713 946Z" />
<glyph unicode="{" glyph-name="braceleft" horiz-adv-x="655" d="M598 -315V-365Q413 -365 360 -352Q337 -346 319 -335T287 -313T263 -282T245 -246T234 -203T227 -157T224 -104T222 -50T222 9T223 70Q223 172 222 233T208 376T172 483Q129 530 -6 530V584Q64
584 100 591T168 625Q182 637 192 655T207 702T216 756T221 824T222 894T222 974T221 1053Q221 1140 222 1198T234 1307T252 1386T287 1439T333 1471T402 1487T486 1494T598 1495V1446Q483 1446 420 1430Q376 1418 354 1354T329 1237T326 1089Q326 1084 326 1082T326
1075T326 1068T326 1061Q326 845 286 720T152 561V559Q184 548 210 529T253 486T284 433T305 373T318 307T324 237T326 167T326 97Q326 73 326 61Q326 -33 331 -96T353 -202T386 -267T440 -300T507 -313T598 -315Z" />
<glyph unicode="|" glyph-name="bar" horiz-adv-x="436" d="M258 -326L176 -342V1495L258 1511V-326Z" />
<glyph unicode="}" glyph-name="braceright" horiz-adv-x="655" d="M47 -358V-309Q164 -309 211 -297Q237 -291 256 -274T287 -226T306 -169T315 -96T318 -27T319 46Q319 61 319 68Q319 242 327 304Q354 514 494 565V567Q434 588 391 651T334 815Q323 896 322
1061T307 1309Q302 1333 295 1352T279 1385T258 1410T234 1428T206 1440T175 1447T142 1450T106 1452T67 1452Q54 1452 47 1452V1501Q63 1501 98 1501T147 1500T189 1499T230 1496T265 1491T299 1484T326 1473T351 1457T371 1436Q388 1415 398 1394T414 1356T422
1302T425 1245T425 1160T424 1059Q424 991 424 950T427 859T432 783T441 724T455 676T476 642T505 616T543 602T591 592T651 590V537Q601 540 541 526Q512 519 491 501T457 447T437 382T426 295T423 206T422 104Q422 85 422 76Q422 9 421 -42T412 -136T400 -209T378
-264T350 -304T311 -330T265 -346T205 -354T136 -357T51 -358Q48 -358 47 -358Z" />
<glyph unicode="~" glyph-name="asciitilde" horiz-adv-x="1130" d="M575 596L727 502Q809 449 879 449Q935 449 970 483T1042 586L1085 563Q1050 478 992 422T856 365Q753 365 641 438L438 567Q346 625 274 625Q215 625 176 590T90 467L45 492Q96 595 155 653T299
711Q341 711 396 690T482 652T575 596Z" />
<glyph unicode="&#xa0;" glyph-name="space" horiz-adv-x="300" />
<glyph unicode="&#xa1;" glyph-name="exclamdown" horiz-adv-x="606" d="M184 953T184 905T219 823T303 788Q350 788 384 823T418 905T384 987T303 1022Q254 1022 219 988ZM270 623L215 -162Q214 -175 212 -200T209 -245T209 -281Q209 -356 234 -385T311 -414Q352
-414 369 -386T387 -319Q387 -239 377 -141L303 618L270 623Z" />
<glyph unicode="&#xa2;" glyph-name="cent" horiz-adv-x="841" d="M809 233L831 197Q720 88 609 24Q543 -13 473 -28V-326L391 -342V-39Q382 -39 373 -39Q304 -39 249 -23T157 20T94 88T53 168T30 260T20 352T18 444Q18 675 164 824Q260 922 391 956V1298L473
1315V970Q504 973 537 973Q636 973 700 917T774 772L664 664L629 676Q616 778 569 836Q528 885 473 892V96Q475 96 477 96Q627 96 791 238L809 233ZM391 883Q347 869 310 834Q247 774 218 688T188 508Q188 450 194 397T220 288T271 190T355 122Q372 114 391 108V883Z"
/>
<glyph unicode="&#xa3;" glyph-name="sterling" horiz-adv-x="1345" d="M625 274Q704 220 816 184T1001 147Q1094 147 1149 224T1204 410Q1204 464 1196 522L1245 532Q1255 488 1255 414Q1255 309 1237 232T1165 98Q1137 69 1121 54T1078 20T1026 -6T967 -14Q754
-14 606 104Q508 168 430 202T311 236Q283 236 258 227T214 204T178 167T150 126T127 78T109 32T94 -12L53 23Q62 120 131 238Q157 282 230 335T324 408Q369 451 404 574Q414 610 423 647Q340 644 205 641L221 733Q305 731 439 723Q449 774 455 825Q490 1099 614
1251T950 1403Q1036 1403 1096 1363T1157 1243Q1157 1209 1148 1183T1124 1146T1096 1127T1072 1119L1063 1118Q1024 1118 1007 1136T989 1208Q989 1258 951 1295T860 1333Q800 1333 757 1299T691 1213T650 1083T621 933T592 772Q586 748 581 725L946 737L938 639Q703
646 560 649Q556 634 551 621Q527 535 467 462T352 360L358 348Q431 348 497 330T594 292L625 274Z" />
<glyph unicode="&#xa4;" glyph-name="currency" horiz-adv-x="1024" d="M158 1087L256 989Q368 1073 512 1073Q653 1073 768 989L866 1087L963 991L862 891Q908 839 928 780T948 641Q948 565 928 507T862 389L963 289L870 197L772 295Q715 249 655 229T512 209T370
229T252 295L154 197L61 289L162 389Q116 448 96 506T76 641Q76 721 96 780T162 891L61 991L158 1087ZM518 952Q385 952 291 862T197 643Q197 513 289 422T512 330T735 421T827 641Q827 767 735 859T518 952Z" />
<glyph unicode="&#xa5;" glyph-name="yen" horiz-adv-x="1064" d="M621 485H975L963 403H623L635 37L451 -23L428 -4Q432 145 434 403H115L129 485H434Q434 546 434 612L403 674H111L125 756H361L129 1217Q96 1281 60 1302T-47 1333V1391L-33 1405H264L553 739Q561
723 578 723Q586 723 631 792T721 942Q741 978 838 1143T983 1384L1157 1419L1165 1382Q862 985 753 830Q727 793 702 756H971L958 674H647Q631 651 616 627L621 485Z" />
<glyph unicode="&#xa6;" glyph-name="brokenbar" horiz-adv-x="436" d="M258 686L176 670V1495L258 1511V686ZM258 -326L176 -342V483L258 500V-326Z" />
<glyph unicode="&#xa7;" glyph-name="section" horiz-adv-x="1054" d="M788 340L795 348Q831 397 831 475Q831 552 758 625Q724 661 651 698T508 763T371 828T274 905Q225 842 225 764Q225 702 270 649T386 557T532 485T680 414T788 340ZM115 47L258 102L274 92Q277
-16 343 -91T516 -166Q609 -166 670 -88T731 98Q731 133 717 163T683 216T625 262T554 304T465 348Q460 350 457 351T449 355T440 360Q382 386 341 408T261 460T198 522T160 597T145 692Q145 804 244 950Q223 1022 223 1075Q223 1227 320 1331T571 1436Q612 1436
651 1428T729 1403T790 1352T813 1274Q813 1273 801 1198L680 1155L649 1178Q649 1271 613 1322T510 1374Q434 1374 387 1308T340 1149Q340 1112 350 1082T376 1033T421 992T475 958T543 922T616 883Q640 869 683 848T754 812T817 772T874 723T909 663T924 584Q924
425 817 305Q854 246 854 154Q854 1 746 -109T485 -219Q419 -219 359 -206T245 -163T156 -80T115 47Z" />
<glyph unicode="&#xa8;" glyph-name="dieresis" horiz-adv-x="1064" d="M860 1178Q857 1127 822 1095T737 1063Q688 1063 653 1097T618 1182Q618 1231 659 1263T749 1296Q799 1296 829 1261T860 1178ZM446 1178Q443 1127 408 1095T323 1063Q274 1063 239 1097T204
1182Q204 1231 245 1263T335 1296Q385 1296 415 1261T446 1178Z" />
<glyph unicode="&#xa9;" glyph-name="copyright" horiz-adv-x="1155" d="M23 782T23 895T67 1111T185 1288T362 1406T578 1450T794 1406T971 1288T1089 1111T1133 895T1089 679T971 502T794 384T578 340T362 384T185 502T67 679ZM74 1104T74 895T221 539T578 391T934
538T1081 895T934 1251T578 1399T222 1252ZM850 1094H834Q775 1227 612 1227Q488 1227 408 1159Q311 1076 311 905Q311 840 343 772T410 676Q465 630 512 610T631 590Q736 590 860 659L881 631Q712 537 588 537Q414 537 319 614Q201 713 201 887Q201 1063 313 1157Q448
1268 655 1268Q836 1268 920 1153L850 1094Z" />
<glyph unicode="&#xaa;" glyph-name="ordfeminine" horiz-adv-x="995" d="M692 1126L772 1167L780 1161Q770 998 770 864Q770 838 772 786T774 709Q774 623 829 623Q849 623 928 647L938 614Q800 537 748 537Q678 537 664 616L641 621Q496 537 395 537Q336 537
291 561T221 624T184 708T172 801Q172 874 193 939T256 1057T368 1142T530 1174Q567 1174 612 1161T692 1126ZM659 684V991Q659 1016 659 1027T653 1055T635 1083Q589 1126 535 1126Q452 1126 389 1075Q312 1011 309 840Q305 743 352 680Q394 625 500 625Q572 625
659 684Z" />
<glyph unicode="&#xab;" glyph-name="guillemotleft" horiz-adv-x="974" d="M414 487L807 872L870 778L565 479L872 131L844 74L414 487ZM102 487L496 872L559 778L254 479L561 131L532 74L102 487Z" />
<glyph unicode="&#xac;" glyph-name="logicalnot" horiz-adv-x="1400" d="M1286 838V422H1204V756H51V838H1286Z" />
<glyph unicode="&#xad;" glyph-name="uni00AD" horiz-adv-x="684" d="M578 483H94L109 565H590L578 483Z" />
<glyph unicode="&#xae;" glyph-name="registered" horiz-adv-x="1155" d="M23 782T23 895T67 1111T185 1288T362 1406T578 1450T794 1406T971 1288T1089 1111T1133 895T1089 679T971 502T794 384T578 340T362 384T185 502T67 679ZM74 1104T74 895T221 539T578
391T934 538T1081 895T934 1251T578 1399T222 1252ZM467 932Q467 918 479 918Q591 918 668 961T745 1090Q745 1208 539 1208H489Q475 1208 475 1182Q467 1050 467 932ZM600 893L598 885L922 582V571L799 545Q777 568 729 620T651 704T586 773T528 833T494 864Q478
872 469 872Q469 676 475 578L373 547L360 557Q371 719 371 1004Q371 1007 369 1076T367 1180Q367 1201 329 1213T272 1225L274 1241L283 1249H614Q727 1249 795 1213T864 1106Q864 1005 792 954T600 893Z" />
<glyph unicode="&#xaf;" glyph-name="overscore" horiz-adv-x="1064" d="M768 1137H284L299 1219H780L768 1137Z" />
<glyph unicode="&#xb0;" glyph-name="degree" horiz-adv-x="1064" d="M333 1095T333 1178T391 1318T532 1376T673 1319T731 1178T673 1037T532 979T391 1037ZM395 1235T395 1178T435 1081T532 1040T629 1080T669 1178T629 1275T532 1315T435 1275Z" />
<glyph unicode="&#xb1;" glyph-name="plusminus" horiz-adv-x="1548" d="M1442 -154H94L109 -72H729V483H94L109 565H729V1188L811 1200V565H1452L1442 483H811V-72H1454L1442 -154Z" />
<glyph unicode="&#xb2;" glyph-name="uni00B2" horiz-adv-x="831" d="M752 659L717 555H59V578Q222 726 309 815Q362 870 396 910T468 1005T524 1116T543 1229Q543 1295 501 1350T375 1405Q280 1405 166 1319L137 1346Q290 1495 455 1495Q552 1495 617 1436T682
1288Q682 1226 651 1156T548 996T432 860T291 714Q272 694 262 684Q260 682 260 680Q260 670 279 670H743L752 659Z" />
<glyph unicode="&#xb3;" glyph-name="uni00B3" horiz-adv-x="831" d="M403 1061V1051Q713 1027 713 840Q713 751 654 679T504 569T313 530Q185 530 78 604L68 618L131 715H147Q239 584 352 584Q449 584 510 647T571 801Q571 880 496 952Q432 1012 229 1012V1047Q518
1106 518 1272Q518 1332 472 1367T354 1403Q291 1403 170 1333L150 1362Q315 1487 422 1487Q515 1487 578 1441T641 1309Q641 1218 574 1153T403 1061Z" />
<glyph unicode="&#xb4;" glyph-name="acute" horiz-adv-x="1064" d="M447 997L410 1061L655 1382L682 1386L778 1313L447 997Z" />
<glyph unicode="&#xb5;" glyph-name="mu" horiz-adv-x="1265" d="M993 954L1010 932Q997 750 997 680V338Q997 305 1000 276T1014 212T1047 156T1104 135Q1155 135 1262 203L1284 199L1300 170Q1115 -2 989 -2Q916 -2 887 32T848 139L831 150Q749 103 699 77T576
22T457 -6Q410 -6 385 7T330 55L317 51Q317 -181 356 -367L248 -408L223 -395Q231 -19 231 170V557Q231 685 197 893L367 946L385 932V381Q385 340 388 309T402 239T432 176T488 134T575 117Q633 117 709 152T838 246Q839 280 840 350T843 469T844 537Q844 655
836 889L993 954Z" />
<glyph unicode="&#xb6;" glyph-name="paragraph" horiz-adv-x="931" d="M614 27L741 -12L756 2Q755 87 748 393T741 866Q741 1007 752 1229Q756 1285 794 1307T903 1339V1376L889 1391L582 1397Q363 1401 222 1281T72 991Q69 924 88 860T150 739T265 645T432 600Q443
599 474 598T528 596T575 591T615 580T629 561Q629 548 622 348T614 27Z" />
<glyph unicode="&#xb7;" glyph-name="middot" horiz-adv-x="569" d="M158 469T158 526T198 623T295 664T392 624T432 526T392 429T295 389T198 429Z" />
<glyph unicode="&#xb8;" glyph-name="cedilla" horiz-adv-x="1064" d="M491 12H565L524 -84Q556 -96 601 -121T671 -178Q709 -224 715 -274T684 -383Q606 -486 360 -530L348 -500L358 -479Q471 -436 505 -393Q543 -340 500 -296T385 -229L491 12Z" />
<glyph unicode="&#xb9;" glyph-name="uni00B9" horiz-adv-x="831" d="M504 1501L514 1485Q504 1336 504 1128Q504 682 508 582L381 547L362 553Q375 952 375 1110Q375 1135 376 1171T377 1227T377 1274T372 1314T360 1342T339 1362T305 1368H180V1403L504 1501Z" />
<glyph unicode="&#xba;" glyph-name="ordmasculine" horiz-adv-x="927" d="M266 973Q254 924 254 870Q254 822 263 778T293 689T357 617T459 590Q517 590 557 613T618 677T646 758T655 846Q655 894 648 936T621 1022T559 1093T457 1120Q394 1120 340 1081T266
973ZM418 535Q344 535 288 557T199 620T148 708T125 813Q125 897 141 961T207 1073Q308 1171 492 1171Q621 1171 686 1118Q788 1036 788 870Q788 717 702 631Q603 535 418 535Z" />
<glyph unicode="&#xbb;" glyph-name="guillemotright" horiz-adv-x="974" d="M561 487L168 872L104 778L410 479L102 131L131 74L561 487ZM872 487L479 872L416 778L721 479L414 131L442 74L872 487Z" />
<glyph unicode="&#xbc;" glyph-name="onequarter" horiz-adv-x="1617" d="M1368 860L1380 854Q1376 788 1376 295L1389 285H1528L1534 276L1509 229H1389L1376 221Q1376 72 1382 31L1264 -10L1257 -4Q1264 34 1264 219L1253 229H836V285L1257 817L1368 860ZM1264
295V715Q1264 725 1257 725Q1253 725 1249 721Q1206 682 1112 561Q1055 486 994 399T932 293L938 285H1255L1264 295ZM367 1440L377 1423Q365 1260 365 1096Q365 733 371 592L246 557L229 563Q240 797 240 1079Q240 1101 241 1135T242 1187T241 1229T236 1267T224
1293T203 1311T170 1317H47V1350L367 1440ZM1258 1423L1264 1401L369 -8L305 18V47L1192 1440L1215 1442L1258 1423Z" />
<glyph unicode="&#xbd;" glyph-name="onehalf" horiz-adv-x="1617" d="M1534 96L1499 0H854V20Q1022 164 1100 240Q1152 291 1186 329T1257 417T1312 519T1331 623Q1331 684 1289 734T1163 784Q1108 784 1061 764T961 707L932 729Q1086 868 1243 868Q1339 868
1402 815T1466 678Q1466 620 1436 555T1337 410T1223 284T1087 150Q1066 129 1055 119L1051 115Q1051 106 1071 106H1526L1534 96ZM367 1440L377 1423Q365 1260 365 1096Q365 733 371 592L246 557L229 563Q240 797 240 1079Q240 1101 241 1135T242 1187T241 1229T236
1267T224 1293T203 1311T170 1317H47V1350L367 1440ZM1250 1423L1256 1401L361 -8L297 18V47L1184 1440L1207 1442L1250 1423Z" />
<glyph unicode="&#xbe;" glyph-name="threequarters" horiz-adv-x="1617" d="M367 1038V1028Q668 1006 668 834Q668 753 612 687T467 585T279 549Q150 549 47 616L39 629L100 719H115Q201 598 315 598Q411 598 470 657T530 799Q530 874 459 938Q398 993 195 993L197
1026Q336 1054 406 1103T477 1233Q477 1290 431 1322T317 1354Q258 1354 137 1290L117 1317Q168 1351 201 1371T288 1411T385 1432Q476 1432 538 1389T600 1268Q600 1183 535 1123T367 1038ZM1368 860L1380 854Q1376 788 1376 295L1389 285H1528L1534 276L1509
229H1389L1376 221Q1376 72 1382 31L1264 -10L1257 -4Q1264 34 1264 219L1253 229H836V285L1257 817L1368 860ZM1264 295V715Q1264 725 1257 725Q1253 725 1249 721Q1206 682 1112 561Q1055 486 994 399T932 293L938 285H1255L1264 295ZM1340 1423L1346 1401L451
-8L387 18V47L1274 1440L1297 1442L1340 1423Z" />
<glyph unicode="&#xbf;" glyph-name="questiondown" horiz-adv-x="741" d="M524 953T524 905T491 823T410 788Q361 788 326 822T291 905T326 987T410 1022Q457 1022 490 988ZM360 567L455 633Q492 610 516 571T541 487Q541 441 487 375Q449 326 382 261T270 151T190
35T154 -117Q154 -202 216 -278T354 -354Q418 -354 469 -314T520 -207Q520 -134 455 -82L592 0Q649 -51 649 -141Q649 -202 613 -256T521 -345T400 -400T272 -420Q154 -420 81 -348T8 -158Q8 -80 70 25Q101 78 163 139T279 245T374 342T416 438Q416 468 401 497T360
545V567Z" />
<glyph unicode="&#xc0;" glyph-name="Agrave" horiz-adv-x="1353" d="M649 1472L686 1536L441 1857L414 1861L318 1788L649 1472ZM954 156L844 541Q841 547 834 553T821 559H360Q348 559 340 543L100 35L-86 -4L-92 16Q310 692 602 1270Q604 1276 604 1284Q604
1290 598 1297T580 1307L395 1337V1393H793Q823 1227 983 649Q1013 540 1033 472T1088 311T1157 162Q1194 100 1288 100Q1289 100 1376 106L1378 53L1165 -8Q1118 -20 1073 -20Q1049 -20 1030 -7T997 36T975 89T954 156ZM639 1171L401 672Q399 668 399 653Q399
649 404 644T414 639H799Q813 639 813 653Q809 670 809 672L666 1171Q662 1180 651 1180Q647 1180 643 1177T639 1171Z" />
<glyph unicode="&#xc1;" glyph-name="Aacute" horiz-adv-x="1353" d="M594 1470L557 1534L802 1855L829 1859L925 1786L594 1470ZM954 156L844 541Q841 547 834 553T821 559H360Q348 559 340 543L100 35L-86 -4L-92 16Q310 692 602 1270Q604 1276 604 1284Q604
1290 598 1297T580 1307L395 1337V1393H793Q823 1227 983 649Q1013 540 1033 472T1088 311T1157 162Q1194 100 1288 100Q1289 100 1376 106L1378 53L1165 -8Q1118 -20 1073 -20Q1049 -20 1030 -7T997 36T975 89T954 156ZM639 1171L401 672Q399 668 399 653Q399
649 404 644T414 639H799Q813 639 813 653Q809 670 809 672L666 1171Q662 1180 651 1180Q647 1180 643 1177T639 1171Z" />
<glyph unicode="&#xc2;" glyph-name="Acircumflex" horiz-adv-x="1353" d="M623 1863L945 1536L865 1482L617 1736L326 1468L279 1493L623 1863ZM954 156L844 541Q841 547 834 553T821 559H360Q348 559 340 543L100 35L-86 -4L-92 16Q310 692 602 1270Q604 1276
604 1284Q604 1290 598 1297T580 1307L395 1337V1393H793Q823 1227 983 649Q1013 540 1033 472T1088 311T1157 162Q1194 100 1288 100Q1289 100 1376 106L1378 53L1165 -8Q1118 -20 1073 -20Q1049 -20 1030 -7T997 36T975 89T954 156ZM639 1171L401 672Q399 668
399 653Q399 649 404 644T414 639H799Q813 639 813 653Q809 670 809 672L666 1171Q662 1180 651 1180Q647 1180 643 1177T639 1171Z" />
<glyph unicode="&#xc3;" glyph-name="Atilde" horiz-adv-x="1353" d="M627 1704L723 1661Q778 1638 817 1643Q851 1647 868 1665T901 1723L928 1712Q922 1657 891 1597T815 1530Q758 1522 684 1555L555 1616Q501 1640 453 1635Q417 1631 398 1610T359 1536L330
1547Q337 1578 347 1608T372 1669T409 1722T457 1747Q510 1755 627 1704ZM954 156L844 541Q841 547 834 553T821 559H360Q348 559 340 543L100 35L-86 -4L-92 16Q310 692 602 1270Q604 1276 604 1284Q604 1290 598 1297T580 1307L395 1337V1393H793Q823 1227 983
649Q1013 540 1033 472T1088 311T1157 162Q1194 100 1288 100Q1289 100 1376 106L1378 53L1165 -8Q1118 -20 1073 -20Q1049 -20 1030 -7T997 36T975 89T954 156ZM639 1171L401 672Q399 668 399 653Q399 649 404 644T414 639H799Q813 639 813 653Q809 670 809 672L666
1171Q662 1180 651 1180Q647 1180 643 1177T639 1171Z" />
<glyph unicode="&#xc4;" glyph-name="Adieresis" horiz-adv-x="1353" d="M950 1672Q947 1621 912 1589T827 1557Q778 1557 743 1591T708 1676Q708 1725 749 1757T839 1790Q889 1790 919 1755T950 1672ZM536 1672Q533 1621 498 1589T413 1557Q364 1557 329 1591T294
1676Q294 1725 335 1757T425 1790Q475 1790 505 1755T536 1672ZM954 156L844 541Q841 547 834 553T821 559H360Q348 559 340 543L100 35L-86 -4L-92 16Q310 692 602 1270Q604 1276 604 1284Q604 1290 598 1297T580 1307L395 1337V1393H793Q823 1227 983 649Q1013
540 1033 472T1088 311T1157 162Q1194 100 1288 100Q1289 100 1376 106L1378 53L1165 -8Q1118 -20 1073 -20Q1049 -20 1030 -7T997 36T975 89T954 156ZM639 1171L401 672Q399 668 399 653Q399 649 404 644T414 639H799Q813 639 813 653Q809 670 809 672L666 1171Q662
1180 651 1180Q647 1180 643 1177T639 1171Z" />
<glyph unicode="&#xc5;" glyph-name="Aring" horiz-adv-x="1353" d="M444 1469T444 1552T502 1692T643 1750T784 1693T842 1552T784 1411T643 1353T502 1411ZM506 1609T506 1552T546 1455T643 1414T740 1454T780 1552T740 1649T643 1689T546 1649ZM954 156L844
541Q841 547 834 553T821 559H360Q348 559 340 543L100 35L-86 -4L-92 16Q310 692 602 1270Q604 1276 604 1284Q604 1290 598 1297T580 1307L395 1337V1393H793Q823 1227 983 649Q1013 540 1033 472T1088 311T1157 162Q1194 100 1288 100Q1289 100 1376 106L1378
53L1165 -8Q1118 -20 1073 -20Q1049 -20 1030 -7T997 36T975 89T954 156ZM639 1171L401 672Q399 668 399 653Q399 649 404 644T414 639H799Q813 639 813 653Q809 670 809 672L666 1171Q662 1180 651 1180Q647 1180 643 1177T639 1171Z" />
<glyph unicode="&#xc6;" glyph-name="AE" horiz-adv-x="1538" d="M651 1163Q651 1178 645 1178Q642 1178 639 1171L401 672Q399 668 399 653Q399 649 404 644T414 639H651V1163ZM651 559H360Q348 559 340 543L100 35L-86 -4L-92 16Q310 692 604 1274Q606 1280
606 1288Q606 1294 600 1301T582 1311L395 1341V1397H793Q872 1397 1050 1402T1288 1409Q1355 1409 1382 1407L1378 1305L1370 1290Q1000 1311 942 1311H860Q811 1301 811 1155V815Q811 809 813 805T819 797T829 792T842 789T858 787T877 786T898 786T921 786T946
786Q1111 786 1315 801L1327 786L1315 688Q1155 700 1073 700Q1058 700 1033 700T992 700T952 701T914 700T880 698T851 695T829 689T814 681T809 670V385Q809 211 840 156Q862 117 902 104T1036 90Q1180 90 1516 119L1526 109L1499 0H705Q651 30 651 135V559Z"
/>
<glyph unicode="&#xc7;" glyph-name="Ccedilla" horiz-adv-x="1255" d="M661 -13H735L694 -109Q726 -121 771 -146T841 -203Q879 -249 885 -299T854 -408Q776 -511 530 -555L518 -525L528 -504Q641 -461 675 -418Q713 -365 670 -321T555 -254L661 -13ZM1137 1081L1108
1083Q1007 1348 741 1348Q633 1348 546 1311T403 1212T308 1066T254 892T238 705Q238 575 291 441T403 248Q495 156 573 117T770 78Q951 78 1153 215L1188 156Q913 -31 698 -31Q404 -31 252 121Q55 318 55 668Q55 1021 242 1208Q352 1318 500 1375T811 1432Q1112
1432 1253 1200L1137 1081Z" />
<glyph unicode="&#xc8;" glyph-name="Egrave" horiz-adv-x="1075" d="M569 1468L606 1532L361 1853L334 1857L238 1784L569 1468ZM852 688Q692 700 610 700Q595 700 570 700T529 700T489 701T451 700T417 698T388 695T366 689T351 681T346 670V385Q346 211 377
156Q399 117 439 104T573 90Q717 90 1053 119L1063 109L1036 0H242Q188 30 188 135V1143Q188 1233 170 1274Q150 1319 14 1339L12 1380L27 1395L330 1397Q409 1397 587 1402T825 1409Q893 1409 920 1407L915 1305L907 1290Q537 1311 479 1311H397Q348 1301 348
1155V815Q348 809 350 805T356 797T366 792T379 789T395 787T414 786T435 786T458 786T483 786Q648 786 852 801L864 786L852 688Z" />
<glyph unicode="&#xc9;" glyph-name="Eacute" horiz-adv-x="1075" d="M488 1472L451 1536L696 1857L723 1861L819 1788L488 1472ZM852 688Q692 700 610 700Q595 700 570 700T529 700T489 701T451 700T417 698T388 695T366 689T351 681T346 670V385Q346 211 377
156Q399 117 439 104T573 90Q717 90 1053 119L1063 109L1036 0H242Q188 30 188 135V1143Q188 1233 170 1274Q150 1319 14 1339L12 1380L27 1395L330 1397Q409 1397 587 1402T825 1409Q893 1409 920 1407L915 1305L907 1290Q537 1311 479 1311H397Q348 1301 348
1155V815Q348 809 350 805T356 797T366 792T379 789T395 787T414 786T435 786T458 786T483 786Q648 786 852 801L864 786L852 688Z" />
<glyph unicode="&#xca;" glyph-name="Ecircumflex" horiz-adv-x="1075" d="M574 1863L896 1536L816 1482L568 1736L277 1468L230 1493L574 1863ZM852 688Q692 700 610 700Q595 700 570 700T529 700T489 701T451 700T417 698T388 695T366 689T351 681T346 670V385Q346
211 377 156Q399 117 439 104T573 90Q717 90 1053 119L1063 109L1036 0H242Q188 30 188 135V1143Q188 1233 170 1274Q150 1319 14 1339L12 1380L27 1395L330 1397Q409 1397 587 1402T825 1409Q893 1409 920 1407L915 1305L907 1290Q537 1311 479 1311H397Q348 1301
348 1155V815Q348 809 350 805T356 797T366 792T379 789T395 787T414 786T435 786T458 786T483 786Q648 786 852 801L864 786L852 688Z" />
<glyph unicode="&#xcb;" glyph-name="Edieresis" horiz-adv-x="1075" d="M899 1672Q896 1621 861 1589T776 1557Q727 1557 692 1591T657 1676Q657 1725 698 1757T788 1790Q838 1790 868 1755T899 1672ZM485 1672Q482 1621 447 1589T362 1557Q313 1557 278 1591T243
1676Q243 1725 284 1757T374 1790Q424 1790 454 1755T485 1672ZM852 688Q692 700 610 700Q595 700 570 700T529 700T489 701T451 700T417 698T388 695T366 689T351 681T346 670V385Q346 211 377 156Q399 117 439 104T573 90Q717 90 1053 119L1063 109L1036 0H242Q188
30 188 135V1143Q188 1233 170 1274Q150 1319 14 1339L12 1380L27 1395L330 1397Q409 1397 587 1402T825 1409Q893 1409 920 1407L915 1305L907 1290Q537 1311 479 1311H397Q348 1301 348 1155V815Q348 809 350 805T356 797T366 792T379 789T395 787T414 786T435
786T458 786T483 786Q648 786 852 801L864 786L852 688Z" />
<glyph unicode="&#xcc;" glyph-name="Igrave" horiz-adv-x="632" d="M438 1472L475 1536L230 1857L203 1861L107 1788L438 1472ZM616 -2H74V51Q110 58 133 63T177 76T209 88T230 104T243 123T250 150T253 181T254 223T256 274V1018Q256 1175 250 1253Q249 1264
248 1271T244 1284T238 1294T227 1302T211 1309T187 1315T157 1322T117 1330T68 1341V1386L82 1399H594L606 1386V1343L469 1313Q428 1304 424 1260Q416 1206 415 1119T415 903T418 735Q418 596 422 346Q422 330 421 288T421 220T427 161T448 109T487 82Q612 47
621 47L616 -2Z" />
<glyph unicode="&#xcd;" glyph-name="Iacute" horiz-adv-x="632" d="M211 1472L174 1536L419 1857L446 1861L542 1788L211 1472ZM616 -2H74V51Q110 58 133 63T177 76T209 88T230 104T243 123T250 150T253 181T254 223T256 274V1018Q256 1175 250 1253Q249 1264
248 1271T244 1284T238 1294T227 1302T211 1309T187 1315T157 1322T117 1330T68 1341V1386L82 1399H594L606 1386V1343L469 1313Q428 1304 424 1260Q416 1206 415 1119T415 903T418 735Q418 596 422 346Q422 330 421 288T421 220T427 161T448 109T487 82Q612 47
621 47L616 -2Z" />
<glyph unicode="&#xce;" glyph-name="Icircumflex" horiz-adv-x="632" d="M349 1863L671 1536L591 1482L343 1736L52 1468L5 1493L349 1863ZM616 -2H74V51Q110 58 133 63T177 76T209 88T230 104T243 123T250 150T253 181T254 223T256 274V1018Q256 1175 250 1253Q249
1264 248 1271T244 1284T238 1294T227 1302T211 1309T187 1315T157 1322T117 1330T68 1341V1386L82 1399H594L606 1386V1343L469 1313Q428 1304 424 1260Q416 1206 415 1119T415 903T418 735Q418 596 422 346Q422 330 421 288T421 220T427 161T448 109T487 82Q612
47 621 47L616 -2Z" />
<glyph unicode="&#xcf;" glyph-name="Idieresis" horiz-adv-x="632" d="M665 1672Q662 1621 627 1589T542 1557Q493 1557 458 1591T423 1676Q423 1725 464 1757T554 1790Q604 1790 634 1755T665 1672ZM251 1672Q248 1621 213 1589T128 1557Q79 1557 44 1591T9
1676Q9 1725 50 1757T140 1790Q190 1790 220 1755T251 1672ZM616 -2H74V51Q110 58 133 63T177 76T209 88T230 104T243 123T250 150T253 181T254 223T256 274V1018Q256 1175 250 1253Q249 1264 248 1271T244 1284T238 1294T227 1302T211 1309T187 1315T157 1322T117
1330T68 1341V1386L82 1399H594L606 1386V1343L469 1313Q428 1304 424 1260Q416 1206 415 1119T415 903T418 735Q418 596 422 346Q422 330 421 288T421 220T427 161T448 109T487 82Q612 47 621 47L616 -2Z" />
<glyph unicode="&#xd0;" glyph-name="Eth" horiz-adv-x="1490" d="M115 4V25Q144 47 151 72T160 162V696H20L35 778H160V1174Q160 1208 156 1270Q155 1284 145 1296T115 1316T79 1329T38 1340T2 1350V1389L16 1405H657Q791 1405 898 1390T1084 1347T1219 1276T1313
1184T1371 1069T1401 937T1409 788Q1409 585 1365 447T1206 186Q1040 4 588 4H115ZM332 696V348Q337 141 369 109Q396 82 530 82Q690 82 813 121T1011 225T1133 381T1199 567T1217 772Q1217 885 1181 1008T1067 1210Q999 1277 862 1299T496 1321Q376 1321 360 1313Q358
1312 352 1310T344 1306T339 1297T335 1275T333 1238T332 1178V778H637L625 696H332Z" />
<glyph unicode="&#xd1;" glyph-name="Ntilde" horiz-adv-x="1525" d="M795 1724L891 1681Q946 1658 985 1663Q1019 1667 1036 1685T1069 1743L1096 1732Q1090 1677 1059 1617T983 1550Q926 1542 852 1575L723 1636Q669 1660 621 1655Q585 1651 566 1630T527 1556L498
1567Q505 1598 515 1628T540 1689T577 1742T625 1767Q678 1775 795 1724ZM1378 1421L1391 1405Q1360 871 1360 0H1286Q1212 83 1149 164L823 569Q620 820 344 1137Q330 1155 322 1155Q307 1155 307 1120Q307 809 356 51L213 -10L195 8Q221 535 221 981Q221 1025
220 1113T219 1245Q219 1249 219 1258T220 1269T217 1279T211 1288T198 1297T177 1306T146 1316T103 1329T45 1343L37 1399L53 1413H385Q582 1153 683 1020T951 680T1229 354Q1245 338 1251 338Q1264 338 1264 354Q1264 665 1214 1389L1378 1421Z" />
<glyph unicode="&#xd2;" glyph-name="Ograve" horiz-adv-x="1544" d="M837 1517L874 1581L629 1902L602 1906L506 1833L837 1517ZM96 651Q96 852 143 992T303 1253Q393 1350 535 1392T838 1434Q961 1434 1073 1396T1264 1278Q1353 1187 1394 1045T1436 745Q1436
681 1434 641T1425 543T1400 427T1352 311Q1277 157 1091 60T668 -37Q546 -37 448 2T285 107T177 263T115 449T96 651ZM287 713Q287 555 323 429T449 205Q591 47 776 47Q875 47 955 84T1087 184T1176 330T1227 503T1243 688Q1243 779 1228 869T1176 1047T1088 1202T954
1310T772 1352Q669 1352 586 1315T448 1217T356 1072T303 900T287 713Z" />
<glyph unicode="&#xd3;" glyph-name="Oacute" horiz-adv-x="1544" d="M758 1517L721 1581L966 1902L993 1906L1089 1833L758 1517ZM96 651Q96 852 143 992T303 1253Q393 1350 535 1392T838 1434Q961 1434 1073 1396T1264 1278Q1353 1187 1394 1045T1436 745Q1436
681 1434 641T1425 543T1400 427T1352 311Q1277 157 1091 60T668 -37Q546 -37 448 2T285 107T177 263T115 449T96 651ZM287 713Q287 555 323 429T449 205Q591 47 776 47Q875 47 955 84T1087 184T1176 330T1227 503T1243 688Q1243 779 1228 869T1176 1047T1088 1202T954
1310T772 1352Q669 1352 586 1315T448 1217T356 1072T303 900T287 713Z" />
<glyph unicode="&#xd4;" glyph-name="Ocircumflex" horiz-adv-x="1544" d="M804 1886L1126 1559L1046 1505L798 1759L507 1491L460 1516L804 1886ZM96 651Q96 852 143 992T303 1253Q393 1350 535 1392T838 1434Q961 1434 1073 1396T1264 1278Q1353 1187 1394 1045T1436
745Q1436 681 1434 641T1425 543T1400 427T1352 311Q1277 157 1091 60T668 -37Q546 -37 448 2T285 107T177 263T115 449T96 651ZM287 713Q287 555 323 429T449 205Q591 47 776 47Q875 47 955 84T1087 184T1176 330T1227 503T1243 688Q1243 779 1228 869T1176 1047T1088
1202T954 1310T772 1352Q669 1352 586 1315T448 1217T356 1072T303 900T287 713Z" />
<glyph unicode="&#xd5;" glyph-name="Otilde" horiz-adv-x="1544" d="M748 1698L844 1655Q899 1632 938 1637Q972 1641 989 1659T1022 1717L1049 1706Q1043 1651 1012 1591T936 1524Q879 1516 805 1549L676 1610Q622 1634 574 1629Q538 1625 519 1604T480 1530L451
1541Q458 1572 468 1602T493 1663T530 1716T578 1741Q631 1749 748 1698ZM96 651Q96 852 143 992T303 1253Q393 1350 535 1392T838 1434Q961 1434 1073 1396T1264 1278Q1353 1187 1394 1045T1436 745Q1436 681 1434 641T1425 543T1400 427T1352 311Q1277 157 1091
60T668 -37Q546 -37 448 2T285 107T177 263T115 449T96 651ZM287 713Q287 555 323 429T449 205Q591 47 776 47Q875 47 955 84T1087 184T1176 330T1227 503T1243 688Q1243 779 1228 869T1176 1047T1088 1202T954 1310T772 1352Q669 1352 586 1315T448 1217T356 1072T303
900T287 713Z" />
<glyph unicode="&#xd6;" glyph-name="Odieresis" horiz-adv-x="1544" d="M1093 1639Q1090 1588 1055 1556T970 1524Q921 1524 886 1558T851 1643Q851 1692 892 1724T982 1757Q1032 1757 1062 1722T1093 1639ZM679 1639Q676 1588 641 1556T556 1524Q507 1524 472
1558T437 1643Q437 1692 478 1724T568 1757Q618 1757 648 1722T679 1639ZM96 651Q96 852 143 992T303 1253Q393 1350 535 1392T838 1434Q961 1434 1073 1396T1264 1278Q1353 1187 1394 1045T1436 745Q1436 681 1434 641T1425 543T1400 427T1352 311Q1277 157 1091
60T668 -37Q546 -37 448 2T285 107T177 263T115 449T96 651ZM287 713Q287 555 323 429T449 205Q591 47 776 47Q875 47 955 84T1087 184T1176 330T1227 503T1243 688Q1243 779 1228 869T1176 1047T1088 1202T954 1310T772 1352Q669 1352 586 1315T448 1217T356 1072T303
900T287 713Z" />
<glyph unicode="&#xd7;" glyph-name="multiply" horiz-adv-x="1548" d="M772 580L1225 1032L1276 967L829 522L1268 82L1221 14L772 463L322 14L274 82L713 522L272 963L322 1028L772 580Z" />
<glyph unicode="&#xd8;" glyph-name="Oslash" horiz-adv-x="1544" d="M1196 1611L1206 1589L1115 1379Q1200 1342 1264 1278Q1353 1187 1394 1045T1436 745Q1436 681 1434 641T1425 543T1400 427T1352 311Q1277 157 1091 60T668 -37Q583 -37 509 -18L410 -246L344
-230L338 -201L430 10Q343 48 284 108Q220 173 177 263T115 449T96 651Q96 852 143 992T303 1253Q393 1350 535 1392T838 1434Q941 1434 1037 1407L1128 1617L1151 1622L1196 1611ZM287 713Q287 555 323 429T449 205Q471 180 495 159L987 1292Q971 1302 954 1310Q872
1352 772 1352Q669 1352 586 1315T448 1217T356 1072T303 900T287 713ZM1054 1239L563 108Q661 47 776 47Q875 47 955 84T1087 184T1176 330T1227 503T1243 688Q1243 779 1228 869T1176 1047T1088 1202Q1072 1222 1054 1239Z" />
<glyph unicode="&#xd9;" glyph-name="Ugrave" horiz-adv-x="1425" d="M800 1470L837 1534L592 1855L565 1859L469 1786L800 1470ZM328 1110L311 551Q311 106 672 106Q828 106 1032 227Q1032 604 1040 1350L1221 1421L1233 1407Q1200 1159 1200 414Q1200 372 1200
352T1201 295T1205 240T1212 194T1224 153T1241 125T1265 104T1298 98Q1321 98 1361 106T1417 115L1425 80L1415 66Q1175 -10 1102 -10Q1085 -10 1073 -6T1054 8T1042 25T1036 50T1034 76T1033 104T1034 131L1018 143Q768 -18 541 -18Q459 -18 395 0T292 44T226
110T186 184T164 260Q147 374 147 631Q147 710 149 870T152 1110V1231Q152 1259 129 1281T72 1315T12 1331T-29 1337L-33 1378L-16 1393H330L344 1380Q340 1360 334 1251T328 1110Z" />
<glyph unicode="&#xda;" glyph-name="Uacute" horiz-adv-x="1425" d="M650 1468L613 1532L858 1853L885 1857L981 1784L650 1468ZM328 1110L311 551Q311 106 672 106Q828 106 1032 227Q1032 604 1040 1350L1221 1421L1233 1407Q1200 1159 1200 414Q1200 372 1200
352T1201 295T1205 240T1212 194T1224 153T1241 125T1265 104T1298 98Q1321 98 1361 106T1417 115L1425 80L1415 66Q1175 -10 1102 -10Q1085 -10 1073 -6T1054 8T1042 25T1036 50T1034 76T1033 104T1034 131L1018 143Q768 -18 541 -18Q459 -18 395 0T292 44T226
110T186 184T164 260Q147 374 147 631Q147 710 149 870T152 1110V1231Q152 1259 129 1281T72 1315T12 1331T-29 1337L-33 1378L-16 1393H330L344 1380Q340 1360 334 1251T328 1110Z" />
<glyph unicode="&#xdb;" glyph-name="Ucircumflex" horiz-adv-x="1425" d="M726 1863L1048 1536L968 1482L720 1736L429 1468L382 1493L726 1863ZM328 1110L311 551Q311 106 672 106Q828 106 1032 227Q1032 604 1040 1350L1221 1421L1233 1407Q1200 1159 1200
414Q1200 372 1200 352T1201 295T1205 240T1212 194T1224 153T1241 125T1265 104T1298 98Q1321 98 1361 106T1417 115L1425 80L1415 66Q1175 -10 1102 -10Q1085 -10 1073 -6T1054 8T1042 25T1036 50T1034 76T1033 104T1034 131L1018 143Q768 -18 541 -18Q459 -18
395 0T292 44T226 110T186 184T164 260Q147 374 147 631Q147 710 149 870T152 1110V1231Q152 1259 129 1281T72 1315T12 1331T-29 1337L-33 1378L-16 1393H330L344 1380Q340 1360 334 1251T328 1110Z" />
<glyph unicode="&#xdc;" glyph-name="Udieresis" horiz-adv-x="1425" d="M1057 1672Q1054 1621 1019 1589T934 1557Q885 1557 850 1591T815 1676Q815 1725 856 1757T946 1790Q996 1790 1026 1755T1057 1672ZM643 1672Q640 1621 605 1589T520 1557Q471 1557 436
1591T401 1676Q401 1725 442 1757T532 1790Q582 1790 612 1755T643 1672ZM328 1110L311 551Q311 106 672 106Q828 106 1032 227Q1032 604 1040 1350L1221 1421L1233 1407Q1200 1159 1200 414Q1200 372 1200 352T1201 295T1205 240T1212 194T1224 153T1241 125T1265
104T1298 98Q1321 98 1361 106T1417 115L1425 80L1415 66Q1175 -10 1102 -10Q1085 -10 1073 -6T1054 8T1042 25T1036 50T1034 76T1033 104T1034 131L1018 143Q768 -18 541 -18Q459 -18 395 0T292 44T226 110T186 184T164 260Q147 374 147 631Q147 710 149 870T152
1110V1231Q152 1259 129 1281T72 1315T12 1331T-29 1337L-33 1378L-16 1393H330L344 1380Q340 1360 334 1251T328 1110Z" />
<glyph unicode="&#xdd;" glyph-name="Yacute" horiz-adv-x="1064" d="M531 1468L494 1532L739 1853L766 1857L862 1784L531 1468ZM434 612L129 1217Q96 1281 60 1302T-47 1333V1391L-33 1405H264L553 739Q561 723 578 723Q586 723 631 792T721 942Q741 978 838
1143T983 1384L1157 1419L1165 1382Q862 985 753 830Q683 730 616 627L635 37L451 -23L428 -4Q434 201 434 612Z" />
<glyph unicode="&#xde;" glyph-name="Thorn" horiz-adv-x="1062" d="M483 1096H365Q346 1096 346 1073Q334 803 334 483Q334 471 341 465T356 459Q573 459 705 556T838 821Q838 898 810 953T730 1039T619 1082T483 1096ZM358 1378Q352 1350 346 1176H561Q807 1176
920 1091T1034 838Q1034 649 903 518Q792 405 530 385Q519 384 488 383T436 381T390 376T352 365T338 346Q338 338 344 253T352 45L182 -12L168 2Q169 72 175 384T182 866Q182 1027 172 1229Q168 1285 129 1307T20 1339V1376L35 1391H344L358 1378Z" />
<glyph unicode="&#xdf;" glyph-name="germandbls" horiz-adv-x="1003" d="M61 889H186L199 901Q199 1068 236 1151Q281 1256 365 1313T549 1370Q685 1370 739 1260L621 1149L596 1157Q592 1177 590 1188T578 1221T558 1255T526 1277T477 1288Q415 1288 385 1180T354
901L362 889H858L868 874L854 829L684 530Q721 500 739 484T793 435T848 375T889 309T922 228T932 139Q930 -62 781 -195T387 -328L377 -279Q508 -253 614 -172T756 12Q800 141 735 260Q667 379 520 496V545L676 817H362L350 805V578Q350 274 371 25L209 -25L174
-2Q201 389 201 580V801L188 817H49L39 831L47 877L61 889Z" />
<glyph unicode="&#xe0;" glyph-name="agrave" horiz-adv-x="1105" d="M585 1077L622 1141L377 1462L350 1466L254 1393L585 1077ZM805 883L913 946L924 936Q911 692 911 489Q911 469 910 429T908 357T907 286T913 216T926 161T951 120T991 106Q1025 106 1124 143L1139
94Q1133 91 1111 78T1081 59T1051 42T1019 24T990 9T959 -5T931 -15T904 -23T881 -25Q828 -25 801 6T764 96L733 104Q538 -25 399 -25Q318 -25 257 11T163 109T114 237T98 379Q98 468 115 550T170 706T263 835T402 922T586 954Q638 954 697 936T805 883ZM760 203V674Q760
709 759 728T750 773T727 815Q662 883 588 883Q474 883 393 805Q351 764 319 673T283 440Q279 288 340 195Q393 111 543 111Q641 111 760 203Z" />
<glyph unicode="&#xe1;" glyph-name="aacute" horiz-adv-x="1105" d="M586 1077L549 1141L794 1462L821 1466L917 1393L586 1077ZM805 883L913 946L924 936Q911 692 911 489Q911 469 910 429T908 357T907 286T913 216T926 161T951 120T991 106Q1025 106 1124 143L1139
94Q1133 91 1111 78T1081 59T1051 42T1019 24T990 9T959 -5T931 -15T904 -23T881 -25Q828 -25 801 6T764 96L733 104Q538 -25 399 -25Q318 -25 257 11T163 109T114 237T98 379Q98 468 115 550T170 706T263 835T402 922T586 954Q638 954 697 936T805 883ZM760 203V674Q760
709 759 728T750 773T727 815Q662 883 588 883Q474 883 393 805Q351 764 319 673T283 440Q279 288 340 195Q393 111 543 111Q641 111 760 203Z" />
<glyph unicode="&#xe2;" glyph-name="acircumflex" horiz-adv-x="1105" d="M597 1472L919 1145L839 1091L591 1345L300 1077L253 1102L597 1472ZM805 883L913 946L924 936Q911 692 911 489Q911 469 910 429T908 357T907 286T913 216T926 161T951 120T991 106Q1025
106 1124 143L1139 94Q1133 91 1111 78T1081 59T1051 42T1019 24T990 9T959 -5T931 -15T904 -23T881 -25Q828 -25 801 6T764 96L733 104Q538 -25 399 -25Q318 -25 257 11T163 109T114 237T98 379Q98 468 115 550T170 706T263 835T402 922T586 954Q638 954 697 936T805
883ZM760 203V674Q760 709 759 728T750 773T727 815Q662 883 588 883Q474 883 393 805Q351 764 319 673T283 440Q279 288 340 195Q393 111 543 111Q641 111 760 203Z" />
<glyph unicode="&#xe3;" glyph-name="atilde" horiz-adv-x="1105" d="M584 1245L680 1202Q735 1179 774 1184Q808 1188 825 1206T858 1264L885 1253Q879 1198 848 1138T772 1071Q715 1063 641 1096L512 1157Q458 1181 410 1176Q374 1172 355 1151T316 1077L287
1088Q294 1119 304 1149T329 1210T366 1263T414 1288Q467 1296 584 1245ZM805 883L913 946L924 936Q911 692 911 489Q911 469 910 429T908 357T907 286T913 216T926 161T951 120T991 106Q1025 106 1124 143L1139 94Q1133 91 1111 78T1081 59T1051 42T1019 24T990
9T959 -5T931 -15T904 -23T881 -25Q828 -25 801 6T764 96L733 104Q538 -25 399 -25Q318 -25 257 11T163 109T114 237T98 379Q98 468 115 550T170 706T263 835T402 922T586 954Q638 954 697 936T805 883ZM760 203V674Q760 709 759 728T750 773T727 815Q662 883 588
883Q474 883 393 805Q351 764 319 673T283 440Q279 288 340 195Q393 111 543 111Q641 111 760 203Z" />
<glyph unicode="&#xe4;" glyph-name="adieresis" horiz-adv-x="1105" d="M913 1192Q910 1141 875 1109T790 1077Q741 1077 706 1111T671 1196Q671 1245 712 1277T802 1310Q852 1310 882 1275T913 1192ZM499 1192Q496 1141 461 1109T376 1077Q327 1077 292 1111T257
1196Q257 1245 298 1277T388 1310Q438 1310 468 1275T499 1192ZM805 883L913 946L924 936Q911 692 911 489Q911 469 910 429T908 357T907 286T913 216T926 161T951 120T991 106Q1025 106 1124 143L1139 94Q1133 91 1111 78T1081 59T1051 42T1019 24T990 9T959 -5T931
-15T904 -23T881 -25Q828 -25 801 6T764 96L733 104Q538 -25 399 -25Q318 -25 257 11T163 109T114 237T98 379Q98 468 115 550T170 706T263 835T402 922T586 954Q638 954 697 936T805 883ZM760 203V674Q760 709 759 728T750 773T727 815Q662 883 588 883Q474 883
393 805Q351 764 319 673T283 440Q279 288 340 195Q393 111 543 111Q641 111 760 203Z" />
<glyph unicode="&#xe5;" glyph-name="aring" horiz-adv-x="1105" d="M387 1193T387 1276T445 1416T586 1474T727 1417T785 1276T727 1135T586 1077T445 1135ZM449 1333T449 1276T489 1179T586 1138T683 1178T723 1276T683 1373T586 1413T489 1373ZM805 883L913
946L924 936Q911 692 911 489Q911 469 910 429T908 357T907 286T913 216T926 161T951 120T991 106Q1025 106 1124 143L1139 94Q1133 91 1111 78T1081 59T1051 42T1019 24T990 9T959 -5T931 -15T904 -23T881 -25Q828 -25 801 6T764 96L733 104Q538 -25 399 -25Q318
-25 257 11T163 109T114 237T98 379Q98 468 115 550T170 706T263 835T402 922T586 954Q638 954 697 936T805 883ZM760 203V674Q760 709 759 728T750 773T727 815Q662 883 588 883Q474 883 393 805Q351 764 319 673T283 440Q279 288 340 195Q393 111 543 111Q641
111 760 203Z" />
<glyph unicode="&#xe6;" glyph-name="ae" horiz-adv-x="1527" d="M1464 653L887 403Q892 351 908 303T955 211T1035 141T1151 115Q1288 115 1466 254L1489 250L1516 213Q1262 -25 1049 -25Q861 -25 774 135Q555 -25 399 -25Q318 -25 257 11T163 109T114 237T98
379Q98 468 115 550T170 706T263 835T402 922T586 954Q659 954 739 922T850 834Q923 904 1018 941T1217 979Q1347 979 1427 898T1507 696Q1507 684 1500 676T1487 664T1464 653ZM973 811Q918 752 899 685T879 532Q879 520 883 496L891 487L1305 651Q1331 660 1331
705Q1331 775 1279 836T1145 897Q1043 897 973 811ZM760 713Q756 783 727 815Q662 883 588 883Q474 883 393 805Q351 764 319 673T283 440Q279 288 340 195Q393 111 543 111Q633 111 748 195Q709 305 709 463Q709 608 760 713Z" />
<glyph unicode="&#xe7;" glyph-name="ccedilla" horiz-adv-x="841" d="M336 -21H410L369 -117Q401 -129 446 -154T516 -211Q554 -257 560 -307T529 -416Q451 -519 205 -563L193 -533L203 -512Q316 -469 350 -426Q388 -373 345 -329T230 -262L336 -21ZM809 233L831
197Q720 88 609 25T373 -39Q304 -39 249 -23T157 20T94 88T53 168T30 260T20 352T18 444Q18 675 164 824T537 973Q636 973 700 917T774 772L664 664L629 676Q616 778 569 835T455 893Q372 893 310 834T218 688T188 508Q188 450 194 397T220 288T271 190T355 123T477
96Q627 96 791 238L809 233Z" />
<glyph unicode="&#xe8;" glyph-name="egrave" horiz-adv-x="888" d="M577 1101L614 1165L369 1486L342 1490L246 1417L577 1101ZM334 811Q279 752 260 685T240 532Q240 520 244 496L252 487L666 651Q692 660 692 705Q692 775 640 836T506 897Q404 897 334 811ZM825
653L248 403Q253 351 269 303T316 211T396 141T512 115Q649 115 827 254L850 250L877 213Q623 -25 410 -25Q331 -25 270 4T172 79T112 192T79 323T70 463Q70 675 174 795Q249 883 355 931T578 979Q708 979 788 898T868 696Q868 684 861 676T848 664T825 653Z" />
<glyph unicode="&#xe9;" glyph-name="eacute" horiz-adv-x="888" d="M355 1101L318 1165L563 1486L590 1490L686 1417L355 1101ZM334 811Q279 752 260 685T240 532Q240 520 244 496L252 487L666 651Q692 660 692 705Q692 775 640 836T506 897Q404 897 334 811ZM825
653L248 403Q253 351 269 303T316 211T396 141T512 115Q649 115 827 254L850 250L877 213Q623 -25 410 -25Q331 -25 270 4T172 79T112 192T79 323T70 463Q70 675 174 795Q249 883 355 931T578 979Q708 979 788 898T868 696Q868 684 861 676T848 664T825 653Z" />
<glyph unicode="&#xea;" glyph-name="ecircumflex" horiz-adv-x="888" d="M490 1497L812 1170L732 1116L484 1370L193 1102L146 1127L490 1497ZM334 811Q279 752 260 685T240 532Q240 520 244 496L252 487L666 651Q692 660 692 705Q692 775 640 836T506 897Q404
897 334 811ZM825 653L248 403Q253 351 269 303T316 211T396 141T512 115Q649 115 827 254L850 250L877 213Q623 -25 410 -25Q331 -25 270 4T172 79T112 192T79 323T70 463Q70 675 174 795Q249 883 355 931T578 979Q708 979 788 898T868 696Q868 684 861 676T848
664T825 653Z" />
<glyph unicode="&#xeb;" glyph-name="edieresis" horiz-adv-x="888" d="M1067 1217Q1064 1166 1029 1134T944 1102Q895 1102 860 1136T825 1221Q825 1270 866 1302T956 1335Q1006 1335 1036 1300T1067 1217ZM653 1217Q650 1166 615 1134T530 1102Q481 1102 446
1136T411 1221Q411 1270 452 1302T542 1335Q592 1335 622 1300T653 1217ZM334 811Q279 752 260 685T240 532Q240 520 244 496L252 487L666 651Q692 660 692 705Q692 775 640 836T506 897Q404 897 334 811ZM825 653L248 403Q253 351 269 303T316 211T396 141T512
115Q649 115 827 254L850 250L877 213Q623 -25 410 -25Q331 -25 270 4T172 79T112 192T79 323T70 463Q70 675 174 795Q249 883 355 931T578 979Q708 979 788 898T868 696Q868 684 861 676T848 664T825 653Z" />
<glyph unicode="&#xec;" glyph-name="igrave" horiz-adv-x="528" d="M229 1087L266 1151L21 1472L-6 1476L-102 1403L229 1087ZM319 803L303 373Q303 251 322 192T393 133Q446 133 489 156T582 225L608 205V182Q457 -16 319 -16Q281 -16 256 -9T206 21T169 92T156
213L168 666Q168 840 96 840Q36 840 -68 774L-94 811Q97 965 193 965Q258 965 288 921T319 803Z" />
<glyph unicode="&#xed;" glyph-name="iacute" horiz-adv-x="528" d="M230 1087L193 1151L438 1472L465 1476L561 1403L230 1087ZM319 803L303 373Q303 251 322 192T393 133Q446 133 489 156T582 225L608 205V182Q457 -16 319 -16Q281 -16 256 -9T206 21T169 92T156
213L168 666Q168 840 96 840Q36 840 -68 774L-94 811Q97 965 193 965Q258 965 288 921T319 803Z" />
<glyph unicode="&#xee;" glyph-name="icircumflex" horiz-adv-x="528" d="M240 1482L562 1155L482 1101L234 1355L-57 1087L-104 1112L240 1482ZM319 803L303 373Q303 251 322 192T393 133Q446 133 489 156T582 225L608 205V182Q457 -16 319 -16Q281 -16 256 -9T206
21T169 92T156 213L168 666Q168 840 96 840Q36 840 -68 774L-94 811Q97 965 193 965Q258 965 288 921T319 803Z" />
<glyph unicode="&#xef;" glyph-name="idieresis" horiz-adv-x="528" d="M557 1203Q554 1152 519 1120T434 1088Q385 1088 350 1122T315 1207Q315 1256 356 1288T446 1321Q496 1321 526 1286T557 1203ZM143 1203Q140 1152 105 1120T20 1088Q-29 1088 -64 1122T-99
1207Q-99 1256 -58 1288T32 1321Q82 1321 112 1286T143 1203ZM319 803L303 373Q303 251 322 192T393 133Q446 133 489 156T582 225L608 205V182Q457 -16 319 -16Q281 -16 256 -9T206 21T169 92T156 213L168 666Q168 840 96 840Q36 840 -68 774L-94 811Q97 965 193
965Q258 965 288 921T319 803Z" />
<glyph unicode="&#xf0;" glyph-name="eth" horiz-adv-x="1001" d="M735 297Q761 439 733 631Q715 756 672 868Q576 893 506 883Q449 874 404 847T331 779T285 692T261 591T255 487T264 389Q270 356 282 317T319 231T376 148T458 92T565 80Q638 91 679 152T735
297ZM550 1288L778 1409L805 1329L616 1229Q653 1192 688 1148Q842 960 879 729Q944 325 772 125Q682 17 553 -4Q487 -14 438 -14T335 0T242 51Q185 101 146 189T94 358Q84 437 88 514T121 662T194 791T311 889T473 944Q544 954 639 944L645 954Q588 1089 522 1179L272
1047L246 1126L467 1244Q405 1308 324 1356L352 1401Q456 1365 550 1288Z" />
<glyph unicode="&#xf1;" glyph-name="ntilde" horiz-adv-x="1206" d="M611 1255L707 1212Q762 1189 801 1194Q835 1198 852 1216T885 1274L912 1263Q906 1208 875 1148T799 1081Q742 1073 668 1106L539 1167Q485 1191 437 1186Q401 1182 382 1161T343 1087L314
1098Q321 1129 331 1159T356 1220T393 1273T441 1298Q494 1306 611 1255ZM367 37L223 -12L193 2Q211 470 211 610Q211 730 197 788T135 846Q115 846 88 835T40 812T-18 774L-53 819Q8 863 42 887T132 938T223 965Q294 965 327 928T371 825L387 813Q498 880 592
920T774 961Q880 961 932 901Q951 878 960 805T971 675T973 524Q973 281 975 256Q980 160 1015 137Q1035 123 1071 123Q1128 123 1235 205H1262L1280 162Q1202 85 1115 33T958 -20Q811 -20 811 160L821 510Q821 675 781 757T637 840Q530 840 373 715Q360 397 360
238Q360 180 367 37Z" />
<glyph unicode="&#xf2;" glyph-name="ograve" horiz-adv-x="1064" d="M563 1075L600 1139L355 1460L328 1464L232 1391L563 1075ZM258 647Q242 579 242 489Q242 432 249 377T275 262T324 158T404 84T518 55T630 80T708 145T755 238T779 344T786 451Q786 508 781
560T758 671T712 772T633 843T516 872Q428 872 357 814T258 647ZM463 -29Q361 -29 285 7T163 105T95 241T66 401Q66 530 88 629T178 801Q247 877 348 914T563 952Q671 952 752 913T879 806T947 659T969 489Q969 253 850 121Q782 44 681 8T463 -29Z" />
<glyph unicode="&#xf3;" glyph-name="oacute" horiz-adv-x="1064" d="M564 1075L527 1139L772 1460L799 1464L895 1391L564 1075ZM258 647Q242 579 242 489Q242 432 249 377T275 262T324 158T404 84T518 55T630 80T708 145T755 238T779 344T786 451Q786 508 781
560T758 671T712 772T633 843T516 872Q428 872 357 814T258 647ZM463 -29Q361 -29 285 7T163 105T95 241T66 401Q66 530 88 629T178 801Q247 877 348 914T563 952Q671 952 752 913T879 806T947 659T969 489Q969 253 850 121Q782 44 681 8T463 -29Z" />
<glyph unicode="&#xf4;" glyph-name="ocircumflex" horiz-adv-x="1064" d="M527 1470L849 1143L769 1089L521 1343L230 1075L183 1100L527 1470ZM258 647Q242 579 242 489Q242 432 249 377T275 262T324 158T404 84T518 55T630 80T708 145T755 238T779 344T786
451Q786 508 781 560T758 671T712 772T633 843T516 872Q428 872 357 814T258 647ZM463 -29Q361 -29 285 7T163 105T95 241T66 401Q66 530 88 629T178 801Q247 877 348 914T563 952Q671 952 752 913T879 806T947 659T969 489Q969 253 850 121Q782 44 681 8T463 -29Z"
/>
<glyph unicode="&#xf5;" glyph-name="otilde" horiz-adv-x="1064" d="M506 1243L602 1200Q657 1177 696 1182Q730 1186 747 1204T780 1262L807 1251Q801 1196 770 1136T694 1069Q637 1061 563 1094L434 1155Q380 1179 332 1174Q296 1170 277 1149T238 1075L209
1086Q216 1117 226 1147T251 1208T288 1261T336 1286Q389 1294 506 1243ZM258 647Q242 579 242 489Q242 432 249 377T275 262T324 158T404 84T518 55T630 80T708 145T755 238T779 344T786 451Q786 508 781 560T758 671T712 772T633 843T516 872Q428 872 357 814T258
647ZM463 -29Q361 -29 285 7T163 105T95 241T66 401Q66 530 88 629T178 801Q247 877 348 914T563 952Q671 952 752 913T879 806T947 659T969 489Q969 253 850 121Q782 44 681 8T463 -29Z" />
<glyph unicode="&#xf6;" glyph-name="odieresis" horiz-adv-x="1064" d="M860 1190Q857 1139 822 1107T737 1075Q688 1075 653 1109T618 1194Q618 1243 659 1275T749 1308Q799 1308 829 1273T860 1190ZM446 1190Q443 1139 408 1107T323 1075Q274 1075 239 1109T204
1194Q204 1243 245 1275T335 1308Q385 1308 415 1273T446 1190ZM258 647Q242 579 242 489Q242 432 249 377T275 262T324 158T404 84T518 55T630 80T708 145T755 238T779 344T786 451Q786 508 781 560T758 671T712 772T633 843T516 872Q428 872 357 814T258 647ZM463
-29Q361 -29 285 7T163 105T95 241T66 401Q66 530 88 629T178 801Q247 877 348 914T563 952Q671 952 752 913T879 806T947 659T969 489Q969 253 850 121Q782 44 681 8T463 -29Z" />
<glyph unicode="&#xf7;" glyph-name="divide" horiz-adv-x="1548" d="M893 -4Q890 -55 855 -87T770 -119T686 -85T651 0T692 82T782 115Q832 115 862 80T893 -4ZM893 1053Q890 1002 855 970T770 938T686 973T651 1057T692 1138T782 1171Q832 1171 862 1136T893
1053ZM1442 483H94L109 565H1454L1442 483Z" />
<glyph unicode="&#xf8;" glyph-name="oslash" horiz-adv-x="1064" d="M766 1079L778 1057L721 926Q737 920 752 912Q834 873 879 806T947 659T969 489Q969 253 850 121Q782 44 681 8T463 -29Q383 -29 318 -7L242 -182L176 -166L172 -137L244 29Q195 61 163 106Q118
168 95 241T66 401Q66 530 88 629T178 801Q247 877 348 914T563 952Q603 952 640 946L700 1085L721 1090L766 1079ZM258 647Q242 579 242 489Q242 432 249 377T276 262Q290 218 310 182L602 858Q563 872 516 872Q428 872 357 814T258 647ZM673 815L368 109Q384
95 404 84Q454 55 518 55T630 80T708 145T755 238T779 344T786 451Q786 508 781 560T758 671T712 772Q696 796 673 815Z" />
<glyph unicode="&#xf9;" glyph-name="ugrave" horiz-adv-x="1083" d="M616 1085L653 1149L408 1470L381 1474L285 1401L616 1085ZM1190 215L1212 176Q1149 121 1105 86T996 18T883 -16Q755 -16 741 131L725 133Q474 -20 340 -20Q277 -20 233 2T166 62T135 140T125
229Q125 264 129 399T133 563Q133 698 126 743T98 811Q83 829 41 829Q2 829 -104 768L-131 809Q-70 856 -39 878T50 929T147 958Q229 958 257 906Q282 858 284 702Q284 671 283 598Q283 535 283 500Q283 321 296 256Q322 130 419 109Q442 104 467 104Q510 104 563
123T647 160T735 213Q735 278 736 439T737 674Q737 848 735 891L893 963L920 940Q895 643 895 371Q895 330 895 309T898 255T907 204T924 168T953 141T995 133Q1057 133 1174 219L1190 215Z" />
<glyph unicode="&#xfa;" glyph-name="uacute" horiz-adv-x="1083" d="M490 1085L453 1149L698 1470L725 1474L821 1401L490 1085ZM1190 215L1212 176Q1149 121 1105 86T996 18T883 -16Q755 -16 741 131L725 133Q474 -20 340 -20Q277 -20 233 2T166 62T135 140T125
229Q125 264 129 399T133 563Q133 698 126 743T98 811Q83 829 41 829Q2 829 -104 768L-131 809Q-70 856 -39 878T50 929T147 958Q229 958 257 906Q282 858 284 702Q284 671 283 598Q283 535 283 500Q283 321 296 256Q322 130 419 109Q442 104 467 104Q510 104 563
123T647 160T735 213Q735 278 736 439T737 674Q737 848 735 891L893 963L920 940Q895 643 895 371Q895 330 895 309T898 255T907 204T924 168T953 141T995 133Q1057 133 1174 219L1190 215Z" />
<glyph unicode="&#xfb;" glyph-name="ucircumflex" horiz-adv-x="1083" d="M533 1480L855 1153L775 1099L527 1353L236 1085L189 1110L533 1480ZM1190 215L1212 176Q1149 121 1105 86T996 18T883 -16Q755 -16 741 131L725 133Q474 -20 340 -20Q277 -20 233 2T166
62T135 140T125 229Q125 264 129 399T133 563Q133 698 126 743T98 811Q83 829 41 829Q2 829 -104 768L-131 809Q-70 856 -39 878T50 929T147 958Q229 958 257 906Q282 858 284 702Q284 671 283 598Q283 535 283 500Q283 321 296 256Q322 130 419 109Q442 104 467
104Q510 104 563 123T647 160T735 213Q735 278 736 439T737 674Q737 848 735 891L893 963L920 940Q895 643 895 371Q895 330 895 309T898 255T907 204T924 168T953 141T995 133Q1057 133 1174 219L1190 215Z" />
<glyph unicode="&#xfc;" glyph-name="udieresis" horiz-adv-x="1083" d="M1098 1201Q1095 1150 1060 1118T975 1086Q926 1086 891 1120T856 1205Q856 1254 897 1286T987 1319Q1037 1319 1067 1284T1098 1201ZM684 1201Q681 1150 646 1118T561 1086Q512 1086 477
1120T442 1205Q442 1254 483 1286T573 1319Q623 1319 653 1284T684 1201ZM1190 215L1212 176Q1149 121 1105 86T996 18T883 -16Q755 -16 741 131L725 133Q474 -20 340 -20Q277 -20 233 2T166 62T135 140T125 229Q125 264 129 399T133 563Q133 698 126 743T98 811Q83
829 41 829Q2 829 -104 768L-131 809Q-70 856 -39 878T50 929T147 958Q229 958 257 906Q282 858 284 702Q284 671 283 598Q283 535 283 500Q283 321 296 256Q322 130 419 109Q442 104 467 104Q510 104 563 123T647 160T735 213Q735 278 736 439T737 674Q737 848
735 891L893 963L920 940Q895 643 895 371Q895 330 895 309T898 255T907 204T924 168T953 141T995 133Q1057 133 1174 219L1190 215Z" />
<glyph unicode="&#xfd;" glyph-name="yacute" horiz-adv-x="1062" d="M496 1081L459 1145L704 1466L731 1470L827 1397L496 1081ZM119 -373L115 -350L205 -236H231Q267 -302 323 -347T444 -393Q507 -393 556 -370T635 -314T685 -234T716 -150T733 -70Q746 5 750
131L737 141Q661 93 612 66T488 11T352 -16Q311 -16 278 -4T223 26T185 74T160 131T147 195T141 259T139 322Q139 367 143 458T147 602Q147 664 144 702T132 775T103 824T53 840Q17 840 -92 782L-115 821Q84 958 170 958Q233 958 266 917T299 815Q299 758 295 641T291
463Q295 327 308 265T348 168Q390 115 477 115Q522 115 578 134T665 171T752 221Q756 365 756 440Q756 637 739 877L901 954L926 946Q915 780 913 548T907 150T883 -100Q830 -289 693 -383T379 -477Q308 -477 235 -447T119 -373Z" />
<glyph unicode="&#xfe;" glyph-name="thorn" horiz-adv-x="1034" d="M315 -422L150 -485L129 -463Q141 -320 141 193V645Q141 726 122 785T61 844Q13 844 -88 784L-117 823Q57 963 162 963Q292 963 297 778Q299 715 299 637L315 629Q505 780 688 780Q748 780 797
759T877 704T930 625T960 533T969 438Q969 325 930 212T822 9T653 -138T436 -195Q388 -195 322 -178L301 -195Q307 -338 315 -422ZM299 -37Q382 -113 479 -113Q551 -113 607 -87T698 -18T756 81T788 197T797 317Q797 456 739 554T586 653Q511 653 444 624T301 535Q301
530 299 421T297 299Q297 265 297 228T297 159T298 97T298 43T298 1T299 -27V-37Z" />
<glyph unicode="&#xff;" glyph-name="ydieresis" horiz-adv-x="1062" d="M1085 1196Q1082 1145 1047 1113T962 1081Q913 1081 878 1115T843 1200Q843 1249 884 1281T974 1314Q1024 1314 1054 1279T1085 1196ZM671 1196Q668 1145 633 1113T548 1081Q499 1081 464
1115T429 1200Q429 1249 470 1281T560 1314Q610 1314 640 1279T671 1196ZM119 -373L115 -350L205 -236H231Q267 -302 323 -347T444 -393Q507 -393 556 -370T635 -314T685 -234T716 -150T733 -70Q746 5 750 131L737 141Q661 93 612 66T488 11T352 -16Q311 -16 278
-4T223 26T185 74T160 131T147 195T141 259T139 322Q139 367 143 458T147 602Q147 664 144 702T132 775T103 824T53 840Q17 840 -92 782L-115 821Q84 958 170 958Q233 958 266 917T299 815Q299 758 295 641T291 463Q295 327 308 265T348 168Q390 115 477 115Q522
115 578 134T665 171T752 221Q756 365 756 440Q756 637 739 877L901 954L926 946Q915 780 913 548T907 150T883 -100Q830 -289 693 -383T379 -477Q308 -477 235 -447T119 -373Z" />
<glyph unicode="&#x2013;" glyph-name="endash" horiz-adv-x="1108" d="M56 419V539H1052V419H56Z" />
<glyph unicode="&#x2014;" glyph-name="emdash" horiz-adv-x="2048" d="M0 419V539H2048V419H0Z" />
<glyph unicode="&#x2018;" glyph-name="quoteleft" horiz-adv-x="557" d="M319 1016Q275 1016 231 1081T186 1233Q186 1342 257 1459T396 1577V1534Q323 1491 309 1344Q309 1225 438 1183V1141L319 1016Z" />
<glyph unicode="&#x2019;" glyph-name="quoteright" horiz-adv-x="557" d="M238 1577Q282 1577 326 1512T371 1360Q371 1251 300 1134T161 1016V1059Q234 1102 248 1249Q248 1368 119 1410V1452L238 1577Z" />
<glyph unicode="&#x201a;" glyph-name="quotesinglbase" horiz-adv-x="557" d="M238 281Q282 281 326 216T371 64Q371 -45 300 -162T161 -280V-237Q234 -194 248 -47Q248 72 119 114V156L238 281Z" />
<glyph unicode="&#x201c;" glyph-name="quotedblleft" horiz-adv-x="910" d="M319 1016Q275 1016 231 1081T186 1233Q186 1342 257 1459T396 1577V1534Q323 1491 309 1344Q309 1225 438 1183V1141L319 1016ZM672 1016Q628 1016 584 1081T539 1233Q539 1342 610
1459T749 1577V1534Q676 1491 662 1344Q662 1225 791 1183V1141L672 1016Z" />
<glyph unicode="&#x201d;" glyph-name="quotedblright" horiz-adv-x="910" d="M238 1577Q282 1577 326 1512T371 1360Q371 1251 300 1134T161 1016V1059Q234 1102 248 1249Q248 1368 119 1410V1452L238 1577ZM591 1577Q635 1577 679 1512T724 1360Q724 1251 653
1134T514 1016V1059Q587 1102 601 1249Q601 1368 472 1410V1452L591 1577Z" />
<glyph unicode="&#x201e;" glyph-name="quotedblbase" horiz-adv-x="910" d="M238 281Q282 281 326 216T371 64Q371 -45 300 -162T161 -280V-237Q234 -194 248 -47Q248 72 119 114V156L238 281ZM591 281Q635 281 679 216T724 64Q724 -45 653 -162T514 -280V-237Q587
-194 601 -47Q601 72 472 114V156L591 281Z" />
</font>
</defs>
</svg>
