<?xml version="1.0" standalone="no"?>
<!DOCTYPE svg PUBLIC "-//W3C//DTD SVG 1.1//EN" "http://www.w3.org/Graphics/SVG/1.1/DTD/svg11.dtd">
<svg xmlns="http://www.w3.org/2000/svg">
<defs >
<font id="Biryani" horiz-adv-x="589" ><font-face
    font-family="Biryani Black"
    units-per-em="1000"
    panose-1="0 0 10 0 0 0 0 0 0 0"
    ascent="1109"
    descent="-656"
    alphabetic="0" />
<glyph unicode=" " glyph-name="space" horiz-adv-x="220" />
<glyph unicode="!" glyph-name="exclam" horiz-adv-x="284" d="M46 758H238L216 230H68L46 758ZM50 171H234V0H50V171Z" />
<glyph unicode="&quot;" glyph-name="quotedbl" horiz-adv-x="504" d="M64 758H220V456H64V758ZM284 758H440V456H284V758Z" />
<glyph unicode="#" glyph-name="numbersign" horiz-adv-x="703" d="M560 387L547 287H612V133H527L510 0H354L371 133H278L261 0H105L122 133H60V287H142L155 387H90V541H175L192 674H348L331 541H424L441 674H597L580 541H642V387H560ZM404 387H311L298 287H391L404
387Z" />
<glyph unicode="$" glyph-name="dollar" horiz-adv-x="550" d="M534 112T482 57T335 -12V-96H189V-13Q97 -4 21 34V194Q98 153 189 140V266Q103 291 59 338T14 473Q14 566 66 619T214 684V758H360V680Q427 670 493 636V481Q434 515 360 527V397L368 395Q456 370
495 324T534 200Q534 112 482 57ZM184 523T184 489Q184 470 190 460T214 441V532Q184 523 184 489ZM352 149T358 159T364 184Q364 197 358 205T335 221V143Q352 149 358 159Z" />
<glyph unicode="%" glyph-name="percent" horiz-adv-x="1035" d="M656 773H794L377 -33H239L656 773ZM170 315T120 344T44 424T17 537Q17 599 43 649T120 729T239 758Q308 758 358 729T434 650T460 537Q460 475 434 425T358 345T239 315Q170 315 120 344ZM285
429T309 460T334 537Q334 584 310 614T239 644Q194 644 169 614T143 537Q143 491 168 460T239 429Q285 429 309 460ZM728 -17T678 12T602 92T575 205Q575 267 601 317T678 397T797 426Q866 426 916 397T992 318T1018 205Q1018 143 992 93T916 13T797 -17Q728 -17
678 12ZM843 97T867 128T892 205Q892 252 868 282T797 312Q752 312 727 282T701 205Q701 159 726 128T797 97Q843 97 867 128Z" />
<glyph unicode="&amp;" glyph-name="ampersand" horiz-adv-x="814" d="M784 154V0H716Q663 0 616 12T521 50Q419 -17 306 -17Q169 -17 98 35T27 192Q27 263 61 314T157 405Q94 489 94 578Q94 641 123 686T203 755T319 779Q420 779 483 727T546 580Q546 520 507
468T403 374Q470 303 516 263Q573 359 574 498H752Q752 409 724 325T645 171Q680 154 717 154H784ZM293 637T283 621T272 577Q272 555 280 535T305 489Q335 507 351 533T368 583Q368 637 319 637Q293 637 283 621ZM205 135T306 135Q348 135 388 149Q338 196 259
284Q225 260 215 243T205 198Q205 135 306 135Z" />
<glyph unicode="&apos;" glyph-name="quotesingle" horiz-adv-x="284" d="M64 758H220V456H64V758Z" />
<glyph unicode="(" glyph-name="parenleft" horiz-adv-x="386" d="M145 -22T101 94T56 359Q56 508 100 624T240 847L366 760Q244 595 244 359Q244 123 366 -42L240 -129Q145 -22 101 94Z" />
<glyph unicode=")" glyph-name="parenright" horiz-adv-x="386" d="M20 -42Q142 123 142 359Q142 595 20 760L146 847Q241 740 285 624T330 359Q330 210 286 94T146 -129L20 -42Z" />
<glyph unicode="*" glyph-name="asterisk" horiz-adv-x="618" d="M408 624L558 560L489 440L358 538L378 376H240L260 538L129 440L60 560L210 624L60 688L129 808L260 710L240 872H378L358 710L489 808L558 688L408 624Z" />
<glyph unicode="+" glyph-name="plus" horiz-adv-x="550" d="M483 260H353V128H197V260H67V414H197V544H353V414H483V260Z" />
<glyph unicode="," glyph-name="comma" horiz-adv-x="284" d="M77 181H257L171 -151H17L77 181Z" />
<glyph unicode="-" glyph-name="hyphen" horiz-adv-x="454" d="M80 372H374V220H80V372Z" />
<glyph unicode="." glyph-name="period" horiz-adv-x="284" d="M50 181H234V0H50V181Z" />
<glyph unicode="/" glyph-name="slash" horiz-adv-x="437" d="M286 931H462L151 -177H-25L286 931Z" />
<glyph unicode="0" glyph-name="zero" horiz-adv-x="550" d="M147 -17T87 65T27 336Q27 520 87 604T275 688Q398 688 460 603T523 336Q523 150 461 67T275 -17Q147 -17 87 65ZM298 135T313 151T336 212T345 336Q345 450 328 493T275 536Q250 536 235 519T213 459T205
336Q205 255 212 212T235 152T275 135Q298 135 313 151Z" />
<glyph unicode="1" glyph-name="one" horiz-adv-x="550" d="M509 154V0H61V154H197V520H81V674H373V154H509Z" />
<glyph unicode="2" glyph-name="two" horiz-adv-x="550" d="M42 154Q165 258 218 305T298 389T325 458Q325 497 300 516T232 536Q149 536 67 495V651Q116 672 165 680T271 688Q374 688 438 633T503 476Q503 418 480 371T408 275T269 154H523V0H42V154Z" />
<glyph unicode="3" glyph-name="three" horiz-adv-x="550" d="M446 337T479 296T513 185Q513 92 443 38T252 -17Q131 -17 47 18V174Q85 156 127 146T212 135Q270 135 302 154T335 210Q335 242 311 258T241 275H127V427H241Q325 427 325 480Q325 507 299 521T224
536Q127 536 57 501V657Q134 688 252 688Q368 688 435 641T503 514Q503 447 473 409T385 352Q446 337 479 296Z" />
<glyph unicode="4" glyph-name="four" horiz-adv-x="550" d="M543 130H470V-17H294V130H10V274L234 683H470V274H543V130ZM294 274V466L192 274H294Z" />
<glyph unicode="5" glyph-name="five" horiz-adv-x="550" d="M393 439T455 378T518 216Q518 103 447 43T240 -17Q137 -17 52 12V167Q89 151 135 143T221 135Q340 135 340 216Q340 250 314 268T240 287Q192 287 145 279T63 257L70 674H479V520H242L240 438Q254
439 280 439Q393 439 455 378Z" />
<glyph unicode="6" glyph-name="six" horiz-adv-x="550" d="M384 428T432 401T505 327T531 221Q531 149 499 95T411 12T282 -17Q151 -17 84 52T17 252Q17 391 101 498T346 686L463 579Q369 521 321 486T245 415Q280 428 320 428Q384 428 432 401ZM312 125T332
147T353 211Q353 250 333 273T277 296Q236 296 196 276Q195 263 195 234Q195 181 216 153T278 125Q312 125 332 147Z" />
<glyph unicode="7" glyph-name="seven" horiz-adv-x="550" d="M505 674V520L264 -17H67L321 520H43V674H505Z" />
<glyph unicode="8" glyph-name="eight" horiz-adv-x="550" d="M464 328T497 283T530 177Q530 88 463 36T275 -17Q150 -17 85 34T20 177Q20 239 50 283T142 350Q93 373 68 413T42 507Q42 589 101 638T275 688Q347 688 400 665T480 600T508 507Q508 455 481 414T403
350Q464 328 497 283ZM249 546T235 529T220 482Q220 453 234 436T275 418Q301 418 315 435T330 482Q330 511 316 528T275 546Q249 546 235 529ZM308 125T330 146T352 202Q352 237 330 258T275 279Q242 279 220 258T198 202Q198 167 220 146T275 125Q308 125 330
146Z" />
<glyph unicode="9" glyph-name="nine" horiz-adv-x="550" d="M399 686T466 617T533 417Q533 278 449 171T204 -17L87 90Q181 148 229 183T305 254Q270 241 230 241Q166 241 118 268T45 342T19 448Q19 520 51 574T139 657T268 686Q399 686 466 617ZM314 373T354
393Q355 406 355 435Q355 488 334 516T272 544Q238 544 218 522T197 458Q197 419 217 396T273 373Q314 373 354 393Z" />
<glyph unicode=":" glyph-name="colon" horiz-adv-x="284" d="M50 181H234V0H50V181ZM50 576H234V395H50V576Z" />
<glyph unicode=";" glyph-name="semicolon" horiz-adv-x="284" d="M77 181H257L171 -151H17L77 181ZM50 576H234V395H50V576Z" />
<glyph unicode="&lt;" glyph-name="less" horiz-adv-x="550" d="M252 333L494 191L421 54L67 262V404L421 613L494 475L252 333Z" />
<glyph unicode="=" glyph-name="equal" horiz-adv-x="550" d="M67 514H483V360H67V514ZM67 314H483V160H67V314Z" />
<glyph unicode="&gt;" glyph-name="greater" horiz-adv-x="550" d="M298 333L56 191L129 54L483 262V404L129 613L56 475L298 333Z" />
<glyph unicode="?" glyph-name="question" horiz-adv-x="500" d="M116 296Q116 350 133 381T195 449L245 489Q276 514 285 528T295 564Q295 591 273 605T211 620Q121 620 37 579V735Q85 756 131 764T231 772Q338 772 405 722T473 578Q473 530 458 496T422 440T363
387L333 363Q309 343 301 326T292 279V230H116V296ZM112 171H296V0H112V171Z" />
<glyph unicode="@" glyph-name="at" horiz-adv-x="986" d="M669 160Q666 150 666 141Q666 129 672 123T688 116Q726 116 754 147T798 228T813 337Q813 473 736 546T522 620Q429 620 349 570T221 431T173 228Q173 73 252 -18T486 -110Q549 -110 606 -92T728 -37L768
-137Q694 -174 629 -193T486 -212Q357 -212 258 -161T103 -10T47 228Q47 372 111 484T285 659T522 722Q649 722 743 675T888 541T939 337Q939 243 904 170T805 55T660 14Q613 14 582 32T539 84Q509 56 474 42T403 27Q334 27 290 72T246 201Q246 289 280 358T373
467T506 506Q581 506 621 462L629 490H766L669 160ZM467 142T495 160T549 215L591 359Q559 392 519 392Q479 392 448 368T400 303T382 213Q382 142 434 142Q467 142 495 160Z" />
<glyph unicode="A" glyph-name="A" horiz-adv-x="819" d="M556 154H263L210 0H30L295 767H523L789 0H609L556 154ZM504 308L409 584L315 308H504Z" />
<glyph unicode="B" glyph-name="B" horiz-adv-x="746" d="M624 364T660 320T696 212Q696 105 627 53T397 0H80V758H397Q543 758 604 706T666 555Q666 493 641 451T560 385Q624 364 660 320ZM260 451H397Q483 451 484 533Q484 577 464 596T397 616H260V451ZM514
269T485 289T397 309H260V142H397Q461 142 487 162T514 226Q514 269 485 289Z" />
<glyph unicode="C" glyph-name="C" horiz-adv-x="713" d="M234 -17T135 88T35 377Q35 489 80 578T215 720T434 772Q487 772 528 764T618 735V579Q533 620 439 620Q374 620 324 589T245 502T217 378Q217 268 274 202T434 135Q482 135 528 149T625 191L678 44Q620
14 556 -1T434 -17Q234 -17 135 88Z" />
<glyph unicode="D" glyph-name="D" horiz-adv-x="801" d="M555 758T660 662T766 378Q766 190 661 95T347 0H80V758H347Q555 758 660 662ZM584 498T526 552T347 606H260V152H347Q470 152 527 206T584 381Q584 498 526 552Z" />
<glyph unicode="E" glyph-name="E" horiz-adv-x="646" d="M586 144V0H80V758H581V614H260V453H531V309H260V144H586Z" />
<glyph unicode="F" glyph-name="F" horiz-adv-x="621" d="M260 604V438H531V284H260V0H80V758H581V604H260Z" />
<glyph unicode="G" glyph-name="G" horiz-adv-x="755" d="M695 463V53Q634 19 565 1T434 -17Q305 -17 215 32T80 171T35 378Q35 490 78 579T211 720T434 772Q500 772 545 760T648 722V563Q597 591 548 605T434 620Q367 620 318 590T243 505T217 381Q217 269 274
202T434 135Q480 135 519 149V309H330V463H695Z" />
<glyph unicode="H" glyph-name="H" horiz-adv-x="819" d="M739 758V0H559V304H260V0H80V758H260V458H559V758H739Z" />
<glyph unicode="I" glyph-name="I" horiz-adv-x="340" d="M80 758H260V0H80V758Z" />
<glyph unicode="J" glyph-name="J" horiz-adv-x="370" d="M40 -181T1 -173V-22Q26 -27 55 -27Q77 -27 88 -20T105 7T110 66V758H290V60Q290 -37 273 -88T214 -160T92 -181Q40 -181 1 -173Z" />
<glyph unicode="K" glyph-name="K" horiz-adv-x="742" d="M293 270L260 232V0H80V758H260V490L494 758H717L408 402L722 0H497L293 270Z" />
<glyph unicode="L" glyph-name="L" horiz-adv-x="576" d="M536 154V0H80V758H260V154H536Z" />
<glyph unicode="M" glyph-name="M" horiz-adv-x="950" d="M870 758V0H690V500L518 251H428L260 498V0H80V758H288L475 478L662 758H870Z" />
<glyph unicode="N" glyph-name="N" horiz-adv-x="819" d="M739 758V0H532L260 466V0H80V758H287L559 292V758H739Z" />
<glyph unicode="O" glyph-name="O" horiz-adv-x="849" d="M299 -17T211 34T79 175T35 378Q35 489 79 578T211 719T425 772Q549 772 637 720T769 578T814 378Q814 265 770 176T638 35T425 -17Q299 -17 211 34ZM522 135T576 203T630 381Q630 450 606 504T536 589T425
620Q326 620 273 553T219 378Q219 268 272 202T425 135Q522 135 576 203Z" />
<glyph unicode="P" glyph-name="P" horiz-adv-x="696" d="M531 758T603 695T676 505Q676 382 604 318T387 254H260V0H80V758H387Q531 758 603 695ZM441 406T467 430T494 505Q494 558 468 582T387 606H260V406H387Q441 406 467 430Z" />
<glyph unicode="Q" glyph-name="Q" horiz-adv-x="849" d="M814 281T782 201T685 68L802 -64H598L545 -2Q491 -17 425 -17Q299 -17 211 34T79 175T35 378Q35 489 79 578T211 719T425 772Q549 772 637 720T769 578T814 378Q814 281 782 201ZM219 268T272 202T425
135H427L339 237H539L572 199Q600 232 615 278T630 381Q630 450 606 504T536 589T425 620Q326 620 273 553T219 378Q219 268 272 202Z" />
<glyph unicode="R" glyph-name="R" horiz-adv-x="741" d="M344 274H260V0H80V758H387Q676 758 676 515Q676 342 525 293L706 0H506L344 274ZM260 426H387Q494 426 494 515Q494 562 468 584T387 606H260V426Z" />
<glyph unicode="S" glyph-name="S" horiz-adv-x="671" d="M255 -17T187 -4T56 40V202Q183 135 335 135Q394 135 421 155T449 208Q449 241 425 257T337 291L269 310Q209 327 165 349T90 417T59 533Q59 650 130 711T332 772Q410 772 469 758T590 715V559Q476 620
332 620Q279 620 258 602T237 550Q237 527 247 514T278 491T341 470L410 451Q474 433 520 409T596 338T627 217Q626 108 549 46T335 -17Q255 -17 187 -4Z" />
<glyph unicode="T" glyph-name="T" horiz-adv-x="674" d="M634 604H427V0H247V604H40V758H634V604Z" />
<glyph unicode="U" glyph-name="U" horiz-adv-x="820" d="M245 -17T163 65T80 298V758H260V298Q260 217 297 176T410 135Q485 135 522 176T560 298V758H740V298Q740 147 658 65T410 -17Q245 -17 163 65Z" />
<glyph unicode="V" glyph-name="V" horiz-adv-x="819" d="M789 758L524 -9H296L30 758H215L410 177L604 758H789Z" />
<glyph unicode="W" glyph-name="W" horiz-adv-x="1198" d="M1148 758L963 -9H735L599 506L464 -9H236L50 758H225L352 200L494 758H704L847 200L973 758H1148Z" />
<glyph unicode="X" glyph-name="X" horiz-adv-x="812" d="M574 0L406 254L238 0H30L303 391L48 758H255L407 529L558 758H765L510 391L782 0H574Z" />
<glyph unicode="Y" glyph-name="Y" horiz-adv-x="733" d="M454 293V0H278V293L20 758H200L366 453L533 758H713L454 293Z" />
<glyph unicode="Z" glyph-name="Z" horiz-adv-x="738" d="M678 154V0H80V152L418 604H93V758H645V606L308 154H678Z" />
<glyph unicode="[" glyph-name="bracketleft" horiz-adv-x="344" d="M314 25V-129H60V847H309V693H236V25H314Z" />
<glyph unicode="\" glyph-name="backslash" horiz-adv-x="437" d="M-25 931H151L462 -177H286L-25 931Z" />
<glyph unicode="]" glyph-name="bracketright" horiz-adv-x="344" d="M284 -129H35V25H108V693H30V847H284V-129Z" />
<glyph unicode="^" glyph-name="asciicircum" horiz-adv-x="549" d="M416 109L274 351L132 109L-5 182L203 536H345L554 182L416 109Z" />
<glyph unicode="_" glyph-name="underscore" horiz-adv-x="500" d="M0 -77H500V-231H0V-77Z" />
<glyph unicode="`" glyph-name="grave" horiz-adv-x="650" d="M177 809H375L473 656H298L177 809Z" />
<glyph unicode="a" glyph-name="a" horiz-adv-x="618" d="M400 566T457 537T534 458T553 333V0H379V46Q344 14 310 1T235 -13Q139 -13 85 37T30 178Q30 269 85 318T240 367Q322 367 379 337Q378 365 371 381T341 407T275 416H161V566H290Q400 566 457 537ZM323
121T379 167V220Q331 243 282 243Q246 243 226 228T206 180Q206 147 223 134T272 121Q323 121 379 167Z" />
<glyph unicode="b" glyph-name="b" horiz-adv-x="691" d="M472 582T530 549T622 448T656 283Q656 185 623 118T531 17T396 -17Q315 -17 244 37V0H70V846H244V528Q315 582 396 582Q472 582 530 549ZM416 137T445 174T475 283Q475 354 446 391T358 428Q301 428 244
387V178Q301 137 358 137Q416 137 445 174Z" />
<glyph unicode="c" glyph-name="c" horiz-adv-x="546" d="M183 -16T109 62T35 284Q35 426 109 503T323 582Q374 582 410 576T485 554V396Q448 414 416 421T343 428Q276 427 246 391T216 285Q216 213 245 175T338 137Q374 137 407 148T477 182L526 38Q434 -17 323
-17Q183 -16 109 62Z" />
<glyph unicode="d" glyph-name="d" horiz-adv-x="691" d="M621 846V0H447V37Q376 -17 295 -17Q219 -17 161 16T69 117T35 283Q35 380 68 447T160 548T295 582Q376 582 447 528V846H621ZM390 137T447 178V387Q390 428 333 428Q275 428 246 391T216 283Q216 211
245 174T333 137Q390 137 447 178Z" />
<glyph unicode="e" glyph-name="e" horiz-adv-x="610" d="M233 181T267 154T369 127Q408 127 443 136T525 169L570 35Q518 6 467 -5T345 -17Q246 -17 177 20T71 126T35 284Q35 378 72 445T172 547T313 582Q438 582 509 510T580 298V229H222Q233 181 267 154ZM277
438T255 420T223 358H397Q393 400 373 419T313 438Q277 438 255 420Z" />
<glyph unicode="f" glyph-name="f" horiz-adv-x="407" d="M294 705T283 692T272 645V566H382V412H272V0H98V412H30V566H98V708Q98 781 141 820T274 859Q301 859 324 856T382 845V697Q356 705 323 705Q294 705 283 692Z" />
<glyph unicode="g" glyph-name="g" horiz-adv-x="686" d="M616 566V2Q616 -70 586 -127T496 -218T353 -251Q272 -251 210 -243T94 -215V-55Q147 -77 201 -87T298 -97Q373 -97 407 -69T442 12V57Q371 3 290 3Q171 3 101 73T30 293Q30 387 63 452T155 549T290 582Q371
582 442 528V566H616ZM385 157T442 198V387Q385 428 328 428Q270 428 241 394T211 293Q211 218 239 188T328 157Q385 157 442 198Z" />
<glyph unicode="h" glyph-name="h" horiz-adv-x="692" d="M515 578T571 521T627 340V0H453V340Q453 381 433 402T363 424Q305 424 244 376V0H70V846H244V521Q281 550 319 564T402 578Q515 578 571 521Z" />
<glyph unicode="i" glyph-name="i" horiz-adv-x="314" d="M70 807H244V656H70V807ZM70 566H244V0H70V566Z" />
<glyph unicode="j" glyph-name="j" horiz-adv-x="314" d="M70 807H244V656H70V807ZM41 -250T18 -247T-40 -236V-88Q-14 -96 19 -96Q48 -96 59 -83T70 -36V569H244V-99Q244 -172 201 -211T68 -250Q41 -250 18 -247Z" />
<glyph unicode="k" glyph-name="k" horiz-adv-x="657" d="M290 189L244 140V0H70V846H244V357L421 546H629L404 308L647 0H439L290 189Z" />
<glyph unicode="l" glyph-name="l" horiz-adv-x="379" d="M157 -13T114 26T70 138V846H244V201Q244 168 255 155T295 141Q328 141 354 149V1Q320 -6 297 -9T246 -13Q157 -13 114 26Z" />
<glyph unicode="m" glyph-name="m" horiz-adv-x="1035" d="M863 578T916 521T970 340V0H796V340Q796 381 778 402T716 424Q662 424 606 376Q607 365 607 340V0H433V340Q433 381 415 402T353 424Q300 424 244 378V0H70V566H244V522Q279 551 314 564T392 578Q525
578 574 493Q619 537 661 557T755 578Q863 578 916 521Z" />
<glyph unicode="n" glyph-name="n" horiz-adv-x="692" d="M515 578T571 521T627 340V0H453V340Q453 381 433 402T363 424Q305 424 244 376V0H70V566H244V521Q281 550 319 564T402 578Q515 578 571 521Z" />
<glyph unicode="o" glyph-name="o" horiz-adv-x="674" d="M240 -17T172 22T70 130T35 283Q35 367 69 435T172 542T338 582Q435 582 503 543T605 435T639 283Q639 198 605 130T503 23T338 -17Q240 -17 172 22ZM397 131T427 170T458 283Q458 356 428 395T338 434Q278
434 247 395T216 283Q216 209 247 170T338 131Q397 131 427 170Z" />
<glyph unicode="p" glyph-name="p" horiz-adv-x="691" d="M472 582T530 549T622 448T656 283Q656 185 623 118T531 17T396 -17Q315 -17 244 37V-234H70V566H244V528Q315 582 396 582Q472 582 530 549ZM416 137T445 174T475 283Q475 354 446 391T358 428Q301 428
244 387V178Q301 137 358 137Q416 137 445 174Z" />
<glyph unicode="q" glyph-name="q" horiz-adv-x="691" d="M621 566V-234H447V37Q376 -17 295 -17Q219 -17 161 16T69 117T35 283Q35 380 68 447T160 548T295 582Q376 582 447 528V566H621ZM390 137T447 178V387Q390 428 333 428Q275 428 246 391T216 283Q216 211
245 174T333 137Q390 137 447 178Z" />
<glyph unicode="r" glyph-name="r" horiz-adv-x="451" d="M421 578V424H398Q321 424 244 369V0H70V566H244V516Q281 547 318 562T398 578H421Z" />
<glyph unicode="s" glyph-name="s" horiz-adv-x="565" d="M213 -17T159 -6T45 34V187Q102 155 160 141T284 127Q349 127 349 166Q349 182 340 190T311 203L214 223Q129 240 90 281T51 393Q51 489 110 535T291 582Q341 582 395 572T499 546V398Q461 416 407 427T300
438Q259 438 243 430T227 405Q227 392 235 387T262 377L359 357Q447 339 486 298T525 176Q525 79 460 31T284 -17Q213 -17 159 -6Z" />
<glyph unicode="t" glyph-name="t" horiz-adv-x="440" d="M282 392V201Q282 168 293 155T333 141Q366 141 392 149V1Q358 -6 335 -9T284 -13Q195 -13 152 26T108 138V392H30V546H108V736H282V546H410V392H282Z" />
<glyph unicode="u" glyph-name="u" horiz-adv-x="692" d="M622 566V0H448V45Q411 16 373 2T290 -12Q177 -12 121 45T65 226V566H239V226Q239 185 259 164T329 142Q387 142 448 190V566H622Z" />
<glyph unicode="v" glyph-name="v" horiz-adv-x="635" d="M615 566L432 -9H204L20 566H198L318 150L437 566H615Z" />
<glyph unicode="w" glyph-name="w" horiz-adv-x="962" d="M932 566L789 -9H581L481 321L382 -9H174L30 566H208L282 210L377 566H585L680 210L754 566H932Z" />
<glyph unicode="x" glyph-name="x" horiz-adv-x="626" d="M403 0L311 153L223 0H20L205 295L30 566H233L314 429L396 566H597L416 287L606 0H403Z" />
<glyph unicode="y" glyph-name="y" horiz-adv-x="595" d="M575 566L350 -89Q318 -181 268 -216T132 -251Q79 -251 36 -236V-88Q66 -97 100 -97Q141 -97 165 -83T204 -26L212 -3L20 566H198L297 245L407 566H575Z" />
<glyph unicode="z" glyph-name="z" horiz-adv-x="575" d="M535 152V0H65V152L311 414H83V566H513V414L268 152H535Z" />
<glyph unicode="{" glyph-name="braceleft" horiz-adv-x="406" d="M286 452T278 425T251 382T195 359Q247 346 266 316T286 219V98Q286 55 295 40T330 25Q356 25 376 29V-125Q341 -129 305 -129Q233 -129 191 -114T130 -62T110 42V189Q110 228 106 247T93 274T66
282H35V436H66Q84 436 93 443T106 470T110 529V676Q110 743 129 780T191 832T305 847Q341 847 376 843V689Q356 693 330 693Q304 693 295 678T286 620V499Q286 452 278 425Z" />
<glyph unicode="|" glyph-name="bar" horiz-adv-x="336" d="M80 847H256V-129H80V847Z" />
<glyph unicode="}" glyph-name="braceright" horiz-adv-x="324" d="M38 452T46 425T73 382T129 359Q77 346 58 316T38 219V98Q38 55 29 40T-6 25Q-32 25 -52 29V-125Q-17 -129 19 -129Q91 -129 133 -114T194 -62T214 42V189Q214 228 218 247T231 274T258 282H289V436H258Q240
436 231 443T218 470T214 529V676Q214 743 195 780T133 832T19 847Q-17 847 -52 843V689Q-32 693 -6 693Q20 693 29 678T38 620V499Q38 452 46 425Z" />
<glyph unicode="~" glyph-name="asciitilde" horiz-adv-x="550" d="M336 253T312 261T255 285Q251 287 237 293T213 302T193 305Q173 305 155 296T104 261L32 365Q75 409 109 430T184 451Q214 451 238 443T295 419Q299 417 313 411T337 402T357 399Q377 399 395
408T446 443L518 339Q475 295 441 274T366 253Q336 253 312 261Z" />
<glyph unicode="&#xa0;" glyph-name="uni00A0" horiz-adv-x="220" />
<glyph unicode="&#xa1;" glyph-name="exclamdown" horiz-adv-x="284" d="M50 758H234V587H50V758ZM68 528H216L238 0H46L68 528Z" />
<glyph unicode="&#xa2;" glyph-name="cent" horiz-adv-x="550" d="M480 3T413 -10V-96H267V-13Q151 3 90 77T29 274Q29 396 90 469T267 558V641H413V557Q456 551 499 534V376Q458 396 413 404V146Q452 157 491 182L540 38Q480 3 413 -10ZM210 183T267 153V392Q210
363 210 275Q210 183 267 153Z" />
<glyph unicode="&#xa3;" glyph-name="sterling" horiz-adv-x="550" d="M522 154V0H37V154H132V274H67V428H132V467Q132 543 150 591T215 663T345 688Q384 688 421 682T476 670V513Q425 534 374 534Q340 534 323 519T306 471V428H428V274H306V154H522Z" />
<glyph unicode="&#xa4;" glyph-name="currency" horiz-adv-x="550" d="M40 195L103 259Q87 297 87 336Q87 375 103 413L40 477L132 570L196 506Q234 521 272 521Q310 521 348 506L412 570L504 477L441 413Q457 375 457 336Q457 297 441 259L504 195L412 102L348
166Q310 151 272 151Q234 151 196 166L132 102L40 195ZM301 259T322 281T343 336Q343 368 322 390T272 413Q243 413 222 391T201 336Q201 304 222 282T272 259Q301 259 322 281Z" />
<glyph unicode="&#xa5;" glyph-name="yen" horiz-adv-x="550" d="M406 381H510V257H363V222H510V98H363V0H187V98H40V222H187V257H40V381H144L1 674H171L275 451L380 674H550L406 381Z" />
<glyph unicode="&#xa6;" glyph-name="brokenbar" horiz-adv-x="336" d="M80 847H256V471H80V847ZM80 247H256V-129H80V247Z" />
<glyph unicode="&#xa7;" glyph-name="section" horiz-adv-x="550" d="M529 218T447 174Q484 135 484 67Q484 -14 426 -58T267 -103Q213 -103 170 -97T85 -74V74Q160 39 267 39Q326 39 326 66Q326 77 319 83T296 93L183 124Q135 137 101 153T44 201T21 283Q21 367
103 411Q66 450 66 518Q66 599 124 643T283 688Q337 688 380 682T465 659V511Q390 546 283 546Q224 546 224 519Q224 508 231 502T254 492L367 461Q415 448 449 432T506 384T529 302Q529 218 447 174ZM179 287T192 277T247 255L340 229Q371 246 371 275Q371 298
358 308T303 330L210 356Q179 339 179 310Q179 287 192 277Z" />
<glyph unicode="&#xa8;" glyph-name="dieresis" horiz-adv-x="650" d="M358 807H512V656H358V807ZM138 807H292V656H138V807Z" />
<glyph unicode="&#xa9;" glyph-name="copyright" horiz-adv-x="935" d="M358 -17T266 34T121 176T67 378Q67 484 121 574T267 718T468 772Q575 772 667 719T813 575T868 378Q868 267 814 177T668 35T468 -17Q358 -17 266 34ZM542 95T605 132T707 235T745 380Q745
455 707 519T604 622T468 660Q393 660 329 622T228 519T190 378Q190 298 227 234T328 132T468 95Q542 95 605 132ZM410 155T356 184T275 264T247 378Q247 476 308 538T488 600Q519 600 542 596T592 580V454Q547 478 488 478Q441 478 413 451T385 380Q385 332 411
305T488 278Q518 278 546 285T606 306L626 190Q593 173 557 164T488 155Q410 155 356 184Z" />
<glyph unicode="&#xaa;" glyph-name="ordfeminine" horiz-adv-x="397" d="M267 704T306 680T359 613T372 508V284H250V308Q206 275 148 275Q85 275 46 310T6 408Q6 477 44 514T150 552Q206 552 249 532Q246 560 232 573T182 586H96V704H193Q267 704 306 680ZM215
377T250 396V442Q219 450 186 450Q140 450 140 411Q140 393 152 385T185 377Q215 377 250 396Z" />
<glyph unicode="&#xab;" glyph-name="guillemotleft" horiz-adv-x="766" d="M515 270L675 124L572 26L366 209V331L572 514L675 416L515 270ZM239 270L399 124L296 26L90 209V331L296 514L399 416L239 270Z" />
<glyph unicode="&#xac;" glyph-name="logicalnot" horiz-adv-x="550" d="M483 414V129H327V260H67V414H483Z" />
<glyph unicode="&#xae;" glyph-name="registered" horiz-adv-x="721" d="M439 769T505 730T611 625T650 483Q650 402 611 337T506 234T361 196Q281 196 215 233T110 336T71 483Q71 559 110 625T215 730T361 769Q439 769 505 730ZM561 537T533 582T459 655T361
682Q307 682 261 655T187 582T160 483Q160 426 187 381T260 309T361 283Q415 283 461 309T534 381T561 485Q561 537 533 582ZM480 463T431 439L494 338H395L343 424H319V338H232V628H359Q416 628 448 604T480 527Q480 463 431 439ZM319 555V497H340Q369 497 380
503T391 527Q391 542 380 548T340 555H319Z" />
<glyph unicode="&#xaf;" glyph-name="overscore" horiz-adv-x="649" d="M170 787H479V679H170V787Z" />
<glyph unicode="&#xb0;" glyph-name="degree" horiz-adv-x="473" d="M180 289T132 317T55 393T27 499Q27 556 55 604T131 680T237 708Q294 708 342 680T418 604T446 499Q446 442 418 394T342 317T237 289Q180 289 132 317ZM268 421T288 443T308 499Q308 532 288
554T237 576Q206 576 186 554T165 499Q165 466 185 444T237 421Q268 421 288 443Z" />
<glyph unicode="&#xb1;" glyph-name="plusminus" horiz-adv-x="550" d="M483 260H353V128H197V260H67V414H197V544H353V414H483V260ZM67 104H483V-50H67V104Z" />
<glyph unicode="&#xb2;" glyph-name="uni00B2" horiz-adv-x="390" d="M44 235Q134 328 172 370T230 447T251 513Q251 581 183 581Q121 581 61 551V656Q122 683 186 683Q269 683 318 640T367 518Q367 455 325 392T187 235H381V131H44V235Z" />
<glyph unicode="&#xb3;" glyph-name="uni00B3" horiz-adv-x="390" d="M370 375T370 293Q370 211 317 166T170 120Q90 120 37 140V245Q90 222 160 222Q202 222 227 240T253 293Q253 361 149 361H94V473H149Q196 473 221 488T246 534Q246 556 227 568T170 581Q95
581 44 561V665Q94 683 170 683Q265 683 314 643T363 534Q363 459 288 418Q370 375 370 293Z" />
<glyph unicode="&#xb4;" glyph-name="acute" horiz-adv-x="650" d="M275 809H473L352 656H177L275 809Z" />
<glyph unicode="&#xb6;" glyph-name="paragraph" horiz-adv-x="797" d="M321 234H292Q164 234 100 301T35 495Q35 758 292 758H717V-100H561V606H477V-100H321V234Z" />
<glyph unicode="&#xb7;" glyph-name="middot" horiz-adv-x="284" d="M50 443H234V262H50V443Z" />
<glyph unicode="&#xb8;" glyph-name="cedilla" horiz-adv-x="650" d="M397 -45T424 -73T452 -147Q452 -200 416 -231T310 -263Q277 -263 251 -259T198 -243V-148Q244 -169 290 -169Q313 -169 322 -165T331 -151Q331 -141 321 -137T284 -132Q243 -132 210 -143L250
1H361L346 -44Q397 -45 424 -73Z" />
<glyph unicode="&#xb9;" glyph-name="uni00B9" horiz-adv-x="390" d="M335 235V131H55V235H138V569H69V673H252V235H335Z" />
<glyph unicode="&#xba;" glyph-name="ordmasculine" horiz-adv-x="517" d="M190 275T140 304T64 384T37 497Q37 559 63 609T140 689T259 718Q328 718 378 689T454 610T480 497Q480 435 454 385T378 305T259 275Q190 275 140 304ZM305 389T329 420T354 497Q354
543 330 573T259 604Q215 604 189 573T163 497Q163 451 188 420T259 389Q305 389 329 420Z" />
<glyph unicode="&#xbb;" glyph-name="guillemotright" horiz-adv-x="766" d="M251 270L91 124L194 26L400 209V331L194 514L91 416L251 270ZM527 270L367 124L470 26L676 209V331L470 514L367 416L527 270Z" />
<glyph unicode="&#xbc;" glyph-name="onequarter" horiz-adv-x="1175" d="M335 235V131H55V235H138V569H69V673H252V235H335ZM727 773H865L448 -33H310L727 773ZM1165 247H1118V131H1004V247H795V349L990 682H1118V349H1165V247ZM1004 349V500L917 349H1004Z" />
<glyph unicode="&#xbd;" glyph-name="onehalf" horiz-adv-x="1175" d="M335 235V131H55V235H138V569H69V673H252V235H335ZM727 773H865L448 -33H310L727 773ZM829 235Q919 328 957 370T1015 447T1036 513Q1036 581 968 581Q906 581 846 551V656Q907 683 971 683Q1054
683 1103 640T1152 518Q1152 455 1110 392T972 235H1166V131H829V235Z" />
<glyph unicode="&#xbe;" glyph-name="threequarters" horiz-adv-x="1175" d="M370 375T370 293Q370 211 317 166T170 120Q90 120 37 140V245Q90 222 160 222Q202 222 227 240T253 293Q253 361 149 361H94V473H149Q196 473 221 488T246 534Q246 556 227 568T170
581Q95 581 44 561V665Q94 683 170 683Q265 683 314 643T363 534Q363 459 288 418Q370 375 370 293ZM727 773H865L448 -33H310L727 773ZM1165 247H1118V131H1004V247H795V349L990 682H1118V349H1165V247ZM1004 349V500L917 349H1004Z" />
<glyph unicode="&#xbf;" glyph-name="questiondown" horiz-adv-x="500" d="M204 758H388V587H204V758ZM162 -14T95 36T27 180Q27 228 42 262T78 318T137 371L167 395Q191 415 199 432T208 479V528H384V462Q384 408 367 377T305 309L255 269Q224 244 215 230T205
194Q205 167 227 153T289 138Q379 138 463 179V23Q415 2 369 -6T269 -14Q162 -14 95 36Z" />
<glyph unicode="&#xc0;" glyph-name="Agrave" horiz-adv-x="819" d="M556 154H263L210 0H30L295 767H523L789 0H609L556 154ZM504 308L409 584L315 308H504ZM207 989H405L503 836H328L207 989Z" />
<glyph unicode="&#xc1;" glyph-name="Aacute" horiz-adv-x="819" d="M556 154H263L210 0H30L295 767H523L789 0H609L556 154ZM504 308L409 584L315 308H504ZM422 989H620L499 836H324L422 989Z" />
<glyph unicode="&#xc2;" glyph-name="Acircumflex" horiz-adv-x="819" d="M556 154H263L210 0H30L295 767H523L789 0H609L556 154ZM504 308L409 584L315 308H504ZM450 836L410 927L369 836H201L292 989H527L618 836H450Z" />
<glyph unicode="&#xc3;" glyph-name="Atilde" horiz-adv-x="819" d="M556 154H263L210 0H30L295 767H523L789 0H609L556 154ZM504 308L409 584L315 308H504ZM219 920T248 951T328 983Q356 983 386 973L423 961Q453 952 461 952Q480 952 480 983H600Q600 898 571
867T491 835Q463 835 433 845L396 857Q366 866 358 866Q339 866 339 835H219Q219 920 248 951Z" />
<glyph unicode="&#xc4;" glyph-name="Adieresis" horiz-adv-x="819" d="M556 154H263L210 0H30L295 767H523L789 0H609L556 154ZM504 308L409 584L315 308H504ZM445 987H599V836H445V987ZM225 987H379V836H225V987Z" />
<glyph unicode="&#xc5;" glyph-name="Aring" horiz-adv-x="819" d="M556 154H263L210 0H30L295 767H523L789 0H609L556 154ZM504 308L409 584L315 308H504ZM347 820T317 845T287 912Q287 954 316 978T410 1003Q473 1003 502 979T532 912Q532 870 503 845T410 820Q347
820 317 845ZM441 887T441 912Q441 936 410 936Q378 936 378 912Q378 887 410 887Q441 887 441 912Z" />
<glyph unicode="&#xc6;" glyph-name="AE" horiz-adv-x="1122" d="M1062 144V0H556V204H337L223 0H25L461 758H1057V614H736V453H1007V309H736V144H1062ZM556 348V598L417 348H556Z" />
<glyph unicode="&#xc7;" glyph-name="Ccedilla" horiz-adv-x="713" d="M493 -45T520 -73T548 -147Q548 -200 512 -231T406 -263Q373 -263 347 -259T294 -243V-148Q340 -169 386 -169Q409 -169 418 -165T427 -151Q427 -141 417 -137T380 -132Q339 -132 306 -143L343
-11Q188 12 112 114T35 377Q35 489 80 578T215 720T434 772Q487 772 528 764T618 735V579Q533 620 439 620Q374 620 324 589T245 502T217 378Q217 268 274 202T434 135Q482 135 528 149T625 191L678 44Q624 16 565 1T451 -17L442 -44Q493 -45 520 -73Z" />
<glyph unicode="&#xc8;" glyph-name="Egrave" horiz-adv-x="646" d="M586 144V0H80V758H581V614H260V453H531V309H260V144H586ZM386 989H584L682 836H507L386 989Z" />
<glyph unicode="&#xc9;" glyph-name="Eacute" horiz-adv-x="646" d="M586 144V0H80V758H581V614H260V453H531V309H260V144H586ZM345 989H543L422 836H247L345 989Z" />
<glyph unicode="&#xca;" glyph-name="Ecircumflex" horiz-adv-x="646" d="M586 144V0H80V758H581V614H260V453H531V309H260V144H586ZM373 836L333 927L292 836H124L215 989H450L541 836H373Z" />
<glyph unicode="&#xcb;" glyph-name="Edieresis" horiz-adv-x="646" d="M586 144V0H80V758H581V614H260V453H531V309H260V144H586ZM368 987H522V836H368V987ZM148 987H302V836H148V987Z" />
<glyph unicode="&#xcc;" glyph-name="Igrave" horiz-adv-x="340" d="M80 758H260V0H80V758ZM-33 989H165L263 836H88L-33 989Z" />
<glyph unicode="&#xcd;" glyph-name="Iacute" horiz-adv-x="340" d="M80 758H260V0H80V758ZM438 989H636L515 836H340L438 989Z" />
<glyph unicode="&#xce;" glyph-name="Icircumflex" horiz-adv-x="340" d="M80 758H260V0H80V758ZM210 836L170 927L129 836H-39L52 989H287L378 836H210Z" />
<glyph unicode="&#xcf;" glyph-name="Idieresis" horiz-adv-x="340" d="M80 758H260V0H80V758ZM205 987H359V836H205V987ZM-15 987H139V836H-15V987Z" />
<glyph unicode="&#xd0;" glyph-name="Eth" horiz-adv-x="801" d="M555 758T660 662T766 378Q766 190 661 95T347 0H80V317H7V445H80V758H347Q555 758 660 662ZM584 498T526 552T347 606H260V445H408V317H260V152H347Q470 152 527 206T584 381Q584 498 526 552Z" />
<glyph unicode="&#xd1;" glyph-name="Ntilde" horiz-adv-x="819" d="M739 758V0H532L260 466V0H80V758H287L559 292V758H739ZM219 920T248 951T328 983Q356 983 386 973L423 961Q453 952 461 952Q480 952 480 983H600Q600 898 571 867T491 835Q463 835 433 845L396
857Q366 866 358 866Q339 866 339 835H219Q219 920 248 951Z" />
<glyph unicode="&#xd2;" glyph-name="Ograve" horiz-adv-x="849" d="M299 -17T211 34T79 175T35 378Q35 489 79 578T211 719T425 772Q549 772 637 720T769 578T814 378Q814 265 770 176T638 35T425 -17Q299 -17 211 34ZM522 135T576 203T630 381Q630 450 606 504T536
589T425 620Q326 620 273 553T219 378Q219 268 272 202T425 135Q522 135 576 203ZM222 989H420L518 836H343L222 989Z" />
<glyph unicode="&#xd3;" glyph-name="Oacute" horiz-adv-x="849" d="M299 -17T211 34T79 175T35 378Q35 489 79 578T211 719T425 772Q549 772 637 720T769 578T814 378Q814 265 770 176T638 35T425 -17Q299 -17 211 34ZM522 135T576 203T630 381Q630 450 606 504T536
589T425 620Q326 620 273 553T219 378Q219 268 272 202T425 135Q522 135 576 203ZM437 989H635L514 836H339L437 989Z" />
<glyph unicode="&#xd4;" glyph-name="Ocircumflex" horiz-adv-x="849" d="M299 -17T211 34T79 175T35 378Q35 489 79 578T211 719T425 772Q549 772 637 720T769 578T814 378Q814 265 770 176T638 35T425 -17Q299 -17 211 34ZM522 135T576 203T630 381Q630 450
606 504T536 589T425 620Q326 620 273 553T219 378Q219 268 272 202T425 135Q522 135 576 203ZM465 836L425 927L384 836H216L307 989H542L633 836H465Z" />
<glyph unicode="&#xd5;" glyph-name="Otilde" horiz-adv-x="849" d="M299 -17T211 34T79 175T35 378Q35 489 79 578T211 719T425 772Q549 772 637 720T769 578T814 378Q814 265 770 176T638 35T425 -17Q299 -17 211 34ZM522 135T576 203T630 381Q630 450 606 504T536
589T425 620Q326 620 273 553T219 378Q219 268 272 202T425 135Q522 135 576 203ZM234 920T263 951T343 983Q371 983 401 973L438 961Q468 952 476 952Q495 952 495 983H615Q615 898 586 867T506 835Q478 835 448 845L411 857Q381 866 373 866Q354 866 354 835H234Q234
920 263 951Z" />
<glyph unicode="&#xd6;" glyph-name="Odieresis" horiz-adv-x="849" d="M299 -17T211 34T79 175T35 378Q35 489 79 578T211 719T425 772Q549 772 637 720T769 578T814 378Q814 265 770 176T638 35T425 -17Q299 -17 211 34ZM522 135T576 203T630 381Q630 450 606
504T536 589T425 620Q326 620 273 553T219 378Q219 268 272 202T425 135Q522 135 576 203ZM460 987H614V836H460V987ZM240 987H394V836H240V987Z" />
<glyph unicode="&#xd8;" glyph-name="Oslash" horiz-adv-x="849" d="M753 607Q783 559 798 501T814 378Q814 265 770 176T638 35T425 -17Q292 -17 199 42L145 -14L39 86L97 145Q35 243 35 378Q35 489 79 578T211 719T425 772Q556 772 652 711L711 771L815 671L753
607ZM219 326T231 282L534 590Q487 620 425 620Q326 620 273 553T219 378Q219 326 231 282ZM630 428T618 470L318 162Q364 135 425 135Q522 135 575 202T630 378Q630 428 618 470Z" />
<glyph unicode="&#xd9;" glyph-name="Ugrave" horiz-adv-x="820" d="M245 -17T163 65T80 298V758H260V298Q260 217 297 176T410 135Q485 135 522 176T560 298V758H740V298Q740 147 658 65T410 -17Q245 -17 163 65ZM207 989H405L503 836H328L207 989Z" />
<glyph unicode="&#xda;" glyph-name="Uacute" horiz-adv-x="820" d="M245 -17T163 65T80 298V758H260V298Q260 217 297 176T410 135Q485 135 522 176T560 298V758H740V298Q740 147 658 65T410 -17Q245 -17 163 65ZM422 989H620L499 836H324L422 989Z" />
<glyph unicode="&#xdb;" glyph-name="Ucircumflex" horiz-adv-x="820" d="M245 -17T163 65T80 298V758H260V298Q260 217 297 176T410 135Q485 135 522 176T560 298V758H740V298Q740 147 658 65T410 -17Q245 -17 163 65ZM450 836L410 927L369 836H201L292 989H527L618
836H450Z" />
<glyph unicode="&#xdc;" glyph-name="Udieresis" horiz-adv-x="820" d="M445 987H599V836H445V987ZM225 987H379V836H225V987ZM245 -17T163 65T80 298V758H260V298Q260 217 297 176T410 135Q485 135 522 176T560 298V758H740V298Q740 147 658 65T410 -17Q245 -17 163 65Z" />
<glyph unicode="&#xdd;" glyph-name="Yacute" horiz-adv-x="733" d="M454 293V0H278V293L20 758H200L366 453L533 758H713L454 293ZM379 989H577L456 836H281L379 989Z" />
<glyph unicode="&#xde;" glyph-name="Thorn" horiz-adv-x="642" d="M531 638T603 575T676 385Q676 262 604 198T387 134H260V0H80V758H260V638H387Q531 638 603 575ZM441 286T467 310T494 385Q494 438 468 462T387 486H260V286H387Q441 286 467 310Z" />
<glyph unicode="&#xdf;" glyph-name="germandbls" horiz-adv-x="678" d="M408 -17T379 -13T317 5V152Q368 127 416 127Q449 127 465 138T482 175Q482 194 469 205T423 233Q386 252 362 270T319 322T301 410Q301 457 315 487T354 551Q374 577 383 595T392 638Q392
673 376 689T328 705Q284 705 264 681T244 598V0H70V598Q70 731 136 795T333 859Q442 859 504 805T566 651Q566 595 551 557T507 479Q491 457 484 443T477 414Q477 397 491 385T536 356Q574 334 598 315T640 263T658 180Q657 83 600 33T446 -17Q408 -17 379 -13Z"
/>
<glyph unicode="&#xe0;" glyph-name="agrave" horiz-adv-x="618" d="M400 566T457 537T534 458T553 333V0H379V46Q344 14 310 1T235 -13Q139 -13 85 37T30 178Q30 269 85 318T240 367Q322 367 379 337Q378 365 371 381T341 407T275 416H161V566H290Q400 566 457
537ZM323 121T379 167V220Q331 243 282 243Q246 243 226 228T206 180Q206 147 223 134T272 121Q323 121 379 167ZM346 809H544L642 656H467L346 809Z" />
<glyph unicode="&#xe1;" glyph-name="aacute" horiz-adv-x="618" d="M400 566T457 537T534 458T553 333V0H379V46Q344 14 310 1T235 -13Q139 -13 85 37T30 178Q30 269 85 318T240 367Q322 367 379 337Q378 365 371 381T341 407T275 416H161V566H290Q400 566 457
537ZM323 121T379 167V220Q331 243 282 243Q246 243 226 228T206 180Q206 147 223 134T272 121Q323 121 379 167ZM304 809H502L381 656H206L304 809Z" />
<glyph unicode="&#xe2;" glyph-name="acircumflex" horiz-adv-x="618" d="M400 566T457 537T534 458T553 333V0H379V46Q344 14 310 1T235 -13Q139 -13 85 37T30 178Q30 269 85 318T240 367Q322 367 379 337Q378 365 371 381T341 407T275 416H161V566H290Q400 566
457 537ZM323 121T379 167V220Q331 243 282 243Q246 243 226 228T206 180Q206 147 223 134T272 121Q323 121 379 167ZM591 656L551 747L510 656H342L433 809H668L759 656H591Z" />
<glyph unicode="&#xe3;" glyph-name="atilde" horiz-adv-x="618" d="M400 566T457 537T534 458T553 333V0H379V46Q344 14 310 1T235 -13Q139 -13 85 37T30 178Q30 269 85 318T240 367Q322 367 379 337Q378 365 371 381T341 407T275 416H161V566H290Q400 566 457
537ZM323 121T379 167V220Q331 243 282 243Q246 243 226 228T206 180Q206 147 223 134T272 121Q323 121 379 167ZM360 740T389 771T469 803Q497 803 527 793L564 781Q594 772 602 772Q621 772 621 803H741Q741 718 712 687T632 655Q604 655 574 665L537 677Q507
686 499 686Q480 686 480 655H360Q360 740 389 771Z" />
<glyph unicode="&#xe4;" glyph-name="adieresis" horiz-adv-x="618" d="M400 566T457 537T534 458T553 333V0H379V46Q344 14 310 1T235 -13Q139 -13 85 37T30 178Q30 269 85 318T240 367Q322 367 379 337Q378 365 371 381T341 407T275 416H161V566H290Q400 566
457 537ZM323 121T379 167V220Q331 243 282 243Q246 243 226 228T206 180Q206 147 223 134T272 121Q323 121 379 167ZM586 807H740V656H586V807ZM366 807H520V656H366V807Z" />
<glyph unicode="&#xe5;" glyph-name="aring" horiz-adv-x="618" d="M400 566T457 537T534 458T553 333V0H379V46Q344 14 310 1T235 -13Q139 -13 85 37T30 178Q30 269 85 318T240 367Q322 367 379 337Q378 365 371 381T341 407T275 416H161V566H290Q400 566 457
537ZM323 121T379 167V220Q331 243 282 243Q246 243 226 228T206 180Q206 147 223 134T272 121Q323 121 379 167ZM488 640T458 665T428 732Q428 774 457 798T551 823Q614 823 643 799T673 732Q673 690 644 665T551 640Q488 640 458 665ZM582 707T582 732Q582 756
551 756Q519 756 519 732Q519 707 551 707Q582 707 582 732Z" />
<glyph unicode="&#xe6;" glyph-name="ae" horiz-adv-x="953" d="M576 181T610 154T712 127Q751 127 786 136T868 169L913 35Q861 6 810 -5T688 -17Q609 -17 548 7T446 76Q396 26 347 7T235 -13Q139 -13 85 37T30 178Q30 269 85 318T240 367Q322 367 379 337Q378
365 371 381T341 407T275 416H161V566H290Q428 566 480 503Q515 542 563 562T670 582Q785 582 854 509T923 298V229H565Q576 181 610 154ZM620 438T598 420T566 358H740Q736 400 716 419T656 438Q620 438 598 420ZM326 121T391 177Q385 196 382 218Q332 243 282
243Q246 243 226 228T206 180Q206 147 223 134T272 121Q326 121 391 177Z" />
<glyph unicode="&#xe7;" glyph-name="ccedilla" horiz-adv-x="546" d="M408 -45T435 -73T463 -147Q463 -200 427 -231T321 -263Q288 -263 262 -259T209 -243V-148Q255 -169 301 -169Q324 -169 333 -165T342 -151Q342 -141 332 -137T295 -132Q254 -132 221 -143L257
-12Q148 7 92 83T35 284Q35 426 109 503T323 582Q374 582 410 576T485 554V396Q448 414 416 421T343 428Q276 427 246 391T216 285Q216 213 245 175T338 137Q374 137 407 148T477 182L526 38Q451 -7 367 -15L357 -44Q408 -45 435 -73Z" />
<glyph unicode="&#xe8;" glyph-name="egrave" horiz-adv-x="610" d="M233 181T267 154T369 127Q408 127 443 136T525 169L570 35Q518 6 467 -5T345 -17Q246 -17 177 20T71 126T35 284Q35 378 72 445T172 547T313 582Q438 582 509 510T580 298V229H222Q233 181
267 154ZM277 438T255 420T223 358H397Q393 400 373 419T313 438Q277 438 255 420ZM366 809H564L662 656H487L366 809Z" />
<glyph unicode="&#xe9;" glyph-name="eacute" horiz-adv-x="610" d="M233 181T267 154T369 127Q408 127 443 136T525 169L570 35Q518 6 467 -5T345 -17Q246 -17 177 20T71 126T35 284Q35 378 72 445T172 547T313 582Q438 582 509 510T580 298V229H222Q233 181
267 154ZM277 438T255 420T223 358H397Q393 400 373 419T313 438Q277 438 255 420ZM324 809H522L401 656H226L324 809Z" />
<glyph unicode="&#xea;" glyph-name="ecircumflex" horiz-adv-x="610" d="M233 181T267 154T369 127Q408 127 443 136T525 169L570 35Q518 6 467 -5T345 -17Q246 -17 177 20T71 126T35 284Q35 378 72 445T172 547T313 582Q438 582 509 510T580 298V229H222Q233
181 267 154ZM277 438T255 420T223 358H397Q393 400 373 419T313 438Q277 438 255 420ZM611 656L571 747L530 656H362L453 809H688L779 656H611Z" />
<glyph unicode="&#xeb;" glyph-name="edieresis" horiz-adv-x="610" d="M233 181T267 154T369 127Q408 127 443 136T525 169L570 35Q518 6 467 -5T345 -17Q246 -17 177 20T71 126T35 284Q35 378 72 445T172 547T313 582Q438 582 509 510T580 298V229H222Q233 181
267 154ZM277 438T255 420T223 358H397Q393 400 373 419T313 438Q277 438 255 420ZM606 807H760V656H606V807ZM386 807H540V656H386V807Z" />
<glyph unicode="&#xec;" glyph-name="igrave" horiz-adv-x="314" d="M70 566H244V0H70V566ZM-48 809H150L248 656H73L-48 809Z" />
<glyph unicode="&#xed;" glyph-name="iacute" horiz-adv-x="314" d="M70 566H244V0H70V566ZM422 809H620L499 656H324L422 809Z" />
<glyph unicode="&#xee;" glyph-name="icircumflex" horiz-adv-x="314" d="M70 566H244V0H70V566ZM197 656L157 747L116 656H-52L39 809H274L365 656H197Z" />
<glyph unicode="&#xef;" glyph-name="idieresis" horiz-adv-x="314" d="M70 566H244V0H70V566ZM192 807H346V656H192V807ZM-28 807H126V656H-28V807Z" />
<glyph unicode="&#xf0;" glyph-name="eth" horiz-adv-x="673" d="M638 570T638 325Q638 167 561 75T337 -17Q197 -17 116 58T35 276Q35 380 70 446T163 542T289 572Q344 572 401 546Q374 589 333 634L264 582L193 669L243 708Q216 726 185 743L326 862Q353 846
389 819L460 874L533 785L476 742Q638 570 638 325ZM396 137T429 182T462 313Q462 348 458 375Q395 418 336 418Q282 418 247 387T211 276Q211 202 245 170T337 137Q396 137 429 182Z" />
<glyph unicode="&#xf1;" glyph-name="ntilde" horiz-adv-x="692" d="M515 578T571 521T627 340V0H453V340Q453 381 433 402T363 424Q305 424 244 376V0H70V566H244V521Q281 550 319 564T402 578Q515 578 571 521ZM165 740T194 771T274 803Q302 803 332 793L369
781Q399 772 407 772Q426 772 426 803H546Q546 718 517 687T437 655Q409 655 379 665L342 677Q312 686 304 686Q285 686 285 655H165Q165 740 194 771Z" />
<glyph unicode="&#xf2;" glyph-name="ograve" horiz-adv-x="674" d="M240 -17T172 22T70 130T35 283Q35 367 69 435T172 542T338 582Q435 582 503 543T605 435T639 283Q639 198 605 130T503 23T338 -17Q240 -17 172 22ZM397 131T427 170T458 283Q458 356 428 395T338
434Q278 434 247 395T216 283Q216 209 247 170T338 131Q397 131 427 170ZM388 809H586L684 656H509L388 809Z" />
<glyph unicode="&#xf3;" glyph-name="oacute" horiz-adv-x="674" d="M240 -17T172 22T70 130T35 283Q35 367 69 435T172 542T338 582Q435 582 503 543T605 435T639 283Q639 198 605 130T503 23T338 -17Q240 -17 172 22ZM397 131T427 170T458 283Q458 356 428 395T338
434Q278 434 247 395T216 283Q216 209 247 170T338 131Q397 131 427 170ZM346 809H544L423 656H248L346 809Z" />
<glyph unicode="&#xf4;" glyph-name="ocircumflex" horiz-adv-x="674" d="M240 -17T172 22T70 130T35 283Q35 367 69 435T172 542T338 582Q435 582 503 543T605 435T639 283Q639 198 605 130T503 23T338 -17Q240 -17 172 22ZM397 131T427 170T458 283Q458 356
428 395T338 434Q278 434 247 395T216 283Q216 209 247 170T338 131Q397 131 427 170ZM377 656L337 747L296 656H128L219 809H454L545 656H377Z" />
<glyph unicode="&#xf5;" glyph-name="otilde" horiz-adv-x="674" d="M240 -17T172 22T70 130T35 283Q35 367 69 435T172 542T338 582Q435 582 503 543T605 435T639 283Q639 198 605 130T503 23T338 -17Q240 -17 172 22ZM397 131T427 170T458 283Q458 356 428 395T338
434Q278 434 247 395T216 283Q216 209 247 170T338 131Q397 131 427 170ZM146 740T175 771T255 803Q283 803 313 793L350 781Q380 772 388 772Q407 772 407 803H527Q527 718 498 687T418 655Q390 655 360 665L323 677Q293 686 285 686Q266 686 266 655H146Q146
740 175 771Z" />
<glyph unicode="&#xf6;" glyph-name="odieresis" horiz-adv-x="674" d="M240 -17T172 22T70 130T35 283Q35 367 69 435T172 542T338 582Q435 582 503 543T605 435T639 283Q639 198 605 130T503 23T338 -17Q240 -17 172 22ZM397 131T427 170T458 283Q458 356 428
395T338 434Q278 434 247 395T216 283Q216 209 247 170T338 131Q397 131 427 170ZM372 807H526V656H372V807ZM152 807H306V656H152V807Z" />
<glyph unicode="&#xf7;" glyph-name="divide" horiz-adv-x="550" d="M183 220H367V39H183V220ZM67 414H483V260H67V414ZM183 645H367V464H183V645Z" />
<glyph unicode="&#xf8;" glyph-name="oslash" horiz-adv-x="674" d="M598 448Q639 377 639 283Q639 198 605 130T503 23T338 -17Q240 -17 169 24L130 -14L34 76L76 117Q35 190 35 283Q35 367 69 435T172 542T338 582Q435 582 506 541L547 581L641 491L598 448ZM216
265T217 256L388 425Q367 434 338 434Q278 434 247 395T216 283Q216 265 217 256ZM458 301T457 309L286 140Q309 131 338 131Q397 131 427 170T458 283Q458 301 457 309Z" />
<glyph unicode="&#xf9;" glyph-name="ugrave" horiz-adv-x="692" d="M622 566V0H448V45Q411 16 373 2T290 -12Q177 -12 121 45T65 226V566H239V226Q239 185 259 164T329 142Q387 142 448 190V566H622ZM397 809H595L693 656H518L397 809Z" />
<glyph unicode="&#xfa;" glyph-name="uacute" horiz-adv-x="692" d="M622 566V0H448V45Q411 16 373 2T290 -12Q177 -12 121 45T65 226V566H239V226Q239 185 259 164T329 142Q387 142 448 190V566H622ZM355 809H553L432 656H257L355 809Z" />
<glyph unicode="&#xfb;" glyph-name="ucircumflex" horiz-adv-x="692" d="M622 566V0H448V45Q411 16 373 2T290 -12Q177 -12 121 45T65 226V566H239V226Q239 185 259 164T329 142Q387 142 448 190V566H622ZM386 656L346 747L305 656H137L228 809H463L554 656H386Z" />
<glyph unicode="&#xfc;" glyph-name="udieresis" horiz-adv-x="692" d="M622 566V0H448V45Q411 16 373 2T290 -12Q177 -12 121 45T65 226V566H239V226Q239 185 259 164T329 142Q387 142 448 190V566H622ZM381 807H535V656H381V807ZM161 807H315V656H161V807Z" />
<glyph unicode="&#xfd;" glyph-name="yacute" horiz-adv-x="595" d="M575 566L350 -89Q318 -181 268 -216T132 -251Q79 -251 36 -236V-88Q66 -97 100 -97Q141 -97 165 -83T204 -26L212 -3L20 566H198L297 245L407 566H575ZM307 809H505L384 656H209L307 809Z" />
<glyph unicode="&#xfe;" glyph-name="thorn" horiz-adv-x="623" d="M472 582T530 549T622 448T656 283Q656 185 623 118T531 17T396 -17Q315 -17 244 37V-234H70V846H244V528Q315 582 396 582Q472 582 530 549ZM416 137T445 174T475 283Q475 354 446 391T358 428Q301
428 244 387V178Q301 137 358 137Q416 137 445 174Z" />
<glyph unicode="&#xff;" glyph-name="ydieresis" horiz-adv-x="595" d="M575 566L350 -89Q318 -181 268 -216T132 -251Q79 -251 36 -236V-88Q66 -97 100 -97Q141 -97 165 -83T204 -26L212 -3L20 566H198L297 245L407 566H575ZM589 807H743V656H589V807ZM369 807H523V656H369V807Z"
/>
<glyph unicode="&#x2013;" glyph-name="endash" horiz-adv-x="500" d="M0 372H500V220H0V372Z" />
<glyph unicode="&#x2014;" glyph-name="emdash" horiz-adv-x="1000" d="M125 372H875V220H125V372Z" />
<glyph unicode="&#x2018;" glyph-name="quoteleft" horiz-adv-x="284" d="M87 426H267L181 758H27L87 426Z" />
<glyph unicode="&#x2019;" glyph-name="quoteright" horiz-adv-x="284" d="M77 758H257L171 426H17L77 758Z" />
<glyph unicode="&#x201a;" glyph-name="quotesinglbase" horiz-adv-x="284" d="M77 181H257L171 -151H17L77 181Z" />
<glyph unicode="&#x201c;" glyph-name="quotedblleft" horiz-adv-x="524" d="M181 758L267 426H87L27 758H181ZM507 426H327L267 758H421L507 426Z" />
<glyph unicode="&#x201d;" glyph-name="quotedblright" horiz-adv-x="524" d="M77 758H257L171 426H17L77 758ZM317 758H497L411 426H257L317 758Z" />
<glyph unicode="&#x201e;" glyph-name="quotedblbase" horiz-adv-x="524" d="M257 181L171 -151H17L77 181H257ZM497 181L411 -151H257L317 181H497Z" />
<glyph unicode="&#x2022;" glyph-name="bullet" horiz-adv-x="347" d="M130 218T93 240T33 299T11 381Q11 426 33 463T92 521T174 543Q219 543 256 522T314 463T336 381Q336 337 315 300T256 240T174 218Q130 218 93 240Z" />
<glyph unicode="&#x2039;" glyph-name="guilsinglleft" horiz-adv-x="490" d="M239 270L399 124L296 26L90 209V331L296 514L399 416L239 270Z" />
<glyph unicode="&#x203a;" glyph-name="guilsinglright" horiz-adv-x="490" d="M251 270L91 124L194 26L400 209V331L194 514L91 416L251 270Z" />
</font>
</defs>
</svg>
