<?xml version="1.0" standalone="no"?>
<!DOCTYPE svg PUBLIC "-//W3C//DTD SVG 1.1//EN" "http://www.w3.org/Graphics/SVG/1.1/DTD/svg11.dtd">
<svg xmlns="http://www.w3.org/2000/svg">
<defs >
<font id="LondrinaSolid" horiz-adv-x="444" ><font-face
    font-family="Londrina Solid Light"
    units-per-em="1000"
    panose-1="0 0 4 0 0 0 0 0 0 0"
    ascent="945"
    descent="-238"
    alphabetic="0" />
<glyph unicode=" " glyph-name="space" horiz-adv-x="200" />
<glyph unicode="!" glyph-name="exclam" horiz-adv-x="217" d="M65 622T65 513Q65 466 67 376L68 238L67 170H68Q77 170 106 171T158 175Q153 300 153 405Q153 512 157 704Q142 707 127 707Q114 707 97 705T73 702H70Q65 622 65 513ZM122 1H147H154Q154 29 156
87L157 121Q147 121 129 123L102 124Q82 124 71 119V118Q71 104 70 91T68 65Q65 38 65 16Q65 1 68 1H121H122Z" />
<glyph unicode="&quot;" glyph-name="quotedbl" horiz-adv-x="378" d="M51 702Q48 639 48 601L49 460V459Q66 458 98 459T133 460L131 706Q128 710 113 710Q100 710 80 707T52 704H51V702ZM249 702Q246 639 246 601L247 460V459Q269 458 293 458T330 460L328 706Q325
710 308 710Q295 710 288 709Q278 708 268 706T250 704H249V702Z" />
<glyph unicode="#" glyph-name="numbersign" horiz-adv-x="669" d="M639 472H576L545 473Q572 566 580 596T586 636Q568 638 560 638L529 637Q521 637 507 639H505Q470 502 456 476H418H335H303Q347 621 347 633Q281 634 263 638V637Q261 627 249 586Q237 544
236 540L231 520Q225 496 222 488T211 478T184 475H162H111Q48 475 43 477T36 480L38 398L173 399H189Q175 356 155 285Q146 246 142 242H96H47Q28 242 25 245Q25 226 26 217Q26 180 28 163Q36 162 71 164L112 165Q83 85 58 0Q80 1 97 0T122 -2Q136 -2 142 6T156
43Q173 93 189 132Q192 141 195 149T202 167L281 168Q309 168 323 168T344 167H356H357Q351 145 335 95Q313 29 306 1Q346 -1 353 -1L370 0Q378 0 381 0T385 1L388 2Q403 32 434 133L444 164H447L537 165H573Q613 165 635 168V170Q633 185 633 205Q633 208 632
219T628 238Q576 242 471 242Q480 266 498 331Q509 373 518 399L646 402L639 468V472ZM265 371T276 401L278 402L423 401H433Q431 388 425 371T417 346L408 319Q407 315 400 294Q386 256 386 243L228 242Q265 371 276 401Z" />
<glyph unicode="$" glyph-name="dollar" horiz-adv-x="445" d="M132 484T132 493Q132 519 152 540T217 570L231 571Q266 571 291 556T321 520Q323 509 324 501T327 485Q330 463 334 457T352 449L384 448Q426 448 426 468Q426 526 409 567T340 634Q336 635 306
643T275 665L274 738Q263 745 225 745Q204 745 189 743T175 735L180 667Q180 664 180 662T181 657T177 653Q98 634 63 596T28 507Q28 450 59 403T146 324Q154 319 189 304Q228 288 254 274T299 234T318 173Q318 134 294 111T230 88Q161 88 137 110T113 172Q113
182 115 204L116 234Q116 239 80 239L36 238Q24 235 22 224T19 194T20 165Q20 122 27 95T62 46T147 9Q182 2 182 -38Q182 -48 180 -62T177 -85Q177 -95 183 -95L238 -96Q257 -96 265 -94T275 -87T276 -69V-65L277 6Q280 6 299 12Q422 55 422 160Q422 221 392 267T308
335L284 344Q239 361 211 375T162 414T133 480Q132 484 132 493Z" />
<glyph unicode="%" glyph-name="percent" horiz-adv-x="604" d="M125 4T154 80L185 167L205 222Q224 272 225 275Q273 400 321 550Q354 644 371 709Q383 707 410 707Q424 707 437 706T459 701Q457 696 456 692T453 683Q443 642 382 455T273 151L217 7Q216 2 209
1T177 0Q149 0 128 -1Q125 4 154 80ZM37 630T61 658T131 687Q194 684 217 634T241 527Q241 512 239 488Q233 432 211 387T127 341Q85 343 65 363T38 408T25 485V486Q24 504 24 536Q25 567 32 593Q37 630 61 658ZM167 384T184 424T201 516Q201 556 187 600T134 644Q125
644 121 643Q73 638 61 573Q59 545 59 530Q59 514 61 486Q62 452 65 432T83 397T129 383Q167 384 184 424ZM536 363T559 313T583 206Q583 194 581 168Q577 114 555 68T469 21Q427 22 407 42T380 87T367 165Q366 183 366 216Q367 222 370 264T399 336T473 366Q536
363 559 313ZM511 65T529 108T545 204Q545 244 530 285T477 327Q469 327 465 326Q417 321 405 255Q403 229 403 212Q403 197 405 169Q406 136 409 116T426 81T470 65Q511 65 529 108Z" />
<glyph unicode="&amp;" glyph-name="ampersand" horiz-adv-x="565" d="M503 128Q497 135 487 147T477 165Q477 169 501 221Q520 264 522 269Q532 295 536 311T542 349Q545 360 545 367Q545 375 541 379Q535 385 524 386T498 388T475 390Q452 393 444 383T430 347Q428
336 425 323T415 300Q399 306 381 329T349 378T335 407Q338 416 345 425Q406 507 406 579Q406 619 384 654T323 710T234 731Q186 731 142 711T69 656T41 580Q41 540 63 497T118 410Q75 370 47 320T18 220Q18 164 41 114T110 31T219 -1Q273 1 300 4T352 21T405 64Q415
53 427 35Q440 16 449 8T472 -1H506Q536 -1 561 2Q562 6 562 13Q562 57 503 129V128ZM312 590T312 573Q312 527 288 494T219 460V461Q191 463 172 483T143 531T134 579Q137 613 164 635T231 657Q260 657 278 646T307 612Q312 590 312 573ZM202 90T182 100T149 126T123
172Q116 187 116 209Q116 251 141 289T205 333Q221 335 228 335Q267 335 296 315T340 261T356 194Q356 150 333 121Q328 116 315 109T289 98Q261 90 236 90Q202 90 182 100Z" />
<glyph unicode="&apos;" glyph-name="quotesingle" horiz-adv-x="185" d="M54 702Q51 639 51 601L52 460V459Q73 458 98 458T135 460L133 706Q130 710 113 710Q99 710 93 709Q82 708 72 706T55 704H54V702Z" />
<glyph unicode="(" glyph-name="parenleft" horiz-adv-x="314" d="M245 0Q248 0 258 0T276 2T287 9L289 93L269 90Q170 86 137 184Q128 212 128 279Q128 305 130 381Q137 478 141 517Q145 551 163 571T203 599T259 616L285 622Q288 667 288 672Q288 682 286 704L285
705Q220 711 212 711Q164 710 125 688T62 621Q48 597 43 569T38 504V484Q38 477 38 467T38 444V420Q38 345 32 203Q40 91 108 41Q160 2 228 0H245Z" />
<glyph unicode=")" glyph-name="parenright" horiz-adv-x="313" d="M69 0Q66 0 56 0T38 2T27 9Q25 34 25 93L45 90Q144 86 177 184Q186 212 186 279Q186 305 184 381Q177 478 173 517Q169 551 152 570T112 598T57 615Q39 619 29 622Q26 667 26 672Q26 682 28 704L29
705Q94 711 102 711Q150 710 189 688T252 621Q266 597 271 569T276 504V484Q276 477 276 467T276 444V420Q276 345 282 203Q278 156 262 114T206 41Q154 2 86 0H69Z" />
<glyph unicode="*" glyph-name="asterisk" horiz-adv-x="367" d="M335 429T319 415T273 380Q271 378 214 435Q186 463 180 465Q176 463 141 429L119 409Q107 397 99 391T88 384L66 404Q50 420 32 435Q40 447 57 462Q93 498 118 529Q99 556 70 587Q41 619 36 630Q41
631 63 655Q76 669 90 681L91 682Q96 681 108 669T125 652Q160 615 183 599Q204 620 232 644Q272 682 272 682Q275 677 299 654T326 628Q326 624 307 607Q284 585 269 568T246 533Q252 533 294 485T334 436Q335 429 319 415Z" />
<glyph unicode="+" glyph-name="plus" horiz-adv-x="445" d="M247 112Q270 112 270 116V118Q270 125 272 151T275 206Q275 220 274 229T273 243Q273 254 278 259T296 265T343 267Q414 267 419 270Q422 300 422 328Q422 354 423 368Q408 371 360 371H314Q287 371
279 372Q277 377 277 493V520Q269 521 261 521T245 520Q235 519 214 519Q185 519 180 524Q175 491 174 467T173 371Q168 369 105 365L47 362Q21 360 20 361Q20 356 22 322T23 275Q23 272 79 268T161 262H163Q166 260 166 217V183L165 145Q165 139 167 117Q167 115
167 115T168 114Q174 115 188 114T224 113L247 112Z" />
<glyph unicode="," glyph-name="comma" horiz-adv-x="188" d="M137 -16T138 -11T140 1L141 4H143L147 119H146Q137 119 119 121Q95 123 85 123Q70 123 56 120H55V119Q51 32 51 4Q52 3 54 3L87 -1Q85 -17 74 -59Q65 -96 67 -98Q88 -98 96 -99Q117 -99 120 -100L128
-61L136 -21Q137 -16 138 -11Z" />
<glyph unicode="-" glyph-name="hyphen" horiz-adv-x="521" d="M485 230Q482 259 482 286Q482 296 482 310T482 342H39L38 305L36 237L484 230H485Z" />
<glyph unicode="." glyph-name="period" horiz-adv-x="189" d="M135 0V2Q135 16 138 65T141 119Q129 124 101 124Q71 124 53 117Q53 105 52 96L51 47Q51 19 54 1H57L133 0H135Z" />
<glyph unicode="/" glyph-name="slash" horiz-adv-x="412" d="M38 2T45 23T55 51L74 104Q89 146 98 168Q106 193 127 247Q180 390 233 550Q266 644 283 709Q295 707 322 707Q336 707 349 706T371 701Q369 696 368 692T365 683Q355 642 294 455T185 151L129 7Q128
2 121 1T89 0Q61 0 40 -1Q38 2 45 23Z" />
<glyph unicode="0" glyph-name="zero" horiz-adv-x="513" d="M34 235T42 183T80 84T174 15Q207 2 258 2Q336 2 388 54T464 185T489 346L488 373Q489 382 489 402Q489 474 465 545T389 663T257 710Q203 710 155 685T82 618Q52 571 41 517T29 398Q29 379 31 341L32
315Q34 235 42 183ZM127 362T129 432Q131 457 133 471Q133 514 158 561T265 609Q324 601 351 547T381 427Q383 387 383 374L382 337Q381 327 381 308Q381 305 382 261T359 171T287 108Q269 102 244 104Q172 107 151 174T128 334Q127 362 129 432Z" />
<glyph unicode="1" glyph-name="one" horiz-adv-x="336" d="M283 178T288 290Q292 424 292 491V542V598Q292 672 289 710Q231 712 209 712L147 711Q138 699 114 662T61 573T12 480Q12 474 50 463T97 452Q108 452 122 473T155 530Q178 575 184 574Q185 567 185
556V526Q184 460 179 272Q174 177 174 104V6Q201 2 241 2Q280 2 283 11V88Q283 178 288 290Z" />
<glyph unicode="2" glyph-name="two" horiz-adv-x="498" d="M457 17T457 30L458 63Q458 86 452 104L420 103Q336 99 285 99Q231 99 157 101Q151 104 151 111Q151 125 169 147T213 197Q234 218 259 233T324 270Q371 295 399 314T448 363T473 436Q476 529 455 595T373
693Q327 711 262 711Q206 711 158 696T87 651Q31 587 31 485Q31 453 37 420L38 418Q62 416 73 416Q103 416 139 422L140 424V431L139 467Q139 516 159 556T223 602Q265 605 268 605Q315 605 342 578T370 472L369 449Q366 400 306 369Q292 359 279 352T255 337Q190
296 151 269T80 206Q48 166 40 129T31 32L30 2Q30 0 31 -1H76L190 0Q460 5 460 5Q457 17 457 30Z" />
<glyph unicode="3" glyph-name="three" horiz-adv-x="492" d="M210 -1T241 -1Q388 -1 435 104Q444 122 446 141T451 194Q451 211 452 220Q456 350 456 419Q456 461 454 551Q456 594 440 623Q417 664 364 686T247 708Q172 708 111 676T32 582Q26 566 26 541L27
512Q28 504 28 489V487Q90 487 121 489Q120 540 139 563T196 597Q220 605 250 605Q258 605 278 603Q311 601 331 582T353 525Q354 514 354 494Q354 455 345 437T315 416Q299 415 245 415L213 416Q182 416 165 411V410Q166 405 166 399T165 388Q164 379 164 355Q164
328 170 316Q221 319 248 319Q303 319 328 300T353 233Q353 209 347 177Q343 140 313 123T234 105Q174 105 152 137T126 193T120 223L118 224Q99 224 81 221Q75 220 64 219T44 218L30 219H29Q28 219 28 218L30 185Q33 128 39 98T70 44Q77 36 106 23T172 4Q210 -1
241 -1Z" />
<glyph unicode="4" glyph-name="four" horiz-adv-x="469" d="M384 328T384 349V410Q385 505 388 601T392 704H390H384Q363 705 325 704T271 702Q204 604 158 533Q147 517 103 450T16 327Q15 315 15 292Q15 257 20 229Q22 226 107 226Q136 227 209 227H247Q268
227 278 225L276 176L270 71Q266 15 266 7L267 -3Q325 -3 347 -2T373 4Q375 18 376 49T379 109Q379 117 383 200L385 218Q397 219 405 219T419 218Q434 218 446 221L452 323Q445 323 426 324T391 325L385 324Q384 328 384 349ZM291 323T269 323L243 322H175L139
323Q108 323 110 324Q113 330 159 396Q203 456 262 542Q280 568 290 581T302 591Q299 502 295 324Q291 323 269 323Z" />
<glyph unicode="5" glyph-name="five" horiz-adv-x="503" d="M43 214Q37 181 37 153Q37 74 95 33T239 -9Q292 -9 341 8T425 57T470 134Q477 188 477 231Q477 456 298 475Q281 477 246 477Q203 477 150 471H149L147 473Q145 476 144 490T143 509Q143 528 142 540Q141
568 140 580T139 594V595L140 597Q205 597 321 599T462 605Q462 613 463 636T464 683Q464 701 463 702Q459 703 423 703Q340 703 85 697L37 696H36L35 520Q35 422 40 371Q40 369 85 369Q170 374 231 374Q302 374 335 347T372 250Q375 188 344 144T240 99Q196 99
175 113T148 152T142 217V218L43 216V214Z" />
<glyph unicode="6" glyph-name="six" horiz-adv-x="503" d="M351 361T320 361Q264 361 214 340T145 286V287Q145 316 144 333Q142 376 143 408L142 447Q142 510 164 554T256 604Q287 604 307 602T336 592Q356 574 361 550T367 507T368 482L370 481H406Q443 481
460 485Q466 509 466 532Q466 578 445 618T384 683T294 708Q217 708 147 676T51 585Q46 576 44 559T40 523Q40 513 38 489Q32 395 32 341Q32 199 67 107T197 -1Q212 -3 242 -3Q344 -3 413 43T482 181Q482 195 481 203Q480 207 480 215Q472 272 449 305T376 354Q351
361 320 361ZM397 159T369 128T276 93Q248 92 226 105T191 140T182 185Q186 230 222 257T309 284Q342 284 369 263T397 209V204Q397 159 369 128Z" />
<glyph unicode="7" glyph-name="seven" horiz-adv-x="476" d="M84 612Q106 612 188 610H211H272L336 607Q328 591 252 423Q124 139 59 6Q73 3 90 3Q102 3 130 5Q156 7 168 7L239 144Q304 268 351 364T462 606L461 670Q461 692 462 704V705Q385 712 285 712Q212
712 78 708L27 707V706L26 673Q26 650 24 610H26L84 612Z" />
<glyph unicode="8" glyph-name="eight" horiz-adv-x="490" d="M462 543T455 576T436 630Q405 678 369 693T267 709Q225 709 200 708Q149 706 111 676T53 598T33 498Q33 457 47 419T87 352Q56 321 40 281T24 196Q24 157 36 121T70 57Q95 24 142 6T246 -12Q296 -12
339 2T406 45Q432 73 446 112T460 192Q460 237 442 277T386 345V346Q423 376 443 414T463 495V523Q462 543 455 576ZM300 602T328 578T356 514Q356 470 337 435T250 400Q191 400 164 427T137 496Q137 507 138 513V514H139Q147 559 180 580T257 602Q300 602 328
578ZM267 104T242 104Q148 104 129 181Q127 195 127 203Q127 242 155 271T246 302Q306 298 334 268T360 196L356 175Q349 146 335 131T290 108Q267 104 242 104Z" />
<glyph unicode="9" glyph-name="nine" horiz-adv-x="513" d="M473 537T467 579T440 653Q417 688 382 697T286 708L256 709Q105 702 44 598Q28 558 28 503Q28 467 36 434T59 378Q91 329 141 306T264 286Q312 287 361 324L362 323L361 277V217Q360 175 345 148T294
108Q269 99 241 99Q188 99 149 130T102 224L65 223Q53 222 30 222V217Q28 205 28 183Q28 127 54 89Q83 46 143 21T269 -4Q318 -4 359 11T427 57Q466 113 477 192Q479 206 479 234Q479 253 477 293L476 323L474 471Q473 537 467 579ZM225 378T195 394T151 441V442Q142
468 138 519Q138 562 174 584T260 607Q291 607 317 598Q346 588 360 561T372 500Q372 481 370 474Q363 431 334 405T259 378Q225 378 195 394Z" />
<glyph unicode=":" glyph-name="colon" horiz-adv-x="205" d="M143 336V338Q143 352 146 401T149 455Q136 460 108 460Q78 460 60 453Q60 441 59 432L58 383Q58 355 61 337H64L141 336H143ZM142 0V2Q142 16 145 65T148 119Q136 124 108 124Q78 124 60 117Q60 105
59 96L58 47Q58 19 61 1H64L140 0H142Z" />
<glyph unicode=";" glyph-name="semicolon" horiz-adv-x="205" d="M145 336V338Q145 352 148 401T151 455Q139 460 109 460Q77 460 59 453Q59 441 58 432L57 383Q57 355 60 337H63L143 336H145ZM141 -16T142 -11T144 1L145 4H147L151 119H150Q141 119 123 121Q99
123 89 123Q73 123 60 120H59V119Q55 32 55 4Q56 3 58 3L91 -1Q89 -17 78 -59Q69 -96 71 -98Q92 -98 100 -99Q121 -99 124 -100L132 -61L140 -21Q141 -16 142 -11Z" />
<glyph unicode="&lt;" glyph-name="less" horiz-adv-x="363" d="M279 106T234 150T117 267Q138 295 229 390Q298 461 311 478Q303 485 293 496Q289 500 278 511T258 528L224 494Q74 346 13 270Q47 225 84 189T177 102Q189 91 216 66T264 20L265 19Q281 33 288
39T298 49L306 57L320 73Q279 106 234 150Z" />
<glyph unicode="=" glyph-name="equal" horiz-adv-x="466" d="M425 341Q422 365 422 391Q422 400 422 412T422 441H41L40 406L38 347L164 345L421 341H425ZM425 132Q422 158 422 183Q422 192 422 204T422 233H41L40 197L38 139L164 137L421 132H425Z" />
<glyph unicode="&gt;" glyph-name="greater" horiz-adv-x="363" d="M228 288T190 329T137 385Q67 459 51 478Q51 478 69 496Q93 522 104 528L138 494Q288 346 349 270Q316 227 282 194T186 102Q119 41 98 20L97 19Q81 33 74 39T64 49L56 57L42 73Q77 101 123 146T213
235L245 267Q228 288 190 329Z" />
<glyph unicode="?" glyph-name="question" horiz-adv-x="451" d="M184 192Q184 181 186 177H187Q202 178 213 178T233 177Q258 177 270 179V180Q269 182 269 188Q269 196 270 203T272 218Q277 252 289 279T323 336Q333 350 357 376Q394 417 412 450T431 532Q431
582 404 622T332 685T233 708Q220 708 213 707Q158 705 114 675T45 597T16 499V498L40 497Q68 495 82 495L102 496Q105 502 111 518Q127 560 147 583T210 606Q264 610 296 586T328 520Q328 514 326 502Q320 472 303 444T255 381Q223 341 208 309T186 234L184 202V192ZM261
0V2Q261 16 264 65T267 119Q251 123 230 123Q200 123 183 116Q183 104 182 95L181 46Q181 18 184 0H187H259H261Z" />
<glyph unicode="@" glyph-name="at" horiz-adv-x="564" d="M278 479T240 455T184 394T164 315Q162 250 187 205T278 160Q326 160 359 187Q373 169 386 162T418 154Q486 155 509 197T533 326V380Q533 454 522 509T470 602Q433 636 387 647T280 659Q137 659 83 590Q54
552 44 508T33 406V376Q33 314 40 195Q42 164 56 121T90 53Q123 9 172 -7T293 -23Q360 -23 417 -9T531 42L517 71L503 99Q464 79 415 63T331 45H332L302 44H292Q261 44 234 48T182 68Q131 100 116 175T101 341Q101 434 115 489T164 570T260 599Q349 599 388 576Q431
549 447 503T467 404V376Q468 357 468 316Q468 280 457 259T433 229T414 224Q407 235 405 266Q404 276 404 285T404 304Q403 316 403 347L404 413Q405 449 395 462Q385 471 368 475T333 479Q278 479 240 455ZM229 338T252 375T343 410Q341 410 341 358V315Q341
311 341 288T330 250T296 231Q285 228 275 228Q257 228 245 239T229 271V274Q229 338 252 375Z" />
<glyph unicode="A" glyph-name="A" horiz-adv-x="434" d="M238 701T199 701H177Q167 701 161 700Q105 538 72 376T13 55Q7 8 4 2V1H15Q40 2 59 1T86 0Q94 0 96 1Q106 3 114 38T131 129Q138 169 138 170H180Q255 170 301 168Q313 130 328 71Q340 22 347 2H348Q355
0 371 -2Q383 -4 394 -4Q416 -4 437 0V1Q379 270 280 705Q238 701 199 701ZM177 249T157 249H137L146 299Q165 403 179 471T201 558T221 578Q227 578 236 575Q247 564 303 249Q253 248 189 248Q177 249 157 249Z" />
<glyph unicode="B" glyph-name="B" horiz-adv-x="477" d="M439 434T439 508Q439 618 371 666T196 715Q122 715 42 693L41 692Q42 646 42 554L41 240Q41 83 44 4Q48 2 57 2Q93 2 133 -1Q147 -2 175 -3T223 -4Q322 -4 385 27T463 145Q466 163 466 180Q466 223 449
254T395 331Q388 338 388 344Q388 349 390 352Q439 434 439 508ZM136 386Q130 409 130 466V507L132 577L131 604Q146 613 201 613Q222 613 232 612Q282 610 312 591T350 527Q353 512 353 497Q353 462 337 432Q324 402 301 391T234 379Q223 379 185 381L136 386ZM163
88T139 91Q126 182 126 233Q126 276 135 289Q195 291 206 291Q226 291 232 290Q237 290 263 289T315 275T349 235Q360 205 360 181Q360 161 352 145Q332 110 306 98T237 85Q223 85 185 87Q163 88 139 91Z" />
<glyph unicode="C" glyph-name="C" horiz-adv-x="488" d="M127 320Q125 268 125 248Q125 183 138 147T189 96Q216 90 238 90Q307 90 340 140T372 284Q383 283 392 283T409 284Q418 285 434 285Q453 285 461 283Q470 249 470 216Q470 156 444 105T371 22T263 -11Q244
-14 224 -14Q152 -14 98 20T36 122Q31 222 31 336Q31 389 32 419L33 540Q33 602 64 650T150 714Q189 727 230 727Q296 727 351 694T438 603T471 477Q471 449 465 420Q435 415 417 415Q397 415 369 421V453Q369 507 358 540T308 593Q281 612 227 612Q211 612 202
611Q162 609 144 553T128 371L127 320Z" />
<glyph unicode="D" glyph-name="D" horiz-adv-x="482" d="M245 700T205 701Q189 702 156 702Q87 702 43 691L40 687Q41 655 41 591L40 456Q39 411 39 322Q39 124 56 1L57 2Q232 2 320 5Q355 49 386 96T432 179Q437 192 442 204T448 219Q458 272 460 362L462 407Q459
460 441 515T393 617Q375 647 346 670T284 701Q245 700 205 701ZM147 129T139 135L134 245Q132 305 132 322L133 357Q135 401 135 465Q135 543 131 571H136Q205 577 232 575Q240 575 266 573Q288 569 311 545T351 480T373 386Q375 362 375 350Q375 338 373 314Q358
225 329 187Q308 159 297 149T265 135T194 129Q147 129 139 135Z" />
<glyph unicode="E" glyph-name="E" horiz-adv-x="481" d="M420 87Q392 87 328 89Q216 94 144 93L143 94Q144 117 144 144T143 185Q142 200 142 228Q142 270 146 293Q151 296 196 298Q222 299 252 299Q270 299 284 300T321 303Q320 316 320 327T321 348Q321 375
319 390V391Q290 393 244 393Q190 393 142 394L141 395Q137 410 137 441Q137 454 139 504Q144 570 142 595L146 596Q187 599 245 599H277H332Q387 599 459 604V614L460 644Q461 653 461 673Q461 688 460 695Q460 698 387 698Q231 698 46 689Q40 593 40 449Q40 377
42 229Q45 118 45 5Q104 0 190 0Q230 0 308 2Q407 4 455 3Q462 33 460 86V88L420 87Z" />
<glyph unicode="F" glyph-name="F" horiz-adv-x="494" d="M353 298T355 329L356 366Q356 385 353 392Q340 391 306 391Q229 391 158 392Q154 392 152 412T149 451Q149 503 154 580Q263 587 308 589Q363 592 414 592L489 591Q490 603 490 637V682Q430 697 309 697Q234
697 157 692T43 680V679L42 296Q41 203 41 2L42 1Q43 0 64 -1T95 -3L151 1Q151 71 152 108L155 280H156Q234 283 273 285Q330 287 352 289L354 290Q353 298 355 329Z" />
<glyph unicode="G" glyph-name="G" horiz-adv-x="481" d="M240 345Q242 317 242 310Q242 291 244 278Q250 276 272 276Q276 276 289 276T318 276Q354 276 358 275Q360 273 363 257T367 209Q367 186 364 151Q354 120 344 109T322 94T307 87Q281 76 252 76Q225 76
198 84Q170 95 156 113T133 164T118 259Q116 285 116 338Q116 461 134 530Q144 570 168 590T239 611L257 610Q282 609 304 597T341 568T356 534Q356 514 356 499T355 479T357 474Q369 472 380 472Q395 472 419 474Q445 476 449 475L450 481Q452 503 452 513Q452
603 392 652T239 702Q217 702 194 699Q116 688 81 646T38 555T28 416Q27 394 27 357Q27 314 29 279T38 187Q46 109 69 65T144 -1Q178 -16 225 -16Q283 -16 356 6Q398 21 422 49T451 125Q459 168 459 225Q459 271 451 351L448 352L415 354Q361 358 317 358Q259 358
243 348Q241 346 241 346T240 346V345Z" />
<glyph unicode="H" glyph-name="H" horiz-adv-x="499" d="M436 707T421 707Q381 707 353 700Q355 574 355 528Q355 484 353 398H352Q295 393 226 393Q171 393 140 395H139Q133 441 131 498T127 567Q126 629 121 696Q114 698 98 698L66 697Q57 697 43 699H41L40
698Q39 666 39 591Q39 438 44 257T54 1Q60 3 67 3L89 2Q105 0 115 0Q132 0 141 4Q142 25 142 57L141 167Q141 239 143 296Q199 302 248 302Q284 302 315 299H361Q364 244 366 164Q366 129 368 91T375 3H376H416Q453 3 469 6L442 706Q436 707 421 707Z" />
<glyph unicode="I" glyph-name="I" horiz-adv-x="260" d="M75 706Q66 622 66 534L67 445L70 274Q71 241 71 177Q71 72 67 -4Q79 -2 92 -2L147 -3Q179 -3 187 3Q183 104 183 231Q183 367 186 500Q188 634 188 699V703Q168 704 120 707Q100 709 92 709Q82 709 75 708V706Z" />
<glyph unicode="J" glyph-name="J" horiz-adv-x="463" d="M329 703Q326 607 326 511Q326 442 328 320L329 243Q329 238 329 201T298 132T208 101Q161 101 138 132T110 193T102 265L101 282V286Q78 290 42 290Q14 290 4 288L3 258Q3 167 31 94T126 0Q164 -8 200
-8Q265 -8 313 16Q364 35 388 77T419 167T428 288Q428 316 429 329L430 381Q430 428 429 463T427 522Q424 593 424 661L425 712L329 710V703Z" />
<glyph unicode="K" glyph-name="K" horiz-adv-x="459" d="M300 466T349 531T462 693Q438 695 425 695H404Q397 695 387 695T362 695L335 659Q283 584 232 527L139 429Q138 476 138 550Q138 650 137 697L91 698Q76 699 45 699Q46 610 42 432Q41 393 40 336T39 201Q39
92 43 5Q66 0 97 0Q128 0 144 5L142 73Q140 145 140 188V218Q142 248 142 292Q154 277 188 226Q224 171 262 121T363 2L418 1Q441 1 463 4L338 182L212 360Q300 466 349 531Z" />
<glyph unicode="L" glyph-name="L" horiz-adv-x="461" d="M453 96T439 96Q420 96 352 100Q276 104 245 104Q217 104 188 103T147 101V102Q149 149 149 226V289L148 434Q146 532 146 580Q146 620 148 698Q124 708 81 708Q52 708 39 703Q41 589 41 551Q44 440 44
349Q44 205 36 17V-1Q65 -1 78 -2L215 -3Q300 -3 390 0Q401 0 411 0T431 0Q442 0 446 1T452 12T455 46Q454 57 455 72T457 97Q453 96 439 96Z" />
<glyph unicode="M" glyph-name="M" horiz-adv-x="501" d="M461 351T461 416L460 515Q458 583 458 616Q458 643 460 697Q445 697 409 695Q362 693 354 694Q341 678 325 642T294 571T276 527Q251 465 248 464Q215 524 191 577T164 638Q142 687 138 691H137Q128 690
109 690Q104 690 82 690T44 686Q41 295 41 161Q41 63 42 32T48 0H80Q125 0 145 3Q138 106 137 192Q136 229 136 340Q136 438 137 497Q165 437 176 410Q205 345 221 312T247 273Q250 273 254 280T264 303Q300 385 307 399L344 480Q352 497 358 506Q360 382 360 239Q360
223 361 154T366 1L409 2Q434 2 456 -1L459 318Q461 351 461 416Z" />
<glyph unicode="N" glyph-name="N" horiz-adv-x="498" d="M455 90T455 71Q455 56 457 20V0H372Q360 24 347 50T320 101Q308 124 256 225T160 420Q155 431 150 443T143 457T140 453V424Q140 396 140 323T141 94V68Q141 19 142 0Q125 -4 108 -3Q97 -3 77 -1Q53 1
42 1V71Q42 135 40 253L39 432Q39 591 48 700Q60 702 68 702L85 701Q136 698 136 694Q148 665 163 635T199 565Q248 476 302 360T368 210Q369 250 365 341L363 408Q361 519 359 567L358 621V654V706Q382 709 408 709Q440 707 456 704V382Q457 326 457 211L456 100Q455
90 455 71Z" />
<glyph unicode="O" glyph-name="O" horiz-adv-x="483" d="M66 648T49 595T31 482Q28 437 28 391Q28 350 30 301T33 231L36 168Q38 74 77 34T192 -13Q202 -14 223 -14Q280 -14 331 4T409 58Q440 108 447 193L450 226Q452 260 452 285T453 328Q453 396 455 431Q456
446 456 478Q456 550 437 592Q418 647 365 673T243 700Q167 700 107 671Q66 648 49 595ZM369 312Q368 300 366 259T364 188Q361 132 329 103T226 74Q181 74 157 91Q134 107 123 135T109 210T105 341Q105 478 135 545T242 612Q304 612 331 578T361 520T368 427L369
347V312Z" />
<glyph unicode="P" glyph-name="P" horiz-adv-x="497" d="M478 607T392 660T183 714Q105 714 37 695Q41 583 41 428V230Q41 73 44 6Q67 3 91 3Q126 3 150 9L153 10V11Q150 157 150 195V235Q150 253 149 262Q163 261 191 261Q326 261 401 316T484 478V491Q478 607
392 660ZM392 493T392 473Q392 418 348 392T252 359T139 353Q135 382 133 479V533V582Q133 600 132 611Q159 618 216 618Q260 618 288 610T344 583Q372 565 386 515Q392 493 392 473Z" />
<glyph unicode="Q" glyph-name="Q" horiz-adv-x="495" d="M468 304T468 368Q468 511 439 602Q417 654 393 677T338 707T253 714Q177 714 122 687T52 618Q39 571 35 515T30 388V307V257Q30 185 41 138T90 54Q120 25 151 12T231 -6Q262 -8 295 1T340 24Q344 19 353
11T367 -2Q374 -10 380 -10Q383 -10 388 -6T398 1Q415 12 421 19T427 34Q423 41 404 64Q434 101 443 122T456 165Q461 186 463 231L465 264Q468 304 468 368ZM277 157T268 152T258 138Q259 127 275 108T294 86Q293 81 281 77T254 73Q192 73 162 100T122 166T111
262Q110 273 110 286T111 306Q112 313 112 326V355Q112 415 116 460Q121 531 129 561T164 603T255 617Q297 617 319 608T352 579T371 522Q387 430 387 328Q387 286 386 263Q383 217 374 190T347 130Q340 137 332 149Q321 167 306 176Q299 175 292 169T281 160Q277
157 268 152Z" />
<glyph unicode="R" glyph-name="R" horiz-adv-x="518" d="M517 3L467 2Q422 0 402 1Q382 25 359 56Q303 126 271 165T201 239L153 278Q151 244 151 212V178Q151 91 158 7Q133 -1 93 -1Q75 -1 61 0T40 0Q44 1 44 177Q44 339 41 503T33 699Q98 708 137 712T223 717Q263
717 296 713Q354 710 401 680T476 601T503 498Q503 444 473 393Q456 361 436 344T373 317T253 309L316 238Q367 182 405 137T516 3H517ZM213 396T256 396Q300 396 325 400Q395 412 395 505Q395 564 353 595T242 626Q195 626 129 614Q136 579 136 509L135 441Q135
415 137 401H138Q213 396 256 396Z" />
<glyph unicode="S" glyph-name="S" horiz-adv-x="485" d="M468 502T468 521Q468 574 444 612T377 672Q317 699 246 699Q194 699 155 683Q110 664 78 627T31 542Q22 514 22 482Q22 453 31 423Q44 381 80 350T167 310L205 307Q255 303 283 297T333 272T359 215Q362
181 348 153T307 109T247 93Q231 93 216 97Q164 110 139 138T114 206Q94 206 83 207L46 208Q34 208 12 206V199Q12 184 15 172V171Q20 116 56 76T146 16T257 -5Q314 -5 361 20T435 97T463 220Q463 296 405 345T232 398Q140 401 127 477Q124 510 142 537T192 579T259
595Q283 595 303 588Q331 578 347 556T363 500Q363 483 361 474Q378 469 406 469Q432 469 462 474H463Q468 502 468 521Z" />
<glyph unicode="T" glyph-name="T" horiz-adv-x="443" d="M10 667T11 635T15 597Q18 596 50 596Q140 594 161 588V584Q166 405 168 262Q169 226 169 167Q169 115 168 95V34Q168 22 168 13T168 -1Q188 3 227 3Q264 3 282 6V8Q279 131 276 395Q275 415 275 446Q275
575 276 581Q278 587 276 593H302Q334 593 366 595Q406 596 428 592Q433 630 433 664Q433 686 432 695Q337 706 191 706L98 705Q69 704 10 704Q10 667 11 635Z" />
<glyph unicode="U" glyph-name="U" horiz-adv-x="505" d="M370 647T370 597L371 443Q371 335 363 258T332 127Q320 106 298 96T250 85Q235 85 215 90Q186 99 170 124Q149 179 141 245T133 415Q133 487 136 583L137 623Q137 658 138 677Q119 681 90 681L41 680H40L41
679L42 561Q42 506 40 394Q39 353 39 273Q39 195 40 157Q44 72 107 29T261 -15Q282 -15 293 -14Q362 -7 405 38T457 151Q474 304 474 476Q474 562 469 669Q456 676 432 676Q416 676 371 671Q370 647 370 597Z" />
<glyph unicode="V" glyph-name="V" horiz-adv-x="440" d="M347 689T347 689T346 688Q327 615 308 532T283 422Q278 402 258 313T217 143Q184 254 164 365T127 601Q115 680 113 691Q101 693 80 693Q58 693 40 691T16 682V681Q50 455 78 317T161 4Q176 -2 220 -2Q232
-2 245 -1T265 1Q320 182 362 338T445 684Q424 688 383 688Q357 688 347 689Q347 689 347 689Z" />
<glyph unicode="W" glyph-name="W" horiz-adv-x="465" d="M412 700T392 700Q367 700 346 695V694Q343 663 340 587Q339 568 332 441T310 161Q300 190 298 200Q296 205 273 291Q243 406 229 439L228 435Q204 323 192 272T165 167Q150 223 143 323T128 576Q125 669
122 698Q92 700 71 700Q39 698 23 696V695Q26 559 41 420T84 88L96 5H97Q120 2 135 2Q156 2 184 7Q190 17 197 47T213 114L238 219H239Q245 195 249 176T257 142Q268 92 276 60T298 3H346H361Q375 3 380 5Q388 99 399 214T415 375Q437 589 446 696L445 697Q412
700 392 700Z" />
<glyph unicode="X" glyph-name="X" horiz-adv-x="436" d="M439 700Q374 700 339 697V696L319 647Q288 570 268 524T225 434Q190 491 154 572T108 686Q106 690 98 690T75 691L-1 689L25 634Q62 557 95 483T148 357Q106 247 60 143Q43 103 30 70T7 5Q22 0 46 0L70
1L101 2Q125 50 149 110Q184 197 225 285V284Q238 264 249 235T281 146Q316 46 334 2Q344 0 367 0L399 1L424 2Q386 144 305 353L334 422Q388 553 404 595T439 698L440 700H439Z" />
<glyph unicode="Y" glyph-name="Y" horiz-adv-x="435" d="M430 695T416 694Q378 694 355 690L334 635Q281 495 240 409Q208 461 171 538T105 691Q93 696 74 696Q67 696 53 694Q29 692 16 692Q27 651 46 606T96 499Q102 488 117 456T142 401Q169 353 182 321L173
298Q89 88 56 -1H58H70Q80 -2 89 -2T104 -1Q113 0 130 0Q136 1 145 1Q153 1 156 0Q180 65 208 126T284 291Q342 414 381 506T450 692V693Q430 695 416 694Z" />
<glyph unicode="Z" glyph-name="Z" horiz-adv-x="474" d="M451 610T451 619T452 634Q453 642 453 660Q453 670 451 694L363 695Q251 697 198 697Q83 697 13 690L14 677V676Q17 667 17 644V630Q17 607 21 601H65Q103 601 123 600Q139 600 150 599Q318 596 336 593Q124
268 30 103Q31 94 31 77V40Q31 11 34 -1Q114 4 224 4Q338 4 443 -2V0Q446 63 446 67Q446 86 445 95V106Q352 106 302 105T206 101L143 98L185 162Q280 309 336 399T452 592V599Q451 610 451 619Z" />
<glyph unicode="[" glyph-name="bracketleft" horiz-adv-x="321" d="M295 10T295 28Q295 53 291 91L255 93Q198 95 142 101V102Q142 168 138 280Q137 307 136 342T135 421Q135 504 142 622Q158 621 216 623Q231 623 251 623T289 623H292Q295 640 296 668T297 706Q282
704 251 704Q229 704 187 706Q152 709 116 709Q81 709 53 705V704Q43 555 43 337V112V2V-2Q60 0 136 0H197L294 1Q295 10 295 28Z" />
<glyph unicode="\" glyph-name="backslash" horiz-adv-x="412" d="M286 2T293 1T328 0Q355 0 374 -1Q376 2 364 37T348 80Q323 149 313 179Q293 235 295 229L281 266Q229 401 192 517Q151 639 132 709Q120 707 92 707Q78 707 65 706T43 701Q44 698 57 656T128
441Q152 373 163 338Q169 320 186 271T219 181L241 123Q276 31 285 7Q286 2 293 1Z" />
<glyph unicode="]" glyph-name="bracketright" horiz-adv-x="321" d="M66 93Q124 96 179 101V102Q179 145 180 198T182 277Q185 334 185 386V424Q185 525 179 622H178Q172 621 151 621Q105 621 85 622Q45 624 32 623H29Q24 644 24 706Q39 704 70 704Q92 704 134
706Q169 709 205 709Q240 709 268 705V704Q278 562 278 352L277 117Q277 40 278 2V-2Q261 0 185 0H124L27 1Q26 12 26 34Q26 66 29 91L66 93Z" />
<glyph unicode="^" glyph-name="asciicircum" horiz-adv-x="440" d="M186 658Q126 603 89 566T11 478Q59 475 77 475Q89 474 102 474Q112 474 118 475Q126 477 150 502T196 550Q218 574 219 574Q230 568 253 540Q268 525 295 499T327 473Q335 472 351 472Q378
472 403 476T430 479L220 689L186 658Z" />
<glyph unicode="_" glyph-name="underscore" horiz-adv-x="650" d="M607 -150V-113Q607 -87 611 -63H610L41 -68Q41 -99 42 -120T43 -148L607 -150Z" />
<glyph unicode="`" glyph-name="grave" horiz-adv-x="255" d="M25 636Q43 612 96 565Q102 559 117 545T137 524Q150 522 178 522Q222 522 237 527Q204 557 154 609Q104 661 77 685L25 637V636Z" />
<glyph unicode="a" glyph-name="a" horiz-adv-x="476" d="M341 502T341 500Q341 492 339 472Q337 458 337 449Q323 477 294 487T219 498L187 497Q140 496 102 466T41 383T19 266Q19 207 35 145T84 41T166 -2Q216 -2 268 10T344 55Q344 48 343 38T342 20Q342 1
352 -2Q357 -2 363 -1T377 0L409 -1H426Q435 1 437 9T439 27T439 40Q443 99 443 171L442 283Q440 357 440 395Q440 441 441 464V474Q441 482 439 498L413 500Q377 503 354 502Q341 502 341 500ZM290 409T309 398T335 358T341 256Q341 190 336 157T307 106T233 88Q108
81 103 242Q103 291 111 320Q119 358 154 385T242 412Q290 409 309 398Z" />
<glyph unicode="b" glyph-name="b" horiz-adv-x="464" d="M130 703Q126 704 112 705T80 707Q58 707 41 704V638Q41 544 37 362Q36 318 35 255T34 111Q34 37 35 1L75 0Q87 -1 109 -1Q124 -1 130 0Q131 1 131 7L132 39Q132 60 130 74Q142 46 174 28Q190 13 206 8Q226
1 249 1Q259 1 275 3Q346 8 382 47T429 142T443 285Q443 361 424 417T362 488Q315 505 227 502Q201 501 180 492T147 470T133 450L134 594L132 645Q132 665 131 672Q131 675 131 680T130 695V703ZM362 165T331 125T237 84Q181 84 156 134T130 256Q130 340 149 379T225
419Q282 419 310 402T346 360T358 294Q362 277 362 244Q362 165 331 125Z" />
<glyph unicode="c" glyph-name="c" horiz-adv-x="442" d="M334 160T328 137T298 95T228 77Q211 77 201 78Q147 83 129 118T113 187V267Q113 321 116 342Q121 373 132 388T157 407T198 412Q226 414 237 414Q290 414 314 388T340 291Q367 286 393 286Q408 286 423
289L422 313Q420 383 414 418T384 469Q348 504 273 511Q254 512 241 512T218 511Q203 511 195 512Q143 512 101 498T45 454Q23 382 23 323Q24 297 24 241Q27 164 35 117T73 36T161 -9L207 -10Q243 -12 261 -12Q307 -12 340 -2T393 35Q405 47 410 85T421 192Q409
195 393 195L358 194Q348 194 336 196Q334 160 328 137Z" />
<glyph unicode="d" glyph-name="d" horiz-adv-x="463" d="M335 680T335 657V636Q335 630 335 623T335 610Q334 598 334 578T335 531L336 446Q335 451 326 462T301 484T265 498Q244 503 206 503Q159 503 122 493Q66 478 44 424T21 285Q23 202 34 145T82 48T189
3Q197 2 213 2Q246 2 273 11Q290 14 306 30T330 62Q335 48 335 22Q335 3 336 1Q349 -1 376 -1Q397 -1 429 1Q430 37 430 111Q430 191 429 253T427 361Q423 543 423 638V704Q410 706 384 706Q338 706 336 701V690Q335 680 335 657ZM282 426T302 406T328 354T335
265Q335 205 328 168T297 109T225 86Q183 86 158 100T118 151T101 254Q101 298 104 320Q108 376 137 402T220 429L239 428Q282 426 302 406Z" />
<glyph unicode="e" glyph-name="e" d="M122 250T147 250Q185 248 264 248Q301 248 312 249Q405 253 424 259Q426 287 426 302Q426 484 290 507Q255 515 223 515Q162 515 112 491T43 423Q33 397 30 370T24 318T21 284Q16 174 51 89T164 -10Q169 -12 189 -14T234
-16Q287 -16 331 -5T394 34Q413 65 418 99T422 190Q411 189 403 189T388 190Q380 191 364 191Q346 191 325 188Q327 172 327 166Q327 127 304 105T231 82Q109 82 109 206L110 235V253Q122 250 147 250ZM353 317Q353 313 352 312T345 309Q333 308 237 308Q211 307
174 307Q136 307 125 311T113 327Q113 331 115 343Q122 393 149 420T242 447Q259 447 270 445T296 436Q323 419 337 389T353 328V317Z" />
<glyph unicode="f" glyph-name="f" horiz-adv-x="379" d="M253 372L368 369Q370 392 370 422Q372 451 373 455Q256 455 197 454Q195 504 195 517Q195 555 201 570T219 588T263 594Q358 598 375 597Q380 637 380 648Q380 669 374 688H335Q272 688 217 683Q150 674
127 623T103 497L104 457Q85 458 11 458L14 372Q21 373 36 373Q53 373 62 372Q95 372 106 373Q106 328 105 298L104 177Q104 27 108 3Q118 1 134 1L158 2Q178 4 193 3V373L253 372Z" />
<glyph unicode="g" glyph-name="g" horiz-adv-x="467" d="M424 -118T425 -103T427 -70T428 -43Q433 72 433 227Q433 383 429 499L377 500Q364 500 338 498Q337 492 337 486T338 473Q338 461 335 447Q326 467 312 478T270 493T189 497Q110 492 74 443T30 332T22
178Q25 108 50 61Q80 -2 180 -2H218Q279 -2 301 2T341 26Q340 15 340 9T339 -2V-35V-72Q341 -95 336 -106T311 -122T249 -127Q217 -127 197 -126Q158 -120 146 -100T134 -54Q134 -41 133 -39Q131 -37 114 -37Q94 -37 72 -38T45 -42Q44 -49 44 -62Q44 -121 89 -160T200
-204Q230 -206 249 -206Q260 -206 304 -204Q342 -201 371 -187T419 -130Q424 -118 425 -103ZM100 312T121 358T198 415Q217 418 237 418Q274 418 295 406Q340 382 340 281Q341 238 341 167Q338 112 315 93T237 74Q211 74 196 75Q139 78 118 125T100 226V238Q100
312 121 358Z" />
<glyph unicode="h" glyph-name="h" horiz-adv-x="448" d="M126 598Q126 711 124 720Q124 723 114 723Q106 723 99 722T86 721Q67 720 36 723Q34 605 34 493L35 187Q36 112 36 -3Q45 -2 59 -2L89 -3Q101 -3 121 2V6Q123 35 123 89Q123 132 121 198L120 232Q120
285 127 323Q135 364 162 383T229 403Q251 403 272 397Q290 393 296 389Q324 370 326 306V110V50Q326 28 328 -2Q374 -4 414 2Q412 42 412 70Q412 104 414 184Q416 266 416 304Q416 371 411 412T393 464Q352 499 279 499Q258 499 234 496Q194 493 174 482T126 447V536V598Z"
/>
<glyph unicode="i" glyph-name="i" horiz-adv-x="207" d="M58 697T61 631Q63 597 63 582Q74 583 82 583T96 582Q104 581 120 581Q146 581 156 586L153 718Q121 718 59 720Q58 697 61 631ZM63 504Q57 438 57 369Q57 331 59 261V177V87Q59 28 58 -1Q62 0 80 0Q86
0 114 0T156 3Q152 75 152 167Q152 265 155 361Q157 455 157 500V503Q121 503 91 505Q70 506 63 505V504Z" />
<glyph unicode="j" glyph-name="j" horiz-adv-x="204" d="M72 696T75 630Q77 596 77 584L108 583Q117 582 134 582Q163 582 168 590Q168 622 166 678Q165 696 165 718Q135 718 73 720Q72 696 75 630ZM80 331T80 263L81 135Q81 60 77 11T58 -63Q33 -82 -11 -89T-97
-97L-120 -96Q-124 -124 -124 -148Q-124 -170 -120 -187Q-107 -188 -80 -188Q6 -188 69 -168T154 -99Q172 -9 172 94L171 175Q169 231 169 263Q168 273 168 300Q168 338 169 359L170 429Q170 472 167 500Q163 501 154 501Q145 501 127 499Q96 497 81 498Q82 453
82 362Q80 331 80 263Z" />
<glyph unicode="k" glyph-name="k" horiz-adv-x="435" d="M126 727Q120 728 105 728L69 727Q58 726 38 726V691Q38 615 36 461Q34 309 34 233Q34 105 38 0Q44 -1 59 -1L92 0Q117 2 127 1L128 102L127 178Q126 198 126 226Q191 168 225 130T292 50Q318 16 334 -2Q352
-4 364 -4Q381 -4 409 -2Q435 0 443 0L397 56Q347 119 306 165T191 289Q256 344 317 405Q375 463 434 514Q425 515 417 515T401 514Q391 513 370 513Q342 513 325 517Q310 504 282 476Q239 436 208 409T126 343Q124 363 124 383L125 455Q126 491 126 544V727Z"
/>
<glyph unicode="l" glyph-name="l" horiz-adv-x="206" d="M53 642T53 536Q53 473 57 349Q61 225 61 163Q61 81 55 0Q57 1 65 1Q78 1 87 0L118 -1Q145 -1 151 6Q148 81 148 207Q148 321 150 521Q152 683 152 724L61 727Q53 642 53 536Z" />
<glyph unicode="m" glyph-name="m" horiz-adv-x="684" d="M127 499T118 499Q110 499 102 498T89 497L67 496Q62 496 36 498Q34 394 34 346Q34 287 36 169L37 -3Q46 -2 61 -2L94 -3Q107 -3 122 0V4Q125 48 125 89L124 138Q122 196 122 228Q122 257 123 272Q131
391 237 391Q275 391 289 376T303 318Q307 265 307 196L306 122V69Q306 18 308 -2H339Q375 -2 396 1Q395 17 395 54L396 154Q398 224 398 258V295L397 323Q397 336 399 358Q408 378 429 387T479 397Q498 397 508 395Q541 392 547 372Q556 359 559 334T563 288T565
259V217Q565 175 563 97Q563 25 565 -2Q614 -4 650 2Q648 42 648 70Q648 104 650 184Q652 266 652 304Q652 371 647 412T629 464Q606 484 578 490T499 495Q457 494 434 485T397 465T376 450Q369 468 347 478Q319 495 276 495Q252 495 217 488Q166 480 129 443V468Q129
485 127 496Q127 499 118 499Z" />
<glyph unicode="n" glyph-name="n" horiz-adv-x="450" d="M131 500T121 500Q113 500 105 499T91 498Q81 497 65 497Q49 497 37 498Q35 394 35 346Q35 287 37 169L38 -3Q47 -2 63 -2Q71 -2 89 -2T127 1V5Q130 44 130 81Q130 99 128 137Q126 201 126 257Q126 293
127 306Q131 353 163 371T265 390Q311 393 314 358Q323 331 325 296T328 255Q329 227 327 162L326 98V55Q326 15 328 -1H361Q397 -1 416 2Q415 21 415 65Q415 99 417 175Q419 255 419 293Q419 443 395 464Q360 493 305 495Q259 495 213 480T133 444V469Q133 486
131 497Q131 500 121 500Z" />
<glyph unicode="o" glyph-name="o" horiz-adv-x="448" d="M26 308T26 271V219Q26 157 34 113T72 36T161 -7L207 -8Q243 -10 261 -10Q307 -10 340 0T393 37Q410 54 415 113T425 272Q425 281 423 336T412 425T384 470Q339 514 255 514L215 513Q202 513 195 514Q143
514 101 500T45 456Q31 416 28 389T24 325Q26 308 26 271ZM294 420T318 380T342 274Q342 249 337 179Q337 164 333 138Q325 106 296 92T228 78Q207 78 187 81Q157 87 138 103T115 160L113 202Q113 216 112 241T111 281Q110 320 113 344T130 385Q160 420 228 420Q294
420 318 380Z" />
<glyph unicode="p" glyph-name="p" horiz-adv-x="464" d="M129 -150Q131 -118 131 -96L129 26Q131 14 174 6T267 -2Q291 -2 302 -1Q337 2 362 12Q404 27 423 83T443 215Q441 300 429 358T381 454T275 497Q269 498 253 498Q221 498 190 488T141 455Q137 448 135
448T131 452Q132 461 132 466T131 475Q131 483 131 490T129 499Q120 500 100 500L35 499Q34 463 34 389Q34 309 35 246T37 138Q41 -44 41 -138V-204Q61 -207 84 -207Q100 -207 113 -206T126 -202V-191L129 -150ZM173 75T155 85T130 125T124 227Q124 294 130 331T158
390T229 417Q310 423 338 365T367 227Q367 193 359 154Q348 117 331 101T289 80T217 75Q173 75 155 85Z" />
<glyph unicode="q" glyph-name="q" horiz-adv-x="463" d="M332 14T290 6T197 -2Q172 -2 161 -1Q126 2 101 12Q59 27 40 83T20 215Q20 343 54 416T188 497Q204 499 214 499Q255 499 287 483Q302 476 315 467T331 452L332 475Q332 483 332 490T334 499Q343 500 363
500L428 499Q429 463 429 389Q429 309 428 246T426 138Q422 -44 422 -138V-204Q402 -207 379 -207Q363 -207 350 -206T337 -202V-191L334 -150Q332 -118 332 -96L334 26Q332 14 290 6ZM289 75T307 85T332 125T339 227Q339 294 333 331T305 390T234 417Q154 423
125 366T96 227Q96 193 104 154Q115 117 132 100T174 79T246 75Q289 75 307 85Z" />
<glyph unicode="r" glyph-name="r" horiz-adv-x="339" d="M127 499T111 499Q91 499 79 498Q70 498 59 498T37 498Q35 394 35 346Q35 287 37 169L38 -3Q54 -2 69 -2T92 -3Q110 -3 127 1V5Q127 179 123 316Q122 355 132 369T170 390Q204 398 231 398Q257 398 279
393Q298 388 313 382Q312 392 312 412L313 495Q313 497 289 497Q263 497 231 494T175 482Q160 477 148 472T128 463Q128 472 128 478T127 497Q127 499 111 499Z" />
<glyph unicode="s" glyph-name="s" horiz-adv-x="450" d="M434 415T412 451T355 503Q318 515 275 518Q245 520 230 520Q166 520 125 509Q77 497 50 459T22 373Q22 330 49 294T129 240Q144 233 163 230T213 224Q256 219 281 214T322 192T338 147Q339 103 288 80Q271
72 261 69T234 66Q228 66 196 68Q155 71 138 92T115 133T106 156Q103 159 64 159Q29 159 11 157V152Q11 99 39 60T118 2T236 -16Q297 -17 345 5T415 74Q430 118 430 149Q430 174 422 195T395 239Q377 259 346 270T273 283Q245 284 206 294T157 311Q139 320 128
343Q124 348 124 362Q124 380 131 399T151 428Q162 435 184 439T235 443Q261 443 274 441Q332 434 332 401T332 366Q337 367 345 367T361 366Q373 365 399 365Q434 365 434 370Q434 415 412 451Z" />
<glyph unicode="t" glyph-name="t" horiz-adv-x="387" d="M202 684T191 684L164 685Q135 687 121 686Q119 669 119 627V580L120 475Q37 475 15 477L12 395L88 394Q112 394 118 395V347Q118 191 129 94Q141 37 185 18T307 -1Q352 -1 373 0Q378 18 378 36Q378 47
373 87Q333 85 285 90T220 115Q214 129 212 148T210 212V246V399Q264 398 373 398Q372 408 374 430L375 453Q375 475 369 483Q273 478 208 476L207 532V685Q202 684 191 684Z" />
<glyph unicode="u" glyph-name="u" horiz-adv-x="450" d="M326 -3T336 -3Q344 -3 351 -2T364 -1Q391 2 413 2Q415 106 415 154Q415 213 413 331L412 503Q397 502 376 502Q373 502 359 501T328 496V492Q326 442 326 415Q326 400 328 352Q332 257 331 221Q330 166
299 134T208 102Q191 102 171 105Q148 111 137 128T123 178Q120 226 120 262L119 290Q118 308 118 348L119 429Q119 470 116 500H83Q52 500 34 498Q36 460 36 434Q36 380 33 320Q31 260 31 229V198Q32 120 36 85T57 34Q88 4 150 4Q205 4 263 25Q294 32 308 42T324
53Q325 44 325 32T326 0Q326 -3 336 -3Z" />
<glyph unicode="v" glyph-name="v" horiz-adv-x="429" d="M44 371Q65 284 85 212T150 -1L222 -2Q257 -2 273 1Q311 112 359 278Q374 333 391 389T428 499Q404 500 368 498Q348 496 339 496Q304 396 255 229Q251 215 238 170T216 103Q202 136 192 171T161 285Q118
442 102 498Q87 499 75 499T53 498Q26 498 11 500L44 371Z" />
<glyph unicode="w" glyph-name="w" horiz-adv-x="683" d="M69 256T115 -3L191 -4Q226 -4 240 -2Q264 68 299 191Q307 219 346 345Q399 174 444 -3L515 -4Q534 -6 557 -1Q579 81 593 145T612 226Q625 284 641 350T682 499Q669 500 647 500Q624 500 588 498Q579
466 567 409T551 334Q525 198 501 106Q462 227 444 303T408 466L402 499Q384 503 349 501Q311 499 302 500Q285 418 259 328T183 99Q152 233 126 405L111 497Q95 499 62 499Q28 499 11 500Q69 256 115 -3Z" />
<glyph unicode="x" glyph-name="x" horiz-adv-x="413" d="M412 501Q333 501 306 498Q286 467 267 428T243 379Q218 329 208 311Q190 338 156 405Q126 463 106 496Q104 498 58 498Q24 498 2 497Q26 459 40 434T71 373Q103 309 135 253Q69 116 9 2Q21 -1 57 -1L105
0Q122 28 160 102Q182 147 208 192Q221 170 250 109Q281 41 303 2H304Q308 1 343 1H355Q363 0 369 0T381 1L401 0Q383 37 373 59T357 96Q326 170 283 252Q341 373 412 500Q413 500 413 501H412Z" />
<glyph unicode="y" glyph-name="y" horiz-adv-x="449" d="M42 356T77 236L148 -15Q150 -25 150 -30Q150 -89 36 -89Q22 -89 -10 -87Q-14 -102 -14 -125Q-14 -156 -6 -177Q6 -178 28 -178Q150 -178 218 -126T314 0T369 195Q383 265 387 278L405 353Q431 463 441
499Q418 500 382 498L343 497Q338 484 327 429T312 362Q284 230 264 150T229 52Q216 76 196 147T139 360L103 497Q89 499 55 499Q20 499 3 500Q42 356 77 236Z" />
<glyph unicode="z" glyph-name="z" horiz-adv-x="456" d="M28 497Q29 472 28 451Q28 444 28 429T28 398Q100 408 258 408Q304 408 316 409Q284 370 228 311T158 236Q53 127 22 88Q22 67 23 56Q25 29 24 1Q185 1 431 7L430 54Q429 70 429 100Q394 95 309 95H219Q166
95 149 94Q212 169 267 227T335 299Q365 329 391 357T434 408Q433 418 433 437L434 497Q426 499 408 499Q382 499 367 498L326 497L306 498L28 497Z" />
<glyph unicode="{" glyph-name="braceleft" horiz-adv-x="318" d="M248 74T228 86T205 110T200 150Q198 162 197 178T196 200Q194 251 184 283T136 344Q175 365 188 396T201 468L200 508L199 530Q199 565 206 582T225 604T258 611Q279 613 290 617Q292 633 292
644Q292 660 289 678Q263 680 253 680Q240 680 192 676Q160 671 142 646T124 586Q124 570 126 562Q127 546 127 518Q127 486 125 473Q121 430 98 403T30 376Q20 376 15 377Q11 353 11 337Q11 319 13 309Q14 308 21 308Q126 314 126 156Q126 129 123 108Q121 80
137 55T186 15T262 -1Q272 -1 292 1Q293 11 293 31Q293 58 292 69Q248 74 228 86Z" />
<glyph unicode="|" glyph-name="bar" horiz-adv-x="201" d="M143 728V729Q121 726 100 726H63V-25L136 -28H145L143 728Z" />
<glyph unicode="}" glyph-name="braceright" horiz-adv-x="318" d="M69 74T89 86T112 110T117 150Q121 173 121 202Q123 252 133 284T181 344Q142 365 129 396T116 468L117 508Q119 554 112 576T93 604T57 612Q37 614 27 617Q25 633 25 644Q25 660 28 678Q54 680
64 680Q77 680 125 676Q157 671 175 646T193 586Q193 570 191 562Q189 532 189 520Q189 493 192 473Q196 430 219 403T287 376Q297 376 302 377Q306 353 306 337Q306 319 304 309Q303 308 296 308Q190 313 190 162Q190 140 194 108Q196 80 180 55T131 15T55 -1Q45
-1 25 1Q24 11 24 31Q24 58 25 69Q69 74 89 86Z" />
<glyph unicode="~" glyph-name="asciitilde" horiz-adv-x="570" d="M123 191T145 224T208 264Q234 266 250 256T280 212Q311 126 388 126Q409 126 430 132Q479 145 511 197T543 309Q543 329 541 338L540 340L514 339Q496 339 462 337Q464 298 448 262T394 216Q384
213 376 213Q347 213 331 244Q312 283 301 299T271 330Q239 351 201 351Q172 351 144 339T95 306Q73 280 50 227T17 137Q34 138 64 138Q108 138 121 135V137Q123 191 145 224Z" />
<glyph unicode="&#xa0;" glyph-name="uni00A0" horiz-adv-x="200" />
<glyph unicode="&#xa1;" glyph-name="exclamdown" horiz-adv-x="216" d="M131 508T109 508Q92 508 60 512Q60 539 59 554L58 599Q58 617 60 631H69L93 630H124L146 631Q148 624 148 599L147 553Q146 538 146 512Q131 508 109 508ZM62 -33T62 45L63 174Q64 216
64 301Q64 381 61 459Q76 460 106 460Q137 460 153 459Q150 375 150 289Q150 200 151 155L152 19Q152 -41 151 -71H63Q62 -33 62 45Z" />
<glyph unicode="&#xa2;" glyph-name="cent" horiz-adv-x="350" d="M196 213V268L195 471L196 517Q226 506 240 484T256 439T258 384Q271 381 286 381Q301 381 324 384L325 400Q327 418 327 426Q327 485 291 531T196 586Q195 593 195 607L196 652Q188 654 184 654Q174
654 160 647L161 607Q161 594 160 588Q154 589 142 589Q88 589 60 550T32 452Q32 424 31 411L30 285Q30 227 34 179Q38 141 67 119T136 92Q144 91 160 91Q161 79 161 58V27Q165 25 173 25Q177 25 192 28Q196 28 196 51T196 81V93Q241 95 277 128T322 203Q324 212
324 231L323 274Q323 279 321 291Q315 292 300 292Q293 292 281 292T261 292Q264 238 248 204T197 162L196 185V213ZM162 399T162 338L160 162Q122 170 109 202T95 298Q95 318 97 370Q95 440 109 478T160 515Q162 399 162 338Z" />
<glyph unicode="&#xa3;" glyph-name="sterling" horiz-adv-x="486" d="M147 353L139 354L119 353L96 354L68 355Q19 355 19 344L18 336L19 315Q20 308 20 285L21 256Q29 254 46 254H111H160Q164 130 164 86Q164 34 162 11Q176 1 290 1L460 2L462 27L468 105L395
109Q277 118 265 116Q262 119 261 128T256 181Q257 205 255 224Q254 231 254 250Q263 250 279 251T329 252Q376 252 404 251Q402 253 402 259L404 279Q407 315 407 323Q407 331 405 349H404Q390 345 358 346L255 350Q257 404 257 512Q257 620 255 674V675Q239 670
223 669Q206 668 188 668T168 669Q162 655 162 435Q162 400 164 354H155L147 353Z" />
<glyph unicode="&#xa4;" glyph-name="currency" horiz-adv-x="607" d="M18 578Q37 553 49 542Q70 521 92 491Q78 436 78 342V312V282Q78 251 80 226T92 178V177Q50 126 18 88L40 68Q64 45 78 33T99 22L168 115Q231 103 297 103Q364 103 429 116Q453 82 468 63T504
22Q510 21 522 31T537 44Q554 59 560 62L588 86Q543 128 506 178Q523 219 527 248T532 322Q530 370 528 401T522 447T506 484L540 523Q547 530 589 578L517 643Q464 585 432 553Q404 558 364 562T293 566Q244 566 213 559T175 551L91 643L18 578ZM452 340T448 268Q446
233 430 215T378 188T281 180Q218 180 188 199T158 267Q157 295 157 343Q157 405 169 434T220 477Q268 487 312 487Q373 487 412 462T452 372Q452 340 448 268Z" />
<glyph unicode="&#xa5;" glyph-name="yen" horiz-adv-x="530" d="M447 323Q440 325 421 325H386Q365 325 357 327Q360 332 373 358Q419 451 451 526T508 677L512 691Q490 693 472 692Q426 692 417 687Q367 564 303 429Q236 542 175 692Q168 693 155 693Q139 693
131 692L101 691L81 692Q90 648 110 602T165 483L202 405L218 373Q235 342 243 324Q221 323 176 323H122Q69 323 43 321H26Q26 297 24 275Q24 262 25 252Q39 248 121 248Q185 248 216 247L206 221L197 201Q176 183 105 183Q91 183 28 186Q26 173 25 149T24 115Q32
112 78 112Q133 112 161 108L148 76Q128 30 119 0H122Q133 -1 142 -1T159 0Q170 1 193 1Q207 1 213 0H219L228 22Q250 82 264 111L449 112H464Q462 126 462 162Q461 171 461 187Q444 188 407 188L295 187L304 209Q313 235 324 248Q340 247 352 247T372 248Q382
249 403 249Q450 249 464 248Q462 262 462 297Q461 306 461 323H447Z" />
<glyph unicode="&#xa6;" glyph-name="brokenbar" horiz-adv-x="147" />
<glyph unicode="&#xa7;" glyph-name="section" horiz-adv-x="867" />
<glyph unicode="&#xa8;" glyph-name="dieresis" horiz-adv-x="349" d="M127 521V523Q127 537 130 578T133 624Q125 628 99 628Q70 628 53 623Q53 616 52 601T51 562Q51 537 54 522H57L125 521H127ZM293 521V523Q293 537 296 578T299 624Q291 628 265 628Q236 628
219 623Q219 616 218 601T217 562Q217 537 220 522H223L291 521H293Z" />
<glyph unicode="&#xa9;" glyph-name="copyright" horiz-adv-x="553" d="M510 290T515 333T519 417T504 493T456 553Q453 555 450 557T444 561Q424 574 403 581T361 593Q321 601 280 600T198 596Q163 591 131 576T77 532Q44 493 40 446Q36 395 36 346T45 247Q50
205 76 176T147 127Q173 119 200 116T255 113Q281 115 308 116T363 122T414 137T458 168Q494 202 506 249Q510 290 515 333ZM460 476T461 455T464 411Q465 381 464 351T460 293Q458 274 452 255T434 219T407 192T369 178Q332 170 288 170T209 166Q188 167 168 173T132
191T107 218T97 253Q94 300 92 350T95 450Q100 482 123 507T185 539Q187 539 187 540T190 541Q272 550 354 541Q382 535 406 523T444 495Q460 476 461 455ZM242 444T246 445T258 448Q269 448 284 443T302 430T304 407T303 383Q317 381 323 381T354 381Q361 413
352 441T325 483T283 498T232 493Q227 491 222 489T212 483Q199 471 191 449Q189 444 187 438T186 424Q185 362 185 326T188 262Q189 246 198 236T219 219T246 212T275 212Q296 212 313 222T340 248T354 284T351 326Q339 330 328 329T305 329Q304 319 304 299T303
269Q295 256 279 256T253 256Q242 260 238 270T231 314Q230 327 230 345T232 386T235 421T236 435Q237 437 237 438T239 441Q242 444 246 445Z" />
<glyph unicode="&#xaa;" glyph-name="ordfeminine" horiz-adv-x="276" d="M187 722T186 716T185 696Q177 713 161 716T111 720Q76 719 52 686T28 603Q28 554 46 511T100 467Q167 467 189 497Q189 493 188 489T187 479Q187 469 192 468L205 469L221 468H229Q234
469 236 492T238 559L237 664Q237 694 238 704V708Q238 711 237 714T236 720Q222 721 212 722T194 722Q187 722 186 716ZM163 675T173 669T185 650T187 599Q187 566 185 549T171 523T134 513Q73 510 70 591Q70 618 74 630Q78 650 95 663T138 677Q163 675 173 669Z"
/>
<glyph unicode="&#xab;" glyph-name="guillemotleft" horiz-adv-x="583" d="M158 288T241 375Q317 454 332 474Q332 474 314 492Q290 518 279 524Q250 495 250 495Q97 344 34 266Q67 223 102 189T195 101Q257 45 285 16L286 15Q301 28 308 35T319 45L327 53L342
69Q287 114 162 239L138 263Q158 288 241 375ZM378 284T416 325T469 381Q539 455 555 474Q555 474 537 492Q513 518 502 524L468 490Q318 342 257 266Q290 223 324 190T420 98Q487 37 508 16L509 15Q525 29 532 35T542 45L550 53L564 69Q529 97 483 142T393 231L361
263Q378 284 416 325Z" />
<glyph unicode="&#xac;" glyph-name="logicalnot" horiz-adv-x="471" d="M434 467H433L434 470L20 472L21 417Q23 415 375 412L376 251H431L434 467Z" />
<glyph unicode="&#xad;" glyph-name="uni00AD" horiz-adv-x="369" d="M291 248H331L330 279Q330 288 333 306L36 304L37 249L291 248Z" />
<glyph unicode="&#xae;" glyph-name="registered" horiz-adv-x="553" d="M520 360T520 398Q520 449 506 488T456 553Q420 579 379 589T288 600Q256 600 198 596Q136 587 91 546T40 446Q36 407 36 360Q36 303 45 247Q52 184 108 149T255 113Q262 114 276 114Q338
118 378 126T453 162T504 243Q506 253 507 262T510 282Q520 360 520 398ZM467 363Q467 280 443 228T349 171Q283 164 209 164Q162 164 131 189T97 251Q91 301 91 358Q91 379 93 417Q97 462 118 501T190 540Q233 545 276 545Q407 545 446 494Q459 480 462 464T465
432T466 410L467 363ZM305 333T317 336H318Q335 338 345 346T364 370L363 369Q377 392 377 415Q377 449 351 475T289 506Q282 507 268 507Q250 507 200 502L177 500Q179 486 180 424T182 302Q182 227 184 209Q190 208 207 209T238 213L237 235Q235 255 235 264Q234
270 234 280T235 297Q235 311 236 316Q236 313 255 288T297 239T339 208Q361 207 388 210Q352 256 319 292Q277 342 284 333Q305 333 317 336ZM323 461T323 420Q323 412 322 408Q319 389 310 384T275 378L252 377Q228 377 228 392V410Q228 415 227 425T226 448V457Q260
461 267 461Q323 461 323 420Z" />
<glyph unicode="&#xb0;" glyph-name="degree" horiz-adv-x="298" d="M204 408T212 411Q273 433 273 530V548Q273 565 271 574Q266 606 247 621Q234 633 219 638L201 645Q185 650 160 650Q136 650 121 649L108 648Q80 643 60 628T32 588Q26 564 26 535Q26 522 27
506T29 480Q31 462 35 451Q45 427 79 410Q109 401 141 401Q164 401 192 406Q204 408 212 411ZM210 596T219 585Q232 571 232 550Q232 544 230 532Q229 524 228 513T225 494Q221 474 213 463T185 449H184Q181 449 179 448T174 447Q146 443 108 445Q91 447 81 459T71
490L70 532Q70 543 72 565Q78 593 104 602Q124 606 151 606Q181 606 200 600Q210 596 219 585Z" />
<glyph unicode="&#xb1;" glyph-name="plusminus" horiz-adv-x="501" d="M296 254T296 257V259Q296 267 298 293T301 348Q301 361 300 370T299 385Q299 396 304 401T323 407T369 409Q440 409 445 412Q448 442 448 469Q448 495 449 510Q430 513 394 513H344Q314
513 305 514Q303 518 303 635V661Q299 662 289 662L236 661Q210 661 206 665Q201 632 200 609T199 513Q189 510 131 507L73 504Q47 502 46 503Q46 498 48 464T49 417Q49 413 105 409T187 404H189Q192 401 192 358V325L191 286Q191 280 193 258Q193 256 193 256T194
255Q196 256 250 254Q296 254 296 257ZM475 30Q472 59 472 86Q472 96 472 110T472 142H29L28 105L26 37L474 30H475Z" />
<glyph unicode="&#xb2;" glyph-name="uni00B2" horiz-adv-x="264" d="M226 337Q225 340 225 347L226 363Q226 372 223 381Q179 379 151 379H90Q89 380 89 384Q89 396 95 406Q108 418 151 444Q190 466 210 485T233 531Q233 576 224 604T187 647Q168 655 139 655Q113
655 91 648T58 628Q33 600 33 556Q33 543 34 536L35 523H36L52 522Q66 522 82 525V526Q82 561 91 584T136 608Q189 606 185 541Q185 524 170 511T124 479Q89 459 70 442Q46 417 40 395T32 336V334H53L225 337H226Z" />
<glyph unicode="&#xb3;" glyph-name="uni00B3" horiz-adv-x="254" d="M111 328T127 328Q179 328 197 354T221 430Q222 455 222 504V581Q222 604 215 614Q204 632 180 642T128 653Q93 653 65 638T28 595Q26 590 26 578L27 552V551L69 552Q69 581 84 594T126 607Q131
607 145 605Q175 600 176 569Q177 544 173 533T158 519Q155 519 146 519T126 519H108Q93 519 89 517Q90 512 90 505T89 493Q89 481 92 473Q102 475 111 475L130 474Q154 474 165 465T176 435Q176 425 173 410Q172 393 157 385T119 377Q94 377 85 389T73 416T69
431H68Q59 431 46 430T27 429L29 404Q30 382 33 370T46 349Q47 349 60 341T92 331Q111 328 127 328Z" />
<glyph unicode="&#xb4;" glyph-name="acute" horiz-adv-x="255" d="M106 522T78 522Q35 522 20 527Q32 538 103 609Q147 657 179 685L231 632Q224 628 173 579T119 524Q106 522 78 522Z" />
<glyph unicode="&#xb5;" glyph-name="uni00B5" horiz-adv-x="458" d="M168 8T185 8Q221 8 265 17Q307 27 329 53Q330 44 330 32T331 0Q332 -4 352 -4Q362 -4 384 -2Q408 0 418 2Q420 106 420 154Q420 213 418 331L417 503Q389 500 376 500Q360 500 332 496V495Q330
477 330 468Q330 448 332 404L335 301L336 221Q335 179 322 153T266 113Q235 102 206 102Q191 102 176 105Q160 109 152 115Q125 136 123 214V306Q123 410 124 442V500H90Q58 500 39 498Q40 474 40 415Q37 320 36 199T35 38Q35 -67 33 -165Q35 -164 43 -164Q56
-164 65 -165L96 -166Q123 -166 129 -159L128 -124Q125 -84 125 12Q130 12 141 11T161 9Q168 8 185 8Z" />
<glyph unicode="&#xb6;" glyph-name="paragraph" horiz-adv-x="672" d="M206 726T182 726Q133 724 106 720T58 698T28 645Q19 573 19 511Q19 468 24 408Q39 364 60 345T123 326Q137 326 145 327L146 65Q144 -123 137 -206Q140 -205 153 -205Q178 -205 193 -206Q240
-208 246 -200Q243 -157 243 8V151V210Q245 468 249 625H456Q453 542 453 331V242Q453 -73 443 -204L463 -203L498 -204Q543 -206 550 -198Q547 -146 547 -36L548 150Q551 472 555 624L576 623Q602 621 614 621Q650 621 655 631Q655 655 653 699Q652 712 652 728L557
730Q387 727 219 727Q206 726 182 726Z" />
<glyph unicode="&#xb7;" glyph-name="middot" horiz-adv-x="164" d="M45 370T48 304Q50 270 50 255Q62 256 72 255T88 254Q95 254 98 255Q113 255 118 264Q118 296 116 352Q115 370 115 392L46 393Q45 370 48 304Z" />
<glyph unicode="&#xb8;" glyph-name="cedilla" horiz-adv-x="190" d="M65 -47Q61 -57 54 -78T30 -147Q35 -148 48 -148T77 -148L107 -147Q114 -132 132 -77T154 -6H155Q146 -5 128 -5Q123 -5 107 -4T81 0L65 -47Z" />
<glyph unicode="&#xb9;" glyph-name="uni00B9" horiz-adv-x="187" d="M134 402T136 458Q139 518 138 567V603Q138 627 137 639Q109 641 100 641L76 640Q75 639 55 608T19 541Q19 539 33 535T55 529Q60 529 74 554Q85 571 88 576T93 582V563Q93 545 90 449Q88 409
88 389V339Q104 337 117 337Q133 337 134 341V373Q134 402 136 458Z" />
<glyph unicode="&#xba;" glyph-name="ordmasculine" horiz-adv-x="254" d="M28 411T46 373T126 335Q162 335 186 360T220 423T227 498Q229 531 220 565T188 622T127 645Q104 645 87 636T54 610L50 605Q26 570 26 512Q26 498 28 472Q28 411 46 373ZM71 529T73 541Q71
547 75 561T92 588T130 601Q153 598 166 575T181 521Q182 510 182 492Q182 477 181 470Q181 466 181 447T171 409T140 382Q130 379 121 380Q69 381 69 476Q69 498 71 524Q71 529 73 541Z" />
<glyph unicode="&#xbb;" glyph-name="guillemotright" horiz-adv-x="583" d="M204 284T166 325T113 381Q43 455 27 474Q27 474 45 492Q69 518 80 524L114 490Q264 342 325 266Q292 223 258 190T162 98Q95 37 74 16L73 15Q57 29 50 35T40 45L32 53L18 69Q53 97
99 142T189 231L221 263Q204 284 166 325ZM424 288T341 375Q265 454 250 474Q250 474 268 492Q292 518 303 524Q332 495 332 495Q485 344 548 266Q515 223 480 189T387 101Q325 45 297 16L296 15Q281 28 274 35T263 45L255 53L240 69Q295 114 420 239L444 263Q424
288 341 375Z" />
<glyph unicode="&#xbc;" glyph-name="onequarter" horiz-adv-x="595" d="M487 171T468 171T451 170T433 171T412 172Q412 173 430 196T466 246T488 278T493 282L491 172Q487 171 468 171ZM212 2T205 1T170 0Q143 0 124 -1Q122 2 134 37T150 80Q175 149 185 179Q205
235 203 229L217 266Q269 401 306 517Q347 639 366 709Q378 707 406 707Q420 707 433 706T455 701Q454 698 441 656T370 441Q346 373 335 338Q329 320 312 271T279 181L257 123Q222 31 213 7Q212 2 205 1ZM167 381T169 445Q171 509 171 542V575V616Q171 644 170
658L130 659L99 658Q96 655 71 614T32 544Q32 541 51 535T74 529Q80 529 86 539T103 569Q114 591 117 590V582V566Q117 486 114 429Q112 381 112 356V308Q134 306 146 306Q164 306 167 310V349Q167 381 169 445ZM545 166T545 177V208Q546 281 547 317T549 358H548H545Q534
359 515 358T488 357Q462 320 432 274Q371 185 357 166L356 150Q356 133 359 115Q360 114 404 114H456H477Q489 114 491 113L490 88L487 42Q485 0 486 -3Q508 -3 523 -3T540 1Q540 13 541 43T545 101Q545 105 545 107T546 110H563Q573 110 577 111L580 163Q577
163 568 164T549 164H546Q545 166 545 177Z" />
<glyph unicode="&#xbd;" glyph-name="onehalf" horiz-adv-x="602" d="M212 2T205 1T170 0Q143 0 124 -1Q122 2 134 37T150 80Q175 149 185 179Q205 235 203 229L217 266Q269 401 306 517Q347 639 366 709Q378 707 406 707Q420 707 433 706T455 701Q454 698 441
656T370 441Q346 373 335 338Q329 320 312 271T279 181L257 123Q222 31 213 7Q212 2 205 1ZM167 381T169 445Q171 509 171 542V575V616Q171 644 170 658L130 659L99 658Q96 655 71 614T32 544Q32 541 51 535T74 529Q80 529 86 539T103 569Q114 591 117 590V582V566Q117
486 114 429Q112 381 112 356V308Q134 306 146 306Q164 306 167 310V349Q167 381 169 445ZM564 6T564 15V26Q564 42 561 51L538 50Q502 48 479 48L416 49Q403 56 443 96Q460 113 498 132Q532 151 550 168T571 214Q573 260 563 292T522 340Q501 349 466 349Q439
349 416 342T381 320Q354 290 354 239Q354 223 357 206V205Q363 204 375 204Q389 204 407 207V208Q408 212 408 216T407 226Q406 251 416 272T448 296L469 297Q494 297 508 282T520 220Q518 196 489 181L460 163Q430 144 412 131T378 101Q363 82 359 64T354 27T353
0Q353 0 353 0T354 -1H376Q415 -1 477 0T565 2Q564 6 564 15Z" />
<glyph unicode="&#xbe;" glyph-name="threequarters" horiz-adv-x="626" d="M519 171T500 171T483 170T465 171T444 172Q444 173 462 196T498 246T520 278T525 282L523 172Q519 171 500 171ZM212 2T205 1T170 0Q143 0 124 -1Q122 2 134 37T150 80Q175 149 185
179Q205 235 203 229L217 266Q269 401 306 517Q347 639 366 709Q378 707 406 707Q420 707 433 706T455 701Q454 698 441 656T370 441Q346 373 335 338Q329 320 312 271T279 181L257 123Q222 31 213 7Q212 2 205 1ZM114 303T130 303Q203 303 226 355Q233 371 233
389T234 413Q236 479 236 513Q236 556 235 577V583Q235 599 229 612Q217 632 191 643T133 655Q95 655 65 639T26 592Q23 583 23 571L24 546V545Q55 545 71 546Q70 571 79 582T108 600Q119 603 133 603Q143 603 148 602Q167 601 176 589T186 551Q186 530 182 521T166
510H132Q99 510 92 507V486Q92 467 95 460Q113 462 135 462Q161 462 173 453T185 420Q185 408 182 391Q181 373 166 365T126 356Q96 356 86 371T73 399T70 414L69 415Q59 415 46 413T25 412H24Q25 403 26 383T31 349T45 326Q48 322 63 316T96 306Q114 303 130 303ZM566
165T566 176V206Q567 279 568 315T570 356H569H566Q555 357 536 356T509 355Q466 292 456 276Q443 257 420 223T379 165L378 149Q378 133 381 115Q383 113 425 113Q441 114 477 114Q509 114 513 113Q513 112 513 108T512 88L509 32Q506 1 507 -3Q529 -3 544 -3T561
1Q562 13 563 43T565 100L567 109H584Q594 109 598 110L601 162Q597 162 589 163T570 164L567 163Q566 165 566 176Z" />
<glyph unicode="&#xbf;" glyph-name="questiondown" horiz-adv-x="450" d="M188 616V609Q188 590 185 546T182 497Q194 494 217 494Q247 494 266 500Q266 512 267 521L268 570Q268 598 265 616H262H190H188ZM265 414V424Q265 435 263 439H262Q254 438 237 438H208Q189
438 179 437V436Q181 427 176 398Q171 363 159 336T126 280Q124 278 94 242Q61 206 43 176T19 105Q18 98 18 86Q18 36 44 -4T116 -68T214 -92Q229 -92 236 -91Q291 -89 335 -59T404 19T433 117V118L409 119Q381 121 367 121L347 120Q340 106 337 97Q326 70 316
53T287 22T239 10L224 9Q177 9 149 33T121 95Q121 102 123 114Q130 142 145 167T189 231L202 249Q233 288 250 344Q259 367 264 401L265 414Z" />
<glyph unicode="&#xc0;" glyph-name="Agrave" horiz-adv-x="434" d="M70 854T120 806T175 749Q188 747 215 747Q259 747 274 752Q251 774 191 834Q145 882 115 910L63 857Q70 854 120 806ZM328 497Q289 670 280 705Q238 701 199 701H177Q167 701 161 700Q68 432
9 36Q6 11 4 2V1H15Q40 2 59 1T86 0Q94 0 96 1Q106 3 114 38T131 129Q138 169 138 170H180Q255 170 301 168Q313 130 328 71Q340 22 347 2H348Q355 0 371 -2Q383 -4 394 -4Q416 -4 437 0V1Q419 82 385 244L362 351L328 497ZM177 249T157 249H137L146 299Q165 403
179 471T201 558T221 578Q227 578 236 575Q247 564 303 249Q253 248 189 248Q177 249 157 249Z" />
<glyph unicode="&#xc1;" glyph-name="Aacute" horiz-adv-x="434" d="M242 748T214 748Q170 748 155 753Q178 774 234 832Q251 849 276 874T315 911L366 858Q358 854 310 807T255 750Q242 748 214 748ZM238 701T199 701H177Q167 701 161 700Q105 538 72 376T13
55Q7 8 4 2V1H15Q40 2 59 1T86 0Q94 0 96 1Q106 3 114 38T131 129Q138 169 138 170H180Q255 170 301 168Q313 130 328 71Q340 22 347 2H348Q355 0 371 -2Q383 -4 394 -4Q416 -4 437 0V1Q379 270 280 705Q238 701 199 701ZM177 249T157 249H137L150 316Q177 464
187 510T206 566T236 575Q239 575 257 487T303 249Q253 248 189 248Q177 249 157 249Z" />
<glyph unicode="&#xc2;" glyph-name="Acircumflex" horiz-adv-x="434" d="M183 882Q142 844 115 817T59 754L126 751Q136 751 142 752Q157 756 199 806Q218 827 220 828Q230 822 246 801L269 779Q298 750 302 750Q331 749 356 752T382 755L220 916L183 882ZM238
701T199 701H177Q167 701 161 700Q105 538 72 376T13 55Q7 8 4 2V1H15Q40 2 59 1T86 0Q94 0 96 1Q106 3 114 38T131 129Q138 169 138 170H180Q255 170 301 168Q313 130 328 71Q340 22 347 2H348Q355 0 371 -2Q383 -4 394 -4Q416 -4 437 0V1Q379 270 280 705Q238
701 199 701ZM177 249T157 249H137L146 299Q165 403 179 471T201 558T221 578Q227 578 236 575Q247 564 303 249Q253 248 189 248Q177 249 157 249Z" />
<glyph unicode="&#xc3;" glyph-name="Atilde" horiz-adv-x="434" d="M96 797T115 823T166 854Q185 856 197 848T219 814Q239 749 300 749Q309 749 325 751Q356 756 379 779T412 835T420 899L419 912L418 913L359 911Q360 880 348 853T307 817Q299 815 296 815Q279
815 267 829T240 868Q237 873 229 886T212 905Q187 921 158 921Q112 921 77 886Q60 868 43 828T17 757L53 758Q82 758 97 755V756Q96 797 115 823ZM328 497Q289 670 280 705Q238 701 199 701H177Q167 701 161 700Q105 538 72 376T13 55Q7 8 4 2V1H15Q40 2 59 1T86
0Q94 0 96 1Q106 3 114 38T131 129Q138 169 138 170H180Q255 170 301 168Q313 130 328 71Q340 22 347 2H348Q355 0 371 -2Q383 -4 394 -4Q416 -4 437 0V1Q419 82 385 244L362 351L328 497ZM177 249T157 249H137L146 299Q165 403 179 471T201 558T221 578Q227 578
236 575Q247 564 303 249Q253 248 189 248Q177 249 157 249Z" />
<glyph unicode="&#xc4;" glyph-name="Adieresis" horiz-adv-x="434" d="M166 758V765Q166 783 169 820T172 861Q164 865 137 865Q109 865 92 860Q92 853 91 838T90 799Q90 774 93 759H96L164 758H166ZM332 759V760Q332 773 335 815T338 861Q330 865 303 865Q275
865 258 860Q258 853 257 838T256 799Q256 774 259 759H262L330 758L332 759ZM238 701T199 701H177Q167 701 161 700Q105 538 72 376T13 55Q7 8 4 2V1H15Q40 2 59 1T86 0Q94 0 96 1Q106 3 114 38T131 129Q138 169 138 170H180Q255 170 301 168Q313 130 328 71Q340
22 347 2H348Q355 0 371 -2Q383 -4 394 -4Q416 -4 437 0V1Q379 270 280 705Q238 701 199 701ZM177 249T157 249H137L146 299Q165 403 179 471T201 558T221 578Q227 578 236 575Q247 564 303 249Q253 248 189 248Q177 249 157 249Z" />
<glyph unicode="&#xc5;" glyph-name="Aring" horiz-adv-x="434" d="M286 923T260 929T205 936Q178 936 157 926T130 895Q123 867 123 838Q123 802 135 778T176 752Q186 751 211 751Q275 751 292 777Q306 813 306 851Q306 877 298 906Q286 923 260 929ZM262 891T262
849Q262 828 257 810Q253 801 244 799T226 796T214 795H204Q181 795 175 809T169 848Q169 874 186 885Q199 891 216 891Q262 891 262 849ZM238 701T199 701H177Q167 701 161 700Q105 538 72 376T13 55Q7 8 4 2V1H15Q40 2 59 1T86 0Q94 0 96 1Q106 3 114 38T131
129Q138 169 138 170H180Q255 170 301 168Q313 130 328 71Q340 22 347 2H348Q355 0 371 -2Q383 -4 394 -4Q416 -4 437 0V1Q379 270 280 705Q238 701 199 701ZM177 249T157 249H137L146 299Q165 403 179 471T201 558T221 578Q227 578 236 575Q247 564 303 249Q253
248 189 248Q177 249 157 249Z" />
<glyph unicode="&#xc6;" glyph-name="AE" horiz-adv-x="716" d="M653 79Q598 79 547 82Q533 82 501 83T445 84L444 85Q447 160 447 186L446 227Q445 270 450 310L475 309Q488 309 498 309T513 309Q524 312 559 313V319Q559 372 558 385V386L501 387Q460 387 446
388L445 389V434L446 522Q447 528 447 542Q449 584 449 582Q449 590 449 597T449 615L450 616H453Q476 620 520 620L574 619L620 620Q635 621 664 621Q686 621 698 620L699 695Q694 696 675 697T626 698L402 699L202 701Q176 701 171 700Q137 615 116 530T68 321L51
241L22 74Q10 5 9 2H78L83 3L98 87Q115 176 114 172L341 169L349 140Q361 93 363 83Q371 53 374 38Q379 19 386 0H387Q386 -3 420 -3L494 -1Q600 3 658 3H694L696 78V80L653 79ZM141 211T121 213Q160 407 192 554Q200 590 204 603T210 616T213 615Q215 615 217
616T240 617Q246 617 272 515T340 213L219 211Q141 211 121 213ZM560 313Q559 312 559 313H560Z" />
<glyph unicode="&#xc7;" glyph-name="Ccedilla" horiz-adv-x="476" d="M34 494Q32 384 32 343Q32 289 34 203V198Q36 131 49 86T95 16T190 -8V-9Q188 -23 175 -74Q172 -86 166 -111Q166 -113 167 -113Q172 -114 182 -114Q192 -114 202 -113T223 -112L236 -113V-112Q252
-58 262 -9V-10Q324 -10 369 21T438 103T462 213Q462 247 455 278Q446 280 423 280Q398 280 368 278Q369 266 369 245Q369 175 345 139Q329 114 305 101T252 87Q202 88 175 112T137 187T126 322V354L125 394Q125 497 146 553T224 610Q293 610 323 580T358 511Q360
502 362 471Q366 412 373 412Q401 408 413 408Q425 408 439 411Q446 411 459 414Q464 438 464 472Q464 524 447 569T393 649Q328 709 226 709Q204 709 193 708Q168 706 157 703Q106 697 77 658T41 564Q37 550 34 514V494Z" />
<glyph unicode="&#xc8;" glyph-name="Egrave" horiz-adv-x="481" d="M127 854T177 806T232 749Q245 747 272 747Q316 747 331 752Q308 774 248 834Q202 881 172 910L120 857Q127 854 177 806ZM420 87Q392 87 328 89Q216 94 144 93L143 94Q144 117 144 144T143
185Q142 200 142 228Q142 270 146 293Q151 296 196 298Q222 299 252 299Q270 299 284 300T321 303Q320 316 320 327T321 348Q321 375 319 390V391Q290 393 244 393Q190 393 142 394L141 395Q137 410 137 441Q137 454 139 504Q144 570 142 595L146 596Q187 599 245
599H277H332Q387 599 459 604V614L460 644Q461 653 461 673Q461 688 460 695Q460 698 387 698Q231 698 46 689Q40 593 40 449Q40 377 42 229Q45 118 45 5Q104 0 190 0Q230 0 308 2Q407 4 455 3Q462 33 460 86V88L420 87Z" />
<glyph unicode="&#xc9;" glyph-name="Eacute" horiz-adv-x="481" d="M242 748T214 748Q170 748 155 753Q178 774 234 832Q251 849 276 874T315 911L366 858Q358 854 310 807T255 750Q242 748 214 748ZM420 87Q392 87 328 89Q216 94 144 93L143 94Q144 117 144
144T143 185Q142 200 142 228Q142 270 146 293Q151 296 196 298Q222 299 252 299Q270 299 284 300T321 303Q320 316 320 327T321 348Q321 375 319 390V391Q290 393 244 393Q190 393 142 394L141 395Q137 410 137 441Q137 454 139 504Q144 570 142 595L146 596Q187
599 245 599H277H332Q387 599 459 604V614L460 644Q461 653 461 673Q461 688 460 695Q460 698 387 698Q231 698 46 689Q40 593 40 449Q40 377 42 229Q45 118 45 5Q104 0 190 0Q230 0 308 2Q407 4 455 3Q462 33 460 86V88L420 87Z" />
<glyph unicode="&#xca;" glyph-name="Ecircumflex" horiz-adv-x="481" d="M214 882Q173 844 146 817T90 754L157 751Q167 751 173 752Q188 756 230 806Q249 827 251 828Q261 822 277 801L300 779Q329 750 333 750Q362 749 387 752T413 755L251 916L214 882ZM420
87Q392 87 328 89Q216 94 144 93L143 94Q144 117 144 144T143 185Q142 200 142 228Q142 270 146 293Q151 296 196 298Q222 299 252 299Q270 299 284 300T321 303Q320 316 320 327T321 348Q321 375 319 390V391Q290 393 244 393Q190 393 142 394L141 395Q137 410
137 441Q137 454 139 504Q144 570 142 595L146 596Q187 599 245 599H277H332Q387 599 459 604V614L460 644Q461 653 461 673Q461 688 460 695Q460 698 387 698Q231 698 46 689Q40 593 40 449Q40 377 42 229Q45 118 45 5Q104 0 190 0Q230 0 308 2Q407 4 455 3Q462
33 460 86V88L420 87Z" />
<glyph unicode="&#xcb;" glyph-name="Edieresis" horiz-adv-x="481" d="M192 759V760Q192 773 195 815T198 861Q190 865 164 865Q135 865 118 860Q118 853 117 838T116 799Q116 774 119 759H122L190 758L192 759ZM358 759V760Q358 774 361 815T364 861Q356 865
330 865Q301 865 284 860Q284 853 283 838T282 799Q282 774 285 759H288L356 758L358 759ZM420 87Q392 87 328 89Q216 94 144 93L143 94Q144 117 144 144T143 185Q142 200 142 228Q142 270 146 293Q151 296 196 298Q222 299 252 299Q270 299 284 300T321 303Q320
316 320 327T321 348Q321 375 319 390V391Q290 393 244 393Q190 393 142 394L141 395Q137 410 137 441Q137 454 139 504Q144 570 142 595L146 596Q187 599 245 599H277H332Q387 599 459 604V614L460 644Q461 653 461 673Q461 688 460 695Q460 698 387 698Q231 698
46 689Q40 593 40 449Q40 377 42 229Q45 118 45 5Q104 0 190 0Q230 0 308 2Q407 4 455 3Q462 33 460 86V88L420 87Z" />
<glyph unicode="&#xcc;" glyph-name="Igrave" horiz-adv-x="260" d="M-9 854T41 806T96 749Q109 747 136 747Q180 747 195 752Q172 774 112 834Q66 882 36 910L-16 857Q-9 854 41 806ZM75 706Q66 622 66 534L67 445L70 274Q71 241 71 177Q71 72 67 -4Q79 -2 92
-2L147 -3Q179 -3 187 3Q183 104 183 231Q183 367 186 500Q188 634 188 699V703Q168 704 120 707Q100 709 92 709Q82 709 75 708V706Z" />
<glyph unicode="&#xcd;" glyph-name="Iacute" horiz-adv-x="259" d="M172 748T144 748Q100 748 85 753Q108 774 164 832Q181 849 206 874T245 911L296 858Q288 854 240 807T185 750Q172 748 144 748ZM75 706Q66 622 66 534L67 445L70 274Q71 241 71 177Q71 72
67 -4Q79 -2 92 -2L147 -3Q179 -3 187 3Q183 104 183 231Q183 367 186 500Q188 634 188 699V703Q168 704 120 707Q100 709 92 709Q82 709 75 708V706Z" />
<glyph unicode="&#xce;" glyph-name="Icircumflex" horiz-adv-x="260" d="M105 882Q64 844 37 817T-19 754L48 751Q58 751 64 752Q79 756 121 806Q140 827 142 828Q152 822 168 801L191 779Q220 750 224 750Q253 749 278 752T304 755L142 916L105 882ZM75 706Q66
622 66 534L67 445L70 274Q71 241 71 177Q71 72 67 -4Q79 -2 92 -2L147 -3Q179 -3 187 3Q183 104 183 231Q183 367 186 500Q188 634 188 699V703Q168 704 120 707Q100 709 92 709Q82 709 75 708V706Z" />
<glyph unicode="&#xcf;" glyph-name="Idieresis" horiz-adv-x="260" d="M90 759V760Q90 773 93 815T96 861Q88 865 61 865Q33 865 16 860Q16 853 15 838T14 799Q14 774 17 759H20L88 758L90 759ZM256 759V760Q256 774 259 815T262 861Q254 865 227 865Q199 865
182 860Q182 853 181 838T180 799Q180 774 183 759H186L254 758L256 759ZM75 706Q66 622 66 534L67 445L70 274Q71 241 71 177Q71 72 67 -4Q79 -2 92 -2L147 -3Q179 -3 187 3Q183 104 183 231Q183 367 186 500Q188 634 188 699V703Q168 704 120 707Q100 709 92
709Q82 709 75 708V706Z" />
<glyph unicode="&#xd0;" glyph-name="Eth" horiz-adv-x="482" d="M-3 391V297Q27 295 45 295Q45 124 56 2V3Q84 4 144 2L214 1Q277 1 319 6Q364 42 394 90Q432 153 446 218L447 219Q460 278 460 374V407Q456 450 448 478Q428 566 385 626T273 701Q231 703 207
703Q117 703 47 689Q44 670 44 636L45 577Q46 559 46 529L45 391H22H-3ZM136 103T131 111Q129 141 127 201T124 298L193 297H229L228 328L226 390H143H126Q128 430 128 474Q128 565 123 590Q149 591 179 595Q204 598 221 598Q230 598 233 597Q244 597 270 593Q292
584 314 558T353 487T375 386L376 354Q376 338 374 306Q361 229 344 194T298 127Q279 115 261 111T195 105Q136 103 131 111Z" />
<glyph unicode="&#xd1;" glyph-name="Ntilde" horiz-adv-x="516" d="M125 757T96 757L60 756Q69 786 86 826T120 885Q155 920 201 920Q230 920 255 904Q263 899 271 886T283 867Q297 842 309 828T339 814Q342 814 350 816Q379 825 391 852T402 910L461 912L462
911V910Q464 894 464 886Q464 841 439 801T377 752Q357 748 345 748Q283 748 262 813Q253 836 242 844T215 854Q181 854 161 827T140 755V754Q125 757 96 757ZM456 100Q455 90 455 71Q455 56 457 20V0H372Q360 24 347 50T320 101Q308 124 256 225T160 420Q155 431
150 443T143 457T140 453V424Q140 396 140 323T141 94V68Q141 19 142 0Q125 -4 108 -3Q97 -3 77 -1Q53 1 42 1V71Q42 135 40 253L39 432Q39 591 48 700Q60 702 68 702L85 701Q136 698 136 694Q148 665 163 635T199 565Q248 476 302 360T368 210Q369 250 365 341L363
408Q361 519 359 567L358 621V654V706Q382 709 408 709Q440 707 456 704V382Q457 326 457 211L456 100Z" />
<glyph unicode="&#xd2;" glyph-name="Ograve" horiz-adv-x="485" d="M83 854T132 806T187 749Q200 747 228 747Q272 747 287 752Q254 782 204 834Q154 886 127 910L76 857Q83 854 132 806ZM66 650T49 597T31 484Q28 442 28 400Q28 353 32 261Q34 232 36 170Q39
76 77 36T192 -11Q201 -12 220 -12Q278 -12 330 6T409 60Q442 111 447 195L450 228Q453 267 453 344L455 433Q456 448 456 480Q456 554 437 594Q418 649 365 675T243 702Q167 702 107 673Q66 650 49 597ZM369 314Q368 302 366 262T364 191Q361 134 330 105T227
76Q183 76 158 93Q136 108 126 135T111 205T105 327Q104 474 134 544T244 615Q305 615 332 581T363 517T368 430L369 349V314Z" />
<glyph unicode="&#xd3;" glyph-name="Oacute" horiz-adv-x="485" d="M265 747T237 747Q194 747 179 752Q202 773 258 831Q317 892 338 910L390 857Q382 853 333 806T278 749Q265 747 237 747ZM66 650T49 597T31 484Q28 442 28 400Q28 353 32 261Q34 232 36 170Q39
76 77 36T192 -11Q201 -12 220 -12Q278 -12 330 6T409 60Q442 111 447 195L450 228Q453 267 453 344L455 433Q456 448 456 480Q456 554 437 594Q418 649 365 675T243 702Q167 702 107 673Q66 650 49 597ZM369 314Q368 302 366 262T364 191Q361 134 330 105T227
76Q183 76 158 93Q136 108 126 135T111 205T105 327Q104 474 134 544T244 615Q305 615 332 581T363 517T368 430L369 349V314Z" />
<glyph unicode="&#xd4;" glyph-name="Ocircumflex" horiz-adv-x="484" d="M248 916T218 889Q171 846 144 819T87 754L153 751Q163 751 169 752Q183 756 227 807Q245 827 247 828Q255 824 274 801L296 779Q325 750 330 750Q358 749 383 752T410 755L248 916Q248
916 218 889ZM66 650T49 597T31 484Q28 439 28 393Q28 352 30 303T33 233L36 170Q38 76 76 36T192 -11Q201 -12 219 -12Q277 -12 329 6T409 60Q440 110 447 195L450 228Q452 262 452 287T453 330Q453 398 455 433Q456 448 456 480Q456 554 437 594Q418 649 365
675T243 702Q167 702 107 673Q66 650 49 597ZM369 314Q368 302 366 262T364 191Q361 134 330 105T227 76Q183 76 157 93Q134 109 123 137T109 212T105 344Q105 481 135 548T243 615Q304 615 331 581T361 523T368 430L369 349V314Z" />
<glyph unicode="&#xd5;" glyph-name="Otilde" horiz-adv-x="484" d="M117 788T137 815T193 843Q208 843 219 834T240 803Q260 738 322 738Q340 738 355 742Q392 751 417 791T442 877Q442 886 440 900H439V901Q399 901 379 899Q380 868 368 841T327 805Q319 803
316 803Q299 803 287 817T260 856Q257 861 249 874T232 893Q209 909 179 909Q157 909 136 900T97 874Q80 856 63 815T37 745Q51 746 73 746Q96 746 118 744V745Q117 788 137 815ZM66 650T49 597T31 484Q28 439 28 393Q28 352 30 303T33 233L36 170Q38 76 76 36T192
-11Q201 -12 219 -12Q277 -12 329 6T409 60Q440 110 447 195L450 228Q452 262 452 287T453 330Q453 398 455 433Q456 448 456 480Q456 554 437 594Q418 649 365 675T243 702Q167 702 107 673Q66 650 49 597ZM369 314Q368 302 366 262T364 191Q361 134 330 105T227
76Q183 76 157 93Q134 109 123 137T109 212T105 344Q105 481 135 548T243 615Q304 615 331 581T361 523T368 430L369 349V314Z" />
<glyph unicode="&#xd6;" glyph-name="Odieresis" horiz-adv-x="484" d="M199 759V760Q199 773 202 815T205 861Q197 865 170 865Q142 865 125 860Q125 853 124 838T123 799Q123 774 126 759H129L197 758L199 759ZM365 759V760Q365 773 368 815T371 861Q363 865
336 865Q308 865 291 860Q291 853 290 838T289 799Q289 774 292 759H295L363 758L365 759ZM66 650T49 597T31 484Q28 439 28 393Q28 352 30 303T33 233L36 170Q38 76 76 36T192 -11Q201 -12 219 -12Q277 -12 329 6T409 60Q440 110 447 195L450 228Q452 262 452
287T453 330Q453 398 455 433Q456 448 456 480Q456 554 437 594Q418 649 365 675T243 702Q167 702 107 673Q66 650 49 597ZM369 314Q368 302 366 262T364 191Q361 134 330 105T227 76Q183 76 157 93Q134 109 123 137T109 212T105 344Q105 481 135 548T243 615Q304
615 331 581T361 523T368 430L369 349V314Z" />
<glyph unicode="&#xd7;" glyph-name="multiply" horiz-adv-x="735" d="M41 653T43 569T46 453Q51 311 51 199Q51 115 46 2Q348 -7 525 -7Q636 -7 664 -3T692 6T693 13Q687 134 687 424L688 724L41 726Q41 653 43 569ZM117 440T121 667Q139 634 151 610T173 569Q244
437 284 367Q237 273 117 71Q117 440 121 667ZM261 665L476 662Q497 663 527 663Q519 638 490 594T406 473Q360 410 358 402Q355 410 318 474Q245 592 211 665H261ZM617 582T619 372V294Q619 178 616 80Q604 110 584 143T518 244Q482 295 435 367Q482 442 517 495Q552
548 580 594T617 660Q617 582 619 372ZM530 69T453 68T321 67L260 68Q215 68 201 69Q338 283 358 331L535 70Q530 69 453 68Z" />
<glyph unicode="&#xd8;" glyph-name="Oslash" horiz-adv-x="479" d="M453 244T428 148Q408 77 360 39T238 1Q189 1 162 10Q156 -7 149 -15L147 -18Q139 -20 103 -20Q72 -20 57 -21Q57 -15 64 6T78 45L82 59L74 68Q50 116 41 176T31 313Q29 361 29 386Q29 424 32
460Q36 512 41 542T60 600Q109 703 227 706Q272 706 303 692Q305 696 307 708T314 724Q326 723 351 723Q368 723 383 722T406 717Q404 708 396 685Q395 681 391 670T386 649Q418 615 431 568T447 462Q452 407 451 372Q453 244 428 148ZM264 608T240 614Q183 612
156 581T123 522T113 446Q113 399 110 358V327Q110 220 131 184L234 483Q242 504 275 602Q264 608 240 614ZM212 85T235 85Q266 88 294 104T335 147Q355 182 360 205T367 258Q367 272 368 279Q369 295 369 330Q369 360 368 379Q367 409 359 438T337 505Q319 435
295 366T231 190L195 94Q212 85 235 85Z" />
<glyph unicode="&#xd9;" glyph-name="Ugrave" horiz-adv-x="505" d="M113 854T162 806T217 749Q230 747 258 747Q302 747 317 752Q284 782 234 834Q184 886 157 910L106 857Q113 854 162 806ZM370 647T370 597L371 443Q371 335 363 258T332 127Q320 106 298 96T250
85Q235 85 215 90Q186 99 170 124Q149 179 141 245T133 415Q133 487 136 583L137 623Q137 658 138 677Q119 681 90 681L41 680H40L41 679L42 561Q42 506 40 394Q39 353 39 273Q39 195 40 157Q44 72 107 29T261 -15Q282 -15 293 -14Q362 -7 405 38T457 151Q474 304
474 476Q474 562 469 669Q456 676 432 676Q416 676 371 671Q370 647 370 597Z" />
<glyph unicode="&#xda;" glyph-name="Uacute" horiz-adv-x="505" d="M286 748T258 748Q214 748 199 753Q222 774 278 832Q295 849 320 874T359 911L410 858Q402 854 354 807T299 750Q286 748 258 748ZM416 676T371 671Q370 647 370 597L371 445Q371 336 363 258T332
127Q320 106 298 96T250 85Q198 85 173 127T140 237T133 415V471Q133 578 138 677Q118 681 89 681L41 680H40L41 679L42 561Q42 512 40 414Q38 318 38 272Q38 194 40 157Q44 72 107 28T261 -16Q345 -16 396 29T457 151Q474 291 474 476Q474 562 469 669Q456 676
432 676Q416 676 371 671Z" />
<glyph unicode="&#xdb;" glyph-name="Ucircumflex" horiz-adv-x="505" d="M249 916T219 889Q172 846 145 819T88 754L154 751Q164 751 170 752Q184 756 228 807Q246 827 248 828Q256 824 275 801L297 779Q326 750 331 750Q359 749 384 752T411 755L249 916Q249
916 219 889ZM451 675T429 675Q415 675 397 674T371 671Q370 651 370 610L371 446Q371 326 359 245T311 114Q301 100 284 93T246 85Q232 85 215 90Q186 99 170 124Q149 179 141 245T133 415Q133 487 136 583L137 623Q137 658 138 677Q119 681 90 681L41 680H40L41
679V601Q41 476 40 413Q39 369 39 282Q39 198 40 157Q44 72 107 29T261 -15Q282 -15 293 -14Q362 -7 405 38T457 151Q474 304 474 476Q474 562 469 669Q465 671 460 671Q451 675 429 675Z" />
<glyph unicode="&#xdc;" glyph-name="Udieresis" horiz-adv-x="505" d="M206 759V760Q206 773 209 815T212 861Q204 865 177 865Q149 865 132 860Q132 853 131 838T130 799Q130 774 133 759H136L204 758L206 759ZM372 759V760Q372 773 375 815T378 861Q370 865
343 865Q315 865 298 860Q298 853 297 838T296 799Q296 774 299 759H302L370 758L372 759ZM451 675T429 675Q415 675 397 674T371 671Q370 651 370 610L371 446Q371 326 359 245T311 114Q301 100 284 93T246 85Q232 85 215 90Q186 99 170 124Q149 179 141 245T133
415Q133 487 136 583L137 623Q137 658 138 677Q119 681 90 681L41 680H40L41 679V601Q41 476 40 413Q39 369 39 282Q39 198 40 157Q44 72 107 29T261 -15Q282 -15 293 -14Q362 -7 405 38T457 151Q474 304 474 476Q474 562 469 669Q465 671 460 671Q451 675 429
675Z" />
<glyph unicode="&#xdd;" glyph-name="Yacute" horiz-adv-x="434" d="M250 747T222 747Q179 747 164 752Q187 773 243 831Q302 892 323 910L375 857Q367 853 318 806T263 749Q250 747 222 747ZM430 695T416 694Q378 694 355 690L334 635Q281 495 240 409Q208 461
171 538T105 691Q93 696 74 696Q67 696 53 694Q29 692 16 692Q27 651 46 606T96 499Q102 488 117 456T142 401Q169 353 182 321L173 298Q89 88 56 -1H58H70Q80 -2 89 -2T104 -1Q113 0 130 0Q136 1 145 1Q153 1 156 0Q180 65 208 126T284 291Q342 414 381 506T450
692V693Q430 695 416 694Z" />
<glyph unicode="&#xde;" glyph-name="Thorn" horiz-adv-x="478" d="M257 133T279 133L293 134Q379 137 413 216T450 409Q450 524 404 578T251 633Q208 633 178 615T139 572V639Q139 683 138 691V725Q73 728 42 727Q38 676 38 593V493V293L39 204Q39 119 36 -3Q45
-1 81 -1Q129 -1 136 3Q135 6 135 16L137 90V124Q137 154 135 212Q163 151 224 140Q257 133 279 133ZM365 224T241 224Q186 224 163 270T139 383Q139 465 157 503T230 541Q286 541 313 523T348 482T361 420Q365 399 365 372Q365 224 241 224Z" />
<glyph unicode="&#xdf;" glyph-name="germandbls" horiz-adv-x="470" d="M332 265T341 241T350 193Q350 155 327 129T257 100Q234 98 221 89Q218 64 218 44Q218 17 224 0Q248 -2 261 -2Q431 -2 457 145Q460 163 460 180Q460 223 443 254T389 331Q382 338 382 344Q382
349 384 352Q433 434 433 508Q433 618 365 666T190 715Q116 715 36 693L35 692Q36 646 36 554L35 240Q35 83 38 3Q43 0 83 0H121Q130 -2 130 72Q130 166 127 262Q125 300 125 331L123 390Q120 498 120 515Q120 566 122 602Q140 610 189 610Q307 610 340 533Q348
514 348 495Q348 456 313 415Q285 384 259 345Q273 331 286 315Q316 282 316 282Q332 265 341 241Z" />
<glyph unicode="&#xe0;" glyph-name="agrave" horiz-adv-x="476" d="M131 691T181 643T236 586Q262 584 276 584Q320 584 335 589Q335 589 258 666Q197 729 176 748L124 695Q131 691 181 643ZM341 502T341 500Q341 492 339 472Q337 458 337 449Q323 477 294 487T219
498L187 497Q140 496 102 466T41 383T19 266Q19 207 35 145T84 41T166 -2Q216 -2 268 10T344 55Q344 48 343 38T342 20Q342 1 352 -2Q357 -2 363 -1T377 0L409 -1H426Q435 1 437 9T439 27T439 40Q443 99 443 171L442 283Q440 357 440 395Q440 441 441 464V474Q441
482 439 498L413 500Q377 503 354 502Q341 502 341 500ZM290 409T309 398T335 358T341 256Q341 190 336 157T307 106T233 88Q108 81 103 242Q103 291 111 320Q119 358 154 385T242 412Q290 409 309 398Z" />
<glyph unicode="&#xe1;" glyph-name="aacute" horiz-adv-x="476" d="M261 582T233 582Q190 582 175 587Q187 598 258 669Q302 717 334 745L386 692Q379 688 329 640T274 584Q261 582 233 582ZM341 502T341 500Q341 492 339 472Q337 458 337 449Q323 477 294 487T219
498L187 497Q140 496 102 466T41 383T19 266Q19 207 35 145T84 41T166 -2Q216 -2 268 10T344 55Q344 48 343 38T342 20Q342 1 352 -2Q357 -2 363 -1T377 0L409 -1H426Q435 1 437 9T439 27T439 40Q443 99 443 171L442 283Q440 357 440 395Q440 441 441 464V474Q441
482 439 498L413 500Q377 503 354 502Q341 502 341 500ZM290 409T309 398T335 358T341 256Q341 190 336 157T307 106T233 88Q108 81 103 242Q103 291 111 320Q119 358 154 385T242 412Q290 409 309 398Z" />
<glyph unicode="&#xe2;" glyph-name="acircumflex" horiz-adv-x="476" d="M215 722Q174 684 147 657T91 594L158 591Q168 591 174 592Q189 596 231 646Q250 667 252 668Q262 662 278 641L301 619Q330 590 334 590Q363 589 388 592T414 595L252 756L215 722ZM341
502T341 500Q341 492 339 472Q337 458 337 449Q323 477 294 487T219 498L187 497Q140 496 102 466T41 383T19 266Q19 207 35 145T84 41T166 -2Q216 -2 268 10T344 55Q344 48 343 38T342 20Q342 1 352 -2Q357 -2 363 -1T377 0L409 -1H426Q435 1 437 9T439 27T439
40Q443 99 443 171L442 283Q440 357 440 395Q440 441 441 464V474Q441 482 439 498L413 500Q377 503 354 502Q341 502 341 500ZM290 409T309 398T335 358T341 256Q341 190 336 157T307 106T233 88Q108 81 103 242Q103 291 111 320Q119 358 154 385T242 412Q290
409 309 398Z" />
<glyph unicode="&#xe3;" glyph-name="atilde" horiz-adv-x="476" d="M125 632T144 658T195 689Q214 691 226 682T248 649Q268 583 331 583Q338 583 354 585Q385 590 408 613T441 669T449 734L448 746L447 747Q407 747 388 745Q389 714 377 687T336 651Q328 649
325 649Q308 649 296 663T269 702Q266 707 258 720T241 739Q216 755 187 755Q141 755 106 720Q89 702 72 662T46 591Q59 592 82 592Q106 592 126 590V591Q125 632 144 658ZM341 502T341 500Q341 492 339 472Q337 458 337 449Q323 477 294 487T219 498L187 497Q140
496 102 466T41 383T19 266Q19 207 35 145T84 41T166 -2Q216 -2 268 10T344 55Q344 48 343 38T342 20Q342 1 352 -2Q357 -2 363 -1T377 0L409 -1H426Q435 1 437 9T439 27T439 40Q443 99 443 171L442 283Q440 357 440 395Q440 441 441 464V474Q441 482 439 498L413
500Q377 503 354 502Q341 502 341 500ZM290 409T309 398T335 358T341 256Q341 190 336 157T307 106T233 88Q108 81 103 242Q103 291 111 320Q119 358 154 385T242 412Q290 409 309 398Z" />
<glyph unicode="&#xe4;" glyph-name="adieresis" horiz-adv-x="476" d="M145 715Q145 675 147 629H148Q160 630 185 628L210 627Q221 627 226 628Q234 628 237 632V650Q236 671 237 706T238 747Q223 749 187 749Q158 749 145 748V715ZM316 715Q316 675 318 629H319Q331
630 356 628L381 627Q392 627 397 628Q405 628 408 632V650Q407 671 408 706T409 747Q394 749 358 749Q329 749 316 748V715ZM341 502T341 500Q341 492 339 472Q337 458 337 449Q323 477 294 487T219 498L187 497Q140 496 102 466T41 383T19 266Q19 207 35 145T84
41T166 -2Q216 -2 268 10T344 55Q344 48 343 38T342 20Q342 1 352 -2Q357 -2 363 -1T377 0L409 -1H426Q435 1 437 9T439 27T439 40Q443 99 443 171L442 283Q440 357 440 395Q440 441 441 464V474Q441 482 439 498L413 500Q377 503 354 502Q341 502 341 500ZM290
409T309 398T335 358T341 256Q341 190 336 157T307 106T233 88Q108 81 103 242Q103 291 111 320Q119 358 154 385T242 412Q290 409 309 398Z" />
<glyph unicode="&#xe5;" glyph-name="aring" horiz-adv-x="476" d="M321 740T295 746T240 753Q213 753 192 743T165 712Q158 684 158 655Q158 619 170 595T211 569Q221 568 246 568Q310 568 327 594Q341 630 341 668Q341 694 333 723Q321 740 295 746ZM297 708T297
666Q297 645 292 627Q288 618 279 616T261 613T249 612H239Q216 612 210 626T204 665Q204 691 221 702Q234 708 251 708Q297 708 297 666ZM341 502T341 500Q341 492 339 472Q337 458 337 449Q323 477 294 487T219 498L187 497Q140 496 102 466T41 383T19 266Q19
207 35 145T84 41T166 -2Q216 -2 268 10T344 55Q344 48 343 38T342 20Q342 1 352 -2Q357 -2 363 -1T377 0L409 -1H426Q435 1 437 9T439 27T439 40Q443 99 443 171L442 283Q440 357 440 395Q440 441 441 464V474Q441 482 439 498L413 500Q377 503 354 502Q341 502
341 500ZM290 409T309 398T335 358T341 256Q341 190 336 157T307 106T233 88Q108 81 103 242Q103 291 111 320Q119 358 154 385T242 412Q290 409 309 398Z" />
<glyph unicode="&#xe6;" glyph-name="ae" horiz-adv-x="703" d="M415 246T477 245H520Q582 245 630 248T693 256Q695 284 695 298Q695 467 567 489Q535 497 503 497Q459 497 420 483T357 442Q349 455 332 463Q312 475 284 481T224 488Q175 488 131 474T59 429T31
356Q31 346 32 340Q42 335 65 335Q87 335 122 340Q118 386 149 407T219 429Q258 429 278 408T298 350Q298 329 298 320T297 308V289Q297 272 298 261Q247 290 181 290Q130 290 93 276T37 233Q9 184 9 141Q9 98 33 64T99 11T187 -8Q246 -8 297 21Q315 31 330 43T349
59V60Q373 33 396 19T448 -1L472 -2Q512 -4 533 -4Q580 -4 614 6T668 42Q677 53 681 79T689 162L691 190Q678 193 651 193Q613 193 601 191Q602 125 579 101T515 77Q500 77 492 78Q396 87 396 200L397 233V250Q415 246 477 245ZM626 307Q625 303 619 302T596 301L538
302L457 300Q423 300 412 304T401 324Q401 331 402 335Q409 382 435 407T522 433Q537 433 546 431T573 423Q598 407 611 379T626 321V307ZM83 154T90 175T109 207Q145 234 186 234Q225 234 266 212Q279 204 287 185T296 144Q296 109 273 85T198 60Q176 60 155 64Q118
70 101 89T83 134Q83 154 90 175Z" />
<glyph unicode="&#xe7;" glyph-name="ccedilla" horiz-adv-x="443" d="M347 191Q347 190 346 189T344 168Q343 133 340 114T320 81Q308 69 293 65T251 60Q240 60 202 62Q153 66 135 79T107 127Q97 166 97 236Q97 295 102 332L105 357Q110 393 115 401Q126 419
154 428T219 437Q256 437 283 429Q320 418 336 389T351 287Q365 285 378 285Q403 285 423 289Q420 364 412 408T384 469Q359 491 334 500T273 511Q257 512 219 512Q72 512 45 454Q44 450 37 429T29 395Q23 359 23 323V233L26 170Q29 125 39 91T75 35Q94 16 111
6T153 -9L193 -11Q179 -64 172 -87T150 -143V-144H220Q225 -120 240 -70Q251 -38 257 -11Q266 -12 280 -12Q338 -12 366 9T404 65T419 165Q419 174 421 192Q418 193 410 193Q401 193 390 192T369 191Q356 191 347 194V191Z" />
<glyph unicode="&#xe8;" glyph-name="egrave" d="M108 690T158 642T213 585Q239 583 253 583Q297 583 312 588Q312 588 235 665Q174 728 153 747L101 694Q108 690 158 642ZM122 250T147 250Q185 248 264 248Q301 248 312 249Q405 253 424 259Q426 287 426 302Q426
484 290 507Q255 515 223 515Q162 515 112 491T43 423Q33 397 30 370T24 318T21 284Q16 174 51 89T164 -10Q169 -12 189 -14T234 -16Q287 -16 331 -5T394 34Q413 65 418 99T422 190Q411 189 403 189T388 190Q380 191 364 191Q346 191 325 188Q327 172 327 166Q327
127 304 105T231 82Q109 82 109 206L110 235V253Q122 250 147 250ZM353 317Q353 313 352 312T345 309Q333 308 237 308Q211 307 174 307Q136 307 125 311T113 327Q113 331 115 343Q122 393 149 420T242 447Q259 447 270 445T296 436Q323 419 337 389T353 328V317Z"
/>
<glyph unicode="&#xe9;" glyph-name="eacute" d="M232 584T217 584Q174 584 159 589Q172 601 247 676Q307 738 318 748L370 695Q362 690 312 642T258 586Q232 584 217 584ZM122 250T147 250Q185 248 264 248Q301 248 312 249Q405 253 424 259Q426 287 426 302Q426
484 290 507Q255 515 223 515Q162 515 112 491T43 423Q33 397 30 370T24 318T21 284Q16 174 51 89T164 -10Q169 -12 189 -14T234 -16Q287 -16 331 -5T394 34Q413 65 418 99T422 190Q411 189 403 189T388 190Q380 191 364 191Q346 191 325 188Q327 172 327 166Q327
127 304 105T231 82Q109 82 109 206L110 235V253Q122 250 147 250ZM353 317Q353 313 352 312T345 309Q333 308 237 308Q211 307 174 307Q136 307 125 311T113 327Q113 331 115 343Q122 393 149 420T242 447Q259 447 270 445T296 436Q323 419 337 389T353 328V317Z"
/>
<glyph unicode="&#xea;" glyph-name="ecircumflex" d="M235 757T205 730Q158 687 131 660T74 595L140 592Q150 592 156 593Q170 597 214 648Q232 668 234 669Q242 665 261 642L283 620Q312 591 317 591Q345 590 370 593T397 596L235 757Q235 757 205 730ZM122
250T147 250Q185 248 264 248Q301 248 312 249Q405 253 424 259Q426 287 426 302Q426 484 290 507Q255 515 223 515Q162 515 112 491T43 423Q33 397 30 370T24 318T21 284Q16 174 51 89T164 -10Q169 -12 189 -14T234 -16Q287 -16 331 -5T394 34Q413 65 418 99T422
190Q411 189 403 189T388 190Q380 191 364 191Q346 191 325 188Q327 172 327 166Q327 127 304 105T231 82Q109 82 109 206L110 235V253Q122 250 147 250ZM353 317Q353 313 352 312T345 309Q333 308 237 308Q211 307 174 307Q136 307 125 311T113 327Q113 331 115
343Q122 393 149 420T242 447Q259 447 270 445T296 436Q323 419 337 389T353 328V317Z" />
<glyph unicode="&#xeb;" glyph-name="edieresis" d="M109 757T92 750Q91 742 91 724Q91 690 94 660L95 637Q107 638 132 636L157 635Q169 635 174 636Q182 636 185 640V658L186 755Q178 756 165 756T142 757Q109 757 92 750ZM280 757T263 750Q262 741 262 720Q262
687 265 660L266 636H267Q287 638 306 636Q314 635 328 635Q340 635 345 636Q353 636 356 640V658L357 755Q331 757 313 757Q280 757 263 750ZM122 250T147 250Q185 248 264 248Q301 248 312 249Q405 253 424 259Q426 287 426 302Q426 484 290 507Q255 515 223
515Q162 515 112 491T43 423Q33 397 30 370T24 318T21 284Q16 174 51 89T164 -10Q169 -12 189 -14T234 -16Q287 -16 331 -5T394 34Q413 65 418 99T422 190Q411 189 403 189T388 190Q380 191 364 191Q346 191 325 188Q327 172 327 166Q327 127 304 105T231 82Q109
82 109 206L110 235V253Q122 250 147 250ZM353 317Q353 313 352 312T345 309Q333 308 237 308Q211 307 174 307Q136 307 125 311T113 327Q113 331 115 343Q122 393 149 420T242 447Q259 447 270 445T296 436Q323 419 337 389T353 328V317Z" />
<glyph unicode="&#xec;" glyph-name="igrave" horiz-adv-x="207" d="M-41 692T9 644T63 587Q89 585 104 585Q148 585 163 590Q128 623 85 668Q14 739 3 749L-48 696Q-41 692 9 644ZM63 504Q57 438 57 369Q57 331 59 261V177V87Q59 28 58 -1Q62 0 80 0Q86 0 114
0T156 3Q152 75 152 167Q152 265 155 361Q157 455 157 500V503Q121 503 91 505Q70 506 63 505V504Z" />
<glyph unicode="&#xed;" glyph-name="iacute" horiz-adv-x="207" d="M128 582T113 582Q69 582 54 587Q87 617 137 669Q194 728 214 746L265 693Q257 688 207 640T154 584Q128 582 113 582ZM63 504Q57 438 57 369Q57 331 59 261V177V87Q59 28 58 -1Q62 0 80 0Q86
0 114 0T156 3Q152 75 152 167Q152 265 155 361Q157 455 157 500V503Q121 503 91 505Q70 506 63 505V504Z" />
<glyph unicode="&#xee;" glyph-name="icircumflex" horiz-adv-x="207" d="M68 717Q28 680 2 654T-53 592L14 589Q24 589 30 590Q45 596 89 647Q106 666 108 667Q119 658 134 640L157 617Q186 588 190 588Q219 587 244 590T270 593L108 755L68 717ZM63 504Q57 438
57 369Q57 331 59 261V177V87Q59 28 58 -1Q62 0 80 0Q86 0 114 0T156 3Q152 75 152 167Q152 265 155 361Q157 455 157 500V503Q121 503 91 505Q70 506 63 505V504Z" />
<glyph unicode="&#xef;" glyph-name="idieresis" horiz-adv-x="207" d="M-28 669T-25 636Q-12 637 17 635Q24 635 33 635T54 635Q62 637 64 639V657L65 731L66 755Q34 757 11 757L-28 756Q-28 669 -25 636ZM143 669T146 636Q159 637 188 635Q195 635 204 635T225
635Q233 637 235 639V657L236 731L237 755Q205 757 182 757L143 756Q143 669 146 636ZM63 504Q57 438 57 369Q57 331 59 261V177V87Q59 28 58 -1Q62 0 80 0Q86 0 114 0T156 3Q152 75 152 167Q152 265 155 361Q157 455 157 500V503Q121 503 91 505Q70 506 63 505V504Z"
/>
<glyph unicode="&#xf0;" glyph-name="eth" horiz-adv-x="530" d="M135 829T114 814T73 782T48 758Q72 747 107 727Q111 725 130 714T167 700Q33 604 26 597Q27 595 49 578T80 547L121 575L242 658Q260 643 283 618Q317 575 346 518T387 375Q363 407 342 422T295
442T225 447H170Q80 436 47 376T18 206L19 178Q19 110 53 65T142 -2T264 -24Q289 -24 313 -21Q419 -8 462 65T506 259Q506 309 497 390Q488 453 458 520T392 641T328 719Q338 725 346 730T360 740Q383 755 450 797Q434 814 418 825Q397 842 387 855Q363 841 261
764Q236 772 186 802Q146 825 143 826Q135 829 114 814ZM104 222T104 232Q104 287 130 322T213 357Q255 357 298 339T370 284T400 191Q400 135 364 105T258 75Q207 75 165 100T109 175L106 200Q104 222 104 232Z" />
<glyph unicode="&#xf1;" glyph-name="ntilde" horiz-adv-x="450" d="M105 632T124 658T174 689Q193 691 205 683T228 649Q247 584 309 584Q317 584 333 586Q364 591 387 614T420 669T429 734Q429 737 427 747V748L367 746Q368 715 356 688T315 652Q307 650 304
650Q287 650 275 664T248 703Q245 708 237 721T220 740Q197 756 167 756Q145 756 124 747T85 721Q68 702 51 662T25 592L61 593Q89 593 106 590V591Q105 632 124 658ZM131 500T121 500Q113 500 105 499T91 498Q81 497 65 497Q49 497 37 498Q35 394 35 346Q35 287
37 169L38 -3Q47 -2 63 -2Q71 -2 89 -2T127 1V5Q130 44 130 81Q130 99 128 137Q126 201 126 257Q126 293 127 306Q131 353 163 371T265 390Q311 393 314 358Q323 331 325 296T328 255Q329 227 327 162L326 98V55Q326 15 328 -1H361Q397 -1 416 2Q415 21 415 65Q415
99 417 175Q419 255 419 293Q419 443 395 464Q360 493 305 495Q259 495 213 480T133 444V469Q133 486 131 497Q131 500 121 500Z" />
<glyph unicode="&#xf2;" glyph-name="ograve" horiz-adv-x="448" d="M95 692T145 644T200 587Q213 585 240 585Q284 585 299 590Q276 612 216 672Q170 720 140 748L88 695Q95 692 145 644ZM26 308T26 271V219Q26 157 34 113T72 36T161 -7L207 -8Q243 -10 261 -10Q307
-10 340 0T393 37Q410 54 415 113T425 272Q425 281 423 336T412 425T384 470Q339 514 255 514L215 513Q202 513 195 514Q143 514 101 500T45 456Q31 416 28 389T24 325Q26 308 26 271ZM294 420T318 380T342 274Q342 249 337 179Q337 164 333 138Q325 106 296 92T228
78Q207 78 187 81Q157 87 138 103T115 160L113 202Q113 216 112 241T111 281Q110 320 113 344T130 385Q160 420 228 420Q294 420 318 380Z" />
<glyph unicode="&#xf3;" glyph-name="oacute" horiz-adv-x="448" d="M233 582T218 582Q175 582 160 587Q172 598 248 674Q308 736 319 746L371 693Q363 688 313 640T259 584Q233 582 218 582ZM26 308T26 271V219Q26 157 34 113T72 36T161 -7L207 -8Q243 -10 261
-10Q307 -10 340 0T393 37Q410 54 415 113T425 272Q425 281 423 336T412 425T384 470Q339 514 255 514L215 513Q202 513 195 514Q143 514 101 500T45 456Q31 416 28 389T24 325Q26 308 26 271ZM294 420T318 380T342 274Q342 249 337 179Q337 164 333 138Q325 106
296 92T228 78Q207 78 187 81Q157 87 138 103T115 160L113 202Q113 216 112 241T111 281Q110 320 113 344T130 385Q160 420 228 420Q294 420 318 380Z" />
<glyph unicode="&#xf4;" glyph-name="ocircumflex" horiz-adv-x="448" d="M191 718Q151 681 125 655T70 593L137 590Q147 590 153 591Q168 597 212 648Q229 667 231 668Q242 659 257 641L280 618Q309 589 313 589Q342 588 367 591T393 594L231 756L191 718ZM26
308T26 271V219Q26 157 34 113T72 36T161 -7L207 -8Q243 -10 261 -10Q307 -10 340 0T393 37Q410 54 415 113T425 272Q425 281 423 336T412 425T384 470Q339 514 255 514L215 513Q202 513 195 514Q143 514 101 500T45 456Q31 416 28 389T24 325Q26 308 26 271ZM294
420T318 380T342 274Q342 249 337 179Q337 164 333 138Q325 106 296 92T228 78Q207 78 187 81Q157 87 138 103T115 160L113 202Q113 216 112 241T111 281Q110 320 113 344T130 385Q160 420 228 420Q294 420 318 380Z" />
<glyph unicode="&#xf5;" glyph-name="otilde" horiz-adv-x="448" d="M102 632T121 658T172 689Q191 691 203 683T225 649Q245 584 306 584Q315 584 331 586Q362 591 385 614T418 670T426 734L425 747L424 748L365 746Q366 715 354 688T313 652Q305 650 302 650Q285
650 273 664T246 703Q243 708 235 721T218 740Q193 756 164 756Q118 756 83 721Q66 703 49 663T23 592L59 593Q88 593 103 590V591Q102 632 121 658ZM26 308T26 271V219Q26 157 34 113T72 36T161 -7L207 -8Q243 -10 261 -10Q307 -10 340 0T393 37Q410 54 415 113T425
272Q425 281 423 336T412 425T384 470Q339 514 255 514L215 513Q202 513 195 514Q143 514 101 500T45 456Q31 416 28 389T24 325Q26 308 26 271ZM294 420T318 380T342 274Q342 249 337 179Q337 164 333 138Q325 106 296 92T228 78Q207 78 187 81Q157 87 138 103T115
160L113 202Q113 216 112 241T111 281Q110 320 113 344T130 385Q160 420 228 420Q294 420 318 380Z" />
<glyph unicode="&#xf6;" glyph-name="odieresis" horiz-adv-x="448" d="M89 669T92 637Q104 638 129 636L154 635Q166 635 171 636Q178 636 181 640V658L182 733L183 755Q168 757 132 757Q102 757 89 756Q89 669 92 637ZM260 669T263 637Q275 638 300 636L325
635Q337 635 342 636Q349 636 352 640V658L353 733L354 755Q339 757 303 757Q273 757 260 756Q260 669 263 637ZM26 308T26 271V219Q26 157 34 113T72 36T161 -7L207 -8Q243 -10 261 -10Q307 -10 340 0T393 37Q410 54 415 113T425 272Q425 281 423 336T412 425T384
470Q339 514 255 514L215 513Q202 513 195 514Q143 514 101 500T45 456Q31 416 28 389T24 325Q26 308 26 271ZM294 420T318 380T342 274Q342 249 337 179Q337 164 333 138Q325 106 296 92T228 78Q207 78 187 81Q157 87 138 103T115 160L113 202Q113 216 112 241T111
281Q110 320 113 344T130 385Q160 420 228 420Q294 420 318 380Z" />
<glyph unicode="&#xf7;" glyph-name="divide" horiz-adv-x="466" d="M268 336V342Q268 361 271 406T274 455Q261 460 233 460Q203 460 185 453Q185 441 184 432L183 383Q183 355 186 337H189L266 336H268ZM442 179Q439 200 439 241V272H25L24 237L22 185L438 179H442ZM267
0V6L273 119Q261 124 233 124Q203 124 185 117Q185 105 184 96L183 47Q183 19 186 1H189L265 0H267Z" />
<glyph unicode="&#xf8;" glyph-name="oslash" horiz-adv-x="351" d="M332 160T313 92Q298 44 264 18T180 -8Q144 -8 120 -2L111 -19L110 -21Q103 -23 76 -23H45Q46 -13 63 34L57 41Q39 77 33 118T26 215Q25 231 25 264Q25 305 27 325Q31 364 35 386T52 428Q66
461 97 478T165 495Q180 496 192 494T224 485Q226 490 227 497T231 508Q241 506 262 506Q290 506 297 502Q296 496 291 481T283 454Q325 415 327 321Q331 276 330 257Q332 160 313 92ZM192 427T178 430Q138 429 118 408T93 363T85 310L83 246Q80 151 98 123Q112
165 136 229Q161 296 203 421Q192 427 178 430ZM155 53T173 51Q228 57 248 101T271 191Q272 203 272 230Q272 293 248 352Q233 301 210 237T165 114L144 58Q155 53 173 51Z" />
<glyph unicode="&#xf9;" glyph-name="ugrave" horiz-adv-x="450" d="M94 690T143 642T198 585Q224 583 239 583Q283 583 298 588Q263 621 220 666Q148 738 138 747L87 694Q94 690 143 642ZM326 -3T336 -3Q344 -3 351 -2T364 -1Q391 2 413 2Q415 106 415 154Q415
213 413 331L412 503Q397 502 376 502Q373 502 359 501T328 496V492Q326 442 326 415Q326 400 328 352Q332 257 331 221Q330 166 299 134T208 102Q191 102 171 105Q148 111 137 128T123 178Q120 226 120 262L119 290Q118 308 118 348L119 429Q119 470 116 500H83Q52
500 34 498Q35 481 35 442Q35 404 33 318Q31 258 31 229V198Q32 120 36 85T57 34Q88 4 150 4Q205 4 263 25Q294 32 308 42T324 53Q325 44 325 32T326 0Q326 -3 336 -3Z" />
<glyph unicode="&#xfa;" glyph-name="uacute" horiz-adv-x="449" d="M233 582T218 582Q175 582 160 587Q172 598 248 674Q308 736 319 746L371 693Q363 688 313 640T259 584Q233 582 218 582ZM326 -3T336 -3Q344 -3 351 -2T364 -1Q391 2 413 2Q415 106 415 154Q415
213 413 331L412 503Q397 502 376 502Q373 502 359 501T328 496V492Q326 442 326 415Q326 400 328 352Q332 257 331 221Q330 166 299 134T208 102Q191 102 171 105Q148 111 137 128T123 178Q120 226 120 262L119 290Q118 308 118 348L119 429Q119 470 116 500H83Q52
500 34 498Q35 481 35 442Q35 404 33 318Q31 258 31 229V198Q32 120 36 85T57 34Q88 4 150 4Q205 4 263 25Q294 32 308 42T324 53Q325 44 325 32T326 0Q326 -3 336 -3Z" />
<glyph unicode="&#xfb;" glyph-name="ucircumflex" horiz-adv-x="450" d="M193 723Q152 685 125 658T69 595L136 592Q146 592 152 593Q167 597 209 647Q228 668 230 669Q240 663 256 642L279 620Q308 591 312 591Q341 590 366 593T392 596L230 757L193 723ZM326
-3T336 -3Q344 -3 351 -2T364 -1Q391 2 413 2Q415 106 415 154Q415 213 413 331L412 503Q397 502 376 502Q373 502 359 501T328 496V492Q326 442 326 415Q326 400 328 352Q332 257 331 221Q330 166 299 134T208 102Q191 102 171 105Q148 111 137 128T123 178Q120
226 120 262L119 290Q118 308 118 348L119 429Q119 470 116 500H83Q52 500 34 498Q35 481 35 442Q35 404 33 318Q31 258 31 229V198Q32 120 36 85T57 34Q88 4 150 4Q205 4 263 25Q294 32 308 42T324 53Q325 44 325 32T326 0Q326 -3 336 -3Z" />
<glyph unicode="&#xfc;" glyph-name="udieresis" horiz-adv-x="449" d="M89 723Q89 683 91 637H92Q104 638 129 636L154 635Q165 635 170 636Q178 636 181 640V658Q180 679 181 714T182 755Q167 757 131 757Q102 757 89 756V723ZM260 723Q260 683 262 637H263Q275
638 300 636L325 635Q336 635 341 636Q349 636 352 640V658Q351 679 352 714T353 755Q338 757 302 757Q273 757 260 756V723ZM326 -3T336 -3Q344 -3 351 -2T364 -1Q391 2 413 2Q415 106 415 154Q415 213 413 331L412 503Q397 502 376 502Q373 502 359 501T328 496V492Q326
442 326 415Q326 400 328 352Q332 257 331 221Q330 166 299 134T208 102Q191 102 171 105Q148 111 137 128T123 178Q120 226 120 262L119 290Q118 308 118 348L119 429Q119 470 116 500H83Q52 500 34 498Q35 481 35 442Q35 404 33 318Q31 258 31 229V198Q32 120
36 85T57 34Q88 4 150 4Q205 4 263 25Q294 32 308 42T324 53Q325 44 325 32T326 0Q326 -3 336 -3Z" />
<glyph unicode="&#xfd;" glyph-name="yacute" horiz-adv-x="449" d="M233 582T218 582Q175 582 160 587Q172 598 248 674Q308 736 319 746L371 693Q363 688 313 640T259 584Q233 582 218 582ZM42 356T77 236L148 -15Q150 -25 150 -30Q150 -89 36 -89Q22 -89 -10
-87Q-14 -102 -14 -125Q-14 -156 -6 -177Q6 -178 28 -178Q150 -178 218 -126T314 0T369 195Q383 265 387 278L405 353Q431 463 441 499Q418 500 382 498L343 497Q338 484 327 429T312 362Q284 230 264 150T229 52Q216 76 196 147T139 360L103 497Q89 499 55 499Q20
499 3 500Q42 356 77 236Z" />
<glyph unicode="&#xfe;" glyph-name="thorn" horiz-adv-x="470" d="M252 2T272 2Q303 2 327 11Q390 26 417 102T447 275Q447 390 401 444T248 500Q205 500 175 481T135 438Q136 500 136 581V606Q136 615 136 626T136 649L135 683V713Q69 716 41 715Q36 491 34
154Q34 -41 32 -174Q38 -173 57 -173H98Q130 -173 135 -170Q134 -142 134 -54V-16Q134 19 132 79Q158 18 220 7Q252 2 272 2ZM362 162T331 126T237 90Q182 90 159 136T135 250Q135 331 153 369T226 407Q282 407 310 389T346 348T358 286Q362 265 362 239Q362 162
331 126Z" />
<glyph unicode="&#xff;" glyph-name="ydieresis" horiz-adv-x="449" d="M93 669T96 637Q108 638 133 636L158 635Q170 635 175 636Q182 636 185 640V658L186 733L187 755Q172 757 136 757Q106 757 93 756Q93 669 96 637ZM264 669T267 637Q279 638 304 636L329
635Q341 635 346 636Q353 636 356 640V658L357 733L358 755Q343 757 307 757Q277 757 264 756Q264 669 267 637ZM42 356T77 236L148 -15Q150 -25 150 -30Q150 -89 36 -89Q22 -89 -10 -87Q-14 -102 -14 -125Q-14 -156 -6 -177Q6 -178 28 -178Q150 -178 218 -126T314
0T369 195Q383 265 387 278L405 353Q431 463 441 499Q418 500 382 498L343 497Q338 484 327 429T312 362Q284 230 264 150T229 52Q216 76 196 147T139 360L103 497Q89 499 55 499Q20 499 3 500Q42 356 77 236Z" />
<glyph unicode="&#x2013;" glyph-name="endash" horiz-adv-x="455" d="M416 189L413 317H39L38 272L36 196L413 189H416Z" />
<glyph unicode="&#x2014;" glyph-name="emdash" horiz-adv-x="692" d="M655 189Q651 224 651 281V319H41L39 273L37 196L650 189H655Z" />
<glyph unicode="&#x2018;" glyph-name="quoteleft" horiz-adv-x="207" d="M117 474Q134 527 159 629L179 706Q175 708 156 708Q138 708 128 708T113 709Q101 709 101 708T100 706Q85 662 67 593T33 460Q35 458 49 458Q68 458 82 459T102 461H113L117 474Z" />
<glyph unicode="&#x2019;" glyph-name="quoteright" horiz-adv-x="207" d="M117 474Q134 527 159 629L179 706Q175 708 156 708Q131 708 118 709T103 711T100 706Q60 568 33 460Q35 458 49 458Q68 458 82 459T102 461H113L117 474Z" />
<glyph unicode="&#x201a;" glyph-name="quotesinglbase" horiz-adv-x="196" d="M99 -90T100 -82Q120 -21 149 99L162 150Q141 151 128 151T106 150H90Q85 150 84 150T82 147T81 143Q57 65 17 -96Q19 -98 32 -98Q44 -98 61 -97T86 -95H96Q99 -90 100 -82Z" />
<glyph unicode="&#x201c;" glyph-name="quotedblleft" horiz-adv-x="367" d="M100 701Q85 661 76 626T57 555Q43 495 33 458L62 457Q84 457 93 458Q99 458 105 458T114 458Q125 498 145 573T178 704Q177 708 161 708Q146 709 127 706T102 703H101L100 701ZM258
701Q243 661 234 626T215 555Q201 495 191 458L220 457Q242 457 251 458Q257 458 263 458T272 458Q283 498 303 573T336 704Q335 708 319 708Q304 709 285 706T260 703H259L258 701Z" />
<glyph unicode="&#x201d;" glyph-name="quotedblright" horiz-adv-x="367" d="M117 474Q134 527 159 629L179 706Q175 708 156 708Q131 709 117 709T101 707T97 699Q66 592 33 460Q35 458 49 458Q68 458 82 459T102 461H113L117 474ZM275 474Q292 527 317 629L337
706Q333 708 314 708Q289 709 275 709T259 707T255 699Q224 592 191 460Q193 458 207 458Q226 458 240 459T260 461H271L275 474Z" />
<glyph unicode="&#x201e;" glyph-name="quotedblbase" horiz-adv-x="353" d="M82 145Q67 105 58 70T39 -1Q25 -61 15 -98V-99Q31 -100 61 -99T97 -98Q108 -58 128 17T161 148Q155 151 139 151Q125 151 107 149T84 147H83L82 145ZM240 145Q225 105 216 70T197 -1Q183
-61 173 -98V-99Q189 -100 219 -99T255 -98Q266 -58 286 17T319 148Q310 151 295 151Q283 151 266 149T242 147H241L240 145Z" />
<glyph unicode="&#x2022;" glyph-name="bullet" horiz-adv-x="289" d="M123 209Q130 210 143 210Q171 210 182 215Q195 221 200 237T206 274Q206 283 204 299Q202 315 187 322T152 330Q121 330 108 327T91 312T86 273L85 256Q85 234 92 224Q97 216 105 212T122 209H123Z" />
<glyph unicode="&#x2039;" glyph-name="guilsinglleft" horiz-adv-x="362" d="M154 278T221 351Q256 386 322 458Q322 458 304 476Q280 502 269 508Q102 349 34 262Q65 220 99 186T190 101Q244 54 275 22Q298 41 309 52L317 60L331 75Q282 115 184 213L138 259Q154
278 221 351Z" />
<glyph unicode="&#x203a;" glyph-name="guilsinglright" horiz-adv-x="362" d="M212 281T188 307T150 348Q108 391 47 458Q47 458 65 476Q89 502 100 508Q182 429 237 373T334 262Q301 218 264 181T170 93Q131 59 93 22Q71 41 60 52L52 60L37 75Q86 115 184 213L230
259Q212 281 188 307Z" />
</font>
</defs>
</svg>
