<?xml version="1.0" standalone="no"?>
<!DOCTYPE svg PUBLIC "-//W3C//DTD SVG 1.1//EN" "http://www.w3.org/Graphics/SVG/1.1/DTD/svg11.dtd">
<svg xmlns="http://www.w3.org/2000/svg">
<defs >
<font id="CormorantInfant" horiz-adv-x="535" ><font-face
    font-family="Cormorant Infant Medium"
    units-per-em="1000"
    panose-1="0 0 6 0 0 0 0 0 0 0"
    ascent="924"
    descent="-287"
    alphabetic="0" />
<glyph unicode=" " glyph-name="space" horiz-adv-x="234" />
<glyph unicode="!" glyph-name="exclam" horiz-adv-x="252" d="M71 623T88 626T126 629Q146 629 163 626T180 618Q161 533 152 431T135 189Q135 188 132 187T125 185Q121 185 118 186T114 189Q114 198 112 218Q106 347 98 442T72 618Q71 623 88 626ZM99 -11T86
2T72 38Q72 60 85 72T121 85Q144 85 156 73T169 38Q169 15 157 2T121 -11Q99 -11 86 2Z" />
<glyph unicode="&quot;" glyph-name="quotedbl" horiz-adv-x="289" d="M38 608Q37 619 65 629T113 640Q126 640 125 635L69 366Q67 364 62 363T56 365L38 608ZM183 608Q182 619 210 629T258 640Q271 640 270 635L214 366Q212 364 207 363T201 365L183 608Z" />
<glyph unicode="#" glyph-name="numbersign" horiz-adv-x="526" d="M465 316T466 310T468 296Q468 288 467 282T463 275H393L365 118H428Q430 118 431 112T433 97Q433 89 432 83T428 76H358L330 -80Q330 -83 321 -83Q311 -83 300 -81T290 -75L317 76H171L143 -80Q143
-83 134 -83Q124 -83 113 -81T102 -75L129 76H63Q61 76 60 83T58 98Q58 105 59 111T62 118H136L164 275H98Q96 275 95 282T93 297Q93 304 94 310T97 316H171L201 482Q201 487 221 483T241 474L213 316H359L388 482Q388 487 408 483T428 474L400 316H463Q465 316
466 310ZM324 118L352 275H206L178 118H324Z" />
<glyph unicode="$" glyph-name="dollar" horiz-adv-x="507" d="M445 95T400 48T277 -9V-108Q277 -115 265 -115Q253 -115 253 -108V-12H236Q196 -12 157 -3T89 25Q84 28 82 32T80 44L70 187Q69 191 74 192T81 189Q103 116 145 63T253 7V283L225 300Q178 330 151
351T104 404T85 478Q85 547 134 587T253 635V719Q253 723 256 725T265 727Q270 727 273 725T277 719V636H278Q345 636 399 613Q414 607 414 595L419 470Q419 466 414 465T408 468Q398 517 367 563T277 618V358L294 348Q344 317 373 295T424 239T445 161Q445 95
400 48ZM154 468T179 437T253 373V619Q205 617 180 588T154 513Q154 468 179 437ZM318 12T344 38T370 116Q370 166 346 201T277 267V8Q318 12 344 38Z" />
<glyph unicode="%" glyph-name="percent" horiz-adv-x="574" d="M96 303T60 340T24 433Q24 486 60 523T150 560Q204 560 238 523T273 430Q273 376 238 340T150 303Q96 303 60 340ZM105 -7Q100 -7 90 -1T82 9L452 553L454 554Q459 554 469 547T478 537L107 -6L105
-7ZM187 316T197 343T207 423Q207 547 144 547Q112 547 101 518T90 436Q90 316 157 316Q187 316 197 343ZM373 -5T337 32T301 125Q301 178 337 215T427 253Q481 253 515 215T550 123Q550 68 516 32T427 -5Q373 -5 337 32ZM464 9T474 35T484 116Q484 239 421 239Q390
239 379 210T367 129Q367 73 382 41T434 9Q464 9 474 35Z" />
<glyph unicode="&amp;" glyph-name="ampersand" horiz-adv-x="703" d="M710 11T710 6T706 0H580Q541 0 456 64Q377 -12 258 -12Q194 -12 151 8T86 62T64 135Q64 190 99 231T201 320Q184 344 171 370Q142 431 142 479Q142 525 163 563T224 623T316 646Q369 646
404 622T439 547Q439 509 420 478T372 424T294 367L274 354Q344 244 484 135Q510 187 510 253Q510 296 495 316T436 337Q433 337 433 343T436 349L654 350Q658 350 658 344T654 338Q621 338 605 332T582 313T567 273Q539 178 502 121Q564 76 617 48T706 12Q710
11 710 6ZM211 457T265 368Q312 406 338 444T365 529Q365 573 342 598T282 623Q211 623 211 535Q211 457 265 368ZM389 24T442 75L416 96Q358 141 304 196T210 307Q177 278 159 247T140 177Q140 136 162 101T223 45T313 24Q389 24 442 75Z" />
<glyph unicode="&apos;" glyph-name="quotesingle" horiz-adv-x="143" d="M38 608Q37 619 65 629T113 640Q126 640 125 635L69 366Q67 364 62 363T56 365L38 608Z" />
<glyph unicode="(" glyph-name="parenleft" horiz-adv-x="309" d="M58 446T115 559T274 725Q276 726 278 724T278 719Q207 648 174 545T141 304Q141 166 174 63T278 -111Q280 -112 278 -115T274 -117Q172 -63 115 49T58 304Q58 446 115 559Z" />
<glyph unicode=")" glyph-name="parenright" horiz-adv-x="309" d="M251 162T194 49T35 -117Q33 -118 31 -116T31 -111Q102 -40 135 63T168 304Q168 442 135 545T31 719Q29 720 31 723T35 725Q137 671 194 559T251 304Q251 162 194 49Z" />
<glyph unicode="*" glyph-name="asterisk" horiz-adv-x="448" d="M219 657Q218 668 249 678T300 688Q310 688 308 685L236 529Q235 526 231 526T226 529L219 657ZM79 544Q69 547 69 582Q69 604 72 623T80 638L207 520Q209 519 208 515T204 511L79 544ZM251 503Q249
503 248 507T248 513L368 560Q377 563 392 544T418 504T423 483L251 503ZM141 373T133 373Q121 373 101 380T66 396T55 407L206 491L208 492Q210 492 212 489T214 485L144 377Q141 373 133 373ZM233 481V482Q233 484 236 487T241 488L322 388Q328 381 315 361T285
323T266 312L233 481Z" />
<glyph unicode="+" glyph-name="plus" horiz-adv-x="398" d="M366 211T367 205T369 190Q369 182 368 175T364 168H220V25Q220 23 212 22T195 20Q177 20 177 23V168H34Q32 168 31 175T29 191Q29 198 30 204T33 211H177V354Q177 356 184 357T199 359Q207 359 213
358T220 354V211H364Q366 211 367 205Z" />
<glyph unicode="," glyph-name="comma" horiz-adv-x="222" d="M133 82T151 58T169 -10Q169 -52 151 -87T95 -159Q94 -160 92 -160Q89 -160 87 -157T87 -152Q136 -102 136 -34Q136 -6 126 7Q117 -8 93 -8Q73 -8 62 4T50 37Q50 59 63 70T102 82Q133 82 151 58Z" />
<glyph unicode="-" glyph-name="hyphen" horiz-adv-x="323" d="M30 161T29 169T27 187Q27 207 30 207L291 254Q293 255 294 248T296 232Q296 224 295 217T291 209L32 162Q30 161 29 169Z" />
<glyph unicode="." glyph-name="period" horiz-adv-x="200" d="M79 -11T66 2T52 38Q52 60 65 72T101 85Q124 85 136 73T149 38Q149 15 137 2T101 -11Q79 -11 66 2Z" />
<glyph unicode="/" glyph-name="slash" horiz-adv-x="344" d="M66 -168T46 -162T26 -152L278 730Q280 734 300 728T318 717L67 -164Q66 -168 46 -162Z" />
<glyph unicode="0" glyph-name="zero" horiz-adv-x="501" d="M189 -13T142 27T70 141T44 313Q44 410 70 483T143 597T253 637Q314 637 360 597T431 482T456 310Q456 213 431 140T360 27T251 -13Q189 -13 142 27ZM371 3T371 298Q371 460 337 540T242 621Q186 621
158 543T129 320Q129 167 163 85T263 3Q371 3 371 298Z" />
<glyph unicode="1" glyph-name="one" horiz-adv-x="391" d="M60 0T60 6T62 12Q108 12 130 17T162 37T172 81V474Q172 534 143 534Q120 534 60 491L58 490Q54 490 52 494T53 501L232 632Q236 635 239 635Q241 635 243 633T245 628V81Q245 51 253 37T284 17T355
12Q357 12 357 6T355 0Q317 0 294 1L209 2L124 1Q101 0 62 0Q60 0 60 6Z" />
<glyph unicode="2" glyph-name="two" horiz-adv-x="446" d="M35 0T31 7T30 18L77 76Q154 172 196 230T265 347T292 462Q292 523 262 555T179 587Q130 587 97 560T48 484Q48 483 44 483Q36 483 37 487Q50 557 97 596T216 636Q289 636 330 595T372 486Q372 430 343
372T275 265T176 152Q124 96 106 73Q100 66 110 66Q232 66 285 70T358 88T380 136Q380 138 386 138T392 136L391 11Q391 7 389 4T382 0H40Q35 0 31 7Z" />
<glyph unicode="3" glyph-name="three" horiz-adv-x="435" d="M314 330T352 285T391 175Q391 120 367 78T299 12T200 -12Q106 -12 37 63L36 65Q36 69 40 71T47 71Q71 46 106 33T175 20Q243 20 275 61T308 167Q308 321 134 321Q130 321 130 328T134 335Q218 335
253 370T288 469Q288 530 259 561T180 593Q139 593 102 573T48 514Q48 513 46 513Q43 513 40 515T37 519Q59 573 105 604T213 636Q283 636 324 597T366 497Q366 444 334 400T245 334Q314 330 352 285Z" />
<glyph unicode="4" glyph-name="four" horiz-adv-x="471" d="M422 219T422 198Q422 177 418 177L342 180V81Q342 50 347 36T366 17T411 12Q413 12 413 6T411 0Q384 0 368 1L304 2L228 1Q208 0 174 0Q171 0 171 6T174 12Q219 12 237 16T262 34T268 81V182Q136 184
22 184Q17 184 15 187T15 195L327 630Q329 632 333 632Q336 632 339 631T342 626V216L418 219Q422 219 422 198ZM156 213T268 215V507L68 220Q64 213 73 213Q156 213 268 215Z" />
<glyph unicode="5" glyph-name="five" horiz-adv-x="447" d="M298 377T349 328T400 188Q400 93 345 41T202 -12Q155 -12 118 6T49 63L48 65Q48 69 52 71T58 71Q80 45 112 33T181 20Q250 20 284 63T318 177Q318 254 280 300T166 346Q124 346 80 333Q75 333 72 336T70
345L102 613Q103 620 105 622T115 625Q250 625 294 626T353 633T375 654Q376 656 381 656T385 651L371 570Q369 558 364 555T345 552L138 557Q125 557 122 543L100 360Q158 377 208 377Q298 377 349 328Z" />
<glyph unicode="6" glyph-name="six" horiz-adv-x="492" d="M343 340T377 318T429 258T448 175Q448 122 423 79T353 12T252 -13Q158 -13 108 52T58 227Q58 325 97 417T209 570T379 636Q383 636 384 632T382 626Q304 607 250 549T168 410T140 240Q140 140 174 74T276
7Q322 7 344 44T366 148Q366 224 340 266T265 308Q223 308 190 278Q189 277 187 277Q184 277 182 280T180 286Q201 313 231 326T297 340Q343 340 377 318Z" />
<glyph unicode="7" glyph-name="seven" horiz-adv-x="429" d="M186 9T182 5T169 0H112Q106 0 103 3T102 12L343 550Q348 557 339 557Q190 557 134 553T62 537T35 489Q34 486 30 486Q27 486 25 487T23 491L61 651Q62 654 68 654T73 650Q72 646 72 640Q72 631 81
628T120 625H385Q389 625 392 620T393 612L191 22Q186 9 182 5Z" />
<glyph unicode="8" glyph-name="eight" horiz-adv-x="492" d="M382 317T418 274T454 162Q454 110 427 70T352 9T246 -13Q183 -13 138 10T68 72T44 160Q44 222 83 273T180 355Q141 384 120 416T99 494Q99 540 122 572T182 620T259 636Q324 636 365 600T407 510Q407
467 383 428T316 358Q382 317 418 274ZM205 618T184 595T163 534Q163 496 180 467T225 418T298 369Q336 425 336 498Q336 557 310 587T241 618Q205 618 184 595ZM324 6T354 39T384 131Q384 177 364 211T314 267T234 320L196 344Q126 286 126 183Q126 105 165 56T270
6Q324 6 354 39Z" />
<glyph unicode="9" glyph-name="nine" horiz-adv-x="489" d="M128 286T86 335T44 457Q44 510 69 550T139 613T240 636Q334 636 383 571T433 396Q433 298 394 206T280 54T107 -12Q104 -13 103 -8T105 -1Q185 17 240 75T324 214T352 383Q352 483 317 550T216 617Q169
617 147 581T125 481Q125 403 154 359T234 315Q269 315 302 342Q303 343 305 343Q308 343 310 340T311 334Q291 311 263 299T200 286Q128 286 86 335Z" />
<glyph unicode=":" glyph-name="colon" horiz-adv-x="200" d="M79 270T66 283T52 319Q52 341 65 353T101 366Q124 366 136 354T149 319Q149 296 137 283T101 270Q79 270 66 283ZM79 -11T66 2T52 38Q52 60 65 72T101 85Q124 85 136 73T149 38Q149 15 137 2T101
-11Q79 -11 66 2Z" />
<glyph unicode=";" glyph-name="semicolon" horiz-adv-x="227" d="M81 270T68 283T54 319Q54 341 67 353T103 366Q126 366 138 354T151 319Q151 296 139 283T103 270Q81 270 68 283ZM137 82T155 58T173 -10Q173 -52 155 -87T99 -159Q98 -160 96 -160Q93 -160 91
-157T91 -152Q140 -102 140 -34Q140 -6 130 7Q121 -8 97 -8Q77 -8 66 4T54 37Q54 59 67 70T106 82Q137 82 155 58Z" />
<glyph unicode="&lt;" glyph-name="less" horiz-adv-x="407" d="M377 66T377 43Q377 22 370 25L36 173Q31 176 31 190Q31 205 36 207L370 354Q373 356 375 351T377 336Q377 315 370 311L85 190L370 69Q377 66 377 43Z" />
<glyph unicode="=" glyph-name="equal" horiz-adv-x="468" d="M32 239T31 246T29 261Q29 268 30 274T33 280H434Q436 280 437 274T439 260Q439 252 438 246T434 239H34Q32 239 31 246ZM32 99T31 106T29 121Q29 128 30 134T33 140H434Q436 140 437 134T439 120Q439
112 438 106T434 99H34Q32 99 31 106Z" />
<glyph unicode="&gt;" glyph-name="greater" horiz-adv-x="407" d="M376 204T376 189Q376 175 371 172L37 25Q34 24 32 29T30 43Q30 51 32 59T37 68L322 189L37 310Q34 312 32 320T30 336Q30 345 32 350T37 354L371 206Q376 204 376 189Z" />
<glyph unicode="?" glyph-name="question" horiz-adv-x="332" d="M140 610T133 598T122 565Q119 542 110 528T78 513Q59 513 49 524T39 551Q39 582 75 603T163 625Q224 625 264 594T304 505Q304 474 293 451T268 416T221 372Q188 341 174 312T160 248Q160 231
165 194V193Q165 191 159 190T152 191Q141 217 134 252T126 311Q126 342 137 362T172 407Q197 433 210 456T223 518Q223 559 206 584T161 610Q140 610 133 598ZM127 -11T114 2T100 38Q100 60 113 72T149 85Q172 85 184 73T197 38Q197 15 185 2T149 -11Q127 -11
114 2Z" />
<glyph unicode="@" glyph-name="at" horiz-adv-x="722" d="M408 53T408 113Q408 126 411 141L418 176Q384 119 343 85T265 51Q241 51 227 66T212 113Q212 126 213 133Q221 187 254 239T333 324T418 357Q432 357 445 352T467 335Q475 340 481 347T489 364Q491 366
495 366Q499 366 502 365T507 363L466 139Q463 124 463 110Q463 92 471 83T499 74Q525 74 552 93T596 149T614 236Q614 301 582 355T494 441T368 473Q292 473 236 436T150 336T120 199Q120 119 154 59T251 -35T396 -68Q443 -68 480 -58T562 -20H563Q565 -20 567
-23T568 -28Q479 -100 362 -100Q280 -100 214 -67T110 28T71 174Q71 266 117 339T239 454T401 496Q477 496 535 465T625 381T657 266Q657 210 631 161T562 83T467 53Q408 53 408 113ZM323 98T351 124T403 190T436 272Q438 284 438 289Q438 309 429 321T401 334Q376
334 350 312T304 252T277 172Q274 153 274 137Q274 98 299 98Q323 98 351 124Z" />
<glyph unicode="A" glyph-name="A" horiz-adv-x="706" d="M709 12T709 6T705 0Q686 0 644 2Q604 4 585 4Q562 4 528 2Q494 0 477 0Q473 0 473 6T477 12Q511 12 526 18T541 42Q541 59 526 89L414 321H230L148 132Q134 99 134 77Q134 12 231 12Q236 12 236 6T231
0Q213 0 179 2Q141 4 113 4Q87 4 51 2Q19 0 -1 0Q-5 0 -5 6T-1 12Q27 12 46 23T84 61T125 141L338 632Q339 635 345 635T352 632L593 137Q627 64 651 38T705 12Q709 12 709 6ZM239 344H403L317 524L239 344Z" />
<glyph unicode="B" glyph-name="B" horiz-adv-x="570" d="M421 345T470 298T519 183Q519 130 492 88T417 21T310 -4Q278 -4 240 -1Q226 0 207 1T164 2L94 1Q75 0 43 0Q40 0 40 6T43 12Q78 12 94 17T118 37T125 81V544Q125 574 119 588T96 607T44 613Q42 613 42
619T44 625L94 624Q138 622 164 622Q191 622 223 625Q234 626 249 627T283 628Q369 628 414 593T459 497Q459 449 428 411T341 352Q421 345 470 298ZM240 611T228 606T210 587T204 542V352L248 351Q314 351 347 389T380 489Q380 546 352 578T264 611Q240 611 228
606ZM365 16T399 53T434 159Q434 235 392 281T273 328Q246 329 204 326V81Q204 56 211 43T237 23T294 16Q365 16 399 53Z" />
<glyph unicode="C" glyph-name="C" horiz-adv-x="669" d="M463 636T512 628T590 604Q598 600 600 596T605 580L616 459Q616 456 611 456T605 458Q579 536 520 574T378 613Q305 613 251 580T169 485T140 344Q140 251 176 173T273 50T408 4Q552 4 614 169Q614 172
618 172Q621 172 623 171T626 168L612 47Q610 35 608 32T596 24Q504 -12 408 -12Q287 -12 206 36T87 160T49 317Q49 410 100 482T236 595T417 636Q463 636 512 628Z" />
<glyph unicode="D" glyph-name="D" horiz-adv-x="696" d="M280 -4T241 -1Q226 0 204 1T155 2L85 1Q66 0 33 0Q31 0 31 6T33 12Q69 12 86 17T109 36T115 81V544Q115 574 109 588T87 607T35 613Q32 613 32 619T35 625L85 624Q129 622 155 622Q193 622 232 625Q280
627 296 627Q399 627 479 587T603 478T647 323Q647 226 602 152T479 37T310 -4Q280 -4 241 -1ZM375 14T432 47T522 145T555 301Q555 388 525 458T438 569T306 610Q263 610 240 605T206 586T195 542V92Q195 49 216 32T300 14Q375 14 432 47Z" />
<glyph unicode="E" glyph-name="E" horiz-adv-x="542" d="M482 154T486 154Q489 154 491 153T494 150Q484 78 484 15Q484 7 481 4T469 0H43Q40 0 40 6T43 12Q79 12 95 17T117 36T123 81V544Q123 574 117 588T95 607T43 613Q40 613 40 619T43 625H451Q461 625 461
616L463 490Q463 487 458 487T451 489Q444 544 412 572T328 601H277Q233 601 218 589T203 540V337H313Q364 337 388 354T412 409Q412 411 417 411T423 409L422 325L423 280Q425 248 425 230Q425 228 419 228T413 230Q413 273 389 293T310 314H203V85Q203 49 216
36T271 23H336Q393 23 430 56T482 152Q482 154 486 154Z" />
<glyph unicode="F" glyph-name="F" horiz-adv-x="513" d="M463 490Q463 487 458 487T451 489Q444 544 412 572T328 601H277Q234 601 219 589T203 543V325H295Q349 325 374 343T400 397Q400 399 406 399T412 397L411 313Q411 283 412 268L413 218Q413 216 407 216T401
218Q401 261 375 281T292 302H203V85Q203 53 211 39T244 18T320 12Q322 12 322 6T320 0Q279 0 256 1L162 2L92 1Q73 0 39 0Q37 0 37 6T39 12Q76 12 93 17T117 36T123 81V544Q123 574 117 588T95 607T43 613Q40 613 40 619T43 625H451Q461 625 461 616L463 490Z"
/>
<glyph unicode="G" glyph-name="G" horiz-adv-x="716" d="M297 -12T216 30T92 144T49 305Q49 402 98 477T234 594T429 636Q477 636 522 627T597 603Q605 598 607 594T610 580L623 459Q623 456 618 456T611 458Q585 532 526 572T384 612Q266 612 202 540T138 342Q138
244 176 168T280 48T431 5Q479 5 505 14T543 49T555 126Q555 178 549 198T521 226T446 233Q440 233 440 241Q440 244 441 246T445 249Q525 244 575 244Q622 244 675 247Q677 247 678 245T680 240Q680 233 675 233Q653 234 644 227T633 196T630 116Q630 71 633 52T637
28Q637 22 635 21T625 16Q502 -12 406 -12Q297 -12 216 30Z" />
<glyph unicode="H" glyph-name="H" horiz-adv-x="761" d="M728 12T728 6T725 0Q693 0 674 1L602 2L523 1Q506 0 476 0Q473 0 473 6T476 12Q514 12 532 17T556 36T562 81V314H198V81Q198 51 204 37T228 17T284 12Q286 12 286 6T284 0Q252 0 233 1L156 2L85 1Q66
0 33 0Q31 0 31 6T33 12Q70 12 87 17T111 36T118 81V544Q118 574 112 588T89 607T35 613Q32 613 32 619T35 625L86 624Q128 622 156 622Q188 622 234 624L284 625Q286 625 286 619T284 613Q247 613 229 607T205 587T198 542V337H562V542Q562 572 556 586T532 607T476
613Q473 613 473 619T476 625L523 624Q569 622 602 622Q630 622 674 624L725 625Q728 625 728 619T725 613Q688 613 671 608T648 588T641 544V81Q641 51 647 37T671 17T725 12Q728 12 728 6Z" />
<glyph unicode="I" glyph-name="I" horiz-adv-x="335" d="M208 51T214 37T236 17T289 12Q291 12 291 6T289 0Q257 0 239 1L167 2L97 1Q78 0 45 0Q43 0 43 6T45 12Q81 12 98 17T121 36T127 81V544Q127 574 121 588T98 607T45 613Q43 613 43 619T45 625L97 624Q141
622 167 622Q196 622 240 624L289 625Q291 625 291 619T289 613Q254 613 237 607T214 587T208 542V81Q208 51 214 37Z" />
<glyph unicode="J" glyph-name="J" horiz-adv-x="328" d="M288 625T288 619T286 613Q255 613 241 607T222 587T217 542V-20Q217 -124 168 -183T28 -243Q-7 -243 -28 -230T-49 -195Q-49 -178 -39 -167T-10 -156Q10 -156 20 -165T41 -194Q50 -210 56 -216T74 -223Q105
-223 120 -184T136 -57V544Q136 574 129 588T103 607T42 613Q40 613 40 619T42 625L101 624Q147 622 175 622Q201 622 241 624L286 625Q288 625 288 619Z" />
<glyph unicode="K" glyph-name="K" horiz-adv-x="652" d="M651 12T651 6T648 0H536L505 -1Q491 -1 484 3T467 18T435 59Q426 70 411 90T370 145L225 333L195 304V81Q195 51 201 37T223 17T276 12Q279 12 279 6T276 0Q244 0 226 1L155 2L85 1Q66 0 33 0Q31 0 31
6T33 12Q69 12 86 17T109 36T115 81V544Q115 574 109 588T87 607T35 613Q32 613 32 619T35 625L85 624Q129 622 155 622Q183 622 227 624L276 625Q278 625 278 619T276 613Q241 613 224 607T201 587T195 542V330L400 537Q432 569 432 587Q432 613 373 613Q370 613
370 619T373 625L417 624Q457 622 493 622Q529 622 567 624L607 625Q610 625 610 619T607 613Q564 613 515 593T425 531L281 388L426 199Q497 105 533 67T590 20T648 12Q651 12 651 6Z" />
<glyph unicode="L" glyph-name="L" horiz-adv-x="537" d="M194 85Q194 57 199 45T220 28T267 23H352Q415 23 456 60T512 162Q512 165 517 165T523 161Q514 73 514 15Q514 7 511 4T499 0H33Q31 0 31 6T33 12Q69 12 85 17T108 36T114 81V544Q114 574 108 588T86
607T33 613Q31 613 31 619T33 625L83 624Q127 622 154 622Q181 622 225 624L275 625Q277 625 277 619T275 613Q240 613 223 608T200 588T194 543V85Z" />
<glyph unicode="M" glyph-name="M" horiz-adv-x="842" d="M821 12T821 6T819 0Q787 0 768 1L697 2L630 1Q613 0 583 0Q580 0 580 6T583 12Q627 12 642 22T658 64L657 81L638 521L417 7Q415 3 409 3Q403 3 401 7L152 517L144 115Q143 62 163 37T228 12Q231 12 231
6T228 0Q201 0 186 1L131 2L76 1Q62 0 35 0Q33 0 33 6T35 12Q118 12 119 115L128 563Q96 613 42 613Q40 613 40 619T42 625L82 624Q94 623 113 623Q135 623 149 624T171 625Q184 625 192 616T217 573L439 122L648 600Q658 625 678 625Q684 625 694 624T720 623L771
624Q783 625 806 625Q809 625 809 619T806 613Q757 613 736 597T715 541L737 81Q739 50 745 36T767 17T819 12Q821 12 821 6Z" />
<glyph unicode="N" glyph-name="N" horiz-adv-x="730" d="M713 625T713 619T710 613Q628 613 628 509V-13Q628 -15 624 -16T617 -15L148 541V115Q148 62 167 37T227 12Q230 12 230 6T227 0Q201 0 187 1L136 2L82 1Q67 0 38 0Q36 0 36 6T38 12Q81 12 101 37T122
115V569Q78 613 35 613Q32 613 32 619T35 625L74 624Q86 623 108 623L160 624Q169 625 183 625Q191 625 194 622T206 606Q215 592 231 573L603 124V509Q603 562 584 587T525 613Q523 613 523 619T525 625L565 624Q595 622 616 622Q634 622 668 624L710 625Q713
625 713 619Z" />
<glyph unicode="O" glyph-name="O" horiz-adv-x="766" d="M273 -12T201 31T89 149T49 312Q49 415 101 488T234 599T401 636Q496 636 568 592T678 474T717 319Q717 228 669 152T541 32T366 -12Q273 -12 201 31ZM465 10T516 43T596 139T626 291Q626 384 594 457T501
571T360 612Q256 612 198 542T140 347Q140 252 173 175T265 54T401 10Q465 10 516 43Z" />
<glyph unicode="P" glyph-name="P" horiz-adv-x="546" d="M200 53T208 39T238 18T311 12Q314 12 314 6T311 0Q270 0 247 1L160 2L91 1Q72 0 39 0Q37 0 37 6T39 12Q75 12 91 17T114 36T120 81V544Q120 574 114 588T92 607T39 613Q37 613 37 619T39 625L91 624Q133
622 159 622Q183 622 216 625Q228 625 253 626T298 628Q392 628 449 587T506 461Q506 396 474 351T391 284T286 262Q257 262 238 267Q235 267 235 272Q235 275 236 278T240 280Q256 276 276 276Q335 276 376 319T417 443Q417 522 377 566T271 611Q241 611 227 607T206
588T200 542V85Q200 53 208 39Z" />
<glyph unicode="Q" glyph-name="Q" horiz-adv-x="766" d="M746 -167Q748 -167 749 -171T749 -177Q701 -189 665 -189Q594 -189 515 -142T380 -12H366Q273 -12 201 31T89 149T49 312Q49 415 101 488T234 599T401 636Q496 636 568 592T678 474T717 319Q717 246 686
182T599 72T475 4Q516 -72 582 -120T709 -169Q727 -169 745 -167H746ZM140 252T173 175T265 54T401 10Q465 10 516 43T596 139T626 291Q626 384 594 457T501 571T360 612Q256 612 198 542T140 347Q140 252 173 175Z" />
<glyph unicode="R" glyph-name="R" horiz-adv-x="681" d="M693 12T693 6T691 0H546Q522 0 456 85T297 320Q274 315 253 315Q234 315 204 317V81Q204 51 210 37T232 17T285 12Q288 12 288 6T285 0Q254 0 236 1L164 2L94 1Q75 0 43 0Q40 0 40 6T43 12Q79 12 96 17T119
36T125 81V544Q125 574 119 588T97 607T44 613Q42 613 42 619T44 625L94 624Q138 622 164 622Q182 622 198 623T226 625Q259 628 288 628Q373 628 419 595T465 502Q465 455 437 413T364 345Q448 218 504 147T605 44T691 12Q693 12 693 6ZM242 339T263 339Q327 339
354 367T382 466Q382 545 352 578T269 611Q243 611 230 606T210 587T204 542V343Q242 339 263 339Z" />
<glyph unicode="S" glyph-name="S" horiz-adv-x="499" d="M154 475T173 447T219 398T294 348Q344 317 373 295T424 239T445 161Q445 112 420 73T347 11T236 -12Q196 -12 157 -3T89 25Q84 28 82 32T80 44L70 187Q69 191 74 192T81 189Q105 113 148 60T260 7Q307
7 338 32T370 116Q370 160 350 193T302 248T225 300Q178 330 151 351T104 404T85 478Q85 529 112 565T184 618T278 636Q345 636 399 613Q414 607 414 595L419 470Q419 466 414 465T408 468Q397 522 361 570T259 619Q209 619 182 589T154 513Q154 475 173 447Z"
/>
<glyph unicode="T" glyph-name="T" horiz-adv-x="637" d="M137 605T102 571T50 460Q49 458 44 458T38 460Q42 489 47 552T52 647Q52 652 58 652T64 647Q64 625 119 625Q204 622 320 622Q379 622 445 624L513 625Q550 625 567 630T589 650Q590 654 595 654T601
650Q598 622 595 560T591 460Q591 458 586 458T580 460Q573 537 540 571T442 605Q405 605 389 601T367 584T361 542V81Q361 50 367 36T393 17T454 12Q456 12 456 6T454 0Q419 0 399 1L320 2L243 1Q223 0 187 0Q184 0 184 6T187 12Q228 12 247 17T273 36T280 81V544Q280
572 274 584T252 601T199 605Q137 605 102 571Z" />
<glyph unicode="U" glyph-name="U" horiz-adv-x="761" d="M729 12T729 6T726 0L644 1L586 0Q574 0 571 3T567 19V93Q508 38 452 13T329 -12Q265 -12 214 12T134 81T104 186V544Q104 574 98 588T76 607T23 613Q20 613 20 619T23 625L73 624Q117 622 143 622Q172
622 216 624L264 625Q267 625 267 619T264 613Q229 613 212 607T189 587T183 542V221Q183 123 231 72T361 20Q415 20 463 42T567 116V542Q567 572 561 586T539 607T486 613Q484 613 484 619T486 625L536 624Q580 622 606 622Q633 622 675 624L726 625Q729 625 729
619T726 613Q690 613 673 608T650 588T644 544V81Q644 51 650 37T673 17T726 12Q729 12 729 6Z" />
<glyph unicode="V" glyph-name="V" horiz-adv-x="664" d="M671 625T671 619T668 613Q596 613 560 522L356 1Q355 -3 345 -3Q335 -3 334 1L83 542Q65 580 47 596T1 613Q-2 613 -2 619T1 625L32 624Q58 622 81 622Q136 622 186 624Q202 625 227 625Q230 625 230
619T227 613Q165 613 165 574Q165 560 174 539L372 109L536 526Q544 548 544 564Q544 613 468 613Q465 613 465 619T468 625L513 624Q549 622 579 622Q600 622 626 624L668 625Q671 625 671 619Z" />
<glyph unicode="W" glyph-name="W" horiz-adv-x="915" d="M922 625T922 619T919 613Q883 613 854 591T811 522L661 1Q661 -3 650 -3Q640 -3 639 1L447 500L295 1Q295 -3 284 -3Q275 -3 272 1L83 542Q69 583 51 598T1 613Q-2 613 -2 619T1 625L32 624Q58 622 81
622Q138 622 192 624Q208 625 232 625Q235 625 235 619T232 613Q163 613 163 569Q163 557 169 539L310 135L460 625Q462 628 472 628Q482 628 483 625L673 130L785 522Q790 542 790 554Q790 613 701 613Q699 613 699 619T701 625L754 624Q798 622 831 622Q850 622
878 624L919 625Q922 625 922 619Z" />
<glyph unicode="X" glyph-name="X" horiz-adv-x="650" d="M640 12T640 6T638 0Q611 0 595 1L539 2L461 1Q442 0 410 0Q408 0 408 6T410 12Q433 12 444 16T455 29Q455 38 446 51L299 276L185 114Q157 76 157 49Q157 12 213 12Q216 12 216 6T213 0Q182 0 166 1L96
2L51 1Q39 0 13 0Q10 0 10 6T13 12Q46 12 83 38T160 117L289 292L128 538Q101 579 76 596T18 613Q16 613 16 619T18 625L58 624Q84 622 97 622Q131 622 181 624L234 625Q237 625 237 619T234 613Q211 613 200 609T189 595Q189 587 198 573L340 356L446 506Q477
551 477 576Q477 613 422 613Q419 613 419 619T422 625L468 624Q508 622 539 622Q557 622 583 624L621 625Q624 625 624 619T621 613Q588 613 549 585T471 502L351 339L519 83Q545 44 572 28T638 12Q640 12 640 6Z" />
<glyph unicode="Y" glyph-name="Y" horiz-adv-x="612" d="M619 625T619 619T617 613Q583 613 544 583T473 502L349 307V81Q349 50 354 36T376 17T429 12Q432 12 432 6T429 0Q398 0 380 1L308 2L238 1Q220 0 187 0Q184 0 184 6T187 12Q223 12 240 17T263 36T269
81V290L110 527Q78 575 54 594T1 613Q-2 613 -2 619T1 625Q12 625 36 623L69 622Q102 622 160 624L218 625Q220 625 220 619T218 613Q171 613 171 589Q171 578 182 561L336 331L448 508Q472 547 472 572Q472 592 458 602T417 613Q414 613 414 619T417 625L466 624Q506
622 539 622Q556 622 580 624L617 625Q619 625 619 619Z" />
<glyph unicode="Z" glyph-name="Z" horiz-adv-x="598" d="M438 600Q441 605 441 606T433 608Q276 608 212 602T119 572T66 491Q64 489 62 489Q59 489 56 490T54 493L94 655Q94 656 98 656Q108 656 106 653Q105 650 105 645Q105 633 116 629T163 625H528Q533 625
535 620T535 612L159 27Q155 22 156 21T163 19H401Q464 19 503 50T553 141Q554 143 559 143T564 141L550 8Q550 5 548 2T541 -2Q392 0 62 0Q58 0 56 4T57 13L438 600Z" />
<glyph unicode="[" glyph-name="bracketleft" horiz-adv-x="274" d="M82 715Q82 722 83 723T91 725H236Q239 725 239 719T236 713Q200 713 183 707T159 687T153 642V-34Q153 -64 159 -78T182 -99T236 -105Q239 -105 239 -111T236 -117H91Q85 -117 84 -115T82 -106V715Z" />
<glyph unicode="\" glyph-name="backslash" horiz-adv-x="344" d="M26 717Q24 722 44 728T66 730L318 -152Q320 -156 300 -162T277 -164L26 717Z" />
<glyph unicode="]" glyph-name="bracketright" horiz-adv-x="274" d="M192 -113T191 -115T183 -117H38Q35 -117 35 -111T38 -105Q74 -105 91 -99T115 -79T121 -34V642Q121 672 115 686T92 707T38 713Q35 713 35 719T38 725H183Q189 725 190 724T192 715V-106Q192
-113 191 -115Z" />
<glyph unicode="^" glyph-name="asciicircum" horiz-adv-x="392" d="M333 379Q333 377 329 375T324 375L196 535L68 375Q67 374 65 374Q63 374 60 376T58 380L185 629Q186 634 196 634Q206 634 207 629L333 380V379Z" />
<glyph unicode="_" glyph-name="underscore" horiz-adv-x="398" d="M32 -78T31 -71T29 -55Q29 -48 30 -42T33 -35H364Q366 -35 367 -42T369 -57Q369 -65 368 -71T364 -78H34Q32 -78 31 -71Z" />
<glyph unicode="`" glyph-name="grave" horiz-adv-x="213" d="M35 731T46 731Q62 731 85 726T109 716L154 476Q155 474 150 473T144 474L36 727Q35 731 46 731Z" />
<glyph unicode="a" glyph-name="a" horiz-adv-x="490" d="M484 61Q487 61 488 56T487 50L364 -10Q362 -11 359 -11Q351 -11 343 11T332 67Q297 31 261 10T181 -11Q119 -11 77 34T35 162Q35 234 68 288T154 370T262 399Q315 399 359 370Q379 380 390 396Q391 397
393 397Q395 397 397 396T400 393V107Q400 75 407 61T433 47Q446 47 482 60L484 61ZM273 29T332 84V292Q332 329 304 354T237 379Q181 379 147 327T113 193Q113 118 141 74T220 29Q273 29 332 84Z" />
<glyph unicode="b" glyph-name="b" horiz-adv-x="512" d="M358 399T395 378T454 316T476 214Q476 141 445 90T364 13T258 -13Q181 -13 120 32L39 -5H37Q33 -5 33 -2T35 4Q64 24 77 45T90 103V594Q90 630 83 646T58 662Q44 662 15 649H13Q10 649 9 654T10 660L142
724L147 725Q150 725 154 722T158 715V319Q192 355 230 377T314 399Q358 399 395 378ZM340 6T369 51T399 178Q399 267 366 313T276 360Q222 360 158 302V142Q158 95 179 65T229 20T287 6Q340 6 369 51Z" />
<glyph unicode="c" glyph-name="c" horiz-adv-x="415" d="M167 -12T123 16T57 90T35 185Q35 249 68 296T153 369T259 395Q304 395 341 377T378 330Q378 315 367 304T337 293Q304 293 287 332Q276 355 263 365T224 375Q172 375 143 332T113 216Q113 133 153 80T276
27Q331 27 376 58H378Q381 58 383 55T383 50Q348 18 312 3T232 -12Q167 -12 123 16Z" />
<glyph unicode="d" glyph-name="d" horiz-adv-x="512" d="M506 60Q509 60 511 55T510 48L391 -9Q385 -11 384 -11Q372 -11 363 10T353 68Q317 31 278 9T191 -13Q149 -13 113 10T56 78T35 179Q35 252 70 301T157 375T263 399Q309 399 353 378V594Q353 631 346 646T321
662Q308 662 278 648H277Q273 648 271 653T272 660L405 724Q407 725 410 725Q413 725 417 722T422 715V112Q422 77 429 62T455 46Q478 46 504 59L506 60ZM269 27T297 42T353 86V315Q332 345 305 361T240 377Q180 377 146 335T112 210Q112 126 146 77T235 27Q269
27 297 42Z" />
<glyph unicode="e" glyph-name="e" horiz-adv-x="411" d="M371 59Q374 59 376 56T377 49Q342 17 306 3T227 -12Q167 -12 124 14T58 85T35 180Q35 239 63 288T142 366T254 395Q310 395 341 369T372 296Q372 271 361 271H313L116 269Q112 249 112 220Q112 134 153
81T268 28Q326 28 370 59H371ZM182 375T156 352T119 285L291 289Q290 329 271 352T219 375Q182 375 156 352Z" />
<glyph unicode="f" glyph-name="f" horiz-adv-x="305" d="M372 726T404 711T436 671Q436 653 424 644T396 634Q380 634 371 641T351 665Q338 686 323 696T283 707Q229 707 197 641T165 439V375Q228 378 288 385Q291 385 293 378T295 362Q295 354 292 345T285 337Q229
350 165 352V81Q165 50 171 36T198 17T261 12Q264 12 264 6T261 0L194 1Q173 2 130 2L72 1Q57 0 30 0Q27 0 27 6T30 12Q59 12 72 17T91 36T96 81V306Q96 330 91 341T72 355T26 359Q23 359 23 366T26 373Q65 373 79 382T95 418Q100 581 155 653T319 726Q372 726
404 711Z" />
<glyph unicode="g" glyph-name="g" horiz-adv-x="467" d="M391 397T393 397Q395 397 397 396T400 393V-70Q400 -165 346 -223T196 -281Q134 -281 95 -261T56 -206Q56 -186 67 -177T93 -167Q111 -167 122 -176T145 -206Q163 -233 181 -246T235 -260Q280 -260 306
-225T332 -94V67Q297 31 261 10T181 -11Q119 -11 77 34T35 162Q35 234 68 288T154 370T262 399Q315 399 359 370Q379 380 390 396Q391 397 393 397ZM273 29T332 84V292Q332 329 304 354T237 379Q181 379 147 327T113 193Q113 118 141 74T220 29Q273 29 332 84Z"
/>
<glyph unicode="h" glyph-name="h" horiz-adv-x="502" d="M485 12T485 6T482 0Q457 0 443 1L388 2L331 1Q317 0 293 0Q291 0 291 6T293 12Q330 12 341 25T353 81V235Q353 293 332 320T265 348Q236 348 206 334T152 294V81Q152 39 164 26T213 12Q216 12 216 6T213
0Q188 0 174 1L119 2L62 1Q48 0 24 0Q22 0 22 6T24 12Q61 12 72 25T84 81V595Q84 631 78 646T54 662Q36 662 10 649H8Q5 649 3 654T4 660L138 725H141Q145 725 148 722T152 715V313Q225 397 306 397Q361 397 391 365T421 274V81Q421 39 433 26T482 12Q485 12 485
6Z" />
<glyph unicode="i" glyph-name="i" horiz-adv-x="270" d="M114 506T101 519T87 555Q87 577 100 589T137 602Q159 602 171 590T184 555Q184 532 172 519T137 506Q114 506 101 519ZM46 0T46 6T49 12Q85 12 97 25T109 81V265Q109 301 102 316T77 332Q60 332 34 319H33Q29
319 27 324T29 331L165 394L169 395Q172 395 175 392T179 385Q179 378 178 345T177 267V81Q177 39 188 26T237 12Q240 12 240 6T237 0Q213 0 198 1L143 2L88 1Q73 0 49 0Q46 0 46 6Z" />
<glyph unicode="j" glyph-name="j" horiz-adv-x="259" d="M107 506T94 519T80 555Q80 577 93 589T130 602Q152 602 164 590T177 555Q177 532 165 519T130 506Q107 506 94 519ZM173 378T172 345T171 267V-48Q171 -116 157 -159T110 -232T19 -282Q17 -283 15 -278T14
-271Q63 -250 83 -204T103 -71V265Q103 301 96 316T72 332Q56 332 29 319H28Q24 319 22 324T23 331L160 394L163 395Q167 395 170 392T173 385Q173 378 172 345Z" />
<glyph unicode="k" glyph-name="k" horiz-adv-x="491" d="M490 12T490 6T488 0Q463 0 449 1L393 2L320 1Q304 0 276 0Q273 0 273 6T276 12Q321 12 321 32Q321 41 312 53L193 214L152 180V81Q152 39 164 26T213 12Q216 12 216 6T213 0Q188 0 174 1L119 2L62 1Q48
0 24 0Q22 0 22 6T24 12Q61 12 72 25T84 81V595Q84 631 78 646T54 662Q36 662 10 649H8Q5 649 3 654T4 660L136 724L141 725Q145 725 148 722T152 715V198L273 302Q303 328 303 347Q303 359 290 366T252 374Q250 374 250 380T252 386Q280 386 296 385L370 384L438
385Q452 386 476 386Q478 386 478 380T476 374Q437 374 389 355T295 298L244 256L374 81Q425 12 488 12Q490 12 490 6Z" />
<glyph unicode="l" glyph-name="l" horiz-adv-x="261" d="M36 0T36 6T38 12Q75 12 86 25T98 81L99 595Q99 631 92 646T68 662Q51 662 25 649H23Q20 649 18 654T19 660L153 724L157 725Q161 725 165 722T169 715V81Q169 39 180 26T228 12Q232 12 232 6T228 0Q205
0 191 1L133 2L77 1Q63 0 38 0Q36 0 36 6Z" />
<glyph unicode="m" glyph-name="m" horiz-adv-x="768" d="M751 12T751 6T748 0Q723 0 709 1L653 2L598 1Q583 0 559 0Q557 0 557 6T559 12Q596 12 608 25T620 81V235Q620 293 600 320T537 348Q508 348 479 333T428 292V279V81Q428 39 439 26T488 12Q491 12 491
6T488 0Q464 0 449 1L394 2L339 1Q324 0 300 0Q297 0 297 6T300 12Q336 12 348 25T360 81V235Q360 293 340 320T278 348Q250 348 222 334T171 295V81Q171 39 182 26T231 12Q234 12 234 6T231 0Q207 0 192 1L137 2L81 1Q67 0 43 0Q40 0 40 6T43 12Q79 12 90 25T102
81V276Q102 309 95 323T69 338Q50 338 16 324H14Q11 324 10 329T11 335L135 394Q137 395 141 395Q151 395 160 373T171 314Q240 397 318 397Q363 397 391 375T426 309Q499 397 578 397Q631 397 659 366T688 274V81Q688 52 692 38T709 18T748 12Q751 12 751 6Z"
/>
<glyph unicode="n" glyph-name="n" horiz-adv-x="520" d="M503 12T503 6T500 0Q476 0 461 1L406 2L351 1Q336 0 312 0Q309 0 309 6T312 12Q348 12 359 25T371 81V237Q371 295 350 322T283 349Q255 349 225 335T171 296V81Q171 39 182 26T231 12Q234 12 234 6T231
0Q207 0 192 1L137 2L81 1Q67 0 43 0Q40 0 40 6T43 12Q79 12 90 25T102 81V276Q102 309 95 323T69 338Q50 338 16 324H14Q11 324 10 329T11 335L135 394Q137 395 141 395Q151 395 160 373T171 314Q244 399 324 399Q379 399 409 367T440 276V81Q440 39 451 26T500
12Q503 12 503 6Z" />
<glyph unicode="o" glyph-name="o" horiz-adv-x="482" d="M174 -13T129 15T60 92T35 198Q35 263 67 308T149 376T251 399Q310 399 355 370T424 294T448 193Q448 132 419 85T340 13T233 -13Q174 -13 129 15ZM312 6T339 45T366 162Q366 227 347 276T293 352T217
379Q168 379 142 342T115 231Q115 168 134 117T186 36T262 6Q312 6 339 45Z" />
<glyph unicode="p" glyph-name="p" horiz-adv-x="511" d="M362 399T397 377T454 313T475 215Q475 138 442 87T358 11T258 -13Q229 -13 207 -9T159 7V-194Q159 -224 166 -238T193 -257T255 -263Q258 -263 258 -269T255 -275Q220 -275 200 -274L125 -273L69 -274Q55
-275 30 -275Q27 -275 27 -269T30 -263Q56 -263 69 -258T86 -238T91 -194V274Q91 308 83 323T56 339Q37 339 5 324H4Q0 324 -2 329T-1 335L120 393L126 395Q138 395 147 375T159 320Q238 399 320 399Q362 399 397 377ZM337 9T368 54T399 184Q399 266 363 310T271
355Q239 355 213 341T159 301V68Q185 39 214 24T285 9Q337 9 368 54Z" />
<glyph unicode="q" glyph-name="q" horiz-adv-x="492" d="M481 -263T481 -269T479 -275Q453 -275 439 -274L383 -273L319 -274Q302 -275 271 -275Q269 -275 269 -269T271 -263Q305 -263 321 -258T344 -238T350 -194V67Q315 31 278 9T194 -13Q151 -13 115 8T57
72T35 172Q35 248 67 299T149 374T254 399Q325 399 390 362L462 388L464 389Q467 389 468 385T466 379Q441 365 429 346T417 295V-194Q417 -224 421 -238T439 -257T479 -263Q481 -263 481 -269ZM286 26T350 84V267Q350 320 314 349T227 379Q113 379 113 207Q113
120 145 73T232 26Q286 26 350 84Z" />
<glyph unicode="r" glyph-name="r" horiz-adv-x="369" d="M306 395T326 382T346 349Q346 334 336 324T309 313Q299 313 292 316T280 324T273 330Q265 338 258 342T239 347Q227 347 213 338T171 296V81Q171 52 178 38T206 18T266 12Q269 12 269 6T266 0Q233 0 213
1L137 2L81 1Q67 0 43 0Q40 0 40 6T43 12Q79 12 90 25T102 81V276Q102 309 95 323T69 338Q50 338 16 324H14Q11 324 10 329T11 335L135 394Q137 395 141 395Q151 395 160 373T171 315Q212 361 236 378T283 395Q306 395 326 382Z" />
<glyph unicode="s" glyph-name="s" horiz-adv-x="338" d="M106 296T128 275T193 232Q229 213 248 200T282 165T296 113Q296 62 258 26T152 -11Q100 -11 54 18Q48 24 48 30L46 115Q46 118 51 118T58 116Q76 66 108 37T181 8Q209 8 224 22T240 63Q240 91 228 110T199
141T151 169Q118 185 99 198T66 232T52 285Q52 341 93 369T191 398Q230 398 267 383Q276 380 276 372Q276 350 275 338L274 293Q274 291 268 291T262 293Q262 313 246 333T206 365T156 378Q133 378 120 367T106 329Q106 296 128 275Z" />
<glyph unicode="t" glyph-name="t" horiz-adv-x="338" d="M315 58Q319 58 321 54T320 47Q283 16 252 2T187 -12Q145 -12 117 7T88 73V304Q88 339 79 349T36 359Q33 359 33 367Q33 374 36 374Q80 375 107 395T142 452Q143 455 150 455T157 452V375Q206 376 293
385Q296 385 298 378T300 362Q300 353 297 345T290 337Q227 350 157 352V107Q157 67 177 48T234 28Q278 28 313 57L315 58Z" />
<glyph unicode="u" glyph-name="u" horiz-adv-x="497" d="M490 60Q494 60 496 56T495 49L371 -10Q369 -11 366 -11Q357 -11 348 12T339 74Q265 -9 185 -9Q134 -9 105 23T75 114V265Q75 303 68 319T45 336Q31 336 14 328H12Q9 328 8 333T9 339L127 394L131 395Q135
395 139 392T143 385V152Q143 39 227 39Q255 39 285 53T339 92V265Q339 303 332 319T309 336Q296 336 277 328H275Q272 328 271 333T273 339L391 394L395 395Q399 395 403 392T407 385V110Q407 76 414 61T440 46Q456 46 489 60H490Z" />
<glyph unicode="v" glyph-name="v" horiz-adv-x="436" d="M440 386T440 380T438 374Q411 374 392 356T356 295L232 1Q230 -4 221 -4Q212 -4 210 1L65 303Q45 346 31 360T-4 374Q-7 374 -7 380T-4 386Q15 386 26 385L73 384L143 385Q158 386 185 386Q188 386 188
380T185 374Q126 374 126 351Q126 343 130 335L248 92L334 299Q341 320 341 330Q341 374 266 374Q264 374 264 380T266 386Q293 386 307 385L367 384L404 385Q415 386 438 386Q440 386 440 380Z" />
<glyph unicode="w" glyph-name="w" horiz-adv-x="671" d="M675 386T675 380T672 374Q646 374 627 356T590 295L476 1Q475 -3 465 -3Q456 -3 453 1L321 286L218 1Q217 -3 207 -3Q198 -3 195 1L65 303Q47 346 32 360T-4 374Q-7 374 -7 380T-4 386Q15 386 26 385L73
384L138 385Q153 386 179 386Q182 386 182 380T179 374Q153 374 139 369T124 350Q124 343 128 335L231 101L334 386Q335 390 345 390Q355 390 356 386L491 96L568 299Q575 320 575 330Q575 374 501 374Q499 374 499 380T501 386Q528 386 542 385L602 384L640 385Q650
386 672 386Q675 386 675 380Z" />
<glyph unicode="x" glyph-name="x" horiz-adv-x="439" d="M432 12T432 6T430 0L397 1Q385 2 363 2L296 1Q282 0 256 0Q253 0 253 6T256 12Q286 12 286 25Q286 33 274 51L201 161L149 86Q128 54 128 38Q128 12 181 12Q184 12 184 6T181 0Q154 0 141 1L81 2L44 1Q33
0 10 0Q8 0 8 6T10 12Q38 12 70 33T129 92L190 177L106 303Q83 339 59 356T15 374Q13 374 13 380T15 386Q36 386 46 385L77 384L144 385Q158 386 184 386Q186 386 186 380T184 374Q169 374 162 371T155 361Q155 353 167 335L233 236L276 300Q298 333 298 349Q298
362 285 368T244 374Q242 374 242 380T244 386Q271 386 285 385L345 384L382 385Q393 386 416 386Q418 386 418 380T416 374Q388 374 357 354T297 294L243 220L334 83Q358 46 383 29T430 12Q432 12 432 6Z" />
<glyph unicode="y" glyph-name="y" horiz-adv-x="489" d="M409 395T413 392T417 385V-70Q417 -165 365 -223T213 -281Q155 -281 115 -260T75 -203Q75 -186 86 -177T113 -167Q130 -167 141 -176T165 -205Q183 -231 202 -245T257 -260Q300 -260 324 -225T349 -94V74Q275
-9 192 -9Q140 -9 112 23T83 114V265Q83 303 76 319T53 336Q38 336 21 328H19Q16 328 15 333T16 339L135 394L138 395Q142 395 146 392T151 385V152Q151 95 171 68T234 40Q263 40 293 54T349 93V265Q349 303 342 319T319 336Q305 336 288 328H286Q283 328 282 333T283
339L401 394L405 395Q409 395 413 392Z" />
<glyph unicode="z" glyph-name="z" horiz-adv-x="405" d="M273 366Q275 369 274 371T268 373Q165 373 116 353T50 278Q50 276 46 276Q43 276 41 277T39 280L75 418Q76 420 82 420T87 417Q86 413 86 407Q86 395 97 391T135 386H353Q357 386 359 382T361 374L127
23Q124 16 132 16Q218 16 261 24T326 53T361 120Q362 122 367 122T372 120L370 11Q370 7 368 4T361 0H46Q42 0 40 4T39 12L273 366Z" />
<glyph unicode="{" glyph-name="braceleft" horiz-adv-x="289" d="M29 298T29 304T32 311Q76 317 90 376T105 529Q105 615 116 655T157 710T250 725Q254 725 254 719T250 713Q217 713 200 686T180 607Q178 484 172 435T145 357T69 305Q122 281 144 252T172 173T180
1Q182 -50 199 -77T250 -105Q254 -105 254 -111T250 -117Q187 -117 157 -103T116 -47T105 80Q105 175 91 233T32 298Q29 298 29 304Z" />
<glyph unicode="|" glyph-name="bar" horiz-adv-x="168" d="M65 731Q65 738 86 738Q106 738 106 731V-154Q106 -158 100 -160T86 -162Q77 -162 71 -160T65 -154V731Z" />
<glyph unicode="}" glyph-name="braceright" horiz-adv-x="283" d="M207 292T193 234T178 80Q178 -6 167 -47T126 -102T33 -117Q29 -117 29 -111T33 -105Q66 -105 83 -78T103 1Q105 123 111 172T139 251T214 305Q160 328 139 356T111 434T103 607Q101 658 84 685T33
713Q29 713 29 719T33 725Q96 725 125 711T166 656T178 529Q178 435 192 376T251 311Q254 311 254 305T251 298Q207 292 193 234Z" />
<glyph unicode="~" glyph-name="asciitilde" horiz-adv-x="443" d="M342 202T357 212T389 241H390Q393 241 395 239T396 234Q359 183 337 166T287 149Q268 149 252 153T211 167Q184 176 167 180T130 185Q106 185 93 178T70 161T55 146H54Q52 146 50 148T48 153Q106
238 164 238Q178 238 195 233T230 222Q255 212 274 207T314 202Q342 202 357 212Z" />
<glyph unicode="&#xa0;" glyph-name="uni00A0" horiz-adv-x="234" />
<glyph unicode="&#xa1;" glyph-name="exclamdown" horiz-adv-x="252" d="M154 365T167 352T180 316Q180 294 167 282T131 269Q108 269 96 281T83 316Q83 339 95 352T131 365Q154 365 167 352ZM181 -269T164 -272T126 -275Q106 -275 89 -272T72 -264Q91 -179 100
-77T117 165Q117 169 128 169Q138 169 138 165Q138 156 140 136Q146 7 154 -88T180 -264Q181 -269 164 -272Z" />
<glyph unicode="&#xa2;" glyph-name="cent" d="M480 144T485 143T491 139L480 33Q479 25 477 22T466 15Q389 -12 306 -12H299V-102Q299 -109 287 -109Q275 -109 275 -102V-11Q191 -4 137 34T58 127T34 236Q34 299 65 352T151 438T275 478V561Q275 565 278 567T287
569Q292 569 295 567T299 561V480H310Q348 480 391 473T462 451Q469 448 471 445T474 434L482 331Q482 328 477 327T470 330Q423 460 299 463V5Q305 4 317 4Q375 4 415 37T479 140Q480 144 485 143ZM121 165T160 95T275 9V462Q206 455 164 397T121 251Q121 165
160 95Z" />
<glyph unicode="&#xa3;" glyph-name="sterling" horiz-adv-x="504" d="M444 141T449 141T455 138Q451 112 449 77T446 15Q446 7 443 4T431 0H40Q37 0 37 5T40 12Q91 33 109 62T128 153Q128 192 123 222T108 290H50Q47 290 45 293T43 302Q43 307 45 310T50 314H102Q84
377 84 427Q84 498 112 545T188 614T292 636Q348 636 405 617Q420 611 420 600L429 489Q429 485 424 485T417 489Q401 542 367 580T278 619Q217 619 190 572T163 457Q163 425 169 398T182 346T191 314H325Q329 314 331 311T333 302Q333 297 331 294T325 290H197Q210
245 210 200Q210 141 193 109T142 45H322Q364 45 387 54T423 82T444 139Q444 141 449 141Z" />
<glyph unicode="&#xa4;" glyph-name="currency" horiz-adv-x="414" d="M332 35L283 89Q244 65 196 65Q155 65 124 85L80 35L53 61L97 107Q80 126 71 151T61 202Q61 254 98 291L49 341L80 370L131 315Q169 335 211 335Q253 335 288 313L338 367L363 341L314 292Q349
254 349 201Q349 150 315 114L364 65L332 35ZM248 85T267 110T286 180Q286 234 260 274T188 315Q157 315 139 292T121 223Q121 169 145 127T215 85Q248 85 267 110Z" />
<glyph unicode="&#xa5;" glyph-name="yen" horiz-adv-x="612" d="M619 625T619 619T617 613Q583 613 544 583T473 502L349 307V296H455Q462 296 462 284Q462 272 455 272H162Q159 272 157 275T155 284Q155 289 157 292T162 296H264L110 527Q78 575 54 594T1 613Q-2
613 -2 619T1 625Q12 625 36 623L69 622Q102 622 160 624L218 625Q220 625 220 619T218 613Q171 613 171 589Q171 578 182 561L336 331L448 508Q472 547 472 572Q472 592 458 602T417 613Q414 613 414 619T417 625L466 624Q506 622 539 622Q556 622 580 624L617
625Q619 625 619 619ZM462 221T462 209Q462 197 455 197H349V81Q349 50 354 36T376 17T429 12Q432 12 432 6T429 0Q398 0 380 1L308 2L238 1Q220 0 187 0Q184 0 184 6T187 12Q223 12 240 17T263 36T269 81V197H162Q159 197 157 200T155 209Q155 214 157 217T162
221H455Q462 221 462 209Z" />
<glyph unicode="&#xa6;" glyph-name="brokenbar" horiz-adv-x="168" d="M65 731Q65 738 86 738Q106 738 106 731V360Q106 357 100 355T86 353Q78 353 72 355T65 360V731ZM65 216Q65 220 71 222T86 224Q94 224 100 222T106 216V-154Q106 -158 100 -160T86 -162Q77
-162 71 -160T65 -154V216Z" />
<glyph unicode="&#xa7;" glyph-name="section" horiz-adv-x="456" d="M372 -7T372 -57Q372 -121 326 -154T215 -188Q164 -188 128 -170Q117 -163 116 -153L109 -49Q109 -46 114 -46T121 -49Q127 -71 145 -98T191 -145T250 -165Q278 -165 295 -148T312 -94Q312
-48 285 -19T202 46Q160 74 135 95T93 147T75 222Q75 259 89 288T146 354Q107 393 107 441Q107 505 153 538T264 572Q316 572 351 553Q362 548 362 537L370 432Q370 430 364 430T358 432Q352 454 334 481T287 529T228 549Q201 549 184 532T167 478Q167 446 181
422T217 380T275 338Q317 310 341 289T383 237T401 162Q401 125 387 96T331 31Q372 -7 372 -57ZM132 217T150 185T193 131T262 82Q306 54 320 41Q344 73 344 122Q344 167 327 199T284 253T216 301Q174 329 157 344Q132 313 132 261Q132 217 150 185Z" />
<glyph unicode="&#xa8;" glyph-name="dieresis" horiz-adv-x="322" d="M52 473T40 485T28 519Q28 540 40 551T74 563Q96 563 107 552T119 519Q119 497 108 485T74 473Q52 473 40 485ZM227 473T215 485T203 519Q203 540 215 551T249 563Q271 563 282 552T294 519Q294
497 283 485T249 473Q227 473 215 485Z" />
<glyph unicode="&#xa9;" glyph-name="copyright" horiz-adv-x="722" d="M297 -103T228 -69T115 31T71 189Q71 279 117 350T240 460T402 500Q478 500 536 469T625 384T657 269Q657 209 624 156T534 71T405 39Q343 39 303 61T243 119T224 195Q224 247 249 285T314
343T398 364Q436 364 466 350T497 311Q497 296 488 287T464 277Q441 277 426 307Q413 326 402 335T369 345Q329 345 313 315T296 224Q296 155 332 111T444 66Q487 66 525 86T586 145T609 239Q609 304 578 358T492 445T370 477Q294 477 239 442T155 346T126 213Q126
124 165 60T268 -38T403 -71Q460 -71 503 -61T597 -23Q599 -22 601 -25T601 -31Q547 -73 493 -88T373 -103Q297 -103 228 -69Z" />
<glyph unicode="&#xaa;" glyph-name="ordfeminine" horiz-adv-x="281" d="M273 407Q277 407 278 404T278 398L210 366Q199 361 189 372T176 405L139 385Q116 373 104 369T78 365Q57 365 45 376T32 404Q32 421 43 432T85 453L175 485V538Q175 584 164 598T133 612Q115
612 104 598T89 561Q85 532 61 532Q48 532 40 539T32 558Q32 574 54 591T106 619T160 630Q187 630 204 612T222 558V441Q222 418 226 408T241 398Q249 398 272 407H273ZM175 417V419V474L114 450Q100 445 94 438T87 420Q87 408 94 400T114 392Q124 392 138 398L175
417ZM263 315T264 311T266 301Q266 295 265 291T261 286H37Q35 286 34 291T32 301Q32 306 33 310T36 315H261Q263 315 264 311Z" />
<glyph unicode="&#xab;" glyph-name="guillemotleft" horiz-adv-x="462" d="M57 189Q53 193 53 201Q53 208 57 212L238 361Q238 362 240 362Q242 362 244 360T245 356L132 201L245 46Q246 44 243 41T238 40L57 189ZM215 189Q211 193 211 201Q211 208 215 212L396
361Q396 362 398 362Q400 362 402 360T403 356L290 201L403 46Q404 44 401 41T396 40L215 189Z" />
<glyph unicode="&#xac;" glyph-name="logicalnot" horiz-adv-x="395" d="M364 77Q364 75 357 74T342 72Q335 72 329 73T322 76V227H34Q32 227 31 234T29 249Q29 256 30 262T33 269H364V77Z" />
<glyph unicode="&#xad;" glyph-name="uni00AD" horiz-adv-x="323" d="M30 161T29 169T27 187Q27 207 30 207L291 254Q293 255 294 248T296 232Q296 224 295 217T291 209L32 162Q30 161 29 169Z" />
<glyph unicode="&#xae;" glyph-name="registered" horiz-adv-x="747" d="M481 725T545 689T645 590T681 451Q681 365 639 293T524 180T366 138Q292 138 224 172T114 272T71 425Q71 512 116 580T235 687T396 725Q481 725 545 689ZM508 166T570 235T633 421Q633
503 598 567T502 666T362 702Q283 702 229 668T147 578T120 454Q120 367 159 302T263 201T397 166Q508 166 570 235ZM565 280T565 276T563 272H478Q461 272 382 434Q362 430 332 430V328Q332 299 340 292T380 284Q382 284 382 278T380 272Q362 272 351 273L308
274L266 273Q255 272 237 272Q235 272 235 278T237 284Q258 284 266 287T278 298T281 328V544Q281 572 274 580T237 588Q235 588 235 594T237 600L308 599Q320 599 352 601L390 602Q484 602 484 536Q484 507 470 485T429 449Q460 387 479 355T517 305T563 281Q565
280 565 276ZM354 446T362 446Q397 446 413 461T430 513Q430 589 373 589Q355 589 347 587T336 574T332 541V448Q354 446 362 446Z" />
<glyph unicode="&#xaf;" glyph-name="overscore" horiz-adv-x="345" d="M40 480T40 496Q40 511 47 511H298Q302 511 304 507T306 496Q306 490 304 485T298 480H47Q40 480 40 496Z" />
<glyph unicode="&#xb0;" glyph-name="degree" horiz-adv-x="332" d="M106 373T68 410T29 503Q29 556 67 593T167 630Q228 630 265 593T303 501Q303 446 266 410T167 373Q106 373 68 410ZM214 385T226 411T239 494Q239 557 220 587T161 618Q122 618 108 590T94
506Q94 448 111 417T174 385Q214 385 226 411Z" />
<glyph unicode="&#xb1;" glyph-name="plusminus" horiz-adv-x="398" d="M32 231T31 238T29 254Q29 261 30 267T33 274H177V418Q177 422 199 422Q220 422 220 418V274H364Q366 274 367 268T369 253Q369 245 368 238T364 231H220V88Q220 86 213 85T197 83Q190 83
184 84T177 87V231H34Q32 231 31 238ZM366 39T367 33T369 20Q369 13 368 7T364 1H34Q32 1 31 7T29 21Q29 28 30 33T33 39H364Q366 39 367 33Z" />
<glyph unicode="&#xb2;" glyph-name="uni00B2" horiz-adv-x="251" d="M36 438T51 463T93 524Q122 561 136 588T151 647Q151 676 139 691T104 706Q81 706 64 691T39 650Q39 648 35 648Q32 648 30 649T28 653Q50 729 125 729Q165 729 186 709T207 657Q207 626 187
599T128 533Q100 505 85 487T64 451Q63 448 66 448Q133 448 159 451T196 463T212 497Q212 499 216 499T220 497L219 407Q219 403 215 403H31Q26 403 28 408Q36 438 51 463Z" />
<glyph unicode="&#xb3;" glyph-name="uni00B3" horiz-adv-x="251" d="M179 566T200 547T221 496Q221 457 193 427T115 396Q44 396 22 465Q21 469 27 470T34 468Q42 447 60 433T105 418Q131 418 147 434T164 487Q164 524 144 544T89 565Q85 565 85 570T89 576Q118
576 134 597T151 647Q151 673 138 688T102 704Q80 704 63 688T40 650Q40 648 36 648Q33 648 30 649T28 653Q38 687 61 708T124 729Q163 729 185 709T208 656Q208 628 190 606T145 573Q179 566 200 547Z" />
<glyph unicode="&#xb4;" glyph-name="acute" horiz-adv-x="212" d="M69 472T65 472Q62 472 60 473T58 476L104 716Q105 720 128 725T167 731Q178 731 177 727L69 474Q69 472 65 472Z" />
<glyph unicode="&#xb6;" glyph-name="paragraph" horiz-adv-x="645" d="M307 -193T288 -180T269 -144Q269 -127 278 -117T306 -107Q326 -107 333 -115T347 -142Q352 -157 358 -164T378 -172Q403 -172 413 -132T424 8V125Q393 122 356 122Q279 122 211 148T98 233T54
386Q54 505 127 566T329 628Q360 628 393 625Q405 625 430 624T478 622Q498 622 536 624L588 625Q590 625 590 619T588 613Q545 613 522 592T499 532L500 55Q500 -75 462 -134T339 -193Q307 -193 288 -180Z" />
<glyph unicode="&#xb7;" glyph-name="middot" horiz-adv-x="195" d="M75 152T62 165T48 201Q48 223 61 235T97 248Q120 248 132 236T145 201Q145 178 133 165T97 152Q75 152 62 165Z" />
<glyph unicode="&#xb8;" glyph-name="cedilla" horiz-adv-x="232" d="M106 -39T106 -50Q106 -66 115 -75T148 -99Q173 -113 188 -131T203 -176Q203 -215 176 -245T93 -275Q62 -275 44 -265T25 -234Q25 -221 35 -211T59 -201Q73 -201 79 -207T92 -227Q98 -240 105
-247T127 -254Q158 -254 158 -220Q158 -194 140 -174T73 -127Q60 -120 60 -114Q60 -110 65 -97Q80 -61 94 -22L102 -1L116 -2Q106 -39 106 -50Z" />
<glyph unicode="&#xb9;" glyph-name="uni00B9" horiz-adv-x="262" d="M42 403T42 408T44 414Q76 414 89 418T106 436T110 483V601Q110 650 108 664T92 679Q84 679 70 674T38 660H37Q33 660 31 665T32 671L154 728H156Q159 728 161 726T164 721V483Q164 449 167
436T183 418T226 414Q229 414 229 409T226 403Q203 403 190 404L138 405L83 404Q69 403 44 403Q42 403 42 408Z" />
<glyph unicode="&#xba;" glyph-name="ordmasculine" horiz-adv-x="318" d="M98 359T63 399T27 498Q27 541 48 570T101 615T167 630Q205 630 233 611T277 561T293 495Q293 458 274 427T224 377T155 359Q98 359 63 399ZM202 374T220 401T239 477Q239 535 213 574T148
614Q116 614 99 589T81 517Q81 459 106 417T170 374Q202 374 220 401ZM37 286T36 291T34 301Q34 306 35 310T38 315H281Q283 315 284 311T286 301Q286 295 285 291T281 286H39Q37 286 36 291Z" />
<glyph unicode="&#xbb;" glyph-name="guillemotright" horiz-adv-x="462" d="M247 212Q252 207 252 201Q252 194 247 189L66 40Q66 39 64 39Q62 39 60 41T59 46L172 200L59 356Q58 358 61 361T66 361L247 212ZM405 212Q410 207 410 201Q410 194 405 189L224 40Q224
39 222 39Q220 39 218 41T217 46L330 200L217 356Q216 358 219 361T224 361L405 212Z" />
<glyph unicode="&#xbc;" glyph-name="onequarter" horiz-adv-x="602" d="M229 320T229 315T226 309Q203 309 190 310L138 311L83 310Q69 309 44 309Q42 309 42 314T44 320Q76 320 89 324T106 342T110 389V508Q110 556 108 570T92 585Q79 585 38 566H37Q33 566
31 571T32 577L154 634H156Q159 634 161 632T164 627V389Q164 355 167 342T183 324T226 320Q229 320 229 315ZM438 629T441 629Q446 629 456 624T465 617L185 0Q185 -1 183 -1Q178 -1 168 4T159 11L438 628Q438 629 441 629ZM578 9T578 5T577 -1L513 0L431 -1Q430
-1 430 5T431 11Q456 11 466 13T480 21T484 41V92Q416 94 359 94Q356 94 354 97T355 102L514 322Q516 325 523 325Q527 325 530 324T534 321V113L577 115Q579 115 579 102Q579 88 577 88L534 90V41Q534 27 536 22T547 14T577 11Q578 9 578 5ZM434 109T484 111V254L391
112Q390 109 393 109Q434 109 484 111Z" />
<glyph unicode="&#xbd;" glyph-name="onehalf" horiz-adv-x="610" d="M42 309T42 314T44 320Q76 320 89 324T106 342T110 389V508Q110 556 108 570T92 585Q79 585 38 566H37Q33 566 31 571T32 577L154 634H156Q159 634 161 632T164 627V389Q164 355 167 342T183
324T226 320Q229 320 229 315T226 309Q203 309 190 310L138 311L83 310Q69 309 44 309Q42 309 42 314ZM185 -1T183 -1Q178 -1 168 4T159 11L438 628Q438 629 441 629Q446 629 456 624T465 617L185 0Q185 -1 183 -1ZM395 35T410 59T451 120Q480 158 495 185T510
245Q510 273 498 287T463 302Q440 302 423 287T398 248Q398 245 394 245Q391 245 389 246T387 250Q409 326 484 326Q524 326 545 307T566 255Q566 225 546 198T487 129Q460 103 445 85T423 48Q422 45 425 45Q491 45 518 48T555 60T571 94Q571 96 575 96T579 94L578
5Q578 0 574 0H390Q386 0 387 6Q395 35 410 59Z" />
<glyph unicode="&#xbe;" glyph-name="threequarters" horiz-adv-x="591" d="M221 363T193 333T115 303Q43 303 22 372Q21 375 27 376T34 374Q42 353 60 339T105 324Q131 324 147 340T164 392Q164 429 144 449T89 470Q85 470 85 476T89 482Q118 482 134 503T151
553Q151 579 138 594T102 610Q80 610 63 594T40 557Q40 554 35 554Q32 554 30 555T28 559Q38 593 61 614T124 635Q163 635 185 615T208 562Q208 534 190 512T144 479Q179 473 200 454T221 402Q221 363 193 333ZM427 629T430 629Q435 629 445 624T454 617L174 0Q174
-1 172 -1Q167 -1 157 4T148 11L427 628Q427 629 430 629ZM567 9T567 5T566 -1L502 0L420 -1Q419 -1 419 5T420 11Q445 11 455 13T469 21T473 41V92Q405 94 348 94Q345 94 343 97T344 102L503 322Q505 325 512 325Q516 325 519 324T523 321V113L566 115Q568 115
568 102Q568 88 566 88L523 90V41Q523 27 525 22T536 14T566 11Q567 9 567 5ZM423 109T473 111V254L380 112Q379 109 382 109Q423 109 473 111Z" />
<glyph unicode="&#xbf;" glyph-name="questiondown" horiz-adv-x="327" d="M201 361T214 348T227 312Q227 290 214 278T178 265Q155 265 143 277T130 312Q130 335 142 348T178 361Q201 361 214 348ZM187 -260T194 -248T205 -215Q208 -192 217 -178T249 -163Q268
-163 278 -174T288 -201Q288 -232 252 -253T164 -275Q103 -275 63 -244T23 -155Q23 -124 34 -101T59 -66T106 -22Q139 9 153 38T167 102Q167 119 162 156V157Q162 159 168 160T175 159Q186 133 193 98T201 39Q201 8 190 -12T155 -57Q130 -83 117 -106T104 -168Q104
-209 121 -234T166 -260Q187 -260 194 -248Z" />
<glyph unicode="&#xc0;" glyph-name="Agrave" horiz-adv-x="706" d="M213 758T230 767T270 783T298 787Q332 765 349 753Q415 708 448 689Q451 688 451 685Q451 682 449 680T444 679Q332 729 222 756Q213 758 230 767ZM709 12T709 6T705 0Q686 0 644 2Q604 4 585
4Q562 4 528 2Q494 0 477 0Q473 0 473 6T477 12Q511 12 526 18T541 42Q541 59 526 89L414 321H230L148 132Q134 99 134 77Q134 12 231 12Q236 12 236 6T231 0Q213 0 179 2Q141 4 113 4Q87 4 51 2Q19 0 -1 0Q-5 0 -5 6T-1 12Q27 12 46 23T84 61T125 141L338 632Q339
635 345 635T352 632L593 137Q627 64 651 38T705 12Q709 12 709 6ZM239 344H403L317 524L239 344Z" />
<glyph unicode="&#xc1;" glyph-name="Aacute" horiz-adv-x="706" d="M246 678Q242 678 241 682T243 689Q279 709 346 755Q378 777 394 787Q399 790 421 783T461 767T470 756Q408 741 357 723T248 679L246 678ZM709 12T709 6T705 0Q686 0 644 2Q604 4 585 4Q562
4 528 2Q494 0 477 0Q473 0 473 6T477 12Q511 12 526 18T541 42Q541 59 526 89L414 321H230L148 132Q134 99 134 77Q134 12 231 12Q236 12 236 6T231 0Q213 0 179 2Q141 4 113 4Q87 4 51 2Q19 0 -1 0Q-5 0 -5 6T-1 12Q27 12 46 23T84 61T125 141L338 632Q339 635
345 635T352 632L593 137Q627 64 651 38T705 12Q709 12 709 6ZM239 344H403L317 524L239 344Z" />
<glyph unicode="&#xc2;" glyph-name="Acircumflex" horiz-adv-x="706" d="M234 647T231 650T230 655L333 758Q338 763 345 763Q351 763 356 758L458 655Q459 655 459 653Q459 651 457 649T453 648L345 699L236 648Q234 647 231 650ZM709 12T709 6T705 0Q686 0
644 2Q604 4 585 4Q562 4 528 2Q494 0 477 0Q473 0 473 6T477 12Q511 12 526 18T541 42Q541 59 526 89L414 321H230L148 132Q134 99 134 77Q134 12 231 12Q236 12 236 6T231 0Q213 0 179 2Q141 4 113 4Q87 4 51 2Q19 0 -1 0Q-5 0 -5 6T-1 12Q27 12 46 23T84 61T125
141L338 632Q339 635 345 635T352 632L593 137Q627 64 651 38T705 12Q709 12 709 6ZM239 344H403L317 524L239 344Z" />
<glyph unicode="&#xc3;" glyph-name="Atilde" horiz-adv-x="706" d="M221 697Q218 697 216 699T214 704Q259 773 300 773Q316 773 349 762Q354 761 377 755T424 748Q441 748 451 754T474 775H475Q478 775 480 773T481 768Q455 728 438 714T400 700Q384 700 365
705T340 711Q301 724 272 724Q253 724 245 719T222 697H221ZM709 12T709 6T705 0Q686 0 644 2Q604 4 585 4Q562 4 528 2Q494 0 477 0Q473 0 473 6T477 12Q511 12 526 18T541 42Q541 59 526 89L414 321H230L148 132Q134 99 134 77Q134 12 231 12Q236 12 236 6T231
0Q213 0 179 2Q141 4 113 4Q87 4 51 2Q19 0 -1 0Q-5 0 -5 6T-1 12Q27 12 46 23T84 61T125 141L338 632Q339 635 345 635T352 632L593 137Q627 64 651 38T705 12Q709 12 709 6ZM239 344H403L317 524L239 344Z" />
<glyph unicode="&#xc4;" glyph-name="Adieresis" horiz-adv-x="706" d="M236 712T224 724T212 758Q212 779 224 790T258 802Q280 802 291 791T303 758Q303 736 292 724T258 712Q236 712 224 724ZM411 712T399 724T387 758Q387 779 399 790T433 802Q455 802 466
791T478 758Q478 736 467 724T433 712Q411 712 399 724ZM709 12T709 6T705 0Q686 0 644 2Q604 4 585 4Q562 4 528 2Q494 0 477 0Q473 0 473 6T477 12Q511 12 526 18T541 42Q541 59 526 89L414 321H230L148 132Q134 99 134 77Q134 12 231 12Q236 12 236 6T231 0Q213
0 179 2Q141 4 113 4Q87 4 51 2Q19 0 -1 0Q-5 0 -5 6T-1 12Q27 12 46 23T84 61T125 141L338 632Q339 635 345 635T352 632L593 137Q627 64 651 38T705 12Q709 12 709 6ZM239 344H403L317 524L239 344Z" />
<glyph unicode="&#xc5;" glyph-name="Aring" horiz-adv-x="706" d="M296 663T271 686T245 742Q245 778 277 798T349 819Q387 819 414 796T442 740Q442 705 411 684T339 663Q296 663 271 686ZM313 808T306 797T299 762Q299 729 314 702T354 675Q371 675 379 686T388
722Q388 757 371 782T329 808Q313 808 306 797ZM709 12T709 6T705 0Q686 0 644 2Q604 4 585 4Q562 4 528 2Q494 0 477 0Q473 0 473 6T477 12Q511 12 526 18T541 42Q541 59 526 89L414 321H230L148 132Q134 99 134 77Q134 12 231 12Q236 12 236 6T231 0Q213 0 179
2Q141 4 113 4Q87 4 51 2Q19 0 -1 0Q-5 0 -5 6T-1 12Q27 12 46 23T84 61T125 141L338 632Q339 635 345 635T352 632L593 137Q627 64 651 38T705 12Q709 12 709 6ZM239 344H403L317 524L239 344Z" />
<glyph unicode="&#xc6;" glyph-name="AE" horiz-adv-x="879" d="M819 154T823 154Q826 154 828 153T831 150Q822 85 822 15Q822 7 819 4T806 0H389Q387 0 387 6T389 12Q425 12 441 17T464 36T470 81V314H305L182 130Q153 86 153 58Q153 12 230 12Q235 12 235 6T230
0Q210 0 174 2Q132 4 101 4Q77 4 45 2Q17 0 0 0Q-5 0 -5 6T0 12Q68 12 149 132L447 574Q460 592 460 599Q460 608 444 610T383 613Q381 613 381 619T383 625H789Q798 625 798 616L800 490Q800 487 795 487T789 489Q784 533 750 567T670 601H619Q576 601 562 589T547
543V337H650Q701 337 725 354T749 409Q749 411 755 411T761 409L760 325Q760 295 761 280L762 230Q762 228 756 228T750 230Q750 273 725 293T648 314H547V85Q547 49 560 36T614 23H678Q726 23 766 60T819 152Q819 154 823 154ZM320 337H470V562L320 337Z" />
<glyph unicode="&#xc7;" glyph-name="Ccedilla" horiz-adv-x="669" d="M614 172T618 172Q621 172 623 171T626 168L612 47Q610 35 608 32T596 24Q504 -12 408 -12H389Q382 -40 382 -50Q382 -66 391 -75T424 -99Q449 -113 464 -131T479 -176Q479 -215 452 -245T369
-275Q338 -275 320 -265T301 -234Q301 -221 311 -211T335 -201Q349 -201 355 -207T368 -227Q374 -240 381 -247T403 -254Q434 -254 434 -220Q434 -194 416 -174T349 -127Q336 -120 336 -114Q336 -110 341 -97Q357 -61 374 -11Q265 -4 192 45T84 167T49 317Q49 410
100 482T236 595T417 636Q463 636 512 628T590 604Q598 600 600 596T605 580L616 459Q616 456 611 456T605 458Q579 536 520 574T378 613Q305 613 251 580T169 485T140 344Q140 251 176 173T273 50T408 4Q552 4 614 169Q614 172 618 172Z" />
<glyph unicode="&#xc8;" glyph-name="Egrave" horiz-adv-x="542" d="M162 758T179 767T219 783T247 787Q281 765 298 753Q364 708 397 689Q400 688 400 685Q400 682 398 680T393 679Q281 729 171 756Q162 758 179 767ZM482 154T486 154Q489 154 491 153T494 150Q484
78 484 15Q484 7 481 4T469 0H43Q40 0 40 6T43 12Q79 12 95 17T117 36T123 81V544Q123 574 117 588T95 607T43 613Q40 613 40 619T43 625H451Q461 625 461 616L463 490Q463 487 458 487T451 489Q444 544 412 572T328 601H277Q233 601 218 589T203 540V337H313Q364
337 388 354T412 409Q412 411 417 411T423 409L422 325L423 280Q425 248 425 230Q425 228 419 228T413 230Q413 273 389 293T310 314H203V85Q203 49 216 36T271 23H336Q393 23 430 56T482 152Q482 154 486 154Z" />
<glyph unicode="&#xc9;" glyph-name="Eacute" horiz-adv-x="542" d="M195 678Q191 678 190 682T192 689Q228 709 295 755Q327 777 343 787Q348 790 370 783T410 767T419 756Q357 741 306 723T197 679L195 678ZM482 154T486 154Q489 154 491 153T494 150Q484 78
484 15Q484 7 481 4T469 0H43Q40 0 40 6T43 12Q79 12 95 17T117 36T123 81V544Q123 574 117 588T95 607T43 613Q40 613 40 619T43 625H451Q461 625 461 616L463 490Q463 487 458 487T451 489Q444 544 412 572T328 601H277Q233 601 218 589T203 540V337H313Q364
337 388 354T412 409Q412 411 417 411T423 409L422 325L423 280Q425 248 425 230Q425 228 419 228T413 230Q413 273 389 293T310 314H203V85Q203 49 216 36T271 23H336Q393 23 430 56T482 152Q482 154 486 154Z" />
<glyph unicode="&#xca;" glyph-name="Ecircumflex" horiz-adv-x="542" d="M184 687T181 690T180 695L283 799Q288 804 295 804Q301 804 306 799L408 695Q409 695 409 693Q409 691 407 689T403 688L295 740L186 688Q184 687 181 690ZM482 154T486 154Q489 154 491
153T494 150Q484 78 484 15Q484 7 481 4T469 0H43Q40 0 40 6T43 12Q79 12 95 17T117 36T123 81V544Q123 574 117 588T95 607T43 613Q40 613 40 619T43 625H451Q461 625 461 616L463 490Q463 487 458 487T451 489Q444 544 412 572T328 601H277Q233 601 218 589T203
540V337H313Q364 337 388 354T412 409Q412 411 417 411T423 409L422 325L423 280Q425 248 425 230Q425 228 419 228T413 230Q413 273 389 293T310 314H203V85Q203 49 216 36T271 23H336Q393 23 430 56T482 152Q482 154 486 154Z" />
<glyph unicode="&#xcb;" glyph-name="Edieresis" horiz-adv-x="542" d="M185 712T173 724T161 758Q161 779 173 790T207 802Q229 802 240 791T252 758Q252 736 241 724T207 712Q185 712 173 724ZM360 712T348 724T336 758Q336 779 348 790T382 802Q404 802 415
791T427 758Q427 736 416 724T382 712Q360 712 348 724ZM482 154T486 154Q489 154 491 153T494 150Q484 78 484 15Q484 7 481 4T469 0H43Q40 0 40 6T43 12Q79 12 95 17T117 36T123 81V544Q123 574 117 588T95 607T43 613Q40 613 40 619T43 625H451Q461 625 461
616L463 490Q463 487 458 487T451 489Q444 544 412 572T328 601H277Q233 601 218 589T203 540V337H313Q364 337 388 354T412 409Q412 411 417 411T423 409L422 325L423 280Q425 248 425 230Q425 228 419 228T413 230Q413 273 389 293T310 314H203V85Q203 49 216
36T271 23H336Q393 23 430 56T482 152Q482 154 486 154Z" />
<glyph unicode="&#xcc;" glyph-name="Igrave" horiz-adv-x="335" d="M155 729T45 756Q36 758 53 767T93 783T121 787Q155 765 172 753Q238 708 271 689Q274 688 274 685Q274 682 272 680T267 679Q155 729 45 756ZM208 51T214 37T236 17T289 12Q291 12 291 6T289
0Q257 0 239 1L167 2L97 1Q78 0 45 0Q43 0 43 6T45 12Q81 12 98 17T121 36T127 81V544Q127 574 121 588T98 607T45 613Q43 613 43 619T45 625L97 624Q141 622 167 622Q196 622 240 624L289 625Q291 625 291 619T289 613Q254 613 237 607T214 587T208 542V81Q208
51 214 37Z" />
<glyph unicode="&#xcd;" glyph-name="Iacute" horiz-adv-x="335" d="M69 678Q65 678 64 682T66 689Q102 709 169 755Q201 777 217 787Q222 790 244 783T284 767T293 756Q231 741 180 723T71 679L69 678ZM208 51T214 37T236 17T289 12Q291 12 291 6T289 0Q257 0
239 1L167 2L97 1Q78 0 45 0Q43 0 43 6T45 12Q81 12 98 17T121 36T127 81V544Q127 574 121 588T98 607T45 613Q43 613 43 619T45 625L97 624Q141 622 167 622Q196 622 240 624L289 625Q291 625 291 619T289 613Q254 613 237 607T214 587T208 542V81Q208 51 214
37Z" />
<glyph unicode="&#xce;" glyph-name="Icircumflex" horiz-adv-x="335" d="M157 799Q162 804 169 804Q175 804 180 799L282 695Q283 695 283 693Q283 691 281 689T277 688L169 740L60 688Q58 687 55 690T54 695L157 799ZM208 51T214 37T236 17T289 12Q291 12 291
6T289 0Q257 0 239 1L167 2L97 1Q78 0 45 0Q43 0 43 6T45 12Q81 12 98 17T121 36T127 81V544Q127 574 121 588T98 607T45 613Q43 613 43 619T45 625L97 624Q141 622 167 622Q196 622 240 624L289 625Q291 625 291 619T289 613Q254 613 237 607T214 587T208 542V81Q208
51 214 37Z" />
<glyph unicode="&#xcf;" glyph-name="Idieresis" horiz-adv-x="335" d="M74 712T61 724T48 758Q48 779 61 790T95 802Q117 802 129 791T141 758Q141 736 129 724T95 712Q74 712 61 724ZM220 712T208 724T195 758Q195 779 207 790T241 802Q262 802 274 791T286
758Q286 736 274 724T241 712Q220 712 208 724ZM208 51T214 37T236 17T289 12Q291 12 291 6T289 0Q257 0 239 1L167 2L97 1Q78 0 45 0Q43 0 43 6T45 12Q81 12 98 17T121 36T127 81V544Q127 574 121 588T98 607T45 613Q43 613 43 619T45 625L97 624Q141 622 167
622Q196 622 240 624L289 625Q291 625 291 619T289 613Q254 613 237 607T214 587T208 542V81Q208 51 214 37Z" />
<glyph unicode="&#xd0;" glyph-name="Eth" horiz-adv-x="696" d="M399 627T479 587T603 478T647 323Q647 226 602 152T479 37T310 -4Q280 -4 241 -1Q226 0 204 1T155 2L85 1Q66 0 33 0Q31 0 31 6T33 12Q69 12 86 17T109 36T115 81V300H53Q49 300 49 311Q49 322
53 322H115V544Q115 574 109 588T87 607T35 613Q32 613 32 619T35 625L85 624Q129 622 155 622Q193 622 232 625Q280 627 296 627Q399 627 479 587ZM375 14T432 47T522 145T555 301Q555 388 525 458T438 569T306 610Q263 610 240 605T206 586T195 542V322H331Q335
322 335 311Q335 300 331 300H195V92Q195 49 216 32T300 14Q375 14 432 47Z" />
<glyph unicode="&#xd1;" glyph-name="Ntilde" horiz-adv-x="730" d="M254 697Q251 697 249 699T247 704Q292 773 333 773Q349 773 382 762Q387 761 410 755T457 748Q474 748 484 754T507 775H508Q511 775 513 773T514 768Q488 728 471 714T433 700Q417 700 398
705T373 711Q334 724 305 724Q286 724 278 719T255 697H254ZM713 625T713 619T710 613Q628 613 628 509V-13Q628 -15 624 -16T617 -15L148 541V115Q148 62 167 37T227 12Q230 12 230 6T227 0Q201 0 187 1L136 2L82 1Q67 0 38 0Q36 0 36 6T38 12Q81 12 101 37T122
115V569Q78 613 35 613Q32 613 32 619T35 625L74 624Q86 623 108 623L160 624Q169 625 183 625Q191 625 194 622T206 606Q215 592 231 573L603 124V509Q603 562 584 587T525 613Q523 613 523 619T525 625L565 624Q595 622 616 622Q634 622 668 624L710 625Q713
625 713 619Z" />
<glyph unicode="&#xd2;" glyph-name="Ograve" horiz-adv-x="766" d="M373 729T263 756Q254 758 271 767T311 783T339 787Q373 765 390 753Q456 708 489 689Q492 688 492 685Q492 682 490 680T485 679Q373 729 263 756ZM273 -12T201 31T89 149T49 312Q49 415 101
488T234 599T401 636Q496 636 568 592T678 474T717 319Q717 228 669 152T541 32T366 -12Q273 -12 201 31ZM465 10T516 43T596 139T626 291Q626 384 594 457T501 571T360 612Q256 612 198 542T140 347Q140 252 173 175T265 54T401 10Q465 10 516 43Z" />
<glyph unicode="&#xd3;" glyph-name="Oacute" horiz-adv-x="766" d="M287 678Q283 678 282 682T284 689Q320 709 387 755Q419 777 435 787Q440 790 462 783T502 767T511 756Q449 741 398 723T289 679L287 678ZM273 -12T201 31T89 149T49 312Q49 415 101 488T234
599T401 636Q496 636 568 592T678 474T717 319Q717 228 669 152T541 32T366 -12Q273 -12 201 31ZM465 10T516 43T596 139T626 291Q626 384 594 457T501 571T360 612Q256 612 198 542T140 347Q140 252 173 175T265 54T401 10Q465 10 516 43Z" />
<glyph unicode="&#xd4;" glyph-name="Ocircumflex" horiz-adv-x="766" d="M375 799Q380 804 387 804Q393 804 398 799L500 695Q501 695 501 693Q501 691 499 689T495 688L387 740L278 688Q276 687 273 690T272 695L375 799ZM273 -12T201 31T89 149T49 312Q49 415
101 488T234 599T401 636Q496 636 568 592T678 474T717 319Q717 228 669 152T541 32T366 -12Q273 -12 201 31ZM465 10T516 43T596 139T626 291Q626 384 594 457T501 571T360 612Q256 612 198 542T140 347Q140 252 173 175T265 54T401 10Q465 10 516 43Z" />
<glyph unicode="&#xd5;" glyph-name="Otilde" horiz-adv-x="766" d="M482 748T492 754T515 775H516Q519 775 521 773T522 768Q496 728 479 714T441 700Q425 700 406 705T381 711Q342 724 313 724Q294 724 286 719T263 697H262Q259 697 257 699T255 704Q300 773
341 773Q357 773 390 762Q395 761 418 755T465 748Q482 748 492 754ZM273 -12T201 31T89 149T49 312Q49 415 101 488T234 599T401 636Q496 636 568 592T678 474T717 319Q717 228 669 152T541 32T366 -12Q273 -12 201 31ZM465 10T516 43T596 139T626 291Q626 384
594 457T501 571T360 612Q256 612 198 542T140 347Q140 252 173 175T265 54T401 10Q465 10 516 43Z" />
<glyph unicode="&#xd6;" glyph-name="Odieresis" horiz-adv-x="766" d="M277 712T265 724T253 758Q253 779 265 790T299 802Q321 802 332 791T344 758Q344 736 333 724T299 712Q277 712 265 724ZM452 712T440 724T428 758Q428 779 440 790T474 802Q496 802 507
791T519 758Q519 736 508 724T474 712Q452 712 440 724ZM273 -12T201 31T89 149T49 312Q49 415 101 488T234 599T401 636Q496 636 568 592T678 474T717 319Q717 228 669 152T541 32T366 -12Q273 -12 201 31ZM465 10T516 43T596 139T626 291Q626 384 594 457T501
571T360 612Q256 612 198 542T140 347Q140 252 173 175T265 54T401 10Q465 10 516 43Z" />
<glyph unicode="&#xd7;" glyph-name="multiply" horiz-adv-x="388" d="M325 89Q329 85 314 70T295 58L194 160L92 58Q89 54 74 69T61 87L164 190L62 292Q59 295 74 309T91 322L194 220L295 321Q299 324 314 309T325 291L224 190L325 89Z" />
<glyph unicode="&#xd8;" glyph-name="Oslash" horiz-adv-x="777" d="M670 500T693 441T717 319Q717 228 669 152T541 32T366 -12Q304 -12 250 8T155 65L83 -8L82 -9Q78 -9 71 -2T67 9L138 81Q95 125 72 185T49 312Q49 415 101 488T234 599T401 636Q524 636 610
560L680 631H682Q686 631 693 625T697 616L627 544Q670 500 693 441ZM140 226T193 137L562 511Q527 559 475 585T360 612Q256 612 198 542T140 347Q140 226 193 137ZM465 10T516 43T596 139T626 291Q626 409 575 492L206 117Q241 66 291 38T401 10Q465 10 516 43Z"
/>
<glyph unicode="&#xd9;" glyph-name="Ugrave" horiz-adv-x="761" d="M251 758T268 767T308 783T336 787Q370 765 387 753Q453 708 486 689Q489 688 489 685Q489 682 487 680T482 679Q370 729 260 756Q251 758 268 767ZM729 12T729 6T726 0L644 1L586 0Q574 0 571
3T567 19V93Q508 38 452 13T329 -12Q265 -12 214 12T134 81T104 186V544Q104 574 98 588T76 607T23 613Q20 613 20 619T23 625L73 624Q117 622 143 622Q172 622 216 624L264 625Q267 625 267 619T264 613Q229 613 212 607T189 587T183 542V221Q183 123 231 72T361
20Q415 20 463 42T567 116V542Q567 572 561 586T539 607T486 613Q484 613 484 619T486 625L536 624Q580 622 606 622Q633 622 675 624L726 625Q729 625 729 619T726 613Q690 613 673 608T650 588T644 544V81Q644 51 650 37T673 17T726 12Q729 12 729 6Z" />
<glyph unicode="&#xda;" glyph-name="Uacute" horiz-adv-x="761" d="M284 678Q280 678 279 682T281 689Q317 709 384 755Q416 777 432 787Q437 790 459 783T499 767T508 756Q446 741 395 723T286 679L284 678ZM729 12T729 6T726 0L644 1L586 0Q574 0 571 3T567
19V93Q508 38 452 13T329 -12Q265 -12 214 12T134 81T104 186V544Q104 574 98 588T76 607T23 613Q20 613 20 619T23 625L73 624Q117 622 143 622Q172 622 216 624L264 625Q267 625 267 619T264 613Q229 613 212 607T189 587T183 542V221Q183 123 231 72T361 20Q415
20 463 42T567 116V542Q567 572 561 586T539 607T486 613Q484 613 484 619T486 625L536 624Q580 622 606 622Q633 622 675 624L726 625Q729 625 729 619T726 613Q690 613 673 608T650 588T644 544V81Q644 51 650 37T673 17T726 12Q729 12 729 6Z" />
<glyph unicode="&#xdb;" glyph-name="Ucircumflex" horiz-adv-x="761" d="M273 687T270 690T269 695L372 799Q377 804 384 804Q390 804 395 799L497 695Q498 695 498 693Q498 691 496 689T492 688L384 740L275 688Q273 687 270 690ZM729 12T729 6T726 0L644 1L586
0Q574 0 571 3T567 19V93Q508 38 452 13T329 -12Q265 -12 214 12T134 81T104 186V544Q104 574 98 588T76 607T23 613Q20 613 20 619T23 625L73 624Q117 622 143 622Q172 622 216 624L264 625Q267 625 267 619T264 613Q229 613 212 607T189 587T183 542V221Q183
123 231 72T361 20Q415 20 463 42T567 116V542Q567 572 561 586T539 607T486 613Q484 613 484 619T486 625L536 624Q580 622 606 622Q633 622 675 624L726 625Q729 625 729 619T726 613Q690 613 673 608T650 588T644 544V81Q644 51 650 37T673 17T726 12Q729 12
729 6Z" />
<glyph unicode="&#xdc;" glyph-name="Udieresis" horiz-adv-x="761" d="M274 712T262 724T250 758Q250 779 262 790T296 802Q318 802 329 791T341 758Q341 736 330 724T296 712Q274 712 262 724ZM449 712T437 724T425 758Q425 779 437 790T471 802Q493 802 504
791T516 758Q516 736 505 724T471 712Q449 712 437 724ZM729 12T729 6T726 0L644 1L586 0Q574 0 571 3T567 19V93Q508 38 452 13T329 -12Q265 -12 214 12T134 81T104 186V544Q104 574 98 588T76 607T23 613Q20 613 20 619T23 625L73 624Q117 622 143 622Q172 622
216 624L264 625Q267 625 267 619T264 613Q229 613 212 607T189 587T183 542V221Q183 123 231 72T361 20Q415 20 463 42T567 116V542Q567 572 561 586T539 607T486 613Q484 613 484 619T486 625L536 624Q580 622 606 622Q633 622 675 624L726 625Q729 625 729 619T726
613Q690 613 673 608T650 588T644 544V81Q644 51 650 37T673 17T726 12Q729 12 729 6Z" />
<glyph unicode="&#xdd;" glyph-name="Yacute" horiz-adv-x="612" d="M221 678Q217 678 216 682T218 689Q254 709 321 755Q353 777 369 787Q374 790 396 783T436 767T445 756Q383 741 332 723T223 679L221 678ZM619 625T619 619T617 613Q583 613 544 583T473 502L349
307V81Q349 50 354 36T376 17T429 12Q432 12 432 6T429 0Q398 0 380 1L308 2L238 1Q220 0 187 0Q184 0 184 6T187 12Q223 12 240 17T263 36T269 81V290L110 527Q78 575 54 594T1 613Q-2 613 -2 619T1 625Q12 625 36 623L69 622Q102 622 160 624L218 625Q220 625
220 619T218 613Q171 613 171 589Q171 578 182 561L336 331L448 508Q472 547 472 572Q472 592 458 602T417 613Q414 613 414 619T417 625L466 624Q506 622 539 622Q556 622 580 624L617 625Q619 625 619 619Z" />
<glyph unicode="&#xde;" glyph-name="Thorn" horiz-adv-x="541" d="M338 147T377 190T417 316Q417 396 376 439T265 482Q240 482 198 476V85Q198 53 206 39T237 18T310 12Q312 12 312 6T310 0Q268 0 245 1L159 2L92 1Q74 0 43 0Q40 0 40 6T43 12Q76 12 91 17T112
36T118 81V544Q118 574 113 588T92 607T43 613Q40 613 40 619T43 625L92 624Q134 622 159 622Q191 622 245 624L310 625Q312 625 312 619T310 613Q260 613 237 607T206 586T198 539V493Q246 499 290 499Q388 499 447 459T506 329Q506 265 474 221T392 155T291 133Q268
133 241 138Q239 138 239 143Q239 146 240 149T244 151Q268 147 280 147Q338 147 377 190Z" />
<glyph unicode="&#xdf;" glyph-name="germandbls" horiz-adv-x="527" d="M311 -11T269 18Q263 24 263 30L261 127Q261 129 266 129T273 128Q293 73 324 41T386 9Q410 9 424 28T438 75Q438 113 417 143T352 215Q307 260 286 290T264 361Q264 389 274 411T307 465Q331
498 344 526T357 591Q357 638 337 674T270 710Q213 710 184 641T154 446V81Q154 51 158 37T176 17T216 12Q218 12 218 6T216 0L120 1L19 0Q16 0 16 6T19 12Q48 12 61 17T80 36T85 81L84 448Q84 581 140 653T301 726Q365 726 399 698T433 628Q433 595 417 570T368
514Q339 486 325 465T310 418Q310 387 331 359T400 283Q451 232 475 198T500 124Q500 91 482 60T432 9T358 -11Q311 -11 269 18Z" />
<glyph unicode="&#xe0;" glyph-name="agrave" horiz-adv-x="490" d="M155 727Q154 731 165 731Q181 731 204 726T228 716L273 476Q274 474 269 473T263 474L155 727ZM484 61Q487 61 488 56T487 50L364 -10Q362 -11 359 -11Q351 -11 343 11T332 67Q297 31 261 10T181
-11Q119 -11 77 34T35 162Q35 234 68 288T154 370T262 399Q315 399 359 370Q379 380 390 396Q391 397 393 397Q395 397 397 396T400 393V107Q400 75 407 61T433 47Q446 47 482 60L484 61ZM273 29T332 84V292Q332 329 304 354T237 379Q181 379 147 327T113 193Q113
118 141 74T220 29Q273 29 332 84Z" />
<glyph unicode="&#xe1;" glyph-name="aacute" horiz-adv-x="490" d="M255 472T251 472Q248 472 246 473T244 476L290 716Q291 720 314 725T353 731Q364 731 363 727L255 474Q255 472 251 472ZM484 61Q487 61 488 56T487 50L364 -10Q362 -11 359 -11Q351 -11 343
11T332 67Q297 31 261 10T181 -11Q119 -11 77 34T35 162Q35 234 68 288T154 370T262 399Q315 399 359 370Q379 380 390 396Q391 397 393 397Q395 397 397 396T400 393V107Q400 75 407 61T433 47Q446 47 482 60L484 61ZM273 29T332 84V292Q332 329 304 354T237 379Q181
379 147 327T113 193Q113 118 141 74T220 29Q273 29 332 84Z" />
<glyph unicode="&#xe2;" glyph-name="acircumflex" horiz-adv-x="490" d="M189 472T185 472Q182 472 180 473T178 476L246 725Q247 730 257 730Q268 730 269 725L336 476Q338 474 333 473T326 474L258 621L189 474Q189 472 185 472ZM484 61Q487 61 488 56T487
50L364 -10Q362 -11 359 -11Q351 -11 343 11T332 67Q297 31 261 10T181 -11Q119 -11 77 34T35 162Q35 234 68 288T154 370T262 399Q315 399 359 370Q379 380 390 396Q391 397 393 397Q395 397 397 396T400 393V107Q400 75 407 61T433 47Q446 47 482 60L484 61ZM273
29T332 84V292Q332 329 304 354T237 379Q181 379 147 327T113 193Q113 118 141 74T220 29Q273 29 332 84Z" />
<glyph unicode="&#xe3;" glyph-name="atilde" horiz-adv-x="490" d="M129 477Q126 477 124 479T124 484Q169 551 209 551Q223 551 259 541Q305 527 333 527Q350 527 360 533T383 554H384Q387 554 389 552T390 547Q364 507 347 493T310 479Q290 479 250 491Q246
492 225 498T181 504Q165 504 156 499T141 487T131 477H129ZM484 61Q487 61 488 56T487 50L364 -10Q362 -11 359 -11Q351 -11 343 11T332 67Q297 31 261 10T181 -11Q119 -11 77 34T35 162Q35 234 68 288T154 370T262 399Q315 399 359 370Q379 380 390 396Q391 397
393 397Q395 397 397 396T400 393V107Q400 75 407 61T433 47Q446 47 482 60L484 61ZM273 29T332 84V292Q332 329 304 354T237 379Q181 379 147 327T113 193Q113 118 141 74T220 29Q273 29 332 84Z" />
<glyph unicode="&#xe4;" glyph-name="adieresis" horiz-adv-x="490" d="M148 473T136 485T124 519Q124 540 136 551T170 563Q192 563 203 552T215 519Q215 497 204 485T170 473Q148 473 136 485ZM323 473T311 485T299 519Q299 540 311 551T345 563Q367 563 378
552T390 519Q390 497 379 485T345 473Q323 473 311 485ZM484 61Q487 61 488 56T487 50L364 -10Q362 -11 359 -11Q351 -11 343 11T332 67Q297 31 261 10T181 -11Q119 -11 77 34T35 162Q35 234 68 288T154 370T262 399Q315 399 359 370Q379 380 390 396Q391 397 393
397Q395 397 397 396T400 393V107Q400 75 407 61T433 47Q446 47 482 60L484 61ZM273 29T332 84V292Q332 329 304 354T237 379Q181 379 147 327T113 193Q113 118 141 74T220 29Q273 29 332 84Z" />
<glyph unicode="&#xe5;" glyph-name="aring" horiz-adv-x="490" d="M205 468T180 491T154 547Q154 583 186 604T258 625Q296 625 324 602T352 545Q352 510 320 489T248 468Q205 468 180 491ZM222 613T215 602T208 567Q208 533 223 506T264 479Q297 479 297 527Q297
562 280 587T238 613Q222 613 215 602ZM484 61Q487 61 488 56T487 50L364 -10Q362 -11 359 -11Q351 -11 343 11T332 67Q297 31 261 10T181 -11Q119 -11 77 34T35 162Q35 234 68 288T154 370T262 399Q315 399 359 370Q379 380 390 396Q391 397 393 397Q395 397 397
396T400 393V107Q400 75 407 61T433 47Q446 47 482 60L484 61ZM273 29T332 84V292Q332 329 304 354T237 379Q181 379 147 327T113 193Q113 118 141 74T220 29Q273 29 332 84Z" />
<glyph unicode="&#xe6;" glyph-name="ae" horiz-adv-x="627" d="M585 54Q588 54 590 51T591 44Q559 14 527 1T456 -12Q405 -12 365 10T305 79Q272 38 237 13T157 -13Q106 -13 71 27T35 136Q35 227 73 285T165 370T266 396Q294 396 323 387T372 357Q398 376 428
385T488 395Q540 395 568 369T597 296Q597 271 585 271L365 270Q361 247 361 215Q361 118 394 68T485 18Q516 18 540 26T584 54H585ZM248 26T300 91Q288 124 288 170Q288 246 320 300Q304 342 284 360T233 378Q202 378 175 355T130 285T113 167Q113 102 136 64T198
26Q248 26 300 91ZM422 375T400 352T368 285L516 289Q515 330 498 352T454 375Q422 375 400 352Z" />
<glyph unicode="&#xe7;" glyph-name="ccedilla" horiz-adv-x="415" d="M378 58Q381 58 383 55T383 50Q348 18 312 3T232 -12H226Q219 -40 219 -50Q219 -66 228 -75T261 -99Q286 -113 301 -131T316 -176Q316 -215 289 -245T206 -275Q175 -275 157 -265T138 -234Q138
-221 148 -211T172 -201Q186 -201 192 -207T205 -227Q211 -240 218 -247T240 -254Q271 -254 271 -220Q271 -194 253 -174T186 -127Q173 -120 173 -114Q173 -110 178 -97Q194 -61 211 -11Q153 -6 113 23T54 95T35 185Q35 249 68 296T153 369T259 395Q304 395 341
377T378 330Q378 315 367 304T337 293Q304 293 287 332Q276 355 263 365T224 375Q172 375 143 332T113 216Q113 133 153 80T276 27Q331 27 376 58H378Z" />
<glyph unicode="&#xe8;" glyph-name="egrave" horiz-adv-x="411" d="M128 727Q127 731 138 731Q154 731 177 726T201 716L246 476Q247 474 242 473T236 474L128 727ZM371 59Q374 59 376 56T377 49Q342 17 306 3T227 -12Q167 -12 124 14T58 85T35 180Q35 239 63
288T142 366T254 395Q310 395 341 369T372 296Q372 271 361 271H313L116 269Q112 249 112 220Q112 134 153 81T268 28Q326 28 370 59H371ZM182 375T156 352T119 285L291 289Q290 329 271 352T219 375Q182 375 156 352Z" />
<glyph unicode="&#xe9;" glyph-name="eacute" horiz-adv-x="411" d="M228 472T224 472Q221 472 219 473T217 476L263 716Q264 720 287 725T326 731Q337 731 336 727L228 474Q228 472 224 472ZM371 59Q374 59 376 56T377 49Q342 17 306 3T227 -12Q167 -12 124 14T58
85T35 180Q35 239 63 288T142 366T254 395Q310 395 341 369T372 296Q372 271 361 271H313L116 269Q112 249 112 220Q112 134 153 81T268 28Q326 28 370 59H371ZM182 375T156 352T119 285L291 289Q290 329 271 352T219 375Q182 375 156 352Z" />
<glyph unicode="&#xea;" glyph-name="ecircumflex" horiz-adv-x="411" d="M162 472T158 472Q155 472 153 473T151 476L219 725Q220 730 230 730Q241 730 242 725L309 476Q311 474 306 473T299 474L231 621L162 474Q162 472 158 472ZM371 59Q374 59 376 56T377
49Q342 17 306 3T227 -12Q167 -12 124 14T58 85T35 180Q35 239 63 288T142 366T254 395Q310 395 341 369T372 296Q372 271 361 271H313L116 269Q112 249 112 220Q112 134 153 81T268 28Q326 28 370 59H371ZM182 375T156 352T119 285L291 289Q290 329 271 352T219
375Q182 375 156 352Z" />
<glyph unicode="&#xeb;" glyph-name="edieresis" horiz-adv-x="411" d="M121 473T109 485T97 519Q97 540 109 551T143 563Q165 563 176 552T188 519Q188 497 177 485T143 473Q121 473 109 485ZM296 473T284 485T272 519Q272 540 284 551T318 563Q340 563 351 552T363
519Q363 497 352 485T318 473Q296 473 284 485ZM371 59Q374 59 376 56T377 49Q342 17 306 3T227 -12Q167 -12 124 14T58 85T35 180Q35 239 63 288T142 366T254 395Q310 395 341 369T372 296Q372 271 361 271H313L116 269Q112 249 112 220Q112 134 153 81T268 28Q326
28 370 59H371ZM182 375T156 352T119 285L291 289Q290 329 271 352T219 375Q182 375 156 352Z" />
<glyph unicode="&#xec;" glyph-name="igrave" horiz-adv-x="270" d="M34 731T45 731Q61 731 84 726T108 716L153 476Q154 474 149 473T143 474L35 727Q34 731 45 731ZM46 0T46 6T49 12Q85 12 97 25T109 81V265Q109 301 102 316T77 332Q60 332 34 319H33Q29 319
27 324T29 331L165 394L169 395Q172 395 175 392T179 385Q179 378 178 345T177 267V81Q177 39 188 26T237 12Q240 12 240 6T237 0Q213 0 198 1L143 2L88 1Q73 0 49 0Q46 0 46 6Z" />
<glyph unicode="&#xed;" glyph-name="iacute" horiz-adv-x="270" d="M135 472T131 472Q128 472 126 473T124 476L170 716Q171 720 194 725T233 731Q244 731 243 727L135 474Q135 472 131 472ZM46 0T46 6T49 12Q85 12 97 25T109 81V265Q109 301 102 316T77 332Q60
332 34 319H33Q29 319 27 324T29 331L165 394L169 395Q172 395 175 392T179 385Q179 378 178 345T177 267V81Q177 39 188 26T237 12Q240 12 240 6T237 0Q213 0 198 1L143 2L88 1Q73 0 49 0Q46 0 46 6Z" />
<glyph unicode="&#xee;" glyph-name="icircumflex" horiz-adv-x="270" d="M218 474T213 473T206 474L138 621L69 474Q69 472 65 472Q62 472 60 473T58 476L126 725Q127 730 137 730Q148 730 149 725L216 476Q218 474 213 473ZM46 0T46 6T49 12Q85 12 97 25T109
81V265Q109 301 102 316T77 332Q60 332 34 319H33Q29 319 27 324T29 331L165 394L169 395Q172 395 175 392T179 385Q179 378 178 345T177 267V81Q177 39 188 26T237 12Q240 12 240 6T237 0Q213 0 198 1L143 2L88 1Q73 0 49 0Q46 0 46 6Z" />
<glyph unicode="&#xef;" glyph-name="idieresis" horiz-adv-x="270" d="M43 473T30 485T17 519Q17 540 30 551T64 563Q86 563 98 552T110 519Q110 497 98 485T64 473Q43 473 30 485ZM189 473T177 485T164 519Q164 540 176 551T210 563Q231 563 243 552T255 519Q255
497 243 485T210 473Q189 473 177 485ZM46 0T46 6T49 12Q85 12 97 25T109 81V265Q109 301 102 316T77 332Q60 332 34 319H33Q29 319 27 324T29 331L165 394L169 395Q172 395 175 392T179 385Q179 378 178 345T177 267V81Q177 39 188 26T237 12Q240 12 240 6T237
0Q213 0 198 1L143 2L88 1Q73 0 49 0Q46 0 46 6Z" />
<glyph unicode="&#xf0;" glyph-name="eth" horiz-adv-x="470" d="M372 495T408 406T444 227Q444 106 382 47T223 -13Q164 -13 120 14T51 87T26 186Q26 255 59 303T141 375T240 399Q292 399 337 371Q308 466 256 546L125 484Q120 482 116 494T115 509L241 569Q174
662 90 716Q88 718 88 719Q88 721 90 723T96 725Q206 674 286 590L389 639H390Q395 639 399 628T399 614L306 570Q372 495 408 406ZM306 7T335 48T364 191Q364 246 353 304Q332 340 300 359T230 379Q175 379 140 336T105 215Q105 158 123 111T174 35T251 7Q306
7 335 48Z" />
<glyph unicode="&#xf1;" glyph-name="ntilde" horiz-adv-x="520" d="M145 477Q142 477 140 479T140 484Q185 551 225 551Q239 551 275 541Q321 527 349 527Q366 527 376 533T399 554H400Q403 554 405 552T406 547Q380 507 363 493T326 479Q306 479 266 491Q262
492 241 498T197 504Q181 504 172 499T157 487T147 477H145ZM503 12T503 6T500 0Q476 0 461 1L406 2L351 1Q336 0 312 0Q309 0 309 6T312 12Q348 12 359 25T371 81V237Q371 295 350 322T283 349Q255 349 225 335T171 296V81Q171 39 182 26T231 12Q234 12 234 6T231
0Q207 0 192 1L137 2L81 1Q67 0 43 0Q40 0 40 6T43 12Q79 12 90 25T102 81V276Q102 309 95 323T69 338Q50 338 16 324H14Q11 324 10 329T11 335L135 394Q137 395 141 395Q151 395 160 373T171 314Q244 399 324 399Q379 399 409 367T440 276V81Q440 39 451 26T500
12Q503 12 503 6Z" />
<glyph unicode="&#xf2;" glyph-name="ograve" horiz-adv-x="482" d="M139 731T150 731Q166 731 189 726T213 716L258 476Q259 474 254 473T248 474L140 727Q139 731 150 731ZM174 -13T129 15T60 92T35 198Q35 263 67 308T149 376T251 399Q310 399 355 370T424
294T448 193Q448 132 419 85T340 13T233 -13Q174 -13 129 15ZM312 6T339 45T366 162Q366 227 347 276T293 352T217 379Q168 379 142 342T115 231Q115 168 134 117T186 36T262 6Q312 6 339 45Z" />
<glyph unicode="&#xf3;" glyph-name="oacute" horiz-adv-x="482" d="M240 472T236 472Q233 472 231 473T229 476L275 716Q276 720 299 725T338 731Q349 731 348 727L240 474Q240 472 236 472ZM174 -13T129 15T60 92T35 198Q35 263 67 308T149 376T251 399Q310
399 355 370T424 294T448 193Q448 132 419 85T340 13T233 -13Q174 -13 129 15ZM312 6T339 45T366 162Q366 227 347 276T293 352T217 379Q168 379 142 342T115 231Q115 168 134 117T186 36T262 6Q312 6 339 45Z" />
<glyph unicode="&#xf4;" glyph-name="ocircumflex" horiz-adv-x="482" d="M323 474T318 473T311 474L243 621L174 474Q174 472 170 472Q167 472 165 473T163 476L231 725Q232 730 242 730Q253 730 254 725L321 476Q323 474 318 473ZM174 -13T129 15T60 92T35 198Q35
263 67 308T149 376T251 399Q310 399 355 370T424 294T448 193Q448 132 419 85T340 13T233 -13Q174 -13 129 15ZM312 6T339 45T366 162Q366 227 347 276T293 352T217 379Q168 379 142 342T115 231Q115 168 134 117T186 36T262 6Q312 6 339 45Z" />
<glyph unicode="&#xf5;" glyph-name="otilde" horiz-adv-x="482" d="M335 527T345 533T368 554H369Q372 554 374 552T375 547Q349 507 332 493T295 479Q275 479 235 491Q231 492 210 498T166 504Q150 504 141 499T126 487T116 477H114Q111 477 109 479T109 484Q154
551 194 551Q208 551 244 541Q290 527 318 527Q335 527 345 533ZM174 -13T129 15T60 92T35 198Q35 263 67 308T149 376T251 399Q310 399 355 370T424 294T448 193Q448 132 419 85T340 13T233 -13Q174 -13 129 15ZM312 6T339 45T366 162Q366 227 347 276T293 352T217
379Q168 379 142 342T115 231Q115 168 134 117T186 36T262 6Q312 6 339 45Z" />
<glyph unicode="&#xf6;" glyph-name="odieresis" horiz-adv-x="482" d="M133 473T121 485T109 519Q109 540 121 551T155 563Q177 563 188 552T200 519Q200 497 189 485T155 473Q133 473 121 485ZM308 473T296 485T284 519Q284 540 296 551T330 563Q352 563 363
552T375 519Q375 497 364 485T330 473Q308 473 296 485ZM174 -13T129 15T60 92T35 198Q35 263 67 308T149 376T251 399Q310 399 355 370T424 294T448 193Q448 132 419 85T340 13T233 -13Q174 -13 129 15ZM312 6T339 45T366 162Q366 227 347 276T293 352T217 379Q168
379 142 342T115 231Q115 168 134 117T186 36T262 6Q312 6 339 45Z" />
<glyph unicode="&#xf7;" glyph-name="divide" horiz-adv-x="398" d="M175 299T162 312T149 348Q149 370 162 382T198 394Q221 394 233 382T246 348Q246 325 234 312T198 299Q175 299 162 312ZM32 168T31 175T29 191Q29 198 30 204T33 211H364Q366 211 367 205T369
190Q369 182 368 175T364 168H34Q32 168 31 175ZM176 -11T163 2T149 38Q149 60 162 72T198 85Q220 85 233 73T246 38Q246 15 233 2T198 -11Q176 -11 163 2Z" />
<glyph unicode="&#xf8;" glyph-name="oslash" horiz-adv-x="477" d="M420 308T434 271T448 193Q448 132 419 85T340 13T233 -13Q156 -13 102 36L53 -15L52 -16Q47 -16 40 -9T36 2L86 53Q61 81 48 119T35 198Q35 263 67 308T149 376T251 399Q324 399 377 353L422
399L424 400Q429 400 435 394T439 384L394 337Q420 308 434 271ZM115 161T138 107L332 306Q312 341 282 360T217 379Q168 379 142 342T115 231Q115 161 138 107ZM312 6T339 45T366 162Q366 233 343 285L148 84Q169 47 198 27T262 6Q312 6 339 45Z" />
<glyph unicode="&#xf9;" glyph-name="ugrave" horiz-adv-x="497" d="M142 727Q141 731 152 731Q168 731 191 726T215 716L260 476Q261 474 256 473T250 474L142 727ZM490 60Q494 60 496 56T495 49L371 -10Q369 -11 366 -11Q357 -11 348 12T339 74Q265 -9 185 -9Q134
-9 105 23T75 114V265Q75 303 68 319T45 336Q31 336 14 328H12Q9 328 8 333T9 339L127 394L131 395Q135 395 139 392T143 385V152Q143 39 227 39Q255 39 285 53T339 92V265Q339 303 332 319T309 336Q296 336 277 328H275Q272 328 271 333T273 339L391 394L395 395Q399
395 403 392T407 385V110Q407 76 414 61T440 46Q456 46 489 60H490Z" />
<glyph unicode="&#xfa;" glyph-name="uacute" horiz-adv-x="497" d="M242 472T238 472Q235 472 233 473T231 476L277 716Q278 720 301 725T340 731Q351 731 350 727L242 474Q242 472 238 472ZM490 60Q494 60 496 56T495 49L371 -10Q369 -11 366 -11Q357 -11 348
12T339 74Q265 -9 185 -9Q134 -9 105 23T75 114V265Q75 303 68 319T45 336Q31 336 14 328H12Q9 328 8 333T9 339L127 394L131 395Q135 395 139 392T143 385V152Q143 39 227 39Q255 39 285 53T339 92V265Q339 303 332 319T309 336Q296 336 277 328H275Q272 328 271
333T273 339L391 394L395 395Q399 395 403 392T407 385V110Q407 76 414 61T440 46Q456 46 489 60H490Z" />
<glyph unicode="&#xfb;" glyph-name="ucircumflex" horiz-adv-x="497" d="M176 472T172 472Q169 472 167 473T165 476L233 725Q234 730 244 730Q255 730 256 725L323 476Q325 474 320 473T313 474L245 621L176 474Q176 472 172 472ZM490 60Q494 60 496 56T495
49L371 -10Q369 -11 366 -11Q357 -11 348 12T339 74Q265 -9 185 -9Q134 -9 105 23T75 114V265Q75 303 68 319T45 336Q31 336 14 328H12Q9 328 8 333T9 339L127 394L131 395Q135 395 139 392T143 385V152Q143 39 227 39Q255 39 285 53T339 92V265Q339 303 332 319T309
336Q296 336 277 328H275Q272 328 271 333T273 339L391 394L395 395Q399 395 403 392T407 385V110Q407 76 414 61T440 46Q456 46 489 60H490Z" />
<glyph unicode="&#xfc;" glyph-name="udieresis" horiz-adv-x="497" d="M135 473T123 485T111 519Q111 540 123 551T157 563Q179 563 190 552T202 519Q202 497 191 485T157 473Q135 473 123 485ZM310 473T298 485T286 519Q286 540 298 551T332 563Q354 563 365
552T377 519Q377 497 366 485T332 473Q310 473 298 485ZM490 60Q494 60 496 56T495 49L371 -10Q369 -11 366 -11Q357 -11 348 12T339 74Q265 -9 185 -9Q134 -9 105 23T75 114V265Q75 303 68 319T45 336Q31 336 14 328H12Q9 328 8 333T9 339L127 394L131 395Q135
395 139 392T143 385V152Q143 39 227 39Q255 39 285 53T339 92V265Q339 303 332 319T309 336Q296 336 277 328H275Q272 328 271 333T273 339L391 394L395 395Q399 395 403 392T407 385V110Q407 76 414 61T440 46Q456 46 489 60H490Z" />
<glyph unicode="&#xfd;" glyph-name="yacute" horiz-adv-x="489" d="M257 472T253 472Q250 472 248 473T246 476L292 716Q293 720 316 725T355 731Q366 731 365 727L257 474Q257 472 253 472ZM409 395T413 392T417 385V-70Q417 -165 365 -223T213 -281Q155 -281
115 -260T75 -203Q75 -186 86 -177T113 -167Q130 -167 141 -176T165 -205Q183 -231 202 -245T257 -260Q300 -260 324 -225T349 -94V74Q275 -9 192 -9Q140 -9 112 23T83 114V265Q83 303 76 319T53 336Q38 336 21 328H19Q16 328 15 333T16 339L135 394L138 395Q142
395 146 392T151 385V152Q151 95 171 68T234 40Q263 40 293 54T349 93V265Q349 303 342 319T319 336Q305 336 288 328H286Q283 328 282 333T283 339L401 394L405 395Q409 395 413 392Z" />
<glyph unicode="&#xfe;" glyph-name="thorn" horiz-adv-x="493" d="M344 399T379 377T436 313T458 215Q458 138 425 87T341 11T241 -13Q212 -13 189 -9T141 7V-194Q141 -224 148 -238T176 -257T238 -263Q240 -263 240 -269T238 -275Q202 -275 182 -274L107 -273L51
-274Q37 -275 12 -275Q10 -275 10 -269T12 -263Q38 -263 51 -258T68 -238T73 -194V595Q73 631 67 646T42 662Q25 662 -1 649H-3Q-6 649 -8 654T-7 660L126 724L130 725Q134 725 137 722T141 715V320Q220 399 303 399Q344 399 379 377ZM319 9T350 54T382 184Q382
265 346 310T253 355Q221 355 195 341T141 300V69Q166 40 195 25T267 9Q319 9 350 54Z" />
<glyph unicode="&#xff;" glyph-name="ydieresis" horiz-adv-x="489" d="M150 473T138 485T126 519Q126 540 138 551T172 563Q194 563 205 552T217 519Q217 497 206 485T172 473Q150 473 138 485ZM325 473T313 485T301 519Q301 540 313 551T347 563Q369 563 380
552T392 519Q392 497 381 485T347 473Q325 473 313 485ZM409 395T413 392T417 385V-70Q417 -165 365 -223T213 -281Q155 -281 115 -260T75 -203Q75 -186 86 -177T113 -167Q130 -167 141 -176T165 -205Q183 -231 202 -245T257 -260Q300 -260 324 -225T349 -94V74Q275
-9 192 -9Q140 -9 112 23T83 114V265Q83 303 76 319T53 336Q38 336 21 328H19Q16 328 15 333T16 339L135 394L138 395Q142 395 146 392T151 385V152Q151 95 171 68T234 40Q263 40 293 54T349 93V265Q349 303 342 319T319 336Q305 336 288 328H286Q283 328 282 333T283
339L401 394L405 395Q409 395 413 392Z" />
<glyph unicode="&#x2013;" glyph-name="endash" horiz-adv-x="515" d="M32 168T31 175T29 191Q29 198 30 204T33 211H481Q483 211 484 205T486 190Q486 182 485 175T481 168H34Q32 168 31 175Z" />
<glyph unicode="&#x2014;" glyph-name="emdash" horiz-adv-x="830" d="M32 168T31 175T29 191Q29 198 30 204T33 211H796Q798 211 799 205T801 190Q801 182 800 175T796 168H34Q32 168 31 175Z" />
<glyph unicode="&#x2018;" glyph-name="quoteleft" horiz-adv-x="171" d="M116 493T127 481T139 448Q139 426 126 415T87 403Q56 403 38 427T20 495Q20 537 38 572T94 644Q95 645 97 645Q100 645 102 642T102 637Q53 587 53 519Q53 491 63 478Q72 493 96 493Q116
493 127 481Z" />
<glyph unicode="&#x2019;" glyph-name="quoteright" horiz-adv-x="159" d="M103 630T121 606T139 538Q139 496 121 461T65 389Q64 388 62 388Q59 388 57 391T57 396Q106 446 106 514Q106 542 96 555Q87 540 63 540Q43 540 32 552T20 585Q20 607 33 618T72 630Q103
630 121 606Z" />
<glyph unicode="&#x201a;" glyph-name="quotesinglbase" horiz-adv-x="159" d="M103 82T121 58T139 -10Q139 -52 121 -87T65 -159Q64 -160 62 -160Q59 -160 57 -157T57 -152Q106 -102 106 -34Q106 -6 96 7Q87 -8 63 -8Q43 -8 32 4T20 37Q20 59 33 70T72 82Q103
82 121 58Z" />
<glyph unicode="&#x201c;" glyph-name="quotedblleft" horiz-adv-x="315" d="M116 493T127 481T139 448Q139 426 126 415T87 403Q56 403 38 427T20 495Q20 537 38 572T94 644Q95 645 97 645Q100 645 102 642T102 637Q53 587 53 519Q53 491 63 478Q72 493 96 493Q116
493 127 481ZM272 493T283 481T295 448Q295 426 282 415T243 403Q212 403 194 427T176 495Q176 537 194 572T250 644Q251 645 253 645Q256 645 258 642T258 637Q209 587 209 519Q209 491 219 478Q228 493 252 493Q272 493 283 481Z" />
<glyph unicode="&#x201d;" glyph-name="quotedblright" horiz-adv-x="315" d="M103 630T121 606T139 538Q139 496 121 461T65 389Q64 388 62 388Q59 388 57 391T57 396Q106 446 106 514Q106 542 96 555Q87 540 63 540Q43 540 32 552T20 585Q20 607 33 618T72 630Q103
630 121 606ZM259 630T277 606T295 538Q295 496 277 461T221 389Q220 388 218 388Q215 388 213 391T213 396Q262 446 262 514Q262 542 252 555Q243 540 219 540Q199 540 188 552T176 585Q176 607 189 618T228 630Q259 630 277 606Z" />
<glyph unicode="&#x201e;" glyph-name="quotedblbase" horiz-adv-x="321" d="M103 82T121 58T139 -10Q139 -52 121 -87T65 -159Q64 -160 62 -160Q59 -160 57 -157T57 -152Q106 -102 106 -34Q106 -6 96 7Q87 -8 63 -8Q43 -8 32 4T20 37Q20 59 33 70T72 82Q103 82
121 58ZM259 82T277 58T295 -10Q295 -52 277 -87T221 -159Q220 -160 218 -160Q215 -160 213 -157T213 -152Q262 -102 262 -34Q262 -6 252 7Q243 -8 219 -8Q199 -8 188 4T176 37Q176 59 189 70T228 82Q259 82 277 58Z" />
<glyph unicode="&#x2022;" glyph-name="bullet" horiz-adv-x="312" d="M113 145T83 175T52 248Q52 290 82 320T156 351Q199 351 229 321T259 248Q259 205 229 175T156 145Q113 145 83 175Z" />
<glyph unicode="&#x2039;" glyph-name="guilsinglleft" horiz-adv-x="304" d="M57 189Q53 193 53 201Q53 208 57 212L238 361Q238 362 240 362Q242 362 244 360T245 356L132 201L245 46Q246 44 243 41T238 40L57 189Z" />
<glyph unicode="&#x203a;" glyph-name="guilsinglright" horiz-adv-x="304" d="M247 212Q252 207 252 201Q252 194 247 189L66 40Q66 39 64 39Q62 39 60 41T59 46L172 200L59 356Q58 358 61 361T66 361L247 212Z" />
</font>
</defs>
</svg>
