<?xml version="1.0" standalone="no"?>
<!DOCTYPE svg PUBLIC "-//W3C//DTD SVG 1.1//EN" "http://www.w3.org/Graphics/SVG/1.1/DTD/svg11.dtd">
<svg xmlns="http://www.w3.org/2000/svg">
<defs >
<font id="Trirong" horiz-adv-x="615" ><font-face
    font-family="Trirong"
    units-per-em="1000"
    panose-1="0 0 8 0 0 0 0 0 0 0"
    ascent="1200"
    descent="-534"
    alphabetic="0" />
<glyph unicode=" " glyph-name="space" horiz-adv-x="252" />
<glyph unicode="!" glyph-name="exclam" horiz-adv-x="341" d="M172 613Q172 624 173 629Q191 710 268 710Q332 710 332 656Q332 643 329 629L325 613L188 169H126L172 613ZM95 -10T81 4T66 42Q66 55 68 62Q74 95 96 114T151 134Q178 134 193 120T208 81Q208 76
206 62Q198 29 176 10T122 -10Q95 -10 81 4Z" />
<glyph unicode="&quot;" glyph-name="quotedbl" horiz-adv-x="447" d="M136 637L137 642Q145 679 162 698T220 717Q250 717 262 705T275 671Q275 658 272 643L271 637L181 416H133L136 637ZM342 637L343 642Q351 679 368 698T426 717Q457 717 469 705T482 671Q482
658 479 643L478 637L388 416H340L342 637Z" />
<glyph unicode="#" glyph-name="numbersign" horiz-adv-x="837" d="M697 459L598 233H748L738 183H576L492 -10H393L477 183H264L180 -10H81L165 183H18L28 233H187L286 459H135L146 509H307L385 687H484L406 509H620L698 687H796L718 509H867L856 459H697ZM598
459H385L286 233H499L598 459Z" />
<glyph unicode="$" glyph-name="dollar" horiz-adv-x="577" d="M529 523T529 547Q529 567 533 621Q517 639 487 648T420 658Q358 658 318 633T266 555Q264 543 264 539Q264 505 291 485T377 438Q432 413 465 392T523 336T548 247Q548 224 542 195Q525 108 452
55T276 -8L258 -98H213L231 -10Q152 -9 92 17T8 85L52 231H88Q89 223 89 205Q89 161 80 98Q99 72 131 57T206 42Q269 42 320 76T384 174Q387 188 387 199Q387 229 370 250T328 286T260 319Q209 340 178 358T125 408T103 485Q103 503 108 530Q126 614 197 659T377
710L392 785H437L422 710Q489 707 534 690T608 637L567 500H532Q529 523 529 547Z" />
<glyph unicode="%" glyph-name="percent" horiz-adv-x="916" d="M91 -12L830 731L864 696L123 -45L91 -12ZM155 315T115 350T75 450Q75 477 81 507Q100 597 158 647T316 698Q480 698 480 563Q480 537 474 507Q455 415 397 365T238 315Q155 315 115 350ZM286 364T312
407T349 507Q356 540 356 568Q356 604 344 626T306 649Q269 649 243 606T205 507Q199 479 199 448Q199 411 210 388T248 364Q286 364 312 407ZM562 -11T522 24T482 125Q482 151 488 181Q507 271 565 321T724 372Q807 372 847 337T887 237Q887 211 881 181Q862 90
804 40T645 -11Q562 -11 522 24ZM692 38T718 82T756 181Q763 214 763 242Q763 278 751 301T713 324Q676 324 650 280T612 181Q606 153 606 122Q606 85 617 62T655 38Q692 38 718 82Z" />
<glyph unicode="&amp;" glyph-name="ampersand" horiz-adv-x="735" d="M690 276T656 223T575 127L668 0H499L463 47Q357 -10 243 -10Q140 -10 80 29T19 140Q19 150 23 174Q39 249 93 298T236 390Q191 485 191 541Q191 558 193 565Q207 638 265 674T404 710Q550
710 550 615Q550 602 547 585Q540 550 516 522T464 474T377 417Q421 340 550 161Q624 237 653 333H707Q690 276 656 223ZM330 568T330 552Q330 509 359 450Q413 478 446 509T487 582Q490 596 490 606Q490 633 474 647T427 661Q393 661 367 642T333 581Q330 568
330 552ZM360 42T438 80Q322 237 265 337Q189 266 171 177Q167 161 167 143Q167 94 197 68T271 42Q360 42 438 80Z" />
<glyph unicode="&apos;" glyph-name="quotesingle" horiz-adv-x="242" d="M136 637L137 642Q145 679 162 698T220 717Q250 717 262 705T275 671Q275 658 272 643L271 637L181 416H133L136 637Z" />
<glyph unicode="(" glyph-name="parenleft" horiz-adv-x="261" d="M36 12T36 165Q36 235 51 310Q101 553 282 730H340Q283 664 250 599T199 468T158 288Q129 146 129 64Q129 13 138 -28T168 -109H110Q36 12 36 165Z" />
<glyph unicode=")" glyph-name="parenright" horiz-adv-x="261" d="M10 -47T43 19T95 152T136 330Q165 473 165 557Q165 606 156 647T126 730H184Q258 609 258 455Q258 385 243 310Q194 68 12 -109H-45Q10 -47 43 19Z" />
<glyph unicode="*" glyph-name="asterisk" horiz-adv-x="520" d="M155 324T145 333T135 357Q135 363 136 367Q141 392 181 419L270 480L164 505Q132 513 132 544Q132 551 133 555Q138 573 150 584T178 596Q198 596 209 589L300 526Q297 558 297 600Q297 636 301
655Q305 676 319 689T357 702Q394 702 394 668Q394 650 377 607T340 526L459 589Q472 596 491 596Q504 596 512 588T520 566Q520 559 519 555Q515 535 502 523T469 505L353 480L417 419Q442 394 442 373Q442 352 426 338T390 324Q361 324 345 351T314 430Q312 436
310 442T306 456L291 434Q254 381 226 353T168 324Q155 324 145 333Z" />
<glyph unicode="+" glyph-name="plus" horiz-adv-x="584" d="M228 276H48L63 349H244L282 540H428L389 349H570L555 276H374L336 85H190L228 276Z" />
<glyph unicode="," glyph-name="comma" horiz-adv-x="256" d="M-13 -114Q14 -91 38 -61T75 0H70Q60 0 52 3Q34 7 24 20T13 52Q13 57 15 67Q22 101 46 124T106 148Q140 148 156 129T172 82Q172 74 170 60Q158 5 117 -53T26 -151L-13 -114Z" />
<glyph unicode="-" glyph-name="hyphen" horiz-adv-x="433" d="M64 322H407L390 240H48L64 322Z" />
<glyph unicode="." glyph-name="period" horiz-adv-x="256" d="M49 -10T33 6T16 50Q16 92 43 122T112 152Q142 152 158 135T175 90Q175 48 147 19T78 -10Q49 -10 33 6Z" />
<glyph unicode="/" glyph-name="slash" horiz-adv-x="357" d="M375 702H431L32 0H-22L375 702Z" />
<glyph unicode="0" glyph-name="zero" horiz-adv-x="606" d="M40 -10T40 212Q40 270 56 350Q129 710 400 710Q614 710 614 488Q614 430 598 350Q525 -10 253 -10Q40 -10 40 212ZM326 42T370 122T444 350Q467 465 467 529Q467 658 389 658Q327 658 283 578T210
350Q187 233 187 169Q187 42 264 42Q326 42 370 122Z" />
<glyph unicode="1" glyph-name="one" horiz-adv-x="606" d="M74 26Q164 45 202 46L320 622L182 565L195 630L496 745L353 45Q408 41 473 27L468 0H69L74 26Z" />
<glyph unicode="2" glyph-name="two" horiz-adv-x="606" d="M-3 48Q26 119 83 173T235 296Q300 343 338 375T406 446T445 531Q449 547 449 566Q449 609 423 633T348 658Q302 658 254 640T163 590L146 632Q193 665 254 687T385 710Q488 710 546 677T604 572Q604
555 599 530Q587 474 550 429T465 350T340 272Q253 222 205 186T133 103H461Q469 122 483 148T509 190H547L496 0H-13L-3 48Z" />
<glyph unicode="3" glyph-name="three" horiz-adv-x="606" d="M86 -10T15 68L50 109Q76 80 120 61T209 42Q275 42 324 83T389 202Q394 225 394 243Q394 289 369 317T292 346H194L204 398H302Q358 398 396 439T446 533Q450 557 450 567Q450 610 425 634T350 658Q303
658 255 641T167 591L148 632Q264 710 387 710Q490 710 549 677T608 574Q608 554 604 537Q593 481 545 434T436 376V372Q486 360 516 326T547 241Q547 221 543 204Q520 95 434 43T230 -10Q86 -10 15 68Z" />
<glyph unicode="4" glyph-name="four" horiz-adv-x="606" d="M196 24Q265 44 302 44L324 154H13L28 226L447 701H587L494 249H599L564 154H475L453 45Q499 42 545 24L540 0H192L196 24ZM343 249L413 592H412L116 249H343Z" />
<glyph unicode="5" glyph-name="five" horiz-adv-x="606" d="M147 -10T97 9T10 68L45 109Q72 78 114 60T199 42Q265 42 314 87T382 218Q390 255 390 285Q390 393 291 393Q206 393 132 311L90 321L213 700H601L575 604H238L166 387Q245 444 345 444Q450 444 496
400T542 281Q542 256 535 219Q514 115 430 53T217 -10Q147 -10 97 9Z" />
<glyph unicode="6" glyph-name="six" horiz-adv-x="606" d="M45 -10T45 195Q45 241 58 308Q99 510 199 610T446 710Q525 710 563 689T627 632L591 591Q547 658 454 658Q415 658 373 633T290 546T222 379Q244 415 287 437T375 460Q474 460 523 416T573 293Q573
261 566 230Q544 121 462 56T256 -10Q45 -10 45 195ZM321 42T359 92T413 221Q421 256 421 294Q421 345 402 375T343 406Q296 406 257 356T201 226Q194 194 194 159Q194 107 213 75T269 42Q321 42 359 92Z" />
<glyph unicode="7" glyph-name="seven" horiz-adv-x="606" d="M215 324T481 604H193Q190 597 179 568T150 514H109L147 700H658L648 649Q563 580 483 466T343 227T256 0H111Q215 324 481 604Z" />
<glyph unicode="8" glyph-name="eight" horiz-adv-x="606" d="M133 -10T80 33T27 146Q27 167 32 194Q46 261 96 309T213 372V375Q171 386 145 423T119 507Q119 522 122 537Q139 620 213 665T400 710Q499 710 556 674T613 572Q613 561 609 537Q598 484 552 436T451
375V372Q501 358 531 321T562 232Q562 211 558 194Q540 105 467 48T253 -10Q133 -10 80 33ZM381 396T414 438T460 540Q464 557 464 576Q464 616 443 637T389 658Q349 658 317 629T272 540Q267 513 267 492Q267 449 285 423T337 396Q381 396 414 438ZM292 42T322
59T375 109T408 191Q414 220 414 244Q414 293 391 319T326 345Q274 345 236 305T182 191Q177 170 177 145Q177 95 201 69T263 42Q292 42 322 59Z" />
<glyph unicode="9" glyph-name="nine" horiz-adv-x="606" d="M130 -10T93 11T29 67L65 109Q106 42 201 42Q266 42 330 103T432 314Q411 278 368 256T279 233Q180 233 131 278T82 403Q82 436 89 467Q104 538 145 593T251 679T399 710Q611 710 611 503Q611 454 599
392Q557 189 457 90T209 -10Q130 -10 93 11ZM359 288T398 339T454 470Q461 502 461 538Q461 591 442 624T386 658Q335 658 297 607T241 475Q233 435 233 404Q233 351 253 320T312 288Q359 288 398 339Z" />
<glyph unicode=":" glyph-name="colon" horiz-adv-x="256" d="M119 336T103 352T86 397Q86 410 88 417Q96 452 121 475T182 498Q212 498 229 481T246 436Q246 431 244 417Q236 382 210 359T149 336Q119 336 103 352ZM49 -10T33 6T16 50Q16 92 43 122T112 152Q142
152 158 135T175 90Q175 48 147 19T78 -10Q49 -10 33 6Z" />
<glyph unicode=";" glyph-name="semicolon" horiz-adv-x="256" d="M119 336T103 352T86 397Q86 410 88 417Q96 452 121 475T182 498Q212 498 229 481T246 436Q246 431 244 417Q236 382 210 359T149 336Q119 336 103 352ZM-13 -114Q14 -91 38 -61T75 0Q47 -2 30
13T13 53Q13 57 15 67Q22 101 46 124T106 148Q140 148 156 129T172 82Q172 74 170 60Q158 5 117 -53T26 -151L-13 -114Z" />
<glyph unicode="&lt;" glyph-name="less" horiz-adv-x="584" d="M64 312L72 351L603 595L586 515L196 332L511 149L495 68L64 312Z" />
<glyph unicode="=" glyph-name="equal" horiz-adv-x="584" d="M89 424H574L558 352H74L89 424ZM48 225H532L518 153H33L48 225Z" />
<glyph unicode="&gt;" glyph-name="greater" horiz-adv-x="584" d="M39 149L429 332L114 515L130 595L561 351L554 312L23 68L39 149Z" />
<glyph unicode="?" glyph-name="question" horiz-adv-x="481" d="M172 204T177 227Q190 292 220 333T298 418Q337 455 357 481T385 544Q389 561 389 581Q389 618 366 638T287 658Q243 658 203 642T118 592L103 631Q159 671 217 690T345 710Q425 710 476 679T527
582Q527 563 523 546Q515 505 494 475T448 424T382 377Q341 350 316 329T269 278T240 206Q240 202 239 195T237 180H172Q172 204 177 227ZM139 -10T124 4T109 42Q109 55 111 62Q118 95 140 114T195 134Q222 134 237 120T252 81Q252 76 250 62Q243 29 220 10T165
-10Q139 -10 124 4Z" />
<glyph unicode="@" glyph-name="at" horiz-adv-x="800" d="M236 -58T169 -23T69 73T36 211Q36 252 45 294Q65 394 127 480T288 618T506 671Q591 671 656 640T756 551T792 416Q792 380 785 346Q772 285 741 233T665 150T572 119Q536 119 517 134T498 177Q498 188
501 200H497Q472 158 431 139T349 119Q277 119 244 151T210 240Q210 265 216 290Q227 344 259 390T343 466T465 496Q561 496 615 456L552 227Q550 213 550 207Q550 189 559 179T589 168Q617 168 646 191T698 255T731 347Q738 378 738 410Q738 474 709 522T627 597T501
624Q399 624 317 580T183 463T112 302Q103 259 103 217Q103 115 165 54T362 -7Q407 -7 468 4T582 40L572 -14Q514 -35 451 -46T335 -58Q236 -58 169 -23ZM395 169T422 194T461 260L510 426Q501 432 485 435T457 438Q411 438 372 389T320 275Q316 256 316 235Q316
204 328 187T365 169Q395 169 422 194Z" />
<glyph unicode="A" glyph-name="A" horiz-adv-x="746" d="M657 33T696 18L693 0H392L396 20Q441 35 477 41L459 178H196L120 39Q149 35 194 16L191 0H-41L-37 21Q-14 28 8 34T43 42L415 704H523L626 40Q657 33 696 18ZM452 228L407 562L224 228H452Z" />
<glyph unicode="B" glyph-name="B" horiz-adv-x="617" d="M-21 17Q34 37 60 42L187 660Q155 666 114 681L118 700H431Q539 700 588 670T637 579Q637 562 632 537Q621 481 581 436T476 373L475 367Q537 352 565 315T594 229Q594 216 590 194Q570 97 506 49T318
0H-24L-21 17ZM344 392Q396 392 430 428T479 528Q484 551 484 575Q484 614 464 632T401 650H336L283 392H344ZM308 49Q410 49 441 200Q446 223 446 249Q446 295 423 319T355 343H272L213 49H308Z" />
<glyph unicode="C" glyph-name="C" horiz-adv-x="637" d="M187 -10T119 55T50 241Q50 292 62 350Q96 519 201 614T466 710Q547 710 598 690T681 631L638 485H603Q600 506 600 534Q600 573 605 618Q565 658 494 658Q393 658 319 576T216 350Q202 280 202 229Q202
139 240 91T355 42Q396 42 447 57T548 104L560 62Q515 28 453 9T323 -10Q187 -10 119 55Z" />
<glyph unicode="D" glyph-name="D" horiz-adv-x="687" d="M-14 19Q42 37 66 41L193 660Q170 665 121 682L124 700H442Q570 700 630 643T691 474Q691 420 677 350Q641 177 550 89T299 0H-18L-14 19ZM307 49Q391 49 442 127T524 350Q542 443 542 501Q542 650 432
650H340L217 49H307Z" />
<glyph unicode="E" glyph-name="E" horiz-adv-x="634" d="M675 700L639 523H606Q601 537 597 568T593 625Q593 636 595 650H348L292 375H458Q464 392 474 417T495 461H519L474 239H450Q447 266 447 295Q447 318 448 325H281L225 49H478Q485 75 510 116T553 175H585L532
0H-18L-15 18Q28 33 73 40L199 660Q161 667 121 682L124 700H675Z" />
<glyph unicode="F" glyph-name="F" horiz-adv-x="588" d="M660 700L625 523H592Q587 536 583 568T579 627Q579 644 580 650H348L287 354H454Q471 405 491 440H515L470 218H446Q442 242 442 274L443 304H277L223 39Q269 31 302 17L299 0H-18L-15 18Q35 34 73 39L199
660Q160 667 121 682L124 700H660Z" />
<glyph unicode="G" glyph-name="G" horiz-adv-x="693" d="M187 -10T117 56T46 243Q46 293 58 350Q80 461 137 542T281 666T474 710Q557 710 619 689T711 631L668 485H632Q630 500 630 535Q630 584 635 618Q615 638 577 648T501 658Q432 658 374 621T273 514T212
350Q199 288 199 233Q199 142 238 92T355 42Q372 42 395 45T436 55L486 302Q432 316 414 322L418 341H706L703 327Q690 320 668 312T631 300L580 48Q539 21 467 6T324 -10Q187 -10 117 56Z" />
<glyph unicode="H" glyph-name="H" horiz-adv-x="794" d="M860 700L856 680Q790 660 775 658L650 39Q689 31 721 17L718 0H417L420 15Q459 30 472 34T499 40L558 330H276L217 38Q249 30 286 17L283 0H-18L-14 19Q42 37 66 41L193 660Q159 667 121 682L124 700H425L422
684Q371 665 358 663T343 659L286 380H569L626 661Q594 668 556 682L559 700H860Z" />
<glyph unicode="I" glyph-name="I" horiz-adv-x="365" d="M-13 20Q16 28 68 40L195 660Q178 663 122 681L125 700H431L427 680Q418 677 370 665L345 659L219 39Q241 35 292 18L289 0H-17L-13 20Z" />
<glyph unicode="J" glyph-name="J" horiz-adv-x="500" d="M93 -10T50 5T-20 48L10 86Q28 71 55 61T112 50Q155 50 187 75T231 156L334 659Q300 665 262 680L266 700H567L563 680Q502 661 484 658L383 163Q365 76 298 33T144 -10Q93 -10 50 5Z" />
<glyph unicode="K" glyph-name="K" horiz-adv-x="773" d="M771 671T763 670Q760 669 742 665T709 651L449 420L645 39Q679 33 724 18L721 0H508L342 324L261 253L218 39Q238 35 290 18L287 0H-18L-14 20Q9 27 32 32T67 40L194 660Q152 669 121 682L124 700H429L425
680Q384 668 344 659L279 337L637 657Q628 662 612 665T590 670Q579 671 564 675L569 700H792L787 675Q771 671 763 670Z" />
<glyph unicode="L" glyph-name="L" horiz-adv-x="629" d="M-15 18Q34 33 74 39L200 660Q161 669 127 682L131 700H435L431 680Q398 670 351 659L226 49H475Q482 75 507 116T550 175H581L529 0H-18L-15 18Z" />
<glyph unicode="M" glyph-name="M" horiz-adv-x="926" d="M-14 17Q30 31 67 38L194 660Q152 669 121 682L124 700H359L447 194L759 700H993L989 682Q965 674 909 658L783 38Q811 32 854 17L851 0H549L552 17Q595 31 632 38L743 581L429 76H341L240 593L126 38Q156
32 197 17L195 0H-17L-14 17Z" />
<glyph unicode="N" glyph-name="N" horiz-adv-x="755" d="M-14 17Q30 31 67 38L194 660Q155 669 121 682L124 700H352L581 189L677 661Q636 672 605 682L609 700H821L818 682Q792 674 738 661L604 0H527L244 621L126 38Q156 32 197 17L195 0H-17L-14 17Z" />
<glyph unicode="O" glyph-name="O" horiz-adv-x="735" d="M184 -10T115 56T45 243Q45 293 57 350Q91 519 197 614T465 710Q599 710 668 643T738 454Q738 401 727 350Q692 181 586 86T318 -10Q184 -10 115 56ZM419 42T482 126T575 350Q589 420 589 476Q589 562
556 610T455 658Q364 658 301 574T210 350Q195 280 195 221Q195 136 228 89T329 42Q419 42 482 126Z" />
<glyph unicode="P" glyph-name="P" horiz-adv-x="619" d="M-20 20Q2 27 25 32T60 40L187 660Q153 668 116 681L120 700H456Q564 700 611 661T659 552Q659 524 653 494Q640 432 605 382T514 301T386 271H258L211 39Q233 35 284 18L281 0H-24L-20 20ZM357 320Q414
320 451 369T505 496Q511 528 511 554Q511 650 424 650H336L268 320H357Z" />
<glyph unicode="Q" glyph-name="Q" horiz-adv-x="735" d="M599 710T668 643T738 454Q738 401 727 350Q698 206 615 115T406 -2Q409 -49 445 -78T544 -112L534 -159Q407 -148 338 -109T261 -7Q155 7 100 72T45 244Q45 293 57 350Q91 519 197 614T465 710Q599 710
668 643ZM589 420T589 476Q589 562 556 610T455 658Q365 658 302 574T210 350Q195 281 195 222Q195 137 228 90T329 42Q419 42 482 126T575 350Q589 420 589 476Z" />
<glyph unicode="R" glyph-name="R" horiz-adv-x="692" d="M654 427T603 375T477 306L562 39Q608 28 631 18L628 0H434L348 299H271L219 39Q240 35 291 18L288 0H-18L-14 20Q9 27 32 32T68 40L195 660Q160 668 123 681L126 700H491Q590 700 633 665T677 563Q677
541 670 504Q654 427 603 375ZM527 536T527 559Q527 650 431 650H343L281 348H368Q489 348 521 506Q527 536 527 559Z" />
<glyph unicode="S" glyph-name="S" horiz-adv-x="577" d="M149 -10T89 16T4 85L48 231H82Q83 223 83 204Q83 168 75 98Q93 73 126 58T200 42Q264 42 314 76T378 174Q381 188 381 199Q381 229 364 250T322 286T254 319Q203 340 172 358T119 408T97 485Q97 503 102
530Q120 618 198 664T393 710Q471 710 521 693T603 637L561 500H526Q524 515 524 547Q524 585 528 621Q512 639 482 648T414 658Q354 658 313 633T261 555Q259 543 259 539Q259 505 286 485T372 438Q426 413 460 393T518 336T542 248Q542 224 536 195Q523 131 479
85T370 14T229 -10Q149 -10 89 16Z" />
<glyph unicode="T" glyph-name="T" horiz-adv-x="651" d="M124 20Q165 30 178 33Q200 37 211 40L336 650H185Q177 624 154 570T117 501H84L124 700H717L676 501H644Q640 512 638 541T635 604Q635 640 637 650H486L362 39Q397 33 441 18L438 0H120L124 20Z" />
<glyph unicode="U" glyph-name="U" horiz-adv-x="770" d="M93 -10T93 160Q93 182 100 220L190 660Q148 669 117 682L121 700H425L421 680Q403 674 363 664Q357 663 340 659L247 206Q242 178 242 160Q242 97 282 70T390 42Q468 42 527 81T603 206L696 661Q654 670
622 682L626 700H841L837 682Q782 663 755 659L665 220Q642 106 561 48T342 -10Q93 -10 93 160Z" />
<glyph unicode="V" glyph-name="V" horiz-adv-x="756" d="M177 661Q146 668 107 684L111 702H409L404 681Q359 666 323 660L389 127L676 662Q642 668 603 685L606 702H838L833 681Q770 661 753 659L387 -4H274L177 661Z" />
<glyph unicode="W" glyph-name="W" horiz-adv-x="1005" d="M174 659Q152 664 132 672T106 682L110 700H406L402 681Q386 674 360 667T317 658L326 175L586 672H650L712 108L956 666Q919 672 892 681L896 700H1085L1083 685Q1070 678 1052 673T1021 665L724 -3H594L541
454L303 -3H195L174 659Z" />
<glyph unicode="X" glyph-name="X" horiz-adv-x="683" d="M747 700L744 683Q706 668 679 661L426 392L573 40Q617 28 642 18L639 0H340L343 15Q396 38 433 43L329 289L91 37L151 19L148 0H-40L-36 20L6 33L26 38L308 337L172 658Q144 664 104 681L108 700H407L403
679Q348 662 315 657L406 440L614 661L555 681L558 700H747Z" />
<glyph unicode="Y" glyph-name="Y" horiz-adv-x="731" d="M173 17Q179 19 205 28T254 39L309 307L178 658Q129 671 106 681L110 700H412L409 679Q355 662 322 657L431 368L667 662Q631 673 608 682L612 700H812L808 679Q777 668 748 661L460 306L405 39Q427 35
478 18L475 0H171L173 17Z" />
<glyph unicode="Z" glyph-name="Z" horiz-adv-x="593" d="M-20 32L491 650H208Q201 627 180 584T145 523H112L148 700H662L658 680L141 49H449Q457 75 482 116T524 175H556L503 0H-25L-20 32Z" />
<glyph unicode="[" glyph-name="bracketleft" horiz-adv-x="302" d="M129 707H379L369 659H226L76 -72H220L209 -123H-41L129 707Z" />
<glyph unicode="\" glyph-name="backslash" horiz-adv-x="344" d="M113 702H169L281 0H225L113 702Z" />
<glyph unicode="]" glyph-name="bracketright" horiz-adv-x="302" d="M-41 -72H101L251 659H109L119 707H368L198 -123H-50L-41 -72Z" />
<glyph unicode="^" glyph-name="asciicircum" horiz-adv-x="556" d="M330 726H428L543 315H451L369 680L139 315H47L330 726Z" />
<glyph unicode="_" glyph-name="underscore" horiz-adv-x="461" d="M-62 -63H404L393 -114H-72L-62 -63Z" />
<glyph unicode="`" glyph-name="grave" horiz-adv-x="496" d="M278 677Q243 702 243 729Q243 749 258 764T297 780Q327 780 352 747Q360 737 402 679Q438 628 444 620L413 584L278 677Z" />
<glyph unicode="a" glyph-name="a" horiz-adv-x="589" d="M74 -10T47 27T19 123Q19 154 28 199Q53 326 127 416T341 507Q391 507 421 479L425 498H570L490 104Q486 84 486 77Q486 55 503 55Q520 55 544 87T586 158L610 145Q582 78 534 34T427 -10Q392 -10 367
11T342 75Q342 88 345 104L365 204Q320 110 263 50T136 -10Q74 -10 47 27ZM233 54T272 103T345 218T386 319L411 438Q384 467 350 467Q287 467 243 395T178 224Q175 211 171 183T167 128Q167 54 204 54Q233 54 272 103Z" />
<glyph unicode="b" glyph-name="b" horiz-adv-x="623" d="M162 652Q131 660 100 671L103 683L318 705L247 356Q285 426 344 466T465 507Q529 507 570 466T612 346Q612 316 604 276Q575 136 496 63T302 -10Q248 -10 215 13T172 72Q139 8 132 -3L27 -10L162 652ZM410
39T454 250Q468 320 468 365Q468 458 415 458Q389 458 349 425T274 342T224 243L210 171Q206 147 206 136Q206 93 228 66T293 39Q410 39 454 250Z" />
<glyph unicode="c" glyph-name="c" horiz-adv-x="525" d="M142 -10T84 42T25 185Q25 210 32 248Q57 370 146 438T363 507Q450 507 496 481T542 406Q542 391 540 383Q536 365 520 349T484 332Q465 332 455 342T445 366Q445 376 453 390Q459 402 460 410Q463 427
442 443T382 459Q310 459 256 405T180 247Q173 215 173 180Q173 116 202 77T294 37Q334 37 380 51T463 92L470 56Q431 28 374 9T251 -10Q142 -10 84 42Z" />
<glyph unicode="d" glyph-name="d" horiz-adv-x="621" d="M75 -10T48 28T20 127Q20 164 28 204Q44 279 84 348T195 462T362 507Q392 507 416 499T450 475L486 652Q458 659 425 671L428 683L643 705L521 104Q518 91 518 79Q518 54 534 54Q551 54 575 86T618 158L643
145Q614 78 566 34T459 -10Q424 -10 399 11T374 75Q374 88 377 104L396 198Q349 111 280 51T138 -10Q75 -10 48 28ZM238 54T284 103T370 215T417 313L442 433Q431 446 414 455T378 465Q329 465 287 427T216 330T174 207Q169 179 169 147Q169 107 178 81T209 54Q238
54 284 103Z" />
<glyph unicode="e" glyph-name="e" horiz-adv-x="560" d="M463 507T515 482T567 401Q567 392 563 370Q543 275 429 233T170 186Q168 119 196 78T290 37Q330 37 379 51T468 92L474 56Q437 28 376 9T248 -10Q139 -10 81 42T22 185Q22 210 29 248Q55 370 140 438T351
507Q463 507 515 482ZM436 421T415 439T350 458Q283 458 239 397T178 250L175 231Q436 260 436 388Q436 421 415 439Z" />
<glyph unicode="f" glyph-name="f" horiz-adv-x="433" d="M488 723T527 699T567 629Q567 618 564 604Q560 587 544 571T509 555Q487 555 479 567T473 596Q474 602 479 612T485 628Q486 631 486 637Q486 653 472 661T431 670Q389 670 362 639T324 556L312 498H453L443
450H302L211 2Q193 -88 131 -133T-27 -179Q-107 -179 -143 -156T-180 -88Q-180 -75 -177 -60Q-174 -42 -159 -27T-123 -11Q-104 -11 -95 -20T-86 -43Q-86 -52 -91 -65T-98 -84Q-99 -87 -99 -93Q-99 -109 -85 -117T-45 -126Q-3 -126 24 -95T62 -12L156 450H66L76
498H166L175 542Q194 633 252 678T406 723Q488 723 527 699Z" />
<glyph unicode="g" glyph-name="g" horiz-adv-x="547" d="M604 525T617 510T630 470Q630 464 628 452Q624 433 608 418T571 402Q552 402 546 410T537 434Q535 444 532 449T522 454Q516 454 499 442Q518 414 518 377Q518 367 514 341Q498 261 430 219T251 176Q193
176 151 188Q132 175 127 155Q124 133 142 127T203 121H342Q403 121 440 94T478 17Q478 5 475 -9Q444 -159 180 -159Q-23 -159 -23 -59Q-23 -49 -20 -35Q-16 -14 -1 7T41 41Q22 60 22 91Q22 99 24 111Q29 139 49 165T102 210Q51 242 51 305Q51 324 55 341Q71 421
139 464T318 507Q415 507 468 473Q500 498 525 511T579 525Q604 525 617 510ZM374 364T374 381Q374 416 358 437T309 458Q267 458 239 426T200 341Q196 322 196 301Q196 265 212 245T261 224Q302 224 330 257T369 341Q374 364 374 381ZM113 16H103Q86 -1 80 -27Q78
-39 78 -44Q78 -82 113 -99T200 -116Q260 -116 308 -96T365 -35Q366 -31 366 -23Q366 2 341 9T262 16H113Z" />
<glyph unicode="h" glyph-name="h" horiz-adv-x="692" d="M686 145Q658 78 610 34T503 -10Q467 -10 443 14T418 82Q418 96 421 112L454 270Q474 365 474 404Q474 434 463 446T427 458Q397 458 352 418T260 310L197 0L49 -10L184 652Q152 660 124 672L126 683L340
705L274 381Q315 435 368 471T482 507Q549 507 585 480T621 396Q621 378 616 351L566 106Q562 86 562 78Q562 54 578 54Q595 54 619 86T661 158L686 145Z" />
<glyph unicode="i" glyph-name="i" horiz-adv-x="340" d="M197 542T181 557T165 599Q165 639 192 666T257 693Q285 693 301 677T318 635Q318 596 291 569T226 542Q197 542 181 557ZM119 -10T94 11T68 73Q68 86 71 102L143 454Q117 459 81 473L83 484L299 506L218
108Q215 92 215 78Q215 54 229 54Q247 54 271 86T313 158L338 145Q309 77 262 34T155 -10Q119 -10 94 11Z" />
<glyph unicode="j" glyph-name="j" horiz-adv-x="348" d="M222 542T206 557T190 599Q190 639 216 666T281 693Q310 693 326 677T343 635Q343 596 316 569T250 542Q222 542 206 557ZM-171 -188T-171 -98Q-171 -84 -168 -69Q-165 -52 -150 -36T-115 -20Q-96 -20
-87 -29T-77 -52Q-77 -58 -78 -61Q-80 -68 -86 -79T-92 -101Q-92 -118 -78 -126T-37 -135Q5 -135 32 -104T70 -21L167 454Q145 459 105 473L107 484L324 506L217 -21Q200 -104 138 -146T-19 -188Q-171 -188 -171 -98Z" />
<glyph unicode="k" glyph-name="k" horiz-adv-x="672" d="M646 514T659 500T672 461Q672 455 670 441Q666 422 650 407T614 391Q595 391 589 399T580 423Q578 433 575 438T565 443Q556 443 536 426L392 310L500 119Q519 84 547 84Q569 84 589 111T623 174L648
157Q639 126 616 87T559 19T485 -10Q457 -10 434 10T387 74L298 233L235 183L198 0L50 -10L185 652Q153 660 124 672L126 683L341 705L249 253L504 456Q539 485 565 499T622 514Q646 514 659 500Z" />
<glyph unicode="l" glyph-name="l" horiz-adv-x="345" d="M121 -10T96 11T70 73Q70 86 73 102L185 652Q153 660 124 672L126 683L341 705L220 108Q217 92 217 78Q217 54 231 54Q249 54 272 85T315 158L340 145Q311 77 264 34T157 -10Q121 -10 96 11Z" />
<glyph unicode="m" glyph-name="m" horiz-adv-x="1005" d="M1006 145Q977 78 929 34T821 -10Q786 -10 762 14T737 81Q737 96 740 112L772 270Q793 373 793 407Q793 435 783 446T748 458Q720 458 680 422T595 323L529 0L387 -10L462 361Q468 391 468 410Q468 437
457 447T422 458Q392 458 350 421T263 319L198 0L50 -10L146 457Q123 461 84 476L86 487L302 509L277 387Q318 440 368 473T476 507Q541 507 574 481T607 404L606 389Q700 507 803 507Q941 507 941 396Q941 378 936 351L886 106Q882 86 882 77Q882 54 897 54Q914
54 938 86T981 158L1006 145Z" />
<glyph unicode="n" glyph-name="n" horiz-adv-x="692" d="M691 145Q662 78 615 34T508 -10Q472 -10 448 14T423 82Q423 96 426 112L459 270Q478 368 478 404Q478 434 468 446T432 458Q401 458 355 416T260 304L198 0L50 -10L146 457Q123 461 84 476L86 487L302
509L274 374Q316 431 370 469T486 507Q554 507 590 480T626 396Q626 378 621 351L571 106Q568 91 568 79Q568 54 583 54Q600 54 624 87T666 158L691 145Z" />
<glyph unicode="o" glyph-name="o" horiz-adv-x="603" d="M137 -10T78 39T18 180Q18 214 25 248Q50 371 136 439T358 507Q472 507 532 458T592 317Q592 288 584 248Q560 126 474 58T252 -10Q137 -10 78 39ZM324 39T371 95T437 248Q446 292 446 328Q446 390 421
424T348 458Q287 458 240 402T172 248Q164 211 164 171Q164 108 190 74T263 39Q324 39 371 95Z" />
<glyph unicode="p" glyph-name="p" horiz-adv-x="632" d="M137 457Q120 460 101 466T75 475L77 487L294 509L263 356Q301 426 359 466T480 507Q544 507 585 466T626 347Q626 318 618 276Q590 136 510 63T316 -10Q274 -10 244 4T199 45L146 -218L-3 -228L137 457ZM424
39T468 250Q482 320 482 365Q482 410 469 434T430 458Q403 458 364 425T289 342T239 243L224 171Q220 147 220 137Q220 94 242 67T308 39Q424 39 468 250Z" />
<glyph unicode="q" glyph-name="q" horiz-adv-x="634" d="M390 198Q344 111 274 51T132 -10Q69 -10 42 27T15 126Q15 162 23 204Q39 279 80 348T191 462T359 507Q387 507 410 497T445 466L451 498H597L451 -218L303 -228L390 198ZM232 52T279 101T366 215T413
313L435 418Q423 438 406 451T368 464Q322 464 281 425T211 327T169 207Q163 180 163 144Q163 104 172 78T203 52Q232 52 279 101Z" />
<glyph unicode="r" glyph-name="r" horiz-adv-x="483" d="M495 514T509 500T523 462Q523 448 521 441Q517 423 501 407T465 391Q446 391 440 399T430 423Q427 434 425 438T415 443Q378 443 338 410T261 325L195 0L46 -10L142 457Q108 464 80 476L82 487L298 509L276
402Q309 449 360 481T467 514Q495 514 509 500Z" />
<glyph unicode="s" glyph-name="s" horiz-adv-x="493" d="M108 -10T54 14T-1 92Q-1 103 2 115Q4 130 21 145T62 161Q82 161 94 149T103 119Q101 112 99 106T95 93Q93 82 102 69T130 48T177 39Q228 39 259 61T298 127Q299 131 299 139Q299 166 275 182T202 216Q158
232 131 246T85 284T66 345Q66 355 70 377Q82 439 146 473T298 507Q383 507 436 485T490 411Q490 400 487 388Q484 374 469 362T429 350Q408 350 396 359T387 384Q388 390 390 398T394 411Q397 429 378 444T320 460Q279 460 251 445T217 397Q216 393 216 385Q216
358 239 343T313 307Q357 290 384 275T431 235T451 172Q451 163 447 139Q431 62 363 26T192 -10Q108 -10 54 14Z" />
<glyph unicode="t" glyph-name="t" horiz-adv-x="399" d="M197 108Q195 96 195 91Q195 54 232 54Q258 54 282 83T327 158L356 142Q325 71 279 31T158 -10Q116 -10 82 10T48 74Q48 86 51 99L122 450H48L57 498H132L136 520Q203 539 233 632H305L277 498H415L406
450H267L197 108Z" />
<glyph unicode="u" glyph-name="u" horiz-adv-x="659" d="M673 145Q644 78 597 34T489 -10Q454 -10 428 10T402 71Q402 83 405 98L410 123Q369 66 314 28T196 -10Q58 -10 58 101Q58 119 63 146L126 457Q91 464 65 476L67 487L283 509L209 149Q202 117 202 93Q202
63 214 51T252 39Q283 39 329 82T424 194L486 498H633L554 106Q550 86 550 77Q550 54 565 54Q582 54 606 86T649 158L673 145Z" />
<glyph unicode="v" glyph-name="v" horiz-adv-x="588" d="M113 -10T85 20T56 97Q56 108 60 132L126 457Q87 464 65 476L67 487L283 509L209 148Q205 132 205 108Q205 78 215 59T251 39Q293 39 334 88T407 210T451 348Q460 395 460 430Q460 464 451 488Q489 514
535 514Q614 514 614 451Q614 436 609 414Q590 320 534 222T385 57T175 -10Q113 -10 85 20Z" />
<glyph unicode="w" glyph-name="w" horiz-adv-x="802" d="M814 514T814 426Q814 403 809 375Q777 218 694 104T444 -10Q352 -10 340 61Q265 -10 187 -10Q118 -10 89 15T60 95Q60 131 73 194L126 457Q87 464 65 476L67 487L283 509L209 147Q201 105 201 84Q201
59 210 49T242 39Q280 39 339 105Q341 123 343 132L417 498H551L473 114Q468 89 468 75Q468 57 476 48T503 39Q530 39 558 70T610 153T645 259Q663 351 663 425Q663 467 657 488Q695 514 742 514Q814 514 814 426Z" />
<glyph unicode="x" glyph-name="x" horiz-adv-x="612" d="M613 514T626 499T640 459Q640 446 638 439Q634 421 617 406T581 390Q562 390 556 398T548 423Q547 433 545 438T535 443Q524 443 512 431L362 277L440 118Q449 99 459 92T484 85Q505 85 524 112T558 175L582
159Q573 126 553 88T498 20T414 -10Q359 -10 322 61L265 177L140 48Q109 17 84 4T20 -10Q-4 -10 -17 4T-31 44Q-31 57 -29 64Q-25 82 -9 98T27 114Q46 114 52 105T60 81Q62 70 64 66T74 61Q85 61 103 81L243 223L128 457Q102 461 63 475L66 487L249 506L340 322L471
455Q501 485 528 499T589 514Q613 514 626 499Z" />
<glyph unicode="y" glyph-name="y" horiz-adv-x="601" d="M592 514T604 497T617 452Q617 439 614 425Q607 395 585 360T523 270L207 -153Q174 -197 140 -217T63 -238Q38 -238 19 -222T-1 -180Q-1 -172 0 -168Q3 -149 19 -133T56 -117Q73 -117 80 -126T93 -151Q96
-162 99 -167T110 -172Q118 -172 137 -157T173 -117L273 18L129 458Q98 462 65 476L67 487L254 506L346 116L463 274Q507 335 514 381Q518 397 518 414Q518 456 494 488Q514 501 531 507T569 514Q592 514 604 497Z" />
<glyph unicode="z" glyph-name="z" horiz-adv-x="492" d="M280 -12T252 -3T178 26Q151 38 121 53Q99 64 94 64Q85 64 80 47V43Q80 39 81 35T83 27Q83 11 66 1T24 -10Q5 -10 -6 1T-15 28Q-11 45 4 63T47 107L385 420H143Q123 369 102 340H69L100 498H525L519 468L158
126Q170 123 186 118T210 109Q251 95 276 89T325 82Q357 82 383 108T435 181L457 173Q422 83 388 36T307 -12Q280 -12 252 -3Z" />
<glyph unicode="{" glyph-name="braceleft" horiz-adv-x="386" d="M207 -122T161 -113T97 -83T78 -27Q78 -1 86 37L115 177Q119 201 119 209Q119 236 100 248T34 262L48 327Q104 328 128 345T161 401L194 561Q206 619 228 649T303 695T459 710L450 664Q410 662
386 655T344 628T318 569L284 397Q268 319 168 294Q244 269 244 210Q244 205 242 191L207 19Q203 2 203 -14Q203 -49 226 -61T299 -75L290 -122Q207 -122 161 -113Z" />
<glyph unicode="|" glyph-name="bar" horiz-adv-x="445" d="M118 750H235V-203H118V750Z" />
<glyph unicode="}" glyph-name="braceright" horiz-adv-x="386" d="M-37 -75Q2 -74 26 -67T68 -40T93 19L127 191Q143 266 244 294Q168 316 168 375Q168 389 170 397L204 569Q208 586 208 602Q208 637 186 649T114 664L123 710Q206 710 252 701T316 671T335 616Q335
598 328 561L297 411Q293 387 293 378Q293 352 311 340T377 327L364 262Q323 262 301 253T267 226T249 177L219 27Q207 -31 185 -61T109 -107T-46 -122L-37 -75Z" />
<glyph unicode="~" glyph-name="asciitilde" horiz-adv-x="585" d="M74 292Q98 315 131 330T196 346Q221 346 245 340T310 320Q350 306 378 299T435 292Q467 292 492 305T548 346L533 274Q510 250 480 238T419 225Q387 225 358 232T287 254Q246 267 224 272T179
278Q124 278 59 223L74 292Z" />
<glyph unicode="&#xa0;" glyph-name="uni00A0" horiz-adv-x="252" />
<glyph unicode="&#xa1;" glyph-name="exclamdown" horiz-adv-x="341" d="M171 362T157 375T142 414Q142 428 144 435Q150 468 172 487T227 507Q254 507 269 493T284 454Q284 449 282 435Q274 401 252 382T197 362Q171 362 157 375ZM15 -213T15 -158Q15 -144 18
-132Q22 -123 23 -116L159 328H220L176 -116Q176 -119 175 -124T173 -132Q160 -213 79 -213Q15 -213 15 -158Z" />
<glyph unicode="&#xa2;" glyph-name="cent" horiz-adv-x="525" d="M460 504T501 479T542 406Q542 391 540 383Q536 365 520 349T484 332Q465 332 455 342T445 366Q445 376 453 390Q459 402 460 410Q463 427 442 443T382 459Q310 459 256 405T180 247Q173 215 173
180Q173 116 202 77T294 37Q334 37 380 51T463 92L470 56Q435 31 385 13T276 -9L259 -90H214L231 -10Q132 -5 79 47T25 185Q25 210 32 248Q56 364 137 431T336 506L351 581H396L381 507Q460 504 501 479Z" />
<glyph unicode="&#xa3;" glyph-name="sterling" horiz-adv-x="598" d="M-14 48H54Q79 69 88 87T102 135L142 329H51L61 377H152L183 531Q201 616 275 663T465 710Q536 710 580 690T652 635L624 600Q604 631 569 648T486 665Q427 665 384 630T325 521L296 377H492L482
329H286L249 150Q243 117 227 93T182 49H438Q446 75 471 116T513 175H545L492 0H-23L-14 48Z" />
<glyph unicode="&#xa4;" glyph-name="currency" horiz-adv-x="585" d="M53 111L127 173Q108 209 108 252Q108 270 113 293Q126 358 176 413L126 477L170 515L220 451Q280 493 345 493Q411 493 455 451L531 515L558 477L482 413Q501 377 501 332Q501 310 497 293Q482
227 433 173L481 111L437 74L389 135Q331 93 264 93Q200 93 155 135L81 73L53 111ZM313 146T350 165T413 218T447 292Q450 307 450 322Q450 373 418 406T335 440Q297 440 261 421T198 368T164 293Q161 277 161 262Q161 211 192 179T275 146Q313 146 350 165Z" />
<glyph unicode="&#xa5;" glyph-name="yen" horiz-adv-x="732" d="M815 700L811 679Q779 668 750 661L538 400H681L671 352H499L462 306L441 204H641L631 156H432L408 39Q428 35 480 18L477 0H173L176 17Q194 24 216 31T257 39L281 156H98L107 204H291L312 307L295
352H137L148 400H277L181 658Q132 671 109 681L113 700H415L412 679Q359 663 324 657L421 400H460L670 662Q634 673 611 682L615 700H815Z" />
<glyph unicode="&#xa6;" glyph-name="brokenbar" horiz-adv-x="445" d="M118 750H235V338H118V750ZM118 250H235V-203H118V250Z" />
<glyph unicode="&#xa7;" glyph-name="section" horiz-adv-x="586" d="M538 573T538 595Q538 631 544 673Q527 691 497 700T430 710Q368 710 328 685T276 608Q274 596 274 592Q274 559 301 539T386 493Q441 468 475 447T533 390T558 301Q558 273 553 250Q535 165
464 113Q499 71 499 14Q499 -12 494 -33Q481 -97 437 -143T328 -213T188 -237Q107 -237 46 -211T-40 -142L5 5H41Q42 -3 42 -22Q42 -64 33 -129Q52 -155 84 -170T159 -185Q223 -185 273 -152T337 -54Q340 -41 340 -29Q340 1 323 22T281 57T212 90Q160 112 130 130T77
178T55 255Q55 273 60 300Q79 391 165 439Q114 480 114 544Q114 564 118 583Q136 671 213 716T408 762Q485 762 536 745T618 689L577 552H541Q538 573 538 595ZM412 243T412 254Q412 287 394 309T350 346T277 380Q255 388 245 393Q213 369 204 325Q202 313 202
307Q202 283 218 265T257 233T323 201Q374 178 385 172Q402 196 409 229Q412 243 412 254Z" />
<glyph unicode="&#xa8;" glyph-name="dieresis" horiz-adv-x="496" d="M183 584T170 596T157 629Q157 661 178 684T230 707Q253 707 266 694T279 660Q279 655 277 645Q271 618 252 601T205 584Q183 584 170 596ZM413 584T400 596T387 630Q387 662 408 684T460
707Q483 707 496 694T509 658Q509 650 508 645Q502 618 483 601T436 584Q413 584 400 596Z" />
<glyph unicode="&#xa9;" glyph-name="copyright" horiz-adv-x="797" d="M251 -10T171 37T46 168T0 357Q0 462 45 545T171 676T352 724Q453 724 533 677T658 546T704 357Q704 252 659 169T533 38T352 -10Q251 -10 171 37ZM439 39T507 80T614 194T652 357Q652 447
614 519T508 633T352 675Q265 675 196 634T89 520T51 357Q51 267 89 195T196 81T352 39Q439 39 507 80ZM315 135T266 162T187 240T157 357Q157 462 211 520T374 578Q407 578 447 568T505 541L500 442H469Q466 449 462 476T456 521Q444 531 424 538T378 546Q301
546 273 498T245 357Q245 277 278 225T378 173Q401 173 435 182T487 208L491 177Q472 159 438 147T372 135Q315 135 266 162Z" />
<glyph unicode="&#xaa;" glyph-name="ordfeminine" horiz-adv-x="377" d="M76 382T76 473Q76 500 81 522Q101 618 151 664T268 710Q283 710 301 704T325 684L330 710H420L368 456Q366 440 366 437Q366 430 368 428T378 426Q393 426 407 450T433 509L452 504Q436
452 405 417T322 382Q297 382 285 398T272 438Q272 448 273 453L276 468Q254 431 224 407T165 382Q76 382 76 473ZM214 423T243 458T288 524L306 613Q309 625 309 636Q309 657 299 667T274 677Q242 677 214 625T175 518Q171 501 171 476Q171 423 200 423Q214 423
243 458Z" />
<glyph unicode="&#xab;" glyph-name="guillemotleft" horiz-adv-x="558" d="M167 88T126 146T37 252L42 273Q203 393 305 516L343 422Q299 362 166 262Q260 157 278 102L201 8Q167 88 126 146ZM386 88T345 146T256 252L261 273Q422 393 524 516L562 422Q522 366
386 262Q479 156 497 102L420 8Q386 88 345 146Z" />
<glyph unicode="&#xac;" glyph-name="logicalnot" horiz-adv-x="485" d="M338 325H-13V374H395V176H338V325Z" />
<glyph unicode="&#xad;" glyph-name="uni00AD" horiz-adv-x="433" d="M64 322H407L390 240H48L64 322Z" />
<glyph unicode="&#xae;" glyph-name="registered" horiz-adv-x="797" d="M453 724T533 677T658 546T704 357Q704 252 659 169T533 38T352 -10Q251 -10 171 37T46 168T0 357Q0 462 45 545T171 676T352 724Q453 724 533 677ZM439 39T507 80T614 194T652 357Q652
447 614 519T508 633T352 675Q265 675 196 634T89 520T51 357Q51 267 89 195T196 81T352 39Q439 39 507 80ZM514 173Q536 170 557 161V149H439L351 330H305V173Q324 170 352 161V149H168V161Q181 166 194 169T214 174V545Q187 549 168 557V570H388Q460 570 490
539T521 453Q521 350 419 333L514 173ZM305 362H357Q396 362 413 385T431 454Q431 497 414 517T357 538H305V362Z" />
<glyph unicode="&#xaf;" glyph-name="overscore" horiz-adv-x="496" d="M144 758H569L558 709H133L144 758Z" />
<glyph unicode="&#xb0;" glyph-name="degree" horiz-adv-x="343" d="M160 445T129 475T98 556Q98 566 102 590Q115 652 163 693T274 735Q329 735 360 704T391 623Q391 607 388 590Q374 527 327 486T215 445Q160 445 129 475ZM254 497T279 513T320 555T335 610Q335
642 316 662T263 682Q219 682 187 648T154 569Q154 537 173 517T225 497Q254 497 279 513Z" />
<glyph unicode="&#xb1;" glyph-name="plusminus" horiz-adv-x="584" d="M238 323H57L72 395H252L289 572H435L398 395H579L564 323H384L348 147H202L238 323ZM22 87H496L482 15H7L22 87Z" />
<glyph unicode="&#xb2;" glyph-name="uni00B2" horiz-adv-x="438" d="M61 307Q80 346 111 375T194 441Q253 484 284 517T325 595Q327 602 327 614Q327 638 312 651T270 665Q211 665 148 620L139 652Q166 674 210 692T308 710Q380 710 418 688T457 619Q457 608
454 594Q447 559 426 531T378 483T305 433Q266 408 240 389T193 346H368Q385 383 403 402H425L390 269H53L61 307Z" />
<glyph unicode="&#xb3;" glyph-name="uni00B3" horiz-adv-x="438" d="M158 260T118 278T62 318L85 350Q107 326 135 316T193 305Q237 305 266 335T295 413Q295 439 281 455T238 472H166L175 521H247Q275 521 295 535T324 571T334 612Q334 638 316 651T268 665Q242
665 212 653T153 622L144 652Q169 673 215 691T316 710Q385 710 421 689T458 625Q458 584 433 548T367 500L366 495Q424 478 424 422Q424 408 421 393Q408 329 352 295T212 260Q158 260 118 278Z" />
<glyph unicode="&#xb4;" glyph-name="acute" horiz-adv-x="496" d="M222 620L365 746Q375 756 394 768T433 780Q453 780 462 770T472 746Q472 727 457 711T412 677L240 584L222 620Z" />
<glyph unicode="&#xb6;" glyph-name="paragraph" horiz-adv-x="530" d="M91 19Q129 31 167 39V310Q81 318 35 371T-12 512Q-12 609 37 654T184 700H467V683Q415 664 390 660V38Q424 32 466 17V0H316V655H242V0H91V19ZM167 655Q102 655 71 617T39 511Q39 461 57
428T105 378T167 361V655Z" />
<glyph unicode="&#xb7;" glyph-name="middot" horiz-adv-x="289" d="M128 279T114 293T100 332Q100 369 124 395T183 421Q209 421 223 407T238 367Q238 362 236 350Q229 319 207 299T154 279Q128 279 114 293Z" />
<glyph unicode="&#xb8;" glyph-name="cedilla" horiz-adv-x="496" d="M118 -252T90 -244T43 -221L74 -182Q86 -190 105 -195T146 -200Q180 -200 204 -187T235 -145Q236 -142 236 -136Q236 -118 219 -110T178 -102Q171 -102 155 -104L138 -70L203 24H267L210 -60L223
-61Q267 -63 288 -82T310 -129Q310 -135 308 -145Q297 -196 252 -224T147 -252Q118 -252 90 -244Z" />
<glyph unicode="&#xb9;" glyph-name="uni00B9" horiz-adv-x="438" d="M89 291Q125 303 179 312L242 618L154 590L163 633L397 713L315 310Q330 308 352 304T390 293L386 269H85L89 291Z" />
<glyph unicode="&#xba;" glyph-name="ordmasculine" horiz-adv-x="389" d="M152 382T116 413T79 501Q79 519 84 546Q99 623 152 666T292 710Q365 710 402 678T440 589Q440 571 435 546Q418 469 365 426T225 382Q152 382 116 413ZM269 429T294 460T330 546Q335
574 335 592Q335 625 322 644T283 663Q250 663 225 632T189 546Q183 521 183 500Q183 467 197 448T236 429Q269 429 294 460Z" />
<glyph unicode="&#xbb;" glyph-name="guillemotright" horiz-adv-x="558" d="M8 102Q50 157 186 262Q95 360 74 422L150 516Q201 395 316 273L311 252Q244 204 179 146T47 8L8 102ZM227 102Q268 156 404 262Q315 360 292 422L369 516Q421 393 534 273L530 252Q462
203 397 146T266 8L227 102Z" />
<glyph unicode="&#xbc;" glyph-name="onequarter" horiz-adv-x="981" d="M63 291Q99 303 153 312L216 618L128 590L137 633L371 713L289 310Q327 306 365 293L361 269H59L63 291ZM787 702H837L276 0H227L787 702ZM618 26Q650 34 686 38L699 102H495L501 130L766
436H903L844 150H904L894 102H835L822 39Q843 36 875 25L870 0H613L618 26ZM708 150L752 364L565 150H708Z" />
<glyph unicode="&#xbd;" glyph-name="onehalf" horiz-adv-x="981" d="M63 291Q99 303 153 312L216 618L128 590L137 633L371 713L289 310Q327 306 365 293L361 269H59L63 291ZM772 702H821L260 0H211L772 702ZM548 38Q567 77 598 106T681 172Q740 215 771 248T812
326Q814 338 814 343Q814 368 799 382T757 396Q730 396 699 385T636 351L626 382Q650 404 695 422T795 440Q866 440 904 418T943 351Q943 339 940 325Q933 290 912 262T863 213T791 163Q750 137 725 119T679 77H856Q874 116 890 133H912L878 0H540L548 38Z" />
<glyph unicode="&#xbe;" glyph-name="threequarters" horiz-adv-x="981" d="M161 263T122 281T66 321L89 352Q111 328 140 318T197 307Q242 307 270 338T299 417Q299 443 285 459T241 475H170L180 524H251Q293 524 315 551T337 612Q337 638 319 651T271 665Q246
665 216 653T157 622L147 652Q172 673 218 691T318 710Q388 710 424 689T461 625Q461 584 437 549T371 502L370 498Q428 479 428 424Q428 411 425 396Q412 332 356 298T216 263Q161 263 122 281ZM784 702H834L273 0H224L784 702ZM618 26Q650 34 686 38L699 102H495L501
130L766 436H903L844 150H904L894 102H835L822 39Q843 36 875 25L870 0H613L618 26ZM708 150L752 364L565 150H708Z" />
<glyph unicode="&#xbf;" glyph-name="questiondown" horiz-adv-x="481" d="M264 357T250 371T235 409Q235 422 237 429Q243 463 265 482T320 502Q347 502 362 488T377 448Q377 443 375 429Q367 396 345 377T291 357Q264 357 250 371ZM60 -218T10 -187T-41 -90Q-41
-80 -37 -54Q-29 -13 -8 17T38 67T105 115Q146 142 171 162T217 213T246 284Q247 287 249 312H315Q314 288 309 266Q296 201 267 161T187 73Q148 37 128 11T100 -52Q96 -78 96 -89Q96 -127 119 -146T199 -166Q243 -166 284 -150T367 -101L384 -139Q327 -179 268
-198T140 -218Q60 -218 10 -187Z" />
<glyph unicode="&#xc0;" glyph-name="Agrave" horiz-adv-x="746" d="M390 905T390 932L391 940Q394 956 409 969T447 982Q468 982 481 971T501 948L593 821L562 786L427 879Q390 905 390 932ZM657 33T696 18L693 0H392L396 20Q441 35 477 41L459 178H196L120 39Q149
35 194 16L191 0H-41L-37 21Q-14 28 8 34T43 42L415 704H523L626 40Q657 33 696 18ZM452 228L407 562L224 228H452Z" />
<glyph unicode="&#xc1;" glyph-name="Aacute" horiz-adv-x="746" d="M412 786L395 821L538 947Q573 982 606 982Q626 982 635 972T645 948Q645 928 630 912T584 879L412 786ZM657 33T696 18L693 0H392L396 20Q441 35 477 41L459 178H196L120 39Q149 35 194 16L191
0H-41L-37 21Q-14 28 8 34T43 42L415 704H523L626 40Q657 33 696 18ZM452 228L407 562L224 228H452Z" />
<glyph unicode="&#xc2;" glyph-name="Acircumflex" horiz-adv-x="746" d="M489 887T446 849T363 783L312 829Q349 850 407 897T488 972H557Q570 945 610 898T677 829L608 783Q582 809 553 847T512 912H508Q489 887 446 849ZM657 33T696 18L693 0H392L396 20Q441
35 477 41L459 178H196L120 39Q149 35 194 16L191 0H-41L-37 21Q-14 28 8 34T43 42L415 704H523L626 40Q657 33 696 18ZM452 228L407 562L224 228H452Z" />
<glyph unicode="&#xc3;" glyph-name="Atilde" horiz-adv-x="746" d="M397 839T380 825T354 786H290Q309 844 345 873T431 903Q457 903 476 895T519 872Q536 861 546 856T568 851Q589 851 606 862T638 905H700Q683 849 648 818T560 786Q540 786 521 794T473 817Q436
839 419 839Q397 839 380 825ZM626 40Q657 33 696 18L693 0H392L396 20Q441 35 477 41L459 178H196L120 39Q149 35 194 16L191 0H-41L-37 21Q-14 28 8 34T43 42L415 704H523L626 40ZM452 228L407 562L224 228H452Z" />
<glyph unicode="&#xc4;" glyph-name="Adieresis" horiz-adv-x="746" d="M333 785T321 797T308 831Q308 835 310 847Q315 874 334 891T380 909Q403 909 415 896T428 861Q428 852 427 847Q421 820 401 803T354 785Q333 785 321 797ZM562 785T550 797T537 831Q537
863 558 886T610 909Q633 909 646 896T659 862Q659 830 637 808T584 785Q562 785 550 797ZM657 33T696 18L693 0H392L396 20Q441 35 477 41L459 178H196L120 39Q149 35 194 16L191 0H-41L-37 21Q-14 28 8 34T43 42L415 704H523L626 40Q657 33 696 18ZM452 228L407
562L224 228H452Z" />
<glyph unicode="&#xc5;" glyph-name="Aring" horiz-adv-x="746" d="M436 745T413 766T390 823Q390 839 392 847Q402 892 437 920T518 949Q558 949 580 928T603 871Q603 855 601 847Q591 801 557 773T476 745Q436 745 413 766ZM439 815T452 803T485 790Q513 790
533 809T554 859Q554 879 542 891T508 903Q481 903 460 884T439 835Q439 815 452 803ZM657 33T696 18L693 0H392L396 20Q441 35 477 41L459 178H196L120 39Q149 35 194 16L191 0H-41L-37 21Q-14 28 8 34T43 42L415 704H523L626 40Q657 33 696 18ZM452 228L407 562L224
228H452Z" />
<glyph unicode="&#xc6;" glyph-name="AE" horiz-adv-x="993" d="M-38 18Q1 31 41 41L525 667Q493 675 478 682L482 700H1034L998 523H965Q960 537 956 568T952 625Q952 636 954 650H705L651 384H819Q823 400 833 425T855 470H879L834 248H810Q806 292 808 334H640L582
49H837Q844 75 869 116T911 175H943L891 0H341L344 18Q391 33 432 39L460 178H227L123 39Q161 33 201 16L198 0H-41L-38 18ZM470 228L545 595L266 228H470Z" />
<glyph unicode="&#xc7;" glyph-name="Ccedilla" horiz-adv-x="637" d="M547 710T598 690T681 631L638 485H603Q600 506 600 534Q600 573 605 618Q565 658 494 658Q393 658 319 576T216 350Q202 280 202 229Q202 139 240 91T355 42Q396 42 447 57T548 104L560 62Q517
29 458 11T333 -10L295 -66Q345 -66 370 -85T395 -135Q395 -141 393 -151Q383 -202 338 -230T232 -258Q204 -258 175 -250T129 -227L160 -188Q172 -196 191 -201T231 -206Q266 -206 290 -193T320 -151Q321 -148 321 -142Q321 -124 305 -116T265 -108Q256 -108 242
-110L224 -76L271 -7Q161 5 106 69T50 241Q50 292 62 350Q96 519 201 614T466 710Q547 710 598 690Z" />
<glyph unicode="&#xc8;" glyph-name="Egrave" horiz-adv-x="634" d="M384 904T384 930Q384 937 385 940Q388 956 402 969T440 982Q461 982 474 971T494 948L586 821L556 786L420 879Q384 904 384 930ZM675 700L639 523H606Q601 537 597 568T593 625Q593 636 595
650H348L292 375H458Q464 392 474 417T495 461H519L474 239H450Q447 266 447 295Q447 318 448 325H281L225 49H478Q485 75 510 116T553 175H585L532 0H-18L-15 18Q28 33 73 40L199 660Q161 667 121 682L124 700H675Z" />
<glyph unicode="&#xc9;" glyph-name="Eacute" horiz-adv-x="634" d="M383 786L365 821L508 947Q543 982 577 982Q596 982 605 972T615 948Q615 928 600 912T555 879L383 786ZM675 700L639 523H606Q601 537 597 568T593 625Q593 636 595 650H348L292 375H458Q464
392 474 417T495 461H519L474 239H450Q447 266 447 295Q447 318 448 325H281L225 49H478Q485 75 510 116T553 175H585L532 0H-18L-15 18Q28 33 73 40L199 660Q161 667 121 682L124 700H675Z" />
<glyph unicode="&#xca;" glyph-name="Ecircumflex" horiz-adv-x="634" d="M469 887T425 849T343 783L292 829Q329 850 388 897T469 972H538Q551 945 591 898T658 829L589 783Q563 809 534 847T493 912H489Q469 887 425 849ZM675 700L639 523H606Q601 537 597 568T593
625Q593 636 595 650H348L292 375H458Q464 392 474 417T495 461H519L474 239H450Q447 266 447 295Q447 318 448 325H281L225 49H478Q485 75 510 116T553 175H585L532 0H-18L-15 18Q28 33 73 40L199 660Q161 667 121 682L124 700H675Z" />
<glyph unicode="&#xcb;" glyph-name="Edieresis" horiz-adv-x="634" d="M339 785T327 797T314 831Q314 835 316 847Q321 874 340 891T386 909Q409 909 421 896T434 860Q434 852 433 847Q427 820 407 803T360 785Q339 785 327 797ZM568 785T556 797T543 831Q543
863 564 886T616 909Q639 909 651 896T664 861Q664 852 663 847Q657 820 637 803T590 785Q568 785 556 797ZM675 700L639 523H606Q601 537 597 568T593 625Q593 636 595 650H348L292 375H458Q464 392 474 417T495 461H519L474 239H450Q447 266 447 295Q447 318
448 325H281L225 49H478Q485 75 510 116T553 175H585L532 0H-18L-15 18Q28 33 73 40L199 660Q161 667 121 682L124 700H675Z" />
<glyph unicode="&#xcc;" glyph-name="Igrave" horiz-adv-x="365" d="M248 879Q212 904 212 930Q212 948 226 965T268 982Q289 982 302 971T322 948L414 821L384 786L248 879ZM-13 20Q16 28 68 40L195 660Q178 663 122 681L125 700H431L427 680Q418 677 370 665L345
659L219 39Q241 35 292 18L289 0H-17L-13 20Z" />
<glyph unicode="&#xcd;" glyph-name="Iacute" horiz-adv-x="365" d="M189 821L332 947Q367 982 400 982Q419 982 428 972T438 948Q438 943 437 940Q434 923 420 909T378 879L206 786L189 821ZM-13 20Q16 28 68 40L195 660Q178 663 122 681L125 700H431L427 680Q418
677 370 665L345 659L219 39Q241 35 292 18L289 0H-17L-13 20Z" />
<glyph unicode="&#xce;" glyph-name="Icircumflex" horiz-adv-x="365" d="M121 829Q158 850 216 897T297 972H366Q379 945 419 898T486 829L417 783Q391 809 362 847T321 912H317Q298 887 255 849T172 783L121 829ZM-13 20Q16 28 68 40L195 660Q178 663 122 681L125
700H431L427 680Q418 677 370 665L345 659L219 39Q241 35 292 18L289 0H-17L-13 20Z" />
<glyph unicode="&#xcf;" glyph-name="Idieresis" horiz-adv-x="365" d="M157 785T145 797T132 831Q132 863 153 886T204 909Q227 909 240 896T253 862Q253 830 231 808T178 785Q157 785 145 797ZM386 785T374 797T362 830Q362 835 364 847Q369 874 388 891T435
909Q458 909 470 896T483 860Q483 852 482 847Q476 820 456 803T409 785Q386 785 374 797ZM-13 20Q16 28 68 40L195 660Q178 663 122 681L125 700H431L427 680Q418 677 370 665L345 659L219 39Q241 35 292 18L289 0H-17L-13 20Z" />
<glyph unicode="&#xd0;" glyph-name="Eth" horiz-adv-x="687" d="M570 700T630 643T691 474Q691 420 677 350Q641 177 550 89T299 0H-18L-14 19Q42 37 66 41L121 309H58L69 358H131L193 660Q170 665 121 682L124 700H442Q570 700 630 643ZM542 443T542 501Q542
650 432 650H340L280 358H418L408 309H270L217 49H307Q391 49 442 127T524 350Q542 443 542 501Z" />
<glyph unicode="&#xd1;" glyph-name="Ntilde" horiz-adv-x="755" d="M324 843T360 873T446 903Q472 903 491 895T534 872Q551 861 561 856T583 851Q604 851 621 862T653 905H715Q698 849 664 818T576 786Q555 786 535 794T488 818Q468 829 457 834T435 839Q413
839 396 825T369 786H305Q324 843 360 873ZM-14 17Q30 31 67 38L194 660Q155 669 121 682L124 700H352L581 189L677 661Q636 672 605 682L609 700H821L818 682Q792 674 738 661L604 0H527L244 621L126 38Q156 32 197 17L195 0H-17L-14 17Z" />
<glyph unicode="&#xd2;" glyph-name="Ograve" horiz-adv-x="735" d="M427 879Q390 905 390 932L391 940Q394 956 409 969T447 982Q468 982 481 971T501 948L593 821L562 786L427 879ZM184 -10T115 56T45 243Q45 293 57 350Q91 519 197 614T465 710Q599 710 668
643T738 454Q738 401 727 350Q692 181 586 86T318 -10Q184 -10 115 56ZM419 42T482 126T575 350Q589 420 589 476Q589 562 556 610T455 658Q364 658 301 574T210 350Q195 280 195 221Q195 136 228 89T329 42Q419 42 482 126Z" />
<glyph unicode="&#xd3;" glyph-name="Oacute" horiz-adv-x="735" d="M382 821L525 947Q560 982 593 982Q612 982 621 972T631 948Q631 943 630 940Q627 923 613 909T571 879L399 786L382 821ZM184 -10T115 56T45 243Q45 293 57 350Q91 519 197 614T465 710Q599
710 668 643T738 454Q738 401 727 350Q692 181 586 86T318 -10Q184 -10 115 56ZM419 42T482 126T575 350Q589 420 589 476Q589 562 556 610T455 658Q364 658 301 574T210 350Q195 280 195 221Q195 136 228 89T329 42Q419 42 482 126Z" />
<glyph unicode="&#xd4;" glyph-name="Ocircumflex" horiz-adv-x="735" d="M306 829Q343 850 402 897T483 972H552Q564 945 604 898T672 829L603 783Q577 809 548 847T507 912H503Q483 887 439 849T357 783L306 829ZM184 -10T115 56T45 243Q45 293 57 350Q91 519
197 614T465 710Q599 710 668 643T738 454Q738 401 727 350Q692 181 586 86T318 -10Q184 -10 115 56ZM419 42T482 126T575 350Q589 420 589 476Q589 562 556 610T455 658Q364 658 301 574T210 350Q195 280 195 221Q195 136 228 89T329 42Q419 42 482 126Z" />
<glyph unicode="&#xd5;" glyph-name="Otilde" horiz-adv-x="735" d="M307 843T343 873T429 903Q455 903 474 895T517 872Q534 861 544 856T566 851Q587 851 604 862T636 905H698Q681 849 646 818T558 786Q538 786 519 794T471 817Q434 839 417 839Q396 839 379
825T352 786H288Q307 843 343 873ZM184 -10T115 56T45 243Q45 293 57 350Q91 519 197 614T465 710Q599 710 668 643T738 454Q738 401 727 350Q692 181 586 86T318 -10Q184 -10 115 56ZM419 42T482 126T575 350Q589 420 589 476Q589 562 556 610T455 658Q364 658
301 574T210 350Q195 280 195 221Q195 136 228 89T329 42Q419 42 482 126Z" />
<glyph unicode="&#xd6;" glyph-name="Odieresis" horiz-adv-x="735" d="M342 785T330 798T317 832Q317 863 338 886T389 909Q412 909 425 896T438 862Q438 830 417 808T364 785Q342 785 330 798ZM571 785T559 797T547 830Q547 863 567 886T620 909Q643 909 655
896T668 861Q668 852 667 847Q661 820 641 803T594 785Q571 785 559 797ZM184 -10T115 56T45 243Q45 293 57 350Q91 519 197 614T465 710Q599 710 668 643T738 454Q738 401 727 350Q692 181 586 86T318 -10Q184 -10 115 56ZM419 42T482 126T575 350Q589 420 589
476Q589 562 556 610T455 658Q364 658 301 574T210 350Q195 280 195 221Q195 136 228 89T329 42Q419 42 482 126Z" />
<glyph unicode="&#xd7;" glyph-name="multiply" horiz-adv-x="584" d="M44 149L235 311L110 473L193 545L321 375L519 545L573 473L383 311L507 149L424 77L295 247L98 77L44 149Z" />
<glyph unicode="&#xd8;" glyph-name="Oslash" horiz-adv-x="735" d="M687 622Q738 559 738 454Q738 401 727 350Q692 181 586 86T318 -10Q194 -10 123 49L40 -36L8 -3L91 82Q45 143 45 243Q45 293 57 350Q91 519 197 614T465 710Q584 710 653 656L721 725L756
692L687 622ZM195 277T195 216Q195 198 196 189L574 575Q544 658 455 658Q364 658 301 574T210 350Q195 277 195 216ZM589 422T589 478Q589 494 587 520L207 134Q236 42 329 42Q419 42 482 126T575 350Q589 422 589 478Z" />
<glyph unicode="&#xd9;" glyph-name="Ugrave" horiz-adv-x="770" d="M453 879Q416 905 416 931Q416 948 431 965T473 982Q494 982 507 971T527 948L619 821L588 786L453 879ZM93 -10T93 160Q93 182 100 220L190 660Q148 669 117 682L121 700H425L421 680Q403 674
363 664Q357 663 340 659L247 206Q242 178 242 160Q242 97 282 70T390 42Q468 42 527 81T603 206L696 661Q654 670 622 682L626 700H841L837 682Q782 663 755 659L665 220Q642 106 561 48T342 -10Q93 -10 93 160Z" />
<glyph unicode="&#xda;" glyph-name="Uacute" horiz-adv-x="770" d="M437 821L580 947Q615 982 649 982Q668 982 677 972T687 948Q687 928 672 912T627 879L455 786L437 821ZM93 -10T93 160Q93 182 100 220L190 660Q148 669 117 682L121 700H425L421 680Q403 674
363 664Q357 663 340 659L247 206Q242 178 242 160Q242 97 282 70T390 42Q468 42 527 81T603 206L696 661Q654 670 622 682L626 700H841L837 682Q782 663 755 659L665 220Q642 106 561 48T342 -10Q93 -10 93 160Z" />
<glyph unicode="&#xdb;" glyph-name="Ucircumflex" horiz-adv-x="770" d="M324 829Q361 850 420 897T501 972H570Q582 945 622 898T690 829L621 783Q595 809 566 847T525 912H521Q501 887 457 849T375 783L324 829ZM93 -10T93 160Q93 182 100 220L190 660Q148
669 117 682L121 700H425L421 680Q403 674 363 664Q357 663 340 659L247 206Q242 178 242 160Q242 97 282 70T390 42Q468 42 527 81T603 206L696 661Q654 670 622 682L626 700H841L837 682Q782 663 755 659L665 220Q642 106 561 48T342 -10Q93 -10 93 160Z" />
<glyph unicode="&#xdc;" glyph-name="Udieresis" horiz-adv-x="770" d="M382 785T370 797T357 831Q357 835 359 847Q364 874 383 891T429 909Q452 909 464 896T477 861Q477 852 476 847Q470 820 450 803T403 785Q382 785 370 797ZM611 785T599 797T586 831Q586
863 607 886T659 909Q682 909 695 896T708 862Q708 830 686 808T633 785Q611 785 599 797ZM93 -10T93 160Q93 182 100 220L190 660Q148 669 117 682L121 700H425L421 680Q403 674 363 664Q357 663 340 659L247 206Q242 178 242 160Q242 97 282 70T390 42Q468 42
527 81T603 206L696 661Q654 670 622 682L626 700H841L837 682Q782 663 755 659L665 220Q642 106 561 48T342 -10Q93 -10 93 160Z" />
<glyph unicode="&#xdd;" glyph-name="Yacute" horiz-adv-x="731" d="M419 821L562 947Q597 982 630 982Q650 982 659 972T669 948Q669 928 654 912T608 879L436 786L419 821ZM173 17Q179 19 205 28T254 39L309 307L178 658Q129 671 106 681L110 700H412L409 679Q355
662 322 657L431 368L667 662Q631 673 608 682L612 700H812L808 679Q777 668 748 661L460 306L405 39Q427 35 478 18L475 0H171L173 17Z" />
<glyph unicode="&#xde;" glyph-name="Thorn" horiz-adv-x="618" d="M-20 20Q3 27 25 32T60 40L187 660Q153 668 116 681L120 700H345L320 576H446Q634 576 634 429Q634 401 628 371Q616 309 581 259T490 178T362 148H233L211 39Q233 35 284 18L281 0H-24L-20 20ZM331
197Q388 197 426 246T480 373Q487 410 487 432Q487 527 399 527H311L243 197H331Z" />
<glyph unicode="&#xdf;" glyph-name="germandbls" horiz-adv-x="739" d="M501 358T521 343T585 307Q623 290 646 276T687 237T704 175Q704 156 700 139Q684 61 618 26T460 -10Q262 -10 262 89Q262 102 265 115Q268 130 284 145T325 161Q345 161 357 149T366 119Q364
112 362 106T358 93Q356 82 365 69T393 48T440 39Q485 39 513 62T549 123Q550 128 550 137Q550 164 530 180T466 216Q430 232 408 246T369 283T353 342Q353 352 357 376Q367 425 408 454T501 495Q507 529 507 560Q507 677 418 677Q387 677 359 653T321 579L203
2Q185 -88 123 -133T-35 -179Q-115 -179 -151 -156T-188 -88Q-188 -75 -185 -60Q-182 -42 -167 -27T-131 -11Q-111 -11 -102 -20T-93 -44Q-93 -52 -99 -64T-106 -84Q-107 -87 -107 -93Q-107 -126 -52 -126Q-11 -126 16 -95T54 -12L149 449H59L69 498H159L167 538Q186
633 261 681T440 730Q555 730 598 680T642 557Q642 518 633 480L628 458Q576 458 539 440T501 384Q501 358 521 343Z" />
<glyph unicode="&#xe0;" glyph-name="agrave" horiz-adv-x="589" d="M295 677Q259 702 259 728Q259 746 274 763T316 780Q336 780 349 769T369 746L461 619L431 584L295 677ZM74 -10T47 27T19 123Q19 154 28 199Q53 326 127 416T341 507Q391 507 421 479L425 498H570L490
104Q486 84 486 77Q486 55 503 55Q520 55 544 87T586 158L610 145Q582 78 534 34T427 -10Q392 -10 367 11T342 75Q342 88 345 104L365 204Q320 110 263 50T136 -10Q74 -10 47 27ZM233 54T272 103T345 218T386 319L411 438Q384 467 350 467Q287 467 243 395T178
224Q175 211 171 183T167 128Q167 54 204 54Q233 54 272 103Z" />
<glyph unicode="&#xe1;" glyph-name="aacute" horiz-adv-x="589" d="M268 619L411 745Q420 755 439 767T479 780Q498 780 507 770T517 746Q517 726 502 710T457 677L285 584L268 619ZM74 -10T47 27T19 123Q19 154 28 199Q53 326 127 416T341 507Q391 507 421 479L425
498H570L490 104Q486 84 486 77Q486 55 503 55Q520 55 544 87T586 158L610 145Q582 78 534 34T427 -10Q392 -10 367 11T342 75Q342 88 345 104L365 204Q320 110 263 50T136 -10Q74 -10 47 27ZM233 54T272 103T345 218T386 319L411 438Q384 467 350 467Q287 467
243 395T178 224Q175 211 171 183T167 128Q167 54 204 54Q233 54 272 103Z" />
<glyph unicode="&#xe2;" glyph-name="acircumflex" horiz-adv-x="589" d="M173 627Q210 648 269 695T350 770H419Q432 743 472 696T539 627L470 581Q444 607 415 645T374 710H370Q350 685 306 647T224 581L173 627ZM74 -10T47 27T19 123Q19 154 28 199Q53 326
127 416T341 507Q391 507 421 479L425 498H570L490 104Q486 84 486 77Q486 55 503 55Q520 55 544 87T586 158L610 145Q582 78 534 34T427 -10Q392 -10 367 11T342 75Q342 88 345 104L365 204Q320 110 263 50T136 -10Q74 -10 47 27ZM233 54T272 103T345 218T386
319L411 438Q384 467 350 467Q287 467 243 395T178 224Q175 211 171 183T167 128Q167 54 204 54Q233 54 272 103Z" />
<glyph unicode="&#xe3;" glyph-name="atilde" horiz-adv-x="589" d="M172 641T208 671T294 701Q320 701 339 693T383 670Q400 659 410 654T432 649Q453 649 470 660T502 703H563Q546 647 512 616T424 584Q403 584 383 592T336 616Q316 627 305 632T283 637Q261
637 244 623T218 584H153Q172 641 208 671ZM74 -10T47 27T19 123Q19 154 28 199Q53 326 127 416T341 507Q391 507 421 479L425 498H570L490 104Q486 84 486 77Q486 55 503 55Q520 55 544 87T586 158L610 145Q582 78 534 34T427 -10Q392 -10 367 11T342 75Q342 88
345 104L365 204Q320 110 263 50T136 -10Q74 -10 47 27ZM233 54T272 103T345 218T386 319L411 438Q384 467 350 467Q287 467 243 395T178 224Q175 211 171 183T167 128Q167 54 204 54Q233 54 272 103Z" />
<glyph unicode="&#xe4;" glyph-name="adieresis" horiz-adv-x="589" d="M205 583T193 595T180 629Q180 661 201 684T252 707Q275 707 288 694T301 660Q301 628 279 606T226 583Q205 583 193 595ZM434 583T422 595T410 628Q410 633 412 645Q417 672 436 689T483
707Q506 707 518 694T531 658Q531 650 530 645Q524 618 504 601T457 583Q434 583 422 595ZM74 -10T47 27T19 123Q19 154 28 199Q53 326 127 416T341 507Q391 507 421 479L425 498H570L490 104Q486 84 486 77Q486 55 503 55Q520 55 544 87T586 158L610 145Q582 78
534 34T427 -10Q392 -10 367 11T342 75Q342 88 345 104L365 204Q320 110 263 50T136 -10Q74 -10 47 27ZM233 54T272 103T345 218T386 319L411 438Q384 467 350 467Q287 467 243 395T178 224Q175 211 171 183T167 128Q167 54 204 54Q233 54 272 103Z" />
<glyph unicode="&#xe5;" glyph-name="aring" horiz-adv-x="589" d="M312 578T289 599T266 657Q266 672 268 680Q278 725 313 753T394 782Q434 782 456 761T479 704Q479 688 477 680Q467 634 433 606T352 578Q312 578 289 599ZM389 623T409 643T430 693Q430 713
418 724T385 736Q357 736 336 717T315 668Q315 648 328 636T362 623Q389 623 409 643ZM74 -10T47 27T19 123Q19 154 28 199Q53 326 127 416T341 507Q391 507 421 479L425 498H570L490 104Q486 84 486 77Q486 55 503 55Q520 55 544 87T586 158L610 145Q582 78 534
34T427 -10Q392 -10 367 11T342 75Q342 88 345 104L365 204Q320 110 263 50T136 -10Q74 -10 47 27ZM233 54T272 103T345 218T386 319L411 438Q384 467 350 467Q287 467 243 395T178 224Q175 211 171 183T167 128Q167 54 204 54Q233 54 272 103Z" />
<glyph unicode="&#xe6;" glyph-name="ae" horiz-adv-x="875" d="M84 -10T41 18T-2 103Q-2 121 2 137Q18 217 85 254T244 291H354Q372 338 387 362Q388 366 388 374Q388 414 356 436T280 458Q242 458 197 446T112 415L113 457Q161 481 219 494T335 507Q385 507
422 494T481 458Q559 507 665 507Q777 507 829 482T881 401Q881 392 877 370Q857 275 743 233T484 186Q482 119 510 78T604 37Q644 37 693 51T782 92L788 56Q751 28 690 9T562 -10Q497 -10 449 9T373 66Q331 28 271 9T153 -10Q84 -10 41 18ZM594 242T672 277T750
388Q750 421 729 439T664 458Q597 458 553 397T492 250L488 231Q594 242 672 277ZM246 42T285 58T354 99Q337 134 337 186Q337 217 342 242H269Q224 242 190 213T147 138Q143 114 143 106Q143 73 162 58T213 42Q246 42 285 58Z" />
<glyph unicode="&#xe7;" glyph-name="ccedilla" horiz-adv-x="525" d="M450 507T496 481T542 406Q542 391 540 383Q536 365 520 349T484 332Q465 332 455 342T445 366Q445 376 453 390Q459 402 460 410Q463 427 442 443T382 459Q310 459 256 405T180 247Q173 215
173 180Q173 116 202 77T294 37Q334 37 380 51T463 92L470 56Q438 33 393 16T296 -7L261 -60Q311 -60 335 -80T360 -130Q360 -140 359 -145Q348 -196 303 -224T197 -252Q169 -252 141 -244T95 -221L125 -182Q138 -190 157 -195T196 -200Q274 -200 286 -145Q290
-122 273 -112T230 -102Q223 -102 207 -104L190 -70L231 -10Q132 -5 79 47T25 185Q25 210 32 248Q57 370 146 438T363 507Q450 507 496 481Z" />
<glyph unicode="&#xe8;" glyph-name="egrave" horiz-adv-x="560" d="M281 703T281 729Q281 746 296 763T338 780Q358 780 372 768T391 746L484 619L453 584L317 677Q281 703 281 729ZM463 507T515 482T567 401Q567 392 563 370Q543 275 429 233T170 186Q168 119
196 78T290 37Q330 37 379 51T468 92L474 56Q437 28 376 9T248 -10Q139 -10 81 42T22 185Q22 210 29 248Q55 370 140 438T351 507Q463 507 515 482ZM436 421T415 439T350 458Q283 458 239 397T178 250L175 231Q436 260 436 388Q436 421 415 439Z" />
<glyph unicode="&#xe9;" glyph-name="eacute" horiz-adv-x="560" d="M299 584L282 619L425 745Q460 780 493 780Q515 780 524 767T531 738Q527 721 513 707T471 677L299 584ZM463 507T515 482T567 401Q567 392 563 370Q543 275 429 233T170 186Q168 119 196 78T290
37Q330 37 379 51T468 92L474 56Q437 28 376 9T248 -10Q139 -10 81 42T22 185Q22 210 29 248Q55 370 140 438T351 507Q463 507 515 482ZM436 421T415 439T350 458Q283 458 239 397T178 250L175 231Q436 260 436 388Q436 421 415 439Z" />
<glyph unicode="&#xea;" glyph-name="ecircumflex" horiz-adv-x="560" d="M368 685T324 647T242 581L191 627Q228 648 286 695T367 770H436Q449 743 489 696T556 627L487 581Q461 607 432 645T391 710H388Q368 685 324 647ZM463 507T515 482T567 401Q567 392 563
370Q543 275 429 233T170 186Q168 119 196 78T290 37Q330 37 379 51T468 92L474 56Q437 28 376 9T248 -10Q139 -10 81 42T22 185Q22 210 29 248Q55 370 140 438T351 507Q463 507 515 482ZM436 421T415 439T350 458Q283 458 239 397T178 250L175 231Q436 260 436
388Q436 421 415 439Z" />
<glyph unicode="&#xeb;" glyph-name="edieresis" horiz-adv-x="560" d="M228 583T216 595T203 629Q203 661 224 684T275 707Q298 707 311 694T324 660Q324 628 302 606T249 583Q228 583 216 595ZM457 583T445 595T433 628Q433 633 435 645Q440 672 459 689T506
707Q529 707 541 694T554 658Q554 650 553 645Q547 618 527 601T480 583Q457 583 445 595ZM463 507T515 482T567 401Q567 392 563 370Q543 275 429 233T170 186Q168 119 196 78T290 37Q330 37 379 51T468 92L474 56Q437 28 376 9T248 -10Q139 -10 81 42T22 185Q22
210 29 248Q55 370 140 438T351 507Q463 507 515 482ZM436 421T415 439T350 458Q283 458 239 397T178 250L175 231Q436 260 436 388Q436 421 415 439Z" />
<glyph unicode="&#xec;" glyph-name="igrave" horiz-adv-x="359" d="M197 677Q161 703 161 729Q161 746 176 763T218 780Q238 780 252 768T271 746L364 619L333 584L197 677ZM128 -10T102 11T76 74Q76 87 79 102L151 454Q128 459 90 473L92 484L308 506L226 108Q223
93 223 79Q223 54 238 54Q256 54 279 86T321 158L346 145Q318 78 271 34T164 -10Q128 -10 102 11Z" />
<glyph unicode="&#xed;" glyph-name="iacute" horiz-adv-x="359" d="M145 619L288 745Q297 755 316 767T356 780Q375 780 384 770T394 746Q394 726 379 710T334 677L162 584L145 619ZM128 -10T102 11T76 74Q76 87 79 102L151 454Q128 459 90 473L92 484L308 506L226
108Q223 93 223 79Q223 54 238 54Q256 54 279 86T321 158L346 145Q318 78 271 34T164 -10Q128 -10 102 11Z" />
<glyph unicode="&#xee;" glyph-name="icircumflex" horiz-adv-x="359" d="M77 627Q114 648 173 695T254 770H323Q336 743 376 696T443 627L374 581Q348 607 319 645T278 710H274Q254 685 210 647T128 581L77 627ZM128 -10T102 11T76 74Q76 87 79 102L151 454Q128
459 90 473L92 484L308 506L226 108Q223 93 223 79Q223 54 238 54Q256 54 279 86T321 158L346 145Q318 78 271 34T164 -10Q128 -10 102 11Z" />
<glyph unicode="&#xef;" glyph-name="idieresis" horiz-adv-x="359" d="M114 583T102 595T89 629Q89 661 110 684T161 707Q184 707 196 694T209 659Q209 650 208 645Q202 618 182 601T135 583Q114 583 102 595ZM343 583T331 595T318 629Q318 661 339 684T391 707Q414
707 427 694T440 660Q440 628 418 606T365 583Q343 583 331 595ZM128 -10T102 11T76 74Q76 87 79 102L151 454Q128 459 90 473L92 484L308 506L226 108Q223 93 223 79Q223 54 238 54Q256 54 279 86T321 158L346 145Q318 78 271 34T164 -10Q128 -10 102 11Z" />
<glyph unicode="&#xf0;" glyph-name="eth" horiz-adv-x="595" d="M468 656Q525 593 555 517T586 363Q586 325 579 291Q550 148 465 69T240 -10Q135 -10 81 45T26 187Q26 217 32 248Q45 311 84 369T190 464T349 502Q378 502 409 492T456 465Q440 543 388 615L197
515L189 581Q282 629 345 664Q302 705 252 731L300 779Q368 746 419 703L574 789L602 726L468 656ZM434 292T434 322Q434 380 410 416T343 453Q289 453 243 396T178 248Q170 205 170 170Q170 111 191 75T252 39Q313 39 361 105T429 269Q434 292 434 322Z" />
<glyph unicode="&#xf1;" glyph-name="ntilde" horiz-adv-x="691" d="M327 637T310 623T284 584H220Q239 641 275 671T361 701Q387 701 406 693T449 670Q466 659 476 654T498 649Q519 649 536 660T568 703H629Q612 647 578 616T490 584Q470 584 451 592T403 615Q366
637 349 637Q327 637 310 623ZM691 145Q662 78 615 34T508 -10Q472 -10 448 14T423 82Q423 96 426 112L459 270Q478 368 478 404Q478 434 468 446T432 458Q401 458 355 416T260 304L198 0L50 -10L146 457Q123 461 84 476L86 487L302 509L274 374Q316 431 370 469T486
507Q554 507 590 480T626 396Q626 378 621 351L571 106Q568 91 568 79Q568 54 583 54Q600 54 624 87T666 158L691 145Z" />
<glyph unicode="&#xf2;" glyph-name="ograve" horiz-adv-x="603" d="M320 677Q284 702 284 728Q284 746 298 763T340 780Q361 780 374 769T394 746L486 619L456 584L320 677ZM137 -10T78 39T18 180Q18 214 25 248Q50 371 136 439T358 507Q472 507 532 458T592
317Q592 288 584 248Q560 126 474 58T252 -10Q137 -10 78 39ZM324 39T371 95T437 248Q446 292 446 328Q446 390 421 424T348 458Q287 458 240 402T172 248Q164 211 164 171Q164 108 190 74T263 39Q324 39 371 95Z" />
<glyph unicode="&#xf3;" glyph-name="oacute" horiz-adv-x="603" d="M275 619L418 745Q453 780 486 780Q506 780 515 770T525 746Q525 726 510 710T464 677L292 584L275 619ZM137 -10T78 39T18 180Q18 214 25 248Q50 371 136 439T358 507Q472 507 532 458T592
317Q592 288 584 248Q560 126 474 58T252 -10Q137 -10 78 39ZM324 39T371 95T437 248Q446 292 446 328Q446 390 421 424T348 458Q287 458 240 402T172 248Q164 211 164 171Q164 108 190 74T263 39Q324 39 371 95Z" />
<glyph unicode="&#xf4;" glyph-name="ocircumflex" horiz-adv-x="603" d="M199 627Q236 648 295 695T376 770H445Q457 744 497 697T565 627L496 581Q470 607 441 645T400 710H396Q376 685 332 647T250 581L199 627ZM137 -10T78 39T18 180Q18 214 25 248Q50 371
136 439T358 507Q472 507 532 458T592 317Q592 288 584 248Q560 126 474 58T252 -10Q137 -10 78 39ZM324 39T371 95T437 248Q446 292 446 328Q446 390 421 424T348 458Q287 458 240 402T172 248Q164 211 164 171Q164 108 190 74T263 39Q324 39 371 95Z" />
<glyph unicode="&#xf5;" glyph-name="otilde" horiz-adv-x="603" d="M199 641T235 671T321 701Q347 701 365 693T409 670Q425 659 436 654T459 649Q480 649 497 660T529 703H590Q573 647 539 616T451 584Q430 584 410 592T363 616Q343 627 332 632T310 637Q288
637 271 623T244 584H180Q199 641 235 671ZM137 -10T78 39T18 180Q18 214 25 248Q50 371 136 439T358 507Q472 507 532 458T592 317Q592 288 584 248Q560 126 474 58T252 -10Q137 -10 78 39ZM324 39T371 95T437 248Q446 292 446 328Q446 390 421 424T348 458Q287
458 240 402T172 248Q164 211 164 171Q164 108 190 74T263 39Q324 39 371 95Z" />
<glyph unicode="&#xf6;" glyph-name="odieresis" horiz-adv-x="603" d="M236 583T224 595T211 629Q211 661 232 684T283 707Q306 707 318 694T331 659Q331 650 330 645Q324 618 304 601T257 583Q236 583 224 595ZM465 583T453 595T440 629Q440 661 461 684T513
707Q536 707 549 694T562 660Q562 628 540 606T487 583Q465 583 453 595ZM137 -10T78 39T18 180Q18 214 25 248Q50 371 136 439T358 507Q472 507 532 458T592 317Q592 288 584 248Q560 126 474 58T252 -10Q137 -10 78 39ZM324 39T371 95T437 248Q446 292 446 328Q446
390 421 424T348 458Q287 458 240 402T172 248Q164 211 164 171Q164 108 190 74T263 39Q324 39 371 95Z" />
<glyph unicode="&#xf7;" glyph-name="divide" horiz-adv-x="584" d="M295 414T280 429T265 469Q265 507 290 534T352 561Q380 561 395 546T410 505Q410 467 384 441T321 414Q295 414 280 429ZM63 349H570L555 276H48L63 349ZM223 64T208 78T193 118Q193 157 218
184T280 211Q308 211 323 195T339 154Q339 116 313 90T250 64Q223 64 208 78Z" />
<glyph unicode="&#xf8;" glyph-name="oslash" horiz-adv-x="603" d="M548 442Q592 395 592 317Q592 286 584 248Q560 126 474 58T252 -10Q153 -10 96 26L31 -34L1 0L60 55Q18 103 18 179Q18 214 25 248Q50 371 136 439T358 507Q449 507 509 474L567 528L602 492L548
442ZM162 206T162 172L163 151L433 403Q409 458 348 458Q287 458 239 402T171 248Q162 206 162 172ZM448 292T448 328L447 349L175 98Q200 39 263 39Q323 39 371 95T439 248Q448 292 448 328Z" />
<glyph unicode="&#xf9;" glyph-name="ugrave" horiz-adv-x="659" d="M317 703T317 730L318 738Q321 754 336 767T374 780Q395 780 408 769T428 746L520 619L489 584L354 677Q317 703 317 730ZM673 145Q644 78 597 34T489 -10Q454 -10 428 10T402 71Q402 83 405
98L410 123Q369 66 314 28T196 -10Q58 -10 58 101Q58 119 63 146L126 457Q91 464 65 476L67 487L283 509L209 149Q202 117 202 93Q202 63 214 51T252 39Q283 39 329 82T424 194L486 498H633L554 106Q550 86 550 77Q550 54 565 54Q582 54 606 86T649 158L673 145Z"
/>
<glyph unicode="&#xfa;" glyph-name="uacute" horiz-adv-x="659" d="M344 584L327 619L470 745Q505 780 538 780Q558 780 567 770T577 746Q577 726 562 710T516 677L344 584ZM673 145Q644 78 597 34T489 -10Q454 -10 428 10T402 71Q402 83 405 98L410 123Q369
66 314 28T196 -10Q58 -10 58 101Q58 119 63 146L126 457Q91 464 65 476L67 487L283 509L209 149Q202 117 202 93Q202 63 214 51T252 39Q283 39 329 82T424 194L486 498H633L554 106Q550 86 550 77Q550 54 565 54Q582 54 606 86T649 158L673 145Z" />
<glyph unicode="&#xfb;" glyph-name="ucircumflex" horiz-adv-x="659" d="M402 685T358 647T276 581L225 627Q262 648 321 695T402 770H471Q483 744 523 697T591 627L522 581Q496 607 467 645T426 710H422Q402 685 358 647ZM673 145Q644 78 597 34T489 -10Q454
-10 428 10T402 71Q402 83 405 98L410 123Q369 66 314 28T196 -10Q58 -10 58 101Q58 119 63 146L126 457Q91 464 65 476L67 487L283 509L209 149Q202 117 202 93Q202 63 214 51T252 39Q283 39 329 82T424 194L486 498H633L554 106Q550 86 550 77Q550 54 565 54Q582
54 606 86T649 158L673 145Z" />
<glyph unicode="&#xfc;" glyph-name="udieresis" horiz-adv-x="659" d="M262 583T250 595T237 629Q237 633 239 645Q244 672 263 689T309 707Q332 707 344 694T357 659Q357 650 356 645Q350 618 330 601T283 583Q262 583 250 595ZM491 583T479 595T466 629Q466
661 487 684T539 707Q562 707 575 694T588 660Q588 628 566 606T513 583Q491 583 479 595ZM673 145Q644 78 597 34T489 -10Q454 -10 428 10T402 71Q402 83 405 98L410 123Q369 66 314 28T196 -10Q58 -10 58 101Q58 119 63 146L126 457Q91 464 65 476L67 487L283
509L209 149Q202 117 202 93Q202 63 214 51T252 39Q283 39 329 82T424 194L486 498H633L554 106Q550 86 550 77Q550 54 565 54Q582 54 606 86T649 158L673 145Z" />
<glyph unicode="&#xfd;" glyph-name="yacute" horiz-adv-x="601" d="M349 584L332 619L475 745Q510 780 543 780Q562 780 571 770T581 746Q581 741 580 738Q577 721 563 707T521 677L349 584ZM592 514T604 497T617 452Q617 439 614 425Q607 395 585 360T523 270L207
-153Q174 -197 140 -217T63 -238Q38 -238 19 -222T-1 -180Q-1 -172 0 -168Q3 -149 19 -133T56 -117Q73 -117 80 -126T93 -151Q96 -162 99 -167T110 -172Q118 -172 137 -157T173 -117L273 18L129 458Q98 462 65 476L67 487L254 506L346 116L463 274Q507 335 514
381Q518 397 518 414Q518 456 494 488Q514 501 531 507T569 514Q592 514 604 497Z" />
<glyph unicode="&#xfe;" glyph-name="thorn" horiz-adv-x="632" d="M177 654Q160 657 141 663T115 672L118 684L335 706L263 356Q301 426 359 466T480 507Q544 507 585 466T626 347Q626 318 618 276Q590 136 510 63T316 -10Q274 -10 244 4T199 45L146 -218L-3
-228L177 654ZM424 39T468 250Q482 320 482 365Q482 410 469 434T430 458Q403 458 364 425T289 342T239 243L224 171Q220 147 220 137Q220 94 242 67T308 39Q424 39 468 250Z" />
<glyph unicode="&#xff;" glyph-name="ydieresis" horiz-adv-x="601" d="M256 583T244 595T231 629Q231 661 252 684T303 707Q326 707 339 694T352 660Q352 655 350 645Q344 618 324 601T277 583Q256 583 244 595ZM485 583T473 596T460 630Q460 662 481 684T533
707Q556 707 569 694T582 660Q582 628 561 606T508 583Q485 583 473 596ZM592 514T604 497T617 452Q617 439 614 425Q607 395 585 360T523 270L207 -153Q174 -197 140 -217T63 -238Q38 -238 19 -222T-1 -180Q-1 -172 0 -168Q3 -149 19 -133T56 -117Q73 -117 80
-126T93 -151Q96 -162 99 -167T110 -172Q118 -172 137 -157T173 -117L273 18L129 458Q98 462 65 476L67 487L254 506L346 116L463 274Q507 335 514 381Q518 397 518 414Q518 456 494 488Q514 501 531 507T569 514Q592 514 604 497Z" />
<glyph unicode="&#x2013;" glyph-name="endash" horiz-adv-x="683" d="M64 322H655L639 240H48L64 322Z" />
<glyph unicode="&#x2014;" glyph-name="emdash" horiz-adv-x="1009" d="M64 322H983L966 240H48L64 322Z" />
<glyph unicode="&#x2018;" glyph-name="quoteleft" horiz-adv-x="251" d="M134 417T118 435T102 482Q102 491 104 505Q116 560 156 618T247 715L287 679Q219 618 200 565Q227 565 243 550T260 511Q260 502 259 497Q252 463 228 440T168 417Q134 417 118 435Z" />
<glyph unicode="&#x2019;" glyph-name="quoteright" horiz-adv-x="251" d="M102 448Q129 472 153 502T189 562Q161 562 145 576T128 616Q128 625 129 629Q136 663 160 686T220 710Q255 710 271 691T287 642Q287 636 285 622Q274 568 233 510T141 411L102 448Z" />
<glyph unicode="&#x201a;" glyph-name="quotesinglbase" horiz-adv-x="251" d="M11 4Q78 64 99 118Q71 118 54 133T37 172Q37 176 39 186Q46 220 70 243T130 266Q164 266 180 247T196 200Q196 192 194 178Q182 123 142 65T51 -32L11 4Z" />
<glyph unicode="&#x201c;" glyph-name="quotedblleft" horiz-adv-x="438" d="M134 417T118 435T102 482Q102 491 104 505Q116 560 156 618T247 715L287 679Q219 618 200 565Q227 565 243 550T260 511Q260 502 259 497Q252 463 228 440T168 417Q134 417 118 435ZM321
417T305 435T289 480Q289 493 292 505Q303 560 343 618T434 715L474 679Q446 655 422 625T387 565Q414 565 430 550T446 511Q446 502 445 497Q438 463 414 440T355 417Q321 417 305 435Z" />
<glyph unicode="&#x201d;" glyph-name="quotedblright" horiz-adv-x="438" d="M102 448Q129 472 153 502T189 562Q161 562 145 576T128 616Q128 625 129 629Q136 663 160 686T220 710Q255 710 271 691T287 642Q287 636 285 622Q274 568 233 510T141 411L102 448ZM295
448Q322 472 346 502T382 562Q354 562 338 576T321 616Q321 625 322 629Q329 663 353 686T413 710Q448 710 464 691T480 642Q480 636 478 622Q467 568 426 510T334 411L295 448Z" />
<glyph unicode="&#x201e;" glyph-name="quotedblbase" horiz-adv-x="438" d="M11 4Q78 64 99 118Q71 118 54 133T37 172Q37 176 39 186Q46 220 70 243T130 266Q164 266 180 247T196 200Q196 192 194 178Q182 123 142 65T51 -32L11 4ZM204 4Q271 64 292 118Q264
118 247 133T230 172Q230 176 232 186Q239 220 263 243T323 266Q357 266 373 247T389 200Q389 192 387 178Q375 123 335 65T244 -32L204 4Z" />
<glyph unicode="&#x2022;" glyph-name="bullet" horiz-adv-x="276" d="M105 234T86 254T66 307Q66 356 99 390T178 425Q212 425 231 406T251 353Q251 305 218 270T139 234Q105 234 86 254Z" />
<glyph unicode="&#x2039;" glyph-name="guilsinglleft" horiz-adv-x="339" d="M167 88T126 146T37 252L42 273Q203 393 305 516L343 422Q299 362 166 262Q260 157 278 102L201 8Q167 88 126 146Z" />
<glyph unicode="&#x203a;" glyph-name="guilsinglright" horiz-adv-x="339" d="M8 102Q49 156 185 262Q95 361 74 422L150 516Q201 395 316 273L311 252Q244 204 179 146T47 8L8 102Z" />
</font>
</defs>
</svg>
