<?xml version="1.0" standalone="no"?>
<!DOCTYPE svg PUBLIC "-//W3C//DTD SVG 1.1//EN" "http://www.w3.org/Graphics/SVG/1.1/DTD/svg11.dtd">
<svg xmlns="http://www.w3.org/2000/svg">
<defs >
<font id="WorkSans" horiz-adv-x="605" ><font-face
    font-family="Work Sans ExtraBold"
    units-per-em="1000"
    panose-1="0 0 9 0 0 0 0 0 0 0"
    ascent="930"
    descent="-243"
    alphabetic="0" />
<glyph unicode=" " glyph-name="space" horiz-adv-x="267" />
<glyph unicode="!" glyph-name="exclam" horiz-adv-x="312" d="M261 473L239 218H72L50 473V660H261V473ZM206 173T234 150T263 83Q263 40 235 16T156 -8Q105 -8 77 16T48 83Q48 126 76 149T156 173Q206 173 234 150Z" />
<glyph unicode="&quot;" glyph-name="quotedbl" horiz-adv-x="463" d="M395 386H264V674H426L395 386ZM187 386H56V674H218L187 386Z" />
<glyph unicode="#" glyph-name="numbersign" horiz-adv-x="706" d="M547 394L526 267H635V150H507L483 0H351L375 150H259L235 0H102L126 150H28V267H144L164 394H71V511H183L207 660H340L316 511H432L456 660H589L565 511H678V394H547ZM414 394H297L277 267H394L414
394Z" />
<glyph unicode="$" glyph-name="dollar" horiz-adv-x="646" d="M297 1Q197 5 132 32T18 110L106 230Q135 187 184 163T297 134V256Q219 270 167 287T76 345T38 454Q38 540 106 595T297 659V744H363V660Q461 656 520 628T631 546L539 434Q506 479 464 501T363 527V398Q440
384 493 366T585 306T623 194Q623 109 551 58T363 1V-84H297V1ZM297 523Q260 518 241 503T221 466Q221 445 240 433T297 411V523ZM441 143T441 186Q441 208 421 221T363 243V135Q441 143 441 186Z" />
<glyph unicode="%" glyph-name="percent" horiz-adv-x="967" d="M311 670T364 618T418 480Q418 394 365 342T223 290Q134 290 81 342T27 480Q27 566 80 618T223 670Q311 670 364 618ZM646 661H796L322 0H173L646 661ZM199 538T186 523T173 480Q173 452 186 437T223
422Q246 422 259 437T272 480Q272 508 259 523T223 538Q199 538 186 523ZM832 370T886 318T940 180Q940 94 886 42T744 -10Q656 -10 602 42T548 180Q548 266 602 318T744 370Q832 370 886 318ZM720 238T707 223T694 180Q694 152 707 137T744 122Q768 122 781 137T794
180Q794 208 781 223T744 238Q720 238 707 223Z" />
<glyph unicode="&amp;" glyph-name="ampersand" horiz-adv-x="655" d="M634 -10Q572 -10 532 1T444 47Q373 -10 257 -10Q148 -10 83 37T17 175Q17 225 46 271T142 343Q105 387 92 420T79 494Q79 540 103 580T176 645T296 670Q368 670 416 647T486 587T509 506Q509
446 473 400T365 326L403 287L464 224Q482 274 481 334L612 332Q609 221 549 149Q582 128 617 128Q631 128 647 131L634 -10ZM277 543T263 528T249 486Q249 467 259 449T297 399Q330 425 341 446T352 495Q352 518 338 530T301 543Q277 543 263 528ZM314 118T351
128L310 168L220 257Q202 240 195 224T188 187Q188 156 213 137T281 118Q314 118 351 128Z" />
<glyph unicode="&apos;" glyph-name="quotesingle" horiz-adv-x="255" d="M187 386H56V674H218L187 386Z" />
<glyph unicode="(" glyph-name="parenleft" horiz-adv-x="405" d="M402 641Q321 568 285 483T248 270Q248 142 284 57T402 -102L310 -192Q69 -44 69 270Q69 428 130 543T310 731L402 641Z" />
<glyph unicode=")" glyph-name="parenright" horiz-adv-x="405" d="M336 585T336 270Q336 -45 95 -192L3 -102Q85 -30 121 56T157 270Q157 398 121 483T3 641L95 731Q336 585 336 270Z" />
<glyph unicode="*" glyph-name="asterisk" horiz-adv-x="594" d="M416 424L503 312L389 229L309 347L297 376L284 347L204 229L90 312L178 424L201 445L170 448L33 487L77 622L211 573L238 557L231 588L226 730H367L362 588L355 557L382 573L517 622L560 487L423
448L392 445L416 424Z" />
<glyph unicode="+" glyph-name="plus" horiz-adv-x="604" d="M556 259H381V57H224V259H48V397H224V598H381V397H556V259Z" />
<glyph unicode="," glyph-name="comma" horiz-adv-x="299" d="M204 190T234 151T265 51Q265 -19 227 -75T115 -162L29 -105Q80 -84 114 -58T162 4L158 8Q145 -5 126 -5Q89 -5 61 19T33 87Q33 138 63 164T145 190Q204 190 234 151Z" />
<glyph unicode="-" glyph-name="hyphen" horiz-adv-x="534" d="M457 191H78V349H457V191Z" />
<glyph unicode="." glyph-name="period" horiz-adv-x="299" d="M202 190T231 164T261 91Q261 44 232 18T149 -8Q96 -8 67 18T37 91Q37 137 66 163T149 190Q202 190 231 164Z" />
<glyph unicode="/" glyph-name="slash" horiz-adv-x="479" d="M197 -70H10L281 706H468L197 -70Z" />
<glyph unicode="0" glyph-name="zero" horiz-adv-x="651" d="M182 -10T112 75T41 330Q41 500 111 585T326 670Q469 670 539 585T610 330Q610 160 540 75T326 -10Q182 -10 112 75ZM357 146T375 163T401 220T409 330Q409 400 401 439T375 496T326 514Q294 514 276
497T250 440T242 330Q242 260 250 221T276 164T326 146Q357 146 375 163Z" />
<glyph unicode="1" glyph-name="one" horiz-adv-x="450" d="M385 660V0H189V465Q114 398 38 386L23 552Q79 558 140 591T225 660H385Z" />
<glyph unicode="2" glyph-name="two" horiz-adv-x="601" d="M55 126Q210 215 285 294T360 440Q360 473 342 493T290 514Q208 514 208 388L33 435Q33 511 68 564T164 643T303 670Q392 670 450 638T535 557T562 456Q562 364 493 290T295 148V146Q357 151 441 151H568V0H55V126Z"
/>
<glyph unicode="3" glyph-name="three" horiz-adv-x="597" d="M419 670T483 620T547 480Q547 427 524 394T472 347T423 333V329Q447 329 478 318T535 273T560 181Q560 124 526 81T431 14T295 -10Q181 -10 116 29T24 156L208 233Q209 184 231 164T290 143Q324 143
344 159T364 206Q364 237 345 252T285 267H244V388H275Q314 388 332 403T351 452Q351 483 334 500T288 517Q216 517 213 431L36 488Q61 670 302 670Q419 670 483 620Z" />
<glyph unicode="4" glyph-name="four" horiz-adv-x="659" d="M637 135H543V0H365V135H29V224L305 660H543V270H637V135ZM216 270H365V421L368 530H366Q348 480 312 422L216 270Z" />
<glyph unicode="5" glyph-name="five" horiz-adv-x="583" d="M444 427T499 373T554 231Q554 150 518 96T421 16T286 -10Q195 -10 130 18T18 115L195 217Q202 177 222 158T288 139Q328 139 350 158T373 215Q373 252 352 272T287 293Q227 293 197 262L45 288L89
660H515V507H234L222 413L216 383H217Q235 404 270 415T348 427Q444 427 499 373Z" />
<glyph unicode="6" glyph-name="six" horiz-adv-x="616" d="M430 670T493 635T580 521L416 444Q399 512 331 512Q283 512 253 470T223 349V334H225Q261 408 377 408Q437 408 485 383T560 312T588 206Q588 106 519 48T324 -10Q187 -10 115 74T43 330Q43 501 125
585T344 670Q430 670 493 635ZM293 279T273 260T253 208Q253 174 273 156T329 137Q366 137 386 155T406 208Q406 242 386 260T329 279Q293 279 273 260Z" />
<glyph unicode="7" glyph-name="seven" horiz-adv-x="633" d="M607 660V521Q490 411 444 285T397 0H196Q196 148 246 270T409 504H42V660H607Z" />
<glyph unicode="8" glyph-name="eight" horiz-adv-x="631" d="M437 667T506 617T576 478Q576 427 548 390T467 334V333Q529 314 561 274T594 174Q594 89 520 40T315 -10Q185 -10 111 39T37 174Q37 234 69 274T164 333V334Q111 353 83 390T55 478Q55 566 124 616T315
667Q437 667 506 617ZM281 525T262 508T242 460Q242 429 261 412T315 394Q349 394 369 411T389 460Q389 491 370 508T315 525Q281 525 262 508ZM355 133T376 151T397 201Q397 233 376 251T315 269Q277 269 255 251T233 201Q233 169 254 151T315 133Q355 133 376
151Z" />
<glyph unicode="9" glyph-name="nine" horiz-adv-x="612" d="M434 670T506 584T578 325Q578 -10 289 -10Q196 -10 134 24T41 132L222 200Q228 170 244 155T293 140Q342 140 368 177T394 289V308H390Q378 274 337 254T242 234Q186 234 137 260T59 333T30 443Q30
550 100 610T298 670Q434 670 506 584ZM254 515T235 497T215 444Q215 410 234 392T291 373Q328 373 348 391T368 444Q368 477 348 496T291 515Q254 515 235 497Z" />
<glyph unicode=":" glyph-name="colon" horiz-adv-x="304" d="M205 510T234 484T264 411Q264 364 235 338T152 312Q99 312 70 338T40 411Q40 457 69 483T152 510Q205 510 234 484ZM205 190T234 164T264 91Q264 44 235 18T152 -8Q99 -8 70 18T40 91Q40 137 69 163T152
190Q205 190 234 164Z" />
<glyph unicode=";" glyph-name="semicolon" horiz-adv-x="304" d="M99 312T69 338T39 411Q39 458 69 484T152 510Q205 510 234 484T264 411Q264 364 235 338T152 312Q99 312 69 338ZM207 190T237 151T268 51Q268 -19 230 -75T118 -162L32 -105Q83 -84 117 -58T165
4L161 8Q148 -5 129 -5Q92 -5 64 19T36 87Q36 138 66 164T148 190Q207 190 237 151Z" />
<glyph unicode="&lt;" glyph-name="less" horiz-adv-x="604" d="M555 405L207 295L555 186V-3L60 212V379L555 594V405Z" />
<glyph unicode="=" glyph-name="equal" horiz-adv-x="604" d="M539 366H65V498H539V366ZM539 144H65V276H539V144Z" />
<glyph unicode="&gt;" glyph-name="greater" horiz-adv-x="604" d="M544 379V212L49 -3V186L396 296L49 405V594L544 379Z" />
<glyph unicode="?" glyph-name="question" horiz-adv-x="631" d="M446 670T518 625T591 485Q591 314 400 295L386 216H219L206 369Q295 374 333 395T372 453Q372 510 307 510Q271 510 250 488T227 422L30 492Q39 573 109 621T320 670Q446 670 518 625ZM355 174T383
150T411 83Q411 40 383 16T304 -8Q253 -8 225 16T196 83Q196 126 224 150T304 174Q355 174 383 150Z" />
<glyph unicode="@" glyph-name="at" horiz-adv-x="932" d="M607 660T697 614T837 478T887 260Q887 171 856 113T776 29T669 2Q617 2 579 23T521 85Q469 3 376 3Q302 3 260 54T217 187Q217 279 247 342T330 436T448 468Q492 468 516 445T546 394L567 457H714L668
180Q665 162 665 148Q665 122 676 110T715 98Q754 98 779 140T804 260Q804 418 720 498T488 579Q384 579 304 537T180 414T135 223Q135 120 178 47T293 -63T448 -100Q523 -100 566 -87T645 -47L690 -111Q641 -146 588 -163T444 -180Q329 -180 238 -133T95 6T43
223Q43 353 100 452T259 606T488 660Q607 660 697 614ZM438 340T414 305T389 213Q389 177 402 158T439 139Q460 139 476 152T496 189L509 281Q510 287 510 298Q510 319 501 329T471 340Q438 340 414 305Z" />
<glyph unicode="A" glyph-name="A" horiz-adv-x="684" d="M440 137H239L201 0H-3L219 660H464L687 0H477L440 137ZM405 269L369 400L341 508H339L312 401L275 269H405Z" />
<glyph unicode="B" glyph-name="B" horiz-adv-x="694" d="M61 660H412Q655 659 655 483Q655 423 619 383T513 333V332Q592 322 632 281T672 176Q672 89 612 45T433 0H61V660ZM369 398Q446 398 446 457Q446 516 369 516H257V398H369ZM386 138Q463 138 463 198Q463
257 386 257H257V138H386Z" />
<glyph unicode="C" glyph-name="C" horiz-adv-x="679" d="M637 90T560 40T367 -10Q265 -10 191 30T76 147T36 330Q36 436 76 512T190 629T366 670Q478 670 557 623T658 479L481 408Q470 469 445 491T372 514Q311 514 279 468T246 330Q246 146 370 146Q420 146
446 169T482 245L664 196Q637 90 560 40Z" />
<glyph unicode="D" glyph-name="D" horiz-adv-x="717" d="M518 660T599 575T681 330Q681 171 600 86T364 0H61V660H364Q518 660 599 575ZM411 149T441 192T471 330Q471 424 441 467T339 511H265V149H339Q411 149 441 192Z" />
<glyph unicode="E" glyph-name="E" horiz-adv-x="628" d="M606 153V0H61V660H593V507H265V400H527V258H265V153H606Z" />
<glyph unicode="F" glyph-name="F" horiz-adv-x="613" d="M265 507V392H527V239H265V0H61V660H592V507H265Z" />
<glyph unicode="G" glyph-name="G" horiz-adv-x="722" d="M363 365H671V0H533L526 76Q473 -10 343 -10Q255 -10 186 29T76 144T36 328Q36 435 76 512T192 629T372 670Q490 670 561 629T672 495L482 424Q463 514 379 514Q246 514 246 330Q246 232 280 187T385 142Q437
142 468 164T499 229V234H363V365Z" />
<glyph unicode="H" glyph-name="H" horiz-adv-x="745" d="M684 660V0H479V256H265V0H61V660H265V409H479V660H684Z" />
<glyph unicode="I" glyph-name="I" horiz-adv-x="326" d="M265 0H61V660H265V0Z" />
<glyph unicode="J" glyph-name="J" horiz-adv-x="640" d="M593 263Q593 133 515 62T295 -10Q161 -10 94 49T26 212Q26 244 32 277L236 311Q231 269 231 245Q231 192 249 169T307 146Q350 146 369 178T388 281V660H593V263Z" />
<glyph unicode="K" glyph-name="K" horiz-adv-x="706" d="M332 264L265 178V0H61V660H265V391L467 660H688L477 395L704 0H473L332 264Z" />
<glyph unicode="L" glyph-name="L" horiz-adv-x="604" d="M579 153V0H61V660H265V153H579Z" />
<glyph unicode="M" glyph-name="M" horiz-adv-x="930" d="M870 0H690V264L694 477H692L547 0H383L240 477H237L241 264V0H61V660H349L438 347L471 216H473L506 347L595 660H870V0Z" />
<glyph unicode="N" glyph-name="N" horiz-adv-x="744" d="M683 0H459L279 327L237 417H235L239 286V0H61V660H284L464 333L507 243H508L504 374V660H683V0Z" />
<glyph unicode="O" glyph-name="O" horiz-adv-x="733" d="M522 670T609 581T696 330Q696 169 609 80T367 -10Q265 -10 191 30T76 147T36 330Q36 436 76 513T190 630T367 670Q522 670 609 581ZM306 514T276 469T246 330Q246 237 276 192T367 146Q428 146 457 191T487
330Q487 424 458 469T367 514Q306 514 276 469Z" />
<glyph unicode="P" glyph-name="P" horiz-adv-x="688" d="M520 660T588 603T656 435Q656 330 588 275T389 219H265V0H61V660H389Q520 660 588 603ZM405 363T428 381T451 437Q451 475 428 493T356 511H265V363H356Q405 363 428 381Z" />
<glyph unicode="Q" glyph-name="Q" horiz-adv-x="733" d="M599 -54T643 -15L690 -158Q633 -207 511 -207Q407 -207 354 -160T300 -36Q300 -26 302 -6Q176 13 106 100T36 330Q36 436 76 513T190 630T367 670Q522 670 609 581T696 330Q696 186 625 99T427 -6Q431
-32 453 -43T518 -54Q599 -54 643 -15ZM246 237T276 192T367 146Q428 146 457 191T487 330Q487 424 458 469T367 514Q306 514 276 469T246 330Q246 237 276 192Z" />
<glyph unicode="R" glyph-name="R" horiz-adv-x="698" d="M344 229H261V0H61V660H399Q525 660 591 605T657 444Q657 300 534 251L695 0H472L344 229ZM261 368H360Q410 368 431 384T452 439Q452 477 431 494T360 511H261V368Z" />
<glyph unicode="S" glyph-name="S" horiz-adv-x="645" d="M429 670T497 645T629 558L529 429Q489 475 444 495T339 516Q296 516 272 502T248 465Q248 447 273 437T356 416Q452 399 509 372T593 302T620 198Q620 132 582 85T479 14T332 -10Q218 -10 148 14T18 92L113
232Q153 185 202 165T319 144Q410 144 410 188Q410 207 384 218T298 240Q218 255 164 276T73 338T37 449Q37 514 72 564T174 642T334 670Q429 670 497 645Z" />
<glyph unicode="T" glyph-name="T" horiz-adv-x="671" d="M648 507H438V0H234V507H22V660H648V507Z" />
<glyph unicode="U" glyph-name="U" horiz-adv-x="710" d="M663 277Q663 -10 355 -10Q47 -10 47 277V660H253V266Q253 146 355 146Q458 146 458 266V660H663V277Z" />
<glyph unicode="V" glyph-name="V" horiz-adv-x="696" d="M469 0H227L-1 660H212L318 281L352 152L384 279L491 660H697L469 0Z" />
<glyph unicode="W" glyph-name="W" horiz-adv-x="1010" d="M415 0H189L0 660H220L313 161L417 660H597L706 163L797 660H1009L820 0H600L536 282L509 447H506L479 282L415 0Z" />
<glyph unicode="X" glyph-name="X" horiz-adv-x="685" d="M440 0L336 193L238 0H6L228 330L17 660H258L352 472L447 660H669L459 335L686 0H440Z" />
<glyph unicode="Y" glyph-name="Y" horiz-adv-x="687" d="M446 234V0H241V234L9 660H216L296 495L345 380L393 495L474 660H677L446 234Z" />
<glyph unicode="Z" glyph-name="Z" horiz-adv-x="636" d="M613 149V0H31V143L382 511H36V660H602V517L252 149H613Z" />
<glyph unicode="[" glyph-name="bracketleft" horiz-adv-x="407" d="M257 571V-32H383V-168H85V706H383V571H257Z" />
<glyph unicode="\" glyph-name="backslash" horiz-adv-x="479" d="M198 706L469 -70H281L10 706H198Z" />
<glyph unicode="]" glyph-name="bracketright" horiz-adv-x="407" d="M322 -168H23V-32H149V571H23V706H322V-168Z" />
<glyph unicode="^" glyph-name="asciicircum" horiz-adv-x="631" d="M432 355L315 596L198 355H24L231 722H399L607 355H432Z" />
<glyph unicode="_" glyph-name="underscore" horiz-adv-x="539" d="M539 -211H0V-55H539V-211Z" />
<glyph unicode="`" glyph-name="grave" horiz-adv-x="500" d="M325 559H181L79 734H262L325 559Z" />
<glyph unicode="a" glyph-name="a" horiz-adv-x="585" d="M576 111T587 115L571 8Q538 -10 500 -10Q443 -10 406 10T356 71Q334 33 290 12T178 -10Q102 -10 63 21T23 112Q23 175 68 214T218 274L324 296V315Q324 344 309 360T267 376Q237 376 218 361T195 307L29
342Q40 422 101 466T274 510Q524 510 524 311V151Q524 111 559 111Q576 111 587 115ZM285 108T304 123T324 167V213L269 199Q217 186 217 147Q217 128 228 118T259 108Q285 108 304 123Z" />
<glyph unicode="b" glyph-name="b" horiz-adv-x="628" d="M491 510T543 441T595 248Q595 125 544 58T398 -10Q338 -10 295 22T232 111L226 0H49V706H251V416Q271 460 308 485T397 510Q491 510 543 441ZM355 134T373 161T392 250Q392 312 374 338T320 365Q254 365
251 261V239Q254 134 320 134Q355 134 373 161Z" />
<glyph unicode="c" glyph-name="c" horiz-adv-x="574" d="M425 510T484 464T552 347L365 290Q362 371 308 371Q268 371 250 343T231 248Q231 182 250 156T307 129Q361 129 370 202L551 145Q548 102 519 67T436 11T308 -10Q172 -10 100 57T28 250Q28 374 99 442T298
510Q425 510 484 464Z" />
<glyph unicode="d" glyph-name="d" horiz-adv-x="628" d="M578 706V0H397L390 97Q368 48 327 19T230 -10Q136 -10 84 58T32 248Q32 372 84 441T231 510Q283 510 319 485T376 415V706H578ZM376 134T376 246V254Q376 365 307 365Q272 365 254 339T236 250Q236 188
254 161T307 134Q376 134 376 246Z" />
<glyph unicode="e" glyph-name="e" horiz-adv-x="583" d="M556 226T551 204H222Q228 162 249 145T308 128Q369 128 383 176L546 129Q527 61 464 26T308 -10Q172 -10 100 57T28 250Q28 374 98 442T297 510Q422 510 489 444T556 262Q556 226 551 204ZM265 373T247
354T222 292H367Q362 333 346 353T298 373Q265 373 247 354Z" />
<glyph unicode="f" glyph-name="f" horiz-adv-x="423" d="M271 500H417V361H284V0H82V361H8V500H82V532Q82 630 143 676T298 723Q340 723 372 715T423 692L407 571Q387 587 350 587Q311 587 291 572T271 521V500Z" />
<glyph unicode="g" glyph-name="g" horiz-adv-x="573" d="M474 127T523 87T573 -33Q573 -123 496 -169T280 -215Q15 -215 15 -103Q15 -70 38 -46T111 -10Q29 23 29 99Q29 134 51 161T112 203Q29 245 29 339Q29 423 95 466T287 510Q340 510 386 502Q394 565 429
607T530 650Q543 650 550 649L569 520Q551 523 536 523Q506 523 485 511T453 481Q545 438 545 339Q545 256 479 213T287 170Q228 170 182 179Q161 173 161 155Q161 127 208 127H380Q474 127 523 87ZM261 401T246 385T230 340Q230 312 245 296T287 279Q313 279 328
295T344 340Q344 368 329 384T287 401Q261 401 246 385ZM418 -89T418 -53Q418 -30 370 -30H232Q194 -30 179 -36T164 -56Q164 -73 194 -81T293 -89Q418 -89 418 -53Z" />
<glyph unicode="h" glyph-name="h" horiz-adv-x="620" d="M485 510T528 465T572 338V0H370V284Q370 325 357 342T319 359Q288 359 270 335T251 263V0H49V706H251V403Q273 456 313 483T408 510Q485 510 528 465Z" />
<glyph unicode="i" glyph-name="i" horiz-adv-x="300" d="M89 544T63 565T37 633Q37 681 63 702T150 723Q211 723 237 702T263 633Q263 586 237 565T150 544Q89 544 63 565ZM251 0H49V500H251V0Z" />
<glyph unicode="j" glyph-name="j" horiz-adv-x="299" d="M210 723T236 702T263 633Q263 586 237 565T149 544Q89 544 63 565T37 633Q37 681 63 702T149 723Q210 723 236 702ZM251 -20Q251 -123 200 -169T43 -215Q-44 -215 -99 -184L-73 -61Q-64 -69 -49 -73T-17
-78Q16 -78 32 -60T49 -2V500H251V-20Z" />
<glyph unicode="k" glyph-name="k" horiz-adv-x="641" d="M323 189L251 105V0H49V706H251V307L418 500H638L457 304L649 0H427L323 189Z" />
<glyph unicode="l" glyph-name="l" horiz-adv-x="334" d="M250 187Q250 155 260 141T294 127Q316 127 337 134L326 19Q308 6 276 -2T211 -10Q124 -10 86 29T48 157V706H250V187Z" />
<glyph unicode="m" glyph-name="m" horiz-adv-x="937" d="M801 510T845 465T889 338V0H687V288Q687 326 675 342T637 359Q605 359 588 335T570 264V0H368V288Q368 326 356 342T318 359Q287 359 269 335T251 263V0H49V500H231L236 397Q259 452 302 481T407 510Q464
510 503 484T560 409Q583 458 626 484T726 510Q801 510 845 465Z" />
<glyph unicode="n" glyph-name="n" horiz-adv-x="620" d="M485 510T528 465T572 338V0H370V284Q370 325 357 342T319 359Q287 359 269 336T251 263V0H49V500H231L236 397Q258 452 302 481T408 510Q485 510 528 465Z" />
<glyph unicode="o" glyph-name="o" horiz-adv-x="600" d="M429 510T500 442T572 250Q572 127 501 59T300 -10Q171 -10 100 58T28 250Q28 373 99 441T300 510Q429 510 500 442ZM262 371T247 345T231 250Q231 182 246 156T300 129Q338 129 353 155T369 250Q369 318
354 344T300 371Q262 371 247 345Z" />
<glyph unicode="p" glyph-name="p" horiz-adv-x="628" d="M492 510T543 443T595 252Q595 128 543 59T397 -10Q345 -10 308 15T251 84V-210H49V500H226L232 389Q252 445 295 477T398 510Q492 510 543 443ZM356 135T374 161T392 250Q392 312 374 339T320 366Q254
366 251 261V239Q254 135 320 135Q356 135 374 161Z" />
<glyph unicode="q" glyph-name="q" horiz-adv-x="628" d="M579 500V-210H377V85Q357 40 320 15T231 -10Q137 -10 85 59T32 252Q32 374 84 442T230 510Q290 510 332 478T396 389L401 500H579ZM373 135T377 231V269Q374 318 356 342T308 366Q273 366 255 339T236
250Q236 188 254 162T308 135Q373 135 377 231Z" />
<glyph unicode="r" glyph-name="r" horiz-adv-x="437" d="M420 510T438 498L419 331Q410 338 393 342T356 346Q309 346 280 321T251 246V0H49V500H230L236 383Q254 444 291 477T385 510Q420 510 438 498Z" />
<glyph unicode="s" glyph-name="s" horiz-adv-x="535" d="M180 -10T118 9T14 71L109 181Q135 150 173 134T257 117Q283 117 299 123T315 141Q315 152 297 160T233 179Q123 200 75 239T26 340Q26 383 54 422T140 485T283 510Q446 510 518 427L427 328Q380 383 291
383Q260 383 244 376T228 356Q228 346 245 339T304 324Q417 307 467 269T518 162Q518 87 455 39T269 -10Q180 -10 118 9Z" />
<glyph unicode="t" glyph-name="t" horiz-adv-x="440" d="M433 26Q409 10 368 0T288 -10Q188 -10 138 30T88 160V361H7V500H88V609L290 665V500H427V361H290V192Q290 157 305 142T353 127Q391 127 420 144L433 26Z" />
<glyph unicode="u" glyph-name="u" horiz-adv-x="620" d="M571 500V0H389L384 99Q339 -10 213 -10Q47 -10 47 164V500H249V214Q249 174 261 158T301 141Q333 141 351 165T369 237V500H571Z" />
<glyph unicode="v" glyph-name="v" horiz-adv-x="575" d="M581 500L411 0H164L-6 500H205L288 125L372 500H581Z" />
<glyph unicode="w" glyph-name="w" horiz-adv-x="926" d="M926 500L783 0H536L462 284L390 0H143L0 500H210L279 139L364 500H562L647 139L716 500H926Z" />
<glyph unicode="x" glyph-name="x" horiz-adv-x="609" d="M387 0L302 164L218 0H-4L173 254L2 500H227L306 344L387 500H608L437 251L612 0H387Z" />
<glyph unicode="y" glyph-name="y" horiz-adv-x="583" d="M425 30Q394 -61 357 -114T269 -191T145 -215Q55 -215 -1 -180L38 -50Q54 -61 73 -66T126 -71Q157 -71 174 -63T199 -34L206 -15L145 127L-1 500H221L281 229L302 118L326 232L389 500H588L425 30Z" />
<glyph unicode="z" glyph-name="z" horiz-adv-x="508" d="M29 119L204 316L254 365L178 363H29V500H478V381L304 186L253 135L338 137H487V0H29V119Z" />
<glyph unicode="{" glyph-name="braceleft" horiz-adv-x="445" d="M316 -26T342 -47T426 -69L424 -192Q326 -192 269 -175T185 -117T158 -6V103Q158 159 133 183T46 207V331Q107 331 132 355T158 435V545Q158 614 184 654T268 713T424 731L426 607Q368 607 342
586T316 516V389Q316 342 293 313T223 269Q269 254 292 226T316 149V23Q316 -26 342 -47Z" />
<glyph unicode="|" glyph-name="bar" horiz-adv-x="348" d="M263 -168H85V706H263V-168Z" />
<glyph unicode="}" glyph-name="braceright" horiz-adv-x="445" d="M287 379T312 355T399 331V207Q338 207 313 183T287 103V-6Q287 -76 261 -116T177 -174T21 -192L18 -69Q76 -69 102 -48T129 23V149Q129 197 152 225T221 269Q175 284 152 313T129 389V516Q129
564 103 585T18 607L21 731Q119 731 176 713T260 655T287 545V435Q287 379 312 355Z" />
<glyph unicode="~" glyph-name="asciitilde" horiz-adv-x="617" d="M570 336T527 283T403 229Q366 229 342 239T289 267Q272 278 261 283T238 289Q219 289 209 277T195 236H43Q48 339 91 392T215 446Q252 446 276 436T329 408Q345 397 356 392T379 386Q398 386
408 398T422 439H574Q570 336 527 283Z" />
<glyph unicode="&#xa0;" glyph-name="uni00A0" horiz-adv-x="267" />
<glyph unicode="&#xa1;" glyph-name="exclamdown" horiz-adv-x="310" d="M105 327T77 350T48 417Q48 460 76 484T156 508Q206 508 234 484T263 417Q263 374 235 351T156 327Q105 327 77 350ZM50 27L72 282H239L261 27V-160H50V27Z" />
<glyph unicode="&#xa2;" glyph-name="cent" horiz-adv-x="578" d="M556 79T499 37T339 -9V-100H280V-9Q161 0 99 67T36 250Q36 367 100 434T280 509V600H339V509Q450 503 502 459T557 347L411 297Q407 334 388 356T339 386V113Q403 125 414 196L557 146Q556 79
499 37ZM211 185T228 154T280 115V385Q244 377 228 345T211 248Q211 185 228 154Z" />
<glyph unicode="&#xa3;" glyph-name="sterling" horiz-adv-x="623" d="M600 162T600 138Q600 76 562 33T457 -10Q409 -10 373 6T294 51Q238 -10 153 -10Q99 -10 64 15T29 85Q29 131 66 155T158 180Q190 180 216 177Q213 217 198 249H41V359H124Q102 392 94 419T85
477Q85 529 112 573T195 643T331 670Q545 670 581 488L419 415Q405 479 384 504T327 529Q296 529 278 513T259 469Q259 451 268 430T298 378Q308 363 310 359H507V249H353Q355 225 355 214Q355 176 344 138Q365 131 382 127T419 123Q484 123 478 200L594 184Q600
162 600 138ZM177 58T190 68T210 102Q183 113 156 113Q117 113 117 86Q117 73 127 66T155 58Q177 58 190 68Z" />
<glyph unicode="&#xa4;" glyph-name="currency" horiz-adv-x="640" d="M534 278T514 235L615 149L500 34L410 138Q368 122 321 122Q271 122 229 139L139 34L24 149L125 236Q106 279 106 330Q106 380 125 423L24 510L139 624L229 520Q271 537 321 537Q369 537 411
520L500 624L615 510L515 423Q534 379 534 330Q534 278 514 235ZM351 260T369 279T387 330Q387 361 369 380T321 399Q290 399 272 380T253 330Q253 298 271 279T321 260Q351 260 369 279Z" />
<glyph unicode="&#xa5;" glyph-name="yen" horiz-adv-x="699" d="M526 308H640V248H448V185H640V127H448V0H251V127H59V185H251V248H59V308H173L239 304L14 660H220L307 467L349 364H351L393 468L480 660H685L460 304L526 308Z" />
<glyph unicode="&#xa6;" glyph-name="brokenbar" horiz-adv-x="279" d="M229 321H50V706H229V321ZM229 -168H50V218H229V-168Z" />
<glyph unicode="&#xa7;" glyph-name="section" horiz-adv-x="631" d="M611 185T540 131Q552 104 552 68Q552 -17 489 -63T312 -110Q223 -110 169 -88T72 -16L170 77Q196 44 227 30T310 15Q360 15 384 23T409 49Q409 69 382 80T286 98Q148 109 85 151T21 269Q21
362 91 417Q79 446 79 481Q79 567 144 618T321 670Q410 670 463 648T559 576L462 483Q435 516 404 530T322 545Q274 545 249 532T223 499Q223 480 249 469T345 451Q483 439 547 397T611 280Q611 185 540 131ZM157 278T186 266T289 246Q389 236 448 212Q475 227
475 249Q475 271 446 283T343 303Q242 312 183 337Q157 322 157 300Q157 278 186 266Z" />
<glyph unicode="&#xa8;" glyph-name="dieresis" horiz-adv-x="500" d="M181 716T206 694T231 631Q231 590 206 568T135 546Q91 546 66 568T41 631Q41 671 66 693T135 716Q181 716 206 694ZM410 716T435 694T460 631Q460 590 435 568T364 546Q320 546 295 568T270
631Q270 671 295 693T364 716Q410 716 435 694Z" />
<glyph unicode="&#xa9;" glyph-name="copyright" horiz-adv-x="755" d="M480 670T558 628T680 509T723 330Q723 228 680 151T559 32T377 -10Q274 -10 196 32T75 151T32 330Q32 432 75 509T196 628T377 670Q480 670 558 628ZM302 580T246 549T159 462T128 330Q128
255 158 199T245 111T377 80Q452 80 508 111T596 198T627 330Q627 405 596 461T509 549T377 580Q302 580 246 549ZM522 523T558 407L449 353Q439 372 425 379T384 387Q330 387 330 330Q330 272 385 272Q413 272 427 279T451 309L555 256Q529 190 489 163T370 136Q290
136 242 189T193 330Q193 418 241 470T370 523Q522 523 558 407Z" />
<glyph unicode="&#xaa;" glyph-name="ordfeminine" horiz-adv-x="458" d="M238 511V524Q238 543 228 554T198 565Q155 565 150 517L29 540Q36 598 80 629T206 661Q297 661 340 626T384 519V414Q384 399 391 392T410 384Q423 384 429 387L418 312Q395 299 357 299Q320
299 296 313T263 356Q246 329 214 314T135 299Q25 299 25 382Q25 427 57 453T163 495L238 511ZM213 381T225 391T238 422V457L205 448Q164 437 164 408Q164 381 195 381Q213 381 225 391ZM37 234H418V133H37V234Z" />
<glyph unicode="&#xab;" glyph-name="guillemotleft" horiz-adv-x="618" d="M205 265L323 69H154L29 265L154 461H323L205 265ZM471 265L589 69H420L295 265L420 461H589L471 265Z" />
<glyph unicode="&#xac;" glyph-name="logicalnot" horiz-adv-x="604" d="M544 397V85H387V259H60V397H544Z" />
<glyph unicode="&#xad;" glyph-name="uni00AD" horiz-adv-x="534" d="M457 191H78V349H457V191Z" />
<glyph unicode="&#xae;" glyph-name="registered" horiz-adv-x="755" d="M480 670T558 628T680 509T723 330Q723 228 680 151T559 32T377 -10Q274 -10 196 32T75 151T32 330Q32 432 75 509T196 628T377 670Q480 670 558 628ZM452 80T508 111T596 198T627 330Q627
405 596 461T509 549T377 580Q302 580 246 549T159 462T128 330Q128 255 158 199T245 111T377 80Q452 80 508 111ZM541 356T522 328T466 286L550 154H412L356 275H343V154H230V516H413Q467 516 504 482T541 396Q541 356 522 328ZM343 352H382Q425 352 425 386Q425
421 382 421H343V352Z" />
<glyph unicode="&#xaf;" glyph-name="overscore" horiz-adv-x="500" d="M440 559H60V678H440V559Z" />
<glyph unicode="&#xb0;" glyph-name="degree" horiz-adv-x="508" d="M155 283T98 335T40 477Q40 566 97 618T254 670Q353 670 410 618T468 477Q468 387 411 335T254 283Q155 283 98 335ZM285 407T305 426T325 477Q325 508 306 527T254 546Q222 546 203 527T183
477Q183 446 203 427T254 407Q285 407 305 426Z" />
<glyph unicode="&#xb1;" glyph-name="plusminus" horiz-adv-x="604" d="M556 493V360H373V196H232V360H48V493H232V656H373V493H556ZM48 129H556V1H48V129Z" />
<glyph unicode="&#xb2;" glyph-name="uni00B2" horiz-adv-x="402" d="M25 421Q69 441 113 468Q228 538 228 592Q228 608 219 617T192 627Q147 627 150 557L11 592Q12 661 61 698T195 735Q289 735 333 697T378 604Q378 534 298 482Q265 459 212 442V440Q260 444
314 444H382V333H25V421Z" />
<glyph unicode="&#xb3;" glyph-name="uni00B3" horiz-adv-x="386" d="M271 735T314 706T357 620Q357 582 335 559T272 533V529Q318 529 341 508T365 447Q365 392 321 360T198 327Q118 327 71 351T4 430L136 477Q136 427 185 427Q204 427 214 436T225 462Q225 477
216 484T185 491H163V561H181Q219 561 219 595Q219 628 184 628Q143 628 139 580L12 620Q21 679 69 707T190 735Q271 735 314 706Z" />
<glyph unicode="&#xb4;" glyph-name="acute" horiz-adv-x="500" d="M421 734L319 559H175L238 734H421Z" />
<glyph unicode="&#xb5;" glyph-name="uni00B5" horiz-adv-x="619" d="M571 500V0H391L386 95Q349 -5 250 -10V-210H48V500H250V214Q250 174 262 158T302 141Q366 141 369 229V500H571Z" />
<glyph unicode="&#xb6;" glyph-name="paragraph" horiz-adv-x="777" d="M719 -100H557V508H457V-100H294V227Q32 229 32 443Q32 552 102 606T315 660H719V-100Z" />
<glyph unicode="&#xb7;" glyph-name="middot" horiz-adv-x="291" d="M199 452T228 426T258 353Q258 306 229 280T146 253Q93 253 63 279T33 353Q33 400 63 426T146 452Q199 452 228 426Z" />
<glyph unicode="&#xb8;" glyph-name="cedilla" horiz-adv-x="500" d="M215 40Q303 31 350 -5T398 -93Q398 -155 356 -185T245 -215Q198 -215 168 -204T116 -173L158 -85Q187 -114 231 -114Q256 -114 271 -102T286 -67Q286 -42 262 -26T175 2L215 40Z" />
<glyph unicode="&#xb9;" glyph-name="uni00B9" horiz-adv-x="318" d="M280 730V333H139V537Q139 574 142 599Q80 556 22 553V669Q57 673 100 692T160 730H280Z" />
<glyph unicode="&#xba;" glyph-name="ordmasculine" horiz-adv-x="445" d="M133 299T83 347T32 480Q32 565 82 613T222 661Q311 661 362 613T413 480Q413 395 362 347T222 299Q133 299 83 347ZM246 390T256 410T266 480Q266 528 256 549T222 570Q199 570 189 549T178
480Q178 432 188 411T222 390Q246 390 256 410ZM36 234H409V133H36V234Z" />
<glyph unicode="&#xbb;" glyph-name="guillemotright" horiz-adv-x="618" d="M198 461L323 265L198 69H29L147 265L29 461H198ZM464 461L589 265L464 69H295L413 265L295 461H464Z" />
<glyph unicode="&#xbc;" glyph-name="onequarter" horiz-adv-x="919" d="M280 665V268H139V472Q139 497 142 534Q80 491 22 488V604Q57 608 100 627T160 665H280ZM623 661H757L281 0H147L623 661ZM905 75H849V-4H724V75H522V139L677 394H849V169H905V75ZM724 169V233Q724
254 726 292L727 315H724Q712 282 694 253L642 169H724Z" />
<glyph unicode="&#xbd;" glyph-name="onehalf" horiz-adv-x="988" d="M280 665V268H139V472Q139 497 142 534Q80 491 22 488V604Q57 608 100 627T160 665H280ZM623 661H757L281 0H147L623 661ZM611 84Q655 104 699 131Q814 201 814 255Q814 271 805 280T778 290Q733
290 736 220L597 255Q598 324 647 361T781 398Q875 398 919 360T964 267Q964 197 884 145Q851 122 798 105V103Q846 107 900 107H968V-4H611V84Z" />
<glyph unicode="&#xbe;" glyph-name="threequarters" horiz-adv-x="987" d="M271 670T314 641T357 555Q357 517 335 494T272 468V464Q318 464 341 443T365 382Q365 327 321 295T198 262Q118 262 71 286T4 365L136 412Q136 362 185 362Q204 362 214 371T225 397Q225
412 216 419T185 426H163V496H181Q219 496 219 530Q219 563 184 563Q143 563 139 515L12 555Q21 614 69 642T190 670Q271 670 314 641ZM691 661H825L349 0H215L691 661ZM972 75H916V-4H791V75H589V139L744 394H916V169H972V75ZM791 169V233Q791 254 793 292L794
315H791Q779 282 761 253L709 169H791Z" />
<glyph unicode="&#xbf;" glyph-name="questiondown" horiz-adv-x="630" d="M275 327T247 351T219 418Q219 461 247 485T326 509Q377 509 405 485T434 418Q434 375 406 351T326 327Q275 327 247 351ZM184 -169T112 -124T39 16Q39 108 90 152T230 206L244 285H412L425
131Q335 127 297 106T258 47Q258 -9 323 -9Q399 -9 403 79L600 9Q591 -72 521 -120T310 -169Q184 -169 112 -124Z" />
<glyph unicode="&#xc0;" glyph-name="Agrave" horiz-adv-x="684" d="M261 715L167 879H352L405 715H261ZM440 137H239L201 0H-3L219 660H464L687 0H477L440 137ZM405 269L369 400L341 508H339L312 401L275 269H405Z" />
<glyph unicode="&#xc1;" glyph-name="Aacute" horiz-adv-x="684" d="M404 715H260L313 879H498L404 715ZM440 137H239L201 0H-3L219 660H464L687 0H477L440 137ZM405 269L369 400L341 508H339L312 401L275 269H405Z" />
<glyph unicode="&#xc2;" glyph-name="Acircumflex" horiz-adv-x="684" d="M281 714H136L246 881H436L546 714H401L341 791L281 714ZM440 137H239L201 0H-3L219 660H464L687 0H477L440 137ZM405 269L369 400L341 508H339L312 401L275 269H405Z" />
<glyph unicode="&#xc3;" glyph-name="Atilde" horiz-adv-x="684" d="M440 137H239L201 0H-3L219 660H464L687 0H477L440 137ZM405 269L369 400L341 508H339L312 401L275 269H405ZM543 794T508 752T406 710Q376 710 358 719T318 744Q306 754 298 759T278 764Q263
764 255 752T244 712H136Q142 880 276 880Q306 880 325 871T365 846Q378 836 386 832T404 827Q419 827 427 839T438 879H546Q543 794 508 752Z" />
<glyph unicode="&#xc4;" glyph-name="Adieresis" horiz-adv-x="684" d="M440 137H239L201 0H-3L219 660H464L687 0H477L440 137ZM405 269L369 400L341 508H339L312 401L275 269H405ZM272 876T297 854T322 791Q322 750 297 728T226 706Q182 706 157 728T132 791Q132
831 157 853T226 876Q272 876 297 854ZM501 876T526 854T551 791Q551 750 526 728T455 706Q411 706 386 728T361 791Q361 831 386 853T455 876Q501 876 526 854Z" />
<glyph unicode="&#xc5;" glyph-name="Aring" horiz-adv-x="684" d="M440 137H239L201 0H-3L221 643Q184 674 184 731Q184 792 226 828T342 864Q417 864 459 828T501 731Q501 677 462 643L687 0H477L440 137ZM317 775T303 761T288 723Q288 700 302 686T342 672Q367
672 381 686T396 723Q396 747 382 761T342 775Q317 775 303 761ZM405 269L369 400L342 508H338L312 401L275 269H405Z" />
<glyph unicode="&#xc6;" glyph-name="AE" horiz-adv-x="913" d="M891 145V0H410V190H255L196 0H-7L239 660H878V515H599V397H813V262H599V145H891ZM410 315V522H357L293 315H410Z" />
<glyph unicode="&#xc7;" glyph-name="Ccedilla" horiz-adv-x="679" d="M622 30T453 -2Q504 -38 504 -93Q504 -155 462 -185T351 -215Q304 -215 274 -204T222 -173L264 -85Q293 -114 337 -114Q362 -114 377 -102T392 -67Q392 -47 378 -33T328 -8Q191 3 114 91T36
330Q36 436 76 512T190 629T366 670Q478 670 557 623T658 479L481 408Q470 469 445 491T372 514Q311 514 279 468T246 330Q246 146 370 146Q420 146 446 169T482 245L664 196Q622 30 453 -2Z" />
<glyph unicode="&#xc8;" glyph-name="Egrave" horiz-adv-x="628" d="M265 715L171 879H356L409 715H265ZM606 153V0H61V660H593V507H265V400H527V258H265V153H606Z" />
<glyph unicode="&#xc9;" glyph-name="Eacute" horiz-adv-x="628" d="M380 715H236L289 879H474L380 715ZM606 153V0H61V660H593V507H265V400H527V258H265V153H606Z" />
<glyph unicode="&#xca;" glyph-name="Ecircumflex" horiz-adv-x="628" d="M258 714H113L223 881H413L523 714H378L318 791L258 714ZM606 153V0H61V660H593V507H265V400H527V258H265V153H606Z" />
<glyph unicode="&#xcb;" glyph-name="Edieresis" horiz-adv-x="628" d="M606 153V0H61V660H593V507H265V400H527V258H265V153H606ZM248 876T273 854T298 791Q298 750 273 728T202 706Q158 706 133 728T108 791Q108 831 133 853T202 876Q248 876 273 854ZM477 876T502
854T527 791Q527 750 502 728T431 706Q387 706 362 728T337 791Q337 831 362 853T431 876Q477 876 502 854Z" />
<glyph unicode="&#xcc;" glyph-name="Igrave" horiz-adv-x="326" d="M227 715H83L-11 879H174L227 715ZM265 0H61V660H265V0Z" />
<glyph unicode="&#xcd;" glyph-name="Iacute" horiz-adv-x="326" d="M319 879L225 715H81L134 879H319ZM265 0H61V660H265V0Z" />
<glyph unicode="&#xce;" glyph-name="Icircumflex" horiz-adv-x="326" d="M223 714L163 791L103 714H-42L68 881H258L368 714H223ZM265 0H61V660H265V0Z" />
<glyph unicode="&#xcf;" glyph-name="Idieresis" horiz-adv-x="326" d="M97 876T122 854T147 791Q147 751 123 729T54 706Q11 706 -12 728T-36 791Q-36 831 -13 853T54 876Q97 876 122 854ZM313 876T338 854T363 791Q363 751 338 729T269 706Q226 706 203 728T179
791Q179 831 202 853T269 876Q313 876 338 854ZM265 0H61V660H265V0Z" />
<glyph unicode="&#xd0;" glyph-name="Eth" horiz-adv-x="744" d="M545 660T626 575T708 330Q708 171 627 86T391 0H88V283H10V373H88V660H391Q545 660 626 575ZM438 149T468 192T499 330Q499 424 469 467T366 511H293V373H399V283H293V149H366Q438 149 468 192Z" />
<glyph unicode="&#xd1;" glyph-name="Ntilde" horiz-adv-x="744" d="M683 0H459L279 327L237 417H235L239 286V0H61V660H284L464 333L507 243H508L504 374V660H683V0ZM574 794T539 752T437 710Q407 710 389 719T349 744Q337 754 329 759T309 764Q294 764 286 752T275
712H167Q173 880 307 880Q337 880 356 871T396 846Q409 836 417 832T435 827Q450 827 458 839T469 879H577Q574 794 539 752Z" />
<glyph unicode="&#xd2;" glyph-name="Ograve" horiz-adv-x="733" d="M431 715H287L193 879H378L431 715ZM522 670T609 581T696 330Q696 169 609 80T367 -10Q265 -10 191 30T76 147T36 330Q36 436 76 513T190 630T367 670Q522 670 609 581ZM306 514T276 469T246
330Q246 237 276 192T367 146Q428 146 457 191T487 330Q487 424 458 469T367 514Q306 514 276 469Z" />
<glyph unicode="&#xd3;" glyph-name="Oacute" horiz-adv-x="733" d="M523 879L429 715H285L338 879H523ZM522 670T609 581T696 330Q696 169 609 80T367 -10Q265 -10 191 30T76 147T36 330Q36 436 76 513T190 630T367 670Q522 670 609 581ZM306 514T276 469T246
330Q246 237 276 192T367 146Q428 146 457 191T487 330Q487 424 458 469T367 514Q306 514 276 469Z" />
<glyph unicode="&#xd4;" glyph-name="Ocircumflex" horiz-adv-x="733" d="M427 714L367 791L307 714H162L272 881H462L572 714H427ZM522 670T609 581T696 330Q696 169 609 80T367 -10Q265 -10 191 30T76 147T36 330Q36 436 76 513T190 630T367 670Q522 670 609
581ZM306 514T276 469T246 330Q246 237 276 192T367 146Q428 146 457 191T487 330Q487 424 458 469T367 514Q306 514 276 469Z" />
<glyph unicode="&#xd5;" glyph-name="Otilde" horiz-adv-x="733" d="M522 670T609 581T696 330Q696 169 609 80T367 -10Q265 -10 191 30T76 147T36 330Q36 436 76 513T190 630T367 670Q522 670 609 581ZM306 514T276 469T246 330Q246 237 276 192T367 146Q428
146 457 191T487 330Q487 424 458 469T367 514Q306 514 276 469ZM568 794T533 752T431 710Q401 710 383 719T343 744Q331 754 323 759T303 764Q288 764 280 752T269 712H161Q167 880 301 880Q331 880 350 871T390 846Q403 836 411 832T429 827Q444 827 452 839T463
879H571Q568 794 533 752Z" />
<glyph unicode="&#xd6;" glyph-name="Odieresis" horiz-adv-x="733" d="M522 670T609 581T696 330Q696 169 609 80T367 -10Q265 -10 191 30T76 147T36 330Q36 436 76 513T190 630T367 670Q522 670 609 581ZM306 514T276 469T246 330Q246 237 276 192T367 146Q428
146 457 191T487 330Q487 424 458 469T367 514Q306 514 276 469ZM297 876T322 854T347 791Q347 750 322 728T251 706Q207 706 182 728T157 791Q157 831 182 853T251 876Q297 876 322 854ZM526 876T551 854T576 791Q576 750 551 728T480 706Q436 706 411 728T386
791Q386 831 411 853T480 876Q526 876 551 854Z" />
<glyph unicode="&#xd7;" glyph-name="multiply" horiz-adv-x="604" d="M408 329L559 178L454 72L302 223L150 72L44 178L196 329L44 481L150 587L302 435L454 587L559 481L408 329Z" />
<glyph unicode="&#xd8;" glyph-name="Oslash" horiz-adv-x="733" d="M696 495T696 330Q696 169 609 80T367 -10Q262 -10 187 32L147 -24H55L128 76Q83 120 60 184T36 330Q36 436 76 513T190 630T367 670Q471 670 547 628L585 681H676L605 584Q696 495 696 330ZM306
514T276 469T246 330Q246 272 256 235L438 491Q409 514 367 514Q306 514 276 469ZM428 146T457 191T487 330Q487 381 478 418L300 166Q328 146 367 146Q428 146 457 191Z" />
<glyph unicode="&#xd9;" glyph-name="Ugrave" horiz-adv-x="710" d="M419 715H275L181 879H366L419 715ZM663 277Q663 -10 355 -10Q47 -10 47 277V660H253V266Q253 146 355 146Q458 146 458 266V660H663V277Z" />
<glyph unicode="&#xda;" glyph-name="Uacute" horiz-adv-x="710" d="M512 879L418 715H274L327 879H512ZM663 277Q663 -10 355 -10Q47 -10 47 277V660H253V266Q253 146 355 146Q458 146 458 266V660H663V277Z" />
<glyph unicode="&#xdb;" glyph-name="Ucircumflex" horiz-adv-x="710" d="M415 714L355 791L295 714H150L260 881H450L560 714H415ZM663 277Q663 -10 355 -10Q47 -10 47 277V660H253V266Q253 146 355 146Q458 146 458 266V660H663V277Z" />
<glyph unicode="&#xdc;" glyph-name="Udieresis" horiz-adv-x="710" d="M663 277Q663 -10 355 -10Q47 -10 47 277V660H253V266Q253 146 355 146Q458 146 458 266V660H663V277ZM286 876T311 854T336 791Q336 750 311 728T240 706Q196 706 171 728T146 791Q146 831
171 853T240 876Q286 876 311 854ZM515 876T540 854T565 791Q565 750 540 728T469 706Q425 706 400 728T375 791Q375 831 400 853T469 876Q515 876 540 854Z" />
<glyph unicode="&#xdd;" glyph-name="Yacute" horiz-adv-x="687" d="M499 879L405 715H261L314 879H499ZM446 234V0H241V234L9 660H216L296 495L345 380L393 495L474 660H677L446 234Z" />
<glyph unicode="&#xde;" glyph-name="Thorn" horiz-adv-x="680" d="M509 566T578 508T646 337Q647 225 578 167T380 108H265V0H61V660H265V566H380Q509 566 578 508ZM442 256T441 337Q442 417 350 417H265V256H350Q442 256 441 337Z" />
<glyph unicode="&#xdf;" glyph-name="germandbls" horiz-adv-x="657" d="M535 354T583 306T632 179Q632 127 608 85T535 16T412 -10Q371 -10 338 -2T282 22L311 152Q323 140 336 135T370 130Q401 130 419 151T438 208Q438 243 417 261T355 280H303L325 418H354Q387
419 405 440T424 497Q424 532 404 551T348 571Q295 571 273 541T251 439V0H49V448Q49 577 120 644T350 711Q436 711 496 686T588 617T619 515Q619 473 599 437T542 378T454 356V354Q535 354 583 306Z" />
<glyph unicode="&#xe0;" glyph-name="agrave" horiz-adv-x="585" d="M576 111T587 115L571 8Q538 -10 500 -10Q443 -10 406 10T356 71Q334 33 290 12T178 -10Q102 -10 63 21T23 112Q23 175 68 214T218 274L324 296V315Q324 344 309 360T267 376Q237 376 218 361T195
307L29 342Q40 422 101 466T274 510Q524 510 524 311V151Q524 111 559 111Q576 111 587 115ZM285 108T304 123T324 167V213L269 199Q217 186 217 147Q217 128 228 118T259 108Q285 108 304 123ZM352 559H208L106 734H289L352 559Z" />
<glyph unicode="&#xe1;" glyph-name="aacute" horiz-adv-x="585" d="M576 111T587 115L571 8Q538 -10 500 -10Q443 -10 406 10T356 71Q334 33 290 12T178 -10Q102 -10 63 21T23 112Q23 175 68 214T218 274L324 296V315Q324 344 309 360T267 376Q237 376 218 361T195
307L29 342Q40 422 101 466T274 510Q524 510 524 311V151Q524 111 559 111Q576 111 587 115ZM285 108T304 123T324 167V213L269 199Q217 186 217 147Q217 128 228 118T259 108Q285 108 304 123ZM436 734L334 559H190L253 734H436Z" />
<glyph unicode="&#xe2;" glyph-name="acircumflex" horiz-adv-x="585" d="M576 111T587 115L571 8Q538 -10 500 -10Q443 -10 406 10T356 71Q334 33 290 12T178 -10Q102 -10 63 21T23 112Q23 175 68 214T218 274L324 296V315Q324 344 309 360T267 376Q237 376 218
361T195 307L29 342Q40 422 101 466T274 510Q524 510 524 311V151Q524 111 559 111Q576 111 587 115ZM285 108T304 123T324 167V213L269 199Q217 186 217 147Q217 128 228 118T259 108Q285 108 304 123ZM339 552L277 631L215 552H74L181 728H373L480 552H339Z"
/>
<glyph unicode="&#xe3;" glyph-name="atilde" horiz-adv-x="585" d="M576 111T587 115L571 8Q538 -10 500 -10Q443 -10 406 10T356 71Q334 33 290 12T178 -10Q102 -10 63 21T23 112Q23 175 68 214T218 274L324 296V315Q324 344 309 360T267 376Q237 376 218 361T195
307L29 342Q40 422 101 466T274 510Q524 510 524 311V151Q524 111 559 111Q576 111 587 115ZM285 108T304 123T324 167V213L269 199Q217 186 217 147Q217 128 228 118T259 108Q285 108 304 123ZM478 634T443 592T341 550Q311 550 293 559T253 584Q241 594 233 599T213
604Q198 604 190 592T179 552H71Q77 720 211 720Q241 720 260 711T300 686Q313 676 321 672T339 667Q354 667 362 679T373 719H481Q478 634 443 592Z" />
<glyph unicode="&#xe4;" glyph-name="adieresis" horiz-adv-x="585" d="M576 111T587 115L571 8Q538 -10 500 -10Q443 -10 406 10T356 71Q334 33 290 12T178 -10Q102 -10 63 21T23 112Q23 175 68 214T218 274L324 296V315Q324 344 309 360T267 376Q237 376 218
361T195 307L29 342Q40 422 101 466T274 510Q524 510 524 311V151Q524 111 559 111Q576 111 587 115ZM285 108T304 123T324 167V213L269 199Q217 186 217 147Q217 128 228 118T259 108Q285 108 304 123ZM207 716T232 694T257 631Q257 590 232 568T161 546Q117 546
92 568T67 631Q67 671 92 693T161 716Q207 716 232 694ZM436 716T461 694T486 631Q486 590 461 568T390 546Q346 546 321 568T296 631Q296 671 321 693T390 716Q436 716 461 694Z" />
<glyph unicode="&#xe5;" glyph-name="aring" horiz-adv-x="585" d="M576 111T587 115L571 8Q538 -10 500 -10Q443 -10 406 10T356 71Q334 33 290 12T178 -10Q102 -10 63 21T23 112Q23 175 68 214T218 274L324 296V315Q324 344 309 360T267 376Q237 376 218 361T195
307L29 342Q40 422 101 466T274 510Q524 510 524 311V151Q524 111 559 111Q576 111 587 115ZM285 108T304 123T324 167V213L269 199Q217 186 217 147Q217 128 228 118T259 108Q285 108 304 123ZM344 787T380 755T416 665Q416 607 380 575T278 542Q213 542 177 574T140
665Q140 722 176 754T278 787Q344 787 380 755ZM257 709T245 698T233 665Q233 644 245 632T278 620Q299 620 311 632T324 665Q324 686 312 697T278 709Q257 709 245 698Z" />
<glyph unicode="&#xe6;" glyph-name="ae" horiz-adv-x="876" d="M848 229T843 207H521Q528 164 551 146T611 128Q640 128 654 139T676 176L839 129Q820 61 758 26T603 -10Q471 -10 415 84Q386 40 329 15T187 -10Q105 -10 65 22T24 110Q24 175 67 210T210 266L326
290V315Q326 376 266 376Q235 376 219 361T196 308L30 341Q40 420 97 465T262 510Q318 510 363 493T440 444Q498 510 600 510Q719 510 783 444T848 268Q848 229 843 207ZM561 373T543 353T520 287H660Q657 331 642 352T595 373Q561 373 543 353ZM286 99T306 116T326
168V211L275 199Q242 190 228 178T213 142Q213 99 258 99Q286 99 306 116Z" />
<glyph unicode="&#xe7;" glyph-name="ccedilla" horiz-adv-x="574" d="M361 129T370 202L551 145Q547 93 507 54T395 -1Q448 -37 448 -93Q448 -155 406 -185T295 -215Q248 -215 218 -204T166 -173L208 -85Q237 -114 281 -114Q306 -114 321 -102T336 -67Q336 -48
322 -34T273 -9Q153 0 91 67T28 250Q28 374 99 442T298 510Q425 510 484 464T552 347L365 290Q362 371 308 371Q268 371 250 343T231 248Q231 182 250 156T307 129Q361 129 370 202Z" />
<glyph unicode="&#xe8;" glyph-name="egrave" horiz-adv-x="583" d="M556 226T551 204H222Q228 162 249 145T308 128Q369 128 383 176L546 129Q527 61 464 26T308 -10Q172 -10 100 57T28 250Q28 374 98 442T297 510Q422 510 489 444T556 262Q556 226 551 204ZM265
373T247 354T222 292H367Q362 333 346 353T298 373Q265 373 247 354ZM371 559H227L125 734H308L371 559Z" />
<glyph unicode="&#xe9;" glyph-name="eacute" horiz-adv-x="583" d="M556 226T551 204H222Q228 162 249 145T308 128Q369 128 383 176L546 129Q527 61 464 26T308 -10Q172 -10 100 57T28 250Q28 374 98 442T297 510Q422 510 489 444T556 262Q556 226 551 204ZM265
373T247 354T222 292H367Q362 333 346 353T298 373Q265 373 247 354ZM456 734L354 559H210L273 734H456Z" />
<glyph unicode="&#xea;" glyph-name="ecircumflex" horiz-adv-x="583" d="M556 226T551 204H222Q228 162 249 145T308 128Q369 128 383 176L546 129Q527 61 464 26T308 -10Q172 -10 100 57T28 250Q28 374 98 442T297 510Q422 510 489 444T556 262Q556 226 551
204ZM265 373T247 354T222 292H367Q362 333 346 353T298 373Q265 373 247 354ZM358 552L296 631L234 552H93L200 728H392L499 552H358Z" />
<glyph unicode="&#xeb;" glyph-name="edieresis" horiz-adv-x="583" d="M556 226T551 204H222Q228 162 249 145T308 128Q369 128 383 176L546 129Q527 61 464 26T308 -10Q172 -10 100 57T28 250Q28 374 98 442T297 510Q422 510 489 444T556 262Q556 226 551 204ZM265
373T247 354T222 292H367Q362 333 346 353T298 373Q265 373 247 354ZM226 716T251 694T276 631Q276 590 251 568T180 546Q136 546 111 568T86 631Q86 671 111 693T180 716Q226 716 251 694ZM455 716T480 694T505 631Q505 590 480 568T409 546Q365 546 340 568T315
631Q315 671 340 693T409 716Q455 716 480 694Z" />
<glyph unicode="&#xec;" glyph-name="igrave" horiz-adv-x="300" d="M251 0H49V500H251V0ZM481 559H337L235 734H418L481 559Z" />
<glyph unicode="&#xed;" glyph-name="iacute" horiz-adv-x="300" d="M251 0H49V500H251V0ZM568 734L466 559H322L385 734H568Z" />
<glyph unicode="&#xee;" glyph-name="icircumflex" horiz-adv-x="300" d="M251 0H49V500H251V0ZM468 552L406 631L344 552H203L310 728H502L609 552H468Z" />
<glyph unicode="&#xef;" glyph-name="idieresis" horiz-adv-x="300" d="M-41 544T-41 631Q-41 674 -19 696T48 718Q137 718 137 631Q137 544 48 544Q-41 544 -41 631ZM163 544T163 631Q163 718 252 718Q296 718 318 696T341 631Q341 544 252 544Q163 544 163 631ZM251
0H49V500H251V0Z" />
<glyph unicode="&#xf0;" glyph-name="eth" horiz-adv-x="598" d="M473 604Q567 480 567 308Q567 194 539 125T451 23T291 -10Q171 -10 103 57T34 245Q34 324 64 381T151 469T281 499Q377 499 414 430Q396 510 341 574L186 544L175 602L300 616Q248 663 165 719H336Q390
692 438 644L560 671L575 613L473 604ZM344 129T361 156T378 245Q378 314 361 343T306 372Q269 372 253 343T237 245Q237 184 253 157T305 129Q344 129 361 156Z" />
<glyph unicode="&#xf1;" glyph-name="ntilde" horiz-adv-x="620" d="M485 510T528 465T572 338V0H370V284Q370 325 357 342T319 359Q287 359 269 336T251 263V0H49V500H231L236 397Q258 452 302 481T408 510Q485 510 528 465ZM512 634T477 592T375 550Q345 550
327 559T287 584Q275 594 267 599T247 604Q232 604 224 592T213 552H105Q111 720 245 720Q275 720 294 711T334 686Q347 676 355 672T373 667Q388 667 396 679T407 719H515Q512 634 477 592Z" />
<glyph unicode="&#xf2;" glyph-name="ograve" horiz-adv-x="600" d="M429 510T500 442T572 250Q572 127 501 59T300 -10Q171 -10 100 58T28 250Q28 373 99 441T300 510Q429 510 500 442ZM262 371T247 345T231 250Q231 182 246 156T300 129Q338 129 353 155T369
250Q369 318 354 344T300 371Q262 371 247 345ZM375 559H231L129 734H312L375 559Z" />
<glyph unicode="&#xf3;" glyph-name="oacute" horiz-adv-x="600" d="M429 510T500 442T572 250Q572 127 501 59T300 -10Q171 -10 100 58T28 250Q28 373 99 441T300 510Q429 510 500 442ZM262 371T247 345T231 250Q231 182 246 156T300 129Q338 129 353 155T369
250Q369 318 354 344T300 371Q262 371 247 345ZM460 734L358 559H214L277 734H460Z" />
<glyph unicode="&#xf4;" glyph-name="ocircumflex" horiz-adv-x="600" d="M429 510T500 442T572 250Q572 127 501 59T300 -10Q171 -10 100 58T28 250Q28 373 99 441T300 510Q429 510 500 442ZM262 371T247 345T231 250Q231 182 246 156T300 129Q338 129 353 155T369
250Q369 318 354 344T300 371Q262 371 247 345ZM362 552L300 631L238 552H97L204 728H396L503 552H362Z" />
<glyph unicode="&#xf5;" glyph-name="otilde" horiz-adv-x="600" d="M429 510T500 442T572 250Q572 127 501 59T300 -10Q171 -10 100 58T28 250Q28 373 99 441T300 510Q429 510 500 442ZM262 371T247 345T231 250Q231 182 246 156T300 129Q338 129 353 155T369
250Q369 318 354 344T300 371Q262 371 247 345ZM502 634T467 592T365 550Q335 550 317 559T277 584Q265 594 257 599T237 604Q222 604 214 592T203 552H95Q101 720 235 720Q265 720 284 711T324 686Q337 676 345 672T363 667Q378 667 386 679T397 719H505Q502 634
467 592Z" />
<glyph unicode="&#xf6;" glyph-name="odieresis" horiz-adv-x="600" d="M429 510T500 442T572 250Q572 127 501 59T300 -10Q171 -10 100 58T28 250Q28 373 99 441T300 510Q429 510 500 442ZM262 371T247 345T231 250Q231 182 246 156T300 129Q338 129 353 155T369
250Q369 318 354 344T300 371Q262 371 247 345ZM230 716T255 694T280 631Q280 590 255 568T184 546Q140 546 115 568T90 631Q90 671 115 693T184 716Q230 716 255 694ZM459 716T484 694T509 631Q509 590 484 568T413 546Q369 546 344 568T319 631Q319 671 344 693T413
716Q459 716 484 694Z" />
<glyph unicode="&#xf7;" glyph-name="divide" horiz-adv-x="604" d="M346 639T370 616T394 550Q394 509 370 486T303 462Q260 462 236 485T211 550Q211 592 235 615T303 639Q346 639 370 616ZM557 259H47V397H557V259ZM346 195T370 172T394 107Q394 65 370 42T303
19Q259 19 235 42T211 107Q211 148 235 171T303 195Q346 195 370 172Z" />
<glyph unicode="&#xf8;" glyph-name="oslash" horiz-adv-x="600" d="M393 510T459 473L496 521H563L500 442Q535 409 553 360T572 250Q572 127 501 59T300 -10Q211 -10 149 23L114 -24H47L106 53Q28 120 28 250Q28 373 99 441T300 510Q393 510 459 473ZM238 199L257
229L348 350Q333 371 300 371Q262 371 247 345T231 250Q231 222 237 199H238ZM338 129T353 155T369 250Q369 270 364 288H363L344 260L257 144Q271 129 300 129Q338 129 353 155Z" />
<glyph unicode="&#xf9;" glyph-name="ugrave" horiz-adv-x="620" d="M571 500V0H389L384 99Q339 -10 213 -10Q47 -10 47 164V500H249V214Q249 174 261 158T301 141Q333 141 351 165T369 237V500H571ZM380 559H236L134 734H317L380 559Z" />
<glyph unicode="&#xfa;" glyph-name="uacute" horiz-adv-x="620" d="M571 500V0H389L384 99Q339 -10 213 -10Q47 -10 47 164V500H249V214Q249 174 261 158T301 141Q333 141 351 165T369 237V500H571ZM465 734L363 559H219L282 734H465Z" />
<glyph unicode="&#xfb;" glyph-name="ucircumflex" horiz-adv-x="620" d="M571 500V0H389L384 99Q339 -10 213 -10Q47 -10 47 164V500H249V214Q249 174 261 158T301 141Q333 141 351 165T369 237V500H571ZM367 552L305 631L243 552H102L209 728H401L508 552H367Z" />
<glyph unicode="&#xfc;" glyph-name="udieresis" horiz-adv-x="620" d="M571 500V0H389L384 99Q339 -10 213 -10Q47 -10 47 164V500H249V214Q249 174 261 158T301 141Q333 141 351 165T369 237V500H571ZM235 716T260 694T285 631Q285 590 260 568T189 546Q145
546 120 568T95 631Q95 671 120 693T189 716Q235 716 260 694ZM464 716T489 694T514 631Q514 590 489 568T418 546Q374 546 349 568T324 631Q324 671 349 693T418 716Q464 716 489 694Z" />
<glyph unicode="&#xfd;" glyph-name="yacute" horiz-adv-x="583" d="M425 30Q394 -61 357 -114T269 -191T145 -215Q55 -215 -1 -180L38 -50Q54 -61 73 -66T126 -71Q157 -71 174 -63T199 -34L206 -15L145 127L-1 500H221L281 229L302 118L326 232L389 500H588L425
30ZM474 734L372 559H228L291 734H474Z" />
<glyph unicode="&#xfe;" glyph-name="thorn" horiz-adv-x="628" d="M487 510T541 447T595 257Q595 158 565 99T489 15T396 -10Q295 -10 251 77V-210H49V706H251V407Q272 455 310 482T403 510Q487 510 541 447ZM358 135T375 161T392 250Q392 313 375 339T320 366Q251
366 251 254V246Q251 135 320 135Q358 135 375 161Z" />
<glyph unicode="&#xff;" glyph-name="ydieresis" horiz-adv-x="583" d="M425 30Q394 -61 357 -114T269 -191T145 -215Q55 -215 -1 -180L38 -50Q54 -61 73 -66T126 -71Q157 -71 174 -63T199 -34L206 -15L145 127L-1 500H221L281 229L302 118L326 232L389 500H588L425
30ZM244 716T269 694T294 631Q294 590 269 568T198 546Q154 546 129 568T104 631Q104 671 129 693T198 716Q244 716 269 694ZM473 716T498 694T523 631Q523 590 498 568T427 546Q383 546 358 568T333 631Q333 671 358 693T427 716Q473 716 498 694Z" />
<glyph unicode="&#x2013;" glyph-name="endash" horiz-adv-x="701" d="M625 191H76V348H625V191Z" />
<glyph unicode="&#x2014;" glyph-name="emdash" horiz-adv-x="1003" d="M926 191H76V348H926V191Z" />
<glyph unicode="&#x2018;" glyph-name="quoteleft" horiz-adv-x="308" d="M97 336T67 375T37 476Q37 546 75 602T186 689L273 631Q222 611 188 585T139 522L144 519Q155 531 175 531Q213 531 241 508T269 439Q269 389 239 363T156 336Q97 336 67 375Z" />
<glyph unicode="&#x2019;" glyph-name="quoteright" horiz-adv-x="308" d="M216 686T246 647T277 547Q277 477 239 421T127 334L40 392Q148 434 174 500L169 504Q157 491 138 491Q101 491 73 515T45 583Q45 634 75 660T157 686Q216 686 246 647Z" />
<glyph unicode="&#x201a;" glyph-name="quotesinglbase" horiz-adv-x="298" d="M204 190T234 151T265 51Q265 -19 227 -75T115 -162L29 -105Q80 -84 114 -58T162 4L158 8Q145 -5 126 -5Q89 -5 61 19T33 87Q33 138 63 164T145 190Q204 190 234 151Z" />
<glyph unicode="&#x201c;" glyph-name="quotedblleft" horiz-adv-x="573" d="M97 336T67 375T37 476Q37 546 75 602T186 689L273 631Q222 611 188 585T139 522L144 519Q155 531 175 531Q213 531 241 508T269 439Q269 389 239 363T156 336Q97 336 67 375ZM362 336T332
375T302 476Q302 546 340 602T451 689L538 631Q487 611 453 585T404 522L409 519Q420 531 440 531Q478 531 506 508T534 439Q534 389 504 363T421 336Q362 336 332 375Z" />
<glyph unicode="&#x201d;" glyph-name="quotedblright" horiz-adv-x="567" d="M216 686T246 647T277 547Q277 477 239 421T127 334L40 392Q148 434 174 500L169 504Q157 491 138 491Q101 491 73 515T45 583Q45 634 75 660T157 686Q216 686 246 647ZM475 686T505
647T536 547Q536 477 498 421T386 334L299 392Q407 434 433 500L428 504Q416 491 397 491Q360 491 332 515T304 583Q304 634 334 660T416 686Q475 686 505 647Z" />
<glyph unicode="&#x201e;" glyph-name="quotedblbase" horiz-adv-x="557" d="M204 190T234 151T265 51Q265 -19 227 -75T115 -162L29 -105Q80 -84 114 -58T162 4L158 8Q145 -5 126 -5Q89 -5 61 19T33 87Q33 138 63 164T145 190Q204 190 234 151ZM462 190T492 151T523
51Q523 -19 485 -75T373 -162L287 -105Q338 -84 372 -58T420 4L416 8Q403 -5 384 -5Q347 -5 319 19T291 87Q291 138 321 164T403 190Q462 190 492 151Z" />
<glyph unicode="&#x2022;" glyph-name="bullet" horiz-adv-x="430" d="M292 490T335 448T379 331Q379 257 336 215T215 173Q138 173 95 215T51 331Q51 406 94 448T215 490Q292 490 335 448Z" />
<glyph unicode="&#x2039;" glyph-name="guilsinglleft" horiz-adv-x="353" d="M205 265L323 69H154L29 265L154 461H323L205 265Z" />
<glyph unicode="&#x203a;" glyph-name="guilsinglright" horiz-adv-x="353" d="M198 461L324 265L198 69H29L147 265L29 461H198Z" />
</font>
</defs>
</svg>
