<?xml version="1.0" standalone="no"?>
<!DOCTYPE svg PUBLIC "-//W3C//DTD SVG 1.1//EN" "http://www.w3.org/Graphics/SVG/1.1/DTD/svg11.dtd">
<svg xmlns="http://www.w3.org/2000/svg">
<defs >
<font id="Fruktur" horiz-adv-x="1140" ><font-face
    font-family="Fruktur"
    units-per-em="2048"
    panose-1="0 0 5 0 0 0 0 0 0 0"
    ascent="2020"
    descent="-540"
    alphabetic="0" />
<glyph unicode=" " glyph-name="space" horiz-adv-x="400" />
<glyph unicode="!" glyph-name="exclam" horiz-adv-x="691" d="M521 687Q503 648 443 622T315 596Q268 596 229 610T165 655Q182 793 217 913Q197 991 169 1084Q135 1200 118 1276T85 1467Q134 1532 230 1572T431 1613Q471 1613 509 1601T573 1566L457 964L521
687ZM285 459T233 400T135 280T81 195Q133 46 318 -34Q367 -18 430 26T546 129T612 251Q557 328 479 389T310 475Q285 459 233 400Z" />
<glyph unicode="&quot;" glyph-name="quotedbl" horiz-adv-x="905" d="M162 1595T110 1586T22 1561L108 940H280Q328 1063 359 1226T398 1531Q369 1563 318 1579T210 1595Q162 1595 110 1586ZM614 1595T562 1586T474 1561L560 940H732Q780 1063 811 1226T850 1531Q821
1563 770 1579T662 1595Q614 1595 562 1586Z" />
<glyph unicode="#" glyph-name="numbersign" horiz-adv-x="1444" d="M982 1169T1020 1169Q1084 1169 1140 1150T1252 1089L1203 859H1402Q1413 810 1413 767Q1413 694 1380 621H1156L1100 309H1330Q1344 270 1344 219Q1344 132 1304 45L1038 58L973 -255Q899 -256
834 -238T696 -182L746 64L531 72L474 -256Q318 -249 188 -182L231 82L23 101Q19 134 19 170Q19 210 27 242T53 309H264L305 614L76 626Q60 686 60 727Q60 755 67 785T91 859H337L383 1162Q414 1167 454 1167Q524 1167 586 1147T711 1089L663 859H885L932 1161Q982
1169 1020 1169ZM794 309L844 611H636L580 309H794Z" />
<glyph unicode="$" glyph-name="dollar" horiz-adv-x="980" d="M481 860T574 800T753 675T874 565Q875 553 875 527Q875 462 866 392T842 278Q777 215 712 168T573 90Q597 -17 610 -180Q550 -221 472 -221Q418 -221 369 -201T288 -144L346 107Q256 116 130 135Q82
222 82 300Q82 343 93 375T117 427T132 454Q327 448 509 315L558 339Q565 377 565 455Q565 487 564 498Q519 511 454 535Q338 578 237 631T98 732Q85 782 81 903T76 1115Q76 1142 108 1179T183 1249T254 1300Q292 1322 343 1345T441 1382L410 1617Q443 1669 499
1696T627 1724Q715 1724 752 1688L688 1377Q717 1371 738 1362L899 1308Q909 1271 909 1233Q909 1141 867 1040T760 882Q693 910 603 978T464 1112L438 1103L429 888Q481 860 574 800Z" />
<glyph unicode="%" glyph-name="percent" horiz-adv-x="1990" d="M415 -95T369 -55T312 35L1378 1576Q1434 1573 1507 1522T1624 1412L475 -112Q415 -95 369 -55ZM638 1549T728 1438T818 1134Q818 1008 775 909T642 751T420 693Q223 693 132 809T40 1120Q42 1246
84 1342T215 1494T435 1549Q638 1549 728 1438ZM314 1218T314 1131Q314 1036 339 929Q385 898 467 879L512 911Q531 1000 531 1081Q531 1176 506 1278L387 1320L337 1296Q314 1218 314 1131ZM1750 835T1840 724T1930 420Q1930 294 1887 195T1754 37T1532 -21Q1335
-21 1244 95T1152 406Q1154 532 1196 628T1327 780T1547 835Q1750 835 1840 724ZM1426 504T1426 417Q1426 322 1451 215Q1497 184 1579 165L1624 197Q1643 286 1643 367Q1643 462 1618 564L1499 606L1449 582Q1426 504 1426 417Z" />
<glyph unicode="&amp;" glyph-name="ampersand" horiz-adv-x="1444" d="M1410 863T1410 766Q1410 702 1394 646T1354 551T1311 503Q1217 541 1123 605L1110 593Q1138 418 1138 201Q1099 151 1032 104T884 23T727 -20Q638 -15 519 11T297 74T148 147Q132 198 124
257T115 373Q115 431 124 480T150 561Q190 608 251 653T372 725Q301 820 256 895T178 1043T101 1232Q111 1285 170 1355T308 1480T448 1549Q504 1541 637 1507T813 1450L1156 1481Q1169 1419 1169 1359Q1169 1271 1145 1196T1087 1071T1027 1010Q982 1012 890 1046T705
1131T563 1235L501 1187L583 851Q606 861 636 867T693 876Q726 823 726 750Q726 700 711 651T671 565T618 517Q597 521 563 535T498 566L465 533Q462 485 462 432Q462 367 466 331Q523 301 635 275T831 249Q854 249 864 250L856 279Q820 423 799 516T767 702Q780
774 818 846T912 945L1100 875L1363 945Q1410 863 1410 766Z" />
<glyph unicode="&apos;" glyph-name="quotesingle" horiz-adv-x="453" d="M162 1595T110 1586T22 1561L108 940H280Q328 1063 359 1226T398 1531Q369 1563 318 1579T210 1595Q162 1595 110 1586Z" />
<glyph unicode="(" glyph-name="parenleft" horiz-adv-x="694" d="M571 1597T525 1404T455 1067T429 855Q442 612 511 365T693 -179Q585 -262 413 -291Q270 11 204 276T118 800Q118 972 177 1195T322 1603T480 1852L636 1802Q571 1597 525 1404Z" />
<glyph unicode=")" glyph-name="parenright" horiz-adv-x="694" d="M123 -36T169 157T239 494T265 706Q252 949 183 1196T1 1740Q109 1823 281 1852Q424 1550 490 1285T576 761Q576 589 517 366T372 -42T214 -291L58 -241Q123 -36 169 157Z" />
<glyph unicode="*" glyph-name="asterisk" horiz-adv-x="1081" d="M385 596Q304 596 232 648T119 770Q246 924 427 1027L425 1038L376 1037Q286 1037 196 1047T37 1080Q44 1175 87 1265T199 1403L474 1162L487 1170Q461 1233 441 1358T414 1570Q454 1607 507 1628T619
1649Q657 1649 701 1641T776 1618L638 1162Q642 1159 644 1156T650 1151L967 1376Q1004 1341 1024 1283T1044 1159Q1044 1093 1025 1037Q958 1022 874 1022Q796 1022 661 1041L656 1031L964 787Q919 713 845 668T678 612Q639 677 600 771T528 963L520 965L385 596Z"
/>
<glyph unicode="+" glyph-name="plus" horiz-adv-x="1069" d="M982 726T982 695Q982 643 963 588T907 461H657V114Q597 44 512 44Q464 44 402 68L421 460H91Q88 490 88 515Q88 565 101 599T147 689L416 710L357 1034Q390 1086 446 1113T574 1141Q662 1141 699
1105L659 729L975 754Q982 726 982 695Z" />
<glyph unicode="," glyph-name="comma" horiz-adv-x="651" d="M110 -244Q153 -220 247 -141T429 33T549 204Q538 248 504 302T392 403T188 451L-11 -176L110 -244Z" />
<glyph unicode="-" glyph-name="hyphen" horiz-adv-x="967" d="M861 738Q868 710 868 676Q868 570 793 423Q759 420 696 420Q617 420 460 425T111 437Q108 467 108 494Q108 550 122 593T167 689L861 738Z" />
<glyph unicode="." glyph-name="period" horiz-adv-x="590" d="M219 459T167 400T69 280T15 195Q67 46 252 -34Q301 -18 364 26T480 129T546 251Q491 328 413 389T244 475Q219 459 167 400Z" />
<glyph unicode="/" glyph-name="slash" horiz-adv-x="788" d="M283 -241T222 -224T103 -166L375 1660Q402 1669 448 1669Q516 1669 597 1651T721 1605L360 -239Q283 -241 222 -224Z" />
<glyph unicode="0" glyph-name="zero" horiz-adv-x="1158" d="M869 1185T980 1023T1087 581Q1084 409 1030 274T860 60T567 -20Q305 -20 188 138T71 562Q71 843 194 1014T588 1185Q869 1185 980 1023ZM425 720T425 588Q425 442 455 290Q520 246 632 222L694 265Q718
399 718 513Q718 591 710 674T685 826L522 883L453 850Q425 720 425 588Z" />
<glyph unicode="1" glyph-name="one" horiz-adv-x="748" d="M624 919T600 721T542 371Q573 272 593 198T626 22Q597 0 552 -10T453 -20Q390 -20 317 -9T216 22L293 565L263 768L72 735L3 884Q80 982 206 1066T464 1180Q554 1127 630 1058Q624 919 600 721Z" />
<glyph unicode="2" glyph-name="two" horiz-adv-x="1135" d="M1071 346T1071 263Q1071 159 1014 80Q939 -20 829 -20Q750 -20 652 27T488 132L487 130L484 136L469 150Q447 113 442 105Q364 -12 233 -17Q191 9 155 82T98 245T81 403Q150 464 232 491Q263 482 293
465T365 413Q438 485 534 596T667 762L664 815L455 890L424 878L387 601Q328 580 275 580Q238 580 185 595Q156 653 130 746T103 918Q103 987 127 1028Q164 1065 242 1107T406 1179T548 1208Q612 1204 702 1180T880 1112T1022 1012Q1044 922 1044 847Q1044 799
1035 743Q991 686 902 611T717 469T559 367L560 357L798 327L888 469L1036 441Q1071 346 1071 263Z" />
<glyph unicode="3" glyph-name="three" horiz-adv-x="1075" d="M724 492T820 452T978 359T1039 259Q1039 86 979 -34T810 -217Q751 -251 661 -271T494 -291Q348 -291 237 -233T60 -79Q54 -49 54 -24Q54 18 70 48T121 107Q235 50 330 18T523 -15Q570 -15 633 -3Q649
29 662 84T683 191Q654 238 605 272T490 338Q459 286 399 243T286 189Q252 196 221 229T170 311T150 411Q150 477 183 530L275 566L400 528Q458 598 515 672T598 787L595 810L379 890L348 874L320 691Q256 669 199 669Q142 669 87 692L75 728Q54 787 43 830T31
917Q31 978 60 1028Q97 1072 172 1108T336 1172Q384 1188 423 1198T481 1208Q526 1208 618 1178T799 1101T930 1012Q953 938 953 862Q953 805 940 740Q818 598 624 506Q724 492 820 452Z" />
<glyph unicode="4" glyph-name="four" horiz-adv-x="1198" d="M1079 932T1079 905Q1079 798 1055 582T991 194Q1006 147 1033 5T1075 -251Q1046 -273 1001 -283T902 -293Q841 -293 772 -282T675 -251L722 78L341 144Q305 105 258 76T171 39Q137 46 106 82T55 171T35
278Q35 347 68 400L179 386L245 1066Q289 1124 363 1152T521 1181Q570 1181 624 1169T702 1126L435 366L741 344L652 777Q636 776 686 825T820 914T1003 955Q1044 955 1078 940Q1079 932 1079 905Z" />
<glyph unicode="5" glyph-name="five" horiz-adv-x="1049" d="M750 656T831 600T953 448T995 237Q995 83 940 -36T773 -223T497 -291Q351 -291 239 -233T57 -79Q49 -53 49 -17Q49 22 64 50T110 107Q204 61 258 37T379 -5T512 -23Q556 -23 595 -17Q611 -8 624 45T637
160Q637 222 626 276T599 346L430 341Q410 302 374 259T296 183T220 143Q185 153 149 193T87 287T61 390Q58 454 92 501L232 493L83 962Q85 1005 104 1054T156 1145T228 1205Q252 1200 282 1193T344 1179Q497 1142 542 1135L917 1205Q964 1123 964 1026Q964 963
945 903T899 802T853 751Q814 753 733 769T567 811T429 865L400 500L406 495Q541 628 638 654Q750 656 831 600Z" />
<glyph unicode="6" glyph-name="six" horiz-adv-x="1158" d="M489 769T590 847T791 926Q905 928 970 888T1061 773T1088 583L1087 541Q1078 280 950 130T557 -20Q308 -20 189 145T70 594Q70 637 73 682Q176 1119 769 1549Q827 1520 860 1481T930 1365Q750 1169
607 998T370 674L392 662Q489 769 590 847ZM421 436T425 408T445 328L451 307Q480 281 534 258T627 229L690 272Q707 354 707 437Q707 536 680 654Q612 637 550 599T420 501Q421 436 425 408Z" />
<glyph unicode="7" glyph-name="seven" horiz-adv-x="1050" d="M715 284L552 -275Q527 -283 507 -286T461 -290Q365 -290 280 -256T171 -162L458 365L611 823L372 858L345 531L170 511Q138 545 109 611T61 759T42 914Q42 959 49 995Q59 1047 118 1095T247 1173T340
1203Q426 1186 490 1162T649 1095L689 1077Q747 1123 800 1153T913 1203Q976 1168 1010 1098T1045 943Q1045 850 1007 770L885 790L715 284Z" />
<glyph unicode="8" glyph-name="eight" horiz-adv-x="1087" d="M1033 453T1033 381Q1033 276 995 185Q883 58 570 -34Q506 -33 415 -14T234 45T87 138Q56 237 56 333Q56 371 60 406Q76 500 147 585T323 751L124 920V921Q100 965 82 1045T64 1202Q64 1295 91 1346Q126
1385 202 1431T361 1511T502 1547Q566 1546 657 1527T838 1468T985 1375Q1016 1276 1016 1180Q1016 1142 1012 1107Q979 1037 898 940T731 776L1015 538Q1033 453 1033 381ZM434 1059T507 980Q534 951 589 896Q615 961 627 1017T649 1169Q543 1235 425 1236L386
1218L376 1115Q434 1059 507 980ZM696 418L481 631Q445 589 362 457Q349 436 347 433L355 341Q482 276 606 276Q619 276 647 278L687 296L696 418Z" />
<glyph unicode="9" glyph-name="nine" horiz-adv-x="1153" d="M663 439T561 362T359 284Q288 284 224 331T118 465T66 669Q63 701 63 731Q63 879 125 992T307 1167T596 1230Q845 1230 964 1065T1083 616Q1083 573 1080 528Q1038 350 928 199T693 -59T397 -291Q339
-262 306 -223T236 -107Q305 -32 350 14Q508 182 608 298T783 536L761 548Q663 439 561 362ZM732 756T726 798T702 903Q673 929 619 952T526 981L463 938Q446 856 446 761Q446 646 473 527L733 680Q732 756 726 798Z" />
<glyph unicode=":" glyph-name="colon" horiz-adv-x="691" d="M274 459T222 400T124 280T70 195Q122 46 307 -34Q356 -18 419 26T535 129T601 251Q546 328 468 389T299 475Q274 459 222 400ZM274 1226T222 1167T124 1047T70 962Q122 813 307 733Q356 749 419 793T535
896T601 1018Q546 1095 468 1156T299 1242Q274 1226 222 1167Z" />
<glyph unicode=";" glyph-name="semicolon" horiz-adv-x="691" d="M274 1226T222 1167T124 1047T70 962Q122 813 307 733Q356 749 419 793T535 896T601 1018Q546 1095 468 1156T299 1242Q274 1226 222 1167ZM133 -244Q176 -220 270 -141T452 33T572 204Q561 248
527 302T415 403T211 451L12 -176L133 -244Z" />
<glyph unicode="&lt;" glyph-name="less" horiz-adv-x="881" d="M858 211Q846 157 802 96T716 10L136 343Q112 371 94 459T76 626Q76 662 80 682L671 1107Q697 1096 733 1054T799 961T837 877L432 520L858 211Z" />
<glyph unicode="=" glyph-name="equal" horiz-adv-x="1093" d="M98 632T98 658Q98 710 111 748T157 841L989 906Q996 878 996 846Q996 791 977 732T921 603L101 602Q98 632 98 658ZM98 240T98 266Q98 318 111 356T157 449L989 514Q996 486 996 454Q996 399 977
340T921 211L101 210Q98 240 98 266Z" />
<glyph unicode="&gt;" glyph-name="greater" horiz-adv-x="881" d="M23 906Q35 960 79 1021T165 1107L745 774Q769 746 787 658T805 491Q805 455 801 435L210 10Q184 21 148 63T82 156T44 240L449 597L23 906Z" />
<glyph unicode="?" glyph-name="question" horiz-adv-x="955" d="M525 813Q535 812 554 812Q619 812 680 826T787 856T832 874Q865 989 865 1140Q865 1209 858 1271T837 1377Q776 1464 673 1516T467 1590T299 1611Q260 1594 220 1545T149 1431T110 1306L226 1282Q375
1253 465 1230T620 1170L317 988Q263 955 241 924T218 856Q218 833 225 808T249 736Q276 665 290 605L477 595L525 813ZM364 459T312 400T214 280T160 195Q212 46 397 -34Q446 -18 509 26T625 129T691 251Q636 328 558 389T389 475Q364 459 312 400Z" />
<glyph unicode="@" glyph-name="at" horiz-adv-x="1704" d="M1536 -164T1362 -199T992 -235Q795 -235 620 -196T330 -76Q274 -10 228 98T156 327T129 551Q129 653 147 777T194 1010T255 1175Q313 1235 416 1282T645 1356T893 1382Q1068 1382 1227 1293T1483 1043T1574
678Q1547 565 1511 487T1412 317L1144 321Q1181 408 1214 540T1267 787T1284 931Q1240 982 1187 1005T1059 1029Q1015 1029 976 1022T923 1006L925 957Q929 812 929 807Q882 886 836 946T730 1047Q665 1037 582 1003T437 886Q426 870 422 861T417 841Q417 827 427
797Q455 705 471 563T488 315Q488 282 486 230Q485 213 485 190Q486 169 503 154T558 117Q580 105 593 96Q620 76 640 66T679 56Q705 56 728 76Q776 116 824 219T924 459L932 479L953 474Q935 367 924 250Q923 241 923 226Q923 202 929 186T941 162T964 136Q998
100 1040 78T1121 55Q1193 55 1299 92T1551 233Q1586 165 1610 90T1634 -49Q1634 -80 1628 -105Q1536 -164 1362 -199ZM746 517T743 649L742 754L945 711L944 650Q912 580 852 476T748 328L712 348Q746 517 743 649Z" />
<glyph unicode="A" glyph-name="A" horiz-adv-x="1272" d="M1160 697T1203 435T1247 82Q1247 64 1245 34Q1158 -20 1036 -20Q960 -20 894 2T792 61L873 333L854 420H800Q676 427 546 438Q528 289 506 198T429 44T272 -20Q184 -20 109 23T6 140L51 303L183 292L357
1167Q198 1189 127 1216Q130 1303 163 1400T255 1549Q624 1488 1025 1366Q1160 697 1203 435ZM802 655L698 1131L612 1138Q607 1051 596 911T569 633L802 655Z" />
<glyph unicode="B" glyph-name="B" horiz-adv-x="1316" d="M1289 556T1289 497Q1289 387 1244 283T1119 100T936 -17Q882 -23 827 -23Q705 -23 544 -4T268 48T152 123Q152 139 159 163Q183 251 219 370Q195 418 165 632T111 1083T87 1381Q87 1391 88 1393Q133
1454 208 1491T365 1529Q458 1529 530 1480L435 983L464 969L691 1531Q762 1548 821 1548Q863 1548 924 1533T1054 1485T1179 1404Q1176 1270 1151 1091T1087 737L1074 679Q1243 652 1276 611Q1289 556 1289 497ZM666 1002T548 746Q610 744 766 737Q774 846 780
966T787 1143L740 1151Q666 1002 548 746ZM877 273T877 274Q889 329 893 360T898 427Q898 454 895 490L494 573Q474 453 465 344Q552 294 661 261T866 222Q877 273 877 274Z" />
<glyph unicode="C" glyph-name="C" horiz-adv-x="1011" d="M515 1108T515 1032Q515 877 501 666T470 320Q508 325 561 344T738 411Q844 452 898 472L973 305Q936 242 859 171T679 46T465 -20Q418 -20 355 15T233 95Q200 121 185 143T166 192Q154 433 142 613Q115
1035 89 1171Q83 1205 83 1286Q95 1332 140 1385T248 1482T369 1549Q416 1540 499 1511T628 1459L944 1481Q957 1419 957 1359Q957 1271 933 1196T875 1071T815 1010Q671 1070 534 1192L510 1170Q515 1108 515 1032Z" />
<glyph unicode="D" glyph-name="D" horiz-adv-x="1334" d="M1249 1166T1251 1127T1254 996Q1254 918 1240 747T1205 415T1166 190Q1156 154 1082 107T914 23T755 -21Q682 19 620 83T534 200Q479 106 422 46T288 -20Q247 0 201 55T122 177T85 299L174 423Q212 437
271 437H304Q272 625 255 778T221 1119L213 1210L30 1226Q38 1337 66 1419T165 1549L877 1489Q971 1445 1072 1374T1242 1226Q1249 1166 1251 1127ZM855 949T838 1129L596 1180L560 397L577 394L848 312Q855 454 855 586Q855 949 838 1129Z" />
<glyph unicode="E" glyph-name="E" horiz-adv-x="1110" d="M950 1522T974 1463T998 1331Q998 1249 970 1174T893 1062Q819 1069 734 1089T468 1159L424 1171L463 851Q577 864 652 877T837 913Q840 914 916 930Q956 869 956 778Q956 717 940 661T905 584Q875 581
845 581Q742 581 645 601T471 664L457 309L744 299L826 489L1006 474Q1021 433 1032 348T1044 193Q1004 112 940 57T793 -20Q663 -16 474 11T173 68Q94 162 80 264L238 681L-5 1265Q-5 1330 44 1406T158 1528L491 1455L903 1549Q950 1522 974 1463Z" />
<glyph unicode="F" glyph-name="F" horiz-adv-x="1075" d="M633 843T701 855T874 890Q880 891 942 904Q963 873 973 831T983 746Q983 685 967 629T932 552Q902 547 858 547Q780 547 701 569T550 632L545 627Q585 516 606 429T627 253Q627 224 624 194Q619 133
567 84T441 8T305 -20Q247 -20 192 11T96 87T32 174L97 311H330L22 1253Q21 1260 21 1275Q21 1339 51 1416T127 1541L576 1447L930 1549Q976 1525 1000 1465T1024 1330Q1024 1250 997 1179T921 1075Q724 1103 453 1181L532 828Q633 843 701 855Z" />
<glyph unicode="G" glyph-name="G" horiz-adv-x="1171" d="M1050 499L1114 23Q1090 6 1048 -7T965 -20Q896 -19 838 -3T745 48Q749 100 764 207L781 336L757 347Q699 214 615 97T446 -20Q404 -20 359 12Q304 41 233 95Q200 121 185 143T166 192Q154 433 142 613Q123
907 93 1171Q90 1201 87 1233T83 1286Q95 1332 140 1385T248 1482T369 1549Q418 1542 532 1508T691 1450L1034 1481Q1047 1419 1047 1359Q1047 1271 1023 1196T965 1071T905 1010Q827 1026 715 1078T534 1192L510 1170Q515 1108 515 1032Q515 877 501 666T470 320L469
283L472 282Q500 281 566 331T727 465L764 497Q729 600 716 684T703 815Q722 825 769 833T871 842Q963 842 1029 813T1148 720L1050 499Z" />
<glyph unicode="H" glyph-name="H" horiz-adv-x="1335" d="M1309 177Q1291 134 1253 88T1159 11T1043 -20Q973 -20 919 10T833 96T801 228Q800 295 807 359T830 526L839 581Q580 597 491 609V607Q515 493 532 336T558 19Q526 -2 486 -11T391 -20Q304 -20 239 1T133
62Q141 215 167 383T230 656Q193 767 166 909T105 1257L82 1399Q101 1429 149 1459T263 1509T400 1529Q500 1529 566 1489L507 800Q577 811 675 824T838 844Q803 988 774 1136T730 1400Q750 1430 798 1460T911 1510T1047 1530Q1151 1530 1216 1490L1138 316L1274
319L1309 177Z" />
<glyph unicode="I" glyph-name="I" horiz-adv-x="666" d="M101 1429T149 1459T263 1509T400 1529Q500 1529 566 1489L488 583Q513 464 531 314T558 19Q526 -2 486 -11T391 -20Q304 -20 239 1T133 62Q141 215 167 383T230 656Q193 767 166 909T105 1257L82 1399Q101
1429 149 1459Z" />
<glyph unicode="J" glyph-name="J" horiz-adv-x="999" d="M777 1153L715 818L876 216Q843 89 752 -12T531 -157Q510 -160 488 -160Q415 -160 332 -142T183 -96T96 -40Q94 -14 94 -3Q94 29 107 87T142 198T190 276Q235 249 320 192Q396 142 441 114T506 79L441
726L444 1160L312 1176V960L146 924Q115 956 83 1016T29 1148T7 1284Q7 1361 36 1416T116 1500T227 1529Q280 1529 357 1509T508 1457T628 1395Q666 1452 723 1499T848 1549Q903 1508 938 1424T973 1253Q973 1194 957 1150Q943 1142 920 1138T871 1133Q809 1133
782 1153H777Z" />
<glyph unicode="K" glyph-name="K" horiz-adv-x="1324" d="M1324 350Q1324 277 1296 201T1230 69Q1200 25 1154 3T1051 -19Q994 -19 929 2Q873 19 834 71T765 201Q726 306 703 462Q587 471 509 479Q556 218 568 19Q508 -20 391 -20Q303 -20 234 2T123 62Q130 206
161 376T230 656Q193 767 166 909T105 1257L82 1399Q101 1429 149 1459T263 1509T400 1529Q500 1529 566 1489L494 655L600 667Q663 786 728 941T813 1183L672 1233Q684 1344 728 1430T842 1549Q891 1549 963 1531T1107 1473T1228 1372Q1212 1235 1111 1043T878
665Q993 443 1071 366Q1128 386 1206 452L1324 350Z" />
<glyph unicode="L" glyph-name="L" horiz-adv-x="1142" d="M1092 589T1101 518T1111 369Q1111 201 1056 91T862 -20Q718 -20 504 150Q410 -11 258 -20Q217 0 171 55T92 177T55 299L144 423Q182 437 241 437H274Q242 622 225 775T191 1114Q184 1195 177 1271T160
1399Q179 1429 227 1459T341 1509T478 1529Q526 1529 565 1520T639 1489L534 409L547 408L800 360L895 649L1079 625Q1092 589 1101 518Z" />
<glyph unicode="M" glyph-name="M" horiz-adv-x="1859" d="M1829 168Q1825 161 1798 111T1711 21T1575 -20Q1515 -20 1464 2T1378 68T1336 174Q1326 249 1315 494Q1304 700 1304 961Q1304 1089 1307 1171L1288 1174L1094 323Q1120 268 1134 210T1162 67L1168 35Q1130
8 1079 -5T970 -19Q895 -19 824 3T707 62Q707 113 716 183T748 286L459 1175L440 1168Q452 1112 477 933T522 561T545 248Q547 128 492 54T314 -20H308H295Q209 -18 137 25T37 142L82 305L193 296V305L262 1175L93 1226Q101 1332 142 1416T280 1549Q333 1542 434
1513T638 1439T806 1346L978 556L986 557L1012 777Q1048 989 1090 1200Q1024 1228 992 1247Q1001 1344 1056 1427T1207 1549Q1260 1542 1363 1499T1563 1399T1702 1299Q1691 1033 1672 780T1611 307L1797 334L1829 168Z" />
<glyph unicode="N" glyph-name="N" horiz-adv-x="1371" d="M1034 395Q882 1277 882 1430Q894 1456 932 1479T1022 1515T1126 1529Q1169 1529 1217 1518T1294 1486L1208 348Q1254 292 1279 245T1316 131Q1284 54 1214 17T1049 -21Q974 -21 893 -3T770 49Q767 66
767 93Q767 133 773 175T793 245L356 1170L351 1168Q371 1102 416 925T502 556T556 248Q558 218 558 203Q558 102 507 41T346 -20Q256 -20 179 24T67 142L98 305L209 296L201 1175Q154 1178 109 1190T28 1226Q28 1334 61 1417T187 1549Q285 1537 414 1496T642 1385L1030
391L1034 395Z" />
<glyph unicode="O" glyph-name="O" horiz-adv-x="1291" d="M1182 1242T1185 1192T1189 1060Q1189 953 1175 770T1140 421T1101 190Q1092 156 1054 129T950 68Q943 65 938 63T929 58Q857 21 804 3T699 -21Q624 -16 519 9T321 71T185 147Q156 331 129 638T102 1093Q102
1178 108 1242T138 1337Q172 1382 273 1431T483 1514T628 1549Q680 1549 795 1515T1020 1427T1173 1321Q1182 1242 1185 1192ZM486 1034T486 786Q486 489 500 331Q546 304 611 276T725 238L786 280Q797 382 797 586Q797 732 792 877T777 1118L566 1209L497 1174Q486
1034 486 786Z" />
<glyph unicode="P" glyph-name="P" horiz-adv-x="1264" d="M1223 1356T1223 1286Q1223 1110 1195 910T1116 570Q1090 540 1043 498T944 423T855 391Q804 390 686 412T480 461L516 282L722 269L750 145Q731 106 679 68T554 4T406 -21Q344 -21 296 3T220 66T192
143Q192 188 199 313T219 488Q195 536 165 726T111 1121T87 1382L88 1393Q133 1454 209 1491T366 1529Q458 1529 530 1480L435 983L464 969L731 1531Q752 1537 788 1542T864 1548Q906 1548 967 1532T1096 1484T1219 1404Q1223 1356 1223 1286ZM833 853T833 1018Q833
1082 827 1143L780 1151Q707 1040 621 900T504 695Q521 688 553 673Q619 642 666 624T748 605Q790 605 795 638Q833 853 833 1018Z" />
<glyph unicode="Q" glyph-name="Q" horiz-adv-x="1291" d="M1033 -95T1177 -76Q1189 -106 1189 -147Q1189 -197 1173 -253T1128 -355T1068 -424Q1060 -440 1040 -446Q945 -435 790 -400T513 -318Q447 -403 353 -410Q289 -370 253 -276T221 -77Q266 -52 298 -39T366
-20L421 -69L567 30Q440 47 335 76T185 147Q156 331 129 638T102 1093Q102 1178 108 1242T138 1337Q172 1382 273 1431T483 1514T628 1549Q680 1549 795 1515T1020 1427T1173 1321Q1182 1242 1185 1192T1189 1060Q1189 953 1175 770T1140 421T1101 190Q1090 146
1008 99Q963 69 893 35T724 -44Q684 -62 654 -76T623 -94L627 -123Q1033 -95 1177 -76ZM486 489T500 331Q546 304 611 276T725 238L786 280Q797 382 797 586Q797 732 792 877T777 1118L566 1209L497 1174Q486 1034 486 786Q486 489 500 331Z" />
<glyph unicode="R" glyph-name="R" horiz-adv-x="1364" d="M1355 350Q1352 277 1322 201T1251 69Q1219 25 1173 3T1070 -20Q1016 -20 948 2Q782 55 741 465L473 501Q501 435 527 287T563 27Q529 4 483 -8T387 -20Q311 -20 242 4T137 69Q160 181 177 242T219 370Q195
419 165 633T111 1083T87 1381L88 1393Q133 1454 209 1491T366 1529Q458 1529 530 1480L435 983L464 969L731 1531Q752 1537 788 1542T864 1548Q906 1548 967 1532T1096 1484T1219 1404Q1221 1254 1197 1070T1123 723Q1065 637 971 558Q1002 500 1033 453T1104
366Q1158 385 1241 452L1355 350ZM712 1047T618 894T490 672L806 694Q832 863 832 1033Q832 1096 827 1143L780 1151Q712 1047 618 894Z" />
<glyph unicode="S" glyph-name="S" horiz-adv-x="1050" d="M667 335T667 381Q667 424 658 454Q590 473 471 530T248 656T113 779Q102 819 95 894T80 1093Q75 1183 69 1244Q138 1355 227 1426T436 1549Q492 1532 624 1462L666 1440L986 1455Q1003 1390 1003 1325Q1003
1240 978 1168T917 1050T856 990Q807 1000 739 1029T599 1105T469 1208H456L418 998Q485 959 601 878T828 701T993 528Q994 520 994 504Q994 437 973 340T928 168Q863 103 802 57T667 -20Q592 -12 377 12T169 37Q105 148 105 254Q105 304 116 341T136 397T148 422Q354
407 594 243L654 268Q667 335 667 381Z" />
<glyph unicode="T" glyph-name="T" horiz-adv-x="1103" d="M1008 1084T935 1102T809 1145L749 584L758 314L978 415L1056 283Q1045 233 996 160T880 33T753 -21Q680 -21 603 9T473 97T412 227Q410 253 410 266Q410 312 417 356T440 474Q455 537 462 580H464L404
1219L293 1247L252 966Q188 944 131 944Q74 944 19 967Q-2 1031 -18 1111T-35 1261Q-35 1345 -8 1393Q44 1457 123 1499T276 1549L715 1438L1063 1549Q1109 1525 1133 1466T1158 1334Q1158 1257 1131 1188T1054 1084Q1008 1084 935 1102Z" />
<glyph unicode="U" glyph-name="U" horiz-adv-x="1272" d="M1199 1158T1199 1060Q1199 953 1185 770T1150 421T1111 190Q1102 157 1064 131T960 72Q954 69 947 66T931 58Q858 21 805 3T700 -21Q626 -17 527 8T341 71T210 147Q182 325 158 626T133 1081Q133 1143
135 1179L-5 1226Q3 1332 44 1416T182 1549Q303 1534 549 1346L546 1344L549 1345L524 1174L523 786Q523 465 538 311Q651 245 788 228Q794 280 797 384T800 586Q800 737 794 922T779 1201L615 1247Q624 1344 679 1427T830 1549Q881 1542 979 1501T1168 1409L1180
1322V1321L1183 1295L1188 1257Q1199 1158 1199 1060Z" />
<glyph unicode="V" glyph-name="V" horiz-adv-x="1211" d="M814 1082L795 1098Q732 1152 694 1193T623 1302Q651 1375 712 1428T849 1511T1003 1551Q1084 1486 1135 1367T1196 1127L827 259Q866 168 888 41Q849 10 781 -6T631 -22Q541 -22 460 -4T340 46Q349 168
391 282L124 1065L-51 1287Q-43 1363 -3 1417T97 1500T225 1529Q327 1529 403 1472Q419 1440 475 1218T582 744T645 343L814 1082Z" />
<glyph unicode="W" glyph-name="W" horiz-adv-x="1839" d="M1701 1484T1745 1383T1795 1165L1492 269Q1530 187 1549 76Q1506 40 1430 22T1265 3Q1173 3 1094 23T976 80Q983 143 999 195T1040 298L898 790L768 272Q807 190 826 76Q783 40 707 22T542 3Q450 3 371
23T253 80Q265 188 314 291L107 1086L104 1097L-69 1327Q-44 1379 9 1430T128 1515T254 1550Q302 1552 344 1535T418 1480H419Q432 1452 469 1234T540 762T582 373H589L748 1060Q690 1111 650 1160T576 1286Q643 1397 754 1465T981 1547Q1043 1491 1084 1374T1130
1137L1129 1135Q1132 1117 1161 1022Q1218 829 1257 670T1305 373H1322L1421 1056L1381 1089Q1320 1140 1283 1180T1218 1280Q1249 1354 1316 1412T1464 1505T1621 1550Q1701 1484 1745 1383Z" />
<glyph unicode="X" glyph-name="X" horiz-adv-x="1345" d="M606 527Q583 438 568 384T531 271Q427 -19 293 -19Q238 -19 182 53T86 229T32 421Q71 478 121 514T240 575L381 433L505 746L318 1120L163 1023L26 1157Q35 1218 60 1289T123 1419T209 1505Q290 1527
356 1527Q442 1527 501 1487T599 1362Q651 1250 673 1144T702 936Q725 1115 755 1251T804 1408Q842 1452 923 1488T1088 1529Q1176 1450 1238 1331T1302 1097Q1218 977 1050 940L937 1126L778 786L1013 379L1155 505L1290 405Q1260 227 1184 89Q1154 35 1097 8T959
-20Q895 -20 839 6T755 84Q698 187 665 318T621 560L615 562L606 527Z" />
<glyph unicode="Y" glyph-name="Y" horiz-adv-x="1168" d="M383 1529T452 1480L585 640H630L783 1078Q727 1127 687 1179T611 1308Q656 1415 765 1474T1000 1549Q1079 1484 1119 1384T1165 1165Q1113 1031 1020 858T828 574L692 498L723 307Q763 313 840 337T969
382L1044 236Q1019 178 955 118T814 19T673 -20Q601 -20 532 10T419 97T374 228Q373 278 379 321T396 421Q408 481 411 505L262 621L120 1131L0 1269Q4 1375 55 1433T167 1510T273 1529Q383 1529 452 1480Z" />
<glyph unicode="Z" glyph-name="Z" horiz-adv-x="1208" d="M1129 625Q1142 589 1151 518T1161 369Q1161 201 1106 91T912 -20Q813 -20 690 49T448 218Q417 119 353 50T206 -20Q162 8 121 73T55 217T29 360Q29 374 30 381Q61 423 99 458T168 511Q238 496 288 469L653
1154L416 1190L371 887L186 847Q155 881 125 951T77 1106T58 1269Q58 1315 65 1351Q75 1403 134 1448T262 1522T356 1549Q459 1535 584 1501T826 1423Q873 1471 921 1503T1030 1549Q1101 1532 1137 1464T1174 1302Q1174 1202 1134 1116L1011 1120Q943 1010 788
776T541 419L850 360L945 649L1129 625Z" />
<glyph unicode="[" glyph-name="bracketleft" horiz-adv-x="710" d="M639 -95L601 -291L207 -245L149 1724L300 1849L683 1803Q684 1786 684 1754Q684 1641 658 1544Q636 1542 626 1542Q591 1542 557 1551T484 1578L462 -28L639 -95Z" />
<glyph unicode="\" glyph-name="backslash" horiz-adv-x="788" d="M47 1605Q90 1632 171 1650T320 1669Q366 1669 393 1660L665 -166Q608 -206 547 -223T408 -239L47 1605Z" />
<glyph unicode="]" glyph-name="bracketright" horiz-adv-x="710" d="M67 1591T11 1633L60 1849L507 1802L504 -167L353 -292L31 -246Q30 -229 30 -200Q30 -153 36 -112T56 -18Q78 -16 89 -16Q176 -16 252 -52L179 1565Q67 1591 11 1633Z" />
<glyph unicode="^" glyph-name="asciicircum" horiz-adv-x="1209" d="M268 332Q231 335 189 355T113 404T62 460Q82 522 166 736T333 1148T443 1389Q471 1413 559 1431T726 1449Q762 1449 782 1445L1144 470Q1133 443 1099 413T1021 359T942 332L575 1017L268 332Z" />
<glyph unicode="_" glyph-name="underscore" horiz-adv-x="1698" d="M-47 -348T-47 -319Q-47 -268 -30 -214T15 -111L1715 -112Q1722 -134 1722 -164Q1722 -216 1701 -271T1647 -371L-41 -373Q-47 -348 -47 -319Z" />
<glyph unicode="`" glyph-name="grave" horiz-adv-x="692" d="M141 1388T269 1328T499 1247Q524 1268 552 1311T598 1402Q528 1461 477 1516T343 1669L290 1732Q232 1712 183 1666T105 1561T75 1446Q141 1388 269 1328Z" />
<glyph unicode="a" glyph-name="a" horiz-adv-x="1201" d="M1201 278Q1143 145 1070 62T914 -21Q868 -21 815 7T721 79Q717 83 702 99T679 138T670 192Q670 210 671 220Q685 359 705 489L690 496Q533 94 430 4Q399 -20 370 -20Q346 -20 322 -8T263 30Q250 39 218
57Q174 82 153 101T130 146Q130 174 131 196Q133 260 133 300Q133 431 113 605T57 894Q45 935 45 949Q45 961 50 973T70 1004Q125 1075 199 1118T334 1180T432 1203Q505 1153 564 1078T678 907Q677 968 672 1086L670 1153Q687 1164 735 1172T838 1181Q929 1181
995 1152T1115 1060Q1119 1026 1095 884T1030 578T943 307L1116 399L1201 278ZM509 386T573 498T677 693Q679 717 679 720V773Q623 786 550 801L465 819L466 712V679Q466 527 431 352L461 338Q509 386 573 498Z" />
<glyph unicode="b" glyph-name="b" d="M791 1182T852 1166T981 1118T1104 1038Q1101 889 1072 697T1001 324T915 23Q883 0 810 -10T661 -20Q538 -20 397 4T167 77Q144 89 136 98T127 125Q127 139 133 163L168 307L184 368H182L183 370Q159 422 128 652T72 1135T47
1453Q47 1464 48 1466Q99 1529 190 1571T371 1613Q465 1613 523 1566Q514 1401 495 1230T441 806Q428 711 404 521L414 517L636 1165Q665 1173 687 1177T749 1182Q791 1182 852 1166ZM684 340T697 514T712 777L685 785Q637 687 558 520T457 300Q494 268 562 243T671
215Q684 340 697 514Z" />
<glyph unicode="c" glyph-name="c" horiz-adv-x="902" d="M60 874T53 896T45 930Q45 968 106 1023T224 1112Q276 1143 347 1173T461 1204Q490 1204 533 1186T643 1132L691 1107L877 1059Q882 1022 882 995Q882 904 848 824T768 693T696 633Q638 667 593 719T490
850L462 889Q471 814 471 702Q471 596 462 489T436 300L455 284Q491 299 590 348T773 443L874 290Q849 243 769 168T593 37T426 -20Q387 -20 334 9T248 63T167 127Q135 155 124 174T112 215Q112 225 113 234T115 250Q121 286 121 319Q121 469 105 628T61 869Q60
874 53 896Z" />
<glyph unicode="d" glyph-name="d" horiz-adv-x="1200" d="M1206 279Q1150 146 1078 63T924 -20Q878 -20 825 8T729 80Q726 83 710 99T685 140T676 196Q676 212 677 221Q681 266 693 456L696 495L691 497Q636 351 564 205T429 5Q400 -20 370 -20Q347 -20 324 -8T263
31Q246 43 219 58Q176 82 154 101T130 147L129 230Q127 375 123 470T103 677T57 895Q45 936 45 950Q45 962 50 974T70 1005Q124 1076 198 1119T333 1181T431 1204Q502 1155 554 1086T672 908L677 910Q668 1024 645 1204T617 1417Q601 1539 599 1559Q617 1581 674
1597T802 1613Q878 1613 948 1592T1068 1524Q1069 1519 1069 1491Q1069 1387 1054 1147T1011 668T947 308L1118 400L1206 279ZM508 387T572 500T674 694L676 718L675 774Q636 784 547 802L464 820L466 713Q469 548 430 353L460 339Q508 387 572 500Z" />
<glyph unicode="e" glyph-name="e" horiz-adv-x="949" d="M472 284Q502 290 546 311T671 373Q733 406 798 438L883 299Q839 240 750 165T558 35T372 -20Q346 -20 321 -7T266 38Q240 64 227 75Q206 94 188 108T164 127Q133 155 122 178T110 229Q110 247 113 269Q117
307 117 338Q117 478 98 638T57 868Q45 909 45 922Q45 962 104 1018T220 1109Q275 1143 351 1173T477 1204Q512 1202 555 1174Q651 1109 705 1083T839 1028L867 1018Q879 1013 884 1008T893 990T903 946Q909 910 909 869Q909 789 888 750Q879 734 802 649T625 461T443
284H472ZM589 786T449 831Q449 776 442 632T426 420L425 417L453 457Q519 553 565 626T643 774Q589 786 449 831Z" />
<glyph unicode="f" glyph-name="f" horiz-adv-x="744" d="M187 1T163 178T98 632Q57 916 39 1057T19 1262Q57 1347 136 1447T377 1613Q487 1588 558 1577T691 1565Q722 1565 752 1568Q763 1546 763 1506Q763 1437 732 1352T660 1229Q579 1235 531 1255T460 1298T405
1366L425 1021L685 1098Q714 1054 714 972Q714 903 696 831T659 731Q604 729 547 748T443 792Q472 237 472 -47Q472 -139 469 -214Q460 -269 414 -319T303 -402T181 -438Q103 -424 52 -382T-36 -288Q-37 -237 -30 -203T-2 -112L201 -143Q187 1 163 178Z" />
<glyph unicode="g" glyph-name="g" horiz-adv-x="1143" d="M1108 1060L1104 1040Q1093 989 1082 948T1043 844T967 696L1099 -62Q1078 -143 1023 -217T890 -348T724 -435Q703 -438 681 -438Q611 -438 532 -411T391 -346T305 -278Q304 -265 304 -243Q304 -207 309
-181T330 -106Q405 -123 531 -138T726 -154Q728 -94 728 -58Q728 36 720 238Q711 433 712 528L699 537Q637 359 560 212T413 5Q382 -19 353 -19Q329 -19 305 -7T247 31Q230 43 203 58Q159 83 138 102T116 147L118 208Q122 282 122 320Q122 455 105 620T56 895Q45
932 45 950Q45 962 51 974T71 1005Q127 1076 201 1119T337 1181T436 1204Q506 1155 557 1086T671 908Q670 969 665 1087L663 1154Q680 1165 728 1173T831 1182Q922 1182 988 1153T1108 1061L1107 1060H1108ZM499 387T566 501T670 694Q672 718 672 721V774Q629 785
544 802L462 820V713Q462 548 420 353L450 339Q499 387 566 501Z" />
<glyph unicode="h" glyph-name="h" horiz-adv-x="1198" d="M669 781Q605 642 561 550T466 360Q500 260 520 187T550 24Q490 -20 378 -20Q299 -20 224 2T112 66Q131 181 145 242T182 368L183 370Q157 423 117 659T43 1151T10 1458L11 1466Q58 1527 146 1570T323
1614Q418 1614 481 1566Q478 1401 465 1232T425 799Q420 751 413 681T398 518L411 515L415 514Q436 580 478 734Q522 892 550 982T617 1165Q688 1182 747 1182Q814 1182 911 1147T1100 1038Q1100 953 1079 824T1020 557T938 311L1108 400L1197 279Q1174 211 1130
142T1031 26T922 -20Q876 -20 823 6T732 72Q697 109 683 143T671 221L696 772L669 781Z" />
<glyph unicode="i" glyph-name="i" horiz-adv-x="615" d="M126 1287T190 1248T291 1207Q326 1213 385 1257T498 1360T573 1464Q546 1580 448 1630T228 1681Q165 1499 90 1330Q126 1287 190 1248ZM63 231T67 246T94 323Q131 422 157 497L26 1018Q57 1055 109 1088T223
1142T346 1163Q445 1163 511 1105Q506 1075 498 998Q478 810 457 655T410 392L391 314L541 381L620 256Q576 154 504 67T345 -20Q298 -20 230 16T113 107T63 212Q63 231 67 246Z" />
<glyph unicode="j" glyph-name="j" horiz-adv-x="564" d="M97 1278T161 1239T262 1198Q298 1204 357 1246T469 1344T544 1445Q517 1561 419 1611T199 1662Q152 1525 61 1321Q97 1278 161 1239ZM406 373Q489 10 489 -192Q489 -235 487 -254Q483 -283 441 -327T340
-405T223 -438Q167 -428 111 -400T12 -339T-50 -281Q-53 -244 -53 -219Q-53 -191 -49 -168T-36 -113Q-16 -114 23 -120T82 -128L120 -134L153 565L26 1018Q57 1055 109 1088T223 1142T346 1163Q445 1163 511 1105L507 1066Q458 617 414 428L406 393L402 371L406
373Z" />
<glyph unicode="k" glyph-name="k" horiz-adv-x="1112" d="M523 462T647 760Q549 840 496 965Q526 1028 588 1082T723 1169T861 1204Q906 1161 945 1093T1008 949T1031 807Q995 745 927 649T778 460Q792 440 822 406T879 345Q938 375 997 438L1115 347Q1115 266
1107 218T1074 117Q1043 48 990 14T870 -20Q822 -20 766 -3Q701 17 657 85T585 250L565 228Q475 132 419 78T298 -20Q275 -17 233 2T150 49T88 105Q92 248 115 396T174 662Q113 859 77 1031T-2 1466Q48 1528 142 1570T328 1613Q422 1613 480 1566Q482 1527 482
1440Q482 1190 454 854T391 265L402 260Q523 462 647 760Z" />
<glyph unicode="l" glyph-name="l" horiz-adv-x="626" d="M91 154T84 171T76 214Q76 223 80 249L149 606Q121 751 95 945T51 1295T37 1466Q86 1528 176 1570T356 1613Q448 1613 505 1566Q497 1332 476 1053T409 314L552 381L632 254Q612 192 569 129T469 23T353
-20Q291 -20 225 27T105 138Q91 154 84 171Z" />
<glyph unicode="m" glyph-name="m" horiz-adv-x="1704" d="M1200 769Q1192 754 1111 605Q1072 534 1035 466T984 363Q1014 276 1024 210T1043 31Q1010 6 964 -7T867 -20Q798 -20 735 3T637 65Q645 148 655 195T680 298Q692 335 698 366L667 774L643 778L603 696Q479
438 443 360Q478 257 497 187T527 27Q495 4 449 -8T350 -20Q271 -20 199 4T89 69Q106 164 117 209T147 325L159 368Q131 430 95 587T32 893T9 1061Q32 1099 81 1127T192 1171T309 1186Q408 1186 455 1145L382 517L408 514L573 1170Q608 1184 670 1184L729 1183Q790
1183 865 1164T1001 1106Q1004 1070 1004 1034Q1004 956 993 883T958 684Q941 602 932 549L961 543L1151 1166Q1156 1167 1172 1172T1210 1180T1260 1183Q1337 1183 1433 1156T1616 1059Q1610 905 1573 714T1454 311L1624 400L1713 279Q1690 211 1646 142T1547
26T1438 -20Q1392 -20 1339 6T1248 72Q1212 110 1198 143T1186 224Q1202 500 1224 764L1200 769Z" />
<glyph unicode="n" glyph-name="n" horiz-adv-x="1192" d="M545 523T461 360Q512 209 545 24Q483 -20 358 -20Q289 -20 216 3T107 66Q127 181 141 242T177 368Q154 422 118 572T54 870T26 1054L27 1061Q60 1117 148 1148T327 1180Q431 1180 472 1143L399 517L415
514Q431 567 449 635T476 734Q513 876 542 973T611 1165Q658 1180 744 1180Q849 1180 940 1147T1095 1038Q1095 953 1074 824T1015 557T933 311L1103 400L1192 279Q1169 211 1125 142T1026 26T917 -20Q871 -20 818 6T727 72Q691 110 678 142T666 221L691 772L662
781Q545 523 461 360Z" />
<glyph unicode="o" glyph-name="o" horiz-adv-x="1083" d="M1016 943T1019 895T1023 759Q1023 619 999 441T946 160Q929 139 880 108T782 52Q716 19 668 2T572 -20Q504 -14 412 10T241 67T126 136Q95 334 79 478T62 758Q62 883 80 1006Q108 1041 194 1084T377
1162T526 1204Q609 1196 705 1164T882 1085T1007 987Q1016 943 1019 895ZM414 714T414 593Q414 433 428 292Q510 238 594 220L649 258Q657 341 657 480Q657 637 640 800L486 863L426 834Q414 714 414 593Z" />
<glyph unicode="p" glyph-name="p" horiz-adv-x="1125" d="M619 -132L657 -295Q634 -330 590 -363T495 -417T401 -438Q365 -438 324 -421T246 -377Q215 -355 198 -339T170 -297T157 -227L131 512Q96 652 62 828T26 1051V1061Q60 1118 144 1151T316 1184Q417 1184
462 1143L389 524L392 523L623 1165Q631 1167 648 1172T685 1180T732 1184Q774 1184 835 1168T965 1119T1089 1038Q1084 797 1041 549T904 -5Q852 -20 806 -20Q709 -20 612 5T461 59Q450 -31 427 -132H619ZM617 673T546 524T452 320Q491 287 560 259T668 229Q679
335 688 503T699 777L672 785Q617 673 546 524Z" />
<glyph unicode="q" glyph-name="q" horiz-adv-x="1134" d="M994 -97L1118 -27L1206 -127Q1141 -303 1068 -376Q1009 -436 950 -438Q843 -442 729 -360Q686 -330 665 -297T644 -224Q644 -213 645 -208L703 495L683 497Q627 353 552 206T413 5Q381 -20 353 -20Q330
-20 308 -8T247 31Q230 43 203 58Q159 83 138 102T116 147L118 208Q122 282 122 320Q122 455 105 620T56 895Q45 932 45 950Q45 962 51 974T71 1005Q150 1105 255 1146T436 1198Q507 1148 559 1079T671 908Q670 969 665 1087L663 1154Q680 1165 728 1173T831 1182Q922
1182 988 1153T1108 1061Q1112 1027 1089 887T1024 584T938 313L994 -97ZM499 387T566 501T670 694Q672 718 672 721V774Q629 785 544 802L462 820V713Q462 548 420 353L450 339Q499 387 566 501Z" />
<glyph unicode="r" glyph-name="r" horiz-adv-x="1027" d="M417 569T425 617T439 695Q466 862 490 978T547 1166Q610 1180 675 1180Q766 1180 843 1155T970 1096Q979 1033 979 964Q979 851 961 733T918 517Q843 475 760 475Q710 475 648 490Q649 525 649 656Q649
752 648 788L599 796Q562 687 489 405L454 274L637 298L694 164Q635 71 551 26T369 -20Q313 -20 270 -10T197 28Q180 43 158 74T118 143T100 217Q100 239 107 257L187 455L8 1063Q47 1119 116 1149T263 1180Q345 1180 408 1149L401 547L412 545Q417 569 425 617Z"
/>
<glyph unicode="s" glyph-name="s" horiz-adv-x="900" d="M396 727Q500 672 645 577T841 417Q842 405 842 381Q842 325 834 269T809 168Q744 105 679 58T539 -20Q455 -17 375 -3T191 35Q129 50 97 55Q49 142 49 220Q49 263 60 295T84 347T99 374Q194 371 282 327T476
205L525 229Q532 267 532 323Q532 349 531 360Q486 373 421 397Q305 440 204 493T65 594Q52 644 48 745T43 925Q43 952 75 989T150 1059T221 1110Q278 1144 354 1174T482 1204Q509 1204 542 1191T623 1152Q672 1127 685 1122L846 1068Q856 1034 856 995Q856 919
817 839T707 684Q646 709 565 780T431 922L405 913L396 727Z" />
<glyph unicode="t" glyph-name="t" horiz-adv-x="827" d="M827 349Q806 295 741 205T598 48T460 -20Q399 -20 321 20T186 121T127 240Q127 262 140 316T192 496L142 854L46 860Q35 890 30 930T25 1008Q25 1029 26 1037L138 1076L199 1439Q215 1447 246 1452T315
1458Q366 1458 416 1448T503 1418L492 1137L714 1182Q755 1112 755 1030Q755 981 745 944T715 855Q601 846 482 841L484 312L700 490L827 349Z" />
<glyph unicode="u" glyph-name="u" horiz-adv-x="1164" d="M470 774T459 640T419 375L449 361Q484 395 529 475T613 639T662 764Q633 1110 633 1154Q650 1165 698 1173T801 1182Q892 1182 958 1153T1078 1061V1050Q1078 1000 1054 860T989 566T906 308L1079 400L1164
279Q1107 147 1034 64T879 -20Q832 -20 779 7T684 80Q680 84 665 100T641 139T632 193Q632 201 634 221Q648 360 668 490L653 497Q577 304 488 142T327 -20Q302 -20 278 -8T217 31L182 54Q131 87 105 110T78 162L162 573L7 1004Q33 1068 91 1110T219 1171T356 1191Q424
1191 460 1174Q470 1068 470 931Q470 774 459 640Z" />
<glyph unicode="v" glyph-name="v" horiz-adv-x="1062" d="M165 693L0 889Q25 1052 101 1109Q140 1138 185 1153T274 1169Q327 1169 369 1147T433 1079H434Q446 1053 475 909T531 594T564 305L577 304Q614 398 648 524T698 739Q691 745 654 777T587 848T537 932Q565
998 623 1058T753 1157T888 1204Q957 1147 999 1042T1045 830Q1030 800 1014 764Q944 616 875 480T731 219Q766 148 784 44Q746 12 674 -4T517 -21Q429 -21 354 -3T245 47Q256 144 267 194T297 283L165 693Z" />
<glyph unicode="w" glyph-name="w" horiz-adv-x="1636" d="M1500 1147T1547 1041T1604 830Q1446 457 1313 219Q1353 146 1375 44Q1339 12 1271 -4T1122 -21Q1040 -21 970 -3T864 47Q869 125 878 172T901 256L836 489Q803 376 778 297T725 150Q740 108 740 43Q721
13 662 -3T526 -20Q448 -20 378 -3T273 47Q280 150 288 197T312 283L159 693L5 968Q5 1021 46 1070T148 1149T265 1179Q323 1179 370 1158T440 1093Q441 1088 468 942Q556 499 579 305L592 304Q627 404 658 532T700 739Q693 745 654 777T583 848T530 932Q553 998
608 1058T732 1157T866 1204Q937 1147 984 1041T1041 830L1039 829Q1073 686 1100 546T1138 306H1153Q1189 405 1221 532T1263 739Q1256 745 1217 777T1146 848T1093 932Q1116 998 1171 1058T1295 1157T1429 1204Q1500 1147 1547 1041Z" />
<glyph unicode="x" glyph-name="x" horiz-adv-x="1139" d="M620 729Q642 860 652 926Q666 1014 673 1050T687 1098Q727 1160 792 1182T955 1204Q996 1169 1036 1090T1102 920T1128 763Q1106 731 1061 706T979 670Q958 688 927 742T873 848L712 659L900 358L1033
429L1115 331Q1088 215 1039 118T897 -11Q858 -21 817 -21Q741 -21 690 11T621 100Q589 205 572 288T538 475H517Q498 295 485 198T458 85Q419 38 366 9T216 -21L188 -20Q147 15 106 93T37 261T10 417Q33 449 78 474T160 510Q181 492 213 437T265 332L425 553L269
804L126 738L35 851Q62 967 111 1065T252 1195Q291 1205 333 1205Q411 1205 471 1171T547 1082Q569 1007 579 948T598 807Q603 755 608 726L620 729Z" />
<glyph unicode="y" glyph-name="y" horiz-adv-x="1115" d="M1080 1049L1076 1029Q1063 962 1041 900T961 731L1099 -62Q1078 -143 1023 -217T890 -348T724 -435Q703 -438 681 -438Q611 -438 532 -411T391 -346T305 -278Q304 -265 304 -243Q304 -207 309 -181T330
-106Q405 -123 531 -138T726 -154Q728 -121 728 -46Q728 73 721 244Q715 430 715 502V532L705 535Q676 460 619 349T500 140T393 5Q361 -20 333 -20Q289 -20 217 31L182 54Q131 87 105 110T78 162L162 573L7 1004Q33 1068 91 1110T219 1171T356 1191Q424 1191 460
1174Q470 1068 470 931Q470 823 464 713Q459 620 449 542T419 375L449 361Q484 395 530 470T614 623T662 739Q633 1085 633 1154Q650 1165 698 1173T801 1182Q892 1182 958 1153T1078 1061Q1078 1054 1075 1045L1080 1049Z" />
<glyph unicode="z" glyph-name="z" horiz-adv-x="1027" d="M703 1115T751 1159T865 1206Q921 1167 955 1082T990 908Q990 849 974 805Q946 787 918 787Q904 787 869 794L529 358L713 327L813 561L961 533Q974 498 982 443T991 328Q991 254 976 189T929 80Q854
-20 744 -20Q686 -20 616 7T483 73T384 150Q347 86 323 54T267 3T188 -17Q147 8 112 81T56 245T35 406Q58 436 103 462T186 502Q215 494 246 472T331 404L516 810L329 833V617L163 581Q132 613 100 673T46 805T24 941Q24 1018 53 1072T132 1153T243 1180Q299 1180
379 1161T537 1111T660 1051Q703 1115 751 1159Z" />
<glyph unicode="{" glyph-name="braceleft" horiz-adv-x="852" d="M600 903T563 865T471 780V765Q545 708 591 661T652 573L597 -29L776 -96L738 -282Q669 -291 611 -291Q536 -291 468 -277T317 -232L372 547L326 592Q274 566 219 566Q179 566 140 579Q118 612
106 653T94 740Q94 817 127 879T224 965Q261 938 333 881L381 939L298 1697Q315 1731 349 1764T423 1820T488 1849Q587 1825 671 1814T852 1803Q853 1786 853 1754Q853 1641 827 1544Q800 1538 772 1538Q702 1538 641 1578V960H640V959Q600 903 563 865Z" />
<glyph unicode="|" glyph-name="bar" horiz-adv-x="649" d="M389 -314T324 -314Q262 -314 200 -293L142 1796Q176 1819 246 1834T385 1849Q439 1849 480 1838L470 -289Q389 -314 324 -314Z" />
<glyph unicode="}" glyph-name="braceright" horiz-adv-x="852" d="M219 598Q248 644 290 686T388 777V792Q254 895 219 972L229 1586L27 1653L65 1839Q134 1848 206 1848Q301 1848 394 1833T564 1789L487 1010L533 965Q585 991 640 991Q679 991 719 978Q741 945
753 904T765 817Q765 740 732 678T635 592L526 676L478 617L539 -140Q522 -174 488 -207T414 -263T349 -292L58 -245Q57 -228 57 -197Q57 -149 63 -108T83 -13Q107 -11 118 -11Q193 -11 263 -48L218 597H219V598Z" />
<glyph unicode="~" glyph-name="asciitilde" horiz-adv-x="1160" d="M37 488Q50 549 107 630T242 770T390 829Q446 829 585 782T827 692L1002 821L1123 709Q1109 647 1055 567T925 431T779 374Q742 374 654 396T475 451T340 509L158 377L37 488Z" />
<glyph unicode="&#xa0;" glyph-name="uni00A0" horiz-adv-x="400" />
<glyph unicode="&#xa1;" glyph-name="exclamdown" horiz-adv-x="691" d="M408 718T460 777T558 897T612 982Q560 1131 375 1211Q326 1195 263 1151T147 1048T81 926Q136 849 214 788T383 702Q408 718 460 777ZM172 490Q190 529 250 555T378 581Q425 581 464 567T528
522Q511 384 476 264Q496 186 524 93Q558 -23 575 -99T608 -290Q559 -355 463 -395T262 -436Q222 -436 184 -424T120 -389L236 213L172 490Z" />
<glyph unicode="&#xa2;" glyph-name="cent" horiz-adv-x="962" d="M689 380T807 443L908 290Q889 255 829 199T691 89T541 6Q555 -58 563 -131T581 -300Q521 -341 440 -341Q383 -341 332 -321T249 -264L300 28Q236 66 161 127Q129 155 118 174T106 215Q106 225
107 234T109 250Q115 286 115 319Q115 469 99 628T55 869Q54 874 47 896T39 930Q39 968 100 1023T218 1112Q260 1137 321 1164T427 1201L401 1447Q434 1499 480 1521T598 1544Q642 1544 683 1535T743 1508L659 1146Q681 1138 705 1127L911 1079Q916 1042 916 1015Q916
924 882 844T802 713T730 653Q648 701 564 770T436 899Q459 694 459 533Q459 391 440 300L459 284Q689 380 807 443Z" />
<glyph unicode="&#xa3;" glyph-name="sterling" horiz-adv-x="1082" d="M1035 498T1043 443T1052 328Q1052 254 1037 189T990 80Q915 -20 805 -20Q747 -20 677 7T544 73T445 150Q405 82 330 35T169 -17Q135 3 108 51T65 160T49 283Q49 335 61 378Q118 402 177
402Q238 402 287 376L246 642L49 641Q47 656 47 684Q47 769 88 840L215 848L151 1271Q153 1311 202 1357T309 1442Q361 1478 433 1513T542 1549Q571 1549 592 1541T647 1513Q666 1501 688 1491L983 1471Q990 1430 990 1389Q990 1295 955 1224T875 1112Q790 1129
723 1161T561 1265Q562 1243 562 1167Q562 1038 559 870L799 885Q804 862 804 839Q804 794 790 741T752 643L554 642Q549 470 543 358L774 327L874 561L1022 533Q1035 498 1043 443Z" />
<glyph unicode="&#xa4;" glyph-name="currency" horiz-adv-x="1183" d="M1037 362T1083 320T1144 247Q1142 207 1099 156T999 68T901 31L772 205Q687 160 591 160Q547 160 488 174T390 209Q299 68 237 38Q197 40 146 83T58 183T21 281L203 414Q187 446 178 494T169
582Q169 688 217 778Q58 879 27 944Q29 984 72 1035T172 1123T270 1160L414 964Q500 1002 591 1002Q642 1002 685 995T769 964Q812 1039 856 1089T934 1155Q974 1153 1025 1110T1113 1010T1150 912L971 779Q989 732 1000 678T1011 582Q1011 491 968 403Q1037 362
1083 320ZM725 505T725 568Q725 612 707 668Q682 688 637 701T549 715Q512 715 491 704Q456 638 456 577Q456 530 476 476Q499 456 546 442T637 428Q671 428 691 438L693 441Q725 505 725 568Z" />
<glyph unicode="&#xa5;" glyph-name="yen" horiz-adv-x="1268" d="M775 613L784 516L1142 532Q1149 497 1149 460Q1149 418 1138 377T1105 309L801 308L822 19Q790 -2 752 -11T665 -20Q580 -20 523 1T423 62L440 308L117 307Q114 330 114 348Q114 428 156 489L454
502L461 613L106 612Q103 635 103 653Q103 694 114 730T145 794L362 799L170 1088L2 1234Q7 1328 49 1395T158 1496T300 1531Q373 1531 441 1498L642 752H659L827 1078Q771 1127 736 1170T667 1283Q697 1359 756 1420T888 1515T1036 1549Q1116 1484 1158 1384T1208
1165Q1154 1036 929 820L1171 832Q1177 805 1177 770Q1177 728 1167 686T1134 613H775Z" />
<glyph unicode="&#xa6;" glyph-name="brokenbar" horiz-adv-x="636" d="M393 776T309 776Q239 776 170 791L142 1796Q176 1819 246 1834T385 1849Q439 1849 480 1838L475 798Q393 776 309 776ZM240 525T298 525Q387 525 474 499L470 -289Q389 -314 324 -314Q262
-314 200 -293L178 513Q240 525 298 525Z" />
<glyph unicode="&#xa7;" glyph-name="section" horiz-adv-x="900" d="M738 442T738 442Q783 410 805 393T841 358Q842 346 842 322Q842 266 834 210T809 109Q744 46 679 -1T539 -79Q455 -76 375 -62T191 -24Q129 -9 97 -4Q49 83 49 161Q49 204 60 236T84 288T99
315Q194 312 282 268T476 146L525 170Q532 208 532 279Q532 310 531 321Q461 341 368 380T192 466T65 555Q39 653 39 724Q39 759 91 809T199 897Q101 950 65 996Q52 1046 48 1151T43 1337Q43 1364 75 1401T150 1471T221 1522Q278 1556 354 1586T482 1616Q509 1616
542 1603T623 1564Q672 1539 685 1534L846 1480Q856 1446 856 1407Q856 1331 817 1251T707 1096Q646 1121 565 1192T431 1334L405 1325L396 1109Q545 1030 668 956T841 819Q842 807 842 783Q842 727 834 671T809 570L696 472Q738 442 738 442ZM386 658L481 598L534
625Q542 666 542 725Q542 747 540 769L394 818L386 658Z" />
<glyph unicode="&#xa8;" glyph-name="dieresis" horiz-adv-x="1010" d="M99 1361T132 1329T213 1273T307 1247Q369 1274 424 1334T510 1464Q485 1580 397 1630T199 1681Q184 1631 167 1586T138 1510T119 1464L90 1392Q99 1361 132 1329ZM567 1361T600 1329T681
1273T775 1247Q837 1274 892 1334T978 1464Q953 1580 865 1630T667 1681Q652 1631 635 1586T606 1510T587 1464L558 1392Q567 1361 600 1329Z" />
<glyph unicode="&#xa9;" glyph-name="copyright" horiz-adv-x="1433" d="M1296 1319T1305 1258T1315 1094Q1315 939 1291 725T1239 410Q1225 362 1128 311T917 222T754 176Q674 183 539 218T297 304T183 405Q155 583 137 783T119 1126Q119 1208 125 1269T154 1360Q187
1403 302 1450T543 1530T705 1564Q757 1564 877 1534T1109 1456T1264 1357Q1296 1319 1305 1258ZM733 1029Q777 968 813 927T894 859Q916 865 952 906T1017 1012T1045 1151Q1045 1180 1041 1204L891 1243L852 1263Q801 1290 765 1306T705 1322Q670 1322 613 1298T512
1247Q467 1220 417 1175T367 1100Q367 1093 371 1080T381 1050Q429 908 429 695Q429 669 425 639Q422 623 422 611Q422 593 431 578T466 539Q470 536 541 478T676 420Q735 420 812 466T953 573T1038 671L957 795Q887 758 808 719T699 667L684 679Q703 769 703 867Q703
939 692 1042L716 1052L733 1029Z" />
<glyph unicode="&#xaa;" glyph-name="ordfeminine" horiz-adv-x="1033" d="M1033 239Q984 125 920 54T786 -18Q746 -18 701 6T620 68Q617 71 604 84T584 118T576 165Q576 180 577 189Q591 323 606 420L593 426Q459 81 370 3Q343 -17 318 -17Q298 -17 278 -7T226
26Q208 39 188 49Q151 70 132 86T112 126Q112 149 113 167L114 253Q114 367 97 518T49 768Q39 802 39 816Q39 826 43 836T60 863Q107 924 171 961T287 1014T371 1034Q433 991 484 927T583 780Q582 860 578 931L576 991Q590 1000 631 1007T721 1015Q799 1015 856
990T959 911Q963 882 942 760T886 497T811 264L960 343L1033 239ZM438 332T493 428T582 596Q584 616 584 619V664Q546 674 470 689L400 704L401 612Q404 473 371 303L396 291Q438 332 493 428Z" />
<glyph unicode="&#xab;" glyph-name="guillemotleft" horiz-adv-x="1274" d="M675 128T630 82T540 10Q474 75 331 187T115 343Q91 371 73 459T55 626Q55 662 59 682L495 1107Q524 1095 560 1067T626 1004T663 938Q638 866 541 739T359 526Q451 442 551 341T698
176Q675 128 630 82ZM1251 128T1206 82T1116 10Q1050 75 907 187T691 343Q667 371 649 459T631 626Q631 662 635 682L1071 1107Q1100 1095 1136 1067T1202 1004T1239 938Q1214 866 1117 739T935 526Q1027 442 1127 341T1274 176Q1251 128 1206 82Z" />
<glyph unicode="&#xac;" glyph-name="logicalnot" horiz-adv-x="1073" d="M703 441L91 440Q88 470 88 496Q88 552 102 594T147 689L864 745L949 667V292Q889 222 804 222Q756 222 694 246L703 441Z" />
<glyph unicode="&#xad;" glyph-name="uni00AD" horiz-adv-x="1707" />
<glyph unicode="&#xae;" glyph-name="registered" horiz-adv-x="1433" d="M1315 1334T1325 1271T1335 1101Q1335 938 1310 701T1256 362Q1242 312 1143 268T930 193T755 153Q663 161 526 189T281 261T165 357Q137 536 118 759T99 1134Q99 1218 105 1282T135 1377Q169
1421 288 1469T536 1552T705 1587Q759 1587 883 1556T1123 1475T1283 1373Q1315 1334 1325 1271ZM734 561T789 491T946 420Q996 420 1032 451T1087 532T1110 632L1038 716L945 669L888 736L1031 830Q1059 888 1072 959T1086 1103Q1086 1175 1073 1240Q1041 1267
993 1286T898 1314T826 1323Q784 1279 760 1242T718 1162T677 1046L640 1054L675 1284Q634 1312 570 1312Q513 1312 460 1291T381 1234Q378 1221 391 1081T423 808T457 644Q442 607 433 572T409 470Q429 448 484 434T589 420Q621 420 653 426T705 446Q699 507 684
583T652 698L721 689Q734 561 789 491ZM798 1006T798 961Q798 886 780 836L629 827Q646 860 727 976L769 1037L791 1034Q798 1006 798 961Z" />
<glyph unicode="&#xaf;" glyph-name="overscore" horiz-adv-x="749" d="M720 1608Q728 1577 728 1533Q728 1484 716 1434T680 1337Q587 1330 387 1330Q209 1330 23 1337Q20 1363 20 1389Q20 1447 33 1500T69 1594L720 1608Z" />
<glyph unicode="&#xb0;" glyph-name="degree" horiz-adv-x="978" d="M641 1510T736 1452T876 1293T921 1063Q921 931 870 822T720 649T479 584Q338 584 244 645T103 810T57 1046Q57 1177 107 1282T257 1448T496 1510Q641 1510 736 1452ZM425 1220T404 1216Q379
1181 366 1137T352 1046Q352 996 366 946T404 852Q419 841 445 835T504 829Q534 829 564 835Q587 874 599 920T612 1015Q612 1066 598 1115T560 1202Q501 1220 451 1220Q425 1220 404 1216Z" />
<glyph unicode="&#xb1;" glyph-name="plusminus" horiz-adv-x="1069" d="M91 584Q88 614 88 639Q88 689 101 723T147 813L410 834L357 1022Q390 1074 446 1101T574 1129Q662 1129 699 1093L665 854L975 878Q982 850 982 819Q982 767 963 712T907 585H657V379Q597
309 512 309Q464 309 402 333L419 584H91ZM975 293Q982 265 982 234Q982 182 963 127T907 0H91Q88 30 88 55Q88 105 100 138T147 228L975 293Z" />
<glyph unicode="&#xb2;" glyph-name="uni00B2" horiz-adv-x="1015" d="M923 881T923 807Q923 716 875 651Q811 566 717 566Q649 566 565 606T426 695L425 694L423 697L409 711Q393 682 386 673Q354 623 309 597T208 568Q172 590 141 653T93 793T78 927Q139 980
207 1002Q233 995 259 980T321 936Q381 996 463 1091T578 1234L576 1279L397 1343L371 1333L339 1096Q285 1078 244 1078Q217 1078 167 1091Q142 1143 120 1222T97 1368Q97 1425 117 1461Q149 1492 216 1528T355 1590T477 1615Q532 1612 609 1591T760 1533T881
1447Q900 1375 900 1308Q900 1261 892 1218Q855 1169 779 1105T620 983T486 897L487 888L690 862L767 984L893 960Q923 881 923 807Z" />
<glyph unicode="&#xb3;" glyph-name="uni00B3" horiz-adv-x="949" d="M645 1075T712 1050T820 988T861 915Q861 790 818 705T695 575Q653 551 590 537T470 522Q350 522 244 554T94 651Q90 668 90 724Q90 751 100 766T139 804Q142 807 146 810T154 817Q215 787
322 768T511 746Q534 746 572 753Q591 798 599 852Q583 877 535 902T416 955Q389 920 347 892T269 856Q241 862 215 888T173 951T156 1029Q156 1078 185 1126L259 1154L358 1124Q472 1243 513 1300L333 1356L329 1355L319 1293Q314 1271 309 1237Q254 1217 209
1217Q166 1217 116 1239L106 1271V1269Q104 1276 95 1302T80 1351T75 1397Q75 1441 98 1483Q148 1542 296 1589Q329 1600 358 1607T401 1614Q437 1614 519 1596T679 1550T785 1491Q793 1466 797 1429T802 1358Q802 1318 793 1267Q681 1170 538 1086L571 1084Q645
1075 712 1050Z" />
<glyph unicode="&#xb4;" glyph-name="acute" horiz-adv-x="692" d="M92 1355T120 1312T174 1247Q275 1267 403 1327T598 1446Q598 1502 569 1560T490 1665T383 1732L330 1669Q248 1572 197 1517T75 1402Q92 1355 120 1312Z" />
<glyph unicode="&#xb5;" glyph-name="uni00B5" horiz-adv-x="1214" d="M416 -56T438 -162T473 -403Q428 -439 330 -439Q251 -439 187 -419T84 -365Q84 -140 103 141T180 666L-5 1004Q17 1068 72 1110T197 1171T334 1191Q402 1191 439 1174Q455 1053 461 931Q467
831 467 737Q467 543 439 375L470 361Q504 396 558 478T657 644T712 764Q683 1110 683 1154Q700 1165 748 1173T851 1182Q942 1182 1008 1153T1128 1061V1050Q1128 1000 1104 860T1039 566T956 308L1129 400L1214 279Q1157 147 1084 64T929 -20Q882 -20 829 7T734
80Q730 84 715 100T691 139T682 193Q682 201 684 221Q698 360 718 490L703 497Q650 286 619 185T564 42T510 0Q498 0 453 25T369 77L360 70Q416 -56 438 -162Z" />
<glyph unicode="&#xb6;" glyph-name="paragraph" horiz-adv-x="1617" d="M1437 1572T1455 1504T1473 1355Q1473 1273 1457 1204Q1269 1144 1037 1144Q945 1144 815 1156L756 1160L764 633L765 632L741 -105Q733 -126 702 -145T625 -175T533 -187Q447 -187 388
-147L530 404L470 420Q371 447 316 465T233 507Q193 615 175 785T156 1132Q156 1239 162 1315L796 1479L1398 1608Q1437 1572 1455 1504ZM1357 917T1357 906Q1357 856 1339 710T1294 425T1243 237Q1259 191 1272 133T1308 -33L1323 -105Q1289 -144 1225 -164T1090
-185Q1042 -185 1001 -175T937 -147Q946 -41 971 82T1026 271L971 999Q1025 1021 1091 1021Q1149 1021 1207 1006T1305 966T1356 919Q1357 917 1357 906Z" />
<glyph unicode="&#xb7;" glyph-name="middot" horiz-adv-x="691" d="M279 868T227 809T129 689T75 604Q127 455 312 375Q361 391 424 435T540 538T606 660Q551 737 473 798T304 884Q279 868 227 809Z" />
<glyph unicode="&#xb8;" glyph-name="cedilla" horiz-adv-x="553" d="M544 -145Q522 -231 449 -302T281 -406Q263 -408 251 -408Q202 -408 152 -389T64 -344T8 -296Q7 -289 7 -275Q7 -241 14 -201T30 -130Q92 -145 165 -157T283 -169L146 135L366 134L544 -145Z" />
<glyph unicode="&#xb9;" glyph-name="uni00B9" horiz-adv-x="732" d="M566 1383T545 1210T495 905L503 880Q525 811 541 744T568 599Q521 564 423 562Q368 562 301 572T209 599L277 1074L250 1252L83 1223L23 1354Q91 1439 201 1513T426 1613Q504 1567 572 1506Q566
1383 545 1210Z" />
<glyph unicode="&#xba;" glyph-name="ordmasculine" horiz-adv-x="929" d="M872 809T875 767T878 652Q878 532 857 379T812 137Q797 120 755 93T671 45Q615 17 573 2T491 -17Q433 -12 354 8T207 58T108 117Q82 283 68 408T54 650Q54 769 69 864Q92 894 166 931T323
998T451 1034Q523 1027 605 1000T757 932T864 847Q872 809 875 767ZM355 601T355 509Q355 380 367 251Q437 205 510 189L557 222Q564 294 564 412Q564 539 549 687L417 741L365 716Q355 601 355 509Z" />
<glyph unicode="&#xbb;" glyph-name="guillemotright" horiz-adv-x="1274" d="M23 989T68 1035T158 1107Q224 1042 367 930T583 774Q607 746 625 658T643 491Q643 455 639 435L203 10Q174 22 138 50T72 113T35 179Q60 251 157 378T339 591Q247 675 147 776T0 941Q23
989 68 1035ZM599 989T644 1035T734 1107Q800 1042 943 930T1159 774Q1183 746 1201 658T1219 491Q1219 455 1215 435L779 10Q750 22 714 50T648 113T611 179Q636 251 733 378T915 591Q823 675 723 776T576 941Q599 989 644 1035Z" />
<glyph unicode="&#xbc;" glyph-name="onequarter" horiz-adv-x="2198" d="M375 1453L208 1424L148 1555Q216 1640 326 1714T551 1814Q629 1768 697 1707Q691 1584 670 1411T620 1106L628 1081Q650 1012 666 945T693 800Q646 765 548 763Q493 763 426 773T334 800L402
1275L375 1453ZM1434 1666T1507 1615T1624 1505L475 -19Q415 -2 369 38T312 128L1378 1669Q1434 1666 1507 1615ZM2059 894T2059 872Q2059 801 2040 662T1988 381Q2000 344 2022 227T2057 14Q2033 -3 1991 -11T1904 -20Q1854 -20 1798 -11T1719 14L1755 267L1444
321Q1414 290 1375 266T1304 235Q1276 241 1250 270T1208 343T1192 431Q1192 488 1219 532L1311 521L1353 967Q1389 1015 1450 1038T1580 1062Q1620 1062 1664 1053T1729 1017L1521 504L1776 486L1705 773Q1717 798 1752 830T1850 888T1997 913Q2030 913 2058 901Q2059
894 2059 872Z" />
<glyph unicode="&#xbd;" glyph-name="onehalf" horiz-adv-x="2156" d="M375 1453L208 1424L148 1555Q216 1640 326 1714T551 1814Q629 1768 697 1707Q691 1584 670 1411T620 1106L628 1081Q650 1012 666 945T693 800Q646 765 548 763Q493 763 426 773T334 800L402
1275L375 1453ZM1434 1666T1507 1615T1624 1505L475 -19Q415 -2 369 38T312 128L1378 1669Q1434 1666 1507 1615ZM2044 295T2044 221Q2044 130 1996 65Q1932 -20 1838 -20Q1770 -20 1686 20T1547 109L1546 108L1544 111L1530 125Q1514 96 1507 87Q1475 37 1430
11T1329 -18Q1293 4 1262 67T1214 207T1199 341Q1260 394 1328 416Q1354 409 1380 394T1442 350Q1502 410 1584 505T1699 648L1697 693L1518 757L1492 747L1460 510Q1406 492 1365 492Q1338 492 1288 505Q1263 557 1241 636T1218 782Q1218 839 1238 875Q1270 906
1337 942T1476 1004T1598 1029Q1653 1026 1730 1005T1881 947T2002 861Q2021 789 2021 722Q2021 675 2013 632Q1976 583 1900 519T1741 397T1607 311L1608 302L1811 276L1888 398L2014 374Q2044 295 2044 221Z" />
<glyph unicode="&#xbe;" glyph-name="threequarters" horiz-adv-x="2478" d="M653 750T590 736T470 721Q350 721 244 753T94 850Q90 867 90 923Q90 950 100 965T139 1003Q142 1006 146 1009T154 1016Q215 986 322 967T511 945Q534 945 572 952Q591 997 599 1051Q583
1076 535 1101T416 1154Q389 1119 347 1091T269 1055Q241 1061 215 1087T173 1150T156 1228Q156 1277 185 1325L259 1353L358 1323Q472 1442 513 1499L333 1555L329 1554L319 1492Q314 1470 309 1436Q254 1416 209 1416Q166 1416 116 1438L106 1470V1468Q104 1475
95 1501T80 1550T75 1596Q75 1640 98 1682Q148 1741 296 1788Q329 1799 358 1806T401 1813Q437 1813 519 1795T679 1749T785 1690Q793 1665 797 1628T802 1557Q802 1517 793 1466Q681 1369 538 1285L571 1283Q645 1274 712 1249T820 1187T861 1114Q861 989 818
904T695 774Q653 750 590 736ZM1524 1666T1597 1615T1714 1505L565 -19Q505 -2 459 38T402 128L1468 1669Q1524 1666 1597 1615ZM2144 894T2144 872Q2144 801 2125 662T2073 381Q2085 344 2107 227T2142 14Q2118 -3 2076 -11T1989 -20Q1939 -20 1883 -11T1804 14L1840
267L1529 321Q1499 290 1460 266T1389 235Q1361 241 1335 270T1293 343T1277 431Q1277 488 1304 532L1396 521L1438 967Q1474 1015 1535 1038T1665 1062Q1705 1062 1749 1053T1814 1017L1606 504L1861 486L1790 773Q1802 798 1837 830T1935 888T2082 913Q2115 913
2143 901Q2144 894 2144 872Z" />
<glyph unicode="&#xbf;" glyph-name="questiondown" horiz-adv-x="955" d="M591 712T643 771T741 891T795 976Q743 1125 558 1205Q509 1189 446 1145T330 1042T264 920Q319 843 397 782T566 696Q591 712 643 771ZM430 358Q420 359 401 359Q336 359 275 345T168
315T123 297Q90 182 90 31Q90 -38 97 -100T118 -206Q179 -293 282 -345T488 -419T656 -440Q695 -423 735 -374T806 -260T845 -135L729 -111Q580 -82 490 -59T335 1L638 183Q692 216 714 247T737 315Q737 338 730 363T706 435Q679 506 665 566L478 576L430 358Z"
/>
<glyph unicode="&#xc0;" glyph-name="Agrave" horiz-adv-x="1272" d="M1160 697T1203 435T1247 82Q1247 64 1245 34Q1158 -20 1036 -20Q960 -20 894 2T792 61L873 333L854 420H800Q676 427 546 438Q528 289 506 198T429 44T272 -20Q184 -20 109 23T6 140L51 303L183
292L357 1167Q198 1189 127 1216Q130 1303 163 1400T255 1549Q624 1488 1025 1366Q1160 697 1203 435ZM802 655L698 1131L612 1138Q607 1051 596 911T569 633L802 655ZM414 1688T538 1656T759 1624Q792 1624 824 1629Q853 1660 872 1703T888 1791Q764 1853 683
1901T500 2020Q423 1973 376 1896T320 1738Q414 1688 538 1656Z" />
<glyph unicode="&#xc1;" glyph-name="Aacute" horiz-adv-x="1272" d="M1160 697T1203 435T1247 82Q1247 64 1245 34Q1158 -20 1036 -20Q960 -20 894 2T792 61L873 333L854 420H800Q676 427 546 438Q528 289 506 198T429 44T272 -20Q184 -20 109 23T6 140L51 303L183
292L357 1167Q198 1189 127 1216Q130 1303 163 1400T255 1549Q624 1488 1025 1366Q1160 697 1203 435ZM802 655L698 1131L612 1138Q607 1051 596 911T569 633L802 655ZM445 1683T494 1629Q526 1624 559 1624Q656 1624 780 1656T998 1738Q990 1818 943 1895T818
2020Q707 1942 628 1894T430 1786Q445 1683 494 1629Z" />
<glyph unicode="&#xc2;" glyph-name="Acircumflex" horiz-adv-x="1272" d="M1160 697T1203 435T1247 82Q1247 64 1245 34Q1158 -20 1036 -20Q960 -20 894 2T792 61L873 333L854 420H800Q676 427 546 438Q528 289 506 198T429 44T272 -20Q184 -20 109 23T6 140L51
303L183 292L357 1167Q198 1189 127 1216Q130 1303 163 1400T255 1549Q624 1488 1025 1366Q1160 697 1203 435ZM802 655L698 1131L612 1138Q607 1051 596 911T569 633L802 655ZM421 1630T385 1662T328 1731Q393 1792 429 1835T507 1947Q534 1971 620 1989T777 2007Q810
2007 830 2003L1038 1754Q1021 1712 981 1667T895 1609Q843 1628 793 1661T671 1751L640 1775Q578 1704 542 1667T469 1609Q421 1630 385 1662Z" />
<glyph unicode="&#xc3;" glyph-name="Atilde" horiz-adv-x="1272" d="M1160 697T1203 435T1247 82Q1247 64 1245 34Q1158 -20 1036 -20Q960 -20 894 2T792 61L873 333L854 420H800Q676 427 546 438Q528 289 506 198T429 44T272 -20Q184 -20 109 23T6 140L51 303L183
292L357 1167Q198 1189 127 1216Q130 1303 163 1400T255 1549Q624 1488 1025 1366Q1160 697 1203 435ZM802 655L698 1131L612 1138Q607 1051 596 911T569 633L802 655ZM561 1698T654 1652T800 1605Q866 1605 928 1656T1035 1781T1092 1913L985 2000L851 1880Q830
1889 800 1907T762 1929Q689 1973 640 1996T551 2020Q485 2020 420 1967T309 1839T250 1706L360 1626L500 1745Q561 1698 654 1652Z" />
<glyph unicode="&#xc4;" glyph-name="Adieresis" horiz-adv-x="1272" d="M1160 697T1203 435T1247 82Q1247 64 1245 34Q1158 -20 1036 -20Q960 -20 894 2T792 61L873 333L854 420H800Q676 427 546 438Q528 289 506 198T429 44T272 -20Q184 -20 109 23T6 140L51
303L183 292L357 1167Q198 1189 127 1216Q130 1303 163 1400T255 1549Q624 1488 1025 1366Q1160 697 1203 435ZM802 655L698 1131L612 1138Q607 1051 596 911T569 633L802 655ZM253 1700T286 1668T367 1612T461 1586Q523 1613 578 1673T664 1803Q639 1919 551 1969T353
2020Q338 1970 321 1925T292 1849T273 1803L244 1731Q253 1700 286 1668ZM721 1700T754 1668T835 1612T929 1586Q991 1613 1046 1673T1132 1803Q1107 1919 1019 1969T821 2020Q806 1970 789 1925T760 1849T741 1803L712 1731Q721 1700 754 1668Z" />
<glyph unicode="&#xc5;" glyph-name="Aring" horiz-adv-x="1272" d="M1160 697T1203 435T1247 82Q1247 64 1245 34Q1158 -20 1036 -20Q960 -20 894 2T792 61L873 333L854 420H800Q676 427 546 438Q528 289 506 198T429 44T272 -20Q184 -20 109 23T6 140L51 303L183
292L357 1167Q198 1189 127 1216Q130 1303 163 1400T255 1549Q624 1488 1025 1366Q1160 697 1203 435ZM802 655L698 1131L612 1138Q607 1051 596 911T569 633L802 655ZM691 1527T652 1527Q567 1527 504 1556T407 1641T373 1772Q373 1840 408 1891T496 1973T599
2013Q641 2020 687 2020Q771 2020 834 1991T931 1906T965 1777Q965 1709 929 1658T841 1575T739 1535Q691 1527 652 1527ZM618 1824T596 1819Q589 1795 589 1775Q589 1744 601 1727Q634 1709 680 1709Q713 1709 741 1718Q747 1746 747 1763Q747 1788 738 1805Q714
1824 650 1824Q618 1824 596 1819Z" />
<glyph unicode="&#xc6;" glyph-name="AE" horiz-adv-x="1744" d="M1657 430T1667 366T1678 238Q1678 120 1613 50T1427 -20Q1313 -20 1124 7T836 68Q809 95 792 125T762 191L811 420H800Q676 427 546 438Q528 289 506 198T429 44T272 -20Q184 -20 109 23T6 140L51
303L183 292L355 1158Q193 1180 127 1206Q129 1261 144 1327T187 1453T255 1549L719 1420Q764 1486 824 1529L1168 1455L1537 1549Q1584 1522 1608 1463T1632 1331Q1632 1251 1603 1182T1525 1075Q1358 1095 1080 1174L1097 851Q1211 864 1286 877T1471 913Q1474
914 1550 930Q1590 869 1590 778Q1590 717 1574 661T1539 584Q1509 581 1479 581Q1376 581 1279 601T1105 664L1091 319L1378 299L1460 489L1640 474Q1657 430 1667 366ZM655 642T812 656L710 1122L654 1127L611 1130Q607 1046 596 908T569 633Q655 642 812 656Z"
/>
<glyph unicode="&#xc7;" glyph-name="Ccedilla" horiz-adv-x="1011" d="M934 237T849 161T659 36L775 -145Q753 -231 680 -302T512 -406Q494 -408 482 -408Q433 -408 383 -389T295 -344T239 -296Q238 -289 238 -275Q238 -241 245 -201T261 -130Q323 -145 396 -157T514
-169L446 -19Q400 -12 343 21T233 95Q200 121 185 143T166 192Q154 433 142 613Q115 1035 89 1171Q83 1205 83 1286Q95 1332 140 1385T248 1482T369 1549Q416 1540 499 1511T628 1459L944 1481Q957 1419 957 1359Q957 1271 933 1196T875 1071T815 1010Q671 1070
534 1192L510 1170Q515 1108 515 1032Q515 877 501 666T470 320Q508 325 561 344T738 411Q844 452 898 472L973 305Q934 237 849 161Z" />
<glyph unicode="&#xc8;" glyph-name="Egrave" horiz-adv-x="1110" d="M950 1522T974 1463T998 1331Q998 1249 970 1174T893 1062Q819 1069 734 1089T468 1159L424 1171L463 851Q577 864 652 877T837 913Q840 914 916 930Q956 869 956 778Q956 717 940 661T905
584Q875 581 845 581Q742 581 645 601T471 664L457 309L744 299L826 489L1006 474Q1021 433 1032 348T1044 193Q1004 112 940 57T793 -20Q663 -16 474 11T173 68Q94 162 80 264L238 681L-5 1265Q-5 1330 44 1406T158 1528L491 1455L903 1549Q950 1522 974 1463ZM266
1688T390 1656T611 1624Q644 1624 676 1629Q705 1660 724 1703T740 1791Q616 1853 535 1901T352 2020Q275 1973 228 1896T172 1738Q266 1688 390 1656Z" />
<glyph unicode="&#xc9;" glyph-name="Eacute" horiz-adv-x="1110" d="M950 1522T974 1463T998 1331Q998 1249 970 1174T893 1062Q819 1069 734 1089T468 1159L424 1171L463 851Q577 864 652 877T837 913Q840 914 916 930Q956 869 956 778Q956 717 940 661T905
584Q875 581 845 581Q742 581 645 601T471 664L457 309L744 299L826 489L1006 474Q1021 433 1032 348T1044 193Q1004 112 940 57T793 -20Q663 -16 474 11T173 68Q94 162 80 264L238 681L-5 1265Q-5 1330 44 1406T158 1528L491 1455L903 1549Q950 1522 974 1463ZM297
1683T346 1629Q378 1624 411 1624Q508 1624 632 1656T850 1738Q842 1818 795 1895T670 2020Q559 1942 480 1894T282 1786Q297 1683 346 1629Z" />
<glyph unicode="&#xca;" glyph-name="Ecircumflex" horiz-adv-x="1110" d="M950 1522T974 1463T998 1331Q998 1249 970 1174T893 1062Q819 1069 734 1089T468 1159L424 1171L463 851Q577 864 652 877T837 913Q840 914 916 930Q956 869 956 778Q956 717 940 661T905
584Q875 581 845 581Q742 581 645 601T471 664L457 309L744 299L826 489L1006 474Q1021 433 1032 348T1044 193Q1004 112 940 57T793 -20Q663 -16 474 11T173 68Q94 162 80 264L238 681L-5 1265Q-5 1330 44 1406T158 1528L491 1455L903 1549Q950 1522 974 1463ZM273
1630T237 1662T180 1731Q245 1792 281 1835T359 1947Q386 1971 472 1989T629 2007Q662 2007 682 2003L890 1754Q873 1712 833 1667T747 1609Q695 1628 645 1661T523 1751L492 1775Q430 1704 394 1667T321 1609Q273 1630 237 1662Z" />
<glyph unicode="&#xcb;" glyph-name="Edieresis" horiz-adv-x="1110" d="M950 1522T974 1463T998 1331Q998 1249 970 1174T893 1062Q819 1069 734 1089T468 1159L424 1171L463 851Q577 864 652 877T837 913Q840 914 916 930Q956 869 956 778Q956 717 940 661T905
584Q875 581 845 581Q742 581 645 601T471 664L457 309L744 299L826 489L1006 474Q1021 433 1032 348T1044 193Q1004 112 940 57T793 -20Q663 -16 474 11T173 68Q94 162 80 264L238 681L-5 1265Q-5 1330 44 1406T158 1528L491 1455L903 1549Q950 1522 974 1463ZM105
1700T138 1668T219 1612T313 1586Q375 1613 430 1673T516 1803Q491 1919 403 1969T205 2020Q190 1970 173 1925T144 1849T125 1803L96 1731Q105 1700 138 1668ZM573 1700T606 1668T687 1612T781 1586Q843 1613 898 1673T984 1803Q959 1919 871 1969T673 2020Q658
1970 641 1925T612 1849T593 1803L564 1731Q573 1700 606 1668Z" />
<glyph unicode="&#xcc;" glyph-name="Igrave" horiz-adv-x="666" d="M101 1429T149 1459T263 1509T400 1529Q500 1529 566 1489L488 583Q513 464 531 314T558 19Q526 -2 486 -11T391 -20Q304 -20 239 1T133 62Q141 215 167 383T230 656Q193 767 166 909T105 1257L82
1399Q101 1429 149 1459ZM327 1688T451 1656T672 1624Q705 1624 737 1629Q766 1660 785 1703T801 1791Q677 1853 596 1901T413 2020Q336 1973 289 1896T233 1738Q327 1688 451 1656Z" />
<glyph unicode="&#xcd;" glyph-name="Iacute" horiz-adv-x="666" d="M101 1429T149 1459T263 1509T400 1529Q500 1529 566 1489L488 583Q513 464 531 314T558 19Q526 -2 486 -11T391 -20Q304 -20 239 1T133 62Q141 215 167 383T230 656Q193 767 166 909T105 1257L82
1399Q101 1429 149 1459ZM102 1683T151 1629Q183 1624 216 1624Q313 1624 437 1656T655 1738Q647 1818 600 1895T475 2020Q364 1942 285 1894T87 1786Q102 1683 151 1629Z" />
<glyph unicode="&#xce;" glyph-name="Icircumflex" horiz-adv-x="666" d="M101 1429T149 1459T263 1509T400 1529Q500 1529 566 1489L488 583Q513 464 531 314T558 19Q526 -2 486 -11T391 -20Q304 -20 239 1T133 62Q141 215 167 383T230 656Q193 767 166 909T105
1257L82 1399Q101 1429 149 1459ZM334 1630T298 1662T241 1731Q306 1792 342 1835T420 1947Q447 1971 533 1989T690 2007Q723 2007 743 2003L951 1754Q934 1712 894 1667T808 1609Q756 1628 706 1661T584 1751L553 1775Q491 1704 455 1667T382 1609Q334 1630 298
1662Z" />
<glyph unicode="&#xcf;" glyph-name="Idieresis" horiz-adv-x="666" d="M101 1429T149 1459T263 1509T400 1529Q500 1529 566 1489L488 583Q513 464 531 314T558 19Q526 -2 486 -11T391 -20Q304 -20 239 1T133 62Q141 215 167 383T230 656Q193 767 166 909T105
1257L82 1399Q101 1429 149 1459ZM-90 1700T-57 1668T24 1612T118 1586Q180 1613 235 1673T321 1803Q296 1919 208 1969T10 2020Q-5 1970 -22 1925T-51 1849T-70 1803L-99 1731Q-90 1700 -57 1668ZM378 1700T411 1668T492 1612T586 1586Q648 1613 703 1673T789
1803Q764 1919 676 1969T478 2020Q463 1970 446 1925T417 1849T398 1803L369 1731Q378 1700 411 1668Z" />
<glyph unicode="&#xd0;" glyph-name="Eth" horiz-adv-x="1334" d="M1249 1166T1251 1127T1254 996Q1254 918 1240 747T1205 415T1166 190Q1156 154 1082 107T914 23T755 -21Q682 19 620 83T534 200Q479 106 422 46T288 -20Q247 0 201 55T122 177T85 299L174 423Q212
437 271 437H304Q285 546 271 644Q221 645 89 649Q67 708 67 762Q67 799 75 834L244 867Q233 970 222 1101L213 1210L30 1226Q38 1337 66 1419T165 1549L877 1489Q971 1445 1072 1374T1242 1226Q1249 1166 1251 1127ZM855 949T838 1129L596 1180L584 908L733 922Q758
875 758 807Q758 764 747 723T717 655Q666 651 572 647L560 397L577 394L848 312Q855 454 855 586Q855 949 838 1129Z" />
<glyph unicode="&#xd1;" glyph-name="Ntilde" horiz-adv-x="1371" d="M1034 395Q882 1277 882 1430Q894 1456 932 1479T1022 1515T1126 1529Q1169 1529 1217 1518T1294 1486L1208 348Q1254 292 1279 245T1316 131Q1284 54 1214 17T1049 -21Q974 -21 893 -3T770
49Q767 66 767 93Q767 133 773 175T793 245L356 1170L351 1168Q371 1102 416 925T502 556T556 248Q558 218 558 203Q558 102 507 41T346 -20Q256 -20 179 24T67 142L98 305L209 296L201 1175Q154 1178 109 1190T28 1226Q28 1334 61 1417T187 1549Q285 1537 414
1496T642 1385L1030 391L1034 395ZM611 1698T704 1652T850 1605Q916 1605 978 1656T1085 1781T1142 1913L1035 2000L901 1880Q880 1889 850 1907T812 1929Q739 1973 690 1996T601 2020Q535 2020 470 1967T359 1839T300 1706L410 1626L550 1745Q611 1698 704 1652Z"
/>
<glyph unicode="&#xd2;" glyph-name="Ograve" horiz-adv-x="1291" d="M1182 1242T1185 1192T1189 1060Q1189 953 1175 770T1140 421T1101 190Q1092 156 1054 129T950 68Q943 65 938 63T929 58Q857 21 804 3T699 -21Q624 -16 519 9T321 71T185 147Q156 331 129
638T102 1093Q102 1178 108 1242T138 1337Q172 1382 273 1431T483 1514T628 1549Q680 1549 795 1515T1020 1427T1173 1321Q1182 1242 1185 1192ZM486 1034T486 786Q486 489 500 331Q546 304 611 276T725 238L786 280Q797 382 797 586Q797 732 792 877T777 1118L566
1209L497 1174Q486 1034 486 786ZM386 1688T510 1656T731 1624Q764 1624 796 1629Q825 1660 844 1703T860 1791Q736 1853 655 1901T472 2020Q395 1973 348 1896T292 1738Q386 1688 510 1656Z" />
<glyph unicode="&#xd3;" glyph-name="Oacute" horiz-adv-x="1291" d="M1182 1242T1185 1192T1189 1060Q1189 953 1175 770T1140 421T1101 190Q1092 156 1054 129T950 68Q943 65 938 63T929 58Q857 21 804 3T699 -21Q624 -16 519 9T321 71T185 147Q156 331 129
638T102 1093Q102 1178 108 1242T138 1337Q172 1382 273 1431T483 1514T628 1549Q680 1549 795 1515T1020 1427T1173 1321Q1182 1242 1185 1192ZM486 1034T486 786Q486 489 500 331Q546 304 611 276T725 238L786 280Q797 382 797 586Q797 732 792 877T777 1118L566
1209L497 1174Q486 1034 486 786ZM417 1683T466 1629Q498 1624 531 1624Q628 1624 752 1656T970 1738Q962 1818 915 1895T790 2020Q679 1942 600 1894T402 1786Q417 1683 466 1629Z" />
<glyph unicode="&#xd4;" glyph-name="Ocircumflex" horiz-adv-x="1291" d="M1182 1242T1185 1192T1189 1060Q1189 953 1175 770T1140 421T1101 190Q1092 156 1054 129T950 68Q943 65 938 63T929 58Q857 21 804 3T699 -21Q624 -16 519 9T321 71T185 147Q156 331
129 638T102 1093Q102 1178 108 1242T138 1337Q172 1382 273 1431T483 1514T628 1549Q680 1549 795 1515T1020 1427T1173 1321Q1182 1242 1185 1192ZM486 1034T486 786Q486 489 500 331Q546 304 611 276T725 238L786 280Q797 382 797 586Q797 732 792 877T777 1118L566
1209L497 1174Q486 1034 486 786ZM393 1630T357 1662T300 1731Q365 1792 401 1835T479 1947Q506 1971 592 1989T749 2007Q782 2007 802 2003L1010 1754Q993 1712 953 1667T867 1609Q815 1628 765 1661T643 1751L612 1775Q550 1704 514 1667T441 1609Q393 1630 357
1662Z" />
<glyph unicode="&#xd5;" glyph-name="Otilde" horiz-adv-x="1291" d="M1182 1242T1185 1192T1189 1060Q1189 953 1175 770T1140 421T1101 190Q1092 156 1054 129T950 68Q943 65 938 63T929 58Q857 21 804 3T699 -21Q624 -16 519 9T321 71T185 147Q156 331 129
638T102 1093Q102 1178 108 1242T138 1337Q172 1382 273 1431T483 1514T628 1549Q680 1549 795 1515T1020 1427T1173 1321Q1182 1242 1185 1192ZM486 1034T486 786Q486 489 500 331Q546 304 611 276T725 238L786 280Q797 382 797 586Q797 732 792 877T777 1118L566
1209L497 1174Q486 1034 486 786ZM533 1698T626 1652T772 1605Q838 1605 900 1656T1007 1781T1064 1913L957 2000L823 1880Q802 1889 772 1907T734 1929Q661 1973 612 1996T523 2020Q457 2020 392 1967T281 1839T222 1706L332 1626L472 1745Q533 1698 626 1652Z"
/>
<glyph unicode="&#xd6;" glyph-name="Odieresis" horiz-adv-x="1291" d="M1182 1242T1185 1192T1189 1060Q1189 953 1175 770T1140 421T1101 190Q1092 156 1054 129T950 68Q943 65 938 63T929 58Q857 21 804 3T699 -21Q624 -16 519 9T321 71T185 147Q156 331 129
638T102 1093Q102 1178 108 1242T138 1337Q172 1382 273 1431T483 1514T628 1549Q680 1549 795 1515T1020 1427T1173 1321Q1182 1242 1185 1192ZM486 1034T486 786Q486 489 500 331Q546 304 611 276T725 238L786 280Q797 382 797 586Q797 732 792 877T777 1118L566
1209L497 1174Q486 1034 486 786ZM225 1700T258 1668T339 1612T433 1586Q495 1613 550 1673T636 1803Q611 1919 523 1969T325 2020Q310 1970 293 1925T264 1849T245 1803L216 1731Q225 1700 258 1668ZM693 1700T726 1668T807 1612T901 1586Q963 1613 1018 1673T1104
1803Q1079 1919 991 1969T793 2020Q778 1970 761 1925T732 1849T713 1803L684 1731Q693 1700 726 1668Z" />
<glyph unicode="&#xd7;" glyph-name="multiply" horiz-adv-x="1088" d="M719 568L975 342Q943 256 895 200T792 117L544 381L333 122Q246 153 191 200T111 301L361 534L114 760Q145 846 193 901T296 984L541 723L757 980Q922 921 979 801L719 568Z" />
<glyph unicode="&#xd8;" glyph-name="Oslash" horiz-adv-x="1297" d="M1182 1242T1185 1192T1189 1060Q1189 953 1175 770T1140 421T1101 190Q1092 156 1054 129T950 68Q943 65 938 63T929 58Q857 21 804 3T699 -21Q617 -17 498 14L383 -257Q369 -256 340 -256Q298
-256 272 -253T222 -236T178 -190L281 89Q215 119 185 147Q156 331 129 638T102 1093Q102 1178 108 1242T138 1337Q172 1382 273 1431T483 1514T628 1549Q657 1549 712 1537T833 1502L980 1817Q1060 1794 1105 1761T1187 1655L1059 1407Q1140 1361 1173 1321Q1182
1242 1185 1192ZM797 382T797 586Q797 732 792 877T777 1118L566 1209L497 1174Q486 1034 486 786Q486 489 500 331Q546 304 611 276T725 238L786 280Q797 382 797 586Z" />
<glyph unicode="&#xd9;" glyph-name="Ugrave" horiz-adv-x="1272" d="M1199 1158T1199 1060Q1199 953 1185 770T1150 421T1111 190Q1102 157 1064 131T960 72Q954 69 947 66T931 58Q858 21 805 3T700 -21Q626 -17 527 8T341 71T210 147Q182 325 158 626T133 1081Q133
1143 135 1179L-5 1226Q3 1332 44 1416T182 1549Q303 1534 549 1346L546 1344L549 1345L524 1174L523 786Q523 465 538 311Q651 245 788 228Q794 280 797 384T800 586Q800 737 794 922T779 1201L615 1247Q624 1344 679 1427T830 1549Q881 1542 979 1501T1168 1409L1180
1322V1321L1183 1295L1188 1257Q1199 1158 1199 1060ZM379 1688T503 1656T724 1624Q757 1624 789 1629Q818 1660 837 1703T853 1791Q729 1853 648 1901T465 2020Q388 1973 341 1896T285 1738Q379 1688 503 1656Z" />
<glyph unicode="&#xda;" glyph-name="Uacute" horiz-adv-x="1272" d="M1199 1158T1199 1060Q1199 953 1185 770T1150 421T1111 190Q1102 157 1064 131T960 72Q954 69 947 66T931 58Q858 21 805 3T700 -21Q626 -17 527 8T341 71T210 147Q182 325 158 626T133 1081Q133
1143 135 1179L-5 1226Q3 1332 44 1416T182 1549Q303 1534 549 1346L546 1344L549 1345L524 1174L523 786Q523 465 538 311Q651 245 788 228Q794 280 797 384T800 586Q800 737 794 922T779 1201L615 1247Q624 1344 679 1427T830 1549Q881 1542 979 1501T1168 1409L1180
1322V1321L1183 1295L1188 1257Q1199 1158 1199 1060ZM410 1683T459 1629Q491 1624 524 1624Q621 1624 745 1656T963 1738Q955 1818 908 1895T783 2020Q672 1942 593 1894T395 1786Q410 1683 459 1629Z" />
<glyph unicode="&#xdb;" glyph-name="Ucircumflex" horiz-adv-x="1272" d="M1199 1158T1199 1060Q1199 953 1185 770T1150 421T1111 190Q1102 157 1064 131T960 72Q954 69 947 66T931 58Q858 21 805 3T700 -21Q626 -17 527 8T341 71T210 147Q182 325 158 626T133
1081Q133 1143 135 1179L-5 1226Q3 1332 44 1416T182 1549Q303 1534 549 1346L546 1344L549 1345L524 1174L523 786Q523 465 538 311Q651 245 788 228Q794 280 797 384T800 586Q800 737 794 922T779 1201L615 1247Q624 1344 679 1427T830 1549Q881 1542 979 1501T1168
1409L1180 1322V1321L1183 1295L1188 1257Q1199 1158 1199 1060ZM386 1630T350 1662T293 1731Q358 1792 394 1835T472 1947Q499 1971 585 1989T742 2007Q775 2007 795 2003L1003 1754Q986 1712 946 1667T860 1609Q808 1628 758 1661T636 1751L605 1775Q543 1704
507 1667T434 1609Q386 1630 350 1662Z" />
<glyph unicode="&#xdc;" glyph-name="Udieresis" horiz-adv-x="1272" d="M1199 1158T1199 1060Q1199 953 1185 770T1150 421T1111 190Q1102 157 1064 131T960 72Q954 69 947 66T931 58Q858 21 805 3T700 -21Q626 -17 527 8T341 71T210 147Q182 325 158 626T133
1081Q133 1143 135 1179L-5 1226Q3 1332 44 1416T182 1549Q303 1534 549 1346L546 1344L549 1345L524 1174L523 786Q523 465 538 311Q651 245 788 228Q794 280 797 384T800 586Q800 737 794 922T779 1201L615 1247Q624 1344 679 1427T830 1549Q881 1542 979 1501T1168
1409L1180 1322V1321L1183 1295L1188 1257Q1199 1158 1199 1060ZM218 1700T251 1668T332 1612T426 1586Q488 1613 543 1673T629 1803Q604 1919 516 1969T318 2020Q303 1970 286 1925T257 1849T238 1803L209 1731Q218 1700 251 1668ZM686 1700T719 1668T800 1612T894
1586Q956 1613 1011 1673T1097 1803Q1072 1919 984 1969T786 2020Q771 1970 754 1925T725 1849T706 1803L677 1731Q686 1700 719 1668Z" />
<glyph unicode="&#xdd;" glyph-name="Yacute" horiz-adv-x="1168" d="M383 1529T452 1480L585 640H630L783 1078Q727 1127 687 1179T611 1308Q656 1415 765 1474T1000 1549Q1079 1484 1119 1384T1165 1165Q1113 1031 1020 858T828 574L692 498L723 307Q763 313
840 337T969 382L1044 236Q1019 178 955 118T814 19T673 -20Q601 -20 532 10T419 97T374 228Q373 278 379 321T396 421Q408 481 411 505L262 621L120 1131L0 1269Q4 1375 55 1433T167 1510T273 1529Q383 1529 452 1480ZM374 1683T423 1629Q455 1624 488 1624Q585
1624 709 1656T927 1738Q919 1818 872 1895T747 2020Q636 1942 557 1894T359 1786Q374 1683 423 1629Z" />
<glyph unicode="&#xde;" glyph-name="Thorn" horiz-adv-x="1264" d="M1223 1205T1223 1135Q1223 959 1195 759T1116 419Q1090 389 1042 347T942 272T854 240Q818 240 748 271T565 362L520 385Q544 270 559 182T578 19Q546 -2 506 -11T411 -20Q324 -20 259 1T153
62Q158 169 173 288T211 508Q187 579 158 764T108 1139T87 1381L88 1393Q133 1454 207 1491T360 1529Q452 1529 530 1480L469 1003L500 994L731 1380Q752 1386 788 1391T864 1397Q906 1397 967 1381T1096 1333T1219 1253Q1223 1205 1223 1135ZM833 702T833 867Q833
931 827 992L780 1000L729 952Q654 883 598 825T504 714Q516 707 538 685T599 622Q668 548 711 509T778 469Q792 469 795 487Q833 702 833 867Z" />
<glyph unicode="&#xdf;" glyph-name="germandbls" horiz-adv-x="1249" d="M971 732T1092 639T1254 486Q1252 431 1213 332T1139 167Q1079 108 1004 58T851 -21L730 13Q639 38 577 54Q546 123 546 188Q546 249 565 294T601 362T621 391Q673 384 709 365T770 319T827
250L845 227L868 234Q885 278 899 334T918 432Q802 483 691 544T541 654L685 1187Q641 1205 577 1242T464 1311L448 1297L467 -214Q463 -244 437 -281Q415 -314 370 -351T271 -413T168 -438Q113 -428 61 -400T-31 -339T-85 -281Q-84 -229 -75 -191T-43 -99Q26 -114
205 -137Q175 7 142 291T87 857T64 1261L65 1295Q148 1410 255 1494T484 1613Q569 1607 685 1577T919 1496T1122 1380Q1106 1269 1035 1112T869 796Q971 732 1092 639Z" />
<glyph unicode="&#xe0;" glyph-name="agrave" horiz-adv-x="1201" d="M1201 278Q1143 145 1070 62T914 -21Q868 -21 815 7T721 79Q717 83 702 99T679 138T670 192Q670 210 671 220Q685 359 705 489L690 496Q533 94 430 4Q399 -20 370 -20Q346 -20 322 -8T263 30Q250
39 218 57Q174 82 153 101T130 146Q130 174 131 196Q133 260 133 300Q133 431 113 605T57 894Q45 935 45 949Q45 961 50 973T70 1004Q125 1075 199 1118T334 1180T432 1203Q505 1153 564 1078T678 907Q677 968 672 1086L670 1153Q687 1164 735 1172T838 1181Q929
1181 995 1152T1115 1060Q1119 1026 1095 884T1030 578T943 307L1116 399L1201 278ZM509 386T573 498T677 693Q679 717 679 720V773Q623 786 550 801L465 819L466 712V679Q466 527 431 352L461 338Q509 386 573 498ZM320 1388T448 1328T678 1247Q703 1268 731 1311T777
1402Q707 1461 656 1516T522 1669L469 1732Q411 1712 362 1666T284 1561T254 1446Q320 1388 448 1328Z" />
<glyph unicode="&#xe1;" glyph-name="aacute" horiz-adv-x="1201" d="M1201 278Q1143 145 1070 62T914 -21Q868 -21 815 7T721 79Q717 83 702 99T679 138T670 192Q670 210 671 220Q685 359 705 489L690 496Q533 94 430 4Q399 -20 370 -20Q346 -20 322 -8T263 30Q250
39 218 57Q174 82 153 101T130 146Q130 174 131 196Q133 260 133 300Q133 431 113 605T57 894Q45 935 45 949Q45 961 50 973T70 1004Q125 1075 199 1118T334 1180T432 1203Q505 1153 564 1078T678 907Q677 968 672 1086L670 1153Q687 1164 735 1172T838 1181Q929
1181 995 1152T1115 1060Q1119 1026 1095 884T1030 578T943 307L1116 399L1201 278ZM509 386T573 498T677 693Q679 717 679 720V773Q623 786 550 801L465 819L466 712V679Q466 527 431 352L461 338Q509 386 573 498ZM457 1355T485 1312T539 1247Q640 1267 768 1327T963
1446Q963 1502 934 1560T855 1665T748 1732L695 1669Q613 1572 562 1517T440 1402Q457 1355 485 1312Z" />
<glyph unicode="&#xe2;" glyph-name="acircumflex" horiz-adv-x="1201" d="M1201 278Q1143 145 1070 62T914 -21Q868 -21 815 7T721 79Q717 83 702 99T679 138T670 192Q670 210 671 220Q685 359 705 489L690 496Q533 94 430 4Q399 -20 370 -20Q346 -20 322 -8T263
30Q250 39 218 57Q174 82 153 101T130 146Q130 174 131 196Q133 260 133 300Q133 431 113 605T57 894Q45 935 45 949Q45 961 50 973T70 1004Q125 1075 199 1118T334 1180T432 1203Q505 1153 564 1078T678 907Q677 968 672 1086L670 1153Q687 1164 735 1172T838
1181Q929 1181 995 1152T1115 1060Q1119 1026 1095 884T1030 578T943 307L1116 399L1201 278ZM509 386T573 498T677 693Q679 717 679 720V773Q623 786 550 801L465 819L466 712V679Q466 527 431 352L461 338Q509 386 573 498ZM327 1267T291 1299T234 1368Q286 1421
324 1475T413 1612L434 1647Q463 1672 537 1689T680 1707Q713 1707 733 1703L964 1391Q947 1349 907 1304T821 1246Q746 1287 688 1328T556 1435Q508 1367 471 1328T375 1246Q327 1267 291 1299Z" />
<glyph unicode="&#xe3;" glyph-name="atilde" horiz-adv-x="1201" d="M1201 278Q1143 145 1070 62T914 -21Q868 -21 815 7T721 79Q717 83 702 99T679 138T670 192Q670 210 671 220Q685 359 705 489L690 496Q533 94 430 4Q399 -20 370 -20Q346 -20 322 -8T263 30Q250
39 218 57Q174 82 153 101T130 146Q130 174 131 196Q133 260 133 300Q133 431 113 605T57 894Q45 935 45 949Q45 961 50 973T70 1004Q125 1075 199 1118T334 1180T432 1203Q505 1153 564 1078T678 907Q677 968 672 1086L670 1153Q687 1164 735 1172T838 1181Q929
1181 995 1152T1115 1060Q1119 1026 1095 884T1030 578T943 307L1116 399L1201 278ZM509 386T573 498T677 693Q679 717 679 720V773Q623 786 550 801L465 819L466 712V679Q466 527 431 352L461 338Q509 386 573 498ZM492 1349T585 1303T731 1256Q797 1256 859 1307T966
1432T1023 1564L924 1656L782 1531Q761 1540 731 1558T693 1580Q620 1624 571 1647T482 1671Q416 1671 351 1618T240 1490T181 1357L280 1265L431 1396Q492 1349 585 1303Z" />
<glyph unicode="&#xe4;" glyph-name="adieresis" horiz-adv-x="1201" d="M1201 278Q1143 145 1070 62T914 -21Q868 -21 815 7T721 79Q717 83 702 99T679 138T670 192Q670 210 671 220Q685 359 705 489L690 496Q533 94 430 4Q399 -20 370 -20Q346 -20 322 -8T263
30Q250 39 218 57Q174 82 153 101T130 146Q130 174 131 196Q133 260 133 300Q133 431 113 605T57 894Q45 935 45 949Q45 961 50 973T70 1004Q125 1075 199 1118T334 1180T432 1203Q505 1153 564 1078T678 907Q677 968 672 1086L670 1153Q687 1164 735 1172T838
1181Q929 1181 995 1152T1115 1060Q1119 1026 1095 884T1030 578T943 307L1116 399L1201 278ZM509 386T573 498T677 693Q679 717 679 720V773Q623 786 550 801L465 819L466 712V679Q466 527 431 352L461 338Q509 386 573 498ZM194 1361T227 1329T308 1273T402 1247Q464
1274 519 1334T605 1464Q580 1580 492 1630T294 1681Q279 1631 262 1586T233 1510T214 1464L185 1392Q194 1361 227 1329ZM662 1361T695 1329T776 1273T870 1247Q932 1274 987 1334T1073 1464Q1048 1580 960 1630T762 1681Q747 1631 730 1586T701 1510T682 1464L653
1392Q662 1361 695 1329Z" />
<glyph unicode="&#xe5;" glyph-name="aring" horiz-adv-x="1201" d="M1201 278Q1143 145 1070 62T914 -21Q868 -21 815 7T721 79Q717 83 702 99T679 138T670 192Q670 210 671 220Q685 359 705 489L690 496Q533 94 430 4Q399 -20 370 -20Q346 -20 322 -8T263 30Q250
39 218 57Q174 82 153 101T130 146Q130 174 131 196Q133 260 133 300Q133 431 113 605T57 894Q45 935 45 949Q45 961 50 973T70 1004Q125 1075 199 1118T334 1180T432 1203Q505 1153 564 1078T678 907Q677 968 672 1086L670 1153Q687 1164 735 1172T838 1181Q929
1181 995 1152T1115 1060Q1119 1026 1095 884T1030 578T943 307L1116 399L1201 278ZM509 386T573 498T677 693Q679 717 679 720V773Q623 786 550 801L465 819L466 712V679Q466 527 431 352L461 338Q509 386 573 498ZM621 1228T582 1228Q497 1228 434 1257T337 1342T303
1473Q303 1541 338 1592T426 1674T529 1714Q571 1721 617 1721Q701 1721 764 1692T861 1607T895 1478Q895 1410 859 1359T771 1276T669 1236Q621 1228 582 1228ZM548 1525T526 1520Q519 1496 519 1476Q519 1445 531 1428Q564 1410 610 1410Q642 1410 671 1419Q677
1447 677 1464Q677 1490 668 1506Q644 1525 580 1525Q548 1525 526 1520Z" />
<glyph unicode="&#xe6;" glyph-name="ae" horiz-adv-x="1533" d="M1056 284Q1086 290 1130 311T1255 373Q1317 406 1382 438L1467 299Q1423 240 1334 165T1142 35T956 -20Q930 -20 905 -3T831 56L801 82Q754 123 731 148T700 190T694 227Q703 351 703 405Q703
458 698 492L683 496Q609 305 519 143T357 -20Q332 -20 307 -8T247 30Q230 42 203 57Q159 82 138 101T116 146L118 207Q122 281 122 319Q122 454 105 619T56 894Q45 931 45 949Q45 961 50 973T71 1004Q126 1075 201 1118T337 1180T436 1203Q492 1163 554 1080T671
907Q674 916 678 936Q688 978 699 1008T735 1071T804 1129Q865 1164 938 1194T1061 1224Q1085 1224 1116 1208T1199 1157Q1269 1114 1276 1110Q1308 1093 1335 1082T1386 1061T1419 1049Q1426 1047 1451 1038Q1470 1031 1481 1002T1493 889Q1493 812 1472 770Q1463
753 1385 662T1207 464T1027 284H1056ZM1173 806T1033 851Q1033 794 1026 641T1010 420L1009 417Q1164 646 1227 794Q1173 806 1033 851ZM499 386T566 500T670 693Q672 717 672 720V773Q656 777 644 780T622 786Q566 801 532 808T462 819V712Q462 547 420 352L450
338Q499 386 566 500Z" />
<glyph unicode="&#xe7;" glyph-name="ccedilla" horiz-adv-x="902" d="M491 299T590 348T773 443L874 290Q851 247 779 178T627 57L756 -145Q734 -231 661 -302T493 -406Q475 -408 463 -408Q414 -408 364 -389T276 -344T220 -296Q219 -289 219 -275Q219 -241 226
-201T242 -130Q304 -145 377 -157T495 -169L428 -20H426Q387 -20 334 9T248 63T167 127Q135 155 124 174T112 215Q112 225 113 234T115 250Q121 286 121 319Q121 469 105 628T61 869Q60 874 53 896T45 930Q45 968 106 1023T224 1112Q276 1143 347 1173T461 1204Q490
1204 533 1186T643 1132L691 1107L877 1059Q882 1022 882 995Q882 904 848 824T768 693T696 633Q638 667 593 719T490 850L462 889Q471 814 471 702Q471 596 462 489T436 300L455 284Q491 299 590 348Z" />
<glyph unicode="&#xe8;" glyph-name="egrave" horiz-adv-x="949" d="M472 284Q502 290 546 311T671 373Q733 406 798 438L883 299Q839 240 750 165T558 35T372 -20Q346 -20 321 -7T266 38Q240 64 227 75Q206 94 188 108T164 127Q133 155 122 178T110 229Q110 247
113 269Q117 307 117 338Q117 478 98 638T57 868Q45 909 45 922Q45 962 104 1018T220 1109Q275 1143 351 1173T477 1204Q512 1202 555 1174Q651 1109 705 1083T839 1028L867 1018Q879 1013 884 1008T893 990T903 946Q909 910 909 869Q909 789 888 750Q879 734 802
649T625 461T443 284H472ZM589 786T449 831Q449 776 442 632T426 420L425 417L453 457Q519 553 565 626T643 774Q589 786 449 831ZM193 1388T321 1328T551 1247Q576 1268 604 1311T650 1402Q580 1461 529 1516T395 1669L342 1732Q284 1712 235 1666T157 1561T127
1446Q193 1388 321 1328Z" />
<glyph unicode="&#xe9;" glyph-name="eacute" horiz-adv-x="949" d="M472 284Q502 290 546 311T671 373Q733 406 798 438L883 299Q839 240 750 165T558 35T372 -20Q346 -20 321 -7T266 38Q240 64 227 75Q206 94 188 108T164 127Q133 155 122 178T110 229Q110 247
113 269Q117 307 117 338Q117 478 98 638T57 868Q45 909 45 922Q45 962 104 1018T220 1109Q275 1143 351 1173T477 1204Q512 1202 555 1174Q651 1109 705 1083T839 1028L867 1018Q879 1013 884 1008T893 990T903 946Q909 910 909 869Q909 789 888 750Q879 734 802
649T625 461T443 284H472ZM589 786T449 831Q449 776 442 632T426 420L425 417L453 457Q519 553 565 626T643 774Q589 786 449 831ZM330 1355T358 1312T412 1247Q513 1267 641 1327T836 1446Q836 1502 807 1560T728 1665T621 1732L568 1669Q486 1572 435 1517T313
1402Q330 1355 358 1312Z" />
<glyph unicode="&#xea;" glyph-name="ecircumflex" horiz-adv-x="949" d="M472 284Q502 290 546 311T671 373Q733 406 798 438L883 299Q839 240 750 165T558 35T372 -20Q346 -20 321 -7T266 38Q240 64 227 75Q206 94 188 108T164 127Q133 155 122 178T110 229Q110
247 113 269Q117 307 117 338Q117 478 98 638T57 868Q45 909 45 922Q45 962 104 1018T220 1109Q275 1143 351 1173T477 1204Q512 1202 555 1174Q651 1109 705 1083T839 1028L867 1018Q879 1013 884 1008T893 990T903 946Q909 910 909 869Q909 789 888 750Q879 734
802 649T625 461T443 284H472ZM589 786T449 831Q449 776 442 632T426 420L425 417L453 457Q519 553 565 626T643 774Q589 786 449 831ZM200 1267T164 1299T107 1368Q159 1421 197 1475T286 1612L307 1647Q336 1672 410 1689T553 1707Q586 1707 606 1703L837 1391Q820
1349 780 1304T694 1246Q619 1287 561 1328T429 1435Q381 1367 344 1328T248 1246Q200 1267 164 1299Z" />
<glyph unicode="&#xeb;" glyph-name="edieresis" horiz-adv-x="949" d="M472 284Q502 290 546 311T671 373Q733 406 798 438L883 299Q839 240 750 165T558 35T372 -20Q346 -20 321 -7T266 38Q240 64 227 75Q206 94 188 108T164 127Q133 155 122 178T110 229Q110
247 113 269Q117 307 117 338Q117 478 98 638T57 868Q45 909 45 922Q45 962 104 1018T220 1109Q275 1143 351 1173T477 1204Q512 1202 555 1174Q651 1109 705 1083T839 1028L867 1018Q879 1013 884 1008T893 990T903 946Q909 910 909 869Q909 789 888 750Q879 734
802 649T625 461T443 284H472ZM589 786T449 831Q449 776 442 632T426 420L425 417L453 457Q519 553 565 626T643 774Q589 786 449 831ZM323 1361T356 1329T437 1273T531 1247Q593 1274 648 1334T734 1464Q709 1580 621 1630T423 1681Q408 1631 391 1586T362 1510T343
1464L314 1392Q323 1361 356 1329ZM791 1361T824 1329T905 1273T999 1247Q1061 1274 1116 1334T1202 1464Q1177 1580 1089 1630T891 1681Q876 1631 859 1586T830 1510T811 1464L782 1392Q791 1361 824 1329Z" />
<glyph unicode="&#xec;" glyph-name="igrave" horiz-adv-x="615" d="M63 231T67 246T94 323Q131 422 157 497L26 1018Q57 1055 109 1088T223 1142T346 1163Q445 1163 511 1105Q506 1075 498 998Q478 810 457 655T410 392L391 314L541 381L620 256Q576 154 504
67T345 -20Q298 -20 230 16T113 107T63 212Q63 231 67 246ZM-14 1388T114 1328T344 1247Q369 1268 397 1311T443 1402Q373 1461 322 1516T188 1669L135 1732Q77 1712 28 1666T-50 1561T-80 1446Q-14 1388 114 1328Z" />
<glyph unicode="&#xed;" glyph-name="iacute" horiz-adv-x="615" d="M63 231T67 246T94 323Q131 422 157 497L26 1018Q57 1055 109 1088T223 1142T346 1163Q445 1163 511 1105Q506 1075 498 998Q478 810 457 655T410 392L391 314L541 381L620 256Q576 154 504
67T345 -20Q298 -20 230 16T113 107T63 212Q63 231 67 246ZM123 1355T151 1312T205 1247Q306 1267 434 1327T629 1446Q629 1502 600 1560T521 1665T414 1732L361 1669Q279 1572 228 1517T106 1402Q123 1355 151 1312Z" />
<glyph unicode="&#xee;" glyph-name="icircumflex" horiz-adv-x="615" d="M63 231T67 246T94 323Q131 422 157 497L26 1018Q57 1055 109 1088T223 1142T346 1163Q445 1163 511 1105Q506 1075 498 998Q478 810 457 655T410 392L391 314L541 381L620 256Q576 154
504 67T345 -20Q298 -20 230 16T113 107T63 212Q63 231 67 246ZM-7 1267T-43 1299T-100 1368Q-48 1421 -10 1475T79 1612L100 1647Q129 1672 203 1689T346 1707Q379 1707 399 1703L630 1391Q613 1349 573 1304T487 1246Q412 1287 354 1328T222 1435Q174 1367 137
1328T41 1246Q-7 1267 -43 1299Z" />
<glyph unicode="&#xef;" glyph-name="idieresis" horiz-adv-x="615" d="M63 231T67 246T94 323Q131 422 157 497L26 1018Q57 1055 109 1088T223 1142T346 1163Q445 1163 511 1105Q506 1075 498 998Q478 810 457 655T410 392L391 314L541 381L620 256Q576 154 504
67T345 -20Q298 -20 230 16T113 107T63 212Q63 231 67 246ZM-140 1361T-107 1329T-26 1273T68 1247Q130 1274 185 1334T271 1464Q246 1580 158 1630T-40 1681Q-55 1631 -72 1586T-101 1510T-120 1464L-149 1392Q-140 1361 -107 1329ZM328 1361T361 1329T442 1273T536
1247Q598 1274 653 1334T739 1464Q714 1580 626 1630T428 1681Q413 1631 396 1586T367 1510T348 1464L319 1392Q328 1361 361 1329Z" />
<glyph unicode="&#xf0;" glyph-name="eth" horiz-adv-x="1073" d="M1013 976T1013 819V759Q1013 619 989 441T936 160Q919 139 870 108T772 52Q706 19 658 2T562 -20Q496 -14 411 9T248 67T126 136Q96 245 79 353T62 580Q62 720 80 836Q108 871 184 909T346 977T486
1014Q535 1009 588 999L592 1006Q504 1106 404 1190L278 1059Q135 1082 105 1168L220 1308L39 1419Q39 1444 58 1486T104 1566T156 1613Q279 1575 392 1517L519 1671Q581 1664 647 1631T739 1538L601 1394Q807 1253 994 1058Q1013 976 1013 819ZM648 370T648 489Q648
660 632 836L615 840L426 678Q417 567 417 506Q417 390 428 302Q498 256 584 230L639 268Q648 370 648 489Z" />
<glyph unicode="&#xf1;" glyph-name="ntilde" horiz-adv-x="1192" d="M545 523T461 360Q512 209 545 24Q483 -20 358 -20Q289 -20 216 3T107 66Q127 181 141 242T177 368Q154 422 118 572T54 870T26 1054L27 1061Q60 1117 148 1148T327 1180Q431 1180 472 1143L399
517L415 514Q431 567 449 635T476 734Q513 876 542 973T611 1165Q658 1180 744 1180Q849 1180 940 1147T1095 1038Q1095 953 1074 824T1015 557T933 311L1103 400L1192 279Q1169 211 1125 142T1026 26T917 -20Q871 -20 818 6T727 72Q691 110 678 142T666 221L691
772L662 781Q545 523 461 360ZM490 1349T583 1303T729 1256Q795 1256 857 1307T964 1432T1021 1564L922 1656L780 1531Q759 1540 729 1558T691 1580Q618 1624 569 1647T480 1671Q414 1671 349 1618T238 1490T179 1357L278 1265L429 1396Q490 1349 583 1303Z" />
<glyph unicode="&#xf2;" glyph-name="ograve" horiz-adv-x="1083" d="M1016 943T1019 895T1023 759Q1023 619 999 441T946 160Q929 139 880 108T782 52Q716 19 668 2T572 -20Q504 -14 412 10T241 67T126 136Q95 334 79 478T62 758Q62 883 80 1006Q108 1041 194
1084T377 1162T526 1204Q609 1196 705 1164T882 1085T1007 987Q1016 943 1019 895ZM414 714T414 593Q414 433 428 292Q510 238 594 220L649 258Q657 341 657 480Q657 637 640 800L486 863L426 834Q414 714 414 593ZM252 1388T380 1328T610 1247Q635 1268 663 1311T709
1402Q639 1461 588 1516T454 1669L401 1732Q343 1712 294 1666T216 1561T186 1446Q252 1388 380 1328Z" />
<glyph unicode="&#xf3;" glyph-name="oacute" horiz-adv-x="1083" d="M1016 943T1019 895T1023 759Q1023 619 999 441T946 160Q929 139 880 108T782 52Q716 19 668 2T572 -20Q504 -14 412 10T241 67T126 136Q95 334 79 478T62 758Q62 883 80 1006Q108 1041 194
1084T377 1162T526 1204Q609 1196 705 1164T882 1085T1007 987Q1016 943 1019 895ZM414 714T414 593Q414 433 428 292Q510 238 594 220L649 258Q657 341 657 480Q657 637 640 800L486 863L426 834Q414 714 414 593ZM389 1355T417 1312T471 1247Q572 1267 700 1327T895
1446Q895 1502 866 1560T787 1665T680 1732L627 1669Q545 1572 494 1517T372 1402Q389 1355 417 1312Z" />
<glyph unicode="&#xf4;" glyph-name="ocircumflex" horiz-adv-x="1083" d="M1016 943T1019 895T1023 759Q1023 619 999 441T946 160Q929 139 880 108T782 52Q716 19 668 2T572 -20Q504 -14 412 10T241 67T126 136Q95 334 79 478T62 758Q62 883 80 1006Q108 1041
194 1084T377 1162T526 1204Q609 1196 705 1164T882 1085T1007 987Q1016 943 1019 895ZM414 714T414 593Q414 433 428 292Q510 238 594 220L649 258Q657 341 657 480Q657 637 640 800L486 863L426 834Q414 714 414 593ZM259 1267T223 1299T166 1368Q218 1421 256
1475T345 1612L366 1647Q395 1672 469 1689T612 1707Q645 1707 665 1703L896 1391Q879 1349 839 1304T753 1246Q678 1287 620 1328T488 1435Q440 1367 403 1328T307 1246Q259 1267 223 1299Z" />
<glyph unicode="&#xf5;" glyph-name="otilde" horiz-adv-x="1083" d="M1016 943T1019 895T1023 759Q1023 619 999 441T946 160Q929 139 880 108T782 52Q716 19 668 2T572 -20Q504 -14 412 10T241 67T126 136Q95 334 79 478T62 758Q62 883 80 1006Q108 1041 194
1084T377 1162T526 1204Q609 1196 705 1164T882 1085T1007 987Q1016 943 1019 895ZM414 714T414 593Q414 433 428 292Q510 238 594 220L649 258Q657 341 657 480Q657 637 640 800L486 863L426 834Q414 714 414 593ZM424 1349T517 1303T663 1256Q729 1256 791 1307T898
1432T955 1564L856 1656L714 1531Q693 1540 663 1558T625 1580Q552 1624 503 1647T414 1671Q348 1671 283 1618T172 1490T113 1357L212 1265L363 1396Q424 1349 517 1303Z" />
<glyph unicode="&#xf6;" glyph-name="odieresis" horiz-adv-x="1083" d="M1016 943T1019 895T1023 759Q1023 619 999 441T946 160Q929 139 880 108T782 52Q716 19 668 2T572 -20Q504 -14 412 10T241 67T126 136Q95 334 79 478T62 758Q62 883 80 1006Q108 1041
194 1084T377 1162T526 1204Q609 1196 705 1164T882 1085T1007 987Q1016 943 1019 895ZM414 714T414 593Q414 433 428 292Q510 238 594 220L649 258Q657 341 657 480Q657 637 640 800L486 863L426 834Q414 714 414 593ZM126 1361T159 1329T240 1273T334 1247Q396
1274 451 1334T537 1464Q512 1580 424 1630T226 1681Q211 1631 194 1586T165 1510T146 1464L117 1392Q126 1361 159 1329ZM594 1361T627 1329T708 1273T802 1247Q864 1274 919 1334T1005 1464Q980 1580 892 1630T694 1681Q679 1631 662 1586T633 1510T614 1464L585
1392Q594 1361 627 1329Z" />
<glyph unicode="&#xf7;" glyph-name="divide" horiz-adv-x="999" d="M448 1181T408 1136T333 1045T293 980Q331 866 473 805Q511 817 560 850T648 930T698 1023Q656 1082 596 1128T467 1194Q448 1181 408 1136ZM88 470T88 496Q88 552 102 594T147 689L905 754Q912
726 912 693Q912 588 837 441L91 440Q88 470 88 496ZM448 356T408 311T333 220T293 155Q331 41 473 -20Q511 -8 560 25T648 105T698 198Q656 257 596 303T467 369Q448 356 408 311Z" />
<glyph unicode="&#xf8;" glyph-name="oslash" horiz-adv-x="1083" d="M1016 943T1019 895T1023 759Q1023 619 999 441T946 160Q929 139 880 108T782 52Q716 19 668 2T572 -20Q507 -14 427 6L319 -232Q258 -229 217 -207T142 -130L220 77Q156 106 126 136Q95 334
79 478T62 758Q62 883 80 1006Q108 1041 194 1084T377 1162T526 1204Q603 1196 677 1173L786 1448Q860 1427 900 1395T977 1291L882 1085Q966 1037 1007 987Q1016 943 1019 895ZM657 341T657 480Q657 637 640 800L486 863L426 834Q414 714 414 593Q414 433 428
292Q510 238 594 220L649 258Q657 341 657 480Z" />
<glyph unicode="&#xf9;" glyph-name="ugrave" horiz-adv-x="1164" d="M470 774T459 640T419 375L449 361Q484 395 529 475T613 639T662 764Q633 1110 633 1154Q650 1165 698 1173T801 1182Q892 1182 958 1153T1078 1061V1050Q1078 1000 1054 860T989 566T906 308L1079
400L1164 279Q1107 147 1034 64T879 -20Q832 -20 779 7T684 80Q680 84 665 100T641 139T632 193Q632 201 634 221Q648 360 668 490L653 497Q577 304 488 142T327 -20Q302 -20 278 -8T217 31L182 54Q131 87 105 110T78 162L162 573L7 1004Q33 1068 91 1110T219 1171T356
1191Q424 1191 460 1174Q470 1068 470 931Q470 774 459 640ZM273 1388T401 1328T631 1247Q656 1268 684 1311T730 1402Q660 1461 609 1516T475 1669L422 1732Q364 1712 315 1666T237 1561T207 1446Q273 1388 401 1328Z" />
<glyph unicode="&#xfa;" glyph-name="uacute" horiz-adv-x="1164" d="M470 774T459 640T419 375L449 361Q484 395 529 475T613 639T662 764Q633 1110 633 1154Q650 1165 698 1173T801 1182Q892 1182 958 1153T1078 1061V1050Q1078 1000 1054 860T989 566T906 308L1079
400L1164 279Q1107 147 1034 64T879 -20Q832 -20 779 7T684 80Q680 84 665 100T641 139T632 193Q632 201 634 221Q648 360 668 490L653 497Q577 304 488 142T327 -20Q302 -20 278 -8T217 31L182 54Q131 87 105 110T78 162L162 573L7 1004Q33 1068 91 1110T219 1171T356
1191Q424 1191 460 1174Q470 1068 470 931Q470 774 459 640ZM410 1355T438 1312T492 1247Q593 1267 721 1327T916 1446Q916 1502 887 1560T808 1665T701 1732L648 1669Q566 1572 515 1517T393 1402Q410 1355 438 1312Z" />
<glyph unicode="&#xfb;" glyph-name="ucircumflex" horiz-adv-x="1164" d="M470 774T459 640T419 375L449 361Q484 395 529 475T613 639T662 764Q633 1110 633 1154Q650 1165 698 1173T801 1182Q892 1182 958 1153T1078 1061V1050Q1078 1000 1054 860T989 566T906
308L1079 400L1164 279Q1107 147 1034 64T879 -20Q832 -20 779 7T684 80Q680 84 665 100T641 139T632 193Q632 201 634 221Q648 360 668 490L653 497Q577 304 488 142T327 -20Q302 -20 278 -8T217 31L182 54Q131 87 105 110T78 162L162 573L7 1004Q33 1068 91 1110T219
1171T356 1191Q424 1191 460 1174Q470 1068 470 931Q470 774 459 640ZM280 1267T244 1299T187 1368Q239 1421 277 1475T366 1612L387 1647Q416 1672 490 1689T633 1707Q666 1707 686 1703L917 1391Q900 1349 860 1304T774 1246Q699 1287 641 1328T509 1435Q461
1367 424 1328T328 1246Q280 1267 244 1299Z" />
<glyph unicode="&#xfc;" glyph-name="udieresis" horiz-adv-x="1164" d="M470 774T459 640T419 375L449 361Q484 395 529 475T613 639T662 764Q633 1110 633 1154Q650 1165 698 1173T801 1182Q892 1182 958 1153T1078 1061V1050Q1078 1000 1054 860T989 566T906
308L1079 400L1164 279Q1107 147 1034 64T879 -20Q832 -20 779 7T684 80Q680 84 665 100T641 139T632 193Q632 201 634 221Q648 360 668 490L653 497Q577 304 488 142T327 -20Q302 -20 278 -8T217 31L182 54Q131 87 105 110T78 162L162 573L7 1004Q33 1068 91 1110T219
1171T356 1191Q424 1191 460 1174Q470 1068 470 931Q470 774 459 640ZM147 1361T180 1329T261 1273T355 1247Q417 1274 472 1334T558 1464Q533 1580 445 1630T247 1681Q232 1631 215 1586T186 1510T167 1464L138 1392Q147 1361 180 1329ZM615 1361T648 1329T729
1273T823 1247Q885 1274 940 1334T1026 1464Q1001 1580 913 1630T715 1681Q700 1631 683 1586T654 1510T635 1464L606 1392Q615 1361 648 1329Z" />
<glyph unicode="&#xfd;" glyph-name="yacute" horiz-adv-x="1115" d="M1080 1049L1076 1029Q1063 962 1041 900T961 731L1099 -62Q1078 -143 1023 -217T890 -348T724 -435Q703 -438 681 -438Q611 -438 532 -411T391 -346T305 -278Q304 -265 304 -243Q304 -207
309 -181T330 -106Q405 -123 531 -138T726 -154Q728 -121 728 -46Q728 73 721 244Q715 430 715 502V532L705 535Q676 460 619 349T500 140T393 5Q361 -20 333 -20Q289 -20 217 31L182 54Q131 87 105 110T78 162L162 573L7 1004Q33 1068 91 1110T219 1171T356 1191Q424
1191 460 1174Q470 1068 470 931Q470 823 464 713Q459 620 449 542T419 375L449 361Q484 395 530 470T614 623T662 739Q633 1085 633 1154Q650 1165 698 1173T801 1182Q892 1182 958 1153T1078 1061Q1078 1054 1075 1045L1080 1049ZM410 1355T438 1312T492 1247Q593
1267 721 1327T916 1446Q916 1502 887 1560T808 1665T701 1732L648 1669Q566 1572 515 1517T393 1402Q410 1355 438 1312Z" />
<glyph unicode="&#xfe;" glyph-name="thorn" horiz-adv-x="1129" d="M578 -132L610 -295Q586 -330 541 -363T444 -417T349 -438Q313 -438 273 -421T196 -377Q165 -355 149 -339T123 -297T113 -227L112 512L116 527Q94 659 71 857T33 1229T17 1453Q17 1464 18 1466Q69
1529 160 1571T341 1613Q435 1613 493 1566Q484 1400 465 1232T410 796Q387 627 375 525L627 1165Q635 1167 652 1172T690 1180T737 1184Q779 1184 840 1168T967 1119T1089 1038Q1075 797 1024 549T867 -5Q815 -20 769 -20Q672 -20 576 5T427 59Q414 -21 386 -132H578ZM618
688T534 521T424 300Q461 268 528 243T635 215Q652 333 671 509T696 777L669 785Q618 688 534 521Z" />
<glyph unicode="&#xff;" glyph-name="ydieresis" horiz-adv-x="1115" d="M1080 1049L1076 1029Q1063 962 1041 900T961 731L1099 -62Q1078 -143 1023 -217T890 -348T724 -435Q703 -438 681 -438Q611 -438 532 -411T391 -346T305 -278Q304 -265 304 -243Q304 -207
309 -181T330 -106Q405 -123 531 -138T726 -154Q728 -121 728 -46Q728 73 721 244Q715 430 715 502V532L705 535Q676 460 619 349T500 140T393 5Q361 -20 333 -20Q289 -20 217 31L182 54Q131 87 105 110T78 162L162 573L7 1004Q33 1068 91 1110T219 1171T356 1191Q424
1191 460 1174Q470 1068 470 931Q470 823 464 713Q459 620 449 542T419 375L449 361Q484 395 530 470T614 623T662 739Q633 1085 633 1154Q650 1165 698 1173T801 1182Q892 1182 958 1153T1078 1061Q1078 1054 1075 1045L1080 1049ZM147 1361T180 1329T261 1273T355
1247Q417 1274 472 1334T558 1464Q533 1580 445 1630T247 1681Q232 1631 215 1586T186 1510T167 1464L138 1392Q147 1361 180 1329ZM615 1361T648 1329T729 1273T823 1247Q885 1274 940 1334T1026 1464Q1001 1580 913 1630T715 1681Q700 1631 683 1586T654 1510T635
1464L606 1392Q615 1361 648 1329Z" />
<glyph unicode="&#x2013;" glyph-name="endash" horiz-adv-x="1357" d="M1226 754Q1233 726 1233 692Q1233 586 1158 439Q1116 436 952 433T599 430Q314 430 111 437Q108 467 108 494Q108 550 122 593T167 689L1226 754Z" />
<glyph unicode="&#x2014;" glyph-name="emdash" horiz-adv-x="2021" d="M1907 754Q1914 726 1914 692Q1914 586 1839 439Q1813 437 1650 435T1272 432T824 430Q314 430 111 437Q108 467 108 494Q108 550 122 593T167 689L1907 754Z" />
<glyph unicode="&#x2018;" glyph-name="quoteleft" horiz-adv-x="489" d="M312 920T360 934L415 1555L257 1607Q171 1478 105 1324T-1 1021Q46 971 114 946T256 920Q312 920 360 934Z" />
<glyph unicode="&#x2019;" glyph-name="quoteright" horiz-adv-x="489" d="M141 1595T93 1581L38 960L196 908Q282 1037 348 1191T454 1494Q407 1544 339 1569T197 1595Q141 1595 93 1581Z" />
<glyph unicode="&#x201a;" glyph-name="quotesinglbase" horiz-adv-x="489" d="M141 446T93 432L38 -189L196 -241Q282 -112 348 42T454 345Q407 395 339 420T197 446Q141 446 93 432Z" />
<glyph unicode="&#x201c;" glyph-name="quotedblleft" horiz-adv-x="944" d="M302 920T350 934L405 1555L247 1607Q161 1478 95 1324T-11 1021Q36 971 104 946T246 920Q302 920 350 934ZM757 920T805 934L860 1555L702 1607Q616 1478 550 1324T444 1021Q491 971
559 946T701 920Q757 920 805 934Z" />
<glyph unicode="&#x201d;" glyph-name="quotedblright" horiz-adv-x="937" d="M141 1595T93 1581L38 960L196 908Q282 1037 348 1191T454 1494Q407 1544 339 1569T197 1595Q141 1595 93 1581ZM589 1595T541 1581L486 960L644 908Q730 1037 796 1191T902 1494Q855
1544 787 1569T645 1595Q589 1595 541 1581Z" />
<glyph unicode="&#x201e;" glyph-name="quotedblbase" horiz-adv-x="937" d="M141 441T93 427L38 -194L196 -246Q282 -117 348 37T454 340Q407 390 339 415T197 441Q141 441 93 427ZM589 441T541 427L486 -194L644 -246Q730 -117 796 37T902 340Q855 390 787 415T645
441Q589 441 541 427Z" />
<glyph unicode="&#x2022;" glyph-name="bullet" horiz-adv-x="778" d="M299 906T238 838T123 698T60 599Q121 426 336 332Q393 351 467 402T601 523T678 664Q614 754 524 824T327 925Q299 906 238 838Z" />
<glyph unicode="&#x2039;" glyph-name="guilsinglleft" horiz-adv-x="698" d="M675 128T630 82T540 10Q474 75 331 187T115 343Q91 371 73 459T55 626Q55 662 59 682L495 1107Q524 1095 560 1067T626 1004T663 938Q638 866 541 739T359 526Q451 442 551 341T698
176Q675 128 630 82Z" />
<glyph unicode="&#x203a;" glyph-name="guilsinglright" horiz-adv-x="698" d="M23 989T68 1035T158 1107Q224 1042 367 930T583 774Q607 746 625 658T643 491Q643 455 639 435L203 10Q174 22 138 50T72 113T35 179Q60 251 157 378T339 591Q247 675 147 776T0
941Q23 989 68 1035Z" />
</font>
</defs>
</svg>
