<?xml version="1.0" standalone="no"?>
<!DOCTYPE svg PUBLIC "-//W3C//DTD SVG 1.1//EN" "http://www.w3.org/Graphics/SVG/1.1/DTD/svg11.dtd">
<svg xmlns="http://www.w3.org/2000/svg">
<defs >
<font id="Cantarell" horiz-adv-x="1075" ><font-face
    font-family="Cantarell"
    units-per-em="2048"
    panose-1="2 0 8 3 0 0 0 0 0 0"
    ascent="2157"
    descent="-585"
    alphabetic="0" />
<glyph unicode=" " glyph-name="space" horiz-adv-x="560" />
<glyph unicode="!" glyph-name="exclam" horiz-adv-x="650" d="M184 241H466V-41H184V241ZM199 1462H451V417H199V1462Z" />
<glyph unicode="&quot;" glyph-name="quotedbl" horiz-adv-x="795" d="M459 1552H726V1042H459V1552ZM69 1552H336V1042H69V1552Z" />
<glyph unicode="#" glyph-name="numbersign" horiz-adv-x="1402" d="M322 1462H564V1071H840V1462H1082V1071H1398V839H1082V569H1398V337H1082V-71H840V337H564V-71H322V337H6V569H322V839H4V1071H322V1462ZM564 839V569H840V839H564Z" />
<glyph unicode="$" glyph-name="dollar" horiz-adv-x="1364" d="M523 968Q523 943 558 923T651 886T777 851T914 806T1040 747T1132 661T1168 543Q1168 496 1153 451T1103 359T998 276T832 223V-65H583V212Q432 220 264 285L227 299L302 490L341 475Q433 438 496
425T634 411Q781 411 842 439T904 525Q902 551 866 571T772 606T647 639T512 680T388 738T297 825T262 948Q262 990 278 1032T328 1116T428 1194T583 1246V1511H832V1263Q911 1261 960 1253T1084 1224L1125 1213L1057 1021L1019 1030Q889 1064 766 1064Q647 1064
585 1034T523 968Z" />
<glyph unicode="%" glyph-name="percent" horiz-adv-x="1493" d="M411 1227Q315 1227 315 1094Q315 941 412 941Q510 941 510 1089Q510 1227 411 1227ZM412 1404Q452 1404 490 1397T568 1367T639 1312T688 1222T708 1092Q708 944 624 855T411 765Q356 765 309
782T221 835T158 938T135 1093Q135 1241 216 1322T412 1404ZM1234 486T1136 486T1038 353Q1038 200 1137 200Q1234 200 1234 348Q1234 486 1136 486ZM1137 664Q1177 664 1213 656T1287 626T1352 570T1396 479T1414 351Q1414 202 1336 114T1136 25Q1078 25 1028
42T935 95T866 197T841 352Q841 499 928 581T1137 664ZM1190 1421H1461L357 0H85L1190 1421Z" />
<glyph unicode="&amp;" glyph-name="ampersand" horiz-adv-x="1589" d="M1081 1175Q1081 1132 1070 1091T1033 1011T986 945T921 879T858 823T788 768L1076 461L1398 813L1548 661L1226 302L1548 -41H1233L1055 143Q1007 97 963 63T854 -9T707 -67T536 -88Q352
-88 246 17T139 282Q139 354 161 423T214 541T291 640T369 716T442 775Q356 864 309 943T261 1123Q261 1281 390 1381T707 1481Q874 1481 977 1394T1081 1175ZM690 1256Q615 1256 563 1213T510 1114Q510 1100 512 1088T523 1061T537 1037T558 1011T580 986T609
956T639 926Q757 1016 784 1044Q833 1094 833 1143Q833 1187 795 1221T690 1256ZM597 616Q555 583 531 563T476 511T429 454T400 395T388 327Q388 250 446 196T593 141Q677 141 751 184T902 300L597 616Z" />
<glyph unicode="&apos;" glyph-name="quotesingle" horiz-adv-x="405" d="M69 1552H336V1042H69V1552Z" />
<glyph unicode="(" glyph-name="parenleft" horiz-adv-x="742" d="M515 1602L719 1495L697 1458Q584 1270 510 1044T436 574Q436 332 510 107T697 -303L718 -337L520 -465L498 -429Q440 -334 390 -231T289 3T209 284T179 576Q179 717 208 864T287 1141T387 1372T495
1569L515 1602Z" />
<glyph unicode=")" glyph-name="parenright" horiz-adv-x="742" d="M563 576Q563 432 533 282T452 -1T351 -234T244 -429L222 -465L24 -337L45 -303Q157 -119 231 106T306 574Q306 817 232 1043T45 1458L23 1495L227 1602L247 1569Q305 1474 355 1373T455 1141T534
864T563 576Z" />
<glyph unicode="*" glyph-name="asterisk" horiz-adv-x="1196" d="M470 1462H726L711 1181L945 1335L1073 1112L823 987L1073 860L945 637L711 791L726 511H470L485 791L251 637L123 860L374 987L123 1112L251 1335L485 1181L470 1462Z" />
<glyph unicode="+" glyph-name="plus" horiz-adv-x="1400" d="M585 1274H815V768H1316V548H815V42H585V548H84V768H585V1274Z" />
<glyph unicode="," glyph-name="comma" horiz-adv-x="570" d="M172 211H441L250 -261H-19L172 211Z" />
<glyph unicode="-" glyph-name="hyphen" horiz-adv-x="1210" d="M134 769H1076V548H134V769Z" />
<glyph unicode="." glyph-name="period" horiz-adv-x="570" d="M139 251H431V-41H139V251Z" />
<glyph unicode="/" glyph-name="slash" horiz-adv-x="726" d="M506 1462H763L240 -131H-17L506 1462Z" />
<glyph unicode="0" glyph-name="zero" horiz-adv-x="1464" d="M779 1205T731 1205T636 1191T538 1143T449 1056T387 919T362 728Q362 613 386 521T449 373T539 279T638 227T734 212Q781 212 829 226T927 278T1015 370T1077 516T1102 721Q1102 829 1078 915T1015
1054T926 1142T827 1191ZM731 1440Q815 1440 897 1420T1064 1347T1210 1216T1313 1011T1353 725Q1353 559 1314 427T1212 213T1066 77T901 2T734 -20Q675 -20 616 -9T495 28T377 93T273 192T188 327T132 504T111 727Q111 841 131 939T187 1109T272 1238T376 1333T493
1394T613 1429T731 1440Z" />
<glyph unicode="1" glyph-name="one" horiz-adv-x="1464" d="M665 1421H953V231H1297V0H305V231H664V1173L347 1065L250 1272L665 1421Z" />
<glyph unicode="2" glyph-name="two" horiz-adv-x="1464" d="M236 131Q276 248 341 350T478 523T628 655T775 762T900 848T989 928T1022 1007Q1022 1085 929 1143T700 1202Q536 1202 303 1122L265 1109L188 1315L224 1331Q459 1431 737 1431Q987 1431 1134 1323T1281
1050Q1281 979 1253 917T1175 805T1064 708T932 611T795 508T666 383T560 232H1307V0H236V131Z" />
<glyph unicode="3" glyph-name="three" horiz-adv-x="1464" d="M238 1332Q325 1375 444 1406T696 1438Q925 1438 1067 1338T1210 1080Q1210 988 1168 910T1052 781Q1165 732 1218 646T1272 450Q1272 227 1096 91T626 -45Q405 -45 212 35L176 50L249 261L286 251Q498
195 628 195Q789 195 902 257T1016 419Q1016 449 1005 477T962 536T880 590T741 628T539 643H492V871H539Q632 871 705 883T823 913T895 957T934 1005T945 1052Q945 1117 869 1159T671 1202Q509 1202 329 1123L290 1105L204 1315L238 1332Z" />
<glyph unicode="4" glyph-name="four" horiz-adv-x="1546" d="M755 1421H1096V535H1344V303H1096V0H850V303H120V461L755 1421ZM819 535V1109L437 535H819Z" />
<glyph unicode="5" glyph-name="five" horiz-adv-x="1464" d="M243 1421H1263V1189H498V929Q600 937 683 937Q807 937 907 916T1074 858T1188 776T1261 676T1298 573T1310 474Q1310 429 1302 385T1272 291T1216 197T1127 113T1001 44T831 -2T612 -20Q404 -20 214
16L173 24L222 256L262 247Q410 216 597 216Q703 216 785 232T916 273T995 331T1037 395T1048 458Q1048 489 1037 519T996 584T920 643T796 686T619 703Q497 703 289 679L243 674V1421Z" />
<glyph unicode="6" glyph-name="six" horiz-adv-x="1464" d="M1027 1432Q1084 1432 1157 1425L1197 1421L1178 1191L1136 1195Q1084 1201 1032 1201Q918 1201 827 1184T676 1139T572 1071T503 989T462 898Q596 973 770 973Q1006 973 1148 842T1291 501Q1291 394
1251 299T1139 131T957 17T715 -25Q661 -25 611 -18T505 7T402 54T311 131T237 240T188 390T169 584Q169 777 214 925T337 1168T526 1323T760 1408T1027 1432ZM855 751T725 751T507 679T418 495Q418 380 510 289T737 197Q862 197 953 282T1045 484Q1045 604 950
677Z" />
<glyph unicode="7" glyph-name="seven" horiz-adv-x="1464" d="M131 1421H1333V1272L572 0H282L1006 1179H131V1421Z" />
<glyph unicode="8" glyph-name="eight" horiz-adv-x="1464" d="M724 1215Q624 1215 558 1167T491 1056Q491 1022 511 993T557 945T628 907T703 878T780 856Q888 917 932 957T977 1047Q977 1127 904 1171T724 1215ZM1055 438Q1055 497 1028 544T948 624T836 681T698
724Q563 686 485 609T407 446Q407 352 500 282T747 212Q888 212 971 277T1055 438ZM724 1440Q980 1440 1107 1343T1234 1073Q1234 991 1193 924T1069 794Q1193 727 1253 632T1314 425Q1314 340 1277 262T1171 120T989 18T738 -20Q483 -20 317 99T150 407Q150 518
216 619T393 788Q302 850 266 928T230 1077Q230 1232 362 1336T724 1440Z" />
<glyph unicode="9" glyph-name="nine" horiz-adv-x="1464" d="M750 1441Q804 1441 853 1434T958 1409T1061 1362T1152 1284T1226 1174T1275 1024T1293 828Q1293 690 1270 575T1204 374T1100 221T966 110T806 38T628 -3T435 -15Q368 -15 305 -9L265 -5L284 225L326
221Q368 216 431 216Q554 216 649 235T803 285T904 362T966 454T1000 557Q864 483 694 483Q462 483 317 611T171 939Q171 1041 213 1132T329 1292T512 1400T750 1441ZM725 1219Q604 1219 511 1137T417 955Q417 851 513 778T737 705Q864 705 954 775T1044 944Q1044
1044 949 1131T725 1219Z" />
<glyph unicode=":" glyph-name="colon" horiz-adv-x="570" d="M139 251H431V-41H139V251ZM139 1034H431V742H139V1034Z" />
<glyph unicode=";" glyph-name="semicolon" horiz-adv-x="570" d="M172 211H441L250 -261H-19L172 211ZM139 1034H431V742H139V1034Z" />
<glyph unicode="&lt;" glyph-name="less" horiz-adv-x="1073" d="M1014 1194V948L367 622L1014 311V55L59 507V724L1014 1194Z" />
<glyph unicode="=" glyph-name="equal" horiz-adv-x="1400" d="M179 542H1221V310H179V542ZM179 995H1221V763H179V995Z" />
<glyph unicode="&gt;" glyph-name="greater" horiz-adv-x="1073" d="M59 1194L1014 724V507L59 55V311L706 622L59 948V1194Z" />
<glyph unicode="?" glyph-name="question" horiz-adv-x="1046" d="M270 241H552V-41H270V241ZM917 1097Q917 1011 896 943T842 830T768 748T687 676T613 605T558 514T537 392V351H285V392Q285 482 306 555T361 676T436 765T518 838T594 903T649 977T670 1069Q670
1093 665 1115T641 1163T594 1208T514 1240T396 1253Q341 1253 276 1240T168 1209L130 1193L47 1389L82 1406Q227 1478 423 1478Q653 1478 785 1381T917 1097Z" />
<glyph unicode="@" glyph-name="at" horiz-adv-x="2100" d="M1276 959L1294 1009H1477V252Q1477 149 1494 105T1565 61Q1583 61 1605 72T1654 114T1702 192T1739 323T1754 510Q1754 629 1737 725T1674 912T1557 1063T1369 1160T1100 1197Q981 1197 881 1171T709
1099T581 992T489 862T431 719T399 574T390 438Q390 306 424 194T518 3T658 -133T829 -217T1017 -244Q1163 -244 1291 -181L1327 -164L1428 -354L1391 -373Q1208 -468 992 -468Q926 -468 858 -459T703 -425T541 -359T389 -251T260 -94T173 122T140 404Q140 511
153 611T200 817T285 1012T415 1182T596 1318T837 1407T1142 1440Q1295 1440 1420 1411T1634 1334T1789 1214T1896 1065T1961 894T1995 713T2004 530Q2004 411 1987 312T1941 143T1873 19T1792 -67T1704 -120T1620 -148T1545 -156Q1458 -156 1388 -115T1279 -1Q1158
-61 1029 -61Q825 -61 693 79T560 452Q560 695 696 849T1054 1003Q1166 1003 1276 959ZM1077 799Q950 799 872 714T794 475Q794 320 875 235T1082 150Q1162 150 1240 186V767Q1154 799 1077 799Z" />
<glyph unicode="A" glyph-name="A" horiz-adv-x="1547" d="M693 1421H969L1531 0H1272L1113 372H533L374 0H130L693 1421ZM1025 603L823 1130L620 603H1025Z" />
<glyph unicode="B" glyph-name="B" horiz-adv-x="1588" d="M775 1209H542V815Q759 820 845 835Q1053 873 1067 1008Q1068 1019 1068 1030Q1068 1062 1057 1089T1018 1146T927 1192T775 1209ZM791 655Q783 655 542 644V232H766Q806 232 834 232T913 237T999 248T1078
271T1147 307T1192 360T1211 434Q1211 537 1098 596T791 655ZM290 1421H832Q923 1421 998 1407T1126 1371T1218 1317T1282 1253T1321 1184T1341 1118T1346 1059Q1346 991 1309 921T1216 803Q1328 757 1395 660T1463 446Q1463 413 1457 379T1431 299T1382 214T1299
133T1179 65T1012 18T793 0H290V1421Z" />
<glyph unicode="C" glyph-name="C" horiz-adv-x="1615" d="M1085 1431Q1309 1431 1510 1352L1547 1337L1468 1121L1430 1134Q1236 1199 1079 1199Q955 1199 850 1159T675 1050T567 894T528 710Q528 611 569 522T685 365T873 258T1120 218Q1284 218 1448 276L1485
289L1567 89L1530 73Q1313 -20 1072 -20Q885 -20 733 37T481 193T329 425T275 709Q275 863 330 995T487 1224T743 1376T1085 1431Z" />
<glyph unicode="D" glyph-name="D" horiz-adv-x="1770" d="M809 1189H550V232H733Q802 232 847 234T965 248T1089 281T1196 346T1289 452Q1357 566 1357 719Q1357 807 1333 881T1268 1005T1173 1094T1062 1153T947 1182Q897 1189 809 1189ZM802 1421Q936 1421
1049 1400T1244 1343T1390 1256T1495 1147T1562 1021T1599 888T1610 752Q1610 660 1595 575T1542 401T1445 242T1290 115T1071 31Q1008 17 931 10T805 1T666 0H298V1421H802Z" />
<glyph unicode="E" glyph-name="E" horiz-adv-x="1447" d="M290 0V1421H1287V1189H543V848H1232V616H543V232H1287V0H290Z" />
<glyph unicode="F" glyph-name="F" horiz-adv-x="1412" d="M543 1189V848H1217V616H543V0H290V1421H1277V1189H543Z" />
<glyph unicode="G" glyph-name="G" horiz-adv-x="1755" d="M1605 206Q1398 -20 1013 -20Q849 -20 714 22T487 135T334 301T243 498T215 709Q215 822 246 927T342 1124T500 1284T724 1392T1010 1432Q1293 1432 1519 1306L1554 1286L1449 1088L1413 1107Q1342 1143
1235 1171T1020 1200Q914 1200 815 1167T639 1074T515 922T468 719Q468 574 544 458T754 278T1057 213Q1241 213 1358 296V569H913V791H1605V206Z" />
<glyph unicode="H" glyph-name="H" horiz-adv-x="1764" d="M1302 1421H1554V0H1302V617H542V0H290V1421H542V849H1302V1421Z" />
<glyph unicode="I" glyph-name="I" horiz-adv-x="812" d="M320 1421H572V0H320V1421Z" />
<glyph unicode="J" glyph-name="J" horiz-adv-x="1117" d="M662 1421H914V511Q914 457 910 411T891 310T852 210T785 121T685 48T543 1T354 -17Q247 -17 148 8L110 18L152 240L194 230Q257 215 326 215Q392 215 445 227T533 258T593 305T631 358T651 415T660 468T662
513V1421Z" />
<glyph unicode="K" glyph-name="K" horiz-adv-x="1581" d="M542 770L1190 1421H1513L830 741L1549 0H1222L542 688V0H290V1421H542V770Z" />
<glyph unicode="L" glyph-name="L" horiz-adv-x="1297" d="M290 1421H542V231H1262V0H290V1421Z" />
<glyph unicode="M" glyph-name="M" horiz-adv-x="2048" d="M290 1421H596L1068 605L1547 1421H1838V0H1586V1063L1182 407H944L542 1063V0H290V1421Z" />
<glyph unicode="N" glyph-name="N" horiz-adv-x="1823" d="M290 1421H568L1361 329V1421H1613V0H1332L542 1094V0H290V1421Z" />
<glyph unicode="O" glyph-name="O" horiz-adv-x="1850" d="M966 1436Q1183 1436 1352 1351T1618 1104T1715 726Q1715 508 1620 340T1353 78T958 -15Q811 -15 679 30T443 163T277 391T215 707Q215 926 311 1092T577 1347T966 1436ZM1028 1205T956 1205T816 1188T686
1133T576 1040T501 905T473 727Q473 496 616 356T973 216Q1062 216 1145 245T1300 331T1414 486T1457 709Q1457 811 1427 895T1348 1036T1233 1131T1098 1187Z" />
<glyph unicode="P" glyph-name="P" horiz-adv-x="1503" d="M290 1421H800Q844 1421 875 1421T957 1416T1046 1405T1132 1383T1215 1350T1286 1299T1345 1230T1381 1138T1396 1021Q1396 931 1373 859T1312 738T1216 654T1098 598T959 567T815 552T665 548Q624 548
542 552V0H290V1421ZM542 1189V784Q620 779 683 779Q751 779 800 781T906 791T1001 813T1073 851T1122 910T1139 994Q1139 1037 1125 1069T1083 1122T1021 1157T940 1177T849 1186T749 1189H542Z" />
<glyph unicode="Q" glyph-name="Q" horiz-adv-x="1870" d="M966 1436Q1307 1436 1511 1238T1715 709Q1715 436 1578 248L1762 75L1615 -73L1415 109Q1224 -15 968 -15Q808 -15 671 34T432 173T273 400T215 705Q215 926 310 1092T576 1347T966 1436ZM951 1205Q882
1205 816 1188T687 1134T577 1042T502 905T473 723Q473 601 515 504T628 344T793 249T990 216Q1120 216 1226 269L892 538L1069 693L1391 422Q1453 528 1453 687Q1453 806 1420 899T1335 1048T1214 1141T1081 1191T951 1205Z" />
<glyph unicode="R" glyph-name="R" horiz-adv-x="1601" d="M1391 1014Q1391 946 1375 885T1323 766T1226 664T1080 594L1509 0H1181L783 551H542V0H290V1421H895Q940 1421 977 1419T1068 1407T1163 1381T1249 1334T1323 1262T1372 1157T1391 1014ZM542 1190V783H774Q834
783 880 787T975 803T1055 838T1107 899T1128 991Q1128 1190 821 1190H542Z" />
<glyph unicode="S" glyph-name="S" horiz-adv-x="1525" d="M927 1434Q1126 1434 1320 1375L1361 1363L1279 1131L1241 1142Q1060 1192 911 1192Q764 1192 660 1144T555 1021Q555 972 601 935T722 873T885 822T1065 764T1229 688T1349 574T1396 409Q1396 349 1376
291T1307 175T1187 76T1005 7T757 -20T510 5T277 79L240 93L325 335L364 320Q617 230 781 230Q935 230 1030 277T1126 401Q1126 444 1097 478T1019 535T907 579T773 618T633 659T500 712T387 782T309 879T280 1010Q280 1190 456 1312T927 1434Z" />
<glyph unicode="T" glyph-name="T" horiz-adv-x="1374" d="M85 1421H1369V1189H853V0H601V1189H85V1421Z" />
<glyph unicode="U" glyph-name="U" horiz-adv-x="1737" d="M909 -20Q343 -20 295 376Q290 419 290 485V498V1421H542V520Q542 445 556 395T615 302Q712 209 909 209Q1050 209 1143 259T1262 400Q1275 444 1275 520V1421H1525Q1525 1109 1525 911T1526 657T1526
567T1527 511Q1527 464 1525 427T1509 331T1472 229T1402 135T1292 54T1130 1T909 -20Z" />
<glyph unicode="V" glyph-name="V" horiz-adv-x="1565" d="M140 1421H429L847 271L1264 1421H1538L988 0H689L140 1421Z" />
<glyph unicode="W" glyph-name="W" horiz-adv-x="2411" d="M140 1421H406L733 329L1144 1421H1376L1714 329L2114 1421H2380L1835 0H1594L1252 1087L850 0H609L140 1421Z" />
<glyph unicode="X" glyph-name="X" horiz-adv-x="1532" d="M1225 1421H1520L1020 744L1575 0H1256L838 566L420 0H110L673 741L172 1421H476L857 919L1225 1421Z" />
<glyph unicode="Y" glyph-name="Y" horiz-adv-x="1427" d="M100 1421H398L778 870L1166 1421H1454L909 664V0H626V664L100 1421Z" />
<glyph unicode="Z" glyph-name="Z" horiz-adv-x="1522" d="M185 1421H1435V1268L517 232H1462V0H155V155L1052 1189H185V1421Z" />
<glyph unicode="[" glyph-name="bracketleft" horiz-adv-x="788" d="M209 1552H749V1321H455V-220H749V-451H209V1552Z" />
<glyph unicode="\" glyph-name="backslash" horiz-adv-x="726" d="M-37 1462H220L743 -131H486L-37 1462Z" />
<glyph unicode="]" glyph-name="bracketright" horiz-adv-x="778" d="M39 1552H579V-451H39V-220H333V1321H39V1552Z" />
<glyph unicode="^" glyph-name="asciicircum" horiz-adv-x="1479" d="M726 1601L1038 1253L886 1108L712 1302L534 1109L384 1244L726 1601Z" />
<glyph unicode="_" glyph-name="underscore" horiz-adv-x="1160" d="M109 191H1051V-41H109V191Z" />
<glyph unicode="`" glyph-name="grave" horiz-adv-x="1122" d="M331 1643L905 1290L801 1112L218 1448L331 1643Z" />
<glyph unicode="a" glyph-name="a" horiz-adv-x="1233" d="M597 1007Q705 1007 786 988T918 936T999 856T1041 759T1053 648V0H869L841 65Q708 -20 538 -20Q353 -20 238 67T123 273Q123 347 160 402T259 490T412 544T596 573T806 582V616Q806 654 800 679T771
732T698 774T566 789Q454 789 269 745L229 734L178 931L213 943Q398 1007 597 1007ZM806 255V396H782Q580 396 482 372T383 291Q383 255 443 223T590 191Q713 191 806 255Z" />
<glyph unicode="b" glyph-name="b" horiz-adv-x="1347" d="M190 1511H436V964Q565 1008 699 1008Q775 1008 845 994T985 942T1104 850T1186 706T1218 505Q1218 259 1069 120T665 -20Q514 -20 386 32L372 0H190V1511ZM633 790Q534 790 436 757V220Q537 191 637
191Q683 191 726 198T815 224T896 275T953 358T976 479Q976 554 953 612T895 702T812 756T722 783T633 790Z" />
<glyph unicode="c" glyph-name="c" horiz-adv-x="1165" d="M130 473Q130 590 162 682T248 834T378 933T536 989T713 1006Q882 1006 1025 944L1060 929L995 734L956 747Q853 783 738 783Q663 783 602 770T486 728T402 641T371 504Q371 197 760 197Q857 197 944
228L983 241L1050 52L1013 38Q863 -20 690 -20Q601 -20 524 -6T372 43T246 133T162 275T130 473Z" />
<glyph unicode="d" glyph-name="d" horiz-adv-x="1352" d="M130 478Q130 732 280 870T683 1008Q800 1008 916 974V1511H1162V0H980L960 46Q815 -20 650 -20Q572 -20 500 -5T360 48T241 140T161 283T130 478ZM713 197Q817 197 916 232V767Q810 797 711 797Q666
797 624 791T535 765T453 714T395 628T372 502Q372 430 394 374T452 286T534 232T625 204T713 197Z" />
<glyph unicode="e" glyph-name="e" horiz-adv-x="1266" d="M702 1007Q788 1007 856 989T969 942T1046 868T1096 781T1122 681T1134 583T1136 488V376H393Q414 302 512 248T770 193Q883 193 1000 227L1041 239L1090 49L1054 37Q887 -20 698 -20Q566 -20 464 9T301
84T200 195T145 325T130 464Q130 574 161 665T247 819T375 925T531 987T702 1007ZM661 783Q546 783 477 726T395 582H894Q886 690 826 736T661 783Z" />
<glyph unicode="f" glyph-name="f" horiz-adv-x="984" d="M298 1047Q298 1080 298 1100T303 1155T314 1213T336 1267T371 1319T424 1362T497 1398T594 1420T718 1429Q843 1429 980 1388L1016 1377L975 1177L933 1187Q838 1210 785 1210Q662 1210 603 1169T544
1054V988H939V777H544V0H298V777H135V988H298V1047Z" />
<glyph unicode="g" glyph-name="g" horiz-adv-x="1340" d="M679 1008Q809 1008 960 945L975 988H1160V-21Q1160 -74 1153 -123T1128 -226T1082 -324T1010 -410T907 -479T769 -524T591 -541Q401 -541 229 -474L192 -458L267 -264L308 -279Q439 -322 566 -322Q654
-322 718 -302T820 -250T879 -171T907 -81T914 16V25Q788 -20 661 -20Q581 -20 507 -4T363 52T242 148T159 294T128 491Q128 604 164 695T258 843T391 938T537 992T679 1008ZM691 793Q551 793 467 716T382 508Q382 372 468 285T714 197Q814 197 914 233V755Q784
793 691 793Z" />
<glyph unicode="h" glyph-name="h" horiz-adv-x="1341" d="M696 778Q581 778 436 723V0H190V1511H436V937Q616 1006 771 1006Q849 1006 911 989T1013 945T1082 879T1126 802T1149 716T1159 636T1161 562V0H917V577Q917 778 696 778Z" />
<glyph unicode="i" glyph-name="i" horiz-adv-x="606" d="M165 1421H441V1150H165V1421ZM180 988H426V0H180V988Z" />
<glyph unicode="j" glyph-name="j" horiz-adv-x="606" d="M179 1421H455V1150H179V1421ZM194 988H440V-96Q440 -130 439 -155T432 -219T414 -289T382 -357T330 -423T254 -482T149 -532L115 -544L18 -350L56 -332Q194 -267 194 -113V988Z" />
<glyph unicode="k" glyph-name="k" horiz-adv-x="1237" d="M426 591L900 1008H1197L687 556L1212 0H910L426 492V0H180V1511H426V591Z" />
<glyph unicode="l" glyph-name="l" horiz-adv-x="646" d="M200 1511H446V0H200V1511Z" />
<glyph unicode="m" glyph-name="m" horiz-adv-x="1980" d="M660 774Q574 774 426 720V0H180V988H363L391 923Q568 1007 740 1007T1009 908Q1195 1006 1406 1006Q1498 1006 1568 984T1680 925T1749 833T1786 719T1796 586V0H1550V583Q1550 677 1501 725T1341 774Q1248
774 1101 720Q1110 668 1110 579V0H864V587Q864 774 660 774Z" />
<glyph unicode="n" glyph-name="n" horiz-adv-x="1326" d="M180 988H352L386 920Q592 1008 769 1008Q865 1008 935 982T1045 917T1108 819T1139 705T1146 583V0H900V580Q900 608 898 628T883 679T850 729T787 763T686 778Q569 778 426 723V0H180V988Z" />
<glyph unicode="o" glyph-name="o" horiz-adv-x="1375" d="M694 1007Q942 1007 1093 877T1245 512Q1245 266 1091 123T675 -20Q427 -20 279 114T130 484Q130 725 281 866T694 1007ZM678 785Q601 785 533 756T419 662T372 509Q372 379 462 291T696 202Q827 202
915 279T1003 483Q1003 556 974 615T898 711T794 766T678 785Z" />
<glyph unicode="p" glyph-name="p" horiz-adv-x="1341" d="M699 1007Q774 1007 844 992T982 941T1100 849T1181 705T1212 504Q1212 259 1064 120T665 -20Q548 -20 436 14V-531H180V988H362L385 941Q538 1007 699 1007ZM634 789Q535 789 436 754V221Q540 191 637
191Q682 191 724 198T812 224T892 275T948 358T970 479Q970 554 948 611T891 701T810 755T721 782T634 789Z" />
<glyph unicode="q" glyph-name="q" horiz-adv-x="1330" d="M668 1008Q798 1008 957 945L975 988H1150V-531H904V26Q773 -20 642 -20Q565 -20 494 -5T356 48T239 141T159 287T128 488Q128 615 172 716T292 880T464 975T668 1008ZM680 793Q539 793 455 716T370 503Q370
431 392 375T449 287T529 233T618 205T706 198Q805 198 904 233V755Q772 793 680 793Z" />
<glyph unicode="r" glyph-name="r" horiz-adv-x="947" d="M373 935Q529 1007 706 1007Q819 1007 912 964L947 948L869 743L830 758Q760 785 678 785Q547 785 426 738V0H180V988H344L373 935Z" />
<glyph unicode="s" glyph-name="s" horiz-adv-x="1180" d="M807 295Q805 320 769 339T675 373T550 404T415 443T291 498T200 581T165 699Q165 738 179 777T232 859T328 934T483 986T702 1007Q774 1007 832 1000T914 986T987 965L1028 953L960 751L922 761Q792
797 669 797Q607 797 560 789T489 769T449 742T430 716T426 696Q426 673 461 654T554 620T679 587T817 544T943 487T1035 405T1071 293Q1071 250 1059 210T1011 127T919 53T768 1T550 -20Q358 -20 167 58L130 73L204 273L242 258Q421 191 559 191Q687 191 747 216T807
295Z" />
<glyph unicode="t" glyph-name="t" horiz-adv-x="939" d="M838 18Q691 -20 592 -20Q497 -20 429 -1T321 47T260 123T230 214T223 317V777H70V988H223V1271H469V988H832V777H469V334Q469 309 477 286T505 240T562 204T652 190Q679 190 798 210L837 217L876 28L838 18Z" />
<glyph unicode="u" glyph-name="u" horiz-adv-x="1341" d="M915 988H1161V0H978L949 67Q748 -20 562 -20Q465 -20 394 5T283 70T218 169T187 282T180 404V988H426V406Q426 380 428 360T443 310T477 259T543 224T647 209Q767 209 915 264V988Z" />
<glyph unicode="v" glyph-name="v" horiz-adv-x="1157" d="M1126 988L737 0H472L65 988H349L611 260L868 988H1126Z" />
<glyph unicode="w" glyph-name="w" horiz-adv-x="1931" d="M60 988H323L560 255L867 988H1088L1322 253L1642 988H1906L1433 0H1209L976 710L664 0H440L60 988Z" />
<glyph unicode="x" glyph-name="x" horiz-adv-x="1220" d="M65 988H356L655 627L943 988H1220L812 485L1200 0H909L624 340L353 0H77L469 486L65 988Z" />
<glyph unicode="y" glyph-name="y" horiz-adv-x="1224" d="M50 988H332L657 229L953 988H1212L570 -531H270L514 -8L50 988Z" />
<glyph unicode="z" glyph-name="z" horiz-adv-x="1242" d="M150 988H1067V861L502 211H1092V0H150V127L707 777H150V988Z" />
<glyph unicode="{" glyph-name="braceleft" horiz-adv-x="828" d="M292 921Q296 951 300 1012T306 1084Q316 1195 352 1281T431 1415T531 1495T628 1538T709 1552L744 1555L792 1347L747 1341Q699 1334 658 1307T590 1240Q560 1194 547 1122T529 977T514 827T469
677T371 549Q434 495 469 421T515 270T529 121T547 -23T590 -141Q616 -180 657 -207T747 -242L792 -248L744 -456L709 -453Q673 -450 634 -440T538 -399T437 -322T355 -191T306 2Q304 24 300 85T292 178T275 257T240 338T180 399Q136 431 83 440L49 445V653L83
658Q163 671 219 735T292 921Z" />
<glyph unicode="|" glyph-name="bar" horiz-adv-x="884" d="M319 1642H565V-349H319V1642Z" />
<glyph unicode="}" glyph-name="braceright" horiz-adv-x="828" d="M522 1084Q523 1074 527 1013T536 921Q551 799 608 735T745 658L779 653V445L745 440Q692 431 648 399Q612 373 589 339T553 257T537 179T528 86T522 2Q511 -106 474 -190T391 -321T290 -399T195
-440T119 -453L84 -456L36 -248L81 -242Q129 -235 170 -208T238 -141Q268 -95 281 -24T298 121T313 270T358 420T457 549Q394 603 359 677T314 827T300 976T282 1122T238 1240Q212 1279 171 1306T81 1341L36 1347L84 1555L119 1552Q152 1549 185 1541T264 1514T349
1460T425 1377T487 1253T522 1084Z" />
<glyph unicode="~" glyph-name="asciitilde" horiz-adv-x="1400" d="M876 1401Q898 1401 910 1436T933 1534Q935 1547 936 1553L943 1592L1133 1562L1124 1520Q1122 1512 1116 1480T1107 1433T1095 1387T1079 1339T1057 1296T1028 1256T990 1226T942 1205T882
1198Q819 1201 763 1230T674 1292T611 1353T564 1381Q552 1381 543 1370T527 1337T516 1295T506 1246Q505 1238 504 1234L497 1195L307 1221L316 1264Q318 1273 323 1300T331 1341T341 1382T354 1426T371 1466T393 1504T422 1536T458 1562T503 1577T558 1584Q621
1581 677 1552T767 1490T830 1429T876 1401Z" />
<glyph unicode="&#xa0;" glyph-name="uni00A0" horiz-adv-x="560" />
<glyph unicode="&#xa1;" glyph-name="exclamdown" horiz-adv-x="650" d="M199 904H451V-451H199V904ZM184 1362H466V1080H184V1362Z" />
<glyph unicode="&#xa2;" glyph-name="cent" horiz-adv-x="1021" d="M502 1270V1552H705V1280Q804 1271 922 1221L957 1206L892 1011L853 1024Q750 1060 649 1060Q500 1060 425 980T350 747Q350 677 363 622T401 529T456 466T523 427T596 407T669 401Q754 401 841
432L880 445L947 256L910 242Q796 198 705 190V-106H502V194Q418 209 349 247T225 347T140 502T109 713Q109 935 211 1082T502 1270Z" />
<glyph unicode="&#xa3;" glyph-name="sterling" horiz-adv-x="1300" d="M355 176V621H179V838H355V938Q355 1059 386 1153T469 1306T590 1403T732 1457T882 1472Q1002 1472 1129 1432L1171 1419L1094 1222L1058 1231Q971 1254 904 1254Q830 1254 776 1236T688
1188T635 1113T608 1020T601 911V838H1131V621H601V176H1189V-41H111V176H355Z" />
<glyph unicode="&#xa4;" glyph-name="currency" horiz-adv-x="1300" d="M816 1090L989 1263L1172 1080L998 907Q1036 828 1036 742Q1036 653 999 576L1171 404L988 221L816 393Q737 355 649 355Q559 355 484 392L311 219L128 402L301 575Q263 654 263 741Q263
829 301 908L127 1082L310 1265L485 1090Q564 1128 650 1128Q737 1128 816 1090ZM715 905T650 905T538 858T491 741Q491 673 537 626T649 578Q714 578 761 626T808 741Q808 810 762 857Z" />
<glyph unicode="&#xa5;" glyph-name="yen" horiz-adv-x="1300" d="M72 1462H353L651 904L958 1462H1229L802 740H1053V533H764V415H1053V208H764V-41H522V208H247V415H522V533H247V740H485L72 1462Z" />
<glyph unicode="&#xa6;" glyph-name="brokenbar" horiz-adv-x="884" d="M319 501H565V-349H319V501ZM319 1642H565V796H319V1642Z" />
<glyph unicode="&#xa7;" glyph-name="section" horiz-adv-x="1136" d="M933 1430L975 1419L903 1209L865 1221Q747 1258 626 1258Q533 1258 474 1228T415 1148Q415 1121 441 1098T509 1058T605 1022T715 984T826 937T922 876T990 793T1016 682Q1016 566 948 477Q1015
405 1015 306Q1015 266 1006 227T976 146T917 67T826 2T697 -44T524 -61H511Q319 -61 145 7L108 22L182 221L220 208Q384 150 510 150Q745 150 745 286Q745 315 720 337T653 375T558 407T450 441T341 485T247 546T180 633T154 752Q154 855 225 942Q154 1017 154
1127Q154 1172 168 1217T219 1309T310 1393T453 1452T651 1475Q685 1475 717 1473T769 1468T818 1460T857 1451T898 1440T933 1430ZM434 823Q415 800 415 771Q415 752 429 735T463 704T517 677T581 653T655 628T730 603Q745 627 745 662Q745 686 729 705T678 741T611
767T523 795T434 823Z" />
<glyph unicode="&#xa8;" glyph-name="dieresis" horiz-adv-x="1200" d="M242 1462H509V1194H242V1462ZM691 1462H958V1194H691V1462Z" />
<glyph unicode="&#xa9;" glyph-name="copyright" horiz-adv-x="1760" d="M1124 1049L1158 1034L1102 873L1063 886Q991 912 919 912Q716 912 716 694Q716 457 932 457Q993 457 1056 479L1094 492L1151 334L1114 320Q1007 278 895 278Q841 278 791 289T690 329T602
401T542 515T519 673Q519 787 553 872T645 1004T768 1073T906 1096Q1017 1096 1124 1049ZM1027 1207T880 1207T609 1135T415 943T344 683T414 424T609 231T880 159T1151 231T1345 423T1416 683T1346 942T1151 1135ZM1631 683Q1631 565 1594 454T1488 251T1327 91T1120
-17T880 -55Q674 -55 501 46T228 316T129 683Q129 828 186 963T343 1199T582 1360T880 1421Q1035 1421 1174 1362T1414 1202T1572 966T1631 683Z" />
<glyph unicode="&#xaa;" glyph-name="ordfeminine" horiz-adv-x="766" d="M498 994H495Q393 994 345 977T297 917Q297 892 323 870T394 847Q454 847 498 910V994ZM498 1127Q498 1234 381 1234Q301 1234 218 1208L193 1200L163 1319L184 1326Q288 1364 392 1364Q442
1364 482 1355T548 1333T593 1298T622 1257T637 1213T644 1170T646 1131V735H534L520 771Q454 717 379 717Q278 717 214 769T150 915Q150 966 165 1003T208 1063T279 1101T375 1120T498 1127Z" />
<glyph unicode="&#xab;" glyph-name="guillemotleft" horiz-adv-x="1078" d="M780 1029H1068L763 623L1068 217H780L496 623L780 1029ZM309 1029H597L292 623L597 217H309L25 623L309 1029Z" />
<glyph unicode="&#xac;" glyph-name="logicalnot" horiz-adv-x="1400" d="M84 773H1316V241H1086V542H84V773Z" />
<glyph unicode="&#xad;" glyph-name="uni00AD" horiz-adv-x="1074" d="M179 769H895V548H179V769Z" />
<glyph unicode="&#xae;" glyph-name="registered" horiz-adv-x="1232" d="M616 1215H545V1086Q574 1086 586 1086T611 1085Q667 1085 690 1099T713 1147Q713 1185 690 1200T616 1215ZM649 1345Q707 1345 748 1329T811 1285T842 1225T851 1158Q851 1034 755 985L872
755Q935 809 970 884T1006 1043Q1006 1198 893 1311T616 1425Q454 1425 340 1312T226 1043Q226 888 339 775T616 661Q759 661 867 751H717L616 959H545V751H402V1345H649ZM1167 1191T1167 1043T1093 770T891 573T616 500Q503 500 400 544T224 661T108 834T65 1043Q65
1191 139 1316T341 1513T616 1586T891 1514T1092 1316Z" />
<glyph unicode="&#xaf;" glyph-name="overscore" horiz-adv-x="1400" d="M244 1681H1156V1450H244V1681Z" />
<glyph unicode="&#xb0;" glyph-name="degree" horiz-adv-x="589" d="M295 1327Q257 1327 232 1300T206 1235T231 1170T295 1142Q331 1142 356 1170T381 1235T356 1299T295 1327ZM555 1345T555 1235T479 1047T295 969T111 1047T34 1235Q34 1344 110 1422T294 1500T478
1423Z" />
<glyph unicode="&#xb1;" glyph-name="plusminus" horiz-adv-x="1400" d="M179 328H1221V109H179V328ZM586 1462H814V1050H1221V831H814V420H586V831H179V1050H586V1462Z" />
<glyph unicode="&#xb2;" glyph-name="uni00B2" horiz-adv-x="800" d="M122 827Q148 911 194 984T286 1105T376 1190T446 1258T473 1311Q473 1342 440 1369T354 1396Q298 1396 176 1347L153 1338L98 1473L119 1483Q249 1549 370 1549Q485 1549 563 1487T641 1325Q641
1272 618 1226T557 1143T479 1070T395 986T325 888H654V733H122V827Z" />
<glyph unicode="&#xb3;" glyph-name="uni00B3" horiz-adv-x="800" d="M359 1546Q466 1546 539 1488T613 1338Q613 1246 549 1184Q644 1125 644 1005Q644 881 554 803T327 725Q229 725 116 771L94 780L142 920L165 914Q273 884 330 884Q390 884 434 913T478 988Q478
1020 461 1041T413 1072T351 1085T277 1089H252V1242H277Q448 1242 448 1324Q448 1349 423 1369T348 1389Q284 1389 188 1345L165 1334L107 1474L128 1485Q257 1546 359 1546Z" />
<glyph unicode="&#xb4;" glyph-name="acute" horiz-adv-x="1122" d="M793 1642L904 1447L321 1111L219 1289L793 1642Z" />
<glyph unicode="&#xb5;" glyph-name="uni00B5" horiz-adv-x="1187" d="M149 1029H395V430Q395 153 597 153Q672 153 802 215V1029H1048V-41H865L844 8Q705 -68 570 -68Q477 -68 395 -25V-451H149V1029Z" />
<glyph unicode="&#xb6;" glyph-name="paragraph" horiz-adv-x="1326" d="M601 1552H1177V-41H931V1320H773V-41H526V646Q465 651 408 667T292 719T189 808T117 945T89 1133Q89 1199 102 1255T135 1351T187 1423T250 1476T323 1512T398 1534T473 1546T541 1551T601 1552Z" />
<glyph unicode="&#xb7;" glyph-name="middot" horiz-adv-x="590" d="M149 879H441V587H149V879Z" />
<glyph unicode="&#xb8;" glyph-name="cedilla" horiz-adv-x="1101" d="M618 -361Q650 -361 663 -350T677 -324Q677 -303 648 -290T534 -251Q498 -240 477 -234L439 -223L516 63H727L684 -107Q859 -164 859 -314Q859 -401 792 -469T614 -538Q596 -538 575 -536T540
-531T498 -521T460 -511T415 -498T374 -485L335 -474L384 -304L424 -316Q572 -361 618 -361Z" />
<glyph unicode="&#xb9;" glyph-name="uni00B9" horiz-adv-x="543" d="M248 1536H368V735H205V1370L67 1331L30 1477L248 1536Z" />
<glyph unicode="&#xba;" glyph-name="ordmasculine" horiz-adv-x="762" d="M380 1391Q350 1391 323 1382T268 1348T223 1273T206 1149Q206 1066 223 1009T268 925T324 888T382 877Q406 877 427 882T473 905T515 950T544 1027T556 1142Q556 1219 539 1272T494 1349T438
1382T380 1391ZM720 1145Q720 953 624 840T380 727Q327 727 280 739T189 782T112 860T61 980T42 1146Q42 1243 71 1320T148 1446T257 1519T382 1544Q427 1544 469 1535T559 1499T640 1430T697 1314T720 1145Z" />
<glyph unicode="&#xbb;" glyph-name="guillemotright" horiz-adv-x="1078" d="M10 1029H298L582 623L298 217H10L315 623L10 1029ZM481 1029H769L1053 623L769 217H481L786 623L481 1029Z" />
<glyph unicode="&#xbc;" glyph-name="onequarter" horiz-adv-x="1800" d="M1166 1446H1398L549 -25H316L1166 1446ZM338 1446H478V593H295V1258L162 1221L120 1387L338 1446ZM1378 861H1573V330H1680V170H1573V-25H1390V170H1000V292L1378 861ZM1390 601L1219
330H1390V601Z" />
<glyph unicode="&#xbd;" glyph-name="onehalf" horiz-adv-x="1897" d="M1166 1446H1398L549 -25H316L1166 1446ZM338 1446H478V583H295V1258L162 1221L120 1387L338 1446ZM1181 76Q1205 154 1245 223T1327 340T1413 431T1491 502T1546 558T1568 608Q1568 643 1530
673T1434 703Q1372 703 1239 650L1216 641L1156 785L1177 796Q1326 867 1452 867Q1577 867 1662 800T1748 624Q1748 566 1723 516T1655 424T1568 343T1475 250T1398 141H1762V-25H1181V76Z" />
<glyph unicode="&#xbe;" glyph-name="threequarters" horiz-adv-x="1950" d="M1326 1446H1558L709 -25H476L1326 1446ZM1528 861H1723V330H1830V170H1723V-25H1540V170H1150V292L1528 861ZM1540 601L1369 330H1540V601ZM452 1475Q569 1475 648 1411T728 1248Q728
1147 656 1078Q763 1013 763 882Q763 746 664 661T416 576Q312 576 185 627L163 636L215 786L238 780Q363 746 420 746Q488 746 536 778T585 862Q585 920 532 948T361 977H336V1140H361Q411 1140 451 1147T521 1176T552 1233Q552 1261 524 1284T440 1307Q370 1307
264 1258L240 1247L177 1397L198 1407Q336 1475 452 1475Z" />
<glyph unicode="&#xbf;" glyph-name="questiondown" horiz-adv-x="1047" d="M313 1029H565V988Q565 892 586 818T640 699T714 617T795 547T869 476T924 379T945 241Q945 152 902 71T791 -64T645 -150T491 -182Q384 -182 297 -160T110 -90L75 -73L158 122L195 107Q357
41 465 41Q577 41 637 95T698 225Q698 272 677 309T622 375T547 435T464 512T389 617T334 771T313 988V1029ZM298 1462H580V1179H298V1462Z" />
<glyph unicode="&#xc0;" glyph-name="Agrave" horiz-adv-x="1547" d="M693 1421H969L1531 0H1272L1113 372H533L374 0H130L693 1421ZM1025 603L823 1130L620 603H1025ZM589 1945L1221 1592L1108 1414L467 1750L589 1945Z" />
<glyph unicode="&#xc1;" glyph-name="Aacute" horiz-adv-x="1547" d="M693 1421H969L1531 0H1272L1113 372H533L374 0H130L693 1421ZM1025 603L823 1130L620 603H1025ZM1070 1945L1193 1750L551 1414L439 1592L1070 1945Z" />
<glyph unicode="&#xc2;" glyph-name="Acircumflex" horiz-adv-x="1547" d="M693 1421H969L1531 0H1272L1113 372H533L374 0H130L693 1421ZM1025 603L823 1130L620 603H1025ZM854 1943L1197 1595L1030 1450L838 1644L642 1453L477 1586L854 1943Z" />
<glyph unicode="&#xc3;" glyph-name="Atilde" horiz-adv-x="1547" d="M1100 1884L1305 1854L1296 1812Q1294 1804 1291 1786Q1284 1751 1280 1732T1266 1677T1244 1620T1213 1571T1169 1529T1110 1503T1033 1492Q964 1495 902 1524T803 1586T734 1646T683 1674Q650
1674 630 1591Q628 1582 616 1525L608 1487L400 1513L409 1556Q411 1564 416 1592T425 1633T436 1674T451 1718T470 1758T495 1796T526 1828T566 1854T616 1869T676 1876Q732 1874 783 1855T870 1809T935 1757T988 1713T1026 1695Q1032 1695 1037 1697T1048 1705T1056
1716T1063 1732T1069 1750T1075 1771T1080 1794T1085 1819T1091 1845L1100 1884ZM1025 603L823 1130L620 603H1025ZM693 1421H969L1531 0H1272L1113 372H533L374 0H130L693 1421Z" />
<glyph unicode="&#xc4;" glyph-name="Adieresis" horiz-adv-x="1547" d="M693 1421H969L1531 0H1272L1113 372H533L374 0H130L693 1421ZM1025 603L823 1130L620 603H1025ZM439 1897H733V1630H439V1897ZM932 1897H1226V1630H932V1897Z" />
<glyph unicode="&#xc5;" glyph-name="Aring" horiz-adv-x="1547" d="M696 1873T833 1873T1070 1787T1170 1577Q1170 1501 1126 1437T1008 1335L1531 0H1272L1113 372H533L374 0H130L655 1337Q583 1375 541 1438T498 1577Q498 1700 597 1786ZM835 1687Q780 1687
744 1655T708 1577T743 1499T835 1465Q887 1465 922 1498T957 1577Q957 1621 923 1654T835 1687ZM1025 603L823 1130L620 603H1025Z" />
<glyph unicode="&#xc6;" glyph-name="AE" horiz-adv-x="2079" d="M905 1189L647 603H1027V1189H905ZM740 1421H1938V1189H1295V848H1883V616H1295V232H1938V0H1027V373H551L380 0H130L740 1421Z" />
<glyph unicode="&#xc7;" glyph-name="Ccedilla" horiz-adv-x="1615" d="M983 -317Q1005 -317 1019 -311T1037 -299T1041 -286Q1041 -267 999 -251T851 -208Q827 -202 814 -199L771 -188L831 9Q565 73 420 263T275 710Q275 863 331 995T490 1224T747 1376T1087
1431Q1309 1431 1510 1352L1547 1337L1468 1121L1430 1134Q1237 1199 1082 1199Q959 1199 855 1159T681 1050T574 894T535 710Q535 611 576 522T691 365T877 258T1122 218Q1284 218 1448 276L1485 289L1567 89L1530 73Q1319 -18 1079 -20L1067 -66Q1099 -76 1126
-89T1186 -127T1237 -189T1256 -275Q1256 -368 1178 -437T977 -506Q932 -506 888 -498T701 -451L658 -440L717 -257L760 -269Q933 -317 983 -317Z" />
<glyph unicode="&#xc8;" glyph-name="Egrave" horiz-adv-x="1447" d="M290 1421H1287V1189H543V848H1232V616H543V232H1287V0H290V1421ZM506 1965L1162 1612L1058 1434L393 1770L506 1965Z" />
<glyph unicode="&#xc9;" glyph-name="Eacute" horiz-adv-x="1447" d="M290 1421H1287V1189H543V848H1232V616H543V232H1287V0H290V1421ZM1090 1965L1201 1770L536 1434L434 1612L1090 1965Z" />
<glyph unicode="&#xca;" glyph-name="Ecircumflex" horiz-adv-x="1447" d="M290 1421H1287V1189H543V848H1232V616H543V232H1287V0H290V1421ZM806 1951L1156 1602L995 1458L788 1652L576 1461L420 1594L806 1951Z" />
<glyph unicode="&#xcb;" glyph-name="Edieresis" horiz-adv-x="1447" d="M290 1421H1287V1189H543V848H1232V616H543V232H1287V0H290V1421ZM390 1898H680V1631H390V1898ZM897 1898H1187V1631H897V1898Z" />
<glyph unicode="&#xcc;" glyph-name="Igrave" horiz-adv-x="812" d="M335 1421H587V0H335V1421ZM249 1943L823 1590L719 1414L136 1748L249 1943Z" />
<glyph unicode="&#xcd;" glyph-name="Iacute" horiz-adv-x="894" d="M416 1421H668V0H416V1421ZM783 1946L894 1751L229 1414L127 1593L783 1946Z" />
<glyph unicode="&#xce;" glyph-name="Icircumflex" horiz-adv-x="812" d="M338 1421H590V0H338V1421ZM482 1943L794 1594L640 1450L467 1644L290 1453L140 1586L482 1943Z" />
<glyph unicode="&#xcf;" glyph-name="Idieresis" horiz-adv-x="752" d="M290 1421H542V0H290V1421ZM88 1824H355V1557H88V1824ZM477 1824H744V1557H477V1824Z" />
<glyph unicode="&#xd0;" glyph-name="Eth" horiz-adv-x="1769" d="M335 1421H811Q856 1421 898 1419T1005 1410T1128 1389T1253 1351T1376 1293T1484 1208T1574 1093T1633 943T1655 752Q1655 0 747 0H335V617H117V849H335V1421ZM824 1189H587V849H848V617H587V232H753Q818
232 869 235T991 249T1115 279T1225 336T1317 423T1377 548T1401 719Q1401 784 1387 844T1333 969T1231 1081T1064 1158T824 1189Z" />
<glyph unicode="&#xd1;" glyph-name="Ntilde" horiz-adv-x="1823" d="M1230 1884L1435 1854L1426 1812Q1424 1804 1421 1786Q1414 1751 1410 1732T1396 1677T1374 1620T1343 1571T1299 1529T1240 1503T1163 1492Q1094 1495 1032 1524T933 1586T864 1646T813 1674Q780
1674 760 1591Q758 1582 746 1525L738 1487L530 1513L539 1556Q541 1564 546 1592T555 1633T566 1674T581 1718T600 1758T625 1796T656 1828T696 1854T746 1869T806 1876Q862 1874 913 1855T1000 1809T1065 1757T1118 1713T1156 1695Q1162 1695 1167 1697T1178
1705T1186 1716T1193 1732T1199 1750T1205 1771T1210 1794T1215 1819T1221 1845L1230 1884ZM290 1421H568L1361 329V1421H1613V0H1332L542 1094V0H290V1421Z" />
<glyph unicode="&#xd2;" glyph-name="Ograve" horiz-adv-x="1850" d="M966 1436Q1183 1436 1352 1351T1618 1104T1715 726Q1715 508 1620 340T1353 78T958 -15Q811 -15 679 30T443 163T277 391T215 707Q215 926 311 1092T577 1347T966 1436ZM1457 709Q1457 835
1412 933T1293 1089T1133 1176T953 1205Q883 1205 816 1188T687 1133T577 1041T502 905T473 727Q473 496 616 356T973 216Q1062 216 1145 245T1300 331T1414 486T1457 709ZM790 1948L1415 1595L1302 1417L668 1753L790 1948Z" />
<glyph unicode="&#xd3;" glyph-name="Oacute" horiz-adv-x="1850" d="M966 1436Q1183 1436 1352 1351T1618 1104T1715 726Q1715 508 1620 340T1353 78T958 -15Q811 -15 679 30T443 163T277 391T215 707Q215 926 311 1092T577 1347T966 1436ZM1457 709Q1457 835
1412 933T1293 1089T1133 1176T953 1205Q883 1205 816 1188T687 1133T577 1041T502 905T473 727Q473 496 616 356T973 216Q1062 216 1145 245T1300 331T1414 486T1457 709ZM1225 1946L1346 1751L711 1414L600 1593L1225 1946Z" />
<glyph unicode="&#xd4;" glyph-name="Ocircumflex" horiz-adv-x="1850" d="M966 1436Q1183 1436 1352 1351T1618 1104T1715 726Q1715 508 1620 340T1353 78T958 -15Q811 -15 679 30T443 163T277 391T215 707Q215 926 311 1092T577 1347T966 1436ZM1457 709Q1457
835 1412 933T1293 1089T1133 1176T953 1205Q883 1205 816 1188T687 1133T577 1041T502 905T473 727Q473 496 616 356T973 216Q1062 216 1145 245T1300 331T1414 486T1457 709ZM998 1943L1337 1595L1171 1450L982 1644L788 1453L625 1586L998 1943Z" />
<glyph unicode="&#xd5;" glyph-name="Otilde" horiz-adv-x="1850" d="M1242 1884L1447 1854L1438 1812Q1436 1804 1433 1786Q1426 1751 1422 1732T1408 1677T1386 1620T1355 1571T1311 1529T1252 1503T1175 1492Q1106 1495 1044 1524T945 1586T876 1646T825 1674Q792
1674 772 1591Q770 1582 758 1525L750 1487L542 1513L551 1556Q553 1564 558 1592T567 1633T578 1674T593 1718T612 1758T637 1796T668 1828T708 1854T758 1869T818 1876Q874 1874 925 1855T1012 1809T1077 1757T1130 1713T1168 1695Q1174 1695 1179 1697T1190
1705T1198 1716T1205 1732T1211 1750T1217 1771T1222 1794T1227 1819T1233 1845L1242 1884ZM1457 709Q1457 810 1428 894T1349 1035T1234 1131T1098 1187T953 1205Q883 1205 816 1188T687 1133T577 1041T502 905T473 727Q473 496 616 356T973 216Q1062 216 1145
245T1300 331T1414 486T1457 709ZM966 1436Q1183 1436 1352 1351T1618 1104T1715 726Q1715 508 1620 340T1353 78T958 -15Q811 -15 679 30T443 163T277 391T215 707Q215 926 311 1092T577 1347T966 1436Z" />
<glyph unicode="&#xd6;" glyph-name="Odieresis" horiz-adv-x="1850" d="M966 1436Q1183 1436 1352 1351T1618 1104T1715 726Q1715 508 1620 340T1353 78T958 -15Q811 -15 679 30T443 163T277 391T215 707Q215 926 311 1092T577 1347T966 1436ZM1457 709Q1457
835 1412 933T1293 1089T1133 1176T953 1205Q883 1205 816 1188T687 1133T577 1041T502 905T473 727Q473 496 616 356T973 216Q1062 216 1145 245T1300 331T1414 486T1457 709ZM586 1898H877V1631H586V1898ZM1075 1898H1366V1631H1075V1898Z" />
<glyph unicode="&#xd7;" glyph-name="multiply" horiz-adv-x="1463" d="M346 165L182 328L553 654L190 971L353 1134L756 802L1150 1128L1313 964L944 639L1306 321L1143 158L740 490L346 165Z" />
<glyph unicode="&#xd8;" glyph-name="Oslash" horiz-adv-x="1920" d="M976 1205Q904 1205 836 1188T706 1133T596 1040T521 905T493 727Q493 577 557 461L1309 1093Q1169 1205 976 1205ZM1696 1417L1804 1289L1619 1134Q1735 962 1735 726Q1735 508 1640 340T1373
78T978 -15Q831 -15 698 30T463 163L267 -1L159 128L352 289Q235 464 235 707Q235 926 331 1092T597 1347T986 1436Q1303 1436 1508 1259L1696 1417ZM1417 964L663 331Q800 216 993 216Q1082 216 1165 245T1320 331T1434 486T1477 709Q1477 855 1417 964Z" />
<glyph unicode="&#xd9;" glyph-name="Ugrave" horiz-adv-x="1744" d="M290 1421H542V520Q542 469 549 428T581 345T644 274T751 227T912 209Q1019 209 1094 232T1208 299T1265 397T1282 520V1421H1534V495Q1534 461 1533 438T1526 372T1510 296T1477 221T1424
146T1345 82T1236 28T1090 -6T904 -20Q806 -20 723 -7T581 28T475 82T398 146T346 221T314 296T298 372T291 439T290 495V1421ZM664 1973L1307 1620L1193 1444L538 1778L664 1973Z" />
<glyph unicode="&#xda;" glyph-name="Uacute" horiz-adv-x="1744" d="M290 1421H542V520Q542 469 549 428T581 345T644 274T751 227T912 209Q1019 209 1094 232T1208 299T1265 397T1282 520V1421H1534V495Q1534 461 1533 438T1526 372T1510 296T1477 221T1424
146T1345 82T1236 28T1090 -6T904 -20Q806 -20 723 -7T581 28T475 82T398 146T346 221T314 296T298 372T291 439T290 495V1421ZM1192 1976L1313 1781L661 1444L546 1623L1192 1976Z" />
<glyph unicode="&#xdb;" glyph-name="Ucircumflex" horiz-adv-x="1744" d="M290 1421H542V520Q542 469 549 428T581 345T644 274T751 227T912 209Q1019 209 1094 232T1208 299T1265 397T1282 520V1421H1534V495Q1534 461 1533 438T1526 372T1510 296T1477 221T1424
146T1345 82T1236 28T1090 -6T904 -20Q806 -20 723 -7T581 28T475 82T398 146T346 221T314 296T298 372T291 439T290 495V1421ZM929 1943L1280 1594L1107 1450L912 1644L713 1453L544 1586L929 1943Z" />
<glyph unicode="&#xdc;" glyph-name="Udieresis" horiz-adv-x="1744" d="M290 1421H542V520Q542 469 549 428T581 345T644 274T751 227T912 209Q1019 209 1094 232T1208 299T1265 397T1282 520V1421H1534V495Q1534 461 1533 438T1526 372T1510 296T1477 221T1424
146T1345 82T1236 28T1090 -6T904 -20Q806 -20 723 -7T581 28T475 82T398 146T346 221T314 296T298 372T291 439T290 495V1421ZM513 1898H810V1631H513V1898ZM1014 1898H1311V1631H1014V1898Z" />
<glyph unicode="&#xdd;" glyph-name="Yacute" horiz-adv-x="1427" d="M100 1421H398L778 870L1166 1421H1454L909 664V0H626V664L100 1421ZM1027 1976L1151 1781L499 1444L386 1623L1027 1976Z" />
<glyph unicode="&#xde;" glyph-name="Thorn" horiz-adv-x="1490" d="M751 967Q639 967 542 960V521Q646 515 720 515H752Q820 515 868 518T973 536T1063 574T1121 644T1144 752Q1144 807 1122 847T1066 909T977 945T872 963T751 967ZM290 1421H542V1160Q672 1169
805 1169Q912 1169 997 1159T1159 1121T1288 1050T1370 936T1400 773Q1400 707 1385 643T1336 513T1236 394T1076 317Q944 285 684 285Q612 285 542 288V0H290V1421Z" />
<glyph unicode="&#xdf;" glyph-name="germandbls" horiz-adv-x="1422" d="M664 1430Q770 1430 857 1396T996 1306T1076 1187T1104 1060Q1104 1005 1083 959T1028 882T958 824T887 778T833 738T811 698Q811 673 838 655T908 622T1004 593T1108 553T1204 496T1275
407T1302 279Q1302 240 1292 201T1253 120T1182 47T1069 -5T910 -26Q738 -26 545 23L500 34L560 226L603 218Q776 188 871 188Q970 188 1008 213T1046 289Q1046 326 1018 352T943 394T842 426T732 461T631 509T557 585T528 698Q528 759 559 807T635 886T724 941T800
994T832 1050Q832 1115 773 1158T644 1201Q626 1201 606 1198T556 1182T503 1146T463 1081T446 981V0H200V982Q200 1075 226 1151T296 1278T400 1364T526 1414T664 1430Z" />
<glyph unicode="&#xe0;" glyph-name="agrave" horiz-adv-x="1233" d="M589 1006Q700 1006 783 987T917 935T999 854T1041 756T1053 644V0H869L841 65Q707 -20 528 -20Q350 -20 237 67T123 273Q123 347 159 402T255 490T406 543T591 572T806 581V616Q806 645 803
666T785 712T746 752T672 778T557 789Q435 789 269 745L229 734L178 931L213 943Q382 1006 589 1006ZM806 255V396H781Q572 396 471 372T369 291Q369 254 430 223T582 191Q709 191 806 255ZM508 1557L988 1179L858 1016L336 1384L508 1557Z" />
<glyph unicode="&#xe1;" glyph-name="aacute" horiz-adv-x="1233" d="M802 1567L949 1394L441 1026L297 1189L802 1567ZM806 255V396H781Q572 396 471 372T369 291Q369 254 430 223T582 191Q709 191 806 255ZM589 1006Q700 1006 783 987T917 935T999 854T1041
756T1053 644V0H869L841 65Q707 -20 528 -20Q350 -20 237 67T123 273Q123 347 159 402T255 490T406 543T591 572T806 581V616Q806 645 803 666T785 712T746 752T672 778T557 789Q435 789 269 745L229 734L178 931L213 943Q382 1006 589 1006Z" />
<glyph unicode="&#xe2;" glyph-name="acircumflex" horiz-adv-x="1233" d="M636 1509L980 1161L828 1016L619 1210L399 1019L244 1152L636 1509ZM806 255V396H781Q572 396 471 372T369 291Q369 254 430 223T582 191Q709 191 806 255ZM589 1006Q700 1006 783 987T917
935T999 854T1041 756T1053 644V0H869L841 65Q707 -20 528 -20Q350 -20 237 67T123 273Q123 347 159 402T255 490T406 543T591 572T806 581V616Q806 645 803 666T785 712T746 752T672 778T557 789Q435 789 269 745L229 734L178 931L213 943Q382 1006 589 1006Z"
/>
<glyph unicode="&#xe3;" glyph-name="atilde" horiz-adv-x="1233" d="M892 1450L1082 1420L1056 1293Q1012 1058 830 1058Q768 1060 711 1079T615 1125T545 1177T488 1221T445 1239Q404 1239 385 1146Q384 1143 384 1141L364 1053L174 1079L200 1207Q219 1296
250 1344Q313 1442 437 1442Q512 1439 581 1410T690 1348T767 1288T822 1260Q832 1260 840 1266T853 1282T862 1305T869 1327T873 1347T875 1359L892 1450ZM800 255V396H775Q569 396 469 372T369 291Q369 254 429 223T579 191Q705 191 800 255ZM586 1006Q697 1006
781 987T916 935T998 854T1041 756T1053 644V0H869L841 65Q696 -20 526 -20Q350 -20 237 67T123 273Q123 335 147 383T218 464T324 520T462 555T622 574T800 581V616Q800 640 798 657T788 697T763 734T721 762T653 782T555 789Q435 789 269 745L229 734L178 931L213
943Q382 1006 586 1006Z" />
<glyph unicode="&#xe4;" glyph-name="adieresis" horiz-adv-x="1233" d="M785 1421H1057V1153H785V1421ZM259 1421H562V1153H259V1421ZM805 255V396H780Q571 396 470 372T369 291Q369 254 430 223T581 191Q708 191 805 255ZM589 1006Q700 1006 783 987T917 935T999
854T1041 756T1053 644V0H869L841 65Q705 -20 527 -20T236 67T123 273Q123 335 147 383T218 464T324 520T464 555T625 574T805 581V616Q805 646 802 666T784 712T745 752T672 778T557 789Q435 789 269 745L229 734L178 931L213 943Q382 1006 589 1006Z" />
<glyph unicode="&#xe5;" glyph-name="aring" horiz-adv-x="1233" d="M643 1400Q596 1400 565 1373T534 1308T564 1243T643 1215Q687 1215 718 1243T749 1308T718 1372T643 1400ZM642 1573Q770 1573 852 1497T934 1308Q934 1196 853 1119T643 1042Q512 1042 422
1119T331 1308Q331 1418 421 1495T642 1573ZM806 255V396H781Q572 396 471 372T369 291Q369 254 430 223T582 191Q709 191 806 255ZM589 1006Q700 1006 783 987T917 935T999 854T1041 756T1053 644V0H869L841 65Q707 -20 528 -20Q350 -20 237 67T123 273Q123 347
159 402T255 490T406 543T591 572T806 581V616Q806 645 803 666T785 712T746 752T672 778T557 789Q435 789 269 745L229 734L178 931L213 943Q382 1006 589 1006Z" />
<glyph unicode="&#xe6;" glyph-name="ae" horiz-adv-x="1838" d="M368 315Q368 268 426 231T561 193Q671 193 753 265V436Q651 435 578 427T465 408T403 381T374 350T368 315ZM1272 782Q1172 782 1108 731T1031 601H1467Q1464 636 1453 665T1421 722T1362 766T1272
782ZM213 946Q388 1006 578 1006Q815 1006 926 860Q1001 928 1098 967T1302 1006Q1388 1006 1455 982T1565 914T1637 818T1681 697T1701 568T1707 436V395H1023Q1041 308 1136 251T1369 194Q1458 194 1570 228L1612 241L1657 51L1623 39Q1462 -20 1301 -20Q1055
-20 904 111Q767 -20 526 -20Q363 -20 243 66T123 283Q123 404 228 486T532 586Q607 593 753 595V604Q753 644 743 677T709 740T640 787T532 804Q436 804 279 765L242 755L175 933L213 946Z" />
<glyph unicode="&#xe7;" glyph-name="ccedilla" horiz-adv-x="1165" d="M681 -321Q714 -320 733 -310T752 -284Q752 -263 718 -250T589 -213Q541 -201 514 -194L469 -183L524 -11Q440 5 372 38T248 126T161 267T130 466Q130 582 163 675T253 827T386 926T544 982T717
999Q882 999 1025 937L1060 922L995 727L956 740Q853 776 741 776Q684 776 636 769T540 742T459 692T406 612T386 497Q386 190 762 190Q857 190 944 221L983 234L1050 45L1013 31Q893 -15 772 -24L759 -67Q943 -120 943 -274Q943 -363 873 -430T677 -498Q655 -498
631 -496T589 -491T539 -481T495 -471T442 -458T393 -445L346 -434L404 -264L451 -276Q628 -321 678 -321H681Z" />
<glyph unicode="&#xe8;" glyph-name="egrave" horiz-adv-x="1266" d="M697 1007Q784 1007 853 989T968 942T1046 868T1096 781T1122 681T1134 583T1136 488V376H380Q402 302 502 248T767 193Q883 193 1000 227L1041 239L1090 49L1054 37Q887 -20 694 -20Q564 -20
463 9T301 84T200 195T145 325T130 464Q130 601 176 707T302 878T482 974T697 1007ZM656 783Q538 783 467 725T382 582H894Q886 691 825 737T656 783ZM520 1567L1003 1189L870 1026L351 1394L520 1567Z" />
<glyph unicode="&#xe9;" glyph-name="eacute" horiz-adv-x="1266" d="M697 1007Q784 1007 853 989T968 942T1046 868T1096 781T1122 681T1134 583T1136 488V376H380Q402 302 502 248T767 193Q883 193 1000 227L1041 239L1090 49L1054 37Q887 -20 694 -20Q564 -20
463 9T301 84T200 195T145 325T130 464Q130 601 176 707T302 878T482 974T697 1007ZM656 783Q538 783 467 725T382 582H894Q886 691 825 737T656 783ZM903 1567L1049 1394L556 1026L401 1189L903 1567Z" />
<glyph unicode="&#xea;" glyph-name="ecircumflex" horiz-adv-x="1266" d="M697 1007Q784 1007 853 989T968 942T1046 868T1096 781T1122 681T1134 583T1136 488V376H380Q402 302 502 248T767 193Q883 193 1000 227L1041 239L1090 49L1054 37Q887 -20 694 -20Q564
-20 463 9T301 84T200 195T145 325T130 464Q130 601 176 707T302 878T482 974T697 1007ZM656 783Q538 783 467 725T382 582H894Q886 691 825 737T656 783ZM729 1509L1067 1161L915 1016L712 1210L501 1019L331 1152L729 1509Z" />
<glyph unicode="&#xeb;" glyph-name="edieresis" horiz-adv-x="1266" d="M697 1007Q784 1007 853 989T968 942T1046 868T1096 781T1122 681T1134 583T1136 488V376H382Q403 302 503 248T767 193Q883 193 1000 227L1041 239L1090 49L1054 37Q887 -20 694 -20Q564
-20 463 9T301 84T200 195T145 325T130 464Q130 601 176 707T302 878T482 974T697 1007ZM656 783Q537 783 465 725T380 582H894Q886 691 825 737T656 783ZM295 1421H597V1153H295V1421ZM814 1421H1093V1153H814V1421Z" />
<glyph unicode="&#xec;" glyph-name="igrave" horiz-adv-x="606" d="M197 988H443V0H197V988ZM146 1567L570 1189L440 1026L0 1394L146 1567Z" />
<glyph unicode="&#xed;" glyph-name="iacute" horiz-adv-x="606" d="M195 988H441V0H195V988ZM536 1567L682 1394L242 1026L112 1189L536 1567Z" />
<glyph unicode="&#xee;" glyph-name="icircumflex" horiz-adv-x="612" d="M196 988H442V0H196V988ZM326 1514L607 1159L454 1014L311 1195L166 1017L17 1150L326 1514Z" />
<glyph unicode="&#xef;" glyph-name="idieresis" horiz-adv-x="606" d="M180 988H426V0H180V988ZM-15 1421H252V1154H-15V1421ZM354 1421H621V1154H354V1421Z" />
<glyph unicode="&#xf0;" glyph-name="eth" horiz-adv-x="1416" d="M371 522Q371 382 464 289T688 196Q730 196 771 207T858 247T938 336T986 482Q996 555 996 670V709Q808 807 669 807Q540 807 456 728T371 522ZM594 1457Q775 1414 925 1321L1128 1433L1224 1267L1080
1184Q1168 1082 1202 960T1236 680Q1236 598 1231 530T1209 388T1167 256T1098 145T996 57T855 1T670 -20Q422 -20 276 102T130 435Q130 540 165 633T266 797T429 909T645 951Q793 951 968 883Q934 982 844 1061L628 953L519 1119L656 1188Q586 1222 495 1250L444
1265L556 1466L594 1457Z" />
<glyph unicode="&#xf1;" glyph-name="ntilde" horiz-adv-x="1341" d="M977 1455L1167 1425L1141 1298Q1095 1062 916 1062Q854 1064 798 1083T704 1129T634 1181T577 1225T535 1243Q495 1243 474 1146L453 1057L259 1085L285 1212Q305 1308 343 1359Q408 1446
527 1446Q588 1444 644 1425T739 1379T809 1327T866 1283T906 1265Q917 1265 926 1273T941 1295T950 1320T956 1347T960 1364L977 1455ZM180 988H363L392 920Q596 1008 779 1008Q876 1008 947 982T1058 917T1123 819T1154 705T1161 583V0H914V580Q914 599 913 613T907
649T894 687T870 722T830 751T773 770T694 778Q574 778 426 723V0H180V988Z" />
<glyph unicode="&#xf2;" glyph-name="ograve" horiz-adv-x="1375" d="M595 1567L1072 1189L933 1026L427 1394L595 1567ZM678 785Q601 785 533 756T419 662T372 509Q372 379 462 291T696 202Q827 202 915 279T1003 483Q1003 556 974 615T898 711T794 766T678 785ZM694
1007Q942 1007 1093 877T1245 512Q1245 266 1091 123T675 -20Q427 -20 279 114T130 484Q130 725 281 866T694 1007Z" />
<glyph unicode="&#xf3;" glyph-name="oacute" horiz-adv-x="1375" d="M694 1007Q942 1007 1093 877T1245 512Q1245 266 1091 123T675 -20Q427 -20 279 114T130 484Q130 725 281 866T694 1007ZM678 785Q601 785 533 756T419 662T372 509Q372 379 462 291T696 202Q827
202 915 279T1003 483Q1003 556 974 615T898 711T794 766T678 785ZM808 1567L976 1394L470 1026L327 1189L808 1567Z" />
<glyph unicode="&#xf4;" glyph-name="ocircumflex" horiz-adv-x="1375" d="M694 1007Q942 1007 1093 877T1245 512Q1245 266 1091 123T675 -20Q427 -20 279 114T130 484Q130 725 281 866T694 1007ZM678 785Q601 785 533 756T419 662T372 509Q372 379 462 291T696
202Q827 202 915 279T1003 483Q1003 556 974 615T898 711T794 766T678 785ZM710 1509L1060 1161L895 1016L694 1210L489 1019L324 1152L710 1509Z" />
<glyph unicode="&#xf5;" glyph-name="otilde" horiz-adv-x="1375" d="M957 1454L1147 1424L1121 1297Q1077 1062 895 1062Q833 1064 776 1083T680 1129T610 1181T553 1225T510 1243Q469 1243 450 1150Q449 1147 449 1145L429 1057L239 1083L265 1211Q284 1300
315 1348Q378 1446 502 1446Q577 1443 646 1414T755 1352T832 1292T887 1264Q897 1264 905 1270T918 1286T927 1309T934 1331T938 1351T940 1363L957 1454ZM678 785Q601 785 533 756T419 662T372 509Q372 379 462 291T696 202Q827 202 915 279T1003 483Q1003 556
974 615T898 711T794 766T678 785ZM694 1007Q942 1007 1093 877T1245 512Q1245 266 1091 123T675 -20Q427 -20 279 114T130 484Q130 725 281 866T694 1007Z" />
<glyph unicode="&#xf6;" glyph-name="odieresis" horiz-adv-x="1375" d="M694 1007Q942 1007 1093 877T1245 512Q1245 266 1091 123T675 -20Q427 -20 279 114T130 484Q130 725 281 866T694 1007ZM678 785Q601 785 533 756T419 662T372 509Q372 379 462 291T696
202Q827 202 915 279T1003 483Q1003 556 974 615T898 711T794 766T678 785ZM319 1421H618V1153H319V1421ZM827 1421H1117V1153H827V1421Z" />
<glyph unicode="&#xf7;" glyph-name="divide" horiz-adv-x="1564" d="M628 1233H935V956H628V1233ZM628 360H935V83H628V360ZM125 768H1439V547H125V768Z" />
<glyph unicode="&#xf8;" glyph-name="oslash" horiz-adv-x="1375" d="M1184 1020L1291 901L1168 790Q1245 672 1245 512Q1245 266 1091 123T675 -20Q488 -20 355 58L230 -55L122 64L233 163Q130 291 130 484Q130 725 281 866T694 1007Q914 1007 1057 905L1184
1020ZM678 785Q601 785 533 756T419 662T372 509Q372 411 424 336L866 733Q783 785 678 785ZM974 615L548 232Q616 202 696 202Q827 202 915 279T1003 483Q1003 554 974 615Z" />
<glyph unicode="&#xf9;" glyph-name="ugrave" horiz-adv-x="1341" d="M915 988H1161V0H978L949 67Q748 -20 562 -20Q465 -20 394 5T283 70T218 169T187 282T180 404V988H426V406Q426 380 428 360T443 310T477 259T543 224T647 209Q767 209 915 264V988ZM532 1567L1020
1189L885 1026L368 1394L532 1567Z" />
<glyph unicode="&#xfa;" glyph-name="uacute" horiz-adv-x="1341" d="M915 988H1161V0H978L949 67Q748 -20 562 -20Q465 -20 394 5T283 70T218 169T187 282T180 404V988H426V406Q426 380 428 360T443 310T477 259T543 224T647 209Q767 209 915 264V988ZM889 1567L1039
1394L536 1026L387 1189L889 1567Z" />
<glyph unicode="&#xfb;" glyph-name="ucircumflex" horiz-adv-x="1341" d="M915 988H1161V0H978L949 67Q748 -20 562 -20Q465 -20 394 5T283 70T218 169T187 282T180 404V988H426V406Q426 380 428 360T443 310T477 259T543 224T647 209Q767 209 915 264V988ZM699
1509L1047 1161L891 1016L681 1210L468 1019L311 1152L699 1509Z" />
<glyph unicode="&#xfc;" glyph-name="udieresis" horiz-adv-x="1341" d="M915 988H1161V0H978L949 67Q748 -20 562 -20Q465 -20 394 5T283 70T218 169T187 282T180 404V988H426V406Q426 380 428 360T443 310T477 259T543 224T647 209Q767 209 915 264V988ZM276
1421H567V1153H276V1421ZM784 1421H1073V1153H784V1421Z" />
<glyph unicode="&#xfd;" glyph-name="yacute" horiz-adv-x="1214" d="M50 988H309L638 229L943 988H1202L550 -531H254L499 3L50 988ZM908 1567L1058 1394L570 1026L421 1189L908 1567Z" />
<glyph unicode="&#xfe;" glyph-name="thorn" horiz-adv-x="1385" d="M694 780Q568 780 503 709T437 470Q437 431 441 398T462 327T505 262T582 217T699 199Q739 199 779 207T863 237T938 289T992 370T1013 482Q1013 554 985 612T909 706T807 761T694 780ZM726
1003Q878 1003 997 945T1185 774T1255 509Q1255 357 1189 236T999 46T716 -23Q572 -23 448 43V-531H190V1421H448V933Q568 1003 726 1003Z" />
<glyph unicode="&#xff;" glyph-name="ydieresis" horiz-adv-x="1214" d="M50 988H309L638 229L943 988H1202L550 -531H254L499 3L50 988ZM240 1421H537V1153H240V1421ZM746 1421H1038V1153H746V1421Z" />
<glyph unicode="&#x2013;" glyph-name="endash" horiz-adv-x="1241" d="M0 769H1241V548H0V769Z" />
<glyph unicode="&#x2014;" glyph-name="emdash" horiz-adv-x="1466" d="M0 769H1466V548H0V769Z" />
<glyph unicode="&#x2018;" glyph-name="quoteleft" horiz-adv-x="450" d="M35 1552H316L465 1037H184L35 1552Z" />
<glyph unicode="&#x2019;" glyph-name="quoteright" horiz-adv-x="450" d="M134 1552H415L266 1037H-15L134 1552Z" />
<glyph unicode="&#x201a;" glyph-name="quotesinglbase" horiz-adv-x="450" d="M134 258H415L266 -257H-15L134 258Z" />
<glyph unicode="&#x201c;" glyph-name="quotedblleft" horiz-adv-x="830" d="M795 1552L646 1037H365L514 1552H795ZM415 1552L266 1037H-15L134 1552H415Z" />
<glyph unicode="&#x201d;" glyph-name="quotedblright" horiz-adv-x="830" d="M514 1552H795L646 1037H365L514 1552ZM134 1552H415L266 1037H-15L134 1552Z" />
<glyph unicode="&#x201e;" glyph-name="quotedblbase" horiz-adv-x="830" d="M514 255H795L646 -260H365L514 255ZM134 255H415L266 -260H-15L134 255Z" />
<glyph unicode="&#x2022;" glyph-name="bullet" horiz-adv-x="640" d="M149 904H491V562H149V904Z" />
<glyph unicode="&#x2039;" glyph-name="guilsinglleft" horiz-adv-x="607" d="M308 1029H597L292 623L597 217H309L25 623L308 1029Z" />
<glyph unicode="&#x203a;" glyph-name="guilsinglright" horiz-adv-x="607" d="M10 1029H298L582 623L299 217H10L315 623L10 1029Z" />
</font>
</defs>
</svg>
