<?xml version="1.0" standalone="no"?>
<!DOCTYPE svg PUBLIC "-//W3C//DTD SVG 1.1//EN" "http://www.w3.org/Graphics/SVG/1.1/DTD/svg11.dtd">
<svg xmlns="http://www.w3.org/2000/svg">
<defs >
<font id="Poly" horiz-adv-x="445" ><font-face
    font-family="Poly"
    units-per-em="1000"
    panose-1="2 4 5 3 5 4 0 0 0 4"
    ascent="964"
    descent="-224"
    alphabetic="0" />
<glyph unicode=" " glyph-name="space" horiz-adv-x="245" />
<glyph unicode="!" glyph-name="exclam" horiz-adv-x="226" d="M167 703L179 684L127 177L77 179L64 673L167 703ZM155 23T140 7T99 -9T57 5T40 44T55 84T98 99Q155 99 155 46Q155 23 140 7Z" />
<glyph unicode="&quot;" glyph-name="quotedbl" horiz-adv-x="331" d="M125 778L138 759L97 514L54 517L49 753L125 778ZM276 778L289 759L248 514L205 517L200 753L276 778Z" />
<glyph unicode="#" glyph-name="numbersign" horiz-adv-x="551" d="M194 693H252L225 492H357L384 693H442L415 492H515V433H408L388 281H494V222H381L352 0H293L322 222H191L162 0H103L132 222H35V281H140L160 433H56V492H167L194 693ZM218 433L198 281H330L350
433H218Z" />
<glyph unicode="$" glyph-name="dollar" horiz-adv-x="480" d="M414 524Q415 515 415 475T401 385L351 379Q344 471 327 483Q308 495 268 497V321Q392 269 418 216Q431 189 431 156Q431 96 388 52T268 -5V-128H211V-9Q116 -7 57 18Q55 33 55 72T64 176L121 181Q130
104 134 88T147 66Q168 53 211 47V233Q96 281 70 336Q57 361 57 394Q57 453 98 494T211 547V668H268V552Q343 551 414 524ZM211 496Q137 489 137 429Q137 380 211 346V496ZM268 46Q303 49 323 68T344 119Q344 169 268 208V46Z" />
<glyph unicode="%" glyph-name="percent" horiz-adv-x="808" d="M783 117T737 54T613 -9T493 49T449 194T495 344T619 407T739 348T783 203ZM701 269T677 316T612 364Q531 364 531 207Q531 121 555 78T622 34Q701 34 701 184Q701 269 677 316ZM589 693H654L208
0H142L589 693ZM359 412T313 349T189 286T69 344T25 489T71 639T195 702T315 643T359 498ZM277 564T253 611T188 659Q107 659 107 502Q107 416 131 373T198 329Q277 329 277 479Q277 564 253 611Z" />
<glyph unicode="&amp;" glyph-name="ampersand" horiz-adv-x="685" d="M264 649Q175 649 175 567Q175 535 193 503T265 412L473 187Q518 270 518 359Q518 397 500 412T422 434L428 473H656L660 434L598 422Q578 418 578 396Q573 250 512 145L584 68Q609 43 665
39L659 0H515L451 68Q369 -9 249 -9Q151 -9 96 40T40 164Q40 306 178 366Q96 454 96 533T147 657T284 702Q347 702 412 677Q413 669 413 632T400 554L354 549Q347 627 332 638T264 649ZM144 134T180 94T286 54T415 108L215 325Q144 284 144 195Q144 134 180 94Z"
/>
<glyph unicode="&apos;" glyph-name="quotesingle" horiz-adv-x="180" d="M125 778L138 759L97 514L54 517L49 753L125 778Z" />
<glyph unicode="(" glyph-name="parenleft" horiz-adv-x="291" d="M245 -189Q167 -111 105 19T42 292T105 560T245 761L279 733Q211 654 168 535T124 293T167 46T279 -161L245 -189Z" />
<glyph unicode=")" glyph-name="parenright" horiz-adv-x="291" d="M46 -189L12 -161Q81 -80 124 45T167 293T124 534T12 733L46 761Q123 685 186 561T249 293T187 19T46 -189Z" />
<glyph unicode="*" glyph-name="asterisk" horiz-adv-x="391" d="M222 744L231 732L215 618Q211 594 207 588L214 584Q220 596 234 607L319 670L366 630L361 617L255 573Q236 565 225 565V557Q243 557 254 552L351 510L340 449L326 447L235 517Q216 533 213 539L206
535Q215 517 216 506L229 401L170 380L161 391L177 505Q181 529 185 535L178 539Q172 526 157 516L73 453L25 493L30 506L137 549Q156 557 167 557V565Q154 565 137 571L40 612L51 674L65 676L156 605Q175 589 178 583L185 587Q177 603 176 617L163 722L222 744Z"
/>
<glyph unicode="+" glyph-name="plus" horiz-adv-x="466" d="M45 244V297H208V464H258V297H421V244H258V73H208V244H45Z" />
<glyph unicode="," glyph-name="comma" horiz-adv-x="252" d="M91 -137L64 -111Q105 -62 105 -21Q105 2 88 23T70 64T86 99T128 113T171 92T189 31Q189 -59 91 -137Z" />
<glyph unicode="-" glyph-name="hyphen" horiz-adv-x="295" d="M46 277L264 291L248 229L34 203L46 277Z" />
<glyph unicode="." glyph-name="period" horiz-adv-x="252" d="M187 27T170 9T126 -9T82 6T65 49T81 95T125 113Q187 113 187 53Q187 27 170 9Z" />
<glyph unicode="/" glyph-name="slash" horiz-adv-x="391" d="M307 772H376L85 -60H15L307 772Z" />
<glyph unicode="0" glyph-name="zero" horiz-adv-x="534" d="M502 147T439 69T264 -9T92 63T32 265T95 473T270 552T442 479T502 277ZM277 44Q335 44 363 79Q381 102 393 153T405 264Q405 367 368 433T257 499Q199 499 171 464Q153 441 141 390T129 279Q129 176
166 110T277 44Z" />
<glyph unicode="1" glyph-name="one" horiz-adv-x="354" d="M51 0L45 39Q102 48 122 60T142 96V403Q142 453 138 463T114 473T46 468L38 506Q68 519 128 532T221 547L232 537V72Q232 60 237 57T252 51L329 39L325 0H51Z" />
<glyph unicode="2" glyph-name="two" horiz-adv-x="473" d="M30 0V53Q206 196 238 234Q291 296 299 325T307 379Q307 431 277 465T196 499T126 484Q114 474 103 376L49 382Q41 418 41 457T42 506Q100 552 201 552T353 509T404 393T342 245T145 78L147 71L207 73Q336
77 352 80T390 158L436 154Q437 145 437 124Q437 55 421 0H30Z" />
<glyph unicode="3" glyph-name="three" horiz-adv-x="469" d="M55 -138L50 -82Q178 -65 253 -20T329 97Q329 144 294 172T188 200Q161 200 136 196L139 244Q226 258 266 299T306 390T278 469T200 499Q135 499 122 476Q110 457 105 376L52 382Q43 427 43 461T44
506Q114 552 205 552T348 515T401 421T373 325T302 266L303 258Q360 247 397 212T434 117Q434 17 329 -52T55 -138Z" />
<glyph unicode="4" glyph-name="four" horiz-adv-x="534" d="M31 45L8 106L325 534Q381 547 411 547L422 537V103L524 101L515 44H422V-122Q390 -128 343 -128L332 -118V44H32L31 45ZM79 115L83 108L332 104V417Q332 438 334 447L328 450L97 137Q89 125 79 115Z" />
<glyph unicode="5" glyph-name="five" horiz-adv-x="482" d="M55 -138L50 -82Q189 -64 269 -12T350 116Q350 164 314 197T212 231T85 208L63 234L85 537H341Q346 537 349 540Q357 550 368 610L419 603Q415 509 405 456H145L133 277Q183 294 244 294Q343 294 398
252T454 136Q454 31 344 -45T55 -138Z" />
<glyph unicode="6" glyph-name="six" horiz-adv-x="516" d="M370 421T425 363T480 212T419 55T259 -9T102 60T45 246Q45 408 148 526T397 680L417 639Q197 547 154 358L162 355Q213 421 291 421ZM347 68Q385 109 385 188T356 309T283 352Q262 352 229 345T173
323Q140 301 140 254Q140 40 279 40Q321 40 347 68Z" />
<glyph unicode="7" glyph-name="seven" horiz-adv-x="450" d="M103 -121Q119 -22 197 151T371 456L369 463L192 460Q125 458 102 456Q94 455 89 442T71 376L25 381Q23 413 23 456T29 537H440V477Q227 145 208 -134Q197 -137 179 -137Q128 -137 103 -121Z" />
<glyph unicode="8" glyph-name="eight" horiz-adv-x="519" d="M57 495Q57 575 114 626T260 677Q319 677 384 648Q418 632 440 599T462 520Q462 430 384 372Q361 356 347 356V347Q353 347 363 342Q423 311 455 273T487 178Q487 95 423 43T254 -9Q184 -9 116 18Q79
33 56 67T32 149Q32 246 129 311Q156 327 167 327V336Q161 336 151 341Q57 398 57 495ZM198 627T171 593T144 524T155 468T192 428Q233 399 294 373Q378 430 378 511Q378 567 344 597T254 627ZM329 46T361 79T393 149T380 208T339 249Q296 277 232 302Q225 305
222 306Q205 300 175 275Q116 224 116 165T156 76T262 46Z" />
<glyph unicode="9" glyph-name="nine" horiz-adv-x="516" d="M148 125T92 184T36 334T97 488T257 552T413 482T471 295Q471 153 387 25Q345 -39 270 -83T98 -137L91 -92Q207 -65 271 -1T362 180L354 183Q307 125 228 125ZM241 503Q186 503 159 461T131 348T167
235T252 194T342 216Q366 229 371 253Q377 277 377 312Q377 398 344 450T241 503Z" />
<glyph unicode=":" glyph-name="colon" horiz-adv-x="252" d="M187 402T170 384T126 366T82 381T65 424T81 470T125 488Q187 488 187 428Q187 402 170 384ZM187 27T170 9T126 -9T82 6T65 49T81 95T125 113Q187 113 187 53Q187 27 170 9Z" />
<glyph unicode=";" glyph-name="semicolon" horiz-adv-x="252" d="M187 402T170 384T126 366T82 381T65 424T81 470T125 488Q187 488 187 428Q187 402 170 384ZM91 -137L64 -111Q105 -62 105 -21Q105 2 88 23T70 64T86 99T128 113T171 92T189 31Q189 -59 91 -137Z" />
<glyph unicode="&lt;" glyph-name="less" horiz-adv-x="517" d="M26 225V275L490 505V436L104 250L490 65V-4L26 225Z" />
<glyph unicode="=" glyph-name="equal" horiz-adv-x="466" d="M45 173V226H421V173H45ZM45 310V363H421V310H45Z" />
<glyph unicode="&gt;" glyph-name="greater" horiz-adv-x="517" d="M490 275V225L26 -4V65L412 250L26 436V505L490 275Z" />
<glyph unicode="?" glyph-name="question" horiz-adv-x="424" d="M199 204L152 190Q106 254 106 296Q106 346 180 394Q210 414 240 435T291 486T313 558T278 625T195 649T118 633Q110 629 106 614T97 544L43 550Q35 581 35 615T36 660Q65 677 115 689T212 702Q294
702 347 662T400 546Q400 507 385 474T346 420T295 378T244 342Q189 306 189 264Q189 244 199 204ZM237 23T222 7T181 -9T139 5T122 45T137 84T181 99Q237 99 237 48Q237 23 222 7Z" />
<glyph unicode="@" glyph-name="at" horiz-adv-x="795" d="M31 185Q31 363 144 476T435 590Q577 590 670 518T764 309Q764 237 733 155T642 13Q537 2 523 -1Q479 6 479 65Q479 84 484 117L490 159L483 161Q420 2 318 2Q210 2 210 163Q210 288 273 371T429 455Q472
455 529 436L569 446L588 434Q587 425 574 350Q548 191 548 137T554 66T583 50T628 80T662 153Q688 246 688 310Q688 407 616 473T420 540Q341 540 280 511T184 431Q113 332 113 193Q113 -68 374 -68Q410 -68 494 -48Q494 -54 499 -67T505 -88L496 -100Q390 -121
342 -121Q186 -121 109 -39T31 185ZM343 63Q377 63 412 115T470 241T496 378Q444 404 402 404T346 389Q325 363 310 296T295 169Q295 63 343 63Z" />
<glyph unicode="A" glyph-name="A" horiz-adv-x="670" d="M14 0L7 40Q45 50 53 56T70 83L294 702H377L606 67Q611 52 665 42L661 0H428L422 40Q492 54 492 73Q492 81 488 94L444 224H185L134 82Q130 70 130 66T136 60L207 41L203 0H14ZM204 277H427L329 558Q322
579 322 587H312L204 277Z" />
<glyph unicode="B" glyph-name="B" horiz-adv-x="619" d="M50 0L44 39Q97 48 108 59T120 101V592Q120 623 109 634T44 654L50 693H314Q423 693 481 650T539 528Q539 466 506 424T434 369V362Q498 350 541 302T584 186T525 59T342 0H50ZM217 383H273Q355 383 393
418T432 516Q432 640 284 640H217V383ZM217 97Q217 68 232 62Q247 52 293 52Q389 52 431 86T473 184Q473 277 398 312Q361 330 314 330H217V97Z" />
<glyph unicode="C" glyph-name="C" horiz-adv-x="620" d="M35 331Q35 445 82 534Q137 639 247 680Q308 702 374 702T501 692T581 674Q587 637 587 597T585 506L528 498Q506 614 489 626Q480 633 443 641T368 649Q258 649 202 568T146 355Q146 199 217 123T393
47Q431 47 464 56T508 73T541 200L596 198Q596 122 585 36Q554 19 492 5T364 -9Q201 -9 118 87T35 331Z" />
<glyph unicode="D" glyph-name="D" horiz-adv-x="713" d="M50 0L44 39Q97 48 108 59T120 101V592Q120 623 109 634T44 654L50 693H363Q449 693 512 666T610 590Q678 498 678 368Q678 225 602 119Q564 65 497 33T341 0H50ZM217 93Q217 71 238 67Q308 53 344 53Q455
53 511 132T567 343Q567 426 546 487T488 580Q420 640 340 640H217V93Z" />
<glyph unicode="E" glyph-name="E" horiz-adv-x="592" d="M50 0L44 39Q97 48 108 59T120 101V592Q120 623 109 634T44 654L50 693H516Q522 656 522 620T520 537L463 530Q449 599 443 616T429 635Q405 638 368 639L217 642V373H367Q380 373 399 444L430 441Q430
368 432 339T435 304T439 275T444 243L408 237Q392 294 387 307T374 320H217V51L306 52Q419 52 444 64Q447 66 448 66Q465 71 492 184L547 179Q548 162 548 119T537 0H50Z" />
<glyph unicode="F" glyph-name="F" horiz-adv-x="546" d="M50 0L44 39Q97 48 108 59T120 101V592Q120 623 109 634T44 654L50 693H516Q522 656 522 620T520 537L463 530Q449 599 443 616T429 635Q405 638 368 639L217 642V364H371Q396 364 415 435L446 432Q446
359 448 330T451 295T455 266T460 234L424 228Q400 311 378 311H217V77Q217 53 237 51L338 39L334 0H50Z" />
<glyph unicode="G" glyph-name="G" horiz-adv-x="681" d="M587 37Q554 20 492 6T364 -9Q201 -9 118 87T35 331Q35 445 82 534Q137 639 247 680Q308 702 374 702T501 692T581 674Q587 637 587 597T585 506L528 498Q506 614 489 626Q480 633 443 641T368 649Q258
649 202 568T146 355Q146 199 217 123T393 47Q448 47 490 63V202Q490 233 479 244T414 264L420 303H654L658 264L607 252Q587 248 587 226V37Z" />
<glyph unicode="H" glyph-name="H" horiz-adv-x="767" d="M50 0L44 39Q97 48 108 59T120 101V592Q120 623 109 634T44 654L50 693H295L299 654L237 642Q217 638 217 616V387H550V592Q550 623 539 634T474 654L480 693H725L729 654L667 642Q647 638 647 616V77Q647
55 667 51L729 39L725 0H480L474 39Q527 48 538 59T550 101V327H217V77Q217 55 237 51L299 39L295 0H50Z" />
<glyph unicode="I" glyph-name="I" horiz-adv-x="337" d="M50 0L44 39Q97 48 108 59T120 101V592Q120 623 109 634T44 654L50 693H295L299 654L237 642Q217 638 217 616V77Q217 55 237 51L299 39L295 0H50Z" />
<glyph unicode="J" glyph-name="J" horiz-adv-x="336" d="M219 622V128Q219 37 168 -41T62 -119Q19 -119 -21 -111Q-24 -99 -24 -76T-5 -23Q42 -34 61 -34T93 -26Q122 -6 122 158V592Q122 622 107 633T36 654L42 693H307L311 654L239 642Q219 638 219 622Z" />
<glyph unicode="K" glyph-name="K" horiz-adv-x="652" d="M50 0L44 39Q97 48 108 59T120 101V592Q120 623 109 634T44 654L50 693H295L299 654L237 642Q217 638 217 616V352L458 608Q473 623 473 632Q473 650 397 653L403 693H615L619 651Q583 651 558 626Q555
623 549 616T541 608L319 372L560 80Q576 60 595 51T652 39L646 0H494L251 299L217 263V77Q217 55 237 51L292 39L288 0H50Z" />
<glyph unicode="L" glyph-name="L" horiz-adv-x="558" d="M50 0L44 39Q97 48 108 59T120 101V592Q120 623 109 634T44 654L50 693H295L299 654L237 642Q217 638 217 616V51L306 52Q417 54 436 59Q452 64 492 213L547 208Q548 191 548 139T537 0H50Z" />
<glyph unicode="M" glyph-name="M" horiz-adv-x="913" d="M43 0L37 39Q91 49 105 60T120 101V592Q120 623 109 634T44 654L50 693H260L452 167Q457 151 459 142H469Q470 153 474 162L669 693H850L854 654L812 642Q793 636 793 619V77Q793 55 813 51L875 39L871
0H624L618 39Q667 48 681 58T696 93V550Q696 573 699 588H691L480 20H408L195 590H187V100Q187 76 196 64T231 48L280 39L276 0H43Z" />
<glyph unicode="N" glyph-name="N" horiz-adv-x="775" d="M50 0L44 39Q97 48 108 59T120 101V592Q120 623 109 634T44 654L50 693H127H186H241L583 189H590V572Q590 617 574 632T494 654L500 693H735L739 654L677 642Q657 638 657 616V0H598V0H595L195 592H187V100Q187
75 196 63T231 48L301 39L297 0H50Z" />
<glyph unicode="O" glyph-name="O" horiz-adv-x="711" d="M199 -9T117 84T35 340T122 602T360 702T594 611T676 357T589 93T351 -9ZM364 44Q418 44 458 69T522 138Q565 223 565 352T509 565T347 649Q293 649 253 625T190 557Q146 474 146 346T202 131T364 44Z" />
<glyph unicode="P" glyph-name="P" horiz-adv-x="559" d="M50 0L44 39Q97 48 108 59T120 101V592Q120 623 109 634T44 654L50 693H329Q435 693 488 642T541 496T472 335T269 268H217V77Q217 53 237 51L338 39L334 0H50ZM217 321H261Q327 321 376 352Q434 389 434
488Q434 580 386 613Q346 640 299 640H237Q217 640 217 616V321Z" />
<glyph unicode="Q" glyph-name="Q" horiz-adv-x="711" d="M312 -7Q179 4 107 96T35 345T122 602T360 702T594 611T676 364Q676 231 622 138T467 10V6Q486 -1 536 -37T609 -74T671 -59L694 -95Q672 -113 658 -122Q617 -152 581 -152T510 -131T448 -83T384 -34T312
-7ZM364 44Q418 44 458 69T522 138Q565 223 565 352T509 565T347 649Q293 649 253 625T190 557Q146 474 146 346T202 131T364 44Z" />
<glyph unicode="R" glyph-name="R" horiz-adv-x="632" d="M50 0L44 39Q97 48 108 59T120 101V592Q120 623 109 634T44 654L50 693H328Q435 693 487 649T539 530T498 400T383 319V314Q393 311 405 292L546 80Q561 58 575 50T628 39L622 0H480L282 304H217V77Q217
55 237 51L292 39L288 0H50ZM217 355H272Q351 355 391 389T432 516Q432 640 297 640H237Q217 640 217 616V355Z" />
<glyph unicode="S" glyph-name="S" horiz-adv-x="523" d="M149 70T187 59T274 47T354 76T386 154Q386 230 300 278Q278 289 232 308T167 337T123 364T83 400Q48 443 48 505Q48 596 115 649T291 702Q373 702 445 675Q448 651 448 612T437 506L379 499Q368 612 352
625Q328 646 265 646T166 621T131 546Q131 518 142 496T182 455T228 428Q253 415 298 396T368 363T422 326Q478 279 478 190T415 46T241 -9Q182 -9 124 5T38 34Q35 46 35 91T47 200L104 203Q112 131 117 110T132 82Q149 70 187 59Z" />
<glyph unicode="T" glyph-name="T" horiz-adv-x="577" d="M149 39Q212 49 226 59T240 101V641Q111 639 102 635T88 626Q76 610 59 513L8 517Q7 532 7 575T16 693H561Q570 619 570 576T569 517L518 513Q501 610 488 626Q484 631 475 635T337 641V77Q337 54 357
51L434 39L430 0H155L149 39Z" />
<glyph unicode="U" glyph-name="U" horiz-adv-x="736" d="M574 573Q574 617 558 632T478 654L484 693H719L723 654L661 642Q643 638 642 628Q641 624 641 616V257Q641 134 574 63T373 -9Q115 -9 115 249V592Q115 623 104 634T39 654L45 693H290L294 654L232 642Q212
638 212 616V264Q212 162 254 110T390 58T529 114T574 249V573Z" />
<glyph unicode="V" glyph-name="V" horiz-adv-x="655" d="M293 -9L70 610Q62 631 51 637T3 653L10 693H248L252 652L181 633Q174 632 174 628T178 611L332 158Q341 133 341 124H351L507 569Q521 608 521 620Q521 639 448 653L454 693H651L655 651Q614 643 603
633T582 595L362 -9H293Z" />
<glyph unicode="W" glyph-name="W" horiz-adv-x="930" d="M591 -9L483 355Q478 370 478 381H470Q470 370 464 355L343 -9H272L63 610Q56 631 45 637T-4 653L3 693H226L230 652L174 633Q167 632 167 628T171 611L310 162Q319 130 319 128H329L444 492L409 610Q406
622 403 628T390 639Q378 645 349 653L356 693H567L571 652L500 633Q493 632 493 628T497 611L629 162Q638 131 638 128H648L788 569Q799 606 799 618Q799 640 722 653L728 693H933L937 651Q896 642 884 632T863 595L663 -9H591Z" />
<glyph unicode="X" glyph-name="X" horiz-adv-x="639" d="M21 0L14 40Q55 51 68 57T94 81L271 341L92 610Q78 631 68 638T24 653L31 693H269L273 652L206 634Q199 633 199 627T206 611L320 441Q330 426 330 414H340L451 576Q476 611 476 622T463 639T415 653L421
693H616L620 651Q608 648 599 646T583 641T571 636T562 628T556 621T549 611T541 599L376 358L571 68Q582 53 639 42L635 0H394L388 40Q434 49 440 56T447 71T440 90L328 256Q318 271 318 286H308L170 84Q162 73 162 66T172 55L219 41L215 0H21Z" />
<glyph unicode="Y" glyph-name="Y" horiz-adv-x="598" d="M319 361L430 576Q451 616 451 625T439 639T391 653L397 693H595L599 651Q555 642 538 632T509 597L351 287V77Q351 54 371 51L448 39L444 0H169L163 39Q226 49 240 59T254 101V279L74 610Q61 632 51 638T5
653L12 693H247L251 652L184 634Q177 633 177 628T184 611L299 390Q309 373 309 361H319Z" />
<glyph unicode="Z" glyph-name="Z" horiz-adv-x="607" d="M120 510L57 517Q55 559 55 601T64 693H573V667L191 81Q178 62 169 58L171 52H321Q427 52 451 59Q467 64 507 213L562 208Q563 191 563 139T552 0H35V26L416 612Q429 631 438 635L436 642H340Q203 642
161 636Q146 635 120 510Z" />
<glyph unicode="[" glyph-name="bracketleft" horiz-adv-x="284" d="M70 -164V766H231V713H140V-111H231V-164H70Z" />
<glyph unicode="\" glyph-name="backslash" horiz-adv-x="391" d="M15 772H84L376 -60H306L15 772Z" />
<glyph unicode="]" glyph-name="bracketright" horiz-adv-x="284" d="M214 766V-164H53V-111H144V713H53V766H214Z" />
<glyph unicode="^" glyph-name="asciicircum" horiz-adv-x="501" d="M205 693H282L477 324H409L243 637L92 324H24L205 693Z" />
<glyph unicode="_" glyph-name="underscore" horiz-adv-x="430" d="M-6 -73H436V-121H-6V-73Z" />
<glyph unicode="`" glyph-name="grave" horiz-adv-x="202" d="M0 712V735L80 765L187 586L152 561L0 712Z" />
<glyph unicode="a" glyph-name="a" horiz-adv-x="512" d="M42 123Q42 198 106 235T314 273V305Q314 435 220 435Q175 435 164 422T139 337L85 343Q77 374 77 407T78 451Q137 488 233 488T366 451T404 329V99Q404 73 416 63T480 42L474 10L354 -3Q344 -3 333 16T322
51T323 76L315 79L303 61Q256 -9 174 -9Q118 -9 80 26T42 123ZM139 132Q139 96 158 78T212 59T291 93Q314 111 314 131V229Q224 227 182 205T139 132Z" />
<glyph unicode="b" glyph-name="b" horiz-adv-x="544" d="M83 34V677Q83 698 67 707T7 726L13 758Q120 772 162 772L173 762V481Q173 426 166 403L174 400L184 413Q242 488 323 488T456 424T508 246T449 62T277 -9Q224 -9 169 5T83 34ZM173 84Q216 48 281 48T370
75Q388 95 399 138T411 235Q411 324 379 370T300 416T200 381Q183 370 178 361T173 336V84Z" />
<glyph unicode="c" glyph-name="c" horiz-adv-x="468" d="M82 404Q107 443 155 465T275 488T417 460Q418 452 418 409T406 323L350 317Q334 418 320 424Q299 433 245 433T166 396Q131 343 131 246T173 104T284 59T417 103L445 70Q364 -9 255 -9T90 59T34 229T82 404Z" />
<glyph unicode="d" glyph-name="d" horiz-adv-x="569" d="M360 66Q302 -9 221 -9T88 55T36 232T95 416T260 488Q333 488 368 462L375 465Q371 481 371 509V677Q371 698 351 708T277 726L283 758Q390 772 450 772L461 762V98Q461 72 473 62T537 41L531 9L411 -4Q401
-4 389 16T377 52T378 76L370 79L360 66ZM133 157T164 110T244 63T344 97Q371 115 371 143V382Q330 431 243 431Q200 431 175 403Q133 356 133 257Z" />
<glyph unicode="e" glyph-name="e" horiz-adv-x="478" d="M145 -9T90 60T34 234T98 414T267 488Q437 488 445 279L419 260L129 244Q129 59 287 59Q356 59 422 93L443 60Q410 33 357 12T246 -9Q145 -9 90 60ZM132 290L339 308Q349 309 349 327Q349 371 326 403T246
435T165 398T132 290Z" />
<glyph unicode="f" glyph-name="f" horiz-adv-x="350" d="M51 0L45 39Q94 49 104 59T115 96V405H50L46 448L95 460Q108 463 112 471T117 498T120 535T129 590T148 655T182 712Q224 772 309 772Q363 772 423 749Q423 673 410 628L357 623Q341 704 333 709Q317 719
291 719Q205 719 205 466H323L315 419L205 404V72Q205 62 209 58T227 51L302 39L298 0H51Z" />
<glyph unicode="g" glyph-name="g" horiz-adv-x="554" d="M160 -24Q132 -55 132 -91T162 -148T264 -169T377 -139T417 -79T384 -43T280 -35T160 -24ZM74 61Q74 101 104 138Q125 164 152 185Q137 192 124 202Q74 242 74 322T129 445T266 488Q339 488 387 457Q452
488 513 490Q523 473 523 450T520 417Q486 425 449 425Q434 425 422 425Q450 387 450 327Q450 247 395 205T258 162Q212 162 177 174Q147 138 147 105Q147 75 181 69Q211 64 248 64T306 64T359 60T409 50T448 32Q485 11 485 -42Q485 -114 413 -166T219 -219Q55
-219 55 -125Q55 -91 74 -67T131 -15Q74 3 74 61ZM265 211Q358 211 358 325T259 439Q166 439 166 325T265 211Z" />
<glyph unicode="h" glyph-name="h" horiz-adv-x="596" d="M40 0L34 39Q83 49 93 59T104 96V677Q104 698 88 707T28 726L34 758Q141 772 183 772L194 762V481Q194 426 187 403L195 400L207 414Q269 488 362 488Q429 488 466 449T504 342V72Q504 60 509 57T524 51L573
39L569 0H355L349 39Q394 48 404 59T414 96V312Q414 360 397 388T327 416T217 377Q204 368 199 360T194 329V72Q194 60 199 57T214 51L258 39L254 0H40Z" />
<glyph unicode="i" glyph-name="i" horiz-adv-x="310" d="M47 0L41 39Q90 49 100 59T111 96V383Q111 404 95 413T35 432L41 464Q148 478 190 478L201 468V72Q201 60 206 57T221 51L270 39L266 0H47ZM202 631T187 614T146 597T104 612T87 653T102 696T145 712Q202
712 202 656Q202 631 187 614Z" />
<glyph unicode="j" glyph-name="j" horiz-adv-x="280" d="M100 68V383Q100 404 84 413T24 432L30 464Q137 478 179 478L190 468V38Q190 -56 134 -137T26 -219Q-10 -219 -50 -212Q-53 -200 -53 -179T-36 -130Q4 -140 24 -140T55 -133Q76 -119 88 -62T100 68ZM191
631T176 614T135 597T93 612T76 653T91 696T134 712Q191 712 191 656Q191 631 176 614Z" />
<glyph unicode="k" glyph-name="k" horiz-adv-x="569" d="M40 0L34 39Q83 49 93 59T104 96V677Q104 698 88 707T28 726L34 758Q141 772 183 772L194 762V231L366 392Q374 401 374 409Q374 424 305 434L311 473H510L514 434Q468 427 459 418L322 287L467 80Q483
60 502 51T559 39L553 0H414L259 226L194 164V72Q194 60 199 57T214 51L258 39L254 0H40Z" />
<glyph unicode="l" glyph-name="l" horiz-adv-x="303" d="M40 0L34 39Q83 49 93 59T104 96V677Q104 698 88 707T28 726L34 758Q141 772 183 772L194 762V72Q194 60 199 57T214 51L263 39L259 0H40Z" />
<glyph unicode="m" glyph-name="m" horiz-adv-x="859" d="M47 0L41 39Q90 49 100 59T111 96V384Q111 410 99 420T35 441L41 473L170 486Q177 486 184 459T192 409V403L199 400L209 413Q234 445 272 466T354 488Q450 488 476 402L483 401L494 415Q551 488 637 488Q698
488 732 449T767 342V72Q767 60 772 57T787 51L836 39L832 0H618L612 39Q657 48 667 59T677 96V323Q677 416 602 416Q563 416 504 377Q492 370 488 362T484 331V72Q484 60 489 57T504 51L548 39L544 0H335L329 39Q374 48 384 59T394 96V323Q394 416 319 416Q280
416 221 377Q209 370 205 362T201 331V72Q201 60 206 57T221 51L265 39L261 0H47Z" />
<glyph unicode="n" glyph-name="n" horiz-adv-x="596" d="M47 0L41 39Q90 49 100 59T111 96V384Q111 410 99 420T35 441L41 473L170 486Q177 486 184 458T192 409V403L200 400L212 414Q275 488 366 488Q430 488 467 450T504 342V72Q504 60 509 57T524 51L573 39L569
0H355L349 39Q394 48 404 59T414 96V312Q414 359 397 387T331 416T223 377Q214 371 210 368Q201 358 201 331V73Q201 62 204 58T221 51L265 39L261 0H47Z" />
<glyph unicode="o" glyph-name="o" horiz-adv-x="520" d="M148 -9T90 55T32 234T93 418T263 488T430 424T488 244T427 60T257 -9ZM129 158T165 101T263 44T351 74Q369 94 380 137T391 232Q391 321 355 378T257 435T169 405Q151 385 140 342T129 247Q129 158 165 101Z" />
<glyph unicode="p" glyph-name="p" horiz-adv-x="557" d="M96 -114V384Q96 410 84 420T20 441L26 473Q150 486 156 486T170 460T179 413V403L187 400L197 413Q255 488 336 488T469 424T521 247T462 63T297 -9Q222 -9 189 17L182 14Q186 -8 186 -30V-138Q186 -151
191 -154T206 -159L297 -171L293 -210H32L26 -171Q75 -161 85 -151T96 -114ZM186 97Q227 48 314 48Q357 48 382 76Q424 123 424 222T393 369T313 416T213 382Q186 364 186 336V97Z" />
<glyph unicode="q" glyph-name="q" horiz-adv-x="543" d="M360 66Q302 -9 221 -9T88 55T36 233T95 417T267 488Q320 488 375 474T461 445V-138Q461 -150 466 -153T481 -159L530 -171L526 -210H266L260 -171Q332 -162 351 -149T371 -109V-2Q371 53 378 76L370 79L360
66ZM197 63T244 63T344 98Q361 109 366 118T371 143V395Q328 431 263 431T174 404Q156 384 145 341T133 244Q133 155 165 109Z" />
<glyph unicode="r" glyph-name="r" horiz-adv-x="432" d="M40 0L34 39Q87 48 99 59T111 96V384Q111 410 98 421T28 441L34 473L170 486Q177 486 185 466T193 425T189 375L197 372L210 401Q228 441 264 464T338 488T408 472Q408 390 393 308L344 303Q336 387 328
398T302 410T258 394T217 359T201 298V72Q201 59 206 56T221 51L312 39L308 0H40Z" />
<glyph unicode="s" glyph-name="s" horiz-adv-x="437" d="M224 435Q136 435 136 375Q136 351 148 340T165 323T187 309T209 298T236 286Q320 251 354 220T388 132T338 33T199 -9Q160 -9 118 -1T57 15Q55 28 55 68T64 155L116 159Q123 95 126 81T137 62Q169 44
221 44Q302 44 302 109Q302 140 278 160Q251 182 216 197Q124 235 91 266T57 354T108 449T231 488T363 463Q364 455 364 418T351 340L305 335Q298 413 283 424T224 435Z" />
<glyph unicode="t" glyph-name="t" horiz-adv-x="350" d="M85 137V412H20L16 455L65 467Q84 472 90 489T114 601L175 607V473H314L306 426L175 411V167Q175 63 239 63Q275 63 315 93L336 64Q282 -9 204 -9Q148 -9 117 30T85 137Z" />
<glyph unicode="u" glyph-name="u" horiz-adv-x="577" d="M92 124V388Q92 409 76 418T16 437L22 469Q129 483 171 483L182 473V167Q182 63 261 63Q312 63 367 102Q380 111 384 119T388 148V388Q388 409 372 418T312 437L318 469Q425 483 467 483L478 473V99Q478
73 490 63T554 42L548 10L419 -4Q412 -5 405 22T397 70V76L389 79L377 65Q314 -9 223 -9Q162 -9 127 23T92 124Z" />
<glyph unicode="v" glyph-name="v" horiz-adv-x="496" d="M211 -9L53 398Q46 417 39 422T0 434L6 473H212L216 434L155 419Q148 418 148 411Q148 410 152 398L242 146Q254 111 254 91H262L373 375Q379 391 379 401T365 419T313 434L319 473H497L501 434Q469 426
462 424T454 417L276 -9H211Z" />
<glyph unicode="w" glyph-name="w" horiz-adv-x="754" d="M207 -9L62 398Q55 417 48 422T8 434L14 473H199L203 434L159 420Q152 419 152 413Q152 412 156 400L248 112Q252 102 252 88V84H260Q260 95 268 114L359 341L340 398Q334 416 328 421T296 434L302 473H466L470
434L426 420Q419 419 419 413Q419 412 423 400L514 112Q518 100 518 88V84H526Q526 90 534 114L625 375Q631 391 631 396T631 404T628 409T625 413T620 417T614 420T606 424T598 427T588 430T578 434L584 473H748L752 434Q720 426 713 424T705 417L539 -9H474L392
243Q387 258 387 270H379Q379 259 373 244L272 -9H207Z" />
<glyph unicode="x" glyph-name="x" horiz-adv-x="554" d="M16 0L12 39Q63 47 69 53L226 237L83 408Q75 418 63 422L27 434L31 473H229L235 434L204 427Q191 423 191 416T206 390L285 295L363 392Q370 400 370 408Q370 425 325 434L331 473H517L521 434Q475 427
466 418L323 249L477 65Q485 55 497 51L533 39L529 0H331L325 39L356 46Q369 50 369 57T354 83L262 193L170 81Q163 73 163 65Q163 48 208 39L202 0H16Z" />
<glyph unicode="y" glyph-name="y" horiz-adv-x="500" d="M29 -117Q53 -120 95 -120T163 -110T223 0L57 398Q49 417 43 422T4 434L10 473H216L220 434L159 419Q152 418 152 411Q152 410 156 398L258 131Q263 117 263 100H271L377 375Q383 391 383 401T369 419T317
434L323 473H501L505 434Q461 424 458 417L300 25Q280 -25 268 -51T235 -111T191 -162Q134 -205 53 -219Q27 -193 27 -137Q27 -131 29 -117Z" />
<glyph unicode="z" glyph-name="z" horiz-adv-x="443" d="M28 0V26L281 392Q297 412 303 415L301 422H187Q148 422 121 419Q114 418 109 405T90 335L44 340Q42 372 42 404T48 473H414V445L164 81Q151 62 142 58L144 51L193 52Q300 54 319 58T360 158L412 154Q410
74 401 0H28Z" />
<glyph unicode="{" glyph-name="braceleft" horiz-adv-x="323" d="M99 -50L109 185Q109 228 91 246T30 282V320Q73 337 91 355T109 417L99 652Q99 704 129 735T206 766Q220 766 270 762V719Q223 714 201 700T179 643V390Q179 322 120 305L109 302V300L120 297Q161
287 172 256Q179 241 179 212V-41Q179 -83 201 -97T270 -117V-160Q220 -164 206 -164Q159 -164 129 -133T99 -50Z" />
<glyph unicode="|" glyph-name="bar" horiz-adv-x="255" d="M95 772H160V-210H95V772Z" />
<glyph unicode="}" glyph-name="braceright" horiz-adv-x="323" d="M224 652L214 417Q214 374 232 356T293 320V282Q250 265 232 247T214 185L224 -50Q224 -102 194 -133T117 -164Q103 -164 53 -160V-117Q100 -112 122 -98T144 -41V212Q144 241 151 256Q162 287
203 297L214 300V302L203 305Q144 322 144 390V643Q144 685 122 699T53 719V762Q103 766 117 766Q164 766 194 735T224 652Z" />
<glyph unicode="~" glyph-name="asciitilde" horiz-adv-x="485" d="M422 324L457 300Q429 257 412 236Q383 200 349 200Q331 200 313 205T244 230T176 254T141 260Q109 260 65 211L30 235Q63 291 86 313T134 335T174 330T298 285Q326 275 343 275T375 282T397
298T422 324Z" />
<glyph unicode="&#xa0;" glyph-name="nbspace" horiz-adv-x="195" />
<glyph unicode="&#xa1;" glyph-name="exclamdown" horiz-adv-x="226" d="M71 460T86 476T127 492T169 478T186 439T171 399T128 384Q71 384 71 437Q71 460 86 476ZM59 -220L47 -201L99 306L149 304L162 -190L59 -220Z" />
<glyph unicode="&#xa2;" glyph-name="cent" horiz-adv-x="424" d="M195 668H252V546Q320 546 375 523Q376 517 376 481T366 411L323 406Q313 460 309 474T299 491Q285 495 252 497V197H258Q320 197 375 234L401 204Q336 146 252 139V0H195V141Q116 153 75 207T34
336T71 468T195 541V668ZM124 347Q124 246 195 212V493Q175 489 161 472Q124 427 124 347Z" />
<glyph unicode="&#xa3;" glyph-name="sterling" horiz-adv-x="521" d="M401 80Q433 80 474 121L509 98Q484 52 466 30Q433 -9 378 -9Q345 -9 279 12T177 34T121 27T88 14T54 -10L29 23Q65 63 84 98T106 153T110 208T99 314H16V367H90Q85 399 85 429Q85 562 155
632T341 702Q395 702 463 677Q464 669 464 632T451 554L405 549Q399 624 388 633Q372 649 323 649Q251 649 224 601T196 439Q196 403 199 367H392V314H202Q203 302 203 280Q203 168 148 101L151 96Q180 116 219 116T321 98T401 80Z" />
<glyph unicode="&#xa4;" glyph-name="currency" horiz-adv-x="603" d="M421 166Q368 138 298 138T178 163L81 66L35 112L126 203Q84 252 84 332T123 465L36 553L82 598L170 509Q226 545 306 545T436 513L521 598L568 552L484 469Q520 421 520 341T473 207L568
111L522 66L421 166ZM423 404T390 448T298 492T212 465Q181 430 181 355T214 235T306 191T392 218Q423 253 423 328Z" />
<glyph unicode="&#xa5;" glyph-name="yen" horiz-adv-x="594" d="M112 192V245H488V192H349V77Q349 54 369 51L446 39L442 0H167L161 39Q224 49 238 59T252 101V192H112ZM112 314V367H215L83 610Q70 632 60 638T14 653L21 693H256L260 652L193 634Q186 633 186
628T193 611L297 410Q307 393 307 381H317L418 576Q439 616 439 625T427 639T379 653L385 693H583L587 651Q543 642 526 632T497 597L379 367H488V314H112Z" />
<glyph unicode="&#xa6;" glyph-name="brokenbar" horiz-adv-x="255" d="M95 772H160V355H95V772ZM95 208H160V-210H95V208Z" />
<glyph unicode="&#xa7;" glyph-name="section" horiz-adv-x="437" d="M211 -66Q302 -66 302 -1Q302 38 277 63T201 115L169 133Q161 138 137 150T103 168T74 187T48 212Q25 243 25 280Q25 362 129 427Q60 479 60 563Q60 620 108 661T234 702T367 678Q369 665 369
625T360 538L308 534Q303 627 288 636Q267 649 226 649T162 636T139 584T160 517T223 468L284 435Q292 430 316 418T350 400T379 381T406 356Q428 325 428 288Q428 208 326 142Q388 98 388 32T335 -77T189 -119Q150 -119 108 -111T47 -95Q45 -82 45 -32T54 45L106
49Q113 -17 116 -30T127 -48Q159 -66 211 -66ZM215 207L282 170Q349 221 349 261Q349 289 324 308Q299 327 272 341T238 360L171 398Q104 346 104 307Q104 269 161 236Q201 214 215 207Z" />
<glyph unicode="&#xa8;" glyph-name="dieresis" horiz-adv-x="308" d="M250 600Q198 600 198 656Q198 678 212 694T250 710Q303 710 303 656Q303 633 288 617T250 600ZM57 600Q5 600 5 656Q5 678 19 694T57 710Q110 710 110 656Q110 633 95 617T57 600Z" />
<glyph unicode="&#xa9;" glyph-name="copyright" horiz-adv-x="841" d="M806 194T703 93T420 -9T143 84T45 340T148 602T431 702T708 611T806 357ZM434 44Q508 44 563 69T649 138Q709 223 709 351T634 564T417 649Q343 649 288 625T202 557Q142 474 142 346T217
131T434 44ZM295 536T342 557T453 578T597 527V505Q597 448 588 410L520 404Q509 498 507 501Q487 525 443 525Q378 525 346 477T313 344T357 213T459 167Q477 167 494 171T513 182Q523 192 531 265L590 261Q600 229 600 195T599 153Q583 139 537 127T462 114Q330
114 273 178T216 348Q216 433 268 502Q295 536 342 557Z" />
<glyph unicode="&#xaa;" glyph-name="ordfeminine" horiz-adv-x="378" d="M117 586L67 590Q60 614 60 639T61 675Q104 702 174 702T272 676T300 588V422Q300 404 309 397T355 382L351 352L263 343Q256 343 248 357T240 388V402L235 404L226 391Q191 338 131 338Q90
338 63 363T35 440Q35 546 223 548V569Q223 657 166 657Q138 657 131 648Q124 636 117 586ZM223 443V510Q168 508 143 493T117 444Q117 395 158 395Q182 395 209 417Q223 430 223 443ZM29 227V280H359V227H29Z" />
<glyph unicode="&#xab;" glyph-name="guillemotleft" horiz-adv-x="460" d="M244 414L139 252L244 78L223 62L60 244V260L223 430L244 414ZM420 414L315 252L420 78L399 62L236 244V260L399 430L420 414Z" />
<glyph unicode="&#xac;" glyph-name="logicalnot" horiz-adv-x="516" d="M471 164H414V335H45V388H471V164Z" />
<glyph unicode="&#xad;" glyph-name="uni00AD" horiz-adv-x="295" d="M46 277L264 291L248 229L34 203L46 277Z" />
<glyph unicode="&#xae;" glyph-name="registered" horiz-adv-x="841" d="M806 194T703 93T420 -9T143 84T45 340T148 602T431 702T708 611T806 357ZM434 44Q508 44 563 69T649 138Q709 223 709 351T634 564T417 649Q343 649 288 625T202 557Q142 474 142 346T217
131T434 44ZM253 124L249 161Q272 167 280 174T288 198V499Q288 517 282 523T247 536L251 572H444Q590 572 590 467Q590 430 563 392T487 335V331Q493 330 503 317L583 187Q596 166 626 161L622 124H523L413 314H375V184Q375 171 388 168L423 161L421 124H253ZM412
526H387Q375 526 375 513V362H397Q446 362 471 382T496 454Q496 526 412 526Z" />
<glyph unicode="&#xaf;" glyph-name="overscore" horiz-adv-x="378" d="M22 642V702H271V642H22Z" />
<glyph unicode="&#xb0;" glyph-name="degree" horiz-adv-x="365" d="M319 510T282 473T180 435T80 469T45 566T82 665T184 702T284 668T319 572ZM102 528T122 507T180 486T240 509T262 571T242 630T184 651T124 628T102 566Z" />
<glyph unicode="&#xb1;" glyph-name="plusminus" horiz-adv-x="466" d="M45 306V359H208V526H258V359H421V306H258V135H208V306H45ZM45 -1V52H421V-1H45Z" />
<glyph unicode="&#xb2;" glyph-name="twosuperior" horiz-adv-x="330" d="M8 435V477Q111 559 161 622T212 737Q212 770 191 792T131 815T77 799Q66 788 62 731L18 735Q12 764 12 789T13 821Q34 837 72 846T142 856Q220 856 261 823T303 733T253 621T86 482L87
477L148 479Q230 481 234 483Q246 485 260 544L300 542V523Q300 469 290 435H8Z" />
<glyph unicode="&#xb3;" glyph-name="threesuperior" horiz-adv-x="313" d="M12 531L56 534Q59 478 69 475Q87 469 121 469T178 490T202 547Q202 633 116 633Q106 633 82 631L84 667Q138 675 163 700T188 755T170 800T121 817T79 809T62 740L19 744Q13 776 13
798T14 828Q64 856 129 856T232 833T270 773T247 709T193 669L194 664Q234 658 263 630T292 555T242 469T117 429T1 442Q8 506 12 531Z" />
<glyph unicode="&#xb4;" glyph-name="acute" horiz-adv-x="198" d="M199 735V712L47 561L12 586L119 765L199 735Z" />
<glyph unicode="&#xb5;" glyph-name="mu" horiz-adv-x="577" d="M223 -9Q181 -9 161 3L154 -3L188 -183L107 -223L92 -206V388Q92 409 76 418T16 437L22 469Q129 483 171 483L182 473V167Q182 63 261 63Q312 63 367 102Q380 111 384 119T388 148V388Q388 409 372
418T312 437L318 469Q425 483 467 483L478 473V95Q478 69 490 59T554 38L548 6L419 -7Q412 -8 405 20T397 70V76L389 79L377 65Q314 -9 223 -9Z" />
<glyph unicode="&#xb6;" glyph-name="paragraph" horiz-adv-x="597" d="M348 34Q316 28 277 28L266 38V278Q170 281 118 345T65 499T116 641T267 693H555L559 654L497 642Q477 638 477 616V128Q477 37 430 -41T336 -119T250 -111Q247 -99 247 -76T266 -23Q313
-34 332 -34T367 -24T389 32T395 158V640H348V34Z" />
<glyph unicode="&#xb7;" glyph-name="middot" horiz-adv-x="240" d="M185 232T167 213T120 193T73 209T55 255T73 304T119 323T166 308T185 262Z" />
<glyph unicode="&#xb8;" glyph-name="cedilla" horiz-adv-x="485" d="M210 -217L206 -186Q301 -173 301 -128Q301 -112 289 -101T255 -90T214 -100L205 -89L243 40L292 27L271 -48Q287 -45 306 -45Q338 -45 360 -62T383 -109Q383 -151 337 -182T210 -217Z" />
<glyph unicode="&#xb9;" glyph-name="onesuperior" horiz-adv-x="267" d="M41 435L37 466Q75 472 88 479T101 501V759Q101 790 98 796T76 802T38 799L33 830Q108 856 166 856L174 849V482Q174 477 178 476T187 474L237 466L234 435H41Z" />
<glyph unicode="&#xba;" glyph-name="ordmasculine" horiz-adv-x="384" d="M359 440T314 389T190 338T68 385T25 516T70 651T194 702T316 655T359 524ZM277 577T254 616T190 656T133 635Q106 603 106 533T129 423T193 383T252 405Q277 437 277 507ZM27 227V280H357V227H27Z"
/>
<glyph unicode="&#xbb;" glyph-name="guillemotright" horiz-adv-x="460" d="M145 252L40 414L61 430L224 260V244L61 62L40 78L145 252ZM321 252L216 414L237 430L400 260V244L237 62L216 78L321 252Z" />
<glyph unicode="&#xbc;" glyph-name="onequarter" horiz-adv-x="845" d="M81 278L77 309Q115 315 128 322T141 344V602Q141 633 138 639T116 645T78 642L73 673Q148 699 206 699L214 692V326Q214 320 218 319T227 317L277 309L274 278H81ZM611 693H676L230 0H164L611
693ZM592 0L588 31Q626 37 638 44T651 66V109H460L445 155L647 413Q693 421 717 421L724 415V160L791 159L785 109H724V52Q724 41 737 39L774 31L772 0H592ZM504 167L506 163L651 160V330Q651 343 653 349L649 351L515 181Q509 172 504 167Z" />
<glyph unicode="&#xbd;" glyph-name="onehalf" horiz-adv-x="900" d="M81 278L77 309Q115 315 128 322T141 344V602Q141 633 138 639T116 645T78 642L73 673Q148 699 206 699L214 692V326Q214 320 218 319T227 317L277 309L274 278H81ZM611 693H676L230 0H164L611
693ZM538 0V42Q641 124 691 187T742 302Q742 335 721 357T661 380T607 364Q596 353 592 296L548 300Q542 328 542 353T543 386Q564 402 602 411T672 421Q750 421 791 388T833 298T783 186T616 47L617 42L678 44Q760 46 764 48Q776 50 790 109L830 107V88Q830 34
820 0H538Z" />
<glyph unicode="&#xbe;" glyph-name="threequarters" horiz-adv-x="845" d="M52 374L96 377Q99 321 109 318Q127 312 161 312T218 333T242 390Q242 476 156 476Q146 476 122 474L124 510Q178 518 203 543T228 598T210 643T161 660T119 652T102 583L59 587Q53 619
53 641T54 671Q104 699 169 699T272 676T310 616T287 552T233 512L234 507Q274 501 303 473T332 398T282 312T157 272T41 285Q48 349 52 374ZM611 693H676L230 0H164L611 693ZM592 0L588 31Q626 37 638 44T651 66V109H460L445 155L647 413Q693 421 717 421L724
415V160L791 159L785 109H724V52Q724 41 737 39L774 31L772 0H592ZM504 167L506 163L651 160V330Q651 343 653 349L649 351L515 181Q509 172 504 167Z" />
<glyph unicode="&#xbf;" glyph-name="questiondown" horiz-adv-x="424" d="M187 460T202 476T243 492T285 478T302 438T287 399T243 384Q187 384 187 435Q187 460 202 476ZM225 279L272 293Q318 229 318 187Q318 137 244 89Q214 69 184 48T133 -3T111 -75T146
-142T229 -166T306 -150Q314 -146 318 -131T327 -61L381 -67Q389 -98 389 -132T388 -177Q359 -194 309 -206T212 -219Q130 -219 77 -179T24 -63Q24 -24 39 9T78 63T129 105T180 142Q235 177 235 219Q235 239 225 279Z" />
<glyph unicode="&#xc0;" glyph-name="Agrave" horiz-adv-x="670" d="M14 0L7 40Q45 50 53 56T70 83L294 702H377L606 67Q611 52 665 42L661 0H428L422 40Q492 54 492 73Q492 81 488 94L444 224H185L134 82Q130 70 130 66T136 60L207 41L203 0H14ZM204 277H427L329
558Q322 579 322 587H312L204 277ZM178 842L170 863L230 914L404 785L379 749L178 842Z" />
<glyph unicode="&#xc1;" glyph-name="Aacute" horiz-adv-x="670" d="M14 0L7 40Q45 50 53 56T70 83L294 702H377L606 67Q611 52 665 42L661 0H428L422 40Q492 54 492 73Q492 81 488 94L444 224H185L134 82Q130 70 130 66T136 60L207 41L203 0H14ZM204 277H427L329
558Q322 579 322 587H312L204 277ZM504 863L496 842L295 749L270 785L444 914L504 863Z" />
<glyph unicode="&#xc2;" glyph-name="Acircumflex" horiz-adv-x="670" d="M14 0L7 40Q45 50 53 56T70 83L294 702H377L606 67Q611 52 665 42L661 0H428L422 40Q492 54 492 73Q492 81 488 94L444 224H185L134 82Q130 70 130 66T136 60L207 41L203 0H14ZM204 277H427L329
558Q322 579 322 587H312L204 277ZM476 749L337 840L198 749L173 775L309 914H365L501 775L476 749Z" />
<glyph unicode="&#xc3;" glyph-name="Atilde" horiz-adv-x="670" d="M14 0L7 40Q45 50 53 56T70 83L294 702H377L606 67Q611 52 665 42L661 0H428L422 40Q492 54 492 73Q492 81 488 94L444 224H185L134 82Q130 70 130 66T136 60L207 41L203 0H14ZM204 277H427L329
558Q322 579 322 587H312L204 277ZM493 891L518 879Q497 833 476 806T432 778T343 791T252 805Q214 805 180 771L157 787Q189 840 212 861T258 883T345 870T435 856T493 891Z" />
<glyph unicode="&#xc4;" glyph-name="Adieresis" horiz-adv-x="670" d="M14 0L7 40Q45 50 53 56T70 83L294 702H377L606 67Q611 52 665 42L661 0H428L422 40Q492 54 492 73Q492 81 488 94L444 224H185L134 82Q130 70 130 66T136 60L207 41L203 0H14ZM204 277H427L329
558Q322 579 322 587H312L204 277ZM433 775Q381 775 381 831Q381 853 395 869T433 885Q486 885 486 831Q486 808 471 792T433 775ZM240 775Q188 775 188 831Q188 853 202 869T240 885Q293 885 293 831Q293 808 278 792T240 775Z" />
<glyph unicode="&#xc5;" glyph-name="Aring" horiz-adv-x="670" d="M14 0L7 40Q45 50 53 56T70 83L294 702H377L606 67Q611 52 665 42L661 0H428L422 40Q492 54 492 73Q492 81 488 94L444 224H185L134 82Q130 70 130 66T136 60L207 41L203 0H14ZM204 277H427L329
558Q322 579 322 587H312L204 277ZM440 791T411 765T340 739T271 762T243 827T272 893T343 919T412 895T440 831ZM292 806T305 794T339 782T375 796T390 831T377 864T344 876Q292 876 292 827Q292 806 305 794Z" />
<glyph unicode="&#xc6;" glyph-name="AE" horiz-adv-x="880" d="M328 693H825Q831 656 831 620T829 537L772 530Q758 599 752 616T738 635Q714 638 677 639L525 642V373H676Q689 373 708 444L739 441Q739 368 741 339T744 304T748 275T753 243L717 237Q701 294
696 307T683 320H525V51L610 52Q740 54 757 66Q767 73 799 183L854 179Q855 166 855 120T844 0H358L352 39Q405 48 416 59T428 101V320H275L141 87Q132 71 132 67T143 59L211 41L207 0H21L14 40Q48 49 56 54T77 83L377 606Q383 616 383 623Q383 643 322 654L328
693ZM422 587L305 373H428V587H422Z" />
<glyph unicode="&#xc7;" glyph-name="Ccedilla" horiz-adv-x="620" d="M296 -217L292 -186Q336 -181 361 -166T387 -131T375 -101T341 -90T300 -100L291 -89L315 -7Q188 6 118 87Q35 183 35 331Q35 445 82 534Q137 639 247 680Q308 702 374 702T501 692T581 674Q587
637 587 597T585 506L528 498Q506 614 489 626Q480 633 443 641T368 649Q258 649 202 568T146 355Q146 199 217 123T393 47Q431 47 464 56T508 73T541 200L596 198Q596 122 585 36Q554 19 492 5Q431 -9 368 -9L357 -48Q373 -45 392 -45Q424 -45 446 -62T469 -109Q469
-151 423 -182T296 -217Z" />
<glyph unicode="&#xc8;" glyph-name="Egrave" horiz-adv-x="592" d="M50 0L44 39Q97 48 108 59T120 101V592Q120 623 109 634T44 654L50 693H516Q522 656 522 620T520 537L463 530Q449 599 443 616T429 635Q405 638 368 639L217 642V373H367Q380 373 399 444L430
441Q430 368 432 339T435 304T439 275T444 243L408 237Q392 294 387 307T374 320H217V51L306 52Q419 52 444 64Q447 66 448 66Q465 71 492 184L547 179Q548 162 548 119T537 0H50ZM132 842L124 863L184 914L358 785L333 749L132 842Z" />
<glyph unicode="&#xc9;" glyph-name="Eacute" horiz-adv-x="592" d="M50 0L44 39Q97 48 108 59T120 101V592Q120 623 109 634T44 654L50 693H516Q522 656 522 620T520 537L463 530Q449 599 443 616T429 635Q405 638 368 639L217 642V373H367Q380 373 399 444L430
441Q430 368 432 339T435 304T439 275T444 243L408 237Q392 294 387 307T374 320H217V51L306 52Q419 52 444 64Q447 66 448 66Q465 71 492 184L547 179Q548 162 548 119T537 0H50ZM438 863L430 842L229 749L204 785L378 914L438 863Z" />
<glyph unicode="&#xca;" glyph-name="Ecircumflex" horiz-adv-x="592" d="M50 0L44 39Q97 48 108 59T120 101V592Q120 623 109 634T44 654L50 693H516Q522 656 522 620T520 537L463 530Q449 599 443 616T429 635Q405 638 368 639L217 642V373H367Q380 373 399
444L430 441Q430 368 432 339T435 304T439 275T444 243L408 237Q392 294 387 307T374 320H217V51L306 52Q419 52 444 64Q447 66 448 66Q465 71 492 184L547 179Q548 162 548 119T537 0H50ZM430 749L291 840L152 749L127 775L263 914H319L455 775L430 749Z" />
<glyph unicode="&#xcb;" glyph-name="Edieresis" horiz-adv-x="592" d="M50 0L44 39Q97 48 108 59T120 101V592Q120 623 109 634T44 654L50 693H516Q522 656 522 620T520 537L463 530Q449 599 443 616T429 635Q405 638 368 639L217 642V373H367Q380 373 399 444L430
441Q430 368 432 339T435 304T439 275T444 243L408 237Q392 294 387 307T374 320H217V51L306 52Q419 52 444 64Q447 66 448 66Q465 71 492 184L547 179Q548 162 548 119T537 0H50ZM388 775Q336 775 336 831Q336 853 350 869T388 885Q441 885 441 831Q441 808 426
792T388 775ZM195 775Q143 775 143 831Q143 853 157 869T195 885Q248 885 248 831Q248 808 233 792T195 775Z" />
<glyph unicode="&#xcc;" glyph-name="Igrave" horiz-adv-x="337" d="M50 0L44 39Q97 48 108 59T120 101V592Q120 623 109 634T44 654L50 693H295L299 654L237 642Q217 638 217 616V77Q217 55 237 51L299 39L295 0H50ZM15 842L7 863L67 914L241 785L216 749L15 842Z" />
<glyph unicode="&#xcd;" glyph-name="Iacute" horiz-adv-x="337" d="M50 0L44 39Q97 48 108 59T120 101V592Q120 623 109 634T44 654L50 693H295L299 654L237 642Q217 638 217 616V77Q217 55 237 51L299 39L295 0H50ZM312 863L304 842L103 749L78 785L252 914L312 863Z" />
<glyph unicode="&#xce;" glyph-name="Icircumflex" horiz-adv-x="337" d="M50 0L44 39Q97 48 108 59T120 101V592Q120 623 109 634T44 654L50 693H295L299 654L237 642Q217 638 217 616V77Q217 55 237 51L299 39L295 0H50ZM307 749L168 840L29 749L4 775L140 914H196L332
775L307 749Z" />
<glyph unicode="&#xcf;" glyph-name="Idieresis" horiz-adv-x="337" d="M50 0L44 39Q97 48 108 59T120 101V592Q120 623 109 634T44 654L50 693H295L299 654L237 642Q217 638 217 616V77Q217 55 237 51L299 39L295 0H50ZM264 775Q212 775 212 831Q212 853 226
869T264 885Q317 885 317 831Q317 808 302 792T264 775ZM71 775Q19 775 19 831Q19 853 33 869T71 885Q124 885 124 831Q124 808 109 792T71 775Z" />
<glyph unicode="&#xd0;" glyph-name="Eth" horiz-adv-x="713" d="M27 338V398H120V592Q120 623 109 634T44 654L50 693H363Q449 693 512 666T610 590Q678 498 678 368Q678 225 602 119Q564 65 497 33T341 0H50L44 39Q97 48 108 59T120 101V338H27ZM238 67Q308
53 344 53Q455 53 511 132T567 343Q567 426 546 487T488 580Q420 640 340 640H217V398H384V338H217V93Q217 71 238 67Z" />
<glyph unicode="&#xd1;" glyph-name="Ntilde" horiz-adv-x="775" d="M550 891L575 879Q554 833 533 806T489 778T400 791T309 805Q271 805 237 771L214 787Q246 840 269 861T315 883T402 870T492 856T550 891ZM50 0L44 39Q97 48 108 59T120 101V592Q120 623 109
634T44 654L50 693H127H186H241L583 189H590V572Q590 617 574 632T494 654L500 693H735L739 654L677 642Q657 638 657 616V0H598V0H595L195 592H187V100Q187 75 196 63T231 48L301 39L297 0H50Z" />
<glyph unicode="&#xd2;" glyph-name="Ograve" horiz-adv-x="711" d="M199 -9T117 84T35 340T122 602T360 702T594 611T676 357T589 93T351 -9ZM364 44Q418 44 458 69T522 138Q565 223 565 352T509 565T347 649Q293 649 253 625T190 557Q146 474 146 346T202 131T364
44ZM226 842L218 863L278 914L452 785L427 749L226 842Z" />
<glyph unicode="&#xd3;" glyph-name="Oacute" horiz-adv-x="711" d="M199 -9T117 84T35 340T122 602T360 702T594 611T676 357T589 93T351 -9ZM364 44Q418 44 458 69T522 138Q565 223 565 352T509 565T347 649Q293 649 253 625T190 557Q146 474 146 346T202 131T364
44ZM497 863L489 842L288 749L263 785L437 914L497 863Z" />
<glyph unicode="&#xd4;" glyph-name="Ocircumflex" horiz-adv-x="711" d="M199 -9T117 84T35 340T122 602T360 702T594 611T676 357T589 93T351 -9ZM364 44Q418 44 458 69T522 138Q565 223 565 352T509 565T347 649Q293 649 253 625T190 557Q146 474 146 346T202
131T364 44ZM494 749L355 840L216 749L191 775L327 914H383L519 775L494 749Z" />
<glyph unicode="&#xd5;" glyph-name="Otilde" horiz-adv-x="711" d="M199 -9T117 84T35 340T122 602T360 702T594 611T676 357T589 93T351 -9ZM364 44Q418 44 458 69T522 138Q565 223 565 352T509 565T347 649Q293 649 253 625T190 557Q146 474 146 346T202 131T364
44ZM515 891L540 879Q519 833 498 806T454 778T365 791T274 805Q236 805 202 771L179 787Q211 840 234 861T280 883T367 870T457 856T515 891Z" />
<glyph unicode="&#xd6;" glyph-name="Odieresis" horiz-adv-x="711" d="M199 -9T117 84T35 340T122 602T360 702T594 611T676 357T589 93T351 -9ZM364 44Q418 44 458 69T522 138Q565 223 565 352T509 565T347 649Q293 649 253 625T190 557Q146 474 146 346T202
131T364 44ZM447 775Q395 775 395 831Q395 853 409 869T447 885Q500 885 500 831Q500 808 485 792T447 775ZM254 775Q202 775 202 831Q202 853 216 869T254 885Q307 885 307 831Q307 808 292 792T254 775Z" />
<glyph unicode="&#xd7;" glyph-name="multiply" horiz-adv-x="519" d="M121 75L85 111L224 250L86 388L122 423L259 286L397 423L434 387L295 250L434 110L398 75L260 214L121 75Z" />
<glyph unicode="&#xd8;" glyph-name="Oslash" horiz-adv-x="709" d="M348 -9Q282 -9 222 12L174 -80L120 -60L170 38Q35 127 35 338Q35 503 122 602T363 702Q438 702 498 676L548 772L603 752L549 648Q676 558 676 354Q676 189 589 90T348 -9ZM146 355Q146 203
211 118L464 610Q416 649 355 649T253 625T190 558Q146 475 146 355ZM255 76Q303 44 360 44T458 68T522 136Q565 218 565 348T506 565L255 76Z" />
<glyph unicode="&#xd9;" glyph-name="Ugrave" horiz-adv-x="736" d="M574 573Q574 617 558 632T478 654L484 693H719L723 654L661 642Q643 638 642 628Q641 624 641 616V257Q641 134 574 63T373 -9Q115 -9 115 249V592Q115 623 104 634T39 654L45 693H290L294
654L232 642Q212 638 212 616V264Q212 162 254 110T390 58T529 114T574 249V573ZM218 842L210 863L270 914L444 785L419 749L218 842Z" />
<glyph unicode="&#xda;" glyph-name="Uacute" horiz-adv-x="736" d="M574 573Q574 617 558 632T478 654L484 693H719L723 654L661 642Q643 638 642 628Q641 624 641 616V257Q641 134 574 63T373 -9Q115 -9 115 249V592Q115 623 104 634T39 654L45 693H290L294
654L232 642Q212 638 212 616V264Q212 162 254 110T390 58T529 114T574 249V573ZM555 863L547 842L346 749L321 785L495 914L555 863Z" />
<glyph unicode="&#xdb;" glyph-name="Ucircumflex" horiz-adv-x="736" d="M574 573Q574 617 558 632T478 654L484 693H719L723 654L661 642Q643 638 642 628Q641 624 641 616V257Q641 134 574 63T373 -9Q115 -9 115 249V592Q115 623 104 634T39 654L45 693H290L294
654L232 642Q212 638 212 616V264Q212 162 254 110T390 58T529 114T574 249V573ZM516 749L377 840L238 749L213 775L349 914H405L541 775L516 749Z" />
<glyph unicode="&#xdc;" glyph-name="Udieresis" horiz-adv-x="736" d="M574 573Q574 617 558 632T478 654L484 693H719L723 654L661 642Q643 638 642 628Q641 624 641 616V257Q641 134 574 63T373 -9Q115 -9 115 249V592Q115 623 104 634T39 654L45 693H290L294
654L232 642Q212 638 212 616V264Q212 162 254 110T390 58T529 114T574 249V573ZM477 775Q425 775 425 831Q425 853 439 869T477 885Q530 885 530 831Q530 808 515 792T477 775ZM284 775Q232 775 232 831Q232 853 246 869T284 885Q337 885 337 831Q337 808 322
792T284 775Z" />
<glyph unicode="&#xdd;" glyph-name="Yacute" horiz-adv-x="598" d="M319 361L430 576Q451 616 451 625T439 639T391 653L397 693H595L599 651Q555 642 538 632T509 597L351 287V77Q351 54 371 51L448 39L444 0H169L163 39Q226 49 240 59T254 101V279L74 610Q61
632 51 638T5 653L12 693H247L251 652L184 634Q177 633 177 628T184 611L299 390Q309 373 309 361H319ZM486 863L478 842L277 749L252 785L426 914L486 863Z" />
<glyph unicode="&#xde;" glyph-name="Thorn" horiz-adv-x="567" d="M120 101V592Q120 623 109 634T44 654L50 693H295L299 654L237 642Q217 638 217 616V557H324Q436 557 492 508T549 372T474 224T259 162H217V77Q217 53 237 51L324 39L320 0H50L44 39Q97 48 108
59T120 101ZM294 504H237Q217 504 217 482V215H241Q312 215 368 242Q400 257 419 288T438 362T424 434T387 478Q344 504 294 504Z" />
<glyph unicode="&#xdf;" glyph-name="germandbls" horiz-adv-x="677" d="M460 44Q542 44 542 110Q542 144 513 164Q487 183 454 198Q369 235 340 268T310 351Q310 405 360 454Q380 475 400 495Q450 543 450 597T419 685T341 719Q273 719 239 652T205 466V0H51L45
39Q94 49 104 59T115 96V405H50L46 448L95 460Q108 463 112 471T117 496T120 527T128 572T144 626T173 679T216 727Q275 772 354 772T487 728T540 608Q540 568 517 534T465 480T414 432T390 373Q390 345 412 326Q421 319 426 315T444 303T464 294L486 284Q557 251
583 229T618 186T628 137Q628 75 578 33T445 -9T311 15Q309 25 309 65T318 126L366 129Q373 82 376 71T386 58Q420 44 460 44Z" />
<glyph unicode="&#xe0;" glyph-name="agrave" horiz-adv-x="512" d="M42 123Q42 198 106 235T314 273V305Q314 435 220 435Q175 435 164 422T139 337L85 343Q77 374 77 407T78 451Q137 488 233 488T366 451T404 329V99Q404 73 416 63T480 42L474 10L354 -3Q344
-3 333 16T322 51T323 76L315 79L303 61Q256 -9 174 -9Q118 -9 80 26T42 123ZM139 132Q139 96 158 78T212 59T291 93Q314 111 314 131V229Q224 227 182 205T139 132ZM125 712V735L205 765L312 586L277 561L125 712Z" />
<glyph unicode="&#xe1;" glyph-name="aacute" horiz-adv-x="512" d="M42 123Q42 198 106 235T314 273V305Q314 435 220 435Q175 435 164 422T139 337L85 343Q77 374 77 407T78 451Q137 488 233 488T366 451T404 329V99Q404 73 416 63T480 42L474 10L354 -3Q344
-3 333 16T322 51T323 76L315 79L303 61Q256 -9 174 -9Q118 -9 80 26T42 123ZM139 132Q139 96 158 78T212 59T291 93Q314 111 314 131V229Q224 227 182 205T139 132ZM376 735V712L224 561L189 586L296 765L376 735Z" />
<glyph unicode="&#xe2;" glyph-name="acircumflex" horiz-adv-x="512" d="M42 123Q42 198 106 235T314 273V305Q314 435 220 435Q175 435 164 422T139 337L85 343Q77 374 77 407T78 451Q137 488 233 488T366 451T404 329V99Q404 73 416 63T480 42L474 10L354 -3Q344
-3 333 16T322 51T323 76L315 79L303 61Q256 -9 174 -9Q118 -9 80 26T42 123ZM139 132Q139 96 158 78T212 59T291 93Q314 111 314 131V229Q224 227 182 205T139 132ZM273 755L391 586L356 561L241 679L127 561L92 586L210 755H273Z" />
<glyph unicode="&#xe3;" glyph-name="atilde" horiz-adv-x="512" d="M42 123Q42 198 106 235T314 273V305Q314 435 220 435Q175 435 164 422T139 337L85 343Q77 374 77 407T78 451Q137 488 233 488T366 451T404 329V99Q404 73 416 63T480 42L474 10L354 -3Q344
-3 333 16T322 51T323 76L315 79L303 61Q256 -9 174 -9Q118 -9 80 26T42 123ZM139 132Q139 96 158 78T212 59T291 93Q314 111 314 131V229Q224 227 182 205T139 132ZM404 715L429 702Q408 653 387 624T343 595T254 616T163 637Q125 637 91 595L68 612Q100 668 123
691T169 714T256 693T345 672T404 715Z" />
<glyph unicode="&#xe4;" glyph-name="adieresis" horiz-adv-x="512" d="M42 123Q42 198 106 235T314 273V305Q314 435 220 435Q175 435 164 422T139 337L85 343Q77 374 77 407T78 451Q137 488 233 488T366 451T404 329V99Q404 73 416 63T480 42L474 10L354 -3Q344
-3 333 16T322 51T323 76L315 79L303 61Q256 -9 174 -9Q118 -9 80 26T42 123ZM139 132Q139 96 158 78T212 59T291 93Q314 111 314 131V229Q224 227 182 205T139 132ZM336 600Q284 600 284 656Q284 678 298 694T336 710Q389 710 389 656Q389 633 374 617T336 600ZM143
600Q91 600 91 656Q91 678 105 694T143 710Q196 710 196 656Q196 633 181 617T143 600Z" />
<glyph unicode="&#xe5;" glyph-name="aring" horiz-adv-x="512" d="M42 123Q42 198 106 235T314 273V305Q314 435 220 435Q175 435 164 422T139 337L85 343Q77 374 77 407T78 451Q137 488 233 488T366 451T404 329V99Q404 73 416 63T480 42L474 10L354 -3Q344
-3 333 16T322 51T323 76L315 79L303 61Q256 -9 174 -9Q118 -9 80 26T42 123ZM139 132Q139 96 158 78T212 59T291 93Q314 111 314 131V229Q224 227 182 205T139 132ZM342 618T316 591T242 564T170 588T145 658T171 729T245 755T317 731T342 662ZM241 607Q265 607
278 622T292 663Q292 712 246 712Q222 712 208 697T194 657Q194 607 241 607Z" />
<glyph unicode="&#xe6;" glyph-name="ae" horiz-adv-x="763" d="M139 337L85 343Q77 374 77 407T78 451Q137 488 247 488T388 420Q453 488 552 488Q722 488 730 279L704 260L414 244Q414 59 572 59Q641 59 707 93L728 60Q695 33 642 12T531 -9Q404 -9 349 98H343Q318
52 275 22T175 -9T80 26T42 129T105 235T314 282V305Q314 435 220 435Q175 435 164 422T139 337ZM417 290L624 308Q634 309 634 327Q634 371 611 403T531 435T450 398T417 290ZM314 131V238Q222 229 181 206T139 132Q139 97 158 79T213 60T291 93Q314 111 314 131Z"
/>
<glyph unicode="&#xe7;" glyph-name="ccedilla" horiz-adv-x="468" d="M82 404Q107 443 155 465T275 488T417 460Q418 452 418 409T406 323L350 317Q334 418 320 424Q299 433 245 433T166 396Q131 343 131 246T173 104T284 59T417 103L445 70Q364 -9 255 -9T90
59T34 229T82 404ZM457 -217L453 -186Q548 -173 548 -128Q548 -112 536 -101T502 -90T461 -100L452 -89L490 40L539 27L518 -48Q534 -45 553 -45Q585 -45 607 -62T630 -109Q630 -151 584 -182T457 -217Z" />
<glyph unicode="&#xe8;" glyph-name="egrave" horiz-adv-x="478" d="M145 -9T90 60T34 234T98 414T267 488Q437 488 445 279L419 260L129 244Q129 59 287 59Q356 59 422 93L443 60Q410 33 357 12T246 -9Q145 -9 90 60ZM132 290L339 308Q349 309 349 327Q349 371
326 403T246 435T165 398T132 290ZM104 712V735L184 765L291 586L256 561L104 712Z" />
<glyph unicode="&#xe9;" glyph-name="eacute" horiz-adv-x="478" d="M145 -9T90 60T34 234T98 414T267 488Q437 488 445 279L419 260L129 244Q129 59 287 59Q356 59 422 93L443 60Q410 33 357 12T246 -9Q145 -9 90 60ZM132 290L339 308Q349 309 349 327Q349 371
326 403T246 435T165 398T132 290ZM395 735V712L243 561L208 586L315 765L395 735Z" />
<glyph unicode="&#xea;" glyph-name="ecircumflex" horiz-adv-x="478" d="M145 -9T90 60T34 234T98 414T267 488Q437 488 445 279L419 260L129 244Q129 59 287 59Q356 59 422 93L443 60Q410 33 357 12T246 -9Q145 -9 90 60ZM132 290L339 308Q349 309 349 327Q349
371 326 403T246 435T165 398T132 290ZM277 755L395 586L360 561L245 679L131 561L96 586L214 755H277Z" />
<glyph unicode="&#xeb;" glyph-name="edieresis" horiz-adv-x="478" d="M145 -9T90 60T34 234T98 414T267 488Q437 488 445 279L419 260L129 244Q129 59 287 59Q356 59 422 93L443 60Q410 33 357 12T246 -9Q145 -9 90 60ZM132 290L339 308Q349 309 349 327Q349
371 326 403T246 435T165 398T132 290ZM348 600Q296 600 296 656Q296 678 310 694T348 710Q401 710 401 656Q401 633 386 617T348 600ZM155 600Q103 600 103 656Q103 678 117 694T155 710Q208 710 208 656Q208 633 193 617T155 600Z" />
<glyph unicode="&#xec;" glyph-name="igrave" horiz-adv-x="310" d="M16 712V735L96 765L203 586L168 561L16 712ZM47 0L41 39Q90 49 100 59T111 96V383Q111 404 95 413T35 432L41 464Q148 478 190 478L201 468V72Q201 60 206 57T221 51L270 39L266 0H47Z" />
<glyph unicode="&#xed;" glyph-name="iacute" horiz-adv-x="310" d="M288 735V712L136 561L101 586L208 765L288 735ZM47 0L41 39Q90 49 100 59T111 96V383Q111 404 95 413T35 432L41 464Q148 478 190 478L201 468V72Q201 60 206 57T221 51L270 39L266 0H47Z" />
<glyph unicode="&#xee;" glyph-name="icircumflex" horiz-adv-x="310" d="M176 755L294 586L259 561L144 679L30 561L-5 586L113 755H176ZM47 0L41 39Q90 49 100 59T111 96V383Q111 404 95 413T35 432L41 464Q148 478 190 478L201 468V72Q201 60 206 57T221 51L270
39L266 0H47Z" />
<glyph unicode="&#xef;" glyph-name="idieresis" horiz-adv-x="310" d="M242 600Q190 600 190 656Q190 678 204 694T242 710Q295 710 295 656Q295 633 280 617T242 600ZM49 600Q-3 600 -3 656Q-3 678 11 694T49 710Q102 710 102 656Q102 633 87 617T49 600ZM47
0L41 39Q90 49 100 59T111 96V383Q111 404 95 413T35 432L41 464Q148 478 190 478L201 468V72Q201 60 206 57T221 51L270 39L266 0H47Z" />
<glyph unicode="&#xf0;" glyph-name="eth" horiz-adv-x="533" d="M416 774L456 738L324 684Q488 496 488 246Q488 129 427 60T257 -9T90 55T32 234T93 418T266 488Q315 488 358 472Q326 579 262 658L149 612L110 647L229 696Q202 725 170 749L222 777Q255 753
289 721L416 774ZM391 323T355 379T257 435T169 405Q151 385 140 342T129 247Q129 158 165 101T263 44T351 74Q369 94 380 137T391 232Q391 323 355 379Z" />
<glyph unicode="&#xf1;" glyph-name="ntilde" horiz-adv-x="596" d="M47 0L41 39Q90 49 100 59T111 96V384Q111 410 99 420T35 441L41 473L170 486Q177 486 184 458T192 409V403L200 400L212 414Q275 488 366 488Q430 488 467 450T504 342V72Q504 60 509 57T524
51L573 39L569 0H355L349 39Q394 48 404 59T414 96V312Q414 359 397 387T331 416T223 377Q214 371 210 368Q201 358 201 331V73Q201 62 204 58T221 51L265 39L261 0H47ZM463 715L488 702Q467 653 446 624T402 595T313 616T222 637Q184 637 150 595L127 612Q159
668 182 691T228 714T315 693T404 672T463 715Z" />
<glyph unicode="&#xf2;" glyph-name="ograve" horiz-adv-x="520" d="M148 -9T90 55T32 234T93 418T263 488T430 424T488 244T427 60T257 -9ZM129 158T165 101T263 44T351 74Q369 94 380 137T391 232Q391 321 355 378T257 435T169 405Q151 385 140 342T129 247Q129
158 165 101ZM128 712V735L208 765L315 586L280 561L128 712Z" />
<glyph unicode="&#xf3;" glyph-name="oacute" horiz-adv-x="520" d="M148 -9T90 55T32 234T93 418T263 488T430 424T488 244T427 60T257 -9ZM129 158T165 101T263 44T351 74Q369 94 380 137T391 232Q391 321 355 378T257 435T169 405Q151 385 140 342T129 247Q129
158 165 101ZM390 735V712L238 561L203 586L310 765L390 735Z" />
<glyph unicode="&#xf4;" glyph-name="ocircumflex" horiz-adv-x="520" d="M148 -9T90 55T32 234T93 418T263 488T430 424T488 244T427 60T257 -9ZM129 158T165 101T263 44T351 74Q369 94 380 137T391 232Q391 321 355 378T257 435T169 405Q151 385 140 342T129
247Q129 158 165 101ZM286 755L404 586L369 561L254 679L140 561L105 586L223 755H286Z" />
<glyph unicode="&#xf5;" glyph-name="otilde" horiz-adv-x="520" d="M148 -9T90 55T32 234T93 418T263 488T430 424T488 244T427 60T257 -9ZM129 158T165 101T263 44T351 74Q369 94 380 137T391 232Q391 321 355 378T257 435T169 405Q151 385 140 342T129 247Q129
158 165 101ZM415 715L440 702Q419 653 398 624T354 595T265 616T174 637Q136 637 102 595L79 612Q111 668 134 691T180 714T267 693T356 672T415 715Z" />
<glyph unicode="&#xf6;" glyph-name="odieresis" horiz-adv-x="520" d="M148 -9T90 55T32 234T93 418T263 488T430 424T488 244T427 60T257 -9ZM129 158T165 101T263 44T351 74Q369 94 380 137T391 232Q391 321 355 378T257 435T169 405Q151 385 140 342T129 247Q129
158 165 101ZM347 600Q295 600 295 656Q295 678 309 694T347 710Q400 710 400 656Q400 633 385 617T347 600ZM154 600Q102 600 102 656Q102 678 116 694T154 710Q207 710 207 656Q207 633 192 617T154 600Z" />
<glyph unicode="&#xf7;" glyph-name="divide" horiz-adv-x="466" d="M285 411T269 394T227 376T185 391T169 432T185 475T226 492Q285 492 285 435Q285 411 269 394ZM285 99T269 82T227 64T185 79T169 120T185 163T226 180Q285 180 285 123Q285 99 269 82ZM45
244V297H421V244H45Z" />
<glyph unicode="&#xf8;" glyph-name="oslash" horiz-adv-x="520" d="M254 -9Q202 -9 163 6L126 -66L72 -46L113 34Q32 97 32 232Q32 349 93 418T266 488Q303 488 340 478L389 572L444 552L393 454Q488 393 488 246Q488 129 427 60T254 -9ZM251 435Q195 435 169
405Q151 385 140 342T129 233T155 117L311 420Q283 435 251 435ZM391 232Q391 322 355 378L195 68Q225 44 275 44T351 74Q369 94 380 137T391 232Z" />
<glyph unicode="&#xf9;" glyph-name="ugrave" horiz-adv-x="577" d="M92 124V388Q92 409 76 418T16 437L22 469Q129 483 171 483L182 473V167Q182 63 261 63Q312 63 367 102Q380 111 384 119T388 148V388Q388 409 372 418T312 437L318 469Q425 483 467 483L478
473V99Q478 73 490 63T554 42L548 10L419 -4Q412 -5 405 22T397 70V76L389 79L377 65Q314 -9 223 -9Q162 -9 127 23T92 124ZM138 712V735L218 765L325 586L290 561L138 712Z" />
<glyph unicode="&#xfa;" glyph-name="uacute" horiz-adv-x="577" d="M92 124V388Q92 409 76 418T16 437L22 469Q129 483 171 483L182 473V167Q182 63 261 63Q312 63 367 102Q380 111 384 119T388 148V388Q388 409 372 418T312 437L318 469Q425 483 467 483L478
473V99Q478 73 490 63T554 42L548 10L419 -4Q412 -5 405 22T397 70V76L389 79L377 65Q314 -9 223 -9Q162 -9 127 23T92 124ZM422 735V712L270 561L235 586L342 765L422 735Z" />
<glyph unicode="&#xfb;" glyph-name="ucircumflex" horiz-adv-x="577" d="M92 124V388Q92 409 76 418T16 437L22 469Q129 483 171 483L182 473V167Q182 63 261 63Q312 63 367 102Q380 111 384 119T388 148V388Q388 409 372 418T312 437L318 469Q425 483 467 483L478
473V99Q478 73 490 63T554 42L548 10L419 -4Q412 -5 405 22T397 70V76L389 79L377 65Q314 -9 223 -9Q162 -9 127 23T92 124ZM306 755L424 586L389 561L274 679L160 561L125 586L243 755H306Z" />
<glyph unicode="&#xfc;" glyph-name="udieresis" horiz-adv-x="577" d="M92 124V388Q92 409 76 418T16 437L22 469Q129 483 171 483L182 473V167Q182 63 261 63Q312 63 367 102Q380 111 384 119T388 148V388Q388 409 372 418T312 437L318 469Q425 483 467 483L478
473V99Q478 73 490 63T554 42L548 10L419 -4Q412 -5 405 22T397 70V76L389 79L377 65Q314 -9 223 -9Q162 -9 127 23T92 124ZM369 600Q317 600 317 656Q317 678 331 694T369 710Q422 710 422 656Q422 633 407 617T369 600ZM176 600Q124 600 124 656Q124 678 138
694T176 710Q229 710 229 656Q229 633 214 617T176 600Z" />
<glyph unicode="&#xfd;" glyph-name="yacute" horiz-adv-x="500" d="M29 -117Q53 -120 95 -120T163 -110T223 0L57 398Q49 417 43 422T4 434L10 473H216L220 434L159 419Q152 418 152 411Q152 410 156 398L258 131Q263 117 263 100H271L377 375Q383 391 383 401T369
419T317 434L323 473H501L505 434Q461 424 458 417L300 25Q280 -25 268 -51T235 -111T191 -162Q134 -205 53 -219Q27 -193 27 -137Q27 -131 29 -117ZM418 735V712L266 561L231 586L338 765L418 735Z" />
<glyph unicode="&#xfe;" glyph-name="thorn" horiz-adv-x="566" d="M32 -210L26 -171Q75 -161 85 -151T96 -114V677Q96 698 80 707T20 726L26 758Q133 772 175 772L186 762V481Q186 426 179 403L187 400L197 413Q255 488 336 488T469 424T521 247T462 63T297 -9Q222
-9 189 17L182 14Q186 -8 186 -30V-138Q186 -151 191 -154T206 -159L297 -171L293 -210H32ZM186 336V97Q227 48 314 48Q357 48 382 76Q424 123 424 222T393 369T313 416T213 382Q186 364 186 336Z" />
<glyph unicode="&#xff;" glyph-name="ydieresis" horiz-adv-x="500" d="M29 -117Q53 -120 95 -120T163 -110T223 0L57 398Q49 417 43 422T4 434L10 473H216L220 434L159 419Q152 418 152 411Q152 410 156 398L258 131Q263 117 263 100H271L377 375Q383 391 383
401T369 419T317 434L323 473H501L505 434Q461 424 458 417L300 25Q280 -25 268 -51T235 -111T191 -162Q134 -205 53 -219Q27 -193 27 -137Q27 -131 29 -117ZM361 600Q309 600 309 656Q309 678 323 694T361 710Q414 710 414 656Q414 633 399 617T361 600ZM168 600Q116
600 116 656Q116 678 130 694T168 710Q221 710 221 656Q221 633 206 617T168 600Z" />
<glyph unicode="&#x2013;" glyph-name="endash" horiz-adv-x="500" d="M10 271H502L490 218H-2L10 271Z" />
<glyph unicode="&#x2014;" glyph-name="emdash" horiz-adv-x="1000" d="M10 271H1002L990 218H-2L10 271Z" />
<glyph unicode="&#x2018;" glyph-name="quoteleft" horiz-adv-x="215" d="M139 766L166 740Q119 684 119 634Q119 616 135 597T151 559T136 527T97 514T58 533T42 593T66 681T139 766Z" />
<glyph unicode="&#x2019;" glyph-name="quoteright" horiz-adv-x="215" d="M76 514L49 540Q96 596 96 646Q96 664 80 683T64 721T79 753T118 766T157 747T173 687T149 599T76 514Z" />
<glyph unicode="&#x201a;" glyph-name="quotesinglbase" horiz-adv-x="234" d="M82 -139L55 -113Q102 -57 102 -7Q102 11 86 30T70 68T85 100T124 113T163 94T179 34T155 -54T82 -139Z" />
<glyph unicode="&#x201c;" glyph-name="quotedblleft" horiz-adv-x="406" d="M330 766L357 740Q310 684 310 634Q310 616 326 597T342 559T327 527T288 514T249 533T233 593T257 681T330 766ZM139 766L166 740Q119 684 119 634Q119 616 135 597T151 559T136 527T97
514T58 533T42 593T66 681T139 766Z" />
<glyph unicode="&#x201d;" glyph-name="quotedblright" horiz-adv-x="406" d="M267 514L240 540Q287 596 287 646Q287 664 271 683T255 721T270 753T309 766T348 747T364 687T340 599T267 514ZM76 514L49 540Q96 596 96 646Q96 664 80 683T64 721T79 753T118 766T157
747T173 687T149 599T76 514Z" />
<glyph unicode="&#x201e;" glyph-name="quotedblbase" horiz-adv-x="425" d="M273 -139L246 -113Q293 -57 293 -7Q293 11 277 30T261 68T276 100T315 113T354 94T370 34T346 -54T273 -139ZM82 -139L55 -113Q102 -57 102 -7Q102 11 86 30T70 68T85 100T124 113T163
94T179 34T155 -54T82 -139Z" />
<glyph unicode="&#x2022;" glyph-name="bullet" horiz-adv-x="343" d="M303 202T267 165T173 127T77 159T40 250T75 346T170 383T266 353T303 262Z" />
<glyph unicode="&#x2039;" glyph-name="guilsinglleft" horiz-adv-x="284" d="M244 414L139 252L244 78L223 62L60 244V260L223 430L244 414Z" />
<glyph unicode="&#x203a;" glyph-name="guilsinglright" horiz-adv-x="284" d="M145 252L40 414L61 430L224 260V244L61 62L40 78L145 252Z" />
</font>
</defs>
</svg>
