<?xml version="1.0" standalone="no"?>
<!DOCTYPE svg PUBLIC "-//W3C//DTD SVG 1.1//EN" "http://www.w3.org/Graphics/SVG/1.1/DTD/svg11.dtd">
<svg xmlns="http://www.w3.org/2000/svg">
<defs >
<font id="Lemonada" horiz-adv-x="729" ><font-face
    font-family="Lemonada SemiBold"
    units-per-em="1000"
    panose-1="0 0 7 0 0 0 0 0 0 0"
    ascent="1345"
    descent="-653"
    alphabetic="0" />
<glyph unicode=" " glyph-name="space" horiz-adv-x="309" />
<glyph unicode="!" glyph-name="exclam" horiz-adv-x="398" d="M157 267T144 285T131 338Q131 360 139 408T149 465Q173 595 173 642Q173 664 168 686T150 720Q177 747 214 761T295 775Q345 775 367 749T390 679Q390 619 350 498T273 299Q256 284 232 276T189
267Q157 267 144 285ZM107 -25T81 1T54 66Q54 110 85 143T163 176Q203 176 229 150T256 85Q256 41 224 8T147 -25Q107 -25 81 1Z" />
<glyph unicode="&quot;" glyph-name="quotedbl" horiz-adv-x="461" d="M80 446T80 496Q80 516 86 537T104 595Q117 631 124 659T132 716Q132 739 125 759Q145 769 167 774T210 780Q262 780 262 730Q262 709 256 688T238 630Q224 592 217 565T210 510Q210 487 217
467Q175 446 132 446Q80 446 80 496ZM303 446T303 496Q303 516 309 537T327 595Q340 631 347 659T355 716Q355 739 348 759Q368 769 390 774T433 780Q485 780 485 730Q485 709 479 688T461 630Q447 592 440 565T433 510Q433 487 440 467Q398 446 355 446Q303 446
303 496Z" />
<glyph unicode="#" glyph-name="numbersign" horiz-adv-x="859" d="M778 481T678 483Q654 396 630 297Q645 298 677 298Q729 298 757 293T797 274T809 236Q809 200 789 169Q724 183 612 183H602L556 -18Q547 -59 528 -78T477 -98Q457 -98 435 -92T398 -75Q437
40 475 177L292 161L251 -18Q242 -59 223 -78T172 -98Q152 -98 130 -92T93 -75Q122 8 164 156H161Q109 156 81 161T42 180T30 219Q30 256 49 285Q95 275 196 271Q202 291 237 433L243 456H209Q157 456 129 461T90 480T78 519Q78 556 97 585Q159 571 271 571L309
738Q318 779 337 798T388 818Q408 818 431 812T467 795Q432 694 399 576L581 592Q600 674 614 738Q623 779 642 798T693 818Q713 818 736 812T772 795Q740 704 710 598H725Q777 598 805 593T845 574T857 536Q857 500 837 469Q778 481 678 483ZM373 278T506 290Q530
379 554 479Q520 477 494 475T448 470L367 463L352 405Q333 332 319 274Q373 278 506 290Z" />
<glyph unicode="$" glyph-name="dollar" horiz-adv-x="690" d="M360 584T319 557T278 492Q278 461 308 443T406 400Q474 376 517 354T591 293T623 192Q623 132 587 86T491 13T358 -22L343 -111Q329 -194 272 -194Q250 -194 227 -189T192 -175Q207 -123 232 -20Q144
-10 100 22T55 104Q55 129 67 154T100 196Q173 75 303 75Q364 75 403 97T442 161Q442 192 412 211T314 255Q245 281 202 303T128 367T96 471Q96 566 172 625T371 698L395 807Q413 886 472 886Q493 886 515 880T551 863Q529 802 499 699Q578 691 623 661T669 586Q669
540 638 514T559 487Q514 487 480 514T426 592Q360 584 319 557Z" />
<glyph unicode="%" glyph-name="percent" horiz-adv-x="1136" d="M173 272T121 324T69 466Q69 537 101 592T193 677T329 707Q341 707 356 705T382 698Q387 693 389 669Q442 658 469 618T496 512Q496 445 466 390T381 304T262 272Q173 272 121 324ZM304 373T328
410T353 507Q353 546 337 565T286 585Q270 585 252 579Q234 561 223 526T211 457Q211 418 225 396T266 373Q304 373 328 410ZM493 284T671 716Q687 757 710 776T764 796Q785 796 806 790T840 773Q691 509 495 40Q478 -1 455 -20T401 -40Q381 -40 359 -34T326 -17Q493
284 671 716ZM776 -23T724 29T672 171Q672 242 704 297T796 382T932 412Q944 412 959 410T985 403Q990 398 992 374Q1045 363 1072 323T1099 217Q1099 150 1069 95T984 9T865 -23Q776 -23 724 29ZM907 78T931 115T956 212Q956 251 940 270T889 290Q873 290 855
284Q837 266 826 231T814 162Q814 123 828 101T869 78Q907 78 931 115Z" />
<glyph unicode="&amp;" glyph-name="ampersand" horiz-adv-x="759" d="M768 466T768 416Q768 397 761 374T743 331Q697 337 670 337Q658 337 626 335Q627 211 580 114T445 -37T246 -92Q150 -92 92 -42T34 92Q34 166 77 234T195 349Q148 376 122 419T96 517Q96
590 140 649T261 741T434 775Q521 775 574 744T627 663Q627 621 600 597T523 572Q485 572 454 597T406 664Q341 651 303 612T265 522Q265 474 301 443T392 412Q447 412 492 420T594 445Q636 456 657 461T700 466Q768 466 768 416ZM371 40T422 77T506 179T545 325Q427
309 363 309Q313 309 274 319Q204 247 204 159Q204 100 232 70T313 40Q371 40 422 77Z" />
<glyph unicode="&apos;" glyph-name="quotesingle" horiz-adv-x="238" d="M80 446T80 496Q80 516 86 537T104 595Q117 631 124 659T132 716Q132 739 125 759Q145 769 167 774T210 780Q262 780 262 730Q262 709 256 688T238 630Q224 592 217 565T210 510Q210 487
217 467Q175 446 132 446Q80 446 80 496Z" />
<glyph unicode="(" glyph-name="parenleft" horiz-adv-x="415" d="M84 331T123 474T222 709T341 801Q364 801 382 793T416 765Q364 718 322 631T255 439T230 231Q230 114 257 32T343 -113Q286 -156 230 -156Q160 -156 122 -66T84 191Q84 331 123 474Z" />
<glyph unicode=")" glyph-name="parenright" horiz-adv-x="415" d="M331 314T292 171T193 -64T74 -156Q51 -156 33 -148T-1 -120Q51 -73 93 14T160 206T185 414Q185 531 158 613T72 758Q129 801 185 801Q255 801 293 711T331 454Q331 314 292 171Z" />
<glyph unicode="*" glyph-name="asterisk" horiz-adv-x="592" d="M363 300T341 354T309 495L235 352Q188 357 150 378T112 424Q112 456 156 491T273 556L113 583Q108 610 108 633Q108 674 119 699T154 724Q193 724 234 693T320 611L295 770Q318 783 345 791T393
800Q423 800 434 789T446 747Q446 684 386 582L530 656Q555 632 574 600T594 544Q594 522 568 510T503 497Q447 497 379 511L493 396Q476 360 448 330T396 300Q363 300 341 354Z" />
<glyph unicode="+" glyph-name="plus" horiz-adv-x="721" d="M626 357T602 300H435L410 144Q349 120 311 120Q290 120 281 129T271 162Q271 170 275 200L291 300H201Q155 300 138 310T121 349Q121 388 146 445H313L338 601Q398 625 437 625Q459 625 468 616T477
582Q477 568 474 545L458 445H546Q592 445 609 435T626 396Q626 357 602 300Z" />
<glyph unicode="," glyph-name="comma" horiz-adv-x="333" d="M26 -149Q68 -129 94 -88T121 -11L59 70Q61 113 95 145T174 177Q218 177 244 147T270 74Q270 -20 208 -91T40 -189L26 -149Z" />
<glyph unicode="-" glyph-name="hyphen" horiz-adv-x="518" d="M91 202T76 216T61 266Q61 312 85 360Q107 354 135 354Q168 354 198 361T274 382Q318 395 346 401T405 408Q433 408 448 394T463 344Q463 301 439 250Q417 256 389 256Q356 256 325 249T249 228Q205
215 177 209T118 202Q91 202 76 216Z" />
<glyph unicode="." glyph-name="period" horiz-adv-x="290" d="M97 -25T71 1T44 66Q44 110 75 143T153 176Q193 176 219 150T246 85Q246 41 214 8T137 -25Q97 -25 71 1Z" />
<glyph unicode="/" glyph-name="slash" horiz-adv-x="398" d="M113 237T228 756Q237 797 256 816T307 836Q327 836 350 830T386 813Q288 532 170 0Q161 -41 142 -60T91 -80Q71 -80 49 -74T12 -57Q113 237 228 756Z" />
<glyph unicode="0" glyph-name="zero" d="M258 -25T195 13T98 123T64 291Q64 412 113 504T251 648T455 700Q473 700 497 696T536 685Q545 675 548 637Q619 619 657 554T695 384Q695 270 649 177T522 29T343 -25Q258 -25 195 13ZM399 91T437 127T498 228T520 374Q520
466 487 511T384 556Q355 556 318 542Q281 491 260 419T238 277Q238 192 269 142T351 91Q399 91 437 127Z" />
<glyph unicode="1" glyph-name="one" horiz-adv-x="519" d="M190 162T201 237T242 461Q182 461 145 492T99 579Q157 594 199 613T292 659Q332 681 355 690T401 700Q460 700 460 633Q460 612 451 566T430 466Q404 350 390 268T376 116Q376 50 400 6Q344 -25 293
-25Q241 -25 216 6T190 101Q190 162 201 237Z" />
<glyph unicode="2" glyph-name="two" horiz-adv-x="690" d="M641 124T641 86Q641 54 620 27T563 -15T484 -30Q426 -30 371 -16T231 30Q200 2 174 -10T116 -22Q79 -22 56 2T32 63Q32 115 72 148T175 183L196 182Q315 260 371 331T428 460Q428 510 403 536T330 563Q280
563 243 525T196 421Q152 426 128 451T104 517Q104 571 137 612T230 677T368 700Q435 700 488 675T570 605T600 505Q600 420 540 337T342 144Q392 129 425 121T484 113L616 175Q641 124 641 86Z" />
<glyph unicode="3" glyph-name="three" horiz-adv-x="663" d="M525 256T554 209T584 103Q584 29 535 -30T400 -122T206 -156Q113 -156 64 -129T15 -50Q15 -13 43 11T116 35Q151 35 184 12T239 -48Q286 -48 325 -29T387 22T410 94Q410 131 392 163T345 207Q288
171 234 171Q196 171 174 190T151 242Q151 280 187 303T286 326Q315 326 342 323Q423 376 423 461Q423 510 397 536T322 563Q267 563 227 524T177 421Q133 426 109 451T85 517Q85 571 119 612T216 677T361 700Q431 700 484 676T567 608T597 506Q597 388 470 285Q525
256 554 209Z" />
<glyph unicode="4" glyph-name="four" horiz-adv-x="699" d="M657 325T636 248Q614 161 601 94T588 -41Q588 -94 612 -139Q579 -156 553 -163T497 -170Q442 -170 412 -138T381 -46Q381 -18 388 16Q348 9 297 5T204 0Q32 0 32 106Q32 139 53 186T120 319Q177 425
207 497T238 630Q238 656 230 679Q252 689 277 694T323 700Q437 700 437 580Q437 490 370 375T166 116H411Q443 228 487 333Q507 351 544 364T611 377Q637 377 647 371T657 346Q657 325 636 248Z" />
<glyph unicode="5" glyph-name="five" horiz-adv-x="623" d="M376 329T443 302T546 224T583 108Q583 33 534 -27T398 -121T205 -156Q114 -156 67 -129T19 -52Q19 -14 49 11T123 36Q157 36 190 13T243 -48Q288 -48 326 -29T386 24T409 96Q409 129 392 160T336 211T235
231Q211 231 169 224Q154 221 146 221Q135 221 128 227T122 244L171 543Q134 572 134 617Q134 657 157 679T223 702Q255 702 283 682T328 625Q377 628 453 652T595 707Q608 668 608 631Q608 560 550 529T365 498Q347 498 315 500L287 329Q376 329 443 302Z" />
<glyph unicode="6" glyph-name="six" horiz-adv-x="719" d="M213 -25T146 45T78 250Q78 397 147 530T322 745T523 827Q574 827 602 808T648 743Q528 707 434 632T279 423H288Q359 512 466 512Q562 512 615 451T669 292Q669 203 622 131T495 17T324 -25Q213 -25
146 45ZM385 87T418 108T473 173T495 278Q495 333 469 370T381 407Q353 407 323 386T273 324T252 225Q252 167 276 127T354 87Q385 87 418 108Z" />
<glyph unicode="7" glyph-name="seven" horiz-adv-x="589" d="M609 554T514 522Q443 396 392 241T340 -37Q340 -58 342 -71T351 -98Q305 -121 256 -121Q141 -121 141 -9Q141 83 197 219T347 501Q242 501 180 513T88 554T59 628Q59 664 76 710Q152 678 248 654T407
628Q426 664 457 684T523 704Q564 704 586 684T609 628Q609 554 514 522Z" />
<glyph unicode="8" glyph-name="eight" horiz-adv-x="671" d="M553 351T592 303T632 194Q632 130 592 80T479 2T315 -26Q196 -26 128 24T59 162Q59 223 97 275T242 381Q180 428 145 475T109 578Q109 638 143 683T241 754T389 779Q498 779 561 729T625 595Q625
542 589 493T483 400Q553 351 592 303ZM342 682T313 660T284 595Q284 559 312 528T395 459Q475 516 475 595Q475 635 451 658T386 682Q342 682 313 660ZM384 71T420 99T457 177Q457 210 425 242T325 321Q271 288 240 248T209 163Q209 121 243 96T330 71Q384 71
420 99Z" />
<glyph unicode="9" glyph-name="nine" horiz-adv-x="700" d="M154 -152T127 -133T81 -68Q201 -32 295 43T450 252H441Q369 163 262 163Q166 163 113 224T59 383Q59 472 106 544T233 658T404 700Q515 700 582 630T650 425Q650 278 581 145T407 -70T205 -152Q154
-152 127 -133ZM375 268T405 289T455 351T476 450Q476 508 452 548T374 588Q343 588 310 567T255 502T233 397Q233 342 259 305T347 268Q375 268 405 289Z" />
<glyph unicode=":" glyph-name="colon" horiz-adv-x="333" d="M97 -25T71 1T44 66Q44 110 75 143T153 176Q193 176 219 150T246 85Q246 41 214 8T137 -25Q97 -25 71 1ZM146 358T120 384T93 449Q93 493 124 526T202 559Q242 559 268 533T295 468Q295 424 263 391T186
358Q146 358 120 384Z" />
<glyph unicode=";" glyph-name="semicolon" horiz-adv-x="333" d="M26 -149Q68 -129 94 -88T121 -11L59 70Q61 113 95 145T174 177Q218 177 244 147T270 74Q270 -20 208 -91T40 -189L26 -149ZM146 358T120 384T93 449Q93 493 124 526T202 559Q242 559 268 533T295
468Q295 424 263 391T186 358Q146 358 120 384Z" />
<glyph unicode="&lt;" glyph-name="less" horiz-adv-x="759" d="M606 244T619 232T633 205Q633 185 612 157T564 105L178 287Q147 301 133 314T119 342Q119 361 140 389T188 442L572 615Q611 632 628 632Q680 632 684 508L359 361L575 259Q606 244 619 232Z" />
<glyph unicode="=" glyph-name="equal" horiz-adv-x="721" d="M134 165T117 175T100 214Q100 253 125 310H525Q571 310 588 300T605 261Q605 222 581 165H180Q134 165 117 175ZM177 435T160 445T143 484Q143 523 168 580H568Q614 580 631 570T648 531Q648 492
624 435H223Q177 435 160 445Z" />
<glyph unicode="&gt;" glyph-name="greater" horiz-adv-x="759" d="M638 436T652 423T666 395Q666 376 645 348T597 295L213 122Q174 105 157 105Q105 105 101 229L426 376L210 478Q179 493 166 505T152 532Q152 552 173 580T221 632L607 450Q638 436 652 423Z" />
<glyph unicode="?" glyph-name="question" horiz-adv-x="593" d="M265 357T317 405T369 525Q369 569 345 597T274 626Q227 626 187 592T132 489Q84 489 62 514T39 579Q39 623 67 668T154 744T301 775Q389 775 445 743T527 658T553 542Q553 460 515 394T414 291T279
254Q231 254 206 280T180 349Q265 357 317 405ZM153 -25T127 1T100 66Q100 110 131 143T209 176Q249 176 275 150T302 85Q302 41 270 8T193 -25Q153 -25 127 1Z" />
<glyph unicode="@" glyph-name="at" horiz-adv-x="1079" d="M655 -106T751 -66T924 53Q939 20 939 -13Q939 -79 876 -129T714 -207T509 -235Q371 -235 270 -182T114 -32T59 197Q59 364 137 502T350 720T650 800Q785 800 875 756T1007 640T1050 482Q1050 387 1005
296T877 148T692 90Q652 90 632 111T611 173Q611 186 613 194L605 197Q584 147 546 119T459 90Q399 90 362 134T325 253Q325 333 364 395T468 492T613 527Q644 527 670 521Q676 506 677 484Q709 510 753 510Q779 510 793 495T808 450Q808 431 791 355Q778 298 772
262T765 196Q765 187 766 182Q820 199 864 244T935 351T961 474Q961 542 929 598T826 688T645 722Q513 722 404 658T230 484T166 243Q166 74 263 -16T543 -106Q655 -106 751 -66ZM582 218T611 276T653 458Q568 451 522 405T475 290Q475 256 489 237T530 218Q582
218 611 276Z" />
<glyph unicode="A" glyph-name="A" horiz-adv-x="738" d="M626 405Q626 257 639 159T693 11Q646 -27 587 -27Q528 -27 497 19T455 171H218Q207 129 207 102Q207 49 226 11Q202 -7 171 -17T108 -27Q70 -27 50 -4T29 65Q29 132 83 257T265 608L233 676Q278 704 316
716T399 728Q450 728 468 705Q509 728 540 728Q585 728 606 699T627 605L626 405ZM450 272V319Q450 517 454 609H442Q318 419 254 272H450Z" />
<glyph unicode="B" glyph-name="B" horiz-adv-x="789" d="M623 353T668 306T713 189Q713 126 672 78T554 2T379 -25Q228 -25 156 11T83 123Q83 171 96 267T147 576L103 665Q198 726 275 726Q329 726 338 669Q440 726 538 726Q618 726 664 686T710 574Q710 507
667 454T543 368Q623 353 668 306ZM307 485T290 374Q399 381 462 424T526 532Q526 612 435 612Q382 612 328 591Q307 485 290 374ZM450 73T490 106T530 195Q530 249 494 278T392 308Q342 308 278 292Q265 194 257 97Q283 86 317 80T383 73Q450 73 490 106Z" />
<glyph unicode="C" glyph-name="C" horiz-adv-x="691" d="M199 -25T118 53T37 271Q37 400 96 504T257 667T485 726Q571 726 621 697T671 615Q671 572 641 545T563 517Q517 517 478 541T416 612Q360 590 316 539T246 417T221 266Q221 172 254 120T349 67Q396 67
434 92T494 160T520 255Q633 255 633 171Q633 118 594 73T489 2T343 -25Q199 -25 118 53Z" />
<glyph unicode="D" glyph-name="D" horiz-adv-x="848" d="M577 726T644 688T747 578T784 414Q784 286 726 186T564 31T326 -25Q208 -25 144 14T80 125Q80 170 94 268T147 576L103 665Q199 726 274 726Q319 726 332 690Q366 708 403 717T488 726Q577 726 644 688ZM419
73T477 113T567 224T600 385Q600 495 552 555T416 616Q374 616 334 600Q323 520 302 392Q286 296 273 205T259 88Q300 73 345 73Q419 73 477 113Z" />
<glyph unicode="E" glyph-name="E" horiz-adv-x="610" d="M397 528T325 546Q318 503 310 461L295 370Q332 364 372 364L455 385Q459 365 459 346Q459 306 432 284T357 261Q324 261 278 271Q259 157 259 122V112H436Q500 120 569 146Q579 119 579 90Q579 34 541
5T428 -25Q346 -25 275 1Q234 -26 181 -26Q127 -26 103 1T79 88Q79 138 93 240T147 576L103 665Q198 726 275 726Q328 726 337 673Q406 676 464 687T617 721Q624 692 624 664Q624 599 579 564T459 528Q397 528 325 546Z" />
<glyph unicode="F" glyph-name="F" horiz-adv-x="571" d="M391 528T325 544Q304 426 295 370Q332 364 372 364L455 385Q459 365 459 346Q459 306 432 284T357 261Q324 261 278 271Q259 157 259 122Q259 83 265 58T286 12Q239 -26 181 -26Q127 -26 103 1T79 88Q79
138 93 240T147 576L103 665Q198 726 275 726Q327 726 337 674Q402 677 458 688T607 721Q614 692 614 664Q614 599 569 564T449 528Q391 528 325 544Z" />
<glyph unicode="G" glyph-name="G" horiz-adv-x="763" d="M608 -130T633 -149Q586 -185 534 -185Q482 -185 459 -163T435 -93Q435 -69 446 -8Q400 -30 351 -30Q204 -30 121 49T37 271Q37 400 98 504T265 667T500 726Q588 726 639 697T690 615Q690 572 659 545T579
517Q531 517 491 541T427 612Q368 590 321 539T248 416T221 266Q221 172 256 120T356 67Q403 67 441 91T501 158T527 253L454 316Q494 343 539 360T624 377Q662 377 677 363T692 317Q692 301 668 217Q641 119 625 46T608 -81Q608 -130 633 -149Z" />
<glyph unicode="H" glyph-name="H" horiz-adv-x="821" d="M781 620T747 429Q725 306 713 230T701 122Q701 83 707 57T729 12Q678 -26 623 -26Q569 -26 545 1T521 88Q521 144 541 276H279Q259 161 259 122Q259 83 265 58T286 12Q236 -26 181 -26Q127 -26 103 1T79
88Q79 138 93 237T147 576L103 665Q198 726 275 726Q339 726 339 648Q339 622 302 414L296 377H557L590 576L545 665Q640 726 717 726Q781 726 781 648Q781 620 747 429Z" />
<glyph unicode="I" glyph-name="I" horiz-adv-x="378" d="M79 139T93 238T147 576L103 665Q198 726 275 726Q339 726 339 648Q339 620 305 429Q283 304 271 229T259 123Q259 84 265 59T286 13Q236 -25 181 -25Q127 -25 103 2T79 89Q79 139 93 238Z" />
<glyph unicode="J" glyph-name="J" horiz-adv-x="583" d="M577 590T538 558L499 275Q475 109 395 42T183 -25Q107 -25 56 8T5 97Q5 137 32 162T101 188Q144 188 177 159T228 76Q253 86 269 105T296 163T318 275L351 513Q254 513 197 526T113 569T86 647Q86 690
101 732Q163 699 242 674T372 646Q390 685 419 705T484 726Q529 726 553 704T577 640Q577 590 538 558Z" />
<glyph unicode="K" glyph-name="K" horiz-adv-x="717" d="M552 265T606 161T709 21Q691 3 655 -11T589 -25Q548 -25 520 -10T469 40T419 142L351 315L278 272Q259 156 259 122Q259 83 265 58T286 12Q238 -26 181 -26Q127 -26 103 1T79 88Q79 139 93 241T147 576L103
665Q198 726 275 726Q339 726 339 648Q339 631 328 563T304 419L296 375L336 405Q432 477 476 535T521 647Q521 667 513 689Q570 725 625 725Q666 725 689 704T712 643Q712 589 663 532T506 407Q552 265 606 161Z" />
<glyph unicode="L" glyph-name="L" horiz-adv-x="549" d="M530 119T530 90Q530 34 493 5T384 -25Q318 -25 260 -7Q223 -26 181 -26Q127 -26 103 1T79 88Q79 138 93 238T147 576L103 665Q198 726 275 726Q339 726 339 648Q339 620 305 429Q283 306 271 230T259
122V112H387Q451 120 520 146Q530 119 530 90Z" />
<glyph unicode="M" glyph-name="M" horiz-adv-x="1032" d="M127 -26T104 4T80 99Q80 149 94 250T147 576L103 665Q199 726 274 726Q340 726 378 691T445 554T502 243H514Q545 355 602 465T739 649T909 722Q953 722 972 700T991 637Q991 616 976 530T958 428Q912
179 912 132Q912 52 940 11Q887 -27 834 -27Q780 -27 756 3T732 98Q732 148 746 241T795 536H787Q733 478 691 395T622 228T588 82Q566 62 539 52T486 41Q445 41 421 77T377 216T330 536H322Q298 415 279 295T259 133Q259 52 287 12Q236 -26 182 -26Q127 -26 104
4Z" />
<glyph unicode="N" glyph-name="N" horiz-adv-x="856" d="M817 632T806 567T782 428Q736 171 736 123Q736 84 742 58T764 12Q714 -26 658 -26Q575 -26 527 18T438 183T338 570H329L304 421Q259 171 259 122Q259 83 265 58T286 12Q236 -26 181 -26Q127 -26 103
1T79 88Q79 138 93 237T147 576L103 665Q198 726 274 726H275V726H276Q348 725 389 687T466 541T556 194H564Q574 274 625 577L586 666Q630 695 673 711T752 727Q817 727 817 649Q817 632 806 567Z" />
<glyph unicode="O" glyph-name="O" horiz-adv-x="762" d="M494 367T494 491Q494 545 527 581T611 618Q672 618 706 568T740 431Q740 303 688 199T545 35T342 -25Q251 -25 183 13T77 121T39 282Q39 413 92 514T233 670T423 725Q483 725 510 705T538 643Q538 628
536 617T526 590Q515 593 498 595T468 598Q397 598 342 557T255 444T223 284Q223 178 265 123T382 67Q434 67 484 98T570 185T616 312Q494 367 494 491Z" />
<glyph unicode="P" glyph-name="P" horiz-adv-x="708" d="M553 724T602 693T677 611T703 500Q703 424 668 357T560 247T383 205Q319 205 270 225Q259 141 259 122Q259 83 265 58T286 12Q236 -26 181 -26Q127 -26 103 1T79 88Q79 138 93 237T147 576L103 665Q198
726 275 726Q319 726 333 688Q397 724 485 724Q553 724 602 693ZM388 311T429 333T494 396T517 486Q517 541 488 578T398 615Q367 615 334 601L309 453Q294 370 286 317Q310 311 335 311Q388 311 429 333Z" />
<glyph unicode="Q" glyph-name="Q" horiz-adv-x="783" d="M597 -46T677 -18Q686 -45 686 -75Q686 -133 650 -170T549 -207Q480 -207 409 -175T259 -92Q238 -122 209 -136T153 -150Q121 -150 103 -130T84 -81Q84 -47 111 -24T185 0Q204 0 213 -1Q131 32 85 106T39
282Q39 413 92 514T233 670T423 725Q483 725 510 705T538 643Q538 628 536 617T526 590Q515 593 498 595T468 598Q397 598 342 557T255 444T223 284Q223 178 265 123T382 67Q434 67 484 98T570 185T616 312Q494 367 494 491Q494 545 527 581T611 618Q672 618 706
568T740 431Q740 304 689 200T547 36T346 -25Q393 -35 430 -40T504 -46Q597 -46 677 -18Z" />
<glyph unicode="R" glyph-name="R" horiz-adv-x="739" d="M606 186T647 118T725 21Q707 3 670 -11T604 -25Q563 -25 535 -10T484 40T435 142L396 240H383Q319 240 274 259Q259 164 259 122Q259 83 265 58T286 12Q236 -26 181 -26Q127 -26 103 1T79 88Q79 138 93
237T147 576L103 665Q198 726 275 726Q319 726 333 688Q397 724 485 724Q553 724 602 695T677 618T703 515Q703 446 668 384T567 283Q606 186 647 118ZM416 346T466 389T517 501Q517 549 488 582T398 615Q367 615 334 601L304 434L289 351Q314 346 335 346Q416
346 466 389Z" />
<glyph unicode="S" glyph-name="S" horiz-adv-x="724" d="M187 -25T118 10T49 108Q49 133 61 158T96 200Q133 141 187 108T312 75Q382 75 425 98T469 166Q469 199 435 219T328 265Q253 292 206 316T125 382T91 489Q91 563 139 616T270 698T459 726Q531 726 585
711T669 670T699 608Q699 560 667 534T585 507Q537 507 501 534T444 615Q367 607 321 579T274 510Q274 477 308 458T416 413Q490 387 537 365T618 301T652 197Q652 129 607 79T487 2T321 -25Q187 -25 118 10Z" />
<glyph unicode="T" glyph-name="T" horiz-adv-x="609" d="M640 682T640 636Q640 584 606 554T510 524Q474 524 425 531Q410 447 409 442Q386 315 374 239T362 133Q362 52 390 12Q337 -26 284 -26Q229 -26 206 4T182 99Q182 147 197 248T248 559L222 560L66 526Q52
559 52 603Q52 658 86 686T182 715Q215 715 246 711T328 697Q363 691 400 686T470 679L625 713Q640 682 640 636Z" />
<glyph unicode="U" glyph-name="U" horiz-adv-x="806" d="M571 -26T547 4T522 89Q522 140 535 180H526Q479 88 403 32T239 -24Q159 -24 121 23T82 152Q82 194 94 276T147 576L103 665Q156 697 196 711T274 726Q307 726 323 707T339 648Q339 630 324 554T306 462Q290
380 276 300T261 196Q261 149 277 127T331 105Q366 105 405 132T479 208T538 321Q522 372 522 444Q522 518 544 582T608 686T711 726Q755 726 792 706Q758 580 728 409T698 133Q698 50 723 12Q676 -26 620 -26Q571 -26 547 4Z" />
<glyph unicode="V" glyph-name="V" horiz-adv-x="684" d="M88 385Q88 498 75 570T20 688Q70 726 126 726Q175 726 205 694T249 587T264 380Q264 186 260 90H272Q390 273 448 400T506 591Q506 647 484 688Q541 726 604 726Q642 726 663 702T684 632Q684 566 631
442T449 91L466 44Q431 12 372 -9T261 -30Q196 -30 159 -6T104 72T87 222L88 385Z" />
<glyph unicode="W" glyph-name="W" horiz-adv-x="1030" d="M1029 567T977 445T800 91L822 44Q792 12 741 -9T643 -30Q590 -30 561 -8T518 58T499 173L495 218Q440 124 398 71T312 -6T215 -30Q149 -30 122 15T95 162L96 341Q96 470 81 553T20 688Q70 726 129 726Q181
726 211 694T256 587T270 380Q270 199 269 151V90H281Q414 244 480 419L461 653Q502 690 556 690Q598 690 620 665T643 592Q643 523 602 422L616 90H628Q740 272 795 400T850 591Q850 643 826 688Q884 726 947 726Q987 726 1008 702T1029 632Q1029 567 977 445Z"
/>
<glyph unicode="X" glyph-name="X" horiz-adv-x="788" d="M614 151T651 114T742 56Q716 14 678 -8T596 -30Q547 -30 512 0T435 108L358 253Q216 143 216 58Q216 31 226 8Q170 -30 111 -30Q72 -30 49 -4T25 64Q25 112 69 164T221 292L305 351L236 480Q202 544 165
581T73 639Q100 681 138 703T220 726Q270 726 305 696T382 587L455 450Q522 503 555 551T588 638Q588 667 579 688Q604 706 634 716T693 726Q732 726 755 700T778 631Q778 584 734 532T584 405L508 350L580 215Q614 151 651 114Z" />
<glyph unicode="Y" glyph-name="Y" horiz-adv-x="822" d="M741 726T761 702T782 633Q782 459 697 252T458 -98T109 -242Q24 -242 -19 -212T-63 -127Q-63 -103 -52 -80T-24 -41Q-2 -72 32 -91T125 -110Q169 -110 223 -89T333 -28Q251 -17 212 38T163 169T152 365Q151
452 147 506T127 610T81 688Q131 726 187 726Q252 726 283 683T322 573T330 402V357Q330 270 335 213T359 111T418 49Q503 143 554 279T605 591Q605 647 582 688Q640 726 702 726Q741 726 761 702Z" />
<glyph unicode="Z" glyph-name="Z" horiz-adv-x="692" d="M677 572T588 539L309 155Q374 136 414 126T485 116L620 178Q645 128 645 88Q645 55 624 28T566 -14T485 -30Q425 -30 368 -16T222 31Q190 2 163 -10T105 -22Q68 -22 44 2T20 65Q20 113 54 146T144 185L384
513Q280 514 218 527T127 570T98 647Q98 690 116 732Q195 699 296 674T462 646Q486 684 518 705T585 726Q629 726 653 704T677 642Q677 572 588 539Z" />
<glyph unicode="[" glyph-name="bracketleft" horiz-adv-x="432" d="M143 -157T109 -119T74 15Q74 140 92 272T152 584Q171 670 198 717T264 782T365 800Q425 800 450 778T475 713Q475 684 471 669Q458 674 415 679T347 685Q297 556 266 350T234 -42Q260 -42 300
-37T352 -26Q359 -47 359 -72Q359 -113 325 -135T214 -157Q143 -157 109 -119Z" />
<glyph unicode="\" glyph-name="backslash" horiz-adv-x="674" d="M510 -67T488 -73T445 -80Q413 -80 394 -61T366 0Q248 532 150 813Q163 823 186 829T229 836Q261 836 280 817T308 756Q423 237 524 -57Q510 -67 488 -73Z" />
<glyph unicode="]" glyph-name="bracketright" horiz-adv-x="432" d="M300 801T334 763T369 629Q369 504 351 372T291 60Q272 -26 245 -73T179 -138T78 -156Q18 -156 -7 -134T-32 -69Q-32 -40 -28 -25Q-15 -30 28 -35T96 -41Q146 88 177 294T209 686Q183 686 143
681T91 670Q84 691 84 716Q84 757 118 779T229 801Q300 801 334 763Z" />
<glyph unicode="^" glyph-name="asciicircum" horiz-adv-x="683" d="M651 520Q620 491 591 471T543 451Q528 451 517 464T495 509L412 737L258 509Q237 478 222 465T191 451Q157 451 106 520L350 879Q370 910 386 924T417 938H472Q487 938 498 925T521 879L651 520Z" />
<glyph unicode="_" glyph-name="underscore" horiz-adv-x="671" d="M10 -201T-10 -187T-30 -136Q-30 -94 -6 -27Q54 -48 125 -48Q174 -48 231 -40T298 -31Q360 -22 401 -18T481 -13Q536 -13 556 -26T577 -78Q577 -120 553 -187Q493 -166 422 -166Q362 -166 249
-183Q187 -192 146 -196T65 -201Q10 -201 -10 -187Z" />
<glyph unicode="`" glyph-name="grave" horiz-adv-x="600" d="M285 660T269 665T218 683Q169 703 128 714T37 725Q27 758 27 791Q27 828 42 847T88 867Q116 867 143 852T210 806Q251 776 281 757T349 726Q346 695 333 678T300 660Q285 660 269 665Z" />
<glyph unicode="a" glyph-name="a" horiz-adv-x="747" d="M619 37T645 16Q595 -25 540 -25Q496 -25 472 1T448 75Q448 93 453 121L443 126Q412 55 358 15T239 -25Q184 -25 142 4T77 86T54 210Q54 322 104 411T244 550T447 600Q490 600 532 592Q540 574 543 549Q578
575 622 575Q654 575 671 558T688 509Q688 488 682 456T662 368Q641 275 630 213T619 92Q619 37 645 16ZM393 117T443 216T517 522Q432 516 365 477T261 374T223 235Q223 179 246 148T312 117Q393 117 443 216Z" />
<glyph unicode="b" glyph-name="b" horiz-adv-x="746" d="M563 600T605 572T671 491T694 370Q694 257 637 167T479 26T251 -25Q164 -25 125 13T85 138Q85 187 103 296T166 644L115 713Q152 740 194 757T274 774Q313 774 329 759T346 709Q346 686 339 653T315 548L292
450L302 445Q334 518 388 559T508 600Q563 600 605 572ZM312 69T379 107T486 206T525 340Q525 396 502 427T435 458Q381 458 334 409T259 269T230 63Q312 69 379 107Z" />
<glyph unicode="c" glyph-name="c" horiz-adv-x="631" d="M197 -25T128 42T58 228Q58 334 107 419T241 552T433 600Q510 600 555 573T601 499Q601 461 574 436T505 411Q465 411 432 432T378 495Q335 478 301 438T247 342T227 225Q227 148 253 106T328 64Q384 64
423 108T466 217Q518 217 545 198T573 141Q573 96 539 58T447 -2T319 -25Q197 -25 128 42Z" />
<glyph unicode="d" glyph-name="d" horiz-adv-x="749" d="M715 689T708 650T694 582T685 541Q656 415 639 311T621 106Q621 71 627 51T648 16Q626 -4 598 -14T543 -25Q495 -25 473 4T450 94L451 122L441 126Q409 55 356 15T238 -25Q183 -25 141 4T76 86T53 210Q53
315 103 398T243 528T446 575Q488 575 521 569L535 645L484 714Q521 741 563 758T643 775Q682 775 698 760T715 710Q715 689 708 650ZM481 339T509 497Q426 491 361 455T259 362T222 235Q222 179 245 148T311 117Q357 117 400 155T469 257V256Q481 339 509 497Z"
/>
<glyph unicode="e" glyph-name="e" horiz-adv-x="657" d="M621 387T574 337T438 260T226 232V219Q226 146 252 105T324 64Q380 64 416 103T455 206Q507 206 534 187T562 130Q562 88 528 53T436 -4T306 -25Q189 -25 123 41T57 223Q57 330 106 416T243 551T438 600Q525
600 573 562T621 456Q621 387 574 337ZM351 504T302 446T234 300Q348 305 410 342T473 444Q473 471 456 487T411 504Q351 504 302 446Z" />
<glyph unicode="f" glyph-name="f" horiz-adv-x="437" d="M316 601T282 626L270 617L314 471Q364 480 410 496Q417 475 417 455Q417 419 395 398T332 371Q300 241 280 111T259 -83Q259 -138 286 -159Q226 -200 177 -200Q133 -200 108 -174T83 -98Q83 -53 101 53T159
354Q123 348 81 333Q74 354 74 374Q74 414 101 436T176 460Q169 513 169 566Q169 673 216 730T348 787Q396 787 428 760T460 692Q460 651 433 626T361 601Q316 601 282 626Z" />
<glyph unicode="g" glyph-name="g" horiz-adv-x="690" d="M622 577T637 562T652 519Q652 319 603 148T445 -130T164 -237Q78 -237 30 -210T-19 -133Q-19 -106 -3 -79T37 -36Q82 -112 181 -112Q262 -112 335 -51T450 151H425Q393 83 336 46T212 8Q156 8 113 36T46
115T22 235Q22 340 71 423T209 553T416 600Q463 600 501 592Q509 571 512 547Q548 577 593 577Q622 577 637 562ZM487 402Q488 421 488 461Q488 501 487 522H486L487 402ZM329 121T374 157T453 284T486 522Q401 517 334 480T229 382T191 249Q191 188 216 155T286
121Q329 121 374 157Z" />
<glyph unicode="h" glyph-name="h" horiz-adv-x="753" d="M116 -25T93 1T69 78Q69 145 142 514L167 645L115 714Q151 741 194 758T274 775Q313 775 330 760T347 710Q347 688 340 655T317 554Q313 535 302 490T283 406L293 401Q350 502 423 551T573 600Q636 600
666 570T697 474Q697 438 690 400T667 296Q651 231 642 184T633 92Q633 68 638 48T651 16Q607 -25 559 -25Q508 -25 485 1T461 78Q461 118 470 163T496 272Q510 327 516 358T523 414Q523 471 478 471Q431 471 375 421T280 284T241 92Q241 39 258 16Q216 -25 167
-25Q116 -25 93 1Z" />
<glyph unicode="i" glyph-name="i" horiz-adv-x="388" d="M209 667T184 686T158 740Q158 782 194 808T275 835Q316 835 341 816T367 763Q367 721 333 694T250 667Q209 667 184 686ZM127 -25T104 0T80 78Q80 118 98 214T152 467L101 538Q139 566 183 583T265 600Q302
600 317 585T333 533Q333 519 310 422Q284 314 268 233T252 92Q252 36 278 16Q231 -25 178 -25Q127 -25 104 0Z" />
<glyph unicode="j" glyph-name="j" horiz-adv-x="397" d="M202 677T177 694T151 741Q151 779 187 802T268 825Q309 825 334 808T360 762Q360 725 326 701T243 677Q202 677 177 694ZM-3 -210T-28 -186T-54 -124Q-54 -84 -28 -61T44 -38Q68 -38 85 -46T124 -69L134
-55Q102 -26 92 0T81 66Q81 98 116 293Q140 431 146 467L95 538Q133 566 176 583T259 600Q295 600 310 585T326 533Q326 501 301 362T233 7Q213 -89 167 -149T47 -210Q-3 -210 -28 -186Z" />
<glyph unicode="k" glyph-name="k" horiz-adv-x="697" d="M579 142T610 109T692 55Q643 -25 562 -25Q515 -25 482 4T410 105L345 224L255 174Q253 128 253 106Q253 71 259 51T280 16Q258 -4 230 -14T175 -25Q127 -25 105 4T82 94Q82 142 106 292T167 645L115 714Q151
741 194 758T274 775Q313 775 330 760T347 710Q347 687 340 650T316 538Q278 373 264 268L322 314Q407 384 447 431T488 529Q488 549 480 571Q531 600 582 600Q621 600 645 577T669 515Q669 463 627 413T491 306L555 190Q579 142 610 109Z" />
<glyph unicode="l" glyph-name="l" horiz-adv-x="381" d="M127 -25T105 4T82 94Q82 142 106 292T167 645L115 714Q151 741 194 758T274 775Q313 775 330 760T347 710Q347 689 340 649T317 539Q288 408 271 303T253 106Q253 71 259 51T280 16Q258 -4 230 -14T175
-25Q127 -25 105 4Z" />
<glyph unicode="m" glyph-name="m" horiz-adv-x="1126" d="M121 -25T98 1T74 78Q74 121 97 245T146 478L97 546Q134 570 175 584T255 599Q292 599 309 582T326 531Q326 505 319 476T300 422L310 417Q364 514 427 557T566 600Q624 600 655 570T686 482Q686 452
677 422L687 417Q743 514 806 557T946 600Q1009 600 1039 570T1070 474Q1070 438 1063 400T1040 296Q1024 231 1015 184T1006 92Q1006 68 1011 48T1024 16Q980 -25 932 -25Q881 -25 858 -1T834 73Q834 115 842 158T869 273Q883 327 889 357T896 412Q896 441 886
456T851 471Q806 471 753 421T663 284T626 92Q626 68 631 48T644 16Q600 -25 552 -25Q501 -25 478 -1T454 73Q454 115 462 158T489 273Q503 327 509 357T516 412Q516 471 471 471Q426 471 373 421T283 284T246 92Q246 68 251 48T264 16Q220 -25 172 -25Q121 -25
98 1Z" />
<glyph unicode="n" glyph-name="n" horiz-adv-x="758" d="M121 -25T98 1T74 78Q74 119 97 243T146 478L97 546Q134 570 175 584T255 599Q292 599 309 582T326 531Q326 505 319 476T300 422L310 417Q414 600 578 600Q641 600 671 569T702 474Q702 438 695 400T672
296Q656 231 647 184T638 92Q638 41 656 16Q612 -25 564 -25Q513 -25 490 1T467 78Q467 118 475 161T501 272Q515 327 521 358T528 414Q528 471 483 471Q433 471 377 418T284 278T246 92Q246 41 264 16Q218 -25 172 -25Q121 -25 98 1Z" />
<glyph unicode="o" glyph-name="o" horiz-adv-x="721" d="M241 -25T182 7T91 99T59 238Q59 343 106 425T237 554T427 600Q465 600 501 592Q512 561 511 523Q424 523 360 485T262 382T228 234Q228 149 258 107T344 64Q414 64 461 120T519 274Q442 319 442 403Q442
455 473 490T551 526Q605 526 637 482T670 364Q670 257 624 168T497 27T320 -25Q241 -25 182 7Z" />
<glyph unicode="p" glyph-name="p" horiz-adv-x="765" d="M582 600T624 571T689 489T712 365Q712 260 662 177T522 47T320 0Q276 0 236 8Q233 -31 233 -70Q233 -102 239 -122T260 -159Q239 -178 211 -189T155 -200Q107 -200 85 -174T62 -92Q62 -55 87 108T147
470L96 539Q134 567 176 583T255 600Q294 600 310 585T327 535Q327 510 315 448L325 443Q356 517 409 558T527 600Q582 600 624 571ZM331 81T399 115T506 208T544 340Q544 396 521 427T454 458Q391 458 335 364T247 110Q245 99 243 77Q331 81 399 115Z" />
<glyph unicode="q" glyph-name="q" horiz-adv-x="737" d="M688 480T678 426T646 264Q603 58 582 -69L633 -138Q596 -165 554 -182T474 -199Q435 -199 419 -184T402 -134Q402 -111 409 -76T433 33L453 121L443 126Q412 55 358 15T239 -25Q184 -25 142 4T77 86T54
210Q54 322 104 411T244 550T447 600Q492 600 532 592Q540 574 543 548Q577 575 622 575Q654 575 671 558T688 509Q688 480 678 426ZM366 117T413 168T488 311T517 522Q432 516 365 477T261 374T223 235Q223 179 246 148T312 117Q366 117 413 168Z" />
<glyph unicode="r" glyph-name="r" horiz-adv-x="524" d="M121 -25T98 2T74 83Q74 121 96 243T147 478L97 546Q167 599 224 599Q260 599 277 581T295 531Q295 499 286 466T260 390L270 385Q312 494 355 547T461 600Q502 600 525 578T548 517Q548 472 518 444T433
415Q384 415 341 371T272 251T246 92Q246 41 264 16Q220 -25 172 -25Q121 -25 98 2Z" />
<glyph unicode="s" glyph-name="s" horiz-adv-x="634" d="M157 -25T99 6T40 91Q40 114 54 138T93 179Q120 130 163 103T266 76Q314 76 352 96T391 153Q391 176 364 190T278 223Q215 243 174 261T104 314T74 400Q74 497 162 548T386 600Q482 600 539 571T596 495Q596
453 567 430T495 406Q455 406 423 431T372 505Q315 500 278 477T241 420Q241 395 268 381T356 346Q418 326 459 308T529 255T558 167Q558 106 517 63T412 -3T275 -25Q157 -25 99 6Z" />
<glyph unicode="t" glyph-name="t" horiz-adv-x="457" d="M456 547T469 537T482 499Q482 474 466 439Q427 451 374 451H353Q326 358 309 274T290 106L337 27Q309 2 277 -11T214 -25Q169 -25 143 -2T117 86Q117 134 129 196T165 348L185 432Q159 430 146 430Q112
430 99 440T86 477Q86 506 102 538Q139 526 195 526H201V532Q201 585 182 638Q211 665 250 681T330 698Q367 698 382 682T398 629Q398 606 381 545Q409 547 422 547Q456 547 469 537Z" />
<glyph unicode="u" glyph-name="u" horiz-adv-x="756" d="M621 37T647 16Q600 -25 547 -25Q500 -25 476 -1T449 73L440 78Q402 31 348 3T233 -25Q152 -25 113 14T74 137Q74 175 80 217T99 323Q109 376 114 411T120 474Q120 530 103 559Q136 577 171 588T229 600Q266
600 282 584T299 531Q299 507 291 464T267 345Q256 292 247 242T237 169Q237 78 316 78Q355 78 392 102T458 170Q471 249 520 463L470 538Q567 600 634 600Q671 600 686 585T702 533Q702 519 679 422Q653 314 637 233T621 92Q621 37 647 16Z" />
<glyph unicode="v" glyph-name="v" horiz-adv-x="685" d="M112 318Q112 411 101 469T54 564Q100 600 154 600Q198 600 224 575T264 491T278 329Q278 157 275 83H285Q381 224 430 329T480 486Q480 527 461 564Q486 581 515 590T574 600Q610 600 629 580T649 520Q649
470 607 379T452 93L472 49Q437 17 381 -4T273 -25Q213 -25 178 -5T127 62T111 186L112 318Z" />
<glyph unicode="w" glyph-name="w" horiz-adv-x="940" d="M904 470T867 379T731 93L751 49Q721 17 673 -4T581 -25Q514 -25 486 15T448 147Q391 55 344 15T230 -25Q166 -25 139 16T112 155L113 297Q113 397 102 461T54 564Q100 600 154 600Q198 600 224 575T264
491T278 329Q278 181 276 83H286Q384 194 433 331L416 538Q456 570 500 570Q538 570 558 548T578 484Q578 423 542 330L554 83H564Q649 224 692 329T735 486Q735 527 716 564Q741 581 770 590T829 600Q865 600 884 580T904 520Q904 470 867 379Z" />
<glyph unicode="x" glyph-name="x" horiz-adv-x="688" d="M526 139T557 106T636 55Q585 -25 499 -25Q456 -25 427 -1T363 89L304 197Q205 119 205 54Q205 30 213 11Q158 -25 103 -25Q68 -25 46 -2T24 60Q24 104 64 150T197 257L251 293L202 384Q176 435 145 467T65
519Q116 600 202 600Q246 600 275 576T339 485L394 383Q487 458 487 521Q487 545 479 564Q533 601 588 601Q624 601 645 578T667 515Q667 471 627 425T495 319L447 286L499 190Q526 139 557 106Z" />
<glyph unicode="y" glyph-name="y" horiz-adv-x="695" d="M669 600T669 523Q669 387 596 216T392 -78T93 -200Q17 -200 -22 -173T-62 -97Q-62 -74 -51 -52T-24 -16Q16 -76 104 -76Q137 -76 177 -62T257 -21Q192 -9 162 37T123 142T114 300Q113 406 103 468T55
564Q102 600 155 600Q210 600 238 566T274 478T282 345V274Q282 183 293 129T342 53Q413 131 456 245T499 507Q499 541 495 564Q517 581 542 590T590 600Q669 600 669 523Z" />
<glyph unicode="z" glyph-name="z" horiz-adv-x="609" d="M539 168Q560 121 560 83Q560 36 518 6T417 -25Q365 -25 319 -13T203 25Q175 2 151 -8T99 -18Q62 -18 41 6T19 64Q19 104 49 136T134 174L313 403Q226 404 176 417T105 458T84 528Q84 548 95 605Q161 577
249 555T386 530Q401 561 431 580T494 600Q538 600 561 578T585 520Q585 455 508 426L290 143Q378 115 417 115L539 168Z" />
<glyph unicode="{" glyph-name="braceleft" horiz-adv-x="409" d="M92 299T74 314T56 353Q56 375 73 391T116 407Q143 407 160 390Q155 427 152 486T149 591Q149 714 202 757T344 800Q459 800 459 713Q459 689 453 669Q440 674 396 679T326 685Q307 574 288 509T246
409T189 347Q217 316 232 273T247 182Q247 153 211 -42Q237 -42 277 -37T330 -26Q336 -49 336 -72Q336 -112 300 -134T192 -157Q121 -157 87 -123T52 -18Q52 44 76 133T145 304Q134 299 117 299Q92 299 74 314Z" />
<glyph unicode="|" glyph-name="bar" horiz-adv-x="471" d="M252 745L233 842Q263 859 298 869T364 880Q402 880 418 864T434 812L239 -45L257 -142Q227 -159 193 -169T127 -180Q89 -180 73 -164T56 -112L252 745Z" />
<glyph unicode="}" glyph-name="braceright" horiz-adv-x="409" d="M328 345T346 330T364 291Q364 269 347 253T304 237Q277 237 260 254Q265 217 268 158T271 53Q271 -70 218 -113T76 -156Q-39 -156 -39 -69Q-39 -45 -33 -25Q-20 -30 24 -35T94 -41Q113 70 132
135T174 235T231 297Q203 328 188 371T173 462Q173 491 209 686Q183 686 143 681T90 670Q84 693 84 716Q84 756 120 778T228 801Q299 801 333 767T368 662Q368 600 344 511T275 340Q286 345 303 345Q328 345 346 330Z" />
<glyph unicode="~" glyph-name="asciitilde" horiz-adv-x="719" d="M542 330T483 321T339 295Q282 283 247 277T183 271Q147 271 133 285T118 330Q118 365 143 416Q205 416 264 425T408 451Q471 463 503 468T564 474Q600 474 614 460T628 415Q628 381 604 330Q542
330 483 321Z" />
<glyph unicode="&#xa1;" glyph-name="exclamdown" horiz-adv-x="398" d="M305 600T331 574T358 509Q358 465 327 432T249 399Q209 399 183 425T156 490Q156 534 188 567T265 600Q305 600 331 574ZM255 308T268 290T281 237Q281 215 273 167T263 110Q239 -20 239
-67Q239 -89 244 -111T262 -145Q235 -172 198 -186T117 -200Q67 -200 45 -174T22 -104Q22 -44 62 77T139 276Q156 291 180 299T223 308Q255 308 268 290Z" />
<glyph unicode="&#xa2;" glyph-name="cent" horiz-adv-x="570" d="M517 284T517 215Q517 163 465 124T331 76L321 13Q313 -30 294 -50T241 -71Q222 -71 201 -66T165 -52Q175 -18 202 86Q133 106 95 160T57 293Q57 371 89 435T181 542T316 599L340 706Q350 747
369 766T419 786Q440 786 462 780T499 763Q483 718 446 599Q490 590 514 567T539 512Q539 477 515 455T454 432Q418 432 388 452T340 507Q287 487 251 426T215 291Q215 228 238 192T301 156Q349 156 382 193T417 284Q517 284 517 215Z" />
<glyph unicode="&#xa3;" glyph-name="sterling" horiz-adv-x="638" d="M575 175Q600 124 600 86Q600 54 579 27T522 -15T443 -30Q392 -30 344 -16T220 30Q189 2 162 -10T104 -22Q68 -22 45 2T21 63Q21 107 50 138T127 180L138 289H126Q90 289 77 298T63 334Q63
361 80 391Q104 384 146 380L155 471Q178 703 407 703Q511 703 566 673T621 584Q621 562 614 538T593 493Q553 515 489 527T351 540L325 392Q379 399 418 399Q455 399 468 390T481 355Q481 326 465 298Q423 309 368 309Q339 309 309 306L283 156L304 149Q355 131
386 122T443 113L575 175Z" />
<glyph unicode="&#xa4;" glyph-name="currency" horiz-adv-x="679" d="M579 309T559 266T501 192Q521 156 573 74Q557 54 525 37T470 20Q431 20 404 74L392 100Q387 112 375 136Q352 132 321 132Q280 132 247 141L231 116L204 74Q186 47 168 34T130 20Q108 20
78 37T35 74Q97 151 143 214Q116 255 116 312Q116 363 137 405T198 478Q160 542 124 597Q140 616 171 633T227 651Q267 651 293 598L324 532Q358 539 401 539Q424 539 449 534L490 598Q525 651 564 651Q588 651 616 634T658 597Q605 530 553 461Q579 418 579 359Q579
309 559 266ZM263 279T279 258T326 236Q376 236 404 275T433 370Q433 401 416 418T352 435Q332 435 313 430Q288 405 276 374T263 313Q263 279 279 258Z" />
<glyph unicode="&#xa5;" glyph-name="yen" horiz-adv-x="656" d="M613 427T622 417T631 386Q631 359 613 329Q577 339 522 339Q489 303 454 274Q514 280 544 280Q580 280 594 270T608 235Q608 208 590 178Q554 189 494 189Q462 189 402 183Q388 127 388 83Q388
61 392 45T408 11Q356 -25 302 -25Q253 -25 231 -3T209 68Q209 109 225 177Q171 169 124 169Q88 169 75 179T61 214Q61 241 78 271Q118 259 176 259Q200 259 212 260Q195 284 188 321Q162 319 148 319Q112 319 99 329T85 365Q85 394 101 422Q132 413 179 410Q173
512 158 571T99 664Q149 700 208 700Q266 700 296 655T337 537T352 343H360Q412 403 450 480T488 603Q488 635 466 664Q491 680 522 690T580 700Q619 700 639 682T660 628Q660 585 642 534T590 430Q613 427 622 417Z" />
<glyph unicode="&#xa6;" glyph-name="brokenbar" horiz-adv-x="471" d="M355 465H188L252 745L233 842Q263 859 298 869T364 880Q402 880 418 864T434 812L355 465ZM303 236L239 -45L257 -142Q227 -159 193 -169T127 -180Q89 -180 73 -164T56 -112L136 236H303Z" />
<glyph unicode="&#xa7;" glyph-name="section" horiz-adv-x="717" d="M377 696T338 674T299 610Q299 579 329 560T427 516Q496 490 539 468T613 404T645 300Q645 204 563 141Q604 95 604 29Q604 -37 560 -86T445 -161T292 -187Q165 -187 101 -153T36 -59Q36 -34
48 -9T81 33Q154 -88 284 -88Q345 -88 384 -66T423 -2Q423 29 393 48T295 92Q226 118 183 140T109 204T77 308Q77 405 159 466Q118 514 118 579Q118 645 162 694T277 769T430 795Q557 795 621 761T686 667Q686 642 674 617T641 575Q568 696 438 696Q377 696 338
674ZM463 310T433 328T335 371Q305 381 290 387Q259 362 259 329Q259 297 290 279T389 237L432 221Q463 246 463 279Q463 310 433 328Z" />
<glyph unicode="&#xa8;" glyph-name="dieresis" horiz-adv-x="600" d="M156 667T135 686T113 740Q113 782 144 808T215 835Q252 835 275 816T299 763Q299 721 268 694T191 667Q156 667 135 686ZM441 667T418 686T394 740Q394 782 427 808T502 835Q537 835 558
816T580 763Q580 721 550 694T478 667Q441 667 418 686Z" />
<glyph unicode="&#xa9;" glyph-name="copyright" horiz-adv-x="896" d="M334 150T257 189T133 305T85 493Q85 613 141 704T299 846T537 896Q582 896 605 888T638 863T650 818Q730 775 770 703T811 546Q811 422 756 332T611 196T424 150Q334 150 257 189ZM523 213T598
260T715 383T756 543Q756 609 725 671T631 774T480 815Q387 815 313 779T197 670T154 494Q154 401 190 338T288 244T423 213Q523 213 598 260ZM365 321T322 362T279 478Q279 546 310 601T395 687T516 719Q561 719 588 704T615 660Q615 638 599 623T557 608Q533
608 512 620T479 658Q434 641 405 590T376 475Q376 425 394 398T444 370Q482 370 507 398T535 469Q594 469 594 425Q594 396 574 373T518 335T441 321Q365 321 322 362Z" />
<glyph unicode="&#xaa;" glyph-name="ordfeminine" horiz-adv-x="573" d="M505 415T511 397T529 370Q481 333 431 333Q392 333 372 354T351 415Q351 421 353 437L346 440Q326 390 288 362T204 333Q146 333 111 377T75 495Q75 575 113 638T215 735T356 770Q386
770 410 764Q416 749 417 727Q449 753 493 753Q519 753 533 738T547 693Q547 673 530 597Q517 535 511 502T505 438Q505 415 511 397ZM325 461T353 519T393 701Q312 694 268 647T224 532Q224 498 238 480T276 461Q325 461 353 519Z" />
<glyph unicode="&#xab;" glyph-name="guillemotleft" horiz-adv-x="661" d="M309 549T331 530T353 481Q353 447 322 418T223 345Q185 320 158 300L177 280Q244 211 269 175T295 101Q295 70 271 48T204 25Q40 229 40 288Q40 319 66 355T138 432T275 549Q309 549
331 530ZM591 549T613 530T635 481Q635 447 604 418T504 344Q450 308 439 300L453 285Q523 213 549 177T576 101Q576 70 552 48T486 25Q322 229 322 288Q322 319 348 355T421 433T557 549Q591 549 613 530Z" />
<glyph unicode="&#xac;" glyph-name="logicalnot" horiz-adv-x="720" d="M592 445T609 435T626 396L582 110Q521 86 483 86Q462 86 453 95T443 128Q443 136 447 166L468 300H201Q155 300 138 310T121 349Q121 388 146 445H546Q592 445 609 435Z" />
<glyph unicode="&#xae;" glyph-name="registered" horiz-adv-x="896" d="M730 775T770 703T811 546Q811 422 756 332T611 196T424 150Q334 150 257 189T133 305T85 493Q85 613 141 704T299 846T537 896Q582 896 605 888T638 863T650 818Q730 775 770 703ZM523
213T598 260T715 383T756 543Q756 609 725 671T631 774T480 815Q387 815 313 779T197 670T154 494Q154 401 190 338T288 244T423 213Q523 213 598 260ZM566 433T588 397T629 345Q620 335 601 328T565 321Q533 321 514 339T476 409L455 461H448Q416 461 390 471Q382
423 382 399Q382 361 397 340Q369 320 341 320Q312 320 300 334T287 381Q287 408 294 461T323 639L300 686Q348 719 391 719Q415 719 422 698Q455 718 502 718Q556 718 587 685T618 607Q618 570 600 537T545 484Q566 433 588 397ZM466 517T492 540T519 600Q519
625 504 642T456 660Q441 660 422 652L398 520Q410 517 423 517Q466 517 492 540Z" />
<glyph unicode="&#xaf;" glyph-name="overscore" horiz-adv-x="600" d="M97 692T97 743Q97 783 123 837Q135 832 156 829T193 825Q221 825 283 829Q347 833 382 833Q458 833 458 770Q458 736 442 704Q433 707 413 709T373 712Q335 712 257 702Q179 692 147 692Q97
692 97 743Z" />
<glyph unicode="&#xb0;" glyph-name="degree" horiz-adv-x="486" d="M174 258T122 308T69 443Q69 510 101 562T193 643T329 672Q341 672 356 670T382 663Q387 658 389 636Q442 625 469 587T496 486Q496 423 466 371T381 288T262 258Q174 258 122 308ZM304 354T328
390T353 482Q353 556 286 556Q270 556 252 550Q234 533 223 499T211 434Q211 397 226 376T266 354Q304 354 328 390Z" />
<glyph unicode="&#xb1;" glyph-name="plusminus" horiz-adv-x="722" d="M627 357T603 300H436L411 144Q350 120 312 120Q291 120 282 129T272 162Q272 170 276 200L292 300H202Q156 300 139 310T122 349Q122 388 147 445H314L339 601Q399 625 438 625Q460 625
469 616T478 582Q478 568 475 545L459 445H547Q593 445 610 435T627 396Q627 357 603 300ZM83 -154T66 -144T49 -105Q49 -66 74 -9H474Q520 -9 537 -19T554 -58Q554 -97 530 -154H129Q83 -154 66 -144Z" />
<glyph unicode="&#xb2;" glyph-name="uni00B2" horiz-adv-x="479" d="M464 386T464 357Q464 321 431 297T350 272Q313 272 280 280T207 305Q185 288 166 280T126 272Q97 272 78 291T59 339Q59 375 87 398T158 421Q164 421 178 419Q242 454 268 487T295 553Q295
578 281 594T241 610Q213 610 192 591T163 531Q130 535 112 551T94 595Q94 647 144 678T274 710Q320 710 357 693T414 647T435 583Q435 527 399 483T276 390Q326 374 350 374L448 427Q464 386 464 357Z" />
<glyph unicode="&#xb3;" glyph-name="uni00B3" horiz-adv-x="416" d="M121 272T85 290T48 340Q48 363 63 378T104 394Q127 394 149 378T186 333Q224 333 247 350T271 395Q271 423 246 440T176 457V505Q221 505 249 522T277 568Q277 591 262 604T219 617Q188 617
167 596T140 539Q110 542 94 558T77 602Q77 649 122 679T240 710Q313 710 355 681T397 600Q397 563 374 534T310 488Q350 475 372 451T395 395Q395 340 337 306T182 272Q121 272 85 290Z" />
<glyph unicode="&#xb4;" glyph-name="acute" horiz-adv-x="600" d="M106 660T93 677T77 726Q114 738 144 757T216 806Q256 837 283 852T338 867Q368 867 383 848T399 791Q399 758 389 725Q339 725 298 714T208 683Q174 670 158 665T126 660Q106 660 93 677Z" />
<glyph unicode="&#xb5;" glyph-name="uni00B5" horiz-adv-x="756" d="M621 37T647 16Q600 -25 547 -25Q500 -25 476 -1T449 73L440 78Q424 43 385 19T301 -5Q255 -5 217 22Q212 -18 212 -43Q212 -84 220 -114T241 -159Q220 -178 192 -189T136 -200Q88 -200 66
-174T43 -92Q43 -55 68 108T128 470L77 539Q115 567 157 583T236 600Q275 600 291 585T308 535Q308 513 299 466T272 341Q259 283 249 229T238 154Q238 78 316 78Q355 78 392 102T458 170Q471 249 520 463L470 538Q567 600 634 600Q671 600 686 585T702 533Q702
519 679 422Q653 314 637 233T621 92Q621 37 647 16Z" />
<glyph unicode="&#xb6;" glyph-name="paragraph" horiz-adv-x="641" d="M338 -95T312 -61T286 34Q286 114 327 220T422 422H402Q369 363 325 334T228 304Q154 304 113 352T72 473Q72 536 105 596T202 695T356 734Q445 734 515 687T585 522Q585 489 576 447T547
331Q520 230 506 160T491 21Q491 -32 517 -54Q487 -74 455 -84T394 -95Q338 -95 312 -61Z" />
<glyph unicode="&#xb7;" glyph-name="middot" horiz-adv-x="333" d="M99 196T73 222T46 287Q46 331 77 364T155 397Q195 397 221 371T248 306Q248 262 216 229T139 196Q99 196 73 222Z" />
<glyph unicode="&#xb8;" glyph-name="cedilla" horiz-adv-x="600" d="M101 -287T64 -264T27 -203Q27 -166 65 -140T158 -114Q138 -124 127 -142T115 -182Q115 -203 127 -214T162 -226Q195 -226 215 -207T236 -156Q236 -119 216 -89T157 -39Q242 -39 292 -71T342
-156Q342 -192 318 -222T253 -269T162 -287Q101 -287 64 -264Z" />
<glyph unicode="&#xb9;" glyph-name="uni00B9" horiz-adv-x="380" d="M142 419T172 557Q144 557 119 585T92 661Q131 666 159 673T221 692Q248 702 264 706T297 710Q347 710 347 654Q347 641 342 615T330 560Q300 440 300 377Q300 328 317 296Q271 272 229 272Q184
272 163 293T142 360Q142 419 172 557Z" />
<glyph unicode="&#xba;" glyph-name="ordmasculine" horiz-adv-x="521" d="M183 333T131 384T78 520Q78 592 111 649T204 738T338 770Q368 770 393 763Q403 739 402 708Q352 706 312 681T249 612T226 514Q226 463 245 437T302 410Q347 410 375 448T404 546Q404
583 394 612T359 665Q372 684 392 694T436 705Q479 705 502 672T526 583Q526 511 495 455T407 366T272 333Q183 333 131 384Z" />
<glyph unicode="&#xbb;" glyph-name="guillemotright" horiz-adv-x="670" d="M80 36T58 55T36 104Q36 138 67 167T167 241Q221 277 232 285L218 300Q148 372 122 408T95 484Q95 515 119 537T185 560Q349 356 349 297Q349 266 323 230T250 152T114 36Q80 36 58
55ZM362 36T340 55T318 104Q318 138 349 167T448 240Q486 265 513 285L494 305Q427 374 402 410T376 484Q376 515 400 537T467 560Q631 356 631 297Q631 266 605 230T533 153T396 36Q362 36 340 55Z" />
<glyph unicode="&#xbc;" glyph-name="onequarter" horiz-adv-x="1084" d="M142 419T172 557Q144 557 119 585T92 661Q131 666 159 673T221 692Q248 702 264 706T297 710Q347 710 347 654Q347 641 342 615T330 560Q300 440 300 377Q300 328 317 296Q271 272 229
272Q184 272 163 293T142 360Q142 419 172 557ZM447 284T625 716Q641 757 664 776T718 796Q739 796 760 790T794 773Q645 509 449 40Q432 -1 409 -20T355 -40Q335 -40 313 -34T280 -17Q447 284 625 716ZM1073 271T1060 225Q1046 179 1037 139T1028 59Q1028 29 1039
1Q1015 -12 995 -17T951 -23Q919 -23 899 -5T874 47Q812 35 761 35Q700 35 668 54T635 110Q635 129 648 153T690 221Q724 273 742 308T761 373Q761 390 755 400Q771 406 793 410T829 415Q908 415 908 332Q908 287 869 233T754 121H881Q890 157 906 199T942 276Q956
287 984 296T1034 305Q1058 305 1065 301T1073 281Q1073 271 1060 225Z" />
<glyph unicode="&#xbd;" glyph-name="onehalf" horiz-adv-x="1143" d="M142 419T172 557Q144 557 119 585T92 661Q131 666 159 673T221 692Q248 702 264 706T297 710Q347 710 347 654Q347 641 342 615T330 560Q300 440 300 377Q300 328 317 296Q271 272 229 272Q184
272 163 293T142 360Q142 419 172 557ZM447 284T625 716Q641 757 664 776T718 796Q739 796 760 790T794 773Q645 509 449 40Q432 -1 409 -20T355 -40Q335 -40 313 -34T280 -17Q447 284 625 716ZM1081 91T1081 62Q1081 26 1048 2T967 -23Q930 -23 897 -15T824 10Q802
-7 783 -15T743 -23Q714 -23 695 -4T676 44Q676 80 704 103T775 126Q781 126 795 124Q859 159 885 192T912 258Q912 283 898 299T858 315Q830 315 809 296T780 236Q747 240 729 256T711 300Q711 352 761 383T891 415Q937 415 974 398T1031 352T1052 288Q1052 232
1016 188T893 95Q943 79 967 79L1065 132Q1081 91 1081 62Z" />
<glyph unicode="&#xbe;" glyph-name="threequarters" horiz-adv-x="1120" d="M121 272T85 290T48 340Q48 363 63 378T104 394Q127 394 149 378T186 333Q224 333 247 350T271 395Q271 423 246 440T176 457V505Q221 505 249 522T277 568Q277 591 262 604T219 617Q188
617 167 596T140 539Q110 542 94 558T77 602Q77 649 122 679T240 710Q313 710 355 681T397 600Q397 563 374 534T310 488Q350 475 372 451T395 395Q395 340 337 306T182 272Q121 272 85 290ZM483 284T661 716Q677 757 700 776T754 796Q775 796 796 790T830 773Q681
509 485 40Q468 -1 445 -20T391 -40Q371 -40 349 -34T316 -17Q483 284 661 716ZM1109 271T1096 225Q1082 179 1073 139T1064 59Q1064 29 1075 1Q1051 -12 1031 -17T987 -23Q955 -23 935 -5T910 47Q848 35 797 35Q736 35 704 54T671 110Q671 129 684 153T726 221Q760
273 778 308T797 373Q797 390 791 400Q807 406 829 410T865 415Q944 415 944 332Q944 287 905 233T790 121H917Q926 157 942 199T978 276Q992 287 1020 296T1070 305Q1094 305 1101 301T1109 281Q1109 271 1096 225Z" />
<glyph unicode="&#xbf;" glyph-name="questiondown" horiz-adv-x="593" d="M356 600T382 574T409 509Q409 465 378 432T300 399Q260 399 234 425T207 490Q207 534 239 567T316 600Q356 600 382 574ZM244 218T192 170T140 50Q140 6 164 -22T235 -51Q282 -51 322
-17T377 86Q425 86 447 61T470 -4Q470 -48 442 -93T355 -169T208 -200Q120 -200 64 -168T-18 -83T-44 33Q-44 115 -6 181T95 284T230 321Q278 321 303 295T329 226Q244 218 192 170Z" />
<glyph unicode="&#xc0;" glyph-name="Agrave" horiz-adv-x="738" d="M626 405Q626 257 639 159T693 11Q646 -27 587 -27Q528 -27 497 19T455 171H218Q207 129 207 102Q207 49 226 11Q202 -7 171 -17T108 -27Q70 -27 50 -4T29 65Q29 132 83 257T265 608L233 676Q278
704 316 716T399 728Q450 728 468 705Q509 728 540 728Q585 728 606 699T627 605L626 405ZM450 272V319Q450 517 454 609H442Q318 419 254 272H450ZM563 795T547 800T496 818Q447 838 406 849T315 860Q305 893 305 926Q305 963 320 982T366 1002Q394 1002 421 987T488
941Q529 911 559 892T627 861Q624 830 611 813T578 795Q563 795 547 800Z" />
<glyph unicode="&#xc1;" glyph-name="Aacute" horiz-adv-x="738" d="M626 405Q626 257 639 159T693 11Q646 -27 587 -27Q528 -27 497 19T455 171H218Q207 129 207 102Q207 49 226 11Q202 -7 171 -17T108 -27Q70 -27 50 -4T29 65Q29 132 83 257T265 608L233 676Q278
704 316 716T399 728Q450 728 468 705Q509 728 540 728Q585 728 606 699T627 605L626 405ZM450 272V319Q450 517 454 609H442Q318 419 254 272H450ZM367 795T354 812T338 861Q375 873 405 892T477 941Q517 972 544 987T599 1002Q629 1002 644 983T660 926Q660 893
650 860Q600 860 559 849T469 818Q435 805 419 800T387 795Q367 795 354 812Z" />
<glyph unicode="&#xc2;" glyph-name="Acircumflex" horiz-adv-x="738" d="M626 405Q626 257 639 159T693 11Q646 -27 587 -27Q528 -27 497 19T455 171H218Q207 129 207 102Q207 49 226 11Q202 -7 171 -17T108 -27Q70 -27 50 -4T29 65Q29 132 83 257T265 608L233
676Q278 704 316 716T399 728Q450 728 468 705Q509 728 540 728Q585 728 606 699T627 605L626 405ZM450 272V319Q450 517 454 609H442Q318 419 254 272H450ZM460 1023T535 1023Q580 1023 607 1007T636 955L637 883Q638 839 668 818Q625 799 584 799Q549 799 531
814T512 867Q512 914 523 966H505Q479 938 465 899T452 817Q418 799 366 799Q336 799 322 808T308 834Q308 866 340 911T409 991Q460 1023 535 1023Z" />
<glyph unicode="&#xc3;" glyph-name="Atilde" horiz-adv-x="738" d="M626 405Q626 257 639 159T693 11Q646 -27 587 -27Q528 -27 497 19T455 171H218Q207 129 207 102Q207 49 226 11Q202 -7 171 -17T108 -27Q70 -27 50 -4T29 65Q29 132 83 257T265 608L233 676Q278
704 316 716T399 728Q450 728 468 705Q509 728 540 728Q585 728 606 699T627 605L626 405ZM450 272V319Q450 517 454 609H442Q318 419 254 272H450ZM317 811T302 824T287 868Q287 905 311 962Q348 944 387 944Q417 944 444 951T512 973Q546 986 568 992T613 998Q643
998 658 985T673 941Q673 904 649 847Q612 865 573 865Q543 865 517 858T449 836Q415 823 393 817T347 811Q317 811 302 824Z" />
<glyph unicode="&#xc4;" glyph-name="Adieresis" horiz-adv-x="738" d="M626 405Q626 257 639 159T693 11Q646 -27 587 -27Q528 -27 497 19T455 171H218Q207 129 207 102Q207 49 226 11Q202 -7 171 -17T108 -27Q70 -27 50 -4T29 65Q29 132 83 257T265 608L233
676Q278 704 316 716T399 728Q450 728 468 705Q509 728 540 728Q585 728 606 699T627 605L626 405ZM450 272V319Q450 517 454 609H442Q318 419 254 272H450ZM291 802T270 821T248 875Q248 917 279 943T350 970Q387 970 410 951T434 898Q434 856 403 829T326 802Q291
802 270 821ZM576 802T553 821T529 875Q529 917 562 943T637 970Q672 970 693 951T715 898Q715 856 685 829T613 802Q576 802 553 821Z" />
<glyph unicode="&#xc5;" glyph-name="Aring" horiz-adv-x="738" d="M626 405Q626 257 639 159T693 11Q646 -27 587 -27Q528 -27 497 19T455 171H218Q207 129 207 102Q207 49 226 11Q202 -7 171 -17T108 -27Q70 -27 50 -4T29 65Q29 132 83 257T265 608L233 676Q278
704 316 716T399 728Q450 728 468 705Q509 728 540 728Q585 728 606 699T627 605L626 405ZM450 272V319Q450 517 454 609H442Q318 419 254 272H450ZM403 770T363 806T322 903Q322 979 373 1027T506 1075Q576 1075 616 1039T657 942Q657 865 606 818T473 770Q403
770 363 806ZM511 839T530 868T550 943Q550 1007 502 1007Q483 1007 462 1002Q430 964 430 907Q430 877 444 858T480 838Q511 839 530 868Z" />
<glyph unicode="&#xc6;" glyph-name="AE" horiz-adv-x="925" d="M712 528T640 546Q633 503 625 461L610 370Q648 364 687 364L770 385Q774 365 774 346Q774 306 747 284T672 261Q639 261 593 271Q574 157 574 122V112H751Q815 120 884 146Q894 119 894 90Q894
34 856 5T743 -25Q661 -25 590 1Q549 -26 496 -26Q442 -26 418 1T394 88Q394 127 399 171H219Q206 129 206 97Q206 68 210 48T225 9Q201 -9 169 -19T106 -29Q68 -29 49 -6T29 61Q29 129 86 255T279 608L247 676Q293 703 331 714T413 726Q461 726 486 702Q542 726
590 726Q643 726 652 673Q721 676 779 687T932 721Q939 692 939 664Q939 599 894 564T774 528Q712 528 640 546ZM412 272Q436 425 468 609H456Q321 411 258 272H412Z" />
<glyph unicode="&#xc7;" glyph-name="Ccedilla" horiz-adv-x="691" d="M199 -25T118 53T37 271Q37 400 96 504T257 667T485 726Q571 726 621 697T671 615Q671 572 641 545T563 517Q517 517 478 541T416 612Q360 590 316 539T246 417T221 266Q221 172 254 120T349
67Q396 67 434 92T494 160T520 255Q633 255 633 171Q633 118 594 73T489 2T343 -25Q199 -25 118 53ZM188 -301T151 -278T114 -217Q114 -180 152 -154T245 -128Q225 -138 214 -156T202 -196Q202 -217 214 -228T249 -240Q282 -240 302 -221T323 -170Q323 -133 303
-103T244 -53Q329 -53 379 -85T429 -170Q429 -206 405 -236T340 -283T249 -301Q188 -301 151 -278Z" />
<glyph unicode="&#xc8;" glyph-name="Egrave" horiz-adv-x="610" d="M397 528T325 546Q318 503 310 461L295 370Q332 364 372 364L455 385Q459 365 459 346Q459 306 432 284T357 261Q324 261 278 271Q259 157 259 122V112H436Q500 120 569 146Q579 119 579 90Q579
34 541 5T428 -25Q346 -25 275 1Q234 -26 181 -26Q127 -26 103 1T79 88Q79 138 93 240T147 576L103 665Q198 726 275 726Q328 726 337 673Q406 676 464 687T617 721Q624 692 624 664Q624 599 579 564T459 528Q397 528 325 546ZM495 795T479 800T428 818Q379 838
338 849T247 860Q237 893 237 926Q237 963 252 982T298 1002Q326 1002 353 987T420 941Q461 911 491 892T559 861Q556 830 543 813T510 795Q495 795 479 800Z" />
<glyph unicode="&#xc9;" glyph-name="Eacute" horiz-adv-x="610" d="M397 528T325 546Q318 503 310 461L295 370Q332 364 372 364L455 385Q459 365 459 346Q459 306 432 284T357 261Q324 261 278 271Q259 157 259 122V112H436Q500 120 569 146Q579 119 579 90Q579
34 541 5T428 -25Q346 -25 275 1Q234 -26 181 -26Q127 -26 103 1T79 88Q79 138 93 240T147 576L103 665Q198 726 275 726Q328 726 337 673Q406 676 464 687T617 721Q624 692 624 664Q624 599 579 564T459 528Q397 528 325 546ZM299 795T286 812T270 861Q307 873
337 892T409 941Q449 972 476 987T531 1002Q561 1002 576 983T592 926Q592 893 582 860Q532 860 491 849T401 818Q367 805 351 800T319 795Q299 795 286 812Z" />
<glyph unicode="&#xca;" glyph-name="Ecircumflex" horiz-adv-x="610" d="M397 528T325 546Q318 503 310 461L295 370Q332 364 372 364L455 385Q459 365 459 346Q459 306 432 284T357 261Q324 261 278 271Q259 157 259 122V112H436Q500 120 569 146Q579 119 579
90Q579 34 541 5T428 -25Q346 -25 275 1Q234 -26 181 -26Q127 -26 103 1T79 88Q79 138 93 240T147 576L103 665Q198 726 275 726Q328 726 337 673Q406 676 464 687T617 721Q624 692 624 664Q624 599 579 564T459 528Q397 528 325 546ZM392 1023T467 1023Q512 1023
539 1007T568 955L569 883Q570 839 600 818Q557 799 516 799Q481 799 463 814T444 867Q444 914 455 966H437Q411 938 397 899T384 817Q350 799 298 799Q268 799 254 808T240 834Q240 866 272 911T341 991Q392 1023 467 1023Z" />
<glyph unicode="&#xcb;" glyph-name="Edieresis" horiz-adv-x="610" d="M397 528T325 546Q318 503 310 461L295 370Q332 364 372 364L455 385Q459 365 459 346Q459 306 432 284T357 261Q324 261 278 271Q259 157 259 122V112H436Q500 120 569 146Q579 119 579
90Q579 34 541 5T428 -25Q346 -25 275 1Q234 -26 181 -26Q127 -26 103 1T79 88Q79 138 93 240T147 576L103 665Q198 726 275 726Q328 726 337 673Q406 676 464 687T617 721Q624 692 624 664Q624 599 579 564T459 528Q397 528 325 546ZM223 802T202 821T180 875Q180
917 211 943T282 970Q319 970 342 951T366 898Q366 856 335 829T258 802Q223 802 202 821ZM508 802T485 821T461 875Q461 917 494 943T569 970Q604 970 625 951T647 898Q647 856 617 829T545 802Q508 802 485 821Z" />
<glyph unicode="&#xcc;" glyph-name="Igrave" horiz-adv-x="378" d="M79 139T93 238T147 576L103 665Q198 726 275 726Q339 726 339 648Q339 620 305 429Q283 304 271 229T259 123Q259 84 265 59T286 13Q236 -25 181 -25Q127 -25 103 2T79 89Q79 139 93 238ZM354
795T338 800T287 818Q238 838 197 849T106 860Q96 893 96 926Q96 963 111 982T157 1002Q185 1002 212 987T279 941Q320 911 350 892T418 861Q415 830 402 813T369 795Q354 795 338 800Z" />
<glyph unicode="&#xcd;" glyph-name="Iacute" horiz-adv-x="378" d="M79 139T93 238T147 576L103 665Q198 726 275 726Q339 726 339 648Q339 620 305 429Q283 304 271 229T259 123Q259 84 265 59T286 13Q236 -25 181 -25Q127 -25 103 2T79 89Q79 139 93 238ZM158
795T145 812T129 861Q166 873 196 892T268 941Q308 972 335 987T390 1002Q420 1002 435 983T451 926Q451 893 441 860Q391 860 350 849T260 818Q226 805 210 800T178 795Q158 795 145 812Z" />
<glyph unicode="&#xce;" glyph-name="Icircumflex" horiz-adv-x="378" d="M79 139T93 238T147 576L103 665Q198 726 275 726Q339 726 339 648Q339 620 305 429Q283 304 271 229T259 123Q259 84 265 59T286 13Q236 -25 181 -25Q127 -25 103 2T79 89Q79 139 93 238ZM251
1023T326 1023Q371 1023 398 1007T427 955L428 883Q429 839 459 818Q416 799 375 799Q340 799 322 814T303 867Q303 914 314 966H296Q270 938 256 899T243 817Q209 799 157 799Q127 799 113 808T99 834Q99 866 131 911T200 991Q251 1023 326 1023Z" />
<glyph unicode="&#xcf;" glyph-name="Idieresis" horiz-adv-x="378" d="M79 139T93 238T147 576L103 665Q198 726 275 726Q339 726 339 648Q339 620 305 429Q283 304 271 229T259 123Q259 84 265 59T286 13Q236 -25 181 -25Q127 -25 103 2T79 89Q79 139 93 238ZM82
802T61 821T39 875Q39 917 70 943T141 970Q178 970 201 951T225 898Q225 856 194 829T117 802Q82 802 61 821ZM367 802T344 821T320 875Q320 917 353 943T428 970Q463 970 484 951T506 898Q506 856 476 829T404 802Q367 802 344 821Z" />
<glyph unicode="&#xd0;" glyph-name="Eth" horiz-adv-x="848" d="M577 726T644 688T747 578T784 414Q784 286 726 186T564 31T326 -25Q208 -25 144 14T80 125Q80 171 97 287Q87 286 65 286Q24 286 9 298T-6 342Q-6 375 13 413Q56 401 116 399L134 501L147 576L103
665Q199 726 274 726Q319 726 332 690Q366 708 403 717T488 726Q577 726 644 688ZM419 73T477 113T567 224T600 385Q600 495 552 555T416 616Q374 616 334 600Q324 523 306 418Q348 424 389 424Q430 424 444 412T459 368Q459 333 441 297Q394 311 333 311Q317 311
289 309Q259 122 259 88Q300 73 345 73Q419 73 477 113Z" />
<glyph unicode="&#xd1;" glyph-name="Ntilde" horiz-adv-x="856" d="M817 632T806 567T782 428Q736 171 736 123Q736 84 742 58T764 12Q714 -26 658 -26Q575 -26 527 18T438 183T338 570H329L304 421Q259 171 259 122Q259 83 265 58T286 12Q236 -26 181 -26Q127
-26 103 1T79 88Q79 138 93 237T147 576L103 665Q198 726 274 726H275V726H276Q348 725 389 687T466 541T556 194H564Q574 274 625 577L586 666Q630 695 673 711T752 727Q817 727 817 649Q817 632 806 567ZM347 811T332 824T317 868Q317 905 341 962Q378 944 417
944Q447 944 474 951T542 973Q576 986 598 992T643 998Q673 998 688 985T703 941Q703 904 679 847Q642 865 603 865Q573 865 547 858T479 836Q445 823 423 817T377 811Q347 811 332 824Z" />
<glyph unicode="&#xd2;" glyph-name="Ograve" horiz-adv-x="762" d="M494 367T494 491Q494 545 527 581T611 618Q672 618 706 568T740 431Q740 303 688 199T545 35T342 -25Q251 -25 183 13T77 121T39 282Q39 413 92 514T233 670T423 725Q483 725 510 705T538 643Q538
628 536 617T526 590Q515 593 498 595T468 598Q397 598 342 557T255 444T223 284Q223 178 265 123T382 67Q434 67 484 98T570 185T616 312Q494 367 494 491ZM565 795T549 800T498 818Q449 838 408 849T317 860Q307 893 307 926Q307 963 322 982T368 1002Q396 1002
423 987T490 941Q531 911 561 892T629 861Q626 830 613 813T580 795Q565 795 549 800Z" />
<glyph unicode="&#xd3;" glyph-name="Oacute" horiz-adv-x="762" d="M494 367T494 491Q494 545 527 581T611 618Q672 618 706 568T740 431Q740 303 688 199T545 35T342 -25Q251 -25 183 13T77 121T39 282Q39 413 92 514T233 670T423 725Q483 725 510 705T538 643Q538
628 536 617T526 590Q515 593 498 595T468 598Q397 598 342 557T255 444T223 284Q223 178 265 123T382 67Q434 67 484 98T570 185T616 312Q494 367 494 491ZM369 795T356 812T340 861Q377 873 407 892T479 941Q519 972 546 987T601 1002Q631 1002 646 983T662 926Q662
893 652 860Q602 860 561 849T471 818Q437 805 421 800T389 795Q369 795 356 812Z" />
<glyph unicode="&#xd4;" glyph-name="Ocircumflex" horiz-adv-x="762" d="M494 367T494 491Q494 545 527 581T611 618Q672 618 706 568T740 431Q740 303 688 199T545 35T342 -25Q251 -25 183 13T77 121T39 282Q39 413 92 514T233 670T423 725Q483 725 510 705T538
643Q538 628 536 617T526 590Q515 593 498 595T468 598Q397 598 342 557T255 444T223 284Q223 178 265 123T382 67Q434 67 484 98T570 185T616 312Q494 367 494 491ZM462 1023T537 1023Q582 1023 609 1007T638 955L639 883Q640 839 670 818Q627 799 586 799Q551
799 533 814T514 867Q514 914 525 966H507Q481 938 467 899T454 817Q420 799 368 799Q338 799 324 808T310 834Q310 866 342 911T411 991Q462 1023 537 1023Z" />
<glyph unicode="&#xd5;" glyph-name="Otilde" horiz-adv-x="762" d="M494 367T494 491Q494 545 527 581T611 618Q672 618 706 568T740 431Q740 303 688 199T545 35T342 -25Q251 -25 183 13T77 121T39 282Q39 413 92 514T233 670T423 725Q483 725 510 705T538 643Q538
628 536 617T526 590Q515 593 498 595T468 598Q397 598 342 557T255 444T223 284Q223 178 265 123T382 67Q434 67 484 98T570 185T616 312Q494 367 494 491ZM319 811T304 824T289 868Q289 905 313 962Q350 944 389 944Q419 944 446 951T514 973Q548 986 570 992T615
998Q645 998 660 985T675 941Q675 904 651 847Q614 865 575 865Q545 865 519 858T451 836Q417 823 395 817T349 811Q319 811 304 824Z" />
<glyph unicode="&#xd6;" glyph-name="Odieresis" horiz-adv-x="762" d="M494 367T494 491Q494 545 527 581T611 618Q672 618 706 568T740 431Q740 303 688 199T545 35T342 -25Q251 -25 183 13T77 121T39 282Q39 413 92 514T233 670T423 725Q483 725 510 705T538
643Q538 628 536 617T526 590Q515 593 498 595T468 598Q397 598 342 557T255 444T223 284Q223 178 265 123T382 67Q434 67 484 98T570 185T616 312Q494 367 494 491ZM293 802T272 821T250 875Q250 917 281 943T352 970Q389 970 412 951T436 898Q436 856 405 829T328
802Q293 802 272 821ZM578 802T555 821T531 875Q531 917 564 943T639 970Q674 970 695 951T717 898Q717 856 687 829T615 802Q578 802 555 821Z" />
<glyph unicode="&#xd7;" glyph-name="multiply" horiz-adv-x="682" d="M553 592T581 571T610 530Q610 505 565 465L451 363L529 272Q546 251 553 240T560 218Q560 182 465 132L347 270L193 132Q156 146 128 168T99 209Q99 237 143 274L256 376L178 467Q162 485
155 497T148 520Q148 560 242 607L360 469L515 607Q553 592 581 571Z" />
<glyph unicode="&#xd8;" glyph-name="Oslash" horiz-adv-x="762" d="M740 314T697 217T576 57T400 -21Q399 -21 399 -23Q390 -64 371 -83T320 -103Q300 -103 278 -97T241 -80Q253 -47 262 -16Q158 7 99 86T39 282Q39 413 92 514T233 670T423 725Q435 725 455 723L457
733Q466 774 485 793T536 813Q556 813 579 807T615 790Q584 701 556 604Q581 618 611 618Q672 618 706 568T740 431Q740 314 697 217ZM223 214T242 166T296 93Q356 297 425 594Q365 582 320 539T249 430T223 284Q223 214 242 166ZM466 82T507 114T578 198T616 312Q530
351 506 421Q469 285 420 71Q466 82 507 114Z" />
<glyph unicode="&#xd9;" glyph-name="Ugrave" horiz-adv-x="806" d="M571 -26T547 4T522 89Q522 140 535 180H526Q479 88 403 32T239 -24Q159 -24 121 23T82 152Q82 194 94 276T147 576L103 665Q156 697 196 711T274 726Q307 726 323 707T339 648Q339 630 324
554T306 462Q290 380 276 300T261 196Q261 149 277 127T331 105Q366 105 405 132T479 208T538 321Q522 372 522 444Q522 518 544 582T608 686T711 726Q755 726 792 706Q758 580 728 409T698 133Q698 50 723 12Q676 -26 620 -26Q571 -26 547 4ZM570 795T554 800T503
818Q454 838 413 849T322 860Q312 893 312 926Q312 963 327 982T373 1002Q401 1002 428 987T495 941Q536 911 566 892T634 861Q631 830 618 813T585 795Q570 795 554 800Z" />
<glyph unicode="&#xda;" glyph-name="Uacute" horiz-adv-x="806" d="M571 -26T547 4T522 89Q522 140 535 180H526Q479 88 403 32T239 -24Q159 -24 121 23T82 152Q82 194 94 276T147 576L103 665Q156 697 196 711T274 726Q307 726 323 707T339 648Q339 630 324
554T306 462Q290 380 276 300T261 196Q261 149 277 127T331 105Q366 105 405 132T479 208T538 321Q522 372 522 444Q522 518 544 582T608 686T711 726Q755 726 792 706Q758 580 728 409T698 133Q698 50 723 12Q676 -26 620 -26Q571 -26 547 4ZM374 795T361 812T345
861Q382 873 412 892T484 941Q524 972 551 987T606 1002Q636 1002 651 983T667 926Q667 893 657 860Q607 860 566 849T476 818Q442 805 426 800T394 795Q374 795 361 812Z" />
<glyph unicode="&#xdb;" glyph-name="Ucircumflex" horiz-adv-x="806" d="M571 -26T547 4T522 89Q522 140 535 180H526Q479 88 403 32T239 -24Q159 -24 121 23T82 152Q82 194 94 276T147 576L103 665Q156 697 196 711T274 726Q307 726 323 707T339 648Q339 630
324 554T306 462Q290 380 276 300T261 196Q261 149 277 127T331 105Q366 105 405 132T479 208T538 321Q522 372 522 444Q522 518 544 582T608 686T711 726Q755 726 792 706Q758 580 728 409T698 133Q698 50 723 12Q676 -26 620 -26Q571 -26 547 4ZM467 1023T542
1023Q587 1023 614 1007T643 955L644 883Q645 839 675 818Q632 799 591 799Q556 799 538 814T519 867Q519 914 530 966H512Q486 938 472 899T459 817Q425 799 373 799Q343 799 329 808T315 834Q315 866 347 911T416 991Q467 1023 542 1023Z" />
<glyph unicode="&#xdc;" glyph-name="Udieresis" horiz-adv-x="806" d="M571 -26T547 4T522 89Q522 140 535 180H526Q479 88 403 32T239 -24Q159 -24 121 23T82 152Q82 194 94 276T147 576L103 665Q156 697 196 711T274 726Q307 726 323 707T339 648Q339 630 324
554T306 462Q290 380 276 300T261 196Q261 149 277 127T331 105Q366 105 405 132T479 208T538 321Q522 372 522 444Q522 518 544 582T608 686T711 726Q755 726 792 706Q758 580 728 409T698 133Q698 50 723 12Q676 -26 620 -26Q571 -26 547 4ZM298 802T277 821T255
875Q255 917 286 943T357 970Q394 970 417 951T441 898Q441 856 410 829T333 802Q298 802 277 821ZM583 802T560 821T536 875Q536 917 569 943T644 970Q679 970 700 951T722 898Q722 856 692 829T620 802Q583 802 560 821Z" />
<glyph unicode="&#xdd;" glyph-name="Yacute" horiz-adv-x="822" d="M741 726T761 702T782 633Q782 459 697 252T458 -98T109 -242Q24 -242 -19 -212T-63 -127Q-63 -103 -52 -80T-24 -41Q-2 -72 32 -91T125 -110Q169 -110 223 -89T333 -28Q251 -17 212 38T163
169T152 365Q151 452 147 506T127 610T81 688Q131 726 187 726Q252 726 283 683T322 573T330 402V357Q330 270 335 213T359 111T418 49Q503 143 554 279T605 591Q605 647 582 688Q640 726 702 726Q741 726 761 702ZM376 795T363 812T347 861Q384 873 414 892T486
941Q526 972 553 987T608 1002Q638 1002 653 983T669 926Q669 893 659 860Q609 860 568 849T478 818Q444 805 428 800T396 795Q376 795 363 812Z" />
<glyph unicode="&#xde;" glyph-name="Thorn" horiz-adv-x="723" d="M553 630T602 599T677 517T703 406Q703 330 668 263T560 153T383 111Q315 111 259 135V122Q259 83 265 58T286 12Q236 -26 181 -26Q127 -26 103 1T79 88Q79 138 93 237T147 576L103 665Q198 726
275 726Q339 726 339 648Q339 632 333 593Q396 630 485 630Q553 630 602 599ZM388 217T429 239T494 302T517 392Q517 447 488 484T398 521Q361 521 317 499L308 445Q283 303 271 228Q298 217 335 217Q388 217 429 239Z" />
<glyph unicode="&#xdf;" glyph-name="germandbls" horiz-adv-x="718" d="M611 351T655 300T699 183Q699 85 630 30T440 -25Q367 -25 326 -1T285 64Q285 88 298 109T336 146Q346 109 371 88T430 66Q480 66 510 101T541 193Q541 243 514 286T440 352Q486 377 515
426T544 526Q544 573 521 601T457 629Q401 629 368 585T317 442Q271 192 253 74T235 -89Q235 -147 262 -169Q239 -189 212 -199T157 -210Q111 -210 87 -185T62 -110Q62 -58 124 309H121Q66 309 46 321T25 365Q25 402 45 436Q87 422 142 422H144L147 442Q172 583
250 654T459 725Q563 725 625 680T687 559Q687 500 649 450T541 367Q611 351 655 300Z" />
<glyph unicode="&#xe0;" glyph-name="agrave" horiz-adv-x="747" d="M619 37T645 16Q595 -25 540 -25Q496 -25 472 1T448 75Q448 93 453 121L443 126Q412 55 358 15T239 -25Q184 -25 142 4T77 86T54 210Q54 322 104 411T244 550T447 600Q490 600 532 592Q540 574
543 549Q578 575 622 575Q654 575 671 558T688 509Q688 488 682 456T662 368Q641 275 630 213T619 92Q619 37 645 16ZM393 117T443 216T517 522Q432 516 365 477T261 374T223 235Q223 179 246 148T312 117Q393 117 443 216ZM522 660T506 665T455 683Q406 703 365
714T274 725Q264 758 264 791Q264 828 279 847T325 867Q353 867 380 852T447 806Q488 776 518 757T586 726Q583 695 570 678T537 660Q522 660 506 665Z" />
<glyph unicode="&#xe1;" glyph-name="aacute" horiz-adv-x="747" d="M619 37T645 16Q595 -25 540 -25Q496 -25 472 1T448 75Q448 93 453 121L443 126Q412 55 358 15T239 -25Q184 -25 142 4T77 86T54 210Q54 322 104 411T244 550T447 600Q490 600 532 592Q540 574
543 549Q578 575 622 575Q654 575 671 558T688 509Q688 488 682 456T662 368Q641 275 630 213T619 92Q619 37 645 16ZM393 117T443 216T517 522Q432 516 365 477T261 374T223 235Q223 179 246 148T312 117Q393 117 443 216ZM326 660T313 677T297 726Q334 738 364
757T436 806Q476 837 503 852T558 867Q588 867 603 848T619 791Q619 758 609 725Q559 725 518 714T428 683Q394 670 378 665T346 660Q326 660 313 677Z" />
<glyph unicode="&#xe2;" glyph-name="acircumflex" horiz-adv-x="747" d="M619 37T645 16Q595 -25 540 -25Q496 -25 472 1T448 75Q448 93 453 121L443 126Q412 55 358 15T239 -25Q184 -25 142 4T77 86T54 210Q54 322 104 411T244 550T447 600Q490 600 532 592Q540
574 543 549Q578 575 622 575Q654 575 671 558T688 509Q688 488 682 456T662 368Q641 275 630 213T619 92Q619 37 645 16ZM393 117T443 216T517 522Q432 516 365 477T261 374T223 235Q223 179 246 148T312 117Q393 117 443 216ZM419 888T494 888Q539 888 566 872T595
820L596 748Q597 704 627 683Q584 664 543 664Q508 664 490 679T471 732Q471 779 482 831H464Q438 803 424 764T411 682Q377 664 325 664Q295 664 281 673T267 699Q267 731 299 776T368 856Q419 888 494 888Z" />
<glyph unicode="&#xe3;" glyph-name="atilde" horiz-adv-x="747" d="M619 37T645 16Q595 -25 540 -25Q496 -25 472 1T448 75Q448 93 453 121L443 126Q412 55 358 15T239 -25Q184 -25 142 4T77 86T54 210Q54 322 104 411T244 550T447 600Q490 600 532 592Q540 574
543 549Q578 575 622 575Q654 575 671 558T688 509Q688 488 682 456T662 368Q641 275 630 213T619 92Q619 37 645 16ZM393 117T443 216T517 522Q432 516 365 477T261 374T223 235Q223 179 246 148T312 117Q393 117 443 216ZM276 676T261 689T246 733Q246 770 270
827Q307 809 346 809Q376 809 403 816T471 838Q505 851 527 857T572 863Q602 863 617 850T632 806Q632 769 608 712Q571 730 532 730Q502 730 476 723T408 701Q374 688 352 682T306 676Q276 676 261 689Z" />
<glyph unicode="&#xe4;" glyph-name="adieresis" horiz-adv-x="747" d="M619 37T645 16Q595 -25 540 -25Q496 -25 472 1T448 75Q448 93 453 121L443 126Q412 55 358 15T239 -25Q184 -25 142 4T77 86T54 210Q54 322 104 411T244 550T447 600Q490 600 532 592Q540
574 543 549Q578 575 622 575Q654 575 671 558T688 509Q688 488 682 456T662 368Q641 275 630 213T619 92Q619 37 645 16ZM393 117T443 216T517 522Q432 516 365 477T261 374T223 235Q223 179 246 148T312 117Q393 117 443 216ZM250 667T229 686T207 740Q207 782
238 808T309 835Q346 835 369 816T393 763Q393 721 362 694T285 667Q250 667 229 686ZM535 667T512 686T488 740Q488 782 521 808T596 835Q631 835 652 816T674 763Q674 721 644 694T572 667Q535 667 512 686Z" />
<glyph unicode="&#xe5;" glyph-name="aring" horiz-adv-x="747" d="M619 37T645 16Q595 -25 540 -25Q496 -25 472 1T448 75Q448 93 453 121L443 126Q412 55 358 15T239 -25Q184 -25 142 4T77 86T54 210Q54 322 104 411T244 550T447 600Q490 600 532 592Q540 574
543 549Q578 575 622 575Q654 575 671 558T688 509Q688 488 682 456T662 368Q641 275 630 213T619 92Q619 37 645 16ZM393 117T443 216T517 522Q432 516 365 477T261 374T223 235Q223 179 246 148T312 117Q393 117 443 216ZM362 635T322 671T281 768Q281 844 332
892T465 940Q535 940 575 904T616 807Q616 730 565 683T432 635Q362 635 322 671ZM470 704T489 733T509 808Q509 872 461 872Q442 872 421 867Q389 829 389 772Q389 742 403 723T439 703Q470 704 489 733Z" />
<glyph unicode="&#xe6;" glyph-name="ae" horiz-adv-x="1041" d="M1005 387T958 337T822 260T610 232V219Q610 146 636 105T708 64Q764 64 800 103T839 206Q891 206 918 187T946 130Q946 88 912 53T820 -4T690 -25Q600 -25 540 14T455 127V126H446Q414 55 359
15T238 -25Q183 -25 141 4T76 86T53 210Q53 315 103 398T243 528T446 575Q493 575 531 567Q543 539 543 498Q452 498 379 464T264 369T222 235Q222 179 245 148T311 117Q346 117 380 140T441 204V223Q441 330 490 416T627 551T822 600Q909 600 957 562T1005 456Q1005
387 958 337ZM735 504T686 446T618 300Q732 305 794 342T857 444Q857 471 840 487T795 504Q735 504 686 446Z" />
<glyph unicode="&#xe7;" glyph-name="ccedilla" horiz-adv-x="631" d="M197 -25T128 42T58 228Q58 334 107 419T241 552T433 600Q510 600 555 573T601 499Q601 461 574 436T505 411Q465 411 432 432T378 495Q335 478 301 438T247 342T227 225Q227 148 253 106T328
64Q384 64 423 108T466 217Q518 217 545 198T573 141Q573 96 539 58T447 -2T319 -25Q197 -25 128 42ZM182 -301T145 -278T108 -217Q108 -180 146 -154T239 -128Q219 -138 208 -156T196 -196Q196 -217 208 -228T243 -240Q276 -240 296 -221T317 -170Q317 -133 297
-103T238 -53Q323 -53 373 -85T423 -170Q423 -206 399 -236T334 -283T243 -301Q182 -301 145 -278Z" />
<glyph unicode="&#xe8;" glyph-name="egrave" horiz-adv-x="657" d="M621 387T574 337T438 260T226 232V219Q226 146 252 105T324 64Q380 64 416 103T455 206Q507 206 534 187T562 130Q562 88 528 53T436 -4T306 -25Q189 -25 123 41T57 223Q57 330 106 416T243
551T438 600Q525 600 573 562T621 456Q621 387 574 337ZM351 504T302 446T234 300Q348 305 410 342T473 444Q473 471 456 487T411 504Q351 504 302 446ZM514 660T498 665T447 683Q398 703 357 714T266 725Q256 758 256 791Q256 828 271 847T317 867Q345 867 372
852T439 806Q480 776 510 757T578 726Q575 695 562 678T529 660Q514 660 498 665Z" />
<glyph unicode="&#xe9;" glyph-name="eacute" horiz-adv-x="657" d="M621 387T574 337T438 260T226 232V219Q226 146 252 105T324 64Q380 64 416 103T455 206Q507 206 534 187T562 130Q562 88 528 53T436 -4T306 -25Q189 -25 123 41T57 223Q57 330 106 416T243
551T438 600Q525 600 573 562T621 456Q621 387 574 337ZM351 504T302 446T234 300Q348 305 410 342T473 444Q473 471 456 487T411 504Q351 504 302 446ZM318 660T305 677T289 726Q326 738 356 757T428 806Q468 837 495 852T550 867Q580 867 595 848T611 791Q611
758 601 725Q551 725 510 714T420 683Q386 670 370 665T338 660Q318 660 305 677Z" />
<glyph unicode="&#xea;" glyph-name="ecircumflex" horiz-adv-x="657" d="M621 387T574 337T438 260T226 232V219Q226 146 252 105T324 64Q380 64 416 103T455 206Q507 206 534 187T562 130Q562 88 528 53T436 -4T306 -25Q189 -25 123 41T57 223Q57 330 106 416T243
551T438 600Q525 600 573 562T621 456Q621 387 574 337ZM351 504T302 446T234 300Q348 305 410 342T473 444Q473 471 456 487T411 504Q351 504 302 446ZM411 888T486 888Q531 888 558 872T587 820L588 748Q589 704 619 683Q576 664 535 664Q500 664 482 679T463
732Q463 779 474 831H456Q430 803 416 764T403 682Q369 664 317 664Q287 664 273 673T259 699Q259 731 291 776T360 856Q411 888 486 888Z" />
<glyph unicode="&#xeb;" glyph-name="edieresis" horiz-adv-x="657" d="M621 387T574 337T438 260T226 232V219Q226 146 252 105T324 64Q380 64 416 103T455 206Q507 206 534 187T562 130Q562 88 528 53T436 -4T306 -25Q189 -25 123 41T57 223Q57 330 106 416T243
551T438 600Q525 600 573 562T621 456Q621 387 574 337ZM351 504T302 446T234 300Q348 305 410 342T473 444Q473 471 456 487T411 504Q351 504 302 446ZM242 667T221 686T199 740Q199 782 230 808T301 835Q338 835 361 816T385 763Q385 721 354 694T277 667Q242
667 221 686ZM527 667T504 686T480 740Q480 782 513 808T588 835Q623 835 644 816T666 763Q666 721 636 694T564 667Q527 667 504 686Z" />
<glyph unicode="&#xec;" glyph-name="igrave" horiz-adv-x="388" d="M127 -25T104 0T80 78Q80 147 152 467L101 538Q139 566 183 583T265 600Q302 600 317 585T333 533Q333 519 310 422Q284 314 268 233T252 92Q252 36 278 16Q231 -25 178 -25Q127 -25 104 0ZM342
660T326 665T275 683Q226 703 185 714T94 725Q84 758 84 791Q84 828 99 847T145 867Q173 867 200 852T267 806Q308 776 338 757T406 726Q403 695 390 678T357 660Q342 660 326 665Z" />
<glyph unicode="&#xed;" glyph-name="iacute" horiz-adv-x="388" d="M127 -25T104 0T80 78Q80 147 152 467L101 538Q139 566 183 583T265 600Q302 600 317 585T333 533Q333 519 310 422Q284 314 268 233T252 92Q252 36 278 16Q231 -25 178 -25Q127 -25 104 0ZM146
660T133 677T117 726Q154 738 184 757T256 806Q296 837 323 852T378 867Q408 867 423 848T439 791Q439 758 429 725Q379 725 338 714T248 683Q214 670 198 665T166 660Q146 660 133 677Z" />
<glyph unicode="&#xee;" glyph-name="icircumflex" horiz-adv-x="388" d="M127 -25T104 0T80 78Q80 147 152 467L101 538Q139 566 183 583T265 600Q302 600 317 585T333 533Q333 519 310 422Q284 314 268 233T252 92Q252 36 278 16Q231 -25 178 -25Q127 -25 104
0ZM239 888T314 888Q359 888 386 872T415 820L416 748Q417 704 447 683Q404 664 363 664Q328 664 310 679T291 732Q291 779 302 831H284Q258 803 244 764T231 682Q197 664 145 664Q115 664 101 673T87 699Q87 731 119 776T188 856Q239 888 314 888Z" />
<glyph unicode="&#xef;" glyph-name="idieresis" horiz-adv-x="388" d="M127 -25T104 0T80 78Q80 147 152 467L101 538Q139 566 183 583T265 600Q302 600 317 585T333 533Q333 519 310 422Q284 314 268 233T252 92Q252 36 278 16Q231 -25 178 -25Q127 -25 104
0ZM70 667T49 686T27 740Q27 782 58 808T129 835Q166 835 189 816T213 763Q213 721 182 694T105 667Q70 667 49 686ZM355 667T332 686T308 740Q308 782 341 808T416 835Q451 835 472 816T494 763Q494 721 464 694T392 667Q355 667 332 686Z" />
<glyph unicode="&#xf0;" glyph-name="eth" horiz-adv-x="713" d="M683 743T683 733Q683 715 666 701T607 671Q594 666 566 658Q613 590 639 509T666 342Q666 235 623 152T503 22T328 -25Q247 -25 187 7T93 100T60 242Q60 345 106 426T236 554T424 600Q377 659
314 691T181 724Q181 771 210 799T289 827Q339 827 388 808T480 751Q511 756 549 770Q597 788 635 816Q665 793 678 756Q683 743 683 733ZM402 64T442 93T504 175T526 296Q526 417 475 521Q402 514 346 476T260 376T229 234Q229 151 260 108T352 64Q402 64 442
93Z" />
<glyph unicode="&#xf1;" glyph-name="ntilde" horiz-adv-x="758" d="M121 -25T98 1T74 78Q74 119 97 243T146 478L97 546Q134 570 175 584T255 599Q292 599 309 582T326 531Q326 505 319 476T300 422L310 417Q414 600 578 600Q641 600 671 569T702 474Q702 438
695 400T672 296Q656 231 647 184T638 92Q638 41 656 16Q612 -25 564 -25Q513 -25 490 1T467 78Q467 118 475 161T501 272Q515 327 521 358T528 414Q528 471 483 471Q433 471 377 418T284 278T246 92Q246 41 264 16Q218 -25 172 -25Q121 -25 98 1ZM311 676T296
689T281 733Q281 770 305 827Q342 809 381 809Q411 809 438 816T506 838Q540 851 562 857T607 863Q637 863 652 850T667 806Q667 769 643 712Q606 730 567 730Q537 730 511 723T443 701Q409 688 387 682T341 676Q311 676 296 689Z" />
<glyph unicode="&#xf2;" glyph-name="ograve" horiz-adv-x="721" d="M241 -25T182 7T91 99T59 238Q59 343 106 425T237 554T427 600Q465 600 501 592Q512 561 511 523Q424 523 360 485T262 382T228 234Q228 149 258 107T344 64Q414 64 461 120T519 274Q442 319
442 403Q442 455 473 490T551 526Q605 526 637 482T670 364Q670 257 624 168T497 27T320 -25Q241 -25 182 7ZM504 660T488 665T437 683Q388 703 347 714T256 725Q246 758 246 791Q246 828 261 847T307 867Q335 867 362 852T429 806Q470 776 500 757T568 726Q565
695 552 678T519 660Q504 660 488 665Z" />
<glyph unicode="&#xf3;" glyph-name="oacute" horiz-adv-x="721" d="M241 -25T182 7T91 99T59 238Q59 343 106 425T237 554T427 600Q465 600 501 592Q512 561 511 523Q424 523 360 485T262 382T228 234Q228 149 258 107T344 64Q414 64 461 120T519 274Q442 319
442 403Q442 455 473 490T551 526Q605 526 637 482T670 364Q670 257 624 168T497 27T320 -25Q241 -25 182 7ZM308 660T295 677T279 726Q316 738 346 757T418 806Q458 837 485 852T540 867Q570 867 585 848T601 791Q601 758 591 725Q541 725 500 714T410 683Q376
670 360 665T328 660Q308 660 295 677Z" />
<glyph unicode="&#xf4;" glyph-name="ocircumflex" horiz-adv-x="721" d="M241 -25T182 7T91 99T59 238Q59 343 106 425T237 554T427 600Q465 600 501 592Q512 561 511 523Q424 523 360 485T262 382T228 234Q228 149 258 107T344 64Q414 64 461 120T519 274Q442
319 442 403Q442 455 473 490T551 526Q605 526 637 482T670 364Q670 257 624 168T497 27T320 -25Q241 -25 182 7ZM401 888T476 888Q521 888 548 872T577 820L578 748Q579 704 609 683Q566 664 525 664Q490 664 472 679T453 732Q453 779 464 831H446Q420 803 406
764T393 682Q359 664 307 664Q277 664 263 673T249 699Q249 731 281 776T350 856Q401 888 476 888Z" />
<glyph unicode="&#xf5;" glyph-name="otilde" horiz-adv-x="721" d="M241 -25T182 7T91 99T59 238Q59 343 106 425T237 554T427 600Q465 600 501 592Q512 561 511 523Q424 523 360 485T262 382T228 234Q228 149 258 107T344 64Q414 64 461 120T519 274Q442 319
442 403Q442 455 473 490T551 526Q605 526 637 482T670 364Q670 257 624 168T497 27T320 -25Q241 -25 182 7ZM258 676T243 689T228 733Q228 770 252 827Q289 809 328 809Q358 809 385 816T453 838Q487 851 509 857T554 863Q584 863 599 850T614 806Q614 769 590
712Q553 730 514 730Q484 730 458 723T390 701Q356 688 334 682T288 676Q258 676 243 689Z" />
<glyph unicode="&#xf6;" glyph-name="odieresis" horiz-adv-x="721" d="M241 -25T182 7T91 99T59 238Q59 343 106 425T237 554T427 600Q465 600 501 592Q512 561 511 523Q424 523 360 485T262 382T228 234Q228 149 258 107T344 64Q414 64 461 120T519 274Q442
319 442 403Q442 455 473 490T551 526Q605 526 637 482T670 364Q670 257 624 168T497 27T320 -25Q241 -25 182 7ZM232 667T211 686T189 740Q189 782 220 808T291 835Q328 835 351 816T375 763Q375 721 344 694T267 667Q232 667 211 686ZM517 667T494 686T470 740Q470
782 503 808T578 835Q613 835 634 816T656 763Q656 721 626 694T554 667Q517 667 494 686Z" />
<glyph unicode="&#xf7;" glyph-name="divide" horiz-adv-x="721" d="M155 300T138 310T121 349Q121 388 146 445H546Q592 445 609 435T626 396Q626 357 602 300H201Q155 300 138 310ZM364 535T338 561T311 626Q311 670 342 703T420 736Q460 736 486 710T513 645Q513
601 481 568T404 535Q364 535 338 561ZM281 8T255 34T228 99Q228 143 259 176T337 209Q377 209 403 183T430 118Q430 74 398 41T321 8Q281 8 255 34Z" />
<glyph unicode="&#xf8;" glyph-name="oslash" horiz-adv-x="721" d="M670 262T627 176T510 36T345 -24Q330 -78 285 -78Q269 -78 251 -73T222 -60L237 -15Q153 8 106 74T59 238Q59 338 101 417T220 544T396 599Q404 628 419 641T458 655Q474 655 492 650T521 636Q517
626 511 604Q508 598 504 584Q512 555 511 523Q493 523 484 522L475 493Q506 526 551 526Q605 526 637 482T670 364Q670 262 627 176ZM228 135T270 93Q319 264 371 491Q303 456 266 388T228 234Q228 135 270 93ZM427 74T468 129T519 274Q453 312 444 379Q408 248
366 66Q427 74 468 129Z" />
<glyph unicode="&#xf9;" glyph-name="ugrave" horiz-adv-x="756" d="M621 37T647 16Q600 -25 547 -25Q500 -25 476 -1T449 73L440 78Q402 31 348 3T233 -25Q152 -25 113 14T74 137Q74 175 80 217T99 323Q109 376 114 411T120 474Q120 530 103 559Q136 577 171
588T229 600Q266 600 282 584T299 531Q299 507 291 464T267 345Q256 292 247 242T237 169Q237 78 316 78Q355 78 392 102T458 170Q471 249 520 463L470 538Q567 600 634 600Q671 600 686 585T702 533Q702 519 679 422Q653 314 637 233T621 92Q621 37 647 16ZM526
660T510 665T459 683Q410 703 369 714T278 725Q268 758 268 791Q268 828 283 847T329 867Q357 867 384 852T451 806Q492 776 522 757T590 726Q587 695 574 678T541 660Q526 660 510 665Z" />
<glyph unicode="&#xfa;" glyph-name="uacute" horiz-adv-x="756" d="M621 37T647 16Q600 -25 547 -25Q500 -25 476 -1T449 73L440 78Q402 31 348 3T233 -25Q152 -25 113 14T74 137Q74 175 80 217T99 323Q109 376 114 411T120 474Q120 530 103 559Q136 577 171
588T229 600Q266 600 282 584T299 531Q299 507 291 464T267 345Q256 292 247 242T237 169Q237 78 316 78Q355 78 392 102T458 170Q471 249 520 463L470 538Q567 600 634 600Q671 600 686 585T702 533Q702 519 679 422Q653 314 637 233T621 92Q621 37 647 16ZM330
660T317 677T301 726Q338 738 368 757T440 806Q480 837 507 852T562 867Q592 867 607 848T623 791Q623 758 613 725Q563 725 522 714T432 683Q398 670 382 665T350 660Q330 660 317 677Z" />
<glyph unicode="&#xfb;" glyph-name="ucircumflex" horiz-adv-x="756" d="M621 37T647 16Q600 -25 547 -25Q500 -25 476 -1T449 73L440 78Q402 31 348 3T233 -25Q152 -25 113 14T74 137Q74 175 80 217T99 323Q109 376 114 411T120 474Q120 530 103 559Q136 577
171 588T229 600Q266 600 282 584T299 531Q299 507 291 464T267 345Q256 292 247 242T237 169Q237 78 316 78Q355 78 392 102T458 170Q471 249 520 463L470 538Q567 600 634 600Q671 600 686 585T702 533Q702 519 679 422Q653 314 637 233T621 92Q621 37 647 16ZM423
888T498 888Q543 888 570 872T599 820L600 748Q601 704 631 683Q588 664 547 664Q512 664 494 679T475 732Q475 779 486 831H468Q442 803 428 764T415 682Q381 664 329 664Q299 664 285 673T271 699Q271 731 303 776T372 856Q423 888 498 888Z" />
<glyph unicode="&#xfc;" glyph-name="udieresis" horiz-adv-x="756" d="M621 37T647 16Q600 -25 547 -25Q500 -25 476 -1T449 73L440 78Q402 31 348 3T233 -25Q152 -25 113 14T74 137Q74 175 80 217T99 323Q109 376 114 411T120 474Q120 530 103 559Q136 577 171
588T229 600Q266 600 282 584T299 531Q299 507 291 464T267 345Q256 292 247 242T237 169Q237 78 316 78Q355 78 392 102T458 170Q471 249 520 463L470 538Q567 600 634 600Q671 600 686 585T702 533Q702 519 679 422Q653 314 637 233T621 92Q621 37 647 16ZM254
667T233 686T211 740Q211 782 242 808T313 835Q350 835 373 816T397 763Q397 721 366 694T289 667Q254 667 233 686ZM539 667T516 686T492 740Q492 782 525 808T600 835Q635 835 656 816T678 763Q678 721 648 694T576 667Q539 667 516 686Z" />
<glyph unicode="&#xfd;" glyph-name="yacute" horiz-adv-x="695" d="M669 600T669 523Q669 387 596 216T392 -78T93 -200Q17 -200 -22 -173T-62 -97Q-62 -74 -51 -52T-24 -16Q16 -76 104 -76Q137 -76 177 -62T257 -21Q192 -9 162 37T123 142T114 300Q113 406 103
468T55 564Q102 600 155 600Q210 600 238 566T274 478T282 345V274Q282 183 293 129T342 53Q413 131 456 245T499 507Q499 541 495 564Q517 581 542 590T590 600Q669 600 669 523ZM296 660T283 677T267 726Q304 738 334 757T406 806Q446 837 473 852T528 867Q558
867 573 848T589 791Q589 758 579 725Q529 725 488 714T398 683Q364 670 348 665T316 660Q296 660 283 677Z" />
<glyph unicode="&#xfe;" glyph-name="thorn" horiz-adv-x="758" d="M574 600T616 571T682 489T705 365Q705 260 655 177T515 47T312 0Q266 0 228 8Q225 -31 225 -70Q225 -105 231 -124T252 -159Q230 -179 202 -189T147 -200Q99 -200 77 -171T54 -81Q54 3 167 645L115
714Q151 741 194 758T274 775Q313 775 330 760T347 710Q347 660 337 598T306 448L317 443Q348 517 401 558T519 600Q574 600 616 571ZM322 81T390 115T497 208T536 340Q536 396 513 427T446 458Q382 458 326 363T238 106V107L234 77Q322 81 390 115Z" />
<glyph unicode="&#xff;" glyph-name="ydieresis" horiz-adv-x="695" d="M669 600T669 523Q669 387 596 216T392 -78T93 -200Q17 -200 -22 -173T-62 -97Q-62 -74 -51 -52T-24 -16Q16 -76 104 -76Q137 -76 177 -62T257 -21Q192 -9 162 37T123 142T114 300Q113 406
103 468T55 564Q102 600 155 600Q210 600 238 566T274 478T282 345V274Q282 183 293 129T342 53Q413 131 456 245T499 507Q499 541 495 564Q517 581 542 590T590 600Q669 600 669 523ZM220 667T199 686T177 740Q177 782 208 808T279 835Q316 835 339 816T363 763Q363
721 332 694T255 667Q220 667 199 686ZM505 667T482 686T458 740Q458 782 491 808T566 835Q601 835 622 816T644 763Q644 721 614 694T542 667Q505 667 482 686Z" />
<glyph unicode="&#x2013;" glyph-name="endash" horiz-adv-x="672" d="M73 199T53 213T33 264Q33 306 57 373Q117 352 188 352Q237 352 294 360T361 369Q423 378 464 382T544 387Q599 387 619 374T640 322Q640 280 616 213Q556 234 485 234Q425 234 312 217Q250
208 209 204T128 199Q73 199 53 213Z" />
<glyph unicode="&#x2014;" glyph-name="emdash" horiz-adv-x="862" d="M77 199T56 214T34 270Q34 316 57 373Q125 352 228 352Q308 352 465 369Q552 378 612 382T729 387Q787 387 808 372T829 316Q829 268 806 213Q777 223 732 228T636 234Q556 234 399 217Q312
208 252 204T135 199Q77 199 56 214Z" />
<glyph unicode="&#x2018;" glyph-name="quoteleft" horiz-adv-x="318" d="M314 736Q272 716 246 675T219 598L281 517Q279 474 245 442T166 410Q122 410 96 440T70 513Q70 607 132 678T300 776L314 736Z" />
<glyph unicode="&#x2019;" glyph-name="quoteright" horiz-adv-x="348" d="M90 450Q132 470 158 511T185 588L123 669Q125 712 159 744T238 776Q282 776 308 746T334 673Q334 579 272 508T104 410L90 450Z" />
<glyph unicode="&#x201a;" glyph-name="quotesinglbase" horiz-adv-x="333" d="M26 -149Q68 -129 94 -88T121 -11L59 70Q61 113 95 145T174 177Q218 177 244 147T270 74Q270 -20 208 -91T40 -189L26 -149Z" />
<glyph unicode="&#x201c;" glyph-name="quotedblleft" horiz-adv-x="587" d="M314 736Q272 716 246 675T219 598L281 517Q279 474 245 442T166 410Q122 410 96 440T70 513Q70 607 132 678T300 776L314 736ZM583 736Q541 716 515 675T488 598L550 517Q548 474 514
442T435 410Q391 410 365 440T339 513Q339 607 401 678T569 776L583 736Z" />
<glyph unicode="&#x201d;" glyph-name="quotedblright" horiz-adv-x="617" d="M89 450Q131 470 157 511T184 588L122 669Q124 712 158 744T237 776Q281 776 307 746T333 673Q333 579 271 508T103 410L89 450ZM358 450Q400 470 426 511T453 588L391 669Q393 712
427 744T506 776Q550 776 576 746T602 673Q602 579 540 508T372 410L358 450Z" />
<glyph unicode="&#x201e;" glyph-name="quotedblbase" horiz-adv-x="602" d="M26 -149Q68 -129 94 -88T121 -11L59 70Q61 113 95 145T174 177Q218 177 244 147T270 74Q270 -20 208 -91T40 -189L26 -149ZM295 -149Q337 -129 363 -88T390 -11L328 70Q330 113 364
145T443 177Q487 177 513 147T539 74Q539 -20 477 -91T309 -189L295 -149Z" />
<glyph unicode="&#x2022;" glyph-name="bullet" horiz-adv-x="388" d="M113 194T81 225T49 303Q49 338 66 368T113 417T180 435Q227 435 259 404T291 326Q291 291 274 261T226 212T160 194Q113 194 81 225Z" />
<glyph unicode="&#x2039;" glyph-name="guilsinglleft" horiz-adv-x="381" d="M309 549T331 530T353 481Q353 447 322 418T223 345Q185 320 158 300L177 280Q244 211 269 175T295 101Q295 70 271 48T204 25Q40 229 40 288Q40 319 66 355T138 432T275 549Q309 549
331 530Z" />
<glyph unicode="&#x203a;" glyph-name="guilsinglright" horiz-adv-x="381" d="M71 25T49 44T27 93Q27 127 58 156T157 229Q195 254 222 274L203 294Q136 363 111 399T85 473Q85 504 109 526T176 549Q340 345 340 286Q340 255 314 219T242 142T105 25Q71 25 49 44Z" />
</font>
</defs>
</svg>
