<?xml version="1.0" standalone="no"?>
<!DOCTYPE svg PUBLIC "-//W3C//DTD SVG 1.1//EN" "http://www.w3.org/Graphics/SVG/1.1/DTD/svg11.dtd">
<svg xmlns="http://www.w3.org/2000/svg">
<defs >
<font id="Sansita" horiz-adv-x="578" ><font-face
    font-family="Sansita Black"
    units-per-em="1000"
    panose-1="3 6 10 2 3 9 2 2 5 6"
    ascent="1020"
    descent="-180"
    alphabetic="0" />
<glyph unicode=" " glyph-name="space" horiz-adv-x="175" />
<glyph unicode="!" glyph-name="exclam" horiz-adv-x="256" d="M170 682T197 650T225 559Q225 519 214 420L192 183Q174 169 137 169Q103 169 86 181T63 215T52 278L13 644Q29 662 57 672T114 682Q170 682 197 650ZM185 151T217 128T249 65Q249 25 216 3T128 -19Q75
-19 42 2T9 63Q9 103 44 127T133 151Q185 151 217 128Z" />
<glyph unicode="&quot;" glyph-name="quotedbl" horiz-adv-x="421" d="M16 487T16 565Q16 657 -5 735Q35 741 58 741Q180 741 180 628Q180 586 161 532T113 445H1Q16 487 16 565ZM243 487T243 565Q243 657 222 735Q262 741 285 741Q407 741 407 628Q407 586 388
532T340 445H228Q243 487 243 565Z" />
<glyph unicode="#" glyph-name="numbersign" horiz-adv-x="642" d="M481 658T511 645V497H583Q595 476 595 448Q595 404 576 383T525 361H511V270H583Q595 248 595 221Q595 177 576 155T525 133H511V77Q511 43 490 22T427 0Q409 0 373 13V133H284V77Q284 43 263
22T200 0Q182 0 146 13V133H59Q46 157 46 182Q46 226 65 248T116 270H146V361H59Q46 383 46 409Q46 453 65 475T116 497H146V582Q146 616 167 637T230 658Q254 658 284 645V497H373V582Q373 616 394 637T457 658Q481 658 511 645ZM373 361H284V270H373V361Z" />
<glyph unicode="$" glyph-name="dollar" horiz-adv-x="642" d="M602 107T540 51T362 -18V-54Q362 -82 346 -100T301 -119Q288 -119 274 -114T254 -106V-21Q155 -17 93 14T30 107Q30 169 73 203T179 237Q197 237 231 235Q226 197 226 178Q226 120 241 88T302 56Q336
56 354 73T373 124Q373 160 354 184T305 222T225 254Q165 276 128 295T66 349T40 440Q40 523 103 580T270 653V692Q270 720 286 738T331 757Q348 757 362 751T378 744V658Q464 653 523 624T583 543Q583 483 541 456T433 428Q417 428 381 430Q386 463 386 503Q386
582 326 582Q300 582 285 565T269 521Q269 486 289 462T339 422T420 387Q480 363 516 344T577 291T602 205Q602 107 540 51Z" />
<glyph unicode="%" glyph-name="percent" horiz-adv-x="1073" d="M847 712T870 646L384 34Q365 10 347 -4T308 -18Q251 -18 228 47L714 659Q733 684 750 698T790 712Q847 712 870 646ZM313 683T367 634T422 491Q422 431 396 385T324 314T220 288Q163 288 117 312T45
380T19 483Q19 576 73 629T220 683Q313 683 367 634ZM203 629T197 600T191 488Q191 408 198 375T220 341Q237 341 244 374T251 488Q251 545 248 574T239 616T220 629Q203 629 197 600ZM946 372T1000 322T1054 179Q1054 120 1028 74T956 2T852 -24Q795 -24 749 0T677
69T651 172Q651 265 705 318T852 372Q946 372 1000 322ZM835 318T829 289T822 177Q822 97 829 63T852 29Q868 29 875 62T882 177Q882 260 876 289T852 318Q835 318 829 289Z" />
<glyph unicode="&amp;" glyph-name="ampersand" horiz-adv-x="735" d="M752 89T752 53Q752 16 723 -2T643 -20Q563 -20 484 26Q391 -19 284 -19Q162 -19 86 26T9 196Q9 254 44 295T143 353Q96 432 96 491Q96 592 165 635T334 680Q386 680 437 667T522 626T557
554Q557 503 516 477T420 450Q405 450 373 452Q374 459 380 478T386 527Q386 559 377 585T341 612Q320 612 310 597T299 556Q299 459 347 356T476 189Q485 224 485 252Q485 311 428 362Q444 375 475 387T540 400Q572 400 603 386T655 342T676 272Q676 234 660 196T615
124Q637 119 668 119Q690 119 709 124T730 133Q752 89 752 53ZM183 153T229 111T360 69Q384 69 402 78Q348 117 292 171T191 282Q183 254 183 234Q183 153 229 111Z" />
<glyph unicode="&apos;" glyph-name="quotesingle" horiz-adv-x="194" d="M16 487T16 565Q16 657 -5 735Q35 741 58 741Q180 741 180 628Q180 586 161 532T113 445H1Q16 487 16 565Z" />
<glyph unicode="(" glyph-name="parenleft" horiz-adv-x="302" d="M332 800T354 781Q265 718 227 589T188 300Q188 141 226 12T354 -181Q332 -200 297 -200Q220 -200 158 -139T61 36T25 300Q25 451 60 564T158 738T297 800Q332 800 354 781Z" />
<glyph unicode=")" glyph-name="parenright" horiz-adv-x="303" d="M76 800T139 739T239 563T277 300Q277 150 240 36T139 -139T2 -201Q-33 -201 -52 -181Q37 -119 75 11T114 300Q114 459 76 588T-52 781Q-33 800 2 800Q76 800 139 739Z" />
<glyph unicode="*" glyph-name="asterisk" horiz-adv-x="470" d="M389 604T402 569Q409 547 409 529Q409 503 395 489T358 467Q350 464 328 460L391 394Q377 367 348 345Q316 322 292 322Q275 322 262 331T238 356Q219 384 212 408L158 309Q125 315 99 335Q57
366 57 398Q57 420 75 443Q89 461 100 471L16 486Q15 492 15 503Q15 524 22 550Q42 612 87 612Q100 612 117 607Q132 603 157 588L144 683Q174 697 207 697Q256 697 273 677T290 624Q290 603 286 584L369 624Q389 604 402 569Z" />
<glyph unicode="+" glyph-name="plus" horiz-adv-x="642" d="M536 268T536 245Q536 216 517 202T466 187H383V84Q383 50 367 29T317 8Q287 8 264 18V187H118Q106 209 106 236Q106 265 125 279T176 294H264V386Q264 420 280 441T328 462Q360 462 383 452V294H524Q536
268 536 245Z" />
<glyph unicode="," glyph-name="comma" horiz-adv-x="276" d="M258 161T258 37Q258 -12 232 -53T161 -119T67 -143Q41 -143 18 -137Q44 -101 57 -66T70 11Q70 82 40 139Q50 148 76 154T125 161Q258 161 258 37Z" />
<glyph unicode="-" glyph-name="hyphen" horiz-adv-x="352" d="M19 191T19 212Q19 289 97 292L329 306Q334 294 334 271Q334 231 314 212T254 191L22 177Q19 191 19 212Z" />
<glyph unicode="." glyph-name="period" horiz-adv-x="258" d="M185 151T217 128T249 65Q249 25 216 3T128 -19Q75 -19 42 2T9 63Q9 103 44 127T133 151Q185 151 217 128Z" />
<glyph unicode="/" glyph-name="slash" horiz-adv-x="346" d="M272 803T299 784T326 725Q326 704 320 674L163 -198Q148 -200 122 -200Q75 -200 48 -182T21 -124Q21 -101 27 -72L183 800Q205 803 225 803Q272 803 299 784Z" />
<glyph unicode="0" glyph-name="zero" horiz-adv-x="642" d="M474 680T547 597T621 339Q621 166 545 72T321 -22Q177 -22 99 68T21 325Q21 680 321 680Q474 680 547 597ZM361 54T376 127T391 334Q391 470 376 537T321 604Q281 604 266 537T251 334Q251 200 266
127T321 54Q361 54 376 127Z" />
<glyph unicode="1" glyph-name="one" horiz-adv-x="642" d="M632 99V0H65V99H232V464Q214 440 192 430T136 419Q81 419 56 445T31 527Q146 559 244 596T433 682L496 652V99H632Z" />
<glyph unicode="2" glyph-name="two" horiz-adv-x="642" d="M430 680T507 629T585 469Q585 391 541 330T433 229Q386 201 352 184T283 156L573 171L576 0H47L40 73Q72 100 124 144T190 201L212 222Q248 255 271 279T310 336T326 408Q326 466 295 493T202 520Q160
520 130 502T75 450Q26 479 26 529Q26 608 107 644T299 680Q430 680 507 629Z" />
<glyph unicode="3" glyph-name="three" horiz-adv-x="642" d="M410 681T489 644T569 521Q569 465 533 426T434 369Q516 358 559 311T602 199Q602 91 515 35T271 -22Q215 -22 162 -6T75 46T40 135Q40 175 67 202Q81 167 122 148T210 128Q257 128 290 153T323 221Q323
297 230 297L180 296V379H211Q273 379 310 393T348 448Q348 488 311 509T222 530Q176 530 140 508T81 445Q42 478 42 524Q42 605 111 643T273 681Q410 681 489 644Z" />
<glyph unicode="4" glyph-name="four" horiz-adv-x="642" d="M569 267H624L614 109H571V0H291V109H19Q4 136 4 174Q4 220 35 264L304 660H569V267ZM301 509L146 267H301V509Z" />
<glyph unicode="5" glyph-name="five" horiz-adv-x="642" d="M555 492H216L206 426Q272 432 349 432Q473 432 537 383T602 223Q602 100 524 39T274 -22Q33 -22 33 135Q33 174 59 202Q101 138 186 138Q254 138 293 153T333 215Q333 256 309 275T246 300T144 305Q83
305 69 306L111 660H543L555 492Z" />
<glyph unicode="6" glyph-name="six" horiz-adv-x="642" d="M414 680T469 668T562 630T600 563Q600 517 576 493Q548 509 501 519T415 530Q366 530 338 519T298 478T287 394Q325 416 362 424T445 432Q634 432 634 230Q634 106 556 42T345 -22Q195 -22 110 58T24
299Q24 424 70 510T193 638T364 680Q414 680 469 668ZM304 343T293 302T281 198Q281 133 292 94T344 54Q384 54 395 94T407 198Q407 264 396 303T344 343Q304 343 293 302Z" />
<glyph unicode="7" glyph-name="seven" horiz-adv-x="642" d="M624 660L631 587L387 -24L72 2L368 504L32 478L28 660H624Z" />
<glyph unicode="8" glyph-name="eight" horiz-adv-x="642" d="M585 478T550 442T465 384Q525 345 556 321T607 262T627 180Q627 109 583 64T470 -1T320 -22Q196 -22 111 25T25 173Q25 227 67 270T174 321Q121 352 90 398T59 499Q59 598 137 639T340 680Q441 680
513 641T585 523Q585 478 550 442ZM281 518T304 495T374 443Q398 477 398 523Q398 604 340 604Q281 604 281 538Q281 518 304 495ZM378 151T364 171T327 207T260 252Q240 214 240 162Q240 117 260 86T320 54Q350 54 364 73T378 127Q378 151 364 171Z" />
<glyph unicode="9" glyph-name="nine" horiz-adv-x="642" d="M394 680T469 644T586 535T628 359Q628 234 579 149T450 21T278 -22Q228 -22 173 -10T80 28T41 95Q41 140 66 165Q94 149 141 139T226 128Q282 128 309 139T346 179T355 264Q317 242 280 234T196 226Q8
226 8 428Q8 552 86 616T297 680Q394 680 469 644ZM258 604T247 565T235 460Q235 393 246 354T298 315Q338 315 349 356T361 460Q361 525 350 564T298 604Q258 604 247 565Z" />
<glyph unicode=":" glyph-name="colon" horiz-adv-x="276" d="M194 530T226 507T258 444Q258 404 225 382T137 360Q84 360 51 381T18 442Q18 482 53 506T142 530Q194 530 226 507ZM194 151T226 128T258 65Q258 25 225 3T137 -19Q84 -19 51 2T18 63Q18 103 53 127T142
151Q194 151 226 128Z" />
<glyph unicode=";" glyph-name="semicolon" horiz-adv-x="286" d="M204 530T236 507T268 444Q268 404 235 382T147 360Q94 360 61 381T28 442Q28 482 63 506T152 530Q204 530 236 507ZM277 161T277 37Q277 -12 251 -53T180 -119T86 -143Q60 -143 37 -137Q63 -101
76 -66T89 11Q89 82 59 139Q69 148 95 154T144 161Q277 161 277 37Z" />
<glyph unicode="&lt;" glyph-name="less" horiz-adv-x="642" d="M508 131T516 115T525 82Q525 39 501 13T438 -13L99 219L358 429Q363 433 383 449T421 474T459 483Q493 483 515 464T555 402L353 234L495 140Q508 131 516 115Z" />
<glyph unicode="=" glyph-name="equal" horiz-adv-x="642" d="M106 286T106 313Q106 342 125 356T176 371H524Q536 345 536 322Q536 292 517 278T466 264H118Q106 286 106 313ZM106 101T106 129Q106 158 125 172T176 186H524Q536 162 536 138Q536 108 517 94T466
80H118Q106 101 106 129Z" />
<glyph unicode="&gt;" glyph-name="greater" horiz-adv-x="642" d="M543 251L290 40Q260 15 236 1T184 -13Q150 -13 127 6T88 67L287 235L148 329Q134 339 126 354T118 387Q118 430 142 456T204 483L543 251Z" />
<glyph unicode="?" glyph-name="question" horiz-adv-x="556" d="M383 680T459 644T535 509Q535 470 516 439T469 384T397 332Q342 295 316 269T289 207Q283 203 270 201T243 198Q207 198 185 223T163 286Q163 318 179 344T230 407Q266 447 283 475T301 540Q301
578 291 599T252 620Q219 620 210 592T201 514Q201 471 205 435Q180 431 148 431Q84 431 43 460T2 549Q2 619 73 649T255 680Q383 680 459 644ZM291 151T323 128T355 65Q355 25 322 3T234 -19Q181 -19 148 2T115 63Q115 103 150 127T239 151Q291 151 323 128Z"
/>
<glyph unicode="@" glyph-name="at" horiz-adv-x="781" d="M498 601T581 566T713 459T761 286Q761 209 748 161T698 87T592 61Q537 61 504 77T456 138Q449 109 419 90T338 70Q272 70 226 95T180 176Q180 245 244 267T416 289V357Q416 384 409 398T382 412Q357
412 349 397T340 345Q340 317 339 306Q333 302 299 302Q259 302 233 316T206 364Q206 417 262 436T390 455Q488 455 539 429T590 323V176Q590 143 594 126T617 108Q640 108 646 136T653 227V261Q653 404 592 467T390 531Q129 531 129 248Q129 111 193 44T393 -23Q509
-23 573 25Q590 14 590 -9Q590 -36 558 -56T477 -87T379 -98Q269 -98 188 -57T63 61T19 248Q19 351 64 431T193 556T390 601Q498 601 581 566ZM380 249T364 233T348 180Q348 128 383 128Q401 128 408 146T416 189V249Q380 249 364 233Z" />
<glyph unicode="A" glyph-name="A" horiz-adv-x="635" d="M468 660L633 0H362L327 153H164L130 0H-11L168 660H468ZM184 242H306L244 514L184 242Z" />
<glyph unicode="B" glyph-name="B" horiz-adv-x="667" d="M604 457T570 422T481 375Q660 345 660 193Q660 85 565 38T331 -10Q194 -10 45 3V651Q197 666 335 666Q459 666 531 634T604 508Q604 457 570 422ZM317 384T324 384Q366 384 384 415T402 498Q402 542 389
565T339 589Q324 589 309 583V387Q317 384 324 384ZM320 66T337 66Q378 66 392 100T406 190Q406 250 390 284T327 318L309 317V72Q320 66 337 66Z" />
<glyph unicode="C" glyph-name="C" horiz-adv-x="628" d="M319 604T308 539T296 387Q296 272 333 213T454 154Q496 154 528 171T587 224Q605 209 615 189T626 145Q626 90 589 53T493 -3T373 -22Q254 -22 173 23T52 147T12 325Q12 502 105 591T378 680Q477 680
547 652T617 551Q617 489 574 455T468 421Q450 421 416 423Q420 454 420 480Q420 538 410 571T361 604Q319 604 308 539Z" />
<glyph unicode="D" glyph-name="D" horiz-adv-x="716" d="M197 666T339 666Q523 666 613 588T703 335Q703 163 607 77T331 -10Q194 -10 45 3V651Q197 666 339 666ZM389 66T403 147T417 334Q417 449 403 519T343 589Q335 589 330 588T319 585T309 580V74Q328 66
352 66Q389 66 403 147Z" />
<glyph unicode="E" glyph-name="E" horiz-adv-x="466" d="M465 660V571H309V384H435V294H309V89H480L472 0H45V660H465Z" />
<glyph unicode="F" glyph-name="F" horiz-adv-x="454" d="M465 660V571H309V370H435V280H309V0H45V660H465Z" />
<glyph unicode="G" glyph-name="G" horiz-adv-x="644" d="M296 604T296 381Q296 304 304 251T339 164T419 129Q439 129 452 134L443 303L624 317V19Q561 -4 501 -13T366 -22Q249 -22 170 24T51 148T12 325Q12 504 107 592T387 680Q497 680 568 654T639 551Q639
489 596 455T489 421Q473 421 437 423Q442 452 442 480Q442 535 427 569T371 604Q296 604 296 381Z" />
<glyph unicode="H" glyph-name="H" horiz-adv-x="723" d="M679 660V0H415V289H309V0H45V660H309V379H415V660H679Z" />
<glyph unicode="I" glyph-name="I" horiz-adv-x="353" d="M309 660V0H45V660H309Z" />
<glyph unicode="J" glyph-name="J" horiz-adv-x="353" d="M309 -59T265 -132T111 -206Q-3 -206 -41 -147Q1 -140 19 -112T41 -50T45 48V660H309V70Q309 -59 265 -132Z" />
<glyph unicode="K" glyph-name="K" horiz-adv-x="721" d="M309 0H45V660H309V0ZM459 660H717L578 353L731 0H466L328 334L459 660Z" />
<glyph unicode="L" glyph-name="L" horiz-adv-x="475" d="M45 660H309V99H470L458 0H45V660Z" />
<glyph unicode="M" glyph-name="M" horiz-adv-x="938" d="M894 660V0H630V491L467 0H331L168 490V0H45V660H372L468 347L564 660H894Z" />
<glyph unicode="N" glyph-name="N" horiz-adv-x="720" d="M341 0L168 507V0H45V660H378L552 153V660H675V0H341Z" />
<glyph unicode="O" glyph-name="O" horiz-adv-x="716" d="M528 680T615 594T703 339Q703 230 662 149T544 23T358 -22Q254 -22 176 21T55 143T12 325Q12 496 100 588T358 680Q528 680 615 594ZM397 54T408 133T419 334Q419 457 409 530T358 604Q318 604 307 530T296
334Q296 214 307 134T358 54Q397 54 408 133Z" />
<glyph unicode="P" glyph-name="P" horiz-adv-x="680" d="M664 399T638 352T564 280T455 254Q330 254 330 343Q364 343 381 356T403 393T408 458Q408 519 395 554T339 589Q323 589 309 583V0H45V648Q204 666 335 666Q485 666 574 622T664 460Q664 399 638 352Z" />
<glyph unicode="Q" glyph-name="Q" horiz-adv-x="716" d="M528 680T615 594T703 339Q703 235 652 153T522 26T359 -22Q479 -53 551 -53Q585 -53 609 -46T657 -15Q672 -44 679 -64T686 -110Q686 -164 658 -188T581 -213Q540 -213 501 -201T399 -165Q336 -140 292
-128T202 -115Q137 -115 109 -129Q84 -102 84 -69Q84 -24 114 -10T205 7Q116 49 64 131T12 325Q12 496 100 588T358 680Q528 680 615 594ZM318 604T307 530T296 334Q296 214 307 134T358 54Q397 54 408 133T419 334Q419 457 409 530T358 604Q318 604 307 530Z"
/>
<glyph unicode="R" glyph-name="R" horiz-adv-x="669" d="M649 391T621 343T540 269L691 0H425L340 288Q336 300 333 313T330 338Q361 338 374 354T390 394T393 467Q393 525 384 557T339 589Q323 589 309 583V0H45V648Q204 666 335 666Q433 666 501 650T609 588T649
457Q649 391 621 343Z" />
<glyph unicode="S" glyph-name="S" horiz-adv-x="597" d="M413 680T488 653T563 563Q563 503 522 476T414 448Q398 448 362 450Q367 493 367 523Q367 602 306 602Q280 602 265 585T250 541Q250 504 269 479T318 439T397 404Q457 381 494 360T557 301T583 205Q583
85 496 32T266 -22Q163 -22 87 6T11 107Q11 169 54 203T160 237Q178 237 212 235Q207 197 207 178Q207 120 222 88T283 56Q317 56 335 73T354 124Q354 161 335 186T286 226T207 261Q147 284 110 305T47 364T21 460Q21 530 64 580T177 655T323 680Q413 680 488 653Z"
/>
<glyph unicode="T" glyph-name="T" horiz-adv-x="560" d="M542 660L534 571H412V0H148V571H19V660H542Z" />
<glyph unicode="U" glyph-name="U" horiz-adv-x="643" d="M608 124T544 51T336 -22Q188 -22 112 40T35 241V660H299V252Q299 182 304 144T324 88T364 70Q391 70 405 87T425 146T431 263V660H608V274Q608 124 544 51Z" />
<glyph unicode="V" glyph-name="V" horiz-adv-x="638" d="M657 660L470 0H161L7 660H278L379 146L475 660H657Z" />
<glyph unicode="W" glyph-name="W" horiz-adv-x="1052" d="M1071 660L876 0H567L519 254L478 0H169L7 660H278L386 146L490 660H677L785 146L888 660H1071Z" />
<glyph unicode="X" glyph-name="X" horiz-adv-x="536" d="M562 660L408 332L557 0H291L207 211L155 0H-22L134 342L-8 660H258L335 459L385 660H562Z" />
<glyph unicode="Y" glyph-name="Y" horiz-adv-x="579" d="M411 296V0H147V288L1 660H267L340 404L390 660H567L411 296Z" />
<glyph unicode="Z" glyph-name="Z" horiz-adv-x="510" d="M496 660L503 582L291 99H517L505 0H16L9 78L220 561H30L26 660H496Z" />
<glyph unicode="[" glyph-name="bracketleft" horiz-adv-x="360" d="M350 778T350 762Q350 744 339 734T309 724H246V-122H309Q328 -122 339 -132T350 -160Q350 -176 343 -190H75V792H343Q350 778 350 762Z" />
<glyph unicode="\" glyph-name="backslash" horiz-adv-x="346" d="M141 803T163 800L320 -72Q326 -101 326 -124Q326 -163 299 -181T225 -200Q198 -200 183 -198L27 674Q21 704 21 725Q21 765 48 784T122 803Q141 803 163 800Z" />
<glyph unicode="]" glyph-name="bracketright" horiz-adv-x="360" d="M17 -190Q9 -174 9 -160Q9 -142 20 -132T50 -122H113V724H50Q31 724 20 734T9 762Q9 776 17 792H284V-190H17Z" />
<glyph unicode="^" glyph-name="asciicircum" horiz-adv-x="559" d="M396 535T440 453T552 319Q533 267 455 267Q406 267 371 293T307 375T252 528Q202 389 160 328T73 267Q23 267 7 319Q78 360 130 451T212 660H368Q396 535 440 453Z" />
<glyph unicode="_" glyph-name="underscore" horiz-adv-x="506" d="M7 -135T7 -116Q7 -77 29 -56T91 -35H496Q499 -45 499 -64Q499 -103 477 -124T414 -145H8Q7 -135 7 -116Z" />
<glyph unicode="`" glyph-name="grave" horiz-adv-x="323" d="M136 610Q129 612 90 621T30 649T10 694Q10 717 27 740T68 777L313 629L292 575L136 610Z" />
<glyph unicode="a" glyph-name="a" horiz-adv-x="622" d="M344 9T309 -6T228 -22Q133 -22 69 14T5 129Q5 228 100 259T344 291V378Q344 421 335 446T296 471Q257 471 244 445T230 370Q230 351 232 317Q224 313 205 311T172 309Q118 309 80 331T41 398Q41 475 123
502T303 530Q436 530 510 490T584 342V134Q584 99 591 69T615 10Q597 -2 565 -8T506 -15Q396 -15 359 44Q344 9 309 -6ZM321 51T332 79T344 148V241Q287 241 263 216T239 133Q239 98 251 75T292 51Q321 51 332 79Z" />
<glyph unicode="b" glyph-name="b" horiz-adv-x="640" d="M285 601Q285 517 277 485Q302 512 335 521T415 530Q614 530 614 262Q614 120 534 49T307 -22Q247 -22 173 -6T45 36V700L285 724V601ZM296 38T315 38Q353 38 363 96T374 257Q374 353 366 404T323 455Q297
455 291 431T284 382T285 350V50Q296 38 315 38Z" />
<glyph unicode="c" glyph-name="c" horiz-adv-x="536" d="M287 469T278 411T269 270Q269 197 292 160T379 122Q449 122 488 193Q506 190 517 172T529 133Q529 56 471 17T324 -22Q184 -22 105 53T26 268Q26 402 105 466T328 530Q421 530 482 501T543 398Q543 353
505 331T412 309Q366 309 352 317Q354 357 354 381Q354 421 347 445T315 469Q287 469 278 411Z" />
<glyph unicode="d" glyph-name="d" horiz-adv-x="639" d="M595 99T602 69T626 10Q608 -2 576 -8T516 -15Q407 -15 369 44Q343 8 308 -7T223 -22Q119 -22 73 55T26 258Q26 396 102 463T323 530H355V700L595 724V134Q595 99 602 69ZM344 470T326 470Q290 470 279
412T267 263V232Q267 150 275 105T312 59Q355 59 355 156V459Q344 470 326 470Z" />
<glyph unicode="e" glyph-name="e" horiz-adv-x="580" d="M533 178T541 161T549 124Q549 74 516 42T432 -6T324 -22Q184 -22 105 53T26 268Q26 530 340 530Q436 530 504 496T573 386Q573 294 506 262T319 229Q286 229 270 233Q275 178 299 150T379 122Q423 122
461 137T518 186Q533 178 541 161ZM290 468T279 408T269 276Q323 280 346 305T370 389Q370 468 327 468Q290 468 279 408Z" />
<glyph unicode="f" glyph-name="f" horiz-adv-x="381" d="M64 -17V465H-1V510H64L67 556Q73 650 151 685T353 720Q440 720 504 701T569 626Q569 588 530 571T438 553Q392 553 378 561Q380 577 380 613Q380 638 373 654T346 671Q318 671 311 645T304 570V510H382V465H304V0L64
-17Z" />
<glyph unicode="g" glyph-name="g" horiz-adv-x="637" d="M328 -144T341 -119T358 -51T361 77V115Q314 65 213 65Q118 65 71 124T24 286Q24 410 97 470T302 530Q380 530 434 509L589 534V101Q589 -12 561 -77T469 -171T292 -200Q240 -200 185 -187T92 -144T54
-71Q54 -26 92 -4T184 18Q198 18 217 16T244 10Q244 -8 243 -17L242 -43Q242 -89 253 -116T298 -144Q328 -144 341 -119ZM342 470T332 470T320 470Q287 470 277 435T266 339V293Q266 226 272 186T306 146Q334 146 341 175T349 249V466Q342 470 332 470Z" />
<glyph unicode="h" glyph-name="h" horiz-adv-x="636" d="M285 601Q285 517 277 485Q321 530 414 530Q508 530 553 484T598 342V134Q598 99 605 69T629 10Q611 -2 580 -8T522 -15Q444 -15 401 21T358 131V346Q358 382 357 401T347 438T321 455Q299 455 292 435T285
381V351V0H45V700L285 724V601Z" />
<glyph unicode="i" glyph-name="i" horiz-adv-x="323" d="M216 755T248 732T280 669Q280 629 247 607T159 585Q106 585 73 606T40 667Q40 707 75 731T164 755Q216 755 248 732ZM278 134Q278 99 285 69T309 10Q291 -2 260 -8T202 -15Q123 -15 81 21T38 131V510H278V134Z" />
<glyph unicode="j" glyph-name="j" horiz-adv-x="332" d="M220 755T252 732T284 669Q284 629 251 607T163 585Q110 585 77 606T44 667Q44 707 79 731T168 755Q220 755 252 732ZM285 -66T247 -133T111 -200Q67 -200 29 -188T-27 -147Q19 -138 32 -102T45 -3V29V510H285V52Q285
-66 247 -133Z" />
<glyph unicode="k" glyph-name="k" horiz-adv-x="621" d="M45 0V700L285 724V0H45ZM428 510H621L499 316L629 0H375L299 282L428 510Z" />
<glyph unicode="l" glyph-name="l" horiz-adv-x="319" d="M276 724V134Q276 99 283 69T307 10Q289 -2 258 -8T199 -15Q121 -15 79 21T36 131V700L276 724Z" />
<glyph unicode="m" glyph-name="m" horiz-adv-x="931" d="M37 510L229 522L239 432Q260 486 302 508T409 530Q520 530 565 459Q606 530 719 530Q893 530 893 342V134Q893 99 900 69T924 10Q906 -2 875 -8T817 -15Q739 -15 696 21T653 131V346Q653 352 653 384T646
435T622 455Q605 455 598 439T590 405T589 351V0H349V346Q349 351 349 383T340 435T312 455Q291 455 284 436T277 385V351V0H37V510Z" />
<glyph unicode="n" glyph-name="n" horiz-adv-x="627" d="M37 510L229 522L239 432Q260 486 302 508T409 530Q501 530 545 483T589 342V134Q589 99 596 69T620 10Q602 -2 571 -8T513 -15Q435 -15 392 21T349 131V346Q349 351 349 383T340 435T312 455Q291 455
284 436T277 385V351V0H37V510Z" />
<glyph unicode="o" glyph-name="o" horiz-adv-x="625" d="M451 530T525 463T599 262Q599 176 564 112T463 13T313 -22Q230 -22 165 12T63 108T26 252Q26 387 101 458T313 530Q451 530 525 463ZM343 38T351 98T359 257V288Q359 373 351 421T313 470Q284 470 276
424T267 296V246Q267 152 275 95T313 38Q343 38 351 98Z" />
<glyph unicode="p" glyph-name="p" horiz-adv-x="641" d="M615 530T615 262Q615 120 535 49T307 -22H285V-179L45 -193V510L238 522L248 432Q268 485 310 507T418 530Q615 530 615 262ZM300 455T292 436T284 382L285 325V49Q296 38 315 38Q353 38 363 96T374 257Q374
349 365 402T323 455Q300 455 292 436Z" />
<glyph unicode="q" glyph-name="q" horiz-adv-x="629" d="M355 -93Q355 7 363 35Q335 4 300 -9T218 -22Q114 -22 70 48T26 241Q26 377 99 453T307 530Q386 530 440 509L595 534V-180L355 -204V-93ZM345 470T326 470Q287 470 277 410T267 246V207Q267 135 275 97T311
59Q338 59 347 81T356 143L355 205V460Q345 470 326 470Z" />
<glyph unicode="r" glyph-name="r" horiz-adv-x="536" d="M286 439T282 421T277 353V0H37V510L229 522L239 432Q257 480 296 505T389 530Q460 530 501 492T543 383Q543 322 509 288T412 254Q399 254 378 256T349 264Q354 287 354 330Q354 379 346 409T307 439Q286
439 282 421Z" />
<glyph unicode="s" glyph-name="s" horiz-adv-x="503" d="M250 471T240 458T229 426Q229 389 258 364T350 306Q397 282 425 264T472 218T492 156Q492 60 420 19T232 -22Q145 -22 76 3T6 89Q6 134 44 156T136 178Q150 178 169 176T197 170Q195 136 195 117Q195
77 202 57T236 37Q257 37 269 53T282 93Q282 131 252 156T160 212Q113 236 85 254T38 300T18 362Q18 452 89 491T271 530Q349 530 420 509T492 438Q492 399 451 376T362 353Q315 353 302 360L304 413Q304 438 296 454T268 471Q250 471 240 458Z" />
<glyph unicode="t" glyph-name="t" horiz-adv-x="366" d="M5 465L6 497Q58 514 125 551T234 624H302V510H393V465H303V124Q303 92 315 73T358 46Q337 13 299 -1T216 -15Q144 -15 104 21T64 126V465H5Z" />
<glyph unicode="u" glyph-name="u" horiz-adv-x="642" d="M597 134Q597 99 604 69T628 10Q610 -2 577 -8T518 -15Q408 -15 371 44Q344 8 309 -7T224 -22Q148 -22 108 8T53 94T38 236V510H284V241Q284 137 288 98T313 59Q342 59 349 86T357 162V510H597V134Z" />
<glyph unicode="v" glyph-name="v" horiz-adv-x="615" d="M629 510L459 0H152L15 510H267L343 84L419 510H629Z" />
<glyph unicode="w" glyph-name="w" horiz-adv-x="875" d="M889 510L735 0H473L434 169L398 0H136L15 510H267L327 84L387 510H574L634 84L694 510H889Z" />
<glyph unicode="x" glyph-name="x" horiz-adv-x="506" d="M202 156L180 0H-13L123 276L2 510H257L308 379L315 510H508L381 252L515 0H260L202 156Z" />
<glyph unicode="y" glyph-name="y" horiz-adv-x="588" d="M596 510L337 -193L97 -180L224 65H137L11 510H263L332 149L407 510H596Z" />
<glyph unicode="z" glyph-name="z" horiz-adv-x="459" d="M440 510L445 451L273 93L445 110L433 0H2L-4 58L168 416L21 403L32 510H440Z" />
<glyph unicode="{" glyph-name="braceleft" horiz-adv-x="416" d="M373 800T426 791V726H392Q348 726 326 708T303 650L304 412Q304 366 278 346T190 319Q237 310 260 300T294 268T306 204V-4Q306 -59 325 -92T394 -125H427L429 -191Q363 -200 311 -200Q230 -200
182 -179T133 -93V170Q133 217 102 244T29 272L28 353Q85 353 111 373T137 442V689Q137 750 180 775T312 800Q373 800 426 791Z" />
<glyph unicode="|" glyph-name="bar" horiz-adv-x="341" d="M255 800H86V-200H255V800Z" />
<glyph unicode="}" glyph-name="braceright" horiz-adv-x="388" d="M112 366T138 346T226 319Q179 310 156 300T122 268T110 204V-4Q110 -59 91 -92T22 -125H-11L-13 -191Q53 -200 105 -200Q186 -200 234 -179T283 -93V170Q283 217 314 244T387 272L388 353Q331
353 305 373T279 442V689Q279 750 236 775T104 800Q42 800 -9 791V726H24Q68 726 91 708T114 650L112 412Q112 366 138 346Z" />
<glyph unicode="~" glyph-name="asciitilde" horiz-adv-x="642" d="M415 266T387 271T332 282Q287 292 259 296T201 301Q153 301 124 289T94 237Q94 218 105 199T132 167Q142 186 161 191T207 197Q227 197 255 192T310 181Q355 171 383 167T440 162Q488 162 518
174T548 226Q548 245 537 265T510 297Q500 278 480 272T435 266Q415 266 387 271Z" />
<glyph unicode="&#xa0;" glyph-name="uni00A0" horiz-adv-x="175" />
<glyph unicode="&#xa1;" glyph-name="exclamdown" horiz-adv-x="256" d="M182 529T214 506T246 443Q246 403 213 381T125 359Q72 359 39 380T6 441Q6 481 41 505T130 529Q182 529 214 506ZM152 339T169 327T193 293T203 231L243 -135Q226 -153 198 -163T142 -173Q86
-173 59 -141T31 -51Q31 -24 41 89L64 326Q82 339 118 339Q152 339 169 327Z" />
<glyph unicode="&#xa2;" glyph-name="cent" horiz-adv-x="642" d="M565 253T576 236T587 197Q587 124 535 85T392 42V16Q392 -13 376 -31T331 -49Q318 -49 304 -44T284 -37V51Q169 73 112 149T55 332Q55 432 111 497T282 584V624Q282 652 298 670T343 689Q358
689 372 683T390 676V593Q602 591 602 461Q602 416 564 394T471 372Q458 372 439 374T411 380L412 415Q413 426 413 444Q413 485 406 509T373 533Q327 533 312 474T297 333Q297 261 327 223T437 185Q507 185 546 256Q565 253 576 236Z" />
<glyph unicode="&#xa3;" glyph-name="sterling" horiz-adv-x="642" d="M332 258T302 219T209 160L614 178L601 0H41L28 120Q60 135 74 161T90 220T93 321H5L3 342Q3 371 19 386T64 401H93V481Q93 580 175 620T385 660Q475 660 550 633T625 543Q625 484 586 463T476
442Q460 442 424 444Q429 487 429 517Q429 596 383 596Q355 596 347 570T338 495V401H483Q484 394 484 379Q484 350 468 336T422 321H337Q332 258 302 219Z" />
<glyph unicode="&#xa4;" glyph-name="currency" horiz-adv-x="642" d="M528 107L437 184Q385 155 310 155Q252 155 207 174L132 96L67 162L134 225Q94 273 94 341Q94 405 130 451L68 506L120 580L198 502Q245 525 309 525Q354 525 398 511L459 585L533 522L476
465Q525 416 525 341Q525 280 497 238L575 178L528 107ZM335 264T348 284T361 340Q361 376 348 396T309 416Q283 416 271 396T258 340Q258 304 271 284T310 264Q335 264 348 284Z" />
<glyph unicode="&#xa6;" glyph-name="brokenbar" horiz-adv-x="343" d="M258 388V660H90V388H258ZM253 0V272H86V0H253Z" />
<glyph unicode="&#xa7;" glyph-name="section" horiz-adv-x="399" d="M332 99T358 65T385 -16Q385 -70 356 -107T278 -162T173 -181Q104 -181 60 -159T15 -83Q15 -48 39 -21T102 6Q125 6 141 -5Q139 -25 139 -43Q139 -85 146 -106T182 -128Q205 -128 218 -112T232
-71Q232 -41 211 -23T143 22Q99 45 72 65T25 119T5 203Q5 250 37 296T114 369Q67 400 40 434T13 514Q13 595 75 637T227 680Q384 680 384 583Q384 547 360 521T297 494Q272 494 258 505Q260 525 260 542Q260 583 252 605T215 627Q193 627 180 611T167 571Q167 538
191 516T264 466Q305 443 331 424T376 374T394 303Q394 261 366 215T285 131Q332 99 358 65ZM134 238T158 217T234 164Q251 180 258 199T265 234Q265 261 242 283T171 334Q134 309 134 265Q134 238 158 217Z" />
<glyph unicode="&#xa8;" glyph-name="dieresis" horiz-adv-x="485" d="M423 755T455 732T487 669Q487 629 454 607T366 585Q313 585 280 606T247 667Q247 707 282 731T371 755Q423 755 455 732ZM173 755T205 732T237 669Q237 629 204 607T116 585Q63 585 30 606T-3
667Q-3 707 32 731T121 755Q173 755 205 732Z" />
<glyph unicode="&#xa9;" glyph-name="copyright" horiz-adv-x="726" d="M464 615T545 570T673 445T719 263Q719 161 674 84T548 -36T363 -79Q259 -79 179 -37T53 83T7 263Q7 364 53 444T180 570T363 615Q464 615 545 570ZM286 536T231 501T146 404T116 263Q116
141 180 71T363 0Q481 0 545 70T610 263Q610 342 581 404T496 501T363 536Q286 536 231 501ZM532 468T532 376Q532 346 507 330T444 314Q435 314 422 315T405 319Q404 327 405 338T406 357Q406 389 400 409T374 429Q350 429 343 388T336 283Q336 231 353 204T415
176Q466 176 493 229Q506 227 514 214T522 187Q522 133 481 105T379 76Q282 76 228 130T173 281Q173 376 228 422T382 468Q532 468 532 376Z" />
<glyph unicode="&#xaa;" glyph-name="ordfeminine" horiz-adv-x="480" d="M298 674T342 664T412 624T438 538V395Q438 344 460 304Q445 295 423 290T378 285Q336 285 311 296T271 334Q264 307 238 293T180 278Q111 278 64 304T17 387Q17 458 83 480T260 503V573Q260
601 253 615T224 630Q199 630 190 614T180 561Q180 553 181 541T181 521Q173 516 139 516Q98 516 71 531T43 580Q43 635 101 654T232 674Q298 674 342 664ZM223 462T207 446T190 392Q190 338 225 338Q244 338 252 356T260 400V462Q223 462 207 446ZM424 207T424
200Q424 171 411 164T362 156H64Q57 188 57 194Q57 223 71 230T120 238H417Q424 207 424 200Z" />
<glyph unicode="&#xab;" glyph-name="guillemotleft" horiz-adv-x="532" d="M127 511H261L171 317L255 126H126L-10 317L127 511ZM372 511H504L417 317L501 126H372L236 317L372 511Z" />
<glyph unicode="&#xac;" glyph-name="logicalnot" horiz-adv-x="642" d="M549 8Q521 -5 496 -5Q464 -5 449 16T433 71V187H90Q78 211 78 236Q78 265 97 279T148 293H549V8Z" />
<glyph unicode="&#xad;" glyph-name="uni00AD" horiz-adv-x="352" d="M19 191T19 212Q19 251 38 270T97 292L329 306Q334 294 334 271Q334 231 314 212T254 191L22 177Q19 191 19 212Z" />
<glyph unicode="&#xae;" glyph-name="registered" horiz-adv-x="726" d="M464 680T545 635T673 510T719 328Q719 226 674 149T548 29T363 -14Q259 -14 179 28T53 148T7 328Q7 429 53 509T180 635T363 680Q464 680 545 635ZM286 601T231 566T146 469T116 328Q116
206 180 136T363 65Q481 65 545 135T610 328Q610 407 581 469T496 566T363 601Q286 601 231 566ZM435 531T480 506T525 413Q525 375 509 348T463 305L554 152H418L359 318Q351 336 351 346Q378 346 385 362T393 413Q393 448 387 469T358 491Q354 491 336 486V152H199V521Q242
525 279 528T352 531Q435 531 480 506Z" />
<glyph unicode="&#xaf;" glyph-name="overscore" horiz-adv-x="344" d="M334 704T334 678Q334 652 318 636T278 620H20Q10 634 10 661Q10 686 26 701T70 717H325Q334 704 334 678Z" />
<glyph unicode="&#xb0;" glyph-name="degree" horiz-adv-x="363" d="M134 370T96 390T36 446T14 529Q14 601 60 642T181 684Q256 684 302 643T349 529Q349 458 302 414T181 370Q134 370 96 390ZM215 438T231 463T247 529Q247 567 231 591T181 616Q148 616 132
592T116 529Q116 489 131 464T181 438Q215 438 231 463Z" />
<glyph unicode="&#xb1;" glyph-name="plusminus" horiz-adv-x="642" d="M134 270Q122 296 122 319Q122 348 141 362T192 377H262V417Q262 451 278 472T326 494Q353 494 381 484V377H506Q518 351 518 328Q518 299 499 285T448 270H381V224Q381 190 365 169T315
147Q290 147 262 157V270H134ZM521 93T525 79T529 52Q529 23 509 8T458 -8H126Q113 16 113 43Q113 72 132 87T184 102H516Q521 93 525 79Z" />
<glyph unicode="&#xb2;" glyph-name="uni00B2" horiz-adv-x="357" d="M232 675T281 646T330 559Q330 517 303 483T238 424L206 402Q187 388 181 384L322 393L324 285H25L21 335Q53 354 85 377Q107 393 133 433T159 518Q159 544 142 558T97 573Q55 573 32 549Q9
567 9 591Q9 633 57 654T162 675Q232 675 281 646Z" />
<glyph unicode="&#xb3;" glyph-name="uni00B3" horiz-adv-x="341" d="M213 675T252 653T291 584Q291 548 270 526T204 494Q310 485 310 395Q310 336 269 303T158 269Q99 269 55 291T11 358Q11 375 26 392Q65 370 99 370Q142 370 142 407Q142 426 132 437T102 448Q81
448 75 447V504Q110 504 132 511T155 542Q155 564 142 576T107 588Q84 588 68 578T35 546Q13 563 13 586Q13 631 56 653T156 675Q213 675 252 653Z" />
<glyph unicode="&#xb4;" glyph-name="acute" horiz-adv-x="323" d="M255 777Q278 764 295 741T313 694Q313 667 296 652T257 629T187 610L30 575L10 629L255 777Z" />
<glyph unicode="&#xb5;" glyph-name="uni00B5" horiz-adv-x="650" d="M604 99T611 69T635 10Q617 -2 585 -8T525 -15Q416 -15 378 44Q340 -4 285 -16V-180L45 -194V510L292 534V241Q292 137 296 98T321 59Q349 59 356 86T364 162V510H604V134Q604 99 611 69Z" />
<glyph unicode="&#xb6;" glyph-name="paragraph" horiz-adv-x="674" d="M178 -126T228 -126Q280 -126 299 -92T319 7V265Q281 254 243 254Q149 254 99 310T48 463Q48 575 116 622T312 670Q374 670 423 660V35Q423 -75 383 -137T248 -200Q198 -200 165 -180T131
-128Q131 -118 135 -110T146 -98Q178 -126 228 -126ZM713 620T697 602T641 583Q616 583 599 588V0L501 -15V660H713Q713 620 697 602Z" />
<glyph unicode="&#xb7;" glyph-name="middot" horiz-adv-x="258" d="M185 325T217 302T249 239Q249 199 216 177T128 155Q75 155 42 176T9 237Q9 277 44 301T133 325Q185 325 217 302Z" />
<glyph unicode="&#xb8;" glyph-name="cedilla" horiz-adv-x="286" d="M207 -54T241 -78T276 -154Q276 -205 230 -233T123 -261Q81 -261 46 -248T10 -197Q10 -164 23 -146Q34 -163 51 -171T97 -180Q111 -180 120 -171T130 -145Q130 -125 114 -117T74 -109Q61 -109
35 -111L79 11H174L149 -53Q207 -54 241 -78Z" />
<glyph unicode="&#xb9;" glyph-name="uni00B9" horiz-adv-x="353" d="M349 351V285H45V351H111V528Q89 511 61 511Q33 511 25 531T17 590Q78 611 126 631T221 680L284 662V351H349Z" />
<glyph unicode="&#xba;" glyph-name="ordmasculine" horiz-adv-x="433" d="M318 674T373 625T428 483Q428 423 402 377T328 306T221 280Q163 280 117 305T43 374T16 475Q16 568 71 621T221 674Q318 674 373 625ZM240 327T244 374T249 490Q249 550 244 588T221
626Q202 626 198 587T193 480Q193 417 198 372T221 327Q240 327 244 374ZM34 188T34 194Q34 223 47 230T96 238H394Q401 207 401 200Q401 171 388 164T339 156H41Q34 188 34 194Z" />
<glyph unicode="&#xbb;" glyph-name="guillemotright" horiz-adv-x="532" d="M160 511L296 317L158 126H29L115 317L27 511H160ZM404 511L541 317L404 126H275L361 317L270 511H404Z" />
<glyph unicode="&#xbc;" glyph-name="onequarter" horiz-adv-x="857" d="M540 720T552 710T564 682Q564 674 563 668T561 658L371 -84Q355 -91 327 -91Q309 -91 297 -81T285 -53Q285 -41 288 -29L478 713Q494 720 522 720Q540 720 552 710ZM294 662V351H349V285H56V351H121V528Q99
511 71 511Q44 511 36 531T27 590Q88 611 136 631T231 680L294 662ZM783 138H829L823 45H783V0H604V45H456Q445 65 445 82Q445 107 463 135L617 368H783V138ZM610 260L539 138H610V260Z" />
<glyph unicode="&#xbd;" glyph-name="onehalf" horiz-adv-x="857" d="M530 720T542 710T554 682Q554 674 553 668T551 658L360 -84Q344 -91 317 -91Q299 -91 287 -81T275 -53Q275 -41 278 -29L468 713Q484 720 511 720Q530 720 542 710ZM284 662V351H329V285H45V351H111V528Q89
511 61 511Q33 511 25 531T17 590Q78 611 126 631T221 680L284 662ZM714 390T762 361T811 274Q811 229 777 190T705 127Q689 117 663 99L804 108L806 0H506L502 50Q521 60 535 70T566 93Q589 111 615 150T641 233Q641 259 624 273T579 288Q537 288 513 264Q490
283 490 306Q490 348 539 369T644 390Q714 390 762 361Z" />
<glyph unicode="&#xbe;" glyph-name="threequarters" horiz-adv-x="857" d="M540 720T552 710T564 682Q564 674 563 668T561 658L371 -84Q355 -91 327 -91Q309 -91 297 -81T285 -53Q285 -41 288 -29L478 713Q494 720 522 720Q540 720 552 710ZM238 675T277 653T317
584Q317 548 296 526T230 494Q336 485 336 395Q336 336 295 303T183 269Q125 269 81 291T37 358Q37 377 52 392Q69 382 88 376T125 370Q168 370 168 407Q168 426 158 437T127 448Q107 448 100 447V504Q136 504 158 511T181 542Q181 564 168 576T132 588Q109 588
94 578T61 546Q39 563 39 586Q39 631 81 653T181 675Q238 675 277 653ZM773 138H819L813 45H773V0H604V45H456Q445 65 445 82Q445 107 463 135L617 368H773V138ZM610 260L539 138H610V260Z" />
<glyph unicode="&#xbf;" glyph-name="questiondown" horiz-adv-x="556" d="M369 529T401 506T433 443Q433 403 400 381T312 359Q259 359 226 380T193 441Q193 481 228 505T317 529Q369 529 401 506ZM358 311T380 286T402 223Q402 191 386 165T335 102Q299 62 282
34T264 -31Q264 -69 274 -90T313 -111Q346 -111 355 -83T364 -5Q364 38 360 74Q392 79 417 79Q480 79 521 50T563 -40Q563 -110 492 -140T310 -171Q183 -171 107 -135T30 0Q30 39 49 70T96 125T168 177Q223 214 249 240T276 302Q282 306 296 308T322 311Q358 311
380 286Z" />
<glyph unicode="&#xc0;" glyph-name="Agrave" horiz-adv-x="635" d="M468 660L633 0H362L327 153H164L130 0H-11L168 660H468ZM184 242H306L244 514L184 242ZM268 751Q222 754 198 758T153 777T132 822Q132 844 144 867T175 907L440 796L427 740L268 751Z" />
<glyph unicode="&#xc1;" glyph-name="Aacute" horiz-adv-x="635" d="M468 660L633 0H362L327 153H164L130 0H-11L168 660H468ZM184 242H306L244 514L184 242ZM462 905Q481 890 493 866T506 820Q506 790 486 775T441 756T370 749L211 738L198 794L462 905Z" />
<glyph unicode="&#xc2;" glyph-name="Acircumflex" horiz-adv-x="635" d="M468 660L633 0H362L327 153H164L130 0H-11L168 660H468ZM184 242H306L244 514L184 242ZM176 693L131 745L296 857H339L507 745L463 693L319 725L176 693Z" />
<glyph unicode="&#xc3;" glyph-name="Atilde" horiz-adv-x="635" d="M468 660L633 0H362L327 153H164L130 0H-11L168 660H468ZM184 242H306L244 514L184 242ZM544 838T544 809Q544 766 513 752T424 737Q386 737 309 746Q296 747 255 751T188 755Q165 755 148 751T118
732Q97 768 97 797Q97 840 128 854T217 869Q255 869 331 860Q344 859 385 855T453 851Q476 851 493 855T523 874Q544 838 544 809Z" />
<glyph unicode="&#xc4;" glyph-name="Adieresis" horiz-adv-x="635" d="M468 660L633 0H362L327 153H164L130 0H-11L168 660H468ZM184 242H306L244 514L184 242ZM506 877T538 854T570 791Q570 751 537 729T449 707Q396 707 363 728T330 789Q330 829 365 853T454
877Q506 877 538 854ZM256 877T288 854T320 791Q320 751 287 729T199 707Q146 707 113 728T80 789Q80 829 115 853T204 877Q256 877 288 854Z" />
<glyph unicode="&#xc5;" glyph-name="Aring" horiz-adv-x="635" d="M468 660L633 0H362L327 153H164L130 0H-11L168 660H468ZM184 242H306L244 514L184 242ZM264 728T230 756T196 832Q196 880 229 906T319 933Q375 933 408 907T442 832Q442 785 408 757T319 728Q264
728 230 756ZM342 772T353 788T365 832Q365 858 354 874T319 890Q295 890 284 874T272 832Q272 805 283 789T319 772Q342 772 353 788Z" />
<glyph unicode="&#xc6;" glyph-name="AE" horiz-adv-x="766" d="M766 660V571H633V384H736V294H633V89H781L773 0H369V153H220L160 0H3L287 660H766ZM369 544L256 242H369V544Z" />
<glyph unicode="&#xc7;" glyph-name="Ccedilla" horiz-adv-x="628" d="M626 93T592 56T504 0T390 -22L378 -53Q436 -54 470 -78T505 -154Q505 -205 459 -233T352 -261Q310 -261 275 -248T239 -197Q239 -164 252 -146Q263 -163 280 -171T326 -180Q340 -180 349
-171T359 -145Q359 -125 343 -117T303 -109Q290 -109 264 -111L298 -17Q157 4 85 97T12 325Q12 502 105 591T378 680Q477 680 547 652T617 551Q617 489 574 455T468 421Q450 421 416 423Q420 454 420 480Q420 538 410 571T361 604Q319 604 308 539T296 387Q296
272 333 213T454 154Q496 154 528 171T587 224Q605 209 615 189T626 145Q626 93 592 56Z" />
<glyph unicode="&#xc8;" glyph-name="Egrave" horiz-adv-x="466" d="M465 660V571H309V384H435V294H309V89H480L472 0H45V660H465ZM204 720Q158 723 134 727T89 746T68 791Q68 813 80 836T111 876L376 765L363 709L204 720Z" />
<glyph unicode="&#xc9;" glyph-name="Eacute" horiz-adv-x="466" d="M465 660V571H309V384H435V294H309V89H480L472 0H45V660H465ZM398 1130Q417 1115 429 1091T442 1045Q442 1015 422 1000T377 981T306 974L147 963L134 1019L398 1130Z" />
<glyph unicode="&#xca;" glyph-name="Ecircumflex" horiz-adv-x="466" d="M465 660V571H309V384H435V294H309V89H480L472 0H45V660H465ZM115 693L70 745L235 857H278L446 745L402 693L258 725L115 693Z" />
<glyph unicode="&#xcb;" glyph-name="Edieresis" horiz-adv-x="466" d="M465 660V571H309V384H435V294H309V89H480L472 0H45V660H465ZM445 877T477 854T509 791Q509 751 476 729T388 707Q335 707 302 728T269 789Q269 829 304 853T393 877Q445 877 477 854ZM195
877T227 854T259 791Q259 751 226 729T138 707Q85 707 52 728T19 789Q19 829 54 853T143 877Q195 877 227 854Z" />
<glyph unicode="&#xcc;" glyph-name="Igrave" horiz-adv-x="353" d="M309 660V0H45V660H309ZM382 720Q336 723 312 727T267 746T246 791Q246 813 258 836T289 876L554 765L541 709L382 720Z" />
<glyph unicode="&#xcd;" glyph-name="Iacute" horiz-adv-x="353" d="M309 660V0H45V660H309ZM320 1130Q339 1115 351 1091T364 1045Q364 1015 344 1000T299 981T228 974L69 963L56 1019L320 1130Z" />
<glyph unicode="&#xce;" glyph-name="Icircumflex" horiz-adv-x="353" d="M309 660V0H45V660H309ZM293 693L248 745L413 857H456L624 745L580 693L436 725L293 693Z" />
<glyph unicode="&#xcf;" glyph-name="Idieresis" horiz-adv-x="353" d="M309 660V0H45V660H309ZM367 877T399 854T431 791Q431 751 398 729T310 707Q257 707 224 728T191 789Q191 829 226 853T315 877Q367 877 399 854ZM373 877T405 854T437 791Q437 751 404 729T316
707Q263 707 230 728T197 789Q197 829 232 853T321 877Q373 877 405 854Z" />
<glyph unicode="&#xd0;" glyph-name="Eth" horiz-adv-x="710" d="M518 666T608 588T698 335Q698 163 602 77T326 -10Q189 -10 40 3V286H-1Q-3 295 -3 312Q-3 366 40 380V651Q192 666 334 666Q518 666 608 588ZM384 66T398 147T412 334Q412 449 398 519T338 589Q330
589 325 588T314 585T304 580V385H372Q374 376 374 358Q374 325 356 307T304 286V74Q323 66 347 66Q384 66 398 147Z" />
<glyph unicode="&#xd1;" glyph-name="Ntilde" horiz-adv-x="720" d="M341 0L168 507V0H45V660H378L552 153V660H675V0H341ZM586 807T586 778Q586 735 555 721T466 706Q428 706 351 715Q338 716 297 720T230 724Q207 724 190 720T160 701Q139 737 139 766Q139 809
170 823T259 838Q297 838 373 829Q386 828 427 824T495 820Q518 820 535 824T565 843Q586 807 586 778Z" />
<glyph unicode="&#xd2;" glyph-name="Ograve" horiz-adv-x="716" d="M528 680T615 594T703 339Q703 230 662 149T544 23T358 -22Q254 -22 176 21T55 143T12 325Q12 496 100 588T358 680Q528 680 615 594ZM397 54T408 133T419 334Q419 457 409 530T358 604Q318
604 307 530T296 334Q296 214 307 134T358 54Q397 54 408 133ZM307 720Q261 723 237 727T192 746T171 791Q171 813 183 836T214 876L479 765L466 709L307 720Z" />
<glyph unicode="&#xd3;" glyph-name="Oacute" horiz-adv-x="716" d="M528 680T615 594T703 339Q703 230 662 149T544 23T358 -22Q254 -22 176 21T55 143T12 325Q12 496 100 588T358 680Q528 680 615 594ZM397 54T408 133T419 334Q419 457 409 530T358 604Q318
604 307 530T296 334Q296 214 307 134T358 54Q397 54 408 133ZM501 874Q520 859 532 835T545 789Q545 759 525 744T480 725T409 718L250 707L237 763L501 874Z" />
<glyph unicode="&#xd4;" glyph-name="Ocircumflex" horiz-adv-x="716" d="M528 680T615 594T703 339Q703 230 662 149T544 23T358 -22Q254 -22 176 21T55 143T12 325Q12 496 100 588T358 680Q528 680 615 594ZM397 54T408 133T419 334Q419 457 409 530T358 604Q318
604 307 530T296 334Q296 214 307 134T358 54Q397 54 408 133ZM218 693L173 745L338 857H381L549 745L505 693L361 725L218 693Z" />
<glyph unicode="&#xd5;" glyph-name="Otilde" horiz-adv-x="716" d="M528 680T615 594T703 339Q703 230 662 149T544 23T358 -22Q254 -22 176 21T55 143T12 325Q12 496 100 588T358 680Q528 680 615 594ZM397 54T408 133T419 334Q419 457 409 530T358 604Q318
604 307 530T296 334Q296 214 307 134T358 54Q397 54 408 133ZM583 807T583 778Q583 735 552 721T463 706Q425 706 348 715Q335 716 294 720T227 724Q204 724 187 720T157 701Q136 737 136 766Q136 809 167 823T256 838Q294 838 370 829Q383 828 424 824T492 820Q515
820 532 824T562 843Q583 807 583 778Z" />
<glyph unicode="&#xd6;" glyph-name="Odieresis" horiz-adv-x="716" d="M528 680T615 594T703 339Q703 230 662 149T544 23T358 -22Q254 -22 176 21T55 143T12 325Q12 496 100 588T358 680Q528 680 615 594ZM397 54T408 133T419 334Q419 457 409 530T358 604Q318
604 307 530T296 334Q296 214 307 134T358 54Q397 54 408 133ZM548 877T580 854T612 791Q612 751 579 729T491 707Q438 707 405 728T372 789Q372 829 407 853T496 877Q548 877 580 854ZM298 877T330 854T362 791Q362 751 329 729T241 707Q188 707 155 728T122 789Q122
829 157 853T246 877Q298 877 330 854Z" />
<glyph unicode="&#xd7;" glyph-name="multiply" horiz-adv-x="642" d="M481 131Q484 125 492 113Q509 88 509 72Q509 38 489 18T434 -3L317 154L231 49Q200 1 153 1Q109 1 90 47L249 241L163 344Q158 351 150 361T138 381T133 402Q133 436 154 456T210 477L321
328L403 429Q438 478 480 478Q525 478 543 432L388 241L481 131Z" />
<glyph unicode="&#xd8;" glyph-name="Oslash" horiz-adv-x="716" d="M703 549T703 339Q703 230 662 149T544 23T358 -22Q259 -22 182 18L133 -59Q99 -60 78 -49T57 -14Q57 4 74 29L104 76Q59 122 36 185T12 325Q12 496 100 588T358 680Q425 680 477 667L513 724Q547
725 568 714T589 679Q589 662 572 636L569 630Q703 549 703 339ZM322 604T310 542T296 381L403 550Q388 604 358 604Q322 604 310 542ZM397 54T408 133T419 334V393L299 205Q310 54 358 54Q397 54 408 133Z" />
<glyph unicode="&#xd9;" glyph-name="Ugrave" horiz-adv-x="643" d="M608 124T544 51T336 -22Q188 -22 112 40T35 241V660H299V252Q299 182 304 144T324 88T364 70Q391 70 405 87T425 146T431 263V660H608V274Q608 124 544 51ZM273 720Q227 723 203 727T158 746T137
791Q137 813 149 836T180 876L445 765L432 709L273 720Z" />
<glyph unicode="&#xda;" glyph-name="Uacute" horiz-adv-x="643" d="M608 124T544 51T336 -22Q188 -22 112 40T35 241V660H299V252Q299 182 304 144T324 88T364 70Q391 70 405 87T425 146T431 263V660H608V274Q608 124 544 51ZM467 874Q486 859 498 835T511 789Q511
759 491 744T446 725T375 718L216 707L203 763L467 874Z" />
<glyph unicode="&#xdb;" glyph-name="Ucircumflex" horiz-adv-x="643" d="M608 124T544 51T336 -22Q188 -22 112 40T35 241V660H299V252Q299 182 304 144T324 88T364 70Q391 70 405 87T425 146T431 263V660H608V274Q608 124 544 51ZM185 693L140 745L305 857H348L516
745L472 693L328 725L185 693Z" />
<glyph unicode="&#xdc;" glyph-name="Udieresis" horiz-adv-x="643" d="M608 124T544 51T336 -22Q188 -22 112 40T35 241V660H299V252Q299 182 304 144T324 88T364 70Q391 70 405 87T425 146T431 263V660H608V274Q608 124 544 51ZM515 877T547 854T579 791Q579
751 546 729T458 707Q405 707 372 728T339 789Q339 829 374 853T463 877Q515 877 547 854ZM265 877T297 854T329 791Q329 751 296 729T208 707Q155 707 122 728T89 789Q89 829 124 853T213 877Q265 877 297 854Z" />
<glyph unicode="&#xdd;" glyph-name="Yacute" horiz-adv-x="579" d="M411 296V0H147V288L1 660H267L340 404L390 660H567L411 296ZM423 874Q442 859 454 835T467 789Q467 759 447 744T402 725T331 718L172 707L159 763L423 874Z" />
<glyph unicode="&#xde;" glyph-name="Thorn" horiz-adv-x="680" d="M309 536H383Q476 536 536 520T630 458T664 331Q664 270 638 223T564 151T455 125Q422 125 393 138T347 171T330 214Q368 214 388 244T408 329Q408 390 395 425T339 460Q323 460 309 454V0H45V660H309V536Z"
/>
<glyph unicode="&#xdf;" glyph-name="germandbls" horiz-adv-x="845" d="M45 630T145 675T395 720Q450 720 519 710T641 674T693 609Q693 580 677 558T630 507Q603 483 590 465T576 426Q576 389 605 364T697 306Q744 282 772 264T819 218T839 156Q839 60 768 19T579
-22Q492 -22 423 3T353 89Q353 134 391 156T484 178Q497 178 516 176T544 170L543 143Q542 134 542 117Q542 77 549 57T584 37Q604 37 616 53T629 93Q629 130 599 155T508 212Q461 236 433 254T386 300T366 362Q366 391 384 418T437 484Q467 517 482 539T497 582Q497
618 464 637T388 656Q333 656 309 635T285 563V19Q285 -99 247 -166T111 -233Q67 -233 29 -221T-27 -180Q19 -171 32 -135T45 -36V-4V518Q45 630 145 675Z" />
<glyph unicode="&#xe0;" glyph-name="agrave" horiz-adv-x="622" d="M344 9T309 -6T228 -22Q133 -22 69 14T5 129Q5 228 100 259T344 291V378Q344 421 335 446T296 471Q257 471 244 445T230 370Q230 351 232 317Q224 313 205 311T172 309Q118 309 80 331T41 398Q41
475 123 502T303 530Q436 530 510 490T584 342V134Q584 99 591 69T615 10Q597 -2 565 -8T506 -15Q396 -15 359 44Q344 9 309 -6ZM321 51T332 79T344 148V241Q287 241 263 216T239 133Q239 98 251 75T292 51Q321 51 332 79ZM252 855Q245 857 206 866T146 894T126
939Q126 962 143 985T184 1022L429 874L408 820L252 855Z" />
<glyph unicode="&#xe1;" glyph-name="aacute" horiz-adv-x="622" d="M344 9T309 -6T228 -22Q133 -22 69 14T5 129Q5 228 100 259T344 291V378Q344 421 335 446T296 471Q257 471 244 445T230 370Q230 351 232 317Q224 313 205 311T172 309Q118 309 80 331T41 398Q41
475 123 502T303 530Q436 530 510 490T584 342V134Q584 99 591 69T615 10Q597 -2 565 -8T506 -15Q396 -15 359 44Q344 9 309 -6ZM321 51T332 79T344 148V241Q287 241 263 216T239 133Q239 98 251 75T292 51Q321 51 332 79ZM437 766Q460 753 477 730T495 683Q495
656 478 641T439 618T369 599L212 564L192 618L437 766Z" />
<glyph unicode="&#xe2;" glyph-name="acircumflex" horiz-adv-x="622" d="M344 9T309 -6T228 -22Q133 -22 69 14T5 129Q5 228 100 259T344 291V378Q344 421 335 446T296 471Q257 471 244 445T230 370Q230 351 232 317Q224 313 205 311T172 309Q118 309 80 331T41
398Q41 475 123 502T303 530Q436 530 510 490T584 342V134Q584 99 591 69T615 10Q597 -2 565 -8T506 -15Q396 -15 359 44Q344 9 309 -6ZM321 51T332 79T344 148V241Q287 241 263 216T239 133Q239 98 251 75T292 51Q321 51 332 79ZM172 837L127 889L292 1001H335L503
889L459 837L315 869L172 837Z" />
<glyph unicode="&#xe3;" glyph-name="atilde" horiz-adv-x="622" d="M344 9T309 -6T228 -22Q133 -22 69 14T5 129Q5 228 100 259T344 291V378Q344 421 335 446T296 471Q257 471 244 445T230 370Q230 351 232 317Q224 313 205 311T172 309Q118 309 80 331T41 398Q41
475 123 502T303 530Q436 530 510 490T584 342V134Q584 99 591 69T615 10Q597 -2 565 -8T506 -15Q396 -15 359 44Q344 9 309 -6ZM321 51T332 79T344 148V241Q287 241 263 216T239 133Q239 98 251 75T292 51Q321 51 332 79ZM526 971T532 953T538 920Q538 877 507
863T418 848Q380 848 303 857Q290 858 249 862T182 866Q158 866 142 862T112 843Q91 879 91 908Q91 952 122 966T210 980Q239 980 325 972Q404 963 447 963Q470 963 487 967T517 985Q526 971 532 953Z" />
<glyph unicode="&#xe4;" glyph-name="adieresis" horiz-adv-x="622" d="M344 9T309 -6T228 -22Q133 -22 69 14T5 129Q5 228 100 259T344 291V378Q344 421 335 446T296 471Q257 471 244 445T230 370Q230 351 232 317Q224 313 205 311T172 309Q118 309 80 331T41
398Q41 475 123 502T303 530Q436 530 510 490T584 342V134Q584 99 591 69T615 10Q597 -2 565 -8T506 -15Q396 -15 359 44Q344 9 309 -6ZM321 51T332 79T344 148V241Q287 241 263 216T239 133Q239 98 251 75T292 51Q321 51 332 79ZM500 755T532 732T564 669Q564
629 531 607T443 585Q390 585 357 606T324 667Q324 707 359 731T448 755Q500 755 532 732ZM250 755T282 732T314 669Q314 629 281 607T193 585Q140 585 107 606T74 667Q74 707 109 731T198 755Q250 755 282 732Z" />
<glyph unicode="&#xe5;" glyph-name="aring" horiz-adv-x="622" d="M344 9T309 -6T228 -22Q133 -22 69 14T5 129Q5 228 100 259T344 291V378Q344 421 335 446T296 471Q257 471 244 445T230 370Q230 351 232 317Q224 313 205 311T172 309Q118 309 80 331T41 398Q41
475 123 502T303 530Q436 530 510 490T584 342V134Q584 99 591 69T615 10Q597 -2 565 -8T506 -15Q396 -15 359 44Q344 9 309 -6ZM321 51T332 79T344 148V241Q287 241 263 216T239 133Q239 98 251 75T292 51Q321 51 332 79ZM261 557T228 583T195 654Q195 699 227
723T314 748Q368 748 400 724T433 654Q433 610 400 584T314 557Q261 557 228 583ZM335 600T345 615T356 654Q356 676 346 690T314 704Q293 704 282 690T271 654Q271 629 281 615T314 600Q335 600 345 615Z" />
<glyph unicode="&#xe6;" glyph-name="ae" horiz-adv-x="896" d="M849 178T856 161T864 124Q864 74 832 42T748 -6T640 -22Q501 -22 424 49Q383 11 334 -5T217 -22Q128 -22 67 16T5 129Q5 198 55 232T177 277T344 287V378Q344 421 335 446T296 471Q257 471 244
445T230 370Q230 351 232 317Q224 313 205 311T172 309Q118 309 80 331T41 398Q41 475 123 502T303 530Q423 530 486 506Q559 530 656 530Q752 530 820 496T889 386Q889 322 856 289T768 244T635 233Q601 233 586 237Q591 182 616 152T694 122Q738 122 776 137T834
186Q849 178 856 161ZM586 468T584 280Q639 283 662 307T686 389Q686 468 643 468Q586 468 584 280ZM344 237Q287 237 263 214T239 133Q239 98 251 75T292 51Q321 51 332 79T344 148V237Z" />
<glyph unicode="&#xe7;" glyph-name="ccedilla" horiz-adv-x="536" d="M506 190T517 172T529 133Q529 62 478 23T347 -21L334 -53Q392 -54 426 -78T461 -154Q461 -205 415 -233T308 -261Q266 -261 231 -248T195 -197Q195 -164 208 -146Q219 -163 236 -171T282
-180Q296 -180 305 -171T315 -145Q315 -125 299 -117T259 -109Q246 -109 220 -111L254 -17Q145 1 86 74T26 268Q26 402 105 466T328 530Q421 530 482 501T543 398Q543 353 505 331T412 309Q366 309 352 317Q354 357 354 381Q354 421 347 445T315 469Q287 469 278
411T269 270Q269 197 292 160T379 122Q449 122 488 193Q506 190 517 172Z" />
<glyph unicode="&#xe8;" glyph-name="egrave" horiz-adv-x="580" d="M533 178T541 161T549 124Q549 74 516 42T432 -6T324 -22Q184 -22 105 53T26 268Q26 530 340 530Q436 530 504 496T573 386Q573 294 506 262T319 229Q286 229 270 233Q275 178 299 150T379 122Q423
122 461 137T518 186Q533 178 541 161ZM290 468T279 408T269 276Q323 280 346 305T370 389Q370 468 327 468Q290 468 279 408ZM266 599Q259 601 220 610T160 638T140 683Q140 706 157 729T198 766L443 618L422 564L266 599Z" />
<glyph unicode="&#xe9;" glyph-name="eacute" horiz-adv-x="580" d="M533 178T541 161T549 124Q549 74 516 42T432 -6T324 -22Q184 -22 105 53T26 268Q26 530 340 530Q436 530 504 496T573 386Q573 294 506 262T319 229Q286 229 270 233Q275 178 299 150T379 122Q423
122 461 137T518 186Q533 178 541 161ZM290 468T279 408T269 276Q323 280 346 305T370 389Q370 468 327 468Q290 468 279 408ZM451 766Q474 753 491 730T509 683Q509 656 492 641T453 618T383 599L226 564L206 618L451 766Z" />
<glyph unicode="&#xea;" glyph-name="ecircumflex" horiz-adv-x="580" d="M533 178T541 161T549 124Q549 74 516 42T432 -6T324 -22Q184 -22 105 53T26 268Q26 530 340 530Q436 530 504 496T573 386Q573 294 506 262T319 229Q286 229 270 233Q275 178 299 150T379
122Q423 122 461 137T518 186Q533 178 541 161ZM290 468T279 408T269 276Q323 280 346 305T370 389Q370 468 327 468Q290 468 279 408ZM186 581L141 633L306 745H349L517 633L473 581L329 613L186 581Z" />
<glyph unicode="&#xeb;" glyph-name="edieresis" horiz-adv-x="580" d="M533 178T541 161T549 124Q549 74 516 42T432 -6T324 -22Q184 -22 105 53T26 268Q26 530 340 530Q436 530 504 496T573 386Q573 294 506 262T319 229Q286 229 270 233Q275 178 299 150T379
122Q423 122 461 137T518 186Q533 178 541 161ZM290 468T279 408T269 276Q323 280 346 305T370 389Q370 468 327 468Q290 468 279 408ZM514 755T546 732T578 669Q578 629 545 607T457 585Q404 585 371 606T338 667Q338 707 373 731T462 755Q514 755 546 732ZM264
755T296 732T328 669Q328 629 295 607T207 585Q154 585 121 606T88 667Q88 707 123 731T212 755Q264 755 296 732Z" />
<glyph unicode="&#xec;" glyph-name="igrave" horiz-adv-x="323" d="M278 134Q278 99 285 69T309 10Q291 -2 260 -8T202 -15Q123 -15 81 21T38 131V510H278V134ZM352 855Q345 857 306 866T246 894T226 939Q226 962 243 985T284 1022L529 874L508 820L352 855Z" />
<glyph unicode="&#xed;" glyph-name="iacute" horiz-adv-x="323" d="M278 134Q278 99 285 69T309 10Q291 -2 260 -8T202 -15Q123 -15 81 21T38 131V510H278V134ZM281 1022Q304 1009 321 986T339 939Q339 912 322 897T283 874T213 855L56 820L36 874L281 1022Z" />
<glyph unicode="&#xee;" glyph-name="icircumflex" horiz-adv-x="323" d="M278 134Q278 99 285 69T309 10Q291 -2 260 -8T202 -15Q123 -15 81 21T38 131V510H278V134ZM272 837L227 889L392 1001H435L603 889L559 837L415 869L272 837Z" />
<glyph unicode="&#xef;" glyph-name="idieresis" horiz-adv-x="323" d="M278 134Q278 99 285 69T309 10Q291 -2 260 -8T202 -15Q123 -15 81 21T38 131V510H278V134ZM344 755T376 732T408 669Q408 629 375 607T287 585Q234 585 201 606T168 667Q168 707 203 731T292
755Q344 755 376 732ZM350 755T382 732T414 669Q414 629 381 607T293 585Q240 585 207 606T174 667Q174 707 209 731T298 755Q350 755 382 732Z" />
<glyph unicode="&#xf0;" glyph-name="eth" horiz-adv-x="634" d="M423 720T494 655L574 684Q575 681 577 677T581 674Q589 656 589 645Q589 614 552 598L543 595Q607 490 607 315Q607 155 537 66T317 -23Q237 -23 171 7T65 93T26 227Q26 386 123 439T333 493H349Q359
493 364 492Q363 500 362 509T359 527L292 502Q290 505 288 509T284 514Q277 528 277 542Q277 559 287 571T315 589L325 593Q308 602 273 602Q243 602 219 587Q213 599 209 618T204 650Q204 720 311 720Q423 720 494 655ZM351 37T360 85T370 236V286Q370 313 368
353T362 415Q349 433 333 433Q288 433 276 379T263 234V193Q263 125 273 81T317 37Q351 37 360 85Z" />
<glyph unicode="&#xf1;" glyph-name="ntilde" horiz-adv-x="627" d="M37 510L229 522L239 432Q260 486 302 508T409 530Q501 530 545 483T589 342V134Q589 99 596 69T620 10Q602 -2 571 -8T513 -15Q435 -15 392 21T349 131V346Q349 351 349 383T340 435T312 455Q291
455 284 436T277 385V351V0H37V510ZM542 971T548 953T554 920Q554 877 523 863T434 848Q396 848 319 857Q306 858 265 862T198 866Q174 866 158 862T128 843Q107 879 107 908Q107 952 138 966T226 980Q255 980 341 972Q420 963 463 963Q486 963 503 967T533 985Q542
971 548 953Z" />
<glyph unicode="&#xf2;" glyph-name="ograve" horiz-adv-x="625" d="M451 530T525 463T599 262Q599 176 564 112T463 13T313 -22Q230 -22 165 12T63 108T26 252Q26 387 101 458T313 530Q451 530 525 463ZM343 38T351 98T359 257V288Q359 373 351 421T313 470Q284
470 276 424T267 296V246Q267 152 275 95T313 38Q343 38 351 98ZM251 855Q244 857 205 866T145 894T125 939Q125 962 142 985T183 1022L428 874L407 820L251 855Z" />
<glyph unicode="&#xf3;" glyph-name="oacute" horiz-adv-x="625" d="M451 530T525 463T599 262Q599 176 564 112T463 13T313 -22Q230 -22 165 12T63 108T26 252Q26 387 101 458T313 530Q451 530 525 463ZM343 38T351 98T359 257V288Q359 373 351 421T313 470Q284
470 276 424T267 296V246Q267 152 275 95T313 38Q343 38 351 98ZM436 766Q459 753 476 730T494 683Q494 656 477 641T438 618T368 599L211 564L191 618L436 766Z" />
<glyph unicode="&#xf4;" glyph-name="ocircumflex" horiz-adv-x="625" d="M451 530T525 463T599 262Q599 176 564 112T463 13T313 -22Q230 -22 165 12T63 108T26 252Q26 387 101 458T313 530Q451 530 525 463ZM343 38T351 98T359 257V288Q359 373 351 421T313
470Q284 470 276 424T267 296V246Q267 152 275 95T313 38Q343 38 351 98ZM171 837L126 889L291 1001H334L502 889L458 837L314 869L171 837Z" />
<glyph unicode="&#xf5;" glyph-name="otilde" horiz-adv-x="625" d="M451 530T525 463T599 262Q599 176 564 112T463 13T313 -22Q230 -22 165 12T63 108T26 252Q26 387 101 458T313 530Q451 530 525 463ZM343 38T351 98T359 257V288Q359 373 351 421T313 470Q284
470 276 424T267 296V246Q267 152 275 95T313 38Q343 38 351 98ZM525 971T531 953T537 920Q537 877 506 863T417 848Q379 848 302 857Q289 858 248 862T181 866Q157 866 141 862T111 843Q90 879 90 908Q90 952 121 966T209 980Q238 980 324 972Q403 963 446 963Q469
963 486 967T516 985Q525 971 531 953Z" />
<glyph unicode="&#xf6;" glyph-name="odieresis" horiz-adv-x="625" d="M451 530T525 463T599 262Q599 176 564 112T463 13T313 -22Q230 -22 165 12T63 108T26 252Q26 387 101 458T313 530Q451 530 525 463ZM343 38T351 98T359 257V288Q359 373 351 421T313 470Q284
470 276 424T267 296V246Q267 152 275 95T313 38Q343 38 351 98ZM499 755T531 732T563 669Q563 629 530 607T442 585Q389 585 356 606T323 667Q323 707 358 731T447 755Q499 755 531 732ZM249 755T281 732T313 669Q313 629 280 607T192 585Q139 585 106 606T73
667Q73 707 108 731T197 755Q249 755 281 732Z" />
<glyph unicode="&#xf7;" glyph-name="divide" horiz-adv-x="642" d="M402 378T379 360T319 342Q282 342 260 359T238 408Q238 441 262 459T323 477Q358 477 380 460T402 410Q402 378 379 360ZM106 209T106 236Q106 265 125 279T176 294H524Q536 268 536 245Q536
216 517 202T466 187H118Q106 209 106 236ZM402 40T379 22T319 4Q282 4 260 21T238 70Q238 102 262 120T323 139Q358 139 380 121T402 72Q402 40 379 22Z" />
<glyph unicode="&#xf8;" glyph-name="oslash" horiz-adv-x="625" d="M599 421T599 262Q599 176 564 112T463 13T313 -22Q246 -22 185 2L146 -59Q112 -60 91 -49T70 -14Q70 4 87 29L104 56Q67 92 47 142T26 252Q26 387 101 458T313 530Q357 530 399 522L453 607Q487
608 508 597T529 562Q529 545 512 519L492 488Q599 421 599 262ZM286 470T277 428T267 313L346 438Q335 470 313 470Q286 470 277 428ZM343 38T351 98T359 257V277L270 137Q279 38 313 38Q343 38 351 98Z" />
<glyph unicode="&#xf9;" glyph-name="ugrave" horiz-adv-x="642" d="M597 134Q597 99 604 69T628 10Q610 -2 577 -8T518 -15Q408 -15 371 44Q344 8 309 -7T224 -22Q148 -22 108 8T53 94T38 236V510H284V241Q284 137 288 98T313 59Q342 59 349 86T357 162V510H597V134ZM251
855Q244 857 205 866T145 894T125 939Q125 962 142 985T183 1022L428 874L407 820L251 855Z" />
<glyph unicode="&#xfa;" glyph-name="uacute" horiz-adv-x="642" d="M597 134Q597 99 604 69T628 10Q610 -2 577 -8T518 -15Q408 -15 371 44Q344 8 309 -7T224 -22Q148 -22 108 8T53 94T38 236V510H284V241Q284 137 288 98T313 59Q342 59 349 86T357 162V510H597V134ZM436
766Q459 753 476 730T494 683Q494 656 477 641T438 618T368 599L211 564L191 618L436 766Z" />
<glyph unicode="&#xfb;" glyph-name="ucircumflex" horiz-adv-x="642" d="M597 134Q597 99 604 69T628 10Q610 -2 577 -8T518 -15Q408 -15 371 44Q344 8 309 -7T224 -22Q148 -22 108 8T53 94T38 236V510H284V241Q284 137 288 98T313 59Q342 59 349 86T357 162V510H597V134ZM171
837L126 889L291 1001H334L502 889L458 837L314 869L171 837Z" />
<glyph unicode="&#xfc;" glyph-name="udieresis" horiz-adv-x="642" d="M597 134Q597 99 604 69T628 10Q610 -2 577 -8T518 -15Q408 -15 371 44Q344 8 309 -7T224 -22Q148 -22 108 8T53 94T38 236V510H284V241Q284 137 288 98T313 59Q342 59 349 86T357 162V510H597V134ZM499
755T531 732T563 669Q563 629 530 607T442 585Q389 585 356 606T323 667Q323 707 358 731T447 755Q499 755 531 732ZM249 755T281 732T313 669Q313 629 280 607T192 585Q139 585 106 606T73 667Q73 707 108 731T197 755Q249 755 281 732Z" />
<glyph unicode="&#xfd;" glyph-name="yacute" horiz-adv-x="588" d="M596 510L337 -193L97 -180L224 65H137L11 510H263L332 149L407 510H596ZM432 766Q455 753 472 730T490 683Q490 656 473 641T434 618T364 599L207 564L187 618L432 766Z" />
<glyph unicode="&#xfe;" glyph-name="thorn" horiz-adv-x="641" d="M285 601Q285 517 277 485Q300 510 335 520T418 530Q615 530 615 262Q615 120 535 49T307 -22Q303 -22 285 -24V-179L45 -193V700L285 724V601ZM300 455T292 436T284 382L285 325V49Q296 38 315
38Q353 38 363 96T374 257Q374 349 365 402T323 455Q300 455 292 436Z" />
<glyph unicode="&#xff;" glyph-name="ydieresis" horiz-adv-x="588" d="M596 510L337 -193L97 -180L224 65H137L11 510H263L332 149L407 510H596ZM495 755T527 732T559 669Q559 629 526 607T438 585Q385 585 352 606T319 667Q319 707 354 731T443 755Q495 755
527 732ZM245 755T277 732T309 669Q309 629 276 607T188 585Q135 585 102 606T69 667Q69 707 104 731T193 755Q245 755 277 732Z" />
<glyph unicode="&#x2013;" glyph-name="endash" horiz-adv-x="550" d="M7 196T7 215Q7 255 29 275T91 296H541Q543 290 543 267Q543 228 521 207T458 186H8Q7 196 7 215Z" />
<glyph unicode="&#x2014;" glyph-name="emdash" horiz-adv-x="1086" d="M7 196T7 215Q7 255 29 275T91 296H1077Q1079 287 1079 267Q1079 228 1057 207T994 186H8Q7 196 7 215Z" />
<glyph unicode="&#x2018;" glyph-name="quoteleft" horiz-adv-x="363" d="M124 439T124 563Q124 612 150 653T221 718T315 742Q339 742 364 737Q338 701 325 666T312 589Q312 518 342 461Q332 452 306 446T257 439Q124 439 124 563Z" />
<glyph unicode="&#x2019;" glyph-name="quoteright" horiz-adv-x="255" d="M239 742T239 618Q239 569 213 528T142 463T48 439Q24 439 -1 444Q25 480 38 515T51 592Q51 663 21 720Q31 729 57 735T106 742Q239 742 239 618Z" />
<glyph unicode="&#x201a;" glyph-name="quotesinglbase" horiz-adv-x="255" d="M239 160T239 35Q239 -14 213 -55T142 -120T48 -144Q24 -144 -1 -139Q25 -102 38 -67T51 10Q51 81 21 137Q31 146 57 153T106 160Q239 160 239 35Z" />
<glyph unicode="&#x201c;" glyph-name="quotedblleft" horiz-adv-x="512" d="M16 439T16 563Q16 612 42 653T113 718T207 742Q231 742 256 737Q230 701 217 666T204 589Q204 518 234 461Q224 452 198 446T149 439Q16 439 16 563ZM273 439T273 563Q273 612 299
653T370 718T464 742Q488 742 513 737Q487 701 474 666T461 589Q461 518 491 461Q481 452 455 446T406 439Q273 439 273 563Z" />
<glyph unicode="&#x201d;" glyph-name="quotedblright" horiz-adv-x="512" d="M239 742T239 618Q239 569 213 528T142 463T48 439Q24 439 -1 444Q25 480 38 515T51 592Q51 663 21 720Q31 729 57 735T106 742Q239 742 239 618ZM496 742T496 618Q496 569 470 528T399
463T305 439Q281 439 256 444Q282 481 295 516T308 592Q308 663 278 720Q288 729 314 735T363 742Q496 742 496 618Z" />
<glyph unicode="&#x201e;" glyph-name="quotedblbase" horiz-adv-x="512" d="M239 161T239 37Q239 -12 213 -53T142 -119T48 -143Q21 -143 -1 -137Q25 -101 38 -66T51 11Q51 82 21 139Q31 148 57 154T106 161Q239 161 239 37ZM496 161T496 37Q496 -12 470 -53T399
-119T305 -143Q279 -143 256 -137Q282 -100 295 -65T308 11Q308 82 278 139Q288 148 314 154T363 161Q496 161 496 37Z" />
<glyph unicode="&#x2022;" glyph-name="bullet" horiz-adv-x="341" d="M249 377T287 346T325 261Q325 204 285 173T180 141Q116 141 78 172T39 255Q39 312 80 344T187 377Q249 377 287 346Z" />
<glyph unicode="&#x2039;" glyph-name="guilsinglleft" horiz-adv-x="288" d="M127 511H261L171 317L255 126H126L-10 317L127 511Z" />
<glyph unicode="&#x203a;" glyph-name="guilsinglright" horiz-adv-x="288" d="M298 317L161 126H32L117 317L27 511H161L298 317Z" />
</font>
</defs>
</svg>
