<?xml version="1.0" standalone="no"?>
<!DOCTYPE svg PUBLIC "-//W3C//DTD SVG 1.1//EN" "http://www.w3.org/Graphics/SVG/1.1/DTD/svg11.dtd">
<svg xmlns="http://www.w3.org/2000/svg">
<defs >
<font id="Kanit" horiz-adv-x="551" ><font-face
    font-family="Kanit Light"
    units-per-em="1000"
    panose-1="0 0 4 0 0 0 0 0 0 0"
    ascent="1100"
    descent="-395"
    alphabetic="0" />
<glyph unicode=" " glyph-name="space" horiz-adv-x="380" />
<glyph unicode="!" glyph-name="exclam" horiz-adv-x="190" d="M136 487L130 154H60L54 487V644H136V487ZM50 65V0H140V65H50Z" />
<glyph unicode="&quot;" glyph-name="quotedbl" horiz-adv-x="321" d="M50 644H124L111 467H50V644ZM197 644H271L258 467H197V644Z" />
<glyph unicode="#" glyph-name="numbersign" horiz-adv-x="700" d="M286 644H358L301 464H489L546 644H619L562 464H650V406H544L490 237H603V180H472L416 0H344L400 180H211L155 0H84L140 180H50V237H158L211 406H97V464H229L286 644ZM418 237L471 406H283L229 237H418Z" />
<glyph unicode="$" glyph-name="dollar" horiz-adv-x="556" d="M247 -10Q134 -8 65 20V93Q150 60 247 60V297Q243 297 242 298Q136 324 93 365T50 477Q50 553 99 598T247 652V730H311V653Q357 652 399 645T467 629V557Q394 583 311 584V356Q419 329 462 284T506
168Q506 92 457 47T311 -7V-86H247V-10ZM132 435T156 413T247 372V581Q190 574 161 549T132 477Q132 435 156 413ZM424 212T399 236T311 280V63Q369 70 396 94T424 168Q424 212 399 236Z" />
<glyph unicode="%" glyph-name="percent" horiz-adv-x="713" d="M256 654T290 614T325 503Q325 440 290 403T188 365Q120 365 85 402T50 503Q50 574 85 614T188 654Q256 654 290 614ZM488 644H565L223 0H146L488 644ZM230 420T249 441T268 504Q268 553 249 575T188
598Q146 598 127 576T108 504Q108 463 127 442T188 420Q230 420 249 441ZM594 279T628 239T663 128Q663 65 628 28T526 -10Q458 -10 423 27T388 128Q388 199 423 239T526 279Q594 279 628 239ZM568 45T587 66T606 129Q606 178 587 200T526 223Q484 223 465 201T446
129Q446 88 465 67T526 45Q568 45 587 66Z" />
<glyph unicode="&amp;" glyph-name="ampersand" horiz-adv-x="660" d="M565 231T556 194T530 130L620 39L570 -6L490 73Q423 -10 270 -10Q170 -10 110 34T50 152Q50 217 90 266T207 356Q172 391 155 411T126 456T114 511Q114 573 156 613T273 654Q346 654 387
615T429 511Q429 460 402 423T317 345L483 176Q500 213 500 270V284H565V270Q565 231 556 194ZM361 591T273 591Q227 591 205 568T182 508Q182 479 201 454T266 385Q317 417 339 443T361 508Q361 591 273 591ZM327 49T369 66T440 119L257 306Q190 275 160 241T129
154Q129 104 168 77T270 49Q327 49 369 66Z" />
<glyph unicode="&apos;" glyph-name="quotesingle" horiz-adv-x="174" d="M50 644H124L111 467H50V644Z" />
<glyph unicode="(" glyph-name="parenleft" horiz-adv-x="310" d="M50 414T82 515T187 678H280Q132 552 132 303Q132 54 280 -72H187Q115 -11 83 90T50 303Q50 414 82 515Z" />
<glyph unicode=")" glyph-name="parenright" horiz-adv-x="310" d="M260 191T228 90T124 -72H30Q178 54 178 303Q178 552 30 678H124Q195 617 227 516T260 303Q260 191 228 90Z" />
<glyph unicode="*" glyph-name="asterisk" horiz-adv-x="428" d="M182 644H247L243 525L352 578L378 524L257 475L350 372L300 335L214 447L128 335L78 372L170 475L50 524L76 578L186 525L182 644Z" />
<glyph unicode="+" glyph-name="plus" horiz-adv-x="477" d="M272 88H205V236H50V301H205V455H272V301H427V236H272V88Z" />
<glyph unicode="," glyph-name="comma" horiz-adv-x="202" d="M78 57H152L110 -120H50L78 57Z" />
<glyph unicode="-" glyph-name="hyphen" horiz-adv-x="477" d="M427 236H50V301H427V236Z" />
<glyph unicode="." glyph-name="period" horiz-adv-x="174" d="M50 69H124V0H50V69Z" />
<glyph unicode="/" glyph-name="slash" horiz-adv-x="417" d="M284 662H367L133 0H50L284 662Z" />
<glyph unicode="0" glyph-name="zero" horiz-adv-x="647" d="M50 -10T50 314Q50 483 113 568T324 654Q470 654 533 569T597 314Q597 -10 324 -10Q50 -10 50 314ZM425 60T470 126T515 314Q515 450 472 517T324 584Q219 584 176 518T132 314Q132 193 177 127T324
60Q425 60 470 126Z" />
<glyph unicode="1" glyph-name="one" horiz-adv-x="304" d="M152 574L50 556V625L234 654V0H152V574Z" />
<glyph unicode="2" glyph-name="two" horiz-adv-x="506" d="M50 44Q73 102 118 152T227 257Q286 306 314 336T355 396T367 465Q367 526 336 555T225 584Q151 584 75 555V628Q108 639 152 646T238 654Q340 654 394 604T449 465Q449 419 433 383T390 316T315 243L294
225Q235 173 203 140T151 64H456V0H50V44Z" />
<glyph unicode="3" glyph-name="three" horiz-adv-x="514" d="M464 85T401 38T223 -10Q179 -10 129 -2T50 17V89Q124 60 213 60Q301 60 341 86T382 177Q382 295 234 295H141L149 357H226Q297 357 332 388T368 477Q368 532 331 558T215 584Q176 584 136 576T62
555V626Q91 638 137 646T226 654Q337 654 393 606T450 478Q450 426 423 385T343 327Q404 313 434 273T464 177Q464 85 401 38Z" />
<glyph unicode="4" glyph-name="four" horiz-adv-x="541" d="M443 0H361V148H30V210L370 644H443V215H511V148H443V0ZM112 213H372V546L112 213Z" />
<glyph unicode="5" glyph-name="five" horiz-adv-x="512" d="M462 96T401 43T224 -10Q177 -10 130 -3T53 17V90Q127 60 215 60Q301 60 340 92T380 192Q380 259 349 289T236 320H50V377L67 644H416L408 580H136L123 385H244Q356 385 409 337T462 192Q462 96 401 43Z" />
<glyph unicode="6" glyph-name="six" horiz-adv-x="569" d="M519 103T460 47T285 -10Q168 -10 109 49T50 235V387Q50 467 81 527T172 620T310 654Q395 654 458 633V562Q397 584 314 584Q220 584 174 536T128 402V353Q165 380 212 394T301 409Q410 409 464 356T519
201Q519 103 460 47ZM445 272T412 308T294 345Q204 345 128 290V212Q128 133 167 94T285 55Q364 55 404 93T445 199Q445 272 412 308Z" />
<glyph unicode="7" glyph-name="seven" horiz-adv-x="498" d="M127 0L372 580H40V644H458V587L210 0H127Z" />
<glyph unicode="8" glyph-name="eight" horiz-adv-x="584" d="M404 654T460 607T516 474Q516 422 490 383T405 323Q472 306 503 269T534 170Q534 81 473 36T292 -10Q174 -10 112 35T50 170Q50 229 82 272T174 333Q120 350 94 387T68 474Q68 558 125 606T292 654Q404
654 460 607ZM384 364T413 392T442 473Q442 530 404 559T292 589Q219 589 181 560T142 474Q142 431 169 403T244 364L320 349Q384 364 413 392ZM460 55T460 171Q460 222 431 247T338 285L251 303Q189 290 157 260T124 172Q124 55 292 55Q460 55 460 171Z" />
<glyph unicode="9" glyph-name="nine" horiz-adv-x="569" d="M50 541T109 597T284 654Q401 654 460 595T519 409V257Q519 177 488 117T397 24T259 -10Q174 -10 111 11V82Q172 60 255 60Q349 60 395 108T441 242V291Q404 264 357 250T268 235Q159 235 105 288T50
443Q50 541 109 597ZM124 372T157 336T275 299Q365 299 441 354V432Q441 511 402 550T284 589Q205 589 165 551T124 445Q124 372 157 336Z" />
<glyph unicode=":" glyph-name="colon" horiz-adv-x="173" d="M50 398H123V329H50V398ZM50 97H123V28H50V97Z" />
<glyph unicode=";" glyph-name="semicolon" horiz-adv-x="202" d="M80 398H152V329H80V398ZM78 74H152L110 -103H50L78 74Z" />
<glyph unicode="&lt;" glyph-name="less" horiz-adv-x="547" d="M497 458L136 296L497 133V56L50 262V329L497 535V458Z" />
<glyph unicode="=" glyph-name="equal" horiz-adv-x="482" d="M50 370H432V311H50V370ZM50 228H432V168H50V228Z" />
<glyph unicode="&gt;" glyph-name="greater" horiz-adv-x="547" d="M497 262L50 56V133L412 296L50 458V535L497 329V262Z" />
<glyph unicode="?" glyph-name="question" horiz-adv-x="493" d="M443 425T420 391T343 313L324 297Q295 273 280 258T257 223T248 174V155H166V178Q166 214 180 242T215 291T270 341L293 360Q326 389 343 415T361 474Q361 533 328 558T210 584Q167 584 126 574T50
548V618Q82 635 129 644T229 654Q334 654 388 607T443 475Q443 425 420 391ZM162 65V0H252V65H162Z" />
<glyph unicode="@" glyph-name="at" horiz-adv-x="768" d="M605 97T627 134T649 252Q649 359 590 409T403 459Q256 459 188 396T119 187Q119 46 190 -10T389 -66Q499 -66 562 -47V-114Q486 -132 391 -132Q234 -132 142 -57T50 188Q50 359 140 442T403 525Q558
525 638 455T718 252Q718 152 674 95T541 38H524Q466 -20 363 -20Q295 -20 255 14T214 106Q214 165 251 203T365 242H492V262Q492 298 483 316T452 342T385 350Q320 350 262 330V384Q313 406 400 406Q479 406 516 372T554 263V97Q605 97 627 134ZM375 187Q320 187
299 167T278 105Q278 67 300 51T370 34Q453 34 492 85V187H375Z" />
<glyph unicode="A" glyph-name="A" horiz-adv-x="685" d="M135 0H50L295 644H391L635 0H551L483 177H203L135 0ZM217 242H468L342 573L217 242Z" />
<glyph unicode="B" glyph-name="B" horiz-adv-x="627" d="M577 0T384 0H70V644H368Q552 644 552 474Q552 422 531 387T471 332Q577 306 577 184Q577 0 384 0ZM475 527T448 554T348 581H152V362H363Q475 362 475 468Q475 527 448 554ZM435 62T465 91T495 187Q495
245 464 272T357 300H152V62H370Q435 62 465 91Z" />
<glyph unicode="C" glyph-name="C" horiz-adv-x="595" d="M468 60T545 89V16Q461 -10 359 -10Q207 -10 129 75T50 308Q50 472 125 563T358 654Q461 654 545 624V552Q460 584 365 584Q240 584 186 514T132 308Q132 60 367 60Q468 60 545 89Z" />
<glyph unicode="D" glyph-name="D" horiz-adv-x="642" d="M592 152T528 76T322 0H70V644H322Q463 644 527 568T592 318Q592 152 528 76ZM510 420T490 476T427 556T307 579H152V64H307Q379 64 422 85T488 161T510 318Q510 420 490 476Z" />
<glyph unicode="E" glyph-name="E" horiz-adv-x="555" d="M70 644H505V579H152V354H469V290H152V64H505V0H70V644Z" />
<glyph unicode="F" glyph-name="F" horiz-adv-x="522" d="M70 644H492V579H152V354H455V290H152V0H70V644Z" />
<glyph unicode="G" glyph-name="G" horiz-adv-x="639" d="M451 60T518 86V291H346V347H589V41Q509 -10 359 -10Q207 -10 129 75T50 308Q50 472 125 563T358 654Q461 654 545 624V552Q460 584 365 584Q240 584 186 514T132 308Q132 186 188 123T364 60Q451 60 518 86Z" />
<glyph unicode="H" glyph-name="H" horiz-adv-x="644" d="M492 290H152V0H70V644H152V354H492V644H574V0H492V290Z" />
<glyph unicode="I" glyph-name="I" horiz-adv-x="222" d="M70 644H152V0H70V644Z" />
<glyph unicode="J" glyph-name="J" horiz-adv-x="427" d="M362 87T313 39T165 -10Q88 -10 30 13V83Q54 72 88 66T155 59Q224 59 252 88T280 183V644H362V177Q362 87 313 39Z" />
<glyph unicode="K" glyph-name="K" horiz-adv-x="607" d="M557 0H469L257 333L152 222V0H70V644H152V325L453 644H549L309 386L557 0Z" />
<glyph unicode="L" glyph-name="L" horiz-adv-x="525" d="M495 64V0H70V644H152V64H495Z" />
<glyph unicode="M" glyph-name="M" horiz-adv-x="752" d="M151 516V0H70V644H158L376 197L594 644H682V0H601V516L404 112H349L151 516Z" />
<glyph unicode="N" glyph-name="N" horiz-adv-x="663" d="M152 0H70V644H144L511 126V644H593V0H518L152 517V0Z" />
<glyph unicode="O" glyph-name="O" horiz-adv-x="694" d="M644 150T572 70T347 -10Q195 -10 123 70T50 322Q50 494 122 574T347 654Q499 654 571 574T644 322Q644 150 572 70ZM562 418T539 475T469 558T347 584Q272 584 225 559T155 476T132 322Q132 226 155 169T225
86T347 60Q422 60 469 85T539 168T562 322Q562 418 539 475Z" />
<glyph unicode="P" glyph-name="P" horiz-adv-x="582" d="M552 342T495 288T338 233H152V0H70V644H342Q446 644 499 588T552 436Q552 342 495 288ZM396 297T433 334T470 436Q470 505 435 542T330 579H152V297H325Q396 297 433 334Z" />
<glyph unicode="Q" glyph-name="Q" horiz-adv-x="694" d="M644 160T580 80T383 -9Q384 -62 399 -82T457 -102Q493 -102 528 -92V-161Q488 -172 441 -172Q306 -172 303 -8Q174 3 112 82T50 322Q50 494 122 574T347 654Q499 654 571 574T644 322Q644 160 580 80ZM562
418T539 475T469 558T347 584Q272 584 225 559T155 476T132 322Q132 226 155 169T225 86T347 60Q422 60 469 85T539 168T562 322Q562 418 539 475Z" />
<glyph unicode="R" glyph-name="R" horiz-adv-x="602" d="M552 372T517 326T415 263Q434 252 444 238T467 194L551 0H467L385 187Q371 219 352 231T288 243H152V0H70V644H353Q454 644 503 592T552 444Q552 372 517 326ZM470 307T470 444Q470 579 341 579H152V307H330Q470
307 470 444Z" />
<glyph unicode="S" glyph-name="S" horiz-adv-x="556" d="M506 82T444 36T259 -10Q139 -10 65 20V93Q153 60 252 60Q341 60 382 84T424 168Q424 205 407 227T352 265T242 298Q136 324 93 365T50 477Q50 561 110 607T289 654Q341 654 389 647T467 629V557Q391 584
302 584Q217 584 175 559T132 477Q132 444 147 424T197 390T303 358Q416 331 461 286T506 168Q506 82 444 36Z" />
<glyph unicode="T" glyph-name="T" horiz-adv-x="570" d="M326 0H244V579H30V644H540V579H326V0Z" />
<glyph unicode="U" glyph-name="U" horiz-adv-x="671" d="M427 60T475 104T524 235V644H606V236Q606 116 537 53T336 -10Q204 -10 135 53T65 236V644H147V235Q147 148 196 104T336 60Q427 60 475 104Z" />
<glyph unicode="V" glyph-name="V" horiz-adv-x="685" d="M635 644L391 0H295L50 644H135L342 83L550 644H635Z" />
<glyph unicode="W" glyph-name="W" horiz-adv-x="861" d="M288 0H200L50 644H131L252 114L391 573V644H458L608 114L731 644H811L662 0H575L435 490L288 0Z" />
<glyph unicode="X" glyph-name="X" horiz-adv-x="652" d="M326 257L145 0H50L277 320L53 644H147L326 381L505 644H599L375 320L602 0H507L326 257Z" />
<glyph unicode="Y" glyph-name="Y" horiz-adv-x="642" d="M280 240L50 644H135L321 310L507 644H592L362 240V0H280V240Z" />
<glyph unicode="Z" glyph-name="Z" horiz-adv-x="572" d="M50 46L418 579H67V644H522V593L157 64H527V0H50V46Z" />
<glyph unicode="[" glyph-name="bracketleft" horiz-adv-x="344" d="M50 706H301L304 641H132V-35H304L301 -99H50V706Z" />
<glyph unicode="\" glyph-name="backslash" horiz-adv-x="436" d="M50 662H134L386 -54H303L50 662Z" />
<glyph unicode="]" glyph-name="bracketright" horiz-adv-x="344" d="M40 -35H212V641H40L43 706H294V-99H43L40 -35Z" />
<glyph unicode="^" glyph-name="asciicircum" horiz-adv-x="459" d="M332 392L230 564L128 392H50L197 624H260L409 392H332Z" />
<glyph unicode="_" glyph-name="underscore" horiz-adv-x="549" d="M499 -64H50V0H499V-64Z" />
<glyph unicode="`" glyph-name="grave" horiz-adv-x="245" d="M50 690H124L195 522H129L50 690Z" />
<glyph unicode="a" glyph-name="a" horiz-adv-x="541" d="M401 54Q370 21 326 6T217 -10Q145 -10 98 27T50 133Q50 202 95 241T233 281H398V310Q398 350 387 372T347 405T263 415Q180 415 105 389V457Q176 484 274 484Q376 484 426 443T476 310V0H407L401 54ZM235
218Q180 218 156 198T131 133Q131 92 158 75T238 57Q339 57 398 126V218H235Z" />
<glyph unicode="b" glyph-name="b" horiz-adv-x="575" d="M525 115T469 53T311 -10Q258 -10 219 4T146 50L140 0H70V674H152V439Q217 484 310 484Q525 484 525 241Q525 115 469 53ZM205 418T152 371V113Q205 56 290 56Q372 56 407 101T443 241Q443 336 406 377T288
418Q205 418 152 371Z" />
<glyph unicode="c" glyph-name="c" horiz-adv-x="490" d="M377 -10T294 -10Q172 -10 111 53T50 237Q50 359 116 421T301 484Q346 484 377 478T439 457V392Q385 418 316 418Q225 418 179 375T132 237Q132 142 174 99T313 56Q382 56 440 82V16Q377 -10 294 -10Z" />
<glyph unicode="d" glyph-name="d" horiz-adv-x="575" d="M50 355T108 419T269 484Q315 484 352 473T423 439V674H505V0H435L429 50Q396 19 357 5T264 -10Q160 -10 105 47T50 230Q50 355 108 419ZM207 418T170 373T132 230Q132 137 167 97T285 56Q370 56 423 113V371Q370
418 287 418Q207 418 170 373Z" />
<glyph unicode="e" glyph-name="e" horiz-adv-x="533" d="M136 144T155 114T214 70T319 56Q392 56 453 81V17Q392 -10 303 -10Q176 -10 113 51T50 239Q50 356 106 420T277 484Q378 484 430 430T483 288V199H132Q136 144 155 114ZM197 418T165 380T132 258H410V297Q410
356 379 387T279 418Q197 418 165 380Z" />
<glyph unicode="f" glyph-name="f" horiz-adv-x="346" d="M296 690T336 675V613Q305 624 270 624Q220 624 202 606T183 543V474H311L307 409H183V0H101V409H30V474H101V543Q101 612 139 651T249 690Q296 690 336 675Z" />
<glyph unicode="g" glyph-name="g" horiz-adv-x="547" d="M395 -29T377 -18T311 -7H185Q120 -7 87 15T54 81Q54 112 73 137T128 174Q50 212 50 314Q50 402 101 443T259 484Q296 484 341 474H512L509 418H423Q466 381 466 314Q466 234 420 191T279 148Q258 148
221 153Q188 151 162 135T136 93Q136 75 150 68T199 60H330Q401 60 439 31T477 -52Q477 -119 422 -147T254 -176Q135 -176 64 -151V-83Q103 -96 152 -103T250 -110Q305 -110 335 -106T380 -91T395 -55Q395 -29 377 -18ZM329 210T356 233T384 314Q384 372 356 398T259
424Q192 424 162 399T132 314Q132 258 161 234T259 210Q329 210 356 233Z" />
<glyph unicode="h" glyph-name="h" horiz-adv-x="570" d="M423 0V307Q423 368 396 393T305 418Q265 418 223 401T152 355V0H70V674H152V423Q227 484 333 484Q420 484 462 442T505 310V0H423Z" />
<glyph unicode="i" glyph-name="i" horiz-adv-x="296" d="M135 585V660H226V585H135ZM225 0H143V409H70L78 474H225V0Z" />
<glyph unicode="j" glyph-name="j" horiz-adv-x="294" d="M133 585V660H224V585H133ZM224 -159T187 -196T79 -234Q29 -234 -10 -220V-155Q21 -165 51 -165Q104 -165 123 -148T142 -87V409H69L77 474H224V-94Q224 -159 187 -196Z" />
<glyph unicode="k" glyph-name="k" horiz-adv-x="530" d="M480 0H394L223 242L152 175V0H70V674H152V265L374 474H469L275 286L480 0Z" />
<glyph unicode="l" glyph-name="l" horiz-adv-x="263" d="M152 674V111Q152 82 161 71T193 59Q216 59 238 65V0Q212 -10 173 -10Q123 -10 97 16T70 102V674H152Z" />
<glyph unicode="m" glyph-name="m" horiz-adv-x="855" d="M709 0V307Q709 369 683 393T597 418Q557 418 522 405T462 365Q468 340 468 307V0H391V305Q391 367 370 392T292 418Q254 418 217 402T151 357V0H70V474H144L149 420Q229 484 321 484Q372 484 402 468T447
419Q484 450 528 467T630 484Q711 484 750 443T790 315V0H709Z" />
<glyph unicode="n" glyph-name="n" horiz-adv-x="570" d="M423 0V307Q423 350 412 373T376 407T302 418Q258 418 219 402T152 358V0H70V474H144L149 420Q227 484 333 484Q423 484 464 442T505 310V0H423Z" />
<glyph unicode="o" glyph-name="o" horiz-adv-x="574" d="M524 484T524 237Q524 114 467 52T287 -10Q165 -10 108 52T50 237Q50 484 287 484Q524 484 524 237ZM371 60T406 102T442 237Q442 330 406 372T287 414Q204 414 168 372T132 237Q132 144 167 102T287 60Q371
60 406 102Z" />
<glyph unicode="p" glyph-name="p" horiz-adv-x="575" d="M525 118T469 54T310 -10Q217 -10 152 35V-216H70V474H140L146 424Q179 455 218 469T311 484Q415 484 470 427T525 244Q525 118 469 54ZM368 56T405 101T443 244Q443 337 408 377T290 418Q205 418 152
361V103Q205 56 288 56Q368 56 405 101Z" />
<glyph unicode="q" glyph-name="q" horiz-adv-x="611" d="M50 351T106 417T264 484Q317 484 356 470T429 424L435 474H505V-114Q505 -148 516 -160T558 -173Q579 -173 601 -167V-232Q574 -242 538 -242Q423 -242 423 -118V35Q358 -10 265 -10Q160 -10 105 45T50
224Q50 351 106 417ZM132 130T168 93T287 56Q370 56 423 103V361Q370 418 285 418Q204 418 168 369T132 224Q132 130 168 93Z" />
<glyph unicode="r" glyph-name="r" horiz-adv-x="356" d="M150 414Q185 437 232 456T326 484V420Q282 411 232 392T152 353V0H70V474H144L150 414Z" />
<glyph unicode="s" glyph-name="s" horiz-adv-x="457" d="M325 147T314 160T283 183T218 207L191 216Q141 233 113 247T67 287T50 354Q50 418 95 451T236 484Q310 484 370 465V393Q307 414 249 414Q185 414 159 401T132 355Q132 332 143 319T176 298T252 272Q311
254 343 236T391 192T407 125Q407 -10 219 -10Q174 -10 132 -4T62 12V84Q130 60 208 60Q273 60 299 73T325 124Q325 147 314 160Z" />
<glyph unicode="t" glyph-name="t" horiz-adv-x="358" d="M102 474V591L184 616V474H315L310 409H184V136Q184 92 203 74T271 56Q297 56 328 66V4Q291 -10 243 -10Q174 -10 138 27T102 132V409H30V474H102Z" />
<glyph unicode="u" glyph-name="u" horiz-adv-x="570" d="M147 474V171Q147 112 176 84T268 56Q312 56 351 72T418 116V474H500V0H426L421 54Q385 25 338 8T237 -10Q152 -10 109 37T65 174V474H147Z" />
<glyph unicode="v" glyph-name="v" horiz-adv-x="564" d="M50 474H135L282 76L429 474H514L328 0H236L50 474Z" />
<glyph unicode="w" glyph-name="w" horiz-adv-x="736" d="M369 344L256 0H174L50 474H132L225 93L331 419V474H394L511 93L604 474H686L562 0H480L369 344Z" />
<glyph unicode="x" glyph-name="x" horiz-adv-x="549" d="M274 185L139 0H50L230 241L56 474H145L274 297L404 474H492L320 241L499 0H410L274 185Z" />
<glyph unicode="y" glyph-name="y" horiz-adv-x="584" d="M135 474L300 92L470 474H554L355 21Q326 -46 301 -87T242 -152T159 -176Q112 -176 77 -163V-97Q105 -107 138 -107Q171 -107 190 -96T224 -63T259 5L50 474H135Z" />
<glyph unicode="z" glyph-name="z" horiz-adv-x="485" d="M50 45L329 409H63V474H428V423L153 64H435V0H50V45Z" />
<glyph unicode="{" glyph-name="braceleft" horiz-adv-x="296" d="M97 220T84 243T30 271V325Q70 330 83 353T97 425V596Q97 653 122 676T207 700H256V635H222Q197 635 188 626T179 588V391Q179 360 165 334T121 298Q151 288 165 263T179 206V8Q179 -20 188 -29T222
-39H256V-104H207Q147 -104 122 -81T97 0V171Q97 220 84 243Z" />
<glyph unicode="|" glyph-name="bar" horiz-adv-x="182" d="M50 735H132V-120H50V735Z" />
<glyph unicode="}" glyph-name="braceright" horiz-adv-x="296" d="M199 -57T174 -80T89 -104H40V-39H74Q99 -39 108 -30T117 8V206Q117 237 131 262T175 298Q145 308 131 334T117 391V588Q117 616 108 625T74 635H40V700H89Q149 700 174 677T199 596V425Q199
376 212 353T266 325V271Q226 266 213 243T199 171V0Q199 -57 174 -80Z" />
<glyph unicode="~" glyph-name="asciitilde" horiz-adv-x="572" d="M444 304T470 318T522 364V281Q505 257 474 243T406 229Q379 229 353 238T286 265Q244 283 219 291T168 300Q130 300 102 286T50 240V323Q67 347 99 361T168 375Q200 375 228 366T296 338Q329
321 354 313T406 304Q444 304 470 318Z" />
<glyph unicode="&#xa0;" glyph-name="uni00A0" horiz-adv-x="380" />
<glyph unicode="&#xa1;" glyph-name="exclamdown" horiz-adv-x="190" d="M50 555V620H140V555H50ZM136 133L130 466H60L54 133V-24H136V133Z" />
<glyph unicode="&#xa2;" glyph-name="cent" horiz-adv-x="490" d="M264 -9Q157 -2 104 61T50 237Q50 348 106 410T264 482V560H326V483Q360 482 386 476T439 457V392Q388 417 326 418V56Q386 58 440 82V16Q392 -4 326 -9V-86H264V-9ZM132 154T163 112T264 59V414Q199
403 166 360T132 237Q132 154 163 112Z" />
<glyph unicode="&#xa3;" glyph-name="sterling" horiz-adv-x="503" d="M453 0H50V65H76Q135 65 135 136V309H65V374H135V497Q135 570 182 612T305 654Q375 654 416 635V572Q402 579 377 583T329 588Q272 588 245 566T217 493V374H415L412 309H217V140Q217 113
211 95T190 65H453V0Z" />
<glyph unicode="&#xa4;" glyph-name="currency" horiz-adv-x="573" d="M352 84T287 84Q223 84 172 125L88 60L50 107L133 169Q101 212 101 269Q101 327 133 368L51 431L88 477L172 411Q220 453 286 453Q351 453 401 411L486 477L523 431L440 368Q473 323 473 269Q473
216 440 168L523 106L486 60L401 125Q352 84 287 84ZM235 394T200 358T164 269Q164 217 199 181T286 144Q338 144 374 180T410 269Q410 303 393 331T348 377T286 394Q235 394 200 358Z" />
<glyph unicode="&#xa5;" glyph-name="yen" horiz-adv-x="642" d="M280 205H123V262H267L50 644H135L321 310L507 644H592L374 262H519V205H362V153H519V96H362V0H280V96H123V153H280V205Z" />
<glyph unicode="&#xa6;" glyph-name="brokenbar" horiz-adv-x="182" d="M50 735H132V424H50V735ZM50 190H132V-120H50V190Z" />
<glyph unicode="&#xa7;" glyph-name="section" horiz-adv-x="556" d="M50 674T110 719T289 765Q341 765 389 758T467 740V668Q391 695 302 695Q217 695 175 670T132 588Q132 555 147 534T199 498T303 467Q384 447 427 426T488 378T506 310Q506 294 501 273T489
237Q506 206 506 166Q506 81 442 36T259 -10Q139 -10 65 20V93Q153 60 252 60Q339 60 381 84T424 168Q424 204 405 226T349 263T240 295Q168 314 128 335T69 384T50 456Q50 493 68 521Q50 552 50 591Q50 674 110 719ZM127 421T140 407T184 381T279 354Q393 326
430 284Q435 299 435 311Q435 337 421 352T373 380T269 411Q211 426 180 438T132 469Q127 457 127 446Q127 421 140 407Z" />
<glyph unicode="&#xa8;" glyph-name="dieresis" horiz-adv-x="354" d="M50 636H128V561H50V636ZM226 636H304V561H226V636Z" />
<glyph unicode="&#xa9;" glyph-name="copyright" horiz-adv-x="764" d="M50 412T94 488T215 609T382 654Q472 654 548 610T669 489T714 322Q714 232 670 156T549 35T382 -10Q292 -10 216 34T95 155T50 322Q50 412 94 488ZM113 244T148 182T244 85T382 50Q459 50
520 85T617 182T652 322Q652 399 617 461T521 558T382 593Q305 593 244 558T148 461T113 322Q113 244 148 182ZM491 107T455 99T381 91Q276 91 217 152T157 321Q157 395 187 447T270 525T388 551Q465 551 517 520V466Q466 493 401 493Q223 493 223 321Q223 229
264 189T396 148Q426 148 459 156T517 177V121Q491 107 455 99Z" />
<glyph unicode="&#xaa;" glyph-name="ordfeminine" horiz-adv-x="347" d="M244 415Q225 397 202 389T145 380Q103 380 77 399T50 458Q50 544 155 544H242V556Q242 586 227 597T167 609Q124 609 84 595V639Q124 654 179 654Q297 654 297 557V386H248L244 415ZM163
504Q130 504 117 495T103 460Q103 439 117 430T160 421Q187 421 206 430T242 459V504H163Z" />
<glyph unicode="&#xab;" glyph-name="guillemotleft" horiz-adv-x="602" d="M304 80L50 267V306L304 493L337 445L124 286L337 128L304 80ZM519 80L265 267V306L519 493L552 445L339 286L552 128L519 80Z" />
<glyph unicode="&#xac;" glyph-name="logicalnot" horiz-adv-x="531" d="M481 147H414V303H50V368H481V147Z" />
<glyph unicode="&#xad;" glyph-name="uni00AD" horiz-adv-x="477" d="M427 236H50V301H427V236Z" />
<glyph unicode="&#xae;" glyph-name="registered" horiz-adv-x="764" d="M50 412T94 488T215 609T382 654Q472 654 548 610T669 489T714 322Q714 232 670 156T549 35T382 -10Q292 -10 216 34T95 155T50 322Q50 412 94 488ZM113 244T148 182T244 85T382 50Q459
50 520 85T617 182T652 322Q652 399 617 461T521 558T382 593Q305 593 244 558T148 461T113 322Q113 244 148 182ZM556 362T530 330T456 287Q469 279 476 269T492 240L546 112H485L430 241Q421 262 409 267T360 273H290V112H228V538H416Q483 538 519 504T556 409Q556
362 530 330ZM444 325T469 341T495 409Q495 455 476 470T408 486H290V325H388Q444 325 469 341Z" />
<glyph unicode="&#xaf;" glyph-name="overscore" horiz-adv-x="388" d="M338 565H50V624H338V565Z" />
<glyph unicode="&#xb0;" glyph-name="degree" horiz-adv-x="319" d="M50 658T82 689T159 720Q205 720 237 690T269 612Q269 565 237 535T159 504Q114 504 82 535T50 612Q50 658 82 689ZM105 588T120 573T159 557Q183 557 199 572T215 612Q215 635 199 651T159
667Q136 667 121 651T105 612Q105 588 120 573Z" />
<glyph unicode="&#xb1;" glyph-name="plusminus" horiz-adv-x="477" d="M272 108H205V256H50V321H205V475H272V321H427V256H272V108ZM50 65H427V0H50V65Z" />
<glyph unicode="&#xb2;" glyph-name="uni00B2" horiz-adv-x="300" d="M50 402Q63 424 81 442T129 485Q164 514 176 531T189 569Q189 590 176 598T131 607Q98 607 59 593V640Q103 654 147 654Q194 654 221 630T248 569Q248 541 236 523T191 474Q178 461 166 452Q141
431 130 417H250V370H50V402Z" />
<glyph unicode="&#xb3;" glyph-name="uni00B3" horiz-adv-x="303" d="M253 362T133 362Q111 362 87 365T50 374V419Q83 406 121 406Q160 406 176 415T192 448Q192 470 176 479T127 489H90L93 530H124Q157 530 171 540T186 573Q186 593 171 601T122 609Q89 609
55 597V642Q69 647 91 650T135 654Q247 654 247 576Q247 553 236 535T202 509Q253 498 253 446Q253 362 133 362Z" />
<glyph unicode="&#xb4;" glyph-name="acute" horiz-adv-x="245" d="M121 690H195L116 522H50L121 690Z" />
<glyph unicode="&#xb6;" glyph-name="paragraph" horiz-adv-x="628" d="M578 -77H496V646H396V-77H314V253Q191 253 121 304T50 477Q50 598 120 654T313 710H578V-77Z" />
<glyph unicode="&#xb7;" glyph-name="middot" horiz-adv-x="174" d="M50 319H124V250H50V319Z" />
<glyph unicode="&#xb8;" glyph-name="cedilla" horiz-adv-x="313" d="M263 -240T120 -240Q104 -240 83 -238T50 -232V-182Q79 -190 113 -190Q161 -190 182 -179T203 -137Q203 -109 184 -100T118 -91H81L110 0H168L152 -48Q206 -48 234 -71T263 -138Q263 -240 120 -240Z" />
<glyph unicode="&#xb9;" glyph-name="uni00B9" horiz-adv-x="212" d="M124 598L50 582V628L182 654V370H124V598Z" />
<glyph unicode="&#xba;" glyph-name="ordmasculine" horiz-adv-x="365" d="M248 654T281 619T315 517Q315 380 182 380Q50 380 50 517Q50 584 83 619T182 654Q248 654 281 619ZM224 424T241 447T259 517Q259 564 241 586T182 609Q141 609 123 586T105 517Q105
470 122 447T182 424Q224 424 241 447Z" />
<glyph unicode="&#xbb;" glyph-name="guillemotright" horiz-adv-x="602" d="M50 445L83 493L337 306V267L83 80L50 128L263 286L50 445ZM265 445L298 493L552 306V267L298 80L265 128L478 286L265 445Z" />
<glyph unicode="&#xbc;" glyph-name="onequarter" horiz-adv-x="632" d="M124 598L50 582V628L182 654V370H124V598ZM442 644H519L177 0H100L442 644ZM551 0H494V58H344V101L487 284H551V101H582V58H551V0ZM400 102H505V238L400 102Z" />
<glyph unicode="&#xbd;" glyph-name="onehalf" horiz-adv-x="630" d="M124 598L50 582V628L182 654V370H124V598ZM442 644H519L177 0H100L442 644ZM380 32Q393 54 411 72T459 115Q494 144 506 161T519 199Q519 220 506 228T461 237Q428 237 389 223V270Q433 284
477 284Q524 284 551 260T578 199Q578 171 566 153T521 104Q508 91 496 82Q471 61 460 47H580V0H380V32Z" />
<glyph unicode="&#xbe;" glyph-name="threequarters" horiz-adv-x="641" d="M253 362T133 362Q111 362 87 365T50 374V417Q83 404 121 404Q160 404 176 414T192 448Q192 470 176 480T127 490H90L93 529H124Q156 529 171 539T186 573Q186 593 171 602T122 611Q89
611 55 599V642Q69 647 91 650T135 654Q247 654 247 576Q247 553 236 535T202 509Q253 498 253 446Q253 362 133 362ZM451 644H528L186 0H109L451 644ZM560 0H503V58H353V101L496 284H560V101H591V58H560V0ZM409 102H514V238L409 102Z" />
<glyph unicode="&#xbf;" glyph-name="questiondown" horiz-adv-x="493" d="M351 620V555H261V620H351ZM70 195T93 229T170 307L189 323Q218 347 233 362T256 397T265 446V465H347V442Q347 406 333 378T298 329T243 279L220 260Q187 231 170 205T152 146Q152 87
185 62T303 36Q346 36 387 46T463 72V2Q431 -15 384 -24T284 -34Q179 -34 125 13T70 145Q70 195 93 229Z" />
<glyph unicode="&#xc0;" glyph-name="Agrave" horiz-adv-x="685" d="M217 856H291L362 688H296L217 856ZM135 0H50L295 644H391L635 0H551L483 177H203L135 0ZM217 242H468L342 573L217 242Z" />
<glyph unicode="&#xc1;" glyph-name="Aacute" horiz-adv-x="685" d="M363 856H437L358 688H292L363 856ZM135 0H50L295 644H391L635 0H551L483 177H203L135 0ZM217 242H468L342 573L217 242Z" />
<glyph unicode="&#xc2;" glyph-name="Acircumflex" horiz-adv-x="685" d="M419 688L342 790L265 688H194L309 836H375L490 688H419ZM135 0H50L295 644H391L635 0H551L483 177H203L135 0ZM217 242H468L342 573L217 242Z" />
<glyph unicode="&#xc3;" glyph-name="Atilde" horiz-adv-x="685" d="M388 703T338 723Q321 730 304 735T273 741Q220 741 190 706V769Q202 782 225 790T273 799Q292 799 309 794T349 779Q374 769 387 765T417 761Q468 761 494 797V733Q484 719 463 711T417 703Q388
703 338 723ZM135 0H50L295 644H391L635 0H551L483 177H203L135 0ZM217 242H468L342 573L217 242Z" />
<glyph unicode="&#xc4;" glyph-name="Adieresis" horiz-adv-x="685" d="M215 785H293V710H215V785ZM391 785H469V710H391V785ZM135 0H50L295 644H391L635 0H551L483 177H203L135 0ZM217 242H468L342 573L217 242Z" />
<glyph unicode="&#xc5;" glyph-name="Aring" horiz-adv-x="685" d="M635 0H551L483 177H203L135 0H50L287 622Q261 636 247 660T232 716Q232 762 263 793T341 824Q390 824 421 793T452 716Q452 686 438 662T399 623L635 0ZM315 777T298 760T280 716Q280 690 297
673T341 655Q368 655 385 672T403 716Q403 742 386 759T341 777Q315 777 298 760ZM468 242L342 573L217 242H468Z" />
<glyph unicode="&#xc6;" glyph-name="AE" horiz-adv-x="840" d="M409 178H206L138 0H50L295 644H790V579H491V354H754V290H491V64H790V0H409V178ZM409 579H358L231 242H409V579Z" />
<glyph unicode="&#xc7;" glyph-name="Ccedilla" horiz-adv-x="595" d="M240 584T186 514T132 308Q132 60 367 60Q468 60 545 89V16Q465 -9 371 -10L358 -48Q412 -48 440 -71T469 -138Q469 -240 326 -240Q310 -240 289 -238T256 -232V-182Q285 -190 319 -190Q367
-190 388 -179T409 -137Q409 -109 390 -100T324 -91H287L313 -8Q183 5 117 88T50 308Q50 472 125 563T358 654Q461 654 545 624V552Q460 584 365 584Q240 584 186 514Z" />
<glyph unicode="&#xc8;" glyph-name="Egrave" horiz-adv-x="555" d="M178 856H252L323 688H257L178 856ZM70 644H505V579H152V354H469V290H152V64H505V0H70V644Z" />
<glyph unicode="&#xc9;" glyph-name="Eacute" horiz-adv-x="555" d="M310 856H384L305 688H239L310 856ZM70 644H505V579H152V354H469V290H152V64H505V0H70V644Z" />
<glyph unicode="&#xca;" glyph-name="Ecircumflex" horiz-adv-x="555" d="M351 688L274 790L197 688H126L241 836H307L422 688H351ZM70 644H505V579H152V354H469V290H152V64H505V0H70V644Z" />
<glyph unicode="&#xcb;" glyph-name="Edieresis" horiz-adv-x="555" d="M153 786H231V711H153V786ZM329 786H407V711H329V786ZM70 644H505V579H152V354H469V290H152V64H505V0H70V644Z" />
<glyph unicode="&#xcc;" glyph-name="Igrave" horiz-adv-x="222" d="M1 856H75L146 688H80L1 856ZM70 644H152V0H70V644Z" />
<glyph unicode="&#xcd;" glyph-name="Iacute" horiz-adv-x="222" d="M141 856H215L136 688H70L141 856ZM70 644H152V0H70V644Z" />
<glyph unicode="&#xce;" glyph-name="Icircumflex" horiz-adv-x="222" d="M188 688L111 790L34 688H-37L78 836H144L259 688H188ZM70 644H152V0H70V644Z" />
<glyph unicode="&#xcf;" glyph-name="Idieresis" horiz-adv-x="222" d="M-16 788H62V713H-16V788ZM160 788H238V713H160V788ZM70 644H152V0H70V644Z" />
<glyph unicode="&#xd0;" glyph-name="Eth" horiz-adv-x="664" d="M485 644T549 568T614 318Q614 152 550 76T344 0H92V284H20V349H92V644H344Q485 644 549 568ZM401 64T444 85T510 161T532 318Q532 420 512 476T449 556T329 579H174V349H355V284H174V64H329Q401
64 444 85Z" />
<glyph unicode="&#xd1;" glyph-name="Ntilde" horiz-adv-x="663" d="M375 708T325 728Q308 735 291 740T260 746Q207 746 177 711V774Q189 787 212 795T260 804Q279 804 296 799T336 784Q361 774 374 770T404 766Q455 766 481 802V738Q471 724 450 716T404 708Q375
708 325 728ZM152 0H70V644H144L511 126V644H593V0H518L152 517V0Z" />
<glyph unicode="&#xd2;" glyph-name="Ograve" horiz-adv-x="694" d="M241 856H315L386 688H320L241 856ZM644 150T572 70T347 -10Q195 -10 123 70T50 322Q50 494 122 574T347 654Q499 654 571 574T644 322Q644 150 572 70ZM562 418T539 475T469 558T347 584Q272
584 225 559T155 476T132 322Q132 226 155 169T225 86T347 60Q422 60 469 85T539 168T562 322Q562 418 539 475Z" />
<glyph unicode="&#xd3;" glyph-name="Oacute" horiz-adv-x="694" d="M383 856H457L378 688H312L383 856ZM644 150T572 70T347 -10Q195 -10 123 70T50 322Q50 494 122 574T347 654Q499 654 571 574T644 322Q644 150 572 70ZM562 418T539 475T469 558T347 584Q272
584 225 559T155 476T132 322Q132 226 155 169T225 86T347 60Q422 60 469 85T539 168T562 322Q562 418 539 475Z" />
<glyph unicode="&#xd4;" glyph-name="Ocircumflex" horiz-adv-x="694" d="M424 688L347 790L270 688H199L314 836H380L495 688H424ZM644 150T572 70T347 -10Q195 -10 123 70T50 322Q50 494 122 574T347 654Q499 654 571 574T644 322Q644 150 572 70ZM562 418T539
475T469 558T347 584Q272 584 225 559T155 476T132 322Q132 226 155 169T225 86T347 60Q422 60 469 85T539 168T562 322Q562 418 539 475Z" />
<glyph unicode="&#xd5;" glyph-name="Otilde" horiz-adv-x="694" d="M393 713T343 733Q326 740 309 745T278 751Q225 751 195 716V779Q207 792 230 800T278 809Q297 809 314 804T354 789Q379 779 392 775T422 771Q473 771 499 807V743Q489 729 468 721T422 713Q393
713 343 733ZM644 150T572 70T347 -10Q195 -10 123 70T50 322Q50 494 122 574T347 654Q499 654 571 574T644 322Q644 150 572 70ZM562 418T539 475T469 558T347 584Q272 584 225 559T155 476T132 322Q132 226 155 169T225 86T347 60Q422 60 469 85T539 168T562
322Q562 418 539 475Z" />
<glyph unicode="&#xd6;" glyph-name="Odieresis" horiz-adv-x="694" d="M220 786H298V711H220V786ZM396 786H474V711H396V786ZM644 150T572 70T347 -10Q195 -10 123 70T50 322Q50 494 122 574T347 654Q499 654 571 574T644 322Q644 150 572 70ZM562 418T539 475T469
558T347 584Q272 584 225 559T155 476T132 322Q132 226 155 169T225 86T347 60Q422 60 469 85T539 168T562 322Q562 418 539 475Z" />
<glyph unicode="&#xd7;" glyph-name="multiply" horiz-adv-x="410" d="M98 108L55 151L163 260L50 371L93 414L204 301L317 413L360 370L248 257L360 145L319 103L207 216L98 108Z" />
<glyph unicode="&#xd8;" glyph-name="Oslash" horiz-adv-x="694" d="M195 17Q122 50 86 125T50 322Q50 494 122 574T347 654Q384 654 426 647L443 693H515L491 629Q568 597 606 522T644 322Q644 150 572 70T347 -10Q302 -10 259 -2L241 -53H169L195 17ZM132 228T154
171T221 88L401 580Q367 584 347 584Q272 584 225 559T155 476T132 322Q132 228 154 171ZM562 419T539 476T466 560L284 65Q316 60 347 60Q422 60 469 85T539 168T562 322Q562 419 539 476Z" />
<glyph unicode="&#xd9;" glyph-name="Ugrave" horiz-adv-x="671" d="M240 856H314L385 688H319L240 856ZM427 60T475 104T524 235V644H606V236Q606 116 537 53T336 -10Q204 -10 135 53T65 236V644H147V235Q147 148 196 104T336 60Q427 60 475 104Z" />
<glyph unicode="&#xda;" glyph-name="Uacute" horiz-adv-x="671" d="M366 856H440L361 688H295L366 856ZM427 60T475 104T524 235V644H606V236Q606 116 537 53T336 -10Q204 -10 135 53T65 236V644H147V235Q147 148 196 104T336 60Q427 60 475 104Z" />
<glyph unicode="&#xdb;" glyph-name="Ucircumflex" horiz-adv-x="671" d="M412 688L335 790L258 688H187L302 836H368L483 688H412ZM427 60T475 104T524 235V644H606V236Q606 116 537 53T336 -10Q204 -10 135 53T65 236V644H147V235Q147 148 196 104T336 60Q427
60 475 104Z" />
<glyph unicode="&#xdc;" glyph-name="Udieresis" horiz-adv-x="671" d="M196 786H274V711H196V786ZM372 786H450V711H372V786ZM427 60T475 104T524 235V644H606V236Q606 116 537 53T336 -10Q204 -10 135 53T65 236V644H147V235Q147 148 196 104T336 60Q427 60 475 104Z" />
<glyph unicode="&#xdd;" glyph-name="Yacute" horiz-adv-x="642" d="M347 856H421L342 688H276L347 856ZM280 240L50 644H135L321 310L507 644H592L362 240V0H280V240Z" />
<glyph unicode="&#xde;" glyph-name="Thorn" horiz-adv-x="582" d="M552 226T495 171T338 115H152V0H70V644H152V526H342Q447 526 499 471T552 320Q552 226 495 171ZM395 179T432 217T470 320Q470 389 435 425T330 461H152V179H325Q395 179 432 217Z" />
<glyph unicode="&#xdf;" glyph-name="germandbls" horiz-adv-x="627" d="M426 60T460 94T495 192Q495 255 463 288T356 321H274V383H358Q418 383 446 416T474 505Q474 566 437 598T310 630Q147 630 147 465V0H65V468Q65 537 95 589T180 671T310 700Q389 700 443
674T524 604T551 505Q551 451 528 411T467 353Q518 338 547 295T577 188Q577 94 525 42T376 -10Q291 -10 232 12V82Q283 60 363 60Q426 60 460 94Z" />
<glyph unicode="&#xe0;" glyph-name="agrave" horiz-adv-x="541" d="M182 690H256L327 522H261L182 690ZM401 54Q370 21 326 6T217 -10Q145 -10 98 27T50 133Q50 202 95 241T233 281H398V310Q398 350 387 372T347 405T263 415Q180 415 105 389V457Q176 484 274
484Q376 484 426 443T476 310V0H407L401 54ZM235 218Q180 218 156 198T131 133Q131 92 158 75T238 57Q339 57 398 126V218H235Z" />
<glyph unicode="&#xe1;" glyph-name="aacute" horiz-adv-x="541" d="M315 690H389L310 522H244L315 690ZM401 54Q370 21 326 6T217 -10Q145 -10 98 27T50 133Q50 202 95 241T233 281H398V310Q398 350 387 372T347 405T263 415Q180 415 105 389V457Q176 484 274
484Q376 484 426 443T476 310V0H407L401 54ZM235 218Q180 218 156 198T131 133Q131 92 158 75T238 57Q339 57 398 126V218H235Z" />
<glyph unicode="&#xe2;" glyph-name="acircumflex" horiz-adv-x="541" d="M359 522L282 624L205 522H134L249 670H315L430 522H359ZM401 54Q370 21 326 6T217 -10Q145 -10 98 27T50 133Q50 202 95 241T233 281H398V310Q398 350 387 372T347 405T263 415Q180 415
105 389V457Q176 484 274 484Q376 484 426 443T476 310V0H407L401 54ZM235 218Q180 218 156 198T131 133Q131 92 158 75T238 57Q339 57 398 126V218H235Z" />
<glyph unicode="&#xe3;" glyph-name="atilde" horiz-adv-x="541" d="M326 542T276 562Q259 569 242 574T211 580Q158 580 128 545V608Q140 621 163 629T211 638Q230 638 247 633T287 618Q312 608 325 604T355 600Q406 600 432 636V572Q422 558 401 550T355 542Q326
542 276 562ZM401 54Q370 21 326 6T217 -10Q145 -10 98 27T50 133Q50 202 95 241T233 281H398V310Q398 350 387 372T347 405T263 415Q180 415 105 389V457Q176 484 274 484Q376 484 426 443T476 310V0H407L401 54ZM235 218Q180 218 156 198T131 133Q131 92 158
75T238 57Q339 57 398 126V218H235Z" />
<glyph unicode="&#xe4;" glyph-name="adieresis" horiz-adv-x="541" d="M160 620H238V545H160V620ZM336 620H414V545H336V620ZM401 54Q370 21 326 6T217 -10Q145 -10 98 27T50 133Q50 202 95 241T233 281H398V310Q398 350 387 372T347 405T263 415Q180 415 105
389V457Q176 484 274 484Q376 484 426 443T476 310V0H407L401 54ZM235 218Q180 218 156 198T131 133Q131 92 158 75T238 57Q339 57 398 126V218H235Z" />
<glyph unicode="&#xe5;" glyph-name="aring" horiz-adv-x="541" d="M174 675T205 706T283 737Q332 737 363 706T394 629Q394 583 363 553T283 522Q236 522 205 553T174 629Q174 675 205 706ZM222 603T239 586T283 568Q310 568 327 585T345 629Q345 655 328 672T283
690Q257 690 240 673T222 629Q222 603 239 586ZM401 54Q370 21 326 6T217 -10Q145 -10 98 27T50 133Q50 202 95 241T233 281H398V310Q398 350 387 372T347 405T263 415Q180 415 105 389V457Q176 484 274 484Q376 484 426 443T476 310V0H407L401 54ZM235 218Q180
218 156 198T131 133Q131 92 158 75T238 57Q339 57 398 126V218H235Z" />
<glyph unicode="&#xe6;" glyph-name="ae" horiz-adv-x="881" d="M408 40T356 15T217 -10Q145 -10 98 27T50 133Q50 202 95 241T233 281H398V310Q398 350 387 372T347 405T263 415Q180 415 105 389V457Q176 484 274 484Q402 484 449 411Q510 484 625 484Q726 484
778 430T831 288V199H480Q484 144 503 114T562 70T667 56Q740 56 801 81V17Q740 -10 651 -10Q574 -10 524 12T443 80Q408 40 356 15ZM545 418T513 380T480 258H758V297Q758 356 727 387T627 418Q545 418 513 380ZM235 218Q180 218 156 198T131 133Q131 92 158 75T238
57Q293 57 331 74T398 126V218H235Z" />
<glyph unicode="&#xe7;" glyph-name="ccedilla" horiz-adv-x="490" d="M383 -7T312 -10L299 -48Q353 -48 381 -71T410 -138Q410 -240 267 -240Q251 -240 230 -238T197 -232V-182Q226 -190 260 -190Q308 -190 329 -179T350 -137Q350 -109 331 -100T265 -91H228L254
-8Q152 2 101 64T50 237Q50 359 116 421T301 484Q346 484 377 478T439 457V392Q385 418 316 418Q225 418 179 375T132 237Q132 142 174 99T313 56Q382 56 440 82V16Q383 -7 312 -10Z" />
<glyph unicode="&#xe8;" glyph-name="egrave" horiz-adv-x="533" d="M155 690H229L300 522H234L155 690ZM136 144T155 114T214 70T319 56Q392 56 453 81V17Q392 -10 303 -10Q176 -10 113 51T50 239Q50 356 106 420T277 484Q378 484 430 430T483 288V199H132Q136
144 155 114ZM197 418T165 380T132 258H410V297Q410 356 379 387T279 418Q197 418 165 380Z" />
<glyph unicode="&#xe9;" glyph-name="eacute" horiz-adv-x="533" d="M298 690H372L293 522H227L298 690ZM136 144T155 114T214 70T319 56Q392 56 453 81V17Q392 -10 303 -10Q176 -10 113 51T50 239Q50 356 106 420T277 484Q378 484 430 430T483 288V199H132Q136
144 155 114ZM197 418T165 380T132 258H410V297Q410 356 379 387T279 418Q197 418 165 380Z" />
<glyph unicode="&#xea;" glyph-name="ecircumflex" horiz-adv-x="533" d="M343 522L266 624L189 522H118L233 670H299L414 522H343ZM136 144T155 114T214 70T319 56Q392 56 453 81V17Q392 -10 303 -10Q176 -10 113 51T50 239Q50 356 106 420T277 484Q378 484 430
430T483 288V199H132Q136 144 155 114ZM197 418T165 380T132 258H410V297Q410 356 379 387T279 418Q197 418 165 380Z" />
<glyph unicode="&#xeb;" glyph-name="edieresis" horiz-adv-x="533" d="M137 620H215V545H137V620ZM313 620H391V545H313V620ZM136 144T155 114T214 70T319 56Q392 56 453 81V17Q392 -10 303 -10Q176 -10 113 51T50 239Q50 356 106 420T277 484Q378 484 430 430T483
288V199H132Q136 144 155 114ZM197 418T165 380T132 258H410V297Q410 356 379 387T279 418Q197 418 165 380Z" />
<glyph unicode="&#xec;" glyph-name="igrave" horiz-adv-x="295" d="M76 690H150L221 522H155L76 690ZM225 0H143V409H70L78 474H225V0Z" />
<glyph unicode="&#xed;" glyph-name="iacute" horiz-adv-x="295" d="M211 690H285L206 522H140L211 690ZM225 0H143V409H70L78 474H225V0Z" />
<glyph unicode="&#xee;" glyph-name="icircumflex" horiz-adv-x="295" d="M243 522L166 624L89 522H18L133 670H199L314 522H243ZM225 0H143V409H70L78 474H225V0Z" />
<glyph unicode="&#xef;" glyph-name="idieresis" horiz-adv-x="295" d="M27 620H105V545H27V620ZM203 620H281V545H203V620ZM225 0H143V409H70L78 474H225V0Z" />
<glyph unicode="&#xf0;" glyph-name="eth" horiz-adv-x="573" d="M50 296T107 350T271 404Q312 404 358 390T441 348V394Q441 478 417 525L283 467V519L386 564Q348 593 280 593Q202 593 138 570V632Q206 654 290 654Q398 654 455 594L548 635V582L484 554Q519
493 519 390V235Q519 109 460 50T284 -10Q168 -10 109 44T50 196Q50 296 107 350ZM124 127T164 90T284 52Q363 52 402 90T441 209V289Q407 314 366 329T285 344Q200 344 162 306T124 196Q124 127 164 90Z" />
<glyph unicode="&#xf1;" glyph-name="ntilde" horiz-adv-x="570" d="M331 542T281 562Q264 569 247 574T216 580Q163 580 133 545V608Q145 621 168 629T216 638Q235 638 252 633T292 618Q317 608 330 604T360 600Q411 600 437 636V572Q427 558 406 550T360 542Q331
542 281 562ZM423 0V307Q423 350 412 373T376 407T302 418Q258 418 219 402T152 358V0H70V474H144L149 420Q227 484 333 484Q423 484 464 442T505 310V0H423Z" />
<glyph unicode="&#xf2;" glyph-name="ograve" horiz-adv-x="574" d="M181 690H255L326 522H260L181 690ZM524 484T524 237Q524 114 467 52T287 -10Q165 -10 108 52T50 237Q50 484 287 484Q524 484 524 237ZM371 60T406 102T442 237Q442 330 406 372T287 414Q204
414 168 372T132 237Q132 144 167 102T287 60Q371 60 406 102Z" />
<glyph unicode="&#xf3;" glyph-name="oacute" horiz-adv-x="574" d="M324 690H398L319 522H253L324 690ZM524 484T524 237Q524 114 467 52T287 -10Q165 -10 108 52T50 237Q50 484 287 484Q524 484 524 237ZM371 60T406 102T442 237Q442 330 406 372T287 414Q204
414 168 372T132 237Q132 144 167 102T287 60Q371 60 406 102Z" />
<glyph unicode="&#xf4;" glyph-name="ocircumflex" horiz-adv-x="574" d="M364 522L287 624L210 522H139L254 670H320L435 522H364ZM524 484T524 237Q524 114 467 52T287 -10Q165 -10 108 52T50 237Q50 484 287 484Q524 484 524 237ZM371 60T406 102T442 237Q442
330 406 372T287 414Q204 414 168 372T132 237Q132 144 167 102T287 60Q371 60 406 102Z" />
<glyph unicode="&#xf5;" glyph-name="otilde" horiz-adv-x="574" d="M333 547T283 567Q266 574 249 579T218 585Q165 585 135 550V613Q147 626 170 634T218 643Q237 643 254 638T294 623Q319 613 332 609T362 605Q413 605 439 641V577Q429 563 408 555T362 547Q333
547 283 567ZM524 484T524 237Q524 114 467 52T287 -10Q165 -10 108 52T50 237Q50 484 287 484Q524 484 524 237ZM371 60T406 102T442 237Q442 330 406 372T287 414Q204 414 168 372T132 237Q132 144 167 102T287 60Q371 60 406 102Z" />
<glyph unicode="&#xf6;" glyph-name="odieresis" horiz-adv-x="574" d="M160 620H238V545H160V620ZM336 620H414V545H336V620ZM524 484T524 237Q524 114 467 52T287 -10Q165 -10 108 52T50 237Q50 484 287 484Q524 484 524 237ZM371 60T406 102T442 237Q442 330
406 372T287 414Q204 414 168 372T132 237Q132 144 167 102T287 60Q371 60 406 102Z" />
<glyph unicode="&#xf7;" glyph-name="divide" horiz-adv-x="476" d="M273 465V398H202V465H273ZM50 301H426V236H50V301ZM273 145V78H202V145H273Z" />
<glyph unicode="&#xf8;" glyph-name="oslash" horiz-adv-x="574" d="M318 484T341 480L359 528H431L407 462Q524 411 524 237Q524 114 467 52T287 -10Q259 -10 235 -7L218 -54H146L169 10Q50 59 50 237Q50 484 287 484Q318 484 341 480ZM132 175T147 137T195 79L317
412Q297 414 287 414Q204 414 168 372T132 237Q132 175 147 137ZM371 60T406 102T442 237Q442 297 428 335T381 392L260 61Q269 60 287 60Q371 60 406 102Z" />
<glyph unicode="&#xf9;" glyph-name="ugrave" horiz-adv-x="570" d="M179 690H253L324 522H258L179 690ZM147 474V171Q147 112 176 84T268 56Q312 56 351 72T418 116V474H500V0H426L421 54Q385 25 338 8T237 -10Q152 -10 109 37T65 174V474H147Z" />
<glyph unicode="&#xfa;" glyph-name="uacute" horiz-adv-x="570" d="M306 690H380L301 522H235L306 690ZM147 474V171Q147 112 176 84T268 56Q312 56 351 72T418 116V474H500V0H426L421 54Q385 25 338 8T237 -10Q152 -10 109 37T65 174V474H147Z" />
<glyph unicode="&#xfb;" glyph-name="ucircumflex" horiz-adv-x="570" d="M358 522L281 624L204 522H133L248 670H314L429 522H358ZM147 474V171Q147 112 176 84T268 56Q312 56 351 72T418 116V474H500V0H426L421 54Q385 25 338 8T237 -10Q152 -10 109 37T65 174V474H147Z"
/>
<glyph unicode="&#xfc;" glyph-name="udieresis" horiz-adv-x="570" d="M152 617H230V542H152V617ZM328 617H406V542H328V617ZM147 474V171Q147 112 176 84T268 56Q312 56 351 72T418 116V474H500V0H426L421 54Q385 25 338 8T237 -10Q152 -10 109 37T65 174V474H147Z" />
<glyph unicode="&#xfd;" glyph-name="yacute" horiz-adv-x="584" d="M329 690H403L324 522H258L329 690ZM135 474L300 92L470 474H554L355 21Q326 -46 301 -87T242 -152T159 -176Q112 -176 77 -163V-97Q105 -107 138 -107Q171 -107 190 -96T224 -63T259 5L50 474H135Z" />
<glyph unicode="&#xfe;" glyph-name="thorn" horiz-adv-x="575" d="M153 439Q218 484 311 484Q414 484 469 423T525 236Q525 111 469 51T310 -10Q217 -10 152 35V-216H70V700H153V439ZM368 56T405 98T443 236Q443 331 408 374T290 418Q205 418 152 361V103Q205
56 288 56Q368 56 405 98Z" />
<glyph unicode="&#xff;" glyph-name="ydieresis" horiz-adv-x="584" d="M178 627H256V552H178V627ZM354 627H432V552H354V627ZM135 474L300 92L470 474H554L355 21Q326 -46 301 -87T242 -152T159 -176Q112 -176 77 -163V-97Q105 -107 138 -107Q171 -107 190 -96T224
-63T259 5L50 474H135Z" />
<glyph unicode="&#x2013;" glyph-name="endash" horiz-adv-x="585" d="M535 236H50V301H535V236Z" />
<glyph unicode="&#x2014;" glyph-name="emdash" horiz-adv-x="877" d="M827 236H50V301H827V236Z" />
<glyph unicode="&#x2018;" glyph-name="quoteleft" horiz-adv-x="224" d="M125 471H50L112 654H174L125 471Z" />
<glyph unicode="&#x2019;" glyph-name="quoteright" horiz-adv-x="224" d="M99 654H174L112 471H50L99 654Z" />
<glyph unicode="&#x201a;" glyph-name="quotesinglbase" horiz-adv-x="224" d="M99 33H174L112 -150H50L99 33Z" />
<glyph unicode="&#x201c;" glyph-name="quotedblleft" horiz-adv-x="355" d="M120 471H50L112 654H169L120 471ZM256 471H187L249 654H305L256 471Z" />
<glyph unicode="&#x201d;" glyph-name="quotedblright" horiz-adv-x="355" d="M100 654H169L107 471H50L100 654ZM236 654H305L243 471H187L236 654Z" />
<glyph unicode="&#x201e;" glyph-name="quotedblbase" horiz-adv-x="355" d="M100 64H169L107 -119H50L100 64ZM236 64H305L243 -119H187L236 64Z" />
<glyph unicode="&#x2022;" glyph-name="bullet" horiz-adv-x="339" d="M50 337T85 372T169 407Q219 407 254 372T289 287Q289 237 254 203T169 168Q119 168 85 202T50 287Q50 337 85 372Z" />
<glyph unicode="&#x2039;" glyph-name="guilsinglleft" horiz-adv-x="387" d="M304 80L50 267V306L304 493L337 445L124 286L337 128L304 80Z" />
<glyph unicode="&#x203a;" glyph-name="guilsinglright" horiz-adv-x="387" d="M50 445L83 493L337 306V267L83 80L50 128L263 286L50 445Z" />
</font>
</defs>
</svg>
