<?xml version="1.0" standalone="no"?>
<!DOCTYPE svg PUBLIC "-//W3C//DTD SVG 1.1//EN" "http://www.w3.org/Graphics/SVG/1.1/DTD/svg11.dtd">
<svg xmlns="http://www.w3.org/2000/svg">
<defs >
<font id="SairaSemiCondensed" horiz-adv-x="520" ><font-face
    font-family="Saira SemiCondensed Black"
    units-per-em="1000"
    panose-1="0 0 10 6 0 0 0 0 0 0"
    ascent="1135"
    descent="-439"
    alphabetic="0" />
<glyph unicode=" " glyph-name="space" horiz-adv-x="222" />
<glyph unicode="!" glyph-name="exclam" horiz-adv-x="338" d="M90 397T78 518T65 663V688H286V663Q286 638 273 516T241 242H109Q90 397 78 518ZM77 0V161H274V0H77Z" />
<glyph unicode="&quot;" glyph-name="quotedbl" horiz-adv-x="496" d="M75 421L57 643V688H224V643L205 421H75ZM290 421L271 643V688H439V643L420 421H290Z" />
<glyph unicode="#" glyph-name="numbersign" horiz-adv-x="629" d="M302 0L332 170H240L210 0H87L117 170H43V285H138L159 404H72V519H181L212 688H335L304 519H396L427 688H550L519 519H596V404H497L476 285H566V170H455L425 0H302ZM374 404H282L261 285H353L374 404Z" />
<glyph unicode="$" glyph-name="dollar" horiz-adv-x="475" d="M171 71Q97 77 51 85V217Q133 211 174 211Q218 211 233 212T254 219T259 241Q259 257 254 261T225 270L166 279Q110 288 83 309T46 363T37 455Q37 532 71 568T171 615V696H310V616Q370 613 412 603V470Q324
477 294 477Q256 477 241 476T222 469T217 452Q217 439 218 435T226 428T250 422L316 413Q359 407 384 394T424 346T438 248Q438 159 405 120T310 72V-8H171V71Z" />
<glyph unicode="%" glyph-name="percent" horiz-adv-x="840" d="M123 311T93 325T53 378T43 503Q43 590 53 628T93 681T190 696Q257 696 287 682T327 628T337 503Q337 417 327 379T287 326T190 311Q123 311 93 325ZM160 0L572 688H681L269 0H160ZM208 395T214
400T221 425T223 503Q223 562 222 581T214 606T190 612Q172 612 166 607T159 581T157 503Q157 446 158 426T166 401T190 395Q208 395 214 400ZM583 -8T553 6T513 59T503 184Q503 270 513 309T553 362T650 377Q717 377 747 363T788 309T798 184Q798 98 788 60T748
7T650 -8Q583 -8 553 6ZM668 76T674 81T682 107T684 184Q684 242 683 262T675 287T650 292Q632 292 626 287T619 262T617 184Q617 127 618 107T626 82T650 76Q668 76 674 81Z" />
<glyph unicode="&amp;" glyph-name="ampersand" horiz-adv-x="646" d="M635 418V277H549V14Q499 4 433 -2T313 -8Q200 -8 138 14T53 77T30 183Q30 264 57 299T143 349V353Q88 367 62 405T36 517Q36 580 62 618T149 676T316 696Q366 696 431 690T546 674V541Q456
551 353 551Q294 551 271 547T240 530T232 483Q232 451 236 438T252 422T290 418H310V277H290Q262 277 249 273T231 254T225 206Q225 173 232 159T258 141T323 136H357V418H635Z" />
<glyph unicode="&apos;" glyph-name="quotesingle" horiz-adv-x="280" d="M75 421L57 643V688H224V643L205 421H75Z" />
<glyph unicode="(" glyph-name="parenleft" horiz-adv-x="349" d="M132 -68T104 -22T62 96T48 297Q48 426 62 499T106 622T199 743H327Q284 678 266 638T236 520T225 297Q225 153 236 75T265 -44T327 -150H199Q132 -68 104 -22Z" />
<glyph unicode=")" glyph-name="parenright" horiz-adv-x="349" d="M64 -85T83 -45T113 74T124 297Q124 442 113 520T83 638T21 743H150Q213 671 242 622T286 500T300 297Q300 168 286 97T244 -21T150 -150H21Q64 -85 83 -45Z" />
<glyph unicode="*" glyph-name="asterisk" horiz-adv-x="434" d="M252 453L264 340H170L182 453L88 385L40 467L145 513L40 561L88 643L182 575L170 688H264L252 576L347 643L394 561L288 513L394 467L347 385L252 453Z" />
<glyph unicode="+" glyph-name="plus" horiz-adv-x="506" d="M184 63V184H63V321H184V444H322V321H444V184H322V63H184Z" />
<glyph unicode="," glyph-name="comma" horiz-adv-x="312" d="M88 -89T101 -83T119 -61T124 -15V0H57V161H254V41Q254 -45 241 -86T187 -145T59 -163V-89Q88 -89 101 -83Z" />
<glyph unicode="-" glyph-name="hyphen" horiz-adv-x="341" d="M44 210V358H297V210H44Z" />
<glyph unicode="." glyph-name="period" horiz-adv-x="312" d="M57 0V161H254V0H57Z" />
<glyph unicode="/" glyph-name="slash" horiz-adv-x="396" d="M-2 -55L240 743H398L156 -55H-2Z" />
<glyph unicode="0" glyph-name="zero" horiz-adv-x="570" d="M167 -8T117 18T51 114T36 344Q36 505 51 574T116 669T285 696Q403 696 453 670T519 574T534 344Q534 183 519 114T454 19T285 -8Q167 -8 117 18ZM309 149T317 158T327 203T329 344Q329 449 327 484T317
529T285 539Q261 539 254 530T244 486T242 344Q242 237 244 202T253 158T285 149Q309 149 317 158Z" />
<glyph unicode="1" glyph-name="one" horiz-adv-x="366" d="M114 0V484L7 442V603L175 688H321V0H114Z" />
<glyph unicode="2" glyph-name="two" horiz-adv-x="538" d="M238 209T237 194T236 159H499V0H37V98Q37 192 41 237T64 312T126 362L246 417Q269 427 277 433T289 450T293 486Q293 511 287 522T267 536T219 539Q163 539 48 527V675Q92 684 154 690T269 696Q342
696 390 683T469 626T499 497Q499 404 474 360T404 296L272 238Q258 232 252 228T242 217Q238 209 237 194Z" />
<glyph unicode="3" glyph-name="three" horiz-adv-x="530" d="M195 -8T137 -2T34 13V159Q139 149 211 149Q248 149 262 152T282 166T288 206Q288 237 283 250T267 267T227 271H128V424H227Q255 424 266 428T280 443T283 483Q283 511 279 522T259 536T203 539Q125
539 37 528V675Q81 684 139 690T242 696Q333 696 387 678T465 620T489 517Q489 443 464 405T383 353V349Q423 339 446 322T482 271T495 183Q495 116 473 75T395 13T241 -8Q195 -8 137 -2Z" />
<glyph unicode="4" glyph-name="four" horiz-adv-x="568" d="M287 0V125H21V264L184 688H401L227 282H295L356 414H490V282H552V125H490V0H287Z" />
<glyph unicode="5" glyph-name="five" horiz-adv-x="547" d="M152 149T221 149Q262 149 278 153T300 170T306 219Q306 253 301 267T279 285T223 290Q136 290 59 282V688H473V529H237V439Q275 445 328 445Q432 445 472 392T513 233Q513 144 492 93T417 17T260 -8Q215
-8 157 -2T53 13V158Q152 149 221 149Z" />
<glyph unicode="6" glyph-name="six" horiz-adv-x="572" d="M225 -8T181 1T107 36T58 114Q36 171 36 345Q36 501 62 568Q88 638 145 667T309 696Q347 696 402 690T507 674V528Q386 539 346 539Q296 539 275 530T246 492T239 398H247Q257 415 284 430T359 445Q421
445 459 429T519 368T540 237Q540 145 520 93T447 17T296 -8Q225 -8 181 1ZM316 146T326 150T341 169T346 218Q346 252 342 266T327 285T291 290Q267 290 257 285T244 266T241 221Q241 184 245 169T259 150T291 146Q316 146 326 150Z" />
<glyph unicode="7" glyph-name="seven" horiz-adv-x="505" d="M64 0L273 529H24V688H486V544L286 0H64Z" />
<glyph unicode="8" glyph-name="eight" horiz-adv-x="585" d="M193 -8T137 12T57 74T33 183Q33 263 60 299T146 349V353Q91 367 66 405T40 517Q40 581 64 620T144 677T293 696Q386 696 441 678T521 620T546 517Q546 443 520 405T440 353V349Q498 335 525 299T552
183Q552 116 529 75T449 13T293 -8Q193 -8 137 12ZM318 414T327 417T340 434T343 480Q343 513 340 526T328 542T293 546Q268 546 259 543T246 526T243 480Q243 447 246 434T258 418T293 414Q318 414 327 417ZM318 141T328 145T343 163T347 210Q347 243 343 257T329
276T293 280Q268 280 258 276T243 258T239 210Q239 177 243 164T257 146T293 141Q318 141 328 145Z" />
<glyph unicode="9" glyph-name="nine" horiz-adv-x="572" d="M224 -8T169 -2T65 14V160Q186 149 227 149Q277 149 298 158T326 196T333 290H326Q315 272 288 258T213 243Q151 243 113 259T53 320T32 451Q32 543 52 595T125 671T276 696Q353 696 399 687T473 650T516
571Q536 496 536 343Q536 175 504 105Q475 44 419 18T263 -8Q224 -8 169 -2ZM306 398T316 403T329 422T332 467Q332 504 328 519T314 538T282 542Q257 542 246 538T231 519T226 470Q226 436 230 422T246 403T282 398Q306 398 316 403Z" />
<glyph unicode=":" glyph-name="colon" horiz-adv-x="312" d="M57 348V510H254V348H57ZM57 0V161H254V0H57Z" />
<glyph unicode=";" glyph-name="semicolon" horiz-adv-x="312" d="M57 348V510H254V348H57ZM88 -89T101 -83T119 -61T124 -15V0H57V161H254V41Q254 -45 241 -86T187 -145T59 -163V-89Q88 -89 101 -83Z" />
<glyph unicode="&lt;" glyph-name="less" horiz-adv-x="507" d="M445 55L64 186V320L445 451V315L236 253L445 192V55Z" />
<glyph unicode="=" glyph-name="equal" horiz-adv-x="506" d="M63 285V422H444V285H63ZM63 84V221H444V84H63Z" />
<glyph unicode="&gt;" glyph-name="greater" horiz-adv-x="507" d="M63 55V192L271 253L63 315V451L444 320V186L63 55Z" />
<glyph unicode="?" glyph-name="question" horiz-adv-x="467" d="M111 313Q111 368 124 391T172 430L190 438Q213 450 219 459T225 494Q225 515 220 524T202 536T163 539Q137 539 96 537T34 530V677Q70 685 122 690T219 696Q282 696 325 685T397 636T426 521Q426
459 414 427T383 382T323 347L309 340Q292 329 286 324T279 307T277 266V242H111V313ZM96 0V161H293V0H96Z" />
<glyph unicode="@" glyph-name="at" horiz-adv-x="835" d="M241 -108T171 -82T80 21T60 294Q60 490 80 567T170 670T419 696Q596 696 666 670T757 567T777 294Q777 187 765 142T729 86T647 75H450L446 125H439Q420 92 396 80T340 68Q285 68 260 101T234 202Q234
255 245 283T283 323T362 335L411 333L445 332V347Q445 374 441 383T421 395T365 398Q329 398 255 394V504Q336 518 416 518Q501 518 541 500T594 444T607 335V144H653Q678 144 686 151T698 187T701 294Q701 437 695 496T664 584T578 622Q556 625 513 626T419 627Q296
627 263 623Q200 615 174 587T142 499T136 294Q136 136 144 76T186 -9T307 -39Q330 -40 420 -40Q553 -40 605 -36V-106Q574 -108 419 -108Q241 -108 171 -82ZM435 183T440 193T445 235V258H416Q395 258 390 251T384 217Q384 197 388 190T414 183Q435 183 440 193Z"
/>
<glyph unicode="A" glyph-name="A" horiz-adv-x="606" d="M403 0L382 110H220L200 0H-2L157 688H450L608 0H403ZM304 515H296L250 262H352L304 515Z" />
<glyph unicode="B" glyph-name="B" horiz-adv-x="576" d="M46 688H358Q542 688 542 515Q542 441 516 404T435 353V349Q473 339 496 323T533 273T546 184Q546 91 500 46T357 0H46V688ZM312 416T322 419T335 434T339 475Q339 505 336 516T322 531T287 535H248V416H287Q312
416 322 419ZM312 153T322 156T335 172T339 216Q339 246 336 258T322 275T287 279H248V153H287Q312 153 322 156Z" />
<glyph unicode="C" glyph-name="C" horiz-adv-x="485" d="M427 2T382 -3T296 -8Q180 -8 126 24T54 127T36 344Q36 489 53 560T126 664T296 696Q337 696 380 691T452 678V532Q365 539 342 539Q290 539 271 528T248 480T243 344Q243 243 247 208T271 161T342 149Q399
149 455 156V9Q427 2 382 -3Z" />
<glyph unicode="D" glyph-name="D" horiz-adv-x="585" d="M46 688H273Q409 688 465 659T535 564T549 344Q549 189 536 124T466 30T273 0H46V688ZM275 157Q311 157 323 166T339 208T342 343Q342 446 339 479T324 522T275 531H251V157H275Z" />
<glyph unicode="E" glyph-name="E" horiz-adv-x="514" d="M46 0V688H474V531H251V425H437V270H251V157H474V0H46Z" />
<glyph unicode="F" glyph-name="F" horiz-adv-x="483" d="M46 0V688H456V531H251V401H427V244H251V0H46Z" />
<glyph unicode="G" glyph-name="G" horiz-adv-x="578" d="M300 268V413H535V13Q488 4 425 -2T310 -8Q195 -8 138 22T58 125T36 344Q36 489 58 562T140 666T316 696Q364 696 425 690T533 673V527Q423 539 379 539Q305 539 280 530T247 484T239 344Q239 251 244
212T265 159T319 145L354 146V268H300Z" />
<glyph unicode="H" glyph-name="H" horiz-adv-x="608" d="M356 0V259H252V0H45V688H252V432H356V688H563V0H356Z" />
<glyph unicode="I" glyph-name="I" horiz-adv-x="298" d="M46 0V688H252V0H46Z" />
<glyph unicode="J" glyph-name="J" horiz-adv-x="381" d="M73 148T95 154T124 181T131 261V688H337V328Q337 157 320 96T243 18T13 0V148Q73 148 95 154Z" />
<glyph unicode="K" glyph-name="K" horiz-adv-x="602" d="M378 0L264 271H252V0H46V688H252V428H264L381 688H599L430 363L601 0H378Z" />
<glyph unicode="L" glyph-name="L" horiz-adv-x="459" d="M46 0V688H252V164H443V0H46Z" />
<glyph unicode="M" glyph-name="M" horiz-adv-x="813" d="M570 0V428H560L481 0H327L248 428H238V0H45V688H338L404 317H412L477 688H767V0H570Z" />
<glyph unicode="N" glyph-name="N" horiz-adv-x="615" d="M383 0L247 316H242V0H45V688H251L366 421H373V688H570V0H383Z" />
<glyph unicode="O" glyph-name="O" horiz-adv-x="602" d="M171 -8T116 23T49 120T36 344Q36 501 48 567T116 665T300 696Q430 696 484 665T552 568T565 344Q565 187 552 121T485 23T300 -8Q171 -8 116 23ZM332 149T342 158T355 202T358 344Q358 451 356 485T343
529T300 539Q269 539 259 530T246 486T243 344Q243 237 245 203T258 159T300 149Q332 149 342 158Z" />
<glyph unicode="P" glyph-name="P" horiz-adv-x="559" d="M46 688H346Q429 688 470 663T526 587T541 448Q541 364 528 314T473 236T346 208H252V0H46V688ZM279 362Q306 362 316 366T330 388T334 448Q334 491 331 508T317 529T279 533H252V362H279Z" />
<glyph unicode="Q" glyph-name="Q" horiz-adv-x="602" d="M335 -7L300 -8Q171 -8 116 23T49 120T36 344Q36 501 48 567T116 665T300 696Q430 696 484 665T552 568T565 344Q565 215 554 149T509 48L612 -107V-115H401L335 -7ZM331 149T341 158T355 203T358 344Q358
449 355 484T342 529T300 539Q269 539 259 530T246 486T243 344Q243 237 245 203T258 159T300 149Q331 149 341 158Z" />
<glyph unicode="R" glyph-name="R" horiz-adv-x="583" d="M353 0L291 228H252V0H46V688H353Q436 688 478 664T534 591T549 458Q549 379 536 332T480 258L565 0H353ZM314 376T324 380T339 399T343 454Q343 494 340 509T326 528T286 533H252V376H287Q314 376 324 380Z" />
<glyph unicode="S" glyph-name="S" horiz-adv-x="529" d="M218 -8T154 -3T44 10V158Q159 149 209 149Q247 149 263 151T286 159Q292 165 294 174T296 201Q296 226 291 237T272 253T219 263L118 278Q68 286 48 337T28 484Q28 571 58 617T141 680T270 696Q326 696
382 690T471 676V530Q394 539 310 539Q283 539 269 538T248 531Q240 525 237 516T234 490Q234 469 237 460T249 446T282 437L371 424Q411 417 438 402T483 349Q502 306 502 223Q502 123 473 73T396 7T272 -8Q218 -8 154 -3Z" />
<glyph unicode="T" glyph-name="T" horiz-adv-x="515" d="M154 0V524H10V688H505V524H360V0H154Z" />
<glyph unicode="U" glyph-name="U" horiz-adv-x="590" d="M546 688V313Q546 171 534 111T469 21T295 -8Q173 -8 121 21T57 110T44 313V688H251V270Q251 206 253 185T263 157T295 151Q319 151 327 157T338 185T340 270V688H546Z" />
<glyph unicode="V" glyph-name="V" horiz-adv-x="581" d="M149 0L1 688H211L287 214H298L374 688H580L432 0H149Z" />
<glyph unicode="W" glyph-name="W" horiz-adv-x="882" d="M503 0L446 385H436L380 0H111L5 688H211L257 221H267L333 688H555L622 221H632L672 688H877L771 0H503Z" />
<glyph unicode="X" glyph-name="X" horiz-adv-x="611" d="M379 0L307 198H297L224 0H6L169 346L9 688H235L304 496H313L385 688H603L442 350L605 0H379Z" />
<glyph unicode="Y" glyph-name="Y" horiz-adv-x="575" d="M184 0V225L-3 688H207L287 421H295L373 688H578L391 225V0H184Z" />
<glyph unicode="Z" glyph-name="Z" horiz-adv-x="536" d="M34 0V150L259 531H43V688H502V541L274 157H501V0H34Z" />
<glyph unicode="[" glyph-name="bracketleft" horiz-adv-x="368" d="M51 -150V743H327V633L222 629V-36L327 -40V-150H51Z" />
<glyph unicode="\" glyph-name="backslash" horiz-adv-x="396" d="M240 -55L-2 743H156L398 -55H240Z" />
<glyph unicode="]" glyph-name="bracketright" horiz-adv-x="368" d="M41 -150V-40L147 -36V629L41 633V743H317V-150H41Z" />
<glyph unicode="^" glyph-name="asciicircum" horiz-adv-x="401" d="M265 459L200 626L136 459H-2L133 749H268L403 459H265Z" />
<glyph unicode="_" glyph-name="underscore" horiz-adv-x="393" d="M0 -193V-57H393V-193H0Z" />
<glyph unicode="`" glyph-name="grave" horiz-adv-x="274" d="M122 595L13 738V743H191L260 600V595H122Z" />
<glyph unicode="a" glyph-name="a" horiz-adv-x="501" d="M84 -8T54 30T24 149Q24 209 36 242T81 289T174 304Q214 304 272 300V319Q272 349 267 360T244 375T179 378Q123 378 49 372V502Q147 518 237 518Q337 518 385 496T447 430T462 305V0H277L273 56H264Q242
19 215 6T149 -8Q84 -8 54 30ZM250 126T257 130T269 143Q272 152 272 187V214H238Q213 214 207 206T200 166Q200 142 206 134T236 126Q250 126 257 130Z" />
<glyph unicode="b" glyph-name="b" horiz-adv-x="519" d="M267 -8T237 57H227L223 0H39V743H229V459H239Q257 491 285 504T352 517Q404 517 434 494T477 413T491 254Q491 150 477 94T434 15T353 -8Q267 -8 237 57ZM285 145T291 150T300 175T302 255Q302 314 300
334T292 360T265 365Q249 365 243 362T233 345Q229 322 229 255Q229 225 229 202T233 167Q235 153 242 149T265 145Q285 145 291 150Z" />
<glyph unicode="c" glyph-name="c" horiz-adv-x="406" d="M303 -8T234 -8Q141 -8 97 22T40 105T27 254Q27 351 39 404T96 488T234 518Q312 518 376 502V373Q321 378 289 378Q255 378 242 370T224 338T219 255Q219 195 223 171T241 140T289 132Q323 132 379 138V9Q303
-8 234 -8Z" />
<glyph unicode="d" glyph-name="d" horiz-adv-x="519" d="M114 -8T85 14T41 93T27 254Q27 356 41 413T85 493T167 517Q206 517 233 504T279 459H289V743H479V0H295L291 57H281Q252 -8 165 -8Q114 -8 85 14ZM271 145T277 149T286 171Q289 193 289 255Q289 317 287
334Q285 354 278 359T253 365Q233 365 227 360T219 336T217 255Q217 194 218 175T226 150T253 145Q271 145 277 149Z" />
<glyph unicode="e" glyph-name="e" horiz-adv-x="494" d="M464 214H214Q214 171 219 156T243 136T312 132Q352 132 448 138V10Q420 2 369 -3T267 -8Q155 -8 104 18T40 96T27 254Q27 360 40 412T100 491T250 518Q355 518 399 494T454 420T464 254V214ZM233 388T226
384T217 362T214 303H288Q288 346 286 362T276 383T250 388Q233 388 226 384Z" />
<glyph unicode="f" glyph-name="f" horiz-adv-x="397" d="M86 370H15V510H86V521Q86 631 106 675T181 730T375 742V616Q325 616 307 613T284 597T278 550V510H375V370H278V0H86V370Z" />
<glyph unicode="g" glyph-name="g" horiz-adv-x="519" d="M193 -206T145 -203T68 -193V-66H188Q242 -66 261 -62T284 -42T289 18V67H279Q261 34 234 21T167 8Q115 8 85 31T41 109T27 264Q27 365 41 420T84 496T165 518Q252 518 281 453H291L295 510H479V55Q479
-46 466 -97T401 -177T238 -206Q193 -206 145 -203ZM271 160T277 164T286 185Q289 201 289 263Q289 321 287 336Q285 355 278 360T253 365Q233 365 227 361T219 338T217 263Q217 207 218 189T226 165T253 160Q271 160 277 164Z" />
<glyph unicode="h" glyph-name="h" horiz-adv-x="522" d="M293 271Q293 321 292 338T285 359T262 364Q244 364 238 359T231 336T229 263V0H39V743H229V453H239Q273 518 357 518Q412 518 439 498T474 438T483 328V0H293V271Z" />
<glyph unicode="i" glyph-name="i" horiz-adv-x="272" d="M39 598V743H232V598H39ZM39 0V510H232V0H39Z" />
<glyph unicode="j" glyph-name="j" horiz-adv-x="272" d="M39 598V743H232V598H39ZM-24 -71Q6 -71 19 -66T35 -51T39 -20V510H232V36Q232 -74 213 -122T143 -184T-24 -199V-71Z" />
<glyph unicode="k" glyph-name="k" horiz-adv-x="527" d="M322 0L240 182H229V0H39V743H229V322H240L329 510H525L398 269L527 0H322Z" />
<glyph unicode="l" glyph-name="l" horiz-adv-x="272" d="M39 0V743H232V0H39Z" />
<glyph unicode="m" glyph-name="m" horiz-adv-x="769" d="M541 271Q541 319 539 337T532 359T511 364Q494 364 489 359T482 336T480 263V0H290V271Q290 320 289 337T282 359T260 364Q243 364 238 359T231 336T229 263V0H39V510H223L227 453H237Q272 518 357 518Q407
518 434 503T472 453H482Q519 518 603 518Q656 518 683 498T721 438T731 331V0H541V271Z" />
<glyph unicode="n" glyph-name="n" horiz-adv-x="522" d="M293 271Q293 321 292 338T285 359T262 364Q244 364 238 359T231 336T229 263V0H39V510H223L227 453H237Q271 518 356 518Q411 518 438 498T474 438T483 328V0H293V271Z" />
<glyph unicode="o" glyph-name="o" horiz-adv-x="507" d="M146 -8T100 14T40 87T27 255Q27 371 40 422T99 496T253 518Q360 518 406 496T466 423T479 255Q479 139 466 88T407 14T253 -8Q146 -8 100 14ZM273 132T279 138T288 167T290 255Q290 320 288 342T280 371T253
378Q234 378 227 372T219 343T217 255Q217 189 218 167T227 139T253 132Q273 132 279 138Z" />
<glyph unicode="p" glyph-name="p" horiz-adv-x="519" d="M39 510H223L227 453H237Q267 518 353 518Q404 518 433 496T477 417T491 256Q491 154 478 97T434 17T352 -7Q313 -7 285 6T239 51H229V-199H39V510ZM285 145T291 150T300 175T302 255Q302 314 300 334T292
360T265 365Q249 365 242 361T232 341Q229 325 229 255Q229 183 232 172Q235 154 242 150T265 145Q285 145 291 150Z" />
<glyph unicode="q" glyph-name="q" horiz-adv-x="519" d="M289 51H279Q261 19 234 6T167 -7Q115 -7 85 16T41 97T27 256Q27 360 41 416T84 495T165 518Q252 518 281 453H291L295 510H479V-199H289V51ZM268 145T275 148T285 165Q288 173 288 197T289 255Q289 286
289 310T285 345Q282 358 276 361T253 365Q233 365 227 360T219 336T217 255Q217 194 218 175T226 150T253 145Q268 145 275 148Z" />
<glyph unicode="r" glyph-name="r" horiz-adv-x="386" d="M39 510H223L227 427H237Q256 478 286 498T370 518V343Q317 343 288 332T244 290T229 196V0H39V510Z" />
<glyph unicode="s" glyph-name="s" horiz-adv-x="439" d="M183 -8T129 -4T35 7V134Q119 128 157 128Q201 128 216 129T236 136T241 156Q241 168 239 172T229 179T198 185L98 200Q53 206 37 244T21 361Q21 425 46 459T114 505T221 518Q267 518 315 514T392 503V375Q310
382 275 382Q238 382 223 381T204 375T200 358Q200 346 201 342T210 335T236 330L319 318Q351 313 372 301T405 257T418 164Q418 91 394 54T330 4T228 -8Q183 -8 129 -4Z" />
<glyph unicode="t" glyph-name="t" horiz-adv-x="382" d="M86 0V370H15V510H86V658H278V510H368V370H278V0H86Z" />
<glyph unicode="u" glyph-name="u" horiz-adv-x="522" d="M295 57H286Q252 -8 166 -8Q111 -8 84 12T48 72T39 182V510H229V239Q229 189 230 172T237 151T260 146Q278 146 284 151T291 174T293 247V510H483V0H299L295 57Z" />
<glyph unicode="v" glyph-name="v" horiz-adv-x="499" d="M118 0L4 510H194L247 172H257L307 510H495L380 0H118Z" />
<glyph unicode="w" glyph-name="w" horiz-adv-x="766" d="M429 0L389 218H378L338 0H101L8 510H192L227 189H237L297 510H473L535 189H546L578 510H758L664 0H429Z" />
<glyph unicode="x" glyph-name="x" horiz-adv-x="515" d="M312 0L256 140H247L193 0H1L133 258L6 510H208L260 381H268L317 510H509L381 260L514 0H312Z" />
<glyph unicode="y" glyph-name="y" horiz-adv-x="522" d="M199 -206T152 -203T76 -193V-66H197Q249 -66 266 -62T288 -43T293 19V72H283Q263 35 232 21T166 7Q111 7 84 27T48 87T39 197V510H229V255Q229 204 230 187T237 166T260 161Q278 161 284 166T291 189T293
262V510H483V55Q483 -46 470 -97T406 -177T244 -206Q199 -206 152 -203Z" />
<glyph unicode="z" glyph-name="z" horiz-adv-x="473" d="M32 0V132L209 370H41V510H440V378L263 140H441V0H32Z" />
<glyph unicode="{" glyph-name="braceleft" horiz-adv-x="366" d="M169 -124T133 -70T96 43V157Q96 201 80 225T21 259V334Q64 343 80 367T96 436V550Q96 608 132 662T226 743H343Q266 661 266 562V445Q266 386 236 349T144 300V293Q206 282 236 245T266 148V31Q266
-68 343 -150H226Q169 -124 133 -70Z" />
<glyph unicode="|" glyph-name="bar" horiz-adv-x="278" d="M57 -161V743H221V-161H57Z" />
<glyph unicode="}" glyph-name="braceright" horiz-adv-x="366" d="M99 -70T99 31V148Q99 207 129 244T222 293V300Q159 311 129 348T99 445V562Q99 663 22 743H140Q196 717 233 663T270 550V436Q270 392 286 368T345 334V259Q302 250 286 226T270 157V43Q270
-15 233 -69T140 -150H22Q99 -70 99 31Z" />
<glyph unicode="~" glyph-name="asciitilde" horiz-adv-x="482" d="M436 327T432 299T406 253T338 235Q306 235 270 241T223 250Q178 259 162 259Q147 259 144 252T141 224H46Q46 282 50 310T76 356T144 374Q177 374 213 368T258 359Q265 358 287 354T320 349Q335
349 338 356T341 385H436Q436 327 432 299Z" />
<glyph unicode="&#xa0;" glyph-name="uni00A0" horiz-adv-x="222" />
<glyph unicode="&#xa1;" glyph-name="exclamdown" horiz-adv-x="322" d="M62 349V510H259V349H62ZM50 -153Q50 -129 62 -8T94 268H226Q271 -105 271 -153V-178H50V-153Z" />
<glyph unicode="&#xa2;" glyph-name="cent" horiz-adv-x="412" d="M164 74Q111 86 84 119T47 204T37 341Q37 426 46 479T83 564T164 609V696H303V613Q335 610 374 600V466Q312 471 291 471Q260 471 248 463T231 429T226 342Q226 280 230 255T247 221T291 213Q320
213 378 219V86Q344 76 303 71V-8H164V74Z" />
<glyph unicode="&#xa3;" glyph-name="sterling" horiz-adv-x="529" d="M495 157V0H33V157H99V279H33V428H100V436Q100 533 119 588T190 669T341 696Q378 696 419 691T487 679V531Q421 539 389 539Q363 539 349 537T327 528Q315 518 311 498T306 436V428H426V279H306V157H495Z"
/>
<glyph unicode="&#xa4;" glyph-name="currency" horiz-adv-x="619" d="M29 101L97 170Q89 199 86 239T83 345Q83 409 86 449T97 518L27 587L126 686L205 606Q244 613 309 613Q370 613 415 605L495 685L591 588L521 518Q529 489 532 449T535 345Q535 281 533 241T522
172L591 102L493 4L414 83Q375 76 309 76Q253 76 204 83L126 4L29 101ZM329 216T335 222T344 253T346 345Q346 412 344 436T336 466T309 473Q290 473 283 467T275 437T273 345Q273 276 274 253T283 223T309 216Q329 216 335 222Z" />
<glyph unicode="&#xa5;" glyph-name="yen" horiz-adv-x="578" d="M185 0V195H39V285H171L145 347H39V438H110L18 688H220L288 425H296L362 688H560L466 438H537V347H432L406 285H537V195H392V0H185Z" />
<glyph unicode="&#xa6;" glyph-name="brokenbar" horiz-adv-x="278" d="M57 390V743H221V390H57ZM57 -161V192H221V-161H57Z" />
<glyph unicode="&#xa7;" glyph-name="section" horiz-adv-x="599" d="M229 -170T180 -165T104 -152V-11Q178 -17 272 -17Q297 -17 303 -13T310 8Q310 18 308 22T297 31T272 41L167 79Q115 96 88 112T43 164T26 262Q26 318 34 351T62 404T116 433Q101 468 101 522Q101
623 156 659T314 696Q371 696 421 690T495 677V536Q413 543 325 543Q302 543 295 539T288 518Q288 507 290 503T303 494T331 483L436 446Q485 429 511 413T554 362T571 263Q571 207 563 174T535 121T481 92Q498 56 498 4Q498 -97 443 -133T284 -170Q229 -170 180
-165ZM387 184T389 195T391 238Q391 261 385 272T364 290L245 333Q223 342 218 342Q212 342 210 331T208 287Q208 263 215 252T242 234L358 191Q378 184 380 184Q387 184 389 195Z" />
<glyph unicode="&#xa8;" glyph-name="dieresis" horiz-adv-x="371" d="M11 611V730H161V611H11ZM210 611V730H361V611H210Z" />
<glyph unicode="&#xa9;" glyph-name="copyright" horiz-adv-x="676" d="M202 -8T148 15T79 105T63 344Q63 515 78 582T148 673T338 696Q474 696 528 673T597 583T613 344Q613 173 598 106T528 15T338 -8Q202 -8 148 15ZM450 56T487 69T534 135T544 344Q544 501
535 553T488 618T338 632Q226 632 189 619T142 553T132 344Q132 187 141 135T188 70T338 56Q450 56 487 69ZM295 156T267 173T229 229T219 344Q219 420 228 458T266 514T356 532Q409 532 439 523V445Q385 448 381 448Q354 448 344 442T332 417T329 344Q329 290
331 271T344 246T381 240Q402 240 441 243V164Q404 156 356 156Q295 156 267 173Z" />
<glyph unicode="&#xaa;" glyph-name="ordfeminine" horiz-adv-x="380" d="M70 309T48 338T26 425Q26 469 35 493T68 527T136 538Q174 538 207 535V550Q207 572 203 580T186 590T139 593Q113 593 45 589V683Q113 696 182 696Q254 696 289 680T334 632T345 539V315H210L207
359H200Q186 330 166 320T117 309Q70 309 48 338ZM190 408T195 410T204 419Q207 424 207 452V472H182Q164 472 159 466T154 438Q154 420 158 414T180 408Q190 408 195 410Z" />
<glyph unicode="&#xab;" glyph-name="guillemotleft" horiz-adv-x="480" d="M128 111L18 310L128 510H249L168 310L249 111H128ZM320 111L211 310L320 510H441L360 310L441 111H320Z" />
<glyph unicode="&#xac;" glyph-name="logicalnot" horiz-adv-x="507" d="M305 59V180H63V318H443V59H305Z" />
<glyph unicode="&#xad;" glyph-name="uni00AD" horiz-adv-x="341" d="M44 210V358H297V210H44Z" />
<glyph unicode="&#xae;" glyph-name="registered" horiz-adv-x="676" d="M474 696T528 673T597 583T613 344Q613 173 598 106T528 15T338 -8Q202 -8 148 15T79 105T63 344Q63 515 78 582T148 673T338 696Q474 696 528 673ZM450 56T487 69T534 135T544 344Q544
501 535 553T488 618T338 632Q226 632 189 619T142 553T132 344Q132 187 141 135T188 70T338 56Q450 56 487 69ZM473 363T466 338T437 298L482 160H372L339 282H311V160H206V528H366Q411 528 434 515T465 477T473 405Q473 363 466 338ZM311 362H337Q352 362 357
364T365 374T367 403Q367 424 366 432T358 442T337 445H311V362Z" />
<glyph unicode="&#xaf;" glyph-name="overscore" horiz-adv-x="343" d="M44 594V743H301V594H44Z" />
<glyph unicode="&#xb0;" glyph-name="degree" horiz-adv-x="363" d="M115 397T85 409T47 451T38 546Q38 611 46 640T85 683T183 696Q250 696 279 683T317 641T326 546Q326 481 318 452T280 410T183 397Q115 397 85 409ZM200 476T206 481T214 498T216 546Q216 581
215 594T207 612T183 617Q165 617 158 612T149 594T147 546Q147 513 149 500T158 481T183 476Q200 476 206 481Z" />
<glyph unicode="&#xb1;" glyph-name="plusminus" horiz-adv-x="506" d="M184 195V316H63V453H184V576H322V453H444V316H322V195H184ZM63 14V151H444V14H63Z" />
<glyph unicode="&#xb2;" glyph-name="uni00B2" horiz-adv-x="337" d="M158 412H300V313H38V370Q38 421 40 446T52 487T83 514Q106 525 154 545Q169 553 172 558T176 577Q176 592 170 595T142 599Q111 599 44 592V684Q68 689 103 692T169 696Q211 696 238 689T283
657T300 583Q300 531 285 507T241 470Q195 451 178 445Q165 439 162 434T158 413V412Z" />
<glyph unicode="&#xb3;" glyph-name="uni00B3" horiz-adv-x="335" d="M106 305T38 317V409Q104 403 139 403Q162 403 167 407T173 430Q173 451 169 455T148 460H87V545H148Q163 545 166 549T170 573Q170 587 168 591T160 597T134 599Q100 599 39 592V684Q63 689
96 692T155 696Q231 696 263 673T295 594Q295 558 283 537T244 506V502Q271 493 284 473T298 414Q298 356 267 331T155 305Q106 305 38 317Z" />
<glyph unicode="&#xb4;" glyph-name="acute" horiz-adv-x="274" d="M13 595V600L83 743H260V738L151 595H13Z" />
<glyph unicode="&#xb5;" glyph-name="uni00B5" horiz-adv-x="523" d="M483 510V0H300L296 57H286Q274 37 261 25T229 6V-189H39V510H229V239Q229 190 231 173T238 151T261 146Q279 146 284 151T291 174T293 247V510H483Z" />
<glyph unicode="&#xb6;" glyph-name="paragraph" horiz-adv-x="592" d="M225 222Q131 222 93 238T43 298T32 454Q32 565 43 610T92 671T225 688H349V-144H225V222ZM409 -144V688H535V-144H409Z" />
<glyph unicode="&#xb7;" glyph-name="middot" horiz-adv-x="312" d="M57 218V380H254V218H57Z" />
<glyph unicode="&#xb8;" glyph-name="cedilla" horiz-adv-x="222" d="M12 -189V-184L88 8H209V3L176 -189H12Z" />
<glyph unicode="&#xb9;" glyph-name="uni00B9" horiz-adv-x="251" d="M90 313V562L32 539V640L128 688H214V313H90Z" />
<glyph unicode="&#xba;" glyph-name="ordmasculine" horiz-adv-x="396" d="M125 310T92 324T46 378T34 503Q34 589 46 628T91 681T198 696Q271 696 304 682T350 628T363 503Q363 418 351 379T305 325T198 310Q125 310 92 324ZM212 413T217 417T223 439T225 503Q225
550 224 567T217 588T198 593Q184 593 179 589T173 567T171 503Q171 456 172 439T179 418T198 413Q212 413 217 417Z" />
<glyph unicode="&#xbb;" glyph-name="guillemotright" horiz-adv-x="480" d="M38 111L120 310L38 510H160L269 310L160 111H38ZM230 111L312 310L230 510H352L461 310L352 111H230Z" />
<glyph unicode="&#xbc;" glyph-name="onequarter" horiz-adv-x="724" d="M89 313V562L32 539V640L128 688H213V313H89ZM83 0L484 688H596L195 0H83ZM531 0V63H387V146L478 375H610L509 162H542L580 233H653V162H687V63H653V0H531Z" />
<glyph unicode="&#xbd;" glyph-name="onehalf" horiz-adv-x="752" d="M89 313V562L32 539V640L128 688H213V313H89ZM484 688H596L195 0H83L484 688ZM582 128T578 121T573 99H715V0H453V57Q453 108 455 133T467 174T498 201L530 215Q555 225 569 232Q583 239 587
244T591 264Q591 279 585 282T557 285Q526 285 459 278V371Q483 376 518 379T584 383Q626 383 653 375T698 343T715 269Q715 217 701 193T656 157Q612 139 597 134Q582 128 578 121Z" />
<glyph unicode="&#xbe;" glyph-name="threequarters" horiz-adv-x="777" d="M104 403T139 403Q162 403 167 407T173 430Q173 451 169 455T148 460H87V545H148Q163 545 166 549T170 573Q170 587 168 591T160 597T134 599Q100 599 39 592V684Q63 689 96 692T155
696Q231 696 263 673T295 594Q295 558 283 537T244 506V502Q271 493 284 473T298 414Q298 356 267 331T155 305Q106 305 38 317V409Q104 403 139 403ZM136 0L538 688H649L248 0H136ZM584 0V63H440V146L531 375H662L561 162H595L633 233H706V162H740V63H706V0H584Z"
/>
<glyph unicode="&#xbf;" glyph-name="questiondown" horiz-adv-x="425" d="M175 349V510H372V349H175ZM178 -186T134 -172T66 -120T42 -11Q42 42 49 73T74 122T126 157L166 175Q180 183 184 188T189 203T191 244V268H357V197Q357 142 344 119T296 80L279 72Q255
60 249 50T243 16Q243 -5 248 -14T266 -26T305 -29Q360 -29 434 -20V-167Q399 -175 347 -180T248 -186Q178 -186 134 -172Z" />
<glyph unicode="&#xc0;" glyph-name="Agrave" horiz-adv-x="606" d="M403 0L382 110H220L200 0H-2L157 688H450L608 0H403ZM304 515H296L250 262H352L304 515ZM242 750L133 893V898H311L380 755V750H242Z" />
<glyph unicode="&#xc1;" glyph-name="Aacute" horiz-adv-x="606" d="M403 0L382 110H220L200 0H-2L157 688H450L608 0H403ZM304 515H296L250 262H352L304 515ZM209 750V755L279 898H456V893L347 750H209Z" />
<glyph unicode="&#xc2;" glyph-name="Acircumflex" horiz-adv-x="606" d="M403 0L382 110H220L200 0H-2L157 688H450L608 0H403ZM304 515H296L250 262H352L304 515ZM134 750V759L216 890H388L471 759V750H349L302 817L256 750H134Z" />
<glyph unicode="&#xc3;" glyph-name="Atilde" horiz-adv-x="606" d="M403 0L382 110H220L200 0H-2L157 688H450L608 0H403ZM304 515H296L250 262H352L304 515ZM488 853T484 825T459 779T394 762Q355 762 291 777L267 781Q244 786 233 786Q220 786 217 779T214
750H119Q119 807 123 836T148 882T213 899Q253 899 317 884Q360 875 374 875Q387 875 390 882T393 911H488Q488 853 484 825Z" />
<glyph unicode="&#xc4;" glyph-name="Adieresis" horiz-adv-x="606" d="M403 0L382 110H220L200 0H-2L157 688H450L608 0H403ZM304 515H296L250 262H352L304 515ZM128 777V896H278V777H128ZM327 777V896H478V777H327Z" />
<glyph unicode="&#xc5;" glyph-name="Aring" horiz-adv-x="606" d="M608 0H403L382 110H220L200 0H-2L157 687Q147 702 144 723T140 779Q140 833 150 860T195 899T303 912Q377 912 411 900T455 860T466 779Q466 746 463 725T450 688L608 0ZM329 731T339 735T352
748T355 779Q355 802 353 811T340 824T303 828Q278 828 268 824T256 811T253 779Q253 757 255 748T268 735T303 731Q329 731 339 735ZM250 262H352L304 515H296L250 262Z" />
<glyph unicode="&#xc6;" glyph-name="AE" horiz-adv-x="837" d="M388 0L378 112H212L180 0H-22L223 688H796V531H525L535 425H760V270H551L562 157H796V0H388ZM344 529H336L258 264H366L344 529Z" />
<glyph unicode="&#xc7;" glyph-name="Ccedilla" horiz-adv-x="485" d="M455 9Q429 2 387 -2T303 -8L272 -189H108V-184L182 2Q119 17 88 55T46 160T36 344Q36 489 53 560T126 664T296 696Q337 696 380 691T452 678V532Q365 539 342 539Q290 539 271 528T248 480T243
344Q243 243 247 208T271 161T342 149Q399 149 455 156V9Z" />
<glyph unicode="&#xc8;" glyph-name="Egrave" horiz-adv-x="514" d="M46 0V688H474V531H251V425H437V270H251V157H474V0H46ZM214 750L105 893V898H283L352 755V750H214Z" />
<glyph unicode="&#xc9;" glyph-name="Eacute" horiz-adv-x="514" d="M46 0V688H474V531H251V425H437V270H251V157H474V0H46ZM185 750V755L255 898H432V893L323 750H185Z" />
<glyph unicode="&#xca;" glyph-name="Ecircumflex" horiz-adv-x="514" d="M46 0V688H474V531H251V425H437V270H251V157H474V0H46ZM90 750V759L172 890H344L427 759V750H305L258 817L212 750H90Z" />
<glyph unicode="&#xcb;" glyph-name="Edieresis" horiz-adv-x="514" d="M46 0V688H474V531H251V425H437V270H251V157H474V0H46ZM85 760V879H235V760H85ZM284 760V879H435V760H284Z" />
<glyph unicode="&#xcc;" glyph-name="Igrave" horiz-adv-x="298" d="M46 0V688H252V0H46ZM113 750L4 893V898H182L251 755V750H113Z" />
<glyph unicode="&#xcd;" glyph-name="Iacute" horiz-adv-x="298" d="M46 0V688H252V0H46ZM48 749V754L118 897H295V892L186 749H48Z" />
<glyph unicode="&#xce;" glyph-name="Icircumflex" horiz-adv-x="298" d="M46 0V688H252V0H46ZM-20 749V758L62 889H234L317 758V749H195L148 816L102 749H-20Z" />
<glyph unicode="&#xcf;" glyph-name="Idieresis" horiz-adv-x="298" d="M46 0V688H252V0H46ZM-26 777V896H124V777H-26ZM173 777V896H324V777H173Z" />
<glyph unicode="&#xd0;" glyph-name="Eth" horiz-adv-x="585" d="M46 279H-6V417H46V688H273Q409 688 465 659T535 564T549 344Q549 189 536 124T466 30T273 0H46V279ZM311 157T323 166T339 208T342 343Q342 446 339 479T324 522T275 531H251V417H304V279H251V157H275Q311
157 323 166Z" />
<glyph unicode="&#xd1;" glyph-name="Ntilde" horiz-adv-x="615" d="M383 0L247 316H242V0H45V688H251L366 421H373V688H570V0H383ZM492 854T488 826T463 780T398 763Q359 763 295 778L271 782Q248 787 237 787Q224 787 221 780T218 751H123Q123 808 127 837T152
883T217 900Q257 900 321 885Q364 876 378 876Q391 876 394 883T397 912H492Q492 854 488 826Z" />
<glyph unicode="&#xd2;" glyph-name="Ograve" horiz-adv-x="602" d="M171 -8T116 23T49 120T36 344Q36 501 48 567T116 665T300 696Q430 696 484 665T552 568T565 344Q565 187 552 121T485 23T300 -8Q171 -8 116 23ZM332 149T342 158T355 202T358 344Q358 451
356 485T343 529T300 539Q269 539 259 530T246 486T243 344Q243 237 245 203T258 159T300 149Q332 149 342 158ZM241 750L132 893V898H310L379 755V750H241Z" />
<glyph unicode="&#xd3;" glyph-name="Oacute" horiz-adv-x="602" d="M171 -8T116 23T49 120T36 344Q36 501 48 567T116 665T300 696Q430 696 484 665T552 568T565 344Q565 187 552 121T485 23T300 -8Q171 -8 116 23ZM332 149T342 158T355 202T358 344Q358 451
356 485T343 529T300 539Q269 539 259 530T246 486T243 344Q243 237 245 203T258 159T300 149Q332 149 342 158ZM223 750V755L293 898H470V893L361 750H223Z" />
<glyph unicode="&#xd4;" glyph-name="Ocircumflex" horiz-adv-x="602" d="M171 -8T116 23T49 120T36 344Q36 501 48 567T116 665T300 696Q430 696 484 665T552 568T565 344Q565 187 552 121T485 23T300 -8Q171 -8 116 23ZM332 149T342 158T355 202T358 344Q358
451 356 485T343 529T300 539Q269 539 259 530T246 486T243 344Q243 237 245 203T258 159T300 149Q332 149 342 158ZM132 750V759L214 890H386L469 759V750H347L300 817L254 750H132Z" />
<glyph unicode="&#xd5;" glyph-name="Otilde" horiz-adv-x="602" d="M171 -8T116 23T49 120T36 344Q36 501 48 567T116 665T300 696Q430 696 484 665T552 568T565 344Q565 187 552 121T485 23T300 -8Q171 -8 116 23ZM332 149T342 158T355 202T358 344Q358 451
356 485T343 529T300 539Q269 539 259 530T246 486T243 344Q243 237 245 203T258 159T300 149Q332 149 342 158ZM487 853T483 825T458 779T393 762Q354 762 290 777L266 781Q243 786 232 786Q219 786 216 779T213 750H118Q118 807 122 836T147 882T212 899Q252
899 316 884Q359 875 373 875Q386 875 389 882T392 911H487Q487 853 483 825Z" />
<glyph unicode="&#xd6;" glyph-name="Odieresis" horiz-adv-x="602" d="M171 -8T116 23T49 120T36 344Q36 501 48 567T116 665T300 696Q430 696 484 665T552 568T565 344Q565 187 552 121T485 23T300 -8Q171 -8 116 23ZM332 149T342 158T355 202T358 344Q358 451
356 485T343 529T300 539Q269 539 259 530T246 486T243 344Q243 237 245 203T258 159T300 149Q332 149 342 158ZM126 777V896H276V777H126ZM325 777V896H476V777H325Z" />
<glyph unicode="&#xd7;" glyph-name="multiply" horiz-adv-x="500" d="M250 156L161 67L64 165L153 253L63 343L161 441L251 351L341 441L437 344L348 255L437 165L339 67L250 156Z" />
<glyph unicode="&#xd8;" glyph-name="Oslash" horiz-adv-x="602" d="M516 640Q539 615 549 576T562 487T565 344Q565 187 552 121T485 23T300 -8Q250 -8 217 -4L194 -55H36L84 48Q62 73 52 112T39 201T36 344Q36 501 48 567T116 665T300 696Q351 696 383 692L407
743H565L516 640ZM332 149T342 158T355 202T358 344Q358 451 356 485T343 529T300 539Q269 539 259 530T246 486T243 344Q243 237 245 203T258 159T300 149Q332 149 342 158Z" />
<glyph unicode="&#xd9;" glyph-name="Ugrave" horiz-adv-x="590" d="M546 688V313Q546 171 534 111T469 21T295 -8Q173 -8 121 21T57 110T44 313V688H251V270Q251 206 253 185T263 157T295 151Q319 151 327 157T338 185T340 270V688H546ZM232 750L123 893V898H301L370
755V750H232Z" />
<glyph unicode="&#xda;" glyph-name="Uacute" horiz-adv-x="590" d="M546 688V313Q546 171 534 111T469 21T295 -8Q173 -8 121 21T57 110T44 313V688H251V270Q251 206 253 185T263 157T295 151Q319 151 327 157T338 185T340 270V688H546ZM220 750V755L290 898H467V893L358
750H220Z" />
<glyph unicode="&#xdb;" glyph-name="Ucircumflex" horiz-adv-x="590" d="M546 688V313Q546 171 534 111T469 21T295 -8Q173 -8 121 21T57 110T44 313V688H251V270Q251 206 253 185T263 157T295 151Q319 151 327 157T338 185T340 270V688H546ZM126 750V759L208
890H380L463 759V750H341L294 817L248 750H126Z" />
<glyph unicode="&#xdc;" glyph-name="Udieresis" horiz-adv-x="590" d="M546 688V313Q546 171 534 111T469 21T295 -8Q173 -8 121 21T57 110T44 313V688H251V270Q251 206 253 185T263 157T295 151Q319 151 327 157T338 185T340 270V688H546ZM120 777V896H270V777H120ZM319
777V896H470V777H319Z" />
<glyph unicode="&#xdd;" glyph-name="Yacute" horiz-adv-x="575" d="M184 0V225L-3 688H207L287 421H295L373 688H578L391 225V0H184ZM220 750V755L290 898H467V893L358 750H220Z" />
<glyph unicode="&#xde;" glyph-name="Thorn" horiz-adv-x="559" d="M46 688H252V593H346Q429 593 470 568T526 492T541 352Q541 268 528 219T473 141T346 112H252V0H46V688ZM279 267Q306 267 316 271T330 293T334 352Q334 395 331 412T317 433T279 438H252V267H279Z" />
<glyph unicode="&#xdf;" glyph-name="germandbls" horiz-adv-x="535" d="M268 0V140H272Q293 140 301 145T313 173T316 254Q316 308 313 329T301 356T269 362H264V502H269Q289 502 296 505T305 518T307 557Q307 581 304 592T294 606T272 610Q253 610 245 606T233
588T229 541V0H39V553Q39 622 60 665T132 729T269 750Q357 750 407 731T479 676T500 582Q500 517 475 483T395 439V435Q453 423 480 380T507 241Q507 149 490 98T426 24T287 0H268Z" />
<glyph unicode="&#xe0;" glyph-name="agrave" horiz-adv-x="501" d="M84 -8T54 30T24 149Q24 209 36 242T81 289T174 304Q214 304 272 300V319Q272 349 267 360T244 375T179 378Q123 378 49 372V502Q147 518 237 518Q337 518 385 496T447 430T462 305V0H277L273
56H264Q242 19 215 6T149 -8Q84 -8 54 30ZM250 126T257 130T269 143Q272 152 272 187V214H238Q213 214 207 206T200 166Q200 142 206 134T236 126Q250 126 257 130ZM190 595L81 738V743H259L328 600V595H190Z" />
<glyph unicode="&#xe1;" glyph-name="aacute" horiz-adv-x="501" d="M84 -8T54 30T24 149Q24 209 36 242T81 289T174 304Q214 304 272 300V319Q272 349 267 360T244 375T179 378Q123 378 49 372V502Q147 518 237 518Q337 518 385 496T447 430T462 305V0H277L273
56H264Q242 19 215 6T149 -8Q84 -8 54 30ZM250 126T257 130T269 143Q272 152 272 187V214H238Q213 214 207 206T200 166Q200 142 206 134T236 126Q250 126 257 130ZM179 595V600L249 743H426V738L317 595H179Z" />
<glyph unicode="&#xe2;" glyph-name="acircumflex" horiz-adv-x="501" d="M84 -8T54 30T24 149Q24 209 36 242T81 289T174 304Q214 304 272 300V319Q272 349 267 360T244 375T179 378Q123 378 49 372V502Q147 518 237 518Q337 518 385 496T447 430T462 305V0H277L273
56H264Q242 19 215 6T149 -8Q84 -8 54 30ZM250 126T257 130T269 143Q272 152 272 187V214H238Q213 214 207 206T200 166Q200 142 206 134T236 126Q250 126 257 130ZM85 603V612L167 743H339L422 612V603H300L253 670L207 603H85Z" />
<glyph unicode="&#xe3;" glyph-name="atilde" horiz-adv-x="501" d="M84 -8T54 30T24 149Q24 209 36 242T81 289T174 304Q214 304 272 300V319Q272 349 267 360T244 375T179 378Q123 378 49 372V502Q147 518 237 518Q337 518 385 496T447 430T462 305V0H277L273
56H264Q242 19 215 6T149 -8Q84 -8 54 30ZM250 126T257 130T269 143Q272 152 272 187V214H238Q213 214 207 206T200 166Q200 142 206 134T236 126Q250 126 257 130ZM435 685T431 657T406 611T341 594Q302 594 238 609L214 613Q191 618 180 618Q167 618 164 611T161
582H66Q66 639 70 668T95 714T160 731Q200 731 264 716Q307 707 321 707Q334 707 337 714T340 743H435Q435 685 431 657Z" />
<glyph unicode="&#xe4;" glyph-name="adieresis" horiz-adv-x="501" d="M84 -8T54 30T24 149Q24 209 36 242T81 289T174 304Q214 304 272 300V319Q272 349 267 360T244 375T179 378Q123 378 49 372V502Q147 518 237 518Q337 518 385 496T447 430T462 305V0H277L273
56H264Q242 19 215 6T149 -8Q84 -8 54 30ZM250 126T257 130T269 143Q272 152 272 187V214H238Q213 214 207 206T200 166Q200 142 206 134T236 126Q250 126 257 130ZM79 611V730H229V611H79ZM278 611V730H429V611H278Z" />
<glyph unicode="&#xe5;" glyph-name="aring" horiz-adv-x="501" d="M84 -8T54 30T24 149Q24 209 36 242T81 289T174 304Q214 304 272 300V319Q272 349 267 360T244 375T179 378Q123 378 49 372V502Q147 518 237 518Q337 518 385 496T447 430T462 305V0H277L273
56H264Q242 19 215 6T149 -8Q84 -8 54 30ZM250 126T257 130T269 143Q272 152 272 187V214H238Q213 214 207 206T200 166Q200 142 206 134T236 126Q250 126 257 130ZM190 837T160 848T120 883T110 955Q110 1003 119 1027T160 1063T256 1075Q322 1075 353 1064T393
1028T402 955Q402 907 393 884T353 849T256 837Q190 837 160 848ZM279 912T288 915T300 927T302 955Q302 975 300 983T289 995T256 999Q234 999 225 996T213 984T211 955Q211 935 213 927T224 916T256 912Q279 912 288 915Z" />
<glyph unicode="&#xe6;" glyph-name="ae" horiz-adv-x="743" d="M712 214H462Q462 171 467 156T491 136T561 132Q604 132 696 138V10Q667 2 617 -3T515 -8Q398 -8 351 27Q318 7 280 0T192 -8Q123 -8 87 8T37 58T24 149Q24 209 36 242T81 289T174 304Q214 304 272
300V319Q272 349 267 360T244 375T179 378Q123 378 49 372V502Q140 518 224 518Q317 518 370 483Q420 518 512 518Q610 518 651 494T702 420T712 254V214ZM481 388T474 384T465 362T462 303H536Q536 347 534 363T524 384T498 388Q481 388 474 384ZM272 214H238Q213
214 207 206T200 166Q200 141 206 133T236 124Q254 124 261 130T271 149Q272 160 272 186V214Z" />
<glyph unicode="&#xe7;" glyph-name="ccedilla" horiz-adv-x="406" d="M379 9Q323 -4 263 -7L232 -189H68V-184L142 2Q91 16 66 49T34 130T27 254Q27 351 39 404T96 488T234 518Q312 518 376 502V373Q321 378 289 378Q255 378 242 370T224 338T219 255Q219 195
223 171T241 140T289 132Q323 132 379 138V9Z" />
<glyph unicode="&#xe8;" glyph-name="egrave" horiz-adv-x="494" d="M464 214H214Q214 171 219 156T243 136T312 132Q352 132 448 138V10Q420 2 369 -3T267 -8Q155 -8 104 18T40 96T27 254Q27 360 40 412T100 491T250 518Q355 518 399 494T454 420T464 254V214ZM233
388T226 384T217 362T214 303H288Q288 346 286 362T276 383T250 388Q233 388 226 384ZM191 595L82 738V743H260L329 600V595H191Z" />
<glyph unicode="&#xe9;" glyph-name="eacute" horiz-adv-x="494" d="M464 214H214Q214 171 219 156T243 136T312 132Q352 132 448 138V10Q420 2 369 -3T267 -8Q155 -8 104 18T40 96T27 254Q27 360 40 412T100 491T250 518Q355 518 399 494T454 420T464 254V214ZM233
388T226 384T217 362T214 303H288Q288 346 286 362T276 383T250 388Q233 388 226 384ZM183 595V600L253 743H430V738L321 595H183Z" />
<glyph unicode="&#xea;" glyph-name="ecircumflex" horiz-adv-x="494" d="M464 214H214Q214 171 219 156T243 136T312 132Q352 132 448 138V10Q420 2 369 -3T267 -8Q155 -8 104 18T40 96T27 254Q27 360 40 412T100 491T250 518Q355 518 399 494T454 420T464 254V214ZM233
388T226 384T217 362T214 303H288Q288 346 286 362T276 383T250 388Q233 388 226 384ZM88 603V612L170 743H342L425 612V603H303L256 670L210 603H88Z" />
<glyph unicode="&#xeb;" glyph-name="edieresis" horiz-adv-x="494" d="M464 214H214Q214 171 219 156T243 136T312 132Q352 132 448 138V10Q420 2 369 -3T267 -8Q155 -8 104 18T40 96T27 254Q27 360 40 412T100 491T250 518Q355 518 399 494T454 420T464 254V214ZM233
388T226 384T217 362T214 303H288Q288 346 286 362T276 383T250 388Q233 388 226 384ZM81 611V730H231V611H81ZM280 611V730H431V611H280Z" />
<glyph unicode="&#xec;" glyph-name="igrave" horiz-adv-x="272" d="M39 0V510H232V0H39ZM349 595L240 738V743H418L487 600V595H349Z" />
<glyph unicode="&#xed;" glyph-name="iacute" horiz-adv-x="272" d="M39 0V510H232V0H39ZM39 595V600L109 743H286V738L177 595H39Z" />
<glyph unicode="&#xee;" glyph-name="icircumflex" horiz-adv-x="272" d="M39 0V510H232V0H39ZM223 603V612L305 743H477L560 612V603H438L391 670L345 603H223Z" />
<glyph unicode="&#xef;" glyph-name="idieresis" horiz-adv-x="272" d="M39 0V510H232V0H39ZM217 611V730H367V611H217ZM416 611V730H567V611H416Z" />
<glyph unicode="&#xf0;" glyph-name="eth" horiz-adv-x="507" d="M146 -8T100 14T40 88T27 255Q27 356 38 410T82 491T186 518Q211 518 255 511L260 515Q253 542 237 580L122 565V665L180 672Q156 702 119 739V743H318Q339 723 357 697L474 713V613L420 604Q454
535 469 433Q479 356 479 254Q479 140 466 89T407 15T253 -8Q146 -8 100 14ZM273 132T279 138T288 167T290 255Q290 320 288 342T280 371T253 378Q234 378 227 372T219 343T217 255Q217 189 218 167T227 139T253 132Q273 132 279 138Z" />
<glyph unicode="&#xf1;" glyph-name="ntilde" horiz-adv-x="522" d="M293 271Q293 321 292 338T285 359T262 364Q244 364 238 359T231 336T229 263V0H39V510H223L227 453H237Q271 518 356 518Q411 518 438 498T474 438T483 328V0H293V271ZM449 685T445 657T420
611T355 594Q316 594 252 609L228 613Q205 618 194 618Q181 618 178 611T175 582H80Q80 639 84 668T109 714T174 731Q214 731 278 716Q321 707 335 707Q348 707 351 714T354 743H449Q449 685 445 657Z" />
<glyph unicode="&#xf2;" glyph-name="ograve" horiz-adv-x="507" d="M146 -8T100 14T40 87T27 255Q27 371 40 422T99 496T253 518Q360 518 406 496T466 423T479 255Q479 139 466 88T407 14T253 -8Q146 -8 100 14ZM273 132T279 138T288 167T290 255Q290 320 288
342T280 371T253 378Q234 378 227 372T219 343T217 255Q217 189 218 167T227 139T253 132Q273 132 279 138ZM189 595L80 738V743H258L327 600V595H189Z" />
<glyph unicode="&#xf3;" glyph-name="oacute" horiz-adv-x="507" d="M146 -8T100 14T40 87T27 255Q27 371 40 422T99 496T253 518Q360 518 406 496T466 423T479 255Q479 139 466 88T407 14T253 -8Q146 -8 100 14ZM273 132T279 138T288 167T290 255Q290 320 288
342T280 371T253 378Q234 378 227 372T219 343T217 255Q217 189 218 167T227 139T253 132Q273 132 279 138ZM174 595V600L244 743H421V738L312 595H174Z" />
<glyph unicode="&#xf4;" glyph-name="ocircumflex" horiz-adv-x="507" d="M146 -8T100 14T40 87T27 255Q27 371 40 422T99 496T253 518Q360 518 406 496T466 423T479 255Q479 139 466 88T407 14T253 -8Q146 -8 100 14ZM273 132T279 138T288 167T290 255Q290 320
288 342T280 371T253 378Q234 378 227 372T219 343T217 255Q217 189 218 167T227 139T253 132Q273 132 279 138ZM87 603V612L169 743H341L424 612V603H302L255 670L209 603H87Z" />
<glyph unicode="&#xf5;" glyph-name="otilde" horiz-adv-x="507" d="M146 -8T100 14T40 87T27 255Q27 371 40 422T99 496T253 518Q360 518 406 496T466 423T479 255Q479 139 466 88T407 14T253 -8Q146 -8 100 14ZM273 132T279 138T288 167T290 255Q290 320 288
342T280 371T253 378Q234 378 227 372T219 343T217 255Q217 189 218 167T227 139T253 132Q273 132 279 138ZM440 685T436 657T411 611T346 594Q307 594 243 609L219 613Q196 618 185 618Q172 618 169 611T166 582H71Q71 639 75 668T100 714T165 731Q205 731 269
716Q312 707 326 707Q339 707 342 714T345 743H440Q440 685 436 657Z" />
<glyph unicode="&#xf6;" glyph-name="odieresis" horiz-adv-x="507" d="M146 -8T100 14T40 87T27 255Q27 371 40 422T99 496T253 518Q360 518 406 496T466 423T479 255Q479 139 466 88T407 14T253 -8Q146 -8 100 14ZM273 132T279 138T288 167T290 255Q290 320
288 342T280 371T253 378Q234 378 227 372T219 343T217 255Q217 189 218 167T227 139T253 132Q273 132 279 138ZM81 611V730H231V611H81ZM280 611V730H431V611H280Z" />
<glyph unicode="&#xf7;" glyph-name="divide" horiz-adv-x="506" d="M184 376V485H322V376H184ZM63 184V321H444V184H63ZM184 21V130H322V21H184Z" />
<glyph unicode="&#xf8;" glyph-name="oslash" horiz-adv-x="507" d="M70 34Q43 61 35 110T27 255Q27 371 40 422T99 496T253 518Q271 518 299 516L321 565H479L437 475Q463 448 471 399T479 255Q479 139 466 88T407 14T253 -8Q222 -8 208 -7L186 -55H28L70 34ZM273
132T279 138T288 167T290 255Q290 320 288 342T280 371T253 378Q234 378 227 372T219 343T217 255Q217 189 218 167T227 139T253 132Q273 132 279 138Z" />
<glyph unicode="&#xf9;" glyph-name="ugrave" horiz-adv-x="522" d="M295 57H286Q252 -8 166 -8Q111 -8 84 12T48 72T39 182V510H229V239Q229 189 230 172T237 151T260 146Q278 146 284 151T291 174T293 247V510H483V0H299L295 57ZM195 595L86 738V743H264L333
600V595H195Z" />
<glyph unicode="&#xfa;" glyph-name="uacute" horiz-adv-x="522" d="M295 57H286Q252 -8 166 -8Q111 -8 84 12T48 72T39 182V510H229V239Q229 189 230 172T237 151T260 146Q278 146 284 151T291 174T293 247V510H483V0H299L295 57ZM193 595V600L263 743H440V738L331
595H193Z" />
<glyph unicode="&#xfb;" glyph-name="ucircumflex" horiz-adv-x="522" d="M295 57H286Q252 -8 166 -8Q111 -8 84 12T48 72T39 182V510H229V239Q229 189 230 172T237 151T260 146Q278 146 284 151T291 174T293 247V510H483V0H299L295 57ZM92 603V612L174 743H346L429
612V603H307L260 670L214 603H92Z" />
<glyph unicode="&#xfc;" glyph-name="udieresis" horiz-adv-x="522" d="M295 57H286Q252 -8 166 -8Q111 -8 84 12T48 72T39 182V510H229V239Q229 189 230 172T237 151T260 146Q278 146 284 151T291 174T293 247V510H483V0H299L295 57ZM86 611V730H236V611H86ZM285
611V730H436V611H285Z" />
<glyph unicode="&#xfd;" glyph-name="yacute" horiz-adv-x="522" d="M199 -206T152 -203T76 -193V-66H197Q249 -66 266 -62T288 -43T293 19V72H283Q263 35 232 21T166 7Q111 7 84 27T48 87T39 197V510H229V255Q229 204 230 187T237 166T260 161Q278 161 284 166T291
189T293 262V510H483V55Q483 -46 470 -97T406 -177T244 -206Q199 -206 152 -203ZM186 595V600L256 743H433V738L324 595H186Z" />
<glyph unicode="&#xfe;" glyph-name="thorn" horiz-adv-x="519" d="M39 743H229V453H240Q256 489 285 503T353 518Q404 518 433 496T477 417T491 256Q491 154 478 97T434 17T352 -7Q313 -7 285 6T239 51H229V-189H39V743ZM285 145T291 150T300 175T302 255Q302
314 300 334T292 360T265 365Q247 365 241 360T232 334Q229 317 229 255Q229 188 231 176Q234 155 241 150T265 145Q285 145 291 150Z" />
<glyph unicode="&#xff;" glyph-name="ydieresis" horiz-adv-x="522" d="M199 -206T152 -203T76 -193V-66H197Q249 -66 266 -62T288 -43T293 19V72H283Q263 35 232 21T166 7Q111 7 84 27T48 87T39 197V510H229V255Q229 204 230 187T237 166T260 161Q278 161 284
166T291 189T293 262V510H483V55Q483 -46 470 -97T406 -177T244 -206Q199 -206 152 -203ZM87 611V730H237V611H87ZM286 611V730H437V611H286Z" />
<glyph unicode="&#x2013;" glyph-name="endash" horiz-adv-x="468" d="M37 237V372H430V237H37Z" />
<glyph unicode="&#x2014;" glyph-name="emdash" horiz-adv-x="850" d="M37 237V372H812V237H37Z" />
<glyph unicode="&#x2018;" glyph-name="quoteleft" horiz-adv-x="303" d="M59 498Q59 578 71 617T121 672T242 689V619Q214 619 201 613T184 593T179 550V536H244V385H59V498Z" />
<glyph unicode="&#x2019;" glyph-name="quoteright" horiz-adv-x="303" d="M87 455T100 461T118 482T123 524V538H58V689H243V576Q243 496 231 457T181 402T60 385V455Q87 455 100 461Z" />
<glyph unicode="&#x201a;" glyph-name="quotesinglbase" horiz-adv-x="301" d="M87 -83T100 -77T117 -56T122 -14V0H58V151H243V38Q243 -42 231 -80T180 -135T59 -152V-83Q87 -83 100 -77Z" />
<glyph unicode="&#x201c;" glyph-name="quotedblleft" horiz-adv-x="538" d="M59 498Q59 578 71 617T121 672T242 689V619Q214 619 201 613T184 593T179 550V536H244V385H59V498ZM295 498Q295 578 307 617T357 672T478 689V619Q450 619 437 613T420 593T415 550V536H480V385H295V498Z"
/>
<glyph unicode="&#x201d;" glyph-name="quotedblright" horiz-adv-x="538" d="M87 455T100 461T118 482T123 524V538H58V689H243V576Q243 496 231 457T181 402T60 385V455Q87 455 100 461ZM323 455T336 461T354 482T359 524V538H294V689H479V576Q479 496 467 457T417
402T295 385V455Q323 455 336 461Z" />
<glyph unicode="&#x201e;" glyph-name="quotedblbase" horiz-adv-x="537" d="M87 -83T100 -77T117 -56T122 -14V0H58V151H243V38Q243 -42 231 -80T180 -135T59 -152V-83Q87 -83 100 -77ZM323 -83T336 -77T353 -56T358 -14V0H294V151H479V38Q479 -42 467 -80T416
-135T295 -152V-83Q323 -83 336 -77Z" />
<glyph unicode="&#x2022;" glyph-name="bullet" horiz-adv-x="354" d="M295 286T289 264T259 234T175 226Q118 226 95 234T65 264T59 342Q59 400 65 422T94 453T175 462Q235 462 259 454T289 423T295 342Q295 286 289 264Z" />
<glyph unicode="&#x2039;" glyph-name="guilsinglleft" horiz-adv-x="288" d="M128 111L18 310L128 510H249L168 310L249 111H128Z" />
<glyph unicode="&#x203a;" glyph-name="guilsinglright" horiz-adv-x="288" d="M38 111L120 310L38 510H160L269 310L160 111H38Z" />
</font>
</defs>
</svg>
