<?xml version="1.0" standalone="no"?>
<!DOCTYPE svg PUBLIC "-//W3C//DTD SVG 1.1//EN" "http://www.w3.org/Graphics/SVG/1.1/DTD/svg11.dtd">
<svg xmlns="http://www.w3.org/2000/svg">
<defs >
<font id="PressStart2P" horiz-adv-x="1000" ><font-face
    font-family="Press Start 2P"
    units-per-em="1000"
    panose-1="0 0 5 0 0 0 0 0 0 0"
    ascent="1000"
    descent="0"
    alphabetic="0" />
<glyph unicode=" " glyph-name="space" />
<glyph unicode="!" glyph-name="exclam" d="M250 375V1000H625V625H500V375H250ZM250 125V250H500V125H250Z" />
<glyph unicode="&quot;" glyph-name="quotedbl" d="M125 625V1000H375V625H125ZM500 625V1000H750V625H500Z" />
<glyph unicode="#" glyph-name="numbersign" d="M125 125V250H0V375H125V750H0V875H125V1000H375V875H500V1000H750V875H875V750H750V375H875V250H750V125H500V250H375V125H125ZM375 375H500V750H375V375Z" />
<glyph unicode="$" glyph-name="dollar" d="M375 125V250H0V375H375V500H125V625H0V750H125V875H375V1000H500V875H750V750H500V625H750V500H875V375H750V250H500V125H375ZM250 625H375V750H250V625ZM500 375H625V500H500V375Z" />
<glyph unicode="%" glyph-name="percent" d="M250 875H125V1000H375V750H250V875ZM875 1000V875H750V1000H875ZM250 625H0V875H125V750H250V625ZM625 875H750V750H625V875ZM500 750H625V625H500V750ZM375 625H500V500H375V625ZM250 500H375V375H250V500ZM625 500H875V250H750V375H625V500ZM125
375H250V250H125V375ZM625 250H750V125H500V375H625V250ZM0 250H125V125H0V250Z" />
<glyph unicode="&amp;" glyph-name="ampersand" d="M625 375H750V250H875V125H125V250H0V500H125V625H0V875H125V1000H500V875H625V625H500V500H625V375ZM250 625H375V875H250V625ZM500 375H375V500H250V250H500V375ZM875 500V375H750V500H875Z" />
<glyph unicode="&apos;" glyph-name="quotesingle" d="M250 625V1000H500V625H250Z" />
<glyph unicode="(" glyph-name="parenleft" d="M500 125V250H375V375H250V750H375V875H500V1000H750V875H625V750H500V375H625V250H750V125H500Z" />
<glyph unicode=")" glyph-name="parenright" d="M125 125V250H250V375H375V750H250V875H125V1000H375V875H500V750H625V375H500V250H375V125H125Z" />
<glyph unicode="*" glyph-name="asterisk" d="M125 250V375H250V500H0V625H250V750H125V875H375V750H500V875H750V750H625V625H875V500H625V375H750V250H500V375H375V250H125Z" />
<glyph unicode="+" glyph-name="plus" d="M375 250V500H125V625H375V875H625V625H875V500H625V250H375Z" />
<glyph unicode="," glyph-name="comma" d="M125 0V125H250V375H500V125H375V0H125Z" />
<glyph unicode="-" glyph-name="hyphen" d="M125 500V625H875V500H125Z" />
<glyph unicode="." glyph-name="period" d="M250 125V375H500V125H250Z" />
<glyph unicode="/" glyph-name="slash" d="M875 1000V875H750V1000H875ZM625 875H750V750H625V875ZM500 750H625V625H500V750ZM375 625H500V500H375V625ZM250 500H375V375H250V500ZM125 375H250V250H125V375ZM0 250H125V125H0V250Z" />
<glyph unicode="0" glyph-name="zero" d="M250 125V250H125V375H0V750H125V875H250V1000H625V875H750V750H875V375H750V250H625V125H250ZM375 250H625V750H500V875H250V375H375V250Z" />
<glyph unicode="1" glyph-name="one" d="M125 125V250H375V750H250V875H375V1000H625V250H875V125H125Z" />
<glyph unicode="2" glyph-name="two" d="M0 125V375H125V500H250V625H500V750H625V875H250V750H0V875H125V1000H750V875H875V625H750V500H625V375H375V250H875V125H0Z" />
<glyph unicode="3" glyph-name="three" d="M125 125V250H0V375H250V250H625V500H250V625H375V750H500V875H125V1000H875V875H750V750H625V625H750V500H875V250H750V125H125Z" />
<glyph unicode="4" glyph-name="four" d="M500 125V375H0V625H125V750H250V875H375V1000H750V500H875V375H750V125H500ZM250 500H500V750H375V625H250V500Z" />
<glyph unicode="5" glyph-name="five" d="M125 125V250H0V375H250V250H625V625H0V1000H750V875H250V750H750V625H875V250H750V125H125Z" />
<glyph unicode="6" glyph-name="six" d="M125 125V250H0V750H125V875H250V1000H750V875H375V750H250V625H750V500H875V250H750V125H125ZM250 250H625V500H250V250Z" />
<glyph unicode="7" glyph-name="seven" d="M250 125V500H375V625H500V750H625V875H250V750H0V1000H875V750H750V625H625V500H500V125H250Z" />
<glyph unicode="8" glyph-name="eight" d="M125 125V250H0V500H125V625H0V875H125V1000H625V875H750V625H625V500H875V250H750V125H125ZM375 625H625V875H250V750H375V625ZM125 250H625V375H375V500H125V250Z" />
<glyph unicode="9" glyph-name="nine" d="M125 125V250H500V375H625V500H125V625H0V875H125V1000H750V875H875V375H750V250H625V125H125ZM250 625H625V875H250V625Z" />
<glyph unicode=":" glyph-name="colon" d="M250 625V875H500V625H250ZM250 250V500H500V250H250Z" />
<glyph unicode=";" glyph-name="semicolon" d="M250 625V875H500V625H250ZM125 125V250H250V500H500V250H375V125H125Z" />
<glyph unicode="&lt;" glyph-name="less" d="M500 125V250H375V375H250V500H125V625H250V750H375V875H500V1000H750V875H625V750H500V625H375V500H500V375H625V250H750V125H500Z" />
<glyph unicode="=" glyph-name="equal" d="M0 625V750H875V625H0ZM0 375V500H875V375H0Z" />
<glyph unicode="&gt;" glyph-name="greater" d="M125 125V250H250V375H375V500H500V625H375V750H250V875H125V1000H375V875H500V750H625V625H750V500H625V375H500V250H375V125H125Z" />
<glyph unicode="?" glyph-name="question" d="M250 375V500H500V625H625V750H250V625H0V875H125V1000H750V875H875V625H750V500H625V375H250ZM250 125V250H625V125H250Z" />
<glyph unicode="@" glyph-name="at" d="M750 1000V875H125V1000H750ZM0 875H125V250H0V875ZM875 875V375H250V750H625V500H750V875H875ZM500 625H375V500H500V625ZM125 125V250H750V125H125Z" />
<glyph unicode="A" glyph-name="A" d="M0 125V750H125V875H250V1000H625V875H750V750H875V125H625V375H250V125H0ZM250 500H625V750H500V875H375V750H250V500Z" />
<glyph unicode="B" glyph-name="B" d="M0 125V1000H750V875H875V625H750V500H875V250H750V125H0ZM250 625H625V875H250V625ZM250 250H625V500H250V250Z" />
<glyph unicode="C" glyph-name="C" d="M250 125V250H125V375H0V750H125V875H250V1000H750V875H875V750H625V875H375V750H250V375H375V250H625V375H875V250H750V125H250Z" />
<glyph unicode="D" glyph-name="D" d="M0 125V1000H625V875H750V750H875V375H750V250H625V125H0ZM250 250H500V375H625V750H500V875H250V250Z" />
<glyph unicode="E" glyph-name="E" d="M0 125V1000H875V875H250V625H750V500H250V250H875V125H0Z" />
<glyph unicode="F" glyph-name="F" d="M0 125V1000H875V875H250V625H750V500H250V125H0Z" />
<glyph unicode="G" glyph-name="G" d="M250 125V250H125V375H0V750H125V875H250V1000H875V875H375V750H250V375H375V250H625V500H500V625H875V125H250Z" />
<glyph unicode="H" glyph-name="H" d="M0 125V1000H250V625H625V1000H875V125H625V500H250V125H0Z" />
<glyph unicode="I" glyph-name="I" d="M125 125V250H375V875H125V1000H875V875H625V250H875V125H125Z" />
<glyph unicode="J" glyph-name="J" d="M125 125V250H0V375H250V250H625V1000H875V250H750V125H125Z" />
<glyph unicode="K" glyph-name="K" d="M0 125V1000H250V625H375V750H500V875H625V1000H875V875H750V750H625V625H500V500H625V375H750V250H875V125H500V250H375V375H250V125H0Z" />
<glyph unicode="L" glyph-name="L" d="M125 125V1000H375V250H875V125H125Z" />
<glyph unicode="M" glyph-name="M" d="M0 125V1000H250V875H375V750H500V875H625V1000H875V125H625V625H500V375H375V625H250V125H0Z" />
<glyph unicode="N" glyph-name="N" d="M0 125V1000H250V875H375V750H500V625H625V1000H875V125H625V375H500V500H375V625H250V125H0Z" />
<glyph unicode="O" glyph-name="O" d="M125 125V250H0V875H125V1000H750V875H875V250H750V125H125ZM250 250H625V875H250V250Z" />
<glyph unicode="P" glyph-name="P" d="M0 125V1000H750V875H875V500H750V375H250V125H0ZM250 500H625V875H250V500Z" />
<glyph unicode="Q" glyph-name="Q" d="M875 875V375H750V250H625V125H125V250H0V875H125V1000H750V875H875ZM625 875H250V250H500V375H375V500H625V875ZM750 125V250H875V125H750Z" />
<glyph unicode="R" glyph-name="R" d="M0 125V1000H750V875H875V500H625V375H750V250H875V125H500V250H375V375H250V125H0ZM250 500H500V625H625V875H250V500Z" />
<glyph unicode="S" glyph-name="S" d="M125 125V250H0V375H250V250H625V500H125V625H0V875H125V1000H750V875H875V750H625V875H250V625H750V500H875V250H750V125H125Z" />
<glyph unicode="T" glyph-name="T" d="M375 125V875H125V1000H875V875H625V125H375Z" />
<glyph unicode="U" glyph-name="U" d="M125 125V250H0V1000H250V250H625V1000H875V250H750V125H125Z" />
<glyph unicode="V" glyph-name="V" d="M375 125V250H250V375H125V500H0V1000H250V625H375V500H500V625H625V1000H875V500H750V375H625V250H500V125H375Z" />
<glyph unicode="W" glyph-name="W" d="M125 125V250H0V1000H250V500H375V1000H500V500H625V1000H875V250H750V125H625V250H500V375H375V250H250V125H125Z" />
<glyph unicode="X" glyph-name="X" d="M0 125V375H125V500H250V625H125V750H0V1000H250V750H375V625H500V750H625V1000H875V750H750V625H625V500H750V375H875V125H625V375H500V500H375V375H250V125H0Z" />
<glyph unicode="Y" glyph-name="Y" d="M375 125V500H250V625H125V1000H375V625H625V1000H875V625H750V500H625V125H375Z" />
<glyph unicode="Z" glyph-name="Z" d="M0 125V375H125V500H250V625H375V750H500V875H0V1000H875V750H750V625H625V500H500V375H375V250H875V125H0Z" />
<glyph unicode="[" glyph-name="bracketleft" d="M250 125V1000H750V875H500V250H750V125H250Z" />
<glyph unicode="\" glyph-name="backslash" d="M125 1000V875H0V1000H125ZM250 875V750H125V875H250ZM375 750V625H250V750H375ZM500 625V500H375V625H500ZM625 500V375H500V500H625ZM750 375V250H625V375H750ZM875 250V125H750V250H875Z" />
<glyph unicode="]" glyph-name="bracketright" d="M125 125V250H375V875H125V1000H625V125H125Z" />
<glyph unicode="^" glyph-name="asciicircum" d="M125 750V875H250V1000H625V875H750V750H500V875H375V750H125Z" />
<glyph unicode="_" glyph-name="underscore" d="M0 0V125H875V0H0Z" />
<glyph unicode="`" glyph-name="grave" d="M500 1000V875H375V1000H500ZM625 875V750H500V875H625Z" />
<glyph unicode="a" glyph-name="a" d="M125 125V250H0V375H125V500H625V625H125V750H750V625H875V125H125ZM250 250H625V375H250V250Z" />
<glyph unicode="b" glyph-name="b" d="M125 125V250H0V1000H250V750H750V625H875V250H750V125H125ZM250 250H625V625H250V250Z" />
<glyph unicode="c" glyph-name="c" d="M125 125V250H0V625H125V750H875V625H250V250H875V125H125Z" />
<glyph unicode="d" glyph-name="d" d="M125 125V250H0V625H125V750H625V1000H875V125H125ZM250 250H625V625H250V250Z" />
<glyph unicode="e" glyph-name="e" d="M125 125V250H0V625H125V750H750V625H875V375H250V250H750V125H125ZM250 500H625V625H250V500Z" />
<glyph unicode="f" glyph-name="f" d="M375 125V625H125V750H375V875H500V1000H875V875H625V750H875V625H625V125H375Z" />
<glyph unicode="g" glyph-name="g" d="M125 0V125H625V250H125V375H0V625H125V750H875V125H750V0H125ZM250 375H625V625H250V375Z" />
<glyph unicode="h" glyph-name="h" d="M0 125V1000H250V750H750V625H875V125H625V625H250V125H0Z" />
<glyph unicode="i" glyph-name="i" d="M375 875V1000H625V875H375ZM125 125V250H375V625H250V750H625V250H875V125H125Z" />
<glyph unicode="j" glyph-name="j" d="M500 875V1000H750V875H500ZM125 0V125H500V625H375V750H750V125H625V0H125Z" />
<glyph unicode="k" glyph-name="k" d="M0 125V1000H250V500H500V625H625V750H875V625H750V500H625V375H750V250H875V125H625V250H500V375H250V125H0Z" />
<glyph unicode="l" glyph-name="l" d="M125 125V250H375V875H250V1000H625V250H875V125H125Z" />
<glyph unicode="m" glyph-name="m" d="M0 125V750H750V625H875V125H625V625H500V125H250V625H125V125H0Z" />
<glyph unicode="n" glyph-name="n" d="M0 125V750H750V625H875V125H625V625H250V125H0Z" />
<glyph unicode="o" glyph-name="o" d="M125 125V250H0V625H125V750H750V625H875V250H750V125H125ZM250 250H625V625H250V250Z" />
<glyph unicode="p" glyph-name="p" d="M0 0V750H750V625H875V375H750V250H250V0H0ZM250 375H625V625H250V375Z" />
<glyph unicode="q" glyph-name="q" d="M625 0V250H125V375H0V625H125V750H875V0H625ZM250 375H625V625H250V375Z" />
<glyph unicode="r" glyph-name="r" d="M375 625H500V500H375V125H125V750H375V625ZM875 750V625H500V750H875Z" />
<glyph unicode="s" glyph-name="s" d="M0 125V250H625V375H125V500H0V625H125V750H750V625H250V500H750V375H875V250H750V125H0Z" />
<glyph unicode="t" glyph-name="t" d="M375 125V625H125V750H375V1000H625V750H875V625H625V125H375Z" />
<glyph unicode="u" glyph-name="u" d="M125 125V250H0V750H250V250H625V750H875V125H125Z" />
<glyph unicode="v" glyph-name="v" d="M375 125V250H250V375H125V750H375V375H625V750H875V375H750V250H625V125H375Z" />
<glyph unicode="w" glyph-name="w" d="M250 250H375V125H125V250H0V750H250V250ZM500 750V250H375V750H500ZM875 750V250H750V125H500V250H625V750H875Z" />
<glyph unicode="x" glyph-name="x" d="M0 125V250H125V375H250V500H125V625H0V750H250V625H375V500H500V625H625V750H875V625H750V500H625V375H750V250H875V125H625V250H500V375H375V250H250V125H0Z" />
<glyph unicode="y" glyph-name="y" d="M125 0V125H625V250H125V375H0V750H250V375H625V750H875V125H750V0H125Z" />
<glyph unicode="z" glyph-name="z" d="M0 125V250H125V375H250V500H375V625H0V750H875V625H750V500H625V375H500V250H875V125H0Z" />
<glyph unicode="{" glyph-name="braceleft" d="M500 125V250H375V500H250V625H375V875H500V1000H750V875H625V625H500V500H625V250H750V125H500Z" />
<glyph unicode="|" glyph-name="bar" d="M375 125V1000H625V125H375Z" />
<glyph unicode="}" glyph-name="braceright" d="M125 125V250H250V500H375V625H250V875H125V1000H375V875H500V625H625V500H500V250H375V125H125Z" />
<glyph unicode="~" glyph-name="asciitilde" d="M625 500H750V375H375V500H250V625H125V750H500V625H625V500ZM0 625H125V500H0V625ZM875 625V500H750V625H875Z" />
<glyph unicode="&#xa0;" glyph-name="uni00A0" />
<glyph unicode="&#xa1;" glyph-name="exclamdown" d="M375 875V1000H625V875H375ZM250 125V500H375V750H625V125H250Z" />
<glyph unicode="&#xa2;" glyph-name="cent" d="M375 125V250H125V375H0V750H125V875H375V1000H500V875H750V750H875V625H625V750H500V375H625V500H875V375H750V250H500V125H375ZM250 375H375V750H250V375Z" />
<glyph unicode="&#xa3;" glyph-name="sterling" d="M0 125V250H125V500H0V625H125V875H250V1000H750V875H875V750H625V875H375V625H750V500H375V250H875V125H0Z" />
<glyph unicode="&#xa4;" glyph-name="currency" d="M250 875V750H125V875H250ZM625 750H375V875H625V750ZM875 875V750H750V875H875ZM375 750V375H250V750H375ZM625 750H750V375H625V750ZM125 375H250V250H125V375ZM375 375H625V250H375V375ZM750 250V375H875V250H750Z" />
<glyph unicode="&#xa5;" glyph-name="yen" d="M375 125V250H125V375H375V500H125V625H250V750H125V1000H375V750H625V1000H875V750H750V625H875V500H625V375H875V250H625V125H375Z" />
<glyph unicode="&#xa6;" glyph-name="brokenbar" d="M375 625V1000H625V625H375ZM375 125V500H625V125H375Z" />
<glyph unicode="&#xa7;" glyph-name="section" d="M875 875V750H625V875H375V750H625V625H375V500H250V625H125V875H250V1000H750V875H875ZM625 500V625H750V500H875V250H750V125H250V250H125V375H375V250H625V375H375V500H625Z" />
<glyph unicode="&#xa8;" glyph-name="dieresis" d="M125 875V1000H375V875H125ZM500 875V1000H750V875H500Z" />
<glyph unicode="&#xa9;" glyph-name="copyright" d="M750 875H250V1000H750V875ZM250 750H125V875H250V750ZM750 750V875H875V750H750ZM125 750V250H0V750H125ZM375 750H625V625H375V750ZM1000 750V250H875V750H1000ZM250 625H375V375H250V625ZM375 250V375H625V250H375ZM250
250V125H125V250H250ZM750 250H875V125H750V250ZM250 125H750V0H250V125Z" />
<glyph unicode="&#xaa;" glyph-name="ordfeminine" d="M250 500V625H125V750H250V875H125V1000H625V875H750V500H250ZM375 625H500V750H375V625Z" />
<glyph unicode="&#xab;" glyph-name="guillemotleft" d="M250 250V375H125V500H0V625H125V750H250V875H500V750H625V875H875V750H750V625H625V500H750V375H875V250H625V375H500V250H250ZM375 375H500V500H375V625H500V750H375V625H250V500H375V375Z" />
<glyph unicode="&#xac;" glyph-name="logicalnot" d="M625 375V625H125V750H875V375H625Z" />
<glyph unicode="&#xad;" glyph-name="uni00AD" d="M125 500V625H875V500H125Z" />
<glyph unicode="&#xae;" glyph-name="registered" d="M750 875H250V1000H750V875ZM250 750H125V875H250V750ZM750 750V875H875V750H750ZM125 750V250H0V750H125ZM250 250V750H625V625H375V500H625V375H375V250H250ZM1000 750V250H875V750H1000ZM625 500V625H750V500H625ZM625
250V375H750V250H625ZM250 250V125H125V250H250ZM750 250H875V125H750V250ZM250 125H750V0H250V125Z" />
<glyph unicode="&#xaf;" glyph-name="overscore" d="M125 875V1000H750V875H125Z" />
<glyph unicode="&#xb0;" glyph-name="degree" d="M500 875H375V1000H500V875ZM375 875V750H250V875H375ZM625 875V750H500V875H625ZM375 750H500V625H375V750Z" />
<glyph unicode="&#xb1;" glyph-name="plusminus" d="M375 375V625H125V750H375V1000H625V750H875V625H625V375H375ZM125 125V250H875V125H125Z" />
<glyph unicode="&#xb2;" glyph-name="uni00B2" d="M250 500V625H375V750H500V875H250V1000H625V875H750V750H625V625H750V500H250Z" />
<glyph unicode="&#xb3;" glyph-name="uni00B3" d="M250 500V625H500V750H375V875H250V1000H750V875H625V750H750V625H625V500H250Z" />
<glyph unicode="&#xb4;" glyph-name="acute" d="M625 1000V875H500V1000H625ZM375 875H500V750H375V875Z" />
<glyph unicode="&#xb5;" glyph-name="uni00B5" d="M250 250H500V125H250V0H0V750H250V250ZM875 250V125H625V250H500V750H750V250H875Z" />
<glyph unicode="&#xb6;" glyph-name="paragraph" d="M500 125V375H250V500H125V875H250V1000H875V125H750V375H625V125H500ZM375 500H500V875H375V750H250V625H375V500ZM625 500H750V875H625V500Z" />
<glyph unicode="&#xb7;" glyph-name="middot" d="M250 375V625H500V375H250Z" />
<glyph unicode="&#xb8;" glyph-name="cedilla" d="M625 250V125H500V250H625ZM250 125H500V0H250V125Z" />
<glyph unicode="&#xb9;" glyph-name="uni00B9" d="M250 500V625H375V750H250V875H375V1000H625V625H750V500H250Z" />
<glyph unicode="&#xba;" glyph-name="ordmasculine" d="M250 500V625H125V875H250V1000H625V875H750V625H625V500H250ZM375 625H500V875H375V625Z" />
<glyph unicode="&#xbb;" glyph-name="guillemotright" d="M0 250V375H125V500H250V625H125V750H0V875H250V750H375V875H625V750H750V625H875V500H750V375H625V250H375V375H250V250H0ZM375 375H500V500H625V625H500V750H375V625H500V500H375V375Z" />
<glyph unicode="&#xbc;" glyph-name="onequarter" d="M250 1000V500H125V750H0V875H125V1000H250ZM875 1000V875H750V1000H875ZM625 875H750V750H625V875ZM500 750H625V625H500V750ZM375 625H500V500H375V625ZM750 625H875V125H750V250H500V375H625V500H750V625ZM250
500H375V375H250V500ZM125 375H250V250H125V375ZM0 250H125V125H0V250Z" />
<glyph unicode="&#xbd;" glyph-name="onehalf" d="M250 1000V500H125V750H0V875H125V1000H250ZM875 1000V875H750V1000H875ZM625 875H750V750H625V875ZM500 750H625V625H500V750ZM375 625H500V500H375V625ZM625 500V625H875V375H750V500H625ZM250 500H375V375H250V500ZM125
375H250V250H125V375ZM625 375H750V250H875V125H500V250H625V375ZM0 250H125V125H0V250Z" />
<glyph unicode="&#xbe;" glyph-name="threequarters" d="M250 875V750H125V875H0V1000H375V875H250ZM875 1000V875H750V1000H875ZM625 875H750V750H625V875ZM375 625H250V750H375V625ZM500 750H625V625H500V750ZM250 625V500H0V625H250ZM375 625H500V500H375V625ZM750
625H875V125H750V250H500V375H625V500H750V625ZM250 500H375V375H250V500ZM125 375H250V250H125V375ZM0 250H125V125H0V250Z" />
<glyph unicode="&#xbf;" glyph-name="questiondown" d="M250 875V1000H625V875H250ZM125 125V250H0V500H125V625H250V750H625V625H375V500H250V375H625V500H875V250H750V125H125Z" />
<glyph unicode="&#xc0;" glyph-name="Agrave" d="M375 1000V875H250V1000H375ZM875 500V125H625V250H250V125H0V500H125V625H250V750H375V875H500V750H625V625H750V500H875ZM625 500H500V625H375V500H250V375H625V500Z" />
<glyph unicode="&#xc1;" glyph-name="Aacute" d="M625 875H500V1000H625V875ZM875 500V125H625V250H250V125H0V500H125V625H250V750H375V875H500V750H625V625H750V500H875ZM625 500H500V625H375V500H250V375H625V500Z" />
<glyph unicode="&#xc2;" glyph-name="Acircumflex" d="M0 125V500H125V625H250V750H125V875H250V1000H625V875H750V750H625V625H750V500H875V125H625V250H250V125H0ZM375 750H500V875H375V750ZM250 375H625V500H500V625H375V500H250V375Z" />
<glyph unicode="&#xc3;" glyph-name="Atilde" d="M875 500V125H625V250H250V125H0V500H125V625H250V750H375V875H250V1000H500V875H625V625H750V500H875ZM750 875H625V1000H750V875ZM250 875V750H125V875H250ZM625 500H500V625H375V500H250V375H625V500Z" />
<glyph unicode="&#xc4;" glyph-name="Adieresis" d="M125 875V1000H375V875H125ZM500 875V1000H750V875H500ZM0 125V500H125V625H250V750H625V625H750V500H875V125H625V250H250V125H0ZM250 375H625V500H500V625H375V500H250V375Z" />
<glyph unicode="&#xc5;" glyph-name="Aring" d="M0 125V500H125V625H250V875H375V1000H500V875H625V625H750V500H875V125H625V250H250V125H0ZM375 750H500V875H375V750ZM250 375H625V500H500V625H375V500H250V375Z" />
<glyph unicode="&#xc6;" glyph-name="AE" d="M0 125V750H125V875H250V1000H875V875H625V625H875V500H625V250H875V125H375V375H250V125H0ZM250 500H375V750H250V500Z" />
<glyph unicode="&#xc7;" glyph-name="Ccedilla" d="M875 875V750H625V875H375V750H250V500H375V375H625V500H875V375H750V250H625V125H500V250H250V375H125V500H0V750H125V875H250V1000H750V875H875ZM250 125H500V0H250V125Z" />
<glyph unicode="&#xc8;" glyph-name="Egrave" d="M375 1000V875H250V1000H375ZM875 750V625H250V500H750V375H250V250H875V125H0V750H375V875H500V750H875Z" />
<glyph unicode="&#xc9;" glyph-name="Eacute" d="M625 875H500V1000H625V875ZM875 750V625H250V500H750V375H250V250H875V125H0V750H375V875H500V750H875Z" />
<glyph unicode="&#xca;" glyph-name="Ecircumflex" d="M0 125V750H125V875H250V1000H625V875H750V750H875V625H250V500H750V375H250V250H875V125H0ZM375 750H500V875H375V750Z" />
<glyph unicode="&#xcb;" glyph-name="Edieresis" d="M125 875V1000H375V875H125ZM500 875V1000H750V875H500ZM0 125V750H875V625H250V500H750V375H250V250H875V125H0Z" />
<glyph unicode="&#xcc;" glyph-name="Igrave" d="M500 1000V875H375V1000H500ZM875 750V625H625V250H875V125H125V250H375V625H125V750H500V875H625V750H875Z" />
<glyph unicode="&#xcd;" glyph-name="Iacute" d="M625 875H500V1000H625V875ZM875 750V625H625V250H875V125H125V250H375V625H125V750H375V875H500V750H875Z" />
<glyph unicode="&#xce;" glyph-name="Icircumflex" d="M125 125V250H375V625H125V750H250V875H375V1000H625V875H750V750H875V625H625V250H875V125H125Z" />
<glyph unicode="&#xcf;" glyph-name="Idieresis" d="M125 875V1000H375V875H125ZM625 875V1000H875V875H625ZM125 125V250H375V625H125V750H875V625H625V250H875V125H125Z" />
<glyph unicode="&#xd0;" glyph-name="Eth" d="M125 125V500H0V625H125V1000H625V875H750V750H875V375H750V250H625V125H125ZM375 250H500V375H625V750H500V875H375V625H500V500H375V250Z" />
<glyph unicode="&#xd1;" glyph-name="Ntilde" d="M375 875H250V1000H500V875H625V750H375V875ZM750 875H625V1000H750V875ZM875 750V125H500V250H375V375H250V125H0V750H125V875H250V750H375V625H500V500H625V750H875Z" />
<glyph unicode="&#xd2;" glyph-name="Ograve" d="M375 1000V875H250V1000H375ZM875 625V250H750V125H125V250H0V625H125V750H375V875H500V750H750V625H875ZM625 625H250V250H625V625Z" />
<glyph unicode="&#xd3;" glyph-name="Oacute" d="M625 875H500V1000H625V875ZM875 625V250H750V125H125V250H0V625H125V750H375V875H500V750H750V625H875ZM625 625H250V250H625V625Z" />
<glyph unicode="&#xd4;" glyph-name="Ocircumflex" d="M125 125V250H0V625H125V875H250V1000H625V875H750V625H875V250H750V125H125ZM375 750H500V875H375V750ZM250 250H625V625H250V250Z" />
<glyph unicode="&#xd5;" glyph-name="Otilde" d="M125 125V250H0V625H125V875H250V1000H500V875H625V1000H750V875H625V750H750V625H875V250H750V125H125ZM250 750H375V875H250V750ZM250 250H625V625H250V250Z" />
<glyph unicode="&#xd6;" glyph-name="Odieresis" d="M125 875V1000H375V875H125ZM500 875V1000H750V875H500ZM125 125V250H0V625H125V750H750V625H875V250H750V125H125ZM250 250H625V625H250V250Z" />
<glyph unicode="&#xd7;" glyph-name="multiply" d="M250 875V750H125V875H250ZM750 875V750H625V875H750ZM375 750V625H250V750H375ZM500 750H625V625H500V750ZM375 625H500V500H375V625ZM250 500H375V375H250V500ZM500 375V500H625V375H500ZM125 375H250V250H125V375ZM625
250V375H750V250H625Z" />
<glyph unicode="&#xd8;" glyph-name="Oslash" d="M125 125V250H0V875H125V1000H750V875H875V250H750V125H125ZM250 250H625V625H500V750H625V875H250V500H375V375H250V250ZM375 500V625H500V500H375Z" />
<glyph unicode="&#xd9;" glyph-name="Ugrave" d="M375 875H250V1000H375V875ZM375 750V875H500V750H375ZM875 750V250H750V125H125V250H0V750H250V250H625V750H875Z" />
<glyph unicode="&#xda;" glyph-name="Uacute" d="M625 875H500V1000H625V875ZM500 750H375V875H500V750ZM875 750V250H750V125H125V250H0V750H250V250H625V750H875Z" />
<glyph unicode="&#xdb;" glyph-name="Ucircumflex" d="M125 750V875H250V1000H625V875H750V750H500V875H375V750H125ZM125 125V250H0V625H250V250H625V625H875V250H750V125H125Z" />
<glyph unicode="&#xdc;" glyph-name="Udieresis" d="M125 875V1000H375V875H125ZM500 875V1000H750V875H500ZM125 125V250H0V750H250V250H625V750H875V250H750V125H125Z" />
<glyph unicode="&#xdd;" glyph-name="Yacute" d="M625 875H500V1000H625V875ZM500 750H375V875H500V750ZM875 750V500H750V375H625V125H375V375H250V500H125V750H375V500H625V750H875Z" />
<glyph unicode="&#xde;" glyph-name="Thorn" d="M0 125V1000H250V875H750V750H875V375H750V250H250V125H0ZM250 375H625V750H250V375Z" />
<glyph unicode="&#xdf;" glyph-name="germandbls" d="M875 875V625H750V500H875V250H750V125H500V250H625V500H500V625H625V875H375V375H500V250H375V125H125V875H250V1000H750V875H875Z" />
<glyph unicode="&#xe0;" glyph-name="agrave" d="M375 1000V875H250V1000H375ZM875 625V125H125V250H0V375H125V500H625V625H125V750H375V875H500V750H750V625H875ZM625 375H250V250H625V375Z" />
<glyph unicode="&#xe1;" glyph-name="aacute" d="M625 875H500V1000H625V875ZM875 625V125H125V250H0V375H125V500H625V625H125V750H375V875H500V750H750V625H875ZM625 375H250V250H625V375Z" />
<glyph unicode="&#xe2;" glyph-name="acircumflex" d="M125 125V250H0V375H125V500H625V625H125V875H250V1000H625V875H750V625H875V125H125ZM375 750H500V875H375V750ZM250 250H625V375H250V250Z" />
<glyph unicode="&#xe3;" glyph-name="atilde" d="M125 125V250H0V375H125V500H625V625H125V875H250V1000H500V875H625V1000H750V875H625V750H750V625H875V125H125ZM250 750H375V875H250V750ZM250 250H625V375H250V250Z" />
<glyph unicode="&#xe4;" glyph-name="adieresis" d="M125 875V1000H375V875H125ZM500 875V1000H750V875H500ZM125 125V250H0V375H125V500H625V625H125V750H750V625H875V125H125ZM250 250H625V375H250V250Z" />
<glyph unicode="&#xe5;" glyph-name="aring" d="M125 125V250H0V375H125V500H625V625H125V750H250V875H375V1000H500V875H625V750H750V625H875V125H125ZM375 750H500V875H375V750ZM250 250H625V375H250V250Z" />
<glyph unicode="&#xe6;" glyph-name="ae" d="M125 125V250H0V375H125V500H375V625H125V750H750V625H875V375H500V250H750V125H125ZM500 500H625V625H500V500ZM250 250H375V375H250V250Z" />
<glyph unicode="&#xe7;" glyph-name="ccedilla" d="M875 750V625H250V375H875V250H625V125H500V250H125V375H0V625H125V750H875ZM250 125H500V0H250V125Z" />
<glyph unicode="&#xe8;" glyph-name="egrave" d="M375 1000V875H250V1000H375ZM875 625V375H250V250H750V125H125V250H0V625H125V750H375V875H500V750H750V625H875ZM625 625H250V500H625V625Z" />
<glyph unicode="&#xe9;" glyph-name="eacute" d="M625 875H500V1000H625V875ZM875 625V375H250V250H750V125H125V250H0V625H125V750H375V875H500V750H750V625H875ZM625 625H250V500H625V625Z" />
<glyph unicode="&#xea;" glyph-name="ecircumflex" d="M125 125V250H0V625H125V875H250V1000H625V875H750V625H875V375H250V250H750V125H125ZM375 750H500V875H375V750ZM250 500H625V625H250V500Z" />
<glyph unicode="&#xeb;" glyph-name="edieresis" d="M125 875V1000H375V875H125ZM500 875V1000H750V875H500ZM125 125V250H0V625H125V750H750V625H875V375H250V250H750V125H125ZM250 500H625V625H250V500Z" />
<glyph unicode="&#xec;" glyph-name="igrave" d="M375 875H250V1000H375V875ZM375 750V875H500V750H375ZM875 250V125H125V250H375V500H250V625H625V250H875Z" />
<glyph unicode="&#xed;" glyph-name="iacute" d="M625 875H500V1000H625V875ZM500 750H375V875H500V750ZM875 250V125H125V250H375V500H250V625H625V250H875Z" />
<glyph unicode="&#xee;" glyph-name="icircumflex" d="M125 750V875H250V1000H625V875H750V750H500V875H375V750H125ZM125 125V250H375V500H250V625H625V250H875V125H125Z" />
<glyph unicode="&#xef;" glyph-name="idieresis" d="M125 875V1000H375V875H125ZM500 875V1000H750V875H500ZM125 125V250H375V625H250V750H625V250H875V125H125Z" />
<glyph unicode="&#xf0;" glyph-name="eth" d="M875 500V250H750V125H125V250H0V500H125V625H375V750H125V1000H375V875H625V625H750V500H875ZM750 875H625V1000H750V875ZM125 750V625H0V750H125ZM625 500H250V250H625V500Z" />
<glyph unicode="&#xf1;" glyph-name="ntilde" d="M0 125V750H125V875H250V1000H500V875H625V1000H750V875H625V750H750V625H875V125H625V625H250V125H0ZM250 750H375V875H250V750Z" />
<glyph unicode="&#xf2;" glyph-name="ograve" d="M375 1000V875H250V1000H375ZM875 625V250H750V125H125V250H0V625H125V750H375V875H500V750H750V625H875ZM625 625H250V250H625V625Z" />
<glyph unicode="&#xf3;" glyph-name="oacute" d="M625 875H500V1000H625V875ZM875 625V250H750V125H125V250H0V625H125V750H375V875H500V750H750V625H875ZM625 625H250V250H625V625Z" />
<glyph unicode="&#xf4;" glyph-name="ocircumflex" d="M125 125V250H0V625H125V875H250V1000H625V875H750V625H875V250H750V125H125ZM375 750H500V875H375V750ZM250 250H625V625H250V250Z" />
<glyph unicode="&#xf5;" glyph-name="otilde" d="M125 125V250H0V625H125V875H250V1000H500V875H625V1000H750V875H625V750H750V625H875V250H750V125H125ZM250 750H375V875H250V750ZM250 250H625V625H250V250Z" />
<glyph unicode="&#xf6;" glyph-name="odieresis" d="M125 875V1000H375V875H125ZM500 875V1000H750V875H500ZM125 125V250H0V625H125V750H750V625H875V250H750V125H125ZM250 250H625V625H250V250Z" />
<glyph unicode="&#xf7;" glyph-name="divide" d="M375 750V875H625V750H375ZM125 500V625H875V500H125ZM375 250V375H625V250H375Z" />
<glyph unicode="&#xf8;" glyph-name="oslash" d="M125 125V250H0V625H125V750H750V625H875V250H750V125H125ZM375 250H625V500H500V625H250V375H375V250ZM375 375V500H500V375H375Z" />
<glyph unicode="&#xf9;" glyph-name="ugrave" d="M375 875H250V1000H375V875ZM375 750V875H500V750H375ZM875 750V125H125V250H0V750H250V250H625V750H875Z" />
<glyph unicode="&#xfa;" glyph-name="uacute" d="M625 875H500V1000H625V875ZM500 750H375V875H500V750ZM875 750V125H125V250H0V750H250V250H625V750H875Z" />
<glyph unicode="&#xfb;" glyph-name="ucircumflex" d="M125 750V875H250V1000H625V875H750V750H500V875H375V750H125ZM125 125V250H0V625H250V250H625V625H875V125H125Z" />
<glyph unicode="&#xfc;" glyph-name="udieresis" d="M125 875V1000H375V875H125ZM500 875V1000H750V875H500ZM125 125V250H0V750H250V250H625V750H875V125H125Z" />
<glyph unicode="&#xfd;" glyph-name="yacute" d="M625 875H500V1000H625V875ZM500 750H375V875H500V750ZM875 750V125H750V0H125V125H625V250H125V375H0V750H250V375H625V750H875Z" />
<glyph unicode="&#xfe;" glyph-name="thorn" d="M0 0V1000H250V750H750V625H875V375H750V250H250V0H0ZM250 375H625V625H250V375Z" />
<glyph unicode="&#xff;" glyph-name="ydieresis" d="M125 875V1000H375V875H125ZM500 875V1000H750V875H500ZM125 0V125H625V250H125V375H0V750H250V375H625V750H875V125H750V0H125Z" />
<glyph unicode="&#x2013;" glyph-name="endash" d="M0 500V625H875V500H0Z" />
<glyph unicode="&#x2014;" glyph-name="emdash" d="M0 500V625H1000V500H0Z" />
<glyph unicode="&#x2018;" glyph-name="quoteleft" d="M250 625V875H375V1000H625V875H500V625H250Z" />
<glyph unicode="&#x2019;" glyph-name="quoteright" d="M250 625V750H375V1000H625V750H500V625H250Z" />
<glyph unicode="&#x201a;" glyph-name="quotesinglbase" d="M250 125V250H375V500H625V250H500V125H250Z" />
<glyph unicode="&#x201c;" glyph-name="quotedblleft" d="M500 1000V875H375V625H125V875H250V1000H500ZM875 1000V875H750V625H500V875H625V1000H875Z" />
<glyph unicode="&#x201d;" glyph-name="quotedblright" d="M500 1000V750H375V625H125V750H250V1000H500ZM875 1000V750H750V625H500V750H625V1000H875Z" />
<glyph unicode="&#x201e;" glyph-name="quotedblbase" d="M375 500V250H250V125H0V250H125V500H375ZM750 500V250H625V125H375V250H500V500H750Z" />
<glyph unicode="&#x2022;" glyph-name="bullet" d="M375 250V375H250V625H375V750H625V625H750V375H625V250H375Z" />
<glyph unicode="&#x2039;" glyph-name="guilsinglleft" d="M500 250V375H375V500H250V625H375V750H500V875H750V750H625V625H500V500H625V375H750V250H500Z" />
<glyph unicode="&#x203a;" glyph-name="guilsinglright" d="M125 250V375H250V500H375V625H250V750H125V875H375V750H500V625H625V500H500V375H375V250H125Z" />
</font>
</defs>
</svg>
