<?xml version="1.0" standalone="no"?>
<!DOCTYPE svg PUBLIC "-//W3C//DTD SVG 1.1//EN" "http://www.w3.org/Graphics/SVG/1.1/DTD/svg11.dtd">
<svg xmlns="http://www.w3.org/2000/svg">
<defs >
<font id="HeadlandOne" horiz-adv-x="1341" ><font-face
    font-family="HeadlandOne"
    units-per-em="2048"
    panose-1="2 2 6 2 6 3 0 6 7 4"
    ascent="2043"
    descent="-522"
    alphabetic="0" />
<glyph unicode=" " glyph-name="space" horiz-adv-x="758" />
<glyph unicode="!" glyph-name="exclam" horiz-adv-x="684" d="M293 430L271 429L206 1612Q237 1655 404 1690Q443 1698 462 1698L490 1647L408 455Q361 432 293 430ZM181 129Q181 195 228 240Q276 286 324 286T402 274T454 240Q501 194 501 129Q501 65 454 18Q407
-29 340 -29Q276 -29 228 18Q181 63 181 129Z" />
<glyph unicode="&quot;" glyph-name="quotedbl" horiz-adv-x="1194" d="M680 1868H950L886 1214H744L680 1868ZM242 1868H512L448 1214H306L242 1868Z" />
<glyph unicode="#" glyph-name="numbersign" horiz-adv-x="1537" d="M409 600H124L146 731H433L494 1058H193L214 1188H518L581 1529H728L665 1188H962L1025 1529H1172L1109 1188H1410L1390 1058H1085L1025 731H1339L1320 601L1001 600L942 281H795L854 600H557L499
281H350L409 600ZM878 731L938 1058H641L581 731H878Z" />
<glyph unicode="$" glyph-name="dollar" horiz-adv-x="1364" d="M174 32Q183 128 183 382V459H325Q340 287 399 205Q480 93 658 93T916 167T997 370Q997 515 736 634Q665 666 593 695T448 769T316 870Q188 997 188 1138Q188 1301 311 1410T639 1540L645 1770H795L789
1540Q806 1538 823 1536T872 1530Q986 1516 1048 1516T1175 1529V1108H1030Q1024 1365 844 1416Q785 1433 697 1433T548 1411T452 1353Q389 1288 394 1173Q399 1039 616 930Q677 900 758 865T927 781T1078 676Q1214 556 1218 404Q1220 210 1076 100Q945 -1 731
-14L716 -235H563L578 -11Q543 -7 510 -1Q387 22 345 29T261 36T182 30L174 32Z" />
<glyph unicode="%" glyph-name="percent" horiz-adv-x="2216" d="M1367 1545H1525L825 0H668L1367 1545ZM524 660Q440 662 373 691T255 775Q146 893 150 1081Q154 1279 274 1408Q398 1544 588 1544Q740 1544 860 1416Q976 1290 976 1134Q976 909 839 779Q711 657
524 660ZM443 812T480 784T564 755T648 779T713 848Q769 939 769 1091Q769 1238 710 1344Q650 1452 562 1452Q424 1452 376 1279Q359 1218 359 1135T374 982T416 863ZM1238 408Q1240 502 1272 586T1361 732Q1485 868 1675 868Q1827 868 1946 740Q2063 614 2063
458Q2063 235 1925 102Q1796 -21 1603 -15Q1451 -9 1346 105Q1234 226 1238 408ZM1465 606Q1448 545 1446 458T1458 302T1500 184Q1556 80 1650 80Q1744 80 1800 172Q1856 265 1856 416Q1856 562 1798 668Q1737 776 1648 776Q1512 776 1465 606Z" />
<glyph unicode="&amp;" glyph-name="ampersand" horiz-adv-x="1881" d="M1805 629Q1810 592 1810 568Q1810 524 1783 499Q1723 490 1580 488Q1528 274 1342 133Q1144 -16 873 -16Q579 -16 416 108Q259 228 259 433T546 882Q433 995 433 1132Q433 1295 578 1418Q726
1544 928 1544Q1156 1544 1237 1438Q1265 1402 1265 1366T1261 1305T1249 1256Q1233 1203 1221 1189Q1205 1170 1148 1170T1091 1186Q1091 1295 1026 1361Q964 1425 864 1425Q785 1425 707 1366Q620 1300 620 1214Q620 1120 695 1028Q715 1004 731 992T755 968T766
946Q771 924 761 917Q593 800 523 646Q495 585 495 502T527 345T616 222Q727 125 920 125Q1132 125 1268 229Q1403 331 1417 487Q1344 487 1268 488L1124 490Q1054 491 994 492L893 495Q868 496 846 496H818Q786 496 786 532T802 609T847 696T920 788T1019 870Q1142
952 1282 952Q1491 952 1568 779Q1597 714 1597 615Q1752 620 1805 629ZM986 610Q1013 613 1152 613H1418Q1388 732 1284 788Q1243 810 1200 810T1133 802T1088 779Q1016 728 986 610Z" />
<glyph unicode="&apos;" glyph-name="quotesingle" horiz-adv-x="683" d="M206 1868H476L412 1214H270L206 1868Z" />
<glyph unicode="(" glyph-name="parenleft" horiz-adv-x="1085" d="M698 -390Q502 -201 366 86Q213 413 213 785Q213 1136 322 1420Q403 1629 537 1786Q604 1865 691 1931Q694 1934 700 1932T720 1918L743 1895Q756 1882 770 1866Q503 1577 437 1046Q422 925 422
795T437 553T476 338Q567 -38 771 -337L708 -391L698 -390Z" />
<glyph unicode=")" glyph-name="parenright" horiz-adv-x="1085" d="M365 1943Q561 1754 697 1467Q850 1140 850 768Q850 417 741 133Q660 -76 526 -233Q459 -312 372 -378Q369 -381 363 -379T343 -365L320 -342Q307 -329 293 -313Q560 -24 626 507Q641 628 641
758T626 1000T587 1215Q496 1591 292 1890L355 1944L365 1943Z" />
<glyph unicode="*" glyph-name="asterisk" horiz-adv-x="1364" d="M718 1077Q838 866 838 734T729 601Q668 601 653 614Q631 633 631 676L634 1070Q503 840 360 782Q336 773 311 773Q254 773 227 820T200 888Q200 918 244 944L597 1146H580Q354 1146 241 1211L212
1230Q157 1269 157 1317Q157 1340 174 1371Q206 1430 244 1430Q265 1430 292 1414L615 1227Q552 1356 529 1448T506 1561T509 1606T524 1651Q551 1698 616 1698Q695 1698 708 1656Q717 1630 717 1241Q807 1365 902 1454Q975 1524 1043 1524Q1097 1524 1124 1477T1152
1410T1140 1379T1054 1322L765 1156Q927 1142 1014 1116T1119 1079H1118Q1206 1032 1206 974Q1206 950 1188 919Q1154 861 1119 861Q1099 861 1050 888Q801 1028 772 1045L718 1077Z" />
<glyph unicode="+" glyph-name="plus" horiz-adv-x="1193" d="M167 669H502V1031H688V669H1043L1024 506H688V169H502V506H148L167 669Z" />
<glyph unicode="," glyph-name="comma" horiz-adv-x="512" d="M149 -14T119 27T89 111T102 183T138 236Q188 286 255 286Q326 286 371 232T416 111T399 -6T356 -106T297 -196T234 -270Q168 -339 145 -339Q91 -339 49 -290L93 -242Q210 -110 212 -22Q149 -14 119 27Z" />
<glyph unicode="-" glyph-name="hyphen" horiz-adv-x="1031" d="M175 669H874L854 506H155L175 669Z" />
<glyph unicode="." glyph-name="period" horiz-adv-x="512" d="M95 129Q95 194 142 240Q190 286 255 286Q320 286 368 240Q415 194 415 129Q415 65 368 18Q321 -29 255 -29Q189 -29 142 18Q95 65 95 129Z" />
<glyph unicode="/" glyph-name="slash" horiz-adv-x="1023" d="M799 1668H957L220 0H64L799 1668Z" />
<glyph unicode="0" glyph-name="zero" horiz-adv-x="1368" d="M186 271T148 392T109 629T127 832T181 999T266 1144T382 1258Q521 1360 672 1360T929 1307T1106 1164Q1256 977 1256 691Q1256 408 1095 200Q991 66 838 12Q761 -14 651 -14T436 38T259 180ZM542
138Q602 96 682 96T822 138T921 258Q999 412 999 681Q999 1092 822 1211Q763 1251 683 1251T543 1211T444 1097Q366 949 366 681Q366 265 542 138Z" />
<glyph unicode="1" glyph-name="one" horiz-adv-x="855" d="M566 962L565 564V260Q565 167 576 146Q595 106 662 106Q718 106 808 124L795 0H89L103 106H184Q241 106 274 114T326 150Q354 194 354 336V578L353 918V1025Q353 1152 278 1152Q219 1152 131 1108L95
1239L594 1382Q566 1298 566 1168Q566 1168 566 962Z" />
<glyph unicode="2" glyph-name="two" horiz-adv-x="1364" d="M191 948Q173 1116 173 1253V1317Q266 1313 370 1336Q569 1380 670 1380T857 1354T1003 1276Q1126 1173 1126 987Q1126 755 816 455Q756 397 696 348L583 258Q531 219 492 192L435 153H866Q942 153
992 209Q1037 258 1052 343H1189Q1189 262 1172 148T1146 0H192Q167 6 152 55Q148 68 148 79Q172 95 261 163T432 302T595 455T740 624Q886 822 886 982Q886 1113 816 1192Q747 1271 658 1271T511 1254T414 1198Q333 1120 335 948H191Z" />
<glyph unicode="3" glyph-name="three" horiz-adv-x="1365" d="M242 946Q232 1094 232 1181T236 1313Q276 1309 322 1318L419 1339Q582 1379 665 1379T828 1364T972 1311Q1118 1228 1118 1054Q1118 903 970 786Q925 751 875 724Q1009 698 1098 606Q1198 502 1198
349Q1198 163 1061 8Q904 -169 640 -169Q517 -169 375 -130Q260 -100 203 -100L196 -98Q186 10 186 76T198 256H345Q345 13 526 -48Q581 -66 647 -66Q780 -66 870 38Q960 144 960 312Q960 442 880 532Q797 624 666 624Q587 624 529 594Q503 672 503 692T508 716V718H517Q664
720 772 803Q887 891 887 1019Q887 1194 742 1251Q694 1270 632 1270T525 1252T450 1195Q389 1118 389 946H242Z" />
<glyph unicode="4" glyph-name="four" horiz-adv-x="1365" d="M794 -198Q813 3 813 169H96L55 261L358 654Q358 654 624 1012Q807 1267 868 1359Q971 1371 1022 1391V322H1302L1269 173L1022 174V2Q1022 -47 1025 -161L953 -191Q879 -221 827 -236L794 -198ZM813
322V1061L663 834L310 322H813Z" />
<glyph unicode="5" glyph-name="five" horiz-adv-x="1365" d="M413 720Q587 787 704 787T912 762T1068 684Q1213 570 1213 351Q1213 108 1032 -36Q864 -169 627 -169Q457 -169 304 -114Q253 -95 216 -70L237 47Q319 -11 487 -36Q544 -45 623 -45T772 -15T887 68Q974
167 974 329Q974 474 872 558Q775 636 631 636T355 592L259 626L317 1359H869Q937 1359 966 1376Q1020 1408 1051 1489H1167Q1167 1362 1132 1248Q1121 1210 1107 1186H493L413 720Z" />
<glyph unicode="6" glyph-name="six" horiz-adv-x="1365" d="M136 450Q121 523 121 633T149 865T230 1087T349 1263T494 1399T652 1497T812 1562Q958 1611 1078 1613L1102 1526Q855 1496 660 1325Q463 1151 391 901Q511 992 670 1022Q723 1032 805 1032T973 997T1120
899Q1241 770 1241 555Q1241 315 1082 151Q922 -15 681 -15Q410 -15 258 182Q168 299 136 450ZM493 177T553 145T702 112T855 141T954 224Q1014 316 1014 523Q1014 778 828 856Q765 882 708 882T611 874T526 849Q425 812 362 755Q357 717 357 618T381 416T449 245Z"
/>
<glyph unicode="7" glyph-name="seven" horiz-adv-x="1365" d="M1032 1184Q1019 1184 978 1184T881 1183T760 1182L636 1180Q576 1180 526 1180T438 1179T367 1166T312 1126Q276 1085 240 973H132Q149 1145 161 1226L181 1359H1165L1221 1296L665 -338H458L410
-274L1032 1184Z" />
<glyph unicode="8" glyph-name="eight" horiz-adv-x="1365" d="M153 366Q153 438 185 504T269 622Q370 723 501 764Q362 845 292 930Q203 1037 203 1170Q203 1349 354 1452Q490 1544 697 1544Q889 1544 1020 1444Q1152 1341 1152 1182Q1152 1056 1058 952Q972
856 858 822Q1024 735 1088 670T1182 545T1212 398T1174 231T1066 97Q921 -16 668 -16Q494 -16 338 72Q153 175 153 366ZM757 875Q837 918 888 999Q937 1075 937 1149T920 1276T871 1366Q806 1440 692 1440Q496 1440 427 1320Q402 1276 402 1215T431 1107T510 1021T623
946L757 875ZM400 490Q385 442 385 387T409 278T474 186Q561 105 687 105Q909 105 982 232Q1009 278 1009 342T980 454T901 540T789 614L659 682L634 694Q621 700 609 707Q448 648 400 490Z" />
<glyph unicode="9" glyph-name="nine" horiz-adv-x="1365" d="M968 463Q790 333 591 333Q375 333 242 480Q116 621 116 839Q116 1064 282 1220Q449 1379 696 1379Q963 1379 1108 1182Q1233 1014 1236 769Q1239 248 862 -34Q653 -191 400 -235Q331 -247 279 -248L255
-163L261 -160Q507 -132 702 39Q899 212 968 463ZM474 544T538 513T659 482T755 489T836 510Q929 543 994 598Q999 658 999 747T977 940T914 1114Q833 1253 690 1253Q421 1253 362 1031Q343 960 343 876T365 721T430 597Z" />
<glyph unicode=":" glyph-name="colon" horiz-adv-x="512" d="M95 129Q95 194 142 240Q190 286 255 286Q320 286 368 240Q415 194 415 129Q415 65 368 18Q321 -29 255 -29Q189 -29 142 18Q95 65 95 129ZM93 1034Q93 1099 140 1145Q188 1191 253 1191Q318 1191
366 1145Q413 1099 413 1034Q413 970 366 923Q319 876 253 876Q187 876 140 923Q93 970 93 1034Z" />
<glyph unicode=";" glyph-name="semicolon" horiz-adv-x="512" d="M93 1034Q93 1099 140 1145Q188 1191 253 1191Q318 1191 366 1145Q413 1099 413 1034Q413 970 366 923Q319 876 253 876Q187 876 140 923Q93 970 93 1034ZM149 -14T119 27T89 111T102 183T138
236Q188 286 255 286Q326 286 371 232T416 111T399 -6T356 -106T297 -196T234 -270Q168 -339 145 -339Q91 -339 49 -290L93 -242Q210 -110 212 -22Q149 -14 119 27Z" />
<glyph unicode="&lt;" glyph-name="less" horiz-adv-x="1364" d="M173 644L1131 1071V894L476 597L1131 305V127L173 561V644Z" />
<glyph unicode="=" glyph-name="equal" horiz-adv-x="1364" d="M208 841H1176L1156 679H189L208 841ZM204 501H1172L1152 339H185L204 501Z" />
<glyph unicode="&gt;" glyph-name="greater" horiz-adv-x="1364" d="M1164 644L206 1071V894L861 597L206 305V127L1164 561V644Z" />
<glyph unicode="?" glyph-name="question" horiz-adv-x="1537" d="M905 468Q872 458 794 458T677 471T609 509Q547 562 547 651Q547 789 696 911L866 1048Q1011 1169 1011 1308Q1011 1448 930 1533Q852 1614 741 1614Q518 1614 456 1415Q438 1355 438 1279Q364
1279 277 1293Q262 1360 262 1430Q262 1522 267 1587Q310 1598 346 1612L488 1671Q617 1724 772 1724Q954 1724 1089 1652Q1200 1594 1246 1479Q1271 1419 1271 1343T1243 1210T1170 1103T1070 1012L877 873Q744 774 744 686Q744 601 816 592Q836 589 856 589T904
596L905 468ZM599 129Q599 194 646 240Q694 286 759 286Q824 286 872 240Q919 194 919 129Q919 65 872 18Q825 -29 759 -29Q693 -29 646 18Q599 65 599 129Z" />
<glyph unicode="@" glyph-name="at" horiz-adv-x="2048" d="M1622 122Q1683 92 1683 54Q1683 40 1666 26Q1409 -170 1023 -170Q629 -170 396 0Q124 199 132 624Q136 883 262 1098Q456 1430 846 1530Q977 1564 1147 1564T1464 1519T1708 1396Q1905 1239 1905 989Q1905
689 1760 469Q1660 316 1500 255Q1419 224 1321 225Q1228 225 1165 297Q1144 321 1133 354Q981 244 822 244Q722 244 640 328Q493 476 583 756Q659 994 858 1113Q981 1187 1107 1187Q1223 1187 1311 1121Q1331 1123 1360 1126L1416 1134Q1479 1142 1484 1149T1489
1138T1480 1081T1458 988L1399 758Q1383 699 1375 666T1363 617T1351 569Q1332 485 1332 439T1347 380T1406 367T1497 393T1581 465T1642 569T1683 695Q1714 823 1714 946T1677 1158T1564 1308Q1408 1437 1116 1437Q764 1437 544 1203Q332 978 324 625Q318 313
522 132Q713 -38 1023 -38Q1335 -38 1532 62Q1583 87 1622 122ZM1263 1041Q1208 1064 1127 1064T980 1024T868 918Q774 785 765 600Q761 515 809 458Q853 406 922 406Q1043 406 1127 474Q1131 510 1136 537L1144 581L1263 1041Z" />
<glyph unicode="A" glyph-name="A" horiz-adv-x="1533" d="M9 109Q85 109 111 129Q151 160 181 232H180L680 1530Q736 1530 788 1547T853 1573L1315 335Q1369 178 1434 126Q1454 110 1471 110Q1521 110 1551 129L1529 0H934L949 110Q1118 107 1132 174Q1137 194
1132 218L1004 557H470L342 191Q323 145 364 118Q375 110 405 110T458 112Q512 115 538 125L522 0H-4L9 109ZM958 680L728 1291L513 680H958Z" />
<glyph unicode="B" glyph-name="B" horiz-adv-x="1536" d="M785 -16L409 -1H103L111 110Q202 110 235 134Q294 179 294 282V1222Q294 1381 232 1406Q214 1414 173 1414T105 1403L114 1530H409Q477 1532 541 1535Q713 1545 819 1545T1023 1520T1186 1447Q1317 1352
1317 1184Q1317 1051 1238 952Q1173 871 1063 827Q1250 810 1350 702Q1440 606 1440 463Q1440 254 1272 123Q1093 -16 785 -16ZM1078 1164Q1078 1429 730 1429Q615 1429 573 1420L511 1408V855H802Q1018 855 1063 1029Q1078 1087 1078 1164ZM511 739L513 236Q513
152 574 125Q632 100 780 100T1002 125T1120 197Q1197 278 1197 446T1108 676Q1016 740 763 740L511 739Z" />
<glyph unicode="C" glyph-name="C" horiz-adv-x="1709" d="M1540 409Q1542 389 1542 359T1539 289T1530 212Q1517 128 1504 92Q1290 -15 948 -15Q628 -15 402 154Q237 277 171 499Q137 613 137 776T200 1085T376 1333Q611 1545 986 1545Q1056 1545 1169 1532T1317
1516L1385 1509Q1462 1502 1486 1502H1518Q1525 1502 1540 1504Q1542 1480 1542 1391T1510 1092H1382Q1363 1243 1334 1301Q1251 1434 971 1434Q691 1434 534 1250Q384 1075 384 787Q384 454 572 266Q744 94 992 94Q1171 94 1264 162Q1358 231 1415 409H1540Z"
/>
<glyph unicode="D" glyph-name="D" horiz-adv-x="1539" d="M707 -15L373 -1L92 0L99 110Q189 110 219 136Q272 182 272 286V1229Q272 1334 251 1365T210 1406T160 1415T91 1403L101 1530H353L718 1545Q1494 1545 1494 809Q1494 436 1279 211Q1063 -15 707 -15ZM824
1416Q745 1429 662 1429T489 1409V208Q489 158 496 146T519 129T562 120Q610 115 732 115T949 151T1111 266Q1255 433 1255 763Q1255 1345 824 1416Z" />
<glyph unicode="E" glyph-name="E" horiz-adv-x="1368" d="M955 600L953 568H830Q823 681 804 710Q770 761 681 761H480V279Q480 182 517 150Q553 119 672 115H863Q1063 115 1139 288Q1163 342 1171 410H1295Q1295 296 1272 170L1242 0H87L104 110Q204 110 235
154Q263 192 263 307V1221Q263 1414 176 1414Q140 1414 100 1405L112 1530H888Q1129 1530 1249 1546Q1249 1386 1218 1226Q1210 1188 1204 1168H1102Q1092 1330 1040 1373Q1011 1397 965 1403T848 1409H480V874H687Q787 874 818 917Q838 944 850 1043L972 1044L973
991Q973 864 955 600Z" />
<glyph unicode="F" glyph-name="F" horiz-adv-x="1368" d="M939 1530Q1182 1530 1298 1546Q1298 1309 1253 1159H1147Q1136 1320 1074 1368Q1022 1409 871 1409H479V852H702Q817 852 847 877T889 936T908 1026H1036L1013 549H890Q888 630 865 671T816 722Q794
731 680 732T534 734T479 735V271Q479 179 501 155T552 123T609 115T656 115T696 116Q747 118 779 123L766 0H87L104 110Q204 110 234 154Q262 193 262 307V1221Q262 1414 176 1414Q140 1414 100 1405L112 1530H939Z" />
<glyph unicode="G" glyph-name="G" horiz-adv-x="1709" d="M1501 97Q1303 -16 938 -16Q527 -16 315 192Q112 391 112 747Q112 1072 314 1296Q456 1452 688 1514Q807 1545 925 1545Q1063 1545 1188 1530Q1384 1505 1445 1505L1481 1506Q1481 1315 1453 1103H1314Q1302
1297 1226 1368Q1151 1439 975 1439T683 1386T493 1242Q354 1071 354 782Q354 306 692 158Q814 105 963 105Q1203 105 1271 193V501Q1271 645 1160 656Q1130 659 1086 659T1003 652L1013 787H1621L1607 661Q1560 660 1533 652T1492 614Q1471 569 1471 384Q1471
170 1501 97Z" />
<glyph unicode="H" glyph-name="H" horiz-adv-x="1706" d="M1485 117Q1501 110 1525 110T1605 124L1593 0H1042L1060 110Q1157 110 1192 162Q1221 207 1221 327V726H483V269Q483 162 492 141T514 115T554 110Q604 110 668 126L653 0H90L107 110Q207 110 238 154Q266
192 266 307V1221Q266 1414 181 1414Q145 1414 103 1405L115 1530H648L633 1414Q587 1414 558 1409T512 1384Q483 1348 483 1208V852H1221V1214Q1221 1340 1208 1370T1178 1407T1132 1414Q1085 1414 1032 1402L1051 1530H1607L1593 1414Q1505 1414 1474 1377Q1437
1334 1437 1213V258Q1437 138 1485 117Z" />
<glyph unicode="I" glyph-name="I" horiz-adv-x="853" d="M564 127T586 119T636 110T739 125L727 0H114L125 110Q223 110 267 156Q318 211 318 341L317 1214Q317 1384 266 1407Q250 1414 229 1414Q170 1414 122 1405L138 1530H723L707 1414Q594 1414 563 1376Q534
1342 534 1221V271Q534 175 549 151Z" />
<glyph unicode="J" glyph-name="J" horiz-adv-x="855" d="M74 -310Q212 -163 280 66Q329 233 329 396V1177Q329 1323 315 1360T284 1405T237 1414Q157 1414 121 1406Q122 1405 122 1403L110 1404L128 1530H749L734 1414Q625 1414 595 1390T555 1331T545 1240V332Q545
188 525 114T478 -16T407 -130Q321 -243 149 -386L74 -312V-310Z" />
<glyph unicode="K" glyph-name="K" horiz-adv-x="1536" d="M1435 1412Q1421 1416 1416 1416T1386 1415T1340 1407T1286 1378Q1215 1327 1123 1221L763 806Q910 702 1108 460Q1161 394 1198 341T1269 245T1332 172Q1392 112 1434 112T1510 121L1506 0H1271Q1161
0 1070 115Q1039 154 1012 200Q931 332 893 388L818 496Q690 672 606 737H513V300Q513 200 526 168Q551 110 614 110Q655 110 716 124L703 0H131L143 110Q240 110 268 150Q296 190 296 331V1222Q296 1330 284 1361T255 1403T223 1414T194 1414T168 1412L142 1410Q129
1409 119 1408L137 1530H678L663 1414Q577 1414 552 1388Q513 1345 513 1232V852H582Q616 852 637 869L920 1194Q961 1242 970 1257Q989 1288 1003 1306Q1042 1352 1042 1371Q1042 1421 988 1421Q939 1421 897 1412L914 1530H1453L1435 1412Z" />
<glyph unicode="L" glyph-name="L" horiz-adv-x="1367" d="M1273 447Q1278 392 1278 333Q1278 250 1260 152Q1236 26 1234 0H62L74 115Q170 113 208 154Q253 201 253 331L252 1248Q252 1356 238 1380T209 1409T166 1414T118 1410Q94 1404 86 1404L102 1530H702L688
1413Q559 1413 527 1393T484 1341T472 1254L473 1223V280Q473 132 571 115Q600 110 633 110H798Q1073 110 1126 321Q1142 382 1149 447H1273Z" />
<glyph unicode="M" glyph-name="M" horiz-adv-x="2219" d="M437 131T457 123T509 114T629 129L618 0H79L85 114Q170 112 198 144Q245 197 327 674L419 1240Q426 1282 426 1318Q426 1414 346 1414Q291 1414 243 1402L259 1530H711Q726 1442 771 1292Q870 972 920
827Q1047 460 1101 316Q1402 1204 1441 1339T1492 1530H1941L1926 1414Q1828 1414 1803 1401T1769 1371T1761 1334Q1761 1308 1766 1265L1785 1132Q1852 653 1940 279Q1965 181 1981 157Q2006 118 2053 118Q2118 118 2158 129L2145 0H1546L1559 99Q1641 97 1672
121Q1730 165 1730 254Q1730 291 1716 370L1559 1248L1276 410Q1210 211 1154 13Q1108 13 1006 -17L568 1246Q550 1120 528 992Q480 729 463 640T435 486Q410 337 410 268T413 180T426 146Z" />
<glyph unicode="N" glyph-name="N" horiz-adv-x="1706" d="M1512 17Q1431 10 1380 -19Q1314 80 1224 203L1031 463L812 746L414 1250V301Q414 198 433 164T473 120T516 110T559 111T597 116L630 120Q646 122 655 124L643 0H85L98 110Q191 110 218 131Q269 171
269 284V1221Q269 1332 256 1360T226 1397T182 1406Q150 1406 81 1395L96 1530H514Q546 1434 607 1350L738 1172Q1264 490 1352 383V1244Q1352 1361 1340 1383T1312 1410T1262 1415T1157 1404L1168 1530H1682L1668 1415Q1611 1415 1577 1414T1526 1398Q1497 1377
1497 1269V253Q1497 137 1512 17Z" />
<glyph unicode="O" glyph-name="O" horiz-adv-x="1709" d="M218 276T168 416T120 728T175 1048T327 1306Q541 1546 903 1546Q1208 1546 1396 1348Q1589 1144 1589 797Q1576 455 1378 228Q1244 75 1036 15Q931 -15 794 -15T529 34T310 180ZM544 214T638 163T845
112T1046 150T1201 266Q1344 434 1348 733Q1354 1043 1228 1227Q1096 1418 851 1418Q639 1418 508 1266Q366 1102 360 801Q354 489 481 305Q544 214 638 163Z" />
<glyph unicode="P" glyph-name="P" horiz-adv-x="1364" d="M559 124T588 117T663 110T783 130L771 0H125L136 109Q225 109 260 164Q293 215 293 331L292 1240Q292 1360 283 1383T255 1414T200 1422Q145 1422 94 1411L112 1530H314Q504 1530 586 1536Q727 1545
839 1544T1049 1509T1206 1415Q1321 1301 1321 1095Q1321 873 1162 733Q1009 597 777 597Q686 597 593 622L574 739Q662 719 736 719T879 744T994 816Q1092 912 1092 1082Q1092 1432 699 1432Q607 1432 512 1413V261Q512 171 535 148Z" />
<glyph unicode="Q" glyph-name="Q" horiz-adv-x="1709" d="M893 -11Q865 -13 837 -13Q524 -13 338 182Q143 387 149 738Q155 1083 356 1308Q570 1548 932 1548Q1237 1548 1426 1350Q1618 1146 1618 799Q1608 523 1472 318Q1328 99 1084 23Q1174 -20 1237 -81Q1360
-198 1454 -204Q1509 -207 1591 -190L1625 -320Q1544 -401 1410 -401Q1255 -401 1125 -249Q1090 -208 1062 -172T1012 -110T970 -65Q932 -28 893 -11ZM389 806Q386 651 416 525T510 307Q644 114 887 114Q1099 114 1230 268Q1373 436 1377 735Q1383 1045 1256 1229Q1125
1420 880 1420Q668 1420 537 1268Q395 1104 389 806Z" />
<glyph unicode="R" glyph-name="R" horiz-adv-x="1535" d="M549 131T571 121T635 110T742 126L731 0H141L153 110Q256 112 284 164Q308 206 308 350L307 1251Q307 1349 298 1372Q280 1414 216 1414Q165 1414 112 1402L128 1530H416L822 1545Q1190 1545 1288 1316Q1318
1244 1318 1154T1285 988T1200 856Q1096 742 958 709Q1058 658 1174 462L1289 266Q1378 119 1428 119Q1467 117 1513 132L1508 0H1356Q1205 0 1112 103Q1066 161 1031 253L976 393Q939 485 888 552T802 643Q738 684 602 684H518V280Q518 185 533 158ZM892 1408Q828
1429 778 1429H654Q579 1429 518 1413V804H759Q895 806 986 888Q1083 977 1083 1122Q1083 1348 892 1408Z" />
<glyph unicode="S" glyph-name="S" horiz-adv-x="1364" d="M1172 1526Q1174 1486 1174 1386T1142 1113H1032Q1026 1366 832 1418Q771 1435 688 1435T548 1413T458 1356Q401 1295 406 1196Q414 1044 626 934Q689 901 752 873T871 818T979 758T1076 688T1157 607Q1231
513 1239 404Q1239 201 1078 88Q929 -16 685 -16Q607 -16 467 10Q327 36 273 36T178 30L170 32Q169 54 169 76V118Q169 329 192 460H305Q317 179 508 116Q576 93 661 93T809 112T915 166Q1007 237 1007 348Q997 506 766 616Q699 648 658 666L607 688Q596 693 554
711T441 773T315 874Q195 999 191 1159Q187 1332 334 1440Q478 1545 712 1545Q748 1545 822 1536L948 1520Q1002 1513 1056 1513T1172 1526Z" />
<glyph unicode="T" glyph-name="T" horiz-adv-x="1535" d="M1446 1476L1434 1128H1293Q1293 1216 1289 1270T1264 1354T1196 1394T1067 1407H878V290Q878 176 895 151T937 119T984 112T1030 113T1077 118Q1144 124 1157 128L1145 0L377 1L385 112Q483 112 537
118T618 144T651 204T657 312V1407H500Q334 1403 276 1346Q219 1290 205 1128H65Q74 1208 88 1294T109 1430L123 1530H1444Q1446 1519 1446 1506V1476Z" />
<glyph unicode="U" glyph-name="U" horiz-adv-x="1537" d="M1174 1393T1155 1403T1106 1414T1022 1402L1033 1530H1514L1499 1414Q1404 1414 1380 1370Q1360 1332 1360 1193V610Q1360 302 1221 144T789 -15Q482 -15 332 159Q195 319 195 617V1014L194 1202V1260Q194
1367 180 1388T150 1411T120 1414Q89 1414 36 1402L50 1530H613L598 1414Q475 1414 444 1381Q414 1349 414 1221V646Q414 112 788 112Q917 112 982 141T1085 207T1152 302Q1209 425 1209 636V1196Q1209 1319 1192 1356Z" />
<glyph unicode="V" glyph-name="V" horiz-adv-x="1364" d="M794 13Q708 13 654 -16L645 -15L300 802Q184 1087 158 1158T113 1272T78 1348Q41 1414 0 1414Q-23 1414 -57 1404L-43 1530H541L523 1414Q331 1414 331 1345Q331 1331 335 1320Q714 313 741 245L1014
1018L1062 1166Q1106 1309 1106 1336T1098 1377T1078 1400Q1059 1414 1013 1414T923 1402L933 1530H1443L1430 1414Q1351 1414 1328 1397T1292 1356T1268 1297L794 13Z" />
<glyph unicode="W" glyph-name="W" horiz-adv-x="2214" d="M941 1414L872 1404L884 1530H1496L1477 1414Q1354 1414 1322 1405T1281 1384T1271 1351T1274 1318T1290 1265Q1579 328 1598 262Q1884 1045 1911 1123Q1971 1297 1971 1330T1961 1378T1938 1401Q1914
1414 1867 1414T1774 1402L1785 1530H2311L2297 1414Q2217 1414 2193 1396Q2154 1369 2136 1315L1659 13Q1551 6 1504 -16L1494 -15L1147 1014Q848 121 834 76L818 26Q815 18 814 13Q706 6 659 -16L649 -15Q260 1035 204 1176L168 1278Q134 1370 110 1392T55 1414T-9
1400L4 1530H577L562 1414Q458 1414 431 1406Q382 1392 382 1349Q382 1320 398 1272L745 276L1074 1240Q1018 1414 941 1414Z" />
<glyph unicode="X" glyph-name="X" horiz-adv-x="1535" d="M872 120Q914 115 960 115Q1056 115 1054 182Q1052 224 992 305L740 642Q498 318 460 254T422 171Q420 117 496 117Q550 117 587 124L568 0H29L49 117Q116 117 180 152Q200 162 213 175Q328 309 434 446L649
727Q650 729 663 745Q273 1269 242 1308T184 1370Q129 1414 55 1414L66 1530H687L668 1414Q556 1414 528 1405T493 1383T485 1357T488 1337T497 1317T520 1281L650 1097L800 896Q1124 1324 1124 1372Q1124 1398 1105 1406T1058 1414Q1011 1414 953 1402L974 1530H1494L1474
1414Q1358 1414 1320 1365L1200 1213L876 794L1299 235L1334 192Q1398 115 1461 115Q1495 115 1527 123L1514 0H865L872 120Z" />
<glyph unicode="Y" glyph-name="Y" horiz-adv-x="1364" d="M843 130T863 120T940 109T1060 125L1051 0H353L361 109H404Q532 109 561 133T597 191T605 280V534L126 1329Q94 1376 65 1390Q14 1414 -56 1414L-41 1530H567L541 1414Q438 1414 415 1406T383 1384T374
1345T388 1283T425 1202T480 1108L612 898Q646 843 675 789L734 664Q886 947 922 1021L984 1150Q1041 1273 1045 1300T1049 1346T1040 1379Q1020 1414 960 1414Q920 1414 860 1402L875 1530H1433L1414 1414Q1327 1414 1295 1390Q1246 1352 1196 1248L819 534V348Q819
194 831 162Z" />
<glyph unicode="Z" glyph-name="Z" horiz-adv-x="1365" d="M984 1414H531Q410 1414 351 1332Q323 1294 305 1241T268 1126H127Q169 1277 169 1537L304 1533Q390 1530 527 1530H1237L1273 1460L391 115H817Q1012 115 1104 280Q1136 338 1158 421L1284 420Q1284
327 1267 225L1230 0H146L101 68L984 1414Z" />
<glyph unicode="[" glyph-name="bracketleft" horiz-adv-x="1085" d="M278 1868H732L716 1752Q545 1752 513 1733T475 1682T468 1596V-111Q468 -182 478 -197Q491 -220 521 -220T585 -219T652 -214Q730 -209 751 -204L737 -339H278V1868Z" />
<glyph unicode="\" glyph-name="backslash" horiz-adv-x="1023" d="M223 1668H65L802 0H958L223 1668Z" />
<glyph unicode="]" glyph-name="bracketright" horiz-adv-x="1085" d="M785 -338H331L347 -222Q518 -222 550 -203T588 -152T595 -66V1641Q595 1712 585 1727Q572 1750 542 1750T478 1749T411 1744Q333 1739 312 1734L326 1869H785V-338Z" />
<glyph unicode="^" glyph-name="asciicircum" horiz-adv-x="1364" d="M577 1530H793L1166 562H969L676 1325L371 562H194L577 1530Z" />
<glyph unicode="_" glyph-name="underscore" horiz-adv-x="1533" d="M1560 -165L1541 -311H-37L-18 -165H1560Z" />
<glyph unicode="`" glyph-name="grave" horiz-adv-x="1287" d="M275 1590L397 1760L828 1416L755 1303L275 1590Z" />
<glyph unicode="a" glyph-name="a" horiz-adv-x="1195" d="M1021 871L1005 340Q1005 233 1070 186Q1115 153 1185 153Q1181 102 1144 61Q1079 -11 1038 -22Q976 -22 922 20T837 143Q723 35 558 -10Q512 -23 451 -23T320 0T203 67Q108 154 108 304Q108 486 312
587Q502 681 812 681H823Q823 744 821 804L820 844Q815 965 733 1028Q668 1078 573 1078T420 1028T362 882Q362 847 370 807H191L184 809Q181 825 178 843Q169 886 164 932T158 994Q158 1016 166 1026Q425 1209 673 1209Q915 1209 992 1033Q1021 968 1021 871ZM812
301Q819 427 822 571Q811 575 756 575T616 558T468 507Q334 436 334 317Q334 234 388 178Q443 122 530 122Q638 122 752 219Q786 248 812 280V301Z" />
<glyph unicode="b" glyph-name="b" horiz-adv-x="1362" d="M1004 91T897 38T629 -15T334 41L206 -23L196 -21Q208 195 208 321V547L202 1365Q202 1454 194 1473T178 1503T154 1519T119 1528Q92 1532 40 1532H15L27 1646L429 1705Q410 1620 410 1195L402 1063Q527
1163 684 1198Q732 1209 794 1209T941 1181T1094 1087Q1247 938 1247 642Q1247 373 1082 182Q1004 91 897 38ZM410 213Q454 148 598 120Q640 112 703 112T836 147T954 247Q1050 379 1050 617Q1050 809 949 925Q849 1040 686 1040Q617 1040 547 1012Q431 966 408
940L410 941V213Z" />
<glyph unicode="c" glyph-name="c" horiz-adv-x="1191" d="M718 162Q880 162 1047 253L1085 172Q1037 118 956 74Q787 -17 663 -17T439 21T266 132Q113 284 113 539Q113 849 298 1036Q469 1209 727 1209Q868 1209 1009 1166L1036 1158Q1049 1154 1059 1152Q1067
1136 1067 1080T1065 993T1059 932T1051 880L1045 844Q1039 834 983 834Q915 834 894 843Q894 962 865 1005T791 1069T674 1089T539 1059T430 968Q328 836 328 610Q328 287 546 194Q619 162 718 162Z" />
<glyph unicode="d" glyph-name="d" horiz-adv-x="1362" d="M544 1184Q620 1209 720 1209T925 1181V1201Q925 1437 917 1461T898 1497T868 1516T827 1528Q799 1532 730 1532H711L726 1646L1142 1704Q1142 1695 1141 1689T1136 1662T1130 1588Q1122 1449 1122 1214V302Q1122
224 1139 192T1189 160Q1231 160 1285 179L1314 188Q1312 176 1311 155T1307 110T1304 60L990 -18Q979 -13 960 43T933 125Q806 35 663 -2Q613 -15 542 -15T387 21T242 128Q109 279 109 545Q109 719 189 875Q309 1110 544 1184ZM616 168Q672 170 724 181T818 206Q907
235 927 255L925 254V981Q881 1047 756 1074Q720 1082 662 1082T537 1056T421 969Q321 844 321 577Q321 397 412 278Q499 165 616 168Z" />
<glyph unicode="e" glyph-name="e" horiz-adv-x="1195" d="M674 156Q872 169 1023 251L1067 167Q916 42 723 -4Q665 -17 617 -17Q240 -17 142 316Q110 423 110 565T156 828T279 1032T455 1163T660 1209Q1085 1209 1085 723V713Q1085 586 1055 586H319Q319 377
411 268T674 156ZM857 714Q858 735 858 746V779Q858 1014 728 1068Q681 1088 628 1088T537 1072T468 1028T408 963T361 880Q319 787 319 690L857 714Z" />
<glyph unicode="f" glyph-name="f" horiz-adv-x="852" d="M457 1037L458 246Q458 155 476 135T516 111T560 106T603 106T654 108Q721 110 766 116L753 0H69L82 106Q145 106 180 113T232 144T254 213T258 335L256 1037H80L91 1145Q136 1148 191 1165T258 1188Q254
1216 254 1257T267 1354T307 1464T372 1564T462 1648Q572 1724 713 1724Q894 1724 958 1616Q987 1568 987 1517Q987 1455 968 1373L965 1355H806V1441Q806 1505 780 1529Q734 1573 638 1573Q505 1573 462 1444Q445 1396 445 1327T456 1190H787L775 1037H457Z" />
<glyph unicode="g" glyph-name="g" horiz-adv-x="1195" d="M468 386Q405 336 405 301T418 248T460 219Q496 205 638 189L734 177Q934 152 1020 98Q1129 29 1129 -106Q1129 -290 982 -405Q836 -518 600 -518Q247 -518 136 -356Q101 -304 101 -247T117 -146T164
-63Q227 16 330 58Q212 111 212 197Q212 286 301 376Q325 401 348 415Q164 483 124 674Q112 728 112 795T151 939T262 1077Q420 1209 657 1209Q767 1209 861 1165L1175 1210V1040L1011 1037Q1072 947 1072 831T1027 635T908 500Q758 384 566 384Q532 384 508 384T468
386ZM608 504Q669 504 716 521T799 574Q873 646 873 775Q873 910 800 992Q723 1079 590 1079Q469 1079 404 1029Q315 962 315 797Q315 680 399 594Q487 504 608 504ZM439 27Q312 -47 312 -191Q312 -284 402 -338Q488 -389 602 -389T781 -374T886 -332Q965 -281
965 -188Q965 -90 862 -50Q790 -21 541 13L439 27Z" />
<glyph unicode="h" glyph-name="h" horiz-adv-x="1365" d="M415 1029Q628 1209 841 1209Q1063 1209 1136 1010Q1160 943 1160 858T1157 693T1150 532Q1133 189 1141 160T1158 120Q1181 94 1297 117L1285 0H772L786 106Q903 106 929 190Q954 279 956 414T959 617T958
727T951 810T933 891T898 961Q850 1028 762 1028Q619 1028 478 942L415 905V208Q415 147 430 130Q452 106 479 106Q553 106 595 117L579 0H58L74 106Q167 106 194 162Q215 207 215 357V1365Q215 1468 188 1501Q157 1532 49 1532H24L36 1646L437 1705Q415 1609 415
1195V1029Z" />
<glyph unicode="i" glyph-name="i" horiz-adv-x="683" d="M433 1406Q405 1395 372 1395T310 1406T260 1438Q214 1480 214 1529T226 1608T260 1658Q306 1703 373 1703Q438 1703 482 1658Q525 1613 525 1545Q525 1444 433 1406ZM509 1210Q464 1080 464 698L471 232Q471
171 490 139T566 106Q612 106 648 118L634 0H97L115 106Q213 106 248 160Q277 206 277 313V836Q277 961 233 998Q198 1028 79 1028L95 1154L509 1210Z" />
<glyph unicode="j" glyph-name="j" horiz-adv-x="683" d="M446 1406Q418 1395 385 1395T323 1406T272 1438Q227 1480 227 1529T239 1608T272 1658Q319 1703 386 1703Q451 1703 494 1658Q538 1613 538 1545Q538 1444 446 1406ZM481 698L492 103Q494 -146 360 -318Q262
-443 101 -520L30 -459Q248 -280 280 40Q289 137 289 198V485L288 842Q288 946 239 988Q193 1028 80 1028L96 1154L519 1210Q481 1113 481 698Z" />
<glyph unicode="k" glyph-name="k" horiz-adv-x="1193" d="M970 236Q1093 106 1158 106Q1195 106 1225 120L1215 0H1008Q875 0 676 241Q576 366 535 423L466 518Q438 555 415 581V236Q415 151 426 133T451 110T482 106Q531 106 561 120L546 0H57L73 106Q162 106
190 152Q217 193 217 313V1365Q217 1468 193 1496T126 1528T26 1532L38 1646L439 1705Q415 1600 415 1195V668Q640 855 697 912Q792 1009 792 1034Q792 1061 774 1067Q743 1079 662 1079L674 1190H1197L1187 1079H1157Q1079 1079 971 978Q830 863 761 802Q625 681
591 648Q592 646 608 627Q813 396 869 338L970 236Z" />
<glyph unicode="l" glyph-name="l" horiz-adv-x="683" d="M475 1705Q454 1596 454 1267V1195L456 238Q456 156 468 136Q487 106 535 106Q602 106 652 117L636 0H57L74 106Q178 106 207 129T245 176T254 237V1365Q254 1450 244 1471T225 1502T199 1519T158 1528Q126
1532 52 1532L64 1646L475 1705Z" />
<glyph unicode="m" glyph-name="m" horiz-adv-x="2049" d="M749 1030Q639 1030 473 915V241Q473 152 489 133T523 110T564 106Q600 106 655 117L640 0H115L131 106Q212 106 244 160Q277 215 277 346V841Q277 944 246 996Q215 1036 111 1036L126 1154L492 1208L484
1153Q476 1086 476 1038L531 1078Q625 1147 713 1178T863 1209Q1079 1209 1154 1032Q1280 1141 1415 1188Q1473 1209 1537 1209T1661 1187T1764 1121Q1856 1027 1856 853Q1856 743 1850 635Q1831 322 1838 244T1852 144Q1866 106 1901 106Q1950 106 2005 117L1991
0H1496L1513 106Q1582 106 1610 139Q1638 174 1645 335T1652 648T1644 863T1611 963Q1568 1029 1430 1029Q1328 1029 1181 929Q1186 884 1186 836Q1186 758 1178 642Q1151 219 1186 144Q1204 106 1254 106T1354 117L1338 0H809L826 106Q916 106 944 133Q974 161
978 339Q981 439 981 616T973 859T940 962Q896 1030 749 1030Z" />
<glyph unicode="n" glyph-name="n" horiz-adv-x="1365" d="M105 106Q188 106 216 148Q248 196 248 346V829Q248 949 219 988Q190 1028 85 1028L101 1154L459 1208Q448 1127 448 1036Q576 1141 716 1188Q776 1209 840 1209T964 1190T1070 1128Q1169 1035 1169 851Q1169
739 1162 632Q1143 311 1150 241T1168 148Q1187 106 1236 106Q1283 106 1321 118L1306 0H794L812 106Q895 106 926 142Q939 157 945 183T956 251T964 350Q970 468 970 617T965 835T938 946Q898 1028 762 1028Q636 1028 496 942L448 913V241Q448 151 462 132T494
110T534 106Q585 106 629 117L612 0H89L105 106Z" />
<glyph unicode="o" glyph-name="o" horiz-adv-x="1365" d="M115 604Q115 739 165 852T299 1046Q472 1209 724 1209Q968 1209 1111 1047Q1248 892 1248 643Q1248 360 1070 170Q895 -15 639 -15Q387 -15 246 164Q115 329 115 604ZM684 112Q760 112 818 139T920 222Q1014
341 1014 566Q1014 806 922 947Q829 1088 669 1088Q528 1088 440 978Q343 857 343 631Q343 396 434 256Q527 112 684 112Z" />
<glyph unicode="p" glyph-name="p" horiz-adv-x="1365" d="M447 -57L449 -254Q449 -342 459 -360T484 -382T536 -387T606 -384Q694 -378 704 -371L686 -508H64L80 -397Q173 -397 199 -369Q247 -319 247 -178V848Q247 969 204 1004Q177 1026 88 1026L104 1154L454
1210Q452 1189 450 1166T447 1116T443 1058Q568 1161 726 1198Q776 1209 823 1209T924 1197T1028 1158T1123 1087T1200 980Q1271 844 1271 642Q1271 370 1114 182Q950 -15 694 -15Q548 -15 448 13Q447 -4 447 -22V-57ZM449 213Q490 148 632 120Q672 112 736 112T867
147T978 247Q1063 375 1063 617Q1063 918 881 1008Q815 1040 747 1040T635 1028T552 1000Q470 966 447 940L449 941V213Z" />
<glyph unicode="q" glyph-name="q" horiz-adv-x="1365" d="M949 134Q787 -15 587 -15Q395 -15 271 115Q126 267 126 552Q126 815 299 1010Q475 1209 723 1209Q859 1209 979 1170L1154 1211Q1141 1000 1141 718V-249Q1141 -347 1152 -370T1180 -399T1218 -405Q1271
-405 1312 -396L1299 -509H702L713 -397Q836 -397 874 -373T928 -315T943 -225V-43L949 134ZM706 1082Q334 1082 334 577Q334 371 438 264Q533 166 707 166Q806 166 911 229Q936 244 945 254L943 253V981Q899 1046 775 1074Q739 1082 706 1082Z" />
<glyph unicode="r" glyph-name="r" horiz-adv-x="1024" d="M477 115T501 111T604 106T726 118L719 0H75L89 106Q177 106 202 137Q247 193 247 335V817Q247 952 219 984Q188 1020 83 1026L97 1154L456 1208Q446 1135 446 1041Q551 1141 692 1192Q742 1209 787 1209Q979
1209 979 1038Q979 937 950 821Q948 813 947 811T946 807H779L785 854L789 894Q791 913 791 934T788 976T774 1011Q756 1038 713 1038T632 1025T557 994Q484 956 444 916L446 917L447 246Q447 151 462 133Z" />
<glyph unicode="s" glyph-name="s" horiz-adv-x="1031" d="M880 1201Q883 1183 883 1136T872 1020L851 879H727Q725 997 674 1044Q622 1092 507 1092Q373 1092 332 1002Q319 971 319 931T338 859T390 802Q442 760 515 728L634 675Q935 535 939 341Q941 177 812
77Q695 -15 528 -15Q448 -15 357 4Q212 33 190 33H152Q137 33 126 31Q130 221 145 343H275Q280 220 341 163T537 106Q689 106 728 192Q742 223 742 273T716 361T650 424T564 469T467 511T356 567T246 642Q134 741 132 879Q130 1033 264 1126Q385 1209 549 1209Q595
1209 645 1201Q739 1186 778 1186T880 1201Z" />
<glyph unicode="t" glyph-name="t" horiz-adv-x="852" d="M767 213L811 128Q712 36 558 -2Q509 -15 455 -15T356 -3T280 38Q222 94 216 237V1037H42L50 1139Q190 1164 244 1244Q287 1308 317 1497H426V1190H795V1037H418V353Q418 228 454 188Q484 155 579 155T767 213Z" />
<glyph unicode="u" glyph-name="u" horiz-adv-x="1365" d="M1288 182L1296 183H1301L1298 59L1004 -17Q961 50 947 140Q839 50 664 0Q604 -17 541 -17T415 4T306 68Q209 159 209 334L217 899Q217 999 186 1028Q163 1049 91 1056L106 1154L450 1210L430 1024Q409
832 409 440Q409 280 454 216Q498 151 610 151Q711 151 785 180Q903 228 934 266L932 265V889Q932 994 891 1024Q859 1049 748 1051L763 1154L1150 1210Q1147 1158 1144 1120L1140 1053Q1138 1020 1136 994T1133 938Q1131 880 1131 781V305Q1131 209 1147 188T1178
165T1210 163H1219Q1250 163 1288 182Z" />
<glyph unicode="v" glyph-name="v" horiz-adv-x="1196" d="M1168 1079Q1147 1082 1136 1082T1112 1069T1086 1031T1060 974L1030 902Q1025 889 1005 844L633 11L641 8L564 -17L556 -16L135 929Q116 973 103 1000T64 1055T6 1083H-2Q-9 1083 -15 1082L-1 1190H503L488
1084Q472 1081 447 1081T408 1078T378 1066Q342 1042 342 994Q342 965 366 900Q419 764 447 698L582 390Q601 349 608 330Q614 313 621 266L875 903Q897 967 897 999Q897 1054 849 1076Q832 1083 806 1083T742 1077L759 1190H1187L1168 1079Z" />
<glyph unicode="w" glyph-name="w" horiz-adv-x="1877" d="M1855 1074Q1835 1082 1818 1082T1783 1067T1750 1024Q1722 975 1688 878L1371 1L1252 -18L1017 626L971 744Q959 779 955 811L674 1L563 -17L555 -16L194 935Q178 979 177 981Q157 1040 118 1060T23
1081L37 1189H589L569 1074Q534 1081 502 1081T451 1078T421 1066Q396 1049 396 1010T406 926T433 828T471 718L556 496Q576 444 590 408Q609 356 624 278Q782 687 826 825L887 1019Q892 1035 897 1056T907 1100Q915 1136 921 1172Q981 1172 1051 1191Q1092 984
1226 602L1322 334Q1333 305 1338 279L1547 901Q1565 955 1565 1006Q1565 1082 1474 1082Q1450 1082 1407 1076L1424 1190H1874L1855 1074Z" />
<glyph unicode="x" glyph-name="x" horiz-adv-x="1364" d="M753 106Q874 106 874 147Q874 172 836 225Q718 384 645 475Q615 437 588 399Q517 299 503 277T474 236Q424 170 424 153T431 128T450 116Q474 106 493 106Q535 106 569 120L555 0H79L91 106Q172 106
205 132T271 198L566 573L408 768L212 1016Q164 1081 72 1081L84 1189H606L592 1074Q570 1081 534 1081Q463 1081 463 1037Q463 991 523 912L702 684L826 830Q870 885 895 922Q945 998 945 1035Q945 1081 884 1081Q854 1081 816 1076L832 1189H1276L1260 1081Q1171
1081 1053 927L782 589L1025 294L1137 153Q1154 133 1181 120T1226 106Q1257 106 1288 120L1273 0H748L741 2Q744 56 753 106Z" />
<glyph unicode="y" glyph-name="y" horiz-adv-x="1193" d="M1248 1074Q1227 1077 1214 1077T1187 1065T1161 1029T1132 974L1101 901Q1053 788 1001 650L768 32L706 -126Q633 -303 594 -361T518 -451Q441 -518 338 -518Q232 -518 128 -426Q98 -399 76 -369L141
-258L150 -257Q268 -323 348 -323Q456 -323 531 -165Q551 -123 566 -84L605 17L521 56L518 57L170 914Q151 960 138 995T92 1054T43 1078H22Q18 1078 7 1077L21 1189H527L513 1079Q495 1076 472 1076H445Q397 1076 376 1038Q367 1021 367 998T379 933T411 832Q472
664 507 578Q656 205 668 177Q761 431 782 494L873 756Q950 967 950 1015Q950 1078 862 1078Q829 1078 787 1072L804 1189H1265L1248 1074Z" />
<glyph unicode="z" glyph-name="z" horiz-adv-x="1195" d="M799 1069Q741 1071 680 1071Q453 1071 379 1039Q290 1000 276 847H147L181 1190H1057L1074 1087Q1069 1081 1041 1045Q633 480 550 357T396 116Q675 116 748 127T851 151T905 194Q958 254 986 387H1111L1064
0H158L119 87V89L584 748L706 926Q762 1009 799 1069Z" />
<glyph unicode="{" glyph-name="braceleft" horiz-adv-x="1085" d="M592 -187T630 -200T722 -213T821 -191L819 -333Q779 -337 710 -337T566 -305T437 -218Q323 -102 323 68Q323 128 341 184T380 296T419 408T437 516T425 605T384 665Q328 712 195 712V839Q387
839 424 946Q437 982 437 1035T419 1144T380 1256Q358 1312 341 1367T323 1494T353 1640T437 1769Q554 1888 731 1888Q772 1888 808 1884H819L821 1742Q777 1764 723 1764T630 1751T569 1710Q527 1661 527 1544Q527 1464 563 1363T616 1207T632 1073T583 912T444
775Q534 721 583 639T632 478T616 345T580 233Q527 85 527 18T536 -91T569 -160Z" />
<glyph unicode="|" glyph-name="bar" horiz-adv-x="855" d="M350 1868H503V-339H350V1868Z" />
<glyph unicode="}" glyph-name="braceright" horiz-adv-x="1085" d="M471 -187T433 -200T341 -213T242 -191L244 -333Q284 -337 353 -337T497 -305T626 -218Q740 -102 740 68Q740 128 722 184T683 296T644 408T626 516T638 605T679 665Q735 712 868 712V839Q676
839 639 946Q626 982 626 1035T644 1144T683 1256Q705 1312 722 1367T740 1494T710 1640T626 1769Q509 1888 332 1888Q291 1888 255 1884H244L242 1742Q286 1764 340 1764T433 1751T494 1710Q536 1661 536 1544Q536 1464 500 1363T447 1207T431 1073T480 912T619
775Q529 721 480 639T431 478T447 345T483 233Q536 85 536 18T527 -91T494 -160Z" />
<glyph unicode="~" glyph-name="asciitilde" horiz-adv-x="1024" d="M660 616T712 616T843 700L906 595Q891 561 847 524Q752 446 659 446Q609 446 530 494Q527 495 477 524T406 563Q358 585 328 585T282 581T250 566Q223 550 174 499L110 605Q113 612 133 636T186
686Q272 754 359 754Q419 754 513 698Q563 667 611 642Z" />
<glyph unicode="&#xa0;" glyph-name="nbspace" horiz-adv-x="683" />
<glyph unicode="&#xa1;" glyph-name="exclamdown" horiz-adv-x="684" d="M390 1106L412 1107L477 -76Q446 -119 279 -154Q240 -162 221 -162L193 -111L275 1081Q322 1104 390 1106ZM502 1407Q502 1341 455 1296Q407 1250 359 1250T281 1262T229 1296Q182 1342
182 1407Q182 1471 229 1518Q276 1565 343 1565Q407 1565 455 1518Q502 1473 502 1407Z" />
<glyph unicode="&#xa2;" glyph-name="cent" horiz-adv-x="1191" d="M654 -17L624 -16L600 -250H479L504 1Q329 46 226 184Q121 328 121 539Q121 817 270 999Q408 1168 626 1202L651 1443H772L748 1209Q869 1206 999 1166L1048 1152Q1056 1136 1056 1080T1054 993T1048
932Q1042 885 1035 844Q1029 834 968 834T886 843Q886 946 866 987T816 1051T735 1083L642 167Q684 162 714 162Q872 162 1037 253L1073 172Q975 67 797 6Q728 -17 654 -17ZM614 1084Q492 1061 414 942Q332 814 332 638T379 358T525 203L614 1084Z" />
<glyph unicode="&#xa3;" glyph-name="sterling" horiz-adv-x="1535" d="M1191 208Q1191 281 1128 422L1236 475Q1313 427 1358 358Q1380 323 1380 267T1353 151T1274 48Q1168 -40 986 -40Q881 -40 751 33L702 58Q614 103 550 103Q413 103 240 -30Q226 -41 190
18Q152 80 157 111L226 144Q291 172 327 195T397 246T456 312Q512 393 512 505Q512 546 486 615L448 716Q330 713 177 701L206 845L302 841Q351 839 402 838Q346 999 346 1097T381 1281T482 1432Q625 1572 858 1572Q911 1572 1011 1557T1169 1496T1227 1387Q1227
1311 1188 1244Q1175 1222 1160 1210H1041Q1041 1306 1006 1356Q933 1457 786 1455Q709 1455 634 1384Q554 1307 554 1209Q554 1104 608 956L653 836Q898 836 1100 845L1072 701Q899 714 693 718Q724 616 724 547T705 430T654 339Q597 262 502 190Q596 233 671
233T800 213T896 170T987 129T1074 110T1131 119T1163 142Q1191 174 1191 208Z" />
<glyph unicode="&#xa4;" glyph-name="currency" horiz-adv-x="1535" d="M1221 715Q1221 578 1148 458L1306 310L1185 190L1039 348Q982 302 904 283T764 263Q607 263 485 348L347 193L227 310L379 451Q347 483 328 568T308 713Q308 868 385 980L227 1128L351 1253L498
1087Q607 1169 757 1169T1038 1089L1181 1251L1301 1128L1142 986Q1179 949 1200 863T1221 715ZM499 854Q478 795 478 717T499 578T558 478Q637 395 768 395Q966 395 1028 577Q1049 637 1049 716T1027 856T966 956Q890 1036 762 1036Q563 1036 499 854Z" />
<glyph unicode="&#xa5;" glyph-name="yen" horiz-adv-x="1625" d="M1055 107Q1135 107 1179 119L1169 0H466L475 116L589 112Q651 112 671 130Q707 164 707 242L706 375Q531 371 349 358L378 502Q505 495 706 493L705 689L616 690Q466 690 336 681L365 825Q387
824 414 822T469 818T524 814L573 809Q584 807 596 806L619 804Q565 874 518 942Q291 1268 254 1316T199 1378T159 1400Q119 1413 46 1413L61 1529H714L688 1413Q574 1413 546 1404T508 1381T498 1343T519 1275T579 1168T675 1022L802 841L823 801Q850 848 881
896L996 1070Q1134 1273 1134 1373Q1134 1413 1074 1413Q1033 1413 973 1401L988 1529H1546L1527 1413Q1440 1413 1398 1386T1328 1327T1269 1247L983 798Q1019 800 1055 803T1138 811Q1255 821 1339 825L1311 681Q1199 690 1045 690L938 689V493Q1182 496 1292
502L1264 358Q1103 370 938 374V239Q938 150 947 133Q961 106 1019 106L1055 107Z" />
<glyph unicode="&#xa6;" glyph-name="brokenbar" horiz-adv-x="855" d="M350 1868H503V903H350V1868ZM350 614H503V-339H350V614Z" />
<glyph unicode="&#xa7;" glyph-name="section" horiz-adv-x="1320" d="M890 -117T806 -144T658 -171T503 -164T349 -157T249 -160L282 202L397 210Q417 54 466 -6Q516 -67 612 -67T758 -51T838 -6Q887 44 887 143Q887 292 756 363Q716 385 662 404L550 442Q343
515 262 603Q192 679 192 789Q192 942 340 1057Q228 1178 228 1332Q228 1491 361 1596Q493 1699 687 1699Q713 1699 742 1697L801 1693Q902 1685 964 1685T1062 1688L1030 1326L916 1318Q896 1475 848 1534Q799 1596 702 1596T554 1575T476 1522Q426 1468 426 1396T442
1279T488 1203Q539 1147 638 1114L824 1050Q1009 983 1082 872Q1123 811 1123 721Q1123 567 962 465Q1083 346 1083 196Q1083 37 952 -68Q890 -117 806 -144ZM854 547Q926 592 926 646T896 738T814 806T696 863L554 917Q495 938 442 973Q367 905 383 834Q403 735
534 679Q571 663 610 650L689 624Q772 597 854 547Z" />
<glyph unicode="&#xa8;" glyph-name="dieresis" horiz-adv-x="1025" d="M683 1398T639 1440T594 1528T606 1601T638 1650Q682 1693 749 1693Q811 1693 854 1650T898 1541Q898 1482 854 1440Q810 1398 763 1398Q683 1398 639 1440ZM125 1482T125 1527T137 1601T170
1650Q216 1693 283 1693Q346 1693 387 1650T429 1541Q429 1482 388 1440Q345 1398 298 1398Q217 1398 171 1440Z" />
<glyph unicode="&#xa9;" glyph-name="copyright" horiz-adv-x="2044" d="M203 614Q173 723 173 842T203 1071T288 1274T420 1444T590 1573Q786 1684 1017 1684Q1247 1684 1444 1573Q1635 1466 1747 1274Q1862 1079 1862 841Q1862 608 1747 412Q1635 222 1444 112Q1248
-2 1017 -2Q666 -2 420 242Q263 399 203 614ZM310 841Q310 531 515 316Q645 180 827 128Q918 102 1042 102T1295 159T1520 316T1671 550T1726 815T1701 1040T1631 1218T1521 1367T1377 1482Q1212 1581 1017 1581Q822 1581 658 1482Q411 1333 335 1040Q310 945 310
841ZM624 523T584 608T543 799T575 996T671 1156Q814 1314 1051 1314Q1161 1314 1373 1288L1344 1037H1245Q1215 1134 1191 1156Q1151 1193 1063 1193T917 1167T823 1095Q752 1007 752 846Q752 561 950 506Q1008 490 1058 490T1138 497T1191 524Q1237 561 1272
662H1371Q1362 599 1357 561T1348 499L1342 456Q1339 435 1337 420T1333 397L1264 385Q1139 363 1029 363T837 388T690 468Z" />
<glyph unicode="&#xaa;" glyph-name="ordfeminine" horiz-adv-x="1026" d="M863 677Q745 677 688 775Q598 710 470 684Q436 677 391 677T292 696T198 752Q118 826 118 948Q118 1098 278 1183Q423 1260 652 1264L649 1440Q647 1526 595 1562Q559 1588 495 1588Q365
1588 365 1473Q365 1446 371 1413H181Q178 1425 174 1438Q165 1473 161 1506Q155 1557 164 1568Q164 1568 220 1600Q390 1697 569 1697Q765 1697 836 1574Q862 1528 862 1470T860 1344L852 1057Q850 987 850 940T864 866T900 825Q936 801 989 801Q970 739 901 698L866
677H863ZM470 809Q561 809 658 887V896L653 1179Q526 1179 436 1122Q343 1062 343 967Q343 899 369 866Q414 809 470 809Z" />
<glyph unicode="&#xab;" glyph-name="guillemotleft" horiz-adv-x="1705" d="M775 1122L888 1047L583 600L888 151L772 67L265 600L775 1122ZM1326 1122L1439 1047L1134 600L1439 151L1323 67L816 600L1326 1122Z" />
<glyph unicode="&#xac;" glyph-name="logicalnot" horiz-adv-x="1193" d="M176 669H1026V138H832V506H157L176 669Z" />
<glyph unicode="&#xad;" glyph-name="uni00AD" horiz-adv-x="1229" />
<glyph unicode="&#xae;" glyph-name="registered" horiz-adv-x="2039" d="M203 614Q173 723 173 842T203 1071T288 1274T420 1444T590 1573Q786 1684 1017 1684Q1247 1684 1444 1573Q1635 1466 1747 1274Q1862 1079 1862 841Q1862 608 1747 412Q1635 222 1444
112Q1248 -2 1017 -2Q666 -2 420 242Q263 399 203 614ZM310 841Q310 531 515 316Q645 180 827 128Q918 102 1042 102T1295 159T1520 316T1671 550T1726 815T1701 1040T1631 1218T1521 1367T1377 1482Q1212 1581 1017 1581Q822 1581 658 1482Q411 1333 335 1040Q310
945 310 841ZM1049 1334Q1372 1334 1372 1092Q1372 996 1294 920Q1230 857 1140 836Q1151 828 1183 788L1367 549Q1413 488 1428 484T1459 478T1490 476T1517 478V367L1379 364Q1285 364 1244 410T1166 516L1085 655Q1027 770 959 784Q942 788 926 789V540Q926
491 931 481Q940 462 959 463Q1003 465 1053 476L1037 363L639 364L645 468Q699 467 719 495T739 581L738 1148Q738 1204 734 1214Q729 1230 704 1230L633 1229Q621 1228 614 1228V1330H829L1049 1334ZM1100 1209T1075 1215T1011 1221T926 1210V886Q969 884 1010
880Q1121 892 1157 1000Q1168 1033 1168 1075T1155 1146T1121 1192Z" />
<glyph unicode="&#xaf;" glyph-name="overscore" horiz-adv-x="678" d="M-40 1620H725L705 1458H-60L-40 1620Z" />
<glyph unicode="&#xb0;" glyph-name="degree" horiz-adv-x="1193" d="M595 847Q418 847 291 972Q162 1099 162 1273Q162 1448 291 1574Q419 1698 595 1698Q770 1698 898 1574Q1027 1449 1027 1273Q1027 1097 898 972Q770 847 595 847ZM595 978Q708 978 789 1061Q871
1145 871 1273Q871 1399 789 1484Q709 1568 595 1568Q481 1568 401 1484Q319 1399 319 1273Q319 1145 401 1061Q482 978 595 978Z" />
<glyph unicode="&#xb1;" glyph-name="plusminus" horiz-adv-x="1370" d="M172 173H502V506H148L167 669H502V1031H688V669H1043L1024 506H688V173H1038L1018 11H152L172 173Z" />
<glyph unicode="&#xb2;" glyph-name="twosuperior" horiz-adv-x="1026" d="M124 1606Q148 1602 170 1602Q207 1602 251 1616T320 1638T374 1651Q442 1665 514 1665T649 1650T760 1600Q862 1529 862 1386Q862 1286 754 1160Q632 1019 425 894Q376 865 348 851Q490
851 574 860L704 873Q748 883 770 913T804 1007H943L908 713H107Q81 733 81 783Q110 806 146 832L364 987Q639 1190 639 1389Q639 1512 546 1544Q518 1554 473 1554T387 1536T320 1484Q270 1422 270 1312H128Q128 1402 126 1456Q124 1546 124 1606Z" />
<glyph unicode="&#xb3;" glyph-name="threesuperior" horiz-adv-x="1031" d="M872 1434Q872 1292 716 1216Q824 1194 882 1122Q931 1062 931 994T900 871T814 777Q697 695 510 695Q417 695 347 712Q230 739 182 739L175 741Q167 802 167 873T174 992H274Q284 795
511 795Q675 795 710 904Q720 936 720 970Q720 1142 501 1142Q492 1142 483 1142Q469 1142 429 1136Q422 1136 412 1178T401 1227Q546 1234 610 1279T675 1417Q675 1518 589 1554Q562 1566 528 1566Q312 1566 309 1361H189Q178 1449 178 1507T185 1626L198 1625H204Q242
1625 314 1638Q480 1668 547 1668T674 1655T778 1614Q872 1553 872 1434Z" />
<glyph unicode="&#xb4;" glyph-name="acute" horiz-adv-x="1287" d="M584 1416L1016 1760L1138 1590L657 1303L584 1416Z" />
<glyph unicode="&#xb5;" glyph-name="mu" horiz-adv-x="1537" d="M383 26Q421 -182 512 -266Q512 -361 472 -422Q437 -475 393 -475Q349 -475 300 -422Q243 -360 243 -277V504L246 885Q246 1077 203 1136L495 1192Q464 882 464 408Q464 259 488 211T546 142T637
121T739 135T823 172Q890 211 945 276L943 275V875Q943 1074 904 1136L1173 1192Q1158 907 1158 663V283Q1158 167 1190 150Q1200 145 1211 145Q1300 145 1366 220L1430 152Q1339 9 1182 -31Q1139 -42 1103 -42Q972 -42 955 137Q907 72 804 19Q695 -37 584 -37T383
26Z" />
<glyph unicode="&#xb6;" glyph-name="paragraph" horiz-adv-x="1364" d="M666 508H635Q458 508 324 594Q154 704 154 950Q154 1153 268 1270Q353 1358 497 1392Q579 1412 635 1412T736 1412T834 1413T945 1415T1052 1418Q1163 1421 1171 1426Q1159 1391 1153 1261T1146
1075V-169H977L980 1284L835 1283V-169H673L666 -167V508Z" />
<glyph unicode="&#xb7;" glyph-name="middot" horiz-adv-x="852" d="M424 585Q390 585 360 598T306 634Q255 683 255 752Q255 822 306 871Q356 920 424 920Q494 920 544 871Q595 822 595 752Q595 683 544 634Q493 585 424 585Z" />
<glyph unicode="&#xb8;" glyph-name="cedilla" horiz-adv-x="1707" d="M604 -488T558 -501T425 -515T273 -496L285 -328L296 -326Q366 -354 425 -354T504 -348T536 -330Q558 -312 560 -285Q563 -245 512 -202Q472 -165 456 -99Q445 -52 466 -16Q473 -6 483 8L507
44H588Q578 23 578 -4Q578 -53 647 -112Q751 -199 746 -284Q739 -393 644 -460Q604 -488 558 -501Z" />
<glyph unicode="&#xb9;" glyph-name="onesuperior" horiz-adv-x="855" d="M164 827H265Q336 825 349 845Q368 871 368 971V1330Q368 1406 356 1436T307 1467T228 1457T146 1437L117 1546L598 1669Q577 1609 574 1554L570 1480Q569 1463 569 1451V998Q569 868 596
838Q608 824 640 824Q712 824 776 839L763 713H151L164 827Z" />
<glyph unicode="&#xba;" glyph-name="ordmasculine" horiz-adv-x="1026" d="M502 678Q400 678 324 713T198 813Q99 942 103 1179Q107 1414 216 1553Q330 1697 525 1697Q726 1697 829 1561Q926 1432 922 1194Q918 957 810 821Q698 678 502 678ZM381 862T420 824T521
786T615 809T668 880Q697 954 698 1094T693 1312T665 1451Q618 1590 504 1592Q403 1594 362 1495Q328 1410 326 1213Q324 1029 352 946Z" />
<glyph unicode="&#xbb;" glyph-name="guillemotright" horiz-adv-x="1705" d="M379 1122L266 1047L571 600L266 151L382 67L889 600L379 1122ZM930 1122L817 1047L1122 600L817 151L933 67L1440 600L930 1122Z" />
<glyph unicode="&#xbc;" glyph-name="onequarter" horiz-adv-x="2219" d="M1583 1901L1664 1857Q1684 1845 1690 1842L592 -233L484 -173L1583 1901ZM1647 -19Q1650 -1 1650 99V276H1201L1149 391L1652 995Q1702 999 1764 1010L1855 1022V419H2097L2082 276H1855V157L1857
20Q1805 8 1753 0T1647 -19ZM1650 418V843L1323 420L1650 418ZM251 829H352Q423 827 436 847Q455 873 455 973V1332Q455 1408 443 1438T394 1469T315 1459T233 1439L204 1548L685 1671Q664 1611 661 1556L657 1482Q656 1465 656 1453V1000Q656 870 683 840Q695
826 728 826Q799 826 863 841L850 715H238L251 829Z" />
<glyph unicode="&#xbd;" glyph-name="onehalf" horiz-adv-x="2219" d="M1583 1901L1664 1857Q1684 1845 1690 1842L592 -233L484 -173L1583 1901ZM1305 898Q1329 894 1352 894Q1388 894 1432 908T1501 930T1555 943Q1623 957 1695 957T1830 942T1942 892Q2043
821 2043 678Q2043 578 1934 452Q1813 311 1606 186Q1557 157 1529 143Q1671 143 1755 152L1885 165Q1929 175 1951 205T1985 299H2124L2089 5H1288Q1262 25 1262 75Q1291 98 1326 124L1544 279Q1820 482 1820 681Q1820 804 1726 836Q1699 846 1654 846T1568 828T1501
776Q1451 714 1451 604H1309Q1309 694 1308 748Q1305 838 1305 898ZM246 829H347Q418 827 431 847Q450 873 450 973V1332Q450 1408 438 1438T389 1469T310 1459T228 1439L199 1548L680 1671Q659 1611 656 1556L652 1482Q651 1465 651 1453V1000Q651 870 678 840Q690
826 722 826Q794 826 858 841L845 715H233L246 829Z" />
<glyph unicode="&#xbe;" glyph-name="threequarters" horiz-adv-x="2219" d="M1583 1901L1664 1857Q1684 1845 1690 1842L592 -233L484 -173L1583 1901ZM1647 -19Q1650 -1 1650 99V276H1201L1149 391L1652 995Q1702 999 1764 1010L1855 1022V419H2097L2082 276H1855V157L1857
20Q1805 8 1753 0T1647 -19ZM1650 418V843L1323 420L1650 418ZM870 1436Q870 1294 714 1218Q822 1196 880 1124Q929 1064 929 996T898 873T812 779Q695 697 508 697Q415 697 345 714Q228 741 180 741L173 743Q165 804 165 875T172 994H272Q282 797 509 797Q673
797 708 906Q718 938 718 972Q718 1144 499 1144Q490 1144 481 1144Q467 1144 427 1138Q420 1138 410 1180T399 1229Q544 1236 608 1281T673 1419Q673 1520 587 1556Q560 1568 526 1568Q310 1568 307 1363H187Q176 1451 176 1509T183 1628L196 1627H202Q240 1627
312 1640Q478 1670 545 1670T672 1657T776 1616Q870 1555 870 1436Z" />
<glyph unicode="&#xbf;" glyph-name="questiondown" horiz-adv-x="1537" d="M632 1081Q665 1091 743 1091T860 1078T928 1040Q990 987 990 898Q990 760 841 638L671 501Q526 380 526 241Q526 101 607 16Q685 -65 796 -65Q1019 -65 1081 134Q1099 194 1099 270Q1173
270 1260 256Q1275 189 1275 119Q1275 27 1270 -38Q1227 -49 1191 -63L1049 -122Q920 -175 765 -175Q583 -175 448 -103Q337 -45 291 70Q266 130 266 206T294 339T367 446T467 537L660 676Q793 775 793 863Q793 948 721 957Q701 960 681 960T633 953L632 1081ZM938
1420Q938 1355 891 1309Q843 1263 778 1263Q713 1263 665 1309Q618 1355 618 1420Q618 1484 665 1531Q712 1578 778 1578Q844 1578 891 1531Q938 1484 938 1420Z" />
<glyph unicode="&#xc0;" glyph-name="Agrave" horiz-adv-x="1533" d="M9 109Q85 109 111 129Q151 160 181 232H180L680 1530Q736 1530 788 1547T853 1573L1315 335Q1369 178 1434 126Q1454 110 1471 110Q1521 110 1551 129L1529 0H934L949 110Q1118 107 1132 174Q1137
194 1132 218L1004 557H470L342 191Q323 145 364 118Q375 110 405 110T458 112Q512 115 538 125L522 0H-4L9 109ZM958 680L728 1291L513 680H958ZM402 2041L965 1781L926 1663L330 1848L402 2041Z" />
<glyph unicode="&#xc1;" glyph-name="Aacute" horiz-adv-x="1533" d="M9 109Q85 109 111 129Q151 160 181 232H180L680 1530Q736 1530 788 1547T853 1573L1315 335Q1369 178 1434 126Q1454 110 1471 110Q1521 110 1551 129L1529 0H934L949 110Q1118 107 1132 174Q1137
194 1132 218L1004 557H470L342 191Q323 145 364 118Q375 110 405 110T458 112Q512 115 538 125L522 0H-4L9 109ZM958 680L728 1291L513 680H958ZM535 1781L1098 2041L1170 1848L574 1663L535 1781Z" />
<glyph unicode="&#xc2;" glyph-name="Acircumflex" horiz-adv-x="1533" d="M9 109Q85 109 111 129Q151 160 181 232H180L680 1530Q736 1530 788 1547T853 1573L1315 335Q1369 178 1434 126Q1454 110 1471 110Q1521 110 1551 129L1529 0H934L949 110Q1118 107 1132
174Q1137 194 1132 218L1004 557H470L342 191Q323 145 364 118Q375 110 405 110T458 112Q512 115 538 125L522 0H-4L9 109ZM958 680L728 1291L513 680H958ZM375 1767L771 2040L1162 1775L1098 1664L771 1821Q771 1821 432 1664L375 1767Z" />
<glyph unicode="&#xc3;" glyph-name="Atilde" horiz-adv-x="1533" d="M9 109Q85 109 111 129Q151 160 181 232H180L680 1530Q736 1530 788 1547T853 1573L1315 335Q1369 178 1434 126Q1454 110 1471 110Q1521 110 1551 129L1529 0H934L949 110Q1118 107 1132 174Q1137
194 1132 218L1004 557H470L342 191Q323 145 364 118Q375 110 405 110T458 112Q512 115 538 125L522 0H-4L9 109ZM958 680L728 1291L513 680H958ZM359 1782Q362 1795 382 1826T440 1889Q532 1970 639 1970Q693 1970 736 1948T814 1904Q899 1847 928 1847T976 1853T1012
1872Q1043 1895 1087 1949L1176 1852Q1165 1805 1119 1759Q1023 1663 915 1663Q870 1663 825 1685T742 1730Q643 1787 615 1787T569 1781T532 1762Q504 1742 458 1685L359 1782Z" />
<glyph unicode="&#xc4;" glyph-name="Adieresis" horiz-adv-x="1533" d="M9 109Q85 109 111 129Q151 160 181 232H180L680 1530Q736 1530 788 1547T853 1573L1315 335Q1369 178 1434 126Q1454 110 1471 110Q1521 110 1551 129L1529 0H934L949 110Q1118 107 1132
174Q1137 194 1132 218L1004 557H470L342 191Q323 145 364 118Q375 110 405 110T458 112Q512 115 538 125L522 0H-4L9 109ZM958 680L728 1291L513 680H958ZM1092 1758T1066 1747T1008 1736T948 1747T900 1778Q856 1819 856 1864T867 1937T900 1986Q943 2029 1008
2029Q1104 2029 1142 1938Q1154 1910 1154 1880T1143 1823T1112 1778ZM635 1758T609 1747T551 1736T491 1747T442 1778Q397 1820 397 1865T409 1937T442 1986Q485 2029 552 2029Q647 2029 684 1938Q695 1910 695 1880T684 1823T654 1778Z" />
<glyph unicode="&#xc5;" glyph-name="Aring" horiz-adv-x="1533" d="M9 109Q85 109 111 129Q151 160 181 232H180L680 1530Q736 1530 788 1547T853 1573L1315 335Q1369 178 1434 126Q1454 110 1471 110Q1521 110 1551 129L1529 0H934L949 110Q1118 107 1132 174Q1137
194 1132 218L1004 557H470L342 191Q323 145 364 118Q375 110 405 110T458 112Q512 115 538 125L522 0H-4L9 109ZM958 680L728 1291L513 680H958ZM766 1502Q705 1502 650 1521T554 1576Q469 1650 469 1776Q469 1896 566 1970Q653 2037 771 2037Q905 2037 988 1964Q1073
1890 1073 1764Q1073 1644 977 1570Q890 1502 766 1502ZM835 1624T873 1663T912 1748T901 1823T870 1872Q829 1917 784 1917T714 1907T670 1877Q631 1837 631 1791T642 1717T673 1668Q714 1624 774 1624Z" />
<glyph unicode="&#xc6;" glyph-name="AE" horiz-adv-x="2049" d="M333 161Q333 116 390 110Q494 110 545 127L529 0H-39L-19 109Q42 109 65 131T103 176L824 1413H684Q539 1413 409 1375L418 1530H1600Q1842 1530 1958 1546Q1958 1321 1912 1168H1815Q1805 1330
1753 1375Q1724 1400 1677 1406T1560 1413H1184V801H1374Q1521 801 1548 896Q1557 928 1561 970L1678 971V922Q1678 774 1670 650L1659 481H1542Q1536 587 1508 621T1448 666T1368 678H1184V279Q1184 181 1222 150T1379 115H1575Q1775 115 1851 288Q1875 342 1883
410H2004Q2004 296 1982 170L1951 0H806L799 2Q808 79 816 110Q901 110 928 134Q975 174 975 269V678H598L357 223Q333 178 333 161ZM975 801L976 1388L664 801H975Z" />
<glyph unicode="&#xc7;" glyph-name="Ccedilla" horiz-adv-x="1709" d="M766 -326Q836 -354 895 -354T974 -348T1006 -330Q1028 -312 1030 -285Q1033 -245 982 -202Q942 -165 926 -99Q914 -50 937 -15Q617 -12 398 157Q235 282 170 501Q137 614 137 777T200 1085T376
1333Q611 1545 986 1545Q1056 1545 1169 1532T1317 1516L1385 1509Q1462 1502 1486 1502H1518Q1525 1502 1540 1504Q1542 1480 1542 1391T1510 1092H1382Q1363 1243 1334 1301Q1251 1434 971 1434Q691 1434 534 1250Q384 1075 384 787Q384 454 572 266Q744 94 992
94Q1171 94 1264 162Q1358 231 1415 409H1540Q1542 389 1542 359T1539 289T1530 212Q1517 128 1504 92Q1320 0 1049 -12Q1055 -57 1117 -112Q1221 -199 1216 -284Q1209 -393 1114 -460Q1036 -515 922 -515T743 -496L755 -328L766 -326Z" />
<glyph unicode="&#xc8;" glyph-name="Egrave" horiz-adv-x="1368" d="M955 600L953 568H830Q823 681 804 710Q770 761 681 761H480V279Q480 182 517 150Q553 119 672 115H863Q1063 115 1139 288Q1163 342 1171 410H1295Q1295 296 1272 170L1242 0H87L104 110Q204
110 235 154Q263 192 263 307V1221Q263 1414 176 1414Q140 1414 100 1405L112 1530H888Q1129 1530 1249 1546Q1249 1386 1218 1226Q1210 1188 1204 1168H1102Q1092 1330 1040 1373Q1011 1397 965 1403T848 1409H480V874H687Q787 874 818 917Q838 944 850 1043L972
1044L973 991Q973 864 955 600ZM370 2041L933 1781L894 1663L298 1848L370 2041Z" />
<glyph unicode="&#xc9;" glyph-name="Eacute" horiz-adv-x="1368" d="M955 600L953 568H830Q823 681 804 710Q770 761 681 761H480V279Q480 182 517 150Q553 119 672 115H863Q1063 115 1139 288Q1163 342 1171 410H1295Q1295 296 1272 170L1242 0H87L104 110Q204
110 235 154Q263 192 263 307V1221Q263 1414 176 1414Q140 1414 100 1405L112 1530H888Q1129 1530 1249 1546Q1249 1386 1218 1226Q1210 1188 1204 1168H1102Q1092 1330 1040 1373Q1011 1397 965 1403T848 1409H480V874H687Q787 874 818 917Q838 944 850 1043L972
1044L973 991Q973 864 955 600ZM503 1781L1066 2041L1138 1848L542 1663L503 1781Z" />
<glyph unicode="&#xca;" glyph-name="Ecircumflex" horiz-adv-x="1368" d="M955 600L953 568H830Q823 681 804 710Q770 761 681 761H480V279Q480 182 517 150Q553 119 672 115H863Q1063 115 1139 288Q1163 342 1171 410H1295Q1295 296 1272 170L1242 0H87L104
110Q204 110 235 154Q263 192 263 307V1221Q263 1414 176 1414Q140 1414 100 1405L112 1530H888Q1129 1530 1249 1546Q1249 1386 1218 1226Q1210 1188 1204 1168H1102Q1092 1330 1040 1373Q1011 1397 965 1403T848 1409H480V874H687Q787 874 818 917Q838 944 850
1043L972 1044L973 991Q973 864 955 600ZM343 1767L739 2040L1130 1775L1066 1664L739 1821Q739 1821 400 1664L343 1767Z" />
<glyph unicode="&#xcb;" glyph-name="Edieresis" horiz-adv-x="1368" d="M955 600L953 568H830Q823 681 804 710Q770 761 681 761H480V279Q480 182 517 150Q553 119 672 115H863Q1063 115 1139 288Q1163 342 1171 410H1295Q1295 296 1272 170L1242 0H87L104 110Q204
110 235 154Q263 192 263 307V1221Q263 1414 176 1414Q140 1414 100 1405L112 1530H888Q1129 1530 1249 1546Q1249 1386 1218 1226Q1210 1188 1204 1168H1102Q1092 1330 1040 1373Q1011 1397 965 1403T848 1409H480V874H687Q787 874 818 917Q838 944 850 1043L972
1044L973 991Q973 864 955 600ZM1060 1758T1034 1747T976 1736T916 1747T868 1778Q824 1819 824 1864T835 1937T868 1986Q911 2029 976 2029Q1072 2029 1110 1938Q1122 1910 1122 1880T1111 1823T1080 1778ZM603 1758T577 1747T519 1736T459 1747T410 1778Q365
1820 365 1865T377 1937T410 1986Q453 2029 520 2029Q615 2029 652 1938Q663 1910 663 1880T652 1823T622 1778Z" />
<glyph unicode="&#xcc;" glyph-name="Igrave" horiz-adv-x="853" d="M564 127T586 119T636 110T739 125L727 0H114L125 110Q223 110 267 156Q318 211 318 341L317 1214Q317 1384 266 1407Q250 1414 229 1414Q170 1414 122 1405L138 1530H723L707 1414Q594 1414
563 1376Q534 1342 534 1221V271Q534 175 549 151ZM54 2041L617 1781L578 1663L-18 1848L54 2041Z" />
<glyph unicode="&#xcd;" glyph-name="Iacute" horiz-adv-x="853" d="M564 127T586 119T636 110T739 125L727 0H114L125 110Q223 110 267 156Q318 211 318 341L317 1214Q317 1384 266 1407Q250 1414 229 1414Q170 1414 122 1405L138 1530H723L707 1414Q594 1414
563 1376Q534 1342 534 1221V271Q534 175 549 151ZM187 1781L750 2041L822 1848L226 1663L187 1781Z" />
<glyph unicode="&#xce;" glyph-name="Icircumflex" horiz-adv-x="853" d="M564 127T586 119T636 110T739 125L727 0H114L125 110Q223 110 267 156Q318 211 318 341L317 1214Q317 1384 266 1407Q250 1414 229 1414Q170 1414 122 1405L138 1530H723L707 1414Q594
1414 563 1376Q534 1342 534 1221V271Q534 175 549 151ZM26 1767L422 2040L813 1775L749 1664L422 1821Q422 1821 83 1664L26 1767Z" />
<glyph unicode="&#xcf;" glyph-name="Idieresis" horiz-adv-x="853" d="M564 127T586 119T636 110T739 125L727 0H114L125 110Q223 110 267 156Q318 211 318 341L317 1214Q317 1384 266 1407Q250 1414 229 1414Q170 1414 122 1405L138 1530H723L707 1414Q594 1414
563 1376Q534 1342 534 1221V271Q534 175 549 151ZM744 1758T718 1747T660 1736T600 1747T552 1778Q508 1819 508 1864T519 1937T552 1986Q595 2029 660 2029Q756 2029 794 1938Q806 1910 806 1880T795 1823T764 1778ZM287 1758T261 1747T203 1736T143 1747T94
1778Q49 1820 49 1865T61 1937T94 1986Q137 2029 204 2029Q299 2029 336 1938Q347 1910 347 1880T336 1823T306 1778Z" />
<glyph unicode="&#xd0;" glyph-name="Eth" horiz-adv-x="1539" d="M708 -13L374 1L93 2L100 112Q190 112 220 138Q273 184 273 288V724H109L129 851H273V1231Q273 1336 252 1367T211 1408T161 1417T92 1405L102 1532H354L719 1547Q1495 1547 1495 811Q1495 438
1280 213Q1064 -13 708 -13ZM824 1418Q746 1431 663 1431T490 1411V851H842L822 724H490V210Q490 160 497 148T520 131T564 122Q611 117 733 117T950 153T1112 268Q1256 435 1256 765Q1256 1347 824 1418Z" />
<glyph unicode="&#xd1;" glyph-name="Ntilde" horiz-adv-x="1706" d="M1512 17Q1431 10 1380 -19Q1314 80 1224 203L1031 463L812 746L414 1250V301Q414 198 433 164T473 120T516 110T559 111T597 116L630 120Q646 122 655 124L643 0H85L98 110Q191 110 218 131Q269
171 269 284V1221Q269 1332 256 1360T226 1397T182 1406Q150 1406 81 1395L96 1530H514Q546 1434 607 1350L738 1172Q1264 490 1352 383V1244Q1352 1361 1340 1383T1312 1410T1262 1415T1157 1404L1168 1530H1682L1668 1415Q1611 1415 1577 1414T1526 1398Q1497
1377 1497 1269V253Q1497 137 1512 17ZM465 1782Q468 1795 488 1826T546 1889Q638 1970 745 1970Q799 1970 842 1948T920 1904Q1005 1847 1034 1847T1082 1853T1118 1872Q1149 1895 1193 1949L1282 1852Q1271 1805 1225 1759Q1129 1663 1021 1663Q976 1663 931
1685T848 1730Q749 1787 721 1787T675 1781T638 1762Q610 1742 564 1685L465 1782Z" />
<glyph unicode="&#xd2;" glyph-name="Ograve" horiz-adv-x="1709" d="M218 276T168 416T120 728T175 1048T327 1306Q541 1546 903 1546Q1208 1546 1396 1348Q1589 1144 1589 797Q1576 455 1378 228Q1244 75 1036 15Q931 -15 794 -15T529 34T310 180ZM544 214T638
163T845 112T1046 150T1201 266Q1344 434 1348 733Q1354 1043 1228 1227Q1096 1418 851 1418Q639 1418 508 1266Q366 1102 360 801Q354 489 481 305Q544 214 638 163ZM506 2041L1069 1781L1030 1663L434 1848L506 2041Z" />
<glyph unicode="&#xd3;" glyph-name="Oacute" horiz-adv-x="1709" d="M218 276T168 416T120 728T175 1048T327 1306Q541 1546 903 1546Q1208 1546 1396 1348Q1589 1144 1589 797Q1576 455 1378 228Q1244 75 1036 15Q931 -15 794 -15T529 34T310 180ZM544 214T638
163T845 112T1046 150T1201 266Q1344 434 1348 733Q1354 1043 1228 1227Q1096 1418 851 1418Q639 1418 508 1266Q366 1102 360 801Q354 489 481 305Q544 214 638 163ZM639 1781L1202 2041L1274 1848L678 1663L639 1781Z" />
<glyph unicode="&#xd4;" glyph-name="Ocircumflex" horiz-adv-x="1709" d="M218 276T168 416T120 728T175 1048T327 1306Q541 1546 903 1546Q1208 1546 1396 1348Q1589 1144 1589 797Q1576 455 1378 228Q1244 75 1036 15Q931 -15 794 -15T529 34T310 180ZM544
214T638 163T845 112T1046 150T1201 266Q1344 434 1348 733Q1354 1043 1228 1227Q1096 1418 851 1418Q639 1418 508 1266Q366 1102 360 801Q354 489 481 305Q544 214 638 163ZM479 1767L875 2040L1266 1775L1202 1664L875 1821Q875 1821 536 1664L479 1767Z" />
<glyph unicode="&#xd5;" glyph-name="Otilde" horiz-adv-x="1709" d="M218 276T168 416T120 728T175 1048T327 1306Q541 1546 903 1546Q1208 1546 1396 1348Q1589 1144 1589 797Q1576 455 1378 228Q1244 75 1036 15Q931 -15 794 -15T529 34T310 180ZM544 214T638
163T845 112T1046 150T1201 266Q1344 434 1348 733Q1354 1043 1228 1227Q1096 1418 851 1418Q639 1418 508 1266Q366 1102 360 801Q354 489 481 305Q544 214 638 163ZM463 1782Q466 1795 486 1826T544 1889Q636 1970 743 1970Q797 1970 840 1948T918 1904Q1003
1847 1032 1847T1080 1853T1116 1872Q1147 1895 1191 1949L1280 1852Q1269 1805 1223 1759Q1127 1663 1019 1663Q974 1663 929 1685T846 1730Q747 1787 719 1787T673 1781T636 1762Q608 1742 562 1685L463 1782Z" />
<glyph unicode="&#xd6;" glyph-name="Odieresis" horiz-adv-x="1709" d="M218 276T168 416T120 728T175 1048T327 1306Q541 1546 903 1546Q1208 1546 1396 1348Q1589 1144 1589 797Q1576 455 1378 228Q1244 75 1036 15Q931 -15 794 -15T529 34T310 180ZM544 214T638
163T845 112T1046 150T1201 266Q1344 434 1348 733Q1354 1043 1228 1227Q1096 1418 851 1418Q639 1418 508 1266Q366 1102 360 801Q354 489 481 305Q544 214 638 163ZM1196 1758T1170 1747T1112 1736T1052 1747T1004 1778Q960 1819 960 1864T971 1937T1004 1986Q1047
2029 1112 2029Q1208 2029 1246 1938Q1258 1910 1258 1880T1247 1823T1216 1778ZM739 1758T713 1747T655 1736T595 1747T546 1778Q501 1820 501 1865T513 1937T546 1986Q589 2029 656 2029Q751 2029 788 1938Q799 1910 799 1880T788 1823T758 1778Z" />
<glyph unicode="&#xd7;" glyph-name="multiply" horiz-adv-x="1193" d="M479 591L226 850L357 954L594 711L838 964L962 848L713 590L965 333L833 229L597 470L371 236L248 352L479 591Z" />
<glyph unicode="&#xd8;" glyph-name="Oslash" horiz-adv-x="1709" d="M1036 17Q931 -13 809 -13T576 20L482 -188L326 -119L423 89Q200 228 138 524Q118 622 120 762T175 1050T327 1308Q541 1548 903 1548Q1005 1548 1095 1524L1185 1719L1346 1655L1253 1461Q1495
1324 1566 1019Q1589 917 1589 799Q1576 457 1378 230Q1244 77 1036 17ZM544 216T638 165T845 114T1046 152T1201 268Q1344 436 1348 735Q1354 1045 1228 1229Q1096 1420 851 1420Q639 1420 508 1268Q366 1104 360 803Q354 491 481 307Q544 216 638 165Z" />
<glyph unicode="&#xd9;" glyph-name="Ugrave" horiz-adv-x="1537" d="M1174 1393T1155 1403T1106 1414T1022 1402L1033 1530H1514L1499 1414Q1404 1414 1380 1370Q1360 1332 1360 1193V610Q1360 302 1221 144T789 -15Q482 -15 332 159Q195 319 195 617V1014L194
1202V1260Q194 1367 180 1388T150 1411T120 1414Q89 1414 36 1402L50 1530H613L598 1414Q475 1414 444 1381Q414 1349 414 1221V646Q414 112 788 112Q917 112 982 141T1085 207T1152 302Q1209 425 1209 636V1196Q1209 1319 1192 1356ZM471 2041L1034 1781L995 1663L399
1848L471 2041Z" />
<glyph unicode="&#xda;" glyph-name="Uacute" horiz-adv-x="1537" d="M1174 1393T1155 1403T1106 1414T1022 1402L1033 1530H1514L1499 1414Q1404 1414 1380 1370Q1360 1332 1360 1193V610Q1360 302 1221 144T789 -15Q482 -15 332 159Q195 319 195 617V1014L194
1202V1260Q194 1367 180 1388T150 1411T120 1414Q89 1414 36 1402L50 1530H613L598 1414Q475 1414 444 1381Q414 1349 414 1221V646Q414 112 788 112Q917 112 982 141T1085 207T1152 302Q1209 425 1209 636V1196Q1209 1319 1192 1356ZM604 1781L1167 2041L1239
1848L643 1663L604 1781Z" />
<glyph unicode="&#xdb;" glyph-name="Ucircumflex" horiz-adv-x="1537" d="M1174 1393T1155 1403T1106 1414T1022 1402L1033 1530H1514L1499 1414Q1404 1414 1380 1370Q1360 1332 1360 1193V610Q1360 302 1221 144T789 -15Q482 -15 332 159Q195 319 195 617V1014L194
1202V1260Q194 1367 180 1388T150 1411T120 1414Q89 1414 36 1402L50 1530H613L598 1414Q475 1414 444 1381Q414 1349 414 1221V646Q414 112 788 112Q917 112 982 141T1085 207T1152 302Q1209 425 1209 636V1196Q1209 1319 1192 1356ZM444 1767L840 2040L1231 1775L1167
1664L840 1821Q840 1821 501 1664L444 1767Z" />
<glyph unicode="&#xdc;" glyph-name="Udieresis" horiz-adv-x="1537" d="M1174 1393T1155 1403T1106 1414T1022 1402L1033 1530H1514L1499 1414Q1404 1414 1380 1370Q1360 1332 1360 1193V610Q1360 302 1221 144T789 -15Q482 -15 332 159Q195 319 195 617V1014L194
1202V1260Q194 1367 180 1388T150 1411T120 1414Q89 1414 36 1402L50 1530H613L598 1414Q475 1414 444 1381Q414 1349 414 1221V646Q414 112 788 112Q917 112 982 141T1085 207T1152 302Q1209 425 1209 636V1196Q1209 1319 1192 1356ZM1163 1758T1137 1747T1079
1736T1019 1747T971 1778Q927 1819 927 1864T938 1937T971 1986Q1014 2029 1079 2029Q1175 2029 1213 1938Q1225 1910 1225 1880T1214 1823T1183 1778ZM706 1758T680 1747T622 1736T562 1747T513 1778Q468 1820 468 1865T480 1937T513 1986Q556 2029 623 2029Q718
2029 755 1938Q766 1910 766 1880T755 1823T725 1778Z" />
<glyph unicode="&#xdd;" glyph-name="Yacute" horiz-adv-x="1364" d="M843 130T863 120T940 109T1060 125L1051 0H353L361 109H404Q532 109 561 133T597 191T605 280V534L126 1329Q94 1376 65 1390Q14 1414 -56 1414L-41 1530H567L541 1414Q438 1414 415 1406T383
1384T374 1345T388 1283T425 1202T480 1108L612 898Q646 843 675 789L734 664Q886 947 922 1021L984 1150Q1041 1273 1045 1300T1049 1346T1040 1379Q1020 1414 960 1414Q920 1414 860 1402L875 1530H1433L1414 1414Q1327 1414 1295 1390Q1246 1352 1196 1248L819
534V348Q819 194 831 162ZM487 1781L1050 2041L1122 1848L526 1663L487 1781Z" />
<glyph unicode="&#xde;" glyph-name="Thorn" horiz-adv-x="1364" d="M559 124T588 117T663 110T783 130L771 0H125L136 109Q225 109 260 164Q293 215 293 331L292 1214Q292 1383 238 1407Q222 1414 201 1414Q143 1414 95 1405L111 1530H695L679 1414Q573 1414
544 1382Q517 1351 517 1247L715 1256Q928 1266 1039 1227T1212 1128Q1326 1014 1326 808Q1326 588 1164 446Q1008 310 782 310Q691 310 598 335L579 452Q667 432 740 432T880 457T995 528Q1097 627 1097 795Q1097 1145 704 1145Q612 1145 517 1126L512 261Q512
171 535 148Z" />
<glyph unicode="&#xdf;" glyph-name="germandbls" horiz-adv-x="1535" d="M992 -14Q877 -14 679 41L692 344H825Q828 140 955 108Q993 99 1037 99Q1136 99 1184 146T1232 264T1212 372T1158 439Q1113 479 1030 518T901 585T818 649Q738 731 738 857Q738 934 768
983T824 1058L874 1112Q948 1186 974 1230Q1027 1320 1027 1420Q1027 1505 975 1570Q912 1648 804 1648Q733 1648 678 1626T586 1541Q509 1415 509 1081V874Q509 418 506 291L502 122Q499 23 496 3L92 0L107 106Q221 106 260 144Q294 179 294 281L295 1033V1038H121L132
1145Q223 1149 280 1186Q294 1196 295 1205Q304 1383 408 1545Q493 1679 644 1738Q723 1769 836 1769T1032 1740T1164 1664Q1255 1578 1255 1447Q1255 1267 1116 1137Q1078 1102 1048 1077L996 1034Q923 970 923 907Q923 820 1029 760Q1060 743 1105 721T1212 665T1324
586Q1439 487 1439 364Q1439 180 1316 79Q1203 -14 992 -14Z" />
<glyph unicode="&#xe0;" glyph-name="agrave" horiz-adv-x="1195" d="M1021 871L1005 340Q1005 233 1070 186Q1115 153 1185 153Q1181 102 1144 61Q1079 -11 1038 -22Q976 -22 922 20T837 143Q723 35 558 -10Q512 -23 451 -23T320 0T203 67Q108 154 108 304Q108
486 312 587Q502 681 812 681H823Q823 744 821 804L820 844Q815 965 733 1028Q668 1078 573 1078T420 1028T362 882Q362 847 370 807H191L184 809Q181 825 178 843Q169 886 164 932T158 994Q158 1016 166 1026Q425 1209 673 1209Q915 1209 992 1033Q1021 968 1021
871ZM812 301Q819 427 822 571Q811 575 756 575T616 558T468 507Q334 436 334 317Q334 234 388 178Q443 122 530 122Q638 122 752 219Q786 248 812 280V301ZM152 1590L274 1760L705 1416L632 1303L152 1590Z" />
<glyph unicode="&#xe1;" glyph-name="aacute" horiz-adv-x="1195" d="M1021 871L1005 340Q1005 233 1070 186Q1115 153 1185 153Q1181 102 1144 61Q1079 -11 1038 -22Q976 -22 922 20T837 143Q723 35 558 -10Q512 -23 451 -23T320 0T203 67Q108 154 108 304Q108
486 312 587Q502 681 812 681H823Q823 744 821 804L820 844Q815 965 733 1028Q668 1078 573 1078T420 1028T362 882Q362 847 370 807H191L184 809Q181 825 178 843Q169 886 164 932T158 994Q158 1016 166 1026Q425 1209 673 1209Q915 1209 992 1033Q1021 968 1021
871ZM812 301Q819 427 822 571Q811 575 756 575T616 558T468 507Q334 436 334 317Q334 234 388 178Q443 122 530 122Q638 122 752 219Q786 248 812 280V301ZM461 1416L893 1760L1015 1590L534 1303L461 1416Z" />
<glyph unicode="&#xe2;" glyph-name="acircumflex" horiz-adv-x="1195" d="M1021 871L1005 340Q1005 233 1070 186Q1115 153 1185 153Q1181 102 1144 61Q1079 -11 1038 -22Q976 -22 922 20T837 143Q723 35 558 -10Q512 -23 451 -23T320 0T203 67Q108 154 108 304Q108
486 312 587Q502 681 812 681H823Q823 744 821 804L820 844Q815 965 733 1028Q668 1078 573 1078T420 1028T362 882Q362 847 370 807H191L184 809Q181 825 178 843Q169 886 164 932T158 994Q158 1016 166 1026Q425 1209 673 1209Q915 1209 992 1033Q1021 968 1021
871ZM812 301Q819 427 822 571Q811 575 756 575T616 558T468 507Q334 436 334 317Q334 234 388 178Q443 122 530 122Q638 122 752 219Q786 248 812 280V301ZM189 1448L594 1749L992 1447L906 1341L594 1516L268 1341L189 1448Z" />
<glyph unicode="&#xe3;" glyph-name="atilde" horiz-adv-x="1195" d="M1021 871L1005 340Q1005 233 1070 186Q1115 153 1185 153Q1181 102 1144 61Q1079 -11 1038 -22Q976 -22 922 20T837 143Q723 35 558 -10Q512 -23 451 -23T320 0T203 67Q108 154 108 304Q108
486 312 587Q502 681 812 681H823Q823 744 821 804L820 844Q815 965 733 1028Q668 1078 573 1078T420 1028T362 882Q362 847 370 807H191L184 809Q181 825 178 843Q169 886 164 932T158 994Q158 1016 166 1026Q425 1209 673 1209Q915 1209 992 1033Q1021 968 1021
871ZM812 301Q819 427 822 571Q811 575 756 575T616 558T468 507Q334 436 334 317Q334 234 388 178Q443 122 530 122Q638 122 752 219Q786 248 812 280V301ZM192 1504Q195 1517 214 1548T267 1611Q355 1692 462 1692Q516 1692 559 1670T637 1626Q722 1569 751 1569T799
1575T835 1594Q866 1617 910 1671L999 1574Q988 1527 942 1481Q846 1385 738 1385Q693 1385 648 1407T565 1452Q466 1509 438 1509T392 1503T355 1484Q327 1464 280 1406L192 1504Z" />
<glyph unicode="&#xe4;" glyph-name="adieresis" horiz-adv-x="1195" d="M1021 871L1005 340Q1005 233 1070 186Q1115 153 1185 153Q1181 102 1144 61Q1079 -11 1038 -22Q976 -22 922 20T837 143Q723 35 558 -10Q512 -23 451 -23T320 0T203 67Q108 154 108 304Q108
486 312 587Q502 681 812 681H823Q823 744 821 804L820 844Q815 965 733 1028Q668 1078 573 1078T420 1028T362 882Q362 847 370 807H191L184 809Q181 825 178 843Q169 886 164 932T158 994Q158 1016 166 1026Q425 1209 673 1209Q915 1209 992 1033Q1021 968 1021
871ZM812 301Q819 427 822 571Q811 575 756 575T616 558T468 507Q334 436 334 317Q334 234 388 178Q443 122 530 122Q638 122 752 219Q786 248 812 280V301ZM766 1398T722 1440T677 1528T689 1601T721 1650Q765 1693 832 1693Q894 1693 937 1650T981 1541Q981 1482
937 1440Q893 1398 846 1398Q766 1398 722 1440ZM208 1482T208 1527T220 1601T253 1650Q299 1693 366 1693Q429 1693 470 1650T512 1541Q512 1482 471 1440Q428 1398 381 1398Q300 1398 254 1440Z" />
<glyph unicode="&#xe5;" glyph-name="aring" horiz-adv-x="1195" d="M1021 871L1005 340Q1005 233 1070 186Q1115 153 1185 153Q1181 102 1144 61Q1079 -11 1038 -22Q976 -22 922 20T837 143Q723 35 558 -10Q512 -23 451 -23T320 0T203 67Q108 154 108 304Q108
486 312 587Q502 681 812 681H823Q823 744 821 804L820 844Q815 965 733 1028Q668 1078 573 1078T420 1028T362 882Q362 847 370 807H191L184 809Q181 825 178 843Q169 886 164 932T158 994Q158 1016 166 1026Q425 1209 673 1209Q915 1209 992 1033Q1021 968 1021
871ZM812 301Q819 427 822 571Q811 575 756 575T616 558T468 507Q334 436 334 317Q334 234 388 178Q443 122 530 122Q638 122 752 219Q786 248 812 280V301ZM589 1281Q529 1281 474 1300T378 1354Q293 1430 293 1555Q293 1675 389 1749Q476 1816 595 1816Q727 1816
812 1743Q897 1669 897 1543Q897 1422 800 1348Q713 1281 589 1281ZM515 1426T540 1414T596 1402T652 1412T696 1442Q735 1480 735 1543Q735 1605 693 1650Q652 1695 592 1695T493 1656T454 1570T465 1496T496 1447Z" />
<glyph unicode="&#xe6;" glyph-name="ae" horiz-adv-x="1912" d="M1325 -17Q1028 -17 915 201Q854 108 734 42Q537 -64 346 0Q208 47 156 170Q130 230 130 314T184 469T332 587Q520 681 831 681H844V683Q844 770 842 840T815 956T755 1028Q690 1078 593 1078T434
1028T372 882Q372 839 380 807H204Q189 813 180 896T170 994Q170 1016 178 1026L264 1080Q475 1209 704 1209T1007 1031Q1160 1209 1368 1209Q1794 1209 1794 713Q1794 586 1764 586H1036Q1036 376 1125 268T1382 156Q1573 169 1731 254L1776 167Q1626 42 1431
-4Q1373 -17 1325 -17ZM1562 714Q1563 735 1563 746V779Q1563 1013 1427 1068Q1379 1088 1318 1088T1207 1054T1120 962Q1036 837 1036 690L1562 714ZM843 571Q829 575 774 575T635 558T489 507Q356 436 356 317Q356 234 410 178Q465 122 553 122Q660 122 774 220Q807
249 833 281Q837 370 839 440T843 571Z" />
<glyph unicode="&#xe7;" glyph-name="ccedilla" horiz-adv-x="1191" d="M704 -488T658 -501T525 -515T373 -496L385 -328L396 -326Q466 -354 525 -354T604 -348T636 -330Q658 -312 660 -285Q663 -245 612 -202Q572 -165 556 -99Q545 -51 569 -11Q363 15 240 160Q113
310 113 539Q113 849 298 1036Q469 1209 727 1209Q868 1209 1009 1166L1036 1158Q1049 1154 1059 1152Q1067 1136 1067 1080T1065 993T1059 932T1051 880L1045 844Q1039 834 983 834Q915 834 894 843Q894 962 865 1005T791 1069T674 1089T539 1059T430 968Q328
836 328 610Q328 287 546 194Q619 162 718 162Q880 162 1047 253L1085 172Q992 72 818 12Q751 -12 679 -16Q687 -59 747 -112Q851 -199 846 -284Q839 -393 744 -460Q704 -488 658 -501Z" />
<glyph unicode="&#xe8;" glyph-name="egrave" horiz-adv-x="1195" d="M674 156Q872 169 1023 251L1067 167Q916 42 723 -4Q665 -17 617 -17Q240 -17 142 316Q110 423 110 565T156 828T279 1032T455 1163T660 1209Q1085 1209 1085 723V713Q1085 586 1055 586H319Q319
377 411 268T674 156ZM857 714Q858 735 858 746V779Q858 1014 728 1068Q681 1088 628 1088T537 1072T468 1028T408 963T361 880Q319 787 319 690L857 714ZM163 1590L285 1760L716 1416L643 1303L163 1590Z" />
<glyph unicode="&#xe9;" glyph-name="eacute" horiz-adv-x="1195" d="M674 156Q872 169 1023 251L1067 167Q916 42 723 -4Q665 -17 617 -17Q240 -17 142 316Q110 423 110 565T156 828T279 1032T455 1163T660 1209Q1085 1209 1085 723V713Q1085 586 1055 586H319Q319
377 411 268T674 156ZM857 714Q858 735 858 746V779Q858 1014 728 1068Q681 1088 628 1088T537 1072T468 1028T408 963T361 880Q319 787 319 690L857 714ZM472 1416L904 1760L1026 1590L545 1303L472 1416Z" />
<glyph unicode="&#xea;" glyph-name="ecircumflex" horiz-adv-x="1195" d="M674 156Q872 169 1023 251L1067 167Q916 42 723 -4Q665 -17 617 -17Q240 -17 142 316Q110 423 110 565T156 828T279 1032T455 1163T660 1209Q1085 1209 1085 723V713Q1085 586 1055 586H319Q319
377 411 268T674 156ZM857 714Q858 735 858 746V779Q858 1014 728 1068Q681 1088 628 1088T537 1072T468 1028T408 963T361 880Q319 787 319 690L857 714ZM200 1448L605 1749L1003 1447L917 1341L605 1516L279 1341L200 1448Z" />
<glyph unicode="&#xeb;" glyph-name="edieresis" horiz-adv-x="1195" d="M674 156Q872 169 1023 251L1067 167Q916 42 723 -4Q665 -17 617 -17Q240 -17 142 316Q110 423 110 565T156 828T279 1032T455 1163T660 1209Q1085 1209 1085 723V713Q1085 586 1055 586H319Q319
377 411 268T674 156ZM857 714Q858 735 858 746V779Q858 1014 728 1068Q681 1088 628 1088T537 1072T468 1028T408 963T361 880Q319 787 319 690L857 714ZM777 1398T733 1440T688 1528T700 1601T732 1650Q776 1693 843 1693Q905 1693 948 1650T992 1541Q992 1482
948 1440Q904 1398 857 1398Q777 1398 733 1440ZM219 1482T219 1527T231 1601T264 1650Q310 1693 377 1693Q440 1693 481 1650T523 1541Q523 1482 482 1440Q439 1398 392 1398Q311 1398 265 1440Z" />
<glyph unicode="&#xec;" glyph-name="igrave" horiz-adv-x="690" d="M-38 1590L83 1760L464 1416L392 1303L-38 1590ZM510 1212Q465 1082 465 700L472 234Q472 173 491 141T567 108Q613 108 649 120L635 2H98L116 108Q214 108 249 162Q278 208 278 315V838Q278
963 234 1000Q199 1030 80 1030L96 1156L510 1212Z" />
<glyph unicode="&#xed;" glyph-name="iacute" horiz-adv-x="683" d="M509 1210Q464 1080 464 698L471 232Q471 171 490 139T566 106Q612 106 648 118L634 0H97L115 106Q213 106 248 160Q277 206 277 313V836Q277 961 233 998Q198 1028 79 1028L95 1154L509 1210ZM214
1416L646 1760L768 1590L287 1303L214 1416Z" />
<glyph unicode="&#xee;" glyph-name="icircumflex" horiz-adv-x="683" d="M509 1210Q464 1080 464 698L471 232Q471 171 490 139T566 106Q612 106 648 118L634 0H97L115 106Q213 106 248 160Q277 206 277 313V836Q277 961 233 998Q198 1028 79 1028L95 1154L509
1210ZM-57 1448L348 1749L746 1447L660 1341L348 1516L22 1341L-57 1448Z" />
<glyph unicode="&#xef;" glyph-name="idieresis" horiz-adv-x="690" d="M410 1482T410 1527T422 1601T455 1650Q500 1693 566 1693Q629 1693 671 1650Q714 1605 714 1541Q714 1482 671 1440Q627 1398 580 1398Q501 1398 456 1440ZM230 1421T203 1410T144 1398T83
1409T33 1440Q-12 1482 -12 1527T0 1601T33 1650Q78 1693 145 1693Q243 1693 280 1601Q292 1573 292 1543T281 1486T250 1441ZM510 1212Q465 1082 465 700L472 234Q472 173 491 141T567 108Q613 108 649 120L635 2H98L116 108Q214 108 249 162Q278 208 278 315V838Q278
963 234 1000Q199 1030 80 1030L96 1156L510 1212Z" />
<glyph unicode="&#xf0;" glyph-name="eth" horiz-adv-x="1322" d="M228 1747Q383 1712 524 1655L647 1843L763 1764L651 1591Q1060 1373 1190 950Q1237 797 1237 646T1200 381T1092 180Q933 -15 677 -15Q265 -15 154 322Q117 432 117 536T136 712T191 849T278
972T394 1071Q533 1161 699 1161Q805 1161 883 1141Q768 1351 573 1474L443 1271L320 1349L451 1547Q294 1621 188 1648L208 1692Q224 1725 228 1747ZM345 566Q345 477 368 394T433 244Q527 96 668 96Q832 96 916 200Q1014 323 1014 607Q1014 776 970 929Q858 1041
689 1041Q496 1041 412 896Q345 782 345 566Z" />
<glyph unicode="&#xf1;" glyph-name="ntilde" horiz-adv-x="1365" d="M105 106Q188 106 216 148Q248 196 248 346V829Q248 949 219 988Q190 1028 85 1028L101 1154L459 1208Q448 1127 448 1036Q576 1141 716 1188Q776 1209 840 1209T964 1190T1070 1128Q1169 1035
1169 851Q1169 739 1162 632Q1143 311 1150 241T1168 148Q1187 106 1236 106Q1283 106 1321 118L1306 0H794L812 106Q895 106 926 142Q939 157 945 183T956 251T964 350Q970 468 970 617T965 835T938 946Q898 1028 762 1028Q636 1028 496 942L448 913V241Q448 151
462 132T494 110T534 106Q585 106 629 117L612 0H89L105 106ZM295 1504Q298 1517 317 1548T370 1611Q458 1692 565 1692Q619 1692 662 1670T740 1626Q825 1569 854 1569T902 1575T938 1594Q969 1617 1013 1671L1102 1574Q1091 1527 1045 1481Q949 1385 841 1385Q796
1385 751 1407T668 1452Q569 1509 541 1509T495 1503T458 1484Q430 1464 383 1406L295 1504Z" />
<glyph unicode="&#xf2;" glyph-name="ograve" horiz-adv-x="1365" d="M115 604Q115 739 165 852T299 1046Q472 1209 724 1209Q968 1209 1111 1047Q1248 892 1248 643Q1248 360 1070 170Q895 -15 639 -15Q387 -15 246 164Q115 329 115 604ZM684 112Q760 112 818
139T920 222Q1014 341 1014 566Q1014 806 922 947Q829 1088 669 1088Q528 1088 440 978Q343 857 343 631Q343 396 434 256Q527 112 684 112ZM239 1590L361 1760L792 1416L719 1303L239 1590Z" />
<glyph unicode="&#xf3;" glyph-name="oacute" horiz-adv-x="1365" d="M115 604Q115 739 165 852T299 1046Q472 1209 724 1209Q968 1209 1111 1047Q1248 892 1248 643Q1248 360 1070 170Q895 -15 639 -15Q387 -15 246 164Q115 329 115 604ZM684 112Q760 112 818
139T920 222Q1014 341 1014 566Q1014 806 922 947Q829 1088 669 1088Q528 1088 440 978Q343 857 343 631Q343 396 434 256Q527 112 684 112ZM548 1416L980 1760L1102 1590L621 1303L548 1416Z" />
<glyph unicode="&#xf4;" glyph-name="ocircumflex" horiz-adv-x="1365" d="M115 604Q115 739 165 852T299 1046Q472 1209 724 1209Q968 1209 1111 1047Q1248 892 1248 643Q1248 360 1070 170Q895 -15 639 -15Q387 -15 246 164Q115 329 115 604ZM684 112Q760 112
818 139T920 222Q1014 341 1014 566Q1014 806 922 947Q829 1088 669 1088Q528 1088 440 978Q343 857 343 631Q343 396 434 256Q527 112 684 112ZM276 1448L681 1749L1079 1447L993 1341L681 1516L355 1341L276 1448Z" />
<glyph unicode="&#xf5;" glyph-name="otilde" horiz-adv-x="1365" d="M115 604Q115 739 165 852T299 1046Q472 1209 724 1209Q968 1209 1111 1047Q1248 892 1248 643Q1248 360 1070 170Q895 -15 639 -15Q387 -15 246 164Q115 329 115 604ZM684 112Q760 112 818
139T920 222Q1014 341 1014 566Q1014 806 922 947Q829 1088 669 1088Q528 1088 440 978Q343 857 343 631Q343 396 434 256Q527 112 684 112ZM279 1504Q282 1517 301 1548T354 1611Q442 1692 549 1692Q603 1692 646 1670T724 1626Q809 1569 838 1569T886 1575T922
1594Q953 1617 997 1671L1086 1574Q1075 1527 1029 1481Q933 1385 825 1385Q780 1385 735 1407T652 1452Q553 1509 525 1509T479 1503T442 1484Q414 1464 367 1406L279 1504Z" />
<glyph unicode="&#xf6;" glyph-name="odieresis" horiz-adv-x="1365" d="M115 604Q115 739 165 852T299 1046Q472 1209 724 1209Q968 1209 1111 1047Q1248 892 1248 643Q1248 360 1070 170Q895 -15 639 -15Q387 -15 246 164Q115 329 115 604ZM684 112Q760 112
818 139T920 222Q1014 341 1014 566Q1014 806 922 947Q829 1088 669 1088Q528 1088 440 978Q343 857 343 631Q343 396 434 256Q527 112 684 112ZM853 1398T809 1440T764 1528T776 1601T808 1650Q852 1693 919 1693Q981 1693 1024 1650T1068 1541Q1068 1482 1024
1440Q980 1398 933 1398Q853 1398 809 1440ZM295 1482T295 1527T307 1601T340 1650Q386 1693 453 1693Q516 1693 557 1650T599 1541Q599 1482 558 1440Q515 1398 468 1398Q387 1398 341 1440Z" />
<glyph unicode="&#xf7;" glyph-name="divide" horiz-adv-x="1193" d="M175 669H1035L1016 506H156L175 669ZM441 1033Q441 1098 488 1144Q536 1190 601 1190Q666 1190 714 1144Q761 1098 761 1033Q761 969 714 922Q667 875 601 875Q535 875 488 922Q441 969 441
1033ZM441 131Q441 196 488 242Q536 288 601 288Q666 288 714 242Q761 196 761 131Q761 67 714 20Q667 -27 601 -27Q535 -27 488 20Q441 67 441 131Z" />
<glyph unicode="&#xf8;" glyph-name="oslash" horiz-adv-x="1365" d="M875 31T797 9T646 -13T510 0L447 -168H297L379 48Q180 158 128 424Q111 507 111 624T161 854T295 1048Q468 1211 720 1211Q777 1211 829 1201L889 1359H1040L963 1158Q1167 1059 1226 811Q1244
732 1244 641T1223 463T1161 304T1066 172T943 72ZM680 114Q756 114 814 141T916 224Q1010 343 1010 568Q1010 808 918 949Q825 1090 665 1090Q524 1090 436 980Q339 859 339 633Q339 398 430 258Q523 114 680 114Z" />
<glyph unicode="&#xf9;" glyph-name="ugrave" horiz-adv-x="1365" d="M1288 182L1296 183H1301L1298 59L1004 -17Q961 50 947 140Q839 50 664 0Q604 -17 541 -17T415 4T306 68Q209 159 209 334L217 899Q217 999 186 1028Q163 1049 91 1056L106 1154L450 1210L430
1024Q409 832 409 440Q409 280 454 216Q498 151 610 151Q711 151 785 180Q903 228 934 266L932 265V889Q932 994 891 1024Q859 1049 748 1051L763 1154L1150 1210Q1147 1158 1144 1120L1140 1053Q1138 1020 1136 994T1133 938Q1131 880 1131 781V305Q1131 209 1147
188T1178 165T1210 163H1219Q1250 163 1288 182ZM204 1590L326 1760L757 1416L684 1303L204 1590Z" />
<glyph unicode="&#xfa;" glyph-name="uacute" horiz-adv-x="1365" d="M1288 182L1296 183H1301L1298 59L1004 -17Q961 50 947 140Q839 50 664 0Q604 -17 541 -17T415 4T306 68Q209 159 209 334L217 899Q217 999 186 1028Q163 1049 91 1056L106 1154L450 1210L430
1024Q409 832 409 440Q409 280 454 216Q498 151 610 151Q711 151 785 180Q903 228 934 266L932 265V889Q932 994 891 1024Q859 1049 748 1051L763 1154L1150 1210Q1147 1158 1144 1120L1140 1053Q1138 1020 1136 994T1133 938Q1131 880 1131 781V305Q1131 209 1147
188T1178 165T1210 163H1219Q1250 163 1288 182ZM513 1416L945 1760L1067 1590L586 1303L513 1416Z" />
<glyph unicode="&#xfb;" glyph-name="ucircumflex" horiz-adv-x="1365" d="M1288 182L1296 183H1301L1298 59L1004 -17Q961 50 947 140Q839 50 664 0Q604 -17 541 -17T415 4T306 68Q209 159 209 334L217 899Q217 999 186 1028Q163 1049 91 1056L106 1154L450 1210L430
1024Q409 832 409 440Q409 280 454 216Q498 151 610 151Q711 151 785 180Q903 228 934 266L932 265V889Q932 994 891 1024Q859 1049 748 1051L763 1154L1150 1210Q1147 1158 1144 1120L1140 1053Q1138 1020 1136 994T1133 938Q1131 880 1131 781V305Q1131 209 1147
188T1178 165T1210 163H1219Q1250 163 1288 182ZM241 1448L646 1749L1044 1447L958 1341L646 1516L320 1341L241 1448Z" />
<glyph unicode="&#xfc;" glyph-name="udieresis" horiz-adv-x="1365" d="M1288 182L1296 183H1301L1298 59L1004 -17Q961 50 947 140Q839 50 664 0Q604 -17 541 -17T415 4T306 68Q209 159 209 334L217 899Q217 999 186 1028Q163 1049 91 1056L106 1154L450 1210L430
1024Q409 832 409 440Q409 280 454 216Q498 151 610 151Q711 151 785 180Q903 228 934 266L932 265V889Q932 994 891 1024Q859 1049 748 1051L763 1154L1150 1210Q1147 1158 1144 1120L1140 1053Q1138 1020 1136 994T1133 938Q1131 880 1131 781V305Q1131 209 1147
188T1178 165T1210 163H1219Q1250 163 1288 182ZM818 1398T774 1440T729 1528T741 1601T773 1650Q817 1693 884 1693Q946 1693 989 1650T1033 1541Q1033 1482 989 1440Q945 1398 898 1398Q818 1398 774 1440ZM260 1482T260 1527T272 1601T305 1650Q351 1693 418
1693Q481 1693 522 1650T564 1541Q564 1482 523 1440Q480 1398 433 1398Q352 1398 306 1440Z" />
<glyph unicode="&#xfd;" glyph-name="yacute" horiz-adv-x="1193" d="M1248 1074Q1227 1077 1214 1077T1187 1065T1161 1029T1132 974L1101 901Q1053 788 1001 650L768 32L706 -126Q633 -303 594 -361T518 -451Q441 -518 338 -518Q232 -518 128 -426Q98 -399 76
-369L141 -258L150 -257Q268 -323 348 -323Q456 -323 531 -165Q551 -123 566 -84L605 17L521 56L518 57L170 914Q151 960 138 995T92 1054T43 1078H22Q18 1078 7 1077L21 1189H527L513 1079Q495 1076 472 1076H445Q397 1076 376 1038Q367 1021 367 998T379 933T411
832Q472 664 507 578Q656 205 668 177Q761 431 782 494L873 756Q950 967 950 1015Q950 1078 862 1078Q829 1078 787 1072L804 1189H1265L1248 1074ZM537 1416L969 1760L1091 1590L610 1303L537 1416Z" />
<glyph unicode="&#xfe;" glyph-name="thorn" horiz-adv-x="1362" d="M448 -105L449 -243V-254Q449 -342 459 -360T484 -382T536 -387T606 -384Q694 -378 704 -371L686 -508H64L80 -397Q173 -397 199 -369Q245 -320 245 -178V547L239 1365Q239 1454 231 1473T215
1503T191 1519T156 1528Q129 1532 77 1532H52L64 1646L466 1705Q447 1620 447 1195L439 1063Q564 1163 720 1198Q769 1209 831 1209T978 1181T1131 1087Q1284 938 1284 642Q1284 373 1119 182Q950 -15 698 -15Q563 -15 448 13V-105ZM447 213Q491 148 636 120Q677
112 740 112T873 147T990 247Q1086 379 1086 617Q1086 809 985 925Q885 1040 723 1040Q654 1040 584 1012Q468 966 445 940L447 941V213Z" />
<glyph unicode="&#xff;" glyph-name="ydieresis" horiz-adv-x="1193" d="M1248 1074Q1227 1077 1214 1077T1187 1065T1161 1029T1132 974L1101 901Q1053 788 1001 650L768 32L706 -126Q633 -303 594 -361T518 -451Q441 -518 338 -518Q232 -518 128 -426Q98 -399
76 -369L141 -258L150 -257Q268 -323 348 -323Q456 -323 531 -165Q551 -123 566 -84L605 17L521 56L518 57L170 914Q151 960 138 995T92 1054T43 1078H22Q18 1078 7 1077L21 1189H527L513 1079Q495 1076 472 1076H445Q397 1076 376 1038Q367 1021 367 998T379 933T411
832Q472 664 507 578Q656 205 668 177Q761 431 782 494L873 756Q950 967 950 1015Q950 1078 862 1078Q829 1078 787 1072L804 1189H1265L1248 1074ZM842 1398T798 1440T753 1528T765 1601T797 1650Q841 1693 908 1693Q970 1693 1013 1650T1057 1541Q1057 1482 1013
1440Q969 1398 922 1398Q842 1398 798 1440ZM284 1482T284 1527T296 1601T329 1650Q375 1693 442 1693Q505 1693 546 1650T588 1541Q588 1482 547 1440Q504 1398 457 1398Q376 1398 330 1440Z" />
<glyph unicode="&#x2013;" glyph-name="endash" horiz-adv-x="1533" d="M189 669H1364L1344 506H169L189 669Z" />
<glyph unicode="&#x2014;" glyph-name="emdash" horiz-adv-x="2383" d="M197 669H2212L2193 506H178L197 669Z" />
<glyph unicode="&#x2018;" glyph-name="quoteleft" horiz-adv-x="683" d="M376 1168Q345 1156 305 1158T232 1178T177 1224Q76 1359 221 1594Q286 1698 345 1753Q445 1845 471 1844Q529 1843 543 1808Q530 1796 512 1774L475 1724Q365 1573 354 1480Q451 1464
480 1374Q501 1312 470 1250Q441 1191 376 1168Z" />
<glyph unicode="&#x2019;" glyph-name="quoteright" horiz-adv-x="683" d="M307 1742Q338 1754 378 1752T451 1732T506 1686Q607 1551 462 1316Q397 1212 338 1157Q238 1065 212 1066Q154 1067 140 1102Q153 1114 171 1136L208 1186Q318 1337 329 1430Q232 1446
203 1536Q182 1598 213 1660Q242 1719 307 1742Z" />
<glyph unicode="&#x201a;" glyph-name="quotesinglbase" horiz-adv-x="683" d="M286 333Q317 345 357 343T430 323T485 277Q586 142 441 -93Q376 -197 317 -252Q217 -344 191 -343Q133 -342 119 -307Q132 -295 150 -273L187 -223Q297 -72 308 21Q211 37 182 127Q161
189 192 251Q221 310 286 333Z" />
<glyph unicode="&#x201c;" glyph-name="quotedblleft" horiz-adv-x="1366" d="M468 1168Q437 1156 397 1158T324 1178T269 1224Q168 1359 313 1594Q378 1698 437 1753Q537 1845 563 1844Q621 1843 635 1808Q622 1796 604 1774L567 1724Q457 1573 446 1480Q543
1464 572 1374Q593 1312 562 1250Q533 1191 468 1168ZM967 1168Q936 1156 896 1158T823 1178T768 1224Q667 1359 812 1594Q877 1698 936 1753Q1036 1845 1062 1844Q1120 1843 1134 1808Q1121 1796 1103 1774L1066 1724Q956 1573 945 1480Q1042 1464 1071 1374Q1092
1312 1061 1250Q1032 1191 967 1168Z" />
<glyph unicode="&#x201d;" glyph-name="quotedblright" horiz-adv-x="1366" d="M398 1742Q429 1754 469 1752T542 1732T597 1686Q698 1551 553 1316Q488 1212 429 1157Q329 1065 303 1066Q245 1067 231 1102Q244 1114 262 1136L299 1186Q409 1337 420 1430Q323
1446 294 1536Q273 1598 304 1660Q333 1719 398 1742ZM897 1741Q928 1753 968 1751T1041 1731T1096 1685Q1197 1550 1052 1315Q987 1211 928 1156Q828 1064 802 1065Q744 1066 730 1101Q743 1113 761 1135L798 1185Q908 1336 919 1429Q822 1445 793 1535Q772 1597
803 1659Q832 1718 897 1741Z" />
<glyph unicode="&#x201e;" glyph-name="quotedblbase" horiz-adv-x="1026" d="M243 331Q274 343 314 341T387 321T442 275Q543 140 398 -95Q333 -199 274 -254Q174 -346 148 -345Q90 -344 76 -309Q89 -297 107 -275L144 -225Q254 -74 265 19Q168 35 139 125Q118
187 149 249Q178 308 243 331ZM713 331Q744 343 784 341T857 321T912 275Q1013 140 868 -95Q803 -199 744 -254Q644 -346 618 -345Q560 -344 546 -309Q559 -297 577 -275L614 -225Q724 -74 735 19Q638 35 609 125Q588 187 619 249Q648 308 713 331Z" />
<glyph unicode="&#x2022;" glyph-name="bullet" horiz-adv-x="1195" d="M595 349Q483 349 406 426Q327 505 327 622Q327 737 406 817Q482 895 595 895Q710 895 786 817Q866 736 866 622Q866 506 786 426Q709 349 595 349Z" />
<glyph unicode="&#x2039;" glyph-name="guilsinglleft" horiz-adv-x="1193" d="M739 1122L852 1047L547 600L852 151L736 67L229 600L739 1122Z" />
<glyph unicode="&#x203a;" glyph-name="guilsinglright" horiz-adv-x="1193" d="M430 67L317 142L622 589L317 1038L433 1122L940 589L430 67Z" />
</font>
</defs>
</svg>
