<?xml version="1.0" standalone="no"?>
<!DOCTYPE svg PUBLIC "-//W3C//DTD SVG 1.1//EN" "http://www.w3.org/Graphics/SVG/1.1/DTD/svg11.dtd">
<svg xmlns="http://www.w3.org/2000/svg">
<defs >
<font id="Kadwa" horiz-adv-x="1291" ><font-face
    font-family="Kadwa"
    units-per-em="2048"
    panose-1="0 0 8 0 0 0 0 0 0 0"
    ascent="2691"
    descent="-1421"
    alphabetic="0" />
<glyph unicode=" " glyph-name="space" horiz-adv-x="481" />
<glyph unicode="!" glyph-name="exclam" horiz-adv-x="696" d="M186 1567H506L469 535L223 524L186 1567ZM174 244T226 294T350 344Q434 344 478 296T522 160Q522 74 470 24T344 -27Q260 -27 217 21T174 160Q174 244 226 294Z" />
<glyph unicode="&quot;" glyph-name="quotedbl" horiz-adv-x="903" d="M117 1602H393L348 1024H117V1602ZM528 1602H807L760 1024H528V1602Z" />
<glyph unicode="#" glyph-name="numbersign" horiz-adv-x="1495" d="M438 1229H698L662 963H920L954 1229H1214L1180 963H1372V752H1151L1118 500H1321V289H1090L1053 0H793L829 289H573L535 0H274L313 289H123V500H340L375 752H174V963H401L438 1229ZM891 752H635L600
500H858L891 752Z" />
<glyph unicode="$" glyph-name="dollar" horiz-adv-x="1130" d="M377 -18T300 -4T174 24T113 43V406H301L332 252Q338 250 360 241T422 223T510 215Q608 215 673 253T739 360Q739 419 686 453T512 528Q389 571 309 612T171 733T113 942Q113 1098 207 1196T461
1325V1567H680V1333Q758 1327 829 1311T944 1279T999 1260L991 924H815L776 1075Q776 1077 719 1091T612 1106Q516 1106 465 1070T414 977Q414 918 469 883T643 807Q768 762 846 722T981 604T1038 406Q1038 240 941 133T680 -10V-299H461V-23Q377 -18 300 -4Z"
/>
<glyph unicode="%" glyph-name="percent" horiz-adv-x="1914" d="M113 1202T161 1289T293 1422T481 1468Q637 1468 732 1374T827 1106Q827 989 779 901T647 765T457 717Q299 717 206 808T113 1083Q113 1202 161 1289ZM664 -16H367L1223 1458H1520L664 -16ZM348
993T374 944T467 895Q535 895 563 945T592 1098Q592 1194 565 1243T471 1292Q405 1292 377 1241T348 1092Q348 993 374 944ZM1063 457T1111 544T1243 677T1432 723Q1588 723 1683 629T1778 360Q1778 243 1730 156T1597 20T1407 -29Q1249 -29 1156 62T1063 338Q1063
457 1111 544ZM1298 248T1325 199T1417 150Q1485 150 1513 200T1542 352Q1542 448 1515 497T1421 547Q1355 547 1327 496T1298 346Q1298 248 1325 199Z" />
<glyph unicode="&amp;" glyph-name="ampersand" horiz-adv-x="1386" d="M858 1114T840 1192Q834 1194 811 1200T748 1212T655 1219Q561 1219 511 1172T461 1057Q461 969 529 920T696 870H1325V696L1182 649V432Q1182 219 1034 97T631 -25Q371 -25 242 86T113 385Q113
526 202 619T373 754Q314 791 274 822T195 919T156 1077Q156 1267 294 1367T672 1468Q778 1468 901 1438T1075 1382L1065 1059H872Q858 1114 840 1192ZM598 649T514 594T430 428Q430 332 489 279T651 225Q760 225 822 286T885 461V649H731Q598 649 514 594Z" />
<glyph unicode="&apos;" glyph-name="quotesingle" horiz-adv-x="491" d="M113 1602H389L344 1024H113V1602Z" />
<glyph unicode="(" glyph-name="parenleft" horiz-adv-x="722" d="M569 1352T483 1086T397 578Q397 312 482 27T715 -471H451Q273 -219 192 23T111 573Q111 856 192 1088T451 1577H717Q569 1352 483 1086Z" />
<glyph unicode=")" glyph-name="parenright" horiz-adv-x="716" d="M440 1321T522 1089T604 573Q604 266 523 23T264 -471H0Q147 -258 232 26T317 578Q317 820 231 1086T-2 1577H264Q440 1321 522 1089Z" />
<glyph unicode="*" glyph-name="asterisk" horiz-adv-x="854" d="M348 1264L319 1507L510 1511L492 1262L418 1202L348 1264ZM492 1262L719 1362L782 1178L532 1126L457 1180L492 1262ZM305 1130L51 1174L113 1356L348 1264L385 1176L305 1130ZM418 1047L295 819L137
930L305 1130L397 1137L418 1047ZM700 932L551 819L418 1047L440 1137L532 1126L700 932Z" />
<glyph unicode="+" glyph-name="plus" horiz-adv-x="1269" d="M500 1092H772V674H1182V432H772V0H500V432H86V674H500V1092Z" />
<glyph unicode="," glyph-name="comma" horiz-adv-x="620" d="M145 244T195 294T322 344Q400 344 447 295T494 156Q494 -75 211 -379L82 -272Q92 -260 121 -216T177 -118T205 -27Q205 -7 194 16T180 43Q164 76 155 100T145 162Q145 244 195 294Z" />
<glyph unicode="-" glyph-name="hyphen" horiz-adv-x="808" d="M696 430H113V686H696V430Z" />
<glyph unicode="." glyph-name="period" horiz-adv-x="614" d="M133 244T185 294T309 344Q393 344 437 296T481 160Q481 74 430 24T305 -27Q221 -27 177 21T133 160Q133 244 185 294Z" />
<glyph unicode="/" glyph-name="slash" horiz-adv-x="1056" d="M352 0H41L723 1444H1036L352 0Z" />
<glyph unicode="0" glyph-name="zero" horiz-adv-x="1320" d="M879 1468T994 1386T1159 1144T1208 741Q1208 364 1075 169T659 -27Q378 -27 251 158T123 711Q123 1084 255 1276T680 1468Q879 1468 994 1386ZM588 1212T542 1166T476 1014T455 721Q455 455 504 342T668
229Q744 229 789 278T854 436T874 731Q874 913 855 1016T792 1166T668 1212Q588 1212 542 1166Z" />
<glyph unicode="1" glyph-name="one" horiz-adv-x="1101" d="M176 236H463V1116L150 915L31 1133L518 1444H780V236H1057V0H176V236Z" />
<glyph unicode="2" glyph-name="two" horiz-adv-x="1243" d="M82 250Q346 463 482 584T695 811T772 1014Q772 1108 707 1163T532 1219Q483 1219 441 1211T374 1193T342 1182L322 1008H106L96 1386Q114 1392 182 1412T349 1450T547 1468Q813 1468 959 1375T1106
1065Q1106 928 1040 802T853 552T526 250H1141V0H82V250Z" />
<glyph unicode="3" glyph-name="three" horiz-adv-x="1212" d="M1059 969T994 878T803 754Q932 725 1011 636T1090 430Q1090 272 1007 170T791 22T502 -25Q385 -25 285 0T118 53T51 86L137 311Q151 305 205 285T341 245T502 225Q627 225 694 278T762 434Q762 528
686 581T471 635H311V850H481Q608 850 678 900T748 1049Q748 1127 689 1173T522 1219Q477 1219 432 1212T359 1197T322 1188L301 1024H86L76 1382Q96 1388 167 1409T340 1449T532 1468Q1058 1468 1059 1100Q1059 969 994 878Z" />
<glyph unicode="4" glyph-name="four" horiz-adv-x="1284" d="M1014 0H698V291H61L31 532L215 803Q457 1161 672 1475L1014 1444V543H1219V291H1014V0ZM338 543H702V1083L338 543Z" />
<glyph unicode="5" glyph-name="five" horiz-adv-x="1146" d="M137 305T191 285T326 245T485 225Q587 225 653 279T719 430Q719 545 624 597T338 649H117L152 1444H991L985 1192H442L428 885Q725 885 892 774T1059 461Q1059 309 984 200T787 33T518 -25Q395 -25
288 0T108 53T35 86L123 311Q137 305 191 285Z" />
<glyph unicode="6" glyph-name="six" horiz-adv-x="1275" d="M1040 1210T996 1214T891 1219Q694 1219 593 1129T463 945T434 813Q434 815 484 838T605 881T754 901Q881 901 983 852T1144 707T1204 471Q1204 330 1134 216T940 38T666 -27Q490 -27 365 55T177 279T113
604Q113 856 198 1050T455 1356T881 1468Q957 1468 1011 1459T1065 1448L1051 1208Q1040 1210 996 1214ZM426 379T492 302T664 225Q762 225 821 283T881 440Q881 546 825 602T659 659Q602 659 550 643T466 611T426 588V539Q426 379 492 302Z" />
<glyph unicode="7" glyph-name="seven" horiz-adv-x="1087" d="M518 0H180L711 1188H258L217 997H10V1444H1055V1223L518 0Z" />
<glyph unicode="8" glyph-name="eight" horiz-adv-x="1265" d="M1139 963T1072 889T915 774Q1034 719 1104 636T1174 422Q1174 291 1103 189T905 30T610 -27Q444 -27 328 26T152 175T92 393Q92 524 173 607T354 739Q252 796 196 873T139 1067Q139 1257 278 1362T657
1468Q888 1468 1013 1362T1139 1081Q1139 963 1072 889ZM444 995T500 952T666 868Q732 895 781 944T831 1067Q831 1135 778 1177T637 1219Q547 1219 496 1177T444 1067Q444 995 500 952ZM850 492T789 538T604 631Q414 545 414 408Q414 320 470 273T631 225Q735
225 792 274T850 414Q850 492 789 538Z" />
<glyph unicode="9" glyph-name="nine" horiz-adv-x="1263" d="M229 231T273 228T379 225Q578 225 679 314T808 494T836 627Q824 621 780 601T665 562T516 543Q319 543 193 653T66 971Q66 1114 136 1227T330 1404T604 1468Q780 1468 905 1388T1093 1165T1157 840Q1157
588 1073 393T817 85T389 -27Q313 -27 259 -18T205 -6L219 233Q229 231 273 228ZM844 1067T778 1143T606 1219Q508 1219 449 1161T389 1001Q389 897 445 840T610 782Q667 782 719 798T804 832T844 856V911Q844 1067 778 1143Z" />
<glyph unicode=":" glyph-name="colon" horiz-adv-x="624" d="M137 860T189 910T315 961Q399 961 442 913T485 774Q485 690 433 640T309 590Q225 590 181 638T137 774Q137 860 189 910ZM137 244T189 294T315 344Q399 344 442 296T485 160Q485 74 434 24T309 -27Q225
-27 181 21T137 160Q137 244 189 294Z" />
<glyph unicode=";" glyph-name="semicolon" horiz-adv-x="636" d="M150 860T201 910T326 961Q410 961 454 913T498 774Q498 690 446 640T322 590Q238 590 194 638T150 774Q150 860 201 910ZM96 -260T125 -216T181 -118T209 -27Q209 -7 198 16T184 43Q168 76 159
100T150 162Q150 244 200 294T328 344Q406 344 452 295T498 156Q498 -73 217 -379L86 -272Q96 -260 125 -216Z" />
<glyph unicode="&lt;" glyph-name="less" horiz-adv-x="1222" d="M82 426V672L1141 1120V854L414 547L1141 250V-20L82 426Z" />
<glyph unicode="=" glyph-name="equal" horiz-adv-x="1228" d="M1126 659H102V895H1126V659ZM1126 219H102V455H1126V219Z" />
<glyph unicode="&gt;" glyph-name="greater" horiz-adv-x="1222" d="M82 1120L1141 672V426L82 -20V250L809 547L82 854V1120Z" />
<glyph unicode="?" glyph-name="question" horiz-adv-x="950" d="M209 528T201 596T193 707Q193 775 238 831T369 961Q453 1033 496 1086T539 1200Q539 1335 354 1335Q299 1335 244 1326T172 1313L133 1526Q145 1530 193 1541T310 1563T438 1575Q614 1575 731
1500T848 1257Q848 1175 817 1106T743 986T629 866Q551 790 515 741T479 637Q479 598 481 564T483 518L211 506Q209 528 201 596ZM193 244T245 294T369 344Q453 344 497 296T541 160Q541 74 489 24T362 -27Q278 -27 236 21T193 160Q193 244 245 294Z" />
<glyph unicode="@" glyph-name="at" horiz-adv-x="1679" d="M1114 301T1055 341T969 428Q969 424 932 393T842 336T727 309Q618 309 557 372T496 545Q496 789 840 788H934V858Q934 907 906 930T815 954Q758 954 676 938T594 920L555 1071Q567 1075 614 1090T730
1119T864 1133Q1022 1133 1093 1072T1165 874V535Q1165 502 1184 483T1237 463Q1300 463 1336 533T1372 739Q1372 989 1238 1129T852 1270Q598 1270 460 1126T322 717Q322 451 441 310T805 168Q866 168 923 179T1017 202T1061 219L1145 51Q1145 49 1095 28T966
-12T791 -31Q455 -31 276 158T96 707Q96 940 190 1112T458 1376T862 1468Q1087 1468 1253 1386T1508 1141T1597 750Q1597 609 1547 508T1411 354T1214 301Q1114 301 1055 341ZM711 528T733 508T795 487Q838 487 874 511T934 557V653H854Q778 653 745 632T711 563Q711
528 733 508Z" />
<glyph unicode="A" glyph-name="A" horiz-adv-x="1531" d="M1522 0H870V174L1024 229L975 379H520L469 231L629 174V0H10V174L160 231L610 1438L938 1444L1378 231L1522 174V0ZM754 1083L592 598H907L754 1083Z" />
<glyph unicode="B" glyph-name="B" horiz-adv-x="1347" d="M965 1444T1086 1355T1208 1090Q1208 830 963 752Q1106 711 1180 627T1255 424Q1255 0 723 0H72V174L225 236V1198L72 1260V1434L543 1444H758Q965 1444 1086 1355ZM774 854T832 902T891 1044Q891 1120
843 1159T717 1198H543V854H662Q774 854 832 902ZM713 246Q819 246 875 292T932 424Q932 535 867 587T662 639H543V246H713Z" />
<glyph unicode="C" glyph-name="C" horiz-adv-x="1366" d="M1014 1182T984 1190T903 1205T793 1212Q629 1212 542 1088T455 711Q455 469 545 355T803 240Q893 240 980 271T1129 341T1192 383L1305 199Q1305 193 1227 134T1030 25T768 -25Q455 -25 284 160T113
700Q113 938 198 1111T438 1376T803 1468Q914 1468 1019 1447T1202 1400T1280 1372L1270 983H1069L1022 1180Q1014 1182 984 1190Z" />
<glyph unicode="D" glyph-name="D" horiz-adv-x="1501" d="M236 1198L82 1260V1434L553 1444H748Q1059 1444 1229 1264T1399 741Q1399 514 1315 346T1078 89T717 0H82V174L236 236V1198ZM883 246T969 357T1055 731Q1055 981 975 1089T737 1198H553V246H723Q883
246 969 357Z" />
<glyph unicode="E" glyph-name="E" horiz-adv-x="1273" d="M977 635H563V246H930L977 414H1161V0H92V174L246 236V1198L92 1260V1434L563 1444H1137V1049H952L901 1198H563V860H977V635Z" />
<glyph unicode="F" glyph-name="F" horiz-adv-x="1187" d="M92 174L246 236V1198L92 1260V1434L563 1444H1137V1055H946L895 1198H563V840H987V614H563V236L752 174V0H92V174Z" />
<glyph unicode="G" glyph-name="G" horiz-adv-x="1536" d="M1020 1182T991 1190T909 1205T797 1212Q629 1212 542 1088T455 711Q455 236 803 236Q850 236 900 244T984 261T1028 272V530L874 578V745L1464 756V578L1325 530V113Q1325 109 1247 73T1046 6T768 -25Q455
-25 284 160T113 700Q113 938 198 1111T438 1376T803 1468Q914 1468 1019 1447T1202 1400T1280 1372L1270 1004H1079L1028 1180Q1020 1182 991 1190Z" />
<glyph unicode="H" glyph-name="H" horiz-adv-x="1622" d="M72 174L225 236V1198L72 1260V1434L707 1444V1260L543 1198V870H1079V1198L915 1260V1434L1550 1444V1260L1397 1198V236L1550 174V0H915V174L1079 236V625H543V236L707 174V0H72V174Z" />
<glyph unicode="I" glyph-name="I" horiz-adv-x="788" d="M82 174L236 236V1198L82 1260V1434L707 1444V1260L553 1198V236L707 174V0H82V174Z" />
<glyph unicode="J" glyph-name="J" horiz-adv-x="786" d="M561 31T518 -88T373 -267T94 -328Q53 -328 3 -322T-61 -313L-35 -102H63Q243 -102 244 94V1198L90 1260V1434L715 1444V1260L561 1198V217Q561 31 518 -88Z" />
<glyph unicode="K" glyph-name="K" horiz-adv-x="1474" d="M72 174L225 236V1202L72 1264V1434L696 1444V1264L543 1202V850H682L1024 1434L1403 1444V1264L1208 1206L940 760L1321 236L1475 174V0H850V174L973 236L692 625H543V236L696 174V0H72V174Z" />
<glyph unicode="L" glyph-name="L" horiz-adv-x="1105" d="M891 471H1085V0H61V174L215 236V1198L61 1260V1434L686 1444V1260L532 1198V246H846L891 471Z" />
<glyph unicode="M" glyph-name="M" horiz-adv-x="1798" d="M72 174L225 236V1198L72 1260V1434L600 1444L907 762L1229 1434L1720 1444V1260L1573 1198V236L1726 174V0H1116V174L1276 236V1006L1221 870L989 389L768 379L532 864L498 971V236L655 174V0H72V174Z" />
<glyph unicode="N" glyph-name="N" horiz-adv-x="1611" d="M72 174L225 236V1198L72 1260V1434L563 1444L1116 498V1198L967 1260V1434L1550 1444V1260L1397 1198V0H1055L506 928V236L666 174V0H72V174Z" />
<glyph unicode="O" glyph-name="O" horiz-adv-x="1546" d="M1096 1468T1265 1277T1434 741Q1434 514 1348 340T1106 70T748 -27Q441 -27 277 161T113 711Q113 944 194 1115T429 1377T788 1468Q1096 1468 1265 1277ZM618 1212T540 1099T461 721Q461 467 532 348T758
229Q918 229 1001 347T1085 731Q1085 981 1010 1096T778 1212Q618 1212 540 1099Z" />
<glyph unicode="P" glyph-name="P" horiz-adv-x="1275" d="M72 174L225 236V1198L72 1260V1434L543 1444H737Q970 1444 1102 1329T1235 1014Q1235 760 1085 631T651 502H543V236L696 174V0H72V174ZM780 741T849 800T918 973Q918 1075 864 1136T707 1198H543V741H651Q780
741 849 800Z" />
<glyph unicode="Q" glyph-name="Q" horiz-adv-x="1519" d="M412 -4T263 182T113 711Q113 942 197 1113T436 1376T803 1468Q1116 1468 1285 1277T1454 741Q1454 477 1342 289T1028 23L1102 -25Q1206 -97 1281 -135T1423 -174Q1452 -174 1494 -158T1569 -125T1612
-102L1679 -205L1720 -266Q1704 -276 1645 -311T1509 -378T1372 -410Q1311 -410 1250 -382T1110 -301L696 -23Q412 -4 263 182ZM618 1212T535 1095T451 721Q451 473 529 351T772 229Q946 229 1031 352T1116 731Q1116 979 1039 1095T793 1212Q618 1212 535 1095Z"
/>
<glyph unicode="R" glyph-name="R" horiz-adv-x="1382" d="M72 174L225 236V1198L72 1260V1434L543 1444H698Q954 1444 1092 1339T1231 1026Q1231 887 1170 791T999 639Q1050 580 1085 506L1223 225L1362 174V0H983L811 379Q772 467 750 503T699 553T614 567H543V236L690
174V0H72V174ZM780 782T847 838T915 997Q915 1085 860 1141T711 1198H543V782H659Q780 782 847 838Z" />
<glyph unicode="S" glyph-name="S" horiz-adv-x="1239" d="M373 268T399 258T470 239T567 229Q671 229 743 273T815 395Q815 442 784 474T704 527T563 582Q428 629 340 675T188 808T123 1034Q123 1171 190 1269T376 1418T643 1468Q745 1468 845 1450T1011 1413T1094
1386L1083 1014H895L844 1188Q836 1190 809 1197T742 1211T664 1219Q560 1219 503 1178T446 1073Q446 1007 507 970T702 885Q837 838 924 793T1074 664T1137 449Q1137 299 1065 192T868 29T584 -27Q482 -27 381 -10T212 26T127 51V444H336L367 272Q373 268 399
258Z" />
<glyph unicode="T" glyph-name="T" horiz-adv-x="1228" d="M455 1198H260L209 1004H20V1444H1208V1004H1018L967 1198H772V236L967 174V0H260V174L455 236V1198Z" />
<glyph unicode="U" glyph-name="U" horiz-adv-x="1615" d="M541 375T600 300T809 225Q915 225 972 263T1051 378T1073 584V1198L913 1260V1434L1544 1444V1260L1391 1198V584Q1391 277 1255 126T799 -25Q494 -25 359 114T223 553V1198L72 1260V1434L700 1444V1260L541
1198V553Q541 375 600 300Z" />
<glyph unicode="V" glyph-name="V" horiz-adv-x="1482" d="M10 1434L645 1444V1260L494 1200L682 612L748 360L813 602L1016 1198L860 1260V1434L1473 1444V1260L1323 1198L891 0H563L150 1202L10 1260V1434Z" />
<glyph unicode="W" glyph-name="W" horiz-adv-x="2119" d="M10 1434L618 1444V1260L469 1198L645 461L932 1427L1208 1444L1483 463L1679 1198L1526 1260V1434L2109 1444V1260L1962 1198L1612 0H1321L1053 973L1004 778L768 0H485L154 1200L10 1260V1434Z" />
<glyph unicode="X" glyph-name="X" horiz-adv-x="1515" d="M20 174L147 225L561 725L180 1221L61 1260V1434L676 1444V1260L573 1225L784 944L985 1217L874 1260V1434L1464 1444V1260L1329 1219L952 741L1352 223L1495 174V0H860V174L954 215L729 518L500 223L629
174V0H20V174Z" />
<glyph unicode="Y" glyph-name="Y" horiz-adv-x="1366" d="M369 174L522 236V500L147 1204L14 1260V1434L594 1444V1260L489 1217L694 776L911 1214L799 1260V1434L1352 1444V1260L1210 1204L840 502V236L993 174V0H369V174Z" />
<glyph unicode="Z" glyph-name="Z" horiz-adv-x="1259" d="M788 1198H358L307 1014H113V1444H1198V1212L485 246H952L997 451H1192V0H61V215L788 1198Z" />
<glyph unicode="[" glyph-name="bracketleft" horiz-adv-x="720" d="M137 1577L649 1567V1356L406 1333V-229L649 -252V-461L137 -471V1577Z" />
<glyph unicode="\" glyph-name="backslash" horiz-adv-x="1036" d="M14 1444H328L1010 0H698L14 1444Z" />
<glyph unicode="]" glyph-name="bracketright" horiz-adv-x="720" d="M311 1333L66 1356V1567L578 1577V-471L66 -461V-250L311 -227V1333Z" />
<glyph unicode="^" glyph-name="asciicircum" horiz-adv-x="1218" d="M496 1444H721L1116 655H852L604 1157L358 655H102L496 1444Z" />
<glyph unicode="_" glyph-name="underscore" horiz-adv-x="1015" d="M1020 -369H-4V-164H1020V-369Z" />
<glyph unicode="`" glyph-name="grave" horiz-adv-x="655" d="M645 1374L545 1225L49 1526L188 1739L645 1374Z" />
<glyph unicode="a" glyph-name="a" horiz-adv-x="1230" d="M733 129T680 88T553 14T401 -20Q251 -20 167 63T82 301Q82 477 208 558T575 639H719V752Q719 902 561 901Q514 901 474 894T411 880T381 870L350 741H166L152 1044Q170 1050 240 1070T409 1108T596 1126Q754
1126 847 1087T983 959T1026 721V215L1180 178V14L770 0L733 133Q733 129 680 88ZM379 272T410 241T500 209Q549 209 597 235T678 290T719 328V465H602Q483 465 431 433T379 332Q379 272 410 241Z" />
<glyph unicode="b" glyph-name="b" horiz-adv-x="1265" d="M526 1061T595 1093T764 1126Q969 1126 1076 985T1184 584Q1184 291 1033 133T590 -25Q490 -25 396 -15T241 6T164 20V1366L10 1407V1571L471 1587V1018Q526 1061 595 1093ZM471 236T514 229T623 221Q867
221 866 563Q866 721 818 801T666 881Q611 881 568 861T498 816T471 788V238Q471 236 514 229Z" />
<glyph unicode="c" glyph-name="c" horiz-adv-x="1075" d="M975 92T864 36T604 -20Q352 -20 212 127T72 537Q72 811 220 968T635 1126Q713 1126 792 1110T925 1078T993 1055L983 719H799L770 864Q760 866 720 873T629 881Q516 881 453 804T389 578Q389 408 453
317T645 225Q725 225 785 249T887 300T942 334L1044 154Q975 92 864 36Z" />
<glyph unicode="d" glyph-name="d" horiz-adv-x="1306" d="M766 63T690 22T502 -20Q291 -20 187 123T82 526Q82 819 222 972T641 1126Q704 1126 795 1106V1366L631 1407V1571L1102 1587V219L1266 178V14L829 0L811 109Q766 63 690 22ZM729 881T635 881Q510 881
455 793T399 543Q399 385 446 305T596 225Q653 225 698 250T769 307T795 342V850Q729 881 635 881Z" />
<glyph unicode="e" glyph-name="e" horiz-adv-x="1155" d="M399 362T465 294T639 225Q715 225 791 246T918 290T983 322L1071 152Q1071 148 1000 102T825 18T604 -20Q344 -20 208 124T72 532Q72 710 137 844T326 1052T618 1126Q843 1126 963 997T1083 645Q1083
596 1078 550T1071 492L391 485Q399 362 465 294ZM514 881T461 825T395 676H766Q766 768 725 824T598 881Q514 881 461 825Z" />
<glyph unicode="f" glyph-name="f" horiz-adv-x="946" d="M266 1378T380 1495T707 1612Q805 1612 886 1596T1018 1559T1069 1536L1063 1235H879L848 1378Q840 1380 807 1383T731 1386Q573 1386 573 1212V1085H840L834 881H573V215L778 164V0H102V164L266 215V881H82V1055L266
1085V1178Q266 1378 380 1495Z" />
<glyph unicode="g" glyph-name="g" horiz-adv-x="1249" d="M82 -147T130 -92T237 -6T297 20Q297 16 263 29T202 73T174 156Q174 219 281 387Q222 426 173 502T123 707Q123 910 259 1018T614 1126Q751 1126 856 1077L1208 1085V922L1040 893Q1042 885 1058 842T1075
731Q1075 518 942 415T584 311Q545 311 515 316T479 322L471 184H774Q971 184 1077 102T1184 -133Q1184 -309 1040 -415T610 -522Q352 -522 217 -455T82 -225Q82 -147 130 -92ZM514 915T472 867T430 721Q430 625 470 571T594 516Q688 516 728 565T768 721Q768 819
728 867T604 915Q514 915 472 867ZM469 -45T446 -60T401 -105T379 -174Q379 -248 439 -272T635 -297Q774 -297 835 -264T897 -158Q897 -92 849 -67T692 -41H477Q469 -45 446 -60Z" />
<glyph unicode="h" glyph-name="h" horiz-adv-x="1372" d="M575 1040T665 1083T856 1126Q1012 1126 1095 1029T1178 758V215L1321 164V0H764V164L870 213V709Q870 873 735 872Q684 872 635 848T553 798T512 764V215L621 164V0H41V164L205 215V1366L41 1407V1571L512
1587V987Q575 1040 665 1083Z" />
<glyph unicode="i" glyph-name="i" horiz-adv-x="747" d="M199 1528T251 1578T375 1628Q547 1628 547 1444Q547 1358 495 1308T375 1257Q291 1257 245 1305T199 1444Q199 1528 251 1578ZM686 164V0H72V164L236 215V881L72 932V1096L543 1106V215L686 164Z" />
<glyph unicode="j" glyph-name="j" horiz-adv-x="690" d="M199 1526T249 1577T375 1628Q547 1628 547 1444Q547 1362 497 1310T375 1257Q291 1257 245 1305T199 1444Q199 1526 249 1577ZM51 -502T1 -496T-63 -487L-39 -287H68Q158 -287 197 -237T236 -84V881L72
932V1096L543 1106V27Q543 -157 501 -272T361 -444T92 -502Q51 -502 1 -496Z" />
<glyph unicode="k" glyph-name="k" horiz-adv-x="1296" d="M647 694L786 903L696 932V1096L1225 1106V932L1081 905L891 637L1120 213L1276 164V0H897L643 500H512V215L625 164V0H41V164L205 215V1366L41 1407V1571L512 1587V694H647Z" />
<glyph unicode="l" glyph-name="l" horiz-adv-x="708" d="M698 164V0H41V164L205 215V1366L41 1407V1571L514 1587V215L698 164Z" />
<glyph unicode="m" glyph-name="m" horiz-adv-x="2033" d="M1982 0H1427V164L1536 215V702Q1536 788 1509 829T1417 870Q1358 870 1308 847T1224 796T1190 764V215L1296 164V0H776V164L883 215V702Q883 790 856 830T766 870Q707 870 656 847T571 795T537 764V215L645
164V0H72V164L229 215V881L74 932V1096L502 1106L516 961Q516 965 575 1009T715 1089T874 1126Q1081 1126 1157 950Q1214 1007 1312 1066T1528 1126Q1686 1126 1764 1030T1843 758V215L1982 164V0Z" />
<glyph unicode="n" glyph-name="n" horiz-adv-x="1402" d="M520 969T584 1011T732 1087T897 1122Q1044 1122 1126 1025T1208 758V215L1352 164V0H788V164L901 215V702Q901 774 863 820T762 866Q705 866 657 841T576 785T543 750V215L655 164V0H72V164L236 215V881L72
932V1096L506 1106L520 965Q520 969 584 1011Z" />
<glyph unicode="o" glyph-name="o" horiz-adv-x="1212" d="M872 1126T1006 982T1141 573Q1141 391 1074 257T883 52T594 -20Q72 -20 72 543Q72 725 140 856T334 1056T625 1126Q872 1126 1006 982ZM498 881T444 806T389 553Q389 383 440 304T604 225Q717 225 770
304T823 563Q823 723 773 802T614 881Q498 881 444 806Z" />
<glyph unicode="p" glyph-name="p" horiz-adv-x="1306" d="M477 1106L496 991Q496 995 544 1031T658 1096T799 1126Q1008 1126 1116 982T1225 584Q1225 295 1088 138T686 -20Q600 -20 512 0V-260L707 -307V-471H45V-307L205 -260V881L41 932V1096L477 1106ZM582
215T672 215Q799 215 853 299T907 547Q907 709 859 795T702 881Q643 881 601 856T536 802T512 768V246Q582 215 672 215Z" />
<glyph unicode="q" glyph-name="q" horiz-adv-x="1224" d="M590 -471V-307L784 -256V90Q784 88 738 59T627 5T492 -20Q283 -20 178 124T72 522Q72 807 223 966T666 1126Q766 1126 860 1115T1014 1093T1092 1077V-256L1245 -307V-471H590ZM784 877T736 884T625
891Q502 891 446 798T389 543Q389 385 437 305T592 225Q649 225 691 245T758 289T784 317V874Q784 877 736 884Z" />
<glyph unicode="r" glyph-name="r" horiz-adv-x="1005" d="M520 969T568 1012T679 1090T805 1126Q854 1126 897 1118T964 1101T995 1090L979 696H795L764 870Q711 870 662 845T578 789T543 756V215L748 164V0H72V164L236 215V881L72 932V1096L502 1106L520 965Q520
969 568 1012Z" />
<glyph unicode="s" glyph-name="s" horiz-adv-x="997" d="M279 223T333 214T451 205Q619 205 618 305Q618 350 571 378T422 440Q313 477 244 512T123 611T72 776Q72 956 192 1041T494 1126Q576 1126 660 1113T802 1085T874 1065L866 758H692L662 881Q662 883 617
892T520 901Q452 901 416 875T379 797Q379 752 426 725T575 668Q684 633 754 601T875 508T926 348Q926 174 798 77T455 -20Q369 -20 285 -10T147 10T78 25V358H262L279 225Q279 223 333 214Z" />
<glyph unicode="t" glyph-name="t" horiz-adv-x="892" d="M358 -20T290 83T221 379V850H31V1049L221 1075V1358L528 1413V1075H815V850H528V399Q528 297 550 256T637 215Q674 215 723 231T799 262L872 106Q700 -21 524 -20Q358 -20 290 83Z" />
<glyph unicode="u" glyph-name="u" horiz-adv-x="1370" d="M31 1096L502 1106V399Q502 313 530 275T627 236Q686 236 737 260T823 313T858 346V881L694 932V1096L1165 1106V215L1329 174V14L897 0L877 143Q877 139 821 96T684 17T518 -20Q364 -20 280 77T195 346V881L31
932V1096Z" />
<glyph unicode="v" glyph-name="v" horiz-adv-x="1226" d="M680 1096L1217 1106V932L1100 905L770 0H432L109 899L10 932V1096L547 1106V932L432 911L618 307L799 905L680 932V1096Z" />
<glyph unicode="w" glyph-name="w" horiz-adv-x="1794" d="M1260 932V1096L1784 1106V932L1675 907L1403 0H1090L928 522L891 682L840 459L690 0H379L100 903L10 932V1096L547 1106V932L418 907L553 332L770 1071L1040 1116L1264 332L1384 901L1260 932Z" />
<glyph unicode="x" glyph-name="x" horiz-adv-x="1191" d="M1034 905L799 553L1030 205L1182 164V0H625V164L688 186L580 367L358 0H10V164L164 205L389 543L141 905L31 932V1096L561 1106V932L500 920L606 739L819 1096L1161 1106V932L1034 905Z" />
<glyph unicode="y" glyph-name="y" horiz-adv-x="1230" d="M10 1096L557 1106V932L442 911L625 338L799 905L680 932V1096L1231 1106V932L1104 905L803 66Q744 -100 677 -218T504 -414T246 -492Q203 -492 136 -485T47 -475L76 -256H209Q315 -256 376 -181T483
-2L119 899L10 932V1096Z" />
<glyph unicode="z" glyph-name="z" horiz-adv-x="1034" d="M455 225H754L788 399H973V0H82V188L602 881H322L291 731H106V1106H967V915L455 225Z" />
<glyph unicode="{" glyph-name="braceleft" horiz-adv-x="827" d="M518 811T476 727T330 604Q518 530 518 313V-41Q518 -125 539 -169T613 -231T766 -250V-461H629Q492 -461 410 -417T292 -279T256 -27V289Q256 391 213 446T61 502V707Q170 707 213 762T256 920V1208Q256
1407 348 1497T629 1587H766V1376Q666 1376 614 1358T540 1295T518 1167V952Q518 811 476 727Z" />
<glyph unicode="|" glyph-name="bar" horiz-adv-x="569" d="M406 1546V-471H164V1546H406Z" />
<glyph unicode="}" glyph-name="braceright" horiz-adv-x="837" d="M328 1251T307 1295T234 1357T82 1376V1587H219Q409 1587 500 1496T592 1208V920Q592 818 635 763T786 707V502Q677 502 635 447T592 289V-27Q592 -260 506 -360T217 -461H82V-250Q182 -250 233
-232T306 -169T328 -41V313Q328 422 377 494T518 604Q328 678 328 893V1167Q328 1251 307 1295Z" />
<glyph unicode="~" glyph-name="asciitilde" horiz-adv-x="1282" d="M88 541T130 604T245 721T418 774Q477 774 529 755T647 700Q710 667 752 652T842 637Q891 637 935 661T1008 715T1038 750L1174 647Q1174 639 1130 575T1013 456T850 401Q791 401 738 419T612
473Q538 508 496 523T406 539Q357 539 315 514T244 460T215 428L88 532Q88 541 130 604Z" />
<glyph unicode="&#xa0;" glyph-name="nbspace" horiz-adv-x="481" />
<glyph unicode="&#xa1;" glyph-name="exclamdown" horiz-adv-x="690" d="M516 870T464 820T340 770Q256 770 212 818T168 954Q168 1040 220 1090T346 1141Q430 1141 473 1093T516 954Q516 870 464 820ZM510 -453H188L225 580L471 590L510 -453Z" />
<glyph unicode="&#xa2;" glyph-name="cent" horiz-adv-x="1044" d="M274 258T176 389T78 723Q78 932 175 1069T457 1245V1444H678V1257Q744 1251 804 1236T903 1207T952 1188L942 877H768L739 1018Q729 1020 691 1027T608 1034Q379 1034 379 762Q379 440 623 440Q697
440 753 461T846 505T893 535L993 375Q944 332 862 285T678 221V0H457V225Q274 258 176 389Z" />
<glyph unicode="&#xa3;" glyph-name="sterling" horiz-adv-x="1280" d="M285 240T303 283T322 424Q322 500 315 582L311 655H123V846L297 874Q291 960 291 1044Q291 1245 397 1356T727 1468Q844 1468 940 1452T1098 1418T1161 1397V1065H977L936 1217Q922 1219
873 1224T762 1229Q676 1229 635 1181T594 1049Q594 963 598 881H893V655H614Q624 536 625 455Q625 394 611 347T578 273T549 246H930L977 451H1167V0H123V174L225 215Q285 240 303 283Z" />
<glyph unicode="&#xa4;" glyph-name="currency" horiz-adv-x="1277" d="M215 725T268 819L106 983L258 1147L422 983Q531 1044 649 1044Q764 1044 862 993L1020 1149L1171 985L1020 834Q1071 738 1071 618Q1071 493 1014 391L1174 233L1020 72L858 231Q760 174
639 174Q504 174 412 229L258 76L104 240L260 393Q215 489 215 606Q215 725 268 819ZM465 387T643 387Q823 387 823 610Q823 825 643 825Q553 825 509 770T465 610Q465 387 643 387Z" />
<glyph unicode="&#xa5;" glyph-name="yen" horiz-adv-x="1376" d="M156 1202L20 1260V1434L598 1444V1260L494 1217L700 788L918 1214L803 1260V1434L1356 1444V1260L1212 1204L1001 825H1196V641H172V825H365L156 1202ZM526 334H172V518H1196V334H844V225L997
174V0H373V174L526 225V334Z" />
<glyph unicode="&#xa6;" glyph-name="brokenbar" horiz-adv-x="608" d="M420 1567V748H178V1567H420ZM420 297V-543H178V297H420Z" />
<glyph unicode="&#xa7;" glyph-name="section" horiz-adv-x="1093" d="M389 -76T417 -81T485 -86Q559 -86 601 -49T643 51Q643 123 591 175T428 301Q334 364 274 415T170 541T127 715Q127 821 167 897T270 1018Q209 1116 209 1237Q209 1346 262 1432T408 1565T621
1612Q701 1612 771 1598T885 1568T938 1548L930 1210H768L733 1386Q725 1388 696 1393T637 1399Q561 1399 519 1360T477 1260Q477 1186 530 1132T694 1001Q788 935 847 885T949 760T991 590Q991 488 950 412T848 291Q909 195 909 82Q909 -33 857 -120T711 -255T498
-303Q422 -303 352 -290T237 -262T180 -244L184 106H352L381 -74Q389 -76 417 -81ZM385 688T432 640T580 526Q672 463 698 442Q735 489 735 557Q735 618 688 665T539 780Q463 827 420 862Q385 815 385 750Q385 688 432 640Z" />
<glyph unicode="&#xa8;" glyph-name="dieresis" horiz-adv-x="1114" d="M184 1530T228 1574T336 1618Q408 1618 445 1576T483 1458Q483 1384 439 1341T332 1298Q260 1298 222 1339T184 1458Q184 1530 228 1574ZM631 1530T676 1574T782 1618Q854 1618 892 1576T930
1458Q930 1384 886 1341T778 1298Q706 1298 669 1339T631 1458Q631 1530 676 1574Z" />
<glyph unicode="&#xa9;" glyph-name="copyright" horiz-adv-x="1685" d="M76 924T175 1099T449 1373T842 1473Q1061 1473 1235 1379T1508 1114T1608 727Q1608 510 1504 335T1219 61T821 -39Q604 -39 434 55T170 318T76 707Q76 924 175 1099ZM285 551T352 423T544
225T831 154Q995 154 1124 225T1326 425T1399 717Q1399 881 1326 1009T1124 1208T831 1280Q667 1280 544 1209T353 1010T285 717Q285 551 352 423ZM990 311T836 311Q662 311 561 412T459 700Q459 899 564 1016T858 1133Q915 1133 973 1120T1072 1091T1122 1071L1116
842H975L952 954Q944 956 914 961T854 967Q684 967 684 727Q684 602 728 542T862 481Q919 481 978 506T1071 559L1147 442Q990 311 836 311Z" />
<glyph unicode="&#xaa;" glyph-name="ordfeminine" horiz-adv-x="999" d="M563 758T528 727T439 671T324 645Q213 645 153 706T92 883Q92 1008 181 1066T442 1124H537V1198Q537 1243 509 1267T434 1292Q391 1292 354 1285T307 1274L289 1186H143L131 1409Q145
1413 199 1427T328 1455T465 1468Q633 1468 700 1400T768 1176V831L877 807V672L592 659L563 762Q563 758 528 727ZM313 866T335 846T395 825Q428 825 460 840T511 872T537 895V991H457Q383 991 348 970T313 899Q313 866 335 846ZM877 276H113V481H877V276Z" />
<glyph unicode="&#xab;" glyph-name="guillemotleft" horiz-adv-x="1226" d="M113 463V621L424 983L594 870L371 543L594 215L424 100L113 463ZM625 463V621L944 983L1114 870L883 543L1114 215L944 100L625 463Z" />
<glyph unicode="&#xac;" glyph-name="logicalnot" horiz-adv-x="1314" d="M1202 164H942V532H123V768H1202V164Z" />
<glyph unicode="&#xad;" glyph-name="softhyphen" horiz-adv-x="808" d="M696 430H113V686H696V430Z" />
<glyph unicode="&#xae;" glyph-name="registered" horiz-adv-x="1480" d="M92 1104T176 1252T408 1485T741 1569Q923 1569 1071 1490T1304 1268T1389 942Q1389 760 1300 612T1057 378T719 293Q537 293 395 372T172 594T92 920Q92 1104 176 1252ZM293 725T410 599T731
473Q866 473 970 530T1132 692T1190 932Q1190 1067 1133 1170T971 1331T731 1389Q528 1389 411 1264T293 932Q293 725 410 599ZM455 711L524 735V1141L455 1169V1255L748 1260Q863 1262 931 1214T999 1073Q999 954 891 901Q893 899 903 889T926 856L989 735L1057
711V618H872L788 805Q772 842 760 854T729 866H682V735L750 711V618H455V711ZM778 975T809 997T840 1057Q840 1096 817 1117T750 1139H682V975H735Q778 975 809 997Z" />
<glyph unicode="&#xaf;" glyph-name="overscore" horiz-adv-x="634" d="M625 1315H10V1530H625V1315Z" />
<glyph unicode="&#xb0;" glyph-name="degree" horiz-adv-x="872" d="M92 1335T188 1426T436 1518Q588 1518 684 1431T780 1198Q780 1042 684 950T436 858Q282 858 187 946T92 1188Q92 1335 188 1426ZM297 1122T333 1081T436 1040Q504 1040 539 1081T575 1196Q575
1262 538 1298T436 1335Q373 1335 335 1299T297 1196Q297 1122 333 1081Z" />
<glyph unicode="&#xb1;" glyph-name="plusminus" horiz-adv-x="1273" d="M502 1130H774V829H1167V590H774V281H502V590H106V829H502V1130ZM1167 -74H106V160H1167V-74Z" />
<glyph unicode="&#xb2;" glyph-name="twosuperior" horiz-adv-x="827" d="M113 813Q254 919 320 974T424 1082T461 1186Q461 1266 356 1266Q325 1266 300 1260T268 1251L254 1143H80L74 1413Q86 1417 132 1429T244 1453T377 1464Q545 1464 642 1404T739 1219Q739
1139 707 1075T608 948T418 788H748V573H68V778L113 813Z" />
<glyph unicode="&#xb3;" glyph-name="threesuperior" horiz-adv-x="808" d="M721 1157T676 1105T555 1032Q633 1018 687 964T741 834Q741 695 632 626T352 557Q280 557 210 574T93 610T35 635L90 807Q100 803 137 790T228 764T334 752Q397 752 435 781T473 848Q473
895 437 917T324 940H213V1094H326Q465 1094 465 1192Q465 1274 352 1274Q315 1274 284 1269T244 1262L233 1176H66L59 1417Q73 1421 122 1432T242 1454T377 1464Q543 1464 632 1406T721 1237Q721 1157 676 1105Z" />
<glyph unicode="&#xb4;" glyph-name="acute" horiz-adv-x="595" d="M457 1743L0 1378L100 1229L596 1530L457 1743Z" />
<glyph unicode="&#xb5;" glyph-name="micro" horiz-adv-x="1349" d="M35 926V1090L487 1106V391Q487 239 606 240Q665 240 719 264T812 319T850 352V885L698 926V1090L1151 1106V215L1307 174V14L891 0L870 145Q870 141 816 97T694 17T563 -20Q522 -20 487 -8V-481H186V885L35
926Z" />
<glyph unicode="&#xb6;" glyph-name="paragraph" horiz-adv-x="1476" d="M483 559Q377 569 290 630T153 789T102 1006Q102 1131 157 1230T316 1386T563 1444H942L1364 1427V1264L1200 1223V-348H942V1223H727V-348H315V-178L483 -133V559Z" />
<glyph unicode="&#xb7;" glyph-name="middot" horiz-adv-x="612" d="M125 717T176 768T309 819Q485 819 485 627Q485 537 435 487T303 436Q125 436 125 627Q125 717 176 768Z" />
<glyph unicode="&#xb8;" glyph-name="cedilla" horiz-adv-x="882" d="M465 -342T492 -321T520 -264Q520 -221 475 -199T352 -176V0H526V-88Q608 -104 655 -151T702 -270Q702 -362 631 -419T444 -477Q383 -477 328 -463T238 -434T195 -412L258 -299Q264 -303 287
-313T347 -333T418 -342Q465 -342 492 -321Z" />
<glyph unicode="&#xb9;" glyph-name="onesuperior" horiz-adv-x="804" d="M121 756H317V1184L131 1071L31 1241L354 1444H578V756H764V573H121V756Z" />
<glyph unicode="&#xba;" glyph-name="ordmasculine" horiz-adv-x="1032" d="M692 1468T795 1365T899 1073Q899 948 847 851T701 700T485 645Q301 645 197 746T92 1044Q92 1173 146 1269T295 1417T510 1468Q692 1468 795 1365ZM348 1280T348 1053Q348 947 385 891T496
834Q643 834 643 1065Q643 1280 500 1280Q348 1280 348 1053ZM883 276H109V481H883V276Z" />
<glyph unicode="&#xbb;" glyph-name="guillemotright" horiz-adv-x="1226" d="M283 983L602 621V463L283 100L113 215L344 543L113 870L283 983ZM803 983L1114 621V463L803 100L633 215L856 543L633 870L803 983Z" />
<glyph unicode="&#xbc;" glyph-name="onequarter" horiz-adv-x="2195" d="M182 756H379V1184L193 1071L92 1241L416 1444H639V756H803V573H182V756ZM819 0H522L1358 1444H1655L819 0ZM2083 348V158H1964V0H1704V158H1294L1266 330L1669 881L1964 846V348H2083ZM1704
608L1509 348H1704V608Z" />
<glyph unicode="&#xbd;" glyph-name="onehalf" horiz-adv-x="2201" d="M182 756H379V1184L193 1071L92 1241L416 1444H639V756H803V573H182V756ZM821 0H524L1360 1444H1657L821 0ZM1462 254Q1599 360 1660 412T1757 514T1792 614Q1792 692 1686 692Q1655 692 1630
686T1597 678L1585 569H1411L1405 840Q1417 844 1462 856T1573 879T1706 891Q1876 891 1973 831T2071 645Q2071 565 2038 501T1939 374T1749 215H2079V0H1399V205L1462 254Z" />
<glyph unicode="&#xbe;" glyph-name="threequarters" horiz-adv-x="2158" d="M766 1139T721 1087T600 1014Q676 1002 732 947T788 815Q788 678 679 610T399 541Q327 541 257 557T140 591T82 616L137 788Q147 784 183 772T273 748T379 735Q432 735 476 760T520
831Q520 923 369 924H260V1075H373Q510 1075 510 1178Q510 1215 483 1236T399 1257Q362 1257 330 1251T289 1243L279 1159H113L104 1399Q118 1403 168 1414T289 1435T424 1446Q590 1446 678 1388T766 1221Q766 1139 721 1087ZM784 0H487L1323 1444H1620L784 0ZM1927
846V348H2046V158H1927V0H1667V158H1260L1231 330L1632 881L1927 846ZM1667 618L1468 348H1667V618Z" />
<glyph unicode="&#xbf;" glyph-name="questiondown" horiz-adv-x="944" d="M758 870T706 820T582 770Q498 770 454 818T410 954Q410 1040 461 1090T586 1141Q670 1141 714 1093T758 954Q758 870 706 820ZM739 586T747 519T756 408Q756 340 711 284T580 154Q496
80 454 28T412 -86Q412 -221 596 -221Q649 -221 705 -212T778 -199L817 -412Q805 -416 756 -427T639 -449T512 -461Q336 -461 219 -386T102 -143Q102 -61 133 8T207 128T322 248Q400 324 435 373T471 477Q471 516 469 550T467 596L737 608Q739 586 747 519Z" />
<glyph unicode="&#xc0;" glyph-name="Agrave" horiz-adv-x="1531" d="M1522 0H870V174L1024 229L975 379H520L469 231L629 174V0H10V174L160 231L610 1438L938 1444L1378 231L1522 174V0ZM754 1083L592 598H907L754 1083ZM1061 1669L967 1505L502 1735L621 1958L1061
1669Z" />
<glyph unicode="&#xc1;" glyph-name="Aacute" horiz-adv-x="1531" d="M1522 0H870V174L1024 229L975 379H520L469 231L629 174V0H10V174L160 231L610 1438L938 1444L1378 231L1522 174V0ZM754 1083L592 598H907L754 1083ZM627 1669L1067 1958L1186 1735L721 1505L627
1669Z" />
<glyph unicode="&#xc2;" glyph-name="Acircumflex" horiz-adv-x="1552" d="M682 1923L864 1939L1196 1655L1098 1520L788 1720L467 1520L369 1655L682 1923ZM1522 0H870V174L1024 229L975 379H520L469 231L629 174V0H10V174L160 231L610 1438L938 1444L1378 231L1522
174V0ZM754 1083L592 598H907L754 1083Z" />
<glyph unicode="&#xc3;" glyph-name="Atilde" horiz-adv-x="1552" d="M369 1679T402 1737T492 1846T625 1896Q674 1896 718 1884T817 1847Q872 1824 907 1813T981 1802Q1016 1802 1047 1821T1098 1861T1122 1888L1235 1802Q1235 1796 1196 1740T1096 1636T958
1589Q909 1589 870 1599T772 1632Q723 1650 688 1659T614 1669Q575 1669 543 1652T491 1616T467 1591L369 1671Q369 1679 402 1737ZM1522 0H870V174L1024 229L975 379H520L469 231L629 174V0H10V174L160 231L610 1438L938 1444L1378 231L1522 174V0ZM754 1083L592
598H907L754 1083Z" />
<glyph unicode="&#xc4;" glyph-name="Adieresis" horiz-adv-x="1531" d="M1522 0H870V174L1024 229L975 379H520L469 231L629 174V0H10V174L160 231L610 1438L938 1444L1378 231L1522 174V0ZM754 1083L592 598H907L754 1083ZM463 1806T507 1850T615 1894Q687 1894
724 1852T762 1734Q762 1660 718 1617T611 1574Q539 1574 501 1615T463 1734Q463 1806 507 1850ZM910 1806T955 1850T1061 1894Q1133 1894 1171 1852T1209 1734Q1209 1660 1165 1617T1057 1574Q985 1574 948 1615T910 1734Q910 1806 955 1850Z" />
<glyph unicode="&#xc5;" glyph-name="Aring" horiz-adv-x="1531" d="M1522 0H870V174L1024 229L975 379H520L469 231L629 174V0H10V174L160 231L610 1438H612Q565 1471 539 1523T512 1642Q512 1724 551 1786T653 1882T786 1915Q856 1915 918 1884T1020 1795T1059
1655Q1059 1583 1027 1525T942 1432L1378 231L1522 174V0ZM741 1767T714 1737T686 1649Q686 1592 711 1562T786 1532Q829 1532 857 1562T885 1651Q885 1708 860 1737T786 1767Q741 1767 714 1737ZM754 1083L592 598H907L754 1083Z" />
<glyph unicode="&#xc6;" glyph-name="AE" horiz-adv-x="1988" d="M1702 635H1288V246H1651L1698 414H1886V0H819V174L971 236V393H575L496 227L621 174V0H10V174L182 236L651 1198L477 1260V1434L868 1444H1862V1044H1671L1620 1198H1288V860H1702V635ZM672 614H971V1198H942L672
614Z" />
<glyph unicode="&#xc7;" glyph-name="Ccedilla" horiz-adv-x="1366" d="M1305 195T1244 147T1087 50T877 -16V-90Q959 -106 1005 -153T1051 -274Q1051 -364 977 -421T793 -479Q732 -479 674 -464T581 -433T537 -410L602 -295Q608 -299 633 -310T696 -332T770 -342Q813
-342 838 -322T864 -266Q864 -223 819 -201T696 -178V-20Q415 -2 264 182T113 700Q113 938 198 1111T438 1376T803 1468Q914 1468 1019 1447T1202 1400T1280 1372L1270 983H1069L1022 1180Q1014 1182 984 1190T903 1205T793 1212Q629 1212 542 1088T455 711Q455
469 545 355T803 240Q893 240 980 271T1129 341T1192 383L1305 199Q1305 195 1244 147Z" />
<glyph unicode="&#xc8;" glyph-name="Egrave" horiz-adv-x="1273" d="M977 635H563V246H930L977 414H1161V0H92V174L246 236V1198L92 1260V1434L563 1444H1137V1049H952L901 1198H563V860H977V635ZM885 1669L791 1505L326 1735L445 1958L885 1669Z" />
<glyph unicode="&#xc9;" glyph-name="Eacute" horiz-adv-x="1273" d="M977 635H563V246H930L977 414H1161V0H92V174L246 236V1198L92 1260V1434L563 1444H1137V1049H952L901 1198H563V860H977V635ZM451 1669L891 1958L1010 1735L545 1505L451 1669Z" />
<glyph unicode="&#xca;" glyph-name="Ecircumflex" horiz-adv-x="1273" d="M977 635H563V246H930L977 414H1161V0H92V174L246 236V1198L92 1260V1434L563 1444H1137V1049H952L901 1198H563V860H977V635ZM574 1923L756 1939L1088 1655L989 1519L680 1720L359 1519L260
1655L574 1923Z" />
<glyph unicode="&#xcb;" glyph-name="Edieresis" horiz-adv-x="1273" d="M977 635H563V246H930L977 414H1161V0H92V174L246 236V1198L92 1260V1434L563 1444H1137V1049H952L901 1198H563V860H977V635ZM286 1809T330 1853T438 1897Q510 1897 547 1855T585 1737Q585
1663 541 1620T434 1577Q362 1577 324 1618T286 1737Q286 1809 330 1853ZM733 1809T778 1853T884 1897Q956 1897 994 1855T1032 1737Q1032 1663 988 1620T880 1577Q808 1577 771 1618T733 1737Q733 1809 778 1853Z" />
<glyph unicode="&#xcc;" glyph-name="Igrave" horiz-adv-x="788" d="M82 174L236 236V1198L82 1260V1434L707 1444V1260L553 1198V236L707 174V0H82V174ZM598 1669L504 1505L39 1735L158 1958L598 1669Z" />
<glyph unicode="&#xcd;" glyph-name="Iacute" horiz-adv-x="788" d="M82 174L236 236V1198L82 1260V1434L707 1444V1260L553 1198V236L707 174V0H82V174ZM178 1669L618 1958L737 1735L272 1505L178 1669Z" />
<glyph unicode="&#xce;" glyph-name="Icircumflex" horiz-adv-x="788" d="M82 174L236 236V1198L82 1260V1434L707 1444V1260L553 1198V236L707 174V0H82V174ZM283 1923L465 1939L797 1655L698 1519L389 1720L68 1519L-31 1655L283 1923Z" />
<glyph unicode="&#xcf;" glyph-name="Idieresis" horiz-adv-x="827" d="M53 1806T97 1850T205 1894Q277 1894 314 1852T352 1735Q352 1661 308 1618T201 1575Q129 1575 91 1616T53 1735Q53 1806 97 1850ZM479 1806T524 1850T631 1894Q703 1894 740 1852T778 1735Q778
1661 734 1618T627 1575Q555 1575 517 1616T479 1735Q479 1806 524 1850ZM111 174L264 236V1198L111 1260V1434L735 1444V1260L582 1198V236L735 174V0H111V174Z" />
<glyph unicode="&#xd0;" glyph-name="Eth" horiz-adv-x="1517" d="M236 1198L82 1260V1434L553 1444H756Q1065 1444 1235 1264T1405 741Q1405 514 1322 346T1086 89T725 0H82V174L236 236V639H96V864H236V1198ZM799 639H551V246H729Q891 246 977 357T1063 731Q1063
979 982 1088T745 1198H551V864H799V639Z" />
<glyph unicode="&#xd1;" glyph-name="Ntilde" horiz-adv-x="1607" d="M373 1679T406 1737T496 1846T629 1896Q678 1896 722 1884T821 1847Q876 1824 911 1813T985 1802Q1020 1802 1051 1821T1102 1861T1126 1888L1239 1802Q1239 1796 1200 1740T1100 1636T963
1589Q914 1589 875 1599T776 1632Q727 1650 692 1659T618 1669Q579 1669 547 1652T495 1616T471 1591L373 1671Q373 1679 406 1737ZM72 174L225 236V1198L72 1260V1434L563 1444L1116 498V1198L967 1260V1434L1550 1444V1260L1397 1198V0H1055L506 928V236L666
174V0H72V174Z" />
<glyph unicode="&#xd2;" glyph-name="Ograve" horiz-adv-x="1546" d="M1096 1468T1265 1277T1434 741Q1434 514 1348 340T1106 70T748 -27Q441 -27 277 161T113 711Q113 944 194 1115T429 1377T788 1468Q1096 1468 1265 1277ZM618 1212T540 1099T461 721Q461 467
532 348T758 229Q918 229 1001 347T1085 731Q1085 981 1010 1096T778 1212Q618 1212 540 1099ZM987 1669L893 1505L428 1735L547 1958L987 1669Z" />
<glyph unicode="&#xd3;" glyph-name="Oacute" horiz-adv-x="1546" d="M1096 1468T1265 1277T1434 741Q1434 514 1348 340T1106 70T748 -27Q441 -27 277 161T113 711Q113 944 194 1115T429 1377T788 1468Q1096 1468 1265 1277ZM618 1212T540 1099T461 721Q461 467
532 348T758 229Q918 229 1001 347T1085 731Q1085 981 1010 1096T778 1212Q618 1212 540 1099ZM543 1669L983 1958L1102 1735L637 1505L543 1669Z" />
<glyph unicode="&#xd4;" glyph-name="Ocircumflex" horiz-adv-x="1546" d="M1096 1468T1265 1277T1434 741Q1434 514 1348 340T1106 70T748 -27Q441 -27 277 161T113 711Q113 944 194 1115T429 1377T788 1468Q1096 1468 1265 1277ZM618 1212T540 1099T461 721Q461
467 532 348T758 229Q918 229 1001 347T1085 731Q1085 981 1010 1096T778 1212Q618 1212 540 1099ZM680 1923L862 1939L1194 1655L1095 1519L786 1720L465 1519L366 1655L680 1923Z" />
<glyph unicode="&#xd5;" glyph-name="Otilde" horiz-adv-x="1546" d="M336 1679T369 1737T459 1846T592 1896Q641 1896 685 1884T784 1847Q839 1824 874 1813T948 1802Q983 1802 1015 1821T1066 1861T1090 1888L1202 1802Q1202 1796 1163 1740T1063 1636T926 1589Q877
1589 838 1599T739 1632Q690 1650 656 1659T582 1669Q543 1669 510 1652T458 1616T434 1591L336 1671Q336 1679 369 1737ZM1096 1468T1265 1277T1434 741Q1434 514 1348 340T1106 70T748 -27Q441 -27 277 161T113 711Q113 944 194 1115T429 1377T788 1468Q1096
1468 1265 1277ZM618 1212T540 1099T461 721Q461 467 532 348T758 229Q918 229 1001 347T1085 731Q1085 981 1010 1096T778 1212Q618 1212 540 1099Z" />
<glyph unicode="&#xd6;" glyph-name="Odieresis" horiz-adv-x="1546" d="M1096 1468T1265 1277T1434 741Q1434 514 1348 340T1106 70T748 -27Q441 -27 277 161T113 711Q113 944 194 1115T429 1377T788 1468Q1096 1468 1265 1277ZM618 1212T540 1099T461 721Q461
467 532 348T758 229Q918 229 1001 347T1085 731Q1085 981 1010 1096T778 1212Q618 1212 540 1099ZM397 1806T441 1850T549 1894Q621 1894 658 1852T696 1734Q696 1660 652 1617T545 1574Q473 1574 435 1615T397 1734Q397 1806 441 1850ZM844 1806T889 1850T995
1894Q1067 1894 1105 1852T1143 1734Q1143 1660 1099 1617T991 1574Q919 1574 882 1615T844 1734Q844 1806 889 1850Z" />
<glyph unicode="&#xd7;" glyph-name="multiply" horiz-adv-x="1255" d="M975 1073L1147 899L801 553L1147 207L975 33L627 381L281 33L109 207L455 553L109 899L281 1073L627 725L975 1073Z" />
<glyph unicode="&#xd8;" glyph-name="Oslash" horiz-adv-x="1566" d="M123 330T123 711Q123 944 206 1115T441 1377T799 1468Q959 1468 1083 1413L1210 1624L1393 1520L1255 1296Q1347 1202 1395 1062T1444 741Q1444 514 1358 340T1117 71T758 -25Q602 -25 481
25L330 -225L147 -121L307 141Q123 330 123 711ZM631 1212T549 1102T467 743Q467 567 510 473L819 983L938 1178Q872 1213 788 1212Q631 1212 549 1102ZM1102 875T1057 969L627 264Q686 229 768 229Q1102 229 1102 731Q1102 875 1057 969Z" />
<glyph unicode="&#xd9;" glyph-name="Ugrave" horiz-adv-x="1615" d="M541 375T600 300T809 225Q915 225 972 263T1051 378T1073 584V1198L913 1260V1434L1544 1444V1260L1391 1198V584Q1391 277 1255 126T799 -25Q494 -25 359 114T223 553V1198L72 1260V1434L700
1444V1260L541 1198V553Q541 375 600 300ZM1008 1669L914 1505L449 1735L568 1958L1008 1669Z" />
<glyph unicode="&#xda;" glyph-name="Uacute" horiz-adv-x="1615" d="M541 375T600 300T809 225Q915 225 972 263T1051 378T1073 584V1198L913 1260V1434L1544 1444V1260L1391 1198V584Q1391 277 1255 126T799 -25Q494 -25 359 114T223 553V1198L72 1260V1434L700
1444V1260L541 1198V553Q541 375 600 300ZM584 1669L1024 1958L1143 1735L678 1505L584 1669Z" />
<glyph unicode="&#xdb;" glyph-name="Ucircumflex" horiz-adv-x="1615" d="M541 375T600 300T809 225Q915 225 972 263T1051 378T1073 584V1198L913 1260V1434L1544 1444V1260L1391 1198V584Q1391 277 1255 126T799 -25Q494 -25 359 114T223 553V1198L72 1260V1434L700
1444V1260L541 1198V553Q541 375 600 300ZM703 1923L885 1939L1217 1655L1118 1519L809 1720L488 1519L389 1655L703 1923Z" />
<glyph unicode="&#xdc;" glyph-name="Udieresis" horiz-adv-x="1615" d="M541 375T600 300T809 225Q915 225 972 263T1051 378T1073 584V1198L913 1260V1434L1544 1444V1260L1391 1198V584Q1391 277 1255 126T799 -25Q494 -25 359 114T223 553V1198L72 1260V1434L700
1444V1260L541 1198V553Q541 375 600 300ZM436 1806T480 1850T588 1894Q660 1894 697 1852T735 1734Q735 1660 691 1617T584 1574Q512 1574 474 1615T436 1734Q436 1806 480 1850ZM883 1806T928 1850T1034 1894Q1106 1894 1144 1852T1182 1734Q1182 1660 1138 1617T1030
1574Q958 1574 921 1615T883 1734Q883 1806 928 1850Z" />
<glyph unicode="&#xdd;" glyph-name="Yacute" horiz-adv-x="1366" d="M369 174L522 236V500L147 1204L14 1260V1434L594 1444V1260L489 1217L694 776L911 1214L799 1260V1434L1352 1444V1260L1210 1204L840 502V236L993 174V0H369V174ZM532 1669L972 1958L1091
1735L626 1505L532 1669Z" />
<glyph unicode="&#xde;" glyph-name="Thorn" horiz-adv-x="1288" d="M72 174L225 236V1198L72 1260V1434L717 1444V1260L543 1198V1137H745Q978 1137 1107 1039T1237 758Q1237 537 1083 433T653 328H543V236L717 174V0H72V174ZM674 547Q793 547 858 595T924 737Q924
821 866 866T709 911H543V547H674Z" />
<glyph unicode="&#xdf;" glyph-name="germandbls" horiz-adv-x="1542" d="M272 1300T334 1400T512 1556T774 1612Q1020 1612 1155 1519T1290 1266Q1290 1174 1255 1116T1151 991Q1104 946 1082 914T1059 840Q1059 785 1103 752T1243 678Q1333 639 1391 604T1491
507T1532 352Q1532 241 1475 157T1316 26T1083 -20Q1009 -20 932 -10T801 10T733 25V354H918L938 217Q938 215 981 205T1073 195Q1145 195 1183 224T1221 305Q1221 354 1178 386T1044 457Q952 498 893 534T791 636T748 801Q748 889 782 941T885 1053Q938 1102 963
1136T989 1223Q989 1301 926 1343T778 1386Q684 1386 632 1332T580 1182V0H109V164L272 215V881H72V1055L272 1085V1167Q272 1300 334 1400Z" />
<glyph unicode="&#xe0;" glyph-name="agrave" horiz-adv-x="1230" d="M733 129T680 88T553 14T401 -20Q251 -20 167 63T82 301Q82 477 208 558T575 639H719V752Q719 902 561 901Q514 901 474 894T411 880T381 870L350 741H166L152 1044Q170 1050 240 1070T409
1108T596 1126Q754 1126 847 1087T983 959T1026 721V215L1180 178V14L770 0L733 133Q733 129 680 88ZM379 272T410 241T500 209Q549 209 597 235T678 290T719 328V465H602Q483 465 431 433T379 332Q379 272 410 241ZM823 1374L723 1225L227 1526L366 1739L823 1374Z"
/>
<glyph unicode="&#xe1;" glyph-name="aacute" horiz-adv-x="1230" d="M733 129T680 88T553 14T401 -20Q251 -20 167 63T82 301Q82 477 208 558T575 639H719V752Q719 902 561 901Q514 901 474 894T411 880T381 870L350 741H166L152 1044Q170 1050 240 1070T409
1108T596 1126Q754 1126 847 1087T983 959T1026 721V215L1180 178V14L770 0L733 133Q733 129 680 88ZM379 272T410 241T500 209Q549 209 597 235T678 290T719 328V465H602Q483 465 431 433T379 332Q379 272 410 241ZM754 1743L297 1378L397 1229L893 1530L754 1743Z"
/>
<glyph unicode="&#xe2;" glyph-name="acircumflex" horiz-adv-x="1230" d="M733 129T680 88T553 14T401 -20Q251 -20 167 63T82 301Q82 477 208 558T575 639H719V752Q719 902 561 901Q514 901 474 894T411 880T381 870L350 741H166L152 1044Q170 1050 240 1070T409
1108T596 1126Q754 1126 847 1087T983 959T1026 721V215L1180 178V14L770 0L733 133Q733 129 680 88ZM379 272T410 241T500 209Q549 209 597 235T678 290T719 328V465H602Q483 465 431 433T379 332Q379 272 410 241ZM473 1929L655 1945L1014 1616L915 1480L580
1726L236 1480L137 1616L473 1929Z" />
<glyph unicode="&#xe3;" glyph-name="atilde" horiz-adv-x="1230" d="M733 129T680 88T553 14T401 -20Q251 -20 167 63T82 301Q82 477 208 558T575 639H719V752Q719 902 561 901Q514 901 474 894T411 880T381 870L350 741H166L152 1044Q170 1050 240 1070T409
1108T596 1126Q754 1126 847 1087T983 959T1026 721V215L1180 178V14L770 0L733 133Q733 129 680 88ZM379 272T410 241T500 209Q549 209 597 235T678 290T719 328V465H602Q483 465 431 433T379 332Q379 272 410 241ZM397 1393T430 1451T520 1559T653 1610Q702 1610
744 1598T837 1561Q888 1538 921 1527T993 1516Q1028 1516 1059 1535T1110 1574T1134 1602L1243 1507Q1243 1499 1209 1441T1118 1333T987 1284Q938 1284 899 1295T800 1331Q755 1351 720 1362T643 1374Q604 1374 571 1356T518 1317T493 1290L397 1384Q397 1393
430 1451Z" />
<glyph unicode="&#xe4;" glyph-name="adieresis" horiz-adv-x="1230" d="M733 129T680 88T553 14T401 -20Q251 -20 167 63T82 301Q82 477 208 558T575 639H719V752Q719 902 561 901Q514 901 474 894T411 880T381 870L350 741H166L152 1044Q170 1050 240 1070T409
1108T596 1126Q754 1126 847 1087T983 959T1026 721V215L1180 178V14L770 0L733 133Q733 129 680 88ZM379 272T410 241T500 209Q549 209 597 235T678 290T719 328V465H602Q483 465 431 433T379 332Q379 272 410 241ZM213 1757T257 1801T365 1845Q437 1845 474 1803T512
1685Q512 1611 468 1568T361 1525Q289 1525 251 1566T213 1685Q213 1757 257 1801ZM660 1757T705 1801T811 1845Q883 1845 921 1803T959 1685Q959 1611 915 1568T807 1525Q735 1525 698 1566T660 1685Q660 1757 705 1801Z" />
<glyph unicode="&#xe5;" glyph-name="aring" horiz-adv-x="1230" d="M733 129T680 88T553 14T401 -20Q251 -20 167 63T82 301Q82 477 208 558T575 639H719V752Q719 902 561 901Q514 901 474 894T411 880T381 870L350 741H166L152 1044Q170 1050 240 1070T409 1108T596
1126Q754 1126 847 1087T983 959T1026 721V215L1180 178V14L770 0L733 133Q733 129 680 88ZM379 272T410 241T500 209Q549 209 597 235T678 290T719 328V465H602Q483 465 431 433T379 332Q379 272 410 241ZM331 1565T370 1627T472 1722T606 1755Q676 1755 738 1725T839
1636T878 1495Q878 1413 839 1352T737 1257T606 1223Q536 1223 473 1253T370 1342T331 1483Q331 1565 370 1627ZM506 1432T531 1402T606 1372Q649 1372 676 1403T704 1491Q704 1548 679 1578T606 1608Q561 1608 534 1577T506 1489Q506 1432 531 1402Z" />
<glyph unicode="&#xe6;" glyph-name="ae" horiz-adv-x="1773" d="M1030 360T1096 293T1270 225Q1346 225 1421 246T1547 290T1610 322L1700 152Q1700 148 1625 102T1446 18T1229 -20Q930 -20 803 184Q729 98 628 39T399 -20Q254 -20 168 66T82 301Q82 477 207
558T573 639H717V752Q717 899 559 899Q514 899 474 892T410 878T379 868L348 741H164L150 1044Q150 1048 227 1069T404 1107T590 1124Q705 1124 783 1096T909 1006Q1046 1127 1249 1126Q1470 1126 1591 999T1712 647Q1712 598 1707 550T1700 487L1022 481Q1030
360 1096 293ZM1143 881T1089 824T1022 666H1397Q1397 766 1356 823T1229 881Q1143 881 1089 824ZM375 274T407 242T498 209Q545 209 594 236T676 293T717 332V465H600Q481 465 428 433T375 332Q375 274 407 242Z" />
<glyph unicode="&#xe7;" glyph-name="ccedilla" horiz-adv-x="1075" d="M882 15T694 -12V-82Q774 -98 822 -146T870 -266Q870 -354 797 -411T614 -469Q553 -469 497 -455T405 -425T360 -403L424 -291Q430 -295 455 -305T518 -324T592 -334Q637 -334 662 -314T688
-258Q688 -215 642 -192T518 -168V-14Q305 9 189 153T72 537Q72 811 220 968T635 1126Q713 1126 792 1110T925 1078T993 1055L983 721H799L770 864Q760 866 720 873T629 881Q516 881 453 805T389 578Q389 408 453 317T645 225Q725 225 785 249T887 300T942 334L1044
154Q882 15 694 -12Z" />
<glyph unicode="&#xe8;" glyph-name="egrave" horiz-adv-x="1155" d="M399 362T465 294T639 225Q715 225 791 246T918 290T983 322L1071 152Q1071 148 1000 102T825 18T604 -20Q344 -20 208 124T72 532Q72 710 137 844T326 1052T618 1126Q843 1126 963 997T1083
645Q1083 596 1078 550T1071 492L391 485Q399 362 465 294ZM514 881T461 825T395 676H766Q766 768 725 824T598 881Q514 881 461 825ZM854 1374L754 1225L258 1526L397 1739L854 1374Z" />
<glyph unicode="&#xe9;" glyph-name="eacute" horiz-adv-x="1155" d="M399 362T465 294T639 225Q715 225 791 246T918 290T983 322L1071 152Q1071 148 1000 102T825 18T604 -20Q344 -20 208 124T72 532Q72 710 137 844T326 1052T618 1126Q843 1126 963 997T1083
645Q1083 596 1078 550T1071 492L391 485Q399 362 465 294ZM514 881T461 825T395 676H766Q766 768 725 824T598 881Q514 881 461 825ZM344 1374L444 1225L940 1526L800 1739L344 1374Z" />
<glyph unicode="&#xea;" glyph-name="ecircumflex" horiz-adv-x="1155" d="M399 362T465 294T639 225Q715 225 791 246T918 290T983 322L1071 152Q1071 148 1000 102T825 18T604 -20Q344 -20 208 124T72 532Q72 710 137 844T326 1052T618 1126Q843 1126 963 997T1083
645Q1083 596 1078 550T1071 492L391 485Q399 362 465 294ZM514 881T461 825T395 676H766Q766 768 725 824T598 881Q514 881 461 825ZM483 1929L665 1945L1024 1616L925 1480L590 1726L246 1480L147 1616L483 1929Z" />
<glyph unicode="&#xeb;" glyph-name="edieresis" horiz-adv-x="1155" d="M399 362T465 294T639 225Q715 225 791 246T918 290T983 322L1071 152Q1071 148 1000 102T825 18T604 -20Q344 -20 208 124T72 532Q72 710 137 844T326 1052T618 1126Q843 1126 963 997T1083
645Q1083 596 1078 550T1071 492L391 485Q399 362 465 294ZM514 881T461 825T395 676H766Q766 768 725 824T598 881Q514 881 461 825ZM213 1757T257 1801T365 1845Q437 1845 474 1803T512 1685Q512 1611 468 1568T361 1525Q289 1525 251 1566T213 1685Q213 1757
257 1801ZM660 1757T705 1801T811 1845Q883 1845 921 1803T959 1685Q959 1611 915 1568T807 1525Q735 1525 698 1566T660 1685Q660 1757 705 1801Z" />
<glyph unicode="&#xec;" glyph-name="igrave" horiz-adv-x="741" d="M680 164V0H72V164L236 215V885L72 926V1090L537 1106V215L680 164ZM647 1374L547 1225L51 1526L190 1739L647 1374Z" />
<glyph unicode="&#xed;" glyph-name="iacute" horiz-adv-x="741" d="M680 164V0H72V164L236 215V885L72 926V1090L537 1106V215L680 164ZM111 1374L211 1225L707 1526L567 1739L111 1374Z" />
<glyph unicode="&#xee;" glyph-name="icircumflex" horiz-adv-x="743" d="M262 1673L444 1690L784 1360L684 1225L369 1470L43 1225L-57 1360L262 1673ZM680 164V0H72V164L236 215V885L72 926V1090L537 1106V215L680 164Z" />
<glyph unicode="&#xef;" glyph-name="idieresis" horiz-adv-x="741" d="M-2 1501T42 1545T150 1589Q222 1589 259 1547T297 1430Q297 1356 253 1313T145 1270Q73 1270 36 1311T-2 1430Q-2 1501 42 1545ZM424 1501T469 1545T575 1589Q647 1589 685 1547T723 1430Q723
1356 679 1313T571 1270Q499 1270 462 1311T424 1430Q424 1501 469 1545ZM680 164V0H72V164L236 215V885L72 926V1090L537 1106V215L680 164Z" />
<glyph unicode="&#xf0;" glyph-name="eth" horiz-adv-x="1183" d="M496 1577T637 1491L852 1616L971 1454L805 1360Q950 1217 1026 1014T1102 557Q1102 383 1038 251T853 47T573 -25Q337 -25 205 106T72 492Q72 658 138 780T322 968T594 1034Q674 1034 754 989Q699
1136 594 1235L354 1098L236 1260L416 1362Q332 1407 242 1438L336 1616Q496 1577 637 1491ZM485 799T437 724T389 502Q389 367 435 289T584 211Q693 211 738 288T784 512Q784 655 742 727T594 799Q485 799 437 724Z" />
<glyph unicode="&#xf1;" glyph-name="ntilde" horiz-adv-x="1402" d="M273 1393T306 1451T396 1559T529 1610Q578 1610 620 1598T713 1561Q764 1538 797 1527T869 1516Q904 1516 935 1535T986 1574T1010 1602L1119 1507Q1119 1499 1085 1441T994 1333T863 1284Q814
1284 775 1295T676 1331Q631 1351 596 1362T519 1374Q480 1374 447 1356T394 1317T369 1290L273 1384Q273 1393 306 1451ZM520 969T584 1011T732 1087T897 1122Q1044 1122 1126 1025T1208 758V215L1352 164V0H788V164L901 215V702Q901 774 863 820T762 866Q705
866 657 841T576 785T543 750V215L655 164V0H72V164L236 215V881L72 932V1096L506 1106L520 965Q520 969 584 1011Z" />
<glyph unicode="&#xf2;" glyph-name="ograve" horiz-adv-x="1212" d="M872 1126T1006 982T1141 573Q1141 391 1074 257T883 52T594 -20Q72 -20 72 543Q72 725 140 856T334 1056T625 1126Q872 1126 1006 982ZM498 881T444 806T389 553Q389 383 440 304T604 225Q717
225 770 304T823 563Q823 723 773 802T614 881Q498 881 444 806ZM885 1374L785 1225L289 1526L428 1739L885 1374Z" />
<glyph unicode="&#xf3;" glyph-name="oacute" horiz-adv-x="1212" d="M872 1126T1006 982T1141 573Q1141 391 1074 257T883 52T594 -20Q72 -20 72 543Q72 725 140 856T334 1056T625 1126Q872 1126 1006 982ZM498 881T444 806T389 553Q389 383 440 304T604 225Q717
225 770 304T823 563Q823 723 773 802T614 881Q498 881 444 806ZM346 1374L446 1225L942 1526L802 1739L346 1374Z" />
<glyph unicode="&#xf4;" glyph-name="ocircumflex" horiz-adv-x="1212" d="M872 1126T1006 982T1141 573Q1141 391 1074 257T883 52T594 -20Q72 -20 72 543Q72 725 140 856T334 1056T625 1126Q872 1126 1006 982ZM498 881T444 806T389 553Q389 383 440 304T604
225Q717 225 770 304T823 563Q823 723 773 802T614 881Q498 881 444 806ZM500 1929L682 1945L1041 1616L942 1480L607 1726L263 1480L164 1616L500 1929Z" />
<glyph unicode="&#xf5;" glyph-name="otilde" horiz-adv-x="1212" d="M872 1126T1006 982T1141 573Q1141 391 1074 257T883 52T594 -20Q72 -20 72 543Q72 725 140 856T334 1056T625 1126Q872 1126 1006 982ZM498 881T444 806T389 553Q389 383 440 304T604 225Q717
225 770 304T823 563Q823 723 773 802T614 881Q498 881 444 806ZM182 1393T215 1451T305 1559T438 1610Q487 1610 529 1598T622 1561Q673 1538 706 1527T778 1516Q813 1516 844 1535T895 1574T919 1602L1028 1507Q1028 1499 994 1441T903 1333T772 1284Q723 1284
684 1295T585 1331Q540 1351 505 1362T428 1374Q389 1374 356 1356T303 1317T278 1290L182 1384Q182 1393 215 1451Z" />
<glyph unicode="&#xf6;" glyph-name="odieresis" horiz-adv-x="1212" d="M872 1126T1006 982T1141 573Q1141 391 1074 257T883 52T594 -20Q72 -20 72 543Q72 725 140 856T334 1056T625 1126Q872 1126 1006 982ZM498 881T444 806T389 553Q389 383 440 304T604 225Q717
225 770 304T823 563Q823 723 773 802T614 881Q498 881 444 806ZM233 1757T277 1801T385 1845Q457 1845 494 1803T532 1685Q532 1611 488 1568T381 1525Q309 1525 271 1566T233 1685Q233 1757 277 1801ZM680 1757T725 1801T831 1845Q903 1845 941 1803T979 1685Q979
1611 935 1568T827 1525Q755 1525 718 1566T680 1685Q680 1757 725 1801Z" />
<glyph unicode="&#xf7;" glyph-name="divide" horiz-adv-x="1290" d="M467 1075T518 1124T649 1174Q823 1174 823 985Q823 895 773 845T643 795Q557 795 512 844T467 985Q467 1075 518 1124ZM1182 426H106V662H1182V426ZM467 195T518 244T649 293Q823 293 823
104Q823 14 773 -36T643 -86Q557 -86 512 -37T467 104Q467 195 518 244Z" />
<glyph unicode="&#xf8;" glyph-name="oslash" horiz-adv-x="1232" d="M82 232T82 543Q82 725 150 856T344 1056T635 1126Q739 1126 838 1094L971 1317L1124 1231L991 1008Q1151 865 1151 573Q1151 391 1084 257T893 52T604 -20Q502 -20 393 8L244 -240L90 -154L238
94Q82 232 82 543ZM506 891T453 813T399 551Q399 465 422 401L705 874Q668 890 625 891Q506 891 453 813ZM834 654T811 707L526 231Q559 215 614 215Q729 215 781 297T834 563Q834 654 811 707Z" />
<glyph unicode="&#xf9;" glyph-name="ugrave" horiz-adv-x="1370" d="M31 1096L502 1106V399Q502 313 530 275T627 236Q686 236 737 260T823 313T858 346V881L694 932V1096L1165 1106V215L1329 174V14L897 0L877 143Q877 139 821 96T684 17T518 -20Q364 -20 280
77T195 346V881L31 932V1096ZM907 1374L807 1225L311 1526L450 1739L907 1374Z" />
<glyph unicode="&#xfa;" glyph-name="uacute" horiz-adv-x="1370" d="M31 1096L502 1106V399Q502 313 530 275T627 236Q686 236 737 260T823 313T858 346V881L694 932V1096L1165 1106V215L1329 174V14L897 0L877 143Q877 139 821 96T684 17T518 -20Q364 -20 280
77T195 346V881L31 932V1096ZM387 1374L487 1225L983 1526L843 1739L387 1374Z" />
<glyph unicode="&#xfb;" glyph-name="ucircumflex" horiz-adv-x="1370" d="M31 1096L502 1106V399Q502 313 530 275T627 236Q686 236 737 260T823 313T858 346V881L694 932V1096L1165 1106V215L1329 174V14L897 0L877 143Q877 139 821 96T684 17T518 -20Q364 -20
280 77T195 346V881L31 932V1096ZM551 1929L733 1945L1092 1616L993 1480L658 1726L314 1480L215 1616L551 1929Z" />
<glyph unicode="&#xfc;" glyph-name="udieresis" horiz-adv-x="1370" d="M31 1096L502 1106V399Q502 313 530 275T627 236Q686 236 737 260T823 313T858 346V881L694 932V1096L1165 1106V215L1329 174V14L897 0L877 143Q877 139 821 96T684 17T518 -20Q364 -20
280 77T195 346V881L31 932V1096ZM270 1757T314 1801T422 1845Q494 1845 531 1803T569 1685Q569 1611 525 1568T418 1525Q346 1525 308 1566T270 1685Q270 1757 314 1801ZM717 1757T762 1801T868 1845Q940 1845 978 1803T1016 1685Q1016 1611 972 1568T864 1525Q792
1525 755 1566T717 1685Q717 1757 762 1801Z" />
<glyph unicode="&#xfd;" glyph-name="yacute" horiz-adv-x="1230" d="M10 1096L557 1106V932L442 911L625 338L799 905L680 932V1096L1231 1106V932L1104 905L803 66Q744 -100 677 -218T504 -414T246 -492Q203 -492 136 -485T47 -475L76 -256H209Q315 -256 376
-181T483 -2L119 899L10 932V1096ZM471 1374L571 1225L1067 1526L927 1739L471 1374Z" />
<glyph unicode="&#xfe;" glyph-name="thorn" horiz-adv-x="1290" d="M512 1012T553 1042T658 1099T803 1126Q1004 1126 1111 981T1219 584Q1219 295 1073 138T635 -20Q602 -20 563 -13T512 -4V-270L727 -317V-481H45V-317L205 -270V1366L41 1407V1571L512 1587V1008Q512
1012 553 1042ZM516 240T534 234T587 221T668 215Q793 215 847 306T901 563Q901 880 700 881Q645 881 603 860T537 813T512 784V242Q516 240 534 234Z" />
<glyph unicode="&#xff;" glyph-name="ydieresis" horiz-adv-x="1230" d="M10 1096L557 1106V932L442 911L625 338L799 905L680 932V1096L1231 1106V932L1104 905L803 66Q744 -100 677 -218T504 -414T246 -492Q203 -492 136 -485T47 -475L76 -256H209Q315 -256
376 -181T483 -2L119 899L10 932V1096ZM233 1757T277 1801T385 1845Q457 1845 494 1803T532 1685Q532 1611 488 1568T381 1525Q309 1525 271 1566T233 1685Q233 1757 277 1801ZM680 1757T725 1801T831 1845Q903 1845 941 1803T979 1685Q979 1611 935 1568T827 1525Q755
1525 718 1566T680 1685Q680 1757 725 1801Z" />
<glyph unicode="&#x2013;" glyph-name="endash" horiz-adv-x="1024" d="M1024 547H0V788H1024V547Z" />
<glyph unicode="&#x2014;" glyph-name="emdash" horiz-adv-x="1986" d="M1987 547H0V788H1987V547Z" />
<glyph unicode="&#x2018;" glyph-name="quoteleft" horiz-adv-x="636" d="M471 989T421 939T295 889Q217 889 170 938T123 1079Q123 1308 406 1612L535 1507Q525 1495 496 1451T440 1352T412 1260Q412 1244 419 1227T434 1194Q471 1133 471 1071Q471 989 421 939Z" />
<glyph unicode="&#x2019;" glyph-name="quoteright" horiz-adv-x="636" d="M113 1008T141 1052T197 1150T225 1241Q225 1261 214 1284T201 1311Q185 1344 176 1368T166 1430Q166 1512 216 1562T344 1612Q422 1612 468 1563T514 1423Q514 1194 233 889L102 995Q113
1008 141 1052Z" />
<glyph unicode="&#x201a;" glyph-name="quotesinglbase" horiz-adv-x="636" d="M106 -311T135 -267T191 -169T219 -78Q219 -58 208 -35T195 -8Q179 25 170 49T160 111Q160 193 210 243T338 293Q416 293 462 244T508 104Q508 -125 227 -430L96 -324Q106 -311 135 -267Z" />
<glyph unicode="&#x201c;" glyph-name="quotedblleft" horiz-adv-x="1114" d="M471 989T421 939T295 889Q217 889 170 938T123 1079Q123 1308 406 1612L535 1507Q525 1495 496 1451T440 1352T412 1260Q412 1244 419 1227T434 1194Q471 1133 471 1071Q471 989 421
939ZM948 989T898 939T770 889Q692 889 646 938T600 1079Q600 1306 881 1612L1012 1507Q1002 1495 973 1451T917 1352T889 1260Q889 1244 896 1227T911 1194Q948 1133 948 1071Q948 989 898 939Z" />
<glyph unicode="&#x201d;" glyph-name="quotedblright" horiz-adv-x="1114" d="M113 1008T141 1052T197 1150T225 1241Q225 1261 214 1284T201 1311Q185 1344 176 1368T166 1430Q166 1512 216 1562T344 1612Q422 1612 468 1563T514 1423Q514 1194 233 889L102
995Q113 1008 141 1052ZM590 1008T618 1052T674 1150T702 1241Q702 1261 691 1284T678 1311Q662 1344 653 1368T643 1430Q643 1512 693 1562T819 1612Q897 1612 944 1563T991 1423Q991 1192 709 889L580 995Q590 1008 618 1052Z" />
<glyph unicode="&#x201e;" glyph-name="quotedblbase" horiz-adv-x="1112" d="M106 -311T135 -267T191 -169T219 -78Q219 -58 208 -35T195 -8Q179 25 170 49T160 111Q160 193 210 243T338 293Q416 293 462 244T508 104Q508 -125 227 -430L96 -324Q106 -311 135
-267ZM584 -311T612 -267T668 -169T696 -78Q696 -58 685 -35T672 -8Q656 25 647 49T637 111Q637 193 687 243T813 293Q891 293 938 244T985 104Q985 -127 702 -430L573 -324Q584 -311 612 -267Z" />
<glyph unicode="&#x2022;" glyph-name="bullet" horiz-adv-x="1112" d="M164 750T216 839T357 980T551 1032Q655 1032 744 980T886 839T938 645Q938 541 886 452T745 310T551 258Q447 258 358 310T216 451T164 645Q164 750 216 839Z" />
<glyph unicode="&#x2039;" glyph-name="guilsinglleft" horiz-adv-x="694" d="M102 463V621L422 983L592 870L360 543L592 215L422 100L102 463Z" />
<glyph unicode="&#x203a;" glyph-name="guilsinglright" horiz-adv-x="694" d="M283 983L602 621V463L283 100L113 215L344 543L113 870L283 983Z" />
</font>
</defs>
</svg>
