<?xml version="1.0" standalone="no"?>
<!DOCTYPE svg PUBLIC "-//W3C//DTD SVG 1.1//EN" "http://www.w3.org/Graphics/SVG/1.1/DTD/svg11.dtd">
<svg xmlns="http://www.w3.org/2000/svg">
<defs >
<font id="QuattrocentoSans" horiz-adv-x="432" ><font-face
    font-family="Quattrocento Sans"
    units-per-em="1000"
    panose-1="2 11 5 2 5 0 0 2 0 3"
    ascent="848"
    descent="-260"
    alphabetic="0" />
<glyph unicode=" " glyph-name="space" horiz-adv-x="245" />
<glyph unicode="!" glyph-name="exclam" horiz-adv-x="258" d="M83 35Q83 54 96 68T130 83Q148 83 162 69T177 35Q177 16 163 3T130 -11Q110 -11 97 2T83 35ZM105 150L81 682H178L152 150H105Z" />
<glyph unicode="&quot;" glyph-name="quotedbl" horiz-adv-x="334" d="M80 516L59 732H140L116 516H80ZM217 516L196 732H277L253 516H217Z" />
<glyph unicode="#" glyph-name="numbersign" horiz-adv-x="614" d="M456 446H577L567 394H445L419 275H547L537 222H408L361 0H297L344 222H218L171 0H107L154 222H38L48 275H165L191 394H68L78 446H202L246 654H310L266 446H392L436 654H500L456 446ZM229 275H355L381
394H255L229 275Z" />
<glyph unicode="$" glyph-name="dollar" horiz-adv-x="529" d="M300 664Q344 661 383 651T451 627L430 550Q405 572 370 583T300 597V378Q335 366 369 351T429 313T472 257T489 176Q489 130 474 97T433 41T373 6T300 -10V-96H240V-11Q181 -9 131 6T43 43L64 116Q100
91 139 74T240 54V313Q198 327 165 343T108 380T72 430T59 498Q59 538 72 568T110 618T168 649T240 663V750H300V664ZM412 162Q412 188 403 208T378 243T342 270T300 291V57Q360 65 386 93T412 162ZM132 501Q132 481 138 466T158 440T191 419T240 399V597Q189 592
161 569T132 501Z" />
<glyph unicode="%" glyph-name="percent" horiz-adv-x="818" d="M186 665Q221 665 248 650T294 610T323 552T333 481Q333 445 323 411T294 351T247 310T182 294Q147 294 120 308T75 348T48 406T39 477Q39 516 49 550T78 610T124 650T186 665ZM183 339Q208 339
226 350T255 380T272 424T278 479Q278 542 255 581T184 620Q135 620 115 582T95 483Q95 411 118 375T183 339ZM209 -24H144L607 691H672L209 -24ZM634 364Q669 364 696 349T742 309T771 251T781 180Q781 144 771 110T742 50T695 9T630 -7Q595 -7 568 7T523 47T496
105T487 176Q487 215 497 249T526 309T572 349T634 364ZM631 38Q656 38 674 49T703 79T720 123T726 178Q726 241 703 280T632 319Q583 319 563 281T543 182Q543 110 566 74T631 38Z" />
<glyph unicode="&amp;" glyph-name="ampersand" horiz-adv-x="701" d="M669 427V365L535 353Q566 296 566 235Q566 170 532 113L642 0H558L494 65Q459 30 409 9T294 -12Q237 -12 194 3T121 45T78 106T63 176Q63 203 71 231T96 286T138 334T197 370Q168 404 152
438T136 516Q136 553 147 580T179 627T227 655T284 665Q318 665 353 654T423 621L403 550Q380 572 348 586T286 600Q253 600 230 580T206 511Q206 478 219 451T257 398L485 162Q501 200 501 239Q501 269 493 295T468 347L418 343V390L669 427ZM303 54Q351 54 387
69T449 111L241 324Q194 308 167 271T139 185Q139 153 151 129T185 88T237 63T303 54Z" />
<glyph unicode="&apos;" glyph-name="quotesingle" horiz-adv-x="197" d="M80 516L59 732H140L116 516H80Z" />
<glyph unicode="(" glyph-name="parenleft" horiz-adv-x="311" d="M290 758Q249 712 221 664T174 564T148 453T140 327Q140 286 143 237T162 132T207 17T289 -104L252 -117Q156 -31 103 84T50 327Q50 455 103 569T252 771L290 758Z" />
<glyph unicode=")" glyph-name="parenright" horiz-adv-x="311" d="M59 771Q155 683 208 569T261 327Q261 199 208 84T59 -117L22 -104Q74 -43 104 16T149 131T167 236T171 327Q171 394 163 452T137 563T91 664T21 758L59 771Z" />
<glyph unicode="*" glyph-name="asterisk" horiz-adv-x="439" d="M237 568L345 649L378 591L255 537L378 484L346 427L237 506L252 374H187L201 506L93 427L61 484L184 537L61 591L94 649L201 568L187 702H253L237 568Z" />
<glyph unicode="+" glyph-name="plus" horiz-adv-x="497" d="M274 265H446V213H274V41H222V213H51V265H222V427H274V265Z" />
<glyph unicode="," glyph-name="comma" horiz-adv-x="243" d="M68 -78L107 -5H82V85H161V-20L88 -97L68 -78Z" />
<glyph unicode="-" glyph-name="hyphen" horiz-adv-x="486" d="M412 265V213H74V265H412Z" />
<glyph unicode="." glyph-name="period" horiz-adv-x="235" d="M71 35Q71 54 84 68T117 83Q136 83 150 69T165 35Q165 16 151 3T117 -11Q97 -11 84 2T71 35Z" />
<glyph unicode="/" glyph-name="slash" horiz-adv-x="424" d="M111 -57H36L314 702H389L111 -57Z" />
<glyph unicode="0" glyph-name="zero" horiz-adv-x="649" d="M325 665Q389 665 438 638T522 565T573 457T591 329Q591 263 573 202T521 93T435 17T318 -12Q253 -12 205 15T124 88T76 194T59 322Q59 393 77 455T129 564T212 638T325 665ZM320 54Q369 54 405 75T464
133T498 219T509 326Q509 387 498 437T463 523T404 579T322 599Q274 599 240 580T184 525T152 440T142 332Q142 194 188 124T320 54Z" />
<glyph unicode="1" glyph-name="one" horiz-adv-x="317" d="M218 0H143V526L47 480L25 550L218 660V0Z" />
<glyph unicode="2" glyph-name="two" horiz-adv-x="509" d="M56 616Q75 626 99 635T148 651T200 661T251 665Q294 665 330 653T391 620T431 569T445 503Q445 447 414 393T337 286T235 178T132 70H452V0H47V70Q92 128 147 183T250 292T330 397T362 502Q362 522
357 539T338 570T303 591T249 599Q227 599 203 596T154 585T109 569T74 550L56 616Z" />
<glyph unicode="3" glyph-name="three" horiz-adv-x="535" d="M77 616Q94 626 115 635T160 651T206 661T249 665Q338 665 392 622T446 493Q446 451 419 416T351 359Q411 339 444 299T478 193Q478 151 463 114T417 49T340 5T232 -12Q174 -12 125 4T37 50L57 117Q92
88 135 71T229 54Q310 54 352 91T395 201Q395 258 357 291T227 325H200V382H231Q294 382 328 414T363 501Q363 545 339 572T255 599Q232 599 209 595T165 585T126 569T95 550L77 616Z" />
<glyph unicode="4" glyph-name="four" horiz-adv-x="508" d="M459 210H390V0H315V210H31V280L310 660H390V280H459V210ZM315 280V551L116 280H315Z" />
<glyph unicode="5" glyph-name="five" horiz-adv-x="538" d="M77 317L114 665H453V595H177L151 382Q182 389 216 393T279 398Q324 398 362 386T428 349T471 290T487 208Q487 164 472 124T427 54T350 6T242 -12Q184 -12 135 4T47 50L68 120Q105 91 146 73T243 54Q319
54 362 91T405 201Q405 229 398 252T372 292T323 318T248 327Q213 327 176 321T106 302L77 317Z" />
<glyph unicode="6" glyph-name="six" horiz-adv-x="551" d="M137 327Q149 349 167 363T207 385T253 397T301 401Q364 401 403 380T463 327T493 261T501 198Q501 162 490 125T453 57T387 7T289 -12Q226 -12 183 10T114 73T75 171T63 299Q63 368 74 433T114 550T191
632T311 664Q327 664 348 662T391 655T433 640T469 616L452 550Q418 578 380 588T312 599Q260 599 226 578T171 522T142 444T133 357Q133 349 133 343T134 328L137 327ZM423 199Q423 226 417 251T396 296T357 328T296 340Q221 340 186 298T151 193Q151 127 187
88T289 49Q351 49 387 88T423 199Z" />
<glyph unicode="7" glyph-name="seven" horiz-adv-x="457" d="M80 0Q79 9 79 19T79 39Q79 102 105 177T173 327T264 472T362 595H40V665H445V595Q395 545 345 474T255 324T191 171T166 40Q166 29 166 19T167 0H80Z" />
<glyph unicode="8" glyph-name="eight" horiz-adv-x="558" d="M379 362Q437 349 468 302T500 188Q500 146 487 110T447 46T377 4T278 -12Q218 -12 176 4T108 48T70 112T58 186Q58 252 90 298T179 361V365Q144 378 118 414T91 505Q91 577 140 621T279 665Q367 665
417 623T467 508Q467 455 442 419T379 366V362ZM417 181Q417 209 410 235T385 282T342 315T278 328Q240 328 214 316T171 283T147 236T139 181Q139 118 174 84T278 49Q346 49 381 83T417 181ZM385 501Q385 543 362 572T278 602Q219 602 195 574T171 501Q171 451
198 420T278 388Q330 388 357 419T385 501Z" />
<glyph unicode="9" glyph-name="nine" horiz-adv-x="552" d="M415 325Q403 303 385 289T345 267T299 255T251 251Q188 251 149 272T89 325T59 391T51 454Q51 490 62 527T99 595T165 645T263 664Q326 664 369 642T438 579T477 481T489 353Q489 284 478 219T438
102T361 20T241 -12Q225 -12 204 -10T161 -3T119 12T83 36L100 102Q134 74 172 64T240 53Q292 53 326 74T381 130T410 208T419 295Q419 303 419 309T418 324L415 325ZM129 453Q129 426 135 401T156 356T195 324T256 312Q331 312 366 354T401 459Q401 525 365 564T263
603Q201 603 165 564T129 453Z" />
<glyph unicode=":" glyph-name="colon" horiz-adv-x="242" d="M74 35Q74 54 87 68T120 83Q139 83 153 69T168 35Q168 16 154 3T120 -11Q100 -11 87 2T74 35ZM74 408Q74 427 87 441T120 455Q139 455 153 441T168 408Q168 388 154 375T120 361Q100 361 87 374T74 408Z" />
<glyph unicode=";" glyph-name="semicolon" horiz-adv-x="254" d="M83 408Q83 427 96 441T129 455Q148 455 162 441T177 408Q177 388 163 375T129 361Q109 361 96 374T83 408ZM75 -78L114 -5H89V85H168V-20L95 -97L75 -78Z" />
<glyph unicode="&lt;" glyph-name="less" horiz-adv-x="408" d="M144 238L342 105L324 41L38 238V243L323 437L341 374L144 243V238Z" />
<glyph unicode="=" glyph-name="equal" horiz-adv-x="490" d="M414 189V137H76V189H414ZM414 341V289H76V341H414Z" />
<glyph unicode="&gt;" glyph-name="greater" horiz-adv-x="408" d="M264 243L67 374L85 437L370 243V238L84 41L66 105L264 238V243Z" />
<glyph unicode="?" glyph-name="question" horiz-adv-x="412" d="M137 36Q137 56 150 69T183 83Q202 83 216 70T231 36Q231 17 217 3T183 -11Q164 -11 151 3T137 36ZM40 637Q67 658 107 672T185 686Q225 686 257 674T312 641T347 590T359 524Q359 494 349 468T322
415T287 361T252 303T224 234T213 151H149Q149 201 159 240T184 310T218 368T251 418T277 468T287 525Q287 565 262 593T184 621Q168 621 150 617T115 607T83 591T58 571L40 637Z" />
<glyph unicode="@" glyph-name="at" horiz-adv-x="723" d="M441 350Q435 356 416 356Q383 356 360 338T321 294T299 236T292 180Q292 147 301 132T324 116Q337 116 351 126T379 153T402 190T417 229L441 350ZM578 -23Q568 -32 547 -45T495 -71T428 -92T350 -101Q290
-101 237 -81T144 -25T81 64T57 180Q57 237 77 301T141 421T250 512T409 548Q479 548 530 526T615 469T665 390T681 301Q681 257 667 216T625 144T561 93T477 74Q453 74 439 79T417 94T407 117T404 147Q387 113 362 93T310 73Q295 73 280 80T253 103T234 140T226
193Q226 238 243 274T287 335T349 375T417 389Q441 389 469 381T515 356L478 178Q476 167 475 159T474 143Q474 129 480 122T503 115Q529 115 550 130T587 171T611 230T620 297Q620 334 608 370T571 436T505 483T408 501Q337 501 283 473T193 398T139 295T120 180Q120
118 139 74T192 2T268 -40T360 -53Q401 -53 436 -45T499 -24T547 3T578 27V-23Z" />
<glyph unicode="A" glyph-name="A" horiz-adv-x="642" d="M650 0H565L468 222H173L85 0H5L269 660H360L650 0ZM201 292H437L313 576L201 292Z" />
<glyph unicode="B" glyph-name="B" horiz-adv-x="559" d="M99 660Q131 662 174 663T253 665Q342 665 396 622T450 493Q450 453 434 421T382 365Q442 345 476 302T510 193Q510 151 495 114T449 49T372 5T264 -12Q215 -12 173 -9T99 0V660ZM261 54Q342 54 384 91T427
201Q427 258 389 291T259 325Q237 325 216 325T174 323V57Q213 54 261 54ZM235 382Q298 382 332 414T367 501Q367 545 343 572T259 599Q237 599 216 599T174 597V383Q188 382 203 382T235 382Z" />
<glyph unicode="C" glyph-name="C" horiz-adv-x="642" d="M567 550Q535 571 488 585T381 599Q314 599 268 580T194 525T153 441T140 331Q140 194 200 124T379 54Q442 54 495 72T580 116L600 49Q560 25 504 7T376 -12Q294 -12 234 15T135 88T76 194T57 323Q57 394
78 456T140 564T243 638T387 665Q441 665 495 654T588 622L567 550Z" />
<glyph unicode="D" glyph-name="D" horiz-adv-x="704" d="M99 660H104Q152 662 208 663T317 665Q388 665 446 645T546 590Q599 542 623 473T647 323Q647 255 628 195T570 88T470 15T328 -12Q257 -12 201 -9T99 0V660ZM323 599Q283 599 245 599T174 596V60Q237
54 325 54Q444 54 504 124T564 331Q564 391 552 440T511 525T436 579T323 599Z" />
<glyph unicode="E" glyph-name="E" horiz-adv-x="522" d="M481 0H99V660H461V590H174V385H394V315H174V70H481V0Z" />
<glyph unicode="F" glyph-name="F" horiz-adv-x="480" d="M383 315H174V0H99V660H456V590H174V385H383V315Z" />
<glyph unicode="G" glyph-name="G" horiz-adv-x="672" d="M607 55Q562 25 505 7T376 -12Q294 -12 234 15T135 88T76 194T57 323Q57 394 78 456T140 564T243 638T387 665Q445 665 500 654T598 622L577 550Q545 571 495 585T381 599Q314 599 268 580T194 525T153
441T140 331Q140 194 200 124T379 54Q423 54 461 63T532 86V272H607V55Z" />
<glyph unicode="H" glyph-name="H" horiz-adv-x="704" d="M174 375H530V660H605V0H530V305H174V0H99V660H174V375Z" />
<glyph unicode="I" glyph-name="I" horiz-adv-x="273" d="M174 0H99V660H174V0Z" />
<glyph unicode="J" glyph-name="J" horiz-adv-x="272" d="M174 101Q174 48 164 2T132 -80T78 -135T0 -156L-14 -101Q25 -101 48 -82T82 -34T96 32T99 102V660H174V101Z" />
<glyph unicode="K" glyph-name="K" horiz-adv-x="598" d="M174 348Q202 367 224 386T276 433Q325 481 375 540T467 660H553Q529 625 501 589T442 517T383 449T327 391Q316 380 307 371T288 354L594 0H501L233 306L174 261V0H99V660H174V348Z" />
<glyph unicode="L" glyph-name="L" horiz-adv-x="486" d="M469 0H99V660H174V70H469V0Z" />
<glyph unicode="M" glyph-name="M" horiz-adv-x="843" d="M424 94L648 660H744V0H669V499L467 0H377L174 500V0H99V660H200L424 94Z" />
<glyph unicode="N" glyph-name="N" horiz-adv-x="704" d="M174 540V0H99V660H190L530 119V660H605V0H514L174 540Z" />
<glyph unicode="O" glyph-name="O" horiz-adv-x="756" d="M378 665Q456 665 516 638T617 565T679 457T700 329Q700 263 680 202T618 93T515 17T371 -12Q291 -12 232 15T134 88T76 194T56 322Q56 393 77 455T140 564T241 638T378 665ZM373 54Q438 54 484 75T560
133T604 219T618 326Q618 387 604 437T560 523T484 579T375 599Q311 599 266 580T193 525T152 440T139 332Q139 194 199 124T373 54Z" />
<glyph unicode="P" glyph-name="P" horiz-adv-x="529" d="M99 660H103Q135 662 174 663T248 665Q302 665 346 652T421 611T470 545T488 453Q488 411 474 374T432 309T361 265T259 248Q211 248 174 251V0H99V660ZM254 599Q233 599 213 599T174 597V317Q210 314
256 314Q330 314 367 351T405 461Q405 492 397 517T372 561T325 589T254 599Z" />
<glyph unicode="Q" glyph-name="Q" horiz-adv-x="759" d="M380 665Q458 665 518 638T619 565T681 457T702 329Q702 265 683 205T625 99T528 23T393 -11Q428 -15 461 -27T529 -53T598 -76T671 -87Q711 -87 756 -68L737 -132Q718 -142 699 -145T663 -148Q621 -148
581 -134T504 -104T431 -73T362 -59Q338 -59 304 -68T239 -100L225 -53Q251 -33 282 -23T342 -11Q270 -6 217 23T129 97T76 200T58 322Q58 393 79 455T142 564T243 638T380 665ZM377 54Q441 54 487 75T563 133T606 220T620 329Q620 389 606 438T561 523T485 579T375
599Q312 599 268 580T195 524T154 439T141 329Q141 193 201 124T377 54Z" />
<glyph unicode="R" glyph-name="R" horiz-adv-x="595" d="M99 660Q134 662 173 663T248 665Q302 665 346 653T421 616T470 557T488 475Q488 411 452 361T341 291L594 0H501L254 282Q210 282 174 285V0H99V660ZM254 599Q233 599 213 599T174 597V350Q192 348 212
348T256 348Q330 348 367 382T405 483Q405 535 372 567T254 599Z" />
<glyph unicode="S" glyph-name="S" horiz-adv-x="551" d="M138 501Q138 476 147 460T177 430T229 406T305 379Q342 367 378 352T442 314T488 258T505 176Q505 125 485 89T432 31T356 -2T267 -12Q202 -12 146 4T49 43L70 116Q89 103 108 92T149 72T199 59T261 54Q306
54 338 62T390 84T419 119T428 162Q428 196 412 219T371 260T315 288T254 310Q211 324 176 340T117 378T79 429T65 498Q65 543 81 574T126 626T194 655T278 665Q332 665 382 654T467 627L446 550Q430 564 409 573T364 588T317 596T274 599Q211 599 175 576T138
501Z" />
<glyph unicode="T" glyph-name="T" horiz-adv-x="533" d="M515 590H304V0H229V590H18V660H515V590Z" />
<glyph unicode="U" glyph-name="U" horiz-adv-x="688" d="M167 256Q167 148 214 101T346 54Q430 54 478 101T526 256V660H596V222Q596 173 581 131T535 57T457 7T346 -11Q276 -11 228 7T149 56T106 130T92 222V660H167V256Z" />
<glyph unicode="V" glyph-name="V" horiz-adv-x="644" d="M-7 660H78L329 84L558 660H638L376 0H281L-7 660Z" />
<glyph unicode="W" glyph-name="W" horiz-adv-x="1081" d="M540 546L354 0H259L-1 660H84L306 95L499 660H584L789 97L990 660H1070L835 0H740L540 546Z" />
<glyph unicode="X" glyph-name="X" horiz-adv-x="646" d="M320 285L101 0H15L277 341L30 660H119L325 393L531 660H617L368 337L630 0H541L320 285Z" />
<glyph unicode="Y" glyph-name="Y" horiz-adv-x="566" d="M-11 660H78L287 343L489 660H576L321 271V0H246V267L-11 660Z" />
<glyph unicode="Z" glyph-name="Z" horiz-adv-x="554" d="M511 0H43V70L411 590H58V660H496V590L128 70H511V0Z" />
<glyph unicode="[" glyph-name="bracketleft" horiz-adv-x="286" d="M250 -95H90V749H250V707H155V-53H250V-95Z" />
<glyph unicode="\" glyph-name="backslash" horiz-adv-x="422" d="M35 702H108L386 -57H313L35 702Z" />
<glyph unicode="]" glyph-name="bracketright" horiz-adv-x="286" d="M36 749H196V-95H36V-53H131V707H36V749Z" />
<glyph unicode="^" glyph-name="asciicircum" horiz-adv-x="348" d="M178 673L288 574L291 567L285 548L278 545L174 606L70 545L63 548L57 567L60 574L170 673H178Z" />
<glyph unicode="_" glyph-name="underscore" horiz-adv-x="489" d="M461 0V-52H28V0H461Z" />
<glyph unicode="`" glyph-name="grave" horiz-adv-x="219" d="M205 549L4 626Q0 635 0 645Q0 659 9 669T35 680L216 579L219 572L213 552L205 549Z" />
<glyph unicode="a" glyph-name="a" horiz-adv-x="498" d="M370 0L362 82H358Q346 63 326 46T282 16T229 -4T172 -12Q106 -12 73 26T40 123Q40 180 69 214T140 265T228 287T310 292H355V304Q355 342 345 362T314 396Q297 407 278 411T226 416Q184 416 152 405T90
376L74 436Q141 475 234 475Q271 475 304 469T362 446Q391 428 408 395T425 313V0H370ZM193 47Q234 47 280 73T355 148V241H346Q305 241 264 238T190 223T135 189T114 127Q114 88 135 68T193 47Z" />
<glyph unicode="b" glyph-name="b" horiz-adv-x="575" d="M325 -12Q261 -12 215 16T145 82H141L133 0H78V740H148V374Q161 417 205 446T314 475Q367 475 407 455T473 402T513 323T527 229Q527 181 515 138T477 61T414 8T325 -12ZM317 47Q355 47 381 63T423 104T446
162T453 226Q453 268 443 303T413 363T366 402T304 416Q251 416 209 384T148 295V148Q177 100 223 74T317 47Z" />
<glyph unicode="c" glyph-name="c" horiz-adv-x="500" d="M437 376Q414 393 371 406T285 420Q241 420 211 405T160 365T131 308T122 240Q122 201 133 165T165 102T218 59T292 43Q332 43 374 60T445 103L459 38Q431 20 383 4T279 -12Q221 -12 178 8T106 61T63 139T48
234Q48 282 61 325T104 402T178 455T286 475Q334 475 380 464T454 435L437 376Z" />
<glyph unicode="d" glyph-name="d" horiz-adv-x="575" d="M250 -12Q199 -12 161 8T98 61T61 137T48 229Q48 278 61 323T101 401T168 455T261 475Q328 475 371 446T427 374V740H497V0H442L434 82H430Q406 45 360 17T250 -12ZM258 47Q306 47 352 73T427 148V295Q409
352 367 384T271 416Q236 416 209 402T162 363T133 303T122 226Q122 194 129 162T152 105T194 63T258 47Z" />
<glyph unicode="e" glyph-name="e" horiz-adv-x="517" d="M284 475Q372 475 420 431T468 305Q468 288 466 271T459 245H122V235Q122 197 132 162T162 100T212 57T285 41Q309 41 332 46T376 60T415 79T447 99L459 42Q446 34 427 25T385 7T335 -6T277 -12Q221 -12
178 7T106 60T62 138T47 230Q47 279 62 323T108 402T182 455T284 475ZM281 419Q215 419 179 385T129 298H402Q403 303 403 307T403 316Q403 341 393 360T366 393T327 412T281 419Z" />
<glyph unicode="f" glyph-name="f" horiz-adv-x="298" d="M102 413H25V450L102 459Q102 515 105 555T115 622T128 667T143 696Q162 724 190 734T248 745Q252 745 262 745T284 743T310 738T335 728L318 669Q315 669 304 672T280 680T251 689T223 693Q208 693 198
685T183 657T175 605T172 526V460H280V413H172V0H102V413Z" />
<glyph unicode="g" glyph-name="g" horiz-adv-x="508" d="M141 142Q93 161 72 202T51 292Q51 331 64 364T101 422T160 461T239 475Q265 475 290 470T335 455Q377 456 413 460T482 473L487 469L480 414L475 409L384 413L383 410Q409 389 421 355T433 289Q433 256
421 226T384 174T325 138T243 124Q232 124 224 124T209 125Q188 118 178 106T167 86Q167 76 180 69T224 58L321 48Q354 45 382 35T432 8T465 -32T478 -86Q478 -115 465 -145T426 -198Q400 -220 354 -234T248 -248Q197 -248 157 -238T89 -209T47 -166T32 -115Q32
-95 40 -76T61 -39T91 -9T128 11V15Q87 34 87 67Q87 88 102 105T141 138V142ZM243 174Q271 174 292 183T329 208T352 245T360 289Q360 312 352 336T329 379T290 411T237 423Q208 423 187 412T151 382T129 342T122 298Q122 275 129 253T152 214T190 185T243 174ZM211
-5Q188 -5 169 -14T135 -37T112 -68T103 -103Q103 -141 143 -163T253 -186Q286 -186 314 -181T363 -164T396 -136T408 -96Q408 -51 360 -32T211 -5Z" />
<glyph unicode="h" glyph-name="h" horiz-adv-x="545" d="M401 0V304Q401 365 374 390T305 416Q280 416 256 408T210 385T173 347T148 295V0H78V740H148V374Q161 416 204 445T315 475Q347 475 375 467T425 439T458 389T471 313V0H401Z" />
<glyph unicode="i" glyph-name="i" horiz-adv-x="226" d="M148 0H78V460H148V0ZM63 628Q63 648 77 664T113 680Q133 680 149 664T165 628Q165 607 149 593T113 578Q92 578 78 592T63 628Z" />
<glyph unicode="j" glyph-name="j" horiz-adv-x="226" d="M148 -3Q148 -54 139 -100T110 -182T62 -237T-5 -258Q-21 -258 -27 -255L-43 -197Q-37 -200 -21 -200Q13 -200 33 -181T63 -132T75 -68T78 -2V460H148V-3ZM63 628Q63 648 77 664T113 680Q133 680 149 664T165
628Q165 607 149 593T113 578Q92 578 78 592T63 628Z" />
<glyph unicode="k" glyph-name="k" horiz-adv-x="474" d="M266 298L462 0H382L217 250L148 181V0H78V740H148V266L350 460H430L266 298Z" />
<glyph unicode="l" glyph-name="l" horiz-adv-x="238" d="M154 0H84V740H154V0Z" />
<glyph unicode="m" glyph-name="m" horiz-adv-x="859" d="M397 0V304Q397 365 369 390T299 416Q248 416 207 385T148 295V0H78V460H133L141 374H145Q158 416 199 445T307 475Q367 475 407 449T459 374Q469 394 484 412T520 444T568 466T629 475Q660 475 688 467T738
439T773 389T786 313V0H716V304Q716 365 688 390T618 416Q567 416 526 385T467 295V0H397Z" />
<glyph unicode="n" glyph-name="n" horiz-adv-x="545" d="M401 0V304Q401 364 374 390T305 416Q280 416 256 408T210 385T173 347T148 295V0H78V460H133L141 374H145Q158 416 203 445T315 475Q347 475 375 467T425 439T458 389T471 313V0H401Z" />
<glyph unicode="o" glyph-name="o" horiz-adv-x="561" d="M280 475Q341 475 385 455T457 400T499 321T513 227Q513 178 500 135T458 59T387 7T284 -12Q223 -12 179 8T105 61T62 139T48 232Q48 281 62 325T104 402T177 455T280 475ZM283 41Q323 41 352 56T401 96T430
155T439 226Q439 264 430 299T400 360T350 403T277 419Q236 419 207 404T159 364T131 306T122 235Q122 197 131 162T160 100T210 57T283 41Z" />
<glyph unicode="p" glyph-name="p" horiz-adv-x="575" d="M325 475Q376 475 414 455T477 402T514 326T527 234Q527 184 514 140T474 62T407 8T314 -12Q247 -12 204 17T148 89V-260H78V460H133L141 374H145Q157 392 174 410T215 443T265 466T325 475ZM307 416Q259
416 218 390T148 315V168Q157 139 174 117T213 79T261 55T313 47Q348 47 374 61T417 100T444 158T453 229Q453 265 445 299T418 359T373 400T307 416Z" />
<glyph unicode="q" glyph-name="q" horiz-adv-x="575" d="M247 475Q280 475 308 466T359 443T400 411T430 374H434L442 460H497V-260H427V89Q414 46 371 17T261 -12Q208 -12 168 8T102 61T62 139T48 233Q48 281 60 325T98 402T160 455T247 475ZM268 416Q230 416
203 401T157 359T131 299T122 229Q122 191 131 158T157 100T201 61T262 47Q288 47 313 55T361 79T401 117T427 168V315Q399 364 358 390T268 416Z" />
<glyph unicode="r" glyph-name="r" horiz-adv-x="357" d="M326 386Q310 395 294 400T263 406Q243 406 225 395T192 365T166 321T148 269V0H78V460H133L141 359H145Q152 382 163 403T191 440T229 465T277 475Q296 475 317 469T347 452L326 386Z" />
<glyph unicode="s" glyph-name="s" horiz-adv-x="441" d="M213 419Q165 419 144 402T122 354Q122 344 125 333T136 313T159 295T198 281L269 265Q311 256 336 241T376 207T394 171T399 136Q399 105 387 78T351 31T293 0T217 -12Q164 -12 119 3T47 38L65 103Q101
70 145 55T224 40Q274 40 300 64T326 116Q326 125 325 136T317 160T296 182T256 199L160 223Q127 231 106 244T73 272T56 305T51 341Q51 402 96 438T218 475Q257 475 302 465T378 434L359 374Q339 391 300 405T213 419Z" />
<glyph unicode="t" glyph-name="t" horiz-adv-x="313" d="M99 413H22V450L101 460L116 599H169V460H277V413H169V94Q169 62 178 52T208 42Q231 42 249 49T281 66L295 13Q278 5 251 -3T190 -11Q158 -11 140 -2T113 22T102 55T99 92V413Z" />
<glyph unicode="u" glyph-name="u" horiz-adv-x="544" d="M143 460V156Q143 125 150 104T170 71T200 53T239 47Q264 47 288 54T334 77T371 114T396 165V460H466V0H411L403 86H399Q386 44 341 16T229 -12Q197 -12 169 -4T119 22T86 71T73 147V460H143Z" />
<glyph unicode="v" glyph-name="v" horiz-adv-x="521" d="M305 0H216L7 460H83L262 66L441 460H514L305 0Z" />
<glyph unicode="w" glyph-name="w" horiz-adv-x="822" d="M632 0H537L412 360L280 0H185L16 460H90L234 68L378 460H452L587 68L740 460H811L632 0Z" />
<glyph unicode="x" glyph-name="x" horiz-adv-x="517" d="M259 285L404 460H489L300 237L499 0H414L257 187L103 0H18L216 235L28 460H113L259 285Z" />
<glyph unicode="y" glyph-name="y" horiz-adv-x="519" d="M296 -4Q281 -36 260 -79T210 -162T142 -228T54 -256Q46 -256 42 -256T33 -253L20 -187Q23 -188 27 -189T41 -190Q61 -190 78 -186T113 -170Q148 -145 176 -97T228 15L-2 460H81L264 77L428 460H507L296 -4Z" />
<glyph unicode="z" glyph-name="z" horiz-adv-x="417" d="M42 60L285 401H52V460H366V402L121 59H376V0H42V60Z" />
<glyph unicode="{" glyph-name="braceleft" horiz-adv-x="285" d="M242 739Q220 737 207 728T188 706T179 674T177 637Q177 628 177 609T178 569T178 528T179 494Q179 463 175 436T160 386T131 349T85 327Q113 321 131 306T159 268T174 219T179 160Q179 147 179
127T178 85T178 45T177 17Q177 -3 179 -20T187 -51T207 -74T242 -85L240 -106Q197 -106 171 -96T130 -67T111 -22T106 36Q106 47 106 66T107 106T107 149T108 184Q108 202 107 224T99 265T78 297T36 312V342Q63 343 77 357T99 391T107 433T108 473Q108 488 108
508T107 550T107 589T106 618Q106 649 111 675T130 720T170 749T240 760L242 739Z" />
<glyph unicode="|" glyph-name="bar" horiz-adv-x="240" d="M151 -114H89V768H151V-114Z" />
<glyph unicode="}" glyph-name="braceright" horiz-adv-x="285" d="M45 760Q88 760 114 750T155 721T174 676T179 618Q179 607 179 589T178 550T178 509T177 473Q177 455 178 433T186 391T207 357T249 342V312Q222 311 208 298T187 265T179 224T177 184Q177 170
177 149T178 107T178 66T179 36Q179 4 174 -22T155 -66T115 -95T45 -106L43 -85Q65 -83 78 -74T97 -52T106 -21T108 17Q108 26 108 45T107 85T107 126T106 160Q106 191 110 218T125 268T154 305T200 327Q172 333 154 348T126 386T111 435T106 494Q106 507 106 527T107
569T107 609T108 637Q108 656 106 674T98 705T78 728T43 739L45 760Z" />
<glyph unicode="~" glyph-name="asciitilde" horiz-adv-x="496" d="M422 288Q422 285 417 273T402 247T375 222T334 211Q323 211 298 212T244 215T187 218T143 220Q118 220 108 214T88 195L75 202Q75 209 81 222T99 248T128 270T166 279Q179 279 200 278T246 275T297
272T345 270Q362 270 379 274T410 296L422 288Z" />
<glyph unicode="&#xa0;" glyph-name="uni00A0" horiz-adv-x="245" />
<glyph unicode="&#xa1;" glyph-name="exclamdown" horiz-adv-x="240" d="M74 429Q74 448 87 461T121 475Q139 475 153 462T168 429Q168 410 154 396T121 381Q101 381 88 395T74 429ZM143 314L169 -218H72L96 314H143Z" />
<glyph unicode="&#xa2;" glyph-name="cent" horiz-adv-x="506" d="M317 443Q357 440 393 430T453 405L436 346Q417 360 385 371T317 387V44Q352 49 386 64T444 103L458 38Q435 23 398 9T317 -10V-137H257V-11Q204 -7 165 12T99 63T60 135T47 219Q47 261 59 300T96
369T162 419T257 444V577H317V443ZM121 225Q121 192 129 162T155 108T198 68T257 46V388Q221 383 195 369T153 332T129 283T121 225Z" />
<glyph unicode="&#xa3;" glyph-name="sterling" horiz-adv-x="567" d="M181 51Q212 49 243 43T307 29T371 15T436 9Q461 9 481 13T525 28L506 -45Q481 -58 464 -61T425 -65Q389 -65 354 -55T285 -32T215 -10T140 1Q130 1 103 -3T48 -31L34 16Q73 33 100 58T143
113T167 179T175 250V265H77V317H171Q166 363 159 407T152 486Q152 535 169 569T213 624T275 655T342 665Q388 665 430 651T498 616L480 550Q460 570 422 584T344 599Q314 599 295 591T264 567T247 532T242 488Q242 454 248 411T258 317H397V265H260Q258 214 239
158T179 54L181 51Z" />
<glyph unicode="&#xa4;" glyph-name="currency" horiz-adv-x="581" d="M136 107Q92 161 92 230Q92 262 102 291T137 351L55 431L85 461L165 382Q197 405 226 415T289 426Q324 426 353 416T412 382L493 460L523 431L444 351Q467 320 477 291T488 228Q488 195 478
166T445 107L525 27L494 -3L413 76Q384 54 354 43T291 31Q259 31 230 42T167 76L87 -3L58 27L136 107ZM290 378Q260 378 233 367T186 335T154 288T142 229Q142 198 153 171T185 124T233 92T291 80Q322 80 348 91T395 123T426 171T438 229Q438 260 427 287T395 334T348
366T290 378Z" />
<glyph unicode="&#xa5;" glyph-name="yen" horiz-adv-x="649" d="M288 255V267L261 308H116V360H227L31 660H120L329 343L531 660H618L421 360H535V308H387L363 271V255H535V203H363V0H288V203H116V255H288Z" />
<glyph unicode="&#xa6;" glyph-name="brokenbar" horiz-adv-x="244" d="M153 274V-114H91V274H153ZM91 380V768H153V380H91Z" />
<glyph unicode="&#xa7;" glyph-name="section" horiz-adv-x="440" d="M276 72Q276 101 259 124T217 168T161 210T106 254T63 306T46 372Q46 410 63 444T110 501Q98 528 98 563Q98 600 111 627T146 673T194 700T245 709Q274 709 306 698T360 671L335 604Q317 624
292 635T241 646Q211 646 188 628T164 574Q164 545 181 522T223 478T279 436T334 392T377 340T394 274Q394 236 377 201T330 145Q335 131 338 116T342 83Q342 46 329 19T294 -27T246 -54T195 -63Q166 -63 134 -52T80 -25L105 42Q123 22 148 11T199 0Q229 0 252
18T276 72ZM332 250Q332 282 310 307T257 355T192 403T134 460Q120 447 114 430T108 396Q108 363 129 338T182 290T247 242T306 185Q320 198 326 215T332 250Z" />
<glyph unicode="&#xa8;" glyph-name="dieresis" horiz-adv-x="220" d="M0 631Q0 649 12 662T41 676Q58 676 70 663T83 631Q83 612 71 600T41 587Q24 587 12 599T0 631ZM137 631Q137 649 149 662T178 676Q195 676 207 663T220 631Q220 612 208 600T178 587Q161
587 149 599T137 631Z" />
<glyph unicode="&#xa9;" glyph-name="copyright" horiz-adv-x="725" d="M362 654Q425 654 480 631T577 566T642 471T666 354Q666 291 642 236T577 140T479 76T357 52Q296 52 242 76T147 141T83 237T59 354Q59 416 82 470T147 566T244 630T362 654ZM362 613Q308
613 261 593T180 538T126 455T106 354Q106 299 125 252T179 169T259 113T358 93Q414 93 461 113T544 168T599 250T619 354Q619 408 599 455T545 537T463 593T362 613ZM468 442Q452 454 422 463T362 472Q334 472 315 463T283 439T266 404T260 360Q260 309 286 273T366
237Q395 237 424 248T474 279L483 223Q463 210 429 199T357 188Q316 188 287 201T238 237T209 290T199 356Q199 390 208 420T236 472T287 508T362 521Q395 521 427 514T480 493L468 442Z" />
<glyph unicode="&#xaa;" glyph-name="ordfeminine" horiz-adv-x="373" d="M258 369L253 418H249Q235 395 205 378T139 361Q100 361 80 384T60 442Q60 476 77 497T120 528T173 542T222 546H249V553Q249 587 228 603T172 620Q146 620 127 614T90 596L80 632Q100
644 124 651T176 658Q199 658 221 653T260 635T287 604T298 558V369H258ZM152 402Q176 402 204 418T249 464V512H244Q220 512 196 510T152 502T120 482T108 445Q108 422 119 412T152 402Z" />
<glyph unicode="&#xab;" glyph-name="guillemotleft" horiz-adv-x="484" d="M121 238L265 61H185L52 238V243L186 420H265L121 243V238ZM283 238L427 61H347L214 238V243L348 420H427L283 243V238Z" />
<glyph unicode="&#xac;" glyph-name="logicalnot" horiz-adv-x="632" d="M556 341V117H503V289H76V341H556Z" />
<glyph unicode="&#xad;" glyph-name="uni00AD" horiz-adv-x="487" d="M412 265L410 213H74L76 265H412Z" />
<glyph unicode="&#xae;" glyph-name="registered" horiz-adv-x="725" d="M362 654Q425 654 480 631T577 566T642 471T666 354Q666 291 642 236T577 140T479 76T357 52Q296 52 242 76T147 141T83 237T59 354Q59 416 82 470T147 566T244 630T362 654ZM362 613Q308
613 261 593T180 538T126 455T106 354Q106 299 125 252T179 169T259 113T358 93Q414 93 461 113T544 168T599 250T619 354Q619 408 599 455T545 537T463 593T362 613ZM262 530Q279 531 304 531T347 532Q374 532 397 528T436 513T462 484T471 439Q471 408 450 384T392
349L493 201H438L339 346H310V201H262V530ZM349 494Q338 494 329 494T310 493V382Q319 381 329 381T350 381Q383 381 402 397T421 443Q421 466 405 480T349 494Z" />
<glyph unicode="&#xb0;" glyph-name="degree" horiz-adv-x="358" d="M178 658Q239 658 270 623T301 540Q301 518 294 498T271 463T233 438T178 429Q146 429 123 438T86 464T64 500T57 543Q57 567 65 587T88 624T126 649T178 658ZM178 467Q216 467 233 487T251
540Q251 572 233 594T177 617Q138 617 121 596T104 544Q104 512 122 490T178 467Z" />
<glyph unicode="&#xb1;" glyph-name="plusminus" horiz-adv-x="483" d="M267 351H401V298H267V183H215V298H82V351H215V455H267V351ZM401 123V70H82V123H401Z" />
<glyph unicode="&#xb2;" glyph-name="twosuperior" horiz-adv-x="375" d="M80 616Q103 637 131 651T188 665Q241 665 269 638T297 568Q297 535 282 507T242 451T187 398T126 341H301V299H65V341Q89 371 120 398T178 453T225 509T245 567Q245 576 243 586T234 604T216
619T187 625Q161 625 135 610T91 572L80 616Z" />
<glyph unicode="&#xb3;" glyph-name="threesuperior" horiz-adv-x="357" d="M80 635Q100 648 121 656T167 665Q221 665 250 641T279 571Q279 549 262 531T222 501Q257 490 277 469T298 411Q298 388 290 367T265 330T221 304T157 294Q122 294 101 304T56 332L68
372Q89 355 107 345T155 334Q204 334 226 356T248 416Q248 446 229 463T154 481H142V515H157Q194 515 211 531T229 576Q229 598 218 611T171 625Q144 625 125 617T91 596L80 635Z" />
<glyph unicode="&#xb4;" glyph-name="acute" horiz-adv-x="219" d="M6 552L0 572L3 579L183 680Q200 679 209 669T219 645Q219 635 215 626L13 549L6 552Z" />
<glyph unicode="&#xb5;" glyph-name="mu" horiz-adv-x="577" d="M186 460V156Q186 125 193 104T213 71T243 53T282 47Q307 47 331 54T377 77T414 114T439 165V460H509V0H454L446 86H442Q429 44 384 16T272 -12Q240 -12 211 -4T161 23L158 10Q141 -64 104 -140L40
-111Q58 -77 72 -47T95 15T110 78T116 147V460H186Z" />
<glyph unicode="&#xb6;" glyph-name="paragraph" horiz-adv-x="533" d="M285 248H264Q205 248 162 264T91 309T49 374T35 453Q35 505 52 544T100 611T176 651T275 665Q310 665 350 664T434 660V-86H389V599H335V-86H285V248Z" />
<glyph unicode="&#xb7;" glyph-name="middot" horiz-adv-x="242" d="M74 243Q74 262 87 276T121 291Q139 291 153 277T168 243Q168 224 154 211T121 197Q101 197 88 210T74 243Z" />
<glyph unicode="&#xb8;" glyph-name="cedilla" horiz-adv-x="202" d="M0 -178L13 -155H20Q32 -160 51 -163T89 -167Q111 -167 127 -159T143 -127Q143 -100 128 -91T91 -81Q79 -81 67 -83T43 -88L34 -77L85 0H119L89 -51Q106 -47 123 -47Q158 -47 180 -67T202 -119Q202
-136 194 -151T171 -177T136 -196T92 -203Q68 -203 45 -198T1 -184L0 -178Z" />
<glyph unicode="&#xb9;" glyph-name="onesuperior" horiz-adv-x="248" d="M167 299H113V585L56 557L43 599L167 665V299Z" />
<glyph unicode="&#xba;" glyph-name="ordmasculine" horiz-adv-x="390" d="M194 658Q228 658 254 646T298 614T325 566T334 510Q334 483 326 458T300 413T256 381T195 369Q159 369 133 381T90 413T65 460T56 513Q56 543 65 569T93 615T136 646T194 658ZM195 410Q242
410 262 438T282 510Q282 553 261 583T192 614Q145 614 126 586T107 514Q107 470 128 440T195 410Z" />
<glyph unicode="&#xbb;" glyph-name="guillemotright" horiz-adv-x="484" d="M363 243L219 420H298L432 243V238L299 61H219L363 238V243ZM201 243L57 420H136L270 243V238L137 61H57L201 238V243Z" />
<glyph unicode="&#xbc;" glyph-name="onequarter" horiz-adv-x="711" d="M668 110H632V-1H587V110H437V152L584 365H632V152H668V110ZM587 152V306L488 152H587ZM144 -24H79L542 691H607L144 -24ZM159 299H105V585L48 557L35 599L159 665V299Z" />
<glyph unicode="&#xbd;" glyph-name="onehalf" horiz-adv-x="715" d="M161 299H107V585L50 557L37 599L161 665V299ZM126 -24H61L524 691H589L126 -24ZM449 315Q472 336 500 350T557 364Q610 364 638 337T666 267Q666 234 651 206T611 150T556 97T495 40H670V-2H434V40Q458
70 489 97T547 152T594 208T614 266Q614 275 612 285T603 303T585 318T556 324Q530 324 504 309T460 271L449 315Z" />
<glyph unicode="&#xbe;" glyph-name="threequarters" horiz-adv-x="750" d="M61 634Q81 647 102 655T148 664Q202 664 231 640T260 570Q260 548 243 530T203 500Q238 489 258 468T279 410Q279 387 271 366T246 329T202 303T138 293Q103 293 82 303T37 331L49 371Q70
354 88 344T136 333Q185 333 207 355T229 415Q229 445 210 462T135 480H123V514H138Q175 514 192 530T210 575Q210 597 199 610T152 624Q125 624 106 616T72 595L61 634ZM707 110H671V-1H626V110H476V152L623 365H671V152H707V110ZM626 152V306L527 152H626ZM197
-24H132L595 691H660L197 -24Z" />
<glyph unicode="&#xbf;" glyph-name="questiondown" horiz-adv-x="402" d="M268 428Q268 408 255 395T222 381Q203 381 189 394T174 428Q174 447 188 461T222 475Q241 475 254 461T268 428ZM365 -173Q338 -194 298 -208T220 -222Q180 -222 148 -210T93 -177T58
-126T46 -60Q46 -30 56 -4T83 49T118 103T153 161T181 230T192 313H256Q256 263 246 224T221 154T187 96T154 46T128 -5T118 -61Q118 -101 143 -129T221 -157Q237 -157 255 -153T290 -143T321 -127T347 -107L365 -173Z" />
<glyph unicode="&#xc0;" glyph-name="Agrave" horiz-adv-x="642" d="M650 0H565L468 222H173L85 0H5L269 660H360L650 0ZM201 292H437L313 576L201 292ZM419 718L218 795Q214 804 214 814Q214 828 223 837T249 848L430 748L432 741L427 721L419 718Z" />
<glyph unicode="&#xc1;" glyph-name="Aacute" horiz-adv-x="642" d="M650 0H565L468 222H173L85 0H5L269 660H360L650 0ZM201 292H437L313 576L201 292ZM220 721L214 741L217 748L397 848Q414 847 423 838T432 814Q432 809 432 805T429 795L227 718L220 721Z" />
<glyph unicode="&#xc2;" glyph-name="Acircumflex" horiz-adv-x="642" d="M650 0H565L468 222H173L85 0H5L269 660H360L650 0ZM201 292H437L313 576L201 292ZM330 842L440 743L443 736L437 716L430 713L326 775L222 713L215 716L209 736L212 743L322 842H330Z" />
<glyph unicode="&#xc3;" glyph-name="Atilde" horiz-adv-x="642" d="M650 0H565L468 222H173L85 0H5L269 660H360L650 0ZM201 292H437L313 576L201 292ZM479 832Q476 818 470 805T453 780T427 762T391 755Q351 755 310 762T236 769Q211 769 201 763T181 744L168
752Q172 765 179 779T196 803T222 821T259 828Q284 828 302 826T337 821T368 816T402 814Q419 814 436 818T467 840L479 832Z" />
<glyph unicode="&#xc4;" glyph-name="Adieresis" horiz-adv-x="642" d="M650 0H565L468 222H173L85 0H5L269 660H360L650 0ZM201 292H437L313 576L201 292ZM204 794Q204 812 216 825T245 839Q262 839 274 826T287 794Q287 775 275 763T245 750Q228 750 216 762T204
794ZM361 794Q361 812 373 825T402 839Q418 839 430 826T443 794Q443 775 431 763T402 750Q385 750 373 762T361 794Z" />
<glyph unicode="&#xc5;" glyph-name="Aring" horiz-adv-x="642" d="M314 782Q353 782 376 758T400 703Q400 684 391 669T366 645L650 0H565L468 222H173L85 0H5L263 645Q246 654 237 670T227 705Q227 736 251 759T314 782ZM201 292H437L313 576L201 292ZM315 654Q335
654 347 669T360 703Q360 723 347 737T313 752Q291 752 279 739T266 706Q266 686 280 670T315 654Z" />
<glyph unicode="&#xc6;" glyph-name="AE" horiz-adv-x="759" d="M719 0H387V222H192L75 0H-7L345 660H699V590H462V385H632V315H462V70H719V0ZM387 292V588L229 292H387Z" />
<glyph unicode="&#xc7;" glyph-name="Ccedilla" horiz-adv-x="642" d="M274 -178L287 -155H294Q306 -160 324 -163T363 -167Q385 -167 400 -159T416 -127Q416 -100 401 -91T365 -81Q353 -81 340 -83T316 -88L308 -77L351 -11Q276 -7 221 21T129 95T75 199T57 323Q57
394 78 456T140 564T243 638T387 665Q441 665 495 654T588 622L567 550Q535 571 488 585T381 599Q314 599 268 580T194 525T153 441T140 331Q140 194 200 124T379 54Q442 54 495 72T580 116L600 49Q562 26 508 8T387 -12L363 -51Q372 -49 380 -48T396 -47Q431 -47
453 -67T475 -119Q475 -136 467 -151T445 -177T410 -196T366 -203Q342 -203 318 -198T275 -184L274 -178Z" />
<glyph unicode="&#xc8;" glyph-name="Egrave" horiz-adv-x="522" d="M481 0H99V660H461V590H174V385H394V315H174V70H481V0ZM373 718L172 795Q168 804 168 814Q168 828 177 837T203 848L384 748L387 741L381 721L373 718Z" />
<glyph unicode="&#xc9;" glyph-name="Eacute" horiz-adv-x="522" d="M481 0H99V660H461V590H174V385H394V315H174V70H481V0ZM184 721L178 741L181 748L362 848Q379 847 388 838T397 814Q397 804 393 795L191 718L184 721Z" />
<glyph unicode="&#xca;" glyph-name="Ecircumflex" horiz-adv-x="522" d="M481 0H99V660H461V590H174V385H394V315H174V70H481V0ZM291 842L401 743L404 736L398 716L391 713L287 775L183 713L176 716L170 736L173 743L283 842H291Z" />
<glyph unicode="&#xcb;" glyph-name="Edieresis" horiz-adv-x="522" d="M481 0H99V660H461V590H174V385H394V315H174V70H481V0ZM315 794Q315 812 327 825T356 839Q373 839 385 826T398 794Q398 775 386 763T356 750Q339 750 327 762T315 794ZM158 794Q158 812
170 825T199 839Q216 839 228 826T241 794Q241 775 229 763T199 750Q182 750 170 762T158 794Z" />
<glyph unicode="&#xcc;" glyph-name="Igrave" horiz-adv-x="273" d="M221 718L19 795Q15 804 15 814Q15 828 24 837T50 848L231 748L234 741L228 721L221 718ZM174 0H99V660H174V0Z" />
<glyph unicode="&#xcd;" glyph-name="Iacute" horiz-adv-x="273" d="M41 721L35 741L38 748L219 848Q236 847 245 838T254 814Q254 804 250 795L49 718L41 721ZM174 0H99V660H174V0Z" />
<glyph unicode="&#xce;" glyph-name="Icircumflex" horiz-adv-x="273" d="M138 842L249 743L252 736L246 716L238 713L135 775L31 713L23 716L18 736L21 743L131 842H138ZM174 0H99V660H174V0Z" />
<glyph unicode="&#xcf;" glyph-name="Idieresis" horiz-adv-x="273" d="M19 794Q19 812 31 825T60 839Q77 839 89 826T102 794Q102 775 90 763T60 750Q43 750 31 762T19 794ZM176 794Q176 812 188 825T217 839Q234 839 246 826T259 794Q259 775 247 763T217 750Q200
750 188 762T176 794ZM174 0H99V660H174V0Z" />
<glyph unicode="&#xd0;" glyph-name="Eth" horiz-adv-x="706" d="M14 326V370H101V660H106Q154 662 210 663T319 665Q390 665 448 645T548 590Q601 542 625 473T649 323Q649 255 630 195T572 88T472 15T330 -12Q259 -12 203 -9T101 0V326H14ZM351 370V326H176V60Q239
54 327 54Q446 54 506 124T566 331Q566 391 554 440T513 525T438 579T325 599Q285 599 247 599T176 596V370H351Z" />
<glyph unicode="&#xd1;" glyph-name="Ntilde" horiz-adv-x="704" d="M530 117V660H605V0H520L174 542V0H99V660H184L530 117ZM494 832Q491 818 485 805T468 780T442 762T406 755Q366 755 325 762T251 769Q226 769 216 763T196 744L183 752Q187 765 194 779T211
803T237 821T274 828Q299 828 317 826T352 821T383 816T417 814Q434 814 451 818T482 840L494 832Z" />
<glyph unicode="&#xd2;" glyph-name="Ograve" horiz-adv-x="756" d="M445 718L244 795Q240 804 240 814Q240 828 249 837T275 848L455 748L458 741L453 721L445 718ZM378 665Q456 665 516 638T617 565T679 457T700 329Q700 263 680 202T618 93T515 17T371 -12Q291
-12 232 15T134 88T76 194T56 322Q56 393 77 455T140 564T241 638T378 665ZM373 54Q438 54 484 75T560 133T604 219T618 326Q618 387 604 437T560 523T484 579T375 599Q311 599 266 580T193 525T152 440T139 332Q139 194 199 124T373 54Z" />
<glyph unicode="&#xd3;" glyph-name="Oacute" horiz-adv-x="756" d="M312 721L307 741L310 748L490 848Q507 847 516 838T525 814Q525 805 522 795L320 718L312 721ZM378 665Q456 665 516 638T617 565T679 457T700 329Q700 263 680 202T618 93T515 17T371 -12Q291
-12 232 15T134 88T76 194T56 322Q56 393 77 455T140 564T241 638T378 665ZM373 54Q438 54 484 75T560 133T604 219T618 326Q618 387 604 437T560 523T484 579T375 599Q311 599 266 580T193 525T152 440T139 332Q139 194 199 124T373 54Z" />
<glyph unicode="&#xd4;" glyph-name="Ocircumflex" horiz-adv-x="756" d="M392 842L502 743L505 736L499 716L492 713L388 775L284 713L277 716L271 736L274 743L384 842H392ZM378 665Q456 665 516 638T617 565T679 457T700 329Q700 263 680 202T618 93T515 17T371
-12Q291 -12 232 15T134 88T76 194T56 322Q56 393 77 455T140 564T241 638T378 665ZM373 54Q438 54 484 75T560 133T604 219T618 326Q618 387 604 437T560 523T484 579T375 599Q311 599 266 580T193 525T152 440T139 332Q139 194 199 124T373 54Z" />
<glyph unicode="&#xd5;" glyph-name="Otilde" horiz-adv-x="756" d="M535 832Q532 818 526 805T509 780T483 762T447 755Q407 755 366 762T292 769Q267 769 257 763T237 744L224 752Q228 765 235 779T252 803T278 821T315 828Q340 828 358 826T393 821T424 816T458
814Q475 814 492 818T523 840L535 832ZM378 665Q456 665 516 638T617 565T679 457T700 329Q700 263 680 202T618 93T515 17T371 -12Q291 -12 232 15T134 88T76 194T56 322Q56 393 77 455T140 564T241 638T378 665ZM373 54Q438 54 484 75T560 133T604 219T618 326Q618
387 604 437T560 523T484 579T375 599Q311 599 266 580T193 525T152 440T139 332Q139 194 199 124T373 54Z" />
<glyph unicode="&#xd6;" glyph-name="Odieresis" horiz-adv-x="756" d="M259 794Q259 812 271 825T300 839Q317 839 329 826T342 794Q342 775 330 763T300 750Q283 750 271 762T259 794ZM416 794Q416 812 428 825T457 839Q474 839 486 826T499 794Q499 775 487
763T457 750Q440 750 428 762T416 794ZM378 665Q456 665 516 638T617 565T679 457T700 329Q700 263 680 202T618 93T515 17T371 -12Q291 -12 232 15T134 88T76 194T56 322Q56 393 77 455T140 564T241 638T378 665ZM373 54Q438 54 484 75T560 133T604 219T618 326Q618
387 604 437T560 523T484 579T375 599Q311 599 266 580T193 525T152 440T139 332Q139 194 199 124T373 54Z" />
<glyph unicode="&#xd7;" glyph-name="multiply" horiz-adv-x="458" d="M228 202L108 81L71 118L191 239L71 359L108 396L228 276L350 397L387 360L265 239L387 117L350 80L228 202Z" />
<glyph unicode="&#xd8;" glyph-name="Oslash" horiz-adv-x="756" d="M130 93Q93 139 75 197T57 322Q57 393 78 455T141 564T242 638T379 665Q435 665 481 651T565 611L630 687L681 648L614 568Q657 521 679 460T701 329Q701 263 681 202T619 93T516 17T372 -12Q311
-12 263 3T176 48L106 -35L58 8L130 93ZM374 54Q439 54 485 75T561 133T605 219T619 326Q619 442 568 514L222 102Q279 54 374 54ZM140 332Q140 220 180 153L522 559Q465 599 376 599Q312 599 267 580T194 525T153 440T140 332Z" />
<glyph unicode="&#xd9;" glyph-name="Ugrave" horiz-adv-x="688" d="M426 718L225 795Q221 804 221 814Q221 828 230 837T256 848L437 748L439 741L434 721L426 718ZM167 256Q167 148 214 101T346 54Q430 54 478 101T526 256V660H596V222Q596 173 581 131T535
57T457 7T346 -11Q276 -11 228 7T149 56T106 130T92 222V660H167V256Z" />
<glyph unicode="&#xda;" glyph-name="Uacute" horiz-adv-x="688" d="M255 721L249 741L252 748L433 848Q450 847 459 838T468 814Q468 804 464 795L263 718L255 721ZM167 256Q167 148 214 101T346 54Q430 54 478 101T526 256V660H596V222Q596 173 581 131T535
57T457 7T346 -11Q276 -11 228 7T149 56T106 130T92 222V660H167V256Z" />
<glyph unicode="&#xdb;" glyph-name="Ucircumflex" horiz-adv-x="688" d="M344 842L455 743L457 736L452 716L444 713L341 775L237 713L229 716L224 736L226 743L337 842H344ZM167 256Q167 148 214 101T346 54Q430 54 478 101T526 256V660H596V222Q596 173 581
131T535 57T457 7T346 -11Q276 -11 228 7T149 56T106 130T92 222V660H167V256Z" />
<glyph unicode="&#xdc;" glyph-name="Udieresis" horiz-adv-x="688" d="M236 794Q236 812 248 825T277 839Q294 839 306 826T319 794Q319 775 307 763T277 750Q260 750 248 762T236 794ZM393 794Q393 812 405 825T434 839Q451 839 463 826T476 794Q476 775 464
763T434 750Q417 750 405 762T393 794ZM167 256Q167 148 214 101T346 54Q430 54 478 101T526 256V660H596V222Q596 173 581 131T535 57T457 7T346 -11Q276 -11 228 7T149 56T106 130T92 222V660H167V256Z" />
<glyph unicode="&#xdd;" glyph-name="Yacute" horiz-adv-x="566" d="M220 721L215 741L218 748L398 848Q415 847 424 838T433 814Q433 805 430 795L228 718L220 721ZM-11 660H78L287 343L489 660H576L321 271V0H246V267L-11 660Z" />
<glyph unicode="&#xde;" glyph-name="Thorn" horiz-adv-x="519" d="M169 533Q189 534 209 534T242 535Q350 535 413 484T477 335Q477 294 465 259T425 196T353 154T247 138Q233 138 211 138T169 141V0H99V660H169V533ZM244 469Q231 469 210 469T169 467V208Q188
206 209 205T243 204Q321 204 357 237T394 341Q394 371 387 394T362 434T316 460T244 469Z" />
<glyph unicode="&#xdf;" glyph-name="germandbls" horiz-adv-x="544" d="M148 0H78V486Q78 542 89 588T124 667T182 718T263 736Q300 736 330 725T381 695T413 652T425 601Q425 567 409 539T374 485T339 436T323 390Q323 369 337 354T372 323T417 292T462 255T497
205T511 138Q511 97 496 69T458 22T409 -4T360 -12Q327 -12 299 1T253 32L273 103Q288 73 314 57T367 40Q396 40 416 61T437 127Q437 162 424 186T390 227T347 259T304 290T271 328T257 383Q257 418 271 445T303 496T335 544T350 596Q350 628 328 651T259 675Q223
675 201 659T167 617T152 557T148 486V0Z" />
<glyph unicode="&#xe0;" glyph-name="agrave" horiz-adv-x="498" d="M310 549L108 626Q105 636 105 645Q105 659 114 669T140 680L320 579L323 572L318 552L310 549ZM370 0L362 82H358Q346 63 326 46T282 16T229 -4T172 -12Q106 -12 73 26T40 123Q40 180 69 214T140
265T228 287T310 292H355V304Q355 342 345 362T314 396Q297 407 278 411T226 416Q184 416 152 405T90 376L74 436Q141 475 234 475Q271 475 304 469T362 446Q391 428 408 395T425 313V0H370ZM193 47Q234 47 280 73T355 148V241H346Q305 241 264 238T190 223T135
189T114 127Q114 88 135 68T193 47Z" />
<glyph unicode="&#xe1;" glyph-name="aacute" horiz-adv-x="498" d="M185 552L179 572L182 579L362 680Q379 679 388 669T398 645Q398 635 394 626L192 549L185 552ZM370 0L362 82H358Q346 63 326 46T282 16T229 -4T172 -12Q106 -12 73 26T40 123Q40 180 69 214T140
265T228 287T310 292H355V304Q355 342 345 362T314 396Q297 407 278 411T226 416Q184 416 152 405T90 376L74 436Q141 475 234 475Q271 475 304 469T362 446Q391 428 408 395T425 313V0H370ZM193 47Q234 47 280 73T355 148V241H346Q305 241 264 238T190 223T135
189T114 127Q114 88 135 68T193 47Z" />
<glyph unicode="&#xe2;" glyph-name="acircumflex" horiz-adv-x="498" d="M244 673L354 574L357 567L351 548L344 545L240 606L137 545L129 548L123 567L126 574L236 673H244ZM370 0L362 82H358Q346 63 326 46T282 16T229 -4T172 -12Q106 -12 73 26T40 123Q40
180 69 214T140 265T228 287T310 292H355V304Q355 342 345 362T314 396Q297 407 278 411T226 416Q184 416 152 405T90 376L74 436Q141 475 234 475Q271 475 304 469T362 446Q391 428 408 395T425 313V0H370ZM193 47Q234 47 280 73T355 148V241H346Q305 241 264
238T190 223T135 189T114 127Q114 88 135 68T193 47Z" />
<glyph unicode="&#xe3;" glyph-name="atilde" horiz-adv-x="498" d="M406 668Q406 665 401 653T386 627T359 602T318 591Q307 591 287 592T243 595T196 598T157 600Q132 600 122 594T102 575L89 583Q89 590 95 603T113 628T142 650T180 659Q206 659 245 655T329
650Q346 650 363 654T394 676L406 668ZM370 0L362 82H358Q346 63 326 46T282 16T229 -4T172 -12Q106 -12 73 26T40 123Q40 180 69 214T140 265T228 287T310 292H355V304Q355 342 345 362T314 396Q297 407 278 411T226 416Q184 416 152 405T90 376L74 436Q141 475
234 475Q271 475 304 469T362 446Q391 428 408 395T425 313V0H370ZM193 47Q234 47 280 73T355 148V241H346Q305 241 264 238T190 223T135 189T114 127Q114 88 135 68T193 47Z" />
<glyph unicode="&#xe4;" glyph-name="adieresis" horiz-adv-x="498" d="M130 626Q130 644 142 657T171 671Q187 671 199 658T212 626Q212 607 200 595T171 582Q154 582 142 594T130 626ZM287 626Q287 644 298 657T327 671Q344 671 356 658T369 626Q369 607 357
595T327 582Q310 582 299 594T287 626ZM370 0L362 82H358Q346 63 326 46T282 16T229 -4T172 -12Q106 -12 73 26T40 123Q40 180 69 214T140 265T228 287T310 292H355V304Q355 342 345 362T314 396Q297 407 278 411T226 416Q184 416 152 405T90 376L74 436Q141 475
234 475Q271 475 304 469T362 446Q391 428 408 395T425 313V0H370ZM193 47Q234 47 280 73T355 148V241H346Q305 241 264 238T190 223T135 189T114 127Q114 88 135 68T193 47Z" />
<glyph unicode="&#xe5;" glyph-name="aring" horiz-adv-x="498" d="M254 683Q293 683 315 660T337 608Q337 582 316 560T255 538Q234 538 219 544T193 561T177 584T172 610Q172 638 194 660T254 683ZM255 562Q275 562 287 576T299 608Q299 626 287 642T253 659Q232
659 221 644T209 611Q209 593 222 578T255 562ZM370 0L362 82H358Q346 63 326 46T282 16T229 -4T172 -12Q106 -12 73 26T40 123Q40 180 69 214T140 265T228 287T310 292H355V304Q355 342 345 362T314 396Q297 407 278 411T226 416Q184 416 152 405T90 376L74 436Q141
475 234 475Q271 475 304 469T362 446Q391 428 408 395T425 313V0H370ZM193 47Q234 47 280 73T355 148V241H346Q305 241 264 238T190 223T135 189T114 127Q114 88 135 68T193 47Z" />
<glyph unicode="&#xe6;" glyph-name="ae" horiz-adv-x="819" d="M407 396Q436 430 483 452T587 475Q675 475 723 431T771 305Q771 288 769 271T762 245H425V227Q426 190 436 156T466 97T517 56T588 41Q636 41 678 58T749 95L762 42Q749 34 730 25T688 7T638 -6T580
-12Q513 -12 465 15T388 88H384Q344 33 287 11T172 -12Q106 -12 73 26T40 123Q40 180 69 214T140 265T228 287T310 292H355V304Q355 342 345 362T314 396Q297 407 278 411T226 416Q184 416 152 405T90 376L74 436Q141 475 234 475Q271 475 304 469T362 446Q374
438 386 424T403 396H407ZM193 47Q234 47 280 73T355 148V241H346Q305 241 264 238T190 223T135 189T114 127Q114 88 135 68T193 47ZM584 419Q518 419 482 385T432 298H705Q706 303 706 307T706 316Q706 341 696 360T669 393T630 412T584 419Z" />
<glyph unicode="&#xe7;" glyph-name="ccedilla" horiz-adv-x="500" d="M438 376Q415 393 372 406T286 420Q242 420 212 405T161 365T132 308T123 240Q123 201 134 165T166 102T219 59T293 43Q333 43 374 58T444 100L460 38Q434 21 389 6T291 -12L267 -51Q276 -49
284 -48T300 -47Q335 -47 357 -67T379 -119Q379 -136 371 -151T349 -177T314 -196T270 -203Q246 -203 222 -198T179 -184L178 -178L191 -155H198Q210 -160 228 -163T267 -167Q289 -167 304 -159T320 -127Q320 -100 305 -91T269 -81Q257 -81 244 -83T220 -88L212
-77L255 -11Q203 -7 165 14T101 69T62 144T49 234Q49 282 62 325T105 402T179 455T287 475Q335 475 381 464T455 435L438 376Z" />
<glyph unicode="&#xe8;" glyph-name="egrave" horiz-adv-x="516" d="M284 475Q372 475 420 431T468 305Q468 288 466 271T459 245H122V235Q122 197 132 162T162 100T212 57T285 41Q333 41 375 58T446 95L459 42Q446 34 427 25T385 7T335 -6T277 -12Q221 -12 178
7T106 60T62 138T47 230Q47 279 62 323T108 402T182 455T284 475ZM281 419Q215 419 179 385T129 298H402Q403 303 403 307T403 316Q403 341 393 360T366 393T327 412T281 419ZM343 549L141 626Q138 636 138 645Q138 659 147 669T173 680L353 579L356 572L351 552L343
549Z" />
<glyph unicode="&#xe9;" glyph-name="eacute" horiz-adv-x="516" d="M284 475Q372 475 420 431T468 305Q468 288 466 271T459 245H122V235Q122 197 132 162T162 100T212 57T285 41Q333 41 375 58T446 95L459 42Q446 34 427 25T385 7T335 -6T277 -12Q221 -12 178
7T106 60T62 138T47 230Q47 279 62 323T108 402T182 455T284 475ZM281 419Q215 419 179 385T129 298H402Q403 303 403 307T403 316Q403 341 393 360T366 393T327 412T281 419ZM199 552L193 572L196 579L376 680Q393 679 402 669T411 645Q411 641 411 636T408 626L206
549L199 552Z" />
<glyph unicode="&#xea;" glyph-name="ecircumflex" horiz-adv-x="516" d="M284 475Q372 475 420 431T468 305Q468 288 466 271T459 245H122V235Q122 197 132 162T162 100T212 57T285 41Q333 41 375 58T446 95L459 42Q446 34 427 25T385 7T335 -6T277 -12Q221 -12
178 7T106 60T62 138T47 230Q47 279 62 323T108 402T182 455T284 475ZM281 419Q215 419 179 385T129 298H402Q403 303 403 307T403 316Q403 341 393 360T366 393T327 412T281 419ZM275 673L386 574L388 567L383 548L375 545L272 606L168 545L160 548L155 567L157
574L268 673H275Z" />
<glyph unicode="&#xeb;" glyph-name="edieresis" horiz-adv-x="516" d="M284 475Q372 475 420 431T468 305Q468 288 466 271T459 245H122V235Q122 197 132 162T162 100T212 57T285 41Q333 41 375 58T446 95L459 42Q446 34 427 25T385 7T335 -6T277 -12Q221 -12
178 7T106 60T62 138T47 230Q47 279 62 323T108 402T182 455T284 475ZM281 419Q215 419 179 385T129 298H402Q403 303 403 307T403 316Q403 341 393 360T366 393T327 412T281 419ZM306 626Q306 644 318 657T347 671Q364 671 376 658T389 626Q389 607 377 595T347
582Q330 582 318 594T306 626ZM149 626Q149 644 161 657T190 671Q207 671 219 658T232 626Q232 607 220 595T190 582Q173 582 161 594T149 626Z" />
<glyph unicode="&#xec;" glyph-name="igrave" horiz-adv-x="226" d="M171 549L-30 626Q-34 635 -34 645Q-34 659 -25 669T1 680L182 579L185 572L179 552L171 549ZM148 0H78V460H148V0Z" />
<glyph unicode="&#xed;" glyph-name="iacute" horiz-adv-x="226" d="M21 552L15 572L18 579L198 680Q215 679 224 669T234 645Q234 635 230 626L28 549L21 552ZM148 0H78V460H148V0Z" />
<glyph unicode="&#xee;" glyph-name="icircumflex" horiz-adv-x="226" d="M114 673L224 574L227 567L221 548L214 545L110 606L7 545L-1 548L-7 567L-4 574L106 673H114ZM148 0H78V460H148V0Z" />
<glyph unicode="&#xef;" glyph-name="idieresis" horiz-adv-x="226" d="M-8 626Q-8 644 4 657T33 671Q50 671 62 658T75 626Q75 607 63 595T33 582Q16 582 4 594T-8 626ZM149 626Q149 644 161 657T190 671Q207 671 219 658T232 626Q232 607 220 595T190 582Q173
582 161 594T149 626ZM148 0H78V460H148V0Z" />
<glyph unicode="&#xf0;" glyph-name="eth" horiz-adv-x="564" d="M344 740Q384 704 418 646L535 677L553 629L441 600Q472 534 490 454T508 289Q508 231 498 177T461 80T390 13T279 -12Q217 -12 173 9T102 65T61 144T48 235Q48 283 61 326T103 403T176 455T281
475Q336 475 379 457T442 396L445 397Q431 457 417 502T385 586L260 554L243 600L361 631Q343 660 321 686T271 740H344ZM279 41Q320 41 349 57T398 101T427 164T437 239Q437 329 393 374T277 420Q235 420 206 405T158 364T132 305T123 237Q123 199 132 164T160
102T208 58T279 41Z" />
<glyph unicode="&#xf1;" glyph-name="ntilde" horiz-adv-x="545" d="M431 663Q428 649 422 636T405 611T379 593T343 586Q303 586 262 593T188 600Q163 600 153 594T133 575L120 583Q124 596 131 610T148 634T174 652T211 659Q236 659 254 657T289 652T320 647T354
645Q371 645 388 649T419 671L431 663ZM401 0V304Q401 365 374 390T305 416Q280 416 256 408T210 385T173 347T148 295V0H78V460H133L141 374H145Q158 416 203 445T315 475Q347 475 375 467T425 439T458 389T471 313V0H401Z" />
<glyph unicode="&#xf2;" glyph-name="ograve" horiz-adv-x="561" d="M342 549L140 626Q136 635 136 645Q136 659 145 669T171 680L352 579L355 572L349 552L342 549ZM280 475Q341 475 385 455T457 400T499 321T513 227Q513 178 500 135T458 59T387 7T284 -12Q223
-12 179 8T105 61T62 139T48 232Q48 281 62 325T104 402T177 455T280 475ZM283 41Q323 41 352 56T401 96T430 155T439 226Q439 264 430 299T400 360T350 403T277 419Q236 419 207 404T159 364T131 306T122 235Q122 197 131 162T160 100T210 57T283 41Z" />
<glyph unicode="&#xf3;" glyph-name="oacute" horiz-adv-x="561" d="M206 552L200 572L203 579L383 680Q400 679 409 669T419 645Q419 635 415 626L213 549L206 552ZM280 475Q341 475 385 455T457 400T499 321T513 227Q513 178 500 135T458 59T387 7T284 -12Q223
-12 179 8T105 61T62 139T48 232Q48 281 62 325T104 402T177 455T280 475ZM283 41Q323 41 352 56T401 96T430 155T439 226Q439 264 430 299T400 360T350 403T277 419Q236 419 207 404T159 364T131 306T122 235Q122 197 131 162T160 100T210 57T283 41Z" />
<glyph unicode="&#xf4;" glyph-name="ocircumflex" horiz-adv-x="561" d="M292 673L402 574L405 567L400 548L392 545L288 606L185 545L177 548L171 567L174 574L285 673H292ZM280 475Q341 475 385 455T457 400T499 321T513 227Q513 178 500 135T458 59T387 7T284
-12Q223 -12 179 8T105 61T62 139T48 232Q48 281 62 325T104 402T177 455T280 475ZM283 41Q323 41 352 56T401 96T430 155T439 226Q439 264 430 299T400 360T350 403T277 419Q236 419 207 404T159 364T131 306T122 235Q122 197 131 162T160 100T210 57T283 41Z"
/>
<glyph unicode="&#xf5;" glyph-name="otilde" horiz-adv-x="561" d="M427 663Q424 649 418 636T401 611T375 593T339 586Q299 586 258 593T184 600Q159 600 149 594T129 575L116 583Q120 596 127 610T144 634T170 652T207 659Q232 659 250 657T285 652T316 647T350
645Q367 645 384 649T415 671L427 663ZM280 475Q341 475 385 455T457 400T499 321T513 227Q513 178 500 135T458 59T387 7T284 -12Q223 -12 179 8T105 61T62 139T48 232Q48 281 62 325T104 402T177 455T280 475ZM283 41Q323 41 352 56T401 96T430 155T439 226Q439
264 430 299T400 360T350 403T277 419Q236 419 207 404T159 364T131 306T122 235Q122 197 131 162T160 100T210 57T283 41Z" />
<glyph unicode="&#xf6;" glyph-name="odieresis" horiz-adv-x="561" d="M161 626Q161 644 173 657T202 671Q219 671 231 658T244 626Q244 607 232 595T202 582Q185 582 173 594T161 626ZM318 626Q318 644 330 657T359 671Q376 671 388 658T401 626Q401 607 389
595T359 582Q342 582 330 594T318 626ZM280 475Q341 475 385 455T457 400T499 321T513 227Q513 178 500 135T458 59T387 7T284 -12Q223 -12 179 8T105 61T62 139T48 232Q48 281 62 325T104 402T177 455T280 475ZM283 41Q323 41 352 56T401 96T430 155T439 226Q439
264 430 299T400 360T350 403T277 419Q236 419 207 404T159 364T131 306T122 235Q122 197 131 162T160 100T210 57T283 41Z" />
<glyph unicode="&#xf7;" glyph-name="divide" horiz-adv-x="566" d="M491 265V213H77V265H491ZM248 80Q248 99 261 113T295 127Q313 127 327 113T342 80Q342 60 328 47T295 33Q275 33 262 46T248 80ZM248 397Q248 416 261 430T295 445Q313 445 327 431T342 397Q342
378 328 365T295 351Q275 351 262 364T248 397Z" />
<glyph unicode="&#xf8;" glyph-name="oslash" horiz-adv-x="561" d="M97 71Q72 104 60 145T48 232Q48 281 62 325T104 402T177 455T280 475Q322 475 356 465T417 436L468 494L519 455L463 392Q489 358 501 316T513 227Q513 178 500 135T458 59T387 7T284 -12Q199
-12 143 27L89 -35L41 8L97 71ZM283 41Q323 41 352 56T401 96T430 155T439 226Q439 288 415 336L185 74Q224 41 283 41ZM122 235Q122 206 127 178T145 126L374 387Q355 402 331 410T277 419Q236 419 207 404T159 364T131 306T122 235Z" />
<glyph unicode="&#xf9;" glyph-name="ugrave" horiz-adv-x="544" d="M333 549L132 626Q128 635 128 645Q128 659 137 669T163 680L343 579L346 572L341 552L333 549ZM143 460V156Q143 125 150 104T170 71T200 53T239 47Q264 47 288 54T334 77T371 114T396 165V460H466V0H411L403
86H399Q386 44 341 16T229 -12Q197 -12 169 -4T119 22T86 71T73 147V460H143Z" />
<glyph unicode="&#xfa;" glyph-name="uacute" horiz-adv-x="544" d="M171 552L166 572L169 579L349 680Q366 679 375 669T384 645Q384 636 381 626L179 549L171 552ZM143 460V156Q143 125 150 104T170 71T200 53T239 47Q264 47 288 54T334 77T371 114T396 165V460H466V0H411L403
86H399Q386 44 341 16T229 -12Q197 -12 169 -4T119 22T86 71T73 147V460H143Z" />
<glyph unicode="&#xfb;" glyph-name="ucircumflex" horiz-adv-x="544" d="M270 673L381 574L383 567L378 548L370 545L266 606L163 545L155 548L150 567L152 574L263 673H270ZM143 460V156Q143 125 150 104T170 71T200 53T239 47Q264 47 288 54T334 77T371 114T396
165V460H466V0H411L403 86H399Q386 44 341 16T229 -12Q197 -12 169 -4T119 22T86 71T73 147V460H143Z" />
<glyph unicode="&#xfc;" glyph-name="udieresis" horiz-adv-x="544" d="M146 626Q146 644 158 657T187 671Q204 671 216 658T229 626Q229 607 217 595T187 582Q170 582 158 594T146 626ZM303 626Q303 644 315 657T344 671Q361 671 373 658T386 626Q386 607 374
595T344 582Q327 582 315 594T303 626ZM143 460V156Q143 125 150 104T170 71T200 53T239 47Q264 47 288 54T334 77T371 114T396 165V460H466V0H411L403 86H399Q386 44 341 16T229 -12Q197 -12 169 -4T119 22T86 71T73 147V460H143Z" />
<glyph unicode="&#xfd;" glyph-name="yacute" horiz-adv-x="519" d="M197 552L191 572L194 579L374 680Q391 679 400 669T409 645Q409 641 409 636T406 626L204 549L197 552ZM296 -4Q281 -36 260 -79T210 -162T142 -228T54 -256Q46 -256 42 -256T33 -253L20 -187Q23
-188 27 -189T41 -190Q61 -190 78 -186T113 -170Q148 -145 176 -97T228 15L-2 460H81L264 77L428 460H507L296 -4Z" />
<glyph unicode="&#xfe;" glyph-name="thorn" horiz-adv-x="575" d="M325 475Q376 475 414 455T477 402T514 326T527 234Q527 184 514 140T474 62T407 8T314 -12Q247 -12 204 17T148 89V-260H78V740H148V374Q158 391 175 409T215 441T265 465T325 475ZM307 416Q259
416 218 390T148 315V168Q157 139 174 117T213 79T261 55T313 47Q348 47 374 61T417 100T444 158T453 229Q453 265 445 299T418 359T373 400T307 416Z" />
<glyph unicode="&#xff;" glyph-name="ydieresis" horiz-adv-x="519" d="M133 626Q133 644 145 657T174 671Q191 671 203 658T216 626Q216 607 204 595T174 582Q157 582 145 594T133 626ZM290 626Q290 644 302 657T331 671Q348 671 360 658T373 626Q373 607 361
595T331 582Q314 582 302 594T290 626ZM296 -4Q281 -36 260 -79T210 -162T142 -228T54 -256Q46 -256 42 -256T33 -253L20 -187Q23 -188 27 -189T41 -190Q61 -190 78 -186T113 -170Q148 -145 176 -97T228 15L-2 460H81L264 77L428 460H507L296 -4Z" />
<glyph unicode="&#x2013;" glyph-name="endash" horiz-adv-x="562" d="M488 265V213H74V265H488Z" />
<glyph unicode="&#x2014;" glyph-name="emdash" horiz-adv-x="790" d="M716 265V213H74V265H716Z" />
<glyph unicode="&#x2018;" glyph-name="quoteleft" horiz-adv-x="225" d="M166 715L127 642H152V552H73V657L146 734L166 715Z" />
<glyph unicode="&#x2019;" glyph-name="quoteright" horiz-adv-x="205" d="M62 571L101 644H76V734H155V629L82 552L62 571Z" />
<glyph unicode="&#x201a;" glyph-name="quotesinglbase" horiz-adv-x="243" d="M68 -78L107 -5H82V85H161V-20L88 -97L68 -78Z" />
<glyph unicode="&#x201c;" glyph-name="quotedblleft" horiz-adv-x="375" d="M166 715L127 642H152V552H73V657L146 734L166 715ZM316 715L277 642H302V552H223V657L296 734L316 715Z" />
<glyph unicode="&#x201d;" glyph-name="quotedblright" horiz-adv-x="355" d="M212 571L251 644H226V734H305V629L232 552L212 571ZM62 571L101 644H76V734H155V629L82 552L62 571Z" />
<glyph unicode="&#x201e;" glyph-name="quotedblbase" horiz-adv-x="404" d="M68 -78L107 -5H82V85H161V-20L88 -97L68 -78ZM229 -78L268 -5H243V85H322V-20L249 -97L229 -78Z" />
<glyph unicode="&#x2022;" glyph-name="bullet" horiz-adv-x="328" d="M96 243Q96 270 115 291T164 312Q177 312 189 307T211 291T226 269T232 243Q232 214 211 195T164 176Q135 176 116 195T96 243Z" />
<glyph unicode="&#x2039;" glyph-name="guilsinglleft" horiz-adv-x="322" d="M121 238L265 61H185L52 238V243L186 420H265L121 243V238Z" />
<glyph unicode="&#x203a;" glyph-name="guilsinglright" horiz-adv-x="322" d="M201 243L57 420H136L270 243V238L137 61H57L201 238V243Z" />
</font>
</defs>
</svg>
