<?xml version="1.0" standalone="no"?>
<!DOCTYPE svg PUBLIC "-//W3C//DTD SVG 1.1//EN" "http://www.w3.org/Graphics/SVG/1.1/DTD/svg11.dtd">
<svg xmlns="http://www.w3.org/2000/svg">
<defs >
<font id="Rokkitt" horiz-adv-x="524" ><font-face
    font-family="Rokkitt Light"
    units-per-em="1000"
    panose-1="0 0 4 0 0 0 0 0 0 0"
    ascent="817"
    descent="-320"
    alphabetic="0" />
<glyph unicode=" " glyph-name="space" horiz-adv-x="289" />
<glyph unicode="!" glyph-name="exclam" horiz-adv-x="144" d="M49 143L39 394V579H95V394L85 143H49ZM49 -6T38 4T26 32Q26 49 37 60T67 72Q85 72 97 61T109 32Q109 16 97 5T67 -6Q49 -6 38 4Z" />
<glyph unicode="&quot;" glyph-name="quotedbl" horiz-adv-x="242" d="M61 435L45 630H104L92 435H61ZM154 435L138 630H197L185 435H154Z" />
<glyph unicode="#" glyph-name="numbersign" horiz-adv-x="513" d="M92 -2L112 179H32L33 216H118L136 377H46V415H142L161 579H208L189 415H353L372 579H419L400 415H483V377H394L376 216H469V179H370L350 -2H303L324 179H158L139 -2H92ZM165 216H329L346 377H182L165
216Z" />
<glyph unicode="$" glyph-name="dollar" horiz-adv-x="535" d="M388 294T429 258T471 149Q471 80 424 35T292 -10H289V-89H244V-6Q199 1 166 22T113 76V0H65V190H110Q113 127 146 87T244 36V264L237 265Q152 278 108 316T63 424Q63 494 110 534T240 574H244V656H289V569Q325
562 353 546T398 504V563H446V408H401Q398 451 370 483T289 527V310L296 309Q388 294 429 258ZM116 378T147 353T244 317V531H242Q182 531 149 503T116 428Q116 378 147 353ZM351 32T384 61T418 142Q418 196 390 221T289 258V32H290Q351 32 384 61Z" />
<glyph unicode="%" glyph-name="percent" horiz-adv-x="663" d="M100 299T64 338T27 437Q27 497 63 535T155 574Q211 574 248 536T285 437Q285 377 248 338T155 299Q100 299 64 338ZM124 -1L501 565H542L166 -1H124ZM194 333T219 362T245 437Q245 482 220 511T155
541Q117 540 92 511T67 437Q67 392 92 363T155 332Q194 333 219 362ZM451 -11T415 28T378 128Q378 187 414 225T507 264Q563 264 599 226T636 128Q636 68 600 29T507 -11Q451 -11 415 28ZM546 23T571 52T596 128Q596 173 571 202T507 232Q469 232 444 203T418 128Q418
82 443 53T507 23Q546 23 571 52Z" />
<glyph unicode="&amp;" glyph-name="ampersand" horiz-adv-x="590" d="M155 -10T104 35T53 158Q53 279 192 328Q157 372 139 405T121 471Q121 523 159 554T262 585Q323 585 360 555T397 474Q397 424 362 383T261 314L415 127Q431 151 444 190T460 260H562V219H496Q491
190 475 153T442 92L482 41H562V0H453L410 56Q379 24 336 7T243 -10Q155 -10 104 35ZM292 368T321 400T350 472Q350 507 327 526T261 546Q219 546 195 527T170 473Q170 447 186 419T237 346Q292 368 321 400ZM334 35T383 90L217 295Q107 259 107 160Q107 103 145
69T249 35Q334 35 383 90Z" />
<glyph unicode="&apos;" glyph-name="quotesingle" horiz-adv-x="150" d="M61 435L45 630H104L92 435H61Z" />
<glyph unicode="(" glyph-name="parenleft" horiz-adv-x="265" d="M147 -23T97 64T46 257Q46 362 96 450T240 573L241 539Q178 510 144 432T110 258Q110 163 144 85T241 -23L240 -58Q147 -23 97 64Z" />
<glyph unicode=")" glyph-name="parenright" horiz-adv-x="265" d="M49 -23Q112 7 146 85T181 258Q181 353 147 431T49 539L50 573Q143 538 193 450T244 257Q244 152 194 65T50 -58L49 -23Z" />
<glyph unicode="*" glyph-name="asterisk" horiz-adv-x="457" d="M126 203L86 233L212 381L24 434L39 481L219 400L204 595H254L239 400L418 481L434 434L245 381L371 233L332 204L228 369L126 203Z" />
<glyph unicode="+" glyph-name="plus" horiz-adv-x="526" d="M240 74V260H61V301H240V487H286V301H465V260H286V74H240Z" />
<glyph unicode="," glyph-name="comma" horiz-adv-x="200" d="M51 -66Q76 -63 85 -49T94 0H53V77H129V12Q129 -42 111 -69T51 -96V-66Z" />
<glyph unicode="-" glyph-name="hyphen" horiz-adv-x="385" d="M70 221V262H315V221H70Z" />
<glyph unicode="." glyph-name="period" horiz-adv-x="196" d="M51 0V76H125V0H51Z" />
<glyph unicode="/" glyph-name="slash" horiz-adv-x="303" d="M10 -140L286 593H333L57 -140H10Z" />
<glyph unicode="0" glyph-name="zero" horiz-adv-x="535" d="M166 -11T114 64T62 282Q62 421 114 497T267 573Q367 573 420 497T473 282Q473 140 421 65T267 -11Q166 -11 114 64ZM340 28T379 93T419 282Q419 405 380 469T267 534Q193 534 154 470T115 282Q115
159 153 94T265 28Q340 28 379 93Z" />
<glyph unicode="1" glyph-name="one" horiz-adv-x="296" d="M49 0V39H131V513L48 496L47 536L183 563V39H263V0H49Z" />
<glyph unicode="2" glyph-name="two" horiz-adv-x="465" d="M409 0H48V38L227 218Q298 289 325 331T352 421Q352 472 322 503T234 534Q175 534 141 502T107 412Q107 388 115 351H66Q57 383 57 414Q57 486 106 529T240 573Q317 573 361 533T406 426Q406 371 373
322T259 193L108 42H360V146H408L409 0Z" />
<glyph unicode="3" glyph-name="three" horiz-adv-x="471" d="M356 286T390 247T425 149Q425 76 373 33T233 -10Q90 -10 30 103L73 128Q122 33 234 33Q297 33 334 64T371 149Q371 274 188 274V316Q274 316 319 344T364 427Q364 475 331 503T236 531Q180 531 140
505T82 432L39 452Q62 509 114 541T237 573Q320 573 367 535T415 429Q415 377 383 342T296 296Q356 286 390 247Z" />
<glyph unicode="4" glyph-name="four" horiz-adv-x="449" d="M186 0V39H275V148H15L9 186L277 563H325V188H419V148H325V39H394V0H186ZM59 188H275V492L59 188Z" />
<glyph unicode="5" glyph-name="five" horiz-adv-x="484" d="M345 357T393 307T442 174Q442 89 388 39T240 -11Q119 -11 40 83L75 117Q106 78 148 56T239 34Q311 34 349 71T388 173Q388 237 352 274T249 311Q169 311 112 254L67 273L74 563H414V431H363V520H120L114
307Q142 330 179 343T257 357Q345 357 393 307Z" />
<glyph unicode="6" glyph-name="six" horiz-adv-x="439" d="M283 345T322 324T383 262T406 171Q406 90 355 40T220 -10Q166 -10 124 12T58 76T34 169Q34 221 50 263T111 374L255 607L300 578L127 311Q149 327 177 336T235 345Q283 345 322 324ZM283 31T319 69T356
169Q356 231 321 267T225 304Q189 304 158 288T107 240T88 165Q88 106 123 69T221 31Q283 31 319 69Z" />
<glyph unicode="7" glyph-name="seven" horiz-adv-x="425" d="M140 0L326 522H64V417H11V563H382V525L192 0H140Z" />
<glyph unicode="8" glyph-name="eight" horiz-adv-x="453" d="M136 -11T85 33T33 148Q33 203 62 243T148 296Q97 316 74 348T51 429Q51 494 98 533T227 573Q307 573 355 534T403 429Q403 379 379 343T303 293Q361 280 391 242T421 148Q421 76 369 33T227 -11Q136
-11 85 33ZM303 319T325 348T348 425Q348 474 316 503T227 532Q171 532 139 503T106 425Q106 372 146 344T270 309Q303 319 325 348ZM290 31T326 63T363 149Q363 209 321 239T185 280Q144 272 117 238T90 150Q90 96 127 64T227 31Q290 31 326 63Z" />
<glyph unicode="9" glyph-name="nine" horiz-adv-x="439" d="M271 574T313 552T380 488T404 394Q404 342 388 300T327 190L183 -43L138 -15L309 251Q263 219 203 219Q154 219 115 240T54 302T31 393Q31 446 54 487T120 551T217 574Q271 574 313 552ZM249 259T280
276T331 324T350 399Q350 458 315 495T217 533Q155 533 119 495T82 395Q82 333 117 296T213 259Q249 259 280 276Z" />
<glyph unicode=":" glyph-name="colon" horiz-adv-x="196" d="M51 0V76H125V0H51ZM51 317V393H125V317H51Z" />
<glyph unicode=";" glyph-name="semicolon" horiz-adv-x="200" d="M51 -66Q76 -63 85 -49T94 0H53V77H129V12Q129 -42 111 -69T51 -96V-66ZM51 317V393H125V317H51Z" />
<glyph unicode="&lt;" glyph-name="less" horiz-adv-x="469" d="M428 90L61 265V301L428 476V429L113 283L428 137V90Z" />
<glyph unicode="=" glyph-name="equal" horiz-adv-x="514" d="M61 342V383H453V342H61ZM61 180V221H453V180H61Z" />
<glyph unicode="&gt;" glyph-name="greater" horiz-adv-x="469" d="M41 90V137L356 283L41 429V476L408 301V265L41 90Z" />
<glyph unicode="?" glyph-name="question" horiz-adv-x="365" d="M134 150Q134 187 144 214T170 263T219 318Q252 352 267 381T282 447Q282 492 256 517T185 542Q138 542 110 517T79 445H20Q24 510 70 547T184 584Q257 584 300 547T344 449Q344 407 324 375T259
297Q220 257 205 228T190 150V142H134V150ZM144 -8T132 3T119 32Q119 49 131 60T162 72Q180 72 192 61T205 32Q205 15 193 4T162 -8Q144 -8 132 3Z" />
<glyph unicode="@" glyph-name="at" horiz-adv-x="695" d="M273 -21T200 19T91 126T55 269Q55 348 93 420T203 536T374 581Q464 581 524 547T612 456T640 336Q640 279 618 229T560 147T487 116Q434 116 434 169Q434 186 440 211Q423 167 393 141T320 115Q268 115
232 152T196 256Q196 304 215 349T272 422T361 451Q405 451 433 425T462 357L480 442H516L470 231Q463 200 463 179Q463 147 483 144Q486 143 492 143Q516 143 543 168T588 238T607 335Q607 392 580 440T500 518T371 548Q293 548 230 512T132 411T96 268Q96 191
129 133T226 44T378 12Q485 12 556 62L575 37Q535 8 488 -6T378 -21Q273 -21 200 19ZM360 147T387 171T430 235T446 321Q446 368 422 392T357 417Q321 417 294 395T252 335T237 255Q237 206 259 177T326 147Q360 147 387 171Z" />
<glyph unicode="A" glyph-name="A" horiz-adv-x="675" d="M34 0V39H108L284 524H218V563H459V524H390L569 39H640V0H433V39H507L441 225H229L163 39H237V0H34ZM241 264H429L337 522H333L241 264Z" />
<glyph unicode="B" glyph-name="B" horiz-adv-x="603" d="M48 39H129V524H48V563H345Q433 563 479 528T525 424Q525 376 502 343T440 299Q499 286 528 248T557 157Q557 88 512 44T377 0H48V39ZM354 316Q412 316 440 344T468 422Q468 476 435 500T330 524H188V316H354ZM368
39Q432 39 465 71T498 159Q498 212 463 244T360 276H188V39H368Z" />
<glyph unicode="C" glyph-name="C" horiz-adv-x="674" d="M607 140Q536 -9 346 -11Q266 -10 199 25T93 126T53 283Q53 365 89 431T193 535T347 573Q492 573 555 469V563H600V399L561 395Q526 465 476 497T349 529Q277 529 223 496T141 407T112 283Q112 206 144
149T231 63T349 33Q420 33 477 63T565 162L607 140Z" />
<glyph unicode="D" glyph-name="D" horiz-adv-x="690" d="M49 39H130V524H49V563H368Q455 563 515 523T606 418T636 284Q636 207 606 143T515 39T370 0H49V39ZM363 39Q433 39 481 72T552 161T576 282Q576 344 553 399T482 489T366 524H189V39H363Z" />
<glyph unicode="E" glyph-name="E" horiz-adv-x="589" d="M48 0V39H129V524H48V563H525V399H478V524H188V310H377V383H410V193H377V269H188V39H486V167H533V0H48Z" />
<glyph unicode="F" glyph-name="F" horiz-adv-x="554" d="M48 0V39H129V524H48V563H522V391H476V524H188V312H374V380H407V195H374V270H188V39H269V0H48Z" />
<glyph unicode="G" glyph-name="G" horiz-adv-x="683" d="M627 277V259Q627 167 590 107T491 18T352 -10Q260 -10 192 26T88 129T52 284Q52 370 89 435T194 537T351 573Q415 573 467 549T554 481V563H602V399H560Q533 462 479 496T353 530Q243 530 179 465T114
287Q114 210 143 153T227 65T354 34Q441 35 505 83T570 236H448V277H627Z" />
<glyph unicode="H" glyph-name="H" horiz-adv-x="712" d="M48 0V39H129V524H48V563H269V524H188V308H524V524H442V563H663V524H582V39H663V0H442V39H524V266H188V39H269V0H48Z" />
<glyph unicode="I" glyph-name="I" horiz-adv-x="327" d="M52 0V39H133V524H52V563H274V524H192V39H274V0H52Z" />
<glyph unicode="J" glyph-name="J" horiz-adv-x="304" d="M40 -27H100Q132 -27 142 -8T152 57V524H80V563H278V524H211V55Q211 -15 187 -44T105 -73H40V-27Z" />
<glyph unicode="K" glyph-name="K" horiz-adv-x="634" d="M48 0V39H129V524H48V563H269V524H188V292L444 524H375V563H591V524H513L251 285L524 39H601V0H382V39H452L188 275V39H269V0H48Z" />
<glyph unicode="L" glyph-name="L" horiz-adv-x="521" d="M48 0V39H129V524H48V563H269V524H188V39H448V206H495V0H48Z" />
<glyph unicode="M" glyph-name="M" horiz-adv-x="774" d="M34 0V39H109V524H34V563H188L391 140L583 563H740V524H665V39H740V0H534V39H608V504L394 37H376L155 504V39H230V0H34Z" />
<glyph unicode="N" glyph-name="N" horiz-adv-x="704" d="M51 0V39H128V524H51V563H192L555 79V524H477V563H673V524H602V0H543L175 496V39H251V0H51Z" />
<glyph unicode="O" glyph-name="O" horiz-adv-x="709" d="M262 -11T194 29T90 137T54 280Q54 357 90 424T194 532T354 573Q447 573 515 532T619 424T655 280Q655 203 620 137T516 30T354 -11Q262 -11 194 29ZM429 33T483 67T565 157T593 280Q593 345 565 402T483
495T354 530Q279 530 226 495T145 403T117 279Q117 212 144 156T224 67T354 33Q429 33 483 67Z" />
<glyph unicode="P" glyph-name="P" horiz-adv-x="576" d="M48 39H129V524H48V563H337Q428 563 477 523T527 408Q527 326 477 282T335 237H230V276H334Q398 276 432 310T467 407Q467 463 435 493T342 524H188V39H269V0H48V39Z" />
<glyph unicode="Q" glyph-name="Q" horiz-adv-x="705" d="M416 -120T336 -10Q248 -6 184 35T87 141T54 280Q54 357 90 424T194 532T354 573Q447 573 515 532T619 424T655 280Q655 208 624 145T533 40T389 -9Q419 -44 448 -62T517 -81Q544 -81 575 -72V-111Q545
-120 517 -120Q416 -120 336 -10ZM429 33T483 67T565 157T593 280Q593 345 565 402T483 495T354 530Q279 530 226 495T145 403T117 279Q117 212 144 156T224 67T354 33Q429 33 483 67Z" />
<glyph unicode="R" glyph-name="R" horiz-adv-x="624" d="M48 39H129V524H48V563H349Q434 563 480 523T526 415Q526 353 489 313T368 265L507 39H590V0H467L311 260H223V301H330Q406 301 437 334T468 414Q468 461 439 492T350 524H188V39H269V0H48V39Z" />
<glyph unicode="S" glyph-name="S" horiz-adv-x="536" d="M401 294T442 258T484 149Q484 80 437 35T305 -10Q242 -10 196 12T126 76V0H78V190H123Q127 117 172 75T303 32Q364 32 397 61T431 142Q431 179 419 201T378 237T299 258L250 265Q165 278 121 316T76 424Q76
494 123 534T253 574Q306 574 347 556T411 504V563H459V408H414Q410 460 371 495T255 531Q195 531 162 503T129 428Q129 377 161 352T260 316L309 309Q401 294 442 258Z" />
<glyph unicode="T" glyph-name="T" horiz-adv-x="559" d="M169 0V39H250V524H70V371H25V563H534V371H488V524H308V39H389V0H169Z" />
<glyph unicode="U" glyph-name="U" horiz-adv-x="696" d="M232 -10T170 46T108 195V524H34V563H242V524H167V189Q167 118 216 76T348 34Q437 34 490 76T543 189V524H469V563H670V524H594V190Q594 95 526 43T347 -10Q232 -10 170 46Z" />
<glyph unicode="V" glyph-name="V" horiz-adv-x="628" d="M289 0L87 524H17V563H223V524H148L319 66L488 524H415V563H609V524H544L342 0H289Z" />
<glyph unicode="W" glyph-name="W" horiz-adv-x="936" d="M268 0L97 524H29V563H230V524H155L297 75L451 545H494L647 75L786 524H712V563H907V524H837L671 0H618L470 450L321 0H268Z" />
<glyph unicode="X" glyph-name="X" horiz-adv-x="635" d="M41 0V37H114L285 289L122 525H47V563H253V525H182L320 322L455 525H383V563H584V525H509L347 288L519 37H595V0H387V37H458L312 255L168 37H242V0H41Z" />
<glyph unicode="Y" glyph-name="Y" horiz-adv-x="624" d="M202 0V39H284V235L86 524H11V563H222V524H150L318 275L482 524H408V563H613V524H537L342 235V39H425V0H202Z" />
<glyph unicode="Z" glyph-name="Z" horiz-adv-x="588" d="M65 0V42L447 524H124V384H80V563H517V525L134 39H482V187H527V0H65Z" />
<glyph unicode="[" glyph-name="bracketleft" horiz-adv-x="234" d="M81 -76V597H211V555H140V-34H211V-76H81Z" />
<glyph unicode="\" glyph-name="backslash" horiz-adv-x="273" d="M243 -140L18 593H63L289 -140H243Z" />
<glyph unicode="]" glyph-name="bracketright" horiz-adv-x="233" d="M20 -76V-34H92V555H20V597H151V-76H20Z" />
<glyph unicode="^" glyph-name="asciicircum" horiz-adv-x="449" d="M36 353L200 617H253L412 353H363L227 572L86 353H36Z" />
<glyph unicode="_" glyph-name="underscore" horiz-adv-x="395" d="M6 -72V-40H389V-72H6Z" />
<glyph unicode="`" glyph-name="grave" horiz-adv-x="309" d="M176 480L100 615H160L209 480H176Z" />
<glyph unicode="a" glyph-name="a" horiz-adv-x="450" d="M429 39V0H322L317 38Q280 13 246 1T173 -11Q113 -11 76 22T39 106Q39 169 80 197T188 225Q244 225 314 210V260Q314 311 287 337T211 363Q181 363 144 354T75 328L59 365Q94 383 135 393T210 403Q288
403 327 365T367 267V39H429ZM91 73T115 50T180 27Q212 27 243 38T314 74V177Q249 192 191 192Q147 192 119 173T91 108Q91 73 115 50Z" />
<glyph unicode="b" glyph-name="b" horiz-adv-x="516" d="M381 403T435 350T489 202Q489 137 462 89T388 16T283 -10Q246 -10 213 2T153 39V0H28V39H99V534H31V573H153V354Q184 378 221 390T294 403Q381 403 435 350ZM346 30T389 74T433 196Q433 273 391 317T281
362Q250 362 217 349T153 313V79Q180 56 212 43T275 30Q346 30 389 74Z" />
<glyph unicode="c" glyph-name="c" horiz-adv-x="468" d="M173 362T128 316T83 199Q83 125 127 79T241 32Q288 32 322 49T390 101L412 68Q345 -10 237 -10Q177 -10 130 17T55 91T28 199Q28 258 54 305T126 378T232 404Q276 404 311 387T365 342V394H412V265H370Q362
309 328 335T243 362Q173 362 128 316Z" />
<glyph unicode="d" glyph-name="d" horiz-adv-x="506" d="M485 39V0H367V34Q309 -11 233 -11Q176 -11 130 14T56 87T29 197Q29 260 55 306T126 378T228 403Q266 403 302 391T367 357V534H299V573H421V39H485ZM85 118T129 74T243 30Q310 30 367 74V316Q307 362
237 362Q169 362 127 316T85 192Q85 118 129 74Z" />
<glyph unicode="e" glyph-name="e" horiz-adv-x="467" d="M424 185H83Q88 115 131 73T241 30Q285 30 327 49T397 98L416 63Q383 28 339 8T243 -12Q184 -12 135 14T56 87T27 196Q27 260 55 307T129 379T232 404Q318 404 371 350T424 198V185ZM371 219Q371 288 331
326T232 364Q172 364 130 325T83 219H371Z" />
<glyph unicode="f" glyph-name="f" horiz-adv-x="295" d="M47 39H123V354H46V393H123V488Q123 536 149 563T225 590Q265 590 291 571T321 510L279 497Q275 524 263 538T228 552Q204 552 191 536T177 487V393H291V354H177V39H276V0H47V39Z" />
<glyph unicode="g" glyph-name="g" horiz-adv-x="506" d="M495 393V354H428V-9Q428 -99 376 -142T234 -186Q172 -186 90 -163L100 -120Q177 -143 233 -143Q302 -143 338 -110T374 -14V46Q346 23 309 10T235 -3Q178 -3 132 22T58 93T31 200Q31 262 56 307T127 377T229
402Q266 402 306 388T374 351V393H495ZM87 124T131 81T244 37Q276 37 311 50T374 85V315Q343 337 306 350T235 363Q169 363 128 318T87 196Q87 124 131 81Z" />
<glyph unicode="h" glyph-name="h" horiz-adv-x="504" d="M493 39V0H291V39H365V272Q365 314 343 337T282 361Q224 361 138 311V39H205V0H11V39H84V534H13V573H138V348Q182 375 218 389T293 403Q349 403 384 369T419 276V39H493Z" />
<glyph unicode="i" glyph-name="i" horiz-adv-x="254" d="M101 486T89 497T77 526Q77 543 89 554T119 565Q137 565 149 554T161 526Q161 509 149 498T119 486Q101 486 89 497ZM20 0V39H101V354H21V393H154V39H232V0H20Z" />
<glyph unicode="j" glyph-name="j" horiz-adv-x="228" d="M108 487T96 498T84 527Q84 543 96 554T126 565Q144 565 156 554T168 527Q168 509 156 498T126 487Q108 487 96 498ZM7 -97H45Q83 -97 96 -79T110 -17V355H32V393H166V-7Q166 -73 141 -106T44 -139H7V-97Z" />
<glyph unicode="k" glyph-name="k" horiz-adv-x="489" d="M28 0V39H101V534H31V573H155V209L344 354H269V393H468V354H403L213 205L388 39H471V0H362L155 198V39H223V0H28Z" />
<glyph unicode="l" glyph-name="l" horiz-adv-x="244" d="M27 0V39H100V534H30V573H154V39H222V0H27Z" />
<glyph unicode="m" glyph-name="m" horiz-adv-x="779" d="M777 39V0H576V39H651V272Q651 314 628 337T566 361Q533 361 496 348T424 311Q428 296 428 274V39H500V0H300V39H374V272Q374 314 352 337T290 361Q239 361 154 316V39H231V0H20V39H101V354H21V393H154V353Q192
377 231 390T303 403Q341 403 369 387T412 343Q459 373 497 388T579 403Q634 403 669 369T704 276V39H777Z" />
<glyph unicode="n" glyph-name="n" horiz-adv-x="508" d="M506 39V0H304V39H378V272Q378 314 356 337T294 361Q237 361 154 313V39H231V0H20V39H101V354H21V393H154V351Q241 403 307 403Q362 403 397 369T432 276V39H506Z" />
<glyph unicode="o" glyph-name="o" horiz-adv-x="478" d="M176 -12T128 14T54 88T27 198Q27 259 53 305T128 378T238 404Q300 404 348 378T424 306T451 198Q451 136 424 89T349 15T238 -12Q176 -12 128 14ZM309 30T352 76T396 198Q396 271 353 316T238 362Q168
362 125 317T82 198Q82 123 125 77T238 30Q309 30 352 76Z" />
<glyph unicode="p" glyph-name="p" horiz-adv-x="510" d="M343 403T387 379T456 308T481 199Q481 136 455 89T384 16T281 -10Q244 -10 208 3T148 37L147 -116H220V-155H24V-116H94V354H28V393H145L146 354Q175 377 212 390T287 403Q343 403 387 379ZM341 30T383
74T426 196Q426 271 384 316T275 361Q245 361 210 349T147 315L148 78Q175 56 208 43T273 30Q341 30 383 74Z" />
<glyph unicode="q" glyph-name="q" horiz-adv-x="523" d="M497 -120V-161H300V-120H373V39Q343 15 307 2T233 -11Q176 -11 130 14T56 87T29 197Q29 260 55 306T126 378T228 403Q267 403 305 390T373 353L375 393H494V354H427V-120H497ZM84 118T128 74T242 30Q276
30 310 42T373 78V313Q342 337 307 350T236 363Q169 363 127 317T84 192Q84 118 128 74Z" />
<glyph unicode="r" glyph-name="r" horiz-adv-x="376" d="M318 400T356 380L343 333Q309 353 276 353Q235 353 207 317T179 218L178 39H254V0H44V39H125V354H45V393H178V318Q209 400 279 400Q318 400 356 380Z" />
<glyph unicode="s" glyph-name="s" horiz-adv-x="438" d="M330 203T361 179T392 100Q392 46 349 18T245 -10Q203 -10 166 3T108 37V0H64V128H104L108 80Q129 55 163 42T239 28Q283 28 312 46T341 96Q341 132 319 147T238 174L178 187Q121 200 93 224T65 296Q65
346 105 374T209 403Q242 403 275 392T330 361V394H374V262H334L328 319Q311 339 280 351T216 364Q175 364 147 347T119 298Q119 270 139 256T203 232L260 220Q330 203 361 179Z" />
<glyph unicode="t" glyph-name="t" horiz-adv-x="293" d="M149 0T119 26T89 112V354H20V393H89V528L143 548V393H252V354H143V115Q143 73 159 56T215 39H265V0H207Q149 0 119 26Z" />
<glyph unicode="u" glyph-name="u" horiz-adv-x="506" d="M491 39V0H367L365 48Q291 -10 211 -10Q145 -10 115 26T85 114V354H14V393H139V118Q139 80 159 57T221 33Q261 33 295 47T364 89V354H292V393H418V39H491Z" />
<glyph unicode="v" glyph-name="v" horiz-adv-x="514" d="M232 0L77 354H7V393H207V354H134L262 53L387 354H316V393H507V354H441L284 0H232Z" />
<glyph unicode="w" glyph-name="w" horiz-adv-x="735" d="M198 0L70 354H12V393H187V354H123L230 50L338 354H276V393H460V354H397L508 50L609 354H548V393H719V354H658L536 0H481L367 309L254 0H198Z" />
<glyph unicode="x" glyph-name="x" horiz-adv-x="514" d="M24 0V39H89L230 202L98 354H30V393H220V354H153L260 228L365 354H298V393H491V354H416L287 203L428 39H494V0H299V39H374L256 175L141 39H209V0H24Z" />
<glyph unicode="y" glyph-name="y" horiz-adv-x="521" d="M107 -98H150Q179 -98 194 -94T219 -77T241 -37L266 27H241L91 354H15V393H210V354H146L277 59L397 354H323V393H515V354H451L290 -34Q272 -78 258 -99T220 -132T153 -143H107V-98Z" />
<glyph unicode="z" glyph-name="z" horiz-adv-x="449" d="M59 0V40L325 355H111V268H68V393H385V350L122 37H348V136H392V0H59Z" />
<glyph unicode="{" glyph-name="braceleft" horiz-adv-x="250" d="M146 -38T125 -19T98 34T93 140Q93 187 89 210T69 246T21 258V301Q54 301 69 313T89 350T93 424Q93 491 98 525T125 578T194 597H227V558Q189 558 172 552T148 528T141 471Q141 394 137 358T119
304T76 279Q104 270 117 254T136 203T141 98Q141 52 146 33T168 6T227 -1V-38H194Q146 -38 125 -19Z" />
<glyph unicode="|" glyph-name="bar" horiz-adv-x="125" d="M40 -140V593H85V-140H40Z" />
<glyph unicode="}" glyph-name="braceright" horiz-adv-x="251" d="M35 -1Q76 -1 93 6T115 32T121 97Q121 168 126 203T144 254T186 279Q156 287 143 304T125 357T120 471Q120 511 114 528T91 552T35 558V597H68Q115 597 136 578T163 526T168 424Q168 375 172
351T191 314T241 301V258Q208 258 193 246T173 210T168 140Q168 69 163 35T137 -19T68 -38H35V-1Z" />
<glyph unicode="~" glyph-name="asciitilde" horiz-adv-x="478" d="M307 242T287 249T235 273Q206 287 189 294T154 301Q133 301 121 290T107 255H61Q63 295 87 318T151 342Q175 342 197 334T247 310Q274 296 291 290T326 283Q369 283 372 329H417Q415 288 391
265T328 242Q307 242 287 249Z" />
<glyph unicode="&#xa0;" glyph-name="uni00A0" horiz-adv-x="289" />
<glyph unicode="&#xa1;" glyph-name="exclamdown" horiz-adv-x="131" d="M92 432T104 421T116 394Q116 377 104 366T74 354Q56 354 45 365T33 394Q33 411 44 421T74 432Q92 432 104 421ZM56 283H92L102 32V-153H46V32L56 283Z" />
<glyph unicode="&#xa2;" glyph-name="cent" horiz-adv-x="468" d="M362 306T333 331T258 361V33Q298 36 329 53T390 101L412 68Q353 -2 258 -9V-89H213V-9Q131 -1 80 56T28 199Q28 255 51 300T117 372T213 403V482H258V402Q294 398 322 382T365 342V394H412V265H370Q362
306 333 331ZM83 133T118 89T213 34V360Q154 350 119 307T83 199Q83 133 118 89Z" />
<glyph unicode="&#xa3;" glyph-name="sterling" horiz-adv-x="512" d="M480 139V133Q479 69 451 32T368 -5Q331 -5 303 12T245 59Q228 27 199 9T133 -10Q88 -10 61 14T33 77Q33 115 60 142T131 169Q178 169 223 134V140Q223 176 209 205T164 275H63V313H138Q105
365 105 416Q105 488 154 531T281 574Q361 574 404 535T449 424H399Q394 532 282 532Q225 532 192 500T159 414Q159 368 191 313H403V275H214Q240 234 253 205T266 142Q266 122 261 100Q291 72 313 58T362 44Q437 44 440 139H480ZM162 23T183 41T215 89Q194 110
175 121T133 132Q105 132 89 117T73 77Q73 53 89 38T132 23Q162 23 183 41Z" />
<glyph unicode="&#xa4;" glyph-name="currency" horiz-adv-x="575" d="M528 205T473 137L540 75L506 41L442 108Q378 55 288 55Q243 55 204 68T133 108L69 41L36 75L103 137Q47 204 47 294Q47 339 61 379T103 450L36 512L69 546L133 479Q164 505 203 518T288 532Q377
532 442 480L506 546L540 512L473 450Q528 386 528 294Q528 205 473 137ZM341 104T383 128T450 196T475 294Q475 347 451 390T384 458T288 483Q235 483 193 459T126 391T101 294Q101 240 125 197T192 129T288 104Q341 104 383 128Z" />
<glyph unicode="&#xa5;" glyph-name="yen" horiz-adv-x="624" d="M408 563H613V524H537L342 235V223H475V169H342V39H425V0H202V39H284V169H150V223H284V235L86 524H11V563H222V524H150L318 275L482 524H408V563Z" />
<glyph unicode="&#xa6;" glyph-name="brokenbar" horiz-adv-x="125" d="M40 293V593H85V293H40ZM40 -140V160H85V-140H40Z" />
<glyph unicode="&#xa7;" glyph-name="section" horiz-adv-x="452" d="M163 -75T128 -52T93 12Q93 31 103 40T132 50Q133 -48 240 -48Q290 -48 315 -25T341 40Q341 67 332 83T295 118T205 167Q133 203 106 231T79 305Q79 336 97 359T146 391Q97 428 97 490Q97 543
135 574T238 606Q303 606 336 580T369 515Q369 480 329 480Q323 579 237 579Q192 579 168 557T143 495Q143 467 154 450T184 420T254 381Q312 349 343 328T389 285T405 233Q405 201 392 174T353 131Q381 100 381 51Q381 -8 345 -41T236 -75Q163 -75 128 -52ZM360
174T360 219Q360 249 335 273T241 334Q170 372 165 375Q144 367 133 351T122 314Q122 289 132 273T164 244T236 204Q308 167 332 150Q360 174 360 219Z" />
<glyph unicode="&#xa8;" glyph-name="dieresis" horiz-adv-x="447" d="M119 469T110 478T100 503Q100 518 109 527T135 536Q151 536 160 527T169 503Q169 487 160 478T135 469Q119 469 110 478ZM296 469T287 478T277 502Q277 518 286 527T311 536Q327 536 336
527T346 502Q346 487 337 478T311 469Q296 469 287 478Z" />
<glyph unicode="&#xa9;" glyph-name="copyright" horiz-adv-x="744" d="M284 -18T212 21T99 131T58 287Q58 374 99 443T212 552T372 592Q460 592 532 553T645 444T686 287Q686 201 645 131T532 22T372 -18Q284 -18 212 21ZM447 18T508 53T605 150T640 287Q640
363 605 424T509 521T372 557Q297 557 236 522T139 425T104 287Q104 211 139 150T235 53T372 18Q447 18 508 53ZM324 101T282 124T216 190T191 288Q191 347 217 389T286 452T375 473Q413 473 443 460T489 422V464H525V353H490Q484 393 455 416T379 439Q343 439
310 422T256 371T235 288Q235 244 254 209T305 155T375 135Q414 135 448 150T508 196L528 171Q502 138 461 120T375 101Q324 101 282 124Z" />
<glyph unicode="&#xaa;" glyph-name="ordfeminine" horiz-adv-x="348" d="M75 257T48 283T20 347Q20 396 54 417T146 439Q177 439 231 431V466Q231 537 153 537Q126 537 98 530T48 507L32 538Q56 556 88 564T154 573Q216 573 246 544T277 471V297H328V263H234L232
293Q212 277 184 267T125 257Q75 257 48 283ZM158 291T184 300T231 326V401Q185 409 151 409Q65 409 65 348Q65 323 82 307T130 291Q158 291 184 300Z" />
<glyph unicode="&#xab;" glyph-name="guillemotleft" horiz-adv-x="408" d="M162 116L23 307L162 496H201L98 307L201 116H162ZM321 116L181 307L321 496H359L256 307L359 116H321Z" />
<glyph unicode="&#xac;" glyph-name="logicalnot" horiz-adv-x="483" d="M382 143V260H61V301H421L422 143H382Z" />
<glyph unicode="&#xad;" glyph-name="uni00AD" horiz-adv-x="385" d="M70 221V262H315V221H70Z" />
<glyph unicode="&#xae;" glyph-name="registered" horiz-adv-x="744" d="M270 -11T202 30T98 139T62 286Q62 365 97 433T201 543T364 584Q458 584 527 543T631 433T667 286Q667 207 632 139T527 30T364 -11Q270 -11 202 30ZM444 25T502 61T590 156T621 285Q621
354 591 414T502 511T364 548Q283 548 225 512T136 415T106 285Q106 215 136 156T224 61T364 25Q444 25 502 61ZM220 150H265V441H218V465H389Q439 465 467 441T495 374Q495 338 472 316T405 289L483 150H531V125H460L371 286H300V150H345V125H220V150ZM388 311Q422
311 441 327T460 374Q460 405 441 423T390 441H300V311H388Z" />
<glyph unicode="&#xaf;" glyph-name="overscore" horiz-adv-x="398" d="M100 477V511H298V477H100Z" />
<glyph unicode="&#xb0;" glyph-name="degree" horiz-adv-x="224" d="M64 385T33 417T2 494Q2 540 33 572T112 604Q160 604 191 572T222 494Q222 449 191 417T112 385Q64 385 33 417ZM145 415T166 438T187 495Q187 528 167 551T112 574Q79 574 58 551T37 494Q37
461 58 438T112 415Q145 415 166 438Z" />
<glyph unicode="&#xb1;" glyph-name="plusminus" horiz-adv-x="525" d="M240 139V318H61V358H240V531H286V358H464V318H286V139H240ZM61 51V91H464V51H61Z" />
<glyph unicode="&#xb2;" glyph-name="uni00B2" horiz-adv-x="282" d="M260 397V298H20V327L128 427Q175 471 194 496T213 552Q213 586 193 605T136 625Q97 625 76 600T54 535Q54 513 59 497H22Q16 518 16 540Q16 592 47 625T136 659Q189 659 221 631T254 554Q254
515 230 483T154 403L73 331H225V397H260Z" />
<glyph unicode="&#xb3;" glyph-name="uni00B3" horiz-adv-x="294" d="M234 469T254 444T274 384Q274 339 240 312T149 285Q102 285 67 306T19 362L51 381Q64 351 89 336T150 320Q188 320 210 338T232 389Q232 461 122 461V494Q222 494 222 560Q222 590 202 607T148
625Q116 625 92 610T55 568L23 585Q38 619 72 639T149 659Q201 659 232 634T263 565Q263 534 246 512T196 479Q234 469 254 444Z" />
<glyph unicode="&#xb4;" glyph-name="acute" horiz-adv-x="309" d="M100 480L149 615H209L133 480H100Z" />
<glyph unicode="&#xb5;" glyph-name="uni00B5" horiz-adv-x="522" d="M101 354H27V393H155V118Q155 80 176 57T239 33Q278 33 312 47T380 89V354H308V393H433V39H506V0H383L381 48Q305 -10 231 -10Q183 -10 155 16V-131H101V354Z" />
<glyph unicode="&#xb6;" glyph-name="paragraph" horiz-adv-x="507" d="M242 35H339V283H218Q167 283 131 303T77 356T58 425Q58 460 76 491T131 543T223 563H467V525H392V35H462V-5H242V35ZM247 326H339V525H247V326Z" />
<glyph unicode="&#xb7;" glyph-name="middot" horiz-adv-x="214" d="M89 230T77 241T64 270Q64 288 76 299T107 311Q125 311 137 300T149 270Q149 253 137 242T107 230Q89 230 77 241Z" />
<glyph unicode="&#xb8;" glyph-name="cedilla" horiz-adv-x="336" d="M136 -162T100 -145V-123Q130 -131 150 -131Q188 -131 188 -107Q188 -79 129 -78L160 0H185L168 -57Q202 -59 219 -73T236 -110Q236 -136 218 -149T171 -162Q136 -162 100 -145Z" />
<glyph unicode="&#xb9;" glyph-name="uni00B9" horiz-adv-x="200" d="M20 298V329H79V608L23 599L21 630L121 647V329H180V298H20Z" />
<glyph unicode="&#xba;" glyph-name="ordmasculine" horiz-adv-x="381" d="M121 257T76 299T30 416Q30 488 75 530T190 573Q260 573 305 531T351 416Q351 343 305 300T190 257Q121 257 76 299ZM238 295T270 327T302 416Q302 473 270 504T190 535Q142 535 111 504T79
415Q79 358 111 327T190 295Q238 295 270 327Z" />
<glyph unicode="&#xbb;" glyph-name="guillemotright" horiz-adv-x="408" d="M48 116L151 307L48 496H87L227 307L87 116H48ZM206 116L309 307L206 496H245L385 307L245 116H206Z" />
<glyph unicode="&#xbc;" glyph-name="onequarter" horiz-adv-x="634" d="M40 476V507H99V786L43 777L41 808L141 825V507H200V476H40ZM105 -1L482 565H523L147 -1H105ZM444 0V31H497V92H328L323 120L494 349H535V122H594V92H535V31H588V0H444ZM365 122H497V298L365 122Z" />
<glyph unicode="&#xbd;" glyph-name="onehalf" horiz-adv-x="683" d="M40 475V506H99V785L43 776L41 807L141 824V506H200V475H40ZM105 -1L482 565H523L147 -1H105ZM643 99V0H403V29L511 129Q558 173 577 198T596 254Q596 288 576 307T519 327Q480 327 459 302T437
237Q437 215 442 199H405Q399 220 399 242Q399 294 430 327T519 361Q572 361 604 333T637 256Q637 217 613 185T537 105L456 33H608V99H643Z" />
<glyph unicode="&#xbe;" glyph-name="threequarters" horiz-adv-x="710" d="M255 645T275 620T295 560Q295 515 261 488T170 461Q123 461 88 482T40 538L72 557Q85 527 110 512T171 496Q209 496 231 514T253 565Q253 637 143 637V670Q243 670 243 736Q243 766
223 783T169 801Q137 801 113 786T76 744L44 761Q59 795 93 815T170 835Q222 835 253 810T284 741Q284 710 267 688T217 655Q255 645 275 620ZM183 -1L560 565H601L225 -1H183ZM520 0V31H573V92H404L399 120L570 349H611V122H670V92H611V31H664V0H520ZM441 122H573V298L441
122Z" />
<glyph unicode="&#xbf;" glyph-name="questiondown" horiz-adv-x="353" d="M213 430T225 419T238 390Q238 373 226 362T195 350Q177 350 165 361T152 390Q152 407 164 418T195 430Q213 430 225 419ZM223 272Q223 235 213 208T187 159T138 104Q105 70 90 41T75
-25Q75 -70 101 -95T172 -120Q219 -120 247 -95T278 -23H337Q333 -88 287 -125T173 -162Q100 -162 57 -125T13 -27Q13 15 33 47T98 125Q137 165 152 194T167 272V280H223V272Z" />
<glyph unicode="&#xc0;" glyph-name="Agrave" horiz-adv-x="675" d="M34 0V39H108L284 524H218V563H459V524H390L569 39H640V0H433V39H507L441 225H229L163 39H237V0H34ZM241 264H429L337 522H333L241 264ZM320 650L244 785H304L353 650H320Z" />
<glyph unicode="&#xc1;" glyph-name="Aacute" horiz-adv-x="675" d="M34 0V39H108L284 524H218V563H459V524H390L569 39H640V0H433V39H507L441 225H229L163 39H237V0H34ZM241 264H429L337 522H333L241 264ZM323 650L372 785H432L356 650H323Z" />
<glyph unicode="&#xc2;" glyph-name="Acircumflex" horiz-adv-x="675" d="M34 0V39H108L284 524H218V563H459V524H390L569 39H640V0H433V39H507L441 225H229L163 39H237V0H34ZM241 264H429L337 522H333L241 264ZM228 621L312 775H365L448 621H407L338 748L269 621H228Z" />
<glyph unicode="&#xc3;" glyph-name="Atilde" horiz-adv-x="675" d="M34 0V39H108L284 524H218V563H459V524H390L569 39H640V0H433V39H507L441 225H229L163 39H237V0H34ZM241 264H429L337 522H333L241 264ZM382 646T368 651T330 667Q316 674 302 679T276 685Q250
685 246 648H220Q222 685 238 705T282 725Q303 725 345 704Q383 686 399 686Q427 686 431 723H456Q453 646 397 646Q382 646 368 651Z" />
<glyph unicode="&#xc4;" glyph-name="Adieresis" horiz-adv-x="675" d="M34 0V39H108L284 524H218V563H459V524H390L569 39H640V0H433V39H507L441 225H229L163 39H237V0H34ZM241 264H429L337 522H333L241 264ZM234 639T225 648T215 673Q215 688 224 697T250 706Q266
706 275 697T284 673Q284 657 275 648T250 639Q234 639 225 648ZM411 639T402 648T392 672Q392 688 401 697T426 706Q442 706 451 697T461 672Q461 657 452 648T426 639Q411 639 402 648Z" />
<glyph unicode="&#xc5;" glyph-name="Aring" horiz-adv-x="675" d="M34 0V39H108L284 524H218V563H459V524H390L569 39H640V0H433V39H507L441 225H229L163 39H237V0H34ZM241 264H429L337 522H333L241 264ZM306 614T287 632T268 679Q268 709 286 727T338 746Q370
746 389 728T408 681Q408 651 389 633T338 614Q306 614 287 632ZM358 637T369 649T381 681Q381 699 370 710T338 722Q318 722 307 711T295 681Q295 662 306 650T338 637Q358 637 369 649Z" />
<glyph unicode="&#xc6;" glyph-name="AE" horiz-adv-x="974" d="M26 0V39H107L394 524H329V563H855L872 379H827L811 524H513L536 303H729L721 377H753L775 182H742L732 262H538L560 39H875L860 184H906L924 0H424V39H501L484 208H266L170 39H240V0H26ZM285 245H482L454
524H447L285 245Z" />
<glyph unicode="&#xc7;" glyph-name="Ccedilla" horiz-adv-x="674" d="M570 62T506 27T353 -11L339 -57Q373 -59 390 -73T407 -110Q407 -136 389 -149T342 -162Q307 -162 271 -145V-123Q301 -131 321 -131Q359 -131 359 -107Q359 -79 300 -78L327 -10Q251 -5 189
31T90 131T53 283Q53 365 89 431T193 535T347 573Q492 573 555 469V563H600V399L561 395Q526 465 476 497T349 529Q277 529 223 496T141 407T112 283Q112 206 144 149T231 63T349 33Q420 33 477 63T565 162L607 140Q570 62 506 27Z" />
<glyph unicode="&#xc8;" glyph-name="Egrave" horiz-adv-x="589" d="M48 0V39H129V524H48V563H525V399H478V524H188V310H377V383H410V193H377V269H188V39H486V167H533V0H48ZM300 650L224 785H284L333 650H300Z" />
<glyph unicode="&#xc9;" glyph-name="Eacute" horiz-adv-x="589" d="M48 0V39H129V524H48V563H525V399H478V524H188V310H377V383H410V193H377V269H188V39H486V167H533V0H48ZM303 650L352 785H412L336 650H303Z" />
<glyph unicode="&#xca;" glyph-name="Ecircumflex" horiz-adv-x="589" d="M48 0V39H129V524H48V563H525V399H478V524H188V310H377V383H410V193H377V269H188V39H486V167H533V0H48ZM208 621L292 775H345L428 621H387L318 748L249 621H208Z" />
<glyph unicode="&#xcb;" glyph-name="Edieresis" horiz-adv-x="589" d="M48 0V39H129V524H48V563H525V399H478V524H188V310H377V383H410V193H377V269H188V39H486V167H533V0H48ZM214 639T205 648T195 673Q195 688 204 697T230 706Q246 706 255 697T264 673Q264
657 255 648T230 639Q214 639 205 648ZM391 639T382 648T372 672Q372 688 381 697T406 706Q422 706 431 697T441 672Q441 657 432 648T406 639Q391 639 382 648Z" />
<glyph unicode="&#xcc;" glyph-name="Igrave" horiz-adv-x="327" d="M52 0V39H133V524H52V563H274V524H192V39H274V0H52ZM146 650L70 785H130L179 650H146Z" />
<glyph unicode="&#xcd;" glyph-name="Iacute" horiz-adv-x="327" d="M52 0V39H133V524H52V563H274V524H192V39H274V0H52ZM149 650L198 785H258L182 650H149Z" />
<glyph unicode="&#xce;" glyph-name="Icircumflex" horiz-adv-x="327" d="M52 0V39H133V524H52V563H274V524H192V39H274V0H52ZM54 621L138 775H191L274 621H233L164 748L95 621H54Z" />
<glyph unicode="&#xcf;" glyph-name="Idieresis" horiz-adv-x="327" d="M52 0V39H133V524H52V563H274V524H192V39H274V0H52ZM60 639T51 648T41 673Q41 688 50 697T76 706Q92 706 101 697T110 673Q110 657 101 648T76 639Q60 639 51 648ZM237 639T228 648T218 672Q218
688 227 697T252 706Q268 706 277 697T287 672Q287 657 278 648T252 639Q237 639 228 648Z" />
<glyph unicode="&#xd0;" glyph-name="Eth" horiz-adv-x="690" d="M455 563T515 523T606 418T636 284Q636 207 606 143T515 39T370 0H49V39H130V267H49V308H130V524H49V563H368Q455 563 515 523ZM433 39T481 72T552 161T576 282Q576 344 553 399T482 489T366 524H189V308H294V267H189V39H363Q433
39 481 72Z" />
<glyph unicode="&#xd1;" glyph-name="Ntilde" horiz-adv-x="704" d="M51 0V39H128V524H51V563H192L555 79V524H477V563H673V524H602V0H543L175 496V39H251V0H51ZM395 646T381 651T343 667Q329 674 315 679T289 685Q263 685 259 648H233Q235 685 251 705T295 725Q316
725 358 704Q396 686 412 686Q440 686 444 723H469Q466 646 410 646Q395 646 381 651Z" />
<glyph unicode="&#xd2;" glyph-name="Ograve" horiz-adv-x="709" d="M262 -11T194 29T90 137T54 280Q54 357 90 424T194 532T354 573Q447 573 515 532T619 424T655 280Q655 203 620 137T516 30T354 -11Q262 -11 194 29ZM429 33T483 67T565 157T593 280Q593 345
565 402T483 495T354 530Q279 530 226 495T145 403T117 279Q117 212 144 156T224 67T354 33Q429 33 483 67ZM335 650L259 785H319L368 650H335Z" />
<glyph unicode="&#xd3;" glyph-name="Oacute" horiz-adv-x="709" d="M262 -11T194 29T90 137T54 280Q54 357 90 424T194 532T354 573Q447 573 515 532T619 424T655 280Q655 203 620 137T516 30T354 -11Q262 -11 194 29ZM429 33T483 67T565 157T593 280Q593 345
565 402T483 495T354 530Q279 530 226 495T145 403T117 279Q117 212 144 156T224 67T354 33Q429 33 483 67ZM338 650L387 785H447L371 650H338Z" />
<glyph unicode="&#xd4;" glyph-name="Ocircumflex" horiz-adv-x="709" d="M262 -11T194 29T90 137T54 280Q54 357 90 424T194 532T354 573Q447 573 515 532T619 424T655 280Q655 203 620 137T516 30T354 -11Q262 -11 194 29ZM429 33T483 67T565 157T593 280Q593
345 565 402T483 495T354 530Q279 530 226 495T145 403T117 279Q117 212 144 156T224 67T354 33Q429 33 483 67ZM243 621L327 775H380L463 621H422L353 748L284 621H243Z" />
<glyph unicode="&#xd5;" glyph-name="Otilde" horiz-adv-x="709" d="M262 -11T194 29T90 137T54 280Q54 357 90 424T194 532T354 573Q447 573 515 532T619 424T655 280Q655 203 620 137T516 30T354 -11Q262 -11 194 29ZM429 33T483 67T565 157T593 280Q593 345
565 402T483 495T354 530Q279 530 226 495T145 403T117 279Q117 212 144 156T224 67T354 33Q429 33 483 67ZM397 646T383 651T345 667Q331 674 317 679T291 685Q265 685 261 648H235Q237 685 253 705T297 725Q318 725 360 704Q398 686 414 686Q442 686 446 723H471Q468
646 412 646Q397 646 383 651Z" />
<glyph unicode="&#xd6;" glyph-name="Odieresis" horiz-adv-x="709" d="M262 -11T194 29T90 137T54 280Q54 357 90 424T194 532T354 573Q447 573 515 532T619 424T655 280Q655 203 620 137T516 30T354 -11Q262 -11 194 29ZM429 33T483 67T565 157T593 280Q593
345 565 402T483 495T354 530Q279 530 226 495T145 403T117 279Q117 212 144 156T224 67T354 33Q429 33 483 67ZM249 639T240 648T230 673Q230 688 239 697T265 706Q281 706 290 697T299 673Q299 657 290 648T265 639Q249 639 240 648ZM426 639T417 648T407 672Q407
688 416 697T441 706Q457 706 466 697T476 672Q476 657 467 648T441 639Q426 639 417 648Z" />
<glyph unicode="&#xd7;" glyph-name="multiply" horiz-adv-x="456" d="M55 77L24 107L197 280L28 450L58 480L228 311L401 484L432 453L258 280L428 111L397 81L228 250L55 77Z" />
<glyph unicode="&#xd8;" glyph-name="Oslash" horiz-adv-x="655" d="M576 462T602 403T628 278Q628 201 593 135T489 28T327 -13Q232 -13 161 31L109 -36L80 -16L132 51Q82 93 55 152T27 278Q27 355 63 422T167 530T327 571Q426 571 500 523L555 594L583 575L527
503Q576 462 602 403ZM90 222T108 174T163 91L469 484Q409 528 327 528Q252 528 199 493T118 401T90 277Q90 222 108 174ZM402 31T456 65T538 155T566 278Q566 331 548 379T495 462L190 69Q247 31 327 31Q402 31 456 65Z" />
<glyph unicode="&#xd9;" glyph-name="Ugrave" horiz-adv-x="696" d="M232 -10T170 46T108 195V524H34V563H242V524H167V189Q167 118 216 76T348 34Q437 34 490 76T543 189V524H469V563H670V524H594V190Q594 95 526 43T347 -10Q232 -10 170 46ZM336 650L260 785H320L369
650H336Z" />
<glyph unicode="&#xda;" glyph-name="Uacute" horiz-adv-x="696" d="M232 -10T170 46T108 195V524H34V563H242V524H167V189Q167 118 216 76T348 34Q437 34 490 76T543 189V524H469V563H670V524H594V190Q594 95 526 43T347 -10Q232 -10 170 46ZM339 650L388 785H448L372
650H339Z" />
<glyph unicode="&#xdb;" glyph-name="Ucircumflex" horiz-adv-x="696" d="M232 -10T170 46T108 195V524H34V563H242V524H167V189Q167 118 216 76T348 34Q437 34 490 76T543 189V524H469V563H670V524H594V190Q594 95 526 43T347 -10Q232 -10 170 46ZM244 621L328
775H381L464 621H423L354 748L285 621H244Z" />
<glyph unicode="&#xdc;" glyph-name="Udieresis" horiz-adv-x="696" d="M232 -10T170 46T108 195V524H34V563H242V524H167V189Q167 118 216 76T348 34Q437 34 490 76T543 189V524H469V563H670V524H594V190Q594 95 526 43T347 -10Q232 -10 170 46ZM250 639T241
648T231 673Q231 688 240 697T266 706Q282 706 291 697T300 673Q300 657 291 648T266 639Q250 639 241 648ZM427 639T418 648T408 672Q408 688 417 697T442 706Q458 706 467 697T477 672Q477 657 468 648T442 639Q427 639 418 648Z" />
<glyph unicode="&#xdd;" glyph-name="Yacute" horiz-adv-x="624" d="M202 0V39H284V235L86 524H11V563H222V524H150L318 275L482 524H408V563H613V524H537L342 235V39H425V0H202ZM302 650L351 785H411L335 650H302Z" />
<glyph unicode="&#xde;" glyph-name="Thorn" horiz-adv-x="567" d="M425 446T471 409T518 306Q518 237 473 200T344 163H232V199H344Q399 199 430 227T461 306Q461 354 429 381T341 408H192V39H274V0H52V39H133V524H52V563H274V524H192V446H341Q425 446 471 409Z" />
<glyph unicode="&#xdf;" glyph-name="germandbls" horiz-adv-x="526" d="M422 313T460 274T498 169Q498 82 440 41T273 0V41Q441 41 441 170Q441 299 275 299H266V339H275Q329 340 358 368T387 444Q387 489 360 515T281 541Q220 541 188 503T155 396V41H214V0H23V41H97V392Q97
483 145 533T279 583Q354 583 397 546T441 448Q441 403 418 370T353 324Q422 313 460 274Z" />
<glyph unicode="&#xe0;" glyph-name="agrave" horiz-adv-x="450" d="M429 39V0H322L317 38Q280 13 246 1T173 -11Q113 -11 76 22T39 106Q39 169 80 197T188 225Q244 225 314 210V260Q314 311 287 337T211 363Q181 363 144 354T75 328L59 365Q94 383 135 393T210
403Q288 403 327 365T367 267V39H429ZM91 73T115 50T180 27Q212 27 243 38T314 74V177Q249 192 191 192Q147 192 119 173T91 108Q91 73 115 50ZM199 480L123 615H183L232 480H199Z" />
<glyph unicode="&#xe1;" glyph-name="aacute" horiz-adv-x="450" d="M429 39V0H322L317 38Q280 13 246 1T173 -11Q113 -11 76 22T39 106Q39 169 80 197T188 225Q244 225 314 210V260Q314 311 287 337T211 363Q181 363 144 354T75 328L59 365Q94 383 135 393T210
403Q288 403 327 365T367 267V39H429ZM91 73T115 50T180 27Q212 27 243 38T314 74V177Q249 192 191 192Q147 192 119 173T91 108Q91 73 115 50ZM202 480L251 615H311L235 480H202Z" />
<glyph unicode="&#xe2;" glyph-name="acircumflex" horiz-adv-x="450" d="M429 39V0H322L317 38Q280 13 246 1T173 -11Q113 -11 76 22T39 106Q39 169 80 197T188 225Q244 225 314 210V260Q314 311 287 337T211 363Q181 363 144 354T75 328L59 365Q94 383 135 393T210
403Q288 403 327 365T367 267V39H429ZM91 73T115 50T180 27Q212 27 243 38T314 74V177Q249 192 191 192Q147 192 119 173T91 108Q91 73 115 50ZM107 451L191 605H244L327 451H286L217 578L148 451H107Z" />
<glyph unicode="&#xe3;" glyph-name="atilde" horiz-adv-x="450" d="M429 39V0H322L317 38Q280 13 246 1T173 -11Q113 -11 76 22T39 106Q39 169 80 197T188 225Q244 225 314 210V260Q314 311 287 337T211 363Q181 363 144 354T75 328L59 365Q94 383 135 393T210
403Q288 403 327 365T367 267V39H429ZM91 73T115 50T180 27Q212 27 243 38T314 74V177Q249 192 191 192Q147 192 119 173T91 108Q91 73 115 50ZM261 476T247 481T209 497Q195 504 181 509T155 515Q129 515 125 478H99Q101 515 117 535T161 555Q182 555 224 534Q262
516 278 516Q306 516 310 553H335Q332 476 276 476Q261 476 247 481Z" />
<glyph unicode="&#xe4;" glyph-name="adieresis" horiz-adv-x="450" d="M429 39V0H322L317 38Q280 13 246 1T173 -11Q113 -11 76 22T39 106Q39 169 80 197T188 225Q244 225 314 210V260Q314 311 287 337T211 363Q181 363 144 354T75 328L59 365Q94 383 135 393T210
403Q288 403 327 365T367 267V39H429ZM91 73T115 50T180 27Q212 27 243 38T314 74V177Q249 192 191 192Q147 192 119 173T91 108Q91 73 115 50ZM113 469T104 478T94 503Q94 518 103 527T129 536Q145 536 154 527T163 503Q163 487 154 478T129 469Q113 469 104 478ZM290
469T281 478T271 502Q271 518 280 527T305 536Q321 536 330 527T340 502Q340 487 331 478T305 469Q290 469 281 478Z" />
<glyph unicode="&#xe5;" glyph-name="aring" horiz-adv-x="450" d="M429 39V0H322L317 38Q280 13 246 1T173 -11Q113 -11 76 22T39 106Q39 169 80 197T188 225Q244 225 314 210V260Q314 311 287 337T211 363Q181 363 144 354T75 328L59 365Q94 383 135 393T210
403Q288 403 327 365T367 267V39H429ZM91 73T115 50T180 27Q212 27 243 38T314 74V177Q249 192 191 192Q147 192 119 173T91 108Q91 73 115 50ZM185 444T166 462T147 509Q147 539 165 557T217 576Q249 576 268 558T287 511Q287 481 268 463T217 444Q185 444 166
462ZM237 467T248 479T260 511Q260 529 249 540T217 552Q197 552 186 541T174 511Q174 492 185 480T217 467Q237 467 248 479Z" />
<glyph unicode="&#xe6;" glyph-name="ae" horiz-adv-x="754" d="M116 -11T78 21T39 103Q39 163 84 191T202 219H314V260Q314 311 287 337T211 363Q181 363 144 354T75 328L59 365Q94 383 135 393T210 403Q268 403 303 380T353 318Q379 359 424 381T520 404Q606
404 658 350T711 198V185H369Q374 115 418 73T528 30Q572 30 614 49T684 98L703 63Q669 28 625 8T529 -12Q474 -12 427 11T352 76Q286 -11 178 -11Q116 -11 78 21ZM658 219Q658 288 619 326T520 364Q459 364 417 325T369 219H658ZM230 27T268 47T332 109Q317 144
314 185H205Q155 185 123 166T91 105Q91 69 115 48T185 27Q230 27 268 47Z" />
<glyph unicode="&#xe7;" glyph-name="ccedilla" horiz-adv-x="468" d="M173 362T128 316T83 199Q83 125 127 79T241 32Q288 32 322 49T390 101L412 68Q347 -9 240 -10L226 -57Q260 -59 277 -73T294 -110Q294 -136 276 -149T229 -162Q194 -162 158 -145V-123Q188
-131 208 -131Q246 -131 246 -107Q246 -79 187 -78L214 -9Q131 -1 80 56T28 199Q28 258 54 305T126 378T232 404Q276 404 311 387T365 342V394H412V265H370Q362 309 328 335T243 362Q173 362 128 316Z" />
<glyph unicode="&#xe8;" glyph-name="egrave" horiz-adv-x="467" d="M424 185H83Q88 115 131 73T241 30Q285 30 327 49T397 98L416 63Q383 28 339 8T243 -12Q184 -12 135 14T56 87T27 196Q27 260 55 307T129 379T232 404Q318 404 371 350T424 198V185ZM371 219Q371
288 331 326T232 364Q172 364 130 325T83 219H371ZM219 480L143 615H203L252 480H219Z" />
<glyph unicode="&#xe9;" glyph-name="eacute" horiz-adv-x="467" d="M424 185H83Q88 115 131 73T241 30Q285 30 327 49T397 98L416 63Q383 28 339 8T243 -12Q184 -12 135 14T56 87T27 196Q27 260 55 307T129 379T232 404Q318 404 371 350T424 198V185ZM371 219Q371
288 331 326T232 364Q172 364 130 325T83 219H371ZM222 480L271 615H331L255 480H222Z" />
<glyph unicode="&#xea;" glyph-name="ecircumflex" horiz-adv-x="467" d="M424 185H83Q88 115 131 73T241 30Q285 30 327 49T397 98L416 63Q383 28 339 8T243 -12Q184 -12 135 14T56 87T27 196Q27 260 55 307T129 379T232 404Q318 404 371 350T424 198V185ZM371
219Q371 288 331 326T232 364Q172 364 130 325T83 219H371ZM127 451L211 605H264L347 451H306L237 578L168 451H127Z" />
<glyph unicode="&#xeb;" glyph-name="edieresis" horiz-adv-x="467" d="M424 185H83Q88 115 131 73T241 30Q285 30 327 49T397 98L416 63Q383 28 339 8T243 -12Q184 -12 135 14T56 87T27 196Q27 260 55 307T129 379T232 404Q318 404 371 350T424 198V185ZM371
219Q371 288 331 326T232 364Q172 364 130 325T83 219H371ZM133 469T124 478T114 503Q114 518 123 527T149 536Q165 536 174 527T183 503Q183 487 174 478T149 469Q133 469 124 478ZM310 469T301 478T291 502Q291 518 300 527T325 536Q341 536 350 527T360 502Q360
487 351 478T325 469Q310 469 301 478Z" />
<glyph unicode="&#xec;" glyph-name="igrave" horiz-adv-x="253" d="M20 0V39H101V354H21V393H154V39H231V0H20ZM101 480L25 615H85L134 480H101Z" />
<glyph unicode="&#xed;" glyph-name="iacute" horiz-adv-x="253" d="M20 0V39H101V354H21V393H154V39H231V0H20ZM104 480L153 615H213L137 480H104Z" />
<glyph unicode="&#xee;" glyph-name="icircumflex" horiz-adv-x="253" d="M20 0V39H101V354H21V393H154V39H231V0H20ZM9 451L93 605H146L229 451H188L119 578L50 451H9Z" />
<glyph unicode="&#xef;" glyph-name="idieresis" horiz-adv-x="253" d="M20 0V39H101V354H21V393H154V39H231V0H20ZM15 469T6 478T-4 503Q-4 518 5 527T31 536Q47 536 56 527T65 503Q65 487 56 478T31 469Q15 469 6 478ZM192 469T183 478T173 502Q173 518 182
527T207 536Q223 536 232 527T242 502Q242 487 233 478T207 469Q192 469 183 478Z" />
<glyph unicode="&#xf0;" glyph-name="eth" horiz-adv-x="461" d="M342 440T384 362T426 194Q426 133 400 87T330 15T230 -10Q167 -10 123 16T56 87T33 184Q33 241 56 285T123 355T223 380Q267 380 300 365T352 328Q314 409 228 495L99 438L82 473L198 524Q150
569 70 633L97 666Q197 584 241 542L366 597L384 564L270 514Q342 440 384 362ZM303 34T339 80T375 191Q375 261 334 300T229 339Q168 339 127 298T86 186Q86 123 123 79T230 34Q303 34 339 80Z" />
<glyph unicode="&#xf1;" glyph-name="ntilde" horiz-adv-x="508" d="M506 39V0H304V39H378V272Q378 314 356 337T294 361Q237 361 154 313V39H231V0H20V39H101V354H21V393H154V351Q241 403 307 403Q362 403 397 369T432 276V39H506ZM318 476T304 481T266 497Q252
504 238 509T212 515Q186 515 182 478H156Q158 515 174 535T218 555Q239 555 281 534Q319 516 335 516Q363 516 367 553H392Q389 476 333 476Q318 476 304 481Z" />
<glyph unicode="&#xf2;" glyph-name="ograve" horiz-adv-x="478" d="M176 -12T128 14T54 88T27 198Q27 259 53 305T128 378T238 404Q300 404 348 378T424 306T451 198Q451 136 424 89T349 15T238 -12Q176 -12 128 14ZM309 30T352 76T396 198Q396 271 353 316T238
362Q168 362 125 317T82 198Q82 123 125 77T238 30Q309 30 352 76ZM219 480L143 615H203L252 480H219Z" />
<glyph unicode="&#xf3;" glyph-name="oacute" horiz-adv-x="478" d="M176 -12T128 14T54 88T27 198Q27 259 53 305T128 378T238 404Q300 404 348 378T424 306T451 198Q451 136 424 89T349 15T238 -12Q176 -12 128 14ZM309 30T352 76T396 198Q396 271 353 316T238
362Q168 362 125 317T82 198Q82 123 125 77T238 30Q309 30 352 76ZM222 480L271 615H331L255 480H222Z" />
<glyph unicode="&#xf4;" glyph-name="ocircumflex" horiz-adv-x="478" d="M176 -12T128 14T54 88T27 198Q27 259 53 305T128 378T238 404Q300 404 348 378T424 306T451 198Q451 136 424 89T349 15T238 -12Q176 -12 128 14ZM309 30T352 76T396 198Q396 271 353
316T238 362Q168 362 125 317T82 198Q82 123 125 77T238 30Q309 30 352 76ZM127 451L211 605H264L347 451H306L237 578L168 451H127Z" />
<glyph unicode="&#xf5;" glyph-name="otilde" horiz-adv-x="478" d="M176 -12T128 14T54 88T27 198Q27 259 53 305T128 378T238 404Q300 404 348 378T424 306T451 198Q451 136 424 89T349 15T238 -12Q176 -12 128 14ZM309 30T352 76T396 198Q396 271 353 316T238
362Q168 362 125 317T82 198Q82 123 125 77T238 30Q309 30 352 76ZM281 476T267 481T229 497Q215 504 201 509T175 515Q149 515 145 478H119Q121 515 137 535T181 555Q202 555 244 534Q282 516 298 516Q326 516 330 553H355Q352 476 296 476Q281 476 267 481Z"
/>
<glyph unicode="&#xf6;" glyph-name="odieresis" horiz-adv-x="478" d="M176 -12T128 14T54 88T27 198Q27 259 53 305T128 378T238 404Q300 404 348 378T424 306T451 198Q451 136 424 89T349 15T238 -12Q176 -12 128 14ZM309 30T352 76T396 198Q396 271 353 316T238
362Q168 362 125 317T82 198Q82 123 125 77T238 30Q309 30 352 76ZM133 469T124 478T114 503Q114 518 123 527T149 536Q165 536 174 527T183 503Q183 487 174 478T149 469Q133 469 124 478ZM310 469T301 478T291 502Q291 518 300 527T325 536Q341 536 350 527T360
502Q360 487 351 478T325 469Q310 469 301 478Z" />
<glyph unicode="&#xf7;" glyph-name="divide" horiz-adv-x="520" d="M227 405V487H293V405H227ZM61 260V301H458V260H61ZM227 74V155H293V74H227Z" />
<glyph unicode="&#xf8;" glyph-name="oslash" horiz-adv-x="489" d="M404 344T427 299T451 198Q451 136 424 89T349 15T238 -12Q192 -12 150 4L110 -66L84 -52L124 17Q78 44 53 90T27 198Q27 259 53 305T128 378T238 404Q290 404 336 385L374 451L400 437L362
371Q404 344 427 299ZM82 152T99 116T147 57L313 345Q279 362 238 362Q168 362 125 317T82 198Q82 152 99 116ZM309 30T352 76T396 198Q396 240 381 274T338 330L173 43Q200 30 238 30Q309 30 352 76Z" />
<glyph unicode="&#xf9;" glyph-name="ugrave" horiz-adv-x="506" d="M491 39V0H367L365 48Q291 -10 211 -10Q145 -10 115 26T85 114V354H14V393H139V118Q139 80 159 57T221 33Q261 33 295 47T364 89V354H292V393H418V39H491ZM221 480L145 615H205L254 480H221Z" />
<glyph unicode="&#xfa;" glyph-name="uacute" horiz-adv-x="506" d="M491 39V0H367L365 48Q291 -10 211 -10Q145 -10 115 26T85 114V354H14V393H139V118Q139 80 159 57T221 33Q261 33 295 47T364 89V354H292V393H418V39H491ZM224 480L273 615H333L257 480H224Z" />
<glyph unicode="&#xfb;" glyph-name="ucircumflex" horiz-adv-x="506" d="M491 39V0H367L365 48Q291 -10 211 -10Q145 -10 115 26T85 114V354H14V393H139V118Q139 80 159 57T221 33Q261 33 295 47T364 89V354H292V393H418V39H491ZM129 451L213 605H266L349 451H308L239
578L170 451H129Z" />
<glyph unicode="&#xfc;" glyph-name="udieresis" horiz-adv-x="506" d="M491 39V0H367L365 48Q291 -10 211 -10Q145 -10 115 26T85 114V354H14V393H139V118Q139 80 159 57T221 33Q261 33 295 47T364 89V354H292V393H418V39H491ZM135 469T126 478T116 503Q116 518
125 527T151 536Q167 536 176 527T185 503Q185 487 176 478T151 469Q135 469 126 478ZM312 469T303 478T293 502Q293 518 302 527T327 536Q343 536 352 527T362 502Q362 487 353 478T327 469Q312 469 303 478Z" />
<glyph unicode="&#xfd;" glyph-name="yacute" horiz-adv-x="521" d="M107 -98H150Q179 -98 194 -94T219 -77T241 -37L266 27H241L91 354H15V393H210V354H146L277 59L397 354H323V393H515V354H451L290 -34Q272 -78 258 -99T220 -132T153 -143H107V-98ZM252 480L301
615H361L285 480H252Z" />
<glyph unicode="&#xfe;" glyph-name="thorn" d="M24 -117H92V522H18V563H146V351Q180 378 219 392T297 407Q383 407 437 354T492 206Q492 141 466 93T393 20T287 -6Q249 -6 212 9T146 52V-117H214V-157H24V-117ZM350 35T393 79T436 200Q436 277 395 321T285 366Q251
366 215 351T146 308V92Q173 65 208 50T279 35Q350 35 393 79Z" />
<glyph unicode="&#xff;" glyph-name="ydieresis" horiz-adv-x="521" d="M107 -98H150Q179 -98 194 -94T219 -77T241 -37L266 27H241L91 354H15V393H210V354H146L277 59L397 354H323V393H515V354H451L290 -34Q272 -78 258 -99T220 -132T153 -143H107V-98ZM163 469T154
478T144 503Q144 518 153 527T179 536Q195 536 204 527T213 503Q213 487 204 478T179 469Q163 469 154 478ZM340 469T331 478T321 502Q321 518 330 527T355 536Q371 536 380 527T390 502Q390 487 381 478T355 469Q340 469 331 478Z" />
<glyph unicode="&#x2013;" glyph-name="endash" horiz-adv-x="622" d="M0 221V262H622V221H0Z" />
<glyph unicode="&#x2014;" glyph-name="emdash" horiz-adv-x="706" d="M0 221V262H706V221H0Z" />
<glyph unicode="&#x2018;" glyph-name="quoteleft" horiz-adv-x="166" d="M135 562Q110 559 101 545T92 496H133V419H57V484Q57 538 75 565T135 592V562Z" />
<glyph unicode="&#x2019;" glyph-name="quoteright" horiz-adv-x="166" d="M31 449Q56 452 65 466T74 515H33V592H109V527Q109 473 91 446T31 419V449Z" />
<glyph unicode="&#x201a;" glyph-name="quotesinglbase" horiz-adv-x="166" d="M287 -66Q312 -63 321 -49T330 0H289V77H365V12Q365 -42 347 -69T287 -96V-66Z" />
<glyph unicode="&#x201c;" glyph-name="quotedblleft" horiz-adv-x="284" d="M135 562Q110 559 101 545T92 496H133V419H57V484Q57 538 75 565T135 592V562ZM253 562Q228 559 219 545T210 496H251V419H175V484Q175 538 193 565T253 592V562Z" />
<glyph unicode="&#x201d;" glyph-name="quotedblright" horiz-adv-x="284" d="M31 449Q56 452 65 466T74 515H33V592H109V527Q109 473 91 446T31 419V449ZM149 449Q174 452 183 466T192 515H151V592H227V527Q227 473 209 446T149 419V449Z" />
<glyph unicode="&#x201e;" glyph-name="quotedblbase" horiz-adv-x="283" d="M287 -66Q312 -63 321 -49T330 0H289V77H365V12Q365 -42 347 -69T287 -96V-66ZM148 -66Q173 -63 182 -49T191 0H150V77H226V12Q226 -42 208 -69T148 -96V-66Z" />
<glyph unicode="&#x2022;" glyph-name="bullet" horiz-adv-x="229" d="M78 166T54 191T29 248Q29 282 53 306T114 330Q153 330 176 307T200 248Q200 213 176 190T114 166Q78 166 54 191Z" />
<glyph unicode="&#x2039;" glyph-name="guilsinglleft" horiz-adv-x="243" d="M147 116L7 307L147 496H185L82 307L185 116H147Z" />
<glyph unicode="&#x203a;" glyph-name="guilsinglright" horiz-adv-x="243" d="M58 116L161 307L58 496H96L236 307L96 116H58Z" />
</font>
</defs>
</svg>
