<?xml version="1.0" standalone="no"?>
<!DOCTYPE svg PUBLIC "-//W3C//DTD SVG 1.1//EN" "http://www.w3.org/Graphics/SVG/1.1/DTD/svg11.dtd">
<svg xmlns="http://www.w3.org/2000/svg">
<defs >
<font id="ProstoOne" horiz-adv-x="665" ><font-face
    font-family="Prosto One"
    units-per-em="1000"
    panose-1="2 0 5 5 6 0 0 2 0 4"
    ascent="940"
    descent="-295"
    alphabetic="0" />
<glyph unicode=" " glyph-name="space" horiz-adv-x="350" />
<glyph unicode="!" glyph-name="exclam" horiz-adv-x="280" d="M75 200L60 700H220L206 200H75ZM215 65Q215 35 195 13T140 -10Q106 -10 86 12T65 65Q65 95 85 117T140 140Q173 140 194 118T215 65Z" />
<glyph unicode="&quot;" glyph-name="quotedbl" horiz-adv-x="370" d="M50 470L20 700H160L130 470H50ZM240 470L210 700H350L320 470H240Z" />
<glyph unicode="#" glyph-name="numbersign" horiz-adv-x="800" d="M294 245H485L507 435H316L294 245ZM516 510L539 700H678L656 510H780L771 435H647L625 245H749L740 170H616L596 0H456L476 170H285L265 0H125L145 170H20L29 245H154L176 435H51L60 510H185L207
700H347L325 510H516Z" />
<glyph unicode="$" glyph-name="dollar" horiz-adv-x="750" d="M720 185Q720 145 705 110T655 47T565 3T430 -18V-100H320V-17Q231 -9 155 20T30 95L80 155Q137 106 213 81T380 55Q481 55 523 82T565 155Q565 196 532 223T420 275L230 335Q136 365 88 411T40 530Q40
566 56 599T106 658T193 700T320 719V800H430V714Q506 703 573 675T685 605L635 545Q578 594 507 619T345 645Q270 645 233 620T195 560Q195 537 202 521T225 491T269 465T336 440L525 380Q616 351 668 304T720 185Z" />
<glyph unicode="%" glyph-name="percent" horiz-adv-x="845" d="M745 700L245 0H100L600 700H745ZM640 310Q677 310 709 300T765 269T801 217T815 145Q815 104 802 73T765 22T710 -9T640 -20Q602 -20 570 -10T515 21T479 73T465 145Q465 186 478 217T515 268T570
299T640 310ZM640 35Q666 35 685 60T705 145Q705 205 686 230T640 255Q614 255 595 230T575 145Q575 85 594 60T640 35ZM205 720Q242 720 274 710T330 679T366 627T380 555Q380 514 367 483T330 432T275 401T205 390Q167 390 135 400T80 431T44 483T30 555Q30 596
43 627T80 678T135 709T205 720ZM205 445Q231 445 250 470T270 555Q270 615 251 640T205 665Q179 665 160 640T140 555Q140 495 159 470T205 445Z" />
<glyph unicode="&amp;" glyph-name="ampersand" horiz-adv-x="755" d="M80 550Q80 586 95 617T141 671T219 707T330 720Q394 720 441 707T519 671T565 617T580 550Q580 514 566 484T529 429T475 383T410 345L580 205Q595 235 605 272T615 350H715Q715 290 700
239T655 145L745 70L675 -20L575 60Q526 22 460 1T315 -20Q242 -20 189 -5T100 36T47 94T30 160Q30 199 44 229T82 284T137 326T205 360Q181 379 158 399T118 442T91 491T80 550ZM335 50Q388 50 432 67T510 114L290 295Q245 272 215 237T185 160Q185 139 195 120T224
85T271 60T335 50ZM330 415Q375 441 402 476T430 550Q430 599 403 627T330 655Q285 655 258 627T230 550Q230 512 257 477T330 415Z" />
<glyph unicode="&apos;" glyph-name="quotesingle" horiz-adv-x="180" d="M50 470L20 700H160L130 470H50Z" />
<glyph unicode="(" glyph-name="parenleft" horiz-adv-x="315" d="M195 300Q195 165 225 63T315 -130L275 -165Q166 -71 108 50T50 300Q50 428 108 549T275 765L315 730Q255 640 225 538T195 300Z" />
<glyph unicode=")" glyph-name="parenright" horiz-adv-x="315" d="M120 300Q120 435 90 537T0 730L40 765Q149 671 207 550T265 300Q265 172 207 51T40 -165L0 -130Q60 -40 90 62T120 300Z" />
<glyph unicode="*" glyph-name="asterisk" horiz-adv-x="500" d="M40 580L85 660L205 590V720H295V590L415 660L460 580L342 513L460 445L415 365L295 435V305H205V435L85 365L40 445L155 513L40 580Z" />
<glyph unicode="+" glyph-name="plus" horiz-adv-x="540" d="M510 280H320V90H220V280H30V370H220V560H320V370H510V280Z" />
<glyph unicode="," glyph-name="comma" horiz-adv-x="255" d="M205 45Q205 6 193 -22T162 -69T119 -96T70 -105V-70Q96 -70 118 -53T145 -5Q142 -7 138 -8Q130 -10 120 -10Q90 -10 70 12T50 65Q50 95 70 117T125 140Q163 140 184 112T205 45Z" />
<glyph unicode="-" glyph-name="hyphen" horiz-adv-x="540" d="M500 280H40V370H500V280Z" />
<glyph unicode="." glyph-name="period" horiz-adv-x="250" d="M200 65Q200 35 180 13T125 -10Q91 -10 71 12T50 65Q50 95 70 117T125 140Q158 140 179 118T200 65Z" />
<glyph unicode="/" glyph-name="slash" horiz-adv-x="370" d="M370 700L130 0H0L240 700H370Z" />
<glyph unicode="0" glyph-name="zero" horiz-adv-x="820" d="M410 650Q371 650 334 634T269 581T223 488T205 350Q205 269 222 212T268 119T334 67T410 50Q449 50 486 66T551 119T597 212T615 350Q615 431 598 488T552 581T486 633T410 650ZM410 720Q489 720 555
698T669 629T743 514T770 350Q770 256 744 187T669 71T555 3T410 -20Q331 -20 265 2T151 71T77 186T50 350Q50 444 76 513T151 629T265 697T410 720Z" />
<glyph unicode="1" glyph-name="one" horiz-adv-x="400" d="M330 700V0H185V580H175L55 515L10 580L180 700H330Z" />
<glyph unicode="2" glyph-name="two" horiz-adv-x="690" d="M400 355Q438 381 466 418T495 505Q495 569 454 607T330 645Q255 645 194 625T75 555L30 615Q87 664 164 692T340 720Q419 720 477 705T573 663T631 598T650 515Q650 470 637 435T603 370T553 317T495
270L240 75H660V0H40V80L400 355Z" />
<glyph unicode="3" glyph-name="three" horiz-adv-x="735" d="M335 645Q260 645 199 625T80 555L35 615Q92 664 169 692T345 720Q422 720 480 706T577 667T635 608T655 535Q655 471 624 430T525 365Q600 346 642 302T685 185Q685 142 665 105T603 40T495 -4T340
-20Q242 -20 160 11T20 95L70 155Q127 102 191 79T330 55Q435 55 482 95T530 195Q530 255 492 287T375 320H170V395H355Q500 395 500 525Q500 578 457 611T335 645Z" />
<glyph unicode="4" glyph-name="four" horiz-adv-x="760" d="M740 160H655V0H510V160H20V239L475 700H655V230H740V160ZM510 230V570H500L165 230H510Z" />
<glyph unicode="5" glyph-name="five" horiz-adv-x="725" d="M355 450Q524 450 604 387T685 215Q685 106 603 43T345 -20Q251 -20 169 11T30 95L80 155Q137 102 200 79T335 55Q437 55 483 97T530 215Q530 290 485 332T345 375Q303 375 256 363T170 320H60V700H625V630H205V420Q223
428 246 435Q266 440 293 445T355 450Z" />
<glyph unicode="6" glyph-name="six" horiz-adv-x="740" d="M50 420Q50 563 134 641T380 720Q455 720 529 697T660 625L615 565Q587 589 557 604T497 629T440 641T390 645Q304 645 255 591T205 420Q226 434 255 445Q279 454 314 462T395 470Q468 470 525 452T621
402T680 325T700 225Q700 171 680 126T618 48T517 -2T375 -20Q213 -20 132 51T50 255V420ZM385 400Q340 400 307 390T250 367Q224 353 205 335V245Q205 151 252 101T375 50Q412 50 443 62T497 98T532 153T545 225Q545 264 533 296T499 352T448 387T385 400Z" />
<glyph unicode="7" glyph-name="seven" horiz-adv-x="650" d="M630 615L305 0H155L485 625H10V700H630V615Z" />
<glyph unicode="8" glyph-name="eight" horiz-adv-x="750" d="M375 720Q456 720 513 706T608 666T662 604T680 525Q680 468 645 429T545 375Q582 367 612 351T665 312T698 259T710 195Q710 152 690 113T627 45T522 -2T375 -20Q291 -20 228 -3T123 44T61 113T40
195Q40 229 51 258T85 311T137 351T205 375Q141 390 106 429T70 525Q70 568 87 604T142 665T236 705T375 720ZM375 50Q466 50 510 90T555 195Q555 255 510 295T375 335Q285 335 240 295T195 195Q195 131 239 91T375 50ZM375 405Q450 405 487 438T525 525Q525 582
488 616T375 650Q300 650 263 616T225 525Q225 472 262 439T375 405Z" />
<glyph unicode="9" glyph-name="nine" horiz-adv-x="740" d="M690 280Q690 137 606 59T360 -20Q285 -20 211 3T80 75L125 135Q153 111 183 96T243 71T300 59T350 55Q436 55 485 109T535 280Q513 266 485 255Q460 245 425 238T345 230Q272 230 215 248T119 298T60
375T40 475Q40 529 60 574T122 652T223 702T365 720Q527 720 608 649T690 445V280ZM355 300Q400 300 433 310T490 332Q516 346 535 365V455Q535 549 488 599T365 650Q327 650 296 638T243 602T208 547T195 475Q195 436 207 404T241 348T292 313T355 300Z" />
<glyph unicode=":" glyph-name="colon" horiz-adv-x="250" d="M200 65Q200 35 180 13T125 -10Q91 -10 71 12T50 65Q50 95 70 117T125 140Q158 140 179 118T200 65ZM200 455Q200 425 180 403T125 380Q91 380 71 402T50 455Q50 485 70 507T125 530Q158 530 179 508T200
455Z" />
<glyph unicode=";" glyph-name="semicolon" horiz-adv-x="255" d="M205 45Q205 6 193 -22T162 -69T119 -96T70 -105V-70Q96 -70 118 -53T145 -5Q142 -7 138 -8Q130 -10 120 -10Q90 -10 70 12T50 65Q50 95 70 117T125 140Q163 140 184 112T205 45ZM200 455Q200
425 180 403T125 380Q91 380 71 402T50 455Q50 485 70 507T125 530Q158 530 179 508T200 455Z" />
<glyph unicode="&lt;" glyph-name="less" horiz-adv-x="425" d="M145 260L370 115V-10L30 210V310L370 530V405L145 260Z" />
<glyph unicode="=" glyph-name="equal" horiz-adv-x="560" d="M510 375H50V465H510V375ZM510 185H50V275H510V185Z" />
<glyph unicode="&gt;" glyph-name="greater" horiz-adv-x="425" d="M55 405V530L395 310V210L55 -10V115L280 260L55 405Z" />
<glyph unicode="?" glyph-name="question" horiz-adv-x="650" d="M290 635Q237 635 175 615T55 545L10 605Q67 654 142 682T300 710Q381 710 441 693T540 645T600 573T620 485Q620 391 550 333T355 260V200H225V335Q292 335 339 346T415 378T457 425T470 485Q470
517 458 544T423 592T367 623T290 635ZM365 65Q365 35 345 13T290 -10Q256 -10 236 12T215 65Q215 95 235 117T290 140Q323 140 344 118T365 65Z" />
<glyph unicode="@" glyph-name="at" horiz-adv-x="1030" d="M525 65Q405 65 335 121T265 290Q265 402 335 458T525 515H735V135Q765 135 790 145T832 177T860 234T870 320Q870 393 846 452T775 553T663 617T515 640Q432 640 367 617T255 551T185 444T160 300Q160
219 184 156T255 50T366 -17T515 -40Q550 -40 583 -36T641 -25Q670 -19 695 -10L715 -90Q690 -99 658 -105Q631 -111 595 -115T515 -120Q410 -120 324 -89T178 -2T84 131T50 300Q50 392 83 469T177 602T324 689T515 720Q620 720 706 689T852 604T946 477T980 320Q980
256 962 209T910 129T832 81T735 65H525ZM595 135V445H525Q504 445 485 436T450 409T425 361T415 290Q415 249 424 220T449 171T484 144T525 135H595Z" />
<glyph unicode="A" glyph-name="A" horiz-adv-x="820" d="M255 245H565L415 615H405L255 245ZM525 700L810 0H666L600 170H220L154 0H10L295 700H525Z" />
<glyph unicode="B" glyph-name="B" horiz-adv-x="800" d="M70 700H410Q487 700 543 687T637 649T692 590T710 515Q710 462 680 423T590 365Q665 350 707 307T750 195Q750 105 676 53T440 0H70V700ZM215 320V75H440Q515 75 555 105T595 195Q595 259 555 289T440
320H215ZM410 395Q555 395 555 515Q555 568 519 596T410 625H215V395H410Z" />
<glyph unicode="C" glyph-name="C" horiz-adv-x="790" d="M470 55Q538 55 600 78T720 155L770 95Q713 42 632 11T460 -20Q366 -20 291 4T162 75T79 191T50 350Q50 440 78 509T159 625T286 696T450 720Q541 720 622 689T760 605L710 545Q653 598 591 621T460 645Q406
645 359 628T278 574T225 483T205 350Q205 273 224 218T279 126T363 73T470 55Z" />
<glyph unicode="D" glyph-name="D" horiz-adv-x="840" d="M400 700Q490 700 563 678T689 611T771 502T800 350Q800 264 771 199T690 89T564 23T400 0H70V700H400ZM215 625V75H400Q451 75 495 90T573 139T625 225T645 350Q645 423 626 475T573 560T496 609T400 625H215Z" />
<glyph unicode="E" glyph-name="E" horiz-adv-x="710" d="M215 625V395H580V320H215V75H680V0H70V700H680V625H215Z" />
<glyph unicode="F" glyph-name="F" horiz-adv-x="720" d="M215 625V385H580V310H215V0H70V700H700V625H215Z" />
<glyph unicode="G" glyph-name="G" horiz-adv-x="820" d="M430 720Q521 720 602 689T740 605L690 545Q633 598 571 621T440 645Q389 645 346 628T272 574T223 483T205 350Q205 271 223 215T273 122T350 68T450 50Q495 50 527 58T582 77Q608 89 625 105V295H495V360H770V85Q733
55 684 32Q642 12 581 -4T440 -20Q350 -20 278 4T155 75T77 191T50 350Q50 440 77 509T153 625T273 696T430 720Z" />
<glyph unicode="H" glyph-name="H" horiz-adv-x="840" d="M770 700V0H625V305H215V0H70V700H215V380H625V700H770Z" />
<glyph unicode="I" glyph-name="I" horiz-adv-x="285" d="M215 0H70V700H215V0Z" />
<glyph unicode="J" glyph-name="J" horiz-adv-x="660" d="M260 -20Q224 -20 189 -14T120 3T59 28T10 60L55 120Q100 86 146 71T250 55Q291 55 326 67T388 108T430 179T445 285V625H210V700H590V285Q590 208 567 151T500 56T396 -1T260 -20Z" />
<glyph unicode="K" glyph-name="K" horiz-adv-x="795" d="M520 355L785 0H620L390 310H215V0H70V700H215V385H380L610 700H770L520 355Z" />
<glyph unicode="L" glyph-name="L" d="M645 75V0H70V700H215V75H645Z" />
<glyph unicode="M" glyph-name="M" horiz-adv-x="1100" d="M545 100H555L815 700H1030V0H885V560H875L635 0H465L225 560H215V0H70V700H285L545 100Z" />
<glyph unicode="N" glyph-name="N" horiz-adv-x="860" d="M790 700V0H600L225 570H215V0H70V700H260L635 130H645V700H790Z" />
<glyph unicode="O" glyph-name="O" horiz-adv-x="900" d="M450 650Q399 650 355 632T277 577T225 484T205 350Q205 273 224 217T277 123T354 68T450 50Q501 50 545 68T623 123T675 216T695 350Q695 427 676 483T623 577T546 632T450 650ZM450 720Q540 720 613
696T739 625T821 509T850 350Q850 260 821 191T740 75T614 4T450 -20Q360 -20 286 4T160 75T79 191T50 350Q50 440 78 509T159 625T286 696T450 720Z" />
<glyph unicode="P" glyph-name="P" horiz-adv-x="790" d="M430 700Q505 700 564 684T665 636T728 559T750 455Q750 397 728 352T665 275T565 227T430 210H215V0H70V700H430ZM215 625V285H430Q509 285 552 326T596 455Q596 542 553 583T430 625H215Z" />
<glyph unicode="Q" glyph-name="Q" horiz-adv-x="900" d="M450 720Q540 720 613 696T739 625T821 509T850 350Q850 235 804 155T676 31L740 -40L670 -105L581 -5Q521 -20 450 -20Q360 -20 286 4T160 75T79 191T50 350Q50 440 78 509T159 625T286 696T450 720ZM450
650Q399 650 355 632T277 577T225 484T205 350Q205 273 224 217T277 123T354 68T450 50Q489 50 522 60L465 125L535 190L608 108Q648 144 671 204T695 350Q695 427 676 483T623 577T546 632T450 650Z" />
<glyph unicode="R" glyph-name="R" horiz-adv-x="800" d="M430 700Q505 700 564 684T665 636T728 559T750 455Q750 375 710 320T595 236L760 0H595L448 210H430H215V0H70V700H430ZM215 625V285H430Q509 285 552 326T595 455Q595 542 552 583T430 625H215Z" />
<glyph unicode="S" glyph-name="S" horiz-adv-x="750" d="M720 185Q720 142 702 105T644 40T539 -4T380 -20Q327 -20 277 -12T181 11T97 47T30 95L80 155Q137 106 213 81T380 55Q481 55 523 83T565 160Q565 198 532 224T420 275L230 335Q136 365 88 411T40 530Q40
567 57 601T112 662T206 704T345 720Q394 720 442 712T535 689T618 653T685 605L635 545Q578 594 507 619T345 645Q270 645 233 619T195 555Q195 534 202 519T225 490T269 465T336 440L525 380Q616 351 668 304T720 185Z" />
<glyph unicode="T" glyph-name="T" horiz-adv-x="705" d="M695 625H425V0H280V625H10V700H695V625Z" />
<glyph unicode="U" glyph-name="U" horiz-adv-x="860" d="M430 50Q479 50 518 63T586 105T629 178T645 285V700H790V285Q790 131 696 56T430 -20Q257 -20 164 55T70 285V700H215V285Q215 223 230 179T274 106T341 64T430 50Z" />
<glyph unicode="V" glyph-name="V" horiz-adv-x="830" d="M410 85H420L671 700H820L535 0H295L10 700H159L410 85Z" />
<glyph unicode="W" glyph-name="W" horiz-adv-x="1170" d="M670 650L826 95H836L1005 700H1150L955 0H740L590 535H580L430 0H215L20 700H165L334 95H344L500 650H670Z" />
<glyph unicode="X" glyph-name="X" horiz-adv-x="765" d="M467 359L765 0H595L382 256L170 0H0L297 359L15 700H185L382 461L580 700H750L467 359Z" />
<glyph unicode="Y" glyph-name="Y" horiz-adv-x="795" d="M470 210V0H325V210L0 700H160L395 345H400L635 700H795L470 210Z" />
<glyph unicode="Z" glyph-name="Z" horiz-adv-x="720" d="M675 615L210 75H685V0H35V85L500 625H45V700H675V615Z" />
<glyph unicode="[" glyph-name="bracketleft" horiz-adv-x="350" d="M210 680V-80H330V-155H70V755H330V680H210Z" />
<glyph unicode="\" glyph-name="backslash" horiz-adv-x="410" d="M150 700L390 0H260L20 700H150Z" />
<glyph unicode="]" glyph-name="bracketright" horiz-adv-x="350" d="M20 680V755H280V-155H20V-80H140V680H20Z" />
<glyph unicode="^" glyph-name="asciicircum" horiz-adv-x="510" d="M135 450H10L200 720H310L500 450H375L255 620L135 450Z" />
<glyph unicode="_" glyph-name="underscore" horiz-adv-x="460" d="M460 -90H0V0H460V-90Z" />
<glyph unicode="`" glyph-name="grave" horiz-adv-x="246" d="M161 720L226 520H131L20 720H161Z" />
<glyph unicode="a" glyph-name="a" horiz-adv-x="645" d="M185 165Q185 70 300 70H440V260H300Q185 260 185 165ZM440 330Q440 402 403 436T305 470Q260 470 217 457T140 420L105 480Q127 495 153 506T208 524T263 536T315 540Q379 540 428 525T511 482T562 416T580
330V0H300Q164 0 100 41T35 165Q35 248 99 289T300 330H440Z" />
<glyph unicode="b" glyph-name="b" horiz-adv-x="685" d="M335 70Q369 70 397 80T446 114T478 173T490 260Q490 311 479 347T447 406T398 439T335 450H210V70H335ZM70 0V700H210V520H335Q404 520 460 502T557 450T618 368T640 260Q640 200 619 152T557 70T461
18T335 0H70Z" />
<glyph unicode="c" glyph-name="c" horiz-adv-x="615" d="M350 540Q382 540 414 535T475 520T530 496T575 465L535 405Q494 436 452 453T360 470Q324 470 294 459T242 422T208 356T195 260Q195 204 207 164T243 99T298 62T370 50Q419 50 461 67T545 115L585 55Q566
38 541 24T486 1T424 -14T360 -20Q289 -20 231 -2T131 52T68 140T45 260Q45 327 67 379T130 467T226 521T350 540Z" />
<glyph unicode="d" glyph-name="d" horiz-adv-x="685" d="M475 70V450H350Q316 450 288 440T239 406T207 347T195 260Q195 209 206 173T238 114T287 81T350 70H475ZM350 0Q281 0 225 18T128 70T67 152T45 260Q45 320 66 368T128 450T224 502T350 520H475V700H615V0H350Z" />
<glyph unicode="e" glyph-name="e" horiz-adv-x="670" d="M370 50Q419 50 461 67T545 115L585 55Q566 38 541 24T486 1T424 -14T360 -20Q289 -20 231 -2T131 52T68 140T45 260Q45 327 66 379T126 467T218 521T335 540Q395 540 448 522T540 470T602 386T625 275V205H198Q210
122 255 86T370 50ZM335 475Q306 475 281 464T238 429T208 367T195 275H475Q475 327 463 365T432 427T387 463T335 475Z" />
<glyph unicode="f" glyph-name="f" horiz-adv-x="450" d="M115 510Q115 608 176 664T350 720Q388 720 426 710T495 685L465 620Q446 631 418 640T360 650Q339 650 320 642T287 618T264 574T255 510V500H410V430H255V0H115V430H20V500H115V510Z" />
<glyph unicode="g" glyph-name="g" horiz-adv-x="685" d="M350 450Q278 450 237 406T195 270Q195 179 236 135T350 90H475V450H350ZM615 10Q615 -37 597 -75T544 -142T455 -185T330 -200Q306 -200 279 -197T223 -186T169 -167T120 -140L155 -80Q189 -103 232 -116T320
-130Q395 -130 435 -96T475 10V20H350Q281 20 225 38T128 89T67 168T45 270Q45 326 66 372T128 451T224 502T350 520H615V10Z" />
<glyph unicode="h" glyph-name="h" horiz-adv-x="685" d="M620 0H480V315Q480 387 444 418T340 450H210V0H70V700H210V520H340Q483 520 551 469T620 315V0Z" />
<glyph unicode="i" glyph-name="i" horiz-adv-x="290" d="M215 0H75V510H215V0ZM220 645Q220 615 200 593T145 570Q111 570 91 592T70 645Q70 675 90 697T145 720Q178 720 199 698T220 645Z" />
<glyph unicode="j" glyph-name="j" horiz-adv-x="300" d="M225 0Q225 -43 211 -79T171 -143T105 -185T15 -200Q-11 -200 -40 -195T-100 -175L-80 -110Q-65 -118 -45 -124T-5 -130Q14 -130 30 -123T59 -101T78 -61T85 0V510H225V0ZM230 645Q230 615 210 593T155
570Q121 570 101 592T80 645Q80 675 100 697T155 720Q188 720 209 698T230 645Z" />
<glyph unicode="k" glyph-name="k" horiz-adv-x="640" d="M315 230H210V0H70V700H210V300H315L470 520H620L445 270L630 0H470L315 230Z" />
<glyph unicode="l" glyph-name="l" horiz-adv-x="280" d="M210 0H70V700H210V0Z" />
<glyph unicode="m" glyph-name="m" horiz-adv-x="935" d="M70 520H590Q733 520 801 469T870 315V0H730V315Q730 387 694 418T590 450H540V0H400V450H210V0H70V520Z" />
<glyph unicode="n" glyph-name="n" horiz-adv-x="685" d="M620 0H480V315Q480 387 444 418T340 450H210V0H70V520H340Q483 520 551 469T620 315V0Z" />
<glyph unicode="o" glyph-name="o" horiz-adv-x="700" d="M350 45Q382 45 410 57T459 94T492 161T505 260Q505 318 493 359T459 425T410 463T350 475Q318 475 290 463T241 426T208 359T195 260Q195 202 207 161T241 95T290 57T350 45ZM350 540Q417 540 473 522T570
468T632 380T655 260Q655 192 633 140T570 53T474 -1T350 -20Q282 -20 226 -2T130 52T68 140T45 260Q45 327 67 379T130 467T226 521T350 540Z" />
<glyph unicode="p" glyph-name="p" horiz-adv-x="685" d="M210 450V70H335Q369 70 397 80T446 114T478 173T490 260Q490 311 479 347T447 406T398 439T335 450H210ZM335 520Q404 520 460 502T557 450T618 368T640 260Q640 200 619 152T557 70T461 18T335 0H210V-180H70V520H335Z"
/>
<glyph unicode="q" glyph-name="q" horiz-adv-x="685" d="M350 450Q316 450 288 440T239 406T207 347T195 260Q195 209 206 173T238 114T287 81T350 70H475V450H350ZM615 520V-180H475V0H350Q281 0 225 18T128 70T67 152T45 260Q45 320 66 368T128 450T224 502T350
520H615Z" />
<glyph unicode="r" glyph-name="r" horiz-adv-x="475" d="M465 450H345Q277 450 241 414T205 305V0H65V305Q65 407 129 463T315 520H465V450Z" />
<glyph unicode="s" glyph-name="s" horiz-adv-x="615" d="M190 410Q190 387 210 368T280 335L435 290Q507 269 546 233T585 140Q585 104 570 75T521 24T433 -8T300 -20Q259 -20 220 -14T145 2T80 26T30 55L70 115Q112 89 168 70T300 50Q375 50 405 70T435 120Q435
143 414 161T340 195L185 240Q121 259 81 294T40 390Q40 422 54 449T100 497T179 528T295 540Q378 540 445 518T555 465L515 405Q474 431 422 450T295 470Q242 470 216 453T190 410Z" />
<glyph unicode="t" glyph-name="t" horiz-adv-x="505" d="M115 450H20V520H115V680H255V520H410V450H255V190Q255 152 263 126T286 83T320 58T360 50Q390 50 418 59T465 80L495 15Q465 0 427 -10T350 -20Q237 -20 176 36T115 190V450Z" />
<glyph unicode="u" glyph-name="u" horiz-adv-x="690" d="M70 520H210V205Q210 133 246 102T350 70H480V520H620V0H350Q207 0 139 51T70 205V520Z" />
<glyph unicode="v" glyph-name="v" horiz-adv-x="640" d="M430 0H210L10 520H150L315 85H325L490 520H630L430 0Z" />
<glyph unicode="w" glyph-name="w" horiz-adv-x="940" d="M650 95H660L775 520H920L780 0H570L475 360H465L370 0H160L20 520H165L280 95H290L390 470H550L650 95Z" />
<glyph unicode="x" glyph-name="x" horiz-adv-x="600" d="M380 263L600 0H440L300 167L160 0H0L220 263L5 520H165L300 358L435 520H595L380 263Z" />
<glyph unicode="y" glyph-name="y" horiz-adv-x="690" d="M480 20H350Q207 20 139 71T70 225V520H210V225Q210 153 246 122T350 90H480V520H620V10Q620 -37 602 -75T549 -142T460 -185T335 -200Q311 -200 284 -197T228 -186T174 -167T125 -140L165 -80Q199 -103
241 -116T325 -130Q400 -130 440 -96T480 10V20Z" />
<glyph unicode="z" glyph-name="z" horiz-adv-x="590" d="M555 70V0H35V80L380 450H45V520H545V440L200 70H555Z" />
<glyph unicode="{" glyph-name="braceleft" horiz-adv-x="380" d="M140 300Q159 296 180 288T219 263T248 223T260 165V20Q260 -25 287 -52T360 -80H370V-155H360Q239 -155 180 -109T120 20V165Q120 210 93 237T20 265V335Q65 335 92 362T120 435V580Q120 663
179 709T360 755H370V680H360Q315 680 288 653T260 580V435Q260 401 249 377T219 337T180 313T140 300Z" />
<glyph unicode="|" glyph-name="bar" horiz-adv-x="285" d="M70 700H215V-180H70V700Z" />
<glyph unicode="}" glyph-name="braceright" horiz-adv-x="380" d="M240 300Q221 304 200 312T161 337T132 377T120 435V580Q120 625 93 652T20 680H10V755H20Q141 755 200 709T260 580V435Q260 390 287 363T360 335V265Q315 265 288 238T260 165V20Q260 -63 201
-109T20 -155H10V-80H20Q65 -80 92 -53T120 20V165Q120 199 131 223T161 263T200 287T240 300Z" />
<glyph unicode="~" glyph-name="asciitilde" horiz-adv-x="505" d="M20 261Q22 292 32 320T60 369T103 402T160 415Q192 415 216 404T261 380T300 356T340 345Q374 345 390 365T415 415L485 389Q483 357 473 329T445 280T402 247T345 235Q313 235 289 246T244
270T205 294T165 305Q131 305 115 285T90 235L20 261Z" />
<glyph unicode="&#xa0;" glyph-name="space" horiz-adv-x="350" />
<glyph unicode="&#xa1;" glyph-name="exclamdown" horiz-adv-x="280" d="M206 320L220 -180H60L75 320H206ZM215 455Q215 425 194 403T140 380Q106 380 86 402T65 455Q65 485 85 507T140 530Q174 530 194 508T215 455Z" />
<glyph unicode="&#xa2;" glyph-name="cent" horiz-adv-x="615" d="M390 538Q444 532 493 513T575 465L535 405Q494 436 452 453T360 470Q324 470 294 459T242 422T208 356T195 260Q195 204 207 164T243 99T298 62T370 50Q419 50 461 67T545 115L585 55Q552 25
500 6T390 -18V-100H280V-13Q171 5 108 74T45 260Q45 318 61 365T109 446T183 503T280 534V620H390V538Z" />
<glyph unicode="&#xa3;" glyph-name="sterling" horiz-adv-x="690" d="M660 75V0H40V75H65Q95 75 115 97T135 165V315H40V390H135V465Q135 523 155 570T213 650T301 702T415 720Q490 720 547 700T650 650L610 585Q572 611 529 628T425 645Q397 645 371 636T325
606T292 551T280 465V390H525V315H280V165Q280 141 274 124T261 97T247 81T240 75H660Z" />
<glyph unicode="&#xa4;" glyph-name="currency" horiz-adv-x="660" d="M545 455Q558 436 566 410T575 350Q575 316 566 290T545 245L620 170L540 90L465 165Q439 146 404 136T330 125Q292 125 257 135T195 165L120 90L40 170L115 245Q104 264 95 290T85 350Q85
384 93 410T115 455L40 530L120 610L195 535Q221 554 256 564T330 575Q368 575 403 565T465 535L540 610L620 530L545 455ZM440 350Q440 425 408 462T330 500Q285 500 253 463T220 350Q220 275 252 238T330 200Q375 200 407 237T440 350Z" />
<glyph unicode="&#xa5;" glyph-name="yen" horiz-adv-x="795" d="M630 100H470V0H325V100H165V170H325V210L311 230H165V300H265L0 700H160L395 345H400L635 700H795L530 300H630V230H483L470 210V170H630V100Z" />
<glyph unicode="&#xa6;" glyph-name="brokenbar" horiz-adv-x="285" d="M70 160H215V-180H70V160ZM215 360H70V700H215V360Z" />
<glyph unicode="&#xa7;" glyph-name="section" horiz-adv-x="685" d="M70 550Q70 584 86 614T135 668T217 706T335 720Q426 720 494 698T605 645L565 585Q544 598 521 610T471 631T410 645T335 650Q282 650 251 627T220 570Q220 536 244 514T325 475L470 430Q542
407 583 366T625 265Q625 217 600 179T525 115Q625 69 625 -20Q625 -58 609 -90T558 -147T469 -186T340 -200Q249 -200 176 -178T60 -125L100 -65Q142 -91 199 -110T340 -130Q408 -130 441 -105T475 -45Q475 -15 450 7T360 50L215 95Q143 118 102 159T60 265Q60
310 83 348T160 410Q115 433 93 469T70 550ZM210 290Q210 252 233 229T305 190L420 155Q446 166 460 187T475 234Q475 272 452 296T380 335L265 370Q239 359 225 340T210 290Z" />
<glyph unicode="&#xa8;" glyph-name="dieresis" horiz-adv-x="460" d="M190 655Q190 625 170 603T115 580Q81 580 61 602T40 655Q40 685 60 707T115 730Q148 730 169 708T190 655ZM420 655Q420 625 400 603T345 580Q311 580 291 602T270 655Q270 685 290 707T345
730Q378 730 399 708T420 655Z" />
<glyph unicode="&#xa9;" glyph-name="copyright" horiz-adv-x="930" d="M160 350Q160 281 183 226T248 131T345 71T465 50Q529 50 584 71T681 131T746 225T770 350Q770 419 746 474T681 569T585 629T465 650Q401 650 346 629T249 569T184 475T160 350ZM880 350Q880
266 849 196T763 76T631 -2T465 -30Q375 -30 299 -3T168 75T81 196T50 350Q50 434 81 504T167 624T299 702T465 730Q555 730 631 703T762 625T849 504T880 350ZM480 130Q426 130 382 144T306 187T257 256T240 350Q240 402 257 443T304 512T377 555T470 570Q530
570 575 552T650 510L615 460Q585 483 555 496T479 510Q455 510 434 501T396 473T370 424T360 350Q360 264 396 227T489 190Q535 190 565 203T625 240L660 190Q630 167 585 149T480 130Z" />
<glyph unicode="&#xaa;" glyph-name="ordfeminine" horiz-adv-x="505" d="M250 290Q148 290 99 324T50 415Q50 472 99 506T250 540H345Q345 600 322 625T250 650Q220 650 182 638T110 600L80 650Q122 680 164 695T255 710Q357 710 406 667T455 540V290H250ZM345
350V480H250Q212 480 191 463T170 415Q170 385 191 368T250 350H345Z" />
<glyph unicode="&#xab;" glyph-name="guillemotleft" horiz-adv-x="595" d="M350 80L275 0L10 260L275 520L350 440L165 260L350 80ZM565 115L490 35L260 260L490 485L565 405L415 260L565 115Z" />
<glyph unicode="&#xac;" glyph-name="logicalnot" horiz-adv-x="540" d="M500 185H400V305H40V395H500V185Z" />
<glyph unicode="&#xad;" glyph-name="uni00AD" horiz-adv-x="540" d="M500 280H40V370H500V280Z" />
<glyph unicode="&#xae;" glyph-name="registered" horiz-adv-x="930" d="M880 350Q880 266 849 196T763 76T631 -2T465 -30Q375 -30 299 -3T168 75T81 196T50 350Q50 434 81 504T167 624T299 702T465 730Q555 730 631 703T762 625T849 504T880 350ZM160 350Q160
281 183 226T248 131T345 71T465 50Q529 50 584 71T681 131T746 225T770 350Q770 419 746 474T681 569T585 629T465 650Q401 650 346 629T249 569T184 475T160 350ZM670 410Q670 363 647 330T582 279L680 140H555L471 260H470H400V140H290V560H470Q564 560 617
521T670 410ZM550 410Q550 459 525 479T470 500H400V320H470Q500 320 525 340T550 410Z" />
<glyph unicode="&#xaf;" glyph-name="overscore" horiz-adv-x="400" d="M360 600H40V680H360V600Z" />
<glyph unicode="&#xb0;" glyph-name="degree" horiz-adv-x="410" d="M205 720Q242 720 274 710T330 679T366 627T380 555Q380 514 367 483T330 432T275 401T205 390Q167 390 135 400T80 431T44 483T30 555Q30 596 43 627T80 678T135 709T205 720ZM205 445Q231
445 250 470T270 555Q270 615 251 640T205 665Q179 665 160 640T140 555Q140 495 159 470T205 445Z" />
<glyph unicode="&#xb1;" glyph-name="plusminus" horiz-adv-x="560" d="M330 180H230V320H40V410H230V590H330V410H520V320H330V180ZM510 60H50V150H510V60Z" />
<glyph unicode="&#xb2;" glyph-name="twosuperior" horiz-adv-x="470" d="M415 350V290H50V355L245 495Q271 514 285 534T300 580Q300 610 280 630T215 650Q181 650 143 638T70 600L40 650Q82 680 124 695T220 710Q325 710 372 673T420 575Q420 551 412 532T390
497T357 466T315 435L195 350H415Z" />
<glyph unicode="&#xb3;" glyph-name="threesuperior" horiz-adv-x="495" d="M305 585Q305 611 285 630T220 650Q186 650 148 638T76 600L45 650Q87 680 129 695T225 710Q276 710 313 701T375 675T412 638T425 595Q425 553 402 531T340 500Q385 489 415 465T445
395Q445 372 433 352T396 315T329 290T230 280Q173 280 128 295T40 340L70 390Q104 364 143 352T225 340Q281 340 303 359T325 405Q325 428 306 446T245 465H140V525H235Q273 525 289 542T305 585Z" />
<glyph unicode="&#xb4;" glyph-name="acute" horiz-adv-x="261" d="M241 730L135 580H40L100 730H241Z" />
<glyph unicode="&#xb5;" glyph-name="mu" horiz-adv-x="690" d="M210 285Q210 232 226 192T267 125T322 84T380 70H480V520H620V0H360Q324 0 297 8T249 27Q226 39 210 55V-180H70V520H210V285Z" />
<glyph unicode="&#xb6;" glyph-name="paragraph" horiz-adv-x="700" d="M680 700V630H605V-180H485V630H415V-180H295V240Q241 240 193 255T108 299T51 371T30 470Q30 526 51 569T108 641T192 685T295 700H680Z" />
<glyph unicode="&#xb7;" glyph-name="middot" horiz-adv-x="360" d="M255 350Q255 320 235 298T180 275Q146 275 126 297T105 350Q105 380 125 402T180 425Q213 425 234 403T255 350Z" />
<glyph unicode="&#xb8;" glyph-name="cedilla" horiz-adv-x="315" d="M155 -240Q130 -240 110 -236T75 -225Q57 -219 44 -210L64 -160Q75 -166 86 -170Q96 -174 108 -177T135 -180Q169 -180 182 -170T195 -145Q195 -130 182 -120T135 -110H90V0H170V-50Q219 -54
247 -77T275 -145Q275 -190 244 -215T155 -240Z" />
<glyph unicode="&#xb9;" glyph-name="onesuperior" horiz-adv-x="280" d="M230 700V290H120V620L40 580L10 630L130 700H230Z" />
<glyph unicode="&#xba;" glyph-name="ordmasculine" horiz-adv-x="520" d="M260 650Q222 650 196 616T170 495Q170 409 196 375T260 340Q279 340 295 348T324 374T343 422T350 495Q350 538 343 567T324 615T296 642T260 650ZM260 710Q358 710 414 657T470 495Q470
386 414 333T260 280Q162 280 106 333T50 495Q50 604 106 657T260 710Z" />
<glyph unicode="&#xbb;" glyph-name="guillemotright" horiz-adv-x="600" d="M430 260L245 440L320 520L585 260L320 0L245 80L430 260ZM180 260L30 405L105 485L335 260L105 35L30 115L180 260Z" />
<glyph unicode="&#xbc;" glyph-name="onequarter" horiz-adv-x="928" d="M755 700L255 0H130L630 700H755ZM260 700V290H150V620L70 580L40 630L160 700H260ZM730 150V310H725L561 150H730ZM888 150V90H840V0H730V90H450V154L710 410H840V150H888Z" />
<glyph unicode="&#xbd;" glyph-name="onehalf" horiz-adv-x="985" d="M755 700L255 0H130L630 700H755ZM260 700V290H150V620L70 580L40 630L160 700H260ZM940 60V0H575V65L770 205Q796 224 810 244T825 290Q825 320 805 340T740 360Q706 360 668 348T595 310L565
360Q607 390 649 405T745 420Q850 420 897 383T945 285Q945 261 937 242T915 207T882 176T840 145L720 60H940Z" />
<glyph unicode="&#xbe;" glyph-name="threequarters" horiz-adv-x="1012" d="M869 700L369 0H244L744 700H869ZM305 585Q305 611 285 630T220 650Q186 650 148 638T76 600L45 650Q87 680 129 695T225 710Q276 710 313 701T375 675T412 638T425 595Q425 553 402
531T340 500Q385 489 415 465T445 395Q445 372 433 352T396 315T329 290T230 280Q173 280 128 295T40 340L70 390Q104 364 143 352T225 340Q281 340 303 359T325 405Q325 428 306 446T245 465H140V525H235Q273 525 289 542T305 585ZM814 150V310H809L645 150H814ZM972
150V90H924V0H814V90H534V154L794 410H924V150H972Z" />
<glyph unicode="&#xbf;" glyph-name="questiondown" horiz-adv-x="650" d="M360 -115Q413 -115 475 -95T595 -25L640 -85Q583 -134 508 -162T350 -190Q269 -190 209 -173T110 -125T50 -53T30 35Q30 129 100 187T295 260V320H425V185Q357 185 311 174T235 142T193
95T180 35Q180 3 192 -24T227 -72T283 -103T360 -115ZM285 455Q285 485 305 507T360 530Q394 530 414 508T435 455Q435 425 415 403T360 380Q327 380 306 402T285 455Z" />
<glyph unicode="&#xc0;" glyph-name="Agrave" horiz-adv-x="820" d="M255 245H565L415 615H405L255 245ZM525 700L810 0H666L600 170H220L154 0H10L295 700H525ZM259 910L365 760H460L400 910H259Z" />
<glyph unicode="&#xc1;" glyph-name="Aacute" horiz-adv-x="820" d="M255 245H565L415 615H405L255 245ZM525 700L810 0H666L600 170H220L154 0H10L295 700H525ZM560 910L454 760H359L419 910H560Z" />
<glyph unicode="&#xc2;" glyph-name="Acircumflex" horiz-adv-x="820" d="M255 245H565L415 615H405L255 245ZM525 700L810 0H666L600 170H220L154 0H10L295 700H525ZM464 920L590 760H485L409 850L334 760H229L354 920H464Z" />
<glyph unicode="&#xc3;" glyph-name="Atilde" horiz-adv-x="820" d="M255 245H565L415 615H405L255 245ZM525 700L810 0H666L600 170H220L154 0H10L295 700H525ZM245 776Q245 802 251 826T270 869T302 899T345 911Q367 911 384 902T414 881T440 861T465 851Q484
851 492 869T505 906L575 896Q575 870 569 846T550 802T518 772T475 761Q452 761 436 770T406 791T380 811T355 821Q336 821 328 803T315 766L245 776Z" />
<glyph unicode="&#xc4;" glyph-name="Adieresis" horiz-adv-x="820" d="M255 245H565L415 615H405L255 245ZM525 700L810 0H666L600 170H220L154 0H10L295 700H525ZM370 835Q370 805 350 783T295 760Q261 760 241 782T220 835Q220 865 240 887T295 910Q328 910
349 888T370 835ZM600 835Q600 805 580 783T525 760Q491 760 471 782T450 835Q450 865 470 887T525 910Q558 910 579 888T600 835Z" />
<glyph unicode="&#xc5;" glyph-name="Aring" horiz-adv-x="820" d="M255 245H565L415 615H405L255 245ZM525 700L810 0H666L600 170H220L154 0H10L295 700H525ZM530 830Q530 806 521 786T495 751T456 728T410 720Q386 720 364 728T326 750T300 785T290 830Q290
854 299 874T325 909T364 932T410 940Q434 940 456 932T494 910T520 875T530 830ZM455 830Q455 853 442 866T410 880Q391 880 378 867T365 830Q365 807 378 794T410 780Q429 780 442 793T455 830Z" />
<glyph unicode="&#xc6;" glyph-name="AE" horiz-adv-x="1185" d="M710 625V395H1055V320H710V75H1155V0H565V170H219L145 0H0L305 700H1155V625H710ZM250 245H565V625H415L250 245Z" />
<glyph unicode="&#xc7;" glyph-name="Ccedilla" horiz-adv-x="790" d="M470 55Q538 55 600 78T720 155L770 95Q713 42 632 11T460 -20Q366 -20 291 4T162 75T79 191T50 350Q50 440 78 509T159 625T286 696T450 720Q541 720 622 689T760 605L710 545Q653 598 591
621T460 645Q406 645 359 628T278 574T225 483T205 350Q205 273 224 218T279 126T363 73T470 55ZM452 -240Q427 -240 407 -236T372 -225Q354 -219 341 -210L361 -160Q372 -166 383 -170Q393 -174 405 -177T432 -180Q466 -180 479 -170T492 -145Q492 -130 479 -120T432
-110H387V0H467V-50Q516 -54 544 -77T572 -145Q572 -190 541 -215T452 -240Z" />
<glyph unicode="&#xc8;" glyph-name="Egrave" horiz-adv-x="710" d="M215 625V395H580V320H215V75H680V0H70V700H680V625H215ZM234 910L340 760H435L375 910H234Z" />
<glyph unicode="&#xc9;" glyph-name="Eacute" horiz-adv-x="710" d="M215 625V395H580V320H215V75H680V0H70V700H680V625H215ZM505 910L399 760H304L364 910H505Z" />
<glyph unicode="&#xca;" glyph-name="Ecircumflex" horiz-adv-x="710" d="M215 625V395H580V320H215V75H680V0H70V700H680V625H215ZM429 920L555 760H450L374 850L299 760H194L319 920H429Z" />
<glyph unicode="&#xcb;" glyph-name="Edieresis" horiz-adv-x="710" d="M215 625V395H580V320H215V75H680V0H70V700H680V625H215ZM345 835Q345 805 325 783T270 760Q236 760 216 782T195 835Q195 865 215 887T270 910Q303 910 324 888T345 835ZM575 835Q575 805
555 783T500 760Q466 760 446 782T425 835Q425 865 445 887T500 910Q533 910 554 888T575 835Z" />
<glyph unicode="&#xcc;" glyph-name="Igrave" horiz-adv-x="285" d="M215 0H70V700H215V0ZM-8 910L98 760H193L133 910H-8Z" />
<glyph unicode="&#xcd;" glyph-name="Iacute" horiz-adv-x="285" d="M215 0H70V700H215V0ZM293 910L187 760H92L152 910H293Z" />
<glyph unicode="&#xce;" glyph-name="Icircumflex" horiz-adv-x="285" d="M215 0H70V700H215V0ZM198 920L324 760H219L143 850L68 760H-37L88 920H198Z" />
<glyph unicode="&#xcf;" glyph-name="Idieresis" horiz-adv-x="285" d="M215 0H70V700H215V0ZM104 825Q104 795 84 773T29 750Q-5 750 -25 772T-46 825Q-46 855 -26 877T29 900Q62 900 83 878T104 825ZM334 825Q334 795 314 773T259 750Q225 750 205 772T184 825Q184
855 204 877T259 900Q292 900 313 878T334 825Z" />
<glyph unicode="&#xd0;" glyph-name="Eth" horiz-adv-x="870" d="M430 700Q520 700 593 678T719 611T801 502T830 350Q830 264 801 199T720 89T594 23T430 0H100V310H20V400H100V700H430ZM410 310H245V75H430Q481 75 525 90T603 139T655 225T675 350Q675 423 656
475T603 560T526 609T430 625H245V400H410V310Z" />
<glyph unicode="&#xd1;" glyph-name="Ntilde" horiz-adv-x="860" d="M790 700V0H600L225 570H215V0H70V700H260L635 130H645V700H790ZM265 766Q265 792 271 816T290 859T322 889T365 901Q387 901 404 892T434 871T460 851T485 841Q504 841 512 859T525 896L595
886Q595 860 589 836T570 792T538 762T495 751Q472 751 456 760T426 781T400 801T375 811Q356 811 348 793T335 756L265 766Z" />
<glyph unicode="&#xd2;" glyph-name="Ograve" horiz-adv-x="900" d="M450 650Q399 650 355 632T277 577T225 484T205 350Q205 273 224 217T277 123T354 68T450 50Q501 50 545 68T623 123T675 216T695 350Q695 427 676 483T623 577T546 632T450 650ZM450 720Q540
720 613 696T739 625T821 509T850 350Q850 260 821 191T740 75T614 4T450 -20Q360 -20 286 4T160 75T79 191T50 350Q50 440 78 509T159 625T286 696T450 720ZM299 910L405 760H500L440 910H299Z" />
<glyph unicode="&#xd3;" glyph-name="Oacute" horiz-adv-x="900" d="M450 650Q399 650 355 632T277 577T225 484T205 350Q205 273 224 217T277 123T354 68T450 50Q501 50 545 68T623 123T675 216T695 350Q695 427 676 483T623 577T546 632T450 650ZM450 720Q540
720 613 696T739 625T821 509T850 350Q850 260 821 191T740 75T614 4T450 -20Q360 -20 286 4T160 75T79 191T50 350Q50 440 78 509T159 625T286 696T450 720ZM600 910L494 760H399L459 910H600Z" />
<glyph unicode="&#xd4;" glyph-name="Ocircumflex" horiz-adv-x="900" d="M450 650Q399 650 355 632T277 577T225 484T205 350Q205 273 224 217T277 123T354 68T450 50Q501 50 545 68T623 123T675 216T695 350Q695 427 676 483T623 577T546 632T450 650ZM450 720Q540
720 613 696T739 625T821 509T850 350Q850 260 821 191T740 75T614 4T450 -20Q360 -20 286 4T160 75T79 191T50 350Q50 440 78 509T159 625T286 696T450 720ZM504 930L630 770H525L449 860L374 770H269L394 930H504Z" />
<glyph unicode="&#xd5;" glyph-name="Otilde" horiz-adv-x="900" d="M450 650Q399 650 355 632T277 577T225 484T205 350Q205 273 224 217T277 123T354 68T450 50Q501 50 545 68T623 123T675 216T695 350Q695 427 676 483T623 577T546 632T450 650ZM450 720Q540
720 613 696T739 625T821 509T850 350Q850 260 821 191T740 75T614 4T450 -20Q360 -20 286 4T160 75T79 191T50 350Q50 440 78 509T159 625T286 696T450 720ZM275 776Q275 802 281 826T300 869T332 899T375 911Q397 911 414 902T444 881T470 861T495 851Q514 851
522 869T535 906L605 896Q605 870 599 846T580 802T548 772T505 761Q482 761 466 770T436 791T410 811T385 821Q366 821 358 803T345 766L275 776Z" />
<glyph unicode="&#xd6;" glyph-name="Odieresis" horiz-adv-x="900" d="M450 650Q399 650 355 632T277 577T225 484T205 350Q205 273 224 217T277 123T354 68T450 50Q501 50 545 68T623 123T675 216T695 350Q695 427 676 483T623 577T546 632T450 650ZM450 720Q540
720 613 696T739 625T821 509T850 350Q850 260 821 191T740 75T614 4T450 -20Q360 -20 286 4T160 75T79 191T50 350Q50 440 78 509T159 625T286 696T450 720ZM410 845Q410 815 390 793T335 770Q301 770 281 792T260 845Q260 875 280 897T335 920Q368 920 389 898T410
845ZM640 845Q640 815 620 793T565 770Q531 770 511 792T490 845Q490 875 510 897T565 920Q598 920 619 898T640 845Z" />
<glyph unicode="&#xd7;" glyph-name="multiply" horiz-adv-x="540" d="M490 175L415 100L270 245L125 100L50 175L200 325L50 475L125 550L270 405L415 550L490 475L340 325L490 175Z" />
<glyph unicode="&#xd8;" glyph-name="Oslash" horiz-adv-x="900" d="M760 680L726 636Q786 589 818 518T850 350Q850 260 821 191T740 75T614 4T450 -20Q392 -20 342 -10T248 19L210 -30L140 20L173 63Q114 111 82 182T50 350Q50 440 78 509T159 625T286 696T450
720Q507 720 557 710T652 681L690 730L760 680ZM695 350Q695 410 683 457T650 539L307 95Q367 50 450 50Q501 50 545 68T623 123T675 216T695 350ZM450 650Q399 650 355 632T277 577T225 484T205 350Q205 290 216 243T249 161L593 604Q532 650 450 650Z" />
<glyph unicode="&#xd9;" glyph-name="Ugrave" horiz-adv-x="860" d="M430 50Q479 50 518 63T586 105T629 178T645 285V700H790V285Q790 131 696 56T430 -20Q257 -20 164 55T70 285V700H215V285Q215 223 230 179T274 106T341 64T430 50ZM289 890L395 740H490L430 890H289Z" />
<glyph unicode="&#xda;" glyph-name="Uacute" horiz-adv-x="860" d="M430 50Q479 50 518 63T586 105T629 178T645 285V700H790V285Q790 131 696 56T430 -20Q257 -20 164 55T70 285V700H215V285Q215 223 230 179T274 106T341 64T430 50ZM570 890L464 740H369L429 890H570Z" />
<glyph unicode="&#xdb;" glyph-name="Ucircumflex" horiz-adv-x="860" d="M430 50Q479 50 518 63T586 105T629 178T645 285V700H790V285Q790 131 696 56T430 -20Q257 -20 164 55T70 285V700H215V285Q215 223 230 179T274 106T341 64T430 50ZM484 900L610 740H505L429
830L354 740H249L374 900H484Z" />
<glyph unicode="&#xdc;" glyph-name="Udieresis" horiz-adv-x="860" d="M430 50Q479 50 518 63T586 105T629 178T645 285V700H790V285Q790 131 696 56T430 -20Q257 -20 164 55T70 285V700H215V285Q215 223 230 179T274 106T341 64T430 50ZM390 815Q390 785 370
763T315 740Q281 740 261 762T240 815Q240 845 260 867T315 890Q348 890 369 868T390 815ZM620 815Q620 785 600 763T545 740Q511 740 491 762T470 815Q470 845 490 867T545 890Q578 890 599 868T620 815Z" />
<glyph unicode="&#xdd;" glyph-name="Yacute" horiz-adv-x="795" d="M470 210V0H325V210L0 700H160L395 345H400L635 700H795L470 210ZM538 890L432 740H337L397 890H538Z" />
<glyph unicode="&#xde;" glyph-name="Thorn" horiz-adv-x="810" d="M415 630Q496 630 561 610T673 554T745 466T770 350Q770 286 745 235T674 147T562 90T415 70H215V-10H70V710H215V630H415ZM215 555V145H415Q456 145 492 157T556 195T599 258T615 350Q615 402
599 441T556 505T493 542T415 555H215Z" />
<glyph unicode="&#xdf;" glyph-name="germandbls" horiz-adv-x="695" d="M505 150Q505 175 492 192T458 224T415 252T372 280T339 316T325 365Q325 397 338 418T367 460T396 503T410 560Q410 602 384 626T320 650Q299 650 280 642T245 616T220 572T210 510V0H70V510Q70
557 88 595T140 662T220 705T320 720Q372 720 416 708T492 673T542 619T560 550Q560 509 544 484T508 442T472 411T455 375Q455 359 470 347T507 324T555 299T603 268T640 223T655 160Q655 124 641 92T600 35T531 -5T435 -20Q409 -20 380 -15T320 5L340 70Q355
62 375 56T415 50Q453 50 479 75T505 150Z" />
<glyph unicode="&#xe0;" glyph-name="agrave" horiz-adv-x="645" d="M185 165Q185 70 300 70H440V260H300Q185 260 185 165ZM440 330Q440 402 403 436T305 470Q260 470 217 457T140 420L105 480Q127 495 153 506T208 524T263 536T315 540Q379 540 428 525T511
482T562 416T580 330V0H300Q164 0 100 41T35 165Q35 248 99 289T300 330H440ZM182 730L288 580H383L323 730H182Z" />
<glyph unicode="&#xe1;" glyph-name="aacute" horiz-adv-x="645" d="M185 165Q185 70 300 70H440V260H300Q185 260 185 165ZM440 330Q440 402 403 436T305 470Q260 470 217 457T140 420L105 480Q127 495 153 506T208 524T263 536T315 540Q379 540 428 525T511
482T562 416T580 330V0H300Q164 0 100 41T35 165Q35 248 99 289T300 330H440ZM463 730L357 580H262L322 730H463Z" />
<glyph unicode="&#xe2;" glyph-name="acircumflex" horiz-adv-x="645" d="M185 165Q185 70 300 70H440V260H300Q185 260 185 165ZM440 330Q440 402 403 436T305 470Q260 470 217 457T140 420L105 480Q127 495 153 506T208 524T263 536T315 540Q379 540 428 525T511
482T562 416T580 330V0H300Q164 0 100 41T35 165Q35 248 99 289T300 330H440ZM387 750L513 590H408L332 680L257 590H152L277 750H387Z" />
<glyph unicode="&#xe3;" glyph-name="atilde" horiz-adv-x="645" d="M185 165Q185 70 300 70H440V260H300Q185 260 185 165ZM440 330Q440 402 403 436T305 470Q260 470 217 457T140 420L105 480Q127 495 153 506T208 524T263 536T315 540Q379 540 428 525T511
482T562 416T580 330V0H300Q164 0 100 41T35 165Q35 248 99 289T300 330H440ZM167 596Q167 622 173 646T192 689T224 719T267 731Q289 731 306 722T336 701T362 681T387 671Q406 671 414 689T427 726L497 716Q497 690 491 666T472 622T440 592T397 581Q374 581
358 590T328 611T302 631T277 641Q258 641 250 623T237 586L167 596Z" />
<glyph unicode="&#xe4;" glyph-name="adieresis" horiz-adv-x="645" d="M185 165Q185 70 300 70H440V260H300Q185 260 185 165ZM440 330Q440 402 403 436T305 470Q260 470 217 457T140 420L105 480Q127 495 153 506T208 524T263 536T315 540Q379 540 428 525T511
482T562 416T580 330V0H300Q164 0 100 41T35 165Q35 248 99 289T300 330H440ZM292 665Q292 635 272 613T217 590Q183 590 163 612T142 665Q142 695 162 717T217 740Q250 740 271 718T292 665ZM522 665Q522 635 502 613T447 590Q413 590 393 612T372 665Q372 695
392 717T447 740Q480 740 501 718T522 665Z" />
<glyph unicode="&#xe5;" glyph-name="aring" horiz-adv-x="645" d="M185 165Q185 70 300 70H440V260H300Q185 260 185 165ZM440 330Q440 402 403 436T305 470Q260 470 217 457T140 420L105 480Q127 495 153 506T208 524T263 536T315 540Q379 540 428 525T511 482T562
416T580 330V0H300Q164 0 100 41T35 165Q35 248 99 289T300 330H440ZM462 681Q462 657 453 637T427 602T388 579T342 571Q318 571 296 579T258 601T232 636T222 681Q222 705 231 725T257 760T296 783T342 791Q366 791 388 783T426 761T452 726T462 681ZM387 681Q387
704 374 717T342 731Q323 731 310 718T297 681Q297 658 310 645T342 631Q361 631 374 644T387 681Z" />
<glyph unicode="&#xe6;" glyph-name="ae" horiz-adv-x="1065" d="M765 50Q814 50 856 67T940 115L980 55Q961 38 936 24T881 1T819 -14T755 -20Q672 -20 615 4T520 70Q486 28 429 4T300 -20Q172 -20 104 21T35 145Q35 228 103 269T300 310H440Q440 396 403 433T305
470Q260 470 217 457T140 420L105 480Q127 495 153 506T208 524T263 536T315 540Q387 540 438 517T520 455Q554 493 604 516T730 540Q794 540 847 522T938 471T998 392T1020 290V220H592Q595 173 609 141T646 88T699 59T765 50ZM730 475Q702 475 678 464T634 429T604
372T591 290H870Q870 384 830 429T730 475ZM440 240H300Q251 240 218 217T185 144Q185 120 193 103T216 73T250 56T290 50Q322 50 349 61T397 92T428 142T440 210V240Z" />
<glyph unicode="&#xe7;" glyph-name="ccedilla" horiz-adv-x="615" d="M350 540Q382 540 414 535T475 520T530 496T575 465L535 405Q494 436 452 453T360 470Q324 470 294 459T242 422T208 356T195 260Q195 204 207 164T243 99T298 62T370 50Q419 50 461 67T545
115L585 55Q566 38 541 24T486 1T424 -14T360 -20Q289 -20 231 -2T131 52T68 140T45 260Q45 327 67 379T130 467T226 521T350 540ZM355 -240Q330 -240 310 -236T275 -225Q257 -219 244 -210L264 -160Q275 -166 286 -170Q296 -174 308 -177T335 -180Q369 -180 382
-170T395 -145Q395 -130 382 -120T335 -110H290V0H370V-50Q419 -54 447 -77T475 -145Q475 -190 444 -215T355 -240Z" />
<glyph unicode="&#xe8;" glyph-name="egrave" horiz-adv-x="670" d="M370 50Q419 50 461 67T545 115L585 55Q566 38 541 24T486 1T424 -14T360 -20Q289 -20 231 -2T131 52T68 140T45 260Q45 327 66 379T126 467T218 521T335 540Q395 540 448 522T540 470T602 386T625
275V205H198Q210 122 255 86T370 50ZM335 475Q306 475 281 464T238 429T208 367T195 275H475Q475 327 463 365T432 427T387 463T335 475ZM194 730L300 580H395L335 730H194Z" />
<glyph unicode="&#xe9;" glyph-name="eacute" horiz-adv-x="670" d="M370 50Q419 50 461 67T545 115L585 55Q566 38 541 24T486 1T424 -14T360 -20Q289 -20 231 -2T131 52T68 140T45 260Q45 327 66 379T126 467T218 521T335 540Q395 540 448 522T540 470T602 386T625
275V205H198Q210 122 255 86T370 50ZM335 475Q306 475 281 464T238 429T208 367T195 275H475Q475 327 463 365T432 427T387 463T335 475ZM475 730L369 580H274L334 730H475Z" />
<glyph unicode="&#xea;" glyph-name="ecircumflex" horiz-adv-x="670" d="M370 50Q419 50 461 67T545 115L585 55Q566 38 541 24T486 1T424 -14T360 -20Q289 -20 231 -2T131 52T68 140T45 260Q45 327 66 379T126 467T218 521T335 540Q395 540 448 522T540 470T602
386T625 275V205H198Q210 122 255 86T370 50ZM335 475Q306 475 281 464T238 429T208 367T195 275H475Q475 327 463 365T432 427T387 463T335 475ZM389 740L515 580H410L334 670L259 580H154L279 740H389Z" />
<glyph unicode="&#xeb;" glyph-name="edieresis" horiz-adv-x="670" d="M370 50Q419 50 461 67T545 115L585 55Q566 38 541 24T486 1T424 -14T360 -20Q289 -20 231 -2T131 52T68 140T45 260Q45 327 66 379T126 467T218 521T335 540Q395 540 448 522T540 470T602
386T625 275V205H198Q210 122 255 86T370 50ZM335 475Q306 475 281 464T238 429T208 367T195 275H475Q475 327 463 365T432 427T387 463T335 475ZM295 655Q295 625 275 603T220 580Q186 580 166 602T145 655Q145 685 165 707T220 730Q253 730 274 708T295 655ZM525
655Q525 625 505 603T450 580Q416 580 396 602T375 655Q375 685 395 707T450 730Q483 730 504 708T525 655Z" />
<glyph unicode="&#xec;" glyph-name="igrave" horiz-adv-x="280" d="M210 0H70V510H210V0ZM131 730L191 580H96L-10 730H131Z" />
<glyph unicode="&#xed;" glyph-name="iacute" horiz-adv-x="281" d="M210 0H70V510H210V0ZM291 730L185 580H90L150 730H291Z" />
<glyph unicode="&#xee;" glyph-name="icircumflex" horiz-adv-x="281" d="M210 0H70V510H210V0ZM195 740L321 580H216L140 670L65 580H-40L85 740H195Z" />
<glyph unicode="&#xef;" glyph-name="idieresis" horiz-adv-x="280" d="M210 0H70V510H210V0ZM100 645Q100 615 80 593T25 570Q-9 570 -29 592T-50 645Q-50 675 -30 697T25 720Q58 720 79 698T100 645ZM330 645Q330 615 310 593T255 570Q221 570 201 592T180 645Q180
675 200 697T255 720Q288 720 309 698T330 645Z" />
<glyph unicode="&#xf0;" glyph-name="eth" horiz-adv-x="690" d="M405 770L380 682Q450 659 500 627T583 553T630 456T645 335V250Q645 186 623 136T561 52T466 -1T345 -20Q279 -20 224 -2T130 49T68 128T45 230Q45 286 67 332T128 411T220 462T335 480Q414 480
467 451T550 365Q544 411 530 447T493 510T435 556T355 590L330 500L245 520L270 610L160 630L180 730L275 710Q280 708 285 707T296 705L320 790L405 770ZM345 410Q315 410 288 399T240 365T207 309T195 230Q195 183 207 149T240 91T288 57T345 45Q375 45 402
56T450 91T483 148T495 230Q495 275 483 308T450 364T402 398T345 410Z" />
<glyph unicode="&#xf1;" glyph-name="ntilde" horiz-adv-x="685" d="M620 0H480V315Q480 387 444 418T340 450H210V0H70V520H340Q483 520 551 469T620 315V0ZM177 596Q177 622 183 646T202 689T234 719T277 731Q299 731 316 722T346 701T372 681T397 671Q416 671
424 689T437 726L507 716Q507 690 501 666T482 622T450 592T407 581Q384 581 368 590T338 611T312 631T287 641Q268 641 260 623T247 586L177 596Z" />
<glyph unicode="&#xf2;" glyph-name="ograve" horiz-adv-x="700" d="M350 45Q382 45 410 57T459 94T492 161T505 260Q505 318 493 359T459 425T410 463T350 475Q318 475 290 463T241 426T208 359T195 260Q195 202 207 161T241 95T290 57T350 45ZM350 540Q417 540
473 522T570 468T632 380T655 260Q655 192 633 140T570 53T474 -1T350 -20Q282 -20 226 -2T130 52T68 140T45 260Q45 327 67 379T130 467T226 521T350 540ZM199 730L305 580H400L340 730H199Z" />
<glyph unicode="&#xf3;" glyph-name="oacute" horiz-adv-x="700" d="M350 45Q382 45 410 57T459 94T492 161T505 260Q505 318 493 359T459 425T410 463T350 475Q318 475 290 463T241 426T208 359T195 260Q195 202 207 161T241 95T290 57T350 45ZM350 540Q417 540
473 522T570 468T632 380T655 260Q655 192 633 140T570 53T474 -1T350 -20Q282 -20 226 -2T130 52T68 140T45 260Q45 327 67 379T130 467T226 521T350 540ZM490 730L384 580H289L349 730H490Z" />
<glyph unicode="&#xf4;" glyph-name="ocircumflex" horiz-adv-x="700" d="M350 45Q382 45 410 57T459 94T492 161T505 260Q505 318 493 359T459 425T410 463T350 475Q318 475 290 463T241 426T208 359T195 260Q195 202 207 161T241 95T290 57T350 45ZM350 540Q417
540 473 522T570 468T632 380T655 260Q655 192 633 140T570 53T474 -1T350 -20Q282 -20 226 -2T130 52T68 140T45 260Q45 327 67 379T130 467T226 521T350 540ZM404 740L530 580H425L349 670L274 580H169L294 740H404Z" />
<glyph unicode="&#xf5;" glyph-name="otilde" horiz-adv-x="700" d="M350 45Q382 45 410 57T459 94T492 161T505 260Q505 318 493 359T459 425T410 463T350 475Q318 475 290 463T241 426T208 359T195 260Q195 202 207 161T241 95T290 57T350 45ZM350 540Q417 540
473 522T570 468T632 380T655 260Q655 192 633 140T570 53T474 -1T350 -20Q282 -20 226 -2T130 52T68 140T45 260Q45 327 67 379T130 467T226 521T350 540ZM185 596Q185 622 191 646T210 689T242 719T285 731Q307 731 324 722T354 701T380 681T405 671Q424 671
432 689T445 726L515 716Q515 690 509 666T490 622T458 592T415 581Q392 581 376 590T346 611T320 631T295 641Q276 641 268 623T255 586L185 596Z" />
<glyph unicode="&#xf6;" glyph-name="odieresis" horiz-adv-x="700" d="M350 45Q382 45 410 57T459 94T492 161T505 260Q505 318 493 359T459 425T410 463T350 475Q318 475 290 463T241 426T208 359T195 260Q195 202 207 161T241 95T290 57T350 45ZM350 540Q417
540 473 522T570 468T632 380T655 260Q655 192 633 140T570 53T474 -1T350 -20Q282 -20 226 -2T130 52T68 140T45 260Q45 327 67 379T130 467T226 521T350 540ZM310 655Q310 625 290 603T235 580Q201 580 181 602T160 655Q160 685 180 707T235 730Q268 730 289
708T310 655ZM540 655Q540 625 520 603T465 580Q431 580 411 602T390 655Q390 685 410 707T465 730Q498 730 519 708T540 655Z" />
<glyph unicode="&#xf7;" glyph-name="divide" horiz-adv-x="540" d="M510 280H30V370H510V280ZM195 505Q195 535 215 557T270 580Q304 580 324 558T345 505Q345 475 325 453T270 430Q237 430 216 452T195 505ZM195 145Q195 175 215 197T270 220Q304 220 324 198T345
145Q345 115 325 93T270 70Q237 70 216 92T195 145Z" />
<glyph unicode="&#xf8;" glyph-name="oslash" horiz-adv-x="700" d="M610 495L579 459Q615 424 635 374T655 260Q655 192 633 140T570 53T474 -1T350 -20Q260 -20 191 12L155 -30L90 25L121 61Q84 96 65 146T45 260Q45 327 67 379T130 467T226 521T350 540Q440
540 508 507L545 550L610 495ZM350 45Q382 45 410 57T459 94T492 161T505 260Q505 289 502 314T492 359L252 82Q272 62 297 54T350 45ZM195 260Q195 202 207 160L448 438Q408 475 350 475Q318 475 290 463T241 426T208 359T195 260Z" />
<glyph unicode="&#xf9;" glyph-name="ugrave" horiz-adv-x="690" d="M70 520H210V205Q210 133 246 102T350 70H480V520H620V0H350Q207 0 139 51T70 205V520ZM204 721L310 571H405L345 721H204Z" />
<glyph unicode="&#xfa;" glyph-name="uacute" horiz-adv-x="690" d="M70 520H210V205Q210 133 246 102T350 70H480V520H620V0H350Q207 0 139 51T70 205V520ZM475 721L369 571H274L334 721H475Z" />
<glyph unicode="&#xfb;" glyph-name="ucircumflex" horiz-adv-x="690" d="M70 520H210V205Q210 133 246 102T350 70H480V520H620V0H350Q207 0 139 51T70 205V520ZM399 987L525 827H420L344 917L269 827H164L289 987H399Z" />
<glyph unicode="&#xfc;" glyph-name="udieresis" horiz-adv-x="690" d="M70 520H210V205Q210 133 246 102T350 70H480V520H620V0H350Q207 0 139 51T70 205V520ZM305 655Q305 625 285 603T230 580Q196 580 176 602T155 655Q155 685 175 707T230 730Q263 730 284
708T305 655ZM535 655Q535 625 515 603T460 580Q426 580 406 602T385 655Q385 685 405 707T460 730Q493 730 514 708T535 655Z" />
<glyph unicode="&#xfd;" glyph-name="yacute" horiz-adv-x="690" d="M480 20H350Q207 20 139 71T70 225V520H210V225Q210 153 246 122T350 90H480V520H620V10Q620 -37 602 -75T549 -142T460 -185T335 -200Q311 -200 284 -197T228 -186T174 -167T125 -140L165 -80Q199
-103 241 -116T325 -130Q400 -130 440 -96T480 10V20ZM485 701L379 551H284L344 701H485Z" />
<glyph unicode="&#xfe;" glyph-name="thorn" horiz-adv-x="685" d="M335 520Q404 520 460 502T557 450T618 368T640 260Q640 200 619 152T557 70T461 18T335 0H210V-180H70V700H210V520H335ZM210 450V70H335Q369 70 397 80T446 114T478 173T490 260Q490 311 479
347T447 406T398 439T335 450H210Z" />
<glyph unicode="&#xff;" glyph-name="ydieresis" horiz-adv-x="690" d="M480 20H350Q207 20 139 71T70 225V520H210V225Q210 153 246 122T350 90H480V520H620V10Q620 -37 602 -75T549 -142T460 -185T335 -200Q311 -200 284 -197T228 -186T174 -167T125 -140L165
-80Q199 -103 241 -116T325 -130Q400 -130 440 -96T480 10V20ZM305 902Q305 872 285 850T230 827Q196 827 176 849T155 902Q155 932 175 954T230 977Q263 977 284 955T305 902ZM535 902Q535 872 515 850T460 827Q426 827 406 849T385 902Q385 932 405 954T460 977Q493
977 514 955T535 902Z" />
<glyph unicode="&#x2013;" glyph-name="endash" horiz-adv-x="630" d="M610 280H20V370H610V280Z" />
<glyph unicode="&#x2014;" glyph-name="emdash" horiz-adv-x="870" d="M850 280H20V370H850V280Z" />
<glyph unicode="&#x2018;" glyph-name="quoteleft" horiz-adv-x="255" d="M50 560Q50 599 62 627T93 674T136 701T185 710V675Q159 675 137 658T110 610Q113 611 117 612Q120 613 124 614T135 615Q165 615 185 593T205 540Q205 510 185 488T130 465Q92 465 71
493T50 560Z" />
<glyph unicode="&#x2019;" glyph-name="quoteright" horiz-adv-x="255" d="M205 615Q205 576 193 548T162 501T119 474T70 465V500Q96 500 118 517T145 565Q142 563 138 562Q130 560 120 560Q90 560 70 582T50 635Q50 665 70 687T125 710Q163 710 184 682T205 615Z" />
<glyph unicode="&#x201a;" glyph-name="quotesinglbase" horiz-adv-x="255" d="M205 45Q205 6 193 -22T162 -69T119 -96T70 -105V-70Q96 -70 118 -53T145 -5Q142 -7 138 -8Q130 -10 120 -10Q90 -10 70 12T50 65Q50 95 70 117T125 140Q163 140 184 112T205 45Z" />
<glyph unicode="&#x201c;" glyph-name="quotedblleft" horiz-adv-x="455" d="M250 560Q250 599 262 627T293 674T336 701T385 710V675Q359 675 337 658T310 610Q313 611 317 612Q320 613 324 614T335 615Q365 615 385 593T405 540Q405 510 385 488T330 465Q292
465 271 493T250 560ZM50 560Q50 599 62 627T93 674T136 701T185 710V675Q159 675 137 658T110 610Q113 611 117 612Q120 613 124 614T135 615Q165 615 185 593T205 540Q205 510 185 488T130 465Q92 465 71 493T50 560Z" />
<glyph unicode="&#x201d;" glyph-name="quotedblright" horiz-adv-x="455" d="M205 615Q205 576 193 548T162 501T119 474T70 465V500Q96 500 118 517T145 565Q142 563 138 562Q130 560 120 560Q90 560 70 582T50 635Q50 665 70 687T125 710Q163 710 184 682T205
615ZM405 615Q405 576 393 548T362 501T319 474T270 465V500Q296 500 318 517T345 565Q342 563 338 562Q330 560 320 560Q290 560 270 582T250 635Q250 665 270 687T325 710Q363 710 384 682T405 615Z" />
<glyph unicode="&#x201e;" glyph-name="quotedblbase" horiz-adv-x="455" d="M205 45Q205 6 193 -22T162 -69T119 -96T70 -105V-70Q96 -70 118 -53T145 -5Q142 -7 138 -8Q130 -10 120 -10Q90 -10 70 12T50 65Q50 95 70 117T125 140Q163 140 184 112T205 45ZM405
45Q405 6 393 -22T362 -69T319 -96T270 -105V-70Q296 -70 318 -53T345 -5Q342 -7 338 -8Q330 -10 320 -10Q290 -10 270 12T250 65Q250 95 270 117T325 140Q363 140 384 112T405 45Z" />
<glyph unicode="&#x2022;" glyph-name="bullet" horiz-adv-x="380" d="M310 300Q310 247 277 214T190 180Q137 180 104 213T70 300Q70 353 103 386T190 420Q243 420 276 387T310 300Z" />
<glyph unicode="&#x2039;" glyph-name="guilsinglleft" horiz-adv-x="390" d="M380 80L305 0L30 260L305 520L380 440L190 260L380 80Z" />
<glyph unicode="&#x203a;" glyph-name="guilsinglright" horiz-adv-x="390" d="M220 260L30 440L105 520L380 260L105 0L30 80L220 260Z" />
</font>
</defs>
</svg>
