<?xml version="1.0" standalone="no"?>
<!DOCTYPE svg PUBLIC "-//W3C//DTD SVG 1.1//EN" "http://www.w3.org/Graphics/SVG/1.1/DTD/svg11.dtd">
<svg xmlns="http://www.w3.org/2000/svg">
<defs >
<font id="Carme" horiz-adv-x="942" ><font-face
    font-family="Carme"
    units-per-em="2048"
    panose-1="2 0 0 0 0 0 0 0 0 0"
    ascent="1946"
    descent="-513"
    alphabetic="0" />
<glyph unicode=" " glyph-name="space" horiz-adv-x="471" />
<glyph unicode="!" glyph-name="exclam" horiz-adv-x="614" d="M205 0V205H410V0H205ZM205 412V1434H410V412H205Z" />
<glyph unicode="&quot;" glyph-name="quotedbl" horiz-adv-x="983" d="M287 1577H451L430 1210H307L287 1577ZM532 1577H696L676 1210H553L532 1577Z" />
<glyph unicode="#" glyph-name="numbersign" horiz-adv-x="1312" d="M41 348V471H242L322 963H41V1085H342L399 1434H563L506 1085H936L993 1434H1157L1100 1085H1270V963H1079L999 471H1270V348H979L924 0H760L815 348H385L330 0H166L221 348H41ZM406 471H836L915
963H485L406 471Z" />
<glyph unicode="$" glyph-name="dollar" horiz-adv-x="954" d="M37 1106Q37 1247 146 1342T414 1458V1556H557V1460Q690 1440 778 1391Q823 1366 862 1337L793 1186Q748 1219 723 1233Q635 1282 557 1300V811Q657 756 705 724T812 639T894 523T918 373Q918 230
815 122T557 -18V-184H414V-29Q275 -21 139 63Q88 96 37 143L109 297Q164 250 207 221Q328 139 414 127V711Q215 815 152 870Q37 971 37 1106ZM221 1106Q221 989 414 889V1300Q330 1282 276 1233T221 1106ZM557 143Q635 170 684 230T733 373Q733 516 557 631V143Z"
/>
<glyph unicode="%" glyph-name="percent" horiz-adv-x="1298" d="M51 1174Q51 1295 132 1379T328 1464Q445 1464 525 1379T606 1174Q606 1055 525 970T328 885Q213 885 132 970T51 1174ZM154 0L946 1434H1130L338 0H154ZM174 1174Q174 1106 218 1057T327 1008T438
1057T483 1174Q483 1244 438 1292T328 1341T218 1293T174 1174ZM690 258Q690 379 771 464T967 549Q1084 549 1164 464T1245 258Q1245 139 1164 54T967 -31Q852 -31 771 54T690 258ZM813 258Q813 190 857 141T966 92T1077 141T1122 258Q1122 328 1077 377T967 426T857
377T813 258Z" />
<glyph unicode="&amp;" glyph-name="ampersand" horiz-adv-x="1314" d="M53 354Q53 485 134 584T356 780Q196 952 197 1143Q197 1166 199 1190T218 1268T265 1362T359 1432T514 1464Q719 1464 807 1303Q846 1229 848 1143Q848 950 616 758L881 455Q932 574 932
676H1116Q1116 479 1016 307L1290 0H1028L897 152Q711 -30 489 -31Q301 -31 177 80T53 354ZM238 371Q238 285 310 220T494 154Q639 154 774 295L467 649Q350 567 294 506T238 371ZM381 1157Q381 1044 508 889Q664 1016 664 1157Q662 1194 645 1229Q606 1301 520
1300Q430 1300 397 1229Q385 1200 381 1157Z" />
<glyph unicode="&apos;" glyph-name="quotesingle" horiz-adv-x="583" d="M188 1210L229 1577H393L311 1210H188Z" />
<glyph unicode="(" glyph-name="parenleft" horiz-adv-x="606" d="M29 522Q29 985 406 1434H569Q194 957 195 518Q195 82 569 -410H406Q29 67 29 522Z" />
<glyph unicode=")" glyph-name="parenright" horiz-adv-x="604" d="M35 -410Q410 82 410 518Q410 956 35 1434H199Q576 985 575 522Q575 67 199 -410H35Z" />
<glyph unicode="*" glyph-name="asterisk" horiz-adv-x="935" d="M31 1092Q37 1115 55 1164T82 1241L387 1137V1464H547V1137L858 1241Q866 1214 883 1163T907 1092L598 987L788 725Q725 674 659 631L469 893L276 631L145 725L338 987Q213 1026 31 1092Z" />
<glyph unicode="+" glyph-name="plus" horiz-adv-x="892" d="M16 616V801H354V1118H539V801H877V616H539V299H354V616H16Z" />
<glyph unicode="," glyph-name="comma" horiz-adv-x="583" d="M168 -252L229 219H434L311 -252H168Z" />
<glyph unicode="-" glyph-name="hyphen" horiz-adv-x="774" d="M80 365V549H694V365H80Z" />
<glyph unicode="." glyph-name="period" horiz-adv-x="583" d="M188 0V219H393V0H188Z" />
<glyph unicode="/" glyph-name="slash" horiz-adv-x="571" d="M14 0L373 1434H557L199 0H14Z" />
<glyph unicode="0" glyph-name="zero" horiz-adv-x="1269" d="M61 393T61 716T211 1252T643 1464Q919 1464 1063 1253T1208 717T1064 180T643 -31Q362 -31 212 181ZM246 975T246 717T348 292T643 125Q831 125 927 291T1024 717T928 1143T643 1309Q450 1309 348 1142Z" />
<glyph unicode="1" glyph-name="one" horiz-adv-x="1269" d="M348 1229V1372L780 1434V0H596V1264L348 1229Z" />
<glyph unicode="2" glyph-name="two" horiz-adv-x="1269" d="M186 1305Q247 1350 311 1384Q467 1464 602 1464Q780 1464 923 1346T1067 1034Q1067 788 719 449L449 184H1083V0H215V184L614 580Q882 848 883 1026Q883 1163 806 1236T598 1309Q500 1309 385 1243Q342
1220 289 1178L186 1305Z" />
<glyph unicode="3" glyph-name="three" horiz-adv-x="1269" d="M174 143L301 244Q356 189 442 153T614 117Q743 117 826 204T909 426Q909 555 832 643T616 731V885Q718 885 772 942T827 1090Q827 1178 773 1246T606 1315Q463 1315 340 1221L246 1341Q406 1464
602 1464Q797 1464 906 1357T1016 1106Q1016 1008 963 921T813 811Q907 795 974 729T1070 584T1098 426T1067 268T978 122T820 11T592 -31Q305 -31 174 143Z" />
<glyph unicode="4" glyph-name="four" horiz-adv-x="1269" d="M154 326V457L758 1434H942V457H1116V326H942V0H758V326H154ZM352 457H758V1155L352 457Z" />
<glyph unicode="5" glyph-name="five" horiz-adv-x="1269" d="M172 25L213 184Q270 166 311 156Q430 127 537 127Q689 127 798 205T907 463Q907 629 802 732T475 836H225V1434H975V1298H422V991H479Q784 989 941 852T1098 463Q1098 232 948 101T520 -31Q373 -31
262 -4Q213 9 172 25Z" />
<glyph unicode="6" glyph-name="six" horiz-adv-x="1269" d="M135 694Q135 1077 282 1270T705 1464Q822 1464 948 1427Q995 1413 1044 1393L985 1249Q924 1269 893 1278Q774 1309 705 1309Q535 1309 426 1157T317 774Q358 856 451 907T676 958Q897 958 1016 833T1135
485Q1135 233 993 101T639 -31Q401 -31 268 155T135 694ZM342 477Q342 325 431 225T651 125Q788 125 869 218T950 479Q950 629 873 712T668 795Q551 795 447 717T342 477Z" />
<glyph unicode="7" glyph-name="seven" horiz-adv-x="1269" d="M246 1298V1434H1024L512 0H328L791 1298H246Z" />
<glyph unicode="8" glyph-name="eight" horiz-adv-x="1269" d="M141 406Q141 551 221 665T434 811Q338 834 283 926T227 1116Q227 1259 332 1361T637 1464T941 1362T1047 1116Q1047 1018 991 926T840 811Q973 780 1051 666T1130 406Q1130 230 1010 100T637 -31Q506
-31 407 8T252 111T169 251T141 406ZM326 406Q326 119 637 119T948 406Q948 562 868 648T637 735T406 649T326 406ZM412 1100Q412 1008 470 947T636 885T803 946T862 1100Q862 1190 809 1257T637 1325T465 1258T412 1100Z" />
<glyph unicode="9" glyph-name="nine" horiz-adv-x="1269" d="M135 948Q135 1200 277 1332T631 1464Q869 1464 1002 1278T1135 739Q1135 354 988 162T565 -31Q442 -31 322 4Q267 20 225 41L285 184Q328 166 377 154Q488 125 565 125Q735 125 843 277T952 659Q911
577 818 526T594 475Q373 475 254 601T135 948ZM319 954Q319 804 397 722T602 639Q719 639 823 717T928 956Q928 1108 839 1208T618 1309Q481 1309 400 1216T319 954Z" />
<glyph unicode=":" glyph-name="colon" horiz-adv-x="583" d="M190 0V219H395V0H190ZM190 682V901H395V682H190Z" />
<glyph unicode=";" glyph-name="semicolon" horiz-adv-x="583" d="M158 -252L219 219H424L301 -252H158ZM219 682V901H424V682H219Z" />
<glyph unicode="&lt;" glyph-name="less" horiz-adv-x="1054" d="M8 575V817L977 1217V1032L152 696L977 365V180L8 575Z" />
<glyph unicode="=" glyph-name="equal" horiz-adv-x="1101" d="M80 365V549H1022V365H80ZM80 803V987H1022V803H80Z" />
<glyph unicode="&gt;" glyph-name="greater" horiz-adv-x="1056" d="M80 180V365L905 696L80 1032V1217L1049 817V575L80 180Z" />
<glyph unicode="?" glyph-name="question" horiz-adv-x="983" d="M66 1350Q224 1465 463 1464Q580 1464 672 1423T815 1317T892 1183T918 1049Q918 945 880 856T788 705T678 588T585 471T547 344H362Q362 418 395 488T462 599T567 715Q620 772 647 805T703 906T733
1049Q733 1145 665 1230T463 1315Q293 1315 172 1227L66 1350ZM362 0V184H547V0H362Z" />
<glyph unicode="@" glyph-name="at" horiz-adv-x="1624" d="M55 481Q55 786 284 1007T823 1229Q1130 1229 1350 1009T1571 481Q1571 227 1477 78T1245 -72Q1073 -72 1014 160Q994 127 954 96Q872 35 760 35Q596 35 497 161T397 453Q397 631 515 764T846 897Q965
897 1063 850Q1102 830 1135 803V340Q1135 211 1166 145T1245 78Q1325 78 1355 172T1386 481Q1386 729 1222 904T824 1079T415 903T240 481Q240 233 404 58T803 -117Q879 -117 946 -102Q987 -94 1008 -88L1036 -238Q1018 -244 977 -252Q909 -266 803 -266Q496 -266
276 -46T55 481ZM532 449Q532 334 598 247T770 160Q901 160 993 254V735Q985 741 958 752Q907 770 852 770Q700 770 616 674T532 449Z" />
<glyph unicode="A" glyph-name="A" horiz-adv-x="1538" d="M82 0L674 1434H858L1456 0H1272L1071 479H463L266 0H82ZM520 614H1016L766 1245L520 614Z" />
<glyph unicode="B" glyph-name="B" horiz-adv-x="1300" d="M176 0V1434H668Q795 1434 888 1399T1028 1307T1095 1192T1116 1075Q1116 907 981 815Q1212 706 1212 453Q1212 254 1072 127T682 0H176ZM360 135H647Q1028 135 1028 453Q1028 598 940 664T666 735H360V135ZM360
872H633Q803 872 867 918T932 1075Q932 1190 867 1244T633 1298Q602 1296 537 1296H360V872Z" />
<glyph unicode="C" glyph-name="C" horiz-adv-x="1413" d="M123 410T123 717T343 1244T870 1464Q1120 1464 1325 1309L1206 1190Q1050 1309 870 1309Q637 1309 472 1135T307 717T472 299T870 125Q1054 125 1206 242L1325 123Q1118 -31 870 -31Q563 -31 343 189Z" />
<glyph unicode="D" glyph-name="D" horiz-adv-x="1466" d="M176 0V1434H616Q940 1434 1141 1225T1343 717T1142 209T616 0H176ZM360 135H535Q685 135 799 174T980 272T1088 413T1144 566T1159 717T1145 867T1089 1021T980 1161T799 1259T535 1298H360V135Z" />
<glyph unicode="E" glyph-name="E" horiz-adv-x="1177" d="M176 0V1434H1090V1303H360V848H967V717H360V131H1090V0H176Z" />
<glyph unicode="F" glyph-name="F" horiz-adv-x="1085" d="M176 0V1434H997V1303H360V848H911V717H360V0H176Z" />
<glyph unicode="G" glyph-name="G" horiz-adv-x="1488" d="M123 410T123 717T343 1244T870 1464Q1120 1464 1325 1309L1206 1190Q1050 1309 870 1309Q637 1309 472 1135T307 717T472 299T870 125Q1069 125 1223 256V614H948V745H1407V197Q1344 134 1284 94Q1096
-31 870 -31Q563 -31 343 189Z" />
<glyph unicode="H" glyph-name="H" horiz-adv-x="1437" d="M176 0V1434H360V784H1077V1434H1262V0H1077V649H360V0H176Z" />
<glyph unicode="I" glyph-name="I" horiz-adv-x="536" d="M176 0V1434H360V0H176Z" />
<glyph unicode="J" glyph-name="J" horiz-adv-x="702" d="M82 -37V106Q238 110 290 189T342 479V1434H526V672Q526 551 524 472T514 316T493 191T456 100T402 35T323 -5T218 -29T82 -37Z" />
<glyph unicode="K" glyph-name="K" horiz-adv-x="1355" d="M176 0V1434H360V684L1016 1434H1221L664 803L1274 0H1057L547 666L360 453V0H176Z" />
<glyph unicode="L" glyph-name="L" horiz-adv-x="1136" d="M176 0V1434H360V135H1055V0H176Z" />
<glyph unicode="M" glyph-name="M" horiz-adv-x="1581" d="M156 0V1434H340L780 801L1221 1434H1405V0H1221V1147L850 631H709L340 1145V0H156Z" />
<glyph unicode="N" glyph-name="N" horiz-adv-x="1398" d="M156 0V1434H340L1059 307V1434H1243V0H1059L340 1128V0H156Z" />
<glyph unicode="O" glyph-name="O" horiz-adv-x="1740" d="M123 406T123 717T332 1246T860 1464T1399 1245T1618 717T1399 189T861 -31T332 187ZM307 965T307 717T462 297T860 125T1268 298T1434 717T1268 1136T860 1309T463 1137Z" />
<glyph unicode="P" glyph-name="P" horiz-adv-x="1290" d="M176 0V1434H672Q877 1434 1022 1294T1167 957T1022 621T672 481H360V0H176ZM360 616H672Q801 616 892 715T983 956T892 1198T672 1298H360V616Z" />
<glyph unicode="Q" glyph-name="Q" horiz-adv-x="1638" d="M123 717Q123 1024 326 1244T819 1464T1312 1244T1516 717Q1516 453 1362 249T973 -12L1391 -121V-276L612 0Q395 80 259 273T123 717ZM307 963T307 717T456 298T819 125T1181 298T1331 717T1182 1136T819
1309T457 1136Z" />
<glyph unicode="R" glyph-name="R" horiz-adv-x="1228" d="M176 0V1434H631Q838 1434 982 1304T1126 977Q1126 830 1044 717T823 555L1147 0H963L659 522H360V0H176ZM360 657H631Q762 657 852 747T942 977T852 1207T631 1298H360V657Z" />
<glyph unicode="S" glyph-name="S" horiz-adv-x="1101" d="M111 1106Q111 1264 247 1364T561 1464Q698 1464 834 1401Q879 1381 936 1337L866 1186Q821 1221 772 1247Q657 1308 561 1309Q457 1309 376 1256T295 1106Q295 1067 310 1034T364 972L422 927Q442 912
498 883T561 850L656 798Q725 760 750 743L825 693Q876 659 897 632T944 564T981 477T991 373Q991 201 848 85T520 -31Q366 -31 223 55Q160 92 111 143L182 297Q239 246 295 211Q426 125 520 125Q639 125 723 194T807 373Q807 469 736 545T561 673L356 780Q254
835 183 917T111 1106Z" />
<glyph unicode="T" glyph-name="T" horiz-adv-x="1085" d="M20 1298V1434H1065V1298H635V0H451V1298H20Z" />
<glyph unicode="U" glyph-name="U" horiz-adv-x="1519" d="M176 532V1434H360V492Q360 402 401 331T506 220T639 160T770 139T901 159T1033 220T1139 330T1180 492V1434H1364V532Q1364 399 1322 296T1217 134T1069 35T914 -17T770 -31Q700 -31 627 -18T470 35T324
134T218 298T176 532Z" />
<glyph unicode="V" glyph-name="V" horiz-adv-x="1359" d="M82 1434H264L680 240L1094 1434H1278L772 0H588L82 1434Z" />
<glyph unicode="W" glyph-name="W" horiz-adv-x="2011" d="M82 1434H266L582 272L928 1434H1110L1427 272L1745 1434H1929L1520 0H1335L1020 1159L674 0H489L82 1434Z" />
<glyph unicode="X" glyph-name="X" horiz-adv-x="1345" d="M82 0L561 715L82 1434H305L672 881L1040 1434H1264L784 715L1264 0H1038L672 547L307 0H82Z" />
<glyph unicode="Y" glyph-name="Y" horiz-adv-x="1292" d="M82 1434H266L637 819L1026 1434H1210L721 657V0H549V657L82 1434Z" />
<glyph unicode="Z" glyph-name="Z" horiz-adv-x="1218" d="M88 0V135L905 1298H88V1434H1130V1298L313 135H1130V0H88Z" />
<glyph unicode="[" glyph-name="bracketleft" horiz-adv-x="651" d="M80 -410V1434H621V1249H264V-225H621V-410H80Z" />
<glyph unicode="\" glyph-name="backslash" horiz-adv-x="571" d="M14 1434H199L557 0H373L14 1434Z" />
<glyph unicode="]" glyph-name="bracketright" horiz-adv-x="651" d="M33 -225H389V1249H33V1434H573V-410H33V-225Z" />
<glyph unicode="_" glyph-name="underscore" horiz-adv-x="1331" d="M80 -209H1251V-393H80V-209Z" />
<glyph unicode="`" glyph-name="grave" horiz-adv-x="610" d="M80 1536H305L506 1264H322L80 1536Z" />
<glyph unicode="a" glyph-name="a" horiz-adv-x="1099" d="M111 324Q111 461 211 553T492 645H764V723Q764 817 727 857T590 897Q516 897 365 881L227 864V1024Q338 1032 391 1038Q571 1054 659 1055Q804 1055 872 973T940 784V0H811L782 100H776Q598 -21 434
-20Q278 -20 195 85T111 324ZM289 324Q289 244 331 181T469 117Q537 117 621 146T762 215H764V508H492Q289 508 289 324Z" />
<glyph unicode="b" glyph-name="b" horiz-adv-x="1150" d="M143 0V1536H313V999Q471 1054 612 1055Q725 1055 811 1010T945 890T1016 728T1040 549Q1040 279 900 140T459 0H143ZM313 158H459Q676 158 771 252T866 555Q866 692 804 794T610 897Q436 897 313 848V158Z" />
<glyph unicode="c" glyph-name="c" horiz-adv-x="1028" d="M111 287T111 512T268 896T649 1055Q786 1055 926 1024V868Q787 899 649 899Q493 899 386 786T279 512T386 239T649 125Q786 125 926 156V0Q787 -31 649 -31Q426 -31 269 128Z" />
<glyph unicode="d" glyph-name="d" horiz-adv-x="1153" d="M111 547Q111 682 156 793T303 980T547 1055Q694 1055 836 975V1536H1010V0H887L862 76Q725 -30 565 -31Q375 -31 243 139T111 547ZM285 563Q285 385 371 256T592 127Q721 127 836 205V829Q705 907 561
907Q436 907 361 816T285 563Z" />
<glyph unicode="e" glyph-name="e" horiz-adv-x="1120" d="M111 516Q111 762 242 908T588 1055Q1016 1055 1016 451H281Q291 324 374 225T627 125Q824 125 965 190V29Q811 -30 649 -31Q508 -31 403 13T235 134T142 307T111 516ZM287 586H840Q826 723 764 811T584
899Q467 899 385 813T287 586Z" />
<glyph unicode="f" glyph-name="f" horiz-adv-x="872" d="M111 866V1024H270V1268Q270 1389 344 1462T526 1536H778V1378H618Q512 1378 478 1335T444 1176V1024H715V866H444V0H270V866H111Z" />
<glyph unicode="g" glyph-name="g" horiz-adv-x="1185" d="M143 508Q143 649 188 770T334 973T578 1055Q703 1055 887 965L915 1024H1026V-143Q1026 -317 924 -414Q820 -512 618 -512Q401 -512 178 -393L266 -260Q446 -356 618 -356Q854 -356 854 -143V39Q725
-31 606 -31Q385 -31 264 125T143 508ZM313 520Q313 442 328 376T378 248T476 152T631 117Q762 117 854 168V850Q711 916 602 915Q471 915 392 812T313 520Z" />
<glyph unicode="h" glyph-name="h" horiz-adv-x="1173" d="M152 0V1536H322V952Q492 1054 653 1055Q809 1055 911 966T1014 725V0H840V725Q840 893 633 893Q488 893 322 782V0H152Z" />
<glyph unicode="i" glyph-name="i" horiz-adv-x="514" d="M164 0V1024H338V0H164ZM164 1276V1434H338V1276H164Z" />
<glyph unicode="j" glyph-name="j" horiz-adv-x="581" d="M143 -356Q194 -356 231 -308T268 -186V1024H438V-186Q438 -327 351 -419T143 -512V-356ZM268 1276V1434H438V1276H268Z" />
<glyph unicode="k" glyph-name="k" horiz-adv-x="1124" d="M152 0V1536H322V625L702 1024H936L582 655L1030 0H817L461 530L322 385V0H152Z" />
<glyph unicode="l" glyph-name="l" horiz-adv-x="501" d="M152 0V1536H326V0H152Z" />
<glyph unicode="m" glyph-name="m" horiz-adv-x="1585" d="M143 0V1024H266L287 965Q402 1055 535 1055Q613 1055 691 1027T815 948Q934 1054 1083 1055Q1204 1055 1306 995T1409 829V0H1235V748Q1235 898 1057 897Q946 897 862 829V0H688V748Q688 898 510 897Q395
897 313 827V0H143Z" />
<glyph unicode="n" glyph-name="n" horiz-adv-x="1165" d="M143 0V1024H266L293 946Q461 1055 625 1055Q795 1055 900 974T1006 727V0H831V727Q831 897 625 897Q465 897 313 791V0H143Z" />
<glyph unicode="o" glyph-name="o" horiz-adv-x="1304" d="M111 283T111 512T262 898T651 1055Q887 1055 1040 897T1194 512T1041 127T651 -31Q413 -31 262 126ZM276 676T276 512T378 237T651 125Q819 125 922 236T1026 512T923 787T651 899Q481 899 379 788Z" />
<glyph unicode="p" glyph-name="p" horiz-adv-x="1163" d="M152 -512V1024H262L289 967Q469 1055 616 1055Q757 1055 860 973T1008 772T1053 518Q1053 282 934 126T598 -31Q453 -31 322 37V-512H152ZM322 168Q420 117 569 117Q686 117 758 180T856 332T881 537Q881
703 801 809T602 915Q479 915 322 850V168Z" />
<glyph unicode="q" glyph-name="q" horiz-adv-x="1173" d="M111 485Q111 596 144 695T244 876T426 1006T688 1055Q776 1055 911 1034Q997 1020 1030 1014V-512H858V33Q704 -20 569 -20Q362 -20 237 135T111 485ZM281 485Q281 354 362 246T569 137Q686 137 856
203V879L793 887Q736 897 688 897Q487 897 384 777T281 485Z" />
<glyph unicode="r" glyph-name="r" horiz-adv-x="839" d="M143 0V1024H266L291 952Q422 1052 524 1053Q635 1053 729 1004L662 866Q574 897 500 897Q398 897 313 821V0H143Z" />
<glyph unicode="s" glyph-name="s" horiz-adv-x="1030" d="M111 133L221 250Q260 219 322 186Q441 125 526 125Q602 125 676 167T750 285Q750 355 679 399T440 506Q370 531 332 547T243 595T169 670T145 768Q145 897 264 976T532 1055Q643 1055 770 1001Q823 978
870 948L766 823Q733 843 694 860Q604 899 532 899Q448 899 382 862T315 768Q315 750 331 733T384 699T445 672T518 645Q633 602 689 577T807 508T895 412T920 285Q920 181 850 106T694 0T526 -31Q401 -31 242 51Q172 88 111 133Z" />
<glyph unicode="t" glyph-name="t" horiz-adv-x="823" d="M111 866V1024H285V1321H459V1024H713V866H459V301Q459 225 482 192T586 158H692V0H508Q408 0 347 53T285 197V866H111Z" />
<glyph unicode="u" glyph-name="u" horiz-adv-x="1165" d="M160 313V1024H330V313Q330 227 405 180T582 133Q684 133 759 180T834 313V1024H1006V313Q1006 153 876 61T582 -31T289 60T160 313Z" />
<glyph unicode="v" glyph-name="v" horiz-adv-x="1185" d="M94 1024H279L592 180L907 1024H1092L690 0H494L94 1024Z" />
<glyph unicode="w" glyph-name="w" horiz-adv-x="1671" d="M94 1024H279L512 213L750 1024H922L1157 213L1393 1024H1577L1255 0H1059L834 809L610 0H416L94 1024Z" />
<glyph unicode="x" glyph-name="x" horiz-adv-x="1136" d="M94 0L473 512L94 1024H287L569 641L852 1024H1042L662 512L1042 0H852L569 383L287 0H94Z" />
<glyph unicode="y" glyph-name="y" horiz-adv-x="1142" d="M94 1024H289L569 274L856 1024H1049L459 -512H266L485 51L94 1024Z" />
<glyph unicode="z" glyph-name="z" horiz-adv-x="956" d="M111 0V156L662 868H111V1024H846V868L295 156H846V0H111Z" />
<glyph unicode="{" glyph-name="braceleft" horiz-adv-x="651" d="M14 449V575Q90 575 134 619T194 746T215 951T213 1229Q213 1551 602 1536V1352Q551 1352 523 1348T461 1327T413 1272T397 1167Q397 1015 387 907T352 704T276 560T152 512Q226 512 276 464T351
321T387 117T397 -143Q397 -209 412 -248T461 -303T522 -323T602 -328V-512Q213 -526 213 -205Q219 -49 215 73T195 277T134 404T14 449Z" />
<glyph unicode="|" glyph-name="bar" horiz-adv-x="339" d="M80 -512V1536H264V-512H80Z" />
<glyph unicode="}" glyph-name="braceright" horiz-adv-x="653" d="M51 -328Q102 -328 131 -324T192 -303T240 -248T256 -143V-8Q256 37 259 112T267 227T281 321T306 403T342 459T393 500T461 512Q424 512 393 523T342 564T307 620T282 702T267 797T259 911T256
1032V1167Q256 1233 241 1272T193 1327T131 1347T51 1352V1536Q68 1537 84 1537Q441 1537 440 1229Q436 1136 437 1054Q437 1000 438 951Q442 829 458 747T519 620T639 575V449Q563 449 519 405T459 278T438 73Q436 24 437 -30Q437 -111 440 -205Q440 -513 84 -513Q68
-513 51 -512V-328Z" />
<glyph unicode="&#xa0;" glyph-name="uni00A0" horiz-adv-x="471" />
<glyph unicode="&#xa1;" glyph-name="exclamdown" horiz-adv-x="614" d="M205 -205V817H410V-205H205ZM205 1024V1229H410V1024H205Z" />
<glyph unicode="&#xa2;" glyph-name="cent" horiz-adv-x="937" d="M47 317T47 512T170 856T479 1042V1251H623V1055Q725 1053 862 1024V868Q725 897 623 899V125Q742 127 862 156V0Q725 -29 623 -31V-203H479V-18Q293 19 170 168ZM215 641T215 512T288 281T479
141V883Q362 846 289 744Z" />
<glyph unicode="&#xa8;" glyph-name="dieresis" horiz-adv-x="696" d="M80 1348V1536H254V1348H80ZM438 1348V1536H612V1348H438Z" />
<glyph unicode="&#xa9;" glyph-name="copyright" horiz-adv-x="1306" d="M219 848T219 1030T340 1338T651 1464Q839 1464 962 1338T1085 1030T963 722T651 596Q461 596 340 722ZM352 1161T352 1030T434 810T651 721T868 810T950 1030T868 1250T651 1339T434 1250ZM451
1022Q451 1114 512 1176T664 1239Q721 1239 776 1227V1165Q721 1177 664 1178Q605 1178 561 1132T516 1022T560 913T664 868Q715 868 776 879V817Q721 805 664 805Q576 805 514 868T451 1022Z" />
<glyph unicode="&#xaa;" glyph-name="ordfeminine" horiz-adv-x="452" d="M55 1036T55 1093T93 1190T203 1229H297V1249Q297 1310 240 1311L98 1296V1376Q204 1388 266 1389Q325 1389 352 1354T379 1274V958H315L305 991Q244 950 184 950Q121 950 88 993ZM139
1094Q139 1020 195 1020Q246 1020 297 1055V1157H203Q139 1157 139 1094Z" />
<glyph unicode="&#xac;" glyph-name="logicalnot" horiz-adv-x="1122" d="M16 616V801H1020V352H813V616H16Z" />
<glyph unicode="&#xad;" glyph-name="uni00AD" horiz-adv-x="774" d="M80 365V549H694V365H80Z" />
<glyph unicode="&#xae;" glyph-name="registered" horiz-adv-x="1294" d="M219 848T219 1030T340 1338T651 1464Q839 1464 962 1338T1085 1030T963 722T651 596Q461 596 340 722ZM352 1161T352 1030T434 810T651 721T868 810T950 1030T868 1250T651 1339T434 1250ZM524
821V1231H653Q710 1231 752 1193T795 1100Q795 1059 770 1026T707 979L801 821H748L662 971H575V821H524ZM575 1010H653Q692 1010 717 1034T743 1100T718 1166T653 1192H575V1010Z" />
<glyph unicode="&#xb0;" glyph-name="degree" horiz-adv-x="552" d="M57 1069T57 1161T118 1317T276 1382T435 1318T498 1161T436 1005T277 940T119 1004ZM137 1223T137 1162T175 1058T276 1016T378 1058T416 1161T378 1265T277 1307T175 1265Z" />
<glyph unicode="&#xb1;" glyph-name="plusminus" horiz-adv-x="915" d="M16 0V184H877V0H16ZM16 616V801H354V1118H539V801H877V616H539V299H354V616H16Z" />
<glyph unicode="&#xb2;" glyph-name="uni00B2" horiz-adv-x="491" d="M63 1331Q88 1347 121 1364Q191 1399 236 1399Q310 1399 369 1350T428 1221Q428 1127 289 987L197 893H432V807H78V891L238 1049Q340 1151 340 1219Q340 1268 311 1296T236 1325Q187 1325 113
1272Q109 1278 91 1298L63 1331Z" />
<glyph unicode="&#xb3;" glyph-name="uni00B3" horiz-adv-x="483" d="M51 872L113 922Q166 869 233 868Q282 868 312 900T342 983Q342 1030 313 1061T227 1096V1171Q311 1181 311 1245Q311 1276 292 1301T231 1327Q184 1327 125 1286L78 1346Q160 1399 229 1399Q309
1399 355 1354T401 1251Q401 1192 344 1137Q385 1110 408 1066T432 983Q432 913 379 854T225 795Q110 794 51 872Z" />
<glyph unicode="&#xb4;" glyph-name="acute" horiz-adv-x="657" d="M100 1264L301 1536H526L285 1264H100Z" />
<glyph unicode="&#xb8;" glyph-name="cedilla" horiz-adv-x="563" d="M94 -426L119 -309Q174 -317 209 -317Q336 -317 336 -240Q336 -154 168 -154L203 10H362L340 -86Q492 -113 492 -240Q492 -334 411 -385T205 -436Q160 -436 94 -426Z" />
<glyph unicode="&#xb9;" glyph-name="uni00B9" horiz-adv-x="280" d="M16 1290V1362L205 1389V807H117V1305L16 1290Z" />
<glyph unicode="&#xba;" glyph-name="ordmasculine" horiz-adv-x="1304" d="M111 283T111 512T262 898T651 1055Q887 1055 1040 897T1194 512T1041 127T651 -31Q413 -31 262 126ZM276 676T276 512T378 237T651 125Q819 125 922 236T1026 512T923 787T651 899Q481
899 379 788Z" />
<glyph unicode="&#xbc;" glyph-name="onequarter" horiz-adv-x="3719" d="M348 1229V1372L780 1434V0H596V1264L348 1229ZM1276 -57L2259 1434H2443L1460 -57H1276ZM2603 326V457L3207 1434H3391V457H3566V326H3391V0H3207V326H2603ZM2802 457H3207V1155L2802 457Z" />
<glyph unicode="&#xbd;" glyph-name="onehalf" horiz-adv-x="3719" d="M348 1229V1372L780 1434V0H596V1264L348 1229ZM1276 -57L2259 1434H2443L1460 -57H1276ZM2636 1305Q2697 1350 2761 1384Q2917 1464 3052 1464Q3230 1464 3373 1346T3516 1034Q3516 788 3168
449L2898 184H3533V0H2664V184L3064 580Q3332 848 3332 1026Q3332 1163 3255 1236T3047 1309Q2949 1309 2834 1243Q2791 1220 2738 1178L2636 1305Z" />
<glyph unicode="&#xbe;" glyph-name="threequarters" horiz-adv-x="3719" d="M174 143L301 244Q356 189 442 153T614 117Q743 117 826 204T909 426Q909 555 832 643T616 731V885Q718 885 772 942T827 1090Q827 1178 773 1246T606 1315Q463 1315 340 1221L246 1341Q406
1464 602 1464Q797 1464 906 1357T1016 1106Q1016 1008 963 921T813 811Q907 795 974 729T1070 584T1098 426T1067 268T978 122T820 11T592 -31Q305 -31 174 143ZM1276 -57L2259 1434H2443L1460 -57H1276ZM2603 326V457L3207 1434H3391V457H3566V326H3391V0H3207V326H2603ZM2802
457H3207V1155L2802 457Z" />
<glyph unicode="&#xbf;" glyph-name="questiondown" horiz-adv-x="983" d="M66 180Q66 284 103 373T197 524L306 641Q360 696 398 757T436 885H621Q621 811 588 741T521 630T416 514Q363 457 336 424T280 323T250 180Q250 84 318 -1T520 -86Q690 -86 811 2L918
-121Q760 -236 520 -236Q403 -236 311 -195T168 -89T92 45T66 180ZM436 1044V1229H621V1044H436Z" />
<glyph unicode="&#xc0;" glyph-name="Agrave" horiz-adv-x="1538" d="M82 0L674 1434H858L1456 0H1272L1071 479H463L266 0H82ZM514 1946H739L940 1673H756L514 1946ZM520 614H1016L766 1245L520 614Z" />
<glyph unicode="&#xc1;" glyph-name="Aacute" horiz-adv-x="1538" d="M82 0L674 1434H858L1456 0H1272L1071 479H463L266 0H82ZM520 614H1016L766 1245L520 614ZM596 1673L797 1946H1022L780 1673H596Z" />
<glyph unicode="&#xc2;" glyph-name="Acircumflex" horiz-adv-x="1538" d="M82 0L674 1434H858L1456 0H1272L1071 479H463L266 0H82ZM442 1673L643 1946H893L1094 1673H909L768 1874L627 1673H442ZM520 614H1016L766 1245L520 614Z" />
<glyph unicode="&#xc3;" glyph-name="Atilde" horiz-adv-x="1538" d="M82 0L674 1434H858L1456 0H1272L1071 479H463L266 0H82ZM459 1722Q459 1816 516 1881T633 1946Q678 1946 768 1903Q838 1866 887 1866Q938 1868 942 1946H1077Q1077 1856 1036 1789T913 1722Q862
1722 745 1772Q675 1803 649 1802Q631 1802 616 1782T594 1741L588 1722H459ZM520 614H1016L766 1245L520 614Z" />
<glyph unicode="&#xc4;" glyph-name="Adieresis" horiz-adv-x="1538" d="M82 0L674 1434H858L1456 0H1272L1071 479H463L266 0H82ZM502 1757V1946H676V1757H502ZM520 614H1016L766 1245L520 614ZM860 1757V1946H1034V1757H860Z" />
<glyph unicode="&#xc5;" glyph-name="Aring" horiz-adv-x="1538" d="M82 0L674 1434H858L1456 0H1272L1071 479H463L266 0H82ZM520 614H1016L766 1245L520 614ZM600 1708T600 1777T649 1896T768 1946T887 1897T936 1778T887 1659T768 1610T649 1659ZM682 1812T682
1778T707 1718T768 1692T828 1717T854 1777T829 1838T768 1864T708 1838Z" />
<glyph unicode="&#xc6;" glyph-name="AE" horiz-adv-x="1927" d="M84 0L801 1434H1841V1303H1112V848H1718V717H1112V131H1841V0H928V479H506L268 0H84ZM575 614H928V1303L575 614Z" />
<glyph unicode="&#xc7;" glyph-name="Ccedilla" horiz-adv-x="1310" d="M49 717Q49 1024 269 1244T797 1464Q1047 1464 1251 1309L1133 1190Q977 1309 797 1309Q564 1309 399 1135T233 717T398 299T797 125Q981 125 1133 242L1251 123Q1153 49 1040 10Q948 -23
838 -29L825 -86Q977 -113 977 -240Q977 -332 896 -384T690 -436Q641 -436 580 -426L604 -309Q659 -317 694 -317Q821 -317 821 -240Q821 -154 653 -154L680 -23Q584 -7 506 29Q301 119 175 304T49 717Z" />
<glyph unicode="&#xc8;" glyph-name="Egrave" horiz-adv-x="1177" d="M176 0V1434H1090V1303H360V848H967V717H360V131H1090V0H176ZM313 1946H539L739 1673H555L313 1946Z" />
<glyph unicode="&#xc9;" glyph-name="Eacute" horiz-adv-x="1177" d="M176 0V1434H1090V1303H360V848H967V717H360V131H1090V0H176ZM457 1673L657 1946H883L641 1673H457Z" />
<glyph unicode="&#xca;" glyph-name="Ecircumflex" horiz-adv-x="1177" d="M176 0V1434H1090V1303H360V848H967V717H360V131H1090V0H176ZM262 1673L463 1946H713L913 1673H729L588 1874L446 1673H262Z" />
<glyph unicode="&#xcb;" glyph-name="Edieresis" horiz-adv-x="1177" d="M176 0V1434H1090V1303H360V848H967V717H360V131H1090V0H176ZM322 1757V1946H496V1757H322ZM680 1757V1946H854V1757H680Z" />
<glyph unicode="&#xcc;" glyph-name="Igrave" horiz-adv-x="548" d="M76 1946H301L502 1673H317L76 1946ZM197 0V1434H381V0H197Z" />
<glyph unicode="&#xcd;" glyph-name="Iacute" horiz-adv-x="548" d="M80 1673L281 1946H506L264 1673H80ZM201 0V1434H385V0H201Z" />
<glyph unicode="&#xce;" glyph-name="Icircumflex" horiz-adv-x="1003" d="M176 1673L377 1946H627L827 1673H643L502 1874L360 1673H176ZM410 0V1434H594V0H410Z" />
<glyph unicode="&#xcf;" glyph-name="Idieresis" horiz-adv-x="548" d="M16 1757V1946H190V1757H16ZM190 0V1434H375V0H190ZM375 1757V1946H549V1757H375Z" />
<glyph unicode="&#xd0;" glyph-name="Eth" horiz-adv-x="1466" d="M20 604V748H176V1434H616Q940 1434 1141 1225T1343 717T1142 209T616 0H176V604H20ZM360 135H535Q685 135 799 174T980 272T1088 413T1144 566T1159 717T1145 867T1089 1021T980 1161T799 1259T535
1298H360V748H717V604H360V135Z" />
<glyph unicode="&#xd1;" glyph-name="Ntilde" horiz-adv-x="1398" d="M156 0H340V1128L1059 0H1243V1434H1059V307L340 1434H156V0ZM389 1722Q389 1816 446 1881T563 1946Q608 1946 698 1903Q768 1866 817 1866Q868 1868 872 1946H1008Q1008 1856 967 1789T844
1722Q793 1722 676 1772Q606 1803 580 1802Q562 1802 546 1782T524 1741L518 1722H389Z" />
<glyph unicode="&#xd2;" glyph-name="Ograve" horiz-adv-x="1740" d="M123 406T123 717T332 1246T860 1464T1399 1245T1618 717T1399 189T861 -31T332 187ZM307 965T307 717T462 297T860 125T1268 298T1434 717T1268 1136T860 1309T463 1137ZM575 1946H801L1001
1673H817L575 1946Z" />
<glyph unicode="&#xd3;" glyph-name="Oacute" horiz-adv-x="1740" d="M123 406T123 717T332 1246T860 1464T1399 1245T1618 717T1399 189T861 -31T332 187ZM307 965T307 717T462 297T860 125T1268 298T1434 717T1268 1136T860 1309T463 1137ZM739 1673L940 1946H1165L924
1673H739Z" />
<glyph unicode="&#xd4;" glyph-name="Ocircumflex" horiz-adv-x="1740" d="M123 406T123 717T332 1246T860 1464T1399 1245T1618 717T1399 189T861 -31T332 187ZM307 965T307 717T462 297T860 125T1268 298T1434 717T1268 1136T860 1309T463 1137ZM545 1673L745
1946H995L1196 1673H1012L870 1874L729 1673H545Z" />
<glyph unicode="&#xd5;" glyph-name="Otilde" horiz-adv-x="1740" d="M123 406T123 717T332 1246T860 1464T1399 1245T1618 717T1399 189T861 -31T332 187ZM307 965T307 717T462 297T860 125T1268 298T1434 717T1268 1136T860 1309T463 1137ZM561 1722Q561 1816
618 1881T735 1946Q780 1946 870 1903Q940 1866 989 1866Q1040 1868 1044 1946H1180Q1180 1856 1139 1789T1016 1722Q965 1722 848 1772Q778 1803 752 1802Q734 1802 718 1782T696 1741L690 1722H561Z" />
<glyph unicode="&#xd6;" glyph-name="Odieresis" horiz-adv-x="1740" d="M123 406T123 717T332 1246T860 1464T1399 1245T1618 717T1399 189T861 -31T332 187ZM307 965T307 717T462 297T860 125T1268 298T1434 717T1268 1136T860 1309T463 1137ZM604 1757V1946H778V1757H604ZM963
1757V1946H1137V1757H963Z" />
<glyph unicode="&#xd8;" glyph-name="Oslash" horiz-adv-x="1740" d="M123 406T123 717T332 1246T860 1464T1399 1245T1618 717T1399 189T861 -31T332 187ZM307 717Q307 465 461 299L487 270L1106 1251Q1094 1259 1087 1262Q981 1309 860 1309Q618 1309 463 1137T307
717ZM616 180L635 172Q739 125 860 125Q1102 125 1268 298T1434 717Q1434 965 1268 1135L1235 1165L616 180Z" />
<glyph unicode="&#xd9;" glyph-name="Ugrave" horiz-adv-x="1519" d="M176 532V1434H360V492Q360 402 401 331T506 220T639 160T770 139T901 159T1033 220T1139 330T1180 492V1434H1364V532Q1364 399 1322 296T1217 134T1069 35T914 -17T770 -31Q700 -31 627 -18T470
35T324 134T218 298T176 532ZM465 1946H690L891 1673H707L465 1946Z" />
<glyph unicode="&#xda;" glyph-name="Uacute" horiz-adv-x="1519" d="M176 532V1434H360V492Q360 402 401 331T506 220T639 160T770 139T901 159T1033 220T1139 330T1180 492V1434H1364V532Q1364 399 1322 296T1217 134T1069 35T914 -17T770 -31Q700 -31 627 -18T470
35T324 134T218 298T176 532ZM629 1673L829 1946H1055L813 1673H629Z" />
<glyph unicode="&#xdb;" glyph-name="Ucircumflex" horiz-adv-x="1519" d="M176 532V1434H360V492Q360 402 401 331T506 220T639 160T770 139T901 159T1033 220T1139 330T1180 492V1434H1364V532Q1364 399 1322 296T1217 134T1069 35T914 -17T770 -31Q700 -31
627 -18T470 35T324 134T218 298T176 532ZM434 1673L635 1946H885L1085 1673H901L760 1874L618 1673H434Z" />
<glyph unicode="&#xdc;" glyph-name="Udieresis" horiz-adv-x="1519" d="M176 532V1434H360V492Q360 402 401 331T506 220T639 160T770 139T901 159T1033 220T1139 330T1180 492V1434H1364V532Q1364 399 1322 296T1217 134T1069 35T914 -17T770 -31Q700 -31 627
-18T470 35T324 134T218 298T176 532ZM494 1757V1946H668V1757H494ZM852 1757V1946H1026V1757H852Z" />
<glyph unicode="&#xdd;" glyph-name="Yacute" horiz-adv-x="1292" d="M82 1434H266L637 819L1026 1434H1210L721 657V0H549V657L82 1434ZM494 1673L694 1946H920L678 1673H494Z" />
<glyph unicode="&#xde;" glyph-name="Thorn" horiz-adv-x="1234" d="M176 0V1434H360V1116H680Q852 1116 974 994T1096 700T974 408T680 287H360V0H176ZM360 442H680Q774 442 842 518T911 700T843 884T680 961H360V442Z" />
<glyph unicode="&#xe0;" glyph-name="agrave" horiz-adv-x="1099" d="M111 324Q111 461 211 553T492 645H764V723Q764 817 727 857T590 897Q516 897 365 881L227 864V1024Q338 1032 391 1038Q571 1054 659 1055Q804 1055 872 973T940 784V0H811L782 100H776Q598
-21 434 -20Q278 -20 195 85T111 324ZM289 324Q289 244 331 181T469 117Q537 117 621 146T762 215H764V508H492Q289 508 289 324ZM319 1536H545L745 1264H561L319 1536Z" />
<glyph unicode="&#xe1;" glyph-name="aacute" horiz-adv-x="1099" d="M111 324Q111 461 211 553T492 645H764V723Q764 817 727 857T590 897Q516 897 365 881L227 864V1024Q338 1032 391 1038Q571 1054 659 1055Q804 1055 872 973T940 784V0H811L782 100H776Q598
-21 434 -20Q278 -20 195 85T111 324ZM289 324Q289 244 331 181T469 117Q537 117 621 146T762 215H764V508H492Q289 508 289 324ZM424 1264L625 1536H850L608 1264H424Z" />
<glyph unicode="&#xe2;" glyph-name="acircumflex" horiz-adv-x="1099" d="M111 324Q111 461 211 553T492 645H764V723Q764 817 727 857T590 897Q516 897 365 881L227 864V1024Q338 1032 391 1038Q571 1054 659 1055Q804 1055 872 973T940 784V0H811L782 100H776Q598
-21 434 -20Q278 -20 195 85T111 324ZM217 1264L418 1536H668L868 1264H684L543 1464L401 1264H217ZM289 324Q289 244 331 181T469 117Q537 117 621 146T762 215H764V508H492Q289 508 289 324Z" />
<glyph unicode="&#xe3;" glyph-name="atilde" horiz-adv-x="1099" d="M111 324Q111 461 211 553T492 645H764V723Q764 817 727 857T590 897Q516 897 365 881L227 864V1024Q338 1032 391 1038Q571 1054 659 1055Q804 1055 872 973T940 784V0H811L782 100H776Q598
-21 434 -20Q278 -20 195 85T111 324ZM233 1313Q233 1407 290 1471T408 1536Q453 1536 543 1493Q613 1456 662 1456Q713 1458 717 1536H852Q852 1446 811 1380T688 1313Q637 1313 520 1362Q450 1393 424 1393Q406 1393 391 1373T369 1331L362 1313H233ZM289 324Q289
244 331 181T469 117Q537 117 621 146T762 215H764V508H492Q289 508 289 324Z" />
<glyph unicode="&#xe4;" glyph-name="adieresis" horiz-adv-x="1099" d="M111 324Q111 461 211 553T492 645H764V723Q764 817 727 857T590 897Q516 897 365 881L227 864V1024Q338 1032 391 1038Q571 1054 659 1055Q804 1055 872 973T940 784V0H811L782 100H776Q598
-21 434 -20Q278 -20 195 85T111 324ZM276 1348V1536H451V1348H276ZM289 324Q289 244 331 181T469 117Q537 117 621 146T762 215H764V508H492Q289 508 289 324ZM635 1348V1536H809V1348H635Z" />
<glyph unicode="&#xe5;" glyph-name="aring" horiz-adv-x="1099" d="M111 324Q111 461 211 553T492 645H764V723Q764 817 727 857T590 897Q516 897 365 881L227 864V1024Q338 1032 391 1038Q571 1054 659 1055Q804 1055 872 973T940 784V0H811L782 100H776Q598
-21 434 -20Q278 -20 195 85T111 324ZM289 324Q289 244 331 181T469 117Q537 117 621 146T762 215H764V508H492Q289 508 289 324ZM416 1298T416 1368T465 1487T583 1536T702 1487T752 1368T703 1249T584 1200T465 1249ZM498 1403T498 1368T523 1308T583 1282T644
1307T670 1368T644 1428T584 1454T524 1429Z" />
<glyph unicode="&#xe6;" glyph-name="ae" horiz-adv-x="1806" d="M111 324Q111 461 211 553T492 645H764V723Q764 817 727 857T590 897Q516 897 365 881L227 864V1024Q338 1032 391 1038Q571 1054 659 1055Q839 1055 909 918Q970 984 1053 1016Q1139 1055 1247
1055Q1675 1055 1675 451H940Q950 324 1033 225T1286 125Q1483 125 1624 190V29Q1470 -30 1309 -31Q1164 -31 1061 12Q995 41 940 86V0H811L782 100H776Q598 -21 434 -20Q278 -20 195 85T111 324ZM289 324Q289 244 331 181T469 117Q537 117 621 146T762 215H764V508H492Q289
508 289 324ZM946 586H1499Q1485 723 1424 811T1243 899Q1126 899 1044 813T946 586Z" />
<glyph unicode="&#xe7;" glyph-name="ccedilla" horiz-adv-x="937" d="M47 512Q47 737 204 896T586 1055Q725 1055 862 1024V868Q725 899 586 899Q430 899 323 786T215 512T322 239T586 125Q725 125 862 156V0Q725 -31 586 -31Q561 -31 549 -29L537 -86Q689 -113
688 -240Q688 -332 607 -384T401 -436Q352 -436 291 -426L315 -309Q370 -317 406 -317Q533 -317 532 -240Q532 -154 365 -154L397 2L377 12Q227 78 137 212T47 512Z" />
<glyph unicode="&#xe8;" glyph-name="egrave" horiz-adv-x="1120" d="M111 516Q111 762 242 908T588 1055Q1016 1055 1016 451H281Q291 324 374 225T627 125Q824 125 965 190V29Q811 -30 649 -31Q508 -31 403 13T235 134T142 307T111 516ZM264 1536H489L690 1264H506L264
1536ZM287 586H840Q826 723 764 811T584 899Q467 899 385 813T287 586Z" />
<glyph unicode="&#xe9;" glyph-name="eacute" horiz-adv-x="1120" d="M111 516Q111 762 242 908T588 1055Q1016 1055 1016 451H281Q291 324 374 225T627 125Q824 125 965 190V29Q811 -30 649 -31Q508 -31 403 13T235 134T142 307T111 516ZM287 586H840Q826 723
764 811T584 899Q467 899 385 813T287 586ZM449 1264L649 1536H874L633 1264H449Z" />
<glyph unicode="&#xea;" glyph-name="ecircumflex" horiz-adv-x="1120" d="M111 516Q111 762 242 908T588 1055Q1016 1055 1016 451H281Q291 324 374 225T627 125Q824 125 965 190V29Q811 -30 649 -31Q508 -31 403 13T235 134T142 307T111 516ZM240 1264L440 1536H690L891
1264H707L565 1464L424 1264H240ZM287 586H840Q826 723 764 811T584 899Q467 899 385 813T287 586Z" />
<glyph unicode="&#xeb;" glyph-name="edieresis" horiz-adv-x="1120" d="M111 516Q111 762 242 908T588 1055Q1016 1055 1016 451H281Q291 324 374 225T627 125Q824 125 965 190V29Q811 -30 649 -31Q508 -31 403 13T235 134T142 307T111 516ZM287 586H840Q826
723 764 811T584 899Q467 899 385 813T287 586ZM299 1348V1536H473V1348H299ZM657 1348V1536H831V1348H657Z" />
<glyph unicode="&#xec;" glyph-name="igrave" horiz-adv-x="514" d="M6 1536H231L432 1264H248L6 1536ZM174 0V1024H348V0H174Z" />
<glyph unicode="&#xed;" glyph-name="iacute" horiz-adv-x="514" d="M94 1264L295 1536H520L279 1264H94ZM180 0V1024H354V0H180Z" />
<glyph unicode="&#xee;" glyph-name="icircumflex" horiz-adv-x="514" d="M-51 1264L150 1536H399L600 1264H416L274 1464L133 1264H-51ZM188 0V1024H362V0H188Z" />
<glyph unicode="&#xef;" glyph-name="idieresis" horiz-adv-x="514" d="M12 1348V1536H186V1348H12ZM193 0V1024H367V0H193ZM371 1348V1536H545V1348H371Z" />
<glyph unicode="&#xf0;" glyph-name="eth" horiz-adv-x="1206" d="M82 287T82 512T231 896T594 1055Q744 1055 864 971Q790 1143 618 1245L354 1098L293 1208L483 1315Q422 1342 322 1374L428 1485Q543 1444 635 1399L788 1485L850 1374L762 1325Q1106 1073 1106
512Q1106 287 957 128T594 -31T232 128ZM246 672T246 512T348 239T594 125T839 238T942 512V528Q934 682 835 790T594 899Q451 899 349 786Z" />
<glyph unicode="&#xf1;" glyph-name="ntilde" horiz-adv-x="1015" d="M80 0V1024H203L229 946Q397 1055 561 1055Q731 1055 836 974T942 727V0H768V727Q768 897 561 897Q401 897 250 791V0H80ZM193 1313Q193 1407 250 1471T367 1536Q412 1536 502 1493Q572 1456
621 1456Q672 1458 676 1536H811Q811 1446 770 1380T647 1313Q596 1313 479 1362Q409 1393 383 1393Q365 1393 350 1373T328 1331L322 1313H193Z" />
<glyph unicode="&#xf2;" glyph-name="ograve" horiz-adv-x="1193" d="M55 283T55 512T206 898T596 1055Q832 1055 985 897T1139 512T985 127T596 -31Q358 -31 207 126ZM221 676T221 512T323 237T596 125Q764 125 867 236T971 512T868 787T596 899Q426 899 324
788ZM373 1536H598L799 1264H614L373 1536Z" />
<glyph unicode="&#xf3;" glyph-name="oacute" horiz-adv-x="1193" d="M55 283T55 512T206 898T596 1055Q832 1055 985 897T1139 512T985 127T596 -31Q358 -31 207 126ZM221 676T221 512T323 237T596 125Q764 125 867 236T971 512T868 787T596 899Q426 899 324
788ZM393 1264L594 1536H819L578 1264H393Z" />
<glyph unicode="&#xf4;" glyph-name="ocircumflex" horiz-adv-x="1304" d="M111 283T111 512T262 898T651 1055Q887 1055 1040 897T1194 512T1041 127T651 -31Q413 -31 262 126ZM276 676T276 512T378 237T651 125Q819 125 922 236T1026 512T923 787T651 899Q481
899 379 788ZM326 1264L526 1536H776L977 1264H793L651 1464L510 1264H326Z" />
<glyph unicode="&#xf5;" glyph-name="otilde" horiz-adv-x="1304" d="M111 283T111 512T262 898T651 1055Q887 1055 1040 897T1194 512T1041 127T651 -31Q413 -31 262 126ZM276 676T276 512T378 237T651 125Q819 125 922 236T1026 512T923 787T651 899Q481 899
379 788ZM342 1313Q342 1407 399 1471T516 1536Q561 1536 651 1493Q721 1456 770 1456Q821 1458 825 1536H961Q961 1446 920 1380T797 1313Q746 1313 629 1362Q559 1393 532 1393Q514 1393 499 1373T477 1331L471 1313H342Z" />
<glyph unicode="&#xf6;" glyph-name="odieresis" horiz-adv-x="1304" d="M111 283T111 512T262 898T651 1055Q887 1055 1040 897T1194 512T1041 127T651 -31Q413 -31 262 126ZM276 676T276 512T378 237T651 125Q819 125 922 236T1026 512T923 787T651 899Q481
899 379 788ZM385 1348V1536H559V1348H385ZM743 1348V1536H918V1348H743Z" />
<glyph unicode="&#xf8;" glyph-name="oslash" horiz-adv-x="1304" d="M111 283T111 512T262 898T651 1055Q887 1055 1040 897T1194 512T1041 127T651 -31Q413 -31 262 126ZM276 676T276 512T377 238L395 217L774 881Q717 899 651 899Q481 899 379 788ZM537 139Q586
125 651 125Q819 125 922 236T1026 512Q1026 678 924 784L911 799L537 139Z" />
<glyph unicode="&#xf9;" glyph-name="ugrave" horiz-adv-x="1165" d="M160 313V1024H330V313Q330 227 405 180T582 133Q684 133 759 180T834 313V1024H1006V313Q1006 153 876 61T582 -31T289 60T160 313ZM307 1536H532L733 1264H549L307 1536Z" />
<glyph unicode="&#xfa;" glyph-name="uacute" horiz-adv-x="1165" d="M160 313V1024H330V313Q330 227 405 180T582 133Q684 133 759 180T834 313V1024H1006V313Q1006 153 876 61T582 -31T289 60T160 313ZM430 1264L631 1536H856L614 1264H430Z" />
<glyph unicode="&#xfb;" glyph-name="ucircumflex" horiz-adv-x="1165" d="M160 313V1024H330V313Q330 227 405 180T582 133Q684 133 759 180T834 313V1024H1006V313Q1006 153 876 61T582 -31T289 60T160 313ZM256 1264L457 1536H707L907 1264H723L582 1464L440
1264H256Z" />
<glyph unicode="&#xfc;" glyph-name="udieresis" horiz-adv-x="1165" d="M160 313V1024H330V313Q330 227 405 180T582 133Q684 133 759 180T834 313V1024H1006V313Q1006 153 876 61T582 -31T289 60T160 313ZM315 1348V1536H489V1348H315ZM674 1348V1536H848V1348H674Z" />
<glyph unicode="&#xfd;" glyph-name="yacute" horiz-adv-x="1142" d="M94 1024H289L569 274L856 1024H1049L459 -512H266L485 51L94 1024ZM358 1264L559 1536H784L543 1264H358Z" />
<glyph unicode="&#xfe;" glyph-name="thorn" horiz-adv-x="989" d="M164 0V1024H338V860H551Q686 860 783 762T881 528Q881 391 785 295T551 199H338V0H164ZM338 354H551Q619 354 668 404T717 528Q717 600 668 652T551 705H338V354Z" />
<glyph unicode="&#xff;" glyph-name="ydieresis" horiz-adv-x="1142" d="M94 1024H289L569 274L856 1024H1049L459 -512H266L485 51L94 1024ZM305 1348V1536H479V1348H305ZM664 1348V1536H838V1348H664Z" />
<glyph unicode="&#x2013;" glyph-name="endash" horiz-adv-x="1210" d="M80 383V567H1130V383H80Z" />
<glyph unicode="&#x2014;" glyph-name="emdash" horiz-adv-x="1564" d="M80 383V567H1485V383H80Z" />
<glyph unicode="&#x2018;" glyph-name="quoteleft" horiz-adv-x="296" d="M35 1577H199L240 1210H117L35 1577Z" />
<glyph unicode="&#x2019;" glyph-name="quoteright" horiz-adv-x="299" d="M59 1210L100 1577H264L182 1210H59Z" />
<glyph unicode="&#x201c;" glyph-name="quotedblleft" horiz-adv-x="616" d="M59 1577H223L264 1210H141L59 1577ZM342 1577H506L547 1210H424L342 1577Z" />
<glyph unicode="&#x201d;" glyph-name="quotedblright" horiz-adv-x="616" d="M70 1210L111 1577H274L193 1210H70ZM352 1210L393 1577H557L475 1210H352Z" />
<glyph unicode="&#x2022;" glyph-name="bullet" horiz-adv-x="716" d="M100 627T100 731T174 909T352 983T530 910T604 732T531 553T353 479T174 553Z" />
<glyph unicode="&#x2039;" glyph-name="guilsinglleft" horiz-adv-x="1054" d="M8 575V817L977 1217V1032L152 696L977 365V180L8 575Z" />
<glyph unicode="&#x203a;" glyph-name="guilsinglright" horiz-adv-x="1056" d="M80 180V365L905 696L80 1032V1217L1049 817V575L80 180Z" />
</font>
</defs>
</svg>
