<?xml version="1.0" standalone="no"?>
<!DOCTYPE svg PUBLIC "-//W3C//DTD SVG 1.1//EN" "http://www.w3.org/Graphics/SVG/1.1/DTD/svg11.dtd">
<svg xmlns="http://www.w3.org/2000/svg">
<defs >
<font id="ZillaSlab" horiz-adv-x="521" ><font-face
    font-family="Zilla Slab"
    units-per-em="1000"
    panose-1="0 0 0 0 0 0 0 0 0 0"
    ascent="944"
    descent="-256"
    alphabetic="0" />
<glyph unicode=" " glyph-name="uni0020" horiz-adv-x="220" />
<glyph unicode="!" glyph-name="uni0021" horiz-adv-x="237" d="M199 650L136 192H83L117 650H199ZM48 0L58 97H146L135 0H48Z" />
<glyph unicode="&quot;" glyph-name="uni0022" horiz-adv-x="366" d="M136 377H74L99 650H169L136 377ZM312 377H250L275 650H345L312 377Z" />
<glyph unicode="#" glyph-name="uni0023" horiz-adv-x="579" d="M509 521L474 403H554L547 346H457L409 182H501L494 125H392L356 0H294L330 125H158L122 0H60L96 125H22L28 182H113L161 346H74L81 403H178L213 521H275L240 403H412L447 521H509ZM175 182H347L395
346H223L175 182Z" />
<glyph unicode="$" glyph-name="uni0024" horiz-adv-x="463" d="M406 159Q406 84 356 41T223 -7L217 -65H177L183 -7Q132 -4 89 11T24 42L47 156L106 151L96 78Q137 56 189 51L209 246Q148 260 106 286T64 373Q64 447 115 485T239 528L246 593H286L279 528Q363
522 416 481L411 366L352 362L351 446Q332 459 312 464T273 472L255 302Q306 290 356 262T406 159ZM139 386Q139 351 160 336T216 311L233 472Q139 462 139 386ZM332 148Q332 188 309 207T248 236L229 51Q273 55 302 79T332 148Z" />
<glyph unicode="%" glyph-name="uni0025" horiz-adv-x="675" d="M170 243Q113 243 80 274T47 367Q47 444 93 487T208 530Q264 530 297 499T330 406Q330 334 287 289T170 243ZM596 521L372 267L146 0H72L328 287L523 521H596ZM176 294Q225 294 248 324T271 401Q271
479 201 479Q106 479 106 372Q106 294 176 294ZM467 -10Q411 -10 378 20T344 115Q344 192 390 234T506 277Q561 277 594 245T627 152Q627 81 585 36T467 -10ZM473 40Q522 40 545 70T569 148Q569 227 498 227Q403 227 403 119Q403 40 473 40Z" />
<glyph unicode="&amp;" glyph-name="uni0026" horiz-adv-x="716" d="M429 362H702L695 299H593Q570 252 531 198T440 98Q504 58 566 58Q609 58 648 79L659 18Q607 -10 551 -10Q506 -10 463 6T380 51Q340 23 296 7T206 -10Q135 -10 84 31T33 145Q33 210 76 252T178
325Q155 392 155 453Q155 544 209 602T349 660Q415 660 456 626T497 533Q497 478 460 441T369 375T259 320Q309 204 400 127Q477 196 517 299H422L429 362ZM424 529Q424 558 405 580T344 602Q292 602 260 565T227 463Q227 412 245 357Q316 393 370 434T424 529ZM194
286Q154 262 129 232T104 156Q104 100 139 76T224 52Q283 52 339 83Q247 166 194 286Z" />
<glyph unicode="&apos;" glyph-name="uni0027" horiz-adv-x="190" d="M136 377H74L99 650H169L136 377Z" />
<glyph unicode="(" glyph-name="uni0028" horiz-adv-x="273" d="M245 718H311Q205 597 151 472T97 212Q97 112 126 9T216 -183H148Q90 -91 64 10T37 208Q37 341 87 467T245 718Z" />
<glyph unicode=")" glyph-name="uni0029" horiz-adv-x="272" d="M25 -183H-41Q65 -62 119 63T173 323Q173 423 144 526T54 718H122Q180 626 206 525T233 327Q233 194 183 68T25 -183Z" />
<glyph unicode="*" glyph-name="uni002A" horiz-adv-x="407" d="M390 556L267 489L376 424L342 379L243 449L235 333H182L198 449L84 379L61 424L183 489L75 556L107 601L207 529L216 650H269L252 530L365 601L390 556Z" />
<glyph unicode="+" glyph-name="uni002B" horiz-adv-x="414" d="M35 254L40 308H187L203 455H255L239 308H380L375 254H233L218 108H166L181 254H35Z" />
<glyph unicode="," glyph-name="uni002C" horiz-adv-x="200" d="M-15 -102L59 114H127L53 -102H-15Z" />
<glyph unicode="-" glyph-name="uni002D" horiz-adv-x="342" d="M55 261H283L277 200H49L55 261Z" />
<glyph unicode="." glyph-name="uni002E" horiz-adv-x="208" d="M30 0L40 101H133L123 0H30Z" />
<glyph unicode="/" glyph-name="uni002F" horiz-adv-x="376" d="M377 688L89 0H24L310 688H377Z" />
<glyph unicode="0" glyph-name="uni0030" horiz-adv-x="566" d="M42 224Q42 348 111 439T310 530Q418 530 469 464T520 291Q520 159 449 75T253 -10Q150 -10 96 52T42 224ZM118 232Q118 150 151 103T260 55Q346 55 395 118T444 291Q444 370 412 417T302 465Q212
465 165 402T118 232Z" />
<glyph unicode="1" glyph-name="uni0031" horiz-adv-x="375" d="M29 64H149L190 457H71L77 521H268L220 64H335L328 0H22L29 64Z" />
<glyph unicode="2" glyph-name="uni0032" horiz-adv-x="505" d="M122 362L66 369L95 487Q133 508 183 519T277 531Q366 531 402 487T439 390Q439 317 383 256T252 146T118 64H371L389 147L447 142L423 0H25L24 57Q180 158 270 229T361 379Q361 468 253 468Q233
468 203 462T147 445L122 362Z" />
<glyph unicode="3" glyph-name="uni0033" horiz-adv-x="504" d="M137 362L81 369L109 479Q138 498 182 514T276 531Q347 531 396 495T446 388Q446 336 416 289T306 218V214Q382 200 411 158T440 69Q440 -25 377 -83T210 -141Q119 -141 74 -100T22 0L80 20Q90 -20
120 -49T212 -78Q301 -78 332 -29T363 68Q363 120 325 149T191 182L196 236Q300 241 334 286T369 374Q369 468 256 468Q210 468 164 444L137 362Z" />
<glyph unicode="4" glyph-name="uni0034" horiz-adv-x="529" d="M360 -131H289L307 36H4L3 98L276 521H428L384 98H488L473 36H378L360 -131ZM313 98L351 458H301L71 98H313Z" />
<glyph unicode="5" glyph-name="uni0035" horiz-adv-x="503" d="M440 79Q440 -20 380 -80T213 -140Q124 -140 79 -100T28 0L86 20Q95 -24 125 -51T213 -78Q288 -78 325 -36T363 71Q363 156 309 181T176 206Q135 206 93 203L71 227L103 521H457L452 383L391 377L388
458H163L142 267Q154 268 167 268T191 268Q291 268 365 232T440 79Z" />
<glyph unicode="6" glyph-name="uni0036" horiz-adv-x="526" d="M472 229Q472 138 418 64T245 -10Q133 -10 91 62T49 255Q49 354 75 447T161 600T326 660Q437 660 499 572L451 528Q403 597 317 597Q226 597 179 516T124 291Q142 332 188 367T311 403Q399 403 435
353T472 229ZM399 219Q399 278 374 309T288 340Q207 340 170 293T123 200Q124 137 151 97T251 56Q330 56 364 103T399 219Z" />
<glyph unicode="7" glyph-name="uni0037" horiz-adv-x="463" d="M59 521H462L468 479L165 -130H89L389 458H117L105 347H40L59 521Z" />
<glyph unicode="8" glyph-name="uni0038" horiz-adv-x="528" d="M229 -10Q143 -10 87 29T31 147Q31 225 83 265T202 332Q154 358 119 392T84 483Q84 558 147 609T304 660Q384 660 437 620T490 510Q490 443 444 407T337 344Q391 318 432 281T474 176Q474 91 404
41T229 -10ZM160 494Q160 447 198 420T288 368Q340 390 378 420T416 502Q416 552 382 575T299 598Q240 598 200 570T160 494ZM240 52Q304 52 351 82T399 167Q399 221 353 251T250 307Q193 282 149 251T104 160Q104 107 142 80T240 52Z" />
<glyph unicode="9" glyph-name="uni0039" horiz-adv-x="525" d="M50 291Q50 382 104 456T277 530Q389 530 431 458T473 265Q473 166 447 73T361 -80T196 -140Q85 -140 23 -52L71 -8Q119 -77 205 -77Q296 -77 343 4T398 229Q380 188 334 153T211 117Q123 117 87
167T50 291ZM123 301Q123 242 148 211T234 180Q315 180 352 227T399 320Q398 383 371 423T271 464Q192 464 158 417T123 301Z" />
<glyph unicode=":" glyph-name="uni003A" horiz-adv-x="220" d="M85 445H175L164 344H75L85 445ZM49 100H138L128 0H38L49 100Z" />
<glyph unicode=";" glyph-name="uni003B" horiz-adv-x="232" d="M88 343L98 444H191L181 343H88ZM-6 -102L68 114H136L62 -102H-6Z" />
<glyph unicode="&lt;" glyph-name="uni003C" horiz-adv-x="397" d="M314 14L28 269L30 289L370 549L361 480L105 280L321 83L314 14Z" />
<glyph unicode="=" glyph-name="uni003D" horiz-adv-x="565" d="M68 364L74 418H522L516 364H68ZM45 144L51 196H499L493 144H45Z" />
<glyph unicode="&gt;" glyph-name="uni003E" horiz-adv-x="398" d="M368 269L30 14L37 83L295 280L78 480L86 549L371 289L368 269Z" />
<glyph unicode="?" glyph-name="uni003F" horiz-adv-x="438" d="M118 460L61 465L82 585Q114 615 162 637T265 660Q332 660 382 627T433 532Q433 480 399 445T320 382T241 328T206 268Q206 231 254 231L249 181Q183 177 157 200T131 259Q131 307 165 338T243 395T321
449T355 519Q355 595 251 595Q191 595 141 556L118 460ZM133 0L143 97H230L220 0H133Z" />
<glyph unicode="@" glyph-name="uni0040" horiz-adv-x="891" d="M617 307L596 134Q596 132 595 124T594 111Q593 84 605 62T652 40Q700 40 730 79T773 178T787 296Q787 412 743 478T630 572T490 599Q376 599 286 546T143 399T91 188Q91 24 186 -61T415 -147Q470
-147 528 -132T633 -85L653 -130Q600 -163 536 -182T404 -202Q244 -202 138 -96T32 183Q32 312 92 419T255 590T488 654Q573 654 656 620T793 510T848 312Q848 244 827 169T759 42T635 -10Q582 -10 554 20T524 90Q502 50 466 20T373 -10Q300 -10 262 41T223 178Q223
235 242 299T307 409T430 454Q532 454 562 369Q566 388 571 407T582 445H648Q638 412 630 375T617 307ZM435 397Q382 397 352 363T309 281T296 188Q296 47 393 47Q448 47 484 91T532 180L545 281Q545 332 515 364T435 397Z" />
<glyph unicode="A" glyph-name="uni0041" horiz-adv-x="632" d="M-18 64H42L304 586H203L209 650H389L556 64H618L611 0H388L394 64H479L446 189H176L115 64H205L199 0H-23L-18 64ZM349 544L204 246H431L353 544H349Z" />
<glyph unicode="B" glyph-name="uni0042" horiz-adv-x="588" d="M368 650Q457 650 501 612T545 512Q545 451 510 408T422 354L421 350Q482 340 511 299T540 203Q540 120 480 60T308 0H13L19 64H98L153 586H74L81 650H368ZM326 366Q388 366 428 399T469 491Q469
543 438 564T352 586H223L200 366H326ZM302 64Q375 64 419 100T464 201Q464 306 350 306H194L168 64H302Z" />
<glyph unicode="C" glyph-name="uni0043" horiz-adv-x="630" d="M540 50Q500 20 443 5T330 -10Q191 -10 118 73T44 289Q44 390 86 474T205 609T390 660Q461 660 514 638T600 584L604 459L542 453L534 548Q506 569 470 581T386 594Q268 594 193 514T118 295Q118
56 344 56Q425 56 481 85L509 181L569 175L540 50Z" />
<glyph unicode="D" glyph-name="uni0044" horiz-adv-x="686" d="M12 0L19 63H98L153 587H74L80 650H362Q505 650 579 569T653 361Q653 206 557 103T297 0H12ZM300 63Q430 63 504 144T579 355Q579 461 522 524T355 587H223L168 63H300Z" />
<glyph unicode="E" glyph-name="uni0045" horiz-adv-x="573" d="M481 0H12L18 64H98L154 586H73L80 650H545V466L482 459L476 586H225L200 362H502L496 298H194L169 64H425L458 191L519 184L481 0Z" />
<glyph unicode="F" glyph-name="uni0046" horiz-adv-x="544" d="M537 462L472 456L466 586H224L197 333H490L483 269H190L169 64H282L275 0H12L19 64H98L153 586H73L80 650H536L537 462Z" />
<glyph unicode="G" glyph-name="uni0047" horiz-adv-x="675" d="M647 270H597L569 0H514V89Q482 46 428 18T304 -10Q183 -10 113 75T43 291Q43 394 87 478T210 611T393 660Q461 660 518 639T608 584L612 462L551 455L541 547Q518 564 481 579T389 594Q269 594
193 513T117 296Q117 181 172 119T321 56Q410 56 461 105T520 212L526 270H373L380 335H654L647 270Z" />
<glyph unicode="H" glyph-name="uni0048" horiz-adv-x="733" d="M19 64H98L153 586H74L81 650H310L303 586H223L200 362H551L574 586H495L502 650H731L724 586H645L590 64H670L663 0H434L441 64H519L544 300H193L168 64H248L242 0H13L19 64Z" />
<glyph unicode="I" glyph-name="uni0049" horiz-adv-x="311" d="M19 64H98L153 586H73L80 650H309L303 586H222L167 64H248L241 0H12L19 64Z" />
<glyph unicode="J" glyph-name="uni004A" horiz-adv-x="442" d="M179 650H445L439 586H369L325 166Q316 78 268 34T144 -10Q81 -10 47 17T-3 89L52 129Q68 88 90 74T145 59Q196 59 222 88T254 166L298 586H173L179 650Z" />
<glyph unicode="K" glyph-name="uni004B" horiz-adv-x="623" d="M367 64H440L298 299H193L168 64H241L234 0H11L19 64H97L152 586H73L79 650H304L297 586H223L199 362H302L486 587H414L421 651H643L636 587H566L356 338L523 64H594L587 0H359L367 64Z" />
<glyph unicode="L" glyph-name="uni004C" horiz-adv-x="528" d="M468 0H12L18 64H98L153 586H73L80 650H337L331 586H224L169 64H411L446 213L509 208L468 0Z" />
<glyph unicode="M" glyph-name="uni004D" horiz-adv-x="856" d="M20 64H98L153 586H70L77 650H222L415 144H419L711 650H857L851 586H767L712 64H792L786 0H561L567 64H641L685 477H681L422 33H384L214 481H210L166 64H242L236 0H13L20 64Z" />
<glyph unicode="N" glyph-name="uni004E" horiz-adv-x="715" d="M25 64H98L153 586H70L77 650H211L520 148H523L568 586H474L480 650H722L716 586H636L575 0H530L216 512H213L165 64H267L261 0H18L25 64Z" />
<glyph unicode="O" glyph-name="uni004F" horiz-adv-x="710" d="M393 660Q525 660 601 572T678 359Q678 259 632 175T507 41T325 -10Q192 -10 117 78T42 291Q42 392 88 476T214 610T393 660ZM336 56Q459 56 530 146T602 354Q602 459 546 526T385 594Q266 594 192
506T118 297Q118 200 171 128T336 56Z" />
<glyph unicode="P" glyph-name="uni0050" horiz-adv-x="561" d="M19 64H98L153 586H74L81 650H342Q449 650 498 597T548 469Q548 360 482 301T311 242H187L168 64H278L271 0H13L19 64ZM308 306Q388 306 430 348T473 466Q473 522 438 554T330 586H223L194 306H308Z" />
<glyph unicode="Q" glyph-name="uni0051" horiz-adv-x="720" d="M393 660Q525 660 601 572T678 359Q678 280 648 210T566 88L649 -3L602 -47L516 47Q430 -10 325 -10Q192 -10 117 78T42 291Q42 392 88 476T214 610T393 660ZM378 200L425 244L522 136Q602 224 602
354Q602 459 546 526T385 594Q266 594 192 506T118 297Q118 200 171 128T336 56Q414 56 473 95L378 200Z" />
<glyph unicode="R" glyph-name="uni0052" horiz-adv-x="599" d="M19 64H98L153 586H74L81 650H346Q453 650 503 603T554 485Q554 329 397 288L488 64H568L560 0H434L328 272H190L168 64H254L248 0H13L19 64ZM312 333Q402 333 440 375T479 479Q479 586 330 586H223L197
333H312Z" />
<glyph unicode="S" glyph-name="uni0053" horiz-adv-x="523" d="M468 194Q468 96 406 43T228 -10Q166 -10 109 4T24 43L50 171L107 165L96 83Q124 67 160 61T228 54Q300 54 345 84T391 185Q391 256 348 275T247 308Q186 322 131 354T75 474Q75 572 145 616T296
660Q348 660 401 645T480 606L473 477L413 471V568Q384 584 354 589T299 595Q231 595 191 565T151 480Q151 424 189 405T280 372Q355 354 411 323T468 194Z" />
<glyph unicode="T" glyph-name="uni0054" horiz-adv-x="605" d="M599 452L535 447L530 586H371L316 64H428L422 0H129L136 64H245L300 586H139L105 447L42 452L81 650H601L599 452Z" />
<glyph unicode="U" glyph-name="uni0055" horiz-adv-x="696" d="M482 650H699L693 586H631L598 267Q590 198 563 135T479 31T324 -10Q183 -10 135 70T97 256L132 586H67L73 650H298L290 586H203L169 258Q159 162 198 109T331 56Q508 56 531 267L564 586H475L482 650Z" />
<glyph unicode="V" glyph-name="uni0056" horiz-adv-x="632" d="M664 586H605L316 0H258L91 586H30L36 650H264L258 586H168L300 108H304L532 586H442L448 650H671L664 586Z" />
<glyph unicode="W" glyph-name="uni0057" horiz-adv-x="909" d="M936 586H882L652 0H594L485 520H480L264 0H205L88 586H34L40 650H258L251 586H161L246 120H251L446 586H382L389 650H607L600 586H536L633 117H639L809 586H719L726 650H942L936 586Z" />
<glyph unicode="X" glyph-name="uni0058" horiz-adv-x="616" d="M580 0H359L366 64H445L305 285L128 64H202L196 0H-22L-15 64H49L274 337L114 586H50L57 650H272L266 586H195L321 387L481 586H417L425 650H638L632 586H561L352 337L527 64H587L580 0Z" />
<glyph unicode="Y" glyph-name="uni0059" horiz-adv-x="597" d="M627 586H565L333 249L313 64H424L417 0H128L134 64H242L262 249L93 586H30L37 650H266L259 586H172L305 316H310L492 586H405L412 650H633L627 586Z" />
<glyph unicode="Z" glyph-name="uni005A" horiz-adv-x="563" d="M480 0H5L6 44L437 583V586H160L119 453L60 462L104 650H538L543 610L110 67L109 64H422L464 202L525 193L480 0Z" />
<glyph unicode="[" glyph-name="uni005B" horiz-adv-x="279" d="M33 -213L135 750H307L301 698H189L99 -161H211L205 -213H33Z" />
<glyph unicode="\" glyph-name="uni005C" horiz-adv-x="506" d="M73 688H140L426 0H361L73 688Z" />
<glyph unicode="]" glyph-name="uni005D" horiz-adv-x="279" d="M244 750L142 -213H-30L-24 -161H88L178 698H66L72 750H244Z" />
<glyph unicode="^" glyph-name="uni005E" horiz-adv-x="445" d="M240 656H285L416 373H352L255 587L116 373H52L240 656Z" />
<glyph unicode="_" glyph-name="uni005F" horiz-adv-x="527" d="M16 -74H440L435 -125H11L16 -74Z" />
<glyph unicode="`" glyph-name="uni0060" horiz-adv-x="431" d="M393 520L211 624L246 683L412 551L393 520Z" />
<glyph unicode="a" glyph-name="uni0061" horiz-adv-x="505" d="M456 445Q446 410 438 376T426 307L394 57H461L457 17L436 0H331L333 90Q311 50 276 20T181 -10Q108 -10 70 41T32 178Q32 235 51 299T116 409T238 454Q340 454 370 370Q374 389 379 407T390 445H456ZM245
397Q190 397 160 363T118 281T105 189Q105 47 202 47Q257 47 293 92T341 183L354 281Q353 331 323 364T245 397Z" />
<glyph unicode="b" glyph-name="uni0062" horiz-adv-x="504" d="M49 670L70 688H194L153 357Q176 397 211 425T303 454Q380 454 420 402T461 265Q461 208 442 144T376 35T252 -10Q145 -10 114 73Q110 55 105 37T95 0H28Q36 29 44 63T57 130L118 631H44L49 670ZM246
47Q300 47 331 81T375 165T388 255Q388 397 285 397Q228 397 191 353T142 262L130 165Q130 115 162 81T246 47Z" />
<glyph unicode="c" glyph-name="uni0063" horiz-adv-x="440" d="M250 397Q170 397 137 332T104 190Q104 124 128 86T209 47Q300 47 335 163L390 150Q376 91 331 41T201 -10Q120 -10 76 42T31 186Q31 245 52 307T122 411T249 454Q334 454 392 409L398 302L339 295L330
371Q296 397 250 397Z" />
<glyph unicode="d" glyph-name="uni0064" horiz-adv-x="510" d="M305 670L326 688H479L401 57H477L473 17L451 0H337L339 91Q315 50 277 20T180 -10Q107 -10 69 41T31 176Q31 234 52 299T119 409T243 454Q339 454 372 380L403 631H301L305 670ZM250 397Q195 397
163 364T118 281T104 185Q104 47 202 47Q259 47 299 95T349 191L361 287Q359 335 328 366T250 397Z" />
<glyph unicode="e" glyph-name="uni0065" horiz-adv-x="437" d="M213 47Q259 47 288 71T334 137L389 124Q375 68 327 29T202 -10Q121 -10 76 39T31 183Q31 297 92 375T256 454Q315 454 357 425T399 343Q399 294 363 259T240 206Q209 200 175 194T104 182Q105 119
129 83T213 47ZM211 248Q287 265 306 289T326 337Q326 371 305 385T249 399Q179 399 147 347T106 232Q174 241 211 248Z" />
<glyph unicode="f" glyph-name="uni0066" horiz-adv-x="306" d="M289 698Q318 698 344 692T396 667L402 563L345 556L335 632Q322 638 307 640T281 642Q207 642 194 534L183 445H313L308 409L285 388H176L121 -58Q111 -133 79 -178T-24 -223Q-74 -223 -108 -195T-142
-98L-87 -82Q-89 -137 -68 -151T-28 -166Q10 -166 28 -138T53 -57L108 388H23L27 425L50 445H115L126 531Q146 698 289 698Z" />
<glyph unicode="g" glyph-name="uni0067" horiz-adv-x="513" d="M392 445H519L515 406L493 388H442L395 6Q382 -94 332 -158T179 -223Q112 -223 63 -190T4 -90L56 -64Q66 -116 103 -139T184 -162Q307 -162 327 9L336 87Q313 47 275 19T180 -10Q107 -10 69 41T31
175Q31 234 52 299T119 409T243 454Q344 454 375 373L392 445ZM249 397Q196 397 164 364T118 281T104 185Q104 47 200 47Q257 47 297 92T348 184L360 276Q361 328 331 362T249 397Z" />
<glyph unicode="h" glyph-name="uni0068" horiz-adv-x="505" d="M46 669L68 688H192L152 365Q176 406 212 430T300 454Q363 454 400 414T427 285L399 57H474L469 17L448 0H325L357 264Q366 336 342 366T272 397Q219 397 186 361T142 278L108 0H40L117 631H41L46 669Z" />
<glyph unicode="i" glyph-name="uni0069" horiz-adv-x="255" d="M125 560L134 651H208L199 560H125ZM36 426L57 445H183L136 57H211L206 17L184 0H61L108 388H31L36 426Z" />
<glyph unicode="j" glyph-name="uni006A" horiz-adv-x="245" d="M129 560L138 651H212L202 560H129ZM24 426L46 445H193L136 -18Q112 -217 -1 -223Q-23 -224 -42 -219T-80 -205L-77 -154Q-25 -175 14 -151T68 -18L118 388H19L24 426Z" />
<glyph unicode="k" glyph-name="uni006B" horiz-adv-x="446" d="M46 669L68 688H192L139 258H221Q267 298 294 344T326 445H398Q394 383 357 329T261 234L358 57H420L415 17L394 0H316L207 205H133L108 0H40L117 631H41L46 669Z" />
<glyph unicode="l" glyph-name="uni006C" horiz-adv-x="239" d="M52 669L72 688H199L122 57H196L191 17L170 0H47L124 631H47L52 669Z" />
<glyph unicode="m" glyph-name="uni006D" horiz-adv-x="787" d="M55 445H169L166 357Q189 401 225 427T314 454Q421 454 436 351Q458 398 494 426T586 454Q649 454 684 413T710 285L682 57H757L752 17L730 0H608L640 264Q648 336 626 366T557 397Q503 397 475
363T435 282L401 0H334L366 264Q374 337 352 367T285 397Q224 397 195 356T158 261L157 262L126 0H59L106 388H28L33 426L55 445Z" />
<glyph unicode="n" glyph-name="uni006E" horiz-adv-x="523" d="M55 445H169L168 359Q192 402 229 428T318 454Q382 454 419 414T446 285L418 57H493L488 17L467 0H344L376 264Q384 336 361 366T290 397Q236 397 203 360T160 274L126 0H59L106 388H28L33 426L55 445Z" />
<glyph unicode="o" glyph-name="uni006F" horiz-adv-x="480" d="M31 189Q31 294 89 374T260 454Q356 454 396 395T437 252Q437 141 377 66T208 -10Q117 -10 74 45T31 189ZM105 193Q105 128 128 88T215 47Q293 47 328 107T364 250Q364 315 340 356T252 397Q179
397 142 340T105 193Z" />
<glyph unicode="p" glyph-name="uni0070" horiz-adv-x="520" d="M202 -195L180 -213H-31L-26 -175L-6 -156H40L106 388H29L34 426L55 445H170L167 353Q189 394 225 424T320 454Q396 454 437 402T478 265Q478 208 458 144T392 35T268 -10Q170 -10 134 64L107 -156H206L202
-195ZM263 47Q317 47 347 81T391 165T404 255Q404 397 301 397Q244 397 208 354T159 264L147 165Q147 116 179 82T263 47Z" />
<glyph unicode="q" glyph-name="uni0071" horiz-adv-x="502" d="M432 -195L410 -213H205L210 -175L231 -156H307L336 87Q312 47 274 19T180 -10Q107 -10 69 41T31 176Q31 234 52 299T119 409T243 454Q346 454 376 370Q380 389 385 407T396 445H463Q453 410 445
376T432 307L375 -156H437L432 -195ZM250 397Q195 397 163 364T118 281T104 185Q104 47 202 47Q258 47 298 93T349 186L360 282Q360 332 328 364T250 397Z" />
<glyph unicode="r" glyph-name="uni0072" horiz-adv-x="343" d="M231 18L210 0H-1L4 38L25 57H75L116 388H39L44 426L65 445H176L174 344Q193 388 222 421T292 455Q320 455 346 438L333 367Q306 382 280 382Q238 382 209 343T169 256L143 57H236L231 18Z" />
<glyph unicode="s" glyph-name="uni0073" horiz-adv-x="418" d="M181 47Q289 47 289 124Q289 165 257 179T172 208Q128 219 92 241T55 321Q55 387 103 420T214 454Q259 454 300 442T368 413L366 309L311 302L307 373Q288 383 268 390T220 397Q126 397 126 328Q126
298 149 284T221 257Q267 245 313 222T360 130Q360 65 313 28T191 -10Q145 -10 96 2T20 34L44 135L99 129L89 67Q128 47 181 47Z" />
<glyph unicode="t" glyph-name="uni0074" horiz-adv-x="343" d="M28 425L51 445H106L120 565L144 588H191L173 445H325L320 409L297 388H166L136 137Q126 47 191 47Q213 47 231 61T266 132L316 115Q299 50 269 20T183 -10Q121 -10 91 28T68 131L99 388H23L28 425Z" />
<glyph unicode="u" glyph-name="uni0075" horiz-adv-x="522" d="M483 57L478 19L456 0H341L342 85Q319 42 283 17T195 -9Q131 -9 94 31T67 160L95 388H20L25 428L47 445H170L138 180Q129 109 150 79T223 48Q276 48 307 83T349 164L384 445H452L405 57H483Z" />
<glyph unicode="v" glyph-name="uni0076" horiz-adv-x="469" d="M225 406L204 388H141L231 82H237Q301 154 333 219T366 352Q366 374 363 397T349 445H428Q443 382 433 317T380 185Q354 144 312 94T224 0H186L69 388H13L18 426L39 445H230L225 406Z" />
<glyph unicode="w" glyph-name="uni0077" horiz-adv-x="713" d="M488 82H492Q607 221 607 354Q607 405 591 445H669Q683 376 672 308T618 172Q596 133 557 85T479 0H444L368 335H364L207 0H166L65 388H14L19 426L41 445H230L225 406L204 388H137L202 108H206L361
445H407L488 82Z" />
<glyph unicode="x" glyph-name="uni0078" horiz-adv-x="477" d="M449 18L428 0H242L246 38L267 57H313L221 197Q77 106 104 0H26Q8 71 65 126T194 229L84 388H21L26 426L47 445H234L229 406L208 388H160L244 261Q379 353 352 445H428Q443 406 421 368T356 295T271
229L388 57H454L449 18Z" />
<glyph unicode="y" glyph-name="uni0079" horiz-adv-x="468" d="M231 82H237Q365 225 365 352Q365 401 347 445H427Q442 382 432 317T379 185Q357 150 322 106T246 21L222 -156H299L295 -195L274 -213H72L77 -175L98 -156H154L179 23L70 388H13L18 426L39 445H230L225
406L204 388H142L231 82Z" />
<glyph unicode="z" glyph-name="uni007A" horiz-adv-x="448" d="M372 0H16L7 43L325 388H123L101 299L46 306L73 445H401L414 403L100 57H322L355 147L410 138L372 0Z" />
<glyph unicode="{" glyph-name="uni007B" horiz-adv-x="277" d="M108 267Q156 259 176 237T196 189Q196 154 167 103T110 -4T81 -106Q81 -160 137 -160H200L194 -212H131Q77 -212 50 -184T22 -111Q22 -58 50 0T107 108T136 190Q136 226 102 236T46 247H28L32 287H50Q74
287 113 299T153 355Q153 398 126 473T99 617Q99 678 133 714T232 750H295L290 698H227Q157 698 157 620Q157 579 171 530T199 436T213 358Q213 328 190 302T108 267Z" />
<glyph unicode="|" glyph-name="uni007C" horiz-adv-x="230" d="M193 730L108 -80H47L132 730H193Z" />
<glyph unicode="}" glyph-name="uni007D" horiz-adv-x="277" d="M168 271Q120 279 100 301T80 349Q80 384 109 435T166 542T195 644Q195 698 139 698H76L82 750H145Q199 750 226 722T254 649Q254 596 226 538T169 430T140 348Q140 312 174 302T230 291H248L244
251H226Q202 251 163 239T123 183Q123 140 150 65T177 -79Q177 -140 143 -176T44 -212H-19L-14 -160H49Q119 -160 119 -82Q119 -41 105 8T77 102T63 180Q63 210 86 236T168 271Z" />
<glyph unicode="~" glyph-name="uni007E" horiz-adv-x="603" d="M402 200Q356 200 324 218T260 253T186 271Q162 271 137 260T82 207L43 234Q77 288 117 312T196 336Q238 336 270 318T334 283T409 265Q439 265 463 281T519 342L562 312Q488 200 402 200Z" />
<glyph unicode="&#xa0;" glyph-name="uni00A0" horiz-adv-x="220" />
<glyph unicode="&#xa1;" glyph-name="uni00A1" horiz-adv-x="219" d="M169 448L159 351H71L82 448H169ZM18 -202L81 256H134L100 -202H18Z" />
<glyph unicode="&#xa2;" glyph-name="uni00A2" horiz-adv-x="450" d="M170 -84L178 -8Q35 9 35 186Q35 242 54 300T114 401T226 452L234 529H280L272 453Q342 450 396 409L402 302L343 295L334 371Q304 393 266 396L230 48Q307 57 339 163L394 150Q380 94 340
46T224 -9L216 -84H170ZM108 190Q108 133 126 97T184 50L220 393Q158 378 133 318T108 190Z" />
<glyph unicode="&#xa3;" glyph-name="uni00A3" horiz-adv-x="499" d="M48 281H113L119 334Q130 440 185 484T301 529Q345 529 378 519T436 490L440 373L382 366L374 455Q345 472 308 472Q257 472 227 442T188 335L183 281H358L353 235H178L175 197Q171 162 155
122T95 56H283Q327 56 353 74T399 116L431 83Q420 63 383 32T291 0H13L19 54Q66 76 83 114T105 197L109 235H43L48 281Z" />
<glyph unicode="&#xa4;" glyph-name="uni00A4" horiz-adv-x="503" d="M103 256Q103 313 139 357L58 451L91 481L171 389Q214 421 266 421Q316 421 354 388L457 481L483 451L380 356Q400 321 400 283Q400 227 362 181L444 87L411 56L329 149Q286 119 236 119Q186
119 149 151L45 56L19 87L123 182Q103 214 103 256ZM163 263Q162 223 185 200T242 176Q282 176 310 205T339 280Q339 318 317 341T261 364Q224 364 194 336T163 263Z" />
<glyph unicode="&#xa5;" glyph-name="uni00A5" horiz-adv-x="577" d="M143 56H233L239 110H105L109 152H243L247 202L245 206H115L119 249H222L104 465H53L59 521H258L252 465H182L290 259H295L440 465H369L375 521H567L561 465H511L354 249H455L451 206H322L317
198L312 152H445L441 110H308L302 56H396L390 0H136L143 56Z" />
<glyph unicode="&#xa6;" glyph-name="uni00A6" horiz-adv-x="211" d="M184 730L152 426H91L123 730H184ZM131 224L99 -80H38L70 224H131Z" />
<glyph unicode="&#xa7;" glyph-name="uni00A7" horiz-adv-x="578" d="M478 148Q478 75 420 33T266 -10Q210 -10 151 5T52 47L76 157L132 151L120 75Q151 58 192 51T267 44Q323 44 365 66T408 138Q408 184 368 197T257 222Q208 228 159 239T77 273T44 339Q44 374
69 400T134 443Q122 456 115 472T107 513Q107 582 166 621T321 660Q363 660 411 651T502 620L496 493L437 487V580Q380 607 312 607Q256 607 217 587T178 522Q178 480 214 464T305 437Q357 428 412 417T506 382T545 310Q545 274 523 247T462 202Q478 180 478 148ZM478
296Q478 328 446 344T366 369T274 385Q246 390 220 397T171 414Q112 392 112 350Q112 316 155 303T288 274Q330 267 363 260T424 239Q478 260 478 296Z" />
<glyph unicode="&#xa8;" glyph-name="uni00A8" horiz-adv-x="387" d="M119 555L128 640H206L198 555H119ZM287 555L295 640H375L366 555H287Z" />
<glyph unicode="&#xa9;" glyph-name="uni00A9" horiz-adv-x="612" d="M597 285Q597 204 556 138T449 33T307 -7Q204 -7 137 63T69 236Q69 316 109 382T217 489T361 529Q466 529 531 458T597 285ZM555 283Q555 368 502 427T357 487Q254 487 183 414T111 239Q111
152 166 93T310 34Q410 34 482 107T555 283ZM433 122Q413 106 384 99T326 91Q254 91 215 132T176 242Q176 322 227 378T357 434Q426 434 464 396L467 331L431 327L427 377Q415 386 398 392T355 399Q292 399 256 356T220 245Q220 190 247 159T337 127Q352 127 368
129T400 140L414 191L449 187L433 122Z" />
<glyph unicode="&#xaa;" glyph-name="uni00AA" horiz-adv-x="385" d="M360 695Q352 672 346 649T338 601L318 450H361L359 418L343 405H268L269 465Q255 438 231 418T168 398Q118 398 93 432T68 521Q68 559 81 601T124 672T206 701Q275 701 294 645Q297 658 300
670T308 695H360ZM213 657Q162 657 144 615T125 529Q125 443 185 443Q225 443 249 475T276 538V537L282 587Q282 619 263 638T213 657Z" />
<glyph unicode="&#xab;" glyph-name="uni00AB" horiz-adv-x="441" d="M208 25H149L40 271L200 511H259L107 271L208 25ZM369 25H309L200 271L360 511H420L269 271L369 25Z" />
<glyph unicode="&#xac;" glyph-name="uni00AC" horiz-adv-x="591" d="M461 99L477 256H58L63 308H534L512 99H461Z" />
<glyph unicode="&#xae;" glyph-name="uni00AE" horiz-adv-x="591" d="M296 159Q192 159 119 231T46 409Q46 513 119 586T297 660Q402 660 474 587T547 409Q547 305 474 232T296 159ZM297 200Q386 200 445 261T504 409Q504 496 446 557T297 619Q206 619 147 558T88
409Q88 322 147 261T297 200ZM177 308H213V528H177V559H306Q360 559 385 537T410 479Q410 419 347 400L398 308H434V277H371L309 393H252V308H290V277H177V308ZM299 423Q367 423 367 478Q367 528 299 528H252V423H299Z" />
<glyph unicode="&#xaf;" glyph-name="uni00AF" horiz-adv-x="328" d="M106 621H346L340 564H100L106 621Z" />
<glyph unicode="&#xb0;" glyph-name="uni00B0" horiz-adv-x="390" d="M202 342Q135 342 98 382T61 484Q61 558 111 609T236 660Q304 660 340 619T376 518Q376 444 327 393T202 342ZM208 395Q254 395 285 426T317 513Q317 558 293 582T229 607Q183 607 151 576T119
488Q119 444 143 420T208 395Z" />
<glyph unicode="&#xb1;" glyph-name="uni00B1" horiz-adv-x="444" d="M52 259L58 313H204L220 460H273L257 313H398L392 259H251L236 113H184L199 259H52ZM25 0L30 53H370L365 0H25Z" />
<glyph unicode="&#xb2;" glyph-name="uni00B2" horiz-adv-x="340" d="M126 667L83 672L102 748Q148 785 216 785Q274 785 302 758T330 695Q330 646 291 601T202 518T125 460H279L291 513L339 508L321 415H53L52 456Q98 492 148 531T232 610T266 690Q266 711 252
725T203 740Q172 740 146 723L126 667Z" />
<glyph unicode="&#xb3;" glyph-name="uni00B3" horiz-adv-x="336" d="M133 673L90 678L106 747Q130 766 161 775T221 784Q268 784 298 762T329 701Q329 673 310 648T247 609V607Q290 600 308 577T326 523Q326 468 284 438T183 408Q131 408 97 433T61 505L104 517Q106
493 125 473T183 453Q223 453 243 474T264 525Q264 554 243 569T168 585L172 623Q222 625 244 644T267 691Q267 739 209 739Q179 739 150 723L133 673Z" />
<glyph unicode="&#xb4;" glyph-name="uni00B4" horiz-adv-x="431" d="M424 624L242 520L224 551L389 683L424 624Z" />
<glyph unicode="&#xb5;" glyph-name="uni00B5" horiz-adv-x="558" d="M514 0H367L375 82Q350 40 308 15T214 -10Q166 -10 134 14L111 -213H41L105 388H29L35 445H181L152 177Q145 106 170 77T242 47Q298 47 337 85T384 171L407 388H317L323 445H482L442 57H521L514 0Z" />
<glyph unicode="&#xb6;" glyph-name="uni00B6" horiz-adv-x="606" d="M606 650L599 588H525L463 0H397L459 588H397L335 0H269L302 310H245Q161 310 106 345T50 464Q50 540 109 595T287 650H606Z" />
<glyph unicode="&#xb7;" glyph-name="uni00B7" horiz-adv-x="216" d="M59 257L69 358H162L152 257H59Z" />
<glyph unicode="&#xb8;" glyph-name="uni00B8" horiz-adv-x="251" d="M160 6L154 -47H162Q241 -47 241 -119Q241 -166 206 -187T125 -209Q66 -209 35 -179L56 -138Q83 -161 126 -161Q181 -161 181 -117Q181 -94 167 -87T128 -80H99L110 6H160Z" />
<glyph unicode="&#xb9;" glyph-name="uni00B9" horiz-adv-x="254" d="M54 460H126L155 734H82L86 779H217L183 460H255L250 415H48L54 460Z" />
<glyph unicode="&#xba;" glyph-name="uni00BA" horiz-adv-x="354" d="M67 528Q67 596 105 648T221 701Q286 701 315 663T344 569Q344 496 302 447T187 398Q126 398 97 433T67 528ZM124 532Q124 492 138 468T192 443Q242 443 264 480T286 567Q286 608 271 632T216
657Q170 657 147 623T124 532Z" />
<glyph unicode="&#xbb;" glyph-name="uni00BB" horiz-adv-x="442" d="M240 25H182L334 271L233 511H291L402 271L240 25ZM80 25H20L172 271L71 511H131L241 271L80 25Z" />
<glyph unicode="&#xbc;" glyph-name="uni00BC" horiz-adv-x="691" d="M593 650L374 325L161 0H109L336 337L542 650H593ZM47 331H119L148 605H75L79 650H210L176 331H248L243 286H41L47 331ZM516 0L526 94H349L348 138L499 364H610L586 136H648L638 94H582L572
0H516ZM521 319L399 136H530L550 319H521Z" />
<glyph unicode="&#xbd;" glyph-name="uni00BD" horiz-adv-x="731" d="M588 650L369 325L156 0H104L331 337L537 650H588ZM45 331H117L146 605H73L77 650H208L174 331H246L241 286H39L45 331ZM475 252L432 257L451 333Q497 370 565 370Q624 370 651 343T679 280Q679
232 640 186T551 103T474 45H628L640 98L688 93L670 0H402L401 41Q448 77 497 116T581 196T615 275Q615 296 601 310T552 325Q520 325 495 308L475 252Z" />
<glyph unicode="&#xbe;" glyph-name="uni00BE" horiz-adv-x="718" d="M122 549L79 554L95 623Q119 642 150 651T210 660Q257 660 287 638T318 577Q318 549 299 524T236 485V483Q280 476 297 453T315 399Q315 344 273 314T172 284Q120 284 86 309T50 381L93 393Q95
369 114 349T172 329Q212 329 232 350T253 401Q253 430 232 445T157 461L161 499Q211 501 233 520T256 567Q256 615 198 615Q168 615 139 599L122 549ZM620 650L401 325L188 0H136L363 337L569 650H620ZM542 0L552 94H375L374 138L525 364H636L612 136H674L664
94H608L598 0H542ZM547 319L425 136H556L576 319H547Z" />
<glyph unicode="&#xbf;" glyph-name="uni00BF" horiz-adv-x="431" d="M291 448L281 351H194L204 448H291ZM306 -12L363 -17L342 -137Q310 -167 262 -189T159 -212Q92 -212 42 -179T-9 -84Q-9 -32 25 3T104 66T183 120T218 180Q218 217 170 217L175 267Q241 271
267 248T293 189Q293 141 259 110T181 53T103 -1T69 -71Q69 -147 173 -147Q233 -147 283 -108L306 -12Z" />
<glyph unicode="&#xc0;" glyph-name="uni00C0" horiz-adv-x="633" d="M413 703L210 745L227 813L422 740L413 703ZM-18 64H42L304 586H203L209 650H389L556 64H618L611 0H388L394 64H479L446 189H176L115 64H205L199 0H-23L-18 64ZM349 544L204 246H431L353 544H349Z" />
<glyph unicode="&#xc1;" glyph-name="uni00C1" horiz-adv-x="633" d="M530 745L328 703L319 740L514 813L530 745ZM-18 64H42L304 586H203L209 650H389L556 64H618L611 0H388L394 64H479L446 189H176L115 64H205L199 0H-23L-18 64ZM349 544L204 246H431L353 544H349Z" />
<glyph unicode="&#xc2;" glyph-name="uni00C2" horiz-adv-x="633" d="M388 825L501 736L480 702L369 764L249 701L231 733L367 825H388ZM-18 64H42L304 586H203L209 650H389L556 64H618L611 0H388L394 64H479L446 189H176L115 64H205L199 0H-23L-18 64ZM349 544L204
246H431L353 544H349Z" />
<glyph unicode="&#xc3;" glyph-name="uni00C3" horiz-adv-x="633" d="M246 705L215 718Q222 744 244 772T304 800Q337 800 360 783T418 765Q431 765 444 772T468 807L502 798Q492 758 472 734T417 709Q380 709 354 726T300 744Q286 744 271 737T246 705ZM-18 64H42L304
586H203L209 650H389L556 64H618L611 0H388L394 64H479L446 189H176L115 64H205L199 0H-23L-18 64ZM349 544L204 246H431L353 544H349Z" />
<glyph unicode="&#xc4;" glyph-name="uni00C4" horiz-adv-x="633" d="M409 718L418 803H497L489 718H409ZM242 718L250 803H329L320 718H242ZM-18 64H42L304 586H203L209 650H389L556 64H618L611 0H388L394 64H479L446 189H176L115 64H205L199 0H-23L-18 64ZM349
544L204 246H431L353 544H349Z" />
<glyph unicode="&#xc5;" glyph-name="uni00C5" horiz-adv-x="633" d="M362 690Q274 690 274 772Q274 817 303 845T383 874Q470 874 470 793Q470 750 442 720T362 690ZM366 730Q394 730 407 747T421 790Q421 834 378 834Q323 834 323 774Q323 730 366 730ZM-18
64H42L304 586H203L209 650H389L556 64H618L611 0H388L394 64H479L446 189H176L115 64H205L199 0H-23L-18 64ZM349 544L204 246H431L353 544H349Z" />
<glyph unicode="&#xc6;" glyph-name="uni00C6" horiz-adv-x="904" d="M812 0H339L345 64H424L438 189H183L110 64H198L191 0H-33L-27 64H37L346 586H251L257 650H872L871 467L809 459L803 586H552L528 362H827L821 298H522L497 64H756L790 191L851 184L812 0ZM444
246L479 586H414L216 246H444Z" />
<glyph unicode="&#xc7;" glyph-name="uni00C7" horiz-adv-x="628" d="M539 50Q499 20 442 5T329 -10L325 -47H333Q412 -47 412 -119Q412 -166 377 -187T296 -209Q238 -209 206 -179L227 -138Q254 -161 297 -161Q352 -161 352 -117Q352 -94 338 -87T299 -80H270L279
-7Q164 8 104 88T43 289Q43 390 85 474T204 609T389 660Q460 660 513 638T599 584L603 459L541 453L533 548Q504 569 468 581T385 594Q266 594 192 514T117 295Q117 56 343 56Q424 56 480 85L508 181L568 175L539 50Z" />
<glyph unicode="&#xc8;" glyph-name="uni00C8" horiz-adv-x="573" d="M434 703L231 745L248 813L443 740L434 703ZM481 0H12L18 64H98L154 586H73L80 650H545V466L482 459L476 586H225L200 362H502L496 298H194L169 64H425L458 191L519 184L481 0Z" />
<glyph unicode="&#xc9;" glyph-name="uni00C9" horiz-adv-x="573" d="M500 745L298 703L289 740L484 813L500 745ZM481 0H12L18 64H98L154 586H73L80 650H545V466L482 459L476 586H225L200 362H502L496 298H194L169 64H425L458 191L519 184L481 0Z" />
<glyph unicode="&#xca;" glyph-name="uni00CA" horiz-adv-x="573" d="M387 825L500 736L479 702L368 764L248 701L230 733L366 825H387ZM481 0H12L18 64H98L154 586H73L80 650H545V466L482 459L476 586H225L200 362H502L496 298H194L169 64H425L458 191L519 184L481 0Z" />
<glyph unicode="&#xcb;" glyph-name="uni00CB" horiz-adv-x="573" d="M243 718L251 803H330L321 718H243ZM410 718L419 803H498L490 718H410ZM481 0H12L18 64H98L154 586H73L80 650H545V466L482 459L476 586H225L200 362H502L496 298H194L169 64H425L458 191L519
184L481 0Z" />
<glyph unicode="&#xcc;" glyph-name="uni00CC" horiz-adv-x="311" d="M258 703L55 745L72 813L267 740L258 703ZM19 64H98L153 586H73L80 650H309L303 586H222L167 64H248L241 0H12L19 64Z" />
<glyph unicode="&#xcd;" glyph-name="uni00CD" horiz-adv-x="311" d="M344 745L142 703L133 740L328 813L344 745ZM19 64H98L153 586H73L80 650H309L303 586H222L167 64H248L241 0H12L19 64Z" />
<glyph unicode="&#xce;" glyph-name="uni00CE" horiz-adv-x="311" d="M227 825L340 736L319 702L208 764L88 701L70 733L206 825H227ZM19 64H98L153 586H73L80 650H309L303 586H222L167 64H248L241 0H12L19 64Z" />
<glyph unicode="&#xcf;" glyph-name="uni00CF" horiz-adv-x="311" d="M246 718L255 803H334L326 718H246ZM79 718L87 803H166L157 718H79ZM19 64H98L153 586H73L80 650H309L303 586H222L167 64H248L241 0H12L19 64Z" />
<glyph unicode="&#xd0;" glyph-name="uni00D0" horiz-adv-x="687" d="M50 369H131L154 587H75L81 650H363Q506 650 580 569T654 361Q654 206 558 103T298 0H13L20 63H99L125 311H44L50 369ZM301 63Q431 63 505 144T580 355Q580 461 523 524T356 587H224L201 369H330L324
311H195L169 63H301Z" />
<glyph unicode="&#xd1;" glyph-name="uni00D1" horiz-adv-x="715" d="M284 705L253 718Q260 744 282 772T342 800Q375 800 398 783T456 765Q469 765 482 772T506 807L540 798Q530 758 510 734T455 709Q418 709 392 726T338 744Q324 744 309 737T284 705ZM25 64H98L153
586H70L77 650H211L520 148H523L568 586H474L480 650H722L716 586H636L575 0H530L216 512H213L165 64H267L261 0H18L25 64Z" />
<glyph unicode="&#xd2;" glyph-name="uni00D2" horiz-adv-x="710" d="M440 703L237 745L254 813L449 740L440 703ZM393 660Q525 660 601 572T678 359Q678 259 632 175T507 41T325 -10Q192 -10 117 78T42 291Q42 392 88 476T214 610T393 660ZM336 56Q459 56 530
146T602 354Q602 459 546 526T385 594Q266 594 192 506T118 297Q118 200 171 128T336 56Z" />
<glyph unicode="&#xd3;" glyph-name="uni00D3" horiz-adv-x="710" d="M549 745L347 703L338 740L533 813L549 745ZM393 660Q525 660 601 572T678 359Q678 259 632 175T507 41T325 -10Q192 -10 117 78T42 291Q42 392 88 476T214 610T393 660ZM336 56Q459 56 530
146T602 354Q602 459 546 526T385 594Q266 594 192 506T118 297Q118 200 171 128T336 56Z" />
<glyph unicode="&#xd4;" glyph-name="uni00D4" horiz-adv-x="710" d="M430 825L543 736L522 702L411 764L291 701L273 733L409 825H430ZM393 660Q525 660 601 572T678 359Q678 259 632 175T507 41T325 -10Q192 -10 117 78T42 291Q42 392 88 476T214 610T393 660ZM336
56Q459 56 530 146T602 354Q602 459 546 526T385 594Q266 594 192 506T118 297Q118 200 171 128T336 56Z" />
<glyph unicode="&#xd5;" glyph-name="uni00D5" horiz-adv-x="710" d="M296 705L265 718Q272 744 294 772T354 800Q387 800 410 783T468 765Q481 765 494 772T518 807L552 798Q542 758 522 734T467 709Q430 709 404 726T350 744Q336 744 321 737T296 705ZM393 660Q525
660 601 572T678 359Q678 259 632 175T507 41T325 -10Q192 -10 117 78T42 291Q42 392 88 476T214 610T393 660ZM336 56Q459 56 530 146T602 354Q602 459 546 526T385 594Q266 594 192 506T118 297Q118 200 171 128T336 56Z" />
<glyph unicode="&#xd6;" glyph-name="uni00D6" horiz-adv-x="710" d="M284 718L292 803H371L362 718H284ZM451 718L460 803H539L531 718H451ZM393 660Q525 660 601 572T678 359Q678 259 632 175T507 41T325 -10Q192 -10 117 78T42 291Q42 392 88 476T214 610T393
660ZM336 56Q459 56 530 146T602 354Q602 459 546 526T385 594Q266 594 192 506T118 297Q118 200 171 128T336 56Z" />
<glyph unicode="&#xd7;" glyph-name="uni00D7" horiz-adv-x="381" d="M72 131L40 169L154 275L64 379L104 417L195 312L306 415L338 377L228 275L318 172L278 133L187 237L72 131Z" />
<glyph unicode="&#xd8;" glyph-name="uni00D8" horiz-adv-x="706" d="M392 660Q491 660 565 604L605 650H678L605 567Q677 482 677 359Q677 259 632 175T506 41T324 -10Q221 -10 148 47L107 0H41L112 82Q41 165 41 291Q41 392 87 476T213 610T392 660ZM117 297Q117
201 161 139L519 551Q463 594 384 594Q265 594 191 506T117 297ZM335 56Q458 56 529 146T601 354Q601 447 556 511L196 101Q251 56 335 56Z" />
<glyph unicode="&#xd9;" glyph-name="uni00D9" horiz-adv-x="696" d="M452 703L249 745L266 813L461 740L452 703ZM482 650H699L693 586H631L598 267Q590 198 563 135T479 31T324 -10Q183 -10 135 70T97 256L132 586H67L73 650H298L290 586H203L169 258Q159 162
198 109T331 56Q508 56 531 267L564 586H475L482 650Z" />
<glyph unicode="&#xda;" glyph-name="uni00DA" horiz-adv-x="696" d="M549 745L347 703L338 740L533 813L549 745ZM482 650H699L693 586H631L598 267Q590 198 563 135T479 31T324 -10Q183 -10 135 70T97 256L132 586H67L73 650H298L290 586H203L169 258Q159 162
198 109T331 56Q508 56 531 267L564 586H475L482 650Z" />
<glyph unicode="&#xdb;" glyph-name="uni00DB" horiz-adv-x="696" d="M418 825L531 736L510 702L399 764L279 701L261 733L397 825H418ZM482 650H699L693 586H631L598 267Q590 198 563 135T479 31T324 -10Q183 -10 135 70T97 256L132 586H67L73 650H298L290 586H203L169
258Q159 162 198 109T331 56Q508 56 531 267L564 586H475L482 650Z" />
<glyph unicode="&#xdc;" glyph-name="uni00DC" horiz-adv-x="696" d="M444 718L453 803H532L524 718H444ZM277 718L285 803H364L355 718H277ZM482 650H699L693 586H631L598 267Q590 198 563 135T479 31T324 -10Q183 -10 135 70T97 256L132 586H67L73 650H298L290
586H203L169 258Q159 162 198 109T331 56Q508 56 531 267L564 586H475L482 650Z" />
<glyph unicode="&#xdd;" glyph-name="uni00DD" horiz-adv-x="597" d="M480 745L278 703L269 740L464 813L480 745ZM259 586H172L305 316H310L492 586H405L412 650H633L627 586H565L333 249L313 64H424L417 0H128L134 64H242L262 249L93 586H30L37 650H266L259 586Z" />
<glyph unicode="&#xde;" glyph-name="uni00DE" horiz-adv-x="556" d="M19 64H98L153 586H73L80 650H309L303 586H222L216 525H336Q444 525 491 478T539 356Q539 252 472 198T301 143H176L167 64H248L241 0H12L19 64ZM297 194Q377 194 419 237T462 352Q462 474
325 474H210L181 194H297Z" />
<glyph unicode="&#xdf;" glyph-name="uni00DF" horiz-adv-x="599" d="M23 388L27 425L50 445H115L124 514Q135 607 201 652T357 698Q440 698 493 662T547 560Q547 505 514 476T437 429T360 390T327 327Q327 295 350 283T411 259Q443 252 478 241T537 204T562 130Q562
65 516 28T394 -10Q345 -10 297 2T221 34L245 135L300 129L291 67Q311 56 337 52T387 47Q490 47 490 125Q490 164 463 178T390 203Q343 215 300 236T256 319Q256 373 289 402T366 450T443 492T477 556Q477 596 442 619T350 642Q280 642 239 606T190 509L121 -58Q111
-132 79 -177T-24 -223Q-74 -223 -108 -195T-142 -98L-87 -82Q-89 -134 -69 -150T-26 -166Q39 -166 53 -57L108 388H23Z" />
<glyph unicode="&#xe0;" glyph-name="uni00E0" horiz-adv-x="504" d="M310 520L128 624L163 683L329 551L310 520ZM456 445Q446 410 438 376T426 307L394 57H461L457 17L436 0H331L333 90Q311 50 276 20T181 -10Q108 -10 70 41T32 178Q32 235 51 299T116 409T238
454Q340 454 370 370Q374 389 379 407T390 445H456ZM245 397Q190 397 160 363T118 281T105 189Q105 47 202 47Q257 47 293 92T341 183L354 281Q353 331 323 364T245 397Z" />
<glyph unicode="&#xe1;" glyph-name="uni00E1" horiz-adv-x="504" d="M439 624L257 520L239 551L404 683L439 624ZM456 445Q446 410 438 376T426 307L394 57H461L457 17L436 0H331L333 90Q311 50 276 20T181 -10Q108 -10 70 41T32 178Q32 235 51 299T116 409T238
454Q340 454 370 370Q374 389 379 407T390 445H456ZM245 397Q190 397 160 363T118 281T105 189Q105 47 202 47Q257 47 293 92T341 183L354 281Q353 331 323 364T245 397Z" />
<glyph unicode="&#xe2;" glyph-name="uni00E2" horiz-adv-x="504" d="M310 671L416 550L387 519L290 605L180 519L156 550L288 671H310ZM456 445Q446 410 438 376T426 307L394 57H461L457 17L436 0H331L333 90Q311 50 276 20T181 -10Q108 -10 70 41T32 178Q32
235 51 299T116 409T238 454Q340 454 370 370Q374 389 379 407T390 445H456ZM245 397Q190 397 160 363T118 281T105 189Q105 47 202 47Q257 47 293 92T341 183L354 281Q353 331 323 364T245 397Z" />
<glyph unicode="&#xe3;" glyph-name="uni00E3" horiz-adv-x="504" d="M185 549L153 561Q159 587 182 618T243 649Q275 649 298 631T356 612Q370 612 382 620T405 655L440 646Q429 606 410 580T355 553Q317 553 292 572T239 592Q225 592 210 583T185 549ZM456 445Q446
410 438 376T426 307L394 57H461L457 17L436 0H331L333 90Q311 50 276 20T181 -10Q108 -10 70 41T32 178Q32 235 51 299T116 409T238 454Q340 454 370 370Q374 389 379 407T390 445H456ZM245 397Q190 397 160 363T118 281T105 189Q105 47 202 47Q257 47 293 92T341
183L354 281Q353 331 323 364T245 397Z" />
<glyph unicode="&#xe4;" glyph-name="uni00E4" horiz-adv-x="504" d="M338 555L346 640H426L417 555H338ZM170 555L179 640H257L249 555H170ZM456 445Q446 410 438 376T426 307L394 57H461L457 17L436 0H331L333 90Q311 50 276 20T181 -10Q108 -10 70 41T32 178Q32
235 51 299T116 409T238 454Q340 454 370 370Q374 389 379 407T390 445H456ZM245 397Q190 397 160 363T118 281T105 189Q105 47 202 47Q257 47 293 92T341 183L354 281Q353 331 323 364T245 397Z" />
<glyph unicode="&#xe5;" glyph-name="uni00E5" horiz-adv-x="504" d="M288 514Q245 514 224 536T202 595Q202 641 231 669T310 698Q352 698 374 676T397 617Q397 576 369 545T288 514ZM293 554Q349 554 349 614Q349 632 340 645T305 658Q251 658 251 598Q251 554
293 554ZM456 445Q446 410 438 376T426 307L394 57H461L457 17L436 0H331L333 90Q311 50 276 20T181 -10Q108 -10 70 41T32 178Q32 235 51 299T116 409T238 454Q340 454 370 370Q374 389 379 407T390 445H456ZM245 397Q190 397 160 363T118 281T105 189Q105 47
202 47Q257 47 293 92T341 183L354 281Q353 331 323 364T245 397Z" />
<glyph unicode="&#xe6;" glyph-name="uni00E6" horiz-adv-x="705" d="M226 400Q204 400 184 394T143 378L118 301L63 308L89 411Q123 435 163 444T242 454Q339 454 370 387Q432 454 523 454Q583 454 625 425T667 340Q667 294 631 259T509 206Q479 200 444 194T372
184Q373 120 397 84T480 47Q527 47 556 71T601 137L657 124Q643 68 595 29T469 -10Q352 -10 314 87Q292 50 251 20T152 -10Q106 -10 65 15T23 107Q23 190 89 219T232 249Q248 249 268 248T304 246L305 250L309 288Q314 337 298 368T226 400ZM518 399Q448 399 415
347T374 232Q453 242 478 248Q554 264 574 289T595 336Q595 370 573 384T518 399ZM169 45Q217 45 253 78T300 158Q299 166 299 183V205Q282 207 262 208T227 209Q173 209 135 190T97 117Q97 76 118 61T169 45Z" />
<glyph unicode="&#xe7;" glyph-name="uni00E7" horiz-adv-x="440" d="M250 397Q170 397 137 332T104 190Q104 124 128 86T209 47Q300 47 335 163L390 150Q376 93 334 44T213 -10L209 -47H217Q296 -47 296 -119Q296 -166 261 -187T180 -209Q122 -209 90 -179L111
-138Q138 -161 181 -161Q236 -161 236 -117Q236 -94 222 -87T183 -80H154L163 -6Q31 17 31 186Q31 245 52 307T122 411T249 454Q334 454 392 409L398 302L339 295L330 371Q296 397 250 397Z" />
<glyph unicode="&#xe8;" glyph-name="uni00E8" horiz-adv-x="437" d="M304 520L122 624L157 683L323 551L304 520ZM213 47Q259 47 288 71T334 137L389 124Q375 68 327 29T202 -10Q121 -10 76 39T31 183Q31 297 92 375T256 454Q315 454 357 425T399 343Q399 294
363 259T240 206Q209 200 175 194T104 182Q105 119 129 83T213 47ZM211 248Q287 265 306 289T326 337Q326 371 305 385T249 399Q179 399 147 347T106 232Q174 241 211 248Z" />
<glyph unicode="&#xe9;" glyph-name="uni00E9" horiz-adv-x="437" d="M413 624L231 520L213 551L378 683L413 624ZM213 47Q259 47 288 71T334 137L389 124Q375 68 327 29T202 -10Q121 -10 76 39T31 183Q31 297 92 375T256 454Q315 454 357 425T399 343Q399 294
363 259T240 206Q209 200 175 194T104 182Q105 119 129 83T213 47ZM211 248Q287 265 306 289T326 337Q326 371 305 385T249 399Q179 399 147 347T106 232Q174 241 211 248Z" />
<glyph unicode="&#xea;" glyph-name="uni00EA" horiz-adv-x="437" d="M295 671L401 550L372 519L275 605L165 519L141 550L273 671H295ZM213 47Q259 47 288 71T334 137L389 124Q375 68 327 29T202 -10Q121 -10 76 39T31 183Q31 297 92 375T256 454Q315 454 357
425T399 343Q399 294 363 259T240 206Q209 200 175 194T104 182Q105 119 129 83T213 47ZM211 248Q287 265 306 289T326 337Q326 371 305 385T249 399Q179 399 147 347T106 232Q174 241 211 248Z" />
<glyph unicode="&#xeb;" glyph-name="uni00EB" horiz-adv-x="437" d="M311 555L319 640H399L390 555H311ZM143 555L152 640H230L222 555H143ZM213 47Q259 47 288 71T334 137L389 124Q375 68 327 29T202 -10Q121 -10 76 39T31 183Q31 297 92 375T256 454Q315 454
357 425T399 343Q399 294 363 259T240 206Q209 200 175 194T104 182Q105 119 129 83T213 47ZM211 248Q287 265 306 289T326 337Q326 371 305 385T249 399Q179 399 147 347T106 232Q174 241 211 248Z" />
<glyph unicode="&#xec;" glyph-name="uni00EC" horiz-adv-x="256" d="M199 520L17 624L52 683L218 551L199 520ZM36 426L57 445H183L136 57H211L206 17L184 0H61L108 388H31L36 426Z" />
<glyph unicode="&#xed;" glyph-name="uni00ED" horiz-adv-x="255" d="M295 624L113 520L95 551L260 683L295 624ZM36 426L57 445H183L136 57H211L206 17L184 0H61L108 388H31L36 426Z" />
<glyph unicode="&#xee;" glyph-name="uni00EE" horiz-adv-x="256" d="M178 671L284 550L255 519L158 605L48 519L24 550L156 671H178ZM36 426L57 445H183L136 57H211L206 17L184 0H61L108 388H31L36 426Z" />
<glyph unicode="&#xef;" glyph-name="uni00EF" horiz-adv-x="255" d="M203 555L211 640H291L282 555H203ZM35 555L44 640H122L114 555H35ZM36 426L57 445H183L136 57H211L206 17L184 0H61L108 388H31L36 426Z" />
<glyph unicode="&#xf0;" glyph-name="uni00F0" horiz-adv-x="490" d="M156 526L221 597Q183 625 146 647L180 698Q202 685 223 672T263 643L315 701L351 674L297 614Q362 556 401 478T441 299Q441 227 420 156T348 37T212 -10Q122 -10 77 46T32 194Q32 302 91
378T247 454Q286 454 312 441T356 407Q343 456 318 495T256 568L192 498L156 526ZM248 397Q175 397 141 339T106 198Q106 136 130 92T217 47Q278 47 309 85T353 177T367 275V279Q363 319 337 358T248 397Z" />
<glyph unicode="&#xf1;" glyph-name="uni00F1" horiz-adv-x="523" d="M180 549L148 561Q154 587 177 618T238 649Q270 649 293 631T351 612Q364 612 377 620T400 655L435 646Q424 606 404 580T350 553Q312 553 287 572T234 592Q220 592 205 583T180 549ZM55 445H169L168
359Q192 402 229 428T318 454Q382 454 419 414T446 285L418 57H493L488 17L467 0H344L376 264Q384 336 361 366T290 397Q236 397 203 360T160 274L126 0H59L106 388H28L33 426L55 445Z" />
<glyph unicode="&#xf2;" glyph-name="uni00F2" horiz-adv-x="481" d="M311 520L129 624L164 683L330 551L311 520ZM31 189Q31 294 89 374T260 454Q356 454 396 395T437 252Q437 141 377 66T208 -10Q117 -10 74 45T31 189ZM105 193Q105 128 128 88T215 47Q293 47
328 107T364 250Q364 315 340 356T252 397Q179 397 142 340T105 193Z" />
<glyph unicode="&#xf3;" glyph-name="uni00F3" horiz-adv-x="481" d="M421 624L239 520L221 551L386 683L421 624ZM31 189Q31 294 89 374T260 454Q356 454 396 395T437 252Q437 141 377 66T208 -10Q117 -10 74 45T31 189ZM105 193Q105 128 128 88T215 47Q293 47
328 107T364 250Q364 315 340 356T252 397Q179 397 142 340T105 193Z" />
<glyph unicode="&#xf4;" glyph-name="uni00F4" horiz-adv-x="481" d="M298 671L404 550L375 519L278 605L168 519L144 550L276 671H298ZM31 189Q31 294 89 374T260 454Q356 454 396 395T437 252Q437 141 377 66T208 -10Q117 -10 74 45T31 189ZM105 193Q105 128
128 88T215 47Q293 47 328 107T364 250Q364 315 340 356T252 397Q179 397 142 340T105 193Z" />
<glyph unicode="&#xf5;" glyph-name="uni00F5" horiz-adv-x="481" d="M168 549L136 561Q142 587 165 618T226 649Q258 649 281 631T339 612Q352 612 365 620T388 655L423 646Q412 606 392 580T338 553Q300 553 275 572T222 592Q208 592 193 583T168 549ZM31 189Q31
294 89 374T260 454Q356 454 396 395T437 252Q437 141 377 66T208 -10Q117 -10 74 45T31 189ZM105 193Q105 128 128 88T215 47Q293 47 328 107T364 250Q364 315 340 356T252 397Q179 397 142 340T105 193Z" />
<glyph unicode="&#xf6;" glyph-name="uni00F6" horiz-adv-x="481" d="M156 555L165 640H243L235 555H156ZM324 555L332 640H412L403 555H324ZM31 189Q31 294 89 374T260 454Q356 454 396 395T437 252Q437 141 377 66T208 -10Q117 -10 74 45T31 189ZM105 193Q105
128 128 88T215 47Q293 47 328 107T364 250Q364 315 340 356T252 397Q179 397 142 340T105 193Z" />
<glyph unicode="&#xf7;" glyph-name="uni00F7" horiz-adv-x="437" d="M182 375L192 476H285L275 375H182ZM46 254L52 308H392L386 254H46ZM152 91L162 192H255L245 91H152Z" />
<glyph unicode="&#xf8;" glyph-name="uni00F8" horiz-adv-x="478" d="M30 189Q30 294 88 374T259 454Q321 454 363 426L378 445H436L396 394Q436 341 436 252Q436 141 376 66T207 -10Q143 -10 102 19L87 0H28L68 51Q30 102 30 189ZM104 193Q104 143 115 111L322
374Q296 397 251 397Q178 397 141 340T104 193ZM214 47Q292 47 327 107T363 250Q363 300 350 335L142 70Q168 47 214 47Z" />
<glyph unicode="&#xf9;" glyph-name="uni00F9" horiz-adv-x="522" d="M315 520L133 624L168 683L334 551L315 520ZM483 57L478 19L456 0H341L342 85Q319 42 283 17T195 -9Q131 -9 94 31T67 160L95 388H20L25 428L47 445H170L138 180Q129 109 150 79T223 48Q276
48 307 83T349 164L384 445H452L405 57H483Z" />
<glyph unicode="&#xfa;" glyph-name="uni00FA" horiz-adv-x="522" d="M440 624L258 520L240 551L405 683L440 624ZM483 57L478 19L456 0H341L342 85Q319 42 283 17T195 -9Q131 -9 94 31T67 160L95 388H20L25 428L47 445H170L138 180Q129 109 150 79T223 48Q276
48 307 83T349 164L384 445H452L405 57H483Z" />
<glyph unicode="&#xfb;" glyph-name="uni00FB" horiz-adv-x="522" d="M311 671L417 550L388 519L291 605L181 519L157 550L289 671H311ZM483 57L478 19L456 0H341L342 85Q319 42 283 17T195 -9Q131 -9 94 31T67 160L95 388H20L25 428L47 445H170L138 180Q129 109
150 79T223 48Q276 48 307 83T349 164L384 445H452L405 57H483Z" />
<glyph unicode="&#xfc;" glyph-name="uni00FC" horiz-adv-x="522" d="M324 555L332 640H412L403 555H324ZM156 555L165 640H243L235 555H156ZM483 57L478 19L456 0H341L342 85Q319 42 283 17T195 -9Q131 -9 94 31T67 160L95 388H20L25 428L47 445H170L138 180Q129
109 150 79T223 48Q276 48 307 83T349 164L384 445H452L405 57H483Z" />
<glyph unicode="&#xfd;" glyph-name="uni00FD" horiz-adv-x="468" d="M420 624L238 520L220 551L385 683L420 624ZM231 82H237Q365 225 365 352Q365 401 347 445H427Q442 382 432 317T379 185Q357 150 322 106T246 21L222 -156H299L295 -195L274 -213H72L77 -175L98
-156H154L179 23L70 388H13L18 426L39 445H230L225 406L204 388H142L231 82Z" />
<glyph unicode="&#xfe;" glyph-name="uni00FE" horiz-adv-x="502" d="M183 -195L161 -213H-50L-45 -175L-24 -156H21L118 631H41L46 669L67 688H191L177 553L153 360Q175 399 210 426T302 454Q378 454 418 402T459 264Q459 207 439 144T374 35T250 -10Q150 -10
115 64L88 -156H188L183 -195ZM245 47Q298 47 329 81T373 165T386 256Q386 322 359 359T282 397Q226 397 190 355T141 266L129 169L128 165Q128 115 160 81T245 47Z" />
<glyph unicode="&#xff;" glyph-name="uni00FF" horiz-adv-x="468" d="M307 555L315 640H395L386 555H307ZM139 555L148 640H226L218 555H139ZM231 82H237Q365 225 365 352Q365 401 347 445H427Q442 382 432 317T379 185Q357 150 322 106T246 21L222 -156H299L295
-195L274 -213H72L77 -175L98 -156H154L179 23L70 388H13L18 426L39 445H230L225 406L204 388H142L231 82Z" />
<glyph unicode="&#x2013;" glyph-name="uni2013" horiz-adv-x="611" d="M56 257H548L543 206H51L56 257Z" />
<glyph unicode="&#x2014;" glyph-name="uni2014" horiz-adv-x="1055" d="M70 257H991L985 206H64L70 257Z" />
<glyph unicode="&#x2018;" glyph-name="uni2018" horiz-adv-x="204" d="M205 656L131 440H63L137 656H205Z" />
<glyph unicode="&#x2019;" glyph-name="uni2019" horiz-adv-x="200" d="M65 479L139 695H207L133 479H65Z" />
<glyph unicode="&#x201a;" glyph-name="uni201A" horiz-adv-x="200" d="M-15 -102L59 114H127L53 -102H-15Z" />
<glyph unicode="&#x201c;" glyph-name="uni201C" horiz-adv-x="362" d="M207 668L133 452H65L139 668H207ZM368 668L294 452H226L300 668H368Z" />
<glyph unicode="&#x201d;" glyph-name="uni201D" horiz-adv-x="359" d="M58 454L132 670H200L126 454H58ZM219 454L293 670H361L287 454H219Z" />
<glyph unicode="&#x201e;" glyph-name="uni201E" horiz-adv-x="363" d="M-15 -102L59 114H127L53 -102H-15ZM148 -102L222 114H290L216 -102H148Z" />
<glyph unicode="&#x2022;" glyph-name="uni2022" horiz-adv-x="350" d="M64 234Q64 284 99 319T182 355Q225 355 252 326T279 254Q279 204 243 169T160 134Q117 134 91 163T64 234Z" />
<glyph unicode="&#x2039;" glyph-name="uni2039" horiz-adv-x="280" d="M208 25H149L40 271L200 511H259L107 271L208 25Z" />
<glyph unicode="&#x203a;" glyph-name="uni203A" horiz-adv-x="281" d="M80 25H20L172 271L71 511H131L241 271L80 25Z" />
</font>
</defs>
</svg>
