<?xml version="1.0" standalone="no"?>
<!DOCTYPE svg PUBLIC "-//W3C//DTD SVG 1.1//EN" "http://www.w3.org/Graphics/SVG/1.1/DTD/svg11.dtd">
<svg xmlns="http://www.w3.org/2000/svg">
<defs >
<font id="Pangolin" horiz-adv-x="563" ><font-face
    font-family="Pangolin"
    units-per-em="1000"
    panose-1="0 0 5 0 0 0 0 0 0 0"
    ascent="937"
    descent="-312"
    alphabetic="0" />
<glyph unicode=" " glyph-name="space" horiz-adv-x="217" />
<glyph unicode="!" glyph-name="exclam" horiz-adv-x="288" d="M93 286T93 301Q93 315 98 322Q96 327 96 339Q96 353 100 367T109 385Q100 393 100 420Q100 432 102 441T108 453Q103 463 103 485Q103 501 106 514T114 535Q102 547 102 568Q102 581 106 592T118
610Q109 623 109 642Q109 654 114 671Q104 684 104 696Q104 712 118 723T149 735Q161 735 170 728T184 705Q195 692 195 677Q195 667 191 660Q194 657 194 611Q196 603 196 598Q196 578 187 555Q193 547 193 528Q193 515 190 503T182 484Q183 481 185 473T187 458Q187
447 182 439Q189 429 189 399Q189 388 187 380Q191 375 191 359Q191 346 188 334T177 316Q184 308 184 294Q184 281 179 273Q184 271 184 259Q184 252 182 245T177 236Q179 228 179 223Q179 207 168 195T139 182Q121 182 109 195T100 227Q95 239 95 259Q95 270
98 276Q93 286 93 301ZM104 14T115 4T143 -7Q157 -7 168 1T182 26Q191 38 191 54L190 73Q188 100 166 109Q159 112 151 112Q135 112 123 101T111 72Q111 67 113 59Q104 46 104 32Q104 14 115 4Z" />
<glyph unicode="&quot;" glyph-name="quotedbl" horiz-adv-x="406" d="M89 580T93 569T104 551Q92 539 92 519Q92 503 99 490T116 476Q139 476 154 486T169 512Q169 518 166 525Q171 535 171 550Q171 564 166 578T154 601Q159 606 159 613Q159 620 154 625Q168
639 168 660Q168 672 164 683T154 700Q144 710 130 710Q114 710 102 700T90 675Q90 671 92 663Q82 653 82 630Q82 609 92 587Q89 580 93 569ZM226 496T226 509Q226 525 230 538T243 551Q238 556 238 570Q238 582 243 587Q233 599 233 613Q233 628 243 638Q235 656
235 669Q235 690 255 700Q261 702 266 702Q281 702 293 690T305 663Q319 647 319 625Q319 616 317 613Q322 598 322 591Q322 583 317 575Q322 569 322 559Q322 550 317 538Q319 535 319 525Q319 515 315 505T305 488Q306 485 306 479Q306 465 296 458T272 450Q256
450 243 460T230 488Q226 496 226 509Z" />
<glyph unicode="#" glyph-name="numbersign" horiz-adv-x="624" d="M41 182T30 182Q22 182 16 184Q-3 184 -13 194T-24 218Q-24 231 -14 239T13 247Q15 256 22 260T38 265T48 264Q63 269 71 269Q78 269 81 268Q92 276 105 276Q115 276 130 271Q139 299 153 317L152
330Q152 353 165 373Q163 379 163 385Q163 393 165 401T172 415Q147 410 138 410Q120 410 111 418Q101 415 89 415Q57 415 48 441Q47 445 47 452Q47 468 58 479T88 492Q98 498 110 498Q122 498 128 492Q133 496 143 496Q151 496 156 495Q168 513 187 513Q192 513
198 511Q196 519 196 523Q196 534 205 546Q202 554 202 562Q202 580 214 590Q212 593 212 604Q212 619 217 635T230 658Q226 666 226 675Q226 688 233 698T254 714Q265 731 285 731Q301 731 314 719T327 690Q327 674 314 661Q316 650 312 640T298 623Q304 614 304
601Q304 589 299 576T286 553Q288 545 288 540Q288 531 286 523T279 509Q281 510 289 510Q304 510 307 506Q316 510 329 510Q347 510 361 502Q367 508 375 508Q378 508 384 506Q382 510 382 521Q382 535 387 549T398 567Q397 570 397 578Q397 599 412 609Q404 622
404 635Q404 652 419 665Q418 668 418 673Q418 690 430 702T459 714Q470 714 480 707Q490 701 495 689T501 662Q501 642 489 628Q496 614 496 599Q496 576 482 565Q483 561 483 555Q483 536 468 525Q470 523 470 515Q470 508 468 504Q477 507 487 507Q507 507 517
499Q533 501 543 501Q598 501 598 467Q598 457 594 448Q585 421 561 421Q554 421 538 425Q527 418 511 418Q496 418 482 425Q471 417 459 417Q453 417 450 418Q453 408 453 397Q453 374 438 359Q440 353 440 349Q440 338 435 327T422 308Q424 303 424 297T424 285Q429
286 438 286Q457 286 478 280Q491 284 505 284Q538 284 548 254Q550 244 550 239Q550 218 534 208T493 198Q465 198 447 208Q433 200 417 200Q411 200 408 201Q410 190 404 164T391 131Q393 123 393 119Q393 99 375 86Q382 76 382 60Q382 40 372 23T347 2Q344 1
338 1Q321 1 309 13T296 42Q296 51 300 58Q292 69 292 88Q292 118 307 133Q304 155 319 170Q319 188 326 198Q312 196 305 196Q281 196 270 203Q254 193 235 193Q222 193 209 198Q207 191 203 181T193 166Q195 158 195 151Q195 139 191 129T179 114Q181 104 172
72Q175 40 158 21T118 1Q104 1 96 10T87 36Q87 53 95 72Q93 88 93 95Q93 124 111 149Q108 158 108 165Q108 173 114 189Q112 188 106 188Q100 188 88 191Q77 185 66 185Q62 185 48 187Q41 182 30 182ZM263 281T282 281Q308 281 312 278Q316 281 326 281T340 280Q339
282 339 286Q339 293 342 296Q339 305 339 315Q339 328 344 341T356 362Q353 367 358 390T370 420Q362 418 357 418Q348 418 340 420T328 427Q317 427 312 429Q300 417 282 417Q270 417 263 422L254 415L255 407Q255 394 247 383Q250 374 250 367Q250 348 235 331Q235
296 228 278Q237 280 258 280Q263 281 282 281Z" />
<glyph unicode="$" glyph-name="dollar" horiz-adv-x="542" d="M480 520T480 502Q480 483 466 475Q468 469 468 457Q468 437 459 422T433 407Q423 407 414 412Q402 418 394 437T386 478Q386 500 394 509Q391 517 393 527Q373 528 360 543T345 577Q338 580 335
584Q323 580 314 580Q302 580 291 584T274 597H269Q264 597 256 599Q252 583 232 572T195 564Q195 550 181 536Q184 516 169 502Q183 491 183 463Q183 454 181 442Q196 432 195 412Q203 412 209 402T217 379Q223 381 226 381Q239 381 249 371T260 342Q276 344 296
337T326 315Q341 317 366 301T398 267Q410 265 417 261T426 245Q435 243 442 234T450 214Q457 198 455 184Q465 179 465 164Q465 155 461 148Q468 137 468 119Q468 100 460 85T436 64Q434 53 425 40T406 23Q396 18 382 13T359 7Q352 -4 333 -12T297 -20Q291 -20
283 -18Q287 -34 287 -44Q287 -62 279 -71Q277 -88 268 -96T244 -104Q228 -104 214 -93T200 -67Q200 -55 209 -43Q195 -29 195 -15Q195 -6 201 6Q196 9 195 12Q191 11 184 11Q171 11 163 17T152 35Q139 36 131 47T124 75Q107 79 92 96T77 133Q61 146 61 162Q61
178 73 190T102 203Q119 203 129 190Q141 185 148 175T154 151Q170 149 186 132T203 97L213 89Q225 85 231 80Q240 84 251 84Q264 84 274 79T302 60Q308 73 318 79T339 86Q345 86 348 85Q355 92 363 95Q367 115 380 124Q375 134 375 143Q375 151 380 161L374 173Q360
182 356 195Q346 199 340 207T332 225Q314 224 291 236T263 260Q241 261 220 273T193 306Q173 310 161 324T146 355Q123 368 111 393T99 445Q85 465 85 495Q85 527 103 545Q100 562 110 582T136 611Q134 623 146 633T175 644Q183 644 192 641Q197 653 212 665T241
677Q241 687 245 692Q237 703 237 715Q237 731 250 742T279 753Q302 753 312 729Q319 724 323 715T328 697Q328 681 318 670Q323 668 323 664Q328 667 336 667Q351 667 371 656T405 630T418 602Q437 602 453 581T468 534Q480 520 480 502Z" />
<glyph unicode="%" glyph-name="percent" horiz-adv-x="736" d="M91 433T99 427T116 418Q121 408 131 400T154 391Q161 384 174 379T200 374Q208 374 214 377Q217 376 223 376Q236 376 244 383Q252 379 261 379Q278 379 288 396Q298 395 307 400T323 415Q340 422
353 438T366 475Q383 485 383 503Q383 512 380 519Q383 527 383 536Q383 555 372 569Q374 577 374 580Q374 591 369 600T353 614Q351 635 332 658T293 680Q282 694 265 701T227 708Q203 708 180 699Q141 697 126 675Q109 666 100 659T85 639Q76 631 69 610T62 567Q62
559 63 555Q56 544 56 528Q56 512 65 497Q62 491 62 484Q62 470 70 456T90 441Q91 433 99 427ZM528 583T528 598Q528 614 520 622T499 631Q477 631 464 609Q446 599 446 577Q437 571 435 565T432 550T430 536Q414 518 411 496Q401 497 390 478T379 445Q368 434
368 420Q356 413 347 402T336 378Q323 371 312 348T303 309Q294 302 291 289Q280 285 273 276T266 254Q255 247 243 226T230 192Q215 180 215 161Q215 155 216 152Q209 144 208 135Q196 131 189 121T181 100Q181 97 183 89Q182 85 182 78Q182 62 193 53T220 44Q235
44 245 53T256 79Q265 85 277 106T291 139Q299 144 304 152T309 170Q309 177 306 184Q316 188 326 202T338 228Q350 232 356 243T361 266Q380 282 382 320Q395 324 403 335T410 360Q422 369 429 377T438 397Q458 409 458 430Q458 435 457 438Q468 442 476 454T485
479Q500 502 502 525Q512 530 516 540T519 562Q528 583 528 598ZM178 611T186 626Q191 622 208 622Q227 622 237 627Q267 604 280 604Q281 595 285 584T297 566V562Q297 548 306 537Q305 533 305 525Q299 522 295 514T291 496Q291 491 293 483Q287 481 281 476T272
466Q258 466 247 455Q244 456 239 456Q228 456 218 449Q208 452 199 451Q188 464 178 463Q174 470 166 474T156 479Q155 493 144 503V506Q144 521 133 532Q136 546 136 557Q136 563 134 575Q141 578 145 587T151 606Q178 611 186 626ZM668 216T649 237Q646 259
623 275Q624 287 619 296T604 311Q602 319 595 323T580 325Q578 332 574 336T561 343Q555 352 543 352Q536 352 522 348Q513 351 503 351Q483 351 466 341T443 312Q430 310 414 289T395 252Q380 244 373 224T365 179Q365 162 367 155Q365 145 365 140Q365 124 373
109T395 86Q397 65 419 57Q423 39 437 28T467 15Q479 0 499 0Q517 0 528 11Q539 4 555 4Q573 4 588 13T605 35Q621 35 632 46Q646 57 653 78T660 123Q660 133 658 147Q673 159 673 176Q673 183 669 195Q668 216 649 237ZM573 102T562 96T548 82Q537 89 527 89Q517
89 504 81Q494 86 486 85Q485 98 479 105T459 116Q456 133 439 142Q449 164 447 198Q455 203 459 211T464 228Q478 236 481 252Q499 257 501 268Q517 270 523 281Q525 275 531 269T547 259Q547 247 555 235T574 218Q579 197 595 184Q582 171 582 155Q582 147 585
139Q580 127 580 118Q580 112 583 103Q573 102 562 96Z" />
<glyph unicode="&amp;" glyph-name="ampersand" horiz-adv-x="626" d="M541 93T555 79T573 50Q578 38 578 31Q578 15 565 4T535 -7Q509 -7 501 18Q483 22 464 48T447 92Q441 78 425 68T392 55Q387 44 377 37T353 30Q348 30 345 31Q332 18 300 18Q293 18 283 20Q270
8 243 8Q224 8 215 16Q206 13 198 13Q187 13 175 19Q162 17 151 24T136 46Q117 51 109 70Q88 74 73 95T59 136Q44 154 44 179Q44 189 45 194Q36 206 36 231Q36 261 48 290T80 323Q81 336 96 352T121 370Q120 388 137 399T172 409Q172 424 180 427Q165 436 165 458Q165
463 167 473Q153 483 145 500T137 535Q137 548 140 558Q132 566 132 591Q132 613 141 631T170 655Q174 671 193 685T233 697Q238 703 252 707T281 711Q309 711 315 702Q318 703 323 703Q339 703 353 691T374 662Q382 657 386 648T389 629Q395 625 400 614T405 590Q405
583 402 575L403 561Q403 550 400 542T389 523Q388 504 377 491T343 462Q340 446 326 433T293 415Q303 411 312 400T327 374Q340 368 350 354T362 326Q373 322 380 312T387 291Q409 277 409 252Q416 249 426 241T438 226Q446 242 459 244Q459 249 466 262T477 279Q475
289 482 304T497 320Q497 336 506 346T530 357Q538 357 548 352Q565 344 565 324Q565 314 560 304T547 286Q548 282 548 275Q548 257 535 247Q534 234 529 221T516 203Q518 196 510 180T493 157Q505 151 514 134T523 103Q529 99 532 92Q541 93 555 79ZM270 625T257
620T235 616Q234 603 216 593Q226 583 226 567Q226 553 218 542Q246 506 246 481Q246 475 245 472Q245 471 247 469Q248 469 252 473T262 478Q264 491 274 501T298 516Q301 533 312 553T335 578Q320 584 310 598T303 626Q300 625 294 625Q285 625 276 631Q270 625
257 620ZM304 103T313 107T328 111Q333 121 343 127T364 133Q371 133 374 132Q377 138 382 145T392 159Q337 193 333 234Q318 242 313 260Q299 265 294 274T288 295T285 310Q280 315 272 321T261 337Q254 339 245 345T230 356Q224 350 217 347Q206 335 191 333Q190
325 180 314T158 299Q155 288 144 275T123 257Q127 249 127 240Q127 226 120 218Q125 205 125 197Q125 190 122 181Q133 166 144 140Q160 137 169 123Q181 124 191 118T207 100Q213 103 221 103Q238 103 249 90Q254 95 264 98T284 101Q297 101 302 96Q304 103 313
107Z" />
<glyph unicode="&apos;" glyph-name="quotesingle" horiz-adv-x="198" d="M107 699T117 688T127 661Q129 657 134 650T140 636T141 622Q143 614 143 611Q143 600 137 591Q140 584 140 576Q140 562 133 554Q136 546 134 537Q137 531 137 523Q137 509 128 500Q126
487 116 479T92 471Q76 471 66 482T56 507Q56 519 64 530Q58 548 58 559Q58 569 62 576Q58 584 58 594Q58 609 69 620Q58 631 58 647Q55 655 55 662Q55 677 65 688T91 699Q107 699 117 688Z" />
<glyph unicode="(" glyph-name="parenleft" horiz-adv-x="334" d="M208 703T213 708T230 718Q231 734 243 743T273 753Q289 753 300 744T312 718Q313 715 313 709Q313 695 306 681T288 660Q286 644 275 627T261 604Q236 565 212 549Q212 535 206 522T198 505Q196
499 195 485T189 464Q195 454 195 438Q195 425 192 419T185 408T176 398Q183 386 183 371Q183 346 170 336Q172 327 171 323T165 312T158 300Q159 298 159 293Q159 288 158 285L159 280Q170 266 176 255T185 229Q186 224 188 216T190 202V197Q190 191 187 183T184
170Q199 157 196 138Q203 132 206 122T210 99Q210 90 206 78Q210 73 211 67Q225 64 233 52T239 26Q245 21 247 13T252 -1Q268 -10 275 -16T284 -33Q294 -38 299 -44T308 -63Q315 -69 320 -85T326 -113Q330 -121 330 -126Q330 -141 315 -153T283 -165Q259 -165 245
-141T232 -93Q218 -91 208 -81T199 -57Q184 -48 170 -25T157 12Q145 19 134 40T123 84Q123 89 125 99Q109 109 109 129Q109 134 110 137Q99 150 99 171Q99 188 106 198Q99 215 101 226Q83 244 75 275Q73 285 73 294Q73 308 76 321T86 341Q85 344 85 350Q85 366
98 377Q91 391 91 407Q91 430 109 445Q99 458 99 470Q99 484 110 493Q109 502 110 510T117 531Q122 555 129 570T149 600Q150 609 157 616T174 626Q174 637 178 643T194 656Q194 668 196 675T206 690Q208 703 213 708Z" />
<glyph unicode=")" glyph-name="parenright" horiz-adv-x="336" d="M-8 675T-18 686Q-24 695 -24 706Q-24 722 -12 734T15 747Q27 747 34 741Q50 742 61 731T72 704Q80 698 84 688T88 668Q102 666 111 656T120 631Q128 629 136 621T147 604Q157 600 168 575Q189
558 192 540Q199 532 199 519Q199 504 191 495Q196 493 198 485T198 470Q207 465 212 456T217 435Q217 427 214 418Q221 407 221 398Q221 390 217 381Q221 374 221 365Q221 359 220 355Q231 344 231 312Q231 301 229 289Q239 278 239 257Q239 234 228 221Q229 218
229 212Q229 197 221 184Q216 161 205 148Q212 138 212 127Q212 113 203 104Q206 95 206 85Q206 71 198 57Q197 47 192 41T174 27Q168 6 149 -16Q136 -48 113 -80Q108 -94 97 -110T75 -133Q60 -158 38 -158Q24 -158 15 -148T5 -122Q5 -97 28 -77Q39 -42 80 4Q85
24 99 47T128 78Q128 82 128 98T133 126Q128 136 128 145Q128 156 132 167T143 189T152 208Q146 217 146 227Q146 245 161 257Q154 269 154 281L155 290Q152 302 152 306Q152 314 155 318Q150 324 146 342T142 373Q142 381 143 384Q134 395 134 410Q134 419 136
423Q121 445 119 471Q107 489 107 516Q107 526 108 530Q99 535 88 547T73 569Q61 571 53 580T43 601Q32 607 23 623T15 653Q6 660 2 672Q-8 675 -18 686Z" />
<glyph unicode="*" glyph-name="asterisk" horiz-adv-x="463" d="M388 606T397 595T407 569Q407 552 396 541T366 533Q358 525 349 525Q336 525 322 534Q309 525 287 525Q278 525 270 528Q281 521 289 511T299 491Q310 488 322 466T334 426Q353 414 353 395Q353
382 342 371Q333 362 321 362Q309 362 299 369T288 387Q276 391 269 402T264 427Q257 432 253 441T249 458Q241 461 235 468T229 484Q228 474 216 468Q213 450 197 442Q195 430 189 417T174 399Q171 383 162 375T140 367Q126 367 116 375T106 395Q106 407 115 417Q114
443 132 458Q134 482 150 490Q149 497 160 513T180 534Q178 533 170 533Q149 533 145 540Q136 536 125 536Q111 536 101 544Q81 546 65 556T48 582Q48 601 60 610T92 619Q105 619 118 615T140 605Q148 607 152 607Q165 607 176 599Q182 601 186 601Q191 601 199
599Q200 604 200 612T201 625Q194 635 194 648Q194 661 201 669Q194 685 194 700Q194 711 198 718Q198 735 208 743T232 752Q247 752 259 743T271 719Q271 709 266 700Q277 686 277 664Q277 650 272 642Q278 630 278 619Q278 606 271 593Q277 596 284 596Q292 596
295 593Q305 605 320 605Q330 605 339 600Q349 606 361 606Q367 606 370 605Q388 606 397 595Z" />
<glyph unicode="+" glyph-name="plus" horiz-adv-x="567" d="M509 341T525 341Q536 341 543 338Q566 338 580 323T594 288Q594 274 586 264T561 252Q546 244 525 244Q506 244 497 250Q481 242 457 242Q437 242 427 249Q410 236 381 236Q364 236 342 241Q346 230
346 213Q346 198 341 188Q347 170 347 159Q347 141 335 129Q352 115 352 83Q352 65 345 49T324 25Q315 20 302 20Q283 20 268 33T253 67Q253 73 254 76Q243 88 243 119Q243 143 250 149Q244 158 244 172Q244 181 248 193Q245 195 243 205T241 225Q241 233 243 237Q225
228 200 228Q179 228 166 237Q149 230 129 230Q104 230 83 242Q67 236 54 236Q29 236 14 252T-1 289Q-1 316 20 324Q37 344 69 344Q95 344 108 334Q125 341 148 341Q181 341 200 326Q204 330 212 333T229 336Q237 336 247 332Q240 340 236 356T232 389Q232 409
237 417Q226 426 221 442T215 476Q215 508 229 528Q225 537 225 548Q225 567 240 579T276 592Q292 592 304 583T320 554Q332 542 332 517Q332 498 323 486Q330 476 330 456Q330 439 326 430Q344 406 344 385Q344 374 341 365T329 339Q343 346 354 346Q373 346 387
332Q391 334 400 334Q408 334 412 332Q423 340 439 340Q451 340 460 336Q465 337 476 337Q494 337 503 332Q509 341 525 341Z" />
<glyph unicode="," glyph-name="comma" horiz-adv-x="254" d="M55 -96T55 -89Q55 -74 65 -61T95 -44Q94 -42 94 -36Q94 -24 99 -13T113 0Q108 3 108 16Q108 29 113 46T123 71Q121 87 134 98T163 109Q174 109 182 104T192 87Q199 76 199 58Q199 34 191 26Q194 25
194 16Q194 -2 184 -27T162 -54Q159 -73 153 -83T132 -98Q110 -122 88 -122Q70 -122 59 -104Q55 -96 55 -89Z" />
<glyph unicode="-" glyph-name="hyphen" horiz-adv-x="426" d="M96 256T92 253T75 250Q57 250 47 262T36 290Q36 306 45 317T71 329Q81 338 96 338Q110 338 122 331Q138 341 168 341Q189 341 207 336Q216 339 233 339Q266 339 279 329Q286 333 294 333Q300 333
310 327Q316 334 330 334Q342 334 346 329Q363 329 372 318T381 292Q381 277 372 266T349 256Q333 247 314 247Q302 247 292 252Q285 248 276 248Q263 248 255 256Q246 253 232 253Q214 253 202 257Q193 254 183 254Q168 254 153 260Q135 251 124 251Q112 251 97
257Q96 256 92 253Z" />
<glyph unicode="." glyph-name="period" horiz-adv-x="219" d="M140 95T145 86T150 65Q150 54 146 46Q150 29 134 17T98 4Q82 4 70 14T55 46Q47 56 47 66Q47 83 61 97T96 112Q114 112 133 96Q140 95 145 86Z" />
<glyph unicode="/" glyph-name="slash" horiz-adv-x="359" d="M331 656T331 649Q331 636 326 625T312 609Q318 596 318 581Q318 557 303 536Q305 522 296 505T276 478Q277 475 277 469Q277 455 269 442Q273 432 273 425Q273 406 261 387T232 359Q238 346 238 328Q238
296 216 278Q219 255 205 241Q207 228 200 214T183 193Q184 186 179 178T167 166Q177 152 177 136Q177 118 159 96Q159 51 131 31Q132 18 129 10T117 -8Q122 -21 122 -37Q122 -54 114 -70Q105 -91 93 -100T65 -110Q47 -110 35 -98T22 -67Q22 -54 27 -44Q28 -30
31 -23T42 -5Q42 8 44 16T55 32Q53 42 53 47Q53 61 60 73T80 92Q79 109 92 133Q86 144 86 159Q86 182 97 205T122 236Q121 240 121 247Q121 265 134 278Q133 281 133 287Q133 303 140 319T158 343Q157 370 165 395T190 426Q188 434 188 439Q188 456 197 468Q193
480 193 488Q193 501 199 512T216 531Q216 547 231 564Q229 576 229 585Q229 606 235 625T253 657Q252 661 252 670Q252 691 265 702T295 714Q311 714 322 705T333 677Q333 670 330 659Q331 656 331 649Z" />
<glyph unicode="0" glyph-name="zero" horiz-adv-x="683" d="M621 302T621 292Q621 282 615 276Q628 255 628 231Q628 197 603 184Q605 174 605 169Q605 147 590 132Q591 119 583 104T561 78Q539 46 513 42Q507 32 493 24T464 15Q457 15 454 16Q448 9 428 4T388
-1Q371 -1 358 4Q332 -4 309 -4Q284 -4 261 4T221 26Q203 29 179 58Q151 57 130 106Q113 123 104 137T95 168Q95 176 98 185Q87 187 79 200T71 226Q71 233 72 236Q55 251 55 268Q55 278 63 292Q59 303 59 315Q59 332 72 365Q61 379 61 402Q61 421 68 439T86 466Q83
477 83 489Q83 512 92 533T119 566Q119 576 124 585T138 600Q138 609 146 624T166 650T190 659Q195 672 208 680T237 686Q245 695 262 702T292 709Q298 717 312 721T342 725Q364 725 377 719L384 720Q398 720 406 708Q417 708 423 707T433 699L440 700Q453 700
465 688Q481 693 500 674T522 637Q528 633 531 627T537 607Q550 602 559 591T568 566Q578 560 585 541T590 508Q617 484 617 445Q617 429 614 411Q619 398 619 386Q619 374 614 365Q619 357 623 349T627 334Q627 323 616 309Q621 302 621 292ZM314 74Q334 74 342
65Q344 72 357 76T384 80Q396 80 402 77Q408 86 419 92T445 99Q451 99 454 98Q460 108 474 117T500 127Q498 140 506 157T527 187Q524 208 524 210Q524 236 537 246Q526 259 526 274Q526 285 532 295Q528 303 528 313Q528 327 536 338Q529 353 529 370Q529 383
533 394Q532 399 532 409Q532 427 537 447Q520 459 514 474T506 514Q487 525 486 545Q473 550 466 562T459 588Q455 591 449 599Q427 599 415 617Q402 617 387 622T363 635Q359 634 352 633T335 632Q327 632 324 633Q320 626 310 622T289 618Q276 599 253 599Q242
582 222 580Q223 568 218 558T201 541Q201 529 194 520T176 505Q178 495 178 484Q178 461 172 436T151 392Q156 383 156 371Q156 361 153 350T148 333Q151 323 151 312Q151 295 144 276Q154 262 153 246Q164 240 172 220T181 181L180 173Q189 169 196 159T202 136Q213
135 228 123T253 99Q271 97 284 93T308 74H314Z" />
<glyph unicode="1" glyph-name="one" horiz-adv-x="391" d="M313 59T313 40Q313 18 295 5Q285 -1 274 -1Q259 -1 247 9T232 35Q217 55 217 82Q217 94 220 106Q212 125 212 145Q212 167 220 180Q215 192 215 203Q215 214 218 223T228 236Q220 249 220 261Q220 269
224 276Q217 283 213 294T208 317Q208 331 216 339Q215 344 215 353Q215 362 216 366Q208 375 208 390Q208 408 219 419Q212 425 208 436T204 461Q204 485 214 494Q210 512 210 518Q210 526 214 540Q203 554 203 569Q203 577 208 587Q203 595 203 607Q182 594 158
594Q147 594 137 597Q125 580 102 580Q93 580 88 582Q77 574 65 574Q49 574 36 586T23 616Q23 636 45 651T88 664Q94 672 106 676T134 680Q146 680 153 677Q164 685 183 685Q183 691 189 695T203 699Q221 709 238 709Q255 709 269 699Q282 694 290 680T298 649Q298
630 288 619Q302 608 302 587Q302 571 294 562Q300 547 300 524Q300 487 288 466Q306 454 306 429Q306 410 296 392Q301 380 301 371Q301 361 297 354Q303 345 303 334Q303 324 297 313Q310 287 310 247Q310 217 301 197Q307 188 307 176Q307 164 300 154Q305 144
305 125Q305 106 299 84Q313 59 313 40Z" />
<glyph unicode="2" glyph-name="two" horiz-adv-x="559" d="M438 109T452 109Q463 109 468 104Q489 106 500 96T511 69Q511 52 498 38T461 24L452 25Q439 15 422 15Q410 15 399 19Q388 11 374 11Q360 11 349 20Q336 3 319 3Q309 3 291 12Q283 6 270 6Q259 6 247
9Q236 -2 220 -2Q205 -2 192 9Q188 7 180 7Q173 7 170 8Q157 -3 142 -3Q134 -3 126 0Q116 -7 102 -7Q92 -7 81 -1Q62 0 50 17T38 56Q38 80 53 91Q51 110 63 124T95 137Q95 160 113 175T161 209Q161 239 202 256Q205 274 227 293T270 323Q272 338 282 348T307 360Q305
379 319 392T352 405Q352 414 356 421T365 434T372 442Q370 450 370 454Q370 466 377 476T395 491Q393 505 393 515Q393 543 402 558Q390 564 382 577Q369 579 359 589T347 612Q343 610 332 610Q318 610 304 615T282 629Q274 622 260 617T232 611Q226 601 212 591T186
579Q184 566 171 552T144 532Q143 508 135 494T102 479Q86 479 74 491T61 520Q61 527 64 534L63 542Q63 562 76 580T108 604Q107 627 121 641T156 655Q159 666 181 682T222 697Q240 709 276 709Q292 709 306 706T326 695Q338 706 354 706Q366 706 375 701T387 688Q408
685 419 660Q431 659 440 652T453 633Q467 629 476 606T486 557Q486 544 483 532Q486 523 486 518Q486 509 479 501Q481 493 481 487Q481 470 473 453T453 431Q452 416 446 402T428 378Q426 361 416 347T387 327Q384 315 372 302T348 288Q344 269 323 253T279 231Q275
211 267 202T236 182Q232 148 191 135Q186 117 181 106T167 88Q181 95 192 95Q203 95 215 89Q225 96 238 96Q251 96 258 91Q272 98 287 98Q299 98 306 92Q320 104 342 104Q358 104 372 97Q387 106 405 106Q417 106 429 101Q438 109 452 109Z" />
<glyph unicode="3" glyph-name="three" horiz-adv-x="558" d="M497 587T497 561Q497 554 493 540Q502 534 502 518Q502 503 493 489Q497 485 497 476Q497 465 491 453T474 436Q473 415 460 397T430 373Q448 367 461 351T474 316Q474 311 472 303Q482 297 486 280T491
248Q499 237 499 213Q499 197 495 183T484 161Q487 152 487 145Q487 130 472 115Q470 104 462 94T443 79Q441 61 430 52T397 33Q374 10 345 10Q335 10 329 11Q320 2 305 -2T274 -7Q246 -7 233 6L224 5Q206 5 183 13T146 31Q109 50 98 101Q80 116 83 132Q65 146
65 164Q65 180 77 192T106 205Q126 205 139 185Q150 180 156 168T160 144Q169 146 185 129T201 98Q205 100 211 100Q226 100 248 92T276 74Q277 83 299 91T332 96Q343 110 365 110Q365 123 371 133T389 149Q389 153 394 158Q393 161 393 169Q393 180 398 189T411
204Q403 217 403 240L404 250Q398 256 393 270T388 295Q388 301 389 303Q380 303 370 310T351 327Q343 323 323 323Q293 323 276 330Q249 329 234 342T219 373Q219 391 234 404T276 417Q286 422 301 422Q311 422 317 419Q325 427 340 427Q347 427 351 426Q360 441
392 450Q394 465 397 472T409 487Q406 492 406 498Q406 507 410 515T418 525Q406 532 399 549T394 583Q383 583 368 593T353 612Q348 613 341 618T329 627L310 626Q303 626 295 629Q286 621 272 616T247 610Q233 593 211 593Q205 587 197 583T180 578Q177 571 160
554Q160 545 154 539T139 530Q132 518 121 512T97 505Q85 505 78 511Q67 521 67 539Q67 551 71 561T83 578Q84 595 93 607T112 624Q114 643 122 653T153 665Q158 674 167 679T187 685Q195 685 201 682Q212 696 228 696Q231 696 237 694Q248 714 272 714L281 713Q288
717 297 717Q314 717 327 706L336 707Q358 707 383 693T418 660Q441 659 455 643T476 602Q497 587 497 561Z" />
<glyph unicode="4" glyph-name="four" horiz-adv-x="580" d="M535 256T546 243T558 213Q558 194 544 181Q529 169 508 169Q502 169 490 171Q472 162 459 162Q452 162 443 165Q449 152 449 135Q449 108 434 96Q441 91 445 80T450 57Q450 36 438 27Q435 10 425 1T400
-8Q382 -8 368 4T354 37Q354 47 358 58Q354 66 354 78Q354 101 365 112Q361 115 359 127T356 152Q356 166 358 174Q350 170 338 170Q313 170 299 181Q279 167 253 167Q230 167 215 177Q190 166 167 166Q150 166 139 171Q132 167 119 165T92 162Q71 162 57 168Q40
169 30 180T20 207Q20 216 25 228Q31 242 42 256T63 275Q66 287 77 295T102 306Q102 309 104 312T108 319Q106 327 106 331Q106 343 112 353T129 369Q131 383 141 392T167 404Q169 415 177 427T192 442Q197 457 204 465T226 485Q224 503 236 520T264 545Q266 559
276 575T296 598Q300 612 311 623T336 642Q336 657 352 668Q352 679 358 689Q372 715 397 715Q416 715 430 699T445 660Q445 648 443 642Q445 638 445 627Q445 616 443 611Q448 602 448 584Q448 559 440 545Q446 532 446 515Q446 496 438 475Q449 461 449 437Q449
415 440 404Q448 385 448 349Q448 318 440 306Q445 297 445 278Q445 269 443 259Q452 259 459 254Q471 258 494 258Q508 258 516 256Q535 256 546 243ZM359 360T359 398Q359 431 365 439Q353 450 353 472Q353 488 358 498Q352 510 352 520Q352 524 354 534Q349
520 338 506T309 472Q311 457 299 441T271 416Q271 402 250 374T215 338Q215 325 209 315T192 300Q192 287 183 274T161 250Q165 253 175 253Q189 253 189 247Q200 254 224 254Q247 254 258 247Q277 258 305 258Q321 258 328 254Q331 256 342 257T355 256Q354 261
354 269Q354 278 358 300Q356 312 356 318Q356 336 365 351Q359 360 359 398Z" />
<glyph unicode="5" glyph-name="five" horiz-adv-x="542" d="M215 615T208 615Q196 615 187 622Q188 618 188 610Q188 594 183 578T170 554Q184 542 184 523Q184 512 177 500Q181 492 181 484Q181 473 173 461T162 443Q162 440 160 432Q172 420 172 404Q172 399
170 391Q173 392 177 392Q186 404 197 407Q202 414 211 415T223 416Q227 420 236 422T254 425Q265 425 269 421Q275 423 281 423Q294 423 308 418T331 405Q335 407 345 407Q361 407 378 398T406 375T414 346Q443 340 451 315Q473 306 477 278Q482 269 482 250Q482
232 477 215T461 188Q465 178 465 166Q465 147 457 126Q460 111 448 98T417 83Q410 72 402 68Q402 51 390 39T362 26Q356 14 343 6T315 -2Q305 -2 298 2Q280 -7 252 -7Q221 -7 200 5Q174 9 163 15T138 42Q118 40 104 54T91 87Q80 95 76 106Q59 110 51 120T43 144Q43
162 54 176T83 190Q93 190 104 184Q117 185 133 173T150 145Q163 136 168 124Q183 122 190 115T203 94Q214 95 230 90T258 76Q275 93 298 93Q303 99 310 103T325 109Q330 120 344 134T369 153Q369 165 370 174T375 193Q373 207 378 221T393 241Q382 245 375 254T366
276Q354 283 343 295T329 319Q321 318 310 323T293 335Q287 332 274 332Q266 332 263 333Q252 323 232 325Q225 315 215 311T192 308Q186 301 177 297T159 293Q149 288 139 288Q129 288 120 293T105 306Q91 313 84 332T76 372Q76 390 82 402Q76 413 76 431Q76 448
81 464T93 490Q90 496 90 503Q90 509 94 519Q84 534 84 555Q84 583 99 596Q97 603 99 609Q88 615 83 625T77 647Q77 669 95 681Q94 700 107 712T138 725Q162 725 173 705Q189 707 198 707Q232 707 251 695Q264 706 280 706Q293 706 303 699Q311 702 319 702Q328
702 335 699Q349 706 365 706Q386 706 397 697Q404 701 420 701Q444 701 463 691T483 662Q483 636 471 626T441 615Q435 615 420 618Q401 610 385 610Q371 610 358 617Q348 612 339 612Q332 612 324 615Q311 607 299 607Q286 607 277 613Q268 610 257 610Q240 610
219 618Q215 615 208 615Z" />
<glyph unicode="6" glyph-name="six" horiz-adv-x="582" d="M531 248T531 232Q531 216 527 199T515 170Q517 160 517 152Q517 128 508 105T480 75Q478 63 464 52T434 42Q426 27 403 16T359 7Q353 -1 340 -5T311 -9Q282 -9 271 3Q263 1 259 1Q242 1 229 14Q226
13 220 13Q210 13 202 18T185 34Q159 39 139 73Q117 86 106 98T98 130Q78 146 65 172T52 223Q52 238 58 253Q46 265 49 282Q39 298 39 320Q39 338 47 348Q44 356 44 363Q44 377 52 393Q51 399 51 409Q51 424 61 435Q60 436 60 438T61 442Q57 455 57 469Q57 488
67 499Q65 519 72 536T93 558Q97 572 106 578Q104 586 104 590Q104 607 116 621T144 637Q151 650 169 660T203 668Q221 686 243 683Q255 696 276 702T317 707Q321 708 329 708Q351 708 361 698Q375 693 382 689T396 677Q400 678 409 678Q436 678 449 657Q472 644
472 624Q472 608 459 595T430 582Q412 582 398 600Q383 598 373 602T354 619Q326 619 315 626Q302 614 290 609T260 604Q252 593 238 587T208 580Q207 576 202 573T192 569Q193 556 188 545T172 527Q172 515 169 511T152 503Q153 501 153 496Q153 481 139 472Q144
458 142 447L143 436Q143 424 140 416Q158 427 168 422Q172 429 184 434T203 438Q205 445 223 451T257 458Q263 458 265 457Q267 459 275 461T292 464Q301 464 304 461Q312 464 327 464Q360 464 374 450Q401 453 422 442T447 402Q461 395 470 383T480 359Q496 354
508 337T519 306Q532 294 532 276Q532 264 526 255Q531 248 531 232ZM437 186T437 196Q437 217 447 227Q446 235 443 244T440 260Q440 270 445 277Q440 282 440 288Q428 290 415 303T398 330Q384 333 375 343T365 367Q354 367 339 370T315 378Q308 367 287 367Q275
367 260 372Q255 362 245 356T223 350Q213 350 208 352Q199 343 186 343Q180 329 170 324T140 317Q146 302 146 278Q146 248 135 236Q144 234 153 205T161 159Q168 157 176 145T186 132Q219 124 236 102Q239 103 245 103Q264 103 276 88Q297 90 308 77Q321 89 345
89Q353 89 355 88Q360 97 374 97Q378 105 390 113T411 122Q415 132 427 139Q430 164 438 181Q437 186 437 196Z" />
<glyph unicode="7" glyph-name="seven" horiz-adv-x="529" d="M495 715T503 701T511 672Q511 646 486 629Q486 592 463 580Q465 570 465 566Q465 542 440 526Q441 523 441 516Q441 505 436 496T422 480Q423 468 420 461T406 446Q400 428 384 419Q385 416 385 410Q385
396 378 381T361 358Q362 345 356 334T338 317Q341 294 322 271Q321 262 314 249T301 231Q297 210 283 198Q285 181 279 163T260 137Q260 124 256 117T240 102Q239 86 225 74Q226 71 226 63Q226 43 214 25T182 4Q169 -8 155 -8Q138 -8 126 6T113 39Q113 65 140
75Q137 83 137 89Q137 98 141 105T154 123Q156 134 162 143T177 154Q175 167 181 179T200 197Q197 209 203 227T217 250Q221 264 240 287Q242 309 255 328Q256 342 261 355T277 376Q277 392 284 402T303 416Q302 428 306 441T317 461Q318 484 337 499Q335 520 351
534Q349 548 353 555T366 570T379 583Q377 591 377 594Q377 615 394 627Q388 626 380 625T366 623Q356 623 346 629Q334 624 320 624Q294 624 281 635Q270 621 249 621Q234 621 223 629Q198 620 187 620Q177 620 166 626Q153 620 141 620Q128 620 109 628Q91 616
71 616Q50 616 39 628T28 658Q28 673 37 685T64 699Q73 706 88 709T119 713Q139 713 150 707Q158 711 169 711Q181 711 190 705Q210 716 229 716Q237 716 244 713Q256 722 276 722Q305 722 319 707Q324 708 333 710T350 713Q361 713 371 707Q376 713 388 716T411
720Q420 720 425 717Q438 725 457 725Q472 725 484 720Q495 715 503 701Z" />
<glyph unicode="8" glyph-name="eight" horiz-adv-x="504" d="M468 282T470 264Q474 252 474 234Q474 200 459 174Q463 162 463 158Q463 146 452 129Q451 112 429 102Q429 95 425 86T415 72Q410 61 402 54T378 41Q370 31 361 27T335 24Q331 18 319 14T295 10Q289
10 283 12Q258 -7 231 -7Q209 -7 191 5Q182 3 171 7T157 17Q155 16 150 16Q142 16 137 22Q119 20 105 28T88 56Q54 71 45 101Q37 106 32 118T27 142Q27 150 31 158Q27 162 25 172T23 195Q23 226 34 234Q30 242 30 255Q30 273 36 289T53 311Q51 326 61 343T82 364Q85
375 92 382T111 393Q101 400 94 412T86 436Q64 461 67 497Q64 511 64 523Q64 544 73 560Q71 583 87 608Q92 623 101 636T120 652Q126 666 138 674T163 683Q170 692 181 697T205 702L213 701Q220 708 240 708Q256 708 268 703Q275 709 292 709Q307 709 323 703Q338
704 350 697T368 674Q380 673 391 657T401 627Q416 615 418 596Q425 594 430 581T435 553Q440 541 440 532Q440 516 430 502Q432 492 432 488Q432 469 417 454Q417 444 411 431T397 414Q396 406 385 399T362 389Q385 384 389 365Q405 363 423 346T443 308Q451 305
460 293Q468 282 470 264ZM214 612T200 605T179 600Q178 595 172 586T160 573Q161 564 157 554T145 537Q150 528 150 499Q150 484 149 480Q161 470 168 454Q177 452 189 445T208 429Q222 431 230 431Q243 431 254 428Q262 433 275 433Q286 433 294 429Q302 442
322 447Q324 455 337 465T358 477Q356 480 356 489Q356 502 360 516T370 535Q365 538 359 552T355 573Q348 575 341 586T335 606H334Q328 606 321 610T313 618Q301 618 291 624Q281 619 272 619Q263 619 255 622Q246 616 234 616Q229 616 221 618Q214 612 200 605ZM223
85T229 79Q253 92 276 92Q286 92 291 90Q310 102 319 101Q329 119 349 122Q356 140 362 151T377 168Q376 178 378 191T388 209Q385 217 385 226Q385 236 388 248Q379 253 375 260T367 276T363 287Q334 302 328 327Q322 324 313 324Q301 324 289 328T274 339Q266
334 243 334Q226 334 218 339Q203 327 184 327Q174 327 168 329Q163 322 151 311T130 296Q128 282 116 271Q120 263 120 249Q120 235 116 219T107 194Q114 188 118 166T121 132Q129 132 145 123T164 107Q173 107 184 101T203 85Q223 85 229 79Z" />
<glyph unicode="9" glyph-name="nine" horiz-adv-x="515" d="M461 406T461 397Q461 378 450 367Q453 358 453 349Q453 322 432 299Q438 290 438 279Q438 267 432 255T417 234Q419 222 407 204T380 181Q366 149 342 132Q343 117 324 95T293 74Q282 62 271 59Q267
45 259 38T237 28Q235 15 219 4T184 -7Q167 -7 156 6T144 35Q144 57 161 68Q166 77 178 88T199 101Q202 115 213 124T239 134Q240 149 257 163T286 178Q286 194 298 213T323 236Q323 249 338 257Q315 250 302 250Q292 250 283 253Q272 250 263 250Q246 250 232
261Q219 258 199 268T168 292Q154 291 143 297T119 315Q104 322 94 335T82 361Q69 366 61 376T52 401Q52 408 55 417Q44 431 44 458Q44 468 45 473Q43 483 43 489Q43 512 55 528Q52 536 52 543Q52 566 70 578Q68 603 85 626T125 656Q136 672 155 683T198 695Q207
695 211 694Q223 709 240 709Q244 709 252 707Q262 717 277 717Q280 717 286 715Q304 716 325 709T350 688Q355 690 365 690Q384 690 397 675T411 641Q433 621 437 590Q449 564 449 547Q449 542 447 532Q455 524 461 508T467 476Q467 462 461 448Q464 444 464 434Q464
421 458 412Q461 406 461 397ZM177 385T182 367H184Q193 367 200 354Q217 354 231 342Q236 345 244 345Q266 345 273 335Q275 337 284 337Q297 337 303 334Q308 345 316 350T340 359Q342 365 347 371T358 380Q357 383 357 388Q357 403 367 416Q364 424 364 434Q364
458 375 474Q356 501 356 531Q356 537 358 551Q344 564 339 601Q318 601 292 629Q283 623 268 623Q261 623 253 625Q240 612 203 612Q195 600 182 592T158 582Q157 577 155 567T149 548T138 532Q139 529 139 522Q139 506 129 495Q132 486 132 479Q132 470 126 462Q135
456 140 447T145 426Q145 419 144 416Q155 409 158 403T163 388Q177 385 182 367Z" />
<glyph unicode=":" glyph-name="colon" horiz-adv-x="267" d="M90 376T101 369T127 361Q145 361 159 372T174 402Q174 422 155 445Q136 468 115 468Q97 468 84 453T71 420Q71 402 86 390Q90 376 101 369ZM77 21T69 31T60 55Q60 71 72 84T103 98Q121 98 142 80Q157
75 166 58T176 21Q176 7 171 -1Q159 -19 136 -19Q121 -19 109 -10T94 15Q77 21 69 31Z" />
<glyph unicode=";" glyph-name="semicolon" horiz-adv-x="278" d="M93 444T84 433T74 407Q74 388 89 372T125 356Q138 356 151 363Q179 376 179 404Q179 423 166 438T132 454Q121 454 112 450Q93 444 84 433ZM150 56T150 48Q150 38 145 31T132 20Q135 13 135 2Q135
-9 132 -20T122 -38Q125 -64 105 -78Q98 -94 81 -94Q67 -94 56 -84T44 -61Q44 -50 55 -42Q54 -33 58 -21T68 -5Q67 0 67 10Q67 20 68 24Q65 35 70 46T83 59Q79 74 89 82T114 91Q127 91 136 84T146 63Q150 56 150 48Z" />
<glyph unicode="&lt;" glyph-name="less" horiz-adv-x="566" d="M100 232T91 232Q83 232 76 235Q40 251 40 282Q40 294 43 304Q47 319 64 329T99 342Q103 354 114 361T137 369Q142 369 150 367Q178 387 206 387L216 386Q225 399 235 406T259 414Q265 414 268 413Q275
421 289 426T315 432Q322 432 325 431Q360 466 402 465Q409 478 424 486T455 495Q468 495 478 488Q494 476 494 457Q494 444 486 433T465 418Q460 394 419 396Q416 389 404 384T384 379Q372 364 359 359T326 355Q320 345 304 337T276 332Q255 312 222 307Q204 293
167 286Q168 284 168 281Q174 284 183 284Q197 284 212 277T234 260Q250 260 261 249Q269 251 273 251Q286 251 296 243T310 223Q313 224 319 224Q330 224 340 220T353 209Q372 211 390 200T411 177Q417 180 426 180Q447 180 472 167T501 137Q519 121 519 104Q519
89 508 79T480 68Q459 68 444 86Q433 87 423 99Q413 94 406 94Q396 94 388 100T376 115Q369 113 358 120T344 132Q321 130 309 144Q296 142 277 149T251 166Q230 166 220 179Q206 177 194 184T176 204Q172 202 162 202Q146 202 129 212T107 235Q100 232 91 232Z"
/>
<glyph unicode="=" glyph-name="equal" horiz-adv-x="596" d="M144 432T139 432Q124 432 112 421T100 395Q100 377 114 364T146 352Q154 350 158 350Q162 350 168 352Q178 344 189 344Q197 344 204 347Q214 342 224 342Q231 342 240 345Q249 339 258 339Q265 339
273 342Q285 340 289 340Q298 340 303 345Q306 341 313 338T330 335Q345 335 354 343Q358 341 368 337T386 333Q397 333 406 341Q410 339 419 339Q431 339 437 344Q447 340 452 340Q467 340 477 353T487 383Q487 396 480 406T459 420Q453 427 435 427Q427 427 419
425T408 420Q405 421 399 421Q389 421 382 417Q368 424 348 424Q336 424 328 420Q316 427 298 427Q278 427 268 416Q257 427 242 427Q232 427 223 421Q215 424 208 424Q201 424 197 423Q186 433 169 433Q158 433 150 430Q144 432 139 432ZM477 224T487 211T497
180Q497 167 490 158T468 149Q459 149 453 151Q439 140 431 140Q426 140 421 142T413 146Q403 141 394 141Q381 141 370 150Q358 137 334 137Q312 137 301 146Q291 133 273 133Q260 133 249 142Q237 132 220 132Q204 132 194 143Q191 137 180 132T156 126Q144 126
134 132Q126 128 117 128Q102 128 92 139T81 166Q81 187 102 197Q106 206 115 211T133 216Q142 216 152 211Q162 217 175 217Q180 217 186 215Q193 219 203 219Q215 219 226 211Q238 220 253 220Q263 220 271 216Q276 219 286 221T305 224Q323 224 332 215Q343
226 364 226Q385 226 397 216Q405 219 412 219Q416 219 422 217Q431 225 445 225Q453 225 460 222L461 223Q477 224 487 211Z" />
<glyph unicode="&gt;" glyph-name="greater" horiz-adv-x="546" d="M104 382T99 382Q88 382 76 388T59 402Q27 416 27 444Q27 460 38 471T69 484Q75 487 83 487Q94 487 105 482T118 470Q133 474 151 463T170 443Q178 446 185 446Q207 446 220 428Q273 430 283
395Q293 399 299 399Q319 399 334 376Q345 382 356 382Q375 382 390 363Q395 364 406 364Q437 364 442 340Q453 347 466 347Q488 347 505 330T522 292Q522 270 499 257Q495 244 475 236T435 227Q428 227 422 229Q417 222 406 217T384 212Q373 212 368 216Q369 204
356 194T326 181Q318 176 305 174T280 171Q264 146 242 146Q237 146 225 148Q217 133 195 124T155 117Q136 81 104 81Q87 81 74 92T61 118Q61 128 69 141Q69 157 85 169T119 183Q125 197 137 206T163 216Q179 241 220 241Q222 251 241 260T280 270Q287 270 297
266Q304 276 322 284T363 296Q347 293 333 293Q318 293 307 298T287 317Q279 315 275 315Q261 315 247 322T228 340Q225 339 218 339Q204 339 189 344T168 359Q154 357 136 366T109 385Q104 382 99 382Z" />
<glyph unicode="?" glyph-name="question" horiz-adv-x="442" d="M99 540T92 534T78 525T63 521Q55 521 48 525Q38 531 33 540T27 561Q27 574 34 585T54 600Q57 616 75 637Q74 640 74 647Q74 668 97 684T145 700Q153 700 156 699Q160 710 174 717T204 725Q212
725 220 721Q227 725 238 725Q252 725 266 718T288 697Q308 696 319 684T333 656Q362 641 362 617Q362 613 360 603Q370 593 370 576Q370 568 367 560Q378 549 378 528Q378 513 372 499T354 476Q357 469 357 462Q357 455 352 446Q350 433 344 426T327 414Q318 398
308 387T282 368Q284 360 284 355Q284 343 278 333T260 318Q259 304 253 297T235 285Q235 279 232 274Q243 260 243 246Q243 224 220 210Q219 193 206 182T177 171Q165 171 155 178Q138 191 138 215Q138 239 151 255Q149 260 149 271Q149 292 159 315T182 346Q184
368 201 379Q202 401 219 421T267 469Q266 486 272 502T291 528Q282 539 282 555Q282 562 283 565Q271 579 274 598Q268 602 265 609Q250 608 238 616T221 639H212Q188 617 166 617Q163 617 155 619Q159 608 149 596T126 582Q128 570 121 558T101 541Q99 540 92
534ZM194 10T204 23T215 55Q215 71 206 82T180 93Q172 93 168 92Q162 94 158 94Q144 94 132 81T120 52Q120 30 136 20T176 11Q194 10 204 23Z" />
<glyph unicode="@" glyph-name="at" horiz-adv-x="797" d="M731 379T731 363Q731 339 714 323Q717 319 717 311Q717 301 714 291T705 278Q709 271 709 257Q709 233 699 208T674 179Q675 162 653 143T612 122Q599 97 575 97Q559 97 543 111Q534 105 519 105Q506
105 494 108T476 118Q469 111 456 108T428 104Q407 104 396 111Q385 104 368 104Q353 104 341 110T321 127Q305 132 289 143T269 168Q255 175 245 191T237 218Q227 225 221 240T215 272Q215 292 224 302Q221 311 221 322Q221 338 227 352T245 373Q243 393 251 415T275
454T312 471Q332 509 393 515Q399 521 413 525T441 529Q465 529 473 520Q485 523 500 523Q541 523 549 498Q552 488 552 476Q552 457 545 446Q552 434 552 413Q552 404 551 401Q556 389 556 379Q556 360 546 343Q549 337 549 329Q549 319 545 310T532 297Q537 292
537 280Q537 263 528 257Q533 249 533 237Q533 222 527 208T509 185Q517 189 531 189Q545 189 557 185T575 173Q578 185 593 196T620 208Q617 216 623 232T639 253Q638 256 638 266Q638 289 644 295Q633 307 633 322Q633 341 646 352Q636 362 636 384Q636 396 640
401Q635 409 635 419Q635 428 637 434Q628 435 623 446T617 469Q617 477 618 481Q606 494 607 510Q584 525 588 549Q577 548 568 552T552 565Q540 564 534 567T520 578T508 589Q500 585 489 585Q474 585 459 593T436 611Q427 602 410 597T375 592Q369 592 359 594Q345
583 329 583Q321 583 313 586Q299 578 290 578Q287 578 279 580Q275 572 265 565Q266 557 258 549T243 541Q242 533 231 525T211 515Q212 499 199 480T169 455Q173 441 173 429Q173 395 157 376Q158 373 158 367Q158 356 151 340Q153 332 153 326Q153 308 144 297Q151
279 151 259Q151 246 149 240Q157 214 157 192Q157 181 156 175Q169 164 181 143T193 106Q203 100 212 89T222 67Q242 58 258 38Q266 40 270 40Q286 40 299 29Q317 31 339 24T375 7Q386 15 410 15Q435 15 445 6Q468 26 506 23Q520 30 542 30Q561 30 574 24Q586
19 592 9T598 -13Q598 -25 593 -35T577 -51Q568 -57 555 -60T527 -64Q513 -64 501 -59Q496 -68 476 -74T435 -80Q419 -80 411 -75Q396 -78 383 -78Q357 -78 334 -64Q322 -66 312 -66Q296 -66 281 -62T257 -48Q254 -49 248 -49Q231 -49 212 -38T184 -16Q171 -10
156 8T137 40Q123 44 115 55T106 81Q106 87 107 90Q90 101 80 127T69 179Q69 185 71 195Q63 210 63 236Q63 257 67 266Q61 272 58 283T54 307Q54 331 66 338Q64 348 64 353Q64 378 76 392Q74 404 80 427T98 464Q94 471 94 481Q94 502 108 523T140 546Q139 566 151
581T180 595Q181 612 196 625T225 642Q229 651 242 659T270 667Q279 667 286 663Q296 670 309 670Q314 670 317 669Q331 683 369 683Q388 683 402 679Q417 691 444 691Q461 691 476 686T499 672Q507 675 515 675Q530 675 544 669T562 652Q565 653 572 653Q591 653
604 638Q630 640 648 618T669 569Q681 562 687 550T691 524Q706 507 703 487Q711 484 717 472T723 447Q723 438 719 431Q728 425 728 408Q728 394 722 388Q731 379 731 363ZM393 191T400 191Q410 191 417 187Q419 193 433 193Q447 193 452 189Q451 192 451 200Q451
217 456 239T467 266Q462 281 462 301Q462 325 470 338Q469 342 469 351Q469 372 480 389Q474 401 474 416Q474 432 482 443Q477 441 463 441Q443 441 439 445Q431 442 418 439T394 436Q388 436 382 438Q374 423 361 409T330 390Q329 384 328 368T321 339T306 319Q307
312 308 304T310 290Q310 278 301 268Q316 257 318 236Q331 229 338 220T352 195H356Q362 195 368 192T379 185Q384 189 390 190Q393 191 400 191Z" />
<glyph unicode="A" glyph-name="A" horiz-adv-x="649" d="M583 108T600 101T614 54Q618 46 618 36Q618 20 605 10T575 0Q560 0 550 9T539 37Q528 39 517 54T505 86Q505 90 507 98Q497 103 490 118T479 151T477 175Q464 181 457 204T451 245Q444 242 434 242Q414
242 397 254Q384 241 358 241Q334 241 324 253Q311 242 296 242Q284 242 277 247Q270 242 256 242Q244 242 232 246T213 257Q212 257 208 255Q214 236 214 221Q214 198 191 181Q195 173 195 162Q195 140 180 120T151 98Q155 89 155 77Q155 50 137 28T93 5Q86 5
82 6Q69 6 62 14T55 35Q55 44 60 56Q59 60 59 68Q59 88 79 103Q78 106 78 112Q78 127 85 142T105 163Q104 165 104 172Q104 189 112 211T130 237Q128 281 159 326Q159 349 166 369T191 399Q192 418 200 437T218 469Q215 480 215 489Q215 503 220 511T233 522Q232
526 232 534Q232 556 248 569L247 575Q247 590 259 602Q258 606 258 613Q258 631 267 649T287 673Q305 698 325 698Q334 698 348 692Q377 691 390 647Q399 636 403 622T406 595Q415 589 419 579T423 558Q433 549 440 530T448 494Q448 486 447 483Q454 476 459 463T465
439Q465 433 464 430Q477 421 485 402T497 365T499 339Q501 336 510 325T524 302T529 280Q529 271 527 267Q531 262 536 256T544 244T547 232Q547 225 546 222Q554 214 560 201T566 176Q566 166 562 161Q573 153 579 138T583 108Q583 108 600 101ZM401 331T408
332T420 331Q418 337 418 340Q418 348 422 352Q413 359 408 370T403 392Q396 394 391 402T385 421Q385 424 387 432Q366 445 366 471Q366 481 369 494Q368 495 364 498T361 510Q341 516 342 542Q334 546 329 557Q331 534 311 521Q312 510 307 496T295 475Q296 471
296 462Q296 439 277 401Q272 390 269 381Q265 371 261 361T249 346Q249 336 245 328L253 329Q263 329 268 324Q271 329 280 329Q286 329 289 326Q301 335 319 335Q332 335 343 331T361 320Q371 331 382 331Q389 331 399 325Q401 331 408 332Z" />
<glyph unicode="B" glyph-name="B" horiz-adv-x="566" d="M515 213T515 193Q515 162 502 148Q503 145 503 141Q503 128 487 124Q489 118 489 115Q489 100 473 84T443 68Q436 51 426 44T400 36Q393 36 388 37Q386 27 366 18T325 8Q313 8 307 10Q300 5 288 5Q278
5 270 9Q259 2 242 2Q224 2 215 11Q203 2 185 2Q162 2 145 16T131 51Q97 62 97 114Q97 129 98 136Q90 158 90 185Q90 210 98 224Q93 235 89 256T85 297Q85 330 97 341Q86 352 86 370Q86 378 89 385Q81 395 81 407Q81 422 90 431Q87 439 87 447Q87 454 90 461Q81
470 81 494Q81 512 86 534Q71 546 71 578Q71 593 74 607T84 632Q76 640 71 653T66 681Q66 696 72 706Q85 722 105 722Q118 722 128 715T143 696Q165 706 181 706Q196 706 210 698Q216 702 229 706T254 710Q268 710 276 703Q285 708 296 708Q311 708 330 694Q349
696 368 689T398 665Q409 673 422 673Q433 673 443 668T459 651Q469 646 477 631T485 603Q493 604 499 591T505 562Q505 546 498 539Q501 532 501 526Q501 519 496 515Q503 505 503 492Q503 482 499 473T489 457Q490 455 490 451Q490 441 479 428Q473 414 466 406T446
394Q438 386 412 387Q425 386 430 382T437 375T440 370Q457 370 468 361T483 333Q495 326 502 315T506 292Q519 280 519 254Q519 232 509 220Q515 213 515 193ZM175 441T175 428Q175 416 170 408Q175 399 175 387Q189 404 206 404Q215 404 224 398Q231 408 248
408Q265 408 284 400Q296 410 319 415T355 419Q365 432 385 445T415 460Q407 473 407 490Q407 514 416 527Q407 539 402 559T398 593Q392 591 387 591Q377 591 368 596T353 610Q347 608 333 608Q309 608 299 616Q289 602 260 602Q230 602 207 616Q197 606 176 606Q165
606 151 610Q159 604 163 585T168 546Q168 526 165 517Q175 506 175 476Q175 460 170 448Q175 441 175 428ZM411 170T429 178Q422 186 422 196Q422 201 423 208T426 221Q420 224 414 243T407 279Q407 287 408 290Q396 290 386 299T369 321Q342 311 327 311Q316
311 299 316Q283 305 266 305Q255 305 244 309Q218 296 195 296Q184 296 172 299Q180 288 180 254Q180 216 172 190Q182 179 182 156Q182 143 178 125Q189 124 197 115T208 95Q214 97 218 97Q226 97 232 94T241 87Q251 97 267 97Q275 97 285 92Q295 99 306 99Q315
99 322 96Q327 105 338 110T361 115Q370 115 376 112Q379 140 408 149Q411 170 429 178Z" />
<glyph unicode="C" glyph-name="C" horiz-adv-x="617" d="M499 272T511 279T536 287Q540 287 548 285Q577 277 577 251Q577 228 557 204Q559 196 559 190Q559 177 554 164T538 140Q535 124 530 113T513 86Q501 70 490 64T458 51Q453 37 442 26T415 14Q407 14 398
17Q391 9 379 5T353 0Q336 0 326 7Q314 2 295 2Q270 2 247 10T211 35Q187 33 171 46Q157 54 153 64Q116 82 117 130Q99 142 90 157T76 197Q68 205 68 218Q68 224 69 228Q60 237 60 252Q60 259 63 266Q49 281 49 309Q49 334 60 348Q53 358 53 370Q53 379 58 389Q53
395 53 413Q53 433 59 453T74 481Q71 487 71 498Q71 514 76 528T92 543Q92 564 109 576Q108 590 119 607T146 630Q149 652 164 667T197 684Q202 693 215 699T242 706Q252 706 259 702Q274 716 293 716Q309 716 314 708Q322 710 328 710Q346 710 355 697Q359 700
367 700Q381 700 398 693T419 678Q440 674 457 658T471 624Q485 617 491 605T495 581Q504 574 507 564T511 551Q531 534 531 508Q531 503 529 495Q530 491 530 485Q530 468 518 457T489 445Q473 445 461 457Q433 487 430 517Q418 521 411 532T405 558Q396 564 392
573T388 593Q370 593 360 604Q357 603 349 603Q338 603 325 606T305 615Q301 614 293 614Q282 614 278 616Q265 608 253 608Q249 608 239 610Q228 601 218 600Q216 584 210 571T193 556Q195 544 189 533T172 514Q171 506 167 499T157 487Q158 482 159 476T160 460Q160
439 142 427Q142 414 137 406Q142 396 142 386Q142 376 138 368Q144 358 144 349Q144 340 139 328Q134 315 133 304Q142 299 147 290T152 271Q152 260 146 251Q154 247 158 237T162 216Q162 205 158 198Q180 186 188 174T201 134Q208 131 217 124T230 112Q247 113
265 105T291 82Q297 87 310 90T337 94Q351 94 356 90Q370 107 390 107Q396 107 399 106Q415 119 424 124T445 133Q446 148 457 162Q458 170 463 181T473 199Q472 202 472 209Q472 222 479 237T495 261Q499 272 511 279Z" />
<glyph unicode="D" glyph-name="D" horiz-adv-x="627" d="M524 600T542 582T560 547Q572 540 581 523T590 489Q590 477 584 469Q588 457 588 441Q588 425 583 410Q590 396 590 376Q590 357 583 341T561 319Q560 309 553 296T540 277L541 268Q541 250 530 240Q521
231 515 229Q516 219 508 212T487 200Q485 188 479 182T460 172Q457 162 449 155T429 145Q423 129 415 124T389 118Q386 85 347 71Q341 61 333 57T315 51T301 48Q288 37 267 28T226 18Q216 18 207 21Q201 12 189 6T163 0Q150 0 140 7Q103 7 103 50Q103 57 105 71Q89
85 89 104Q89 117 96 127Q91 139 91 145Q91 152 98 164Q85 187 85 216Q85 241 96 257Q86 278 86 304Q86 335 100 363Q94 373 90 389T85 422Q85 447 96 461Q89 470 85 485T80 515Q80 535 88 546Q87 549 87 555Q87 567 92 575Q85 590 87 617Q68 629 68 651Q68 662
74 672T91 687Q95 697 105 703T126 709Q140 709 151 701Q158 711 182 711Q195 711 203 708T213 700Q233 705 252 705Q278 705 294 697Q303 703 315 703Q334 703 344 691Q352 693 357 693Q373 693 387 683T406 658Q416 663 425 663Q438 663 449 656T467 640Q480
640 490 631T504 605Q524 600 542 582ZM237 115T253 120T285 125Q298 144 315 144Q315 158 326 166T358 183Q360 199 372 212T399 224Q407 235 420 240Q427 258 442 265Q445 284 461 293Q463 306 469 318T482 335Q484 353 490 370T506 391Q503 399 503 407Q503
412 505 422Q498 432 498 466Q498 484 501 493Q500 495 495 501T489 514Q482 516 478 522T472 530Q457 530 446 541T433 568Q425 567 414 571T396 584Q384 581 366 588T343 612Q340 611 332 611Q318 611 308 618Q299 614 287 614Q267 614 249 625Q232 618 214 618Q194
618 180 628Q174 625 166 625Q165 625 165 625T165 624Q169 620 171 608T174 579Q174 539 164 528Q169 520 173 499T177 455Q177 425 170 411Q177 398 177 375Q177 346 165 329Q172 309 174 274L176 251Q177 242 175 229T173 206Q173 196 176 185Q178 171 178 164Q178
155 175 147Q179 142 183 130T184 110Q195 116 206 116Q223 116 231 106Q237 115 253 120Z" />
<glyph unicode="E" glyph-name="E" horiz-adv-x="520" d="M408 709T424 709Q447 709 470 694Q481 694 488 685T495 663Q495 646 485 633T457 620Q444 620 429 628Q421 620 408 620Q394 620 379 630Q369 625 349 625Q320 625 304 634Q289 627 273 627Q260 627 248
631Q235 626 223 626Q207 626 191 635Q173 625 159 623Q166 606 166 586Q166 561 155 546Q167 527 167 504Q167 486 158 468Q167 458 167 443Q167 433 160 419Q169 424 182 424Q192 424 196 422Q207 430 220 430Q233 430 246 419Q258 422 266 422Q271 422 283 420Q295
422 300 422Q317 422 325 414Q333 419 343 419Q355 419 358 414Q367 417 372 417Q379 417 391 413Q404 420 416 420Q433 420 445 408T457 380Q457 367 448 358T420 348Q411 336 390 336Q371 336 356 346Q346 336 327 336Q310 336 299 344Q291 338 282 338Q276 338
272 342Q261 332 242 332Q228 332 216 338Q206 333 199 333Q189 333 179 340Q172 336 168 335T157 335Q166 317 166 307Q166 298 160 286Q167 278 167 266Q167 257 162 247Q169 239 169 226Q169 214 162 206Q168 194 168 187Q168 181 160 167Q164 163 164 156Q164
147 158 144Q168 135 168 121Q168 116 166 104L172 105Q183 105 195 95Q210 106 234 106Q243 106 253 104Q259 111 270 115T294 119Q315 119 326 110Q332 120 347 126T377 132Q388 132 395 129Q406 135 415 135Q431 135 443 122T455 92Q455 71 436 59Q432 51 420
46T394 40Q380 40 372 45Q364 37 351 32T325 26Q305 26 294 37Q277 19 250 19Q245 19 233 21Q213 9 194 9Q179 9 168 17Q157 0 136 0Q118 0 105 14T95 47Q89 53 86 65T83 89Q83 98 84 102Q71 115 71 146Q71 159 74 170T81 187Q76 197 76 208Q76 213 78 221Q69 230
69 245Q69 259 76 267Q71 277 71 285Q71 296 78 306Q70 324 70 341Q70 362 83 381Q77 394 73 413T68 449Q68 481 83 493Q78 515 78 516Q72 540 72 550Q72 565 79 586Q74 593 71 609T69 632Q57 644 57 661Q57 674 65 685T88 701Q95 708 107 712T132 717Q149 717
161 708Q178 713 195 713Q219 713 234 702Q243 706 255 706Q266 706 272 701Q278 706 301 706Q331 706 348 696Q359 707 375 707Q385 707 398 702Q408 709 424 709Z" />
<glyph unicode="F" glyph-name="F" horiz-adv-x="602" d="M466 725T485 725Q496 725 507 722T523 715Q541 716 552 705T563 678Q563 661 551 648T515 635Q504 635 492 638Q481 628 465 628Q448 628 437 638Q425 629 411 629Q399 629 390 633Q379 625 366 625Q354
625 345 631Q333 625 323 625Q308 625 291 636Q273 622 253 622Q237 622 224 631Q215 622 205 619T176 617Q187 603 187 584Q187 566 174 542Q188 529 188 510Q188 494 176 464Q189 448 189 437Q189 428 181 414Q184 409 186 398Q200 400 206 400Q223 400 234 392Q242
395 254 395Q269 395 279 392Q287 401 306 401Q328 401 338 392Q351 400 370 400Q388 400 401 393Q405 398 414 401T434 405Q451 405 459 397Q473 393 480 383T488 360Q488 343 477 330T448 316Q438 316 430 320Q420 313 408 313Q398 313 388 318Q373 309 344 309Q322
309 310 315Q296 307 283 307Q273 307 257 313Q241 307 230 307Q216 307 202 318Q196 311 181 306Q190 297 190 276Q190 255 179 242Q187 231 192 216T197 187Q197 172 191 160Q196 153 196 141Q196 125 185 112Q199 98 199 80Q199 63 188 49Q189 46 189 40Q189
21 177 11T148 0Q135 0 126 6Q104 18 104 42Q104 58 115 71Q102 84 102 112Q102 128 106 136Q98 149 98 169Q98 180 101 190T108 204Q100 216 100 245Q100 271 107 278Q102 283 99 294T96 316Q96 327 99 333Q88 347 88 366Q88 383 98 391Q90 404 90 424Q90 444
97 452Q90 459 90 475Q90 494 100 505Q85 523 85 544Q85 566 98 582Q90 590 90 609Q90 630 97 647Q95 653 95 664Q95 689 120 692Q133 705 158 705Q173 705 182 701Q189 707 201 710T226 714Q242 714 249 709Q269 719 297 719Q318 719 330 711Q338 714 346 714Q356
714 363 710Q373 717 386 717Q395 717 403 713Q416 721 439 721Q452 721 459 718Q466 725 485 725Z" />
<glyph unicode="G" glyph-name="G" horiz-adv-x="663" d="M612 311T612 287Q612 281 610 273Q614 261 614 254Q614 237 604 227Q606 219 606 211Q606 199 603 187T592 168Q594 160 594 155Q594 138 585 121T561 98Q561 75 548 59T510 42Q504 32 483 22T449 14Q436
0 422 0Q407 0 393 12Q390 10 380 10Q362 10 347 19Q342 23 332 21Q329 19 322 19Q304 19 287 39Q269 38 256 49T240 71Q223 69 209 78T190 103Q166 106 149 124T130 166Q120 169 112 177T104 192Q89 204 89 222Q89 231 91 236Q81 246 77 263T72 297Q63 305 59
321T56 354Q53 365 53 377Q53 401 64 415Q59 423 59 437Q59 449 64 459T76 471Q75 476 75 487Q75 506 82 523T101 548Q99 562 106 579T126 609T157 622Q158 640 169 655T196 672Q202 683 217 690T248 697Q256 697 260 696Q264 705 279 709T312 714Q337 714 343
707Q350 711 363 711Q383 711 404 703T430 682Q440 684 444 684Q463 684 476 671T492 637Q507 639 515 628T524 601Q524 593 522 590Q532 583 539 570T546 545Q546 530 534 522Q531 511 522 506T501 500Q488 500 478 506T464 524Q450 528 442 541T435 569Q427 576
421 586T414 606Q406 604 403 604Q394 604 388 608T379 618Q373 615 367 615Q354 615 341 626L324 625Q316 625 307 629Q302 618 292 612T270 606Q261 606 256 608Q249 592 243 583T227 571Q222 553 196 544Q191 523 186 512T167 489Q168 486 168 478Q168 464 162
448T146 421Q150 409 150 393Q150 371 139 347Q151 341 154 334T157 317T156 304Q167 293 171 276T174 247Q195 231 203 220T216 188Q227 190 245 176T262 152Q277 151 292 141T316 115Q321 118 328 118Q338 118 352 113T375 102Q379 104 390 104Q407 104 414 101Q425
109 438 109Q444 109 454 105Q473 116 485 115Q483 154 508 162Q504 169 504 178Q504 197 519 210Q515 230 515 238Q515 253 526 263Q520 269 520 275Q520 283 526 287Q512 295 512 311Q512 317 513 320Q505 318 503 318Q494 318 479 329Q473 319 453 319Q443 319
437 322Q430 315 416 315Q398 315 390 324Q376 314 352 314L334 315Q319 316 309 329T298 360Q298 382 323 396T380 410Q403 410 414 403Q422 408 437 411T469 415Q487 415 501 409Q512 413 524 413Q548 413 560 395Q601 387 599 330Q612 311 612 287Z" />
<glyph unicode="H" glyph-name="H" horiz-adv-x="633" d="M552 441T552 437Q552 432 551 429T548 424Q568 424 577 414T586 388Q586 372 577 359T556 346Q559 339 559 323Q559 298 551 293Q560 283 560 257Q560 242 557 229T547 210Q556 200 556 175Q556 159 551
154Q556 144 556 131Q556 108 547 94Q555 81 555 67Q555 54 550 48Q549 29 539 15T512 0Q505 0 493 5Q472 15 472 50Q472 68 475 81Q468 99 468 122Q468 149 478 170Q466 188 466 214Q466 235 475 245Q471 249 471 267Q471 284 475 289Q470 306 470 335Q470 344
471 346Q463 342 458 342Q448 342 443 349Q434 343 426 343Q417 343 409 350Q397 344 384 344Q372 344 364 350Q354 346 337 346Q318 346 310 351Q292 345 277 345Q263 345 254 351Q237 344 220 344Q201 344 182 354Q190 342 190 323Q190 308 186 295Q197 279 197
263Q197 251 191 237Q199 224 199 204Q199 185 192 175Q204 151 204 136Q204 122 194 105Q201 93 201 69Q201 53 196 44Q196 26 185 16T158 6Q141 6 129 15T117 41Q117 48 120 57Q108 72 108 91Q108 101 112 109T123 122Q119 129 116 145T112 176Q112 195 117 200Q111
204 108 213T104 232Q104 247 111 256Q104 271 104 287Q104 295 105 299Q102 310 102 321Q102 334 105 347Q97 368 97 396Q97 424 106 433Q99 447 99 467Q99 484 103 493Q95 504 95 522Q95 537 99 546Q96 552 94 563T91 585Q91 609 101 620Q97 628 97 632Q97 638
101 642Q90 654 90 668Q90 684 104 696T135 708Q146 708 155 701T169 679Q184 666 184 649Q184 641 179 631Q184 625 184 614Q184 605 180 597T171 586Q185 574 185 555Q185 539 174 528Q187 516 187 501Q187 490 180 476Q190 463 190 446Q190 434 186 429Q201
437 222 437Q245 437 254 427Q279 436 296 436Q315 436 328 427Q336 431 349 434T374 437Q392 437 400 429Q413 438 433 438Q460 438 476 423Q473 431 473 445Q473 465 478 467Q472 479 472 492Q472 505 478 511Q476 519 476 524Q476 535 479 542Q471 553 471 566Q471
575 476 585Q471 595 471 603Q471 617 481 622Q478 633 478 639Q478 648 482 659Q475 672 475 683Q475 698 487 708T515 719Q527 719 537 712T551 690Q564 681 564 658Q564 639 556 621Q562 612 562 588Q562 570 558 563Q562 556 562 544Q562 528 557 518Q562 513
562 505Q562 494 556 488Q559 479 559 472Q559 458 549 447Q552 441 552 437Z" />
<glyph unicode="I" glyph-name="I" horiz-adv-x="282" d="M186 540T186 527Q186 522 184 502Q189 492 189 471Q189 453 184 443Q189 433 189 424Q189 411 180 399Q187 382 187 364Q187 350 182 333Q188 323 188 308Q188 293 181 275Q189 264 189 252Q189 240 181
229Q185 222 185 213Q185 204 180 194Q188 180 188 173Q188 167 181 156Q185 142 185 135Q185 120 174 109Q186 88 186 58Q186 21 165 7Q155 0 144 0Q125 0 113 17T100 56Q100 66 103 75Q94 87 94 109Q94 131 103 141Q101 146 101 155Q101 162 102 166Q97 174 97
187Q97 203 105 214Q97 222 97 235Q97 244 102 254Q98 262 98 280Q98 302 108 308Q98 326 98 343Q98 352 103 360Q96 374 96 392Q96 413 106 427Q102 436 102 444Q102 451 108 460Q100 471 100 484Q100 495 106 499Q99 507 99 523Q99 535 105 541Q96 555 96 581Q96
604 103 613Q94 629 94 649Q94 667 102 675Q103 692 115 702T143 713Q154 713 163 707Q182 696 182 673Q182 654 172 636Q185 613 185 585Q185 571 181 560Q186 540 186 527Z" />
<glyph unicode="J" glyph-name="J" horiz-adv-x="479" d="M437 435T437 412Q437 399 435 389T429 375Q437 367 437 350Q437 332 428 323Q431 314 431 306Q431 282 418 263Q420 255 420 250Q420 240 413 222Q420 211 420 198Q420 179 406 167Q406 153 401 140T387
120Q388 109 381 97T362 80Q361 68 351 53T329 34Q325 31 318 26T306 19T294 17Q291 7 278 2T247 -4Q224 -4 213 5Q207 -4 185 -4Q170 -4 156 1T135 17Q124 16 110 27T92 51Q77 59 69 67T55 94Q40 98 33 107T26 128Q26 145 38 159T66 174Q80 174 93 162Q110 158
121 146T133 118Q144 120 159 111T180 87Q188 93 199 93Q210 93 222 89T244 77Q250 86 261 91T283 95Q282 113 293 133T320 158Q319 165 322 177T331 196Q327 203 327 214Q327 226 331 239T341 260L340 279Q340 295 346 306Q338 317 338 330Q338 345 348 355Q345
373 345 385Q345 413 355 420Q347 432 347 461Q347 483 352 488Q346 498 342 513T338 542Q338 558 343 565Q339 569 336 577T333 594Q333 603 336 607Q328 613 323 622T318 641Q318 649 322 656Q316 667 316 676Q316 693 330 705T360 718Q382 718 392 696Q411 684
411 660Q411 655 409 647Q414 641 417 630T420 607Q420 595 415 585Q424 579 428 564T433 533Q433 511 425 503Q430 500 434 490T438 467Q438 449 430 441Q437 435 437 412Z" />
<glyph unicode="K" glyph-name="K" horiz-adv-x="603" d="M573 64T575 56T578 37Q578 21 571 10T548 -2Q540 -2 527 3Q513 9 503 21T491 46Q477 54 471 66T462 101Q453 104 444 116T432 139Q420 143 410 155T400 181Q379 186 365 203T351 239Q351 245 352 248Q333
250 318 269T305 308Q294 311 285 322T271 348Q270 342 261 335T247 328Q242 318 231 310T210 299Q207 288 197 283T172 276Q181 259 181 226Q181 195 174 174Q183 159 183 133Q183 111 177 102Q177 98 179 86T181 61Q181 3 134 3Q113 3 104 17T95 51Q95 73 102
85Q96 105 96 118Q96 133 101 140Q90 151 90 177Q90 197 95 212Q89 238 89 248Q89 261 93 274Q81 292 81 313Q81 335 93 349Q78 358 78 378Q78 392 87 412Q81 424 81 435Q81 444 86 456Q78 465 78 490Q78 522 90 540Q83 548 79 563T75 596Q75 620 81 632Q74 650
74 666Q74 689 88 702T122 716Q140 716 152 705T164 673L163 663Q174 652 174 632Q174 613 166 599Q171 594 171 576Q171 550 160 543Q166 534 166 521Q166 504 158 486Q169 472 169 458Q169 447 163 439Q167 434 167 426Q167 420 165 411T161 396Q169 390 169
376Q169 370 166 362Q172 375 189 379Q191 395 203 404T230 412Q231 429 242 443T276 457Q281 473 295 486T318 497Q331 517 339 524T366 537Q367 549 380 562T406 580Q408 588 422 600T446 616Q444 628 458 643T488 658Q493 674 503 682T526 690Q542 690 555 680T568
656Q568 641 553 629Q549 590 517 576Q515 565 505 555T482 543Q480 532 463 517T429 500Q424 484 408 468T378 451Q365 430 357 423T327 403Q354 394 350 367Q365 361 375 347T382 319Q399 313 416 292T431 254Q444 250 459 235T476 204Q485 200 496 187T509 164Q523
159 532 142T542 107Q550 103 558 91T569 68Q573 64 575 56Z" />
<glyph unicode="L" glyph-name="L" horiz-adv-x="564" d="M404 101T417 106T444 111Q461 111 468 104Q480 106 483 106Q502 106 512 96T522 71Q522 53 509 39T475 24Q462 24 448 31Q441 22 427 14T398 6Q385 6 374 13Q366 1 344 1Q333 1 323 6Q308 -3 287 -3Q272
-3 261 3Q249 -2 238 -2Q220 -2 206 9Q195 2 183 2Q168 2 157 11T146 33Q132 40 123 51T113 77Q113 87 117 96Q105 100 98 110T91 133Q91 144 95 152Q85 165 85 190Q85 203 88 214T97 230Q84 243 84 268Q84 290 93 303Q85 321 85 343Q85 371 97 390Q87 401 87 420Q87
435 94 446Q84 457 84 481Q84 500 89 510Q81 525 81 553Q81 583 89 596Q85 603 85 618Q85 639 96 649Q90 661 90 672Q90 689 102 699T131 710Q142 710 151 704T165 684Q178 673 178 651Q178 631 167 613Q173 604 173 591Q173 575 163 565Q180 550 180 526Q180 504
166 489Q174 476 174 453Q174 432 169 424Q177 411 177 382Q177 348 167 334Q181 319 181 291Q181 277 177 265T167 244Q180 231 180 206Q180 190 173 176Q178 166 178 151Q178 144 177 142Q206 119 201 95Q214 96 224 93T239 82Q249 89 261 89Q277 89 290 78Q297
91 317 91Q327 91 339 85Q345 92 354 97T374 102Q388 102 400 93Q404 101 417 106Z" />
<glyph unicode="M" glyph-name="M" horiz-adv-x="720" d="M662 329T662 315Q662 299 658 284T646 260Q655 251 655 220Q655 190 646 178Q651 173 654 160T657 131Q657 101 646 84Q652 65 652 50Q652 27 640 15T612 3Q598 3 587 13T576 40Q576 49 579 58Q566 81
566 110Q566 139 579 152Q569 162 569 180Q569 197 579 207Q569 227 569 252Q569 277 579 286Q569 306 569 339Q569 372 579 381Q565 400 565 426Q565 449 579 462Q575 467 575 476Q575 483 577 494T579 516Q579 490 567 449T534 392Q534 326 509 315Q509 293 501
264T485 234Q485 222 476 208T457 193Q460 183 460 171Q460 157 456 145T444 125Q444 107 437 95T418 72Q418 53 405 42T375 31Q359 31 347 41T335 71Q335 80 336 84Q326 84 318 101T309 139Q300 139 290 154T274 189T271 219Q263 225 256 242T248 278Q248 298
256 313Q243 314 234 331T224 366Q224 376 229 381Q219 389 211 407T202 436Q189 449 189 489Q175 489 165 514Q167 495 162 477T147 449Q156 441 161 419T166 373Q166 352 162 343Q172 327 172 294Q172 257 162 234Q170 217 170 200Q170 185 162 166Q166 162 169
147T172 113Q172 79 162 72Q163 66 163 56Q163 30 151 16T120 2Q102 2 88 16T74 53Q74 70 83 91Q71 132 71 168Q71 201 80 219Q70 232 70 260Q70 273 73 284T80 301Q70 324 70 347Q70 371 80 381Q75 388 72 399T69 422Q69 440 75 449Q65 466 65 493Q65 528 80 543Q66
557 66 600Q66 620 70 638T80 663Q80 682 94 694T126 706Q147 706 162 691Q182 691 198 673T215 636Q222 630 227 620T232 598Q232 590 229 582Q241 581 248 568T256 543Q264 536 269 524T275 498Q275 486 271 475Q276 475 280 467T285 448Q285 440 281 436Q292
430 300 412T309 381Q316 374 320 358T325 325Q325 312 322 301Q332 294 341 273T350 231Q350 223 349 219Q361 210 366 202T376 178Q378 222 395 231Q393 239 393 243Q393 258 400 272T418 286Q413 296 413 303Q413 325 444 359Q441 365 441 375Q441 392 448 410T470
436Q470 466 474 486T497 516Q497 534 505 545T526 557Q521 565 521 578Q521 599 530 621T553 651Q553 673 565 689T605 705Q610 707 619 707Q639 707 648 690T658 658Q667 627 667 611Q667 596 658 564Q667 554 667 535Q667 517 658 496Q667 486 667 463Q667 439
657 427Q670 410 670 384Q670 358 658 340Q662 329 662 315Z" />
<glyph unicode="N" glyph-name="N" horiz-adv-x="676" d="M621 105T621 96Q621 89 616 84Q621 75 621 66Q621 58 617 50Q619 38 619 35Q619 21 603 9Q591 0 576 0Q557 0 542 13Q528 15 519 28T512 59Q507 63 500 67T489 77T482 91Q470 95 463 105T456 129Q456
134 457 137Q444 139 436 149T426 173Q406 183 397 190T386 212Q376 217 366 232T354 259Q336 268 333 289Q324 293 313 308T301 336Q287 341 274 359T259 397Q251 401 240 417T226 445Q218 453 208 471T195 504Q187 510 178 526T166 554Q168 548 168 537Q168 524
165 521Q171 497 171 481Q171 475 169 467Q173 458 173 440Q173 424 170 415Q176 408 176 391Q176 376 171 366Q177 356 177 346Q177 335 172 323T165 308Q174 295 174 264Q174 246 169 233Q177 220 177 207Q177 193 166 167Q176 157 176 139Q176 119 165 99Q166
90 168 74T171 48Q171 5 131 5Q115 5 105 16T92 43Q86 57 86 73Q86 89 91 102Q86 120 86 136Q86 149 89 158Q86 169 86 177Q86 192 92 207Q84 220 84 240Q84 262 94 274Q86 293 86 310Q86 330 95 346Q91 356 91 362Q91 365 93 373Q80 386 80 415Q80 430 83 444T92
464Q81 484 81 515Q81 535 87 547Q81 558 81 575Q81 596 89 609Q86 617 86 632Q86 646 89 651Q89 676 105 690T143 704Q165 704 180 689T194 649Q217 646 237 621T256 567Q269 558 281 540T295 507Q308 497 323 471T339 425Q351 424 364 402T380 365Q390 361 400
345T410 317Q418 315 424 301T429 279Q454 269 459 244Q470 245 483 231T499 203Q509 199 520 186T535 160Q532 175 532 182Q532 189 537 194Q527 205 527 226Q527 237 530 244Q523 256 523 266Q523 275 528 285Q518 294 518 316Q518 326 521 332Q513 348 513 368Q513
374 515 386Q504 399 504 428Q504 452 512 463Q507 470 504 482T500 506Q500 525 508 535Q499 544 499 560Q499 571 504 588Q494 603 494 624Q494 640 500 649Q495 662 495 672Q495 692 515 700Q526 704 535 704Q552 704 559 691T567 660Q567 650 566 646Q574 640
579 624T584 591Q584 576 580 569Q587 553 587 527Q587 505 582 496Q588 484 588 461Q588 443 584 435Q589 427 592 414T596 388Q596 371 589 364Q596 358 600 344T604 315Q604 302 601 293Q609 280 609 262Q609 247 604 241Q607 235 609 221T609 201Q619 194 619
172Q619 155 612 145Q617 132 617 124Q617 121 615 111Q621 105 621 96Z" />
<glyph unicode="O" glyph-name="O" horiz-adv-x="635" d="M594 390T597 373T600 338Q600 317 595 308Q599 297 599 286Q599 267 585 249Q587 232 579 215T556 187Q559 180 559 173Q559 158 550 144T526 119Q525 103 515 93T483 74Q480 60 474 55T460 47T446 42Q442
33 422 26T392 20Q388 12 375 6T345 0Q326 0 314 8Q304 6 297 6Q276 6 253 14T220 37Q199 35 175 54T148 93Q136 93 121 115T105 159Q105 167 108 174Q96 179 89 189T81 211Q81 218 84 225Q77 231 72 243T67 268Q67 274 69 280Q63 292 63 309Q63 324 68 330Q63
337 60 349T57 375Q57 391 62 401Q55 412 55 427Q55 437 59 446T68 459Q65 468 65 477Q65 500 85 514Q85 539 97 544Q93 551 102 566T120 582Q124 598 134 611T158 625Q163 646 187 665T234 683Q238 697 255 705T291 713Q313 713 323 703Q328 709 339 713T364 718Q384
718 398 707Q407 711 417 711Q430 711 438 705T447 689Q459 693 473 683T491 656Q502 659 513 652T531 632T533 611Q542 605 548 596T555 574Q555 565 550 553Q564 547 571 533T579 503Q579 496 578 492Q586 481 591 465T596 431Q596 411 589 398Q594 390 597 373ZM426
133T438 144T461 155Q462 164 472 189T490 217Q489 220 489 228Q489 247 495 268T511 292Q505 303 505 315Q505 332 519 362Q514 371 509 386T504 414Q504 424 508 428Q502 438 502 457Q493 477 492 487Q478 493 469 512T463 547Q454 555 451 565Q441 569 436 576T425
596L414 595Q397 595 382 600T360 617Q341 610 323 610Q306 610 285 617Q280 600 267 592T237 584Q232 574 220 562T196 545Q196 536 188 526T177 513Q178 510 178 504Q178 486 163 477Q163 463 154 450Q155 448 155 444Q155 434 147 422Q154 414 154 401Q154 386
146 377Q159 362 159 344Q159 334 154 322Q166 310 166 288Q166 275 160 266Q171 255 171 240Q171 232 168 226Q178 221 184 212T190 192Q190 189 188 181Q204 173 217 158T231 126Q243 130 266 115T296 88Q306 96 336 96Q360 96 372 91Q379 101 396 111T424 122Q426
133 438 144Z" />
<glyph unicode="P" glyph-name="P" horiz-adv-x="552" d="M487 621T491 611T494 592Q507 582 506 571Q506 553 482 533Q485 524 485 515Q485 501 478 489T461 472Q458 436 440 424Q437 413 420 405T389 396Q382 390 364 385T337 382Q325 366 304 366Q296 366 293
367Q287 364 277 364Q266 364 253 369Q237 359 188 359Q192 345 192 339Q192 327 184 318Q195 304 195 271Q195 245 190 232Q202 216 202 191Q202 169 192 149Q198 141 201 126T204 95Q204 71 198 63Q200 49 200 42Q200 0 154 0Q133 0 123 21T112 72Q112 101 120
117Q110 135 110 161Q110 172 112 188Q103 200 103 237Q103 268 109 277Q104 290 104 314Q104 337 109 347Q104 359 104 367Q104 375 107 382Q98 396 98 416Q98 430 102 437Q98 446 98 456Q98 467 102 474Q92 489 92 498Q92 508 100 519Q94 531 94 541Q94 557 106
567Q90 582 90 603Q90 607 92 619Q80 627 80 649Q80 665 87 679T104 693Q105 705 116 711T143 718Q157 718 168 713T182 698Q202 707 213 707Q219 707 221 705Q224 706 235 709T255 713Q268 713 281 705Q287 710 298 713T321 716Q332 716 339 713Q343 714 350 714Q365
714 380 706T403 688Q421 689 431 682T449 654Q460 651 470 642T478 624Q487 621 491 611ZM184 442T198 442Q215 442 220 437Q227 444 247 444Q267 444 273 437Q280 442 294 442Q303 442 308 439Q319 451 332 451Q339 451 343 450Q345 458 365 468T396 476Q396
484 402 497T414 514Q410 518 410 530Q410 544 414 561T424 584Q384 606 383 625Q367 628 346 641Q318 627 299 627Q288 627 268 632Q248 619 225 619Q211 619 202 625Q201 622 189 618T171 615Q172 605 178 590Q185 573 185 560Q185 547 176 535Q180 527 180 508Q180
492 176 485Q185 476 185 459Q185 448 178 437Q184 442 198 442Z" />
<glyph unicode="Q" glyph-name="Q" horiz-adv-x="611" d="M503 45T517 36T531 18Q546 14 553 5T561 -16Q561 -32 550 -44T523 -56Q513 -56 504 -52Q493 -52 483 -46T465 -30Q448 -28 434 -20T416 3Q408 3 402 9T392 22Q383 10 366 7T321 2Q315 1 304 1Q264 1 238
18Q208 21 192 31T167 66Q156 70 142 83T127 106Q115 111 107 129T98 167Q98 172 100 180Q92 188 89 201T87 226Q70 239 70 259Q70 271 76 281Q71 286 68 297T65 320Q65 336 72 344L71 355Q71 367 73 381T80 402Q78 414 78 421Q78 447 89 458Q86 470 86 479Q86
503 110 518Q109 522 109 530Q109 549 119 563T144 585Q143 610 158 631T193 652Q198 667 212 681T240 694Q244 704 257 709T286 714Q301 714 314 710T331 698Q339 702 351 702Q370 702 386 691T406 662Q424 663 438 649T449 618Q462 614 472 601T481 578Q488 575
493 565T499 545Q499 537 497 534Q507 531 511 519T514 498Q523 493 527 476T530 445Q546 428 546 413Q546 406 541 389Q547 385 550 373T554 347Q554 321 543 311Q546 304 546 294Q546 282 542 270T531 250Q536 244 536 230Q536 219 532 207T522 186Q525 179 525
170Q525 141 497 129Q497 116 483 101T453 82Q464 78 477 66T491 44Q503 45 517 36ZM238 96T242 96Q252 96 262 92T277 82Q285 88 298 88Q317 88 324 79L316 96Q305 108 305 122Q305 138 318 150T348 163Q369 163 380 142Q387 140 391 137T398 125Q402 136 408
144T420 153Q423 162 428 166T442 175Q436 189 459 222Q455 227 455 237Q455 247 460 257T473 275Q467 280 467 295Q467 318 476 322Q468 331 468 353Q468 365 471 374Q461 384 461 397Q461 401 463 409Q454 414 448 429T441 458Q441 466 442 469Q439 473 434 480T427
494T424 508Q413 513 408 529Q397 534 394 541T386 565Q375 570 366 581T356 603Q351 601 344 601Q329 601 316 619Q310 613 293 613Q276 613 270 619Q268 612 261 607T246 603Q241 589 231 581T207 573Q209 563 209 557Q209 529 187 510Q189 504 189 499Q189 486
181 474T163 459Q166 453 166 443Q166 431 163 420T153 405Q160 391 160 370Q160 349 153 342Q161 332 161 322Q161 310 153 299Q155 291 155 276Q155 269 154 266Q168 255 168 236Q168 228 167 224Q174 216 174 200Q174 187 171 175Q183 174 192 166T205 145Q220
139 226 125T230 94Q238 96 242 96Z" />
<glyph unicode="R" glyph-name="R" horiz-adv-x="579" d="M509 117T517 108T529 88T532 72Q544 60 544 42Q544 27 535 16T510 2Q492 1 473 17T452 51Q440 58 427 82T413 121Q401 130 390 151T383 185Q369 196 362 213T354 249Q339 251 330 269T320 304Q311 309
305 319T299 339Q299 345 303 351Q293 345 282 345Q271 345 258 350Q244 346 228 346Q214 346 209 351Q194 351 187 360T179 383Q179 396 185 407T200 417Q202 419 210 421T227 423Q243 423 250 419Q266 422 279 422Q293 422 296 418Q307 427 318 427Q326 427 331
425Q337 433 354 440T383 445Q387 454 397 456T416 457Q416 466 422 475T436 485Q432 499 432 511Q432 525 436 533Q430 538 428 546T427 564Q414 575 410 585Q398 586 389 597Q376 595 368 600T353 612T342 623Q326 612 305 612Q283 612 271 625Q263 617 244 617Q226
617 215 625Q207 617 190 617Q173 617 163 623Q168 608 168 588Q168 571 163 559Q171 541 171 522Q171 503 163 494Q169 482 169 469Q169 455 161 446Q171 437 171 415Q171 396 166 387Q171 380 174 364T177 332Q177 318 174 310Q176 306 178 296T180 274Q180 252
174 244Q184 226 184 208Q184 194 176 181Q188 160 188 131Q188 106 178 95Q185 76 185 55Q185 31 173 16T134 0Q118 0 109 17T99 56Q99 75 104 86Q96 105 96 128Q96 148 102 160Q94 188 94 209Q94 230 102 241Q94 245 90 254T85 275Q85 295 96 306Q92 309 90 316T87
332Q87 352 94 353Q91 356 89 368T87 393Q87 411 90 421Q81 433 81 453Q81 469 87 479Q81 488 81 503Q81 518 90 530Q84 547 84 559Q84 573 93 582Q87 588 86 598T85 623Q70 626 62 637T54 662Q54 679 65 691T96 703Q95 708 107 712T134 716Q156 716 163 705Q169
707 179 707Q193 707 198 703Q210 710 228 710Q249 710 258 701Q278 707 291 707Q310 707 320 697Q334 702 355 702Q371 702 383 698T399 684Q402 685 408 685Q421 685 431 676T446 652Q465 649 473 632Q491 630 498 617T506 585Q517 563 517 544Q517 529 510 519Q514
507 514 495Q514 477 502 463Q502 447 493 432T469 412Q465 399 455 391T431 383Q426 375 417 372T397 366T378 362Q384 361 388 352T389 339Q397 337 405 322T410 295Q425 291 433 276T442 241Q454 229 462 211T469 177Q485 169 493 153T499 118Q509 117 517 108Z"
/>
<glyph unicode="S" glyph-name="S" horiz-adv-x="583" d="M192 566T192 559Q192 550 186 539T169 522Q171 520 171 510Q171 500 170 492T167 480Q170 477 173 467T177 451Q186 451 194 445T206 428Q207 429 211 429Q217 429 225 427T238 423Q241 426 251 426Q268
426 273 418Q278 421 286 421Q302 421 310 413Q315 417 331 417Q342 417 353 414T367 406Q370 407 376 407Q393 407 408 399T424 380Q437 382 448 374T466 354Q484 351 500 321T516 265Q516 253 511 245Q526 235 526 208Q526 189 518 173Q520 165 520 161Q520 144
511 128T488 107Q485 90 470 76T439 54Q437 41 420 29T387 20Q380 11 362 6T322 0Q302 0 286 5T263 20Q254 16 243 16Q229 16 217 23T199 42Q187 39 174 47T154 74Q138 74 122 85T103 107Q87 110 79 121T70 146Q70 162 80 175T108 188Q117 188 122 186Q130 188
133 188Q148 188 160 178T174 153Q180 155 184 155Q198 155 209 143T223 114Q229 117 236 117Q247 117 257 111T268 97Q277 100 286 100Q302 100 312 87Q321 93 331 93Q336 93 348 89Q361 108 374 104Q382 115 392 123T412 133Q416 144 421 149T437 161Q435 165
435 171Q435 181 439 192T448 206Q440 215 440 227Q440 237 447 250Q429 261 429 282Q414 287 407 296Q390 295 379 301T365 321Q357 319 354 319Q344 319 335 323T320 336Q314 331 304 331Q291 331 276 341Q266 336 257 336Q244 336 236 341Q230 339 226 339Q217
339 210 342T201 351Q165 351 162 364Q150 366 139 372T127 388Q117 390 110 399T103 423Q94 430 88 448T82 486Q82 518 95 530Q93 536 93 542Q93 556 98 571T110 589Q110 602 117 619Q126 631 138 639T164 648Q166 659 176 667T201 675Q205 687 218 694T247 701Q259
701 268 698Q271 703 279 706T296 709Q301 709 307 707Q316 716 339 716Q364 716 377 707Q381 708 388 708Q418 708 439 673Q450 675 463 667T485 646T493 620Q510 608 517 595T528 556Q529 538 517 527T489 516Q474 516 463 527Q451 529 442 539T434 559Q406 578
409 601Q397 599 380 607T353 630Q346 620 325 620Q310 620 300 625Q293 616 275 616Q266 616 258 619Q254 608 245 601T223 591Q217 582 208 576T189 569Q192 566 192 559Z" />
<glyph unicode="T" glyph-name="T" horiz-adv-x="555" d="M437 707T455 707Q469 707 478 701Q498 705 511 692T525 660Q525 645 515 635T484 625Q471 625 464 627Q453 618 433 618Q411 618 393 627Q387 623 371 620T340 617Q330 617 322 619Q330 606 330 586Q330
565 321 557Q336 539 336 510Q336 491 328 475Q338 448 338 422Q338 405 334 392Q339 386 342 373T346 347Q346 332 340 321Q355 307 355 277Q355 257 350 245Q359 231 359 209Q359 196 354 186Q359 177 359 161Q359 146 355 138Q365 128 365 106Q365 97 362 89Q375
74 373 59Q378 47 378 39Q378 22 365 11T335 0Q322 0 313 7T300 31Q293 38 289 51T285 76Q285 83 287 91Q276 102 276 130Q276 143 278 148Q269 162 269 172Q269 186 280 197Q266 207 266 228Q266 245 274 254Q260 262 260 296Q260 315 264 326Q259 332 256 344T252
370Q252 384 256 391Q247 409 247 434Q247 449 251 477Q244 496 244 518Q244 538 250 551Q238 563 238 595Q238 610 241 622Q230 616 219 616Q208 616 198 621Q191 617 179 617Q159 617 151 626Q146 621 136 618T115 615Q90 615 81 627Q75 626 65 626Q40 626 28
635T16 659Q16 676 32 691T70 707Q80 707 93 702Q101 711 124 711Q143 711 153 704Q161 711 181 711Q194 711 206 708T225 700Q232 710 262 710Q289 710 296 701Q304 709 324 709Q343 709 348 700Q360 709 383 709Q409 709 423 698Q437 707 455 707Z" />
<glyph unicode="U" glyph-name="U" horiz-adv-x="662" d="M599 502T602 494T605 476Q605 460 598 455Q607 445 607 432Q607 418 595 409Q601 405 601 396Q601 389 597 382T587 369Q590 357 590 350Q590 339 587 329T577 315Q586 308 586 293Q586 282 581 271T566
253Q567 222 546 196Q544 181 535 168T514 152Q515 148 515 140Q515 106 469 90L470 86Q470 78 464 71T451 63Q442 40 403 31Q398 20 387 14T362 8Q347 0 330 0Q309 0 291 14Q281 8 262 8Q239 8 218 18T190 44Q162 50 160 78Q134 99 133 119Q119 120 108 138T97
176Q97 186 100 192Q93 197 89 208T84 232Q84 245 88 256Q78 268 78 281Q78 284 80 292Q70 302 70 325Q70 341 75 351Q67 362 67 379Q67 395 75 406Q66 417 66 435Q66 452 73 460Q65 471 65 489Q65 510 76 521Q66 532 66 561Q66 584 73 594Q63 609 63 622Q63 636
73 651Q68 663 68 671Q68 692 90 705Q100 710 109 710Q126 710 138 697T151 666Q151 660 150 657Q161 646 161 630Q161 615 150 602Q151 598 154 588T157 570Q157 559 151 551Q157 539 157 515Q157 493 151 484Q157 474 157 447Q157 422 151 413Q158 392 158 380Q158
366 151 356Q156 347 154 335Q161 329 165 320T170 299Q170 294 166 282Q174 262 174 250Q174 241 170 234Q175 231 178 224T182 208Q182 201 179 195Q191 194 199 181T206 154Q226 149 234 112Q243 110 259 101T280 84Q291 95 308 95Q321 95 333 89Q337 101 358
110T392 118Q395 131 406 143T432 162Q433 182 445 201T473 228Q472 231 472 239Q472 254 479 271T496 295Q489 305 489 320Q489 334 494 348T505 368Q501 376 501 388Q501 412 515 423Q509 434 509 448Q509 471 519 484Q513 496 513 514Q513 526 517 530Q510 541
510 559Q510 569 513 575Q508 579 505 587T501 604Q501 618 509 624Q494 632 494 654Q494 668 501 678Q499 690 499 693Q499 709 509 717T533 726Q548 726 560 716T573 687Q573 677 569 666Q584 658 584 634Q584 622 582 616Q592 605 592 583Q592 568 587 560Q598
546 598 526Q598 514 594 506Q599 502 602 494Z" />
<glyph unicode="V" glyph-name="V" horiz-adv-x="599" d="M526 717T535 705T544 677Q544 652 525 633Q533 626 533 609Q533 592 526 575T511 554Q521 541 521 520Q521 501 514 485T494 464Q500 454 500 438Q500 425 495 413T481 394Q485 389 485 376Q485 360 478
345T458 322Q466 312 466 299Q466 285 460 272T443 252Q450 238 450 219Q450 198 444 179T428 152Q430 142 430 137Q430 117 413 102Q414 90 408 73T393 45Q395 27 379 14T340 1Q319 1 304 14T287 57Q275 64 268 75T261 100Q261 108 264 115Q252 120 246 131T241
156Q227 171 227 196Q227 207 228 212Q213 221 206 235T198 266Q198 275 199 279Q180 293 180 320Q180 329 181 334Q171 338 165 352T159 381Q151 387 144 404T137 437Q115 445 115 474Q115 481 117 491Q94 507 94 526Q94 532 95 536Q88 543 83 554T78 577Q78 582
80 588Q71 593 66 605T60 631Q60 647 67 651Q55 669 55 683Q55 699 66 709T93 719Q111 719 124 703T139 656Q151 648 158 632T166 599Q166 592 165 588Q174 582 179 573T184 553Q184 542 179 534Q203 518 203 494Q203 489 201 479Q209 475 214 464T220 440Q220
433 219 429Q239 416 239 383Q250 380 261 363T272 326L271 317Q281 309 287 292T291 259Q300 252 303 240T309 209Q320 202 325 191T329 167Q340 153 340 137Q345 140 346 145Q343 194 361 205Q354 215 354 230Q354 243 359 254T372 270Q370 276 370 282Q370 294
374 307T386 324Q383 332 383 340Q383 364 399 376Q394 382 394 395Q394 410 400 426T415 451Q410 466 410 479Q410 507 428 526Q425 535 425 547Q425 567 433 583T456 599Q441 619 441 637Q441 657 458 671Q457 676 457 684Q457 702 466 712T494 723Q499 723 509
721Q526 717 535 705Z" />
<glyph unicode="W" glyph-name="W" horiz-adv-x="854" d="M801 634T801 619Q801 608 798 597T788 580Q788 563 785 552T775 532Q777 524 777 519Q777 506 773 494T761 475Q766 465 766 454Q766 444 762 434T752 416Q756 408 756 396Q756 385 752 374T741 355Q742
350 742 339Q742 317 730 301Q735 289 735 280Q735 262 720 245Q725 230 725 221Q725 202 708 191Q710 188 710 181Q710 170 704 158T691 142Q695 134 695 129Q695 119 690 109T675 98Q679 91 679 81Q679 67 672 55T653 40Q653 21 643 11T619 0Q606 0 595 9T583
35Q575 40 567 56T559 87Q559 96 562 102Q549 107 541 119T532 147Q532 151 534 159Q519 167 510 181T501 211Q501 219 504 228Q473 245 473 284Q473 309 481 325Q457 333 457 361Q457 368 458 371Q449 375 442 392T434 424Q434 435 439 440Q431 442 426 453T420
477Q420 485 423 492Q419 496 417 503Q418 484 411 467T390 441Q395 435 395 424Q395 412 389 399T377 377Q380 370 380 360Q380 347 376 336T363 317Q365 312 365 300Q365 285 360 270T344 245Q347 235 347 225Q347 212 342 201T328 184Q330 165 323 144T300 116Q306
106 306 93Q306 78 298 64T278 43Q277 27 266 14T237 1Q214 1 199 20T183 64Q183 78 189 90Q178 95 172 108T165 135Q165 145 168 152Q161 159 157 171T153 196Q153 208 156 215Q145 221 140 233T134 260Q134 275 139 281Q121 288 121 305Q121 309 125 321Q114
329 114 345Q114 354 118 361Q98 372 100 401Q90 408 86 419T84 441Q70 455 70 473Q70 482 73 489Q68 494 65 502T62 517Q62 525 64 528Q50 538 50 557Q50 571 56 581Q48 584 42 599T35 629Q35 637 39 647Q32 661 32 675Q32 693 42 704T72 715Q92 715 103 695T115
650L114 640Q125 630 132 612T139 576Q139 566 138 562Q150 550 150 536Q150 529 149 524Q154 521 157 514T161 497Q161 487 157 479Q166 466 166 457Q175 452 180 440T185 415Q185 407 184 404Q203 383 203 360Q203 354 202 351Q207 347 211 337T215 317Q215 311
214 309Q225 297 223 269Q234 258 234 243Q234 233 228 224Q233 222 237 205T242 172Q242 188 244 200T252 214Q251 232 256 244T270 259Q268 269 273 287T287 314Q287 334 291 348T303 371Q301 377 301 383Q301 396 306 410T318 426Q317 430 317 442Q317 470 330
476Q328 484 328 491Q328 507 333 523T346 543Q344 553 344 558Q344 570 348 581T360 598Q359 604 359 615Q359 639 374 657Q378 671 388 678T411 685Q428 685 442 674T456 644Q456 635 454 630Q460 627 465 617T470 598Q470 595 468 589Q480 588 487 571T492 543Q509
528 509 504Q509 498 507 488Q514 480 518 467T523 440Q523 433 521 425Q530 421 536 405T543 369Q543 360 542 355Q553 349 559 334T566 304Q566 298 564 292Q574 284 581 255T585 216Q594 211 601 195T611 156Q611 178 614 189T627 217Q623 225 623 237Q623 250
628 262T643 280Q639 287 639 297Q639 310 644 324T656 347Q653 355 653 362Q653 373 661 384Q658 392 658 399Q658 409 664 419T674 436Q668 447 668 462Q668 477 673 490T688 511Q686 527 691 546T705 576Q701 598 701 605Q701 622 711 638Q710 641 710 647Q710
670 724 692T761 715Q801 715 801 676Q801 669 796 641Q801 634 801 619Z" />
<glyph unicode="X" glyph-name="X" horiz-adv-x="567" d="M466 144T475 129T481 106Q489 107 496 95T504 69Q504 64 503 61Q512 49 512 37Q512 22 500 12T472 1Q453 1 437 15T412 62Q393 67 382 90T371 133Q359 137 345 161T333 196Q319 205 311 221T303 261Q292
268 286 284T278 314Q274 295 268 281T248 264Q247 249 242 242T224 226Q228 211 219 198T193 179Q193 167 187 153T170 133Q171 125 163 115T143 100Q145 90 138 79T117 60Q118 58 118 53Q118 45 114 38T103 27Q96 16 85 10T63 3Q40 3 30 25Q26 33 26 42Q26 51
30 59T40 75T50 91Q48 105 55 120T75 140Q83 184 107 186Q105 200 116 214T140 231Q142 258 152 273T183 292Q183 310 191 326T211 343Q210 345 210 351Q210 361 214 370T224 381Q212 386 205 397T199 419Q185 422 173 438T166 467Q156 470 149 481T142 504Q133
507 123 523T116 548Q108 550 100 565T93 594Q78 601 69 620T63 653Q45 667 45 686Q45 700 54 710T77 721Q95 721 106 700Q121 695 134 675T148 637Q160 636 172 617T185 583Q202 575 214 553T229 509Q243 504 256 480T271 443Q274 454 281 467T297 486Q299 509
319 522Q319 536 330 553T353 575Q352 595 361 611T389 636Q388 657 400 671T427 690Q433 707 442 715T463 723Q477 723 487 712T498 686Q498 673 487 657Q486 642 477 626T455 603Q457 586 444 564T413 532Q411 514 402 497T381 475Q381 436 351 421Q352 419 352
413Q352 401 344 390T322 377Q335 376 347 355T359 315Q359 306 357 303Q366 304 377 293T394 266T398 240Q411 241 420 227T430 198Q430 192 427 187Q440 188 450 173T457 144Q466 144 475 129Z" />
<glyph unicode="Y" glyph-name="Y" horiz-adv-x="581" d="M497 731T520 731Q534 731 545 723T556 701Q556 687 541 673Q543 665 543 662Q543 649 534 638T510 623Q514 605 503 592T476 578Q476 563 465 548T437 527Q437 508 412 489Q413 478 407 467T390 451Q383
419 358 416Q360 402 351 386T329 369Q328 359 324 354T313 346T303 339Q308 331 308 317Q308 299 302 291Q309 283 309 272Q309 262 302 246Q309 235 309 222Q309 206 298 192Q314 180 314 161Q314 150 308 130Q319 119 319 102Q319 85 308 74Q314 64 314 51Q314
32 301 16T271 0Q259 0 250 10T237 44Q231 46 228 56T224 77Q224 93 231 99Q225 110 225 121Q225 129 230 151Q214 168 214 190Q214 203 223 219Q218 223 215 233T212 254Q212 272 219 278Q207 287 207 312Q207 334 218 342Q208 345 201 358T193 380Q182 388 177
394T173 412Q161 414 155 424T150 445Q139 450 132 461T125 486Q110 488 102 497T92 519Q79 523 70 534T62 557Q50 562 44 570T34 595Q8 605 6 633Q-6 642 -13 655T-20 683Q-20 700 -11 712T15 724Q34 724 52 709T72 666Q88 670 104 657T120 624Q120 618 119 615Q135
615 145 601T154 570Q170 567 179 557T189 531L188 523Q202 519 214 501T224 463Q237 466 248 450T263 414Q265 423 272 429T288 437Q290 451 297 461T315 472Q313 481 321 491T338 501Q337 512 345 526T362 541Q362 566 384 575Q387 589 395 600T414 611Q413 628
424 646T451 668Q449 686 460 699T483 710Q497 731 520 731Z" />
<glyph unicode="Z" glyph-name="Z" horiz-adv-x="682" d="M592 719T611 719Q627 719 640 708T653 682Q653 667 642 655Q640 642 630 632T606 621Q610 586 557 563Q553 536 543 518T509 499Q509 483 493 462T460 440Q462 431 454 421T433 409Q434 391 417 373T383
352Q383 334 371 319T339 297Q335 287 325 275T303 258Q294 245 288 239T269 231Q272 221 259 206T231 189Q232 185 232 179Q232 164 225 156T209 142T194 132Q194 107 168 88Q173 88 183 90T199 92Q208 92 212 88Q220 96 234 96Q245 96 267 90Q281 97 298 97Q310
97 318 93Q332 103 346 103Q362 103 370 93Q383 106 409 106Q433 106 446 96Q455 107 471 107Q481 107 489 103Q494 108 510 108Q518 108 527 106T540 101Q543 102 548 102Q565 102 577 89T590 59Q590 50 588 46Q582 34 569 28T540 21Q520 21 507 32Q498 28 484
30Q469 18 441 18Q421 18 412 26Q401 12 379 12Q363 12 349 18Q339 9 329 9Q320 9 308 19Q301 13 289 13Q278 13 269 17Q259 9 248 9Q239 9 233 15Q221 9 204 9Q195 9 190 12Q186 5 171 5Q159 5 151 10Q142 7 131 7Q114 7 103 13Q94 10 84 10Q60 10 53 32Q48 42
48 50Q48 68 66 82Q65 98 78 117T108 143Q109 162 122 178T154 205Q153 220 167 238T196 259Q200 271 211 283T233 297Q229 308 245 325T272 340Q277 352 289 364T310 377Q310 388 319 406T342 438T369 453Q368 462 376 478T397 506T421 514Q418 532 435 549T468
570Q466 588 490 606T517 626Q511 622 499 622Q489 622 481 626Q474 621 464 621Q448 621 437 629Q428 616 408 616Q393 616 383 623Q376 616 356 616Q334 616 325 624Q319 617 302 617Q287 617 279 622Q275 617 262 617Q252 617 241 620T222 628Q210 617 188 617Q176
617 165 621T148 630Q135 622 116 622Q96 622 81 632T66 659Q66 696 104 696Q119 696 135 690Q151 698 168 698Q184 698 201 691Q206 695 219 697T244 700Q257 700 264 697Q273 705 295 705Q308 705 322 702T347 693Q350 699 359 702T378 705Q399 705 406 696Q417
706 440 706Q457 706 466 700Q469 703 476 705T490 707Q500 707 503 703Q510 707 523 707Q529 707 539 705Q547 713 557 713Q563 713 581 705Q592 719 611 719Z" />
<glyph unicode="[" glyph-name="bracketleft" horiz-adv-x="319" d="M83 628T83 645Q83 664 94 680T123 696Q128 696 131 695Q142 715 183 715Q198 715 211 713T232 706Q240 710 249 710Q265 710 277 698T289 671Q289 661 280 650Q273 643 260 639T234 634Q218
634 211 640Q205 634 193 634Q184 634 172 639Q175 632 175 620Q175 599 170 592Q176 583 176 570Q176 559 170 543Q176 534 176 524Q176 510 167 501Q172 489 172 480Q172 462 161 448Q168 443 171 429T175 397Q175 363 164 347Q167 340 167 330Q167 324 165 312Q176
301 176 285Q176 274 170 265Q179 243 179 225Q179 210 172 191Q179 178 179 159Q179 142 173 133Q181 122 181 99Q181 78 175 67Q182 59 182 47Q182 42 180 36Q187 28 187 14Q187 7 184 -1Q188 -7 190 -17T191 -37Q200 -44 204 -54Q211 -54 217 -57Q227 -47 242
-47Q255 -47 263 -54Q278 -55 285 -64T293 -86Q293 -102 283 -115T256 -128Q253 -128 245 -126Q236 -134 223 -134Q214 -134 204 -131Q195 -135 184 -135Q172 -135 153 -126Q140 -118 135 -111T130 -99Q123 -96 119 -77T115 -36Q105 -32 100 -23T94 -4Q94 11 105
22Q101 29 99 41T96 65Q96 89 106 98Q98 113 98 139Q98 153 100 169L99 179Q99 192 106 206Q100 216 100 234Q90 251 90 268Q90 277 93 284Q87 295 87 318Q87 343 94 353Q90 371 90 379Q90 391 95 406Q90 416 87 431T84 461Q84 481 89 490Q84 500 84 508Q84 515
89 523Q83 532 83 541Q83 557 97 568Q89 580 89 597Q89 611 91 619Q83 628 83 645Z" />
<glyph unicode="\" glyph-name="backslash" horiz-adv-x="391" d="M31 666T31 675Q31 692 46 704T81 717Q102 717 110 700Q122 684 122 664Q122 658 120 644Q134 635 134 615Q134 604 128 592Q145 583 154 568T163 534Q163 524 160 513Q170 507 176 497T183 475Q183
468 180 460Q194 438 193 417Q205 412 211 401T218 377Q218 373 216 365Q233 345 233 316Q233 303 230 288Q251 268 253 229Q263 221 268 210T280 180Q295 141 295 88Q307 82 316 70T325 42Q325 38 323 28Q331 20 338 -3T345 -44Q345 -50 344 -53Q362 -74 362 -98Q362
-131 320 -142Q307 -145 292 -132T267 -98T256 -60Q256 -51 259 -45Q249 -37 242 -21T234 10Q234 18 237 24Q214 42 204 69T193 125Q193 141 196 156Q184 163 181 170T176 190Q169 196 165 206T161 226Q161 232 162 234Q141 253 141 280Q141 295 147 311Q134 318
127 329T120 353Q120 359 121 362Q105 378 105 401Q105 408 106 412Q97 418 92 429T88 456Q72 467 72 496Q72 507 76 525Q62 532 51 548T40 584Q40 596 44 605Q40 612 37 624T34 647Q34 656 35 659Q31 666 31 675Z" />
<glyph unicode="]" glyph-name="bracketright" horiz-adv-x="300" d="M106 711T113 706Q121 708 127 708Q139 708 148 701T158 680Q165 669 165 655Q165 644 159 633Q172 623 172 601Q172 581 163 569Q166 562 166 555Q166 552 164 546Q176 534 176 509Q176 482
164 471Q170 459 170 450Q170 438 162 424Q168 414 168 404Q168 398 167 394Q168 392 168 388Q168 383 162 372Q174 344 174 320Q174 301 167 288Q173 278 173 267Q173 249 159 237Q167 226 167 211Q167 202 164 193Q176 179 176 157Q176 137 166 127Q168 117 168
114Q168 105 159 96Q175 84 175 62Q175 47 169 36Q171 26 171 16Q171 -9 161 -21Q172 -32 172 -46Q172 -56 164 -69Q170 -81 170 -92Q170 -107 160 -116T136 -124Q129 -131 112 -131Q98 -131 90 -126Q78 -132 63 -132Q51 -132 41 -128Q38 -129 32 -129Q13 -129
1 -114T-12 -79Q-12 -65 -5 -57T19 -48Q23 -48 33 -50Q34 -50 46 -47T74 -43Q82 -43 85 -44Q76 -30 76 0Q76 17 79 23Q75 33 75 38Q75 48 83 57Q72 65 72 96Q72 120 78 126Q76 134 76 138Q76 146 85 158Q72 169 72 186Q72 195 76 202Q70 212 70 231Q70 251 76 266Q70
275 70 287Q70 302 80 311Q78 321 76 340T73 376Q73 395 77 403Q71 414 71 431Q71 445 76 455Q71 467 71 476Q71 487 75 496T86 508Q69 519 69 535Q69 542 74 552Q70 560 70 568Q70 581 81 592Q69 604 69 622Q69 627 71 635Q55 627 33 627Q11 627 -3 637Q-26 646
-26 665Q-26 681 -11 694T25 707Q40 707 51 702Q60 708 69 709T94 711Q106 711 113 706Z" />
<glyph unicode="^" glyph-name="asciicircum" horiz-adv-x="424" d="M99 379T90 390T81 417Q81 434 89 447Q88 450 88 456Q88 469 94 480T111 496Q108 513 108 531Q108 572 129 584Q132 606 143 626T171 661Q169 669 169 675Q169 689 176 700T198 713Q218 716
225 705T236 671Q251 664 255 649T258 620Q267 612 272 596T278 566Q289 560 297 540T304 502Q323 486 326 461Q338 452 338 438Q338 426 328 415Q316 402 305 402Q290 402 278 419T258 455Q249 457 242 467T234 490Q234 494 236 502Q230 514 230 520Q210 532 212
558Q211 561 208 569T203 585Q199 569 190 558Q191 554 191 546Q191 530 182 516Q183 500 177 483T159 450Q160 442 156 428T147 404Q136 379 115 379Q99 379 90 390Z" />
<glyph unicode="_" glyph-name="underscore" horiz-adv-x="617" d="M450 -48T462 -48Q476 -48 482 -51Q498 -51 507 -61T516 -86Q516 -101 507 -113T482 -125Q479 -125 471 -123Q463 -131 447 -131Q437 -131 428 -127T415 -118Q414 -120 411 -120T406 -117Q401
-124 393 -128T376 -133Q367 -133 360 -129Q351 -135 340 -135Q322 -135 311 -121Q309 -126 294 -126Q283 -126 278 -124Q267 -135 249 -135Q234 -135 222 -127Q207 -134 187 -134Q173 -134 155 -129Q140 -137 126 -137Q110 -137 101 -127T91 -102Q91 -88 100 -78T126
-64Q140 -53 161 -53Q173 -53 185 -58Q195 -51 216 -51Q235 -51 251 -57Q262 -47 286 -47Q292 -47 302 -49Q309 -45 320 -45Q338 -45 349 -56Q352 -55 358 -55Q365 -55 369 -57Q383 -45 407 -45Q426 -45 442 -52Q450 -48 462 -48Z" />
<glyph unicode="`" glyph-name="grave" horiz-adv-x="236" d="M30 731T30 755Q30 769 37 777T57 786Q78 786 103 757Q115 753 129 740T149 713Q161 710 173 702T190 683Q204 666 204 652Q204 639 190 629Q179 621 169 621Q161 621 152 626T134 637Q118 637 102
644T83 668Q66 673 60 683T51 710Q30 731 30 755Z" />
<glyph unicode="a" glyph-name="a" horiz-adv-x="465" d="M47 401T47 413Q47 431 59 443Q62 458 73 471T97 492T119 498Q126 509 147 518T186 528Q190 528 198 526Q209 538 227 538Q241 538 247 530Q260 539 281 539Q306 539 325 527T348 495Q366 489 375 477T387
442Q400 429 406 412T412 376Q412 353 404 339Q411 329 416 309T421 270Q421 262 419 250Q426 235 426 230Q426 227 423 216Q424 212 425 207T426 193Q426 178 415 166Q419 155 419 139Q419 118 409 105Q411 101 411 92Q411 71 394 57Q390 43 379 36T355 28Q342
28 334 36Q308 25 292 25Q284 25 280 26Q254 18 236 18Q223 18 200 23Q186 15 173 15Q161 15 151 22Q146 21 136 21Q97 21 76 56Q38 78 38 122Q38 133 39 139Q30 145 30 164Q30 177 35 187Q31 205 31 210Q31 239 59 262Q70 285 84 293T121 305Q127 322 149 328T192
332Q198 336 209 339T231 343Q243 343 252 339Q254 341 262 341Q268 341 274 340T282 337Q296 355 315 355Q321 355 327 352V355Q327 372 334 379Q324 382 313 396T299 423Q283 430 277 446Q265 437 249 437Q238 437 228 443Q211 438 206 439Q192 429 175 429Q160
409 140 411Q131 395 116 383T84 371Q66 371 55 388Q47 401 47 413ZM122 153T122 142Q122 134 118 122Q122 122 129 118T138 108Q146 111 158 111Q180 111 187 101Q198 105 210 105Q229 105 240 94Q248 102 266 107T300 112Q309 130 332 133Q334 140 343 151Q339
157 336 167T333 187Q333 208 343 218Q332 232 332 251Q332 264 336 273Q328 268 318 268Q309 268 303 275Q294 266 278 266Q268 266 258 271Q247 260 231 260Q226 260 216 264Q201 249 189 255Q183 241 174 236T147 231Q143 220 134 213T114 208Q119 201 119 192Q119
177 110 165Q122 153 122 142Z" />
<glyph unicode="b" glyph-name="b" horiz-adv-x="491" d="M200 34T191 31T172 28Q153 28 147 37Q144 20 131 10T100 0Q73 0 61 23Q55 35 55 50Q55 63 61 83Q52 103 52 117Q52 130 57 139Q49 150 49 163Q49 177 58 190Q53 202 53 221Q53 230 55 240Q48 250 48 264Q48
283 60 295Q50 311 50 331Q50 348 58 358Q51 371 51 382Q51 396 61 404Q59 407 52 421T45 448Q45 463 57 476Q55 484 55 488Q55 501 61 508Q55 513 52 524T48 547Q48 566 57 575Q48 584 48 609Q48 629 55 640Q50 653 50 675Q50 695 55 703Q56 721 66 730T91 739Q107
739 120 728T134 701Q134 691 130 683Q135 677 138 665T142 640Q142 621 135 613Q137 609 140 602T143 591Q143 583 137 575Q142 570 145 558T148 532Q148 517 144 508Q166 520 186 520Q196 520 203 517Q210 521 226 521Q256 521 266 512Q274 517 285 517Q304 517
322 508T345 486Q362 481 379 467T404 436Q415 434 426 418T438 385Q438 380 436 374Q446 360 446 329Q446 315 444 310Q447 300 447 277Q447 241 440 228Q447 220 447 203Q447 188 440 174T421 153Q419 140 415 132T401 114Q391 102 384 97T365 89Q358 74 336
63T294 52Q286 52 274 56Q267 47 253 41T224 35Q211 35 203 39Q200 34 191 31ZM161 117T174 121T203 125Q218 125 225 121Q228 127 241 133T267 140Q276 140 284 135Q290 147 308 157T339 168Q337 179 342 194T358 220Q355 229 355 243Q355 259 358 274T366 296Q358
304 354 319T349 349Q349 356 351 364Q332 367 321 399Q295 399 284 423Q277 421 265 424T245 433Q237 422 221 422Q212 422 200 427Q192 411 168 411Q163 411 151 413Q156 404 156 387Q156 374 153 364T144 348Q149 341 149 328Q149 316 144 308Q149 298 149 275Q149
256 146 239T137 215Q143 195 143 184Q143 173 137 162Q141 154 141 142Q141 138 139 126Q140 125 144 122T153 109Q161 117 174 121Z" />
<glyph unicode="c" glyph-name="c" horiz-adv-x="508" d="M339 11T324 6T293 0Q273 0 265 7Q258 4 250 4Q231 4 218 17Q206 12 197 12Q181 12 166 20T144 41Q125 39 107 52T85 84Q55 97 44 154Q38 159 35 169T32 189Q32 196 33 199Q16 233 16 269Q16 302 30 323Q28
333 28 338Q28 355 36 370T56 393Q54 398 54 407Q54 423 64 436T85 453Q89 467 104 479T137 491Q157 521 177 518Q186 530 201 535T230 539Q240 546 252 546Q264 546 276 540Q284 546 298 546Q308 546 317 543T329 536Q337 538 346 533T357 519Q374 519 386 509T405
485T411 464Q428 456 435 438Q442 422 442 410Q442 390 427 379Q417 372 406 372Q388 372 372 387T350 424Q337 426 325 433T306 450Q303 449 291 449Q280 449 276 450Q267 441 256 441Q245 441 235 448Q222 428 197 428Q184 410 174 401T147 393Q148 390 148 384Q148
372 142 363T129 347T117 335Q122 320 122 307Q122 284 108 252Q113 245 116 233T120 208Q120 201 119 198Q126 193 131 181T137 158Q162 150 178 135T195 107Q206 116 219 116Q231 116 242 110T260 94Q265 95 272 95Q287 95 298 85Q302 93 318 102T344 110Q350
120 360 125T383 130Q391 130 394 129Q407 145 429 145Q448 145 462 132T476 100Q476 78 458 64T416 49Q407 49 403 50Q411 48 402 41T375 28T348 22Q339 11 324 6Z" />
<glyph unicode="d" glyph-name="d" horiz-adv-x="490" d="M339 50T326 44T298 38Q291 38 288 39Q283 31 267 23T239 15Q233 15 228 18Q218 16 211 16Q197 16 184 21T163 34Q146 32 132 38T115 56Q104 54 91 65T76 95Q61 103 54 119T47 153Q47 166 50 173Q42 180
37 202T32 250Q32 280 39 294Q34 304 34 317Q34 328 37 338T48 354Q45 359 45 363Q45 370 50 378T61 390Q60 406 69 419T89 436Q88 446 96 460T117 483T145 491Q165 519 200 519Q215 519 223 515Q234 520 250 520Q266 520 285 512Q291 515 300 515Q310 515 319
512T332 502Q331 506 331 514Q331 530 339 542Q332 554 332 566Q332 572 333 575Q332 580 329 588T326 603Q326 611 330 619Q325 629 325 639Q325 650 331 660Q324 674 324 689Q324 709 335 725T367 741Q384 741 396 729T409 700Q409 694 408 691Q423 679 423 658Q423
647 416 635Q419 628 419 620Q419 609 414 599Q419 589 419 578Q419 564 412 554Q422 542 422 531Q422 523 416 514Q419 508 419 499Q419 492 416 484Q424 473 424 460Q424 450 419 440Q425 430 425 416Q425 393 414 384Q424 372 424 348Q424 334 421 320T414 300Q424
285 424 262Q424 251 419 241Q430 230 430 208Q430 184 420 169Q430 156 430 132Q430 116 426 104T414 87Q415 80 419 66Q424 44 424 38Q424 22 414 12Q402 0 386 0Q373 0 363 9T350 35Q345 40 343 48T341 59Q339 50 326 44ZM219 105T234 105Q241 105 246 104T254
103Q255 110 266 115T289 121Q296 121 301 118Q300 128 305 134T318 145T331 154Q329 158 329 172Q329 202 336 209Q329 216 329 237Q329 261 336 279Q330 292 330 323Q330 353 334 363Q325 381 325 404Q325 422 329 430Q323 426 312 429T293 440Q289 434 277 434Q269
434 261 436T250 442Q234 435 219 435Q215 435 207 437Q194 423 187 417T168 410Q165 403 162 394T155 378T141 368Q139 355 131 347Q132 343 132 336Q132 326 127 314Q130 307 130 283Q130 237 122 228Q123 224 129 209T135 180Q135 169 131 160Q151 152 156 132Q166
129 175 119Q199 120 216 98Q219 105 234 105Z" />
<glyph unicode="e" glyph-name="e" horiz-adv-x="493" d="M466 386T475 367T485 328Q485 294 455 282Q447 268 434 260T404 252Q391 252 377 258Q369 253 355 249T327 245Q303 245 294 255Q284 247 262 247Q246 247 233 253Q219 246 201 246Q184 246 173 251Q163
242 132 242Q115 242 109 245Q112 216 101 202Q120 183 116 161Q117 160 127 153T141 130Q152 130 161 121T173 103Q177 107 189 107Q198 107 205 104T213 97Q220 101 229 101Q242 101 253 92Q263 94 268 94Q278 94 285 91Q288 99 301 106T328 113Q336 123 350
129T378 135Q405 135 417 113Q421 105 421 94Q421 70 399 56Q394 53 382 46T360 34T342 30Q327 12 301 12Q289 12 283 14Q271 4 248 4Q227 4 219 12Q212 9 205 9Q191 9 179 19Q128 16 110 51Q96 51 79 68T59 99Q36 108 30 132Q29 140 30 147Q26 148 24 155T21 171Q21
177 22 179Q14 203 14 223Q14 243 22 259Q16 270 16 283Q16 299 23 315T36 336Q34 341 39 353T52 376T70 389L69 400Q69 439 111 449Q111 466 131 482T166 496Q168 507 185 513T212 517Q220 530 244 535Q253 545 270 545Q275 545 283 543L292 544Q304 544 312 540T320
529Q342 527 357 519T375 490Q388 493 408 484T442 455T457 409Q457 403 455 391Q466 386 475 367ZM318 340T357 340Q379 340 391 336Q383 340 377 353T370 379Q370 387 373 391Q359 390 350 398T333 418T321 434Q316 431 301 439T284 457Q280 452 267 449T247
446Q244 441 233 436T210 433Q200 414 189 402T161 384Q159 370 149 353T127 327L131 326Q145 336 169 336Q183 336 195 333T213 326Q237 341 266 341Q290 341 308 326Q318 340 357 340Z" />
<glyph unicode="f" glyph-name="f" horiz-adv-x="406" d="M47 427T36 439T24 467Q24 487 39 497T76 508Q93 508 103 502L105 503Q99 517 99 546Q99 562 102 568Q100 584 100 592Q100 624 116 643Q121 658 134 671T162 688Q165 699 186 712T228 724Q234 734 261
734Q286 734 296 729Q305 735 320 735Q345 735 368 722T391 690Q391 673 377 662T343 650Q327 650 316 657Q306 651 295 651Q284 651 275 657Q272 651 260 649T239 648Q224 623 204 623Q204 608 201 592T189 570Q197 559 197 538Q197 521 190 511Q194 512 201 512Q217
512 230 502Q239 507 256 507Q273 507 281 502Q298 501 306 492T315 468Q315 451 304 437T276 422Q269 422 257 427Q248 421 233 421Q222 421 206 425Q202 420 193 416Q195 410 195 405Q195 390 183 378Q184 375 184 368Q184 362 183 359Q195 347 195 330Q195 323
192 315Q202 302 202 276Q202 263 198 255Q206 244 206 223Q206 210 201 198Q207 188 207 177Q207 164 200 154Q210 130 210 117Q210 102 199 91Q200 87 205 70T210 37Q210 -2 167 1Q146 2 133 31T119 92Q119 113 126 123Q117 143 117 157Q117 167 121 175Q115
184 115 195Q115 209 123 220Q115 225 111 234T106 253Q106 272 120 284Q111 290 111 319Q111 330 113 339T120 352Q113 359 109 371T104 394Q104 409 110 419Q100 417 94 417Q76 417 64 426Q47 427 36 439Z" />
<glyph unicode="g" glyph-name="g" horiz-adv-x="503" d="M327 -88T334 -77T348 -65Q346 -57 346 -50Q346 -37 350 -26T363 -8Q362 -4 362 3Q362 16 367 27T378 43Q318 13 303 20Q277 14 261 14Q240 14 232 21Q223 16 208 16Q188 16 170 25T144 50Q117 52 94 78T69
140Q51 146 42 167T32 215Q32 244 43 258Q36 263 32 281T27 321Q27 367 50 383Q47 388 51 403T64 434T82 453Q81 462 89 473T108 490T125 494Q129 511 142 518T175 529Q180 544 197 551T238 559Q261 559 281 553T312 536Q322 544 342 544Q373 544 380 519Q388 522
396 522Q413 522 426 510T439 480Q439 471 437 467Q447 453 452 441T456 417Q459 408 459 401Q459 385 451 377Q452 374 452 369Q452 358 444 345Q451 335 451 323Q451 311 444 301Q446 283 446 277Q449 252 449 243Q449 238 447 230Q455 219 455 198Q455 177 448
166Q463 138 463 123Q463 111 456 101Q460 94 460 85Q460 75 454 63Q460 54 460 35Q460 14 450 -2Q455 -3 452 -14T442 -37Q447 -47 447 -55Q447 -67 440 -78T422 -95Q409 -132 385 -138Q386 -150 376 -161T355 -175Q350 -197 317 -197Q310 -206 295 -211T260 -216Q223
-216 204 -197Q191 -196 179 -188T161 -167Q146 -166 136 -155T124 -129Q116 -116 116 -106Q116 -89 130 -78T162 -66Q174 -66 183 -72T198 -92Q219 -97 226 -115Q243 -117 253 -127Q256 -122 266 -120T287 -117Q298 -117 304 -120Q304 -112 312 -105T329 -96Q327
-88 334 -77ZM292 108T310 108Q325 108 331 104Q334 108 346 116T372 129Q360 141 360 174Q360 196 366 214Q358 230 358 244Q358 257 363 265Q359 272 359 284Q359 301 366 314Q360 325 360 341Q360 348 362 356Q353 368 353 390Q353 405 358 417Q352 421 348
431T343 451Q331 450 319 454T303 467Q290 460 277 460Q258 460 238 474Q234 466 217 456T188 444Q187 434 179 426T157 414Q157 405 150 390T134 369L135 354Q135 335 131 319T116 300Q123 294 127 282T131 255Q131 233 124 220Q132 216 140 205T148 179Q148 172
145 163Q150 160 158 144T167 123Q182 122 196 117T217 102Q232 111 246 111Q265 111 283 97Q292 108 310 108Z" />
<glyph unicode="h" glyph-name="h" horiz-adv-x="469" d="M136 41T136 33Q136 16 124 8T90 0Q68 0 57 14T45 49Q45 66 53 76Q41 88 41 112Q41 138 57 153Q44 166 44 187Q44 208 56 227Q53 236 53 248Q53 263 56 273Q47 284 47 297Q47 309 53 318Q49 325 49 334Q49
342 52 349Q41 363 41 382Q41 397 49 410Q46 418 46 426Q46 431 48 439Q41 449 41 468Q41 486 48 496Q42 508 42 523Q42 537 49 548Q41 564 41 578Q41 595 49 608Q42 616 42 632Q42 644 46 658Q42 672 42 681Q42 693 48 700Q47 717 58 728T85 739Q93 739 105 734Q116
728 122 712T129 678Q129 660 122 646Q129 633 129 618Q129 601 119 579Q128 563 128 545Q128 534 124 527Q135 519 135 503Q135 494 129 483Q135 481 136 468T138 453Q143 466 156 473T179 479Q183 491 194 497T217 504Q222 504 230 502Q238 510 254 510Q265 510
272 506Q277 509 285 509Q295 509 305 504Q313 507 320 507Q333 507 342 498Q351 500 366 490T382 467Q400 452 400 435Q400 429 397 424Q403 420 407 411T411 392Q411 385 410 381Q422 372 422 353Q422 339 415 327Q424 313 424 301Q424 294 421 286Q426 273 426
256Q426 236 419 223Q422 216 422 193Q422 164 418 155Q425 145 425 124Q425 100 416 89Q422 80 422 63Q422 43 415 29Q416 18 403 10T373 2Q359 2 351 9T343 29Q332 46 332 67Q332 85 338 101Q333 116 333 137Q333 159 338 169Q334 175 334 188Q334 203 339 211Q332
222 332 237Q332 248 337 253Q328 267 328 283Q328 294 332 299Q321 307 321 327Q321 343 328 350Q310 365 310 383Q310 393 314 401Q307 399 298 405T286 420Q276 415 261 415Q255 415 253 416Q249 410 238 406T220 403Q212 395 200 387T183 380Q181 371 170 359T149
346Q151 338 151 333Q151 320 142 295Q150 284 150 272Q150 261 143 249Q145 245 145 236Q145 227 141 215Q143 208 143 199Q143 189 135 176Q146 171 146 147Q146 135 143 122T135 101Q141 91 141 78Q141 65 131 56Q136 41 136 33Z" />
<glyph unicode="i" glyph-name="i" horiz-adv-x="178" d="M49 707T41 696T33 673Q33 657 46 641Q44 628 60 616T95 604Q108 604 118 611Q146 626 146 649Q146 664 134 683Q135 703 123 714T93 726Q74 726 62 713Q49 707 41 696ZM135 268T139 252T144 217Q144 195
137 188Q143 173 143 159Q143 141 134 129Q141 112 141 89Q141 70 135 58Q138 49 138 41Q138 23 125 13T94 2Q77 2 65 12T54 41Q49 47 46 60T43 87Q43 113 54 121Q46 134 46 160Q46 186 53 198Q49 202 47 217T45 250Q45 267 47 280T53 298Q47 304 47 331Q47 362
54 376Q49 384 45 397T41 421Q41 431 43 435Q35 461 35 477Q35 494 43 512Q41 527 50 535T76 543Q122 543 122 487Q131 481 135 471T140 447Q140 426 130 411Q134 405 136 393T139 369Q139 353 134 347Q138 342 138 326Q138 311 135 294T127 271Q135 268 139 252Z"
/>
<glyph unicode="j" glyph-name="j" horiz-adv-x="230" d="M53 665T53 683Q53 712 81 724Q94 729 103 729Q124 729 137 714T150 679Q150 668 146 661Q150 654 150 643Q150 633 145 624T130 609Q119 599 104 599Q86 599 74 613T62 649Q53 665 53 683ZM6 -106T-10
-124T-27 -162Q-27 -169 -24 -175Q-10 -201 22 -201Q47 -201 69 -187Q85 -178 93 -171T103 -151Q121 -133 125 -124T129 -90Q140 -87 146 -79T152 -59Q152 -53 151 -50Q169 -30 169 -8Q169 11 156 25Q168 39 168 55Q168 62 163 74Q168 78 171 87T174 106Q174 127
165 136Q169 143 169 156Q169 179 161 195Q169 211 169 223Q169 238 159 248Q166 258 166 274Q166 294 158 307Q164 319 164 331Q164 343 156 354Q161 365 161 378Q161 389 153 413Q156 431 156 445Q156 460 152 476Q148 491 135 500T107 509Q97 509 87 504Q56
488 56 461Q56 450 60 438Q51 422 51 404Q51 385 64 366Q58 354 58 344Q58 323 73 310Q69 308 67 301T64 284Q64 275 67 268T76 256Q66 247 66 228Q66 217 69 207T78 192Q70 185 70 171Q70 162 73 156Q63 145 63 129Q63 117 69 111Q62 97 62 79Q62 63 68 49Q60
41 60 24Q60 5 68 -1Q56 -16 59 -36Q51 -45 47 -55T45 -74Q38 -75 30 -86T24 -104Q6 -106 -10 -124Z" />
<glyph unicode="k" glyph-name="k" horiz-adv-x="417" d="M403 29T403 23Q403 9 390 -1T359 -12Q349 -12 340 -7T325 10Q314 15 305 31T297 60Q279 64 272 76T263 111Q249 119 240 131T233 157Q218 160 207 176T196 209Q176 214 169 260Q168 253 162 247T149 240Q147
230 142 223T130 216Q131 205 127 195T115 177Q118 171 118 160Q118 145 114 141Q126 128 126 116Q126 109 119 98Q126 85 126 75Q126 65 124 59Q128 50 128 39Q128 21 114 9T83 -4Q55 -4 48 27Q38 39 38 56Q38 64 41 71Q33 84 33 103Q33 119 38 131Q31 141 31
166Q31 197 38 216Q30 226 30 238Q30 254 40 264Q28 276 28 294Q28 303 33 313Q26 324 26 335Q26 345 31 353Q27 358 27 376Q27 395 31 404Q27 424 27 426Q27 433 35 451Q20 471 20 490Q20 502 24 511Q17 521 17 535Q17 542 19 552Q13 561 13 575Q13 590 20 602Q10
620 10 634Q10 646 17 657Q12 667 12 682Q12 706 26 723T64 737Q72 734 82 720T92 690L91 682Q107 670 107 650Q107 636 98 625Q113 607 113 588Q113 571 102 559Q112 545 112 525Q112 507 106 493Q113 489 117 478T122 452Q122 427 109 414Q119 404 119 390Q119
380 116 370T111 357Q118 350 122 320L123 319Q127 333 141 345T163 358Q166 371 183 389T213 407Q214 416 227 427T250 438Q256 453 270 465T294 474Q294 491 303 499T328 508Q345 508 358 498T372 473Q372 463 365 452Q359 430 348 422T321 411Q323 397 310 381T280
366Q278 351 263 336T231 322Q257 308 257 283Q257 274 254 263Q264 261 272 252T278 231Q292 225 303 208T316 174Q326 170 331 161T336 139Q336 132 335 128Q351 124 361 108T375 74Q385 73 394 59T399 36Q403 29 403 23Z" />
<glyph unicode="l" glyph-name="l" horiz-adv-x="238" d="M174 114T174 91Q174 76 170 63T158 43Q161 24 148 12T117 0Q105 0 94 6Q83 12 78 26T73 56Q73 78 80 91Q75 100 75 117Q75 136 81 156Q74 164 74 185Q74 212 82 225Q76 239 76 252Q76 270 85 288Q77 309
77 326Q77 340 83 358Q73 369 73 386Q73 393 74 396Q63 409 63 426Q63 437 69 447Q62 463 62 478Q62 502 74 514Q68 528 68 548Q68 564 73 571Q68 574 65 582T62 600Q62 617 70 628Q67 636 67 649Q67 659 69 667Q57 679 57 695Q57 712 71 724T104 737Q116 737 126
730T140 707Q155 697 155 676Q155 672 153 664Q165 652 165 633Q165 617 155 608Q160 604 164 595T168 574Q168 556 155 544Q163 533 163 517Q163 501 157 491Q161 487 161 471Q161 462 159 452T153 438Q168 425 168 405Q168 394 164 386Q170 377 170 359Q170 336
162 322Q169 308 169 285Q169 257 160 245Q167 235 167 220Q167 207 161 189Q170 179 170 158Q170 140 164 125Q174 114 174 91Z" />
<glyph unicode="m" glyph-name="m" horiz-adv-x="888" d="M500 59T500 48Q500 27 486 15T452 2Q433 2 420 14T407 49Q407 64 412 78Q401 91 397 98T393 114Q393 121 398 138Q387 150 387 172Q387 195 397 209Q393 219 390 230T386 253Q386 274 398 295Q386 329
386 345Q386 355 388 360Q374 368 363 380T352 407Q343 410 339 415T329 429Q306 429 293 434Q290 426 270 420T237 416Q234 401 219 391T187 381Q189 378 189 371Q189 356 179 337T160 311Q172 289 172 268Q172 251 163 239Q176 233 176 216Q176 206 170 198Q184
187 184 154Q184 133 179 125Q192 109 192 89Q192 68 177 51Q178 27 167 14T138 1Q123 1 112 12T100 43Q100 51 101 55Q82 67 82 111Q82 141 91 159Q86 168 82 191T77 235Q77 253 81 261Q68 284 68 314Q68 345 80 369Q61 398 61 425Q61 441 69 460Q55 475 55 492Q55
509 69 521T103 533Q120 533 133 521T148 484Q153 477 157 456T160 424Q165 444 179 463Q200 486 222 487Q229 501 247 509T286 518Q297 518 302 517Q310 519 313 519Q326 519 335 507Q342 512 353 512Q363 512 371 509T384 500Q407 499 409 476Q423 469 423 460Q423
455 420 447Q430 448 435 440T444 417Q446 434 455 442T476 450Q481 450 489 448Q494 462 503 470T523 479Q526 479 534 477Q539 491 551 499T577 507Q585 507 594 504Q619 522 646 522Q676 522 697 503Q703 505 708 505Q728 505 748 492T768 460Q774 463 780 463Q796
463 811 450T826 421Q826 414 822 407Q832 404 836 392T841 363Q841 352 839 344T833 333Q845 326 845 311Q845 298 835 287Q842 277 842 264Q842 243 826 229Q838 216 838 198Q838 184 830 173Q833 164 833 156Q833 143 827 130T819 114Q826 104 826 90Q826 68
810 55Q811 52 811 45Q811 26 798 15T765 4Q745 4 732 16T720 51Q716 63 716 70Q716 87 729 102Q727 107 727 119Q727 134 733 147Q731 153 731 156Q731 164 735 174T741 186Q735 198 735 211Q735 227 744 234Q737 241 737 251Q737 262 746 277Q736 287 736 304Q736
321 746 334Q740 339 740 359Q740 375 742 389Q733 388 724 396T715 415Q708 413 690 420T670 434Q667 433 662 433Q654 433 638 439Q619 419 594 423Q585 414 570 406T542 397Q540 388 536 385T524 381T513 378Q513 361 497 356Q501 345 501 335Q501 327 498 314T493
293Q494 290 494 283Q494 272 486 260Q488 252 488 247Q488 240 484 228Q492 210 492 197Q492 185 488 173Q498 160 498 134Q498 122 495 113Q505 103 505 88Q505 76 497 69Q500 59 500 48Z" />
<glyph unicode="n" glyph-name="n" horiz-adv-x="566" d="M257 417T249 409T228 399Q221 379 191 375Q192 358 184 347T166 333Q166 307 155 279Q157 271 157 265Q157 245 149 229Q154 219 154 206Q154 189 148 171Q157 159 157 144Q157 135 152 123Q155 117 155
104Q155 82 146 72Q150 58 150 50Q150 42 147 36Q147 19 134 10T103 0Q86 0 74 9T62 36Q59 45 59 55Q59 76 66 95Q57 107 57 121Q57 130 62 142Q55 153 55 167Q55 177 59 185T69 198Q55 214 55 235Q55 255 68 269Q64 274 61 284T58 304Q58 317 64 323Q56 341 56
364Q56 384 62 391Q53 411 53 429Q53 449 62 458Q46 477 46 500Q46 528 70 541Q82 547 94 547Q113 547 126 532T139 495Q139 484 134 472Q147 459 147 439Q147 425 145 416Q153 445 168 450Q168 469 180 485T208 509T236 514Q261 541 290 541Q303 541 313 536Q322
543 340 543Q355 543 368 538T385 521Q421 519 436 491Q449 490 461 476T474 444Q474 436 469 424Q492 415 492 389Q492 380 491 376Q504 369 509 362T515 343Q515 331 509 311Q521 302 521 281Q521 259 510 248Q519 233 519 211Q519 189 509 176Q515 146 515 134Q515
113 506 105Q514 87 514 70Q514 47 503 36Q504 20 490 10T457 0Q443 0 433 7T423 27Q415 46 415 70Q415 107 433 124Q426 133 421 153T415 192Q415 217 425 223Q417 238 417 254Q417 272 428 298Q419 305 413 319T407 346Q407 350 409 358Q398 367 390 387T382
423Q373 424 364 429T350 443H339Q322 443 315 450Q307 440 289 433T256 428H255Q257 417 249 409Z" />
<glyph unicode="o" glyph-name="o" horiz-adv-x="537" d="M308 0T283 0Q264 0 252 6Q234 2 220 2Q181 2 164 22Q160 21 153 21Q130 21 118 42Q108 41 93 52T79 75Q63 79 53 94T43 130Q32 134 26 146T20 173Q20 189 25 196Q14 213 14 235Q14 258 28 272Q17 280
17 296Q17 306 22 316T35 330Q33 344 38 356T54 375Q52 378 52 384Q52 393 58 402T73 413Q72 416 72 421Q72 442 88 457T119 471Q119 485 131 494T164 504Q173 504 178 503Q185 518 202 527T237 537Q249 537 257 532Q271 544 292 544Q309 544 322 536T339 514Q355
514 373 503T394 479Q418 472 440 449T463 401Q463 397 461 389Q504 380 500 302Q509 287 509 270Q509 250 496 230Q499 221 499 213Q499 201 494 190T481 173Q482 157 476 147T452 120Q453 116 453 108Q453 78 419 69Q416 53 403 43T370 33Q354 11 331 11Q324
11 320 12Q308 0 283 0ZM234 89T253 89Q267 89 268 85Q276 94 288 99T310 103Q327 120 347 120Q354 120 357 119Q356 128 362 136T376 148Q376 161 382 170T399 185Q399 205 407 217Q404 225 404 233Q404 244 409 254T423 272Q413 281 413 294Q413 306 420 318Q400
330 394 341T387 384Q378 383 369 394T357 419Q346 416 331 425T315 450Q307 446 296 446Q275 446 262 461Q251 450 234 444T203 439Q202 429 186 416T156 398Q159 392 159 384Q159 374 154 364T140 347Q141 333 134 320T113 302Q115 294 115 289Q115 275 108 267Q111
260 111 253Q111 242 100 229Q125 212 125 180Q125 163 119 151Q129 150 133 145T140 129Q165 126 177 105Q188 105 204 98T226 82Q234 89 253 89Z" />
<glyph unicode="p" glyph-name="p" horiz-adv-x="472" d="M424 346T424 324Q424 319 422 311Q427 309 430 293T433 256Q433 226 426 218Q429 211 429 202Q429 181 411 167Q414 161 414 151Q414 135 407 116T391 88Q391 72 374 53T340 31Q333 20 318 13T287 6Q274
6 265 10Q255 4 239 4Q226 4 214 8T195 18Q187 16 181 16Q161 16 152 25Q151 20 150 11T144 -4Q150 -13 150 -27Q150 -49 139 -60Q145 -65 149 -75T153 -97Q153 -114 143 -123Q148 -138 148 -154Q148 -177 136 -189T108 -202Q93 -202 81 -192T63 -163Q60 -159 58
-150T56 -129Q56 -105 64 -102Q54 -83 54 -57Q54 -35 62 -14Q53 -5 53 16Q53 34 61 44Q59 51 55 61T51 80Q51 87 56 97Q50 109 50 118Q50 127 56 140T64 158Q55 172 55 202Q55 229 62 239Q48 269 48 286Q48 303 57 313Q53 321 53 331Q53 341 59 350Q52 361 52 382Q52
409 62 420Q51 448 51 475Q51 498 59 509Q58 512 58 518Q58 535 72 546T104 558Q117 558 126 551T139 530L144 527Q151 537 163 541T189 544Q198 556 223 556Q239 556 252 553Q258 555 263 555Q273 555 283 551T296 541Q309 541 315 539T330 527Q338 527 344 523T353
512Q362 511 365 507T372 494Q392 475 394 431Q405 425 410 411T416 381Q416 368 412 356Q424 346 424 324ZM269 102T281 110T304 121Q304 144 321 165Q318 180 318 183Q318 206 337 222Q334 240 334 264Q334 277 336 283Q326 291 320 311T313 352Q313 365 316
374Q308 382 304 399T301 430Q293 433 284 441T269 456Q262 456 256 459T242 466Q237 462 218 462Q203 462 198 464Q181 453 164 453Q152 453 141 460Q150 445 150 422Q150 399 143 385Q151 374 151 345Q151 320 144 310Q152 296 152 263Q152 235 144 222Q151 209
151 185Q151 163 145 151Q151 142 151 123Q151 116 149 108Q161 110 182 105T214 91Q220 93 239 93Q259 93 264 91Q269 102 281 110Z" />
<glyph unicode="q" glyph-name="q" horiz-adv-x="468" d="M29 248T29 271Q29 287 33 296Q27 314 27 326Q27 344 37 360Q36 364 36 372Q36 391 52 415Q57 424 62 429T76 435Q78 447 93 458Q94 469 105 481T133 494Q142 518 175 531Q189 537 208 537Q213 544 234
550Q257 555 276 555Q316 555 350 535Q362 558 384 558Q396 558 405 551T420 528Q422 520 422 518Q422 512 420 505T419 492Q419 483 420 474T422 456Q422 447 419 438Q428 428 428 410Q428 397 423 384T409 362Q426 350 426 328Q426 312 415 299Q417 294 417 287Q417
280 412 270T405 254Q417 242 417 224Q417 211 412 203Q417 195 420 182T423 156Q423 140 419 129Q428 130 438 117T448 90Q448 84 447 81Q452 63 436 52T406 41Q410 19 410 12Q410 4 407 -7Q413 -21 413 -45Q413 -70 408 -80Q418 -97 418 -127Q418 -152 410 -171T383
-193Q375 -195 372 -195Q356 -195 347 -180T337 -144Q337 -131 339 -124Q331 -118 327 -105T322 -78Q322 -57 332 -47Q328 -31 328 -10Q328 4 331 14Q321 7 312 7Q306 7 298 12Q285 0 268 0Q252 0 237 10Q234 9 228 9Q210 9 189 18T158 41Q111 52 96 91Q80 94 68
103T52 129Q38 146 38 167Q38 175 41 182Q32 197 32 211Q32 226 39 238Q29 248 29 271ZM241 455T223 448T190 443Q186 432 181 427T162 412Q153 393 124 370Q127 345 105 325Q110 313 110 297Q110 285 106 271Q112 264 115 252T119 228Q119 213 113 202Q120 191
118 178Q131 169 143 157T159 132Q187 127 204 102Q213 105 222 105Q235 105 252 98Q260 103 270 103Q283 103 297 96Q314 108 329 108Q329 112 332 118T339 128Q324 147 324 160Q324 170 331 183Q326 193 326 203Q326 213 331 223Q325 234 325 249Q325 269 332
285Q326 296 326 307Q326 321 334 332Q329 342 329 356Q329 375 344 407Q340 412 340 438Q340 461 343 467Q335 465 329 465Q310 465 302 472Q295 468 285 468Q276 468 273 471Q262 464 251 464Q245 464 242 465Q241 455 223 448Z" />
<glyph unicode="r" glyph-name="r" horiz-adv-x="357" d="M139 25T127 13T96 0Q80 0 68 10T56 40Q56 52 62 67Q56 81 56 96Q56 108 61 116Q55 120 52 128T49 146Q49 156 53 168Q44 179 44 194Q44 213 58 225Q57 228 57 235Q57 245 59 249Q48 263 48 289Q48 307
55 317Q48 323 43 333T38 355Q38 367 45 378Q40 390 40 399Q40 414 49 427Q37 439 37 452Q37 462 44 479Q37 493 37 509Q37 530 52 535Q53 549 62 558T84 567Q99 567 110 553T122 511Q122 500 121 493Q125 495 129 499T139 506T157 508Q159 513 170 518T193 523Q201
523 204 521Q212 525 220 525Q232 525 246 508Q270 510 281 497Q297 498 309 493T328 472Q347 460 347 440Q347 423 333 409T301 394Q282 394 269 414Q258 414 252 416T240 425Q234 423 230 423Q221 423 211 428Q197 419 181 420Q175 406 150 406Q151 403 151 396Q151
383 146 371T132 352Q140 333 140 314Q140 297 132 288Q135 284 138 278T144 267Q146 259 146 255Q146 248 141 236Q146 224 146 218Q146 210 139 196Q145 186 145 174Q145 160 138 150Q145 134 145 117Q145 104 139 93Q144 83 144 73Q144 59 135 47Q139 25 127
13Z" />
<glyph unicode="s" glyph-name="s" horiz-adv-x="447" d="M411 108T411 98Q411 78 395 71Q397 56 383 41T357 26Q352 17 327 9T281 1Q266 1 258 7Q244 0 218 0Q195 0 177 7T154 28Q134 25 110 40T78 71Q60 76 49 90T36 123Q30 132 30 141Q30 155 39 166T62 177Q75
177 87 161Q105 163 119 149T134 121Q137 121 149 120T172 112T186 95Q204 95 221 91T242 80Q250 85 265 88T292 92Q295 96 307 100T327 105Q322 112 322 126Q322 147 335 156Q323 160 316 168T310 188Q302 186 298 186Q279 186 267 201Q247 199 228 210T199 239Q192
236 184 236Q167 236 149 246T125 267Q111 263 92 276T73 305Q61 311 54 325T47 352Q47 361 51 364Q46 374 46 384Q46 402 58 415Q55 426 55 435Q55 452 62 463T81 473Q79 489 88 501T112 518T138 522Q144 531 154 536T174 541Q191 541 198 531Q199 536 205 539T221
542Q229 542 237 539T249 532Q255 538 270 538Q282 538 294 534T310 521Q316 524 323 524Q335 524 345 516T360 494Q375 496 391 484T403 460Q430 445 430 419Q430 403 419 391T391 379Q376 380 366 387T354 404Q341 406 330 414T317 437Q298 435 289 441T272 460Q265
455 254 455Q243 455 230 461Q223 455 213 451T192 447Q181 447 173 452Q175 440 167 433T145 428Q148 421 148 413Q148 395 132 383Q143 378 148 367T152 344L160 345Q190 345 198 326L206 327Q222 327 236 319T258 292Q274 293 289 289T310 272Q318 275 325 275Q342
275 355 265T370 242Q379 242 386 232T392 209Q399 210 405 202T411 182Q411 176 408 171Q422 161 422 144Q422 135 419 128T408 118Q411 108 411 98Z" />
<glyph unicode="t" glyph-name="t" horiz-adv-x="403" d="M341 91T345 93T356 96Q360 97 366 97Q383 97 393 85T404 55Q404 42 397 33T376 19Q355 1 326 4Q318 -3 305 -3Q287 -3 272 10Q262 12 248 20T234 36Q220 38 206 52T195 86Q184 98 182 111Q170 117 165
129T161 154Q148 166 148 190Q148 199 150 213Q136 224 136 243Q136 260 147 271Q135 283 135 302Q135 309 139 319Q133 331 133 343Q133 359 142 368Q136 380 136 394Q136 406 139 415T148 430Q137 443 137 458Q137 466 140 475Q131 472 120 472Q103 472 95 479Q83
476 74 476Q56 476 37 487Q27 481 16 481Q0 481 -10 494T-21 525Q-21 540 -12 550T16 562Q28 567 38 567Q58 567 73 557Q86 562 102 562Q116 562 124 557Q125 561 132 564T145 567Q141 576 141 591Q141 609 149 610Q142 620 142 639Q142 665 155 675Q154 695 163
705T186 715Q200 715 212 706T224 681Q224 671 216 658Q226 649 226 628Q226 619 224 610T217 595Q223 591 223 579Q223 569 218 552Q227 555 237 555Q252 555 260 548Q270 553 276 553Q286 553 292 545Q299 550 309 550Q323 550 331 539Q350 539 359 531T369 509Q369
493 357 479T328 464Q319 464 310 470Q300 462 284 462Q269 462 259 469Q246 464 240 464Q232 464 221 471Q230 459 230 445Q230 430 218 418Q227 406 227 388Q227 372 218 358Q230 350 230 332Q230 317 221 306Q231 295 231 267Q231 255 228 247Q235 237 235 226Q235
220 233 211T229 195Q241 181 241 168Q258 155 258 137Q278 126 278 100Q280 97 282 96T285 94L292 95Q307 95 316 86Q324 88 329 88Q332 88 340 86Q341 91 345 93Z" />
<glyph unicode="u" glyph-name="u" horiz-adv-x="503" d="M221 13T211 13Q197 13 188 23Q177 22 164 32T147 53Q135 56 126 66T113 93Q101 96 94 109T86 141Q86 152 89 162Q82 173 84 190Q70 202 70 218Q70 226 73 233Q67 242 67 254Q67 269 76 281Q62 293 62
311Q62 322 68 330Q59 343 59 361Q59 375 65 382Q55 390 55 406Q55 416 61 428Q56 436 56 451Q56 473 68 485Q65 494 65 502Q65 520 77 530T107 541Q124 541 136 530T149 498Q149 482 142 464Q156 452 156 433Q156 419 147 408Q153 397 153 379Q153 360 147 348Q156
336 156 311Q156 294 154 288Q162 279 162 265Q162 257 158 247Q168 236 168 217Q168 211 166 205Q170 202 173 195T176 179Q176 169 171 162Q179 161 182 152T183 133H184Q191 133 196 126T200 112Q203 114 209 114Q217 114 223 111T233 102Q253 113 271 113Q280
113 287 110Q296 117 310 122T336 128Q341 128 345 126Q338 137 338 154Q338 173 350 178Q343 186 343 212Q343 243 356 256Q347 271 347 289Q347 305 353 311Q347 319 347 331Q347 343 351 356T363 378Q350 387 350 417Q350 436 353 448Q344 468 344 482Q344 500
356 511T384 522Q403 522 416 507T429 464Q434 459 437 449T441 427Q441 405 430 396Q448 374 448 353Q448 339 440 330Q448 319 448 306Q448 293 441 279Q447 270 447 259Q447 241 432 228Q442 217 442 202Q442 186 429 166Q439 160 439 141Q439 122 431 102Q439
91 439 73Q439 62 435 55Q437 45 437 40Q437 21 426 11T398 0Q384 0 373 9T360 37Q359 38 358 40T355 45Q338 35 324 35Q319 35 316 36Q303 27 291 27Q281 27 272 31Q268 24 260 20T241 16Q235 16 232 17Q221 13 211 13Z" />
<glyph unicode="v" glyph-name="v" horiz-adv-x="450" d="M321 116T321 109Q321 89 313 70T294 46Q288 23 276 12T249 0Q229 0 214 18Q194 25 194 45Q194 54 197 61Q190 61 181 73T171 98Q171 104 174 110Q171 115 164 123T156 142Q145 146 139 155T133 177Q133
186 135 191Q125 201 118 220T112 254Q104 260 100 269T95 287Q95 293 96 296Q81 300 69 316T58 356Q47 363 44 367T40 379L41 395Q26 407 17 420T9 456Q-3 477 -3 491Q-3 508 13 523Q26 535 41 535Q59 535 71 521T82 491Q93 491 99 480T105 456Q105 450 104 447Q121
430 121 411Q121 404 118 398Q137 395 145 379T150 345Q178 332 174 303Q187 293 190 281T194 249Q205 241 214 227T220 196Q235 181 233 163Q236 161 240 155Q241 171 246 180T259 199Q257 205 261 214T273 230Q269 237 269 246Q269 263 281 270Q278 276 278 287Q278
298 282 310T294 331Q293 335 293 343Q293 367 308 382Q305 388 305 399Q305 420 319 433Q315 444 315 456Q315 473 321 489T334 512Q338 525 348 532T369 539Q385 539 398 528T412 499Q412 489 407 480Q411 473 411 463Q411 449 405 436T389 415Q390 408 390 395Q390
372 379 356Q381 348 381 338Q381 322 376 307T359 284Q362 275 362 263Q362 235 348 222Q349 219 349 213Q349 201 345 190T334 170Q336 160 336 156Q336 147 333 142T325 132T319 126Q321 116 321 109Z" />
<glyph unicode="w" glyph-name="w" horiz-adv-x="675" d="M644 485T644 481Q644 468 638 452T623 428Q624 425 624 419Q624 409 619 399T606 383Q606 339 584 324Q591 316 591 302Q591 290 585 280T568 264Q574 255 574 245Q574 234 569 224T553 208Q559 201 559
185Q559 160 544 150Q548 142 548 127Q548 100 536 88Q540 64 515 44Q514 28 503 19T477 9Q462 9 453 18T446 45Q430 53 422 70T414 105Q414 121 419 131Q406 139 399 158T393 199Q378 213 378 237Q378 247 381 254Q373 259 368 269T362 291Q362 300 364 305Q357
312 355 328T351 351Q347 331 336 318Q339 311 339 304Q339 291 331 278Q333 268 333 263Q333 241 321 222Q322 219 322 213Q322 200 316 184T304 165Q305 162 305 154Q305 140 300 128T288 115Q291 105 291 97Q291 83 276 63Q280 38 267 24T234 9Q216 9 202 23T187
64Q165 80 163 122Q148 132 140 147T131 178Q131 183 133 193Q110 205 110 239Q110 252 111 258Q103 265 100 274T96 293T94 310Q82 315 76 325T69 347Q69 357 73 365Q49 382 49 414Q49 420 51 432Q44 438 39 452T33 479Q33 485 34 488Q32 500 32 504Q32 521 41
529T69 536Q95 531 104 500Q121 481 119 453Q130 444 133 432T136 404Q147 393 150 382T152 357Q164 348 167 334T169 301Q181 292 183 280T186 257T186 243Q199 236 212 209T224 156Q227 177 239 199Q237 215 243 231T259 258Q254 264 254 278Q254 290 258 302T270
323Q267 334 267 343Q267 371 289 378Q279 392 279 405Q279 417 289 435Q288 438 288 445Q288 457 294 467T315 482Q315 489 321 493T337 498Q356 498 366 485Q406 483 406 433Q406 422 405 417Q417 413 427 395T438 358Q438 346 432 337Q441 331 446 316T451 285Q451
275 448 267Q456 254 461 239T465 214Q475 204 477 195Q478 200 483 211T492 226Q490 238 495 255T508 282Q506 290 506 297Q506 316 513 339T531 368Q530 373 529 380T528 396Q528 417 544 428V432Q544 445 553 457Q550 466 550 474Q550 491 560 504T583 524Q583
543 594 555T627 567Q660 567 660 539Q660 516 642 491Q644 485 644 481Z" />
<glyph unicode="x" glyph-name="x" horiz-adv-x="500" d="M250 173T242 160T224 145Q223 113 191 98Q194 84 182 62T155 34Q150 14 137 -1T106 -17Q90 -17 79 -6T68 23Q68 46 88 67Q87 84 95 99T117 123Q116 144 126 157T150 169Q148 183 154 195T174 214Q176
223 189 238Q198 247 202 255Q179 267 181 293Q164 294 153 306T142 335Q142 344 144 348Q135 350 126 362T117 385Q102 393 94 400T81 420Q57 435 51 456Q18 480 18 509Q18 517 21 526Q33 554 56 554Q73 554 90 540T113 508Q135 504 150 487T166 451Q166 446 165
443Q199 426 207 386Q223 379 236 365T253 330Q255 332 260 341T272 358T288 366Q286 377 293 393T312 414Q311 418 311 426Q311 439 318 447T334 454Q334 475 344 488T368 500Q370 520 382 532T411 545Q430 545 440 526Q450 512 450 497Q450 479 434 466Q436 458
436 456Q436 444 427 434T408 421V417Q408 401 390 397Q389 360 350 332Q351 312 340 295T312 270Q313 267 313 261Q313 254 310 245Q319 239 328 228T337 202Q347 199 355 190T363 168Q398 151 398 125Q398 122 396 112Q409 112 417 102T425 77Q434 74 440 66T447
43Q447 39 445 27Q451 18 451 9Q451 -4 441 -13T417 -22Q385 -22 369 22Q355 28 341 51T327 90Q307 103 292 121T273 157Q255 163 250 183Q250 173 242 160Z" />
<glyph unicode="y" glyph-name="y" horiz-adv-x="427" d="M351 171T338 161Q340 121 317 111Q315 95 303 77T277 53Q277 49 276 37T270 16T256 0Q261 -35 223 -70Q222 -94 208 -108T173 -126Q171 -140 153 -153T117 -167Q113 -178 85 -189T47 -195Q23 -197 9 -183T-5
-150Q-5 -136 3 -126T26 -116Q31 -116 34 -117Q62 -96 79 -96Q85 -96 88 -97Q90 -85 102 -75T130 -58Q130 -48 138 -37T157 -19Q155 -13 155 -10Q155 5 168 23T194 47Q171 59 171 84Q161 85 153 98T144 126Q144 135 149 143Q134 148 127 159T119 185Q119 196 123
207Q109 215 102 224T95 245Q80 255 80 276Q80 286 83 295Q58 322 58 353Q58 362 59 367Q45 374 38 386T31 415Q31 430 37 443Q11 461 11 483Q11 508 33 523Q42 529 53 529Q68 529 80 518T99 491Q108 483 114 466T120 434Q120 425 119 422Q149 390 149 360Q149
356 147 346Q160 339 166 326T170 298Q180 290 184 278T187 254Q196 254 203 241T209 213Q222 206 226 195T228 167Q241 163 241 142Q244 159 248 167T260 184Q258 194 258 197Q258 208 262 214T273 222Q269 241 283 259Q280 265 280 271Q280 278 286 286T295 298Q289
316 289 328Q289 338 293 347T306 369Q300 381 300 405Q300 437 313 463Q309 477 309 485Q309 497 315 506Q315 530 330 544T364 558Q380 558 391 547T402 514Q409 500 409 480Q409 444 392 417Q396 404 396 389Q396 364 378 341Q379 333 382 322T385 304Q385 289
375 278Q380 264 354 219Q358 207 358 200Q358 192 355 184Q351 171 338 161Z" />
<glyph unicode="z" glyph-name="z" horiz-adv-x="521" d="M435 108T450 108Q468 107 478 95T488 65Q488 50 480 38T455 24Q443 15 430 15Q420 15 409 19T394 24Q378 13 353 13Q344 13 332 17Q316 8 303 8Q285 8 273 24Q268 17 256 13T229 9Q211 9 199 15Q180 4
152 4Q132 4 121 9Q105 1 89 1Q78 1 61 7Q34 18 34 45Q34 59 42 73T65 96Q66 122 81 144T114 174Q120 198 164 222Q165 233 184 257T215 286Q216 298 230 314T257 335Q263 352 278 366T306 380Q309 390 318 399T334 409Q333 417 343 428T366 447Q356 443 335 439T295
435Q272 435 261 440Q255 434 244 431T221 428Q200 428 192 435Q185 429 171 425T143 420Q120 420 109 432Q105 431 99 431Q81 431 69 443T57 473Q57 482 62 492Q69 504 84 511T117 519Q133 519 143 512Q154 521 176 521Q199 521 206 509Q228 524 249 524Q265 524
284 514Q299 526 318 526Q331 526 341 521Q352 532 371 532Q383 532 389 530Q407 533 410 533Q416 533 419 532Q422 536 429 536Q438 536 446 531Q449 535 457 535Q463 535 468 532T474 524Q497 520 497 499Q497 491 493 483T480 470Q476 446 460 431T425 416Q427
402 414 387T381 365Q372 345 354 327T326 309Q327 290 312 272T282 251Q282 237 268 222T241 203Q237 188 222 171T195 146Q194 132 180 116T151 96Q151 95 150 95T149 94Q169 94 173 92Q184 102 197 102Q201 102 209 100Q226 116 248 116Q264 116 280 107Q288
118 311 118Q326 118 340 113T362 100Q372 110 392 110Q412 110 428 102Q435 108 450 108Z" />
<glyph unicode="{" glyph-name="braceleft" horiz-adv-x="332" d="M252 -12T260 -19T272 -35Q276 -34 282 -34Q298 -34 306 -44T315 -69Q315 -84 307 -95T283 -106Q276 -106 268 -103Q254 -106 237 -98T214 -77Q198 -76 184 -56T169 -17Q152 -3 156 19Q140 29
140 48Q140 62 149 72Q136 84 136 107Q136 117 137 122Q124 131 124 149Q124 158 129 168Q125 178 125 185Q113 197 107 205T101 224Q78 231 72 253Q56 253 45 264T34 291Q34 298 37 305Q34 311 34 318Q34 333 44 344T70 355Q73 355 81 353Q80 368 91 382T113 400V405Q113
415 117 422Q112 434 112 447Q112 469 124 481Q117 489 117 500Q117 503 119 511Q116 519 116 524Q116 533 124 543Q125 566 133 578T160 603Q161 619 165 628T180 646Q178 664 187 676T212 693Q215 706 225 715T249 724Q256 724 260 723Q287 716 287 692Q287 676
276 658T252 630Q253 622 249 614T236 599Q237 585 224 567T196 541Q199 534 199 527Q199 516 192 505Q202 485 202 470Q202 449 185 439Q189 427 189 414Q189 387 172 361Q172 347 169 339T157 325Q150 315 145 310T128 299Q143 295 159 276T172 240Q186 234 196
211T206 167Q206 160 204 154Q213 140 213 128Q213 119 209 114Q223 103 223 75Q223 62 220 53Q229 40 226 28Q242 17 242 -1L241 -10Q252 -12 260 -19Z" />
<glyph unicode="|" glyph-name="bar" horiz-adv-x="312" d="M161 -160T154 -160Q134 -160 124 -143T114 -107Q105 -95 105 -81Q105 -72 110 -62Q104 -49 104 -39Q104 -25 113 -16Q112 10 118 29Q109 41 109 73Q109 106 118 117Q112 132 112 151Q112 163 115 172Q114
181 111 192T107 211Q107 222 112 229Q108 237 108 246Q108 259 115 269Q111 276 111 286Q111 298 118 308Q109 326 109 343Q109 356 115 366Q112 374 112 382Q112 394 118 403Q114 411 114 422Q114 432 118 440Q111 453 111 463Q111 477 124 487Q110 499 110 517Q110
534 122 546Q121 549 121 556Q121 566 124 573Q117 586 117 599Q117 617 131 625Q122 635 122 650Q122 658 125 667Q115 678 115 691Q115 705 128 718Q131 734 141 741T165 749Q182 749 195 738T209 711Q209 701 202 690Q212 668 212 632Q212 602 203 590Q211 576
211 560Q211 540 200 524Q211 510 211 492Q211 475 201 464Q209 456 209 441Q209 427 202 417Q205 410 205 402Q205 392 201 385Q208 375 208 362Q208 346 195 333Q206 322 206 305Q206 292 200 283Q204 276 204 266Q204 257 200 249Q206 240 206 229Q206 209 192
198Q201 183 201 168Q201 158 196 145Q202 133 202 121Q202 105 192 88Q194 83 194 73Q194 65 193 61Q205 49 205 34Q205 20 195 5Q197 0 197 -11Q197 -29 188 -44Q193 -54 193 -62Q193 -70 188 -80Q197 -94 197 -112Q197 -129 189 -142T165 -159Q161 -160 154
-160Z" />
<glyph unicode="}" glyph-name="braceright" horiz-adv-x="386" d="M177 633T185 616T192 583Q198 578 201 567T205 543Q205 527 200 519Q205 506 205 495Q205 487 201 475Q220 464 217 433Q220 430 220 422Q232 402 240 369Q241 369 248 362Q251 363 258 363Q268
363 276 357T289 341Q302 340 309 330T317 305Q317 291 309 281T285 268Q273 245 253 246Q252 231 246 224T226 213Q228 205 228 203Q228 192 219 179Q221 171 221 168Q221 158 216 149T201 136Q206 124 206 112Q206 90 194 78Q197 69 197 63Q197 51 186 43Q188
37 188 34Q188 24 175 8Q177 -9 163 -23Q165 -40 148 -58T114 -76Q105 -87 89 -94T55 -102Q27 -102 19 -79Q16 -72 16 -66Q16 -55 23 -47T42 -33Q45 -28 51 -26T63 -27Q71 -10 92 -7Q93 6 103 17Q102 20 102 26Q102 39 113 52Q113 62 120 72Q117 80 117 87Q117
101 128 112Q125 120 125 133Q125 147 128 160T137 179Q135 185 135 189Q135 210 154 219Q153 234 160 248T177 265Q178 278 185 289T206 306Q177 320 162 356T148 426Q141 433 135 448T129 478Q129 487 132 496Q123 510 123 533Q123 547 127 555Q110 565 111 586Q105
591 101 598T95 614Q83 620 76 626T63 646Q8 644 8 682Q8 696 19 707T45 718Q50 718 53 717Q56 718 62 718Q87 718 114 697Q128 689 136 683T148 668Q158 665 162 657T168 636Q177 633 185 616Z" />
<glyph unicode="~" glyph-name="asciitilde" horiz-adv-x="654" d="M201 429T207 429Q215 429 222 425Q237 434 260 434Q285 434 300 425Q310 426 326 419T356 399T370 375Q391 371 403 366T427 347Q429 348 433 348Q441 348 451 344Q459 353 475 361T501 368Q500
383 508 397T525 416Q535 445 561 445Q582 445 592 433T603 402Q603 388 597 375T580 354Q581 324 551 302T482 270Q466 262 446 262Q423 262 400 271T363 296Q343 294 324 305T300 335Q288 338 286 344Q262 344 255 349Q244 338 228 338Q212 338 202 347Q194 337
181 332Q182 317 164 293T131 263Q119 251 102 251Q91 251 81 257T66 273Q62 281 62 291Q62 305 72 316T100 337Q100 353 110 371T133 399Q139 413 152 421T183 430Q188 430 198 428Q201 429 207 429Z" />
<glyph unicode="&#xa0;" glyph-name="uni00A0" horiz-adv-x="217" />
<glyph unicode="&#xa1;" glyph-name="exclamdown" horiz-adv-x="288" d="M162 551T147 551Q129 551 114 539T99 512Q99 509 101 501Q93 491 92 481T91 469Q95 455 106 448T132 440Q147 440 158 448T173 471Q188 488 188 507Q188 526 172 542Q162 551 147 551ZM197
198T197 187Q197 173 187 159Q195 151 195 131Q195 107 184 92Q193 85 193 71Q193 58 186 51Q195 44 195 26Q195 12 188 1Q196 -23 196 -46Q196 -67 189 -81Q199 -93 199 -109Q199 -129 181 -144Q171 -168 147 -168Q132 -168 120 -158T108 -132Q108 -119 118 -105Q96
-89 96 -62Q96 -45 106 -22Q98 -14 98 5Q98 21 104 30Q101 39 101 48Q101 58 104 66T113 80Q106 87 106 105Q106 125 112 132Q104 150 104 165Q104 180 110 193Q108 201 108 208Q108 219 111 229T119 244Q110 258 110 273Q110 286 116 295Q112 308 112 322Q112
344 123 356T156 369Q177 369 186 352T195 310Q195 289 190 277Q201 266 201 244Q201 232 198 221T189 206Q197 198 197 187Z" />
<glyph unicode="&#xa2;" glyph-name="cent" horiz-adv-x="548" d="M428 258T445 258Q453 258 461 255Q482 245 482 221Q482 211 477 202T462 187Q466 176 457 158T438 134Q434 124 419 121T395 118Q389 105 375 96T349 89Q330 75 302 73Q306 67 306 63Q306 60
303 55Q324 34 324 17Q324 4 313 -7Q303 -20 285 -20Q274 -20 264 -14T250 3Q237 12 231 27T225 60Q225 76 230 88Q215 85 202 94T186 118Q183 117 177 117Q155 117 136 137T115 177Q103 192 98 202T96 223Q86 232 80 245T74 271Q62 297 62 323Q62 354 79 376Q79
398 89 422T113 461Q111 472 115 482T129 498Q128 522 144 534T178 544Q183 561 198 573T235 584L238 592Q234 604 234 609Q234 616 237 622Q229 631 229 645Q229 661 239 671Q238 674 238 681Q238 697 249 708T277 719Q286 719 293 715Q304 709 310 696T316 667Q316
654 311 644Q315 636 315 626Q315 617 313 612Q319 603 319 592Q323 593 331 593Q344 593 352 587T363 570Q368 573 373 573Q384 573 393 566T402 550Q424 550 439 526T452 473Q464 466 470 453T476 425Q476 408 468 398T446 387Q436 387 427 391Q408 400 393 426T370
479Q366 483 362 485T353 492Q342 490 331 494T313 507Q305 503 295 503Q286 503 282 505Q278 504 271 504Q258 504 250 511Q246 498 232 485T204 467Q199 455 190 449Q191 437 188 431T175 416Q180 401 160 384Q162 376 162 372Q162 354 145 326Q163 305 163 273Q163
262 162 257Q165 251 172 240T184 218T188 198Q193 193 193 193Q207 196 225 186T250 163Q268 163 296 152Q309 162 335 162Q340 173 355 182T383 192L382 201Q382 217 390 230T417 247Q428 258 445 258Z" />
<glyph unicode="&#xa3;" glyph-name="sterling" horiz-adv-x="643" d="M460 114T472 118T497 122Q508 122 512 119Q529 120 541 109T554 80Q554 60 535 50T495 40Q484 21 463 21Q451 21 440 29Q434 26 426 26Q417 26 407 31Q395 26 386 26Q377 26 368 29Q358 14
331 14Q323 12 317 12Q313 12 303 14Q296 12 282 12Q259 12 239 21Q233 14 222 10T199 6Q188 6 179 9Q167 0 144 0Q129 0 121 4Q111 -2 102 -2Q87 -2 76 11T65 40Q65 51 71 60T90 73Q102 85 116 86Q116 97 121 107T137 121Q134 129 134 136Q134 147 139 156T152
170Q150 174 150 183Q150 198 160 208Q159 211 159 218Q159 228 164 238Q160 248 160 254Q160 264 166 273L163 281L156 280Q143 280 131 290Q122 287 112 287Q93 287 78 297T63 323Q63 333 68 342Q73 352 79 355T93 359T109 362Q118 373 134 373Q142 373 154 368Q156
370 160 370Q157 388 157 391Q157 400 161 405Q150 415 150 432Q150 445 157 455Q151 470 151 487Q151 517 168 535Q167 538 167 544Q167 556 172 567T185 585Q194 620 219 630Q221 643 230 651T253 662Q261 676 274 684T304 692Q321 692 333 684Q348 694 371 694Q399
694 417 679Q420 680 426 680Q438 680 447 674Q485 662 490 635Q513 612 513 563Q530 544 530 524Q530 514 526 505Q521 495 511 489T491 483Q485 483 475 487Q463 492 455 506T443 537Q434 551 434 561Q434 568 437 574Q430 578 427 585T425 600Q414 597 399 603T373
618Q369 617 355 613T328 608Q324 608 314 610Q310 601 301 595T282 588Q277 578 263 571Q261 550 244 538Q248 529 248 518Q248 495 226 486Q234 470 234 453Q234 441 230 434Q237 424 237 403Q237 383 232 368Q240 372 250 372Q267 372 278 358Q295 369 315 369Q332
369 340 362Q348 365 355 365Q370 365 379 356Q394 353 401 344T409 321Q409 305 399 293T373 280Q363 280 353 286Q346 282 337 282Q322 282 311 291Q308 285 299 282T279 279Q268 279 258 282T244 291Q251 281 251 271Q251 260 243 249Q245 245 245 235Q245 219
235 209Q239 202 239 188Q239 168 230 154Q231 137 212 122Q214 116 214 113Q214 101 205 89Q218 99 236 99Q245 99 254 96T267 89Q279 96 298 96Q316 96 326 90Q332 96 344 100T369 104Q380 104 384 102Q393 110 408 110Q419 110 427 105Q437 109 444 109Q451
109 457 106Q460 114 472 118Z" />
<glyph unicode="&#xa4;" glyph-name="currency" horiz-adv-x="610" d="M474 553T489 564T521 574Q528 577 535 577Q550 577 559 565T569 537Q569 522 560 512T533 502Q532 489 520 481Q521 476 521 467Q529 461 533 447T537 420Q548 414 554 398T560 363Q560 338
550 325Q552 321 552 312Q552 297 542 287Q545 277 545 266Q545 238 526 227Q529 220 529 212Q529 199 522 187T498 166Q515 160 515 135Q522 131 527 124T533 108Q544 103 549 92T552 67Q555 60 555 53Q555 38 543 29T515 19Q502 19 492 27T480 50Q464 59 462
79Q447 85 440 105Q437 97 429 89T408 79Q401 67 378 58T336 48Q326 48 322 50Q309 41 298 41Q283 41 271 55Q255 42 237 42Q205 42 176 76Q161 84 152 94T131 119Q129 110 119 98T98 82Q71 52 57 50Q47 48 44 48Q28 48 20 58T11 83Q11 98 19 111T43 131Q46 145
58 160T81 177Q84 185 89 192Q77 203 66 224T55 264Q55 274 57 279Q49 290 49 311Q49 335 58 345Q57 349 57 356Q57 368 63 377Q59 386 59 402Q59 419 63 433T77 456Q73 462 73 466Q62 470 57 479T46 504Q32 505 24 515T15 539Q15 547 17 551Q15 556 15 564Q15
579 26 588T53 598Q66 598 76 590T87 565Q104 557 113 530Q118 530 126 526Q132 535 142 540T160 544Q167 552 174 556T191 561Q197 561 201 560Q208 567 220 571T244 576Q251 576 259 574Q265 587 279 594T308 602Q332 602 342 585Q352 592 364 592Q375 592 382
585L391 586Q412 586 419 574Q429 568 433 562T440 547H443Q455 547 468 536Q474 553 489 564ZM248 131T270 131Q286 131 298 123Q307 129 318 129Q331 129 339 122Q341 124 345 125T350 126Q354 136 363 142T382 149Q388 158 399 164Q400 177 409 186T431 197Q448
219 453 223Q451 236 455 251T469 275Q467 281 467 288Q467 305 474 316Q471 324 471 332Q471 350 484 360Q483 363 483 368Q475 373 472 379T468 393T466 406Q464 412 460 421T453 440Q436 438 424 450T413 478Q402 482 392 490T378 507Q375 508 369 509T359 513Q352
509 336 509Q317 509 310 514Q298 497 264 497Q247 497 240 498Q235 490 225 486T206 484Q196 473 185 470Q182 459 174 453T153 440Q150 424 133 409Q134 405 137 395T141 376Q141 363 131 350Q132 347 132 340Q132 325 122 314Q137 302 137 285Q137 276 133 269Q145
249 153 226Q155 224 160 217T169 204T172 191Q181 183 185 178T191 164Q204 157 217 144T235 117Q248 131 270 131Z" />
<glyph unicode="&#xa5;" glyph-name="yen" horiz-adv-x="694" d="M531 390T546 390Q555 390 561 388Q579 389 589 378T599 350Q599 333 588 321T558 312Q554 307 544 304T524 301Q509 301 503 307Q495 305 483 301T461 296Q454 296 445 299Q438 293 426 289T402
285Q396 285 390 287Q391 283 391 274Q391 260 387 246T376 222Q385 228 400 228Q422 228 433 220Q444 228 472 228Q492 228 499 222Q509 225 523 225Q546 225 562 217T579 190Q579 180 575 171Q569 158 551 152T510 145Q483 145 469 153Q456 142 433 142Q411 142
399 152Q396 150 385 147Q386 144 386 137Q386 126 382 114T372 94Q374 86 374 82Q374 67 362 56T335 44Q323 44 315 51Q299 61 299 81Q299 92 304 104Q303 106 303 115Q303 133 306 137Q296 131 285 131Q279 131 265 135Q258 132 246 132Q219 132 209 142Q204
137 192 134T168 131Q155 131 149 133Q140 129 128 129Q108 129 94 147Q85 161 85 171Q85 188 105 197T150 207Q159 207 171 205Q179 213 190 217T214 222Q235 222 245 208Q257 210 267 210Q278 210 283 208V209Q283 216 288 219T300 221Q299 224 299 231Q299 242
303 252T315 268Q308 273 305 279Q300 277 290 277Q277 277 267 287Q244 264 220 264Q202 264 182 275Q166 261 143 261Q123 261 108 273Q93 287 93 299Q93 312 103 323T129 340Q156 350 182 350Q201 350 218 344Q231 365 257 365Q250 370 248 377T243 392T240
405Q210 415 206 452Q181 467 176 496Q166 500 160 510T153 531Q121 552 122 573Q113 576 108 584T102 603Q102 611 107 623Q99 632 99 646Q99 661 109 672T136 684Q154 684 168 667T182 630Q182 623 181 620Q198 603 202 589Q213 586 221 577T229 555Q237 550
240 544T247 527Q252 513 255 508Q259 503 268 492T281 466Q293 463 302 450T314 422Q341 410 356 370Q352 388 366 411T394 436Q392 447 400 464T418 483Q416 491 416 494Q416 506 424 516T444 530Q442 542 449 557T463 573Q464 589 476 605T499 623Q498 626 498
633Q498 644 503 653T518 668Q529 685 547 685Q562 685 574 673T587 645Q587 632 577 621Q578 618 578 612Q578 594 564 575T536 553Q536 531 518 520Q518 508 512 493T497 472Q498 459 491 449T469 428Q470 414 460 397T436 374Q458 374 466 372Q473 378 485 382T509
386Q514 386 522 384Q531 390 546 390Z" />
<glyph unicode="&#xa6;" glyph-name="brokenbar" horiz-adv-x="304" d="M130 362T142 352T170 341Q186 341 197 352T207 382Q207 390 204 402T196 420Q205 440 205 463Q205 480 197 493Q200 501 200 508Q200 525 189 536Q196 552 196 568Q196 597 179 611Q180
615 182 625T185 646Q185 657 181 666Q187 678 187 693Q187 718 166 726Q154 730 149 730Q135 730 127 719T120 685Q102 671 102 651Q102 642 105 631Q101 617 101 607Q101 582 117 569Q116 561 113 548T109 527Q109 515 116 505Q113 498 113 490Q113 471 127 459Q126
451 123 438T120 416Q120 400 130 380Q130 362 142 352ZM184 232T192 219T198 185Q200 177 200 173Q200 157 184 151Q195 138 195 113Q195 98 191 90Q196 83 196 64Q196 38 184 26Q190 2 190 -13Q190 -30 184 -40Q191 -56 191 -73Q191 -86 187 -93Q193 -104 193
-113Q193 -128 181 -139T152 -150Q140 -150 131 -143T118 -122Q105 -112 105 -93Q105 -79 114 -69Q101 -52 101 -38Q101 -25 114 -12Q103 5 103 25Q103 49 119 64Q105 80 105 93Q105 109 119 115Q110 133 110 154Q110 166 113 175T119 189Q118 192 118 199Q118
214 129 226T157 238Q162 238 165 237Q184 232 192 219Z" />
<glyph unicode="&#xa7;" glyph-name="section" horiz-adv-x="590" d="M451 487T445 497T438 518Q438 523 439 526Q429 531 421 554T416 587Q401 585 386 597T368 630H364Q349 630 338 639L329 638Q316 638 305 646Q299 645 288 645Q282 636 259 626T224 616Q219
608 210 605T196 598Q196 583 186 556T164 520Q191 507 191 484Q191 481 189 473Q203 470 212 458Q230 458 241 447Q247 445 256 443T272 434Q285 437 298 431T321 413Q325 414 333 414Q352 414 368 406T393 383Q407 382 414 374T431 347Q450 347 468 331T488 294Q494
288 497 276T500 251Q500 226 491 215Q492 212 492 204Q492 185 480 167T452 145Q446 127 439 117T416 97Q418 95 429 87T451 64T461 33Q461 23 459 18Q465 2 465 -19Q465 -39 458 -58T439 -88Q437 -114 423 -125Q418 -137 408 -143T386 -148Q379 -152 368 -155T346
-158Q337 -158 333 -157Q319 -171 300 -171Q278 -171 255 -153Q249 -155 244 -155Q224 -155 203 -142T179 -112Q169 -108 164 -99T158 -79Q146 -79 135 -68T118 -43T114 -21Q97 -19 84 -3T71 32Q71 49 81 58T107 68Q118 68 127 63T142 47Q162 46 173 28T186 -9Q200
-11 212 -26T227 -56Q234 -59 240 -66T248 -80Q261 -78 282 -82T307 -95Q314 -89 330 -84T356 -78Q360 -67 370 -54T391 -32Q385 -19 385 2Q385 17 388 27Q377 30 361 43T342 66Q330 67 314 74T290 89Q278 87 262 94T237 113Q208 111 190 118T156 148Q143 146 132
153T116 172Q103 176 95 185T88 205Q80 214 80 228Q80 237 84 249Q78 258 78 277Q78 294 82 302Q77 311 77 326Q77 347 86 365T111 387Q114 397 122 406T138 419Q132 426 125 438T116 458Q102 464 95 479T88 512Q88 524 91 533Q93 547 102 562T122 590Q120 600
120 604Q120 630 146 651Q151 658 159 665T173 673Q177 681 188 686T211 692Q217 692 219 691Q230 701 242 701Q244 707 254 712T272 716Q279 724 304 724Q333 724 337 714Q345 716 348 716Q362 716 368 708H374Q385 708 393 701Q408 701 422 688T438 658Q449 660
461 652T474 633Q491 615 487 598Q500 589 507 571T513 534Q529 523 529 507Q529 492 517 480T489 467Q474 467 462 483Q451 487 445 497ZM207 370T199 363T177 354Q174 348 166 339T152 325Q157 315 157 306Q157 301 152 278Q161 268 161 254Q161 246 159 242Q167
240 173 234T182 219Q191 216 202 206T217 186Q223 188 228 188Q243 188 262 181T290 163Q293 164 300 164Q316 164 334 156T361 139Q367 155 381 163Q383 177 391 191T413 211Q411 215 411 223Q411 237 421 247Q419 251 419 259Q419 266 420 269Q415 271 410 280Q398
280 390 287Q385 290 377 298T367 313Q353 315 344 323T333 340Q327 337 319 337Q305 337 290 344T269 361Q248 357 231 374Q216 374 208 380Q207 370 199 363Z" />
<glyph unicode="&#xa8;" glyph-name="dieresis" horiz-adv-x="395" d="M279 628T265 628Q253 628 244 636T234 656Q234 668 246 680Q247 701 268 711Q280 727 296 727Q311 727 323 715T335 688Q335 672 319 660Q320 650 314 645T297 640L289 641Q279 628 265 628ZM60
668T60 658Q60 644 72 635T99 626Q115 626 126 635T137 662Q137 668 136 671Q140 679 140 688Q140 703 128 711T101 720Q84 720 74 710T66 680Q60 668 60 658Z" />
<glyph unicode="&#xa9;" glyph-name="copyright" horiz-adv-x="847" d="M777 337T768 346Q769 350 769 358Q769 373 764 386T750 406Q762 421 762 438Q762 450 757 460T742 474Q749 485 749 498Q749 516 735 531T708 547Q705 571 692 585T653 599Q653 621 635
639T597 656Q582 671 566 667Q557 679 539 679Q527 679 516 672Q502 676 496 675Q489 684 473 689T435 695Q410 695 388 688T357 669Q349 674 334 674Q319 674 301 669T272 654Q266 656 262 656Q244 656 222 643T198 617Q184 612 177 599T170 570Q146 570 130 553T115
514Q104 511 98 495T91 458Q91 442 95 431Q84 424 78 411T72 382Q72 368 79 356Q65 347 65 325Q65 317 69 303Q64 295 64 281Q64 262 76 248Q75 245 75 239Q75 229 79 217T88 197Q81 184 81 164Q81 140 90 118T114 88Q119 63 136 42T182 6Q185 -18 200 -32T237
-47Q246 -54 258 -54Q264 -54 267 -53Q281 -67 314 -67Q325 -89 349 -89Q356 -89 362 -86Q373 -95 387 -95Q401 -95 413 -86Q420 -92 432 -95T459 -99Q487 -99 499 -86Q503 -87 510 -87Q533 -87 555 -75Q580 -74 594 -67T613 -40Q628 -34 636 -20Q650 -19 660 -9T673
15Q686 20 700 35T717 63Q727 78 731 92T736 125Q745 130 750 140T755 163Q755 175 749 182Q767 195 767 215Q767 221 763 231Q782 256 782 275Q782 287 774 298Q780 311 779 325Q777 337 768 346ZM537 5L510 -3Q498 4 488 4Q466 4 454 -13Q449 -8 440 -5T419 -1Q403
-1 392 -8Q380 0 367 -2Q354 14 335 14Q328 14 325 13Q317 22 304 26T277 31Q271 31 259 29Q257 49 243 64T207 83Q202 100 192 109Q190 116 187 122T178 134Q179 144 176 157T164 177Q171 187 171 203Q171 215 168 225T157 240Q162 248 162 259Q162 280 147 290L148
299Q148 301 146 309Q167 332 167 355Q167 368 160 378Q180 391 180 432L179 454Q189 460 193 470T196 492Q217 495 235 517T253 557Q262 559 271 569Q279 567 284 567Q301 567 316 574T335 593Q348 585 361 585Q384 585 401 602Q415 601 424 602T445 610Q452 601
474 594T517 587Q532 587 537 591Q548 570 576 573Q578 557 593 541T624 521Q636 493 660 482Q657 473 657 465Q657 446 671 434Q665 424 665 409Q665 394 671 380T687 359Q679 351 679 338Q679 325 687 313Q682 305 682 295Q682 281 692 269Q680 257 682 234Q666
221 666 197Q666 184 669 172Q654 157 654 127Q654 119 655 115Q635 99 630 83Q610 79 601 58Q579 55 570 35Q545 28 539 5H537ZM565 105T565 142Q573 150 581 160T592 179Q606 184 612 193T619 214Q619 231 607 245T578 259Q564 259 553 249Q537 248 526 236T516
209Q504 206 493 189T483 155Q479 157 474 157Q462 157 451 148Q446 149 439 151T426 154Q417 154 406 146Q395 160 379 163Q374 174 363 185T341 200Q343 208 343 213Q343 226 335 237Q338 245 338 252Q338 263 332 273T315 288Q320 298 320 307Q320 321 311 331Q322
351 320 370Q334 386 340 404Q360 410 371 418T392 445Q404 441 419 441Q440 441 457 448Q462 441 472 436T491 432Q496 415 511 406Q514 379 522 364T554 348Q571 348 583 360T595 390Q595 397 592 404Q594 417 587 435T569 462Q571 484 561 496T535 508Q531 508
523 506Q517 516 504 522T476 528Q463 528 458 524Q451 530 429 530Q401 530 372 521T338 499Q319 501 300 487T273 453Q257 444 248 426T240 387Q231 379 231 363Q231 353 232 348Q229 344 229 335Q229 320 237 306Q229 290 229 275Q229 249 250 232V228Q250 215
257 205Q254 198 258 182T271 152T290 135Q291 128 298 123T314 116Q322 95 342 89Q353 61 381 61Q388 61 392 62Q400 60 406 60Q416 60 426 63T441 74Q449 72 453 72Q467 72 472 80Q482 78 486 78Q497 78 505 83T516 96Q565 105 565 142Z" />
<glyph unicode="&#xaa;" glyph-name="ordfeminine" horiz-adv-x="465" d="M47 401T47 413Q47 431 59 443Q62 458 73 471T97 492T119 498Q126 509 147 518T186 528Q190 528 198 526Q209 538 227 538Q241 538 247 530Q260 539 281 539Q306 539 325 527T348 495Q366
489 375 477T387 442Q400 429 406 412T412 376Q412 353 404 339Q411 329 416 309T421 270Q421 262 419 250Q426 235 426 230Q426 227 423 216Q424 212 425 207T426 193Q426 178 415 166Q419 155 419 139Q419 118 409 105Q411 101 411 92Q411 71 394 57Q390 43 379
36T355 28Q342 28 334 36Q308 25 292 25Q284 25 280 26Q254 18 236 18Q223 18 200 23Q186 15 173 15Q161 15 151 22Q146 21 136 21Q97 21 76 56Q38 78 38 122Q38 133 39 139Q30 145 30 164Q30 177 35 187Q31 205 31 210Q31 239 59 262Q70 285 84 293T121 305Q127
322 149 328T192 332Q198 336 209 339T231 343Q243 343 252 339Q254 341 262 341Q268 341 274 340T282 337Q296 355 315 355Q321 355 327 352V355Q327 372 334 379Q324 382 313 396T299 423Q283 430 277 446Q265 437 249 437Q238 437 228 443Q211 438 206 439Q192
429 175 429Q160 409 140 411Q131 395 116 383T84 371Q66 371 55 388Q47 401 47 413ZM122 153T122 142Q122 134 118 122Q122 122 129 118T138 108Q146 111 158 111Q180 111 187 101Q198 105 210 105Q229 105 240 94Q248 102 266 107T300 112Q309 130 332 133Q334
140 343 151Q339 157 336 167T333 187Q333 208 343 218Q332 232 332 251Q332 264 336 273Q328 268 318 268Q309 268 303 275Q294 266 278 266Q268 266 258 271Q247 260 231 260Q226 260 216 264Q201 249 189 255Q183 241 174 236T147 231Q143 220 134 213T114 208Q119
201 119 192Q119 177 110 165Q122 153 122 142Z" />
<glyph unicode="&#xab;" glyph-name="guillemotleft" horiz-adv-x="298" d="M246 499T246 482Q246 476 242 466Q243 463 243 456Q243 430 214 414Q211 400 204 390T184 369Q179 357 168 347T143 332Q142 313 114 288Q129 276 141 256T160 216Q188 208 197 168Q218
147 218 125Q218 109 207 98T180 87Q165 87 156 95Q142 103 132 119T121 152Q103 157 93 173T81 208Q54 209 45 243Q20 260 20 283Q20 292 23 299T32 309Q31 322 37 333T54 349Q55 361 66 373T87 388Q92 419 133 428Q134 444 145 458T169 481Q168 497 181 507T211
518Q224 518 232 511Q246 499 246 482Z" />
<glyph unicode="&#xac;" glyph-name="logicalnot" horiz-adv-x="570" d="M489 241T489 229Q494 219 494 210Q494 193 483 182Q485 174 485 171Q485 153 472 142T441 131Q426 131 415 140T402 166Q393 176 393 191Q393 211 407 223Q398 232 397 243Q384 233 369
233Q355 233 342 243Q324 237 304 237Q289 237 276 240Q264 237 251 237Q234 237 218 243Q206 234 192 234Q179 234 170 240Q150 231 129 231Q110 231 95 239T73 265Q69 273 69 284Q69 296 75 306Q77 319 89 325T116 331Q128 331 137 328T150 320Q159 326 171 326Q179
326 188 323Q201 332 214 332Q223 332 231 328T243 319Q251 325 266 325Q273 325 285 322Q295 327 301 327Q307 327 319 322Q334 332 348 332Q360 332 373 322Q399 333 429 333Q472 333 482 302Q488 294 488 280Q488 267 482 253Q489 241 489 229Z" />
<glyph unicode="&#xad;" glyph-name="uni00AD" horiz-adv-x="516" d="M351 256T347 253T330 250Q312 250 302 262T291 290Q291 306 300 317T326 329Q336 338 351 338Q365 338 377 331Q393 341 423 341Q444 341 462 336Q471 339 488 339Q521 339 534 329Q541 333
549 333Q555 333 565 327Q571 334 585 334Q597 334 601 329Q618 329 627 318T636 292Q636 277 627 266T604 256Q588 247 569 247Q557 247 547 252Q540 248 531 248Q518 248 510 256Q501 253 487 253Q469 253 457 257Q448 254 438 254Q423 254 408 260Q390 251 379
251Q367 251 352 257Q351 256 347 253Z" />
<glyph unicode="&#xae;" glyph-name="registered" horiz-adv-x="568" d="M506 589T509 581T512 565Q512 548 502 540Q513 529 513 518Q513 511 508 503Q511 497 511 490Q511 477 500 469Q502 463 502 458Q502 447 494 436Q497 427 497 419Q497 406 491 394T474
374Q476 363 472 353T457 338Q454 323 432 316Q432 305 420 295T391 278T366 275Q359 270 349 266T331 262Q325 255 320 254T306 253Q298 248 286 248Q271 248 257 255Q250 249 237 249Q228 249 220 253T206 263Q203 261 194 261Q182 261 169 266T149 280Q133 282
123 296T113 320Q87 324 79 352Q69 359 65 369T63 391Q49 408 49 428Q49 439 55 448Q49 455 44 468T39 493Q39 506 44 512Q44 516 43 521T44 532Q37 539 37 552Q37 561 40 568T47 578Q45 590 45 596Q45 618 56 622Q56 638 65 655T89 675Q85 704 113 712Q115 723
129 732T157 741Q164 741 168 738Q173 746 184 751T207 756Q217 768 234 766Q244 777 261 777Q273 777 281 772Q287 774 292 774Q311 774 321 761Q328 766 336 766Q348 766 360 753Q368 756 373 756Q391 756 400 742Q411 740 421 731T435 710Q445 708 451 701T457
685Q469 674 470 669Q494 661 494 631Q501 621 501 603Q501 596 500 593Q506 589 509 581ZM248 322T255 322Q277 322 282 314Q292 319 296 319Q304 330 318 330Q321 330 327 328Q330 333 338 336T356 340Q365 340 368 338Q370 348 381 360T403 375Q411 383 414
385Q414 394 419 405T432 419Q429 428 429 442Q429 465 436 473L434 481Q434 492 442 500Q441 502 441 505Q441 508 442 510T444 515Q439 524 439 539Q439 553 442 560Q432 566 432 579Q432 588 436 595Q430 603 430 615Q423 616 418 621T412 634Q398 643 397 655Q385
660 382 673Q380 674 372 680T363 689Q357 687 353 687Q336 687 325 696Q322 695 318 694T307 693Q294 693 287 703Q276 703 270 708Q262 693 246 693Q241 693 238 694Q230 687 220 687Q215 687 210 690Q206 682 192 676T169 671Q163 659 148 653Q140 629 126 621Q126
613 121 603T111 589Q116 581 116 571Q116 557 106 550Q114 539 114 524Q114 509 106 498Q111 493 114 482T117 459Q117 449 114 440Q122 436 128 416T134 381Q146 380 159 367T172 344Q179 344 186 340T196 331Q202 333 208 333Q219 333 229 330T242 320Q248 322
255 322ZM292 474T285 474Q265 474 261 481H255Q240 481 233 486Q237 480 237 470Q237 461 233 458Q236 450 237 441T237 425Q241 419 244 410T247 392Q247 384 245 381Q244 370 237 364T219 357Q208 357 200 364T192 385Q186 392 186 415Q186 426 187 429Q179
440 179 459Q179 475 185 482Q177 498 177 519Q177 535 182 545Q176 555 176 561Q176 569 180 574Q176 581 176 588Q176 597 185 604Q176 618 176 628Q176 638 182 644T201 652Q210 661 223 661Q232 661 239 655Q255 663 284 663Q297 663 306 660Q320 660 333 655T355
639Q365 634 372 623T380 600Q380 593 377 585Q378 582 378 576Q378 560 369 547T345 531Q344 524 335 519T316 511Q321 511 327 507T335 499Q345 500 355 494T368 478Q372 475 376 467T382 453Q393 432 393 406Q395 393 387 382T367 370Q358 370 348 378Q332 395
334 422Q328 425 324 438T319 458Q312 460 304 465T294 475Q292 474 285 474ZM254 597T246 597Q240 597 238 598Q241 594 241 589Q241 583 238 578Q243 573 243 558Q243 547 238 540Q245 545 259 545Q269 545 279 540Q289 556 296 556Q300 568 318 572V574Q318
581 323 586Q319 586 316 592T314 600Q308 597 302 597Q295 597 287 601Q280 598 272 598Q268 598 260 600Q254 597 246 597Z" />
<glyph unicode="&#xaf;" glyph-name="overscore" horiz-adv-x="521" d="M115 638T111 637T94 636Q73 636 60 648T46 675Q46 689 57 699T90 711Q99 720 117 720Q135 720 149 712Q166 722 191 722Q214 722 244 714Q272 719 292 719Q320 719 331 711Q343 717 368
717Q395 717 405 710Q410 711 418 711Q434 711 444 702T454 679Q454 665 444 654T414 642Q396 631 380 631Q369 631 358 637Q350 633 334 633Q307 633 299 642Q289 639 273 639Q254 639 238 645Q227 641 214 641Q200 641 183 646Q164 636 150 636Q137 636 120 643Q115
638 111 637Z" />
<glyph unicode="&#xb0;" glyph-name="degree" horiz-adv-x="438" d="M108 509T100 516T92 533Q92 540 97 545Q85 562 85 583Q85 619 121 642Q121 653 130 664T152 683T170 691Q175 701 187 706T213 711Q234 711 243 702Q287 682 304 666Q319 660 326 644T334 606Q334
583 328 569Q333 564 333 557Q333 553 331 550T328 545Q328 524 318 505T291 485Q286 485 280 479T267 472Q267 464 246 456T206 448H182Q173 448 166 456T158 472Q147 472 134 482T121 509Q108 509 100 516ZM258 603T252 609T243 618Q242 618 239 618T233 622T230
630Q222 622 213 620T182 618Q182 610 177 603T158 581V569Q167 569 174 562T182 545Q191 536 192 533T194 520Q202 529 210 531T230 533Q240 542 243 543T254 545Q254 566 256 575T267 594Q258 603 252 609Z" />
<glyph unicode="&#xb1;" glyph-name="plusminus" horiz-adv-x="488" d="M471 377T481 387T491 410Q491 427 476 439T436 449H433Q421 449 410 440Q404 446 393 446Q382 446 373 439Q372 448 360 448Q352 448 347 442Q340 448 328 448Q317 448 309 443Q305 452
286 452Q276 452 272 451Q279 458 279 474Q279 490 273 493Q279 502 279 515Q279 532 269 544Q270 547 270 555Q270 569 267 576Q275 587 275 597Q275 609 265 621Q275 634 275 651Q275 671 254 684Q246 689 235 689Q220 689 209 680T195 655Q188 645 188 632Q188
617 196 603Q189 597 189 583Q189 567 196 555Q190 543 190 530Q190 516 198 509Q197 506 197 499Q197 492 198 488Q191 481 191 465Q191 455 195 445Q188 449 177 449Q167 449 163 446Q157 449 148 449Q138 449 129 443Q121 445 110 445L97 444Q90 452 76 452Q60
452 53 447Q48 449 39 449Q22 449 12 437T1 408Q1 394 10 384T35 372Q47 365 57 365Q66 365 76 370Q85 364 97 364Q106 364 113 368Q121 364 133 364Q149 364 157 369Q165 367 169 367Q181 367 192 374L195 367Q190 357 190 348Q190 332 200 322Q199 319 199 313Q199
306 203 297T209 282Q197 270 197 253Q197 241 205 230Q202 223 202 214Q202 193 215 176T248 158Q265 158 276 170T286 199Q288 207 288 212Q288 222 286 232T281 250Q289 259 289 278Q289 302 278 316Q280 320 280 329Q280 340 276 347Q281 357 281 372Q303 370
311 370Q326 370 337 374Q351 366 370 366Q382 366 392 370Q406 362 422 362Q445 362 451 374Q471 377 481 387ZM398 134T423 134Q450 134 456 126Q470 122 477 113T484 92Q484 76 473 62T446 48Q434 48 423 56Q404 48 389 48Q375 48 367 50Q347 44 336 44Q322
44 311 51Q301 47 294 47Q284 47 273 53Q251 43 229 43Q206 43 194 54Q187 50 176 52Q164 35 144 35Q136 35 128 38L120 37Q109 37 98 44Q92 43 77 43Q34 43 19 60Q9 71 9 85Q9 101 23 113T55 125Q59 127 68 127Q77 127 89 123Q100 127 112 127Q124 127 136 124Q147
134 160 134Q168 134 178 130Q188 135 199 135Q203 135 211 133L219 135Q224 135 231 132T244 127Q258 136 272 136Q280 136 292 131Q301 137 313 137Q327 137 340 126Q349 129 361 129Q377 129 385 125Q398 134 423 134Z" />
<glyph unicode="&#xb2;" glyph-name="uni00B2" horiz-adv-x="342" d="M283 620T288 612T294 593Q294 578 285 568T260 559Q252 551 233 551Q219 551 213 557Q206 547 181 547Q167 547 161 551Q155 545 142 545Q131 545 123 549Q113 542 103 542Q96 542 88 545Q82
541 71 541Q64 541 59 544Q50 545 44 553T38 572Q38 583 45 589Q43 599 54 618T75 638Q75 646 89 659T111 673Q113 682 123 692T144 706Q146 720 160 733T184 746Q183 757 189 765T204 777Q200 785 200 792Q200 805 208 810Q205 812 199 819T191 834Q175 830 159
830Q149 830 137 832Q137 832 129 818T104 806Q104 796 94 786T67 774Q59 773 52 784T44 808Q44 816 47 820Q45 827 52 840T69 864T87 875Q91 886 107 893T141 901Q156 901 166 895Q172 901 184 901Q197 901 209 894T223 878Q233 882 245 872T258 848Q267 848 273
839T280 819Q280 815 278 809Q280 803 280 798Q280 787 276 783Q277 781 277 776Q277 768 273 760T264 749Q262 732 252 723Q248 703 232 698Q231 692 225 686T213 679Q211 670 201 662T179 651Q178 642 168 631T148 616Q152 617 168 617Q188 617 191 615Q199 620
209 620Q218 620 226 615Q230 619 238 622T255 625Q267 625 273 619Q283 620 288 612Z" />
<glyph unicode="&#xb3;" glyph-name="uni00B3" horiz-adv-x="347" d="M286 832T288 822T291 800Q291 787 288 782Q292 778 286 762T272 742Q271 731 263 721T244 708Q260 702 273 685T286 649Q292 640 292 622Q292 593 277 586Q276 572 262 560T236 547Q231 539
214 534T181 528Q164 528 158 534Q145 532 131 535T113 548Q101 550 89 558T73 579Q64 589 64 601Q64 610 71 616T87 623Q102 623 110 609H113Q120 609 128 603T136 592Q140 594 148 594Q164 594 180 586Q184 594 191 596T207 597Q206 605 211 616T225 632Q216
641 209 655T206 679Q198 677 193 677Q179 677 171 688Q157 687 148 696T139 718Q139 727 145 733T162 739Q168 745 185 745Q196 745 198 743Q198 762 220 771Q219 772 219 774Q219 779 222 783T229 789Q225 790 220 803T214 823Q211 821 203 821Q195 821 188 823T180
830Q176 823 166 823Q162 823 158 825Q156 819 150 814T136 809L137 805Q137 798 131 792T117 784Q117 777 111 773T95 768Q85 768 77 774Q68 781 68 798Q68 817 86 831Q85 844 93 857T113 871Q116 876 133 880T153 884Q155 888 165 891T188 894Q199 894 208 892T220
885Q229 889 245 881T272 859T280 836Q286 832 288 822Z" />
<glyph unicode="&#xb4;" glyph-name="acute" horiz-adv-x="260" d="M133 629T120 613T95 596Q82 584 69 584Q56 584 46 594T36 618Q36 638 58 652Q59 658 67 668Q67 683 74 694T100 706Q99 718 106 728T126 741Q129 750 137 756T156 763Q165 769 175 769Q189 769
199 757T210 731Q210 712 189 705Q188 692 173 685Q172 672 160 659T135 643Q133 629 120 613Z" />
<glyph unicode="&#xb5;" glyph-name="uni00B5" horiz-adv-x="600" d="M608 96T612 88T617 69Q617 53 607 40T580 27Q568 27 551 36Q545 35 535 35Q503 35 485 53T457 97Q443 67 411 47Q410 35 394 19T355 -8T311 -20Q289 -20 274 -6Q266 -10 257 -10Q237 -10 220
12Q221 8 221 0Q221 -21 201 -35Q201 -64 195 -80T165 -96Q141 -96 130 -80T118 -40Q118 -11 132 8Q127 20 127 26Q127 33 131 37Q122 51 122 73Q122 95 132 111Q129 117 129 127Q129 137 133 153Q123 164 123 180Q123 187 124 190Q119 198 119 210Q119 221 123
232T133 248Q128 268 128 285Q128 307 135 331Q124 345 124 360Q124 378 138 387Q129 392 129 409Q129 420 131 426Q120 439 120 455Q120 468 125 475Q121 483 121 494Q121 507 126 514Q126 533 137 543T165 553Q183 553 196 543T209 515Q209 508 206 499Q214 488
214 474Q214 467 211 459Q219 448 219 435Q219 426 214 416Q219 407 219 387Q219 369 215 360Q224 345 224 327Q224 307 212 283Q220 270 220 253Q220 229 205 212Q218 210 226 197T235 166Q235 154 231 145Q243 132 245 103Q261 96 268 80Q276 84 285 84Q309 84
321 64Q321 79 338 100T374 126Q373 130 373 136Q373 147 377 155T386 167Q384 175 384 178Q384 191 396 204Q394 216 394 226Q394 252 399 267Q394 274 394 295Q394 307 396 318T402 333Q400 341 404 355T408 373Q402 387 402 401Q402 417 408 432Q400 437 395
449T389 473Q389 490 401 503Q403 518 415 527T441 537Q455 537 467 528Q484 526 493 514T503 487Q503 468 488 456Q497 444 497 429Q497 419 493 411Q498 398 498 382Q498 369 494 361Q501 348 501 328Q501 309 495 294Q509 282 509 262Q509 249 501 238Q504 231
504 222Q504 214 499 204Q503 197 508 191T517 179T521 165Q521 160 518 152Q526 142 531 133T542 118Q563 119 576 116T599 100Q608 96 612 88Z" />
<glyph unicode="&#xb6;" glyph-name="paragraph" horiz-adv-x="640" d="M82 430T79 437T75 454Q75 475 90 484Q89 487 89 494Q89 505 94 514T109 529Q107 560 117 577T149 605Q151 617 154 623T167 631Q173 642 184 648T208 655Q211 655 219 653Q227 664 241 670T271
677Q289 702 324 702Q341 702 356 696T377 680Q392 690 408 690Q428 690 442 670Q449 660 449 648Q449 636 443 626T427 611Q432 596 435 575T439 532Q439 499 429 482Q436 468 436 449Q436 434 430 423Q433 416 433 407Q433 403 431 395Q440 385 440 370Q440 353
427 340Q434 333 437 321T441 297Q441 281 435 272Q438 265 438 258Q438 250 435 241T430 226Q442 215 442 195Q442 188 441 182T440 168V149Q440 133 436 124Q442 114 442 103Q442 94 440 89Q449 79 449 64Q449 46 433 33Q436 14 424 0T393 -14Q373 -14 363 0T353
35Q353 50 359 62Q353 71 353 83Q353 95 360 105Q354 119 354 142Q354 169 362 187Q351 197 349 212Q339 202 322 202Q303 202 293 215Q284 211 270 211Q241 211 225 227Q210 226 196 237T173 262Q160 263 144 278T118 314T111 347Q100 357 93 376T85 412Q85 422
87 426Q82 430 79 437ZM549 632T549 649Q549 664 537 673T507 683Q491 683 478 673T461 642Q450 630 450 610Q450 597 455 585T468 564Q461 554 461 540Q461 526 470 515Q460 505 460 487Q460 480 464 468Q455 455 455 435Q455 409 469 393Q461 382 461 369Q461
352 473 340Q464 327 464 304Q464 287 468 274Q464 265 464 251Q464 233 472 217Q467 207 467 198Q467 183 478 170Q464 158 464 139Q464 128 471 117Q466 106 466 84Q466 64 471 46T488 17Q492 3 502 -5T526 -13Q544 -13 557 -1T566 32Q568 40 568 44Q568 55 562
65T546 84Q555 95 555 109Q555 120 550 135Q559 147 559 166Q559 181 554 194Q561 204 561 216Q561 232 550 245Q552 253 552 261Q552 279 544 290Q556 302 556 331Q556 358 548 371Q554 385 554 398Q554 422 538 435Q552 447 552 465Q552 477 545 487Q551 499
551 519Q551 533 547 540Q555 554 555 568Q555 594 532 612Q549 632 549 649ZM313 603T296 593T265 582Q249 572 227 574Q221 570 217 569Q215 558 207 550T188 538Q190 532 190 519Q190 491 176 477V473Q176 456 166 445Q168 440 168 431Q168 421 164 413Q167
410 169 402Q198 389 198 364Q198 355 194 346Q199 344 199 341Q213 341 224 332T239 308Q245 307 251 302Q257 304 260 304Q271 304 286 294Q294 298 303 298Q312 298 319 294Q328 300 341 300T359 301Q344 313 344 341Q344 359 352 372Q349 380 349 389Q349 393
351 403Q344 413 344 426Q344 443 355 454Q342 469 342 486Q342 504 356 515Q353 532 353 543Q353 554 356 567Q350 572 343 586T337 608Q328 608 320 614Q313 603 296 593Z" />
<glyph unicode="&#xb7;" glyph-name="middot" horiz-adv-x="323" d="M114 294T114 304Q114 312 116 319T122 329Q122 340 133 347T157 354Q173 354 181 343Q197 347 210 333T221 298Q227 291 227 281Q227 271 222 263T207 253Q205 245 194 240T172 234Q166 234
163 235Q160 234 153 234Q138 234 126 246T114 273Q114 282 118 287Q114 294 114 304Z" />
<glyph unicode="&#xb8;" glyph-name="cedilla" horiz-adv-x="246" d="M85 -66Q78 -66 73 -62Q55 -53 55 -33Q55 -19 65 -8T92 2Q104 7 111 7Q121 7 129 -2Q140 -2 153 -10T174 -34T180 -65Q185 -72 189 -83T193 -107Q193 -131 178 -139Q183 -153 171 -165T145
-176Q135 -191 119 -191Q105 -191 94 -181T83 -158Q83 -146 91 -137Q92 -126 99 -118T117 -108L122 -101Q115 -93 112 -76Q99 -74 93 -65L85 -66Z" />
<glyph unicode="&#xb9;" glyph-name="uni00B9" horiz-adv-x="280" d="M232 649T235 635T239 607Q239 573 218 559Q208 552 197 552Q185 552 176 561T165 586Q150 606 150 633Q150 645 153 657Q145 668 145 685Q145 696 149 700Q145 718 145 724Q145 732 149 746Q138
760 138 775Q138 783 143 793Q138 801 138 813Q135 809 127 806T108 803Q95 803 90 807Q77 798 60 798Q43 798 31 807T19 833Q19 853 41 868T84 881Q89 887 96 889T110 892T118 891Q118 897 131 903T153 908Q158 915 175 915Q188 915 194 908Q207 903 215 889T223
858Q223 839 213 828Q227 817 227 783Q227 758 219 749Q225 740 227 731T229 705Q234 695 234 680Q234 665 228 657Q232 649 235 635Z" />
<glyph unicode="&#xba;" glyph-name="ordmasculine" horiz-adv-x="537" d="M308 0T283 0Q264 0 252 6Q234 2 220 2Q181 2 164 22Q160 21 153 21Q130 21 118 42Q108 41 93 52T79 75Q63 79 53 94T43 130Q32 134 26 146T20 173Q20 189 25 196Q14 213 14 235Q14 258
28 272Q17 280 17 296Q17 306 22 316T35 330Q33 344 38 356T54 375Q52 378 52 384Q52 393 58 402T73 413Q72 416 72 421Q72 442 88 457T119 471Q119 485 131 494T164 504Q173 504 178 503Q185 518 202 527T237 537Q249 537 257 532Q271 544 292 544Q309 544 322
536T339 514Q355 514 373 503T394 479Q418 472 440 449T463 401Q463 397 461 389Q504 380 500 302Q509 287 509 270Q509 250 496 230Q499 221 499 213Q499 201 494 190T481 173Q482 157 476 147T452 120Q453 116 453 108Q453 78 419 69Q416 53 403 43T370 33Q354
11 331 11Q324 11 320 12Q308 0 283 0ZM234 89T253 89Q267 89 268 85Q276 94 288 99T310 103Q327 120 347 120Q354 120 357 119Q356 128 362 136T376 148Q376 161 382 170T399 185Q399 205 407 217Q404 225 404 233Q404 244 409 254T423 272Q413 281 413 294Q413
306 420 318Q400 330 394 341T387 384Q378 383 369 394T357 419Q346 416 331 425T315 450Q307 446 296 446Q275 446 262 461Q251 450 234 444T203 439Q202 429 186 416T156 398Q159 392 159 384Q159 374 154 364T140 347Q141 333 134 320T113 302Q115 294 115 289Q115
275 108 267Q111 260 111 253Q111 242 100 229Q125 212 125 180Q125 163 119 151Q129 150 133 145T140 129Q165 126 177 105Q188 105 204 98T226 82Q234 89 253 89Z" />
<glyph unicode="&#xbb;" glyph-name="guillemotright" horiz-adv-x="306" d="M275 307T281 298T288 273Q288 262 282 248L238 205Q238 190 230 180T211 160T194 146Q194 139 182 125T152 99T121 88Q113 86 109 86Q94 86 84 97T74 124Q74 153 107 161V175Q107 196
123 215T151 234Q153 239 162 254T180 278L157 300L121 336Q110 347 106 355T92 380Q81 380 72 389T63 409Q52 409 43 418T34 438Q28 450 28 461Q28 481 43 495T75 509Q86 509 94 503T107 482Q118 482 127 473T136 453Q150 439 157 429T165 409Q176 409 192 393T209
365Q231 365 249 347T267 307Q275 307 281 298Z" />
<glyph unicode="&#xbc;" glyph-name="onequarter" horiz-adv-x="517" d="M-29 45T-20 59T0 75Q-1 79 -1 88Q-1 104 6 119T27 144Q29 158 42 173T68 193Q68 202 72 211T84 226Q83 229 83 234Q83 255 101 274T140 298Q139 302 139 310Q139 329 148 346T176 372Q177
383 182 392T195 405Q196 418 206 430T228 447Q229 453 236 460T251 468Q247 477 247 488Q247 513 276 535Q288 579 319 590Q321 604 326 610T342 624Q341 640 345 656T360 684Q370 703 387 716T422 730Q437 730 449 722Q468 710 468 692Q468 681 462 670T450 649T441
636Q437 623 432 616T417 602Q414 589 410 583T396 570Q397 551 386 536T357 518Q354 502 335 481Q336 478 336 470Q336 446 318 419T280 388Q280 363 258 351Q257 334 245 316T219 293Q213 267 199 245T168 221Q167 198 150 181Q152 164 143 148T116 126Q112 109
93 98Q91 74 80 49T49 13Q48 -10 35 -21T5 -33Q-12 -33 -24 -23T-37 4Q-37 18 -29 31Q-29 45 -20 59ZM419 836T422 822T426 794Q426 760 405 746Q395 739 384 739Q372 739 363 748T352 773Q337 793 337 820Q337 832 340 844Q332 855 332 872Q332 883 336 887Q332
905 332 911Q332 919 336 933Q325 947 325 962Q325 970 330 980Q325 988 325 1000Q322 996 314 993T295 990Q282 990 277 994Q264 985 247 985Q230 985 218 994T206 1020Q206 1040 228 1055T271 1068Q276 1074 283 1076T297 1079T305 1078Q305 1084 318 1090T340
1095Q345 1102 362 1102Q375 1102 381 1095Q394 1090 402 1076T410 1045Q410 1026 400 1015Q414 1004 414 970Q414 945 406 936Q412 927 414 918T416 892Q421 882 421 867Q421 852 415 844Q419 836 422 822ZM486 164T490 158T495 143Q495 129 486 120Q474 108 458
108Q454 108 448 110Q451 104 451 96Q451 83 443 75Q447 73 449 68T451 56Q451 46 445 41Q444 32 436 27T417 21Q404 21 395 27T385 43Q385 46 387 52Q382 62 382 77Q382 96 387 111Q378 107 355 107Q327 107 315 112Q307 108 281 108Q259 108 253 111Q240 112
233 120T226 139Q226 156 238 162Q240 170 246 178T259 187Q259 198 265 209T282 226Q283 234 288 241T301 250Q302 261 312 274T331 287Q330 295 339 308T356 324Q360 338 376 347Q375 349 375 353Q375 359 378 364T387 370Q396 385 414 385Q429 385 440 375T448
351Q453 341 453 318Q453 296 448 288Q453 278 453 264Q453 254 451 244T446 231Q452 215 452 193Q452 181 449 170L454 171Q460 171 468 169T478 164Q486 164 490 158ZM377 201T377 213Q377 223 380 226Q375 230 375 243T376 258Q372 244 361 237Q362 233 349
215T331 193Q331 190 324 179T313 165Q322 168 333 168Q342 168 345 164Q352 168 364 168Q369 168 372 168T376 167V172Q376 193 380 198Q377 201 377 213Z" />
<glyph unicode="&#xbd;" glyph-name="onehalf" horiz-adv-x="540" d="M-29 45T-20 59T0 75Q-1 79 -1 88Q-1 104 6 119T27 144Q29 158 42 173T68 193Q68 202 72 211T84 226Q83 229 83 234Q83 255 101 274T140 298Q139 302 139 310Q139 329 148 346T176 372Q177
383 182 392T195 405Q196 418 206 430T228 447Q229 453 236 460T251 468Q247 477 247 488Q247 513 276 535Q288 579 319 590Q321 604 326 610T342 624Q341 640 345 656T360 684Q370 703 387 716T422 730Q437 730 449 722Q468 710 468 692Q468 681 462 670T450 649T441
636Q437 623 432 616T417 602Q414 589 410 583T396 570Q397 551 386 536T357 518Q354 502 335 481Q336 478 336 470Q336 446 318 419T280 388Q280 363 258 351Q257 334 245 316T219 293Q213 267 199 245T168 221Q167 198 150 181Q152 164 143 148T116 126Q112 109
93 98Q91 74 80 49T49 13Q48 -10 35 -21T5 -33Q-12 -33 -24 -23T-37 4Q-37 18 -29 31Q-29 45 -20 59ZM452 824T455 810T459 782Q459 748 438 734Q428 727 417 727Q405 727 396 736T385 761Q370 781 370 808Q370 820 373 832Q365 843 365 860Q365 871 369 875Q365
893 365 899Q365 907 369 921Q358 935 358 950Q358 958 363 968Q358 976 358 988Q355 984 347 981T328 978Q315 978 310 982Q297 973 280 973Q263 973 251 982T239 1008Q239 1028 261 1043T304 1056Q309 1062 316 1064T330 1067T338 1066Q338 1072 351 1078T373
1083Q378 1090 395 1090Q408 1090 414 1083Q427 1078 435 1064T443 1033Q443 1014 433 1003Q447 992 447 958Q447 933 439 924Q445 915 447 906T449 880Q454 870 454 855Q454 840 448 832Q452 824 455 810ZM512 64T517 56T523 37Q523 22 514 12T489 3Q481 -5 462
-5Q448 -5 442 1Q435 -9 410 -9Q396 -9 390 -5Q384 -11 371 -11Q360 -11 352 -7Q342 -14 332 -14Q325 -14 317 -11Q311 -15 300 -15Q293 -15 288 -12Q279 -11 273 -3T267 16Q267 27 274 33Q272 43 283 62T304 82Q304 90 318 103T340 117Q342 126 352 136T373 150Q375
164 389 177T413 190Q412 201 418 209T433 221Q429 229 429 236Q429 249 437 254Q434 256 428 263T420 278Q404 274 388 274Q378 274 366 276Q366 276 358 262T333 250Q333 240 323 230T296 218Q288 217 281 228T273 252Q273 260 276 264Q274 271 281 284T298 308T316
319Q320 330 336 337T370 345Q385 345 395 339Q401 345 413 345Q426 345 438 338T452 322Q462 326 474 316T487 292Q496 292 502 283T509 263Q509 259 507 253Q509 247 509 242Q509 231 505 227Q506 225 506 220Q506 212 502 204T493 193Q491 176 481 167Q477 147
461 142Q460 136 454 130T442 123Q440 114 430 106T408 95Q407 86 397 75T377 60Q381 61 397 61Q417 61 420 59Q428 64 438 64Q447 64 455 59Q459 63 467 66T484 69Q496 69 502 63Q512 64 517 56Z" />
<glyph unicode="&#xbe;" glyph-name="threequarters" horiz-adv-x="595" d="M-29 45T-20 59T0 75Q-1 79 -1 88Q-1 104 6 119T27 144Q29 158 42 173T68 193Q68 202 72 211T84 226Q83 229 83 234Q83 255 101 274T140 298Q139 302 139 310Q139 329 148 346T176 372Q177
383 182 392T195 405Q196 418 206 430T228 447Q229 453 236 460T251 468Q247 477 247 488Q247 513 276 535Q288 579 319 590Q321 604 326 610T342 624Q341 640 345 656T360 684Q370 703 387 716T422 730Q437 730 449 722Q468 710 468 692Q468 681 462 670T450 649T441
636Q437 623 432 616T417 602Q414 589 410 583T396 570Q397 551 386 536T357 518Q354 502 335 481Q336 478 336 470Q336 446 318 419T280 388Q280 363 258 351Q257 334 245 316T219 293Q213 267 199 245T168 221Q167 198 150 181Q152 164 143 148T116 126Q112 109
93 98Q91 74 80 49T49 13Q48 -10 35 -21T5 -33Q-12 -33 -24 -23T-37 4Q-37 18 -29 31Q-29 45 -20 59ZM514 170T518 164T523 149Q523 135 514 126Q502 114 486 114Q482 114 476 116Q479 110 479 102Q479 89 471 81Q475 79 477 74T479 62Q479 52 473 47Q472 38 464
33T445 27Q432 27 423 33T413 49Q413 52 415 58Q410 68 410 83Q410 102 415 117Q406 113 383 113Q355 113 343 118Q335 114 309 114Q287 114 281 117Q268 118 261 126T254 145Q254 162 266 168Q268 176 274 184T287 193Q287 204 293 215T310 232Q311 240 316 247T329
256Q330 267 340 280T359 293Q358 301 367 314T384 330Q388 344 404 353Q403 355 403 359Q403 365 406 370T415 376Q424 391 442 391Q457 391 468 381T476 357Q481 347 481 324Q481 302 476 294Q481 284 481 270Q481 260 479 250T474 237Q480 221 480 199Q480 187
477 176L482 177Q488 177 496 175T506 170Q514 170 518 164ZM405 207T405 219Q405 229 408 232Q403 236 403 249T404 264Q400 250 389 243Q390 239 377 221T359 199Q359 196 352 185T341 171Q350 174 361 174Q370 174 373 170Q380 174 392 174Q397 174 400 174T404
173V178Q404 199 408 204Q405 207 405 219ZM432 1005T434 995T437 973Q437 960 434 955Q438 951 432 935T418 915Q417 904 409 894T390 881Q406 875 419 858T432 822Q438 813 438 795Q438 766 423 759Q422 745 408 733T382 720Q377 712 360 707T327 701Q310 701
304 707Q291 705 277 708T259 721Q247 723 235 731T219 752Q210 762 210 774Q210 783 217 789T233 796Q248 796 256 782H259Q266 782 274 776T282 765Q286 767 294 767Q310 767 326 759Q330 767 337 769T353 770Q352 778 357 789T371 805Q362 814 355 828T352 852Q344
850 339 850Q325 850 317 861Q303 860 294 869T285 891Q285 900 291 906T308 912Q314 918 331 918Q342 918 344 916Q344 935 366 944Q365 945 365 947Q365 952 368 956T375 962Q371 963 366 976T360 996Q357 994 349 994Q341 994 334 996T326 1003Q322 996 312
996Q308 996 304 998Q302 992 296 987T282 982L283 978Q283 971 277 965T263 957Q263 950 257 946T241 941Q231 941 223 947Q214 954 214 971Q214 990 232 1004Q231 1017 239 1030T259 1044Q262 1049 279 1053T299 1057Q301 1061 311 1064T334 1067Q345 1067 354
1065T366 1058Q375 1062 391 1054T418 1032T426 1009Q432 1005 434 995Z" />
<glyph unicode="&#xbf;" glyph-name="questiondown" horiz-adv-x="442" d="M234 517T224 504T213 472Q213 456 222 445T248 434Q256 434 260 435Q266 433 270 433Q284 433 296 446T308 475Q308 497 292 507T252 516Q234 517 224 504ZM329 -13T336 -7T350 2T365
6Q373 6 380 2Q390 -4 395 -13T401 -34Q401 -47 394 -58T374 -73Q371 -89 353 -110Q354 -113 354 -120Q354 -141 331 -157T283 -173Q275 -173 272 -172Q268 -183 254 -190T224 -198Q216 -198 208 -194Q201 -198 190 -198Q176 -198 162 -191T140 -170Q120 -169 109
-157T95 -129Q66 -114 66 -90Q66 -86 68 -76Q58 -66 58 -49Q58 -41 61 -33Q50 -22 50 -1Q50 14 56 28T74 51Q71 59 71 65Q71 72 76 81Q78 94 84 101T101 113Q110 129 120 140T146 159Q144 167 144 172Q144 184 150 194T168 209Q169 223 175 230T193 242Q193 249
196 253Q185 267 185 281Q185 303 208 317Q209 334 222 345T251 356Q263 356 273 349Q290 338 290 312Q290 290 277 272Q279 267 279 256Q279 235 269 212T246 181Q244 159 227 148Q226 126 209 106T161 58Q162 41 156 25T137 -1Q146 -12 146 -28Q146 -35 145 -38Q157
-52 154 -71Q160 -75 163 -82Q178 -81 190 -89T207 -112H216Q240 -90 262 -90Q265 -90 273 -92Q269 -81 279 -69T302 -55Q300 -43 307 -31T327 -14Q329 -13 336 -7Z" />
<glyph unicode="&#xc0;" glyph-name="Agrave" horiz-adv-x="673" d="M583 108T600 101T614 54Q618 46 618 36Q618 20 605 10T575 0Q560 0 550 9T539 37Q528 39 517 54T505 86Q505 90 507 98Q497 103 490 118T479 151T477 175Q464 181 457 204T451 245Q444 242
434 242Q414 242 397 254Q384 241 358 241Q334 241 324 253Q311 242 296 242Q284 242 277 247Q270 242 256 242Q244 242 232 246T213 257Q212 257 208 255Q214 236 214 221Q214 198 191 181Q195 173 195 162Q195 140 180 120T151 98Q155 89 155 77Q155 50 137 28T93
5Q86 5 82 6Q69 6 62 14T55 35Q55 44 60 56Q59 60 59 68Q59 88 79 103Q78 106 78 112Q78 127 85 142T105 163Q104 165 104 172Q104 189 112 211T130 237Q128 281 159 326Q159 349 166 369T191 399Q192 418 200 437T218 469Q215 480 215 489Q215 503 220 511T233
522Q232 526 232 534Q232 556 248 569L247 575Q247 590 259 602Q258 606 258 613Q258 631 267 649T287 673Q305 698 325 698Q334 698 348 692Q377 691 390 647Q399 636 403 622T406 595Q415 589 419 579T423 558Q433 549 440 530T448 494Q448 486 447 483Q454 476
459 463T465 439Q465 433 464 430Q477 421 485 402T497 365T499 339Q501 336 510 325T524 302T529 280Q529 271 527 267Q531 262 536 256T544 244T547 232Q547 225 546 222Q554 214 560 201T566 176Q566 166 562 161Q573 153 579 138T583 108Q583 108 600 101ZM401
331T408 332T420 331Q418 337 418 340Q418 348 422 352Q413 359 408 370T403 392Q396 394 391 402T385 421Q385 424 387 432Q366 445 366 471Q366 481 369 494Q368 495 364 498T361 510Q341 516 342 542Q334 546 329 557Q331 534 311 521Q312 510 307 496T295 475Q296
471 296 462Q296 439 277 401Q272 390 269 381Q265 371 261 361T249 346Q249 336 245 328L253 329Q263 329 268 324Q271 329 280 329Q286 329 289 326Q301 335 319 335Q332 335 343 331T361 320Q371 331 382 331Q389 331 399 325Q401 331 408 332ZM180 856T180
880Q180 894 187 902T207 911Q228 911 253 882Q265 878 279 865T299 838Q311 835 323 827T340 808Q354 791 354 777Q354 764 340 754Q329 746 319 746Q311 746 302 751T284 762Q268 762 252 769T233 793Q216 798 210 808T201 835Q180 856 180 880Z" />
<glyph unicode="&#xc1;" glyph-name="Aacute" horiz-adv-x="673" d="M583 108T600 101T614 54Q618 46 618 36Q618 20 605 10T575 0Q560 0 550 9T539 37Q528 39 517 54T505 86Q505 90 507 98Q497 103 490 118T479 151T477 175Q464 181 457 204T451 245Q444 242
434 242Q414 242 397 254Q384 241 358 241Q334 241 324 253Q311 242 296 242Q284 242 277 247Q270 242 256 242Q244 242 232 246T213 257Q212 257 208 255Q214 236 214 221Q214 198 191 181Q195 173 195 162Q195 140 180 120T151 98Q155 89 155 77Q155 50 137 28T93
5Q86 5 82 6Q69 6 62 14T55 35Q55 44 60 56Q59 60 59 68Q59 88 79 103Q78 106 78 112Q78 127 85 142T105 163Q104 165 104 172Q104 189 112 211T130 237Q128 281 159 326Q159 349 166 369T191 399Q192 418 200 437T218 469Q215 480 215 489Q215 503 220 511T233
522Q232 526 232 534Q232 556 248 569L247 575Q247 590 259 602Q258 606 258 613Q258 631 267 649T287 673Q305 698 325 698Q334 698 348 692Q377 691 390 647Q399 636 403 622T406 595Q415 589 419 579T423 558Q433 549 440 530T448 494Q448 486 447 483Q454 476
459 463T465 439Q465 433 464 430Q477 421 485 402T497 365T499 339Q501 336 510 325T524 302T529 280Q529 271 527 267Q531 262 536 256T544 244T547 232Q547 225 546 222Q554 214 560 201T566 176Q566 166 562 161Q573 153 579 138T583 108Q583 108 600 101ZM401
331T408 332T420 331Q418 337 418 340Q418 348 422 352Q413 359 408 370T403 392Q396 394 391 402T385 421Q385 424 387 432Q366 445 366 471Q366 481 369 494Q368 495 364 498T361 510Q341 516 342 542Q334 546 329 557Q331 534 311 521Q312 510 307 496T295 475Q296
471 296 462Q296 439 277 401Q272 390 269 381Q265 371 261 361T249 346Q249 336 245 328L253 329Q263 329 268 324Q271 329 280 329Q286 329 289 326Q301 335 319 335Q332 335 343 331T361 320Q371 331 382 331Q389 331 399 325Q401 331 408 332ZM351 776T338
760T313 743Q300 731 287 731Q274 731 264 741T254 765Q254 785 276 799Q277 805 285 815Q285 830 292 841T318 853Q317 865 324 875T344 888Q347 897 355 903T374 910Q383 916 393 916Q407 916 417 904T428 878Q428 859 407 852Q406 839 391 832Q390 819 378 806T353
790Q351 776 338 760Z" />
<glyph unicode="&#xc2;" glyph-name="Acircumflex" horiz-adv-x="607" d="M583 108T600 101T614 54Q618 46 618 36Q618 20 605 10T575 0Q560 0 550 9T539 37Q528 39 517 54T505 86Q505 90 507 98Q497 103 490 118T479 151T477 175Q464 181 457 204T451 245Q444
242 434 242Q414 242 397 254Q384 241 358 241Q334 241 324 253Q311 242 296 242Q284 242 277 247Q270 242 256 242Q244 242 232 246T213 257Q212 257 208 255Q214 236 214 221Q214 198 191 181Q195 173 195 162Q195 140 180 120T151 98Q155 89 155 77Q155 50 137
28T93 5Q86 5 82 6Q69 6 62 14T55 35Q55 44 60 56Q59 60 59 68Q59 88 79 103Q78 106 78 112Q78 127 85 142T105 163Q104 165 104 172Q104 189 112 211T130 237Q128 281 159 326Q159 349 166 369T191 399Q192 418 200 437T218 469Q215 480 215 489Q215 503 220 511T233
522Q232 526 232 534Q232 556 248 569L247 575Q247 590 259 602Q258 606 258 613Q258 631 267 649T287 673Q305 698 325 698Q334 698 348 692Q377 691 390 647Q399 636 403 622T406 595Q415 589 419 579T423 558Q433 549 440 530T448 494Q448 486 447 483Q454 476
459 463T465 439Q465 433 464 430Q477 421 485 402T497 365T499 339Q501 336 510 325T524 302T529 280Q529 271 527 267Q531 262 536 256T544 244T547 232Q547 225 546 222Q554 214 560 201T566 176Q566 166 562 161Q573 153 579 138T583 108Q583 108 600 101ZM401
331T408 332T420 331Q418 337 418 340Q418 348 422 352Q413 359 408 370T403 392Q396 394 391 402T385 421Q385 424 387 432Q366 445 366 471Q366 481 369 494Q368 495 364 498T361 510Q341 516 342 542Q334 546 329 557Q331 534 311 521Q312 510 307 496T295 475Q296
471 296 462Q296 439 277 401Q272 390 269 381Q265 371 261 361T249 346Q249 336 245 328L253 329Q263 329 268 324Q271 329 280 329Q286 329 289 326Q301 335 319 335Q332 335 343 331T361 320Q371 331 382 331Q389 331 399 325Q401 331 408 332ZM388 851T401
838T415 813Q427 808 435 795T445 770Q463 759 463 743Q463 731 448 722Q442 719 435 719Q423 719 414 727T403 747Q394 751 384 763T372 785Q363 784 350 794T335 813Q332 802 320 789T300 775Q297 766 289 756T273 744Q269 732 260 723T238 713Q230 713 219 719Q214
723 211 730T207 744Q207 760 219 770Q221 781 228 791T245 807Q246 817 253 824T272 834Q276 847 286 851Q287 856 293 860T306 867Q309 876 318 883T336 890Q346 890 353 883Q364 884 372 874T380 851Q388 851 401 838Z" />
<glyph unicode="&#xc3;" glyph-name="Atilde" horiz-adv-x="673" d="M583 108T600 101T614 54Q618 46 618 36Q618 20 605 10T575 0Q560 0 550 9T539 37Q528 39 517 54T505 86Q505 90 507 98Q497 103 490 118T479 151T477 175Q464 181 457 204T451 245Q444 242
434 242Q414 242 397 254Q384 241 358 241Q334 241 324 253Q311 242 296 242Q284 242 277 247Q270 242 256 242Q244 242 232 246T213 257Q212 257 208 255Q214 236 214 221Q214 198 191 181Q195 173 195 162Q195 140 180 120T151 98Q155 89 155 77Q155 50 137 28T93
5Q86 5 82 6Q69 6 62 14T55 35Q55 44 60 56Q59 60 59 68Q59 88 79 103Q78 106 78 112Q78 127 85 142T105 163Q104 165 104 172Q104 189 112 211T130 237Q128 281 159 326Q159 349 166 369T191 399Q192 418 200 437T218 469Q215 480 215 489Q215 503 220 511T233
522Q232 526 232 534Q232 556 248 569L247 575Q247 590 259 602Q258 606 258 613Q258 631 267 649T287 673Q305 698 325 698Q334 698 348 692Q377 691 390 647Q399 636 403 622T406 595Q415 589 419 579T423 558Q433 549 440 530T448 494Q448 486 447 483Q454 476
459 463T465 439Q465 433 464 430Q477 421 485 402T497 365T499 339Q501 336 510 325T524 302T529 280Q529 271 527 267Q531 262 536 256T544 244T547 232Q547 225 546 222Q554 214 560 201T566 176Q566 166 562 161Q573 153 579 138T583 108Q583 108 600 101ZM401
331T408 332T420 331Q418 337 418 340Q418 348 422 352Q413 359 408 370T403 392Q396 394 391 402T385 421Q385 424 387 432Q366 445 366 471Q366 481 369 494Q368 495 364 498T361 510Q341 516 342 542Q334 546 329 557Q331 534 311 521Q312 510 307 496T295 475Q296
471 296 462Q296 439 277 401Q272 390 269 381Q265 371 261 361T249 346Q249 336 245 328L253 329Q263 329 268 324Q271 329 280 329Q286 329 289 326Q301 335 319 335Q332 335 343 331T361 320Q371 331 382 331Q389 331 399 325Q401 331 408 332ZM425 842T425
845Q425 859 435 869T461 879Q494 879 496 844Q502 834 502 824Q502 805 484 797Q483 791 479 787T473 781Q470 774 460 770T439 767Q432 756 421 751T399 745Q384 745 378 752Q375 751 369 751Q355 751 346 761Q338 759 326 762T309 774Q301 772 297 772Q287 772
280 777T268 791Q265 790 259 790Q258 784 251 777T235 767Q221 742 193 737Q182 729 170 729Q157 729 148 739T138 761Q138 773 147 783T174 797Q173 801 173 808Q173 831 193 844T234 858Q240 858 243 857Q251 864 267 864Q285 864 302 856T324 833Q334 835 335
835Q341 835 349 831H354Q367 831 375 823Q385 825 388 825Q398 825 405 819Q412 831 427 834Q425 842 425 845Z" />
<glyph unicode="&#xc4;" glyph-name="Adieresis" horiz-adv-x="673" d="M583 108T600 101T614 54Q618 46 618 36Q618 20 605 10T575 0Q560 0 550 9T539 37Q528 39 517 54T505 86Q505 90 507 98Q497 103 490 118T479 151T477 175Q464 181 457 204T451 245Q444 242
434 242Q414 242 397 254Q384 241 358 241Q334 241 324 253Q311 242 296 242Q284 242 277 247Q270 242 256 242Q244 242 232 246T213 257Q212 257 208 255Q214 236 214 221Q214 198 191 181Q195 173 195 162Q195 140 180 120T151 98Q155 89 155 77Q155 50 137 28T93
5Q86 5 82 6Q69 6 62 14T55 35Q55 44 60 56Q59 60 59 68Q59 88 79 103Q78 106 78 112Q78 127 85 142T105 163Q104 165 104 172Q104 189 112 211T130 237Q128 281 159 326Q159 349 166 369T191 399Q192 418 200 437T218 469Q215 480 215 489Q215 503 220 511T233
522Q232 526 232 534Q232 556 248 569L247 575Q247 590 259 602Q258 606 258 613Q258 631 267 649T287 673Q305 698 325 698Q334 698 348 692Q377 691 390 647Q399 636 403 622T406 595Q415 589 419 579T423 558Q433 549 440 530T448 494Q448 486 447 483Q454 476
459 463T465 439Q465 433 464 430Q477 421 485 402T497 365T499 339Q501 336 510 325T524 302T529 280Q529 271 527 267Q531 262 536 256T544 244T547 232Q547 225 546 222Q554 214 560 201T566 176Q566 166 562 161Q573 153 579 138T583 108Q583 108 600 101ZM401
331T408 332T420 331Q418 337 418 340Q418 348 422 352Q413 359 408 370T403 392Q396 394 391 402T385 421Q385 424 387 432Q366 445 366 471Q366 481 369 494Q368 495 364 498T361 510Q341 516 342 542Q334 546 329 557Q331 534 311 521Q312 510 307 496T295 475Q296
471 296 462Q296 439 277 401Q272 390 269 381Q265 371 261 361T249 346Q249 336 245 328L253 329Q263 329 268 324Q271 329 280 329Q286 329 289 326Q301 335 319 335Q332 335 343 331T361 320Q371 331 382 331Q389 331 399 325Q401 331 408 332ZM399 748T385
748Q373 748 364 756T354 776Q354 788 366 800Q367 821 388 831Q400 847 416 847Q431 847 443 835T455 808Q455 792 439 780Q440 770 434 765T417 760L409 761Q399 748 385 748ZM180 788T180 778Q180 764 192 755T219 746Q235 746 246 755T257 782Q257 788 256
791Q260 799 260 808Q260 823 248 831T221 840Q204 840 194 830T186 800Q180 788 180 778Z" />
<glyph unicode="&#xc5;" glyph-name="Aring" horiz-adv-x="673" d="M583 108T600 101T614 54Q618 46 618 36Q618 20 605 10T575 0Q560 0 550 9T539 37Q528 39 517 54T505 86Q505 90 507 98Q497 103 490 118T479 151T477 175Q464 181 457 204T451 245Q444 242 434
242Q414 242 397 254Q384 241 358 241Q334 241 324 253Q311 242 296 242Q284 242 277 247Q270 242 256 242Q244 242 232 246T213 257Q212 257 208 255Q214 236 214 221Q214 198 191 181Q195 173 195 162Q195 140 180 120T151 98Q155 89 155 77Q155 50 137 28T93
5Q86 5 82 6Q69 6 62 14T55 35Q55 44 60 56Q59 60 59 68Q59 88 79 103Q78 106 78 112Q78 127 85 142T105 163Q104 165 104 172Q104 189 112 211T130 237Q128 281 159 326Q159 349 166 369T191 399Q192 418 200 437T218 469Q215 480 215 489Q215 503 220 511T233
522Q232 526 232 534Q232 556 248 569L247 575Q247 590 259 602Q258 606 258 613Q258 631 267 649T287 673Q305 698 325 698Q334 698 348 692Q377 691 390 647Q399 636 403 622T406 595Q415 589 419 579T423 558Q433 549 440 530T448 494Q448 486 447 483Q454 476
459 463T465 439Q465 433 464 430Q477 421 485 402T497 365T499 339Q501 336 510 325T524 302T529 280Q529 271 527 267Q531 262 536 256T544 244T547 232Q547 225 546 222Q554 214 560 201T566 176Q566 166 562 161Q573 153 579 138T583 108Q583 108 600 101ZM401
331T408 332T420 331Q418 337 418 340Q418 348 422 352Q413 359 408 370T403 392Q396 394 391 402T385 421Q385 424 387 432Q366 445 366 471Q366 481 369 494Q368 495 364 498T361 510Q341 516 342 542Q334 546 329 557Q331 534 311 521Q312 510 307 496T295 475Q296
471 296 462Q296 439 277 401Q272 390 269 381Q265 371 261 361T249 346Q249 336 245 328L253 329Q263 329 268 324Q271 329 280 329Q286 329 289 326Q301 335 319 335Q332 335 343 331T361 320Q371 331 382 331Q389 331 399 325Q401 331 408 332ZM215 814T215
825Q215 838 220 849T234 865Q230 873 230 882Q230 893 236 901T253 911Q253 919 261 924T278 930Q288 930 294 923Q299 933 310 940T334 947Q344 947 352 943Q363 943 371 935T380 920Q401 913 399 896Q412 891 419 874T423 843Q424 839 424 832Q424 818 419 804T402
781Q399 769 389 759T362 744Q343 730 329 730Q318 730 305 737Q303 736 297 736Q284 736 271 743T252 764Q237 767 228 777T218 801Q218 806 219 809Q215 814 215 825ZM328 803T334 808T346 813Q346 817 349 821T356 828Q348 838 348 849Q348 855 349 858Q345
861 342 867T336 876Q331 870 321 866T302 859Q301 838 282 822Q299 817 305 802H309Q319 802 326 797Q328 803 334 808Z" />
<glyph unicode="&#xc6;" glyph-name="AE" horiz-adv-x="872" d="M804 656T810 648T817 627Q817 611 808 599T782 586Q768 586 755 594Q748 586 735 586Q719 586 707 595Q694 590 678 590Q651 590 636 599Q622 592 607 592Q594 592 583 596Q574 592 560 592Q542
592 529 600Q511 589 499 588Q505 570 505 553Q505 530 495 517Q506 497 506 476Q506 460 497 442Q506 432 506 417Q506 404 500 395Q508 400 520 400Q530 400 534 398Q542 405 556 405Q571 405 582 395Q594 398 602 398Q612 398 617 397Q627 399 631 399Q646 399
656 390Q662 395 673 395Q684 395 687 390Q695 394 702 394Q709 394 718 390Q730 396 741 396Q758 396 769 384T781 358Q781 346 773 338T746 328Q736 317 717 317Q699 317 686 326Q676 317 657 317Q641 317 631 324Q628 319 617 319Q611 319 606 322Q595 314 578
314Q562 314 553 318Q543 314 536 314Q526 314 517 320Q506 314 497 316Q505 296 505 288Q505 282 500 270Q506 260 506 249Q506 240 502 233Q507 223 507 213Q507 202 501 193Q507 181 507 176Q507 171 499 157Q503 152 503 147Q503 140 498 135Q506 128 506 114Q506
109 504 97H508Q523 97 533 88Q544 96 567 96Q589 96 601 91Q617 99 634 99Q653 99 663 88Q675 100 702 100Q719 100 729 93Q737 96 743 96Q759 96 769 84T780 55Q780 30 756 22Q752 16 743 13T724 9Q704 9 694 19Q687 14 666 14Q652 14 640 16T623 22Q619 12 599
12Q581 12 569 19Q549 7 532 7Q517 7 506 15Q495 -2 476 -2Q459 -2 447 11T438 43Q427 55 427 81Q427 91 428 95Q415 108 415 136Q415 164 425 176Q420 186 420 196Q420 200 422 208Q414 219 414 231Q399 233 392 237Q376 229 348 229Q327 229 317 236Q309 232
300 232Q287 232 276 243Q267 234 251 234Q247 234 239 236Q231 223 216 218Q212 205 207 196T193 181Q194 163 187 152T164 133Q167 122 161 108T141 85Q141 72 133 60T112 42Q113 23 102 13T75 3Q60 3 49 12T37 38Q37 44 38 48Q34 61 44 81T65 102Q63 114 69
125T87 141Q88 155 98 172T120 198Q119 213 126 223T143 235Q142 242 146 250T158 265Q154 283 171 305T207 330Q207 357 221 382T257 417Q260 438 277 446Q279 466 284 478T303 497Q305 509 314 523T334 542Q337 559 352 568Q352 588 368 605T401 623Q399 629
399 633Q399 649 409 663T438 679H442Q449 679 457 676Q467 678 474 678Q491 678 500 670Q513 674 532 674Q555 674 570 663Q579 667 590 667Q600 667 606 662Q614 668 635 668Q661 668 678 659Q689 668 703 668Q716 668 725 664Q734 670 748 670Q773 670 793 656Q804
656 810 648ZM358 313T381 313Q389 313 400 312T416 310Q413 339 427 360Q421 371 417 389T413 426Q413 456 426 466Q424 474 420 491T417 523L410 517Q412 501 402 489T376 475Q378 462 371 451T352 435Q351 429 350 419T344 402T331 390Q330 371 322 363T296
352Q299 335 281 317H286Q298 317 307 311Q315 313 321 313Q335 313 343 306Q358 313 381 313Z" />
<glyph unicode="&#xc7;" glyph-name="Ccedilla" horiz-adv-x="627" d="M577 277T577 251Q577 228 557 204Q559 196 559 190Q559 177 554 164T538 140Q535 124 530 113T513 86Q501 70 490 64T458 51Q453 37 442 26T415 14Q407 14 398 17L396 15Q408 6 414 -7T419
-36Q424 -43 428 -54T432 -78Q432 -102 417 -110Q422 -124 410 -136T384 -147Q374 -162 358 -162Q344 -162 333 -152T322 -129Q322 -117 330 -108Q331 -97 338 -89T356 -79L361 -72Q354 -64 351 -47Q338 -45 332 -36L324 -37Q317 -37 312 -33Q301 -28 297 -19T295
2Q270 2 247 10T211 35Q187 33 171 46Q157 54 153 64Q116 82 117 130Q99 142 90 157T76 197Q68 205 68 218Q68 224 69 228Q60 237 60 252Q60 259 63 266Q49 281 49 309Q49 334 60 348Q53 358 53 370Q53 379 58 389Q53 395 53 413Q53 433 59 453T74 481Q71 487 71
498Q71 514 76 528T92 543Q92 564 109 576Q108 590 119 607T146 630Q149 652 164 667T197 684Q202 693 215 699T242 706Q252 706 259 702Q274 716 293 716Q309 716 314 708Q322 710 328 710Q346 710 355 697Q359 700 367 700Q381 700 398 693T419 678Q440 674 457
658T471 624Q485 617 491 605T495 581Q504 574 507 564T511 551Q531 534 531 508Q531 503 529 495Q530 491 530 485Q530 468 518 457T489 445Q473 445 461 457Q433 487 430 517Q418 521 411 532T405 558Q396 564 392 573T388 593Q370 593 360 604Q357 603 349 603Q338
603 325 606T305 615Q301 614 293 614Q282 614 278 616Q265 608 253 608Q249 608 239 610Q228 601 218 600Q216 584 210 571T193 556Q195 544 189 533T172 514Q171 506 167 499T157 487Q158 482 159 476T160 460Q160 439 142 427Q142 414 137 406Q142 396 142 386Q142
376 138 368Q144 358 144 349Q144 340 139 328Q134 315 133 304Q142 299 147 290T152 271Q152 260 146 251Q154 247 158 237T162 216Q162 205 158 198Q180 186 188 174T201 134Q208 131 217 124T230 112Q247 113 265 105T291 82Q297 87 310 90T337 94Q351 94 356
90Q370 107 390 107Q396 107 399 106Q415 119 424 124T445 133Q446 148 457 162Q458 170 463 181T473 199Q472 202 472 209Q472 222 479 237T495 261Q499 272 511 279T536 287Q540 287 548 285Q577 277 577 251Z" />
<glyph unicode="&#xc8;" glyph-name="Egrave" horiz-adv-x="560" d="M408 709T424 709Q447 709 470 694Q481 694 488 685T495 663Q495 646 485 633T457 620Q444 620 429 628Q421 620 408 620Q394 620 379 630Q369 625 349 625Q320 625 304 634Q289 627 273 627Q260
627 248 631Q235 626 223 626Q207 626 191 635Q173 625 159 623Q166 606 166 586Q166 561 155 546Q167 527 167 504Q167 486 158 468Q167 458 167 443Q167 433 160 419Q169 424 182 424Q192 424 196 422Q207 430 220 430Q233 430 246 419Q258 422 266 422Q271 422
283 420Q295 422 300 422Q317 422 325 414Q333 419 343 419Q355 419 358 414Q367 417 372 417Q379 417 391 413Q404 420 416 420Q433 420 445 408T457 380Q457 367 448 358T420 348Q411 336 390 336Q371 336 356 346Q346 336 327 336Q310 336 299 344Q291 338 282
338Q276 338 272 342Q261 332 242 332Q228 332 216 338Q206 333 199 333Q189 333 179 340Q172 336 168 335T157 335Q166 317 166 307Q166 298 160 286Q167 278 167 266Q167 257 162 247Q169 239 169 226Q169 214 162 206Q168 194 168 187Q168 181 160 167Q164 163
164 156Q164 147 158 144Q168 135 168 121Q168 116 166 104L172 105Q183 105 195 95Q210 106 234 106Q243 106 253 104Q259 111 270 115T294 119Q315 119 326 110Q332 120 347 126T377 132Q388 132 395 129Q406 135 415 135Q431 135 443 122T455 92Q455 71 436
59Q432 51 420 46T394 40Q380 40 372 45Q364 37 351 32T325 26Q305 26 294 37Q277 19 250 19Q245 19 233 21Q213 9 194 9Q179 9 168 17Q157 0 136 0Q118 0 105 14T95 47Q89 53 86 65T83 89Q83 98 84 102Q71 115 71 146Q71 159 74 170T81 187Q76 197 76 208Q76 213
78 221Q69 230 69 245Q69 259 76 267Q71 277 71 285Q71 296 78 306Q70 324 70 341Q70 362 83 381Q77 394 73 413T68 449Q68 481 83 493Q78 515 78 516Q72 540 72 550Q72 565 79 586Q74 593 71 609T69 632Q57 644 57 661Q57 674 65 685T88 701Q95 708 107 712T132
717Q149 717 161 708Q178 713 195 713Q219 713 234 702Q243 706 255 706Q266 706 272 701Q278 706 301 706Q331 706 348 696Q359 707 375 707Q385 707 398 702Q408 709 424 709ZM186 870T186 894Q186 908 193 916T213 925Q234 925 259 896Q271 892 285 879T305
852Q317 849 329 841T346 822Q360 805 360 791Q360 778 346 768Q335 760 325 760Q317 760 308 765T290 776Q274 776 258 783T239 807Q222 812 216 822T207 849Q186 870 186 894Z" />
<glyph unicode="&#xc9;" glyph-name="Eacute" horiz-adv-x="560" d="M408 709T424 709Q447 709 470 694Q481 694 488 685T495 663Q495 646 485 633T457 620Q444 620 429 628Q421 620 408 620Q394 620 379 630Q369 625 349 625Q320 625 304 634Q289 627 273 627Q260
627 248 631Q235 626 223 626Q207 626 191 635Q173 625 159 623Q166 606 166 586Q166 561 155 546Q167 527 167 504Q167 486 158 468Q167 458 167 443Q167 433 160 419Q169 424 182 424Q192 424 196 422Q207 430 220 430Q233 430 246 419Q258 422 266 422Q271 422
283 420Q295 422 300 422Q317 422 325 414Q333 419 343 419Q355 419 358 414Q367 417 372 417Q379 417 391 413Q404 420 416 420Q433 420 445 408T457 380Q457 367 448 358T420 348Q411 336 390 336Q371 336 356 346Q346 336 327 336Q310 336 299 344Q291 338 282
338Q276 338 272 342Q261 332 242 332Q228 332 216 338Q206 333 199 333Q189 333 179 340Q172 336 168 335T157 335Q166 317 166 307Q166 298 160 286Q167 278 167 266Q167 257 162 247Q169 239 169 226Q169 214 162 206Q168 194 168 187Q168 181 160 167Q164 163
164 156Q164 147 158 144Q168 135 168 121Q168 116 166 104L172 105Q183 105 195 95Q210 106 234 106Q243 106 253 104Q259 111 270 115T294 119Q315 119 326 110Q332 120 347 126T377 132Q388 132 395 129Q406 135 415 135Q431 135 443 122T455 92Q455 71 436
59Q432 51 420 46T394 40Q380 40 372 45Q364 37 351 32T325 26Q305 26 294 37Q277 19 250 19Q245 19 233 21Q213 9 194 9Q179 9 168 17Q157 0 136 0Q118 0 105 14T95 47Q89 53 86 65T83 89Q83 98 84 102Q71 115 71 146Q71 159 74 170T81 187Q76 197 76 208Q76 213
78 221Q69 230 69 245Q69 259 76 267Q71 277 71 285Q71 296 78 306Q70 324 70 341Q70 362 83 381Q77 394 73 413T68 449Q68 481 83 493Q78 515 78 516Q72 540 72 550Q72 565 79 586Q74 593 71 609T69 632Q57 644 57 661Q57 674 65 685T88 701Q95 708 107 712T132
717Q149 717 161 708Q178 713 195 713Q219 713 234 702Q243 706 255 706Q266 706 272 701Q278 706 301 706Q331 706 348 696Q359 707 375 707Q385 707 398 702Q408 709 424 709ZM295 778T282 762T257 745Q244 733 231 733Q218 733 208 743T198 767Q198 787 220
801Q221 807 229 817Q229 832 236 843T262 855Q261 867 268 877T288 890Q291 899 299 905T318 912Q327 918 337 918Q351 918 361 906T372 880Q372 861 351 854Q350 841 335 834Q334 821 322 808T297 792Q295 778 282 762Z" />
<glyph unicode="&#xca;" glyph-name="Ecircumflex" horiz-adv-x="559" d="M408 709T424 709Q447 709 470 694Q481 694 488 685T495 663Q495 646 485 633T457 620Q444 620 429 628Q421 620 408 620Q394 620 379 630Q369 625 349 625Q320 625 304 634Q289 627 273
627Q260 627 248 631Q235 626 223 626Q207 626 191 635Q173 625 159 623Q166 606 166 586Q166 561 155 546Q167 527 167 504Q167 486 158 468Q167 458 167 443Q167 433 160 419Q169 424 182 424Q192 424 196 422Q207 430 220 430Q233 430 246 419Q258 422 266 422Q271
422 283 420Q295 422 300 422Q317 422 325 414Q333 419 343 419Q355 419 358 414Q367 417 372 417Q379 417 391 413Q404 420 416 420Q433 420 445 408T457 380Q457 367 448 358T420 348Q411 336 390 336Q371 336 356 346Q346 336 327 336Q310 336 299 344Q291 338
282 338Q276 338 272 342Q261 332 242 332Q228 332 216 338Q206 333 199 333Q189 333 179 340Q172 336 168 335T157 335Q166 317 166 307Q166 298 160 286Q167 278 167 266Q167 257 162 247Q169 239 169 226Q169 214 162 206Q168 194 168 187Q168 181 160 167Q164
163 164 156Q164 147 158 144Q168 135 168 121Q168 116 166 104L172 105Q183 105 195 95Q210 106 234 106Q243 106 253 104Q259 111 270 115T294 119Q315 119 326 110Q332 120 347 126T377 132Q388 132 395 129Q406 135 415 135Q431 135 443 122T455 92Q455 71
436 59Q432 51 420 46T394 40Q380 40 372 45Q364 37 351 32T325 26Q305 26 294 37Q277 19 250 19Q245 19 233 21Q213 9 194 9Q179 9 168 17Q157 0 136 0Q118 0 105 14T95 47Q89 53 86 65T83 89Q83 98 84 102Q71 115 71 146Q71 159 74 170T81 187Q76 197 76 208Q76
213 78 221Q69 230 69 245Q69 259 76 267Q71 277 71 285Q71 296 78 306Q70 324 70 341Q70 362 83 381Q77 394 73 413T68 449Q68 481 83 493Q78 515 78 516Q72 540 72 550Q72 565 79 586Q74 593 71 609T69 632Q57 644 57 661Q57 674 65 685T88 701Q95 708 107 712T132
717Q149 717 161 708Q178 713 195 713Q219 713 234 702Q243 706 255 706Q266 706 272 701Q278 706 301 706Q331 706 348 696Q359 707 375 707Q385 707 398 702Q408 709 424 709ZM340 897T353 884T367 859Q379 854 387 841T397 816Q415 805 415 789Q415 777 400
768Q394 765 387 765Q375 765 366 773T355 793Q346 797 336 809T324 831Q315 830 302 840T287 859Q284 848 272 835T252 821Q249 812 241 802T225 790Q221 778 212 769T190 759Q182 759 171 765Q166 769 163 776T159 790Q159 806 171 816Q173 827 180 837T197 853Q198
863 205 870T224 880Q228 893 238 897Q239 902 245 906T258 913Q261 922 270 929T288 936Q298 936 305 929Q316 930 324 920T332 897Q340 897 353 884Z" />
</font>
</defs>
</svg>
