<?xml version="1.0" standalone="no"?>
<!DOCTYPE svg PUBLIC "-//W3C//DTD SVG 1.1//EN" "http://www.w3.org/Graphics/SVG/1.1/DTD/svg11.dtd">
<svg xmlns="http://www.w3.org/2000/svg">
<defs >
<font id="MonsieurLaDoulaise" horiz-adv-x="273" ><font-face
    font-family="Monsieur La Doulaise"
    units-per-em="1000"
    panose-1="2 0 0 0 0 0 0 0 0 0"
    ascent="1048"
    descent="-513"
    alphabetic="0" />
<glyph unicode=" " glyph-name="space" horiz-adv-x="150" />
<glyph unicode="!" glyph-name="exclam" horiz-adv-x="280" d="M27 7Q27 18 45 34T77 50T92 37Q92 22 74 8T42 -7T27 7ZM470 534L111 80Q110 80 103 86L450 572Q470 568 470 534Z" />
<glyph unicode="&quot;" glyph-name="quotedbl" horiz-adv-x="496" d="M596 562L465 406Q464 406 457 412L576 600Q596 596 596 562ZM516 562L385 406Q384 406 377 412L496 600Q516 596 516 562Z" />
<glyph unicode="#" glyph-name="numbersign" horiz-adv-x="411" d="M208 247L168 173H263L303 247H208ZM404 263L394 247H318L278 173H374L364 157H269L218 61L200 55L255 157H159L108 61L90 55L145 157H56L68 173H153L193 247H86L98 263H201L249 351L268 359L216
263H311L359 351L378 359L326 263H404Z" />
<glyph unicode="$" glyph-name="dollar" horiz-adv-x="380" d="M21 23L42 49Q63 76 63 91Q63 120 40 120Q27 120 18 109T8 70T21 23ZM467 444Q467 474 408 474T302 428T254 338Q254 321 259 298Q344 322 405 364T467 444ZM14 -2L-84 -122L-93 -117L6 5Q-16 32
-16 69T-1 122T32 138T64 127T78 95T57 50L27 14Q53 -13 105 -13T210 26T263 121Q263 157 242 205T215 270Q179 263 138 263Q61 263 13 295T-35 401T32 544T194 614L190 602Q103 602 44 539T-15 408Q-15 280 137 280Q175 280 209 287Q205 303 205 323Q205 367 240
405T320 462T405 482H413L516 600L526 591L433 480Q491 473 491 440Q491 395 424 350T265 280Q270 265 282 234Q307 171 307 137Q307 76 234 26T87 -25Q40 -25 14 -2Z" />
<glyph unicode="%" glyph-name="percent" horiz-adv-x="662" d="M621 283Q621 297 605 297Q574 297 531 259T453 165Q514 166 567 209T621 283ZM328 428Q328 442 312 442Q281 442 238 404T160 310Q221 311 274 354T328 428ZM443 5Q511 5 593 117T675 294Q675 323
652 323Q622 323 611 311Q605 312 605 315T622 326T654 333Q694 333 694 287T654 170T551 43T432 -13T377 41Q377 86 411 147T500 256T607 303Q629 303 629 285Q629 251 574 206T449 159Q405 86 405 46T443 5ZM624 534Q624 530 621 527L178 -84Q175 -87 172 -87Q164
-87 155 -76L596 535Q476 532 379 510T227 457T143 396T114 344T132 314Q169 370 218 408T314 448Q336 448 336 430Q336 396 281 351T156 304Q112 231 112 191T150 150Q218 150 300 262T382 439Q382 468 359 468Q329 468 318 456Q312 457 312 460T329 471T361 478Q401
478 401 432T361 315T258 188T139 132T84 186Q84 237 128 307Q102 314 102 337T121 386T182 440T282 490T426 527T612 542Q624 542 624 534Z" />
<glyph unicode="&amp;" glyph-name="ampersand" horiz-adv-x="697" d="M870 802Q870 831 838 831Q772 831 709 762T594 579Q731 647 800 697T870 802ZM500 252Q492 186 492 123T507 5Q569 30 602 75T636 164T612 232T545 257Q525 257 500 252ZM488 -1Q473 56 473
121T482 248Q403 224 353 151T302 -2V-9Q337 -16 388 -16T488 -1ZM561 539Q378 449 333 418T253 358T199 302Q154 240 154 176Q154 24 284 -6V-1Q284 84 339 160T484 262Q506 403 561 539ZM106 158Q106 210 136 261T201 347T311 428T428 496Q553 561 573 569Q628
692 698 768T841 844Q863 844 878 835T893 804T882 759T847 712T799 671T734 628Q671 593 581 549Q524 411 502 266Q530 271 554 271Q609 271 638 245T667 172T626 73T512 -8Q543 -102 619 -115Q621 -115 621 -123T618 -131Q528 -121 492 -16Q430 -36 382 -36T304
-33Q315 -102 370 -145T527 -189Q559 -189 595 -177L603 -182Q572 -199 513 -199Q410 -199 353 -152T286 -31Q106 -6 106 158Z" />
<glyph unicode="&apos;" glyph-name="quotesingle" horiz-adv-x="416" d="M516 562L385 406Q384 406 377 412L496 600Q516 596 516 562Z" />
<glyph unicode="(" glyph-name="parenleft" horiz-adv-x="254" d="M596 823Q349 696 196 472T43 -5Q43 -77 56 -143L40 -149Q10 -70 10 41T59 279T190 512T376 701T590 835L596 823Z" />
<glyph unicode=")" glyph-name="parenright" horiz-adv-x="411" d="M-88 -137Q159 -10 312 214T465 691Q465 763 452 829L468 835Q498 756 498 645T449 407T318 174T132 -15T-82 -149L-88 -137Z" />
<glyph unicode="*" glyph-name="asterisk" horiz-adv-x="287" d="M247 528L168 436L281 394L279 387L162 412L179 290L173 288L134 405L39 326L34 330L117 424L1 468L2 473L123 450L103 569L109 572L152 455L243 532L247 528Z" />
<glyph unicode="+" glyph-name="plus" horiz-adv-x="411" d="M394 223L384 207H246L188 61L170 55L231 207H76L88 223H237L289 351L308 359L253 223H394Z" />
<glyph unicode="," glyph-name="comma" horiz-adv-x="190" d="M-54 -80L-62 -72Q-20 -58 12 -30T45 28Q30 36 30 48T46 73T78 85T93 71Q93 41 45 -12T-54 -80Z" />
<glyph unicode="-" glyph-name="hyphen" horiz-adv-x="390" d="M362 103L375 97Q342 59 283 59Q252 59 205 77T137 96Q97 96 53 68L45 73Q94 115 161 115Q197 115 246 99T316 83T362 103Z" />
<glyph unicode="." glyph-name="period" horiz-adv-x="163" d="M6 7Q6 18 24 34T56 50T71 37Q71 22 53 8T21 -7T6 7Z" />
<glyph unicode="/" glyph-name="slash" horiz-adv-x="190" d="M-115 -119L533 888L555 876L-92 -127L-115 -119Z" />
<glyph unicode="0" glyph-name="zero" horiz-adv-x="424" d="M136 254H139Q205 254 270 289T371 368T408 439Q408 461 382 461Q330 461 262 401T136 254ZM278 520L274 508Q206 508 137 438T67 309Q67 272 101 259Q159 348 236 409T386 471Q420 471 420 442Q420
419 397 386T337 321T244 267T133 244H129Q54 126 54 51Q54 -13 116 -13Q194 -13 285 79T434 284T492 462Q492 510 456 510Q444 510 423 502T391 482Q382 484 382 489Q382 496 409 506T459 517Q522 517 522 445T460 262T298 63T112 -25T26 59Q26 140 94 248Q48
261 48 304Q48 367 126 443T278 520Z" />
<glyph unicode="1" glyph-name="one" horiz-adv-x="203" d="M353 466T377 494T401 528T398 534Q392 534 379 518Q377 518 315 433Q353 466 377 494ZM365 531Q389 561 406 561T424 543T384 480T282 389Q55 79 0 -7Q-12 -19 -22 -19T-38 -13T-44 1Q5 58 226 349Q134
289 63 277L52 292Q151 314 254 386Q352 516 365 531Z" />
<glyph unicode="2" glyph-name="two" horiz-adv-x="500" d="M337 -1Q362 -1 378 11T394 38Q394 68 342 68Q264 68 210 26Q278 -1 337 -1ZM-7 71Q-40 71 -66 51T-93 11Q-93 -15 -48 -15Q15 -15 112 43Q50 71 -7 71ZM289 462T248 419T207 339T253 302T331 340T363
417T349 478Q289 462 248 419ZM209 547L218 553Q313 546 356 489Q381 495 412 495Q504 495 504 433Q504 362 396 245T155 49Q174 40 201 30Q259 78 349 78Q382 78 399 67T416 38T391 2T309 -15T191 7Q166 -23 166 -55T196 -109T286 -131Q318 -131 341 -121L342
-128Q325 -137 292 -137Q223 -137 189 -114T154 -55T181 11Q168 16 130 35Q22 -24 -46 -24T-114 9Q-114 34 -78 57T15 81T134 57Q257 137 362 255T468 437Q468 485 401 485Q387 485 361 481Q381 449 381 408T346 330T252 294T193 340Q193 379 236 423T344 486Q306
540 209 547Z" />
<glyph unicode="3" glyph-name="three" horiz-adv-x="360" d="M174 239Q221 239 279 274Q252 289 219 289T164 280T143 257Q143 239 174 239ZM144 377Q144 345 182 345T270 389T322 491Q315 492 302 492Q248 492 196 460T144 377ZM126 272T155 286T226 301T299
288Q343 320 373 360T403 433Q403 478 341 489Q336 430 278 383T170 336T121 373Q121 429 183 465T312 501H322Q318 577 186 577L188 588Q263 588 301 563T341 499Q435 491 435 431Q435 396 402 353T317 277Q340 258 340 226T309 150T228 68T111 4T-22 -22Q-65
-22 -65 7Q-65 24 -50 43T-20 63T-5 54Q-5 41 -23 28T-41 6Q-41 -9 -13 -9Q60 -9 136 32T260 128T307 227Q307 249 294 263Q231 229 179 229T126 252Q126 272 155 286Z" />
<glyph unicode="4" glyph-name="four" horiz-adv-x="408" d="M384 191Q339 191 304 137Q348 146 374 159T400 183Q400 191 384 191ZM183 126L404 408L418 395Q416 395 337 290T217 126Q246 127 285 133Q301 163 332 184T394 206T425 194Q425 179 389 158T296 122Q288
103 288 89Q288 58 322 58Q342 58 380 73V68Q339 49 313 49Q272 49 272 89Q272 101 277 118Q241 110 203 107Q168 57 128 -3Q116 -15 106 -15T90 -9T84 5Q101 25 166 105H149Q14 105 -9 128Q-11 130 -11 132Q-11 146 12 161T66 200T152 272T252 369T338 483T393
606H404Q368 458 222 308Q167 253 139 227T44 142Q44 134 95 130T183 126Z" />
<glyph unicode="5" glyph-name="five" horiz-adv-x="360" d="M498 557L506 555Q476 494 439 470T346 445Q316 445 257 454L152 290Q182 301 220 301Q325 301 325 237Q325 202 293 157T212 73T99 6T-22 -22Q-65 -22 -65 7Q-65 24 -50 43T-20 63T-5 54Q-5 41 -23
28T-41 6Q-41 -9 -13 -9Q49 -9 122 34T243 135T291 235Q291 260 268 274T211 289Q151 289 124 249L114 257Q114 259 164 336T256 488Q269 510 271 510T288 502Q335 480 378 480Q454 480 498 557Z" />
<glyph unicode="6" glyph-name="six" horiz-adv-x="373" d="M70 -8Q117 -8 175 21T277 98T320 191T269 237Q204 237 125 156T34 -1Q52 -8 70 -8ZM476 479Q476 496 457 496Q391 496 281 415T87 228T2 56Q2 29 15 13Q37 96 129 176T304 257Q364 257 364 204Q364
148 312 95T190 11T61 -20Q45 -20 33 -17V-18Q33 -108 166 -108Q216 -108 280 -91L288 -96Q215 -117 156 -117Q10 -117 10 -23V-11Q-25 7 -25 49Q-25 121 58 230T259 424T466 508Q501 508 501 476Q501 459 488 439T459 418T443 431Q443 440 459 456T476 479Z" />
<glyph unicode="7" glyph-name="seven" horiz-adv-x="340" d="M180 493T162 477T144 445T159 428Q171 428 186 447T213 494Q180 493 162 477ZM152 407Q119 407 119 438Q119 464 145 487T216 510H220Q227 528 230 554L240 555Q236 535 228 509Q258 508 326 493T420
477T467 493T493 509T499 504Q499 490 466 474Q394 406 293 266T112 -8Q104 -25 94 -25Q78 -25 60 -9Q184 173 267 282T430 460Q414 458 394 458T311 475T223 494Q193 407 152 407Z" />
<glyph unicode="8" glyph-name="eight" horiz-adv-x="380" d="M263 121Q263 156 245 198T223 248Q69 169 36 111Q21 83 21 52T41 6T93 -10Q151 -10 207 29T263 121ZM405 482Q416 482 416 477L415 474Q349 474 302 428T254 338Q254 314 264 282Q356 328 405 370T455
470Q455 508 422 531T321 554L324 564Q403 564 441 541T479 477Q479 386 332 306Q308 292 268 271Q272 260 284 229Q307 170 307 137Q307 74 230 26T75 -23Q35 -23 11 -7T-13 41T1 100T33 146T88 189Q133 218 218 260Q205 294 205 330T240 405T320 462T405 482Z"
/>
<glyph unicode="9" glyph-name="nine" horiz-adv-x="396" d="M456 482Q363 482 249 402T111 254Q130 249 163 249Q254 249 341 284T477 363T526 442Q526 482 456 482ZM398 276Q417 281 427 281T438 277Q438 244 369 172T205 39T53 -22Q10 -22 10 7Q10 24 25 43T55
63T70 54Q70 41 52 28T34 6Q34 -9 62 -9Q120 -9 230 81T391 251Q339 223 275 202T163 180Q72 180 72 234Q72 244 75 254Q25 275 25 325Q25 400 124 484T360 590V581Q231 564 135 483T39 329Q39 285 79 265Q109 341 228 417T466 493Q553 493 553 443Q553 415 523
380T441 314T315 261T159 240Q128 240 108 244Q107 240 107 233Q107 192 174 192Q261 192 398 276Z" />
<glyph unicode=":" glyph-name="colon" horiz-adv-x="163" d="M94 143Q94 154 112 170T144 186T159 173Q159 158 141 144T109 129T94 143ZM6 7Q6 18 24 34T56 50T71 37Q71 22 53 8T21 -7T6 7Z" />
<glyph unicode=";" glyph-name="semicolon" horiz-adv-x="190" d="M-54 -80L-62 -72Q-20 -58 12 -30T45 28Q30 36 30 48T46 73T78 85T93 71Q93 41 45 -12T-54 -80ZM84 143Q84 154 102 170T134 186T149 173Q149 158 131 144T99 129T84 143Z" />
<glyph unicode="&lt;" glyph-name="less" horiz-adv-x="411" d="M347 126L341 113L101 199L111 217L391 340L389 326L124 207L347 126Z" />
<glyph unicode="=" glyph-name="equal" horiz-adv-x="439" d="M401 197L391 181H83L95 197H401ZM422 247L412 231H104L116 247H422Z" />
<glyph unicode="&gt;" glyph-name="greater" horiz-adv-x="376" d="M142 322L148 335L358 225L348 207L72 112L82 127L335 217L142 322Z" />
<glyph unicode="?" glyph-name="question" horiz-adv-x="330" d="M-10 7Q-10 18 8 34T40 50T55 37Q55 22 37 8T5 -7T-10 7ZM298 521Q298 553 285 579Q214 559 155 506T95 397Q95 367 109 352T148 337Q199 337 248 390T298 521ZM68 79L53 89Q53 128 91 172T185
256T294 336Q426 432 426 493Q426 587 337 587Q321 587 298 582Q316 550 316 513Q316 427 263 373T151 319Q118 319 97 338T76 395Q76 452 139 509T280 587Q233 668 85 668L92 675Q239 674 294 591Q319 596 339 596Q385 596 412 571T439 493T404 390T316 300T210
224Q80 136 68 79Z" />
<glyph unicode="@" glyph-name="at" horiz-adv-x="593" d="M132 -2Q170 -2 235 38T341 112T382 153T368 163T328 167T262 148T191 101T141 48T121 10T132 -2ZM400 166Q420 182 422 182Q449 179 450 178T451 174T444 162T397 115T327 47T296 3Q296 -14 323 -14Q397
-14 471 52T546 180Q546 218 510 241T394 265T238 239T108 172T21 85T-13 -3T25 -69T131 -94T261 -83L257 -94Q180 -110 109 -110T-2 -82T-43 -7T-10 88T79 179T218 250T395 278T532 251T577 179Q577 110 494 42T317 -26Q274 -26 274 1T307 71Q185 -17 120 -18Q96
-18 96 11Q96 63 162 122T338 181Q374 181 400 166Z" />
<glyph unicode="A" glyph-name="A" horiz-adv-x="1417" d="M938 120Q946 166 980 222Q1021 209 1057 189Q1025 172 938 120ZM1162 43Q1162 26 1155 2Q1100 -13 1061 -13Q952 -13 938 80Q973 101 1084 172Q1162 116 1162 43ZM426 62Q426 126 528 186T781 249Q578
87 442 20Q426 37 426 62ZM823 261L1013 422Q1015 423 1088 485T1201 578T1309 653T1430 717Q1439 720 1442 720H1445Q1446 720 1445 719Q1430 707 1355 650T1239 559T1136 468Q1016 360 958 247Q895 260 823 261ZM1188 56Q1188 135 1110 188Q1207 245 1266 245Q1377
245 1377 182Q1377 138 1319 89T1181 11Q1188 32 1188 56ZM808 249Q888 246 949 230Q921 167 918 108Q815 46 738 14T578 -19T455 9Q606 81 808 249ZM640 521L641 504H655Q745 504 828 529T967 593T1054 673T1087 750T1059 803T974 823Q889 823 810 773T686 653T640
521ZM803 975L806 963Q650 941 546 845T441 650Q441 592 483 554T609 506Q607 524 607 534Q607 584 635 637T711 736T831 811T973 841T1074 819T1105 757T1072 673T982 586T837 518T649 491H643Q665 406 790 406Q854 406 943 444T1126 560L1132 552Q1102 526 1056
495T930 429T785 395Q641 395 613 492Q520 499 473 541T425 646Q425 747 531 847T803 975ZM233 127V116Q304 123 359 169T415 262Q415 292 387 310T300 328Q169 328 85 251T1 84Q1 22 47 -18T182 -58Q304 -58 443 4Q485 -30 571 -30Q745 -30 919 69Q934 -25 1054
-25Q1095 -25 1150 -10Q1105 -117 904 -187V-197Q1010 -169 1080 -117T1176 -3Q1264 26 1328 79T1392 186Q1392 219 1364 238T1279 258Q1193 258 1085 204Q1047 224 991 240Q1073 368 1238 521T1528 745Q1533 749 1533 754Q1533 764 1522 764Q1520 764 1508 762Q1355
731 1037 461Q857 310 796 261Q617 260 514 200T410 68Q410 38 431 15Q307 -43 213 -43T76 -6T34 89Q34 172 108 244T295 316Q343 316 366 299T390 254Q390 213 345 174T233 127Z" />
<glyph unicode="B" glyph-name="B" horiz-adv-x="1371" d="M1052 422Q1041 410 1017 386Q1057 386 1107 395Q1084 413 1052 422ZM978 432Q918 432 918 415T967 389Q995 419 1006 431Q997 432 978 432ZM1120 159L1090 160Q1003 160 918 108T832 17Q832 -10 883
-10Q954 -10 1018 38T1120 159ZM259 218Q341 233 415 233T552 220Q573 260 573 290Q573 353 490 353Q419 353 358 315T259 218ZM307 -9Q344 -23 401 -23T552 20Q647 64 704 121Q659 173 575 199Q540 136 469 79T307 -9ZM14 41Q14 11 46 -7T141 -26T265 -6Q207 30
207 103Q207 152 234 202Q134 177 74 131T14 41ZM1127 400Q1230 426 1295 489T1360 621Q1360 658 1337 690Q1253 631 1167 543Q1148 524 1061 432Q1099 422 1127 400ZM545 208Q480 223 406 223T251 206Q222 156 222 106Q222 34 285 0Q369 31 439 89T545 208ZM694
611T668 565T642 482T661 426T717 406Q793 406 869 460T992 591T1039 738Q1039 757 1035 772Q944 765 867 733T742 656ZM1098 173L1127 172Q1155 231 1155 289T1119 384Q1062 374 1006 374Q864 226 831 188Q801 158 744 114Q784 65 784 11Q784 -66 703 -129T462
-217V-206Q601 -184 675 -123T749 14Q749 58 722 99Q529 -36 389 -36Q325 -36 283 -16Q210 -37 139 -37T30 -15T-8 43Q-8 91 58 140T241 215Q280 280 349 323T502 367Q553 367 578 346T603 288T582 212Q667 187 721 138Q770 186 954 377Q900 386 900 410Q900 423
923 432T972 442T1016 440L1051 477Q1187 625 1322 707Q1252 774 1084 774Q1078 774 1072 774T1063 773Q1068 753 1068 734Q1068 660 1020 582T885 448T705 393Q659 393 635 416T610 479T638 567T717 660T851 739T1033 781Q1004 878 852 878Q802 878 745 862T643
821Q552 772 501 732L480 716L470 725Q494 746 543 779T637 834T742 875T860 893Q1027 893 1061 783Q1078 784 1092 784Q1254 784 1337 716Q1461 788 1564 788Q1642 788 1684 758T1726 677T1671 578T1517 512L1507 520Q1598 537 1647 581T1697 671T1660 746T1554
775Q1465 775 1353 701Q1392 659 1392 606Q1392 537 1326 476T1140 388Q1189 339 1189 263Q1189 216 1169 168Q1245 156 1283 122T1322 41Q1322 -28 1246 -91T1043 -174L1039 -162Q1147 -152 1221 -90T1295 41Q1295 82 1263 112T1164 154Q1129 77 1053 27T872 -23Q820
-23 820 12Q820 60 904 116T1098 173Z" />
<glyph unicode="C" glyph-name="C" horiz-adv-x="1028" d="M510 234Q493 181 493 149T498 94Q612 163 658 188Q595 223 510 234ZM677 176L507 67Q548 -21 694 -21Q723 -21 760 -14Q767 10 767 29Q767 117 677 176ZM967 177Q967 210 944 230T876 250Q802 250 695
187Q802 119 802 20Q802 7 799 -4Q875 21 921 74T967 177ZM388 553Q491 553 585 589T732 673T785 763Q785 823 667 823T455 742T339 555Q369 553 388 553ZM407 241Q226 241 128 185T30 60Q30 19 67 -8T172 -35Q279 -35 460 72Q445 105 445 149T457 239Q425 241
407 241ZM577 313Q687 313 803 353T1002 449T1139 567T1193 671Q1193 728 1096 728T887 666T686 510T544 314Q555 313 577 313ZM431 975L434 960Q322 941 245 862T168 700Q168 647 205 609T320 558Q346 671 445 757T677 843Q739 843 770 823T802 768Q802 693 680
618T380 542Q350 542 336 543Q333 522 333 502Q333 436 371 388T489 322Q526 400 589 474T732 608T911 706T1114 743T1218 676Q1218 629 1163 565T1020 440T809 339T566 297Q546 297 536 298Q524 272 515 247Q610 234 676 197Q805 264 893 264Q942 264 967 242T993
182Q993 126 940 67T796 -19Q773 -94 682 -150T467 -207Q416 -207 359 -195L369 -186Q407 -193 449 -193Q558 -193 642 -146T755 -28Q713 -35 680 -35Q529 -35 474 48Q306 -48 166 -48Q90 -48 45 -16T0 64Q0 138 106 196T415 254Q431 254 461 252Q472 284 481 305Q396
323 355 375T313 498Q313 524 317 545Q225 556 180 597T134 697Q134 783 218 866T431 975Z" />
<glyph unicode="D" glyph-name="D" horiz-adv-x="1160" d="M23 49T23 21T74 -33T206 -60T382 -14Q357 -8 289 12Q158 49 91 49ZM491 453Q491 395 581 395Q627 395 685 421T795 489T882 594T918 723Q918 744 913 764Q835 752 756 715T620 632T527 537T491 453ZM458
-9Q520 -21 564 -21Q654 -21 744 6T910 78T1050 184T1161 308Q1258 448 1258 564Q1258 626 1228 673Q1117 588 870 326Q785 237 672 141T458 -9ZM748 873Q645 873 515 818T319 697L306 705Q397 783 525 836T757 889Q899 889 929 786Q961 789 993 789Q1149 789 1228
702Q1353 779 1458 779Q1521 779 1557 751T1593 682T1561 600T1465 531L1463 542Q1513 562 1543 601T1574 678T1542 741T1444 766Q1354 766 1243 684Q1287 622 1287 542T1256 383T1160 229T1009 95T801 -1T544 -38Q489 -38 427 -25Q298 -87 175 -87Q101 -87 49
-55T-4 13Q-4 36 21 50T96 64T193 55T316 26T412 0Q504 50 615 147T815 337T1015 533T1212 692Q1142 770 982 770Q957 770 933 767Q936 752 936 734Q936 661 898 592T804 476T686 401T575 373T503 396T479 461T507 553T587 652T723 736T908 784Q876 873 748 873Z"
/>
<glyph unicode="E" glyph-name="E" horiz-adv-x="1041" d="M950 354Q973 354 987 360T1002 373Q1002 387 948 387T840 378Q878 354 950 354ZM501 96V86Q513 93 575 130T669 185Q621 211 553 226Q501 162 501 96ZM654 -27Q703 -27 752 -14Q767 16 767 48Q767 119
691 171Q676 162 638 138Q564 90 506 58Q533 -27 654 -27ZM954 176Q954 206 932 224T859 242T705 180Q782 125 782 49Q782 19 770 -8Q851 18 902 72T954 176ZM1245 682Q1245 728 1145 728Q1068 728 987 682T855 570T803 449Q914 460 1019 503T1185 595T1245 682ZM529
622Q609 622 688 645T822 701T913 771T948 839Q948 893 841 893Q706 893 606 808T495 623Q506 622 529 622ZM378 243Q209 243 118 190T26 71Q26 29 66 0T175 -29Q293 -29 455 60Q451 73 451 91Q451 161 515 233Q447 243 378 243ZM563 238Q632 224 684 193Q798 254
864 254T962 232T993 174Q993 118 928 59T761 -26Q729 -86 649 -134T449 -207L448 -194Q559 -169 633 -127T742 -31Q690 -41 643 -41Q505 -41 464 36Q307 -40 160 -40Q86 -40 43 -9T0 68Q0 140 102 197T396 255Q471 255 527 245Q629 349 812 385Q792 404 782 432Q762
430 723 430Q598 430 537 478T475 603V612Q374 621 325 663T275 766Q275 852 359 935T572 1044L575 1029Q463 1010 386 931T309 769Q309 713 350 674T476 625Q488 733 595 823T847 913Q965 913 965 845Q965 811 932 771T842 695T700 635T521 611H494V606Q494 536
553 491T734 446Q763 446 778 447Q775 462 775 478Q775 523 800 569T871 654T991 718T1154 743Q1271 743 1271 689Q1271 648 1207 594T1032 494T803 435Q808 407 828 388Q894 399 960 399T1027 378Q1027 365 1001 353T942 341Q866 341 823 375Q656 343 563 238Z"
/>
<glyph unicode="F" glyph-name="F" horiz-adv-x="1030" d="M1036 213T1061 232T1086 263T1078 275Q1057 275 986 200Q1036 213 1061 232ZM283 231Q327 235 381 235T545 218Q571 265 571 301Q571 361 497 361Q436 361 379 325T283 231ZM21 43Q21 8 50 -13T138 -35T268
-10Q221 26 221 89T259 217Q149 201 85 149T21 43ZM537 206Q414 223 366 223T274 219Q234 153 234 90T282 -5Q363 27 431 85T537 206ZM569 201Q528 138 454 79T294 -12Q335 -34 398 -34Q491 -34 581 21T771 177Q683 183 569 201ZM628 464Q628 402 724 402Q788 402
865 456T997 589T1051 735Q1051 747 1047 767Q953 764 853 710T690 585T628 464ZM1504 855Q1624 915 1731 915Q1802 915 1840 892T1878 833Q1878 779 1799 734T1586 689Q1510 689 1320 728T1062 768Q1065 753 1065 738Q1065 667 1011 585T873 447T715 390Q664 390
638 412T612 475T642 564T726 659T864 738T1043 778Q1009 869 831 869Q781 869 726 852T626 810Q537 761 488 720L467 703L461 715Q478 732 528 767T620 824T724 864T842 882Q1026 882 1059 779Q1072 780 1087 780Q1177 780 1359 747T1603 713Q1720 713 1791 749T1863
828Q1863 857 1827 875T1710 894T1511 845L1504 855ZM782 188Q825 232 897 313T1021 447T1138 560Q1271 680 1403 704L1404 698Q1345 683 1272 626T1138 505T988 343T834 186H847Q900 186 941 192Q982 237 1013 261T1075 285T1105 270Q1105 252 1069 227T974 186Q879
87 846 87Q842 87 842 89Q842 93 852 99Q879 120 929 178Q902 174 869 174T822 175Q587 -44 392 -44Q322 -44 279 -17Q198 -45 133 -45T34 -19T1 46Q1 105 71 159T267 229Q308 292 371 332T506 373Q607 373 607 301Q607 263 577 214Q739 190 782 188Z" />
<glyph unicode="G" glyph-name="G" horiz-adv-x="932" d="M304 219Q356 225 426 225T568 212Q591 253 591 285Q591 348 507 348Q455 348 401 312T304 219ZM24 42Q24 6 59 -17T146 -41T242 -31Q215 -1 215 47Q215 121 271 203Q153 185 89 138T24 42ZM595 191Q555
119 471 56T279 -35Q312 -57 379 -57T548 -10T716 98L740 119Q690 166 595 191ZM561 199Q489 213 416 213T295 207Q237 121 237 50Q237 3 266 -25Q358 2 438 66T561 199ZM441 622Q521 622 600 645T734 701T825 771T860 839Q860 893 753 893Q626 893 524 810T395
624Q409 622 441 622ZM1164 698Q1164 747 1071 747Q996 747 906 692T748 559T660 413Q750 420 844 453T1007 529T1120 619T1164 698ZM1090 425Q1095 423 1095 418V416Q1088 410 1079 403Q1061 385 1032 364Q994 334 972 312T884 211T780 97Q804 60 804 19Q804 -61
717 -133T471 -237L470 -224Q623 -190 706 -123T789 18Q789 54 768 86Q689 20 570 -26T371 -72T252 -41Q200 -52 140 -52T40 -26T1 41Q1 96 73 146T280 216Q325 279 388 319T510 359Q622 359 622 278Q622 246 602 204Q699 179 751 130Q904 268 924 289T953 317Q863
274 785 274T672 307T635 396Q625 395 606 395Q486 395 427 443T368 569Q368 594 372 614Q279 624 233 665T187 766Q187 852 271 935T484 1044L487 1029Q375 1010 298 931T221 769Q221 715 259 677T376 626Q404 737 512 825T759 913Q877 913 877 845Q877 811 844
771T754 695T612 635T433 611Q405 611 392 612Q388 595 388 573Q388 501 444 456T617 411H635Q639 505 718 597Q806 699 932 740Q1003 762 1080 762Q1190 762 1190 705Q1190 656 1114 589T911 465T657 397Q654 383 654 372Q654 285 781 285Q829 285 884 304T970
342L1001 361Q1076 425 1090 425Z" />
<glyph unicode="H" glyph-name="H" horiz-adv-x="1135" d="M11 29Q11 -8 53 -8T160 26T292 121T423 248Q209 175 110 128T11 29ZM1393 789Q1307 789 1157 680T870 419Q1091 506 1252 610T1414 773Q1414 789 1393 789ZM772 -39H782Q841 -39 895 -11T983 58T1038
142T1058 218Q1058 268 1011 268Q941 268 857 177T772 -33V-39ZM278 577H303Q392 577 473 598T609 652T694 722T726 789T697 836T610 854Q492 854 393 764T278 577ZM439 1006L442 994Q287 973 186 887T84 713Q84 662 124 626T244 580Q248 629 277 680T354 774T472
844T611 872T712 851T744 796T712 721T625 646T482 588T297 564H276V552Q276 500 313 469T418 437T570 470T742 574Q888 710 1000 762Q1042 781 1056 782L1058 775Q972 737 903 681Q834 623 726 511L541 309L525 293Q625 328 784 386Q918 554 1092 678T1395 802Q1429
802 1429 778Q1429 711 1259 601T854 401Q765 298 712 206T658 53Q658 -31 761 -38V-25Q761 42 787 101T853 199T937 260T1017 283T1074 264T1095 207T1071 126T1005 42T904 -23T778 -50H772Q777 -121 823 -165T959 -210Q991 -210 1027 -198L1035 -203Q1004 -220
945 -220Q860 -220 814 -173T762 -49Q627 -43 627 66Q627 183 771 370Q610 312 509 277L396 161Q364 120 249 50T50 -20Q0 -20 0 20Q0 54 23 82T108 139T215 185T336 228T438 263Q505 330 616 448L643 478Q660 497 689 524Q538 426 421 426Q332 426 288 464T243
565V567Q157 576 113 614T69 708Q69 799 172 889T439 1006Z" />
<glyph unicode="I" glyph-name="I" horiz-adv-x="905" d="M1004 379T1019 386T1035 403T1017 416Q1012 411 999 397T978 376Q1004 379 1019 386ZM915 375L959 418Q900 417 835 403Q860 381 915 375ZM1526 722Q1526 740 1487 740Q1390 740 1282 664Q1403 672 1448
679Q1526 692 1526 722ZM1212 641Q1013 624 938 595Q852 562 826 516Q811 489 811 460T824 414Q898 432 974 433Q1121 576 1212 641ZM900 361Q840 367 811 397Q668 358 583 269T497 95Q497 64 509 42Q573 76 646 132T770 236T900 361ZM45 131T38 123T26 115T16
116Q12 116 12 104Q12 58 57 28Q132 -22 272 -22Q379 -22 496 35Q484 62 484 95Q484 151 518 210T626 325T801 409Q788 428 788 458T802 516T840 564T901 599T974 624T1060 642Q1122 651 1239 660Q1379 753 1502 753Q1524 753 1532 748T1541 724T1520 692T1456
668Q1381 654 1260 645Q1259 645 1258 645H1257Q1195 599 1110 513Q1083 485 1031 431Q1059 425 1059 410T1034 381T965 362Q845 239 742 155T524 20Q572 -20 639 -20Q742 -20 893 80L895 65Q750 -36 637 -36Q597 -36 566 -24T522 2L510 14Q386 -36 261 -36Q189
-36 106 -14Q59 -1 30 28T0 99Q0 123 8 136T26 152L34 153Q45 152 45 142Z" />
<glyph unicode="J" glyph-name="J" horiz-adv-x="562" d="M1109 763Q1017 763 895 670L952 674Q1015 678 1061 691Q1145 715 1145 744Q1145 763 1109 763ZM39 -221Q60 -227 89 -227Q169 -227 258 -189T405 -98T463 -5Q463 54 336 54Q320 54 312 53Q147 -129 39
-221ZM203 387Q203 348 233 325T321 301T452 352T576 478T627 619L626 635Q421 611 312 537T203 387ZM-51 -183L-42 -177Q-30 -191 -6 -204Q94 -112 243 46Q138 29 19 -23T-191 -137T-342 -259T-403 -358T-333 -396Q-219 -396 -19 -216Q-45 -201 -51 -183ZM320
62Q328 63 345 63Q494 63 494 -3Q494 -47 431 -102T268 -198T78 -239Q46 -239 24 -233Q-185 -410 -344 -410Q-415 -410 -415 -362Q-415 -329 -381 -280T-282 -178T-138 -77T47 8T254 57Q279 84 351 162T457 276T553 376T657 482Q772 592 847 649Q814 646 749 644T640
637Q641 632 641 622Q641 570 610 510T532 402T423 321T305 288T213 319T177 394T202 476T277 552T416 617T621 657Q590 758 400 758Q350 758 295 741T195 700Q106 650 56 609L36 592L30 604Q47 621 97 656T189 713T293 753T411 771Q606 771 636 658Q686 663 737
664T874 669Q1024 778 1127 778Q1180 778 1180 757Q1180 730 1108 697T940 656Q894 652 870 651Q811 603 737 528T608 391T461 222T320 62Z" />
<glyph unicode="K" glyph-name="K" horiz-adv-x="1495" d="M1058 419Q1044 419 1044 413T1052 400Q1072 384 1117 384Q1129 384 1136 385Q1112 419 1058 419ZM259 218Q341 233 415 233T552 220Q573 260 573 290Q573 353 490 353Q419 353 358 315T259 218ZM307
-9Q344 -23 400 -23T549 24Q645 73 699 127Q654 174 575 199Q540 136 469 79T307 -9ZM207 103Q207 152 234 202Q134 177 74 131T14 41Q14 11 46 -7T141 -26T265 -6Q207 30 207 103ZM545 208Q480 223 406 223T251 206Q222 156 222 106Q222 34 285 0Q369 31 439 89T545
208ZM1129 -45H1144Q1203 -45 1257 -17T1345 52T1400 136T1420 212Q1420 249 1374 249Q1342 249 1301 229T1221 174T1156 81T1129 -40V-45ZM621 514H635Q725 514 808 539T947 603T1034 683T1067 760T1039 813T954 833Q869 833 790 783T666 663T620 531L621 514ZM783
985L786 973Q630 951 526 855T421 660Q421 602 463 564T589 516Q587 534 587 544Q587 594 615 647T691 746T811 821T953 851T1054 829T1085 767T1052 683T962 596T817 528T629 501H623Q645 416 770 416Q834 416 923 454T1106 570L1112 562Q1082 536 1036 505T910
439T765 405Q621 405 593 502Q500 509 453 551T405 656Q405 757 511 857T783 985ZM1463 772L1460 762Q1333 716 1165 548Q1145 528 1053 431H1056Q1075 431 1104 422T1151 387Q1241 402 1352 494Q1402 534 1454 581T1562 675T1675 758Q1802 842 1931 842Q1978 842
2001 821T2025 764Q2025 691 1947 619T1761 546Q1733 546 1719 558T1704 590Q1704 627 1745 666T1846 717V712Q1789 700 1753 664T1716 594Q1716 556 1764 556Q1857 556 1932 626T2008 765T1918 833Q1855 833 1789 802T1667 724T1547 620T1426 513T1298 425T1157
376Q1168 357 1168 325T1153 260T1116 204T1072 158Q1020 105 1020 50Q1020 -33 1115 -43V-34Q1115 33 1142 91T1211 185T1298 242T1380 263Q1457 263 1457 200Q1457 164 1433 120T1367 36T1266 -29T1140 -56H1129Q1134 -127 1181 -171T1321 -216Q1353 -216 1389
-204L1397 -209Q1366 -226 1307 -226Q1217 -226 1170 -179T1116 -55Q1054 -48 1026 -11T998 71T1013 146T1050 202T1094 250Q1145 306 1145 355Q1145 362 1141 374Q1130 373 1109 373Q1053 373 1018 393L830 193Q809 170 741 117Q784 68 784 11Q784 -66 703 -129T462
-217V-206Q601 -184 675 -123T749 14Q749 60 720 101Q529 -36 389 -36Q325 -36 283 -16Q210 -37 139 -37T30 -15T-8 43Q-8 91 58 140T241 215Q280 280 349 323T502 367Q553 367 578 346T603 288T582 212Q663 189 716 143L1051 477Q1138 573 1247 656T1463 772Z"
/>
<glyph unicode="L" glyph-name="L" horiz-adv-x="1250" d="M185 -30Q317 -30 452 40Q203 108 145 108T62 92T36 49T76 -4T185 -30ZM708 5Q853 -26 933 -26T1071 0T1128 60Q1128 84 1093 100T991 117Q885 117 813 86T708 5ZM1170 654Q1102 591 1003 484T857 329Q867
328 888 328Q970 328 1065 370T1234 470T1357 590T1407 694Q1407 743 1336 743T1170 654ZM1092 794Q1092 861 983 861Q923 861 860 833T751 758T678 656T645 545Q671 543 687 543Q770 543 848 569T978 633T1061 715T1092 794ZM513 51Q586 33 687 9Q720 63 799 96T1001
130Q1073 130 1115 108T1158 55Q1158 17 1094 -12T926 -41T695 -17Q685 -41 685 -69Q685 -134 748 -180T925 -227L929 -235Q911 -237 902 -237Q795 -237 731 -186T666 -64Q666 -37 676 -14Q577 7 478 33Q326 -43 175 -43Q100 -43 53 -14T6 49T42 102T149 123T485
58Q623 138 798 320Q711 339 667 396T623 533V535Q541 544 502 582T462 676Q462 771 560 870T793 997L796 988Q661 960 569 868T477 685Q477 632 513 596T623 547Q626 607 654 665T728 772T846 851T988 881Q1118 881 1118 800Q1118 761 1085 715T997 628T857 560T679
532Q655 532 644 533V523Q644 452 685 402T812 335Q844 368 906 436T1001 538T1087 622T1176 696Q1271 758 1345 758Q1440 758 1440 695Q1440 649 1389 583T1259 457T1077 355T877 312Q853 312 842 313Q663 134 513 51Z" />
<glyph unicode="M" glyph-name="M" horiz-adv-x="1609" d="M249 228Q331 243 405 243T542 230Q563 270 563 300Q563 363 480 363Q409 363 348 325T249 228ZM297 1Q334 -13 389 -13Q534 -13 696 129Q648 183 565 209Q530 146 459 89T297 1ZM197 113Q197 162 224
212Q124 187 64 141T4 51Q4 21 36 3T130 -16T255 3Q197 41 197 113ZM535 218Q470 233 396 233T241 216Q212 166 212 116Q212 44 275 10Q359 41 429 99T535 218ZM1256 -29Q1334 -29 1402 18T1506 125T1541 229Q1541 286 1491 286Q1438 286 1380 237T1284 114T1245
-23V-28Q1248 -29 1256 -29ZM630 541L631 524H645Q735 524 818 549T957 613T1044 693T1077 770T1049 823T964 843Q879 843 800 793T676 673T630 541ZM793 995L796 983Q640 961 536 865T431 670Q431 612 473 574T599 526Q597 544 597 554Q597 604 625 657T701 756T821
831T963 861T1064 839T1095 777T1062 693T972 606T827 538T639 511H633Q655 426 780 426Q844 426 933 464T1116 580L1122 572Q1092 546 1046 515T920 449T775 415Q631 415 603 512Q510 519 463 561T415 666Q415 767 521 867T793 995ZM1424 -163Q1456 -163 1492
-151L1500 -156Q1469 -173 1410 -173Q1321 -173 1278 -136T1231 -35Q1190 -25 1164 10T1138 92T1161 191T1216 290T1303 396T1398 496T1502 592Q1588 668 1671 736L1669 738Q1365 553 918 72L862 -1Q857 -4 853 -4T849 2L861 23L961 181Q1058 343 1097 406Q1234
629 1350 734Q1333 734 1258 664L1233 640Q892 289 723 137Q774 83 774 21Q774 -56 693 -119T452 -207V-196Q591 -174 665 -113T739 24Q739 74 704 120Q623 50 546 12T392 -26T273 -6Q200 -27 129 -27T20 -5T-18 53Q-18 101 48 150T231 225Q270 290 339 333T492
377Q543 377 568 356T593 298T572 222Q663 195 714 145Q722 153 769 196T936 359T1140 564L1222 648Q1350 773 1441 793Q1452 793 1452 788T1446 780Q1400 766 1360 719T1263 588T1176 456L1004 183Q1004 182 1007 182L1020 192Q1210 392 1372 533T1717 781Q1756
807 1761 807T1767 801T1765 793T1723 759T1648 696T1588 641T1502 558T1405 459T1316 358T1236 251Q1164 137 1164 64Q1164 19 1198 -10Q1212 -22 1231 -26Q1231 43 1271 119T1374 249T1500 302Q1535 302 1556 281T1578 220T1554 137T1488 53T1387 -12T1261 -39L1246
-38Q1257 -163 1424 -163Z" />
<glyph unicode="N" glyph-name="N" horiz-adv-x="1099" d="M249 228Q331 243 405 243T542 230Q563 270 563 300Q563 363 480 363Q409 363 348 325T249 228ZM297 1Q334 -13 389 -13Q534 -13 696 129Q648 183 565 209Q530 146 459 89T297 1ZM197 113Q197 162 224
212Q124 187 64 141T4 51Q4 21 36 3T130 -16T255 3Q197 41 197 113ZM535 218Q470 233 396 233T241 216Q212 166 212 116Q212 44 275 10Q359 41 429 99T535 218ZM600 541L601 524H615Q705 524 788 549T927 613T1014 693T1047 770T1019 823T934 843Q849 843 770 793T646
673T600 541ZM763 995L766 983Q610 961 506 865T401 670Q401 612 443 574T569 526Q567 544 567 554Q567 604 595 657T671 756T791 831T933 861T1034 839T1065 777T1032 693T942 606T797 538T609 511H603Q625 426 750 426Q814 426 903 464T1086 580L1092 572Q1062
546 1016 515T890 449T745 415Q601 415 573 512Q480 519 433 561T385 666Q385 767 491 867T763 995ZM1917 702T1891 726T1809 751T1688 728T1564 672T1437 583T1317 481T1200 366T1099 257T1008 153T938 72L882 -1Q877 -4 873 -4T869 2L881 23Q895 41 944 146L961
181Q1038 343 1077 406Q1214 629 1330 734Q1313 734 1238 664L1213 640Q902 299 723 137Q774 83 774 21Q774 -56 693 -119T452 -207V-196Q591 -174 665 -113T739 24Q739 74 704 120Q623 50 546 12T392 -26T273 -6Q200 -27 129 -27T20 -5T-18 53Q-18 101 48 150T231
225Q270 290 339 333T492 377Q543 377 568 356T593 298T572 222Q663 195 714 145Q722 153 769 196T931 359T1124 564L1202 648Q1330 773 1421 793Q1432 793 1432 788T1426 780Q1380 766 1340 718T1241 585T1140 429Q1038 257 1012 202L1004 183Q1004 182 1007 182L1020
192Q1041 214 1084 261T1155 336T1227 411T1305 488T1384 558T1468 624T1552 678T1640 723Q1736 760 1808 760T1912 728T1944 641T1881 517T1735 404T1590 360Q1518 360 1518 428Q1518 475 1562 523T1679 590L1682 580Q1613 559 1573 516T1533 431Q1533 373 1586
373T1718 421T1857 539T1917 655Z" />
<glyph unicode="O" glyph-name="O" horiz-adv-x="679" d="M678 697Q592 697 470 604T243 378H262Q332 378 403 399T529 455T629 528T698 603T722 664Q722 697 678 697ZM94 606Q174 606 254 634T390 704T482 792T518 876Q518 942 412 942Q323 942 241 891T107 764T41
609Q67 606 94 606ZM79 40Q79 -63 201 -63Q294 -63 427 27T673 238T868 489T949 692T867 766Q846 766 809 753T754 723Q739 727 739 734Q739 744 785 760T871 777Q969 777 969 691Q969 638 931 559T832 396T689 226T523 75T350 -34T189 -76T79 -40T41 59Q41 190
170 370Q92 387 55 437T17 557Q17 576 20 599Q-70 610 -115 653T-160 758Q-160 848 -75 935T137 1048L140 1033Q28 1014 -49 931T-126 760Q-126 704 -90 665T22 611Q38 695 92 774T234 908T418 962Q476 962 505 940T535 878T501 790T410 697T267 624T86 595Q54
595 39 597Q37 573 37 561Q37 496 73 450T182 386Q286 525 422 618T684 712Q742 712 742 668Q742 632 703 581T599 480T441 397T251 362H231Q162 272 121 186T79 40Z" />
<glyph unicode="P" glyph-name="P" horiz-adv-x="953" d="M269 218Q351 233 425 233T562 220Q583 260 583 290Q583 353 500 353Q429 353 368 315T269 218ZM317 -9Q354 -23 411 -23T562 20Q657 64 714 121Q669 173 585 199Q550 136 479 79T317 -9ZM24 41Q24 11
56 -7T151 -26T275 -6Q217 30 217 103Q217 152 244 202Q144 177 84 131T24 41ZM1177 543Q1142 508 998 355H1011Q1152 355 1257 437T1363 612Q1363 652 1338 684Q1260 627 1177 543ZM555 208Q490 223 416 223T261 206Q232 156 232 106Q232 34 295 0Q379 31 449
89T555 208ZM704 599T678 553T652 470T671 414T727 394Q803 394 879 448T1002 579T1049 726Q1049 745 1045 760Q954 753 877 721T752 644ZM908 354L918 365Q938 361 948 360L1061 477Q1192 620 1322 701Q1256 762 1094 762L1073 761Q1078 741 1078 722Q1078 648
1030 570T895 436T715 381Q669 381 645 404T620 467T648 555T727 648T861 727T1043 769Q1014 866 862 866Q812 866 755 850T653 809Q562 760 511 720L490 704L480 713Q504 734 553 767T647 822T752 863T870 881Q1037 881 1071 771Q1092 772 1102 772Q1264 772 1343
713Q1468 788 1574 788Q1652 788 1694 758T1736 677T1681 578T1527 512L1517 520Q1608 537 1657 581T1707 671T1670 746T1564 775Q1474 775 1360 699Q1403 657 1403 601Q1403 505 1295 423T1030 340Q1001 340 986 341Q959 312 920 272Q846 194 841 188Q811 158
754 114Q794 65 794 11Q794 -66 713 -129T472 -217V-206Q611 -184 685 -123T759 14Q759 58 732 99Q539 -36 399 -36Q335 -36 293 -16Q220 -37 149 -37T40 -15T2 43Q2 91 68 140T251 215Q290 280 359 323T512 367Q563 367 588 346T613 288T592 212Q677 187 731 138Q784
190 937 349L908 354Z" />
<glyph unicode="Q" glyph-name="Q" horiz-adv-x="1213" d="M729 13Q901 -26 976 -26T1086 -6T1122 42T1083 89T964 109T822 83T729 13ZM188 92Q108 92 62 67T15 13T45 -33T131 -50Q308 -49 498 33Q365 70 300 81T188 92ZM260 340Q260 283 333 283T490 328T639
440T746 585T789 728Q789 735 787 749Q685 737 585 688T415 576T303 449T260 340ZM183 660L174 666Q244 753 374 816T608 880Q773 880 807 763Q839 765 857 765Q990 765 1054 721T1119 600Q1119 475 967 313T590 46Q600 44 714 16Q750 64 818 93T972 123T1101 100T1143
43T1096 -19T971 -47Q850 -47 710 -19Q697 -48 697 -79Q697 -144 752 -190T905 -237Q959 -237 990 -222L995 -232Q969 -248 915 -248Q801 -248 740 -200T678 -83Q678 -49 693 -16Q617 1 537 23Q328 -63 123 -63Q65 -63 32 -43T-1 7Q-1 47 55 78T216 109T547 56Q765
162 920 326T1076 610Q1076 677 1020 715T847 753Q834 753 810 751Q814 734 814 710Q814 642 776 565T673 423T514 314T319 270Q242 270 242 336Q242 374 268 424T344 529T459 631T610 714T786 760Q762 869 598 869Q506 869 378 806T183 660Z" />
<glyph unicode="R" glyph-name="R" horiz-adv-x="1510" d="M1055 426L1017 386Q1072 386 1126 399Q1099 418 1055 426ZM1007 431Q998 432 978 432Q918 432 918 415T967 389Q997 421 1007 431ZM259 218Q341 233 415 233T552 220Q573 260 573 290Q573 353 490 353Q419
353 358 315T259 218ZM307 -9Q344 -23 401 -23T552 20Q647 64 704 121Q659 173 575 199Q540 136 469 79T307 -9ZM14 41Q14 11 46 -7T141 -26T265 -6Q207 30 207 103Q207 152 234 202Q134 177 74 131T14 41ZM1167 543Q1148 524 1065 436Q1116 427 1144 404Q1240
433 1300 494T1360 621Q1360 658 1337 690Q1253 631 1167 543ZM545 208Q480 223 406 223T251 206Q222 156 222 106Q222 34 285 0Q369 31 439 89T545 208ZM1139 -45H1154Q1213 -45 1267 -17T1355 52T1410 136T1430 212Q1430 249 1384 249Q1352 249 1311 229T1231
174T1166 81T1139 -40V-45ZM694 611T668 565T642 482T661 426T717 406Q793 406 869 460T992 591T1039 738Q1039 757 1035 772Q944 765 867 733T742 656ZM1157 392Q1178 366 1178 329T1163 260T1126 204T1082 158Q1030 105 1030 50Q1030 -33 1125 -43V-34Q1125 33
1152 91T1221 185T1308 242T1390 263Q1467 263 1467 200Q1467 164 1443 120T1377 36T1276 -29T1150 -56H1139Q1144 -127 1191 -171T1331 -216Q1363 -216 1399 -204L1407 -209Q1376 -226 1317 -226Q1227 -226 1180 -179T1126 -55Q1064 -48 1036 -11T1008 71T1023
146T1060 202T1104 250Q1155 306 1155 355Q1155 373 1140 388Q1070 374 1006 374Q864 226 831 188Q801 158 744 114Q784 65 784 11Q784 -66 703 -129T462 -217V-206Q601 -184 675 -123T749 14Q749 58 722 99Q529 -36 389 -36Q325 -36 283 -16Q210 -37 139 -37T30
-15T-8 43Q-8 91 58 140T241 215Q280 280 349 323T502 367Q553 367 578 346T603 288T582 212Q667 187 721 138Q770 186 954 377Q900 386 900 410Q900 423 923 432T976 442T1017 441L1051 477Q1187 625 1322 707Q1252 774 1084 774L1063 773Q1068 753 1068 734Q1068
660 1020 582T885 448T705 393Q659 393 635 416T610 479T638 567T717 660T851 739T1033 781Q1004 878 852 878Q802 878 745 862T643 821Q552 772 501 732L480 716L470 725Q494 746 543 779T637 834T742 875T860 893Q1027 893 1061 783Q1080 784 1092 784Q1254 784
1337 716Q1461 788 1564 788Q1642 788 1684 758T1726 677T1671 578T1517 512L1507 520Q1598 537 1647 581T1697 671T1660 746T1554 775Q1465 775 1353 701Q1392 659 1392 606Q1392 539 1330 479T1157 392Z" />
<glyph unicode="S" glyph-name="S" horiz-adv-x="924" d="M498 353Q429 353 373 316T282 221Q351 233 424 233T560 220Q581 260 581 290Q581 353 498 353ZM22 11T54 -7T148 -26T275 -5Q232 32 232 93T258 206Q151 182 87 134T22 41Q22 11 54 -7ZM409 -33Q572 -33
724 107Q679 168 583 199Q547 135 475 78T310 -10Q349 -33 409 -33ZM276 210Q248 156 248 96T293 0Q377 31 447 89T553 208Q488 223 417 223T276 210ZM1286 692Q1255 668 1233 648T1175 585T1122 518T1063 439T1005 360Q1117 386 1225 452T1396 587T1459 699Q1459
736 1401 736T1286 692ZM884 345Q914 345 930 347Q1058 522 1117 585Q1266 747 1413 747Q1473 747 1473 702Q1473 666 1435 614T1334 508T1180 410T994 345Q871 180 766 94Q792 54 792 11Q792 -66 711 -129T470 -217V-206Q609 -184 683 -123T757 14Q757 45 743
76Q581 -46 399 -46Q331 -46 289 -17Q214 -37 145 -37T38 -15T0 43Q0 93 70 144T264 218Q299 283 363 325T510 367Q561 367 586 346T611 288T590 212Q685 185 743 124Q816 196 920 335Q892 333 876 333Q761 333 702 385T642 517Q642 620 735 704T982 789Q1016 789
1045 785L1040 771Q1002 776 975 776Q834 776 749 698T663 522Q663 446 719 396T884 345Z" />
<glyph unicode="T" glyph-name="T" horiz-adv-x="948" d="M259 201Q341 216 415 216T552 203Q573 243 573 273Q573 336 490 336Q419 336 358 298T259 201ZM307 -26Q344 -40 400 -40T549 7Q645 56 699 110Q654 157 575 182Q540 119 469 62T307 -26ZM207 86Q207
136 234 185Q134 160 74 114T14 24Q14 -6 46 -24T141 -43T265 -23Q207 13 207 86ZM545 191Q480 206 406 206T251 189Q222 139 222 89Q222 17 285 -16Q369 14 439 72T545 191ZM715 521Q715 459 811 459Q875 459 952 513T1084 646T1138 792Q1138 804 1134 824Q1040
821 940 767T777 642T715 521ZM1591 912Q1711 972 1818 972Q1889 972 1927 949T1965 890Q1965 836 1886 791T1673 746Q1597 746 1407 785T1149 825Q1152 810 1152 795Q1152 724 1098 642T960 504T802 447Q751 447 725 469T699 532T729 621T813 716T951 795T1130
835Q1096 926 918 926Q868 926 813 909T713 868Q624 818 574 777L554 760L548 772Q565 789 615 824T707 881T811 921T929 939Q1113 939 1146 836Q1155 837 1174 837Q1264 837 1446 804T1690 770Q1807 770 1878 806T1950 885Q1950 914 1914 932T1797 951T1598 902L1591
912ZM1463 755L1460 745Q1333 699 1165 531Q1150 516 830 176Q799 146 741 100Q784 51 784 -6Q784 -83 703 -146T462 -234V-223Q601 -201 675 -140T749 -3Q749 43 720 84Q529 -53 389 -53Q325 -53 283 -33Q210 -54 139 -54T30 -32T-8 26Q-8 74 58 123T241 198Q280
263 349 306T502 350Q553 350 578 329T603 272T582 195Q663 172 716 126L1051 460Q1138 556 1247 639T1463 755Z" />
<glyph unicode="U" glyph-name="U" horiz-adv-x="867" d="M1058 702Q1058 719 1044 719Q1022 719 956 675Q854 609 718 479T491 225Q714 372 886 513T1058 702ZM812 188Q812 217 796 232T748 247T676 226T597 169T534 78T508 -40V-57Q572 -45 642 -7T762 86T812
188ZM-97 434Q-97 375 -29 375T107 406T222 486T299 592T329 704Q329 723 324 743Q235 732 138 686T-28 571T-97 434ZM386 10Q386 -61 468 -61Q475 -61 495 -59Q494 -51 494 -34Q494 33 521 91T590 185T677 242T760 263Q836 263 836 200Q836 122 729 36T510 -73Q521
-138 569 -172T684 -206Q794 -206 882 -129L890 -134Q795 -218 678 -218Q608 -218 559 -182T497 -76Q477 -79 460 -79Q413 -79 386 -55T358 18T400 149Q118 -30 41 -30Q21 -30 13 0Q10 12 10 27Q10 78 60 145T182 277T326 407T448 534T499 645T464 720T367 746Q351
746 343 745Q351 718 351 691Q351 635 323 577T245 471T121 393T-39 362Q-78 362 -98 381T-119 432Q-119 501 -48 573T125 694T321 754Q285 868 98 868Q3 868 -139 805T-346 660L-355 666Q-287 751 -143 815T102 879T261 845T340 755Q355 757 369 757Q436 757 475
728T515 641T481 520T396 405T283 296T167 195T74 101T27 16Q27 -12 56 -12Q121 -12 416 176Q499 315 657 469T946 694Q1016 733 1054 733Q1082 733 1082 707Q1082 655 893 501T467 191Q386 76 386 10Z" />
<glyph unicode="V" glyph-name="V" horiz-adv-x="896" d="M1110 709Q1110 732 1096 732Q1080 732 1070 709T1059 650T1073 590Q1110 661 1110 709ZM207 329Q267 329 345 369T479 470T535 579Q535 609 499 609Q427 609 333 533T157 340Q176 329 207 329ZM1044 689T1059
717T1099 746T1124 699T1083 577Q1101 559 1132 559T1204 586T1257 634L1266 630Q1259 621 1246 607T1195 570T1124 547T1075 564Q1004 443 859 299T564 54T338 -47Q277 -47 277 21Q277 65 310 118T393 220T501 323T609 427T692 530T726 629Q726 698 686 731T567
765T380 716T195 585T117 425Q117 372 145 349Q228 468 327 545T509 622Q533 622 546 609T559 572Q559 518 500 457T358 355T208 314Q173 314 148 327Q10 123 10 -35Q10 -131 72 -187T269 -243Q447 -243 616 -126T835 154L850 156Q817 39 720 -57T500 -204T250
-256T60 -197T-4 -37Q-4 44 34 142T136 335Q100 362 100 423Q100 502 178 586T369 723T568 776Q749 776 749 601Q749 535 702 464T589 332T455 214Q294 79 294 10Q294 -33 337 -33Q406 -33 552 65T848 308T1065 575Q1044 605 1044 647Z" />
<glyph unicode="W" glyph-name="W" horiz-adv-x="726" d="M714 699Q645 698 551 594Q607 607 666 640T726 692Q726 699 714 699ZM401 -9L1139 614Q1288 734 1429 734Q1487 734 1521 702T1555 605T1492 471T1345 357T1200 312Q1128 312 1128 380Q1128 427 1172
475T1289 542L1292 532Q1223 511 1183 468T1143 383Q1143 325 1196 325T1328 373T1467 491T1527 614T1499 693T1416 719T1285 685T1142 596Q1023 498 775 285T452 13Q363 -58 322 -84L310 -91Q302 -97 297 -97T292 -92T304 -76Q332 -56 476 138L524 202Q673 414
710 457Q776 532 856 613L884 642Q863 631 786 566T642 441L576 381Q380 207 321 154T133 10Q-6 -89 -39 -89Q-43 -89 -43 -84V-82Q-41 -73 -13 -51Q54 6 143 123T329 374T496 580Q451 588 451 635Q451 665 493 706T536 786Q536 804 504 818Q483 826 453 826Q351
826 248 782T71 674T-48 542T-95 422Q-95 387 -71 367T-1 346T128 386T236 459L246 452Q229 426 142 380T-5 333Q-115 333 -115 417Q-115 460 -85 516T1 628T127 731T285 809T460 839Q504 839 531 820T558 774T544 724T514 684Q469 640 469 622Q469 591 505 589Q627
713 718 713Q744 713 744 698Q744 669 673 628T537 579Q487 520 310 273Q255 197 176 108T20 -41Q59 -37 244 111Q266 129 285 144T456 294Q790 591 820 613T904 668T966 702T973 700L965 688Q939 676 867 588T736 418L677 337Q586 204 539 148Q469 64 416 8L401
-9Z" />
<glyph unicode="X" glyph-name="X" horiz-adv-x="1052" d="M59 -81Q145 -80 280 4T544 213Q499 195 455 180Q231 104 125 55T19 -43Q19 -81 59 -81ZM932 148Q932 198 885 198Q815 198 731 107T646 -103Q646 -121 647 -129Q708 -121 773 -82T885 20T932 148ZM759
311Q989 398 1144 497T1299 658V659Q1299 674 1278 674Q1196 674 1033 561T729 299Q742 305 759 311ZM327 564T301 519T275 436T296 378T354 359Q411 359 479 398T600 508T652 656Q652 684 643 708Q561 706 489 677T372 606ZM803 609Q803 705 666 709Q680 673 680
638Q680 579 648 523T566 428T462 366T360 342T287 365T260 431T284 521T354 611T475 685T639 720Q591 825 406 825Q314 825 186 762T-9 616L-18 622Q52 709 182 772T411 836T572 805T660 721H665Q860 721 860 600Q860 525 782 411Q912 531 1047 609T1280 687Q1314
687 1314 663Q1314 594 1153 490Q979 378 731 289Q717 284 712 282Q524 80 524 -29Q524 -81 551 -106T623 -131Q632 -131 637 -130Q635 -119 635 -95Q635 -28 661 31T727 129T811 190T891 213T948 194T969 136Q969 37 864 -45T648 -139Q658 -203 704 -241T833 -280Q865
-280 901 -268L909 -273Q878 -290 810 -290T696 -249T639 -140Q634 -141 625 -141Q567 -141 532 -111T496 -19Q496 67 594 204Q456 78 307 -6T56 -91Q1 -91 1 -48Q1 10 132 71Q206 106 345 153T565 233Q671 339 737 440T803 609Z" />
<glyph unicode="Y" glyph-name="Y" horiz-adv-x="600" d="M1117 708Q995 708 800 508Q693 399 553 233Q787 380 959 512T1131 691Q1131 708 1117 708ZM5 -353Q35 -359 57 -359Q137 -359 226 -321T373 -230T431 -137Q431 -78 304 -78H284Q121 -258 5 -353ZM-83
-315L-74 -309Q-62 -323 -38 -336Q67 -242 211 -86Q109 -102 -4 -150T-203 -254T-345 -367T-402 -459Q-402 -499 -329 -499Q-225 -499 -51 -348Q-77 -332 -83 -315ZM-74 434Q-74 375 -6 375T130 406T245 486T322 592T352 704Q352 723 347 743Q258 732 161 686T-5
571T-74 434ZM292 -69H313Q462 -69 462 -135Q462 -179 399 -234T236 -330T46 -371Q14 -371 -9 -365Q-196 -513 -340 -513Q-415 -513 -415 -463Q-415 -422 -364 -362T-229 -243T-24 -135T222 -74Q314 25 404 126Q133 -30 64 -30Q44 -30 36 0Q33 12 33 27Q33 78 83
145T206 277T349 407T471 534T522 645T487 720T390 746Q382 746 376 746T366 745Q374 718 374 691Q374 635 346 577T268 471T144 393T-16 362Q-55 362 -75 381T-96 432Q-96 501 -25 573T148 694T344 754Q308 868 121 868Q26 868 -116 805T-323 660L-332 666Q-264
751 -120 815T125 879T283 846T362 756Q372 757 392 757Q459 757 498 728T538 641T504 520T419 405T306 296T190 195T97 101T50 16Q50 -12 79 -12Q142 -12 436 162Q529 265 592 333T739 482T885 610T1012 689T1127 722Q1155 722 1155 696Q1155 645 962 497T521
196Q357 4 292 -69Z" />
<glyph unicode="Z" glyph-name="Z" horiz-adv-x="781" d="M199 66Q199 46 234 46Q307 46 448 179Q347 178 273 139T199 66ZM1088 730Q1149 722 1209 722T1328 749T1386 803Q1386 826 1335 826Q1225 826 1088 730ZM508 185Q644 168 649 59Q701 119 701 181Q701
254 622 293Q545 218 508 185ZM15 -396Q15 -422 34 -433T77 -445Q160 -445 280 -368T499 -181T623 19Q522 -69 246 -197Q155 -239 85 -293T15 -396ZM625 774Q496 774 405 707T314 571Q314 539 340 520T416 501Q511 501 643 570T871 739L836 746Q811 751 800 753T767
760T731 766T698 770Q660 774 625 774ZM431 748T509 768T672 788T893 763Q930 808 948 838L957 833Q938 799 905 761Q1017 741 1052 735Q1211 838 1344 838Q1404 838 1404 808Q1404 775 1334 741T1159 706Q1100 706 1059 710Q963 637 846 522Q805 481 734 408T631
303Q717 260 717 187T650 44Q648 -26 595 -114T461 -278T275 -405T70 -457Q38 -457 20 -440T1 -403Q1 -354 48 -308T171 -221T328 -142Q545 -42 627 35Q630 52 630 66Q630 162 498 176Q331 31 224 31Q187 31 187 58Q187 99 262 143T458 188Q495 223 580 310Q518
328 437 328T275 298T139 223T51 125T17 23T51 -52T155 -78T328 -33T500 79L507 71Q455 16 341 -36T136 -89Q2 -89 2 37Q2 86 32 138T117 235T262 309T440 338T590 320Q683 416 731 464T864 588T1020 714Q955 722 883 737Q790 639 659 565T409 491Q350 491 319
515T287 576T312 648T384 716Z" />
<glyph unicode="[" glyph-name="bracketleft" horiz-adv-x="353" d="M50 -61L500 820Q510 820 539 815T578 805L573 789Q567 790 514 790L81 -50Q118 -87 123 -91L116 -106Q105 -102 81 -85T50 -61Z" />
<glyph unicode="\" glyph-name="backslash" horiz-adv-x="190" d="M48 977L105 -220L81 -215L23 977H48Z" />
<glyph unicode="]" glyph-name="bracketright" horiz-adv-x="321" d="M545 775L95 -106Q85 -106 56 -101T17 -91L22 -75Q28 -76 81 -76L514 764Q477 801 472 805L479 820Q490 816 514 799T545 775Z" />
<glyph unicode="^" glyph-name="asciicircum" horiz-adv-x="354" d="M263 63L252 57L203 126L69 72L57 81L206 152Q219 152 222 147L263 63Z" />
<glyph unicode="_" glyph-name="underscore" horiz-adv-x="507" d="M434 -16L424 -32H-44L-32 -16H434Z" />
<glyph unicode="`" glyph-name="grave" horiz-adv-x="500" d="M371 213L233 270Q217 275 217 286T224 298T290 268T375 223L371 213Z" />
<glyph unicode="a" glyph-name="a" horiz-adv-x="359" d="M-7 -2Q31 -2 94 36T200 111T243 153T229 163T189 167T123 148T52 101T2 48T-18 10T-7 -2ZM261 166Q281 182 283 182Q310 179 311 178T312 174T304 162T257 112Q160 17 160 -3Q160 -11 167 -11Q215 -11
347 80L349 65Q216 -22 161 -22Q134 -22 134 3T165 70Q47 -17 -19 -18Q-43 -18 -43 11Q-43 63 23 122T199 181Q235 181 261 166Z" />
<glyph unicode="b" glyph-name="b" horiz-adv-x="291" d="M577 577Q527 577 343 416T45 120Q178 211 380 376T582 574Q582 577 577 577ZM-9 -5Q35 -5 159 94Q171 127 197 155T250 183Q260 183 260 176Q260 153 178 87Q175 76 175 69Q175 36 199 36Q228 36 292
79L294 65Q222 15 188 15T153 65V68Q36 -21 -18 -21Q-49 -21 -49 4Q-49 59 79 202T363 468T584 590Q596 590 596 581Q596 557 548 506T417 388T264 268T110 154T15 83Q-25 30 -25 8Q-25 -5 -9 -5Z" />
<glyph unicode="c" glyph-name="c" horiz-adv-x="254" d="M-1 21Q-1 -5 36 -5T133 19T242 80L244 65Q192 27 128 2T18 -23Q-42 -23 -42 21Q-42 69 33 127T178 186Q212 186 212 161Q212 144 200 129T168 114T149 124T160 142T184 150T198 160Q198 165 192 169T177
174Q129 174 64 117T-1 21Z" />
<glyph unicode="d" glyph-name="d" horiz-adv-x="359" d="M-7 -2Q28 -2 90 34T197 108T243 152T229 163T189 167T123 148T52 101T2 48T-18 10T-7 -2ZM462 319T406 264T318 175T264 120T227 84T195 50T169 19T160 -3T167 -11Q215 -11 347 80L349 65Q216 -22 161
-22Q134 -22 134 3Q134 30 166 70Q48 -17 -19 -18Q-43 -18 -43 11Q-43 63 23 122T199 181Q236 181 262 166Q267 170 274 177L692 582Q698 588 716 588T734 577Q734 573 730 569T700 542T652 499T586 438T503 359Z" />
<glyph unicode="e" glyph-name="e" horiz-adv-x="238" d="M193 168Q193 176 177 176T112 146T29 80Q96 91 144 120T193 168ZM-3 27Q-3 -2 37 -2Q113 -2 226 80L228 65Q110 -18 26 -18Q-34 -18 -34 32T40 136T194 190Q219 190 219 175Q219 151 164 118T18 68Q-3 44 -3 27Z" />
<glyph unicode="f" glyph-name="f" horiz-adv-x="231" d="M-343 -377Q-343 -388 -331 -388Q-296 -388 -229 -312T-102 -139T-21 22Q-24 26 -24 32Q-163 -116 -253 -230T-343 -377ZM575 549Q575 556 565 556Q524 556 375 424T45 105Q195 201 385 358T575 549ZM1
36Q8 4 48 4Q107 4 218 80L220 65Q110 -9 38 -9Q5 -9 -11 7Q-46 -73 -102 -163T-226 -327T-342 -401Q-370 -401 -370 -377Q-370 -323 -243 -166T45 154T363 444T572 572Q595 572 595 557Q595 523 485 423T238 223T12 70L11 69Q9 60 1 36Z" />
<glyph unicode="g" glyph-name="g" horiz-adv-x="321" d="M-9 2Q26 2 86 37T191 109T235 152T221 163T192 167Q151 167 100 135T15 66T-19 11Q-19 2 -9 2ZM-337 -298T-349 -317T-361 -359T-339 -381Q-285 -381 -22 -113Q-199 -198 -241 -227T-310 -277ZM254 166Q270
182 275 182T292 179T304 173T296 162T87 -46Q219 20 309 80L311 65Q266 39 247 26Q193 -7 59 -74Q-86 -220 -190 -307T-346 -395Q-375 -395 -375 -362T-345 -295T-256 -224Q-163 -168 -7 -92Q0 -89 4 -87Q21 -70 58 -30T108 22T126 40Q139 54 149 63Q38 -13 -21
-14Q-44 -14 -44 13Q-44 64 21 122T191 181Q226 181 254 166Z" />
<glyph unicode="h" glyph-name="h" horiz-adv-x="329" d="M564 549Q564 556 554 556Q514 556 357 413T74 136Q218 229 391 373T564 549ZM134 6Q134 -7 147 -7T188 5T236 29T286 60T318 80L320 65Q185 -25 131 -25Q105 -25 105 1T137 58T202 115T235 151Q235 155
228 155Q205 155 103 98T-30 13L-66 -17Q-70 -21 -86 -21T-102 -15Q-102 -12 -98 -7Q7 111 137 240T391 470T561 572Q585 572 585 557Q585 525 485 434T259 250T44 104Q9 64 4 53Q8 53 10 54Q74 99 143 134T230 169T254 162T261 147Q261 123 230 93T166 39T134
6Z" />
<glyph unicode="i" glyph-name="i" horiz-adv-x="168" d="M192 250T176 237T147 224T133 235T149 260T178 275T192 264Q192 250 176 237ZM107 156Q-28 34 -28 3Q-28 -7 -15 -7T26 5T74 29T124 60T156 80L158 65Q112 35 53 5T-36 -25T-67 0Q-67 21 -31 63T41 138L77
170Q82 174 96 173T110 163Q110 159 107 156Z" />
<glyph unicode="j" glyph-name="j" horiz-adv-x="139" d="M208 285T208 272T197 247T170 236T154 248T166 272T193 285ZM-519 -298T-531 -317T-543 -359T-521 -381Q-467 -381 -204 -113Q-381 -198 -423 -227T-492 -277ZM-557 -395T-557 -362T-527 -295T-438 -224Q-345
-168 -189 -92Q-182 -89 -178 -87Q-146 -55 -64 32Q82 182 93 182Q99 182 110 179T122 173T106 155T-94 -46Q-11 -4 53 35T127 80L129 65Q84 39 46 15T-122 -74Q-269 -221 -373 -308T-528 -395Q-557 -395 -557 -362Z" />
<glyph unicode="k" glyph-name="k" horiz-adv-x="340" d="M564 549Q564 556 554 556Q514 556 357 413T74 136Q218 229 391 373T564 549ZM170 79L180 58Q180 50 158 29T136 1T153 -7T198 5T246 29T296 60T328 80L330 65Q293 38 231 7T134 -25T99 6Q99 20 122 41T146
68T141 73Q121 76 121 88Q121 92 124 92H136Q192 92 230 117T268 161Q268 168 261 168Q188 168 -30 13L-66 -17Q-70 -21 -86 -21T-102 -15Q-102 -12 -98 -7Q7 111 137 240T391 470T561 572Q585 572 585 557Q585 525 485 434T259 250T44 104Q10 65 5 55Q58 92 90
112T174 157T264 182T301 152T262 102T184 81Q176 81 173 81T170 79Z" />
<glyph unicode="l" glyph-name="l" horiz-adv-x="176" d="M577 577Q527 577 343 416T45 120Q178 211 380 376T582 574Q582 577 577 577ZM15 83Q-25 30 -25 12T-8 -7Q39 -7 164 80L166 65Q33 -22 -22 -22Q-49 -22 -49 3Q-49 58 79 201T363 467T584 590Q596 590
596 581Q596 557 548 506T417 388T264 268T110 154T15 83Z" />
<glyph unicode="m" glyph-name="m" horiz-adv-x="593" d="M83 127Q35 93 -18 60L-21 74L74 140Q123 175 149 175T175 153Q175 120 129 74L146 84Q283 173 317 173T351 155Q351 135 319 92Q433 171 502 171Q529 171 529 148T509 101T465 58Q401 12 401 0Q401 -7
412 -7T451 5T499 29T549 60T581 80L583 65Q448 -25 394 -25Q368 -25 368 0Q368 17 389 40T436 84Q505 136 505 153Q505 158 494 158Q457 158 384 118T222 -12Q216 -18 197 -18T177 -9Q177 -5 212 28Q319 129 319 151Q319 157 312 157Q289 157 212 107T53 -11Q41
-18 34 -18Q3 -18 3 -11Q3 -7 30 17T104 89T151 157Q151 161 146 161Q128 161 83 127Z" />
<glyph unicode="n" glyph-name="n" horiz-adv-x="423" d="M181 180T181 158T149 92Q263 171 332 171Q359 171 359 148T339 101T295 58Q231 12 231 0Q231 -7 242 -7T281 5T329 29T379 60T411 80L413 65Q278 -25 224 -25Q198 -25 198 0Q198 17 219 40T266 84Q335
136 335 153Q335 158 324 158Q287 158 214 118T52 -12Q46 -18 30 -18T13 -9Q13 -6 82 65T151 157Q151 162 145 162T118 149T55 108T-18 60L-21 74Q-6 84 20 102T63 131T100 156Q139 180 160 180Z" />
<glyph unicode="o" glyph-name="o" horiz-adv-x="313" d="M12 -8Q84 -8 152 64V65Q152 113 198 155Q195 166 181 166Q107 166 50 111T-7 13Q-7 -8 12 -8ZM167 181Q220 181 220 146Q220 116 183 74V66Q183 33 212 33Q230 33 252 48L301 80L303 65L257 36Q225 15
195 15T154 46Q74 -25 2 -25Q-41 -25 -41 16Q-41 68 20 124T167 181Z" />
<glyph unicode="p" glyph-name="p" horiz-adv-x="401" d="M280 163Q292 163 299 155T306 136Q306 114 271 84T200 28T164 -13Q164 -21 177 -21Q220 -21 308 29Q346 50 389 80L391 65Q357 43 315 20Q291 5 245 -14T169 -34T139 -7T175 53T248 111T285 142T268 149Q222
149 128 91Q83 64 -20 -31L-264 -265Q-341 -340 -348 -347T-373 -355T-391 -348Q-391 -334 164 182L83 127Q35 93 -18 60L-21 74Q165 202 241 256Q362 368 377 368Q385 368 385 359Q385 345 284 268L89 79Q211 163 280 163Z" />
<glyph unicode="q" glyph-name="q" horiz-adv-x="339" d="M-9 2Q26 2 86 37T191 109T235 152T221 163T192 167Q151 167 100 135T15 66T-19 11Q-19 2 -9 2ZM-113 -225Q-231 -339 -231 -370Q-231 -379 -220 -379Q-183 -379 -106 -307T39 -143T128 5Q61 -57 -113
-225ZM329 65Q218 -8 166 -8Q151 -8 141 0Q119 -55 54 -147T-93 -317T-228 -396Q-246 -396 -246 -377T-216 -314T-145 -229T-8 -89T124 46Q35 -13 -21 -14Q-44 -14 -44 13Q-44 64 21 122T191 181Q230 181 256 164L264 171Q274 178 282 178Q306 178 306 166Q306
163 304 161Q215 85 156 30V25Q156 5 173 5Q194 5 240 29T327 80L329 65Z" />
<glyph unicode="r" glyph-name="r" horiz-adv-x="310" d="M123 142L170 148Q182 148 189 140T196 121Q196 99 165 73T104 24T73 -13Q73 -21 86 -21Q129 -21 217 29Q255 50 298 80L300 65Q266 43 224 20Q200 5 154 -14T78 -34T48 -7Q48 24 80 51T143 97T175 126Q175
129 168 129L112 124Q96 124 83 127Q35 93 -18 60L-21 74L74 140Q75 159 98 178T137 197T153 189T134 167T115 148T123 142Z" />
<glyph unicode="s" glyph-name="s" horiz-adv-x="252" d="M150 201Q154 207 159 207T165 201T159 189T151 153T135 79T90 0Q90 -2 94 -2Q101 -2 145 22L159 29Q197 50 240 80L242 65Q86 -36 3 -36Q-30 -36 -45 -22T-61 9T-53 36T-33 47Q-18 47 -18 31Q-18 21 -34
13Q-39 10 -39 3T-28 -13T-3 -23Q41 -23 72 32T113 143V146Q16 80 -18 60L-21 74Q142 179 150 201Z" />
<glyph unicode="t" glyph-name="t" horiz-adv-x="172" d="M443 486Q443 482 432 472T393 435T324 371T257 309H424Q427 309 427 305Q427 293 418 293H240Q-18 49 -18 4Q-18 -7 -4 -7Q20 -7 136 66Q156 78 160 80L162 65Q26 -25 -31 -25Q-61 -25 -61 -3Q-61 28
-14 81Q48 155 193 292H21Q7 292 7 300T15 309H210L410 493Q415 497 429 496T443 486Z" />
<glyph unicode="u" glyph-name="u" horiz-adv-x="355" d="M88 177Q93 181 115 179Q126 177 126 175T121 166T73 118Q-16 31 -16 9Q-16 4 -10 4Q24 4 237 148L264 170Q269 174 283 173T297 163Q297 159 294 156Q154 30 154 4Q154 -7 170 -7T213 5T261 29T311 60T343
80L345 65Q299 35 240 5T151 -25T120 0Q120 35 174 91Q17 -11 -20 -11Q-42 -11 -42 15Q-42 70 88 177Z" />
<glyph unicode="v" glyph-name="v" horiz-adv-x="387" d="M258 69Q258 36 282 36Q310 36 375 79L377 65Q305 15 271 15T236 65V67Q112 -21 65 -21Q34 -21 34 4Q34 38 124 111Q153 135 153 142T145 150Q121 150 -18 60L-21 74Q116 164 155 164Q181 164 181 135Q181
104 91 32Q61 8 61 0Q61 -5 74 -5Q122 -5 242 89Q257 126 295 164T362 202Q372 202 372 196Q372 184 340 153T260 85Q258 79 258 69Z" />
<glyph unicode="w" glyph-name="w" horiz-adv-x="547" d="M93 34Q61 8 61 2T67 -5Q97 -5 271 110L326 161Q331 165 345 164T359 154Q359 150 356 147Q226 30 226 1Q226 -5 234 -5Q282 -5 402 89Q417 126 455 164T522 202Q532 202 532 196Q532 184 500 153T420
85Q418 79 418 69Q418 36 442 36Q470 36 535 79L537 65Q465 15 431 15T396 65V67Q272 -21 225 -21Q197 -21 197 3T235 71Q93 -20 55 -20Q34 -20 34 3T66 58T129 117T161 151T152 159T83 124T-18 60L-21 74Q-13 79 6 92T37 112T66 129T95 146T120 160Q146 172 163
172Q189 172 189 143Q189 112 93 34Z" />
<glyph unicode="x" glyph-name="x" horiz-adv-x="355" d="M305 149Q252 149 191 102T130 21Q130 -2 167 -2Q217 -2 343 80L345 65Q291 27 237 4T147 -20Q98 -20 98 25Q98 31 99 34Q11 -27 -62 -27Q-90 -27 -90 -8Q-90 8 -71 8Q-66 8 -61 -3T-49 -14Q3 -14 83 47T164
141Q164 155 150 155Q130 155 100 137T56 110T16 83T-18 60L-21 74Q124 172 160 172T197 150Q197 141 191 129Q256 165 323 165Q341 165 341 153Q341 147 336 142T323 136T312 139T307 146T305 149Z" />
<glyph unicode="y" glyph-name="y" horiz-adv-x="391" d="M-267 -298T-279 -317T-291 -359T-269 -381Q-215 -381 48 -113Q-129 -198 -171 -227T-240 -277ZM-305 -395T-305 -362T-275 -295T-186 -224Q-93 -168 63 -92Q70 -89 74 -87Q91 -70 128 -30T194 38Q104
-21 69 -21T34 4Q34 38 124 111Q153 135 153 142T145 150Q128 150 89 126T39 96T10 78T-18 60L-21 74Q116 164 155 164Q181 164 181 135Q181 104 91 32Q61 8 61 0Q61 -5 74 -5Q104 -5 166 34T270 113Q331 170 336 170T353 167T365 161T351 145T161 -44Q259 6 314
40T379 80L381 65Q336 39 317 26Q247 -17 133 -72Q-15 -220 -119 -307T-276 -395Q-305 -395 -305 -362Z" />
<glyph unicode="z" glyph-name="z" horiz-adv-x="342" d="M156 40Q156 43 147 43Q111 43 46 10L-11 -22Q-14 -24 -26 -24T-39 -23T-38 -20L177 130Q147 125 143 125Q119 125 107 143Q35 93 -18 60L-21 74L98 156Q99 175 117 190T151 206T167 197T148 175T129 157Q129
144 154 144Q204 144 283 196Q290 196 290 189T284 176L78 33Q129 59 161 59T194 46Q194 38 174 23T153 -3Q153 -10 168 -10T237 22T330 80L332 65Q279 29 225 3T147 -23T123 -9Q123 3 148 31L156 40Z" />
<glyph unicode="{" glyph-name="braceleft" horiz-adv-x="253" d="M244 359Q260 340 260 309T233 226T174 127Q88 3 88 -50Q88 -86 123 -99L112 -113Q61 -99 61 -51Q61 -15 101 52T182 189T223 298T187 357L204 390Q210 389 220 389Q265 389 301 432T363 538T414
664Q472 813 539 813Q559 813 578 805L573 789Q561 791 556 791Q490 791 434 654Q410 595 386 535T325 424T244 359Z" />
<glyph unicode="|" glyph-name="bar" horiz-adv-x="241" d="M388 949L23 -191L-1 -185L364 950L388 949Z" />
<glyph unicode="}" glyph-name="braceright" horiz-adv-x="424" d="M369 340Q354 359 354 390T381 474T440 573Q526 697 526 750Q526 786 491 799L502 813Q553 799 553 751Q553 715 513 648T432 511T391 402T427 343L410 310Q404 311 394 311Q349 311 313 268T251
162T200 36Q142 -113 75 -113Q55 -113 36 -105L41 -89Q53 -91 58 -91Q123 -91 179 46Q203 104 227 164T288 275T369 340Z" />
<glyph unicode="~" glyph-name="asciitilde" horiz-adv-x="289" d="M265 115L274 109Q252 71 210 71Q188 71 156 89T103 108T50 80L45 85Q78 127 125 127Q150 127 184 111T233 95T265 115Z" />
<glyph unicode="&#xa1;" glyph-name="exclamdown" horiz-adv-x="280" d="M284 177Q284 166 266 150T234 134T219 147Q219 162 237 176T269 191T284 177ZM-159 -350L200 104Q201 104 208 98L-139 -388Q-159 -384 -159 -350Z" />
<glyph unicode="&#xa2;" glyph-name="cent" horiz-adv-x="305" d="M93 146L9 46L0 51L80 149Q51 159 51 189Q51 235 122 292T263 354L366 472L376 463L283 353Q305 348 305 330T293 297T261 282T242 292T253 310T277 318T291 328Q291 333 285 337T270 342Q222
342 157 285T92 189Q92 178 98 172L135 217L147 211L109 166Q118 163 130 163Q167 163 226 187T335 248L337 233Q285 195 221 170T111 145Q98 145 93 146Z" />
<glyph unicode="&#xa3;" glyph-name="sterling" horiz-adv-x="758" d="M226 23Q64 66 34 66T-9 56T-23 28T-1 -6T60 -22Q143 -22 226 23ZM403 -2Q493 -20 538 -20T616 -4T649 30T630 58T575 68Q449 68 403 -2ZM777 437Q777 472 736 472Q708 472 687 455T653 426T622
392T591 354T557 310T521 265Q615 285 696 338T777 437ZM269 29L380 2Q427 80 581 80Q628 80 655 66T682 32Q682 7 641 -11T536 -30T395 -16Q388 -31 388 -50Q388 -91 426 -120T533 -149L536 -154L518 -155Q450 -155 409 -122T367 -44Q367 -28 373 -12Q345 -7 248
17Q154 -30 53 -30Q5 -30 -25 -12T-55 28T-32 62T36 75T246 35Q322 83 401 174H260L272 188H413Q430 207 462 247H457Q392 247 353 278T314 376Q314 459 381 529T555 599L553 588Q460 588 394 518T327 369Q327 311 361 285T453 258H471Q577 392 600 410T648 448Q692
482 742 482Q803 482 803 439Q803 387 708 328T509 251Q475 209 456 188H578L568 174H444Q355 77 269 29Z" />
<glyph unicode="&#xa4;" glyph-name="currency" horiz-adv-x="392" d="M253 282T226 282T181 254T162 197T175 150T216 133T261 161T280 218T267 265ZM269 137Q247 117 211 117T155 148L98 105L90 119L147 163Q140 178 140 199Q140 247 171 276L133 331L147 339L184
286Q205 298 226 298Q270 298 291 258L347 299L355 285L297 242Q300 228 300 215Q300 177 280 149L319 98L305 90L269 137Z" />
<glyph unicode="&#xa5;" glyph-name="yen" horiz-adv-x="279" d="M353 263L343 249H212Q203 237 183 213H332L322 199H172Q162 178 114 107Q46 6 38 -7Q26 -19 16 -19T0 -13T-6 1Q-3 5 4 14Q92 113 150 199H44L56 213H160L170 228Q178 240 182 249H65L77 263H190Q264
394 264 513Q264 526 262 550L291 562Q292 550 292 541Q292 421 212 269Q291 362 368 432T506 539Q624 611 690 611Q736 611 736 582Q736 565 723 545T694 524T678 536T694 563T711 585Q711 602 683 602T613 585T513 532T379 426T224 263H353Z" />
<glyph unicode="&#xa6;" glyph-name="brokenbar" horiz-adv-x="241" d="M388 949L238 482H213L364 950L388 949ZM23 -191L-1 -185L164 329H189L23 -191Z" />
<glyph unicode="&#xa7;" glyph-name="section" horiz-adv-x="415" d="M261 354Q279 355 299 360Q295 376 295 396V405Q272 380 261 354ZM254 321Q254 289 280 221T307 120Q307 114 305 104Q353 143 353 194Q353 230 332 278T305 343Q279 338 255 337Q254 331 254
321ZM557 517Q557 547 498 547T392 501T344 411Q344 394 349 371Q434 395 495 437T557 517ZM78 80L63 78Q63 90 57 96T39 103T18 92T8 58Q8 14 33 -8T98 -30Q157 -30 210 9T263 104Q263 138 234 205T205 298T209 336Q139 340 97 372T55 469Q55 548 122 617T284
687L280 675Q193 675 134 612T75 482Q75 357 216 353Q239 403 303 436Q324 486 383 520T495 555Q581 555 581 513Q581 468 514 423T355 353Q360 338 372 308Q397 244 397 209T370 141T298 82Q277 32 213 -5T94 -42Q-16 -42 -16 59Q-16 90 -1 105T33 121T65 110T78
80Z" />
<glyph unicode="&#xa8;" glyph-name="dieresis" horiz-adv-x="168" d="M224 250T208 237T179 224T165 235T181 260T210 275T224 264Q224 250 208 237ZM136 250T120 237T91 224T77 235T93 260T122 275T136 264Q136 250 120 237Z" />
<glyph unicode="&#xa9;" glyph-name="copyright" horiz-adv-x="479" d="M144 126Q144 100 181 100T278 124T387 185L389 170Q337 132 273 107T163 82Q103 82 103 126Q103 174 178 232T323 291Q357 291 357 266Q357 249 345 234T313 219T294 229T305 247T329 255T343
265Q343 270 337 274T322 279Q274 279 209 222T144 126ZM267 371Q173 371 117 307T61 168T102 47T221 0Q315 0 371 64T427 203T386 324T267 371ZM207 -21Q124 -21 82 26T39 144Q39 238 106 315T281 392Q364 392 406 345T449 227Q449 133 382 56T207 -21Z" />
<glyph unicode="&#xaa;" glyph-name="ordfeminine" horiz-adv-x="359" d="M175 298Q205 298 255 328T340 388T375 422T364 430T340 434Q285 434 226 384T166 306Q166 298 175 298ZM390 433Q403 446 407 446Q430 446 430 438Q425 428 390 394T331 334T308 300T314
291Q353 291 458 364L460 352Q348 282 309 282Q288 282 288 302T313 355Q216 286 165 286Q146 286 146 309Q146 351 199 398T340 445Q370 445 390 433Z" />
<glyph unicode="&#xab;" glyph-name="guillemotleft" horiz-adv-x="409" d="M294 18L288 9L132 84Q126 87 126 91T134 98L355 175L353 163L176 84L294 18ZM175 19L169 10L14 91Q8 94 8 98T16 105L234 174L232 162L58 91L175 19Z" />
<glyph unicode="&#xac;" glyph-name="logicalnot" horiz-adv-x="411" d="M88 223H394L336 77L318 71L372 207H76L88 223Z" />
<glyph unicode="&#xae;" glyph-name="registered" horiz-adv-x="479" d="M249 247L296 253Q308 253 315 245T322 226Q322 204 291 178T230 129T199 92Q199 84 212 84Q273 84 425 184Q427 202 427 211Q427 278 386 324T267 371Q173 371 117 307T61 168T102 47T222
0T354 48T422 165Q406 156 366 133Q258 71 205 71Q174 71 174 98Q174 129 206 156T269 202T301 231Q301 234 294 234L238 229Q222 229 209 232Q161 198 108 165L105 179L200 245Q201 264 224 283T263 302T279 293T260 271T241 253T249 247ZM207 -21Q124 -21 82
26T39 144Q39 238 106 315T281 392Q364 392 406 345T449 227Q449 133 382 56T207 -21Z" />
<glyph unicode="&#xaf;" glyph-name="overscore" horiz-adv-x="359" d="M362 247L352 231H84L96 247H362Z" />
<glyph unicode="&#xb0;" glyph-name="degree" horiz-adv-x="221" d="M240 490Q240 511 218 511T180 495T165 463Q165 442 187 442T225 458T240 490ZM146 483T167 504T222 526T257 494Q257 471 236 449T185 427Q146 427 146 459Q146 483 167 504Z" />
<glyph unicode="&#xb1;" glyph-name="plusminus" horiz-adv-x="411" d="M397 256L387 240H259L220 142L202 136L244 240H109L121 256H250L289 351L308 359L266 256H397ZM318 72L308 56H30L42 72H318Z" />
<glyph unicode="&#xb2;" glyph-name="twosuperior" horiz-adv-x="424" d="M267 224Q303 209 331 209Q377 209 377 229T339 249T267 224ZM194 233Q152 251 124 251T81 239T66 214Q66 197 101 197T194 233ZM314 500T288 474T261 425T280 402Q303 402 329 427T356
483Q356 497 348 511Q314 500 288 474ZM357 513Q368 496 368 468T340 417T279 393T246 425Q246 454 273 481T342 520Q312 556 257 560L264 566Q324 559 351 522Q371 527 389 527Q449 527 449 486Q449 439 382 365T229 240Q240 234 255 229Q292 259 344 259T397
232Q397 217 379 206T323 195T250 206Q233 186 233 170Q233 125 307 125Q329 125 343 131L344 122Q332 116 299 116T244 131T221 169T239 212Q218 219 208 225Q138 186 88 186Q70 186 60 194T50 217T71 247T132 262T211 247Q281 293 351 370T421 489Q421 517 382
517Q375 517 357 513Z" />
<glyph unicode="&#xb3;" glyph-name="threesuperior" horiz-adv-x="372" d="M255 385T241 377T226 361T251 353T310 377Q298 385 277 385ZM226 443Q226 424 250 424T306 450T340 514Q335 515 327 515Q285 515 256 491T226 443ZM208 373T227 383T275 394T323 386Q343
401 365 429T388 481T356 512Q353 472 318 444T246 416T209 440Q209 477 249 500T334 524H340Q338 573 252 573L253 580Q302 580 328 564T356 521Q416 515 416 478Q416 455 394 427T337 378Q352 356 352 334Q352 277 277 231T116 184Q88 184 88 203Q88 214 98 226T118
239T127 233Q127 225 116 217T104 202Q104 192 122 192Q194 192 260 242T326 347Q326 360 322 369Q281 347 245 347T208 362Q208 373 227 383Z" />
<glyph unicode="&#xb4;" glyph-name="acute" horiz-adv-x="500" d="M359 270L221 213L217 223Q242 238 301 268T368 298T375 287T359 270Z" />
<glyph unicode="&#xb5;" glyph-name="mu" horiz-adv-x="355" d="M-379 -265T-189 -83T45 140T97 181T116 179T126 175T121 166T73 118Q-16 31 -16 9Q-16 4 -10 4Q24 4 237 148L264 170Q269 174 283 173T297 163Q297 159 294 156Q154 30 154 4Q154 -7 170 -7T213
5T261 29T311 60T343 80L345 65Q299 35 240 5T151 -25T120 0Q120 35 174 91Q17 -11 -20 -11Q-41 -11 -42 14L-252 -188Q-329 -263 -336 -270T-361 -278T-379 -272Z" />
<glyph unicode="&#xb6;" glyph-name="paragraph" horiz-adv-x="251" d="M453 598L474 583Q441 545 382 545H376Q329 464 275 366T143 102T44 -150L6 -169Q59 -7 155 183T360 546Q338 549 298 565T236 582Q196 582 152 554L144 559Q189 592 235 592Q260 592 305
579T373 565Q415 565 453 598ZM230 570Q257 570 291 558T337 541Q258 419 177 276Q15 -11 -19 -179L-71 -200Q-13 -23 138 246Q209 371 226 405Q193 377 150 354T77 331Q38 331 38 375Q38 431 104 500T230 570Z" />
<glyph unicode="&#xb7;" glyph-name="middot" horiz-adv-x="163" d="M33 79Q33 90 51 106T83 122T98 109Q98 94 80 80T48 65T33 79Z" />
<glyph unicode="&#xb8;" glyph-name="cedilla" horiz-adv-x="254" d="M-18 -55L6 -16L21 -17L-4 -50Q10 -47 23 -47Q81 -47 81 -74Q81 -92 55 -108T-7 -125T-73 -108L-66 -101Q-36 -114 -10 -114T32 -105T47 -84T36 -66T14 -59T-15 -62L-18 -55Z" />
<glyph unicode="&#xb9;" glyph-name="onesuperior" horiz-adv-x="299" d="M388 541Q388 543 386 543T374 533Q371 533 335 483Q388 528 388 541ZM358 541Q379 562 393 562T407 549Q407 513 311 449Q137 206 127 191Q119 183 113 183T99 187T92 196Q142 255 267
423Q210 384 161 376V393Q220 405 293 457Q328 505 358 541Z" />
<glyph unicode="&#xba;" glyph-name="ordmasculine" horiz-adv-x="313" d="M191 299Q249 299 303 357Q303 396 340 430Q337 438 326 438Q267 438 222 394T176 316Q176 299 191 299ZM315 450Q357 450 357 422Q357 399 327 364V358Q327 332 351 332Q366 332 383
343L422 369L423 357L387 334Q360 317 336 317T305 342Q241 285 183 285Q148 285 148 318Q148 360 197 405T315 450Z" />
<glyph unicode="&#xbb;" glyph-name="guillemotright" horiz-adv-x="388" d="M45 166L51 175L207 100Q213 97 213 93T205 86L-16 9L-14 21L163 100L45 166ZM164 165L170 174L325 93Q331 90 331 86T323 79L105 10L107 22L281 93L164 165Z" />
<glyph unicode="&#xbc;" glyph-name="onequarter" horiz-adv-x="573" d="M388 541Q388 543 386 543T374 533Q371 533 335 483Q388 528 388 541ZM358 541Q379 562 393 562T407 549Q407 513 311 449Q137 206 127 191Q119 183 113 183T99 187T92 196Q142 255 267
423Q210 384 161 376V393Q220 405 293 457Q328 505 358 541ZM519 114Q529 114 529 109T522 99Q506 86 467 78Q490 114 519 114ZM522 255Q498 223 378 71Q298 71 298 82Q351 129 375 152T438 218Q509 293 532 383H517Q506 337 471 286T391 194Q320 129 270 95Q254
84 254 75T293 62T356 58H367Q339 21 314 -7Q314 -12 322 -16T337 -20T353 -13Q376 24 401 59Q419 60 442 65Q439 47 439 46Q439 20 468 20T517 31L516 37Q494 28 478 28Q457 28 457 47Q457 56 462 69Q498 76 524 90T550 113T528 123T482 109T448 75Q429 72 410
71Q536 246 541 246L522 255ZM98 -29L517 615L539 603L121 -37L98 -29Z" />
<glyph unicode="&#xbd;" glyph-name="onehalf" horiz-adv-x="692" d="M388 541Q388 543 386 543T374 533Q371 533 335 483Q388 528 388 541ZM358 541Q379 562 393 562T407 549Q407 513 311 449Q137 206 127 191Q119 183 113 183T99 187T92 196Q142 255 267 423Q210
384 161 376V393Q220 405 293 457Q328 505 358 541ZM446 32Q482 17 510 17Q556 17 556 37T518 57T446 32ZM373 41Q331 59 303 59T260 47T245 22Q245 5 279 5T373 41ZM493 308T467 282T440 233T459 210Q482 210 508 235T535 291Q535 305 527 319Q493 308 467 282ZM98
-29L517 615L539 603L121 -37L98 -29ZM536 321Q547 304 547 276T519 225T458 201T425 233Q425 262 452 289T521 328Q491 364 436 368L443 374Q503 367 530 330Q550 335 568 335Q628 335 628 294Q628 247 561 173T408 48Q419 42 434 37Q471 67 523 67T576 40Q576
25 558 14T502 3T429 14Q412 -6 412 -22Q412 -67 486 -67Q508 -67 522 -61L523 -70Q511 -76 478 -76T423 -61T400 -22T418 20Q397 27 387 33Q317 -6 267 -6Q249 -6 239 2T229 25T250 55T311 70T390 55Q460 101 530 178T600 297Q600 325 561 325Q554 325 536 321Z"
/>
<glyph unicode="&#xbe;" glyph-name="threequarters" horiz-adv-x="615" d="M272 377Q238 353 213 353T188 360T202 376T238 385T272 377ZM300 477T269 451T213 424T188 443Q188 467 217 491T289 515Q297 515 302 514Q300 477 269 451ZM285 386Q266 394 238 394T190
384T170 362Q170 347 206 347T284 369Q288 360 288 347Q288 292 222 242T84 192Q66 192 66 202Q66 208 77 216T89 232T80 239T61 227T50 203Q50 184 78 184Q163 184 238 230T314 334Q314 356 299 378Q333 399 355 427T378 478Q378 515 318 521Q317 547 291 563T215
580L214 573Q300 573 302 524H296Q252 524 212 501T171 440Q171 416 207 416T279 444T318 512Q350 504 350 481T328 430T285 386ZM561 114Q571 114 571 109T564 99Q548 86 509 78Q532 114 561 114ZM564 255Q540 223 420 71Q340 71 340 82Q393 129 417 152T480 218Q551
293 574 383H559Q548 337 513 286T433 194Q362 129 312 95Q296 84 296 75T335 62T398 58H409Q381 21 356 -7Q356 -12 364 -16T379 -20T395 -13Q418 24 443 59Q461 60 484 65Q481 47 481 46Q481 20 510 20T559 31L558 37Q536 28 520 28Q499 28 499 47Q499 56 504
69Q540 76 566 90T592 113T570 123T524 109T490 75Q471 72 452 71Q578 246 583 246L564 255ZM140 -29L559 615L581 603L163 -37L140 -29Z" />
<glyph unicode="&#xbf;" glyph-name="questiondown" horiz-adv-x="290" d="M282 171Q282 160 264 144T232 128T217 141Q217 156 235 170T267 185T282 171ZM-26 -343Q-26 -375 -13 -401Q58 -381 117 -328T177 -219Q177 -189 163 -174T124 -159Q73 -159 24 -212T-26
-343ZM204 99L219 89Q219 50 181 6T87 -78T-22 -158Q-154 -254 -154 -315Q-154 -409 -65 -409Q-49 -409 -26 -404Q-44 -372 -44 -335Q-44 -249 9 -195T121 -141Q154 -141 175 -160T196 -217Q196 -274 133 -331T-8 -409Q39 -490 187 -490L180 -497Q31 -496 -22 -413Q-47
-418 -67 -418Q-113 -418 -140 -393T-167 -315T-132 -212T-44 -122T62 -46Q192 42 204 99Z" />
<glyph unicode="&#xc0;" glyph-name="Agrave" horiz-adv-x="1417" d="M1578 802L1440 859Q1424 864 1424 875T1431 887T1497 857T1582 812L1578 802ZM938 120Q946 166 980 222Q1021 209 1057 189Q1025 172 938 120ZM1162 43Q1162 26 1155 2Q1100 -13 1061 -13Q952
-13 938 80Q973 101 1084 172Q1162 116 1162 43ZM426 62Q426 126 528 186T781 249Q578 87 442 20Q426 37 426 62ZM823 261L1013 422Q1015 423 1088 485T1201 578T1309 653T1430 717Q1439 720 1442 720Q1442 720 1445 720Q1446 720 1445 719Q1430 707 1355 650T1239
559T1136 468Q1016 360 958 247Q895 260 823 261ZM1188 56Q1188 135 1110 188Q1207 245 1266 245Q1377 245 1377 182Q1377 138 1319 89T1181 11Q1188 32 1188 56ZM808 249Q888 246 949 230Q921 167 918 108Q815 46 738 14T578 -19T455 9Q606 81 808 249ZM640 521L641
504H655Q745 504 828 529T967 593T1054 673T1087 750T1059 803T974 823Q889 823 810 773T686 653T640 521ZM803 975L806 963Q650 941 546 845T441 650Q441 592 483 554T609 506Q607 524 607 534Q607 584 635 637T711 736T831 811T973 841T1074 819T1105 757T1072
673T982 586T837 518T649 491H643Q665 406 790 406Q854 406 943 444T1126 560L1132 552Q1102 526 1056 495T930 429T785 395Q641 395 613 492Q520 499 473 541T425 646Q425 747 531 847T803 975ZM233 127V116Q304 123 359 169T415 262Q415 292 387 310T300 328Q169
328 85 251T1 84Q1 22 47 -18T182 -58Q304 -58 443 4Q485 -30 571 -30Q745 -30 919 69Q934 -25 1054 -25Q1095 -25 1150 -10Q1105 -117 904 -187V-197Q1010 -169 1080 -117T1176 -3Q1264 26 1328 79T1392 186Q1392 219 1364 238T1279 258Q1193 258 1085 204Q1047
224 991 240Q1073 368 1238 521T1528 745Q1533 749 1533 754Q1533 764 1522 764Q1520 764 1508 762Q1355 731 1037 461Q857 310 796 261Q617 260 514 200T410 68Q410 38 431 15Q307 -43 213 -43T76 -6T34 89Q34 172 108 244T295 316Q343 316 366 299T390 254Q390
213 345 174T233 127Z" />
<glyph unicode="&#xc1;" glyph-name="Aacute" horiz-adv-x="1417" d="M1509 802L1647 859Q1663 864 1663 875T1656 887T1590 857T1505 812L1509 802ZM938 120Q946 166 980 222Q1021 209 1057 189Q1025 172 938 120ZM1162 43Q1162 26 1155 2Q1100 -13 1061 -13Q952
-13 938 80Q973 101 1084 172Q1162 116 1162 43ZM426 62Q426 126 528 186T781 249Q578 87 442 20Q426 37 426 62ZM823 261L1013 422Q1015 423 1088 485T1201 578T1309 653T1430 717Q1439 720 1442 720Q1442 720 1445 720Q1446 720 1445 719Q1430 707 1355 650T1239
559T1136 468Q1016 360 958 247Q895 260 823 261ZM1188 56Q1188 135 1110 188Q1207 245 1266 245Q1377 245 1377 182Q1377 138 1319 89T1181 11Q1188 32 1188 56ZM808 249Q888 246 949 230Q921 167 918 108Q815 46 738 14T578 -19T455 9Q606 81 808 249ZM640 521L641
504H655Q745 504 828 529T967 593T1054 673T1087 750T1059 803T974 823Q889 823 810 773T686 653T640 521ZM803 975L806 963Q650 941 546 845T441 650Q441 592 483 554T609 506Q607 524 607 534Q607 584 635 637T711 736T831 811T973 841T1074 819T1105 757T1072
673T982 586T837 518T649 491H643Q665 406 790 406Q854 406 943 444T1126 560L1132 552Q1102 526 1056 495T930 429T785 395Q641 395 613 492Q520 499 473 541T425 646Q425 747 531 847T803 975ZM233 127V116Q304 123 359 169T415 262Q415 292 387 310T300 328Q169
328 85 251T1 84Q1 22 47 -18T182 -58Q304 -58 443 4Q485 -30 571 -30Q745 -30 919 69Q934 -25 1054 -25Q1095 -25 1150 -10Q1105 -117 904 -187V-197Q1010 -169 1080 -117T1176 -3Q1264 26 1328 79T1392 186Q1392 219 1364 238T1279 258Q1193 258 1085 204Q1047
224 991 240Q1073 368 1238 521T1528 745Q1533 749 1533 754Q1533 764 1522 764Q1520 764 1508 762Q1355 731 1037 461Q857 310 796 261Q617 260 514 200T410 68Q410 38 431 15Q307 -43 213 -43T76 -6T34 89Q34 172 108 244T295 316Q343 316 366 299T390 254Q390
213 345 174T233 127Z" />
<glyph unicode="&#xc2;" glyph-name="Acircumflex" horiz-adv-x="1417" d="M1608 791L1619 797L1578 881Q1576 886 1566 886H1562L1413 815L1425 806L1559 860L1608 791ZM938 120Q946 166 980 222Q1021 209 1057 189Q1025 172 938 120ZM1162 43Q1162 26 1155 2Q1100
-13 1061 -13Q952 -13 938 80Q973 101 1084 172Q1162 116 1162 43ZM426 62Q426 126 528 186T781 249Q578 87 442 20Q426 37 426 62ZM823 261L1013 422Q1015 423 1088 485T1201 578T1309 653T1430 717Q1439 720 1442 720Q1442 720 1445 720Q1446 720 1445 719Q1430
707 1355 650T1239 559T1136 468Q1016 360 958 247Q895 260 823 261ZM1188 56Q1188 135 1110 188Q1207 245 1266 245Q1377 245 1377 182Q1377 138 1319 89T1181 11Q1188 32 1188 56ZM808 249Q888 246 949 230Q921 167 918 108Q815 46 738 14T578 -19T455 9Q606
81 808 249ZM640 521L641 504H655Q745 504 828 529T967 593T1054 673T1087 750T1059 803T974 823Q889 823 810 773T686 653T640 521ZM803 975L806 963Q650 941 546 845T441 650Q441 592 483 554T609 506Q607 524 607 534Q607 584 635 637T711 736T831 811T973 841T1074
819T1105 757T1072 673T982 586T837 518T649 491H643Q665 406 790 406Q854 406 943 444T1126 560L1132 552Q1102 526 1056 495T930 429T785 395Q641 395 613 492Q520 499 473 541T425 646Q425 747 531 847T803 975ZM233 127V116Q304 123 359 169T415 262Q415 292
387 310T300 328Q169 328 85 251T1 84Q1 22 47 -18T182 -58Q304 -58 443 4Q485 -30 571 -30Q745 -30 919 69Q934 -25 1054 -25Q1095 -25 1150 -10Q1105 -117 904 -187V-197Q1010 -169 1080 -117T1176 -3Q1264 26 1328 79T1392 186Q1392 219 1364 238T1279 258Q1193
258 1085 204Q1047 224 991 240Q1073 368 1238 521T1528 745Q1533 749 1533 754Q1533 764 1522 764Q1520 764 1508 762Q1355 731 1037 461Q857 310 796 261Q617 260 514 200T410 68Q410 38 431 15Q307 -43 213 -43T76 -6T34 89Q34 172 108 244T295 316Q343 316
366 299T390 254Q390 213 345 174T233 127Z" />
<glyph unicode="&#xc3;" glyph-name="Atilde" horiz-adv-x="1417" d="M1623 847L1614 853Q1598 833 1583 833T1533 849T1474 865Q1427 865 1394 823L1399 818Q1431 846 1451 846T1505 828T1559 809Q1601 809 1623 847ZM938 120Q946 166 980 222Q1021 209 1057
189Q1025 172 938 120ZM1162 43Q1162 26 1155 2Q1100 -13 1061 -13Q952 -13 938 80Q973 101 1084 172Q1162 116 1162 43ZM426 62Q426 126 528 186T781 249Q578 87 442 20Q426 37 426 62ZM823 261L1013 422Q1015 423 1088 485T1201 578T1309 653T1430 717Q1439 720
1442 720H1445Q1446 720 1445 719Q1430 707 1355 650T1239 559T1136 468Q1016 360 958 247Q895 260 823 261ZM1188 56Q1188 135 1110 188Q1207 245 1266 245Q1377 245 1377 182Q1377 138 1319 89T1181 11Q1188 32 1188 56ZM808 249Q888 246 949 230Q921 167 918
108Q815 46 738 14T578 -19T455 9Q606 81 808 249ZM640 521L641 504H655Q745 504 828 529T967 593T1054 673T1087 750T1059 803T974 823Q889 823 810 773T686 653T640 521ZM803 975L806 963Q650 941 546 845T441 650Q441 592 483 554T609 506Q607 524 607 534Q607
584 635 637T711 736T831 811T973 841T1074 819T1105 757T1072 673T982 586T837 518T649 491H643Q665 406 790 406Q854 406 943 444T1126 560L1132 552Q1102 526 1056 495T930 429T785 395Q641 395 613 492Q520 499 473 541T425 646Q425 747 531 847T803 975ZM233
127V116Q304 123 359 169T415 262Q415 292 387 310T300 328Q169 328 85 251T1 84Q1 22 47 -18T182 -58Q304 -58 443 4Q485 -30 571 -30Q745 -30 919 69Q934 -25 1054 -25Q1095 -25 1150 -10Q1105 -117 904 -187V-197Q1010 -169 1080 -117T1176 -3Q1264 26 1328
79T1392 186Q1392 219 1364 238T1279 258Q1193 258 1085 204Q1047 224 991 240Q1073 368 1238 521T1528 745Q1533 749 1533 754Q1533 764 1522 764Q1520 764 1508 762Q1355 731 1037 461Q857 310 796 261Q617 260 514 200T410 68Q410 38 431 15Q307 -43 213 -43T76
-6T34 89Q34 172 108 244T295 316Q343 316 366 299T390 254Q390 213 345 174T233 127Z" />
<glyph unicode="&#xc4;" glyph-name="Adieresis" horiz-adv-x="1417" d="M1570 877T1554 863T1538 837T1551 826T1581 839T1597 866Q1597 877 1584 877ZM1482 877T1466 863T1450 837T1463 826T1493 839T1509 866Q1509 877 1496 877ZM938 120Q946 166 980 222Q1021
209 1057 189Q1025 172 938 120ZM1162 43Q1162 26 1155 2Q1100 -13 1061 -13Q952 -13 938 80Q973 101 1084 172Q1162 116 1162 43ZM426 62Q426 126 528 186T781 249Q578 87 442 20Q426 37 426 62ZM823 261L1013 422Q1015 423 1088 485T1201 578T1309 653T1430 717Q1439
720 1442 720H1445Q1446 720 1445 719Q1430 707 1355 650T1239 559T1136 468Q1016 360 958 247Q895 260 823 261ZM1188 56Q1188 135 1110 188Q1207 245 1266 245Q1377 245 1377 182Q1377 138 1319 89T1181 11Q1188 32 1188 56ZM808 249Q888 246 949 230Q921 167
918 108Q815 46 738 14T578 -19T455 9Q606 81 808 249ZM640 521L641 504H655Q745 504 828 529T967 593T1054 673T1087 750T1059 803T974 823Q889 823 810 773T686 653T640 521ZM803 975L806 963Q650 941 546 845T441 650Q441 592 483 554T609 506Q607 524 607 534Q607
584 635 637T711 736T831 811T973 841T1074 819T1105 757T1072 673T982 586T837 518T649 491H643Q665 406 790 406Q854 406 943 444T1126 560L1132 552Q1102 526 1056 495T930 429T785 395Q641 395 613 492Q520 499 473 541T425 646Q425 747 531 847T803 975ZM233
127V116Q304 123 359 169T415 262Q415 292 387 310T300 328Q169 328 85 251T1 84Q1 22 47 -18T182 -58Q304 -58 443 4Q485 -30 571 -30Q745 -30 919 69Q934 -25 1054 -25Q1095 -25 1150 -10Q1105 -117 904 -187V-197Q1010 -169 1080 -117T1176 -3Q1264 26 1328
79T1392 186Q1392 219 1364 238T1279 258Q1193 258 1085 204Q1047 224 991 240Q1073 368 1238 521T1528 745Q1533 749 1533 754Q1533 764 1522 764Q1520 764 1508 762Q1355 731 1037 461Q857 310 796 261Q617 260 514 200T410 68Q410 38 431 15Q307 -43 213 -43T76
-6T34 89Q34 172 108 244T295 316Q343 316 366 299T390 254Q390 213 345 174T233 127Z" />
<glyph unicode="&#xc5;" glyph-name="Aring" horiz-adv-x="1417" d="M1504 835T1516 848T1546 861T1565 844Q1565 830 1553 817T1523 804T1504 821Q1504 835 1516 848ZM1580 847Q1580 874 1551 874T1505 856T1487 818Q1487 791 1516 791T1562 809T1580 847ZM938
120Q946 166 980 222Q1021 209 1057 189Q1025 172 938 120ZM1162 43Q1162 26 1155 2Q1100 -13 1061 -13Q952 -13 938 80Q973 101 1084 172Q1162 116 1162 43ZM426 62Q426 126 528 186T781 249Q578 87 442 20Q426 37 426 62ZM823 261L1013 422Q1015 423 1088 485T1201
578T1309 653T1430 717Q1439 720 1442 720H1445Q1446 720 1445 719Q1430 707 1355 650T1239 559T1136 468Q1016 360 958 247Q895 260 823 261ZM1188 56Q1188 135 1110 188Q1207 245 1266 245Q1377 245 1377 182Q1377 138 1319 89T1181 11Q1188 32 1188 56ZM808
249Q888 246 949 230Q921 167 918 108Q815 46 738 14T578 -19T455 9Q606 81 808 249ZM640 521L641 504H655Q745 504 828 529T967 593T1054 673T1087 750T1059 803T974 823Q889 823 810 773T686 653T640 521ZM803 975L806 963Q650 941 546 845T441 650Q441 592 483
554T609 506Q607 524 607 534Q607 584 635 637T711 736T831 811T973 841T1074 819T1105 757T1072 673T982 586T837 518T649 491H643Q665 406 790 406Q854 406 943 444T1126 560L1132 552Q1102 526 1056 495T930 429T785 395Q641 395 613 492Q520 499 473 541T425
646Q425 747 531 847T803 975ZM233 127V116Q304 123 359 169T415 262Q415 292 387 310T300 328Q169 328 85 251T1 84Q1 22 47 -18T182 -58Q304 -58 443 4Q485 -30 571 -30Q745 -30 919 69Q934 -25 1054 -25Q1095 -25 1150 -10Q1105 -117 904 -187V-197Q1010 -169
1080 -117T1176 -3Q1264 26 1328 79T1392 186Q1392 219 1364 238T1279 258Q1193 258 1085 204Q1047 224 991 240Q1073 368 1238 521T1528 745Q1533 749 1533 754Q1533 764 1522 764Q1520 764 1508 762Q1355 731 1037 461Q857 310 796 261Q617 260 514 200T410 68Q410
38 431 15Q307 -43 213 -43T76 -6T34 89Q34 172 108 244T295 316Q343 316 366 299T390 254Q390 213 345 174T233 127Z" />
<glyph unicode="&#xc6;" glyph-name="AE" horiz-adv-x="1501" d="M1241 451Q1198 446 1162 446Q1198 484 1247 529Q1239 500 1239 484T1241 451ZM1304 378Q1358 387 1412 387T1466 373Q1466 366 1452 360T1414 354Q1342 354 1304 378ZM965 86V96Q965 162 1017
226Q1081 212 1132 184Q1103 168 1047 134T965 86ZM1245 436Q1255 405 1276 385Q1107 352 1003 257Q1055 334 1146 430Q1196 430 1245 436ZM769 239Q610 114 493 48Q490 59 490 70Q490 128 562 178T769 239ZM1215 -14Q1166 -27 1118 -27Q997 -27 970 58Q1028 90
1084 126T1155 171Q1231 120 1231 49Q1231 17 1215 -14ZM860 255L814 254Q921 342 968 382T1088 485T1201 578T1309 653T1430 717Q1439 720 1442 720H1445Q1446 720 1445 719Q1430 707 1355 650T1240 559T1136 469Q1016 361 959 249Q912 255 860 255ZM1169 180Q1272
242 1323 242Q1418 242 1418 176Q1418 127 1367 73T1234 -8Q1246 20 1246 49Q1246 125 1169 180ZM1609 728Q1705 728 1705 685Q1705 651 1646 604T1483 513T1267 454Q1270 509 1321 573T1453 682T1609 728ZM919 60Q757 -29 645 -29T500 32Q625 98 800 242Q822 243
857 243T952 236Q928 184 920 131Q915 108 915 91T919 60ZM641 504H655Q745 504 828 529T967 593T1054 673T1087 750T1059 803T970 823T847 793T740 718T668 620T640 520Q640 509 641 504ZM803 975L806 963Q650 941 545 845T440 650Q440 593 482 554T609 506Q607
515 607 533Q607 583 635 636T711 736T831 811T973 841T1074 819T1105 757T1072 673T982 586T837 518T649 491H644Q664 406 790 406Q854 406 943 444T1126 560L1132 552Q1102 526 1056 495T930 429T785 395Q641 395 612 492Q519 499 472 541T425 646Q425 747 531
847T803 975ZM1618 743Q1560 743 1507 732Q1514 737 1528 745Q1533 749 1533 754Q1533 764 1522 764Q1520 764 1508 762Q1355 731 1037 461Q869 318 785 252Q629 240 547 186T464 67Q464 50 470 35Q323 -43 201 -43Q118 -43 76 -6T34 89Q34 172 108 244T295 316Q343
316 366 299T390 254Q390 213 345 174T233 127V116Q304 123 359 169T415 262Q415 292 387 310T300 328Q169 328 85 251T1 84Q1 22 47 -18T182 -58Q320 -58 478 21Q517 -40 624 -40Q771 -40 928 36Q969 -41 1107 -41Q1154 -41 1206 -31Q1172 -83 1097 -126T912 -194L913
-207Q1033 -182 1113 -134T1225 -26Q1327 -1 1392 58T1457 174Q1457 210 1426 232T1329 254T1148 193Q1097 223 1027 238Q1118 342 1287 375Q1332 341 1406 341Q1439 341 1465 353T1491 378Q1491 399 1425 399T1292 388Q1269 408 1267 440Q1385 458 1495 504T1668
603T1731 693Q1731 743 1618 743Z" />
<glyph unicode="&#xc7;" glyph-name="Ccedilla" horiz-adv-x="1028" d="M388 553Q491 553 585 589T732 673T785 763Q785 823 667 823T455 742T339 555Q369 553 388 553ZM694 -21Q811 -21 889 44T967 177Q967 210 944 230T879 250T787 231T704 193T603 129T507
67Q548 -21 694 -21ZM577 313Q687 313 803 353T1002 449T1139 567T1193 671Q1193 728 1096 728T887 666T686 510T544 314Q555 313 577 313ZM415 254L407 241Q226 241 128 185T30 60Q30 19 67 -8T172 -35Q279 -35 460 72Q445 105 445 164T481 305Q396 323 355 375T313
498Q313 524 317 545Q225 556 180 597T134 697Q134 783 218 866T431 975L434 960Q322 941 245 862T168 700Q168 647 205 609T320 558Q346 671 445 757T677 843Q739 843 770 823T802 768Q802 693 680 618T380 542Q350 542 336 543Q333 522 333 502Q333 436 371 388T489
322Q526 400 589 474T732 608T911 706T1114 743T1218 676Q1218 629 1163 565T1020 440T809 339T566 297Q546 297 536 298Q493 206 493 137Q493 116 498 94Q510 101 554 127T616 163L670 193Q713 216 764 235T841 259T893 264Q942 264 967 242T993 184T972 111T912
40T812 -14T696 -35T605 -29L575 -66Q592 -62 613 -62Q702 -62 702 -104Q702 -133 660 -159T568 -186T474 -164L483 -155Q524 -172 562 -172T627 -154T654 -118T638 -90T599 -79T561 -83L557 -73L587 -25Q510 -5 474 48Q306 -48 166 -48Q90 -48 45 -16T0 64Q0 138
106 196T415 254Z" />
<glyph unicode="&#xc8;" glyph-name="Egrave" horiz-adv-x="1052" d="M1309 778L1171 835Q1155 840 1155 851T1162 863T1228 833T1313 788L1309 778ZM950 354Q973 354 987 360T1002 373Q1002 387 948 387T840 378Q878 354 950 354ZM501 96V86Q513 93 575 130T669
185Q621 211 553 226Q501 162 501 96ZM654 -27Q703 -27 752 -14Q767 16 767 48Q767 119 691 171Q676 162 638 138Q564 90 506 58Q533 -27 654 -27ZM954 176Q954 206 932 224T859 242T705 180Q782 125 782 49Q782 19 770 -8Q851 18 902 72T954 176ZM1245 682Q1245
728 1145 728Q1068 728 987 682T855 570T803 449Q914 460 1019 503T1185 595T1245 682ZM529 622Q609 622 688 645T822 701T913 771T948 839Q948 893 841 893Q706 893 606 808T495 623Q506 622 529 622ZM378 243Q209 243 118 190T26 71Q26 29 66 0T175 -29Q293 -29
455 60Q451 73 451 91Q451 161 515 233Q447 243 378 243ZM563 238Q632 224 684 193Q798 254 864 254T962 232T993 174Q993 118 928 59T761 -26Q729 -86 649 -134T449 -207L448 -194Q559 -169 633 -127T742 -31Q690 -41 643 -41Q505 -41 464 36Q307 -40 160 -40Q86
-40 43 -9T0 68Q0 140 102 197T396 255Q471 255 527 245Q629 349 812 385Q792 404 782 432Q762 430 723 430Q598 430 537 478T475 603V612Q374 621 325 663T275 766Q275 852 359 935T572 1044L575 1029Q463 1010 386 931T309 769Q309 713 350 674T476 625Q488 733
595 823T847 913Q965 913 965 845Q965 811 932 771T842 695T700 635T521 611H494V606Q494 536 553 491T734 446Q763 446 778 447Q775 462 775 478Q775 523 800 569T871 654T991 718T1154 743Q1271 743 1271 689Q1271 648 1207 594T1032 494T803 435Q808 407 828
388Q894 399 960 399T1027 378Q1027 365 1001 353T942 341Q866 341 823 375Q656 343 563 238Z" />
<glyph unicode="&#xc9;" glyph-name="Eacute" horiz-adv-x="1052" d="M1175 776L1313 833Q1329 838 1329 849T1322 861T1256 831T1171 786L1175 776ZM950 354Q973 354 987 360T1002 373Q1002 387 948 387T840 378Q878 354 950 354ZM501 96V86Q513 93 575 130T669
185Q621 211 553 226Q501 162 501 96ZM654 -27Q703 -27 752 -14Q767 16 767 48Q767 119 691 171Q676 162 638 138Q564 90 506 58Q533 -27 654 -27ZM954 176Q954 206 932 224T859 242T705 180Q782 125 782 49Q782 19 770 -8Q851 18 902 72T954 176ZM1245 682Q1245
728 1145 728Q1068 728 987 682T855 570T803 449Q914 460 1019 503T1185 595T1245 682ZM529 622Q609 622 688 645T822 701T913 771T948 839Q948 893 841 893Q706 893 606 808T495 623Q506 622 529 622ZM378 243Q209 243 118 190T26 71Q26 29 66 0T175 -29Q293 -29
455 60Q451 73 451 91Q451 161 515 233Q447 243 378 243ZM563 238Q632 224 684 193Q798 254 864 254T962 232T993 174Q993 118 928 59T761 -26Q729 -86 649 -134T449 -207L448 -194Q559 -169 633 -127T742 -31Q690 -41 643 -41Q505 -41 464 36Q307 -40 160 -40Q86
-40 43 -9T0 68Q0 140 102 197T396 255Q471 255 527 245Q629 349 812 385Q792 404 782 432Q762 430 723 430Q598 430 537 478T475 603V612Q374 621 325 663T275 766Q275 852 359 935T572 1044L575 1029Q463 1010 386 931T309 769Q309 713 350 674T476 625Q488 733
595 823T847 913Q965 913 965 845Q965 811 932 771T842 695T700 635T521 611H494V606Q494 536 553 491T734 446Q763 446 778 447Q775 462 775 478Q775 523 800 569T871 654T991 718T1154 743Q1271 743 1271 689Q1271 648 1207 594T1032 494T803 435Q808 407 828
388Q894 399 960 399T1027 378Q1027 365 1001 353T942 341Q866 341 823 375Q656 343 563 238Z" />
<glyph unicode="&#xca;" glyph-name="Ecircumflex" horiz-adv-x="1052" d="M1289 769L1300 775L1259 859Q1256 864 1246 864H1243L1094 793L1106 784L1240 838L1289 769ZM950 354Q973 354 987 360T1002 373Q1002 387 948 387T840 378Q878 354 950 354ZM501 96V86Q513
93 575 130T669 185Q621 211 553 226Q501 162 501 96ZM654 -27Q703 -27 752 -14Q767 16 767 48Q767 119 691 171Q676 162 638 138Q564 90 506 58Q533 -27 654 -27ZM954 176Q954 206 932 224T859 242T705 180Q782 125 782 49Q782 19 770 -8Q851 18 902 72T954 176ZM1245
682Q1245 728 1145 728Q1068 728 987 682T855 570T803 449Q914 460 1019 503T1185 595T1245 682ZM529 622Q609 622 688 645T822 701T913 771T948 839Q948 893 841 893Q706 893 606 808T495 623Q506 622 529 622ZM378 243Q209 243 118 190T26 71Q26 29 66 0T175
-29Q293 -29 455 60Q451 73 451 91Q451 161 515 233Q447 243 378 243ZM563 238Q632 224 684 193Q798 254 864 254T962 232T993 174Q993 118 928 59T761 -26Q729 -86 649 -134T449 -207L448 -194Q559 -169 633 -127T742 -31Q690 -41 643 -41Q505 -41 464 36Q307
-40 160 -40Q86 -40 43 -9T0 68Q0 140 102 197T396 255Q471 255 527 245Q629 349 812 385Q792 404 782 432Q762 430 723 430Q598 430 537 478T475 603V612Q374 621 325 663T275 766Q275 852 359 935T572 1044L575 1029Q463 1010 386 931T309 769Q309 713 350 674T476
625Q488 733 595 823T847 913Q965 913 965 845Q965 811 932 771T842 695T700 635T521 611H494V606Q494 536 553 491T734 446Q763 446 778 447Q775 462 775 478Q775 523 800 569T871 654T991 718T1154 743Q1271 743 1271 689Q1271 648 1207 594T1032 494T803 435Q808
407 828 388Q894 399 960 399T1027 378Q1027 365 1001 353T942 341Q866 341 823 375Q656 343 563 238Z" />
<glyph unicode="&#xcb;" glyph-name="Edieresis" horiz-adv-x="1052" d="M1265 856T1249 842T1233 816T1246 805T1276 818T1292 845Q1292 856 1279 856ZM1177 856T1161 842T1145 816T1158 805T1188 818T1204 845Q1204 856 1191 856ZM950 354Q973 354 987 360T1002
373Q1002 387 948 387T840 378Q878 354 950 354ZM501 96V86Q513 93 575 130T669 185Q621 211 553 226Q501 162 501 96ZM654 -27Q703 -27 752 -14Q767 16 767 48Q767 119 691 171Q676 162 638 138Q564 90 506 58Q533 -27 654 -27ZM954 176Q954 206 932 224T859 242T705
180Q782 125 782 49Q782 19 770 -8Q851 18 902 72T954 176ZM1245 682Q1245 728 1145 728Q1068 728 987 682T855 570T803 449Q914 460 1019 503T1185 595T1245 682ZM529 622Q609 622 688 645T822 701T913 771T948 839Q948 893 841 893Q706 893 606 808T495 623Q506
622 529 622ZM378 243Q209 243 118 190T26 71Q26 29 66 0T175 -29Q293 -29 455 60Q451 73 451 91Q451 161 515 233Q447 243 378 243ZM563 238Q632 224 684 193Q798 254 864 254T962 232T993 174Q993 118 928 59T761 -26Q729 -86 649 -134T449 -207L448 -194Q559
-169 633 -127T742 -31Q690 -41 643 -41Q505 -41 464 36Q307 -40 160 -40Q86 -40 43 -9T0 68Q0 140 102 197T396 255Q471 255 527 245Q629 349 812 385Q792 404 782 432Q762 430 723 430Q598 430 537 478T475 603V612Q374 621 325 663T275 766Q275 852 359 935T572
1044L575 1029Q463 1010 386 931T309 769Q309 713 350 674T476 625Q488 733 595 823T847 913Q965 913 965 845Q965 811 932 771T842 695T700 635T521 611H494V606Q494 536 553 491T734 446Q763 446 778 447Q775 462 775 478Q775 523 800 569T871 654T991 718T1154
743Q1271 743 1271 689Q1271 648 1207 594T1032 494T803 435Q808 407 828 388Q894 399 960 399T1027 378Q1027 365 1001 353T942 341Q866 341 823 375Q656 343 563 238Z" />
<glyph unicode="&#xcc;" glyph-name="Igrave" horiz-adv-x="905" d="M1564 794L1426 851Q1410 856 1410 867T1417 879T1483 849T1568 804L1564 794ZM1004 379T1019 386T1035 403T1017 416Q1012 411 999 397T978 376Q1004 379 1019 386ZM915 375L959 418Q900 417
835 403Q860 381 915 375ZM1526 722Q1526 740 1487 740Q1390 740 1282 664Q1403 672 1448 679Q1526 692 1526 722ZM1212 641Q1013 624 938 595Q852 562 826 516Q811 489 811 460T824 414Q898 432 974 433Q1121 576 1212 641ZM900 361Q840 367 811 397Q668 358 583
269T497 95Q497 64 509 42Q573 76 646 132T770 236T900 361ZM45 131T38 123T26 115T16 116Q12 116 12 104Q12 58 57 28Q132 -22 272 -22Q379 -22 496 35Q484 62 484 95Q484 151 518 210T626 325T801 409Q788 428 788 458T802 516T840 564T901 599T974 624T1060
642Q1122 651 1239 660Q1379 753 1502 753Q1524 753 1532 748T1541 724T1520 692T1456 668Q1381 654 1260 645Q1259 645 1258 645H1257Q1195 599 1110 513Q1083 485 1031 431Q1059 425 1059 410T1034 381T965 362Q845 239 742 155T524 20Q572 -20 639 -20Q742 -20
893 80L895 65Q750 -36 637 -36Q597 -36 566 -24T522 2L510 14Q386 -36 261 -36Q189 -36 106 -14Q59 -1 30 28T0 99Q0 123 8 136T26 152L34 153Q45 152 45 142Z" />
<glyph unicode="&#xcd;" glyph-name="Iacute" horiz-adv-x="905" d="M1610 846L1472 789L1468 799Q1493 814 1552 844T1619 874T1626 863T1610 846ZM1004 379T1019 386T1035 403T1017 416Q1012 411 999 397T978 376Q1004 379 1019 386ZM915 375L959 418Q900 417
835 403Q860 381 915 375ZM1526 722Q1526 740 1487 740Q1390 740 1282 664Q1403 672 1448 679Q1526 692 1526 722ZM1212 641Q1013 624 938 595Q852 562 826 516Q811 489 811 460T824 414Q898 432 974 433Q1121 576 1212 641ZM900 361Q840 367 811 397Q668 358 583
269T497 95Q497 64 509 42Q573 76 646 132T770 236T900 361ZM45 131T38 123T26 115T16 116Q12 116 12 104Q12 58 57 28Q132 -22 272 -22Q379 -22 496 35Q484 62 484 95Q484 151 518 210T626 325T801 409Q788 428 788 458T802 516T840 564T901 599T974 624T1060
642Q1122 651 1239 660Q1379 753 1502 753Q1524 753 1532 748T1541 724T1520 692T1456 668Q1381 654 1260 645Q1259 645 1258 645H1257Q1195 599 1110 513Q1083 485 1031 431Q1059 425 1059 410T1034 381T965 362Q845 239 742 155T524 20Q572 -20 639 -20Q742 -20
893 80L895 65Q750 -36 637 -36Q597 -36 566 -24T522 2L510 14Q386 -36 261 -36Q189 -36 106 -14Q59 -1 30 28T0 99Q0 123 8 136T26 152L34 153Q45 152 45 142Z" />
<glyph unicode="&#xce;" glyph-name="Icircumflex" horiz-adv-x="905" d="M1543 780L1532 774L1483 843L1349 789L1337 798L1486 869Q1499 869 1502 864L1543 780ZM1004 379T1019 386T1035 403T1017 416Q1012 411 999 397T978 376Q1004 379 1019 386ZM915 375L959
418Q900 417 835 403Q860 381 915 375ZM1526 722Q1526 740 1487 740Q1390 740 1282 664Q1403 672 1448 679Q1526 692 1526 722ZM1212 641Q1013 624 938 595Q852 562 826 516Q811 489 811 460T824 414Q898 432 974 433Q1121 576 1212 641ZM900 361Q840 367 811 397Q668
358 583 269T497 95Q497 64 509 42Q573 76 646 132T770 236T900 361ZM45 131T38 123T26 115T16 116Q12 116 12 104Q12 58 57 28Q132 -22 272 -22Q379 -22 496 35Q484 62 484 95Q484 151 518 210T626 325T801 409Q788 428 788 458T802 516T840 564T901 599T974 624T1060
642Q1122 651 1239 660Q1379 753 1502 753Q1524 753 1532 748T1541 724T1520 692T1456 668Q1381 654 1260 645Q1259 645 1258 645H1257Q1195 599 1110 513Q1083 485 1031 431Q1059 425 1059 410T1034 381T965 362Q845 239 742 155T524 20Q572 -20 639 -20Q742 -20
893 80L895 65Q750 -36 637 -36Q597 -36 566 -24T522 2L510 14Q386 -36 261 -36Q189 -36 106 -14Q59 -1 30 28T0 99Q0 123 8 136T26 152L34 153Q45 152 45 142Z" />
<glyph unicode="&#xcf;" glyph-name="Idieresis" horiz-adv-x="905" d="M1543 834T1527 821T1498 808T1484 819T1500 844T1529 859T1543 848Q1543 834 1527 821ZM1455 834T1439 821T1410 808T1396 819T1412 844T1441 859T1455 848Q1455 834 1439 821ZM1004 379T1019
386T1035 403T1017 416Q1012 411 999 397T978 376Q1004 379 1019 386ZM915 375L959 418Q900 417 835 403Q860 381 915 375ZM1526 722Q1526 740 1487 740Q1390 740 1282 664Q1403 672 1448 679Q1526 692 1526 722ZM1212 641Q1013 624 938 595Q852 562 826 516Q811
489 811 460T824 414Q898 432 974 433Q1121 576 1212 641ZM900 361Q840 367 811 397Q668 358 583 269T497 95Q497 64 509 42Q573 76 646 132T770 236T900 361ZM45 131T38 123T26 115T16 116Q12 116 12 104Q12 58 57 28Q132 -22 272 -22Q379 -22 496 35Q484 62 484
95Q484 151 518 210T626 325T801 409Q788 428 788 458T802 516T840 564T901 599T974 624T1060 642Q1122 651 1239 660Q1379 753 1502 753Q1524 753 1532 748T1541 724T1520 692T1456 668Q1381 654 1260 645Q1259 645 1258 645H1257Q1195 599 1110 513Q1083 485
1031 431Q1059 425 1059 410T1034 381T965 362Q845 239 742 155T524 20Q572 -20 639 -20Q742 -20 893 80L895 65Q750 -36 637 -36Q597 -36 566 -24T522 2L510 14Q386 -36 261 -36Q189 -36 106 -14Q59 -1 30 28T0 99Q0 123 8 136T26 152L34 153Q45 152 45 142Z"
/>
<glyph unicode="&#xd0;" glyph-name="Eth" horiz-adv-x="1160" d="M23 49T23 21T74 -33T206 -60T382 -14Q357 -8 289 12Q158 49 91 49ZM491 453Q491 395 581 395Q627 395 685 421T795 489T882 594T918 723Q918 744 913 764Q835 752 756 715T620 632T527 537T491
453ZM458 -9Q520 -21 564 -21Q654 -21 744 6T910 78T1050 184T1161 308Q1258 448 1258 564Q1258 626 1228 673Q1174 632 1116 577T967 427T842 299H1010Q1013 299 1013 295Q1013 283 1004 283H825Q618 76 458 -9ZM748 873Q645 873 515 818T319 697L306 705Q397
783 525 836T757 889Q899 889 929 786Q961 789 993 789Q1149 789 1228 702Q1353 779 1458 779Q1521 779 1557 751T1593 682T1561 600T1465 531L1463 542Q1513 562 1543 601T1574 678T1542 741T1444 766Q1354 766 1243 684Q1287 622 1287 542T1256 383T1160 229T1009
95T801 -1T544 -38Q489 -38 427 -25Q298 -87 175 -87Q101 -87 49 -55T-4 13Q-4 36 21 50T96 64T193 55T316 26T412 0Q549 74 761 282H607Q593 282 593 290T601 299H777Q793 315 860 383T955 477T1035 552Q1123 633 1212 692Q1142 770 982 770Q957 770 933 767Q936
752 936 734Q936 661 898 592T804 476T686 401T575 373T503 396T479 461T507 553T587 652T723 736T908 784Q876 873 748 873Z" />
<glyph unicode="&#xd1;" glyph-name="Ntilde" horiz-adv-x="1099" d="M1730 868L1721 874Q1705 854 1690 854T1640 870T1581 886Q1534 886 1501 844L1506 839Q1538 867 1559 867T1612 849T1666 830Q1708 830 1730 868ZM249 228Q331 243 405 243T542 230Q563 270
563 300Q563 363 480 363Q409 363 348 325T249 228ZM297 1Q334 -13 389 -13Q534 -13 696 129Q648 183 565 209Q530 146 459 89T297 1ZM197 113Q197 162 224 212Q124 187 64 141T4 51Q4 21 36 3T130 -16T255 3Q197 41 197 113ZM535 218Q470 233 396 233T241 216Q212
166 212 116Q212 44 275 10Q359 41 429 99T535 218ZM600 541L601 524H615Q705 524 788 549T927 613T1014 693T1047 770T1019 823T934 843Q849 843 770 793T646 673T600 541ZM763 995L766 983Q610 961 506 865T401 670Q401 612 443 574T569 526Q567 544 567 554Q567
604 595 657T671 756T791 831T933 861T1034 839T1065 777T1032 693T942 606T797 538T609 511H603Q625 426 750 426Q814 426 903 464T1086 580L1092 572Q1062 546 1016 515T890 449T745 415Q601 415 573 512Q480 519 433 561T385 666Q385 767 491 867T763 995ZM1917
702T1891 726T1809 751T1688 728T1564 672T1437 583T1317 481T1200 366T1099 257T1008 153T938 72L882 -1Q877 -4 873 -4T869 2L881 23Q895 41 944 146L961 181Q1038 343 1077 406Q1214 629 1330 734Q1313 734 1238 664L1213 640Q902 299 723 137Q774 83 774 21Q774
-56 693 -119T452 -207V-196Q591 -174 665 -113T739 24Q739 74 704 120Q623 50 546 12T392 -26T273 -6Q200 -27 129 -27T20 -5T-18 53Q-18 101 48 150T231 225Q270 290 339 333T492 377Q543 377 568 356T593 298T572 222Q663 195 714 145Q722 153 769 196T931 359T1124
564L1202 648Q1330 773 1421 793Q1432 793 1432 788T1426 780Q1380 766 1340 718T1241 585T1140 429Q1038 257 1012 202L1004 183Q1004 182 1007 182L1020 192Q1041 214 1084 261T1155 336T1227 411T1305 488T1384 558T1468 624T1552 678T1640 723Q1736 760 1808
760T1912 728T1944 641T1881 517T1735 404T1590 360Q1518 360 1518 428Q1518 475 1562 523T1679 590L1682 580Q1613 559 1573 516T1533 431Q1533 373 1586 373T1718 421T1857 539T1917 655Z" />
<glyph unicode="&#xd2;" glyph-name="Ograve" horiz-adv-x="679" d="M973 813L835 870Q819 875 819 886T826 898T892 868T977 823L973 813ZM678 697Q592 697 470 604T243 378H262Q332 378 403 399T529 455T629 528T698 603T722 664Q722 697 678 697ZM94 606Q174
606 254 634T390 704T482 792T518 876Q518 942 412 942Q323 942 241 891T107 764T41 609Q67 606 94 606ZM79 40Q79 -63 201 -63Q294 -63 427 27T673 238T868 489T949 692T867 766Q846 766 809 753T754 723Q739 727 739 734Q739 744 785 760T871 777Q969 777 969
691Q969 638 931 559T832 396T689 226T523 75T350 -34T189 -76T79 -40T41 59Q41 190 170 370Q92 387 55 437T17 557Q17 576 20 599Q-70 610 -115 653T-160 758Q-160 848 -75 935T137 1048L140 1033Q28 1014 -49 931T-126 760Q-126 704 -90 665T22 611Q38 695 92
774T234 908T418 962Q476 962 505 940T535 878T501 790T410 697T267 624T86 595Q54 595 39 597Q37 573 37 561Q37 496 73 450T182 386Q286 525 422 618T684 712Q742 712 742 668Q742 632 703 581T599 480T441 397T251 362H231Q162 272 121 186T79 40Z" />
<glyph unicode="&#xd3;" glyph-name="Oacute" horiz-adv-x="679" d="M918 822L1056 879Q1072 884 1072 895T1065 907T999 877T914 832L918 822ZM678 697Q592 697 470 604T243 378H262Q332 378 403 399T529 455T629 528T698 603T722 664Q722 697 678 697ZM94 606Q174
606 254 634T390 704T482 792T518 876Q518 942 412 942Q323 942 241 891T107 764T41 609Q67 606 94 606ZM79 40Q79 -63 201 -63Q294 -63 427 27T673 238T868 489T949 692T867 766Q846 766 809 753T754 723Q739 727 739 734Q739 744 785 760T871 777Q969 777 969
691Q969 638 931 559T832 396T689 226T523 75T350 -34T189 -76T79 -40T41 59Q41 190 170 370Q92 387 55 437T17 557Q17 576 20 599Q-70 610 -115 653T-160 758Q-160 848 -75 935T137 1048L140 1033Q28 1014 -49 931T-126 760Q-126 704 -90 665T22 611Q38 695 92
774T234 908T418 962Q476 962 505 940T535 878T501 790T410 697T267 624T86 595Q54 595 39 597Q37 573 37 561Q37 496 73 450T182 386Q286 525 422 618T684 712Q742 712 742 668Q742 632 703 581T599 480T441 397T251 362H231Q162 272 121 186T79 40Z" />
<glyph unicode="&#xd4;" glyph-name="Ocircumflex" horiz-adv-x="679" d="M961 809L972 815L931 899Q928 904 918 904H915L766 833L778 824L912 878L961 809ZM678 697Q592 697 470 604T243 378H262Q332 378 403 399T529 455T629 528T698 603T722 664Q722 697 678
697ZM94 606Q174 606 254 634T390 704T482 792T518 876Q518 942 412 942Q323 942 241 891T107 764T41 609Q67 606 94 606ZM79 40Q79 -63 201 -63Q294 -63 427 27T673 238T868 489T949 692T867 766Q846 766 809 753T754 723Q739 727 739 734Q739 744 785 760T871
777Q969 777 969 691Q969 638 931 559T832 396T689 226T523 75T350 -34T189 -76T79 -40T41 59Q41 190 170 370Q92 387 55 437T17 557Q17 576 20 599Q-70 610 -115 653T-160 758Q-160 848 -75 935T137 1048L140 1033Q28 1014 -49 931T-126 760Q-126 704 -90 665T22
611Q38 695 92 774T234 908T418 962Q476 962 505 940T535 878T501 790T410 697T267 624T86 595Q54 595 39 597Q37 573 37 561Q37 496 73 450T182 386Q286 525 422 618T684 712Q742 712 742 668Q742 632 703 581T599 480T441 397T251 362H231Q162 272 121 186T79
40Z" />
<glyph unicode="&#xd5;" glyph-name="Otilde" horiz-adv-x="679" d="M1027 865L1018 871Q1002 851 987 851T937 867T878 883Q831 883 798 841L803 836Q835 864 855 864T909 846T963 827Q1005 827 1027 865ZM678 697Q592 697 470 604T243 378H262Q332 378 403 399T529
455T629 528T698 603T722 664Q722 697 678 697ZM94 606Q174 606 254 634T390 704T482 792T518 876Q518 942 412 942Q323 942 241 891T107 764T41 609Q67 606 94 606ZM79 40Q79 -63 201 -63Q294 -63 427 27T673 238T868 489T949 692T867 766Q846 766 809 753T754
723Q739 727 739 734Q739 744 785 760T871 777Q969 777 969 691Q969 638 931 559T832 396T689 226T523 75T350 -34T189 -76T79 -40T41 59Q41 190 170 370Q92 387 55 437T17 557Q17 576 20 599Q-70 610 -115 653T-160 758Q-160 848 -75 935T137 1048L140 1033Q28
1014 -49 931T-126 760Q-126 704 -90 665T22 611Q38 695 92 774T234 908T418 962Q476 962 505 940T535 878T501 790T410 697T267 624T86 595Q54 595 39 597Q37 573 37 561Q37 496 73 450T182 386Q286 525 422 618T684 712Q742 712 742 668Q742 632 703 581T599
480T441 397T251 362H231Q162 272 121 186T79 40Z" />
<glyph unicode="&#xd6;" glyph-name="Odieresis" horiz-adv-x="679" d="M917 892T901 878T885 852T898 841T928 854T944 881Q944 892 931 892ZM829 892T813 878T797 852T810 841T840 854T856 881Q856 892 843 892ZM678 697Q592 697 470 604T243 378H262Q332 378
403 399T529 455T629 528T698 603T722 664Q722 697 678 697ZM94 606Q174 606 254 634T390 704T482 792T518 876Q518 942 412 942Q323 942 241 891T107 764T41 609Q67 606 94 606ZM79 40Q79 -63 201 -63Q294 -63 427 27T673 238T868 489T949 692T867 766Q846 766
809 753T754 723Q739 727 739 734Q739 744 785 760T871 777Q969 777 969 691Q969 638 931 559T832 396T689 226T523 75T350 -34T189 -76T79 -40T41 59Q41 190 170 370Q92 387 55 437T17 557Q17 576 20 599Q-70 610 -115 653T-160 758Q-160 848 -75 935T137 1048L140
1033Q28 1014 -49 931T-126 760Q-126 704 -90 665T22 611Q38 695 92 774T234 908T418 962Q476 962 505 940T535 878T501 790T410 697T267 624T86 595Q54 595 39 597Q37 573 37 561Q37 496 73 450T182 386Q286 525 422 618T684 712Q742 712 742 668Q742 632 703
581T599 480T441 397T251 362H231Q162 272 121 186T79 40Z" />
<glyph unicode="&#xd7;" glyph-name="multiply" horiz-adv-x="392" d="M155 341L232 236L381 343L389 329L242 223L331 104L317 96L229 214L65 96L57 110L219 227L141 333L155 341Z" />
<glyph unicode="&#xd8;" glyph-name="Oslash" horiz-adv-x="679" d="M678 697Q592 697 470 604T243 378H262Q384 378 497 437T676 574L715 635Q722 654 722 664Q722 697 678 697ZM94 606Q174 606 254 634T390 704T482 792T518 876Q518 942 412 942Q323 942 241
891T107 764T41 609Q67 606 94 606ZM79 40Q79 -63 201 -63Q230 -63 273 -51L633 507Q558 444 459 403T251 362H231Q162 272 121 186T79 40ZM949 693Q949 766 867 766Q851 766 824 758L310 -38Q438 15 591 157T846 453T949 693ZM799 765L878 888L900 876L834 773Q858
777 871 777Q969 777 969 691Q969 621 904 508T743 284T524 77T299 -55L253 -127L230 -119L264 -66Q222 -76 193 -76Q116 -76 79 -40T41 59Q41 190 170 370Q92 387 55 437T17 557Q17 576 20 599Q-70 610 -115 653T-160 758Q-160 848 -75 935T137 1048L140 1033Q28
1014 -49 931T-126 760Q-126 704 -90 665T22 611Q38 695 92 774T234 908T418 962Q476 962 505 940T535 878T501 790T410 697T267 624T86 595Q54 595 39 597Q37 573 37 561Q37 496 73 450T182 386Q286 525 422 618T684 712Q736 712 741 676L784 742Q762 731 754
723Q739 727 739 734Q739 747 799 765Z" />
<glyph unicode="&#xd9;" glyph-name="Ugrave" horiz-adv-x="867" d="M854 756L716 813Q700 818 700 829T707 841T773 811T858 766L854 756ZM1058 702Q1058 719 1044 719Q1022 719 956 675Q854 609 718 479T491 225Q714 372 886 513T1058 702ZM812 188Q812 217
796 232T748 247T676 226T597 169T534 78T508 -40V-57Q572 -45 642 -7T762 86T812 188ZM-97 434Q-97 375 -29 375T107 406T222 486T299 592T329 704Q329 723 324 743Q235 732 138 686T-28 571T-97 434ZM386 10Q386 -61 468 -61Q475 -61 495 -59Q494 -51 494 -34Q494
33 521 91T590 185T677 242T760 263Q836 263 836 200Q836 122 729 36T510 -73Q521 -138 569 -172T684 -206Q794 -206 882 -129L890 -134Q795 -218 678 -218Q608 -218 559 -182T497 -76Q477 -79 460 -79Q413 -79 386 -55T358 18T400 149Q118 -30 41 -30Q21 -30 13
0Q10 12 10 27Q10 78 60 145T182 277T326 407T448 534T499 645T464 720T367 746Q351 746 343 745Q351 718 351 691Q351 635 323 577T245 471T121 393T-39 362Q-78 362 -98 381T-119 432Q-119 501 -48 573T125 694T321 754Q285 868 98 868Q3 868 -139 805T-346 660L-355
666Q-287 751 -143 815T102 879T261 845T340 755Q355 757 369 757Q436 757 475 728T515 641T481 520T396 405T283 296T167 195T74 101T27 16Q27 -12 56 -12Q121 -12 416 176Q499 315 657 469T946 694Q1016 733 1054 733Q1082 733 1082 707Q1082 655 893 501T467
191Q386 76 386 10Z" />
<glyph unicode="&#xda;" glyph-name="Uacute" horiz-adv-x="867" d="M807 774L945 831Q961 836 961 847T954 859T888 829T803 784L807 774ZM1058 702Q1058 719 1044 719Q1022 719 956 675Q854 609 718 479T491 225Q714 372 886 513T1058 702ZM812 188Q812 217
796 232T748 247T676 226T597 169T534 78T508 -40V-57Q572 -45 642 -7T762 86T812 188ZM-97 434Q-97 375 -29 375T107 406T222 486T299 592T329 704Q329 723 324 743Q235 732 138 686T-28 571T-97 434ZM386 10Q386 -61 468 -61Q475 -61 495 -59Q494 -51 494 -34Q494
33 521 91T590 185T677 242T760 263Q836 263 836 200Q836 122 729 36T510 -73Q521 -138 569 -172T684 -206Q794 -206 882 -129L890 -134Q795 -218 678 -218Q608 -218 559 -182T497 -76Q477 -79 460 -79Q413 -79 386 -55T358 18T400 149Q118 -30 41 -30Q21 -30 13
0Q10 12 10 27Q10 78 60 145T182 277T326 407T448 534T499 645T464 720T367 746Q351 746 343 745Q351 718 351 691Q351 635 323 577T245 471T121 393T-39 362Q-78 362 -98 381T-119 432Q-119 501 -48 573T125 694T321 754Q285 868 98 868Q3 868 -139 805T-346 660L-355
666Q-287 751 -143 815T102 879T261 845T340 755Q355 757 369 757Q436 757 475 728T515 641T481 520T396 405T283 296T167 195T74 101T27 16Q27 -12 56 -12Q121 -12 416 176Q499 315 657 469T946 694Q1016 733 1054 733Q1082 733 1082 707Q1082 655 893 501T467
191Q386 76 386 10Z" />
<glyph unicode="&#xdb;" glyph-name="Ucircumflex" horiz-adv-x="867" d="M861 750L872 756L831 840Q828 845 818 845H815L666 774L678 765L812 819L861 750ZM1058 702Q1058 719 1044 719Q1022 719 956 675Q854 609 718 479T491 225Q714 372 886 513T1058 702ZM812
188Q812 217 796 232T748 247T676 226T597 169T534 78T508 -40V-57Q572 -45 642 -7T762 86T812 188ZM-97 434Q-97 375 -29 375T107 406T222 486T299 592T329 704Q329 723 324 743Q235 732 138 686T-28 571T-97 434ZM386 10Q386 -61 468 -61Q475 -61 495 -59Q494
-51 494 -34Q494 33 521 91T590 185T677 242T760 263Q836 263 836 200Q836 122 729 36T510 -73Q521 -138 569 -172T684 -206Q794 -206 882 -129L890 -134Q795 -218 678 -218Q608 -218 559 -182T497 -76Q477 -79 460 -79Q413 -79 386 -55T358 18T400 149Q118 -30
41 -30Q21 -30 13 0Q10 12 10 27Q10 78 60 145T182 277T326 407T448 534T499 645T464 720T367 746Q351 746 343 745Q351 718 351 691Q351 635 323 577T245 471T121 393T-39 362Q-78 362 -98 381T-119 432Q-119 501 -48 573T125 694T321 754Q285 868 98 868Q3 868
-139 805T-346 660L-355 666Q-287 751 -143 815T102 879T261 845T340 755Q355 757 369 757Q436 757 475 728T515 641T481 520T396 405T283 296T167 195T74 101T27 16Q27 -12 56 -12Q121 -12 416 176Q499 315 657 469T946 694Q1016 733 1054 733Q1082 733 1082 707Q1082
655 893 501T467 191Q386 76 386 10Z" />
<glyph unicode="&#xdc;" glyph-name="Udieresis" horiz-adv-x="867" d="M826 841T810 827T794 801T807 790T837 803T853 830Q853 841 840 841ZM738 841T722 827T706 801T719 790T749 803T765 830Q765 841 752 841ZM1058 702Q1058 719 1044 719Q1022 719 956 675Q854
609 718 479T491 225Q714 372 886 513T1058 702ZM812 188Q812 217 796 232T748 247T676 226T597 169T534 78T508 -40V-57Q572 -45 642 -7T762 86T812 188ZM-97 434Q-97 375 -29 375T107 406T222 486T299 592T329 704Q329 723 324 743Q235 732 138 686T-28 571T-97
434ZM386 10Q386 -61 468 -61Q475 -61 495 -59Q494 -51 494 -34Q494 33 521 91T590 185T677 242T760 263Q836 263 836 200Q836 122 729 36T510 -73Q521 -138 569 -172T684 -206Q794 -206 882 -129L890 -134Q795 -218 678 -218Q608 -218 559 -182T497 -76Q477 -79
460 -79Q413 -79 386 -55T358 18T400 149Q118 -30 41 -30Q21 -30 13 0Q10 12 10 27Q10 78 60 145T182 277T326 407T448 534T499 645T464 720T367 746Q351 746 343 745Q351 718 351 691Q351 635 323 577T245 471T121 393T-39 362Q-78 362 -98 381T-119 432Q-119
501 -48 573T125 694T321 754Q285 868 98 868Q3 868 -139 805T-346 660L-355 666Q-287 751 -143 815T102 879T261 845T340 755Q355 757 369 757Q436 757 475 728T515 641T481 520T396 405T283 296T167 195T74 101T27 16Q27 -12 56 -12Q121 -12 416 176Q499 315
657 469T946 694Q1016 733 1054 733Q1082 733 1082 707Q1082 655 893 501T467 191Q386 76 386 10Z" />
<glyph unicode="&#xdd;" glyph-name="Yacute" horiz-adv-x="600" d="M747 764L885 821Q901 826 901 837T894 849T828 819T743 774L747 764ZM1117 708Q995 708 800 508Q693 399 553 233Q787 380 959 512T1131 691Q1131 708 1117 708ZM5 -353Q35 -359 57 -359Q137
-359 226 -321T373 -230T431 -137Q431 -78 304 -78H284Q121 -258 5 -353ZM-83 -315L-74 -309Q-62 -323 -38 -336Q67 -242 211 -86Q109 -102 -4 -150T-203 -254T-345 -367T-402 -459Q-402 -499 -329 -499Q-225 -499 -51 -348Q-77 -332 -83 -315ZM-74 434Q-74 375
-6 375T130 406T245 486T322 592T352 704Q352 723 347 743Q258 732 161 686T-5 571T-74 434ZM292 -69H313Q462 -69 462 -135Q462 -179 399 -234T236 -330T46 -371Q14 -371 -9 -365Q-196 -513 -340 -513Q-415 -513 -415 -463Q-415 -422 -364 -362T-229 -243T-24
-135T222 -74Q314 25 404 126Q133 -30 64 -30Q44 -30 36 0Q33 12 33 27Q33 78 83 145T206 277T349 407T471 534T522 645T487 720T390 746Q382 746 376 746T366 745Q374 718 374 691Q374 635 346 577T268 471T144 393T-16 362Q-55 362 -75 381T-96 432Q-96 501 -25
573T148 694T344 754Q308 868 121 868Q26 868 -116 805T-323 660L-332 666Q-264 751 -120 815T125 879T283 846T362 756Q372 757 392 757Q459 757 498 728T538 641T504 520T419 405T306 296T190 195T97 101T50 16Q50 -12 79 -12Q142 -12 436 162Q529 265 592 333T739
482T885 610T1012 689T1127 722Q1155 722 1155 696Q1155 645 962 497T521 196Q357 4 292 -69Z" />
<glyph unicode="&#xde;" glyph-name="Thorn" horiz-adv-x="953" d="M583 290Q583 323 558 339Q556 323 556 315Q556 278 578 259Q583 277 583 290ZM562 220L571 237Q524 256 524 313Q524 328 529 350Q517 353 500 353Q429 353 368 315T269 218Q351 233 425 233T562
220ZM317 -9Q354 -23 411 -23T562 20Q657 64 714 121Q669 173 585 199Q550 136 479 79T317 -9ZM24 41Q24 11 56 -7T151 -26T275 -6Q217 30 217 103Q217 152 244 202Q144 177 84 131T24 41ZM555 208Q490 223 416 223T261 206Q232 156 232 106Q232 34 295 0Q379 31
449 89T555 208ZM592 212Q677 187 731 138L1061 477Q1111 532 1169 583Q1102 610 998 610L977 609Q982 589 982 570Q982 496 934 418T799 284T619 229Q606 229 600 230Q598 224 592 212ZM858 206Q886 203 915 203Q1056 203 1161 285T1267 460Q1267 528 1201 567L1177
543Q1096 462 858 206ZM613 287Q613 269 605 245Q617 242 631 242Q707 242 783 296T906 427T953 574Q953 593 949 608Q796 596 693 521T563 359Q613 340 613 287ZM847 195Q831 173 754 114Q794 65 794 11Q794 -66 713 -129T472 -217V-206Q611 -184 685 -123T759
14Q759 58 732 99Q539 -36 399 -36Q335 -36 293 -16Q220 -37 149 -37T40 -15T2 43Q2 91 68 140T251 215Q290 280 359 323T512 367Q520 367 534 365Q566 454 675 529T947 617Q918 714 766 714Q716 714 659 698T557 657Q466 608 415 568L394 552L384 561Q408 582
457 615T551 670T656 711T774 729Q941 729 975 619Q985 620 1006 620Q1112 620 1182 595Q1404 788 1574 788Q1652 788 1694 758T1736 677T1681 578T1527 512L1517 520Q1608 537 1657 581T1707 671T1670 746T1564 775Q1420 775 1215 581Q1307 535 1307 444T1199
271T934 188Q889 188 847 195Z" />
<glyph unicode="&#xdf;" glyph-name="germandbls" horiz-adv-x="271" d="M564 549Q564 556 554 556Q512 556 358 421T21 97Q168 189 366 352T564 549ZM261 65Q105 -36 22 -36Q-11 -36 -26 -22T-42 9T-34 36T-14 47Q1 47 1 31Q1 21 -15 13Q-20 10 -20 3T-9 -13T16
-23Q59 -23 90 36T131 155Q37 90 -10 64Q-161 -93 -262 -217T-363 -376L-376 -380Q-376 -326 -250 -168T37 153T353 444T561 572Q584 572 584 557Q584 520 459 411T176 188H177Q172 183 170 153T154 79T109 0Q109 -2 113 -2Q120 -2 164 22L178 29Q216 50 259 80L261
65Z" />
<glyph unicode="&#xe0;" glyph-name="agrave" horiz-adv-x="359" d="M311 213L173 270Q157 275 157 286T164 298T230 268T315 223L311 213ZM-7 -2Q31 -2 94 36T200 111T243 153T229 163T189 167T123 148T52 101T2 48T-18 10T-7 -2ZM261 166Q281 182 283 182Q310
179 311 178T312 174T304 162T257 112Q160 17 160 -3Q160 -11 167 -11Q215 -11 347 80L349 65Q216 -22 161 -22Q134 -22 134 3T165 70Q47 -17 -19 -18Q-43 -18 -43 11Q-43 63 23 122T199 181Q235 181 261 166Z" />
<glyph unicode="&#xe1;" glyph-name="aacute" horiz-adv-x="359" d="M-7 -2Q31 -2 94 36T200 111T243 153T229 163T189 167T123 148T52 101T2 48T-18 10T-7 -2ZM261 166Q281 182 283 182Q310 179 311 178T312 174T304 162T257 112Q160 17 160 -3Q160 -11 167 -11Q215
-11 347 80L349 65Q216 -22 161 -22Q134 -22 134 3T165 70Q47 -17 -19 -18Q-43 -18 -43 11Q-43 63 23 122T199 181Q235 181 261 166ZM359 270L221 213L217 223Q242 238 301 268T368 298T375 287T359 270Z" />
<glyph unicode="&#xe2;" glyph-name="acircumflex" horiz-adv-x="359" d="M298 212L287 206L238 275L104 221L92 230L241 301Q254 301 257 296L298 212ZM-7 -2Q31 -2 94 36T200 111T243 153T229 163T189 167T123 148T52 101T2 48T-18 10T-7 -2ZM261 166Q281 182
283 182Q310 179 311 178T312 174T304 162T257 112Q160 17 160 -3Q160 -11 167 -11Q215 -11 347 80L349 65Q216 -22 161 -22Q134 -22 134 3T165 70Q47 -17 -19 -18Q-43 -18 -43 11Q-43 63 23 122T199 181Q235 181 261 166Z" />
<glyph unicode="&#xe3;" glyph-name="atilde" horiz-adv-x="359" d="M324 269L333 263Q311 225 269 225Q247 225 215 243T162 262T109 234L104 239Q137 281 184 281Q209 281 243 265T292 249T324 269ZM-7 -2Q31 -2 94 36T200 111T243 153T229 163T189 167T123
148T52 101T2 48T-18 10T-7 -2ZM261 166Q281 182 283 182Q310 179 311 178T312 174T304 162T257 112Q160 17 160 -3Q160 -11 167 -11Q215 -11 347 80L349 65Q216 -22 161 -22Q134 -22 134 3T165 70Q47 -17 -19 -18Q-43 -18 -43 11Q-43 63 23 122T199 181Q235 181
261 166Z" />
<glyph unicode="&#xe4;" glyph-name="adieresis" horiz-adv-x="359" d="M331 250T315 237T286 224T272 235T288 260T317 275T331 264Q331 250 315 237ZM243 250T227 237T198 224T184 235T200 260T229 275T243 264Q243 250 227 237ZM-7 -2Q31 -2 94 36T200 111T243
153T229 163T189 167T123 148T52 101T2 48T-18 10T-7 -2ZM261 166Q281 182 283 182Q310 179 311 178T312 174T304 162T257 112Q160 17 160 -3Q160 -11 167 -11Q215 -11 347 80L349 65Q216 -22 161 -22Q134 -22 134 3T165 70Q47 -17 -19 -18Q-43 -18 -43 11Q-43
63 23 122T199 181Q235 181 261 166Z" />
<glyph unicode="&#xe5;" glyph-name="aring" horiz-adv-x="359" d="M-7 -2Q31 -2 94 36T200 111T243 153T229 163T189 167T123 148T52 101T2 48T-18 10T-7 -2ZM261 166Q281 182 283 182Q310 179 311 178T312 174T304 162T257 112Q160 17 160 -3Q160 -11 167 -11Q215
-11 347 80L349 65Q216 -22 161 -22Q134 -22 134 3T165 70Q47 -17 -19 -18Q-43 -18 -43 11Q-43 63 23 122T199 181Q235 181 261 166ZM308 273Q308 290 290 290T259 277T247 250Q247 233 265 233T296 246T308 273ZM230 267T247 285T294 303T323 276Q323 256 306
238T259 220T230 247Q230 267 247 285Z" />
<glyph unicode="&#xe6;" glyph-name="ae" horiz-adv-x="432" d="M387 168Q387 176 371 176T306 145T223 80Q290 91 338 120T387 168ZM-7 -2Q28 -2 90 34T197 108T243 152T229 163T189 167T123 148T52 101T2 48T-18 10T-7 -2ZM191 27Q191 -2 231 -2Q307 -2 420
80L422 65Q304 -18 220 -18Q160 -18 160 33Q160 53 175 77Q47 -18 -19 -18Q-43 -18 -43 11Q-43 63 23 122T199 181Q246 181 272 159Q334 190 388 190Q413 190 413 175Q413 151 358 119T212 69Q191 43 191 27Z" />
<glyph unicode="&#xe7;" glyph-name="ccedilla" horiz-adv-x="254" d="M-1 21Q-1 -5 36 -5T133 19T242 80L244 65Q192 27 128 2T18 -23H17L-4 -50Q10 -47 23 -47Q81 -47 81 -74Q81 -92 55 -108T-7 -125T-73 -108L-66 -101Q-36 -114 -10 -114T32 -105T47 -84T36
-66T14 -59T-15 -62L-18 -55L2 -22Q-42 -15 -42 21Q-42 69 33 127T178 186Q212 186 212 161Q212 144 200 129T168 114T149 124T160 142T184 150T198 160Q198 165 192 169T177 174Q129 174 64 117T-1 21Z" />
<glyph unicode="&#xe8;" glyph-name="egrave" horiz-adv-x="238" d="M222 213L84 270Q68 275 68 286T75 298T141 268T226 223L222 213ZM193 168Q193 176 177 176T112 146T29 80Q96 91 144 120T193 168ZM-3 27Q-3 -2 37 -2Q113 -2 226 80L228 65Q110 -18 26 -18Q-34
-18 -34 32T40 136T194 190Q219 190 219 175Q219 151 164 118T18 68Q-3 44 -3 27Z" />
<glyph unicode="&#xe9;" glyph-name="eacute" horiz-adv-x="238" d="M268 270L130 213L126 223Q151 238 210 268T277 298T284 287T268 270ZM193 168Q193 176 177 176T112 146T29 80Q96 91 144 120T193 168ZM-3 27Q-3 -2 37 -2Q113 -2 226 80L228 65Q110 -18 26
-18Q-34 -18 -34 32T40 136T194 190Q219 190 219 175Q219 151 164 118T18 68Q-3 44 -3 27Z" />
<glyph unicode="&#xea;" glyph-name="ecircumflex" horiz-adv-x="238" d="M262 212L251 206L202 275L68 221L56 230L205 301Q218 301 221 296L262 212ZM193 168Q193 176 177 176T112 146T29 80Q96 91 144 120T193 168ZM-3 27Q-3 -2 37 -2Q113 -2 226 80L228 65Q110
-18 26 -18Q-34 -18 -34 32T40 136T194 190Q219 190 219 175Q219 151 164 118T18 68Q-3 44 -3 27Z" />
<glyph unicode="&#xeb;" glyph-name="edieresis" horiz-adv-x="238" d="M250 250T234 237T205 224T191 235T207 260T236 275T250 264Q250 250 234 237ZM162 250T146 237T117 224T103 235T119 260T148 275T162 264Q162 250 146 237ZM193 168Q193 176 177 176T112
146T29 80Q96 91 144 120T193 168ZM-3 27Q-3 -2 37 -2Q113 -2 226 80L228 65Q110 -18 26 -18Q-34 -18 -34 32T40 136T194 190Q219 190 219 175Q219 151 164 118T18 68Q-3 44 -3 27Z" />
<glyph unicode="&#xec;" glyph-name="igrave" horiz-adv-x="168" d="M159 213L21 270Q5 275 5 286T12 298T78 268T163 223L159 213ZM107 156Q-28 34 -28 3Q-28 -7 -15 -7T26 5T74 29T124 60T156 80L158 65Q112 35 53 5T-36 -25T-67 0Q-67 21 -31 63T41 138L77
170Q82 174 96 173T110 163Q110 159 107 156Z" />
<glyph unicode="&#xed;" glyph-name="iacute" horiz-adv-x="168" d="M264 270L126 213L122 223Q147 238 206 268T273 298T280 287T264 270ZM107 156Q-28 34 -28 3Q-28 -7 -15 -7T26 5T74 29T124 60T156 80L158 65Q112 35 53 5T-36 -25T-67 0Q-67 21 -31 63T41
138L77 170Q82 174 96 173T110 163Q110 159 107 156Z" />
<glyph unicode="&#xee;" glyph-name="icircumflex" horiz-adv-x="168" d="M209 212L198 206L149 275L15 221L3 230L152 301Q165 301 168 296L209 212ZM107 156Q-28 34 -28 3Q-28 -7 -15 -7T26 5T74 29T124 60T156 80L158 65Q112 35 53 5T-36 -25T-67 0Q-67 21
-31 63T41 138L77 170Q82 174 96 173T110 163Q110 159 107 156Z" />
<glyph unicode="&#xef;" glyph-name="idieresis" horiz-adv-x="168" d="M224 250T208 237T179 224T165 235T181 260T210 275T224 264Q224 250 208 237ZM136 250T120 237T91 224T77 235T93 260T122 275T136 264Q136 250 120 237ZM107 156Q-28 34 -28 3Q-28 -7 -15
-7T26 5T74 29T124 60T156 80L158 65Q112 35 53 5T-36 -25T-67 0Q-67 21 -31 63T41 138L77 170Q82 174 96 173T110 163Q110 159 107 156Z" />
<glyph unicode="&#xf0;" glyph-name="eth" horiz-adv-x="358" d="M11 -8Q40 -8 71 6T118 34L135 48Q163 74 180 102T198 148T180 166Q106 166 49 111T-8 13Q-8 -8 11 -8ZM421 291L356 281Q316 211 238 118T159 -3Q159 -11 166 -11Q214 -11 346 80L348 65Q215 -22
160 -22Q133 -22 133 3Q133 17 140 31Q61 -25 1 -25Q-42 -25 -42 16Q-42 68 19 124T166 181Q219 181 219 146Q219 141 215 125L219 129Q280 197 325 276L228 262Q214 262 214 270T222 279L335 294Q392 400 392 472Q392 568 289 569L299 580Q305 581 318 581Q372
581 398 555T424 481Q424 406 366 298L427 307Q430 307 430 303Q430 291 421 291Z" />
<glyph unicode="&#xf1;" glyph-name="ntilde" horiz-adv-x="423" d="M389 269L398 263Q376 225 334 225Q312 225 280 243T227 262T174 234L169 239Q202 281 249 281Q274 281 308 265T357 249T389 269ZM181 180T181 158T149 92Q263 171 332 171Q359 171 359 148T339
101T295 58Q231 12 231 0Q231 -7 242 -7T281 5T329 29T379 60T411 80L413 65Q278 -25 224 -25Q198 -25 198 0Q198 17 219 40T266 84Q335 136 335 153Q335 158 324 158Q287 158 214 118T52 -12Q46 -18 30 -18T13 -9Q13 -6 82 65T151 157Q151 162 145 162T118 149T55
108T-18 60L-21 74Q-6 84 20 102T63 131T100 156Q139 180 160 180Z" />
<glyph unicode="&#xf2;" glyph-name="ograve" horiz-adv-x="313" d="M249 213L111 270Q95 275 95 286T102 298T168 268T253 223L249 213ZM12 -8Q-7 -8 -7 13Q-7 55 50 110T181 166Q195 166 198 155Q152 113 152 65V64Q84 -8 12 -8ZM167 181Q81 181 20 125T-41
16Q-41 -25 2 -25Q74 -25 154 46Q164 15 194 15T257 36L303 65L301 80L252 48Q230 33 212 33Q183 33 183 66V74Q220 116 220 146Q220 181 167 181Z" />
<glyph unicode="&#xf3;" glyph-name="oacute" horiz-adv-x="313" d="M262 270L124 213L120 223Q145 238 204 268T271 298T278 287T262 270ZM12 -8Q84 -8 152 64V65Q152 113 198 155Q195 166 181 166Q107 166 50 111T-7 13Q-7 -8 12 -8ZM167 181Q220 181 220 146Q220
116 183 74V66Q183 33 212 33Q230 33 252 48L301 80L303 65L257 36Q225 15 195 15T154 46Q74 -25 2 -25Q-41 -25 -41 16Q-41 68 20 124T167 181Z" />
<glyph unicode="&#xf4;" glyph-name="ocircumflex" horiz-adv-x="313" d="M260 212L249 206L200 275L66 221L54 230L203 301Q216 301 219 296L260 212ZM12 -8Q84 -8 152 64V65Q152 113 198 155Q195 166 181 166Q107 166 50 111T-7 13Q-7 -8 12 -8ZM167 181Q220
181 220 146Q220 116 183 74V66Q183 33 212 33Q230 33 252 48L301 80L303 65L257 36Q225 15 195 15T154 46Q74 -25 2 -25Q-41 -25 -41 16Q-41 68 20 124T167 181Z" />
<glyph unicode="&#xf5;" glyph-name="otilde" horiz-adv-x="313" d="M280 269L289 263Q267 225 225 225Q204 225 171 243T118 262T65 234L60 239Q93 281 140 281Q165 281 199 265T248 249T280 269ZM12 -8Q84 -8 152 64V65Q152 113 198 155Q195 166 181 166Q107
166 50 111T-7 13Q-7 -8 12 -8ZM167 181Q220 181 220 146Q220 116 183 74V66Q183 33 212 33Q230 33 252 48L301 80L303 65L257 36Q225 15 195 15T154 46Q74 -25 2 -25Q-41 -25 -41 16Q-41 68 20 124T167 181Z" />
<glyph unicode="&#xf6;" glyph-name="odieresis" horiz-adv-x="313" d="M260 250T244 237T215 224T201 235T217 260T246 275T260 264Q260 250 244 237ZM172 250T156 237T127 224T113 235T129 260T158 275T172 264Q172 250 156 237ZM12 -8Q84 -8 152 64V65Q152
113 198 155Q195 166 181 166Q107 166 50 111T-7 13Q-7 -8 12 -8ZM167 181Q220 181 220 146Q220 116 183 74V66Q183 33 212 33Q230 33 252 48L301 80L303 65L257 36Q225 15 195 15T154 46Q74 -25 2 -25Q-41 -25 -41 16Q-41 68 20 124T167 181Z" />
<glyph unicode="&#xf7;" glyph-name="divide" horiz-adv-x="411" d="M265 284Q265 295 283 311T315 327T330 314Q330 299 312 285T280 270T265 284ZM148 110Q148 121 166 137T198 153T213 140Q213 125 195 111T163 96T148 110ZM394 223L384 207H76L88 223H394Z" />
<glyph unicode="&#xf8;" glyph-name="oslash" horiz-adv-x="313" d="M195 166T181 166T160 165L35 -6Q97 5 152 64V65Q152 113 198 155Q195 166 181 166ZM12 -8Q17 -8 21 -7L145 162Q83 149 38 99T-7 13Q-7 -8 12 -8ZM254 292L172 181Q220 178 220 147T183 74V66Q183
33 212 33Q230 33 252 48L301 80L303 65L257 36Q225 15 195 15T154 46Q86 -13 22 -23L-47 -117Q-48 -117 -55 -111L8 -25H2Q-41 -25 -41 16Q-41 63 13 118Q38 144 77 161T159 181L246 299L254 292Z" />
<glyph unicode="&#xf9;" glyph-name="ugrave" horiz-adv-x="355" d="M253 213L115 270Q99 275 99 286T106 298T172 268T257 223L253 213ZM126 179T116 179T100 180T88 177Q-42 70 -42 15Q-42 -11 -20 -11Q17 -11 174 91Q120 35 120 0Q120 -25 150 -25T240 5T345
65L343 80Q341 79 312 61T261 30Q200 -7 177 -7T154 4Q154 30 294 156Q297 159 297 163Q297 172 275 174L264 170Q253 162 237 148Q24 4 -10 4Q-16 4 -16 13T7 49T73 118Q126 170 126 174Z" />
<glyph unicode="&#xfa;" glyph-name="uacute" horiz-adv-x="355" d="M327 270L189 213L185 223Q210 238 269 268T336 298T343 287T327 270ZM88 177Q93 181 115 179Q126 177 126 175T121 166T73 118Q-16 31 -16 9Q-16 4 -10 4Q24 4 237 148L264 170Q269 174 283
173T297 163Q297 159 294 156Q154 30 154 4Q154 -7 170 -7T213 5T261 29T311 60T343 80L345 65Q299 35 240 5T151 -25T120 0Q120 35 174 91Q17 -11 -20 -11Q-42 -11 -42 15Q-42 70 88 177Z" />
<glyph unicode="&#xfb;" glyph-name="ucircumflex" horiz-adv-x="355" d="M312 212L301 206L252 275L118 221L106 230L255 301Q268 301 271 296L312 212ZM88 177Q93 181 115 179Q126 177 126 175T121 166T73 118Q-16 31 -16 9Q-16 4 -10 4Q24 4 237 148L264 170Q269
174 283 173T297 163Q297 159 294 156Q154 30 154 4Q154 -7 170 -7T213 5T261 29T311 60T343 80L345 65Q299 35 240 5T151 -25T120 0Q120 35 174 91Q17 -11 -20 -11Q-42 -11 -42 15Q-42 70 88 177Z" />
<glyph unicode="&#xfc;" glyph-name="udieresis" horiz-adv-x="355" d="M302 250T286 237T257 224T243 235T259 260T288 275T302 264Q302 250 286 237ZM214 250T198 237T169 224T155 235T171 260T200 275T214 264Q214 250 198 237ZM88 177Q93 181 115 179Q126
177 126 175T121 166T73 118Q-16 31 -16 9Q-16 4 -10 4Q24 4 237 148L264 170Q269 174 283 173T297 163Q297 159 294 156Q154 30 154 4Q154 -7 170 -7T213 5T261 29T311 60T343 80L345 65Q299 35 240 5T151 -25T120 0Q120 35 174 91Q17 -11 -20 -11Q-42 -11 -42
15Q-42 70 88 177Z" />
<glyph unicode="&#xfd;" glyph-name="yacute" horiz-adv-x="391" d="M379 270L241 213L237 223Q262 238 321 268T388 298T395 287T379 270ZM-267 -298T-279 -317T-291 -359T-269 -381Q-215 -381 48 -113Q-129 -198 -171 -227T-240 -277ZM-305 -395T-305 -362T-275
-295T-186 -224Q-93 -168 63 -92Q70 -89 74 -87Q91 -70 128 -30T194 38Q104 -21 69 -21T34 4Q34 38 124 111Q153 135 153 142T145 150Q128 150 89 126T39 96T10 78T-18 60L-21 74Q116 164 155 164Q181 164 181 135Q181 104 91 32Q61 8 61 0Q61 -5 74 -5Q104 -5
166 34T270 113Q331 170 336 170T353 167T365 161T351 145T161 -44Q259 6 314 40T379 80L381 65Q336 39 317 26Q247 -17 133 -72Q-15 -220 -119 -307T-276 -395Q-305 -395 -305 -362Z" />
<glyph unicode="&#xfe;" glyph-name="thorn" horiz-adv-x="401" d="M280 163Q292 163 299 155T306 136Q306 114 271 84T200 28T164 -13Q164 -21 177 -21Q220 -21 308 29Q346 50 389 80L391 65Q357 43 315 20Q291 5 245 -14T169 -34T139 -7T175 53T248 111T285
142T268 149Q222 149 128 91Q83 64 -20 -31L-264 -265Q-341 -340 -348 -347T-373 -355T-391 -348Q-391 -334 164 182Q0 71 -18 60L-21 74Q128 177 240 255Q600 600 620 600Q628 600 628 591Q628 572 396 374L89 79Q211 163 280 163Z" />
<glyph unicode="&#xff;" glyph-name="ydieresis" horiz-adv-x="391" d="M368 250T352 237T323 224T309 235T325 260T354 275T368 264Q368 250 352 237ZM280 250T264 237T235 224T221 235T237 260T266 275T280 264Q280 250 264 237ZM-267 -298T-279 -317T-291 -359T-269
-381Q-215 -381 48 -113Q-129 -198 -171 -227T-240 -277ZM-305 -395T-305 -362T-275 -295T-186 -224Q-93 -168 63 -92Q70 -89 74 -87Q91 -70 128 -30T194 38Q104 -21 69 -21T34 4Q34 38 124 111Q153 135 153 142T145 150Q128 150 89 126T39 96T10 78T-18 60L-21
74Q116 164 155 164Q181 164 181 135Q181 104 91 32Q61 8 61 0Q61 -5 74 -5Q104 -5 166 34T270 113Q331 170 336 170T353 167T365 161T351 145T161 -44Q259 6 314 40T379 80L381 65Q336 39 317 26Q247 -17 133 -72Q-15 -220 -119 -307T-276 -395Q-305 -395 -305
-362Z" />
<glyph unicode="&#x2013;" glyph-name="endash" horiz-adv-x="284" d="M283 102L278 86H43L49 102H283Z" />
<glyph unicode="&#x2014;" glyph-name="emdash" horiz-adv-x="522" d="M521 102L511 86H43L55 102H521Z" />
<glyph unicode="&#x2018;" glyph-name="quoteleft" horiz-adv-x="304" d="M365 579L373 571Q331 557 299 529T266 471Q281 463 281 451T265 426T233 414T218 428Q218 458 266 511T365 579Z" />
<glyph unicode="&#x2019;" glyph-name="quoteright" horiz-adv-x="433" d="M385 413L377 421Q419 435 451 463T484 521Q469 529 469 541T485 566T517 578T532 564Q532 534 484 481T385 413Z" />
<glyph unicode="&#x201a;" glyph-name="quotesinglbase" horiz-adv-x="190" d="M-54 -80L-62 -72Q-20 -58 12 -30T45 28Q30 36 30 48T46 73T78 85T93 71Q93 41 45 -12T-54 -80Z" />
<glyph unicode="&#x201c;" glyph-name="quotedblleft" horiz-adv-x="390" d="M451 579L459 571Q417 557 385 529T352 471Q367 463 367 451T351 426T319 414T304 428Q304 458 352 511T451 579ZM365 579L373 571Q331 557 299 529T266 471Q281 463 281 451T265 426T233
414T218 428Q218 458 266 511T365 579Z" />
<glyph unicode="&#x201d;" glyph-name="quotedblright" horiz-adv-x="395" d="M261 415L253 423Q295 437 327 465T360 523Q345 531 345 543T361 568T393 580T408 566Q408 536 360 483T261 415ZM347 415L339 423Q381 437 413 465T446 523Q431 531 431 543T447 568T479
580T494 566Q494 536 446 483T347 415Z" />
<glyph unicode="&#x201e;" glyph-name="quotedblbase" horiz-adv-x="276" d="M-54 -82L-62 -74Q-20 -60 12 -32T45 26Q30 34 30 46T46 71T78 83T93 69Q93 39 45 -14T-54 -82ZM32 -82L24 -74Q66 -60 98 -32T131 26Q116 34 116 46T132 71T164 83T179 69Q179 39 131
-14T32 -82Z" />
<glyph unicode="&#x2022;" glyph-name="bullet" horiz-adv-x="245" d="M70 44Q42 44 42 72Q42 88 73 115T129 143T154 118T124 69T70 44Z" />
<glyph unicode="&#x2039;" glyph-name="guilsinglleft" horiz-adv-x="288" d="M175 19L169 10L14 98Q8 101 8 105T16 112L234 170L232 158L58 98L175 19Z" />
<glyph unicode="&#x203a;" glyph-name="guilsinglright" horiz-adv-x="267" d="M43 161L49 170L204 82Q210 79 210 75T202 68L-16 10L-14 22L160 82L43 161Z" />
</font>
</defs>
</svg>
