<?xml version="1.0" standalone="no"?>
<!DOCTYPE svg PUBLIC "-//W3C//DTD SVG 1.1//EN" "http://www.w3.org/Graphics/SVG/1.1/DTD/svg11.dtd">
<svg xmlns="http://www.w3.org/2000/svg">
<defs >
<font id="Khula" horiz-adv-x="1130" ><font-face
    font-family="Khula"
    units-per-em="1978"
    panose-1="2 0 0 0 0 0 0 0 0 0"
    ascent="1978"
    descent="-1198"
    alphabetic="0" />
<glyph unicode=" " glyph-name="space" horiz-adv-x="532" />
<glyph unicode="!" glyph-name="exclam" horiz-adv-x="577" d="M382 1316L336 363H242L196 1316H382ZM339 -26T289 -26T209 4T180 95Q180 218 288 218Q340 218 368 187T397 97T368 6Z" />
<glyph unicode="&quot;" glyph-name="quotedbl" horiz-adv-x="819" d="M492 1316H659L622 841H529L492 1316ZM160 1316H327L291 841H197L160 1316Z" />
<glyph unicode="#" glyph-name="numbersign" horiz-adv-x="1191" d="M487 809L427 503H700L760 809H487ZM1143 809H883L823 503H1078V387H802L726 0H603L679 387H406L332 0H210L282 387H46V503H304L365 809H116V923H385L459 1316H584L510 923H785L860 1316H981L905
923H1143V809Z" />
<glyph unicode="$" glyph-name="dollar" horiz-adv-x="1054" d="M287 1014T287 948T327 841T468 763V1111Q380 1097 334 1056ZM779 392Q779 457 740 496T584 577V227Q779 254 779 392ZM932 404Q932 282 841 202T584 102V-107H468V94Q366 94 271 110T118 153V293Q193
260 290 239T468 218V614Q282 673 209 750T135 947T225 1142T468 1235V1399H584V1237Q747 1233 904 1170L857 1052Q724 1104 584 1115V724Q726 679 795 636Q866 594 899 539T932 404Z" />
<glyph unicode="%" glyph-name="percent" horiz-adv-x="1517" d="M359 1335Q490 1335 560 1228T630 920T561 614T363 508T164 615T94 923Q94 1335 359 1335ZM1058 1316H1191L461 0H328L1058 1316ZM359 1228Q285 1228 252 1153T218 923T251 692T359 617Q507 617
507 922T359 1228ZM1021 807T1151 807T1352 701T1423 394T1354 87T1155 -18T955 89T886 398T953 703ZM1228 698T1153 698T1044 625T1010 396T1043 165T1152 90T1264 165T1300 395T1264 624Z" />
<glyph unicode="&amp;" glyph-name="ampersand" horiz-adv-x="1345" d="M630 1213T551 1213T423 1170T373 1060T404 937T516 800Q632 868 677 924T723 1053T677 1169ZM512 116Q730 116 872 255L479 636Q377 574 337 535Q256 457 256 348T326 177T512 116ZM102
341Q102 457 164 548Q228 639 389 730Q312 816 284 859Q225 957 225 1050Q225 1185 313 1260T553 1336T789 1261T872 1052Q872 956 811 874T608 709L975 357Q1059 451 1106 652H1257Q1195 395 1073 262L1342 0H1136L969 160Q864 66 755 24T508 -18Q315 -18 208
77Q102 173 102 341Z" />
<glyph unicode="&apos;" glyph-name="quotesingle" horiz-adv-x="527" d="M180 1316H347L311 841H217L180 1316Z" />
<glyph unicode="(" glyph-name="parenleft" horiz-adv-x="646" d="M90 371T90 607T159 1052T361 1417H506Q378 1245 312 1037T246 610T313 184T505 -191H361Q229 -38 160 166Z" />
<glyph unicode=")" glyph-name="parenright" horiz-adv-x="647" d="M557 842T557 606T488 165T286 -192H142Q267 -22 333 183T400 608T334 1036T140 1416H286Q418 1258 487 1050Z" />
<glyph unicode="*" glyph-name="asterisk" horiz-adv-x="1017" d="M417 1400H591L553 1045L911 1145L934 981L591 953L814 660L660 575L501 901L357 575L199 660L417 953L77 981L103 1145L455 1045L417 1400Z" />
<glyph unicode="+" glyph-name="plus" horiz-adv-x="1054" d="M588 1097V712H958V588H588V204H463V588H94V712H463V1097H588Z" />
<glyph unicode="," glyph-name="comma" horiz-adv-x="452" d="M328 193Q280 5 169 -238H57Q84 -131 112 2T151 214H315L328 193Z" />
<glyph unicode="-" glyph-name="hyphen" horiz-adv-x="671" d="M556 526H115V662H556V526Z" />
<glyph unicode="." glyph-name="period" horiz-adv-x="490" d="M294 -26T245 -26T166 4T137 94T164 186T244 218T325 187T354 97T324 6Z" />
<glyph unicode="/" glyph-name="slash" horiz-adv-x="677" d="M508 1316H658L167 0H18L508 1316Z" />
<glyph unicode="0" glyph-name="zero" horiz-adv-x="1054" d="M962 654Q962 -18 530 -18Q313 -18 203 154T92 665T199 1169T522 1336T850 1163T962 654ZM243 947T243 660T310 242T526 111T742 242T809 659T742 1075T526 1207T310 1077Z" />
<glyph unicode="1" glyph-name="one" horiz-adv-x="1054" d="M643 1316V0H498V938Q498 1062 505 1159Q486 1140 461 1119T248 944L169 1047L517 1316H643Z" />
<glyph unicode="2" glyph-name="two" horiz-adv-x="1054" d="M955 139V0H90V129L436 477Q597 639 645 705Q746 842 746 978Q746 1084 682 1145T505 1207Q422 1207 350 1181T186 1082L107 1183Q289 1335 503 1335Q687 1335 793 1241T899 985Q899 858 828 735T566
427L278 146V139H955Z" />
<glyph unicode="3" glyph-name="three" horiz-adv-x="1054" d="M905 1006Q905 881 835 801T634 693V686Q946 646 946 373Q946 184 816 83T458 -18T85 53V195Q259 109 450 109Q791 109 791 376Q791 616 415 616H285V744H417Q570 744 660 812T751 1001Q751 1097
685 1152T505 1207Q418 1207 342 1184T167 1097L92 1198Q266 1335 501 1335Q693 1335 799 1247T905 1006Z" />
<glyph unicode="4" glyph-name="four" horiz-adv-x="1054" d="M1017 438V302H822V0H679V302H39V433L663 1323H822V438H1017ZM679 438V876Q679 1004 688 1166H680Q635 1078 599 1023L188 438H679Z" />
<glyph unicode="5" glyph-name="five" horiz-adv-x="1054" d="M501 804Q710 804 829 701T948 418Q948 213 818 98T463 -18T120 53V197Q183 156 278 134T461 111Q620 111 707 186T795 401Q795 677 457 677Q374 677 229 651L151 700L201 1316H855V1178H328L295 783Q398
804 501 804Z" />
<glyph unicode="6" glyph-name="six" horiz-adv-x="1054" d="M105 562Q105 948 255 1141T702 1335Q802 1335 862 1318V1189Q795 1211 704 1211Q490 1211 380 1078T258 665H269Q368 820 582 820Q760 820 862 713T964 412T852 100T543 -18T225 135Q105 290 105 562ZM816
270T816 413T750 629T554 702Q436 706 346 629T258 455Q256 314 340 210T547 109Q676 109 746 189Z" />
<glyph unicode="7" glyph-name="seven" horiz-adv-x="1054" d="M85 1178V1316H960V1196L422 0H256L802 1178H85Z" />
<glyph unicode="8" glyph-name="eight" horiz-adv-x="1054" d="M348 1335T527 1335T811 1251T916 1020Q916 821 663 697Q821 622 889 537T958 341Q958 176 845 79T526 -18T207 74T94 336Q94 562 369 688Q248 756 193 837T137 1021Q137 1164 242 1250Q348 1335
527 1335ZM769 931T769 1018T704 1159T525 1213T348 1160T283 1019T336 873T533 754Q660 807 714 869ZM241 429T241 327T316 164T526 103T736 165T811 339Q811 426 740 494T496 626Q362 569 302 499Z" />
<glyph unicode="9" glyph-name="nine" horiz-adv-x="1054" d="M243 1042T243 902T309 689T505 616Q625 612 715 688T804 860Q806 1004 722 1107T512 1207Q384 1207 314 1125ZM357 -18Q254 -18 192 0V129Q264 105 355 105Q571 105 681 239T802 649H791Q743 575
661 536T475 496Q302 496 198 600Q95 704 95 901T210 1216T512 1335Q714 1338 835 1180T955 754Q955 -18 357 -18Z" />
<glyph unicode=":" glyph-name="colon" horiz-adv-x="510" d="M314 769T264 769T186 798T157 890Q157 1012 263 1012Q374 1012 374 890Q374 833 344 801ZM314 -26T265 -26T186 4T157 94T184 186T264 218T345 187T374 97T344 6Z" />
<glyph unicode=";" glyph-name="semicolon" horiz-adv-x="510" d="M311 769T259 769T180 800T152 890Q152 1012 259 1012Q370 1012 370 890Q370 833 341 801ZM348 193Q300 5 189 -238H77Q104 -131 132 2T171 214H335L348 193Z" />
<glyph unicode="&lt;" glyph-name="less" horiz-adv-x="1054" d="M958 354V218L94 598V686L958 1117V983L255 649L958 354Z" />
<glyph unicode="=" glyph-name="equal" horiz-adv-x="1054" d="M944 772H107V895H944V772ZM944 404H107V527H944V404Z" />
<glyph unicode="&gt;" glyph-name="greater" horiz-adv-x="1054" d="M94 218V354L798 647L94 983V1117L958 686V598L94 218Z" />
<glyph unicode="?" glyph-name="question" horiz-adv-x="921" d="M476 363H360V411Q360 515 392 583T513 728Q637 833 668 885T699 1010Q699 1102 640 1151T471 1201Q402 1201 334 1185T177 1124L124 1246Q294 1335 473 1335T747 1250T842 1012Q842 892 773 801Q737
756 626 658Q536 581 505 529Q476 477 476 392V363ZM475 -26T425 -26T345 4T316 95Q316 218 424 218Q476 218 504 187T533 97T504 6Z" />
<glyph unicode="@" glyph-name="at" horiz-adv-x="1657" d="M1324 199T1239 199T1101 245T1038 365H1030Q994 286 927 243T769 199Q634 199 558 290T481 542Q481 725 587 840T867 955Q928 955 1006 944T1145 913L1122 490V470Q1122 310 1242 310Q1324 310 1375
407T1426 658Q1429 901 1279 1051T888 1198Q691 1200 541 1116T312 876T234 520Q234 246 379 98T796 -50Q985 -50 1189 28V-92Q1016 -167 796 -167Q471 -167 289 12Q109 192 109 514Q109 748 205 930T479 1213T888 1314Q1079 1317 1231 1234T1467 1000T1548 656Q1548
527 1509 422T1397 258ZM867 844Q750 844 684 763T617 538Q617 310 793 310Q978 310 995 591L1008 826Q944 844 867 844Z" />
<glyph unicode="A" glyph-name="A" horiz-adv-x="1166" d="M371 556H796L643 964Q612 1048 582 1154Q564 1072 526 964L371 556ZM1166 0H1008L844 418H317L155 0H0L520 1321H649L1166 0Z" />
<glyph unicode="B" glyph-name="B" horiz-adv-x="1194" d="M181 0V1316H553Q815 1316 931 1238T1048 990Q1048 872 983 797T793 698V689Q1093 638 1093 374Q1093 198 974 99T640 0H181ZM334 1183V752H586Q748 752 819 803T890 969T812 1134T559 1183H334ZM608
130Q929 130 929 381Q929 507 847 565T596 623H334V130H608Z" />
<glyph unicode="C" glyph-name="C" horiz-adv-x="1163" d="M744 1198Q527 1198 402 1053T276 654T397 259T742 118Q882 118 1057 167V33Q920 -18 719 -18Q428 -18 270 158Q112 336 112 660Q111 810 155 936T282 1151T483 1287T746 1335Q955 1335 1108 1259L1043
1128Q896 1198 744 1198Z" />
<glyph unicode="D" glyph-name="D" horiz-adv-x="1344" d="M1231 976T1231 660T1055 172T545 0H181V1316H584Q891 1316 1061 1146ZM520 132Q793 132 931 266T1069 661T940 1052T556 1183H334V132H520Z" />
<glyph unicode="E" glyph-name="E" horiz-adv-x="1025" d="M914 137V0H181V1316H914V1180H334V756H879V621H334V137H914Z" />
<glyph unicode="F" glyph-name="F" horiz-adv-x="951" d="M334 562V0H181V1316H914V1180H334V698H879V562H334Z" />
<glyph unicode="G" glyph-name="G" horiz-adv-x="1342" d="M760 553V689H1207V49Q1099 15 991 -1T744 -18Q444 -18 278 159T112 658Q110 862 193 1016T433 1254T795 1335Q1006 1335 1187 1257L1128 1122Q951 1198 785 1198Q544 1198 409 1055T274 652T404 254T787
116Q921 116 1054 148V553H760Z" />
<glyph unicode="H" glyph-name="H" horiz-adv-x="1360" d="M1180 1316V0H1027V619H334V0H181V1316H334V756H1027V1316H1180Z" />
<glyph unicode="I" glyph-name="I" horiz-adv-x="514" d="M334 0H181V1316H334V0Z" />
<glyph unicode="J" glyph-name="J" horiz-adv-x="492" d="M324 13Q324 -159 237 -253T-11 -347Q-95 -347 -144 -322V-192Q-80 -210 -11 -210Q78 -210 124 -156T171 0V1316H324V13Z" />
<glyph unicode="K" glyph-name="K" horiz-adv-x="1131" d="M334 0H181V1316H334V663L931 1316H1111L582 744L1131 0H951L472 638L334 516V0Z" />
<glyph unicode="L" glyph-name="L" horiz-adv-x="957" d="M914 0H181V1316H334V139H914V0Z" />
<glyph unicode="M" glyph-name="M" horiz-adv-x="1664" d="M322 837V0H181V1316H411L828 230H835L1255 1316H1484V0H1331V848Q1331 1000 1344 1165H1336L886 0H763L317 1166H310Q322 1028 322 837Z" />
<glyph unicode="N" glyph-name="N" horiz-adv-x="1390" d="M1066 1316H1209V0H1034L315 1104H308Q322 903 322 748V0H181V1316H354L1071 216H1078Q1063 475 1066 561V1316Z" />
<glyph unicode="O" glyph-name="O" horiz-adv-x="1435" d="M112 338T112 660T270 1159T716 1336T1163 1157T1323 661T1163 163T716 -18T270 159Q112 338 112 660ZM939 1200T721 1200T388 1062T274 659T388 255T720 116T1049 253T1161 658T1050 1063Z" />
<glyph unicode="P" glyph-name="P" horiz-adv-x="1110" d="M522 1316Q1015 1316 1015 932Q1015 733 879 625T489 517H334V0H181V1316H522ZM334 1183V649H472Q674 649 766 714Q857 780 857 918T771 1120T505 1183H334Z" />
<glyph unicode="Q" glyph-name="Q" horiz-adv-x="1435" d="M1323 660Q1323 407 1222 239T934 13L1247 -313H1025L769 -16L719 -18Q428 -18 270 159Q112 338 112 660T270 1159T716 1336T1163 1157T1323 660ZM939 1200T721 1200T388 1062T274 659T388 255T720 116T1049
253T1161 658T1050 1063Z" />
<glyph unicode="R" glyph-name="R" horiz-adv-x="1139" d="M334 1182V679H544Q705 679 781 742T857 936T780 1124T533 1182H334ZM334 547V0H181V1316H542Q783 1316 899 1224T1015 944Q1015 682 751 591L1108 0H927L608 547H334Z" />
<glyph unicode="S" glyph-name="S" horiz-adv-x="1012" d="M923 350Q923 176 798 79T447 -18T95 42V190Q273 116 461 116Q612 116 690 173T769 336Q769 404 742 447T649 528T454 612Q271 677 192 767T112 1006T226 1245Q342 1335 533 1335T890 1263L842 1129Q679
1198 526 1198Q404 1198 336 1146T267 1001Q267 931 291 889T377 808Q440 770 561 728Q769 654 845 569Q923 485 923 350Z" />
<glyph unicode="T" glyph-name="T" horiz-adv-x="1020" d="M586 1180V0H433V1180H16V1316H1003V1180H586Z" />
<glyph unicode="U" glyph-name="U" horiz-adv-x="1342" d="M1021 1316H1174V464Q1174 239 1038 111T665 -18T297 111Q167 241 167 468V1316H320V457Q320 291 410 204T671 116T931 205T1021 459V1316Z" />
<glyph unicode="V" glyph-name="V" horiz-adv-x="1097" d="M632 470L932 1316H1097L623 0H472L0 1316H162L464 464Q518 315 547 179Q581 328 632 470Z" />
<glyph unicode="W" glyph-name="W" horiz-adv-x="1706" d="M1681 1316L1329 0H1178L913 881Q898 927 870 1029Q848 1117 846 1136Q826 1016 783 876L526 0H374L24 1316H186L394 503Q438 331 457 193Q481 359 529 516L765 1316H927L1174 508Q1220 362 1247 193Q1263
317 1312 505L1519 1316H1681Z" />
<glyph unicode="X" glyph-name="X" horiz-adv-x="1064" d="M617 693L1057 0H883L529 579L169 0H7L445 688L37 1316H206L533 795L862 1316H1025L617 693Z" />
<glyph unicode="Y" glyph-name="Y" horiz-adv-x="1032" d="M593 0H438V503L0 1316H167L516 658L867 1316H1032L593 510V0Z" />
<glyph unicode="Z" glyph-name="Z" horiz-adv-x="1052" d="M978 139V0H74V120L772 1178H95V1316H958V1196L260 139H978Z" />
<glyph unicode="[" glyph-name="bracketleft" horiz-adv-x="607" d="M561 -64V-192H149V1416H561V1289H301V-64H561Z" />
<glyph unicode="\" glyph-name="backslash" horiz-adv-x="677" d="M21 1316H167L660 0H510L21 1316Z" />
<glyph unicode="]" glyph-name="bracketright" horiz-adv-x="607" d="M46 -192V-64H306V1289H46V1416H457V-192H46Z" />
<glyph unicode="^" glyph-name="asciicircum" horiz-adv-x="999" d="M181 496H44L435 1326H524L953 496H816L481 1166L181 496Z" />
<glyph unicode="_" glyph-name="underscore" horiz-adv-x="826" d="M830 -166V-284H-4V-166H830Z" />
<glyph unicode="`" glyph-name="grave" horiz-adv-x="1073" d="M736 1252L681 1241Q678 1243 640 1253T591 1270Q490 1351 413 1423Q361 1476 327 1524L417 1536Q419 1532 482 1516T557 1487Q565 1472 638 1375Q717 1273 736 1252Z" />
<glyph unicode="a" glyph-name="a" horiz-adv-x="1025" d="M241 271Q241 191 290 148T427 105Q568 105 647 181T726 396V485L577 479Q399 472 320 423T241 271ZM876 0H765L735 140H728Q654 48 581 15T398 -18Q250 -18 168 58T85 273Q85 571 562 586L730 591V652Q730
770 680 824T514 879T241 804L195 918Q351 1003 529 1003T791 924T876 673V0Z" />
<glyph unicode="b" glyph-name="b" horiz-adv-x="1129" d="M411 1003T612 1003T920 870T1027 493T919 116T612 -18T308 127H297L265 0H158V1400H308V1060Q308 940 301 855H308Q411 1003 612 1003ZM872 306T872 497T805 783T590 877T375 790T308 495T377 197T599
107Q736 107 804 206Z" />
<glyph unicode="c" glyph-name="c" horiz-adv-x="877" d="M553 -18Q338 -18 220 114Q103 246 103 489T222 869Q342 1004 562 1004Q634 1004 705 989T816 953L770 826Q659 872 559 872Q258 872 258 489Q258 306 332 209T549 112Q671 112 802 166V33Q703 -18 553 -18Z" />
<glyph unicode="d" glyph-name="d" horiz-adv-x="1129" d="M258 676T258 488T327 204T531 107Q684 107 753 190T822 459V490Q822 701 752 790T529 879Q398 879 328 778ZM718 -18T519 -18T211 114Q103 248 103 491T211 869T516 1004T820 859H832L825 930L822 999V1400H971V0H850L830
132H822Q718 -18 519 -18Z" />
<glyph unicode="e" glyph-name="e" horiz-adv-x="1034" d="M575 -18Q356 -18 229 115Q103 248 103 486T220 864Q339 1004 530 1004T830 882T938 561V466H258Q263 293 346 203T585 112T895 179V46Q818 12 746 -3T575 -18ZM778 588Q778 729 715 804T535 879T346
802T262 588H778Z" />
<glyph unicode="f" glyph-name="f" horiz-adv-x="625" d="M603 986V870H352V0H202V870H26V938L202 992V1047Q202 1410 520 1410Q599 1410 704 1379L665 1259Q581 1287 517 1287Q432 1287 392 1230T352 1050V986H603Z" />
<glyph unicode="g" glyph-name="g" horiz-adv-x="1010" d="M479 895Q372 895 316 838T260 675T318 515T481 461Q700 461 700 673Q700 895 479 895ZM966 986V892L783 870Q848 789 848 673Q848 528 749 441Q649 355 477 355Q436 355 394 363Q299 312 299 236Q299
194 332 176T446 157H621Q781 157 867 90T953 -107Q953 -271 822 -357T438 -443Q245 -443 140 -371T35 -167Q35 -76 93 -11T255 77Q215 95 191 131T166 217T194 308T285 387Q209 418 160 494Q112 570 112 667Q112 829 209 916T485 1004Q562 1004 625 986H966ZM394
22Q292 22 236 -27T179 -161Q179 -329 440 -329Q624 -329 716 -274T809 -120Q809 -41 760 -10T573 22H394Z" />
<glyph unicode="h" glyph-name="h" horiz-adv-x="1131" d="M983 0H833V638Q833 760 778 818T607 877Q450 877 379 792T308 516V0H158V1400H308V976Q308 896 301 850H310Q355 922 436 962T621 1003Q804 1003 893 916T983 643V0Z" />
<glyph unicode="i" glyph-name="i" horiz-adv-x="466" d="M272 1154T233 1154T170 1179T146 1254T170 1328T233 1353T297 1328T322 1254T297 1180ZM308 986V0H158V986H308Z" />
<glyph unicode="j" glyph-name="j" horiz-adv-x="466" d="M272 1154T233 1154T170 1179T146 1254T170 1328T233 1353T297 1328T322 1254T297 1180ZM308 -151Q308 -443 39 -443Q-46 -443 -100 -420V-299Q-38 -317 28 -317Q158 -317 158 -162V986H308V-151Z" />
<glyph unicode="k" glyph-name="k" horiz-adv-x="967" d="M306 0H158V1400H306V658Q306 602 299 505H306Q347 563 424 649L742 986H920L520 566L948 0H767L418 466L306 369V0Z" />
<glyph unicode="l" glyph-name="l" horiz-adv-x="466" d="M308 1400V0H158V1400H308Z" />
<glyph unicode="m" glyph-name="m" horiz-adv-x="1714" d="M1565 0H1416V642Q1416 877 1209 877Q1069 877 1003 797T936 551V0H787V642Q787 761 736 819T579 877Q437 877 373 793T308 517V0H158V986H280L304 851H311Q354 923 431 963T603 1004Q834 1004 905 837H913Q958
915 1041 959T1231 1004Q1401 1004 1483 917T1565 643V0Z" />
<glyph unicode="n" glyph-name="n" horiz-adv-x="1131" d="M983 0H833V638Q833 760 778 818T607 877Q452 877 380 794T308 517V0H158V986H280L304 851H311Q357 923 440 963T625 1004Q805 1004 894 917T983 643V0Z" />
<glyph unicode="o" glyph-name="o" horiz-adv-x="1113" d="M346 1004T556 1004T888 867T1010 492T888 117Q766 -18 553 -18Q352 -20 226 121T103 494Q103 736 224 870ZM554 877Q258 877 258 494Q258 305 333 206T556 107T779 205T855 493T779 780T554 877Z" />
<glyph unicode="p" glyph-name="p" horiz-adv-x="1129" d="M872 313T872 496T800 778T596 877Q446 877 378 794T308 527V494Q308 286 377 197T599 107Q727 107 799 210ZM1027 736T1027 493T919 116T612 -18T308 127H297Q308 36 308 -37V-443H158V986H280L301 851H308Q416
1004 614 1004T920 870Z" />
<glyph unicode="q" glyph-name="q" horiz-adv-x="1129" d="M508 -18Q318 -18 210 116Q103 250 103 491T211 868T517 1004T823 851H832L853 986H971V-443H822V-21Q822 72 832 132H820Q716 -18 508 -18ZM258 489Q258 107 538 107Q680 107 748 187Q818 267 822 457V490Q822
696 752 787T529 879Q398 879 328 778T258 489Z" />
<glyph unicode="r" glyph-name="r" horiz-adv-x="752" d="M608 1004Q676 1004 726 994L706 855Q647 868 598 868Q478 868 393 771T308 529V0H158V986H282L299 804H306Q361 901 438 952T608 1004Z" />
<glyph unicode="s" glyph-name="s" horiz-adv-x="879" d="M795 269Q795 131 693 57T399 -18T98 44V183Q252 105 408 105Q651 105 651 256Q651 314 600 355T410 449T210 541Q95 619 95 742T193 934T457 1004T774 940L721 818Q574 879 461 879T293 847T238 754Q238
716 257 688T322 634T496 561Q672 496 733 432T795 269Z" />
<glyph unicode="t" glyph-name="t" horiz-adv-x="651" d="M319 290Q319 201 360 153T474 105T612 123V9Q589 -2 540 -10T455 -18Q169 -18 169 283V870H28V942L169 1004L232 1215H319V986H605V870H319V290Z" />
<glyph unicode="u" glyph-name="u" horiz-adv-x="1131" d="M148 986H299V346Q299 225 354 166T526 107Q681 107 752 192T823 468V986H973V0H850L828 132H820Q774 60 693 21T507 -18Q325 -18 237 68T148 341V986Z" />
<glyph unicode="v" glyph-name="v" horiz-adv-x="923" d="M549 0H374L0 986H160L373 401Q445 194 457 135H464Q475 184 520 314T763 986H923L549 0Z" />
<glyph unicode="w" glyph-name="w" horiz-adv-x="1434" d="M1141 0H964L783 579Q763 643 719 820H712Q676 662 649 577L463 0H290L21 986H177Q291 545 331 386T380 158H387Q400 222 422 304T457 420L638 986H800L976 420Q1027 266 1045 160H1052Q1057 198 1079
291T1259 986H1414L1141 0Z" />
<glyph unicode="x" glyph-name="x" horiz-adv-x="966" d="M35 0L396 505L53 986H223L483 608L742 986H911L568 505L929 0H760L483 400L204 0H35Z" />
<glyph unicode="y" glyph-name="y" horiz-adv-x="929" d="M149 -443Q82 -443 14 -428V-308Q66 -319 125 -319Q279 -319 345 -146L400 -5L2 986H162L378 424Q451 224 466 146H473Q486 197 520 299T767 986H927L503 -137Q441 -302 357 -372T149 -443Z" />
<glyph unicode="z" glyph-name="z" horiz-adv-x="862" d="M789 116V0H74V102L612 870H107V986H776V870L245 116H789Z" />
<glyph unicode="{" glyph-name="braceleft" horiz-adv-x="759" d="M462 378V111Q462 21 513 -21T669 -66V-192Q498 -190 405 -114T311 102V374Q311 466 256 507T90 548V675Q206 677 258 718T311 846V1121Q311 1262 408 1339T669 1416V1291Q462 1285 462 1112V846Q462
653 262 617V607Q462 572 462 378Z" />
<glyph unicode="|" glyph-name="bar" horiz-adv-x="1015" d="M445 -446V1400H571V-446H445Z" />
<glyph unicode="}" glyph-name="braceright" horiz-adv-x="758" d="M294 846V1112Q294 1285 90 1291V1416Q256 1416 350 1338T445 1121V846Q445 759 498 718T668 675V548Q556 548 501 507T445 374V102Q445 -36 353 -113T90 -192V-66Q192 -64 243 -22T294 111V378Q294
480 343 534T495 607V617Q294 653 294 846Z" />
<glyph unicode="~" glyph-name="asciitilde" horiz-adv-x="1054" d="M345 642T301 642T200 612T94 533V669Q184 767 313 767Q376 767 425 755T575 700T735 658T853 687T958 767V632Q866 533 746 533T496 591Q424 621 385 631Z" />
<glyph unicode="&#xa0;" glyph-name="nbspace" horiz-adv-x="532" />
<glyph unicode="&#xa9;" glyph-name="copyright" horiz-adv-x="1534" d="M954 -18T767 -18T423 74T178 323T90 659T180 995T427 1244T765 1335T1103 1245T1352 998T1444 660T1356 325Q1270 170 1112 76ZM925 1240T768 1240T477 1162T264 951T184 660T262 366Q342
231 476 153Q613 76 768 76T1058 154T1270 365T1349 656T1270 948Q1192 1083 1058 1161Q925 1240 768 1240ZM804 953Q692 953 631 875T570 652T627 434T802 361Q881 361 992 401V290Q890 247 795 247Q621 247 527 354T433 654T532 956T804 1067Q918 1067 1025 1013L973
907Q877 953 804 953Z" />
<glyph unicode="&#xd7;" glyph-name="multiply" horiz-adv-x="1054" d="M527 739L846 1058L932 969L616 651L931 334L844 245L526 561L212 245L121 334L436 651L120 967L210 1058L527 739Z" />
<glyph unicode="&#xf7;" glyph-name="divide" horiz-adv-x="1054" d="M571 855T525 855T451 884T424 965T450 1045T524 1073T598 1044T625 964T598 884ZM958 588H94V712H958V588ZM571 227T525 227T451 255T424 336T450 417T524 445T598 416T625 336T598 256Z" />
<glyph unicode="&#x2013;" glyph-name="endash" horiz-adv-x="1024" d="M899 526H125V662H899V526Z" />
<glyph unicode="&#x2014;" glyph-name="emdash" horiz-adv-x="1945" d="M1820 526H125V662H1820V526Z" />
<glyph unicode="&#x2018;" glyph-name="quoteleft" horiz-adv-x="610" d="M337 865H171L160 885Q178 958 221 1078T319 1316H430Q370 1086 337 865Z" />
<glyph unicode="&#x2019;" glyph-name="quoteright" horiz-adv-x="590" d="M430 1296Q373 1086 270 865H160Q224 1127 252 1316H416L430 1296Z" />
<glyph unicode="&#x201c;" glyph-name="quotedblleft" horiz-adv-x="911" d="M307 865H141L130 885Q148 958 191 1078T289 1316H400Q340 1086 307 865ZM731 1316Q670 1082 639 865H473L460 885Q508 1071 620 1316H731Z" />
<glyph unicode="&#x201d;" glyph-name="quotedblright" horiz-adv-x="921" d="M490 865Q565 1166 584 1316H748L761 1296Q703 1081 602 865H490ZM430 1296Q373 1086 270 865H160Q224 1127 252 1316H416L430 1296Z" />
<glyph unicode="&#x2022;" glyph-name="bullet" horiz-adv-x="693" d="M442 450T347 450T200 508T148 674T198 838T345 895T493 839T545 675T494 508Z" />
</font>
</defs>
</svg>
