<?xml version="1.0" standalone="no"?>
<!DOCTYPE svg PUBLIC "-//W3C//DTD SVG 1.1//EN" "http://www.w3.org/Graphics/SVG/1.1/DTD/svg11.dtd">
<svg xmlns="http://www.w3.org/2000/svg">
<defs >
<font id="Lekton" horiz-adv-x="500" ><font-face
    font-family="Lekton"
    units-per-em="1000"
    panose-1="2 0 0 0 0 0 0 0 0 0"
    ascent="750"
    descent="-250"
    alphabetic="0" />
<glyph unicode=" " glyph-name="space" />
<glyph unicode="!" glyph-name="exclam" d="M195 -6V131H329V-6H195ZM213 188L202 655H321L309 188H213Z" />
<glyph unicode="&quot;" glyph-name="quotedbl" d="M123 463V680H211V463H123ZM288 463V680H376V463H288Z" />
<glyph unicode="#" glyph-name="numbersign" d="M298 251L317 423H203L184 251H298ZM477 177H373L353 0H270L291 177H177L156 0H74L95 177H0V251H102L121 423H23V496H128L146 655H228L210 496H325L342 655H424L407 496H500V423H399L380 251H477V177Z" />
<glyph unicode="$" glyph-name="dollar" d="M451 175Q451 12 283 -7V-92H183V-7Q118 -1 38 23L59 111Q238 52 308 96Q346 120 347 169T324 238T206 284T75 355T37 476T86 594T191 640V725H292V643Q352 641 437 610L414 522Q315 555 252 555Q251 555 248 555Q141
556 141 472Q141 402 259 371Q310 357 342 344Q373 332 400 310Q451 270 451 175Z" />
<glyph unicode="%" glyph-name="percent" d="M335 665H429L162 0H68L335 665ZM0 465T0 525T35 620T123 655T211 620T246 525T211 430T123 395T35 430ZM172 580T123 580T74 525T123 469T172 524ZM253 70T253 130T288 225T376 260T464 225T499 130T464 35T376 0T288
35ZM326 156T326 128T339 86T375 71T411 85T425 128Q425 184 376 184Q353 184 340 170Z" />
<glyph unicode="&amp;" glyph-name="ampersand" d="M4 197Q4 344 140 405Q104 466 99 487Q95 508 95 525Q95 588 137 626T251 665T364 627Q406 588 406 528T375 432T265 360L368 212Q388 261 406 388L491 376Q473 229 426 138L498 44L429 -10Q400 26 373 65Q304
-10 206 -10T56 42T4 197ZM316 522Q316 584 252 584T188 525Q188 495 195 475T224 424Q276 445 296 467T316 522ZM95 197Q95 131 121 101T205 71Q280 71 325 132L179 339Q95 297 95 197Z" />
<glyph unicode="&apos;" glyph-name="quotesingle" d="M199 463V680H287V463H199Z" />
<glyph unicode="(" glyph-name="parenleft" d="M253 -55T214 54T174 317T214 581T332 806L407 758Q340 659 306 561T272 318T305 76T405 -120L332 -170Q253 -55 214 54Z" />
<glyph unicode=")" glyph-name="parenright" d="M209 174T209 318T175 560T74 758L149 806Q227 692 267 582Q307 472 307 318T268 55T149 -170L76 -120Q142 -23 175 75Z" />
<glyph unicode="*" glyph-name="asterisk" d="M70 484V572L192 569L148 681L240 712L271 594L367 669L424 593L317 526L423 461L366 383L269 459L236 342L146 375L190 485L70 484Z" />
<glyph unicode="+" glyph-name="plus" d="M461 235H300V71H200V235H40V331H200V494H300V331H461V235Z" />
<glyph unicode="," glyph-name="comma" d="M173 0V145H315V30Q315 -61 233 -143L172 -112Q215 -53 219 0H173Z" />
<glyph unicode="-" glyph-name="hyphen" d="M110 218V315H391V218H110Z" />
<glyph unicode="." glyph-name="period" d="M175 0V145H320V0H175Z" />
<glyph unicode="/" glyph-name="slash" d="M2 -11L416 717L498 669L84 -60L2 -11Z" />
<glyph unicode="0" glyph-name="zero" d="M40 490T92 567T249 644T406 567T459 319T406 69T249 -10T93 68T40 318ZM249 81Q304 81 328 131T353 318T329 504T249 552T171 505T148 341T159 172T192 100T249 81Z" />
<glyph unicode="1" glyph-name="one" d="M474 0H69V92H234L233 529L78 459L42 543L247 635H327V92H474V0Z" />
<glyph unicode="2" glyph-name="two" d="M444 459Q444 403 420 356T358 276Q322 243 284 215Q187 142 169 97H468V0H53V89Q73 139 111 182Q148 226 186 256L260 314Q340 380 339 459Q339 503 313 527T248 552T176 536T93 484L42 559Q88 593 143 618T240 643Q328
643 386 597T444 459Z" />
<glyph unicode="3" glyph-name="three" d="M139 271L126 359L201 370Q331 390 331 480Q331 521 305 535T232 549T86 505L52 591Q92 610 148 626T239 643Q327 643 382 606T438 485Q438 420 410 391Q394 374 382 366T341 341V337Q464 307 464 175Q464 -10 237 -10Q146
-10 39 33L71 122Q169 84 237 84Q355 84 355 171Q355 284 245 284L139 271Z" />
<glyph unicode="4" glyph-name="four" d="M474 199V106H400V-10H301V106H37V195L185 634H286L144 199H301V389H400V199H474Z" />
<glyph unicode="5" glyph-name="five" d="M367 425T417 366T468 208T404 50T243 -11T34 35L66 124Q179 84 235 84T326 117T360 207T333 296T250 328T139 286L71 306L81 634H452V542H172L167 400Q211 425 263 425Q367 425 417 366Z" />
<glyph unicode="6" glyph-name="six" d="M352 407T412 354T473 201T413 46T255 -11T95 50T33 222Q33 367 111 467T359 651L400 557Q300 508 252 472T165 378Q201 407 276 407ZM302 80T337 110T372 202T338 290T257 315T174 286T136 209Q136 137 171 109T254 80Z" />
<glyph unicode="7" glyph-name="seven" d="M31 488L57 634H452V542Q446 516 410 452L338 322Q301 256 269 165T235 0H133Q133 77 161 165Q190 253 224 317L292 446Q326 511 331 542H133L117 484L31 488Z" />
<glyph unicode="8" glyph-name="eight" d="M39 176Q39 226 69 267T148 324Q50 366 50 465Q50 544 102 593T253 643T402 594T453 465Q453 413 428 377T358 326Q466 291 466 176Q466 90 409 40T249 -10T93 42T39 176ZM200 279T172 252T144 178T172 106T253 79T333
105T361 178T333 252T253 279ZM153 507T153 465T177 396T252 368T326 394T351 465Q351 556 252 556Q202 556 178 532Z" />
<glyph unicode="9" glyph-name="nine" d="M158 235T102 283T46 431T103 586T261 642T420 583T477 410Q477 266 375 123Q345 82 324 58Q324 58 279 10Q255 -14 254 -17L139 2Q143 7 181 48T238 111Q299 183 339 257Q295 235 238 235Q158 235 102 283ZM215 551T182
524T149 435T183 351T263 327T343 354T377 435Q377 551 262 551Q215 551 182 524Z" />
<glyph unicode=":" glyph-name="colon" d="M175 0V145H320V0H175ZM175 290V435H320V290H175Z" />
<glyph unicode=";" glyph-name="semicolon" d="M173 289V434H315V289H173ZM173 0V145H315V30Q315 -61 233 -143L172 -112Q215 -53 219 0H173Z" />
<glyph unicode="&lt;" glyph-name="less" d="M466 466L134 289L460 120L411 33L44 223V350L420 550L466 466Z" />
<glyph unicode="=" glyph-name="equal" d="M35 217H464V123H35V217ZM35 385H464V291H35V385Z" />
<glyph unicode="&gt;" glyph-name="greater" d="M376 289L44 466L90 550L466 350V223L99 33L50 120L376 289Z" />
<glyph unicode="?" glyph-name="question" d="M195 -6V117H310V-6H195ZM447 517Q447 493 444 474T422 422T368 354Q368 354 346 333Q332 320 327 315L314 301Q293 279 291 267T289 242T296 187L203 181Q190 207 190 249T206 320T267 391T324 452T340 482T342 523T318
572T266 591T202 580T142 548L101 629Q138 658 183 671T263 685Q341 685 394 645T447 517Z" />
<glyph unicode="@" glyph-name="at" d="M30 214Q30 359 102 441T304 523Q348 523 388 515T446 499L464 491V39Q406 13 323 13T205 60T171 209T209 355T323 399Q351 399 376 394V447Q347 453 304 453Q218 453 166 392T114 204Q114 -46 308 -46Q375 -46 444 -23L462
-90Q389 -115 307 -115Q171 -115 101 -36T30 214ZM272 149T285 123T326 97T376 104V312Q355 315 326 315T285 293T272 210Z" />
<glyph unicode="A" glyph-name="A" d="M0 0L159 655H346L500 0H390L359 125H137L108 0H0ZM337 218L263 562H241L158 218H337Z" />
<glyph unicode="B" glyph-name="B" d="M45 0V655H246Q464 655 464 485Q464 430 436 390T360 340Q416 332 447 292T480 186Q480 0 237 0H45ZM318 90T346 119T374 196T344 267T247 289H149V90H252Q318 90 346 119ZM362 477Q362 565 253 565H149V379H245Q362 379 362 477Z" />
<glyph unicode="C" glyph-name="C" d="M446 107L464 20Q362 -10 293 -10T181 6T106 60Q40 137 40 334Q40 665 282 665Q366 665 451 636L429 551Q351 572 284 572T181 520T146 332T174 139T280 82T446 107Z" />
<glyph unicode="D" glyph-name="D" d="M38 0V655H194Q273 655 321 642T404 593T452 494T466 314T438 126T352 28T192 0H38ZM343 159T351 204T360 328T353 452T324 523T268 557T174 565H142V90H172Q230 90 263 98T320 133Z" />
<glyph unicode="E" glyph-name="E" d="M60 0V655H443V561H164V379H416V289H164V94H446V0H60Z" />
<glyph unicode="F" glyph-name="F" d="M64 0V655H448V561H168V339H407V249H168V0H64Z" />
<glyph unicode="G" glyph-name="G" d="M139 -9T81 70T22 326T82 584T272 665Q374 665 456 637L438 548Q368 572 272 572Q193 572 161 515T128 331T162 146T266 87Q315 87 369 100V255H276V347H469V25Q374 -9 266 -9Q139 -9 81 70Z" />
<glyph unicode="H" glyph-name="H" d="M32 0V655H137V373H364V655H469V0H364V279H137V0H32Z" />
<glyph unicode="I" glyph-name="I" d="M72 0V93H201V562H72V655H425V562H305V93H425V0H72Z" />
<glyph unicode="J" glyph-name="J" d="M331 561V215Q331 79 307 34T196 -11Q140 -11 44 16L62 101Q109 87 156 81T215 99T227 217V561H76V655H393V561H331Z" />
<glyph unicode="K" glyph-name="K" d="M360 655H473Q372 455 293 337Q322 292 368 208L480 0H367Q266 195 212 281L150 275V0H49V655H150V370L204 378Q270 480 337 610L360 655Z" />
<glyph unicode="L" glyph-name="L" d="M439 94V0H68V655H172V94H439Z" />
<glyph unicode="M" glyph-name="M" d="M21 0V655H120L246 313H254L380 655H479V0H385L388 443H384L299 222H201L116 443H112L115 0H21Z" />
<glyph unicode="N" glyph-name="N" d="M375 0V87L128 493H125V0H31V655H125L371 245H375V655H469V0H375Z" />
<glyph unicode="O" glyph-name="O" d="M129 -10T77 74T25 331T78 585T252 665T424 586T475 330T424 71T251 -10ZM319 84T344 135T369 331T345 523T253 571T158 519T131 334T155 142T249 84Z" />
<glyph unicode="P" glyph-name="P" d="M248 210H149V0H45V655H251Q365 655 417 603T470 438Q470 210 248 210ZM235 563H149V305H235Q302 305 333 336T364 438T333 535T235 563Z" />
<glyph unicode="Q" glyph-name="Q" d="M425 -73L355 11Q311 -10 250 -10Q130 -10 78 72T25 332T75 587T249 665T424 587T475 331T423 71L478 -4L425 -73ZM129 212T154 147T250 81Q271 81 284 85L247 122L296 205L348 153Q371 210 371 336Q372 474 340 526Q328
546 305 560T250 574T196 561T161 527T140 473Q128 422 128 317Z" />
<glyph unicode="R" glyph-name="R" d="M248 239Q194 236 188 236H141V0H37V655H243Q352 655 408 607T464 445Q464 315 352 262Q421 131 468 0H356Q311 121 248 239ZM223 563H141V332H224Q358 332 358 445Q358 508 326 535T223 563Z" />
<glyph unicode="S" glyph-name="S" d="M42 480Q42 665 264 665Q342 665 442 630L419 539Q317 571 259 571T174 552T148 482Q148 448 177 425T275 383Q380 355 419 311T458 180Q458 -9 232 -9Q157 -9 43 23L64 118Q64 117 95 109Q192 84 245 84T325 111T352 179T330
242T247 281Q139 311 91 355T42 480Z" />
<glyph unicode="T" glyph-name="T" d="M28 561V655H470V561H301V0H197V561H28Z" />
<glyph unicode="U" glyph-name="U" d="M26 220V655H131V232Q131 155 156 120Q180 85 248 85T342 119T368 232V655H473V220Q473 103 423 47T246 -9T73 48T26 220Z" />
<glyph unicode="V" glyph-name="V" d="M13 655H130L253 105L373 655H489L329 0H175L13 655Z" />
<glyph unicode="W" glyph-name="W" d="M57 0L0 655H100L144 92H150L212 383H301L360 92H367L402 655H499L454 0H302L256 258H253L205 0H57Z" />
<glyph unicode="X" glyph-name="X" d="M238 250L132 0H9L170 336L17 655H142L243 415H247L347 655H469L315 336L485 0H358L241 250H238Z" />
<glyph unicode="Y" glyph-name="Y" d="M302 283V0H198V283L0 655H116L246 380H254L384 655H500L302 283Z" />
<glyph unicode="Z" glyph-name="Z" d="M64 561V655H437V573L192 94H452V0H61V71L312 561H64Z" />
<glyph unicode="[" glyph-name="bracketleft" d="M166 -156V793H380V699H271V-62H380V-156H166Z" />
<glyph unicode="\" glyph-name="backslash" d="M2 669L84 717L498 -11L416 -60L2 669Z" />
<glyph unicode="]" glyph-name="bracketright" d="M120 -156V-62H229V699H120V793H334V-156H120Z" />
<glyph unicode="_" glyph-name="underscore" d="M0 -176V-85H500V-176H0Z" />
<glyph unicode="a" glyph-name="a" d="M216 86Q244 86 278 99T332 128V198Q272 203 234 203Q151 203 151 141Q151 86 216 86ZM200 -11Q40 -11 40 141Q40 222 91 254T234 287Q277 287 332 282Q332 342 315 364T256 386T158 376T72 356L53 451Q158 483 258 483T396
439T435 290V87L446 -1L343 -11L333 35Q249 -11 200 -11Z" />
<glyph unicode="b" glyph-name="b" d="M57 0V667H160V440Q222 483 276 483Q380 483 426 423T472 234T416 48T266 -11Q223 -11 159 20L157 0H57ZM263 386Q214 386 160 341V116Q220 86 268 86T338 122T361 235Q361 386 263 386Z" />
<glyph unicode="c" glyph-name="c" d="M431 465L416 369Q350 387 288 387T198 353T170 242T194 126T285 85T416 103L431 7Q361 -13 282 -13Q59 -13 59 236T281 485Q364 485 431 465Z" />
<glyph unicode="d" glyph-name="d" d="M456 667V83L466 0L365 -10L356 36Q291 -11 229 -11Q136 -11 89 43T42 228T99 420T247 483Q300 483 354 460V667H456ZM236 85Q289 85 354 139V362Q302 387 252 387Q153 387 153 228Q153 85 236 85Z" />
<glyph unicode="e" glyph-name="e" d="M49 358T103 420T253 483T401 427T456 261L452 187H160Q169 79 268 79Q337 79 414 104L435 17Q403 6 352 -2T268 -11Q49 -11 49 237Q49 358 103 420ZM257 390Q210 390 187 363T160 271H345Q345 390 257 390Z" />
<glyph unicode="f" glyph-name="f" d="M163 385H65V475H163Q163 585 199 632T322 680Q381 680 452 663L436 572Q374 586 332 586T277 561T263 475H434V385H263V90H436V0H61V90H163V385Z" />
<glyph unicode="g" glyph-name="g" d="M456 115L459 -23Q459 -109 401 -155T244 -201T52 -168L77 -76Q167 -106 226 -106T320 -86T356 -24Q356 -16 355 7T353 44Q289 -1 229 -1Q137 -1 89 56T41 237T95 421T245 481Q266 481 298 471T353 449L355 478H456V115ZM236
94Q287 94 353 144V350Q296 386 248 386Q152 386 152 240T236 94Z" />
<glyph unicode="h" glyph-name="h" d="M159 350V0H56V667H159V447Q240 483 286 483Q372 483 407 433T443 287V0H340V289Q340 331 324 358T280 386Q231 386 159 350Z" />
<glyph unicode="i" glyph-name="i" d="M103 381V473H317V92H428V0H95V92H214V381H103ZM198 580T198 606T216 650Q234 668 260 668T304 651T322 606T304 560T261 541T217 560Z" />
<glyph unicode="j" glyph-name="j" d="M352 475V-10Q352 -100 308 -146Q274 -182 189 -198Q115 -212 99 -211L87 -115Q189 -100 219 -84T249 -10V385H132V475H352ZM269 551T251 570T233 615T251 659T296 678T340 660T357 616T340 570T296 551Z" />
<glyph unicode="k" glyph-name="k" d="M365 475H476Q364 293 330 253Q349 226 377 181L485 0H366L319 84Q272 168 250 203L180 195V0H77V667H180V284L248 291Q274 325 319 399T365 475Z" />
<glyph unicode="l" glyph-name="l" d="M99 575L98 666L311 667V90H423V0H95V90H208V576L99 575Z" />
<glyph unicode="m" glyph-name="m" d="M121 475L124 448Q162 483 198 483Q249 483 275 445Q327 483 367 483Q427 483 452 448T478 318V0H376V274Q376 366 360 380Q352 388 337 388T299 368Q304 345 304 274V163H203V274Q203 365 192 380Q186 388 172 388T128 366V0H23V475H121Z"
/>
<glyph unicode="n" glyph-name="n" d="M156 475L158 446Q239 483 285 483Q366 483 404 436T443 287V0H340V284Q340 332 323 359T270 386T159 351V0H56V475H156Z" />
<glyph unicode="o" glyph-name="o" d="M144 483T250 483T407 423T458 236T407 49T250 -13T93 48T42 236T93 422ZM153 316T153 236T174 120T250 84T326 120T347 236T327 351T250 386T174 351Z" />
<glyph unicode="p" glyph-name="p" d="M57 -192V389L51 475L151 482L157 438Q224 483 276 483Q377 483 424 424T472 238T414 51T249 -11Q213 -11 160 10V-192H57ZM272 387Q226 387 160 343V105Q208 84 247 84Q361 84 361 236T272 387Z" />
<glyph unicode="q" glyph-name="q" d="M457 481V-190H354V29Q330 12 294 1T234 -10Q135 -10 89 48T42 230T95 418T243 483Q308 483 357 454L361 481H457ZM153 154T174 119T247 84T354 131V360Q308 387 245 387Q153 387 153 228Q153 154 174 119Z" />
<glyph unicode="r" glyph-name="r" d="M81 383V475H261L263 427Q295 445 346 461T442 483V383Q403 379 349 362T263 327V90H409V0H81V92H158V383H81Z" />
<glyph unicode="s" glyph-name="s" d="M63 22L85 113Q180 83 236 83T312 94Q332 104 332 130T314 167T246 190Q147 214 108 243T69 340Q69 483 253 483Q332 483 436 457L417 362Q318 390 264 390T192 381T173 348T191 315T287 283T400 235T436 141Q436 -10 250
-10Q163 -10 63 22Z" />
<glyph unicode="t" glyph-name="t" d="M140 383H64V475H140V589L243 599V475H421V383H243V182Q243 127 254 105Q266 83 306 83T412 99L429 9Q353 -11 299 -11Q203 -11 172 32T140 182V383Z" />
<glyph unicode="u" glyph-name="u" d="M340 0L338 35Q258 -10 208 -10Q127 -10 90 36T53 185V475H156V191Q156 88 223 88Q276 88 337 129V475H440V0H340Z" />
<glyph unicode="v" glyph-name="v" d="M33 475H143L244 91H262L359 475H468L341 0H163L33 475Z" />
<glyph unicode="w" glyph-name="w" d="M401 475H501L449 0H280L254 217H245L226 0H53L-2 475H102L141 92H152L175 319H325L352 92H364L401 475Z" />
<glyph unicode="x" glyph-name="x" d="M30 476H159L250 316L340 476H466L321 241L476 -1H348L250 164L153 -1H25L182 241L30 476Z" />
<glyph unicode="y" glyph-name="y" d="M29 475H141L256 89H264L361 475H470L338 12Q317 -62 299 -101T249 -166T178 -198T68 -206V-113Q129 -113 158 -100T198 -59L204 -44L29 475Z" />
<glyph unicode="z" glyph-name="z" d="M81 383V475H420L426 392L213 92H427V0H77L69 72L287 383H81Z" />
<glyph unicode="{" glyph-name="braceleft" d="M104 285V368L194 407Q194 491 189 577T184 694Q184 793 282 793H390V713H323Q294 713 284 704T273 664T278 541T283 364L197 330V322L283 289Q283 215 278 113T273 -23T284 -66T323 -76H390V-156H282Q184 -156 184
-57Q184 -17 189 75T194 242L104 285Z" />
<glyph unicode="|" glyph-name="bar" d="M302 743V-244H199V743H302Z" />
<glyph unicode="}" glyph-name="braceright" d="M104 -156V-76H171Q199 -76 210 -67T221 -23T216 113T211 289L297 322V330L211 364Q211 447 216 541Q221 634 221 664T211 703T171 713H104V793H212Q310 793 310 694Q310 664 305 578T300 407L390 368V285L300 242Q300
168 305 76T310 -57Q310 -156 212 -156H104Z" />
<glyph unicode="~" glyph-name="asciitilde" d="M403 332L469 282Q402 193 337 193Q298 194 243 227T174 260Q137 260 94 207L35 259Q105 349 173 349Q213 349 264 317Q316 285 334 285T367 296T403 332Z" />
<glyph unicode="&#xa1;" glyph-name="exclamdown" d="M318 502V365H184V502H318ZM300 308L311 -159H192L204 308H300Z" />
<glyph unicode="&#xa2;" glyph-name="cent" d="M59 237Q59 347 100 405T226 477V549H328V478Q380 474 416 465L428 462L405 369Q341 388 279 388T190 355T164 240T192 121T282 83T416 101L431 12Q385 -2 328 -7V-72H226V-6Q59 20 59 237Z" />
<glyph unicode="&#xa3;" glyph-name="sterling" d="M46 293V383H100Q77 434 77 472Q77 561 129 613T283 666Q344 666 417 647L401 559Q342 575 282 575Q176 575 176 472Q176 414 194 383H389V293H229Q247 258 247 223T225 157T181 111L159 95L162 91Q207 106 225
106T282 92T345 78Q390 78 422 99L432 106L465 25Q418 -11 345 -11Q318 -11 275 2T199 15Q142 16 88 -4L70 -11L39 78L68 98Q86 110 115 146T144 212Q144 266 128 293H46Z" />
<glyph unicode="&#xa4;" glyph-name="currency" d="M154 538Q242 586 342 538L412 616L481 561L411 480Q453 430 453 358T413 236L485 152L415 96L344 176Q286 149 247 149T154 176L82 95L10 152L82 236Q41 287 41 359T83 480L14 561L83 616L154 538ZM130 408T130
356T163 273T243 241T331 275Q363 308 363 359T329 442T247 475T165 442Z" />
<glyph unicode="&#xa5;" glyph-name="yen" d="M50 381H164L-1 655H118L251 415L386 655H499L335 381H449V291H301V238H449V148H301V0H199V148H50V238H199V291H50V381Z" />
<glyph unicode="&#xa6;" glyph-name="brokenbar" d="M301 196V-244H198V196H301ZM301 743V303H198V743H301Z" />
<glyph unicode="&#xa7;" glyph-name="section" d="M69 336Q69 376 107 416Q63 452 63 527Q63 671 259 671Q323 671 410 642L388 556Q314 582 260 582T186 571T166 532T183 489T257 457Q357 429 391 399T426 315T397 230Q432 202 432 136T382 30T246 -10T72 16L93
110Q194 83 236 83T297 93T320 114T325 141Q325 161 269 175Q253 179 244 182Q139 212 104 243T69 336ZM184 380Q167 363 167 341T186 306T268 275L315 262Q328 279 328 311Q328 341 238 364Q201 373 184 380Z" />
<glyph unicode="&#xa9;" glyph-name="copyright" d="M130 -6T70 66T10 271T72 476T251 549Q490 549 490 270Q490 133 426 64T246 -6ZM71 270Q71 156 117 105T251 54T383 103T427 270T385 439T252 489Q71 489 71 270ZM192 127T162 158T131 271T158 388T253 423Q295
423 343 407L327 344Q291 356 260 356T217 339T205 274T217 210T262 194Q282 194 316 203L327 206L343 143Q302 127 261 127Q192 127 162 158Z" />
<glyph unicode="&#xaa;" glyph-name="ordfeminine" d="M120 456Q120 507 150 528T241 550Q269 550 290 547Q289 573 281 583Q274 593 252 593T194 586T139 572L125 642Q198 664 258 664T343 637T368 542V424L375 365L298 357L293 379Q257 358 221 358Q120 358
120 456ZM200 483T200 456T230 429T290 453V481Q262 483 241 483Q200 483 200 456Z" />
<glyph unicode="&#xab;" glyph-name="guillemotleft" d="M30 267L260 431V317L114 227L260 135V21L30 187V267ZM242 267L472 431V317L326 227L472 135V21L242 187V267Z" />
<glyph unicode="&#xac;" glyph-name="logicalnot" d="M36 477H468V231H364V373H36V477Z" />
<glyph unicode="&#xae;" glyph-name="registered" d="M135 192T68 259T0 441T67 622T251 689T433 625T500 443T433 258T251 192ZM60 633T60 441T249 249T439 441T250 633ZM156 311V583H233Q294 583 325 563T357 487T311 412Q330 383 352 327L358 311H292Q273 361
249 401H217V311H156ZM266 453T279 460T293 491T280 521T230 526H217V453H227Q266 453 279 460Z" />
<glyph unicode="&#xb0;" glyph-name="degree" d="M108 498T108 557T149 654T251 693T351 655T391 557T351 459T250 420T148 459ZM277 490T296 508T315 557T298 606T250 624T202 606T184 558T201 509T248 490Z" />
<glyph unicode="&#xb1;" glyph-name="plusminus" d="M460 273H300V146H200V273H40V366H200V502H300V366H460V273ZM460 19H40V111H460V19Z" />
<glyph unicode="&#xb5;" glyph-name="mu" d="M56 -49V475H159V184Q159 89 218 89Q288 89 341 128V475H444V0H344L342 29Q262 -10 225 -10T166 0T137 21L146 -33V-54Q146 -141 111 -199L36 -165Q49 -133 52 -114T56 -49Z" />
<glyph unicode="&#xb6;" glyph-name="paragraph" d="M455 0H402V634H455V0ZM295 0H242V198Q129 206 85 255T41 413T85 577T242 634H295V0ZM242 247V584Q153 583 123 544Q93 504 93 414T124 290T242 247Z" />
<glyph unicode="&#xb7;" glyph-name="middot" d="M182 264T182 300T199 357T248 379T296 358T313 300Q313 225 247 225Q217 225 200 244Z" />
<glyph unicode="&#xba;" glyph-name="ordmasculine" d="M178 354T143 394T107 510T142 625T243 665T343 626T378 511T343 395T243 354ZM300 424T300 509T243 595T185 510T242 424Z" />
<glyph unicode="&#xbb;" glyph-name="guillemotright" d="M242 431L472 267V187L242 21V135L388 227L242 317V431ZM30 431L260 267V187L30 21V135L176 227L30 317V431Z" />
<glyph unicode="&#xbf;" glyph-name="questiondown" d="M329 489V366H214V489H329ZM77 -34Q77 -10 80 9T102 61T156 129Q156 129 178 150Q192 163 197 168L210 182Q231 204 233 216T235 241T228 296L321 302Q334 276 334 234T318 163T257 92T200 31T184 1T182
-40T206 -89T258 -108T322 -97T382 -65L423 -146Q386 -175 341 -188T261 -202Q183 -202 130 -162T77 -34Z" />
<glyph unicode="&#xc0;" glyph-name="Agrave" d="M156 901L359 813L327 735L120 819L156 901ZM0 0L159 655H346L500 0H390L359 125H137L108 0H0ZM337 218L263 562H241L158 218H337Z" />
<glyph unicode="&#xc1;" glyph-name="Aacute" d="M156 812L361 900L395 818L189 734L156 812ZM0 0L159 655H346L500 0H390L359 125H137L108 0H0ZM337 218L263 562H241L158 218H337Z" />
<glyph unicode="&#xc2;" glyph-name="Acircumflex" d="M87 742L213 882H293L419 742H321L253 822L185 742H87ZM0 0L159 655H346L500 0H390L359 125H137L108 0H0ZM337 218L263 562H241L158 218H337Z" />
<glyph unicode="&#xc3;" glyph-name="Atilde" d="M373 870L414 814Q365 761 318 761Q283 761 245 782Q208 804 186 804T131 773L86 828Q145 885 192 885Q225 885 264 864Q304 843 324 843T373 870ZM0 0L159 655H346L500 0H390L359 125H137L108 0H0ZM337 218L263
562H241L158 218H337Z" />
<glyph unicode="&#xc4;" glyph-name="Adieresis" d="M97 789T97 812T113 852T153 869T192 852T209 812T193 772T153 755T113 772ZM290 789T290 812T306 852T346 869T386 852T402 812T386 772T346 755T306 772ZM0 0L159 655H346L500 0H390L359 125H137L108 0H0ZM337
218L263 562H241L158 218H337Z" />
<glyph unicode="&#xc5;" glyph-name="Aring" d="M303 929T336 899T369 819T336 738T250 708T163 738T130 818T163 899T249 929ZM199 863T199 818T249 773T299 818T249 863ZM0 0L159 655H346L500 0H390L359 125H137L108 0H0ZM337 218L263 562H241L158 218H337Z" />
<glyph unicode="&#xc6;" glyph-name="AE" d="M0 0L154 655H478V561H357V379H451V289H357V94H481V0H253V125H137L108 0H0ZM253 218V562H236L158 218H253Z" />
<glyph unicode="&#xc7;" glyph-name="Ccedilla" d="M310 -42T341 -69T373 -148T343 -228T261 -257Q240 -257 200 -250L208 -187Q243 -190 254 -190Q299 -190 299 -148Q299 -126 289 -117T254 -108L212 -111L203 -50Q235 -42 261 -42Q310 -42 341 -69ZM446 107L464
20Q362 -10 293 -10T181 6T106 60Q40 137 40 334Q40 665 282 665Q366 665 451 636L429 551Q351 572 284 572T181 520T146 332T174 139T280 82T446 107Z" />
<glyph unicode="&#xc8;" glyph-name="Egrave" d="M165 901L368 813L336 735L129 819L165 901ZM60 0V655H443V561H164V379H416V289H164V94H446V0H60Z" />
<glyph unicode="&#xc9;" glyph-name="Eacute" d="M140 812L345 900L379 818L173 734L140 812ZM60 0V655H443V561H164V379H416V289H164V94H446V0H60Z" />
<glyph unicode="&#xca;" glyph-name="Ecircumflex" d="M87 752L213 882H293L419 752H321L253 822L185 752H87ZM60 0V655H443V561H164V379H416V289H164V94H446V0H60Z" />
<glyph unicode="&#xcb;" glyph-name="Edieresis" d="M97 789T97 812T113 852T153 869T192 852T209 812T193 772T153 755T113 772ZM290 789T290 812T306 852T346 869T386 852T402 812T386 772T346 755T306 772ZM60 0V655H443V561H164V379H416V289H164V94H446V0H60Z" />
<glyph unicode="&#xcc;" glyph-name="Igrave" d="M159 901L362 813L330 735L123 819L159 901ZM72 0V93H201V562H72V655H425V562H305V93H425V0H72Z" />
<glyph unicode="&#xcd;" glyph-name="Iacute" d="M133 812L338 900L372 818L166 734L133 812ZM72 0V93H201V562H72V655H425V562H305V93H425V0H72Z" />
<glyph unicode="&#xce;" glyph-name="Icircumflex" d="M87 742L213 882H293L419 742H321L253 822L185 742H87ZM72 0V93H201V562H72V655H425V562H305V93H425V0H72Z" />
<glyph unicode="&#xcf;" glyph-name="Idieresis" d="M97 789T97 812T113 852T153 869T192 852T209 812T193 772T153 755T113 772ZM290 789T290 812T306 852T346 869T386 852T402 812T386 772T346 755T306 772ZM72 0V93H201V562H72V655H425V562H305V93H425V0H72Z" />
<glyph unicode="&#xd0;" glyph-name="Eth" d="M50 0V270H8V367H50V655H194Q273 655 321 642T404 593T452 494T466 314T438 126T352 28T192 0H50ZM343 159T351 204T360 328T353 452T324 523T268 557T174 565H154V367H245V270H154V90H172Q230 90 263 98T320 133Z" />
<glyph unicode="&#xd1;" glyph-name="Ntilde" d="M373 870L414 814Q365 761 318 761Q283 761 245 782Q208 804 186 804T131 773L86 828Q145 885 192 885Q225 885 264 864Q304 843 324 843T373 870ZM375 0V87L128 493H125V0H31V655H125L371 245H375V655H469V0H375Z" />
<glyph unicode="&#xd2;" glyph-name="Ograve" d="M168 901L371 813L339 735L132 819L168 901ZM129 -10T77 74T25 331T78 585T252 665T424 586T475 330T424 71T251 -10ZM319 84T344 135T369 331T345 523T253 571T158 519T131 334T155 142T249 84Z" />
<glyph unicode="&#xd3;" glyph-name="Oacute" d="M147 812L352 900L386 818L180 734L147 812ZM129 -10T77 74T25 331T78 585T252 665T424 586T475 330T424 71T251 -10ZM319 84T344 135T369 331T345 523T253 571T158 519T131 334T155 142T249 84Z" />
<glyph unicode="&#xd4;" glyph-name="Ocircumflex" d="M87 752L213 882H293L419 752H321L253 822L185 752H87ZM129 -10T77 74T25 331T78 585T252 665T424 586T475 330T424 71T251 -10ZM319 84T344 135T369 331T345 523T253 571T158 519T131 334T155 142T249 84Z" />
<glyph unicode="&#xd5;" glyph-name="Otilde" d="M373 870L414 814Q365 761 318 761Q283 761 245 782T186 804T131 773L86 828Q145 885 192 885Q225 885 264 864T323 843T373 870ZM129 -10T77 74T25 331T78 585T252 665T424 586T475 330T424 71T251 -10ZM319 84T344
135T369 331T345 523T253 571T158 519T131 334T155 142T249 84Z" />
<glyph unicode="&#xd6;" glyph-name="Odieresis" d="M97 789T97 812T113 852T153 869T192 852T209 812T193 772T153 755T113 772ZM290 789T290 812T306 852T346 869T386 852T402 812T386 772T346 755T306 772ZM129 -10T77 74T25 331T78 585T252 665T424 586T475
330T424 71T251 -10ZM319 84T344 135T369 331T345 523T253 571T158 519T131 334T155 142T249 84Z" />
<glyph unicode="&#xd7;" glyph-name="multiply" d="M384 90L247 227L111 90L40 159L177 297L39 434L112 503L247 367L384 502L455 434L318 297L454 160L384 90Z" />
<glyph unicode="&#xd8;" glyph-name="Oslash" d="M72 83Q25 164 25 334T78 585T250 665Q334 665 384 628L405 665L466 631L432 572Q475 493 475 323T424 71T250 -10Q169 -10 120 27L99 -10L38 23L72 83ZM185 571T158 519T131 358T139 200L333 540Q309 571 247
571ZM369 334Q369 404 363 452L171 116Q197 84 250 84Q319 84 344 135T369 334Z" />
<glyph unicode="&#xd9;" glyph-name="Ugrave" d="M157 901L360 813L328 735L121 819L157 901ZM26 220V655H131V232Q131 155 156 120Q180 85 248 85T342 119T368 232V655H473V220Q473 103 423 47T246 -9T73 48T26 220Z" />
<glyph unicode="&#xda;" glyph-name="Uacute" d="M151 812L356 900L390 818L184 734L151 812ZM26 220V655H131V232Q131 155 156 120Q180 85 248 85T342 119T368 232V655H473V220Q473 103 423 47T246 -9T73 48T26 220Z" />
<glyph unicode="&#xdb;" glyph-name="Ucircumflex" d="M87 752L213 882H293L419 752H321L253 822L185 752H87ZM26 220V655H131V232Q131 155 156 120Q180 85 248 85T342 119T368 232V655H473V220Q473 103 423 47T246 -9T73 48T26 220Z" />
<glyph unicode="&#xdc;" glyph-name="Udieresis" d="M97 789T97 812T113 852T153 869T192 852T209 812T193 772T153 755T113 772ZM290 789T290 812T306 852T346 869T386 852T402 812T386 772T346 755T306 772ZM26 220V655H131V232Q131 155 156 120Q180 85 248
85T342 119T368 232V655H473V220Q473 103 423 47T246 -9T73 48T26 220Z" />
<glyph unicode="&#xdd;" glyph-name="Yacute" d="M148 779L329 880L372 793L188 706L148 779ZM302 283V0H198V283L0 655H116L246 380H254L384 655H500L302 283Z" />
<glyph unicode="&#xde;" glyph-name="Thorn" d="M143 115V0H44V655H143V550H224Q281 550 325 526T392 464T425 379T424 287T389 202T322 139T222 115H143ZM204 460H143V205H202Q246 205 276 231T313 295T314 369T278 433T204 460Z" />
<glyph unicode="&#xdf;" glyph-name="germandbls" d="M26 0V469Q26 561 81 613T239 665Q439 665 439 517V398Q353 393 307 383Q276 376 276 350T287 313T337 285Q432 247 458 220T484 126T445 25T319 -10T169 10L192 101Q244 82 296 82T363 93T378 133Q378 147
363 156T307 182Q225 214 199 247T172 345Q172 463 307 476L338 479V505Q338 572 239 572Q182 572 156 548T129 466V0H26Z" />
<glyph unicode="&#xe0;" glyph-name="agrave" d="M216 86Q244 86 278 99T332 128V198Q272 203 234 203Q151 203 151 141Q151 86 216 86ZM200 -11Q40 -11 40 141Q40 222 91 254T234 287Q277 287 332 282Q332 342 315 364T256 386T158 376T72 356L53 451Q158 483
258 483T396 439T435 290V87L446 -1L343 -11L333 35Q249 -11 200 -11ZM181 735L362 634L322 561L138 648L181 735Z" />
<glyph unicode="&#xe1;" glyph-name="aacute" d="M216 86Q244 86 278 99T332 128V198Q272 203 234 203Q151 203 151 141Q151 86 216 86ZM200 -11Q40 -11 40 141Q40 222 91 254T234 287Q277 287 332 282Q332 342 315 364T256 386T158 376T72 356L53 451Q158 483
258 483T396 439T435 290V87L446 -1L343 -11L333 35Q249 -11 200 -11ZM125 634L306 735L349 648L165 561L125 634Z" />
<glyph unicode="&#xe2;" glyph-name="acircumflex" d="M216 86Q244 86 278 99T332 128V198Q272 203 234 203Q151 203 151 141Q151 86 216 86ZM200 -11Q40 -11 40 141Q40 222 91 254T234 287Q277 287 332 282Q332 342 315 364T256 386T158 376T72 356L53 451Q158
483 258 483T396 439T435 290V87L446 -1L343 -11L333 35Q249 -11 200 -11ZM297 745L405 588H303L250 674L197 588H95L203 745H297Z" />
<glyph unicode="&#xe3;" glyph-name="atilde" d="M216 86Q244 86 278 99T332 128V198Q272 203 234 203Q151 203 151 141Q151 86 216 86ZM200 -11Q40 -11 40 141Q40 222 91 254T234 287Q277 287 332 282Q332 342 315 364T256 386T158 376T72 356L53 451Q158 483
258 483T396 439T435 290V87L446 -1L343 -11L333 35Q249 -11 200 -11ZM360 705L401 649Q352 596 305 596Q270 596 232 617T172 639T118 608L73 663Q132 720 179 720Q212 720 251 699T310 678T360 705Z" />
<glyph unicode="&#xe4;" glyph-name="adieresis" d="M216 86Q244 86 278 99T332 128V198Q272 203 234 203Q151 203 151 141Q151 86 216 86ZM200 -11Q40 -11 40 141Q40 222 91 254T234 287Q277 287 332 282Q332 342 315 364T256 386T158 376T72 356L53 451Q158
483 258 483T396 439T435 290V87L446 -1L343 -11L333 35Q249 -11 200 -11ZM97 624T97 647T113 687T153 704T192 687T209 647T193 607T153 590T113 607ZM290 624T290 647T306 687T346 704T386 687T402 647T386 607T346 590T306 607Z" />
<glyph unicode="&#xe5;" glyph-name="aring" d="M216 86Q244 86 278 99T332 128V198Q272 203 234 203Q151 203 151 141Q151 86 216 86ZM200 -11Q40 -11 40 141Q40 222 91 254T234 287Q277 287 332 282Q332 342 315 364T256 386T158 376T72 356L53 451Q158 483
257 483T396 439T435 290V87L446 -1L343 -11L333 35Q249 -11 200 -11ZM303 739T336 709T369 629T336 548T250 518T163 548T130 628T163 709T249 739ZM199 673T199 628T249 583T299 628T249 673Z" />
<glyph unicode="&#xe6;" glyph-name="ae" d="M226 14T203 2T131 -10T51 28T19 132T56 240T156 283H204Q204 359 196 381T160 404Q118 404 59 377L34 440Q106 475 153 475T222 466T259 425Q290 480 357 480T455 430T485 269L482 201H299Q300 133 315 98T371 62Q396
62 444 77L460 82L481 15Q416 -10 374 -10T308 0T255 45Q226 14 203 2ZM206 102V201H156Q128 201 112 184T95 134Q95 61 140 61Q163 61 179 71T201 92L206 102ZM404 352T394 378T356 405T313 379T297 282H404Q404 352 394 378Z" />
<glyph unicode="&#xe7;" glyph-name="ccedilla" d="M326 302V384Q303 388 281 388Q219 388 195 352T170 239T195 123T285 85T416 103L431 7Q361 -13 281 -13Q59 -13 59 237Q59 366 109 425T278 485Q354 485 424 466V302H326ZM315 -42T346 -69T378 -148T348 -228T266
-257Q245 -257 205 -250L213 -187Q248 -190 259 -190Q304 -190 304 -148Q304 -126 294 -117T259 -108L217 -111L208 -50Q240 -42 266 -42Q315 -42 346 -69Z" />
<glyph unicode="&#xe8;" glyph-name="egrave" d="M49 358T103 420T253 483T401 427T456 261L452 187H160Q169 79 268 79Q337 79 414 104L435 17Q403 6 352 -2T268 -11Q49 -11 49 237Q49 358 103 420ZM257 390Q210 390 187 363T160 271H345Q345 390 257 390ZM181
735L362 634L322 561L138 648L181 735Z" />
<glyph unicode="&#xe9;" glyph-name="eacute" d="M49 358T103 420T253 483T401 427T456 261L452 187H160Q169 79 268 79Q337 79 414 104L435 17Q403 6 352 -2T268 -11Q49 -11 49 237Q49 358 103 420ZM257 390Q210 390 187 363T160 271H345Q345 390 257 390ZM133
634L314 735L357 648L173 561L133 634Z" />
<glyph unicode="&#xea;" glyph-name="ecircumflex" d="M49 358T103 420T253 483T401 427T456 261L452 187H160Q169 79 268 79Q337 79 414 104L435 17Q403 6 352 -2T268 -11Q49 -11 49 237Q49 358 103 420ZM257 390Q210 390 187 363T160 271H345Q345 390 257 390ZM297
745L405 588H303L250 674L197 588H95L203 745H297Z" />
<glyph unicode="&#xeb;" glyph-name="edieresis" d="M49 358T103 420T253 483T401 427T456 261L452 187H160Q169 79 268 79Q337 79 414 104L435 17Q403 6 352 -2T268 -11Q49 -11 49 237Q49 358 103 420ZM257 390Q210 390 187 363T160 271H345Q345 390 257 390ZM97
624T97 647T113 687T153 704T192 687T209 647T193 607T153 590T113 607ZM290 624T290 647T306 687T346 704T386 687T402 647T386 607T346 590T306 607Z" />
<glyph unicode="&#xec;" glyph-name="igrave" d="M144 634L325 735L368 648L184 561L144 634ZM103 381V473H317V92H428V0H95V92H214V381H103Z" />
<glyph unicode="&#xed;" glyph-name="iacute" d="M103 381V473H317V92H428V0H95V92H214V381H103ZM138 634L319 735L362 648L178 561L138 634Z" />
<glyph unicode="&#xee;" glyph-name="icircumflex" d="M103 381V473H317V92H428V0H95V92H214V381H103ZM297 745L405 588H303L250 674L197 588H95L203 745H297Z" />
<glyph unicode="&#xef;" glyph-name="idieresis" d="M107 624T107 647T123 687T163 704T202 687T219 647T203 607T163 590T123 607ZM290 624T290 647T306 687T346 704T386 687T402 647T386 607T346 590T306 607ZM103 381V473H317V92H428V0H95V92H214V381H103Z" />
<glyph unicode="&#xf0;" glyph-name="eth" d="M263 556L198 498L146 548L204 603Q171 625 138 641L182 716Q227 692 269 663L331 722L386 667L329 615Q396 552 426 471T457 276Q457 122 408 55T250 -13T92 48T42 236T92 419T250 476Q294 476 329 467Q306 514 263
556ZM153 316T153 236T174 120T250 84T326 120T347 236T327 351T250 386T174 351Z" />
<glyph unicode="&#xf1;" glyph-name="ntilde" d="M158 475L160 446Q241 483 287 483Q368 483 406 436T445 287V0H342V284Q342 332 325 359T272 386T161 351V0H58V475H158ZM373 705L414 649Q365 596 318 596Q283 596 245 618Q208 639 186 639T131 608L86 663Q145
720 192 720Q225 720 264 699Q304 678 324 678T373 705Z" />
<glyph unicode="&#xf2;" glyph-name="ograve" d="M144 483T250 483T407 423T458 236T407 49T250 -13T93 48T42 236T93 422ZM153 316T153 236T174 120T250 84T326 120T347 236T327 351T250 386T174 351ZM181 735L362 634L322 561L138 648L181 735Z" />
<glyph unicode="&#xf3;" glyph-name="oacute" d="M144 483T250 483T407 423T458 236T407 49T250 -13T93 48T42 236T93 422ZM153 316T153 236T174 120T250 84T326 120T347 236T327 351T250 386T174 351ZM141 634L322 735L365 648L181 561L141 634Z" />
<glyph unicode="&#xf4;" glyph-name="ocircumflex" d="M144 483T250 483T407 423T458 236T407 49T250 -13T93 48T42 236T93 422ZM153 316T153 236T174 120T250 84T326 120T347 236T327 351T250 386T174 351ZM297 745L405 588H303L250 674L197 588H95L203 745H297Z" />
<glyph unicode="&#xf5;" glyph-name="otilde" d="M144 483T250 483T407 423T458 236T407 49T250 -13T93 48T42 236T93 422ZM153 316T153 236T174 120T250 84T326 120T347 236T327 351T250 386T174 351ZM374 705L415 649Q366 596 319 596Q284 596 246 617T186 639T132
608L87 663Q146 720 193 720Q226 720 265 699T324 678T374 705Z" />
<glyph unicode="&#xf6;" glyph-name="odieresis" d="M144 483T250 483T407 423T458 236T407 49T250 -13T93 48T42 236T93 422ZM153 316T153 236T174 120T250 84T326 120T347 236T327 351T250 386T174 351ZM97 624T97 647T113 687T153 704T192 687T209 647T193
607T153 590T113 607ZM290 624T290 647T306 687T346 704T386 687T402 647T386 607T346 590T306 607Z" />
<glyph unicode="&#xf7;" glyph-name="divide" d="M186 100T186 130T202 178T247 197T291 179T308 130T292 84T247 67T202 83ZM186 403T186 433T202 481T247 500T291 482T308 433T292 387T247 370T202 386ZM55 236V332H445V236H55Z" />
<glyph unicode="&#xf8;" glyph-name="oslash" d="M250 483Q300 483 339 469L369 521L435 482L403 426Q458 367 458 239T407 49T250 -13Q203 -13 162 0L133 -50L68 -11L98 42Q42 102 42 232T93 422T250 483ZM136 236Q136 176 152 138L294 389Q274 398 250 398Q136
398 136 236ZM307 72T335 115T364 225T349 330L207 80Q226 72 250 72Q307 72 335 115Z" />
<glyph unicode="&#xf9;" glyph-name="ugrave" d="M344 0L342 29Q339 28 324 21T304 12T288 4Q274 0 268 -2L252 -6Q233 -10 211 -11Q130 -11 93 36T56 185V475H159V191Q159 140 173 115T222 89T293 103T341 128V475H444V0H344ZM181 735L362 634L322 561L138 648L181 735Z" />
<glyph unicode="&#xfa;" glyph-name="uacute" d="M344 0L342 29Q339 28 324 21T304 12T288 4Q274 0 268 -2L252 -6Q233 -10 211 -11Q130 -11 93 36T56 185V475H159V191Q159 140 173 115T222 89T293 103T341 128V475H444V0H344ZM147 634L328 735L371 648L187 561L147 634Z" />
<glyph unicode="&#xfb;" glyph-name="ucircumflex" d="M344 0L342 29Q339 28 324 21T304 12T288 4Q274 0 268 -2L252 -6Q233 -10 211 -11Q130 -11 93 36T56 185V475H159V191Q159 140 173 115T222 89T293 103T341 128V475H444V0H344ZM297 745L405 588H303L250 674L197
588H95L203 745H297Z" />
<glyph unicode="&#xfc;" glyph-name="udieresis" d="M344 0L342 29Q339 28 324 21T304 12T288 4Q274 0 268 -2L252 -6Q233 -10 211 -11Q130 -11 93 36T56 185V475H159V191Q159 140 173 115T222 89T293 103T341 128V475H444V0H344ZM97 624T97 647T113 687T153 704T192
687T209 647T193 607T153 590T113 607ZM290 624T290 647T306 687T346 704T386 687T402 647T386 607T346 590T306 607Z" />
<glyph unicode="&#xfd;" glyph-name="yacute" d="M29 475H141L256 89H264L361 475H470L338 12Q317 -62 299 -101T249 -166T178 -198T68 -206V-113Q129 -113 158 -100T198 -59L204 -44L29 475ZM138 634L319 735L362 648L178 561L138 634Z" />
<glyph unicode="&#xfe;" glyph-name="thorn" d="M57 -192V655H157V438Q224 483 276 483Q378 483 425 424T473 239T415 52T249 -11Q213 -11 160 10V-192H57ZM272 387Q226 387 160 343V105Q208 84 247 84Q362 84 362 236T272 387Z" />
<glyph unicode="&#xff;" glyph-name="ydieresis" d="M29 475H141L256 89H264L361 475H470L338 12Q317 -62 299 -101T249 -166T178 -198T68 -206V-113Q129 -113 158 -100T198 -59L204 -44L29 475ZM97 624T97 647T113 687T153 704T192 687T209 647T193 607T153 590T113
607ZM290 624T290 647T306 687T346 704T386 687T402 647T386 607T346 590T306 607Z" />
<glyph unicode="&#x2013;" glyph-name="endash" d="M70 218V315H429V218H70Z" />
<glyph unicode="&#x2014;" glyph-name="emdash" d="M1 218V315H500V218H1Z" />
<glyph unicode="&#x2018;" glyph-name="quoteleft" d="M330 656L272 449L168 477L248 678L330 656Z" />
<glyph unicode="&#x2019;" glyph-name="quoteright" d="M169 477L227 684L331 656L251 455L169 477Z" />
<glyph unicode="&#x201c;" glyph-name="quotedblleft" d="M389 650L331 443L227 472L307 673L389 650ZM246 669L188 462L84 490L164 691L246 669Z" />
<glyph unicode="&#x201d;" glyph-name="quotedblright" d="M97 482L155 689L259 660L179 459L97 482ZM240 463L298 670L402 642L322 441L240 463Z" />
<glyph unicode="&#x2022;" glyph-name="bullet" d="M307 359V239H191V359H307Z" />
<glyph unicode="&#x2039;" glyph-name="guilsinglleft" d="M132 267L362 431V317L216 227L362 135V21L132 187V267Z" />
<glyph unicode="&#x203a;" glyph-name="guilsinglright" d="M132 431L362 267V187L132 21V135L278 227L132 317V431Z" />
</font>
</defs>
</svg>
