<?xml version="1.0" standalone="no"?>
<!DOCTYPE svg PUBLIC "-//W3C//DTD SVG 1.1//EN" "http://www.w3.org/Graphics/SVG/1.1/DTD/svg11.dtd">
<svg xmlns="http://www.w3.org/2000/svg">
<defs >
<font id="Taviraj" horiz-adv-x="514" ><font-face
    font-family="Taviraj Thin"
    units-per-em="1000"
    panose-1="0 0 2 0 0 0 0 0 0 0"
    ascent="1172"
    descent="-534"
    alphabetic="0" />
<glyph unicode=" " glyph-name="space" horiz-adv-x="245" />
<glyph unicode="!" glyph-name="exclam" horiz-adv-x="214" d="M179 643L182 659Q188 688 194 699T214 710Q230 710 230 691Q230 687 226 659L222 643L100 99H81L179 643ZM53 -10T46 -3T38 15Q38 34 50 46T81 58Q96 58 103 49T108 24Q104 8 93 -1T66 -10Q53 -10 46 -3Z" />
<glyph unicode="&quot;" glyph-name="quotedbl" horiz-adv-x="327" d="M177 662L178 666Q184 697 192 713T213 729Q228 729 228 705Q228 692 223 667L167 456H148L177 662ZM298 662L299 666Q305 697 312 713T333 729Q349 729 349 704Q349 690 344 667L287 456H268L298
662Z" />
<glyph unicode="#" glyph-name="numbersign" horiz-adv-x="780" d="M627 486L512 218H686L682 194H502L415 -10H388L475 194H245L158 -10H131L218 194H37L42 218H228L343 486H159L164 510H353L434 699H461L380 510H609L690 699H718L637 510H807L803 486H627ZM599
486H370L255 218H485L599 486Z" />
<glyph unicode="$" glyph-name="dollar" horiz-adv-x="504" d="M543 707L508 533H495Q496 540 496 554Q496 613 459 649T355 686Q271 686 222 652T160 558Q157 546 157 534Q157 500 176 475T225 431T303 386Q358 357 390 336T444 282T467 208Q467 199 463 175Q452
121 418 80T333 14T226 -10L209 -92H180L197 -8Q150 -2 116 17T62 51T41 67Q37 67 33 60T27 42L19 3H0L36 177H48L47 164Q47 124 69 90T131 35T216 14Q300 14 358 57T431 173Q434 188 434 201Q434 238 414 266T364 314T282 363Q230 392 200 412T149 462T128 529Q128
543 131 558Q145 629 203 668T344 710L360 786H389L373 709Q414 706 442 693T487 667T505 654Q514 654 516 670L524 707H543Z" />
<glyph unicode="%" glyph-name="percent" horiz-adv-x="815" d="M96 17L771 712L787 694L111 -1L96 17ZM166 334T132 369T98 467Q98 492 104 522Q122 609 175 659T306 710Q370 710 403 676T437 579Q437 552 431 522Q414 435 360 385T229 334Q166 334 132 369ZM305
361T346 409T401 522Q407 546 407 570Q407 619 382 651T301 683Q232 683 190 635T134 522Q129 497 129 476Q129 426 154 394T235 361Q305 361 346 409ZM510 -10T477 25T443 122Q443 149 449 179Q466 266 520 316T652 367Q716 367 749 332T783 235Q783 209 777 179Q759
92 705 41T574 -10Q510 -10 477 25ZM650 18T692 66T747 179Q752 204 752 225Q752 275 727 307T646 340Q576 340 535 292T480 179Q475 154 475 131Q475 82 499 50T580 18Q650 18 692 66Z" />
<glyph unicode="&amp;" glyph-name="ampersand" horiz-adv-x="672" d="M131 -10T86 26T40 127Q40 148 44 167Q54 215 85 252T155 317T258 381Q226 417 209 460T192 543Q192 561 195 574Q207 637 254 673T372 710Q430 710 461 684T492 610Q492 600 488 576Q475
511 426 467T294 375Q336 314 410 224L481 134Q553 209 593 318H622Q581 199 496 114Q527 74 581 0H542L473 93Q418 44 352 17T211 -10Q131 -10 86 26ZM358 439T403 479T459 576Q462 591 462 604Q462 644 437 666T366 688Q312 688 274 658T226 575Q223 559 223
542Q223 471 280 394Q358 439 403 479ZM284 12T345 38T460 113L441 137Q421 163 374 223T306 312T272 363Q187 316 137 273T75 170Q71 153 71 133Q71 75 113 44T220 12Q284 12 345 38Z" />
<glyph unicode="&apos;" glyph-name="quotesingle" horiz-adv-x="207" d="M177 662L178 666Q184 697 192 713T213 729Q228 729 228 705Q228 692 223 667L167 456H148L177 662Z" />
<glyph unicode="(" glyph-name="parenleft" horiz-adv-x="225" d="M35 -35T35 115Q35 190 53 274Q78 401 135 509T278 704H303Q132 513 84 275Q68 198 68 122Q68 -23 129 -148H105Q35 -35 35 115Z" />
<glyph unicode=")" glyph-name="parenright" horiz-adv-x="225" d="M42 -55T97 52T177 275Q193 354 193 432Q193 581 131 704H156Q223 588 223 436Q223 355 206 274Q154 21 -18 -148H-41Q42 -55 97 52Z" />
<glyph unicode="*" glyph-name="asterisk" horiz-adv-x="490" d="M262 338T255 345T247 367Q247 375 248 379Q251 394 255 402T268 426Q279 442 287 460T302 512Q268 495 249 479T212 443Q196 427 187 421T161 414Q149 414 141 424T135 449Q138 465 152 478T183
491Q225 491 299 526Q239 561 198 561Q184 561 175 571T166 594Q166 600 167 603Q170 617 182 627T207 638Q223 638 230 632T245 610Q255 591 268 575T308 540Q314 573 314 590Q314 611 309 626Q309 630 308 637T306 651Q306 679 318 696T351 714Q365 714 372 706T380
684Q380 677 379 673Q376 657 371 648T358 626Q346 608 339 591T324 540Q358 557 377 573T414 609Q430 625 439 631T465 638Q477 638 485 628T492 603Q488 587 474 574T444 561Q403 561 327 526Q360 507 384 499T429 491Q443 491 452 481T461 457Q461 440 447 427T419
414Q403 414 396 420T380 443Q370 462 357 478T318 512Q312 479 312 462Q312 449 317 426Q321 410 321 400Q321 373 308 356T275 338Q262 338 255 345Z" />
<glyph unicode="+" glyph-name="plus" horiz-adv-x="537" d="M285 344H98L103 368H290L332 575H362L320 368H507L502 344H315L273 138H243L285 344Z" />
<glyph unicode="," glyph-name="comma" horiz-adv-x="214" d="M25 -108Q43 -88 56 -63T75 -13L76 -5Q71 -7 60 -7Q49 -7 43 0T36 19Q36 37 49 49T80 61Q97 61 106 50T115 21Q115 15 113 3Q108 -24 87 -62T40 -122L25 -108Z" />
<glyph unicode="-" glyph-name="hyphen" horiz-adv-x="303" d="M57 287H287L281 263H51L57 287Z" />
<glyph unicode="." glyph-name="period" horiz-adv-x="214" d="M54 -9T46 -2T38 17Q38 36 50 47T81 59Q96 59 103 50T108 25Q104 9 93 0T67 -9Q54 -9 46 -2Z" />
<glyph unicode="/" glyph-name="slash" horiz-adv-x="350" d="M393 714H423L29 0H-3L393 714Z" />
<glyph unicode="0" glyph-name="zero" horiz-adv-x="513" d="M62 -10T62 183Q62 253 82 350Q117 523 184 616T362 710Q442 710 478 660T515 516Q515 441 496 350Q461 177 393 84T215 -10Q62 -10 62 183ZM315 12T374 100T467 350Q487 445 487 516Q487 600 456 644T358
688Q263 688 204 600T111 350Q91 255 91 184Q91 100 122 56T220 12Q315 12 374 100Z" />
<glyph unicode="1" glyph-name="one" horiz-adv-x="513" d="M122 14H148Q206 14 213 47L344 685L204 627L209 650L381 718L244 47Q240 29 253 22T296 14H322L320 0H120L122 14Z" />
<glyph unicode="2" glyph-name="two" horiz-adv-x="513" d="M23 41Q60 117 119 172T268 291Q329 334 367 366T437 441T479 537Q483 563 483 575Q483 625 452 656T347 688Q289 688 244 664T191 602Q185 573 164 573Q148 573 148 590Q148 621 176 648T252 693T353
710Q428 710 471 680T514 584Q514 557 509 536Q497 479 465 434T391 355T280 271Q201 215 145 163T53 44L48 22H360Q376 22 392 46T425 114H437L405 0H15L23 41Z" />
<glyph unicode="3" glyph-name="three" horiz-adv-x="513" d="M158 -10T120 2T59 36T37 83Q37 91 38 95Q44 127 65 127Q82 127 82 109Q82 101 81 98Q80 94 80 87Q80 54 116 33T205 12Q284 12 343 64T419 196Q423 220 423 231Q423 290 383 325T280 361H222L227
385H285Q335 385 375 409T440 472T472 548Q476 570 476 582Q476 629 444 658T348 688Q290 688 246 664T193 602Q187 573 166 573Q151 573 151 591Q151 625 179 652T253 694T355 710Q420 710 463 680T507 586Q507 565 503 546Q490 483 444 435T337 376L336 371Q380
364 416 330T452 236Q452 217 448 198Q433 126 395 80T306 12T204 -10Q158 -10 120 2Z" />
<glyph unicode="4" glyph-name="four" horiz-adv-x="513" d="M226 14H252Q310 14 317 47L346 184H35L40 216L437 700H481L380 206H481L470 184H376L348 47Q344 30 357 22T399 14H425L423 0H224L226 14ZM349 206L444 672L61 206H349Z" />
<glyph unicode="5" glyph-name="five" horiz-adv-x="513" d="M158 -10T120 2T59 36T37 83Q37 91 38 95Q44 127 65 127Q82 127 82 109Q82 101 81 98Q80 94 80 87Q80 54 116 33T205 12Q262 12 308 40T384 115T424 212Q430 242 430 271Q430 333 399 371T302 409Q255
409 212 392T122 338L109 349L214 700H467Q485 700 496 708T516 738H528L511 678H235L144 379Q219 432 305 432Q385 432 422 389T460 274Q460 245 454 213Q442 155 410 104T325 22T204 -10Q158 -10 120 2Z" />
<glyph unicode="6" glyph-name="six" horiz-adv-x="513" d="M64 -10T64 169Q64 231 80 305Q121 507 195 608T376 710Q424 710 454 695T499 656T513 610Q513 601 512 597Q506 565 485 565Q470 565 470 582Q470 591 471 594Q473 608 473 615Q473 649 447 668T370
688Q291 688 221 599T107 297Q142 370 199 406T316 442Q385 442 427 399T470 277Q470 250 464 218Q443 113 378 52T216 -10Q64 -10 64 169ZM303 12T358 67T432 210Q439 242 439 277Q439 342 407 381T311 420Q263 420 219 394T144 320T100 216Q94 186 94 159Q94
94 126 53T222 12Q303 12 358 67Z" />
<glyph unicode="7" glyph-name="seven" horiz-adv-x="513" d="M121 0T121 13Q121 17 123 25Q195 232 298 397T511 678H198Q184 678 172 660T154 614H142L159 700H551L549 688Q474 613 394 494T249 249T158 25Q151 0 132 0Q121 0 121 13Z" />
<glyph unicode="8" glyph-name="eight" horiz-adv-x="513" d="M503 486T456 435T347 362Q402 338 432 308T462 226Q462 206 458 187Q441 103 380 47T215 -10Q128 -10 88 30T47 136Q47 159 52 187Q66 256 117 309T233 382Q191 403 168 432T144 507Q144 527 148
547Q163 624 222 667T365 710Q436 710 477 677T519 583Q519 563 515 544Q503 486 456 435ZM386 391T429 438T485 547Q488 564 488 579Q488 632 452 660T361 688Q294 688 244 652T179 547Q175 530 175 512Q175 473 195 448T242 408T323 371Q386 391 429 438ZM432
201T432 219Q432 256 413 281T367 321T291 356L258 370Q220 360 183 333T118 267T82 184Q77 159 77 143Q77 80 118 46T219 12Q263 12 307 32T384 91T428 184Q432 201 432 219Z" />
<glyph unicode="9" glyph-name="nine" horiz-adv-x="513" d="M153 -10T123 5T78 44T64 90Q64 99 65 103Q73 135 93 135Q108 135 108 118L107 106Q105 92 105 85Q105 51 131 32T208 12Q287 12 357 101T471 403Q437 331 374 292T251 253Q185 253 146 296T107 415Q107
448 114 482Q135 587 200 648T361 710Q513 710 513 531Q513 469 497 395Q457 193 382 92T201 -10Q153 -10 123 5ZM309 277T354 304T433 379T477 484Q483 514 483 542Q483 607 451 647T356 688Q275 688 220 633T146 490Q138 450 138 418Q138 354 168 316T261 277Q309
277 354 304Z" />
<glyph unicode=":" glyph-name="colon" horiz-adv-x="214" d="M144 435T137 442T129 460Q129 479 141 491T171 503Q184 503 191 497T199 478Q199 472 198 469Q195 453 184 444T157 435Q144 435 137 442ZM54 -9T46 -2T38 17Q38 36 50 47T81 59Q96 59 103 50T108
25Q104 9 93 0T67 -9Q54 -9 46 -2Z" />
<glyph unicode=";" glyph-name="semicolon" horiz-adv-x="214" d="M144 435T137 442T129 460Q129 479 141 491T171 503Q184 503 191 497T199 478Q199 472 198 469Q195 453 184 444T157 435Q144 435 137 442ZM25 -108Q43 -88 56 -63T75 -13L76 -5Q71 -7 60 -7Q49
-7 43 0T36 19Q36 37 49 49T80 61Q97 61 106 50T115 21Q115 15 113 3Q108 -24 87 -62T40 -122L25 -108Z" />
<glyph unicode="&lt;" glyph-name="less" horiz-adv-x="537" d="M71 321L75 343L573 590L567 561L108 332L473 103L468 74L71 321Z" />
<glyph unicode="=" glyph-name="equal" horiz-adv-x="537" d="M102 440H537L532 416H97L102 440ZM63 252H498L493 228H59L63 252Z" />
<glyph unicode="&gt;" glyph-name="greater" horiz-adv-x="537" d="M27 103L486 332L121 561L127 590L523 343L519 321L21 74L27 103Z" />
<glyph unicode="?" glyph-name="question" horiz-adv-x="408" d="M148 165T151 175Q159 218 180 253T226 315T293 380Q348 430 377 465T416 548Q420 565 420 586Q420 632 391 660T300 688Q248 688 206 663T156 602Q150 573 129 573Q112 573 112 590Q112 619 139
647T210 692T304 710Q369 710 410 681T452 588Q452 566 448 546Q439 499 409 462T321 372Q260 316 226 274T181 176L179 153H148Q148 165 151 175ZM114 -9T107 -3T99 16Q99 22 100 25Q103 41 114 50T140 59Q153 59 161 52T169 33Q169 28 168 25Q164 9 154 0T127
-9Q114 -9 107 -3Z" />
<glyph unicode="@" glyph-name="at" horiz-adv-x="744" d="M180 -55T112 9T44 189Q44 234 54 281Q77 393 139 481T293 620T491 670Q611 670 680 607T750 432Q750 394 741 352Q729 292 702 242T639 163T564 134Q531 134 508 152T484 206Q484 214 485 218Q463 178
421 156T339 134Q286 134 258 163T230 245Q230 272 235 293Q246 350 278 395T355 465T452 490Q479 490 511 484T567 465L507 240L505 234Q503 224 503 218Q503 191 522 174T566 156Q613 156 653 210T712 353Q720 395 720 428Q720 529 659 587T492 646Q394 646 310
602T166 475T84 282Q74 235 74 189Q74 83 135 26T312 -31Q403 -31 496 2L492 -23Q398 -55 307 -55Q180 -55 112 9ZM398 157T437 192T492 283L537 447Q516 456 492 460T447 465Q382 465 332 419T265 291Q260 263 260 246Q260 202 282 180T348 157Q398 157 437 192Z"
/>
<glyph unicode="A" glyph-name="A" horiz-adv-x="650" d="M608 14L606 0H426L428 14H440Q459 14 481 23T506 45Q506 48 506 53T504 61L478 232H188L92 61Q91 60 88 54T84 45Q82 32 99 23T135 14H149L147 0H-33L-31 14H-17Q4 16 26 25T56 48L414 690L440 707L537
48Q539 34 557 24T594 14H608ZM475 256L417 641L201 256H475Z" />
<glyph unicode="B" glyph-name="B" horiz-adv-x="531" d="M-14 14H12Q70 14 77 47L201 653Q204 670 191 678T149 686H123L126 700H380Q451 700 491 668T531 576Q531 554 527 534Q515 476 475 432T376 371V367Q503 348 503 239Q503 212 497 186Q479 97 417 49T263
0H-16L-14 14ZM302 378Q375 378 430 422T499 536Q503 555 503 574Q503 627 465 651T348 676H236L176 378H302ZM237 24Q338 24 396 65T470 186Q475 214 475 232Q475 354 307 354H171L104 24H237Z" />
<glyph unicode="C" glyph-name="C" horiz-adv-x="606" d="M186 -10T127 51T68 230Q68 286 81 350Q104 465 157 546T288 668T458 710Q517 710 557 691T620 649Q621 648 623 646T628 644Q636 644 640 663L649 705H668L633 531H620Q621 538 621 550Q621 611 576 648T453
686Q319 686 231 595T110 350Q98 290 98 237Q98 132 150 73T310 14Q353 14 400 31T487 83T551 169H572Q538 83 463 37T297 -10Q186 -10 127 51Z" />
<glyph unicode="D" glyph-name="D" horiz-adv-x="604" d="M-14 14H12Q70 14 77 47L201 653Q204 670 191 678T149 686H123L126 700H397Q503 700 557 642T611 472Q611 415 598 350Q563 182 475 91T254 0H-16L-14 14ZM256 22Q379 22 458 109T568 350Q582 417 582
469Q582 569 535 623T393 678H237L103 22H256Z" />
<glyph unicode="E" glyph-name="E" horiz-adv-x="536" d="M588 700L557 546H544Q550 578 550 605Q550 676 504 676H233L174 385H378Q406 385 420 410T448 488H462L415 258H401Q407 300 407 316Q407 361 373 361H169L101 24H376Q413 24 439 70T480 166H492L445
0H-19L-17 14H9Q67 14 74 47L198 653Q205 686 146 686H120L123 700H588Z" />
<glyph unicode="F" glyph-name="F" horiz-adv-x="496" d="M588 700L557 546H544Q550 578 550 605Q550 676 504 676H233L169 362H349Q378 362 391 387T420 465H433L386 235H372Q378 277 378 293Q378 315 371 326T345 338H164L105 47Q101 30 114 22T156 14H182L180
0H-19L-17 14H9Q67 14 74 47L198 653Q205 686 146 686H120L123 700H588Z" />
<glyph unicode="G" glyph-name="G" horiz-adv-x="641" d="M186 -10T127 51T68 230Q68 286 81 350Q104 465 157 546T288 668T458 710Q517 710 557 691T620 649Q621 648 623 646T628 644Q636 644 640 663L649 705H668L633 531H620Q621 538 621 550Q621 611 576 648T453
686Q319 686 231 595T110 350Q98 290 98 237Q98 132 150 73T310 14Q363 14 422 29T526 82L568 288Q569 292 569 298Q569 321 548 328T480 339L483 353H665L662 339Q634 339 619 329T597 288L553 72Q511 36 450 13T297 -10Q186 -10 127 51Z" />
<glyph unicode="H" glyph-name="H" horiz-adv-x="695" d="M770 700L767 686H741Q683 686 676 653L552 47Q548 29 561 22T604 14H630L628 0H428L430 14H456Q514 14 521 47L586 365H179L114 47Q107 14 166 14H192L190 0H-10L-8 14H18Q47 14 63 22T84 47L207 653Q211
670 198 678T156 686H130L132 700H332L329 686H303Q245 686 238 653L184 389H591L645 653Q649 671 636 678T593 686H567L570 700H770Z" />
<glyph unicode="I" glyph-name="I" horiz-adv-x="263" d="M-5 14H21Q81 14 86 47L210 653Q214 671 201 678T158 686H132L135 700H335L332 686H306Q248 686 241 653L117 47Q110 14 169 14H195L193 0H-7L-5 14Z" />
<glyph unicode="J" glyph-name="J" horiz-adv-x="296" d="M-34 -98Q21 -92 64 -51T122 57L243 653Q250 686 191 686H165L168 700H368L365 686H339Q280 686 274 653L153 58Q137 -21 86 -67T-35 -114L-34 -98Z" />
<glyph unicode="K" glyph-name="K" horiz-adv-x="594" d="M107 14T166 14H192L190 0H-10L-8 14H18Q47 14 63 22T84 47L207 653Q211 670 198 678T156 686H130L132 700H332L329 686H303Q245 686 238 653L114 47Q107 14 166 14ZM659 700L656 686H642Q621 686 607
679T578 658L207 371L460 42Q471 28 481 21T513 14H541L540 0H449L180 350L188 387L539 656Q545 662 545 667Q549 686 511 686H496L499 700H659Z" />
<glyph unicode="L" glyph-name="L" horiz-adv-x="504" d="M-8 14H18Q47 14 63 22T84 47L207 653Q211 670 198 678T156 686H130L132 700H332L329 686H303Q245 686 238 653L117 57Q110 24 169 24H364Q401 24 427 70T468 166H480L433 0H-10L-8 14Z" />
<glyph unicode="M" glyph-name="M" horiz-adv-x="812" d="M-8 14H18Q47 14 63 22T84 47L207 653Q211 670 198 678T156 686H130L132 700H263L393 124L756 700H887L884 686H858Q800 686 793 653L669 47Q662 14 721 14H747L745 0H545L547 14H573Q633 14 638 47L762
653L761 656L393 79H373L240 656L238 653L114 47Q107 14 166 14H192L190 0H-10L-8 14Z" />
<glyph unicode="N" glyph-name="N" horiz-adv-x="698" d="M-8 14H18Q47 14 63 22T84 47L207 653Q211 670 198 678T156 686H130L132 700H272L525 51L648 653Q652 671 639 678T596 686H570L573 700H773L770 686H744Q686 686 679 653L546 0H516L249 677H243L114 47Q107
14 166 14H192L190 0H-10L-8 14Z" />
<glyph unicode="O" glyph-name="O" horiz-adv-x="676" d="M182 -10T120 52T58 234Q58 289 71 350Q106 523 204 616T444 710Q558 710 620 647T682 465Q682 413 670 350Q634 177 536 84T297 -10Q182 -10 120 52ZM436 14T522 105T640 350Q653 415 653 462Q653 567
600 626T439 686Q305 686 219 595T101 350Q88 285 88 238Q88 133 141 74T301 14Q436 14 522 105Z" />
<glyph unicode="P" glyph-name="P" horiz-adv-x="526" d="M-8 14H18Q47 14 63 22T84 47L207 653Q211 670 198 678T156 686H130L132 700H421Q576 700 576 558Q576 525 569 491Q549 394 492 338T336 281H162L114 47Q107 14 166 14H192L190 0H-10L-8 14ZM342 305Q424
305 473 355T540 491Q547 530 547 552Q547 611 516 643T418 676H243L167 305H342Z" />
<glyph unicode="Q" glyph-name="Q" horiz-adv-x="676" d="M286 -10Q262 -22 247 -32H258Q280 -32 302 -42T357 -72Q393 -94 419 -105T474 -117Q506 -117 540 -89T593 -20H612L604 -39Q585 -81 550 -109T465 -138Q427 -138 397 -125T327 -87Q294 -67 275 -58T233
-48Q215 -48 187 -62T132 -95L127 -81Q161 -55 188 -38T248 -7Q156 7 107 68T58 234Q58 289 71 350Q106 523 204 616T444 710Q558 710 620 647T682 465Q682 413 670 350Q634 177 536 84T297 -10H286ZM88 285T88 238Q88 133 141 74T301 14Q436 14 522 105T640 350Q653
415 653 462Q653 567 600 626T439 686Q305 686 219 595T101 350Q88 285 88 238Z" />
<glyph unicode="R" glyph-name="R" horiz-adv-x="589" d="M532 333T396 302Q414 287 420 257T429 173Q434 99 453 57T524 14L522 0H483Q449 0 426 30T401 105Q399 133 399 148Q396 207 391 241T370 297Q346 295 332 295H165L114 47Q107 14 166 14H192L190 0H-10L-8
14H18Q47 14 63 22T84 47L207 653Q211 670 198 678T156 686H130L132 700H415Q573 700 573 562Q573 530 566 498Q532 333 396 302ZM421 319T471 366T537 498Q543 530 543 556Q543 676 411 676H243L170 319H338Q421 319 471 366Z" />
<glyph unicode="S" glyph-name="S" horiz-adv-x="504" d="M168 -10T127 11T64 49T41 67Q37 67 33 60T27 42L19 3H0L36 177H48L47 164Q47 124 69 90T131 35T216 14Q300 14 358 57T431 173Q434 188 434 201Q434 238 414 266T364 314T282 363Q230 392 200 412T149
462T128 529Q128 543 131 558Q146 632 208 671T356 710Q403 710 435 696T485 668T505 654Q514 654 516 670L524 707H543L508 533H495Q496 540 496 554Q496 613 459 649T355 686Q271 686 222 652T160 558Q157 546 157 534Q157 500 176 475T225 431T303 386Q358 357
390 336T444 282T467 208Q467 199 463 175Q452 121 417 79T332 14T224 -10Q168 -10 127 11Z" />
<glyph unicode="T" glyph-name="T" horiz-adv-x="566" d="M147 14H173Q231 14 238 47L367 676H226Q188 676 167 637T133 546H121L152 700H622L591 546H579Q584 573 584 604Q584 676 539 676H397L269 47Q265 29 278 22T321 14H347L345 0H145L147 14Z" />
<glyph unicode="U" glyph-name="U" horiz-adv-x="662" d="M197 -10T149 21T100 129Q100 160 107 192L201 653Q204 670 191 678T156 686H139L142 700H309L306 686H290Q268 686 251 678T231 653L137 189Q131 158 131 134Q131 66 175 40T301 14Q489 14 525 189L619
653Q622 670 609 678T574 686H558L561 700H728L725 686H708Q687 686 670 678T650 653L556 192Q533 81 467 36T290 -10Q197 -10 149 21Z" />
<glyph unicode="V" glyph-name="V" horiz-adv-x="629" d="M182 652Q181 666 162 676T124 686H110L113 700H293L290 686H276Q257 686 235 677T213 655L286 54L606 655Q612 667 592 676T552 686H540L543 700H723L720 686H707Q688 686 665 676T635 652L286 -5H264L182 652Z" />
<glyph unicode="W" glyph-name="W" horiz-adv-x="873" d="M967 700L964 686H950Q930 686 907 676T878 652L578 -5H557L504 531L230 -5H209L182 652Q181 666 163 676T124 686H110L113 700H293L290 686H276Q252 686 232 676T212 653L233 59L500 575L492 652Q491
666 473 676T434 686H420L423 700H603L600 686H587Q568 686 545 677T522 658L581 59L851 658Q856 668 836 677T798 686H784L787 700H967Z" />
<glyph unicode="X" glyph-name="X" horiz-adv-x="611" d="M700 700L697 686H684Q666 686 645 676T612 652L365 368L498 48Q503 35 520 25T556 14H569L567 0H388L390 14H401Q418 14 442 22T468 41V45L344 343L84 45Q74 34 94 24T134 14H148L146 0H-34L-32 14H-18Q1
16 22 25T55 48L333 368L215 652Q210 665 192 675T156 686H143L146 700H325L323 686H309Q291 686 270 678T245 658L355 393L583 655Q592 667 574 676T529 686H517L520 700H700Z" />
<glyph unicode="Y" glyph-name="Y" horiz-adv-x="617" d="M166 14H192Q250 14 257 47L309 297L182 652Q178 665 160 675T124 686H110L113 700H293L290 686H276Q259 686 237 678T213 659Q211 657 213 655L329 320L594 655Q603 666 582 676T540 686H529L532 700H711L708
686H695Q677 686 656 676T623 652L340 297L288 47Q284 29 297 22T340 14H366L364 0H164L166 14Z" />
<glyph unicode="Z" glyph-name="Z" horiz-adv-x="506" d="M-11 14L534 676H246Q184 676 154 546H141L172 700H574L571 686L30 24H345Q381 24 408 70T447 164H460L414 0H-12L-11 14Z" />
<glyph unicode="[" glyph-name="bracketleft" horiz-adv-x="264" d="M177 700H314L310 678H204L44 -102H151L146 -126H9L177 700Z" />
<glyph unicode="\" glyph-name="backslash" horiz-adv-x="350" d="M141 714H171L277 0H246L141 714Z" />
<glyph unicode="]" glyph-name="bracketright" horiz-adv-x="264" d="M-5 -102H102L261 678H155L158 700H295L127 -126H-10L-5 -102Z" />
<glyph unicode="^" glyph-name="asciicircum" horiz-adv-x="510" d="M341 719H384L480 313H445L356 683L114 313H80L341 719Z" />
<glyph unicode="_" glyph-name="underscore" horiz-adv-x="418" d="M-60 -90H364L359 -114H-65L-60 -90Z" />
<glyph unicode="`" glyph-name="grave" horiz-adv-x="451" d="M264 659Q252 666 252 682Q253 688 258 692T269 696Q278 696 292 684L376 597L368 587L264 659Z" />
<glyph unicode="a" glyph-name="a" horiz-adv-x="483" d="M32 -10T32 119Q32 158 43 216Q74 370 150 425T300 480Q343 480 379 466T427 425L436 470H466L378 40Q376 30 376 26Q376 11 391 11Q399 11 423 19L421 11Q397 -10 372 -10Q360 -10 353 -3T345 17Q345
24 346 28L364 114Q300 45 237 18T131 -10Q32 -10 32 119ZM178 12T222 35T308 92T371 150L416 368Q413 413 379 435T290 458Q256 458 214 440T132 368T72 216Q62 167 62 130Q62 67 86 40T148 12Q178 12 222 35Z" />
<glyph unicode="b" glyph-name="b" horiz-adv-x="502" d="M176 -10T138 14T88 81L60 0H43L180 674V678Q180 686 171 686Q159 686 134 675L132 687L202 717H218L150 382Q177 428 228 454T329 480Q407 480 448 439T490 318Q490 278 482 241Q431 -10 236 -10Q176
-10 138 14ZM326 12T378 73T452 236Q460 272 460 312Q460 382 426 420T323 458Q285 458 244 438T173 383T133 304L107 173Q104 157 104 141Q104 87 138 50T236 12Q326 12 378 73Z" />
<glyph unicode="c" glyph-name="c" horiz-adv-x="435" d="M110 -10T71 34T31 158Q31 190 39 235Q64 352 132 416T296 480Q361 480 397 455T433 390Q433 383 431 371Q429 362 423 355T406 347Q397 347 393 353T390 370Q391 375 393 379T396 387Q398 399 388 416T355
445T296 458Q210 458 150 398T68 235Q61 200 61 166Q61 93 95 53T189 12Q253 12 303 50T381 165H399Q375 84 321 37T183 -10Q110 -10 71 34Z" />
<glyph unicode="d" glyph-name="d" horiz-adv-x="506" d="M32 -10T32 119Q32 158 43 216Q74 370 150 425T300 480Q343 480 385 464T439 420L491 674V676Q491 686 481 686Q469 686 444 675L443 687L512 717H528L390 40Q388 28 388 26Q388 11 402 11Q411 11 435
19L433 11Q421 1 408 -4T384 -10Q371 -10 364 -3T356 18Q356 24 357 28L375 114Q311 45 244 18T131 -10Q32 -10 32 119ZM178 12T225 36T317 93T382 150L427 368Q424 412 386 435T290 458Q256 458 214 440T132 368T72 216Q62 167 62 130Q62 67 86 40T148 12Q178
12 225 36Z" />
<glyph unicode="e" glyph-name="e" horiz-adv-x="445" d="M426 243T307 205T61 163Q62 92 97 52T192 12Q256 12 307 50T387 165H405Q381 85 326 38T186 -10Q112 -10 72 34T31 160Q31 192 39 235Q63 351 131 415T293 480Q373 480 411 450T450 371Q450 359 447 345Q426
243 307 205ZM206 191T314 233T422 366Q422 405 392 431T291 458Q205 458 147 396T68 235Q62 201 61 186Q206 191 314 233Z" />
<glyph unicode="f" glyph-name="f" horiz-adv-x="324" d="M379 723T405 705T431 653Q431 629 422 617T399 604Q379 604 379 622Q379 633 388 644T399 660Q403 678 382 689T334 700Q288 700 260 673T221 590L196 470H334L330 449H192L70 -146L40 -151L163 449H78L82
470H167L192 591Q205 655 242 689T338 723Q379 723 405 705Z" />
<glyph unicode="g" glyph-name="g" horiz-adv-x="429" d="M471 480T479 473T485 454Q483 446 478 441T463 435Q453 435 450 441T442 452T425 457Q416 457 403 451T378 437Q403 407 403 363Q403 342 399 325Q384 254 330 213T201 171Q145 171 108 195Q61 164 57
137Q56 134 56 128Q56 107 76 95T132 83H260Q303 83 332 66T362 12Q362 7 360 -7Q346 -75 284 -106T134 -137Q69 -137 29 -113T-12 -43Q-12 -36 -10 -22Q2 36 67 70Q29 86 29 120Q29 164 94 207Q62 237 62 288Q62 308 66 325Q80 396 134 438T264 480Q331 480 369
447Q409 480 450 480Q471 480 479 473ZM374 342T374 357Q374 403 345 431T259 459Q192 459 149 421T95 325Q91 301 91 291Q91 246 119 219T204 192Q272 192 315 229T371 325Q374 342 374 357ZM98 61T83 65Q49 44 35 24T15 -21Q13 -33 13 -38Q13 -76 48 -95T144
-114Q223 -114 273 -87T334 -9Q336 3 336 8Q336 34 314 47T242 61H123Q98 61 83 65Z" />
<glyph unicode="h" glyph-name="h" horiz-adv-x="521" d="M402 39Q400 29 400 26Q400 11 416 11Q424 11 448 19L446 11Q422 -10 397 -10Q385 -10 378 -3T370 17Q370 24 371 28L426 297Q434 333 434 367Q434 417 410 437T334 458Q290 458 239 421T145 314L81 0L49
-10L189 674V677Q189 686 180 686Q168 686 143 675L141 687L210 717H227L155 361Q186 409 237 444T338 480Q399 480 431 457T464 372Q464 346 456 304L402 39Z" />
<glyph unicode="i" glyph-name="i" horiz-adv-x="225" d="M169 567T163 575T158 599Q161 614 172 622T198 631Q210 631 217 625T224 607Q224 589 212 578T184 567Q169 567 163 575ZM78 -10T71 -3T63 19Q63 25 64 28L147 430V433Q147 442 137 442Q131 442 120 439T101
431L99 443L168 473H184L96 40Q94 30 94 27Q94 11 109 11Q118 11 142 19L140 11Q116 -10 91 -10Q78 -10 71 -3Z" />
<glyph unicode="j" glyph-name="j" horiz-adv-x="228" d="M198 567T191 573T184 591Q184 609 195 620T225 631Q239 631 245 623T250 599Q247 584 236 576T211 567Q198 567 191 573ZM-14 -95Q29 -75 53 -45T87 29L168 427V431Q168 439 159 439Q147 439 122 428L120
440L189 470H205L115 28Q106 -19 73 -56T-14 -113V-95Z" />
<glyph unicode="k" glyph-name="k" horiz-adv-x="475" d="M470 470L468 458H458Q444 458 433 456T413 444L160 246L356 34Q366 23 381 18T406 12H429L427 0H343L135 226L126 219L81 0L49 -10L189 674V677Q189 686 180 686Q168 686 143 675L141 687L210 717H227L132
250L412 470H470Z" />
<glyph unicode="l" glyph-name="l" horiz-adv-x="239" d="M86 -10T79 -3T71 18Q71 24 72 28L204 674V678Q204 686 195 686Q183 686 158 675L156 687L226 717H242L104 40Q102 30 102 27Q102 11 117 11Q124 11 150 19L148 11Q136 1 123 -4T99 -10Q86 -10 79 -3Z" />
<glyph unicode="m" glyph-name="m" horiz-adv-x="745" d="M624 40Q622 30 622 27Q622 11 637 11Q646 11 670 19L668 11Q644 -10 619 -10Q606 -10 599 -3T591 19Q591 25 592 28L656 335Q661 358 661 383Q661 458 588 458Q548 458 506 418T433 320T392 213L348 0L317
-10L388 336Q393 361 393 377Q393 417 373 437T314 458Q275 458 236 420T166 325T125 219L81 0L49 -10L138 427V431Q138 439 130 439Q117 439 92 428L90 440L159 470H176L147 325Q175 388 219 434T320 480Q372 480 397 455T423 384Q423 367 418 342L414 325Q444
387 489 433T591 480Q691 480 691 388Q691 367 685 341L624 40Z" />
<glyph unicode="n" glyph-name="n" horiz-adv-x="521" d="M400 40Q398 30 398 27Q398 11 414 11Q422 11 446 19L444 11Q420 -10 396 -10Q383 -10 376 -3T368 17Q368 24 369 28L434 345Q438 362 438 379Q438 419 414 438T347 458Q298 458 252 421T173 330T126 225L81
0L49 -10L138 427V431Q138 439 130 439Q117 439 92 428L90 440L159 470H176L144 314Q177 379 232 429T351 480Q468 480 468 389Q468 373 463 348L400 40Z" />
<glyph unicode="o" glyph-name="o" horiz-adv-x="485" d="M122 -10T77 36T32 165Q32 200 39 235Q63 349 134 414T302 480Q382 480 426 435T471 307Q471 277 463 235Q440 121 369 56T202 -10Q122 -10 77 36ZM291 12T353 71T436 235Q444 275 444 304Q444 377 406
417T298 458Q212 458 151 399T67 235Q60 200 60 167Q60 93 98 53T206 12Q291 12 353 71Z" />
<glyph unicode="p" glyph-name="p" horiz-adv-x="513" d="M140 427V431Q140 439 132 439Q119 439 94 428L92 440L161 470H178L151 337Q184 395 239 437T355 480Q503 480 503 333Q503 292 493 248Q467 115 402 53T234 -10Q180 -10 142 16T98 76L36 -227L6 -232L140
427ZM337 12T390 75T464 243Q474 289 474 329Q474 393 444 425T351 458Q307 458 265 429T188 353T135 259L114 158Q111 143 111 129Q111 78 146 45T247 12Q337 12 390 75Z" />
<glyph unicode="q" glyph-name="q" horiz-adv-x="513" d="M327 -232T320 -225T312 -205Q312 -198 313 -194L378 125Q347 65 292 28T183 -10Q31 -10 31 151Q31 191 42 248Q66 362 131 421T283 480Q337 480 377 459T434 396L458 470H477L345 -182Q343 -194 343 -196Q343
-211 357 -211Q365 -211 389 -203L388 -211Q376 -221 363 -226T339 -232Q327 -232 320 -225ZM242 12T286 46T359 129T397 220L416 307Q419 324 419 338Q419 395 377 426T280 458Q234 458 191 434T116 361T70 243Q61 200 61 161Q61 91 93 52T193 12Q242 12 286 46Z"
/>
<glyph unicode="r" glyph-name="r" horiz-adv-x="293" d="M316 480T328 474T340 457Q340 448 334 442T320 435Q309 435 307 441T302 452T288 457Q242 457 209 419T158 314L95 0L63 -10L153 427V431Q153 439 144 439Q137 439 126 436T107 428L105 440L174 470H190L176
398Q194 432 223 456T296 480Q316 480 328 474Z" />
<glyph unicode="s" glyph-name="s" horiz-adv-x="386" d="M94 -10T59 15T23 80Q23 87 25 99Q27 108 33 115T50 123Q59 123 63 117T66 100Q65 97 63 93T60 83Q58 71 67 54T98 25T156 12Q221 12 260 38T309 111Q311 123 311 127Q311 158 286 176T210 218Q170 236
146 250T104 288T86 344Q86 410 136 445T253 480Q318 480 351 455T385 391Q385 378 383 371Q381 362 375 355T358 347Q349 347 345 353T342 370Q343 375 345 379T348 387Q350 399 342 416T311 445T253 458Q194 458 156 429T117 350Q117 313 144 292T226 246Q282
221 310 198T339 134Q339 119 337 111Q325 53 276 22T159 -10Q94 -10 59 15Z" />
<glyph unicode="t" glyph-name="t" horiz-adv-x="329" d="M126 119Q120 92 120 72Q120 41 135 27T180 12Q209 12 233 26T267 70H291Q279 30 247 10T179 -10Q133 -10 112 8T90 68Q90 94 95 116L163 449H78L82 470H167L184 555L209 600H224L198 470H334L330 449H193L126
119Z" />
<glyph unicode="u" glyph-name="u" horiz-adv-x="513" d="M388 30T388 27Q388 11 403 11Q410 11 436 19L434 11Q422 1 409 -4T385 -10Q372 -10 365 -3T357 18Q357 24 358 28L369 80Q342 45 295 18T188 -10Q126 -10 94 17T62 92Q62 106 65 122L128 427V431Q128
439 119 439Q112 439 101 436T82 428L80 440L149 470H165L97 132Q93 116 93 98Q93 56 118 34T192 12Q232 12 272 29T342 79T384 154L440 427V431Q440 439 431 439Q424 439 413 436T394 428L392 440L461 470H477L390 40Q388 30 388 27Z" />
<glyph unicode="v" glyph-name="v" horiz-adv-x="458" d="M58 -10T58 70Q58 88 62 105L128 427V431Q128 439 119 439Q112 439 101 436T82 428L80 440L149 470H165L92 109Q88 93 88 76Q88 12 162 12Q201 12 259 61T365 184T428 329Q437 373 437 400Q437 446 408
470Q418 480 431 480Q449 480 458 459T467 403Q467 371 459 328Q446 263 397 183T282 46T156 -10Q58 -10 58 70Z" />
<glyph unicode="w" glyph-name="w" horiz-adv-x="664" d="M651 480T658 463T666 414Q666 380 656 328Q643 263 595 183T485 47T365 -10Q296 -10 296 64Q296 80 299 99Q269 51 231 21T151 -10Q102 -10 81 14T59 75Q59 90 62 105L128 427V431Q128 439 119 439Q112
439 101 436T82 428L80 440L149 470H165L90 100Q88 86 88 78Q88 48 105 30T158 11Q196 11 235 49T308 149L373 470H402L332 126Q325 92 325 66Q325 37 336 24T375 11Q411 11 466 60T569 184T631 329Q640 374 640 401Q640 426 634 442T613 470Q623 480 636 480Q651
480 658 463Z" />
<glyph unicode="x" glyph-name="x" horiz-adv-x="459" d="M488 470L486 458H475Q462 458 449 453T426 438L256 245L357 32Q368 11 381 11Q388 11 414 19L412 11Q402 1 390 -4T367 -10Q354 -10 344 2T324 35L235 221L40 0H-25L-23 12H-12Q19 12 36 32L224 243L135
430Q132 439 118 439Q111 439 100 436T81 428L79 440L130 470H148L245 267L426 470H488Z" />
<glyph unicode="y" glyph-name="y" horiz-adv-x="477" d="M440 480T455 459T470 404Q470 391 467 377Q458 340 444 320L128 -120Q91 -170 59 -201T-4 -233Q-16 -233 -26 -227T-35 -208Q-32 -198 -26 -191T-9 -183Q-2 -183 6 -190T19 -197Q32 -197 58 -172T107
-113L200 16L123 429Q121 439 106 439Q93 439 68 428L66 440L131 470H147L221 46L418 321Q433 345 442 377Q444 393 444 398Q444 424 432 439T398 469Q407 480 421 480Q440 480 455 459Z" />
<glyph unicode="z" glyph-name="z" horiz-adv-x="382" d="M-7 -10T-10 -1T-12 23Q-6 44 5 55L387 449H155Q139 449 125 418T103 362H91L113 470H419L414 446L47 69Q78 66 103 58T160 37Q193 24 214 18T260 12Q284 12 298 31T328 93L341 90Q332 49 321 28T293 -2T251
-10Q230 -10 213 -5T178 8T150 20Q118 33 86 42T43 51Q34 51 32 38Q31 33 32 24T31 9Q29 -2 21 -6T3 -10Q-7 -10 -10 -1Z" />
<glyph unicode="{" glyph-name="braceleft" horiz-adv-x="346" d="M158 -121T129 -101T99 -34Q99 -15 106 22L138 181Q141 195 141 207Q141 240 118 258T44 283L49 306Q111 314 143 338T184 408L217 567Q227 620 246 650T301 695T397 710L394 688Q352 686 325
678T278 645T249 575L213 404Q203 354 168 326T77 293Q121 290 146 269T171 209Q171 193 169 185L133 14Q129 -5 129 -24Q129 -67 154 -81T232 -99L228 -121Q158 -121 129 -101Z" />
<glyph unicode="|" glyph-name="bar" horiz-adv-x="402" d="M148 760H178V-186H148V760Z" />
<glyph unicode="}" glyph-name="braceright" horiz-adv-x="346" d="M-6 -99Q36 -97 63 -89T110 -56T139 14L175 185Q184 233 221 261T311 293Q266 297 241 318T216 377Q216 389 219 404L254 575Q259 600 259 614Q259 657 234 671T156 688L159 710Q229 710 258
690T288 622Q288 599 282 567L250 408Q247 395 247 382Q247 349 270 331T345 306L340 283Q277 275 245 251T204 181L171 22Q161 -30 142 -61T86 -106T-10 -121L-6 -99Z" />
<glyph unicode="~" glyph-name="asciitilde" horiz-adv-x="537" d="M377 291T349 302T285 334Q253 352 233 360T191 369Q132 369 85 322L77 338Q128 391 198 391Q223 391 245 382T302 353Q336 333 361 323T414 313Q473 313 519 360L528 344Q477 291 410 291Q377
291 349 302Z" />
<glyph unicode="&#xa0;" glyph-name="uni00A0" horiz-adv-x="245" />
<glyph unicode="&#xa1;" glyph-name="exclamdown" horiz-adv-x="214" d="M139 412T132 419T124 438Q124 443 125 446Q129 462 140 471T166 480Q179 480 186 474T194 456Q194 449 193 446Q190 430 179 421T152 412Q139 412 132 419ZM9 -240T6 -236T2 -223Q2 -214
7 -189L11 -173L132 371H152L54 -173L50 -189Q44 -218 38 -229T17 -240Q9 -240 6 -236Z" />
<glyph unicode="&#xa2;" glyph-name="cent" horiz-adv-x="437" d="M361 477T394 452T427 390Q427 378 425 371Q423 362 417 355T400 347Q391 347 387 353T384 370Q385 375 387 379T390 387Q392 399 383 416T350 445T290 458Q204 458 144 398T62 235Q55 200 55
166Q55 93 89 53T183 12Q247 12 297 50T375 165H394Q371 90 323 44T201 -9L184 -92H156L172 -10Q102 -9 64 35T26 158Q26 198 34 235Q56 346 119 409T272 479L289 561H318L301 480Q361 477 394 452Z" />
<glyph unicode="&#xa3;" glyph-name="sterling" horiz-adv-x="515" d="M1 22H73Q91 39 104 68T125 129L170 349H72L76 371H174L207 535Q224 619 278 664T414 710Q462 710 491 695T535 665T552 651Q561 651 564 667L572 707H591L556 533H543Q544 541 544 558Q544
615 511 650T413 686Q339 686 296 649T235 524L204 371H418L414 349H200L155 130Q141 65 93 22H369Q385 22 401 46T434 114H445L414 0H-3L1 22Z" />
<glyph unicode="&#xa4;" glyph-name="currency" horiz-adv-x="538" d="M53 111L131 176Q108 215 108 260Q108 272 112 298Q127 366 180 419L129 484L156 507L206 441Q264 483 327 483Q360 483 387 472T433 440L511 507L527 484L449 418Q472 380 472 336Q472 315
468 298Q455 230 399 177L451 111L425 88L373 155Q319 113 252 113Q189 113 148 154L70 88L53 111ZM299 140T337 160T403 217T439 297Q443 321 443 332Q443 386 410 421T324 457Q283 457 245 436T180 379T144 297Q140 281 140 261Q140 207 172 174T258 140Q299
140 337 160Z" />
<glyph unicode="&#xa5;" glyph-name="yen" horiz-adv-x="617" d="M711 700L708 686H695Q677 686 656 676T623 652L425 403H572L568 382H408L340 297L316 183H527L523 162H312L288 47Q284 29 297 22T340 14H366L364 0H164L166 14H192Q250 14 257 47L281 162H88L92
183H285L309 297L279 382H133L137 403H271L182 652Q178 665 160 675T124 686H110L113 700H293L290 686H276Q259 686 237 678T213 659Q211 657 213 655L300 403H395L594 655Q603 666 582 676T540 686H529L532 700H711ZM378 382H308L329 320L378 382Z" />
<glyph unicode="&#xa6;" glyph-name="brokenbar" horiz-adv-x="402" d="M148 760H178V346H148V760ZM148 228H178V-186H148V228Z" />
<glyph unicode="&#xa7;" glyph-name="section" horiz-adv-x="504" d="M554 763L518 589H506Q507 596 507 610Q507 669 470 705T366 742Q282 742 233 708T171 614Q168 601 168 589Q168 556 187 531T235 487T313 442Q369 412 400 391T454 339T477 265Q477 255 473
231Q463 185 437 148T372 85Q420 42 420 -17Q420 -36 416 -52Q405 -106 371 -148T286 -213T178 -237Q122 -237 81 -216T18 -178T-6 -160Q-14 -160 -19 -185L-27 -224H-45L-11 -50H2L1 -63Q1 -103 23 -137T85 -192T170 -213Q254 -213 312 -170T385 -54Q388 -39 388
-26Q388 11 368 39T318 87T236 136Q184 165 154 185T102 235T81 302Q81 316 84 331Q95 382 129 417T212 467Q177 493 158 521T138 585Q138 599 141 614Q156 688 218 727T367 766Q414 766 446 752T495 724T515 710Q524 710 527 726L535 763H554ZM445 244T445 257Q445
293 425 321T375 370T294 419Q256 439 239 450Q186 437 155 407T114 331Q111 319 111 307Q111 274 130 248T178 204T255 159Q281 146 307 131T352 101Q387 122 410 155T442 229Q445 244 445 257Z" />
<glyph unicode="&#xa8;" glyph-name="dieresis" horiz-adv-x="451" d="M202 584T196 590T189 606Q189 623 199 633T224 644Q235 644 241 638T248 621Q248 605 237 595T212 584Q202 584 196 590ZM390 584T384 590T377 606Q377 623 387 633T412 644Q423 644 429
638T436 621Q436 604 426 594T400 584Q390 584 384 590Z" />
<glyph unicode="&#xa9;" glyph-name="copyright" horiz-adv-x="780" d="M253 -10T174 37T50 168T5 357Q5 462 49 545T173 676T352 724Q451 724 530 677T654 546T699 357Q699 252 655 169T531 38T352 -10Q253 -10 174 37ZM443 18T515 62T628 183T669 357Q669 454
628 531T515 652T352 696Q262 696 190 652T76 531T35 357Q35 260 76 183T189 62T352 18Q443 18 515 62ZM272 129T224 190T175 357Q175 464 223 524T360 585Q397 585 424 574T468 549Q471 546 473 546Q479 546 479 557V582H497V480H479Q475 520 445 540T363 561Q282
561 244 506T205 357Q205 268 241 211T363 154Q408 154 444 178T492 248H511Q503 193 462 161T358 129Q272 129 224 190Z" />
<glyph unicode="&#xaa;" glyph-name="ordfeminine" horiz-adv-x="316" d="M85 392T85 472Q85 494 91 522Q102 574 130 616T195 683T268 707Q320 707 338 683L343 710H366L311 442Q309 430 309 427Q309 413 322 413Q330 413 351 421L349 413Q327 392 305 392Q284
392 284 416Q284 420 286 430L302 512Q271 455 235 424T162 392Q85 392 85 472ZM202 414T240 452T311 553L331 652Q318 688 268 688Q216 688 172 639T113 517Q108 490 108 475Q108 444 122 429T166 414Q202 414 240 452Z" />
<glyph unicode="&#xab;" glyph-name="guillemotleft" horiz-adv-x="391" d="M49 257L52 269L244 453L254 435L97 263L184 91L166 73L49 257ZM200 257L203 269L395 453L405 435L248 263L335 91L317 73L200 257Z" />
<glyph unicode="&#xac;" glyph-name="logicalnot" horiz-adv-x="442" d="M322 345H7V367H348V187H322V345Z" />
<glyph unicode="&#xad;" glyph-name="uni00AD" horiz-adv-x="303" d="M57 287H287L281 263H51L57 287Z" />
<glyph unicode="&#xae;" glyph-name="registered" horiz-adv-x="780" d="M451 724T530 677T654 546T699 357Q699 252 655 169T531 38T352 -10Q253 -10 174 37T50 168T5 357Q5 462 49 545T173 676T352 724Q451 724 530 677ZM443 18T515 62T628 183T669 357Q669
454 628 531T515 652T352 696Q262 696 190 652T76 531T35 357Q35 260 76 183T189 62T352 18Q443 18 515 62ZM493 146T532 144V130H467L360 324H276V177Q276 158 283 151T315 144H334V130H190V144H209Q233 144 240 151T248 177V530Q248 544 240 551T219 558H199V574H372Q436
574 469 542T503 450Q503 393 475 361T390 324L479 170Q493 146 532 144ZM276 348H371Q425 348 448 373T472 450Q472 501 449 525T371 550H276V348Z" />
<glyph unicode="&#xaf;" glyph-name="overscore" horiz-adv-x="451" d="M185 773H505L500 751H180L185 773Z" />
<glyph unicode="&#xb0;" glyph-name="degree" horiz-adv-x="271" d="M154 484T130 509T106 573Q106 589 108 597Q119 645 156 677T241 710Q282 710 306 686T330 623Q330 587 312 555T262 503T195 484Q154 484 130 509ZM236 503T266 531T304 597Q306 604 306 618Q306
649 287 670T237 691Q210 691 185 675T145 633T130 577Q130 545 149 524T199 503Q236 503 266 531Z" />
<glyph unicode="&#xb1;" glyph-name="plusminus" horiz-adv-x="537" d="M285 344H98L103 368H290L332 575H362L320 368H507L502 344H315L273 138H243L285 344ZM12 24H458L453 0H7L12 24Z" />
<glyph unicode="&#xb2;" glyph-name="uni00B2" horiz-adv-x="307" d="M57 315Q79 360 113 392T200 461Q252 498 282 530T322 603Q323 608 323 619Q323 648 306 668T252 688Q169 688 156 622Q155 614 150 607T133 599Q118 599 118 617Q118 622 119 625Q128 664
167 687T255 710Q300 710 327 691T354 632Q354 624 350 602Q341 555 309 522T217 446Q165 408 132 377T84 310H256Q269 310 278 323T298 361H311L290 285H51L57 315Z" />
<glyph unicode="&#xb3;" glyph-name="uni00B3" horiz-adv-x="307" d="M123 280T95 299T66 351Q66 360 67 365Q70 377 77 384T92 391Q109 391 106 368Q103 358 103 347Q103 302 172 302Q218 302 247 328T286 401Q288 415 288 421Q288 453 269 474T214 495H173L177
517H215Q259 517 285 544T320 608Q322 620 322 626Q322 654 306 671T255 688Q172 688 159 622Q153 599 136 599Q121 599 121 617Q121 622 122 625Q130 664 169 687T258 710Q298 710 325 691T352 633Q352 622 349 608Q343 575 318 545T261 505Q286 499 302 479T318
427Q318 411 316 403Q303 340 263 310T167 280Q123 280 95 299Z" />
<glyph unicode="&#xb4;" glyph-name="acute" horiz-adv-x="451" d="M254 596L375 683Q393 695 402 695Q408 695 411 691T413 681Q411 667 393 658L259 586L254 596Z" />
<glyph unicode="&#xb6;" glyph-name="paragraph" horiz-adv-x="429" d="M121 12H132Q153 12 167 18T182 39V312Q96 312 48 365T0 516Q0 700 184 700H352V688H342Q321 688 306 682T291 661V39Q291 25 306 19T342 12H352V0H262V678H211V0H121V12ZM182 678Q30 678
30 517Q30 427 72 381T182 334V678Z" />
<glyph unicode="&#xb7;" glyph-name="middot" horiz-adv-x="252" d="M121 285T109 297T97 331Q97 341 100 353Q106 385 125 403T172 421Q196 421 209 408T222 372Q222 367 220 353Q213 322 193 304T144 285Q121 285 109 297Z" />
<glyph unicode="&#xb8;" glyph-name="cedilla" horiz-adv-x="451" d="M123 -186T99 -180L111 -162Q132 -166 157 -166Q221 -166 229 -119Q236 -87 183 -87Q165 -87 149 -89L143 -79L196 0H223L179 -68Q185 -67 201 -67Q225 -67 241 -78T257 -110Q257 -117 256
-121Q250 -154 222 -170T151 -186Q123 -186 99 -180Z" />
<glyph unicode="&#xb9;" glyph-name="uni00B9" horiz-adv-x="307" d="M81 299H107Q165 299 172 332L243 680L161 645L166 669L279 713L202 332Q198 315 211 307T253 299H279L276 285H78L81 299Z" />
<glyph unicode="&#xba;" glyph-name="ordmasculine" horiz-adv-x="301" d="M140 392T110 422T80 506Q80 524 85 551Q100 624 146 667T256 710Q309 710 339 680T369 595Q369 578 364 551Q349 478 302 435T192 392Q140 392 110 422ZM246 414T283 451T333 551Q337
571 337 593Q337 638 315 663T252 688Q202 688 165 651T115 551Q110 526 110 509Q110 464 132 439T196 414Q246 414 283 451Z" />
<glyph unicode="&#xbb;" glyph-name="guillemotright" horiz-adv-x="391" d="M15 91L172 263L85 435L104 453L221 269L218 257L26 73L15 91ZM166 91L323 263L236 435L254 453L372 269L369 257L177 73L166 91Z" />
<glyph unicode="&#xbc;" glyph-name="onequarter" horiz-adv-x="743" d="M682 714H711L156 0H126L682 714ZM81 299H107Q165 299 172 332L243 680L161 645L166 669L279 713L202 332Q198 315 211 307T253 299H279L276 285H78L81 299ZM473 14H499Q559 14 564 47L577
108H394L399 132L636 421H671L612 130H673L668 108H607L594 47Q587 14 646 14H672L670 0H471L473 14ZM582 130L632 376L427 130H582Z" />
<glyph unicode="&#xbd;" glyph-name="onehalf" horiz-adv-x="743" d="M682 714H711L156 0H126L682 714ZM81 299H107Q165 299 172 332L243 680L161 645L166 669L279 713L202 332Q198 315 211 307T253 299H279L276 285H78L81 299ZM439 30Q460 76 494 108T582 176Q634
213 664 245T703 318Q705 330 705 335Q705 364 687 383T634 403Q551 403 538 337Q532 314 515 314Q508 314 504 318T500 330Q500 336 501 340Q509 379 548 402T637 425Q682 425 708 406T735 346Q735 305 717 273T671 216T599 161Q548 124 514 93T467 25H638Q651
25 660 37T680 76H693L672 0H433L439 30Z" />
<glyph unicode="&#xbe;" glyph-name="threequarters" horiz-adv-x="743" d="M682 714H711L156 0H126L682 714ZM133 280T105 298T76 350Q76 370 83 380T103 391Q117 391 117 376L116 368Q113 358 113 347Q113 302 182 302Q228 302 257 328T297 401Q299 413 299
420Q299 452 280 473T225 495H183L187 517H226Q260 517 284 534T320 577T332 628Q332 655 316 671T266 688Q183 688 170 622Q164 599 147 599Q129 599 132 625Q141 664 180 687T269 710Q309 710 335 691T362 632Q362 617 360 608Q353 575 328 545T272 505Q296 499
312 479T329 428Q329 417 326 403Q313 340 273 310T178 280Q133 280 105 298ZM473 14H499Q559 14 564 47L577 108H394L399 132L636 421H671L612 130H673L668 108H607L594 47Q587 14 646 14H672L670 0H471L473 14ZM582 130L632 376L427 130H582Z" />
<glyph unicode="&#xbf;" glyph-name="questiondown" horiz-adv-x="408" d="M274 412T266 419T258 438Q258 443 259 446Q263 462 274 471T301 480Q314 480 321 474T328 456Q328 450 327 446Q325 431 314 422T287 412Q274 412 266 419ZM58 -239T18 -211T-22 -121Q-22
-98 -18 -78Q-9 -32 20 4T105 93Q165 148 199 192T246 295Q248 301 249 318H279Q279 307 276 296Q263 231 226 183T124 74Q72 25 46 -7T12 -77Q7 -99 7 -116Q7 -162 36 -189T127 -217Q179 -217 221 -192T272 -131Q274 -119 279 -111T299 -102Q315 -102 315 -119Q315
-148 288 -176T217 -221T123 -239Q58 -239 18 -211Z" />
<glyph unicode="&#xc0;" glyph-name="Agrave" horiz-adv-x="650" d="M395 866T395 879Q395 888 400 892T411 897Q420 897 434 885L518 798L510 788L405 860Q395 866 395 879ZM608 14L606 0H426L428 14H440Q459 14 481 23T506 45Q506 48 506 53T504 61L478 232H188L92
61Q91 60 88 54T84 45Q82 32 99 23T135 14H149L147 0H-33L-31 14H-17Q4 16 26 25T56 48L414 690L440 707L537 48Q539 34 557 24T594 14H608ZM475 256L417 641L201 256H475Z" />
<glyph unicode="&#xc1;" glyph-name="Aacute" horiz-adv-x="650" d="M384 788L379 798L500 885Q506 890 513 893T527 897Q533 897 536 893T538 883Q536 869 517 860L384 788ZM608 14L606 0H426L428 14H440Q459 14 481 23T506 45Q506 48 506 53T504 61L478 232H188L92
61Q91 60 88 54T84 45Q82 32 99 23T135 14H149L147 0H-33L-31 14H-17Q4 16 26 25T56 48L414 690L440 707L537 48Q539 34 557 24T594 14H608ZM475 256L417 641L201 256H475Z" />
<glyph unicode="&#xc2;" glyph-name="Acircumflex" horiz-adv-x="650" d="M350 787L340 803L457 899H480L557 803L540 787L471 862Q466 867 462 867Q457 867 450 862L350 787ZM608 14L606 0H426L428 14H440Q459 14 481 23T506 45Q506 48 506 53T504 61L478 232H188L92
61Q91 60 88 54T84 45Q82 32 99 23T135 14H149L147 0H-33L-31 14H-17Q4 16 26 25T56 48L414 690L440 707L537 48Q539 34 557 24T594 14H608ZM475 256L417 641L201 256H475Z" />
<glyph unicode="&#xc3;" glyph-name="Atilde" horiz-adv-x="650" d="M356 848T327 786L315 794Q328 833 351 852T402 871Q417 871 429 864T461 840Q478 826 489 819T514 812Q535 812 552 829T583 878L596 871Q566 788 506 788Q492 788 479 796T450 819Q429 835
419 841T396 848Q356 848 327 786ZM608 14L606 0H426L428 14H440Q459 14 481 23T506 45Q506 48 506 53T504 61L478 232H188L92 61Q91 60 88 54T84 45Q82 32 99 23T135 14H149L147 0H-33L-31 14H-17Q4 16 26 25T56 48L414 690L440 707L537 48Q539 34 557 24T594
14H608ZM475 256L417 641L201 256H475Z" />
<glyph unicode="&#xc4;" glyph-name="Adieresis" horiz-adv-x="650" d="M338 785T333 793T329 815Q332 829 341 837T363 845Q374 845 380 839T386 823Q386 806 376 796T350 785Q338 785 333 793ZM526 785T521 793T517 815Q520 829 529 837T551 845Q562 845 568
839T574 823Q574 806 564 796T539 785Q526 785 521 793ZM608 14L606 0H426L428 14H440Q459 14 481 23T506 45Q506 48 506 53T504 61L478 232H188L92 61Q91 60 88 54T84 45Q82 32 99 23T135 14H149L147 0H-33L-31 14H-17Q4 16 26 25T56 48L414 690L440 707L537 48Q539
34 557 24T594 14H608ZM475 256L417 641L201 256H475Z" />
<glyph unicode="&#xc5;" glyph-name="Aring" horiz-adv-x="650" d="M413 764T397 779T380 820Q380 860 406 886T470 912Q498 912 515 897T532 855Q532 850 530 838Q523 805 498 785T441 764Q413 764 397 779ZM403 828T403 823Q403 805 414 794T444 783Q467 783
484 798T507 838Q509 848 509 852Q509 871 498 882T467 893Q444 893 427 878T405 838Q403 828 403 823ZM608 14L606 0H426L428 14H440Q459 14 481 23T506 45Q506 48 506 53T504 61L478 232H188L92 61Q91 60 88 54T84 45Q82 32 99 23T135 14H149L147 0H-33L-31 14H-17Q4
16 26 25T56 48L414 690L440 707L537 48Q539 34 557 24T594 14H608ZM475 256L417 641L201 256H475Z" />
<glyph unicode="&#xc6;" glyph-name="AE" horiz-adv-x="890" d="M-29 14H-15Q4 16 26 25T58 48L545 663Q552 672 552 676V679Q552 686 540 686H512L515 700H942L911 546H899Q904 584 904 603Q904 676 858 676H616L557 385H736Q765 385 778 410T806 488H820L773
258H759Q765 300 765 316Q765 338 758 349T732 361H552L484 24H731Q767 24 794 71T834 166H847L800 0H380L382 14H398Q420 14 437 22T457 47L495 232H233L86 45L84 41Q83 31 101 23T137 14H151L149 0H-31L-29 14ZM500 256L586 673L252 256H500Z" />
<glyph unicode="&#xc7;" glyph-name="Ccedilla" horiz-adv-x="606" d="M668 705L633 531H620Q621 538 621 550Q621 611 576 648T453 686Q319 686 231 595T110 350Q98 290 98 237Q98 132 150 73T310 14Q353 14 400 31T487 83T551 169H572Q538 83 463 37T297 -10H294L256
-68Q263 -67 278 -67Q302 -67 318 -78T334 -110Q334 -117 333 -121Q327 -154 299 -170T228 -186Q201 -186 177 -180L189 -162Q209 -166 235 -166Q298 -166 306 -119Q313 -87 261 -87Q243 -87 227 -89L221 -79L267 -9Q170 -1 119 60T68 230Q68 286 81 350Q104 465
157 546T288 668T458 710Q517 710 557 691T620 649Q621 648 623 646T628 644Q636 644 640 663L649 705H668Z" />
<glyph unicode="&#xc8;" glyph-name="Egrave" horiz-adv-x="536" d="M350 869T352 883Q353 889 358 893T369 897Q378 897 392 885L476 798L468 788L363 860Q350 869 352 883ZM588 700L557 546H544Q550 578 550 605Q550 676 504 676H233L174 385H378Q406 385 420
410T448 488H462L415 258H401Q407 300 407 316Q407 361 373 361H169L101 24H376Q413 24 439 70T480 166H492L445 0H-19L-17 14H9Q67 14 74 47L198 653Q205 686 146 686H120L123 700H588Z" />
<glyph unicode="&#xc9;" glyph-name="Eacute" horiz-adv-x="536" d="M342 788L337 798L458 885Q464 890 471 893T485 897Q491 897 493 893T495 883Q493 868 475 860L342 788ZM588 700L557 546H544Q550 578 550 605Q550 676 504 676H233L174 385H378Q406 385 420
410T448 488H462L415 258H401Q407 300 407 316Q407 361 373 361H169L101 24H376Q413 24 439 70T480 166H492L445 0H-19L-17 14H9Q67 14 74 47L198 653Q205 686 146 686H120L123 700H588Z" />
<glyph unicode="&#xca;" glyph-name="Ecircumflex" horiz-adv-x="536" d="M308 787L298 803L415 899H438L515 803L498 787L429 862Q422 867 420 867Q415 867 408 862L308 787ZM588 700L557 546H544Q550 578 550 605Q550 676 504 676H233L174 385H378Q406 385 420
410T448 488H462L415 258H401Q407 300 407 316Q407 361 373 361H169L101 24H376Q413 24 439 70T480 166H492L445 0H-19L-17 14H9Q67 14 74 47L198 653Q205 686 146 686H120L123 700H588Z" />
<glyph unicode="&#xcb;" glyph-name="Edieresis" horiz-adv-x="536" d="M296 785T291 793T287 815Q290 829 299 837T321 845Q332 845 338 839T344 823Q344 806 333 796T308 785Q296 785 291 793ZM486 785T480 791T474 807Q474 824 484 834T509 845Q520 845 526
839T532 823Q532 806 522 796T496 785Q486 785 480 791ZM588 700L557 546H544Q550 578 550 605Q550 676 504 676H233L174 385H378Q406 385 420 410T448 488H462L415 258H401Q407 300 407 316Q407 361 373 361H169L101 24H376Q413 24 439 70T480 166H492L445 0H-19L-17
14H9Q67 14 74 47L198 653Q205 686 146 686H120L123 700H588Z" />
<glyph unicode="&#xcc;" glyph-name="Igrave" horiz-adv-x="263" d="M212 860Q200 869 202 883Q203 890 208 893T218 897Q225 897 230 894T241 885L325 798L317 788L212 860ZM-5 14H21Q81 14 86 47L210 653Q214 671 201 678T158 686H132L135 700H335L332 686H306Q248
686 241 653L117 47Q110 14 169 14H195L193 0H-7L-5 14Z" />
<glyph unicode="&#xcd;" glyph-name="Iacute" horiz-adv-x="263" d="M186 798L307 885Q313 890 320 893T334 897Q340 897 343 893T345 883Q343 869 324 860L191 788L186 798ZM-5 14H21Q81 14 86 47L210 653Q214 671 201 678T158 686H132L135 700H335L332 686H306Q248
686 241 653L117 47Q110 14 169 14H195L193 0H-7L-5 14Z" />
<glyph unicode="&#xce;" glyph-name="Icircumflex" horiz-adv-x="263" d="M147 803L264 899H287L364 803L348 787L278 862Q273 867 269 867Q264 867 257 862L157 787L147 803ZM-5 14H21Q81 14 86 47L210 653Q214 671 201 678T158 686H132L135 700H335L332 686H306Q248
686 241 653L117 47Q110 14 169 14H195L193 0H-7L-5 14Z" />
<glyph unicode="&#xcf;" glyph-name="Idieresis" horiz-adv-x="263" d="M145 785T140 793T136 815Q139 829 148 837T170 845Q181 845 187 839T193 823Q193 806 183 796T157 785Q145 785 140 793ZM333 785T328 793T324 815Q327 829 336 837T358 845Q369 845 375
839T381 823Q381 806 371 796T346 785Q333 785 328 793ZM-5 14H21Q81 14 86 47L210 653Q214 671 201 678T158 686H132L135 700H335L332 686H306Q248 686 241 653L117 47Q110 14 169 14H195L193 0H-7L-5 14Z" />
<glyph unicode="&#xd0;" glyph-name="Eth" horiz-adv-x="604" d="M503 700T557 642T611 472Q611 415 598 350Q563 182 475 91T254 0H-16L-14 14H12Q70 14 77 47L139 349H68L73 371H143L201 653Q204 670 191 678T149 686H123L126 700H397Q503 700 557 642ZM582
417T582 469Q582 569 535 623T393 678H237L174 371H393L388 349H170L103 22H256Q379 22 458 109T568 350Q582 417 582 469Z" />
<glyph unicode="&#xd1;" glyph-name="Ntilde" horiz-adv-x="698" d="M346 794Q359 833 382 852T433 871Q447 871 460 863T491 840Q510 825 521 819T544 812Q585 812 613 878L627 871Q597 788 537 788Q523 788 510 796T480 819Q462 834 451 841T426 848Q386 848
358 786L346 794ZM-8 14H18Q47 14 63 22T84 47L207 653Q211 670 198 678T156 686H130L132 700H272L525 51L648 653Q652 671 639 678T596 686H570L573 700H773L770 686H744Q686 686 679 653L546 0H516L249 677H243L114 47Q107 14 166 14H192L190 0H-10L-8 14Z" />
<glyph unicode="&#xd2;" glyph-name="Ograve" horiz-adv-x="676" d="M397 860Q385 869 387 883Q388 890 393 893T403 897Q414 897 426 885L511 798L502 788L397 860ZM182 -10T120 52T58 234Q58 289 71 350Q106 523 204 616T444 710Q558 710 620 647T682 465Q682
413 670 350Q634 177 536 84T297 -10Q182 -10 120 52ZM436 14T522 105T640 350Q653 415 653 462Q653 567 600 626T439 686Q305 686 219 595T101 350Q88 285 88 238Q88 133 141 74T301 14Q436 14 522 105Z" />
<glyph unicode="&#xd3;" glyph-name="Oacute" horiz-adv-x="676" d="M393 798L514 885Q530 897 540 897Q546 897 549 893T551 883Q549 869 531 860L397 788L393 798ZM182 -10T120 52T58 234Q58 289 71 350Q106 523 204 616T444 710Q558 710 620 647T682 465Q682
413 670 350Q634 177 536 84T297 -10Q182 -10 120 52ZM436 14T522 105T640 350Q653 415 653 462Q653 567 600 626T439 686Q305 686 219 595T101 350Q88 285 88 238Q88 133 141 74T301 14Q436 14 522 105Z" />
<glyph unicode="&#xd4;" glyph-name="Ocircumflex" horiz-adv-x="676" d="M353 803L470 899H493L570 803L554 787L485 862Q478 867 475 867Q471 867 464 862L364 787L353 803ZM182 -10T120 52T58 234Q58 289 71 350Q106 523 204 616T444 710Q558 710 620 647T682
465Q682 413 670 350Q634 177 536 84T297 -10Q182 -10 120 52ZM436 14T522 105T640 350Q653 415 653 462Q653 567 600 626T439 686Q305 686 219 595T101 350Q88 285 88 238Q88 133 141 74T301 14Q436 14 522 105Z" />
<glyph unicode="&#xd5;" glyph-name="Otilde" horiz-adv-x="676" d="M328 794Q342 833 365 852T416 871Q430 871 443 863T474 840Q493 825 504 819T527 812Q568 812 596 878L610 871Q579 788 519 788Q505 788 492 796T463 819Q442 835 432 841T409 848Q369 848
341 786L328 794ZM182 -10T120 52T58 234Q58 289 71 350Q106 523 204 616T444 710Q558 710 620 647T682 465Q682 413 670 350Q634 177 536 84T297 -10Q182 -10 120 52ZM436 14T522 105T640 350Q653 415 653 462Q653 567 600 626T439 686Q305 686 219 595T101 350Q88
285 88 238Q88 133 141 74T301 14Q436 14 522 105Z" />
<glyph unicode="&#xd6;" glyph-name="Odieresis" horiz-adv-x="676" d="M352 785T347 793T343 815Q346 829 355 837T376 845Q387 845 393 839T399 823Q399 818 398 815Q396 801 386 793T364 785Q352 785 347 793ZM542 785T536 791T530 807Q530 824 540 834T564
845Q577 845 583 837T587 815Q584 801 574 793T552 785Q542 785 536 791ZM182 -10T120 52T58 234Q58 289 71 350Q106 523 204 616T444 710Q558 710 620 647T682 465Q682 413 670 350Q634 177 536 84T297 -10Q182 -10 120 52ZM436 14T522 105T640 350Q653 415 653
462Q653 567 600 626T439 686Q305 686 219 595T101 350Q88 285 88 238Q88 133 141 74T301 14Q436 14 522 105Z" />
<glyph unicode="&#xd7;" glyph-name="multiply" horiz-adv-x="537" d="M69 170L282 355L144 540L168 561L305 376L521 561L535 540L322 355L460 170L437 149L297 334L84 149L69 170Z" />
<glyph unicode="&#xd8;" glyph-name="Oslash" horiz-adv-x="676" d="M638 627Q683 565 683 465Q683 418 670 350Q634 177 536 84T297 -10Q177 -10 115 58L53 -10L30 4L99 79Q58 138 58 233Q58 289 71 350Q106 523 204 616T444 710Q560 710 620 647L689 722L713
709L638 627ZM89 290T89 238Q89 155 120 102L600 625Q545 686 439 686Q305 686 219 595T101 350Q89 290 89 238ZM653 415T653 462Q653 549 617 604L135 80Q190 14 301 14Q436 14 522 105T640 350Q653 415 653 462Z" />
<glyph unicode="&#xd9;" glyph-name="Ugrave" horiz-adv-x="662" d="M412 860Q399 869 401 883Q402 889 407 893T418 897Q427 897 441 885L525 798L516 788L412 860ZM197 -10T149 21T100 129Q100 160 107 192L201 653Q204 670 191 678T156 686H139L142 700H309L306
686H290Q268 686 251 678T231 653L137 189Q131 158 131 134Q131 66 175 40T301 14Q489 14 525 189L619 653Q622 670 609 678T574 686H558L561 700H728L725 686H708Q687 686 670 678T650 653L556 192Q533 81 467 36T290 -10Q197 -10 149 21Z" />
<glyph unicode="&#xda;" glyph-name="Uacute" horiz-adv-x="662" d="M386 798L507 885Q513 890 520 893T534 897Q539 897 542 893T544 883Q542 868 524 860L391 788L386 798ZM197 -10T149 21T100 129Q100 160 107 192L201 653Q204 670 191 678T156 686H139L142
700H309L306 686H290Q268 686 251 678T231 653L137 189Q131 158 131 134Q131 66 175 40T301 14Q489 14 525 189L619 653Q622 670 609 678T574 686H558L561 700H728L725 686H708Q687 686 670 678T650 653L556 192Q533 81 467 36T290 -10Q197 -10 149 21Z" />
<glyph unicode="&#xdb;" glyph-name="Ucircumflex" horiz-adv-x="662" d="M347 803L464 899H487L564 803L547 787L478 862Q471 867 468 867Q464 867 457 862L357 787L347 803ZM197 -10T149 21T100 129Q100 160 107 192L201 653Q204 670 191 678T156 686H139L142
700H309L306 686H290Q268 686 251 678T231 653L137 189Q131 158 131 134Q131 66 175 40T301 14Q489 14 525 189L619 653Q622 670 609 678T574 686H558L561 700H728L725 686H708Q687 686 670 678T650 653L556 192Q533 81 467 36T290 -10Q197 -10 149 21Z" />
<glyph unicode="&#xdc;" glyph-name="Udieresis" horiz-adv-x="662" d="M345 785T340 793T336 815Q339 829 348 837T370 845Q381 845 387 839T393 823Q393 806 382 796T357 785Q345 785 340 793ZM535 785T529 791T523 807Q523 824 533 834T558 845Q569 845 575
839T581 823Q581 806 571 796T545 785Q535 785 529 791ZM197 -10T149 21T100 129Q100 160 107 192L201 653Q204 670 191 678T156 686H139L142 700H309L306 686H290Q268 686 251 678T231 653L137 189Q131 158 131 134Q131 66 175 40T301 14Q489 14 525 189L619 653Q622
670 609 678T574 686H558L561 700H728L725 686H708Q687 686 670 678T650 653L556 192Q533 81 467 36T290 -10Q197 -10 149 21Z" />
<glyph unicode="&#xdd;" glyph-name="Yacute" horiz-adv-x="617" d="M368 826L489 913Q505 925 516 925Q521 925 524 921T526 911Q524 897 506 888L372 816L368 826ZM166 14H192Q250 14 257 47L309 297L182 652Q178 665 160 675T124 686H110L113 700H293L290 686H276Q259
686 237 678T213 659Q211 657 213 655L329 320L594 655Q603 666 582 676T540 686H529L532 700H711L708 686H695Q677 686 656 676T623 652L340 297L288 47Q284 29 297 22T340 14H366L364 0H164L166 14Z" />
<glyph unicode="&#xde;" glyph-name="Thorn" horiz-adv-x="526" d="M-8 14H18Q47 14 63 22T84 47L207 653Q211 670 198 678T156 686H130L132 700H248L225 584H398Q553 584 553 443Q553 413 545 375Q525 278 468 222T313 165H139L114 47Q107 14 166 14H192L190
0H-10L-8 14ZM319 189Q401 189 449 239T516 375Q523 414 523 437Q523 495 492 527T395 560H220L144 189H319Z" />
<glyph unicode="&#xdf;" glyph-name="germandbls" horiz-adv-x="593" d="M334 313T361 292T443 246Q499 221 527 198T556 134Q556 119 554 111Q542 53 494 22T378 -10Q312 -10 277 15T242 80Q242 85 244 99Q246 108 252 115T269 123Q278 123 282 117T285 100Q284
97 282 93T279 83Q277 71 286 54T317 25T375 12Q440 12 478 38T526 111Q528 123 528 127Q528 158 503 176T427 218Q387 236 363 250T321 288T303 344Q303 356 306 371Q319 434 372 457T492 480Q503 535 503 572Q503 701 376 701Q323 701 282 670T227 576L79 -146L49
-151L172 449H68L72 470H176L198 575Q212 645 262 684T380 723Q465 723 498 681T531 577Q531 542 521 494L514 458Q419 458 377 431T334 350Q334 313 361 292Z" />
<glyph unicode="&#xe0;" glyph-name="agrave" horiz-adv-x="483" d="M273 618Q260 627 262 641Q263 647 268 651T278 655Q289 655 301 643L386 556L377 546L273 618ZM32 -10T32 119Q32 158 43 216Q74 370 150 425T300 480Q343 480 379 466T427 425L436 470H466L378
40Q376 30 376 26Q376 11 391 11Q399 11 423 19L421 11Q397 -10 372 -10Q360 -10 353 -3T345 17Q345 24 346 28L364 114Q300 45 237 18T131 -10Q32 -10 32 119ZM178 12T222 35T308 92T371 150L416 368Q413 413 379 435T290 458Q256 458 214 440T132 368T72 216Q62
167 62 130Q62 67 86 40T148 12Q178 12 222 35Z" />
<glyph unicode="&#xe1;" glyph-name="aacute" horiz-adv-x="483" d="M245 556L366 643Q382 655 393 655Q398 655 401 651T403 641Q401 626 383 618L250 546L245 556ZM32 -10T32 119Q32 158 43 216Q74 370 150 425T300 480Q343 480 379 466T427 425L436 470H466L378
40Q376 30 376 26Q376 11 391 11Q399 11 423 19L421 11Q397 -10 372 -10Q360 -10 353 -3T345 17Q345 24 346 28L364 114Q300 45 237 18T131 -10Q32 -10 32 119ZM178 12T222 35T308 92T371 150L416 368Q413 413 379 435T290 458Q256 458 214 440T132 368T72 216Q62
167 62 130Q62 67 86 40T148 12Q178 12 222 35Z" />
<glyph unicode="&#xe2;" glyph-name="acircumflex" horiz-adv-x="483" d="M206 561L324 657H347L423 561L407 545L338 620Q331 625 328 625Q324 625 317 620L217 545L206 561ZM32 -10T32 119Q32 158 43 216Q74 370 150 425T300 480Q343 480 379 466T427 425L436
470H466L378 40Q376 30 376 26Q376 11 391 11Q399 11 423 19L421 11Q397 -10 372 -10Q360 -10 353 -3T345 17Q345 24 346 28L364 114Q300 45 237 18T131 -10Q32 -10 32 119ZM178 12T222 35T308 92T371 150L416 368Q413 413 379 435T290 458Q256 458 214 440T132
368T72 216Q62 167 62 130Q62 67 86 40T148 12Q178 12 222 35Z" />
<glyph unicode="&#xe3;" glyph-name="atilde" horiz-adv-x="483" d="M183 562Q197 601 220 620T271 639Q285 639 298 631T329 608Q348 593 359 587T382 580Q423 580 451 646L465 639Q434 556 374 556Q360 556 347 564T318 587Q297 603 287 609T264 616Q224 616
196 554L183 562ZM32 -10T32 119Q32 158 43 216Q74 370 150 425T300 480Q343 480 379 466T427 425L436 470H466L378 40Q376 30 376 26Q376 11 391 11Q399 11 423 19L421 11Q397 -10 372 -10Q360 -10 353 -3T345 17Q345 24 346 28L364 114Q300 45 237 18T131 -10Q32
-10 32 119ZM178 12T222 35T308 92T371 150L416 368Q413 413 379 435T290 458Q256 458 214 440T132 368T72 216Q62 167 62 130Q62 67 86 40T148 12Q178 12 222 35Z" />
<glyph unicode="&#xe4;" glyph-name="adieresis" horiz-adv-x="483" d="M205 543T200 551T196 573Q199 587 208 595T229 603Q242 603 248 595T252 573Q249 559 239 551T217 543Q205 543 200 551ZM395 543T389 549T383 565Q383 582 393 592T418 603Q429 603 435
597T441 581Q441 564 430 554T405 543Q395 543 389 549ZM32 -10T32 119Q32 158 43 216Q74 370 150 425T300 480Q343 480 379 466T427 425L436 470H466L378 40Q376 30 376 26Q376 11 391 11Q399 11 423 19L421 11Q397 -10 372 -10Q360 -10 353 -3T345 17Q345 24
346 28L364 114Q300 45 237 18T131 -10Q32 -10 32 119ZM178 12T222 35T308 92T371 150L416 368Q413 413 379 435T290 458Q256 458 214 440T132 368T72 216Q62 167 62 130Q62 67 86 40T148 12Q178 12 222 35Z" />
<glyph unicode="&#xe5;" glyph-name="aring" horiz-adv-x="483" d="M293 542T277 557T260 598Q260 604 262 616Q268 649 293 669T350 690Q377 690 394 674T411 633Q411 594 384 568T320 542Q293 542 277 557ZM347 561T364 576T386 616Q388 626 388 630Q388 649
377 660T346 671Q323 671 306 656T285 616Q283 604 283 600Q283 582 294 572T324 561Q347 561 364 576ZM32 -10T32 119Q32 158 43 216Q74 370 150 425T300 480Q343 480 379 466T427 425L436 470H466L378 40Q376 30 376 26Q376 11 391 11Q399 11 423 19L421 11Q397
-10 372 -10Q360 -10 353 -3T345 17Q345 24 346 28L364 114Q300 45 237 18T131 -10Q32 -10 32 119ZM178 12T222 35T308 92T371 150L416 368Q413 413 379 435T290 458Q256 458 214 440T132 368T72 216Q62 167 62 130Q62 67 86 40T148 12Q178 12 222 35Z" />
<glyph unicode="&#xe6;" glyph-name="ae" horiz-adv-x="726" d="M59 -10T38 10T16 67Q16 81 19 96Q48 236 331 281Q345 324 365 355Q366 362 366 374Q366 416 338 437T261 458Q223 458 184 442T141 408L138 382Q132 353 110 353Q93 353 93 373Q93 381 94 385Q101
416 130 437T198 469T272 480Q326 480 358 459T396 399Q431 439 476 459T573 480Q654 480 692 450T730 370Q730 354 728 345Q706 242 587 204T342 162Q343 91 378 52T472 12Q536 12 588 50T667 165H685Q661 85 606 38T467 -10Q412 -10 375 15T322 88Q268 33 208
12T106 -10Q59 -10 38 10ZM478 190T581 227T701 344Q703 358 703 364Q703 404 673 431T571 458Q485 458 427 396T348 235L345 215L342 185Q478 190 581 227ZM168 12T226 43T316 111Q311 134 311 158Q311 193 320 235L324 256Q209 237 135 196T48 98Q46 90 46 75Q46
44 66 28T123 12Q168 12 226 43Z" />
<glyph unicode="&#xe7;" glyph-name="ccedilla" horiz-adv-x="435" d="M361 480T397 455T433 390Q433 383 431 371Q429 362 423 355T406 347Q397 347 393 353T390 370Q391 375 393 379T396 387Q398 399 388 416T355 445T296 458Q210 458 150 398T68 235Q61 200
61 166Q61 93 95 53T189 12Q253 12 303 50T381 165H399Q375 85 322 38T187 -10L150 -68Q156 -67 172 -67Q196 -67 212 -79T228 -112Q228 -118 227 -121Q220 -154 192 -170T122 -186Q94 -186 70 -180L83 -162Q103 -166 129 -166Q190 -166 200 -119Q206 -87 155 -87Q138
-87 120 -89L114 -79L160 -9Q98 -2 65 41T31 158Q31 190 39 235Q64 352 132 416T296 480Q361 480 397 455Z" />
<glyph unicode="&#xe8;" glyph-name="egrave" horiz-adv-x="445" d="M242 627T244 641Q245 648 250 651T260 655Q267 655 272 652T283 643L368 556L359 546L254 618Q242 627 244 641ZM426 243T307 205T61 163Q62 92 97 52T192 12Q256 12 307 50T387 165H405Q381
85 326 38T186 -10Q112 -10 72 34T31 160Q31 192 39 235Q63 351 131 415T293 480Q373 480 411 450T450 371Q450 359 447 345Q426 243 307 205ZM206 191T314 233T422 366Q422 405 392 431T291 458Q205 458 147 396T68 235Q62 201 61 186Q206 191 314 233Z" />
<glyph unicode="&#xe9;" glyph-name="eacute" horiz-adv-x="445" d="M231 546L227 556L348 643Q364 655 374 655Q380 655 383 651T385 641Q383 627 365 618L231 546ZM426 243T307 205T61 163Q62 92 97 52T192 12Q256 12 307 50T387 165H405Q381 85 326 38T186
-10Q112 -10 72 34T31 160Q31 192 39 235Q63 351 131 415T293 480Q373 480 411 450T450 371Q450 359 447 345Q426 243 307 205ZM206 191T314 233T422 366Q422 405 392 431T291 458Q205 458 147 396T68 235Q62 201 61 186Q206 191 314 233Z" />
<glyph unicode="&#xea;" glyph-name="ecircumflex" horiz-adv-x="445" d="M200 545L189 561L306 657H329L406 561L390 545L321 620Q314 625 311 625Q305 625 300 620L200 545ZM426 243T307 205T61 163Q62 92 97 52T192 12Q256 12 307 50T387 165H405Q381 85 326
38T186 -10Q112 -10 72 34T31 160Q31 192 39 235Q63 351 131 415T293 480Q373 480 411 450T450 371Q450 359 447 345Q426 243 307 205ZM206 191T314 233T422 366Q422 405 392 431T291 458Q205 458 147 396T68 235Q62 201 61 186Q206 191 314 233Z" />
<glyph unicode="&#xeb;" glyph-name="edieresis" horiz-adv-x="445" d="M192 543T187 551T183 573Q186 587 195 595T217 603Q228 603 234 597T240 581Q240 564 230 554T204 543Q192 543 187 551ZM383 543T377 548T371 564Q371 570 372 573Q374 587 383 595T405
603Q416 603 422 597T428 581Q428 564 418 554T393 543Q383 543 377 548ZM426 243T307 205T61 163Q62 92 97 52T192 12Q256 12 307 50T387 165H405Q381 85 326 38T186 -10Q112 -10 72 34T31 160Q31 192 39 235Q63 351 131 415T293 480Q373 480 411 450T450 371Q450
359 447 345Q426 243 307 205ZM206 191T314 233T422 366Q422 405 392 431T291 458Q205 458 147 396T68 235Q62 201 61 186Q206 191 314 233Z" />
<glyph unicode="&#xec;" glyph-name="igrave" horiz-adv-x="236" d="M150 618Q137 627 139 641Q140 647 145 651T156 655Q165 655 179 643L263 556L254 546L150 618ZM84 -10T77 -3T69 18Q69 24 70 28L153 430V433Q153 442 143 442Q136 442 125 439T107 431L105
443L174 473H190L102 40Q100 30 100 27Q100 11 115 11Q122 11 148 19L146 11Q134 1 121 -4T97 -10Q84 -10 77 -3Z" />
<glyph unicode="&#xed;" glyph-name="iacute" horiz-adv-x="236" d="M122 556L243 643Q249 648 256 651T270 655Q275 655 278 651T280 641Q278 626 260 618L127 546L122 556ZM84 -10T77 -3T69 18Q69 24 70 28L153 430V433Q153 442 143 442Q136 442 125 439T107
431L105 443L174 473H190L102 40Q100 30 100 27Q100 11 115 11Q122 11 148 19L146 11Q134 1 121 -4T97 -10Q84 -10 77 -3Z" />
<glyph unicode="&#xee;" glyph-name="icircumflex" horiz-adv-x="236" d="M84 561L202 657H225L301 561L285 545L216 620Q209 625 206 625Q202 625 195 620L95 545L84 561ZM84 -10T77 -3T69 18Q69 24 70 28L153 430V433Q153 442 143 442Q136 442 125 439T107 431L105
443L174 473H190L102 40Q100 30 100 27Q100 11 115 11Q122 11 148 19L146 11Q134 1 121 -4T97 -10Q84 -10 77 -3Z" />
<glyph unicode="&#xef;" glyph-name="idieresis" horiz-adv-x="236" d="M83 543T78 551T74 573Q77 587 86 595T108 603Q120 603 126 595T130 573Q127 559 117 551T95 543Q83 543 78 551ZM273 543T267 549T261 565Q261 582 271 592T296 603Q307 603 313 597T319
581Q319 564 309 554T283 543Q273 543 267 549ZM84 -10T77 -3T69 18Q69 24 70 28L153 430V433Q153 442 143 442Q136 442 125 439T107 431L105 443L174 473H190L102 40Q100 30 100 27Q100 11 115 11Q122 11 148 19L146 11Q134 1 121 -4T97 -10Q84 -10 77 -3Z" />
<glyph unicode="&#xf0;" glyph-name="eth" horiz-adv-x="524" d="M401 687Q450 629 476 553T502 394Q502 341 492 294Q462 151 388 71T203 -10Q125 -10 84 42T42 176Q42 208 50 248Q63 309 99 367T190 464T313 502Q370 502 413 477T476 398Q474 471 450 544T377
674L213 586L210 605L364 689Q324 731 272 758L287 776Q344 748 388 701Q483 753 515 772L524 753L401 687ZM460 298T460 318Q460 388 421 434T313 480Q260 480 212 450T129 368T80 248Q73 214 73 179Q73 105 108 59T210 12Q271 12 321 46T406 140T455 271Q460
298 460 318Z" />
<glyph unicode="&#xf1;" glyph-name="ntilde" horiz-adv-x="521" d="M235 606T206 544L194 552Q207 591 230 610T281 629Q296 629 308 622T340 598Q357 584 368 577T393 570Q414 570 431 587T462 636L475 629Q445 546 385 546Q371 546 358 554T329 577Q308 593
298 599T275 606Q235 606 206 544ZM468 480T468 389Q468 373 463 348L400 40Q398 30 398 27Q398 11 414 11Q422 11 446 19L444 11Q420 -10 396 -10Q383 -10 376 -3T368 17Q368 24 369 28L434 345Q438 362 438 379Q438 419 414 438T347 458Q298 458 252 421T173
330T126 225L81 0L49 -10L138 427V431Q138 439 130 439Q117 439 92 428L90 440L159 470H176L144 314Q177 379 232 429T351 480Q468 480 468 389Z" />
<glyph unicode="&#xf2;" glyph-name="ograve" horiz-adv-x="485" d="M275 618Q262 627 264 641Q265 647 270 651T280 655Q291 655 303 643L388 556L379 546L275 618ZM122 -10T77 36T32 165Q32 200 39 235Q63 349 134 414T302 480Q382 480 426 435T471 307Q471
277 463 235Q440 121 369 56T202 -10Q122 -10 77 36ZM291 12T353 71T436 235Q444 275 444 304Q444 377 406 417T298 458Q212 458 151 399T67 235Q60 200 60 167Q60 93 98 53T206 12Q291 12 353 71Z" />
<glyph unicode="&#xf3;" glyph-name="oacute" horiz-adv-x="485" d="M247 556L368 643Q384 655 395 655Q400 655 403 651T405 641Q403 627 385 618L252 546L247 556ZM122 -10T77 36T32 165Q32 200 39 235Q63 349 134 414T302 480Q382 480 426 435T471 307Q471
277 463 235Q440 121 369 56T202 -10Q122 -10 77 36ZM291 12T353 71T436 235Q444 275 444 304Q444 377 406 417T298 458Q212 458 151 399T67 235Q60 200 60 167Q60 93 98 53T206 12Q291 12 353 71Z" />
<glyph unicode="&#xf4;" glyph-name="ocircumflex" horiz-adv-x="485" d="M208 561L325 657H348L425 561L409 545L340 620Q333 625 330 625Q326 625 319 620L219 545L208 561ZM122 -10T77 36T32 165Q32 200 39 235Q63 349 134 414T302 480Q382 480 426 435T471
307Q471 277 463 235Q440 121 369 56T202 -10Q122 -10 77 36ZM291 12T353 71T436 235Q444 275 444 304Q444 377 406 417T298 458Q212 458 151 399T67 235Q60 200 60 167Q60 93 98 53T206 12Q291 12 353 71Z" />
<glyph unicode="&#xf5;" glyph-name="otilde" horiz-adv-x="485" d="M183 552Q197 591 220 610T271 629Q285 629 298 621T329 598Q348 583 359 577T382 570Q423 570 451 636L465 629Q434 546 374 546Q360 546 347 554T318 577Q297 593 287 599T264 606Q224 606
196 544L183 552ZM122 -10T77 36T32 165Q32 200 39 235Q63 349 134 414T302 480Q382 480 426 435T471 307Q471 277 463 235Q440 121 369 56T202 -10Q122 -10 77 36ZM291 12T353 71T436 235Q444 275 444 304Q444 377 406 417T298 458Q212 458 151 399T67 235Q60
200 60 167Q60 93 98 53T206 12Q291 12 353 71Z" />
<glyph unicode="&#xf6;" glyph-name="odieresis" horiz-adv-x="485" d="M207 543T202 551T198 573Q201 587 210 595T231 603Q242 603 248 597T254 581Q254 576 253 573Q251 559 241 551T219 543Q207 543 202 551ZM397 543T391 549T385 565Q385 582 395 592T420
603Q432 603 438 595T442 573Q439 559 429 551T407 543Q397 543 391 549ZM122 -10T77 36T32 165Q32 200 39 235Q63 349 134 414T302 480Q382 480 426 435T471 307Q471 277 463 235Q440 121 369 56T202 -10Q122 -10 77 36ZM291 12T353 71T436 235Q444 275 444 304Q444
377 406 417T298 458Q212 458 151 399T67 235Q60 200 60 167Q60 93 98 53T206 12Q291 12 353 71Z" />
<glyph unicode="&#xf7;" glyph-name="divide" horiz-adv-x="537" d="M312 478T305 487T300 512Q304 528 315 537T342 546Q355 546 362 539T370 521Q370 502 358 490T327 478Q312 478 305 487ZM102 368H508L503 344H97L102 368ZM249 166T242 173T234 192Q234 211
246 222T276 234Q289 234 296 227T304 209Q304 203 303 200Q301 184 290 175T262 166Q249 166 242 173Z" />
<glyph unicode="&#xf8;" glyph-name="oslash" horiz-adv-x="485" d="M471 390T471 307Q471 277 463 235Q440 121 369 56T202 -10Q144 -10 105 14L69 -33L49 -19L85 28Q32 73 32 165Q32 200 39 235Q63 349 134 414T302 480Q365 480 406 451L446 504L468 491L426
435Q471 390 471 307ZM60 200T60 167Q60 90 101 49L391 431Q355 458 298 458Q212 458 151 399T67 235Q60 200 60 167ZM443 270T443 304Q443 376 409 414L120 34Q156 12 206 12Q291 12 353 71T436 235Q443 270 443 304Z" />
<glyph unicode="&#xf9;" glyph-name="ugrave" horiz-adv-x="513" d="M275 627T277 641Q278 647 283 651T294 655Q303 655 317 643L401 556L393 546L288 618Q275 627 277 641ZM388 30T388 27Q388 11 403 11Q410 11 436 19L434 11Q422 1 409 -4T385 -10Q372 -10
365 -3T357 18Q357 24 358 28L369 80Q342 45 295 18T188 -10Q126 -10 94 17T62 92Q62 106 65 122L128 427V431Q128 439 119 439Q112 439 101 436T82 428L80 440L149 470H165L97 132Q93 116 93 98Q93 56 118 34T192 12Q232 12 272 29T342 79T384 154L440 427V431Q440
439 431 439Q424 439 413 436T394 428L392 440L461 470H477L390 40Q388 30 388 27Z" />
<glyph unicode="&#xfa;" glyph-name="uacute" horiz-adv-x="513" d="M265 546L260 556L381 643Q387 648 394 651T408 655Q419 655 419 643Q419 637 414 630T398 618L265 546ZM388 30T388 27Q388 11 403 11Q410 11 436 19L434 11Q422 1 409 -4T385 -10Q372 -10
365 -3T357 18Q357 24 358 28L369 80Q342 45 295 18T188 -10Q126 -10 94 17T62 92Q62 106 65 122L128 427V431Q128 439 119 439Q112 439 101 436T82 428L80 440L149 470H165L97 132Q93 116 93 98Q93 56 118 34T192 12Q232 12 272 29T342 79T384 154L440 427V431Q440
439 431 439Q424 439 413 436T394 428L392 440L461 470H477L390 40Q388 30 388 27Z" />
<glyph unicode="&#xfb;" glyph-name="ucircumflex" horiz-adv-x="513" d="M233 545L223 561L340 657H363L440 561L423 545L354 620Q347 625 345 625Q340 625 333 620L233 545ZM388 30T388 27Q388 11 403 11Q410 11 436 19L434 11Q422 1 409 -4T385 -10Q372 -10
365 -3T357 18Q357 24 358 28L369 80Q342 45 295 18T188 -10Q126 -10 94 17T62 92Q62 106 65 122L128 427V431Q128 439 119 439Q112 439 101 436T82 428L80 440L149 470H165L97 132Q93 116 93 98Q93 56 118 34T192 12Q232 12 272 29T342 79T384 154L440 427V431Q440
439 431 439Q424 439 413 436T394 428L392 440L461 470H477L390 40Q388 30 388 27Z" />
<glyph unicode="&#xfc;" glyph-name="udieresis" horiz-adv-x="513" d="M221 543T216 551T212 573Q215 587 224 595T246 603Q257 603 263 597T269 581Q269 564 259 554T233 543Q221 543 216 551ZM411 543T405 549T399 565Q399 582 409 592T434 603Q445 603 451
597T457 581Q457 564 447 554T421 543Q411 543 405 549ZM388 30T388 27Q388 11 403 11Q410 11 436 19L434 11Q422 1 409 -4T385 -10Q372 -10 365 -3T357 18Q357 24 358 28L369 80Q342 45 295 18T188 -10Q126 -10 94 17T62 92Q62 106 65 122L128 427V431Q128 439
119 439Q112 439 101 436T82 428L80 440L149 470H165L97 132Q93 116 93 98Q93 56 118 34T192 12Q232 12 272 29T342 79T384 154L440 427V431Q440 439 431 439Q424 439 413 436T394 428L392 440L461 470H477L390 40Q388 30 388 27Z" />
<glyph unicode="&#xfd;" glyph-name="yacute" horiz-adv-x="477" d="M240 546L235 556L356 643Q362 648 369 651T383 655Q389 655 392 651T394 641Q392 627 373 618L240 546ZM440 480T455 459T470 404Q470 391 467 377Q458 340 444 320L128 -120Q91 -170 59 -201T-4
-233Q-16 -233 -26 -227T-35 -208Q-32 -198 -26 -191T-9 -183Q-2 -183 6 -190T19 -197Q32 -197 58 -172T107 -113L200 16L123 429Q121 439 106 439Q93 439 68 428L66 440L131 470H147L221 46L418 321Q433 345 442 377Q444 393 444 398Q444 424 432 439T398 469Q407
480 421 480Q440 480 455 459Z" />
<glyph unicode="&#xfe;" glyph-name="thorn" horiz-adv-x="513" d="M188 660V663Q188 672 179 672Q167 672 142 661L140 673L209 703H226L151 337Q184 395 239 437T355 480Q503 480 503 333Q503 292 493 248Q467 115 402 53T234 -10Q180 -10 142 16T98 76L36 -227L6
-232L188 660ZM337 12T390 75T464 243Q474 289 474 329Q474 393 444 425T351 458Q307 458 265 429T188 353T135 259L114 158Q111 143 111 129Q111 78 146 45T247 12Q337 12 390 75Z" />
<glyph unicode="&#xff;" glyph-name="ydieresis" horiz-adv-x="477" d="M201 543T204 573Q207 587 216 595T238 603Q249 603 255 597T261 581Q261 564 251 554T226 543Q201 543 204 573ZM404 543T398 548T392 564Q392 570 393 573Q395 587 404 595T426 603Q437
603 443 597T449 581Q449 564 439 554T414 543Q404 543 398 548ZM440 480T455 459T470 404Q470 391 467 377Q458 340 444 320L128 -120Q91 -170 59 -201T-4 -233Q-16 -233 -26 -227T-35 -208Q-32 -198 -26 -191T-9 -183Q-2 -183 6 -190T19 -197Q32 -197 58 -172T107
-113L200 16L123 429Q121 439 106 439Q93 439 68 428L66 440L131 470H147L221 46L418 321Q433 345 442 377Q444 393 444 398Q444 424 432 439T398 469Q407 480 421 480Q440 480 455 459Z" />
<glyph unicode="&#x2013;" glyph-name="endash" horiz-adv-x="529" d="M57 287H513L507 263H51L57 287Z" />
<glyph unicode="&#x2014;" glyph-name="emdash" horiz-adv-x="819" d="M57 287H803L797 263H51L57 287Z" />
<glyph unicode="&#x2018;" glyph-name="quoteleft" horiz-adv-x="214" d="M152 539T152 565Q152 570 154 582Q168 655 244 710L250 700Q203 661 195 622Q193 613 195 607T202 594Q210 584 210 575Q210 559 200 549T175 539Q152 539 152 565Z" />
<glyph unicode="&#x2019;" glyph-name="quoteright" horiz-adv-x="214" d="M141 549Q188 588 197 627Q199 636 197 642T189 655Q184 662 182 667T181 681Q184 694 194 702T216 710Q239 710 239 684Q239 681 237 667Q223 594 147 539L141 549Z" />
<glyph unicode="&#x201a;" glyph-name="quotesinglbase" horiz-adv-x="214" d="M26 -17Q73 22 81 61Q82 70 80 76T73 89Q65 99 65 108Q65 124 75 134T101 144Q124 144 124 117Q124 113 122 101Q107 28 32 -27L26 -17Z" />
<glyph unicode="&#x201c;" glyph-name="quotedblleft" horiz-adv-x="320" d="M152 539T152 565Q152 570 154 582Q168 655 244 710L250 700Q203 661 195 622Q193 613 195 607T202 594Q210 584 210 575Q210 559 200 549T175 539Q152 539 152 565ZM257 539T257 566Q257
570 259 582Q274 655 349 710L355 700Q308 661 300 622Q299 613 301 607T308 594Q316 584 316 575Q316 559 306 549T280 539Q257 539 257 566Z" />
<glyph unicode="&#x201d;" glyph-name="quotedblright" horiz-adv-x="320" d="M141 549Q188 588 197 627Q199 636 197 642T189 655Q184 662 182 667T181 681Q184 694 194 702T216 710Q239 710 239 684Q239 681 237 667Q223 594 147 539L141 549ZM247 549Q294 588
302 627Q304 637 302 643T294 655Q291 659 289 664T286 675Q286 690 296 700T322 710Q345 710 345 683Q345 679 343 667Q328 593 252 539L247 549Z" />
<glyph unicode="&#x201e;" glyph-name="quotedblbase" horiz-adv-x="320" d="M26 -17Q73 22 81 61Q82 70 80 76T73 89Q65 99 65 108Q65 124 75 134T101 144Q124 144 124 117Q124 113 122 101Q107 28 32 -27L26 -17ZM132 -17Q178 21 186 61Q188 70 186 76T179 89Q171
99 171 108Q171 124 181 134T206 144Q229 144 229 116Q229 107 228 101Q213 27 137 -27L132 -17Z" />
<glyph unicode="&#x2022;" glyph-name="bullet" horiz-adv-x="240" d="M107 310T107 349Q107 359 108 365Q120 421 168 421Q205 421 205 383Q205 349 188 330T145 310Q107 310 107 349Z" />
<glyph unicode="&#x2039;" glyph-name="guilsinglleft" horiz-adv-x="240" d="M49 257L52 269L244 453L254 435L97 263L184 91L166 73L49 257Z" />
<glyph unicode="&#x203a;" glyph-name="guilsinglright" horiz-adv-x="240" d="M15 91L172 263L85 435L104 453L221 269L218 257L26 73L15 91Z" />
</font>
</defs>
</svg>
