<?xml version="1.0" standalone="no"?>
<!DOCTYPE svg PUBLIC "-//W3C//DTD SVG 1.1//EN" "http://www.w3.org/Graphics/SVG/1.1/DTD/svg11.dtd">
<svg xmlns="http://www.w3.org/2000/svg">
<defs >
<font id="Rasa" horiz-adv-x="1413" ><font-face
    font-family="Rasa"
    units-per-em="2750"
    panose-1="2 13 0 0 0 4 0 0 0 0"
    ascent="2300"
    descent="-1050"
    alphabetic="0" />
<glyph unicode=" " glyph-name="space" horiz-adv-x="517" />
<glyph unicode="!" glyph-name="exclam" horiz-adv-x="710" d="M156 1501V1712H554V1501L463 508H247L156 1501ZM556 163Q556 82 501 33T355 -16Q264 -16 209 33T154 163Q154 245 209 294T355 343Q446 343 501 294T556 163Z" />
<glyph unicode="&quot;" glyph-name="quotedbl" horiz-adv-x="1120" d="M741 852L689 1729H1008L955 852H741ZM164 852L112 1729H431L378 852H164Z" />
<glyph unicode="#" glyph-name="numbersign" horiz-adv-x="1504" d="M590 530H856L895 860H625L590 530ZM258 0L299 350H93L90 530H322L359 860H124L125 1040H386L421 1373H689L654 1040H923L959 1373H1228L1191 1040H1418L1417 860H1164L1131 530H1373L1374 350H1108L1069
0H801L838 350H567L528 0H258Z" />
<glyph unicode="$" glyph-name="dollar" horiz-adv-x="1232" d="M672 -209H475V23Q365 34 268 62T101 121Q96 218 104 325T127 510H339L377 296Q381 272 391 258T416 231Q444 208 495 188T612 167Q699 167 749 207T800 314Q800 361 774 396T705 462T602 520T478
578Q403 613 336 651T220 736T141 842T111 978Q111 1051 139 1117T224 1234T368 1319T570 1361V1591H767V1358Q849 1350 928 1332T1069 1291Q1076 1204 1070 1108T1049 925H843L801 1116Q796 1141 788 1156T762 1185Q738 1203 701 1212T620 1221Q536 1221 493 1183T449
1088Q449 1043 474 1010T541 949T642 895T767 837Q940 755 1048 663T1156 423Q1156 354 1129 285T1044 160T894 66T672 18V-209Z" />
<glyph unicode="%" glyph-name="percent" horiz-adv-x="2072" d="M903 1143Q903 1030 868 944T774 800T637 714T473 685Q281 685 175 803T69 1115Q69 1228 104 1314T198 1458T335 1544T500 1573Q691 1573 797 1455T903 1143ZM671 0H434L1403 1562H1640L671 0ZM353
1146Q353 981 389 902T494 823Q555 823 586 891T618 1112Q618 1276 582 1355T477 1435Q416 1435 385 1367T353 1146ZM2004 445Q2004 331 1969 245T1875 101T1738 15T1574 -14Q1382 -14 1276 104T1170 416Q1170 530 1205 616T1299 759T1436 845T1601 874Q1792 874
1898 756T2004 445ZM1454 447Q1454 283 1490 204T1595 124Q1656 124 1687 192T1719 414Q1719 577 1683 656T1578 736Q1517 736 1486 668T1454 447Z" />
<glyph unicode="&amp;" glyph-name="ampersand" horiz-adv-x="1674" d="M570 1269Q570 1198 597 1126T708 936Q783 1009 812 1099T842 1270Q842 1378 807 1426T715 1474Q649 1474 610 1422T570 1269ZM710 126Q752 126 804 136T908 174Q850 226 791 288T678 412T575
535T489 642Q455 605 431 555T406 428Q406 294 486 210T710 126ZM1311 -20Q1239 -20 1170 2T1020 81Q942 27 835 -1T613 -30Q498 -30 400 -7T231 66T120 192T79 376Q79 470 109 537T185 650T288 723T398 766Q323 875 279 976T235 1183Q235 1275 270 1351T370 1480T525
1562T729 1591Q933 1591 1039 1497T1146 1244Q1146 1103 1059 995T788 832Q826 783 872 727T968 613T1069 499T1169 392Q1204 450 1217 514T1231 629Q1231 657 1225 672T1195 693L1043 726V877H1599V726L1495 694Q1473 688 1467 675T1457 636Q1438 543 1393 457T1266
299Q1312 258 1350 233T1424 194T1499 177T1587 172V26Q1531 7 1454 -6T1311 -20Z" />
<glyph unicode="&apos;" glyph-name="quotesingle" horiz-adv-x="543" d="M164 852L112 1729H431L378 852H164Z" />
<glyph unicode="(" glyph-name="parenleft" horiz-adv-x="747" d="M713 -353L603 -466Q570 -437 484 -349T308 -109T150 265T80 782Q80 1055 147 1274T301 1650T476 1903T603 2028L713 1913Q675 1852 624 1756T525 1525T445 1211T412 808Q411 565 444 376T525
46T625 -193T713 -353Z" />
<glyph unicode=")" glyph-name="parenright" horiz-adv-x="747" d="M668 779Q668 506 601 287T447 -89T272 -341T145 -466L35 -352Q73 -291 124 -195T223 36T303 350T336 753Q337 996 304 1185T223 1515T123 1754T35 1914L145 2028Q178 1999 264 1911T440 1671T598
1297T668 779Z" />
<glyph unicode="*" glyph-name="asterisk" horiz-adv-x="1218" d="M732 947L750 793H468L486 947L561 1210L372 1013L248 920L107 1164L250 1225L514 1291L250 1357L107 1418L248 1662L372 1569L561 1373L486 1635L468 1789H750L732 1635L657 1373L846 1569L970
1662L1111 1418L968 1357L704 1291L968 1225L1111 1164L970 920L846 1013L657 1210L732 947Z" />
<glyph unicode="+" glyph-name="plus" horiz-adv-x="1103" d="M670 137H433V358L440 508L290 502H82V723H290L440 716L433 867V1088H670V867L663 716L813 723H1021V502H813L663 508L670 358V137Z" />
<glyph unicode="," glyph-name="comma" horiz-adv-x="621" d="M519 82Q519 -10 487 -94T402 -249T282 -377T143 -473L74 -385Q149 -313 201 -230T254 -74Q254 -30 234 -17T186 17Q154 40 129 79T103 176Q103 260 156 312T294 364Q393 364 456 289T519 82Z" />
<glyph unicode="-" glyph-name="hyphen" horiz-adv-x="1030" d="M129 480V712H902V480H129Z" />
<glyph unicode="." glyph-name="period" horiz-adv-x="624" d="M513 168Q513 84 458 34T312 -16Q221 -16 166 34T111 168Q111 252 166 302T312 352Q403 352 458 302T513 168Z" />
<glyph unicode="/" glyph-name="slash" horiz-adv-x="1035" d="M338 -288H55L700 1742H982L338 -288Z" />
<glyph unicode="0" glyph-name="zero" horiz-adv-x="1395" d="M678 -31Q521 -31 413 22T237 169T141 393T111 676Q111 866 156 1005T281 1235T473 1368T717 1412Q873 1412 982 1360T1157 1214T1254 992T1284 709Q1284 518 1239 378T1114 148T922 13T678 -31ZM693
1257Q600 1257 554 1142T508 741Q508 407 553 266T702 125Q794 125 840 241T887 645Q887 978 842 1117T693 1257Z" />
<glyph unicode="1" glyph-name="one" horiz-adv-x="997" d="M730 1383V229Q730 206 742 192T776 174L969 141V0H93V141L331 175Q354 178 366 192T379 230V1068Q356 1064 323 1060T254 1051T183 1045T119 1042L93 1192Q152 1206 217 1231T344 1286T459 1349T549
1413L730 1383Z" />
<glyph unicode="2" glyph-name="two" horiz-adv-x="1254" d="M1115 0H128L62 187Q235 333 356 442T553 637T662 794T697 935Q697 1039 635 1092T489 1145Q414 1145 345 1102T215 979L108 1078Q137 1148 184 1209T295 1315T442 1386T624 1412Q721 1412 805 1383T950
1300T1047 1168T1083 994Q1083 897 1043 806T919 624T699 434T376 224H602Q659 224 719 229T811 242Q838 248 855 260T881 291L974 491L1158 470Q1158 414 1155 352T1147 229T1134 109T1115 0Z" />
<glyph unicode="3" glyph-name="three" horiz-adv-x="1192" d="M1104 405Q1104 305 1058 224T935 87T754 -1T535 -32Q445 -32 372 -15T240 31T135 94T55 164L147 291Q204 247 281 215T456 182Q560 182 635 239T711 418Q712 507 658 570T514 644Q483 637 440 627T367
612L326 768Q384 782 441 804T542 859T615 935T643 1036Q643 1099 602 1142T494 1185Q412 1185 339 1143T225 1055L117 1156Q151 1206 197 1252T303 1334T440 1390T611 1411Q691 1411 766 1392T898 1334T989 1232T1024 1083Q1024 1019 995 963T919 862T813 785T696
738Q764 741 836 723T968 664T1065 558T1104 405Z" />
<glyph unicode="4" glyph-name="four" horiz-adv-x="1272" d="M1226 241H1014V0H684V241H84L15 395Q160 623 290 870T542 1384H854L904 1321Q816 1149 741 1009T595 757T452 560T298 411L687 432L723 738L1014 753V449L1226 460V241Z" />
<glyph unicode="5" glyph-name="five" horiz-adv-x="1197" d="M151 295Q214 244 290 213T448 182Q568 182 644 253T720 445Q720 553 658 620T488 688Q429 688 378 668T274 623L158 700L211 1381H1034L1005 1122H412L368 809Q431 863 509 882T659 901Q863 901 987
785T1112 474Q1112 359 1067 265T945 106T762 4T537 -32Q389 -32 261 21T58 168L151 295Z" />
<glyph unicode="6" glyph-name="six" horiz-adv-x="1295" d="M1215 473Q1215 365 1178 272T1072 112T902 7T672 -32Q542 -32 436 9T254 131T138 332T96 606Q96 787 151 936T303 1191T531 1354T814 1412Q897 1412 982 1395T1133 1338L1082 1188Q1037 1203 993 1210T912
1218Q749 1218 631 1107T484 785Q533 835 620 869T809 904Q903 904 978 872T1106 784T1187 647T1215 473ZM687 127Q764 127 812 200T861 413Q861 559 804 632T657 706Q620 706 568 695T476 659V567Q476 351 535 239T687 127Z" />
<glyph unicode="7" glyph-name="seven" horiz-adv-x="1166" d="M923 1167H642Q578 1167 516 1161T420 1145Q395 1139 383 1128T361 1092L273 855H89Q77 982 82 1120T103 1381H1061L1144 1203Q1048 1075 970 943T834 666T741 358T694 0H367L315 54Q324 213 376
369T511 667T701 936T923 1167Z" />
<glyph unicode="8" glyph-name="eight" horiz-adv-x="1308" d="M640 -32Q516 -32 414 -8T241 63T130 178T90 332Q90 454 165 547T366 684Q283 740 222 822T160 1026Q160 1199 295 1305T665 1411Q772 1411 861 1388T1012 1322T1110 1219T1145 1084Q1145 977 1077
896T902 771Q963 740 1020 703T1120 618T1190 510T1217 371Q1217 276 1177 201T1061 75T879 -4T640 -32ZM488 1112Q488 1020 563 961T748 847Q799 894 816 952T834 1057Q834 1158 782 1209T649 1261Q576 1261 532 1221T488 1112ZM655 120Q750 120 798 173T847 296Q847
348 821 389T751 464T646 530T519 596Q519 596 519 596T516 597Q466 554 439 493T411 362Q411 302 431 257T486 181T564 135T655 120Z" />
<glyph unicode="9" glyph-name="nine" horiz-adv-x="1296" d="M639 675Q676 675 728 686T818 721V806Q818 1011 761 1132T605 1253Q521 1253 477 1173T433 964Q433 823 489 749T639 675ZM524 -32Q425 -32 325 -5T153 80L209 224Q257 199 320 182T455 165Q518 165
579 189T689 266T771 401T815 599Q766 549 678 513T491 476Q394 476 317 508T188 596T107 731T79 903Q79 1012 115 1106T220 1267T390 1373T620 1412Q749 1412 856 1370T1039 1246T1156 1040T1198 751Q1198 563 1146 416T1002 170T788 20T524 -32Z" />
<glyph unicode=":" glyph-name="colon" horiz-adv-x="681" d="M541 994Q541 910 486 860T340 810Q249 810 194 860T139 994Q139 1078 194 1128T340 1178Q431 1178 486 1128T541 994ZM541 168Q541 84 486 34T340 -16Q249 -16 194 34T139 168Q139 252 194 302T340
352Q431 352 486 302T541 168Z" />
<glyph unicode=";" glyph-name="semicolon" horiz-adv-x="688" d="M543 998Q543 914 488 864T342 814Q251 814 196 864T141 998Q141 1082 196 1132T342 1182Q433 1182 488 1132T543 998ZM556 82Q556 -10 524 -94T439 -249T319 -377T180 -473L111 -385Q186 -313
238 -230T291 -74Q291 -30 271 -17T223 17Q191 40 166 79T140 176Q140 260 193 312T331 364Q430 364 493 289T556 82Z" />
<glyph unicode="&lt;" glyph-name="less" horiz-adv-x="1113" d="M908 86L71 518V707L908 1138L1010 916L356 615L1010 312L908 86Z" />
<glyph unicode="=" glyph-name="equal" horiz-adv-x="1207" d="M1064 726H125V953H1064V726ZM1064 272H125V499H1064V272Z" />
<glyph unicode="&gt;" glyph-name="greater" horiz-adv-x="1113" d="M205 86L103 312L757 614L103 916L205 1138L1042 707V518L205 86Z" />
<glyph unicode="?" glyph-name="question" horiz-adv-x="1157" d="M614 508H406Q378 557 348 624T318 754Q318 844 378 904T524 1043Q624 1136 673 1214T722 1387Q722 1471 678 1528T561 1585Q516 1585 483 1566T431 1524Q413 1502 405 1480T392 1423L363 1185H149Q117
1278 96 1385T68 1594Q150 1663 274 1709T541 1756Q666 1756 768 1720T941 1621T1052 1473T1092 1288Q1092 1131 999 1024T757 814Q719 787 697 771T663 740T646 707T636 656L614 508ZM712 163Q712 82 657 33T511 -16Q420 -16 365 33T310 163Q310 245 365 294T511
343Q602 343 657 294T712 163Z" />
<glyph unicode="@" glyph-name="at" horiz-adv-x="2126" d="M916 -527Q723 -527 569 -466T308 -294T143 -23T81 332Q77 592 168 818T418 1209T790 1469T1242 1564Q1414 1564 1560 1513T1811 1366T1976 1127T2036 805Q2036 595 1961 436T1784 171T1573 13T1398
-40Q1332 -40 1290 12T1248 165Q1248 205 1255 271T1279 433Q1246 340 1203 250T1106 91T990 -22T855 -65Q796 -65 738 -35T635 53T562 196T534 391Q534 516 573 641T684 866T862 1027T1097 1089Q1152 1089 1212 1074T1346 1020L1411 1089L1607 1028Q1603 1008
1584 922T1545 726T1508 498T1491 299Q1491 231 1504 202T1547 172Q1581 172 1630 207T1724 312T1801 486T1833 726Q1833 913 1770 1040T1609 1244T1388 1352T1149 1385Q965 1385 810 1315T544 1120T370 816T307 423Q307 222 361 76T506 -164T720 -302T976 -347Q1030
-347 1089 -341T1203 -322T1305 -294T1381 -258L1436 -377Q1349 -449 1209 -488T916 -527ZM929 201Q961 201 1001 234T1082 327T1163 475T1235 671Q1245 704 1253 735T1269 796Q1228 845 1169 875T1056 906Q995 906 950 868T875 769T830 633T815 484Q815 435 821
385T842 294T878 227T929 201Z" />
<glyph unicode="A" glyph-name="A" horiz-adv-x="1607" d="M918 628L713 1286L514 628H918ZM567 144V0H-17V144L119 177Q139 182 151 193T171 225L626 1567H981L1439 225Q1446 205 1459 194T1492 177L1617 144V0H867V144L1058 175L971 457H462L376 175L567 144Z" />
<glyph unicode="B" glyph-name="B" horiz-adv-x="1589" d="M840 -12Q784 -12 739 -10T654 -6T573 -2T483 0H89V144L251 174Q269 177 280 190T291 223V1330Q291 1349 280 1362T251 1379L89 1411V1562H478Q574 1562 658 1568T847 1574Q1011 1574 1119 1551T1290
1481T1379 1366T1405 1206Q1405 1052 1329 958T1125 832Q1207 826 1278 801T1400 729T1481 616T1510 462Q1510 361 1478 274T1368 124T1162 24T840 -12ZM820 883Q930 883 980 958T1030 1174Q1030 1312 974 1373T800 1434Q792 1434 774 1433T736 1431T697 1428T669
1424V885Q714 884 753 884T820 883ZM820 134Q965 134 1028 218T1092 452Q1092 603 1027 662T837 722Q803 722 759 721T669 718V148Q697 143 738 139T820 134Z" />
<glyph unicode="C" glyph-name="C" horiz-adv-x="1459" d="M809 -35Q449 -35 272 167T94 747Q94 963 149 1123T306 1387T550 1541T868 1592Q987 1592 1117 1570T1356 1508Q1363 1409 1358 1295T1334 1056H1111L1052 1318Q1048 1337 1037 1358T999 1398Q971 1417
928 1429T838 1441Q688 1441 604 1290T520 786Q520 459 599 289T847 119Q896 119 943 133T1022 178Q1035 190 1045 207T1066 256L1137 488L1356 469Q1361 377 1359 271T1340 51Q1286 33 1221 17T1087 -10T947 -28T809 -35Z" />
<glyph unicode="D" glyph-name="D" horiz-adv-x="1689" d="M475 1562Q576 1562 661 1568T833 1574Q1213 1574 1404 1396T1595 833Q1595 626 1542 466T1388 197T1141 35T809 -16Q775 -15 730 -13T640 -7T551 -2T479 0H89V144L249 174Q268 177 279 191T291 224V1330Q291
1349 280 1362T251 1379L89 1411V1562H475ZM671 161Q696 150 737 145T814 140Q900 141 968 173T1084 278T1156 474T1181 776Q1181 1080 1095 1253T806 1426Q755 1426 718 1418T671 1409V161Z" />
<glyph unicode="E" glyph-name="E" horiz-adv-x="1452" d="M1297 1135H1119L1065 1320Q1058 1346 1043 1361T1006 1385Q981 1395 935 1401T840 1407H671V882L1101 898V693L671 704V163H882Q931 163 984 169T1063 185Q1085 194 1096 208T1117 250L1203 498L1380
470Q1380 350 1371 236T1343 0H89V144L245 173Q268 177 279 191T291 229V1324Q291 1347 280 1361T245 1381L89 1411V1562H1291Q1304 1457 1305 1351T1297 1135Z" />
<glyph unicode="F" glyph-name="F" horiz-adv-x="1348" d="M1101 667L671 679V224Q671 205 683 191T716 175L972 144V0H89V144L248 174Q267 178 279 192T291 225V1324Q291 1347 280 1361T245 1381L89 1411V1562H1291Q1304 1457 1305 1351T1297 1135H1119L1065
1320Q1058 1346 1043 1361T1006 1385Q981 1395 935 1401T840 1407H671V857L1101 873V667Z" />
<glyph unicode="G" glyph-name="G" horiz-adv-x="1595" d="M1359 -16L1163 130Q1097 61 991 15T739 -32Q583 -32 463 22T261 179T137 429T95 765Q95 1187 303 1389T889 1592Q1026 1592 1160 1566T1395 1499Q1402 1401 1396 1296T1374 1085H1144L1089 1314Q1081
1345 1070 1361T1040 1392Q1014 1412 973 1426T877 1441Q706 1441 621 1279T535 757Q535 470 603 317T858 163Q922 163 975 179T1071 225V633L881 654V809H1531V654L1429 637V24L1359 -16Z" />
<glyph unicode="H" glyph-name="H" horiz-adv-x="1889" d="M1800 1562V1411L1643 1381Q1621 1376 1609 1361T1597 1323V229Q1597 206 1609 192T1644 173L1800 144V0H1061V144L1172 173Q1194 179 1206 192T1218 229V702H671V229Q671 206 682 192T716 173L841 144V0H89V144L245
173Q268 178 279 192T291 229V1323Q291 1348 280 1362T246 1381L89 1411V1562H841V1411L715 1381Q693 1376 682 1362T671 1323V885H1218V1323Q1218 1345 1207 1360T1173 1381L1060 1411V1562H1800Z" />
<glyph unicode="I" glyph-name="I" horiz-adv-x="962" d="M873 1562V1411L717 1381Q694 1376 683 1362T671 1324V230Q671 207 682 193T717 174L873 144V0H89V144L245 173Q268 177 279 191T291 229V1324Q291 1347 280 1361T245 1381L89 1411V1562H873Z" />
<glyph unicode="J" glyph-name="J" horiz-adv-x="904" d="M693 1381Q670 1375 659 1361T647 1324V351Q647 177 621 53T525 -161T334 -312T23 -423L-41 -271Q59 -219 120 -169T213 -55T256 95T267 304V1324Q267 1347 255 1361T221 1381L65 1411V1562H829V1411L693 1381Z" />
<glyph unicode="K" glyph-name="K" horiz-adv-x="1675" d="M872 143V0H89V144L244 173Q266 178 278 191T291 228V1324Q291 1347 279 1361T245 1381L89 1411V1562H871V1411L715 1381Q693 1376 681 1362T669 1324V752L1184 1381L1008 1411L1007 1562H1623V1412L1463
1381Q1444 1377 1430 1370T1403 1349L1070 971Q1128 902 1172 828T1272 649L1493 236Q1504 216 1520 197T1570 168L1665 143V0H1226Q1183 0 1147 54T1069 197L940 477Q906 552 880 603T829 694L669 507V224Q669 201 681 188T717 170L872 143Z" />
<glyph unicode="L" glyph-name="L" horiz-adv-x="1417" d="M1083 255L1182 578L1371 552Q1371 425 1366 284T1331 0H89V144L244 173Q267 177 279 191T291 229V1325Q291 1348 279 1362T245 1381L89 1411V1562H923V1411L718 1378Q695 1374 683 1360T671 1323V165H844Q906
165 952 172T1025 190Q1047 199 1061 214T1083 255Z" />
<glyph unicode="M" glyph-name="M" horiz-adv-x="2296" d="M664 144V0H40V144L195 177Q217 181 228 194T243 231L374 1321Q377 1345 366 1361T331 1381L160 1411V1562H885L1155 523L1399 1562H2127V1411L1946 1381Q1922 1377 1911 1361T1904 1321L2066 230Q2069
208 2081 195T2115 177L2264 144V0H1511V144L1691 174L1535 1324L1236 55H931L572 1315L445 174L664 144Z" />
<glyph unicode="N" glyph-name="N" horiz-adv-x="1807" d="M729 144V0H89V144L245 172Q268 176 279 190T291 228V1324Q291 1347 280 1361T245 1381L89 1411V1562H681L1336 497V1324Q1336 1347 1324 1362T1290 1381L1124 1411V1562H1737V1411L1592 1381Q1569 1376
1558 1362T1546 1324V0H1203L501 1152V229Q501 206 513 192T547 173L729 144Z" />
<glyph unicode="O" glyph-name="O" horiz-adv-x="1599" d="M773 -34Q597 -34 469 21T257 177T134 424T94 751Q94 950 141 1107T280 1372T509 1537T825 1594Q1001 1594 1130 1539T1342 1383T1465 1135T1505 808Q1505 610 1458 453T1319 188T1090 23T773 -34ZM804
1438Q658 1438 584 1282T510 770Q510 424 580 273T794 121Q938 121 1013 279T1088 794Q1088 1140 1018 1289T804 1438Z" />
<glyph unicode="P" glyph-name="P" horiz-adv-x="1466" d="M792 698Q844 698 888 718T965 784T1016 909T1035 1103Q1035 1274 972 1352T789 1431Q736 1431 714 1427T671 1419V706Q699 703 726 701T792 698ZM962 144V0H89V144L248 174Q267 178 279 191T291 224V1330Q291
1347 280 1361T251 1379L89 1411V1562H488Q554 1562 635 1568T830 1573Q1001 1572 1115 1542T1296 1453T1392 1309T1420 1113Q1420 852 1263 703T802 554Q768 554 735 555T671 559V224Q671 205 683 191T716 175L962 144Z" />
<glyph unicode="Q" glyph-name="Q" horiz-adv-x="1598" d="M1361 -423Q1246 -423 1168 -380T1025 -275T895 -147T741 -34Q574 -29 451 29T250 189T133 434T94 751Q94 946 141 1103T280 1368T509 1535T825 1594Q1001 1594 1130 1538T1342 1380T1465 1132T1505 808Q1505
498 1381 289T1032 5Q1086 -11 1134 -33T1235 -85Q1315 -130 1386 -151T1531 -173Q1566 -173 1595 -170T1650 -161L1684 -281Q1643 -330 1554 -376T1361 -423ZM803 1438Q658 1438 584 1282T509 770Q509 424 579 273T793 121Q938 121 1013 279T1088 794Q1088 1140
1017 1289T803 1438Z" />
<glyph unicode="R" glyph-name="R" horiz-adv-x="1655" d="M669 1423V806Q711 801 755 801T822 801Q920 802 986 882T1053 1138Q1053 1299 989 1366T792 1433Q758 1433 726 1430T669 1423ZM872 143V0H89V144L244 173Q266 178 278 191T291 228V1325Q291 1348 279
1362T245 1381L89 1411V1562H470Q557 1562 637 1568T824 1574Q1160 1574 1306 1478T1453 1155Q1453 1045 1424 970T1347 847T1240 770T1120 724Q1199 690 1255 632T1354 477L1462 235Q1478 201 1493 188T1534 168L1629 143V0H1200Q1156 0 1122 56T1051 202L950
464Q923 531 897 581T842 662H669V224Q669 201 681 188T717 170L872 143Z" />
<glyph unicode="S" glyph-name="S" horiz-adv-x="1322" d="M1236 442Q1236 358 1204 273T1102 120T917 10T640 -33Q485 -33 348 3T112 86Q109 140 110 199T115 316T125 427T140 525H355L394 266Q398 243 407 224T436 189Q466 162 523 137T649 112Q748 112 803
167T859 311Q859 374 833 423T761 512T654 587T524 658Q446 699 373 741T245 837T157 962T123 1132Q123 1230 158 1314T264 1460T442 1557T691 1592Q810 1592 932 1569T1144 1509Q1152 1410 1146 1302T1123 1097H914L872 1324Q866 1353 857 1372T829 1404Q802 1424
759 1436T672 1448Q582 1448 532 1398T481 1265Q481 1208 504 1165T569 1086T674 1016T813 942Q899 898 976 849T1110 741T1202 609T1236 442Z" />
<glyph unicode="T" glyph-name="T" horiz-adv-x="1610" d="M1277 0H334V143L568 181Q591 185 603 198T616 235V1407H531Q491 1407 454 1402T394 1388Q373 1380 362 1367T347 1335L262 990H77Q60 1144 57 1276T69 1562H1541Q1557 1408 1554 1274T1534 990H1349L1260
1336Q1255 1355 1244 1367T1213 1388Q1190 1398 1153 1402T1076 1407H995V235Q995 212 1007 199T1043 181L1277 143V0Z" />
<glyph unicode="U" glyph-name="U" horiz-adv-x="1729" d="M1046 1562H1645V1411L1535 1383Q1513 1377 1502 1362T1490 1325V578Q1490 414 1447 299T1323 112T1129 8T875 -25Q550 -25 389 119T228 591V1325Q228 1347 217 1361T184 1383L84 1411V1562H825V1411L666
1377Q644 1373 632 1358T620 1321V559Q620 355 690 239T935 123Q1027 123 1089 155T1188 244T1242 382T1258 557V1324Q1258 1347 1246 1361T1212 1380L1046 1411V1562Z" />
<glyph unicode="V" glyph-name="V" horiz-adv-x="1610" d="M988 -5H650L160 1333Q153 1353 140 1364T107 1381L-20 1411V1562H734V1411L541 1375L901 314L1224 1375L1031 1411V1562H1614V1411L1478 1381Q1458 1376 1445 1365T1425 1333L988 -5Z" />
<glyph unicode="W" glyph-name="W" horiz-adv-x="2323" d="M1424 -6L1164 904L919 -6H579L170 1331Q163 1350 151 1363T120 1381L-12 1411V1562H720V1411L548 1375L827 309L1072 1203L1029 1331Q1023 1350 1011 1362T980 1381L889 1411V1562H1600V1411L1402 1375L1672
333L1943 1375L1771 1411V1562H2328V1411L2188 1381Q2168 1377 2156 1365T2137 1330L1764 -6H1424Z" />
<glyph unicode="X" glyph-name="X" horiz-adv-x="1554" d="M603 144V0H16V144L164 172Q183 176 195 185T220 211L593 743L208 1340Q198 1356 185 1365T154 1381L42 1411V1562H775V1411L622 1376L859 987L1116 1376L945 1411V1562H1500V1411L1364 1381Q1345 1377
1331 1368T1306 1343L958 855L1376 212Q1386 196 1399 187T1432 172L1546 144V0H802V144L957 177L694 606L416 177L603 144Z" />
<glyph unicode="Y" glyph-name="Y" horiz-adv-x="1511" d="M1198 0H332V143L522 181Q545 185 557 198T569 235V612L156 1339Q146 1356 133 1366T100 1380L-24 1411V1562H737V1411L580 1371L859 831L1119 1372L944 1411V1562H1502V1411L1387 1382Q1368 1378 1354
1369T1331 1341L961 612V235Q961 212 973 199T1008 181L1198 143V0Z" />
<glyph unicode="Z" glyph-name="Z" horiz-adv-x="1426" d="M1283 0H122L49 125L884 1414H695Q633 1414 587 1408T514 1392Q492 1383 478 1368T455 1327L364 1049H153Q149 1175 157 1310T187 1565H1278L1330 1437L518 165H778Q841 165 887 171T959 187Q980 195
994 210T1018 252L1120 545L1323 518Q1324 466 1322 400T1315 264T1302 126T1283 0Z" />
<glyph unicode="[" glyph-name="bracketleft" horiz-adv-x="835" d="M796 -387Q729 -396 656 -402T510 -413T367 -419T237 -420L189 -376V1936L237 1980Q297 1981 367 1979T509 1973T655 1963T796 1947V1805L556 1776Q531 1773 518 1758T504 1718V-158Q504 -183
517 -198T556 -216L796 -244V-387Z" />
<glyph unicode="\" glyph-name="backslash" horiz-adv-x="1035" d="M977 -288H695L50 1742H333L977 -288Z" />
<glyph unicode="]" glyph-name="bracketright" horiz-adv-x="835" d="M646 -376L598 -420Q538 -421 468 -419T326 -413T180 -403T39 -387V-244L279 -216Q304 -213 317 -198T331 -158V1718Q331 1743 318 1758T279 1776L39 1805V1947Q106 1956 179 1962T325 1973T468
1979T598 1980L646 1936V-376Z" />
<glyph unicode="^" glyph-name="asciicircum" horiz-adv-x="1299" d="M1080 746L633 1248L202 746L74 848L497 1534L764 1557L1228 848L1080 746Z" />
<glyph unicode="_" glyph-name="underscore" horiz-adv-x="1751" d="M0 -250H1751V-412H0V-250Z" />
<glyph unicode="`" glyph-name="grave" horiz-adv-x="1000" d="M358 1813L740 1367L643 1251Q494 1333 366 1432T161 1629L358 1813Z" />
<glyph unicode="a" glyph-name="a" horiz-adv-x="1251" d="M552 176Q597 176 637 189T712 226V473L602 466Q505 461 470 413T435 301Q435 238 462 207T552 176ZM975 -19Q889 -19 828 10T735 115Q677 49 591 13T398 -23Q246 -23 156 54T65 258Q65 338 101 399T199
501T340 566T508 594L712 605V717Q712 839 656 886T495 933Q404 933 326 904T181 815L99 886Q148 1015 274 1090T602 1166Q844 1166 953 1054T1062 723V228Q1062 197 1075 184T1113 167L1212 155V20Q1172 9 1104 -5T975 -19Z" />
<glyph unicode="b" glyph-name="b" horiz-adv-x="1327" d="M605 -23Q539 -23 472 -16T344 2T233 28T150 56V1518Q150 1541 138 1555T104 1574L-26 1595V1738Q27 1752 90 1763T219 1782T347 1795T463 1800L511 1756V1044Q570 1104 650 1136T821 1168Q911 1168 988
1136T1123 1038T1212 870T1245 627Q1245 320 1081 149T605 -23ZM630 117Q743 117 802 222T864 560Q865 673 852 749T813 872T747 937T656 956Q620 956 583 947T511 919V146Q535 133 565 125T630 117Z" />
<glyph unicode="c" glyph-name="c" horiz-adv-x="1139" d="M79 556Q79 706 123 821T244 1012T430 1128T664 1168Q770 1168 875 1143T1049 1080Q1056 979 1050 880T1025 688H850L793 889Q783 924 774 942T751 974Q735 989 710 999T655 1009Q576 1009 522 916T468
604Q468 402 528 299T731 195Q819 195 884 226T986 290L1063 228Q1026 120 910 47T612 -26Q474 -26 373 19T207 142T111 327T79 556Z" />
<glyph unicode="d" glyph-name="d" horiz-adv-x="1384" d="M660 172Q700 172 742 182T821 212V989Q796 1001 765 1007T701 1014Q647 1014 603 993T528 921T480 787T463 578Q462 360 513 266T660 172ZM1090 -19Q1003 -19 943 14T850 114Q793 51 714 14T534 -23Q436
-23 353 10T210 111T116 285T82 536Q82 843 236 1005T675 1168Q712 1168 750 1164T821 1153V1519Q821 1542 809 1556T775 1575L644 1595V1736Q698 1750 761 1761T888 1781T1016 1795T1134 1800L1182 1755V228Q1182 196 1195 183T1233 167L1332 155V20Q1295 9 1225
-5T1090 -19Z" />
<glyph unicode="e" glyph-name="e" horiz-adv-x="1184" d="M623 1019Q556 1019 513 961T457 752H774Q775 761 775 772T775 798Q775 894 739 956T623 1019ZM1095 249Q1055 115 927 45T620 -26Q482 -26 380 15T212 132T114 317T82 560Q82 856 230 1011T648 1167Q767
1167 854 1138T996 1058T1077 935T1104 780Q1104 742 1099 698T1087 618H452Q453 398 513 297T730 195Q812 195 889 223T1017 307L1095 249Z" />
<glyph unicode="f" glyph-name="f" horiz-adv-x="942" d="M243 1181Q243 1287 289 1397T411 1596T584 1741T781 1798Q863 1798 941 1764T1084 1684L1012 1488Q952 1501 889 1509T792 1516Q746 1515 709 1507T647 1476T608 1412T594 1302V1137H912V943H596V218Q596
194 608 181T645 165L850 142V0H80V142L187 162Q210 166 222 179T235 217V939L67 969V1106L243 1139V1181Z" />
<glyph unicode="g" glyph-name="g" horiz-adv-x="1335" d="M460 776Q460 640 499 580T616 519Q698 519 731 585T764 776Q764 914 729 972T617 1030Q539 1030 500 970T460 776ZM1263 -93Q1263 -198 1215 -283T1077 -427T861 -519T576 -552Q440 -552 343 -528T184
-463T93 -364T64 -240Q64 -139 125 -78T291 19Q222 49 193 99T163 210Q163 288 203 340T312 422Q195 471 147 560T98 757Q98 950 235 1059T632 1168Q758 1168 854 1141T1011 1057Q1050 1111 1101 1141T1203 1172Q1229 1172 1257 1166T1305 1153V908H1101Q1108 880
1112 850T1116 786Q1116 696 1087 620T994 490T832 406T594 376Q551 376 512 379T439 388Q425 368 419 348T413 310Q413 256 462 236T631 216H833Q1041 216 1152 140T1263 -93ZM635 -390Q757 -390 824 -332T892 -163Q892 -84 852 -51T715 -17H509Q494 -17 480 -17T452
-15Q432 -46 419 -87T406 -177Q406 -269 458 -329T635 -390Z" />
<glyph unicode="h" glyph-name="h" horiz-adv-x="1467" d="M678 142V0H50V143L158 163Q180 167 192 181T205 219V1529Q205 1552 193 1566T159 1585L29 1606V1746Q83 1760 146 1770T273 1787T400 1797T517 1800L566 1753V1029Q635 1096 725 1129T921 1162Q1122
1162 1196 1050T1270 732V219Q1270 196 1282 182T1316 163L1425 143V0H797V142L864 162Q886 170 897 183T909 219V692Q909 832 868 890T738 949Q697 949 653 937T566 901V219Q566 196 577 183T610 162L678 142Z" />
<glyph unicode="i" glyph-name="i" horiz-adv-x="801" d="M596 1121V219Q596 196 608 182T643 163L751 143V0H80V143L188 163Q210 167 222 181T235 219V878Q235 900 224 916T191 936L69 961V1108Q123 1122 184 1133T308 1151T432 1161T548 1165L596 1121ZM594
1480Q594 1397 541 1348T399 1298Q309 1298 256 1347T202 1480Q202 1561 255 1609T399 1658Q488 1658 541 1610T594 1480Z" />
<glyph unicode="j" glyph-name="j" horiz-adv-x="737" d="M525 1165L573 1121V100Q573 -81 529 -185T401 -358Q321 -424 211 -466T-19 -539L-82 -389Q92 -302 153 -198T214 81L215 878Q215 900 204 916T171 936L47 961V1108Q101 1122 162 1133T286 1151T409 1161T525
1165ZM555 1480Q555 1397 502 1348T360 1298Q270 1298 217 1347T163 1480Q163 1561 216 1609T360 1658Q449 1658 502 1610T555 1480Z" />
<glyph unicode="k" glyph-name="k" horiz-adv-x="1426" d="M715 143V0H50V143L158 163Q180 167 192 182T205 220V1519Q205 1542 193 1556T159 1575L29 1595V1736Q83 1750 146 1761T273 1781T400 1795T517 1800L565 1756V578L934 968L751 1001V1137H1348V1001L1231
972Q1191 962 1171 954T1126 923L940 741Q975 700 1005 650T1070 534L1229 227Q1242 201 1256 190T1298 172L1405 143V0H991Q940 0 907 59T839 196L751 395Q738 423 725 450T697 503L565 374V219Q565 196 577 182T611 163L715 143Z" />
<glyph unicode="l" glyph-name="l" horiz-adv-x="784" d="M573 1755V219Q573 195 585 181T620 163L740 142V0H44V143L165 163Q187 167 199 181T212 218V1519Q212 1542 200 1556T166 1575L35 1595V1736Q89 1750 152 1761T279 1781T407 1795T525 1800L573 1755Z" />
<glyph unicode="m" glyph-name="m" horiz-adv-x="2170" d="M703 142V0H80V142L189 163Q211 167 223 181T235 219V877Q235 899 224 915T191 935L69 960V1108Q174 1136 290 1150T507 1166L557 1121L577 1016Q643 1090 734 1126T936 1162Q1055 1162 1127 1122T1237
1006Q1310 1086 1409 1124T1623 1162Q1724 1162 1792 1133T1899 1047T1955 909T1972 722V219Q1972 196 1984 182T2018 163L2128 142V0H1504V142L1566 162Q1589 170 1600 183T1611 219V683Q1611 825 1570 887T1437 949Q1399 949 1356 938T1270 901Q1277 864 1280
822T1284 732V219Q1284 196 1295 184T1328 162L1392 142V0H816V142L878 162Q900 170 911 183T923 219V692Q923 832 884 890T754 949Q717 949 676 939T596 906V219Q596 196 606 183T637 163L703 142Z" />
<glyph unicode="n" glyph-name="n" horiz-adv-x="1496" d="M708 142V0H80V142L189 163Q211 167 223 181T235 219V878Q235 900 224 916T191 936L69 961V1108Q174 1136 290 1150T507 1166L557 1121L578 1012Q649 1087 743 1124T950 1162Q1151 1162 1225 1050T1299
732V219Q1299 196 1311 182T1345 163L1454 143V0H826V142L893 162Q915 170 926 183T938 219V692Q938 832 897 890T767 949Q726 949 682 937T596 901V219Q596 196 607 183T640 162L708 142Z" />
<glyph unicode="o" glyph-name="o" horiz-adv-x="1315" d="M81 558Q81 725 126 842T251 1031T439 1135T673 1168Q935 1168 1084 1025T1233 583Q1233 415 1188 298T1063 110T876 6T641 -26Q380 -26 231 117T81 558ZM844 556Q844 807 804 912T653 1017Q562 1017
517 923T471 585Q471 334 511 229T662 124Q753 124 798 219T844 556Z" />
<glyph unicode="p" glyph-name="p" horiz-adv-x="1389" d="M690 117Q743 117 787 139T861 214T909 353T928 568Q929 777 878 866T721 956Q678 956 640 946T574 920V139Q600 126 630 122T690 117ZM777 -354V-496H58V-354L167 -333Q189 -329 201 -315T213 -277V877Q213
899 203 915T171 935L47 961V1108Q96 1120 152 1131T265 1149T379 1161T485 1166L535 1121L555 1023Q614 1088 695 1128T883 1168Q973 1168 1051 1136T1186 1037T1275 867T1308 624Q1308 467 1265 346T1141 143T946 19T691 -23Q664 -23 635 -21T574 -13V-277Q574
-301 586 -315T622 -333L777 -354Z" />
<glyph unicode="q" glyph-name="q" horiz-adv-x="1345" d="M1322 -496H602V-354L772 -333Q795 -330 807 -316T820 -278V90Q769 38 698 8T534 -23Q436 -23 353 10T210 111T116 285T82 537Q82 683 121 800T234 999T417 1124T665 1168Q744 1168 826 1148T975 1096L1125
1158L1181 1113V-277Q1181 -301 1193 -314T1228 -333L1322 -354V-496ZM660 172Q702 172 744 184T820 216V975Q796 994 764 1004T690 1014Q586 1014 525 916T462 591Q462 363 512 268T660 172Z" />
<glyph unicode="r" glyph-name="r" horiz-adv-x="1127" d="M814 142V0H80V143L188 163Q210 167 222 181T235 219V877Q235 900 224 916T191 936L69 961V1108Q165 1136 276 1150T482 1166L538 1122L576 923Q643 1037 731 1102T915 1168Q949 1168 999 1159T1074 1136Q1080
1093 1081 1040T1078 929T1066 811T1045 695H887L852 812Q840 849 823 860T771 871Q736 872 689 857T596 803V219Q596 195 608 181T645 163L814 142Z" />
<glyph unicode="s" glyph-name="s" horiz-adv-x="1119" d="M105 54Q95 134 97 220T111 382H291L333 234Q343 203 351 186T379 155Q401 140 440 124T531 108Q606 108 646 147T686 238Q686 279 662 308T597 363T500 414T379 470Q255 531 178 607T100 815Q100 969
217 1067T579 1166Q678 1166 786 1148T973 1098Q980 1026 976 944T957 786L790 787L746 926Q736 955 726 970T695 999Q670 1015 641 1022T581 1030Q516 1030 476 997T435 907Q435 869 455 841T508 790T585 748T678 707Q750 676 817 642T934 564T1015 462T1045 323Q1045
234 1007 167T902 56T743 -10T543 -32Q415 -32 302 -6T105 54Z" />
<glyph unicode="t" glyph-name="t" horiz-adv-x="949" d="M201 335V948L47 976V1107L172 1133Q199 1138 212 1151T235 1189L346 1505H546L559 1138H872V953H563V416Q563 302 597 259T698 216Q738 216 783 230T869 279L939 200Q888 89 781 36T535 -17Q381 -17 291
57T201 335Z" />
<glyph unicode="u" glyph-name="u" horiz-adv-x="1447" d="M1154 -19Q1067 -19 1007 13T914 114Q851 48 768 13T559 -23Q381 -23 291 73T201 370V881Q201 903 190 918T157 939L50 966V1114Q102 1126 161 1136T281 1152T402 1162T514 1165L562 1121V417Q562 275
601 225T722 174Q763 174 804 186T885 222V882Q885 904 874 920T841 941L727 968V1116Q780 1128 840 1137T962 1153T1084 1162T1198 1165L1246 1121V228Q1246 196 1259 183T1298 167L1396 155V20Q1359 9 1289 -5T1154 -19Z" />
<glyph unicode="v" glyph-name="v" horiz-adv-x="1299" d="M503 -16L132 926Q124 945 112 956T80 973L5 997V1138H664V994L519 963L747 279L973 963L830 994V1138H1281V997L1206 973Q1187 967 1173 957T1152 927L817 -16H503Z" />
<glyph unicode="w" glyph-name="w" horiz-adv-x="1882" d="M446 -16L136 926Q129 946 117 956T84 974L11 997V1138H619V994L480 963L657 327L871 1138H1161L1386 328L1555 963L1409 994V1138H1862V997L1789 974Q1769 968 1756 957T1736 925L1450 -16H1170L937
743L732 -16H446Z" />
<glyph unicode="x" glyph-name="x" horiz-adv-x="1332" d="M544 141V0H40V141L142 160Q161 164 175 172T201 195L488 547L184 945Q173 961 160 969T128 981L46 1001V1138H700V1000L576 969L742 728L924 969L811 1000V1138H1269V1000L1177 981Q1159 977 1146 969T1119
946L845 612L1165 195Q1176 179 1190 171T1223 159L1305 141V0H659V141L772 171L597 427L406 171L544 141Z" />
<glyph unicode="y" glyph-name="y" horiz-adv-x="1299" d="M325 -518Q256 -518 183 -510T49 -490V-321Q164 -303 255 -283T419 -228T549 -140T652 0H506L150 920Q142 942 128 954T91 973L15 997V1138L681 1137V993L533 961L762 288L977 962L835 994V1138H1290V997L1214
973Q1190 966 1177 955T1156 920L825 -18Q736 -269 619 -393T325 -518Z" />
<glyph unicode="z" glyph-name="z" horiz-adv-x="1191" d="M1081 0H117L58 129L691 996H558Q521 996 481 994T413 986Q389 982 374 973T352 934L303 734H139Q125 833 121 940T123 1138H1055L1110 1010L490 144H612Q658 144 707 146T795 156Q819 160 834 170T856
202L927 422L1086 404Q1097 303 1095 201T1081 0Z" />
<glyph unicode="{" glyph-name="braceleft" horiz-adv-x="917" d="M891 -268L868 -424Q813 -424 738 -420T600 -408Q401 -389 311 -293T220 -43Q220 87 241 216T263 449Q263 499 255 538T221 607T146 654T16 681V880Q97 887 146 905T221 953T255 1021T263 1111Q263
1215 242 1344T220 1603Q220 1756 310 1853T600 1969Q662 1975 737 1980T868 1985L891 1828L763 1797Q648 1769 601 1713T553 1543Q553 1494 557 1437T566 1319T575 1199T579 1086Q579 1013 554 961T486 874T383 818T256 785Q324 773 383 751T485 692T554 601T579
474Q579 421 575 361T566 241T557 124T553 17Q553 -95 600 -152T763 -237L891 -268Z" />
<glyph unicode="|" glyph-name="bar" horiz-adv-x="652" d="M192 -320V1906H461L460 -320H192Z" />
<glyph unicode="}" glyph-name="braceright" horiz-adv-x="917" d="M317 -411Q255 -417 180 -420T49 -424L26 -268L154 -240Q269 -213 316 -156T364 14Q364 63 360 121T351 240T341 361T337 474Q337 547 362 600T431 691T533 750T660 784Q593 796 534 817T431
873T363 960T337 1086Q337 1139 341 1199T350 1319T360 1438T364 1546Q364 1658 317 1716T154 1800L26 1828L49 1985Q104 1985 179 1981T317 1971Q516 1952 606 1856T697 1605Q697 1475 676 1345T654 1111Q654 1061 662 1022T695 953T770 906T901 880V681Q820 673
771 655T696 607T662 539T654 449Q654 345 675 215T697 -45Q697 -199 607 -295T317 -411Z" />
<glyph unicode="~" glyph-name="asciitilde" horiz-adv-x="1301" d="M1180 709Q1123 573 1028 498T830 422Q771 422 715 443T607 490T506 537T410 559Q350 559 299 523T204 436L104 515Q161 652 256 727T455 802Q514 802 569 781T677 734T778 688T874 666Q934
666 986 702T1081 788L1180 709Z" />
<glyph unicode="&#xa0;" glyph-name="uni00A0" horiz-adv-x="517" />
<glyph unicode="&#xa1;" glyph-name="exclamdown" horiz-adv-x="679" d="M540 989Q540 908 485 859T340 810Q248 810 193 859T138 989Q138 1071 193 1120T340 1169Q430 1169 485 1120T540 989ZM539 -559H141V-348L232 644H448L539 -348V-559Z" />
<glyph unicode="&#xa2;" glyph-name="cent" horiz-adv-x="1181" d="M1090 258Q1049 163 945 96T699 12V-209H502V16Q395 34 316 86T186 213T109 386T84 589Q84 727 122 835T229 1018T391 1139T595 1197V1414H792V1195Q879 1185 955 1160T1083 1105Q1090 1004 1084
909T1058 721H874L826 923Q819 957 809 975T784 1007Q767 1023 740 1033T679 1043Q593 1043 533 945T473 650Q473 445 540 336T743 226Q842 226 904 262T1004 337L1090 258Z" />
<glyph unicode="&#xa3;" glyph-name="sterling" horiz-adv-x="1398" d="M1315 275Q1315 191 1290 132T1223 36T1125 -17T1007 -34Q928 -34 858 -11T722 40T593 91T464 115Q401 66 323 31T161 -19L72 161Q164 208 232 287T301 515V615H110V770H301V834Q301 964
332 1071T428 1254T589 1370T816 1412Q929 1412 1023 1387T1186 1333Q1193 1239 1187 1147T1165 957H963L916 1160Q912 1179 903 1198T872 1236Q854 1249 832 1257T785 1266Q764 1266 743 1255T705 1214T678 1132T667 998V770H958V615H667V591Q667 459 638 374T574
240Q639 240 713 224T852 208Q924 208 964 234T1023 322Q1035 359 1042 405T1054 501H1283Q1293 454 1304 395T1315 275Z" />
<glyph unicode="&#xa4;" glyph-name="currency" horiz-adv-x="1405" d="M701 562Q799 562 848 623T898 769Q898 818 881 858T836 926T771 969T696 984Q650 984 614 966T554 919T517 850T504 769Q504 683 563 623T701 562ZM699 313Q633 313 572 329T460 376L228
144L95 277L323 502Q285 556 264 622T243 762Q243 838 265 908T328 1037L95 1266L226 1400L461 1165Q512 1198 572 1216T699 1234Q766 1234 828 1217T943 1168L1178 1402L1311 1269L1080 1042Q1118 988 1139 922T1161 784Q1161 709 1138 639T1075 511L1307 281L1174
148L940 382Q888 349 827 331T699 313Z" />
<glyph unicode="&#xa5;" glyph-name="yen" horiz-adv-x="1529" d="M1178 127V0H389V127L567 162Q588 166 599 177T610 211V308H238V451H610V592H238V734H546L237 1195Q227 1209 215 1217T186 1229L72 1255V1381H766V1255L622 1221L867 800L1100 1224L938 1257V1382H1449V1257L1344
1233Q1326 1229 1314 1221T1292 1197L1014 734H1328V592H956V451H1328V308H956V211Q956 189 967 178T1000 162L1178 127Z" />
<glyph unicode="&#xa6;" glyph-name="brokenbar" horiz-adv-x="649" d="M190 950V1906H459V950H190ZM190 -320V636H459V-320H190Z" />
<glyph unicode="&#xa7;" glyph-name="section" horiz-adv-x="1271" d="M706 504Q757 481 802 459T887 416Q907 450 921 490T935 565Q935 656 846 719T567 869Q516 894 471 917T388 962Q367 928 353 886T338 808Q338 717 427 653T706 504ZM618 -287Q538 -287 463
-275T326 -246T218 -210T147 -177Q141 -96 145 -13T164 151H368L403 -17Q407 -32 415 -50T448 -86Q482 -111 534 -126T640 -141Q732 -141 782 -103T832 -5Q832 34 810 64T741 124T621 188T445 267Q288 336 189 431T90 677Q90 803 150 896T288 1030Q221 1083 189
1146T156 1296Q156 1364 183 1429T270 1546T425 1628T656 1660Q730 1660 799 1650T926 1625T1028 1593T1096 1562Q1102 1480 1098 1398T1079 1234H875L840 1402Q836 1417 828 1435T795 1470Q767 1490 724 1502T634 1514Q550 1514 505 1477T460 1379Q460 1340 481
1310T548 1249T663 1185T829 1105Q984 1034 1083 940T1183 696Q1183 574 1127 483T994 349Q1067 295 1102 231T1137 78Q1137 10 1109 -56T1018 -173T857 -255T618 -287Z" />
<glyph unicode="&#xa8;" glyph-name="dieresis" horiz-adv-x="1000" d="M908 1483Q908 1405 863 1358T741 1311Q665 1311 619 1358T573 1483Q573 1561 619 1607T741 1654Q817 1654 862 1608T908 1483ZM427 1483Q427 1405 381 1358T260 1311Q183 1311 137 1358T91
1483Q91 1561 137 1607T260 1654Q335 1654 381 1608T427 1483Z" />
<glyph unicode="&#xa9;" glyph-name="copyright" horiz-adv-x="2004" d="M84 781Q84 980 153 1149T345 1439T636 1630T1004 1699Q1203 1699 1371 1630T1661 1440T1851 1149T1920 782Q1920 584 1851 415T1661 124T1371 -67T1003 -136Q805 -136 636 -67T344 123T153
414T84 781ZM244 782Q244 610 300 466T456 218T696 58T1003 0Q1170 0 1310 57T1549 218T1704 465T1760 782Q1760 954 1705 1098T1550 1345T1311 1506T1004 1564Q838 1564 698 1506T457 1346T301 1099T244 782ZM999 259Q783 259 660 397T537 771Q537 902 575 1001T680
1167T838 1267T1036 1301Q1135 1301 1226 1275T1373 1211Q1383 1129 1379 1043T1359 869H1205L1161 1040Q1156 1060 1149 1075T1126 1103Q1109 1118 1082 1130T1020 1142Q943 1142 892 1065T841 818Q841 636 904 545T1087 454Q1151 454 1215 478T1320 542L1391
479Q1354 383 1251 321T999 259Z" />
<glyph unicode="&#xaa;" glyph-name="ordfeminine" horiz-adv-x="1111" d="M499 845Q530 845 557 852T606 873V1052L533 1049Q460 1046 438 1010T416 932Q416 887 434 866T499 845ZM831 680Q760 680 708 701T628 780Q582 729 514 704T361 678Q236 678 164 738T92
893Q92 952 120 998T197 1078T310 1131T447 1153L606 1160V1238Q606 1321 563 1352T438 1383Q366 1383 305 1362T192 1297L120 1357Q161 1460 262 1521T534 1582Q735 1582 824 1493T913 1236V880Q913 856 923 846T953 834L1029 824V710Q995 701 939 691T831 680Z"
/>
<glyph unicode="&#xab;" glyph-name="guillemotleft" horiz-adv-x="1501" d="M1318 74L722 530V690L1318 1154L1419 1029L1104 609L1420 196L1318 74ZM667 74L71 530V690L667 1154L768 1029L453 609L769 196L667 74Z" />
<glyph unicode="&#xac;" glyph-name="logicalnot" horiz-adv-x="1260" d="M128 499V726H1119V101H876V499H128Z" />
<glyph unicode="&#xad;" glyph-name="uni00AD" horiz-adv-x="1053" d="M129 480V712H925V480H129Z" />
<glyph unicode="&#xae;" glyph-name="registered" horiz-adv-x="1729" d="M89 1091Q89 1258 147 1400T309 1646T556 1807T866 1865Q1033 1865 1175 1807T1420 1646T1581 1401T1639 1091Q1639 924 1581 781T1421 536T1176 375T866 316Q699 316 556 374T310 535T148
781T89 1091ZM233 1091Q233 948 280 828T410 622T611 488T867 440Q1005 440 1121 488T1320 621T1449 827T1496 1091Q1496 1234 1450 1354T1321 1560T1122 1694T866 1742Q727 1742 610 1694T410 1560T280 1354T233 1091ZM875 1109Q919 1109 952 1148T985 1264Q985
1344 954 1378T855 1413Q838 1413 819 1411T781 1404V1112Q809 1110 831 1110T875 1109ZM871 762V675H479V762L533 778Q547 782 554 792T561 817V1366Q561 1382 554 1392T532 1405L479 1418V1517H672Q725 1516 771 1518T872 1520Q1058 1520 1137 1463T1216 1277Q1216
1204 1179 1140T1035 1047Q1075 1034 1098 1010T1137 949L1186 833Q1199 804 1217 794T1282 770V675H1059Q1030 675 1011 704T976 777L932 905Q921 938 909 962T884 1003L781 1002V814Q781 798 788 788T811 775L871 762Z" />
<glyph unicode="&#xaf;" glyph-name="overscore" horiz-adv-x="1000" d="M132 1355V1561H867V1355H132Z" />
<glyph unicode="&#xb0;" glyph-name="degree" horiz-adv-x="920" d="M459 914Q381 914 311 944T189 1025T107 1146T76 1293Q76 1374 106 1443T189 1563T311 1642T459 1671Q543 1671 614 1641T735 1560T815 1439T844 1293Q844 1212 814 1143T732 1023T610 943T459
914ZM460 1101Q538 1101 586 1156T635 1293Q635 1369 584 1427T457 1485Q380 1485 331 1429T282 1293Q282 1218 335 1160T460 1101Z" />
<glyph unicode="&#xb1;" glyph-name="plusminus" horiz-adv-x="1166" d="M702 329H465V508L472 658L322 651H114V864H322L472 857L465 1008V1203H702V1008L695 857L845 864H1053V651H845L695 658L702 508V329ZM1043 0H124V210H1043V0Z" />
<glyph unicode="&#xb2;" glyph-name="twosuperior" horiz-adv-x="1038" d="M903 624H133L97 742Q201 813 288 881T438 1015T536 1149T572 1283Q572 1357 528 1405T398 1454Q339 1454 282 1428T176 1356L110 1422Q124 1462 154 1501T231 1570T341 1620T487 1639Q580
1639 651 1614T769 1546T839 1446T863 1326Q863 1239 822 1161T716 1015T569 893T407 797H561Q666 797 704 814T752 855L808 973L949 957Q947 921 944 878T934 791T921 703T903 624Z" />
<glyph unicode="&#xb3;" glyph-name="threesuperior" horiz-adv-x="966" d="M79 740L143 847Q189 819 257 799T394 779Q485 779 539 818T593 926Q593 992 541 1024T387 1056H285L286 1181H307Q432 1181 489 1224T547 1333Q547 1402 496 1431T379 1460Q325 1460
272 1443T173 1389L111 1464Q133 1510 172 1543T259 1597T361 1628T468 1638Q542 1638 606 1620T718 1570T792 1490T820 1386Q820 1337 800 1297T746 1228T670 1179T584 1151Q640 1151 695 1137T792 1092T861 1016T888 908Q888 847 859 793T776 697T640 632T456
608Q334 608 238 642T79 740Z" />
<glyph unicode="&#xb4;" glyph-name="acute" horiz-adv-x="1000" d="M401 1251L310 1360L706 1813L903 1629Q865 1582 811 1532T691 1434T551 1339T401 1251Z" />
<glyph unicode="&#xb5;" glyph-name="uni00B5" horiz-adv-x="1515" d="M505 -440L240 -540L191 -496Q192 -399 193 -284T196 -54T197 166T198 350Q198 466 197 563T193 751T189 933T185 1129L471 1166L519 1122L508 564Q508 483 528 426T579 334T648 282T722 265Q784
265 846 311T941 458L933 1129L1207 1166L1255 1122L1225 352Q1221 256 1252 224T1327 192H1451V67Q1401 30 1330 2T1198 -26Q1108 -26 1044 42T963 241Q924 114 845 44T671 -26Q611 -26 550 7T446 114L505 -440Z" />
<glyph unicode="&#xb6;" glyph-name="paragraph" horiz-adv-x="1588" d="M294 -398L231 -246Q316 -203 371 -157T457 -48T501 100T514 307L515 665Q432 675 351 707T207 797T105 943T66 1149Q66 1245 96 1326T189 1466T349 1558T579 1591Q718 1591 888 1577T1258
1562H1482V1411L1337 1381Q1315 1376 1303 1363T1290 1326V229Q1290 207 1302 193T1336 174L1492 144V0H1010V1394Q967 1397 905 1401T792 1405V207Q792 65 766 -35T681 -204T527 -318T294 -398Z" />
<glyph unicode="&#xb7;" glyph-name="middot" horiz-adv-x="650" d="M526 668Q526 584 471 534T325 484Q234 484 179 534T124 668Q124 752 179 802T325 852Q416 852 471 802T526 668Z" />
<glyph unicode="&#xb8;" glyph-name="cedilla" horiz-adv-x="1000" d="M445 51H562L522 -89H553Q642 -91 697 -140T752 -273Q752 -387 642 -457T356 -528Q340 -528 324 -528T292 -526L273 -411Q374 -401 425 -367T477 -283Q477 -240 445 -218T360 -194L445 51Z" />
<glyph unicode="&#xb9;" glyph-name="onesuperior" horiz-adv-x="972" d="M660 1611V846Q660 823 669 812T703 797L906 765V624H129V765L349 797Q373 801 384 812T395 847L396 1354Q339 1334 271 1324T135 1310L105 1443Q201 1467 302 1518T491 1641L660 1611Z" />
<glyph unicode="&#xba;" glyph-name="ordmasculine" horiz-adv-x="1111" d="M86 1112Q86 1242 122 1331T223 1475T376 1554T568 1578Q777 1578 901 1475T1025 1134Q1025 1003 989 914T888 770T735 693T543 669Q336 669 211 772T86 1112ZM683 1112Q683 1212 677
1277T655 1381T615 1435T552 1451Q490 1451 459 1385T427 1134Q427 1035 433 969T455 865T495 812T558 796Q620 796 651 862T683 1112Z" />
<glyph unicode="&#xbb;" glyph-name="guillemotright" horiz-adv-x="1492" d="M184 74L82 196L398 609L83 1029L184 1154L780 690V530L184 74ZM825 74L723 196L1039 609L724 1029L825 1154L1421 690V530L825 74Z" />
<glyph unicode="&#xbc;" glyph-name="onequarter" horiz-adv-x="2491" d="M904 1611V846Q904 823 913 812T947 797L1150 765V624H373V765L593 797Q617 801 628 812T639 847L640 1354Q583 1334 515 1324T379 1310L349 1443Q445 1467 546 1518T735 1641L904 1611ZM859
0H621L1590 1562H1827L859 0ZM2428 188H2259V0H2008L2007 188H1581L1498 297Q1613 473 1711 651T1888 1005H2131L2169 956Q2098 820 2039 720T1927 546T1828 421T1733 328L2013 345L2057 581H2259V360L2428 371V188Z" />
<glyph unicode="&#xbd;" glyph-name="onehalf" horiz-adv-x="2463" d="M899 1611V846Q899 823 908 812T942 797L1145 765V624H368V765L588 797Q612 801 623 812T634 847L635 1354Q578 1334 510 1324T374 1310L344 1443Q440 1467 541 1518T730 1641L899 1611ZM853
0H615L1584 1562H1821L853 0ZM2350 0H1580L1544 118Q1648 189 1735 257T1885 391T1983 525T2019 659Q2019 733 1975 781T1845 830Q1786 830 1729 804T1623 732L1557 798Q1571 838 1601 877T1678 946T1788 996T1934 1015Q2027 1015 2098 990T2216 922T2286 822T2310
702Q2310 615 2269 537T2163 391T2016 269T1854 173H2008Q2113 173 2151 190T2199 231L2255 349L2396 333Q2394 297 2391 254T2381 167T2368 79T2350 0Z" />
<glyph unicode="&#xbe;" glyph-name="threequarters" horiz-adv-x="2466" d="M331 740L395 847Q441 819 509 799T646 779Q737 779 791 818T845 926Q845 992 793 1024T639 1056H537L538 1181H559Q684 1181 741 1224T799 1333Q799 1402 748 1431T631 1460Q577 1460
524 1443T425 1389L363 1464Q385 1510 424 1543T511 1597T613 1628T720 1638Q794 1638 858 1620T970 1570T1044 1490T1072 1386Q1072 1337 1052 1297T998 1228T922 1179T836 1151Q892 1151 947 1137T1044 1092T1113 1016T1140 908Q1140 847 1111 793T1028 697T892
632T708 608Q586 608 490 642T331 740ZM833 0H595L1564 1562H1801L833 0ZM2403 188H2234V0H1983L1982 188H1556L1473 297Q1588 473 1686 651T1863 1005H2106L2144 956Q2073 820 2014 720T1902 546T1803 421T1708 328L1988 345L2032 581H2234V360L2403 371V188Z"
/>
<glyph unicode="&#xbf;" glyph-name="questiondown" horiz-adv-x="1142" d="M438 990Q438 1071 493 1120T639 1169Q730 1169 785 1120T840 990Q840 908 785 859T639 810Q548 810 493 859T438 990ZM536 645H744Q772 596 802 529T832 399Q832 309 772 249T626 110Q526
17 477 -61T428 -234Q428 -318 472 -375T589 -432Q634 -432 667 -413T719 -371Q737 -349 745 -327T758 -270L787 -32H1001Q1033 -125 1054 -232T1082 -441Q1000 -510 876 -556T609 -603Q484 -603 382 -567T209 -468T98 -320T58 -135Q58 22 151 129T393 339Q431
366 453 382T487 413T504 446T514 497L536 645Z" />
<glyph unicode="&#xc0;" glyph-name="Agrave" horiz-adv-x="1607" d="M918 628L713 1286L514 628H918ZM567 144V0H-17V144L119 177Q139 182 151 193T171 225L626 1567H981L1439 225Q1446 205 1459 194T1492 177L1617 144V0H867V144L1058 175L971 457H462L376 175L567
144ZM575 2143L1085 1790L1013 1660Q939 1684 856 1713T694 1775T541 1845T415 1923L575 2143Z" />
<glyph unicode="&#xc1;" glyph-name="Aacute" horiz-adv-x="1607" d="M918 628L713 1286L514 628H918ZM567 144V0H-17V144L119 177Q139 182 151 193T171 225L626 1567H981L1439 225Q1446 205 1459 194T1492 177L1617 144V0H867V144L1058 175L971 457H462L376 175L567
144ZM1219 1909Q1165 1871 1090 1836T931 1771T762 1714T601 1667L538 1793L1068 2133L1219 1909Z" />
<glyph unicode="&#xc2;" glyph-name="Acircumflex" horiz-adv-x="1607" d="M918 628L713 1286L514 628H918ZM567 144V0H-17V144L119 177Q139 182 151 193T171 225L626 1567H981L1439 225Q1446 205 1459 194T1492 177L1617 144V0H867V144L1058 175L971 457H462L376
175L567 144ZM459 1655L362 1766L682 2092L903 2102L1247 1774L1145 1657L790 1858L459 1655Z" />
<glyph unicode="&#xc3;" glyph-name="Atilde" horiz-adv-x="1607" d="M918 628L713 1286L514 628H918ZM567 144V0H-17V144L119 177Q139 182 151 193T171 225L626 1567H981L1439 225Q1446 205 1459 194T1492 177L1617 144V0H867V144L1058 175L971 457H462L376 175L567
144ZM1270 1985Q1255 1927 1227 1873T1159 1778T1070 1713T960 1688Q901 1688 853 1709T763 1754T685 1800T610 1821Q561 1821 520 1786T445 1699L339 1758Q355 1816 383 1870T450 1964T540 2029T650 2054Q709 2054 757 2034T846 1988T924 1943T1000 1922Q1048
1922 1089 1956T1165 2043L1270 1985Z" />
<glyph unicode="&#xc4;" glyph-name="Adieresis" horiz-adv-x="1607" d="M918 628L713 1286L514 628H918ZM567 144V0H-17V144L119 177Q139 182 151 193T171 225L626 1567H981L1439 225Q1446 205 1459 194T1492 177L1617 144V0H867V144L1058 175L971 457H462L376
175L567 144ZM1241 1858Q1241 1780 1196 1733T1074 1685Q998 1685 952 1732T906 1858Q906 1936 952 1982T1074 2029Q1150 2029 1195 1983T1241 1858ZM703 1858Q703 1780 657 1733T536 1685Q459 1685 413 1732T367 1858Q367 1936 413 1982T536 2029Q611 2029 657
1983T703 1858Z" />
<glyph unicode="&#xc5;" glyph-name="Aring" horiz-adv-x="1607" d="M918 628L713 1286L514 628H918ZM567 144V0H-17V144L119 177Q139 182 151 193T171 225L626 1567H981L1439 225Q1446 205 1459 194T1492 177L1617 144V0H867V144L1058 175L971 457H462L376 175L567
144ZM1125 1792Q1125 1730 1100 1681T1031 1597T928 1543T801 1524Q648 1524 566 1597T484 1797Q484 1858 510 1907T580 1991T685 2044T815 2063Q972 2063 1048 1987T1125 1792ZM677 1798Q677 1741 708 1700T805 1658Q866 1658 899 1689T932 1787Q932 1848 902
1888T806 1928Q744 1928 711 1896T677 1798Z" />
<glyph unicode="&#xc6;" glyph-name="AE" horiz-adv-x="2144" d="M906 1392L622 718H1000V1392H906ZM591 144V0H-20V144L132 177Q151 181 163 193T183 224L681 1371L426 1412V1562H1982Q1995 1457 1996 1351T1988 1135H1810L1756 1320Q1749 1346 1735 1361T1698
1385Q1672 1395 1626 1401T1531 1407H1362V872L1792 888V684L1362 695V163H1573Q1622 163 1675 169T1754 185Q1776 194 1787 208T1808 250L1894 498L2072 470Q2071 350 2062 236T2034 0H798V144L954 173Q977 177 988 191T1000 229V548H550L392 173L591 144Z" />
<glyph unicode="&#xc7;" glyph-name="Ccedilla" horiz-adv-x="1459" d="M809 -35Q449 -35 272 167T94 747Q94 963 149 1123T306 1387T550 1541T868 1592Q987 1592 1117 1570T1356 1508Q1363 1409 1358 1295T1334 1056H1111L1052 1318Q1048 1337 1037 1358T999
1398Q971 1417 928 1429T838 1441Q688 1441 604 1290T520 786Q520 459 599 289T847 119Q896 119 943 133T1022 178Q1035 190 1045 207T1066 256L1137 488L1356 469Q1361 377 1359 271T1340 51Q1286 33 1221 17T1087 -10T947 -28T809 -35ZM736 51H853L813 -89H844Q933
-91 988 -140T1043 -273Q1043 -387 933 -457T647 -528Q631 -528 615 -528T583 -526L564 -411Q665 -401 716 -367T768 -283Q768 -240 736 -218T651 -194L736 51Z" />
<glyph unicode="&#xc8;" glyph-name="Egrave" horiz-adv-x="1452" d="M1297 1135H1119L1065 1320Q1058 1346 1043 1361T1006 1385Q981 1395 935 1401T840 1407H671V882L1101 898V693L671 704V163H882Q931 163 984 169T1063 185Q1085 194 1096 208T1117 250L1203
498L1380 470Q1380 350 1371 236T1343 0H89V144L245 173Q268 177 279 191T291 229V1324Q291 1347 280 1361T245 1381L89 1411V1562H1291Q1304 1457 1305 1351T1297 1135ZM514 2143L1024 1790L952 1660Q878 1684 795 1713T633 1775T480 1845T354 1923L514 2143Z"
/>
<glyph unicode="&#xc9;" glyph-name="Eacute" horiz-adv-x="1452" d="M1297 1135H1119L1065 1320Q1058 1346 1043 1361T1006 1385Q981 1395 935 1401T840 1407H671V882L1101 898V693L671 704V163H882Q931 163 984 169T1063 185Q1085 194 1096 208T1117 250L1203
498L1380 470Q1380 350 1371 236T1343 0H89V144L245 173Q268 177 279 191T291 229V1324Q291 1347 280 1361T245 1381L89 1411V1562H1291Q1304 1457 1305 1351T1297 1135ZM1158 1909Q1104 1871 1029 1836T870 1771T701 1714T540 1667L477 1793L1007 2133L1158 1909Z"
/>
<glyph unicode="&#xca;" glyph-name="Ecircumflex" horiz-adv-x="1452" d="M1297 1135H1119L1065 1320Q1058 1346 1043 1361T1006 1385Q981 1395 935 1401T840 1407H671V882L1101 898V693L671 704V163H882Q931 163 984 169T1063 185Q1085 194 1096 208T1117 250L1203
498L1380 470Q1380 350 1371 236T1343 0H89V144L245 173Q268 177 279 191T291 229V1324Q291 1347 280 1361T245 1381L89 1411V1562H1291Q1304 1457 1305 1351T1297 1135ZM398 1655L301 1766L621 2092L842 2102L1186 1774L1084 1657L729 1858L398 1655Z" />
<glyph unicode="&#xcb;" glyph-name="Edieresis" horiz-adv-x="1452" d="M1297 1135H1119L1065 1320Q1058 1346 1043 1361T1006 1385Q981 1395 935 1401T840 1407H671V882L1101 898V693L671 704V163H882Q931 163 984 169T1063 185Q1085 194 1096 208T1117 250L1203
498L1380 470Q1380 350 1371 236T1343 0H89V144L245 173Q268 177 279 191T291 229V1324Q291 1347 280 1361T245 1381L89 1411V1562H1291Q1304 1457 1305 1351T1297 1135ZM1180 1858Q1180 1780 1135 1733T1013 1685Q937 1685 891 1732T845 1858Q845 1936 891 1982T1013
2029Q1089 2029 1134 1983T1180 1858ZM642 1858Q642 1780 596 1733T475 1685Q398 1685 352 1732T306 1858Q306 1936 352 1982T475 2029Q550 2029 596 1983T642 1858Z" />
<glyph unicode="&#xcc;" glyph-name="Igrave" horiz-adv-x="962" d="M873 1562V1411L717 1381Q694 1376 683 1362T671 1324V230Q671 207 682 193T717 174L873 144V0H89V144L245 173Q268 177 279 191T291 229V1324Q291 1347 280 1361T245 1381L89 1411V1562H873ZM251
2143L761 1790L689 1660Q615 1684 532 1713T370 1775T217 1845T91 1923L251 2143Z" />
<glyph unicode="&#xcd;" glyph-name="Iacute" horiz-adv-x="962" d="M873 1562V1411L717 1381Q694 1376 683 1362T671 1324V230Q671 207 682 193T717 174L873 144V0H89V144L245 173Q268 177 279 191T291 229V1324Q291 1347 280 1361T245 1381L89 1411V1562H873ZM895
1909Q841 1871 766 1836T607 1771T438 1714T277 1667L214 1793L744 2133L895 1909Z" />
<glyph unicode="&#xce;" glyph-name="Icircumflex" horiz-adv-x="962" d="M873 1562V1411L717 1381Q694 1376 683 1362T671 1324V230Q671 207 682 193T717 174L873 144V0H89V144L245 173Q268 177 279 191T291 229V1324Q291 1347 280 1361T245 1381L89 1411V1562H873ZM135
1655L38 1766L358 2092L579 2102L923 1774L821 1657L466 1858L135 1655Z" />
<glyph unicode="&#xcf;" glyph-name="Idieresis" horiz-adv-x="962" d="M873 1562V1411L717 1381Q694 1376 683 1362T671 1324V230Q671 207 682 193T717 174L873 144V0H89V144L245 173Q268 177 279 191T291 229V1324Q291 1347 280 1361T245 1381L89 1411V1562H873ZM917
1858Q917 1780 872 1733T750 1685Q674 1685 628 1732T582 1858Q582 1936 628 1982T750 2029Q826 2029 871 1983T917 1858ZM379 1858Q379 1780 333 1733T212 1685Q135 1685 89 1732T43 1858Q43 1936 89 1982T212 2029Q287 2029 333 1983T379 1858Z" />
<glyph unicode="&#xd0;" glyph-name="Eth" horiz-adv-x="1690" d="M1596 833Q1596 626 1543 466T1389 197T1142 35T810 -16Q776 -15 731 -13T641 -7T552 -2T480 0H90V144L250 174Q269 177 280 191T292 224V713H101V879H292V1330Q292 1349 281 1362T252 1379L90
1411V1562H476Q577 1562 662 1568T834 1574Q1214 1574 1405 1396T1596 833ZM815 140Q901 141 969 173T1085 278T1157 474T1182 776Q1182 1080 1096 1253T807 1426Q756 1426 719 1418T672 1409V879H926V713H672V161Q697 150 738 145T815 140Z" />
<glyph unicode="&#xd1;" glyph-name="Ntilde" horiz-adv-x="1807" d="M729 144V0H89V144L245 172Q268 176 279 190T291 228V1324Q291 1347 280 1361T245 1381L89 1411V1562H681L1336 497V1324Q1336 1347 1324 1362T1290 1381L1124 1411V1562H1737V1411L1592 1381Q1569
1376 1558 1362T1546 1324V0H1203L501 1152V229Q501 206 513 192T547 173L729 144ZM1382 1985Q1367 1927 1339 1873T1271 1778T1182 1713T1072 1688Q1013 1688 965 1709T875 1754T797 1800T722 1821Q673 1821 632 1786T557 1699L451 1758Q467 1816 495 1870T562
1964T652 2029T762 2054Q821 2054 869 2034T958 1988T1036 1943T1112 1922Q1160 1922 1201 1956T1277 2043L1382 1985Z" />
<glyph unicode="&#xd2;" glyph-name="Ograve" horiz-adv-x="1599" d="M773 -34Q597 -34 469 21T257 177T134 424T94 751Q94 950 141 1107T280 1372T509 1537T825 1594Q1001 1594 1130 1539T1342 1383T1465 1135T1505 808Q1505 610 1458 453T1319 188T1090 23T773
-34ZM804 1438Q658 1438 584 1282T510 770Q510 424 580 273T794 121Q938 121 1013 279T1088 794Q1088 1140 1018 1289T804 1438ZM569 2143L1079 1790L1007 1660Q933 1684 850 1713T688 1775T535 1845T409 1923L569 2143Z" />
<glyph unicode="&#xd3;" glyph-name="Oacute" horiz-adv-x="1599" d="M773 -34Q597 -34 469 21T257 177T134 424T94 751Q94 950 141 1107T280 1372T509 1537T825 1594Q1001 1594 1130 1539T1342 1383T1465 1135T1505 808Q1505 610 1458 453T1319 188T1090 23T773
-34ZM804 1438Q658 1438 584 1282T510 770Q510 424 580 273T794 121Q938 121 1013 279T1088 794Q1088 1140 1018 1289T804 1438ZM1213 1909Q1159 1871 1084 1836T925 1771T756 1714T595 1667L532 1793L1062 2133L1213 1909Z" />
<glyph unicode="&#xd4;" glyph-name="Ocircumflex" horiz-adv-x="1599" d="M773 -34Q597 -34 469 21T257 177T134 424T94 751Q94 950 141 1107T280 1372T509 1537T825 1594Q1001 1594 1130 1539T1342 1383T1465 1135T1505 808Q1505 610 1458 453T1319 188T1090
23T773 -34ZM804 1438Q658 1438 584 1282T510 770Q510 424 580 273T794 121Q938 121 1013 279T1088 794Q1088 1140 1018 1289T804 1438ZM453 1655L356 1766L676 2092L897 2102L1241 1774L1139 1657L784 1858L453 1655Z" />
<glyph unicode="&#xd5;" glyph-name="Otilde" horiz-adv-x="1599" d="M773 -34Q597 -34 469 21T257 177T134 424T94 751Q94 950 141 1107T280 1372T509 1537T825 1594Q1001 1594 1130 1539T1342 1383T1465 1135T1505 808Q1505 610 1458 453T1319 188T1090 23T773
-34ZM804 1438Q658 1438 584 1282T510 770Q510 424 580 273T794 121Q938 121 1013 279T1088 794Q1088 1140 1018 1289T804 1438ZM1264 1985Q1249 1927 1221 1873T1153 1778T1064 1713T954 1688Q895 1688 847 1709T757 1754T679 1800T604 1821Q555 1821 514 1786T439
1699L333 1758Q349 1816 377 1870T444 1964T534 2029T644 2054Q703 2054 751 2034T840 1988T918 1943T994 1922Q1042 1922 1083 1956T1159 2043L1264 1985Z" />
<glyph unicode="&#xd6;" glyph-name="Odieresis" horiz-adv-x="1599" d="M773 -34Q597 -34 469 21T257 177T134 424T94 751Q94 950 141 1107T280 1372T509 1537T825 1594Q1001 1594 1130 1539T1342 1383T1465 1135T1505 808Q1505 610 1458 453T1319 188T1090 23T773
-34ZM804 1438Q658 1438 584 1282T510 770Q510 424 580 273T794 121Q938 121 1013 279T1088 794Q1088 1140 1018 1289T804 1438ZM1235 1858Q1235 1780 1190 1733T1068 1685Q992 1685 946 1732T900 1858Q900 1936 946 1982T1068 2029Q1144 2029 1189 1983T1235 1858ZM697
1858Q697 1780 651 1733T530 1685Q453 1685 407 1732T361 1858Q361 1936 407 1982T530 2029Q605 2029 651 1983T697 1858Z" />
<glyph unicode="&#xd7;" glyph-name="multiply" horiz-adv-x="1109" d="M270 154L99 331L395 617L99 903L272 1080L554 770L837 1080L1009 903L713 617L1009 331L838 154L554 464L270 154Z" />
<glyph unicode="&#xd8;" glyph-name="Oslash" horiz-adv-x="1599" d="M479 770Q479 633 490 527T525 345L984 1360Q949 1403 902 1422T796 1442Q639 1442 559 1288T479 770ZM784 118Q941 118 1021 274T1101 794Q1101 922 1091 1023T1061 1198L604 192Q639 154
684 136T784 118ZM764 -34Q700 -34 641 -27T531 -4L419 -233L257 -150L366 70Q223 165 154 340T85 751Q85 950 132 1107T271 1372T500 1537T816 1594Q885 1594 946 1586T1062 1561L1160 1762L1321 1678L1225 1483Q1363 1387 1429 1214T1496 808Q1496 610 1449 453T1310
188T1081 23T764 -34Z" />
<glyph unicode="&#xd9;" glyph-name="Ugrave" horiz-adv-x="1723" d="M1046 1562H1645V1411L1535 1383Q1513 1377 1502 1362T1490 1325V578Q1490 414 1447 299T1323 112T1129 8T875 -25Q550 -25 389 119T228 591V1325Q228 1347 217 1361T184 1383L84 1411V1562H825V1411L666
1377Q644 1373 632 1358T620 1321V559Q620 355 690 239T935 123Q1027 123 1089 155T1188 244T1242 382T1258 557V1324Q1258 1347 1246 1361T1212 1380L1046 1411V1562ZM658 2143L1168 1790L1096 1660Q1022 1684 939 1713T777 1775T624 1845T498 1923L658 2143Z"
/>
<glyph unicode="&#xda;" glyph-name="Uacute" horiz-adv-x="1723" d="M1046 1562H1645V1411L1535 1383Q1513 1377 1502 1362T1490 1325V578Q1490 414 1447 299T1323 112T1129 8T875 -25Q550 -25 389 119T228 591V1325Q228 1347 217 1361T184 1383L84 1411V1562H825V1411L666
1377Q644 1373 632 1358T620 1321V559Q620 355 690 239T935 123Q1027 123 1089 155T1188 244T1242 382T1258 557V1324Q1258 1347 1246 1361T1212 1380L1046 1411V1562ZM1302 1909Q1248 1871 1173 1836T1014 1771T845 1714T684 1667L621 1793L1151 2133L1302 1909Z"
/>
<glyph unicode="&#xdb;" glyph-name="Ucircumflex" horiz-adv-x="1723" d="M1046 1562H1645V1411L1535 1383Q1513 1377 1502 1362T1490 1325V578Q1490 414 1447 299T1323 112T1129 8T875 -25Q550 -25 389 119T228 591V1325Q228 1347 217 1361T184 1383L84 1411V1562H825V1411L666
1377Q644 1373 632 1358T620 1321V559Q620 355 690 239T935 123Q1027 123 1089 155T1188 244T1242 382T1258 557V1324Q1258 1347 1246 1361T1212 1380L1046 1411V1562ZM542 1655L445 1766L765 2092L986 2102L1330 1774L1228 1657L873 1858L542 1655Z" />
<glyph unicode="&#xdc;" glyph-name="Udieresis" horiz-adv-x="1723" d="M1046 1562H1645V1411L1535 1383Q1513 1377 1502 1362T1490 1325V578Q1490 414 1447 299T1323 112T1129 8T875 -25Q550 -25 389 119T228 591V1325Q228 1347 217 1361T184 1383L84 1411V1562H825V1411L666
1377Q644 1373 632 1358T620 1321V559Q620 355 690 239T935 123Q1027 123 1089 155T1188 244T1242 382T1258 557V1324Q1258 1347 1246 1361T1212 1380L1046 1411V1562ZM1324 1858Q1324 1780 1279 1733T1157 1685Q1081 1685 1035 1732T989 1858Q989 1936 1035 1982T1157
2029Q1233 2029 1278 1983T1324 1858ZM786 1858Q786 1780 740 1733T619 1685Q542 1685 496 1732T450 1858Q450 1936 496 1982T619 2029Q694 2029 740 1983T786 1858Z" />
<glyph unicode="&#xdd;" glyph-name="Yacute" horiz-adv-x="1511" d="M1198 0H332V143L522 181Q545 185 557 198T569 235V612L156 1339Q146 1356 133 1366T100 1380L-24 1411V1562H737V1411L580 1371L859 831L1119 1372L944 1411V1562H1502V1411L1387 1382Q1368
1378 1354 1369T1331 1341L961 612V235Q961 212 973 199T1008 181L1198 143V0ZM1204 1909Q1150 1871 1075 1836T916 1771T747 1714T586 1667L523 1793L1053 2133L1204 1909Z" />
<glyph unicode="&#xde;" glyph-name="Thorn" horiz-adv-x="1467" d="M796 467Q892 467 947 544T1003 796Q1003 853 992 905T956 995T890 1056T788 1079Q757 1079 723 1077T652 1070V479Q692 473 728 470T796 467ZM864 144V0H93V144L231 173Q254 177 266 191T278
229V1324Q278 1347 266 1361T231 1381L93 1411V1562H864V1411L698 1381Q676 1376 664 1362T652 1324V1212Q725 1219 800 1225T944 1231Q1172 1231 1286 1128T1401 809Q1401 560 1262 443T866 325Q803 325 752 327T652 334V230Q652 207 663 193T698 174L864 144Z"
/>
<glyph unicode="&#xdf;" glyph-name="germandbls" horiz-adv-x="1669" d="M1144 -29Q1032 -29 924 -5T738 53Q734 85 732 120T730 189Q730 241 733 291T744 387H924L966 237Q976 201 984 185T1011 153Q1033 136 1063 124T1130 111Q1187 111 1227 143T1268 235Q1268
318 1199 374T1028 489Q924 551 859 625T793 813Q793 929 861 1010T1031 1143Q1041 1186 1047 1226T1054 1306Q1054 1434 992 1509T814 1584Q714 1584 655 1518T595 1301V0H79V142L187 162Q210 166 222 180T234 218V938L67 969V1106L234 1140V1199Q234 1312 288
1420T435 1612T651 1747T911 1799Q1004 1799 1094 1773T1254 1693T1369 1558T1415 1367Q1416 1305 1402 1238T1360 1101Q1261 1077 1200 1031T1138 919Q1138 859 1192 814T1351 705Q1488 623 1557 542T1627 335Q1627 244 1590 176T1489 62T1336 -6T1144 -29Z" />
<glyph unicode="&#xe0;" glyph-name="agrave" horiz-adv-x="1251" d="M552 176Q597 176 637 189T712 226V473L602 466Q505 461 470 413T435 301Q435 238 462 207T552 176ZM975 -19Q889 -19 828 10T735 115Q677 49 591 13T398 -23Q246 -23 156 54T65 258Q65 338
101 399T199 501T340 566T508 594L712 605V717Q712 839 656 886T495 933Q404 933 326 904T181 815L99 886Q148 1015 274 1090T602 1166Q844 1166 953 1054T1062 723V228Q1062 197 1075 184T1113 167L1212 155V20Q1172 9 1104 -5T975 -19ZM464 1813L846 1367L749
1251Q600 1333 472 1432T267 1629L464 1813Z" />
<glyph unicode="&#xe1;" glyph-name="aacute" horiz-adv-x="1251" d="M552 176Q597 176 637 189T712 226V473L602 466Q505 461 470 413T435 301Q435 238 462 207T552 176ZM975 -19Q889 -19 828 10T735 115Q677 49 591 13T398 -23Q246 -23 156 54T65 258Q65 338
101 399T199 501T340 566T508 594L712 605V717Q712 839 656 886T495 933Q404 933 326 904T181 815L99 886Q148 1015 274 1090T602 1166Q844 1166 953 1054T1062 723V228Q1062 197 1075 184T1113 167L1212 155V20Q1172 9 1104 -5T975 -19ZM507 1251L416 1360L812
1813L1009 1629Q971 1582 917 1532T797 1434T657 1339T507 1251Z" />
<glyph unicode="&#xe2;" glyph-name="acircumflex" horiz-adv-x="1251" d="M552 176Q597 176 637 189T712 226V473L602 466Q505 461 470 413T435 301Q435 238 462 207T552 176ZM975 -19Q889 -19 828 10T735 115Q677 49 591 13T398 -23Q246 -23 156 54T65 258Q65
338 101 399T199 501T340 566T508 594L712 605V717Q712 839 656 886T495 933Q404 933 326 904T181 815L99 886Q148 1015 274 1090T602 1166Q844 1166 953 1054T1062 723V228Q1062 197 1075 184T1113 167L1212 155V20Q1172 9 1104 -5T975 -19ZM291 1263L181 1367L482
1759L699 1778L1029 1374L913 1265L590 1517L291 1263Z" />
<glyph unicode="&#xe3;" glyph-name="atilde" horiz-adv-x="1251" d="M552 176Q597 176 637 189T712 226V473L602 466Q505 461 470 413T435 301Q435 238 462 207T552 176ZM975 -19Q889 -19 828 10T735 115Q677 49 591 13T398 -23Q246 -23 156 54T65 258Q65 338
101 399T199 501T340 566T508 594L712 605V717Q712 839 656 886T495 933Q404 933 326 904T181 815L99 886Q148 1015 274 1090T602 1166Q844 1166 953 1054T1062 723V228Q1062 197 1075 184T1113 167L1212 155V20Q1172 9 1104 -5T975 -19ZM1055 1597Q1040 1537 1013
1482T947 1384T860 1317T753 1291Q697 1291 651 1313T566 1361T491 1410T419 1432Q373 1432 333 1394T261 1302L157 1362Q172 1423 199 1479T264 1577T351 1644T458 1670Q514 1670 560 1648T645 1600T720 1551T792 1529Q838 1529 878 1566T950 1659L1055 1597Z"
/>
<glyph unicode="&#xe4;" glyph-name="adieresis" horiz-adv-x="1251" d="M552 176Q597 176 637 189T712 226V473L602 466Q505 461 470 413T435 301Q435 238 462 207T552 176ZM975 -19Q889 -19 828 10T735 115Q677 49 591 13T398 -23Q246 -23 156 54T65 258Q65
338 101 399T199 501T340 566T508 594L712 605V717Q712 839 656 886T495 933Q404 933 326 904T181 815L99 886Q148 1015 274 1090T602 1166Q844 1166 953 1054T1062 723V228Q1062 197 1075 184T1113 167L1212 155V20Q1172 9 1104 -5T975 -19ZM1014 1483Q1014 1405
969 1358T847 1311Q771 1311 725 1358T679 1483Q679 1561 725 1607T847 1654Q923 1654 968 1608T1014 1483ZM533 1483Q533 1405 487 1358T366 1311Q289 1311 243 1358T197 1483Q197 1561 243 1607T366 1654Q441 1654 487 1608T533 1483Z" />
<glyph unicode="&#xe5;" glyph-name="aring" horiz-adv-x="1251" d="M552 176Q597 176 637 189T712 226V473L602 466Q505 461 470 413T435 301Q435 238 462 207T552 176ZM975 -19Q889 -19 828 10T735 115Q677 49 591 13T398 -23Q246 -23 156 54T65 258Q65 338
101 399T199 501T340 566T508 594L712 605V717Q712 839 656 886T495 933Q404 933 326 904T181 815L99 886Q148 1015 274 1090T602 1166Q844 1166 953 1054T1062 723V228Q1062 197 1075 184T1113 167L1212 155V20Q1172 9 1104 -5T975 -19ZM916 1531Q916 1472 892
1424T825 1343T725 1291T602 1273Q453 1273 374 1343T295 1536Q295 1595 320 1642T389 1723T490 1774T616 1792Q768 1792 842 1718T916 1531ZM488 1537Q488 1484 517 1446T606 1407Q663 1407 693 1436T723 1526Q723 1583 695 1620T607 1657Q550 1657 519 1628T488
1537Z" />
<glyph unicode="&#xe6;" glyph-name="ae" horiz-adv-x="1793" d="M1236 1019Q1172 1019 1126 960T1066 752H1383Q1384 761 1384 772T1384 798Q1384 893 1348 956T1236 1019ZM1704 249Q1683 178 1637 126T1529 41T1391 -9T1233 -26Q1084 -26 980 24T813 165Q750
77 646 27T410 -23Q245 -23 155 54T65 256Q65 337 101 398T199 502T340 567T508 595L712 607V717Q712 835 652 884T488 933Q405 933 326 904T181 815L99 886Q148 1020 275 1093T575 1166Q688 1166 765 1134T892 1044Q959 1103 1052 1135T1265 1167Q1380 1167 1465
1138T1605 1057T1686 935T1713 779Q1713 742 1708 698T1696 618H1061Q1062 391 1130 293T1342 195Q1420 195 1498 223T1626 307L1704 249ZM552 176Q608 176 661 198T763 259Q744 306 732 360T716 473L602 466Q504 460 470 412T435 301Q435 238 462 207T552 176Z"
/>
<glyph unicode="&#xe7;" glyph-name="ccedilla" horiz-adv-x="1139" d="M79 556Q79 706 123 821T244 1012T430 1128T664 1168Q770 1168 875 1143T1049 1080Q1056 979 1050 880T1025 688H850L793 889Q783 924 774 942T751 974Q735 989 710 999T655 1009Q576 1009
522 916T468 604Q468 402 528 299T731 195Q819 195 884 226T986 290L1063 228Q1026 120 910 47T612 -26Q474 -26 373 19T207 142T111 327T79 556ZM536 51H653L613 -89H644Q733 -91 788 -140T843 -273Q843 -387 733 -457T447 -528Q431 -528 415 -528T383 -526L364
-411Q465 -401 516 -367T568 -283Q568 -240 536 -218T451 -194L536 51Z" />
<glyph unicode="&#xe8;" glyph-name="egrave" horiz-adv-x="1184" d="M623 1019Q556 1019 513 961T457 752H774Q775 761 775 772T775 798Q775 894 739 956T623 1019ZM1095 249Q1055 115 927 45T620 -26Q482 -26 380 15T212 132T114 317T82 560Q82 856 230 1011T648
1167Q767 1167 854 1138T996 1058T1077 935T1104 780Q1104 742 1099 698T1087 618H452Q453 398 513 297T730 195Q812 195 889 223T1017 307L1095 249ZM475 1813L857 1367L760 1251Q611 1333 483 1432T278 1629L475 1813Z" />
<glyph unicode="&#xe9;" glyph-name="eacute" horiz-adv-x="1184" d="M623 1019Q556 1019 513 961T457 752H774Q775 761 775 772T775 798Q775 894 739 956T623 1019ZM1095 249Q1055 115 927 45T620 -26Q482 -26 380 15T212 132T114 317T82 560Q82 856 230 1011T648
1167Q767 1167 854 1138T996 1058T1077 935T1104 780Q1104 742 1099 698T1087 618H452Q453 398 513 297T730 195Q812 195 889 223T1017 307L1095 249ZM518 1251L427 1360L823 1813L1020 1629Q982 1582 928 1532T808 1434T668 1339T518 1251Z" />
<glyph unicode="&#xea;" glyph-name="ecircumflex" horiz-adv-x="1184" d="M623 1019Q556 1019 513 961T457 752H774Q775 761 775 772T775 798Q775 894 739 956T623 1019ZM1095 249Q1055 115 927 45T620 -26Q482 -26 380 15T212 132T114 317T82 560Q82 856 230
1011T648 1167Q767 1167 854 1138T996 1058T1077 935T1104 780Q1104 742 1099 698T1087 618H452Q453 398 513 297T730 195Q812 195 889 223T1017 307L1095 249ZM302 1263L192 1367L493 1759L710 1778L1040 1374L924 1265L601 1517L302 1263Z" />
<glyph unicode="&#xeb;" glyph-name="edieresis" horiz-adv-x="1184" d="M623 1019Q556 1019 513 961T457 752H774Q775 761 775 772T775 798Q775 894 739 956T623 1019ZM1095 249Q1055 115 927 45T620 -26Q482 -26 380 15T212 132T114 317T82 560Q82 856 230 1011T648
1167Q767 1167 854 1138T996 1058T1077 935T1104 780Q1104 742 1099 698T1087 618H452Q453 398 513 297T730 195Q812 195 889 223T1017 307L1095 249ZM1025 1483Q1025 1405 980 1358T858 1311Q782 1311 736 1358T690 1483Q690 1561 736 1607T858 1654Q934 1654
979 1608T1025 1483ZM544 1483Q544 1405 498 1358T377 1311Q300 1311 254 1358T208 1483Q208 1561 254 1607T377 1654Q452 1654 498 1608T544 1483Z" />
<glyph unicode="&#xec;" glyph-name="igrave" horiz-adv-x="801" d="M596 1121V219Q596 196 608 182T643 163L751 143V0H80V143L188 163Q210 167 222 181T235 219V878Q235 900 224 916T191 936L69 961V1108Q123 1122 184 1133T308 1151T432 1161T548 1165L596
1121ZM232 1813L614 1367L517 1251Q368 1333 240 1432T35 1629L232 1813Z" />
<glyph unicode="&#xed;" glyph-name="iacute" horiz-adv-x="801" d="M596 1121V219Q596 196 608 182T643 163L751 143V0H80V143L188 163Q210 167 222 181T235 219V878Q235 900 224 916T191 936L69 961V1108Q123 1122 184 1133T308 1151T432 1161T548 1165L596
1121ZM275 1251L184 1360L580 1813L777 1629Q739 1582 685 1532T565 1434T425 1339T275 1251Z" />
<glyph unicode="&#xee;" glyph-name="icircumflex" horiz-adv-x="801" d="M596 1121V219Q596 196 608 182T643 163L751 143V0H80V143L188 163Q210 167 222 181T235 219V878Q235 900 224 916T191 936L69 961V1108Q123 1122 184 1133T308 1151T432 1161T548 1165L596
1121ZM99 1264L-11 1362L250 1754L467 1773L757 1369L641 1266L358 1522L99 1264Z" />
<glyph unicode="&#xef;" glyph-name="idieresis" horiz-adv-x="801" d="M596 1121V219Q596 196 608 182T643 163L751 143V0H80V143L188 163Q210 167 222 181T235 219V878Q235 900 224 916T191 936L69 961V1108Q123 1122 184 1133T308 1151T432 1161T548 1165L596
1121ZM782 1483Q782 1405 737 1358T615 1311Q539 1311 493 1358T447 1483Q447 1561 493 1607T615 1654Q691 1654 736 1608T782 1483ZM301 1483Q301 1405 255 1358T134 1311Q57 1311 11 1358T-35 1483Q-35 1561 11 1607T134 1654Q209 1654 255 1608T301 1483Z" />
<glyph unicode="&#xf0;" glyph-name="eth" horiz-adv-x="1311" d="M620 -23Q370 -23 226 122T82 549Q82 709 126 820T238 998T388 1096T547 1127Q608 1127 669 1109T780 1050Q752 1145 707 1226T598 1380L316 1190L220 1350L473 1496Q416 1542 347 1585T196 1671L258
1799Q380 1772 487 1728T686 1627L944 1797L1041 1640L829 1520Q923 1438 994 1338T1113 1128T1184 898T1208 655Q1208 526 1180 404T1084 187T903 35T620 -23ZM651 131Q749 131 790 235T832 599Q832 672 828 739T817 867Q786 899 745 917T654 935Q610 935 576
917T520 855T485 736T473 548Q473 354 512 243T651 131Z" />
<glyph unicode="&#xf1;" glyph-name="ntilde" horiz-adv-x="1496" d="M708 142V0H80V142L189 163Q211 167 223 181T235 219V878Q235 900 224 916T191 936L69 961V1108Q174 1136 290 1150T507 1166L557 1121L578 1012Q649 1087 743 1124T950 1162Q1151 1162 1225
1050T1299 732V219Q1299 196 1311 182T1345 163L1454 143V0H826V142L893 162Q915 170 926 183T938 219V692Q938 832 897 890T767 949Q726 949 682 937T596 901V219Q596 196 607 183T640 162L708 142ZM1202 1597Q1187 1537 1160 1482T1094 1384T1007 1317T900 1291Q844
1291 798 1313T713 1361T638 1410T566 1432Q520 1432 480 1394T408 1302L304 1362Q319 1423 346 1479T411 1577T498 1644T605 1670Q661 1670 707 1648T792 1600T867 1551T939 1529Q985 1529 1025 1566T1097 1659L1202 1597Z" />
<glyph unicode="&#xf2;" glyph-name="ograve" horiz-adv-x="1315" d="M81 558Q81 725 126 842T251 1031T439 1135T673 1168Q935 1168 1084 1025T1233 583Q1233 415 1188 298T1063 110T876 6T641 -26Q380 -26 231 117T81 558ZM844 556Q844 807 804 912T653 1017Q562
1017 517 923T471 585Q471 334 511 229T662 124Q753 124 798 219T844 556ZM516 1813L898 1367L801 1251Q652 1333 524 1432T319 1629L516 1813Z" />
<glyph unicode="&#xf3;" glyph-name="oacute" horiz-adv-x="1315" d="M81 558Q81 725 126 842T251 1031T439 1135T673 1168Q935 1168 1084 1025T1233 583Q1233 415 1188 298T1063 110T876 6T641 -26Q380 -26 231 117T81 558ZM844 556Q844 807 804 912T653 1017Q562
1017 517 923T471 585Q471 334 511 229T662 124Q753 124 798 219T844 556ZM559 1251L468 1360L864 1813L1061 1629Q1023 1582 969 1532T849 1434T709 1339T559 1251Z" />
<glyph unicode="&#xf4;" glyph-name="ocircumflex" horiz-adv-x="1315" d="M81 558Q81 725 126 842T251 1031T439 1135T673 1168Q935 1168 1084 1025T1233 583Q1233 415 1188 298T1063 110T876 6T641 -26Q380 -26 231 117T81 558ZM844 556Q844 807 804 912T653
1017Q562 1017 517 923T471 585Q471 334 511 229T662 124Q753 124 798 219T844 556ZM343 1263L233 1367L534 1759L751 1778L1081 1374L965 1265L642 1517L343 1263Z" />
<glyph unicode="&#xf5;" glyph-name="otilde" horiz-adv-x="1315" d="M81 558Q81 725 126 842T251 1031T439 1135T673 1168Q935 1168 1084 1025T1233 583Q1233 415 1188 298T1063 110T876 6T641 -26Q380 -26 231 117T81 558ZM844 556Q844 807 804 912T653 1017Q562
1017 517 923T471 585Q471 334 511 229T662 124Q753 124 798 219T844 556ZM1107 1597Q1092 1537 1065 1482T999 1384T912 1317T805 1291Q749 1291 703 1313T618 1361T543 1410T471 1432Q425 1432 385 1394T313 1302L209 1362Q224 1423 251 1479T316 1577T403 1644T510
1670Q566 1670 612 1648T697 1600T772 1551T844 1529Q890 1529 930 1566T1002 1659L1107 1597Z" />
<glyph unicode="&#xf6;" glyph-name="odieresis" horiz-adv-x="1315" d="M81 558Q81 725 126 842T251 1031T439 1135T673 1168Q935 1168 1084 1025T1233 583Q1233 415 1188 298T1063 110T876 6T641 -26Q380 -26 231 117T81 558ZM844 556Q844 807 804 912T653 1017Q562
1017 517 923T471 585Q471 334 511 229T662 124Q753 124 798 219T844 556ZM1066 1483Q1066 1405 1021 1358T899 1311Q823 1311 777 1358T731 1483Q731 1561 777 1607T899 1654Q975 1654 1020 1608T1066 1483ZM585 1483Q585 1405 539 1358T418 1311Q341 1311 295
1358T249 1483Q249 1561 295 1607T418 1654Q493 1654 539 1608T585 1483Z" />
<glyph unicode="&#xf7;" glyph-name="divide" horiz-adv-x="1123" d="M743 998Q743 925 693 881T561 837Q480 837 430 881T380 998Q380 1071 430 1115T561 1160Q643 1160 693 1116T743 998ZM1031 516H92V726H1031V516ZM743 243Q743 170 693 126T561 81Q480 81
430 125T380 243Q380 316 430 360T561 405Q643 405 693 361T743 243Z" />
<glyph unicode="&#xf8;" glyph-name="oslash" horiz-adv-x="1315" d="M437 585Q437 488 443 413T465 283L777 984Q753 1004 722 1013T652 1023Q550 1023 494 928T437 585ZM662 118Q764 118 820 214T877 556Q877 647 871 719T852 844L544 151Q567 134 596 126T662
118ZM641 -26Q599 -26 560 -23T484 -12L381 -224L231 -147L326 45Q209 109 145 237T81 558Q81 725 126 842T251 1031T439 1135T673 1168Q718 1168 759 1164T840 1152L934 1346L1084 1269L997 1093Q1110 1027 1171 900T1233 583Q1233 415 1188 298T1063 110T876
6T641 -26Z" />
<glyph unicode="&#xf9;" glyph-name="ugrave" horiz-adv-x="1447" d="M1154 -19Q1067 -19 1007 13T914 114Q851 48 768 13T559 -23Q381 -23 291 73T201 370V881Q201 903 190 918T157 939L50 966V1114Q102 1126 161 1136T281 1152T402 1162T514 1165L562 1121V417Q562
275 601 225T722 174Q763 174 804 186T885 222V882Q885 904 874 920T841 941L727 968V1116Q780 1128 840 1137T962 1153T1084 1162T1198 1165L1246 1121V228Q1246 196 1259 183T1298 167L1396 155V20Q1359 9 1289 -5T1154 -19ZM560 1813L942 1367L845 1251Q696
1333 568 1432T363 1629L560 1813Z" />
<glyph unicode="&#xfa;" glyph-name="uacute" horiz-adv-x="1447" d="M1154 -19Q1067 -19 1007 13T914 114Q851 48 768 13T559 -23Q381 -23 291 73T201 370V881Q201 903 190 918T157 939L50 966V1114Q102 1126 161 1136T281 1152T402 1162T514 1165L562 1121V417Q562
275 601 225T722 174Q763 174 804 186T885 222V882Q885 904 874 920T841 941L727 968V1116Q780 1128 840 1137T962 1153T1084 1162T1198 1165L1246 1121V228Q1246 196 1259 183T1298 167L1396 155V20Q1359 9 1289 -5T1154 -19ZM603 1251L512 1360L908 1813L1105
1629Q1067 1582 1013 1532T893 1434T753 1339T603 1251Z" />
<glyph unicode="&#xfb;" glyph-name="ucircumflex" horiz-adv-x="1447" d="M1154 -19Q1067 -19 1007 13T914 114Q851 48 768 13T559 -23Q381 -23 291 73T201 370V881Q201 903 190 918T157 939L50 966V1114Q102 1126 161 1136T281 1152T402 1162T514 1165L562 1121V417Q562
275 601 225T722 174Q763 174 804 186T885 222V882Q885 904 874 920T841 941L727 968V1116Q780 1128 840 1137T962 1153T1084 1162T1198 1165L1246 1121V228Q1246 196 1259 183T1298 167L1396 155V20Q1359 9 1289 -5T1154 -19ZM387 1263L277 1367L578 1759L795
1778L1125 1374L1009 1265L686 1517L387 1263Z" />
<glyph unicode="&#xfc;" glyph-name="udieresis" horiz-adv-x="1447" d="M1154 -19Q1067 -19 1007 13T914 114Q851 48 768 13T559 -23Q381 -23 291 73T201 370V881Q201 903 190 918T157 939L50 966V1114Q102 1126 161 1136T281 1152T402 1162T514 1165L562 1121V417Q562
275 601 225T722 174Q763 174 804 186T885 222V882Q885 904 874 920T841 941L727 968V1116Q780 1128 840 1137T962 1153T1084 1162T1198 1165L1246 1121V228Q1246 196 1259 183T1298 167L1396 155V20Q1359 9 1289 -5T1154 -19ZM1110 1483Q1110 1405 1065 1358T943
1311Q867 1311 821 1358T775 1483Q775 1561 821 1607T943 1654Q1019 1654 1064 1608T1110 1483ZM629 1483Q629 1405 583 1358T462 1311Q385 1311 339 1358T293 1483Q293 1561 339 1607T462 1654Q537 1654 583 1608T629 1483Z" />
<glyph unicode="&#xfd;" glyph-name="yacute" horiz-adv-x="1299" d="M325 -518Q256 -518 183 -510T49 -490V-321Q164 -303 255 -283T419 -228T549 -140T652 0H506L150 920Q142 942 128 954T91 973L15 997V1138L681 1137V993L533 961L762 288L977 962L835 994V1138H1290V997L1214
973Q1190 966 1177 955T1156 920L825 -18Q736 -269 619 -393T325 -518ZM601 1251L510 1360L906 1813L1103 1629Q1065 1582 1011 1532T891 1434T751 1339T601 1251Z" />
<glyph unicode="&#xfe;" glyph-name="thorn" horiz-adv-x="1336" d="M636 117Q689 117 733 139T808 214T856 353T874 568Q875 779 824 867T667 956Q625 956 587 946T520 921V139Q546 126 576 122T636 117ZM723 -354V-496H4V-354L113 -333Q135 -329 147 -315T159
-277V1518Q159 1541 147 1555T113 1574L-17 1595V1738Q36 1752 99 1763T228 1782T356 1795T472 1800L520 1756V1043Q577 1100 653 1134T829 1168Q919 1168 997 1136T1132 1037T1221 868T1254 624Q1254 467 1211 346T1087 143T892 19T637 -23Q610 -23 581 -21T520
-13V-277Q520 -301 532 -315T568 -333L723 -354Z" />
<glyph unicode="&#xff;" glyph-name="ydieresis" horiz-adv-x="1299" d="M325 -518Q256 -518 183 -510T49 -490V-321Q164 -303 255 -283T419 -228T549 -140T652 0H506L150 920Q142 942 128 954T91 973L15 997V1138L681 1137V993L533 961L762 288L977 962L835 994V1138H1290V997L1214
973Q1190 966 1177 955T1156 920L825 -18Q736 -269 619 -393T325 -518ZM1108 1483Q1108 1405 1063 1358T941 1311Q865 1311 819 1358T773 1483Q773 1561 819 1607T941 1654Q1017 1654 1062 1608T1108 1483ZM627 1483Q627 1405 581 1358T460 1311Q383 1311 337 1358T291
1483Q291 1561 337 1607T460 1654Q535 1654 581 1608T627 1483Z" />
<glyph unicode="&#x2013;" glyph-name="endash" horiz-adv-x="1434" d="M129 479V712H1306V479H129Z" />
<glyph unicode="&#x2014;" glyph-name="emdash" horiz-adv-x="2239" d="M129 479V712H2111V479H129Z" />
<glyph unicode="&#x2018;" glyph-name="quoteleft" horiz-adv-x="585" d="M72 1417Q72 1502 103 1581T187 1726T306 1844T443 1931L511 1846Q439 1783 387 1709T334 1568Q334 1525 353 1512T401 1479Q432 1457 457 1419T482 1325Q482 1244 430 1194T293 1143Q196
1143 134 1216T72 1417Z" />
<glyph unicode="&#x2019;" glyph-name="quoteright" horiz-adv-x="585" d="M523 1638Q523 1552 492 1474T408 1329T289 1210T152 1123L84 1209Q156 1271 209 1346T262 1487Q262 1530 242 1543T194 1576Q163 1598 138 1635T113 1729Q113 1810 165 1860T302 1911Q399
1911 461 1839T523 1638Z" />
<glyph unicode="&#x201a;" glyph-name="quotesinglbase" horiz-adv-x="636" d="M519 185Q519 99 488 21T404 -124T285 -243T148 -330L80 -244Q152 -182 205 -107T258 34Q258 77 238 90T190 123Q159 145 134 182T109 276Q109 357 161 407T298 458Q395 458 457 386T519
185Z" />
<glyph unicode="&#x201c;" glyph-name="quotedblleft" horiz-adv-x="1070" d="M557 1417Q557 1502 588 1581T672 1726T791 1844T928 1931L996 1846Q924 1783 872 1709T819 1568Q819 1525 838 1512T886 1479Q917 1457 942 1419T967 1325Q967 1244 915 1194T778
1143Q681 1143 619 1216T557 1417ZM72 1417Q72 1502 103 1581T187 1726T306 1844T443 1931L511 1846Q439 1783 387 1709T334 1568Q334 1525 353 1512T401 1479Q432 1457 457 1419T482 1325Q482 1244 430 1194T293 1143Q196 1143 134 1216T72 1417Z" />
<glyph unicode="&#x201d;" glyph-name="quotedblright" horiz-adv-x="1070" d="M523 1638Q523 1552 492 1474T408 1329T289 1210T152 1123L84 1209Q156 1271 209 1346T262 1487Q262 1530 242 1543T194 1576Q163 1598 138 1635T113 1729Q113 1810 165 1860T302
1911Q399 1911 461 1839T523 1638ZM1008 1638Q1008 1552 977 1474T893 1329T774 1210T637 1123L569 1209Q641 1271 694 1346T747 1487Q747 1530 727 1543T679 1576Q648 1598 623 1635T598 1729Q598 1810 650 1860T787 1911Q884 1911 946 1839T1008 1638Z" />
<glyph unicode="&#x201e;" glyph-name="quotedblbase" horiz-adv-x="1121" d="M519 185Q519 99 488 21T404 -124T285 -243T148 -330L80 -244Q152 -182 205 -107T258 34Q258 77 238 90T190 123Q159 145 134 182T109 276Q109 357 161 407T298 458Q395 458 457 386T519
185ZM1004 185Q1004 99 973 21T889 -124T770 -243T633 -330L565 -244Q637 -182 690 -107T743 34Q743 77 723 90T675 123Q644 145 619 182T594 276Q594 357 646 407T783 458Q880 458 942 386T1004 185Z" />
<glyph unicode="&#x2022;" glyph-name="bullet" horiz-adv-x="959" d="M769 633Q769 509 690 435T479 360Q348 360 269 434T190 633Q190 757 269 831T479 905Q611 905 690 831T769 633Z" />
<glyph unicode="&#x2039;" glyph-name="guilsinglleft" horiz-adv-x="851" d="M667 74L71 530V690L667 1154L768 1029L453 609L769 196L667 74Z" />
<glyph unicode="&#x203a;" glyph-name="guilsinglright" horiz-adv-x="851" d="M184 74L82 196L398 609L83 1029L184 1154L780 690V530L184 74Z" />
</font>
</defs>
</svg>
