<?xml version="1.0" standalone="no"?>
<!DOCTYPE svg PUBLIC "-//W3C//DTD SVG 1.1//EN" "http://www.w3.org/Graphics/SVG/1.1/DTD/svg11.dtd">
<svg xmlns="http://www.w3.org/2000/svg">
<defs >
<font id="Judson" horiz-adv-x="419" ><font-face
    font-family="Judson"
    units-per-em="1000"
    panose-1="2 0 6 3 0 0 0 0 0 0"
    ascent="902"
    descent="-270"
    alphabetic="0" />
<glyph unicode=" " glyph-name="space" horiz-adv-x="240" />
<glyph unicode="!" glyph-name="exclam" horiz-adv-x="237" d="M25 42Q25 70 46 92T95 114Q116 114 131 99T147 63Q147 36 125 13T75 -10Q55 -10 40 5T25 42ZM107 186Q95 186 95 231Q95 263 105 399T125 585Q132 630 181 630Q200 630 212 621T224 594Q224 588
223 585Q217 549 183 411T142 254Q121 186 107 186Z" />
<glyph unicode="&quot;" glyph-name="quotedbl" horiz-adv-x="334" d="M267 408Q252 408 252 501Q252 580 258 620Q265 665 310 665Q349 665 349 631Q349 620 344 600T334 562T322 525T314 502Q283 408 267 408ZM107 408Q92 408 92 501Q92 580 98 620Q105 665
150 665Q189 665 189 631Q189 620 184 600T174 562T162 525T154 502Q123 408 107 408Z" />
<glyph unicode="#" glyph-name="numbersign" horiz-adv-x="487" d="M434 230L429 196H314L254 0H219L279 196H154L94 0H59L119 196H24L29 230H129L169 356H66L71 390H179L239 585H274L214 390H339L399 585H434L374 390H476L471 356H364L324 230H434ZM164 230H289L329
356H204L164 230Z" />
<glyph unicode="$" glyph-name="dollar" horiz-adv-x="456" d="M257 353Q290 332 301 325T339 297T377 261T398 222T409 173Q409 87 343 39T196 -10L192 -36H162L166 -9Q124 -5 87 8T32 34L15 46L30 139H52Q53 84 86 57T172 25L211 256Q177 278 164 287T126 319T91
365T80 417Q80 486 138 539T268 595L272 620H302L297 594Q330 590 360 577T405 552L419 540L406 458H384Q384 549 292 560L257 353ZM230 371L262 561Q217 559 189 527T161 460Q161 416 230 371ZM238 239L202 24Q253 26 287 54T321 136Q321 168 300 190T238 239Z"
/>
<glyph unicode="%" glyph-name="percent" horiz-adv-x="542" d="M512 565L83 20H43L472 565H512ZM187 554Q166 554 145 518T124 443Q124 416 133 397T157 378Q178 378 199 414T220 489Q220 516 211 535T187 554ZM63 444Q63 503 104 545T192 588Q229 588 255 560T281
488Q281 429 240 387T152 344Q115 344 89 372T63 444ZM397 207Q376 207 355 171T334 96Q334 69 343 50T367 31Q388 31 409 67T430 142Q430 169 421 188T397 207ZM273 97Q273 156 314 198T402 241Q439 241 465 213T491 141Q491 82 450 40T361 -3Q324 -3 299 25T273
97Z" />
<glyph unicode="&amp;" glyph-name="ampersand" horiz-adv-x="605" d="M374 560T339 560T287 525T269 435Q269 403 277 357Q326 389 350 420T374 500Q374 560 339 560ZM584 345L580 324Q523 324 514 305Q442 156 382 90Q416 44 445 44Q483 44 499 51T535 81L545
71Q501 -10 428 -10Q371 -10 323 36Q257 -10 183 -10Q-1 -10 -1 100Q-1 138 14 169T58 224T116 266T184 305Q193 310 198 312Q187 368 187 424Q187 472 200 507T234 560T278 586T325 595Q369 595 393 568T417 501Q417 444 382 403T285 320Q313 201 365 116Q412
175 475 308Q468 324 416 324L420 345H584ZM304 57Q241 132 208 269Q153 232 128 202T103 122Q103 32 227 32Q266 32 304 57Z" />
<glyph unicode="&apos;" glyph-name="quotesingle" horiz-adv-x="174" d="M107 408Q92 408 92 501Q92 580 98 620Q105 665 150 665Q189 665 189 631Q189 620 184 600T174 562T162 525T154 502Q123 408 107 408Z" />
<glyph unicode="(" glyph-name="parenleft" horiz-adv-x="248" d="M53 315Q84 501 248 669Q259 680 266 680T273 671Q273 668 269 660Q268 659 255 638T240 612T225 585T208 552T193 517T176 475T162 430T148 375T137 315Q123 232 123 165Q123 138 124 115T131
68T137 34T146 -3L154 -30Q156 -38 153 -44T144 -50Q136 -50 129 -39Q46 93 46 237Q46 268 53 315Z" />
<glyph unicode=")" glyph-name="parenright" horiz-adv-x="247" d="M215 315Q184 130 19 -39Q8 -50 2 -50Q-6 -50 -6 -41Q-6 -38 -2 -30Q-2 -30 13 -5Q28 20 31 25T49 56T68 95T84 137T102 190T117 247T131 315Q144 392 144 465Q144 492 143 515T136 562T130 596T120
633L113 660Q111 668 114 674T124 680Q131 680 138 669Q221 537 221 393Q221 356 215 315Z" />
<glyph unicode="*" glyph-name="asterisk" horiz-adv-x="360" d="M244 358Q228 358 223 368T218 401Q218 430 221 448Q223 456 224 459Q217 455 209 455Q203 455 197 458Q197 451 196 446Q193 427 185 402T170 371Q157 358 142 358Q125 358 112 370T98 399Q98
411 108 423Q115 431 148 446T193 462Q186 470 189 487Q180 482 152 476T108 470Q82 470 82 498Q82 520 98 538T131 557Q133 557 141 555Q150 552 169 528T191 492Q199 505 216 507Q209 513 198 542T187 583Q187 600 202 610T237 620Q275 620 275 591Q275 579 253
547T220 507Q236 505 239 491Q243 500 272 526T312 555Q320 557 323 557Q336 557 345 545T354 516Q354 497 344 484T317 470T273 476T239 487Q242 477 227 462Q238 462 268 447T302 423Q305 416 305 409Q305 390 284 374T244 358Z" />
<glyph unicode="+" glyph-name="plus" horiz-adv-x="404" d="M230 296L206 155H162L186 296H45L52 340H193L216 481H260L237 340H378L371 296H230Z" />
<glyph unicode="," glyph-name="comma" horiz-adv-x="229" d="M18 33Q18 64 41 82T86 100Q116 100 133 76T151 17Q151 -84 4 -129L9 -101Q35 -98 65 -74T101 -18Q104 1 103 4T95 7Q92 7 83 1T62 -6Q42 -6 30 4T18 33Z" />
<glyph unicode="-" glyph-name="hyphen" horiz-adv-x="392" d="M77 340H341L334 296H70L77 340Z" />
<glyph unicode="." glyph-name="period" horiz-adv-x="221" d="M20 42Q20 70 41 92T90 114Q111 114 126 99T142 63Q142 36 120 13T70 -10Q50 -10 35 5T20 42Z" />
<glyph unicode="/" glyph-name="slash" horiz-adv-x="465" d="M-21 -10L472 612L498 594L5 -28L-21 -10Z" />
<glyph unicode="0" glyph-name="zero" horiz-adv-x="490" d="M339 564Q296 564 255 506T190 363T165 198Q165 121 187 71T249 21Q293 21 334 78T399 221T423 386Q423 464 401 514T339 564ZM83 292Q104 419 175 507T345 595Q426 595 469 533T512 372Q512 331 505
292Q484 165 413 78T243 -10Q162 -10 119 51T76 212Q76 254 83 292Z" />
<glyph unicode="1" glyph-name="one" horiz-adv-x="490" d="M420 585L332 61Q332 61 332 58Q332 39 370 30T449 21L445 0H107L111 21Q154 21 195 30T240 61L304 444Q253 416 186 371L182 388L393 585H420Z" />
<glyph unicode="2" glyph-name="two" horiz-adv-x="490" d="M40 0Q42 12 79 45T169 121T272 215T360 326T396 439Q396 479 377 507T316 535Q266 535 228 520T174 487T147 454T131 439Q124 439 125 449Q126 457 134 473T161 510T202 550T261 582T337 595Q419 595
458 558T497 460Q497 408 447 342T337 225T226 129T172 70H383Q398 76 418 92T452 133H472L412 0H40Z" />
<glyph unicode="3" glyph-name="three" horiz-adv-x="490" d="M261 291Q254 291 249 294T244 303T252 311Q277 318 300 329T348 357T389 402T405 463Q405 497 381 516T312 535Q271 535 240 523T195 496T173 469T159 457Q152 457 153 467Q158 498 208 546T333 595Q418
595 456 569T495 490Q495 395 373 331Q415 321 443 280T472 192Q472 102 414 46T234 -10Q182 -10 140 6T79 41T60 71Q60 126 105 126Q117 126 123 110T134 73T164 37T233 20Q276 20 307 34T355 72T379 124T387 182Q387 227 370 261T311 296Q299 296 285 294T261
291Z" />
<glyph unicode="4" glyph-name="four" horiz-adv-x="490" d="M464 585L400 206H481L476 176H395L373 41Q379 21 433 21L429 0H213L217 21Q272 21 283 41L305 176H68L412 585H464ZM310 206L355 475L128 206H310Z" />
<glyph unicode="5" glyph-name="five" horiz-adv-x="490" d="M207 387Q352 387 414 342T477 227Q477 130 418 60T246 -10Q186 -10 141 6T78 40T60 70Q60 126 105 126Q115 126 119 115T128 89T142 58T178 31T245 20Q293 20 328 53T377 127T391 210Q391 348 160
348L233 585H512L476 515H246L207 387Z" />
<glyph unicode="6" glyph-name="six" horiz-adv-x="490" d="M305 336Q239 336 201 313Q173 223 173 147Q173 83 196 53T255 22Q303 22 343 87T383 238Q383 336 305 336ZM212 346Q257 370 309 370Q399 370 436 337T474 242Q474 128 412 59T249 -10Q168 -10 127
37T85 166Q85 242 111 312T177 431T265 520T357 579T436 603L445 585Q368 566 308 505T212 346Z" />
<glyph unicode="7" glyph-name="seven" horiz-adv-x="490" d="M442 515H223Q208 509 188 493T154 452H134L194 585H530Q528 570 465 462T335 220T255 11Q251 -10 214 -10Q183 -10 183 8Q183 59 246 174T374 393T442 515Z" />
<glyph unicode="8" glyph-name="eight" horiz-adv-x="490" d="M329 324Q372 345 405 385T439 486Q439 523 417 543T359 563Q302 563 267 533T231 449Q231 429 247 406T279 368T329 324ZM505 484Q505 371 356 301Q404 259 430 223T457 144Q457 76 396 33T243 -10Q162
-10 119 21T75 107Q75 174 120 222T227 301Q143 376 143 444Q143 510 200 552T346 595Q505 595 505 484ZM254 277Q213 254 177 211T141 107Q141 70 167 46T230 22Q288 22 329 54T370 139Q370 149 367 158T356 179T343 197T323 218T303 236T278 257T254 277Z" />
<glyph unicode="9" glyph-name="nine" horiz-adv-x="490" d="M283 249Q349 249 387 272Q415 362 415 438Q415 502 392 532T333 563Q285 563 245 497T204 347Q204 249 283 249ZM376 239Q331 215 279 215Q189 215 152 248T114 343Q114 457 176 526T339 595Q420 595
461 548T503 419Q503 343 477 273T411 154T323 65T231 6T152 -18L143 0Q220 19 280 80T376 239Z" />
<glyph unicode=":" glyph-name="colon" horiz-adv-x="249" d="M30 42Q30 70 51 92T100 114Q121 114 136 99T152 63Q152 36 130 13T80 -10Q60 -10 45 5T30 42ZM86 372Q86 400 107 422T156 444Q177 444 192 429T208 393Q208 366 186 343T136 320Q116 320 101 335T86 372Z" />
<glyph unicode=";" glyph-name="semicolon" horiz-adv-x="261" d="M89 372Q89 400 110 422T159 444Q180 444 195 429T211 393Q211 366 189 343T139 320Q119 320 104 335T89 372ZM31 33Q31 64 54 82T99 100Q129 100 146 76T164 17Q164 -84 17 -129L22 -101Q48 -98
78 -74T114 -18Q116 -6 116 -1T115 6T108 7Q105 7 96 1T75 -6Q55 -6 43 4T31 33Z" />
<glyph unicode="&lt;" glyph-name="less" horiz-adv-x="466" d="M44 340L441 512L434 472L78 318L382 164L376 124L37 296L44 340Z" />
<glyph unicode="=" glyph-name="equal" horiz-adv-x="490" d="M71 280H425L417 236H63L71 280ZM91 400H445L438 356H84L91 400Z" />
<glyph unicode="&gt;" glyph-name="greater" horiz-adv-x="466" d="M443 296L46 124L52 164L408 318L104 472L111 512L450 340L443 296Z" />
<glyph unicode="?" glyph-name="question" horiz-adv-x="395" d="M86 42Q86 70 107 92T156 114Q177 114 192 99T208 63Q208 36 186 13T136 -10Q116 -10 101 5T86 42ZM141 486Q141 468 129 457T101 445Q87 445 77 454T67 483Q67 539 118 584T248 630Q329 630 364
593T400 503Q400 455 368 409T297 332T223 265T182 200Q181 195 176 191T167 186T159 190T156 200Q162 234 180 266T220 323T263 377T298 442T312 524Q312 564 293 582T233 600T163 575T133 521Q133 513 137 503T141 486Z" />
<glyph unicode="@" glyph-name="at" horiz-adv-x="628" d="M235 159Q203 159 187 180T170 235Q170 309 229 373T343 437Q372 437 388 420T407 373L430 426H483L387 203Q384 198 384 195Q384 182 405 182Q451 182 484 225T530 316T543 406Q543 451 530 481T494
527T447 547T391 553Q341 553 289 533T192 474T119 376T90 243Q90 146 157 88T303 29Q348 29 390 43T457 72T510 115T544 152T566 182L581 174Q530 90 462 40T290 -10Q193 -10 120 58T47 234Q47 315 79 385T163 500T275 570T394 595Q478 595 531 546T585 404Q585
348 563 291T491 190T375 146Q359 146 346 155T333 186Q333 198 338 213Q284 159 235 159ZM217 202T258 202T341 251T383 357Q383 407 342 407Q302 407 260 358T217 251Q217 202 258 202Z" />
<glyph unicode="A" glyph-name="A" horiz-adv-x="543" d="M296 0L300 21Q346 21 360 33L329 186H137L61 39Q68 21 120 21L116 0H-48L-44 21Q12 21 22 42L307 585H355L458 42Q462 21 519 21L515 0H296ZM277 452L155 219H323L277 452Z" />
<glyph unicode="B" glyph-name="B" horiz-adv-x="562" d="M206 290L163 34H248Q328 34 370 77T412 191Q412 233 382 261T279 290H206ZM249 551L210 319H251Q329 319 371 358T414 466Q414 551 278 551H249ZM2 0L6 21Q61 21 72 41L156 544Q150 564 96 564L100 585H284Q400
585 457 550T514 462Q514 407 479 368T384 309Q449 293 480 260T512 187Q512 104 439 52T242 0H2Z" />
<glyph unicode="C" glyph-name="C" horiz-adv-x="564" d="M400 561Q299 561 225 465T151 231Q151 132 197 78T314 24Q364 24 418 58T494 132L516 120Q440 -10 288 -10Q171 -10 108 58T45 229Q45 311 78 382T163 498T278 569T405 595Q434 595 470 580T511 565Q523
565 526 585H549L538 458H516Q516 503 488 532T400 561Z" />
<glyph unicode="D" glyph-name="D" horiz-adv-x="616" d="M2 0L6 21Q61 21 72 41L156 544Q150 564 96 564L100 585H330Q447 585 514 522T581 352Q581 198 482 99T244 0H2ZM250 556L163 34H250Q286 34 325 56T400 118T459 223T482 364Q482 459 436 507T325 556H250Z" />
<glyph unicode="E" glyph-name="E" horiz-adv-x="508" d="M2 0L6 21Q61 21 72 41L156 544Q150 564 96 564L100 585H503L487 488H466Q469 509 469 522Q469 545 456 551H249L211 321H351Q372 329 381 384H402L375 224H354Q358 252 358 258Q358 281 345 287H205L163
34H391Q417 44 446 97H466L426 0H2Z" />
<glyph unicode="F" glyph-name="F" horiz-adv-x="477" d="M2 0L6 21Q61 21 72 41L156 544Q150 564 96 564L100 585H503L487 488H466Q469 509 469 522Q469 545 456 551H249L211 321H351Q372 329 381 384H402L375 224H354Q358 252 358 258Q358 281 345 287H205L164
41Q170 21 224 21L220 0H2Z" />
<glyph unicode="G" glyph-name="G" horiz-adv-x="621" d="M409 561Q308 561 228 457T147 215Q147 118 194 71T305 24Q360 24 414 43L449 248Q443 268 389 268L392 289H610L607 268Q552 268 541 248L512 80Q490 48 434 19T297 -10Q178 -10 111 60T44 233Q44 314
78 384T167 499T286 569T414 595Q444 595 484 580T530 565Q542 565 545 585H568L557 458H535Q535 499 502 530T409 561Z" />
<glyph unicode="H" glyph-name="H" horiz-adv-x="656" d="M2 0L6 21Q61 21 72 41L156 544Q150 564 96 564L100 585H318L314 564Q259 564 248 544L211 321H467L504 544Q498 564 444 564L448 585H666L662 564Q607 564 596 544L512 41Q518 21 572 21L568 0H350L354
21Q409 21 420 41L461 287H205L164 41Q170 21 224 21L220 0H2Z" />
<glyph unicode="I" glyph-name="I" horiz-adv-x="308" d="M2 0L6 21Q61 21 72 41L156 544Q150 564 96 564L100 585H318L314 564Q259 564 248 544L164 41Q170 21 224 21L220 0H2Z" />
<glyph unicode="J" glyph-name="J" horiz-adv-x="416" d="M70 101Q70 64 38 53Q61 26 110 26Q139 26 158 37T190 75T210 130T225 208L281 544Q275 564 221 564L225 585H443L439 564Q384 564 373 544L311 172Q299 96 252 43T114 -10Q48 -10 14 15T-21 72Q-21 97
-6 113T31 130Q70 130 70 101Z" />
<glyph unicode="K" glyph-name="K" horiz-adv-x="579" d="M2 0L6 21Q61 21 72 41L156 544Q150 564 96 564L100 585H316L312 564Q257 564 246 544L162 41Q168 21 222 21L218 0H2ZM351 0L355 21Q378 21 392 24L213 314L498 557Q485 564 448 564L452 585H609L605
564Q566 564 540 541L305 342L489 37Q502 21 550 21L546 0H351Z" />
<glyph unicode="L" glyph-name="L" horiz-adv-x="495" d="M2 0L6 21Q61 21 72 41L156 544Q150 564 96 564L100 585H318L314 564Q259 564 248 544L163 34H391Q417 44 446 97H466L426 0H2Z" />
<glyph unicode="M" glyph-name="M" horiz-adv-x="810" d="M2 0L6 21Q61 21 72 41L156 544Q150 564 96 564L100 585H246L381 120L672 585H820L816 564Q761 564 750 544L666 41Q672 21 726 21L722 0H504L508 21Q563 21 574 41L649 490L343 0H328L182 496L106 41Q112
21 166 21L162 0H2Z" />
<glyph unicode="N" glyph-name="N" horiz-adv-x="643" d="M2 0L6 21Q61 21 72 41L156 544Q150 564 96 564L100 585H234L496 176L558 544Q552 564 498 564L502 585H662L658 564Q603 564 592 544L501 0H492L182 497L106 41Q112 21 166 21L162 0H2Z" />
<glyph unicode="O" glyph-name="O" horiz-adv-x="644" d="M146 229Q146 142 181 83T287 24Q354 24 406 76T484 202T509 353Q509 409 496 454T450 530T369 561Q302 561 250 509T172 382T146 229ZM379 595Q485 595 547 526T610 350Q610 203 510 97T277 -10Q170 -10
108 59T46 234Q46 382 145 488T379 595Z" />
<glyph unicode="P" glyph-name="P" horiz-adv-x="544" d="M2 0L6 21Q61 21 72 41L156 544Q150 564 96 564L100 585H326Q440 585 497 545T554 449Q554 367 481 317T285 266H202L164 41Q170 21 224 21L220 0H2ZM249 551L207 300H290Q455 300 455 458Q455 551 320 551H249Z" />
<glyph unicode="Q" glyph-name="Q" horiz-adv-x="644" d="M379 595Q485 595 547 526T610 350Q610 251 564 171T444 41Q447 33 453 15T463 -11T472 -32T485 -50T500 -61T521 -66Q545 -66 567 -55T599 -32L609 -20L622 -31Q617 -39 609 -51T572 -82T515 -102Q449
-102 417 -73T366 4Q321 -10 277 -10Q170 -10 108 59T46 234Q46 382 145 488T379 595ZM199 61Q233 24 287 24Q324 24 355 39Q345 70 334 86T301 102Q245 102 199 61ZM419 91Q509 195 509 353Q509 409 496 454T450 530T369 561Q302 561 250 509T172 382T146 229Q146
134 185 78Q241 146 314 146Q383 146 419 91Z" />
<glyph unicode="R" glyph-name="R" horiz-adv-x="583" d="M2 0L6 21Q61 21 72 41L156 544Q150 564 96 564L100 585H326Q441 585 497 546T554 453Q554 392 511 346T396 280L489 42Q496 21 552 21L548 0H505Q435 0 416 8T381 52L296 266H202L164 41Q170 21 224 21L220
0H2ZM249 551L207 300H290Q375 300 415 339T455 464Q455 506 425 528T320 551H249Z" />
<glyph unicode="S" glyph-name="S" horiz-adv-x="479" d="M206 -10Q157 -10 109 5T58 20Q52 20 43 14T33 0H10L33 139H55Q56 79 100 52T206 24Q263 24 303 51T344 134Q344 153 336 169T311 199T279 223T239 247T202 270Q171 291 159 300T125 331T93 373T83 420Q83
488 148 541T286 595Q316 595 356 580T402 565Q414 565 417 585H440L429 458H407Q407 502 375 531T281 561Q232 561 198 529T164 461Q164 444 172 430T196 402T228 379T267 355T304 332Q333 312 342 306T375 280T406 248T423 215T432 172Q432 114 395 71T307 9T206
-10Z" />
<glyph unicode="T" glyph-name="T" horiz-adv-x="535" d="M70 585H572L556 488H535Q538 509 538 522Q538 545 525 551H361L276 41Q282 21 336 21L332 0H114L118 21Q173 21 184 41L269 551H105Q84 543 75 488H54L70 585Z" />
<glyph unicode="U" glyph-name="U" horiz-adv-x="619" d="M298 24Q365 24 420 80T490 228L543 544Q537 564 483 564L487 585H647L643 564Q588 564 577 544L528 248Q506 118 438 54T282 -10Q79 -10 79 176Q79 202 86 248L135 544Q129 564 75 564L79 585H297L293
564Q238 564 227 544L175 234Q170 199 170 176Q170 103 204 64T298 24Z" />
<glyph unicode="V" glyph-name="V" horiz-adv-x="543" d="M261 585L257 564Q210 564 197 552L280 133L496 546Q489 564 437 564L441 585H605L601 564Q547 564 538 548L250 0H202L99 543Q94 564 38 564L42 585H261Z" />
<glyph unicode="W" glyph-name="W" horiz-adv-x="840" d="M558 585L554 564Q508 564 494 552L577 133L793 546Q786 564 734 564L738 585H902L898 564Q842 564 832 543L547 0H499L432 349L250 0H202L99 543Q94 564 38 564L42 585H261L257 564Q210 564 197 552L280
134L422 405L396 543Q392 564 335 564L339 585H558Z" />
<glyph unicode="X" glyph-name="X" horiz-adv-x="520" d="M281 585L277 564Q230 564 217 552L294 361L445 548Q438 564 386 564L390 585H554L550 564Q502 564 488 547L309 326L424 42Q432 21 485 21L481 0H262L266 21Q313 21 326 33L241 242L75 37Q82 21 134 21L130
0H-34L-30 21Q20 21 37 43L226 277L119 544Q110 564 58 564L62 585H281Z" />
<glyph unicode="Y" glyph-name="Y" horiz-adv-x="561" d="M263 585L259 564Q212 564 199 552L309 281L513 546Q506 564 454 564L458 585H622L618 564Q575 564 559 551L329 252L294 41Q300 21 354 21L350 0H132L136 21Q191 21 202 41L232 220L101 544Q90 564 40
564L44 585H263Z" />
<glyph unicode="Z" glyph-name="Z" horiz-adv-x="503" d="M409 0H-23L388 555H145Q123 546 114 492H93L109 585H512L101 30H373Q406 43 430 96H451L409 0Z" />
<glyph unicode="[" glyph-name="bracketleft" horiz-adv-x="290" d="M210 579L93 -120H209L203 -156H7L136 615H332L326 579H210Z" />
<glyph unicode="\" glyph-name="backslash" horiz-adv-x="450" d="M390 -10L358 -28L73 594L105 612L390 -10Z" />
<glyph unicode="]" glyph-name="bracketright" horiz-adv-x="290" d="M73 -120L190 579H74L80 615H276L147 -156H-49L-43 -120H73Z" />
<glyph unicode="^" glyph-name="asciicircum" horiz-adv-x="456" d="M331 540L464 344L425 316L310 488L137 316L108 344L304 540H331Z" />
<glyph unicode="_" glyph-name="underscore" horiz-adv-x="460" d="M-3 -50H361L353 -94H-11L-3 -50Z" />
<glyph unicode="`" glyph-name="grave" horiz-adv-x="300" d="M277 662L324 500H298L171 662H277Z" />
<glyph unicode="a" glyph-name="a" horiz-adv-x="482" d="M160 336Q160 314 145 302T109 290Q93 290 83 300T73 328Q73 386 124 418T257 450Q337 450 375 415T413 320Q413 308 409 282L380 106Q378 90 378 84Q378 55 391 39T429 23L425 0Q326 0 298 37Q228 -10
138 -10Q6 -10 6 83Q6 109 16 130T47 166T89 192T143 211T200 226T259 239T314 252Q321 301 321 325Q321 368 299 391T241 414Q152 414 131 366Q160 366 160 336ZM310 230Q297 226 266 218T217 205T174 188T134 163T110 129T99 81Q99 24 161 24Q230 24 288 58Q286
68 286 75T288 96L310 230Z" />
<glyph unicode="b" glyph-name="b" horiz-adv-x="535" d="M175 376Q245 454 325 454Q353 454 381 446T435 418T478 363T495 278Q495 144 417 67T225 -10Q162 -10 114 5T48 35L30 50L116 559Q54 564 53 564L57 587Q76 587 135 608T217 630L175 376ZM166 325L118
38Q165 24 225 24Q291 24 346 98T401 283Q401 346 377 383T309 420Q233 420 166 325Z" />
<glyph unicode="c" glyph-name="c" horiz-adv-x="478" d="M352 323Q352 346 366 358T394 370Q390 420 300 420Q230 420 180 359T129 202Q129 130 164 79T252 28Q340 28 403 94L425 82Q388 35 338 13T211 -10Q138 -10 85 33T31 175Q31 294 103 372T295 450Q444
450 444 362Q444 332 430 313T391 294Q352 294 352 323Z" />
<glyph unicode="d" glyph-name="d" horiz-adv-x="539" d="M394 430L416 559Q354 564 353 564L357 587Q376 587 435 608T517 630L430 106Q428 90 428 84Q428 55 441 39T479 23L475 0Q371 0 346 38Q288 -10 200 -10Q172 -10 144 -2T90 26T47 81T30 166Q30 300 108
377T300 454Q357 454 394 430ZM338 61Q336 71 336 78Q336 84 338 96L389 398Q355 420 300 420Q241 420 185 355T128 188Q128 129 152 77T216 24Q289 24 338 61Z" />
<glyph unicode="e" glyph-name="e" horiz-adv-x="490" d="M460 316Q460 285 435 266T324 234L131 208Q131 133 165 81T253 28Q341 28 404 94L426 82Q389 35 339 13T212 -10Q139 -10 86 33T32 175Q32 294 98 372T279 450Q372 450 416 409T460 316ZM133 239L282
259Q370 270 370 330Q370 364 347 392T270 420Q229 420 188 369T133 239Z" />
<glyph unicode="f" glyph-name="f" horiz-adv-x="250" d="M378 576Q378 557 364 546T330 534Q313 534 306 544T300 567T295 589T273 600Q254 600 237 572T211 488L203 440H249L244 410H198L129 0L78 -35H33L108 410H58L63 440H113L118 474Q145 630 268 630Q323
630 350 614T378 576Z" />
<glyph unicode="g" glyph-name="g" horiz-adv-x="517" d="M102 -89Q102 -125 69 -137Q92 -164 180 -164Q229 -164 264 -122T323 20Q272 -10 200 -10Q171 -10 144 -2T90 25T47 79T30 163Q30 297 108 373T299 450Q337 450 369 443T420 427T452 408T470 391L475 384L416
29Q399 -74 339 -137T184 -200Q103 -200 57 -174T10 -116Q10 -92 26 -76T62 -60Q102 -60 102 -89ZM330 53L388 400Q345 416 300 416Q235 416 180 342T124 158Q124 96 148 60T216 24Q282 24 330 53Z" />
<glyph unicode="h" glyph-name="h" horiz-adv-x="533" d="M429 106Q427 90 427 84Q427 55 440 39T478 23L474 0Q404 0 370 18T335 76Q335 82 337 96L374 319Q377 334 377 347Q377 416 299 416Q231 416 166 298L116 0H26L120 559Q58 564 57 564L61 587Q80 587 139
608T221 630L178 370Q238 450 310 450Q393 450 430 427T467 350Q467 340 463 312L429 106Z" />
<glyph unicode="i" glyph-name="i" horiz-adv-x="243" d="M234 581Q234 554 216 534T171 514Q151 514 138 527T125 562Q125 589 143 609T187 630Q207 630 220 616T234 581ZM106 379Q97 380 83 381T60 383T44 384L48 407Q67 407 126 428T208 450L133 0H43L106 379Z" />
<glyph unicode="j" glyph-name="j" horiz-adv-x="241" d="M232 582Q232 555 214 535T169 515Q149 515 136 528T123 563Q123 590 141 610T186 631Q206 631 219 618T232 582ZM105 380L42 385L46 408Q65 408 124 429T206 451L124 -43Q110 -125 67 -162T-34 -199Q-152
-199 -152 -129Q-152 -103 -137 -88T-101 -72Q-87 -72 -78 -80T-68 -104Q-68 -122 -83 -135V-141Q-83 -169 -39 -169Q-19 -169 1 -140T31 -57L105 380Z" />
<glyph unicode="k" glyph-name="k" horiz-adv-x="484" d="M482 440L478 419Q439 419 422 406L259 279L391 40Q402 21 451 21L447 0H346Q305 0 280 48L166 254L369 413Q356 419 321 419L325 440H482ZM120 559Q58 564 57 564L61 587Q80 587 139 608T221 630L116
0H26L120 559Z" />
<glyph unicode="l" glyph-name="l" horiz-adv-x="240" d="M120 559Q58 564 57 564L61 587Q80 587 139 608T221 630L134 106Q132 90 132 84Q132 55 145 39T183 23L179 0Q109 0 75 18T40 76Q40 82 42 96L120 559Z" />
<glyph unicode="m" glyph-name="m" horiz-adv-x="812" d="M411 0H321L371 299Q376 331 376 347Q376 384 360 400T307 416Q244 416 187 327L132 0H42L105 379Q96 380 82 381T59 383T43 384L47 407Q66 407 125 428T207 450L196 384Q249 450 318 450Q456 450 468
374Q523 450 597 450Q748 450 748 358Q748 352 746 336L708 106Q706 90 706 84Q706 55 719 39T757 23L753 0Q683 0 649 18T614 76Q614 82 616 96L650 299Q655 331 655 347Q655 384 639 400T586 416Q524 416 466 326L411 0Z" />
<glyph unicode="n" glyph-name="n" horiz-adv-x="549" d="M195 377Q255 451 354 451Q482 451 482 345Q482 328 479 308L445 106Q443 90 443 84Q443 55 456 39T494 23L490 0Q420 0 386 18T351 76Q351 82 353 96L390 315Q392 325 392 344Q392 416 315 416Q244 416
186 321L132 0H42L105 379Q96 380 82 381T59 383T43 384L47 407Q66 407 125 428T207 450L195 377Z" />
<glyph unicode="o" glyph-name="o" horiz-adv-x="547" d="M129 176Q129 97 161 59T252 20Q322 20 365 95T409 273Q409 419 282 419Q214 419 172 345T129 176ZM234 -10Q136 -10 84 40T32 176Q32 296 103 373T304 450Q405 450 455 403T506 272Q506 150 435 70T234 -10Z" />
<glyph unicode="p" glyph-name="p" horiz-adv-x="538" d="M-53 -192L-50 -171Q6 -171 17 -151L105 379Q96 380 82 381T59 383T43 384L47 407Q66 407 125 428T207 450L195 374Q258 450 345 450Q406 450 452 410T498 281Q498 144 421 67T228 -10Q171 -10 134 12L107
-151Q113 -171 166 -171L163 -192H-53ZM185 318L139 44Q173 24 228 24Q293 24 347 94T402 273Q402 416 330 416Q248 416 185 318Z" />
<glyph unicode="q" glyph-name="q" horiz-adv-x="519" d="M229 -192L232 -171Q288 -171 299 -151L328 23Q275 -10 200 -10Q171 -10 144 -2T90 25T47 79T30 163Q30 297 108 373T299 450Q335 450 366 440T416 414T448 383T467 356L472 346L389 -151Q395 -171 448
-171L445 -192H229ZM333 55L389 388Q347 416 300 416Q235 416 180 342T124 158Q124 96 148 60T216 24Q285 24 333 55Z" />
<glyph unicode="r" glyph-name="r" horiz-adv-x="385" d="M357 359Q343 359 335 368T324 387T313 407T290 416Q258 416 179 282L132 0H42L105 379Q96 380 82 381T59 383T43 384L47 407Q66 407 125 428T207 450L191 352Q260 450 306 450Q348 450 375 435T403 399Q403
380 389 370T357 359Z" />
<glyph unicode="s" glyph-name="s" horiz-adv-x="408" d="M223 416Q189 416 159 398T128 354T151 309T207 274T273 243T329 201T352 142Q352 72 295 31T160 -10Q124 -10 90 5T51 20Q39 20 36 0H12L23 127H45Q45 87 87 59T175 30Q193 30 212 34T250 55T270 102Q270
126 249 145T196 177T133 206T81 247T59 308Q59 375 106 412T225 450Q259 450 292 435T331 420Q344 420 347 440H370L358 313H336Q336 354 302 385T223 416Z" />
<glyph unicode="t" glyph-name="t" horiz-adv-x="333" d="M236 585L212 440H298L293 410H207L153 92Q151 76 151 69Q151 28 195 28Q213 28 234 45T268 94L290 82Q253 -10 154 -10Q56 -10 56 72Q56 85 59 100L111 410H41L46 440Q104 440 147 483T200 585H236Z" />
<glyph unicode="u" glyph-name="u" horiz-adv-x="551" d="M441 106Q439 90 439 84Q439 55 452 39T490 23L486 0Q363 0 349 59Q280 -10 212 -10Q131 -10 94 16T57 96Q57 112 60 132L105 399Q99 419 45 419L49 440H202L149 125Q146 110 146 96Q146 24 224 24Q292
24 348 87L407 440H497L441 106Z" />
<glyph unicode="v" glyph-name="v" horiz-adv-x="458" d="M163 0L71 399Q65 419 11 419L15 440H157L232 122Q237 129 263 163T299 211T330 257T363 309T386 357T406 410Q394 419 354 419L358 440H462Q452 378 413 308T332 186T254 82T212 0H163Z" />
<glyph unicode="w" glyph-name="w" horiz-adv-x="710" d="M426 368L484 122Q489 129 515 163T551 211T582 257T615 309T638 357T658 410Q646 419 606 419L610 440H714Q704 378 665 308T584 186T506 82T464 0H415L357 254L212 0H163L71 399Q65 419 11 419L15 440H157L232
122L372 368H426Z" />
<glyph unicode="x" glyph-name="x" horiz-adv-x="468" d="M471 440L467 419Q413 419 397 400L275 254L374 35Q380 21 431 21L427 0H327Q299 0 288 11T259 60L207 174L61 0H-34L-30 21Q23 21 41 42L187 216L102 405Q96 419 46 419L50 440H135Q174 440 186 431T217
380L255 296L376 440H471Z" />
<glyph unicode="y" glyph-name="y" horiz-adv-x="445" d="M162 0L70 399Q64 419 10 419L14 440H156L231 122L393 408Q380 419 339 419L343 440H461L153 -102Q105 -184 34 -184Q20 -184 8 -175T-4 -153Q-4 -137 8 -123T35 -109Q43 -109 53 -117T70 -126Q91 -126
101 -108L162 0Z" />
<glyph unicode="z" glyph-name="z" horiz-adv-x="428" d="M347 0H-23L311 410H119Q97 401 88 347H67L83 440H429L95 30H311Q333 39 342 93H363L347 0Z" />
<glyph unicode="{" glyph-name="braceleft" horiz-adv-x="266" d="M38 -61Q42 -35 60 49T82 150Q84 162 84 166Q84 190 68 199T17 209L21 232Q60 232 80 245T106 292Q109 309 118 392T132 502Q148 594 293 594L290 571Q251 571 230 558T203 511Q200 494 191 411T178
301Q169 242 105 221Q153 203 153 158Q153 147 152 141Q148 115 128 31T105 -70Q104 -76 104 -85Q104 -110 121 -119T172 -129L168 -153Q36 -153 36 -78Q36 -73 38 -61Z" />
<glyph unicode="|" glyph-name="bar" horiz-adv-x="191" d="M144 650H180L66 -30H30L144 650Z" />
<glyph unicode="}" glyph-name="braceright" horiz-adv-x="266" d="M218 502Q214 476 196 392T174 291Q172 279 172 275Q172 251 188 242T239 232L235 209Q196 209 176 196T150 149Q147 132 138 49T124 -61Q108 -153 -38 -153L-34 -130Q5 -130 26 -117T53 -70Q56
-53 64 30T77 140Q86 198 151 220Q103 238 103 283Q103 294 104 300Q108 326 128 410T151 511Q152 517 152 526Q152 570 83 570L87 594Q220 594 220 519Q220 514 218 502Z" />
<glyph unicode="~" glyph-name="asciitilde" horiz-adv-x="549" d="M380 208Q351 208 263 242T157 277Q119 277 103 260T80 208H54Q76 340 178 340Q207 340 295 306T401 271Q439 271 456 288T479 340H505Q483 208 380 208Z" />
<glyph unicode="&#xa0;" glyph-name="uni00A0" horiz-adv-x="240" />
<glyph unicode="&#xa1;" glyph-name="exclamdown" horiz-adv-x="234" d="M212 478Q212 450 191 428T142 406Q121 406 106 421T90 457Q90 484 112 507T162 530Q182 530 197 515T212 478ZM130 334Q142 334 142 289Q142 257 132 121T112 -65Q105 -110 56 -110Q37
-110 25 -101T13 -74Q13 -68 14 -65Q20 -29 55 108T96 266Q117 334 130 334Z" />
<glyph unicode="&#xa2;" glyph-name="cent" horiz-adv-x="474" d="M345 323Q345 346 359 358T387 370Q383 410 329 418L200 40Q221 28 245 28Q333 28 396 94L418 82Q381 35 331 13T204 -10Q189 -10 182 -9L142 -128L106 -121L146 -3Q24 29 24 174Q24 294 96 372T288
450H302L345 573L380 566L339 447Q437 433 437 362Q437 332 423 313T384 294Q345 294 345 323ZM292 420Q223 419 173 358T123 202Q123 116 170 64L292 420Z" />
<glyph unicode="&#xa3;" glyph-name="sterling" horiz-adv-x="534" d="M265 345Q263 327 258 267T245 169T223 100Q265 72 314 72Q358 72 391 81T439 101T463 121T475 130Q484 130 483 118Q482 113 475 101T453 69T419 33T369 4T305 -8Q241 -8 190 45Q143 -10
86 -10Q43 -10 22 11T0 65Q0 102 32 132T99 162Q130 162 157 147Q162 179 165 240T174 345H106L113 389H181Q203 497 247 546T359 595Q420 595 457 576T495 520Q495 497 480 483T444 468Q430 468 421 476T411 500Q411 518 426 531V534Q426 549 406 557T364 565Q301
565 271 389H377L370 345H265ZM93 128Q71 128 53 112T35 71Q35 50 50 37T88 24Q124 24 145 96Q118 128 93 128Z" />
<glyph unicode="&#xa4;" glyph-name="currency" horiz-adv-x="512" d="M113 238Q113 187 147 153T234 119Q299 119 351 168T403 286Q403 337 369 371T282 405Q217 405 165 356T113 238ZM449 294Q449 212 386 146L431 94L393 62L350 115Q291 74 226 74Q159 74 115
115L53 62L27 94L90 147Q67 186 67 231Q67 312 130 379L84 434L121 466L167 410Q225 450 289 450Q352 450 398 411L461 466L488 434L425 380Q449 344 449 294Z" />
<glyph unicode="&#xa5;" glyph-name="yen" horiz-adv-x="544" d="M271 585L267 564Q240 564 225 560L295 267L457 553Q444 564 402 564L406 585H570L566 564Q511 564 501 545L317 220H396L388 176H303L294 120H379L372 76H287L281 41Q287 21 341 21L337 0H119L123
21Q178 21 189 41L195 76H108L115 120H202L211 176H124L132 220H208L133 544Q127 564 73 564L77 585H271Z" />
<glyph unicode="&#xa6;" glyph-name="brokenbar" horiz-adv-x="196" d="M146 650H182L134 362H98L146 650ZM80 258H116L68 -30H32L80 258Z" />
<glyph unicode="&#xa7;" glyph-name="section" horiz-adv-x="411" d="M387 503Q387 485 375 472T346 458Q333 458 324 467T315 489Q315 492 316 499T317 511Q317 537 305 556T270 576Q187 576 187 511Q187 491 214 453T275 377T335 293T363 212Q363 145 326 102T238
42Q290 -19 290 -67Q290 -116 239 -152T115 -188Q72 -188 41 -156T10 -95Q10 -77 22 -64T51 -50Q63 -50 72 -59T81 -81Q81 -84 80 -91T79 -103Q79 -129 91 -148T126 -168Q209 -168 209 -103Q209 -83 182 -45T121 31T61 115T33 196Q33 263 70 306T158 366Q106 427
106 475Q106 524 158 560T282 596Q325 596 356 564T387 503ZM182 339Q102 315 102 250Q102 236 105 223T116 194T129 169T149 143T169 119T193 93T215 69Q294 93 294 158Q294 172 291 185T280 214T267 238T247 265T228 289T204 315T182 339Z" />
<glyph unicode="&#xa8;" glyph-name="dieresis" horiz-adv-x="402" d="M335 541Q335 564 353 581T393 598Q411 598 423 586T435 557Q435 534 417 517T377 500Q359 500 347 512T335 541ZM151 541Q151 564 169 581T209 598Q227 598 239 586T251 557Q251 534 233
517T193 500Q175 500 163 512T151 541Z" />
<glyph unicode="&#xa9;" glyph-name="copyright" horiz-adv-x="646" d="M73 227Q73 138 132 79T284 19Q387 19 472 92T575 268Q578 289 578 309Q578 398 519 457T368 517Q256 517 165 432T73 227ZM372 544Q473 544 539 478T606 314Q606 289 602 268Q583 154 489
73T280 -8Q179 -8 113 58T46 222Q46 310 94 385T217 502T372 544ZM360 402Q311 402 277 356T242 242Q242 194 264 169T319 143Q345 143 370 161T407 199L427 189Q386 116 304 116Q243 116 211 151T179 240Q179 323 238 376T365 429Q378 429 390 426T409 418T417
414Q419 414 420 424H442L435 350H415Q414 375 402 388T360 402Z" />
<glyph unicode="&#xaa;" glyph-name="ordfeminine" horiz-adv-x="364" d="M50 155H290L286 129H46L50 155ZM145 412Q161 407 157 387Q154 365 125 365Q104 365 104 389Q104 421 132 438T201 455Q283 455 283 386Q283 380 281 366L265 267Q261 241 273 241T287
253H306Q302 232 290 224T249 216Q224 216 215 234Q180 215 140 215Q70 215 70 266Q70 286 80 300T110 323T146 337T188 347T224 355Q227 374 227 387Q227 427 191 427Q157 427 145 412ZM221 333Q216 332 201 328T181 322T164 316T148 308T137 298T128 284T126
266Q126 242 152 242Q182 242 210 256Q210 267 212 281L221 333Z" />
<glyph unicode="&#xab;" glyph-name="guillemotleft" horiz-adv-x="439" d="M224 324L402 418L398 392L295 299L366 206L362 180L216 274Q204 282 207 299Q211 317 224 324ZM64 324L242 418L238 392L135 299L206 206L202 180L56 274Q44 282 47 299Q51 317 64 324Z" />
<glyph unicode="&#xac;" glyph-name="logicalnot" horiz-adv-x="429" d="M323 296H73L80 340H372L350 208H308L323 296Z" />
<glyph unicode="&#xad;" glyph-name="uni00AD" horiz-adv-x="399" d="M83 340H347L333 296H69L83 340Z" />
<glyph unicode="&#xae;" glyph-name="registered" horiz-adv-x="647" d="M73 227Q73 138 132 79T284 19Q396 19 487 104T578 309Q578 398 519 457T368 517Q255 517 164 432T73 227ZM372 544Q473 544 539 478T606 314Q606 226 558 151T435 34T280 -8Q179 -8 113
58T46 222Q46 310 94 385T217 502T372 544ZM169 122L173 142Q198 142 205 149L247 398Q246 404 217 404L220 424H338Q397 424 426 404T456 355Q456 323 434 299T378 264L423 150Q424 142 455 142L451 122H425Q389 122 378 127T359 151L318 255H279L261 149Q262
142 291 142L287 122H169ZM303 398L283 282H320Q361 282 378 300T396 359Q396 398 334 398H303Z" />
<glyph unicode="&#xaf;" glyph-name="overscore" horiz-adv-x="384" d="M153 558H417L410 514H146L153 558Z" />
<glyph unicode="&#xb0;" glyph-name="degree" horiz-adv-x="313" d="M209 589Q176 589 149 564T122 504Q122 478 139 461T184 444Q217 444 243 468T270 528Q270 554 253 571T209 589ZM81 498Q81 552 122 591T215 630Q257 630 284 603T312 534Q312 480 270 442T177
403Q135 403 108 430T81 498Z" />
<glyph unicode="&#xb1;" glyph-name="plusminus" horiz-adv-x="422" d="M56 178H342L334 134H48L56 178ZM249 348L232 247H188L205 348H84L92 392H213L230 493H274L257 392H378L370 348H249Z" />
<glyph unicode="&#xb2;" glyph-name="uni00B2" horiz-adv-x="362" d="M277 336Q304 346 322 379H344L300 280H41L42 285Q44 297 81 327T163 391T243 472T280 561Q280 610 226 610Q191 610 167 600T134 578T116 556T102 546Q91 546 94 557Q98 583 139 621T242 660Q357
660 357 578Q357 545 328 505T263 435T189 375T143 336H277Z" />
<glyph unicode="&#xb3;" glyph-name="uni00B3" horiz-adv-x="356" d="M346 584Q346 524 283 491Q336 469 336 416Q336 354 295 315T171 276Q135 276 106 287T63 312T50 335Q50 377 85 377Q96 377 101 366T109 342T127 317T172 306Q224 306 246 334T269 404Q269
464 220 464Q212 464 202 462T186 460Q179 460 174 464T170 473Q171 482 180 482Q182 483 187 484Q208 490 219 494T246 507T269 530T277 564Q277 585 261 597T217 610Q188 610 169 602T142 584T128 566T115 557Q110 557 108 561T107 569Q111 592 146 626T233 660Q346
660 346 584Z" />
<glyph unicode="&#xb4;" glyph-name="acute" horiz-adv-x="300" d="M245 662H351L170 500H144L245 662Z" />
<glyph unicode="&#xb5;" glyph-name="uni00B5" horiz-adv-x="582" d="M120 -145Q120 -171 103 -185T62 -200Q43 -200 28 -188T13 -150Q13 -146 15 -134L111 440H201L148 125Q145 110 145 96Q145 24 223 24Q286 24 354 96L412 440H502L442 83Q440 67 440 61Q440
20 467 20Q480 20 492 27T506 45H524Q519 17 496 4T422 -10Q357 -10 353 61Q282 -10 203 -10Q118 -10 83 24L73 -33Q72 -41 72 -55Q72 -86 96 -106T120 -145Z" />
<glyph unicode="&#xb6;" glyph-name="paragraph" horiz-adv-x="533" d="M83 0L87 21Q142 21 153 41L191 268Q125 275 90 309T55 397Q55 474 117 529T302 585H542L538 564Q483 564 472 544L388 41Q394 21 448 21L444 0H289L381 551H330L238 0H83Z" />
<glyph unicode="&#xb7;" glyph-name="middot" horiz-adv-x="229" d="M60 292Q60 320 81 342T130 364Q151 364 166 349T182 313Q182 286 160 263T110 240Q90 240 75 255T60 292Z" />
<glyph unicode="&#xb8;" glyph-name="cedilla" horiz-adv-x="304" d="M55 -177Q97 -177 116 -161T136 -121Q136 -86 82 -86L126 12H164L135 -55Q164 -55 194 -69T224 -113Q224 -149 195 -174T101 -199Q67 -199 28 -192L31 -175Q49 -177 55 -177Z" />
<glyph unicode="&#xb9;" glyph-name="uni00B9" horiz-adv-x="244" d="M81 508Q87 516 104 540T134 580T162 615T189 645T207 655H225L167 313Q171 303 209 303L205 280H49L53 303Q88 303 96 313L133 530Q127 526 97 499L81 508Z" />
<glyph unicode="&#xba;" glyph-name="ordmasculine" horiz-adv-x="371" d="M48 155H291L287 129H44L48 155ZM206 429Q175 429 155 393T135 312Q135 240 192 240Q225 240 244 276T264 361Q264 429 206 429ZM182 215Q130 215 103 242T76 313Q76 375 114 415T218
455Q323 455 323 362Q323 298 286 257T182 215Z" />
<glyph unicode="&#xbb;" glyph-name="guillemotright" horiz-adv-x="439" d="M389 274L211 180L215 206L318 299L247 392L251 418L397 324Q409 316 406 299Q402 281 389 274ZM229 274L51 180L55 206L158 299L87 392L91 418L237 324Q249 316 246 299Q242 281 229 274Z" />
<glyph unicode="&#xbc;" glyph-name="onequarter" horiz-adv-x="696" d="M77 508Q83 516 100 540T130 580T158 615T185 645T203 655H221L163 313Q167 303 205 303L201 280H45L49 303Q84 303 92 313L129 530Q123 526 93 499L77 508ZM634 375L593 134H648L643 105H588L576
33Q580 23 617 23L613 0H459L463 23Q499 23 506 33L518 105H357L592 375H634ZM523 134L548 284L418 134H523ZM70 -10L563 612L589 594L96 -28L70 -10Z" />
<glyph unicode="&#xbd;" glyph-name="onehalf" horiz-adv-x="722" d="M77 508Q83 516 100 540T130 580T158 615T185 645T203 655H221L163 313Q167 303 205 303L201 280H45L49 303Q84 303 92 313L129 530Q123 526 93 499L77 508ZM601 56Q628 66 646 99H668L624
0H365L366 5Q368 17 405 47T487 111T567 192T604 281Q604 330 550 330Q515 330 491 320T458 298T440 276T426 266Q415 266 418 277Q422 303 463 341T566 380Q681 380 681 298Q681 265 652 225T587 155T513 95T467 56H601ZM46 -10L539 612L565 594L72 -28L46 -10Z"
/>
<glyph unicode="&#xbe;" glyph-name="threequarters" horiz-adv-x="732" d="M339 584Q339 524 276 491Q329 469 329 416Q329 354 288 315T164 276Q128 276 99 287T56 312T43 335Q43 377 78 377Q89 377 94 366T102 342T120 317T165 306Q217 306 239 334T262 404Q262
464 213 464Q205 464 195 462T179 460Q172 460 167 464T163 473Q164 482 173 482Q175 483 180 484Q201 490 212 494T239 507T262 530T270 564Q270 585 254 597T210 610Q181 610 162 602T135 584T121 566T108 557Q103 557 101 561T100 569Q104 592 139 626T226 660Q339
660 339 584ZM670 375L629 134H684L679 105H624L612 33Q616 23 653 23L649 0H495L499 23Q535 23 542 33L554 105H393L628 375H670ZM559 134L584 284L454 134H559ZM116 -10L609 612L635 594L142 -28L116 -10Z" />
<glyph unicode="&#xbf;" glyph-name="questiondown" horiz-adv-x="395" d="M311 478Q311 450 290 428T241 406Q220 406 205 421T189 457Q189 484 211 507T261 530Q281 530 296 515T311 478ZM256 34Q256 52 268 63T296 75Q310 75 320 66T330 37Q330 -19 279 -64T149
-110Q68 -110 33 -73T-3 17Q-3 65 29 111T100 188T174 255T215 320Q216 325 221 329T230 334T238 330T241 320Q235 286 217 254T177 197T134 143T99 78T85 -4Q85 -44 104 -62T164 -80T234 -55T264 -1Q264 7 260 17T256 34Z" />
<glyph unicode="&#xc0;" glyph-name="Agrave" horiz-adv-x="543" d="M319 782L366 620H340L213 782H319ZM296 0L300 21Q346 21 360 33L329 186H137L61 39Q68 21 120 21L116 0H-48L-44 21Q12 21 22 42L307 585H355L458 42Q462 21 519 21L515 0H296ZM277 452L155
219H323L277 452Z" />
<glyph unicode="&#xc1;" glyph-name="Aacute" horiz-adv-x="543" d="M428 782H534L353 620H327L428 782ZM296 0L300 21Q346 21 360 33L329 186H137L61 39Q68 21 120 21L116 0H-48L-44 21Q12 21 22 42L307 585H355L458 42Q462 21 519 21L515 0H296ZM277 452L155
219H323L277 452Z" />
<glyph unicode="&#xc2;" glyph-name="Acircumflex" horiz-adv-x="543" d="M392 782L459 620H433L354 707L247 620H221L342 782H392ZM296 0L300 21Q346 21 360 33L329 186H137L61 39Q68 21 120 21L116 0H-48L-44 21Q12 21 22 42L307 585H355L458 42Q462 21 519
21L515 0H296ZM277 452L155 219H323L277 452Z" />
<glyph unicode="&#xc3;" glyph-name="Atilde" horiz-adv-x="543" d="M415 620Q393 620 339 649T270 679Q242 679 229 665T210 620H191Q209 732 285 732Q307 732 362 703T432 673Q460 673 473 687T491 732H510Q492 620 415 620ZM296 0L300 21Q346 21 360 33L329
186H137L61 39Q68 21 120 21L116 0H-48L-44 21Q12 21 22 42L307 585H355L458 42Q462 21 519 21L515 0H296ZM277 452L155 219H323L277 452Z" />
<glyph unicode="&#xc4;" glyph-name="Adieresis" horiz-adv-x="543" d="M390 661Q390 684 408 701T448 718Q466 718 478 706T490 677Q490 654 472 637T432 620Q414 620 402 632T390 661ZM206 661Q206 684 224 701T264 718Q282 718 294 706T306 677Q306 654 288
637T248 620Q230 620 218 632T206 661ZM296 0L300 21Q346 21 360 33L329 186H137L61 39Q68 21 120 21L116 0H-48L-44 21Q12 21 22 42L307 585H355L458 42Q462 21 519 21L515 0H296ZM277 452L155 219H323L277 452Z" />
<glyph unicode="&#xc5;" glyph-name="Aring" horiz-adv-x="543" d="M359 736Q338 736 321 720T304 681Q304 664 315 653T343 642Q364 642 381 658T399 697Q399 714 388 725T359 736ZM276 676Q276 713 302 738T364 763Q392 763 409 746T426 702Q426 665 400 640T339
615Q311 615 294 632T276 676ZM296 0L300 21Q346 21 360 33L329 186H137L61 39Q68 21 120 21L116 0H-48L-44 21Q12 21 22 42L307 585H355L458 42Q462 21 519 21L515 0H296ZM277 452L155 219H323L277 452Z" />
<glyph unicode="&#xc6;" glyph-name="AE" horiz-adv-x="760" d="M-60 0L-56 21Q-4 21 10 42V41L382 553Q372 564 327 564L331 585H755L739 488H718Q721 509 721 522Q721 545 708 551H501L463 321H603Q624 329 633 384H654L627 224H606Q610 252 610 258Q610 281
597 287H457L415 34H643Q669 44 698 97H718L678 0H254L258 21Q313 21 324 41L348 186H155L48 39Q54 21 108 21L104 0H28L43 32L20 0H-60ZM179 219H354L406 530L179 219Z" />
<glyph unicode="&#xc7;" glyph-name="Ccedilla" horiz-adv-x="565" d="M200 -177V-178Q242 -178 261 -162T281 -122Q281 -87 227 -87L262 -10Q158 -2 102 64T46 228Q46 310 79 381T164 497T279 568T406 594Q436 594 471 579T512 564Q524 564 527 584H550L539 457H517Q517
502 489 531T401 560Q300 560 226 464T152 230Q152 131 198 77T315 23Q365 23 419 57T495 131L517 119Q444 -5 300 -10L280 -55Q309 -55 339 -69T369 -113Q369 -149 340 -174T246 -199Q212 -199 173 -192L176 -175Q194 -177 200 -177Z" />
<glyph unicode="&#xc8;" glyph-name="Egrave" horiz-adv-x="508" d="M311 782L358 620H332L205 782H311ZM2 0L6 21Q61 21 72 41L156 544Q150 564 96 564L100 585H503L487 488H466Q469 509 469 522Q469 545 456 551H249L211 321H351Q372 329 381 384H402L375 224H354Q358
252 358 258Q358 281 345 287H205L163 34H391Q417 44 446 97H466L426 0H2Z" />
<glyph unicode="&#xc9;" glyph-name="Eacute" horiz-adv-x="508" d="M420 782H526L345 620H319L420 782ZM2 0L6 21Q61 21 72 41L156 544Q150 564 96 564L100 585H503L487 488H466Q469 509 469 522Q469 545 456 551H249L211 321H351Q372 329 381 384H402L375 224H354Q358
252 358 258Q358 281 345 287H205L163 34H391Q417 44 446 97H466L426 0H2Z" />
<glyph unicode="&#xca;" glyph-name="Ecircumflex" horiz-adv-x="508" d="M384 782L451 620H425L346 707L239 620H213L334 782H384ZM2 0L6 21Q61 21 72 41L156 544Q150 564 96 564L100 585H503L487 488H466Q469 509 469 522Q469 545 456 551H249L211 321H351Q372
329 381 384H402L375 224H354Q358 252 358 258Q358 281 345 287H205L163 34H391Q417 44 446 97H466L426 0H2Z" />
<glyph unicode="&#xcb;" glyph-name="Edieresis" horiz-adv-x="508" d="M382 661Q382 684 400 701T440 718Q458 718 470 706T482 677Q482 654 464 637T424 620Q406 620 394 632T382 661ZM198 661Q198 684 216 701T256 718Q274 718 286 706T298 677Q298 654 280
637T240 620Q222 620 210 632T198 661ZM2 0L6 21Q61 21 72 41L156 544Q150 564 96 564L100 585H503L487 488H466Q469 509 469 522Q469 545 456 551H249L211 321H351Q372 329 381 384H402L375 224H354Q358 252 358 258Q358 281 345 287H205L163 34H391Q417 44 446
97H466L426 0H2Z" />
<glyph unicode="&#xcc;" glyph-name="Igrave" horiz-adv-x="308" d="M192 782L239 620H213L86 782H192ZM2 0L6 21Q61 21 72 41L156 544Q150 564 96 564L100 585H318L314 564Q259 564 248 544L164 41Q170 21 224 21L220 0H2Z" />
<glyph unicode="&#xcd;" glyph-name="Iacute" horiz-adv-x="308" d="M301 782H407L226 620H200L301 782ZM2 0L6 21Q61 21 72 41L156 544Q150 564 96 564L100 585H318L314 564Q259 564 248 544L164 41Q170 21 224 21L220 0H2Z" />
<glyph unicode="&#xce;" glyph-name="Icircumflex" horiz-adv-x="308" d="M265 782L332 620H306L227 707L120 620H94L215 782H265ZM2 0L6 21Q61 21 72 41L156 544Q150 564 96 564L100 585H318L314 564Q259 564 248 544L164 41Q170 21 224 21L220 0H2Z" />
<glyph unicode="&#xcf;" glyph-name="Idieresis" horiz-adv-x="308" d="M263 661Q263 684 281 701T321 718Q339 718 351 706T363 677Q363 654 345 637T305 620Q287 620 275 632T263 661ZM79 661Q79 684 97 701T137 718Q155 718 167 706T179 677Q179 654 161 637T121
620Q103 620 91 632T79 661ZM2 0L6 21Q61 21 72 41L156 544Q150 564 96 564L100 585H318L314 564Q259 564 248 544L164 41Q170 21 224 21L220 0H2Z" />
<glyph unicode="&#xd0;" glyph-name="Eth" horiz-adv-x="611" d="M-3 -1L0 20Q56 20 67 40L86 154Q109 291 197 369T461 457Q442 506 404 530T320 555H245L231 470H191L205 555H107Q85 546 76 492H55L71 585H210L222 655H262L250 585H325Q442 585 509 521T576
351Q576 197 477 98T239 -1H-3ZM470 427Q340 419 270 355T184 192L158 33H245Q281 33 320 55T395 117T454 222T477 363Q477 394 470 427Z" />
<glyph unicode="&#xd1;" glyph-name="Ntilde" horiz-adv-x="643" d="M457 620Q435 620 381 649T312 679Q284 679 271 665T252 620H233Q251 732 327 732Q349 732 404 703T474 673Q502 673 515 687T533 732H552Q534 620 457 620ZM2 0L6 21Q61 21 72 41L156 544Q150
564 96 564L100 585H234L496 176L558 544Q552 564 498 564L502 585H662L658 564Q603 564 592 544L501 0H492L182 497L106 41Q112 21 166 21L162 0H2Z" />
<glyph unicode="&#xd2;" glyph-name="Ograve" horiz-adv-x="644" d="M362 782L409 620H383L256 782H362ZM146 229Q146 142 181 83T287 24Q354 24 406 76T484 202T509 353Q509 409 496 454T450 530T369 561Q302 561 250 509T172 382T146 229ZM379 595Q485 595 547
526T610 350Q610 203 510 97T277 -10Q170 -10 108 59T46 234Q46 382 145 488T379 595Z" />
<glyph unicode="&#xd3;" glyph-name="Oacute" horiz-adv-x="644" d="M471 782H577L396 620H370L471 782ZM146 229Q146 142 181 83T287 24Q354 24 406 76T484 202T509 353Q509 409 496 454T450 530T369 561Q302 561 250 509T172 382T146 229ZM379 595Q485 595 547
526T610 350Q610 203 510 97T277 -10Q170 -10 108 59T46 234Q46 382 145 488T379 595Z" />
<glyph unicode="&#xd4;" glyph-name="Ocircumflex" horiz-adv-x="644" d="M435 782L502 620H476L397 707L290 620H264L385 782H435ZM146 229Q146 142 181 83T287 24Q354 24 406 76T484 202T509 353Q509 409 496 454T450 530T369 561Q302 561 250 509T172 382T146
229ZM379 595Q485 595 547 526T610 350Q610 203 510 97T277 -10Q170 -10 108 59T46 234Q46 382 145 488T379 595Z" />
<glyph unicode="&#xd5;" glyph-name="Otilde" horiz-adv-x="644" d="M458 620Q436 620 382 649T313 679Q285 679 272 665T253 620H234Q252 732 328 732Q350 732 405 703T475 673Q503 673 516 687T534 732H553Q535 620 458 620ZM146 229Q146 142 181 83T287 24Q354
24 406 76T484 202T509 353Q509 409 496 454T450 530T369 561Q302 561 250 509T172 382T146 229ZM379 595Q485 595 547 526T610 350Q610 203 510 97T277 -10Q170 -10 108 59T46 234Q46 382 145 488T379 595Z" />
<glyph unicode="&#xd6;" glyph-name="Odieresis" horiz-adv-x="644" d="M433 661Q433 684 451 701T491 718Q509 718 521 706T533 677Q533 654 515 637T475 620Q457 620 445 632T433 661ZM249 661Q249 684 267 701T307 718Q325 718 337 706T349 677Q349 654 331
637T291 620Q273 620 261 632T249 661ZM146 229Q146 142 181 83T287 24Q354 24 406 76T484 202T509 353Q509 409 496 454T450 530T369 561Q302 561 250 509T172 382T146 229ZM379 595Q485 595 547 526T610 350Q610 203 510 97T277 -10Q170 -10 108 59T46 234Q46
382 145 488T379 595Z" />
<glyph unicode="&#xd7;" glyph-name="multiply" horiz-adv-x="420" d="M250 318L357 190L321 159L214 287L65 159L39 190L188 318L82 446L118 477L224 349L374 477L400 446L250 318Z" />
<glyph unicode="&#xd8;" glyph-name="Oslash" horiz-adv-x="644" d="M159 -28L130 -10L151 23Q100 54 73 109T46 234Q46 382 145 488T379 595Q443 595 492 569L519 612L548 594L521 550Q610 482 610 350Q610 203 510 97T277 -10Q223 -10 181 8L159 -28ZM482 488L208
51Q240 24 287 24Q354 24 406 76T484 202T509 353Q509 434 482 488ZM461 519Q425 561 369 561Q302 561 250 509T172 382T146 229Q146 133 185 77L461 519Z" />
<glyph unicode="&#xd9;" glyph-name="Ugrave" horiz-adv-x="619" d="M375 782L422 620H396L269 782H375ZM298 24Q365 24 420 80T490 228L543 544Q537 564 483 564L487 585H647L643 564Q588 564 577 544L528 248Q506 118 438 54T282 -10Q79 -10 79 176Q79 202 86
248L135 544Q129 564 75 564L79 585H297L293 564Q238 564 227 544L175 234Q170 199 170 176Q170 103 204 64T298 24Z" />
<glyph unicode="&#xda;" glyph-name="Uacute" horiz-adv-x="619" d="M484 782H590L409 620H383L484 782ZM298 24Q365 24 420 80T490 228L543 544Q537 564 483 564L487 585H647L643 564Q588 564 577 544L528 248Q506 118 438 54T282 -10Q79 -10 79 176Q79 202 86
248L135 544Q129 564 75 564L79 585H297L293 564Q238 564 227 544L175 234Q170 199 170 176Q170 103 204 64T298 24Z" />
<glyph unicode="&#xdb;" glyph-name="Ucircumflex" horiz-adv-x="619" d="M448 782L515 620H489L410 707L303 620H277L398 782H448ZM298 24Q365 24 420 80T490 228L543 544Q537 564 483 564L487 585H647L643 564Q588 564 577 544L528 248Q506 118 438 54T282 -10Q79
-10 79 176Q79 202 86 248L135 544Q129 564 75 564L79 585H297L293 564Q238 564 227 544L175 234Q170 199 170 176Q170 103 204 64T298 24Z" />
<glyph unicode="&#xdc;" glyph-name="Udieresis" horiz-adv-x="619" d="M446 661Q446 684 464 701T504 718Q522 718 534 706T546 677Q546 654 528 637T488 620Q470 620 458 632T446 661ZM262 661Q262 684 280 701T320 718Q338 718 350 706T362 677Q362 654 344
637T304 620Q286 620 274 632T262 661ZM298 24Q365 24 420 80T490 228L543 544Q537 564 483 564L487 585H647L643 564Q588 564 577 544L528 248Q506 118 438 54T282 -10Q79 -10 79 176Q79 202 86 248L135 544Q129 564 75 564L79 585H297L293 564Q238 564 227 544L175
234Q170 199 170 176Q170 103 204 64T298 24Z" />
<glyph unicode="&#xdd;" glyph-name="Yacute" horiz-adv-x="561" d="M456 782H562L381 620H355L456 782ZM263 585L259 564Q212 564 199 552L309 281L513 546Q506 564 454 564L458 585H622L618 564Q575 564 559 551L329 252L294 41Q300 21 354 21L350 0H132L136
21Q191 21 202 41L232 220L101 544Q90 564 40 564L44 585H263Z" />
<glyph unicode="&#xde;" glyph-name="Thorn" horiz-adv-x="526" d="M2 0L6 21Q61 21 72 41L156 544Q150 564 96 564L100 585H318L314 564Q259 564 248 544L234 460H286Q402 460 458 424T514 329Q514 243 442 192T245 141H181L164 41Q170 21 224 21L220 0H2ZM228
426L186 175H250Q415 175 415 339Q415 382 385 404T280 426H228Z" />
<glyph unicode="&#xdf;" glyph-name="germandbls" horiz-adv-x="501" d="M109 -44Q100 -95 59 -117T-60 -140L-57 -117Q-29 -117 -8 -95T20 -34L105 474Q119 555 168 592T277 630Q357 630 391 605T426 532Q426 474 392 429T302 359Q368 347 414 302T460 206Q460
113 400 52T263 -10Q207 -10 182 16T157 68Q157 126 202 126Q214 126 217 110T220 73T229 37T262 20Q297 20 335 72T374 193Q374 251 334 297T237 344Q229 344 225 347T222 354Q224 363 241 368Q274 380 309 426T344 517Q344 549 331 574T286 600Q259 600 233 571T198
488L109 -44Z" />
<glyph unicode="&#xe0;" glyph-name="agrave" horiz-adv-x="482" d="M245 677L292 515H266L139 677H245ZM160 336Q160 314 145 302T109 290Q93 290 83 300T73 328Q73 386 124 418T257 450Q337 450 375 415T413 320Q413 308 409 282L380 106Q378 90 378 84Q378
55 391 39T429 23L425 0Q326 0 298 37Q228 -10 138 -10Q6 -10 6 83Q6 109 16 130T47 166T89 192T143 211T200 226T259 239T314 252Q321 301 321 325Q321 368 299 391T241 414Q152 414 131 366Q160 366 160 336ZM310 230Q297 226 266 218T217 205T174 188T134 163T110
129T99 81Q99 24 161 24Q230 24 288 58Q286 68 286 75T288 96L310 230Z" />
<glyph unicode="&#xe1;" glyph-name="aacute" horiz-adv-x="482" d="M354 677H460L279 515H253L354 677ZM160 336Q160 314 145 302T109 290Q93 290 83 300T73 328Q73 386 124 418T257 450Q337 450 375 415T413 320Q413 308 409 282L380 106Q378 90 378 84Q378
55 391 39T429 23L425 0Q326 0 298 37Q228 -10 138 -10Q6 -10 6 83Q6 109 16 130T47 166T89 192T143 211T200 226T259 239T314 252Q321 301 321 325Q321 368 299 391T241 414Q152 414 131 366Q160 366 160 336ZM310 230Q297 226 266 218T217 205T174 188T134 163T110
129T99 81Q99 24 161 24Q230 24 288 58Q286 68 286 75T288 96L310 230Z" />
<glyph unicode="&#xe2;" glyph-name="acircumflex" horiz-adv-x="482" d="M318 677L385 515H359L280 602L173 515H147L268 677H318ZM160 336Q160 314 145 302T109 290Q93 290 83 300T73 328Q73 386 124 418T257 450Q337 450 375 415T413 320Q413 308 409 282L380
106Q378 90 378 84Q378 55 391 39T429 23L425 0Q326 0 298 37Q228 -10 138 -10Q6 -10 6 83Q6 109 16 130T47 166T89 192T143 211T200 226T259 239T314 252Q321 301 321 325Q321 368 299 391T241 414Q152 414 131 366Q160 366 160 336ZM310 230Q297 226 266 218T217
205T174 188T134 163T110 129T99 81Q99 24 161 24Q230 24 288 58Q286 68 286 75T288 96L310 230Z" />
<glyph unicode="&#xe3;" glyph-name="atilde" horiz-adv-x="482" d="M341 515Q319 515 265 544T196 574Q168 574 155 560T136 515H117Q135 627 211 627Q233 627 288 598T358 568Q386 568 399 582T417 627H436Q418 515 341 515ZM160 336Q160 314 145 302T109 290Q93
290 83 300T73 328Q73 386 124 418T257 450Q337 450 375 415T413 320Q413 308 409 282L380 106Q378 90 378 84Q378 55 391 39T429 23L425 0Q326 0 298 37Q228 -10 138 -10Q6 -10 6 83Q6 109 16 130T47 166T89 192T143 211T200 226T259 239T314 252Q321 301 321
325Q321 368 299 391T241 414Q152 414 131 366Q160 366 160 336ZM310 230Q297 226 266 218T217 205T174 188T134 163T110 129T99 81Q99 24 161 24Q230 24 288 58Q286 68 286 75T288 96L310 230Z" />
<glyph unicode="&#xe4;" glyph-name="adieresis" horiz-adv-x="482" d="M316 556Q316 579 334 596T374 613Q392 613 404 601T416 572Q416 549 398 532T358 515Q340 515 328 527T316 556ZM132 556Q132 579 150 596T190 613Q208 613 220 601T232 572Q232 549 214
532T174 515Q156 515 144 527T132 556ZM160 336Q160 314 145 302T109 290Q93 290 83 300T73 328Q73 386 124 418T257 450Q337 450 375 415T413 320Q413 308 409 282L380 106Q378 90 378 84Q378 55 391 39T429 23L425 0Q326 0 298 37Q228 -10 138 -10Q6 -10 6 83Q6
109 16 130T47 166T89 192T143 211T200 226T259 239T314 252Q321 301 321 325Q321 368 299 391T241 414Q152 414 131 366Q160 366 160 336ZM310 230Q297 226 266 218T217 205T174 188T134 163T110 129T99 81Q99 24 161 24Q230 24 288 58Q286 68 286 75T288 96L310
230Z" />
<glyph unicode="&#xe5;" glyph-name="aring" horiz-adv-x="482" d="M285 631Q264 631 247 615T230 576Q230 559 241 548T269 537Q290 537 307 553T325 592Q325 609 314 620T285 631ZM202 571Q202 608 228 633T290 658Q318 658 335 641T352 597Q352 560 326 535T265
510Q237 510 220 527T202 571ZM160 336Q160 314 145 302T109 290Q93 290 83 300T73 328Q73 386 124 418T257 450Q337 450 375 415T413 320Q413 308 409 282L380 106Q378 90 378 84Q378 55 391 39T429 23L425 0Q326 0 298 37Q228 -10 138 -10Q6 -10 6 83Q6 109 16
130T47 166T89 192T143 211T200 226T259 239T314 252Q321 301 321 325Q321 368 299 391T241 414Q152 414 131 366Q160 366 160 336ZM310 230Q297 226 266 218T217 205T174 188T134 163T110 129T99 81Q99 24 161 24Q230 24 288 58Q286 68 286 75T288 96L310 230Z"
/>
<glyph unicode="&#xe6;" glyph-name="ae" horiz-adv-x="763" d="M406 239L555 259Q598 266 620 282T643 330Q643 364 620 392T543 420Q502 420 461 369T406 239ZM160 335Q160 313 145 302T108 290Q92 290 83 300T73 328Q73 387 124 418T257 450Q357 450 393 394Q457
450 552 450Q645 450 689 409T733 316Q733 285 708 266T597 234L404 208Q404 133 438 81T526 28Q614 28 677 94L699 82Q662 35 612 13T485 -10Q387 -10 339 55Q277 -10 138 -10Q6 -10 6 83Q6 119 25 145T81 188T152 213T237 233T313 251Q321 286 321 325Q321 371
303 392T241 414Q152 414 131 366Q160 366 160 335ZM309 230Q275 224 253 219T199 203T147 177T113 138T98 82Q98 24 161 24Q270 24 327 73Q305 114 305 175Q305 206 309 230Z" />
<glyph unicode="&#xe7;" glyph-name="ccedilla" horiz-adv-x="479" d="M137 -177V-175Q179 -175 198 -159T218 -119Q218 -84 164 -84L198 -8Q129 -4 81 39T32 176Q32 295 104 373T296 451Q445 451 445 363Q445 333 431 314T392 295Q353 295 353 324Q353 347 367
359T395 371Q391 421 301 421Q231 421 181 360T130 203Q130 131 165 80T253 29Q341 29 404 95L426 83Q360 -2 237 -9L217 -55Q246 -55 276 -69T306 -113Q306 -149 277 -174T183 -199Q149 -199 110 -192L113 -175Q131 -177 137 -177Z" />
<glyph unicode="&#xe8;" glyph-name="egrave" horiz-adv-x="490" d="M269 677L316 515H290L163 677H269ZM460 316Q460 285 435 266T324 234L131 208Q131 133 165 81T253 28Q341 28 404 94L426 82Q389 35 339 13T212 -10Q139 -10 86 33T32 175Q32 294 98 372T279
450Q372 450 416 409T460 316ZM133 239L282 259Q370 270 370 330Q370 364 347 392T270 420Q229 420 188 369T133 239Z" />
<glyph unicode="&#xe9;" glyph-name="eacute" horiz-adv-x="490" d="M378 677H484L303 515H277L378 677ZM460 316Q460 285 435 266T324 234L131 208Q131 133 165 81T253 28Q341 28 404 94L426 82Q389 35 339 13T212 -10Q139 -10 86 33T32 175Q32 294 98 372T279
450Q372 450 416 409T460 316ZM133 239L282 259Q370 270 370 330Q370 364 347 392T270 420Q229 420 188 369T133 239Z" />
<glyph unicode="&#xea;" glyph-name="ecircumflex" horiz-adv-x="490" d="M342 677L409 515H383L304 602L197 515H171L292 677H342ZM460 316Q460 285 435 266T324 234L131 208Q131 133 165 81T253 28Q341 28 404 94L426 82Q389 35 339 13T212 -10Q139 -10 86 33T32
175Q32 294 98 372T279 450Q372 450 416 409T460 316ZM133 239L282 259Q370 270 370 330Q370 364 347 392T270 420Q229 420 188 369T133 239Z" />
<glyph unicode="&#xeb;" glyph-name="edieresis" horiz-adv-x="490" d="M339 556Q339 579 357 596T397 613Q415 613 427 601T439 572Q439 549 421 532T381 515Q363 515 351 527T339 556ZM155 556Q155 579 173 596T213 613Q231 613 243 601T255 572Q255 549 237
532T197 515Q179 515 167 527T155 556ZM460 316Q460 285 435 266T324 234L131 208Q131 133 165 81T253 28Q341 28 404 94L426 82Q389 35 339 13T212 -10Q139 -10 86 33T32 175Q32 294 98 372T279 450Q372 450 416 409T460 316ZM133 239L282 259Q370 270 370 330Q370
364 347 392T270 420Q229 420 188 369T133 239Z" />
<glyph unicode="&#xec;" glyph-name="igrave" horiz-adv-x="242" d="M152 677L199 515H173L46 677H152ZM105 379Q96 380 82 381T59 383T43 384L47 407Q66 407 125 428T207 450L132 0H42L105 379Z" />
<glyph unicode="&#xed;" glyph-name="iacute" horiz-adv-x="242" d="M261 677H367L186 515H160L261 677ZM105 379Q96 380 82 381T59 383T43 384L47 407Q66 407 125 428T207 450L132 0H42L105 379Z" />
<glyph unicode="&#xee;" glyph-name="icircumflex" horiz-adv-x="242" d="M225 677L292 515H266L187 602L80 515H54L175 677H225ZM105 379Q96 380 82 381T59 383T43 384L47 407Q66 407 125 428T207 450L132 0H42L105 379Z" />
<glyph unicode="&#xef;" glyph-name="idieresis" horiz-adv-x="242" d="M223 556Q223 579 241 596T281 613Q299 613 311 601T323 572Q323 549 305 532T265 515Q247 515 235 527T223 556ZM39 556Q39 579 57 596T97 613Q115 613 127 601T139 572Q139 549 121 532T81
515Q63 515 51 527T39 556ZM105 379Q96 380 82 381T59 383T43 384L47 407Q66 407 125 428T207 450L132 0H42L105 379Z" />
<glyph unicode="&#xf0;" glyph-name="eth" horiz-adv-x="531" d="M225 -10Q129 -10 81 38T32 171Q32 294 98 372T295 450Q332 450 360 444Q339 490 304 532L212 484L200 513L282 556Q265 573 248 587T221 606L212 612L226 630Q270 613 322 577L418 628L430 599L350
556Q488 444 488 281Q488 153 423 72T225 -10ZM273 419Q206 419 168 342T129 168Q129 93 159 57T243 20Q289 20 324 59T375 157T391 282Q391 353 362 386T273 419Z" />
<glyph unicode="&#xf1;" glyph-name="ntilde" horiz-adv-x="549" d="M395 515Q373 515 319 544T250 574Q222 574 209 560T190 515H171Q189 627 265 627Q287 627 342 598T412 568Q440 568 453 582T471 627H490Q472 515 395 515ZM195 377Q255 451 354 451Q482 451
482 345Q482 328 479 308L445 106Q443 90 443 84Q443 55 456 39T494 23L490 0Q420 0 386 18T351 76Q351 82 353 96L390 315Q392 325 392 344Q392 416 315 416Q244 416 186 321L132 0H42L105 379Q96 380 82 381T59 383T43 384L47 407Q66 407 125 428T207 450L195
377Z" />
<glyph unicode="&#xf2;" glyph-name="ograve" horiz-adv-x="547" d="M298 677L345 515H319L192 677H298ZM129 176Q129 97 161 59T252 20Q322 20 365 95T409 273Q409 419 282 419Q214 419 172 345T129 176ZM234 -10Q136 -10 84 40T32 176Q32 296 103 373T304 450Q405
450 455 403T506 272Q506 150 435 70T234 -10Z" />
<glyph unicode="&#xf3;" glyph-name="oacute" horiz-adv-x="547" d="M407 677H513L332 515H306L407 677ZM129 176Q129 97 161 59T252 20Q322 20 365 95T409 273Q409 419 282 419Q214 419 172 345T129 176ZM234 -10Q136 -10 84 40T32 176Q32 296 103 373T304 450Q405
450 455 403T506 272Q506 150 435 70T234 -10Z" />
<glyph unicode="&#xf4;" glyph-name="ocircumflex" horiz-adv-x="547" d="M371 677L438 515H412L333 602L226 515H200L321 677H371ZM129 176Q129 97 161 59T252 20Q322 20 365 95T409 273Q409 419 282 419Q214 419 172 345T129 176ZM234 -10Q136 -10 84 40T32
176Q32 296 103 373T304 450Q405 450 455 403T506 272Q506 150 435 70T234 -10Z" />
<glyph unicode="&#xf5;" glyph-name="otilde" horiz-adv-x="547" d="M394 515Q372 515 318 544T249 574Q221 574 208 560T189 515H170Q188 627 264 627Q286 627 341 598T411 568Q439 568 452 582T470 627H489Q471 515 394 515ZM129 176Q129 97 161 59T252 20Q322
20 365 95T409 273Q409 419 282 419Q214 419 172 345T129 176ZM234 -10Q136 -10 84 40T32 176Q32 296 103 373T304 450Q405 450 455 403T506 272Q506 150 435 70T234 -10Z" />
<glyph unicode="&#xf6;" glyph-name="odieresis" horiz-adv-x="547" d="M369 556Q369 579 387 596T427 613Q445 613 457 601T469 572Q469 549 451 532T411 515Q393 515 381 527T369 556ZM185 556Q185 579 203 596T243 613Q261 613 273 601T285 572Q285 549 267
532T227 515Q209 515 197 527T185 556ZM129 176Q129 97 161 59T252 20Q322 20 365 95T409 273Q409 419 282 419Q214 419 172 345T129 176ZM234 -10Q136 -10 84 40T32 176Q32 296 103 373T304 450Q405 450 455 403T506 272Q506 150 435 70T234 -10Z" />
<glyph unicode="&#xf7;" glyph-name="divide" horiz-adv-x="481" d="M216 449Q216 475 236 496T283 517Q303 517 317 503T332 468Q332 443 311 421T264 399Q245 399 231 414T216 449ZM169 169Q169 195 189 216T236 237Q256 237 270 223T285 188Q285 163 264 141T217
119Q198 119 184 134T169 169ZM57 340H451L444 296H50L57 340Z" />
<glyph unicode="&#xf8;" glyph-name="oslash" horiz-adv-x="547" d="M116 -35L89 -15L113 19Q32 66 32 176Q32 296 103 373T304 450Q360 450 403 434L432 475L459 455L434 419Q506 375 506 272Q506 150 435 70T234 -10Q184 -10 144 4L116 -35ZM392 360L173 47Q203
20 252 20Q322 20 365 95T409 273Q409 326 392 360ZM372 389Q342 419 282 419Q214 419 172 345T129 176Q129 113 151 74L372 389Z" />
<glyph unicode="&#xf9;" glyph-name="ugrave" horiz-adv-x="551" d="M294 677L341 515H315L188 677H294ZM441 106Q439 90 439 84Q439 55 452 39T490 23L486 0Q363 0 349 59Q280 -10 212 -10Q131 -10 94 16T57 96Q57 112 60 132L105 399Q99 419 45 419L49 440H202L149
125Q146 110 146 96Q146 24 224 24Q292 24 348 87L407 440H497L441 106Z" />
<glyph unicode="&#xfa;" glyph-name="uacute" horiz-adv-x="551" d="M403 677H509L328 515H302L403 677ZM441 106Q439 90 439 84Q439 55 452 39T490 23L486 0Q363 0 349 59Q280 -10 212 -10Q131 -10 94 16T57 96Q57 112 60 132L105 399Q99 419 45 419L49 440H202L149
125Q146 110 146 96Q146 24 224 24Q292 24 348 87L407 440H497L441 106Z" />
<glyph unicode="&#xfb;" glyph-name="ucircumflex" horiz-adv-x="551" d="M367 677L434 515H408L329 602L222 515H196L317 677H367ZM441 106Q439 90 439 84Q439 55 452 39T490 23L486 0Q363 0 349 59Q280 -10 212 -10Q131 -10 94 16T57 96Q57 112 60 132L105 399Q99
419 45 419L49 440H202L149 125Q146 110 146 96Q146 24 224 24Q292 24 348 87L407 440H497L441 106Z" />
<glyph unicode="&#xfc;" glyph-name="udieresis" horiz-adv-x="551" d="M365 556Q365 579 383 596T423 613Q441 613 453 601T465 572Q465 549 447 532T407 515Q389 515 377 527T365 556ZM181 556Q181 579 199 596T239 613Q257 613 269 601T281 572Q281 549 263
532T223 515Q205 515 193 527T181 556ZM441 106Q439 90 439 84Q439 55 452 39T490 23L486 0Q363 0 349 59Q280 -10 212 -10Q131 -10 94 16T57 96Q57 112 60 132L105 399Q99 419 45 419L49 440H202L149 125Q146 110 146 96Q146 24 224 24Q292 24 348 87L407 440H497L441
106Z" />
<glyph unicode="&#xfd;" glyph-name="yacute" horiz-adv-x="445" d="M379 677H485L304 515H278L379 677ZM162 0L70 399Q64 419 10 419L14 440H156L231 122L393 408Q380 419 339 419L343 440H461L153 -102Q105 -184 34 -184Q20 -184 8 -175T-4 -153Q-4 -137 8 -123T35
-109Q43 -109 53 -117T70 -126Q91 -126 101 -108L162 0Z" />
<glyph unicode="&#xfe;" glyph-name="thorn" horiz-adv-x="523" d="M-69 -192L-66 -171Q-10 -171 1 -151L119 559Q59 564 57 564L61 587Q80 587 139 608T221 630L175 356Q247 450 353 450Q425 450 456 413T487 315Q487 153 382 71T114 -12L91 -151Q97 -171 150
-171L147 -192H-69ZM164 285L119 17Q237 19 313 92T390 311Q390 360 376 388T338 416Q282 416 238 378T164 285Z" />
<glyph unicode="&#xff;" glyph-name="ydieresis" horiz-adv-x="445" d="M341 556Q341 579 359 596T399 613Q417 613 429 601T441 572Q441 549 423 532T383 515Q365 515 353 527T341 556ZM157 556Q157 579 175 596T215 613Q233 613 245 601T257 572Q257 549 239
532T199 515Q181 515 169 527T157 556ZM162 0L70 399Q64 419 10 419L14 440H156L231 122L393 408Q380 419 339 419L343 440H461L153 -102Q105 -184 34 -184Q20 -184 8 -175T-4 -153Q-4 -137 8 -123T35 -109Q43 -109 53 -117T70 -126Q91 -126 101 -108L162 0Z" />
<glyph unicode="&#x2013;" glyph-name="endash" horiz-adv-x="522" d="M77 340H471L464 296H70L77 340Z" />
<glyph unicode="&#x2014;" glyph-name="emdash" horiz-adv-x="692" d="M77 340H641L634 296H70L77 340Z" />
<glyph unicode="&#x2018;" glyph-name="quoteleft" horiz-adv-x="223" d="M218 507Q218 478 199 467T164 455Q130 455 108 474T85 526Q85 558 102 584T146 627T192 651T231 665L227 637Q201 634 171 610T135 554Q132 535 133 532T141 529Q144 529 153 535T174
542Q218 542 218 507Z" />
<glyph unicode="&#x2019;" glyph-name="quoteright" horiz-adv-x="211" d="M96 613Q96 642 115 653T151 665Q185 665 207 646T229 594Q229 562 212 536T168 493T122 469T83 455L88 483Q114 486 144 510T180 566Q182 578 182 583T181 590T174 591Q171 591 162 585T141
578Q96 578 96 613Z" />
<glyph unicode="&#x201a;" glyph-name="quotesinglbase" horiz-adv-x="230" d="M19 25Q19 54 38 65T74 77Q108 77 130 58T152 6Q152 -26 135 -52T91 -95T45 -119T6 -133L11 -105Q37 -102 67 -78T103 -22Q106 -3 105 0T97 3Q94 3 85 -3T64 -10Q19 -10 19 25Z" />
<glyph unicode="&#x201c;" glyph-name="quotedblleft" horiz-adv-x="403" d="M398 507Q398 478 379 467T344 455Q310 455 288 474T265 526Q265 558 282 584T326 627T372 651T411 665L407 637Q381 634 351 610T315 554Q312 535 313 532T321 529Q324 529 333 535T354
542Q398 542 398 507ZM218 507Q218 478 199 467T164 455Q130 455 108 474T85 526Q85 558 102 584T146 627T192 651T231 665L227 637Q201 634 171 610T135 554Q132 535 133 532T141 529Q144 529 153 535T174 542Q218 542 218 507Z" />
<glyph unicode="&#x201d;" glyph-name="quotedblright" horiz-adv-x="391" d="M276 613Q276 642 295 653T331 665Q365 665 387 646T409 594Q409 562 392 536T348 493T302 469T263 455L268 483Q294 486 324 510T360 566Q362 578 362 583T361 590T354 591Q351 591
342 585T321 578Q276 578 276 613ZM96 613Q96 642 115 653T151 665Q185 665 207 646T229 594Q229 562 212 536T168 493T122 469T83 455L88 483Q114 486 144 510T180 566Q182 578 182 583T181 590T174 591Q171 591 162 585T141 578Q96 578 96 613Z" />
<glyph unicode="&#x201e;" glyph-name="quotedblbase" horiz-adv-x="412" d="M20 29Q20 58 39 69T75 81Q109 81 131 62T153 10Q153 -22 136 -48T92 -91T46 -115T7 -129L12 -101Q38 -98 68 -74T104 -18Q106 -6 106 -1T105 6T98 7Q95 7 86 1T65 -6Q20 -6 20 29ZM200
29Q200 58 219 69T255 81Q289 81 311 62T333 10Q333 -22 316 -48T272 -91T226 -115T187 -129L192 -101Q218 -98 248 -74T284 -18Q286 -6 286 -1T285 6T278 7Q275 7 266 1T245 -6Q200 -6 200 29Z" />
<glyph unicode="&#x2022;" glyph-name="bullet" horiz-adv-x="334" d="M192 418Q235 418 266 390T298 321Q298 270 255 228T155 186Q113 186 82 214T51 284Q51 336 93 377T192 418Z" />
<glyph unicode="&#x2039;" glyph-name="guilsinglleft" horiz-adv-x="279" d="M64 324L242 418L238 392L135 299L206 206L202 180L56 274Q44 282 47 299Q51 317 64 324Z" />
<glyph unicode="&#x203a;" glyph-name="guilsinglright" horiz-adv-x="279" d="M229 274L51 180L55 206L158 299L87 392L91 418L237 324Q249 316 246 299Q242 281 229 274Z" />
</font>
</defs>
</svg>
