<?xml version="1.0" standalone="no"?>
<!DOCTYPE svg PUBLIC "-//W3C//DTD SVG 1.1//EN" "http://www.w3.org/Graphics/SVG/1.1/DTD/svg11.dtd">
<svg xmlns="http://www.w3.org/2000/svg">
<defs >
<font id="Palanquin" horiz-adv-x="806" ><font-face
    font-family="Palanquin Medium"
    units-per-em="1000"
    panose-1="2 11 0 4 2 2 3 2 2 4"
    ascent="1320"
    descent="-491"
    alphabetic="0" />
<glyph unicode=" " glyph-name="space" horiz-adv-x="236" />
<glyph unicode="!" glyph-name="exclam" horiz-adv-x="237" d="M170 702L155 196Q136 204 118 213T82 230L65 702H170ZM118 120Q143 120 160 103T178 60Q178 35 161 18T118 0Q93 0 75 17T57 60Q57 85 75 102T118 120Z" />
<glyph unicode="&quot;" glyph-name="quotedbl" horiz-adv-x="314" d="M245 722Q270 722 288 702T306 650Q306 599 274 547T195 470L171 515Q196 534 212 553T234 601Q215 602 200 620T184 661Q184 683 202 702T245 722ZM79 722Q104 722 122 702T141 650Q141 599
109 547T29 470L6 515Q30 534 46 553T67 601Q49 602 34 620T18 661Q18 683 36 702T79 722Z" />
<glyph unicode="#" glyph-name="numbersign" horiz-adv-x="523" d="M466 509L438 389H493L501 316H421L392 194H493L501 121H375L346 -7L266 -2L294 121H166L136 -7L56 -2L84 121H30L21 194H101L129 316H30L21 389H147L176 511L257 509L228 389H356L384 511L466
509ZM212 316L183 194H310L339 316H212Z" />
<glyph unicode="$" glyph-name="dollar" horiz-adv-x="542" d="M363 804V681Q388 676 409 668T450 651Q443 632 434 613T418 575Q390 588 356 600T272 613Q215 613 179 589T143 522Q143 419 319 369T495 170Q495 113 461 69T363 3V-119L295 -113V-10Q285 -11 274
-12T250 -13H233V-119H166V-2Q132 5 102 16T59 37Q64 56 69 75T81 113Q109 99 156 85T249 70Q322 70 360 97T398 168Q398 267 223 316T47 520Q47 573 79 615T166 678V804L233 800V693Q243 694 252 695T270 696Q277 696 283 696T295 694V804H363Z" />
<glyph unicode="%" glyph-name="percent" horiz-adv-x="889" d="M641 706L338 -4L243 0L546 710L641 706ZM31 532Q31 610 79 656T192 702Q259 702 306 658T353 532Q353 454 305 409T192 363Q126 363 79 407T31 532ZM117 533Q117 482 139 459T192 435Q220 435 243
458T267 532Q267 582 245 605T192 629Q164 629 141 606T117 533ZM536 169Q536 247 584 292T697 338Q763 338 809 294T856 169Q856 91 808 46T697 0Q630 0 583 44T536 169ZM621 170Q621 119 643 95T697 71Q725 71 748 94T771 169Q771 218 749 242T697 266Q669 266
645 244T621 170Z" />
<glyph unicode="&amp;" glyph-name="ampersand" horiz-adv-x="683" d="M151 215Q151 140 201 106T312 72Q356 72 392 86T454 127L258 306L213 348Q184 326 168 292T151 215ZM458 575Q430 588 400 600T323 613Q276 613 250 584T223 518Q223 476 246 445T317 370L502
198Q518 232 527 273T540 362L622 330Q619 274 607 225T574 134L655 61L601 -8L522 65Q485 28 433 8T312 -12Q204 -11 128 45T52 213Q53 274 81 327T156 413Q142 434 134 458T126 512Q126 586 178 641T322 696Q372 696 414 682T491 651L458 575Z" />
<glyph unicode="&apos;" glyph-name="quotesingle" horiz-adv-x="148" d="M79 722Q104 722 122 702T141 650Q141 599 109 547T29 470L6 515Q30 534 46 553T67 601Q49 602 34 620T18 661Q18 683 36 702T79 722Z" />
<glyph unicode="(" glyph-name="parenleft" horiz-adv-x="262" d="M170 -38Q109 41 78 135T47 320Q47 408 77 501T170 678L246 651Q203 598 171 496T138 321Q138 246 170 143T246 -10L170 -38Z" />
<glyph unicode=")" glyph-name="parenright" horiz-adv-x="262" d="M92 678Q152 599 183 505T215 320Q215 232 184 139T92 -38L16 -11Q59 42 91 144T123 320Q123 394 91 497T16 650L92 678Z" />
<glyph unicode="*" glyph-name="asterisk" horiz-adv-x="354" d="M216 663L328 687L349 622L237 600L315 489L258 446L178 554L97 446L40 489L118 600Q105 603 62 611T6 622L27 687L138 663Q138 675 138 716T140 770H215L216 663Z" />
<glyph unicode="+" glyph-name="plus" horiz-adv-x="512" d="M495 236H303V4L214 8V236H26L18 311H214V534L303 531V311H485L495 236Z" />
<glyph unicode="," glyph-name="comma" horiz-adv-x="164" d="M86 120Q112 120 130 101T148 48Q148 -2 116 -54T36 -131L13 -86Q38 -67 54 -48T75 0Q57 1 42 19T26 60Q26 83 43 101T86 120Z" />
<glyph unicode="-" glyph-name="hyphen" horiz-adv-x="296" d="M280 235H25L16 311H271L280 235Z" />
<glyph unicode="." glyph-name="period" horiz-adv-x="147" d="M74 120Q99 120 116 103T133 60Q133 35 116 18T74 0Q48 0 31 17T13 60Q13 85 30 102T74 120Z" />
<glyph unicode="/" glyph-name="slash" horiz-adv-x="411" d="M405 706L101 -4L6 0L309 710L405 706Z" />
<glyph unicode="0" glyph-name="zero" horiz-adv-x="612" d="M57 286Q57 423 126 501T306 579Q416 579 485 504T554 288Q554 151 483 69T306 -13Q198 -13 128 66T57 286ZM149 289Q149 185 194 127T306 69Q371 69 417 126T463 284Q463 388 418 442T306 497Q240
497 195 443T149 289Z" />
<glyph unicode="1" glyph-name="one" horiz-adv-x="412" d="M360 0H73L64 70H172V453L108 412L63 478L204 566H268V70H351L360 0Z" />
<glyph unicode="2" glyph-name="two" horiz-adv-x="498" d="M228 579Q339 579 383 523T428 405Q428 347 392 298T283 187L154 74H438L451 0H31V68L231 248Q291 302 313 335T337 405Q337 446 309 473T226 501Q183 501 139 476T93 450L51 517Q65 528 112 553T228 579Z" />
<glyph unicode="3" glyph-name="three" horiz-adv-x="523" d="M244 579Q347 579 398 528T449 411Q449 361 419 323T351 270Q394 260 427 218T461 113Q461 33 399 -21T230 -76Q174 -76 120 -58T26 -19L75 47Q112 25 147 14T232 2Q284 2 326 31T369 112Q369 166
328 199T195 232H165L151 305H201Q273 305 315 333T357 409Q357 446 326 473T241 501Q192 501 152 484T87 450L41 514Q84 542 134 560T244 579Z" />
<glyph unicode="4" glyph-name="four" horiz-adv-x="568" d="M526 66H432V-69H336V66H44L31 145L363 571H432V145H537L526 66ZM134 145H336V409L134 145Z" />
<glyph unicode="5" glyph-name="five" horiz-adv-x="540" d="M85 218L101 566H451L440 487H186L178 317Q200 330 224 336T272 343Q383 343 435 282T488 138Q488 48 426 -14T249 -76Q194 -76 141 -59T47 -19L95 48Q132 26 167 15T253 4Q316 4 356 40T396 138Q396
199 363 232T277 266Q239 266 212 249T174 218H85Z" />
<glyph unicode="6" glyph-name="six" horiz-adv-x="549" d="M507 196Q507 115 451 51T301 -13Q195 -13 126 56T57 261Q57 371 138 489T350 634L391 573Q307 554 245 488T161 344Q188 365 224 380T299 396Q394 396 450 336T507 196ZM418 191Q418 242 386 283T296
325Q244 325 205 298T149 236Q153 160 189 114T297 67Q352 67 385 104T418 191Z" />
<glyph unicode="7" glyph-name="seven" horiz-adv-x="494" d="M55 -42L349 487H59L47 566H438L468 525L145 -69L55 -42Z" />
<glyph unicode="8" glyph-name="eight" horiz-adv-x="560" d="M507 177Q507 100 448 44T280 -13Q170 -13 111 43T52 177Q52 229 89 277T176 339Q134 357 107 392T79 474Q79 541 131 592T280 643Q376 643 428 592T481 474Q481 428 452 393T383 339Q431 326 469
280T507 177ZM168 473Q168 436 197 408T280 372Q334 380 362 408T391 473Q391 510 362 537T278 565Q226 565 197 537T168 473ZM142 175Q142 124 183 95T280 65Q334 65 375 94T417 175Q417 221 383 256T280 302Q211 292 177 257T142 175Z" />
<glyph unicode="9" glyph-name="nine" horiz-adv-x="549" d="M41 369Q41 450 99 514T250 579Q356 579 423 510T491 304Q491 194 410 76T199 -69L157 -7Q241 12 302 77T386 221Q360 200 325 185T252 169Q156 169 99 229T41 369ZM131 375Q131 324 163 283T252 241Q305
241 344 268T400 329Q394 405 358 452T252 499Q196 499 164 461T131 375Z" />
<glyph unicode=":" glyph-name="colon" horiz-adv-x="147" d="M73 462Q98 462 115 444T133 401Q133 376 116 359T73 341Q48 341 31 358T13 401Q13 426 30 444T73 462ZM73 139Q98 139 115 122T133 78Q133 53 116 36T73 18Q48 18 31 35T13 78Q13 104 30 121T73 139Z" />
<glyph unicode=";" glyph-name="semicolon" horiz-adv-x="165" d="M89 462Q114 462 131 444T149 401Q149 376 132 359T89 341Q63 341 45 358T27 401Q27 426 45 444T89 462ZM86 139Q112 139 130 119T148 66Q148 16 116 -36T36 -113L13 -68Q38 -49 54 -30T75 18Q57
19 42 37T26 78Q26 101 43 120T86 139Z" />
<glyph unicode="&lt;" glyph-name="less" horiz-adv-x="329" d="M275 19L13 218V271L275 470L298 394L106 245L298 95L275 19Z" />
<glyph unicode="=" glyph-name="equal" horiz-adv-x="489" d="M467 316H30L21 389H459L467 316ZM467 121H30L21 194H459L467 121Z" />
<glyph unicode="&gt;" glyph-name="greater" horiz-adv-x="329" d="M316 218L54 19L31 95L223 245Q175 282 127 319T31 394L54 470L316 271V218Z" />
<glyph unicode="?" glyph-name="question" horiz-adv-x="405" d="M196 701Q295 701 342 653T390 530Q390 474 342 418T217 324L205 159L136 187L128 373Q202 397 250 438T298 528Q298 575 270 597T193 620Q150 620 109 605T23 558L11 643Q54 670 96 685T196 701ZM166
120Q191 120 209 103T227 60Q227 35 209 18T166 0Q141 0 124 17T106 60Q106 85 123 102T166 120Z" />
<glyph unicode="@" glyph-name="at" horiz-adv-x="804" d="M541 421L569 386Q552 237 549 210T546 182Q546 157 559 147T586 137Q623 137 649 180T675 299Q675 397 611 459T441 522Q324 522 232 441T140 219Q140 106 213 42T388 -23Q427 -23 471 -15T553 12L577
-60Q529 -85 478 -93T377 -102Q254 -102 153 -15T52 219Q52 373 157 485T443 598Q580 598 668 515T756 305Q756 184 707 123T579 62Q556 62 535 69T499 92Q481 81 457 72T408 63Q321 63 280 106T238 217Q238 310 307 365T465 421H541ZM407 137Q428 137 444 147T467
174Q466 177 466 180T466 187Q466 222 473 261T487 352H471Q414 352 370 318T325 217Q325 188 343 163T407 137Z" />
<glyph unicode="A" glyph-name="A" horiz-adv-x="617" d="M304 551L195 259H416L304 551ZM349 680L611 14L516 0L445 182H168L100 0H6L262 680H349Z" />
<glyph unicode="B" glyph-name="B" horiz-adv-x="627" d="M298 680Q401 680 466 640T532 496Q532 452 511 420T455 365Q509 344 543 302T577 194Q577 93 507 47T329 0H94V680H298ZM290 599H190V390H283Q349 391 391 414T433 495Q433 558 394 578T290 599ZM335
312H190V79H325Q391 79 435 105T479 192Q479 254 440 283T335 312Z" />
<glyph unicode="C" glyph-name="C" horiz-adv-x="596" d="M511 584Q474 597 445 604T366 612Q273 612 219 536T165 337Q165 227 211 148T358 68Q407 68 443 76T507 98L544 26Q510 9 458 -2T362 -14Q205 -14 135 89T65 336Q65 489 142 591T368 694Q398 694 451
685T541 653L511 584Z" />
<glyph unicode="D" glyph-name="D" horiz-adv-x="698" d="M94 0V680H329Q487 680 559 584T632 344Q632 195 553 98T325 0H94ZM333 598H190V80H325Q419 80 477 147T535 343Q535 456 486 527T333 598Z" />
<glyph unicode="E" glyph-name="E" horiz-adv-x="552" d="M94 0V680H477Q481 661 483 643T490 606H190V383H381Q384 364 387 346T394 309H190V75H513L526 0H94Z" />
<glyph unicode="F" glyph-name="F" horiz-adv-x="491" d="M383 305H190V0H94V680H461L475 606H190V378H371L383 305Z" />
<glyph unicode="G" glyph-name="G" horiz-adv-x="656" d="M354 357H583V67Q583 59 583 51T582 34L583 33Q549 14 494 0T385 -14Q228 -14 147 87T65 336Q65 494 155 594T396 694Q427 694 481 685T572 653L542 584Q505 597 476 604T398 612Q299 612 232 542T165
337Q165 213 223 141T383 68Q417 68 444 73T494 85V284H346L354 357Z" />
<glyph unicode="H" glyph-name="H" horiz-adv-x="682" d="M492 0V303H190V0H94V680L190 685V380H492V680H588V0H492Z" />
<glyph unicode="I" glyph-name="I" horiz-adv-x="284" d="M94 0V680H190V0H94Z" />
<glyph unicode="J" glyph-name="J" horiz-adv-x="291" d="M100 153V680H196V135Q196 70 167 37T56 -22Q47 -5 38 12T18 47Q69 66 84 84T100 153Z" />
<glyph unicode="K" glyph-name="K" horiz-adv-x="618" d="M613 0H496Q436 78 375 158T254 317Q237 296 219 276T184 235V0H88V680H184V365L464 695Q481 681 498 667T532 639L316 389L613 0Z" />
<glyph unicode="L" glyph-name="L" horiz-adv-x="525" d="M509 0H94V680H190V75H497L509 0Z" />
<glyph unicode="M" glyph-name="M" horiz-adv-x="773" d="M378 218L190 481V0H94V680H153L392 344L619 680H679V0H582V472L413 223L378 218Z" />
<glyph unicode="N" glyph-name="N" horiz-adv-x="722" d="M94 0V680H179L484 252L532 177V680H629V0H543L228 447L190 507V0H94Z" />
<glyph unicode="O" glyph-name="O" horiz-adv-x="738" d="M65 337Q65 490 143 591T370 696Q528 696 601 592T674 344Q674 195 595 92T367 -14Q210 -14 138 90T65 337ZM165 338Q165 224 213 146T366 68Q461 68 516 141T572 344Q572 457 524 535T372 613Q279 613
222 537T165 338Z" />
<glyph unicode="P" glyph-name="P" horiz-adv-x="592" d="M94 0V680H289Q397 680 471 631T546 468Q545 355 466 303T279 250H190V0H94ZM288 599H190V330H283Q352 330 397 361T446 464Q446 541 404 570T288 599Z" />
<glyph unicode="Q" glyph-name="Q" horiz-adv-x="738" d="M604 -25L536 37Q502 13 460 0T367 -14Q210 -14 138 90T65 337Q65 490 143 591T370 696Q528 696 601 592T674 344Q674 269 653 203T593 89L660 24L604 -25ZM165 338Q165 224 213 146T366 68Q395 68 421
76T470 99L377 187L443 237L526 156Q548 190 560 238T572 344Q572 457 524 535T372 613Q279 613 222 537T165 338Z" />
<glyph unicode="R" glyph-name="R" horiz-adv-x="630" d="M288 599H190V350H283Q350 350 397 377T446 474Q446 546 403 572T288 599ZM494 0L342 275Q326 274 311 273T279 272H190V0H94V680H289Q397 680 471 633T546 478Q545 411 512 367T427 300L598 0H494Z" />
<glyph unicode="S" glyph-name="S" horiz-adv-x="542" d="M81 113Q109 99 156 85T249 70Q322 70 360 97T398 168Q398 269 223 317T47 520Q47 594 106 645T270 696Q321 696 368 682T450 651Q443 632 434 613T418 575Q392 588 359 599T277 611Q220 611 182 589T143
522Q143 419 319 369T495 170Q495 90 432 39T250 -13Q207 -13 143 3T59 37Q64 56 69 75T81 113Z" />
<glyph unicode="T" glyph-name="T" horiz-adv-x="548" d="M540 604H316V0H219V604H8V680H527Q530 661 533 642T540 604Z" />
<glyph unicode="U" glyph-name="U" horiz-adv-x="699" d="M182 252Q182 166 228 117T349 68Q427 68 471 118T515 252V680H612V243Q612 134 542 62T349 -11Q227 -11 157 61T86 243V680H182V252Z" />
<glyph unicode="V" glyph-name="V" horiz-adv-x="617" d="M267 0L6 665L100 680L312 128L516 680H611L355 0H267Z" />
<glyph unicode="W" glyph-name="W" horiz-adv-x="991" d="M671 0L493 533L324 0H233L6 665L100 680L279 135L451 680H541L720 135L891 680H987L762 0H671Z" />
<glyph unicode="X" glyph-name="X" horiz-adv-x="648" d="M13 4L264 344L28 665L123 680L326 402L534 680H635L375 335L622 0H519L314 276L104 -10L13 4Z" />
<glyph unicode="Y" glyph-name="Y" horiz-adv-x="576" d="M237 0V270L6 666L105 680L285 366L469 680H571L334 271L333 0H237Z" />
<glyph unicode="Z" glyph-name="Z" horiz-adv-x="572" d="M541 0H31L20 75Q123 207 227 340T435 604H61L48 680H534Q537 661 539 642T544 604L125 75H531Q533 56 535 38T541 0Z" />
<glyph unicode="[" glyph-name="bracketleft" horiz-adv-x="289" d="M76 696H284L270 622H169V-15H270L284 -88H76V696Z" />
<glyph unicode="\" glyph-name="backslash" horiz-adv-x="411" d="M309 -4L6 706L102 710L405 0L309 -4Z" />
<glyph unicode="]" glyph-name="bracketright" horiz-adv-x="289" d="M213 -88H6Q9 -69 12 -52T19 -15H119V622H19Q15 641 12 659T6 696H213V-88Z" />
<glyph unicode="^" glyph-name="asciicircum" horiz-adv-x="438" d="M110 143H13L185 390H254L425 143H328L219 301L110 143Z" />
<glyph unicode="_" glyph-name="underscore" horiz-adv-x="413" d="M396 0H25L16 75H387L396 0Z" />
<glyph unicode="`" glyph-name="grave" horiz-adv-x="193" d="M16 747H118L179 589H106L16 747Z" />
<glyph unicode="a" glyph-name="a" horiz-adv-x="508" d="M136 140Q136 112 156 88T217 64Q254 64 286 82T344 128V226H226Q182 226 159 200T136 140ZM79 455Q107 474 160 486T244 498Q328 498 384 451T440 329V0H386Q379 11 373 23T361 46Q336 24 297 6T219 -12Q133
-12 92 31T50 140Q50 213 99 251T228 290H343Q343 340 323 376T246 412Q203 412 168 402T106 379L79 455Z" />
<glyph unicode="b" glyph-name="b" horiz-adv-x="561" d="M76 0V695L172 706V457Q201 476 235 488T299 501Q406 501 460 428T514 244Q514 134 460 61T299 -12Q265 -12 225 2T153 42L130 0H76ZM172 112Q197 92 226 81T280 69Q355 69 385 121T416 243Q416 316 387
367T280 419Q255 419 226 408T172 375V112Z" />
<glyph unicode="c" glyph-name="c" horiz-adv-x="474" d="M281 416Q213 416 180 367T145 244Q145 168 177 119T278 69Q322 69 347 78T404 102L433 33Q401 11 355 -1T278 -13Q166 -13 107 58T47 243Q48 356 108 427T282 498Q312 498 357 486T435 451L407 383Q376
396 350 406T281 416Z" />
<glyph unicode="d" glyph-name="d" horiz-adv-x="567" d="M281 419Q206 419 176 366T145 244Q145 171 174 120T281 69Q308 69 337 81T394 116V372Q367 394 338 406T281 419ZM491 705V0H436L410 45Q379 18 338 3T261 -13Q155 -13 101 60T47 243Q47 354 102 427T264
501Q294 501 329 489T394 456V695L491 705Z" />
<glyph unicode="e" glyph-name="e" horiz-adv-x="533" d="M491 221H147Q152 154 189 111T300 68Q343 68 372 77T432 101L462 31Q430 9 381 -1T300 -12Q178 -12 113 58T47 243Q47 356 108 427T279 498Q397 498 444 415T491 221ZM398 286Q389 346 360 381T276 416Q220
416 188 381T149 286H398Z" />
<glyph unicode="f" glyph-name="f" horiz-adv-x="330" d="M87 542Q87 615 128 658T241 702Q263 702 286 695T322 680L298 606Q288 610 275 613T250 617Q214 617 199 594T183 533V475H273L304 401H183V0H87V401H14L13 475H87V542Z" />
<glyph unicode="g" glyph-name="g" horiz-adv-x="567" d="M394 372Q367 394 338 406T281 419Q206 419 176 366T145 244Q145 171 174 120T281 69Q308 69 337 81T394 116V372ZM491 -26Q491 -106 436 -159T269 -213Q238 -213 185 -201T97 -165Q104 -148 111 -131T126
-96Q161 -112 191 -123T266 -135Q326 -135 360 -107T394 -25V33Q364 12 328 0T261 -12Q155 -12 101 60T47 243Q47 354 102 427T264 501Q299 501 340 485T413 442L436 485H491V-26Z" />
<glyph unicode="h" glyph-name="h" horiz-adv-x="568" d="M172 432Q203 462 247 481T331 501Q420 501 460 450T501 320V0H405V311Q405 360 382 389T310 419Q280 419 241 400T172 350V0H76V695L172 706V432Z" />
<glyph unicode="i" glyph-name="i" horiz-adv-x="244" d="M121 572Q96 572 79 589T62 632Q61 657 78 674T121 692Q146 692 164 675T182 632Q182 607 164 590T121 572ZM73 0V485H170V0H73Z" />
<glyph unicode="j" glyph-name="j" horiz-adv-x="255" d="M130 572Q105 572 88 589T70 632Q70 657 87 674T130 692Q155 692 173 675T191 632Q191 607 173 590T130 572ZM82 -13V485H179V2Q179 -85 149 -130T24 -206L-13 -135Q39 -116 60 -90T82 -13Z" />
<glyph unicode="k" glyph-name="k" horiz-adv-x="504" d="M76 0V695L172 706V287L388 498L444 434L300 296L493 0H381L234 234L172 174V0H76Z" />
<glyph unicode="l" glyph-name="l" horiz-adv-x="248" d="M76 0V695L172 706V0H76Z" />
<glyph unicode="m" glyph-name="m" horiz-adv-x="868" d="M460 422Q491 456 539 478T631 501Q720 501 760 450T801 320V0H704V311Q704 360 681 389T610 419Q579 419 544 402T480 357Q481 347 481 339T482 320V0H385V311Q385 360 362 389T293 419Q263 419 230 404T169
361V0H73V485H127L153 433Q185 463 229 482T313 501Q368 501 404 480T460 422Z" />
<glyph unicode="n" glyph-name="n" horiz-adv-x="566" d="M157 421Q188 455 237 478T328 501Q417 501 457 450T498 320V0H402V311Q402 360 379 389T308 419Q278 419 238 400T169 350V0H73V485H127L157 421Z" />
<glyph unicode="o" glyph-name="o" horiz-adv-x="559" d="M271 -13Q161 -12 104 59T47 244Q48 356 109 426T280 498Q394 498 452 426T511 239Q511 126 447 57T271 -13ZM414 239Q414 317 383 366T283 416Q214 416 180 370T145 245Q145 164 174 117T273 69Q341 69
377 114T414 239Z" />
<glyph unicode="p" glyph-name="p" horiz-adv-x="561" d="M172 112Q197 92 226 81T280 69Q355 69 385 121T416 243Q416 316 387 367T280 419Q255 419 226 408T172 375V112ZM76 -219V485H130L151 444Q183 469 224 485T299 501Q406 501 460 428T514 244Q514 134
460 61T299 -12Q269 -12 235 -1T172 31V-208L76 -219Z" />
<glyph unicode="q" glyph-name="q" horiz-adv-x="567" d="M491 485V-209L394 -219V33Q364 12 328 0T261 -13Q155 -13 101 60T47 243Q47 354 102 427T264 501Q299 501 340 485T413 442L436 485H491ZM281 419Q206 419 176 366T145 244Q145 171 174 120T281 69Q308
69 337 81T394 116V372Q367 394 338 406T281 419Z" />
<glyph unicode="r" glyph-name="r" horiz-adv-x="339" d="M73 0V485H127L158 416Q186 440 228 462T310 485L331 408Q291 408 248 387T169 331V0H73Z" />
<glyph unicode="s" glyph-name="s" horiz-adv-x="441" d="M351 383Q323 396 293 406T223 416Q185 416 163 401T140 359Q141 337 166 321T236 289Q296 267 348 230T400 132Q400 64 350 26T203 -13Q172 -13 123 -2T43 31L73 102Q104 87 137 78T203 69Q251 69 277
84T304 127Q304 155 276 175T200 211Q143 230 92 264T41 357Q41 423 90 460T225 498Q256 498 303 486T381 452L351 383Z" />
<glyph unicode="t" glyph-name="t" horiz-adv-x="340" d="M319 4Q306 -3 283 -10T237 -17Q166 -17 124 22T82 135V406H14L13 479H82V600L178 622V479H266L296 406H178V150Q178 113 194 90T247 66Q259 66 271 69T294 77L319 4Z" />
<glyph unicode="u" glyph-name="u" horiz-adv-x="553" d="M397 51Q365 21 321 3T237 -16Q148 -16 108 35T67 165V485H164V172Q164 125 187 96T257 66Q284 66 319 80T384 120V485H480V0H425L397 51Z" />
<glyph unicode="v" glyph-name="v" horiz-adv-x="484" d="M199 0L13 471L111 485L245 135L373 485H472L288 0H199Z" />
<glyph unicode="w" glyph-name="w" horiz-adv-x="754" d="M492 0L375 345L264 0H176L13 471L111 485L221 143L326 485H427L537 143L642 485H741L580 0H492Z" />
<glyph unicode="x" glyph-name="x" horiz-adv-x="512" d="M11 0L194 245L26 470L125 485L259 304L396 485H501L314 230L486 0H380L249 172L118 0H11Z" />
<glyph unicode="y" glyph-name="y" horiz-adv-x="484" d="M168 -61L196 13L13 471L110 485L245 137L373 485H472L309 58L257 -88Q238 -138 192 -173T89 -221L57 -147Q93 -131 124 -113T168 -61Z" />
<glyph unicode="z" glyph-name="z" horiz-adv-x="460" d="M425 432L156 76H417L427 0H41L29 50L295 407H70L49 485H420L425 432Z" />
<glyph unicode="{" glyph-name="braceleft" horiz-adv-x="281" d="M177 547Q177 524 194 484T212 413Q212 374 201 349T163 310Q187 294 199 267T212 204Q212 176 195 135T177 70Q177 56 190 43T231 30H261L270 -42H243Q166 -42 131 -13T95 74Q95 103 112 145T130
214Q130 240 111 258T70 276H31V339H70Q94 339 109 359T124 409Q124 443 111 482T97 553Q97 606 135 632T243 659H270L261 586H231Q201 586 189 573T177 547Z" />
<glyph unicode="|" glyph-name="bar" horiz-adv-x="269" d="M182 704V-7L87 0V711L182 704Z" />
<glyph unicode="}" glyph-name="braceright" horiz-adv-x="281" d="M103 71Q103 98 85 135T67 204Q67 242 79 267T118 307Q93 323 80 350T67 413Q67 438 85 478T103 546Q103 559 91 572T49 586H19L11 659H37Q112 659 149 630T186 543Q186 514 168 473T150 402Q150
379 168 360T210 340H249V278H210Q188 278 171 261T154 217Q154 210 155 202T158 185V186Q162 157 172 126T183 68Q183 13 146 -14T37 -42H11L19 30H49Q76 30 89 43T103 71Z" />
<glyph unicode="~" glyph-name="asciitilde" horiz-adv-x="409" d="M390 318Q390 246 358 217T280 188Q235 188 200 207T136 227Q124 227 113 220T100 188H19Q19 259 51 288T129 317Q178 317 210 297T271 277Q281 277 294 285T308 318H390Z" />
<glyph unicode="&#xa0;" glyph-name="uni00A0" horiz-adv-x="236" />
<glyph unicode="&#xa1;" glyph-name="exclamdown" horiz-adv-x="237" d="M118 580Q93 580 75 598T57 641Q57 666 75 684T118 702Q143 702 160 684T178 641Q178 616 161 598T118 580ZM65 0L81 505L155 471L170 0H65Z" />
<glyph unicode="&#xa2;" glyph-name="cent" horiz-adv-x="474" d="M327 608V491Q355 487 384 477T435 451L407 383Q376 396 350 406T281 416Q213 416 180 367T145 244Q145 168 177 119T278 69Q322 69 347 78T404 102L433 33Q412 17 384 7T328 -7V-113L240 -106V-10Q146
2 97 70T47 243Q48 344 97 412T239 494V608H327Z" />
<glyph unicode="&#xa3;" glyph-name="sterling" horiz-adv-x="475" d="M223 515V383H350L382 310H223V212Q223 172 218 135T195 75H447Q451 56 454 38T460 0H63L60 75H64Q98 76 112 99T126 160V310H53Q52 328 52 346T52 383H126V507Q126 588 164 636T280 684Q302
684 325 677T362 661Q355 643 349 625T337 589Q327 593 314 596T290 600Q253 600 238 576T223 515Z" />
<glyph unicode="&#xa4;" glyph-name="currency" horiz-adv-x="675" d="M485 35Q454 12 416 0T334 -13Q292 -12 255 0T188 35L83 -72L26 -4L126 99Q108 129 98 165T87 243Q87 283 98 319T128 383L26 487L83 556L190 448Q221 470 259 483T340 498Q383 497 419 485T486
450L591 556L648 487L549 385Q568 356 578 319T590 241Q589 200 578 164T548 99L648 -4L591 -72L485 35ZM491 240Q491 312 449 360T340 408Q275 408 231 361T186 244Q186 172 227 124T335 75Q400 75 445 122T491 240Z" />
<glyph unicode="&#xa5;" glyph-name="yen" horiz-adv-x="576" d="M237 0V72H70L61 144H237V238H70L61 311H214L6 666L105 680L285 366L469 680H571Q517 588 464 496T357 311H499L508 238H334V144H499L508 72H333V0H237Z" />
<glyph unicode="&#xa6;" glyph-name="brokenbar" horiz-adv-x="269" d="M182 704V406L87 413V711L182 704ZM182 288V-7L87 0V294L182 288Z" />
<glyph unicode="&#xa7;" glyph-name="section" horiz-adv-x="606" d="M426 195Q443 207 452 224T462 262Q462 334 355 373T177 471Q161 460 152 443T143 406Q143 331 247 293T426 195ZM81 7Q109 -6 156 -21T249 -36Q322 -36 360 -9T398 63Q398 161 223 205T47
403Q47 446 67 482T124 541Q118 556 115 572T111 606Q111 680 171 730T335 780Q384 780 431 766T513 736L481 660Q452 673 418 685T336 698Q278 698 243 674T207 607Q207 504 382 459T558 265Q558 221 538 185T480 124Q487 110 491 95T495 61Q495 -17 431 -68T250
-119Q207 -119 143 -103T59 -67Q64 -48 69 -30T81 7Z" />
<glyph unicode="&#xa8;" glyph-name="dieresis" horiz-adv-x="314" d="M70 718Q93 718 108 702T124 664Q124 642 109 626T70 610Q48 610 32 626T16 664Q16 686 32 702T70 718ZM244 718Q267 718 282 702T298 664Q298 642 283 626T244 610Q222 610 206 626T190 664Q190
686 206 702T244 718Z" />
<glyph unicode="&#xa9;" glyph-name="copyright" horiz-adv-x="851" d="M799 336Q799 182 698 75T425 -33Q253 -33 153 74T52 336Q52 490 152 598T425 706Q597 706 698 598T799 336ZM123 337Q123 206 204 118T425 29Q566 29 647 117T728 337Q728 468 647 556T425
645Q285 645 204 557T123 337ZM444 490Q381 490 349 448T317 340Q317 266 347 226T442 185Q483 185 508 194T561 218L589 148Q558 126 514 115T441 104Q334 104 277 169T219 339Q219 443 280 507T444 572Q473 572 516 562T591 529L564 458Q535 472 511 481T444
490Z" />
<glyph unicode="&#xaa;" glyph-name="ordfeminine" horiz-adv-x="342" d="M107 469Q107 454 117 443T149 431Q171 431 190 441T225 468V508H165Q139 508 123 498T107 469ZM51 673Q69 686 104 694T160 702Q221 702 261 666T301 581V371H255L238 402Q222 388 198
376T147 363Q93 363 62 392T31 466Q31 514 65 540T153 567H223Q223 591 209 611T161 632Q133 632 110 625T68 611L51 673Z" />
<glyph unicode="&#xab;" glyph-name="guillemotleft" horiz-adv-x="370" d="M186 222V268Q224 302 261 337T337 407L358 343L259 245L358 147L337 83Q299 117 262 152T186 222ZM26 268L176 407Q181 391 186 375T198 343L99 245L198 147Q192 131 187 115T176 83L26
222V268Z" />
<glyph unicode="&#xac;" glyph-name="logicalnot" horiz-adv-x="511" d="M490 356V112L406 117V330H24L16 406H482L490 356Z" />
<glyph unicode="&#xad;" glyph-name="softhyphen" horiz-adv-x="131" />
<glyph unicode="&#xae;" glyph-name="registered" horiz-adv-x="741" d="M700 487Q700 351 612 257T371 162Q219 162 130 256T41 487Q41 624 130 719T371 814Q523 814 611 719T700 487ZM107 488Q107 374 177 298T371 221Q493 222 563 298T634 488Q634 604 564
679T371 755Q247 755 177 680T107 488ZM351 622H317V511H349Q386 511 412 521T438 566Q438 605 414 613T351 622ZM536 304H456Q437 341 418 379T380 455Q373 455 366 455T352 454H317V304H246V680H370Q430 680 470 654T511 569Q511 531 492 507T447 470Q469 428
491 387T536 304Z" />
<glyph unicode="&#xaf;" glyph-name="overscore" horiz-adv-x="282" d="M16 702H267V626H16V702Z" />
<glyph unicode="&#xb0;" glyph-name="degree" horiz-adv-x="248" d="M124 713Q170 713 203 682T237 604Q237 558 204 528T124 497Q78 497 45 527T11 604Q11 650 44 681T124 713ZM174 603Q174 624 160 638T124 653Q103 653 89 639T74 604Q74 584 88 569T124 553Q145
553 159 568T174 603Z" />
<glyph unicode="&#xb1;" glyph-name="plusminus" horiz-adv-x="463" d="M441 300H274V124L190 129V300H30L21 368H190V534L274 531V368H433L441 300ZM441 0H30L22 69H435L441 0Z" />
<glyph unicode="&#xb2;" glyph-name="twosuperior" horiz-adv-x="395" d="M179 771Q263 771 299 729T335 641Q335 598 309 560T228 475L142 403H338L348 336H31V399L177 523Q216 557 231 584T247 641Q247 663 230 681T175 700Q142 700 112 682T80 661L47 725Q57
733 92 752T179 771Z" />
<glyph unicode="&#xb3;" glyph-name="threesuperior" horiz-adv-x="416" d="M190 771Q268 771 306 734T345 645Q345 607 322 578T271 539Q303 532 328 500T353 421Q353 361 306 320T179 278Q137 278 97 292T26 322L63 382Q91 366 115 357T174 348Q213 348 239
367T266 420Q266 461 240 482T153 504H131L121 571H158Q212 571 234 592T257 644Q257 666 239 683T181 700Q144 700 118 688T72 662L38 722Q71 743 107 757T190 771Z" />
<glyph unicode="&#xb4;" glyph-name="acute" horiz-adv-x="193" d="M76 747H179L88 589H16L76 747Z" />
<glyph unicode="&#xb5;" glyph-name="mu" horiz-adv-x="560" d="M406 51Q373 21 329 3T245 -16Q223 -16 205 -12T172 -1V-209L76 -219V485H172V172Q172 125 195 96T265 66Q293 66 327 80T391 120V485H487V0H433L406 51Z" />
<glyph unicode="&#xb6;" glyph-name="paragraph" horiz-adv-x="880" d="M345 0V250H314Q207 250 127 302T47 468Q47 582 121 631T303 680H848V604H752V0H655V604H441V0H345Z" />
<glyph unicode="&#xb7;" glyph-name="middot" horiz-adv-x="147" d="M74 322Q99 322 116 305T133 262Q133 237 116 219T74 201Q48 201 31 219T13 262Q13 287 30 304T74 322Z" />
<glyph unicode="&#xb8;" glyph-name="cedilla" horiz-adv-x="235" d="M93 13H166L144 -42Q176 -50 197 -74T219 -125Q219 -174 183 -197T100 -221Q81 -221 56 -215T16 -198L38 -139Q49 -144 67 -150T100 -156Q116 -156 131 -149T146 -127Q146 -109 121 -96T57 -78L93 13Z" />
<glyph unicode="&#xb9;" glyph-name="onesuperior" horiz-adv-x="355" d="M303 336H71L63 402H144V666Q133 659 121 652T97 637L63 697Q91 713 118 730T174 764H231V402H295Q296 386 298 369T303 336Z" />
<glyph unicode="&#xba;" glyph-name="ordmasculine" horiz-adv-x="386" d="M190 363Q117 363 74 408T31 532Q31 610 76 656T192 702Q267 702 311 656T355 531Q355 454 309 409T190 363ZM269 531Q269 582 248 607T193 632Q164 632 140 609T116 532Q116 481 137
457T191 432Q223 432 246 455T269 531Z" />
<glyph unicode="&#xbb;" glyph-name="guillemotright" horiz-adv-x="370" d="M33 407L182 268V222L33 83L10 147L109 245L10 343L33 407ZM193 407L343 268V222L193 83L171 147L270 245L171 343L193 407Z" />
<glyph unicode="&#xbc;" glyph-name="onequarter" horiz-adv-x="832" d="M303 336H71L63 402H144V666Q133 659 121 652T97 637L63 697Q91 713 118 730T174 764H231V402H295Q296 386 298 369T303 336ZM579 498L291 -4L193 0L481 501L579 498ZM716 -164H631V-78H415L411
-41Q410 -33 409 -25T407 -8Q410 -4 413 0T421 9Q479 87 539 165T657 321H716V-8H800L793 -78H716V-164ZM496 -8H631V171L496 -8Z" />
<glyph unicode="&#xbd;" glyph-name="onehalf" horiz-adv-x="871" d="M303 336H71L63 402H144V666Q133 659 121 652T97 637L63 697Q91 713 118 730T174 764H231V402H295Q296 386 298 369T303 336ZM476 501L574 498Q502 373 430 247T285 -4L188 0L476 501ZM655
325Q738 325 774 283T810 195Q810 151 784 114T704 30L618 -43H814Q816 -59 818 -76T824 -110H507V-47L653 78Q691 111 707 138T723 195Q723 214 707 234T651 255Q618 255 588 236T556 216L523 280Q534 287 569 306T655 325Z" />
<glyph unicode="&#xbe;" glyph-name="threequarters" horiz-adv-x="867" d="M615 498L326 -4L228 0L516 501L615 498ZM190 771Q268 771 306 734T345 645Q345 607 322 578T271 539Q303 532 328 500T353 421Q353 361 306 320T179 278Q137 278 97 292T26 322Q35 337
44 352T63 382Q91 366 115 357T174 348Q213 348 239 367T266 420Q266 461 240 482T153 504H131L121 571H158Q171 571 181 573T199 579Q233 584 245 603T257 644Q257 663 240 681T181 700Q144 700 118 688T72 662L38 722Q71 743 107 757T190 771ZM829 -78H752V-164H666V-78H451L443
-25Q443 -21 443 -17T441 -8L456 9L693 321H752V-8H836L829 -78ZM531 -8H666V171L531 -8Z" />
<glyph unicode="&#xbf;" glyph-name="questiondown" horiz-adv-x="435" d="M260 521Q235 521 217 539T199 582Q199 607 217 625T260 643Q285 643 303 625T321 582Q321 557 303 539T260 521ZM230 -59Q130 -59 83 -11T36 112Q36 168 84 225T209 319L221 484L290
455L299 270Q224 245 176 204T128 113Q128 67 156 45T233 22Q276 22 317 38T403 85L415 -1Q373 -29 330 -44T230 -59Z" />
<glyph unicode="&#xc0;" glyph-name="Agrave" horiz-adv-x="617" d="M208 897H310L371 739H298L208 897ZM304 551L195 259H416L304 551ZM349 680L611 14L516 0L445 182H168L100 0H6L262 680H349Z" />
<glyph unicode="&#xc1;" glyph-name="Aacute" horiz-adv-x="617" d="M300 897H403L312 739H240L300 897ZM304 551L195 259H416L304 551ZM349 680L611 14L516 0L445 182H168L100 0H6L262 680H349Z" />
<glyph unicode="&#xc2;" glyph-name="Acircumflex" horiz-adv-x="617" d="M233 739H141L270 897H335L464 739H374L304 826L233 739ZM304 551L195 259H416L304 551ZM349 680L611 14L516 0L445 182H168L100 0H6L262 680H349Z" />
<glyph unicode="&#xc3;" glyph-name="Atilde" horiz-adv-x="617" d="M389 857H453Q453 797 425 774T357 751Q322 751 298 772T248 793Q236 793 226 783T215 756H149Q149 816 177 838T244 861Q284 861 307 841T357 820Q369 820 378 830T389 857ZM416 259L304 551Q277
479 250 405T195 259H416ZM168 182Q151 136 134 91T100 0H6L262 680H349Q415 514 480 347T611 14Q588 10 564 7T516 0Q498 45 481 90T445 182H168Z" />
<glyph unicode="&#xc4;" glyph-name="Adieresis" horiz-adv-x="617" d="M217 868Q240 868 255 852T271 814Q271 792 256 776T217 760Q195 760 179 776T163 814Q163 836 179 852T217 868ZM391 868Q414 868 429 852T445 814Q445 792 430 776T391 760Q369 760 353
776T337 814Q337 836 353 852T391 868ZM304 551L195 259H416L304 551ZM349 680L611 14L516 0L445 182H168L100 0H6L262 680H349Z" />
<glyph unicode="&#xc5;" glyph-name="Aring" horiz-adv-x="617" d="M304 926Q343 926 372 900T401 833Q401 794 372 769T304 744Q264 744 235 769T206 833Q206 873 235 899T304 926ZM304 792Q321 792 333 804T345 833Q345 851 333 863T304 875Q287 875 275 863T262
833Q262 817 274 805T304 792ZM304 551L195 259H416L304 551ZM349 680L611 14L516 0L445 182H168L100 0H6L262 680H349Z" />
<glyph unicode="&#xc6;" glyph-name="AE" horiz-adv-x="906" d="M448 0V182H211Q182 136 153 91T93 0Q71 3 48 6T3 14L437 680H833L845 606H545V383H735L749 309H545V75H868L880 0H448ZM262 259H448V548L262 259Z" />
<glyph unicode="&#xc7;" glyph-name="Ccedilla" horiz-adv-x="596" d="M511 584Q474 597 445 604T366 612Q273 612 219 536T165 337Q165 227 211 148T358 68Q407 68 443 76T507 98L544 26Q516 12 475 2T394 -12L383 -42Q414 -50 436 -74T458 -125Q458 -174 422
-197T339 -221Q320 -221 295 -215T254 -198L277 -139Q288 -144 306 -150T339 -156Q355 -156 370 -149T385 -127Q385 -109 360 -96T296 -78L321 -12Q186 2 126 102T65 336Q65 489 142 591T368 694Q398 694 451 685T541 653L511 584Z" />
<glyph unicode="&#xc8;" glyph-name="Egrave" horiz-adv-x="552" d="M191 897H294L354 739H281L191 897ZM94 0V680H477Q481 661 483 643T490 606H190V383H381Q384 364 387 346T394 309H190V75H513L526 0H94Z" />
<glyph unicode="&#xc9;" glyph-name="Eacute" horiz-adv-x="552" d="M283 897H386L296 739H223L283 897ZM94 0V680H477Q481 661 483 643T490 606H190V383H381Q384 364 387 346T394 309H190V75H513L526 0H94Z" />
<glyph unicode="&#xca;" glyph-name="Ecircumflex" horiz-adv-x="552" d="M216 739H125L253 897H319L448 739H357Q340 761 323 782T287 826Q270 804 252 783T216 739ZM94 0V680H477Q481 661 483 643T490 606H190V383H381Q384 364 387 346T394 309H190V75H513L526 0H94Z" />
<glyph unicode="&#xcb;" glyph-name="Edieresis" horiz-adv-x="552" d="M374 868Q397 868 412 852T428 814Q428 792 413 776T374 760Q352 760 336 776T320 814Q320 836 336 852T374 868ZM201 868Q223 868 238 852T254 814Q254 792 239 776T201 760Q179 760 163
776T146 814Q146 836 162 852T201 868ZM94 0V680H477Q481 661 483 643T490 606H190V383H381Q384 364 387 346T394 309H190V75H513L526 0H94Z" />
<glyph unicode="&#xcc;" glyph-name="Igrave" horiz-adv-x="284" d="M46 897H148L209 739H136L46 897ZM94 0V680H190V0H94Z" />
<glyph unicode="&#xcd;" glyph-name="Iacute" horiz-adv-x="284" d="M138 897H241L150 739H78L138 897ZM94 0V680H190V0H94Z" />
<glyph unicode="&#xce;" glyph-name="Icircumflex" horiz-adv-x="284" d="M71 739H-20Q11 779 43 818T108 897H173L302 739H212Q194 761 177 782T142 826Q124 804 106 783T71 739ZM94 0V680H190V0H94Z" />
<glyph unicode="&#xcf;" glyph-name="Idieresis" horiz-adv-x="284" d="M229 868Q252 868 267 852T283 814Q283 792 268 776T229 760Q207 760 191 776T175 814Q175 836 191 852T229 868ZM55 868Q78 868 93 852T109 814Q109 792 94 776T55 760Q33 760 17 776T1
814Q1 836 17 852T55 868ZM94 0V680H190V0H94Z" />
<glyph unicode="&#xd0;" glyph-name="Eth" horiz-adv-x="705" d="M100 0V300H29Q26 319 24 337T19 375H100V680H336Q493 680 566 584T639 344Q639 195 560 98T331 0H100ZM286 300H197V80H331Q426 80 483 147T541 343Q541 456 492 527T340 598H197V375H277L286 300Z" />
<glyph unicode="&#xd1;" glyph-name="Ntilde" horiz-adv-x="722" d="M457 857H521Q521 797 493 774T425 751Q390 751 366 772T316 793Q304 793 294 783T283 756H217Q217 816 245 838T312 861Q352 861 375 841T425 820Q437 820 446 830T457 857ZM94 0V680H179L484
252L532 177V680H629V0H543L228 447L190 507V0H94Z" />
<glyph unicode="&#xd2;" glyph-name="Ograve" horiz-adv-x="738" d="M274 897H377L437 739H364L274 897ZM65 337Q65 490 143 591T370 696Q528 696 601 592T674 344Q674 195 595 92T367 -14Q210 -14 138 90T65 337ZM165 338Q165 224 213 146T366 68Q461 68 516
141T572 344Q572 457 524 535T372 613Q279 613 222 537T165 338Z" />
<glyph unicode="&#xd3;" glyph-name="Oacute" horiz-adv-x="738" d="M366 897H469L379 739H306L366 897ZM65 337Q65 490 143 591T370 696Q528 696 601 592T674 344Q674 195 595 92T367 -14Q210 -14 138 90T65 337ZM165 338Q165 224 213 146T366 68Q461 68 516
141T572 344Q572 457 524 535T372 613Q279 613 222 537T165 338Z" />
<glyph unicode="&#xd4;" glyph-name="Ocircumflex" horiz-adv-x="738" d="M299 739H208L336 897H402L531 739H440L370 826L299 739ZM65 337Q65 490 143 591T370 696Q528 696 601 592T674 344Q674 195 595 92T367 -14Q210 -14 138 90T65 337ZM165 338Q165 224 213
146T366 68Q461 68 516 141T572 344Q572 457 524 535T372 613Q279 613 222 537T165 338Z" />
<glyph unicode="&#xd5;" glyph-name="Otilde" horiz-adv-x="738" d="M456 857H519Q519 797 491 774T424 751Q388 751 365 772T315 793Q303 793 293 783T281 756H216Q216 816 244 838T311 861Q350 861 373 841T423 820Q436 820 445 830T456 857ZM370 696Q528 696
601 592T674 344Q674 195 595 92T367 -14Q210 -14 138 90T65 337Q65 490 143 591T370 696ZM165 338Q165 224 213 146T366 68Q461 68 516 141T572 344Q572 457 524 535T372 613Q279 613 222 537T165 338Z" />
<glyph unicode="&#xd6;" glyph-name="Odieresis" horiz-adv-x="738" d="M284 868Q306 868 321 852T337 814Q337 792 322 776T284 760Q262 760 246 776T229 814Q229 836 245 852T284 868ZM457 868Q480 868 495 852T511 814Q511 792 496 776T457 760Q435 760 419
776T403 814Q403 836 419 852T457 868ZM65 337Q65 490 143 591T370 696Q528 696 601 592T674 344Q674 195 595 92T367 -14Q210 -14 138 90T65 337ZM165 338Q165 224 213 146T366 68Q461 68 516 141T572 344Q572 457 524 535T372 613Q279 613 222 537T165 338Z"
/>
<glyph unicode="&#xd7;" glyph-name="multiply" horiz-adv-x="510" d="M21 43L194 254L28 461Q50 464 73 467T118 475L252 308Q286 350 321 391T391 474H489Q443 417 395 360T301 246Q318 224 335 202T369 159L473 30H375L244 191Q210 149 176 108T109 28L21 43Z" />
<glyph unicode="&#xd8;" glyph-name="Oslash" horiz-adv-x="738" d="M65 337Q65 490 143 591T370 696Q528 696 601 592T674 344Q674 195 595 92T367 -14Q210 -14 138 90T65 337ZM372 613Q279 613 222 537T165 338Q165 274 181 219T228 128L431 603Q418 607 403
610T372 613ZM305 79Q318 74 333 71T366 68Q461 68 516 141T572 344Q572 407 556 461T508 551L305 79Z" />
<glyph unicode="&#xd9;" glyph-name="Ugrave" horiz-adv-x="699" d="M258 897H360L421 739H348L258 897ZM182 252Q182 166 228 117T349 68Q427 68 471 118T515 252V680H612V243Q612 134 542 62T349 -11Q227 -11 157 61T86 243V680H182V252Z" />
<glyph unicode="&#xda;" glyph-name="Uacute" horiz-adv-x="699" d="M335 897H438L348 739H275L335 897ZM182 252Q182 166 228 117T349 68Q427 68 471 118T515 252V680H612V243Q612 134 542 62T349 -11Q227 -11 157 61T86 243V680H182V252Z" />
<glyph unicode="&#xdb;" glyph-name="Ucircumflex" horiz-adv-x="699" d="M279 739H188L316 897H382L511 739H420Q403 761 386 782T350 826Q333 804 315 783T279 739ZM182 252Q182 166 228 117T349 68Q427 68 471 118T515 252V680H612V243Q612 134 542 62T349
-11Q227 -11 157 61T86 243V680H182V252Z" />
<glyph unicode="&#xdc;" glyph-name="Udieresis" horiz-adv-x="699" d="M436 868Q459 868 474 852T490 814Q490 792 475 776T436 760Q414 760 398 776T382 814Q382 836 398 852T436 868ZM263 868Q285 868 300 852T316 814Q316 792 301 776T263 760Q241 760 225
776T208 814Q208 836 224 852T263 868ZM182 252Q182 166 228 117T349 68Q427 68 471 118T515 252V680H612V243Q612 134 542 62T349 -11Q227 -11 157 61T86 243V680H182V252Z" />
<glyph unicode="&#xdd;" glyph-name="Yacute" horiz-adv-x="576" d="M273 897H376L286 739H213L273 897ZM237 0V270L6 666L105 680L285 366L469 680H571L334 271L333 0H237Z" />
<glyph unicode="&#xde;" glyph-name="Thorn" horiz-adv-x="598" d="M94 0V680H190V566H289Q397 566 471 518T546 355Q546 242 465 189T279 136H190V0H94ZM288 487H190V216H283Q352 216 397 247T446 351Q446 427 404 457T288 487Z" />
<glyph unicode="&#xdf;" glyph-name="germandbls" horiz-adv-x="608" d="M76 473Q76 574 137 632T300 691Q392 691 456 645T521 505Q521 459 499 421T438 364Q488 347 525 302T563 191Q563 92 492 46T314 0H239V79H310Q373 79 418 105T463 192Q463 252 423 282T320
313H250V390H281Q353 390 387 419T422 500Q422 554 387 581T302 608Q241 608 207 571T172 472V0H76V473Z" />
<glyph unicode="&#xe0;" glyph-name="agrave" horiz-adv-x="508" d="M148 747H251L311 589H238L148 747ZM136 140Q136 112 156 88T217 64Q254 64 286 82T344 128V226H226Q182 226 159 200T136 140ZM79 455Q107 474 160 486T244 498Q328 498 384 451T440 329V0H386Q379
11 373 23T361 46Q336 24 297 6T219 -12Q133 -12 92 31T50 140Q50 213 99 251T228 290H343Q343 340 323 376T246 412Q203 412 168 402T106 379L79 455Z" />
<glyph unicode="&#xe1;" glyph-name="aacute" horiz-adv-x="508" d="M241 747H343L253 589H180L241 747ZM136 140Q136 112 156 88T217 64Q254 64 286 82T344 128V226H226Q182 226 159 200T136 140ZM79 455Q107 474 160 486T244 498Q328 498 384 451T440 329V0H386Q379
11 373 23T361 46Q336 24 297 6T219 -12Q133 -12 92 31T50 140Q50 213 99 251T228 290H343Q343 340 323 376T246 412Q203 412 168 402T106 379L79 455Z" />
<glyph unicode="&#xe2;" glyph-name="acircumflex" horiz-adv-x="508" d="M183 589H91L221 747H285L414 589H325L254 676Q237 654 219 633T183 589ZM136 140Q136 112 156 88T217 64Q254 64 286 82T344 128V226H226Q182 226 159 200T136 140ZM79 455Q107 474 160
486T244 498Q328 498 384 451T440 329V0H386Q379 11 373 23T361 46Q336 24 297 6T219 -12Q133 -12 92 31T50 140Q50 213 99 251T228 290H343Q343 340 323 376T246 412Q203 412 168 402T106 379L79 455Z" />
<glyph unicode="&#xe3;" glyph-name="atilde" horiz-adv-x="508" d="M335 707H399Q399 647 370 624T302 601Q267 601 244 622T193 643Q181 643 171 633T161 606H94Q94 666 122 688T190 711Q230 711 252 691T302 670Q314 670 324 680T335 707ZM136 140Q136 112
156 88T217 64Q254 64 286 82T344 128V226H226Q182 226 159 200T136 140ZM79 455Q107 474 160 486T244 498Q328 498 384 451T440 329V0H386Q379 11 373 23T361 46Q336 24 297 6T219 -12Q133 -12 92 31T50 140Q50 213 99 251T228 290H343Q343 340 323 376T246 412Q203
412 168 402T106 379L79 455Z" />
<glyph unicode="&#xe4;" glyph-name="adieresis" horiz-adv-x="508" d="M339 718Q361 718 376 702T392 664Q392 642 377 626T339 610Q317 610 301 626T284 664Q284 686 300 702T339 718ZM165 718Q187 718 203 702T219 664Q219 642 203 626T165 610Q142 610 126
626T110 664Q110 686 126 702T165 718ZM136 140Q136 112 156 88T217 64Q254 64 286 82T344 128V226H226Q182 226 159 200T136 140ZM79 455Q107 474 160 486T244 498Q328 498 384 451T440 329V0H386Q379 11 373 23T361 46Q336 24 297 6T219 -12Q133 -12 92 31T50
140Q50 213 99 251T228 290H343Q343 340 323 376T246 412Q203 412 168 402T106 379L79 455Z" />
<glyph unicode="&#xe5;" glyph-name="aring" horiz-adv-x="508" d="M251 776Q290 776 319 750T349 683Q349 644 320 619T251 594Q211 594 182 619T152 683Q152 723 181 749T251 776ZM251 642Q268 642 280 654T292 683Q292 701 280 713T251 725Q234 725 222 713T209
683Q209 667 221 655T251 642ZM136 140Q136 112 156 88T217 64Q254 64 286 82T344 128V226H226Q182 226 159 200T136 140ZM79 455Q107 474 160 486T244 498Q328 498 384 451T440 329V0H386Q379 11 373 23T361 46Q336 24 297 6T219 -12Q133 -12 92 31T50 140Q50
213 99 251T228 290H343Q343 340 323 376T246 412Q203 412 168 402T106 379L79 455Z" />
<glyph unicode="&#xe6;" glyph-name="ae" horiz-adv-x="829" d="M786 221H442Q447 154 484 111T596 68Q639 68 668 77T728 101L757 31Q726 9 676 -1T595 -12Q526 -12 476 11T394 76Q369 42 322 15T221 -12Q133 -12 92 30T50 138Q50 210 99 248T228 286H344V311Q344
356 320 384T246 412Q203 412 168 402T106 379L79 455Q107 474 160 486T244 498Q296 498 337 478T403 424Q432 458 475 478T573 498Q693 498 739 416T786 221ZM692 286Q685 346 655 381T571 416Q516 416 484 381T443 286H692ZM136 138Q136 110 156 87T217 64Q258
64 295 85T357 142Q352 160 348 179T343 221H226Q182 221 159 197T136 138Z" />
<glyph unicode="&#xe7;" glyph-name="ccedilla" horiz-adv-x="474" d="M281 416Q213 416 180 367T145 244Q145 168 177 119T278 69Q322 69 347 78T404 102L433 33Q408 16 376 5T313 -10L301 -42Q332 -50 354 -74T376 -125Q376 -174 340 -197T258 -221Q239 -221
213 -215T172 -198L195 -139Q206 -144 225 -150T258 -156Q274 -156 288 -149T302 -127Q302 -109 277 -96T215 -78L241 -10Q146 1 97 70T47 243Q48 356 108 427T282 498Q312 498 357 486T435 451L407 383Q376 396 350 406T281 416Z" />
<glyph unicode="&#xe8;" glyph-name="egrave" horiz-adv-x="533" d="M181 747H283L344 589H271L181 747ZM491 221H147Q152 154 189 111T300 68Q343 68 372 77T432 101L462 31Q430 9 381 -1T300 -12Q178 -12 113 58T47 243Q47 356 108 427T279 498Q397 498 444
415T491 221ZM398 286Q389 346 360 381T276 416Q220 416 188 381T149 286H398Z" />
<glyph unicode="&#xe9;" glyph-name="eacute" horiz-adv-x="533" d="M273 747H376L285 589H213L273 747ZM491 221H147Q152 154 189 111T300 68Q343 68 372 77T432 101L462 31Q430 9 381 -1T300 -12Q178 -12 113 58T47 243Q47 356 108 427T279 498Q397 498 444
415T491 221ZM398 286Q389 346 360 381T276 416Q220 416 188 381T149 286H398Z" />
<glyph unicode="&#xea;" glyph-name="ecircumflex" horiz-adv-x="533" d="M210 589H118L248 747H312L441 589H351L281 676Q264 654 246 633T210 589ZM491 221H147Q152 154 189 111T300 68Q343 68 372 77T432 101L462 31Q430 9 381 -1T300 -12Q178 -12 113 58T47
243Q47 356 108 427T279 498Q397 498 444 415T491 221ZM398 286Q389 346 360 381T276 416Q220 416 188 381T149 286H398Z" />
<glyph unicode="&#xeb;" glyph-name="edieresis" horiz-adv-x="533" d="M365 718Q387 718 402 702T418 664Q418 642 403 626T365 610Q342 610 326 626T310 664Q310 686 326 702T365 718ZM190 718Q213 718 229 702T245 664Q245 642 229 626T190 610Q168 610 152
626T136 664Q136 686 152 702T190 718ZM491 221H147Q152 154 189 111T300 68Q343 68 372 77T432 101L462 31Q430 9 381 -1T300 -12Q178 -12 113 58T47 243Q47 356 108 427T279 498Q397 498 444 415T491 221ZM398 286Q389 346 360 381T276 416Q220 416 188 381T149
286H398Z" />
<glyph unicode="&#xec;" glyph-name="igrave" horiz-adv-x="244" d="M7 747H110Q125 707 140 668T169 589H97L7 747ZM73 0V485H170V0H73Z" />
<glyph unicode="&#xed;" glyph-name="iacute" horiz-adv-x="244" d="M134 747H237L147 589H74L134 747ZM73 0V485H170V0H73Z" />
<glyph unicode="&#xee;" glyph-name="icircumflex" horiz-adv-x="244" d="M52 589H-39Q-7 629 25 668T90 747H154L284 589H193L124 676L52 589ZM73 0V485H170V0H73Z" />
<glyph unicode="&#xef;" glyph-name="idieresis" horiz-adv-x="244" d="M209 718Q231 718 247 702T263 664Q263 642 247 626T209 610Q187 610 171 626T154 664Q154 686 170 702T209 718ZM35 718Q57 718 73 702T90 664Q90 642 74 626T35 610Q13 610 -3 626T-19
664Q-19 686 -3 702T35 718ZM73 0V485H170V0H73Z" />
<glyph unicode="&#xf0;" glyph-name="eth" horiz-adv-x="549" d="M399 637L344 590Q407 530 449 446T491 262Q491 127 424 57T250 -13Q157 -13 99 51T41 197Q41 276 98 336T252 397Q290 397 326 381T390 342Q378 399 348 449T278 537L175 452L136 517L216 585Q189
603 160 616T102 635L145 698Q179 691 214 675T283 637L360 702L399 637ZM131 192Q131 143 163 105T252 67Q322 67 358 114T400 237Q383 271 344 298T252 325Q195 325 163 284T131 192Z" />
<glyph unicode="&#xf1;" glyph-name="ntilde" horiz-adv-x="566" d="M396 707H459Q459 647 431 624T363 601Q328 601 305 622T254 643Q241 643 232 632T222 606H154Q154 666 183 688T251 711Q290 711 313 691T363 670Q375 670 385 680T396 707ZM73 0V485H127L157
421Q188 455 237 478T328 501Q417 501 457 450T498 320V0H402V311Q402 359 379 389T308 419Q278 419 238 400T169 350V0H73Z" />
<glyph unicode="&#xf2;" glyph-name="ograve" horiz-adv-x="559" d="M184 747H287L346 589H273L184 747ZM271 -13Q161 -12 104 59T47 244Q48 356 109 426T280 498Q394 498 452 426T511 239Q511 126 447 57T271 -13ZM414 239Q414 317 383 366T283 416Q214 416 180
370T145 245Q145 164 174 117T273 69Q341 69 377 114T414 239Z" />
<glyph unicode="&#xf3;" glyph-name="oacute" horiz-adv-x="559" d="M276 747H378L288 589H216L276 747ZM271 -13Q161 -12 104 59T47 244Q48 356 109 426T280 498Q394 498 452 426T511 239Q511 126 447 57T271 -13ZM414 239Q414 317 383 366T283 416Q214 416 180
370T145 245Q145 164 174 117T273 69Q341 69 377 114T414 239Z" />
<glyph unicode="&#xf4;" glyph-name="ocircumflex" horiz-adv-x="559" d="M209 589H117L247 747H310L441 589H350L280 676L209 589ZM271 -13Q161 -12 104 59T47 244Q48 356 109 426T280 498Q394 498 452 426T511 239Q511 126 447 57T271 -13ZM414 239Q414 317
383 366T283 416Q214 416 180 370T145 245Q145 164 174 117T273 69Q341 69 377 114T414 239Z" />
<glyph unicode="&#xf5;" glyph-name="otilde" horiz-adv-x="559" d="M365 707H429Q429 647 401 624T333 601Q298 601 275 622T224 643Q211 643 202 633T192 606H124Q124 666 153 688T220 711Q260 711 283 691T332 670Q344 670 354 680T365 707ZM271 -12Q161 -12
104 59T47 244Q48 355 109 426T280 498Q394 498 452 426T511 239Q511 126 447 57T271 -12ZM414 239Q414 317 383 366T283 416Q215 416 180 370T145 245Q145 164 174 117T273 69Q340 69 377 114T414 239Z" />
<glyph unicode="&#xf6;" glyph-name="odieresis" horiz-adv-x="559" d="M193 718Q215 718 231 702T247 664Q247 642 231 626T193 610Q171 610 155 626T139 664Q139 686 155 702T193 718ZM367 718Q390 718 405 702T421 664Q421 642 406 626T367 610Q345 610 329
626T313 664Q313 686 329 702T367 718ZM271 -13Q161 -12 104 59T47 244Q48 356 109 426T280 498Q394 498 452 426T511 239Q511 126 447 57T271 -13ZM414 239Q414 317 383 366T283 416Q214 416 180 370T145 245Q145 164 174 117T273 69Q341 69 377 114T414 239Z"
/>
<glyph unicode="&#xf7;" glyph-name="divide" horiz-adv-x="480" d="M239 360Q211 360 192 379T172 426Q172 454 191 473T239 493Q267 493 286 474T305 426Q305 399 286 380T239 360ZM461 235H27L18 311H452L461 235ZM240 40Q212 40 193 60T173 107Q173 135 192
154T240 174Q268 174 287 155T307 107Q307 80 288 60T240 40Z" />
<glyph unicode="&#xf8;" glyph-name="oslash" horiz-adv-x="559" d="M271 -13Q161 -12 104 59T47 244Q48 356 109 426T280 498Q394 498 452 426T511 239Q511 126 447 57T271 -13ZM322 407Q315 411 304 413T283 416Q214 416 180 370T145 245Q145 209 151 179T172
126L322 407ZM273 69Q341 69 377 114T414 239Q414 271 408 300T390 350L241 74Q248 71 256 70T273 69Z" />
<glyph unicode="&#xf9;" glyph-name="ugrave" horiz-adv-x="553" d="M170 747H272L332 589H260L170 747ZM397 51Q365 21 321 3T237 -16Q148 -16 108 35T67 165V485H164V172Q164 125 187 96T257 66Q284 66 319 80T384 120V485H480V0H425L397 51Z" />
<glyph unicode="&#xfa;" glyph-name="uacute" horiz-adv-x="553" d="M272 747H375L284 589H213L272 747ZM397 51Q365 21 321 3T237 -16Q148 -16 108 35T67 165V485H164V172Q164 125 187 96T257 66Q284 66 319 80T384 120V485H480V0H425L397 51Z" />
<glyph unicode="&#xfb;" glyph-name="ucircumflex" horiz-adv-x="553" d="M206 589H114L243 747H307L437 589H347L277 676L206 589ZM397 51Q365 21 321 3T237 -16Q148 -16 108 35T67 165V485H164V172Q164 125 187 96T257 66Q284 66 319 80T384 120V485H480V0H425L397 51Z" />
<glyph unicode="&#xfc;" glyph-name="udieresis" horiz-adv-x="553" d="M190 718Q212 718 227 702T243 664Q243 642 228 626T190 610Q168 610 152 626T135 664Q135 686 151 702T190 718ZM364 718Q386 718 402 702T418 664Q418 642 402 626T364 610Q342 610 326
626T309 664Q309 686 325 702T364 718ZM397 51Q365 21 321 3T237 -16Q148 -16 108 35T67 165V485H164V172Q164 125 187 96T257 66Q284 66 319 80T384 120V485H480V0H425L397 51Z" />
<glyph unicode="&#xfd;" glyph-name="yacute" horiz-adv-x="484" d="M242 747H345L255 589H182L242 747ZM168 -61L196 13L13 471L110 485L245 137L373 485H472L309 58L257 -88Q238 -138 192 -173T89 -221L57 -147Q93 -131 124 -113T168 -61Z" />
<glyph unicode="&#xfe;" glyph-name="thorn" horiz-adv-x="561" d="M172 112Q197 92 226 81T280 69Q355 69 385 121T416 243Q416 316 387 367T280 419Q255 419 226 408T172 375V112ZM76 -219V695L172 706V457Q201 476 235 488T299 501Q406 501 460 428T514 244Q514
134 460 61T299 -12Q269 -12 235 -1T172 31V-208L76 -219Z" />
<glyph unicode="&#xff;" glyph-name="ydieresis" horiz-adv-x="484" d="M335 718Q357 718 372 702T387 664Q387 642 372 626T335 610Q311 610 295 626T279 664Q279 686 295 702T335 718ZM159 718Q182 718 197 702T213 664Q213 642 198 626T159 610Q137 610 121
626T105 664Q105 686 121 702T159 718ZM168 -61L196 13L13 471L110 485L245 137L373 485H472L309 58L257 -88Q238 -138 192 -173T89 -221L57 -147Q93 -131 124 -113T168 -61Z" />
<glyph unicode="&#x2013;" glyph-name="endash" horiz-adv-x="413" d="M396 235H25L16 311H387L396 235Z" />
<glyph unicode="&#x2014;" glyph-name="emdash" horiz-adv-x="512" d="M497 235H25L16 311H489L497 235Z" />
<glyph unicode="&#x2018;" glyph-name="quoteleft" horiz-adv-x="148" d="M69 470Q43 470 26 490T8 542Q8 593 40 645T119 722L143 676Q118 657 101 639T80 591Q99 590 114 572T129 531Q129 508 112 489T69 470Z" />
<glyph unicode="&#x2019;" glyph-name="quoteright" horiz-adv-x="148" d="M79 722Q104 722 122 702T141 650Q141 599 109 547T29 470L6 515Q30 534 46 553T67 601Q49 602 34 620T18 661Q18 683 36 702T79 722Z" />
<glyph unicode="&#x201a;" glyph-name="quotesinglbase" horiz-adv-x="148" d="M79 120Q104 120 122 101T141 48Q141 -2 109 -54T29 -131L6 -86Q30 -67 46 -48T67 0Q49 1 34 19T18 60Q18 83 36 101T79 120Z" />
<glyph unicode="&#x201c;" glyph-name="quotedblleft" horiz-adv-x="314" d="M69 470Q43 470 26 490T8 542Q8 593 40 645T119 722L143 676Q118 657 101 639T80 591Q99 590 114 572T129 531Q129 508 112 489T69 470ZM234 470Q209 470 192 490T174 542Q174 593 206
645T285 722L309 676Q284 657 268 639T247 591Q264 590 280 572T296 531Q296 508 278 489T234 470Z" />
<glyph unicode="&#x201d;" glyph-name="quotedblright" horiz-adv-x="314" d="M245 722Q270 722 288 702T306 650Q306 599 274 547T195 470L171 515Q196 534 212 553T234 601Q215 602 200 620T184 661Q184 683 202 702T245 722ZM79 722Q104 722 122 702T141 650Q141
599 109 547T29 470L6 515Q30 534 46 553T67 601Q49 602 34 620T18 661Q18 683 36 702T79 722Z" />
<glyph unicode="&#x201e;" glyph-name="quotedblbase" horiz-adv-x="314" d="M245 120Q270 120 288 101T306 48Q306 -2 274 -54T195 -131L171 -86Q196 -67 212 -48T234 0Q215 1 200 19T184 60Q184 83 202 101T245 120ZM79 120Q104 120 122 101T141 48Q141 -2 109
-54T29 -131L6 -85Q30 -66 46 -48T67 0Q49 1 34 19T18 60Q18 83 36 101T79 120Z" />
<glyph unicode="&#x2022;" glyph-name="bullet" horiz-adv-x="242" d="M121 234Q81 234 54 261T26 328Q26 367 53 395T121 423Q161 423 188 395T216 328Q216 289 189 262T121 234Z" />
<glyph unicode="&#x2039;" glyph-name="guilsinglleft" horiz-adv-x="211" d="M26 269L176 408Q181 391 186 374T198 339L103 245Q126 221 150 198T198 150Q192 134 187 117T176 83L26 221V269Z" />
<glyph unicode="&#x203a;" glyph-name="guilsinglright" horiz-adv-x="211" d="M35 408L185 269V221L35 83L13 150L108 245L13 339L35 408Z" />
</font>
</defs>
</svg>
