<?xml version="1.0" standalone="no"?>
<!DOCTYPE svg PUBLIC "-//W3C//DTD SVG 1.1//EN" "http://www.w3.org/Graphics/SVG/1.1/DTD/svg11.dtd">
<svg xmlns="http://www.w3.org/2000/svg">
<defs >
<font id="Archivo" horiz-adv-x="605" ><font-face
    font-family="Archivo"
    units-per-em="1000"
    panose-1="2 11 8 3 2 2 2 9 11 4"
    ascent="878"
    descent="-210"
    alphabetic="0" />
<glyph unicode=" " glyph-name="space" horiz-adv-x="278" />
<glyph unicode="!" glyph-name="exclam" horiz-adv-x="333" d="M152 686H305L181 197H99L152 686ZM63 137H201L177 0H39L63 137Z" />
<glyph unicode="&quot;" glyph-name="quotedbl" horiz-adv-x="474" d="M89 539L115 686H264L238 539L194 407H89V539ZM309 539L335 686H484L458 539L414 407H309V539Z" />
<glyph unicode="#" glyph-name="numbersign" horiz-adv-x="556" d="M72 163H9V271H94L119 394H55V502H141L182 698H286L245 502H365L406 698H510L469 502H544V394H447L422 271H498V163H400L365 -12H261L296 163H176L141 -12H37L72 163ZM318 271L343 394H223L198 271H318Z" />
<glyph unicode="$" glyph-name="dollar" horiz-adv-x="556" d="M205 68Q116 75 68 112T19 207Q19 229 26 246H159Q156 240 156 231Q156 184 224 175L245 293Q190 307 155 321T94 363T69 436Q69 521 134 568T302 617L321 723H372L353 615Q432 608 479 577T527 495Q527
481 524 468T520 451H387L388 461Q388 481 374 493T334 509L315 405Q374 391 411 378T475 336T502 259Q502 159 433 114T255 67L235 -49H184L205 68ZM283 510Q249 507 230 495T210 463Q210 447 224 436T267 417L283 510ZM311 177T335 189T360 227Q360 246 343 258T293
280L274 174Q311 177 335 189Z" />
<glyph unicode="%" glyph-name="percent" horiz-adv-x="889" d="M149 337T110 364T70 458Q70 484 76 517Q92 616 137 657T260 698Q337 698 376 670T415 575Q415 545 410 517Q393 417 348 377T226 337Q149 337 110 364ZM707 686H811L183 0H81L707 686ZM262 418T278
440T304 510Q311 544 311 563Q311 617 260 617Q224 617 207 594T181 525Q174 491 174 473Q174 446 186 432T225 418Q262 418 278 440ZM552 -12T513 15T473 109Q473 135 479 168Q495 267 540 308T663 349Q740 349 779 321T818 226Q818 196 813 168Q796 68 751 28T629
-12Q552 -12 513 15ZM665 69T681 91T707 161Q714 195 714 214Q714 268 663 268Q627 268 610 245T584 176Q577 142 577 124Q577 97 589 83T628 69Q665 69 681 91Z" />
<glyph unicode="&amp;" glyph-name="ampersand" horiz-adv-x="722" d="M173 -12T102 31T30 154Q30 236 78 287T203 352L204 356Q156 378 131 408T105 487Q105 553 143 600T247 673T395 698Q510 698 578 656T647 540Q647 525 639 482H502Q506 507 506 518Q506 587
394 587Q323 587 283 557T242 476Q242 442 268 423T336 404H405L386 292H320Q258 292 217 267T175 176Q175 99 289 99Q361 99 402 125T452 201L488 404H720L701 292H606L590 204Q572 103 497 46T298 -12Q173 -12 102 31Z" />
<glyph unicode="&apos;" glyph-name="quotesingle" horiz-adv-x="238" d="M89 539L115 686H264L238 539L194 407H89V539Z" />
<glyph unicode="(" glyph-name="parenleft" horiz-adv-x="333" d="M89 -85T64 0T39 179Q39 329 106 476T291 736H383Q284 609 224 457T163 160Q163 75 179 -7T226 -157H138Q89 -85 64 0Z" />
<glyph unicode=")" glyph-name="parenright" horiz-adv-x="333" d="M26 -30T86 122T147 419Q147 504 131 586T84 736H172Q221 664 246 579T271 400Q271 250 204 103T19 -157H-73Q26 -30 86 122Z" />
<glyph unicode="*" glyph-name="asterisk" horiz-adv-x="389" d="M196 481L87 407L58 478L179 524L75 571L128 641L211 567L215 686H298L260 568L369 641L398 571L278 524L381 478L328 407L245 481L241 362H158L196 481Z" />
<glyph unicode="+" glyph-name="plus" horiz-adv-x="584" d="M223 203H41L60 307H242L278 511H385L349 307H532L513 203H330L294 0H187L223 203Z" />
<glyph unicode="," glyph-name="comma" horiz-adv-x="278" d="M69 0H14L39 137H177L155 12L59 -156H-13L69 0Z" />
<glyph unicode="-" glyph-name="hyphen" horiz-adv-x="333" d="M48 329H289L268 211H27L48 329Z" />
<glyph unicode="." glyph-name="period" horiz-adv-x="278" d="M39 137H177L152 0H14L39 137Z" />
<glyph unicode="/" glyph-name="slash" horiz-adv-x="278" d="M251 735H346L27 -49H-68L251 735Z" />
<glyph unicode="0" glyph-name="zero" horiz-adv-x="556" d="M133 -12T81 34T28 194Q28 256 43 343Q65 479 103 556T194 666T321 698Q424 698 477 651T530 490Q530 429 515 343Q493 208 454 130T362 20T236 -12Q133 -12 81 34ZM276 100T299 121T337 186T367 308Q382
391 387 431T393 497Q393 543 377 564T321 586Q281 586 257 565T219 500T190 378Q174 291 169 252T163 189Q163 143 180 122T236 100Q276 100 299 121Z" />
<glyph unicode="1" glyph-name="one" horiz-adv-x="556" d="M44 112H205L277 520H115L130 605Q176 610 245 633T372 686H443L342 112H489L469 0H24L44 112Z" />
<glyph unicode="2" glyph-name="two" horiz-adv-x="556" d="M-12 36Q-3 93 31 140T109 222T222 304Q285 346 322 375T383 441T408 519Q408 547 389 566T330 586Q281 586 253 563T215 491L207 450H71Q81 581 155 639T336 698Q457 698 502 647T548 527Q548 449 510
389T421 288T293 200Q235 162 224 154Q200 135 191 122H482L461 0H-18L-12 36Z" />
<glyph unicode="3" glyph-name="three" horiz-adv-x="556" d="M123 -12T64 32T4 153Q4 180 10 212H149Q144 183 144 169Q144 135 167 118T235 100Q287 100 320 130T354 220Q354 293 259 293H208L227 405H281Q327 405 360 436T394 524Q394 555 375 570T320 586Q277
586 249 565T214 501L211 482H72L77 510Q86 566 121 608T209 674T326 698Q424 698 480 656T537 537Q537 412 399 356L398 352Q442 336 468 301T494 212Q494 145 460 94T367 16T237 -12Q123 -12 64 32Z" />
<glyph unicode="4" glyph-name="four" horiz-adv-x="556" d="M278 146H-15L3 258Q75 348 136 456T254 698H406Q372 617 318 526T211 362T129 258H297L322 400Q349 437 380 494T431 596H494L434 258H516L497 146H415L389 0H252L278 146Z" />
<glyph unicode="5" glyph-name="five" horiz-adv-x="556" d="M132 -12T71 35T10 166Q10 190 14 213H155Q152 197 152 183Q152 144 173 122T235 100Q267 100 295 117T341 170T359 254Q359 295 337 316T278 338Q248 338 225 325T180 290L53 306L147 686H544L523
564H247L211 412Q237 427 264 436T327 446Q407 446 454 402T502 270Q502 184 467 120T373 22T239 -12Q132 -12 71 35Z" />
<glyph unicode="6" glyph-name="six" horiz-adv-x="556" d="M141 -12T84 38T27 204Q27 257 39 327Q72 530 144 614T331 698Q433 698 483 655T533 536Q533 513 528 483H391Q395 511 395 520Q395 587 327 587Q284 587 259 564T219 498T190 385Q193 387 211 401T261
427T329 439Q420 439 464 393T509 264Q509 183 475 120T382 23T252 -12Q141 -12 84 38ZM301 100T333 142T365 248Q365 287 346 308T286 330Q232 330 199 289T165 183Q165 145 185 123T246 100Q301 100 333 142Z" />
<glyph unicode="7" glyph-name="seven" horiz-adv-x="556" d="M95 155T186 302T398 564H73L95 686H588L572 595Q449 471 358 333T241 51Q233 2 233 0H68Q95 155 186 302Z" />
<glyph unicode="8" glyph-name="eight" horiz-adv-x="556" d="M116 -12T59 31T2 149Q2 219 38 272T143 352Q109 372 92 403T75 474Q75 534 105 585T193 667T325 698Q429 698 483 653T537 533Q537 475 505 427T414 352Q498 312 498 216Q498 154 469 102T380 19T235
-12Q116 -12 59 31ZM336 405T366 435T396 520Q396 553 377 570T321 588Q273 588 243 557T213 472Q213 405 288 405Q336 405 366 435ZM287 98T322 132T358 220Q358 257 335 276T269 296Q214 296 180 263T146 173Q146 137 168 118T234 98Q287 98 322 132Z" />
<glyph unicode="9" glyph-name="nine" horiz-adv-x="556" d="M122 -12T72 31T22 150Q22 173 27 203H164Q160 175 160 166Q160 99 228 99Q271 99 296 122T336 188T365 301Q362 299 344 285T294 259T226 247Q135 247 91 293T46 422Q46 503 80 566T173 663T303 698Q414
698 471 648T528 482Q528 430 516 359Q483 156 411 72T224 -12Q122 -12 72 31ZM323 356T356 397T390 503Q390 541 370 563T309 586Q254 586 222 544T190 438Q190 399 209 378T269 356Q323 356 356 397Z" />
<glyph unicode=":" glyph-name="colon" horiz-adv-x="333" d="M132 526H270L246 389H108L132 526ZM63 137H201L177 0H39L63 137Z" />
<glyph unicode=";" glyph-name="semicolon" horiz-adv-x="333" d="M132 526H270L245 389H107L132 526ZM93 0H38L63 137H201L179 12L83 -156H11L93 0Z" />
<glyph unicode="&lt;" glyph-name="less" horiz-adv-x="584" d="M36 198L59 325L567 522L547 400L149 258L496 116L476 2L36 198Z" />
<glyph unicode="=" glyph-name="equal" horiz-adv-x="584" d="M76 412H548L530 308H58L76 412ZM39 199H511L493 96H21L39 199Z" />
<glyph unicode="&gt;" glyph-name="greater" horiz-adv-x="584" d="M26 124L424 266L77 408L97 522L537 326L514 199L6 2L26 124Z" />
<glyph unicode="?" glyph-name="question" horiz-adv-x="611" d="M208 240Q216 290 236 325T281 381T343 429Q381 456 398 474T416 520Q416 577 331 577Q275 577 244 543T212 459H73Q73 532 108 586T205 669T342 698Q453 698 511 657T570 535Q570 488 551 453T506
394T435 341Q386 307 362 283T331 225L326 197H201L208 240ZM188 137H326L302 0H164L188 137Z" />
<glyph unicode="@" glyph-name="at" horiz-adv-x="975" d="M671 698T759 660T893 550T939 379Q939 293 909 211T812 76T646 22Q604 22 574 38T543 90V95H537Q512 60 475 41T395 21Q324 21 282 70T239 210Q239 280 261 352T332 472T452 521Q501 521 533 504T588
454H594L621 510H727Q663 156 663 148Q663 135 671 129T700 123Q745 123 780 159T834 255T853 379Q853 492 773 556T544 621Q336 621 226 521T116 219Q116 80 188 2T431 -76Q478 -76 518 -72T583 -64T613 -58L602 -139Q510 -153 431 -153Q216 -153 123 -57T29 212Q29
698 544 698Q671 698 759 660ZM486 130T514 162T554 240T567 325Q567 416 490 416Q424 416 396 353T368 217Q368 173 386 152T443 130Q486 130 514 162Z" />
<glyph unicode="A" glyph-name="A" horiz-adv-x="722" d="M334 686H516L663 0H515L488 131H173L101 0H-54L334 686ZM464 252L430 426Q426 447 419 496T409 561H404Q396 545 372 496T335 426L241 252H464Z" />
<glyph unicode="B" glyph-name="B" horiz-adv-x="722" d="M130 686H463Q569 686 628 645T688 525Q688 464 647 418T545 360V356Q592 340 621 301T650 206Q650 138 615 92T521 23T392 0H9L130 686ZM434 412Q484 412 508 437T533 497Q533 529 513 546T461 563H254L228
412H434ZM390 123Q438 123 470 147T502 215Q502 250 480 270T411 291H206L177 123H390Z" />
<glyph unicode="C" glyph-name="C" horiz-adv-x="722" d="M34 -12T34 256Q34 366 70 462T180 619Q226 657 287 677T423 698Q549 698 626 644T703 486Q703 463 698 431H549Q552 446 552 461Q552 517 516 546T418 575Q326 575 270 518T195 358Q183 292 183 260Q183
111 328 111Q405 111 457 149T523 254H667Q652 166 603 107T482 18T323 -12Q34 -12 34 256Z" />
<glyph unicode="D" glyph-name="D" horiz-adv-x="722" d="M130 686H404Q543 686 617 619T691 416Q691 324 663 243T579 104Q531 54 464 27T313 0H9L130 686ZM305 123Q396 123 454 177T530 328Q541 391 541 417Q541 487 503 525T392 563H253L176 123H305Z" />
<glyph unicode="E" glyph-name="E" horiz-adv-x="667" d="M130 686H669L647 563H253L227 412H577L555 289H205L176 123H576L554 0H9L130 686Z" />
<glyph unicode="F" glyph-name="F" horiz-adv-x="611" d="M130 686H627L605 563H253L223 394H538L517 271H202L154 0H9L130 686Z" />
<glyph unicode="G" glyph-name="G" horiz-adv-x="778" d="M588 452Q589 458 589 470Q589 518 548 546T446 575Q339 575 276 519T195 358Q183 285 183 260Q183 111 335 111Q419 111 482 150T557 254H350L371 373H724L658 0H558V76Q504 32 450 10T323 -12Q34 -12
34 258Q34 364 69 455T172 606Q223 651 291 674T443 698Q573 698 657 646T742 495Q742 472 738 452H588Z" />
<glyph unicode="H" glyph-name="H" horiz-adv-x="722" d="M130 686H275L227 414H525L573 686H718L597 0H452L503 289H205L154 0H9L130 686Z" />
<glyph unicode="I" glyph-name="I" horiz-adv-x="278" d="M130 686H275L154 0H9L130 686Z" />
<glyph unicode="J" glyph-name="J" horiz-adv-x="556" d="M110 -12T53 28T-5 145Q-5 181 7 236H151Q141 197 141 175Q141 141 158 126T218 110Q262 110 289 132T323 195L410 686H556L469 193Q451 92 388 40T219 -12Q110 -12 53 28Z" />
<glyph unicode="K" glyph-name="K" horiz-adv-x="722" d="M130 686H275L218 363L577 686H768L452 405L651 0H487L341 307L187 186L154 0H9L130 686Z" />
<glyph unicode="L" glyph-name="L" horiz-adv-x="611" d="M130 686H275L176 126H546L524 0H9L130 686Z" />
<glyph unicode="M" glyph-name="M" horiz-adv-x="833" d="M130 686H346L375 308Q377 280 378 226T380 153H385Q391 172 410 227T440 308L603 686H829L708 0H563L640 437Q646 467 654 500T665 547H660L624 464L425 0H282L250 464L244 547H239Q238 534 234 494T226
437L149 0H9L130 686Z" />
<glyph unicode="N" glyph-name="N" horiz-adv-x="722" d="M130 686H271L467 298Q475 281 483 261T495 234H500L508 292L577 686H718L597 0H456L260 391Q249 413 242 430T232 454H227Q226 447 224 429T219 394L150 0H9L130 686Z" />
<glyph unicode="O" glyph-name="O" horiz-adv-x="778" d="M196 -12T115 55T34 257Q34 303 40 346Q65 510 167 604T432 698Q583 698 665 631T747 429Q747 386 741 344Q726 235 675 155T540 32T347 -12Q196 -12 115 55ZM445 111T507 168T586 328Q597 390 597 418Q597
493 556 534T433 575Q334 575 273 518T194 358Q183 294 183 268Q183 192 224 152T345 111Q445 111 507 168Z" />
<glyph unicode="P" glyph-name="P" horiz-adv-x="667" d="M130 686H397Q532 686 592 638T653 495Q653 371 577 304T368 236H196L154 0H9L130 686ZM366 359Q429 359 466 389T504 477Q504 563 402 563H253L217 359H366Z" />
<glyph unicode="Q" glyph-name="Q" horiz-adv-x="778" d="M358 -11L347 -12Q196 -12 115 55T34 257Q34 363 68 453T170 604Q219 650 285 674T432 698Q583 698 665 631T747 429Q747 288 685 177T507 18L636 -130H461L358 -11ZM441 111T504 168T586 328Q597 390
597 418Q597 493 558 534T440 575Q338 575 275 518T194 358Q183 294 183 268Q183 192 222 152T339 111Q441 111 504 168Z" />
<glyph unicode="R" glyph-name="R" horiz-adv-x="722" d="M130 686H444Q568 686 630 637T692 496Q692 412 648 356T533 277L624 0H471L395 256H199L154 0H9L130 686ZM426 377Q482 377 512 406T542 485Q542 522 519 542T449 563H253L220 377H426Z" />
<glyph unicode="S" glyph-name="S" horiz-adv-x="667" d="M181 -12T99 34T16 167Q16 193 24 223H171Q170 219 168 209T166 191Q166 154 200 133T299 111Q379 111 415 134T452 195Q452 220 433 237T385 266T306 293Q236 314 193 333T118 388T87 480Q87 551 124
600T226 673T372 698Q492 698 565 657T639 534Q639 515 634 484H490Q493 497 493 506Q493 538 463 556T378 575Q311 575 274 556T236 502Q236 480 254 465T298 441T375 416Q447 395 492 375T571 319T604 225Q604 142 563 89T455 12T310 -12Q181 -12 99 34Z" />
<glyph unicode="T" glyph-name="T" horiz-adv-x="611" d="M275 561H63L85 686H654L632 561H420L321 0H176L275 561Z" />
<glyph unicode="U" glyph-name="U" horiz-adv-x="722" d="M194 -12T124 41T54 200Q54 230 60 263L134 686H279L204 262Q200 238 200 223Q200 111 326 111Q397 111 443 149T502 262L577 686H722L646 255Q599 -12 324 -12Q194 -12 124 41Z" />
<glyph unicode="V" glyph-name="V" horiz-adv-x="667" d="M71 686H219L282 310Q288 273 294 229T304 168H309Q317 185 338 229T379 310L573 686H729L360 0H198L71 686Z" />
<glyph unicode="W" glyph-name="W" horiz-adv-x="944" d="M66 686H202L231 264Q232 236 232 208T233 168H238Q241 179 251 212T268 264L443 686H618L644 264Q646 238 646 209T646 168H651Q654 178 663 210T681 264L857 686H1004L701 0H538L508 437Q506 467 506
495T505 534H501Q498 523 488 489T470 437L282 0H119L66 686Z" />
<glyph unicode="X" glyph-name="X" horiz-adv-x="667" d="M252 365L82 686H245L348 478H353L527 686H704L419 354L605 0H443L323 239H318L118 0H-60L252 365Z" />
<glyph unicode="Y" glyph-name="Y" horiz-adv-x="667" d="M252 277L62 686H211L340 406H345L570 686H729L397 277L348 0H203L252 277Z" />
<glyph unicode="Z" glyph-name="Z" horiz-adv-x="611" d="M-26 68L396 563H86L108 686H642L630 617L208 123H552L530 0H-38L-26 68Z" />
<glyph unicode="[" glyph-name="bracketleft" horiz-adv-x="333" d="M142 735H358L342 640H242L117 -66H217L201 -161H-14L142 735Z" />
<glyph unicode="\" glyph-name="backslash" horiz-adv-x="278" d="M74 735H169L211 -49H115L74 735Z" />
<glyph unicode="]" glyph-name="bracketright" horiz-adv-x="333" d="M-27 -66H72L197 640H97L113 735H329L172 -161H-43L-27 -66Z" />
<glyph unicode="^" glyph-name="asciicircum" horiz-adv-x="469" d="M241 686H348L436 294H330L277 564L130 294H17L241 686Z" />
<glyph unicode="_" glyph-name="underscore" horiz-adv-x="556" d="M-62 -62H494L477 -160H-78L-62 -62Z" />
<glyph unicode="`" glyph-name="grave" horiz-adv-x="333" d="M86 720L87 723H215L271 591H171L86 720Z" />
<glyph unicode="a" glyph-name="a" horiz-adv-x="591" d="M484 114T492 107T513 100H542L525 4Q491 -12 443 -12Q404 -12 380 10T351 69H345Q317 30 276 9T189 -12Q110 -12 64 41T17 196Q17 273 42 352T120 484T252 538Q305 538 341 520T401 465H407L438 526H554L512
286Q484 128 484 127Q484 114 492 107ZM289 107T319 143T363 229T377 322Q377 423 293 423Q243 423 213 387T171 300T159 204Q159 107 242 107Q289 107 319 143Z" />
<glyph unicode="b" glyph-name="b" horiz-adv-x="611" d="M258 -12T218 8T158 69H151L130 0H13L140 723H277L232 465H238Q264 500 302 519T388 538Q472 538 521 486T570 331Q570 252 544 174T461 42T314 -12Q258 -12 218 8ZM336 103T369 139T415 226T428 322Q428
370 406 394T338 419Q286 419 253 383T205 297T190 204Q190 154 213 129T281 103Q336 103 369 139Z" />
<glyph unicode="c" glyph-name="c" horiz-adv-x="556" d="M134 -12T76 37T17 187Q17 281 46 360T139 489T300 538Q403 538 462 497T522 376Q522 351 518 328H380Q382 346 382 354Q382 390 362 409T303 428Q247 428 214 389T166 271Q157 223 157 197Q157 148 179
123T251 98Q298 98 326 124T363 198H495Q479 93 417 41T253 -12Q134 -12 76 37Z" />
<glyph unicode="d" glyph-name="d" horiz-adv-x="611" d="M116 -12T67 39T18 196Q18 273 44 352T125 484T263 538Q320 538 358 520T422 465H428L473 723H610L483 0H369V69H362Q332 31 292 10T208 -12Q116 -12 67 39ZM327 107T362 172T398 322Q398 372 375 397T307
423Q225 423 193 354T160 204Q160 156 182 132T250 107Q327 107 362 172Z" />
<glyph unicode="e" glyph-name="e" horiz-adv-x="556" d="M135 -12T76 37T17 187Q17 280 46 359T138 488T301 538Q411 538 465 490T519 341Q519 300 511 263L505 231H159Q155 208 155 185Q155 139 177 117T250 94Q345 94 362 186H497Q482 87 418 38T254 -12Q135
-12 76 37ZM379 322Q382 340 382 356Q382 431 307 431Q255 431 224 404T177 322H379Z" />
<glyph unicode="f" glyph-name="f" horiz-adv-x="333" d="M-26 -182T-53 -177T-98 -166L-81 -70H-31Q11 -70 19 -27L97 414H22L42 526H117L127 586Q137 648 175 689T285 731Q308 731 335 726T380 715L363 619H313Q271 619 263 576L254 526H347L327 414H234L155
-37Q145 -99 107 -140T-3 -182Q-26 -182 -53 -177Z" />
<glyph unicode="g" glyph-name="g" horiz-adv-x="611" d="M118 -182T59 -145T-1 -35V-25H132Q136 -49 157 -59T221 -70Q332 -70 356 59L362 91H356Q328 55 292 37T204 18Q124 18 73 68T22 216Q22 293 49 367T134 489T275 538Q330 538 370 518T430 457H437L458
526H575L493 63Q471 -62 405 -122T216 -182Q118 -182 59 -145ZM306 137T339 167T386 241T401 329Q401 374 378 396T310 419Q230 419 197 359T164 224Q164 180 185 159T253 137Q306 137 339 167Z" />
<glyph unicode="h" glyph-name="h" horiz-adv-x="611" d="M144 723H281L236 465H243Q273 497 315 517T405 538Q471 538 513 504T555 398Q555 366 545 313L489 0H352L406 304Q412 340 412 352Q412 417 345 417Q292 417 254 380T203 274L154 0H17L144 723Z" />
<glyph unicode="i" glyph-name="i" horiz-adv-x="278" d="M140 723H277L255 599H118L140 723ZM106 526H243L150 0H13L106 526Z" />
<glyph unicode="j" glyph-name="j" horiz-adv-x="278" d="M140 723H277L255 599H118L140 723ZM-34 -182T-63 -177T-110 -166L-94 -70H-42Q0 -70 8 -27L106 526H243L143 -41Q133 -101 96 -141T-9 -182Q-34 -182 -63 -177Z" />
<glyph unicode="k" glyph-name="k" horiz-adv-x="556" d="M140 723H277L205 315L417 526H575L366 319L492 0H345L268 222L177 152L150 0H13L140 723Z" />
<glyph unicode="l" glyph-name="l" horiz-adv-x="278" d="M140 723H277L150 0H13L140 723Z" />
<glyph unicode="m" glyph-name="m" horiz-adv-x="889" d="M110 526H225V455H232Q303 538 391 538Q440 538 473 518T520 455H528Q601 538 693 538Q758 538 796 504T834 397Q834 366 824 313L767 0H630L684 304Q690 342 690 355Q690 417 627 417Q585 417 554 380T512
284L461 0H324L378 304Q384 342 384 355Q384 417 321 417Q279 417 247 379T205 284L154 0H17L110 526Z" />
<glyph unicode="n" glyph-name="n" horiz-adv-x="611" d="M110 526H225V455H232Q261 491 307 514T405 538Q471 538 513 504T555 398Q555 366 545 313L489 0H352L406 304Q412 340 412 352Q412 417 345 417Q292 417 254 380T203 274L154 0H17L110 526Z" />
<glyph unicode="o" glyph-name="o" horiz-adv-x="611" d="M195 -12T142 16T57 94T24 207Q24 256 31 294Q51 412 123 475T322 538Q391 538 445 510T530 432T563 319Q563 270 556 232Q536 114 464 51T263 -12Q195 -12 142 16ZM341 100T378 139T426 259Q430 286 430
317Q429 368 399 397T314 426Q246 426 209 387T161 267Q157 240 157 209Q158 158 188 129T273 100Q341 100 378 139Z" />
<glyph unicode="p" glyph-name="p" horiz-adv-x="611" d="M104 526H218V457H225Q255 495 295 516T379 538Q471 538 520 487T569 330Q569 253 543 174T462 42T324 -12Q267 -12 229 6T165 61H159L118 -173H-19L104 526ZM362 103T394 172T427 322Q427 370 405 394T337
419Q260 419 225 354T189 204Q189 154 212 129T280 103Q362 103 394 172Z" />
<glyph unicode="q" glyph-name="q" horiz-adv-x="611" d="M356 61H350Q324 26 286 7T200 -12Q116 -12 67 40T18 195Q18 274 44 352T127 484T274 538Q330 538 370 518T430 457H437L458 526H575L452 -173H315L356 61ZM302 107T335 143T383 229T398 322Q398 372 375
397T307 423Q252 423 219 387T173 300T160 204Q160 156 182 132T250 107Q302 107 335 143Z" />
<glyph unicode="r" glyph-name="r" horiz-adv-x="389" d="M110 526H223V441H230Q255 488 283 513T356 538Q377 538 394 534T412 529L390 401H352Q285 401 249 365T199 254L154 0H17L110 526Z" />
<glyph unicode="s" glyph-name="s" horiz-adv-x="556" d="M128 -12T68 25T8 128Q8 142 11 153T15 167H148Q145 160 145 152Q145 122 172 108T241 94Q285 94 317 106T349 148Q349 173 323 185T238 214Q182 228 146 242T84 284T58 357Q58 444 126 491T300 538Q396
538 456 506T516 416Q516 402 513 389T509 372H376L377 382Q377 407 356 419T296 432Q252 432 226 420T199 384Q199 362 225 350T305 326Q362 313 399 299T464 257T491 180Q491 79 419 34T237 -12Q128 -12 68 25Z" />
<glyph unicode="t" glyph-name="t" horiz-adv-x="333" d="M93 -12T64 17T35 93Q35 110 48 185L88 414H25L45 526H108L134 674H278L245 526H336L316 414H225L182 170Q176 137 176 129Q176 115 185 108T213 100H261L244 4Q227 -2 204 -7T161 -12Q93 -12 64 17Z" />
<glyph unicode="u" glyph-name="u" horiz-adv-x="611" d="M121 -12T79 22T36 128Q36 154 47 213L103 526H240L186 222Q180 186 180 174Q180 109 247 109Q300 109 338 146T389 252L438 526H575L482 0H367V71H360Q331 35 285 12T187 -12Q121 -12 79 22Z" />
<glyph unicode="v" glyph-name="v" horiz-adv-x="556" d="M47 526H184L226 300Q231 274 238 218T247 142H252Q259 160 281 215T319 300L440 526H585L295 0H150L47 526Z" />
<glyph unicode="w" glyph-name="w" horiz-adv-x="778" d="M43 526H178L197 310Q199 287 201 232T203 159H207Q213 176 232 228T264 309L356 526H497L515 308Q518 264 520 220T524 159H528Q533 174 551 223T584 308L677 526H813L564 0H422L406 251Q404 282 404
319T403 367H398Q395 356 383 320T357 252L249 0H107L43 526Z" />
<glyph unicode="x" glyph-name="x" horiz-adv-x="556" d="M190 274L54 526H205L281 374H287L415 526H572L343 268L489 0H337L254 166H248L105 0H-53L190 274Z" />
<glyph unicode="y" glyph-name="y" horiz-adv-x="556" d="M38 -182T18 -179T-13 -173T-27 -169L-11 -73H54Q89 -73 114 -56T160 0L47 526H182L237 279Q243 253 249 206T257 142H262Q268 157 286 203T319 278L441 526H585L326 27Q274 -72 213 -127T64 -182Q38 -182
18 -179Z" />
<glyph unicode="z" glyph-name="z" horiz-adv-x="500" d="M-14 61L286 414H62L82 526H515L504 466L202 112H451L431 0H-25L-14 61Z" />
<glyph unicode="{" glyph-name="braceleft" horiz-adv-x="389" d="M188 -159T147 -150T83 -116T61 -44Q61 -24 69 23T86 114Q100 179 100 191Q100 217 75 229T12 242L29 334Q69 334 99 348T136 394L170 587Q181 649 208 681T283 724T413 735L400 658Q359 658 328
645T290 597Q284 560 265 477Q253 427 248 401Q240 364 226 341T183 306T101 293L100 283Q159 283 185 262T211 198Q211 185 204 132T188 28L180 -32Q180 -82 269 -82L256 -159Q188 -159 147 -150Z" />
<glyph unicode="|" glyph-name="bar" horiz-adv-x="280" d="M90 723H190V-173H90V723Z" />
<glyph unicode="}" glyph-name="braceright" horiz-adv-x="389" d="M-31 -82Q10 -82 41 -69T79 -21Q85 16 104 99Q116 149 121 175Q129 212 143 235T186 270T268 283L269 293Q210 293 184 314T158 378Q158 391 165 444T181 548L189 608Q189 658 100 658L113 735Q181
735 222 726T286 692T308 620Q308 600 300 553T283 462Q269 397 269 385Q269 359 294 347T357 334L340 242Q300 242 270 228T233 182L199 -11Q188 -73 161 -105T86 -148T-44 -159L-31 -82Z" />
<glyph unicode="~" glyph-name="asciitilde" horiz-adv-x="584" d="M44 318Q44 320 66 339T123 374T201 390Q226 390 248 383T301 360Q331 345 354 338T403 330Q441 330 476 346T535 381T560 402L539 283Q539 281 517 262T460 227T382 211Q357 211 335 218T282
241Q252 256 229 263T180 271Q142 271 107 255T48 220T23 199L44 318Z" />
<glyph unicode="&#xa0;" glyph-name="uni00A0" horiz-adv-x="278" />
<glyph unicode="&#xa1;" glyph-name="exclamdown" horiz-adv-x="333" d="M139 526H277L253 389H115L139 526ZM135 329H217L164 -160H11L135 329Z" />
<glyph unicode="&#xa2;" glyph-name="cent" horiz-adv-x="556" d="M211 71Q120 82 75 130T30 267Q30 360 59 439T150 567T308 618L327 723H378L359 615Q442 607 488 567T535 456Q535 431 531 408H393Q395 426 395 434Q395 464 381 482T339 506L281 179Q320 183
344 208T376 278H508Q491 174 430 121T262 68L241 -49H190L211 71ZM288 505Q204 488 179 351Q170 303 170 277Q170 197 231 181L288 505Z" />
<glyph unicode="&#xa3;" glyph-name="sterling" horiz-adv-x="556" d="M-1 112H60L90 282H16L34 394H109L128 499Q146 598 205 648T362 698Q461 698 516 660T571 548Q571 521 565 491H429Q433 514 433 524Q433 553 415 569T362 586Q325 586 300 566T268 512L247
394H403L384 282H226L184 112H490L470 0H-21L-1 112Z" />
<glyph unicode="&#xa4;" glyph-name="currency" horiz-adv-x="556" d="M29 144L83 200Q58 231 46 270T33 351Q33 394 45 433T83 501L28 555L76 603L133 547Q161 571 199 584T278 598Q318 598 356 585T423 547L480 603L528 555L473 501Q498 473 510 434T523 351Q523
309 511 270T473 200L527 144L482 99L427 157Q398 130 359 116T278 102Q236 102 197 116T129 157L74 99L29 144ZM322 181T359 204T419 267T441 351Q441 395 419 433T360 495T278 519Q234 519 197 496T137 434T115 351Q115 306 137 267T196 205T278 181Q322 181
359 204Z" />
<glyph unicode="&#xa5;" glyph-name="yen" horiz-adv-x="556" d="M175 142H-13L0 223H189L202 293H13L27 374H182L149 459L60 686H207L267 499L289 432H294L339 498L468 686H617L439 446L386 374H542L528 293H339L326 223H515L501 142H312L287 0H150L175 142Z" />
<glyph unicode="&#xa6;" glyph-name="brokenbar" horiz-adv-x="280" d="M90 723H190V357H90V723ZM90 193H190V-173H90V193Z" />
<glyph unicode="&#xa7;" glyph-name="section" horiz-adv-x="556" d="M111 -182T53 -149T-6 -59Q-6 -46 -3 -32T1 -16H140Q139 -20 139 -28Q139 -76 209 -76Q248 -76 274 -59T301 -12Q301 13 277 31T198 77Q146 103 113 124T56 178T32 256Q32 302 59 343T141 417Q95
458 95 523Q95 607 162 652T332 698Q426 698 484 666T543 576Q543 557 536 532H397Q398 536 398 544Q398 567 380 578T328 590Q288 590 262 573T236 528Q236 503 260 484T339 436Q391 409 424 387T480 332T504 252Q504 207 476 167T396 99Q442 58 442 0Q442 -87
375 -134T205 -182Q111 -182 53 -149ZM365 187T365 238Q365 266 349 287T307 322T240 356Q232 359 216 367Q171 327 171 277Q171 246 191 223T241 185T320 148Q365 187 365 238Z" />
<glyph unicode="&#xa8;" glyph-name="dieresis" horiz-adv-x="333" d="M12 723H130L109 605H-8L12 723ZM222 723H341L320 605H201L222 723Z" />
<glyph unicode="&#xa9;" glyph-name="copyright" horiz-adv-x="737" d="M272 -12T191 36T61 165T13 343Q13 439 61 520T190 650T368 698Q464 698 545 650T675 521T723 343Q723 247 675 166T546 36T368 -12Q272 -12 191 36ZM447 50T514 89T620 196T659 343Q659
422 620 489T514 596T368 636Q289 636 222 597T116 490T77 343Q77 263 116 196T222 90T368 50Q447 50 514 89ZM276 131T233 182T189 341Q189 450 232 501T368 552Q451 552 489 511T528 386H450Q450 439 432 462T368 486Q316 486 292 453T268 341Q268 264 291 231T368
197Q413 197 433 222T454 297H528Q528 225 489 178T368 131Q276 131 233 182Z" />
<glyph unicode="&#xaa;" glyph-name="ordfeminine" horiz-adv-x="370" d="M344 480T349 476T361 471H379L369 413Q344 403 319 403Q295 403 281 416T264 453H260Q243 429 218 416T165 403Q117 403 89 435T61 529Q61 576 76 624T123 704T203 737Q265 737 293 692H297L316
729H386Q344 494 344 488Q344 480 349 476ZM239 476T259 519T279 606Q279 636 266 651T228 667Q184 667 166 625T147 534Q147 476 197 476Q239 476 259 519Z" />
<glyph unicode="&#xab;" glyph-name="guillemotleft" horiz-adv-x="556" d="M283 326L444 526H553L410 326L482 126H383L283 326ZM59 326L220 526H329L186 326L258 126H159L59 326Z" />
<glyph unicode="&#xac;" glyph-name="logicalnot" horiz-adv-x="584" d="M449 357H47L65 455H565L518 193H420L449 357Z" />
<glyph unicode="&#xad;" glyph-name="uni00AD" horiz-adv-x="333" d="M48 329H289L268 211H27L48 329Z" />
<glyph unicode="&#xae;" glyph-name="registered" horiz-adv-x="737" d="M272 -12T191 36T61 165T13 343Q13 439 61 520T190 650T368 698Q464 698 545 650T675 521T723 343Q723 247 675 166T546 36T368 -12Q272 -12 191 36ZM447 50T514 89T620 196T659 343Q659
422 620 489T514 596T368 636Q289 636 222 597T116 490T77 343Q77 263 116 196T222 90T368 50Q447 50 514 89ZM220 551H412Q475 551 508 517T541 425Q541 384 524 354T472 308L559 138H475L397 294H298V138H220V551ZM402 361Q429 361 445 378T462 425Q462 454 447
469T402 485H298V361H402Z" />
<glyph unicode="&#xaf;" glyph-name="overscore" horiz-adv-x="333" d="M17 699H322L307 611H2L17 699Z" />
<glyph unicode="&#xb0;" glyph-name="degree" horiz-adv-x="400" d="M157 386T122 407T65 463T44 542Q44 585 65 620T121 677T200 698Q243 698 278 677T335 621T356 542Q356 499 335 464T279 407T200 386Q157 386 122 407ZM231 468T252 489T273 542Q273 573 252
594T200 615Q169 615 148 594T126 542Q126 511 147 490T200 468Q231 468 252 489Z" />
<glyph unicode="&#xb1;" glyph-name="plusminus" horiz-adv-x="549" d="M224 352H42L61 456H243L279 660H386L350 456H533L514 352H331L296 149H189L224 352ZM0 104H471L452 0H-19L0 104Z" />
<glyph unicode="&#xb2;" glyph-name="uni00B2" horiz-adv-x="333" d="M35 354Q42 400 73 431T161 498Q207 529 228 549T250 596Q250 610 242 619T215 629Q169 629 162 586L159 568H79Q79 631 118 664T220 698Q285 698 309 669T333 601Q333 543 293 504T187 427Q155
408 150 404H300L287 329H31L35 354Z" />
<glyph unicode="&#xb3;" glyph-name="uni00B3" horiz-adv-x="333" d="M115 325T84 348T52 412Q52 427 55 442H138Q136 431 136 425Q136 409 146 401T177 393Q200 393 215 406T230 446Q230 480 187 480H155L167 549H191Q215 549 233 562T251 601Q251 630 218 630Q181
630 171 589L170 584H87L89 596Q96 642 133 670T219 698Q274 698 305 675T336 607Q336 574 319 554T266 518V515Q314 493 314 439Q314 387 274 356T176 325Q115 325 84 348Z" />
<glyph unicode="&#xb4;" glyph-name="acute" horiz-adv-x="333" d="M160 723H298L299 720L168 591H58L160 723Z" />
<glyph unicode="&#xb5;" glyph-name="uni00B5" horiz-adv-x="576" d="M86 526H223L169 222Q163 186 163 174Q163 109 230 109Q283 109 321 146T372 252L421 526H558L465 0H350V71H343Q314 35 268 12T170 -12Q147 -12 128 -8L99 -173H-38L86 526Z" />
<glyph unicode="&#xb6;" glyph-name="paragraph" horiz-adv-x="556" d="M221 253Q143 253 92 299T40 430Q40 507 74 565T169 654T307 686H593L582 625H521L381 -168H297L437 625H371L231 -168H147L221 253Z" />
<glyph unicode="&#xb7;" glyph-name="middot" horiz-adv-x="333" d="M116 426H254L229 289H91L116 426Z" />
<glyph unicode="&#xb8;" glyph-name="cedilla" horiz-adv-x="333" d="M75 -182T29 -174L38 -125H126Q150 -125 162 -119T175 -96Q175 -86 167 -82T137 -77H96L125 11H210L196 -33Q235 -35 259 -51T283 -98Q283 -144 235 -163T131 -182Q75 -182 29 -174Z" />
<glyph unicode="&#xb9;" glyph-name="uni00B9" horiz-adv-x="333" d="M63 405H145L178 590H96L106 645Q131 647 168 659T235 686H278L228 405H302L289 330H50L63 405Z" />
<glyph unicode="&#xba;" glyph-name="ordmasculine" horiz-adv-x="365" d="M135 404T97 434T58 527Q58 615 100 676T235 737Q314 737 353 707T392 613Q392 525 349 465T213 404Q135 404 97 434ZM248 472T270 495T300 566Q305 592 305 608Q305 639 290 654T241
669Q201 669 180 646T149 575Q144 549 144 533Q144 472 207 472Q248 472 270 495Z" />
<glyph unicode="&#xbb;" glyph-name="guillemotright" horiz-adv-x="556" d="M367 326L294 526H393L494 326L332 126H223L367 326ZM147 326L74 526H173L274 326L112 126H3L147 326Z" />
<glyph unicode="&#xbc;" glyph-name="onequarter" horiz-adv-x="834" d="M709 698H805L134 -12H38L709 698ZM61 405H143L176 590H94L104 645Q129 647 166 659T233 686H276L226 405H300L287 330H48L61 405ZM617 71H457L468 135Q535 217 604 369H698Q671 309 625
242T547 140H629L637 188Q665 227 694 288H738L712 140H752L740 71H700L687 1H604L617 71Z" />
<glyph unicode="&#xbd;" glyph-name="onehalf" horiz-adv-x="834" d="M710 698H806L135 -12H39L710 698ZM62 405H144L177 590H95L105 645Q130 647 167 659T234 686H277L227 405H301L288 330H49L62 405ZM476 25Q483 71 514 102T602 169Q648 200 669 220T691 267Q691
281 683 290T656 300Q610 300 603 257L600 239H520Q520 302 559 335T661 369Q726 369 750 340T774 272Q774 214 734 175T628 98Q595 78 591 75H741L728 0H472L476 25Z" />
<glyph unicode="&#xbe;" glyph-name="threequarters" horiz-adv-x="834" d="M713 698H809L138 -12H42L713 698ZM124 325T93 348T61 412Q61 427 64 442H147Q145 431 145 425Q145 409 155 401T186 393Q209 393 224 406T239 446Q239 480 196 480H164L176 549H200Q224
549 242 562T260 601Q260 630 227 630Q190 630 180 588L179 584H96L98 596Q105 642 142 670T228 698Q283 698 314 675T345 607Q345 574 328 554T276 519L275 515Q323 493 323 439Q323 387 283 356T185 325Q124 325 93 348ZM621 71H461L472 135Q539 217 608 369H702Q675
309 629 242T551 140H633L641 188Q669 227 698 288H742L716 140H756L744 71H704L691 1H608L621 71Z" />
<glyph unicode="&#xbf;" glyph-name="questiondown" horiz-adv-x="611" d="M308 526H446L422 389H284L308 526ZM157 -172T99 -131T40 -9Q40 38 59 73T104 132T175 185Q224 219 248 243T279 301L284 329H409L402 286Q394 236 374 201T329 145T267 97Q229 70 212
52T194 6Q194 -51 279 -51Q335 -51 366 -17T398 67H537Q537 -6 502 -60T405 -143T268 -172Q157 -172 99 -131Z" />
<glyph unicode="&#xc0;" glyph-name="Agrave" horiz-adv-x="722" d="M334 686H516L663 0H515L488 131H173L101 0H-54L334 686ZM464 252L430 426Q426 447 419 496T409 561H404Q396 545 372 496T335 426L241 252H464ZM298 865L299 868H427L483 736H383L298 865Z" />
<glyph unicode="&#xc1;" glyph-name="Aacute" horiz-adv-x="722" d="M334 686H516L663 0H515L488 131H173L101 0H-54L334 686ZM464 252L430 426Q426 447 419 496T409 561H404Q396 545 372 496T335 426L241 252H464ZM480 868H618L619 865L488 736H378L480 868Z" />
<glyph unicode="&#xc2;" glyph-name="Acircumflex" horiz-adv-x="722" d="M334 686H516L663 0H515L488 131H173L101 0H-54L334 686ZM464 252L430 426Q426 447 419 496T409 561H404Q396 545 372 496T335 426L241 252H464ZM388 868H510L592 733H486L441 802L379
733H260L388 868Z" />
<glyph unicode="&#xc3;" glyph-name="Atilde" horiz-adv-x="722" d="M334 686H516L663 0H515L488 131H173L101 0H-54L334 686ZM464 252L430 426Q426 447 419 496T409 561H404Q396 545 372 496T335 426L241 252H464ZM277 799T305 833T381 868Q398 868 412 864T450
849Q470 840 484 836T513 831Q528 831 537 839T554 868H624Q615 815 586 781T509 746Q493 746 479 750T441 765Q421 774 407 778T378 783Q363 783 354 775T337 746H268Q277 799 305 833Z" />
<glyph unicode="&#xc4;" glyph-name="Adieresis" horiz-adv-x="722" d="M334 686H516L663 0H515L488 131H173L101 0H-54L334 686ZM464 252L430 426Q426 447 419 496T409 561H404Q396 545 372 496T335 426L241 252H464ZM293 868H411L390 750H273L293 868ZM503 868H622L601
750H482L503 868Z" />
<glyph unicode="&#xc5;" glyph-name="Aring" horiz-adv-x="722" d="M334 686H516L663 0H515L488 131H173L101 0H-54L334 686ZM464 252L430 426Q426 447 419 496T409 561H404Q396 545 372 496T335 426L241 252H464ZM388 701T364 724T340 785Q340 833 372 868T455
903Q498 903 521 879T545 817Q545 769 512 735T430 701Q388 701 364 724ZM456 758T472 773T488 810Q488 826 478 836T450 846Q428 846 413 831T398 792Q398 777 408 768T435 758Q456 758 472 773Z" />
<glyph unicode="&#xc6;" glyph-name="AE" horiz-adv-x="1000" d="M390 686H1002L980 563H593L607 412H910L888 289H618L633 123H909L887 0H505L494 131H178L95 0H-62L390 686ZM484 252L459 563H454L255 252H484Z" />
<glyph unicode="&#xc7;" glyph-name="Ccedilla" horiz-adv-x="722" d="M549 431Q552 446 552 461Q552 517 516 546T418 575Q326 575 270 518T195 358Q183 292 183 260Q183 111 328 111Q405 111 457 149T523 254H667Q646 131 560 64T351 -11L344 -33Q383 -35 407
-51T431 -98Q431 -144 383 -163T279 -182Q223 -182 177 -174L186 -125H274Q298 -125 310 -119T323 -96Q323 -86 315 -82T285 -77H244L266 -9Q34 15 34 256Q34 366 70 462T180 619Q226 657 287 677T423 698Q549 698 626 644T703 486Q703 463 698 431H549Z" />
<glyph unicode="&#xc8;" glyph-name="Egrave" horiz-adv-x="667" d="M130 686H669L647 563H253L227 412H577L555 289H205L176 123H576L554 0H9L130 686ZM275 865L276 868H404L460 736H360L275 865Z" />
<glyph unicode="&#xc9;" glyph-name="Eacute" horiz-adv-x="667" d="M130 686H669L647 563H253L227 412H577L555 289H205L176 123H576L554 0H9L130 686ZM457 868H595L596 865L465 736H355L457 868Z" />
<glyph unicode="&#xca;" glyph-name="Ecircumflex" horiz-adv-x="667" d="M130 686H669L647 563H253L227 412H577L555 289H205L176 123H576L554 0H9L130 686ZM365 868H487L569 733H463L418 802L356 733H237L365 868Z" />
<glyph unicode="&#xcb;" glyph-name="Edieresis" horiz-adv-x="667" d="M130 686H669L647 563H253L227 412H577L555 289H205L176 123H576L554 0H9L130 686ZM270 868H388L367 750H250L270 868ZM480 868H599L578 750H459L480 868Z" />
<glyph unicode="&#xcc;" glyph-name="Igrave" horiz-adv-x="278" d="M130 686H275L154 0H9L130 686ZM76 865L77 868H205L261 736H161L76 865Z" />
<glyph unicode="&#xcd;" glyph-name="Iacute" horiz-adv-x="278" d="M130 686H275L154 0H9L130 686ZM258 868H396L397 865L266 736H156L258 868Z" />
<glyph unicode="&#xce;" glyph-name="Icircumflex" horiz-adv-x="278" d="M130 686H275L154 0H9L130 686ZM166 868H288L370 733H264L219 802L157 733H38L166 868Z" />
<glyph unicode="&#xcf;" glyph-name="Idieresis" horiz-adv-x="278" d="M130 686H275L154 0H9L130 686ZM71 868H189L168 750H51L71 868ZM281 868H400L379 750H260L281 868Z" />
<glyph unicode="&#xd0;" glyph-name="Eth" horiz-adv-x="722" d="M543 686T617 619T691 416Q691 324 663 243T579 104Q531 54 464 27T313 0H9L64 312H2L16 397H79L130 686H404Q543 686 617 619ZM541 391T541 417Q541 487 503 525T392 563H253L224 397H363L348
312H209L176 123H305Q396 123 454 177T530 328Q541 391 541 417Z" />
<glyph unicode="&#xd1;" glyph-name="Ntilde" horiz-adv-x="722" d="M130 686H271L467 298Q475 281 483 261T495 234H500L508 292L577 686H718L597 0H456L260 391Q249 413 242 430T232 454H227Q226 447 224 429T219 394L150 0H9L130 686ZM291 799T319 833T395
868Q412 868 426 864T464 849Q484 840 498 836T527 831Q542 831 551 839T568 868H638Q629 815 600 781T523 746Q507 746 493 750T455 765Q435 774 421 778T392 783Q377 783 368 775T351 746H282Q291 799 319 833Z" />
<glyph unicode="&#xd2;" glyph-name="Ograve" horiz-adv-x="778" d="M196 -12T115 55T34 257Q34 303 40 346Q65 510 167 604T432 698Q583 698 665 631T747 429Q747 386 741 344Q726 235 675 155T540 32T347 -12Q196 -12 115 55ZM445 111T507 168T586 328Q597 390
597 418Q597 493 556 534T433 575Q334 575 273 518T194 358Q183 294 183 268Q183 192 224 152T345 111Q445 111 507 168ZM300 865L301 868H429L485 736H385L300 865Z" />
<glyph unicode="&#xd3;" glyph-name="Oacute" horiz-adv-x="778" d="M196 -12T115 55T34 257Q34 303 40 346Q65 510 167 604T432 698Q583 698 665 631T747 429Q747 386 741 344Q726 235 675 155T540 32T347 -12Q196 -12 115 55ZM445 111T507 168T586 328Q597 390
597 418Q597 493 556 534T433 575Q334 575 273 518T194 358Q183 294 183 268Q183 192 224 152T345 111Q445 111 507 168ZM482 868H620L621 865L490 736H380L482 868Z" />
<glyph unicode="&#xd4;" glyph-name="Ocircumflex" horiz-adv-x="778" d="M196 -12T115 55T34 257Q34 303 40 346Q65 510 167 604T432 698Q583 698 665 631T747 429Q747 386 741 344Q726 235 675 155T540 32T347 -12Q196 -12 115 55ZM445 111T507 168T586 328Q597
390 597 418Q597 493 556 534T433 575Q334 575 273 518T194 358Q183 294 183 268Q183 192 224 152T345 111Q445 111 507 168ZM390 868H512L594 733H488L443 802L381 733H262L390 868Z" />
<glyph unicode="&#xd5;" glyph-name="Otilde" horiz-adv-x="778" d="M196 -12T115 55T34 257Q34 303 40 346Q65 510 167 604T432 698Q583 698 665 631T747 429Q747 386 741 344Q726 235 675 155T540 32T347 -12Q196 -12 115 55ZM445 111T507 168T586 328Q597 390
597 418Q597 493 556 534T433 575Q334 575 273 518T194 358Q183 294 183 268Q183 192 224 152T345 111Q445 111 507 168ZM279 799T307 833T383 868Q400 868 414 864T452 849Q472 840 486 836T515 831Q530 831 539 839T556 868H626Q617 815 588 781T511 746Q495
746 481 750T443 765Q423 774 409 778T380 783Q365 783 356 775T339 746H270Q279 799 307 833Z" />
<glyph unicode="&#xd6;" glyph-name="Odieresis" horiz-adv-x="778" d="M196 -12T115 55T34 257Q34 303 40 346Q65 510 167 604T432 698Q583 698 665 631T747 429Q747 386 741 344Q726 235 675 155T540 32T347 -12Q196 -12 115 55ZM445 111T507 168T586 328Q597
390 597 418Q597 493 556 534T433 575Q334 575 273 518T194 358Q183 294 183 268Q183 192 224 152T345 111Q445 111 507 168ZM295 868H413L392 750H275L295 868ZM505 868H624L603 750H484L505 868Z" />
<glyph unicode="&#xd7;" glyph-name="multiply" horiz-adv-x="584" d="M47 113L220 258L103 400L183 471L300 329L473 475L537 397L364 251L481 110L400 39L284 181L111 35L47 113Z" />
<glyph unicode="&#xd8;" glyph-name="Oslash" horiz-adv-x="778" d="M94 75Q34 143 34 257Q34 365 70 458T175 611Q223 653 288 675T432 698Q554 698 631 654L707 735H801L685 611Q747 543 747 429Q747 330 717 244T629 97Q578 44 507 16T347 -12Q222 -12 147
32L72 -49H-22L94 75ZM536 551Q498 575 440 575Q338 575 275 518T194 358Q183 294 183 268Q183 222 198 187L536 551ZM441 111T504 168T586 328Q597 390 597 418Q597 466 581 499L243 135Q279 111 339 111Q441 111 504 168Z" />
<glyph unicode="&#xd9;" glyph-name="Ugrave" horiz-adv-x="722" d="M194 -12T124 41T54 200Q54 230 60 263L134 686H279L204 262Q200 238 200 223Q200 111 326 111Q397 111 443 149T502 262L577 686H722L646 255Q599 -12 324 -12Q194 -12 124 41ZM312 865L313
868H441L497 736H397L312 865Z" />
<glyph unicode="&#xda;" glyph-name="Uacute" horiz-adv-x="722" d="M194 -12T124 41T54 200Q54 230 60 263L134 686H279L204 262Q200 238 200 223Q200 111 326 111Q397 111 443 149T502 262L577 686H722L646 255Q599 -12 324 -12Q194 -12 124 41ZM494 868H632L633
865L502 736H392L494 868Z" />
<glyph unicode="&#xdb;" glyph-name="Ucircumflex" horiz-adv-x="722" d="M194 -12T124 41T54 200Q54 230 60 263L134 686H279L204 262Q200 238 200 223Q200 111 326 111Q397 111 443 149T502 262L577 686H722L646 255Q599 -12 324 -12Q194 -12 124 41ZM402 868H524L606
733H500L455 802L393 733H274L402 868Z" />
<glyph unicode="&#xdc;" glyph-name="Udieresis" horiz-adv-x="722" d="M194 -12T124 41T54 200Q54 230 60 263L134 686H279L204 262Q200 238 200 223Q200 111 326 111Q397 111 443 149T502 262L577 686H722L646 255Q599 -12 324 -12Q194 -12 124 41ZM307 868H425L404
750H287L307 868ZM517 868H636L615 750H496L517 868Z" />
<glyph unicode="&#xdd;" glyph-name="Yacute" horiz-adv-x="667" d="M252 277L62 686H211L340 406H345L570 686H729L397 277L348 0H203L252 277ZM467 868H605L606 865L475 736H365L467 868Z" />
<glyph unicode="&#xde;" glyph-name="Thorn" horiz-adv-x="667" d="M130 686H275L256 579H378Q513 579 573 531T634 388Q634 264 558 197T349 129H177L154 0H9L130 686ZM347 252Q410 252 447 282T485 370Q485 456 383 456H234L198 252H347Z" />
<glyph unicode="&#xdf;" glyph-name="germandbls" horiz-adv-x="611" d="M99 511Q120 627 188 683Q253 735 359 735Q471 735 530 692T590 568Q590 505 553 461T449 396V392Q504 372 529 332T555 228Q555 124 483 62T277 0H205L224 111H283Q348 111 382 146T417
230Q417 270 392 295T325 321H261L282 442H343Q389 442 418 470T447 545Q447 582 426 603T359 625Q312 625 279 597T237 519L146 0H9L99 511Z" />
<glyph unicode="&#xe0;" glyph-name="agrave" horiz-adv-x="591" d="M484 114T492 107T513 100H542L525 4Q491 -12 443 -12Q404 -12 380 10T351 69H345Q317 30 276 9T189 -12Q110 -12 64 41T17 196Q17 273 42 352T120 484T252 538Q305 538 341 520T401 465H407L438
526H554L512 286Q484 128 484 127Q484 114 492 107ZM289 107T319 143T363 229T377 322Q377 423 293 423Q243 423 213 387T171 300T159 204Q159 107 242 107Q289 107 319 143ZM162 720L163 723H291L347 591H247L162 720Z" />
<glyph unicode="&#xe1;" glyph-name="aacute" horiz-adv-x="591" d="M484 114T492 107T513 100H542L525 4Q491 -12 443 -12Q404 -12 380 10T351 69H345Q317 30 276 9T189 -12Q110 -12 64 41T17 196Q17 273 42 352T120 484T252 538Q305 538 341 520T401 465H407L438
526H554L512 286Q484 128 484 127Q484 114 492 107ZM289 107T319 143T363 229T377 322Q377 423 293 423Q243 423 213 387T171 300T159 204Q159 107 242 107Q289 107 319 143ZM344 723H482L483 720L352 591H242L344 723Z" />
<glyph unicode="&#xe2;" glyph-name="acircumflex" horiz-adv-x="591" d="M484 114T492 107T513 100H542L525 4Q491 -12 443 -12Q404 -12 380 10T351 69H345Q317 30 276 9T189 -12Q110 -12 64 41T17 196Q17 273 42 352T120 484T252 538Q305 538 341 520T401 465H407L438
526H554L512 286Q484 128 484 127Q484 114 492 107ZM289 107T319 143T363 229T377 322Q377 423 293 423Q243 423 213 387T171 300T159 204Q159 107 242 107Q289 107 319 143ZM252 723H374L456 588H350L305 657L243 588H124L252 723Z" />
<glyph unicode="&#xe3;" glyph-name="atilde" horiz-adv-x="591" d="M484 114T492 107T513 100H542L525 4Q491 -12 443 -12Q404 -12 380 10T351 69H345Q317 30 276 9T189 -12Q110 -12 64 41T17 196Q17 273 42 352T120 484T252 538Q305 538 341 520T401 465H407L438
526H554L512 286Q484 128 484 127Q484 114 492 107ZM289 107T319 143T363 229T377 322Q377 423 293 423Q243 423 213 387T171 300T159 204Q159 107 242 107Q289 107 319 143ZM141 654T169 688T245 723Q262 723 276 719T314 704Q334 695 348 691T377 686Q392 686
401 694T418 723H488Q479 670 450 636T373 601Q357 601 343 605T305 620Q285 629 271 633T242 638Q227 638 218 630T201 601H132Q141 654 169 688Z" />
<glyph unicode="&#xe4;" glyph-name="adieresis" horiz-adv-x="591" d="M484 114T492 107T513 100H542L525 4Q491 -12 443 -12Q404 -12 380 10T351 69H345Q317 30 276 9T189 -12Q110 -12 64 41T17 196Q17 273 42 352T120 484T252 538Q305 538 341 520T401 465H407L438
526H554L512 286Q484 128 484 127Q484 114 492 107ZM289 107T319 143T363 229T377 322Q377 423 293 423Q243 423 213 387T171 300T159 204Q159 107 242 107Q289 107 319 143ZM157 723H275L254 605H137L157 723ZM367 723H486L465 605H346L367 723Z" />
<glyph unicode="&#xe5;" glyph-name="aring" horiz-adv-x="591" d="M484 114T492 107T513 100H542L525 4Q491 -12 443 -12Q404 -12 380 10T351 69H345Q317 30 276 9T189 -12Q110 -12 64 41T17 196Q17 273 42 352T120 484T252 538Q305 538 341 520T401 465H407L438
526H554L512 286Q484 128 484 127Q484 114 492 107ZM289 107T319 143T363 229T377 322Q377 423 293 423Q243 423 213 387T171 300T159 204Q159 107 242 107Q289 107 319 143ZM252 556T228 579T204 640Q204 688 236 723T319 758Q362 758 385 734T409 672Q409 624
376 590T294 556Q252 556 228 579ZM320 613T336 628T352 665Q352 681 342 691T314 701Q292 701 277 686T262 647Q262 632 272 623T299 613Q320 613 336 628Z" />
<glyph unicode="&#xe6;" glyph-name="ae" horiz-adv-x="889" d="M115 -12T55 16T-6 118Q-6 233 92 277T371 322L377 359Q379 373 379 380Q379 405 362 418T302 432Q251 432 227 418T199 385L196 370H64Q64 419 94 457T178 517T297 538Q423 538 479 490Q541 538
634 538Q744 538 798 490T852 341Q852 308 844 263L838 231H492Q488 208 488 185Q488 139 510 117T583 94Q678 94 695 186H830Q815 87 751 38T587 -12Q441 -12 386 59Q308 -12 193 -12Q115 -12 55 16ZM712 322Q715 340 715 356Q715 431 640 431Q588 431 557 404T510
322H712ZM270 96T306 128T352 215L355 231Q137 231 137 140Q137 120 154 108T205 96Q270 96 306 128Z" />
<glyph unicode="&#xe7;" glyph-name="ccedilla" horiz-adv-x="556" d="M380 328Q382 346 382 354Q382 390 362 409T303 428Q247 428 214 389T166 271Q157 223 157 197Q157 148 179 123T251 98Q298 98 326 124T363 198H495Q479 98 422 46T269 -12L262 -33Q301 -35
325 -51T349 -98Q349 -144 301 -163T197 -182Q141 -182 95 -174L104 -125H192Q216 -125 228 -119T241 -96Q241 -86 233 -82T203 -77H162L185 -7Q100 6 59 53T17 187Q17 281 46 360T139 489T300 538Q403 538 462 497T522 376Q522 351 518 328H380Z" />
<glyph unicode="&#xe8;" glyph-name="egrave" horiz-adv-x="556" d="M135 -12T76 37T17 187Q17 280 46 359T138 488T301 538Q411 538 465 490T519 341Q519 300 511 263L505 231H159Q155 208 155 185Q155 139 177 117T250 94Q345 94 362 186H497Q482 87 418 38T254
-12Q135 -12 76 37ZM379 322Q382 340 382 356Q382 431 307 431Q255 431 224 404T177 322H379ZM184 720L185 723H313L369 591H269L184 720Z" />
<glyph unicode="&#xe9;" glyph-name="eacute" horiz-adv-x="556" d="M135 -12T76 37T17 187Q17 280 46 359T138 488T301 538Q411 538 465 490T519 341Q519 300 511 263L505 231H159Q155 208 155 185Q155 139 177 117T250 94Q345 94 362 186H497Q482 87 418 38T254
-12Q135 -12 76 37ZM379 322Q382 340 382 356Q382 431 307 431Q255 431 224 404T177 322H379ZM366 723H504L505 720L374 591H264L366 723Z" />
<glyph unicode="&#xea;" glyph-name="ecircumflex" horiz-adv-x="556" d="M135 -12T76 37T17 187Q17 280 46 359T138 488T301 538Q411 538 465 490T519 341Q519 300 511 263L505 231H159Q155 208 155 185Q155 139 177 117T250 94Q345 94 362 186H497Q482 87 418
38T254 -12Q135 -12 76 37ZM379 322Q382 340 382 356Q382 431 307 431Q255 431 224 404T177 322H379ZM274 723H396L478 588H372L327 657L265 588H146L274 723Z" />
<glyph unicode="&#xeb;" glyph-name="edieresis" horiz-adv-x="556" d="M135 -12T76 37T17 187Q17 280 46 359T138 488T301 538Q411 538 465 490T519 341Q519 300 511 263L505 231H159Q155 208 155 185Q155 139 177 117T250 94Q345 94 362 186H497Q482 87 418
38T254 -12Q135 -12 76 37ZM379 322Q382 340 382 356Q382 431 307 431Q255 431 224 404T177 322H379ZM179 723H297L276 605H159L179 723ZM389 723H508L487 605H368L389 723Z" />
<glyph unicode="&#xec;" glyph-name="igrave" horiz-adv-x="278" d="M63 720L64 723H192L248 591H148L63 720ZM106 526H243L150 0H13L106 526Z" />
<glyph unicode="&#xed;" glyph-name="iacute" horiz-adv-x="278" d="M215 723H353L354 720L223 591H113L215 723ZM106 526H243L150 0H13L106 526Z" />
<glyph unicode="&#xee;" glyph-name="icircumflex" horiz-adv-x="278" d="M138 723H260L342 588H236L191 657L129 588H10L138 723ZM106 526H243L150 0H13L106 526Z" />
<glyph unicode="&#xef;" glyph-name="idieresis" horiz-adv-x="278" d="M40 723H158L137 605H20L40 723ZM250 723H369L348 605H229L250 723ZM106 526H243L150 0H13L106 526Z" />
<glyph unicode="&#xf0;" glyph-name="eth" horiz-adv-x="611" d="M140 -12T79 38T18 192Q18 279 42 349T111 464Q142 495 183 511T270 528Q328 528 377 509L382 513Q365 554 336 595L168 583L180 656L283 663Q266 682 228 718L233 723H389Q423 691 436 674L607
686L594 613L491 606Q570 487 570 348Q570 183 498 86T265 -12Q140 -12 79 38ZM332 100T368 137T418 251Q426 296 426 317Q426 367 401 391T320 416Q253 416 217 379T168 267Q160 220 160 199Q160 149 185 125T264 100Q332 100 368 137Z" />
<glyph unicode="&#xf1;" glyph-name="ntilde" horiz-adv-x="611" d="M110 526H225V455H232Q261 491 307 514T405 538Q471 538 513 504T555 398Q555 366 545 313L489 0H352L406 304Q412 340 412 352Q412 417 345 417Q292 417 254 380T203 274L154 0H17L110 526ZM207
654T235 688T311 723Q328 723 342 719T380 704Q400 695 414 691T443 686Q458 686 467 694T484 723H554Q545 670 516 636T439 601Q423 601 409 605T371 620Q351 629 337 633T308 638Q293 638 284 630T267 601H198Q207 654 235 688Z" />
<glyph unicode="&#xf2;" glyph-name="ograve" horiz-adv-x="611" d="M195 -12T142 16T57 94T24 207Q24 256 31 294Q51 412 123 475T322 538Q391 538 445 510T530 432T563 319Q563 270 556 232Q536 114 464 51T263 -12Q195 -12 142 16ZM341 100T378 139T426 259Q430
286 430 317Q429 368 399 397T314 426Q246 426 209 387T161 267Q157 240 157 209Q158 158 188 129T273 100Q341 100 378 139ZM196 720L197 723H325L381 591H281L196 720Z" />
<glyph unicode="&#xf3;" glyph-name="oacute" horiz-adv-x="611" d="M195 -12T142 16T57 94T24 207Q24 256 31 294Q51 412 123 475T322 538Q391 538 445 510T530 432T563 319Q563 270 556 232Q536 114 464 51T263 -12Q195 -12 142 16ZM341 100T378 139T426 259Q430
286 430 317Q429 368 399 397T314 426Q246 426 209 387T161 267Q157 240 157 209Q158 158 188 129T273 100Q341 100 378 139ZM378 723H516L517 720L386 591H276L378 723Z" />
<glyph unicode="&#xf4;" glyph-name="ocircumflex" horiz-adv-x="611" d="M195 -12T142 16T57 94T24 207Q24 256 31 294Q51 412 123 475T322 538Q391 538 445 510T530 432T563 319Q563 270 556 232Q536 114 464 51T263 -12Q195 -12 142 16ZM341 100T378 139T426
259Q430 286 430 317Q429 368 399 397T314 426Q246 426 209 387T161 267Q157 240 157 209Q158 158 188 129T273 100Q341 100 378 139ZM286 723H408L490 588H384L339 657L277 588H158L286 723Z" />
<glyph unicode="&#xf5;" glyph-name="otilde" horiz-adv-x="611" d="M195 -12T142 16T57 94T24 207Q24 256 31 294Q51 412 123 475T322 538Q391 538 445 510T530 432T563 319Q563 270 556 232Q536 114 464 51T263 -12Q195 -12 142 16ZM341 100T378 139T426 259Q430
286 430 317Q429 368 399 397T314 426Q246 426 209 387T161 267Q157 240 157 209Q158 158 188 129T273 100Q341 100 378 139ZM175 654T203 688T279 723Q296 723 310 719T348 704Q368 695 382 691T411 686Q426 686 435 694T452 723H522Q513 670 484 636T407 601Q391
601 377 605T339 620Q319 629 305 633T276 638Q261 638 252 630T235 601H166Q175 654 203 688Z" />
<glyph unicode="&#xf6;" glyph-name="odieresis" horiz-adv-x="611" d="M195 -12T142 16T57 94T24 207Q24 256 31 294Q51 412 123 475T322 538Q391 538 445 510T530 432T563 319Q563 270 556 232Q536 114 464 51T263 -12Q195 -12 142 16ZM341 100T378 139T426
259Q430 286 430 317Q429 368 399 397T314 426Q246 426 209 387T161 267Q157 240 157 209Q158 158 188 129T273 100Q341 100 378 139ZM191 723H309L288 605H171L191 723ZM401 723H520L499 605H380L401 723Z" />
<glyph unicode="&#xf7;" glyph-name="divide" horiz-adv-x="549" d="M247 512H367L347 402H227L247 512ZM36 308H508L489 203H17L36 308ZM176 111H296L276 1H156L176 111Z" />
<glyph unicode="&#xf8;" glyph-name="oslash" horiz-adv-x="611" d="M66 51Q18 101 18 191Q18 283 47 361T141 489T311 538Q408 538 468 510L525 575H609L520 474Q569 424 569 333Q569 241 540 163T444 37T274 -12Q178 -12 118 15L62 -49H-22L66 51ZM383 413Q360
426 321 426Q255 426 219 388T168 271Q160 230 160 201Q160 178 164 163L383 413ZM331 100T368 138T418 255Q426 303 426 325Q426 339 422 361L203 112Q227 100 264 100Q331 100 368 138Z" />
<glyph unicode="&#xf9;" glyph-name="ugrave" horiz-adv-x="611" d="M121 -12T79 22T36 128Q36 154 47 213L103 526H240L186 222Q180 186 180 174Q180 109 247 109Q300 109 338 146T389 252L438 526H575L482 0H367V71H360Q331 35 285 12T187 -12Q121 -12 79 22ZM215
720L216 723H344L400 591H300L215 720Z" />
<glyph unicode="&#xfa;" glyph-name="uacute" horiz-adv-x="611" d="M121 -12T79 22T36 128Q36 154 47 213L103 526H240L186 222Q180 186 180 174Q180 109 247 109Q300 109 338 146T389 252L438 526H575L482 0H367V71H360Q331 35 285 12T187 -12Q121 -12 79 22ZM397
723H535L536 720L405 591H295L397 723Z" />
<glyph unicode="&#xfb;" glyph-name="ucircumflex" horiz-adv-x="611" d="M121 -12T79 22T36 128Q36 154 47 213L103 526H240L186 222Q180 186 180 174Q180 109 247 109Q300 109 338 146T389 252L438 526H575L482 0H367V71H360Q331 35 285 12T187 -12Q121 -12
79 22ZM305 723H427L509 588H403L358 657L296 588H177L305 723Z" />
<glyph unicode="&#xfc;" glyph-name="udieresis" horiz-adv-x="611" d="M121 -12T79 22T36 128Q36 154 47 213L103 526H240L186 222Q180 186 180 174Q180 109 247 109Q300 109 338 146T389 252L438 526H575L482 0H367V71H360Q331 35 285 12T187 -12Q121 -12 79
22ZM210 723H328L307 605H190L210 723ZM420 723H539L518 605H399L420 723Z" />
<glyph unicode="&#xfd;" glyph-name="yacute" horiz-adv-x="556" d="M38 -182T18 -179T-13 -173T-27 -169L-11 -73H54Q89 -73 114 -56T160 0L47 526H182L237 279Q243 253 249 206T257 142H262Q268 157 286 203T319 278L441 526H585L326 27Q274 -72 213 -127T64
-182Q38 -182 18 -179ZM370 723H508L509 720L378 591H268L370 723Z" />
<glyph unicode="&#xfe;" glyph-name="thorn" horiz-adv-x="611" d="M141 737H278L230 465H237Q264 498 303 518T384 538Q473 538 521 487T569 330Q569 253 543 174T462 42T324 -12Q267 -12 229 6T165 61H159L118 -173H-19L141 737ZM362 103T394 172T427 322Q427
370 405 394T337 419Q260 419 225 354T189 204Q189 154 212 129T280 103Q362 103 394 172Z" />
<glyph unicode="&#xff;" glyph-name="ydieresis" horiz-adv-x="556" d="M38 -182T18 -179T-13 -173T-27 -169L-11 -73H54Q89 -73 114 -56T160 0L47 526H182L237 279Q243 253 249 206T257 142H262Q268 157 286 203T319 278L441 526H585L326 27Q274 -72 213 -127T64
-182Q38 -182 18 -179ZM183 723H301L280 605H163L183 723ZM393 723H512L491 605H372L393 723Z" />
<glyph unicode="&#x2013;" glyph-name="endash" horiz-adv-x="556" d="M1 319H557L540 221H-15L1 319Z" />
<glyph unicode="&#x2014;" glyph-name="emdash" horiz-adv-x="1000" d="M1 319H1001L984 221H-15L1 319Z" />
<glyph unicode="&#x2018;" glyph-name="quoteleft" horiz-adv-x="278" d="M103 518L199 686H271L189 530H244L219 393H81L103 518Z" />
<glyph unicode="&#x2019;" glyph-name="quoteright" horiz-adv-x="278" d="M153 549H98L123 686H261L239 561L143 393H71L153 549Z" />
<glyph unicode="&#x201a;" glyph-name="quotesinglbase" horiz-adv-x="278" d="M69 0H14L39 137H177L155 12L59 -156H-13L69 0Z" />
<glyph unicode="&#x201c;" glyph-name="quotedblleft" horiz-adv-x="500" d="M103 518L199 686H271L189 530H244L219 393H81L103 518ZM326 518L422 686H494L412 530H467L442 393H304L326 518Z" />
<glyph unicode="&#x201d;" glyph-name="quotedblright" horiz-adv-x="500" d="M153 549H98L123 686H261L239 561L143 393H71L153 549ZM376 549H321L346 686H484L462 561L366 393H294L376 549Z" />
<glyph unicode="&#x201e;" glyph-name="quotedblbase" horiz-adv-x="500" d="M69 0H14L39 137H177L155 12L59 -156H-13L69 0ZM292 0H237L262 137H400L378 12L282 -156H210L292 0Z" />
<glyph unicode="&#x2022;" glyph-name="bullet" horiz-adv-x="350" d="M138 208T107 226T58 275T40 343Q40 380 58 411T107 460T175 479Q212 479 243 461T292 411T311 343Q311 306 293 275T243 226T175 208Q138 208 107 226Z" />
<glyph unicode="&#x2039;" glyph-name="guilsinglleft" horiz-adv-x="333" d="M59 326L220 526H329L186 326L258 126H159L59 326Z" />
<glyph unicode="&#x203a;" glyph-name="guilsinglright" horiz-adv-x="333" d="M147 326L74 526H173L274 326L112 126H3L147 326Z" />
</font>
</defs>
</svg>
