<?xml version="1.0" standalone="no"?>
<!DOCTYPE svg PUBLIC "-//W3C//DTD SVG 1.1//EN" "http://www.w3.org/Graphics/SVG/1.1/DTD/svg11.dtd">
<svg xmlns="http://www.w3.org/2000/svg">
<defs >
<font id="Prompt" horiz-adv-x="610" ><font-face
    font-family="Prompt ExtraBold"
    units-per-em="1000"
    panose-1="0 0 9 0 0 0 0 0 0 0"
    ascent="1090"
    descent="-422"
    alphabetic="0" />
<glyph unicode=" " glyph-name="space" horiz-adv-x="320" />
<glyph unicode="!" glyph-name="exclam" horiz-adv-x="249" d="M123 699H323L226 241H26L123 699ZM32 -15T9 7T-14 66Q-14 80 -12 88Q-2 132 34 161T115 191Q152 191 176 169T200 111Q200 78 182 49T133 2T71 -15Q32 -15 9 7Z" />
<glyph unicode="&quot;" glyph-name="quotedbl" horiz-adv-x="371" d="M118 699H263L218 488H73L118 699ZM304 699H449L404 488H259L304 699Z" />
<glyph unicode="#" glyph-name="numbersign" horiz-adv-x="783" d="M70 127H-4L29 282H147L197 384H94L127 538H273L353 699H535L455 538H573L653 699H836L756 538H827L794 384H680L630 282H728L695 127H553L491 0H308L370 127H252L190 0H8L70 127ZM447 282L497
384H379L329 282H447Z" />
<glyph unicode="$" glyph-name="dollar" horiz-adv-x="574" d="M158 -13Q103 -8 55 4T-23 34L16 217Q64 187 121 172T232 157Q271 157 290 167T315 198Q316 202 316 208Q316 227 296 241T217 283Q143 318 109 359T74 455Q74 474 79 501Q95 577 157 631T310 705L331
802H475L456 712Q538 705 605 670L567 493Q488 541 399 541Q357 541 331 528T304 487Q304 468 325 456T410 416Q487 380 519 345T552 256Q552 227 545 196Q527 114 467 61T303 -8L283 -103H139L158 -13Z" />
<glyph unicode="%" glyph-name="percent" horiz-adv-x="898" d="M160 347T119 387T78 491Q78 511 82 530Q93 581 125 623T203 689T304 714Q370 714 411 673T453 569Q453 547 449 530Q438 479 406 438T326 372T226 347Q160 347 119 387ZM639 699H843L308 0H104L639
699ZM283 464T306 488T330 545Q330 566 318 578T278 591Q251 591 229 573T202 527Q200 520 200 508Q200 464 251 464Q283 464 306 488ZM574 -15T533 25T492 129Q492 149 496 168Q507 219 539 261T617 327T718 352Q784 352 825 311T867 207Q867 185 863 168Q852
117 820 76T740 10T640 -15Q574 -15 533 25ZM697 102T720 126T744 183Q744 204 732 216T692 229Q665 229 643 211T616 165Q614 158 614 146Q614 102 665 102Q697 102 720 126Z" />
<glyph unicode="&amp;" glyph-name="ampersand" horiz-adv-x="805" d="M126 -15T65 27T4 144Q4 160 9 185Q23 250 61 295T170 381Q150 408 140 434T130 490Q130 507 135 534Q152 614 223 664T400 714Q488 714 537 674T586 570Q586 550 582 534Q570 477 538 439T443
362L526 264Q546 295 562 369H733Q716 289 694 239T633 136L745 0H499L462 41Q420 12 363 -1T228 -15Q126 -15 65 27ZM380 473T396 490T412 533Q412 551 401 560T370 570Q347 570 330 557T308 520Q307 517 307 511Q307 497 315 484T341 451Q380 473 396 490ZM328
121T368 152L279 261Q246 248 229 230T206 186Q204 174 204 169Q204 145 221 133T269 121Q328 121 368 152Z" />
<glyph unicode="&apos;" glyph-name="quotesingle" horiz-adv-x="185" d="M118 699H263L218 488H73L118 699Z" />
<glyph unicode="(" glyph-name="parenleft" horiz-adv-x="383" d="M9 -54T9 106Q9 183 27 270Q81 529 271 714H484Q291 519 238 270Q221 187 221 115Q221 -41 296 -174H83Q9 -54 9 106Z" />
<glyph unicode=")" glyph-name="parenright" horiz-adv-x="383" d="M106 21T159 270Q176 353 176 425Q176 581 101 714H314Q388 594 388 433Q388 357 370 270Q314 9 126 -174H-86Q106 21 159 270Z" />
<glyph unicode="*" glyph-name="asterisk" horiz-adv-x="444" d="M95 416L185 510L85 548L152 646L235 614L253 699H387L369 614L466 647L489 543L374 506L424 412L312 344L269 429L189 343L95 416Z" />
<glyph unicode="+" glyph-name="plus" horiz-adv-x="408" d="M122 227H18L51 382H155L175 476H334L314 382H419L386 227H281L261 133H102L122 227Z" />
<glyph unicode="," glyph-name="comma" horiz-adv-x="330" d="M66 65H273L120 -150H-61L66 65Z" />
<glyph unicode="-" glyph-name="hyphen" horiz-adv-x="408" d="M51 384H419L385 225H17L51 384Z" />
<glyph unicode="." glyph-name="period" horiz-adv-x="179" d="M14 0T-2 15T-18 54Q-18 88 8 113T68 139Q93 139 109 124T125 83Q125 50 99 25T39 0Q14 0 -2 15Z" />
<glyph unicode="/" glyph-name="slash" horiz-adv-x="530" d="M406 714H611L175 0H-30L406 714Z" />
<glyph unicode="0" glyph-name="zero" horiz-adv-x="703" d="M217 -15T158 16T66 106T33 248Q33 300 44 349Q80 522 186 618T452 714Q575 714 646 645T718 451Q718 399 707 349Q670 176 563 81T297 -15Q217 -15 158 16ZM397 178T437 222T495 347Q504 389 504 422Q504
469 483 493T412 518Q352 518 312 473T254 347Q245 305 245 273Q245 226 267 202T338 178Q397 178 437 222Z" />
<glyph unicode="1" glyph-name="one" horiz-adv-x="406" d="M210 477L50 377L91 571L292 699H464L316 0H109L210 477Z" />
<glyph unicode="2" glyph-name="two" horiz-adv-x="585" d="M-7 110L109 198Q157 234 180 250Q277 321 320 360T372 440Q375 452 375 462Q375 518 291 518Q243 518 189 500T87 450L129 646Q182 678 249 696T386 714Q452 714 501 691T576 628T603 536Q603 517 598
492Q581 411 536 353T402 229L313 162H549L515 0H-30L-7 110Z" />
<glyph unicode="3" glyph-name="three" horiz-adv-x="582" d="M133 -15T74 -4T-24 31L10 189Q101 142 205 142Q275 142 306 158T345 210Q347 220 347 225Q347 252 320 263T234 275H132L165 429H262Q372 429 386 494Q388 506 388 510Q388 534 368 545T300 557Q189
557 88 501L122 663Q173 687 236 700T362 714Q481 714 543 671T605 551Q605 528 599 502Q590 460 564 421T494 352Q559 312 559 243Q559 225 554 200Q509 -15 201 -15Q133 -15 74 -4Z" />
<glyph unicode="4" glyph-name="four" horiz-adv-x="622" d="M292 136H-22L5 260L426 699H623L537 295H634L600 136H503L475 0H264L292 136ZM357 295L391 453L240 295H357Z" />
<glyph unicode="5" glyph-name="five" horiz-adv-x="585" d="M127 -15T69 -2T-23 36L15 212Q54 181 108 164T214 147Q334 147 351 230Q354 242 354 252Q354 281 330 295T253 310Q220 310 180 304T110 286L44 329L151 699H618L584 537H313L287 451Q330 461 378
461Q467 461 519 418T571 295Q571 268 565 236Q538 112 453 49T189 -15Q127 -15 69 -2Z" />
<glyph unicode="6" glyph-name="six" horiz-adv-x="637" d="M157 -15T92 49T26 224Q26 268 36 312Q62 437 128 528T287 666T483 714Q560 714 616 694L580 523Q539 550 464 550Q401 550 351 518T276 425Q306 446 348 458T440 471Q524 471 574 427T624 300Q624 269
617 238Q592 123 508 54T267 -15Q157 -15 92 49ZM346 141T377 173T409 255Q409 315 338 315Q296 315 265 283T234 205Q234 176 251 159T301 141Q346 141 377 173Z" />
<glyph unicode="7" glyph-name="seven" horiz-adv-x="533" d="M367 537H74L108 699H621L593 569L213 0H8L367 537Z" />
<glyph unicode="8" glyph-name="eight" horiz-adv-x="633" d="M151 -15T80 31T8 160Q8 178 13 203Q25 259 57 299T137 361Q95 403 95 466Q95 488 99 507Q120 606 203 660T418 714Q524 714 588 671T653 549Q653 532 648 507Q629 417 548 361Q578 344 594 315T611
246Q611 228 606 203Q583 99 491 42T263 -15Q151 -15 80 31ZM392 411T419 438T446 503Q446 528 431 542T385 557Q349 557 325 537T294 483Q292 473 292 467Q292 442 309 427T354 411Q392 411 419 438ZM339 141T370 170T402 242Q402 271 383 289T332 307Q295 307
265 284T227 224Q224 212 224 200Q224 141 296 141Q339 141 370 170Z" />
<glyph unicode="9" glyph-name="nine" horiz-adv-x="637" d="M122 -15T67 4L104 175Q148 148 219 148Q283 148 334 179T409 272Q381 252 340 240T254 228Q165 228 113 274T61 403Q61 434 68 465Q83 536 128 592T247 681T416 714Q539 714 600 655T661 488Q661 442
649 386Q621 257 558 167T404 31T200 -15Q122 -15 67 4ZM390 383T421 414T453 494Q453 523 436 540T384 557Q342 557 315 534T279 470Q277 456 277 450Q277 420 295 402T347 383Q390 383 421 414Z" />
<glyph unicode=":" glyph-name="colon" horiz-adv-x="232" d="M98 312T76 334T54 389Q54 419 71 445T116 488T173 504Q207 504 228 483T250 428Q250 398 233 372T189 329T132 312Q98 312 76 334ZM33 5T11 27T-11 82Q-11 112 6 138T50 181T107 197Q141 197 163
175T185 120Q185 91 168 65T123 22T67 5Q33 5 11 27Z" />
<glyph unicode=";" glyph-name="semicolon" horiz-adv-x="330" d="M179 312T157 334T135 389Q135 419 152 445T197 488T254 504Q288 504 309 483T331 428Q331 398 314 372T270 329T213 312Q179 312 157 334ZM66 65H273L120 -150H-61L66 65Z" />
<glyph unicode="&lt;" glyph-name="less" horiz-adv-x="528" d="M24 256L54 396L592 635L548 419L303 319L505 218L461 16L24 256Z" />
<glyph unicode="=" glyph-name="equal" horiz-adv-x="507" d="M81 523H548L515 367H48L81 523ZM32 295H499L466 139H-1L32 295Z" />
<glyph unicode="&gt;" glyph-name="greater" horiz-adv-x="528" d="M17 232L262 333L60 433L104 635L542 396L512 256L-27 16L17 232Z" />
<glyph unicode="?" glyph-name="question" horiz-adv-x="529" d="M129 260Q139 308 165 347T234 412L269 432Q310 456 325 470T341 507Q341 525 323 533T266 542Q222 542 173 530T75 494L112 670Q212 714 335 714Q444 714 508 672T573 556Q573 535 569 518Q558
468 530 436T441 368Q382 332 359 312T328 258L325 241H125L129 260ZM131 -15T108 7T85 66Q85 80 87 88Q97 132 133 161T213 191Q251 191 275 169T299 111Q299 78 281 49T232 2T169 -15Q131 -15 108 7Z" />
<glyph unicode="@" glyph-name="at" horiz-adv-x="902" d="M274 -76T193 -43T67 53T22 205Q22 245 31 288Q58 414 131 510T319 660T577 714Q683 714 759 680T875 583T916 436Q916 399 909 364Q886 243 819 174T647 105Q612 105 584 119T547 156Q517 131 479 118T399
105Q324 105 279 138T234 239Q234 265 239 286Q254 356 296 411T400 498T537 530Q583 530 631 519T707 487L646 259Q642 241 642 237Q642 213 665 213Q693 213 715 253T754 364Q763 405 763 438Q763 510 714 545T548 580Q404 580 310 505T185 288Q177 253 177 216Q177
134 233 94T408 54Q505 54 584 78L557 -49Q476 -76 380 -76Q274 -76 193 -43ZM493 226T508 283L540 400Q528 405 507 405Q472 405 443 375T403 296Q400 281 400 269Q400 226 438 226Q493 226 508 283Z" />
<glyph unicode="A" glyph-name="A" horiz-adv-x="798" d="M398 699H597L728 0H526L502 133H273L192 0H-30L398 699ZM487 290L462 486L353 290H487Z" />
<glyph unicode="B" glyph-name="B" horiz-adv-x="672" d="M138 699H503Q585 699 638 659T692 547Q692 529 687 504Q678 462 652 425T585 365Q619 349 635 324T652 261Q652 236 647 213Q625 112 553 56T371 0H-10L138 699ZM391 428Q425 428 446 443T474 491Q477
505 477 514Q477 535 463 543T417 552H314L287 428H391ZM344 147Q385 147 407 162T437 214Q439 222 439 235Q439 260 423 272T371 284H257L228 147H344Z" />
<glyph unicode="C" glyph-name="C" horiz-adv-x="676" d="M253 -15T182 17T73 112T34 259Q34 303 44 349Q81 521 199 617T505 714Q580 714 636 700T737 655L696 464Q659 498 608 513T484 528Q390 528 332 483T255 349Q247 309 247 282Q247 224 284 197T407 169Q478
169 538 185T656 236L615 46Q505 -15 350 -15Q253 -15 182 17Z" />
<glyph unicode="D" glyph-name="D" horiz-adv-x="703" d="M138 699H397Q493 699 565 664T677 567T716 426Q716 393 708 353Q670 177 557 89T260 0H-10L138 699ZM298 174Q375 174 427 222T497 353Q505 391 505 420Q505 471 475 498T376 525H308L233 174H298Z" />
<glyph unicode="E" glyph-name="E" horiz-adv-x="557" d="M138 699H645L608 525H308L288 429H504L470 270H254L233 174H533L497 0H-10L138 699Z" />
<glyph unicode="F" glyph-name="F" horiz-adv-x="547" d="M138 699H645L608 525H308L288 429H504L470 270H254L197 0H-10L138 699Z" />
<glyph unicode="G" glyph-name="G" horiz-adv-x="691" d="M256 -15T185 18T74 113T34 262Q34 305 44 349Q80 521 200 617T505 714Q581 714 641 699T737 656L696 465Q659 498 608 513T484 528Q383 528 328 482T255 349Q246 309 246 277Q246 219 281 194T397 169Q440
169 470 181L489 270H393L421 401H706L631 51Q512 -15 350 -15Q256 -15 185 18Z" />
<glyph unicode="H" glyph-name="H" horiz-adv-x="727" d="M138 699H345L290 442H523L578 699H785L637 0H430L486 268H253L197 0H-10L138 699Z" />
<glyph unicode="I" glyph-name="I" horiz-adv-x="287" d="M138 699H345L197 0H-10L138 699Z" />
<glyph unicode="J" glyph-name="J" horiz-adv-x="398" d="M41 -15T4 -8T-48 10L-11 188Q19 172 68 172Q110 172 130 189T158 246L254 699H461L360 222Q336 107 267 46T75 -15Q41 -15 4 -8Z" />
<glyph unicode="K" glyph-name="K" horiz-adv-x="745" d="M138 699H345L287 428L560 699H804L463 360L675 0H431L259 292L197 0H-10L138 699Z" />
<glyph unicode="L" glyph-name="L" horiz-adv-x="529" d="M138 699H345L233 174H515L479 0H-10L138 699Z" />
<glyph unicode="M" glyph-name="M" horiz-adv-x="838" d="M138 699H317L420 288L697 699H896L748 0H555L620 310L412 0H326L248 310L183 0H-10L138 699Z" />
<glyph unicode="N" glyph-name="N" horiz-adv-x="706" d="M138 699H339L479 333L557 699H764L616 0H416L274 366L197 0H-10L138 699Z" />
<glyph unicode="O" glyph-name="O" horiz-adv-x="794" d="M253 -15T183 19T74 117T35 265Q35 306 44 349Q67 457 132 540T292 668T499 714Q590 714 660 680T768 581T807 433Q807 393 798 349Q775 241 710 159T550 31T344 -15Q253 -15 183 19ZM457 179T513 225T587
349Q593 376 593 398Q593 456 559 487T458 518Q386 518 329 472T255 349Q249 322 249 299Q249 241 284 210T386 179Q457 179 513 225Z" />
<glyph unicode="P" glyph-name="P" horiz-adv-x="647" d="M138 699H460Q561 699 625 650T689 509Q689 487 682 450Q656 327 573 264T354 200H239L197 0H-10L138 699ZM350 364Q398 364 429 383T470 450Q474 466 474 481Q474 511 453 523T386 535H310L274 364H350Z" />
<glyph unicode="Q" glyph-name="Q" horiz-adv-x="799" d="M271 0T195 32T77 126T35 271Q35 309 44 349Q67 458 130 540T289 668T499 714Q590 714 660 680T768 581T807 433Q807 393 798 349Q786 295 750 242T669 155H776L744 0H373Q271 0 195 32ZM466 179T518 223T587
349Q593 376 593 400Q593 457 559 487T458 518Q386 518 329 472T255 349Q249 321 249 295Q249 179 386 179Q466 179 518 223Z" />
<glyph unicode="R" glyph-name="R" horiz-adv-x="657" d="M138 699H463Q566 699 627 649T689 510Q689 484 683 452Q666 374 622 319T512 235L579 0H367L309 205H240L197 0H-10L138 699ZM352 369Q405 369 433 387T471 452Q475 474 475 482Q475 512 455 523T387
535H310L275 369H352Z" />
<glyph unicode="S" glyph-name="S" horiz-adv-x="574" d="M143 -15T79 -2T-23 34L16 217Q64 187 121 172T232 157Q319 157 319 207Q319 227 299 241T217 285Q143 320 109 360T74 456Q74 474 79 501Q100 598 184 656T398 714Q464 714 513 704T605 670L567 493Q490
541 399 541Q356 541 329 528T301 488Q301 470 320 457T390 422L409 414Q487 379 519 344T552 255Q552 227 545 196Q524 95 444 40T211 -15Q143 -15 79 -2Z" />
<glyph unicode="T" glyph-name="T" horiz-adv-x="593" d="M254 525H66L103 699H686L649 525H461L350 0H143L254 525Z" />
<glyph unicode="U" glyph-name="U" horiz-adv-x="724" d="M183 -15T112 49T40 224Q40 262 49 304L133 699H340L257 306Q250 269 250 252Q250 211 272 194T344 176Q394 176 424 190T470 232T497 306L580 699H787L703 304Q670 150 578 68T308 -15Q183 -15 112 49Z" />
<glyph unicode="V" glyph-name="V" horiz-adv-x="798" d="M118 699H329L398 278L646 699H876L449 0H250L118 699Z" />
<glyph unicode="W" glyph-name="W" horiz-adv-x="990" d="M118 699H332L351 333L522 699H672L679 332L853 699H1068L734 0H550L533 371L360 0H156L118 699Z" />
<glyph unicode="X" glyph-name="X" horiz-adv-x="782" d="M297 351L121 699H358L450 516L621 699H858L534 351L712 0H475L380 186L207 0H-30L297 351Z" />
<glyph unicode="Y" glyph-name="Y" horiz-adv-x="766" d="M281 266L118 699H331L418 458L616 699H844L488 266L432 0H225L281 266Z" />
<glyph unicode="Z" glyph-name="Z" horiz-adv-x="611" d="M-2 136L373 525H88L125 699H666L637 562L263 174H577L541 0H-30L-2 136Z" />
<glyph unicode="[" glyph-name="bracketleft" horiz-adv-x="350" d="M137 787H457L420 613H307L193 78H306L269 -96H-50L137 787Z" />
<glyph unicode="\" glyph-name="backslash" horiz-adv-x="530" d="M121 714H326L460 0H255L121 714Z" />
<glyph unicode="]" glyph-name="bracketright" horiz-adv-x="350" d="M-24 78H89L203 613H90L127 787H447L259 -96H-60L-24 78Z" />
<glyph unicode="^" glyph-name="asciicircum" horiz-adv-x="600" d="M322 719H482L610 377H426L371 537L248 377H50L322 719Z" />
<glyph unicode="_" glyph-name="underscore" horiz-adv-x="479" d="M-30 0H409L374 -162H-64L-30 0Z" />
<glyph unicode="`" glyph-name="grave" horiz-adv-x="309" d="M128 746H329L359 566H183L128 746Z" />
<glyph unicode="a" glyph-name="a" horiz-adv-x="669" d="M127 -15T70 37T13 178Q13 202 20 239Q45 356 127 425T330 495Q376 495 413 482T473 445L481 480H681L579 0H386L395 44Q359 16 314 1T221 -15Q127 -15 70 37ZM342 140T372 156T421 200L438 279Q431 307
408 323T351 339Q304 339 271 313T227 239Q223 217 223 207Q223 140 308 140Q342 140 372 156Z" />
<glyph unicode="b" glyph-name="b" horiz-adv-x="669" d="M292 -15T254 0T192 44L183 0H-10L147 739H347L284 445Q315 468 359 481T449 495Q546 495 601 444T656 305Q656 271 649 239Q633 163 590 106T481 17T340 -15Q292 -15 254 0ZM366 140T399 166T442 239Q446
261 446 270Q446 303 425 321T362 339Q328 339 298 323T249 279L232 200Q239 172 262 156T319 140Q366 140 399 166Z" />
<glyph unicode="c" glyph-name="c" horiz-adv-x="540" d="M187 -15T133 7T46 75T14 183Q14 209 20 239Q47 364 136 429T364 495Q424 495 476 484T558 451L525 296Q500 318 461 329T377 341Q319 341 279 316T227 239Q224 223 224 209Q224 172 250 155T333 138Q378
138 423 150T508 185L475 31Q434 9 377 -3T254 -15Q187 -15 133 7Z" />
<glyph unicode="d" glyph-name="d" horiz-adv-x="669" d="M129 -15T72 38T14 180Q14 208 20 239Q45 355 127 425T330 495Q376 495 413 482T473 445L536 739H736L579 0H386L395 44Q359 16 314 1T221 -15Q129 -15 72 38ZM342 140T372 156T421 200L438 279Q431 307
408 323T351 339Q301 339 270 313T227 239Q223 223 223 205Q223 173 243 157T308 140Q342 140 372 156Z" />
<glyph unicode="e" glyph-name="e" horiz-adv-x="600" d="M155 -15T85 37T14 183Q14 208 20 238Q46 360 128 427T358 495Q429 495 481 470T560 399T588 297Q588 272 582 245L568 180H198Q200 147 228 132T329 116Q377 116 429 123T519 145L493 20Q451 4 392 -5T273
-15Q155 -15 85 37ZM403 296Q405 329 389 346T327 363Q287 363 261 345T222 296H403Z" />
<glyph unicode="f" glyph-name="f" horiz-adv-x="384" d="M98 358H31L57 480H124L136 540Q177 744 401 744Q455 744 493 726L463 586Q438 600 403 600Q361 600 339 583T309 525L300 480H411L385 358H274L198 0H22L98 358Z" />
<glyph unicode="g" glyph-name="g" horiz-adv-x="669" d="M158 -230T110 -221T30 -197L58 -64Q130 -98 233 -98Q298 -98 333 -72T380 6L386 34Q355 12 311 -1T222 -15Q162 -15 115 9T41 79T14 182Q14 205 21 240Q45 357 127 426T330 495Q377 495 415 480T478 436L488
480H681L586 35Q557 -100 468 -165T205 -230Q158 -230 110 -221ZM381 140T421 201L438 279Q431 307 408 323T351 339Q304 339 271 313T228 241Q224 224 224 205Q224 172 243 156T308 140Q381 140 421 201Z" />
<glyph unicode="h" glyph-name="h" horiz-adv-x="629" d="M147 739H347L282 437Q360 495 449 495Q530 495 571 457T613 350Q613 325 607 298L544 0H343L400 270Q403 285 403 297Q403 339 354 339Q294 339 250 285L190 0H-10L147 739Z" />
<glyph unicode="i" glyph-name="i" horiz-adv-x="290" d="M169 534T146 556T122 613Q122 647 140 676T188 722T252 740Q290 740 313 717T337 658Q337 644 335 637Q325 593 289 564T208 534Q169 534 146 556ZM97 480H297L195 0H-5L97 480Z" />
<glyph unicode="j" glyph-name="j" horiz-adv-x="288" d="M168 534T144 556T120 614Q120 647 138 676T187 722T250 740Q288 740 311 717T335 658Q335 644 333 637Q323 593 287 564T206 534Q168 534 144 556ZM-154 -231T-190 -212L-156 -53Q-129 -68 -88 -68Q-57
-68 -36 -52T-8 -1L95 480H296L188 -26Q166 -129 94 -180T-92 -231Q-154 -231 -190 -212Z" />
<glyph unicode="k" glyph-name="k" horiz-adv-x="658" d="M147 739H347L252 296L434 480H663L434 249L588 0H359L233 204L190 0H-10L147 739Z" />
<glyph unicode="l" glyph-name="l" horiz-adv-x="280" d="M147 739H347L190 0H-10L147 739Z" />
<glyph unicode="m" glyph-name="m" horiz-adv-x="879" d="M92 480H277L267 434Q340 495 427 495Q480 495 508 481T552 436Q588 464 633 479T721 495Q798 495 832 464T866 372Q866 342 858 302L794 0H603L661 273Q664 288 664 300Q664 321 654 330T620 339Q585
339 560 318L493 0H302L361 282Q364 296 364 306Q364 323 355 331T325 339Q282 339 244 292L182 0H-10L92 480Z" />
<glyph unicode="n" glyph-name="n" horiz-adv-x="629" d="M92 480H285L275 433Q311 463 357 479T449 495Q530 495 571 457T613 350Q613 325 607 298L544 0H343L400 270Q404 292 404 299Q404 319 393 329T354 339Q294 339 250 285L190 0H-10L92 480Z" />
<glyph unicode="o" glyph-name="o" horiz-adv-x="647" d="M193 -15T136 10T47 82T15 188Q15 213 21 240Q37 315 83 372T205 462T378 495Q456 495 514 469T603 397T634 291Q634 267 628 240Q612 165 565 108T442 18T269 -15Q193 -15 136 10ZM347 140T380 167T423
240Q426 257 426 272Q426 305 407 322T345 339Q300 339 268 313T226 240Q222 218 222 208Q222 140 302 140Q347 140 380 167Z" />
<glyph unicode="p" glyph-name="p" horiz-adv-x="669" d="M92 480H285L275 436Q311 464 356 479T449 495Q544 495 600 443T657 302Q657 279 650 240Q625 124 544 55T340 -15Q295 -15 257 -2T197 34L143 -219H-56L92 480ZM368 140T400 166T443 241Q446 258 446
271Q446 340 362 340Q329 340 299 324T249 279L232 201Q239 173 262 157T319 140Q368 140 400 166Z" />
<glyph unicode="q" glyph-name="q" horiz-adv-x="669" d="M386 34Q355 12 311 -1T221 -15Q128 -15 71 38T14 179Q14 211 21 240Q45 358 126 426T330 495Q377 495 415 480T478 436L488 480H681L532 -219H332L386 34ZM341 140T371 156T421 201L438 279Q431 307 408
323T351 340Q297 340 268 315T228 241Q224 224 224 206Q224 173 244 157T308 140Q341 140 371 156Z" />
<glyph unicode="r" glyph-name="r" horiz-adv-x="419" d="M92 480H285L273 428Q308 457 361 474T473 491L440 336Q377 336 324 319T247 269L190 0H-10L92 480Z" />
<glyph unicode="s" glyph-name="s" horiz-adv-x="518" d="M142 -15T79 -4T-18 28L12 169Q48 145 104 129T208 112Q239 112 253 116T267 133Q267 141 256 145T214 159L171 172Q99 195 68 222T36 294Q36 310 41 335Q75 495 314 495Q367 495 426 484T511 453L481
314Q455 334 406 348T314 363Q255 363 250 343Q248 334 260 329T304 316Q313 313 324 311T349 304Q421 283 451 255T482 183Q482 167 477 140Q462 68 394 27T202 -15Q142 -15 79 -4Z" />
<glyph unicode="t" glyph-name="t" horiz-adv-x="395" d="M123 -15T85 20T46 120Q46 141 53 178L89 345H23L52 480H118L148 624H349L319 480H426L397 345H290L260 207Q256 190 256 176Q256 156 267 148T305 140Q342 140 378 159L347 11Q315 -2 282 -8T201 -15Q123
-15 85 20Z" />
<glyph unicode="u" glyph-name="u" horiz-adv-x="629" d="M102 -15T61 27T19 138Q19 164 25 189L87 480H287L230 213Q226 197 226 181Q226 159 238 150T278 140Q337 140 379 194L440 480H641L539 0H345L354 46Q318 16 273 1T181 -15Q102 -15 61 27Z" />
<glyph unicode="v" glyph-name="v" horiz-adv-x="636" d="M72 480H265L309 228L461 480H668L364 0H172L72 480Z" />
<glyph unicode="w" glyph-name="w" horiz-adv-x="867" d="M72 480H272L285 230L406 480H565L578 230L699 480H899L635 0H463L442 242L320 0H132L72 480Z" />
<glyph unicode="x" glyph-name="x" horiz-adv-x="680" d="M228 248L84 480H311L370 383L472 480H699L455 248L610 0H385L314 113L195 0H-30L228 248Z" />
<glyph unicode="y" glyph-name="y" horiz-adv-x="642" d="M126 -230T78 -221T-2 -197L26 -64Q98 -98 201 -98Q269 -98 302 -72T346 6L357 60Q321 30 276 15T184 -1Q106 -1 65 42T23 154Q23 182 28 203L87 480H287L233 227Q229 205 229 197Q229 175 241 165T281
154Q340 154 382 208L440 480H641L548 44Q520 -90 431 -160T173 -230Q126 -230 78 -221Z" />
<glyph unicode="z" glyph-name="z" horiz-adv-x="531" d="M-8 104L257 345H48L77 480H555L532 376L269 135H489L461 0H-30L-8 104Z" />
<glyph unicode="{" glyph-name="braceleft" horiz-adv-x="369" d="M78 -97T54 -77T30 -15Q30 1 35 24L73 203Q74 208 74 218Q74 257 35 257H4L42 433H73Q97 433 112 447T133 486L171 665Q184 726 220 756T308 787H476L439 613H400Q382 613 373 605T360 579L333
452Q315 369 239 346V344Q291 324 291 269Q291 260 287 238L260 111Q258 101 258 98Q258 77 286 77H325L288 -97H120Q78 -97 54 -77Z" />
<glyph unicode="|" glyph-name="bar" horiz-adv-x="247" d="M142 812H349L146 -144H-60L142 812Z" />
<glyph unicode="}" glyph-name="braceright" horiz-adv-x="369" d="M-24 77H14Q33 77 42 85T55 111L82 238Q100 320 175 344V346Q124 365 124 420Q124 436 128 452L155 579Q156 583 156 591Q156 602 150 607T128 613H90L127 787H295Q338 787 361 767T385 704Q385
688 380 665L342 486Q340 474 340 470Q340 452 350 443T379 433H411L373 257H341Q318 257 303 243T282 203L244 24Q231 -36 195 -66T107 -97H-60L-24 77Z" />
<glyph unicode="~" glyph-name="asciitilde" horiz-adv-x="503" d="M341 226T316 233T249 255Q211 268 188 274T143 281Q75 281 18 228L55 401Q102 445 178 445Q203 445 228 438T293 417Q328 404 353 397T401 390Q470 390 527 444L490 271Q444 226 367 226Q341
226 316 233Z" />
<glyph unicode="&#xa0;" glyph-name="uni00A0" horiz-adv-x="320" />
<glyph unicode="&#xa1;" glyph-name="exclamdown" horiz-adv-x="249" d="M109 344T86 366T62 423Q62 456 80 485T128 532T191 550Q228 550 252 527T276 468Q276 461 274 447Q264 403 228 374T148 344Q109 344 86 366ZM37 294H237L140 -164H-59L37 294Z" />
<glyph unicode="&#xa2;" glyph-name="cent" horiz-adv-x="539" d="M191 -9Q111 5 63 54T14 183Q14 209 20 239Q43 348 114 412T298 491L317 581H459L440 490Q516 479 558 451L525 296Q500 318 461 329T377 341Q319 341 279 316T227 239Q224 223 224 209Q224 172
250 155T333 138Q378 138 423 150T508 185L475 31Q420 1 333 -10L314 -101H172L191 -9Z" />
<glyph unicode="&#xa3;" glyph-name="sterling" horiz-adv-x="483" d="M6 149H75L107 298H41L70 437H136L151 505Q173 607 245 660T427 714Q484 714 520 696L491 556Q465 570 430 570Q389 570 361 550T325 490L313 437H449L420 298H284L252 149H439L408 0H-25L6 149Z" />
<glyph unicode="&#xa4;" glyph-name="currency" d="M-4 126L93 188Q85 214 85 238Q85 257 90 280Q101 329 133 373L63 435L165 535L241 463Q296 492 359 492Q423 492 466 463L571 534L631 435L535 373Q543 346 543 322Q543 303 538 280Q527 228 495 188L566 125L463
24L387 95Q331 67 269 67Q208 67 164 95L57 24L-4 126ZM330 203T357 225T392 280Q394 287 394 301Q394 327 379 342T331 358Q294 358 265 329T235 261Q235 235 251 219T298 203Q330 203 357 225Z" />
<glyph unicode="&#xa5;" glyph-name="yen" horiz-adv-x="766" d="M238 65H118L146 194H266L273 229H153L180 357H256L118 699H331L418 458L616 699H844L553 357H627L600 229H480L473 194H593L565 65H445L432 0H225L238 65Z" />
<glyph unicode="&#xa6;" glyph-name="brokenbar" horiz-adv-x="247" d="M142 812H349L262 404H55L142 812ZM25 263H232L146 -144H-60L25 263Z" />
<glyph unicode="&#xa7;" glyph-name="section" horiz-adv-x="574" d="M110 -170T46 -157T-55 -121L-17 62Q31 32 88 17T199 2Q238 2 257 12T282 43Q283 47 283 53Q283 72 263 86T184 128Q110 163 76 204T41 300Q41 319 46 346Q55 390 85 423Q75 443 75 468Q75
479 79 501Q100 598 183 656T398 714Q464 714 513 704T605 670L567 493Q490 541 399 541Q361 541 336 530T305 496Q302 480 312 469T341 447T410 415Q487 380 519 345T552 256Q552 227 545 196Q536 158 509 122Q516 104 516 79Q516 58 512 41Q491 -60 411 -115T178
-170Q110 -170 46 -157ZM363 225T365 235Q367 245 367 248Q367 264 354 274T308 298Q290 305 273 315T247 334Q243 325 240 314Q239 310 239 304Q239 287 252 276T298 250Q322 240 336 233T358 216Q363 225 365 235Z" />
<glyph unicode="&#xa8;" glyph-name="dieresis" horiz-adv-x="439" d="M144 566T125 584T105 630Q105 656 120 679T159 716T208 730Q237 730 255 712T273 665Q273 625 243 596T173 566Q144 566 125 584ZM379 566T360 584T340 630Q340 656 355 679T394 716T443
730Q471 730 489 712T508 665Q508 625 477 596T408 566Q379 566 360 584Z" />
<glyph unicode="&#xa9;" glyph-name="copyright" horiz-adv-x="788" d="M251 -15T182 20T74 118T35 267Q35 306 44 349Q67 458 130 540T287 668T495 714Q584 714 653 679T762 581T801 432Q801 393 792 349Q769 241 705 159T546 31T340 -15Q251 -15 182 20ZM437
102T499 130T604 215T665 349Q674 391 674 427Q674 595 470 595Q359 595 278 531T171 349Q162 306 162 271Q162 102 365 102Q437 102 499 130ZM298 143T250 183T202 298Q202 326 207 348Q229 448 295 500T462 553Q559 553 611 518L585 397Q543 433 474 433Q433
433 405 412T367 348Q363 326 363 318Q363 289 380 276T436 263Q506 263 570 302L544 180Q470 143 374 143Q298 143 250 183Z" />
<glyph unicode="&#xaa;" glyph-name="ordfeminine" horiz-adv-x="434" d="M136 349T101 373T66 441Q66 453 69 466Q81 524 126 554T246 585Q271 585 297 580T341 565L342 572Q343 576 343 582Q343 601 325 610T264 619Q200 619 144 594L164 688Q190 700 229 707T312
714Q395 714 441 682T487 596Q487 583 484 569L440 360H305L311 387Q290 370 258 360T190 349Q136 349 101 373ZM270 432T288 439T318 458L324 485Q300 501 266 501Q243 501 232 493T217 466Q216 463 216 457Q216 432 251 432Q270 432 288 439Z" />
<glyph unicode="&#xab;" glyph-name="guillemotleft" horiz-adv-x="718" d="M35 306L43 346L343 577L436 459L251 318L376 177L236 75L35 306ZM346 306L354 346L654 577L747 459L562 318L687 177L547 75L346 306Z" />
<glyph unicode="&#xac;" glyph-name="logicalnot" horiz-adv-x="452" d="M259 237H20L51 384H463L408 124H235L259 237Z" />
<glyph unicode="&#xad;" glyph-name="uni00AD" horiz-adv-x="408" d="M51 384H419L385 225H17L51 384Z" />
<glyph unicode="&#xae;" glyph-name="registered" horiz-adv-x="788" d="M251 -15T182 20T74 118T35 267Q35 306 44 349Q67 458 130 540T287 668T495 714Q584 714 653 679T762 581T801 432Q801 393 792 349Q769 241 705 159T546 31T340 -15Q251 -15 182 20ZM437
102T499 130T604 215T665 349Q674 391 674 427Q674 595 470 595Q359 595 278 531T171 349Q162 306 162 271Q162 102 365 102Q437 102 499 130ZM304 542H484Q543 542 576 516T609 441Q609 423 605 406Q586 319 513 286L546 166H426L398 269H367L345 166H224L304
542ZM427 365Q476 365 485 406Q486 410 486 417Q486 446 444 446H404L387 365H427Z" />
<glyph unicode="&#xaf;" glyph-name="overscore" horiz-adv-x="396" d="M117 692H473L448 574H92L117 692Z" />
<glyph unicode="&#xb0;" glyph-name="degree" horiz-adv-x="328" d="M156 439T123 472T90 554Q90 568 93 583Q106 644 155 685T268 727Q319 727 351 695T384 613Q384 598 381 583Q369 523 320 481T207 439Q156 439 123 472ZM249 538T265 556T282 595Q282 609 274
618T247 627Q226 627 209 610T192 572Q192 557 201 548T228 538Q249 538 265 556Z" />
<glyph unicode="&#xb1;" glyph-name="plusminus" horiz-adv-x="408" d="M136 294H32L65 449H169L189 543H348L328 449H433L400 294H295L275 200H116L136 294ZM2 155H370L338 0H-30L2 155Z" />
<glyph unicode="&#xb2;" glyph-name="uni00B2" horiz-adv-x="342" d="M63 442Q156 494 194 520T237 568Q240 582 232 588T201 595Q176 595 149 586T100 562L124 677Q147 691 188 700T267 709Q330 709 362 684T394 619Q394 612 392 598Q383 560 355 533T264 466H371L350
370H48L63 442Z" />
<glyph unicode="&#xb3;" glyph-name="uni00B3" horiz-adv-x="345" d="M146 360T109 365T51 382L70 471Q89 460 113 454T160 448Q213 448 219 475Q223 489 212 494T169 500H126L141 570H183Q237 570 237 599Q237 609 226 614T194 620Q147 620 101 594L120 684Q145
695 185 702T262 709Q325 709 361 687T397 625Q397 599 384 576T345 535Q376 518 376 485Q376 429 325 395T186 360Q146 360 109 365Z" />
<glyph unicode="&#xb4;" glyph-name="acute" horiz-adv-x="309" d="M196 746H397L266 566H90L196 746Z" />
<glyph unicode="&#xb6;" glyph-name="paragraph" horiz-adv-x="788" d="M298 261H273Q179 261 125 307T70 440Q70 469 78 509Q95 591 143 648T260 733T410 762H879L689 -134H483L639 600H576L420 -134H214L298 261Z" />
<glyph unicode="&#xb7;" glyph-name="middot" horiz-adv-x="179" d="M62 228T47 243T31 282Q31 316 57 342T117 368Q142 368 158 352T174 312Q174 279 147 254T87 228Q62 228 47 243Z" />
<glyph unicode="&#xb8;" glyph-name="cedilla" horiz-adv-x="347" d="M-26 -248T-59 -233L-43 -153Q-33 -160 -15 -164T20 -168Q52 -168 69 -160T92 -131Q93 -128 93 -122Q93 -104 71 -96T-1 -87L51 0H182L154 -46Q191 -51 210 -70T229 -119Q229 -125 227 -139Q216
-189 170 -218T46 -248Q-26 -248 -59 -233Z" />
<glyph unicode="&#xb9;" glyph-name="uni00B9" horiz-adv-x="233" d="M157 558L78 509L105 636L203 699H331L261 370H117L157 558Z" />
<glyph unicode="&#xba;" glyph-name="ordmasculine" horiz-adv-x="475" d="M176 348T127 388T78 494Q78 514 82 531Q100 613 167 663T339 714Q422 714 471 674T521 568Q521 548 517 531Q500 449 432 399T261 348Q176 348 127 388ZM322 460T347 486T373 554Q373
602 315 602Q283 602 260 583T229 531Q227 523 227 509Q227 460 285 460Q322 460 347 486Z" />
<glyph unicode="&#xbb;" glyph-name="guillemotright" horiz-adv-x="718" d="M9 193L194 334L69 475L207 577L410 346L402 306L100 75L9 193ZM320 193L505 334L380 475L518 577L721 346L713 306L411 75L320 193Z" />
<glyph unicode="&#xbc;" glyph-name="onequarter" horiz-adv-x="790" d="M579 699H783L248 0H44L579 699ZM157 558L78 509L105 636L203 699H331L261 370H117L157 558ZM543 53H401L419 141L594 329H745L707 148H751L731 53H687L676 0H532L543 53ZM607 148L624 226L546
148H607Z" />
<glyph unicode="&#xbd;" glyph-name="onehalf" horiz-adv-x="813" d="M579 699H783L248 0H44L579 699ZM157 558L78 509L105 636L203 699H331L261 370H117L157 558ZM456 72Q554 127 592 155T630 205Q630 225 592 225Q567 225 541 216T492 192L517 307Q540 321 581
330T660 339Q723 339 754 314T785 249Q785 235 783 228Q775 190 747 163T655 96H763L743 0H441L456 72Z" />
<glyph unicode="&#xbe;" glyph-name="threequarters" horiz-adv-x="805" d="M146 360T109 365T51 382L70 471Q89 460 113 454T160 448Q213 448 219 475Q223 489 212 494T169 500H126L141 570H183Q237 570 237 599Q237 609 226 614T194 620Q147 620 101 594L120
684Q145 695 185 702T262 709Q325 709 361 687T397 625Q397 599 384 576T345 535Q376 518 376 485Q376 429 325 395T186 360Q146 360 109 365ZM598 699H803L268 0H63L598 699ZM558 53H416L434 141L609 329H760L722 148H766L746 53H702L691 0H547L558 53ZM622 148L639
226L561 148H622Z" />
<glyph unicode="&#xbf;" glyph-name="questiondown" horiz-adv-x="529" d="M290 344T266 366T242 424Q242 458 260 487T309 533T371 550Q410 550 433 528T457 469Q457 454 455 447Q445 402 409 373T328 344Q290 344 266 366ZM100 -179T35 -137T-31 -19Q-31 -8
-27 16Q-16 67 12 98T101 166Q159 202 182 223T212 276L216 294H417L413 274Q403 226 377 188T308 123Q281 106 273 102Q235 80 220 68T201 37Q200 33 200 27Q200 9 217 1T276 -7Q366 -7 467 41L430 -136Q327 -179 206 -179Q100 -179 35 -137Z" />
<glyph unicode="&#xc0;" glyph-name="Agrave" horiz-adv-x="798" d="M338 917H539L570 737H393L338 917ZM398 699H597L728 0H526L502 133H273L192 0H-30L398 699ZM487 290L462 486L353 290H487Z" />
<glyph unicode="&#xc1;" glyph-name="Aacute" horiz-adv-x="798" d="M514 917H715L584 737H407L514 917ZM398 699H597L728 0H526L502 133H273L192 0H-30L398 699ZM487 290L462 486L353 290H487Z" />
<glyph unicode="&#xc2;" glyph-name="Acircumflex" horiz-adv-x="798" d="M442 920H607L718 748H551L508 819L435 748H258L442 920ZM398 699H597L728 0H526L502 133H273L192 0H-30L398 699ZM487 290L462 486L353 290H487Z" />
<glyph unicode="&#xc3;" glyph-name="Atilde" horiz-adv-x="798" d="M309 883Q353 924 425 924Q447 924 468 918T522 899Q552 887 572 881T615 874Q679 874 731 923L702 783Q660 742 587 742Q562 742 540 748T485 768Q456 780 437 786T396 792Q333 792 279 742L309
883ZM398 699H597L728 0H526L502 133H273L192 0H-30L398 699ZM487 290L462 486L353 290H487Z" />
<glyph unicode="&#xc4;" glyph-name="Adieresis" horiz-adv-x="798" d="M340 742T321 760T302 806Q302 832 317 855T356 892T404 906Q433 906 451 888T470 841Q470 801 439 772T369 742Q340 742 321 760ZM576 742T557 760T537 806Q537 832 552 855T591 892T640
906Q668 906 686 888T705 841Q705 801 674 772T605 742Q576 742 557 760ZM398 699H597L728 0H526L502 133H273L192 0H-30L398 699ZM487 290L462 486L353 290H487Z" />
<glyph unicode="&#xc5;" glyph-name="Aring" horiz-adv-x="798" d="M728 0H526L502 133H273L192 0H-30L382 673Q360 703 360 743Q360 757 363 772Q377 836 426 877T543 919Q597 919 631 887T665 803Q665 789 662 772Q650 713 602 671L728 0ZM460 742T470 732T501
721Q523 721 541 736T564 772Q566 784 566 788Q566 805 556 814T523 824Q499 824 480 805T460 759Q460 742 470 732ZM487 290L462 486L353 290H487Z" />
<glyph unicode="&#xc6;" glyph-name="AE" horiz-adv-x="918" d="M411 699H996L959 525H679L659 429H856L822 270H625L604 174H884L848 0H382L410 133H269L186 0H-30L411 699ZM444 292L493 525H487L346 292H444Z" />
<glyph unicode="&#xc7;" glyph-name="Ccedilla" horiz-adv-x="676" d="M390 528T332 483T255 349Q247 309 247 282Q247 224 284 197T407 169Q478 169 538 185T656 236L615 46Q526 -3 412 -12L392 -46Q429 -51 448 -70T467 -119Q467 -125 465 -139Q454 -189 408
-218T285 -248Q214 -248 179 -233L196 -153Q206 -160 224 -164T259 -168Q291 -168 308 -160T331 -131Q332 -128 332 -122Q332 -104 310 -96T238 -87L283 -11Q166 6 100 76T34 259Q34 303 44 349Q81 521 199 617T505 714Q580 714 636 700T737 655L696 464Q659 498
608 513T484 528Q390 528 332 483Z" />
<glyph unicode="&#xc8;" glyph-name="Egrave" horiz-adv-x="557" d="M248 923H449L480 743H303L248 923ZM138 699H645L608 525H308L288 429H504L470 270H254L233 174H533L497 0H-10L138 699Z" />
<glyph unicode="&#xc9;" glyph-name="Eacute" horiz-adv-x="557" d="M390 917H591L460 737H283L390 917ZM138 699H645L608 525H308L288 429H504L470 270H254L233 174H533L497 0H-10L138 699Z" />
<glyph unicode="&#xca;" glyph-name="Ecircumflex" horiz-adv-x="557" d="M333 916H498L609 744H442L399 815L326 744H149L333 916ZM138 699H645L608 525H308L288 429H504L470 270H254L233 174H533L497 0H-10L138 699Z" />
<glyph unicode="&#xcb;" glyph-name="Edieresis" horiz-adv-x="557" d="M243 747T224 765T205 811Q205 837 220 860T259 897T307 911Q336 911 354 893T373 846Q373 806 342 777T272 747Q243 747 224 765ZM479 747T460 765T440 811Q440 837 455 860T494 897T543
911Q571 911 589 893T608 846Q608 806 577 777T508 747Q479 747 460 765ZM138 699H645L608 525H308L288 429H504L470 270H254L233 174H533L497 0H-10L138 699Z" />
<glyph unicode="&#xcc;" glyph-name="Igrave" horiz-adv-x="287" d="M88 917H289L320 737H143L88 917ZM138 699H345L197 0H-10L138 699Z" />
<glyph unicode="&#xcd;" glyph-name="Iacute" horiz-adv-x="287" d="M246 917H447L316 737H139L246 917ZM138 699H345L197 0H-10L138 699Z" />
<glyph unicode="&#xce;" glyph-name="Icircumflex" horiz-adv-x="287" d="M184 913H349L460 741H293L250 812L177 741H0L184 913ZM138 699H345L197 0H-10L138 699Z" />
<glyph unicode="&#xcf;" glyph-name="Idieresis" horiz-adv-x="287" d="M84 742T65 760T46 806Q46 832 61 855T100 892T148 906Q177 906 195 888T214 841Q214 801 183 772T113 742Q84 742 65 760ZM320 742T301 760T281 806Q281 832 296 855T335 892T384 906Q412
906 430 888T449 841Q449 801 418 772T349 742Q320 742 301 760ZM138 699H345L197 0H-10L138 699Z" />
<glyph unicode="&#xd0;" glyph-name="Eth" horiz-adv-x="739" d="M84 274H38L70 424H116L174 699H433Q529 699 601 664T713 567T752 426Q752 393 744 353Q706 177 593 89T296 0H26L84 274ZM334 174Q411 174 463 222T533 353Q541 391 541 420Q541 471 511 498T412
525H344L322 424H447L415 274H290L269 174H334Z" />
<glyph unicode="&#xd1;" glyph-name="Ntilde" horiz-adv-x="706" d="M276 883Q320 924 392 924Q414 924 435 918T489 899Q519 887 539 881T582 874Q646 874 698 923L669 783Q627 742 554 742Q529 742 507 748T452 768Q423 780 404 786T363 792Q300 792 246 742L276
883ZM138 699H339L479 333L557 699H764L616 0H416L274 366L197 0H-10L138 699Z" />
<glyph unicode="&#xd2;" glyph-name="Ograve" horiz-adv-x="794" d="M353 917H554L585 737H408L353 917ZM253 -15T183 19T74 117T35 265Q35 306 44 349Q67 457 132 540T292 668T499 714Q590 714 660 680T768 581T807 433Q807 393 798 349Q775 241 710 159T550
31T344 -15Q253 -15 183 19ZM457 179T513 225T587 349Q593 376 593 398Q593 456 559 487T458 518Q386 518 329 472T255 349Q249 322 249 299Q249 241 284 210T386 179Q457 179 513 225Z" />
<glyph unicode="&#xd3;" glyph-name="Oacute" horiz-adv-x="794" d="M492 917H693L562 737H385L492 917ZM253 -15T183 19T74 117T35 265Q35 306 44 349Q67 457 132 540T292 668T499 714Q590 714 660 680T768 581T807 433Q807 393 798 349Q775 241 710 159T550
31T344 -15Q253 -15 183 19ZM457 179T513 225T587 349Q593 376 593 398Q593 456 559 487T458 518Q386 518 329 472T255 349Q249 322 249 299Q249 241 284 210T386 179Q457 179 513 225Z" />
<glyph unicode="&#xd4;" glyph-name="Ocircumflex" horiz-adv-x="794" d="M440 921H605L716 749H549L506 820L433 749H256L440 921ZM253 -15T183 19T74 117T35 265Q35 306 44 349Q67 457 132 540T292 668T499 714Q590 714 660 680T768 581T807 433Q807 393 798
349Q775 241 710 159T550 31T344 -15Q253 -15 183 19ZM457 179T513 225T587 349Q593 376 593 398Q593 456 559 487T458 518Q386 518 329 472T255 349Q249 322 249 299Q249 241 284 210T386 179Q457 179 513 225Z" />
<glyph unicode="&#xd5;" glyph-name="Otilde" horiz-adv-x="794" d="M311 892Q355 933 427 933Q449 933 470 927T524 908Q554 896 574 890T617 883Q681 883 733 932L704 792Q662 751 589 751Q564 751 542 757T487 777Q458 789 439 795T398 801Q335 801 281 751L311
892ZM253 -15T183 19T74 117T35 265Q35 306 44 349Q67 457 132 540T292 668T499 714Q590 714 660 680T768 581T807 433Q807 393 798 349Q775 241 710 159T550 31T344 -15Q253 -15 183 19ZM457 179T513 225T587 349Q593 376 593 398Q593 456 559 487T458 518Q386
518 329 472T255 349Q249 322 249 299Q249 241 284 210T386 179Q457 179 513 225Z" />
<glyph unicode="&#xd6;" glyph-name="Odieresis" horiz-adv-x="794" d="M339 749T320 767T301 813Q301 839 316 862T355 899T403 913Q432 913 450 895T469 848Q469 808 438 779T368 749Q339 749 320 767ZM575 749T556 767T536 813Q536 839 551 862T590 899T639
913Q667 913 685 895T704 848Q704 808 673 779T604 749Q575 749 556 767ZM253 -15T183 19T74 117T35 265Q35 306 44 349Q67 457 132 540T292 668T499 714Q590 714 660 680T768 581T807 433Q807 393 798 349Q775 241 710 159T550 31T344 -15Q253 -15 183 19ZM457
179T513 225T587 349Q593 376 593 398Q593 456 559 487T458 518Q386 518 329 472T255 349Q249 322 249 299Q249 241 284 210T386 179Q457 179 513 225Z" />
<glyph unicode="&#xd7;" glyph-name="multiply" horiz-adv-x="413" d="M198 200L109 127L20 239L109 313L52 386L189 499L246 426L336 500L425 386L335 312L393 239L256 126L198 200Z" />
<glyph unicode="&#xd8;" glyph-name="Oslash" horiz-adv-x="794" d="M161 30Q101 67 68 127T35 265Q35 306 44 349Q67 457 132 540T292 668T499 714Q543 714 577 707L625 784H746L676 671Q738 635 772 574T807 433Q807 393 798 349Q775 241 710 159T550 31T344
-15Q299 -15 259 -6L211 -86H90L161 30ZM461 518H458Q386 518 329 472T255 349Q249 322 249 298Q249 247 276 217L461 518ZM386 179Q457 179 513 225T587 349Q592 377 592 397Q592 453 561 484L374 179H386Z" />
<glyph unicode="&#xd9;" glyph-name="Ugrave" horiz-adv-x="724" d="M317 917H518L549 737H372L317 917ZM183 -15T112 49T40 224Q40 262 49 304L133 699H340L257 306Q250 269 250 252Q250 211 272 194T344 176Q394 176 424 190T470 232T497 306L580 699H787L703
304Q670 150 578 68T308 -15Q183 -15 112 49Z" />
<glyph unicode="&#xda;" glyph-name="Uacute" horiz-adv-x="724" d="M470 917H671L540 737H363L470 917ZM183 -15T112 49T40 224Q40 262 49 304L133 699H340L257 306Q250 269 250 252Q250 211 272 194T344 176Q394 176 424 190T470 232T497 306L580 699H787L703
304Q670 150 578 68T308 -15Q183 -15 112 49Z" />
<glyph unicode="&#xdb;" glyph-name="Ucircumflex" horiz-adv-x="724" d="M405 920H570L681 748H514L471 819L398 748H221L405 920ZM183 -15T112 49T40 224Q40 262 49 304L133 699H340L257 306Q250 269 250 252Q250 211 272 194T344 176Q394 176 424 190T470 232T497
306L580 699H787L703 304Q670 150 578 68T308 -15Q183 -15 112 49Z" />
<glyph unicode="&#xdc;" glyph-name="Udieresis" horiz-adv-x="724" d="M304 749T285 767T266 813Q266 839 281 862T320 899T368 913Q397 913 415 895T434 848Q434 808 403 779T333 749Q304 749 285 767ZM540 749T521 767T501 813Q501 839 516 862T555 899T604
913Q632 913 650 895T669 848Q669 808 638 779T569 749Q540 749 521 767ZM183 -15T112 49T40 224Q40 262 49 304L133 699H340L257 306Q250 269 250 252Q250 211 272 194T344 176Q394 176 424 190T470 232T497 306L580 699H787L703 304Q670 150 578 68T308 -15Q183
-15 112 49Z" />
<glyph unicode="&#xdd;" glyph-name="Yacute" horiz-adv-x="766" d="M487 923H688L557 743H380L487 923ZM281 266L118 699H331L418 458L616 699H844L488 266L432 0H225L281 266Z" />
<glyph unicode="&#xde;" glyph-name="Thorn" horiz-adv-x="647" d="M138 699H345L323 597H440Q504 597 555 575T637 509T667 407Q667 381 661 352Q634 230 552 169T336 107H219L197 0H-10L138 699ZM330 271Q383 271 411 288T449 352Q453 368 453 384Q453 412 433
422T365 433H289L254 271H330Z" />
<glyph unicode="&#xdf;" glyph-name="germandbls" horiz-adv-x="661" d="M269 -15T230 3L265 165Q277 156 296 151T336 146Q373 146 397 167T429 226Q432 240 432 250Q432 306 358 306H305L334 445H378Q413 445 434 466T463 522Q465 534 465 540Q465 564 449 577T401
591Q360 591 334 570T299 510L191 0H-15L87 484Q106 573 145 629T254 715T432 744Q515 744 570 719T651 651T677 559Q677 537 673 518Q663 471 637 434T570 375Q641 342 641 263Q641 240 635 211Q612 104 539 45T350 -15Q269 -15 230 3Z" />
<glyph unicode="&#xe0;" glyph-name="agrave" horiz-adv-x="669" d="M277 697H478L509 517H332L277 697ZM127 -15T70 37T13 178Q13 202 20 239Q45 356 127 425T330 495Q376 495 413 482T473 445L481 480H681L579 0H386L395 44Q359 16 314 1T221 -15Q127 -15 70
37ZM342 140T372 156T421 200L438 279Q431 307 408 323T351 339Q304 339 271 313T227 239Q223 217 223 207Q223 140 308 140Q342 140 372 156Z" />
<glyph unicode="&#xe1;" glyph-name="aacute" horiz-adv-x="669" d="M394 697H595L464 517H287L394 697ZM127 -15T70 37T13 178Q13 202 20 239Q45 356 127 425T330 495Q376 495 413 482T473 445L481 480H681L579 0H386L395 44Q359 16 314 1T221 -15Q127 -15 70
37ZM342 140T372 156T421 200L438 279Q431 307 408 323T351 339Q304 339 271 313T227 239Q223 217 223 207Q223 140 308 140Q342 140 372 156Z" />
<glyph unicode="&#xe2;" glyph-name="acircumflex" horiz-adv-x="669" d="M346 700H511L622 528H455L412 599L339 528H162L346 700ZM127 -15T70 37T13 178Q13 202 20 239Q45 356 127 425T330 495Q376 495 413 482T473 445L481 480H681L579 0H386L395 44Q359 16
314 1T221 -15Q127 -15 70 37ZM342 140T372 156T421 200L438 279Q431 307 408 323T351 339Q304 339 271 313T227 239Q223 217 223 207Q223 140 308 140Q342 140 372 156Z" />
<glyph unicode="&#xe3;" glyph-name="atilde" horiz-adv-x="669" d="M227 662Q271 703 343 703Q365 703 386 697T440 678Q470 666 490 660T533 653Q597 653 649 702L620 562Q578 521 505 521Q480 521 458 527T403 547Q374 559 355 565T314 571Q251 571 197 521L227
662ZM127 -15T70 37T13 178Q13 202 20 239Q45 356 127 425T330 495Q376 495 413 482T473 445L481 480H681L579 0H386L395 44Q359 16 314 1T221 -15Q127 -15 70 37ZM342 140T372 156T421 200L438 279Q431 307 408 323T351 339Q304 339 271 313T227 239Q223 217 223
207Q223 140 308 140Q342 140 372 156Z" />
<glyph unicode="&#xe4;" glyph-name="adieresis" horiz-adv-x="669" d="M240 519T221 537T202 583Q202 609 217 632T256 669T304 683Q333 683 351 665T370 618Q370 578 339 549T269 519Q240 519 221 537ZM476 519T457 537T437 583Q437 609 452 632T491 669T540
683Q568 683 586 665T605 618Q605 578 574 549T505 519Q476 519 457 537ZM127 -15T70 37T13 178Q13 202 20 239Q45 356 127 425T330 495Q376 495 413 482T473 445L481 480H681L579 0H386L395 44Q359 16 314 1T221 -15Q127 -15 70 37ZM342 140T372 156T421 200L438
279Q431 307 408 323T351 339Q304 339 271 313T227 239Q223 217 223 207Q223 140 308 140Q342 140 372 156Z" />
<glyph unicode="&#xe5;" glyph-name="aring" horiz-adv-x="669" d="M337 521T304 554T270 638Q270 652 273 667Q287 731 336 772T453 814Q507 814 541 782T575 698Q575 684 572 667Q559 604 509 563T391 521Q337 521 304 554ZM433 616T451 631T474 667Q476 679
476 683Q476 700 466 709T433 719Q409 719 390 700T370 654Q370 637 380 627T411 616Q433 616 451 631ZM127 -15T70 37T13 178Q13 202 20 239Q45 356 127 425T330 495Q376 495 413 482T473 445L481 480H681L579 0H386L395 44Q359 16 314 1T221 -15Q127 -15 70 37ZM342
140T372 156T421 200L438 279Q431 307 408 323T351 339Q304 339 271 313T227 239Q223 217 223 207Q223 140 308 140Q342 140 372 156Z" />
<glyph unicode="&#xe6;" glyph-name="ae" horiz-adv-x="955" d="M95 -15T46 17T-3 112Q-3 132 1 149Q18 229 81 272T242 315Q279 315 315 307T376 287L377 296Q378 300 378 309Q378 335 350 349T269 363Q182 363 101 328L129 460Q166 476 221 485T336 495Q452
495 516 439Q557 465 608 480T713 495Q788 495 840 470T918 401T944 302Q944 278 937 245L923 182H554Q565 116 684 116Q732 116 784 123T874 145L848 20Q806 4 750 -5T634 -15Q567 -15 516 3T433 54Q380 21 320 3T181 -15Q95 -15 46 17ZM758 295Q763 363 682 363Q642
363 616 345T578 295H758ZM277 101T302 110T343 136L351 174Q321 198 273 198Q245 198 227 185T203 149Q202 145 202 136Q202 101 251 101Q277 101 302 110Z" />
<glyph unicode="&#xe7;" glyph-name="ccedilla" horiz-adv-x="540" d="M319 341T279 316T227 239Q224 223 224 209Q224 172 250 155T333 138Q378 138 423 150T508 185L475 31Q414 -3 319 -12L298 -46Q335 -51 354 -70T373 -119Q373 -125 371 -139Q360 -189 314
-218T191 -248Q120 -248 85 -233L102 -153Q112 -160 130 -164T165 -168Q197 -168 214 -160T237 -131Q238 -128 238 -122Q238 -104 216 -96T144 -87L190 -9Q111 6 63 55T14 183Q14 209 20 239Q47 364 136 429T364 495Q424 495 476 484T558 451L525 296Q500 318 461
329T377 341Q319 341 279 316Z" />
<glyph unicode="&#xe8;" glyph-name="egrave" horiz-adv-x="600" d="M217 697H418L449 517H272L217 697ZM155 -15T85 37T14 183Q14 208 20 238Q46 360 128 427T358 495Q429 495 481 470T560 399T588 297Q588 272 582 245L568 180H198Q200 147 228 132T329 116Q377
116 429 123T519 145L493 20Q451 4 392 -5T273 -15Q155 -15 85 37ZM403 296Q405 329 389 346T327 363Q287 363 261 345T222 296H403Z" />
<glyph unicode="&#xe9;" glyph-name="eacute" horiz-adv-x="600" d="M358 697H559L428 517H251L358 697ZM155 -15T85 37T14 183Q14 208 20 238Q46 360 128 427T358 495Q429 495 481 470T560 399T588 297Q588 272 582 245L568 180H198Q200 147 228 132T329 116Q377
116 429 123T519 145L493 20Q451 4 392 -5T273 -15Q155 -15 85 37ZM403 296Q405 329 389 346T327 363Q287 363 261 345T222 296H403Z" />
<glyph unicode="&#xea;" glyph-name="ecircumflex" horiz-adv-x="600" d="M305 700H470L581 528H414L371 599L298 528H121L305 700ZM155 -15T85 37T14 183Q14 208 20 238Q46 360 128 427T358 495Q429 495 481 470T560 399T588 297Q588 272 582 245L568 180H198Q200
147 228 132T329 116Q377 116 429 123T519 145L493 20Q451 4 392 -5T273 -15Q155 -15 85 37ZM403 296Q405 329 389 346T327 363Q287 363 261 345T222 296H403Z" />
<glyph unicode="&#xeb;" glyph-name="edieresis" horiz-adv-x="600" d="M203 521T184 539T165 585Q165 611 180 634T219 671T267 685Q296 685 314 667T333 620Q333 580 302 551T232 521Q203 521 184 539ZM439 521T420 539T400 585Q400 611 415 634T454 671T503
685Q531 685 549 667T568 620Q568 580 537 551T468 521Q439 521 420 539ZM155 -15T85 37T14 183Q14 208 20 238Q46 360 128 427T358 495Q429 495 481 470T560 399T588 297Q588 272 582 245L568 180H198Q200 147 228 132T329 116Q377 116 429 123T519 145L493 20Q451
4 392 -5T273 -15Q155 -15 85 37ZM403 296Q405 329 389 346T327 363Q287 363 261 345T222 296H403Z" />
<glyph unicode="&#xec;" glyph-name="igrave" horiz-adv-x="280" d="M42 697H243L274 517H97L42 697ZM92 480H292L190 0H-10L92 480Z" />
<glyph unicode="&#xed;" glyph-name="iacute" horiz-adv-x="280" d="M195 697H396L265 517H88L195 697ZM92 480H292L190 0H-10L92 480Z" />
<glyph unicode="&#xee;" glyph-name="icircumflex" horiz-adv-x="280" d="M136 700H301L412 528H245L202 599L129 528H-48L136 700ZM92 480H292L190 0H-10L92 480Z" />
<glyph unicode="&#xef;" glyph-name="idieresis" horiz-adv-x="280" d="M33 521T14 539T-5 585Q-5 611 10 634T49 671T97 685Q126 685 144 667T163 620Q163 580 132 551T62 521Q33 521 14 539ZM269 521T250 539T230 585Q230 611 245 634T284 671T333 685Q361 685
379 667T398 620Q398 580 367 551T298 521Q269 521 250 539ZM92 480H292L190 0H-10L92 480Z" />
<glyph unicode="&#xf0;" glyph-name="eth" horiz-adv-x="637" d="M140 -15T77 38T13 178Q13 208 18 229Q42 341 122 400T323 459Q363 459 399 448T455 418Q458 436 458 454Q458 510 425 539L291 473L305 537L360 564Q342 566 332 566Q247 566 190 539L223 693Q251
702 290 708T368 714Q482 714 555 661L687 726L673 663L594 624Q650 554 650 445Q650 395 636 328Q614 225 560 148T427 28T254 -15Q140 -15 77 38ZM339 136T369 169T399 248Q399 278 381 294T332 311Q292 311 265 288T228 224Q224 208 224 192Q224 164 240 150T294
136Q339 136 369 169Z" />
<glyph unicode="&#xf1;" glyph-name="ntilde" horiz-adv-x="629" d="M181 662Q225 703 297 703Q319 703 340 697T394 678Q424 666 444 660T487 653Q551 653 603 702L574 562Q532 521 459 521Q434 521 412 527T357 547Q328 559 309 565T268 571Q205 571 151 521L181
662ZM92 480H285L275 433Q311 463 357 479T449 495Q530 495 571 457T613 350Q613 325 607 298L544 0H343L400 270Q404 292 404 299Q404 319 393 329T354 339Q294 339 250 285L190 0H-10L92 480Z" />
<glyph unicode="&#xf2;" glyph-name="ograve" horiz-adv-x="647" d="M235 697H436L467 517H290L235 697ZM193 -15T136 10T47 82T15 188Q15 213 21 240Q37 315 83 372T205 462T378 495Q456 495 514 469T603 397T634 291Q634 267 628 240Q612 165 565 108T442 18T269
-15Q193 -15 136 10ZM347 140T380 167T423 240Q426 257 426 272Q426 305 407 322T345 339Q300 339 268 313T226 240Q222 218 222 208Q222 140 302 140Q347 140 380 167Z" />
<glyph unicode="&#xf3;" glyph-name="oacute" horiz-adv-x="647" d="M379 697H580L449 517H272L379 697ZM193 -15T136 10T47 82T15 188Q15 213 21 240Q37 315 83 372T205 462T378 495Q456 495 514 469T603 397T634 291Q634 267 628 240Q612 165 565 108T442 18T269
-15Q193 -15 136 10ZM347 140T380 167T423 240Q426 257 426 272Q426 305 407 322T345 339Q300 339 268 313T226 240Q222 218 222 208Q222 140 302 140Q347 140 380 167Z" />
<glyph unicode="&#xf4;" glyph-name="ocircumflex" horiz-adv-x="647" d="M319 700H484L595 528H428L385 599L312 528H135L319 700ZM193 -15T136 10T47 82T15 188Q15 213 21 240Q37 315 83 372T205 462T378 495Q456 495 514 469T603 397T634 291Q634 267 628 240Q612
165 565 108T442 18T269 -15Q193 -15 136 10ZM347 140T380 167T423 240Q426 257 426 272Q426 305 407 322T345 339Q300 339 268 313T226 240Q222 218 222 208Q222 140 302 140Q347 140 380 167Z" />
<glyph unicode="&#xf5;" glyph-name="otilde" horiz-adv-x="647" d="M188 665Q232 706 304 706Q326 706 347 700T401 681Q431 669 451 663T494 656Q558 656 610 705L581 565Q539 524 466 524Q441 524 419 530T364 550Q335 562 316 568T275 574Q212 574 158 524L188
665ZM193 -15T136 10T47 82T15 188Q15 213 21 240Q37 315 83 372T205 462T378 495Q456 495 514 469T603 397T634 291Q634 267 628 240Q612 165 565 108T442 18T269 -15Q193 -15 136 10ZM347 140T380 167T423 240Q426 257 426 272Q426 305 407 322T345 339Q300 339
268 313T226 240Q222 218 222 208Q222 140 302 140Q347 140 380 167Z" />
<glyph unicode="&#xf6;" glyph-name="odieresis" horiz-adv-x="647" d="M217 521T198 539T179 585Q179 611 194 634T233 671T281 685Q310 685 328 667T347 620Q347 580 316 551T246 521Q217 521 198 539ZM453 521T434 539T414 585Q414 611 429 634T468 671T517
685Q545 685 563 667T582 620Q582 580 551 551T482 521Q453 521 434 539ZM193 -15T136 10T47 82T15 188Q15 213 21 240Q37 315 83 372T205 462T378 495Q456 495 514 469T603 397T634 291Q634 267 628 240Q612 165 565 108T442 18T269 -15Q193 -15 136 10ZM347 140T380
167T423 240Q426 257 426 272Q426 305 407 322T345 339Q300 339 268 313T226 240Q222 218 222 208Q222 140 302 140Q347 140 380 167Z" />
<glyph unicode="&#xf7;" glyph-name="divide" horiz-adv-x="408" d="M212 412T196 427T180 467Q180 502 206 528T267 554Q293 554 309 538T325 497Q325 463 298 438T237 412Q212 412 196 427ZM51 384H419L385 225H17L51 384ZM136 55T120 70T104 110Q104 145 130
171T191 197Q217 197 233 181T250 141Q250 107 223 81T161 55Q136 55 120 70Z" />
<glyph unicode="&#xf8;" glyph-name="oslash" horiz-adv-x="647" d="M128 13Q74 40 45 85T15 188Q15 213 21 240Q37 315 83 372T205 462T378 495Q400 495 423 492L468 566H579L518 467Q573 441 603 395T633 290Q633 261 628 240Q612 165 565 108T442 18T269 -15Q244
-15 222 -12L177 -86H67L128 13ZM331 343Q289 339 260 312T222 240Q218 224 218 206Q218 185 225 171L331 343ZM357 141T387 168T427 240Q431 264 431 273Q431 296 422 311L314 136Q357 141 387 168Z" />
<glyph unicode="&#xf9;" glyph-name="ugrave" horiz-adv-x="629" d="M224 697H425L456 517H279L224 697ZM102 -15T61 27T19 138Q19 164 25 189L87 480H287L230 213Q226 197 226 181Q226 159 238 150T278 140Q337 140 379 194L440 480H641L539 0H345L354 46Q318
16 273 1T181 -15Q102 -15 61 27Z" />
<glyph unicode="&#xfa;" glyph-name="uacute" horiz-adv-x="629" d="M364 697H565L434 517H257L364 697ZM102 -15T61 27T19 138Q19 164 25 189L87 480H287L230 213Q226 197 226 181Q226 159 238 150T278 140Q337 140 379 194L440 480H641L539 0H345L354 46Q318
16 273 1T181 -15Q102 -15 61 27Z" />
<glyph unicode="&#xfb;" glyph-name="ucircumflex" horiz-adv-x="629" d="M311 700H476L587 528H420L377 599L304 528H127L311 700ZM102 -15T61 27T19 138Q19 164 25 189L87 480H287L230 213Q226 197 226 181Q226 159 238 150T278 140Q337 140 379 194L440 480H641L539
0H345L354 46Q318 16 273 1T181 -15Q102 -15 61 27Z" />
<glyph unicode="&#xfc;" glyph-name="udieresis" horiz-adv-x="629" d="M210 521T191 539T172 585Q172 611 187 634T226 671T274 685Q303 685 321 667T340 620Q340 580 309 551T239 521Q210 521 191 539ZM446 521T427 539T407 585Q407 611 422 634T461 671T510
685Q538 685 556 667T575 620Q575 580 544 551T475 521Q446 521 427 539ZM102 -15T61 27T19 138Q19 164 25 189L87 480H287L230 213Q226 197 226 181Q226 159 238 150T278 140Q337 140 379 194L440 480H641L539 0H345L354 46Q318 16 273 1T181 -15Q102 -15 61 27Z"
/>
<glyph unicode="&#xfd;" glyph-name="yacute" horiz-adv-x="642" d="M385 698H586L455 518H278L385 698ZM126 -230T78 -221T-2 -197L26 -64Q98 -98 201 -98Q269 -98 302 -72T346 6L357 60Q321 30 276 15T184 -1Q106 -1 65 42T23 154Q23 182 28 203L87 480H287L233
227Q229 205 229 197Q229 175 241 165T281 154Q340 154 382 208L440 480H641L548 44Q520 -90 431 -160T173 -230Q126 -230 78 -221Z" />
<glyph unicode="&#xfe;" glyph-name="thorn" horiz-adv-x="669" d="M138 699H338L284 445Q315 468 359 481T449 495Q543 495 600 442T657 300Q657 277 650 240Q624 123 544 54T340 -15Q295 -15 257 -2T197 34L143 -219H-56L138 699ZM366 140T399 166T443 241Q447
263 447 273Q447 340 362 340Q329 340 299 324T249 279L232 201Q239 173 262 157T319 140Q366 140 399 166Z" />
<glyph unicode="&#xff;" glyph-name="ydieresis" horiz-adv-x="642" d="M235 521T216 539T197 585Q197 611 212 634T251 671T299 685Q328 685 346 667T365 620Q365 580 334 551T264 521Q235 521 216 539ZM471 521T452 539T432 585Q432 611 447 634T486 671T535
685Q563 685 581 667T600 620Q600 580 569 551T500 521Q471 521 452 539ZM126 -230T78 -221T-2 -197L26 -64Q98 -98 201 -98Q269 -98 302 -72T346 6L357 60Q321 30 276 15T184 -1Q106 -1 65 42T23 154Q23 182 28 203L87 480H287L233 227Q229 205 229 197Q229 175
241 165T281 154Q340 154 382 208L440 480H641L548 44Q520 -90 431 -160T173 -230Q126 -230 78 -221Z" />
<glyph unicode="&#x2013;" glyph-name="endash" horiz-adv-x="666" d="M51 384H677L643 225H17L51 384Z" />
<glyph unicode="&#x2014;" glyph-name="emdash" horiz-adv-x="798" d="M51 384H809L775 225H17L51 384Z" />
<glyph unicode="&#x2018;" glyph-name="quoteleft" horiz-adv-x="289" d="M205 714H370L264 512H78L205 714Z" />
<glyph unicode="&#x2019;" glyph-name="quoteright" horiz-adv-x="293" d="M184 714H374L247 512H78L184 714Z" />
<glyph unicode="&#x201a;" glyph-name="quotesinglbase" horiz-adv-x="293" d="M48 71H238L111 -131H-57L48 71Z" />
<glyph unicode="&#x201c;" glyph-name="quotedblleft" horiz-adv-x="490" d="M205 714H364L258 512H78L205 714ZM412 714H571L465 512H285L412 714Z" />
<glyph unicode="&#x201d;" glyph-name="quotedblright" horiz-adv-x="490" d="M184 714H364L237 512H78L184 714ZM391 714H571L444 512H285L391 714Z" />
<glyph unicode="&#x201e;" glyph-name="quotedblbase" horiz-adv-x="490" d="M48 71H228L101 -131H-57L48 71ZM255 71H435L308 -131H149L255 71Z" />
<glyph unicode="&#x2022;" glyph-name="bullet" horiz-adv-x="257" d="M79 189T55 213T30 275Q30 310 49 340T100 388T165 406Q204 406 228 383T253 322Q253 287 234 257T184 208T119 189Q79 189 55 213Z" />
<glyph unicode="&#x2039;" glyph-name="guilsinglleft" horiz-adv-x="407" d="M35 306L43 346L343 577L436 459L251 318L376 177L236 75L35 306Z" />
<glyph unicode="&#x203a;" glyph-name="guilsinglright" horiz-adv-x="407" d="M9 193L194 334L69 475L207 577L410 346L402 306L100 75L9 193Z" />
</font>
</defs>
</svg>
