<?xml version="1.0" standalone="no"?>
<!DOCTYPE svg PUBLIC "-//W3C//DTD SVG 1.1//EN" "http://www.w3.org/Graphics/SVG/1.1/DTD/svg11.dtd">
<svg xmlns="http://www.w3.org/2000/svg">
<defs >
<font id="PasseroOne" horiz-adv-x="974" ><font-face
    font-family="Passero One"
    units-per-em="2048"
    panose-1="2 11 6 3 5 3 2 2 1 4"
    ascent="1820"
    descent="-618"
    alphabetic="0" />
<glyph unicode=" " glyph-name="space" horiz-adv-x="449" />
<glyph unicode="!" glyph-name="exclam" horiz-adv-x="600" d="M186 1326L430 1371L434 1087L387 448L196 460L186 1326ZM411 268Q422 230 422 185T419 108T412 50Q402 -7 389 -31L166 -6Q175 63 177 146T182 256L411 268Z" />
<glyph unicode="&quot;" glyph-name="quotedbl" horiz-adv-x="819" d="M702 1329Q728 1251 728 1155Q728 987 686 821L526 793Q529 836 529 881Q529 1083 483 1292L702 1329ZM313 1329Q339 1251 339 1155Q339 987 297 821L137 793Q140 836 140 881Q140 1083 94
1292L313 1329Z" />
<glyph unicode="#" glyph-name="numbersign" horiz-adv-x="1294" d="M697 242Q587 240 477 240H440L354 -49L211 -12L277 242Q176 244 73 250L102 416H323L383 644Q265 646 151 653L178 819H429L516 1149L694 1110L611 819H849L936 1149L1114 1110L1031 819H1231L1212
662Q1095 656 983 652L912 416H1153L1134 258L1002 252Q934 249 862 247L774 -49L630 -12L697 242ZM743 416L803 646Q683 643 560 643L492 416H743Z" />
<glyph unicode="$" glyph-name="dollar" horiz-adv-x="833" d="M287 -47Q193 -58 112 -63L84 160L298 176Q397 183 497 197L504 319L153 457Q122 469 106 503T90 558T90 585T94 615L114 808Q124 888 196 920Q235 938 277 947L370 968L388 1278L582 1284L543 1002L629
1019Q670 1027 701 1032L746 802L327 752L311 651L680 479Q747 448 737 360L710 109Q701 32 585 6Q535 -8 462 -20L445 -273L260 -257L287 -47Z" />
<glyph unicode="%" glyph-name="percent" horiz-adv-x="1510" d="M1005 1345L1203 1253L492 -92L332 -15L1005 1345ZM594 714T538 687T409 659T280 682T185 750Q104 840 104 991Q104 1117 192 1187Q274 1253 413 1253Q612 1253 682 1113Q706 1065 706 998T688
869T632 761ZM292 979Q292 843 399 843Q455 843 476 862Q515 897 515 962T487 1048T423 1069T366 1065T328 1050Q292 1026 292 979ZM813 295Q813 365 836 414T900 496Q984 562 1122 562Q1321 562 1391 422Q1415 374 1415 307T1397 178T1340 70Q1259 -32 1114 -32Q975
-32 894 58T813 295ZM1001 288Q1001 152 1108 152Q1164 152 1185 171Q1224 206 1224 271T1196 357T1132 378T1075 374T1038 358Q1001 335 1001 288Z" />
<glyph unicode="&amp;" glyph-name="ampersand" horiz-adv-x="1203" d="M759 872Q734 1020 701 1097L492 1057Q471 973 469 852Q537 812 615 772L775 692L1100 540L981 326Q779 427 739 448L588 532Q552 553 522 573Q496 543 475 512L442 465Q431 448 424 439Q429
350 463 248Q571 212 805 212Q860 212 919 215L904 -6Q829 -17 755 -17T605 -8T466 14Q343 39 303 61T247 103T216 179Q178 318 178 458Q178 486 216 532Q291 626 373 667V692L330 720Q224 789 224 820Q224 1044 252 1122Q273 1180 308 1198Q473 1300 727 1331Q771
1331 823 1297Q916 1236 926 1209T947 1149T968 1078Q987 1004 999 933L759 872Z" />
<glyph unicode="&apos;" glyph-name="quotesingle" horiz-adv-x="430" d="M313 1329Q339 1251 339 1155Q339 987 297 821L137 793Q140 836 140 881Q140 1083 94 1292L313 1329Z" />
<glyph unicode="(" glyph-name="parenleft" horiz-adv-x="620" d="M143 549Q159 1086 401 1614L585 1542Q451 1169 398 750Q389 679 385 628L379 549Q379 211 496 -170L573 -410L379 -483Q206 -75 163 316Q150 433 143 549Z" />
<glyph unicode=")" glyph-name="parenright" horiz-adv-x="641" d="M25 -385Q133 -87 189 247Q217 414 231 608Q231 946 114 1327L37 1567L231 1640Q415 1206 456 842Q470 724 473 608Q448 73 209 -457L25 -385Z" />
<glyph unicode="*" glyph-name="asterisk" horiz-adv-x="899" d="M119 1075Q119 1075 176 1126Q275 1214 357 1258Q172 1275 60 1339L167 1551Q346 1421 402 1372Q367 1486 351 1680L606 1660Q568 1489 506 1361Q634 1459 772 1531L849 1284Q712 1258 560 1258L676
1168Q741 1117 809 1050L596 917L558 978Q539 1010 520 1044L484 1114Q467 1149 454 1184Q380 1029 294 922L119 1075Z" />
<glyph unicode="+" glyph-name="plus" horiz-adv-x="1155" d="M153 600L479 603L471 977L700 1022V799L694 606L1040 610L1030 422Q939 418 859 414T694 407V406L678 -4L483 -20L481 403H458Q301 403 125 414L153 600Z" />
<glyph unicode="," glyph-name="comma" horiz-adv-x="483" d="M370 270Q398 210 398 125T389 -17T361 -124Q327 -213 241 -332L96 -322Q162 -208 186 -83Q194 -44 194 -12L116 -4L94 236L370 270Z" />
<glyph unicode="-" glyph-name="hyphen" horiz-adv-x="943" d="M153 629L828 639L818 432Q721 428 678 425T607 420T546 416Q469 413 397 413T298 413T248 415T200 419T125 424L153 629Z" />
<glyph unicode="." glyph-name="period" horiz-adv-x="503" d="M129 -2Q137 131 137 180T135 260L377 285Q388 243 388 175Q388 30 358 -25L129 -2Z" />
<glyph unicode="/" glyph-name="slash" horiz-adv-x="759" d="M522 1393L741 1333L217 -174L26 -135L522 1393Z" />
<glyph unicode="0" glyph-name="zero" horiz-adv-x="1077" d="M911 674Q913 640 913 588T907 463T890 323Q872 191 856 138T835 67T823 34Q807 -1 781 -10T716 -23T638 -28Q572 -31 530 -31Q286 -31 236 26Q184 84 152 428Q141 546 141 600T142 686T146 747Q155
854 164 882T185 923Q208 950 264 963Q557 1028 874 1028L900 1027Q904 1026 907 1026L925 795Q901 797 882 797H835Q647 797 537 780T407 756Q393 653 393 492T430 182H624Q656 332 669 582L672 641L911 674Z" />
<glyph unicode="1" glyph-name="one" horiz-adv-x="853" d="M739 -59Q372 -47 123 -4L143 186L348 176L338 651Q188 651 94 666L139 895L338 856V1001L571 1032Q587 954 587 854Q587 715 583 649L551 166L755 156L739 -59Z" />
<glyph unicode="2" glyph-name="two" horiz-adv-x="960" d="M794 -63Q397 -43 131 57Q122 121 122 188Q122 310 141 418Q300 467 481 571Q533 601 567 627L563 713Q407 768 145 801L213 1026Q504 981 585 958T708 920T761 894T781 870T791 845L796 825Q814 758
814 688Q814 510 790 490Q666 381 351 297L345 221Q434 198 603 185T831 170L794 -63Z" />
<glyph unicode="3" glyph-name="three" horiz-adv-x="950" d="M69 -143L307 -28Q454 46 553 115Q556 133 556 152Q556 192 547 219L391 315L298 266Q256 244 207 221L108 428L298 508Q401 551 516 616Q516 659 506 709Q391 751 155 787L88 797L160 1026L312 997Q530
954 680 895Q712 879 722 856Q753 787 753 674Q753 616 743 526L616 450Q595 437 577 428L575 412L729 358Q802 329 808 212Q809 181 809 147Q809 52 788 31Q683 -80 480 -201L370 -265Q266 -322 205 -348L69 -143Z" />
<glyph unicode="4" glyph-name="four" horiz-adv-x="1085" d="M823 232Q956 225 1016 225L989 4Q947 4 902 6L810 10L794 -262L583 -283L588 28Q266 58 82 111L78 268Q165 537 223 838L258 1016L489 981Q489 869 456 751T399 557L309 279Q340 272 396 266L496
256Q542 251 592 247L600 674L833 713Q839 673 839 606Q839 498 833 393L823 232Z" />
<glyph unicode="5" glyph-name="five" horiz-adv-x="901" d="M702 1026L734 1025Q740 1024 745 1024L755 788Q747 789 730 790H696Q678 791 661 791H635Q491 791 366 771L341 554Q523 520 692 452Q737 434 750 380Q772 294 772 208Q772 67 753 29Q627 -104 338
-265Q223 -329 166 -350L55 -131Q246 -43 296 -18Q422 44 522 111Q526 139 526 176Q526 256 510 268T447 296T344 330L116 393L149 956Q454 1026 702 1026Z" />
<glyph unicode="6" glyph-name="six" horiz-adv-x="1003" d="M356 528Q356 303 393 180L620 190Q661 289 661 432Q661 472 657 512Q607 533 531 549L436 569L502 788Q653 759 741 722T848 672Q881 650 892 604T903 479T893 332T868 203Q839 86 811 35Q768 -24
610 -29Q546 -31 485 -31Q224 -31 184 66Q108 243 108 686V713Q108 854 422 1159L614 1341L774 1174Q518 928 466 874L364 762Q356 701 356 629V528Z" />
<glyph unicode="7" glyph-name="seven" horiz-adv-x="831" d="M158 -201T163 -174T178 -106Q246 180 273 252T321 371T360 452L510 727L504 756Q327 783 45 797L92 1026Q141 1021 185 1017L270 1009Q545 982 710 938L737 715L516 266L383 -266L153 -223Q158 -201
163 -174Z" />
<glyph unicode="8" glyph-name="eight" horiz-adv-x="1069" d="M855 1298L878 1297Q882 1296 885 1296L910 1067L822 1063Q466 1047 388 1020Q374 943 374 861V844Q412 805 458 768L551 696L646 797Q649 824 649 850T648 899L646 946Q666 949 682 950T719 954T761
959L875 971Q870 900 867 842T855 754Q838 699 801 676L686 602L837 495Q914 440 914 379Q914 258 874 118Q850 36 816 0Q770 -31 588 -31H541Q381 -31 261 2Q198 18 185 82Q149 212 149 318Q149 401 167 432T204 477L343 575L228 651Q176 685 163 705Q144 738
144 789T146 896T155 1004Q169 1132 186 1159T223 1197T283 1220T391 1246T537 1272Q721 1298 855 1298ZM384 375Q384 280 400 197Q464 181 545 181T650 184Q672 278 672 356V367L502 489L384 375Z" />
<glyph unicode="9" glyph-name="nine" horiz-adv-x="1038" d="M633 801L567 803Q444 803 360 780Q344 708 344 654Q344 551 358 451Q410 428 551 401L483 184Q281 222 184 291Q157 311 146 349T127 424T116 502Q106 586 106 642T108 737T116 810Q129 887 145 912Q189
979 325 1000Q497 1026 602 1026T738 1024T791 1012Q838 994 858 940Q901 823 901 675Q901 452 884 301Q864 98 372 -346L200 -193Q366 -37 427 28Q567 182 636 267Q659 388 659 526T633 801Z" />
<glyph unicode=":" glyph-name="colon" horiz-adv-x="501" d="M370 1042Q394 962 394 885T381 737L135 743L116 1012L370 1042ZM393 162Q393 12 362 -45L123 -23Q133 85 133 152T131 250L381 276Q393 237 393 162Z" />
<glyph unicode=";" glyph-name="semicolon" horiz-adv-x="557" d="M366 1022Q388 944 388 869T377 729L139 733L123 991L366 1022ZM411 270Q439 210 439 125T430 -17T402 -124Q368 -213 282 -332L137 -322Q203 -208 228 -83Q235 -44 235 -12L157 -4L135 236L411 270Z" />
<glyph unicode="&lt;" glyph-name="less" horiz-adv-x="1050" d="M147 602L782 1038L899 877L346 504L899 152L778 -18L106 430L147 602Z" />
<glyph unicode="=" glyph-name="equal" horiz-adv-x="1104" d="M215 827H938L923 647Q798 637 666 637T476 638H362Q233 640 176 643L215 827ZM215 436H938L923 256Q718 242 599 242T430 242T335 244T247 247T176 250L215 436Z" />
<glyph unicode="&gt;" glyph-name="greater" horiz-adv-x="1050" d="M690 506L137 858L258 1028L930 580L889 408L254 -28L137 133L690 506Z" />
<glyph unicode="?" glyph-name="question" horiz-adv-x="780" d="M161 453Q154 488 154 520T167 571T213 620T287 684L368 748Q410 779 442 807Q446 841 446 905T428 1068Q356 1075 281 1091L160 1116Q115 1126 74 1137L107 1380L638 1277Q696 1267 692 1207L672
768Q672 741 633 707L386 501Q365 480 365 417L161 453ZM387 285Q407 229 407 125T387 -25L157 -16Q157 156 147 246L387 285Z" />
<glyph unicode="@" glyph-name="at" horiz-adv-x="1775" d="M1214 221Q1275 199 1398 199Q1460 376 1460 629Q1460 819 1395 984Q1373 1040 1345 1075Q1222 1128 1046 1148Q989 1155 938 1155T824 1149T696 1132Q549 1105 461 1063Q397 971 359 716Q342 603 342
529T346 378T362 225Q386 43 432 -31Q586 -133 1020 -216Q1089 -229 1151 -238L1108 -453Q707 -394 382 -241Q314 -209 258 -174Q198 -92 154 119Q114 314 114 464T123 700T148 854Q179 976 233 1065T363 1210T533 1300Q712 1366 930 1366Q1174 1366 1374 1280Q1426
1257 1456 1239Q1671 1109 1671 621Q1671 372 1574 166Q1532 76 1460 2Q1432 -2 1392 -2T1295 7T1186 33Q1073 68 1026 115L1022 176L1016 770L813 754Q772 672 772 434Q772 291 794 217L973 186L911 -27L633 41Q608 48 597 73T573 144Q542 262 542 409Q542 703
614 887Q624 913 632 928T659 946L940 981L1028 891L1071 987H1241L1233 594L1214 221Z" />
<glyph unicode="A" glyph-name="A" horiz-adv-x="1157" d="M642 331H576Q520 331 399 354L323 -16L85 37L202 557L338 1237Q564 1277 815 1298L973 612L1095 10L852 -29L745 561L641 1059Q584 1059 522 1040L436 547L694 541L663 332Q652 331 642 331Z" />
<glyph unicode="B" glyph-name="B" horiz-adv-x="1115" d="M175 932L409 973L415 784V670L704 723Q765 820 765 944Q765 977 759 1006Q513 1075 63 1075L99 1313Q544 1307 861 1239Q908 1227 965 1136Q1019 1050 1019 1016T1014 945T999 864Q962 705 919 666Q891
640 761 600L759 592L958 502Q972 442 972 384T965 281T948 198Q914 76 875 50Q813 9 404 -28Q277 -39 204 -41L175 932ZM429 170Q614 186 699 213Q730 315 730 366T728 444T710 483L423 512L429 170Z" />
<glyph unicode="C" glyph-name="C" horiz-adv-x="876" d="M211 79T201 86T183 106Q138 174 118 510Q113 585 113 657T116 790T124 907Q135 1031 144 1056L156 1094Q172 1142 229 1165Q254 1175 294 1188L382 1218Q431 1233 484 1248L586 1278Q689 1307 760 1322L814
1079Q789 1073 753 1066L509 1020L440 1006Q410 999 395 995Q367 883 367 670Q367 392 401 260Q443 250 492 240L698 198L795 180L739 -51Q649 -35 575 -17Q294 50 253 64Z" />
<glyph unicode="D" glyph-name="D" horiz-adv-x="1144" d="M416 209L437 211Q470 216 504 220T576 232Q665 247 717 264Q783 537 783 836Q783 948 772 1030Q500 1081 82 1081H55L100 1323H121Q501 1323 782 1262Q836 1251 862 1241T915 1207T966 1154Q1024 1083
1028 1046Q1036 972 1036 880T1028 686T1004 485Q971 270 915 133Q903 102 889 89T830 61T722 33T578 11Q431 -6 186 -18V940L432 993L436 778L416 209Z" />
<glyph unicode="E" glyph-name="E" horiz-adv-x="970" d="M387 223L872 150L819 -68L668 -48Q335 -2 168 43L155 1196Q508 1286 827 1317L862 1079L383 1024L393 725L823 743L807 508L395 522L387 223Z" />
<glyph unicode="F" glyph-name="F" horiz-adv-x="880" d="M149 1196Q457 1273 784 1313L825 1075L393 1028L405 709L772 725L762 487L409 498L393 0L178 -18L149 1196Z" />
<glyph unicode="G" glyph-name="G" horiz-adv-x="1071" d="M598 727Q803 714 975 672L897 -6Q822 -17 748 -17T593 -8T444 16Q304 44 265 66T210 105T186 160T169 250T153 365Q137 507 137 594T138 729T142 823Q152 1008 166 1051T192 1117T226 1154Q311 1203
538 1259L643 1284Q780 1316 893 1333L946 1092Q917 1086 872 1078L667 1044Q471 1012 420 995Q391 881 391 665Q391 380 426 244Q544 201 669 201H688Q697 201 704 203L733 504L573 512L598 727Z" />
<glyph unicode="H" glyph-name="H" horiz-adv-x="1228" d="M166 1268L409 1300L430 680L817 694L827 1264L1071 1298L1073 750L1030 0L813 -18L811 473L694 467L428 469L411 0L192 -18L166 1268Z" />
<glyph unicode="I" glyph-name="I" horiz-adv-x="784" d="M696 1096L524 1077L526 653L497 189L680 182L663 -25Q308 -20 92 18L112 205L285 198L270 1061Q178 1057 86 1051L67 1243Q236 1270 415 1281L669 1298L696 1096Z" />
<glyph unicode="J" glyph-name="J" horiz-adv-x="716" d="M32 -55Q144 3 223 62T325 143L311 711V1063L67 1090L104 1315L228 1299Q468 1269 575 1235L551 113Q551 67 534 42Q496 -16 437 -63T336 -140Q236 -212 164 -248L32 -55Z" />
<glyph unicode="K" glyph-name="K" horiz-adv-x="1099" d="M162 1266L411 1300L418 653L465 645L841 1311L1059 1182Q1002 1059 916 936L790 760L714 663Q678 618 647 586Q726 505 765 461Q962 231 1046 92L841 -57L495 475L410 436L393 0L170 -20L162 1266ZM305
389Q305 388 305 388T306 389H305Z" />
<glyph unicode="L" glyph-name="L" horiz-adv-x="782" d="M166 1260L418 1300V752L387 264Q464 234 595 217T753 195L696 -27Q589 -13 523 -1L406 21Q225 56 166 84V1260Z" />
<glyph unicode="M" glyph-name="M" horiz-adv-x="1704" d="M164 705Q170 831 183 944Q183 944 202 1111Q209 1165 214 1221Q429 1281 658 1296L803 696L850 225L893 229L986 1223Q1128 1273 1330 1294Q1392 1300 1446 1300L1572 676L1662 2L1403 -25L1324 653L1258
1086L1197 1078L1156 643L1059 29Q887 -3 679 -8L470 1073L404 1063L396 662L336 -19L86 12L164 705Z" />
<glyph unicode="N" glyph-name="N" horiz-adv-x="1350" d="M166 110Q166 416 175 780L156 1227Q175 1231 206 1237Q206 1237 276 1250Q314 1257 356 1264L440 1278Q513 1289 590 1294L854 459L915 172L973 178L960 500L969 1278L1225 1300Q1217 999 1175 518L1160
27Q981 -6 751 -18L487 827L428 1091L375 1083L385 782L395 2L166 -18V110Z" />
<glyph unicode="O" glyph-name="O" horiz-adv-x="1161" d="M287 4T263 21T219 89T182 226T152 407Q129 589 129 720Q129 947 141 1006T166 1098T200 1155Q239 1203 308 1228T456 1269T624 1297Q801 1319 1005 1323L1042 1081Q685 1067 470 1022Q426 1012 397 1001Q385
933 385 808T388 614T397 476Q410 320 438 210Q452 208 467 208T522 208Q616 208 714 231Q764 556 764 950L1013 934Q1018 864 1018 812T1015 700T1005 579T991 456T975 339T959 236L945 158Q928 76 907 54T866 24T816 9T751 -1T676 -9T601 -14Q541 -16 490 -16Q371
-16 329 -6Z" />
<glyph unicode="P" glyph-name="P" horiz-adv-x="1081" d="M176 924L432 965V764L424 485Q461 491 494 498L559 514Q591 522 622 532L688 555Q735 704 735 919Q735 999 727 1020Q595 1062 245 1072Q155 1074 78 1077L116 1313Q588 1295 807 1243Q842 1234 888
1188Q975 1101 982 1049T990 901T965 672T884 408Q862 356 784 344L430 281L418 2L194 -20L176 924Z" />
<glyph unicode="Q" glyph-name="Q" horiz-adv-x="1159" d="M527 -282T520 -234T512 -119T514 -16H485Q371 -16 329 -6T263 21T219 89T182 226T152 407Q129 589 129 704T130 857T135 931Q149 1095 180 1141Q219 1197 298 1225T456 1269T624 1297Q801 1319 1005
1323L1042 1081Q687 1067 472 1022Q428 1012 399 1001Q387 933 387 808T390 615T399 477Q412 324 440 213Q454 211 469 211T524 211Q629 211 714 231Q764 556 764 950L1013 934Q1018 864 1018 799T1012 646T994 471Q955 140 920 75Q901 39 869 25Q817 2 683 -8Q721
-151 808 -296L870 -395L647 -526Q567 -395 547 -339Z" />
<glyph unicode="R" glyph-name="R" horiz-adv-x="1095" d="M164 932L407 973V772L401 530L688 600Q749 793 749 950Q749 983 745 1012Q576 1065 78 1085L116 1321Q543 1304 856 1239Q883 1233 942 1160Q1000 1088 1002 1059T1005 1002V946Q1005 816 939 610Q903
498 868 466Q852 451 839 444L741 412Q887 253 1011 63L803 -78L553 362L407 354L399 0L182 -18L164 932Z" />
<glyph unicode="S" glyph-name="S" horiz-adv-x="901" d="M98 205Q391 227 547 272Q554 318 554 376T551 485L196 614Q160 627 142 661T115 752Q95 875 95 940Q95 1043 100 1089Q108 1171 205 1200Q432 1282 739 1335L800 1094L672 1076Q482 1048 356 1016Q352
990 352 948Q352 862 356 813L725 651Q786 625 807 560Q813 541 813 533T812 499T807 428Q799 310 787 226T729 111T616 57T472 14Q347 -15 141 -45L98 205Z" />
<glyph unicode="T" glyph-name="T" horiz-adv-x="883" d="M859 1065Q742 1060 574 1047L583 631L560 0L337 -18L325 1038Q238 1036 165 1032T40 1028L58 1245Q404 1290 833 1290L859 1065Z" />
<glyph unicode="U" glyph-name="U" horiz-adv-x="1151" d="M193 248Q132 797 125 1260L379 1300L420 270Q502 222 662 222Q688 222 731 227L784 1307L1059 1272L966 285Q963 248 916 194T839 110Q779 48 760 30T723 10Q559 2 508 0T450 -3T424 8T386 34T346 66L270
131Q200 191 193 248Z" />
<glyph unicode="V" glyph-name="V" horiz-adv-x="1092" d="M244 520L72 1225L326 1298L481 530L522 205L580 211Q580 211 682 740Q732 1009 778 1298L1036 1233L999 1071Q991 1034 976 972Q841 423 816 329Q816 329 772 170Q731 20 718 0Q718 0 540 -11Q455 -16
368 -16L244 520Z" />
<glyph unicode="W" glyph-name="W" horiz-adv-x="1605" d="M232 430L60 1239L321 1300L467 446L488 180L533 178L710 754L634 1137L893 1182L1018 598L1088 184L1142 188Q1152 252 1164 340Q1201 604 1216 724L1243 945Q1270 1176 1279 1298L1557 1257Q1557 1257
1530 1087Q1471 692 1404 434L1292 0L938 -16L828 422H802L687 0L323 -16L232 430Z" />
<glyph unicode="X" glyph-name="X" horiz-adv-x="1136" d="M106 51Q128 228 236 483Q278 580 309 631L413 690Q207 978 173 1031L118 1119Q96 1154 86 1176L317 1319Q492 999 518 948Q591 806 607 772L610 774L747 1145L781 1244Q796 1288 803 1313L1042 1243Q1024
1156 963 1021L877 832Q822 717 790 668L710 627Q863 431 905 375Q1046 178 1069 129L846 -16Q593 421 569 465L527 541L501 528Q451 379 428 306L382 151Q358 69 342 -2L106 51Z" />
<glyph unicode="Y" glyph-name="Y" horiz-adv-x="1042" d="M404 439Q354 443 303 451Q232 630 168 834Q168 834 39 1245L299 1311L347 1149L465 614Q476 613 487 613T515 613Q562 613 600 621L737 1298L1007 1270L967 1114Q948 1041 929 976Q929 976 890 850Q871
788 849 726L746 451Q711 445 652 440L622 0L407 -16L404 439Z" />
<glyph unicode="Z" glyph-name="Z" horiz-adv-x="929" d="M57 279L626 1014L602 1061H575Q334 1061 75 1106L114 1327L270 1310Q600 1275 798 1270L889 993L768 824L624 632L471 437L325 256L338 217H369Q609 217 874 170L837 -57Q750 -50 658 -40L292 -4Q202
4 121 10L57 279Z" />
<glyph unicode="[" glyph-name="bracketleft" horiz-adv-x="639" d="M215 -403Q184 393 180 1544L569 1612L598 1395L422 1378L401 625L422 -240L618 -266L567 -485L215 -403Z" />
<glyph unicode="\" glyph-name="backslash" horiz-adv-x="759" d="M30 1333L237 1417L737 -119L555 -174L30 1333Z" />
<glyph unicode="]" glyph-name="bracketright" horiz-adv-x="565" d="M239 -252L250 502L239 1366L39 1397L94 1614L452 1526Q459 1152 459 778Q459 219 450 -422L69 -481L45 -264L239 -252Z" />
<glyph unicode="^" glyph-name="asciicircum" horiz-adv-x="940" d="M26 563L331 1264L575 1290L919 569L764 483L458 1010L186 483L26 563Z" />
<glyph unicode="_" glyph-name="underscore" horiz-adv-x="1255" d="M1268 0L1252 -174H-23L6 0H1268Z" />
<glyph unicode="`" glyph-name="grave" horiz-adv-x="528" d="M395 1117Q347 1145 310 1173Q155 1294 110 1344Q42 1419 22 1455L217 1591L504 1220L395 1117Z" />
<glyph unicode="a" glyph-name="a" horiz-adv-x="914" d="M795 -72Q383 -30 149 53Q106 69 92 237Q80 391 118 504Q134 551 156 556Q250 581 354 592L562 615L558 756Q449 777 342 789T128 819L181 1038L350 1013Q582 979 719 930Q785 906 785 833L789 285L576
264L570 435L513 424Q417 408 330 384Q319 331 319 296Q319 245 323 217Q464 185 758 152L840 143L795 -72Z" />
<glyph unicode="b" glyph-name="b" horiz-adv-x="995" d="M145 1427L387 1473L391 752L368 188Q378 187 388 187H408Q515 187 585 211Q645 430 645 656Q645 726 639 766Q620 772 590 778L532 788L461 799L512 1022Q713 990 778 969T860 926T881 870Q889 816 889
729Q889 460 862 325T814 124T782 42Q760 5 559 -16Q460 -27 381 -27Q242 -27 148 -20L145 1427Z" />
<glyph unicode="c" glyph-name="c" horiz-adv-x="799" d="M200 47Q145 65 136 130Q116 268 116 382T118 552T126 660Q144 877 175 914Q191 934 227 944T325 966T455 988T590 1008T704 1024L739 799L662 791Q448 769 389 754Q373 692 367 580T361 416Q361 287 371
223L753 152L694 -63Q612 -50 540 -35L419 -10Q255 26 200 47Z" />
<glyph unicode="d" glyph-name="d" horiz-adv-x="994" d="M195 49Q146 59 135 136Q117 266 117 412Q117 657 158 872Q168 924 208 938L308 962Q469 1001 619 1020V1430L851 1473L857 1012L836 309L625 289L617 803Q496 794 390 754Q361 575 361 458Q361 291 369
233Q494 200 667 177T906 143L844 -72Q456 -11 366 8T195 49Z" />
<glyph unicode="e" glyph-name="e" horiz-adv-x="948" d="M118 666Q118 800 146 821T209 863T286 906T373 946T463 980Q557 1012 603 1012T679 1008T732 993Q787 970 794 926Q827 717 827 428V369L348 363V233Q426 214 534 198L706 170Q772 160 841 147L782 -72Q507
-29 198 67Q127 90 125 150L118 666ZM602 584Q602 678 583 782Q543 782 519 778T471 767T422 751Q363 730 344 715V535L602 563V584Z" />
<glyph unicode="f" glyph-name="f" horiz-adv-x="597" d="M125 205T121 373T113 666Q113 666 108 876Q106 961 105 1016T103 1102T102 1146T101 1162V1165Q101 1201 125 1230T172 1283T224 1339L347 1477L506 1309L345 1130L355 942L562 985L584 758L355 741L343
0L130 -16Q125 205 121 373Z" />
<glyph unicode="g" glyph-name="g" horiz-adv-x="977" d="M406 211Q538 211 613 221L609 647L832 688Q836 495 838 359T843 129T846 -19L848 -104Q848 -133 848 -142V-154Q848 -205 772 -259Q540 -422 299 -549L177 -330Q504 -177 632 -103L617 125L474 0H308Q237
0 214 48L200 78Q109 297 109 638Q109 833 138 884Q149 904 203 920T340 956T508 993T678 1025L843 1055L892 825L577 776Q403 748 361 733Q351 693 351 622Q351 366 406 211Z" />
<glyph unicode="h" glyph-name="h" horiz-adv-x="1022" d="M645 555Q645 698 633 764H563Q503 764 470 752Q417 734 385 719L370 12L153 0Q150 385 142 582Q130 847 130 1040Q130 1170 135 1425L374 1475L385 842L544 983H766Q803 983 834 955Q889 904 891 865T893
786V708Q893 574 889 516L858 -35L636 -72L645 555Z" />
<glyph unicode="i" glyph-name="i" horiz-adv-x="529" d="M399 1505Q410 1466 410 1418T407 1336T400 1273Q390 1210 377 1187L147 1197Q164 1285 164 1478L399 1505ZM391 1001Q396 898 396 828T393 664L370 0L157 -18L137 969L391 1001Z" />
<glyph unicode="j" glyph-name="j" horiz-adv-x="524" d="M400 1505Q410 1463 410 1417T407 1337T400 1274Q390 1211 377 1187L148 1197Q164 1296 164 1478L400 1505ZM390 999Q395 896 395 827T392 664L380 -188Q374 -283 296 -352L68 -551L-87 -372L158 -178L138
967L390 999Z" />
<glyph unicode="k" glyph-name="k" horiz-adv-x="975" d="M130 1427L372 1473L376 812L370 611L404 604L742 1040L919 903Q883 849 840 802L755 709Q711 664 669 626L585 553Q598 541 626 512Q884 234 972 74L775 -66L431 453L362 420L345 8L134 -8L130 1427Z" />
<glyph unicode="l" glyph-name="l" horiz-adv-x="502" d="M128 1427L376 1473L383 752L352 0L141 -18L128 1427Z" />
<glyph unicode="m" glyph-name="m" horiz-adv-x="1550" d="M137 956L350 983L385 831L561 983H759Q794 983 832 944Q890 887 897 834L1069 983H1310Q1323 983 1358 956T1407 911T1421 870L1386 -2L1163 -20L1159 747Q1147 751 1114 751Q1036 751 977 729L907 703L876
-2L661 -20L657 747Q645 751 612 751Q528 751 469 729L401 705L374 6L155 -8L137 956Z" />
<glyph unicode="n" glyph-name="n" horiz-adv-x="1046" d="M137 956L350 983L385 831L561 983H807Q826 983 860 954Q917 907 917 870L882 -2L659 -20L655 752Q643 756 622 756T584 754T546 748Q499 740 469 729L395 702L368 8L155 -8L137 956Z" />
<glyph unicode="o" glyph-name="o" horiz-adv-x="989" d="M370 592Q370 351 395 174L592 184Q646 398 646 602Q646 684 635 748Q575 778 211 778H160Q139 778 114 776L157 1008Q174 1009 188 1010T218 1012L248 1014Q263 1014 332 1014Q530 1014 766 961Q841 942
858 894Q884 820 884 653Q884 348 791 63Q783 37 773 19T736 -4T675 -15T606 -24Q532 -31 504 -31T444 -31T374 -28Q274 -23 239 -11T192 32T167 128Q139 282 139 479Q139 554 143 628L370 673V592Z" />
<glyph unicode="p" glyph-name="p" horiz-adv-x="971" d="M369 -508L158 -522L150 625L383 670L393 178L575 213Q631 442 631 602Q631 694 621 750Q570 778 212 778H152Q123 778 97 776L141 1008Q206 1013 260 1013T386 1009T530 998Q805 969 842 918Q879 866
879 693Q879 392 781 90Q773 65 763 47T729 25L387 -20L369 -508Z" />
<glyph unicode="q" glyph-name="q" horiz-adv-x="966" d="M207 49Q200 62 189 87T162 174T132 312Q102 488 102 599Q102 852 131 905Q142 925 174 935Q382 996 803 1071L825 1075L874 848Q686 811 558 793T372 756Q356 696 356 611T358 478T366 382Q379 272 403
205Q484 186 604 178L614 700L850 690L819 -510L610 -524L602 -37L301 0Q228 10 207 49Z" />
<glyph unicode="r" glyph-name="r" horiz-adv-x="702" d="M137 776L135 961L348 983L383 831L536 999H655L705 765Q705 765 548 731Q473 715 393 696L379 12L153 -8L137 776Z" />
<glyph unicode="s" glyph-name="s" horiz-adv-x="836" d="M95 160Q95 160 309 173Q408 179 508 193L515 319L164 457Q133 469 117 503T101 558T101 583T104 610L126 799Q136 879 207 910Q251 930 318 946Q455 978 510 989L607 1010Q649 1018 682 1024L728 795L338
737L322 641L691 469Q758 438 748 350L721 109Q712 32 596 6Q472 -28 322 -44T123 -63L95 160Z" />
<glyph unicode="t" glyph-name="t" horiz-adv-x="714" d="M135 1221L379 1268V954L630 1001L649 774L383 754L364 213Q438 190 492 177Q627 145 657 137L604 -72Q382 -23 215 41Q147 66 147 131L135 1221Z" />
<glyph unicode="u" glyph-name="u" horiz-adv-x="1022" d="M257 10Q230 13 198 49Q146 104 144 153L124 975L358 1000L382 226Q416 209 456 209Q514 209 641 270L664 985H895L880 10L714 -10L671 150L462 2L257 10Z" />
<glyph unicode="v" glyph-name="v" horiz-adv-x="966" d="M332 -6Q332 -6 192 476Q192 476 49 948L313 1012L446 403L469 186L522 190L580 444Q603 544 620 645L682 999L937 971Q863 617 742 253L655 4Q541 -12 464 -12T332 -6Z" />
<glyph unicode="w" glyph-name="w" horiz-adv-x="1514" d="M211 395L73 950L325 1010L432 446L450 186L497 184L649 727L600 954L866 999L1036 188L1079 193Q1098 314 1115 440L1188 999L1448 967L1406 741Q1335 349 1220 0L897 -16L774 422H751L639 0L307 -16L211 395Z" />
<glyph unicode="x" glyph-name="x" horiz-adv-x="942" d="M63 20Q87 212 185 407Q211 459 235 494L324 541Q217 675 172 737L95 848Q62 898 47 930L245 1075L500 624L522 636Q528 654 540 685L629 919L656 996Q668 1031 675 1056L901 979Q884 895 835 798L764
659Q722 579 688 526L611 487Q732 335 767 286L828 201Q882 125 905 78L706 -68Q466 354 441 401L415 389L397 341Q386 311 374 274L349 198Q304 59 295 -14L63 20Z" />
<glyph unicode="y" glyph-name="y" horiz-adv-x="1021" d="M122 981L359 1030L378 223Q420 209 443 209T483 209T522 214Q577 225 638 256L646 971L873 999L885 -126Q885 -177 820 -223Q654 -338 576 -387L432 -476Q364 -515 299 -549L177 -330Q537 -162 669 -82L654
164L505 0H249Q219 3 188 29Q140 68 140 113L122 981Z" />
<glyph unicode="z" glyph-name="z" horiz-adv-x="860" d="M749 -66Q448 10 118 41Q84 165 77 322L544 729L526 793Q497 791 466 791Q466 791 401 791Q187 791 67 823L120 1042Q507 990 753 969L796 690Q657 529 428 350L329 272L342 215Q596 215 800 164L749 -66Z" />
<glyph unicode="{" glyph-name="braceleft" horiz-adv-x="680" d="M276 362L274 385L112 530L137 657L291 750Q291 853 256 1010L208 1223Q180 1351 180 1388Q180 1470 237 1491L518 1616L606 1421L508 1383Q473 1370 457 1363L436 1354Q436 1339 442 1301L475
1102Q514 869 514 812T513 735T507 698Q496 664 463 645L352 584V567L458 498Q504 468 504 384T495 226T473 74Q442 -125 442 -238L643 -279L587 -485L284 -416Q209 -386 198 -314Q194 -291 194 -269T200 -200T215 -94L235 33Q276 286 276 362Z" />
<glyph unicode="|" glyph-name="bar" horiz-adv-x="626" d="M211 1468L426 1513V752L395 -588L215 -604L211 1468Z" />
<glyph unicode="}" glyph-name="braceright" horiz-adv-x="680" d="M390 768L392 745L554 600L529 473L375 380Q375 277 410 120L458 -93Q486 -221 486 -258Q486 -340 429 -361L148 -486L60 -291L158 -254Q193 -240 209 -233L230 -224Q230 -209 224 -171L191 28Q152
261 152 318T153 395T159 432Q170 466 203 485L314 546V563L208 632Q162 662 162 746T171 904T193 1056Q224 1255 224 1368L23 1409L79 1615L382 1546Q457 1516 468 1444Q472 1421 472 1399T466 1330T451 1224L431 1097Q390 844 390 768Z" />
<glyph unicode="~" glyph-name="asciitilde" horiz-adv-x="1007" d="M43 584Q98 667 234 766Q291 809 314 809T371 799T446 773T530 740L675 680Q702 670 707 670T722 674T751 692L893 791L975 694Q927 621 871 565Q759 455 696 455Q650 455 549 500L352 586Q327
596 323 596T308 590T270 570Q174 522 106 492L43 584Z" />
<glyph unicode="&#xa0;" glyph-name="nbspace" horiz-adv-x="369" />
<glyph unicode="&#xa1;" glyph-name="exclamdown" horiz-adv-x="589" d="M164 693Q153 732 153 777T156 853T164 911Q173 968 186 992L409 967Q402 913 400 855L396 764Q394 731 393 705L164 693ZM188 513L379 501L389 -365L145 -410L141 -126L188 513Z" />
<glyph unicode="&#xa2;" glyph-name="cent" horiz-adv-x="796" d="M200 47Q147 65 137 130Q116 275 116 367Q116 482 118 548Q123 707 153 868Q159 922 198 935Q266 958 401 978L418 1278L612 1284L573 1003L661 1014Q702 1019 732 1024L766 805Q646 792 589 784L498
771Q419 760 389 752Q364 594 364 477Q364 295 374 229Q618 174 753 147L694 -63Q566 -40 497 -26L481 -273L296 -257L330 8H337Q234 33 200 47Z" />
<glyph unicode="&#xa3;" glyph-name="sterling" horiz-adv-x="839" d="M334 226Q342 193 347 188Q595 188 799 137L753 -88L92 33Q52 118 36 231L255 424Q170 431 92 445L112 594Q206 588 324 588L233 871Q260 941 270 951Q434 1037 761 1079L786 838Q705 838
598 821T467 797Q476 724 515 591Q643 595 717 600L708 414Q661 410 598 410H511Q488 410 465 411L334 226Z" />
<glyph unicode="&#xa4;" glyph-name="currency" horiz-adv-x="1058" d="M683 189Q642 180 553 180T375 211Q316 133 293 105L252 56Q233 35 219 23L78 137L252 310Q209 420 209 529T231 701Q231 701 138 798Q89 853 73 879L207 1004L351 806Q436 840 538 840T711
817Q820 963 862 999L995 885L830 716Q860 651 860 541Q860 417 801 290L896 191Q945 138 962 109L831 -18L683 189ZM567 350Q617 350 639 360Q684 430 684 532Q684 607 651 645Q616 659 576 659T517 658T478 654Q432 647 409 633Q383 604 383 519T416 392T567
350Z" />
<glyph unicode="&#xa5;" glyph-name="yen" horiz-adv-x="942" d="M795 181Q670 181 581 184L569 0L364 -17L363 192L266 198Q121 207 46 223L67 350Q165 340 362 336L361 455Q140 459 48 479L63 607Q133 601 260 601L110 922Q84 978 62 1033L309 1090L450 631H478Q490
631 513 635L658 1085L897 1048Q878 989 854 934Q786 788 754 725T697 606Q769 608 822 609T899 612L883 458Q777 452 598 452V446L590 333Q704 333 786 333T891 334L871 182L795 181Z" />
<glyph unicode="&#xa6;" glyph-name="brokenbar" horiz-adv-x="626" d="M213 1468L426 1513L430 989L415 680L215 645L213 1468ZM422 270L399 -588L217 -604L215 236L422 270Z" />
<glyph unicode="&#xa7;" glyph-name="section" horiz-adv-x="932" d="M154 -100L372 -65Q429 -56 479 -49L499 47Q257 217 246 225T233 234T222 242Q185 272 169 327Q121 483 106 610L307 664Q324 497 366 406Q436 421 544 471L555 635L205 768Q174 780 158 815T141
869T141 894T144 922L166 1110Q176 1191 247 1222Q291 1242 358 1258Q546 1302 618 1315L723 1335L768 1106L379 1049L362 952L731 780Q790 752 790 684Q790 682 789 675T785 640T775 554L756 393Q751 352 724 334Q680 303 658 298T627 289L601 280Q584 275 553
266L654 194Q708 154 716 135T725 106T725 92T720 66L688 -119Q678 -198 569 -238Q442 -286 214 -320Q157 -329 116 -332L65 -113Q103 -108 154 -100Z" />
<glyph unicode="&#xa8;" glyph-name="dieresis" horiz-adv-x="708" d="M256 1453Q291 1395 291 1262Q291 1191 278 1167L80 1156Q63 1302 39 1398L256 1453ZM649 1443Q664 1411 664 1368T660 1292T648 1230Q635 1169 616 1142L413 1177Q431 1256 431 1320T426
1427L649 1443Z" />
<glyph unicode="&#xa9;" glyph-name="copyright" horiz-adv-x="1687" d="M323 123Q238 241 202 498Q192 566 192 618T194 731T205 852Q223 988 262 1052Q352 1200 530 1250Q722 1303 917 1303Q1094 1303 1247 1246Q1348 1208 1394 1149T1465 1025Q1513 895 1513
678Q1513 522 1447 304Q1407 170 1366 105T1297 19T1228 -15T1138 -36Q1060 -50 948 -51T739 -37T564 4Q413 53 323 123ZM396 681Q396 406 479 256Q579 174 816 147Q886 139 953 139Q1095 139 1177 174Q1266 302 1294 526Q1304 601 1304 662T1300 773T1286 872Q1264
981 1216 1040Q1128 1079 970 1091Q930 1094 894 1094T801 1089T684 1074Q544 1049 467 1012Q415 937 400 762Q396 717 396 681ZM630 412Q620 499 620 564T621 655T626 710Q636 832 644 854T660 885Q671 898 698 909Q855 944 1040 965L1065 793L938 780Q856 771
819 762Q805 690 805 640V571Q805 514 809 492L1071 432L1030 270Q990 276 938 286L834 308Q670 344 646 372Q635 386 630 412Z" />
<glyph unicode="&#xaa;" glyph-name="ordfeminine" horiz-adv-x="786" d="M444 1036Q420 1041 125 1085L166 1286L390 1250Q608 1215 628 1169Q637 1148 637 1128L639 733L456 719L450 813Q386 803 303 776L298 748Q296 737 296 724T299 688Q389 668 484 656L684
633L649 438Q306 472 147 531Q102 547 102 738Q102 834 120 875T151 920Q222 940 295 947T444 965V1036ZM678 48Q331 61 100 138L123 316Q380 261 702 249L678 48Z" />
<glyph unicode="&#xab;" glyph-name="guillemotleft" horiz-adv-x="1206" d="M624 587L958 991L1103 872L870 516L1107 157L966 41L602 446L624 587ZM80 446L102 587L436 991L581 872L348 516L585 157L444 41L80 446Z" />
<glyph unicode="&#xac;" glyph-name="logicalnot" horiz-adv-x="1271" d="M139 715H1157V98L960 78V522H125L139 715Z" />
<glyph unicode="&#xad;" glyph-name="uni00AD" horiz-adv-x="1706" />
<glyph unicode="&#xae;" glyph-name="registered" horiz-adv-x="1687" d="M323 123Q238 241 202 498Q192 566 192 618T194 731T205 852Q223 988 262 1052Q352 1200 530 1250Q722 1303 917 1303Q1094 1303 1247 1246Q1348 1208 1394 1149T1465 1025Q1513 895 1513
678Q1513 522 1447 304Q1407 170 1366 105T1297 19T1228 -15T1138 -36Q1060 -50 948 -51T739 -37T564 4Q413 53 323 123ZM396 681Q396 406 479 256Q579 174 816 147Q886 139 953 139Q1095 139 1177 174Q1266 302 1294 526Q1304 601 1304 662T1300 773T1286 872Q1264
981 1216 1040Q1128 1079 970 1091Q930 1094 894 1094T801 1089T684 1074Q544 1049 467 1012Q415 937 400 762Q396 717 396 681ZM602 755L774 774V657L772 580Q880 586 942 619Q962 674 962 700V735Q962 744 960 757Q831 804 557 818L602 987Q874 973 1048 909Q1103
891 1135 835Q1143 821 1143 807T1141 760T1132 691Q1111 576 1075 526Q1068 517 1059 513L996 489Q1010 478 1022 468L1044 446Q1093 401 1129 342L981 251L863 465L774 460L770 290L621 281L602 755Z" />
<glyph unicode="&#xaf;" glyph-name="overscore" horiz-adv-x="807" d="M82 1382H735L721 1167H96L82 1382Z" />
<glyph unicode="&#xb0;" glyph-name="degree" horiz-adv-x="682" d="M533 784T477 757T348 729T219 752T124 820Q43 910 43 1061Q43 1187 130 1257Q214 1323 352 1323Q551 1323 621 1183Q645 1135 645 1068T627 939T571 831ZM231 1049Q231 913 338 913Q394 913
415 932Q454 967 454 1032T426 1118T362 1139T305 1135T268 1120Q231 1096 231 1049Z" />
<glyph unicode="&#xb1;" glyph-name="plusminus" horiz-adv-x="1153" d="M471 522V530H450Q305 530 249 534T145 541L166 719L476 722L469 977L688 1022V860L682 725L1018 729L1007 549Q915 545 837 541T674 534V522L657 256L473 240L471 522ZM145 141L1038 152L1028
-29L750 -41Q612 -47 506 -47T361 -47T286 -45Q227 -43 125 -37L145 141Z" />
<glyph unicode="&#xb2;" glyph-name="twosuperior" horiz-adv-x="751" d="M671 1373Q687 1341 687 1262Q687 1146 680 1094Q675 1070 642 1050T564 1008T471 967Q362 922 284 903L278 836Q413 802 702 791L669 586Q440 596 219 651Q147 669 86 692Q79 741 79 801Q79
910 96 1010Q238 1053 395 1144Q441 1170 471 1192L467 1268Q308 1321 98 1346L157 1544L288 1523Q467 1495 612 1444Q655 1428 671 1373Z" />
<glyph unicode="&#xb3;" glyph-name="threesuperior" horiz-adv-x="747" d="M112 1139Q293 1165 420 1204V1280Q339 1312 235 1326T94 1346L149 1542L282 1521Q460 1493 594 1446Q636 1355 636 1203V1180Q636 1168 635 1157Q575 1114 504 1075V1063L635 997Q655
974 655 912Q655 816 633 721Q487 626 212 596Q146 588 108 588L84 782Q267 800 426 838Q427 843 427 850V863Q427 925 418 954L332 997Q294 982 252 970L166 944L112 1139Z" />
<glyph unicode="&#xb4;" glyph-name="acute" horiz-adv-x="553" d="M45 1220L334 1589L508 1425Q459 1354 361 1270Q228 1161 153 1117L45 1220Z" />
<glyph unicode="&#xb5;" glyph-name="mu" horiz-adv-x="1265" d="M186 -524Q179 -342 179 -164T183 155T194 429T206 697T215 979L446 1004L465 250Q517 221 565 221Q645 221 745 270L772 985H999L987 193L1007 184L1163 246L1222 55Q1112 0 973 0Q901 0 841 18L764
170L630 2Q614 -1 575 -1Q494 -1 482 8T456 36T429 73T404 113L383 150L370 147Q370 131 378 53Q398 -132 406 -211L420 -362Q427 -433 432 -498L186 -524Z" />
<glyph unicode="&#xb6;" glyph-name="paragraph" horiz-adv-x="1175" d="M247 252T240 265T223 301T203 366T182 464T164 581T148 710Q135 847 135 927T137 1044T147 1112Q165 1181 213 1195Q346 1233 504 1258L863 1313Q927 1323 981 1333L1030 1104L714 1056Q542
1031 495 1016Q485 972 485 913T487 789T496 654Q508 492 534 410Q588 397 651 397V926L870 967L886 -164Q886 -190 865 -216T814 -271T743 -336T652 -410Q520 -510 458 -551L331 -346Q383 -314 426 -284L510 -226Q550 -197 589 -166L671 -98L657 197L334 217Q283
219 265 235Z" />
<glyph unicode="&#xb7;" glyph-name="middot" horiz-adv-x="588" d="M169 457Q177 590 177 639T175 719L417 744Q428 702 428 634Q428 489 398 434L169 457Z" />
<glyph unicode="&#xb8;" glyph-name="cedilla" horiz-adv-x="575" d="M280 -274Q207 -252 100 -233L182 43L323 64L291 -112Q341 -125 373 -135L420 -152Q450 -162 456 -171T465 -190Q469 -202 469 -224T465 -277T453 -338Q437 -409 424 -429T373 -465T292 -498Q216
-524 143 -542L98 -385Q154 -369 194 -356L274 -332L280 -274Z" />
<glyph unicode="&#xb9;" glyph-name="onesuperior" horiz-adv-x="661" d="M596 586Q292 594 55 633L76 801L253 792L246 1174Q131 1174 33 1188L71 1386L246 1356V1481L448 1509Q463 1430 463 1342Q463 1223 459 1171L431 783L608 774L596 586Z" />
<glyph unicode="&#xba;" glyph-name="ordmasculine" horiz-adv-x="800" d="M330 920Q330 788 346 655L461 664Q499 830 499 900Q499 1002 493 1026Q455 1050 187 1050H149Q131 1050 114 1049L137 1237Q185 1241 258 1241Q427 1241 637 1199Q683 1191 692 1130L699
1082Q706 1031 706 941Q706 749 638 543Q632 524 625 511T598 493T550 486T491 480Q437 475 410 475H359Q249 475 215 487T173 520T154 590Q133 699 133 785Q133 898 137 954L331 987L330 920ZM666 54Q359 54 106 124L120 300Q390 255 684 255L666 54Z" />
<glyph unicode="&#xbb;" glyph-name="guillemotright" horiz-adv-x="1209" d="M847 510L610 869L751 985L1115 580L1093 439L759 35L614 154L847 510ZM322 510L85 869L226 985L590 580L568 439L234 35L89 154L322 510Z" />
<glyph unicode="&#xbc;" glyph-name="onequarter" horiz-adv-x="1895" d="M635 586Q331 594 94 633L114 801L292 792L284 1174Q169 1174 71 1188L110 1386L284 1356V1481L487 1509Q501 1423 501 1339Q501 1225 497 1171L469 783L647 774L635 586ZM1177 1436L1370
1327L567 -98L418 -14L1177 1436ZM1703 211Q1777 207 1831 207L1808 23Q1753 23 1692 26L1679 -186L1497 -201L1501 39Q1198 68 1077 104L1075 225Q1153 464 1196 668L1224 805L1421 778Q1421 655 1353 451L1284 248Q1316 238 1504 224L1509 541L1710 571Q1715
528 1715 478Q1715 386 1710 324L1703 211Z" />
<glyph unicode="&#xbd;" glyph-name="onehalf" horiz-adv-x="1814" d="M635 586Q331 594 94 633L114 801L292 792L284 1174Q169 1174 71 1188L110 1386L284 1356V1481L487 1509Q501 1423 501 1339Q501 1225 497 1171L469 783L647 774L635 586ZM1177 1436L1370
1327L567 -98L418 -14L1177 1436ZM1106 -92Q1098 -34 1098 22Q1098 133 1116 225Q1249 265 1415 359Q1461 385 1491 408L1487 483Q1328 536 1118 561L1177 760L1308 739Q1487 711 1632 660Q1677 644 1691 584Q1707 520 1707 458Q1707 303 1684 282Q1671 270 1649
257T1583 222T1490 180Q1389 140 1304 119L1298 51Q1433 17 1722 6L1689 -199Q1347 -185 1106 -92Z" />
<glyph unicode="&#xbe;" glyph-name="threequarters" horiz-adv-x="1822" d="M635 586Q331 594 94 633L114 801L292 792L284 1174Q169 1174 71 1188L110 1386L284 1356V1481L487 1509Q501 1423 501 1339Q501 1225 497 1171L469 783L647 774L635 586ZM1177 1436L1370
1327L567 -98L418 -14L1177 1436ZM1138 340Q1313 365 1446 406V481Q1365 513 1261 527T1120 547L1175 743L1308 723Q1481 696 1620 647Q1662 556 1662 404V381Q1662 369 1661 358L1592 313Q1559 292 1530 276V264L1661 199Q1681 176 1681 128T1678 51T1672 -6Q1663
-78 1659 -78Q1513 -173 1238 -204Q1172 -211 1134 -211L1110 -16Q1300 3 1452 39Q1453 44 1453 50V64Q1453 124 1444 156L1358 199Q1320 183 1278 170L1192 145L1138 340Z" />
<glyph unicode="&#xbf;" glyph-name="questiondown" horiz-adv-x="723" d="M566 972Q566 800 576 710L336 671Q316 727 316 836T336 981L566 972ZM51 188Q51 215 90 249L337 455Q358 476 358 539L562 503Q569 468 569 436T556 385T510 336T436 272L354 208Q313
177 281 149Q277 115 277 76Q277 -17 295 -115Q424 -132 516 -153L649 -184L616 -424L85 -321Q27 -311 31 -251L51 188Z" />
<glyph unicode="&#xc0;" glyph-name="Agrave" horiz-adv-x="1151" d="M677 1404Q570 1428 473 1484Q301 1582 249 1646L413 1820L757 1527L677 1404ZM642 331H576Q520 331 399 354L323 -16L85 37L202 557L338 1237Q564 1277 815 1298L973 612L1095 10L852 -29L745
561L641 1059Q584 1059 522 1040L436 547L694 541L663 332Q652 331 642 331Z" />
<glyph unicode="&#xc1;" glyph-name="Aacute" horiz-adv-x="1151" d="M366 1519L719 1820L868 1634Q815 1569 720 1515Q553 1420 446 1396L366 1519ZM642 331H576Q520 331 399 354L323 -16L85 37L202 557L338 1237Q564 1277 815 1298L973 612L1095 10L852 -29L745
561L641 1059Q584 1059 522 1040L436 547L694 541L663 332Q652 331 642 331Z" />
<glyph unicode="&#xc2;" glyph-name="Acircumflex" horiz-adv-x="1151" d="M539 1580Q439 1472 336 1398L227 1496L451 1793L641 1799L872 1494L748 1398Q630 1496 600 1523L539 1580ZM642 331H576Q520 331 399 354L323 -16L85 37L202 557L338 1237Q564 1277 815
1298L973 612L1095 10L852 -29Q852 -29 745 561L641 1059Q584 1059 522 1040L436 547L694 541L663 332Q652 331 642 331Z" />
<glyph unicode="&#xc3;" glyph-name="Atilde" horiz-adv-x="1151" d="M196 1535Q236 1595 288 1643Q384 1732 417 1732T485 1718T552 1687L612 1656Q639 1642 646 1642T657 1644T677 1655T722 1686L804 1744L880 1650L836 1586Q722 1423 637 1423Q595 1423 539
1454T458 1500T429 1515T420 1514T399 1505L260 1443L196 1535ZM642 331H576Q520 331 399 354L323 -16L85 37L202 557L338 1237Q564 1277 815 1298L973 612L1095 10L852 -29L745 561L641 1059Q584 1059 522 1040L436 547L694 541L663 332Q652 331 642 331Z" />
<glyph unicode="&#xc4;" glyph-name="Adieresis" horiz-adv-x="1151" d="M442 1774Q477 1716 477 1581Q477 1510 465 1488L266 1477Q249 1623 225 1719L442 1774ZM852 1764Q867 1732 867 1689T863 1613T852 1551Q838 1490 819 1463L617 1498Q634 1572 634 1639T629
1748L852 1764ZM642 331H576Q520 331 399 354L323 -16L85 37L202 557L338 1237Q564 1277 815 1298L973 612L1095 10L852 -29L745 561L641 1059Q584 1059 522 1040L436 547L694 541L663 332Q652 331 642 331Z" />
<glyph unicode="&#xc5;" glyph-name="Aring" horiz-adv-x="1151" d="M683 1405T641 1386T546 1367T452 1384T380 1434Q315 1500 315 1609Q315 1710 382 1766Q444 1818 551 1818Q706 1818 756 1705Q774 1666 774 1614T758 1516T713 1438ZM542 1527Q601 1527 614
1595Q619 1664 548 1664Q496 1664 482 1628Q477 1615 480 1592T495 1548T542 1527ZM642 331H576Q520 331 399 354L323 -16L85 37L202 557L338 1237Q564 1277 815 1298L973 612L1095 10L852 -29L745 561L641 1059Q584 1059 522 1040L436 547L694 541L663 332Q652
331 642 331Z" />
<glyph unicode="&#xc6;" glyph-name="AE" horiz-adv-x="1591" d="M1008 225L1493 152L1440 -68L1288 -48Q956 -2 789 43L776 1075L536 1051L461 547L699 541L670 332Q659 331 649 331T620 331T577 332T528 337T478 344L424 354L325 -16L84 49L231 594L344 1227Q570
1278 902 1308L1444 1354L1477 1124Q1470 1127 1284 1113L1004 1092L1014 725L1444 743L1428 508L1016 522L1008 225Z" />
<glyph unicode="&#xc7;" glyph-name="Ccedilla" horiz-adv-x="884" d="M763 -51Q652 -30 557 -7L539 -109Q563 -115 588 -122L634 -136Q701 -157 708 -167T718 -188Q722 -201 722 -224T718 -278T706 -342Q688 -415 677 -432T645 -460T598 -483T539 -504T478 -524L424
-540Q400 -547 387 -550L341 -389Q398 -373 440 -360L522 -335L528 -275Q463 -255 417 -247L343 -233L420 26Q253 66 234 80T207 106Q162 174 142 510Q137 585 137 657T140 790T148 907Q159 1031 168 1056L180 1094Q196 1142 253 1165Q278 1175 318 1188L406 1218Q455
1233 508 1248L610 1278Q713 1307 784 1322L838 1079Q813 1073 777 1066L533 1020L464 1006Q434 999 419 995Q391 883 391 670Q391 392 425 260Q467 250 516 240L722 198L819 180L763 -51Z" />
<glyph unicode="&#xc8;" glyph-name="Egrave" horiz-adv-x="979" d="M643 1404Q536 1428 439 1484Q267 1582 215 1646L379 1820L723 1527L643 1404ZM397 223L882 150L829 -68L678 -48Q345 -2 178 43L165 1196Q518 1286 837 1317L872 1079L393 1024L403 725L833
743L817 508L405 522L397 223Z" />
<glyph unicode="&#xc9;" glyph-name="Eacute" horiz-adv-x="979" d="M315 1519L668 1820L817 1634Q764 1569 669 1515Q502 1420 395 1396L315 1519ZM397 223L882 150L829 -68L678 -48Q345 -2 178 43L165 1196Q518 1286 837 1317L872 1079L393 1024L403 725L833
743L817 508L405 522L397 223Z" />
<glyph unicode="&#xca;" glyph-name="Ecircumflex" horiz-adv-x="979" d="M504 1582Q404 1474 301 1400L192 1498L416 1795L606 1801L837 1496L713 1400Q595 1498 565 1525L504 1582ZM397 223L882 150L829 -68L678 -48Q345 -2 178 43L165 1196Q518 1286 837 1317L872
1079L393 1024L403 725L833 743L817 508L405 522L397 223Z" />
<glyph unicode="&#xcb;" glyph-name="Edieresis" horiz-adv-x="979" d="M411 1776Q446 1718 446 1583Q446 1512 434 1490L235 1479Q218 1625 194 1721L411 1776ZM821 1766Q836 1734 836 1691T832 1615T820 1553Q807 1492 788 1465L586 1500Q603 1574 603 1641T598
1750L821 1766ZM397 223L882 150L829 -68L678 -48Q345 -2 178 43L165 1196Q518 1286 837 1317L872 1079L393 1024L403 725L833 743L817 508L405 522L397 223Z" />
<glyph unicode="&#xcc;" glyph-name="Igrave" horiz-adv-x="784" d="M514 1404Q407 1428 310 1484Q138 1582 86 1646L250 1820L594 1527L514 1404ZM696 1096L524 1077L526 653L497 189L680 182L663 -25Q308 -20 92 18L112 205L285 198L270 1061Q178 1057 86 1051L67
1243Q236 1270 415 1281L669 1298L696 1096Z" />
<glyph unicode="&#xcd;" glyph-name="Iacute" horiz-adv-x="784" d="M216 1519L569 1820L718 1634Q665 1569 570 1515Q403 1420 296 1396L216 1519ZM696 1096L524 1077L526 653L497 189L680 182L663 -25Q308 -20 92 18L112 205L285 198L270 1061Q178 1057 86 1051L67
1243Q236 1270 415 1281L669 1298L696 1096Z" />
<glyph unicode="&#xce;" glyph-name="Icircumflex" horiz-adv-x="784" d="M385 1580Q285 1472 182 1398L73 1496L297 1793L487 1799L718 1494L594 1398Q476 1496 446 1523L385 1580ZM696 1096L524 1077L526 653L497 189L680 182L663 -25Q308 -20 92 18L112 205L285
198L270 1061Q178 1057 86 1051L67 1243Q236 1270 415 1281L669 1298L696 1096Z" />
<glyph unicode="&#xcf;" glyph-name="Idieresis" horiz-adv-x="784" d="M292 1774Q327 1716 327 1581Q327 1510 315 1488L116 1477Q99 1623 75 1719L292 1774ZM702 1764Q717 1732 717 1689T713 1613T702 1551Q688 1490 669 1463L467 1498Q484 1572 484 1639T479
1748L702 1764ZM696 1096L524 1077L526 653L497 189L680 182L663 -25Q308 -20 92 18L112 205L285 198L270 1061Q178 1057 86 1051L67 1243Q236 1270 415 1281L669 1298L696 1096Z" />
<glyph unicode="&#xd0;" glyph-name="Eth" horiz-adv-x="1210" d="M431 209L452 211Q485 216 519 220T591 232Q680 247 732 264Q798 537 798 836Q798 948 787 1030Q515 1081 97 1081H70L115 1323H136Q516 1323 798 1262Q851 1251 877 1241T930 1207T980 1154Q1039
1083 1043 1046Q1051 972 1051 880T1043 686T1020 485Q986 270 930 133Q918 102 904 89T845 61T737 33T593 11Q446 -6 201 -18V523Q137 527 80 532L98 700L201 706V940L447 993L451 778L449 721L651 733L637 545Q535 534 442 530L431 209Z" />
<glyph unicode="&#xd1;" glyph-name="Ntilde" horiz-adv-x="1345" d="M168 110Q168 416 177 780L158 1227Q177 1231 208 1237Q208 1237 278 1250Q316 1257 358 1264L442 1278Q515 1289 592 1294L856 459L917 172L975 178L962 500L971 1278L1227 1300Q1219 999
1177 518L1162 27Q983 -6 753 -18L489 827L430 1091L377 1083L387 782L397 2L168 -18V110ZM380 1512Q420 1572 472 1620Q568 1709 601 1709T669 1695T736 1664L796 1633Q823 1619 830 1619T841 1621T861 1632T906 1662L988 1721L1064 1627L1020 1562Q906 1400 821
1400Q779 1400 723 1431T642 1477T613 1492T604 1491T583 1482L444 1420L380 1512Z" />
<glyph unicode="&#xd2;" glyph-name="Ograve" horiz-adv-x="1169" d="M712 1404Q605 1428 508 1484Q336 1582 284 1646L448 1820L792 1527L712 1404ZM295 4T271 21T227 89T190 226T160 407Q137 589 137 720Q137 947 149 1006T174 1098T208 1155Q247 1203 316 1228T464
1269T632 1297Q809 1319 1013 1323L1050 1081Q693 1067 478 1022Q434 1012 405 1001Q393 933 393 808T396 614T405 476Q418 320 446 210Q460 208 475 208T530 208Q624 208 722 231Q772 556 772 950L1021 934Q1026 864 1026 812T1023 700T1013 579T999 456T983 339T967
236L953 158Q936 76 915 54T874 24T824 9T759 -1T684 -9T609 -14Q549 -16 498 -16Q379 -16 337 -6Z" />
<glyph unicode="&#xd3;" glyph-name="Oacute" horiz-adv-x="1169" d="M415 1519L768 1820L917 1634Q864 1569 769 1515Q602 1420 495 1396L415 1519ZM295 4T271 21T227 89T190 226T160 407Q137 589 137 720Q137 947 149 1006T174 1098T208 1155Q247 1203 316 1228T464
1269T632 1297Q809 1319 1013 1323L1050 1081Q693 1067 478 1022Q434 1012 405 1001Q393 933 393 808T396 614T405 476Q418 320 446 210Q460 208 475 208T530 208Q624 208 722 231Q772 556 772 950L1021 934Q1026 864 1026 812T1023 700T1013 579T999 456T983 339T967
236L953 158Q936 76 915 54T874 24T824 9T759 -1T684 -9T609 -14Q549 -16 498 -16Q379 -16 337 -6Z" />
<glyph unicode="&#xd4;" glyph-name="Ocircumflex" horiz-adv-x="1169" d="M590 1580Q490 1472 387 1398L278 1496L502 1793L692 1799L923 1494L799 1398Q681 1496 651 1523L590 1580ZM295 4T271 21T227 89T190 226T160 407Q137 589 137 720Q137 947 149 1006T174
1098T208 1155Q247 1203 316 1228T464 1269T632 1297Q809 1319 1013 1323L1050 1081Q693 1067 478 1022Q434 1012 405 1001Q393 933 393 808T396 614T405 476Q418 320 446 210Q460 208 475 208T530 208Q624 208 722 231Q772 556 772 950L1021 934Q1026 864 1026
812T1023 700T1013 579T999 456T983 339T967 236L953 158Q936 76 915 54T874 24T824 9T759 -1T684 -9T609 -14Q549 -16 498 -16Q379 -16 337 -6Z" />
<glyph unicode="&#xd5;" glyph-name="Otilde" horiz-adv-x="1169" d="M245 1535Q285 1595 337 1643Q433 1732 466 1732T534 1718T602 1687L661 1656Q688 1642 695 1642T706 1644T726 1655T770 1686L853 1744L929 1650L885 1586Q771 1423 686 1423Q644 1423 588
1454T507 1500T478 1515T469 1514T448 1505L309 1443L245 1535ZM295 4T271 21T227 89T190 226T160 407Q137 589 137 720Q137 947 149 1006T174 1098T208 1155Q247 1203 316 1228T464 1269T632 1297Q809 1319 1013 1323L1050 1081Q693 1067 478 1022Q434 1012 405
1001Q393 933 393 808T396 614T405 476Q418 320 446 210Q460 208 475 208T530 208Q624 208 722 231Q772 556 772 950L1021 934Q1026 864 1026 812T1023 700T1013 579T999 456T983 339T967 236L953 158Q936 76 915 54T874 24T824 9T759 -1T684 -9T609 -14Q549 -16
498 -16Q379 -16 337 -6Z" />
<glyph unicode="&#xd6;" glyph-name="Odieresis" horiz-adv-x="1169" d="M491 1774Q526 1716 526 1581Q526 1510 514 1488L315 1477Q298 1623 274 1719L491 1774ZM901 1764Q916 1732 916 1689T912 1613T900 1551Q887 1490 868 1463L666 1498Q683 1572 683 1639T678
1748L901 1764ZM295 4T271 21T227 89T190 226T160 407Q137 589 137 720Q137 947 149 1006T174 1098T208 1155Q247 1203 316 1228T464 1269T632 1297Q809 1319 1013 1323L1050 1081Q693 1067 478 1022Q434 1012 405 1001Q393 933 393 808T396 614T405 476Q418 320
446 210Q460 208 475 208T530 208Q624 208 722 231Q772 556 772 950L1021 934Q1026 864 1026 812T1023 700T1013 579T999 456T983 339T967 236L953 158Q936 76 915 54T874 24T824 9T759 -1T684 -9T609 -14Q549 -16 498 -16Q379 -16 337 -6Z" />
<glyph unicode="&#xd7;" glyph-name="multiply" horiz-adv-x="1104" d="M142 211L447 520Q417 548 373 593Q184 790 134 860L303 1004L553 660Q759 939 814 994L983 860L672 541Q915 318 975 232L805 85L565 392L436 216L370 135Q338 98 315 77L142 211Z" />
<glyph unicode="&#xd8;" glyph-name="Oslash" horiz-adv-x="1218" d="M492 -16Q465 -16 429 -14L350 -228L229 -187L301 7Q251 27 230 84T190 226T160 407Q137 601 137 730T141 929T165 1058Q207 1188 331 1231Q482 1286 787 1309L866 1521L986 1474L928 1318Q962
1320 996 1321L1063 1323L1099 1090Q961 1085 835 1071L514 211H516Q703 211 788 231Q821 446 821 950L1067 934Q1071 878 1071 806T1067 646T1056 471Q1028 152 990 75Q964 23 882 9Q740 -16 492 -16ZM692 1055Q485 1030 407 1001Q387 911 387 817T388 676T392
570Q397 429 412 303L692 1055Z" />
<glyph unicode="&#xd9;" glyph-name="Ugrave" horiz-adv-x="1126" d="M675 1404Q568 1428 471 1484Q299 1582 247 1646L411 1820L755 1527L675 1404ZM177 248Q116 797 109 1260L363 1300L404 270Q486 222 646 222Q672 222 715 227L768 1307L1043 1272L950 285Q947
248 900 194T823 110Q763 48 744 30T707 10Q543 2 492 0T434 -3T408 8T370 34T330 66L254 131Q184 191 177 248Z" />
<glyph unicode="&#xda;" glyph-name="Uacute" horiz-adv-x="1126" d="M386 1519L739 1820L888 1634Q835 1569 740 1515Q573 1420 466 1396L386 1519ZM177 248Q116 797 109 1260L363 1300L404 270Q486 222 646 222Q672 222 715 227L768 1307L1043 1272L950 285Q947
248 900 194T823 110Q763 48 744 30T707 10Q543 2 492 0T434 -3T408 8T370 34T330 66L254 131Q184 191 177 248Z" />
<glyph unicode="&#xdb;" glyph-name="Ucircumflex" horiz-adv-x="1126" d="M555 1580Q455 1472 352 1398L243 1496L467 1793L657 1799L888 1494L764 1398Q646 1496 616 1523L555 1580ZM177 248Q116 797 109 1260L363 1300L404 270Q486 222 646 222Q672 222 715
227L768 1307L1043 1272L950 285Q947 248 900 194T823 110Q763 48 744 30T707 10Q543 2 492 0T434 -3T408 8T370 34T330 66L254 131Q184 191 177 248Z" />
<glyph unicode="&#xdc;" glyph-name="Udieresis" horiz-adv-x="1126" d="M462 1774Q497 1716 497 1581Q497 1510 485 1488L286 1477Q269 1623 245 1719L462 1774ZM872 1764Q887 1732 887 1689T883 1613T872 1551Q858 1490 839 1463L637 1498Q654 1572 654 1639T649
1748L872 1764ZM177 248Q116 797 109 1260L363 1300L404 270Q486 222 646 222Q672 222 715 227L768 1307L1043 1272L950 285Q947 248 900 194T823 110Q763 48 744 30T707 10Q543 2 492 0T434 -3T408 8T370 34T330 66L254 131Q184 191 177 248Z" />
<glyph unicode="&#xdd;" glyph-name="Yacute" horiz-adv-x="1042" d="M343 1519L696 1820L845 1634Q792 1569 697 1515Q530 1420 423 1396L343 1519ZM404 439Q354 443 303 451Q232 630 168 834L39 1245L299 1311L347 1149L465 614Q476 613 487 613T515 613Q562
613 600 621L737 1298L1007 1270L967 1114Q948 1041 929 976L890 850Q871 788 849 726L746 451Q711 445 652 440L622 0L407 -16L404 439Z" />
<glyph unicode="&#xde;" glyph-name="Thorn" horiz-adv-x="1104" d="M198 1292L454 1333V772L446 428Q555 446 616 466L710 498Q740 579 751 669T762 785Q762 820 757 862Q683 890 510 905L557 1130Q699 1115 874 1070Q913 1059 942 1029Q1001 966 1006 902Q1011
850 1011 798T1005 690T986 576Q961 453 936 394T900 325T874 308T845 296L817 287L438 223L426 8L217 -14L198 1292Z" />
<glyph unicode="&#xdf;" glyph-name="germandbls" horiz-adv-x="1134" d="M388 1229L402 741L390 0L168 -16L139 1173Q139 1212 152 1238T208 1296L354 1402Q429 1455 459 1458T528 1462Q615 1462 737 1433Q775 1423 825 1378Q919 1291 925 1249Q932 1205 932
1148Q932 1070 917 959L714 831L724 763L981 628Q1039 598 1039 521Q1039 489 1028 380L1006 147Q1002 113 974 93Q881 28 628 -26Q577 -37 528 -43L490 194Q532 199 568 204L637 214Q698 223 786 243L793 466L559 599Q501 633 496 701L481 912Q504 942 555 982Q677
1077 704 1100L706 1132Q706 1142 706 1164Q706 1208 698 1236Q619 1255 531 1253T388 1229Z" />
<glyph unicode="&#xe0;" glyph-name="agrave" horiz-adv-x="901" d="M529 1117Q481 1145 444 1173Q289 1294 244 1344Q176 1419 156 1455L351 1591L638 1220L529 1117ZM795 -72Q383 -30 149 53Q106 69 92 237Q80 391 118 504Q134 551 156 556Q250 581 354 592L562
615L558 756Q449 777 342 789T128 819L181 1038L350 1013Q582 979 719 930Q785 906 785 833L789 285L576 264L570 435L513 424Q417 408 330 384Q319 331 319 296Q319 245 323 217Q464 185 758 152L840 143L795 -72Z" />
<glyph unicode="&#xe1;" glyph-name="aacute" horiz-adv-x="901" d="M290 1220L579 1589L753 1425Q704 1354 606 1270Q473 1161 398 1117L290 1220ZM795 -72Q383 -30 149 53Q106 69 92 237Q80 391 118 504Q134 551 156 556Q250 581 354 592L562 615L558 756Q449
777 342 789T128 819L181 1038L350 1013Q582 979 719 930Q785 906 785 833L789 285L576 264L570 435L513 424Q417 408 330 384Q319 331 319 296Q319 245 323 217Q464 185 758 152L840 143L795 -72Z" />
<glyph unicode="&#xe2;" glyph-name="acircumflex" horiz-adv-x="901" d="M446 1316Q346 1208 243 1134L134 1232L358 1529L548 1535L779 1230L655 1134Q537 1232 507 1259L446 1316ZM795 -72Q383 -30 149 53Q106 69 92 237Q80 391 118 504Q134 551 156 556Q250
581 354 592L562 615L558 756Q449 777 342 789T128 819L181 1038L350 1013Q582 979 719 930Q785 906 785 833L789 285L576 264L570 435L513 424Q417 408 330 384Q319 331 319 296Q319 245 323 217Q464 185 758 152L840 143L795 -72Z" />
<glyph unicode="&#xe3;" glyph-name="atilde" horiz-adv-x="901" d="M117 1244Q157 1304 209 1352Q305 1441 338 1441T406 1427T474 1396L533 1365Q560 1351 567 1351T578 1353T598 1364T642 1394L725 1453L801 1359L757 1294Q643 1132 558 1132Q516 1132 460
1163T379 1209T350 1224T341 1223T320 1214L181 1152L117 1244ZM795 -72Q383 -30 149 53Q106 69 92 237Q80 391 118 504Q134 551 156 556Q250 581 354 592L562 615L558 756Q449 777 342 789T128 819L181 1038L350 1013Q582 979 719 930Q785 906 785 833L789 285L576
264L570 435L513 424Q417 408 330 384Q319 331 319 296Q319 245 323 217Q464 185 758 152L840 143L795 -72Z" />
<glyph unicode="&#xe4;" glyph-name="adieresis" horiz-adv-x="901" d="M355 1453Q390 1395 390 1262Q390 1191 377 1167L179 1156Q162 1302 138 1398L355 1453ZM748 1443Q763 1411 763 1368T759 1292T748 1230Q734 1169 715 1142L512 1177Q530 1256 530 1320T525
1427L748 1443ZM795 -72Q383 -30 149 53Q106 69 92 237Q80 391 118 504Q134 551 156 556Q250 581 354 592L562 615L558 756Q449 777 342 789T128 819L181 1038L350 1013Q582 979 719 930Q785 906 785 833L789 285L576 264L570 435L513 424Q417 408 330 384Q319
331 319 296Q319 245 323 217Q464 185 758 152L840 143L795 -72Z" />
<glyph unicode="&#xe5;" glyph-name="aring" horiz-adv-x="901" d="M459 1115Q406 1115 363 1133T288 1184Q222 1253 222 1363Q222 1521 366 1564Q411 1578 461 1578T553 1566T626 1527Q693 1471 693 1367Q693 1257 630 1188Q563 1115 459 1115ZM460 1279Q514
1279 527 1349Q532 1421 459 1421Q405 1421 391 1384Q386 1370 388 1354T393 1324T404 1301Q419 1279 460 1279ZM795 -72Q383 -30 149 53Q106 69 92 237Q80 391 118 504Q134 551 156 556Q250 581 354 592L562 615L558 756Q449 777 342 789T128 819L181 1038L350
1013Q582 979 719 930Q785 906 785 833L789 285L576 264L570 435L513 424Q417 408 330 384Q319 331 319 296Q319 245 323 217Q464 185 758 152L840 143L795 -72Z" />
<glyph unicode="&#xe6;" glyph-name="ae" horiz-adv-x="1368" d="M744 911Q951 1012 1069 1012Q1146 1012 1174 999Q1228 975 1241 922Q1274 789 1274 428V369L794 375V233Q874 214 981 197L1154 170Q1219 160 1288 147L1229 -72Q939 -26 645 67Q571 91 571 150L567
431Q541 426 510 421T448 410Q385 398 329 383Q319 326 319 293Q319 245 323 217Q368 206 414 198L508 182L463 -25Q355 -15 263 14T151 52T120 92T102 164Q90 234 90 288T94 381T106 456Q124 546 155 555Q267 584 390 595L563 612L561 754Q453 775 349 788T139
819L192 1038Q559 987 744 911ZM1048 588Q1048 669 1030 782Q931 782 821 732Q799 722 790 715L789 676L790 557L1048 567V588Z" />
<glyph unicode="&#xe7;" glyph-name="ccedilla" horiz-adv-x="799" d="M200 47Q145 65 136 130Q116 268 116 382T118 552T126 660Q144 877 175 914Q191 934 227 944T325 966T455 988T590 1008T704 1024L739 799L662 791Q448 769 389 754Q373 692 367 580T361 416Q361
287 371 223L753 152L694 -63Q612 -50 540 -35L419 -10Q255 26 200 47ZM448 -274Q375 -252 268 -233L350 43L491 64L459 -112Q509 -125 541 -135L588 -152Q618 -162 624 -171T633 -190Q637 -202 637 -224T633 -277T621 -338Q605 -409 592 -429T541 -465T460 -498Q384
-524 311 -542L266 -385Q322 -369 362 -356L442 -332L448 -274Z" />
<glyph unicode="&#xe8;" glyph-name="egrave" horiz-adv-x="958" d="M530 1117Q482 1145 445 1173Q290 1294 245 1344Q177 1419 157 1455L352 1591L639 1220L530 1117ZM122 666Q122 800 149 821T212 863T290 906T377 946T467 980Q561 1012 607 1012T683 1008T736
993Q791 970 798 926Q831 717 831 428V369L352 363V233Q430 214 538 198L710 170Q776 160 845 147L786 -72Q511 -29 202 67Q131 90 129 150L122 666ZM606 584Q606 678 587 782Q547 782 523 778T475 767T426 751Q367 730 348 715V535L606 563V584Z" />
<glyph unicode="&#xe9;" glyph-name="eacute" horiz-adv-x="958" d="M235 1220L524 1589L698 1425Q649 1354 551 1270Q418 1161 343 1117L235 1220ZM122 666Q122 800 149 821T212 863T290 906T377 946T467 980Q561 1012 607 1012T683 1008T736 993Q791 970 798
926Q831 717 831 428V369L352 363V233Q430 214 538 198L710 170Q776 160 845 147L786 -72Q511 -29 202 67Q131 90 129 150L122 666ZM606 584Q606 678 587 782Q547 782 523 778T475 767T426 751Q367 730 348 715V535L606 563V584Z" />
<glyph unicode="&#xea;" glyph-name="ecircumflex" horiz-adv-x="958" d="M465 1316Q365 1208 262 1134L153 1232L377 1529L567 1535L798 1230L674 1134Q556 1232 526 1259L465 1316ZM122 666Q122 800 149 821T212 863T290 906T377 946T467 980Q561 1012 607 1012T683
1008T736 993Q791 970 798 926Q831 717 831 428V369L352 363V233Q430 214 538 198L710 170Q776 160 845 147L786 -72Q511 -29 202 67Q131 90 129 150L122 666ZM606 584Q606 678 587 782Q547 782 523 778T475 767T426 751Q367 730 348 715V535L606 563V584Z" />
<glyph unicode="&#xeb;" glyph-name="edieresis" horiz-adv-x="958" d="M362 1453Q397 1395 397 1262Q397 1191 384 1167L186 1156Q169 1302 145 1398L362 1453ZM755 1443Q770 1411 770 1368T766 1292T754 1230Q741 1169 722 1142L519 1177Q537 1256 537 1320T532
1427L755 1443ZM122 666Q122 800 149 821T212 863T290 906T377 946T467 980Q561 1012 607 1012T683 1008T736 993Q791 970 798 926Q831 717 831 428V369L352 363V233Q430 214 538 198L710 170Q776 160 845 147L786 -72Q511 -29 202 67Q131 90 129 150L122 666ZM606
584Q606 678 587 782Q547 782 523 778T475 767T426 751Q367 730 348 715V535L606 563V584Z" />
<glyph unicode="&#xec;" glyph-name="igrave" horiz-adv-x="596" d="M334 1117Q286 1145 249 1173Q94 1294 49 1344Q-19 1419 -39 1455L156 1591L443 1220L334 1117ZM420 1001Q425 898 425 828T422 664L399 0L186 -18L166 969L420 1001Z" />
<glyph unicode="&#xed;" glyph-name="iacute" horiz-adv-x="604" d="M172 1220L461 1589L635 1425Q586 1354 488 1270Q355 1161 280 1117L172 1220ZM420 1001Q425 898 425 828T422 664L399 0L186 -18L166 969L420 1001Z" />
<glyph unicode="&#xee;" glyph-name="icircumflex" horiz-adv-x="596" d="M287 1316Q187 1208 84 1134L-25 1232L199 1529L389 1535L620 1230L496 1134Q378 1232 348 1259L287 1316ZM420 1001Q425 898 425 828T422 664L399 0L186 -18L166 969L420 1001Z" />
<glyph unicode="&#xef;" glyph-name="idieresis" horiz-adv-x="616" d="M213 1451Q248 1393 248 1260Q248 1189 235 1165L37 1154Q20 1300 -4 1396L213 1451ZM606 1441Q621 1409 621 1366T617 1290T606 1228Q592 1167 573 1140L370 1175Q388 1254 388 1318T383
1425L606 1441ZM430 1001Q435 898 435 828T432 664L409 0L196 -16L176 969L430 1001Z" />
<glyph unicode="&#xf0;" glyph-name="eth" horiz-adv-x="1032" d="M745 1341Q706 1291 632 1227Q809 1076 872 962Q901 909 904 830T907 698T902 587T889 466T871 338T850 218Q828 105 811 60T761 -1T686 -23Q626 -32 559 -32T458 -31T392 -28Q328 -25 289 -20T225
5T188 76Q121 393 121 612Q121 694 136 723Q186 817 432 870Q468 877 501 882L567 708Q405 631 370 610Q366 554 366 501T368 411T375 340T387 268L403 184L602 193Q663 409 663 688Q663 827 643 909Q608 948 560 994L455 1090Q343 1009 260 963L157 1083L307 1207L224
1264Q183 1292 139 1317L252 1477Q374 1413 470 1348Q556 1423 602 1477L745 1341Z" />
<glyph unicode="&#xf1;" glyph-name="ntilde" horiz-adv-x="1024" d="M196 1244Q236 1304 288 1352Q384 1441 417 1441T485 1427T552 1396L612 1365Q639 1351 646 1351T657 1353T677 1364T722 1394L804 1453L880 1359L836 1294Q722 1132 637 1132Q595 1132 539
1163T458 1209T429 1224T420 1223T399 1214L260 1152L196 1244ZM137 956L350 983L385 831L561 983H807Q826 983 860 954Q917 907 917 870L882 -2L659 -20L655 752Q643 756 622 756T584 754T546 748Q499 740 469 729L395 702L368 8L155 -8L137 956Z" />
<glyph unicode="&#xf2;" glyph-name="ograve" horiz-adv-x="991" d="M569 1117Q521 1145 484 1173Q329 1294 284 1344Q216 1419 196 1455L391 1591L678 1220L569 1117ZM370 592Q370 351 395 174L592 184Q646 398 646 602Q646 684 635 748Q575 778 211 778H160Q139
778 114 776L157 1008Q174 1009 188 1010T218 1012L248 1014Q263 1014 332 1014Q530 1014 766 961Q841 942 858 894Q884 820 884 653Q884 348 791 63Q783 37 773 19T736 -4T675 -15T606 -24Q532 -31 504 -31T444 -31T374 -28Q274 -23 239 -11T192 32T167 128Q139
282 139 479Q139 554 143 628L370 673V592Z" />
<glyph unicode="&#xf3;" glyph-name="oacute" horiz-adv-x="991" d="M330 1220L619 1589L793 1425Q744 1354 646 1270Q513 1161 438 1117L330 1220ZM370 592Q370 351 395 174L592 184Q646 398 646 602Q646 684 635 748Q575 778 211 778H160Q139 778 114 776L157
1008Q174 1009 188 1010T218 1012L248 1014Q263 1014 332 1014Q530 1014 766 961Q841 942 858 894Q884 820 884 653Q884 348 791 63Q783 37 773 19T736 -4T675 -15T606 -24Q532 -31 504 -31T444 -31T374 -28Q274 -23 239 -11T192 32T167 128Q139 282 139 479Q139
554 143 628L370 673V592Z" />
<glyph unicode="&#xf4;" glyph-name="ocircumflex" horiz-adv-x="991" d="M489 1316Q389 1208 286 1134L177 1232L401 1529L591 1535L822 1230L698 1134Q580 1232 550 1259L489 1316ZM370 592Q370 351 395 174L592 184Q646 398 646 602Q646 684 635 748Q575 778
211 778H160Q139 778 114 776L157 1008Q174 1009 188 1010T218 1012L248 1014Q263 1014 332 1014Q530 1014 766 961Q841 942 858 894Q884 820 884 653Q884 348 791 63Q783 37 773 19T736 -4T675 -15T606 -24Q532 -31 504 -31T444 -31T374 -28Q274 -23 239 -11T192
32T167 128Q139 282 139 479Q139 554 143 628L370 673V592Z" />
<glyph unicode="&#xf5;" glyph-name="otilde" horiz-adv-x="991" d="M182 1244Q222 1304 274 1352Q370 1441 403 1441T471 1427T538 1396L598 1365Q625 1351 632 1351T643 1353T663 1364T708 1394L790 1453L866 1359L822 1294Q708 1132 623 1132Q581 1132 525
1163T444 1209T415 1224T406 1223T385 1214L246 1152L182 1244ZM370 592Q370 351 395 174L592 184Q646 398 646 602Q646 684 635 748Q575 778 211 778H160Q139 778 114 776L157 1008Q174 1009 188 1010T218 1012L248 1014Q263 1014 332 1014Q530 1014 766 961Q841
942 858 894Q884 820 884 653Q884 348 791 63Q783 37 773 19T736 -4T675 -15T606 -24Q532 -31 504 -31T444 -31T374 -28Q274 -23 239 -11T192 32T167 128Q139 282 139 479Q139 554 143 628L370 673V592Z" />
<glyph unicode="&#xf6;" glyph-name="odieresis" horiz-adv-x="991" d="M395 1453Q430 1395 430 1262Q430 1191 417 1167L219 1156Q202 1302 178 1398L395 1453ZM788 1443Q803 1411 803 1368T799 1292T788 1230Q774 1169 755 1142L552 1177Q570 1256 570 1320T565
1427L788 1443ZM370 592Q370 351 395 174L592 184Q646 398 646 602Q646 684 635 748Q575 778 211 778H160Q139 778 114 776L157 1008Q174 1009 188 1010T218 1012L248 1014Q263 1014 332 1014Q530 1014 766 961Q841 942 858 894Q884 820 884 653Q884 348 791 63Q783
37 773 19T736 -4T675 -15T606 -24Q532 -31 504 -31T444 -31T374 -28Q274 -23 239 -11T192 32T167 128Q139 282 139 479Q139 554 143 628L370 673V592Z" />
<glyph unicode="&#xf7;" glyph-name="divide" horiz-adv-x="957" d="M615 1087Q638 1006 638 926T625 782L380 788L361 1057L615 1087ZM95 612L900 622L890 434Q816 431 756 428T636 422Q481 415 396 415T276 415T212 417T148 421L67 426L95 612ZM638 159Q638
12 607 -45L367 -23Q378 96 378 159T376 250L625 276Q638 231 638 159Z" />
<glyph unicode="&#xf8;" glyph-name="oslash" horiz-adv-x="1035" d="M783 -4Q579 -46 388 -19L312 -228L190 -187L261 9Q251 13 232 26Q196 52 183 102T162 205T149 310Q138 427 138 468T138 530T140 567Q141 606 142 629L357 674L348 415Q348 318 352 258L540
776Q374 795 282 795H164Q138 795 113 793L146 1018Q213 1024 342 1024T621 997L699 1212L820 1165L748 967L793 952Q835 937 854 918T887 861T908 780Q922 703 922 590Q922 339 835 63Q827 37 817 19T783 -4ZM458 172Q557 176 629 193Q695 454 695 612Q695 707
676 750L669 752L458 172Z" />
<glyph unicode="&#xf9;" glyph-name="ugrave" horiz-adv-x="1024" d="M588 1117Q540 1145 503 1173Q348 1294 303 1344Q235 1419 215 1455L410 1591L697 1220L588 1117ZM257 10Q230 13 198 49Q146 104 144 153L124 975L358 1000L382 226Q416 209 456 209Q514 209
641 270L664 985H895L880 10L714 -10L671 150L462 2L257 10Z" />
<glyph unicode="&#xfa;" glyph-name="uacute" horiz-adv-x="1024" d="M348 1220L637 1589L811 1425Q762 1354 664 1270Q531 1161 456 1117L348 1220ZM257 10Q230 13 198 49Q146 104 144 153L124 975L358 1000L382 226Q416 209 456 209Q514 209 641 270L664 985H895L880
10L714 -10L671 150L462 2L257 10Z" />
<glyph unicode="&#xfb;" glyph-name="ucircumflex" horiz-adv-x="1024" d="M508 1316Q408 1208 305 1134L196 1232L420 1529L610 1535L841 1230L717 1134Q599 1232 569 1259L508 1316ZM257 10Q230 13 198 49Q146 104 144 153L124 975L358 1000L382 226Q416 209
456 209Q514 209 641 270L664 985H895L880 10L714 -10L671 150L462 2L257 10Z" />
<glyph unicode="&#xfc;" glyph-name="udieresis" horiz-adv-x="1024" d="M414 1453Q449 1395 449 1262Q449 1191 436 1167L238 1156Q221 1302 197 1398L414 1453ZM807 1443Q822 1411 822 1368T818 1292T806 1230Q793 1169 774 1142L571 1177Q589 1256 589 1320T584
1427L807 1443ZM257 10Q230 13 198 49Q146 104 144 153L124 975L358 1000L382 226Q416 209 456 209Q514 209 641 270L664 985H895L880 10L714 -10L671 150L462 2L257 10Z" />
<glyph unicode="&#xfd;" glyph-name="yacute" horiz-adv-x="1030" d="M352 1220L641 1589L815 1425Q766 1354 668 1270Q535 1161 460 1117L352 1220ZM131 981L368 1030L387 223Q429 209 452 209T492 209T532 214Q586 225 647 256L655 971L882 999L894 -126Q894
-177 828 -223Q663 -338 585 -387L440 -476Q373 -515 308 -549L186 -330Q546 -162 678 -82L663 164L514 0H258Q228 3 196 29Q149 68 149 113L131 981Z" />
<glyph unicode="&#xfe;" glyph-name="thorn" horiz-adv-x="1005" d="M145 1427L387 1473L391 764L372 188L585 219Q645 440 645 651Q645 716 639 756Q588 772 450 779L501 1004Q713 990 778 969T860 926Q890 881 890 708Q890 362 801 90Q782 31 737 25L397 -23L379
-508L168 -522L162 328L145 1427Z" />
<glyph unicode="&#xff;" glyph-name="ydieresis" horiz-adv-x="1030" d="M418 1453Q453 1395 453 1262Q453 1191 440 1167L242 1156Q225 1302 201 1398L418 1453ZM811 1443Q826 1411 826 1368T822 1292T810 1230Q797 1169 778 1142L575 1177Q593 1256 593 1320T588
1427L811 1443ZM131 981L368 1030L387 223Q429 209 452 209T492 209T532 214Q586 225 647 256L655 971L882 999L894 -126Q894 -177 828 -223Q663 -338 585 -387L440 -476Q373 -515 308 -549L186 -330Q546 -162 678 -82L663 164L514 0H258Q228 3 196 29Q149 68 149
113L131 981Z" />
<glyph unicode="&#x2013;" glyph-name="endash" horiz-adv-x="1298" d="M153 629H1183L1165 438Q1165 438 853 426Q690 420 555 420Q287 420 125 430L153 629Z" />
<glyph unicode="&#x2014;" glyph-name="emdash" horiz-adv-x="2320" d="M153 629H2205L2187 438Q1617 420 1131 420T557 421T395 425T258 431T125 436L153 629Z" />
<glyph unicode="&#x2018;" glyph-name="quoteleft" horiz-adv-x="520" d="M147 748Q118 830 118 922Q118 1131 239 1298L407 1327Q324 1185 319 1028L395 1016L418 782L147 748Z" />
<glyph unicode="&#x2019;" glyph-name="quoteright" horiz-adv-x="520" d="M418 1169Q418 933 295 762H291L155 786Q211 906 217 1047L141 1059L118 1292L389 1327Q418 1245 418 1169Z" />
<glyph unicode="&#x201a;" glyph-name="quotesinglbase" horiz-adv-x="520" d="M418 145Q418 -91 295 -262H291L155 -238Q211 -118 217 23L141 35L118 268L389 303Q418 221 418 145Z" />
<glyph unicode="&#x201c;" glyph-name="quotedblleft" horiz-adv-x="954" d="M581 748Q552 830 552 922Q552 1131 673 1298L841 1327Q758 1185 753 1028L829 1016L852 782L581 748ZM147 748Q118 830 118 922Q118 1131 239 1298L407 1327Q324 1185 319 1028L395
1016L418 782L147 748Z" />
<glyph unicode="&#x201d;" glyph-name="quotedblright" horiz-adv-x="954" d="M799 1327Q828 1245 828 1153Q828 944 707 777L539 748Q622 890 627 1047L551 1059L528 1293L799 1327ZM365 1327Q394 1245 394 1153Q394 944 273 777L105 748Q188 890 193 1047L117
1059L94 1293L365 1327Z" />
<glyph unicode="&#x201e;" glyph-name="quotedblbase" horiz-adv-x="954" d="M799 296Q828 214 828 122Q828 -87 707 -254L539 -283Q622 -141 627 16L551 28L528 262L799 296ZM365 296Q394 214 394 122Q394 -87 273 -254L105 -283Q188 -141 193 16L117 28L94 262L365
296Z" />
<glyph unicode="&#x2022;" glyph-name="bullet" horiz-adv-x="721" d="M193 423Q203 549 203 642T201 769L522 800Q536 751 536 683T533 574T526 498Q516 423 501 395L193 423Z" />
<glyph unicode="&#x2039;" glyph-name="guilsinglleft" horiz-adv-x="684" d="M102 569L436 973L581 854L348 498L585 139L444 23L80 428L102 569Z" />
<glyph unicode="&#x203a;" glyph-name="guilsinglright" horiz-adv-x="684" d="M322 510L85 869L226 985L590 580L568 439L234 35L89 154L322 510Z" />
</font>
</defs>
</svg>
