<?xml version="1.0" standalone="no"?>
<!DOCTYPE svg PUBLIC "-//W3C//DTD SVG 1.1//EN" "http://www.w3.org/Graphics/SVG/1.1/DTD/svg11.dtd">
<svg xmlns="http://www.w3.org/2000/svg">
<defs >
<font id="ProzaLibre" horiz-adv-x="1198" ><font-face
    font-family="Proza Libre"
    units-per-em="2048"
    panose-1="2 0 5 3 6 0 0 2 0 4"
    ascent="2030"
    descent="-750"
    alphabetic="0" />
<glyph unicode=" " glyph-name="space" horiz-adv-x="452" />
<glyph unicode="!" glyph-name="exclam" horiz-adv-x="653" d="M252 505L328 1465H538L397 505H252ZM266 -20Q237 -20 213 -9T171 20T144 63T134 115Q134 147 147 176T183 229T236 266T300 280Q329 280 353 269T395 239T422 195T432 142Q432 110 419 81T383 30T330
-6T266 -20Z" />
<glyph unicode="&quot;" glyph-name="quotedbl" horiz-adv-x="1032" d="M186 1008Q224 1045 259 1086T323 1169T374 1251T406 1326Q396 1336 381 1347T348 1369T311 1386T274 1398Q270 1408 269 1422T267 1448Q267 1475 278 1504T310 1557T361 1596T431 1612Q456
1612 480 1603T523 1575T553 1524T565 1450Q565 1399 547 1342T489 1222T389 1094T243 964L186 1008ZM618 1008Q656 1045 691 1086T755 1169T806 1251T838 1326Q828 1336 813 1347T780 1369T743 1386T706 1398Q702 1408 701 1422T699 1448Q699 1475 710 1504T742
1557T793 1596T863 1612Q888 1612 912 1603T955 1575T985 1524T997 1450Q997 1399 979 1342T921 1222T821 1094T675 964L618 1008Z" />
<glyph unicode="#" glyph-name="numbersign" horiz-adv-x="1783" d="M430 364H132L170 489H467L614 976H316L354 1101H651L760 1465H897L788 1101H1263L1372 1465H1509L1400 1101H1699L1661 976H1363L1216 489H1515L1477 364H1179L1071 0H934L1042 364H567L459
0H322L430 364ZM604 489H1079L1226 976H751L604 489Z" />
<glyph unicode="$" glyph-name="dollar" horiz-adv-x="1352" d="M618 155Q684 155 743 172T847 221T918 299T944 405Q944 461 917 501T846 573T745 630T630 682T515 739T414 811T342 907T315 1039Q315 1127 346 1198T433 1322T564 1409T729 1457L770 1814H934L894
1465Q957 1462 1039 1449T1210 1407L1157 1233L1135 1223Q1083 1248 1033 1265T938 1292T855 1306T787 1310Q728 1310 677 1295T588 1252T528 1181T506 1085Q506 1029 533 988T606 914T708 855T825 801T942 744T1044 675T1116 583T1144 459Q1144 382 1114 313T1030
185T899 84T729 19L687 -350H523L563 -1Q512 -1 459 6T352 25T248 56T152 96L206 271L227 281Q319 224 420 190T618 155Z" />
<glyph unicode="%" glyph-name="percent" horiz-adv-x="2003" d="M1501 1464H1665L550 0H388L1501 1464ZM535 686Q460 686 404 712T312 784T257 889T239 1017Q239 1117 271 1202T362 1351T498 1449T668 1485Q743 1485 798 1460T891 1390T946 1286T965 1158Q965
1061 933 975T844 825T708 724T535 686ZM575 826Q618 826 655 847T721 907T766 1000T783 1123Q783 1171 773 1212T742 1282T694 1327T628 1344Q586 1344 549 1325T483 1268T437 1175T420 1050Q420 1001 430 960T461 889T510 843T575 826ZM1384 -21Q1309 -21 1253
5T1160 77T1105 182T1087 310Q1087 410 1119 495T1210 644T1346 742T1517 778Q1591 778 1646 753T1739 683T1794 579T1813 451Q1813 354 1782 268T1693 118T1557 17T1384 -21ZM1424 119Q1467 119 1504 140T1570 200T1615 293T1632 416Q1632 464 1622 505T1591 575T1543
620T1477 637Q1435 637 1397 618T1331 561T1286 468T1269 343Q1269 294 1279 253T1310 182T1359 136T1424 119Z" />
<glyph unicode="&amp;" glyph-name="ampersand" horiz-adv-x="1518" d="M1095 1222Q1095 1162 1074 1102T1006 982T888 865T715 754Q752 704 786 662T856 577T931 492T1015 398Q1049 440 1079 489T1135 588T1181 686T1216 776H1373Q1321 649 1254 532T1119 319Q1180
260 1241 212T1372 115L1262 -20Q1192 26 1130 73T1005 184Q907 87 793 34T542 -20Q446 -20 368 7T234 81T149 193T119 333Q119 409 149 471T232 588T355 688T504 780Q475 820 448 863T400 952T367 1043T354 1134Q354 1209 389 1273T484 1384T623 1458T790 1485Q864
1485 921 1466T1016 1412T1075 1329T1095 1222ZM909 263Q861 315 818 362T734 457T652 558T566 677Q498 639 452 602T376 526T334 448T321 366Q321 308 343 265T403 193T494 150T607 135Q688 135 764 163T909 263ZM533 1136Q533 1101 544 1064T574 989T614 917T657
855Q723 887 772 925T855 1005T904 1088T921 1171Q921 1243 874 1286T747 1330Q700 1330 661 1315T594 1272T549 1210T533 1136Z" />
<glyph unicode="&apos;" glyph-name="quotesingle" horiz-adv-x="600" d="M186 1008Q224 1045 259 1086T323 1169T374 1251T406 1326Q396 1336 381 1347T348 1369T311 1386T274 1398Q270 1408 269 1422T267 1448Q267 1475 278 1504T310 1557T361 1596T431 1612Q456
1612 480 1603T523 1575T553 1524T565 1450Q565 1399 547 1342T489 1222T389 1094T243 964L186 1008Z" />
<glyph unicode="(" glyph-name="parenleft" horiz-adv-x="784" d="M801 1541Q696 1432 620 1305T495 1037T422 743T398 429Q398 324 409 223T445 29T505 -146T591 -297L487 -373Q344 -201 272 4T199 452Q199 795 329 1085T713 1617L801 1541Z" />
<glyph unicode=")" glyph-name="parenright" horiz-adv-x="786" d="M9 -297Q114 -188 190 -61T315 207T388 501T412 815Q412 920 401 1021T365 1215T305 1390T218 1541L323 1617Q466 1445 538 1240T611 792Q611 448 481 158T96 -373L9 -297Z" />
<glyph unicode="*" glyph-name="asterisk" horiz-adv-x="1070" d="M504 1033L498 1049L157 1021L188 1157L508 1133L518 1149L347 1441L491 1493L604 1191H624L801 1493L935 1441L695 1147L702 1131L1042 1157L1011 1021L690 1047L680 1031L850 735L705 685L595
989H575L403 685L266 735L504 1033Z" />
<glyph unicode="+" glyph-name="plus" horiz-adv-x="1297" d="M597 659L648 1102H783L732 659H1163L1148 524H717L667 81H532L582 524H151L166 659H597Z" />
<glyph unicode="," glyph-name="comma" horiz-adv-x="620" d="M34 -324Q72 -287 107 -246T171 -163T222 -81T254 -6Q244 4 229 15T196 37T159 54T122 66Q118 76 117 90T115 116Q115 143 126 172T158 225T209 264T279 280Q304 280 328 271T371 243T401 192T413
118Q413 67 395 10T337 -110T237 -238T91 -368L34 -324Z" />
<glyph unicode="-" glyph-name="hyphen" horiz-adv-x="987" d="M853 659L838 524H151L166 659H853Z" />
<glyph unicode="." glyph-name="period" horiz-adv-x="616" d="M247 -20Q218 -20 194 -9T152 20T125 63T115 115Q115 147 128 176T164 229T217 266T281 280Q310 280 334 269T376 239T403 195T413 142Q413 110 400 81T364 30T311 -6T247 -20Z" />
<glyph unicode="/" glyph-name="slash" horiz-adv-x="906" d="M765 1602H917L158 -308H6L765 1602Z" />
<glyph unicode="0" glyph-name="zero" horiz-adv-x="1464" d="M1142 823Q1142 948 1120 1043T1055 1201T953 1297T817 1330Q724 1330 643 1283T502 1147T406 932T371 647Q371 522 393 427T458 266T561 168T698 135Q791 135 872 183T1013 322T1107 539T1142 823ZM1351
852Q1351 728 1326 616T1254 406T1144 231T1002 96T837 10T656 -20Q542 -20 451 25T295 153T197 353T162 614Q162 740 187 853T259 1063T370 1238T511 1371T675 1455T855 1485Q969 1485 1060 1440T1216 1313T1316 1113T1351 852Z" />
<glyph unicode="1" glyph-name="one" horiz-adv-x="946" d="M451 0L587 1194H167L179 1299Q276 1299 356 1310T501 1342T619 1394T715 1465H814L647 0H451Z" />
<glyph unicode="2" glyph-name="two" horiz-adv-x="1223" d="M68 65Q305 264 461 419T708 698T837 918T874 1094Q874 1160 854 1204T799 1275T722 1313T633 1325Q593 1325 549 1318T461 1297T374 1264T293 1221V1335Q339 1371 391 1398T496 1445T604 1475T708
1485Q790 1485 859 1459T978 1386T1057 1274T1085 1131Q1085 1034 1039 929T901 705T669 449T343 155H1022L975 0H68V65Z" />
<glyph unicode="3" glyph-name="three" horiz-adv-x="1191" d="M1069 1195Q1069 1139 1045 1092T974 1001T860 917T706 832L705 822Q784 810 843 779T941 705T999 611T1019 505Q1019 451 999 393T935 279T820 172T649 83T415 23T111 0L129 155Q305 155 433 179T646
246T770 350T811 484Q811 554 778 599T690 670T568 703T428 705L442 822Q483 835 529 853T622 896T712 949T788 1011T840 1083T860 1165Q860 1207 841 1237T790 1286T716 1315T626 1325Q538 1325 446 1297T277 1221V1335Q368 1401 475 1443T697 1485Q781 1485 850
1462T967 1399T1042 1307T1069 1195Z" />
<glyph unicode="4" glyph-name="four" horiz-adv-x="1297" d="M101 525L799 1465H1068L966 570H1213L1157 417H949L901 0H713L761 417H89L101 525ZM778 570L842 1125L878 1354H858L728 1152L303 570H778Z" />
<glyph unicode="5" glyph-name="five" horiz-adv-x="1111" d="M356 1465H1047L1003 1310H480L403 965Q532 965 633 936T803 855T910 732T947 577Q947 519 928 454T869 324T764 202T610 98T400 27T131 0L149 155Q321 155 436 189T619 277T715 399T744 535Q744 607
717 659T639 744T513 793T345 809H213L356 1465Z" />
<glyph unicode="6" glyph-name="six" horiz-adv-x="1313" d="M602 794Q656 826 709 843T818 861Q887 861 949 833T1059 756T1134 640T1162 497Q1162 432 1142 369T1084 248T994 141T878 57T742 1T591 -20Q475 -20 392 23T254 139T174 303T148 495Q148 605 179
719T269 941T414 1144T611 1311T856 1423T1145 1465H1168L1150 1310H1136Q987 1310 871 1274T669 1177T523 1036T426 869T373 692T357 523Q357 438 374 367T425 245T512 164T633 135Q700 135 758 161T860 233T927 339T952 465Q952 514 938 558T894 635T822 687T720
707Q689 707 656 702T602 689V794Z" />
<glyph unicode="7" glyph-name="seven" horiz-adv-x="1067" d="M190 1310L234 1465H1093L1085 1400Q983 1212 888 1035T704 685T533 343T372 0H171Q258 174 345 339T520 666T698 987T885 1310H190Z" />
<glyph unicode="8" glyph-name="eight" horiz-adv-x="1333" d="M538 767Q497 792 456 824T380 896T325 984T304 1089Q304 1167 345 1238T454 1365T613 1452T801 1485Q891 1485 963 1459T1085 1389T1163 1289T1190 1175Q1190 1111 1160 1055T1080 950T970 860T847
787Q911 752 966 715T1063 636T1129 543T1153 433Q1153 381 1135 328T1083 224T998 130T885 52T747 -1T585 -20Q473 -20 391 11T255 93T175 204T149 326Q149 397 182 460T270 579T395 682T538 767ZM638 706Q571 669 518 633T427 557T369 474T349 377Q349 323 369
279T427 202T517 153T632 135Q701 135 760 155T862 212T930 296T955 401Q955 455 932 496T866 571T766 638T638 706ZM748 847Q879 919 936 987T993 1136Q993 1187 974 1224T922 1284T848 1319T764 1330Q715 1330 668 1316T583 1275T522 1208T499 1114Q499 1066
518 1029T571 960T650 902T748 847Z" />
<glyph unicode="9" glyph-name="nine" horiz-adv-x="1313" d="M760 671Q706 639 653 622T544 604Q475 604 413 632T303 709T228 825T200 968Q200 1033 220 1096T278 1217T368 1324T484 1408T620 1464T771 1485Q886 1485 970 1442T1108 1326T1188 1162T1214 970Q1214
860 1183 746T1093 524T948 321T751 154T506 42T217 0H194L212 155H226Q375 155 491 191T693 288T839 429T936 596T989 773T1005 942Q1005 1027 988 1098T937 1220T850 1301T729 1330Q662 1330 604 1304T502 1232T435 1126T410 1000Q410 950 424 906T468 829T540
777T642 758Q673 758 706 763T760 776V671Z" />
<glyph unicode=":" glyph-name="colon" horiz-adv-x="696" d="M287 -20Q258 -20 234 -9T192 20T165 63T155 115Q155 147 168 176T204 229T257 266T321 280Q350 280 374 269T416 239T443 195T453 142Q453 110 440 81T404 30T351 -6T287 -20ZM366 672Q337 672 313
683T271 712T244 755T234 807Q234 839 247 868T283 921T336 958T400 972Q429 972 453 961T495 931T522 887T532 834Q532 802 519 773T483 722T430 686T366 672Z" />
<glyph unicode=";" glyph-name="semicolon" horiz-adv-x="700" d="M359 672Q330 672 306 683T264 712T237 755T227 807Q227 839 240 868T277 921T330 958T394 972Q423 972 447 961T488 931T515 887T525 834Q525 802 512 773T476 722T423 686T359 672ZM74 -324Q112
-287 147 -246T211 -163T262 -81T294 -6Q284 4 269 15T236 37T199 54T162 66Q158 76 157 90T155 116Q155 143 166 172T198 225T249 264T319 280Q344 280 368 271T411 243T441 192T453 118Q453 67 435 10T377 -110T277 -238T131 -368L74 -324Z" />
<glyph unicode="&lt;" glyph-name="less" horiz-adv-x="1163" d="M165 650L1033 1134L1015 978L339 602L930 226L912 70L154 554L165 650Z" />
<glyph unicode="=" glyph-name="equal" horiz-adv-x="1373" d="M1165 454L1150 319H177L192 454H1165ZM1212 864L1197 729H224L239 864H1212Z" />
<glyph unicode="&gt;" glyph-name="greater" horiz-adv-x="1163" d="M1017 554L149 70L167 226L843 602L252 978L270 1134L1028 650L1017 554Z" />
<glyph unicode="?" glyph-name="question" horiz-adv-x="956" d="M566 1331Q539 1331 504 1326T426 1306T336 1269T237 1210L222 1218L198 1374Q314 1432 418 1458T626 1485Q711 1485 773 1468T877 1418T938 1342T958 1244Q958 1182 938 1133T886 1043T811 964T726
891T640 818T566 736T513 638T493 517V505H349Q348 517 348 531T347 559Q347 644 377 709T452 828T550 924T648 1008T724 1092T754 1186Q754 1219 739 1246T699 1292T639 1321T566 1331ZM364 -20Q335 -20 311 -9T269 20T242 63T232 115Q232 147 245 176T281 229T334
266T398 280Q427 280 451 269T493 239T520 195T530 142Q530 110 517 81T481 30T428 -6T364 -20Z" />
<glyph unicode="@" glyph-name="at" horiz-adv-x="2244" d="M1303 210Q1251 142 1204 98T1115 27T1035 -9T962 -20Q897 -20 844 9T753 89T695 205T674 344Q674 419 696 493T758 633T856 756T982 853T1131 915T1298 934Q1363 932 1433 917T1571 880L1488 144Q1600
181 1682 241T1817 376T1897 537T1923 716Q1923 842 1877 939T1747 1103T1550 1203T1302 1237Q1176 1237 1058 1208T835 1123T643 986T492 802T394 576T359 311Q359 163 399 42T523 -167T733 -301T1032 -349Q1108 -349 1191 -339T1357 -310T1521 -261T1671 -191L1659
-299Q1593 -344 1509 -378T1333 -436T1148 -472T971 -485Q789 -485 643 -428T393 -268T233 -22T177 295Q177 455 223 597T351 858T543 1073T782 1235T1050 1336T1330 1372Q1495 1372 1631 1325T1865 1194T2015 996T2069 749Q2069 668 2048 583T1985 416T1879 260T1732
127T1542 26T1310 -32L1303 210ZM1367 757Q1332 768 1295 775T1219 783Q1136 783 1073 749T966 658T900 532T878 389Q878 341 888 298T917 222T964 170T1028 150Q1059 150 1095 165T1171 208T1249 279T1324 378L1367 757Z" />
<glyph unicode="A" glyph-name="A" horiz-adv-x="1457" d="M1019 398H387L205 0H20L732 1465H940L1319 0H1113L1019 398ZM982 551L853 1123L819 1327H799L719 1123L458 551H982Z" />
<glyph unicode="B" glyph-name="B" horiz-adv-x="1297" d="M910 808Q965 792 1013 762T1097 691T1154 599T1175 490Q1175 437 1156 380T1100 269T1007 166T881 80T723 22T535 0H159L326 1465H738Q852 1465 936 1438T1075 1367T1157 1268T1184 1158Q1184 1104 1161
1055T1098 961T1010 878T910 808ZM373 155H575Q684 155 758 183T879 257T945 357T965 465Q965 522 942 563T875 632T770 673T633 687H433L373 155ZM795 842Q879 896 930 963T982 1112Q982 1203 907 1256T686 1310H504L451 842H795Z" />
<glyph unicode="C" glyph-name="C" horiz-adv-x="1443" d="M1282 141Q1220 92 1151 61T1013 11T882 -13T772 -20Q639 -20 527 27T334 159T208 363T163 626Q163 760 198 876T294 1087T440 1257T624 1381T834 1458T1057 1485Q1126 1485 1222 1473T1425 1427L1371
1253L1350 1243Q1298 1268 1249 1285T1154 1312T1068 1326T995 1330Q909 1330 829 1306T680 1239T555 1136T458 1003T395 847T373 675Q373 570 404 474T497 303T651 184T867 140Q906 140 955 146T1058 165T1170 199T1282 251V141Z" />
<glyph unicode="D" glyph-name="D" horiz-adv-x="1643" d="M326 1465H821Q999 1465 1132 1416T1354 1283T1486 1086T1530 845Q1530 748 1506 648T1431 454T1306 278T1130 133T902 36T622 0H159L326 1465ZM373 155H676Q836 155 957 208T1158 352T1279 562T1320
813Q1320 928 1284 1020T1179 1177T1007 1275T771 1310H504L373 155Z" />
<glyph unicode="E" glyph-name="E" horiz-adv-x="1224" d="M159 0L326 1465H1185L1137 1310H504L451 842H1015L967 687H433L373 155H1052L1004 0H159Z" />
<glyph unicode="F" glyph-name="F" horiz-adv-x="1176" d="M159 0L326 1465H1185L1137 1310H504L451 842H1015L967 687H433L355 0H159Z" />
<glyph unicode="G" glyph-name="G" horiz-adv-x="1582" d="M1323 75Q1178 21 1053 1T831 -20Q676 -20 552 25T342 156T209 361T162 632Q162 763 197 877T294 1086T441 1255T628 1380T842 1458T1073 1485Q1146 1485 1241 1473T1443 1427L1391 1255L1369 1245Q1317
1270 1268 1286T1173 1312T1087 1326T1013 1330Q875 1330 758 1278T555 1135T421 926T372 672Q372 565 404 468T500 297T658 179T879 135Q939 135 1010 146T1159 180L1217 686H1393L1323 75Z" />
<glyph unicode="H" glyph-name="H" horiz-adv-x="1616" d="M159 0L326 1465H522L451 842H1239L1310 1465H1506L1339 0H1143L1221 687H433L355 0H159Z" />
<glyph unicode="I" glyph-name="I" horiz-adv-x="632" d="M355 0H159L326 1465H522L355 0Z" />
<glyph unicode="J" glyph-name="J" horiz-adv-x="630" d="M-163 -359Q-61 -298 2 -232T101 -93T155 61T183 232L323 1465H520L387 295Q374 178 346 70T262 -134T116 -313T-110 -461L-163 -359Z" />
<glyph unicode="K" glyph-name="K" horiz-adv-x="1461" d="M355 0H159L326 1465H522L355 0ZM1082 0L532 740L1219 1465H1439L729 765L1332 0H1082Z" />
<glyph unicode="L" glyph-name="L" horiz-adv-x="1100" d="M159 0L326 1465H522L373 155H979L931 0H159Z" />
<glyph unicode="M" glyph-name="M" horiz-adv-x="2006" d="M114 0L392 1465H686L931 442L966 251H986L1062 442L1542 1465H1837L1781 0H1588L1641 1150L1657 1360H1638L1557 1160L1032 30H855L584 1158L547 1360H528L498 1152L289 0H114Z" />
<glyph unicode="N" glyph-name="N" horiz-adv-x="1677" d="M149 0L316 1465H601L1178 465L1257 285H1277L1287 489L1398 1465H1577L1410 0H1244L558 1180L488 1354H468L459 1150L328 0H149Z" />
<glyph unicode="O" glyph-name="O" horiz-adv-x="1762" d="M848 135Q930 135 1005 159T1146 226T1265 329T1357 463T1416 621T1437 796Q1437 913 1403 1011T1305 1180T1155 1290T962 1330Q837 1330 730 1276T544 1131T419 919T374 664Q374 548 408 451T505 283T655
174T848 135ZM800 -20Q665 -20 549 26T347 158T212 363T163 632Q163 755 196 866T289 1071T430 1242T605 1373T804 1456T1014 1485Q1146 1485 1261 1440T1463 1311T1598 1106T1648 834Q1648 712 1615 602T1524 396T1385 224T1211 93T1012 10T800 -20Z" />
<glyph unicode="P" glyph-name="P" horiz-adv-x="1261" d="M355 0H159L326 1465H726Q834 1465 925 1438T1083 1357T1187 1225T1224 1044Q1224 961 1200 889T1133 759T1034 655T912 578T778 531T642 515Q630 515 616 515T582 519L613 669Q631 666 644 666T670 665Q740
665 803 688T915 756T992 867T1021 1021Q1021 1174 930 1242T670 1310H504L355 0Z" />
<glyph unicode="Q" glyph-name="Q" horiz-adv-x="1746" d="M782 -20Q650 -20 537 28T341 161T211 365T164 625Q164 747 197 858T290 1064T430 1237T606 1370T807 1455T1022 1485Q1149 1485 1262 1442T1462 1316T1598 1115T1649 849Q1649 746 1626 652T1562 475T1464
319T1337 189T1190 88T1030 17L1810 -284L1675 -439L782 -20ZM844 135Q969 135 1077 187T1266 330T1392 541T1438 799Q1438 915 1403 1012T1305 1180T1155 1290T965 1330Q838 1330 730 1277T543 1132T419 919T374 664Q374 548 409 451T506 284T655 174T844 135Z"
/>
<glyph unicode="R" glyph-name="R" horiz-adv-x="1325" d="M422 584L355 0H159L326 1465H740Q842 1465 924 1436T1064 1358T1153 1242T1185 1099Q1185 1021 1154 955T1074 834T962 736T838 659L1194 0H959L691 584H422ZM439 739H764Q813 764 853 800T921 880T965
971T981 1069Q981 1121 963 1165T908 1241T816 1291T684 1310H504L439 739Z" />
<glyph unicode="S" glyph-name="S" horiz-adv-x="1249" d="M561 135Q633 135 694 153T801 205T871 282T896 379Q896 434 869 476T796 554T693 619T575 682T457 749T354 830T282 934T254 1068Q254 1159 294 1235T406 1367T575 1454T786 1485Q818 1485 859 1482T948
1473T1046 1455T1151 1427L1098 1253L1077 1243Q1024 1268 975 1285T880 1312T797 1326T728 1330Q665 1330 613 1314T524 1270T466 1200T445 1110Q445 1052 473 1007T546 924T650 854T769 790T888 722T991 644T1065 548T1093 425Q1093 339 1049 259T928 117T744
18T514 -20Q409 -20 305 6T108 77L162 244L183 254Q278 195 374 165T561 135Z" />
<glyph unicode="T" glyph-name="T" horiz-adv-x="1294" d="M676 0H480L629 1310H143L191 1465H1349L1301 1310H825L676 0Z" />
<glyph unicode="U" glyph-name="U" horiz-adv-x="1549" d="M513 1465L409 555Q397 446 424 367T502 236T622 160T761 135Q833 135 900 160T1023 236T1115 362T1164 539L1270 1465H1449L1344 541Q1337 478 1314 413T1253 285T1162 167T1040 70T887 4T705 -20Q582
-20 484 19T321 134T228 318T215 566L317 1465H513Z" />
<glyph unicode="V" glyph-name="V" horiz-adv-x="1461" d="M1296 1465H1496L779 0H563L181 1465H397L651 343L686 139H705L786 343L1296 1465Z" />
<glyph unicode="W" glyph-name="W" horiz-adv-x="2180" d="M1302 1358L1479 343L1504 139H1523L1594 343L2007 1465H2199L1609 0H1381L1204 925L1175 1170H1155L1070 925L682 0H456L197 1465H405L564 343L583 139H602L675 343L1084 1358H1302Z" />
<glyph unicode="X" glyph-name="X" horiz-adv-x="1433" d="M21 0L652 740L234 1465H462L690 1022L761 857H781L896 1020L1244 1465H1444L849 753L1294 0H1067L815 465L741 623H721L605 469L221 0H21Z" />
<glyph unicode="Y" glyph-name="Y" horiz-adv-x="1350" d="M774 642L701 0H505L578 640L187 1465H411L632 937L699 741H719L836 935L1183 1465H1379L774 642Z" />
<glyph unicode="Z" glyph-name="Z" horiz-adv-x="1311" d="M1006 1298L1008 1317L818 1310H236L284 1465H1246L1236 1380L411 293L300 167L298 147L487 155H1160L1112 0H54L63 77L894 1171L1006 1298Z" />
<glyph unicode="[" glyph-name="bracketleft" horiz-adv-x="894" d="M373 1602H887L872 1467H493L300 -223H679L664 -358H150L373 1602Z" />
<glyph unicode="\" glyph-name="backslash" horiz-adv-x="906" d="M712 -308H560L237 1602H389L712 -308Z" />
<glyph unicode="]" glyph-name="bracketright" horiz-adv-x="894" d="M544 -358H30L45 -223H424L617 1467H238L253 1602H767L544 -358Z" />
<glyph unicode="^" glyph-name="asciicircum" horiz-adv-x="1106" d="M729 1465L1003 665H854L641 1290L286 665H137L593 1465H729Z" />
<glyph unicode="_" glyph-name="underscore" horiz-adv-x="1087" d="M978 0L963 -135H-24L-9 0H978Z" />
<glyph unicode="`" glyph-name="grave" horiz-adv-x="826" d="M559 1240L324 1602H544L709 1240H559Z" />
<glyph unicode="a" glyph-name="a" horiz-adv-x="1206" d="M882 878Q827 909 777 918T693 928Q618 928 546 896T417 802T327 652T292 451Q292 393 302 338T336 238T396 167T487 140Q572 140 658 208T826 394L882 878ZM734 1079Q785 1079 845 1069T973 1032L1095
1079L972 0H824L820 236Q769 177 722 130T626 49T527 -2T419 -20Q335 -20 273 16T169 113T107 252T87 413Q87 511 113 598T186 760T294 893T429 993T579 1057T734 1079Z" />
<glyph unicode="b" glyph-name="b" horiz-adv-x="1224" d="M324 182Q351 167 380 157T436 142T487 134T530 132Q613 132 686 165T814 259T900 406T932 598Q932 661 920 719T883 822T818 893T726 920Q640 920 551 852T380 666L324 182ZM296 1602H486L399 839Q445
892 490 936T584 1013T683 1062T793 1080Q878 1080 942 1044T1049 947T1115 806T1137 639Q1137 544 1112 458T1042 299T935 167T799 67T642 3T472 -20Q439 -20 398 -17T310 -5T215 15T119 46L296 1602Z" />
<glyph unicode="c" glyph-name="c" horiz-adv-x="994" d="M849 120Q753 44 666 12T495 -20Q406 -20 331 12T202 104T118 247T87 434Q87 524 110 607T176 762T276 892T405 992T554 1057T719 1080Q749 1080 781 1077T845 1068T906 1053T957 1032L899 869L876 859Q840
888 782 908T661 928Q589 928 523 898T405 810T324 670T293 483Q293 396 315 332T376 225T470 161T589 140Q649 140 717 159T849 221V120Z" />
<glyph unicode="d" glyph-name="d" horiz-adv-x="1221" d="M900 878Q873 893 844 903T788 918T737 926T694 928Q611 928 538 895T410 801T324 654T292 462Q292 399 304 341T341 238T406 167T498 140Q541 140 585 157T673 208T760 288T844 394L900 878ZM982 1602H1172L990
0H842L838 236Q787 177 739 130T641 49T540 -2T430 -20Q346 -20 282 16T174 114T109 254T87 420Q87 516 113 602T184 761T290 894T424 994T574 1058T733 1080Q787 1080 836 1072T920 1054L982 1602Z" />
<glyph unicode="e" glyph-name="e" horiz-adv-x="1081" d="M284 459Q284 391 303 333T360 232T455 165T592 140Q665 140 740 162T889 231V130Q840 87 787 58T682 12T582 -12T493 -20Q405 -20 331 11T202 99T118 238T87 422Q87 514 112 598T180 756T282 889T409
991T552 1057T700 1080Q775 1080 833 1057T930 996T990 908T1011 804Q1011 731 973 668T859 559T671 486T409 459H284ZM650 928Q584 928 526 900T422 823T344 711T296 577H414Q519 577 596 593T726 638T803 703T829 782Q829 810 818 836T783 883T727 915T650 928Z"
/>
<glyph unicode="f" glyph-name="f" horiz-adv-x="851" d="M422 209Q415 152 406 87T384 -46T358 -182T327 -313T293 -434T256 -536H146L310 908H96L124 1016L327 1060L333 1112Q345 1218 386 1311T492 1473T644 1582T837 1622Q879 1622 921 1615T1004 1594L949
1440L928 1430Q896 1448 863 1459T788 1470Q728 1470 683 1445T605 1378T554 1279T528 1158L517 1060H879L822 908H500L422 209Z" />
<glyph unicode="g" glyph-name="g" horiz-adv-x="1221" d="M895 878Q868 893 839 903T783 918T732 926T689 928Q606 928 533 895T405 801T319 654T287 462Q287 399 299 341T336 238T401 167T493 140Q536 140 580 157T668 208T755 288T839 394L895 878ZM986 23Q971
-103 915 -209T772 -392T575 -513T343 -557Q297 -557 255 -551T177 -536T110 -517T57 -497L112 -343L133 -333Q149 -342 176 -354T238 -378T313 -397T396 -405Q472 -405 540 -377T661 -297T748 -173T793 -13L820 223Q773 168 727 123T633 47T534 -2T426 -20Q341
-20 277 16T170 113T104 253T82 420Q82 515 107 601T178 760T285 893T419 993T572 1056T736 1079Q790 1079 854 1069T987 1032L1109 1079L986 23Z" />
<glyph unicode="h" glyph-name="h" horiz-adv-x="1236" d="M892 702Q897 744 892 783T869 853T822 902T749 920Q704 920 656 900T561 843T468 757T379 646L304 0H114L297 1602H487L395 818Q443 873 491 920T589 1003T695 1059T815 1080Q893 1080 948 1050T1036
969T1080 854T1084 720L1002 0H812L892 702Z" />
<glyph unicode="i" glyph-name="i" horiz-adv-x="538" d="M234 1060H424L303 0H113L234 1060ZM356 1290Q309 1290 280 1320T250 1397Q250 1425 261 1450T292 1494T336 1523T388 1534Q410 1534 429 1526T462 1502T484 1467T492 1423Q492 1394 481 1370T450 1328T407
1300T356 1290Z" />
<glyph unicode="j" glyph-name="j" horiz-adv-x="536" d="M-191 -478Q-107 -421 -51 -354T41 -216T95 -71T121 70L234 1060H424L316 108Q305 16 276 -78T192 -261T59 -425T-132 -558L-191 -478ZM355 1290Q308 1290 279 1320T249 1397Q249 1425 260 1450T291 1494T335
1523T387 1534Q409 1534 428 1526T461 1502T483 1467T491 1423Q491 1394 480 1370T449 1328T406 1300T355 1290Z" />
<glyph unicode="k" glyph-name="k" horiz-adv-x="1100" d="M297 1602H487L304 0H114L297 1602ZM773 0L406 566Q549 678 659 805T842 1060H1048Q1000 989 946 922T834 792T717 675T603 574L1002 0H773Z" />
<glyph unicode="l" glyph-name="l" horiz-adv-x="536" d="M297 1602H487L304 0H114L297 1602Z" />
<glyph unicode="m" glyph-name="m" horiz-adv-x="1899" d="M875 702Q880 744 874 783T849 853T803 902T735 920Q694 920 650 900T559 843T467 757T379 646L304 0H114L235 1060H383L385 804Q433 860 481 910T579 998T685 1058T802 1080Q863 1080 910 1059T991 1000T1044
914T1068 808Q1116 864 1164 913T1264 1000T1371 1058T1487 1080Q1559 1080 1612 1050T1697 970T1742 855T1747 720L1665 0H1475L1555 702Q1560 744 1554 783T1531 853T1486 902T1419 920Q1378 920 1333 900T1241 843T1148 757T1059 646V651L985 0H795L875 702Z"
/>
<glyph unicode="n" glyph-name="n" horiz-adv-x="1245" d="M901 702Q906 744 900 783T876 853T828 902T754 920Q709 920 661 900T564 843T468 757T379 646L304 0H114L235 1060H383L385 804Q433 861 483 911T586 998T696 1058T818 1080Q897 1080 953 1050T1043
969T1089 854T1093 720L1011 0H821L901 702Z" />
<glyph unicode="o" glyph-name="o" horiz-adv-x="1213" d="M505 -20Q403 -20 325 15T194 112T114 256T87 432Q87 520 110 602T175 756T275 888T402 990T548 1056T708 1080Q811 1080 889 1044T1019 946T1099 802T1126 626Q1126 537 1103 455T1037 301T937 170T810
69T664 3T505 -20ZM561 132Q631 132 695 166T809 259T888 399T918 573Q918 641 901 705T850 818T766 898T650 928Q580 928 516 894T402 799T323 658T293 485Q293 417 310 353T361 240T445 162T561 132Z" />
<glyph unicode="p" glyph-name="p" horiz-adv-x="1227" d="M327 182Q354 167 383 157T439 142T490 134T533 132Q616 132 689 165T817 259T903 406T935 598Q935 661 923 719T886 822T821 893T729 920Q643 920 554 852T383 666L327 182ZM245 -537H55L237 1060H385L389
824Q440 883 488 930T586 1011T687 1062T797 1080Q881 1080 945 1044T1053 946T1118 806T1140 640Q1140 544 1114 458T1043 299T937 166T803 66T652 2T494 -20Q440 -20 391 -12T307 6L245 -537Z" />
<glyph unicode="q" glyph-name="q" horiz-adv-x="1225" d="M900 878Q873 893 844 903T788 918T737 926T694 928Q611 928 538 895T410 801T324 654T292 462Q292 399 304 341T341 238T406 167T498 140Q541 140 585 157T673 208T760 288T844 394L900 878ZM825 223Q778
172 733 128T639 51T540 -1T428 -20Q345 -20 281 16T174 114T109 254T87 420Q87 516 113 602T184 761T293 894T429 994T584 1057T750 1080Q804 1080 863 1069T991 1032L1113 1079L928 -536H738L825 223Z" />
<glyph unicode="r" glyph-name="r" horiz-adv-x="856" d="M235 1060H383L377 742Q408 793 445 852T529 962T633 1046T760 1080Q788 1080 813 1074T854 1052L814 869Q796 874 779 875T744 877Q676 877 625 853T530 788T449 693T370 578L304 0H114L235 1060Z" />
<glyph unicode="s" glyph-name="s" horiz-adv-x="969" d="M121 218L141 230Q213 184 291 158T440 132Q488 132 527 144T593 176T636 223T652 280Q652 315 632 342T577 390T500 431T412 471T324 516T247 571T193 643T172 737Q172 801 203 863T292 973T429 1050T606
1080Q634 1080 667 1077T737 1068T809 1053T879 1030L821 871L796 857Q770 874 739 887T676 910T612 923T552 928Q506 928 469 917T406 886T365 840T350 784Q350 747 371 720T426 670T504 628T593 588T683 543T761 488T816 416T837 321Q837 253 803 191T710 82T569
8T394 -20Q313 -20 228 0T63 58L121 218Z" />
<glyph unicode="t" glyph-name="t" horiz-adv-x="947" d="M310 908H96L123 1006Q203 1022 253 1046T337 1108T398 1197T459 1323H547L517 1060H901L844 908H500L434 334Q423 236 457 188T580 140Q630 140 677 155T782 203V102Q746 72 706 49T625 11T544 -12T467
-20Q401 -20 355 4T280 72T243 175T241 304L310 908Z" />
<glyph unicode="u" glyph-name="u" horiz-adv-x="1220" d="M345 358Q340 316 346 277T371 207T417 158T485 140Q525 140 570 160T661 217T753 303T841 414L916 1060H1106L985 0H837L835 256Q787 200 739 150T641 62T535 2T418 -20Q345 -20 292 10T205 90T158 205T153
340L235 1060H425L345 358Z" />
<glyph unicode="v" glyph-name="v" horiz-adv-x="1044" d="M127 1060H336L396 326L401 152H421Q505 259 572 368T692 589T782 819T843 1060H1047Q1004 906 946 768T815 499T653 246T460 0H270L127 1060Z" />
<glyph unicode="w" glyph-name="w" horiz-adv-x="1665" d="M833 580Q759 431 665 283T461 0H271L127 1060H336L396 326L401 152H422Q550 321 644 490T802 811L769 1060H973L1033 326L1038 152H1058Q1142 259 1205 368T1316 589T1397 819T1454 1060H1658Q1615 906
1561 768T1439 499T1286 246T1097 0H912L833 580Z" />
<glyph unicode="x" glyph-name="x" horiz-adv-x="1108" d="M4 0Q99 150 214 281T456 543L156 1060H377L507 798L569 653H589Q636 701 675 750T749 849T813 952T872 1060H1080Q982 912 868 783T644 548L971 0H750L601 287L538 431H518Q464 371 422 320T342 218T273
115T208 0H4Z" />
<glyph unicode="y" glyph-name="y" horiz-adv-x="1044" d="M270 0L127 1060H336L396 326L401 152H421Q505 259 572 368T692 589T782 819T843 1060H1047Q1004 906 945 765T811 493T649 240T460 0L-20 -556L-172 -476L295 0H270Z" />
<glyph unicode="z" glyph-name="z" horiz-adv-x="1058" d="M57 76L614 768L726 896L728 916L537 908H174L232 1060H974V984L425 306L301 164L298 144L475 152H909L852 0H57V76Z" />
<glyph unicode="{" glyph-name="braceleft" horiz-adv-x="999" d="M119 683Q170 699 218 719T305 768T369 834T401 923L433 1205Q445 1307 482 1381T576 1505T705 1578T861 1602H993L977 1467H835Q783 1467 738 1453T658 1409T600 1333T570 1220L539 947Q532 889
512 838T457 745T374 672T266 622Q322 604 362 573T428 499T462 406T465 297L434 24Q426 -42 438 -88T479 -165T549 -209T643 -223H785L769 -358H637Q554 -358 487 -334T375 -261T309 -138T300 39L333 321Q339 372 322 409T273 475T197 524T105 561L119 683Z" />
<glyph unicode="|" glyph-name="bar" horiz-adv-x="635" d="M374 1602H509L265 -536H130L374 1602Z" />
<glyph unicode="}" glyph-name="braceright" horiz-adv-x="999" d="M904 561Q853 544 805 524T717 476T653 410T621 321L589 39Q577 -63 540 -137T447 -261T317 -334T162 -358H30L45 -223H187Q239 -223 284 -209T364 -165T422 -89T453 24L484 297Q491 355 511
406T566 499T648 572T757 622Q700 640 660 671T594 745T560 838T558 947L589 1220Q596 1286 584 1332T544 1409T474 1453T380 1467H238L253 1602H385Q467 1602 534 1578T647 1505T713 1382T722 1205L690 923Q684 872 701 835T750 769T826 720T918 683L904 561V561Z"
/>
<glyph unicode="~" glyph-name="asciitilde" horiz-adv-x="1342" d="M907 480Q944 480 979 502T1044 567T1093 675T1121 824H1256Q1250 734 1229 664T1176 542T1105 454T1024 396T940 364T860 354Q805 354 765 379T693 443T634 526T580 609T521 672T449 698Q412
698 377 675T312 609T263 501T237 354H102Q108 442 129 511T181 633T250 721T330 780T411 813T487 824Q547 824 590 799T665 735T724 652T777 569T834 506T907 480Z" />
<glyph unicode="&#xa0;" glyph-name="uni00A0" horiz-adv-x="452" />
<glyph unicode="&#xa1;" glyph-name="exclamdown" horiz-adv-x="653" d="M404 555L328 -405H118L259 555H404ZM357 780Q328 780 304 791T262 820T235 863T225 915Q225 947 238 976T274 1029T327 1066T391 1080Q420 1080 444 1069T486 1039T513 995T523 942Q523
910 510 881T474 830T421 794T357 780Z" />
<glyph unicode="&#xa2;" glyph-name="cent" horiz-adv-x="1208" d="M555 178Q474 190 411 227T304 321T237 453T214 616Q214 732 249 833T347 1016T493 1156T677 1245L718 1607H853L815 1270Q825 1271 834 1271T854 1272Q882 1272 914 1270T977 1261T1038 1247T1089
1226L1030 1060L1007 1050Q989 1065 965 1078T914 1100T856 1114T797 1120Q723 1120 655 1090T535 1002T452 861T420 672Q420 589 443 526T509 420T610 354T739 332Q785 332 851 343T994 390L981 282Q923 240 849 212T690 175L652 -163H517L555 178Z" />
<glyph unicode="&#xa3;" glyph-name="sterling" horiz-adv-x="1340" d="M428 794L451 996Q464 1114 516 1205T645 1359T816 1453T1008 1485Q1036 1485 1068 1483T1132 1474T1192 1460T1243 1439L1184 1273L1161 1263Q1143 1278 1119 1291T1068 1313T1010 1327T951
1333Q827 1333 748 1252T649 1010L624 794H1066L1016 659H609L591 500Q586 455 577 411T549 324T503 241T431 164L428 144L620 152H1098L1042 0H158L167 76Q228 110 267 146T330 220T365 299T382 386L413 659H216L266 794H428Z" />
<glyph unicode="&#xa4;" glyph-name="currency" horiz-adv-x="1474" d="M293 712Q293 811 327 892T422 1042L234 1254L340 1349L528 1136Q594 1181 669 1205T826 1230Q904 1230 971 1207T1091 1140L1324 1349L1408 1254L1175 1045Q1204 997 1220 937T1236 812Q1236
715 1202 634T1107 484L1296 272L1189 177L1000 389Q934 344 859 320T702 295Q623 295 556 318T437 383L207 177L122 272L353 479Q324 526 309 586T293 712ZM439 726Q439 661 460 607T519 513T609 452T726 430Q801 430 867 457T982 534T1060 651T1089 798Q1089
863 1068 917T1009 1011T918 1073T802 1095Q727 1095 661 1067T546 990T468 873T439 726Z" />
<glyph unicode="&#xa5;" glyph-name="yen" horiz-adv-x="1552" d="M973 775H1274L1258 640H296L312 775H615L288 1465H512L733 937L800 741H820L937 935L1284 1465H1480L973 775ZM842 349L802 0H606L646 349H263L278 484H1240L1225 349H842Z" />
<glyph unicode="&#xa6;" glyph-name="brokenbar" horiz-adv-x="635" d="M271 702L374 1602H509L406 702H271ZM368 364L265 -536H130L233 364H368Z" />
<glyph unicode="&#xa7;" glyph-name="section" horiz-adv-x="1350" d="M162 -137L182 -126Q222 -150 273 -170T378 -204T487 -226T588 -234Q652 -234 702 -220T787 -181T840 -120T859 -42Q859 9 831 45T757 110T651 161T531 207T410 256T305 317T230 399T202 511Q202
565 220 611T272 698T351 774T453 843Q390 881 349 939T308 1084Q308 1171 347 1244T457 1371T628 1455T852 1485Q883 1485 921 1483T1000 1475T1085 1460T1172 1437L1117 1272L1093 1260Q1018 1298 939 1315T785 1332Q646 1332 569 1281T492 1138Q492 1086 520
1049T595 984T702 932T824 885T946 836T1052 775T1127 694T1156 583Q1156 526 1136 477T1081 385T1002 307T908 242Q970 204 1010 148T1051 11Q1051 -69 1013 -141T907 -268T742 -355T531 -387Q483 -387 427 -381T313 -365T202 -339T106 -305L162 -137ZM964 524Q964
579 929 617T838 683T713 734T576 785Q545 771 512 751T451 703T405 641T387 567Q387 530 404 501T451 449T520 406T605 370T699 335T794 299Q824 315 854 338T909 390T949 452T964 524Z" />
<glyph unicode="&#xa8;" glyph-name="dieresis" horiz-adv-x="1041" d="M295 1346Q295 1373 305 1396T334 1437T376 1465T426 1476Q473 1476 502 1445T532 1368Q532 1342 522 1319T493 1278T450 1250T399 1240Q376 1240 357 1248T325 1271T303 1304T295 1346ZM699
1346Q699 1373 709 1396T738 1437T780 1465T831 1476Q854 1476 873 1468T907 1445T929 1410T937 1368Q937 1342 926 1319T897 1278T855 1250T804 1240Q781 1240 762 1248T729 1271T707 1304T699 1346Z" />
<glyph unicode="&#xa9;" glyph-name="copyright" horiz-adv-x="1954" d="M217 647Q217 767 247 878T332 1087T467 1264T643 1401T855 1490T1095 1522Q1268 1522 1397 1464T1613 1309T1742 1084T1785 816Q1785 697 1755 586T1670 378T1535 201T1359 64T1147 -25T906
-57Q733 -57 604 0T388 155T260 380T217 647ZM366 666Q366 546 401 440T507 253T687 127T942 80Q1054 80 1149 107T1321 184T1457 301T1556 448T1616 617T1637 799Q1637 920 1602 1027T1495 1214T1315 1340T1061 1387Q949 1387 854 1359T682 1282T546 1165T447
1017T387 848T366 666ZM1249 426Q1181 378 1100 354T944 330Q871 330 809 353T700 420T628 529T601 676Q601 785 645 870T763 1015T928 1106T1115 1137Q1151 1137 1208 1131T1329 1103L1288 960L1278 956Q1225 980 1176 991T1084 1002Q1025 1002 972 982T878 925T813
835T789 715Q789 661 805 618T852 543T927 494T1028 477Q1047 477 1075 479T1134 488T1198 504T1260 530L1249 426Z" />
<glyph unicode="&#xaa;" glyph-name="ordfeminine" horiz-adv-x="1113" d="M707 697Q684 679 651 653T576 602T489 561T392 544Q350 544 311 558T243 600T197 668T179 762Q179 800 188 840T221 920T281 993T374 1053T505 1094T678 1109H755L763 1182Q767 1221
758 1252T726 1305T671 1338T597 1350Q567 1350 532 1343T460 1324T390 1294T329 1256L315 1265L296 1394Q349 1422 397 1440T488 1468T571 1481T645 1485Q805 1485 874 1419T929 1220L879 778Q878 767 878 752T882 722T898 697T931 686Q943 686 963 690T1004 703L993
608Q948 579 905 562T823 544Q788 544 767 558T734 595T716 644T707 697ZM742 1005H676Q563 1005 499 988T404 944T365 884T357 818Q357 755 390 721T478 686Q501 686 526 691T581 711T644 750T720 811L742 1005Z" />
<glyph unicode="&#xab;" glyph-name="guillemotleft" horiz-adv-x="1164" d="M110 604L476 996L582 881L288 574L512 267L380 152L103 544L110 604ZM583 604L949 996L1055 881L761 574L985 267L853 152L576 544L583 604Z" />
<glyph unicode="&#xac;" glyph-name="logicalnot" horiz-adv-x="1453" d="M1281 764L1221 237H1086L1131 629H163L178 764H1281Z" />
<glyph unicode="&#xad;" glyph-name="uni00AD" horiz-adv-x="987" d="M853 659L838 524H151L166 659H853Z" />
<glyph unicode="&#xae;" glyph-name="registered" horiz-adv-x="1954" d="M217 647Q217 767 247 878T332 1087T467 1264T643 1401T855 1490T1095 1522Q1268 1522 1397 1464T1613 1309T1742 1084T1785 816Q1785 697 1755 586T1670 378T1535 201T1359 64T1147 -25T906
-57Q733 -57 604 0T388 155T260 380T217 647ZM366 666Q366 546 401 440T507 253T687 127T942 80Q1054 80 1149 107T1321 184T1457 301T1556 448T1616 617T1637 799Q1637 920 1602 1027T1495 1214T1315 1340T1061 1387Q949 1387 854 1359T682 1282T546 1165T447
1017T387 848T366 666ZM675 329L768 1138H1037Q1106 1138 1159 1123T1248 1081T1304 1017T1323 935Q1323 890 1306 853T1263 786T1210 734T1161 696L1332 329H1134L1018 622H877L843 329H675ZM1065 757Q1105 785 1131 820T1157 898Q1157 945 1120 974T1001 1003H920L892
757H1065Z" />
<glyph unicode="&#xaf;" glyph-name="overscore" horiz-adv-x="940" d="M297 1375H837L822 1240H282L297 1375Z" />
<glyph unicode="&#xb0;" glyph-name="degree" horiz-adv-x="1118" d="M248 1190Q248 1287 284 1366T382 1503T523 1591T690 1622Q764 1622 827 1598T935 1528T1007 1418T1033 1276Q1033 1179 997 1100T899 963T758 875T591 844Q517 844 454 868T345 938T274 1048T248
1190ZM399 1208Q399 1162 414 1121T457 1048T526 998T616 979Q674 979 723 1002T806 1065T860 1154T880 1258Q880 1304 865 1345T822 1418T753 1468T663 1487Q604 1487 556 1464T473 1401T419 1312T399 1208Z" />
<glyph unicode="&#xb1;" glyph-name="plusminus" horiz-adv-x="1397" d="M810 907H1241L1226 772H795L744 329H609L660 772H229L244 907H675L726 1350H861L810 907ZM1153 135L1138 0H141L156 135H1153Z" />
<glyph unicode="&#xb2;" glyph-name="twosuperior" horiz-adv-x="836" d="M86 563Q231 692 328 790T484 967T567 1106T592 1220Q592 1257 579 1282T545 1324T495 1348T436 1356Q410 1356 381 1352T324 1339T268 1321T219 1298L230 1390Q292 1435 370 1460T523
1485Q579 1485 625 1470T704 1426T755 1357T773 1265Q773 1202 746 1134T662 988T515 823T301 632H739L704 514H80L86 563Z" />
<glyph unicode="&#xb3;" glyph-name="threesuperior" horiz-adv-x="798" d="M759 1308Q759 1237 699 1177T525 1061L524 1053Q574 1042 611 1022T674 973T712 912T725 842Q725 791 695 733T594 627T404 546T110 514L123 629Q241 629 322 645T452 689T523 752T545
827Q545 864 526 892T473 938T397 964T305 968L316 1065Q349 1075 394 1089T479 1126T548 1181T577 1257Q577 1284 565 1303T532 1333T485 1350T432 1356Q405 1356 376 1352T317 1339T261 1319T210 1295L220 1386Q280 1431 357 1458T515 1485Q572 1485 617 1471T693
1433T742 1377T759 1308Z" />
<glyph unicode="&#xb4;" glyph-name="acute" horiz-adv-x="822" d="M282 1240L529 1602H745L428 1240H282Z" />
<glyph unicode="&#xb6;" glyph-name="paragraph" horiz-adv-x="1374" d="M666 562Q564 562 480 590T337 670T246 796T213 964Q213 1070 251 1161T367 1320T565 1426T846 1465H1252L1024 -536H888L1098 1310H887L677 -536H541L666 562Z" />
<glyph unicode="&#xb7;" glyph-name="middot" horiz-adv-x="618" d="M295 405Q266 405 242 416T200 445T173 488T163 540Q163 572 176 601T212 654T265 691T329 705Q358 705 382 694T424 664T451 620T461 567Q461 535 448 506T412 455T359 419T295 405Z" />
<glyph unicode="&#xb8;" glyph-name="cedilla" horiz-adv-x="728" d="M437 6Q448 -8 456 -33T465 -93Q465 -167 433 -226T344 -326T213 -390T54 -412L69 -284Q119 -284 163 -274T241 -240T293 -181T313 -93Q313 -61 305 -38T284 6H437Z" />
<glyph unicode="&#xb9;" glyph-name="onesuperior" horiz-adv-x="667" d="M337 514L423 1272H166L176 1357Q239 1357 291 1364T385 1385T462 1419T524 1465H615L507 514H337Z" />
<glyph unicode="&#xba;" glyph-name="ordmasculine" horiz-adv-x="1213" d="M578 544Q487 544 417 576T298 662T225 788T200 941Q200 1051 243 1150T361 1323T535 1441T745 1485Q837 1485 908 1453T1027 1366T1100 1239T1125 1086Q1125 1012 1105 944T1049 815T963
705T852 619T722 564T578 544ZM629 679Q693 679 750 707T850 783T918 897T943 1037Q943 1097 926 1153T877 1253T799 1323T694 1350Q630 1350 573 1322T473 1244T405 1130T380 990Q380 930 397 874T446 775T524 705T629 679Z" />
<glyph unicode="&#xbb;" glyph-name="guillemotright" horiz-adv-x="1164" d="M594 544L227 152L121 267L415 574L191 881L323 996L600 604L594 544ZM1067 544L700 152L594 267L888 574L664 881L796 996L1073 604L1067 544Z" />
<glyph unicode="&#xbc;" glyph-name="onequarter" horiz-adv-x="2008" d="M1357 1465H1514L582 0H425L1357 1465ZM377 516L463 1272H206L216 1357Q279 1357 331 1364T425 1385T502 1419T564 1465H655L547 516H377ZM1086 344L1534 951H1750L1686 386H1843L1803
272H1673L1642 0H1475L1506 272H1078L1086 344ZM1519 386L1554 690L1576 834H1563L1480 701L1247 386H1519Z" />
<glyph unicode="&#xbd;" glyph-name="onehalf" horiz-adv-x="2050" d="M1357 1465H1514L582 0H425L1357 1465ZM377 514L463 1272H206L216 1357Q279 1357 331 1364T425 1385T502 1419T564 1465H655L547 514H377ZM1201 49Q1347 178 1444 276T1599 453T1682 592T1707
706Q1707 743 1694 768T1660 810T1610 834T1551 842Q1525 842 1496 838T1439 825T1383 807T1334 784L1345 876Q1407 921 1485 946T1638 971Q1694 971 1740 956T1819 912T1870 843T1889 751Q1889 688 1862 620T1778 474T1631 309T1417 118H1855L1819 0H1195L1201
49Z" />
<glyph unicode="&#xbe;" glyph-name="threequarters" horiz-adv-x="2081" d="M1430 1465H1587L655 0H498L1430 1465ZM1160 344L1608 951H1824L1759 386H1916L1876 272H1746L1715 0H1548L1579 272H1151L1160 344ZM1592 386L1627 690L1649 834H1636L1553 701L1320
386H1592ZM799 1308Q799 1237 739 1177T565 1061L564 1053Q614 1042 651 1022T714 973T752 912T765 842Q765 791 735 733T634 627T444 546T150 514L163 629Q281 629 362 645T492 689T563 752T585 827Q585 864 566 892T513 938T437 964T345 968L356 1065Q389 1075
434 1089T519 1126T588 1181T617 1257Q617 1284 605 1303T572 1333T525 1350T472 1356Q445 1356 416 1352T357 1339T301 1319T250 1295L260 1386Q320 1431 397 1458T555 1485Q612 1485 657 1471T733 1433T782 1377T799 1308Z" />
<glyph unicode="&#xbf;" glyph-name="questiondown" horiz-adv-x="956" d="M393 -271Q420 -271 455 -266T533 -246T623 -209T722 -150L737 -158L761 -314Q645 -372 541 -398T333 -425Q248 -425 186 -408T82 -358T21 -282T1 -184Q1 -123 21 -74T73 17T148 96T233
169T319 242T393 324T446 422T466 543V555H610Q611 543 611 529T612 501Q612 415 582 350T507 232T409 136T311 52T235 -32T205 -126Q205 -159 219 -186T259 -232T319 -261T393 -271ZM561 780Q532 780 508 791T466 820T439 863T429 915Q429 947 442 976T478 1029T531
1066T595 1080Q624 1080 648 1069T689 1039T716 995T726 942Q726 910 713 881T677 830T624 794T561 780Z" />
<glyph unicode="&#xc0;" glyph-name="Agrave" horiz-adv-x="1457" d="M1019 398H387L205 0H20L732 1465H940L1319 0H1113L1019 398ZM982 551L853 1123L819 1327H799L719 1123L458 551H982ZM796 1602L557 1927H778L947 1602H796Z" />
<glyph unicode="&#xc1;" glyph-name="Aacute" horiz-adv-x="1457" d="M1019 398H387L205 0H20L732 1465H940L1319 0H1113L1019 398ZM982 551L853 1123L819 1327H799L719 1123L458 551H982ZM742 1602L985 1927H1206L893 1602H742Z" />
<glyph unicode="&#xc2;" glyph-name="Acircumflex" horiz-adv-x="1457" d="M1019 398H387L205 0H20L732 1465H940L1319 0H1113L1019 398ZM982 551L853 1123L819 1327H799L719 1123L458 551H982ZM516 1602L782 1927H975L1167 1602H1013L863 1814L665 1602H516Z" />
<glyph unicode="&#xc3;" glyph-name="Atilde" horiz-adv-x="1457" d="M1019 398H387L205 0H20L732 1465H940L1319 0H1113L1019 398ZM982 551L853 1123L819 1327H799L719 1123L458 551H982ZM982 1602Q941 1602 912 1613T859 1642T818 1679T783 1716T748 1744T707
1756Q666 1756 632 1717T589 1602H454Q464 1686 494 1741T565 1830T650 1876T734 1890Q774 1890 803 1879T856 1850T898 1813T933 1776T967 1748T1006 1736Q1053 1736 1086 1776T1128 1890H1263Q1253 1806 1223 1751T1153 1662T1067 1616T982 1602Z" />
<glyph unicode="&#xc4;" glyph-name="Adieresis" horiz-adv-x="1457" d="M1019 398H387L205 0H20L732 1465H940L1319 0H1113L1019 398ZM982 551L853 1123L819 1327H799L719 1123L458 551H982ZM532 1708Q532 1735 542 1758T571 1799T613 1827T663 1838Q710 1838
740 1807T770 1730Q770 1704 759 1681T730 1640T688 1612T637 1602Q614 1602 595 1610T562 1633T540 1666T532 1708ZM936 1708Q936 1735 947 1758T976 1799T1018 1827T1068 1838Q1091 1838 1110 1830T1144 1807T1167 1772T1175 1730Q1175 1704 1164 1681T1135 1640T1093
1612T1042 1602Q1019 1602 1000 1610T966 1633T944 1666T936 1708Z" />
<glyph unicode="&#xc5;" glyph-name="Aring" horiz-adv-x="1457" d="M1019 398H387L205 0H20L732 1465H940L1319 0H1113L1019 398ZM982 551L853 1123L819 1327H799L719 1123L458 551H982ZM737 1700Q737 1672 746 1649T772 1610T809 1584T853 1575Q880 1575 906
1586T954 1617T989 1666T1002 1728Q1002 1756 993 1778T967 1817T930 1843T885 1852Q858 1852 832 1841T784 1810T750 1761T737 1700ZM603 1689Q603 1746 628 1795T696 1882T793 1940T909 1962Q961 1962 1003 1945T1075 1897T1120 1826T1136 1739Q1136 1682 1111
1633T1043 1546T946 1487T830 1465Q777 1465 735 1482T664 1530T619 1601T603 1689Z" />
<glyph unicode="&#xc6;" glyph-name="AE" horiz-adv-x="1916" d="M950 398H384L132 0H-58L900 1465H1828L1780 1310H1149L1143 842H1708L1660 687H1140L1133 155H1745L1697 0H946L950 398ZM950 551L961 1123L978 1327H958L842 1123L481 551H950Z" />
<glyph unicode="&#xc7;" glyph-name="Ccedilla" horiz-adv-x="1443" d="M1282 141Q1240 107 1194 82T1101 39T1006 10T915 -8Q923 -23 928 -44T934 -93Q934 -167 902 -226T813 -326T682 -390T523 -412L538 -284Q588 -284 632 -274T710 -240T762 -181T782 -93Q782
-70 778 -53T767 -20Q635 -19 524 28T333 161T208 364T163 626Q163 760 198 876T294 1087T440 1257T624 1381T834 1458T1057 1485Q1126 1485 1222 1473T1425 1427L1371 1253L1350 1243Q1298 1268 1249 1285T1154 1312T1068 1326T995 1330Q909 1330 829 1306T680
1239T555 1136T458 1003T395 847T373 675Q373 570 404 474T497 303T651 184T867 140Q906 140 955 146T1058 165T1170 199T1282 251V141Z" />
<glyph unicode="&#xc8;" glyph-name="Egrave" horiz-adv-x="1224" d="M159 0L326 1465H1185L1137 1310H504L451 842H1015L967 687H433L373 155H1052L1004 0H159ZM728 1602L489 1927H710L879 1602H728Z" />
<glyph unicode="&#xc9;" glyph-name="Eacute" horiz-adv-x="1224" d="M159 0L326 1465H1185L1137 1310H504L451 842H1015L967 687H433L373 155H1052L1004 0H159ZM624 1602L867 1927H1088L775 1602H624Z" />
<glyph unicode="&#xca;" glyph-name="Ecircumflex" horiz-adv-x="1224" d="M159 0L326 1465H1185L1137 1310H504L451 842H1015L967 687H433L373 155H1052L1004 0H159ZM454 1602L720 1927H913L1105 1602H951L801 1814L603 1602H454Z" />
<glyph unicode="&#xcb;" glyph-name="Edieresis" horiz-adv-x="1224" d="M159 0L326 1465H1185L1137 1310H504L451 842H1015L967 687H433L373 155H1052L1004 0H159ZM450 1708Q450 1735 460 1758T489 1799T531 1827T581 1838Q628 1838 658 1807T688 1730Q688 1704
677 1681T648 1640T606 1612T555 1602Q532 1602 513 1610T480 1633T458 1666T450 1708ZM854 1708Q854 1735 865 1758T894 1799T936 1827T986 1838Q1009 1838 1028 1830T1062 1807T1085 1772T1093 1730Q1093 1704 1082 1681T1053 1640T1011 1612T960 1602Q937 1602
918 1610T884 1633T862 1666T854 1708Z" />
<glyph unicode="&#xcc;" glyph-name="Igrave" horiz-adv-x="632" d="M355 0H159L326 1465H522L355 0ZM385 1602L146 1927H367L536 1602H385Z" />
<glyph unicode="&#xcd;" glyph-name="Iacute" horiz-adv-x="632" d="M355 0H159L326 1465H522L355 0ZM340 1602L583 1927H804L491 1602H340Z" />
<glyph unicode="&#xce;" glyph-name="Icircumflex" horiz-adv-x="632" d="M355 0H159L326 1465H522L355 0ZM116 1602L382 1927H575L767 1602H613L463 1814L265 1602H116Z" />
<glyph unicode="&#xcf;" glyph-name="Idieresis" horiz-adv-x="632" d="M355 0H159L326 1465H522L355 0ZM133 1708Q133 1735 143 1758T172 1799T214 1827T264 1838Q311 1838 341 1807T371 1730Q371 1704 360 1681T331 1640T289 1612T238 1602Q215 1602 196 1610T163
1633T141 1666T133 1708ZM537 1708Q537 1735 548 1758T577 1799T619 1827T669 1838Q692 1838 711 1830T745 1807T768 1772T776 1730Q776 1704 765 1681T736 1640T694 1612T643 1602Q620 1602 601 1610T567 1633T545 1666T537 1708Z" />
<glyph unicode="&#xd0;" glyph-name="Eth" horiz-adv-x="1649" d="M256 800L332 1465H827Q1005 1465 1138 1416T1360 1283T1492 1086T1536 844Q1536 748 1512 648T1437 454T1312 278T1136 133T908 36T628 0H165L241 665H47L62 800H256ZM452 800H835L820 665H437L379
155H682Q789 155 878 179T1039 248T1164 353T1254 486T1308 639T1326 805Q1326 925 1290 1019T1185 1177T1013 1276T777 1310H510L452 800Z" />
<glyph unicode="&#xd1;" glyph-name="Ntilde" horiz-adv-x="1677" d="M149 0L316 1465H601L1178 465L1257 285H1277L1287 489L1398 1465H1577L1410 0H1244L558 1180L488 1354H468L459 1150L328 0H149ZM1118 1602Q1077 1602 1048 1613T995 1642T954 1679T919 1716T884
1744T843 1756Q802 1756 768 1717T725 1602H590Q600 1686 630 1741T701 1830T786 1876T870 1890Q910 1890 939 1879T992 1850T1034 1813T1069 1776T1103 1748T1142 1736Q1189 1736 1222 1776T1264 1890H1399Q1389 1806 1359 1751T1289 1662T1203 1616T1118 1602Z"
/>
<glyph unicode="&#xd2;" glyph-name="Ograve" horiz-adv-x="1762" d="M848 135Q930 135 1005 159T1146 226T1265 329T1357 463T1416 621T1437 796Q1437 913 1403 1011T1305 1180T1155 1290T962 1330Q837 1330 730 1276T544 1131T419 919T374 664Q374 548 408 451T505
283T655 174T848 135ZM800 -20Q665 -20 549 26T347 158T212 363T163 632Q163 755 196 866T289 1071T430 1242T605 1373T804 1456T1014 1485Q1146 1485 1261 1440T1463 1311T1598 1106T1648 834Q1648 712 1615 602T1524 396T1385 224T1211 93T1012 10T800 -20ZM1002
1602L763 1927H984L1153 1602H1002Z" />
<glyph unicode="&#xd3;" glyph-name="Oacute" horiz-adv-x="1762" d="M848 135Q930 135 1005 159T1146 226T1265 329T1357 463T1416 621T1437 796Q1437 913 1403 1011T1305 1180T1155 1290T962 1330Q837 1330 730 1276T544 1131T419 919T374 664Q374 548 408 451T505
283T655 174T848 135ZM800 -20Q665 -20 549 26T347 158T212 363T163 632Q163 755 196 866T289 1071T430 1242T605 1373T804 1456T1014 1485Q1146 1485 1261 1440T1463 1311T1598 1106T1648 834Q1648 712 1615 602T1524 396T1385 224T1211 93T1012 10T800 -20ZM917
1602L1160 1927H1381L1068 1602H917Z" />
<glyph unicode="&#xd4;" glyph-name="Ocircumflex" horiz-adv-x="1762" d="M848 135Q930 135 1005 159T1146 226T1265 329T1357 463T1416 621T1437 796Q1437 913 1403 1011T1305 1180T1155 1290T962 1330Q837 1330 730 1276T544 1131T419 919T374 664Q374 548
408 451T505 283T655 174T848 135ZM800 -20Q665 -20 549 26T347 158T212 363T163 632Q163 755 196 866T289 1071T430 1242T605 1373T804 1456T1014 1485Q1146 1485 1261 1440T1463 1311T1598 1106T1648 834Q1648 712 1615 602T1524 396T1385 224T1211 93T1012 10T800
-20ZM671 1602L937 1927H1130L1322 1602H1168L1018 1814L820 1602H671Z" />
<glyph unicode="&#xd5;" glyph-name="Otilde" horiz-adv-x="1762" d="M848 135Q930 135 1005 159T1146 226T1265 329T1357 463T1416 621T1437 796Q1437 913 1403 1011T1305 1180T1155 1290T962 1330Q837 1330 730 1276T544 1131T419 919T374 664Q374 548 408 451T505
283T655 174T848 135ZM800 -20Q665 -20 549 26T347 158T212 363T163 632Q163 755 196 866T289 1071T430 1242T605 1373T804 1456T1014 1485Q1146 1485 1261 1440T1463 1311T1598 1106T1648 834Q1648 712 1615 602T1524 396T1385 224T1211 93T1012 10T800 -20ZM1150
1602Q1109 1602 1080 1613T1027 1642T986 1679T951 1716T916 1744T875 1756Q834 1756 800 1717T757 1602H622Q632 1686 662 1741T733 1830T818 1876T902 1890Q942 1890 971 1879T1024 1850T1066 1813T1101 1776T1135 1748T1174 1736Q1221 1736 1254 1776T1296 1890H1431Q1421
1806 1391 1751T1321 1662T1235 1616T1150 1602Z" />
<glyph unicode="&#xd6;" glyph-name="Odieresis" horiz-adv-x="1762" d="M848 135Q930 135 1005 159T1146 226T1265 329T1357 463T1416 621T1437 796Q1437 913 1403 1011T1305 1180T1155 1290T962 1330Q837 1330 730 1276T544 1131T419 919T374 664Q374 548 408
451T505 283T655 174T848 135ZM800 -20Q665 -20 549 26T347 158T212 363T163 632Q163 755 196 866T289 1071T430 1242T605 1373T804 1456T1014 1485Q1146 1485 1261 1440T1463 1311T1598 1106T1648 834Q1648 712 1615 602T1524 396T1385 224T1211 93T1012 10T800
-20ZM693 1708Q693 1735 703 1758T732 1799T774 1827T824 1838Q871 1838 901 1807T931 1730Q931 1704 920 1681T891 1640T849 1612T798 1602Q775 1602 756 1610T723 1633T701 1666T693 1708ZM1097 1708Q1097 1735 1108 1758T1137 1799T1179 1827T1229 1838Q1252
1838 1271 1830T1305 1807T1328 1772T1336 1730Q1336 1704 1325 1681T1296 1640T1254 1612T1203 1602Q1180 1602 1161 1610T1127 1633T1105 1666T1097 1708Z" />
<glyph unicode="&#xd7;" glyph-name="multiply" horiz-adv-x="1178" d="M608 681L956 994L1041 899L692 585L970 273L864 177L586 490L237 177L152 272L501 585L223 898L329 994L608 681Z" />
<glyph unicode="&#xd8;" glyph-name="Oslash" horiz-adv-x="1762" d="M1458 1314Q1546 1229 1597 1108T1648 834Q1648 712 1615 602T1524 396T1385 224T1211 93T1012 10T800 -20Q700 -20 612 4T448 77L287 -120H135L355 149Q264 235 214 357T163 632Q163 755 196
866T289 1071T430 1242T605 1373T804 1456T1014 1485Q1112 1485 1201 1460T1365 1387L1527 1585H1679L1458 1314ZM374 664Q374 557 402 467T485 308L1243 1237Q1186 1282 1115 1306T962 1330Q837 1330 730 1276T544 1131T419 919T374 664ZM848 135Q930 135 1005
159T1146 226T1265 329T1357 463T1416 621T1437 796Q1437 903 1409 993T1327 1153L569 225Q626 181 696 158T848 135Z" />
<glyph unicode="&#xd9;" glyph-name="Ugrave" horiz-adv-x="1549" d="M513 1465L409 555Q397 446 424 367T502 236T622 160T761 135Q833 135 900 160T1023 236T1115 362T1164 539L1270 1465H1449L1344 541Q1337 478 1314 413T1253 285T1162 167T1040 70T887 4T705
-20Q582 -20 484 19T321 134T228 318T215 566L317 1465H513ZM876 1602L637 1927H858L1027 1602H876Z" />
<glyph unicode="&#xda;" glyph-name="Uacute" horiz-adv-x="1549" d="M513 1465L409 555Q397 446 424 367T502 236T622 160T761 135Q833 135 900 160T1023 236T1115 362T1164 539L1270 1465H1449L1344 541Q1337 478 1314 413T1253 285T1162 167T1040 70T887 4T705
-20Q582 -20 484 19T321 134T228 318T215 566L317 1465H513ZM747 1602L990 1927H1211L898 1602H747Z" />
<glyph unicode="&#xdb;" glyph-name="Ucircumflex" horiz-adv-x="1549" d="M513 1465L409 555Q397 446 424 367T502 236T622 160T761 135Q833 135 900 160T1023 236T1115 362T1164 539L1270 1465H1449L1344 541Q1337 478 1314 413T1253 285T1162 167T1040 70T887
4T705 -20Q582 -20 484 19T321 134T228 318T215 566L317 1465H513ZM572 1602L838 1927H1031L1223 1602H1069L919 1814L721 1602H572Z" />
<glyph unicode="&#xdc;" glyph-name="Udieresis" horiz-adv-x="1549" d="M513 1465L409 555Q397 446 424 367T502 236T622 160T761 135Q833 135 900 160T1023 236T1115 362T1164 539L1270 1465H1449L1344 541Q1337 478 1314 413T1253 285T1162 167T1040 70T887
4T705 -20Q582 -20 484 19T321 134T228 318T215 566L317 1465H513ZM594 1708Q594 1735 604 1758T633 1799T675 1827T725 1838Q772 1838 802 1807T832 1730Q832 1704 821 1681T792 1640T750 1612T699 1602Q676 1602 657 1610T624 1633T602 1666T594 1708ZM998 1708Q998
1735 1009 1758T1038 1799T1080 1827T1130 1838Q1153 1838 1172 1830T1206 1807T1229 1772T1237 1730Q1237 1704 1226 1681T1197 1640T1155 1612T1104 1602Q1081 1602 1062 1610T1028 1633T1006 1666T998 1708Z" />
<glyph unicode="&#xdd;" glyph-name="Yacute" horiz-adv-x="1350" d="M774 642L701 0H505L578 640L187 1465H411L632 937L699 741H719L836 935L1183 1465H1379L774 642ZM668 1602L911 1927H1132L819 1602H668Z" />
<glyph unicode="&#xde;" glyph-name="Thorn" horiz-adv-x="1264" d="M355 0H159L326 1465H522L493 1208H697Q805 1208 896 1182T1053 1104T1157 978T1194 803Q1194 717 1170 643T1103 509T1004 402T882 323T748 275T612 258Q600 258 586 258T553 262L584 412Q601
409 614 409T640 408Q710 408 774 430T886 498T962 612T991 774Q991 847 967 899T898 986T788 1036T641 1053H475L355 0Z" />
<glyph unicode="&#xdf;" glyph-name="germandbls" horiz-adv-x="1236" d="M951 305Q951 359 926 397T864 466T782 526T701 590T638 673T613 787Q613 853 637 898T697 979T775 1043T854 1104T914 1178T938 1278Q938 1323 923 1358T881 1419T815 1457T730 1470Q666
1470 616 1446T528 1379T469 1280T439 1158L307 0H117L244 1112Q256 1217 301 1309T418 1471T583 1581T785 1622Q871 1622 934 1597T1039 1528T1101 1427T1122 1307Q1122 1234 1098 1181T1038 1088T960 1016T881 953T821 889T797 811Q797 766 822 731T884 665T966
603T1047 535T1110 450T1135 340Q1135 267 1101 202T1006 88T864 9T690 -20Q670 -20 641 -18T579 -11T511 3T444 28L496 173L515 185Q543 172 575 162T640 146T702 136T755 132Q798 132 834 144T896 179T936 234T951 305Z" />
<glyph unicode="&#xe0;" glyph-name="agrave" horiz-adv-x="1206" d="M882 878Q827 909 777 918T693 928Q618 928 546 896T417 802T327 652T292 451Q292 393 302 338T336 238T396 167T487 140Q572 140 658 208T826 394L882 878ZM734 1079Q785 1079 845 1069T973
1032L1095 1079L972 0H824L820 236Q769 177 722 130T626 49T527 -2T419 -20Q335 -20 273 16T169 113T107 252T87 413Q87 511 113 598T186 760T294 893T429 993T579 1057T734 1079ZM680 1240L445 1602H665L830 1240H680Z" />
<glyph unicode="&#xe1;" glyph-name="aacute" horiz-adv-x="1149" d="M599 1240L846 1602H1062L745 1240H599ZM882 878Q827 909 777 918T693 928Q618 928 546 896T417 802T327 652T292 451Q292 393 302 338T336 238T396 167T487 140Q572 140 658 208T826 394L882
878ZM734 1079Q785 1079 845 1069T973 1032L1095 1079L972 0H824L820 236Q769 177 722 130T626 49T527 -2T419 -20Q335 -20 273 16T169 113T107 252T87 413Q87 511 113 598T186 760T294 893T429 993T579 1057T734 1079Z" />
<glyph unicode="&#xe2;" glyph-name="acircumflex" horiz-adv-x="1206" d="M882 878Q827 909 777 918T693 928Q618 928 546 896T417 802T327 652T292 451Q292 393 302 338T336 238T396 167T487 140Q572 140 658 208T826 394L882 878ZM734 1079Q785 1079 845 1069T973
1032L1095 1079L972 0H824L820 236Q769 177 722 130T626 49T527 -2T419 -20Q335 -20 273 16T169 113T107 252T87 413Q87 511 113 598T186 760T294 893T429 993T579 1057T734 1079ZM401 1240L668 1602H861L1046 1240H895L748 1478L547 1240H401Z" />
<glyph unicode="&#xe3;" glyph-name="atilde" horiz-adv-x="1206" d="M882 878Q827 909 777 918T693 928Q618 928 546 896T417 802T327 652T292 451Q292 393 302 338T336 238T396 167T487 140Q572 140 658 208T826 394L882 878ZM734 1079Q785 1079 845 1069T973
1032L1095 1079L972 0H824L820 236Q769 177 722 130T626 49T527 -2T419 -20Q335 -20 273 16T169 113T107 252T87 413Q87 511 113 598T186 760T294 893T429 993T579 1057T734 1079ZM863 1240Q821 1240 791 1254T739 1289T699 1335T666 1381T631 1417T589 1431Q569
1431 550 1420T514 1384T486 1324T468 1240H333Q344 1335 375 1398T447 1498T532 1550T615 1565Q656 1565 686 1551T739 1516T779 1470T813 1424T846 1388T885 1374Q932 1374 966 1421T1011 1565H1146Q1135 1470 1104 1407T1032 1307T946 1255T863 1240Z" />
<glyph unicode="&#xe4;" glyph-name="adieresis" horiz-adv-x="1206" d="M882 878Q827 909 777 918T693 928Q618 928 546 896T417 802T327 652T292 451Q292 393 302 338T336 238T396 167T487 140Q572 140 658 208T826 394L882 878ZM734 1079Q785 1079 845 1069T973
1032L1095 1079L972 0H824L820 236Q769 177 722 130T626 49T527 -2T419 -20Q335 -20 273 16T169 113T107 252T87 413Q87 511 113 598T186 760T294 893T429 993T579 1057T734 1079ZM427 1346Q427 1373 437 1396T466 1437T508 1465T558 1476Q605 1476 634 1445T664
1368Q664 1342 654 1319T625 1278T582 1250T531 1240Q508 1240 489 1248T457 1271T435 1304T427 1346ZM831 1346Q831 1373 841 1396T870 1437T912 1465T963 1476Q986 1476 1005 1468T1039 1445T1061 1410T1069 1368Q1069 1342 1058 1319T1029 1278T987 1250T936
1240Q913 1240 894 1248T861 1271T839 1304T831 1346Z" />
<glyph unicode="&#xe5;" glyph-name="aring" horiz-adv-x="1206" d="M882 878Q827 909 777 918T693 928Q618 928 546 896T417 802T327 652T292 451Q292 393 302 338T336 238T396 167T487 140Q572 140 658 208T826 394L882 878ZM734 1079Q785 1079 845 1069T973
1032L1095 1079L972 0H824L820 236Q769 177 722 130T626 49T527 -2T419 -20Q335 -20 273 16T169 113T107 252T87 413Q87 511 113 598T186 760T294 893T429 993T579 1057T734 1079ZM610 1447Q610 1419 619 1396T645 1357T682 1331T727 1322Q754 1322 780 1333T828
1364T862 1413T875 1475Q875 1503 866 1525T840 1564T803 1590T758 1599Q731 1599 705 1588T657 1557T623 1508T610 1447ZM476 1436Q476 1493 501 1542T569 1629T666 1687T782 1709Q834 1709 876 1692T948 1644T993 1573T1009 1486Q1009 1429 984 1380T916 1293T819
1234T703 1212Q650 1212 608 1229T537 1277T492 1348T476 1436Z" />
<glyph unicode="&#xe6;" glyph-name="ae" horiz-adv-x="1716" d="M1128 -20Q1008 -20 916 35T772 193Q742 166 693 130T584 60T458 3T329 -20Q276 -20 229 -2T146 49T91 129T70 233Q70 274 82 317T121 401T192 478T301 542T452 585T651 601H742L754 726Q758 771
747 808T711 871T647 913T560 928Q524 928 484 920T403 899T325 867T257 827L240 837L207 974Q269 1006 326 1026T433 1059T527 1075T607 1080Q742 1080 822 1033T934 906Q1020 987 1124 1033T1336 1080Q1410 1080 1468 1058T1565 999T1625 912T1646 809Q1646 736
1608 676T1494 573T1306 507T1044 483H919Q920 413 939 351T996 242T1092 168T1230 140Q1300 140 1375 162T1524 231V130Q1475 87 1422 58T1317 12T1217 -12T1128 -20ZM1283 928Q1218 928 1161 904T1057 835T979 731T931 601H1049Q1154 601 1231 614T1361 652T1438
711T1464 787Q1464 815 1453 840T1418 885T1362 916T1283 928ZM436 140Q502 140 582 174T739 280Q722 348 722 422Q722 453 725 483H652Q541 483 469 470T354 431T294 372T277 297Q277 263 287 235T317 185T366 152T436 140Z" />
<glyph unicode="&#xe7;" glyph-name="ccedilla" horiz-adv-x="994" d="M849 120Q792 74 738 45T632 0Q642 -14 649 -37T656 -93Q656 -167 624 -226T535 -326T404 -390T245 -412L260 -284Q310 -284 354 -274T432 -240T484 -181T504 -93Q504 -70 500 -53T489 -20Q401
-19 328 13T201 105T117 248T87 434Q87 524 110 607T176 762T276 892T405 992T554 1057T719 1080Q749 1080 781 1077T845 1068T906 1053T957 1032L899 869L876 859Q840 888 782 908T661 928Q589 928 523 898T405 810T324 670T293 483Q293 396 315 332T376 225T470
161T589 140Q649 140 717 159T849 221V120Z" />
<glyph unicode="&#xe8;" glyph-name="egrave" horiz-adv-x="1081" d="M284 459Q284 391 303 333T360 232T455 165T592 140Q665 140 740 162T889 231V130Q840 87 787 58T682 12T582 -12T493 -20Q405 -20 331 11T202 99T118 238T87 422Q87 514 112 598T180 756T282
889T409 991T552 1057T700 1080Q775 1080 833 1057T930 996T990 908T1011 804Q1011 731 973 668T859 559T671 486T409 459H284ZM650 928Q584 928 526 900T422 823T344 711T296 577H414Q519 577 596 593T726 638T803 703T829 782Q829 810 818 836T783 883T727 915T650
928ZM621 1240L386 1602H606L771 1240H621Z" />
<glyph unicode="&#xe9;" glyph-name="eacute" horiz-adv-x="1081" d="M284 459Q284 391 303 333T360 232T455 165T592 140Q665 140 740 162T889 231V130Q840 87 787 58T682 12T582 -12T493 -20Q405 -20 331 11T202 99T118 238T87 422Q87 514 112 598T180 756T282
889T409 991T552 1057T700 1080Q775 1080 833 1057T930 996T990 908T1011 804Q1011 731 973 668T859 559T671 486T409 459H284ZM650 928Q584 928 526 900T422 823T344 711T296 577H414Q519 577 596 593T726 638T803 703T829 782Q829 810 818 836T783 883T727 915T650
928ZM542 1240L789 1602H1005L688 1240H542Z" />
<glyph unicode="&#xea;" glyph-name="ecircumflex" horiz-adv-x="1081" d="M284 459Q284 391 303 333T360 232T455 165T592 140Q665 140 740 162T889 231V130Q840 87 787 58T682 12T582 -12T493 -20Q405 -20 331 11T202 99T118 238T87 422Q87 514 112 598T180
756T282 889T409 991T552 1057T700 1080Q775 1080 833 1057T930 996T990 908T1011 804Q1011 731 973 668T859 559T671 486T409 459H284ZM650 928Q584 928 526 900T422 823T344 711T296 577H414Q519 577 596 593T726 638T803 703T829 782Q829 810 818 836T783 883T727
915T650 928ZM346 1240L613 1602H806L991 1240H840L693 1478L492 1240H346Z" />
<glyph unicode="&#xeb;" glyph-name="edieresis" horiz-adv-x="1081" d="M284 459Q284 391 303 333T360 232T455 165T592 140Q665 140 740 162T889 231V130Q840 87 787 58T682 12T582 -12T493 -20Q405 -20 331 11T202 99T118 238T87 422Q87 514 112 598T180 756T282
889T409 991T552 1057T700 1080Q775 1080 833 1057T930 996T990 908T1011 804Q1011 731 973 668T859 559T671 486T409 459H284ZM650 928Q584 928 526 900T422 823T344 711T296 577H414Q519 577 596 593T726 638T803 703T829 782Q829 810 818 836T783 883T727 915T650
928ZM362 1346Q362 1373 372 1396T401 1437T443 1465T493 1476Q540 1476 569 1445T599 1368Q599 1342 589 1319T560 1278T517 1250T466 1240Q443 1240 424 1248T392 1271T370 1304T362 1346ZM766 1346Q766 1373 776 1396T805 1437T847 1465T898 1476Q921 1476 940
1468T974 1445T996 1410T1004 1368Q1004 1342 993 1319T964 1278T922 1250T871 1240Q848 1240 829 1248T796 1271T774 1304T766 1346Z" />
<glyph unicode="&#xec;" glyph-name="igrave" horiz-adv-x="544" d="M435 1060H625L504 0H314L435 1060ZM248 1240L13 1602H233L398 1240H248Z" />
<glyph unicode="&#xed;" glyph-name="iacute" horiz-adv-x="544" d="M435 1060H625L504 0H314L435 1060ZM436 1240L683 1602H899L582 1240H436Z" />
<glyph unicode="&#xee;" glyph-name="icircumflex" horiz-adv-x="544" d="M435 1060H625L504 0H314L435 1060ZM-25 1240L242 1602H435L620 1240H469L322 1478L121 1240H-25Z" />
<glyph unicode="&#xef;" glyph-name="idieresis" horiz-adv-x="544" d="M435 1060H625L504 0H314L435 1060ZM-10 1346Q-10 1373 0 1396T29 1437T71 1465T121 1476Q168 1476 197 1445T227 1368Q227 1342 217 1319T188 1278T145 1250T94 1240Q71 1240 52 1248T20
1271T-2 1304T-10 1346ZM394 1346Q394 1373 404 1396T433 1437T475 1465T526 1476Q549 1476 568 1468T602 1445T624 1410T632 1368Q632 1342 621 1319T592 1278T550 1250T499 1240Q476 1240 457 1248T424 1271T402 1304T394 1346Z" />
<glyph unicode="&#xf0;" glyph-name="eth" horiz-adv-x="1284" d="M623 1359Q521 1425 398 1466L482 1602Q573 1571 654 1530T806 1437L1123 1574L1155 1484L890 1370Q963 1307 1019 1230T1113 1068T1171 889T1191 700Q1191 538 1140 405T1002 178T797 32T548
-20Q439 -20 356 16T217 116T133 262T104 440Q104 527 127 608T191 761T289 891T413 992T556 1057T710 1080Q771 1080 815 1066T901 1026L917 1036Q901 1068 879 1103T829 1172T773 1238T714 1294L381 1151L349 1241L623 1359ZM985 667Q985 699 984 737T978 805Q952
830 920 852T851 891T772 918T686 928Q603 928 534 894T415 802T338 665T310 497Q310 426 329 360T385 244T477 163T607 132Q689 132 758 168T877 272T956 439T985 667Z" />
<glyph unicode="&#xf1;" glyph-name="ntilde" horiz-adv-x="1245" d="M901 702Q906 744 900 783T876 853T828 902T754 920Q709 920 661 900T564 843T468 757T379 646L304 0H114L235 1060H383L385 804Q433 861 483 911T586 998T696 1058T818 1080Q897 1080 953
1050T1043 969T1089 854T1093 720L1011 0H821L901 702ZM849 1240Q807 1240 777 1254T725 1289T685 1335T652 1381T617 1417T575 1431Q555 1431 536 1420T500 1384T472 1324T454 1240H319Q330 1335 361 1398T433 1498T518 1550T601 1565Q642 1565 672 1551T725 1516T765
1470T799 1424T832 1388T871 1374Q918 1374 952 1421T997 1565H1132Q1121 1470 1090 1407T1018 1307T932 1255T849 1240Z" />
<glyph unicode="&#xf2;" glyph-name="ograve" horiz-adv-x="1213" d="M505 -20Q403 -20 325 15T194 112T114 256T87 432Q87 520 110 602T175 756T275 888T402 990T548 1056T708 1080Q811 1080 889 1044T1019 946T1099 802T1126 626Q1126 537 1103 455T1037 301T937
170T810 69T664 3T505 -20ZM561 132Q631 132 695 166T809 259T888 399T918 573Q918 641 901 705T850 818T766 898T650 928Q580 928 516 894T402 799T323 658T293 485Q293 417 310 353T361 240T445 162T561 132ZM636 1240L401 1602H621L786 1240H636Z" />
<glyph unicode="&#xf3;" glyph-name="oacute" horiz-adv-x="1213" d="M505 -20Q403 -20 325 15T194 112T114 256T87 432Q87 520 110 602T175 756T275 888T402 990T548 1056T708 1080Q811 1080 889 1044T1019 946T1099 802T1126 626Q1126 537 1103 455T1037 301T937
170T810 69T664 3T505 -20ZM561 132Q631 132 695 166T809 259T888 399T918 573Q918 641 901 705T850 818T766 898T650 928Q580 928 516 894T402 799T323 658T293 485Q293 417 310 353T361 240T445 162T561 132ZM579 1240L826 1602H1042L725 1240H579Z" />
<glyph unicode="&#xf4;" glyph-name="ocircumflex" horiz-adv-x="1213" d="M505 -20Q403 -20 325 15T194 112T114 256T87 432Q87 520 110 602T175 756T275 888T402 990T548 1056T708 1080Q811 1080 889 1044T1019 946T1099 802T1126 626Q1126 537 1103 455T1037
301T937 170T810 69T664 3T505 -20ZM561 132Q631 132 695 166T809 259T888 399T918 573Q918 641 901 705T850 818T766 898T650 928Q580 928 516 894T402 799T323 658T293 485Q293 417 310 353T361 240T445 162T561 132ZM370 1240L637 1602H830L1015 1240H864L717
1478L516 1240H370Z" />
<glyph unicode="&#xf5;" glyph-name="otilde" horiz-adv-x="1213" d="M505 -20Q403 -20 325 15T194 112T114 256T87 432Q87 520 110 602T175 756T275 888T402 990T548 1056T708 1080Q811 1080 889 1044T1019 946T1099 802T1126 626Q1126 537 1103 455T1037 301T937
170T810 69T664 3T505 -20ZM561 132Q631 132 695 166T809 259T888 399T918 573Q918 641 901 705T850 818T766 898T650 928Q580 928 516 894T402 799T323 658T293 485Q293 417 310 353T361 240T445 162T561 132ZM830 1240Q788 1240 758 1254T706 1289T666 1335T633
1381T598 1417T556 1431Q536 1431 517 1420T481 1384T453 1324T435 1240H300Q311 1335 342 1398T414 1498T499 1550T582 1565Q623 1565 653 1551T706 1516T746 1470T780 1424T813 1388T852 1374Q899 1374 933 1421T978 1565H1113Q1102 1470 1071 1407T999 1307T913
1255T830 1240Z" />
<glyph unicode="&#xf6;" glyph-name="odieresis" horiz-adv-x="1213" d="M505 -20Q403 -20 325 15T194 112T114 256T87 432Q87 520 110 602T175 756T275 888T402 990T548 1056T708 1080Q811 1080 889 1044T1019 946T1099 802T1126 626Q1126 537 1103 455T1037
301T937 170T810 69T664 3T505 -20ZM561 132Q631 132 695 166T809 259T888 399T918 573Q918 641 901 705T850 818T766 898T650 928Q580 928 516 894T402 799T323 658T293 485Q293 417 310 353T361 240T445 162T561 132ZM384 1346Q384 1373 394 1396T423 1437T465
1465T515 1476Q562 1476 591 1445T621 1368Q621 1342 611 1319T582 1278T539 1250T488 1240Q465 1240 446 1248T414 1271T392 1304T384 1346ZM788 1346Q788 1373 798 1396T827 1437T869 1465T920 1476Q943 1476 962 1468T996 1445T1018 1410T1026 1368Q1026 1342
1015 1319T986 1278T944 1250T893 1240Q870 1240 851 1248T818 1271T796 1304T788 1346Z" />
<glyph unicode="&#xf7;" glyph-name="divide" horiz-adv-x="1297" d="M1163 659L1148 524H151L166 659H1163ZM689 863Q666 863 647 871T613 895T591 929T583 970Q583 996 593 1020T622 1062T665 1091T716 1102Q739 1102 758 1093T792 1069T813 1034T821 992Q821
967 811 944T782 902T740 874T689 863ZM600 81Q576 81 557 89T523 113T502 147T494 188Q494 214 504 238T533 280T576 309T627 320Q650 320 669 311T703 287T724 252T732 210Q732 185 722 162T693 120T651 92T600 81Z" />
<glyph unicode="&#xf8;" glyph-name="oslash" horiz-adv-x="1284" d="M221 106Q162 167 133 255T103 441Q103 528 126 609T190 761T290 891T419 992T571 1057T740 1080Q808 1080 865 1066T970 1025L1097 1180H1249L1064 953Q1123 891 1152 802T1182 616Q1182 529
1159 448T1095 296T995 167T866 68T714 3T544 -20Q476 -20 420 -6T315 34L189 -120H37L221 106ZM309 497Q309 437 321 379T360 276L847 873Q813 899 772 913T680 928Q600 928 533 894T415 802T337 665T309 497ZM604 132Q683 132 751 165T868 257T946 393T974 561Q974
620 962 678T924 781L438 185Q471 160 512 146T604 132Z" />
<glyph unicode="&#xf9;" glyph-name="ugrave" horiz-adv-x="1220" d="M345 358Q340 316 346 277T371 207T417 158T485 140Q525 140 570 160T661 217T753 303T841 414L916 1060H1106L985 0H837L835 256Q787 200 739 150T641 62T535 2T418 -20Q345 -20 292 10T205
90T158 205T153 340L235 1060H425L345 358ZM662 1240L427 1602H647L812 1240H662Z" />
<glyph unicode="&#xfa;" glyph-name="uacute" horiz-adv-x="1220" d="M345 358Q340 316 346 277T371 207T417 158T485 140Q525 140 570 160T661 217T753 303T841 414L916 1060H1106L985 0H837L835 256Q787 200 739 150T641 62T535 2T418 -20Q345 -20 292 10T205
90T158 205T153 340L235 1060H425L345 358ZM545 1240L792 1602H1008L691 1240H545Z" />
<glyph unicode="&#xfb;" glyph-name="ucircumflex" horiz-adv-x="1220" d="M345 358Q340 316 346 277T371 207T417 158T485 140Q525 140 570 160T661 217T753 303T841 414L916 1060H1106L985 0H837L835 256Q787 200 739 150T641 62T535 2T418 -20Q345 -20 292
10T205 90T158 205T153 340L235 1060H425L345 358ZM377 1240L644 1602H837L1022 1240H871L724 1478L523 1240H377Z" />
<glyph unicode="&#xfc;" glyph-name="udieresis" horiz-adv-x="1220" d="M345 358Q340 316 346 277T371 207T417 158T485 140Q525 140 570 160T661 217T753 303T841 414L916 1060H1106L985 0H837L835 256Q787 200 739 150T641 62T535 2T418 -20Q345 -20 292 10T205
90T158 205T153 340L235 1060H425L345 358ZM388 1346Q388 1373 398 1396T427 1437T469 1465T519 1476Q566 1476 595 1445T625 1368Q625 1342 615 1319T586 1278T543 1250T492 1240Q469 1240 450 1248T418 1271T396 1304T388 1346ZM792 1346Q792 1373 802 1396T831
1437T873 1465T924 1476Q947 1476 966 1468T1000 1445T1022 1410T1030 1368Q1030 1342 1019 1319T990 1278T948 1250T897 1240Q874 1240 855 1248T822 1271T800 1304T792 1346Z" />
<glyph unicode="&#xfd;" glyph-name="yacute" horiz-adv-x="1044" d="M270 0L127 1060H336L396 326L401 152H421Q505 259 572 368T692 589T782 819T843 1060H1047Q1004 906 945 765T811 493T649 240T460 0L-20 -556L-172 -476L295 0H270ZM521 1240L768 1602H984L667
1240H521Z" />
<glyph unicode="&#xfe;" glyph-name="thorn" horiz-adv-x="1227" d="M327 182Q354 167 383 157T439 142T490 134T533 132Q616 132 689 165T817 259T903 406T935 598Q935 661 923 719T886 822T821 893T729 920Q643 920 554 852T383 666L327 182ZM490 1602L403 839Q449
892 494 936T588 1013T687 1062T797 1080Q881 1080 945 1044T1053 946T1118 806T1140 640Q1140 544 1114 458T1043 299T937 166T803 66T652 2T494 -20Q440 -20 391 -12T307 6L245 -537H55L300 1602H490Z" />
<glyph unicode="&#xff;" glyph-name="ydieresis" horiz-adv-x="1044" d="M270 0L127 1060H336L396 326L401 152H421Q505 259 572 368T692 589T782 819T843 1060H1047Q1004 906 945 765T811 493T649 240T460 0L-20 -556L-172 -476L295 0H270ZM324 1346Q324 1373
334 1396T363 1437T405 1465T455 1476Q502 1476 531 1445T561 1368Q561 1342 551 1319T522 1278T479 1250T428 1240Q405 1240 386 1248T354 1271T332 1304T324 1346ZM728 1346Q728 1373 738 1396T767 1437T809 1465T860 1476Q883 1476 902 1468T936 1445T958 1410T966
1368Q966 1342 955 1319T926 1278T884 1250T833 1240Q810 1240 791 1248T758 1271T736 1304T728 1346Z" />
<glyph unicode="&#x2013;" glyph-name="endash" horiz-adv-x="1037" d="M1003 659L988 524H51L66 659H1003Z" />
<glyph unicode="&#x2014;" glyph-name="emdash" horiz-adv-x="2107" d="M2073 659L2058 524H51L66 659H2073Z" />
<glyph unicode="&#x2018;" glyph-name="quoteleft" horiz-adv-x="600" d="M592 1588Q554 1551 519 1510T455 1427T404 1345T372 1270Q382 1259 397 1248T430 1227T467 1210T504 1198Q508 1188 509 1174T511 1148Q511 1121 500 1092T468 1039T417 1000T347 984Q322
984 298 993T255 1021T225 1072T213 1146Q213 1197 231 1254T289 1374T389 1502T535 1632L592 1588Z" />
<glyph unicode="&#x2019;" glyph-name="quoteright" horiz-adv-x="600" d="M186 1008Q224 1045 259 1086T323 1169T374 1251T406 1326Q396 1336 381 1347T348 1369T311 1386T274 1398Q270 1408 269 1422T267 1448Q267 1475 278 1504T310 1557T361 1596T431 1612Q456
1612 480 1603T523 1575T553 1524T565 1450Q565 1399 547 1342T489 1222T389 1094T243 964L186 1008Z" />
<glyph unicode="&#x201a;" glyph-name="quotesinglbase" horiz-adv-x="600" d="M34 -324Q72 -287 107 -246T171 -163T222 -81T254 -6Q244 4 229 15T196 37T159 54T122 66Q118 76 117 90T115 116Q115 143 126 172T158 225T209 264T279 280Q304 280 328 271T371
243T401 192T413 118Q413 67 395 10T337 -110T237 -238T91 -368L34 -324Z" />
<glyph unicode="&#x201c;" glyph-name="quotedblleft" horiz-adv-x="1032" d="M592 1588Q554 1551 519 1510T455 1427T404 1345T372 1270Q382 1259 397 1248T430 1227T467 1210T504 1198Q508 1188 509 1174T511 1148Q511 1121 500 1092T468 1039T417 1000T347
984Q322 984 298 993T255 1021T225 1072T213 1146Q213 1197 231 1254T289 1374T389 1502T535 1632L592 1588ZM1024 1588Q986 1551 951 1510T887 1427T836 1345T804 1270Q814 1259 829 1248T862 1227T899 1210T936 1198Q940 1188 941 1174T943 1148Q943 1121 932
1092T900 1039T849 1000T779 984Q754 984 730 993T687 1021T657 1072T645 1146Q645 1197 663 1254T721 1374T821 1502T967 1632L1024 1588Z" />
<glyph unicode="&#x201d;" glyph-name="quotedblright" horiz-adv-x="1032" d="M186 1008Q224 1045 259 1086T323 1169T374 1251T406 1326Q396 1336 381 1347T348 1369T311 1386T274 1398Q270 1408 269 1422T267 1448Q267 1475 278 1504T310 1557T361 1596T431
1612Q456 1612 480 1603T523 1575T553 1524T565 1450Q565 1399 547 1342T489 1222T389 1094T243 964L186 1008ZM618 1008Q656 1045 691 1086T755 1169T806 1251T838 1326Q828 1336 813 1347T780 1369T743 1386T706 1398Q702 1408 701 1422T699 1448Q699 1475 710
1504T742 1557T793 1596T863 1612Q888 1612 912 1603T955 1575T985 1524T997 1450Q997 1399 979 1342T921 1222T821 1094T675 964L618 1008Z" />
<glyph unicode="&#x201e;" glyph-name="quotedblbase" horiz-adv-x="1032" d="M34 -324Q72 -287 107 -246T171 -163T222 -81T254 -6Q244 4 229 15T196 37T159 54T122 66Q118 76 117 90T115 116Q115 143 126 172T158 225T209 264T279 280Q304 280 328 271T371 243T401
192T413 118Q413 67 395 10T337 -110T237 -238T91 -368L34 -324ZM466 -324Q504 -287 539 -246T603 -163T654 -81T686 -6Q676 4 661 15T628 37T591 54T554 66Q550 76 549 90T547 116Q547 143 558 172T590 225T641 264T711 280Q736 280 760 271T803 243T833 192T845
118Q845 67 827 10T769 -110T669 -238T523 -368L466 -324Z" />
<glyph unicode="&#x2022;" glyph-name="bullet" horiz-adv-x="766" d="M205 556Q205 597 222 633T267 697T332 740T410 756Q445 756 475 743T526 708T560 655T573 590Q573 549 556 513T511 449T446 406T368 390Q333 390 303 403T252 438T218 491T205 556Z" />
<glyph unicode="&#x2039;" glyph-name="guilsinglleft" horiz-adv-x="691" d="M110 604L476 996L582 881L288 574L512 267L380 152L103 544L110 604Z" />
<glyph unicode="&#x203a;" glyph-name="guilsinglright" horiz-adv-x="691" d="M594 544L227 152L121 267L415 574L191 881L323 996L600 604L594 544Z" />
</font>
</defs>
</svg>
