<?xml version="1.0" standalone="no"?>
<!DOCTYPE svg PUBLIC "-//W3C//DTD SVG 1.1//EN" "http://www.w3.org/Graphics/SVG/1.1/DTD/svg11.dtd">
<svg xmlns="http://www.w3.org/2000/svg">
<defs >
<font id="Pridi" horiz-adv-x="572" ><font-face
    font-family="Pridi"
    units-per-em="1000"
    panose-1="0 0 8 0 0 0 0 0 0 0"
    ascent="1100"
    descent="-450"
    alphabetic="0" />
<glyph unicode=" " glyph-name="space" horiz-adv-x="280" />
<glyph unicode="!" glyph-name="exclam" horiz-adv-x="249" d="M28 647H221L214 227H35L28 647ZM25 133H224V0H25V133Z" />
<glyph unicode="&quot;" glyph-name="quotedbl" horiz-adv-x="431" d="M25 721H182L168 497H39L25 721ZM249 721H406L392 497H263L249 721Z" />
<glyph unicode="#" glyph-name="numbersign" horiz-adv-x="750" d="M121 163H25V279H147L172 388H52V505H198L230 647H385L353 505H480L512 647H666L634 505H725V388H608L583 279H698V163H557L521 0H367L403 163H276L240 0H85L121 163ZM429 279L454 388H327L302 279H429Z" />
<glyph unicode="$" glyph-name="dollar" horiz-adv-x="576" d="M196 -6Q96 13 25 72V197H211V120Q244 102 295 102Q332 102 350 116T368 163Q368 185 355 200T318 226T239 262Q165 294 121 322T54 388T30 478Q30 547 75 591T196 651V767H361V657Q418 649 460 627T540
572V460H354V528Q325 545 285 545Q213 545 213 485Q213 460 230 442T269 413T332 385Q422 348 464 325T528 266T551 173Q551 103 502 53T361 -10V-120H196V-6Z" />
<glyph unicode="%" glyph-name="percent" horiz-adv-x="764" d="M137 354T102 374T46 430T25 508Q25 550 45 585T101 641T179 662Q221 662 256 642T312 586T333 508Q333 466 313 431T257 375T179 354Q137 354 102 374ZM483 647H670L293 0H106L483 647ZM197 465T209
477T222 508Q222 526 210 538T179 551Q161 551 149 539T136 508Q136 490 148 478T179 465Q197 465 209 477ZM543 -15T508 5T452 61T431 139Q431 181 451 216T507 272T585 293Q627 293 662 273T718 217T739 139Q739 97 719 62T663 6T585 -15Q543 -15 508 5ZM603
96T615 108T628 139Q628 157 616 169T585 182Q567 182 555 170T542 139Q542 121 554 109T585 96Q603 96 615 108Z" />
<glyph unicode="&amp;" glyph-name="ampersand" horiz-adv-x="718" d="M168 -15T97 34T25 172Q25 235 55 281T146 361Q108 397 90 431T71 500Q71 576 124 619T281 662Q383 662 437 616T491 497V478H307V520Q307 533 300 541T282 549Q270 549 262 538T254 500Q254
478 267 459T296 423T319 399L441 272V392H658V280H628Q614 280 609 275T604 254Q604 213 597 183T572 123L693 0H489L461 28Q425 3 386 -6T288 -15Q168 -15 97 34ZM315 98T334 102T374 118L246 256Q226 238 218 220T209 172Q209 137 232 118T288 98Q315 98 334
102Z" />
<glyph unicode="&apos;" glyph-name="quotesingle" horiz-adv-x="228" d="M25 721H203L189 497H39L25 721Z" />
<glyph unicode="(" glyph-name="parenleft" horiz-adv-x="399" d="M25 74T25 316Q25 558 171 707H374Q207 546 207 316Q207 198 244 104T374 -75H171Q25 74 25 316Z" />
<glyph unicode=")" glyph-name="parenright" horiz-adv-x="399" d="M192 86T192 316Q192 434 155 528T25 707H228Q374 558 374 316Q374 74 228 -75H25Q192 86 192 316Z" />
<glyph unicode="*" glyph-name="asterisk" horiz-adv-x="448" d="M63 449L120 521L25 546L70 671L147 636L145 721H303L299 635L377 670L423 546L327 521L386 449L272 372L224 448L176 371L63 449Z" />
<glyph unicode="+" glyph-name="plus" horiz-adv-x="414" d="M135 252H25V368H135V467H277V368H389V252H277V153H135V252Z" />
<glyph unicode="," glyph-name="comma" horiz-adv-x="258" d="M62 116H233L160 -121H25L62 116Z" />
<glyph unicode="-" glyph-name="hyphen" horiz-adv-x="366" d="M25 358H341V241H25V358Z" />
<glyph unicode="." glyph-name="period" horiz-adv-x="178" d="M25 116H153V0H25V116Z" />
<glyph unicode="/" glyph-name="slash" horiz-adv-x="487" d="M275 676H462L212 0H25L275 676Z" />
<glyph unicode="0" glyph-name="zero" horiz-adv-x="634" d="M163 -16T89 68T15 324Q15 494 89 577T317 660Q471 660 545 577T619 324Q619 153 545 69T317 -16Q163 -16 89 68ZM375 101T405 153T436 324Q436 441 406 492T317 543Q259 543 229 492T198 324Q198 205
228 153T317 101Q375 101 405 153Z" />
<glyph unicode="1" glyph-name="one" horiz-adv-x="441" d="M56 116H108Q149 116 149 156V469L82 428L15 538L188 647H333V156Q333 116 374 116H426V0H56V116Z" />
<glyph unicode="2" glyph-name="two" horiz-adv-x="556" d="M25 66Q25 158 83 226T250 347Q288 365 308 380T338 417T348 473Q348 545 276 545Q259 545 245 544T211 535V468H30V586Q145 662 275 662Q395 662 463 616T531 474Q531 421 511 384T449 315T329 243Q276
215 245 186T213 116H523V0H25V66Z" />
<glyph unicode="3" glyph-name="three" d="M201 -15T134 6T25 70V190H209V121Q244 102 283 102Q327 102 346 122T365 197Q365 237 347 259T293 281H201V395H293Q358 395 358 473Q358 508 339 526T286 545Q252 545 222 536V468H37V585Q84 620 149 641T285 662Q399
662 470 616T541 479Q541 400 462 340Q547 288 547 204Q547 90 482 38T280 -15Q201 -15 134 6Z" />
<glyph unicode="4" glyph-name="four" horiz-adv-x="538" d="M188 116H220Q261 116 261 156V170H5V273L283 647H440V286H533V170H440V156Q440 116 481 116H513V0H188V116ZM276 286V407L186 286H276Z" />
<glyph unicode="5" glyph-name="five" horiz-adv-x="575" d="M126 -15T25 71V190H209V119Q247 102 289 102Q330 102 348 132T367 224Q367 279 341 304T261 330H46V406L66 647H530V530H239L230 448H282Q550 448 550 224Q550 109 485 47T285 -15Q126 -15 25 71Z" />
<glyph unicode="6" glyph-name="six" horiz-adv-x="581" d="M172 -15T99 59T25 284Q25 417 67 502T179 624T330 662Q400 662 445 646T538 593L475 490Q450 511 422 520T352 529Q290 529 256 502T197 414Q234 441 263 451T337 461Q576 461 576 232Q576 112 506
49T298 -15Q172 -15 99 59ZM350 102T372 130T394 232Q394 293 371 322T298 351Q254 351 231 323T208 240Q208 164 231 133T298 102Q350 102 372 130Z" />
<glyph unicode="7" glyph-name="seven" horiz-adv-x="530" d="M322 530H190V465H5V647H525V576L292 0H106L322 530Z" />
<glyph unicode="8" glyph-name="eight" horiz-adv-x="598" d="M167 -16T96 33T25 185Q25 284 103 336Q34 395 34 473Q34 565 106 613T298 662Q418 662 490 614T563 473Q563 434 547 401T493 337Q573 281 573 185Q573 82 502 33T298 -16Q167 -16 96 33ZM308 391Q345
391 363 410T381 473Q381 510 359 527T298 545Q217 545 217 473Q217 430 235 411T290 391H308ZM346 101T368 123T390 196Q390 237 369 259T307 281H291Q250 281 229 259T207 196Q207 147 229 124T298 101Q346 101 368 123Z" />
<glyph unicode="9" glyph-name="nine" horiz-adv-x="601" d="M208 -16T156 -2T59 43L127 156Q153 135 181 126T247 116Q310 116 344 140T405 225Q373 202 340 194T264 186Q145 186 85 246T25 420Q25 538 97 600T303 662Q429 662 502 588T576 363Q576 229 535 145T427
22T278 -16Q208 -16 156 -2ZM351 296T372 324T393 411Q393 487 371 516T303 545Q252 545 230 517T207 415Q207 354 230 325T303 296Q351 296 372 324Z" />
<glyph unicode=":" glyph-name="colon" horiz-adv-x="178" d="M25 501H153V364H25V501ZM25 137H153V0H25V137Z" />
<glyph unicode=";" glyph-name="semicolon" horiz-adv-x="247" d="M60 501H208V364H60V501ZM61 116H222L149 -121H25L61 116Z" />
<glyph unicode="&lt;" glyph-name="less" horiz-adv-x="619" d="M25 288V365L594 623V481L237 327L594 172V30L25 288Z" />
<glyph unicode="=" glyph-name="equal" horiz-adv-x="438" d="M25 448H413V332H25V448ZM25 271H413V154H25V271Z" />
<glyph unicode="&gt;" glyph-name="greater" horiz-adv-x="619" d="M25 172L382 327L25 481V623L594 365V288L25 30V172Z" />
<glyph unicode="?" glyph-name="question" horiz-adv-x="557" d="M150 195Q150 257 178 303T271 387Q311 410 330 430T350 480Q350 545 269 545Q231 545 186 527V464H25V586Q72 621 135 641T275 662Q401 662 466 617T532 480Q532 438 517 409T475 356T398 303Q370
286 357 271T340 237T335 186V168H150V195ZM143 133H342V0H143V133Z" />
<glyph unicode="@" glyph-name="at" horiz-adv-x="866" d="M222 -110T124 -7T25 277Q25 388 78 473T226 605T443 652Q566 652 655 612T793 496T841 314Q841 195 799 132T663 69Q630 69 598 85T558 128Q514 62 397 62Q316 62 277 95T237 186Q237 245 270 280T364
319L473 326V344Q473 376 441 376Q432 376 426 374T413 369V342H262V414Q337 471 443 471Q542 471 588 436T634 329V207Q634 196 637 191T648 185Q666 185 674 216T683 318Q683 419 627 464T443 509Q318 509 251 455T184 277Q184 138 248 82T444 25Q502 25 566
33T682 57V-73Q614 -94 564 -102T442 -110Q222 -110 124 -7ZM445 157T459 169T473 207V228L419 224Q386 222 386 189Q386 174 396 166T421 157Q445 157 459 169Z" />
<glyph unicode="A" glyph-name="A" horiz-adv-x="712" d="M15 116H39Q67 116 77 122T96 150L267 647H448L616 150Q624 128 634 122T673 116H697V0H405V116H443L422 189H292L270 116H308V0H15V116ZM396 280L359 413L319 280H396Z" />
<glyph unicode="B" glyph-name="B" horiz-adv-x="614" d="M15 116H36Q57 116 66 126T76 156V493Q76 530 36 530H15V647H404Q490 647 540 602T590 468Q590 426 566 389T500 328Q549 306 574 273T599 184Q599 98 547 49T410 0H15V116ZM338 383Q366 383 386 401T407
457Q407 491 388 511T337 531H261V383H338ZM344 116Q376 116 396 134T417 192Q417 232 395 248T341 264H261V116H344Z" />
<glyph unicode="C" glyph-name="C" horiz-adv-x="614" d="M252 -15T173 27T55 144T15 318Q15 473 97 567T347 662Q431 662 487 647T591 598V460H406V539Q380 545 347 545Q273 545 235 486T197 318Q197 212 240 157T378 102Q425 102 462 112T538 149L599 51Q543
12 495 -1T368 -15Q252 -15 173 27Z" />
<glyph unicode="D" glyph-name="D" horiz-adv-x="640" d="M15 116H36Q77 116 77 156V493Q77 530 36 530H15V647H339Q482 647 553 564T625 321Q625 230 593 158T497 43T339 0H15V116ZM311 116Q385 116 413 166T442 321Q442 428 414 479T311 531H262V116H311Z" />
<glyph unicode="E" glyph-name="E" horiz-adv-x="548" d="M15 116H36Q77 116 77 156V493Q77 530 36 530H15V647H533V479H365V492Q365 531 324 531H262V381H377V265H262V116H324Q365 116 365 156V168H533V0H15V116Z" />
<glyph unicode="F" glyph-name="F" horiz-adv-x="548" d="M15 116H36Q77 116 77 156V493Q77 530 36 530H15V647H533V479H365V492Q365 531 324 531H262V381H377V265H262V153Q262 116 302 116H323V0H15V116Z" />
<glyph unicode="G" glyph-name="G" horiz-adv-x="640" d="M250 -16T173 26T55 144T15 318Q15 418 52 495T165 617T354 662Q438 662 495 647T599 598V460H414V534Q389 545 354 545Q280 545 239 485T198 318Q198 213 241 157T369 101Q407 101 440 109V248H324V364H625V61Q519
-16 360 -16Q250 -16 173 26Z" />
<glyph unicode="H" glyph-name="H" horiz-adv-x="691" d="M15 116H36Q57 116 66 126T76 156V493Q76 530 36 530H15V647H312V530H301Q261 530 261 493V382H429V490Q429 510 420 520T389 530H378V647H676V530H655Q614 530 614 493V156Q614 116 655 116H676V0H378V116H389Q410
116 419 126T429 156V266H261V156Q261 116 302 116H312V0H15V116Z" />
<glyph unicode="I" glyph-name="I" horiz-adv-x="337" d="M15 116H35Q57 116 66 126T76 156V493Q76 530 35 530H15V647H322V530H302Q261 530 261 493V153Q261 116 302 116H322V0H15V116Z" />
<glyph unicode="J" glyph-name="J" horiz-adv-x="516" d="M138 -16T79 7T-15 74V176H148V122Q158 113 172 107T200 101Q229 101 242 114T255 159V493Q255 530 214 530H193V647H501V530H480Q440 530 440 493V191Q440 94 381 39T212 -16Q138 -16 79 7Z" />
<glyph unicode="K" glyph-name="K" horiz-adv-x="670" d="M15 117H36Q56 117 66 127T77 154V493Q77 530 36 530H15V647H301V530H294Q278 530 270 520T261 493V370L416 540H376V647H648V530H614Q593 530 583 526T563 512L428 367L578 137Q585 126 596 121T625 116H655V0H365V116H417L323
262L261 195V154Q261 138 268 128T292 117H301V0H15V117Z" />
<glyph unicode="L" glyph-name="L" horiz-adv-x="518" d="M15 116H36Q77 116 77 156V493Q77 530 36 530H15V647H323V530H302Q262 530 262 493V116H324Q365 116 365 156V199H533V0H15V116Z" />
<glyph unicode="M" glyph-name="M" horiz-adv-x="773" d="M15 116H36Q77 116 77 156V492Q77 531 36 531H15V647H256L387 347L517 647H758V531H737Q697 531 697 492V156Q697 136 706 126T737 116H758V0H453V116H474Q515 116 515 153V371L440 197H333L258 371V153Q258
116 299 116H320V0H15V116Z" />
<glyph unicode="N" glyph-name="N" horiz-adv-x="698" d="M15 117H36Q76 117 76 154V493Q76 530 36 530H15V647H211L438 293V493Q438 530 397 530H376V647H683V530H662Q621 530 621 493V0H486L260 350V154Q260 137 270 127T301 117H322V0H15V117Z" />
<glyph unicode="O" glyph-name="O" horiz-adv-x="670" d="M173 -15T94 68T15 321Q15 493 92 577T335 662Q501 662 578 578T655 321Q655 152 576 69T335 -15Q173 -15 94 68ZM386 102T415 123T458 192T472 321Q472 405 459 453T416 523T335 545Q284 545 255 524T212
454T198 321Q198 240 211 193T254 124T335 102Q386 102 415 123Z" />
<glyph unicode="P" glyph-name="P" horiz-adv-x="633" d="M15 116H35Q76 116 76 153V493Q76 530 35 530H15V647H374Q489 647 553 594T618 437Q618 333 553 277T373 220H261V153Q261 116 302 116H322V0H15V116ZM348 337Q394 337 414 361T435 437Q435 489 415 509T348
530H261V337H348Z" />
<glyph unicode="Q" glyph-name="Q" horiz-adv-x="670" d="M376 -145T330 -111T267 -12Q139 4 77 86T15 320Q15 491 92 575T335 660Q501 660 578 576T655 320Q655 168 592 86T399 -12Q407 -33 425 -43T465 -53Q487 -53 498 -50T519 -40V-13H643V-78Q617 -110 571
-127T461 -145Q376 -145 330 -111ZM386 101T415 122T458 191T472 320Q472 404 459 452T416 521T335 543Q284 543 255 522T212 452T198 320Q198 239 211 192T254 123T335 101Q386 101 415 122Z" />
<glyph unicode="R" glyph-name="R" horiz-adv-x="642" d="M15 116H36Q77 116 77 153V493Q77 530 36 530H15V647H374Q489 647 554 594T619 437Q619 304 496 244L556 143Q564 128 576 122T611 116H627V0H365V116H397L335 221H262V148Q262 130 268 123T292 116H304V0H15V116ZM348
337Q395 337 415 361T436 437Q436 489 416 509T348 530H262V337H348Z" />
<glyph unicode="S" glyph-name="S" horiz-adv-x="556" d="M120 -15T15 72V197H201V120Q234 102 285 102Q322 102 340 116T358 163Q358 185 345 200T308 226T229 262Q155 294 111 322T44 388T20 478Q20 568 95 615T285 662Q370 662 427 638T530 572V460H344V528Q315
545 275 545Q203 545 203 485Q203 460 220 442T259 413T322 385Q412 348 454 325T518 266T541 173Q541 119 512 77T424 10T285 -15Q120 -15 15 72Z" />
<glyph unicode="T" glyph-name="T" horiz-adv-x="633" d="M163 117H184Q224 117 224 154V528H172Q131 528 131 489V445H5V644H628V445H502V489Q502 528 461 528H409V154Q409 137 419 127T450 117H471V0H163V117Z" />
<glyph unicode="U" glyph-name="U" horiz-adv-x="680" d="M203 -15T135 39T66 190V493Q66 530 25 530H5V647H302V530H292Q271 530 261 521T251 490V184Q251 140 273 121T340 102Q385 102 406 121T428 184V490Q428 510 419 520T388 530H377V647H675V530H654Q613
530 613 493V190Q613 94 545 40T340 -15Q203 -15 135 39Z" />
<glyph unicode="V" glyph-name="V" horiz-adv-x="712" d="M101 483Q91 511 75 521T25 531H15V647H244L358 234L466 647H697V531H688Q654 531 637 521T611 483L448 0H267L101 483Z" />
<glyph unicode="W" glyph-name="W" horiz-adv-x="846" d="M93 480Q86 511 72 520T22 530H15V647H225L291 328L359 538H487L555 328L621 647H831V530H824Q789 530 775 521T753 480L647 0H500L423 218L346 0H199L93 480Z" />
<glyph unicode="X" glyph-name="X" horiz-adv-x="694" d="M15 117H41Q72 117 91 125T127 156L250 322L127 492Q111 514 92 522T41 530H25V647H312V530H282L347 423L411 530H381V647H668V530H652Q620 530 601 522T566 492L442 322L566 156Q583 133 602 125T652
117H679V0H381V116H411L347 220L282 116H312V0H15V117Z" />
<glyph unicode="Y" glyph-name="Y" horiz-adv-x="670" d="M181 116H202Q243 116 243 156V243L111 486Q96 513 82 522T37 532H15V647H304V532H276L337 390L394 532H366V647H655V532H633Q603 532 588 522T558 485L427 242V153Q427 116 468 116H489V0H181V116Z" />
<glyph unicode="Z" glyph-name="Z" d="M15 91L327 531H228Q187 531 187 492V479H19V647H537V557L237 116H348Q389 116 389 156V168H557V0H15V91Z" />
<glyph unicode="[" glyph-name="bracketleft" horiz-adv-x="334" d="M35 750H309V633H220V33H309V-83H35V750Z" />
<glyph unicode="\" glyph-name="backslash" horiz-adv-x="485" d="M25 676H211L460 0H274L25 676Z" />
<glyph unicode="]" glyph-name="bracketright" horiz-adv-x="334" d="M25 33H114V633H25V750H299V-83H25V33Z" />
<glyph unicode="^" glyph-name="asciicircum" horiz-adv-x="642" d="M249 719H392L617 354H427L321 548L214 354H25L249 719Z" />
<glyph unicode="_" glyph-name="underscore" horiz-adv-x="491" d="M25 -31H466V-148H25V-31Z" />
<glyph unicode="`" glyph-name="grave" horiz-adv-x="331" d="M25 702H220L306 499H151L25 702Z" />
<glyph unicode="a" glyph-name="a" horiz-adv-x="530" d="M94 -15T50 21T5 123Q5 198 55 235T206 280L294 286V339Q294 383 248 383Q222 383 203 363V330H49V436Q144 495 258 495Q369 495 425 447T481 319V147Q481 112 513 112H525V0H382L367 67Q329 22 289 4T183
-15Q94 -15 50 21ZM294 97T294 159V193L227 187Q173 183 173 140Q173 120 186 109T225 97Q294 97 294 159Z" />
<glyph unicode="b" glyph-name="b" horiz-adv-x="595" d="M295 -16T254 0T184 59L177 0H57V505Q57 524 49 533T21 543H5V662H219V450Q251 473 285 484T366 495Q472 495 526 427T580 232Q580 113 519 49T356 -16Q295 -16 254 0ZM361 88T378 121T396 234Q396 314
379 348T312 383Q231 383 231 264V211Q231 157 251 123T312 88Q361 88 378 121Z" />
<glyph unicode="c" glyph-name="c" horiz-adv-x="528" d="M213 -15T151 13T52 97T15 233Q15 364 88 429T293 495Q364 495 412 479T507 425V301H354V355Q342 364 328 367T292 371Q249 371 224 337T199 233Q199 168 230 139T329 110Q408 110 456 146L513 52Q463
14 417 0T291 -15Q213 -15 151 13Z" />
<glyph unicode="d" glyph-name="d" horiz-adv-x="586" d="M133 -14T74 47T15 226Q15 356 72 425T242 495Q285 495 315 485T376 452V505Q376 543 335 543H324V662H538V150Q538 128 545 120T573 112H581V0H419L411 61Q377 23 335 5T235 -14Q133 -14 74 47ZM326 90T345
125T365 217V260Q365 321 346 353T283 385Q235 385 217 348T199 229Q199 176 206 147T231 104T283 90Q326 90 345 125Z" />
<glyph unicode="e" glyph-name="e" horiz-adv-x="546" d="M161 -16T88 48T15 237Q15 368 83 431T278 495Q402 495 466 429T531 251V203H200Q200 143 221 118T295 93Q332 93 361 106V146H514V57Q475 21 422 3T292 -16Q161 -16 88 48ZM347 299Q347 340 328 362T274
385Q238 385 219 363T200 299H347Z" />
<glyph unicode="f" glyph-name="f" horiz-adv-x="454" d="M24 118H34Q76 118 76 156V364H5V480H76V501Q76 586 131 631T299 677Q362 677 412 662T497 619V513H354V545Q339 566 309 566Q286 566 275 557T263 525V480H388V364H263V156Q263 137 271 128T301 118H310V0H24V118Z"
/>
<glyph unicode="g" glyph-name="g" horiz-adv-x="585" d="M245 -200T194 -182T101 -127V-50H254V-77Q277 -96 317 -96Q348 -96 362 -78T376 -30V42Q347 20 316 10T241 0Q131 0 73 61T15 248Q15 366 77 430T243 495Q304 495 342 476T410 415L418 480H580V365H570Q551
365 544 355T537 323V5Q537 -89 481 -144T319 -200Q245 -200 194 -182ZM327 106T345 138T364 231V262Q364 319 346 355T283 391Q234 391 217 359T199 248Q199 195 206 165T231 120T283 106Q327 106 345 138Z" />
<glyph unicode="h" glyph-name="h" horiz-adv-x="613" d="M15 118H25Q67 118 67 156V506Q67 524 57 534T25 544H15V662H229V444Q267 475 303 485T388 495Q472 495 510 452T548 325V156Q548 118 589 118H608V0H360V324Q360 355 347 369T308 383Q280 383 267 370T254
324V156Q254 118 287 118H301V0H15V118Z" />
<glyph unicode="i" glyph-name="i" horiz-adv-x="322" d="M67 679H255V544H67V679ZM5 118H26Q48 118 57 128T67 158V323Q67 361 26 361H5V480H255V156Q255 118 296 118H317V0H5V118Z" />
<glyph unicode="j" glyph-name="j" horiz-adv-x="417" d="M194 679H382V544H194V679ZM94 -179T42 -164T-45 -121V-10H103V-52Q123 -68 149 -68Q171 -68 182 -59T194 -28V323Q194 341 184 351T153 361H132V480H382V-3Q382 -88 327 -133T158 -179Q94 -179 42 -164Z" />
<glyph unicode="k" glyph-name="k" horiz-adv-x="589" d="M15 109H36Q53 109 59 116T66 142V522Q66 540 60 547T36 555H15V662H295V555H264Q247 555 241 548T234 522V311L305 372H272V480H562V372H505Q489 372 480 369T463 359L397 305L497 127Q508 109 533 109H584V0H403L282
211L234 172V142Q234 124 240 117T264 109H295V0H15V109Z" />
<glyph unicode="l" glyph-name="l" horiz-adv-x="332" d="M15 118H36Q58 118 67 128T77 158V505Q77 543 36 543H15V662H265V156Q265 118 306 118H327V0H15V118Z" />
<glyph unicode="m" glyph-name="m" horiz-adv-x="878" d="M15 118H26Q67 118 67 156V323Q67 341 57 351T26 361H15V480H177L185 413Q217 454 263 474T368 495Q446 495 499 434Q526 467 562 481T644 495Q733 495 773 452T813 325V156Q813 118 854 118H873V0H631V324Q631
355 618 369T579 383Q551 383 538 370T525 325V156Q525 137 532 128T559 118H574V0H354V324Q354 355 341 369T302 383Q274 383 261 370T248 324V156Q248 118 281 118H295V0H15V118Z" />
<glyph unicode="n" glyph-name="n" horiz-adv-x="613" d="M15 118H25Q67 118 67 156V322Q67 360 28 360H15V480H183L190 416Q255 495 374 495Q464 495 506 452T548 325V156Q548 118 589 118H608V0H360V324Q360 355 347 369T308 383Q280 383 267 370T254 324V156Q254
137 261 128T288 118H301V0H15V118Z" />
<glyph unicode="o" glyph-name="o" horiz-adv-x="558" d="M154 -15T85 50T15 240Q15 366 83 430T280 495Q408 495 475 431T543 240Q543 115 474 50T280 -15Q154 -15 85 50ZM324 104T341 135T359 240Q359 314 342 345T280 376Q235 376 218 346T201 240Q201 166
218 135T280 104Q324 104 341 135Z" />
<glyph unicode="p" glyph-name="p" horiz-adv-x="595" d="M5 -90H15Q36 -90 46 -80T57 -52V322Q57 340 47 350T15 360H5V480H176L185 415Q215 454 256 474T355 495Q457 495 518 431T580 247Q580 121 523 53T358 -16Q311 -16 282 -7T219 26V-52Q219 -90 260 -90H271V-208H5V-90ZM361
93T378 129T396 245Q396 324 379 357T312 391Q272 391 251 356T230 268V213Q230 155 250 124T312 93Q361 93 378 129Z" />
<glyph unicode="q" glyph-name="q" horiz-adv-x="595" d="M376 27Q314 -15 229 -15Q122 -15 69 52T15 247Q15 366 76 430T239 495Q301 495 340 474T410 408L418 480H590V360H579Q559 360 549 350T538 322V-52Q538 -70 548 -80T579 -90H590V-208H376V27ZM364 94T364
213V273Q364 331 346 361T283 391Q234 391 217 358T199 245Q199 165 216 130T283 94Q364 94 364 213Z" />
<glyph unicode="r" glyph-name="r" horiz-adv-x="417" d="M15 118H26Q67 118 67 156V324Q67 342 59 352T29 362H17V480H223L234 432Q251 457 283 468T347 480H412V362H318Q284 362 270 346T255 296V156Q255 137 263 128T292 118H302V0H15V118Z" />
<glyph unicode="s" glyph-name="s" horiz-adv-x="488" d="M171 -15T116 0T15 52V141H181V110Q201 96 231 96Q278 96 278 126Q278 143 267 151T220 175Q202 182 160 201Q111 224 83 241T37 285T19 351Q19 422 77 458T235 495Q302 495 361 478T464 427V344H303V368Q282
383 256 383Q214 383 214 351Q214 336 229 324T273 301T331 278Q407 249 440 217T473 126Q473 -15 244 -15Q171 -15 116 0Z" />
<glyph unicode="t" glyph-name="t" horiz-adv-x="488" d="M186 -15T131 30T76 161V368H5V480H76V574L263 623V480H388V368H263V144Q263 118 274 107T309 96Q337 96 354 113V155H503V54Q415 -15 299 -15Q186 -15 131 30Z" />
<glyph unicode="u" glyph-name="u" horiz-adv-x="603" d="M149 -16T107 27T65 154V324Q65 362 24 362H5V480H253V155Q253 123 266 109T305 95Q333 95 346 109T359 155V324Q359 343 353 352T328 362H312V480H546V157Q546 119 588 119H598V0H430L423 61Q384 19 342
2T239 -16Q149 -16 107 27Z" />
<glyph unicode="v" glyph-name="v" horiz-adv-x="565" d="M80 337Q73 357 61 364T18 371H5V480H205L284 199L362 480H560V371H547Q517 371 505 364T485 337L366 0H200L80 337Z" />
<glyph unicode="w" glyph-name="w" horiz-adv-x="754" d="M76 336Q71 356 60 363T26 371H5V480H200L256 236L316 437H438L498 236L554 480H749V371H728Q707 371 695 364T678 336L597 0H444L377 211L310 0H157L76 336Z" />
<glyph unicode="x" glyph-name="x" horiz-adv-x="563" d="M5 87H24Q47 87 61 93T88 116L183 240L88 365Q76 381 62 387T24 393H12V480H256V393H234L281 324L329 393H306V480H550V393H538Q515 393 501 387T474 365L379 240L474 116Q486 99 500 93T538 87H558V0H306V86H329L281
154L234 86H256V0H5V87Z" />
<glyph unicode="y" glyph-name="y" horiz-adv-x="592" d="M251 -200T194 -181T100 -127V-46H253V-72Q266 -85 281 -90T320 -96Q386 -96 386 -20V25Q360 16 331 11T281 5Q181 5 124 52T66 183V324Q66 342 56 352T24 362H5V480H253V175Q253 114 312 114Q342 114
356 127T370 172V324Q370 344 364 353T337 362H323V480H557V29Q557 -40 529 -91T448 -171T323 -200Q251 -200 194 -181Z" />
<glyph unicode="z" glyph-name="z" horiz-adv-x="513" d="M15 77L260 362H167Q126 362 126 322V310H18V480H488V400L246 118H348Q390 118 390 158V169H498V0H15V77Z" />
<glyph unicode="{" glyph-name="braceleft" horiz-adv-x="347" d="M155 -87T110 -46T65 73V223Q65 278 6 278H5V395H6Q35 395 50 408T65 449V592Q65 669 110 710T244 752H322V636H308Q282 636 266 623T249 581V431Q249 406 235 381T195 334Q221 315 235 290T249
241V84Q249 56 265 43T308 29H322V-87H244Q155 -87 110 -46Z" />
<glyph unicode="|" glyph-name="bar" horiz-adv-x="235" d="M25 767H210V-120H25V767Z" />
<glyph unicode="}" glyph-name="braceright" horiz-adv-x="348" d="M25 33H39Q65 33 81 46T98 88V224Q98 304 153 336Q98 368 98 448V579Q98 607 82 620T39 634H25V750H104Q193 750 237 709T282 590V450Q282 420 293 408T333 396H343V281H333Q304 281 293 269T282
226V77Q282 0 238 -41T104 -83H25V33Z" />
<glyph unicode="~" glyph-name="asciitilde" horiz-adv-x="555" d="M25 405T169 405Q199 405 221 399T275 379Q297 369 313 364T347 359Q390 359 390 405H530Q530 310 496 265T390 220Q353 220 327 227T271 248Q250 257 237 261T209 266Q188 266 177 254T165 220H25Q25
405 169 405Z" />
<glyph unicode="&#xa0;" glyph-name="uni00A0" horiz-adv-x="280" />
<glyph unicode="&#xa1;" glyph-name="exclamdown" horiz-adv-x="249" d="M25 495H224V362H25V495ZM35 268H214L221 -152H28L35 268Z" />
<glyph unicode="&#xa2;" glyph-name="cent" horiz-adv-x="528" d="M195 -3Q112 19 64 79T15 233Q15 336 62 399T195 484V570H360V490Q403 484 437 469T507 425V301H354V355Q342 364 328 367T292 371Q249 371 224 337T199 233Q199 168 230 139T329 110Q408 110
456 146L513 52Q475 22 441 8T360 -12V-90H195V-3Z" />
<glyph unicode="&#xa3;" glyph-name="sterling" horiz-adv-x="525" d="M27 118H56Q79 118 89 127T99 160V325H25V441H99V486Q99 571 154 616T322 662Q385 662 435 647T520 604V498H377V530Q363 551 335 551Q286 551 286 504V441H441V325H286V173Q286 136 267 118H520V0H27V118Z"
/>
<glyph unicode="&#xa4;" glyph-name="currency" horiz-adv-x="646" d="M34 138L122 218Q93 270 93 332Q93 384 115 433L25 516L129 623L220 539Q270 563 323 563Q376 563 426 539L518 623L621 516L531 433Q554 387 554 332Q554 272 524 218L613 138L509 30L411
119Q369 102 323 102Q276 102 234 119L137 30L34 138ZM359 246T384 271T410 332Q410 368 385 393T323 419Q287 419 262 394T237 332Q237 296 262 271T323 246Q359 246 384 271Z" />
<glyph unicode="&#xa5;" glyph-name="yen" horiz-adv-x="670" d="M132 382H167L111 486Q96 513 82 522T37 532H15V647H304V532H276L337 382L394 532H366V647H655V532H633Q603 532 588 522T558 485L502 382H538V282H132V382ZM181 116H202Q242 116 243 153H132V253H538V153H427Q427
116 468 116H489V0H181V116Z" />
<glyph unicode="&#xa6;" glyph-name="brokenbar" horiz-adv-x="234" d="M25 767H209V395H25V767ZM25 251H209V-120H25V251Z" />
<glyph unicode="&#xa7;" glyph-name="section" horiz-adv-x="536" d="M110 -156T5 -69V56H191V-21Q224 -39 275 -39Q312 -39 330 -25T348 22Q348 44 335 59T298 85T219 121Q145 153 101 181T34 247T10 337Q10 394 43 430Q10 469 10 528Q10 618 85 665T275 712Q360
712 417 688T520 622V510H334V578Q305 595 265 595Q193 595 193 535Q193 509 209 492T245 464T312 435Q403 397 444 374T508 316T531 223Q531 169 499 131Q516 112 523 88T531 32Q531 -22 502 -64T414 -131T275 -156Q110 -156 5 -69ZM366 238T346 252T267 293Q256
297 248 302Q216 317 178 333Q178 314 186 303T212 282T277 251Q295 243 322 233T365 217Q366 238 346 252Z" />
<glyph unicode="&#xa8;" glyph-name="dieresis" horiz-adv-x="445" d="M25 648H149V511H25V648ZM295 648H420V511H295V648Z" />
<glyph unicode="&#xa9;" glyph-name="copyright" horiz-adv-x="765" d="M285 -12T203 36T73 166T25 345Q25 442 73 524T203 655T382 703Q479 703 561 655T692 525T740 345Q740 248 692 166T562 36T382 -12Q285 -12 203 36ZM457 88T513 122T599 214T630 345Q630
417 600 476T513 569T382 603Q307 603 251 569T165 476T135 345Q135 273 165 215T251 122T382 88Q457 88 513 122ZM321 114T271 142T192 222T162 338Q162 446 222 508T381 570Q441 570 476 557T552 509V409H428V453Q416 461 406 465T380 469Q347 469 329 435T311
338Q311 279 333 248T407 216Q437 216 466 230T513 266L558 190Q493 114 381 114Q321 114 271 142Z" />
<glyph unicode="&#xaa;" glyph-name="ordfeminine" horiz-adv-x="383" d="M83 335T54 358T25 424Q25 520 154 529L210 533V562Q210 591 181 591Q164 591 152 578V556H53V624Q113 662 187 662Q258 662 294 631T330 549V439Q330 417 350 417H358V345H267L256 381Q232
354 208 345T139 335Q83 335 54 358ZM210 407T210 447V469L167 465Q133 462 133 435Q133 422 141 415T166 407Q210 407 210 447Z" />
<glyph unicode="&#xab;" glyph-name="guillemotleft" horiz-adv-x="660" d="M25 298V355L368 640V458L215 326L368 195V12L25 298ZM292 298V355L635 640V458L482 326L635 195V12L292 298Z" />
<glyph unicode="&#xac;" glyph-name="logicalnot" horiz-adv-x="495" d="M328 250H25V366H470V128H328V250Z" />
<glyph unicode="&#xad;" glyph-name="uni00AD" horiz-adv-x="366" d="M25 358H341V241H25V358Z" />
<glyph unicode="&#xae;" glyph-name="registered" horiz-adv-x="765" d="M285 -12T203 36T73 166T25 345Q25 442 73 524T203 655T382 703Q479 703 561 655T692 525T740 345Q740 248 692 166T562 36T382 -12Q285 -12 203 36ZM457 88T513 122T599 214T630 345Q630
417 600 476T513 569T382 603Q307 603 251 569T165 476T135 345Q135 273 165 215T251 122T382 88Q457 88 513 122ZM207 250H212Q226 250 231 256T237 279V415Q237 432 232 438T212 444H207V530H406Q476 530 516 500T557 417Q557 343 501 316L526 269Q534 257 540
254T556 250H564V166H392V250H410L383 302H354V279Q354 262 358 256T374 250H381V166H207V250ZM401 383Q422 383 422 413Q422 444 401 444H373V383H401Z" />
<glyph unicode="&#xaf;" glyph-name="overscore" horiz-adv-x="423" d="M25 628H398V523H25V628Z" />
<glyph unicode="&#xb0;" glyph-name="degree" horiz-adv-x="330" d="M127 399T95 418T44 469T25 538Q25 576 44 608T95 660T164 679Q202 679 234 660T286 609T305 538Q305 501 286 469T235 418T164 399Q127 399 95 418ZM182 501T192 512T203 539Q203 556 193 566T165
577Q149 577 138 567T127 539Q127 523 138 512T165 501Q182 501 192 512Z" />
<glyph unicode="&#xb1;" glyph-name="plusminus" horiz-adv-x="414" d="M135 272H25V388H135V487H277V388H389V272H277V173H135V272ZM25 128H389V12H25V128Z" />
<glyph unicode="&#xb2;" glyph-name="uni00B2" horiz-adv-x="327" d="M25 376Q25 420 44 445T116 502Q150 522 164 535T178 566Q178 591 153 591Q140 591 132 586V554H25V626Q49 642 89 652T165 662Q227 662 264 639T301 570Q301 535 287 515T231 470Q224 466
207 457T182 439T173 425H302V345H25V376Z" />
<glyph unicode="&#xb3;" glyph-name="uni00B3" horiz-adv-x="338" d="M78 335T25 376V446H129V412Q141 406 160 406Q178 406 186 413T194 436Q194 454 186 461T159 468H126V539H159Q176 539 183 545T191 568Q191 580 185 585T161 591Q147 591 135 586V557H31V625Q51
640 86 651T160 662Q237 662 273 639T309 574Q309 522 271 504Q313 486 313 439Q313 388 280 362T163 335Q78 335 25 376Z" />
<glyph unicode="&#xb4;" glyph-name="acute" horiz-adv-x="332" d="M112 702H307L181 499H25L112 702Z" />
<glyph unicode="&#xb6;" glyph-name="paragraph" horiz-adv-x="711" d="M140 -39H161Q201 -39 201 1V286Q148 286 108 309T47 371T25 456Q25 547 79 597T242 647H686V533H665Q625 533 625 493V1Q625 -39 665 -39H686V-156H440V533H385V-156H140V-39Z" />
<glyph unicode="&#xb7;" glyph-name="middot" horiz-adv-x="178" d="M25 365H153V249H25V365Z" />
<glyph unicode="&#xb8;" glyph-name="cedilla" horiz-adv-x="323" d="M99 -228T75 -224T25 -208V-113Q62 -133 109 -133Q140 -133 140 -114Q140 -95 121 -86T49 -77L60 0H230L224 -36Q298 -52 298 -123Q298 -228 132 -228Q99 -228 75 -224Z" />
<glyph unicode="&#xb9;" glyph-name="uni00B9" horiz-adv-x="262" d="M39 425H69Q89 425 89 444V551L56 531L15 599L108 657H198V444Q198 434 202 430T217 425H247V345H39V425Z" />
<glyph unicode="&#xba;" glyph-name="ordmasculine" horiz-adv-x="389" d="M114 335T70 376T25 498Q25 579 69 620T195 662Q277 662 320 621T364 498Q364 418 320 377T195 335Q114 335 70 376ZM223 411T234 431T246 498Q246 546 235 566T195 586Q166 586 155 566T144
498Q144 451 155 431T195 411Q223 411 234 431Z" />
<glyph unicode="&#xbb;" glyph-name="guillemotright" horiz-adv-x="660" d="M25 195L178 326L25 458V640L368 355V298L25 12V195ZM292 195L445 326L292 458V640L635 355V298L292 12V195Z" />
<glyph unicode="&#xbc;" glyph-name="onequarter" horiz-adv-x="667" d="M49 425H79Q99 425 99 444V551L66 531L25 599L118 657H208V444Q208 434 212 430T227 425H257V345H49V425ZM458 647H625L248 0H81L458 647ZM458 63H471Q491 63 491 82V89H358V151L482 312H598V158H642V89H598V82Q598
63 618 63H631V0H458V63ZM507 158V213L464 158H507Z" />
<glyph unicode="&#xbd;" glyph-name="onehalf" horiz-adv-x="731" d="M49 425H79Q99 425 99 444V551L66 531L25 599L118 657H208V444Q208 434 212 430T227 425H257V345H49V425ZM458 647H625L248 0H81L458 647ZM429 31Q429 75 448 100T520 157Q554 177 568 190T582
221Q582 246 557 246Q544 246 536 241V209H429V281Q453 297 493 307T569 317Q631 317 668 294T705 225Q705 190 691 170T635 125Q628 121 611 112T586 94T577 80H706V0H429V31Z" />
<glyph unicode="&#xbe;" glyph-name="threequarters" horiz-adv-x="680" d="M78 335T25 376V446H129V412Q141 406 160 406Q178 406 186 413T194 436Q194 454 186 461T159 468H126V539H159Q176 539 183 545T191 568Q191 580 185 585T161 591Q147 591 135 586V557H31V625Q51
640 86 651T160 662Q237 662 273 639T309 574Q309 522 271 504Q313 486 313 439Q313 388 280 362T163 335Q78 335 25 376ZM471 647H638L261 0H94L471 647ZM471 63H484Q504 63 504 82V89H371V151L495 312H611V158H655V89H611V82Q611 63 631 63H644V0H471V63ZM520
158V213L477 158H520Z" />
<glyph unicode="&#xbf;" glyph-name="questiondown" horiz-adv-x="557" d="M215 495H414V362H215V495ZM156 -167T91 -122T25 15Q25 57 40 86T82 139T159 192Q187 209 200 224T217 258T222 309V327H407V300Q407 238 379 192T286 108Q246 85 227 65T207 15Q207 -50
288 -50Q326 -50 371 -32V31H532V-91Q485 -126 422 -146T282 -167Q156 -167 91 -122Z" />
<glyph unicode="&#xc0;" glyph-name="Agrave" horiz-adv-x="712" d="M168 879H364L436 697H280L168 879ZM15 116H39Q67 116 77 122T96 150L267 647H448L616 150Q624 128 634 122T673 116H697V0H405V116H443L422 189H292L270 116H308V0H15V116ZM396 280L359 413L319
280H396Z" />
<glyph unicode="&#xc1;" glyph-name="Aacute" horiz-adv-x="712" d="M342 879H538L426 697H271L342 879ZM15 116H39Q67 116 77 122T96 150L267 647H448L616 150Q624 128 634 122T673 116H697V0H405V116H443L422 189H292L270 116H308V0H15V116ZM396 280L359 413L319
280H396Z" />
<glyph unicode="&#xc2;" glyph-name="Acircumflex" horiz-adv-x="712" d="M284 900H438L578 697H415L360 804L303 697H143L284 900ZM15 116H39Q67 116 77 122T96 150L267 647H448L616 150Q624 128 634 122T673 116H697V0H405V116H443L422 189H292L270 116H308V0H15V116ZM396
280L359 413L319 280H396Z" />
<glyph unicode="&#xc3;" glyph-name="Atilde" horiz-adv-x="712" d="M135 792T166 837T269 882Q297 882 317 875T363 854Q366 852 377 847T398 839T417 836Q460 836 460 882H585Q585 785 556 741T455 697Q425 697 404 704T356 725Q340 734 328 738T304 743Q283
743 272 731T260 697H135Q135 792 166 837ZM15 116H39Q67 116 77 122T96 150L267 647H448L616 150Q624 128 634 122T673 116H697V0H405V116H443L422 189H292L270 116H308V0H15V116ZM396 280L359 413L319 280H396Z" />
<glyph unicode="&#xc4;" glyph-name="Adieresis" horiz-adv-x="712" d="M170 854H298V717H170V854ZM420 854H549V717H420V854ZM15 116H39Q67 116 77 122T96 150L267 647H448L616 150Q624 128 634 122T673 116H697V0H405V116H443L422 189H292L270 116H308V0H15V116ZM396
280L359 413L319 280H396Z" />
<glyph unicode="&#xc5;" glyph-name="Aring" horiz-adv-x="712" d="M697 116V0H405V116H443L422 189H292L270 116H308V0H15V116H39Q67 116 77 122T96 150L265 640Q237 673 237 718Q237 769 272 804T359 840Q410 840 445 805T481 718Q481 671 451 638L616 150Q624
128 634 122T673 116H697ZM344 754T334 744T323 718Q323 703 333 693T359 682Q374 682 384 692T395 718Q395 733 385 743T359 754Q344 754 334 744ZM396 280L359 413L319 280H396Z" />
<glyph unicode="&#xc6;" glyph-name="AE" horiz-adv-x="820" d="M15 116H39Q67 116 77 122T96 150L267 647H805V479H637V492Q637 531 596 531H534V381H649V265H534V116H596Q637 116 637 156V168H805V0H359V189H292L270 116H308V0H15V116ZM359 280V434L319 280H359Z" />
<glyph unicode="&#xc7;" glyph-name="Ccedilla" horiz-adv-x="614" d="M497 -52T497 -123Q497 -228 331 -228Q298 -228 274 -224T224 -208V-113Q262 -133 308 -133Q339 -133 339 -114Q339 -95 320 -86T248 -77L258 -4Q139 23 77 108T15 318Q15 473 97 567T347
662Q431 662 487 647T591 598V460H406V539Q380 545 347 545Q273 545 235 486T197 318Q197 212 240 157T378 102Q425 102 462 112T538 149L599 51Q555 20 516 6T427 -13L423 -36Q497 -52 497 -123Z" />
<glyph unicode="&#xc8;" glyph-name="Egrave" horiz-adv-x="548" d="M88 879H284L356 697H200L88 879ZM15 116H36Q77 116 77 156V493Q77 530 36 530H15V647H533V479H365V492Q365 531 324 531H262V381H377V265H262V116H324Q365 116 365 156V168H533V0H15V116Z" />
<glyph unicode="&#xc9;" glyph-name="Eacute" horiz-adv-x="548" d="M247 879H443L331 697H176L247 879ZM15 116H36Q77 116 77 156V493Q77 530 36 530H15V647H533V479H365V492Q365 531 324 531H262V381H377V265H262V116H324Q365 116 365 156V168H533V0H15V116Z" />
<glyph unicode="&#xca;" glyph-name="Ecircumflex" horiz-adv-x="548" d="M176 900H330L470 697H307L252 804L195 697H35L176 900ZM15 116H36Q77 116 77 156V493Q77 530 36 530H15V647H533V479H365V492Q365 531 324 531H262V381H377V265H262V116H324Q365 116 365
156V168H533V0H15V116Z" />
<glyph unicode="&#xcb;" glyph-name="Edieresis" horiz-adv-x="548" d="M65 854H193V717H65V854ZM315 854H444V717H315V854ZM15 116H36Q77 116 77 156V493Q77 530 36 530H15V647H533V479H365V492Q365 531 324 531H262V381H377V265H262V116H324Q365 116 365 156V168H533V0H15V116Z"
/>
<glyph unicode="&#xcc;" glyph-name="Igrave" horiz-adv-x="337" d="M-15 878H181L253 696H97L-15 878ZM15 116H35Q57 116 66 126T76 156V493Q76 530 35 530H15V647H322V530H302Q261 530 261 493V153Q261 116 302 116H322V0H15V116Z" />
<glyph unicode="&#xcd;" glyph-name="Iacute" horiz-adv-x="337" d="M161 879H357L245 697H90L161 879ZM15 116H35Q57 116 66 126T76 156V493Q76 530 35 530H15V647H322V530H302Q261 530 261 493V153Q261 116 302 116H322V0H15V116Z" />
<glyph unicode="&#xce;" glyph-name="Icircumflex" horiz-adv-x="337" d="M93 900H247L387 697H224L169 804L112 697H-48L93 900ZM15 116H35Q57 116 66 126T76 156V493Q76 530 35 530H15V647H322V530H302Q261 530 261 493V153Q261 116 302 116H322V0H15V116Z" />
<glyph unicode="&#xcf;" glyph-name="Idieresis" horiz-adv-x="337" d="M-21 854H107V717H-21V854ZM229 854H358V717H229V854ZM15 116H35Q57 116 66 126T76 156V493Q76 530 35 530H15V647H322V530H302Q261 530 261 493V153Q261 116 302 116H322V0H15V116Z" />
<glyph unicode="&#xd0;" glyph-name="Eth" horiz-adv-x="640" d="M15 116H36Q77 116 77 156V263H15V380H77V493Q77 530 36 530H15V647H339Q482 647 553 564T625 321Q625 230 593 158T497 43T339 0H15V116ZM311 116Q385 116 413 166T442 321Q442 428 414 479T311
531H262V380H365V263H262V116H311Z" />
<glyph unicode="&#xd1;" glyph-name="Ntilde" horiz-adv-x="698" d="M111 792T142 837T245 882Q273 882 293 875T339 854Q342 852 353 847T374 839T393 836Q436 836 436 882H561Q561 785 532 741T431 697Q401 697 380 704T332 725Q316 734 304 738T280 743Q259
743 248 731T236 697H111Q111 792 142 837ZM15 117H36Q76 117 76 154V493Q76 530 36 530H15V647H211L438 293V493Q438 530 397 530H376V647H683V530H662Q621 530 621 493V0H486L260 350V154Q260 137 270 127T301 117H322V0H15V117Z" />
<glyph unicode="&#xd2;" glyph-name="Ograve" horiz-adv-x="670" d="M155 879H351L423 697H267L155 879ZM173 -15T94 68T15 321Q15 493 92 577T335 662Q501 662 578 578T655 321Q655 152 576 69T335 -15Q173 -15 94 68ZM386 102T415 123T458 192T472 321Q472 405
459 453T416 523T335 545Q284 545 255 524T212 454T198 321Q198 240 211 193T254 124T335 102Q386 102 415 123Z" />
<glyph unicode="&#xd3;" glyph-name="Oacute" horiz-adv-x="670" d="M320 879H516L404 697H249L320 879ZM173 -15T94 68T15 321Q15 493 92 577T335 662Q501 662 578 578T655 321Q655 152 576 69T335 -15Q173 -15 94 68ZM386 102T415 123T458 192T472 321Q472 405
459 453T416 523T335 545Q284 545 255 524T212 454T198 321Q198 240 211 193T254 124T335 102Q386 102 415 123Z" />
<glyph unicode="&#xd4;" glyph-name="Ocircumflex" horiz-adv-x="670" d="M259 900H413L553 697H390L335 804L278 697H118L259 900ZM173 -15T94 68T15 321Q15 493 92 577T335 662Q501 662 578 578T655 321Q655 152 576 69T335 -15Q173 -15 94 68ZM386 102T415
123T458 192T472 321Q472 405 459 453T416 523T335 545Q284 545 255 524T212 454T198 321Q198 240 211 193T254 124T335 102Q386 102 415 123Z" />
<glyph unicode="&#xd5;" glyph-name="Otilde" horiz-adv-x="670" d="M110 792T141 837T244 882Q272 882 292 875T338 854Q341 852 352 847T373 839T392 836Q435 836 435 882H560Q560 785 531 741T430 697Q400 697 379 704T331 725Q315 734 303 738T279 743Q258
743 247 731T235 697H110Q110 792 141 837ZM173 -15T94 68T15 321Q15 493 92 577T335 662Q501 662 578 578T655 321Q655 152 576 69T335 -15Q173 -15 94 68ZM386 102T415 123T458 192T472 321Q472 405 459 453T416 523T335 545Q284 545 255 524T212 454T198 321Q198
240 211 193T254 124T335 102Q386 102 415 123Z" />
<glyph unicode="&#xd6;" glyph-name="Odieresis" horiz-adv-x="670" d="M145 854H273V717H145V854ZM395 854H524V717H395V854ZM173 -15T94 68T15 321Q15 493 92 577T335 662Q501 662 578 578T655 321Q655 152 576 69T335 -15Q173 -15 94 68ZM386 102T415 123T458
192T472 321Q472 405 459 453T416 523T335 545Q284 545 255 524T212 454T198 321Q198 240 211 193T254 124T335 102Q386 102 415 123Z" />
<glyph unicode="&#xd7;" glyph-name="multiply" horiz-adv-x="392" d="M25 231L104 310L25 390L117 480L196 401L275 480L367 390L287 310L367 231L275 139L196 218L117 139L25 231Z" />
<glyph unicode="&#xd8;" glyph-name="Oslash" horiz-adv-x="670" d="M181 10Q97 44 56 121T15 321Q15 493 92 577T335 662Q375 662 420 655L433 689H490L473 643Q566 612 610 532T655 321Q655 152 576 69T335 -15Q276 -15 233 -5L219 -43H161L181 10ZM378 540Q356
545 335 545Q284 545 255 524T212 454T198 321Q198 256 205 214T231 147L378 540ZM386 102T415 123T458 192T472 321Q472 397 461 444T425 515L276 111Q302 102 335 102Q386 102 415 123Z" />
<glyph unicode="&#xd9;" glyph-name="Ugrave" horiz-adv-x="680" d="M134 879H330L402 697H246L134 879ZM203 -15T135 39T66 190V493Q66 530 25 530H5V647H302V530H292Q271 530 261 521T251 490V184Q251 140 273 121T340 102Q385 102 406 121T428 184V490Q428
510 419 520T388 530H377V647H675V530H654Q613 530 613 493V190Q613 94 545 40T340 -15Q203 -15 135 39Z" />
<glyph unicode="&#xda;" glyph-name="Uacute" horiz-adv-x="680" d="M322 879H518L406 697H251L322 879ZM203 -15T135 39T66 190V493Q66 530 25 530H5V647H302V530H292Q271 530 261 521T251 490V184Q251 140 273 121T340 102Q385 102 406 121T428 184V490Q428
510 419 520T388 530H377V647H675V530H654Q613 530 613 493V190Q613 94 545 40T340 -15Q203 -15 135 39Z" />
<glyph unicode="&#xdb;" glyph-name="Ucircumflex" horiz-adv-x="680" d="M263 900H417L557 697H394L339 804L282 697H122L263 900ZM203 -15T135 39T66 190V493Q66 530 25 530H5V647H302V530H292Q271 530 261 521T251 490V184Q251 140 273 121T340 102Q385 102
406 121T428 184V490Q428 510 419 520T388 530H377V647H675V530H654Q613 530 613 493V190Q613 94 545 40T340 -15Q203 -15 135 39Z" />
<glyph unicode="&#xdc;" glyph-name="Udieresis" horiz-adv-x="680" d="M151 854H279V717H151V854ZM401 854H530V717H401V854ZM203 -15T135 39T66 190V493Q66 530 25 530H5V647H302V530H292Q271 530 261 521T251 490V184Q251 140 273 121T340 102Q385 102 406
121T428 184V490Q428 510 419 520T388 530H377V647H675V530H654Q613 530 613 493V190Q613 94 545 40T340 -15Q203 -15 135 39Z" />
<glyph unicode="&#xdd;" glyph-name="Yacute" horiz-adv-x="670" d="M312 879H508L396 697H241L312 879ZM181 116H202Q243 116 243 156V243L111 486Q96 513 82 522T37 532H15V647H304V532H276L337 390L394 532H366V647H655V532H633Q603 532 588 522T558 485L427
242V153Q427 116 468 116H489V0H181V116Z" />
<glyph unicode="&#xde;" glyph-name="Thorn" horiz-adv-x="633" d="M15 116H35Q76 116 76 153V494Q76 531 35 531H15V647H261V577H374Q489 577 553 524T618 367Q618 263 553 207T373 150H261Q261 133 270 125T302 116H322V0H15V116ZM348 267Q394 267 414 291T435
367Q435 419 415 439T348 460H261V267H348Z" />
<glyph unicode="&#xdf;" glyph-name="germandbls" horiz-adv-x="656" d="M384 -15T350 -7T292 18L349 112Q372 95 402 95Q428 95 443 119T458 195Q458 244 436 267T361 290H312V399H358Q405 399 424 423T444 502Q444 552 421 573T354 595Q315 595 288 575T261
510V0H15V116H36Q77 116 77 156V495Q77 594 146 653T350 712Q491 712 559 656T627 502Q627 450 609 408T553 346Q601 321 621 284T641 194Q641 97 586 41T418 -15Q384 -15 350 -7Z" />
<glyph unicode="&#xe0;" glyph-name="agrave" horiz-adv-x="530" d="M78 702H274L346 520H190L78 702ZM94 -15T50 21T5 123Q5 198 55 235T206 280L294 286V339Q294 383 248 383Q222 383 203 363V330H49V436Q144 495 258 495Q369 495 425 447T481 319V147Q481 112
513 112H525V0H382L367 67Q329 22 289 4T183 -15Q94 -15 50 21ZM294 97T294 159V193L227 187Q173 183 173 140Q173 120 186 109T225 97Q294 97 294 159Z" />
<glyph unicode="&#xe1;" glyph-name="aacute" horiz-adv-x="530" d="M236 702H432L320 520H165L236 702ZM94 -15T50 21T5 123Q5 198 55 235T206 280L294 286V339Q294 383 248 383Q222 383 203 363V330H49V436Q144 495 258 495Q369 495 425 447T481 319V147Q481
112 513 112H525V0H382L367 67Q329 22 289 4T183 -15Q94 -15 50 21ZM294 97T294 159V193L227 187Q173 183 173 140Q173 120 186 109T225 97Q294 97 294 159Z" />
<glyph unicode="&#xe2;" glyph-name="acircumflex" horiz-adv-x="530" d="M173 723H327L467 520H304L249 627L192 520H32L173 723ZM94 -15T50 21T5 123Q5 198 55 235T206 280L294 286V339Q294 383 248 383Q222 383 203 363V330H49V436Q144 495 258 495Q369 495
425 447T481 319V147Q481 112 513 112H525V0H382L367 67Q329 22 289 4T183 -15Q94 -15 50 21ZM294 97T294 159V193L227 187Q173 183 173 140Q173 120 186 109T225 97Q294 97 294 159Z" />
<glyph unicode="&#xe3;" glyph-name="atilde" horiz-adv-x="530" d="M46 615T77 660T180 705Q208 705 228 698T274 677Q277 675 288 670T309 662T328 659Q371 659 371 705H496Q496 608 467 564T366 520Q336 520 315 527T267 548Q251 557 239 561T215 566Q194 566
183 554T171 520H46Q46 615 77 660ZM94 -15T50 21T5 123Q5 198 55 235T206 280L294 286V339Q294 383 248 383Q222 383 203 363V330H49V436Q144 495 258 495Q369 495 425 447T481 319V147Q481 112 513 112H525V0H382L367 67Q329 22 289 4T183 -15Q94 -15 50 21ZM294
97T294 159V193L227 187Q173 183 173 140Q173 120 186 109T225 97Q294 97 294 159Z" />
<glyph unicode="&#xe4;" glyph-name="adieresis" horiz-adv-x="530" d="M77 677H205V540H77V677ZM327 677H456V540H327V677ZM94 -15T50 21T5 123Q5 198 55 235T206 280L294 286V339Q294 383 248 383Q222 383 203 363V330H49V436Q144 495 258 495Q369 495 425 447T481
319V147Q481 112 513 112H525V0H382L367 67Q329 22 289 4T183 -15Q94 -15 50 21ZM294 97T294 159V193L227 187Q173 183 173 140Q173 120 186 109T225 97Q294 97 294 159Z" />
<glyph unicode="&#xe5;" glyph-name="aring" horiz-adv-x="530" d="M218 520T183 555T147 642Q147 693 182 728T269 764Q320 764 355 729T391 642Q391 591 356 556T269 520Q218 520 183 555ZM284 606T294 616T305 642Q305 657 295 667T269 678Q254 678 244 668T233
642Q233 627 243 617T269 606Q284 606 294 616ZM94 -15T50 21T5 123Q5 198 55 235T206 280L294 286V339Q294 383 248 383Q222 383 203 363V330H49V436Q144 495 258 495Q369 495 425 447T481 319V147Q481 112 513 112H525V0H382L367 67Q329 22 289 4T183 -15Q94
-15 50 21ZM294 97T294 159V193L227 187Q173 183 173 140Q173 120 186 109T225 97Q294 97 294 159Z" />
<glyph unicode="&#xe6;" glyph-name="ae" horiz-adv-x="827" d="M94 -15T50 21T5 123Q5 198 55 235T206 280L294 286V339Q294 383 248 383Q222 383 203 363V330H49V436Q144 495 253 495Q302 495 337 483T399 441Q424 466 470 480T565 495Q688 495 750 429T812
251V203H487Q487 144 509 119T582 94Q619 94 648 107V147H795V58Q728 -15 579 -15Q447 -15 399 58Q364 20 313 3T183 -15Q94 -15 50 21ZM634 299Q634 385 561 385Q524 385 506 364T487 299H634ZM294 97T294 159V193L227 187Q173 183 173 140Q173 120 186 109T225
97Q294 97 294 159Z" />
<glyph unicode="&#xe7;" glyph-name="ccedilla" horiz-adv-x="528" d="M445 -52T445 -123Q445 -228 279 -228Q246 -228 222 -224T172 -208V-113Q210 -133 256 -133Q287 -133 287 -114Q287 -95 268 -86T196 -77L206 -6Q119 14 67 75T15 233Q15 364 88 429T293 495Q364
495 412 479T507 425V301H354V355Q342 364 328 367T292 371Q249 371 224 337T199 233Q199 168 230 139T329 110Q408 110 456 146L513 52Q478 25 447 11T375 -10L371 -36Q445 -52 445 -123Z" />
<glyph unicode="&#xe8;" glyph-name="egrave" horiz-adv-x="546" d="M124 702H320L392 520H236L124 702ZM161 -16T88 48T15 237Q15 368 83 431T278 495Q402 495 466 429T531 251V203H200Q200 143 221 118T295 93Q332 93 361 106V146H514V57Q475 21 422 3T292 -16Q161
-16 88 48ZM347 299Q347 340 328 362T274 385Q238 385 219 363T200 299H347Z" />
<glyph unicode="&#xe9;" glyph-name="eacute" horiz-adv-x="546" d="M256 702H452L340 520H185L256 702ZM161 -16T88 48T15 237Q15 368 83 431T278 495Q402 495 466 429T531 251V203H200Q200 143 221 118T295 93Q332 93 361 106V146H514V57Q475 21 422 3T292 -16Q161
-16 88 48ZM347 299Q347 340 328 362T274 385Q238 385 219 363T200 299H347Z" />
<glyph unicode="&#xea;" glyph-name="ecircumflex" horiz-adv-x="546" d="M202 723H356L496 520H333L278 627L221 520H61L202 723ZM161 -16T88 48T15 237Q15 368 83 431T278 495Q402 495 466 429T531 251V203H200Q200 143 221 118T295 93Q332 93 361 106V146H514V57Q475
21 422 3T292 -16Q161 -16 88 48ZM347 299Q347 340 328 362T274 385Q238 385 219 363T200 299H347Z" />
<glyph unicode="&#xeb;" glyph-name="edieresis" horiz-adv-x="546" d="M89 657H217V520H89V657ZM339 657H468V520H339V657ZM161 -16T88 48T15 237Q15 368 83 431T278 495Q402 495 466 429T531 251V203H200Q200 143 221 118T295 93Q332 93 361 106V146H514V57Q475
21 422 3T292 -16Q161 -16 88 48ZM347 299Q347 340 328 362T274 385Q238 385 219 363T200 299H347Z" />
<glyph unicode="&#xec;" glyph-name="igrave" horiz-adv-x="322" d="M-11 702H185L257 520H101L-11 702ZM5 118H26Q48 118 57 128T67 158V323Q67 361 26 361H5V480H255V156Q255 118 296 118H317V0H5V118Z" />
<glyph unicode="&#xed;" glyph-name="iacute" horiz-adv-x="322" d="M112 702H308L196 520H41L112 702ZM5 118H26Q48 118 57 128T67 158V323Q67 361 26 361H5V480H255V156Q255 118 296 118H317V0H5V118Z" />
<glyph unicode="&#xee;" glyph-name="icircumflex" horiz-adv-x="322" d="M70 723H224L364 520H201L146 627L89 520H-71L70 723ZM5 118H26Q48 118 57 128T67 158V323Q67 361 26 361H5V480H255V156Q255 118 296 118H317V0H5V118Z" />
<glyph unicode="&#xef;" glyph-name="idieresis" horiz-adv-x="322" d="M-43 677H85V540H-43V677ZM207 677H336V540H207V677ZM5 118H26Q48 118 57 128T67 158V323Q67 361 26 361H5V480H255V156Q255 118 296 118H317V0H5V118Z" />
<glyph unicode="&#xf0;" glyph-name="eth" horiz-adv-x="596" d="M153 -15T84 40T15 217Q15 298 50 358T150 450T299 483Q368 483 395 466Q388 511 358 530L286 489L267 529L295 545Q256 545 226 537T157 506L108 606Q204 662 325 662Q398 662 453 636L533 682L551
640L496 609Q581 536 581 370Q581 201 510 93T270 -15Q153 -15 84 40ZM327 102T354 147T382 280Q382 316 374 334T351 359T308 366Q198 366 198 195Q198 163 202 144T224 114T275 102Q327 102 354 147Z" />
<glyph unicode="&#xf1;" glyph-name="ntilde" horiz-adv-x="613" d="M57 615T88 660T191 705Q219 705 239 698T285 677Q288 675 299 670T320 662T339 659Q382 659 382 705H507Q507 608 478 564T377 520Q347 520 326 527T278 548Q262 557 250 561T226 566Q205 566
194 554T182 520H57Q57 615 88 660ZM15 118H25Q67 118 67 156V322Q67 360 28 360H15V480H183L190 416Q255 495 374 495Q464 495 506 452T548 325V156Q548 118 589 118H608V0H360V324Q360 355 347 369T308 383Q280 383 267 370T254 324V156Q254 137 261 128T288
118H301V0H15V118Z" />
<glyph unicode="&#xf2;" glyph-name="ograve" horiz-adv-x="558" d="M106 702H302L374 520H218L106 702ZM154 -15T85 50T15 240Q15 366 83 430T280 495Q408 495 475 431T543 240Q543 115 474 50T280 -15Q154 -15 85 50ZM324 104T341 135T359 240Q359 314 342 345T280
376Q235 376 218 346T201 240Q201 166 218 135T280 104Q324 104 341 135Z" />
<glyph unicode="&#xf3;" glyph-name="oacute" horiz-adv-x="558" d="M266 702H462L350 520H195L266 702ZM154 -15T85 50T15 240Q15 366 83 430T280 495Q408 495 475 431T543 240Q543 115 474 50T280 -15Q154 -15 85 50ZM324 104T341 135T359 240Q359 314 342 345T280
376Q235 376 218 346T201 240Q201 166 218 135T280 104Q324 104 341 135Z" />
<glyph unicode="&#xf4;" glyph-name="ocircumflex" horiz-adv-x="558" d="M204 723H358L498 520H335L280 627L223 520H63L204 723ZM154 -15T85 50T15 240Q15 366 83 430T280 495Q408 495 475 431T543 240Q543 115 474 50T280 -15Q154 -15 85 50ZM324 104T341 135T359
240Q359 314 342 345T280 376Q235 376 218 346T201 240Q201 166 218 135T280 104Q324 104 341 135Z" />
<glyph unicode="&#xf5;" glyph-name="otilde" horiz-adv-x="558" d="M55 615T86 660T189 705Q217 705 237 698T283 677Q286 675 297 670T318 662T337 659Q380 659 380 705H505Q505 608 476 564T375 520Q345 520 324 527T276 548Q260 557 248 561T224 566Q203 566
192 554T180 520H55Q55 615 86 660ZM154 -15T85 50T15 240Q15 366 83 430T280 495Q408 495 475 431T543 240Q543 115 474 50T280 -15Q154 -15 85 50ZM324 104T341 135T359 240Q359 314 342 345T280 376Q235 376 218 346T201 240Q201 166 218 135T280 104Q324 104
341 135Z" />
<glyph unicode="&#xf6;" glyph-name="odieresis" horiz-adv-x="558" d="M91 677H219V540H91V677ZM341 677H470V540H341V677ZM154 -15T85 50T15 240Q15 366 83 430T280 495Q408 495 475 431T543 240Q543 115 474 50T280 -15Q154 -15 85 50ZM324 104T341 135T359
240Q359 314 342 345T280 376Q235 376 218 346T201 240Q201 166 218 135T280 104Q324 104 341 135Z" />
<glyph unicode="&#xf7;" glyph-name="divide" horiz-adv-x="414" d="M153 483H261V382H153V483ZM25 358H389V262H25V358ZM153 238H261V137H153V238Z" />
<glyph unicode="&#xf8;" glyph-name="oslash" horiz-adv-x="558" d="M167 1Q93 25 54 85T15 240Q15 366 83 430T280 495Q310 495 343 490L359 535H416L395 478Q468 453 505 393T543 240Q543 115 474 50T280 -15Q258 -15 220 -11L206 -52H148L167 1ZM301 374Q289
376 280 376Q235 376 218 346T201 240Q201 168 216 138L301 374ZM324 104T341 135T359 240Q359 306 345 337L262 105Q267 104 280 104Q324 104 341 135Z" />
<glyph unicode="&#xf9;" glyph-name="ugrave" horiz-adv-x="603" d="M95 702H291L363 520H207L95 702ZM149 -16T107 27T65 154V324Q65 362 24 362H5V480H253V155Q253 123 266 109T305 95Q333 95 346 109T359 155V324Q359 343 353 352T328 362H312V480H546V157Q546
119 588 119H598V0H430L423 61Q384 19 342 2T239 -16Q149 -16 107 27Z" />
<glyph unicode="&#xfa;" glyph-name="uacute" horiz-adv-x="603" d="M262 702H458L346 520H191L262 702ZM149 -16T107 27T65 154V324Q65 362 24 362H5V480H253V155Q253 123 266 109T305 95Q333 95 346 109T359 155V324Q359 343 353 352T328 362H312V480H546V157Q546
119 588 119H598V0H430L423 61Q384 19 342 2T239 -16Q149 -16 107 27Z" />
<glyph unicode="&#xfb;" glyph-name="ucircumflex" horiz-adv-x="603" d="M207 723H361L501 520H338L283 627L226 520H66L207 723ZM149 -16T107 27T65 154V324Q65 362 24 362H5V480H253V155Q253 123 266 109T305 95Q333 95 346 109T359 155V324Q359 343 353 352T328
362H312V480H546V157Q546 119 588 119H598V0H430L423 61Q384 19 342 2T239 -16Q149 -16 107 27Z" />
<glyph unicode="&#xfc;" glyph-name="udieresis" horiz-adv-x="603" d="M99 677H227V540H99V677ZM349 677H478V540H349V677ZM149 -16T107 27T65 154V324Q65 362 24 362H5V480H253V155Q253 123 266 109T305 95Q333 95 346 109T359 155V324Q359 343 353 352T328
362H312V480H546V157Q546 119 588 119H598V0H430L423 61Q384 19 342 2T239 -16Q149 -16 107 27Z" />
<glyph unicode="&#xfd;" glyph-name="yacute" horiz-adv-x="592" d="M261 702H457L345 520H190L261 702ZM251 -200T194 -181T100 -127V-46H253V-72Q266 -85 281 -90T320 -96Q386 -96 386 -20V25Q360 16 331 11T281 5Q181 5 124 52T66 183V324Q66 342 56 352T24
362H5V480H253V175Q253 114 312 114Q342 114 356 127T370 172V324Q370 344 364 353T337 362H323V480H557V29Q557 -40 529 -91T448 -171T323 -200Q251 -200 194 -181Z" />
<glyph unicode="&#xfe;" glyph-name="thorn" horiz-adv-x="605" d="M15 -90H25Q46 -90 56 -80T67 -52V504Q67 522 57 532T25 542H15V662H229V456Q259 477 290 486T365 495Q471 495 530 431T590 247Q590 121 533 53T368 -16Q321 -16 292 -7T229 26V-52Q229 -90
270 -90H281V-208H15V-90ZM371 93T388 129T406 245Q406 324 389 357T322 391Q282 391 261 356T240 268V213Q240 155 260 124T322 93Q371 93 388 129Z" />
<glyph unicode="&#xff;" glyph-name="ydieresis" horiz-adv-x="592" d="M103 677H231V540H103V677ZM353 677H482V540H353V677ZM251 -200T194 -181T100 -127V-46H253V-72Q266 -85 281 -90T320 -96Q386 -96 386 -20V25Q360 16 331 11T281 5Q181 5 124 52T66 183V324Q66
342 56 352T24 362H5V480H253V175Q253 114 312 114Q342 114 356 127T370 172V324Q370 344 364 353T337 362H323V480H557V29Q557 -40 529 -91T448 -171T323 -200Q251 -200 194 -181Z" />
<glyph unicode="&#x2013;" glyph-name="endash" horiz-adv-x="554" d="M25 358H529V241H25V358Z" />
<glyph unicode="&#x2014;" glyph-name="emdash" horiz-adv-x="698" d="M25 358H673V241H25V358Z" />
<glyph unicode="&#x2018;" glyph-name="quoteleft" horiz-adv-x="312" d="M123 662H287L225 424H25L123 662Z" />
<glyph unicode="&#x2019;" glyph-name="quoteright" horiz-adv-x="312" d="M87 662H287L189 424H25L87 662Z" />
<glyph unicode="&#x201a;" glyph-name="quotesinglbase" horiz-adv-x="312" d="M87 122H287L189 -116H25L87 122Z" />
<glyph unicode="&#x201c;" glyph-name="quotedblleft" horiz-adv-x="479" d="M123 662H260L198 424H25L123 662ZM317 662H454L392 424H219L317 662Z" />
<glyph unicode="&#x201d;" glyph-name="quotedblright" horiz-adv-x="479" d="M87 662H260L162 424H25L87 662ZM281 662H454L356 424H219L281 662Z" />
<glyph unicode="&#x201e;" glyph-name="quotedblbase" horiz-adv-x="518" d="M87 122H277L179 -116H25L87 122ZM303 122H493L395 -116H241L303 122Z" />
<glyph unicode="&#x2022;" glyph-name="bullet" horiz-adv-x="317" d="M122 203T92 221T43 269T25 336Q25 372 43 403T91 452T158 470Q194 470 225 452T274 403T292 336Q292 300 274 270T225 221T158 203Q122 203 92 221Z" />
<glyph unicode="&#x2039;" glyph-name="guilsinglleft" horiz-adv-x="393" d="M25 298V355L368 630V448L215 326L368 205V22L25 298Z" />
<glyph unicode="&#x203a;" glyph-name="guilsinglright" horiz-adv-x="393" d="M25 205L179 326L25 448V630L368 355V298L25 22V205Z" />
</font>
</defs>
</svg>
