<?xml version="1.0" standalone="no"?>
<!DOCTYPE svg PUBLIC "-//W3C//DTD SVG 1.1//EN" "http://www.w3.org/Graphics/SVG/1.1/DTD/svg11.dtd">
<svg xmlns="http://www.w3.org/2000/svg">
<defs >
<font id="Rambla" horiz-adv-x="476" ><font-face
    font-family="Rambla"
    units-per-em="1000"
    panose-1="2 0 5 3 0 0 0 2 0 4"
    ascent="929"
    descent="-295"
    alphabetic="0" />
<glyph unicode=" " glyph-name="space" horiz-adv-x="210" />
<glyph unicode="!" glyph-name="exclam" horiz-adv-x="235" d="M167 700L155 184H79L69 700H167ZM93 117T118 117T161 100T179 57T161 13T118 -6T75 12T57 56T75 99Z" />
<glyph unicode="&quot;" glyph-name="quotedbl" horiz-adv-x="352" d="M52 700H139L125 481H65L52 700ZM214 700H301L287 481H227L214 700Z" />
<glyph unicode="#" glyph-name="numbersign" horiz-adv-x="595" d="M44 190V267H140L162 389H48V466H176L212 668H292L255 466H370L407 668H485L449 466H551V389H436L414 267H547V190H401L363 -14H285L321 190H207L170 -14H91L127 190H44ZM356 389H243L221 267H335L356
389Z" />
<glyph unicode="$" glyph-name="dollar" horiz-adv-x="466" d="M436 102T391 52T270 -9L272 -118H202L204 -12Q92 -5 31 25L57 109Q151 71 216 71T313 99T345 170T310 243T222 300T154 334T114 361T78 397Q48 442 48 506T92 613T208 666L206 774H276L274 667Q338
663 407 638L382 559Q310 585 251 585T165 562T138 502T170 438T253 386T328 344T380 302Q436 252 436 177Z" />
<glyph unicode="%" glyph-name="uni0025" horiz-adv-x="725" d="M228 0H136L498 701H589L228 0ZM301 389T265 348T167 307T70 347T35 497T71 649T169 691T265 650T301 499ZM167 626Q109 626 109 499Q109 428 124 400T167 372T211 400T227 499Q227 626 167 626ZM691
69T655 28T557 -13T460 27T425 177T461 329T559 371T655 330T691 179ZM557 306Q499 306 499 179Q499 108 514 80T557 52T601 80T617 179Q617 306 557 306Z" />
<glyph unicode="&amp;" glyph-name="ampersand" horiz-adv-x="673" d="M187 307T160 267T133 178T171 96T264 63Q351 63 409 133L240 330Q187 307 160 267ZM193 393Q118 482 118 547T160 647T272 681T420 645L395 576Q337 605 270 605T203 551Q203 508 261 439L466
199Q526 290 535 410H614Q604 247 521 134Q552 105 594 76T664 33L628 -31Q532 11 465 70Q383 -13 257 -13Q167 -13 105 38T43 180Q43 307 193 393Z" />
<glyph unicode="&apos;" glyph-name="quotesingle" horiz-adv-x="193" d="M53 700H140L126 460H66L53 700Z" />
<glyph unicode="(" glyph-name="parenleft" horiz-adv-x="291" d="M43 90T43 309T199 753L265 710Q135 504 135 309T265 -92L199 -135Q43 90 43 309Z" />
<glyph unicode=")" glyph-name="parenright" horiz-adv-x="290" d="M247 529T247 309T92 -135L26 -92Q156 117 156 309T26 710L92 753Q247 529 247 309Z" />
<glyph unicode="*" glyph-name="asterisk" horiz-adv-x="391" d="M247 539L349 494L308 428L225 494L234 382H157L166 496L82 428L43 495L145 537L43 579L81 648L166 581L157 693H234L226 581L309 648L349 579L247 539Z" />
<glyph unicode="+" glyph-name="plus" horiz-adv-x="468" d="M273 85H194V239H42V318H194V470H273V318H426V239H273V85Z" />
<glyph unicode="," glyph-name="comma" horiz-adv-x="220" d="M163 59Q163 -46 74 -128H-9Q73 -33 73 44Q73 77 56 116H151Q163 90 163 59Z" />
<glyph unicode="-" glyph-name="hyphen" horiz-adv-x="509" d="M446 318V239H63V318H446Z" />
<glyph unicode="." glyph-name="period" horiz-adv-x="224" d="M87 117T112 117T155 100T173 57T155 13T112 -6T69 12T51 56T69 99Z" />
<glyph unicode="/" glyph-name="slash" horiz-adv-x="428" d="M410 684L93 -64L18 -38L337 710L410 684Z" />
<glyph unicode="0" glyph-name="zero" horiz-adv-x="529" d="M262 -13Q194 -13 150 16T79 123T52 332T80 542T153 651T267 681Q371 681 424 604T478 336T423 66T262 -13ZM326 596T265 596T175 538T146 334T174 130T265 72T355 129T384 333T355 538Z" />
<glyph unicode="1" glyph-name="one" horiz-adv-x="353" d="M278 0H185V585L41 518L14 585L199 668H278V0Z" />
<glyph unicode="2" glyph-name="two" horiz-adv-x="474" d="M28 0V81Q135 196 213 290T308 416T326 494T296 569T208 596T87 571L65 643Q147 681 231 681T364 632T414 496T329 304Q208 153 143 81H438L431 0H28Z" />
<glyph unicode="3" glyph-name="three" horiz-adv-x="467" d="M181 325H133V393H180Q239 400 271 433T304 510T275 576T190 597T71 572L49 644Q134 681 215 681T345 637T394 517Q394 471 373 431T311 368Q421 327 421 202Q421 107 363 47T209 -13T28 39L61 114Q145
72 203 72T296 108T330 201T291 291T181 325Z" />
<glyph unicode="4" glyph-name="four" horiz-adv-x="542" d="M515 190H402V0H313V190H25V248L300 660H402V256H515V190ZM313 256V530L129 256H313Z" />
<glyph unicode="5" glyph-name="five" horiz-adv-x="471" d="M217 72Q276 72 306 112T337 217T312 319T229 358T128 311L70 341V668H400V587H154V414Q194 440 260 440T378 383T429 223T377 54T224 -13T37 40L67 113Q97 97 142 85T217 72Z" />
<glyph unicode="6" glyph-name="six" horiz-adv-x="493" d="M250 -13Q49 -13 49 285Q49 473 123 577T316 681Q373 681 420 660L399 586Q361 596 325 596Q257 596 214 545T153 399Q206 448 283 448T407 394T453 234T401 57T250 -13ZM275 365Q196 365 142 311Q142
217 157 163T194 90T253 72Q305 72 333 114T361 230Q361 365 275 365Z" />
<glyph unicode="7" glyph-name="seven" horiz-adv-x="424" d="M24 587V668H407V615L294 346Q212 164 189 0H91Q111 159 188 332L300 587H24Z" />
<glyph unicode="8" glyph-name="eight" horiz-adv-x="506" d="M460 100T408 44T255 -13T100 38T45 177Q45 233 76 280T160 356Q76 411 76 513Q76 593 127 636T257 680T385 639T434 524Q434 472 408 428T334 357Q396 329 428 288T460 173ZM138 177Q138 127 170
100T254 72T338 102T369 182Q369 239 326 270Q289 296 259 307Q224 321 223 322Q138 272 138 177ZM348 558T323 577T259 597T191 579T162 519T190 441T261 385Q301 407 324 446T348 522Z" />
<glyph unicode="9" glyph-name="nine" horiz-adv-x="494" d="M171 -13Q122 -13 69 8L92 88Q132 72 167 72Q306 72 344 263Q282 212 208 212T87 266T41 429T94 609T243 681Q445 681 445 374Q445 192 369 90T171 -13ZM352 500T324 548T243 596T161 552T133 430Q133
290 220 290Q287 290 351 347Q352 358 352 379Q352 500 324 548Z" />
<glyph unicode=":" glyph-name="colon" horiz-adv-x="249" d="M99 117T124 117T167 100T185 57T167 13T124 -6T81 12T63 56T81 99ZM100 417T125 417T168 400T186 357T168 313T125 294T82 312T64 356T82 399Z" />
<glyph unicode=";" glyph-name="semicolon" horiz-adv-x="252" d="M101 416T126 416T169 399T187 356T169 312T126 293T83 311T65 355T83 398ZM181 59Q181 -46 92 -128H9Q91 -33 91 44Q91 77 74 116H169Q181 90 181 59Z" />
<glyph unicode="&lt;" glyph-name="less" horiz-adv-x="437" d="M37 275V345L378 516V431L138 311L378 189V105L37 275Z" />
<glyph unicode="=" glyph-name="equal" horiz-adv-x="464" d="M401 432V353H63V432H401ZM401 240V160H63V240H401Z" />
<glyph unicode="&gt;" glyph-name="greater" horiz-adv-x="437" d="M400 345V275L59 105V189L299 311L59 431V516L400 345Z" />
<glyph unicode="?" glyph-name="question" horiz-adv-x="339" d="M224 549T179 577T46 614L64 691Q178 686 245 636T312 513Q312 435 252 381Q229 361 206 341Q153 293 147 225L145 166H68Q66 208 66 221Q66 304 124 363Q145 385 166 405Q224 458 224 503ZM87
110T112 110T155 93T173 50T155 6T112 -13T69 5T51 49T69 92Z" />
<glyph unicode="@" glyph-name="at" horiz-adv-x="761" d="M555 125Q481 125 458 185Q441 157 412 141T349 124Q286 124 246 165T206 279Q206 381 264 445T411 509Q468 509 540 478L522 275Q521 262 521 242Q521 190 563 190Q642 190 642 375Q642 485 587 547T410
610T210 525T131 302T201 95T375 24T592 78L620 15Q478 -50 370 -50Q232 -50 139 39T45 295T148 571T409 680T645 598T724 374Q724 125 555 125ZM413 447Q360 447 325 402T290 287Q290 188 359 188Q392 188 413 215T439 286L452 441Q434 447 413 447Z" />
<glyph unicode="A" glyph-name="A" horiz-adv-x="561" d="M398 172H163L106 0H8L227 668H334L553 0H456L398 172ZM376 247L280 577L185 247H376Z" />
<glyph unicode="B" glyph-name="B" horiz-adv-x="547" d="M462 499Q462 406 385 365Q449 341 475 301T502 195Q502 104 447 52T282 0H79V668H202Q261 668 288 667Q462 661 462 499ZM175 596V396H273Q317 399 341 426T365 491T358 547T340 575T308 590Q276 596
222 596H175ZM263 81Q405 81 405 199Q405 259 365 290Q333 322 251 322H175V81H263Z" />
<glyph unicode="C" glyph-name="C" horiz-adv-x="521" d="M340 -13Q52 -13 52 335Q52 515 125 598T328 681Q396 681 479 658L461 583Q394 598 343 598Q251 598 200 539T148 339Q148 69 359 69Q410 69 469 81L482 6Q403 -13 340 -13Z" />
<glyph unicode="D" glyph-name="D" horiz-adv-x="610" d="M175 587V81H258Q376 81 418 142T460 334T418 526T258 587H175ZM251 0H79V668H251Q379 668 429 641Q557 576 557 334T429 26Q380 0 251 0Z" />
<glyph unicode="E" glyph-name="E" horiz-adv-x="511" d="M175 81H459V0H79V668H450V587H175V385H434V306H175V81Z" />
<glyph unicode="F" glyph-name="F" horiz-adv-x="491" d="M451 587H175V384H433V304H175V0H79V668H451V587Z" />
<glyph unicode="G" glyph-name="G" horiz-adv-x="570" d="M253 599T202 540T150 342T201 137T330 72Q379 72 426 94V255H314V335H516V48Q420 -13 324 -13Q211 -13 135 65Q96 105 74 174T51 336Q51 516 125 599T330 682Q405 682 488 659L468 584Q401 599 345 599Q253
599 202 540Z" />
<glyph unicode="H" glyph-name="H" horiz-adv-x="616" d="M441 384V668H537V0H441V304H175V0H79V668H175V384H441Z" />
<glyph unicode="I" glyph-name="I" horiz-adv-x="254" d="M175 668V0H79V668H175Z" />
<glyph unicode="J" glyph-name="J" horiz-adv-x="255" d="M81 125V668H177V127Q177 21 138 -54T-2 -175L-41 -108Q33 -66 57 -15T81 125Z" />
<glyph unicode="K" glyph-name="K" horiz-adv-x="604" d="M174 668V0H79V668H174ZM202 342L456 668H575L310 347L590 0H465L202 342Z" />
<glyph unicode="L" glyph-name="L" horiz-adv-x="445" d="M175 81H425V0H79V668H175V81Z" />
<glyph unicode="M" glyph-name="M" horiz-adv-x="778" d="M608 495T608 516T609 558L427 73H351L169 558Q170 537 170 516T169 474L153 0H65L96 668H207L389 173L571 668H682L713 0H625L609 474Q608 495 608 516Z" />
<glyph unicode="N" glyph-name="N" horiz-adv-x="659" d="M580 0H482L166 541Q170 502 170 457V0H79V668H177L493 127Q489 166 489 211V668H580V0Z" />
<glyph unicode="O" glyph-name="O" horiz-adv-x="621" d="M242 681T311 681T432 652T513 573Q570 475 570 334Q570 196 512 96Q482 45 430 16T309 -13T188 16T108 95Q51 193 51 334Q51 474 110 573Q139 623 190 652ZM227 72T310 72T432 145T472 334T433 523T310
596T188 524T148 335T187 145Z" />
<glyph unicode="P" glyph-name="P" horiz-adv-x="526" d="M496 470Q496 305 346 270Q296 259 211 259H175V0H79V668H237Q314 668 359 656T438 612Q496 561 496 470ZM356 364Q399 395 399 462T365 561Q330 596 229 596H175V339H213Q323 339 356 364Z" />
<glyph unicode="Q" glyph-name="Q" horiz-adv-x="621" d="M79 145T65 204T51 333T65 463T109 573T190 652T311 681T432 652T513 573Q570 475 570 334Q570 230 538 146T437 21Q493 15 556 -6T660 -52L607 -123Q595 -115 573 -102T473 -60T307 -12Q239 -12 188 17T108
95ZM227 66T310 66T432 140T472 332T433 523T310 596T188 524T148 333T187 140Z" />
<glyph unicode="R" glyph-name="R" horiz-adv-x="565" d="M496 470Q496 360 432 310Q398 284 356 273L540 32L468 -17L261 260Q245 259 211 259H175V0H79V668H237Q314 668 359 656T438 612Q496 561 496 470ZM356 364Q399 395 399 462T365 561Q330 596 229 596H175V339H213Q323
339 356 364Z" />
<glyph unicode="S" glyph-name="S" horiz-adv-x="490" d="M451 93T393 40T240 -13Q189 -13 132 -2T39 26L65 111Q163 72 228 72T326 100T359 173T323 248T230 307T152 348T106 384Q56 427 56 508T113 635T252 681T422 649L396 569Q320 596 262 596T176 573T148
511T180 447T264 393T340 349T394 308Q451 256 451 175Z" />
<glyph unicode="T" glyph-name="T" horiz-adv-x="479" d="M192 583H18V668H461V583H287V0H192V583Z" />
<glyph unicode="U" glyph-name="U" horiz-adv-x="609" d="M75 245V668H171V259Q171 155 197 120Q225 73 303 73T411 120Q438 157 438 259V668H534V245Q534 128 489 64Q434 -11 306 -12T120 64Q75 128 75 245Z" />
<glyph unicode="V" glyph-name="V" horiz-adv-x="546" d="M111 668L273 110L435 668H539L324 0H222L7 668H111Z" />
<glyph unicode="W" glyph-name="W" horiz-adv-x="804" d="M349 618H455L603 110L675 668H762L673 0H554L403 538L251 0H131L42 668H129L201 110L349 618Z" />
<glyph unicode="X" glyph-name="X" horiz-adv-x="574" d="M557 0H441L284 268L127 0H18L229 340L29 668H137L285 416L435 668H545L342 346L557 0Z" />
<glyph unicode="Y" glyph-name="Y" horiz-adv-x="521" d="M309 0H213V275L3 668H111L261 353L415 668H516L309 275V0Z" />
<glyph unicode="Z" glyph-name="Z" horiz-adv-x="525" d="M489 81V0H48L39 65L353 587H54L43 668H460L467 599L156 81H489Z" />
<glyph unicode="[" glyph-name="bracketleft" horiz-adv-x="303" d="M72 -141V766H271V695L158 689V-64Q175 -65 271 -71V-141H72Z" />
<glyph unicode="\" glyph-name="backslash" horiz-adv-x="404" d="M310 -114L18 737L92 758L386 -93L310 -114Z" />
<glyph unicode="]" glyph-name="bracketright" horiz-adv-x="303" d="M231 765V-141H32V-70L145 -64V688Q128 689 32 695V765H231Z" />
<glyph unicode="^" glyph-name="asciicircum" horiz-adv-x="492" d="M211 641H281L451 297H365L245 543L126 297H40L211 641Z" />
<glyph unicode="_" glyph-name="underscore" horiz-adv-x="552" d="M489 74V0H63V74H489Z" />
<glyph unicode="`" glyph-name="grave" horiz-adv-x="356" d="M254 577L82 681L130 754L290 632L254 577Z" />
<glyph unicode="a" glyph-name="a" horiz-adv-x="487" d="M176 -13Q111 -13 73 25T34 127Q34 169 52 198T99 241Q151 266 208 266T314 261V339Q314 397 295 418T220 440T89 413L68 476Q97 494 144 505T227 516Q324 516 364 474T404 333V90Q404 55 428 55Q444 55
472 64L487 8Q453 -14 399 -14T321 37Q299 16 260 2T176 -13ZM195 58Q258 58 314 94V210Q290 214 236 214Q119 214 118 136Q118 58 195 58Z" />
<glyph unicode="b" glyph-name="b" horiz-adv-x="516" d="M278 440Q216 440 156 398V79Q194 63 251 63Q377 63 377 259Q377 440 278 440ZM156 700V469Q175 484 214 500T293 516Q369 516 420 454T471 278Q471 -13 250 -13Q144 -13 66 35V700H156Z" />
<glyph unicode="c" glyph-name="c" horiz-adv-x="434" d="M277 -15Q176 -15 110 51T44 250T110 449T272 516Q340 516 396 487L369 423Q316 440 274 440Q215 440 176 395T136 251Q136 62 291 62Q335 62 384 75L399 9Q335 -15 277 -15Z" />
<glyph unicode="d" glyph-name="d" horiz-adv-x="519" d="M46 243Q46 516 265 516Q320 516 361 493V700H452V-8H381L368 41Q305 -9 222 -9T92 59T46 243ZM264 441Q139 441 139 244Q139 63 241 63Q314 63 361 107V423Q319 441 264 441Z" />
<glyph unicode="e" glyph-name="e" d="M265 -13Q153 -13 99 63T44 255T102 443T261 516Q346 516 390 469T435 343Q435 308 420 253H126Q128 168 163 115T267 62T399 90L422 28Q350 -13 265 -13ZM353 326Q353 380 331 411T270 442T206 429T166 394Q142 354 136
320L353 318V326Z" />
<glyph unicode="f" glyph-name="f" horiz-adv-x="356" d="M114 543Q114 639 155 680T299 722Q356 722 419 704L399 633Q359 643 301 643T224 622T205 546V506H342L332 435H205V-186L114 -177V435L21 440L30 499L114 506V543Z" />
<glyph unicode="g" glyph-name="g" horiz-adv-x="484" d="M227 516L311 511Q386 511 466 525L477 469Q439 461 372 452Q410 406 410 330T364 204T231 152Q205 152 180 157Q164 122 164 99Q164 65 217 65H309Q381 65 421 33T461 -57Q461 -138 397 -187T233 -236T81
-202T29 -106Q29 -28 121 20Q95 41 95 82T134 173Q93 196 71 238T49 334Q49 415 94 465T227 516ZM230 447Q132 447 132 335T229 223T327 334Q327 392 305 419T230 447ZM290 -13H167Q111 -37 111 -94Q111 -129 145 -146T241 -164T341 -138T378 -65Q378 -38 359 -26T290
-13Z" />
<glyph unicode="h" glyph-name="h" horiz-adv-x="518" d="M319 516Q394 516 423 472T453 347V0H363V342Q363 388 351 414T303 440T225 421T159 373V0H68V699L159 707V448Q188 475 232 495T319 516Z" />
<glyph unicode="i" glyph-name="i" horiz-adv-x="225" d="M158 0H67V502L158 511V0ZM49 680T67 697T110 715T152 698T170 655T153 612T110 593T67 611T49 655Z" />
<glyph unicode="j" glyph-name="j" horiz-adv-x="225" d="M158 46Q158 -77 102 -138T-62 -210L-73 -138Q4 -126 36 -82T68 56V502L158 511V46ZM51 680T69 697T112 715T154 698T172 655T155 612T112 593T69 611T51 655Z" />
<glyph unicode="k" glyph-name="k" horiz-adv-x="500" d="M159 0H68V700L159 708V281L349 502H461L255 279Q290 236 371 140T488 0H378L159 272V0Z" />
<glyph unicode="l" glyph-name="l" horiz-adv-x="266" d="M69 700H160V102Q160 63 196 63Q224 63 255 73L270 7Q229 -13 169 -13Q69 -13 69 101V700Z" />
<glyph unicode="m" glyph-name="m" horiz-adv-x="801" d="M449 343V0H359V342Q359 388 347 414T299 440T222 421T158 373V0H68V506H143L153 445Q181 472 226 494T315 516Q406 516 434 442Q464 470 512 493T602 516Q736 516 736 347V0H646V342Q646 389 634 414T587
440T513 421T447 377Q449 365 449 343Z" />
<glyph unicode="n" glyph-name="n" horiz-adv-x="519" d="M454 347V0H364V342Q364 388 352 414T304 440T225 421T158 373V0H68V506H143L153 445Q181 472 228 494T320 516Q395 516 424 472T454 347Z" />
<glyph unicode="o" glyph-name="o" horiz-adv-x="508" d="M346 -13T252 -13T102 50T46 250T104 452T257 516T406 453T462 253T404 51ZM255 442Q138 442 138 252T254 61Q302 61 336 106T370 256T341 401T255 442Z" />
<glyph unicode="p" glyph-name="p" horiz-adv-x="518" d="M254 63Q379 63 379 262Q379 440 278 440Q221 440 158 396V77Q208 63 254 63ZM151 465Q217 516 299 516T427 448T473 263Q473 -13 253 -13Q201 -13 158 7V-214L68 -224V507H144L151 465Z" />
<glyph unicode="q" glyph-name="q" horiz-adv-x="516" d="M242 63Q304 63 360 101V422Q326 432 268 432Q140 432 140 248T242 63ZM360 29Q305 -13 222 -13T92 57T46 249T101 440T263 508T450 476V-221L360 -212V29Z" />
<glyph unicode="r" glyph-name="r" horiz-adv-x="361" d="M158 0H68V506H143L153 431Q171 461 212 488T307 516Q336 516 351 511L333 439Q324 440 307 440Q198 440 158 361V0Z" />
<glyph unicode="s" glyph-name="s" horiz-adv-x="411" d="M60 92Q126 63 181 63T261 83T287 134T263 186T203 219T133 246T73 290T48 367Q48 435 96 475T226 516T358 487L337 420Q279 440 230 440T157 422T133 374T158 323T218 291T289 265T349 220T374 145Q374
79 325 33T185 -13Q143 -13 101 -2T37 24L60 92Z" />
<glyph unicode="t" glyph-name="t" horiz-adv-x="370" d="M244 -13Q166 -13 141 19T116 131V435L17 440L26 499L118 506L127 626L208 641V506H356L347 435H207V122Q207 101 208 91T219 72T261 63T325 74L342 7Q295 -13 244 -13Z" />
<glyph unicode="u" glyph-name="u" horiz-adv-x="515" d="M210 -13Q128 -13 96 31T64 159V506H154V161Q154 111 167 88T219 64T296 76T358 111V503H448V-9H375L365 45Q336 21 294 4T210 -13Z" />
<glyph unicode="v" glyph-name="v" horiz-adv-x="462" d="M350 505H443L281 0H180L19 506H116L231 90L350 505Z" />
<glyph unicode="w" glyph-name="w" horiz-adv-x="689" d="M344 395L247 0H155L24 506H114L204 101L303 501L385 506L485 101L575 506H665L534 0H442L344 395Z" />
<glyph unicode="x" glyph-name="x" horiz-adv-x="482" d="M450 506L290 267L465 0H362L242 202L121 0H16L196 268L35 506H140L244 333L350 506H450Z" />
<glyph unicode="y" glyph-name="y" horiz-adv-x="473" d="M49 -143Q104 -143 138 -112T199 -2L14 500L109 506L240 95L358 506H452L286 10Q247 -108 196 -159T62 -211Q29 -211 -6 -204L5 -140Q21 -143 49 -143Z" />
<glyph unicode="z" glyph-name="z" horiz-adv-x="440" d="M137 74H398L408 0H40L31 58L285 432H59L49 506H382L392 444L137 74Z" />
<glyph unicode="{" glyph-name="braceleft" horiz-adv-x="351" d="M99 25Q96 64 96 103T93 179Q93 228 87 251T61 276H31V346H60Q93 350 93 434L99 591Q103 666 145 710T249 754H322V680H242Q211 677 196 648T180 590L178 456Q175 346 140 310Q176 281 178 153Q178
112 178 79T179 23T195 -31T242 -62H317V-134H249Q183 -134 142 -91T99 25Z" />
<glyph unicode="|" glyph-name="bar" horiz-adv-x="233" d="M74 -42V694H159V-42H74Z" />
<glyph unicode="}" glyph-name="braceright" horiz-adv-x="350" d="M257 179Q254 140 253 99T251 25Q249 -48 208 -91T101 -134H34V-62H108Q139 -61 154 -31T170 33T170 96T173 154Q175 284 211 310Q175 343 173 456Q170 516 170 590Q170 618 155 647T108 680H28V754H101Q162
754 204 710T251 591Q252 566 254 513T257 434Q257 350 290 346H319V276H288Q270 274 264 251T257 179Z" />
<glyph unicode="~" glyph-name="asciitilde" horiz-adv-x="582" d="M310 325Q380 294 409 294T478 351L534 306Q477 209 401 209Q354 209 284 242T175 276Q145 276 106 219L50 264Q107 361 182 361Q234 361 310 325Z" />
<glyph unicode="&#xa0;" glyph-name="uni00A0" horiz-adv-x="210" />
<glyph unicode="&#xa1;" glyph-name="exclamdown" horiz-adv-x="228" d="M152 338L164 -178H66L76 338H152ZM140 405T115 405T72 422T54 465T72 509T115 528T158 510T176 466T158 423Z" />
<glyph unicode="&#xa2;" glyph-name="cent" horiz-adv-x="442" d="M370 501Q312 526 259 526T166 481T126 338T166 195T260 149T381 182L406 120Q353 85 294 75L299 -32H229L234 74Q147 84 91 150T34 337T91 525T234 600L229 709H299L294 600Q351 592 397 567L370 501Z" />
<glyph unicode="&#xa3;" glyph-name="sterling" horiz-adv-x="490" d="M39 312V384H103Q86 438 86 495Q86 584 138 632T273 681T438 647L411 574Q343 604 289 604T206 577T178 500T199 384H325L334 312H222Q232 265 232 229Q232 154 189 81H457V0H67V74Q102 94
122 138T142 227T129 312H39Z" />
<glyph unicode="&#xa4;" glyph-name="currency" horiz-adv-x="529" d="M172 81L94 -18L41 23L119 122Q73 174 73 250T124 383Q120 389 49 477L102 518L176 423Q221 444 267 444T353 425Q390 474 426 518L478 477L409 388Q435 362 450 324T466 250Q466 173 412
116L485 23L432 -18L360 78Q322 57 269 57T172 81ZM147 197T181 162T269 126T357 161T392 250T358 339T270 376T182 340T147 250Z" />
<glyph unicode="&#xa5;" glyph-name="yen" horiz-adv-x="563" d="M71 125V189H232V248H71V312H212L22 668H130L280 353L434 668H535L347 312H501V248H328V189H501V125H328V0H232V125H71Z" />
<glyph unicode="&#xa6;" glyph-name="brokenbar" horiz-adv-x="235" d="M75 410V694H160V410H75ZM75 -45V243H160V-45H75Z" />
<glyph unicode="&#xa7;" glyph-name="section" horiz-adv-x="367" d="M24 289Q24 383 115 432L106 453Q94 489 94 519Q94 638 217 682Q238 690 262 695L279 625L246 615Q174 589 174 530Q174 512 187 479T255 368T329 248Q344 212 344 178Q344 86 252 34Q255 29
265 6T275 -54T257 -129Q228 -187 150 -215Q124 -225 105 -228L88 -159L121 -149Q169 -133 186 -98Q193 -81 193 -62T178 -10T110 101T38 219Q24 256 24 289ZM218 91Q263 114 263 168Q263 190 253 210Q235 254 149 375Q105 350 105 297Q105 249 190 130Q209 104
218 91Z" />
<glyph unicode="&#xa8;" glyph-name="dieresis" horiz-adv-x="325" d="M56 707T79 707T118 692T134 653T118 613T80 596T41 613T24 652T40 691ZM221 707T244 707T283 692T299 653T283 613T245 596T206 613T189 652T205 691Z" />
<glyph unicode="&#xa9;" glyph-name="copyright" horiz-adv-x="732" d="M460 414Q422 438 378 438T303 404T273 298T303 192T376 157T467 184L489 135Q437 98 370 98T253 148T203 298T253 447T369 498T484 466L460 414ZM686 436T686 302T593 75T366 -18T139 75T46
302T139 529T366 622T593 529ZM611 192T611 302T542 483T366 555T190 483T120 300T190 118T366 45T541 118Z" />
<glyph unicode="&#xaa;" glyph-name="ordfeminine" horiz-adv-x="346" d="M209 433Q178 404 134 404T68 425T46 488T77 546T140 564T201 560V601Q201 633 191 644T152 656T77 640L64 678Q100 702 155 702T233 678T256 598V463Q256 446 267 446Q272 446 292 452L303
417Q285 404 251 404T206 433H209ZM137 448Q171 448 201 467V529Q192 531 161 531Q97 531 96 489Q96 448 137 448Z" />
<glyph unicode="&#xab;" glyph-name="guillemotleft" horiz-adv-x="533" d="M486 462L338 308L486 155L428 104L257 284V332L428 512L486 462ZM276 462L127 308L276 155L218 104L47 284V332L218 512L276 462Z" />
<glyph unicode="&#xac;" glyph-name="logicalnot" horiz-adv-x="509" d="M55 432H443V236H364V353H55V432Z" />
<glyph unicode="&#xad;" glyph-name="uni00AD" horiz-adv-x="429" d="M366 318V239H63V318H366Z" />
<glyph unicode="&#xae;" glyph-name="registered" horiz-adv-x="732" d="M686 436T686 302T593 75T366 -18T139 75T46 302T139 529T366 622T593 529ZM611 192T611 302T542 483T366 555T190 483T120 300T190 118T366 45T541 118ZM339 497Q490 497 490 381Q490 319
453 289Q438 276 420 270Q423 264 462 212T523 136L481 105Q419 172 362 260Q336 258 323 258H302V111H243V497H339ZM404 321Q428 338 428 379T404 436T331 452H302V305H322Q385 305 404 321Z" />
<glyph unicode="&#xaf;" glyph-name="overscore" horiz-adv-x="577" d="M514 670V591H63V670H514Z" />
<glyph unicode="&#xb0;" glyph-name="degree" horiz-adv-x="328" d="M224 751T254 717T285 633T253 546T162 510T73 544T43 629T74 715T165 751ZM192 570T205 589T219 632T206 673T165 690T123 673T109 630Q109 570 162 570Q192 570 205 589Z" />
<glyph unicode="&#xb1;" glyph-name="plusminus" horiz-adv-x="496" d="M288 142H208V295H56V376H208V526H288V376H440V295H288V142ZM440 80V0H56V80H440Z" />
<glyph unicode="&#xb2;" glyph-name="twosuperior" horiz-adv-x="338" d="M36 286V342Q83 392 110 427T147 474T162 492T175 509T187 527T196 544Q205 561 205 585T189 623T139 638T71 620L51 671Q109 700 164 700T248 669T277 586T225 463Q158 375 134 348H293V286H36Z" />
<glyph unicode="&#xb3;" glyph-name="threesuperior" horiz-adv-x="316" d="M128 479H96V534H127Q158 535 174 553T191 596Q191 642 138 642Q96 642 59 624L42 674Q98 702 149 702T231 674T262 594T214 513Q277 487 277 414Q277 355 241 318T145 281T29 316L54
368Q99 342 135 342T189 361T207 412T186 461T128 479Z" />
<glyph unicode="&#xb4;" glyph-name="acute" horiz-adv-x="356" d="M279 681L107 577L71 632L231 754L279 681Z" />
<glyph unicode="&#xb5;" glyph-name="mu" horiz-adv-x="557" d="M69 -207V499L159 508V161Q159 111 172 88T224 64T301 76T363 111V506H453V90Q453 55 477 55Q493 55 521 64L536 8Q502 -14 454 -14Q389 -14 370 49Q342 23 300 5T220 -13T159 -3V-207H69Z" />
<glyph unicode="&#xb6;" glyph-name="paragraph" horiz-adv-x="508" d="M479 604H407V-162H333V604H259V-162H181V351Q115 351 69 397T22 510T68 622T181 668H479V604Z" />
<glyph unicode="&#xb7;" glyph-name="middot" horiz-adv-x="254" d="M56 292T77 312T127 333T177 313T198 263T177 212T127 190T77 212T56 263Z" />
<glyph unicode="&#xb8;" glyph-name="cedilla" horiz-adv-x="284" d="M222 -113Q222 -192 116 -255L75 -207Q145 -158 145 -108Q145 -83 127 -49H206Q222 -83 222 -113Z" />
<glyph unicode="&#xb9;" glyph-name="onesuperior" horiz-adv-x="243" d="M184 259H110V601L30 560L8 617L126 668H184V259Z" />
<glyph unicode="&#xba;" glyph-name="ordmasculine" horiz-adv-x="332" d="M218 404T165 404T80 439T48 552T81 666T167 702Q284 702 284 553Q284 476 251 440ZM166 657Q103 657 103 553T166 449Q192 449 210 473T228 555T212 635T166 657Z" />
<glyph unicode="&#xbb;" glyph-name="guillemotright" horiz-adv-x="531" d="M194 308L46 462L104 512L275 332V284L104 104L46 155L194 308ZM405 308L256 462L314 512L485 332V284L314 104L256 155L405 308Z" />
<glyph unicode="&#xbc;" glyph-name="onequarter" horiz-adv-x="714" d="M687 111H619V0H554V111H390V153L522 400H619V166H687V111ZM554 166L555 334L468 166H554ZM196 291H122V633L42 592L20 649L138 700H196V291ZM534 703L217 -45L142 -19L461 729L534 703Z" />
<glyph unicode="&#xbd;" glyph-name="onehalf" horiz-adv-x="739" d="M448 0V56Q495 106 522 141T559 188T574 206T587 223T599 241T608 258Q617 275 617 299T601 337T551 352T483 334L463 385Q521 414 576 414T660 383T689 300T637 177Q570 89 546 62H705V0H448ZM196
291H122V633L42 592L20 649L138 700H196V291ZM527 703L210 -45L135 -19L454 729L527 703Z" />
<glyph unicode="&#xbe;" glyph-name="threequarters" horiz-adv-x="771" d="M125 477H93V532H124Q155 533 171 551T188 594Q188 640 135 640Q94 640 56 622L39 672Q95 700 146 700T228 672T259 592T211 511Q274 485 274 412Q274 353 238 316T142 279T26 314L51
366Q97 340 133 340T186 359T204 410T183 459T125 477ZM748 111H680V0H615V111H451V153L583 400H680V166H748V111ZM615 166L616 334L529 166H615ZM589 692L272 -56L197 -30L516 718L589 692Z" />
<glyph unicode="&#xbf;" glyph-name="questiondown" horiz-adv-x="334" d="M112 -48T157 -76T290 -113L272 -190Q158 -185 91 -135T24 -12Q24 66 84 120Q107 140 130 160Q183 208 189 276L191 335H268Q270 293 270 280Q270 197 212 138Q191 116 170 96Q112 43
112 -2ZM249 391T224 391T181 408T163 451T181 495T224 514T267 496T285 452T267 409Z" />
<glyph unicode="&#xc0;" glyph-name="Agrave" horiz-adv-x="561" d="M398 172H163L106 0H8L227 668H334L553 0H456L398 172ZM376 247L280 577L185 247H376ZM333 726L161 830L209 903L369 781L333 726Z" />
<glyph unicode="&#xc1;" glyph-name="Aacute" horiz-adv-x="561" d="M398 172H163L106 0H8L227 668H334L553 0H456L398 172ZM376 247L280 577L185 247H376ZM408 832L236 728L200 783L360 905L408 832Z" />
<glyph unicode="&#xc2;" glyph-name="Acircumflex" horiz-adv-x="561" d="M398 172H163L106 0H8L227 668H334L553 0H456L398 172ZM376 247L280 577L185 247H376ZM280 800L195 714L147 750L246 860H311L411 750L360 714L280 800Z" />
<glyph unicode="&#xc3;" glyph-name="Atilde" horiz-adv-x="561" d="M398 172H163L106 0H8L227 668H334L553 0H456L398 172ZM376 247L280 577L185 247H376ZM133 803T159 823T209 844T279 823T345 801T402 843L445 807Q425 773 395 752T340 730T271 751T208 773T158
736L114 773Q133 803 159 823Z" />
<glyph unicode="&#xc4;" glyph-name="Adieresis" horiz-adv-x="561" d="M398 172H163L106 0H8L227 668H334L553 0H456L398 172ZM376 247L280 577L185 247H376ZM176 839T199 839T238 824T254 785T238 745T200 728T161 745T144 784T160 823ZM341 839T364 839T403
824T419 785T403 745T365 728T326 745T309 784T325 823Z" />
<glyph unicode="&#xc5;" glyph-name="Aring" horiz-adv-x="561" d="M382 871T382 828T355 755T278 724T202 754T176 827T202 899T279 929T355 900ZM301 778T312 793T323 827T313 861T280 875T246 861T235 827T245 793T278 778ZM398 172H163L106 0H8L227 668H334L553
0H456L398 172ZM376 247L280 577L185 247H376Z" />
<glyph unicode="&#xc6;" glyph-name="AE" horiz-adv-x="777" d="M445 587V385H704V305H445V81H720L730 0H351V172H180L105 0H5L296 668H720L711 587H445ZM351 247V594L211 247H351Z" />
<glyph unicode="&#xc7;" glyph-name="Ccedilla" horiz-adv-x="521" d="M340 -13Q52 -13 52 335Q52 515 125 598T328 681Q396 681 479 658L461 583Q394 598 343 598Q251 598 200 539T148 339Q148 69 359 69Q410 69 469 81L482 6Q403 -13 340 -13ZM385 -113Q385
-192 279 -255L238 -207Q308 -158 308 -108Q308 -83 290 -49H369Q385 -83 385 -113Z" />
<glyph unicode="&#xc8;" glyph-name="Egrave" horiz-adv-x="511" d="M175 81H459V0H79V668H450V587H175V385H434V306H175V81ZM316 726L144 830L192 903L352 781L316 726Z" />
<glyph unicode="&#xc9;" glyph-name="Eacute" horiz-adv-x="511" d="M175 81H459V0H79V668H450V587H175V385H434V306H175V81ZM379 832L207 728L171 783L331 905L379 832Z" />
<glyph unicode="&#xca;" glyph-name="Ecircumflex" horiz-adv-x="511" d="M175 81H459V0H79V668H450V587H175V385H434V306H175V81ZM268 800L183 714L135 750L234 860H299L399 750L348 714L268 800Z" />
<glyph unicode="&#xcb;" glyph-name="Edieresis" horiz-adv-x="511" d="M175 81H459V0H79V668H450V587H175V385H434V306H175V81ZM163 839T186 839T225 824T241 785T225 745T187 728T148 745T131 784T147 823ZM328 839T351 839T390 824T406 785T390 745T352 728T313
745T296 784T312 823Z" />
<glyph unicode="&#xcc;" glyph-name="Igrave" horiz-adv-x="254" d="M175 668V0H79V668H175ZM165 726L-7 830L41 903L201 781L165 726Z" />
<glyph unicode="&#xcd;" glyph-name="Iacute" horiz-adv-x="254" d="M175 668V0H79V668H175ZM255 832L83 728L47 783L207 905L255 832Z" />
<glyph unicode="&#xce;" glyph-name="Icircumflex" horiz-adv-x="254" d="M175 668V0H79V668H175ZM117 800L32 714L-16 750L83 860H148L248 750L197 714L117 800Z" />
<glyph unicode="&#xcf;" glyph-name="Idieresis" horiz-adv-x="254" d="M175 668V0H79V668H175ZM12 839T35 839T74 824T90 785T74 745T36 728T-3 745T-20 784T-4 823ZM177 839T200 839T239 824T255 785T239 745T201 728T162 745T145 784T161 823Z" />
<glyph unicode="&#xd0;" glyph-name="Eth" horiz-adv-x="629" d="M15 305V384H99V668H270Q393 668 447 640Q511 604 544 521T577 333T545 147T447 27Q395 0 270 0H99V305H15ZM195 587V384L352 385V306L195 305V81H278Q396 81 438 142T480 334T438 526T278 587H195Z" />
<glyph unicode="&#xd1;" glyph-name="Ntilde" horiz-adv-x="659" d="M580 0H482L166 541Q170 502 170 457V0H79V668H177L493 127Q489 166 489 211V668H580V0ZM162 803T188 823T238 844T308 823T374 801T431 843L474 807Q454 773 424 752T369 730T300 751T237 773T187
736L143 773Q162 803 188 823Z" />
<glyph unicode="&#xd2;" glyph-name="Ograve" horiz-adv-x="621" d="M242 681T311 681T432 652T513 573Q570 475 570 334Q570 196 512 96Q482 45 430 16T309 -13T188 16T108 95Q51 193 51 334Q51 474 110 573Q139 623 190 652ZM227 72T310 72T432 145T472 334T433
523T310 596T188 524T148 335T187 145ZM371 726L199 830L247 903L407 781L371 726Z" />
<glyph unicode="&#xd3;" glyph-name="Oacute" horiz-adv-x="621" d="M242 681T311 681T432 652T513 573Q570 475 570 334Q570 196 512 96Q482 45 430 16T309 -13T188 16T108 95Q51 193 51 334Q51 474 110 573Q139 623 190 652ZM227 72T310 72T432 145T472 334T433
523T310 596T188 524T148 335T187 145ZM429 832L257 728L221 783L381 905L429 832Z" />
<glyph unicode="&#xd4;" glyph-name="Ocircumflex" horiz-adv-x="621" d="M242 681T311 681T432 652T513 573Q570 475 570 334Q570 196 512 96Q482 45 430 16T309 -13T188 16T108 95Q51 193 51 334Q51 474 110 573Q139 623 190 652ZM227 72T310 72T432 145T472
334T433 523T310 596T188 524T148 335T187 145ZM315 800L230 714L182 750L281 860H346L446 750L395 714L315 800Z" />
<glyph unicode="&#xd5;" glyph-name="Otilde" horiz-adv-x="621" d="M242 681T311 681T432 652T513 573Q570 475 570 334Q570 196 512 96Q482 45 430 16T309 -13T188 16T108 95Q51 193 51 334Q51 474 110 573Q139 623 190 652ZM227 72T310 72T432 145T472 334T433
523T310 596T188 524T148 335T187 145ZM170 803T196 823T246 844T316 823T382 801T439 843L482 807Q462 773 432 752T377 730T308 751T245 773T195 736L151 773Q170 803 196 823Z" />
<glyph unicode="&#xd6;" glyph-name="Odieresis" horiz-adv-x="621" d="M242 681T311 681T432 652T513 573Q570 475 570 334Q570 196 512 96Q482 45 430 16T309 -13T188 16T108 95Q51 193 51 334Q51 474 110 573Q139 623 190 652ZM227 72T310 72T432 145T472 334T433
523T310 596T188 524T148 335T187 145ZM196 839T219 839T258 824T274 785T258 745T220 728T181 745T164 784T180 823ZM361 839T384 839T423 824T439 785T423 745T385 728T346 745T329 784T345 823Z" />
<glyph unicode="&#xd7;" glyph-name="multiply" horiz-adv-x="510" d="M463 153L407 97L256 246L105 95L48 151L198 301L49 449L106 506L254 358L403 506L462 452L313 303L463 153Z" />
<glyph unicode="&#xd8;" glyph-name="Oslash" horiz-adv-x="621" d="M570 334Q570 196 512 96Q482 45 430 16T320 -13T217 2L169 -116L96 -90L151 43Q51 132 51 334Q51 474 110 573Q139 623 190 652T302 681T406 664L446 761L517 736L471 623Q570 534 570 334ZM227
596T188 524T148 330T191 140L372 582Q344 596 310 596Q227 596 188 524ZM310 72Q393 72 432 145T472 338T431 526L251 84Q276 72 310 72Z" />
<glyph unicode="&#xd9;" glyph-name="Ugrave" horiz-adv-x="609" d="M75 245V668H171V259Q171 155 197 120Q225 73 303 73T411 120Q438 157 438 259V668H534V245Q534 128 489 64Q434 -11 306 -12T120 64Q75 128 75 245ZM358 726L186 830L234 903L394 781L358 726Z" />
<glyph unicode="&#xda;" glyph-name="Uacute" horiz-adv-x="609" d="M75 245V668H171V259Q171 155 197 120Q225 73 303 73T411 120Q438 157 438 259V668H534V245Q534 128 489 64Q434 -11 306 -12T120 64Q75 128 75 245ZM438 832L266 728L230 783L390 905L438 832Z" />
<glyph unicode="&#xdb;" glyph-name="Ucircumflex" horiz-adv-x="609" d="M75 245V668H171V259Q171 155 197 120Q225 73 303 73T411 120Q438 157 438 259V668H534V245Q534 128 489 64Q434 -11 306 -12T120 64Q75 128 75 245ZM307 800L222 714L174 750L273 860H338L438
750L387 714L307 800Z" />
<glyph unicode="&#xdc;" glyph-name="Udieresis" horiz-adv-x="609" d="M75 245V668H171V259Q171 155 197 120Q225 73 303 73T411 120Q438 157 438 259V668H534V245Q534 128 489 64Q434 -11 306 -12T120 64Q75 128 75 245ZM200 839T223 839T262 824T278 785T262
745T224 728T185 745T168 784T184 823ZM365 839T388 839T427 824T443 785T427 745T389 728T350 745T333 784T349 823Z" />
<glyph unicode="&#xdd;" glyph-name="Yacute" horiz-adv-x="521" d="M309 0H213V275L3 668H111L261 353L415 668H516L309 275V0ZM401 832L229 728L193 783L353 905L401 832Z" />
<glyph unicode="&#xde;" glyph-name="Thorn" horiz-adv-x="517" d="M429 540Q485 491 485 391T424 244Q389 216 339 205T202 194H149V0H79V700H149V594H229Q306 594 350 582T429 540ZM365 281Q413 315 413 388T375 498T230 535H149V253H214Q326 253 365 281Z" />
<glyph unicode="&#xdf;" glyph-name="germandbls" horiz-adv-x="580" d="M272 287T263 310T254 364T265 417T293 455T327 486Q367 520 367 556Q367 634 279 634Q217 634 188 602T159 500V-136L68 -135V502Q68 607 125 658T274 710T412 668T457 561Q457 526 439
497T399 450Q341 405 341 373Q341 337 364 318Q382 305 414 289Q446 276 464 267T506 238Q551 203 551 135T506 27T384 -13Q344 -13 295 0T223 31L246 98Q321 61 392 61T464 131Q464 152 450 169T420 195T375 218T330 242T294 269Z" />
<glyph unicode="&#xe0;" glyph-name="agrave" horiz-adv-x="487" d="M176 -13Q111 -13 73 25T34 127Q34 169 52 198T99 241Q151 266 208 266T314 261V339Q314 397 295 418T220 440T89 413L68 476Q97 494 144 505T227 516Q324 516 364 474T404 333V90Q404 55 428
55Q444 55 472 64L487 8Q453 -14 399 -14T321 37Q299 16 260 2T176 -13ZM195 58Q258 58 314 94V210Q290 214 236 214Q119 214 118 136Q118 58 195 58ZM293 577L121 681L169 754L329 632L293 577Z" />
<glyph unicode="&#xe1;" glyph-name="aacute" horiz-adv-x="487" d="M176 -13Q111 -13 73 25T34 127Q34 169 52 198T99 241Q151 266 208 266T314 261V339Q314 397 295 418T220 440T89 413L68 476Q97 494 144 505T227 516Q324 516 364 474T404 333V90Q404 55 428
55Q444 55 472 64L487 8Q453 -14 399 -14T321 37Q299 16 260 2T176 -13ZM195 58Q258 58 314 94V210Q290 214 236 214Q119 214 118 136Q118 58 195 58ZM331 681L159 577L123 632L283 754L331 681Z" />
<glyph unicode="&#xe2;" glyph-name="acircumflex" horiz-adv-x="487" d="M176 -13Q111 -13 73 25T34 127Q34 169 52 198T99 241Q151 266 208 266T314 261V339Q314 397 295 418T220 440T89 413L68 476Q97 494 144 505T227 516Q324 516 364 474T404 333V90Q404
55 428 55Q444 55 472 64L487 8Q453 -14 399 -14T321 37Q299 16 260 2T176 -13ZM195 58Q258 58 314 94V210Q290 214 236 214Q119 214 118 136Q118 58 195 58ZM237 667L152 581L104 617L203 727H268L368 617L317 581L237 667Z" />
<glyph unicode="&#xe3;" glyph-name="atilde" horiz-adv-x="487" d="M79 660T105 680T155 701T225 680T291 658T348 700L391 664Q371 630 341 609T286 587T217 608T154 630T104 593L60 630Q79 660 105 680ZM176 -13Q111 -13 73 25T34 127Q34 169 52 198T99 241Q151
266 208 266T314 261V339Q314 397 295 418T220 440T89 413L68 476Q97 494 144 505T227 516Q324 516 364 474T404 333V90Q404 55 428 55Q444 55 472 64L487 8Q453 -14 399 -14T321 37Q299 16 260 2T176 -13ZM195 58Q258 58 314 94V210Q290 214 236 214Q119 214 118
136Q118 58 195 58Z" />
<glyph unicode="&#xe4;" glyph-name="adieresis" horiz-adv-x="487" d="M125 707T148 707T187 692T203 653T187 613T149 596T110 613T93 652T109 691ZM290 707T313 707T352 692T368 653T352 613T314 596T275 613T258 652T274 691ZM176 -13Q111 -13 73 25T34 127Q34
169 52 198T99 241Q151 266 208 266T314 261V339Q314 397 295 418T220 440T89 413L68 476Q97 494 144 505T227 516Q324 516 364 474T404 333V90Q404 55 428 55Q444 55 472 64L487 8Q453 -14 399 -14T321 37Q299 16 260 2T176 -13ZM195 58Q258 58 314 94V210Q290
214 236 214Q119 214 118 136Q118 58 195 58Z" />
<glyph unicode="&#xe5;" glyph-name="aring" horiz-adv-x="487" d="M176 -12Q111 -12 73 26T34 128Q34 170 52 199T99 242Q151 267 208 267T314 262V340Q314 398 295 419T220 441T89 414L68 477Q97 495 144 506T227 517Q324 517 364 475T404 334V91Q404 56 428
56Q444 56 472 65L487 9Q453 -13 399 -13T321 38Q299 17 260 3T176 -12ZM195 59Q258 59 314 95V211Q290 215 236 215Q119 215 118 137Q118 59 195 59ZM330 734T330 691T303 618T226 587T150 617T124 690T150 762T227 792T303 763ZM249 641T260 656T271 690T261
724T228 738T194 724T183 690T193 656T226 641Z" />
<glyph unicode="&#xe6;" glyph-name="ae" horiz-adv-x="748" d="M312 339Q312 397 293 418T218 440T86 413L65 476Q94 494 141 505T238 516Q347 516 376 437Q421 516 526 516Q611 516 656 470T702 345Q702 303 688 252H394Q396 167 432 115T538 62T675 99L703
36Q627 -13 532 -13T377 54Q346 25 291 6T174 -13T73 25T35 127Q35 169 53 198T100 241Q152 266 208 266T312 261V339ZM237 214Q120 214 119 136Q119 60 196 58Q232 58 277 68T349 96Q322 146 314 210Q290 214 237 214ZM620 319V327Q620 381 598 411T536 442T472
429T433 393Q412 360 403 319H620Z" />
<glyph unicode="&#xe7;" glyph-name="ccedilla" horiz-adv-x="434" d="M320 -113Q320 -192 214 -255L173 -207Q243 -158 243 -108Q243 -83 225 -49H304Q320 -83 320 -113ZM277 -15Q176 -15 110 51T44 250T110 449T272 516Q340 516 396 487L369 423Q316 440 274
440Q215 440 176 395T136 251Q136 62 291 62Q335 62 384 75L399 9Q335 -15 277 -15Z" />
<glyph unicode="&#xe8;" glyph-name="egrave" d="M265 -13Q153 -13 99 63T44 255T102 443T261 516Q346 516 390 469T435 343Q435 308 420 253H126Q128 168 163 115T267 62T399 90L422 28Q350 -13 265 -13ZM353 326Q353 380 331 411T270 442T206 429T166 394Q142
354 136 320L353 318V326ZM344 577L172 681L220 754L380 632L344 577Z" />
<glyph unicode="&#xe9;" glyph-name="eacute" d="M265 -13Q153 -13 99 63T44 255T102 443T261 516Q346 516 390 469T435 343Q435 308 420 253H126Q128 168 163 115T267 62T399 90L422 28Q350 -13 265 -13ZM353 326Q353 380 331 411T270 442T206 429T166 394Q142
354 136 320L353 318V326ZM356 681L184 577L148 632L308 754L356 681Z" />
<glyph unicode="&#xea;" glyph-name="ecircumflex" d="M259 667L174 581L126 617L225 727H290L390 617L339 581L259 667ZM399 90L422 28Q350 -13 265 -13Q153 -13 99 63T44 255T102 443T261 516Q346 516 390 469T435 343Q435 308 420 253H126Q128 168 163 115T267
62T399 90ZM270 442Q197 442 166 394Q142 354 136 320L353 318V326Q353 380 331 411T270 442Z" />
<glyph unicode="&#xeb;" glyph-name="edieresis" d="M158 707T181 707T220 692T236 653T220 613T182 596T143 613T126 652T142 691ZM323 707T346 707T385 692T401 653T385 613T347 596T308 613T291 652T307 691ZM265 -13Q153 -13 99 63T44 255T102 443T261 516Q346
516 390 469T435 343Q435 308 420 253H126Q128 168 163 115T267 62T399 90L422 28Q350 -13 265 -13ZM353 326Q353 380 331 411T270 442T206 429T166 394Q142 354 136 320L353 318V326Z" />
<glyph unicode="&#xec;" glyph-name="igrave" horiz-adv-x="225" d="M158 0H67V502L158 511V0ZM154 577L-18 681L30 754L190 632L154 577Z" />
<glyph unicode="&#xed;" glyph-name="iacute" horiz-adv-x="225" d="M158 0H67V502L158 511V0ZM259 681L87 577L51 632L211 754L259 681Z" />
<glyph unicode="&#xee;" glyph-name="icircumflex" horiz-adv-x="225" d="M158 0H67V502L158 511V0ZM120 667L35 581L-13 617L86 727H151L251 617L200 581L120 667Z" />
<glyph unicode="&#xef;" glyph-name="idieresis" horiz-adv-x="225" d="M158 0H67V502L158 511V0ZM8 707T31 707T70 692T86 653T70 613T32 596T-7 613T-24 652T-8 691ZM173 707T196 707T235 692T251 653T235 613T197 596T158 613T141 652T157 691Z" />
<glyph unicode="&#xf0;" glyph-name="eth" horiz-adv-x="498" d="M152 -13T99 55T46 231T92 407T219 476T344 443Q317 540 256 583L180 517L131 573L186 620Q132 645 60 653L74 720Q181 717 258 681L329 741L375 685L322 640Q450 532 450 286Q450 -13 249 -13Q152
-13 99 55ZM135 221Q135 151 164 107T248 63T331 116T360 306Q360 335 359 355Q300 403 243 403Q135 403 135 221Z" />
<glyph unicode="&#xf1;" glyph-name="ntilde" horiz-adv-x="519" d="M105 660T131 680T181 701T251 680T317 658T374 700L417 664Q397 630 367 609T312 587T243 608T180 630T130 593L86 630Q105 660 131 680ZM454 347V0H364V342Q364 388 352 414T304 440T225 421T158
373V0H68V506H143L153 445Q181 472 228 494T320 516Q395 516 424 472T454 347Z" />
<glyph unicode="&#xf2;" glyph-name="ograve" horiz-adv-x="508" d="M346 -13T252 -13T102 50T46 250T104 452T257 516T406 453T462 253T404 51ZM255 442Q138 442 138 252T254 61Q302 61 336 106T370 256T341 401T255 442ZM326 577L154 681L202 754L362 632L326 577Z" />
<glyph unicode="&#xf3;" glyph-name="oacute" horiz-adv-x="508" d="M346 -13T252 -13T102 50T46 250T104 452T257 516T406 453T462 253T404 51ZM255 442Q138 442 138 252T254 61Q302 61 336 106T370 256T341 401T255 442ZM364 681L192 577L156 632L316 754L364 681Z" />
<glyph unicode="&#xf4;" glyph-name="ocircumflex" horiz-adv-x="508" d="M346 -13T252 -13T102 50T46 250T104 452T257 516T406 453T462 253T404 51ZM255 442Q138 442 138 252T254 61Q302 61 336 106T370 256T341 401T255 442ZM256 667L171 581L123 617L222 727H287L387
617L336 581L256 667Z" />
<glyph unicode="&#xf5;" glyph-name="otilde" horiz-adv-x="508" d="M346 -13T252 -13T102 50T46 250T104 452T257 516T406 453T462 253T404 51ZM255 442Q138 442 138 252T254 61Q302 61 336 106T370 256T341 401T255 442ZM108 660T134 680T184 701T254 680T320
658T377 700L420 664Q400 630 370 609T315 587T246 608T183 630T133 593L89 630Q108 660 134 680Z" />
<glyph unicode="&#xf6;" glyph-name="odieresis" horiz-adv-x="508" d="M346 -13T252 -13T102 50T46 250T104 452T257 516T406 453T462 253T404 51ZM255 442Q138 442 138 252T254 61Q302 61 336 106T370 256T341 401T255 442ZM148 707T171 707T210 692T226 653T210
613T172 596T133 613T116 652T132 691ZM313 707T336 707T375 692T391 653T375 613T337 596T298 613T281 652T297 691Z" />
<glyph unicode="&#xf7;" glyph-name="divide" horiz-adv-x="502" d="M193 174T210 190T251 206T291 190T308 151T292 110T251 92T210 109T193 150ZM454 239H48V318H454V239ZM193 437T210 453T251 469T291 453T308 414T292 373T251 355T210 372T193 413Z" />
<glyph unicode="&#xf8;" glyph-name="oslash" horiz-adv-x="513" d="M121 31Q46 96 46 242T105 452T260 516Q308 516 348 499L384 573L444 549L402 463Q468 397 468 256T410 51T255 -13Q213 -13 178 -1L137 -86L76 -62L121 31ZM258 442Q208 442 173 400T138 260T162
116L315 430Q292 442 258 442ZM257 61Q305 61 340 106T376 240T359 374L212 69Q229 61 257 61Z" />
<glyph unicode="&#xf9;" glyph-name="ugrave" horiz-adv-x="515" d="M210 -13Q128 -13 96 31T64 159V506H154V161Q154 111 167 88T219 64T296 76T358 111V503H448V-9H375L365 45Q336 21 294 4T210 -13ZM310 577L138 681L186 754L346 632L310 577Z" />
<glyph unicode="&#xfa;" glyph-name="uacute" horiz-adv-x="515" d="M210 -13Q128 -13 96 31T64 159V506H154V161Q154 111 167 88T219 64T296 76T358 111V503H448V-9H375L365 45Q336 21 294 4T210 -13ZM379 681L207 577L171 632L331 754L379 681Z" />
<glyph unicode="&#xfb;" glyph-name="ucircumflex" horiz-adv-x="515" d="M210 -13Q128 -13 96 31T64 159V506H154V161Q154 111 167 88T219 64T296 76T358 111V503H448V-9H375L365 45Q336 21 294 4T210 -13ZM258 667L173 581L125 617L224 727H289L389 617L338
581L258 667Z" />
<glyph unicode="&#xfc;" glyph-name="udieresis" horiz-adv-x="515" d="M210 -13Q128 -13 96 31T64 159V506H154V161Q154 111 167 88T219 64T296 76T358 111V503H448V-9H375L365 45Q336 21 294 4T210 -13ZM156 707T179 707T218 692T234 653T218 613T180 596T141
613T124 652T140 691ZM321 707T344 707T383 692T399 653T383 613T345 596T306 613T289 652T305 691Z" />
<glyph unicode="&#xfd;" glyph-name="yacute" horiz-adv-x="473" d="M49 -143Q104 -143 138 -112T199 -2L14 500L109 506L240 95L358 506H452L286 10Q247 -108 196 -159T62 -211Q29 -211 -6 -204L5 -140Q21 -143 49 -143ZM393 681L221 577L185 632L345 754L393 681Z" />
<glyph unicode="&#xfe;" glyph-name="thorn" horiz-adv-x="518" d="M158 700V469Q177 484 216 500T295 516Q371 516 422 454T473 278Q473 -13 252 -13Q200 -13 158 1V-211H68V700H158ZM280 440Q218 440 158 398V79Q196 63 253 63Q379 63 379 259Q379 440 280 440Z" />
<glyph unicode="&#xff;" glyph-name="ydieresis" horiz-adv-x="473" d="M49 -143Q104 -143 138 -112T199 -2L14 500L109 506L240 95L358 506H452L286 10Q247 -108 196 -159T62 -211Q29 -211 -6 -204L5 -140Q21 -143 49 -143ZM130 707T153 707T192 692T208 653T192
613T154 596T115 613T98 652T114 691ZM295 707T318 707T357 692T373 653T357 613T319 596T280 613T263 652T279 691Z" />
<glyph unicode="&#x2013;" glyph-name="endash" horiz-adv-x="556" d="M493 318V239H63V318H493Z" />
<glyph unicode="&#x2014;" glyph-name="emdash" horiz-adv-x="836" d="M773 318V239H63V318H773Z" />
<glyph unicode="&#x2018;" glyph-name="quoteleft" horiz-adv-x="223" d="M52 532Q52 637 141 719H224Q142 624 142 547Q142 514 159 475H64Q52 501 52 532Z" />
<glyph unicode="&#x2019;" glyph-name="quoteright" horiz-adv-x="255" d="M215 643Q215 538 126 456H43Q125 551 125 628Q125 661 108 700H203Q215 674 215 643Z" />
<glyph unicode="&#x201a;" glyph-name="quotesinglbase" horiz-adv-x="220" d="M163 59Q163 -46 74 -128H-9Q73 -33 73 44Q73 77 56 116H151Q163 90 163 59Z" />
<glyph unicode="&#x201c;" glyph-name="quotedblleft" horiz-adv-x="393" d="M222 532Q222 637 311 719H394Q312 624 312 547Q312 514 329 475H234Q222 501 222 532ZM52 532Q52 637 141 719H224Q142 624 142 547Q142 514 159 475H64Q52 501 52 532Z" />
<glyph unicode="&#x201d;" glyph-name="quotedblright" horiz-adv-x="425" d="M215 643Q215 538 126 456H43Q125 551 125 628Q125 661 108 700H203Q215 674 215 643ZM385 643Q385 538 296 456H213Q295 551 295 628Q295 661 278 700H373Q385 674 385 643Z" />
<glyph unicode="&#x201e;" glyph-name="quotedblbase" horiz-adv-x="390" d="M163 59Q163 -46 74 -128H-9Q73 -33 73 44Q73 77 56 116H151Q163 90 163 59ZM333 59Q333 -46 244 -128H161Q243 -33 243 44Q243 77 226 116H321Q333 90 333 59Z" />
<glyph unicode="&#x2022;" glyph-name="bullet" horiz-adv-x="371" d="M69 273T69 323T102 406T185 440T268 407T302 323T269 240T186 206T103 239Z" />
<glyph unicode="&#x2039;" glyph-name="guilsinglleft" horiz-adv-x="325" d="M276 431L127 277L276 124L218 73L47 253V301L218 481L276 431Z" />
<glyph unicode="&#x203a;" glyph-name="guilsinglright" horiz-adv-x="321" d="M194 308L46 462L104 512L275 332V284L104 104L46 155L194 308Z" />
</font>
</defs>
</svg>
