<?xml version="1.0" standalone="no"?>
<!DOCTYPE svg PUBLIC "-//W3C//DTD SVG 1.1//EN" "http://www.w3.org/Graphics/SVG/1.1/DTD/svg11.dtd">
<svg xmlns="http://www.w3.org/2000/svg">
<defs >
<font id="CinzelDecorative" horiz-adv-x="625" ><font-face
    font-family="Cinzel Decorative"
    units-per-em="1000"
    panose-1="0 0 5 0 0 0 0 0 0 0"
    ascent="976"
    descent="-372"
    alphabetic="0" />
<glyph unicode=" " glyph-name="space" horiz-adv-x="250" />
<glyph unicode="!" glyph-name="exclam" horiz-adv-x="230" d="M140 403L119 170H109L89 403L77 702H152L140 403ZM134 -4T115 -4T83 9T70 41T83 73T115 86T147 73T160 41T147 9Z" />
<glyph unicode="&quot;" glyph-name="quotedbl" horiz-adv-x="315" d="M50 505Q68 590 68 629T66 700L136 714Q136 709 136 693T131 641T107 560T59 500L50 505ZM180 505Q198 590 198 629T196 700L266 714Q266 709 266 693T261 641T237 560T189 500L180 505Z" />
<glyph unicode="#" glyph-name="numbersign" horiz-adv-x="536" d="M516 467H403L365 247H472V217H359L321 0H289L327 217H159L121 0H89L127 217H20V247H133L171 467H64V497H177L212 700H244L209 497H377L412 700H444L409 497H516V467ZM333 247L371 467H203L165 247H333Z" />
<glyph unicode="$" glyph-name="dollar" horiz-adv-x="469" d="M59 41Q55 55 55 95T70 180H79Q78 169 78 159Q78 105 106 66T190 18L215 339L126 421Q72 471 72 543T121 665T243 714L249 788L279 787L274 713Q306 710 335 704H373V581H364Q364 637 320 665Q299
678 271 682L250 402L365 295Q415 249 415 182T392 73Q344 -13 218 -14L211 -102L181 -99L188 -11Q99 -1 59 41ZM194 681T161 648T128 564T169 477L221 428L241 683Q194 681 161 648ZM279 18T318 55T357 149T318 243L243 313L220 16Q279 18 318 55Z" />
<glyph unicode="%" glyph-name="percent" horiz-adv-x="684" d="M311 660Q327 629 327 596Q327 476 261 408Q215 361 154 361T64 408Q44 440 44 476Q44 598 109 665Q155 714 218 714Q235 714 253 709T311 681Q355 657 381 657T430 664T484 690T519 709L541 700L168
-11L143 0L499 676Q496 675 483 668T464 658T445 650T423 642Q398 636 374 638T311 660ZM269 537Q275 571 275 600T267 652Q252 694 213 694Q153 694 119 603Q96 541 96 493T104 423Q119 381 158 381T226 423T269 537ZM470 339T531 339T621 291Q641 259 641 224Q641
101 575 34Q529 -14 468 -14T378 34Q358 66 358 101Q358 224 423 291Q470 339 531 339ZM583 162Q589 196 589 225T581 277Q566 319 527 319T459 277T416 162Q410 129 410 100T418 48Q433 6 472 6T540 48T583 162Z" />
<glyph unicode="&amp;" glyph-name="ampersand" horiz-adv-x="818" d="M1144 -70Q1056 -146 949 -146Q873 -146 784 -105Q730 -79 684 -44T571 47Q480 -13 366 -13Q309 -13 254 3Q174 25 120 81Q64 139 64 222Q64 286 94 333T179 409Q136 475 136 546T186 666T326
714Q440 714 503 643L489 530H479Q476 601 436 642T335 684T239 646T204 550Q204 486 244 432T378 297T601 107Q655 156 690 223Q738 312 738 417Q738 467 726 516Q708 591 648 662T492 783L497 789Q581 755 640 701Q766 586 766 410Q766 300 707 194Q673 134 624
88L688 36Q790 -46 892 -81Q939 -97 1002 -97T1139 -61L1144 -70ZM223 72Q294 18 384 18Q471 18 548 66Q409 182 323 257T196 385Q136 329 136 233T223 72Z" />
<glyph unicode="&apos;" glyph-name="quotesingle" horiz-adv-x="170" d="M35 505Q53 590 53 629T51 700L121 714Q121 709 121 693T116 641T92 560T44 500L35 505Z" />
<glyph unicode="(" glyph-name="parenleft" horiz-adv-x="338" d="M160 198T204 74T307 -91L301 -100Q215 -55 153 68Q90 194 90 335T152 589T303 732L309 724Q246 694 203 586T160 338Z" />
<glyph unicode=")" glyph-name="parenright" horiz-adv-x="338" d="M179 478T136 586T30 724L36 732Q125 701 187 589T249 340Q249 194 186 70T38 -100L32 -91Q90 -51 133 71Q179 198 179 338Z" />
<glyph unicode="*" glyph-name="asterisk" horiz-adv-x="386" d="M348 623L248 604L200 605L239 579L310 505L291 474L256 466L207 555L194 601L180 555L132 466L97 474L78 504L148 579L187 605L140 604L39 623L36 658L60 685L152 642L190 613L174 658L160 759L193
773L226 759L214 658L198 613L235 642L327 686L351 659L348 623Z" />
<glyph unicode="+" glyph-name="plus" horiz-adv-x="481" d="M442 332V287H263V109H218V287H40V332H218V511H263V332H442Z" />
<glyph unicode="," glyph-name="comma" horiz-adv-x="185" d="M45 -81Q72 -72 81 -56T91 -32Q91 -7 71 15Q56 33 54 40Q51 54 56 66Q65 86 89 86Q119 86 130 59T141 14Q141 -38 104 -67Q79 -88 47 -89L45 -81Z" />
<glyph unicode="-" glyph-name="hyphen" horiz-adv-x="380" d="M34 292L40 314H340L346 292L340 269H40L34 292Z" />
<glyph unicode="." glyph-name="period" horiz-adv-x="179" d="M109 -4T90 -4T58 9T45 41T58 73T90 86T122 73T135 41T122 9Z" />
<glyph unicode="/" glyph-name="slash" horiz-adv-x="406" d="M7 5L368 714L399 696L38 -14L7 5Z" />
<glyph unicode="0" glyph-name="zero" horiz-adv-x="670" d="M207 614T335 614T541 528T620 300T542 73T335 -14T129 72T50 300T128 527ZM432 584T335 584T179 506T120 300T179 94T335 16Q399 16 448 51T523 151T550 300Q550 428 491 506Z" />
<glyph unicode="1" glyph-name="one" horiz-adv-x="344" d="M143 64V537Q143 559 127 574T88 590H67V600H283V590H262Q240 590 224 574T208 536V64Q208 33 236 17Q248 10 263 10H284V0H67L68 10H89Q111 10 127 26T143 64Z" />
<glyph unicode="2" glyph-name="two" horiz-adv-x="553" d="M253 614Q354 614 414 568T474 443Q474 374 424 305Q406 280 393 263T354 220T314 182T271 144T231 112T192 81T159 56H393Q436 56 459 71T511 130H521L473 0H58V9Q399 289 399 441Q399 510 361 548T257
587Q183 587 141 553T100 455H90L73 557Q101 582 152 598T253 614Z" />
<glyph unicode="3" glyph-name="three" horiz-adv-x="503" d="M61 541Q124 612 233 612Q311 612 362 571T414 466T371 352T277 297Q341 286 387 239T433 125T403 7Q340 -100 203 -130Q165 -138 130 -138T60 -132L62 -122Q67 -122 72 -122Q145 -122 210 -93T317
-8T358 125T302 242T153 284L155 294Q155 294 156 294Q201 294 243 313T311 371T338 455Q338 511 306 546T214 582T121 547T88 458Q88 453 88 448H78L61 541Z" />
<glyph unicode="4" glyph-name="four" horiz-adv-x="583" d="M416 149V-37Q416 -59 428 -70Q448 -90 471 -90H482V-100H284L285 -90H295Q318 -90 334 -75T351 -38V149H40V159L406 614H416V204H459Q485 204 494 208T514 224H524L503 149H416ZM351 204V496L115 204H351Z" />
<glyph unicode="5" glyph-name="five" horiz-adv-x="498" d="M108 351Q164 363 209 363T294 349Q423 303 423 165Q423 109 405 64T359 -11T298 -65T229 -102Q140 -133 98 -133Q74 -133 50 -131L52 -121Q54 -121 67 -121T115 -112T188 -80T262 -28T320 48Q348 102
348 159T313 258Q270 308 182 308Q130 308 66 289L57 293L135 564L333 579Q387 579 412 629H422L389 524L154 509L108 351Z" />
<glyph unicode="6" glyph-name="six" horiz-adv-x="560" d="M296 367Q224 367 185 315L179 324Q210 361 251 382T334 404T413 386T476 324Q505 271 505 195T449 53Q392 -15 292 -15T128 60T65 264Q65 373 102 477Q138 577 213 648Q289 721 401 734L405 727Q335
705 284 660T201 553Q140 433 140 272Q140 155 180 85T291 15T396 68T430 196Q430 305 368 346Q338 367 296 367Z" />
<glyph unicode="7" glyph-name="seven" horiz-adv-x="502" d="M120 545Q91 545 74 531T45 485H35L63 598H463L355 310Q325 229 282 101T221 -100Q221 -100 151 -100Q264 184 314 314L402 545H120Z" />
<glyph unicode="8" glyph-name="eight" horiz-adv-x="552" d="M492 91T433 39T276 -14T119 38T60 171Q60 240 97 286T204 366Q96 444 96 547Q96 619 145 666Q195 714 276 714T406 669T456 545Q456 485 424 440T333 373Q424 328 458 283Q492 236 492 175Q492 91
433 39ZM171 560Q171 462 274 403L296 391Q381 454 381 553Q381 613 353 648T276 684T199 648T171 560ZM135 168Q135 99 172 58T277 16T381 58T417 161Q417 197 409 214T394 242T377 261T358 277T337 291T315 303T292 315Q257 333 234 347Q135 280 135 168Z" />
<glyph unicode="9" glyph-name="nine" horiz-adv-x="560" d="M229 195Q128 195 82 276Q56 323 56 391Q56 488 114 549Q174 612 273 612T434 537T495 324Q495 194 443 82Q385 -45 283 -100Q226 -131 159 -137L156 -130Q224 -111 276 -67T359 40Q420 161 420 302Q420
582 266 582Q198 582 165 530T131 402Q131 323 166 277T263 230Q307 230 345 255Q362 266 376 282L381 273Q352 236 311 216T229 195Z" />
<glyph unicode=":" glyph-name="colon" horiz-adv-x="179" d="M109 379T90 379T58 392T45 423T58 455T90 469T122 456T135 424T122 392ZM109 -4T90 -4T58 9T45 41T58 73T90 86T122 73T135 41T122 9Z" />
<glyph unicode=";" glyph-name="semicolon" horiz-adv-x="184" d="M109 407T90 407T58 420T45 452T58 484T90 497T122 484T135 453T122 421ZM45 -81Q72 -72 81 -56T91 -32Q91 -7 71 15Q56 33 54 40Q51 54 56 66Q65 86 89 86Q119 86 130 59T141 14Q141 -38 104
-67Q79 -88 47 -89L45 -81Z" />
<glyph unicode="&lt;" glyph-name="less" horiz-adv-x="481" d="M442 523V475L99 310L442 144V96L40 287V332L442 523Z" />
<glyph unicode="=" glyph-name="equal" horiz-adv-x="481" d="M40 364V409H442V364H40ZM40 189V234H442V189H40Z" />
<glyph unicode="&gt;" glyph-name="greater" horiz-adv-x="481" d="M40 523L442 332V287L40 96V144L382 310L40 475V523Z" />
<glyph unicode="?" glyph-name="question" horiz-adv-x="413" d="M168 714Q259 714 311 669T363 544Q363 482 323 433Q290 392 257 362Q198 308 186 267Q179 247 179 223T196 175L190 170Q146 211 146 266Q146 311 196 369Q217 393 238 419Q288 480 288 544Q288
633 232 667Q205 684 168 684Q108 684 74 644T40 536Q40 533 40 530H30L20 625Q43 667 81 690T168 714ZM199 -4T181 -4T149 9T135 41T148 73T180 86T212 73T225 41T212 9Z" />
<glyph unicode="@" glyph-name="at" horiz-adv-x="977" d="M59 166T59 240T91 395Q156 549 298 630Q408 693 540 693Q748 693 849 562Q917 473 917 357Q917 275 892 203T833 78T754 -15Q661 -100 520 -119Q493 -123 455 -123Q336 -123 194 -63L190 -53Q312 -98
416 -98Q465 -98 510 -88Q650 -57 740 49T850 309Q853 338 853 382T836 478Q811 554 754 600Q679 662 560 662T343 606Q220 534 156 390Q115 299 115 220Q115 175 130 145Q150 103 192 103Q224 103 247 122T284 154T314 188T341 222T367 259T390 291L572 541H579L620
137Q623 114 634 102T661 90H666L665 83H507L508 90H515Q528 90 542 100T556 127L550 234H386Q326 150 283 112Q240 73 188 73T98 119ZM538 451L402 257H549L538 451Z" />
<glyph unicode="A" glyph-name="A" horiz-adv-x="712" d="M118 734Q183 761 243 761Q293 761 346 724Q375 704 411 646Q435 606 472 501L594 155Q636 39 679 -29T759 -132T834 -181T898 -195T944 -191L945 -201Q897 -217 851 -217T759 -194T673 -128Q587 -41 527
137L488 251H214L145 73Q140 61 140 49T150 24T183 10H191V0H-10V10H-1Q23 10 46 24T84 68L332 662Q278 739 198 739Q162 739 121 724L118 734ZM225 281H478L399 514Q376 581 357 619L225 281Z" />
<glyph unicode="B" glyph-name="B" horiz-adv-x="594" d="M395 436Q377 417 354 408Q452 394 503 339T554 203Q554 106 476 46T271 -14T72 48T0 225Q0 231 0 237L11 239Q31 90 135 46V628Q133 655 115 672T70 690H58V700H226Q320 700 376 657T433 545T395 436ZM200
668V28Q233 23 276 23Q372 23 425 74T479 208Q479 252 463 286T421 339Q355 390 235 390Q234 390 234 390L233 399Q234 399 234 399Q285 399 321 432T358 536Q358 668 213 668V668H200Z" />
<glyph unicode="C" glyph-name="C" horiz-adv-x="821" d="M797 351Q797 179 705 83T443 -14Q329 -14 238 34T96 165T45 350T95 536T233 666T429 714Q497 714 567 696T685 646L705 505H696Q675 589 599 636T430 684Q297 684 209 590T120 352T211 113T451 16T692
112T786 375H796Q797 363 797 351Z" />
<glyph unicode="D" glyph-name="D" horiz-adv-x="838" d="M-100 554Q-71 639 -3 671T238 703Q274 703 420 700Q526 697 607 654T733 533T779 350Q779 193 680 97T420 0H81L82 10H94Q119 10 137 26T158 67V670Q33 667 -19 631Q-46 612 -60 595T-89 550L-100 554ZM223
670V30H420Q547 30 625 118T704 350Q704 445 669 517T569 630T420 670H223Z" />
<glyph unicode="E" glyph-name="E" horiz-adv-x="607" d="M73 10Q99 10 117 28T137 73V633Q137 657 118 673T73 690H61L60 700H263Q294 700 330 706T382 718V592H372V610Q372 634 356 651T316 669H202V360H392Q412 361 426 375T440 410V424H450V266H440V281Q440
301 427 315T393 330H202V31H415Q489 31 528 64T593 162H603L545 0H60V10H73Z" />
<glyph unicode="F" glyph-name="F" horiz-adv-x="579" d="M569 281Q569 301 556 315T522 330H202V73Q202 47 221 29T266 10H279V0H60V10H73Q99 10 117 28T137 73V633Q137 657 118 673T73 690H61L60 700H353Q396 700 429 707T472 718V605H462V620Q462 640 448 654T413
669H202V360H521Q541 361 555 375T569 410V424H579V266H569V281Z" />
<glyph unicode="G" glyph-name="G" horiz-adv-x="846" d="M969 -174Q842 -174 761 -93Q701 -33 682 58Q587 -14 449 -14Q340 -14 251 33T111 164T60 351T110 538T250 668T449 714Q587 714 692 646L712 505H703Q673 621 567 663Q515 684 449 684Q314 684 225 590T135
352T225 112T449 16Q514 16 573 39T674 103V280Q674 302 661 313T624 325H608V335H804V325H789Q764 325 751 314T739 280V126Q745 -32 842 -100Q910 -148 1018 -148Q1063 -148 1116 -139L1117 -149Q1037 -174 969 -174Z" />
<glyph unicode="H" glyph-name="H" horiz-adv-x="813" d="M729 10H741V0H523V10H536Q561 10 579 27T600 71V331H213V70Q213 -70 145 -118Q114 -140 65 -151L60 -142Q105 -118 126 -68T148 70V628Q148 654 129 672T84 690H72V700H290V690H277Q251 690 233 672T213
628V361H600V610Q601 738 657 788Q691 818 749 831L754 822Q709 798 687 748T665 610V73Q665 47 683 29T729 10Z" />
<glyph unicode="I" glyph-name="I" horiz-adv-x="393" d="M321 10H334V0H115V10H128Q154 10 173 28T192 73V673L85 667Q-16 661 -16 594Q-16 567 1 548T57 527V521Q43 518 29 518Q-15 518 -37 553Q-50 573 -50 597Q-50 682 79 696Q80 696 178 702T334 720L336
710Q293 703 275 681T257 620V73Q258 47 276 29T321 10Z" />
<glyph unicode="J" glyph-name="J" horiz-adv-x="339" d="M-80 -135Q-53 -144 -27 -144T29 -133T82 -99T121 -28T137 83V627Q136 653 118 671T73 690H60V700H279V690H266Q240 690 222 672T202 627V80Q202 12 181 -39T128 -116Q68 -163 -5 -163Q-48 -163 -84 -146L-80
-135Z" />
<glyph unicode="K" glyph-name="K" horiz-adv-x="669" d="M266 10H279V0H60V10H73Q99 10 117 28T137 73V628Q136 654 118 672T73 690H60V700H279V690H266Q240 690 222 672T202 628V73Q202 47 221 29T266 10ZM959 -150V-160Q921 -169 883 -169Q719 -169 565 -5L234
348L470 644Q478 654 478 662T475 676Q467 691 446 691H436V700H647V691H643Q577 691 535 644L302 375L642 12Q708 -59 790 -104T959 -150Z" />
<glyph unicode="L" glyph-name="L" horiz-adv-x="401" d="M250 -19Q463 -93 569 -119T752 -146T921 -111L926 -119Q804 -203 680 -203Q553 -203 391 -124Q266 -62 236 -49Q129 -1 60 0V10H73Q99 10 117 28T137 73V627Q136 653 118 671T73 690H60V700H279V690H266Q240
690 221 672T202 627V50Q202 32 204 23T217 1T250 -19Z" />
<glyph unicode="M" glyph-name="M" horiz-adv-x="931" d="M1100 -162Q1106 -162 1112 -162V-172Q1084 -176 1050 -176T965 -161T873 -105Q789 -21 771 113L710 558L502 88Q474 27 468 -14H458L199 549L155 52Q153 35 165 22T193 9Q193 9 193 9H209V0H15V10H31Q58
10 78 26T104 70L167 616Q79 789 -44 789Q-55 789 -67 788V798Q-40 805 -23 805T14 804T61 794T112 771T154 739T188 702Q215 666 231 633L472 111L741 714H750L843 122Q864 -18 933 -90T1100 -162Z" />
<glyph unicode="N" glyph-name="N" horiz-adv-x="841" d="M1054 -152Q974 -177 910 -161Q843 -143 794 -105Q747 -67 698 -14L171 570V70Q172 35 202 18Q216 10 232 10H251V0H45V10H64Q89 10 107 27T125 71V620Q120 627 105 646T80 678T53 709T22 741T-12 769Q-42
792 -76 802T-133 812T-184 804L-188 814Q-140 834 -96 834T-19 824T50 786T110 736T167 676L671 116V629Q670 655 652 672T609 690H590V700H796V690H778Q753 690 735 673T716 630V65Q726 54 744 32T770 1T793 -25T818 -51T844 -75T873 -98T904 -118Q928 -132 958
-139T1008 -146T1050 -142L1054 -152Z" />
<glyph unicode="O" glyph-name="O" horiz-adv-x="929" d="M277 467Q273 480 273 489T274 511T278 544T292 585T315 625T348 660T394 688Q447 714 523 714Q676 714 772 613T869 353T755 91T466 -14T176 90T60 360Q60 467 110 550T253 680L259 671Q194 628 166 547T137
375Q137 206 229 111T465 16T700 111T792 363Q792 498 720 591T515 684Q456 684 408 663Q321 626 293 541Q285 516 285 498T287 469L277 467Z" />
<glyph unicode="P" glyph-name="P" horiz-adv-x="620" d="M352 716Q439 716 497 674Q575 618 575 499Q575 413 527 352Q475 287 382 287Q333 287 293 310T246 391L255 394Q266 351 306 334Q333 322 354 322Q436 322 473 386Q500 433 500 498Q500 602 442 648Q398
684 330 684Q314 684 303 683T202 666V73Q203 46 222 28T266 10H279V0H60V10H73Q98 10 117 28T137 73V614Q137 640 122 654T83 669Q78 669 73 668L61 667L59 677Q111 682 198 696T307 713T352 716Z" />
<glyph unicode="Q" glyph-name="Q" horiz-adv-x="919" d="M1403 -195T1349 -209T1252 -227T1176 -231Q1068 -231 955 -194Q911 -180 807 -138Q547 -34 445 -14V-4Q446 -4 448 -4Q622 -4 714 110Q782 195 782 338T692 584Q600 689 453 689Q364 689 289 647T171
527T127 351Q127 284 150 226T214 131Q273 77 351 77Q393 77 435 96Q497 124 518 190L527 187Q508 115 449 76Q405 47 342 47Q322 47 299 50Q182 67 116 150T50 345T103 541T248 673T449 719Q570 719 664 668T808 533T859 347Q859 264 830 197T753 86Q659 0 541
-16Q622 -32 792 -82T963 -133Q1107 -173 1240 -173Q1316 -173 1390 -158Q1496 -138 1551 -84L1555 -89Q1528 -132 1444 -174Q1403 -195 1349 -209Z" />
<glyph unicode="R" glyph-name="R" horiz-adv-x="652" d="M948 -170Q906 -181 874 -181T816 -177T763 -162T709 -135T659 -98Q613 -61 576 -18T431 143T289 301T235 342V352Q293 352 312 354T354 363T391 381Q450 419 450 507Q450 580 418 624T326 669H202V73Q202
48 220 29T266 10H278L279 0H60V10H73Q98 10 117 28T137 72V627Q136 653 118 671T73 690H60V700H330Q418 700 471 651T525 520T476 380T356 321Q356 321 355 321Q389 285 432 237Q605 46 654 -3T740 -83T807 -130Q866 -162 924 -162Q936 -162 948 -160V-170Z" />
<glyph unicode="S" glyph-name="S" horiz-adv-x="549" d="M119 266Q67 198 67 119Q67 25 146 -27Q192 -58 250 -58T352 -35Q433 7 443 106Q444 113 444 120Q444 157 424 200T357 279L177 421Q118 467 118 540T165 663T292 714Q332 714 379 704H419L421 581H411Q410
629 377 656T293 684T208 651T174 565T218 477L403 331Q513 244 513 121Q513 29 440 -37Q377 -94 272 -94Q208 -94 158 -70Q64 -26 45 80Q42 96 42 120T56 187T110 273L119 266Z" />
<glyph unicode="T" glyph-name="T" horiz-adv-x="618" d="M-59 501Q-90 538 -90 574T-73 637T-18 682T68 701H478Q509 701 546 707T599 719V593L589 594V611Q589 635 572 652T532 671H342V72Q343 36 374 18Q389 10 406 10H419V0H200V10H213Q239 10 257 28T277
71V671H68Q-12 671 -48 620Q-67 594 -67 566T-51 506L-59 501Z" />
<glyph unicode="U" glyph-name="U" horiz-adv-x="783" d="M887 872Q895 872 904 872V862Q794 862 730 790T666 580V247Q666 130 592 58T395 -14T196 57T119 246V641Q119 670 93 684Q81 690 66 690H50V700H253V690H237Q215 690 200 677T184 642V260Q184 151 242
85T396 18Q497 18 558 81T619 247V579Q619 726 693 799T887 872Z" />
<glyph unicode="V" glyph-name="V" horiz-adv-x="718" d="M774 896Q808 919 855 932T931 945T968 945V935Q921 933 880 917T813 879T761 822T723 761T691 697L413 89Q376 8 376 -14H367L86 627Q72 659 48 674T-2 690H-10V700H215V690H206Q176 690 166 662Q164
656 164 648T169 628L378 104L626 697Q685 836 774 896Z" />
<glyph unicode="W" glyph-name="W" horiz-adv-x="954" d="M1191 944Q1198 944 1204 944V934Q1157 932 1115 912T1044 865T990 798Q950 736 922 656L730 99Q710 36 708 -12H699L495 559L334 55Q298 -58 218 -121Q160 -168 88 -168Q63 -168 35 -162L37 -152Q52 -155
71 -155T123 -143T188 -100Q253 -37 288 58L86 629Q74 659 49 674T-2 690H-10V700H212V690H203Q182 690 172 677T161 651T164 629L316 142L502 716L511 715L709 161L857 656Q883 743 937 813Q1037 944 1191 944Z" />
<glyph unicode="X" glyph-name="X" horiz-adv-x="662" d="M659 10H673V0H429V10H441Q463 10 475 30Q482 41 482 51T477 71L323 314L130 31Q60 -71 -11 -116Q-68 -151 -136 -151Q-154 -151 -172 -149V-139Q-102 -136 -43 -84Q7 -39 52 24Q61 35 80 62L292 362L122
631Q98 666 61 682Q41 690 21 690H7V700H249V690H237Q224 690 212 680Q187 659 201 629L336 417L528 690Q594 783 653 820T781 857Q794 857 807 856V846Q759 845 723 821Q704 807 690 797T658 765T631 733T604 698T581 667L365 371L558 68Q576 43 602 27T659 10Z"
/>
<glyph unicode="Y" glyph-name="Y" horiz-adv-x="618" d="M-40 757Q-33 757 -15 757T34 751T91 734T143 701T187 661T223 612T253 561T279 506Q297 463 308 432T320 397T323 390Q326 382 328 376Q331 383 342 413T362 467T392 535T428 604T471 663T523 714Q587
757 659 757V747Q603 747 545 688T445 546T377 373T350 220V73Q350 37 381 19Q396 10 414 10H426V0H208V10H221Q246 10 265 28T285 72V221Q285 288 257 378T185 550T80 690T-40 747V757Z" />
<glyph unicode="Z" glyph-name="Z" horiz-adv-x="636" d="M996 -89Q903 -197 746 -197Q626 -197 501 -155Q359 -107 277 -71Q123 -3 72 0H60V9L480 671H143Q109 670 92 641Q84 627 84 611V593H74V719Q89 713 127 707T179 701T195 701H474Q516 701 545 706T580
714V705L143 15Q152 13 250 -19Q592 -131 757 -131Q884 -131 991 -81L996 -89Z" />
<glyph unicode="[" glyph-name="bracketleft" horiz-adv-x="332" d="M120 -90V722H289V712L185 692V-60L292 -80V-90H120Z" />
<glyph unicode="\" glyph-name="backslash" horiz-adv-x="406" d="M7 696L38 714L399 5L368 -14L7 696Z" />
<glyph unicode="]" glyph-name="bracketright" horiz-adv-x="332" d="M43 722H212V-90H40V-80L147 -60V692L43 712V722Z" />
<glyph unicode="^" glyph-name="asciicircum" horiz-adv-x="523" d="M232 371H292L488 182H425L262 336L98 182H35L232 371Z" />
<glyph unicode="_" glyph-name="underscore" horiz-adv-x="500" d="M0 -90V-60H500V-90H0Z" />
<glyph unicode="`" glyph-name="grave" horiz-adv-x="439" d="M240 753L233 746Q152 784 72 831Q86 859 113 884Q176 823 240 753Z" />
<glyph unicode="a" glyph-name="a" horiz-adv-x="712" d="M715 10H723V0H498V10H507Q528 10 538 23T549 49T545 73L481 243H211L144 72Q140 60 140 49T150 24T182 10H191V0H-10V10H-1Q24 10 48 26T87 73L313 611Q350 692 350 714H359L627 73Q641 42 665 26T715
10ZM223 273H469L349 594L223 273Z" />
<glyph unicode="b" glyph-name="b" horiz-adv-x="586" d="M304 0H60L61 10H73Q99 10 117 28T137 72V628Q136 654 118 672T73 690H61L60 700H259Q362 700 419 655T476 533Q476 473 444 434T366 381Q445 369 491 316T537 183T476 51T304 0ZM202 37H300Q301 37 302
37Q378 37 420 78T462 195Q462 238 448 270T411 322Q353 370 237 370Q237 370 236 370V379Q368 379 395 477Q401 499 401 526Q401 594 364 631T255 668H202V37Z" />
<glyph unicode="c" glyph-name="c" horiz-adv-x="760" d="M259 -13T160 87T60 350T159 614T423 714Q557 714 660 646L680 505H671Q649 591 582 637T423 684Q292 684 214 593T135 352T212 111T417 16Q529 16 604 77Q685 143 702 292H710L698 135Q607 -14 417 -14Q259
-13 160 87Z" />
<glyph unicode="d" glyph-name="d" horiz-adv-x="807" d="M559 700T658 604T758 350T659 97T399 0H60V10H73Q99 10 117 28T137 73V633Q137 657 118 673T73 690H61L60 700H399Q559 700 658 604ZM202 670V30H399Q483 30 547 70T647 182T683 350Q683 494 605 582T399
670H202Z" />
<glyph unicode="e" glyph-name="e" horiz-adv-x="577" d="M73 10Q99 10 117 28T137 73V633Q137 657 118 673T73 690H61L60 700H353Q384 700 420 706T472 718V592H462V610Q462 634 446 651T406 669H202V360H371Q391 361 405 375T419 410V424H429V266H419V281Q419
301 406 315T372 330H202V31H345Q419 31 458 64T523 162H533L475 0H60V10H73Z" />
<glyph unicode="f" glyph-name="f" horiz-adv-x="541" d="M472 689V605H462V620Q462 640 448 654T413 669H202V360H371Q391 361 405 375T419 409V424H429V266H419V281Q419 301 406 315T372 330H202V73Q202 47 221 29T266 10H279V0H60V10H73Q99 10 117 28T137 73V633Q137
657 118 673T73 690H61L60 700H353Q384 700 420 706T472 718V689Z" />
<glyph unicode="g" glyph-name="g" horiz-adv-x="798" d="M259 -13T160 87T60 350T159 613T419 714Q557 714 662 646L682 505H673Q651 591 585 637T419 684Q292 684 214 592T135 350T213 109T419 16Q484 16 542 39T645 103V280Q645 302 632 313T594 325H578V335H774V325H759Q734
325 721 314T709 280V115Q683 81 647 54T551 7T419 -14Q259 -13 160 87Z" />
<glyph unicode="h" glyph-name="h" horiz-adv-x="813" d="M547 10Q573 10 591 28T611 72V331H202V72Q202 46 221 28T266 10H279V0H60V10H73Q99 10 117 28T137 72V628Q136 654 118 672T73 690H60V700H279V690H266Q240 690 222 672T202 628V361H611V628Q610 664
579 682Q564 690 547 690H534V700H753V690H740Q714 690 696 672T676 627V72Q677 46 695 28T740 10H753V0H534V10H547Z" />
<glyph unicode="i" glyph-name="i" horiz-adv-x="338" d="M73 10Q99 10 117 28T137 73V628Q136 654 118 672T73 690H60V700H279V690H266Q240 690 222 672T202 628V73Q202 47 221 29T266 10H279V0H60V10H73Z" />
<glyph unicode="j" glyph-name="j" horiz-adv-x="324" d="M266 690Q230 690 211 659Q203 645 202 627V0Q202 -84 150 -142T20 -200V-191Q69 -174 103 -118T137 3V627Q136 653 118 671T73 690H60V700H279V690H266Z" />
<glyph unicode="k" glyph-name="k" horiz-adv-x="657" d="M266 10H279V0H60V10H73Q99 10 117 28T137 73V628Q136 654 118 672T73 690H60V700H279V690H266Q240 690 222 672T202 628V73Q202 47 221 29T266 10ZM668 0H625Q523 0 475 57L234 348L470 644Q478 654 478
662T475 676Q467 691 446 691H436V700H647V691H643Q577 691 535 644L300 372L573 51Q613 11 668 10V0Z" />
<glyph unicode="l" glyph-name="l" horiz-adv-x="562" d="M73 10Q99 10 117 28T137 73V627Q136 653 118 671T73 690H60V700H279V690H266Q230 690 211 659Q202 644 202 627V31H345Q419 31 458 64T523 162H533L475 0H60V10H73Z" />
<glyph unicode="m" glyph-name="m" horiz-adv-x="931" d="M900 10H916V0H699V9H714Q731 9 743 22T753 52L708 555L498 88Q470 27 464 -14H454L198 541L155 52Q153 36 165 23T194 9H209V0H15V10H31Q59 10 79 27T104 73L179 714H189L468 111L741 714H750L827 73Q831
44 852 27T900 10Z" />
<glyph unicode="n" glyph-name="n" horiz-adv-x="841" d="M778 690Q753 690 735 673T716 630V114Q716 56 723 4L725 -14H716L171 568V70Q171 45 189 28T232 10H251V0H45V10H64Q89 10 107 27T125 71V590Q125 651 118 699L116 715H126L671 133V629Q670 655 652 672T609
690H590V700H796V690H778Z" />
<glyph unicode="o" glyph-name="o" horiz-adv-x="848" d="M254 714T424 714T702 614T809 350T702 87T425 -14T147 86T40 350T147 613ZM286 16T424 16T646 108T731 350T647 592T424 684T202 592T117 350T201 108Z" />
<glyph unicode="p" glyph-name="p" horiz-adv-x="577" d="M527 507Q527 463 509 425Q476 354 393 326Q364 316 343 316Q281 316 236 339V349Q309 333 371 365Q426 393 446 457Q452 477 452 495T452 517Q450 587 415 628T317 670H202V73Q203 47 221 29T266 10H279V0H60V10H73Q99
10 117 28T137 73V632Q134 657 116 673T73 690H61L60 700H321Q417 700 472 649T527 507Z" />
<glyph unicode="q" glyph-name="q" horiz-adv-x="867" d="M1270 -163T1224 -188T1131 -226T1048 -239Q932 -239 828 -194Q790 -177 703 -132Q506 -31 408 -13Q248 -5 149 94T50 353T156 613T434 714T712 614T819 350Q819 207 736 111T513 -8Q618 -40 836 -133Q942
-177 1052 -177Q1114 -177 1177 -162Q1265 -139 1324 -84L1328 -89Q1320 -110 1295 -136ZM127 500T127 350T211 108T434 16T656 108T741 350T657 592T434 684T212 592Z" />
<glyph unicode="r" glyph-name="r" horiz-adv-x="677" d="M266 669H202V73Q202 47 220 29T266 10H278L279 0H60V10H73Q99 10 117 28T137 72V627Q136 653 118 671T73 690H60V700H330Q421 700 473 650T525 519T476 380T355 321Q370 314 390 294T427 251Q513 128
539 100T576 61T600 40T626 24Q655 10 688 10V0H633Q590 0 553 15T498 47T466 79T391 183T320 283T299 308Q267 342 235 342V352Q243 351 256 351T288 352Q412 355 444 456Q450 476 450 493T450 516Q448 583 415 624T326 668Q302 669 266 669Z" />
<glyph unicode="s" glyph-name="s" horiz-adv-x="476" d="M61 41Q58 55 58 95T73 180H82Q81 169 81 158Q81 97 118 57T216 16Q279 16 319 54T360 149T321 243L129 421Q75 471 75 542T122 663T251 714Q289 714 337 704H376V581H367Q367 628 335 656T251 684T166
650T131 565T171 477L368 295Q418 249 418 169T367 38T231 -14Q187 -14 138 -1T61 41Z" />
<glyph unicode="t" glyph-name="t" horiz-adv-x="618" d="M589 611Q589 635 572 652T532 671H342V72Q343 46 361 28T406 10H419V0H200V10H213Q239 10 257 28T277 71V671H87Q63 670 47 653T30 611V594L20 593V719Q35 713 72 707T140 701H478Q527 701 559 708T599
719V593L589 594V611Z" />
<glyph unicode="u" glyph-name="u" horiz-adv-x="785" d="M735 690H719Q698 690 683 677T666 643V247Q666 130 592 58T395 -14T196 57T119 246V640Q119 670 93 684Q81 690 66 690H50V700H253V690H237Q215 690 200 677T184 642V260Q184 151 242 84T399 17T558 80T619
247V642Q618 663 603 676T566 690H550V700H735V690Z" />
<glyph unicode="v" glyph-name="v" horiz-adv-x="740" d="M549 700H750V690H741Q716 690 692 675T654 628L413 89Q376 8 376 -14H367L86 627Q72 659 48 674T-2 690H-10V700H215V690H206Q185 690 175 677T164 652T169 628L378 104L596 628Q600 640 600 651T590
676T558 690H549V700Z" />
<glyph unicode="w" glyph-name="w" horiz-adv-x="982" d="M795 700H992V690H984Q958 690 933 675T896 628L730 99Q710 36 708 -12H699L495 560L343 99Q324 37 322 -12H313L86 629Q74 659 49 674T-2 690H-10V700H212V690H203Q182 690 172 677T161 651T164 629L316
142L502 716L511 715L708 162L842 630Q845 641 845 652T835 677T804 690H795V700Z" />
<glyph unicode="x" glyph-name="x" horiz-adv-x="662" d="M673 0H429V10H441Q463 10 475 30Q482 41 482 51T477 71L323 314L169 72Q163 62 163 52T170 31Q183 10 204 10H217V0H-10V10H4Q34 10 61 27T106 69L297 354L122 631Q104 656 78 673T21 690H7V700H249V690H237Q216
690 203 670Q196 659 196 649T201 629L339 413L475 628Q481 638 481 648T475 669Q463 690 441 690H429V700H654V690H640Q610 690 584 673T539 631L364 373L558 68Q582 34 619 18Q639 10 659 10H673V0Z" />
<glyph unicode="y" glyph-name="y" horiz-adv-x="661" d="M672 690H658Q628 690 602 674T557 632L360 312V73Q360 47 378 29T424 10H436V0H218V10H231Q257 10 275 28T295 72V313L104 632Q89 656 62 673T4 690H-10V700H236V690H223Q201 690 189 670Q183 659 183
649T188 628L338 348L498 629Q503 639 503 649T496 670Q484 690 462 690H450V700H672V690Z" />
<glyph unicode="z" glyph-name="z" horiz-adv-x="651" d="M84 611V593H74V719Q89 713 127 707T179 701T195 701H474Q523 701 549 706T580 714V705L152 30H470Q523 30 557 64T607 154H617L584 0H60V9L480 671H143Q118 670 101 653T84 611Z" />
<glyph unicode="{" glyph-name="braceleft" horiz-adv-x="432" d="M398 768L393 761Q362 769 337 769Q293 769 266 741Q231 705 231 608L233 529Q233 482 225 438Q219 407 201 382T154 344T99 331Q52 331 24 364Q7 385 0 418L8 421Q14 399 29 382Q54 353 87 353Q129
353 155 392Q161 401 164 416T170 443T172 473T173 503T171 534T170 565T169 608T180 683Q209 796 305 796Q348 796 398 768ZM393 -121L398 -128Q347 -156 300 -156Q284 -156 265 -149Q201 -128 180 -43Q169 1 169 36T171 105Q172 126 172 136T173 166T170 197T165
223T155 248T139 267T115 281T84 287T48 275Q17 254 7 219L0 222Q7 255 24 276Q51 310 99 310Q151 310 196 266Q204 258 210 244T221 222T227 196T231 172T232 144T232 119T231 87T230 44Q230 -75 276 -109Q294 -123 313 -126T348 -130T393 -121Z" />
<glyph unicode="|" glyph-name="bar" horiz-adv-x="245" d="M100 -180V700H145V-180H100Z" />
<glyph unicode="}" glyph-name="braceright" horiz-adv-x="432" d="M202 608Q202 705 167 741Q126 783 40 761L35 768Q85 796 130 796Q146 796 164 790Q230 771 252 686Q264 641 264 605T262 538Q261 520 261 510T260 483T261 456T264 431T271 408T281 388T296
371T318 359T349 353T384 365Q415 386 424 421L432 418Q425 385 408 364Q381 331 333 331Q269 331 232 381Q199 427 199 529L202 608ZM35 -128L40 -121Q68 -130 98 -130T157 -109Q176 -95 186 -67T200 -12T203 37T201 92Q200 115 200 119T200 144T201 171T205 196T212
222T222 244T236 266T256 283Q290 310 339 310Q355 310 370 303Q419 284 432 222L425 219Q416 254 384 275Q366 287 346 287Q303 287 278 248Q272 239 268 224T263 197T261 167T260 137T262 105T263 75T264 33T254 -39Q225 -156 129 -156Q86 -156 35 -128Z" />
<glyph unicode="~" glyph-name="asciitilde" horiz-adv-x="493" d="M458 313Q458 274 435 249Q402 214 346 214Q310 214 260 248Q239 262 219 277Q167 313 138 313T96 294T82 255T85 219H40Q37 237 37 253Q37 295 59 321Q90 358 142 358Q186 358 250 309Q317 259
349 259T401 284Q414 299 414 317T408 353H453Q458 331 458 313Z" />
<glyph unicode="&#xa1;" glyph-name="exclamdown" horiz-adv-x="230" d="M96 706T115 706T147 693T160 661T147 629T115 616T83 629T70 660T83 692ZM90 299L111 529H121L141 299L153 0H78L90 299Z" />
<glyph unicode="&#xa2;" glyph-name="cent" horiz-adv-x="602" d="M181 88T116 159T50 352T127 545T336 617L343 701L373 700L367 615Q457 606 521 565L539 443H532Q501 572 364 586L325 105Q425 105 487 154T555 304H563L555 186Q522 133 462 104T322 75L315
-9L286 -6L293 77Q181 88 116 159ZM125 346Q125 209 203 146Q241 116 295 108L334 587Q234 587 180 524T125 346Z" />
<glyph unicode="&#xa3;" glyph-name="sterling" horiz-adv-x="577" d="M337 46Q481 46 538 159H548L502 24Q427 -10 346 -10Q293 -10 199 17Q165 27 130 27T68 0H58V10Q100 44 129 128T160 329H50L62 365H159Q158 387 158 407Q158 695 360 714Q369 715 391 715T446
700T502 657L475 566H465Q467 579 467 592Q467 636 442 660T374 685Q330 685 302 667T259 621Q228 562 228 431Q228 400 229 365H413L400 329H229Q228 202 194 141Q176 109 163 93T125 54Q156 64 191 61T241 56Q311 46 337 46Z" />
<glyph unicode="&#xa4;" glyph-name="currency" horiz-adv-x="541" d="M410 193Q350 139 270 139T130 191L71 132L50 154L109 212Q56 272 56 352T110 493L50 553L71 574L131 514Q191 565 270 565T409 513L470 574L492 553L430 492Q482 432 482 353T431 214L492
154L470 132L410 193ZM194 169T269 169T398 222T452 352T399 481T270 535T140 482T86 352T140 223Z" />
<glyph unicode="&#xa5;" glyph-name="yen" horiz-adv-x="661" d="M672 690H658Q628 690 602 674T557 632L423 415H550V385H405L360 312V295H550V265H360V72Q360 46 379 28T424 10H436V0H218V10H231Q257 10 275 28T295 73V265H105V295H295V313L252 385H105V415H234L104
632Q89 656 62 673T4 690H-10V700H236V690H223Q201 690 189 670Q183 659 183 649T188 628L338 348L498 629Q503 639 503 649T496 670Q484 690 462 690H450V700H672V690Z" />
<glyph unicode="&#xa6;" glyph-name="brokenbar" horiz-adv-x="245" d="M100 350V700H145V350H100ZM100 -180V170H145V-180H100Z" />
<glyph unicode="&#xa7;" glyph-name="section" horiz-adv-x="511" d="M404 677Q421 659 421 645Q421 624 408 614T380 612T347 634Q303 674 261 674Q239 674 207 652T175 597Q175 529 336 367Q447 255 447 120Q447 39 402 -34Q364 -97 303 -130Q258 -154 203 -154T116
-121Q99 -103 99 -89Q99 -66 115 -54Q120 -50 127 -50T152 -60T190 -90Q221 -116 251 -116T307 -98Q342 -74 342 -36Q342 40 179 197Q112 261 89 323T65 433Q65 506 108 582Q139 634 185 667Q247 711 310 711T404 677ZM139 583Q104 517 104 459Q104 357 224 248Q376
110 376 15Q376 0 371 -15Q407 41 407 98Q407 204 289 317Q169 433 146 506Q138 532 138 552T139 583Z" />
<glyph unicode="&#xa8;" glyph-name="dieresis" horiz-adv-x="600" d="M202 700T186 700T159 711T147 739T158 766T186 778T213 767T225 739T214 712ZM391 700T375 700T347 711T336 739T347 766T374 778T402 767T414 739T403 712Z" />
<glyph unicode="&#xa9;" glyph-name="copyright" horiz-adv-x="848" d="M273 714T424 714T681 608T788 350T682 93T424 -14T167 92T60 350T166 607ZM513 677T424 677T260 634T141 515T97 350T140 186T259 67T424 23T588 66T707 185T751 350T708 514T589 633ZM332
127T267 191T201 350T266 509T426 573T588 530L602 430H596Q583 484 539 515T427 547T314 491T267 351T313 211T421 154T521 169T586 222T616 316H622L615 219Q589 176 540 152T430 127Q332 127 267 191Z" />
<glyph unicode="&#xaa;" glyph-name="ordfeminine" horiz-adv-x="368" d="M364 383H368V378H245V383H250Q265 383 271 400Q273 408 269 420L243 486H120L91 419Q85 403 92 393T110 383H114V378H0V383H4Q31 383 48 418L160 655Q180 699 181 714H186L321 420Q339
383 364 383ZM130 510H234L184 638L130 510Z" />
<glyph unicode="&#xab;" glyph-name="guillemotleft" horiz-adv-x="425" d="M223 485Q179 373 105 292Q179 208 224 95L215 90Q139 209 40 292Q96 338 136 382T215 490L223 485ZM385 485Q341 373 267 292Q341 208 386 95L377 90Q301 209 202 292Q258 338 298 382T377
490L385 485Z" />
<glyph unicode="&#xac;" glyph-name="logicalnot" horiz-adv-x="601" d="M40 397H562V195H517V352H40V397Z" />
<glyph unicode="&#xad;" glyph-name="softhyphen" horiz-adv-x="380" d="M34 292L40 314H340L346 292L340 269H40L34 292Z" />
<glyph unicode="&#xae;" glyph-name="registered" horiz-adv-x="245" d="M76 701T123 701T203 668T236 588T203 508T123 475T43 508T10 588T43 668ZM84 495T122 495T188 522T216 588T189 653T123 681T57 654T30 588T57 523ZM145 652T156 643T168 621T160 598T139
586Q147 585 156 570T172 546T188 534V532H176Q156 532 148 540T137 552T129 565Q116 590 112 590V592H122Q142 596 142 619T117 642Q117 642 117 642L105 643V545Q105 534 115 534H118V532H68V534H70Q80 534 81 544V639Q80 650 70 650H68V652H105H126Q145 652
156 643Z" />
<glyph unicode="&#xaf;" glyph-name="overscore" horiz-adv-x="600" d="M170 703V738H420V703H170Z" />
<glyph unicode="&#xb0;" glyph-name="degree" horiz-adv-x="257" d="M88 664T128 664T198 636T227 566T198 496T129 467T59 496T30 566T59 635ZM153 625T129 625T87 608T69 566T86 524T128 507T170 524T188 566T171 608Z" />
<glyph unicode="&#xb1;" glyph-name="plusminus" horiz-adv-x="481" d="M263 402H442V357H263V179H218V357H40V402H218V581H263V402ZM40 60V105H442V60H40Z" />
<glyph unicode="&#xb2;" glyph-name="twosuperior" horiz-adv-x="375" d="M59 690T90 702T158 714T228 699T282 656T302 595T289 531T261 478T216 430Q180 398 149 375T113 350H251Q285 350 303 368Q315 381 329 406H335L304 308H30V315Q42 326 81 359T142 414T192
467Q247 530 247 583T222 662T156 689Q113 689 85 664T58 595H51L40 670Q59 690 90 702Z" />
<glyph unicode="&#xb3;" glyph-name="threesuperior" horiz-adv-x="310" d="M40 675Q71 712 130 712T223 687T258 627T232 565T172 532Q212 527 242 502T272 439Q272 351 202 309Q155 280 93 280Q63 280 30 286L31 293Q36 293 40 293Q117 293 168 330T219 437Q219
523 89 523L90 529Q140 529 173 554T206 615T186 670T131 688Q58 688 58 618Q58 615 58 613H51L40 675Z" />
<glyph unicode="&#xb4;" glyph-name="acute" horiz-adv-x="439" d="M208 746L201 753Q277 835 328 884Q354 857 369 831Q304 794 208 746Z" />
<glyph unicode="&#xb6;" glyph-name="paragraph" horiz-adv-x="520" d="M392 670V147Q392 88 383 55T344 -13L335 -5Q360 37 361 85Q362 100 362 145V670H279V0Q279 -93 259 -133Q237 -176 193 -199L186 -190Q227 -148 237 -115T247 -47T246 0V333Q161 333 106
383T50 516T106 649T246 700H408Q408 700 415 700T424 700T432 700T443 702T453 705T465 710T477 718Q489 726 503 743L510 737Q481 672 405 670H392Z" />
<glyph unicode="&#xb7;" glyph-name="middot" horiz-adv-x="170" d="M61 363Q73 366 91 366T130 353T160 321Q152 302 131 289T85 276T40 289T10 321Q22 351 61 363ZM99 346T85 346T57 339T38 321Q42 311 56 304T85 296T113 303T132 321Q128 331 114 338Z" />
<glyph unicode="&#xb8;" glyph-name="cedilla" horiz-adv-x="600" d="M282 -48Q313 -37 338 -44Q387 -57 387 -105T343 -174Q317 -186 293 -186T246 -179L247 -169Q283 -169 310 -154T337 -108Q337 -64 286 -64Q269 -64 253 -72L248 -62L296 1H323L282 -48Z" />
<glyph unicode="&#xb9;" glyph-name="onesuperior" horiz-adv-x="211" d="M191 315V308H45V315H59Q74 315 85 325T96 351V632Q96 665 65 665H40V671Q72 676 94 684T134 714H140V350Q140 336 151 326T177 315H191Z" />
<glyph unicode="&#xba;" glyph-name="ordmasculine" horiz-adv-x="412" d="M133 714T206 714T331 664T383 542T331 420T206 370T82 420T30 542T81 664ZM154 391T206 391T293 434T328 542T294 650T207 693T120 650T85 542T119 434Z" />
<glyph unicode="&#xbb;" glyph-name="guillemotright" horiz-adv-x="425" d="M202 95Q246 208 321 292Q247 373 203 485L211 490Q249 426 289 382T386 292Q287 209 211 90L202 95ZM40 95Q84 208 159 292Q85 373 41 485L49 490Q87 426 127 382T224 292Q125 209
49 90L40 95Z" />
<glyph unicode="&#xbc;" glyph-name="onequarter" horiz-adv-x="713" d="M578 714L602 697L125 -14L100 2L578 714ZM211 308H65V315H79Q94 315 105 325T116 351V632Q116 665 85 665H60V671Q92 676 114 684T154 714H161V350Q161 336 171 326T197 315H211V308ZM617
130V41Q618 27 628 17T654 6H661V-1H529V6H536Q551 6 561 15T573 40V130H391V136L611 405H617V163H646Q663 163 669 166T683 177H689L675 130H617ZM573 163V323L445 163H573Z" />
<glyph unicode="&#xbd;" glyph-name="onehalf" horiz-adv-x="805" d="M577 714L601 697L124 -14L99 2L577 714ZM211 315V308H65V315H79Q94 315 105 325T116 351V632Q116 665 85 665H60V671Q81 674 95 678Q131 687 154 714H160V350Q160 336 171 326T197 315H211ZM583
406Q646 406 689 372T732 284Q732 183 601 84Q584 71 566 58T543 42H681Q709 42 724 53T759 98H765L734 0H460V7Q473 19 502 44T551 87T597 132T639 181Q677 235 677 281T652 354T586 381Q543 381 515 356T488 287H481L469 362Q489 382 520 394T583 406Z" />
<glyph unicode="&#xbe;" glyph-name="threequarters" horiz-adv-x="713" d="M621 714L645 697L168 -14L143 2L621 714ZM40 675Q71 712 130 712T223 687T258 627T232 565T172 532Q228 525 257 484Q272 464 272 439Q272 351 202 309Q155 280 93 280Q63 280 30 286L31
293Q35 293 55 293T107 301T165 327Q219 365 219 437Q219 523 89 523L90 529Q140 529 173 554T206 615T186 670T131 688Q58 688 58 618Q58 615 58 613H51L40 675ZM622 130V41Q622 27 633 17T659 6H666V-1H534V6H541Q556 6 566 15T578 40V130H396V136L616 405H622V163H651Q668
163 674 166T687 177H694L680 130H622ZM578 163V323L450 163H578Z" />
<glyph unicode="&#xbf;" glyph-name="questiondown" horiz-adv-x="433" d="M214 704T233 704T265 691T278 659T265 627T233 614T201 627T188 659T201 691ZM393 75Q345 -14 239 -14Q185 -14 141 6Q50 48 50 156Q50 218 90 267Q124 308 156 338Q215 392 227 433Q235
453 235 477T217 525L223 530Q268 489 268 434Q268 389 217 331Q196 307 175 281Q125 220 125 155T157 53T247 16T339 56T373 164Q373 167 373 170H383L393 75Z" />
<glyph unicode="&#xc0;" glyph-name="Agrave" horiz-adv-x="712" d="M374 781L367 774Q286 812 206 859Q220 887 247 912Q310 851 374 781ZM118 734Q183 761 243 761Q293 761 346 724Q375 704 411 646Q435 606 472 501L594 155Q636 39 679 -29T759 -132T834 -181T898
-195T944 -191L945 -201Q897 -217 851 -217T759 -194T673 -128Q587 -41 527 137L488 251H214L145 73Q140 61 140 49T150 24T183 10H191V0H-10V10H-1Q23 10 46 24T84 68L332 662Q278 738 198 738Q162 738 121 724L118 734ZM225 281H478L399 514Q376 581 357 619L225
281Z" />
<glyph unicode="&#xc1;" glyph-name="Aacute" horiz-adv-x="712" d="M367 774L360 781Q436 863 487 912Q513 885 527 859Q463 822 367 774ZM118 734Q183 761 243 761Q293 761 346 724Q375 704 411 646Q435 606 472 501L594 155Q636 39 679 -29T759 -132T834 -181T898
-195T944 -191L945 -201Q897 -217 851 -217T759 -194T673 -128Q587 -41 527 137L488 251H214L145 73Q140 61 140 49T150 24T183 10H191V0H-10V10H-1Q23 10 46 24T84 68L332 662Q278 739 198 739Q162 739 121 724L118 734ZM225 281H478L399 514Q376 581 357 619L225
281Z" />
<glyph unicode="&#xc2;" glyph-name="Acircumflex" horiz-adv-x="712" d="M361 900H371L486 781L480 773L366 839L261 773L255 781L361 900ZM118 734Q181 760 241 760Q264 760 288 755T341 728T386 684T422 625Q446 576 472 501L594 155Q636 39 679 -29T759 -132T834
-181T898 -195T944 -191L945 -201Q897 -217 851 -217T759 -194T673 -128Q587 -41 527 137L488 251H214L145 73Q140 61 140 49T150 24T183 10H191V0H-10V10H-1Q23 10 46 24T84 68L332 662Q278 739 198 739Q162 739 121 724L118 734ZM225 281H478L399 514Q376 581
357 619L225 281Z" />
<glyph unicode="&#xc3;" glyph-name="Atilde" horiz-adv-x="712" d="M437 819Q478 819 492 853H502Q498 816 481 795Q472 785 461 780T432 774T373 796T316 818Q279 818 262 777H252Q258 816 275 839T316 862T380 841T437 819ZM118 734Q181 760 241 760Q264 760
288 755T341 728T386 684T422 625Q446 576 472 501L594 155Q636 39 679 -29T759 -132T834 -181T898 -195T944 -191L945 -201Q897 -217 851 -217T759 -194T673 -128Q587 -41 527 137L488 251H214L145 73Q140 61 140 49T150 24T183 10H191V0H-10V10H-1Q23 10 46 24T84
68L332 662Q278 739 198 739Q162 739 121 724L118 734ZM225 281H478L399 514Q376 581 357 619L225 281Z" />
<glyph unicode="&#xc4;" glyph-name="Adieresis" horiz-adv-x="712" d="M289 774T273 774T245 785T233 813T244 840T272 852T300 841T312 813T301 786ZM477 774T461 774T434 785T422 813T433 840T461 852T488 841T500 813T489 786ZM118 734Q183 761 243 761Q293
761 346 724Q375 704 411 646Q435 606 472 501L594 155Q636 39 679 -29T759 -132T834 -181T898 -195T944 -191L945 -201Q897 -217 851 -217T759 -194T673 -128Q587 -41 527 137L488 251H214L145 73Q140 61 140 49T150 24T183 10H191V0H-10V10H-1Q23 10 46 24T84
68L332 662Q278 739 198 739Q162 739 121 724L118 734ZM225 281H478L399 514Q376 581 357 619L225 281Z" />
<glyph unicode="&#xc5;" glyph-name="Aring" horiz-adv-x="712" d="M273 882T300 903T367 924T434 904T461 856T448 811Q423 774 375 774T300 795T273 849ZM388 907T367 907T332 892T318 849T331 807T366 792T402 807T416 849T402 891ZM118 734Q183 761 243 761Q293
761 346 724Q375 704 411 646Q435 606 472 501L594 155Q636 39 679 -29T759 -132T834 -181T898 -195T944 -191L945 -201Q897 -217 851 -217T759 -194T673 -128Q587 -41 527 137L488 251H214L145 73Q140 61 140 49T150 24T183 10H191V0H-10V10H-1Q23 10 46 24T84
68L332 662Q278 739 198 739Q162 739 121 724L118 734ZM225 281H478L399 514Q376 581 357 619L225 281Z" />
<glyph unicode="&#xc6;" glyph-name="AE" horiz-adv-x="872" d="M-53 -76Q-79 -88 -104 -92T-153 -96T-200 -91L-199 -81Q-127 -78 -71 -41T37 79L403 655Q409 668 403 679T382 690H378V700H531Q562 700 599 706T650 718V605H640V620Q640 640 626 654T592 669H471V350H665Q685
351 699 365T713 400V414H723V256H713V271Q713 291 699 305T666 320H471V31H705Q813 32 858 139H868L812 0H346L347 10H356Q376 10 390 24T406 58V320H245L90 55Q37 -37 -53 -76ZM406 350V597L262 350H406Z" />
<glyph unicode="&#xc7;" glyph-name="Ccedilla" horiz-adv-x="821" d="M474 -117Q474 -73 423 -73Q407 -73 390 -81L385 -71L429 -14Q261 -9 153 94T45 351Q45 453 95 536T233 666T429 714Q497 714 567 696T685 646L705 505H696Q675 589 599 636T430 684Q297 684
209 590T120 352T211 113T451 16T692 112T786 375H796Q797 363 797 333T788 254T759 163T709 87T641 33Q563 -11 456 -14L419 -57Q462 -42 496 -61Q524 -77 524 -119T480 -183Q455 -195 430 -195T383 -188L384 -178Q420 -178 447 -163T474 -117Z" />
<glyph unicode="&#xc8;" glyph-name="Egrave" horiz-adv-x="607" d="M255 771L248 764Q168 802 87 849Q102 877 128 902Q192 841 255 771ZM73 10Q99 10 117 28T137 73V633Q137 657 118 673T73 690H61L60 700H263Q294 700 330 706T382 718V592H372V610Q372 634
356 651T316 669H202V360H392Q412 361 426 375T440 410V424H450V266H440V281Q440 301 427 315T393 330H202V31H415Q489 31 528 64T593 162H603L545 0H60V10H73Z" />
<glyph unicode="&#xc9;" glyph-name="Eacute" horiz-adv-x="607" d="M248 764L241 771Q317 853 368 902Q395 875 409 849Q345 812 248 764ZM73 10Q99 10 117 28T137 73V633Q137 657 118 673T73 690H61L60 700H263Q306 700 339 707T382 718V592H372V610Q372 634
356 651T316 669H202V360H392Q412 361 426 375T440 410V424H450V266H440V281Q440 301 427 315T393 330H202V31H415Q489 31 528 64T593 162H603L545 0H60V10H73Z" />
<glyph unicode="&#xca;" glyph-name="Ecircumflex" horiz-adv-x="607" d="M243 890H253L367 771L361 763L248 829L143 763L137 771L243 890ZM73 10Q99 10 117 28T137 73V633Q137 657 118 673T73 690H61L60 700H263Q294 700 330 706T382 718V592H372V610Q372 634
356 651T316 669H202V360H392Q412 361 426 375T440 410V424H450V266H440V281Q440 301 427 315T393 330H202V31H415Q466 31 501 49T556 93T593 162H603L545 0H60V10H73Z" />
<glyph unicode="&#xcb;" glyph-name="Edieresis" horiz-adv-x="607" d="M170 764T154 764T127 775T115 803T126 830T154 842T181 831T193 803T182 776ZM359 764T343 764T315 775T303 803T314 830T342 842T370 831T382 803T371 776ZM73 10Q99 10 117 28T137 73V633Q137
657 118 673T73 690H61L60 700H263Q306 700 339 707T382 718V592H372V610Q372 634 356 651T316 669H202V360H392Q412 361 426 375T440 410V424H450V266H440V281Q440 301 427 315T393 330H202V31H415Q489 31 528 64T593 162H603L545 0H60V10H73Z" />
<glyph unicode="&#xcc;" glyph-name="Igrave" horiz-adv-x="393" d="M231 771L224 764Q144 802 64 849Q78 877 104 902Q168 841 231 771ZM321 10H334V0H115V10H128Q154 10 173 28T192 73V673L85 667Q-16 661 -16 594Q-16 567 1 548T57 527V521Q43 518 29 518Q-15
518 -37 553Q-50 573 -50 597Q-50 682 79 696Q80 696 178 702T334 720L336 710Q293 703 275 681T257 620V73Q258 47 276 29T321 10Z" />
<glyph unicode="&#xcd;" glyph-name="Iacute" horiz-adv-x="393" d="M224 764L217 771Q293 853 344 902Q371 875 385 849Q321 812 224 764ZM321 10H334V0H115V10H128Q154 10 173 28T192 73V673L85 667Q-16 661 -16 594Q-16 567 1 548T57 527V521Q42 518 22 518T-24
538T-50 597Q-50 682 79 696Q80 696 178 702T334 720L336 710Q293 703 275 681T257 620V73Q258 47 276 29T321 10Z" />
<glyph unicode="&#xce;" glyph-name="Icircumflex" horiz-adv-x="393" d="M219 890H229L343 771L337 763L224 829L119 763L113 771L219 890ZM321 10H334V0H115V10H128Q154 10 173 28T192 73V673L85 667Q-16 661 -16 594Q-16 567 1 548T57 527V521Q42 518 22 518T-24
538T-50 597Q-50 682 79 696Q80 696 178 702T334 720L336 710Q293 703 275 681T257 620V73Q258 47 276 29T321 10Z" />
<glyph unicode="&#xcf;" glyph-name="Idieresis" horiz-adv-x="393" d="M146 764T130 764T103 775T91 803T102 830T130 842T157 831T169 803T158 776ZM335 764T319 764T291 775T279 803T290 830T318 842T346 831T358 803T347 776ZM321 10H334V0H115V10H128Q154
10 173 28T192 73V673L85 667Q-16 661 -16 594Q-16 567 1 548T57 527V521Q43 518 29 518Q-15 518 -37 553Q-50 573 -50 597Q-50 682 79 696Q80 696 178 702T334 720L336 710Q293 703 275 681T257 620V73Q258 47 276 29T321 10Z" />
<glyph unicode="&#xd0;" glyph-name="Eth" horiz-adv-x="817" d="M-121 554Q-93 638 -26 670T216 703Q256 703 399 700Q505 697 586 654T712 533T758 350Q758 193 659 97T399 0H60L61 10H73Q98 10 116 26T137 67V335H60V365H137V669Q12 664 -40 629Q-67 611 -81
594T-110 550L-121 554ZM202 335V30H399Q483 30 547 69T647 182T683 350Q683 494 605 582T399 670H202V365H370V335H202Z" />
<glyph unicode="&#xd1;" glyph-name="Ntilde" horiz-adv-x="841" d="M496 809Q538 809 552 843H562Q556 793 527 773Q513 764 493 764T432 786T376 808Q338 808 321 767H311Q317 806 334 829T375 852T440 831T496 809ZM1054 -152Q1006 -167 971 -167T907 -160T850
-140T794 -105Q747 -67 698 -14L171 570V70Q171 45 189 28T232 10H251V0H45V10H64Q89 10 107 27T125 71V620Q120 627 105 646T80 678T53 709T22 741T-12 769Q-42 792 -76 802T-133 812T-184 804L-188 814Q-139 834 -92 834Q-7 834 75 768Q112 737 167 676L671 116V629Q670
655 652 672T609 690H590V700H796V690H778Q753 690 735 673T716 630V65Q726 54 744 32T770 1T793 -25T818 -51T844 -75T873 -98T904 -118Q928 -132 958 -139T1008 -146T1050 -142L1054 -152Z" />
<glyph unicode="&#xd2;" glyph-name="Ograve" horiz-adv-x="929" d="M476 771L469 764Q389 802 308 849Q323 877 349 902Q413 841 476 771ZM277 467Q273 480 273 489T274 511T278 544T292 585T315 624T348 659T394 688Q447 714 536 714T704 667T826 540T869 355T817
166T673 33T467 -14T260 32T114 164T60 358T110 550T253 680L259 671Q194 628 166 547T137 378T162 222T232 108Q323 16 466 16T700 111T792 363Q792 494 723 586Q690 631 636 657T519 684T408 663Q321 626 293 541Q285 516 285 498T287 469L277 467Z" />
<glyph unicode="&#xd3;" glyph-name="Oacute" horiz-adv-x="929" d="M469 764L462 771Q538 853 589 902Q616 875 630 849Q565 812 469 764ZM277 467Q273 480 273 489T274 511T278 544T292 585T315 625T348 660T394 688Q447 714 536 714T704 667T826 540T869 355T817
166T673 33T467 -14T260 32T114 164T60 358T110 550T253 680L259 671Q194 628 166 547T137 378T162 222T232 108Q323 16 466 16T700 111T792 363Q792 494 723 586Q690 631 636 657T519 684T408 663Q321 626 293 541Q285 516 285 498T287 469L277 467Z" />
<glyph unicode="&#xd4;" glyph-name="Ocircumflex" horiz-adv-x="929" d="M464 890H474L588 771L582 763L468 829L364 763L358 771L464 890ZM277 467Q273 480 273 489T274 511T278 544T292 585T315 625T348 660T394 688Q447 714 536 714T704 667T826 540T869 355T817
166T673 33T466 -14Q380 -14 306 13T177 88T91 207T60 372T110 550T253 680L259 671Q194 628 166 547T137 378T162 222T232 108Q323 16 464 16Q559 16 633 59T750 181T792 363Q792 494 723 586Q690 631 636 657T519 684T408 663Q321 626 293 541Q285 516 285 498T287
469L277 467Z" />
<glyph unicode="&#xd5;" glyph-name="Otilde" horiz-adv-x="929" d="M539 809Q581 809 595 843H605Q599 793 570 773Q557 764 537 764T475 786T419 808Q381 808 365 767H355Q360 806 377 829T419 852T483 831T539 809ZM277 467Q273 480 273 489T274 511T278 544T292
585T315 625T348 660T394 688Q447 714 536 714T704 667T826 540T869 355T817 166T673 33T467 -14T260 32T114 164T60 358T110 550T253 680L259 671Q215 642 186 589Q137 500 137 375Q137 290 162 222T232 108Q323 16 464 16Q559 16 633 59T750 181T792 363Q792
494 723 586Q690 631 636 657T519 684T408 663Q321 626 293 541Q285 516 285 498T287 469L277 467Z" />
<glyph unicode="&#xd6;" glyph-name="Odieresis" horiz-adv-x="929" d="M391 764T375 764T348 775T336 803T347 830T375 842T402 831T414 803T403 776ZM579 764T563 764T536 775T524 803T535 830T563 842T590 831T602 803T591 776ZM277 467Q273 480 273 489T274
511T278 544T292 585T315 625T348 660T394 688Q447 714 536 714T704 667T826 540T869 355T817 166T673 33T467 -14T260 32T114 164T60 358T110 550T253 680L259 671Q194 628 166 547T137 378T162 222T232 108Q323 16 466 16T700 111T792 363Q792 494 723 586Q690
631 636 657T519 684T408 663Q321 626 293 541Q285 516 285 498T287 469L277 467Z" />
<glyph unicode="&#xd7;" glyph-name="multiply" horiz-adv-x="415" d="M366 436L240 310L366 184L334 152L208 278L82 152L50 184L176 310L50 436L82 468L208 342L334 468L366 436Z" />
<glyph unicode="&#xd8;" glyph-name="Oslash" horiz-adv-x="929" d="M738 644Q869 542 869 350Q869 252 816 166T669 33T456 -14T238 43L183 -23L158 -1L209 61Q139 111 100 188T60 366T110 550T253 680L259 671Q194 628 166 547T137 375Q137 195 240 98L682 629Q613
684 515 684Q456 684 408 663Q321 626 293 541Q285 516 285 498T287 469L277 467Q273 480 273 489T274 511T278 544T292 585T315 625T348 660T394 688Q447 714 523 714Q628 714 710 663L759 722L785 700L738 644ZM459 16Q605 16 698 112T792 363Q792 460 754 537Q735
576 706 606L265 76Q346 16 459 16Z" />
<glyph unicode="&#xd9;" glyph-name="Ugrave" horiz-adv-x="783" d="M429 771L422 764Q341 802 261 849Q275 877 302 902Q365 841 429 771ZM887 872Q895 872 904 872V862Q794 862 730 790T666 580V247Q666 130 592 58T395 -14T196 57T119 246V640Q119 662 104
676T66 690H50V700H253V690H237Q215 690 200 677T184 642V260Q184 151 242 84T396 17Q497 17 558 80T619 247V579Q619 726 693 799T887 872Z" />
<glyph unicode="&#xda;" glyph-name="Uacute" horiz-adv-x="783" d="M422 764L415 771Q491 853 542 902Q568 875 582 849Q518 812 422 764ZM887 872Q895 872 904 872V862Q794 862 730 790T666 580V247Q666 130 592 58T395 -14T196 57T119 246V641Q119 662 104
676T66 690H50V700H253V690H237Q207 690 192 667Q185 656 184 642V260Q184 151 242 85T399 18T558 81T619 247V579Q619 726 693 799T887 872Z" />
<glyph unicode="&#xdb;" glyph-name="Ucircumflex" horiz-adv-x="783" d="M416 890H426L541 771L535 763L421 829L316 763L310 771L416 890ZM887 872Q895 872 904 872V862Q794 862 730 790T666 580V247Q666 130 592 58T395 -14T196 57T119 246V641Q119 670 93
684Q81 690 66 690H50V700H253V690H237Q215 690 200 677T184 642V260Q184 151 242 85T399 18T558 81T619 247V579Q619 726 693 799T887 872Z" />
<glyph unicode="&#xdc;" glyph-name="Udieresis" horiz-adv-x="783" d="M887 872Q895 872 904 872V862Q794 862 730 790T666 580V247Q666 130 592 58T395 -14T196 57T119 246V641Q119 670 93 684Q81 690 66 690H50V700H253V690H237Q215 690 200 677T184 642V260Q184
151 242 85T396 18Q497 18 558 81T619 247V579Q619 726 693 799T887 872ZM344 764T328 764T300 775T288 803T299 830T327 842T355 831T367 803T356 776ZM532 764T516 764T489 775T477 803T488 830T516 842T543 831T555 803T544 776Z" />
<glyph unicode="&#xdd;" glyph-name="Yacute" horiz-adv-x="618" d="M331 764L324 771Q400 853 451 902Q478 875 492 849Q428 812 331 764ZM-40 757Q-33 757 -15 757T34 751T91 734T143 701T187 661T223 612T253 561T279 506Q297 463 308 431T321 394Q325 384
328 376Q331 383 340 407T356 451T378 505T404 560T432 610T466 659T504 698T549 730Q603 757 659 757V747Q603 747 545 688T445 546T377 373T350 220V73Q350 48 368 29T414 10H426V0H208V10H221Q246 10 265 28T285 72V221Q285 288 257 378T185 550T80 690T-40
747V757Z" />
<glyph unicode="&#xde;" glyph-name="Thorn" horiz-adv-x="554" d="M505 399T505 355T487 273Q455 202 374 174Q345 164 325 164Q263 164 219 187V197Q291 181 354 213Q408 240 428 305Q435 325 435 342T435 365Q433 435 398 476T300 518H185V73Q185 36 217 18Q231
10 249 10H261V0H43V10H55Q82 10 100 28T120 73V628Q119 654 101 672T56 690H43V700H261V690H249Q223 690 204 672T185 628V548H304Q451 548 492 435Q505 399 505 355Z" />
<glyph unicode="&#xdf;" glyph-name="germandbls" horiz-adv-x="952" d="M61 41Q58 55 58 95T73 180H82Q81 169 81 158Q81 97 118 57T216 16Q279 16 319 54T360 149T321 243L129 421Q75 471 75 542T122 663T251 714Q289 714 337 704H376V581H367Q367 628 335 656T251
684T166 650T131 565T171 477L368 295Q418 249 418 169T367 38T231 -14Q187 -14 138 -1T61 41ZM537 41Q534 55 534 95T549 180H558Q557 169 557 158Q557 97 594 57T692 16Q755 16 795 54T836 149T797 243L605 421Q551 471 551 542T598 663T727 714Q765 714 812
704H852V581H842Q843 628 811 656T736 684T666 668Q607 635 607 575T647 477L844 295Q894 249 894 169T843 38T707 -14Q662 -14 613 -1T537 41Z" />
<glyph unicode="&#xe0;" glyph-name="agrave" horiz-adv-x="712" d="M363 771L356 764Q275 802 195 849Q210 877 236 902Q299 841 363 771ZM715 10H723V0H498V10H507Q528 10 538 23T549 49T545 73L481 243H211L144 72Q140 60 140 52T143 35T158 18T182 10H191V0H-10V10H-1Q24
10 48 26T87 73L313 611Q350 692 350 714H359L627 73Q646 31 683 16Q699 10 715 10ZM223 273H469L349 594L223 273Z" />
<glyph unicode="&#xe1;" glyph-name="aacute" horiz-adv-x="712" d="M356 764L349 771Q425 853 476 902Q503 875 517 849Q452 812 356 764ZM715 10H723V0H498V10H507Q528 10 538 23T549 49T545 73L481 243H211L144 72Q140 60 140 49T150 24T182 10H191V0H-10V10H-1Q24
10 48 26T87 73L313 611Q350 692 350 714H359L627 73Q641 42 665 26T715 10ZM223 273H469L349 594L223 273Z" />
<glyph unicode="&#xe2;" glyph-name="acircumflex" horiz-adv-x="712" d="M351 890H361L475 771L469 763L355 829L251 763L245 771L351 890ZM715 10H723V0H498V10H507Q528 10 538 23T549 49T545 73L481 243H211L144 72Q140 60 140 49T150 24T182 10H191V0H-10V10H-1Q24
10 48 26T87 73L313 611Q350 692 350 714H359L627 73Q641 42 665 26T715 10ZM223 273H469L349 594L223 273Z" />
<glyph unicode="&#xe3;" glyph-name="atilde" horiz-adv-x="712" d="M426 809Q468 809 482 843H492Q486 793 457 773Q443 764 423 764T362 786T306 808Q268 808 252 767H242Q247 806 264 829T305 852T370 831T426 809ZM715 10H723V0H498V10H507Q528 10 538 23T549
49T545 73L481 243H211L144 72Q140 60 140 49T150 24T182 10H191V0H-10V10H-1Q24 10 48 26T87 73L313 611Q350 692 350 714H359L627 73Q641 42 665 26T715 10ZM223 273H469L349 594L223 273Z" />
<glyph unicode="&#xe4;" glyph-name="adieresis" horiz-adv-x="712" d="M278 764T262 764T235 775T223 803T234 830T262 842T289 831T301 803T290 776ZM466 764T450 764T423 775T411 803T422 830T450 842T477 831T489 803T478 776ZM715 10H723V0H498V10H507Q528
10 538 23T549 49T545 73L481 243H211L144 72Q130 30 164 14Q173 10 182 10H191V0H-10V10H-1Q24 10 48 26T87 73L313 611Q350 692 350 714H359L627 73Q641 42 665 26T715 10ZM223 273H469L349 594L223 273Z" />
<glyph unicode="&#xe5;" glyph-name="aring" horiz-adv-x="712" d="M287 895T308 904T363 914T423 894T450 839Q450 795 404 774Q383 764 350 764T289 785T262 834T274 878ZM378 897T357 897T321 882T307 839T321 797T356 782T391 797T405 839T392 881ZM715 10H723V0H498V10H507Q528
10 538 23T549 49T545 73L481 243H211L144 72Q140 60 140 49T150 24T182 10H191V0H-10V10H-1Q24 10 48 26T87 73L313 611Q350 692 350 714H359L627 73Q641 42 665 26T715 10ZM223 273H469L349 594L223 273Z" />
<glyph unicode="&#xe6;" glyph-name="ae" horiz-adv-x="901" d="M416 10Q436 10 450 24T466 58V320H302L152 67Q145 54 145 45T148 27Q156 10 176 10Q178 10 179 10H189V0H-10V10H-3Q21 10 47 28T89 71L463 655Q469 668 463 679T442 690H438V700H681Q712 700 749
706T800 718V605H790V620Q790 640 776 654T742 669H531V350H700Q720 351 734 365T748 400V414H758V256H748V271Q748 291 734 305T701 320H531V31H695Q803 32 848 139H858L802 0H406L407 10H416ZM466 350V598L319 350H466Z" />
<glyph unicode="&#xe7;" glyph-name="ccedilla" horiz-adv-x="760" d="M394 -61Q425 -50 450 -57Q499 -70 499 -118T455 -187Q430 -199 406 -199T358 -192L359 -182Q395 -182 422 -167T449 -121Q449 -77 398 -77Q382 -77 365 -85L360 -75L407 -14Q253 -9 157 90T60
352T159 614T423 714Q557 714 660 646L680 505H671Q649 591 582 637T423 684Q292 684 214 593T135 352T212 111T417 16Q529 16 604 77Q685 143 702 292H710L698 135Q644 46 549 9Q497 -12 435 -14L394 -61Z" />
<glyph unicode="&#xe8;" glyph-name="egrave" horiz-adv-x="577" d="M304 771L297 764Q217 802 136 849Q151 877 177 902Q240 841 304 771ZM73 10Q99 10 117 28T137 73V633Q137 657 118 673T73 690H61L60 700H353Q396 700 429 707T472 718V592H462V610Q462 634
446 651T406 669H202V360H371Q391 361 405 375T419 410V424H429V266H419V281Q419 312 390 326Q382 330 372 330H202V31H345Q419 31 458 64T523 162L533 161L475 0H60V10H73Z" />
<glyph unicode="&#xe9;" glyph-name="eacute" horiz-adv-x="577" d="M297 764L290 771Q366 853 417 902Q444 875 458 849Q393 812 297 764ZM73 10Q99 10 117 28T137 73V633Q137 657 118 673T73 690H61L60 700H353Q396 700 429 707T472 718V592H462V610Q462 634
446 651T406 669H202V360H371Q391 361 405 375T419 410V424H429V266H419V281Q419 301 406 315T372 330H202V31H345Q419 31 458 64T523 162H533L475 0H60V10H73Z" />
<glyph unicode="&#xea;" glyph-name="ecircumflex" horiz-adv-x="577" d="M292 890H302L416 771L410 763L296 829L192 763L186 771L292 890ZM73 10Q99 10 117 28T137 73V633Q137 657 118 673T73 690H61L60 700H353Q396 700 429 707T472 718V592H462V610Q462 634
446 651T406 669H202V360H371Q391 361 405 375T419 410V424H429V266H419V281Q419 301 406 315T372 330H202V31H345Q419 31 458 64T523 162H533L475 0H60V10H73Z" />
<glyph unicode="&#xeb;" glyph-name="edieresis" horiz-adv-x="577" d="M219 764T203 764T176 775T164 803T175 830T203 842T230 831T242 803T231 776ZM407 764T391 764T364 775T352 803T363 830T391 842T418 831T430 803T419 776ZM73 10Q99 10 117 28T137 73V633Q137
657 118 673T73 690H61L60 700H353Q396 700 429 707T472 718V592H462V610Q462 634 446 651T406 669H202V360H371Q391 361 405 375T419 410V424H429V266H419V281Q419 312 390 326Q382 330 372 330H202V31H345Q419 31 458 64T523 162H533L475 0H60V10H73Z" />
<glyph unicode="&#xec;" glyph-name="igrave" horiz-adv-x="338" d="M177 771L170 764Q89 802 9 849Q23 877 50 902Q113 841 177 771ZM73 10Q99 10 117 28T137 73V628Q136 654 118 672T73 690H60V700H279V690H266Q240 690 222 672T202 628V73Q202 47 221 29T266
10H279V0H60V10H73Z" />
<glyph unicode="&#xed;" glyph-name="iacute" horiz-adv-x="338" d="M170 764L163 771Q239 853 289 902Q316 875 330 849Q266 812 170 764ZM73 10Q99 10 117 28T137 73V628Q136 654 118 672T73 690H60V700H279V690H266Q240 690 222 672T202 628V73Q202 47 221
29T266 10H279V0H60V10H73Z" />
<glyph unicode="&#xee;" glyph-name="icircumflex" horiz-adv-x="338" d="M164 890H174L289 771L283 763L169 829L64 763L58 771L164 890ZM73 10Q99 10 117 28T137 73V628Q136 654 118 672T73 690H60V700H279V690H266Q240 690 222 672T202 628V73Q202 47 221 29T266
10H279V0H60V10H73Z" />
<glyph unicode="&#xef;" glyph-name="idieresis" horiz-adv-x="338" d="M92 764T76 764T48 775T36 803T47 830T75 842T103 831T114 803T103 776ZM280 764T264 764T237 775T225 803T236 830T264 842T291 831T303 803T292 776ZM73 10Q99 10 117 28T137 73V628Q136
654 118 672T73 690H60V700H279V690H266Q240 690 222 672T202 628V73Q202 47 221 29T266 10H279V0H60V10H73Z" />
<glyph unicode="&#xf0;" glyph-name="eth" horiz-adv-x="817" d="M563 700T660 604T758 350T661 96T403 0H65V10H78Q104 10 122 28T142 73V335H60V365H142V633Q142 657 123 673T78 690H65V700H403Q563 700 660 604ZM207 335V30H403Q531 30 609 118T688 350T610
582T403 670H207V365H370V335H207Z" />
<glyph unicode="&#xf1;" glyph-name="ntilde" horiz-adv-x="841" d="M496 809Q538 809 552 843H562Q556 793 527 773Q513 764 493 764T432 786T376 808Q338 808 321 767H311Q317 806 334 829T375 852T440 831T496 809ZM778 690Q753 690 735 673T716 630V114Q716
56 723 4L725 -14H716L171 568V70Q171 45 189 28T232 10H251V0H45V10H64Q89 10 107 27T125 71V590Q125 651 118 699L116 715H126L671 133V629Q670 655 652 672T609 690H590V700H796V690H778Z" />
<glyph unicode="&#xf2;" glyph-name="ograve" horiz-adv-x="848" d="M432 771L425 764Q345 802 265 849Q279 877 305 902Q369 841 432 771ZM254 714T424 714T702 614T809 350T702 87T425 -14T147 86T40 350T147 613ZM286 16T424 16T646 108T731 350T647 592T424
684T202 592T117 350T201 108Z" />
<glyph unicode="&#xf3;" glyph-name="oacute" horiz-adv-x="848" d="M425 764L418 771Q495 853 545 902Q572 875 586 849Q522 812 425 764ZM254 714T424 714T702 614T809 350Q809 242 761 159T625 31T424 -14Q254 -14 147 86T40 350T147 613ZM286 16T424 16T646
108T731 350T647 592T424 684T202 592T117 350T201 108Z" />
<glyph unicode="&#xf4;" glyph-name="ocircumflex" horiz-adv-x="848" d="M420 890H430L544 771L538 763L425 829L320 763L314 771L420 890ZM254 714T424 714T702 614T809 350T702 87T425 -14T147 86T40 350T147 613ZM286 16T424 16T646 108T731 350T647 592T424
684T202 592T117 350T201 108Z" />
<glyph unicode="&#xf5;" glyph-name="otilde" horiz-adv-x="848" d="M496 809Q537 809 551 843H561Q555 793 527 773Q513 764 493 764T432 786T375 808Q337 808 321 767H311Q317 806 334 829T375 852T439 831T496 809ZM254 714T424 714T702 614T809 350T702 87T425
-14T147 86T40 350T147 613ZM286 16T424 16T646 108T731 350T647 592T424 684T202 592T117 350T201 108Z" />
<glyph unicode="&#xf6;" glyph-name="odieresis" horiz-adv-x="848" d="M347 764T331 764T304 775T292 803T303 830T331 842T358 831T370 803T359 776ZM536 764T520 764T492 775T481 803T492 830T519 842T547 831T559 803T548 776ZM254 714T424 714T702 614T809
350Q809 242 761 159T625 31T424 -14Q254 -14 147 86T40 350T147 613ZM286 16T424 16T646 108T731 350T647 592T424 684T202 592T117 350T201 108Z" />
<glyph unicode="&#xf7;" glyph-name="divide" horiz-adv-x="481" d="M255 433T241 433T216 443T205 468T215 493T240 503T265 493T276 469T266 444ZM40 287V332H442V287H40ZM255 117T241 117T216 127T205 152T215 177T240 187T265 177T276 153T266 128Z" />
<glyph unicode="&#xf8;" glyph-name="oslash" horiz-adv-x="848" d="M673 638Q809 536 809 342Q809 242 761 159T625 31T424 -14Q286 -14 187 54L123 -23L98 -1L160 74Q103 123 72 193T40 350Q40 513 147 613T424 714Q551 714 645 657L699 722L725 700L673 638ZM424
684Q286 684 202 592T117 354T195 116L616 621Q537 684 424 684ZM218 91Q300 16 431 16T646 108T731 353T641 599L218 91Z" />
<glyph unicode="&#xf9;" glyph-name="ugrave" horiz-adv-x="785" d="M409 771L402 764Q321 802 241 849Q255 877 282 902Q345 841 409 771ZM735 690H719Q698 690 683 677T666 643V247Q666 130 592 58T395 -14T196 57T119 246V640Q119 670 93 684Q81 690 66 690H50V700H253V690H237Q215
690 200 677T184 642V260Q184 151 242 84T399 17T558 80T619 247V642Q618 663 603 676T566 690H550V700H735V690Z" />
<glyph unicode="&#xfa;" glyph-name="uacute" horiz-adv-x="785" d="M402 764L395 771Q471 853 522 902Q548 875 562 849Q498 812 402 764ZM735 690H719Q698 690 683 677T666 643V247Q666 130 592 58T395 -14T196 57T119 246V641Q119 662 104 676T66 690H50V700H253V690H237Q207
690 192 667Q185 656 184 642V260Q184 151 242 84T396 17Q497 17 558 80T619 247V642Q618 675 587 686Q577 690 566 690H550V700H735V690Z" />
<glyph unicode="&#xfb;" glyph-name="ucircumflex" horiz-adv-x="785" d="M396 890H406L521 771L515 763L401 829L296 763L290 771L396 890ZM735 690H719Q698 690 683 677T666 643V247Q666 130 592 58T395 -14T196 57T119 246V640Q119 662 104 676T66 690H50V700H253V690H237Q215
690 200 677T184 642V260Q184 151 242 84T399 17T558 80T619 247V642Q618 675 587 686Q577 690 566 690H550V700H735V690Z" />
<glyph unicode="&#xfc;" glyph-name="udieresis" horiz-adv-x="785" d="M324 764T308 764T280 775T268 803T279 830T307 842T335 831T347 803T336 776ZM512 764T496 764T469 775T457 803T468 830T496 842T523 831T535 803T524 776ZM735 690H719Q698 690 683 677T666
643V247Q666 130 592 58T395 -14T196 57T119 246V640Q119 670 93 684Q81 690 66 690H50V700H253V690H237Q207 690 192 667Q185 656 184 642V260Q184 151 242 84T396 17Q497 17 558 80T619 247V642Q618 675 587 686Q577 690 566 690H550V700H735V690Z" />
<glyph unicode="&#xfd;" glyph-name="yacute" horiz-adv-x="661" d="M343 764L336 771Q413 853 463 902Q490 875 504 849Q440 812 343 764ZM672 690H658Q628 690 602 674T557 632L360 312V73Q360 47 378 29T424 10H436V0H218V10H231Q257 10 275 28T295 72V313L104
632Q89 656 62 673T4 690H-10V700H236V690H223Q201 690 189 670Q183 659 183 649T188 628L338 348L498 629Q503 639 503 649T496 670Q484 690 462 690H450V700H672V690Z" />
<glyph unicode="&#xfe;" glyph-name="thorn" horiz-adv-x="554" d="M505 399T505 355T487 273Q455 202 374 174Q345 164 325 164Q263 164 219 187V197Q291 181 354 213Q408 240 428 305Q435 325 435 342T435 365Q433 435 398 476T300 518H185V73Q185 36 217 18Q231
10 249 10H261V0H43V10H55Q82 10 100 28T120 73V628Q119 654 101 672T56 690H43V700H261V690H249Q223 690 204 672T185 628V548H304Q451 548 492 435Q505 399 505 355Z" />
<glyph unicode="&#xff;" glyph-name="ydieresis" horiz-adv-x="661" d="M265 764T249 764T222 775T210 803T221 830T249 842T276 831T288 803T277 776ZM454 764T438 764T410 775T399 803T410 830T437 842T465 831T477 803T466 776ZM672 690H658Q628 690 602 674T557
632L360 312V73Q360 47 378 29T424 10H436V0H218V10H231Q257 10 275 28T295 72V313L104 632Q89 656 62 673T4 690H-10V700H236V690H223Q201 690 189 670Q183 659 183 649T188 628L338 348L498 629Q503 639 503 649T496 670Q484 690 462 690H450V700H672V690Z" />
<glyph unicode="&#x2013;" glyph-name="endash" horiz-adv-x="500" d="M0 271V311H500V271H0Z" />
<glyph unicode="&#x2014;" glyph-name="emdash" horiz-adv-x="800" d="M0 271V311H800V271H0Z" />
<glyph unicode="&#x2018;" glyph-name="quoteleft" horiz-adv-x="194" d="M100 592Q92 592 78 598T54 628T44 679T62 733Q93 782 147 784L150 775Q127 767 115 754T101 726Q98 695 120 670Q149 639 139 616T100 592Z" />
<glyph unicode="&#x2019;" glyph-name="quoteright" horiz-adv-x="189" d="M45 606Q73 615 83 632T93 658Q93 683 72 707Q56 725 54 732Q51 747 57 760Q66 780 91 780Q122 780 133 752T145 697T129 645Q99 599 47 598L45 606Z" />
<glyph unicode="&#x201a;" glyph-name="quotesinglbase" horiz-adv-x="194" d="M45 -89Q75 -79 85 -62T95 -35Q95 -7 74 17Q57 36 55 44Q51 59 57 73Q67 94 93 94Q126 94 138 64T151 7T133 -47Q102 -95 48 -97L45 -89Z" />
<glyph unicode="&#x201c;" glyph-name="quotedblleft" horiz-adv-x="334" d="M98 592Q89 592 75 598T52 628T42 679T59 733Q90 782 145 784L147 775Q124 767 112 754T98 726Q95 695 118 670Q146 639 136 616T98 592ZM287 775Q257 765 247 748T237 721Q237 693
258 670Q286 639 276 615Q266 592 239 592Q207 592 195 622T182 679T199 733Q230 782 285 784L287 775Z" />
<glyph unicode="&#x201d;" glyph-name="quotedblright" horiz-adv-x="334" d="M196 758Q206 780 232 780Q240 780 253 774T276 746T286 697T269 645Q239 599 187 598L185 606Q207 613 218 626T232 652Q234 680 219 699Q217 701 212 707T205 716T199 724T194 735Q191
747 196 758ZM45 606Q73 615 83 632T93 658Q93 683 72 707Q56 725 54 732Q51 747 57 760Q66 780 91 780Q122 780 133 752T145 697T129 645Q99 599 47 598L45 606Z" />
<glyph unicode="&#x201e;" glyph-name="quotedblbase" horiz-adv-x="331" d="M54 63Q54 69 58 77T73 92T91 98T105 98T124 89T146 58T156 8T138 -50Q105 -100 48 -102L45 -93Q69 -85 82 -71T96 -42Q100 -9 76 17Q51 45 54 63ZM189 75Q200 99 229 99Q238 99 252
92T277 60T287 16Q287 -43 245 -77Q216 -101 180 -102L177 -93Q201 -85 214 -71T229 -42Q231 -11 215 9Q213 12 207 18T199 28T192 37T187 49Q184 62 189 75Z" />
<glyph unicode="&#x2022;" glyph-name="bullet" horiz-adv-x="335" d="M70 318T70 325T78 356T99 393T136 414T168 423T200 415T237 394T257 357T266 325T260 299T245 268T225 247T194 233T168 227L154 229Q111 244 99 256T79 293ZM214 292T218 306T223 325T219
343T207 364T186 375T168 380T150 376T129 364T118 343T113 325T117 307T129 286T150 275T168 270Q195 274 204 283Z" />
<glyph unicode="&#x2039;" glyph-name="guilsinglleft" horiz-adv-x="263" d="M223 485Q179 373 105 292Q179 208 224 95L215 90Q139 209 40 292Q96 338 136 382T215 490L223 485Z" />
<glyph unicode="&#x203a;" glyph-name="guilsinglright" horiz-adv-x="263" d="M40 95Q84 208 159 292Q85 373 41 485L49 490Q87 426 127 382T224 292Q125 209 49 90L40 95Z" />
</font>
</defs>
</svg>
