<?xml version="1.0" standalone="no"?>
<!DOCTYPE svg PUBLIC "-//W3C//DTD SVG 1.1//EN" "http://www.w3.org/Graphics/SVG/1.1/DTD/svg11.dtd">
<svg xmlns="http://www.w3.org/2000/svg">
<defs >
<font id="FrankRuhlLibre" horiz-adv-x="542" ><font-face
    font-family="Frank Ruhl Libre Black"
    units-per-em="1000"
    panose-1="0 0 10 0 0 0 0 0 0 0"
    ascent="957"
    descent="-334"
    alphabetic="0" />
<glyph unicode=" " glyph-name="space" horiz-adv-x="214" />
<glyph unicode="!" glyph-name="exclam" horiz-adv-x="322" d="M82 548Q78 573 78 593Q78 671 161 671Q244 671 244 593Q244 573 240 548L185 203H137L82 548ZM129 -9T106 14T82 70Q82 103 105 126T162 150Q195 150 218 126T241 70Q241 37 218 14T161 -9Q129 -9 106 14Z" />
<glyph unicode="&quot;" glyph-name="quotedbl" horiz-adv-x="370" d="M82 414T74 422T64 440L44 587Q40 617 40 622Q40 643 53 659T97 675Q128 675 141 659T154 622Q154 617 150 587L130 440Q129 431 121 423T97 414Q82 414 74 422ZM257 414T250 422T241 440L220
587Q217 610 217 621Q217 644 229 659T273 675Q304 675 317 659T330 622Q330 617 326 587L306 440Q305 430 297 422T273 414Q257 414 250 422Z" />
<glyph unicode="#" glyph-name="numbersign" horiz-adv-x="500" d="M388 390L372 272H456V192H360L334 0H252L278 192H184L158 0H76L102 192H19V272H114L130 390H45V470H141L167 660H249L223 470H317L343 660H425L399 470H482V390H388ZM306 390H212L196 272H290L306 390Z" />
<glyph unicode="$" glyph-name="dollar" horiz-adv-x="566" d="M530 98T472 50T324 -7V-97H268V-9Q208 -6 158 12T80 60T51 124Q51 149 66 166T113 183Q142 183 157 167T173 126Q173 114 167 96Q163 82 163 76Q163 51 194 38T268 21V260L231 275Q154 307 111 359T68
481Q68 558 120 611T268 671V732H324V671Q401 664 449 630T498 547Q498 521 483 504T435 487Q404 487 390 503T376 547Q376 562 381 573T386 592Q386 610 371 623T324 642V416L365 398Q455 358 492 311T530 194Q530 98 472 50ZM163 510T190 486T268 441V643Q219
638 191 614T163 551Q163 510 190 486ZM374 26T402 49T431 114Q431 156 402 185T324 236V21Q374 26 402 49Z" />
<glyph unicode="%" glyph-name="percent" horiz-adv-x="849" d="M576 672H633L269 -12H211L576 672ZM148 320T101 366T54 494Q54 575 101 622T223 669Q298 669 344 623T391 494Q391 445 369 406T309 343T223 320Q148 320 101 366ZM251 347T261 387T271 494Q271
642 223 642Q174 642 174 494Q174 347 223 347Q251 347 261 387ZM553 -10T506 36T459 164Q459 245 506 292T628 339Q703 339 749 293T796 164Q796 115 774 76T714 13T628 -10Q553 -10 506 36ZM656 17T666 57T676 164Q676 312 628 312Q579 312 579 164Q579 17 628
17Q656 17 666 57Z" />
<glyph unicode="&amp;" glyph-name="ampersand" horiz-adv-x="804" d="M657 100T685 73T732 36T779 27V0H651Q578 0 544 12T484 49Q401 -11 277 -11Q168 -11 96 30T23 162Q23 211 46 244T105 300T202 348Q161 393 140 432T118 513Q118 562 148 598T231 653T345
672Q451 672 496 639T541 546Q541 517 526 495T476 452T376 400L558 205Q583 258 583 302Q583 325 577 335T558 348T515 351V376H695V351Q663 351 652 349T636 339T627 306Q615 232 587 174Q657 100 685 73ZM310 645T289 623T267 567Q267 541 279 518T306 476T354
424Q394 451 408 477T422 542Q422 645 347 645Q310 645 289 623ZM190 49T325 49Q392 49 451 85L227 320Q190 280 190 200Q190 49 325 49Z" />
<glyph unicode="&apos;" glyph-name="quotesingle" horiz-adv-x="193" d="M80 414T73 422T64 440L43 587Q40 610 40 621Q40 644 52 659T96 675Q127 675 140 659T153 622Q153 617 149 587L129 440Q128 430 120 422T96 414Q80 414 73 422Z" />
<glyph unicode="(" glyph-name="parenleft" horiz-adv-x="401" d="M279 -122T212 -71T109 68T73 266Q73 376 109 464T212 603T370 657L373 632Q306 612 270 508T233 267Q233 130 270 26T373 -101L370 -124Q279 -122 212 -71Z" />
<glyph unicode=")" glyph-name="parenright" horiz-adv-x="401" d="M28 -101Q94 -79 131 25T168 267Q168 403 132 507T28 632L31 657Q122 655 189 604T292 464T328 266Q328 156 292 68T189 -71T31 -124L28 -101Z" />
<glyph unicode="*" glyph-name="asterisk" horiz-adv-x="388" d="M165 293T150 303T135 331Q135 338 138 345L173 440L169 442L104 364Q94 351 78 351Q53 351 31 387Q19 410 19 425Q19 440 27 449T49 461L148 479V482L48 499Q34 502 27 511T19 535Q19 552 31 574Q53
610 78 610Q93 610 105 596L170 518L173 519L138 615Q135 623 135 629Q135 646 150 656T193 667Q221 667 236 657T252 629Q252 623 249 615L213 518L215 516L283 596Q294 610 310 610Q333 610 355 574Q368 552 368 534Q368 520 360 511T338 499L235 482V479L338
460Q352 458 360 449T368 426Q368 409 355 387Q334 351 309 351Q295 351 282 364L216 443L213 442L249 345Q252 338 252 331Q252 314 237 304T193 293Q165 293 150 303Z" />
<glyph unicode="+" glyph-name="plus" horiz-adv-x="528" d="M30 187V282H217V469H311V282H499V187H311V0H217V187H30Z" />
<glyph unicode="," glyph-name="comma" horiz-adv-x="271" d="M78 -78Q101 -74 123 -62T145 -30Q145 -20 140 -17T121 -9Q92 0 74 20T56 70Q56 102 76 126T134 150Q168 150 191 128T215 55Q215 -8 179 -55T82 -110L78 -78Z" />
<glyph unicode="-" glyph-name="hyphen" horiz-adv-x="395" d="M59 302H336V200H59V302Z" />
<glyph unicode="." glyph-name="period" horiz-adv-x="292" d="M114 -9T91 14T67 70Q67 102 90 126T146 150Q178 150 202 127T226 70Q226 38 203 15T146 -9Q114 -9 91 14Z" />
<glyph unicode="/" glyph-name="slash" horiz-adv-x="414" d="M303 672H405L111 -12H9L303 672Z" />
<glyph unicode="0" glyph-name="zero" horiz-adv-x="608" d="M181 -12T113 77T45 330Q45 493 113 582T304 672Q427 672 495 583T563 330Q563 167 495 78T304 -12Q181 -12 113 77ZM335 21T355 46T385 138T396 328Q396 448 386 516T356 611T304 639Q272 639 253
612T223 516T212 328Q212 205 222 138T253 46T304 21Q335 21 355 46Z" />
<glyph unicode="1" glyph-name="one" horiz-adv-x="492" d="M109 33H173Q185 33 188 40T192 71V555L151 536Q93 508 65 500V549Q134 575 239 660H351V71Q351 47 355 40T374 33H442V0H109V33Z" />
<glyph unicode="2" glyph-name="two" horiz-adv-x="572" d="M40 8Q40 67 59 110T110 185T201 267Q252 310 281 341T330 412T349 507Q349 567 327 603T263 639Q242 639 227 630T212 604Q212 598 218 582Q228 560 228 540Q228 507 208 485T150 462Q114 462 94 483T74
543Q74 609 134 640T289 672Q395 672 457 631T520 501Q520 453 499 416T434 344T314 267L266 240Q195 203 158 176T112 116H408Q446 116 464 132T489 185H522L497 0H40V8Z" />
<glyph unicode="3" glyph-name="three" horiz-adv-x="564" d="M144 -12T90 18T35 101Q35 136 58 156T114 177Q147 177 168 157T189 110Q189 102 187 95T184 84Q179 71 179 59Q179 40 193 31T230 21Q279 21 305 65T332 188Q332 342 227 342L160 339V377L217 375Q310
375 310 510Q310 576 293 607T236 639Q212 639 201 629T189 602Q189 592 195 582Q203 568 203 552Q203 521 183 503T129 484Q94 484 72 504T49 558Q49 611 104 641T247 672Q316 672 368 653T448 599T477 519Q477 457 425 415T289 363V361Q345 357 393 335T470 273T499
176Q499 120 469 78T379 12T238 -12Q144 -12 90 18Z" />
<glyph unicode="4" glyph-name="four" horiz-adv-x="563" d="M218 33H268Q276 33 281 39T286 64V169H25V242Q89 340 160 438T330 668H439V266H533V169H439V64Q439 45 443 39T460 33H512V0H218V33ZM286 266V542H284L261 510Q130 332 92 266H286Z" />
<glyph unicode="5" glyph-name="five" horiz-adv-x="560" d="M155 -12T100 19T45 105Q45 138 65 159T121 181Q154 181 176 162T198 114Q198 99 188 83Q180 69 180 59Q180 42 194 32T232 21Q279 21 305 71T332 214Q332 302 308 339T232 377Q196 377 167 360T110
304H70L107 660H410Q434 660 443 664T456 686H489L459 547H134L115 362L117 361Q165 410 260 410Q328 410 384 386T472 315T505 207Q505 146 473 96T382 17T241 -12Q155 -12 100 19Z" />
<glyph unicode="6" glyph-name="six" horiz-adv-x="609" d="M181 -12T113 61T45 279Q45 404 96 496T244 639T477 690V657Q418 657 358 625T256 522T214 346L215 345Q240 378 273 397T359 417Q419 417 464 390T534 316T559 206Q559 104 493 46T309 -12Q181 -12
113 61ZM354 21T376 68T399 189Q399 270 374 317T305 364Q263 364 239 321T215 195Q215 119 237 70T307 21Q354 21 376 68Z" />
<glyph unicode="7" glyph-name="seven" horiz-adv-x="555" d="M174 -12T152 13T129 81Q129 138 168 208T284 376Q386 507 412 544H143Q112 544 96 538T70 507L63 490H30L47 660H500V581Q437 497 385 421Q305 303 305 180Q305 153 309 119Q311 91 311 83Q311 36
287 12T219 -12Q174 -12 152 13Z" />
<glyph unicode="8" glyph-name="eight" horiz-adv-x="564" d="M208 -12T157 5T73 59T40 153Q40 209 72 248T162 316Q60 375 60 478Q60 536 91 580T175 648T289 672Q337 672 384 657T463 609T495 526Q495 474 463 443T373 384Q439 350 476 304T514 192Q514 129
479 83T387 12T263 -12Q208 -12 157 5ZM372 421T386 456T401 524Q401 574 369 606T287 639Q242 639 211 613T180 546Q180 515 199 492T243 453T310 416L342 400Q372 421 386 456ZM315 21T354 50T393 124Q393 172 352 205T239 273Q200 293 191 298Q161 270 148 240T135
171Q135 107 166 64T262 21Q315 21 354 50Z" />
<glyph unicode="9" glyph-name="nine" horiz-adv-x="609" d="M132 3Q191 3 251 35T353 138T395 314L394 315Q369 282 336 263T250 243Q190 243 145 270T75 344T50 454Q50 556 116 614T300 672Q428 672 496 599T564 381Q564 256 513 164T365 21T132 -30V3ZM346
296T370 339T394 465Q394 541 372 590T302 639Q255 639 233 592T210 471Q210 390 235 343T304 296Q346 296 370 339Z" />
<glyph unicode=":" glyph-name="colon" horiz-adv-x="292" d="M113 265T90 289T67 346Q67 378 91 401T146 425Q178 425 202 402T226 346Q226 312 203 289T146 265Q113 265 90 289ZM114 -9T91 14T67 70Q67 102 90 126T146 150Q178 150 202 127T226 70Q226 38 203
15T146 -9Q114 -9 91 14Z" />
<glyph unicode=";" glyph-name="semicolon" horiz-adv-x="272" d="M103 266T80 289T56 345Q56 377 79 401T135 425Q167 425 191 402T215 345Q215 313 192 290T135 266Q103 266 80 289ZM79 -78Q102 -74 124 -62T146 -30Q146 -20 141 -17T122 -9Q93 0 75 20T57 70Q57
102 77 126T135 150Q169 150 192 128T216 55Q216 -8 180 -55T83 -110L79 -78Z" />
<glyph unicode="&lt;" glyph-name="less" horiz-adv-x="552" d="M507 476V382L163 235L507 87V-7L38 195V274L507 476Z" />
<glyph unicode="=" glyph-name="equal" horiz-adv-x="528" d="M30 378H499V284H30V378ZM30 185H499V91H30V185Z" />
<glyph unicode="&gt;" glyph-name="greater" horiz-adv-x="552" d="M514 195L45 -7V87L389 235L45 382V476L514 274V195Z" />
<glyph unicode="?" glyph-name="question" horiz-adv-x="554" d="M226 230Q226 293 240 330T283 408Q308 445 320 473T332 547Q332 602 314 623T270 644Q246 644 230 631T213 598Q213 585 224 572Q231 563 234 555T238 534Q238 503 216 482T156 460Q117 460 94
484T71 545Q71 610 139 640T292 671Q377 671 438 637T499 531Q499 495 483 468T444 422T381 378Q342 353 320 335T282 290T266 230V204H226V230ZM216 -9T193 14T169 70Q169 102 193 126T249 150Q281 150 305 127T329 70Q329 38 305 15T249 -9Q216 -9 193 14Z" />
<glyph unicode="@" glyph-name="at" horiz-adv-x="821" d="M305 -12T224 21T91 124T39 294Q39 403 99 489T256 624T455 672Q547 672 622 634T740 532T783 397Q783 335 751 279T662 190T541 156Q463 156 463 209Q463 220 466 233L478 282L475 284Q446 225 402 191T309
156Q268 156 240 182T211 262Q211 317 242 375T331 471T468 510Q483 510 491 508T509 502T526 494L529 506H638L571 249Q569 241 566 230T562 212Q562 206 566 203T580 200Q612 200 637 229T677 304T691 395Q691 462 660 514T575 594T456 622Q371 622 304 575T199
453T161 293Q161 229 185 171T267 74T421 35Q465 35 509 43T588 66L598 37Q560 12 505 0T396 -12Q305 -12 224 21ZM386 203T424 259T483 374L517 467Q503 478 484 478Q442 478 409 437T356 341T337 247Q337 228 342 216T360 203Q386 203 424 259Z" />
<glyph unicode="A" glyph-name="A" horiz-adv-x="735" d="M653 58T660 49T680 36T722 33V0H402V33H451Q478 33 478 54Q478 62 473 75L416 228H211L153 72Q149 61 149 53Q149 33 179 33H217V0H9V33Q39 33 54 36T80 51T101 88L329 660H432L644 83Q653 58 660 49ZM402
267L315 502H312L225 267H402Z" />
<glyph unicode="B" glyph-name="B" horiz-adv-x="658" d="M33 33Q63 33 77 37T97 53T102 89V569Q102 597 98 608T80 623T33 627V660H356Q480 660 543 622T607 508Q607 449 568 411T453 357V356Q635 324 635 177Q635 0 367 0H33V33ZM320 371Q443 371 443 499Q443
622 321 622Q298 622 289 620T277 609T274 582V371H320ZM460 38T460 176Q460 251 424 291T322 332H274V102Q274 65 288 52T340 38Q460 38 460 176Z" />
<glyph unicode="C" glyph-name="C" horiz-adv-x="672" d="M219 -12T127 74T34 323Q34 433 76 511T198 631T386 672Q437 672 469 665T533 645Q556 635 567 635Q576 635 583 639T594 651L597 660H626L636 471H598Q584 549 535 594T412 639Q298 639 257 543T215 326Q215
185 265 103T414 21Q487 21 539 62T615 171L645 159Q615 77 553 33T378 -12Q219 -12 127 74Z" />
<glyph unicode="D" glyph-name="D" horiz-adv-x="760" d="M33 33Q74 33 89 36T108 50T112 89V570Q112 597 107 608T87 623T33 627V660H369Q546 658 636 580T726 339Q726 161 627 81T336 0H33V33ZM446 37T495 109T545 336Q545 479 495 551T347 623Q310 623 297
617T284 585V96Q284 70 289 58T306 41T341 37Q446 37 495 109Z" />
<glyph unicode="E" glyph-name="E" horiz-adv-x="619" d="M33 33Q65 33 79 37T97 52T102 89V570Q102 596 98 607T79 623T33 627V660H572V503H531Q518 554 501 579T456 614T380 623H311Q291 623 283 616T274 589V367H393Q420 367 434 374T455 401T467 459H500V230H467Q463
270 456 289T434 316T393 323H274V103Q274 72 279 60T305 42T375 37Q427 37 461 48T519 89T553 174H594L582 0H33V33Z" />
<glyph unicode="F" glyph-name="F" horiz-adv-x="575" d="M33 33Q65 33 79 37T97 52T102 89V570Q102 596 98 607T79 623T33 627V660H552V503H511Q498 554 481 579T436 614T360 623H311Q291 623 283 616T274 589V357H378Q405 357 419 364T440 391T452 449H485V220H452Q448
260 441 279T419 306T378 313H274V89Q274 64 278 53T297 38T343 33V0H33V33Z" />
<glyph unicode="G" glyph-name="G" horiz-adv-x="737" d="M219 -12T127 74T34 323Q34 433 76 511T198 631T386 672Q437 672 469 665T533 645Q556 635 567 635Q576 635 583 639T594 651L597 660H630L636 471H598Q584 549 535 594T412 639Q298 639 257 543T215 326Q215
185 265 103T414 21Q441 21 456 26T493 42V208Q493 234 489 246T475 262T447 266H432V299H722V266H704Q683 266 672 254T660 208V0H627Q620 9 612 13T588 18Q580 18 552 11Q511 1 472 -5T378 -12Q219 -12 127 74Z" />
<glyph unicode="H" glyph-name="H" horiz-adv-x="791" d="M33 33Q67 33 81 37T98 52T101 89V569Q101 597 98 607T81 622T33 627V660H341V627Q307 627 293 623T276 608T273 569V365H519V569Q519 597 516 607T499 622T451 627V660H758V627Q724 627 711 623T694 608T691
569V89Q691 63 694 52T711 37T758 33V0H451V33Q486 33 499 37T516 52T519 89V326H273V89Q273 63 276 52T293 37T341 33V0H33V33Z" />
<glyph unicode="I" glyph-name="I" horiz-adv-x="375" d="M33 33Q67 33 80 37T98 51T102 89V569Q102 596 97 607T79 623T33 627V660H342V627Q310 627 297 623T279 608T274 569V89Q274 62 278 51T296 37T342 33V0H33V33Z" />
<glyph unicode="J" glyph-name="J" horiz-adv-x="387" d="M-85 -212T-85 -112Q-85 -73 -63 -53T-10 -32Q18 -32 40 -51T63 -105Q63 -120 59 -130T48 -152T40 -168Q40 -178 59 -178Q119 -178 119 -79V569Q119 596 115 607T97 623T51 627V660H360V627Q327 627 314
623T296 608T291 569V71Q291 -28 272 -89T204 -181T71 -212Q-85 -212 -85 -112Z" />
<glyph unicode="K" glyph-name="K" horiz-adv-x="748" d="M614 150T621 141Q652 96 668 76T702 44T743 33V0H419V33H453Q478 33 478 49Q478 62 461 87L299 315L274 292V89Q274 62 277 51T294 37T342 33V0H33V33Q67 33 80 36T98 51T102 89V569Q102 597 98 608T80
623T33 627V660H342V627Q310 627 297 623T279 608T274 569V343L514 578Q528 592 528 606Q528 615 521 621T498 627H472V660H668V627Q636 627 611 610T542 549L510 518L417 429L590 185Q614 150 621 141Z" />
<glyph unicode="L" glyph-name="L" horiz-adv-x="594" d="M33 33Q67 33 80 36T98 51T102 89V569Q102 597 98 608T80 623T33 627V660H342V627Q310 627 297 623T279 608T274 569V93Q274 66 277 56T293 41T336 37Q422 37 470 66T534 174H575L563 0H33V33Z" />
<glyph unicode="M" glyph-name="M" horiz-adv-x="864" d="M19 33H32Q57 33 69 38T85 53T89 86V570Q89 596 85 607T66 622T18 627V660H261L432 228H433L599 660H831V627Q799 626 785 622T767 607T763 570V89Q763 64 767 53T786 37T831 33V0H529V33Q558 33 570 37T587
53T591 89V540H589L395 23H331L131 530H130V86Q130 53 140 43T187 33H207V0H19V33Z" />
<glyph unicode="N" glyph-name="N" horiz-adv-x="703" d="M141 530H140V85Q140 56 150 45T190 33H217V0H29V33H52Q76 33 87 45T99 85V570Q99 596 95 607T76 622T28 627V660H264L565 190H568V579Q568 627 517 627H489V660H674V627H655Q609 627 609 579V-7H493L141 530Z" />
<glyph unicode="O" glyph-name="O" horiz-adv-x="748" d="M211 -10T123 78T34 331Q34 496 122 584T374 672Q537 672 625 584T714 331Q714 166 626 78T374 -10Q211 -10 123 78ZM462 23T497 97T533 331Q533 486 495 562T374 639Q286 639 251 565T215 331Q215 172
250 98T374 23Q462 23 497 97Z" />
<glyph unicode="P" glyph-name="P" horiz-adv-x="624" d="M33 33Q67 33 80 37T98 51T102 89V570Q102 596 98 607T79 623T33 627V660H340Q468 660 537 611T607 470Q607 360 528 311T301 262H274V89Q274 63 278 52T296 37T339 33V0H33V33ZM302 302Q361 302 397 342T434
467Q434 544 403 583T310 623Q287 623 281 617T274 588V302H302Z" />
<glyph unicode="Q" glyph-name="Q" horiz-adv-x="748" d="M714 189T648 104T458 -3Q459 -58 475 -83T514 -109Q545 -109 584 -81L606 -122Q589 -138 553 -154T471 -171Q383 -171 337 -128T288 -3Q165 19 100 104T34 331Q34 496 122 584T374 672Q537 672 625 584T714
331Q714 189 648 104ZM462 23T497 97T533 331Q533 486 495 562T374 639Q286 639 251 565T215 331Q215 172 250 98T374 23Q462 23 497 97Z" />
<glyph unicode="R" glyph-name="R" horiz-adv-x="667" d="M33 33Q67 33 80 37T98 51T102 89V570Q102 596 98 607T79 623T33 627V660H340Q474 660 537 619T600 498Q600 426 553 385T430 332V330Q491 320 518 292T560 195L572 139Q581 96 590 75T615 43T663 33V0H466Q452
10 439 36T419 92L389 230Q381 268 365 287T315 306H274V89Q274 63 278 52T296 37T339 33V0H33V33ZM302 346Q369 346 400 379T431 486Q431 556 403 589T311 623Q288 623 281 617T274 588V346H302Z" />
<glyph unicode="S" glyph-name="S" horiz-adv-x="530" d="M34 179H75Q81 142 106 104T172 41T261 15Q313 15 351 43T389 127Q389 169 363 195T281 240L210 265Q123 295 82 342T40 466Q40 529 69 575T149 647T268 672Q309 672 356 655Q360 654 374 650T403 645Q417
645 422 650T431 664H464L474 493H433Q418 562 372 603T264 645Q212 645 177 617T142 545Q142 513 161 492T201 461T261 438L350 406Q501 351 501 212Q501 138 467 88T379 13T266 -12Q218 -12 154 8Q149 9 134 13T109 18Q87 18 79 0H46L34 179Z" />
<glyph unicode="T" glyph-name="T" horiz-adv-x="647" d="M172 33Q204 33 217 37T234 51T238 88V628H193Q141 628 105 591T62 481H20L21 660H627V481H587Q567 628 448 628H411V88Q411 62 415 52T432 37T476 33V0H172V33Z" />
<glyph unicode="U" glyph-name="U" horiz-adv-x="769" d="M234 -12T166 44T97 221V570Q97 597 93 608T76 623T29 627V660H338V627Q305 627 292 624T274 609T269 570V215Q269 119 294 76T386 33Q452 33 479 76T506 215V570Q506 597 502 608T484 623T437 627V660H743V627Q710
627 697 623T679 608T675 570V221Q675 100 607 44T386 -12Q234 -12 166 44Z" />
<glyph unicode="V" glyph-name="V" horiz-adv-x="679" d="M85 577Q74 607 58 617T8 627V660H334V627H291Q258 627 258 600Q258 593 263 578L412 166H414L554 580Q558 591 558 602Q558 627 526 627H483V660H677V627Q647 627 630 613T600 561L394 0H293L85 577Z" />
<glyph unicode="W" glyph-name="W" horiz-adv-x="940" d="M77 577Q68 605 55 616T8 627V660H323V627H285Q268 627 261 622T253 603Q253 594 256 582L355 230H357L491 646H605L733 238H735L825 580Q828 592 828 601Q828 615 819 621T789 627H753V660H937V627Q915
627 903 622T881 599T861 544L712 0H632L478 487H476L320 0H245L77 577Z" />
<glyph unicode="X" glyph-name="X" horiz-adv-x="704" d="M604 68T628 51T692 33V0H346V33H381Q408 33 408 52Q408 67 395 87L282 274H280L149 78Q141 66 141 54Q141 33 168 33H206V0H13V33Q48 33 66 45T107 89L261 305V306L98 576Q83 600 75 610T54 623T18 627V660H346V627H320Q306
627 298 621T290 605Q290 595 297 584L392 420H394L485 563Q496 580 496 597Q496 610 488 618T464 627H445V660H638V627Q598 627 578 614T529 560L411 387L572 122Q604 68 628 51Z" />
<glyph unicode="Y" glyph-name="Y" horiz-adv-x="665" d="M663 660V627Q639 627 624 620T599 598T574 553L426 262V90Q426 63 431 52T450 37T497 33V0H187V33Q219 33 232 37T250 52T254 90V251L92 577Q82 598 74 607T51 622T8 627V660H346V627H307Q279 627 279
603Q279 587 290 565L411 314H412L526 552Q536 573 536 589Q536 608 524 617T497 627H465V660H663Z" />
<glyph unicode="Z" glyph-name="Z" horiz-adv-x="604" d="M20 33L368 627H253Q196 627 162 613T111 568T88 484H47V660H563L562 627L214 32L331 33Q402 34 438 43T498 84T543 187H584L572 0H20V33Z" />
<glyph unicode="[" glyph-name="bracketleft" horiz-adv-x="332" d="M100 660H317V628H230V-97H317V-130H100V660Z" />
<glyph unicode="\" glyph-name="backslash" horiz-adv-x="414" d="M9 672H111L405 -12H303L9 672Z" />
<glyph unicode="]" glyph-name="bracketright" horiz-adv-x="332" d="M15 -97H102V628H15V660H232V-130H15V-97Z" />
<glyph unicode="^" glyph-name="asciicircum" horiz-adv-x="521" d="M218 660H304L468 322H371L261 563L150 322H54L218 660Z" />
<glyph unicode="_" glyph-name="underscore" horiz-adv-x="544" d="M40 -70H504V-116H40V-70Z" />
<glyph unicode="`" glyph-name="grave" horiz-adv-x="370" d="M117 647Q102 665 98 674T93 695Q93 713 107 726T140 739Q180 739 197 703L275 534H221L117 647Z" />
<glyph unicode="a" glyph-name="a" horiz-adv-x="537" d="M541 21Q512 2 482 -5T415 -12Q379 -12 356 0T319 30Q261 -12 179 -12Q31 -12 31 99Q31 165 104 209T309 278V361Q309 406 296 426T246 447Q224 447 210 441T196 421Q196 415 199 410T204 402Q218 383
218 363Q218 336 197 315T140 294Q105 294 85 314T64 360Q64 389 87 416T162 463T297 482Q387 482 428 440T469 314V95Q469 62 474 51T491 40Q508 40 518 45T529 52L541 21ZM191 74T205 58T248 41Q276 41 309 65V235Q247 216 219 187T191 114Q191 74 205 58Z" />
<glyph unicode="b" glyph-name="b" horiz-adv-x="606" d="M472 482T524 422T577 246Q577 122 511 55T325 -12Q281 -12 246 -1T173 33L140 0H85V598Q85 618 80 624T56 631H21V665L189 690H244V433H245Q273 457 304 469T378 482Q472 482 524 422ZM353 21T372 41T401
107T410 233Q410 329 389 380T321 431Q283 431 244 388V54Q280 21 320 21Q353 21 372 41Z" />
<glyph unicode="c" glyph-name="c" horiz-adv-x="497" d="M152 -12T91 50T29 229Q29 351 96 416T277 482Q362 482 409 448T456 360Q456 328 438 308T382 288Q349 288 330 303T310 349Q310 366 318 382Q324 398 324 407Q324 426 312 437T273 449Q246 449 230 433T205
377T196 263Q196 180 207 134T242 69T307 50Q357 50 384 73T434 144L470 127Q452 86 432 58T371 9T264 -12Q152 -12 91 50Z" />
<glyph unicode="d" glyph-name="d" horiz-adv-x="603" d="M581 33V0H372L365 43Q332 14 299 2T226 -11Q133 -11 81 50T29 224Q29 349 93 415T274 482Q317 482 355 470H359V601Q359 618 353 624T332 631H295V665L465 690H517V83Q517 60 519 50T528 37T550 33H581ZM322
40T359 85V421Q324 449 286 449Q236 449 214 400T192 254Q192 147 215 94T283 40Q322 40 359 85Z" />
<glyph unicode="e" glyph-name="e" horiz-adv-x="522" d="M494 233H196Q199 132 224 91T306 50Q400 50 443 144L479 127Q461 87 438 58T372 8T261 -12Q147 -12 88 50T29 234Q29 357 89 419T266 482Q494 482 494 239V233ZM327 266Q327 367 313 408T262 449Q229
449 213 410T196 266H327Z" />
<glyph unicode="f" glyph-name="f" horiz-adv-x="347" d="M22 33Q51 33 64 36T81 50T86 83V437H22V470H86V518Q86 572 111 614T184 680T293 704Q359 704 401 677T444 598Q444 566 426 547T374 527Q342 527 323 544T304 590Q304 604 308 612T320 629Q326 636 328
641T331 653Q331 666 323 672T301 679Q269 679 257 648T245 565V470H332V437H245V83Q245 60 251 50T275 37T332 33V0H22V33Z" />
<glyph unicode="g" glyph-name="g" horiz-adv-x="573" d="M529 482T546 468T563 429Q563 410 552 398T519 386Q502 386 492 393T482 414Q482 419 483 425T485 434Q485 443 471 443Q450 443 431 419Q469 378 469 321Q469 246 408 206T248 166Q219 166 187 171Q147
156 147 136Q147 108 213 108H324Q504 108 504 -36Q504 -123 437 -167T233 -212Q130 -212 73 -186T15 -104Q15 -70 37 -43T103 4Q70 35 70 79Q70 142 144 181Q92 198 64 233T35 321Q35 398 94 440T249 482Q347 482 408 439Q435 482 495 482Q529 482 546 468ZM280
193T294 222T309 327Q309 400 296 427T252 455Q222 455 209 427T195 321Q195 247 207 220T250 193Q280 193 294 222ZM417 -52T382 -36T272 -19H153H150Q116 -49 116 -95Q116 -185 257 -185Q331 -185 374 -162T417 -92Q417 -52 382 -36Z" />
<glyph unicode="h" glyph-name="h" horiz-adv-x="630" d="M551 61T555 51T571 37T609 33V0H344V33Q366 33 376 36T389 49T392 78V318Q392 375 376 399T327 423Q305 423 288 413T244 376V83Q244 51 254 42T298 33V0H21V33Q50 33 63 36T80 50T85 83V598Q85 618 80
624T56 631H21V664L191 690H244V415H245Q306 482 400 482Q551 482 551 318V83Q551 61 555 51Z" />
<glyph unicode="i" glyph-name="i" horiz-adv-x="319" d="M123 523T95 549T66 612Q66 648 94 674T160 701Q196 701 224 675T253 612Q253 576 225 550T160 523Q123 523 95 549ZM21 33Q50 33 63 36T80 50T85 83V383Q85 403 80 409T56 416H21V449L189 475H244V83Q244
51 254 42T298 33V0H21V33Z" />
<glyph unicode="j" glyph-name="j" horiz-adv-x="287" d="M95 523T67 549T38 612Q38 648 66 674T132 701Q168 701 196 675T225 612Q225 576 197 550T132 523Q95 523 67 549ZM-2 -212T-36 -201T-94 -165T-118 -105Q-118 -77 -99 -56T-50 -34Q-20 -34 0 -49T21 -94Q21
-109 17 -118T4 -137Q-1 -143 -4 -149T-8 -164Q-8 -173 1 -179T20 -185Q38 -185 45 -176T55 -144T57 -60V383Q57 403 52 409T28 416H-7V449L161 475H216V2Q216 -96 168 -154T33 -212Q-2 -212 -36 -201Z" />
<glyph unicode="k" glyph-name="k" horiz-adv-x="606" d="M605 33V0H328V33H346Q356 33 359 35T363 43Q363 48 354 62T341 83L256 221L244 211V83Q244 59 246 50T258 37T291 33V0H21V33Q50 33 63 36T80 50T85 83V598Q85 618 80 624T56 631H21V664L191 690H244V257L372
370Q409 403 409 423Q409 438 387 438H361V471L556 470V437H552Q517 437 489 419T414 360L392 341L367 319L501 127Q535 78 557 56T595 33H605Z" />
<glyph unicode="l" glyph-name="l" horiz-adv-x="321" d="M21 33Q50 33 63 36T80 50T85 83V598Q85 618 80 624T56 631H21V664L191 690H244V83Q244 51 254 42T298 33V0H21V33Z" />
<glyph unicode="m" glyph-name="m" horiz-adv-x="934" d="M856 61T860 51T876 37T914 33V0H647V33Q679 33 688 41T697 78V318Q697 374 679 398T628 423Q596 423 576 402T549 343V83Q549 61 552 51T566 37T601 33V0H342V33Q364 33 374 36T387 49T390 78V318Q390
375 374 399T325 423Q303 423 286 413T242 376V83Q242 51 252 42T296 33V0H19V33Q48 33 61 36T78 50T83 83V383Q83 403 78 409T54 416H19V449L184 475H237V409H238Q267 442 304 462T398 482Q452 482 487 462T538 406Q561 445 598 463T693 482Q772 482 814 444T856
318V83Q856 61 860 51Z" />
<glyph unicode="n" glyph-name="n" horiz-adv-x="628" d="M549 61T553 51T569 37T607 33V0H342V33Q364 33 374 36T387 49T390 78V318Q390 375 374 399T325 423Q303 423 286 413T242 376V83Q242 51 252 42T296 33V0H19V33Q48 33 61 36T78 50T83 83V383Q83 403 78
409T54 416H19V449L184 475H237V409H238Q266 441 303 461T398 482Q549 482 549 318V83Q549 61 553 51Z" />
<glyph unicode="o" glyph-name="o" horiz-adv-x="572" d="M156 -12T93 49T29 234Q29 360 93 421T289 482Q418 482 481 422T544 236Q544 110 481 49T287 -12Q156 -12 93 49ZM335 20T356 67T377 220Q377 342 357 396T286 450Q237 450 217 396T196 231Q196 117 216
69T288 20Q335 20 356 67Z" />
<glyph unicode="p" glyph-name="p" horiz-adv-x="607" d="M474 482T526 422T579 246Q579 122 513 55T327 -12Q280 -12 241 2V-117Q241 -149 251 -158T295 -167V-200H18V-167Q47 -167 60 -164T77 -150T82 -117V383Q82 403 77 409T53 416H18V449L183 475H236V424H237Q267
452 299 467T380 482Q474 482 526 422ZM355 21T374 41T403 107T412 233Q412 329 391 380T323 431Q281 431 241 382V59Q279 21 322 21Q355 21 374 41Z" />
<glyph unicode="q" glyph-name="q" horiz-adv-x="605" d="M526 -139T531 -149T549 -163T590 -167V-200H303V-167Q332 -167 345 -164T362 -150T367 -117V42H364Q332 13 300 1T226 -11Q133 -11 81 50T29 224Q29 349 93 415T274 482Q355 482 404 439L473 475H526V-117Q526
-139 531 -149ZM327 40T367 93V418Q331 449 286 449Q236 449 214 400T192 254Q192 147 215 94T283 40Q327 40 367 93Z" />
<glyph unicode="r" glyph-name="r" horiz-adv-x="468" d="M407 479T432 456T458 391Q458 357 440 333T382 309Q350 309 330 326T310 373Q310 391 316 400T323 412Q323 418 313 418Q297 418 281 393T253 332T242 268V83Q242 61 247 51T267 37T314 33V0H19V33Q48
33 61 36T78 50T83 83V383Q83 403 78 409T54 416H19V449L184 475H237V380H238Q285 479 367 479Q407 479 432 456Z" />
<glyph unicode="s" glyph-name="s" horiz-adv-x="450" d="M189 -12T169 -8T127 4Q106 11 95 11Q81 11 70 0H43L34 162H70Q78 95 116 58T215 21Q257 21 285 39T314 95Q314 121 297 137T241 163L165 182Q95 200 63 235T30 324Q30 395 81 438T220 482Q248 482 265
479T304 468Q323 461 333 461Q343 461 348 465T356 479H383L390 333H357Q324 450 229 450Q190 450 166 432T142 385Q142 356 165 343T230 318L287 303Q362 283 393 249T425 159Q425 82 372 35T221 -12Q189 -12 169 -8Z" />
<glyph unicode="t" glyph-name="t" horiz-adv-x="352" d="M142 -12T107 25T72 154V437H11V470Q52 474 92 503T162 574T204 660H231V470H323V437H231V141Q231 92 241 69T279 46Q308 46 338 71L359 40Q356 37 337 23T285 -2T214 -12Q142 -12 107 25Z" />
<glyph unicode="u" glyph-name="u" horiz-adv-x="627" d="M549 49T553 43T568 35T607 33V0H395V61H394Q366 29 329 9T234 -12Q83 -12 83 152V383Q83 403 78 409T54 416H19V449L187 475H242V152Q242 95 258 71T307 47Q329 47 346 57T390 94V383Q390 403 385 409T361
416H326V449L494 475H549V64Q549 49 553 43Z" />
<glyph unicode="v" glyph-name="v" horiz-adv-x="516" d="M49 400Q40 422 29 429T-7 437V470H267V437H226Q206 437 206 423Q206 418 209 410L309 159H311L415 408Q418 414 418 420Q418 437 398 437H362V470H510V437Q487 437 475 429T452 396L284 0H213L49 400Z" />
<glyph unicode="w" glyph-name="w" horiz-adv-x="745" d="M42 400Q35 423 25 430T-7 437V470H252V437H224Q203 437 203 419Q203 413 206 402L269 184H271L374 467H480L573 188H575L637 404Q640 413 640 419Q640 437 614 437H595V470H739V437Q715 437 703 427T683
396L554 0H491L373 351H368L240 0H177L42 400Z" />
<glyph unicode="x" glyph-name="x" horiz-adv-x="578" d="M510 52T526 43T568 33V0H275V33H300Q320 33 320 47Q320 56 313 66L234 187L152 70Q145 60 145 50Q145 42 150 38T166 33H189V0H10V33Q41 33 62 42T103 77L214 218L91 406Q79 424 65 430T22 437V470H307V437H288Q267
437 267 423Q267 411 278 396L332 316L395 409Q402 419 402 426Q402 437 388 437H365V470H524V437Q493 437 473 430T440 405L353 285L494 77Q510 52 526 43Z" />
<glyph unicode="y" glyph-name="y" horiz-adv-x="514" d="M507 470V437Q486 437 473 427T445 382L290 12Q279 -13 269 -41Q245 -101 228 -135T183 -190T116 -212Q75 -212 44 -184T13 -115Q13 -87 32 -67T82 -46Q113 -46 131 -64T149 -110Q149 -127 141 -138T132
-155Q132 -164 136 -169T149 -175Q160 -175 177 -151T215 -77L236 -25L62 396Q54 416 48 424T30 434T-7 437V470H276V437H247Q238 437 233 432T227 417Q227 409 230 400L314 178H317L409 407Q412 413 412 419Q412 427 407 432T391 437H362V470H507Z" />
<glyph unicode="z" glyph-name="z" horiz-adv-x="463" d="M18 70L275 444H195Q143 444 107 421T60 329H27L38 470H433V422L176 27H249Q306 27 335 38T382 78T416 169H449L438 0H18V70Z" />
<glyph unicode="{" glyph-name="braceleft" horiz-adv-x="321" d="M170 -130T135 -94T99 -3V178Q99 215 84 233T40 251V283Q67 283 83 300T99 348V533Q99 590 135 625T241 660H291V627Q256 627 244 608T231 554V372Q231 343 227 326T203 294T141 269V264Q183 255
202 241T226 211T231 166V-21Q231 -60 243 -78T291 -97V-130H244Q170 -130 135 -94Z" />
<glyph unicode="|" glyph-name="bar" horiz-adv-x="268" d="M87 729H181V-198H87V729Z" />
<glyph unicode="}" glyph-name="braceright" horiz-adv-x="321" d="M30 -97Q65 -97 77 -79T90 -21V166Q90 194 95 210T119 241T180 264V269Q138 279 119 294T95 326T90 372V554Q90 588 78 607T30 627V660H80Q150 660 186 625T222 533V348Q222 317 238 300T281
283V251Q253 251 238 233T222 178V-3Q222 -57 187 -93T77 -130H30V-97Z" />
<glyph unicode="~" glyph-name="asciitilde" horiz-adv-x="507" d="M40 231Q81 311 156 311Q193 311 259 281Q267 277 288 268T326 253T353 248Q378 248 396 265T435 314L468 238Q440 199 416 179T352 159Q311 159 258 189Q231 204 206 213T151 222Q123 222 105
204T73 155L40 231Z" />
<glyph unicode="&#xa1;" glyph-name="exclamdown" horiz-adv-x="322" d="M129 323T106 346T82 403Q82 436 105 459T161 482Q194 482 217 459T241 403Q241 371 218 347T162 323Q129 323 106 346ZM78 -198T78 -120Q78 -100 82 -75L137 270H185L240 -75Q244 -100
244 -120Q244 -198 161 -198Q78 -198 78 -120Z" />
<glyph unicode="&#xa2;" glyph-name="cent" horiz-adv-x="529" d="M491 166T451 126T335 78V0H279V77Q213 81 158 108T68 186T34 308Q34 424 101 489T279 561V660H335V561Q416 555 457 522T498 443Q498 411 480 395T428 379Q400 379 382 396T363 442Q363 454 368
467T373 486Q373 514 335 521V138Q428 143 468 224L502 207Q491 166 451 126ZM206 254T222 207T279 145V521Q238 509 222 462T206 338Q206 254 222 207Z" />
<glyph unicode="&#xa3;" glyph-name="sterling" horiz-adv-x="597" d="M551 157L512 0H57V59Q117 94 143 127T169 205Q169 245 147 314L141 333H46V382H126Q111 433 111 478Q111 566 170 619T340 672Q421 672 470 645T520 568Q520 535 499 514T443 493Q410 493
388 512T366 562Q366 578 374 593T382 613Q382 623 369 631T326 640Q237 640 237 551Q237 509 257 441L274 382H401V333H288Q300 288 300 251Q300 203 281 167T222 101V99H431Q459 99 478 104T506 130L518 157H551Z" />
<glyph unicode="&#xa4;" glyph-name="currency" horiz-adv-x="531" d="M25 144L78 197Q35 258 35 330Q35 402 78 464L25 515L81 571L133 519Q194 561 266 561Q338 561 399 518L451 571L507 515L454 463Q497 402 497 330Q497 258 454 197L507 144L451 88L399 142Q338
99 266 99Q194 99 133 141L81 88L25 144ZM301 194T330 212T377 261T395 330Q395 368 378 399T331 448T266 466Q231 466 202 448T155 399T137 330Q137 292 154 261T201 212T266 194Q301 194 330 212Z" />
<glyph unicode="&#xa5;" glyph-name="yen" horiz-adv-x="600" d="M606 660V627Q582 627 568 620T544 598T518 553L403 327H503V277H377L370 263V203H503V154H370V90Q370 63 374 52T393 37T440 33V0H173V33Q205 33 218 37T236 52T241 90V154H110V203H241V265L235
277H110V327H209L78 577Q67 598 59 607T37 622T-6 627V660H290V627H248Q217 627 217 606Q217 592 231 565L354 335H355L465 552Q477 576 477 592Q477 610 465 618T436 627H408V660H606Z" />
<glyph unicode="&#xa6;" glyph-name="brokenbar" horiz-adv-x="268" d="M87 613H181V381H87V613ZM87 -83V149H181V-83H87Z" />
<glyph unicode="&#xa7;" glyph-name="section" horiz-adv-x="572" d="M530 197T507 166T438 112Q453 82 453 41Q453 -109 267 -109Q181 -109 138 -80T94 -1Q94 55 152 55Q209 55 209 3Q209 -11 204 -24T199 -44Q199 -61 216 -72T271 -83Q313 -83 333 -67T353 -16Q353
14 334 37T258 93L199 126Q138 160 105 187T57 244T43 312Q43 366 66 397T135 451Q120 481 120 522Q120 672 306 672Q392 672 435 643T479 564Q479 508 421 508Q364 508 364 560Q364 574 369 587T374 607Q374 624 357 635T302 646Q260 646 240 630T220 579Q220
549 239 526T315 470L374 437Q435 403 468 376T516 319T530 251Q530 197 507 166ZM385 177T416 143Q426 152 431 162T436 188Q436 223 411 251T323 313L268 343Q188 386 157 420Q147 411 142 401T137 375Q137 340 162 312T250 250L305 220Q385 177 416 143Z" />
<glyph unicode="&#xa8;" glyph-name="dieresis" horiz-adv-x="376" d="M55 542T34 564T12 616Q12 647 33 669T86 691Q117 691 138 669T160 616Q160 586 139 564T86 542Q55 542 34 564ZM259 542T238 564T216 616Q216 647 237 669T290 691Q321 691 342 669T364 616Q364
586 343 564T290 542Q259 542 238 564Z" />
<glyph unicode="&#xa9;" glyph-name="copyright" horiz-adv-x="753" d="M283 -18T204 28T77 154T30 327Q30 420 77 499T203 624T377 670Q471 670 551 624T677 499T724 327Q724 233 678 154T551 29T377 -18Q283 -18 204 28ZM449 51T508 87T603 187T638 327Q638
403 603 466T509 566T378 603Q307 603 247 567T152 467T117 327Q117 250 152 187T247 88T378 51Q449 51 508 87ZM294 125T241 179T188 329Q188 389 214 435T286 506T388 531Q413 531 429 527T468 516Q486 509 493 509Q502 509 505 517L509 524H524L530 397H498Q492
440 468 466T399 492Q339 492 315 446T291 329Q291 261 316 215T405 168Q447 168 478 187T520 230L542 217Q526 179 487 152T386 125Q294 125 241 179Z" />
<glyph unicode="&#xaa;" glyph-name="ordfeminine" horiz-adv-x="348" d="M349 396Q328 386 310 381T268 376Q244 376 229 382T206 405Q187 392 166 384T113 376Q75 376 49 390T22 439Q22 486 66 513T202 554V599Q202 630 194 641T162 652Q112 652 112 633Q112
630 121 618T130 590Q130 573 118 562T85 551Q65 551 52 562T39 593Q39 626 78 649T190 672Q247 672 274 654T302 595V453Q302 429 307 420T325 411Q331 411 336 413T343 416L349 396ZM186 412T202 425V432V523Q163 513 143 497T123 457Q123 412 162 412Q186 412
202 425Z" />
<glyph unicode="&#xab;" glyph-name="guillemotleft" horiz-adv-x="581" d="M26 251L253 478H285L200 251L285 24H251L26 251ZM281 251L507 478H540L454 251L540 24H506L281 251Z" />
<glyph unicode="&#xac;" glyph-name="logicalnot" horiz-adv-x="528" d="M28 284V378H497V91H402V284H28Z" />
<glyph unicode="&#xae;" glyph-name="registered" horiz-adv-x="479" d="M182 254T134 282T58 357T30 462Q30 518 58 565T134 641T239 669Q296 669 344 641T420 566T449 462Q449 405 421 358T345 282T239 254Q182 254 134 282ZM283 296T319 318T376 378T397 462Q397
508 376 546T319 606T240 628Q197 628 161 606T104 546T82 462Q82 416 103 378T161 318T240 296Q283 296 319 318ZM136 366Q154 366 159 369T165 385V542Q165 555 160 558T136 562V576H256Q296 576 313 561T331 522Q331 498 316 483T275 465V464Q298 458 305 448T319
414L324 390Q327 379 336 373T353 366V351H288Q276 361 271 386L263 426Q256 453 229 453H217V385Q217 373 222 370T245 366V351H136V366ZM230 470Q276 470 276 515Q276 539 264 549T233 560Q222 560 220 558T217 546V470H230Z" />
<glyph unicode="&#xaf;" glyph-name="overscore" horiz-adv-x="375" d="M41 660H334V571H41V660Z" />
<glyph unicode="&#xb0;" glyph-name="degree" horiz-adv-x="333" d="M128 404T98 421T49 469T31 537Q31 574 49 604T97 651T165 669Q221 669 261 631T302 537Q299 480 260 442T165 404Q128 404 98 421ZM201 453T223 479T246 537Q246 569 224 594T165 620Q130 620
109 595T87 537Q87 505 108 479T165 453Q201 453 223 479Z" />
<glyph unicode="&#xb1;" glyph-name="plusminus" horiz-adv-x="528" d="M30 259V353H217V469H311V353H499V259H311V143H217V259H30ZM499 95V0H30V95H499Z" />
<glyph unicode="&#xb2;" glyph-name="uni00B2" horiz-adv-x="409" d="M26 281Q26 318 47 350T88 398T139 437Q181 466 204 497T228 574Q228 606 215 625T179 645Q156 645 156 628Q156 621 159 610T163 586Q163 563 148 547T105 531Q79 531 63 547T46 592Q46 674
200 674Q358 674 358 564Q358 518 327 491T218 430Q174 411 144 390T98 349H296Q313 349 321 355T341 385H366L343 271H26V281Z" />
<glyph unicode="&#xb3;" glyph-name="uni00B3" horiz-adv-x="389" d="M85 267T54 284T23 334Q23 360 39 374T82 389Q105 389 120 376T135 340Q135 327 130 319T125 308Q125 302 132 299T153 296Q216 296 216 383Q216 471 156 471Q149 471 107 467V506Q116 505
128 504T152 503Q203 503 203 580Q203 608 195 625T160 642Q148 642 141 639T134 629Q134 626 139 617T145 596Q145 577 131 563T91 549Q64 549 49 564T33 602Q33 637 72 654T170 671Q232 671 280 651T328 580Q328 547 304 523T225 491V489Q227 489 257 485T316
453T346 383Q346 326 296 297T155 267Q85 267 54 284Z" />
<glyph unicode="&#xb4;" glyph-name="acute" horiz-adv-x="370" d="M174 706Q191 742 231 742Q250 742 264 729T278 698Q278 687 274 678T254 650L150 537H96L174 706Z" />
<glyph unicode="&#xb5;" glyph-name="uni00B5" horiz-adv-x="620" d="M546 49T550 43T565 35T604 33V0H392V61H391Q363 29 326 9T231 -12Q178 -12 144 8V3Q144 -44 161 -101Q162 -106 166 -122T171 -150Q171 -212 112 -212Q79 -212 66 -197T53 -150Q53 -131 57
-108T63 -80Q80 -1 80 66V383Q80 403 75 409T51 416H16V449L184 475H239V152Q239 95 255 71T304 47Q326 47 343 57T387 94V383Q387 403 382 409T358 416H323V449L491 475H546V64Q546 49 550 43Z" />
<glyph unicode="&#xb6;" glyph-name="paragraph" horiz-adv-x="551" d="M167 245Q99 265 61 318T22 446Q22 546 80 603T236 660H269V-130H167V245ZM328 660H517V628H459Q440 628 435 619T430 584V-130H328V660Z" />
<glyph unicode="&#xb7;" glyph-name="middot" horiz-adv-x="279" d="M106 182T83 205T60 261Q60 295 83 318T139 341Q172 341 195 318T219 261Q219 228 196 205T139 182Q106 182 83 205Z" />
<glyph unicode="&#xb8;" glyph-name="cedilla" horiz-adv-x="412" d="M117 -203T82 -188L100 -150Q134 -165 157 -165Q176 -165 190 -156T205 -126Q205 -110 196 -101T170 -91Q160 -91 154 -94T146 -99L129 -91L173 1H216L190 -57Q197 -55 208 -54T232 -52Q263
-52 285 -69T307 -119Q307 -164 267 -183T173 -203Q117 -203 82 -188Z" />
<glyph unicode="&#xb9;" glyph-name="uni00B9" horiz-adv-x="352" d="M69 299H129Q136 299 136 312V587Q127 584 94 571T43 555V595Q68 602 104 623T166 667H250V312Q250 303 252 301T259 299H319V271H69V299Z" />
<glyph unicode="&#xba;" glyph-name="ordmasculine" horiz-adv-x="368" d="M108 376T64 416T20 523Q20 591 65 631T186 672Q261 672 304 632T348 525Q348 457 303 417T183 376Q108 376 64 416ZM215 396T225 426T236 519Q236 587 225 619T183 652Q153 652 143 622T132
529Q132 461 143 429T185 396Q215 396 225 426Z" />
<glyph unicode="&#xbb;" glyph-name="guillemotright" horiz-adv-x="581" d="M127 251L41 478H74L300 251L75 24H41L127 251ZM381 251L296 478H328L555 251L330 24H296L381 251Z" />
<glyph unicode="&#xbc;" glyph-name="onequarter" horiz-adv-x="880" d="M578 672H635L271 -12H214L578 672ZM85 299H145Q152 299 152 312V587Q143 584 110 571T59 555V595Q84 602 120 623T182 667H266V312Q266 303 268 301T275 299H335V271H85V299ZM564 28H605Q612
28 617 33T623 49V94H447V137Q506 223 562 296T648 401H738V165H809V94H738V49Q738 28 756 28H794V0H564V28ZM623 165V304H621Q609 288 570 239Q529 189 514 165H623Z" />
<glyph unicode="&#xbd;" glyph-name="onehalf" horiz-adv-x="858" d="M565 672H622L258 -12H201L565 672ZM71 299H131Q138 299 138 312V587Q129 584 96 571T45 555V595Q70 602 106 623T168 667H252V312Q252 303 254 301T261 299H321V271H71V299ZM470 10Q470 63
505 100T583 166Q625 195 648 226T672 303Q672 335 659 354T623 374Q600 374 600 357Q600 350 603 339T607 315Q607 292 592 276T549 260Q523 260 507 276T490 321Q490 403 644 403Q802 403 802 293Q802 247 771 220T662 159Q618 140 588 119T542 78H740Q757 78
765 84T785 114H810L787 0H470V10Z" />
<glyph unicode="&#xbe;" glyph-name="threequarters" horiz-adv-x="935" d="M644 672H701L337 -12H280L644 672ZM125 267T94 284T63 334Q63 360 79 374T122 389Q145 389 160 376T175 340Q175 327 170 319T165 308Q165 302 172 299T193 296Q256 296 256 383Q256
471 196 471Q189 471 147 467V506Q156 505 168 504T192 503Q243 503 243 580Q243 608 235 625T200 642Q188 642 181 639T174 629Q174 626 179 617T185 596Q185 577 171 563T131 549Q104 549 89 564T73 602Q73 637 112 654T210 671Q272 671 320 651T368 580Q368
547 344 523T265 491V489Q267 489 297 485T356 453T386 383Q386 326 336 297T195 267Q125 267 94 284ZM618 28H659Q666 28 671 33T677 49V94H501V137Q560 223 616 296T702 401H792V165H863V94H792V49Q792 28 810 28H848V0H618V28ZM677 165V304H675Q663 288 624
239Q583 189 568 165H677Z" />
<glyph unicode="&#xbf;" glyph-name="questiondown" horiz-adv-x="554" d="M273 323T249 346T225 403Q225 435 249 458T305 482Q338 482 361 459T385 403Q385 371 361 347T305 323Q273 323 249 346ZM177 -198T116 -164T55 -58Q55 -22 71 5T110 51T173 95Q212 120
234 138T272 183T288 243V269H328V243Q328 180 314 143T271 65Q246 28 234 0T222 -74Q222 -129 240 -150T284 -171Q308 -171 324 -158T341 -125Q341 -112 330 -99Q323 -90 320 -82T316 -61Q316 -30 338 -9T398 13Q437 13 460 -11T483 -72Q483 -137 415 -167T262
-198Q177 -198 116 -164Z" />
<glyph unicode="&#xc0;" glyph-name="Agrave" horiz-adv-x="735" d="M653 58T660 49T680 36T722 33V0H402V33H451Q478 33 478 54Q478 62 473 75L416 228H211L153 72Q149 61 149 53Q149 33 179 33H217V0H9V33Q39 33 54 36T80 51T101 88L329 660H432L644 83Q653
58 660 49ZM402 267L315 502H312L225 267H402ZM303 837Q288 855 284 864T279 885Q279 903 293 916T326 929Q366 929 383 893L461 724H407L303 837Z" />
<glyph unicode="&#xc1;" glyph-name="Aacute" horiz-adv-x="735" d="M653 58T660 49T680 36T722 33V0H402V33H451Q478 33 478 54Q478 62 473 75L416 228H211L153 72Q149 61 149 53Q149 33 179 33H217V0H9V33Q39 33 54 36T80 51T101 88L329 660H432L644 83Q653
58 660 49ZM402 267L315 502H312L225 267H402ZM357 896Q374 932 414 932Q433 932 447 919T461 888Q461 877 457 868T437 840L333 727H279L357 896Z" />
<glyph unicode="&#xc2;" glyph-name="Acircumflex" horiz-adv-x="735" d="M653 58T660 49T680 36T722 33V0H402V33H451Q478 33 478 54Q478 62 473 75L416 228H211L153 72Q149 61 149 53Q149 33 179 33H217V0H9V33Q39 33 54 36T80 51T101 88L329 660H432L644 83Q653
58 660 49ZM402 267L315 502H312L225 267H402ZM321 895H418L530 724H476L370 811L263 724H209L321 895Z" />
<glyph unicode="&#xc3;" glyph-name="Atilde" horiz-adv-x="735" d="M653 58T660 49T680 36T722 33V0H402V33H451Q478 33 478 54Q478 62 473 75L416 228H211L153 72Q149 61 149 53Q149 33 179 33H217V0H9V33Q39 33 54 36T80 51T101 88L329 660H432L644 83Q653
58 660 49ZM402 267L315 502H312L225 267H402ZM413 736T395 742T351 761Q328 772 312 778T280 784Q256 784 243 772T224 741H190Q199 798 227 837T307 877Q328 877 346 871T387 852Q410 840 428 834T466 828Q490 828 501 838T515 872H550Q542 817 514 777T434 736Q413
736 395 742Z" />
<glyph unicode="&#xc4;" glyph-name="Adieresis" horiz-adv-x="735" d="M653 58T660 49T680 36T722 33V0H402V33H451Q478 33 478 54Q478 62 473 75L416 228H211L153 72Q149 61 149 53Q149 33 179 33H217V0H9V33Q39 33 54 36T80 51T101 88L329 660H432L644 83Q653
58 660 49ZM402 267L315 502H312L225 267H402ZM237 732T216 754T194 806Q194 837 215 859T268 881Q299 881 320 859T342 806Q342 776 321 754T268 732Q237 732 216 754ZM441 732T420 754T398 806Q398 837 419 859T472 881Q503 881 524 859T546 806Q546 776 525
754T472 732Q441 732 420 754Z" />
<glyph unicode="&#xc5;" glyph-name="Aring" horiz-adv-x="735" d="M653 58T660 49T680 36T722 33V0H402V33H451Q478 33 478 54Q478 62 473 75L416 228H211L153 72Q149 61 149 53Q149 33 179 33H217V0H9V33Q39 33 54 36T80 51T101 88L329 660H432L644 83Q653 58
660 49ZM402 267L315 502H312L225 267H402ZM327 707T297 737T266 811Q266 855 296 885T370 915Q413 915 443 885T474 811Q474 768 444 738T370 707Q327 707 297 737ZM391 760T405 774T420 811Q420 833 406 847T370 862Q349 862 335 848T320 811Q320 789 334 775T370
760Q391 760 405 774Z" />
<glyph unicode="&#xc6;" glyph-name="AE" horiz-adv-x="925" d="M901 174L889 0H360V33Q392 33 406 37T424 52T429 89V320H284L155 72Q149 60 149 52Q149 33 181 33H227V0H9V33Q41 33 56 36T82 51T107 88L353 559Q366 582 366 600Q366 627 333 627H289V660H879V503H838Q825
554 808 579T763 614T687 623H638Q618 623 610 616T601 589V365H700Q727 365 741 372T762 399T774 457H807V232H774Q770 271 763 291T741 318T700 326H601V103Q601 74 606 61T629 43T691 37Q743 37 774 47T827 86T860 174H901ZM429 359V589H424L304 359H429Z" />
<glyph unicode="&#xc7;" glyph-name="Ccedilla" horiz-adv-x="672" d="M361 -12T352 -11L332 -57Q339 -55 350 -54T374 -52Q405 -52 427 -69T449 -119Q449 -164 409 -183T315 -203Q259 -203 224 -188L242 -150Q276 -165 299 -165Q318 -165 332 -156T347 -126Q347
-110 338 -101T312 -91Q302 -91 296 -94T288 -99L271 -91L311 -8Q181 10 108 94T34 323Q34 433 76 511T198 631T386 672Q437 672 469 665T533 645Q556 635 567 635Q576 635 583 639T594 651L597 660H626L636 471H598Q584 549 535 594T412 639Q298 639 257 543T215
326Q215 185 265 103T414 21Q487 21 539 62T615 171L645 159Q615 77 553 33T378 -12Q361 -12 352 -11Z" />
<glyph unicode="&#xc8;" glyph-name="Egrave" horiz-adv-x="619" d="M33 33Q65 33 79 37T97 52T102 89V570Q102 596 98 607T79 623T33 627V660H572V503H531Q518 554 501 579T456 614T380 623H311Q291 623 283 616T274 589V367H393Q420 367 434 374T455 401T467
459H500V230H467Q463 270 456 289T434 316T393 323H274V103Q274 72 279 60T305 42T375 37Q427 37 461 48T519 89T553 174H594L582 0H33V33ZM257 837Q242 855 238 864T233 885Q233 903 247 916T280 929Q320 929 337 893L415 724H361L257 837Z" />
<glyph unicode="&#xc9;" glyph-name="Eacute" horiz-adv-x="619" d="M33 33Q65 33 79 37T97 52T102 89V570Q102 596 98 607T79 623T33 627V660H572V503H531Q518 554 501 579T456 614T380 623H311Q291 623 283 616T274 589V367H393Q420 367 434 374T455 401T467
459H500V230H467Q463 270 456 289T434 316T393 323H274V103Q274 72 279 60T305 42T375 37Q427 37 461 48T519 89T553 174H594L582 0H33V33ZM311 896Q328 932 368 932Q387 932 401 919T415 888Q415 877 411 868T391 840L287 727H233L311 896Z" />
<glyph unicode="&#xca;" glyph-name="Ecircumflex" horiz-adv-x="619" d="M33 33Q65 33 79 37T97 52T102 89V570Q102 596 98 607T79 623T33 627V660H572V503H531Q518 554 501 579T456 614T380 623H311Q291 623 283 616T274 589V367H393Q420 367 434 374T455 401T467
459H500V230H467Q463 270 456 289T434 316T393 323H274V103Q274 72 279 60T305 42T375 37Q427 37 461 48T519 89T553 174H594L582 0H33V33ZM275 895H372L484 724H430L324 811L217 724H163L275 895Z" />
<glyph unicode="&#xcb;" glyph-name="Edieresis" horiz-adv-x="619" d="M33 33Q65 33 79 37T97 52T102 89V570Q102 596 98 607T79 623T33 627V660H572V503H531Q518 554 501 579T456 614T380 623H311Q291 623 283 616T274 589V367H393Q420 367 434 374T455 401T467
459H500V230H467Q463 270 456 289T434 316T393 323H274V103Q274 72 279 60T305 42T375 37Q427 37 461 48T519 89T553 174H594L582 0H33V33ZM191 732T170 754T148 806Q148 837 169 859T222 881Q253 881 274 859T296 806Q296 776 275 754T222 732Q191 732 170 754ZM395
732T374 754T352 806Q352 837 373 859T426 881Q457 881 478 859T500 806Q500 776 479 754T426 732Q395 732 374 754Z" />
<glyph unicode="&#xcc;" glyph-name="Igrave" horiz-adv-x="375" d="M33 33Q67 33 80 37T98 51T102 89V569Q102 596 97 607T79 623T33 627V660H342V627Q310 627 297 623T279 608T274 569V89Q274 62 278 51T296 37T342 33V0H33V33ZM121 837Q106 855 102 864T97
885Q97 903 111 916T144 929Q184 929 201 893L279 724H225L121 837Z" />
<glyph unicode="&#xcd;" glyph-name="Iacute" horiz-adv-x="375" d="M33 33Q67 33 80 37T98 51T102 89V569Q102 596 97 607T79 623T33 627V660H342V627Q310 627 297 623T279 608T274 569V89Q274 62 278 51T296 37T342 33V0H33V33ZM175 896Q192 932 232 932Q251
932 265 919T279 888Q279 877 275 868T255 840L151 727H97L175 896Z" />
<glyph unicode="&#xce;" glyph-name="Icircumflex" horiz-adv-x="375" d="M33 33Q67 33 80 37T98 51T102 89V569Q102 596 97 607T79 623T33 627V660H342V627Q310 627 297 623T279 608T274 569V89Q274 62 278 51T296 37T342 33V0H33V33ZM139 895H236L348 724H294L188
811L81 724H27L139 895Z" />
<glyph unicode="&#xcf;" glyph-name="Idieresis" horiz-adv-x="375" d="M33 33Q67 33 80 37T98 51T102 89V569Q102 596 97 607T79 623T33 627V660H342V627Q310 627 297 623T279 608T274 569V89Q274 62 278 51T296 37T342 33V0H33V33ZM55 732T34 754T12 806Q12
837 33 859T86 881Q117 881 138 859T160 806Q160 776 139 754T86 732Q55 732 34 754ZM259 732T238 754T216 806Q216 837 237 859T290 881Q321 881 342 859T364 806Q364 776 343 754T290 732Q259 732 238 754Z" />
<glyph unicode="&#xd0;" glyph-name="Eth" horiz-adv-x="779" d="M565 658T655 580T745 339Q745 161 646 81T355 0H52V33Q93 33 108 36T127 50T131 89V306H33V366H131V570Q131 597 126 608T106 623T52 627V660H388Q565 658 655 580ZM465 37T514 109T564 336Q564
479 514 551T366 623Q329 623 316 617T303 585V366H432V306H303V96Q303 70 308 58T325 41T360 37Q465 37 514 109Z" />
<glyph unicode="&#xd1;" glyph-name="Ntilde" horiz-adv-x="703" d="M141 530H140V85Q140 56 150 45T190 33H217V0H29V33H52Q76 33 87 45T99 85V570Q99 596 95 607T76 622T28 627V660H264L565 190H568V579Q568 627 517 627H489V660H674V627H655Q609 627 609 579V-7H493L141
530ZM391 736T373 742T329 761Q306 772 290 778T258 784Q234 784 221 772T202 741H168Q177 798 205 837T285 877Q306 877 324 871T365 852Q388 840 406 834T444 828Q468 828 479 838T493 872H528Q520 817 492 777T412 736Q391 736 373 742Z" />
<glyph unicode="&#xd2;" glyph-name="Ograve" horiz-adv-x="748" d="M211 -10T123 78T34 331Q34 496 122 584T374 672Q537 672 625 584T714 331Q714 166 626 78T374 -10Q211 -10 123 78ZM462 23T497 97T533 331Q533 486 495 562T374 639Q286 639 251 565T215 331Q215
172 250 98T374 23Q462 23 497 97ZM307 837Q292 855 288 864T283 885Q283 903 297 916T330 929Q370 929 387 893L465 724H411L307 837Z" />
<glyph unicode="&#xd3;" glyph-name="Oacute" horiz-adv-x="748" d="M211 -10T123 78T34 331Q34 496 122 584T374 672Q537 672 625 584T714 331Q714 166 626 78T374 -10Q211 -10 123 78ZM462 23T497 97T533 331Q533 486 495 562T374 639Q286 639 251 565T215 331Q215
172 250 98T374 23Q462 23 497 97ZM361 896Q378 932 418 932Q437 932 451 919T465 888Q465 877 461 868T441 840L337 727H283L361 896Z" />
<glyph unicode="&#xd4;" glyph-name="Ocircumflex" horiz-adv-x="748" d="M211 -10T123 78T34 331Q34 496 122 584T374 672Q537 672 625 584T714 331Q714 166 626 78T374 -10Q211 -10 123 78ZM462 23T497 97T533 331Q533 486 495 562T374 639Q286 639 251 565T215
331Q215 172 250 98T374 23Q462 23 497 97ZM325 895H422L534 724H480L374 811L267 724H213L325 895Z" />
<glyph unicode="&#xd5;" glyph-name="Otilde" horiz-adv-x="748" d="M211 -10T123 78T34 331Q34 496 122 584T374 672Q537 672 625 584T714 331Q714 166 626 78T374 -10Q211 -10 123 78ZM462 23T497 97T533 331Q533 486 495 562T374 639Q286 639 251 565T215 331Q215
172 250 98T374 23Q462 23 497 97ZM417 736T399 742T355 761Q332 772 316 778T284 784Q260 784 247 772T228 741H194Q203 798 231 837T311 877Q332 877 350 871T391 852Q414 840 432 834T470 828Q494 828 505 838T519 872H554Q546 817 518 777T438 736Q417 736
399 742Z" />
<glyph unicode="&#xd6;" glyph-name="Odieresis" horiz-adv-x="748" d="M211 -10T123 78T34 331Q34 496 122 584T374 672Q537 672 625 584T714 331Q714 166 626 78T374 -10Q211 -10 123 78ZM462 23T497 97T533 331Q533 486 495 562T374 639Q286 639 251 565T215
331Q215 172 250 98T374 23Q462 23 497 97ZM241 732T220 754T198 806Q198 837 219 859T272 881Q303 881 324 859T346 806Q346 776 325 754T272 732Q241 732 220 754ZM445 732T424 754T402 806Q402 837 423 859T476 881Q507 881 528 859T550 806Q550 776 529 754T476
732Q445 732 424 754Z" />
<glyph unicode="&#xd7;" glyph-name="multiply" horiz-adv-x="511" d="M39 83L189 234L39 384L106 451L256 300L406 451L473 384L323 234L473 83L406 17L256 167L106 17L39 83Z" />
<glyph unicode="&#xd8;" glyph-name="Oslash" horiz-adv-x="748" d="M714 503T714 331Q714 166 626 78T374 -10Q243 -10 159 48L113 -6H50L122 79Q34 165 34 331Q34 496 122 584T374 672Q498 672 581 620L620 666H682L618 591Q714 503 714 331ZM215 249T223 198L507
533Q469 639 374 639Q286 639 251 565T215 331Q215 249 223 198ZM462 23T497 97T533 331Q533 413 522 477L235 138Q252 80 285 52T374 23Q462 23 497 97Z" />
<glyph unicode="&#xd9;" glyph-name="Ugrave" horiz-adv-x="769" d="M234 -12T166 44T97 221V570Q97 597 93 608T76 623T29 627V660H338V627Q305 627 292 624T274 609T269 570V215Q269 119 294 76T386 33Q452 33 479 76T506 215V570Q506 597 502 608T484 623T437
627V660H743V627Q710 627 697 623T679 608T675 570V221Q675 100 607 44T386 -12Q234 -12 166 44ZM319 837Q304 855 300 864T295 885Q295 903 309 916T342 929Q382 929 399 893L477 724H423L319 837Z" />
<glyph unicode="&#xda;" glyph-name="Uacute" horiz-adv-x="769" d="M234 -12T166 44T97 221V570Q97 597 93 608T76 623T29 627V660H338V627Q305 627 292 624T274 609T269 570V215Q269 119 294 76T386 33Q452 33 479 76T506 215V570Q506 597 502 608T484 623T437
627V660H743V627Q710 627 697 623T679 608T675 570V221Q675 100 607 44T386 -12Q234 -12 166 44ZM373 896Q390 932 430 932Q449 932 463 919T477 888Q477 877 473 868T453 840L349 727H295L373 896Z" />
<glyph unicode="&#xdb;" glyph-name="Ucircumflex" horiz-adv-x="769" d="M234 -12T166 44T97 221V570Q97 597 93 608T76 623T29 627V660H338V627Q305 627 292 624T274 609T269 570V215Q269 119 294 76T386 33Q452 33 479 76T506 215V570Q506 597 502 608T484
623T437 627V660H743V627Q710 627 697 623T679 608T675 570V221Q675 100 607 44T386 -12Q234 -12 166 44ZM337 895H434L546 724H492L386 811L279 724H225L337 895Z" />
<glyph unicode="&#xdc;" glyph-name="Udieresis" horiz-adv-x="769" d="M234 -12T166 44T97 221V570Q97 597 93 608T76 623T29 627V660H338V627Q305 627 292 624T274 609T269 570V215Q269 119 294 76T386 33Q452 33 479 76T506 215V570Q506 597 502 608T484 623T437
627V660H743V627Q710 627 697 623T679 608T675 570V221Q675 100 607 44T386 -12Q234 -12 166 44ZM253 732T232 754T210 806Q210 837 231 859T284 881Q315 881 336 859T358 806Q358 776 337 754T284 732Q253 732 232 754ZM457 732T436 754T414 806Q414 837 435 859T488
881Q519 881 540 859T562 806Q562 776 541 754T488 732Q457 732 436 754Z" />
<glyph unicode="&#xdd;" glyph-name="Yacute" horiz-adv-x="665" d="M663 660V627Q639 627 624 620T599 598T574 553L426 262V90Q426 63 431 52T450 37T497 33V0H187V33Q219 33 232 37T250 52T254 90V251L92 577Q82 598 74 607T51 622T8 627V660H346V627H307Q279
627 279 603Q279 587 290 565L411 314H412L526 552Q536 573 536 589Q536 608 524 617T497 627H465V660H663ZM323 896Q340 932 380 932Q399 932 413 919T427 888Q427 877 423 868T403 840L299 727H245L323 896Z" />
<glyph unicode="&#xde;" glyph-name="Thorn" horiz-adv-x="610" d="M33 33Q67 33 80 36T98 51T102 91V569Q102 597 99 607T82 622T33 627V660H343V627Q312 627 298 623T279 608T274 569V522H328Q457 522 524 478T592 349Q592 246 506 207T299 167H274V91Q274 63
277 53T294 38T341 33V0H33V33ZM294 207Q421 207 421 345Q421 413 392 447T312 482Q289 482 282 476T274 451V207H294Z" />
<glyph unicode="&#xdf;" glyph-name="germandbls" horiz-adv-x="634" d="M566 241T593 207T621 126Q621 65 573 27T447 -12Q390 -12 357 14T323 79Q323 104 339 122T382 141Q405 141 420 128T436 89Q436 77 433 71T424 57T417 43Q417 32 427 27T449 21Q468 21
478 38T488 84Q488 122 470 144T429 182T398 203Q344 241 323 276T301 350Q301 437 401 475Q415 510 415 555Q415 616 396 643T336 671Q294 671 272 637T250 513V83Q250 51 258 42T294 33V0H27V33Q56 33 69 36T86 50T91 83V437H27V470H91Q96 591 156 647T340 704Q550
704 550 551Q550 507 531 475Q492 476 462 452T432 387Q432 357 450 336T506 286Q566 241 593 207Z" />
<glyph unicode="&#xe0;" glyph-name="agrave" horiz-adv-x="537" d="M541 21Q512 2 482 -5T415 -12Q379 -12 356 0T319 30Q261 -12 179 -12Q31 -12 31 99Q31 165 104 209T309 278V361Q309 406 296 426T246 447Q224 447 210 441T196 421Q196 415 199 410T204 402Q218
383 218 363Q218 336 197 315T140 294Q105 294 85 314T64 360Q64 389 87 416T162 463T297 482Q387 482 428 440T469 314V95Q469 62 474 51T491 40Q508 40 518 45T529 52L541 21ZM191 74T205 58T248 41Q276 41 309 65V235Q247 216 219 187T191 114Q191 74 205 58ZM204
647Q189 665 185 674T180 695Q180 713 194 726T227 739Q267 739 284 703L362 534H308L204 647Z" />
<glyph unicode="&#xe1;" glyph-name="aacute" horiz-adv-x="537" d="M541 21Q512 2 482 -5T415 -12Q379 -12 356 0T319 30Q261 -12 179 -12Q31 -12 31 99Q31 165 104 209T309 278V361Q309 406 296 426T246 447Q224 447 210 441T196 421Q196 415 199 410T204 402Q218
383 218 363Q218 336 197 315T140 294Q105 294 85 314T64 360Q64 389 87 416T162 463T297 482Q387 482 428 440T469 314V95Q469 62 474 51T491 40Q508 40 518 45T529 52L541 21ZM191 74T205 58T248 41Q276 41 309 65V235Q247 216 219 187T191 114Q191 74 205 58ZM258
706Q275 742 315 742Q334 742 348 729T362 698Q362 687 358 678T338 650L234 537H180L258 706Z" />
<glyph unicode="&#xe2;" glyph-name="acircumflex" horiz-adv-x="537" d="M541 21Q512 2 482 -5T415 -12Q379 -12 356 0T319 30Q261 -12 179 -12Q31 -12 31 99Q31 165 104 209T309 278V361Q309 406 296 426T246 447Q224 447 210 441T196 421Q196 415 199 410T204
402Q218 383 218 363Q218 336 197 315T140 294Q105 294 85 314T64 360Q64 389 87 416T162 463T297 482Q387 482 428 440T469 314V95Q469 62 474 51T491 40Q508 40 518 45T529 52L541 21ZM191 74T205 58T248 41Q276 41 309 65V235Q247 216 219 187T191 114Q191 74
205 58ZM222 705H319L431 534H377L271 621L164 534H110L222 705Z" />
<glyph unicode="&#xe3;" glyph-name="atilde" horiz-adv-x="537" d="M541 21Q512 2 482 -5T415 -12Q379 -12 356 0T319 30Q261 -12 179 -12Q31 -12 31 99Q31 165 104 209T309 278V361Q309 406 296 426T246 447Q224 447 210 441T196 421Q196 415 199 410T204 402Q218
383 218 363Q218 336 197 315T140 294Q105 294 85 314T64 360Q64 389 87 416T162 463T297 482Q387 482 428 440T469 314V95Q469 62 474 51T491 40Q508 40 518 45T529 52L541 21ZM191 74T205 58T248 41Q276 41 309 65V235Q247 216 219 187T191 114Q191 74 205 58ZM314
546T296 552T252 571Q229 582 213 588T181 594Q157 594 144 582T125 551H91Q100 608 128 647T208 687Q229 687 247 681T288 662Q311 650 329 644T367 638Q391 638 402 648T416 682H451Q443 627 415 587T335 546Q314 546 296 552Z" />
<glyph unicode="&#xe4;" glyph-name="adieresis" horiz-adv-x="537" d="M541 21Q512 2 482 -5T415 -12Q379 -12 356 0T319 30Q261 -12 179 -12Q31 -12 31 99Q31 165 104 209T309 278V361Q309 406 296 426T246 447Q224 447 210 441T196 421Q196 415 199 410T204
402Q218 383 218 363Q218 336 197 315T140 294Q105 294 85 314T64 360Q64 389 87 416T162 463T297 482Q387 482 428 440T469 314V95Q469 62 474 51T491 40Q508 40 518 45T529 52L541 21ZM191 74T205 58T248 41Q276 41 309 65V235Q247 216 219 187T191 114Q191 74
205 58ZM138 542T117 564T95 616Q95 647 116 669T169 691Q200 691 221 669T243 616Q243 586 222 564T169 542Q138 542 117 564ZM342 542T321 564T299 616Q299 647 320 669T373 691Q404 691 425 669T447 616Q447 586 426 564T373 542Q342 542 321 564Z" />
<glyph unicode="&#xe5;" glyph-name="aring" horiz-adv-x="537" d="M541 21Q512 2 482 -5T415 -12Q379 -12 356 0T319 30Q261 -12 179 -12Q31 -12 31 99Q31 165 104 209T309 278V361Q309 406 296 426T246 447Q224 447 210 441T196 421Q196 415 199 410T204 402Q218
383 218 363Q218 336 197 315T140 294Q105 294 85 314T64 360Q64 389 87 416T162 463T297 482Q387 482 428 440T469 314V95Q469 62 474 51T491 40Q508 40 518 45T529 52L541 21ZM191 74T205 58T248 41Q276 41 309 65V235Q247 216 219 187T191 114Q191 74 205 58ZM228
517T198 547T167 621Q167 665 197 695T271 725Q314 725 344 695T375 621Q375 578 345 548T271 517Q228 517 198 547ZM292 570T306 584T321 621Q321 643 307 657T271 672Q250 672 236 658T221 621Q221 599 235 585T271 570Q292 570 306 584Z" />
<glyph unicode="&#xe6;" glyph-name="ae" horiz-adv-x="795" d="M767 233H469Q472 132 497 91T579 50Q673 50 716 144L752 127Q724 65 678 27T535 -12Q420 -12 363 53Q324 23 280 6T178 -12Q106 -12 69 16T31 93Q31 165 107 208T309 263V361Q309 406 296 426T246
447Q224 447 210 441T196 421Q196 413 205 402Q211 392 214 385T218 365Q218 336 197 315T140 294Q105 294 85 314T64 362Q64 393 91 420T165 465T272 482Q358 482 404 444Q463 482 546 482Q655 482 711 420T767 239V233ZM600 266Q600 367 586 408T535 449Q502
449 486 410T469 266H600ZM292 41T342 81Q309 137 309 224Q247 211 219 184T191 109Q191 72 205 57T247 41Q292 41 342 81Z" />
<glyph unicode="&#xe7;" glyph-name="ccedilla" horiz-adv-x="497" d="M263 -12L243 -57Q250 -55 261 -54T285 -52Q316 -52 338 -69T360 -119Q360 -164 320 -183T226 -203Q170 -203 135 -188L153 -150Q187 -165 210 -165Q229 -165 243 -156T258 -126Q258 -110
249 -101T223 -91Q213 -91 207 -94T199 -99L182 -91L221 -9Q129 2 79 63T29 229Q29 351 96 416T277 482Q362 482 409 448T456 360Q456 328 438 308T382 288Q349 288 330 303T310 349Q310 366 318 382Q324 398 324 407Q324 426 312 437T273 449Q246 449 230 433T205
377T196 263Q196 180 207 134T242 69T307 50Q357 50 384 73T434 144L470 127Q452 86 432 58T371 9T264 -12H263Z" />
<glyph unicode="&#xe8;" glyph-name="egrave" horiz-adv-x="522" d="M494 233H196Q199 132 224 91T306 50Q400 50 443 144L479 127Q461 87 438 58T372 8T261 -12Q147 -12 88 50T29 234Q29 357 89 419T266 482Q494 482 494 239V233ZM327 266Q327 367 313 408T262
449Q229 449 213 410T196 266H327ZM193 647Q178 665 174 674T169 695Q169 713 183 726T216 739Q256 739 273 703L351 534H297L193 647Z" />
<glyph unicode="&#xe9;" glyph-name="eacute" horiz-adv-x="522" d="M494 233H196Q199 132 224 91T306 50Q400 50 443 144L479 127Q461 87 438 58T372 8T261 -12Q147 -12 88 50T29 234Q29 357 89 419T266 482Q494 482 494 239V233ZM327 266Q327 367 313 408T262
449Q229 449 213 410T196 266H327ZM247 706Q264 742 304 742Q323 742 337 729T351 698Q351 687 347 678T327 650L223 537H169L247 706Z" />
<glyph unicode="&#xea;" glyph-name="ecircumflex" horiz-adv-x="522" d="M494 233H196Q199 132 224 91T306 50Q400 50 443 144L479 127Q461 87 438 58T372 8T261 -12Q147 -12 88 50T29 234Q29 357 89 419T266 482Q494 482 494 239V233ZM327 266Q327 367 313 408T262
449Q229 449 213 410T196 266H327ZM211 705H308L420 534H366L260 621L153 534H99L211 705Z" />
<glyph unicode="&#xeb;" glyph-name="edieresis" horiz-adv-x="522" d="M494 233H196Q199 132 224 91T306 50Q400 50 443 144L479 127Q461 87 438 58T372 8T261 -12Q147 -12 88 50T29 234Q29 357 89 419T266 482Q494 482 494 239V233ZM327 266Q327 367 313 408T262
449Q229 449 213 410T196 266H327ZM127 542T106 564T84 616Q84 647 105 669T158 691Q189 691 210 669T232 616Q232 586 211 564T158 542Q127 542 106 564ZM331 542T310 564T288 616Q288 647 309 669T362 691Q393 691 414 669T436 616Q436 586 415 564T362 542Q331
542 310 564Z" />
<glyph unicode="&#xec;" glyph-name="igrave" horiz-adv-x="309" d="M16 33Q45 33 58 36T75 50T80 83V383Q80 403 75 409T51 416H16V449L184 475H239V83Q239 51 249 42T293 33V0H16V33ZM88 647Q73 665 69 674T64 695Q64 713 78 726T111 739Q151 739 168 703L246
534H192L88 647Z" />
<glyph unicode="&#xed;" glyph-name="iacute" horiz-adv-x="309" d="M16 33Q45 33 58 36T75 50T80 83V383Q80 403 75 409T51 416H16V449L184 475H239V83Q239 51 249 42T293 33V0H16V33ZM142 706Q159 742 199 742Q218 742 232 729T246 698Q246 687 242 678T222
650L118 537H64L142 706Z" />
<glyph unicode="&#xee;" glyph-name="icircumflex" horiz-adv-x="309" d="M16 33Q45 33 58 36T75 50T80 83V383Q80 403 75 409T51 416H16V449L184 475H239V83Q239 51 249 42T293 33V0H16V33ZM106 705H203L315 534H261L155 621L48 534H-6L106 705Z" />
<glyph unicode="&#xef;" glyph-name="idieresis" horiz-adv-x="309" d="M16 33Q45 33 58 36T75 50T80 83V383Q80 403 75 409T51 416H16V449L184 475H239V83Q239 51 249 42T293 33V0H16V33ZM22 542T1 564T-21 616Q-21 647 0 669T53 691Q84 691 105 669T127 616Q127
586 106 564T53 542Q22 542 1 564ZM226 542T205 564T183 616Q183 647 204 669T257 691Q288 691 309 669T331 616Q331 586 310 564T257 542Q226 542 205 564Z" />
<glyph unicode="&#xf0;" glyph-name="eth" horiz-adv-x="573" d="M492 441T517 383T543 247Q543 118 478 53T284 -12Q158 -12 94 50T29 234Q29 355 93 417T278 480Q300 480 324 476L325 477Q295 522 262 557L120 495L91 537L222 594Q177 634 106 673L149 707Q244
662 297 626L436 687L465 645L344 592Q388 557 433 507Q492 441 517 383ZM340 21T358 71T376 228Q376 343 357 395T288 447Q238 447 217 395T196 235Q196 129 217 75T290 21Q340 21 358 71Z" />
<glyph unicode="&#xf1;" glyph-name="ntilde" horiz-adv-x="628" d="M549 61T553 51T569 37T607 33V0H342V33Q364 33 374 36T387 49T390 78V318Q390 375 374 399T325 423Q303 423 286 413T242 376V83Q242 51 252 42T296 33V0H19V33Q48 33 61 36T78 50T83 83V383Q83
403 78 409T54 416H19V449L184 475H237V409H238Q266 441 303 461T398 482Q549 482 549 318V83Q549 61 553 51ZM356 546T338 552T294 571Q271 582 255 588T223 594Q199 594 186 582T167 551H133Q142 608 170 647T250 687Q271 687 289 681T330 662Q353 650 371 644T409
638Q433 638 444 648T458 682H493Q485 627 457 587T377 546Q356 546 338 552Z" />
<glyph unicode="&#xf2;" glyph-name="ograve" horiz-adv-x="572" d="M156 -12T93 49T29 234Q29 360 93 421T289 482Q418 482 481 422T544 236Q544 110 481 49T287 -12Q156 -12 93 49ZM335 20T356 67T377 220Q377 342 357 396T286 450Q237 450 217 396T196 231Q196
117 216 69T288 20Q335 20 356 67ZM220 647Q205 665 201 674T196 695Q196 713 210 726T243 739Q283 739 300 703L378 534H324L220 647Z" />
<glyph unicode="&#xf3;" glyph-name="oacute" horiz-adv-x="572" d="M156 -12T93 49T29 234Q29 360 93 421T289 482Q418 482 481 422T544 236Q544 110 481 49T287 -12Q156 -12 93 49ZM335 20T356 67T377 220Q377 342 357 396T286 450Q237 450 217 396T196 231Q196
117 216 69T288 20Q335 20 356 67ZM274 706Q291 742 331 742Q350 742 364 729T378 698Q378 687 374 678T354 650L250 537H196L274 706Z" />
<glyph unicode="&#xf4;" glyph-name="ocircumflex" horiz-adv-x="572" d="M156 -12T93 49T29 234Q29 360 93 421T289 482Q418 482 481 422T544 236Q544 110 481 49T287 -12Q156 -12 93 49ZM335 20T356 67T377 220Q377 342 357 396T286 450Q237 450 217 396T196
231Q196 117 216 69T288 20Q335 20 356 67ZM238 705H335L447 534H393L287 621L180 534H126L238 705Z" />
<glyph unicode="&#xf5;" glyph-name="otilde" horiz-adv-x="572" d="M156 -12T93 49T29 234Q29 360 93 421T289 482Q418 482 481 422T544 236Q544 110 481 49T287 -12Q156 -12 93 49ZM335 20T356 67T377 220Q377 342 357 396T286 450Q237 450 217 396T196 231Q196
117 216 69T288 20Q335 20 356 67ZM330 546T312 552T268 571Q245 582 229 588T197 594Q173 594 160 582T141 551H107Q116 608 144 647T224 687Q245 687 263 681T304 662Q327 650 345 644T383 638Q407 638 418 648T432 682H467Q459 627 431 587T351 546Q330 546
312 552Z" />
<glyph unicode="&#xf6;" glyph-name="odieresis" horiz-adv-x="572" d="M156 -12T93 49T29 234Q29 360 93 421T289 482Q418 482 481 422T544 236Q544 110 481 49T287 -12Q156 -12 93 49ZM335 20T356 67T377 220Q377 342 357 396T286 450Q237 450 217 396T196 231Q196
117 216 69T288 20Q335 20 356 67ZM154 542T133 564T111 616Q111 647 132 669T185 691Q216 691 237 669T259 616Q259 586 238 564T185 542Q154 542 133 564ZM358 542T337 564T315 616Q315 647 336 669T389 691Q420 691 441 669T463 616Q463 586 442 564T389 542Q358
542 337 564Z" />
<glyph unicode="&#xf7;" glyph-name="divide" horiz-adv-x="528" d="M230 343T206 367T181 426Q181 461 205 485T264 510Q299 510 323 486T348 426Q348 392 324 368T264 343Q230 343 206 367ZM30 282H499V187H30V282ZM229 -41T205 -17T181 43Q181 78 205 102T264
126Q299 126 323 102T348 43Q348 8 324 -16T264 -41Q229 -41 205 -17Z" />
<glyph unicode="&#xf8;" glyph-name="oslash" horiz-adv-x="572" d="M544 377T544 236Q544 110 481 49T287 -12Q180 -12 118 29L89 -6H31L84 57Q29 118 29 234Q29 360 93 421T289 482Q369 482 424 459L439 476H496L463 437Q544 377 544 236ZM196 203T197 190L361
384Q350 418 332 434T286 450Q237 450 217 396T196 231Q196 203 197 190ZM335 20T356 67T377 220Q377 279 372 329L202 127Q210 71 230 46T288 20Q335 20 356 67Z" />
<glyph unicode="&#xf9;" glyph-name="ugrave" horiz-adv-x="627" d="M549 49T553 43T568 35T607 33V0H395V61H394Q366 29 329 9T234 -12Q83 -12 83 152V383Q83 403 78 409T54 416H19V449L187 475H242V152Q242 95 258 71T307 47Q329 47 346 57T390 94V383Q390 403
385 409T361 416H326V449L494 475H549V64Q549 49 553 43ZM246 647Q231 665 227 674T222 695Q222 713 236 726T269 739Q309 739 326 703L404 534H350L246 647Z" />
<glyph unicode="&#xfa;" glyph-name="uacute" horiz-adv-x="627" d="M549 49T553 43T568 35T607 33V0H395V61H394Q366 29 329 9T234 -12Q83 -12 83 152V383Q83 403 78 409T54 416H19V449L187 475H242V152Q242 95 258 71T307 47Q329 47 346 57T390 94V383Q390 403
385 409T361 416H326V449L494 475H549V64Q549 49 553 43ZM300 706Q317 742 357 742Q376 742 390 729T404 698Q404 687 400 678T380 650L276 537H222L300 706Z" />
<glyph unicode="&#xfb;" glyph-name="ucircumflex" horiz-adv-x="627" d="M549 49T553 43T568 35T607 33V0H395V61H394Q366 29 329 9T234 -12Q83 -12 83 152V383Q83 403 78 409T54 416H19V449L187 475H242V152Q242 95 258 71T307 47Q329 47 346 57T390 94V383Q390
403 385 409T361 416H326V449L494 475H549V64Q549 49 553 43ZM264 705H361L473 534H419L313 621L206 534H152L264 705Z" />
<glyph unicode="&#xfc;" glyph-name="udieresis" horiz-adv-x="627" d="M549 49T553 43T568 35T607 33V0H395V61H394Q366 29 329 9T234 -12Q83 -12 83 152V383Q83 403 78 409T54 416H19V449L187 475H242V152Q242 95 258 71T307 47Q329 47 346 57T390 94V383Q390
403 385 409T361 416H326V449L494 475H549V64Q549 49 553 43ZM180 542T159 564T137 616Q137 647 158 669T211 691Q242 691 263 669T285 616Q285 586 264 564T211 542Q180 542 159 564ZM384 542T363 564T341 616Q341 647 362 669T415 691Q446 691 467 669T489 616Q489
586 468 564T415 542Q384 542 363 564Z" />
<glyph unicode="&#xfd;" glyph-name="yacute" horiz-adv-x="514" d="M507 470V437Q486 437 473 427T445 382L290 12Q279 -13 269 -41Q245 -101 228 -135T183 -190T116 -212Q75 -212 44 -184T13 -115Q13 -87 32 -67T82 -46Q113 -46 131 -64T149 -110Q149 -127 141
-138T132 -155Q132 -164 136 -169T149 -175Q160 -175 177 -151T215 -77L236 -25L62 396Q54 416 48 424T30 434T-7 437V470H276V437H247Q238 437 233 432T227 417Q227 409 230 400L314 178H317L409 407Q412 413 412 419Q412 427 407 432T391 437H362V470H507ZM236
706Q253 742 293 742Q312 742 326 729T340 698Q340 687 336 678T316 650L212 537H158L236 706Z" />
<glyph unicode="&#xfe;" glyph-name="thorn" horiz-adv-x="606" d="M472 482T524 422T577 246Q577 122 511 55T325 -12Q278 -12 239 2V-117Q239 -149 249 -158T293 -167V-200H16V-167Q45 -167 58 -164T75 -150T80 -117V598Q80 618 75 624T51 631H16V664L186 690H239V428Q268
454 300 468T378 482Q472 482 524 422ZM353 21T372 41T401 107T410 233Q410 329 389 380T321 431Q279 431 239 382V59Q277 21 320 21Q353 21 372 41Z" />
<glyph unicode="&#xff;" glyph-name="ydieresis" horiz-adv-x="514" d="M507 470V437Q486 437 473 427T445 382L290 12Q279 -13 269 -41Q245 -101 228 -135T183 -190T116 -212Q75 -212 44 -184T13 -115Q13 -87 32 -67T82 -46Q113 -46 131 -64T149 -110Q149 -127
141 -138T132 -155Q132 -164 136 -169T149 -175Q160 -175 177 -151T215 -77L236 -25L62 396Q54 416 48 424T30 434T-7 437V470H276V437H247Q238 437 233 432T227 417Q227 409 230 400L314 178H317L409 407Q412 413 412 419Q412 427 407 432T391 437H362V470H507ZM116
542T95 564T73 616Q73 647 94 669T147 691Q178 691 199 669T221 616Q221 586 200 564T147 542Q116 542 95 564ZM320 542T299 564T277 616Q277 647 298 669T351 691Q382 691 403 669T425 616Q425 586 404 564T351 542Q320 542 299 564Z" />
<glyph unicode="&#x2013;" glyph-name="endash" horiz-adv-x="464" d="M0 291H464V211H0V291Z" />
<glyph unicode="&#x2014;" glyph-name="emdash" horiz-adv-x="927" d="M0 291H927V211H0V291Z" />
<glyph unicode="&#x2018;" glyph-name="quoteleft" horiz-adv-x="322" d="M129 430T106 452T82 525Q82 588 118 635T215 690L219 658Q196 654 174 642T152 610Q152 600 157 597T176 589Q205 580 223 560T241 510Q241 478 221 454T163 430Q129 430 106 452Z" />
<glyph unicode="&#x2019;" glyph-name="quoteright" horiz-adv-x="322" d="M103 462Q126 466 148 478T170 510Q170 520 165 523T146 531Q117 540 99 560T81 610Q81 642 101 666T159 690Q193 690 216 668T240 595Q240 532 204 485T107 430L103 462Z" />
<glyph unicode="&#x201a;" glyph-name="quotesinglbase" horiz-adv-x="322" d="M104 -78Q127 -74 149 -62T171 -30Q171 -20 166 -17T147 -9Q118 0 100 20T82 70Q82 102 102 126T160 150Q194 150 217 128T241 55Q241 -8 205 -55T108 -110L104 -78Z" />
<glyph unicode="&#x201c;" glyph-name="quotedblleft" horiz-adv-x="482" d="M309 431T286 453T262 526Q262 589 298 636T395 691L399 659Q376 655 354 643T332 611Q332 601 337 598T356 590Q385 581 403 561T421 511Q421 479 401 455T343 431Q309 431 286 453ZM108
430T85 452T61 525Q61 588 97 635T194 690L198 658Q175 654 153 642T131 610Q131 600 136 597T155 589Q184 580 202 560T220 510Q220 478 200 454T142 430Q108 430 85 452Z" />
<glyph unicode="&#x201d;" glyph-name="quotedblright" horiz-adv-x="482" d="M284 463Q307 467 329 479T351 511Q351 521 346 524T327 532Q298 541 280 561T262 611Q262 643 282 667T340 691Q374 691 397 669T421 596Q421 533 385 486T288 431L284 463ZM83 462Q106
466 128 478T150 510Q150 520 145 523T126 531Q97 540 79 560T61 610Q61 642 81 666T139 690Q173 690 196 668T220 595Q220 532 184 485T87 430L83 462Z" />
<glyph unicode="&#x201e;" glyph-name="quotedblbase" horiz-adv-x="482" d="M284 -78Q307 -74 329 -62T351 -30Q351 -20 346 -17T327 -9Q298 0 280 20T262 70Q262 102 282 126T340 150Q374 150 397 128T421 55Q421 -8 385 -55T288 -110L284 -78ZM83 -79Q106 -75
128 -63T150 -31Q150 -21 145 -18T126 -10Q97 -1 79 19T61 69Q61 101 81 125T139 149Q173 149 196 127T220 54Q220 -9 184 -56T87 -111L83 -79Z" />
<glyph unicode="&#x2022;" glyph-name="bullet" horiz-adv-x="396" d="M152 165T114 187T55 247T33 332Q33 377 55 414T115 473T198 495Q243 495 281 473T341 414T363 330Q363 284 341 247T281 187T198 165Q152 165 114 187Z" />
<glyph unicode="&#x2039;" glyph-name="guilsinglleft" horiz-adv-x="341" d="M41 251L268 478H300L215 251L300 24H266L41 251Z" />
<glyph unicode="&#x203a;" glyph-name="guilsinglright" horiz-adv-x="341" d="M126 251L41 478H73L300 251L75 24H41L126 251Z" />
</font>
</defs>
</svg>
