<?xml version="1.0" standalone="no"?>
<!DOCTYPE svg PUBLIC "-//W3C//DTD SVG 1.1//EN" "http://www.w3.org/Graphics/SVG/1.1/DTD/svg11.dtd">
<svg xmlns="http://www.w3.org/2000/svg">
<defs >
<font id="Arsenal" horiz-adv-x="522" ><font-face
    font-family="Arsenal"
    units-per-em="1000"
    panose-1="0 0 5 0 0 0 0 0 0 0"
    ascent="1000"
    descent="-254"
    alphabetic="0" />
<glyph unicode=" " glyph-name="space" horiz-adv-x="233" />
<glyph unicode="!" glyph-name="exclam" horiz-adv-x="276" d="M117 212L99 667V750H180V667L161 212H117ZM122 -9T108 3Q94 16 94 37Q94 58 108 71Q122 83 139 83Q158 83 171 71Q184 58 184 37Q184 16 171 3Q158 -9 139 -9Q122 -9 108 3Z" />
<glyph unicode="&quot;" glyph-name="quotedbl" horiz-adv-x="299" d="M38 518L34 750L101 748L79 518H38ZM179 518L175 750L242 748L220 518H179Z" />
<glyph unicode="#" glyph-name="numbersign" horiz-adv-x="480" d="M277 80L243 90L269 218H164L138 91L104 101L128 218H49V259H137L164 389H49V431H173L202 568L236 558L209 431H313L340 557L374 547L350 431H430V389H341L314 259H430V218H305L277 80ZM173 259H278L305
389H200L173 259Z" />
<glyph unicode="$" glyph-name="dollar" horiz-adv-x="408" d="M182 56Q134 59 102 75T53 109T36 130L61 165Q61 163 77 146T121 115T187 100Q243 100 271 128T300 196Q300 225 286 244T250 273T190 297Q146 313 120 326T76 367T57 437Q57 491 90 526T181 572L186
700H228L234 575Q264 574 291 566T334 549T355 537L343 494Q339 497 323 506T282 525T229 534Q183 534 155 511T126 453Q126 424 141 405T178 374T239 349Q283 334 310 320T357 278T376 208Q376 150 340 109T234 58L230 -50H188L182 56Z" />
<glyph unicode="%" glyph-name="percent" horiz-adv-x="802" d="M130 286T89 337T48 474Q48 560 90 611T205 663Q277 663 319 611T362 474Q362 388 320 337T205 286Q130 286 89 337ZM279 2L236 12L517 641L560 631L279 2ZM251 328T276 366T302 475Q302 546 277
583T205 621Q158 621 133 584T108 475Q108 404 133 366T204 328Q251 328 276 366ZM523 -14T482 37T441 174Q441 260 483 311T598 363Q670 363 712 311T755 174Q755 88 713 37T598 -14Q523 -14 482 37ZM644 28T669 66T695 175Q695 246 670 283T598 321Q551 321 526
284T501 175Q501 104 526 66T597 28Q644 28 669 66Z" />
<glyph unicode="&amp;" glyph-name="ampersand" horiz-adv-x="603" d="M146 -10T97 41T48 175Q48 238 85 278T176 336Q135 356 108 394T81 489Q81 566 128 612T258 659Q289 659 317 652T362 638T384 628L376 585Q372 587 359 594T322 607T273 614Q216 614 186
580T155 484Q155 421 184 389T252 356H375L408 500H441V356H570V313H441V138Q441 78 456 57T506 36Q524 36 539 39T563 45T574 49L576 9Q574 7 564 3T534 -6T484 -10Q445 -10 421 3T385 49Q338 -10 248 -10Q146 -10 97 41ZM307 36T334 56T374 103Q373 112 373 134V313H239Q193
311 159 275T124 176Q124 36 259 36Q307 36 334 56Z" />
<glyph unicode="&apos;" glyph-name="quotesingle" horiz-adv-x="158" d="M38 518L34 750L101 748L79 518H38Z" />
<glyph unicode="(" glyph-name="parenleft" horiz-adv-x="307" d="M230 -188T190 -127T117 34T85 272Q85 409 117 510T188 674T228 728L266 707Q266 715 235 655T180 498T155 272Q155 142 179 47T235 -107T266 -158L230 -179Q230 -188 190 -127Z" />
<glyph unicode=")" glyph-name="parenright" horiz-adv-x="307" d="M40 -158Q40 -166 71 -106T126 52T151 277Q151 405 127 501T71 656T40 707L77 728Q77 737 117 676T189 515T221 277Q221 140 189 39T117 -125T77 -179L40 -158Z" />
<glyph unicode="*" glyph-name="asterisk" horiz-adv-x="393" d="M120 310L66 354L176 490L19 527L40 597L183 518L163 704H230L208 518L353 597L373 527L216 491L327 354L272 310L196 472L120 310Z" />
<glyph unicode="+" glyph-name="plus" horiz-adv-x="408" d="M183 80V254H34V301H183V475H227V301H373V254H227V80H183Z" />
<glyph unicode="," glyph-name="comma" horiz-adv-x="226" d="M45 -139Q76 -110 95 -66T113 16H110Q94 16 81 27Q69 39 69 58Q69 76 81 89Q92 99 109 99Q127 99 138 89L143 82Q154 66 154 34Q154 -14 129 -72T66 -161L45 -139Z" />
<glyph unicode="-" glyph-name="hyphen" horiz-adv-x="297" d="M34 254V301H263V254H34Z" />
<glyph unicode="." glyph-name="period" horiz-adv-x="243" d="M103 -9T89 3Q75 16 75 37Q75 58 89 71Q103 83 120 83Q139 83 152 71Q165 58 165 37Q165 16 152 3Q138 -9 120 -9Q103 -9 89 3Z" />
<glyph unicode="/" glyph-name="slash" horiz-adv-x="417" d="M1 -250L376 750H431L57 -250H1Z" />
<glyph unicode="0" glyph-name="zero" horiz-adv-x="562" d="M169 -10T113 77T56 324Q56 483 112 571T281 659Q393 659 449 571T506 324Q506 165 450 78T281 -10Q169 -10 113 77ZM355 36T390 105T426 324Q426 473 390 543T281 613Q207 613 172 543T136 324Q136
174 171 105T281 36Q355 36 390 105Z" />
<glyph unicode="1" glyph-name="one" horiz-adv-x="369" d="M187 0V592L67 525L50 564L199 650H259V0H187Z" />
<glyph unicode="2" glyph-name="two" horiz-adv-x="475" d="M43 60Q66 69 138 138T271 297T331 472Q331 543 303 576T205 610Q172 610 141 598T86 571T63 555L55 600Q55 602 79 617T140 646T216 659Q316 659 363 611T411 478Q411 370 321 262T122 68H429V0H43V60Z" />
<glyph unicode="3" glyph-name="three" horiz-adv-x="475" d="M160 -10T121 6T61 40T39 61L63 100Q63 98 82 82T134 52T206 38Q277 38 313 77T350 190Q350 256 320 292T230 328Q215 328 202 323T182 313T172 306L146 336L330 581H69L73 650H400V603L220 368Q232
371 247 371Q327 371 376 322T426 190Q426 128 399 83T323 14T214 -10Q160 -10 121 6Z" />
<glyph unicode="4" glyph-name="four" horiz-adv-x="492" d="M315 164H35L30 202Q71 283 116 409T193 659L262 650Q232 535 185 420T86 209H315L332 555H389V209H460V169L389 164V0H315V164Z" />
<glyph unicode="5" glyph-name="five" horiz-adv-x="465" d="M140 -10T104 5T47 39T26 60L52 97Q52 95 69 80T117 51T187 38Q260 38 302 81T344 204Q344 274 306 315T205 356Q174 356 151 347T119 328L118 325L88 329L118 650H390L387 580H156L139 385Q174 398
211 398Q305 398 362 346T420 205Q420 139 389 90T306 16T191 -10Q140 -10 104 5Z" />
<glyph unicode="6" glyph-name="six" horiz-adv-x="517" d="M166 -10T111 57T56 250Q56 290 59 323Q69 492 126 575T277 659Q308 659 336 652T382 636T405 625L395 581Q391 584 375 591T334 606T283 613Q137 613 128 348Q188 410 273 410Q364 410 416 355T469
208Q469 147 447 98T379 19T268 -10Q166 -10 111 57ZM333 34T363 82T393 209Q393 281 361 325T264 369Q217 369 186 347T136 296L137 295Q135 284 134 265T132 227Q132 34 268 34Q333 34 363 82Z" />
<glyph unicode="7" glyph-name="seven" horiz-adv-x="421" d="M158 226T340 578H41V650H402V590Q336 467 276 302T188 0H109Q158 226 340 578Z" />
<glyph unicode="8" glyph-name="eight" horiz-adv-x="502" d="M155 -10T102 34T48 170Q48 236 86 275T180 332Q131 347 96 385T61 493Q61 571 112 615T251 659Q339 659 390 615T442 490Q442 424 407 387T320 333Q375 318 415 280T455 168Q455 77 401 34T251 -10Q155
-10 102 34ZM292 354T328 383T364 488Q364 618 251 618Q138 618 138 490Q138 415 174 385T252 350Q292 354 328 383ZM310 31T342 65T374 171Q374 247 334 277T248 313Q205 308 167 278T128 172Q128 100 160 66T251 31Q310 31 342 65Z" />
<glyph unicode="9" glyph-name="nine" horiz-adv-x="517" d="M188 -10T158 0T111 23T95 38L114 81Q114 79 129 68T169 46T228 36Q298 36 341 100T388 295Q336 227 244 227Q154 227 101 283T48 431Q48 492 72 544T143 627T255 659Q356 659 408 592T461 399Q461
351 459 329Q455 218 425 142T344 28T231 -10Q188 -10 158 0ZM307 268T339 295T381 353Q384 380 384 422Q384 519 354 567T255 615Q190 615 157 563T124 434Q124 361 156 315T253 268Q307 268 339 295Z" />
<glyph unicode=":" glyph-name="colon" horiz-adv-x="245" d="M102 370T89 382Q75 395 75 416Q75 437 89 450Q102 462 120 462Q138 462 152 450Q165 437 165 416Q165 395 152 382Q138 370 120 370Q102 370 89 382ZM103 -9T89 3Q75 16 75 37Q75 58 89 71Q103 83
120 83Q139 83 152 71Q165 58 165 37Q165 16 152 3Q138 -9 120 -9Q103 -9 89 3Z" />
<glyph unicode=";" glyph-name="semicolon" horiz-adv-x="243" d="M102 370T89 382Q75 395 75 416Q75 437 89 450Q102 462 120 462Q138 462 152 450Q165 437 165 416Q165 395 152 382Q138 370 120 370Q102 370 89 382ZM55 -139Q86 -110 105 -66T123 16H120Q104
16 91 27Q79 39 79 58Q79 76 91 89Q102 99 119 99Q137 99 148 89L153 82Q164 66 164 34Q164 -14 139 -72T76 -161L55 -139Z" />
<glyph unicode="&lt;" glyph-name="less" horiz-adv-x="368" d="M301 118L61 318L301 517L326 488L130 318L327 147L301 118Z" />
<glyph unicode="=" glyph-name="equal" horiz-adv-x="470" d="M34 349V396H436V349H34ZM34 159V206H436V159H34Z" />
<glyph unicode="&gt;" glyph-name="greater" horiz-adv-x="368" d="M67 118L42 147L236 318L42 488L67 517L308 318L67 118Z" />
<glyph unicode="?" glyph-name="question" horiz-adv-x="411" d="M122 235T122 267Q122 309 133 337T160 384T205 427Q233 451 248 468T275 514T286 582Q286 641 259 677T175 713Q139 713 111 702T66 677T48 662L40 705Q40 707 60 721T115 747T193 759Q252 759
291 736T349 674T368 592Q368 545 354 512T318 459T262 411Q227 385 207 365T172 312T157 232Q157 218 158 210L127 207Q122 235 122 267ZM129 -9T115 3Q101 16 101 37Q101 58 115 71Q129 83 146 83Q164 83 178 71Q191 58 191 37Q191 16 178 3Q164 -9 146 -9Q129
-9 115 3Z" />
<glyph unicode="@" glyph-name="at" horiz-adv-x="831" d="M250 -230T153 -122T56 188Q56 398 156 516T446 634Q608 634 694 542T781 284Q781 132 732 60T608 -13Q571 -13 549 -1T520 41Q485 -14 410 -14Q335 -14 290 37T245 189Q245 253 267 303T329 380T421
408Q481 408 521 368L535 394H567V90Q567 52 579 38T614 23Q660 23 691 82T723 282Q723 436 653 514T446 593Q291 593 206 492T121 188Q121 4 204 -90T434 -185Q505 -185 555 -164T633 -118T661 -89L680 -125Q680 -130 652 -156T569 -206T434 -230Q250 -230 153
-122ZM461 23T483 44T516 90V320Q508 339 488 355T428 372Q368 372 338 324T307 189Q307 23 424 23Q461 23 483 44Z" />
<glyph unicode="A" glyph-name="A" horiz-adv-x="568" d="M23 0L242 650H331L546 0H467L399 200H144L76 0H23ZM158 241H386L273 592L158 241Z" />
<glyph unicode="B" glyph-name="B" horiz-adv-x="542" d="M94 650H258Q356 650 409 606T463 488Q463 434 436 398T369 341Q427 325 460 285T494 184Q494 96 436 48T259 0H94V650ZM288 356Q309 356 332 368T373 408T390 483Q390 544 353 575T255 606H170V356H288ZM256
44Q419 44 419 187Q419 251 384 283T292 315H170V44H256Z" />
<glyph unicode="C" glyph-name="C" horiz-adv-x="570" d="M198 -10T123 77T48 319Q48 422 82 499T180 617T328 659Q374 659 416 647T489 620T519 604L510 556Q510 557 481 571T414 597T336 609Q239 609 184 536T129 321Q129 182 185 111T342 40Q395 40 435 62T498
109T522 138L550 106Q550 101 524 72T450 16T333 -10Q198 -10 123 77Z" />
<glyph unicode="D" glyph-name="D" horiz-adv-x="634" d="M94 650H292Q432 650 509 566T587 323Q587 166 511 83T292 0H94V650ZM293 48Q505 48 505 323Q505 602 292 602H170V48H293Z" />
<glyph unicode="E" glyph-name="E" horiz-adv-x="507" d="M94 0V650H444V602H170V352H421V306H170V48H466V0H94Z" />
<glyph unicode="F" glyph-name="F" horiz-adv-x="464" d="M94 0V650H451V602H170V343H412V297H170V0H94Z" />
<glyph unicode="G" glyph-name="G" horiz-adv-x="620" d="M188 -10T118 78T48 323Q48 482 124 570T339 659Q385 659 427 647T500 620T530 604L521 556Q521 557 492 571T425 597T347 609Q236 609 183 538T129 323Q129 183 181 112T326 40Q401 40 435 76T479 148V295H346V338H543V0H506L487
71Q463 36 421 13T315 -10Q188 -10 118 78Z" />
<glyph unicode="H" glyph-name="H" horiz-adv-x="638" d="M94 0V650H170V358H467V650H543V0H467V312H170V0H94Z" />
<glyph unicode="I" glyph-name="I" horiz-adv-x="265" d="M94 0V650H170V0H94Z" />
<glyph unicode="J" glyph-name="J" horiz-adv-x="362" d="M83 -10T57 -1T19 19T6 32L26 71Q26 70 35 62T63 46T107 38Q149 38 174 70T200 191V650H275V191Q275 79 235 35T124 -10Q83 -10 57 -1Z" />
<glyph unicode="K" glyph-name="K" horiz-adv-x="580" d="M94 0V650H170V296L249 366L468 650H529L301 360L560 0H465L245 302L170 239V0H94Z" />
<glyph unicode="L" glyph-name="L" horiz-adv-x="471" d="M94 0V650H170V48H459V0H94Z" />
<glyph unicode="M" glyph-name="M" horiz-adv-x="835" d="M94 0L97 650L99 647L98 650H191L420 93H421L650 650H738L741 0H667L664 557H663L438 0H377L151 557L149 0H94Z" />
<glyph unicode="N" glyph-name="N" horiz-adv-x="651" d="M94 0V650H173L505 114L502 138V650H557V0H491L145 554H144L149 523V0H94Z" />
<glyph unicode="O" glyph-name="O" horiz-adv-x="654" d="M239 -10T177 30T81 145T48 324Q48 427 81 502T176 618T326 659Q413 659 476 619T572 503T606 324Q606 221 573 146T476 30T326 -10Q239 -10 177 30ZM422 38T473 111T525 324Q525 463 474 537T326 611Q231
611 180 537T129 324Q129 184 179 111T326 38Q422 38 473 111Z" />
<glyph unicode="P" glyph-name="P" horiz-adv-x="496" d="M94 650H250Q350 650 405 598T461 444Q461 368 431 320T354 250T252 228H170V0H94V650ZM241 270Q381 270 381 441Q381 525 345 565T242 606H170V270H241Z" />
<glyph unicode="Q" glyph-name="Q" horiz-adv-x="654" d="M451 -159T394 -117T301 -9Q181 -1 115 87T48 324Q48 427 81 502T176 618T326 659Q413 659 476 619T572 505T606 327Q606 188 546 100T378 -6Q411 -55 448 -86T525 -117Q541 -117 558 -111L563 -149Q539
-159 510 -159Q451 -159 394 -117ZM422 38T473 111T525 324Q525 462 473 536T326 611Q231 611 180 537T129 324Q129 185 180 112T326 38Q422 38 473 111Z" />
<glyph unicode="R" glyph-name="R" horiz-adv-x="539" d="M94 650H251Q350 650 406 599T462 451Q462 374 429 325T342 255L505 0H418L269 241H170V0H94V650ZM251 286Q316 286 349 323T382 448Q382 606 242 606H170V286H251Z" />
<glyph unicode="S" glyph-name="S" horiz-adv-x="490" d="M171 -10T128 9T65 49T44 75L69 114Q69 111 88 92T143 56T233 39Q296 39 332 75T368 166Q368 203 350 228T306 268T234 302Q182 323 150 342T96 394T74 480Q74 562 126 610T265 659Q308 659 342 647T398
620T419 603L409 559Q409 561 389 575T338 601T269 613Q213 613 181 582T149 498Q149 461 166 437T210 397T281 364Q334 342 366 323T420 268T443 178Q443 123 418 81T345 14T236 -10Q171 -10 128 9Z" />
<glyph unicode="T" glyph-name="T" horiz-adv-x="461" d="M192 0V602H7V650H454V602H268V0H192Z" />
<glyph unicode="U" glyph-name="U" horiz-adv-x="620" d="M201 -10T144 50T86 212V650H161V229Q161 138 201 90T318 41Q398 41 438 90T479 229V650H534V212Q534 110 478 50T310 -10Q201 -10 144 50Z" />
<glyph unicode="V" glyph-name="V" horiz-adv-x="548" d="M227 0L15 650H94L283 56L475 650H531L315 0H227Z" />
<glyph unicode="W" glyph-name="W" horiz-adv-x="848" d="M194 0L15 650H95L243 87L402 650H469L631 88L775 650H831L656 0H586L424 554L264 0H194Z" />
<glyph unicode="X" glyph-name="X" horiz-adv-x="541" d="M18 0L226 323L26 650H118L279 378L447 650H510L311 335L523 0H430L259 279H258L85 0H18Z" />
<glyph unicode="Y" glyph-name="Y" horiz-adv-x="507" d="M217 0V269L2 650H87L266 330L444 650H505L293 274V0H217Z" />
<glyph unicode="Z" glyph-name="Z" horiz-adv-x="527" d="M40 0V40L392 602H49V650H485V609L132 48H485V0H40Z" />
<glyph unicode="[" glyph-name="bracketleft" horiz-adv-x="334" d="M88 -76V701H323V657H152V-31H323V-76H88Z" />
<glyph unicode="\" glyph-name="backslash" horiz-adv-x="417" d="M361 -250L-14 750H41L416 -250H361Z" />
<glyph unicode="]" glyph-name="bracketright" horiz-adv-x="334" d="M11 -76V-31H182V657H11V701H247V-76H11Z" />
<glyph unicode="^" glyph-name="asciicircum" horiz-adv-x="336" d="M57 494L34 520L167 687L302 520L277 494L168 623L57 494Z" />
<glyph unicode="_" glyph-name="underscore" horiz-adv-x="624" d="M34 -146V-99H590V-146H34Z" />
<glyph unicode="`" glyph-name="grave" horiz-adv-x="207" d="M95 573L-10 708L52 724L135 581L95 573Z" />
<glyph unicode="a" glyph-name="a" horiz-adv-x="477" d="M112 -10T72 22T32 113Q32 260 315 290V343Q315 414 292 440T211 466Q185 466 158 457T113 437T89 423L81 464Q86 468 106 479T158 500T222 510Q308 510 348 474T388 347V102Q388 62 395 48T414 34Q423
34 436 37T453 43L456 9Q448 6 422 -2T378 -10Q352 -10 338 6T321 65H320Q320 61 304 42T257 7T178 -10Q112 -10 72 22ZM236 34T262 50T301 85T315 107V253Q224 243 166 214T107 122Q107 79 132 57T200 34Q236 34 262 50Z" />
<glyph unicode="b" glyph-name="b" horiz-adv-x="516" d="M221 -11T189 5T141 39L127 0H75V748L148 752V443H149Q149 446 163 463T207 496T282 511Q371 511 425 446T479 264Q479 138 426 64T273 -11Q221 -11 189 5ZM331 37T366 93T402 262Q402 366 366 414T261
463Q211 463 184 437T148 391V82Q155 69 182 53T254 37Q331 37 366 93Z" />
<glyph unicode="c" glyph-name="c" horiz-adv-x="423" d="M149 -10T93 54T37 245Q37 373 92 441T255 510Q290 510 321 501T373 480T395 467L386 426Q382 429 365 438T320 457T263 466Q186 466 150 415T114 246Q114 132 152 83T259 34Q298 34 325 48T368 77T383
96L415 75Q415 71 397 50T343 9T253 -10Q149 -10 93 54Z" />
<glyph unicode="d" glyph-name="d" horiz-adv-x="516" d="M147 -10T92 55T37 236Q37 361 90 435T241 510Q282 510 310 500T353 477T368 462H369V748L441 752V0H379L371 59Q360 37 328 14T238 -10Q147 -10 92 55ZM290 39T316 54T355 88T369 109V416Q369 418 356
430T319 452T263 462Q186 462 150 406T114 238Q114 133 149 86T254 39Q290 39 316 54Z" />
<glyph unicode="e" glyph-name="e" horiz-adv-x="453" d="M151 -10T94 52T37 240Q37 366 92 438T242 510Q328 510 374 451T421 282Q421 263 419 251T416 236H113Q113 34 259 34Q299 34 327 48T372 79T388 99L417 75Q417 71 398 50T342 9T251 -10Q151 -10 94 52ZM353
278L354 297Q354 467 242 467Q183 467 151 421T114 278H353Z" />
<glyph unicode="f" glyph-name="f" horiz-adv-x="313" d="M95 451H43V493L95 499V571Q95 668 125 713T226 759Q250 759 271 753T305 739T321 730L311 691Q308 693 298 698T272 709T239 714Q212 714 197 701T175 655T167 563V500H312V451H167V0H95V451Z" />
<glyph unicode="g" glyph-name="g" horiz-adv-x="451" d="M130 -260T75 -219T20 -97Q20 -45 43 -13T103 34Q85 55 85 93Q85 142 131 177Q91 198 69 237T47 333Q47 424 98 467T231 510Q270 510 300 500L429 499V460L365 458Q405 413 405 333Q405 247 359 201T230
155Q196 155 169 162Q134 139 134 110Q134 83 156 73T227 62Q446 62 446 -92Q446 -174 392 -217T236 -260Q130 -260 75 -219ZM334 195T334 334Q334 406 306 436T227 467Q176 467 147 437T117 333Q117 265 146 230T228 195Q334 195 334 334ZM306 -215T344 -187T382
-104Q382 1 219 1Q172 1 144 9Q114 -3 96 -29T77 -96Q77 -156 118 -185T236 -215Q306 -215 344 -187Z" />
<glyph unicode="h" glyph-name="h" horiz-adv-x="512" d="M74 748L147 752V455H148Q148 455 160 468T210 496T291 510Q364 510 403 470T443 349V0H371V340Q371 457 267 457Q231 457 204 446T162 422T147 407V0H74V748Z" />
<glyph unicode="i" glyph-name="i" horiz-adv-x="222" d="M93 601T82 612Q69 625 69 644Q69 663 82 676Q93 687 111 687Q130 687 141 677Q153 664 153 644Q153 626 141 612Q127 601 111 601Q93 601 82 612ZM74 0V500H147V0H74Z" />
<glyph unicode="j" glyph-name="j" horiz-adv-x="240" d="M111 601T100 612Q87 625 87 644Q87 663 100 676Q111 687 129 687Q148 687 159 677Q171 664 171 644Q171 626 159 612Q145 601 129 601Q111 601 100 612ZM0 -260T-16 -255T-39 -245T-49 -238L-35 -197Q-34
-198 -28 -202T-10 -209T15 -213Q54 -213 73 -173T92 -41V500H165V-41Q165 -260 24 -260Q0 -260 -16 -255Z" />
<glyph unicode="k" glyph-name="k" horiz-adv-x="456" d="M74 0V748L147 752V271L208 313L357 500H412L247 295L433 0H350L191 252L147 225V0H74Z" />
<glyph unicode="l" glyph-name="l" horiz-adv-x="223" d="M75 0V748L147 752V0H75Z" />
<glyph unicode="m" glyph-name="m" horiz-adv-x="725" d="M75 500H135L144 447Q161 467 196 488T285 510Q326 510 351 496T390 449Q406 468 443 489T536 510Q599 510 628 477T657 367V0H584V359Q584 417 566 437T509 458Q468 458 441 440T400 403Q402 381 402
368V0H329V359Q329 416 312 437T256 458Q214 458 186 439T147 404V0H75V500Z" />
<glyph unicode="n" glyph-name="n" horiz-adv-x="512" d="M75 500H135L144 452Q160 471 194 490T292 510Q364 510 404 470T444 349V0H371V334Q371 398 345 427T268 457Q232 457 205 446T163 422T147 407V0H75V500Z" />
<glyph unicode="o" glyph-name="o" horiz-adv-x="501" d="M146 -10T92 58T37 250Q37 374 91 442T250 510Q354 510 408 442T463 250Q463 127 408 59T250 -10Q146 -10 92 58ZM320 34T353 87T386 250Q386 358 353 412T250 466Q180 466 147 413T114 250Q114 141 147
88T250 34Q320 34 353 87Z" />
<glyph unicode="p" glyph-name="p" horiz-adv-x="516" d="M75 500H135L144 440Q158 462 192 486T286 510Q374 510 426 445T479 264Q479 138 426 64T276 -10Q235 -10 207 0T163 23T148 38H147V-250L75 -252V500ZM330 38T366 93T402 262Q402 367 366 414T262 461Q226
461 200 446T161 414T147 393V82Q158 68 183 53T252 38Q330 38 366 93Z" />
<glyph unicode="q" glyph-name="q" horiz-adv-x="516" d="M368 60H367Q367 57 353 39T310 6T235 -10Q146 -10 92 55T38 236Q38 361 92 435T245 510Q294 510 325 495T372 464L389 500H441V-250L368 -252V60ZM294 39T318 54T355 86T368 107V419Q355 434 330 448T265
462Q188 462 151 407T114 238Q114 132 151 86T257 39Q294 39 318 54Z" />
<glyph unicode="r" glyph-name="r" horiz-adv-x="329" d="M74 500H128L139 397Q139 403 150 431T186 485T248 510Q267 510 291 504T322 494L315 439Q308 442 284 448T240 454Q211 454 191 435T160 393T147 360V0H74V500Z" />
<glyph unicode="s" glyph-name="s" horiz-adv-x="408" d="M146 -10T110 6T55 42T36 64L61 99Q61 97 77 80T121 49T187 34Q243 34 271 62T300 130Q300 159 286 178T250 207T190 231Q146 247 120 260T76 301T57 371Q57 435 103 472T223 510Q255 510 284 502T332
484T355 471L343 428Q339 431 323 440T282 459T229 468Q183 468 155 445T126 387Q126 358 141 339T178 308T239 283Q283 268 310 254T357 212T376 142Q376 77 331 34T199 -10Q146 -10 110 6Z" />
<glyph unicode="t" glyph-name="t" horiz-adv-x="326" d="M144 -10T118 23T92 134V451H40V493L92 499L119 658H165V500H293V451H165V152Q165 87 177 63T221 38Q246 38 266 43T286 49L291 9Q289 7 279 3T248 -6T198 -10Q144 -10 118 23Z" />
<glyph unicode="u" glyph-name="u" horiz-adv-x="512" d="M148 -10T108 30T68 151V500H141V166Q141 43 245 43Q281 43 307 54T348 79T364 94V500H437V0H376L366 48Q353 30 318 10T221 -10Q148 -10 108 30Z" />
<glyph unicode="v" glyph-name="v" horiz-adv-x="435" d="M184 0L13 500H99L229 79L367 500H422L250 0H184Z" />
<glyph unicode="w" glyph-name="w" horiz-adv-x="657" d="M145 0L14 500H95L189 92L308 500H365L490 92L588 500H644L509 0H445L328 403L210 0H145Z" />
<glyph unicode="x" glyph-name="x" horiz-adv-x="443" d="M12 0L178 249L20 500H106L229 291L358 500H417L262 261L430 0H345L211 216L72 0H12Z" />
<glyph unicode="y" glyph-name="y" horiz-adv-x="449" d="M58 -260T45 -257T25 -251T16 -247L24 -201Q27 -203 39 -206T65 -210Q111 -210 142 -161T211 -6L15 500H101L249 82L383 500H436L263 -8Q220 -131 179 -195T76 -260Q58 -260 45 -257Z" />
<glyph unicode="z" glyph-name="z" horiz-adv-x="415" d="M35 0V40L291 455H57L54 500H375V460L121 45H373L375 0H35Z" />
<glyph unicode="{" glyph-name="braceleft" horiz-adv-x="375" d="M242 -164T203 -129T164 -23Q164 14 178 84Q191 145 191 179Q191 204 176 224T139 256T98 268V316Q117 316 139 327T176 359T191 405Q191 439 178 500Q164 570 164 607Q164 677 203 712T340 748V705Q278
705 252 679T226 602Q226 574 232 541T239 500Q253 430 253 397Q253 361 232 334T175 292Q211 277 232 250T253 187Q253 154 239 84Q238 77 232 44T226 -18Q226 -69 252 -95T340 -121V-164Q242 -164 203 -129Z" />
<glyph unicode="|" glyph-name="bar" horiz-adv-x="292" d="M121 -250V750H171V-250H121Z" />
<glyph unicode="}" glyph-name="braceright" horiz-adv-x="375" d="M60 -121Q121 -121 147 -95T173 -18Q173 10 167 43T160 84Q146 154 146 187Q146 223 167 250T223 292Q188 307 167 334T146 397Q146 430 160 500Q161 507 167 540T173 602Q173 653 147 679T60
705V748Q158 748 197 713T236 607Q236 566 221 500Q220 492 214 461T208 405Q208 380 223 360T261 328T302 316V268Q283 268 261 257T224 225T208 179Q208 154 214 123T221 84Q236 18 236 -23Q236 -93 197 -128T60 -164V-121Z" />
<glyph unicode="~" glyph-name="asciitilde" horiz-adv-x="573" d="M375 254T346 267T279 308Q244 333 217 345T155 358Q123 358 103 346T72 319T61 302L31 323Q31 329 45 355T90 405T172 429Q217 429 248 415T320 373Q353 349 378 337T435 325Q464 325 481 336T507
359T515 374L543 355Q543 349 531 324T490 277T415 254Q375 254 346 267Z" />
<glyph unicode="&#xa0;" glyph-name="uni00A0" horiz-adv-x="233" />
<glyph unicode="&#xa1;" glyph-name="exclamdown" horiz-adv-x="276" d="M119 416T105 428Q91 441 91 462Q91 483 105 496Q118 508 136 508Q154 508 168 496Q181 483 181 462Q181 441 168 428Q155 416 136 416Q119 416 105 428ZM96 -250V-167L115 288H159L177
-167V-250H96Z" />
<glyph unicode="&#xa2;" glyph-name="cent" horiz-adv-x="423" d="M221 59Q132 68 85 131T37 312Q37 429 83 496T220 575L224 700H266L272 576Q303 574 330 565T374 546T395 534L386 493Q382 496 365 505T320 524T263 533Q186 533 150 482T114 313Q114 199 152
150T259 101Q298 101 325 115T368 144T383 163L415 142Q415 139 399 119T352 80T272 57L269 -50H227L221 59Z" />
<glyph unicode="&#xa3;" glyph-name="sterling" horiz-adv-x="508" d="M46 67H84Q116 90 129 126T142 215Q142 248 139 282L46 285V328H134Q133 336 128 386T123 483Q123 568 168 613T299 659Q326 659 354 651T401 634T426 622L414 579Q410 581 394 589T356 604T314
611Q258 611 231 580T204 479Q204 424 206 328H429V281H206Q204 206 193 154T155 67H486V0H46V67Z" />
<glyph unicode="&#xa4;" glyph-name="currency" horiz-adv-x="540" d="M369 172Q349 153 324 143T271 133Q214 133 173 171L79 53L51 90L152 196Q119 243 119 314Q119 381 151 431L50 539L78 576L172 455Q214 495 271 495Q325 495 367 458L462 575L489 538L388
433Q423 384 423 314Q423 245 389 196L490 89L463 52L369 172ZM320 177T350 214T380 314Q380 378 350 414T271 451Q221 451 191 415T161 315Q161 252 191 215T271 177Q320 177 350 214Z" />
<glyph unicode="&#xa5;" glyph-name="yen" horiz-adv-x="563" d="M244 0V145H97V185H244V269L238 280H97V320H215L29 650H114L293 330L471 650H532L346 320H457V280H323L320 274V185H457V145H320V0H244Z" />
<glyph unicode="&#xa6;" glyph-name="brokenbar" horiz-adv-x="292" d="M121 350V750H171V350H121ZM121 -250V150H171V-250H121Z" />
<glyph unicode="&#xa7;" glyph-name="section" horiz-adv-x="486" d="M176 -89T143 -78T91 -55T73 -40L90 0Q90 -2 106 -13T149 -35T214 -45Q278 -45 306 -19T334 48Q334 77 319 96T280 126T217 153Q168 171 139 187T88 232T67 308Q67 390 131 429Q101 461 101
510Q101 574 145 616T274 659Q307 659 337 649T388 626T409 612L401 572Q397 575 380 585T337 605T284 615Q225 615 199 586T172 518Q172 488 188 468T229 436T295 409Q344 392 374 376T426 332T447 258Q447 177 377 134Q405 101 405 55Q405 -8 359 -48T223 -89Q176
-89 143 -78ZM396 187T396 246Q396 276 378 296T334 329T262 359Q194 382 160 404Q118 380 118 322Q118 289 135 268T179 234T250 204Q283 193 306 183T349 159Q396 187 396 246Z" />
<glyph unicode="&#xa8;" glyph-name="dieresis" horiz-adv-x="375" d="M62 605T49 615Q38 626 38 644Q38 663 49 674Q62 684 76 684Q89 684 102 674Q113 661 113 644Q113 628 102 615Q89 605 76 605Q62 605 49 615ZM216 605T203 615Q192 626 192 644Q192 663 203
674Q216 684 229 684Q242 684 255 674Q267 662 267 644Q267 627 255 615Q242 605 229 605Q216 605 203 615Z" />
<glyph unicode="&#xa9;" glyph-name="copyright" horiz-adv-x="729" d="M272 -14T207 27T108 143T73 323Q73 427 108 503T208 621T363 663Q453 663 519 622T619 504T654 323Q654 219 620 143T520 27T363 -14Q272 -14 207 27ZM480 22T547 101T615 322Q615 417 585
485T497 590T362 627Q285 627 229 591T143 486T113 322Q113 180 179 101T362 22Q480 22 547 101ZM330 140T295 161T240 222T219 317Q219 401 262 449T377 497Q403 497 424 489T457 473T472 462L462 431Q459 434 449 441T421 456T382 463Q330 463 301 426T272 317Q272
248 302 212T383 175Q411 175 430 186T460 211T470 227L489 206Q489 202 477 186T440 155T373 140Q330 140 295 161Z" />
<glyph unicode="&#xaa;" glyph-name="ordfeminine" horiz-adv-x="389" d="M93 310T63 336T33 411Q33 524 258 540V557Q258 603 239 624T177 646Q149 646 127 637T91 617T77 605L61 629Q61 631 75 644T118 668T188 680Q257 680 290 649T323 552V320H272L259 373Q252
352 227 331T150 310Q93 310 63 336ZM216 347T233 366T258 407V511Q184 504 141 484T97 417Q97 347 176 347Q216 347 233 366Z" />
<glyph unicode="&#xab;" glyph-name="guillemotleft" horiz-adv-x="484" d="M237 74L83 250L238 421L260 395L152 249L260 101L237 74ZM399 74L245 250L400 421L422 395L314 249L422 101L399 74Z" />
<glyph unicode="&#xac;" glyph-name="logicalnot" horiz-adv-x="447" d="M349 128V295H53V341H392V128H349Z" />
<glyph unicode="&#xad;" glyph-name="uni00AD" horiz-adv-x="310" d="M40 254V301H269V254H40Z" />
<glyph unicode="&#xae;" glyph-name="registered" horiz-adv-x="617" d="M228 150T170 187T82 293T52 453Q52 544 83 613T172 719T308 757Q386 757 444 720T533 613T565 453Q565 361 535 293T446 188T308 150Q228 150 170 187ZM410 186T468 257T526 452Q526 577
468 650T308 723Q206 723 149 650T91 452Q91 327 148 257T308 186Q410 186 468 257ZM226 611H309Q422 611 422 521Q422 484 404 461T353 428L419 294H376L313 422H265V294H226V611ZM309 447Q341 447 360 464T379 521Q379 554 362 569T309 584H265V447H309Z" />
<glyph unicode="&#xaf;" glyph-name="overscore" horiz-adv-x="395" d="M104 636V672H290V636H104Z" />
<glyph unicode="&#xb0;" glyph-name="degree" horiz-adv-x="409" d="M130 385T89 436T48 573Q48 659 90 710T205 762Q277 762 319 710T362 573Q362 487 320 436T205 385Q130 385 89 436ZM251 427T276 465T302 574Q302 645 277 682T205 720Q158 720 133 683T108
574Q108 503 133 465T204 427Q251 427 276 465Z" />
<glyph unicode="&#xb1;" glyph-name="plusminus" horiz-adv-x="470" d="M215 328V502H66V549H215V723H259V549H405V502H259V328H215ZM34 151V198H436V151H34Z" />
<glyph unicode="&#xb2;" glyph-name="uni00B2" horiz-adv-x="377" d="M41 285Q60 292 112 346T207 471T250 604Q250 661 229 688T158 715Q139 715 117 706T80 686T60 673L52 712Q57 716 74 727T119 748T175 758Q249 758 285 718T322 609Q322 527 258 444T111 293H333V230H41V285Z"
/>
<glyph unicode="&#xb3;" glyph-name="uni00B3" horiz-adv-x="376" d="M125 221T97 231T55 254T40 268L59 303Q61 300 72 291T106 273T157 264Q207 264 235 295T264 382Q264 434 244 461T186 489Q162 489 144 471L143 470L119 497L254 687H64L68 750H315V707L183
526L199 527Q257 527 294 487T331 380Q331 305 284 263T166 221Q125 221 97 231Z" />
<glyph unicode="&#xb4;" glyph-name="acute" horiz-adv-x="207" d="M94 571L56 576L133 721L196 706L94 571Z" />
<glyph unicode="&#xb5;" glyph-name="uni00B5" horiz-adv-x="518" d="M75 127Q74 135 74 151V500H147V166Q147 43 251 43Q287 43 313 54T354 79T370 94V500H443V0H382L372 48Q359 30 324 10T227 -10Q179 -10 144 8Q149 -135 149 -250H75V127Z" />
<glyph unicode="&#xb6;" glyph-name="paragraph" horiz-adv-x="597" d="M276 244Q163 244 106 292T48 450Q48 550 106 600T290 650H550V595H492V0H431V595H336V0H276V244Z" />
<glyph unicode="&#xb7;" glyph-name="middot" horiz-adv-x="243" d="M102 291T89 303Q75 316 75 337Q75 358 89 371Q102 383 120 383Q138 383 152 371Q165 358 165 337Q165 316 152 303Q138 291 120 291Q102 291 89 303Z" />
<glyph unicode="&#xb8;" glyph-name="cedilla" horiz-adv-x="234" d="M87 -251T67 -242T36 -222T25 -209L43 -189Q45 -192 52 -199T75 -214T110 -221Q176 -221 176 -153Q176 -123 155 -112T113 -97T92 -92L104 -3H132L125 -69Q125 -70 150 -76T198 -102T221 -155Q221
-200 195 -225T117 -251Q87 -251 67 -242Z" />
<glyph unicode="&#xb9;" glyph-name="uni00B9" horiz-adv-x="376" d="M176 230V690L87 632L70 674L188 750H242V230H176Z" />
<glyph unicode="&#xba;" glyph-name="ordmasculine" horiz-adv-x="419" d="M124 310T81 358T37 495Q37 583 80 631T209 680Q294 680 337 632T381 495Q381 408 337 359T209 310Q124 310 81 358ZM313 343T313 495Q313 570 288 607T209 645Q105 645 105 495Q105 343
209 343Q313 343 313 495Z" />
<glyph unicode="&#xbb;" glyph-name="guillemotright" horiz-adv-x="484" d="M84 74L61 100L169 245L62 394L85 421L238 244L84 74ZM246 74L223 100L331 245L224 394L247 421L400 244L246 74Z" />
<glyph unicode="&#xbc;" glyph-name="onequarter" horiz-adv-x="727" d="M176 230V690L87 632L70 674L188 750H242V230H176ZM254 0L219 20L522 582L557 561L254 0ZM557 -119H362L357 -84Q385 -22 414 77T465 278L528 270Q508 178 475 86T407 -77H557V86L573 194H625V-77H674V-113L625
-119V-250H557V-119Z" />
<glyph unicode="&#xbd;" glyph-name="onehalf" horiz-adv-x="786" d="M176 230V690L87 632L70 674L188 750H242V230H176ZM254 0L219 20L522 582L557 561L254 0ZM430 -195Q449 -188 501 -134T596 -9T639 124Q639 181 618 207T546 234Q527 234 506 225T469 206T449
193L440 232Q445 236 463 247T508 268T564 278Q638 278 674 237T711 129Q711 46 647 -37T501 -187H721V-250H430V-195Z" />
<glyph unicode="&#xbe;" glyph-name="threequarters" horiz-adv-x="775" d="M126 221T98 231T56 254T41 268L60 303Q62 300 73 291T107 273T158 264Q208 264 236 295T265 382Q265 434 245 461T187 489Q163 489 145 471L144 470L120 497L255 687H65L69 750H316V707L184
526L200 527Q258 527 295 487T332 380Q332 305 285 263T167 221Q126 221 98 231ZM301 0L266 20L569 582L604 561L301 0ZM605 -119H410L405 -84Q433 -22 462 77T513 278L576 270Q556 178 523 86T455 -77H605V86L621 194H673V-77H722V-113L673 -119V-250H605V-119Z"
/>
<glyph unicode="&#xbf;" glyph-name="questiondown" horiz-adv-x="411" d="M246 416T233 428Q219 441 219 462Q219 483 233 496Q246 508 264 508Q283 508 296 496Q309 483 309 462Q309 441 296 428Q283 416 264 416Q246 416 233 428ZM131 -260T84 -211T37 -93Q37
-46 51 -14T87 39T144 85Q180 112 201 131T236 183T251 264L250 285L284 288Q289 253 289 233Q289 191 278 161T249 113T203 71Q175 48 159 31T131 -15T119 -83Q119 -144 146 -179T242 -214Q267 -214 288 -209T322 -199T337 -192L355 -233Q352 -235 338 -241T297
-254T235 -260Q131 -260 84 -211Z" />
<glyph unicode="&#xc0;" glyph-name="Agrave" horiz-adv-x="568" d="M280 708L175 843L237 859L320 716L280 708ZM23 0L242 650H331L546 0H467L399 200H144L76 0H23ZM158 241H386L273 592L158 241Z" />
<glyph unicode="&#xc1;" glyph-name="Aacute" horiz-adv-x="568" d="M293 706L255 711L332 856L395 841L293 706ZM23 0L242 650H331L546 0H467L399 200H144L76 0H23ZM158 241H386L273 592L158 241Z" />
<glyph unicode="&#xc2;" glyph-name="Acircumflex" horiz-adv-x="568" d="M174 732L155 764L265 878H304L412 764L394 732L284 829L174 732ZM23 0L242 650H331L546 0H467L399 200H144L76 0H23ZM158 241H386L273 592L158 241Z" />
<glyph unicode="&#xc3;" glyph-name="Atilde" horiz-adv-x="568" d="M347 730T329 736T287 754Q263 765 247 770T213 776Q196 776 183 768T162 750T153 737L130 762Q130 764 142 780T175 811T226 825Q248 825 266 819T310 800Q332 789 347 784T378 779Q394 779
405 785T422 797T429 806L452 781Q452 779 442 766T414 742T367 730Q347 730 329 736ZM23 0L242 650H331L546 0H467L399 200H144L76 0H23ZM158 241H386L273 592L158 241Z" />
<glyph unicode="&#xc4;" glyph-name="Adieresis" horiz-adv-x="568" d="M196 740T183 750Q172 761 172 779Q172 798 183 809Q196 819 210 819Q223 819 236 809Q247 796 247 779Q247 763 236 750Q223 740 210 740Q196 740 183 750ZM350 740T337 750Q326 761 326
779Q326 798 337 809Q350 819 363 819Q376 819 389 809Q401 797 401 779Q401 762 389 750Q376 740 363 740Q350 740 337 750ZM23 0L242 650H331L546 0H467L399 200H144L76 0H23ZM158 241H386L273 592L158 241Z" />
<glyph unicode="&#xc5;" glyph-name="Aring" horiz-adv-x="568" d="M244 686T220 710T195 779Q195 823 220 848T284 873Q322 873 347 848T373 779Q373 734 349 710T284 686Q244 686 220 710ZM311 712T327 728T344 779Q344 813 328 829T284 846Q257 846 240 829T223
779Q223 745 240 729T284 712Q311 712 327 728ZM23 0L242 650H331L546 0H467L399 200H144L76 0H23ZM158 241H386L273 592L158 241Z" />
<glyph unicode="&#xc6;" glyph-name="AE" horiz-adv-x="789" d="M-12 0L359 650H732V602H457V352H708V306H457V48H753V0H381V205H161L45 0H-12ZM183 246H381V602H377L183 246Z" />
<glyph unicode="&#xc7;" glyph-name="Ccedilla" horiz-adv-x="570" d="M290 -251T270 -242T239 -222T228 -209L246 -189Q248 -192 255 -199T278 -214T313 -221Q379 -221 379 -153Q379 -123 358 -112T316 -97T295 -92L306 -9Q183 0 116 86T48 319Q48 422 82 499T180
617T328 659Q374 659 416 647T489 620T519 604L510 556Q510 557 481 571T414 597T336 609Q239 609 184 536T129 321Q129 182 185 111T342 40Q395 40 435 62T498 109T522 138L550 106Q550 101 524 72T450 16T334 -10L328 -69Q328 -70 353 -76T401 -102T424 -155Q424
-200 398 -225T320 -251Q290 -251 270 -242Z" />
<glyph unicode="&#xc8;" glyph-name="Egrave" horiz-adv-x="507" d="M273 708L168 843L230 859L313 716L273 708ZM94 0V650H444V602H170V352H421V306H170V48H466V0H94Z" />
<glyph unicode="&#xc9;" glyph-name="Eacute" horiz-adv-x="507" d="M286 706L248 711L325 856L388 841L286 706ZM94 0V650H444V602H170V352H421V306H170V48H466V0H94Z" />
<glyph unicode="&#xca;" glyph-name="Ecircumflex" horiz-adv-x="507" d="M171 732L152 764L262 878H301L409 764L391 732L281 829L171 732ZM94 0V650H444V602H170V352H421V306H170V48H466V0H94Z" />
<glyph unicode="&#xcb;" glyph-name="Edieresis" horiz-adv-x="507" d="M177 740T164 750Q153 761 153 779Q153 798 164 809Q177 819 190 819Q204 819 217 809Q228 796 228 779Q228 763 217 750Q204 740 190 740Q177 740 164 750ZM331 740T318 750Q307 761 307
779Q307 798 318 809Q331 819 344 819Q357 819 370 809Q382 797 382 779Q382 762 370 750Q357 740 344 740Q331 740 318 750ZM94 0V650H444V602H170V352H421V306H170V48H466V0H94Z" />
<glyph unicode="&#xcc;" glyph-name="Igrave" horiz-adv-x="265" d="M124 708L19 843L81 859L164 716L124 708ZM94 0V650H170V0H94Z" />
<glyph unicode="&#xcd;" glyph-name="Iacute" horiz-adv-x="265" d="M137 706L99 711L176 856L239 841L137 706ZM94 0V650H170V0H94Z" />
<glyph unicode="&#xce;" glyph-name="Icircumflex" horiz-adv-x="265" d="M21 732L2 764L112 878H151L259 764L241 732L131 829L21 732ZM94 0V650H170V0H94Z" />
<glyph unicode="&#xcf;" glyph-name="Idieresis" horiz-adv-x="265" d="M40 740T27 750Q16 761 16 779Q16 798 27 809Q40 819 54 819Q67 819 80 809Q91 796 91 779Q91 763 80 750Q67 740 54 740Q40 740 27 750ZM194 740T181 750Q170 761 170 779Q170 798 181 809Q194
819 207 819Q220 819 233 809Q245 797 245 779Q245 762 233 750Q220 740 207 740Q194 740 181 750ZM94 0V650H170V0H94Z" />
<glyph unicode="&#xd0;" glyph-name="Eth" horiz-adv-x="638" d="M94 302H25V344H94V650H292Q432 650 509 566T587 323Q587 166 511 83T292 0H94V302ZM293 48Q505 48 505 323Q505 602 292 602H170V344H359V302H170V48H293Z" />
<glyph unicode="&#xd1;" glyph-name="Ntilde" horiz-adv-x="651" d="M390 730T372 736T330 754Q306 765 290 770T256 776Q239 776 226 768T205 750T196 737L173 762Q173 764 185 780T218 811T269 825Q291 825 309 819T353 800Q375 789 390 784T421 779Q437 779
448 785T465 797T472 806L495 781Q495 779 485 766T457 742T410 730Q390 730 372 736ZM94 0V650H173L505 114L502 138V650H557V0H491L145 554H144L149 523V0H94Z" />
<glyph unicode="&#xd2;" glyph-name="Ograve" horiz-adv-x="654" d="M318 708L213 843L275 859L358 716L318 708ZM239 -10T177 30T81 145T48 324Q48 427 81 502T176 618T326 659Q413 659 476 619T572 503T606 324Q606 221 573 146T476 30T326 -10Q239 -10 177
30ZM422 38T473 111T525 324Q525 463 474 537T326 611Q231 611 180 537T129 324Q129 184 179 111T326 38Q422 38 473 111Z" />
<glyph unicode="&#xd3;" glyph-name="Oacute" horiz-adv-x="654" d="M331 706L293 711L370 856L433 841L331 706ZM239 -10T177 30T81 145T48 324Q48 427 81 502T176 618T326 659Q413 659 476 619T572 503T606 324Q606 221 573 146T476 30T326 -10Q239 -10 177
30ZM422 38T473 111T525 324Q525 463 474 537T326 611Q231 611 180 537T129 324Q129 184 179 111T326 38Q422 38 473 111Z" />
<glyph unicode="&#xd4;" glyph-name="Ocircumflex" horiz-adv-x="654" d="M216 732L197 764L307 878H346L454 764L436 732L326 829L216 732ZM239 -10T177 30T81 145T48 324Q48 427 81 502T176 618T326 659Q413 659 476 619T572 503T606 324Q606 221 573 146T476
30T326 -10Q239 -10 177 30ZM422 38T473 111T525 324Q525 463 474 537T326 611Q231 611 180 537T129 324Q129 184 179 111T326 38Q422 38 473 111Z" />
<glyph unicode="&#xd5;" glyph-name="Otilde" horiz-adv-x="654" d="M385 730T367 736T325 754Q301 765 285 770T251 776Q234 776 221 768T200 750T191 737L168 762Q168 764 180 780T213 811T264 825Q286 825 304 819T348 800Q370 789 385 784T416 779Q432 779
443 785T460 797T467 806L490 781Q490 779 480 766T452 742T405 730Q385 730 367 736ZM239 -10T177 30T81 145T48 324Q48 427 81 502T176 618T326 659Q413 659 476 619T572 503T606 324Q606 221 573 146T476 30T326 -10Q239 -10 177 30ZM422 38T473 111T525 324Q525
463 474 537T326 611Q231 611 180 537T129 324Q129 184 179 111T326 38Q422 38 473 111Z" />
<glyph unicode="&#xd6;" glyph-name="Odieresis" horiz-adv-x="654" d="M234 740T221 750Q210 761 210 779Q210 798 221 809Q234 819 248 819Q261 819 274 809Q285 796 285 779Q285 763 274 750Q261 740 248 740Q234 740 221 750ZM388 740T375 750Q364 761 364
779Q364 798 375 809Q388 819 401 819Q414 819 427 809Q439 797 439 779Q439 762 427 750Q414 740 401 740Q388 740 375 750ZM239 -10T177 30T81 145T48 324Q48 427 81 502T176 618T326 659Q413 659 476 619T572 503T606 324Q606 221 573 146T476 30T326 -10Q239
-10 177 30ZM422 38T473 111T525 324Q525 463 474 537T326 611Q231 611 180 537T129 324Q129 184 179 111T326 38Q422 38 473 111Z" />
<glyph unicode="&#xd7;" glyph-name="multiply" horiz-adv-x="353" d="M72 161L41 198L145 320L40 442L71 480L176 357L282 480L313 442L208 320L313 198L282 161L177 283L72 161Z" />
<glyph unicode="&#xd8;" glyph-name="Oslash" horiz-adv-x="654" d="M157 -95L201 16Q127 52 88 131T48 324Q48 427 81 502T176 618T326 659Q393 659 448 633L486 728L514 722L473 620Q537 580 571 504T606 324Q606 221 573 146T476 30T326 -10Q274 -10 226 6L183
-101L157 -95ZM427 582Q384 611 326 611Q231 611 180 537T129 324Q129 229 152 165T222 68L427 582ZM422 38T473 111T525 324Q525 492 450 564L245 54Q280 38 326 38Q422 38 473 111Z" />
<glyph unicode="&#xd9;" glyph-name="Ugrave" horiz-adv-x="620" d="M318 708L213 843L275 859L358 716L318 708ZM201 -10T144 50T86 212V650H161V229Q161 138 201 90T318 41Q398 41 438 90T479 229V650H534V212Q534 110 478 50T310 -10Q201 -10 144 50Z" />
<glyph unicode="&#xda;" glyph-name="Uacute" horiz-adv-x="620" d="M312 706L274 711L351 856L414 841L312 706ZM201 -10T144 50T86 212V650H161V229Q161 138 201 90T318 41Q398 41 438 90T479 229V650H534V212Q534 110 478 50T310 -10Q201 -10 144 50Z" />
<glyph unicode="&#xdb;" glyph-name="Ucircumflex" horiz-adv-x="620" d="M210 732L191 764L301 878H340L448 764L430 732L320 829L210 732ZM201 -10T144 50T86 212V650H161V229Q161 138 201 90T318 41Q398 41 438 90T479 229V650H534V212Q534 110 478 50T310
-10Q201 -10 144 50Z" />
<glyph unicode="&#xdc;" glyph-name="Udieresis" horiz-adv-x="620" d="M229 740T216 750Q205 761 205 779Q205 798 216 809Q229 819 242 819Q256 819 269 809Q280 796 280 779Q280 763 269 750Q256 740 242 740Q229 740 216 750ZM383 740T370 750Q359 761 359
779Q359 798 370 809Q383 819 396 819Q409 819 422 809Q434 797 434 779Q434 762 422 750Q409 740 396 740Q383 740 370 750ZM201 -10T144 50T86 212V650H161V229Q161 138 201 90T318 41Q398 41 438 90T479 229V650H534V212Q534 110 478 50T310 -10Q201 -10 144
50Z" />
<glyph unicode="&#xdd;" glyph-name="Yacute" horiz-adv-x="507" d="M275 706L237 711L314 856L377 841L275 706ZM217 0V269L2 650H87L266 330L444 650H505L293 274V0H217Z" />
<glyph unicode="&#xde;" glyph-name="Thorn" horiz-adv-x="514" d="M106 650H181V541H262Q362 541 417 489T473 331Q473 253 443 203T365 131T263 109H181V0H106V650ZM257 154Q321 154 358 193T396 328Q396 415 361 455T257 495H181V154H257Z" />
<glyph unicode="&#xdf;" glyph-name="germandbls" horiz-adv-x="530" d="M263 -10T239 -4T203 8T191 16L201 58Q203 56 211 51T238 41T283 36Q348 36 382 84T416 237Q416 316 398 362T339 430T232 452V500Q232 497 265 506T324 540T350 612Q350 662 325 688T253
714Q199 714 173 673T147 547V0H75V547Q75 653 122 706T257 759Q334 759 378 722T422 619Q422 567 394 535T323 485Q494 448 494 238Q494 111 444 51T301 -10Q263 -10 239 -4Z" />
<glyph unicode="&#xe0;" glyph-name="agrave" horiz-adv-x="477" d="M226 573L121 708L183 724L266 581L226 573ZM112 -10T72 22T32 113Q32 260 315 290V343Q315 414 292 440T211 466Q185 466 158 457T113 437T89 423L81 464Q86 468 106 479T158 500T222 510Q308
510 348 474T388 347V102Q388 62 395 48T414 34Q423 34 436 37T453 43L456 9Q448 6 422 -2T378 -10Q352 -10 338 6T321 65H320Q320 61 304 42T257 7T178 -10Q112 -10 72 22ZM236 34T262 50T301 85T315 107V253Q224 243 166 214T107 122Q107 79 132 57T200 34Q236
34 262 50Z" />
<glyph unicode="&#xe1;" glyph-name="aacute" horiz-adv-x="477" d="M238 571L200 576L277 721L340 706L238 571ZM112 -10T72 22T32 113Q32 260 315 290V343Q315 414 292 440T211 466Q185 466 158 457T113 437T89 423L81 464Q86 468 106 479T158 500T222 510Q308
510 348 474T388 347V102Q388 62 395 48T414 34Q423 34 436 37T453 43L456 9Q448 6 422 -2T378 -10Q352 -10 338 6T321 65H320Q320 61 304 42T257 7T178 -10Q112 -10 72 22ZM236 34T262 50T301 85T315 107V253Q224 243 166 214T107 122Q107 79 132 57T200 34Q236
34 262 50Z" />
<glyph unicode="&#xe2;" glyph-name="acircumflex" horiz-adv-x="477" d="M123 597L104 629L214 743H253L361 629L343 597L233 694L123 597ZM112 -10T72 22T32 113Q32 260 315 290V343Q315 414 292 440T211 466Q185 466 158 457T113 437T89 423L81 464Q86 468
106 479T158 500T222 510Q308 510 348 474T388 347V102Q388 62 395 48T414 34Q423 34 436 37T453 43L456 9Q448 6 422 -2T378 -10Q352 -10 338 6T321 65H320Q320 61 304 42T257 7T178 -10Q112 -10 72 22ZM236 34T262 50T301 85T315 107V253Q224 243 166 214T107
122Q107 79 132 57T200 34Q236 34 262 50Z" />
<glyph unicode="&#xe3;" glyph-name="atilde" horiz-adv-x="477" d="M293 595T275 601T233 619Q209 630 193 635T159 641Q142 641 129 633T108 615T99 602L76 627Q76 629 88 645T121 676T172 690Q194 690 212 684T256 665Q278 654 293 649T324 644Q340 644 351
650T368 662T375 671L398 646Q398 644 388 631T360 607T313 595Q293 595 275 601ZM112 -10T72 22T32 113Q32 260 315 290V343Q315 414 292 440T211 466Q185 466 158 457T113 437T89 423L81 464Q86 468 106 479T158 500T222 510Q308 510 348 474T388 347V102Q388
62 395 48T414 34Q423 34 436 37T453 43L456 9Q448 6 422 -2T378 -10Q352 -10 338 6T321 65H320Q320 61 304 42T257 7T178 -10Q112 -10 72 22ZM236 34T262 50T301 85T315 107V253Q224 243 166 214T107 122Q107 79 132 57T200 34Q236 34 262 50Z" />
<glyph unicode="&#xe4;" glyph-name="adieresis" horiz-adv-x="477" d="M141 605T128 615Q117 626 117 644Q117 663 128 674Q141 684 154 684Q168 684 181 674Q192 661 192 644Q192 628 181 615Q168 605 154 605Q141 605 128 615ZM295 605T282 615Q271 626 271
644Q271 663 282 674Q295 684 308 684Q321 684 334 674Q346 662 346 644Q346 627 334 615Q321 605 308 605Q295 605 282 615ZM112 -10T72 22T32 113Q32 260 315 290V343Q315 414 292 440T211 466Q185 466 158 457T113 437T89 423L81 464Q86 468 106 479T158 500T222
510Q308 510 348 474T388 347V102Q388 62 395 48T414 34Q423 34 436 37T453 43L456 9Q448 6 422 -2T378 -10Q352 -10 338 6T321 65H320Q320 61 304 42T257 7T178 -10Q112 -10 72 22ZM236 34T262 50T301 85T315 107V253Q224 243 166 214T107 122Q107 79 132 57T200
34Q236 34 262 50Z" />
<glyph unicode="&#xe5;" glyph-name="aring" horiz-adv-x="477" d="M193 551T169 575T144 644Q144 688 169 713T233 738Q271 738 296 713T322 644Q322 599 298 575T233 551Q193 551 169 575ZM260 577T276 593T293 644Q293 678 277 694T233 711Q206 711 189 694T172
644Q172 610 189 594T233 577Q260 577 276 593ZM112 -10T72 22T32 113Q32 260 315 290V343Q315 414 292 440T211 466Q185 466 158 457T113 437T89 423L81 464Q86 468 106 479T158 500T222 510Q308 510 348 474T388 347V102Q388 62 395 48T414 34Q423 34 436 37T453
43L456 9Q448 6 422 -2T378 -10Q352 -10 338 6T321 65H320Q320 61 304 42T257 7T178 -10Q112 -10 72 22ZM236 34T262 50T301 85T315 107V253Q224 243 166 214T107 122Q107 79 132 57T200 34Q236 34 262 50Z" />
<glyph unicode="&#xe6;" glyph-name="ae" horiz-adv-x="727" d="M113 -10T73 23T32 114Q32 264 311 291V331Q311 382 303 411T275 453T218 466Q192 466 165 457T120 437T97 423L88 464Q93 468 113 479T165 500T230 510Q285 510 315 491T358 428Q384 468 424 489T516
510Q602 510 648 451T695 282Q695 263 693 251T690 236H387Q387 34 533 34Q573 34 601 48T646 79T662 99L691 75Q691 71 672 50T616 9T525 -10Q454 -10 404 21T331 115Q315 62 279 26T178 -10Q113 -10 73 23ZM627 278L628 297Q628 467 516 467Q457 467 425 421T388
278H627ZM259 34T283 85T313 199Q311 225 311 240V255Q221 245 164 216T107 123Q107 80 132 57T200 34Q259 34 283 85Z" />
<glyph unicode="&#xe7;" glyph-name="ccedilla" horiz-adv-x="423" d="M216 -251T196 -242T165 -222T154 -209L172 -189Q174 -192 181 -199T204 -214T239 -221Q305 -221 305 -153Q305 -123 284 -112T242 -97T221 -92L232 -9Q138 -3 88 60T37 245Q37 373 92 441T255
510Q290 510 321 501T373 480T395 467L386 426Q382 429 365 438T320 457T263 466Q186 466 150 415T114 246Q114 132 152 83T259 34Q298 34 325 48T368 77T383 96L415 75Q415 71 398 51T346 11T260 -10L254 -69Q254 -70 279 -76T327 -102T350 -155Q350 -200 324
-225T246 -251Q216 -251 196 -242Z" />
<glyph unicode="&#xe8;" glyph-name="egrave" horiz-adv-x="453" d="M235 573L130 708L192 724L275 581L235 573ZM151 -10T94 52T37 240Q37 366 92 438T242 510Q328 510 374 451T421 282Q421 263 419 251T416 236H113Q113 34 259 34Q299 34 327 48T372 79T388
99L417 75Q417 71 398 50T342 9T251 -10Q151 -10 94 52ZM353 278L354 297Q354 467 242 467Q183 467 151 421T114 278H353Z" />
<glyph unicode="&#xe9;" glyph-name="eacute" horiz-adv-x="453" d="M248 571L210 576L287 721L350 706L248 571ZM151 -10T94 52T37 240Q37 366 92 438T242 510Q328 510 374 451T421 282Q421 263 419 251T416 236H113Q113 34 259 34Q299 34 327 48T372 79T388
99L417 75Q417 71 398 50T342 9T251 -10Q151 -10 94 52ZM353 278L354 297Q354 467 242 467Q183 467 151 421T114 278H353Z" />
<glyph unicode="&#xea;" glyph-name="ecircumflex" horiz-adv-x="453" d="M132 597L113 629L223 743H262L370 629L352 597L242 694L132 597ZM151 -10T94 52T37 240Q37 366 92 438T242 510Q328 510 374 451T421 282Q421 263 419 251T416 236H113Q113 34 259 34Q299
34 327 48T372 79T388 99L417 75Q417 71 398 50T342 9T251 -10Q151 -10 94 52ZM353 278L354 297Q354 467 242 467Q183 467 151 421T114 278H353Z" />
<glyph unicode="&#xeb;" glyph-name="edieresis" horiz-adv-x="453" d="M151 605T138 615Q127 626 127 644Q127 663 138 674Q151 684 164 684Q178 684 191 674Q202 661 202 644Q202 628 191 615Q178 605 164 605Q151 605 138 615ZM305 605T292 615Q281 626 281
644Q281 663 292 674Q305 684 318 684Q331 684 344 674Q356 662 356 644Q356 627 344 615Q331 605 318 605Q305 605 292 615ZM151 -10T94 52T37 240Q37 366 92 438T242 510Q328 510 374 451T421 282Q421 263 419 251T416 236H113Q113 34 259 34Q299 34 327 48T372
79T388 99L417 75Q417 71 398 50T342 9T251 -10Q151 -10 94 52ZM353 278L354 297Q354 467 242 467Q183 467 151 421T114 278H353Z" />
<glyph unicode="&#xec;" glyph-name="igrave" horiz-adv-x="222" d="M102 573L-3 708L59 724L142 581L102 573ZM74 0V500H147V0H74Z" />
<glyph unicode="&#xed;" glyph-name="iacute" horiz-adv-x="222" d="M115 571L77 576L154 721L217 706L115 571ZM74 0V500H147V0H74Z" />
<glyph unicode="&#xee;" glyph-name="icircumflex" horiz-adv-x="222" d="M1 597L-18 629L92 743H131L239 629L221 597L111 694L1 597ZM74 0V500H147V0H74Z" />
<glyph unicode="&#xef;" glyph-name="idieresis" horiz-adv-x="222" d="M20 605T7 615Q-4 626 -4 644Q-4 663 7 674Q20 684 34 684Q47 684 60 674Q71 661 71 644Q71 628 60 615Q47 605 34 605Q20 605 7 615ZM174 605T161 615Q150 626 150 644Q150 663 161 674Q174
684 187 684Q200 684 213 674Q225 662 225 644Q225 627 213 615Q200 605 187 605Q174 605 161 615ZM74 0V500H147V0H74Z" />
<glyph unicode="&#xf0;" glyph-name="eth" horiz-adv-x="508" d="M149 -10T94 58T38 250Q38 373 91 441T243 510Q284 510 320 493T385 444Q362 571 294 650L186 588L174 614L274 671Q249 696 216 718L254 740Q287 722 317 695L400 743L412 717L338 675Q464 541
464 262Q464 130 410 60T250 -10Q149 -10 94 58ZM320 33T353 87T386 250Q386 353 353 410T250 467Q180 467 147 413T114 250Q114 141 147 87T250 33Q320 33 353 87Z" />
<glyph unicode="&#xf1;" glyph-name="ntilde" horiz-adv-x="512" d="M302 595T284 601T242 619Q218 630 202 635T168 641Q151 641 138 633T117 615T108 602L85 627Q85 629 97 645T130 676T181 690Q203 690 221 684T265 665Q287 654 302 649T333 644Q349 644 360
650T377 662T384 671L407 646Q407 644 397 631T369 607T322 595Q302 595 284 601ZM75 500H135L144 452Q160 471 194 490T292 510Q364 510 404 470T444 349V0H371V334Q371 398 345 427T268 457Q232 457 205 446T163 422T147 407V0H75V500Z" />
<glyph unicode="&#xf2;" glyph-name="ograve" horiz-adv-x="501" d="M237 573L132 708L194 724L277 581L237 573ZM146 -10T92 58T37 250Q37 374 91 442T250 510Q354 510 408 442T463 250Q463 127 408 59T250 -10Q146 -10 92 58ZM320 34T353 87T386 250Q386 358
353 412T250 466Q180 466 147 413T114 250Q114 141 147 88T250 34Q320 34 353 87Z" />
<glyph unicode="&#xf3;" glyph-name="oacute" horiz-adv-x="501" d="M250 571L212 576L289 721L352 706L250 571ZM146 -10T92 58T37 250Q37 374 91 442T250 510Q354 510 408 442T463 250Q463 127 408 59T250 -10Q146 -10 92 58ZM320 34T353 87T386 250Q386 358
353 412T250 466Q180 466 147 413T114 250Q114 141 147 88T250 34Q320 34 353 87Z" />
<glyph unicode="&#xf4;" glyph-name="ocircumflex" horiz-adv-x="501" d="M134 597L115 629L225 743H264L372 629L354 597L244 694L134 597ZM146 -10T92 58T37 250Q37 374 91 442T250 510Q354 510 408 442T463 250Q463 127 408 59T250 -10Q146 -10 92 58ZM320
34T353 87T386 250Q386 358 353 412T250 466Q180 466 147 413T114 250Q114 141 147 88T250 34Q320 34 353 87Z" />
<glyph unicode="&#xf5;" glyph-name="otilde" horiz-adv-x="501" d="M304 595T286 601T244 619Q220 630 204 635T170 641Q153 641 140 633T119 615T110 602L87 627Q87 629 99 645T132 676T183 690Q205 690 223 684T267 665Q289 654 304 649T335 644Q351 644 362
650T379 662T386 671L409 646Q409 644 399 631T371 607T324 595Q304 595 286 601ZM146 -10T92 58T37 250Q37 374 91 442T250 510Q354 510 408 442T463 250Q463 127 408 59T250 -10Q146 -10 92 58ZM320 34T353 87T386 250Q386 358 353 412T250 466Q180 466 147 413T114
250Q114 141 147 88T250 34Q320 34 353 87Z" />
<glyph unicode="&#xf6;" glyph-name="odieresis" horiz-adv-x="501" d="M153 605T140 615Q129 626 129 644Q129 663 140 674Q153 684 166 684Q180 684 193 674Q204 661 204 644Q204 628 193 615Q180 605 166 605Q153 605 140 615ZM307 605T294 615Q283 626 283
644Q283 663 294 674Q307 684 320 684Q333 684 346 674Q358 662 358 644Q358 627 346 615Q333 605 320 605Q307 605 294 615ZM146 -10T92 58T37 250Q37 374 91 442T250 510Q354 510 408 442T463 250Q463 127 408 59T250 -10Q146 -10 92 58ZM320 34T353 87T386 250Q386
358 353 412T250 466Q180 466 147 413T114 250Q114 141 147 88T250 34Q320 34 353 87Z" />
<glyph unicode="&#xf7;" glyph-name="divide" horiz-adv-x="469" d="M217 395T204 407Q190 420 190 441Q190 462 204 475Q218 487 235 487Q253 487 267 475Q280 462 280 441Q280 420 267 407Q254 395 235 395Q217 395 204 407ZM34 230V277H436V230H34ZM216 20T202
32Q188 45 188 66Q188 87 202 100Q216 112 233 112Q252 112 265 100Q278 87 278 66Q278 45 265 32Q252 20 233 20Q216 20 202 32Z" />
<glyph unicode="&#xf8;" glyph-name="oslash" horiz-adv-x="510" d="M76 -173L147 13Q93 41 65 101T37 250Q37 374 91 442T250 510Q296 510 333 496L393 650L430 644L366 479Q414 449 438 391T463 250Q463 127 408 59T250 -10Q213 -10 181 -1L112 -179L76 -173ZM315
449Q287 466 250 466Q180 466 147 413T114 250Q114 111 166 63L315 449ZM320 34T353 87T386 250Q386 372 345 423L198 43Q221 34 250 34Q320 34 353 87Z" />
<glyph unicode="&#xf9;" glyph-name="ugrave" horiz-adv-x="512" d="M245 573L140 708L202 724L285 581L245 573ZM148 -10T108 30T68 151V500H141V166Q141 43 245 43Q281 43 307 54T348 79T364 94V500H437V0H376L366 48Q353 30 318 10T221 -10Q148 -10 108 30Z" />
<glyph unicode="&#xfa;" glyph-name="uacute" horiz-adv-x="512" d="M258 571L220 576L297 721L360 706L258 571ZM148 -10T108 30T68 151V500H141V166Q141 43 245 43Q281 43 307 54T348 79T364 94V500H437V0H376L366 48Q353 30 318 10T221 -10Q148 -10 108 30Z" />
<glyph unicode="&#xfb;" glyph-name="ucircumflex" horiz-adv-x="512" d="M143 597L124 629L234 743H273L381 629L363 597L253 694L143 597ZM148 -10T108 30T68 151V500H141V166Q141 43 245 43Q281 43 307 54T348 79T364 94V500H437V0H376L366 48Q353 30 318 10T221
-10Q148 -10 108 30Z" />
<glyph unicode="&#xfc;" glyph-name="udieresis" horiz-adv-x="512" d="M162 605T149 615Q138 626 138 644Q138 663 149 674Q162 684 176 684Q189 684 202 674Q213 661 213 644Q213 628 202 615Q189 605 176 605Q162 605 149 615ZM316 605T303 615Q292 626 292
644Q292 663 303 674Q316 684 329 684Q342 684 355 674Q367 662 367 644Q367 627 355 615Q342 605 329 605Q316 605 303 615ZM148 -10T108 30T68 151V500H141V166Q141 43 245 43Q281 43 307 54T348 79T364 94V500H437V0H376L366 48Q353 30 318 10T221 -10Q148 -10
108 30Z" />
<glyph unicode="&#xfd;" glyph-name="yacute" horiz-adv-x="449" d="M242 571L204 576L281 721L344 706L242 571ZM58 -260T45 -257T25 -251T16 -247L24 -201Q27 -203 39 -206T65 -210Q111 -210 142 -161T211 -6L15 500H101L249 82L383 500H436L263 -8Q220 -131
179 -195T76 -260Q58 -260 45 -257Z" />
<glyph unicode="&#xfe;" glyph-name="thorn" horiz-adv-x="514" d="M73 500H74V748L147 752V443H148Q148 446 162 463T206 496T281 511Q370 511 424 446T478 264Q478 138 425 64T272 -11Q226 -11 195 2T146 32V-250L73 -252V500ZM330 37T365 93T401 262Q401 366
365 414T260 463Q210 463 183 437T147 391V82Q154 69 181 53T253 37Q330 37 365 93Z" />
<glyph unicode="&#xff;" glyph-name="ydieresis" horiz-adv-x="449" d="M145 605T132 615Q121 626 121 644Q121 663 132 674Q145 684 158 684Q172 684 185 674Q196 661 196 644Q196 628 185 615Q172 605 158 605Q145 605 132 615ZM299 605T286 615Q275 626 275
644Q275 663 286 674Q299 684 312 684Q325 684 338 674Q350 662 350 644Q350 627 338 615Q325 605 312 605Q299 605 286 615ZM58 -260T45 -257T25 -251T16 -247L24 -201Q27 -203 39 -206T65 -210Q111 -210 142 -161T211 -6L15 500H101L249 82L383 500H436L263 -8Q220
-131 179 -195T76 -260Q58 -260 45 -257Z" />
<glyph unicode="&#x2013;" glyph-name="endash" horiz-adv-x="470" d="M34 254V301H436V254H34Z" />
<glyph unicode="&#x2014;" glyph-name="emdash" horiz-adv-x="623" d="M34 254V301H590V254H34Z" />
<glyph unicode="&#x2018;" glyph-name="quoteleft" horiz-adv-x="141" d="M50 496T39 507Q39 507 35 511Q22 528 22 561Q22 609 47 667T111 757L132 735Q101 707 82 663T63 581V576H67Q82 576 94 567Q105 554 105 537Q105 520 94 507Q81 496 66 496Q50 496 39 507Z" />
<glyph unicode="&#x2019;" glyph-name="quoteright" horiz-adv-x="141" d="M1 515Q32 543 51 587T70 668V673H66Q50 673 40 683Q28 695 28 713Q28 731 40 743Q50 753 67 753Q84 753 95 743Q96 742 102 733Q111 715 111 688Q111 640 86 582T23 492L1 515Z" />
<glyph unicode="&#x201a;" glyph-name="quotesinglbase" horiz-adv-x="141" d="M1 -140Q32 -111 51 -68T70 13V18H66Q50 18 40 28Q28 40 28 58Q28 76 40 88Q50 98 67 98Q84 98 95 88Q96 87 102 78Q111 60 111 33Q111 -15 86 -73T23 -163L1 -140Z" />
<glyph unicode="&#x201c;" glyph-name="quotedblleft" horiz-adv-x="290" d="M50 496T39 507Q39 507 35 511Q22 528 22 561Q22 609 47 667T111 757L132 735Q101 707 82 663T63 581V576H67Q82 576 94 567Q105 554 105 537Q105 520 94 507Q81 496 66 496Q50 496
39 507ZM198 496T187 507Q187 507 183 511Q170 528 170 561Q170 609 195 667T259 757L280 735Q249 707 230 663T211 581V576H215Q230 576 242 567Q253 554 253 537Q253 520 242 507Q229 496 214 496Q198 496 187 507Z" />
<glyph unicode="&#x201d;" glyph-name="quotedblright" horiz-adv-x="290" d="M1 515Q32 543 51 587T70 668V673H66Q50 673 40 683Q28 695 28 713Q28 731 40 743Q50 753 67 753Q84 753 95 743Q96 742 102 733Q111 715 111 688Q111 640 86 582T23 492L1 515ZM149
515Q180 543 199 587T218 668V673H214Q198 673 188 683Q176 695 176 713Q176 731 188 743Q198 753 215 753Q232 753 243 743Q244 742 250 733Q259 715 259 688Q259 640 234 582T171 492L149 515Z" />
<glyph unicode="&#x201e;" glyph-name="quotedblbase" horiz-adv-x="290" d="M1 -140Q32 -111 51 -68T70 13V18H66Q50 18 40 28Q28 40 28 58Q28 76 40 88Q50 98 67 98Q84 98 95 88Q96 87 102 78Q111 60 111 33Q111 -15 86 -73T23 -163L1 -140ZM149 -140Q180 -111
199 -68T218 13V18H214Q198 18 188 28Q176 40 176 58Q176 76 188 88Q198 98 215 98Q232 98 243 88Q244 87 250 78Q259 60 259 33Q259 -15 234 -73T171 -163L149 -140Z" />
<glyph unicode="&#x2022;" glyph-name="bullet" horiz-adv-x="300" d="M112 243T91 263Q68 285 68 321Q68 358 91 380Q114 400 145 400Q176 400 199 380Q222 357 222 321Q222 286 199 263Q178 243 145 243Q112 243 91 263Z" />
<glyph unicode="&#x2039;" glyph-name="guilsinglleft" horiz-adv-x="323" d="M237 74L83 250L238 421L260 395L152 249L260 101L237 74Z" />
<glyph unicode="&#x203a;" glyph-name="guilsinglright" horiz-adv-x="323" d="M84 74L61 100L169 245L62 394L85 421L238 244L84 74Z" />
</font>
</defs>
</svg>
