<?xml version="1.0" standalone="no"?>
<!DOCTYPE svg PUBLIC "-//W3C//DTD SVG 1.1//EN" "http://www.w3.org/Graphics/SVG/1.1/DTD/svg11.dtd">
<svg xmlns="http://www.w3.org/2000/svg">
<defs >
<font id="Halant" horiz-adv-x="540" ><font-face
    font-family="Halant Medium"
    units-per-em="1000"
    panose-1="0 0 6 0 0 0 0 0 0 0"
    ascent="1089"
    descent="-486"
    alphabetic="0" />
<glyph unicode=" " glyph-name="space" horiz-adv-x="250" />
<glyph unicode="!" glyph-name="exclam" horiz-adv-x="458" d="M176 702L257 672L243 216H237L189 241L169 702H176ZM274 72T257 55T216 38T174 55T157 96T174 137T215 155T257 138T274 96Z" />
<glyph unicode="&quot;" glyph-name="quotedbl" horiz-adv-x="374" d="M69 825H160L137 633H92L69 825ZM205 825H295L273 633H228L205 825Z" />
<glyph unicode="#" glyph-name="numbersign" horiz-adv-x="730" d="M436 290L473 477H303L266 290H436ZM690 477H541L504 290H642V226H492L457 48H388L423 226H254L219 48H150L185 226H52V290H198L235 477H101V541H247L282 716H350L316 541H485L520 716H588L554
541H690V477Z" />
<glyph unicode="$" glyph-name="dollar" horiz-adv-x="498" d="M368 579T335 597T260 615T188 592T157 523Q157 471 222 442Q274 418 301 407T351 382T400 347Q449 306 449 232T402 111T285 58V-4H236V58Q138 68 41 145L90 217Q110 190 141 167Q200 122 255 122T342
148T373 219T347 286T247 341T143 396Q83 442 83 514T131 631T245 680V740H294V679Q371 668 430 617L386 556Q368 579 335 597Z" />
<glyph unicode="%" glyph-name="percent" horiz-adv-x="827" d="M267 48H179L563 686H649L267 48ZM141 524Q141 472 158 441T205 410T252 439T269 524Q269 632 205 632T141 524ZM76 596T109 643T205 690T302 643T335 525T303 405T207 357T110 407T76 526ZM566
207Q566 156 583 126T629 95T676 124T694 207Q694 317 629 317Q566 317 566 207ZM566 375T630 375T726 328T759 210T727 90T632 42T535 91T501 211T533 328Z" />
<glyph unicode="&amp;" glyph-name="ampersand" horiz-adv-x="681" d="M273 113Q346 113 403 173Q285 271 216 346Q171 314 147 288T123 228Q123 177 169 145T273 113ZM336 579T310 603T250 627Q184 627 184 563Q184 512 254 425Q336 488 336 546Q336 579 310
603ZM239 35Q163 35 102 82T41 198Q41 235 63 268T110 322T187 378Q110 472 110 532T161 637T270 682T371 648T414 568T383 485T282 393Q338 331 448 236Q478 287 517 395H667L645 321H532Q506 253 482 209Q548 155 634 93L570 43Q481 111 440 143Q358 35 239 35Z"
/>
<glyph unicode="&apos;" glyph-name="quotesingle" horiz-adv-x="335" d="M128 825H219L196 633H152L128 825Z" />
<glyph unicode="(" glyph-name="parenleft" horiz-adv-x="385" d="M286 773T238 651T189 400T237 144T386 -75L343 -111Q226 -12 165 119T103 400Q103 700 343 902L386 866Q286 773 238 651Z" />
<glyph unicode=")" glyph-name="parenright" horiz-adv-x="375" d="M283 400Q283 250 222 119T43 -111L-1 -75Q99 18 148 144T197 399T149 651T-1 866L43 902Q283 699 283 400Z" />
<glyph unicode="*" glyph-name="asterisk" horiz-adv-x="470" d="M171 719Q185 726 212 726T254 722L239 592L349 643Q357 633 364 606T372 563L249 549L342 461Q335 448 314 432T276 410L215 520L160 410Q145 413 123 428T92 457L180 548L56 564Q56 582 63 608T80
643L192 593L171 719Z" />
<glyph unicode="+" glyph-name="plus" horiz-adv-x="624" d="M560 330H352V126H347L271 185V330H100L64 401V407H271V612H277L352 552V407H524L560 336V330Z" />
<glyph unicode="," glyph-name="comma" horiz-adv-x="283" d="M209 32Q209 29 209 25Q208 -59 135 -151L87 -129Q141 -51 141 3T79 89V94L117 159Q166 140 187 106T209 32Z" />
<glyph unicode="-" glyph-name="hyphen" horiz-adv-x="574" d="M502 330H100L64 401V407H467L502 336V330Z" />
<glyph unicode="." glyph-name="period" horiz-adv-x="284" d="M203 77T186 60T144 42T102 59T85 101T102 143T143 161T185 144T203 102Z" />
<glyph unicode="/" glyph-name="slash" horiz-adv-x="464" d="M281 762H360L167 -2H88L281 762Z" />
<glyph unicode="0" glyph-name="zero" horiz-adv-x="527" d="M205 86T267 86T353 151T377 339Q377 493 349 563T259 633T174 567T150 378Q150 226 177 156ZM481 509T481 358T424 121T263 35T103 121T46 358T103 596T263 684T423 597Z" />
<glyph unicode="1" glyph-name="one" horiz-adv-x="331" d="M28 48Q28 53 28 63T32 85Q80 90 101 100T122 136V582L31 569Q31 588 33 595Q117 646 196 685L217 676V105Q256 88 304 85Q304 63 300 48H28Z" />
<glyph unicode="2" glyph-name="two" horiz-adv-x="469" d="M297 126Q343 126 363 146T393 221Q408 221 418 216Q418 120 399 48H48Q39 85 39 114Q204 294 254 369T304 500T277 586T209 617Q123 617 99 516Q87 515 68 517Q68 532 68 564T73 636Q148 683 231 683T361
637T408 518Q408 468 378 412Q353 367 175 189Q134 148 112 126H297Z" />
<glyph unicode="3" glyph-name="three" horiz-adv-x="462" d="M220 382T256 421T293 511T270 590T207 617Q118 617 94 516Q82 515 63 517Q63 532 63 564T68 636Q150 683 239 683Q306 683 351 643T396 545T362 443T270 375Q412 335 412 210Q412 134 352 85T205
35T37 102Q45 127 62 140Q116 99 180 99T280 128T315 208Q315 328 159 336V378Q220 382 256 421Z" />
<glyph unicode="4" glyph-name="four" horiz-adv-x="492" d="M285 267V526L98 267H285ZM371 212V99Q400 86 436 84Q436 61 432 48H219Q218 54 218 63T222 84Q256 89 270 99T285 136V212H51Q32 236 27 259L321 675H371V267H460Q465 247 465 234T464 212H371Z" />
<glyph unicode="5" glyph-name="five" horiz-adv-x="483" d="M135 399Q196 443 262 443T380 395T432 259T366 103T206 35T37 102Q46 127 63 141Q119 100 186 100T293 142T334 247T303 344T220 378T94 328L76 337L108 660H308Q374 660 393 703Q407 703 418 698Q414
645 394 581H156L135 399Z" />
<glyph unicode="6" glyph-name="six" horiz-adv-x="488" d="M204 92T250 92T326 132T356 237Q356 298 328 335T249 373T155 340Q150 301 150 281Q150 187 177 140ZM448 252Q448 164 387 100T245 36T111 98Q54 165 54 284T130 513T348 685Q377 667 377 647Q215
567 166 392Q215 435 287 435T402 386T448 263Q448 257 448 252Z" />
<glyph unicode="7" glyph-name="seven" horiz-adv-x="423" d="M183 48Q172 47 154 47T108 55L293 483L345 587H152Q106 587 87 572T60 512Q45 512 35 518Q35 607 45 666H383Q404 637 408 604L183 48Z" />
<glyph unicode="8" glyph-name="eight" horiz-adv-x="530" d="M150 140T182 115T266 89T351 118T384 197T351 278T260 336Q201 299 176 265T150 186ZM162 535Q162 458 285 404Q374 461 374 526Q374 569 349 599T271 630T191 605T162 535ZM474 205Q474 139 411
88T261 36T117 81T60 183T98 279T209 360Q69 431 69 517Q69 590 133 636T279 682T412 639T463 531Q463 484 432 450T337 380Q474 307 474 205Z" />
<glyph unicode="9" glyph-name="nine" horiz-adv-x="477" d="M188 346T239 346T332 379Q336 409 336 431Q336 531 308 579T234 627T159 589T130 486Q130 421 159 384ZM433 314T359 205T145 34Q115 53 115 73Q276 152 322 328Q273 285 202 285T86 334Q38 388 38
472T98 620T238 684T373 622Q433 553 433 434Z" />
<glyph unicode=":" glyph-name="colon" horiz-adv-x="289" d="M169 570T186 553T204 510T187 467T144 450T102 467T85 509T102 552T144 570ZM169 195T186 178T204 135T187 93T144 76T102 93T85 135T102 177T144 195Z" />
<glyph unicode=";" glyph-name="semicolon" horiz-adv-x="289" d="M169 452T144 452T102 469T85 511T102 553T144 571T187 554T204 512T187 470ZM227 61Q227 58 227 54Q226 -31 153 -123L105 -101Q159 -23 159 30T97 118V124L135 187Q184 169 205 135T227 61Z" />
<glyph unicode="&lt;" glyph-name="less" horiz-adv-x="633" d="M136 311L91 384L479 581L534 510L206 341L529 200L504 151L136 311Z" />
<glyph unicode="=" glyph-name="equal" horiz-adv-x="639" d="M554 418H125L90 489V496H519L554 424V418ZM554 238H125L90 309V316H519L554 245V238Z" />
<glyph unicode="&gt;" glyph-name="greater" horiz-adv-x="652" d="M501 421L545 349L158 151L102 222L430 391L107 532L132 581L501 421Z" />
<glyph unicode="?" glyph-name="question" horiz-adv-x="581" d="M326 85T310 69T270 53T231 69T215 108T230 148T269 164T309 148T326 108ZM398 608T367 631T290 655Q221 655 157 605L104 670Q170 726 255 726T404 672T468 541Q468 462 384 410Q348 388 300 369V251H291L237
276V424Q241 426 264 436T296 450T325 465T354 485T376 507Q398 531 398 569Z" />
<glyph unicode="@" glyph-name="at" horiz-adv-x="906" d="M517 137V282Q513 282 509 282Q446 282 408 251T370 172Q370 139 388 120T434 101Q484 101 517 137ZM613 371V162Q613 99 663 99Q703 99 736 149T770 303Q770 438 692 525T467 612T228 510T136 238Q136
99 222 8T469 -83Q468 -107 450 -136Q270 -136 165 -27T60 244Q60 430 176 551T469 673T745 567T846 303Q846 175 782 105T633 35T525 100Q470 35 396 35Q341 35 305 69T268 161Q268 240 340 284Q401 322 486 322Q501 322 517 321V363Q517 405 499 424T428 444T319
418L299 445Q376 516 475 516Q542 516 577 478T613 371Z" />
<glyph unicode="A" glyph-name="A" horiz-adv-x="597" d="M186 304H366L274 594L265 553L186 304ZM352 48Q352 69 356 85Q406 95 428 108L380 259H172L122 100Q146 87 198 85Q198 72 194 48H-2Q-2 69 2 85Q58 95 76 143L252 673Q285 683 344 683L519 143Q529 112
546 100T599 85Q597 61 594 48H352Z" />
<glyph unicode="B" glyph-name="B" horiz-adv-x="587" d="M200 91H289Q358 91 393 125T428 217T393 309T289 344H200V91ZM401 507Q401 563 369 596T270 629H200V388L314 387Q401 418 401 507ZM270 670Q392 670 448 625T504 507Q504 412 411 373Q469 358 500 316T532
217Q532 143 471 96T292 48H37Q36 54 36 63T40 85Q74 90 88 100T103 136V620Q78 632 35 634Q35 637 35 645T38 670H270Z" />
<glyph unicode="C" glyph-name="C" horiz-adv-x="594" d="M559 126Q471 35 348 35T139 121T53 353T147 592T378 684Q478 684 544 652Q542 580 526 507Q499 507 496 508Q494 562 462 594T375 627Q279 627 220 556T161 361T221 171T373 103T536 151L559 126Z" />
<glyph unicode="D" glyph-name="D" horiz-adv-x="626" d="M201 91H274Q380 91 436 162T492 359T436 557T270 629H201V91ZM280 670Q422 670 510 589T599 360T513 130T288 48H37Q36 53 36 63T41 85Q75 90 89 100T104 136V621Q78 632 35 634Q35 637 35 645T38 670H280Z" />
<glyph unicode="E" glyph-name="E" horiz-adv-x="541" d="M202 91H364Q413 91 429 116T451 203Q459 204 470 204T493 201Q497 150 497 112T496 48H38Q38 53 38 63T42 85Q76 90 90 100T105 136V620Q77 632 35 634Q35 658 39 670H483Q484 648 484 610T478 522Q471
520 439 520Q434 579 419 604T355 629H202V385L357 394H391V334H357L202 340V91Z" />
<glyph unicode="F" glyph-name="F" horiz-adv-x="512" d="M483 670Q484 648 484 610T478 522Q471 520 439 520Q434 579 419 604T355 629H202V365L349 374H385V314H349L202 320V107Q243 92 305 86Q305 64 302 48H36Q36 54 36 64T40 86Q75 91 90 101T105 138V620Q77
632 35 634Q35 658 39 670H483Z" />
<glyph unicode="G" glyph-name="G" horiz-adv-x="649" d="M631 358Q632 353 632 344T627 318Q592 312 577 302T562 267V48H512L491 81Q419 35 338 35Q219 35 136 121T53 353T149 591T381 684Q476 684 565 652Q564 591 547 510Q526 510 516 511Q510 566 473 596T381
626Q278 626 220 555T161 357T214 163T357 95Q418 95 475 125V304Q439 316 399 318Q399 342 402 358H631Z" />
<glyph unicode="H" glyph-name="H" horiz-adv-x="679" d="M576 583V99Q604 87 645 85Q645 64 642 48H412Q412 74 415 85Q450 90 464 100T478 136V334H202V99Q231 87 270 85Q270 82 270 74T267 48H38Q38 53 38 63T42 85Q76 90 90 100T105 136V620Q77 632 35 634Q35
658 39 670H268Q268 644 265 634Q231 630 217 620T202 583V384H478V620Q449 632 410 634Q410 637 410 645T413 670H643Q644 665 644 655T639 634Q605 630 591 620T576 583Z" />
<glyph unicode="I" glyph-name="I" horiz-adv-x="306" d="M202 583V99Q231 87 270 85Q270 82 270 74T267 48H38Q38 53 38 63T42 85Q76 90 90 100T105 136V620Q77 632 35 634Q35 658 39 670H268Q268 644 265 634Q231 630 217 620T202 583Z" />
<glyph unicode="J" glyph-name="J" horiz-adv-x="297" d="M268 670Q268 644 265 634Q231 630 217 620T202 583V85Q202 -98 12 -155Q-4 -139 -10 -127Q60 -88 82 -41T105 84V620Q77 632 35 634Q35 658 39 670H268Z" />
<glyph unicode="K" glyph-name="K" horiz-adv-x="661" d="M270 85Q270 82 270 74T267 48H38Q38 53 38 63T42 85Q76 90 90 100T105 136V620Q77 632 35 634Q35 658 39 670H268Q268 644 265 634Q231 630 217 620T202 583V369L449 619Q424 632 382 634Q381 640 381
649T386 670H597Q597 646 594 634Q534 634 492 593L296 399Q328 392 354 353L500 144Q524 110 544 99T599 86Q600 69 594 48H447L260 312Q246 332 230 333L202 305V99Q231 87 270 85Z" />
<glyph unicode="L" glyph-name="L" horiz-adv-x="537" d="M201 91H374Q421 91 437 115T458 198Q477 198 493 196Q498 143 498 107T497 48H37Q36 53 36 63T41 85Q75 90 89 100T104 136V620Q76 632 35 634Q35 637 35 645T38 670H267Q268 665 268 655T263 634Q230
630 216 620T201 583V91Z" />
<glyph unicode="M" glyph-name="M" horiz-adv-x="842" d="M819 76T819 67T818 48H575Q574 58 574 67T575 85Q611 90 629 100T646 136L624 586L592 500L412 48H383L188 592L153 97Q179 87 227 85Q226 71 222 48H19Q21 73 24 85Q94 95 96 140L128 622Q103 632 75
633Q74 639 74 649T79 670H252L414 213L594 670H761Q764 658 764 649T764 634Q737 631 724 619T712 580L744 98Q777 87 818 85Q819 76 819 67Z" />
<glyph unicode="N" glyph-name="N" horiz-adv-x="693" d="M658 670Q659 664 659 655T655 634Q587 626 587 578V48H545L224 486L169 567V99Q195 87 243 85Q243 82 243 74T240 48H42Q41 54 41 63T45 85Q112 94 112 140V623Q83 634 42 634Q44 660 47 670H207L458
328L530 220V620Q504 632 456 634Q456 637 456 645T459 670H658Z" />
<glyph unicode="O" glyph-name="O" horiz-adv-x="674" d="M168 374Q168 82 343 82Q424 82 465 149T507 340Q507 349 507 358Q505 499 458 568T331 637T210 566T168 374ZM465 34T337 34T132 123T54 357T131 593T336 684T543 593T622 358T544 124Z" />
<glyph unicode="P" glyph-name="P" horiz-adv-x="546" d="M201 352H276Q345 352 382 390T419 490T383 590T276 628H201V352ZM295 670Q398 670 462 618T527 490T463 361T296 309H201V105Q241 88 296 85Q296 63 292 48H37Q36 53 36 63T41 85Q75 90 89 100T104 136V619Q72
632 35 634Q35 637 35 645T38 670H295Z" />
<glyph unicode="Q" glyph-name="Q" horiz-adv-x="674" d="M168 378Q168 85 343 85Q427 85 467 156T507 341Q507 485 461 559T331 633T208 560T168 378ZM676 22Q677 12 677 -7T670 -57T634 -117T566 -145T490 -125T429 -81T373 -37T312 -17T266 -36T250 -88H233Q218
-58 218 -28Q218 21 268 43Q168 66 111 150T54 357Q54 502 131 593T336 684T543 593T622 363T551 134T363 25Q391 18 452 -15T571 -48Q642 -48 659 25L676 22Z" />
<glyph unicode="R" glyph-name="R" horiz-adv-x="606" d="M202 379H276Q403 379 403 503T276 628H202V379ZM590 87Q590 65 586 48H447L326 291Q314 315 301 325T258 336H202V104Q244 88 285 85Q285 82 285 74T282 48H38Q38 53 38 63T42 85Q76 90 90 100T105 136V619Q74
632 35 634Q35 658 39 670H296Q398 670 453 625T509 503Q509 445 477 404T383 347Q410 333 434 287L509 145Q526 111 543 99T590 87Z" />
<glyph unicode="S" glyph-name="S" horiz-adv-x="496" d="M452 216Q452 135 391 87T244 38T60 76Q59 92 59 130T68 240Q87 240 106 236Q105 155 141 121T237 87T330 114T363 186T333 262T259 315T172 359T98 423T67 520Q67 595 122 638T259 682T428 651Q426 576
416 517Q394 517 385 519Q366 633 260 633Q211 633 182 609T152 544T183 472T258 422T346 378T421 314T452 216Z" />
<glyph unicode="T" glyph-name="T" horiz-adv-x="536" d="M517 670Q521 638 521 602T518 528Q507 524 498 524T484 525Q480 583 460 605T395 628H317V100Q353 87 403 85Q404 79 404 70T400 48H133Q132 53 132 63T137 85Q184 90 201 100T219 136V628H141Q96 628
76 606T52 525Q46 524 37 524T18 528Q15 558 15 593T19 670H517Z" />
<glyph unicode="U" glyph-name="U" horiz-adv-x="675" d="M644 670Q644 665 644 655T640 634Q606 630 592 620T577 583V253Q577 141 513 88T340 35T167 88T102 253V620Q73 632 33 634Q33 637 33 645T36 670H265Q266 664 266 655T262 634Q228 630 214 620T199 583V249Q199
166 236 127T339 87T442 126T479 249V620Q451 632 411 634Q411 637 411 645T414 670H644Z" />
<glyph unicode="V" glyph-name="V" horiz-adv-x="614" d="M4 634Q1 651 1 659T2 670H230Q233 659 233 634Q190 629 182 621T173 603T178 579L312 234Q326 199 331 171H335L503 619Q473 631 433 634Q433 659 436 670H613Q611 647 607 634Q555 625 538 581L327 42H290L58
622Q33 631 4 634Z" />
<glyph unicode="W" glyph-name="W" horiz-adv-x="906" d="M901 670Q901 666 901 658T899 634Q870 628 857 617T834 578L661 42H625L462 489L282 42H245L62 622Q33 633 7 634Q5 650 5 658T5 670H239Q244 654 244 634Q199 630 189 621T179 602T183 579L283 255Q293
221 296 191H299L477 639H513L652 250Q663 219 666 188H668L799 619Q766 632 742 634Q744 654 748 670H901Z" />
<glyph unicode="X" glyph-name="X" horiz-adv-x="612" d="M587 85Q590 69 590 60T590 48H377Q373 57 373 85Q409 89 417 98T414 124L286 307L136 97Q166 86 197 85Q198 72 198 63T197 48H25Q25 51 25 60T30 85Q55 87 71 97T107 132L258 347L63 626Q40 633 24 634Q20
648 20 656T22 670H235Q239 659 239 634Q202 630 194 621T198 595L325 413L478 622Q447 631 417 634Q416 644 416 653T417 670H589Q589 667 589 658T583 634Q539 630 508 587L352 374L547 93Q561 89 587 85Z" />
<glyph unicode="Y" glyph-name="Y" horiz-adv-x="597" d="M241 634Q182 629 182 603Q182 591 191 576L318 345H321Q330 375 349 406L483 623Q452 633 424 634Q424 648 428 670H597Q597 651 593 634Q564 630 550 619T518 581L349 308V97Q379 87 421 85Q421 66 418
48H175Q175 52 175 61T178 85Q213 90 228 100T244 136V300L56 624Q31 632 3 634Q-1 660 -1 670H235Q241 652 241 634Z" />
<glyph unicode="Z" glyph-name="Z" horiz-adv-x="547" d="M378 99Q422 99 441 118T470 190Q484 190 495 184Q495 107 486 48H58Q49 66 49 93L380 620H180Q137 620 117 600T88 528Q76 528 62 534Q62 607 72 670H487Q493 652 493 640T493 625L163 99H378Z" />
<glyph unicode="[" glyph-name="bracketleft" horiz-adv-x="366" d="M168 782V-19H298L348 -94H148L82 -19V858H298L349 782H168Z" />
<glyph unicode="\" glyph-name="backslash" horiz-adv-x="456" d="M88 762H168L360 -2H282L88 762Z" />
<glyph unicode="]" glyph-name="bracketright" horiz-adv-x="327" d="M197 -19V782H67L17 858H218L283 782V-93H67L17 -19H197Z" />
<glyph unicode="^" glyph-name="asciicircum" horiz-adv-x="476" d="M226 650T241 650T273 648L439 281Q412 267 376 265L238 567L101 265Q73 266 44 281L211 648Q226 650 241 650Z" />
<glyph unicode="_" glyph-name="underscore" horiz-adv-x="574" d="M502 95H100L64 166V172H467L502 101V95Z" />
<glyph unicode="`" glyph-name="grave" horiz-adv-x="202" d="M86 737L192 566L165 550L10 686V701Q23 713 45 724T86 737Z" />
<glyph unicode="a" glyph-name="a" horiz-adv-x="478" d="M141 170Q141 137 159 119T209 101Q256 101 289 135V284L230 268Q141 244 141 170ZM375 35Q345 35 322 50T292 92Q244 35 179 35T76 71T39 162T75 252T188 303L289 325V365Q289 446 210 446Q152 446 86
422L67 450Q145 517 247 517Q314 517 349 479T385 371V152Q385 99 417 99Q424 99 454 105L462 86Q422 35 375 35Z" />
<glyph unicode="b" glyph-name="b" horiz-adv-x="528" d="M168 109Q207 88 259 88T348 137T385 281T354 417T280 458T206 428T168 338V109ZM300 517Q378 517 434 456T491 282T421 103T249 36Q179 36 123 77Q100 51 66 37L51 52Q72 100 72 163V691Q62 692 45 692T2
691Q4 714 9 727Q85 757 168 764V418Q185 465 220 491T300 517Z" />
<glyph unicode="c" glyph-name="c" horiz-adv-x="451" d="M424 113Q344 35 252 35T98 98T36 270T104 448T276 517Q353 517 411 481Q409 418 399 362Q381 364 374 366Q373 412 344 439T272 466Q211 466 175 417T139 279T175 143T275 96T408 134L424 113Z" />
<glyph unicode="d" glyph-name="d" horiz-adv-x="551" d="M288 460Q215 460 178 418T140 280Q140 100 261 100Q312 100 348 129V454Q321 460 288 460ZM434 35Q375 35 354 86Q299 36 225 36T94 96T38 269T116 450T312 517Q324 517 348 515V691Q338 692 321 692T279
691Q281 713 285 727Q362 757 445 764V152Q445 99 475 99Q482 99 512 105L522 86Q479 35 434 35Z" />
<glyph unicode="e" glyph-name="e" horiz-adv-x="479" d="M342 409T318 438T256 467T186 436T143 339L249 346L343 347Q342 409 318 438ZM139 300V283Q139 192 176 146T281 100T424 143L437 120Q359 35 250 35Q169 35 103 95T37 270T107 450T259 517T392 469T442
324Q437 312 429 300H139Z" />
<glyph unicode="f" glyph-name="f" horiz-adv-x="321" d="M95 561Q95 658 144 708T259 759T375 714Q372 667 360 618Q340 618 324 622Q324 629 324 635Q324 668 310 688T265 709Q191 709 191 604V500Q266 502 326 508Q326 474 318 451H191V106Q234 89 290 86Q291
80 291 70T287 48H27Q26 54 26 64T30 86Q65 91 80 101T95 138V449Q68 453 33 453Q33 468 35 482Q65 495 95 499V561Z" />
<glyph unicode="g" glyph-name="g" horiz-adv-x="512" d="M210 235T250 235T313 265T337 349Q337 415 310 447T242 480T178 450T155 367Q155 300 182 268ZM371 39H171Q150 39 134 42Q96 10 96 -31T134 -96T248 -120T375 -86T427 -10Q427 39 371 39ZM379 116Q437
116 467 91T498 20Q497 -60 414 -127T218 -194Q133 -194 81 -158T29 -55T100 53Q53 76 53 135T128 228Q53 272 53 358Q53 431 108 474T241 517T370 483Q430 527 513 527Q514 522 514 509T509 466L404 454Q438 414 438 358Q438 285 384 242T246 198Q202 198 163
212Q120 190 120 159Q120 140 135 128T179 115L374 116Q376 116 379 116Z" />
<glyph unicode="h" glyph-name="h" horiz-adv-x="583" d="M489 365V100Q524 87 558 86Q558 63 554 48H331Q330 54 330 63T333 86Q366 90 379 100T392 137V355Q392 402 371 425T312 449Q232 449 194 351V99Q222 88 258 86Q258 83 258 75T255 48H29Q28 54 28 64T32
86Q67 90 82 100T97 137V688Q80 690 62 690T28 689Q30 712 34 725Q111 754 194 762V419Q245 517 348 517Q410 517 449 478T489 365Z" />
<glyph unicode="i" glyph-name="i" horiz-adv-x="295" d="M208 624T190 605T145 586T100 605T81 650T99 695T144 714T189 696T208 651ZM258 86Q258 83 258 75T255 48H29Q28 54 28 64T32 86Q67 90 82 100T97 137V437Q80 439 62 439T28 438Q30 459 34 474Q107 501
194 512V99Q222 88 258 86Z" />
<glyph unicode="j" glyph-name="j" horiz-adv-x="275" d="M208 624T190 605T145 586T100 605T81 650T99 695T144 714T189 696T208 651ZM97 53V437Q80 439 62 439T28 438Q30 459 34 474Q107 501 194 512V64Q194 -119 5 -182L-14 -152Q50 -116 73 -70T97 53Z" />
<glyph unicode="k" glyph-name="k" horiz-adv-x="561" d="M258 86Q258 83 258 75T255 48H29Q28 54 28 64T32 86Q67 90 82 100T97 137V691Q87 692 70 692T28 691Q30 713 34 727Q109 757 194 764V272L378 452Q339 460 311 474Q311 492 316 505H526Q526 479 523 467Q461
467 419 425L312 322Q333 311 354 281L452 146Q476 111 496 100T551 86Q551 64 546 48H407L265 245Q255 258 249 262L194 208V99Q222 88 258 86Z" />
<glyph unicode="l" glyph-name="l" horiz-adv-x="295" d="M258 86Q258 83 258 75T255 48H29Q28 54 28 64T32 86Q67 90 82 100T97 137V691Q87 692 70 692T28 691Q30 713 34 727Q109 757 194 764V99Q222 88 258 86Z" />
<glyph unicode="m" glyph-name="m" horiz-adv-x="878" d="M784 365V100Q819 87 853 86Q853 83 853 75T850 48H627Q626 53 626 61T629 86Q662 90 675 100T688 137V355Q688 402 667 425T608 449Q529 449 489 351V99Q517 88 553 86Q553 83 553 75T550 48H331Q330
54 330 63T333 86Q366 90 379 100T392 137V355Q392 402 371 425T312 449Q232 449 194 351V99Q222 88 258 86Q258 83 258 75T255 48H29Q28 54 28 64T32 86Q67 90 82 100T97 137V438Q68 439 53 439T28 439Q30 461 34 474Q106 501 184 511Q192 464 193 417Q244 517
348 517Q399 517 436 489T484 409Q508 460 550 488T649 517T745 478T784 365Z" />
<glyph unicode="n" glyph-name="n" horiz-adv-x="578" d="M489 365V100Q524 87 558 86Q558 63 554 48H331Q330 54 330 63T333 86Q366 90 379 100T392 137V355Q392 402 371 425T312 449Q232 449 194 351V99Q222 88 258 86Q258 83 258 75T255 48H29Q28 54 28 64T32
86Q67 90 82 100T97 137V438Q68 439 53 439T28 439Q30 461 34 474Q106 501 184 511Q192 464 193 417Q244 517 348 517Q410 517 449 478T489 365Z" />
<glyph unicode="o" glyph-name="o" horiz-adv-x="521" d="M266 86Q381 86 381 261Q381 365 349 417T256 470Q139 470 139 285Q139 281 139 276Q145 86 266 86ZM363 517T423 453T484 277T422 101T259 36T97 100T37 276T99 452T262 517Z" />
<glyph unicode="p" glyph-name="p" horiz-adv-x="548" d="M268 88Q325 88 365 138T405 282T374 417T302 458T233 432T192 356V104Q227 88 268 88ZM95 -91V438Q66 439 51 439T26 439Q28 461 32 474Q104 501 180 511Q188 477 191 428Q228 517 319 517Q397 517 453
456T510 282T435 103T257 36Q221 36 192 47V-121Q233 -140 285 -143Q285 -164 282 -181H26Q26 -176 26 -166T30 -143Q65 -138 80 -128T95 -91Z" />
<glyph unicode="q" glyph-name="q" horiz-adv-x="527" d="M285 460Q219 460 180 417T140 280Q140 100 261 100Q312 100 348 129V446Q316 460 285 460ZM445 522V-129Q474 -140 514 -143Q514 -146 514 -154T511 -181H256Q255 -173 255 -163T258 -143Q310 -139 329
-127T348 -86V80Q293 36 222 36T94 96T38 269T114 450T304 517Q353 517 398 493Q413 511 429 522H445Z" />
<glyph unicode="r" glyph-name="r" horiz-adv-x="372" d="M97 138V438Q68 439 53 439T28 439Q30 461 34 474Q106 501 184 511Q194 450 194 378Q218 440 265 478T369 517Q374 502 374 480T365 425Q302 425 253 395T194 297V105Q236 89 293 86Q293 63 289 48H29Q28
54 28 64T32 86Q67 91 82 101T97 138Z" />
<glyph unicode="s" glyph-name="s" horiz-adv-x="418" d="M236 83T262 102T288 150T265 198T209 234T143 268T86 315T63 384Q63 450 110 483T222 517T350 497Q351 481 351 452T345 378Q330 378 314 382Q315 392 315 400Q315 473 232 473Q197 473 175 455T152 407T175
358T233 322T301 290T358 244T382 175Q382 112 329 74T197 35T52 56Q50 78 50 109T56 183Q68 183 88 181Q88 175 88 170Q88 83 194 83Q236 83 262 102Z" />
<glyph unicode="t" glyph-name="t" horiz-adv-x="363" d="M208 36Q156 36 123 68T89 163V449Q61 453 25 453Q25 468 27 482Q52 492 89 499L166 633L186 627V500Q261 502 320 508Q320 474 312 451H186L187 171Q187 106 239 106Q284 106 325 139L341 120Q284 36 208 36Z" />
<glyph unicode="u" glyph-name="u" horiz-adv-x="568" d="M465 420V117Q505 113 528 113Q529 103 529 94T529 79Q462 49 380 43Q372 87 370 140Q312 36 215 36Q154 36 114 76T74 191V441Q62 442 48 442T16 441Q16 459 21 476Q99 507 170 513V201Q170 155 192 130T251
105Q324 105 369 204V403Q369 456 335 474Q336 486 342 495Q387 514 444 514Q456 514 469 513Q465 477 465 420Z" />
<glyph unicode="v" glyph-name="v" horiz-adv-x="511" d="M-4 467Q-8 481 -8 490T-7 504H220Q224 491 224 467Q181 465 157 456L277 103Q281 134 294 167L382 404Q389 420 389 430T384 448Q373 463 328 467Q324 482 324 490T325 504H527Q528 491 520 467Q487 465
459 453L296 42H216L68 411Q57 440 43 451T-4 467Z" />
<glyph unicode="w" glyph-name="w" horiz-adv-x="756" d="M741 504Q742 499 742 491T737 467Q707 461 696 457L530 42H492L378 347L250 42H211L62 457Q44 465 20 467Q17 483 17 491T18 504H227Q230 487 230 467Q192 463 184 454T175 436T178 417L247 212Q255 190
258 167H261L384 485H423L520 212Q529 186 533 168H535L623 411Q628 427 628 437T620 456T570 467Q569 476 569 485T571 504H741Z" />
<glyph unicode="x" glyph-name="x" horiz-adv-x="515" d="M509 86Q513 71 513 62T512 48H290Q287 59 287 86Q328 88 345 94L234 235L120 94Q143 88 175 86Q176 76 176 67T175 48H1Q2 68 7 86Q53 88 93 133L207 270L96 412Q59 462 5 467Q0 480 0 489T1 504H228Q231
494 231 467Q190 465 175 460L281 322L391 458Q373 465 338 467Q336 476 336 485T338 504H511Q511 500 511 490T504 467Q458 465 420 419L309 287L417 147Q444 113 461 101T509 86Z" />
<glyph unicode="y" glyph-name="y" horiz-adv-x="516" d="M113 -181H97Q86 -149 86 -127T88 -91H112Q150 -91 171 -77T211 -22L232 23L74 411Q62 440 48 451T1 467Q-2 484 -2 492T-1 504H225Q229 491 229 467Q186 465 163 456L277 120Q283 144 292 167L386 404Q393
420 393 431T388 449Q376 463 333 467Q329 481 329 490T330 504H519Q520 487 512 467Q489 465 468 458L247 -52Q220 -118 189 -149T113 -181Z" />
<glyph unicode="z" glyph-name="z" horiz-adv-x="459" d="M289 92Q335 92 355 112T386 187Q399 187 411 181Q411 176 411 147T401 48H43Q40 60 40 74T43 102L303 461H175Q130 461 110 441T79 366Q64 366 53 372Q53 438 63 504H409Q414 490 414 476T409 450L153 92H289Z" />
<glyph unicode="{" glyph-name="braceleft" horiz-adv-x="542" d="M247 652L253 526Q253 473 237 447T179 408Q222 395 237 369T253 290L247 165Q247 131 249 111T263 67T294 31Q342 1 445 -1V-56Q433 -56 392 -56T298 -45T217 -3T177 64T166 158Q166 158 174
283Q174 331 159 353T92 380V437Q144 440 159 462T174 533L166 659Q166 715 176 752T216 819Q269 872 422 872Q433 872 445 872V817Q311 815 276 768Q257 743 252 719T247 652Z" />
<glyph unicode="|" glyph-name="bar" horiz-adv-x="317" d="M119 762H197V-2H119V762Z" />
<glyph unicode="}" glyph-name="braceright" horiz-adv-x="543" d="M297 165L290 290Q290 343 305 369T363 408Q321 420 306 446T290 526L297 652Q297 685 295 705T281 749T248 785Q201 815 98 817V872Q110 872 151 872T245 861T325 819T364 752T375 659Q375 659
368 533Q368 485 383 463T451 437V380Q398 376 383 354T368 283L375 158Q375 101 365 64T325 -3Q274 -56 121 -56Q110 -56 98 -56V-1Q232 1 268 48Q286 73 291 98T297 165Z" />
<glyph unicode="~" glyph-name="asciitilde" horiz-adv-x="525" d="M179 393Q214 393 276 355T370 316Q430 316 443 396H476Q471 323 437 281T348 238Q312 238 248 276T155 315Q96 315 81 236H49Q53 309 88 351T179 393Z" />
<glyph unicode="&#xa0;" glyph-name="nbsp" horiz-adv-x="250" />
<glyph unicode="&#xa1;" glyph-name="exclamdown" horiz-adv-x="458" d="M157 607T174 624T215 641T257 624T274 583T257 541T216 524T174 541T157 583ZM257 7L176 -23H169L189 438L237 463H243L257 7Z" />
<glyph unicode="&#xa2;" glyph-name="cent" horiz-adv-x="458" d="M291 63H243V125Q164 132 111 180T58 318T110 464T243 526V587H291V523Q357 514 405 479L368 420Q327 466 268 466T173 430T137 327T180 221T287 181T394 222L417 203Q404 178 370 155T291 126V63Z" />
<glyph unicode="&#xa3;" glyph-name="sterling" horiz-adv-x="605" d="M202 118Q250 137 288 137T381 124T457 111Q511 111 511 185L534 186L536 171Q537 166 537 158T536 132T528 96T499 63T439 48T338 59T239 71T132 50L106 70Q131 91 153 142T176 234T166 331H57V338L75
376H156Q145 427 145 462Q147 548 196 600T325 652Q378 652 410 639T455 620T484 603T503 591L467 532Q413 594 350 594T256 563T225 484T238 376H408V369L387 331H246Q251 301 251 280Q251 177 202 118Z" />
<glyph unicode="&#xa4;" glyph-name="currency" horiz-adv-x="477" d="M199 247T238 247T304 276T332 363T305 450T238 479T173 451T146 364T172 276ZM373 455Q399 414 399 363T374 272L426 220Q411 192 383 177L332 228Q290 200 238 200T146 228L94 177Q65 194
51 220L104 272Q79 311 79 362T105 455L50 510Q65 539 94 553L147 500Q190 527 240 527T330 499L384 552Q414 539 427 509L373 455Z" />
<glyph unicode="&#xa5;" glyph-name="yen" horiz-adv-x="592" d="M489 369V362L468 327H340V269H489V262L468 227H340V48H252V227H101V234L119 269H252V327H101V334L119 369H236L66 637L145 651L296 393Q420 612 436 644H527L358 369H489Z" />
<glyph unicode="&#xa6;" glyph-name="brokenbar" horiz-adv-x="316" d="M119 303H197V-2H119V303ZM197 456H119V762H197V456Z" />
<glyph unicode="&#xa7;" glyph-name="section" horiz-adv-x="825" d="M168 243T176 232T189 215T205 200T223 188T245 177T267 166Q301 149 316 144Q379 167 379 225Q379 260 352 292Q336 310 284 335Q273 340 241 355Q207 343 188 320T168 270ZM468 -26Q468 -101
407 -145T260 -190T76 -155Q75 -140 75 -105T84 -4Q101 -4 122 -7Q122 -10 122 -13Q122 -146 261 -146Q313 -146 346 -120T379 -57T357 7T302 48T231 81T159 118T104 171T82 249T109 329T181 384Q83 437 83 527Q83 599 138 640T273 682T435 654Q435 602 424 530Q402
530 392 532Q377 637 273 637Q226 637 197 613T168 549T199 484T274 440T362 401T438 343T469 253Q469 160 376 114Q468 60 468 -26Z" />
<glyph unicode="&#xa8;" glyph-name="dieresis" horiz-adv-x="263" d="M224 665T238 650T253 615T239 579T205 564T171 579T156 614T170 650T204 665ZM78 665T92 650T107 615T93 579T59 564T25 579T10 614T24 650T58 665Z" />
<glyph unicode="&#xa9;" glyph-name="copyright" horiz-adv-x="785" d="M536 223Q479 159 398 159T263 215T208 366T267 520T415 580Q473 580 525 557Q522 507 507 458Q495 455 479 457Q477 531 412 531Q357 531 324 487T291 369T324 255T411 215T512 248L536
223ZM731 520T731 366T636 121T393 29T150 121T54 366T150 611T393 703T635 612ZM268 662T186 584T104 367T186 149T393 70T599 149T681 366T599 583T393 662Z" />
<glyph unicode="&#xaa;" glyph-name="ordfeminine" horiz-adv-x="340" d="M198 499Q157 499 128 484T98 432Q98 412 110 400T151 387T208 414V499Q203 499 198 499ZM268 341Q218 341 209 383Q170 341 124 341T53 364T27 425Q27 482 81 508Q125 529 181 529Q194
529 208 528V571Q208 628 148 628Q102 628 61 608L49 628Q102 678 173 678Q223 678 249 652T275 576V423Q275 385 297 385Q305 385 323 390L328 376Q302 341 268 341Z" />
<glyph unicode="&#xab;" glyph-name="guillemotleft" horiz-adv-x="636" d="M120 368L287 557L328 537L205 368L328 198L287 177L120 368ZM305 368L472 557L512 537L390 368L512 198L472 177L305 368Z" />
<glyph unicode="&#xac;" glyph-name="logicalnot" horiz-adv-x="627" d="M542 475V279Q528 276 515 276L488 279V400H75Q70 418 70 437T75 475H542Z" />
<glyph unicode="&#xae;" glyph-name="registered" horiz-adv-x="779" d="M335 380H380Q464 380 464 457T380 535H335V380ZM566 209Q566 198 564 182H480L399 323Q387 346 366 346H335V221Q363 211 393 209Q394 202 391 182H237Q235 197 239 209Q260 212 269 218T278
241V534Q259 542 235 544Q235 565 237 570H392Q454 570 490 538T526 462T502 390T435 351Q448 343 462 319L509 245Q522 224 534 217T566 209ZM109 228T189 149T389 70T590 149T670 366T591 583T390 662T189 584T109 367ZM60 519T153 611T389 703T625 611T719 366T626
121T390 29T154 121T60 366Z" />
<glyph unicode="&#xaf;" glyph-name="overscore" horiz-adv-x="254" d="M10 562V602H244V562H10Z" />
<glyph unicode="&#xb0;" glyph-name="degree" horiz-adv-x="317" d="M287 515T251 481T159 447T67 481T30 576T66 671T158 706T250 672T287 576ZM158 663Q100 663 100 577T158 490Q184 490 201 511T218 577T201 642T158 663Z" />
<glyph unicode="&#xb1;" glyph-name="plusminus" horiz-adv-x="621" d="M64 241H524L560 169V164H100L64 235V241ZM560 395H352V269H347L271 329V395H100L64 466V472H271V598H277L352 539V472H524L560 400V395Z" />
<glyph unicode="&#xb2;" glyph-name="twosuperior" horiz-adv-x="248" d="M155 391Q178 391 189 401T205 440Q217 440 222 437Q222 385 213 348H28Q22 368 22 385Q108 481 133 518T159 585Q159 641 114 641T57 592H35Q34 600 34 616T39 655Q80 681 123 681T191
656T217 593T190 518T72 391H155Z" />
<glyph unicode="&#xb3;" glyph-name="threesuperior" horiz-adv-x="235" d="M152 594Q152 645 110 645Q64 645 52 595Q36 595 32 597Q32 604 32 619T34 659Q77 684 118 684T183 663T207 611T190 557T143 522Q215 502 215 435Q215 397 184 371T105 345T19 377Q29
404 34 407Q66 384 98 384T147 397T164 435Q164 495 81 498V531Q152 539 152 594Z" />
<glyph unicode="&#xb4;" glyph-name="acute" horiz-adv-x="201" d="M10 560L115 732Q134 731 156 720T191 695V682L36 544L10 560Z" />
<glyph unicode="&#xb5;" glyph-name="uni00B5" horiz-adv-x="573" d="M471 424V117Q511 113 534 113Q535 98 535 91T535 79Q459 53 386 43Q378 79 376 139Q318 36 220 36Q199 36 176 43V-98Q147 -103 123 -103T80 -98V445Q51 446 36 446T11 446Q11 463 16 480Q92
510 176 518V138Q202 105 254 105Q330 105 375 204V407Q375 462 340 478Q344 494 347 500Q393 519 445 519Q460 519 475 517Q471 481 471 424Z" />
<glyph unicode="&#xb6;" glyph-name="paragraph" horiz-adv-x="514" d="M214 670H436V48H377V613H308V48H250V269H213Q129 269 79 325T29 469T79 614T214 670Z" />
<glyph unicode="&#xb7;" glyph-name="middot" horiz-adv-x="284" d="M201 370T184 353T142 335T100 352T83 394T100 436T141 454T183 437T201 395Z" />
<glyph unicode="&#xb8;" glyph-name="cedilla" horiz-adv-x="270" d="M172 -19Q216 -19 238 -37T260 -88T225 -145T130 -171T10 -138L27 -116Q74 -138 120 -138Q193 -138 193 -89Q193 -52 138 -52Q117 -52 97 -56L121 63H188L171 -19H172Z" />
<glyph unicode="&#xb9;" glyph-name="onesuperior" horiz-adv-x="191" d="M170 377Q170 374 170 366T168 348H23Q22 353 22 360T25 377Q51 379 61 384T72 402V619L25 612Q22 622 26 636Q87 672 111 683L125 678V387Q145 378 170 377Z" />
<glyph unicode="&#xba;" glyph-name="ordmasculine" horiz-adv-x="373" d="M190 376Q275 376 275 500Q275 571 251 608T183 645Q98 645 98 518Q98 448 122 412T190 376ZM258 678T302 633T347 510T302 387T186 341T70 386T26 508T71 632T187 678Z" />
<glyph unicode="&#xbb;" glyph-name="guillemotright" horiz-adv-x="646" d="M126 537L165 557L332 368L165 177L126 198L247 368L126 537ZM318 537L358 557L525 368L358 177L318 198L440 368L318 537Z" />
<glyph unicode="&#xbc;" glyph-name="onequarter" horiz-adv-x="719" d="M241 304Q242 300 242 293T238 273H60Q60 278 60 286T64 304Q95 307 108 313T121 336V615L63 607Q61 622 64 631Q149 679 171 689L185 683V317Q214 305 241 304ZM505 710H550L212 10H168L505
710ZM550 191V350L434 191H550ZM606 150V88Q623 81 648 79Q648 60 646 48H507Q506 53 506 61T509 79Q533 82 541 87T550 109V150H398Q387 164 382 185L574 455H606V191H664Q668 176 668 166T667 150H606Z" />
<glyph unicode="&#xbd;" glyph-name="onehalf" horiz-adv-x="776" d="M241 304Q242 300 242 293T238 273H60Q60 278 60 286T64 304Q95 307 108 313T121 336V615L63 607Q61 622 64 631Q149 679 171 689L185 683V317Q214 305 241 304ZM511 710H555L212 10H168L511
710ZM623 99Q653 99 665 112T684 161Q695 161 704 158Q704 89 692 47H463Q456 77 456 91Q564 211 596 259T629 342T612 395T568 414Q512 414 497 353Q480 353 474 354Q474 363 474 383T479 429Q530 462 582 462T666 431T698 352T665 260T515 99H623Z" />
<glyph unicode="&#xbe;" glyph-name="threequarters" horiz-adv-x="749" d="M180 503T204 526T228 581T213 631T172 648Q115 648 100 583Q83 583 78 585Q78 638 81 662Q133 693 184 693T265 667T294 602T272 536T213 493Q305 468 305 385Q305 336 267 304T170
272T62 311Q76 341 80 344Q120 315 159 315T220 333T242 384Q242 457 140 463V500Q180 503 204 526ZM539 710H583L246 10H202L539 710ZM580 191V352L464 191H580ZM636 150V88Q653 81 678 79Q678 60 676 48H537Q536 53 536 61T539 79Q563 82 571 87T580 109V150H428Q417
164 412 185L603 455H636V191H694Q697 177 697 167T696 150H636Z" />
<glyph unicode="&#xbf;" glyph-name="questiondown" horiz-adv-x="581" d="M245 610T261 626T301 642T340 626T356 587T341 547T302 531T262 547T245 587ZM173 87T204 64T281 40Q350 40 414 90L467 25Q401 -31 316 -31T167 23T103 154Q103 233 187 285Q223 307
271 326V444H280L334 419V271Q330 269 307 259T275 245T246 230T217 210T195 188Q173 164 173 126Z" />
<glyph unicode="&#xc0;" glyph-name="Agrave" horiz-adv-x="597" d="M330 780L303 764L148 900V915Q161 927 183 938T224 951L330 780ZM186 352H366L274 642L265 601L186 352ZM352 96Q352 117 356 133Q406 143 428 156L380 307H172L122 148Q146 135 198 133Q198
120 194 96H-2Q-2 117 2 133Q58 143 76 191L252 721Q285 731 344 731L519 191Q529 160 546 148T599 133Q597 109 594 96H352Z" />
<glyph unicode="&#xc1;" glyph-name="Aacute" horiz-adv-x="597" d="M462 895L307 757L281 773L386 945Q405 944 427 933T462 908V895ZM186 352H366L274 642L265 601L186 352ZM352 96Q352 117 356 133Q406 143 428 156L380 307H172L122 148Q146 135 198 133Q198
120 194 96H-2Q-2 117 2 133Q58 143 76 191L252 721Q285 731 344 731L519 191Q529 160 546 148T599 133Q597 109 594 96H352Z" />
<glyph unicode="&#xc2;" glyph-name="Acircumflex" horiz-adv-x="597" d="M297 837L172 761L149 783L276 909H319L446 783L424 761L297 837ZM186 352H366L274 642L265 601L186 352ZM352 96Q352 117 356 133Q406 143 428 156L380 307H172L122 148Q146 135 198 133Q198
120 194 96H-2Q-2 117 2 133Q58 143 76 191L252 721Q285 731 344 731L519 191Q529 160 546 148T599 133Q597 109 594 96H352Z" />
<glyph unicode="&#xc3;" glyph-name="Atilde" horiz-adv-x="597" d="M353 786Q329 786 294 811T242 836Q205 836 196 790H164Q178 905 252 905Q276 905 311 880T364 855Q400 855 410 900H441Q429 786 353 786ZM186 352H366L274 642L265 601L186 352ZM352 96Q352
117 356 133Q406 143 428 156L380 307H172L122 148Q146 135 198 133Q198 120 194 96H-2Q-2 117 2 133Q58 143 76 191L252 721Q285 731 344 731L519 191Q529 160 546 148T599 133Q597 109 594 96H352Z" />
<glyph unicode="&#xc4;" glyph-name="Adieresis" horiz-adv-x="597" d="M419 808T405 793T371 778T337 793T322 828T336 864T370 879T404 864T419 829ZM273 808T259 793T225 778T191 793T176 828T190 864T224 879T258 864T273 829ZM186 352H366L274 642L265 601L186
352ZM352 96Q352 117 356 133Q406 143 428 156L380 307H172L122 148Q146 135 198 133Q198 120 194 96H-2Q-2 117 2 133Q58 143 76 191L252 721Q285 731 344 731L519 191Q529 160 546 148T599 133Q597 109 594 96H352Z" />
<glyph unicode="&#xc5;" glyph-name="Aring" horiz-adv-x="597" d="M298 878Q282 878 271 867T260 835Q260 791 298 791T336 834T298 878ZM337 762T298 762T232 782T204 834T231 887T298 907T364 887T392 835T365 782ZM186 352H366L274 642L265 601L186 352ZM352
96Q352 117 356 133Q406 143 428 156L380 307H172L122 148Q146 135 198 133Q198 120 194 96H-2Q-2 117 2 133Q58 143 76 191L252 721Q285 731 344 731L519 191Q529 160 546 148T599 133Q597 109 594 96H352Z" />
<glyph unicode="&#xc6;" glyph-name="AE" horiz-adv-x="847" d="M411 304V553L377 492L258 304H411ZM508 91H670Q719 91 735 116T757 203Q765 204 776 204T799 201Q803 150 803 112T802 48H343Q343 53 343 63T348 85Q382 90 396 100T411 136V259H230L134 107Q165
90 198 87Q198 64 194 48H4Q4 51 4 60T8 87Q42 91 61 105T99 146L402 623Q377 632 341 634Q340 639 340 648T345 670H789Q790 648 790 610T784 522Q777 520 745 520Q740 579 724 604T660 629H508V385L646 394H680V334H646L508 340V91Z" />
<glyph unicode="&#xc7;" glyph-name="Ccedilla" horiz-adv-x="594" d="M347 83H335L324 29H325Q369 29 391 11T413 -40T378 -97T283 -123T163 -90L180 -68Q227 -90 273 -90Q346 -90 346 -41Q346 -4 291 -4Q270 -4 250 -8L270 93Q174 118 114 198T53 401Q53 548
147 640T378 732Q478 732 544 700Q542 628 526 555Q499 555 496 556Q494 610 462 642T375 675Q279 675 220 604T161 409T221 219T373 151T536 199L559 174Q471 83 347 83Z" />
<glyph unicode="&#xc8;" glyph-name="Egrave" horiz-adv-x="541" d="M324 780L297 764L142 900V915Q155 927 177 938T218 951L324 780ZM202 139H364Q413 139 429 164T451 251Q459 252 470 252T493 249Q497 198 497 160T496 96H38Q38 101 38 111T42 133Q76 138
90 148T105 184V668Q77 680 35 682Q35 706 39 718H483Q484 696 484 658T478 570Q471 568 439 568Q434 627 419 652T355 677H202V433L357 442H391V382H357L202 388V139Z" />
<glyph unicode="&#xc9;" glyph-name="Eacute" horiz-adv-x="541" d="M455 894L300 756L274 772L379 944Q398 943 420 932T455 907V894ZM202 139H364Q413 139 429 164T451 251Q459 252 470 252T493 249Q497 198 497 160T496 96H38Q38 101 38 111T42 133Q76 138
90 148T105 184V668Q77 680 35 682Q35 706 39 718H483Q484 696 484 658T478 570Q471 568 439 568Q434 627 419 652T355 677H202V433L357 442H391V382H357L202 388V139Z" />
<glyph unicode="&#xca;" glyph-name="Ecircumflex" horiz-adv-x="541" d="M289 837L164 761L141 783L268 909H311L438 783L416 761L289 837ZM202 139H364Q413 139 429 164T451 251Q459 252 470 252T493 249Q497 198 497 160T496 96H38Q38 101 38 111T42 133Q76
138 90 148T105 184V668Q77 680 35 682Q35 706 39 718H483Q484 696 484 658T478 570Q471 568 439 568Q434 627 419 652T355 677H202V433L357 442H391V382H357L202 388V139Z" />
<glyph unicode="&#xcb;" glyph-name="Edieresis" horiz-adv-x="541" d="M408 808T394 793T360 778T326 793T311 828T325 864T359 879T393 864T408 829ZM262 808T248 793T214 778T180 793T165 828T179 864T213 879T247 864T262 829ZM202 139H364Q413 139 429 164T451
251Q459 252 470 252T493 249Q497 198 497 160T496 96H38Q38 101 38 111T42 133Q76 138 90 148T105 184V668Q77 680 35 682Q35 706 39 718H483Q484 696 484 658T478 570Q471 568 439 568Q434 627 419 652T355 677H202V433L357 442H391V382H357L202 388V139Z" />
<glyph unicode="&#xcc;" glyph-name="Igrave" horiz-adv-x="306" d="M187 780L160 764L5 900V915Q18 927 40 938T81 951L187 780ZM202 631V147Q231 135 270 133Q270 130 270 122T267 96H38Q38 101 38 111T42 133Q76 138 90 148T105 184V668Q77 680 35 682Q35 706
39 718H268Q268 692 265 682Q231 678 217 668T202 631Z" />
<glyph unicode="&#xcd;" glyph-name="Iacute" horiz-adv-x="306" d="M202 631V147Q231 135 270 133Q270 130 270 122T267 96H38Q38 101 38 111T42 133Q76 138 90 148T105 184V668Q77 680 35 682Q35 706 39 718H268Q268 692 265 682Q231 678 217 668T202 631ZM137
773L242 945Q261 944 283 933T318 908V895L163 757L137 773Z" />
<glyph unicode="&#xce;" glyph-name="Icircumflex" horiz-adv-x="306" d="M202 631V147Q231 135 270 133Q270 130 270 122T267 96H38Q38 101 38 111T42 133Q76 138 90 148T105 184V668Q77 680 35 682Q35 706 39 718H268Q268 692 265 682Q231 678 217 668T202 631ZM175
909L302 783L280 761L153 837L28 761L5 783L132 909H175Z" />
<glyph unicode="&#xcf;" glyph-name="Idieresis" horiz-adv-x="306" d="M275 808T261 793T227 778T193 793T178 828T192 864T226 879T260 864T275 829ZM129 808T115 793T81 778T47 793T32 828T46 864T80 879T114 864T129 829ZM202 631V147Q231 135 270 133Q270
130 270 122T267 96H38Q38 101 38 111T42 133Q76 138 90 148T105 184V668Q77 680 35 682Q35 706 39 718H268Q268 692 265 682Q231 678 217 668T202 631Z" />
<glyph unicode="&#xd0;" glyph-name="Eth" horiz-adv-x="626" d="M201 139H274Q380 139 436 210T492 407T436 605T270 677H201V385H322Q325 374 325 362T322 338H201V139ZM280 718Q422 718 510 637T599 408T513 178T288 96H37Q36 101 36 111T41 133Q75 138 89
148T104 184V338H28Q26 350 26 362T28 385H104V669Q78 680 35 682Q35 685 35 693T38 718H280Z" />
<glyph unicode="&#xd1;" glyph-name="Ntilde" horiz-adv-x="693" d="M416 786Q392 786 357 811T305 836Q268 836 259 790H227Q241 905 315 905Q338 905 374 880T427 855Q463 855 473 900H504Q492 786 416 786ZM658 718Q659 712 659 703T655 682Q587 674 587 626V96H545L224
534L169 615V147Q195 135 243 133Q243 130 243 122T240 96H42Q41 102 41 111T45 133Q112 142 112 188V671Q83 682 42 682Q44 708 47 718H207L458 376L530 268V668Q504 680 456 682Q456 685 456 693T459 718H658Z" />
<glyph unicode="&#xd2;" glyph-name="Ograve" horiz-adv-x="674" d="M265 951L371 780L344 764L189 900V915Q202 927 224 938T265 951ZM168 422Q168 130 343 130Q424 130 465 197T507 388Q507 397 507 406Q505 547 458 616T331 685T210 614T168 422ZM465 82T337
82T132 171T54 405T131 641T336 732T543 641T622 406T544 172Z" />
<glyph unicode="&#xd3;" glyph-name="Oacute" horiz-adv-x="674" d="M168 422Q168 130 343 130Q424 130 465 197T507 388Q507 397 507 406Q505 547 458 616T331 685T210 614T168 422ZM465 82T337 82T132 171T54 405T131 641T336 732T543 641T622 406T544 172ZM321
772L426 944Q445 943 467 932T502 907V894L347 756L321 772Z" />
<glyph unicode="&#xd4;" glyph-name="Ocircumflex" horiz-adv-x="674" d="M168 422Q168 130 343 130Q424 130 465 197T507 388Q507 397 507 406Q505 547 458 616T331 685T210 614T168 422ZM465 82T337 82T132 171T54 405T131 641T336 732T543 641T622 406T544
172ZM485 783L463 761L336 837L211 761L188 783L315 909H358L485 783Z" />
<glyph unicode="&#xd5;" glyph-name="Otilde" horiz-adv-x="674" d="M293 905Q316 905 352 880T405 855Q441 855 451 900H482Q470 786 394 786Q370 786 335 811T283 836Q246 836 237 790H205Q219 905 293 905ZM168 422Q168 130 343 130Q424 130 465 197T507 388Q507
397 507 406Q505 547 458 616T331 685T210 614T168 422ZM465 82T337 82T132 171T54 405T131 641T336 732T543 641T622 406T544 172Z" />
<glyph unicode="&#xd6;" glyph-name="Odieresis" horiz-adv-x="674" d="M168 422Q168 130 343 130Q424 130 465 197T507 388Q507 397 507 406Q505 547 458 616T331 685T210 614T168 422ZM465 82T337 82T132 171T54 405T131 641T336 732T543 641T622 406T544 172ZM425
879T439 864T454 829T440 793T406 778T372 793T357 828T371 864T405 879ZM279 879T293 864T308 829T294 793T260 778T226 793T211 828T225 864T259 879Z" />
<glyph unicode="&#xd7;" glyph-name="multiply" horiz-adv-x="539" d="M461 515L319 361L460 204L415 172L282 321L148 176L78 223L227 381L88 536L135 567L265 422L402 567L461 515Z" />
<glyph unicode="&#xd8;" glyph-name="Oslash" horiz-adv-x="674" d="M216 159Q261 85 346 85T470 154T508 331Q508 344 507 358Q502 443 484 498L216 159ZM461 551Q415 633 329 633T202 556Q167 490 167 388Q167 286 192 210L461 551ZM551 583Q622 493 622 354T544
124T337 34Q230 34 161 89L117 34H53L125 125Q54 211 54 356T131 593T337 684Q443 684 516 620L566 683H630L551 583Z" />
<glyph unicode="&#xd9;" glyph-name="Ugrave" horiz-adv-x="675" d="M373 780L346 764L191 900V915Q204 927 226 938T267 951L373 780ZM644 718Q644 713 644 703T640 682Q606 678 592 668T577 631V301Q577 189 513 136T340 83T167 136T102 301V668Q73 680 33 682Q33
685 33 693T36 718H265Q266 712 266 703T262 682Q228 678 214 668T199 631V297Q199 214 236 175T339 135T442 174T479 297V668Q451 680 411 682Q411 685 411 693T414 718H644Z" />
<glyph unicode="&#xda;" glyph-name="Uacute" horiz-adv-x="684" d="M495 894L340 756L314 772L419 944Q438 943 460 932T495 907V894ZM644 718Q644 713 644 703T640 682Q606 678 592 668T577 631V301Q577 189 513 136T340 83T167 136T102 301V668Q73 680 33 682Q33
685 33 693T36 718H265Q266 712 266 703T262 682Q228 678 214 668T199 631V297Q199 214 236 175T339 135T442 174T479 297V668Q451 680 411 682Q411 685 411 693T414 718H644Z" />
<glyph unicode="&#xdb;" glyph-name="Ucircumflex" horiz-adv-x="684" d="M329 837L204 761L181 783L308 909H351L478 783L456 761L329 837ZM644 718Q644 713 644 703T640 682Q606 678 592 668T577 631V301Q577 189 513 136T340 83T167 136T102 301V668Q73 680
33 682Q33 685 33 693T36 718H265Q266 712 266 703T262 682Q228 678 214 668T199 631V297Q199 214 236 175T339 135T442 174T479 297V668Q451 680 411 682Q411 685 411 693T414 718H644Z" />
<glyph unicode="&#xdc;" glyph-name="Udieresis" horiz-adv-x="684" d="M446 808T432 793T398 778T364 793T349 828T363 864T397 879T431 864T446 829ZM300 808T286 793T252 778T218 793T203 828T217 864T251 879T285 864T300 829ZM644 718Q644 713 644 703T640
682Q606 678 592 668T577 631V301Q577 189 513 136T340 83T167 136T102 301V668Q73 680 33 682Q33 685 33 693T36 718H265Q266 712 266 703T262 682Q228 678 214 668T199 631V297Q199 214 236 175T339 135T442 174T479 297V668Q451 680 411 682Q411 685 411 693T414
718H644Z" />
<glyph unicode="&#xdd;" glyph-name="Yacute" horiz-adv-x="597" d="M478 895L323 757L297 773L402 945Q421 944 443 933T478 908V895ZM241 682Q182 677 182 651Q182 639 191 624L318 393H321Q330 423 349 454L483 671Q452 681 424 682Q424 696 428 718H597Q597
699 593 682Q564 678 550 667T518 629L349 356V145Q379 135 421 133Q421 114 418 96H175Q175 100 175 109T178 133Q213 138 228 148T244 184V348L56 672Q31 680 3 682Q-1 708 -1 718H235Q241 700 241 682Z" />
<glyph unicode="&#xde;" glyph-name="Thorn" horiz-adv-x="559" d="M202 248H292Q352 248 386 278T421 365T388 452T292 483H202V248ZM202 526H313Q413 526 471 483T529 365T471 248T313 205H202V99Q231 87 270 85Q270 82 270 74T267 48H38Q38 53 38 63T42 85Q76
90 90 100T105 136V620Q77 632 35 634Q35 658 39 670H268Q268 644 265 634Q231 630 217 620T202 583V526Z" />
<glyph unicode="&#xdf;" glyph-name="germandbls" horiz-adv-x="597" d="M103 138V475Q103 567 160 618T315 670T466 623T520 507Q520 459 493 425T418 374Q479 360 513 317T547 211T495 98T343 48Q302 48 264 60Q261 72 261 82T263 103Q293 91 325 91Q381 91
411 125T441 217T410 309T314 344H279Q275 360 275 370T276 387H332Q414 420 414 507Q414 565 386 597T306 629T228 593T202 496V48H35Q34 54 34 64T38 86Q73 90 88 101T103 138Z" />
<glyph unicode="&#xe0;" glyph-name="agrave" horiz-adv-x="478" d="M271 614L244 598L89 734V749Q102 761 124 772T165 785L271 614ZM141 218Q141 185 159 167T209 149Q256 149 289 183V332L230 316Q141 292 141 218ZM375 83Q345 83 322 98T292 140Q244 83 179
83T76 119T39 210T75 300T188 351L289 373V413Q289 494 210 494Q152 494 86 470L67 498Q145 565 247 565Q314 565 349 527T385 419V200Q385 147 417 147Q424 147 454 153L462 134Q422 83 375 83Z" />
<glyph unicode="&#xe1;" glyph-name="aacute" horiz-adv-x="478" d="M403 728L248 590L222 606L327 778Q346 777 368 766T403 741V728ZM141 218Q141 185 159 167T209 149Q256 149 289 183V332L230 316Q141 292 141 218ZM375 83Q345 83 322 98T292 140Q244 83 179
83T76 119T39 210T75 300T188 351L289 373V413Q289 494 210 494Q152 494 86 470L67 498Q145 565 247 565Q314 565 349 527T385 419V200Q385 147 417 147Q424 147 454 153L462 134Q422 83 375 83Z" />
<glyph unicode="&#xe2;" glyph-name="acircumflex" horiz-adv-x="478" d="M238 671L113 595L90 617L217 743H260L387 617L365 595L238 671ZM141 218Q141 185 159 167T209 149Q256 149 289 183V332L230 316Q141 292 141 218ZM375 83Q345 83 322 98T292 140Q244
83 179 83T76 119T39 210T75 300T188 351L289 373V413Q289 494 210 494Q152 494 86 470L67 498Q145 565 247 565Q314 565 349 527T385 419V200Q385 147 417 147Q424 147 454 153L462 134Q422 83 375 83Z" />
<glyph unicode="&#xe3;" glyph-name="atilde" horiz-adv-x="478" d="M294 620Q270 620 235 645T183 670Q146 670 137 624H105Q119 739 193 739Q217 739 252 714T305 689Q341 689 351 734H382Q370 620 294 620ZM141 218Q141 185 159 167T209 149Q256 149 289 183V332L230
316Q141 292 141 218ZM375 83Q345 83 322 98T292 140Q244 83 179 83T76 119T39 210T75 300T188 351L289 373V413Q289 494 210 494Q152 494 86 470L67 498Q145 565 247 565Q314 565 349 527T385 419V200Q385 147 417 147Q424 147 454 153L462 134Q422 83 375 83Z"
/>
<glyph unicode="&#xe4;" glyph-name="adieresis" horiz-adv-x="478" d="M360 642T346 627T312 612T278 627T263 662T277 698T311 713T345 698T360 663ZM214 642T200 627T166 612T132 627T117 662T131 698T165 713T199 698T214 663ZM141 218Q141 185 159 167T209
149Q256 149 289 183V332L230 316Q141 292 141 218ZM375 83Q345 83 322 98T292 140Q244 83 179 83T76 119T39 210T75 300T188 351L289 373V413Q289 494 210 494Q152 494 86 470L67 498Q145 565 247 565Q314 565 349 527T385 419V200Q385 147 417 147Q424 147 454
153L462 134Q422 83 375 83Z" />
<glyph unicode="&#xe5;" glyph-name="aring" horiz-adv-x="478" d="M238 712Q222 712 211 701T200 669Q200 625 238 625T276 668T238 712ZM277 596T238 596T172 616T144 668T171 721T238 741T304 721T332 669T305 616ZM141 218Q141 185 159 167T209 149Q256 149
289 183V332L230 316Q141 292 141 218ZM375 83Q345 83 322 98T292 140Q244 83 179 83T76 119T39 210T75 300T188 351L289 373V413Q289 494 210 494Q152 494 86 470L67 498Q145 565 247 565Q314 565 349 527T385 419V200Q385 147 417 147Q424 147 454 153L462 134Q422
83 375 83Z" />
<glyph unicode="&#xe6;" glyph-name="ae" horiz-adv-x="731" d="M594 409T570 438T509 467T438 436T395 339L501 346L595 347Q594 409 570 438ZM141 170Q141 137 159 119T209 101Q269 101 310 161Q289 209 289 267V284L230 268Q141 244 141 170ZM391 300V283Q391
192 428 146T533 100T676 143L689 120Q611 35 502 35Q454 35 408 58T330 125Q268 35 176 35Q114 35 77 71T39 162T75 252T188 303L289 325V365Q289 446 210 446Q152 446 86 422L67 450Q145 517 247 517Q332 517 364 449Q428 517 511 517T644 469T694 324Q689 312
681 300H391Z" />
<glyph unicode="&#xe7;" glyph-name="ccedilla" horiz-adv-x="451" d="M258 29Q302 29 324 11T346 -40T311 -97T216 -123T96 -90L113 -68Q160 -90 206 -90Q279 -90 279 -41Q279 -4 224 -4Q203 -4 183 -8L202 88Q131 103 84 163T36 315Q36 428 104 496T276 565Q353
565 411 529Q409 466 399 410Q381 412 374 414Q373 460 344 487T272 514Q211 514 175 465T139 327T175 191T275 144T408 182L424 161Q354 92 269 84L257 29H258Z" />
<glyph unicode="&#xe8;" glyph-name="egrave" horiz-adv-x="479" d="M298 614L271 598L116 734V749Q129 761 151 772T192 785L298 614ZM342 457T318 486T256 515T186 484T143 387L249 394L343 395Q342 457 318 486ZM139 348V331Q139 240 176 194T281 148T424 191L437
168Q359 83 250 83Q169 83 103 143T37 318T107 498T259 565T392 517T442 372Q437 360 429 348H139Z" />
<glyph unicode="&#xe9;" glyph-name="eacute" horiz-adv-x="479" d="M429 729L274 591L248 607L353 779Q372 778 394 767T429 742V729ZM342 457T318 486T256 515T186 484T143 387L249 394L343 395Q342 457 318 486ZM139 348V331Q139 240 176 194T281 148T424 191L437
168Q359 83 250 83Q169 83 103 143T37 318T107 498T259 565T392 517T442 372Q437 360 429 348H139Z" />
<glyph unicode="&#xea;" glyph-name="ecircumflex" horiz-adv-x="479" d="M264 671L139 595L116 617L243 743H286L413 617L391 595L264 671ZM342 457T318 486T256 515T186 484T143 387L249 394L343 395Q342 457 318 486ZM139 348V331Q139 240 176 194T281 148T424
191L437 168Q359 83 250 83Q169 83 103 143T37 318T107 498T259 565T392 517T442 372Q437 360 429 348H139Z" />
<glyph unicode="&#xeb;" glyph-name="edieresis" horiz-adv-x="479" d="M381 642T367 627T333 612T299 627T284 662T298 698T332 713T366 698T381 663ZM235 642T221 627T187 612T153 627T138 662T152 698T186 713T220 698T235 663ZM342 457T318 486T256 515T186
484T143 387L249 394L343 395Q342 457 318 486ZM139 348V331Q139 240 176 194T281 148T424 191L437 168Q359 83 250 83Q169 83 103 143T37 318T107 498T259 565T392 517T442 372Q437 360 429 348H139Z" />
<glyph unicode="&#xec;" glyph-name="igrave" horiz-adv-x="295" d="M181 614L154 598L-1 734V749Q12 761 34 772T75 785L181 614ZM258 134Q258 131 258 123T255 96H29Q28 102 28 112T32 134Q67 138 82 148T97 185V485Q80 487 62 487T28 486Q30 507 34 522Q109
550 194 560V147Q222 136 258 134Z" />
<glyph unicode="&#xed;" glyph-name="iacute" horiz-adv-x="295" d="M258 134Q258 131 258 123T255 96H29Q28 102 28 112T32 134Q67 138 82 148T97 185V485Q80 487 62 487T28 486Q30 507 34 522Q109 550 194 560V147Q222 136 258 134ZM131 607L236 779Q255 778
277 767T312 742V729L157 591L131 607Z" />
<glyph unicode="&#xee;" glyph-name="icircumflex" horiz-adv-x="295" d="M258 134Q258 131 258 123T255 96H29Q28 102 28 112T32 134Q67 138 82 148T97 185V485Q80 487 62 487T28 486Q30 507 34 522Q109 550 194 560V147Q222 136 258 134ZM170 743L297 617L275
595L148 671L23 595L0 617L127 743H170Z" />
<glyph unicode="&#xef;" glyph-name="idieresis" horiz-adv-x="295" d="M265 642T251 627T217 612T183 627T168 662T182 698T216 713T250 698T265 663ZM119 642T105 627T71 612T37 627T22 662T36 698T70 713T104 698T119 663ZM258 134Q258 131 258 123T255 96H29Q28
102 28 112T32 134Q67 138 82 148T97 185V485Q80 487 62 487T28 486Q30 507 34 522Q109 550 194 560V147Q222 136 258 134Z" />
<glyph unicode="&#xf0;" glyph-name="eth" horiz-adv-x="512" d="M141 183T170 135T253 86T334 149T362 303T351 454Q323 463 290 463Q217 463 178 414T139 274ZM465 322Q465 197 403 117T247 36T96 97T37 266T113 445T299 517Q324 517 336 516Q320 567 290 617L181
567Q163 582 158 608L265 656Q228 705 196 739L228 768Q280 723 317 680L426 729Q444 714 450 689L347 642Q465 490 465 322Z" />
<glyph unicode="&#xf1;" glyph-name="ntilde" horiz-adv-x="578" d="M356 620Q332 620 297 645T245 670Q208 670 199 624H167Q181 739 255 739Q278 739 314 714T367 689Q403 689 413 734H444Q432 620 356 620ZM489 413V148Q524 135 558 134Q558 111 554 96H331Q330
102 330 111T333 134Q366 138 379 148T392 185V403Q392 450 371 473T312 497Q232 497 194 399V147Q222 136 258 134Q258 131 258 123T255 96H29Q28 102 28 112T32 134Q67 138 82 148T97 185V486Q68 487 53 487T28 487Q30 509 34 522Q106 549 184 559Q192 512 193
465Q244 565 348 565Q410 565 449 526T489 413Z" />
<glyph unicode="&#xf2;" glyph-name="ograve" horiz-adv-x="521" d="M193 785L299 614L272 598L117 734V749Q130 761 152 772T193 785ZM266 134Q381 134 381 309Q381 413 349 465T256 518Q139 518 139 333Q139 329 139 324Q145 134 266 134ZM363 565T423 501T484
325T422 149T259 84T97 148T37 324T99 500T262 565Z" />
<glyph unicode="&#xf3;" glyph-name="oacute" horiz-adv-x="533" d="M266 134Q381 134 381 309Q381 413 349 465T256 518Q139 518 139 333Q139 329 139 324Q145 134 266 134ZM363 565T423 501T484 325T422 149T259 84T97 148T37 324T99 500T262 565ZM249 607L354
779Q373 778 395 767T430 742V729L275 591L249 607Z" />
<glyph unicode="&#xf4;" glyph-name="ocircumflex" horiz-adv-x="533" d="M266 134Q381 134 381 309Q381 413 349 465T256 518Q139 518 139 333Q139 329 139 324Q145 134 266 134ZM363 565T423 501T484 325T422 149T259 84T97 148T37 324T99 500T262 565ZM414
617L392 595L265 671L140 595L117 617L244 743H287L414 617Z" />
<glyph unicode="&#xf5;" glyph-name="otilde" horiz-adv-x="521" d="M221 739Q244 739 280 714T333 689Q369 689 379 734H410Q398 620 322 620Q298 620 263 645T211 670Q174 670 165 624H133Q147 739 221 739ZM266 134Q381 134 381 309Q381 413 349 465T256 518Q139
518 139 333Q139 329 139 324Q145 134 266 134ZM363 565T423 501T484 325T422 149T259 84T97 148T37 324T99 500T262 565Z" />
<glyph unicode="&#xf6;" glyph-name="odieresis" horiz-adv-x="533" d="M266 134Q381 134 381 309Q381 413 349 465T256 518Q139 518 139 333Q139 329 139 324Q145 134 266 134ZM363 565T423 501T484 325T422 149T259 84T97 148T37 324T99 500T262 565ZM354 713T368
698T383 663T369 627T335 612T301 627T286 662T300 698T334 713ZM208 713T222 698T237 663T223 627T189 612T155 627T140 662T154 698T188 713Z" />
<glyph unicode="&#xf7;" glyph-name="divide" horiz-adv-x="627" d="M560 330H100L64 401V407H524L560 336V330ZM379 155T360 137T315 119T270 137T252 182T270 227T314 246T360 228T379 182ZM379 528T360 510T315 492T270 510T252 554T270 599T314 618T360 599T379 554Z" />
<glyph unicode="&#xf8;" glyph-name="oslash" horiz-adv-x="533" d="M174 136Q207 86 270 86Q392 86 392 265Q392 327 377 376L174 136ZM357 418Q325 470 263 470T170 421T139 287Q139 222 155 177L357 418ZM437 447Q496 382 496 274T431 101T266 36Q184 36 126
78L91 37H37L95 106Q37 170 37 278T101 452T266 517Q347 517 406 475L441 517H496L437 447Z" />
<glyph unicode="&#xf9;" glyph-name="ugrave" horiz-adv-x="568" d="M303 614L276 598L121 734V749Q134 761 156 772T197 785L303 614ZM465 468V165Q505 161 528 161Q529 151 529 142T529 127Q462 97 380 91Q372 135 370 188Q312 84 215 84Q154 84 114 124T74
239V489Q62 490 48 490T16 489Q16 507 21 524Q99 555 170 561V249Q170 203 192 178T251 153Q324 153 369 252V451Q369 504 335 522Q336 534 342 543Q387 562 444 562Q456 562 469 561Q465 525 465 468Z" />
<glyph unicode="&#xfa;" glyph-name="uacute" horiz-adv-x="573" d="M445 729L290 591L264 607L369 779Q388 778 410 767T445 742V729ZM465 468V165Q505 161 528 161Q529 151 529 142T529 127Q462 97 380 91Q372 135 370 188Q312 84 215 84Q154 84 114 124T74
239V489Q62 490 48 490T16 489Q16 507 21 524Q99 555 170 561V249Q170 203 192 178T251 153Q324 153 369 252V451Q369 504 335 522Q336 534 342 543Q387 562 444 562Q456 562 469 561Q465 525 465 468Z" />
<glyph unicode="&#xfb;" glyph-name="ucircumflex" horiz-adv-x="573" d="M280 671L155 595L132 617L259 743H302L429 617L407 595L280 671ZM465 468V165Q505 161 528 161Q529 151 529 142T529 127Q462 97 380 91Q372 135 370 188Q312 84 215 84Q154 84 114 124T74
239V489Q62 490 48 490T16 489Q16 507 21 524Q99 555 170 561V249Q170 203 192 178T251 153Q324 153 369 252V451Q369 504 335 522Q336 534 342 543Q387 562 444 562Q456 562 469 561Q465 525 465 468Z" />
<glyph unicode="&#xfc;" glyph-name="udieresis" horiz-adv-x="573" d="M398 642T384 627T350 612T316 627T301 662T315 698T349 713T383 698T398 663ZM252 642T238 627T204 612T170 627T155 662T169 698T203 713T237 698T252 663ZM465 468V165Q505 161 528 161Q529
151 529 142T529 127Q462 97 380 91Q372 135 370 188Q312 84 215 84Q154 84 114 124T74 239V489Q62 490 48 490T16 489Q16 507 21 524Q99 555 170 561V249Q170 203 192 178T251 153Q324 153 369 252V451Q369 504 335 522Q336 534 342 543Q387 562 444 562Q456 562
469 561Q465 525 465 468Z" />
<glyph unicode="&#xfd;" glyph-name="yacute" horiz-adv-x="516" d="M449 728L294 590L268 606L373 778Q392 777 414 766T449 741V728ZM113 -133H97Q86 -101 86 -79T88 -43H112Q150 -43 171 -29T211 26L232 71L74 459Q62 488 48 499T1 515Q-2 532 -2 540T-1 552H225Q229
539 229 515Q186 513 163 504L277 168Q283 192 292 215L386 452Q393 468 393 479T388 497Q376 511 333 515Q329 529 329 538T330 552H519Q520 535 512 515Q489 513 468 506L247 -4Q220 -70 189 -101T113 -133Z" />
<glyph unicode="&#xfe;" glyph-name="thorn" horiz-adv-x="548" d="M206 143T234 119T302 94T373 135T405 276T374 416T303 458T235 434T194 364V188Q206 143 234 119ZM194 436Q233 517 315 517T454 456T510 276T454 97T316 35T194 116V-125Q229 -141 273 -143Q273
-164 270 -181H29Q28 -176 28 -166T33 -143Q68 -139 82 -129T97 -91V691Q87 692 70 692T28 691Q30 713 34 727Q109 757 194 764V436Z" />
<glyph unicode="&#xff;" glyph-name="ydieresis" horiz-adv-x="516" d="M405 642T391 627T357 612T323 627T308 662T322 698T356 713T390 698T405 663ZM259 642T245 627T211 612T177 627T162 662T176 698T210 713T244 698T259 663ZM113 -133H97Q86 -101 86 -79T88
-43H112Q150 -43 171 -29T211 26L232 71L74 459Q62 488 48 499T1 515Q-2 532 -2 540T-1 552H225Q229 539 229 515Q186 513 163 504L277 168Q283 192 292 215L386 452Q393 468 393 479T388 497Q376 511 333 515Q329 529 329 538T330 552H519Q520 535 512 515Q489
513 468 506L247 -4Q220 -70 189 -101T113 -133Z" />
<glyph unicode="&#x2013;" glyph-name="endash" horiz-adv-x="614" d="M579 330H100L64 401V407H543L579 336V330Z" />
<glyph unicode="&#x2014;" glyph-name="emdash" horiz-adv-x="712" d="M627 330H100L64 401V407H591L627 336V330Z" />
<glyph unicode="&#x2018;" glyph-name="quoteleft" horiz-adv-x="249" d="M200 651L161 586Q67 625 69 722Q72 803 143 898L192 876Q139 797 137 750Q137 689 200 657V651Z" />
<glyph unicode="&#x2019;" glyph-name="quoteright" horiz-adv-x="248" d="M179 769Q179 766 179 763Q178 680 105 586L57 609Q110 685 112 735Q112 794 49 827V833L87 898Q179 860 179 769Z" />
<glyph unicode="&#x201a;" glyph-name="quotesinglbase" horiz-adv-x="248" d="M179 80Q179 77 179 73Q178 -11 105 -103L57 -81Q111 -3 111 51T49 137V142L87 207Q136 188 157 154T179 80Z" />
<glyph unicode="&#x201c;" glyph-name="quotedblleft" horiz-adv-x="405" d="M69 705Q69 709 69 713Q71 795 143 890L192 868Q137 792 137 738T199 649V643L161 579Q69 616 69 705ZM318 579Q225 616 225 704T299 890L348 868Q294 790 294 737T356 649V643L318 579Z" />
<glyph unicode="&#x201d;" glyph-name="quotedblright" horiz-adv-x="405" d="M262 579L213 601Q268 679 268 733T205 820V825L243 890Q336 854 336 765T262 579ZM179 763Q179 759 179 755Q178 671 105 579L57 601Q110 679 112 727Q112 786 49 820V825L88 890Q179
854 179 763Z" />
<glyph unicode="&#x201e;" glyph-name="quotedblbase" horiz-adv-x="405" d="M262 -104L213 -82Q268 -4 268 50T205 137V142L243 207Q336 171 336 82T262 -104ZM179 80Q179 76 179 72Q178 -12 105 -104L57 -82Q110 -4 112 44Q112 103 49 137V142L88 207Q179 171 179 80Z" />
<glyph unicode="&#x2022;" glyph-name="bullet" horiz-adv-x="321" d="M235 334T213 313T160 292T108 313T87 365T108 418T160 440T213 418T235 365Z" />
<glyph unicode="&#x2039;" glyph-name="guilsinglleft" horiz-adv-x="415" d="M97 368L265 557L304 537L183 368L304 198L265 177L97 368Z" />
<glyph unicode="&#x203a;" glyph-name="guilsinglright" horiz-adv-x="415" d="M149 605L317 416L149 225L110 246L231 416L110 585L149 605Z" />
</font>
</defs>
</svg>
