<?xml version="1.0" standalone="no"?>
<!DOCTYPE svg PUBLIC "-//W3C//DTD SVG 1.1//EN" "http://www.w3.org/Graphics/SVG/1.1/DTD/svg11.dtd">
<svg xmlns="http://www.w3.org/2000/svg">
<defs >
<font id="Podkova" horiz-adv-x="567" ><font-face
    font-family="Podkova SemiBold"
    units-per-em="1000"
    panose-1="0 0 7 0 0 0 0 0 0 0"
    ascent="859"
    descent="-249"
    alphabetic="0" />
<glyph unicode=" " glyph-name="space" horiz-adv-x="243" />
<glyph unicode="!" glyph-name="exclam" horiz-adv-x="226" d="M58 599H169L150 193H74L58 599ZM142 128T163 106T185 55Q185 25 164 4T113 -18Q82 -18 61 3T40 55Q40 85 61 106T113 128Q142 128 163 106Z" />
<glyph unicode="&quot;" glyph-name="quotedbl" horiz-adv-x="352" d="M54 599H150L126 405H77L54 599ZM203 599H299L275 405H226L203 599Z" />
<glyph unicode="#" glyph-name="numbersign" horiz-adv-x="619" d="M258 589H337L285 402H406L458 589H537L486 402H609V328H465L426 186H574V112H406L355 -72H275L325 112H205L155 -72H75L126 112H10V186H146L185 328H45V402H206L258 589ZM265 328L226 186H346L385
328H265Z" />
<glyph unicode="$" glyph-name="dollar" horiz-adv-x="470" d="M154 81T193 76V256Q115 266 72 309T29 419Q29 488 73 529T193 574V664H269V575Q312 573 342 564T406 534L423 408L344 400L331 479Q305 494 269 495V325L289 322Q364 310 402 273T440 169Q440 92
396 48T268 -1V-83H193V-1Q124 5 45 35L28 151L106 161L116 96Q154 81 193 76ZM152 495T131 476T110 423Q110 353 193 337V498Q152 495 131 476ZM311 85T333 107T356 165Q356 202 334 221T268 244V77Q311 85 333 107Z" />
<glyph unicode="%" glyph-name="percent" horiz-adv-x="788" d="M259 615T295 573T331 436Q331 342 295 300T194 258Q57 258 57 436Q57 615 194 615Q259 615 295 573ZM490 613H573L293 -21H209L490 613ZM166 538T151 516T135 436Q135 379 151 357T194 335Q221
335 237 357T253 436Q253 494 238 516T194 538Q166 538 151 516ZM731 338T731 159Q731 65 695 24T593 -18Q456 -18 456 159Q456 338 593 338Q731 338 731 159ZM566 261T551 239T535 159Q535 101 550 80T593 58Q620 58 636 80T652 159Q652 217 637 239T593 261Q566
261 551 239Z" />
<glyph unicode="&amp;" glyph-name="ampersand" horiz-adv-x="724" d="M449 27T396 1T267 -26Q215 -26 166 -9T84 51T51 163Q51 211 70 246T119 306T194 356Q141 428 141 484Q141 557 183 586T281 615Q341 615 380 584T419 495Q419 448 392 413T316 343Q369 282
465 204Q481 242 492 285T517 386L642 426L668 346L592 320Q562 209 533 150Q622 84 682 45L637 -31Q631 -27 622 -21T599 -4Q560 23 487 76Q449 27 396 1ZM231 548T231 486Q231 466 240 444T268 394Q301 417 319 439T338 491Q338 548 283 548Q231 548 231 486ZM199
263T175 233T151 163Q151 123 171 98T220 62T271 51Q322 51 357 70T422 128Q311 216 243 293Q199 263 175 233Z" />
<glyph unicode="&apos;" glyph-name="quotesingle" horiz-adv-x="203" d="M55 599H156L140 385H70L55 599Z" />
<glyph unicode="(" glyph-name="parenleft" horiz-adv-x="241" d="M172 525T143 433T114 263Q114 186 143 94T249 -75L198 -140Q150 -109 108 -48T39 95T12 263Q12 349 38 431T107 574T198 667L249 602Q172 525 143 433Z" />
<glyph unicode=")" glyph-name="parenright" horiz-adv-x="242" d="M91 636T134 575T203 431T230 263Q230 177 204 96T134 -47T43 -140L-8 -75Q70 1 98 93T127 263Q127 341 99 433T-8 602L43 667Q91 636 134 575Z" />
<glyph unicode="*" glyph-name="asterisk" horiz-adv-x="428" d="M162 655H259L246 508L384 568L416 476L270 442L365 331L287 273L212 396L138 273L57 329L157 443L14 474L43 568L177 508L162 655Z" />
<glyph unicode="+" glyph-name="plus" horiz-adv-x="484" d="M195 494H289V348H434V263H289V118H195V263H50V348H195V494Z" />
<glyph unicode="," glyph-name="comma" horiz-adv-x="226" d="M53 -95Q58 -88 74 -64T100 -17Q72 -12 57 6T42 49Q42 81 62 100T116 120Q146 120 169 97T192 44Q193 -35 89 -131L53 -95Z" />
<glyph unicode="-" glyph-name="hyphen" horiz-adv-x="411" d="M45 269H365V186H45V269Z" />
<glyph unicode="." glyph-name="period" horiz-adv-x="239" d="M149 128T171 106T193 55Q193 25 171 4T120 -18Q89 -18 68 3T47 55Q47 85 68 106T120 128Q149 128 171 106Z" />
<glyph unicode="/" glyph-name="slash" horiz-adv-x="373" d="M301 589H399L73 -131H-26L301 589Z" />
<glyph unicode="0" glyph-name="zero" horiz-adv-x="602" d="M417 607T482 535T548 294Q548 126 482 54T301 -18Q185 -18 120 54T54 294Q54 463 119 535T301 607Q417 607 482 535ZM259 517T229 500T181 433T163 294Q163 165 199 119T301 72Q366 72 402 118T439
294Q439 384 421 433T373 499T301 517Q259 517 229 500Z" />
<glyph unicode="1" glyph-name="one" horiz-adv-x="494" d="M255 599H320L319 89H472V0H56V89H218V448L91 343L33 414L255 599Z" />
<glyph unicode="2" glyph-name="two" horiz-adv-x="545" d="M34 83Q77 123 152 188Q237 262 280 304Q315 337 332 367T351 429Q351 471 323 495T249 519Q212 519 174 502T106 455L43 518Q135 610 256 610Q313 610 359 589T432 527T459 433Q459 388 429 343T343
248Q301 209 231 151L158 89H389L438 167L513 126L438 0H60L34 83Z" />
<glyph unicode="3" glyph-name="three" horiz-adv-x="515" d="M291 348T317 373T344 438Q344 475 315 497T238 519Q200 519 163 505T101 466L36 529Q72 567 126 587T243 607Q336 607 391 562T446 444Q446 397 418 359T345 306Q403 294 438 256T473 164Q473 81
413 32T249 -18Q176 -18 124 1T27 59L87 133Q128 100 164 86T248 71Q301 71 334 96T367 165Q367 207 331 233T234 259H178V348H247Q291 348 317 373Z" />
<glyph unicode="4" glyph-name="four" horiz-adv-x="560" d="M216 0V89H329V166H23V234L242 624L322 579L135 251H329V484H431V251L515 252V166H431V89H511V0H216Z" />
<glyph unicode="5" glyph-name="five" horiz-adv-x="527" d="M226 398T291 398Q345 398 389 375T460 307T486 200Q486 95 424 39T250 -17Q192 -17 138 4T45 65L112 128Q174 69 255 69Q318 69 351 101T384 193Q384 249 348 281T261 314Q228 314 195 300T136 257L76
285V589H440V500H174V364Q226 398 291 398Z" />
<glyph unicode="6" glyph-name="six" horiz-adv-x="559" d="M431 494T395 506T329 519Q273 519 236 490T180 414T160 314Q189 342 231 360T319 378Q406 378 463 333T520 182Q520 138 500 93T428 15T292 -18Q171 -18 112 59T53 291Q53 380 86 452T182 565T327 607Q376
607 420 591T485 561L448 484Q431 494 395 506ZM261 297T222 280T163 235Q170 138 207 103T299 68Q336 68 362 85T402 128T416 182Q416 239 388 268T307 297Q261 297 222 280Z" />
<glyph unicode="7" glyph-name="seven" horiz-adv-x="507" d="M390 398T340 258T290 0H186Q194 121 237 243T368 500H131L116 433L26 453L51 589H494V531Q390 398 340 258Z" />
<glyph unicode="8" glyph-name="eight" horiz-adv-x="541" d="M360 607T418 563T477 435Q477 393 450 355T376 305Q431 292 460 252T490 163Q490 74 427 28T271 -18Q177 -18 114 28T50 163Q50 212 80 252T165 305Q119 317 92 355T64 435Q64 518 122 562T270 607Q360
607 418 563ZM223 523T196 499T169 435Q169 395 196 369T270 343Q317 343 344 369T372 435Q372 474 345 498T270 523Q223 523 196 499ZM216 261T188 234T159 163Q159 120 189 93T270 66Q320 66 351 92T382 163Q382 206 353 233T271 261Q216 261 188 234Z" />
<glyph unicode="9" glyph-name="nine" horiz-adv-x="556" d="M134 94T171 82T244 70Q323 70 362 126T403 261Q373 232 332 214T245 196Q158 196 101 244T43 402Q43 448 63 494T135 574T272 607Q393 607 453 529T513 297Q513 190 476 120T376 16T241 -18Q189 -18
144 -2T78 28L115 105Q134 94 171 82ZM208 521T178 485T148 396Q148 341 177 309T256 277Q305 277 343 296T401 345Q395 448 358 484T264 521Q208 521 178 485Z" />
<glyph unicode=":" glyph-name="colon" horiz-adv-x="227" d="M142 454T164 432T187 381Q187 351 165 329T113 307Q83 307 62 329T40 381Q40 410 61 432T113 454Q142 454 164 432ZM142 128T164 106T187 55Q187 25 165 4T113 -18Q83 -18 62 3T40 55Q40 84 61 106T113
128Q142 128 164 106Z" />
<glyph unicode=";" glyph-name="semicolon" horiz-adv-x="223" d="M141 454T163 432T185 381Q185 351 163 329T112 307Q82 307 61 329T39 381Q39 411 60 432T112 454Q141 454 163 432ZM56 -88T72 -64T98 -16Q70 -12 55 6T40 50Q40 81 61 101T114 121Q144 121 167
98T190 44Q191 -31 141 -79T88 -131L51 -95Q56 -88 72 -64Z" />
<glyph unicode="&lt;" glyph-name="less" horiz-adv-x="484" d="M403 531L443 450L161 313V307L443 160L403 80L42 275V349L403 531Z" />
<glyph unicode="=" glyph-name="equal" horiz-adv-x="484" d="M50 351V436H434V351H50ZM50 178V263H434V178H50Z" />
<glyph unicode="&gt;" glyph-name="greater" horiz-adv-x="484" d="M81 531L442 349V275L81 80L41 160L323 307V313L41 450L81 531Z" />
<glyph unicode="?" glyph-name="question" horiz-adv-x="382" d="M43 583T91 595T188 607Q277 607 327 569T377 463Q377 419 353 390T274 332Q223 306 207 292T190 259Q190 248 197 238T222 213L167 169Q130 194 117 217T103 269Q103 305 125 329T208 387Q252
411 266 426T280 466Q280 494 254 511T186 529Q142 529 99 512L86 429L4 438L20 565Q43 583 91 595ZM215 128T237 106T259 55Q259 26 237 4T185 -18Q156 -18 134 3T112 55Q112 85 134 106T185 128Q215 128 237 106Z" />
<glyph unicode="@" glyph-name="at" horiz-adv-x="776" d="M549 -73T528 -85T471 -109T389 -120Q283 -120 210 -77T99 42T62 213Q62 291 98 367T210 494T396 545Q497 545 570 502T680 386T718 226Q718 163 696 118T639 50T564 26Q512 26 475 68Q457 52 439 42T389
31Q322 31 280 73T238 201Q238 290 287 333T408 376Q444 376 478 362T529 335V110Q543 94 563 94Q589 94 607 126T626 225Q626 333 570 399T396 466Q329 466 275 435T190 347T159 213Q159 81 225 21T391 -40Q425 -40 451 -32T507 -12L549 -71Q549 -73 528 -85ZM430
306T408 306Q325 306 325 200Q325 150 345 125T397 100Q425 100 437 110T452 121V297Q430 306 408 306Z" />
<glyph unicode="A" glyph-name="A" horiz-adv-x="669" d="M8 0V89H105L262 500H171V589H386L569 89H661V0H408V89H465L434 177H228L196 89H256V0H8ZM255 252H408L334 480L255 252Z" />
<glyph unicode="B" glyph-name="B" horiz-adv-x="579" d="M40 89H128V500H40V589H299Q412 589 471 549T531 432Q531 390 510 356T451 302Q496 287 522 251T549 161Q549 86 499 43T350 0H40V89ZM345 336Q382 336 402 357T423 418Q423 500 310 500H231V336H345ZM338
89Q389 89 415 111T442 175Q442 215 417 236T344 257H231L230 89H338Z" />
<glyph unicode="C" glyph-name="C" horiz-adv-x="595" d="M435 507T404 514T338 521Q248 521 199 462T150 295Q150 187 199 128T338 68Q385 68 445 91L466 175L552 155L524 23Q524 22 497 11T429 -9T338 -18Q203 -18 124 63T43 295Q43 390 79 460T181 569T335
607Q392 607 435 596T502 572T527 557L553 426L466 407L445 501Q435 507 404 514Z" />
<glyph unicode="D" glyph-name="D" horiz-adv-x="662" d="M456 589T538 509T620 284Q620 150 540 75T318 0H40V89H128V500H40V589H310Q456 589 538 509ZM405 89T459 138T513 284Q513 390 462 445T310 500H231V89H300Q405 89 459 138Z" />
<glyph unicode="E" glyph-name="E" horiz-adv-x="601" d="M41 589H491L547 421L463 392L424 500H232V346H408V258H232V89H448L485 192L569 163L513 0H40V89H129L130 500H41V589Z" />
<glyph unicode="F" glyph-name="F" horiz-adv-x="575" d="M40 589H491L548 417L464 389L424 500H231V342H389V253H230V89H355V0H40V89H129L130 500H40V589Z" />
<glyph unicode="G" glyph-name="G" horiz-adv-x="613" d="M496 17T451 0T334 -18Q249 -18 183 19T80 126T43 295Q43 389 79 459T182 568T340 607Q455 607 531 548L559 425L473 405L453 494Q427 508 402 515T342 522Q291 522 247 495T177 416T150 295Q150 186 201
128T333 69Q372 69 399 77T456 102V215H328V298H553V57Q496 17 451 0Z" />
<glyph unicode="H" glyph-name="H" horiz-adv-x="728" d="M40 589H292V500H232L231 344H497V500H438V589H688V500H600L598 89H687V0H438V89H497V255H231V89H290V0H40V89H129V500H40V589Z" />
<glyph unicode="I" glyph-name="I" horiz-adv-x="372" d="M41 589H333V500H239L238 89H333V0H40V89H136V500H41V589Z" />
<glyph unicode="J" glyph-name="J" horiz-adv-x="523" d="M406 115T355 49T200 -18Q163 -18 128 -8T52 20L24 155L111 176L132 81Q166 67 196 67Q247 67 275 108T303 223V500H176V589H495V500H406V238Q406 115 355 49Z" />
<glyph unicode="K" glyph-name="K" horiz-adv-x="684" d="M40 589H289V500H229V338H311L430 500H371V589H625V500H533L390 314L549 89H649V0H364V89H438L325 252H229L230 89H289V0H40V89H128V500H40V589Z" />
<glyph unicode="L" glyph-name="L" horiz-adv-x="558" d="M40 589H351V500H244L243 89H414L451 191L535 162L479 0H40V89H142L143 500H40V589Z" />
<glyph unicode="M" glyph-name="M" horiz-adv-x="860" d="M41 589H289L436 200L574 589H820V500H732V89H820V0H566V89H630V512L588 379L476 71H391L266 388L224 508L222 89H288V0H39V89H128L129 500H41V589Z" />
<glyph unicode="N" glyph-name="N" horiz-adv-x="732" d="M41 589H285L514 149V500H435V589H704V500H609V0H488L224 501L225 89H309V0H40V89H130L129 500H41V589Z" />
<glyph unicode="O" glyph-name="O" horiz-adv-x="656" d="M412 607T476 570T577 462T613 295Q613 199 578 128T478 20T328 -18Q244 -18 180 20T79 128T43 295Q43 391 78 461T178 569T327 607Q412 607 476 570ZM242 520T196 462T150 295Q150 186 196 128T328 69Q414
69 460 127T506 295Q506 404 460 462T328 520Q242 520 196 462Z" />
<glyph unicode="P" glyph-name="P" horiz-adv-x="553" d="M415 589T474 541T533 400Q533 306 474 257T302 207H229V89H337V0H40V89H127V500H40V589H302Q415 589 474 541ZM426 290T426 398Q426 450 395 475T301 500H230V290H301Q426 290 426 398Z" />
<glyph unicode="Q" glyph-name="Q" horiz-adv-x="680" d="M408 -18T328 -18Q244 -18 180 19T79 127T43 295Q43 392 79 462T179 570T327 607Q412 607 476 570T577 463T613 295Q613 151 535 67L660 -6L594 -88L470 16Q408 -18 328 -18ZM240 521T195 463T150 295Q150
185 195 127T328 68Q416 68 461 126T506 295Q506 405 461 463T328 521Q240 521 195 463Z" />
<glyph unicode="R" glyph-name="R" horiz-adv-x="623" d="M595 89V0H432L316 213H230V89H286V0H40V89H127V500H40V589H304Q430 589 480 543T531 401Q531 331 503 288T417 226L498 89H595ZM302 302Q368 302 396 322T424 401Q424 459 395 479T302 500H231V302H302Z" />
<glyph unicode="S" glyph-name="S" horiz-adv-x="551" d="M160 -18T62 20L43 151L127 161L139 87Q205 65 273 65Q334 65 373 88T413 161Q413 199 391 222T312 255L238 267Q149 281 103 325T56 439Q56 517 117 562T281 607Q335 607 379 599T469 571L487 433L400
424L387 510Q337 526 279 526Q218 526 183 505T148 445Q148 407 173 386T253 357L334 343Q508 317 508 174Q508 76 441 29T278 -18Q160 -18 62 20Z" />
<glyph unicode="T" glyph-name="T" horiz-adv-x="595" d="M32 589H558V403H466V500H347L346 89H434V0H154V89H243V500H125V403H32V589Z" />
<glyph unicode="U" glyph-name="U" horiz-adv-x="684" d="M567 103T510 43T340 -18Q229 -18 173 42T117 214V500H28V589H279V500H219V191Q219 67 340 67Q464 67 464 201V500H405V589H656V500H567V214Q567 103 510 43Z" />
<glyph unicode="V" glyph-name="V" horiz-adv-x="665" d="M5 589H266V500H203L299 251L344 108L386 247L477 500H411V589H659V500H577L397 0H288L92 500H5V589Z" />
<glyph unicode="W" glyph-name="W" horiz-adv-x="925" d="M4 589H264V500H206L275 246L310 109L337 243L413 514H534L604 247L632 109L665 247L739 500H676V589H922V500H841L683 0H564L500 267L470 397L435 267L367 0H251L93 500H4V589Z" />
<glyph unicode="X" glyph-name="X" horiz-adv-x="686" d="M24 0V88H118L279 296L112 500H28V589H291V500H231L342 363L451 500H390V589H648V500H556L401 298L570 88H667V0H388V88H453L338 229L225 88H284V0H24Z" />
<glyph unicode="Y" glyph-name="Y" horiz-adv-x="658" d="M5 589H265V500H205L335 320L472 500H403V589H653V500H583L382 245L381 88H475V0H186V88H280L281 243L86 500H5V589Z" />
<glyph unicode="Z" glyph-name="Z" horiz-adv-x="555" d="M62 589H497V524L178 89H400L437 189L522 161L467 0H45V71L360 500H138L118 408L33 421L62 589Z" />
<glyph unicode="[" glyph-name="bracketleft" horiz-adv-x="246" d="M56 659H247V578H153V-50H247V-131H56V659Z" />
<glyph unicode="\" glyph-name="backslash" horiz-adv-x="375" d="M-26 589H72L401 -131H302L-26 589Z" />
<glyph unicode="]" glyph-name="bracketright" horiz-adv-x="245" d="M-1 659H189V-131H-1V-50H93V578H-1V659Z" />
<glyph unicode="^" glyph-name="asciicircum" horiz-adv-x="484" d="M285 717L473 431L402 378L253 607H247L97 378L27 431L215 717H285Z" />
<glyph unicode="_" glyph-name="underscore" horiz-adv-x="609" d="M64 -17H545V-104H64V-17Z" />
<glyph unicode="`" glyph-name="grave" horiz-adv-x="291" d="M200 500L46 675L116 728L245 531L200 500Z" />
<glyph unicode="a" glyph-name="a" horiz-adv-x="541" d="M294 -17T220 -17Q130 -17 84 17T36 120Q36 187 81 222T213 257L331 256Q331 318 307 349T238 380Q191 380 154 368L144 316L61 329L79 429Q158 458 238 458Q333 458 382 407T432 259V90L520 61L494 -21L362
24Q294 -17 220 -17ZM179 186T159 170T139 122Q139 60 224 60Q284 60 331 92V186H216Q179 186 159 170Z" />
<glyph unicode="b" glyph-name="b" horiz-adv-x="536" d="M146 -17T66 39V546L-32 580L-4 663L165 605V427Q220 458 276 458Q386 458 440 401T494 227Q494 104 438 44T266 -17Q146 -17 66 39ZM329 64T360 104T392 227Q392 302 363 339T275 376Q217 376 165 341V83Q204
64 265 64Q329 64 360 104Z" />
<glyph unicode="c" glyph-name="c" horiz-adv-x="486" d="M313 381T277 381Q212 381 177 340T142 218Q142 146 179 106T275 65Q343 65 408 111L449 50Q403 14 364 -1T269 -17Q163 -17 102 45T40 218Q40 334 103 396T276 459Q314 459 349 452T430 430L450 308L366
290L352 369Q313 381 277 381Z" />
<glyph unicode="d" glyph-name="d" horiz-adv-x="579" d="M401 24Q373 5 339 -6T270 -17Q161 -17 101 47T40 226Q40 336 100 397T270 458Q318 458 369 439V546L272 580L300 663L469 605V94L558 63L531 -21L401 24ZM294 64T321 72T369 93V354Q349 364 322 370T271
376Q213 376 178 335T142 227Q142 154 177 109T271 64Q294 64 321 72Z" />
<glyph unicode="e" glyph-name="e" horiz-adv-x="510" d="M381 -17T280 -17Q168 -17 103 47T37 220Q37 290 65 344T145 428T263 458Q362 458 420 398T478 239Q478 222 474 190L134 189Q138 126 178 95T278 63Q362 63 425 114L463 53Q381 -17 280 -17ZM378 313T347
345T265 378Q214 378 178 345T136 261H378Q378 313 347 345Z" />
<glyph unicode="f" glyph-name="f" horiz-adv-x="376" d="M125 576T172 622T309 669Q349 669 383 658T442 627L406 557Q365 587 314 587Q271 587 247 560T223 482V440H347V361H223V80H313V0H41V80H125V361H41V440H125V489Q125 576 172 622Z" />
<glyph unicode="g" glyph-name="g" horiz-adv-x="559" d="M386 42T428 9T471 -89Q471 -160 410 -197T248 -234Q184 -234 120 -218T24 -184L60 -106Q151 -149 248 -149Q312 -149 343 -134T374 -92Q374 -66 353 -53T284 -40H132V134Q84 153 58 190T32 280Q32 362
88 410T241 458Q315 458 363 431L511 484L541 397L421 375Q450 340 450 286Q450 203 392 160T240 116Q224 116 217 117V42H301Q386 42 428 9ZM187 380T158 356T129 286Q129 244 159 219T242 193Q293 193 323 218T354 286Q354 331 325 355T242 380Q187 380 158 356Z"
/>
<glyph unicode="h" glyph-name="h" horiz-adv-x="624" d="M21 80H105V550L10 583L36 663L205 606V418Q235 437 272 447T345 458Q430 458 473 413T516 280V80H600V0H373V80H415V264Q415 322 393 348T321 374Q294 374 262 366T206 345V80H249V0H21V80Z" />
<glyph unicode="i" glyph-name="i" horiz-adv-x="330" d="M39 440H223V80H306V0H39V80H122V361H39V440ZM191 656T209 638T228 589Q228 559 210 541T161 523Q132 523 114 541T96 589Q96 619 114 637T161 656Q191 656 209 638Z" />
<glyph unicode="j" glyph-name="j" horiz-adv-x="271" d="M208 -94T199 -134T149 -204T22 -234Q5 -234 -16 -231T-44 -227L-32 -148Q-11 -151 18 -151Q61 -151 80 -135T104 -99T108 -43V361H24V440H208V-33Q208 -94 199 -134ZM178 656T196 638T215 589Q215 559
197 541T148 523Q119 523 101 541T83 589Q83 619 101 637T148 656Q178 656 196 638Z" />
<glyph unicode="k" glyph-name="k" horiz-adv-x="573" d="M39 664L208 606V260H288L347 361H296V440H525V361H446L361 224L454 80H538V0H400L289 181H208V80H246V0H24V80H108V551L13 584L39 664Z" />
<glyph unicode="l" glyph-name="l" horiz-adv-x="319" d="M27 0V80H111V556L13 583L37 664L211 615V80H295V0H27Z" />
<glyph unicode="m" glyph-name="m" horiz-adv-x="908" d="M44 80H127V342L32 373L58 453L197 407Q226 431 264 444T339 458Q384 458 419 444T477 403Q506 428 545 443T623 458Q716 458 757 415T799 273V80H884V0H658V80H699V263Q699 322 679 347T611 373Q585 373
558 364T514 339V80H555V0H371V80H413V263Q413 323 394 348T326 373Q300 373 273 364T228 339V80H270V0H44V80Z" />
<glyph unicode="n" glyph-name="n" horiz-adv-x="646" d="M44 80H128V339L32 372L59 453L195 406Q234 432 274 445T361 458Q444 458 491 410T538 278V80H621V0H395V80H438V262Q438 316 413 344T339 372Q312 372 283 363T228 338V80H271V0H44V80Z" />
<glyph unicode="o" glyph-name="o" horiz-adv-x="542" d="M377 458T439 395T501 219Q501 108 440 46T270 -17Q164 -17 103 46T42 219Q42 330 103 394T270 458Q377 458 439 395ZM208 376T175 336T142 219Q142 144 175 104T271 64Q335 64 368 104T401 219Q401 295
368 335T271 376Q208 376 175 336Z" />
<glyph unicode="p" glyph-name="p" horiz-adv-x="583" d="M30 -136H114V345L20 376L46 458L185 410Q217 433 253 445T323 458Q426 458 484 397T543 228Q543 155 515 99T434 13T314 -18Q258 -18 215 -4V-136H299V-215H30V-136ZM374 63T407 106T441 227Q441 300
410 338T319 376Q290 376 261 366T214 339V83Q231 74 258 69T313 63Q374 63 407 106Z" />
<glyph unicode="q" glyph-name="q" horiz-adv-x="535" d="M277 -136H370V9Q347 -4 319 -10T263 -17Q158 -17 99 48T40 229Q40 336 104 397T280 458Q331 458 380 444T470 401V-136H546V-215H277V-136ZM292 64T320 71T370 91V350Q328 376 269 376Q212 376 177 336T142
230Q142 155 177 110T268 64Q292 64 320 71Z" />
<glyph unicode="r" glyph-name="r" horiz-adv-x="452" d="M280 456T361 456Q399 456 420 447L437 331L354 313L344 368Q312 367 282 358T229 333L228 80H326V0H44V80H128V340L32 372L59 453L201 405Q280 456 361 456Z" />
<glyph unicode="s" glyph-name="s" horiz-adv-x="460" d="M271 384T230 384Q191 384 164 369T137 326Q137 300 157 285T222 265L275 258Q353 248 388 216T423 127Q423 59 369 21T233 -18Q133 -18 53 27L36 131L121 147L133 87Q176 64 228 64Q272 64 302 80T333
125Q333 150 316 162T252 181L200 188Q127 198 87 232T47 320Q47 384 99 421T230 458Q322 458 388 417L406 321L330 306L313 368Q271 384 230 384Z" />
<glyph unicode="t" glyph-name="t" horiz-adv-x="387" d="M192 -17T151 25T109 157V361H26V440H109V530L206 558V440H328V361H206V194Q206 129 221 96T274 62Q303 62 342 81L361 8Q303 -17 263 -17Q192 -17 151 25Z" />
<glyph unicode="u" glyph-name="u" horiz-adv-x="626" d="M410 6T370 -5T295 -17Q196 -17 150 26T104 162V361H24V440H205V178Q205 120 227 95T299 69Q326 69 358 77T414 99V361H334V440H515V96L605 65L579 -20L443 26Q410 6 370 -5Z" />
<glyph unicode="v" glyph-name="v" horiz-adv-x="588" d="M3 440H234V361H183L260 178L296 88L333 178L410 361H359V440H584V361H513L350 0H239L81 361H4L3 440Z" />
<glyph unicode="w" glyph-name="w" horiz-adv-x="772" d="M195 0L76 361H4V440H239V361H179L225 201L256 95L284 199L339 377H439L494 197L523 93L551 194L603 361H544V440H768V361H697L572 0H469L388 265L302 0H195Z" />
<glyph unicode="x" glyph-name="x" horiz-adv-x="609" d="M30 0V80H116L241 225L107 361H30V440H269V361H226L311 270L389 361H349V440H568V361H493L369 217L505 80H586V0H345V80H388L300 171L219 80H261V0H30Z" />
<glyph unicode="y" glyph-name="y" horiz-adv-x="576" d="M573 440V361H498L322 -81Q290 -160 249 -197T151 -235Q108 -235 71 -219L88 -142Q123 -153 146 -153Q173 -153 189 -143T220 -107T255 -29L257 -25L76 361H3V440H234V361H178L297 84L401 361H348L351 440H573Z" />
<glyph unicode="z" glyph-name="z" horiz-adv-x="480" d="M47 0V68L303 361H131L119 304L32 321L55 440H422V375L163 80H348L360 141L448 125L423 0H47Z" />
<glyph unicode="{" glyph-name="braceleft" horiz-adv-x="252" d="M67 292T72 313T77 371V473Q77 554 116 600T243 652L254 569Q201 563 183 537T165 457V342Q165 280 108 255Q165 232 165 168V59Q165 6 183 -21T254 -54L243 -136Q155 -130 116 -84T77 43V139Q77
179 72 198T50 218H-11V292H50Q67 292 72 313Z" />
<glyph unicode="|" glyph-name="bar" horiz-adv-x="307" d="M107 653H200V-216H107V653Z" />
<glyph unicode="}" glyph-name="braceright" horiz-adv-x="253" d="M186 218T181 199T176 139V43Q176 -125 9 -136L-2 -54Q52 -48 70 -21T88 59V168Q88 233 145 255Q88 279 88 342V457Q88 510 70 536T-2 569L9 652Q176 641 176 473V371Q176 334 181 313T203 292H264V218H203Q186
218 181 199Z" />
<glyph unicode="~" glyph-name="asciitilde" horiz-adv-x="484" d="M44 297Q82 329 109 344T171 360Q192 360 213 353T259 334Q281 324 295 319T322 314Q339 314 355 322T394 351L440 295Q396 258 372 245T313 231Q301 231 288 235T263 245T247 252Q225 263 209
269T176 275Q156 275 139 267T95 238L44 297Z" />
<glyph unicode="&#xa0;" glyph-name="uni00A0" horiz-adv-x="243" />
<glyph unicode="&#xa1;" glyph-name="exclamdown" horiz-adv-x="227" d="M142 447T164 425T186 373Q186 344 164 322T113 300Q83 300 62 322T40 373Q40 403 61 425T113 447Q142 447 164 425ZM75 236H151L170 -197H59L75 236Z" />
<glyph unicode="&#xa2;" glyph-name="cent" horiz-adv-x="453" d="M306 447T285 447V139Q311 144 341 156T391 183L433 122Q354 67 285 57V-29H207V58Q121 72 73 133T24 290Q24 387 72 449T207 525V616H285V528Q319 526 351 519T400 503L424 382L340 364L326 437Q306
447 285 447ZM165 430T144 391T122 290Q122 166 207 142V443Q165 430 144 391Z" />
<glyph unicode="&#xa3;" glyph-name="sterling" horiz-adv-x="551" d="M529 34Q498 9 461 -4T389 -18Q356 -18 332 -12T279 5Q255 14 237 19T196 24Q165 24 136 14T71 -19L25 45Q83 85 110 128T137 229Q137 237 135 259H44V327H123Q116 368 116 406Q116 507 167
557T319 608Q367 608 403 598T488 562L511 425L436 412L416 512Q394 526 371 531T315 536Q207 536 207 403Q207 366 214 327H378V259H226Q229 240 229 223Q229 184 212 154T153 82L155 79Q194 102 241 102Q259 102 274 99T303 91T320 85Q363 68 393 68Q441 68 484
104L529 34Z" />
<glyph unicode="&#xa4;" glyph-name="currency" horiz-adv-x="511" d="M41 159L106 202Q79 244 79 293Q79 344 107 389L41 433L87 502L170 445Q209 466 254 466Q299 466 339 446L421 502L467 434L403 391Q434 348 434 294Q434 242 405 201L468 160L421 92L341
145Q301 125 255 125Q207 125 169 145L87 91L41 159ZM296 197T324 225T353 294Q353 335 325 364T255 394Q215 394 187 365T158 294Q158 254 186 226T255 197Q296 197 324 225Z" />
<glyph unicode="&#xa5;" glyph-name="yen" horiz-adv-x="666" d="M190 0V88H284V135H131V196H284V234H131V296H258L90 500H9V589H269V500H213L340 331L461 500H407V589H657V500H567L410 296H538V234H386V196H538V135H386L385 88H479V0H190Z" />
<glyph unicode="&#xa6;" glyph-name="brokenbar" horiz-adv-x="307" d="M107 664H200V295H107V664ZM107 149H200V-216H107V149Z" />
<glyph unicode="&#xa7;" glyph-name="section" horiz-adv-x="521" d="M441 198T386 152Q438 109 436 46Q436 5 411 -27T343 -77T249 -95Q149 -95 81 -42L65 51L144 67L156 10Q189 -17 247 -17Q292 -17 317 0T343 49Q343 76 312 98T215 140Q152 160 117 196T81
279Q81 315 100 343T155 385Q96 427 96 487Q96 549 145 585T271 621Q314 621 355 608T430 571L444 474L364 460L352 528Q315 548 273 548Q231 548 208 534T184 493Q184 447 293 412Q364 388 402 348T441 256Q441 198 386 152ZM300 199T328 187Q351 213 351 243Q351
277 325 302T241 345Q218 352 205 358Q166 340 166 296Q166 269 192 248T273 208Q300 199 328 187Z" />
<glyph unicode="&#xa8;" glyph-name="dieresis" horiz-adv-x="415" d="M140 637T159 618T178 573Q178 547 159 528T114 509Q88 509 69 528T50 573Q50 599 69 618T114 637Q140 637 159 618ZM325 637T344 618T363 573Q363 547 345 528T300 509Q274 509 255 528T236
573Q236 599 255 618T300 637Q325 637 344 618Z" />
<glyph unicode="&#xa9;" glyph-name="copyright" horiz-adv-x="857" d="M536 663T619 616T750 484T797 293Q797 189 750 105T619 -26T430 -74Q325 -74 241 -27T108 105T60 293Q60 399 107 483T239 615T430 663Q536 663 619 616ZM342 586T277 547T176 439T140 288Q140
208 176 143T277 41T426 3Q510 3 576 40T680 143T718 288Q718 371 681 439T577 546T426 586Q342 586 277 547ZM503 418T488 423T444 429Q384 429 355 394T325 297Q325 235 355 199T444 162Q461 162 478 166T506 174L522 230L591 209L566 120Q562 118 546 111T501
98T440 92Q348 92 295 144T240 296Q240 393 294 445T440 498Q476 498 504 490T550 472T568 461L589 377L524 357L505 417Q503 418 488 423Z" />
<glyph unicode="&#xaa;" glyph-name="ordfeminine" horiz-adv-x="379" d="M257 179Q231 165 209 159T163 152Q108 152 76 178T44 246Q44 331 159 331H230Q230 370 218 385T173 401Q150 401 126 395L118 361L58 373L70 437Q88 445 116 451T172 458Q247 458 274
426T301 332V227L350 211L331 152L257 179ZM197 209T230 232V278H161Q117 278 117 245Q117 229 131 219T166 209Q197 209 230 232Z" />
<glyph unicode="&#xab;" glyph-name="guillemotleft" horiz-adv-x="335" d="M150 441L215 395L92 217L215 40L150 -6L-7 217L150 441ZM263 365L326 321L259 217L326 114L263 69L170 217L263 365Z" />
<glyph unicode="&#xac;" glyph-name="logicalnot" horiz-adv-x="484" d="M50 348H434V119H333V263H50V348Z" />
<glyph unicode="&#xad;" glyph-name="uni00AD" horiz-adv-x="374" d="M46 321H328V228H46V321Z" />
<glyph unicode="&#xae;" glyph-name="registered" horiz-adv-x="667" d="M257 65T196 100T100 196T65 333Q65 409 100 471T196 568T333 603Q410 603 471 568T567 472T602 333Q602 257 568 196T472 100T333 65Q257 65 196 100ZM391 127T437 153T508 226T534 329Q534
388 509 436T437 511T332 539Q274 539 229 512T158 436T133 329Q133 272 158 226T228 154T332 127Q391 127 437 153ZM218 250H256V422H218V470H339Q396 470 420 449T445 382Q445 353 433 335T396 306L428 250H473V200H394L345 297H311V250H337V200H218V250ZM340
343Q363 343 375 351T388 380Q388 405 376 413T338 422H312V343H340Z" />
<glyph unicode="&#xaf;" glyph-name="overscore" horiz-adv-x="439" d="M60 607H381V538H60V607Z" />
<glyph unicode="&#xb0;" glyph-name="degree" horiz-adv-x="386" d="M239 612T270 582T302 501Q302 450 271 421T193 391Q147 391 115 420T83 501Q83 552 115 582T193 612Q239 612 270 582ZM172 560T157 544T141 501Q141 474 156 459T193 443Q214 443 229 458T244
501Q244 528 229 544T193 560Q172 560 157 544Z" />
<glyph unicode="&#xb1;" glyph-name="plusminus" horiz-adv-x="484" d="M195 494H289V369H434V284H289V179H195V284H50V369H195V494ZM434 141V56H50V141H434Z" />
<glyph unicode="&#xb2;" glyph-name="uni00B2" horiz-adv-x="398" d="M25 297Q51 313 64 320Q133 361 168 386Q243 439 243 485Q243 508 227 519T182 531Q156 531 126 519T71 486L20 543Q58 576 95 592T177 608Q245 608 289 577T333 493Q333 420 241 358Q218 340
190 325T118 287H274L313 341L375 302L318 218H52L25 297Z" />
<glyph unicode="&#xb3;" glyph-name="uni00B3" horiz-adv-x="382" d="M208 438T226 452T245 487Q245 507 226 519T172 531Q145 531 118 523T70 499L24 553Q85 604 172 604Q245 604 287 574T329 497Q329 466 309 444T255 411Q344 390 344 323Q344 290 324 263T267
219T183 203Q131 203 91 216T17 256L60 322Q90 300 117 289T179 277Q215 277 236 291T257 327Q257 348 237 362T182 376H132V438H178Q208 438 226 452Z" />
<glyph unicode="&#xb4;" glyph-name="acute" horiz-adv-x="291" d="M175 728L246 675L91 500L47 531L175 728Z" />
<glyph unicode="&#xb5;" glyph-name="uni00B5" horiz-adv-x="637" d="M173 -225T136 -175T99 -17L98 440H199V201Q199 128 223 97T299 65Q327 65 357 76T408 105V440H508V97L599 66L572 -16L437 31Q403 9 364 -3T290 -16Q259 -16 232 -6T186 25V-25Q186 -88 207
-115T270 -143Q297 -143 328 -132L345 -210Q297 -225 254 -225Q173 -225 136 -175Z" />
<glyph unicode="&#xb6;" glyph-name="paragraph" horiz-adv-x="625" d="M136 285T94 322T52 437Q52 511 95 550T214 589H585V503H494V85H581V0H408V503H338V0H157V85H254V285H226Q136 285 94 322Z" />
<glyph unicode="&#xb7;" glyph-name="middot" horiz-adv-x="239" d="M149 293T171 272T193 220Q193 190 171 169T120 147Q90 147 69 168T47 220Q47 250 68 271T120 293Q149 293 171 272Z" />
<glyph unicode="&#xb8;" glyph-name="cedilla" horiz-adv-x="311" d="M111 -230T84 -217T33 -188L61 -144Q102 -172 150 -172Q197 -172 197 -136Q197 -119 184 -111T139 -102H89V0H152V-56Q212 -54 241 -74T271 -138Q271 -182 238 -206T151 -230Q111 -230 84 -217Z" />
<glyph unicode="&#xb9;" glyph-name="uni00B9" horiz-adv-x="366" d="M188 589H240V287H354V218H42V287H156L157 480L61 415L23 468L188 589Z" />
<glyph unicode="&#xba;" glyph-name="ordmasculine" horiz-adv-x="381" d="M256 458T296 418T336 306Q336 238 297 197T190 156Q125 156 85 196T45 306Q45 377 85 417T190 458Q256 458 296 418ZM157 393T140 370T122 306Q122 265 139 243T191 220Q224 220 242
243T260 306Q260 347 242 370T191 393Q157 393 140 370Z" />
<glyph unicode="&#xbb;" glyph-name="guillemotright" horiz-adv-x="335" d="M184 441L341 217L184 -6L120 40L243 217L120 395L184 441ZM71 365L165 217L71 69L9 114L76 217L9 321L71 365Z" />
<glyph unicode="&#xbc;" glyph-name="onequarter" horiz-adv-x="955" d="M188 589H240V287H354V218H42V287H156L157 480L61 415L23 468L188 589ZM654 652H736L296 -76H213L654 652ZM685 0V69H771V107H548V182L722 408L782 356L635 176H771V294H856V176H921V107H856V69H919V0H685Z"
/>
<glyph unicode="&#xbd;" glyph-name="onehalf" horiz-adv-x="966" d="M188 589H240V287H354V218H42V287H156L157 480L61 415L23 468L188 589ZM654 652H736L296 -76H213L654 652ZM593 79Q619 95 632 102Q701 143 736 168Q811 221 811 267Q811 290 795 301T750 313Q724
313 694 301T639 268L588 325Q626 358 663 374T745 390Q813 390 857 359T901 275Q901 202 809 140Q786 122 758 107T686 69H842L881 123L943 84L886 0H620L593 79Z" />
<glyph unicode="&#xbe;" glyph-name="threequarters" horiz-adv-x="936" d="M208 438T226 452T245 487Q245 507 226 519T172 531Q145 531 118 523T70 499L24 553Q85 604 172 604Q245 604 287 574T329 497Q329 466 309 444T255 411Q344 390 344 323Q344 290 324
263T267 219T183 203Q131 203 91 216T17 256L60 322Q90 300 117 289T179 277Q215 277 236 291T257 327Q257 348 237 362T182 376H132V438H178Q208 438 226 452ZM635 652H717L277 -76H194L635 652ZM666 0V69H752V107H529V182L703 408L763 356L616 176H752V294H837V176H902V107H837V69H900V0H666Z"
/>
<glyph unicode="&#xbf;" glyph-name="questiondown" horiz-adv-x="382" d="M167 249T145 271T123 322Q123 351 145 373T197 395Q226 395 248 374T270 322Q270 292 248 271T197 249Q167 249 145 271ZM339 -206T291 -218T194 -230Q105 -230 55 -192T5 -86Q5 -42
29 -13T108 45Q159 71 175 85T192 118Q192 129 185 139T160 164L215 208Q252 183 265 160T279 108Q279 72 257 48T174 -10Q130 -34 116 -49T102 -89Q102 -117 128 -134T196 -152Q240 -152 283 -135L296 -52L378 -61L362 -188Q339 -206 291 -218Z" />
<glyph unicode="&#xc0;" glyph-name="Agrave" horiz-adv-x="669" d="M8 0V89H105L262 500H171V589H386L569 89H661V0H408V89H465L434 177H228L196 89H256V0H8ZM255 252H408L334 480L255 252ZM150 781L393 694L380 653L127 695L150 781Z" />
<glyph unicode="&#xc1;" glyph-name="Aacute" horiz-adv-x="669" d="M8 0V89H105L262 500H171V589H386L569 89H661V0H408V89H465L434 177H228L196 89H256V0H8ZM255 252H408L334 480L255 252ZM480 783L503 696L251 654L237 696L480 783Z" />
<glyph unicode="&#xc2;" glyph-name="Acircumflex" horiz-adv-x="669" d="M8 0V89H105L262 500H171V589H386L569 89H661V0H408V89H465L434 177H228L196 89H256V0H8ZM255 252H408L334 480L255 252ZM326 789L502 687L476 649L326 706L173 649L149 687L326 789Z" />
<glyph unicode="&#xc3;" glyph-name="Atilde" horiz-adv-x="669" d="M8 0V89H105L262 500H171V589H386L569 89H661V0H408V89H465L434 177H228L196 89H256V0H8ZM255 252H408L334 480L255 252ZM168 725Q202 751 226 761T284 771Q304 771 319 766T359 749Q390 731
412 731Q430 731 444 737T485 762L511 701Q481 674 458 664T403 654Q388 654 375 659T342 675Q323 685 310 690T282 695Q262 695 248 691T218 679T194 667L168 725Z" />
<glyph unicode="&#xc4;" glyph-name="Adieresis" horiz-adv-x="669" d="M8 0V89H105L262 500H171V589H386L569 89H661V0H408V89H465L434 177H228L196 89H256V0H8ZM255 252H408L334 480L255 252ZM257 792T276 773T296 728Q296 702 277 683T232 664Q206 664 187
683T168 728Q168 754 187 773T232 792Q257 792 276 773ZM443 792T462 773T481 728Q481 702 463 683T418 664Q392 664 373 683T354 728Q354 754 373 773T418 792Q443 792 462 773Z" />
<glyph unicode="&#xc5;" glyph-name="Aring" horiz-adv-x="691" d="M661 89V0H408V89H465L434 177H228L196 89H256V0H8V89H105L262 500H171V589H276Q247 616 247 662Q247 706 273 732T344 759Q388 759 414 733T441 662Q441 632 428 609T391 575L569 89H661ZM324
707T311 695T298 662Q298 642 311 630T344 617Q364 617 376 629T389 662Q389 682 377 694T344 707Q324 707 311 695ZM255 252H408L334 480L255 252Z" />
<glyph unicode="&#xc6;" glyph-name="AE" horiz-adv-x="931" d="M28 0V89H125L381 500H284V589H821L877 421L793 392L754 500H577V340H738V252H576V89H777L815 192L899 163L844 0H385V89H474V168H273L225 89H280V0H28ZM325 256H474L475 500L325 256Z" />
<glyph unicode="&#xc7;" glyph-name="Ccedilla" horiz-adv-x="595" d="M466 175L552 155L524 23Q519 20 500 12T446 -5T370 -17V-56Q430 -54 459 -74T489 -138Q489 -182 456 -206T369 -230Q329 -230 302 -217T251 -188L279 -144Q320 -172 368 -172Q415 -172 415
-136Q415 -119 402 -111T357 -102H307V-17Q185 -8 115 72T43 295Q43 390 79 460T181 569T335 607Q392 607 435 596T502 572T527 557L553 426L466 407L445 501Q435 507 404 514T338 521Q248 521 199 462T150 295Q150 187 199 128T338 68Q385 68 445 91L466 175Z"
/>
<glyph unicode="&#xc8;" glyph-name="Egrave" horiz-adv-x="601" d="M41 589H491L547 421L463 392L424 500H232V346H408V258H232V89H448L485 192L569 163L513 0H40V89H129L130 500H41V589ZM121 781L364 694L351 653L98 695L121 781Z" />
<glyph unicode="&#xc9;" glyph-name="Eacute" horiz-adv-x="601" d="M41 589H491L547 421L463 392L424 500H232V346H408V258H232V89H448L485 192L569 163L513 0H40V89H129L130 500H41V589ZM451 783L474 696L222 654L208 696L451 783Z" />
<glyph unicode="&#xca;" glyph-name="Ecircumflex" horiz-adv-x="601" d="M41 589H491L547 421L463 392L424 500H232V346H408V258H232V89H448L485 192L569 163L513 0H40V89H129L130 500H41V589ZM297 789L473 687L447 649L297 706L144 649L120 687L297 789Z" />
<glyph unicode="&#xcb;" glyph-name="Edieresis" horiz-adv-x="601" d="M41 589H491L547 421L463 392L424 500H232V346H408V258H232V89H448L485 192L569 163L513 0H40V89H129L130 500H41V589ZM228 792T247 773T267 728Q267 702 248 683T203 664Q177 664 158 683T139
728Q139 754 158 773T203 792Q228 792 247 773ZM414 792T433 773T452 728Q452 702 434 683T389 664Q363 664 344 683T325 728Q325 754 344 773T389 792Q414 792 433 773Z" />
<glyph unicode="&#xcc;" glyph-name="Igrave" horiz-adv-x="372" d="M41 589H333V500H239L238 89H333V0H40V89H136V500H41V589ZM11 781L254 694L241 653L-12 695L11 781Z" />
<glyph unicode="&#xcd;" glyph-name="Iacute" horiz-adv-x="372" d="M41 589H333V500H239L238 89H333V0H40V89H136V500H41V589ZM341 783L364 696L112 654L98 696L341 783Z" />
<glyph unicode="&#xce;" glyph-name="Icircumflex" horiz-adv-x="372" d="M41 589H333V500H239L238 89H333V0H40V89H136V500H41V589ZM187 789L363 687L337 649L187 706L34 649L10 687L187 789Z" />
<glyph unicode="&#xcf;" glyph-name="Idieresis" horiz-adv-x="372" d="M41 589H333V500H239L238 89H333V0H40V89H136V500H41V589ZM118 792T137 773T157 728Q157 702 138 683T93 664Q67 664 48 683T29 728Q29 754 48 773T93 792Q118 792 137 773ZM304 792T323
773T342 728Q342 702 324 683T279 664Q253 664 234 683T215 728Q215 754 234 773T279 792Q304 792 323 773Z" />
<glyph unicode="&#xd0;" glyph-name="Eth" horiz-adv-x="677" d="M473 589T553 518T634 284Q634 145 551 73T332 0H54V89H142V261H54V347H142V500H54V589H324Q473 589 553 518ZM423 89T475 134T527 284Q527 368 505 415T438 481T324 500H245V347H347V261H245V89H314Q423
89 475 134Z" />
<glyph unicode="&#xd1;" glyph-name="Ntilde" horiz-adv-x="732" d="M41 589H285L514 149V500H435V589H704V500H609V0H488L224 501L225 89H309V0H40V89H130L129 500H41V589ZM211 725Q245 751 269 761T327 771Q347 771 362 766T402 749Q433 731 455 731Q473 731
487 737T528 762L554 701Q524 674 501 664T446 654Q431 654 418 659T385 675Q366 685 353 690T325 695Q305 695 291 691T261 679T237 667L211 725Z" />
<glyph unicode="&#xd2;" glyph-name="Ograve" horiz-adv-x="656" d="M412 607T476 570T577 462T613 295Q613 199 578 128T478 20T328 -18Q244 -18 180 20T79 128T43 295Q43 391 78 461T178 569T327 607Q412 607 476 570ZM242 520T196 462T150 295Q150 186 196
128T328 69Q414 69 460 127T506 295Q506 404 460 462T328 520Q242 520 196 462ZM152 781L395 694L382 653L129 695L152 781Z" />
<glyph unicode="&#xd3;" glyph-name="Oacute" horiz-adv-x="656" d="M412 607T476 570T577 462T613 295Q613 199 578 128T478 20T328 -18Q244 -18 180 20T79 128T43 295Q43 391 78 461T178 569T327 607Q412 607 476 570ZM242 520T196 462T150 295Q150 186 196
128T328 69Q414 69 460 127T506 295Q506 404 460 462T328 520Q242 520 196 462ZM482 783L505 696L253 654L239 696L482 783Z" />
<glyph unicode="&#xd4;" glyph-name="Ocircumflex" horiz-adv-x="656" d="M412 607T476 570T577 462T613 295Q613 199 578 128T478 20T328 -18Q244 -18 180 20T79 128T43 295Q43 391 78 461T178 569T327 607Q412 607 476 570ZM242 520T196 462T150 295Q150 186
196 128T328 69Q414 69 460 127T506 295Q506 404 460 462T328 520Q242 520 196 462ZM328 789L504 687L478 649L328 706L175 649L151 687L328 789Z" />
<glyph unicode="&#xd5;" glyph-name="Otilde" horiz-adv-x="656" d="M412 607T476 570T577 462T613 295Q613 199 578 128T478 20T328 -18Q244 -18 180 20T79 128T43 295Q43 391 78 461T178 569T327 607Q412 607 476 570ZM242 520T196 462T150 295Q150 186 196
128T328 69Q414 69 460 127T506 295Q506 404 460 462T328 520Q242 520 196 462ZM170 725Q204 751 228 761T286 771Q306 771 321 766T361 749Q392 731 414 731Q432 731 446 737T487 762L513 701Q483 674 460 664T405 654Q390 654 377 659T344 675Q325 685 312 690T284
695Q264 695 250 691T220 679T196 667L170 725Z" />
<glyph unicode="&#xd6;" glyph-name="Odieresis" horiz-adv-x="656" d="M412 607T476 570T577 462T613 295Q613 199 578 128T478 20T328 -18Q244 -18 180 20T79 128T43 295Q43 391 78 461T178 569T327 607Q412 607 476 570ZM242 520T196 462T150 295Q150 186 196
128T328 69Q414 69 460 127T506 295Q506 404 460 462T328 520Q242 520 196 462ZM259 792T278 773T298 728Q298 702 279 683T234 664Q208 664 189 683T170 728Q170 754 189 773T234 792Q259 792 278 773ZM445 792T464 773T483 728Q483 702 465 683T420 664Q394 664
375 683T356 728Q356 754 375 773T420 792Q445 792 464 773Z" />
<glyph unicode="&#xd7;" glyph-name="multiply" horiz-adv-x="484" d="M141 470L243 368L347 471L408 412L303 307L406 205L342 141L240 244L136 140L76 200L180 304L77 407L141 470Z" />
<glyph unicode="&#xd8;" glyph-name="Oslash" horiz-adv-x="656" d="M558 508T585 444T613 295Q613 199 578 128T478 20T328 -18Q285 -18 244 -7L216 -69H128L171 25Q110 63 77 132T43 295Q43 391 78 461T178 569T327 607Q386 607 438 588L467 651H555L507 548Q558
508 585 444ZM242 520T196 462T150 295Q150 164 216 107L399 508Q368 520 328 520Q242 520 196 462ZM414 69T460 127T506 295Q506 404 461 461L285 73Q302 69 328 69Q414 69 460 127Z" />
<glyph unicode="&#xd9;" glyph-name="Ugrave" horiz-adv-x="684" d="M567 103T510 43T340 -18Q229 -18 173 42T117 214V500H28V589H279V500H219V191Q219 67 340 67Q464 67 464 201V500H405V589H656V500H567V214Q567 103 510 43ZM166 781L409 694L396 653L143 695L166
781Z" />
<glyph unicode="&#xda;" glyph-name="Uacute" horiz-adv-x="684" d="M567 103T510 43T340 -18Q229 -18 173 42T117 214V500H28V589H279V500H219V191Q219 67 340 67Q464 67 464 201V500H405V589H656V500H567V214Q567 103 510 43ZM496 783L519 696L267 654L253 696L496
783Z" />
<glyph unicode="&#xdb;" glyph-name="Ucircumflex" horiz-adv-x="684" d="M567 103T510 43T340 -18Q229 -18 173 42T117 214V500H28V589H279V500H219V191Q219 67 340 67Q464 67 464 201V500H405V589H656V500H567V214Q567 103 510 43ZM342 789L518 687L492 649L342
706L189 649L165 687L342 789Z" />
<glyph unicode="&#xdc;" glyph-name="Udieresis" horiz-adv-x="684" d="M567 103T510 43T340 -18Q229 -18 173 42T117 214V500H28V589H279V500H219V191Q219 67 340 67Q464 67 464 201V500H405V589H656V500H567V214Q567 103 510 43ZM273 792T292 773T312 728Q312
702 293 683T248 664Q222 664 203 683T184 728Q184 754 203 773T248 792Q273 792 292 773ZM459 792T478 773T497 728Q497 702 479 683T434 664Q408 664 389 683T370 728Q370 754 389 773T434 792Q459 792 478 773Z" />
<glyph unicode="&#xdd;" glyph-name="Yacute" horiz-adv-x="658" d="M5 589H265V500H205L335 320L472 500H403V589H653V500H583L382 245L381 88H475V0H186V88H280L281 243L86 500H5V589ZM483 783L506 696L254 654L240 696L483 783Z" />
<glyph unicode="&#xde;" glyph-name="Thorn" horiz-adv-x="552" d="M40 89H127V508H40V589H315V508H230V459H317Q426 459 479 423T532 311Q532 232 479 192T323 152H229V89H344V0H40V89ZM313 237Q369 237 397 251T425 306Q425 346 397 361T312 376H230V237H313Z" />
<glyph unicode="&#xdf;" glyph-name="germandbls" horiz-adv-x="599" d="M377 -16T340 -3T285 31L269 119L348 135L357 80Q366 72 382 67T416 61Q443 61 460 76T477 116Q477 141 459 160T401 195Q341 219 313 250T285 324Q285 366 303 391T354 443Q379 463 391
478T403 514Q403 541 380 558T319 576Q267 576 246 550T225 457V0H40V85H124V356H40V440H124V481Q124 569 171 611T314 653Q397 653 446 616T495 514Q495 474 477 449T424 395Q400 375 390 363T379 333Q379 312 395 298T455 266Q513 242 541 206T569 120Q569 60
527 22T416 -16Q377 -16 340 -3Z" />
<glyph unicode="&#xe0;" glyph-name="agrave" horiz-adv-x="541" d="M294 -17T220 -17Q130 -17 84 17T36 120Q36 187 81 222T213 257L331 256Q331 318 307 349T238 380Q191 380 154 368L144 316L61 329L79 429Q158 458 238 458Q333 458 382 407T432 259V90L520
61L494 -21L362 24Q294 -17 220 -17ZM179 186T159 170T139 122Q139 60 224 60Q284 60 331 92V186H216Q179 186 159 170ZM239 500L85 675L155 728L284 531L239 500Z" />
<glyph unicode="&#xe1;" glyph-name="aacute" horiz-adv-x="541" d="M294 -17T220 -17Q130 -17 84 17T36 120Q36 187 81 222T213 257L331 256Q331 318 307 349T238 380Q191 380 154 368L144 316L61 329L79 429Q158 458 238 458Q333 458 382 407T432 259V90L520
61L494 -21L362 24Q294 -17 220 -17ZM179 186T159 170T139 122Q139 60 224 60Q284 60 331 92V186H216Q179 186 159 170ZM322 728L393 675L238 500L194 531L322 728Z" />
<glyph unicode="&#xe2;" glyph-name="acircumflex" horiz-adv-x="541" d="M294 -17T220 -17Q130 -17 84 17T36 120Q36 187 81 222T213 257L331 256Q331 318 307 349T238 380Q191 380 154 368L144 316L61 329L79 429Q158 458 238 458Q333 458 382 407T432 259V90L520
61L494 -21L362 24Q294 -17 220 -17ZM179 186T159 170T139 122Q139 60 224 60Q284 60 331 92V186H216Q179 186 159 170ZM243 658L402 549L371 501L244 573L112 502L81 549L243 658Z" />
<glyph unicode="&#xe3;" glyph-name="atilde" horiz-adv-x="541" d="M294 -17T220 -17Q130 -17 84 17T36 120Q36 187 81 222T213 257L331 256Q331 318 307 349T238 380Q191 380 154 368L144 316L61 329L79 429Q158 458 238 458Q333 458 382 407T432 259V90L520
61L494 -21L362 24Q294 -17 220 -17ZM179 186T159 170T139 122Q139 60 224 60Q284 60 331 92V186H216Q179 186 159 170ZM84 576Q118 602 142 612T200 622Q220 622 235 617T275 600Q306 582 328 582Q346 582 360 588T401 613L427 552Q397 525 374 515T319 505Q304
505 291 510T258 526Q239 536 226 541T198 546Q178 546 164 542T134 530T110 518L84 576Z" />
<glyph unicode="&#xe4;" glyph-name="adieresis" horiz-adv-x="541" d="M294 -17T220 -17Q130 -17 84 17T36 120Q36 187 81 222T213 257L331 256Q331 318 307 349T238 380Q191 380 154 368L144 316L61 329L79 429Q158 458 238 458Q333 458 382 407T432 259V90L520
61L494 -21L362 24Q294 -17 220 -17ZM179 186T159 170T139 122Q139 60 224 60Q284 60 331 92V186H216Q179 186 159 170ZM173 643T192 624T212 579Q212 553 193 534T148 515Q122 515 103 534T84 579Q84 605 103 624T148 643Q173 643 192 624ZM359 643T378 624T397
579Q397 553 379 534T334 515Q308 515 289 534T270 579Q270 605 289 624T334 643Q359 643 378 624Z" />
<glyph unicode="&#xe5;" glyph-name="aring" horiz-adv-x="541" d="M294 -17T220 -17Q130 -17 84 17T36 120Q36 187 81 222T213 257L331 256Q331 318 307 349T238 380Q191 380 154 368L144 316L61 329L79 429Q158 458 238 458Q333 458 382 407T432 259V90L520
61L494 -21L362 24Q294 -17 220 -17ZM179 186T159 170T139 122Q139 60 224 60Q284 60 331 92V186H216Q179 186 159 170ZM286 704T312 678T339 607Q339 563 313 537T242 510Q198 510 172 536T145 607Q145 651 171 677T242 704Q286 704 312 678ZM222 652T209 640T196
607Q196 587 209 575T242 562Q262 562 274 574T287 607Q287 627 275 639T242 652Q222 652 209 640Z" />
<glyph unicode="&#xe6;" glyph-name="ae" horiz-adv-x="792" d="M119 438T153 445T231 453Q296 453 337 429T394 361Q424 405 468 429T565 453Q617 453 658 429T724 357T748 243Q748 215 744 191L429 190Q434 129 468 96T559 62Q613 62 647 77T708 110L752 52Q750
47 726 30T658 -3T558 -18Q455 -18 395 41Q365 20 313 1T220 -18Q135 -18 86 20T36 120Q36 192 85 226T213 261L336 260Q336 297 329 320T299 355T235 367Q198 367 154 357L145 306L61 321L78 422Q119 438 153 445ZM660 371T559 371Q508 371 474 344T430 266H662Q660
371 559 371ZM181 185T160 172T139 122Q139 93 163 78T224 63Q255 63 293 75T355 102Q338 144 335 184L216 185Q181 185 160 172Z" />
<glyph unicode="&#xe7;" glyph-name="ccedilla" horiz-adv-x="486" d="M412 21T381 6T311 -14V-56Q371 -54 400 -74T430 -138Q430 -182 397 -206T310 -230Q270 -230 243 -217T192 -188L220 -144Q261 -172 309 -172Q356 -172 356 -136Q356 -119 343 -111T298 -102H248V-16Q152
-10 96 51T40 218Q40 334 103 396T276 459Q314 459 349 452T430 430L450 308L366 290L352 369Q313 381 277 381Q212 381 177 340T142 218Q142 146 179 106T275 65Q343 65 408 111L449 50Q412 21 381 6Z" />
<glyph unicode="&#xe8;" glyph-name="egrave" horiz-adv-x="510" d="M381 -17T280 -17Q168 -17 103 47T37 220Q37 290 65 344T145 428T263 458Q362 458 420 398T478 239Q478 222 474 190L134 189Q138 126 178 95T278 63Q362 63 425 114L463 53Q381 -17 280 -17ZM378
313T347 345T265 378Q214 378 178 345T136 261H378Q378 313 347 345ZM257 500L103 675L173 728L302 531L257 500Z" />
<glyph unicode="&#xe9;" glyph-name="eacute" horiz-adv-x="510" d="M381 -17T280 -17Q168 -17 103 47T37 220Q37 290 65 344T145 428T263 458Q362 458 420 398T478 239Q478 222 474 190L134 189Q138 126 178 95T278 63Q362 63 425 114L463 53Q381 -17 280 -17ZM378
313T347 345T265 378Q214 378 178 345T136 261H378Q378 313 347 345ZM340 728L411 675L256 500L212 531L340 728Z" />
<glyph unicode="&#xea;" glyph-name="ecircumflex" horiz-adv-x="510" d="M381 -17T280 -17Q168 -17 103 47T37 220Q37 290 65 344T145 428T263 458Q362 458 420 398T478 239Q478 222 474 190L134 189Q138 126 178 95T278 63Q362 63 425 114L463 53Q381 -17 280
-17ZM378 313T347 345T265 378Q214 378 178 345T136 261H378Q378 313 347 345ZM261 658L420 549L389 501L262 573L130 502L99 549L261 658Z" />
<glyph unicode="&#xeb;" glyph-name="edieresis" horiz-adv-x="510" d="M381 -17T280 -17Q168 -17 103 47T37 220Q37 290 65 344T145 428T263 458Q362 458 420 398T478 239Q478 222 474 190L134 189Q138 126 178 95T278 63Q362 63 425 114L463 53Q381 -17 280
-17ZM378 313T347 345T265 378Q214 378 178 345T136 261H378Q378 313 347 345ZM191 643T210 624T230 579Q230 553 211 534T166 515Q140 515 121 534T102 579Q102 605 121 624T166 643Q191 643 210 624ZM377 643T396 624T415 579Q415 553 397 534T352 515Q326 515
307 534T288 579Q288 605 307 624T352 643Q377 643 396 624Z" />
<glyph unicode="&#xec;" glyph-name="igrave" horiz-adv-x="330" d="M39 440H223V80H306V0H39V80H122V361H39V440ZM160 500L6 675L76 728L205 531L160 500Z" />
<glyph unicode="&#xed;" glyph-name="iacute" horiz-adv-x="330" d="M39 440H223V80H306V0H39V80H122V361H39V440ZM243 728L314 675L159 500L115 531L243 728Z" />
<glyph unicode="&#xee;" glyph-name="icircumflex" horiz-adv-x="330" d="M39 440H223V80H306V0H39V80H122V361H39V440ZM164 658L323 549L292 501L165 573L33 502L2 549L164 658Z" />
<glyph unicode="&#xef;" glyph-name="idieresis" horiz-adv-x="330" d="M39 440H223V80H306V0H39V80H122V361H39V440ZM94 643T113 624T133 579Q133 553 114 534T69 515Q43 515 24 534T5 579Q5 605 24 624T69 643Q94 643 113 624ZM280 643T299 624T318 579Q318
553 300 534T255 515Q229 515 210 534T191 579Q191 605 210 624T255 643Q280 643 299 624Z" />
<glyph unicode="&#xf0;" glyph-name="eth" horiz-adv-x="542" d="M393 537T444 449T498 262Q498 121 434 51T267 -19Q204 -19 152 6T69 85T38 217Q38 284 68 333T148 409T257 436Q322 436 363 415Q325 481 256 525L212 476L159 525L191 560Q151 578 100 597L118
661Q205 636 243 618L290 669L342 620L309 583Q393 537 444 449ZM208 362T174 323T140 213Q140 139 172 101T268 63Q331 63 364 113T398 247Q398 285 386 333Q365 346 334 354T271 362Q208 362 174 323Z" />
<glyph unicode="&#xf1;" glyph-name="ntilde" horiz-adv-x="646" d="M44 80H128V339L32 372L59 453L195 406Q234 432 274 445T361 458Q444 458 491 410T538 278V80H621V0H395V80H438V262Q438 316 413 344T339 372Q312 372 283 363T228 338V80H271V0H44V80ZM165
576Q199 602 223 612T281 622Q301 622 316 617T356 600Q387 582 409 582Q427 582 441 588T482 613L508 552Q478 525 455 515T400 505Q385 505 372 510T339 526Q320 536 307 541T279 546Q259 546 245 542T215 530T191 518L165 576Z" />
<glyph unicode="&#xf2;" glyph-name="ograve" horiz-adv-x="542" d="M377 458T439 395T501 219Q501 108 440 46T270 -17Q164 -17 103 46T42 219Q42 330 103 394T270 458Q377 458 439 395ZM208 376T175 336T142 219Q142 144 175 104T271 64Q335 64 368 104T401
219Q401 295 368 335T271 376Q208 376 175 336ZM269 500L115 675L185 728L314 531L269 500Z" />
<glyph unicode="&#xf3;" glyph-name="oacute" horiz-adv-x="542" d="M377 458T439 395T501 219Q501 108 440 46T270 -17Q164 -17 103 46T42 219Q42 330 103 394T270 458Q377 458 439 395ZM208 376T175 336T142 219Q142 144 175 104T271 64Q335 64 368 104T401
219Q401 295 368 335T271 376Q208 376 175 336ZM352 728L423 675L268 500L224 531L352 728Z" />
<glyph unicode="&#xf4;" glyph-name="ocircumflex" horiz-adv-x="542" d="M377 458T439 395T501 219Q501 108 440 46T270 -17Q164 -17 103 46T42 219Q42 330 103 394T270 458Q377 458 439 395ZM208 376T175 336T142 219Q142 144 175 104T271 64Q335 64 368 104T401
219Q401 295 368 335T271 376Q208 376 175 336ZM273 658L432 549L401 501L274 573L142 502L111 549L273 658Z" />
<glyph unicode="&#xf5;" glyph-name="otilde" horiz-adv-x="542" d="M377 458T439 395T501 219Q501 108 440 46T270 -17Q164 -17 103 46T42 219Q42 330 103 394T270 458Q377 458 439 395ZM208 376T175 336T142 219Q142 144 175 104T271 64Q335 64 368 104T401
219Q401 295 368 335T271 376Q208 376 175 336ZM114 576Q148 602 172 612T230 622Q250 622 265 617T305 600Q336 582 358 582Q376 582 390 588T431 613L457 552Q427 525 404 515T349 505Q334 505 321 510T288 526Q269 536 256 541T228 546Q208 546 194 542T164
530T140 518L114 576Z" />
<glyph unicode="&#xf6;" glyph-name="odieresis" horiz-adv-x="542" d="M377 458T439 395T501 219Q501 108 440 46T270 -17Q164 -17 103 46T42 219Q42 330 103 394T270 458Q377 458 439 395ZM208 376T175 336T142 219Q142 144 175 104T271 64Q335 64 368 104T401
219Q401 295 368 335T271 376Q208 376 175 336ZM203 643T222 624T242 579Q242 553 223 534T178 515Q152 515 133 534T114 579Q114 605 133 624T178 643Q203 643 222 624ZM389 643T408 624T427 579Q427 553 409 534T364 515Q338 515 319 534T300 579Q300 605 319
624T364 643Q389 643 408 624Z" />
<glyph unicode="&#xf7;" glyph-name="divide" horiz-adv-x="484" d="M270 537T291 516T312 467Q312 438 291 417T242 396Q213 396 192 417T171 467Q171 495 192 516T242 537Q270 537 291 516ZM434 348V263H50V348H434ZM270 204T291 183T312 134Q312 106 291 85T242
64Q213 64 192 84T171 134Q171 162 192 183T242 204Q270 204 291 183Z" />
<glyph unicode="&#xf8;" glyph-name="oslash" horiz-adv-x="542" d="M443 404T472 350T501 219Q501 108 440 46T270 -17Q235 -17 201 -9L174 -73H117L152 9Q99 37 71 91T42 219Q42 330 103 394T270 458Q305 458 339 450L364 508H421L389 432Q443 404 472 350ZM142
130T187 91L306 372Q291 376 271 376Q208 376 175 336T142 219Q142 130 187 91ZM335 64T368 104T401 219Q401 311 354 350L234 68Q249 64 271 64Q335 64 368 104Z" />
<glyph unicode="&#xf9;" glyph-name="ugrave" horiz-adv-x="626" d="M410 6T370 -5T295 -17Q196 -17 150 26T104 162V361H24V440H205V178Q205 120 227 95T299 69Q326 69 358 77T414 99V361H334V440H515V96L605 65L579 -20L443 26Q410 6 370 -5ZM286 500L132 675L202
728L331 531L286 500Z" />
<glyph unicode="&#xfa;" glyph-name="uacute" horiz-adv-x="626" d="M410 6T370 -5T295 -17Q196 -17 150 26T104 162V361H24V440H205V178Q205 120 227 95T299 69Q326 69 358 77T414 99V361H334V440H515V96L605 65L579 -20L443 26Q410 6 370 -5ZM369 728L440 675L285
500L241 531L369 728Z" />
<glyph unicode="&#xfb;" glyph-name="ucircumflex" horiz-adv-x="626" d="M410 6T370 -5T295 -17Q196 -17 150 26T104 162V361H24V440H205V178Q205 120 227 95T299 69Q326 69 358 77T414 99V361H334V440H515V96L605 65L579 -20L443 26Q410 6 370 -5ZM290 658L449
549L418 501L291 573L159 502L128 549L290 658Z" />
<glyph unicode="&#xfc;" glyph-name="udieresis" horiz-adv-x="626" d="M410 6T370 -5T295 -17Q196 -17 150 26T104 162V361H24V440H205V178Q205 120 227 95T299 69Q326 69 358 77T414 99V361H334V440H515V96L605 65L579 -20L443 26Q410 6 370 -5ZM220 643T239
624T259 579Q259 553 240 534T195 515Q169 515 150 534T131 579Q131 605 150 624T195 643Q220 643 239 624ZM406 643T425 624T444 579Q444 553 426 534T381 515Q355 515 336 534T317 579Q317 605 336 624T381 643Q406 643 425 624Z" />
<glyph unicode="&#xfd;" glyph-name="yacute" horiz-adv-x="576" d="M573 440V361H498L322 -81Q290 -160 249 -197T151 -235Q108 -235 71 -219L88 -142Q123 -153 146 -153Q173 -153 189 -143T220 -107T255 -29L257 -25L76 361H3V440H234V361H178L297 84L401 361H348L351
440H573ZM372 728L443 675L288 500L244 531L372 728Z" />
<glyph unicode="&#xfe;" glyph-name="thorn" horiz-adv-x="538" d="M191 440T219 447T276 455Q378 455 438 395T498 227Q498 154 470 99T389 13T269 -18Q214 -18 169 -4V-136H253V-215H-15V-136H69V548L-28 581L0 665L169 607V427Q191 440 219 447ZM171 82T196
73T268 63Q329 63 362 107T396 227Q396 298 365 335T272 373Q220 373 169 339V83Q171 82 196 73Z" />
<glyph unicode="&#xff;" glyph-name="ydieresis" horiz-adv-x="576" d="M573 440V361H498L322 -81Q290 -160 249 -197T151 -235Q108 -235 71 -219L88 -142Q123 -153 146 -153Q173 -153 189 -143T220 -107T255 -29L257 -25L76 361H3V440H234V361H178L297 84L401
361H348L351 440H573ZM223 643T242 624T262 579Q262 553 243 534T198 515Q172 515 153 534T134 579Q134 605 153 624T198 643Q223 643 242 624ZM409 643T428 624T447 579Q447 553 429 534T384 515Q358 515 339 534T320 579Q320 605 339 624T384 643Q409 643 428
624Z" />
<glyph unicode="&#x2013;" glyph-name="endash" horiz-adv-x="572" d="M45 277H527V190H45V277Z" />
<glyph unicode="&#x2014;" glyph-name="emdash" horiz-adv-x="793" d="M45 276H748V189H45V276Z" />
<glyph unicode="&#x2018;" glyph-name="quoteleft" horiz-adv-x="207" d="M161 573T144 548T116 499Q144 494 159 475T175 432Q175 400 154 381T100 361Q70 361 47 384T24 438Q24 511 74 560T127 613L163 577Q161 573 144 548Z" />
<glyph unicode="&#x2019;" glyph-name="quoteright" horiz-adv-x="208" d="M49 404T65 428T91 474Q63 480 48 498T33 541Q33 573 53 592T107 612Q137 612 160 589T183 535Q184 457 80 361L44 397Q49 404 65 428Z" />
<glyph unicode="&#x201a;" glyph-name="quotesinglbase" horiz-adv-x="212" d="M49 -86T61 -63T83 -18Q60 -13 46 5T32 47Q32 80 53 100T108 120Q140 120 163 97T187 41Q187 4 166 -35T117 -106T89 -136L45 -92Q49 -86 61 -63Z" />
<glyph unicode="&#x201c;" glyph-name="quotedblleft" horiz-adv-x="405" d="M161 573T144 548T116 499Q136 495 155 473T175 432Q175 400 154 381T100 361Q70 361 47 384T24 438Q24 511 74 560T127 613L163 577Q161 573 144 548ZM359 573T342 548T314 499Q334
495 353 473T373 432Q373 400 352 381T298 361Q268 361 245 384T222 438Q222 511 272 560T325 613L361 577Q359 573 342 548Z" />
<glyph unicode="&#x201d;" glyph-name="quotedblright" horiz-adv-x="405" d="M49 404T65 428T91 475Q71 479 52 501T32 541Q32 573 53 593T107 613Q137 613 160 590T183 536Q184 461 134 413T80 361L44 397Q49 404 65 428ZM243 399T260 424T289 475Q269 479 250
501T230 541Q230 573 251 593T305 613Q335 613 358 590T381 536Q381 462 331 413T278 361L242 397Q243 399 260 424Z" />
<glyph unicode="&#x201e;" glyph-name="quotedblbase" horiz-adv-x="399" d="M52 -75T66 -52T91 -5Q62 0 47 18T32 61Q32 93 53 113T106 133Q136 133 159 110T183 56Q183 -19 133 -67T80 -119L44 -83Q52 -75 66 -52ZM243 -75T258 -51T283 -5Q254 0 239 18T224
61Q224 93 245 113T298 133Q328 133 351 110T375 56Q375 -18 325 -67T272 -119L235 -83Q243 -75 258 -51Z" />
<glyph unicode="&#x2022;" glyph-name="bullet" horiz-adv-x="328" d="M217 445T254 408T291 318Q291 265 254 228T164 191Q130 191 101 208T54 254T37 318Q37 352 54 381T100 428T164 445Q217 445 254 408Z" />
<glyph unicode="&#x2039;" glyph-name="guilsinglleft" horiz-adv-x="223" d="M150 -6L-7 217L150 441L215 395L94 217L215 40L150 -6Z" />
<glyph unicode="&#x203a;" glyph-name="guilsinglright" horiz-adv-x="222" d="M72 -6L7 40L128 217L7 395L72 441L228 217L72 -6Z" />
</font>
</defs>
</svg>
