<?xml version="1.0" standalone="no"?>
<!DOCTYPE svg PUBLIC "-//W3C//DTD SVG 1.1//EN" "http://www.w3.org/Graphics/SVG/1.1/DTD/svg11.dtd">
<svg xmlns="http://www.w3.org/2000/svg">
<defs >
<font id="PortLligatSans" horiz-adv-x="398" ><font-face
    font-family="Port Lligat Sans"
    units-per-em="1000"
    panose-1="2 0 0 0 0 0 0 0 0 0"
    ascent="860"
    descent="-211"
    alphabetic="0" />
<glyph unicode=" " glyph-name="space" horiz-adv-x="230" />
<glyph unicode="!" glyph-name="exclam" horiz-adv-x="270" d="M121 375Q121 559 95 663Q125 674 153 674T205 668Q185 479 185 245Q185 212 187 180Q168 174 153 174T119 180Q121 286 121 375ZM220 55Q220 25 202 5T147 -15Q90 -15 90 43Q90 115 163 115Q220
115 220 55Z" />
<glyph unicode="&quot;" glyph-name="quotedbl" horiz-adv-x="351" d="M60 677Q83 682 112 682T151 679Q140 558 140 447Q122 441 105 441T75 444Q75 575 60 677ZM200 677Q223 682 252 682T291 679Q280 558 280 447Q262 441 245 441T215 444Q215 575 200 677Z" />
<glyph unicode="#" glyph-name="numbersign" horiz-adv-x="763" d="M475 -46Q436 -46 407 -27Q431 63 451 153Q409 154 358 154T246 152Q237 97 217 -44Q199 -46 195 -46Q156 -46 127 -27Q145 41 170 149Q88 146 55 140Q50 155 50 179T61 228Q111 223 186 221Q210
341 224 418Q139 415 107 409Q102 424 102 448T113 497Q164 492 237 490Q253 587 267 687Q275 688 301 688T356 670Q333 585 311 488H447Q487 488 517 489Q534 590 547 687Q555 688 581 688T636 670Q619 609 592 492Q689 498 708 502Q713 487 713 463T702 414Q633
419 576 420Q553 307 538 223Q637 229 656 233Q661 218 661 194T650 145Q583 150 526 151Q517 96 497 -44Q479 -46 475 -46ZM395 219Q436 219 466 220Q488 323 505 422Q462 423 410 423T296 421Q276 327 257 219H395Z" />
<glyph unicode="$" glyph-name="dollar" horiz-adv-x="550" d="M314 746Q306 664 305 653Q388 645 427 597T467 478Q467 466 464 453Q438 444 412 444T374 446Q375 454 375 467Q375 513 355 546T300 590Q293 490 290 362Q327 343 344 334T391 302T437 260Q477
208 477 140T424 29T292 -15H287Q289 -66 291 -79Q268 -92 248 -92T214 -89L221 -9Q128 6 70 61Q74 85 86 105T110 132L120 140Q162 81 225 59Q232 169 237 295Q190 320 161 341T108 401T83 498T121 600T240 653L237 736Q256 749 277 749T314 746ZM287 65V49Q341
50 366 78T392 144T366 211T288 268Q287 200 287 65ZM242 542V594Q169 580 169 500Q169 440 240 392Q242 444 242 542Z" />
<glyph unicode="%" glyph-name="percent" horiz-adv-x="889" d="M335 -46Q301 -46 278 -27Q402 265 532 686Q548 688 558 688Q586 688 611 670Q490 391 356 -44Q340 -46 335 -46ZM839 395T839 193T692 -9T545 193T692 395ZM615 342T615 193T692 44T770 193T693
342ZM344 653T344 451T197 249T50 451T197 653ZM120 600T120 451T197 302T275 451T198 600Z" />
<glyph unicode="&amp;" glyph-name="ampersand" horiz-adv-x="594" d="M73 563T127 609T247 655T358 623T404 530Q404 523 402 507Q376 499 356 499T311 501Q312 508 312 520Q312 554 295 576T241 599T180 559T156 477Q156 403 198 378T342 352Q375 352 393 353L388
426Q413 434 440 434T486 430L477 352Q498 353 568 357Q574 343 574 328T570 291Q532 292 473 296Q471 277 471 238V51Q402 -15 282 -15T106 36T50 173Q50 289 163 332Q73 369 73 480Q73 563 127 609ZM395 93L397 275V295Q333 297 311 297Q214 297 176 272T137
173Q137 120 172 85T276 49T395 93Z" />
<glyph unicode="&apos;" glyph-name="quotesingle" horiz-adv-x="211" d="M60 677Q83 682 112 682T151 679Q140 558 140 447Q122 441 105 441T75 444Q75 575 60 677Z" />
<glyph unicode="(" glyph-name="parenleft" horiz-adv-x="309" d="M147 544T147 329T279 -60Q235 -74 214 -74T186 -73Q65 107 65 329T186 732Q193 733 214 733T279 719Q147 544 147 329Z" />
<glyph unicode=")" glyph-name="parenright" horiz-adv-x="309" d="M30 719Q74 733 95 733T123 732Q244 552 244 330T123 -73Q116 -74 95 -74T30 -60Q162 114 162 329T30 719Z" />
<glyph unicode="*" glyph-name="asterisk" d="M158 670Q179 675 203 675T237 670Q230 615 228 555Q283 575 335 601Q339 594 348 573T358 525Q300 518 241 499Q280 448 321 410Q278 367 257 363Q221 432 196 465Q168 426 138 365Q110 377 93 389T73 409Q119 457
150 500Q98 517 38 525Q39 551 48 574T61 601Q115 573 171 554Q170 602 158 670Z" />
<glyph unicode="+" glyph-name="plus" horiz-adv-x="601" d="M259 534Q281 541 307 541T347 538Q342 521 338 458T333 360Q367 360 430 364T511 374Q514 360 514 334T507 286Q431 293 333 295Q333 187 342 121Q320 114 294 114T254 117Q265 161 268 295Q134 292
90 281Q87 295 87 321T94 369Q160 360 268 360Q266 458 259 534Z" />
<glyph unicode="," glyph-name="comma" horiz-adv-x="261" d="M75 -152Q70 -137 70 -128T73 -103Q140 -103 140 -34Q140 -9 114 -6Q76 -3 76 43Q76 78 92 96T152 115Q211 115 211 35T179 -98T75 -152Z" />
<glyph unicode="-" glyph-name="hyphen" horiz-adv-x="354" d="M66 196Q60 210 60 227T66 268Q255 281 288 289Q294 275 294 258T288 217Q99 204 66 196Z" />
<glyph unicode="." glyph-name="period" horiz-adv-x="270" d="M220 55Q220 25 202 5T147 -15Q90 -15 90 43Q90 115 163 115Q220 115 220 55Z" />
<glyph unicode="/" glyph-name="slash" horiz-adv-x="566" d="M162 -46Q123 -46 96 -27Q246 275 393 686Q411 688 433 688T485 670Q337 378 187 -44Q169 -46 162 -46Z" />
<glyph unicode="0" glyph-name="zero" horiz-adv-x="587" d="M527 655T527 320T294 -15T60 320T293 655ZM145 590T145 320T293 50T442 320T294 590Z" />
<glyph unicode="1" glyph-name="one" horiz-adv-x="375" d="M217 648Q226 649 239 649T263 648T282 647Q268 539 268 298T285 2Q252 -8 224 -8T179 -6Q193 111 193 299T187 553Q75 479 56 460Q17 503 10 540Q74 566 217 648Z" />
<glyph unicode="2" glyph-name="two" horiz-adv-x="538" d="M64 559T115 607T257 655T407 610T465 480Q465 431 432 374T356 272Q210 119 174 69Q207 68 264 68T391 72T479 82Q483 64 483 42T475 -6Q401 3 318 3T154 -2T54 -11Q50 1 50 24Q95 105 208 221Q250
264 290 308Q377 404 377 477Q377 521 350 558T269 596T181 562T146 472Q146 459 147 451Q137 449 111 449T67 458Q64 470 64 483Q64 559 115 607Z" />
<glyph unicode="3" glyph-name="three" horiz-adv-x="529" d="M240 49Q317 49 354 84T392 173Q392 267 310 296Q254 292 226 292T175 295Q170 312 170 330T180 365Q203 358 258 358T343 392T373 473T344 558T261 596T172 562T137 472Q137 459 138 451Q128 449
102 449T58 458Q55 470 55 483Q55 559 106 607T248 655T398 610T456 480Q456 369 366 332Q479 289 479 173Q479 88 421 37T237 -15T38 51Q42 75 53 94T74 122L83 130Q109 91 152 70T240 49Z" />
<glyph unicode="4" glyph-name="four" horiz-adv-x="511" d="M264 639Q294 649 326 649T410 645Q396 534 396 395T397 214Q447 218 457 221Q461 203 461 181T453 133Q435 136 400 138Q405 24 413 2Q380 -8 352 -8T307 -6Q315 65 318 141Q287 142 176 142T13 136Q10
145 10 172Q23 195 59 256T108 340T148 410T191 488Q237 576 264 639ZM118 208Q156 207 205 207T320 209Q321 243 321 373T313 579Q247 481 118 208Z" />
<glyph unicode="5" glyph-name="five" horiz-adv-x="531" d="M170 386Q220 395 266 395T359 377T432 327Q481 267 481 182T423 41T238 -15T40 51Q44 75 55 94T76 122L85 130Q111 91 154 70T242 49Q318 49 356 89T394 185T361 287T248 332T124 302Q96 302 80 308Q93
345 100 437T107 580T106 646Q197 639 285 639T459 648Q463 630 463 608T455 560Q438 565 377 569T279 574T188 573Q172 472 170 386Z" />
<glyph unicode="6" glyph-name="six" horiz-adv-x="549" d="M284 655Q377 655 423 609T471 491Q471 480 468 467Q442 459 417 459T381 461Q382 468 382 480Q382 533 356 564T281 595Q220 595 182 523T143 327Q197 398 302 398Q381 398 437 344T494 198T432 45T275
-15Q155 -15 108 61T60 299Q60 485 119 574Q142 608 184 631T284 655ZM326 50T367 86T409 192T375 300T286 337T189 298T147 189T182 85T272 50Z" />
<glyph unicode="7" glyph-name="seven" horiz-adv-x="446" d="M302 573Q277 574 229 574T109 570T20 560Q16 578 16 600T24 648Q98 639 181 639T336 643T425 653Q429 635 429 618Q349 471 281 294T197 2Q168 -8 144 -8T95 -4Q154 192 302 573Z" />
<glyph unicode="8" glyph-name="eight" horiz-adv-x="565" d="M187 333Q78 396 78 491Q78 562 128 608T284 655Q489 655 489 487Q489 404 388 320Q505 258 505 160Q505 76 438 31T282 -15Q172 -15 110 36Q60 77 60 157T187 333ZM282 59Q346 59 381 92T417 163Q417
194 401 210T376 235T346 254L314 270Q304 276 278 288T241 305Q148 229 148 155Q148 59 282 59ZM217 406Q246 387 265 377T329 348Q370 375 388 414T406 487Q406 596 285 596Q236 596 200 571T164 494T217 406Z" />
<glyph unicode="9" glyph-name="nine" horiz-adv-x="549" d="M260 -15Q164 -15 117 31T68 149Q68 160 71 173Q97 181 122 181T158 179Q157 172 157 160Q157 107 184 76T262 45Q406 45 406 313Q352 242 247 242Q168 242 112 296T55 442T117 595T274 655Q394 655
441 576T489 331Q489 -15 260 -15ZM319 303T360 339T402 445T368 553T279 590T182 551T140 443T175 339T264 303Z" />
<glyph unicode=":" glyph-name="colon" horiz-adv-x="264" d="M217 55Q217 25 199 5T144 -15Q87 -15 87 43Q87 115 160 115Q217 115 217 55ZM217 418Q217 388 199 368T144 348Q87 348 87 406Q87 478 160 478Q217 478 217 418Z" />
<glyph unicode=";" glyph-name="semicolon" horiz-adv-x="271" d="M217 418Q217 388 199 368T144 348Q87 348 87 406Q87 478 160 478Q217 478 217 418ZM86 -152Q81 -137 81 -128T84 -103Q151 -103 151 -34Q151 -9 125 -6Q87 -3 87 43Q87 78 103 96T163 115Q222
115 222 35T190 -98T86 -152Z" />
<glyph unicode="&lt;" glyph-name="less" horiz-adv-x="601" d="M74 287Q67 301 67 326T74 367Q198 414 368 518Q426 553 440 566Q449 555 461 531T478 486Q402 456 291 398T156 327Q203 301 298 252T478 168Q474 148 462 124T440 88Q426 101 368 136Q201 238 74 287Z" />
<glyph unicode="=" glyph-name="equal" horiz-adv-x="601" d="M507 386Q415 395 329 395T175 391T90 381Q87 394 87 420T94 469Q163 460 261 460Q461 460 511 474Q514 461 514 435T507 386ZM507 186Q415 195 329 195T175 191T90 181Q87 195 87 221T94 269Q163
260 261 260Q461 260 511 274Q514 261 514 235T507 186Z" />
<glyph unicode="&gt;" glyph-name="greater" horiz-adv-x="601" d="M471 367Q478 352 478 327T471 287Q344 238 176 136Q119 101 105 88Q96 99 84 123T67 168Q152 202 247 251T389 327Q343 353 279 385Q152 452 67 486Q71 506 83 530T105 566Q119 553 176 518Q344
416 471 367Z" />
<glyph unicode="?" glyph-name="question" horiz-adv-x="459" d="M95 639L96 650Q149 673 227 673T359 633T414 530Q414 494 396 464T353 414T302 374Q240 328 240 283T268 206Q242 174 206 171Q172 239 172 289T230 397Q238 405 263 428T299 464Q331 500 331
535T303 593T222 615T115 575Q95 608 95 639ZM293 55Q293 25 275 5T220 -15Q163 -15 163 43Q163 115 236 115Q293 115 293 55Z" />
<glyph unicode="@" glyph-name="at" horiz-adv-x="873" d="M557 -34Q561 -42 561 -66T553 -112Q481 -137 375 -137Q227 -137 152 -60T76 170Q76 393 184 514T493 635Q649 635 731 555T814 322Q814 204 744 117T578 30Q533 30 519 97Q444 30 374 30Q322 30 295
71T267 191Q267 318 320 395T460 473T631 450Q588 268 588 142Q588 91 617 91Q661 91 698 163T736 319Q736 450 676 512T487 575Q327 575 243 472T158 173Q158 -73 364 -73Q443 -73 557 -34ZM504 423T455 423T375 360T344 198T408 99Q432 99 462 114T517 153Q521
183 546 402Q504 423 455 423Z" />
<glyph unicode="A" glyph-name="A" horiz-adv-x="562" d="M396 178Q347 181 274 181T149 177Q119 53 105 -10Q87 -12 70 -12T14 -2Q177 432 204 639Q233 649 280 649T356 639Q383 432 546 -2Q510 -12 483 -12T440 -10Q423 65 396 178ZM166 247Q212 246 263 246T378
248Q333 423 279 578H273Q214 430 166 247Z" />
<glyph unicode="B" glyph-name="B" horiz-adv-x="575" d="M103 13Q117 130 117 330T100 627Q179 655 285 655T442 607T492 467T428 326Q535 284 535 173Q535 -15 306 -15Q185 -15 103 13ZM250 372Q272 357 317 357T384 388T405 472T377 561T282 598Q245 598 200
580Q192 499 192 341T200 77Q258 54 307 54Q448 54 448 173Q448 274 355 295Q328 290 298 290T229 305Q229 351 250 372Z" />
<glyph unicode="C" glyph-name="C" horiz-adv-x="536" d="M303 655Q403 655 452 606T501 478Q501 465 498 453Q481 444 457 444T408 446Q409 454 409 467Q409 526 381 561T303 596Q137 596 137 328T303 59Q342 59 384 78T455 130Q486 105 495 51Q406 -15 303 -15Q182
-15 122 52Q72 107 60 220Q55 266 55 327Q55 655 303 655Z" />
<glyph unicode="D" glyph-name="D" horiz-adv-x="607" d="M299 655Q373 655 426 628T508 552Q562 459 562 325Q562 139 488 56Q459 25 411 5T299 -15Q178 -15 103 13Q117 130 117 330T100 627Q186 655 299 655ZM299 56Q476 56 476 325Q476 402 460 460T403 557T305
596T199 577Q192 497 192 333T200 77Q247 56 299 56Z" />
<glyph unicode="E" glyph-name="E" horiz-adv-x="519" d="M195 76Q230 73 316 73T455 82Q463 56 463 32T459 -11Q440 -6 379 -2T242 3T99 -4Q113 134 113 331T94 646Q161 639 238 639T375 643T454 653Q458 635 458 613T450 565Q397 574 313 574T194 571Q188 514
188 365Q209 364 289 364T419 375Q424 343 424 323T423 289Q376 297 304 297T188 295Q188 164 195 76Z" />
<glyph unicode="F" glyph-name="F" horiz-adv-x="477" d="M411 283Q368 290 287 290T188 289Q190 47 205 2Q172 -8 153 -8T99 -6Q113 111 113 319T94 646Q161 639 233 639T365 643T444 653Q448 635 448 613T440 565Q387 574 308 574T194 571Q188 511 188 351H232Q367
351 407 361Q412 333 412 314T411 283Z" />
<glyph unicode="G" glyph-name="G" horiz-adv-x="570" d="M303 -15Q149 -15 98 90Q73 142 64 196T55 317T62 430T88 519T134 592Q194 655 298 655T452 606T501 478Q501 466 498 453Q472 444 446 444T408 446Q409 454 409 467Q409 526 381 561T303 596Q217 596
177 523T137 326Q137 133 218 81Q253 59 303 59Q385 59 440 105Q439 185 433 242Q317 240 272 231Q267 263 267 283T268 317Q315 309 394 309T515 312Q505 212 505 51Q416 -15 303 -15Z" />
<glyph unicode="H" glyph-name="H" horiz-adv-x="647" d="M460 281Q396 288 315 288T185 281Q187 47 202 2Q169 -8 150 -8T96 -6Q110 111 110 327T93 639Q119 649 145 649T199 647Q185 535 185 359Q239 353 315 353T460 361Q458 552 443 639Q469 649 495 649T549
647Q535 536 535 296T552 2Q519 -8 500 -8T446 -6Q458 95 460 281Z" />
<glyph unicode="I" glyph-name="I" horiz-adv-x="317" d="M106 -6Q120 111 120 327T103 639Q129 649 155 649T209 647Q195 536 195 296T212 2Q179 -8 151 -8T106 -6Z" />
<glyph unicode="J" glyph-name="J" horiz-adv-x="283" d="M22 -106Q64 -106 81 -76Q101 -41 104 -3Q108 46 108 121Q108 543 91 639Q117 649 143 649T197 647Q183 536 183 102Q183 -13 171 -62T140 -134Q103 -180 24 -180Q-10 -180 -49 -168T-116 -134Q-112 -110
-102 -90T-84 -62L-76 -55Q-38 -106 22 -106Z" />
<glyph unicode="K" glyph-name="K" horiz-adv-x="534" d="M417 648Q424 649 447 649T503 632Q371 464 290 339Q386 185 530 5Q496 -12 463 -12T418 -11Q376 64 302 177T209 319Q228 349 276 418Q379 566 417 648ZM96 -6Q110 111 110 327T93 639Q119 649 144 649T180
648T199 647Q185 536 185 296T202 2Q169 -8 141 -8T96 -6Z" />
<glyph unicode="L" glyph-name="L" horiz-adv-x="443" d="M97 -4Q111 134 111 338T94 639Q120 649 146 649T200 647Q186 536 186 349T193 76Q228 73 299 73T423 82Q431 56 431 32T427 -11Q408 -6 347 -2T225 3T97 -4Z" />
<glyph unicode="M" glyph-name="M" horiz-adv-x="768" d="M96 -6Q110 111 110 327T93 639Q119 649 137 649T184 647Q201 555 386 210Q537 505 563 639Q589 649 615 649T669 647Q655 536 655 296T672 2Q639 -8 620 -8T566 -6Q580 111 580 266T578 466Q447 201 413
117Q386 109 370 109T340 110Q311 184 277 248T212 367T170 443V338Q170 56 187 2Q157 -8 144 -8T96 -6Z" />
<glyph unicode="N" glyph-name="N" horiz-adv-x="650" d="M97 -6Q111 111 111 327T94 639Q120 649 138 649T185 647Q204 575 294 429T483 145Q486 229 486 307Q486 543 469 639Q495 649 513 649T560 647Q546 536 546 296T563 2Q533 -8 520 -8T472 -6Q465 25 413
106T284 301T172 470Q171 427 171 338Q171 56 188 2Q158 -8 145 -8T97 -6Z" />
<glyph unicode="O" glyph-name="O" horiz-adv-x="601" d="M55 327Q55 655 300 655T546 327Q546 267 542 222T522 130T480 53T409 4T301 -15T193 4T121 53T80 130T60 222T55 327ZM216 81Q250 59 300 59T385 81T437 144Q467 215 467 326Q467 596 301 596T134 326Q134
133 216 81Z" />
<glyph unicode="P" glyph-name="P" horiz-adv-x="531" d="M249 331Q278 302 318 302T384 327Q424 368 424 449Q424 598 292 598Q250 598 198 576Q191 497 191 277T208 2Q175 -8 147 -8T102 -6Q116 111 116 321T99 627Q183 655 297 655T461 602T511 452T461 295T307
235Q267 235 228 250Q228 277 235 300T249 331Z" />
<glyph unicode="Q" glyph-name="Q" horiz-adv-x="601" d="M55 327Q55 655 300 655T546 327Q546 259 540 209T514 110Q477 10 361 -10Q440 -114 464 -145Q430 -162 397 -162T353 -161Q325 -102 266 -13Q163 -3 112 64Q69 122 59 227Q55 270 55 327ZM216 81Q250
59 300 59T385 81T437 144Q467 215 467 326Q467 596 301 596T134 326Q134 133 216 81Z" />
<glyph unicode="R" glyph-name="R" horiz-adv-x="564" d="M249 349Q278 322 318 322T384 346Q424 384 424 459Q424 598 292 598Q250 598 198 578Q191 498 191 277T208 2Q175 -8 147 -8T102 -6Q116 111 116 321T99 627Q183 655 293 655Q511 655 511 459Q511 385
474 332T362 265Q468 96 538 5Q504 -12 471 -12T427 -11Q374 101 271 263Q251 266 228 274Q228 299 235 320T249 349Z" />
<glyph unicode="S" glyph-name="S" horiz-adv-x="477" d="M128 98T171 74T266 49T343 77T370 145T338 217T261 272T170 320T93 389T61 497T107 608T253 655T398 606T445 478Q445 466 442 453Q416 444 390 444T352 446Q353 454 353 467Q353 525 323 560T246 596T174
572T147 503T178 426T255 369T346 319T423 248T455 138T402 29T270 -15Q129 -15 48 61Q52 85 64 105T88 132L98 140Q128 98 171 74Z" />
<glyph unicode="T" glyph-name="T" horiz-adv-x="481" d="M280 574Q275 496 275 276T292 2Q259 -8 231 -8T186 -6Q200 111 200 300T193 574Q56 568 16 560Q12 574 12 598T20 648Q94 639 199 639Q411 639 461 653Q465 635 465 613T457 565Q380 572 280 574Z" />
<glyph unicode="U" glyph-name="U" horiz-adv-x="644" d="M546 277Q546 217 542 177T525 97T487 35Q435 -15 325 -15Q184 -15 140 64Q118 106 111 154T103 277Q103 543 86 639Q112 649 138 649T192 647Q178 536 178 276Q178 164 209 112T332 59T453 111T483 276Q483
543 466 639Q492 649 512 649T560 647Q546 536 546 277Z" />
<glyph unicode="V" glyph-name="V" horiz-adv-x="570" d="M337 0Q301 -9 272 -9T233 -8Q191 142 129 334T21 629Q63 649 95 649T138 648Q152 541 197 373T290 87H296Q339 193 386 376T438 642Q452 645 466 645Q515 645 547 625Q519 557 441 329T337 0Z" />
<glyph unicode="W" glyph-name="W" horiz-adv-x="814" d="M307 0Q271 -9 242 -9T203 -8Q191 34 154 180Q70 519 21 629Q63 649 95 649T138 648Q184 297 260 87H266Q297 163 325 297T369 550Q399 562 418 562T454 560Q499 256 564 87H570Q609 198 643 373T682 642Q696
645 710 645Q759 645 791 625Q773 580 708 351T611 0Q575 -9 546 -9T507 -8Q493 40 460 173T410 367H405Q338 124 307 0Z" />
<glyph unicode="X" glyph-name="X" horiz-adv-x="537" d="M398 648Q406 649 437 649T505 632Q390 470 315 331Q415 154 515 9Q486 -8 433 -8Q413 -8 402 -7Q325 149 261 264Q171 114 126 -7Q118 -8 87 -8T19 9Q147 190 223 330Q125 501 37 632Q71 649 104 649T149
648Q209 524 280 394Q339 489 398 648Z" />
<glyph unicode="Y" glyph-name="Y" horiz-adv-x="466" d="M1 634Q41 651 73 651T117 650Q123 575 164 478Q180 442 206 383T246 293H250Q285 360 320 469T360 649Q378 651 387 651Q434 651 465 634Q464 631 432 561T374 434Q299 266 281 194Q286 31 297 2Q264
-8 236 -8T191 -6Q201 76 204 197Q181 270 137 362T53 532T1 634Z" />
<glyph unicode="Z" glyph-name="Z" horiz-adv-x="486" d="M270 573Q129 573 54 553Q45 583 45 601T51 646Q103 639 250 639T451 645Q456 635 456 607Q413 526 296 320T158 76Q204 73 298 73T445 82Q453 56 453 32T449 -11Q431 -6 350 -2T187 3T37 -4Q31 11 30
32Q72 98 187 297T350 573H270Z" />
<glyph unicode="[" glyph-name="bracketleft" horiz-adv-x="329" d="M301 16Q309 -10 309 -32T305 -72Q259 -60 191 -60T75 -65Q91 69 91 347T75 724Q123 719 191 719T305 731Q309 713 309 691T301 643Q254 651 175 651Q169 588 169 328T175 8Q254 8 301 16Z" />
<glyph unicode="\" glyph-name="backslash" horiz-adv-x="566" d="M96 670Q125 688 151 688T187 687Q333 280 485 -27Q458 -46 419 -46Q412 -46 394 -44Q244 378 96 670Z" />
<glyph unicode="]" glyph-name="bracketright" horiz-adv-x="329" d="M28 643Q20 669 20 691T24 731Q70 719 138 719T254 724Q238 590 238 312T254 -65Q206 -60 138 -60T24 -72Q20 -54 20 -32T28 16Q75 8 154 8Q160 71 160 331T154 651Q75 651 28 643Z" />
<glyph unicode="^" glyph-name="asciicircum" horiz-adv-x="601" d="M229 622Q241 628 270 628T313 622Q336 563 395 453Q444 354 462 329Q455 323 434 312T398 299Q370 367 343 415Q285 524 271 547Q195 418 144 299Q129 301 108 312T80 329Q100 359 147 453Q206
563 229 622Z" />
<glyph unicode="_" glyph-name="underscore" horiz-adv-x="502" d="M474 -89Q376 -80 277 -80T110 -85T24 -94Q20 -80 20 -56T28 -6Q102 -15 203 -15T382 -11T478 -1Q482 -19 482 -41T474 -89Z" />
<glyph unicode="`" glyph-name="grave" horiz-adv-x="424" d="M294 528Q170 579 110 603Q111 631 120 647T150 682Q196 643 245 611T314 565Q309 544 294 528Z" />
<glyph unicode="a" glyph-name="a" horiz-adv-x="473" d="M209 219Q173 219 151 200T128 139Q128 57 199 57Q227 57 256 71T301 104Q306 167 306 184Q265 219 209 219ZM388 345L384 201Q384 118 401 3Q371 -6 349 -6T307 -4L304 44Q228 -15 170 -15T81 22T50 129T95
235T203 271T310 247Q311 267 311 291T310 333T300 375Q286 422 227 422Q153 422 153 341L154 324Q132 322 113 322T68 330Q66 346 66 353Q66 416 112 447T231 478T346 445T388 345Z" />
<glyph unicode="b" glyph-name="b" horiz-adv-x="481" d="M57 11Q72 147 72 314T69 549T54 672Q80 682 106 682T160 680Q145 552 145 410Q215 478 285 478T393 421T431 258Q431 117 383 51T230 -15Q165 -15 57 11ZM346 271Q346 414 261 414Q202 414 145 349V80Q192
57 242 57Q346 57 346 271Z" />
<glyph unicode="c" glyph-name="c" horiz-adv-x="430" d="M229 478Q293 478 338 446T384 353Q384 346 382 330Q356 322 337 322T296 324Q297 331 297 343Q297 376 278 399T222 422Q127 422 127 240T231 57Q281 57 353 119Q382 89 390 40Q307 -15 224 -15Q123 -15
84 53T45 234T88 412T229 478Z" />
<glyph unicode="d" glyph-name="d" horiz-adv-x="499" d="M338 390Q275 419 239 419T181 400T150 348Q135 292 135 220Q135 62 220 62Q250 62 282 79T336 122Q338 205 338 390ZM426 680Q411 551 411 369T414 136T429 7Q398 -3 369 -3T331 -2L333 50Q264 -15 191
-15Q148 -15 119 8T75 71Q50 141 50 225Q50 478 234 478Q284 478 337 454Q335 590 320 672Q342 682 395 682Q401 682 411 681T426 680Z" />
<glyph unicode="e" glyph-name="e" horiz-adv-x="451" d="M388 246Q313 222 239 222T127 227Q127 137 156 96Q183 57 240 57T364 119Q393 89 401 40Q320 -15 232 -15Q127 -15 86 53T45 235T90 413T239 478Q311 478 354 435T398 332T388 246ZM232 422Q140 422 128
285Q171 280 225 280T311 290Q315 326 315 327Q315 366 295 394T232 422Z" />
<glyph unicode="f" glyph-name="f" horiz-adv-x="331" d="M100 208L97 408Q57 408 40 407Q34 423 34 438T36 462H94Q93 475 93 502Q93 675 232 675Q290 675 335 644Q335 587 302 561Q271 615 228 615Q166 615 166 496Q166 474 167 463Q251 465 292 469Q298 456
298 441T294 403Q256 405 172 407V313L173 237Q173 98 191 6Q157 -4 130 -4T85 0Q100 155 100 208Z" />
<glyph unicode="g" glyph-name="g" horiz-adv-x="466" d="M220 478Q270 478 307 462V478Q307 518 323 538T381 558Q388 558 406 556Q408 540 408 524T402 475Q395 476 380 476T358 467T350 435L346 436Q389 393 389 308Q389 230 358 178Q323 120 220 120Q177 120
150 130Q129 93 119 49Q136 46 155 46T231 53T313 60Q365 60 397 34T429 -46T394 -140Q333 -210 204 -210Q117 -210 71 -188T25 -106Q25 -90 27 -79Q48 -71 70 -71T119 -75Q117 -83 117 -101T140 -137T218 -155T312 -133T352 -67Q352 -18 299 -18Q273 -18 217 -24T129
-31T75 -18T53 24Q53 77 104 154Q51 197 51 308Q51 478 220 478ZM132 189T220 189T308 307T220 425T132 307Z" />
<glyph unicode="h" glyph-name="h" horiz-adv-x="533" d="M443 334L442 253Q442 122 462 9Q429 -4 398 -4T354 -2Q366 134 366 238T350 378T293 414Q239 414 173 348Q173 65 191 6Q158 -4 139 -4T85 -2Q100 128 100 306T97 543T82 672Q108 682 134 682T188 680Q173
560 173 407Q203 439 245 458T324 478Q385 478 414 443T443 334Z" />
<glyph unicode="i" glyph-name="i" horiz-adv-x="263" d="M173 256Q173 92 191 6Q155 -4 126 -4T85 -2Q100 134 100 247T82 458Q116 468 143 468T188 464Q173 309 173 256ZM192 613Q192 551 128 551Q78 551 78 602Q78 665 142 665Q192 665 192 613Z" />
<glyph unicode="j" glyph-name="j" horiz-adv-x="254" d="M175 256L178 -13Q178 -210 43 -210Q-15 -210 -60 -178Q-60 -121 -27 -95Q-16 -111 5 -123T46 -136Q102 -136 102 4V227Q102 366 84 458Q118 468 145 468T190 464Q175 309 175 256ZM194 613Q194 551 130
551Q80 551 80 602Q80 665 144 665Q194 665 194 613Z" />
<glyph unicode="k" glyph-name="k" horiz-adv-x="476" d="M78 -2Q93 128 93 306T90 543T75 672Q101 682 127 682T181 680Q166 557 166 312T184 6Q151 -4 132 -4T78 -2ZM331 467Q340 469 369 469T434 453Q420 429 356 357T268 256Q383 91 456 16Q406 -9 335 -9Q311
56 280 104T182 227L185 237Q225 285 274 357T331 467Z" />
<glyph unicode="l" glyph-name="l" horiz-adv-x="253" d="M78 -2Q93 128 93 306T90 543T75 672Q101 682 127 682T181 680Q166 557 166 312T184 6Q151 -4 123 -4T78 -2Z" />
<glyph unicode="m" glyph-name="m" horiz-adv-x="763" d="M672 335L671 253Q671 124 691 9Q658 -4 627 -4T583 -2Q595 131 595 232T582 374T525 414T423 348L422 253Q422 124 442 9Q409 -4 378 -4T334 -2Q346 131 346 232T333 374T276 414T175 350Q173 319 173
256Q173 92 191 6Q155 -4 126 -4T85 -2Q100 134 100 236T80 458Q120 468 143 468T179 464V413Q207 442 243 460T314 478Q397 478 417 401Q447 436 487 457T563 478Q620 478 646 443T672 335Z" />
<glyph unicode="n" glyph-name="n" horiz-adv-x="533" d="M443 334L442 253Q442 124 462 9Q429 -4 398 -4T354 -2Q366 131 366 232T352 374T288 414T175 350Q173 319 173 256Q173 92 191 6Q155 -4 126 -4T85 -2Q100 134 100 236T80 458Q120 468 143 468T179 464V413Q248
478 317 478T414 443T443 334Z" />
<glyph unicode="o" glyph-name="o" horiz-adv-x="466" d="M45 478T233 478T421 237Q421 126 386 61Q346 -15 233 -15T80 61Q45 126 45 237Q45 478 233 478ZM127 57T233 57T339 239T233 422T127 240Z" />
<glyph unicode="p" glyph-name="p" horiz-adv-x="496" d="M252 57Q361 57 361 251Q361 369 322 400Q304 414 275 414T214 395T160 349Q158 266 158 80Q216 57 252 57ZM85 177Q85 343 67 456Q98 466 127 466T165 465L163 413Q232 478 305 478Q446 478 446 238Q446
146 410 71Q390 31 350 8T261 -15T159 9Q163 -138 176 -200Q154 -210 121 -210T70 -208Q85 -117 85 177Z" />
<glyph unicode="q" glyph-name="q" horiz-adv-x="498" d="M424 452Q409 323 409 153T412 -74T427 -200Q401 -210 368 -210T321 -208Q336 -85 336 53Q265 -15 195 -15T88 42T50 205Q50 346 98 412T251 478Q316 478 424 452ZM135 200Q135 57 220 57Q278 57 336 122V399Q292
422 240 422T162 370T135 200Z" />
<glyph unicode="r" glyph-name="r" horiz-adv-x="347" d="M182 438T213 455T274 473T323 440T342 360Q342 343 340 331Q322 322 304 322T259 326Q261 342 261 347Q261 402 221 402Q210 402 191 388T155 353Q153 321 153 256Q153 92 171 6Q135 -4 110 -4T65 -2Q80
134 80 236T60 458Q100 468 123 468T159 464V412Q182 438 213 455Z" />
<glyph unicode="s" glyph-name="s" horiz-adv-x="403" d="M361 126Q361 55 315 20T200 -15Q104 -15 32 40Q36 62 47 83T68 116L78 126Q130 52 202 52Q237 52 259 67T282 108T258 156T198 191T128 222T69 270T44 344Q44 406 84 442T204 478T320 443T356 333Q334
325 315 325T268 331Q270 345 270 353Q270 384 252 404T201 425T145 410T123 363T147 308T207 271T277 241T336 197T361 126Z" />
<glyph unicode="t" glyph-name="t" horiz-adv-x="307" d="M75 162Q75 162 77 385Q77 400 76 408Q34 408 16 407Q10 423 10 438T12 462H73L68 536Q93 544 120 544T166 540L157 463Q212 464 268 469Q274 456 274 441T270 403Q233 405 153 407Q151 387 151 348V145Q151
119 153 103T166 73T197 59Q241 59 281 90Q302 60 302 9Q247 -15 207 -15T142 -5T105 20T85 61Q75 98 75 162Z" />
<glyph unicode="u" glyph-name="u" horiz-adv-x="502" d="M82 129L83 210Q83 363 65 458Q88 467 116 467T171 464Q156 327 156 231T169 96T229 57T337 118Q339 148 339 207Q339 372 321 458Q359 468 384 468T427 464Q412 328 412 220T430 3Q400 -6 378 -6T336
-4L334 45Q260 -15 198 -15T109 20T82 129Z" />
<glyph unicode="v" glyph-name="v" horiz-adv-x="453" d="M259 0Q233 -7 213 -7T185 -6Q159 86 108 221T9 452Q49 469 81 469T125 468Q135 325 224 111H228Q261 174 292 284T328 467Q346 469 355 469Q402 469 433 452Q397 372 338 223T259 0Z" />
<glyph unicode="w" glyph-name="w" horiz-adv-x="646" d="M517 467Q517 467 553 468Q588 468 622 452Q591 376 535 225T460 0Q434 -7 414 -7T386 -6Q375 72 320 281H316Q259 109 234 0Q208 -7 188 -7T160 -6Q141 85 98 220T12 452Q52 469 84 469T128 468Q135 344
203 111H207Q229 161 252 253T281 410Q311 417 332 417T372 414Q392 250 429 111H433Q462 173 488 283T517 467Z" />
<glyph unicode="x" glyph-name="x" horiz-adv-x="411" d="M318 -10Q301 -10 292 -9Q253 84 200 175Q150 89 136 60T117 -8Q104 -10 88 -10Q49 -10 15 11Q56 77 169 228Q152 254 104 330T27 448Q56 469 109 469Q126 469 135 468Q162 407 216 297Q237 332 257 375T282
467Q291 469 320 469T385 453Q343 381 248 238Q256 226 311 142T400 11Q370 -10 318 -10Z" />
<glyph unicode="y" glyph-name="y" horiz-adv-x="441" d="M221 -111T181 -160T86 -210T-17 -178Q-13 -120 16 -95Q46 -136 89 -136Q112 -136 141 -97T188 -6Q162 86 111 221T12 452Q52 469 84 469T128 468Q138 325 227 111H231Q264 174 295 284T331 467Q349 469
358 469Q405 469 436 452Q411 396 347 236T252 -18Z" />
<glyph unicode="z" glyph-name="z" horiz-adv-x="425" d="M224 397Q135 397 64 378Q55 408 55 426T61 471Q113 464 222 464T385 470Q390 460 390 432Q349 355 273 241T167 74H211Q319 76 377 93Q387 62 387 39T382 -7Q296 2 212 2T47 -4Q41 11 40 32Q83 99 169
221T292 397H224Z" />
<glyph unicode="{" glyph-name="braceleft" horiz-adv-x="344" d="M178 588L190 439Q190 400 173 369T126 333V327Q156 323 173 292T190 221L178 72Q178 34 189 20T233 6T316 17Q324 -9 324 -31T320 -71Q274 -59 209 -59T121 -30T98 53L109 205Q109 247 94 272T37
303Q30 313 30 330T37 357Q79 363 94 388T109 455L98 607Q98 660 120 689T208 719T320 731Q324 713 324 691T316 643Q266 654 233 654T189 640T178 588Z" />
<glyph unicode="|" glyph-name="bar" horiz-adv-x="263" d="M93 -85Q103 56 103 328T90 717Q116 729 133 729T170 726Q160 589 160 288T173 -76Q144 -88 126 -88T93 -85Z" />
<glyph unicode="}" glyph-name="braceright" horiz-adv-x="344" d="M166 72L154 221Q154 260 171 291T218 327V333Q188 337 171 368T154 439L166 588Q166 626 155 640T111 654T28 643Q20 669 20 691T24 731Q70 719 135 719T223 690T246 607L235 455Q235 413 250
388T307 357Q314 347 314 330T307 303Q265 297 250 272T235 205L246 53Q246 0 224 -29T136 -59T24 -71Q20 -53 20 -31T28 17Q78 6 111 6T155 20T166 72Z" />
<glyph unicode="~" glyph-name="asciitilde" horiz-adv-x="601" d="M502 288Q477 321 432 321T301 293T168 264T84 291Q84 330 98 367Q123 334 168 334T300 362T434 391T518 364Q518 330 502 288Z" />
<glyph unicode="&#xa1;" glyph-name="exclamdown" horiz-adv-x="270" d="M149 88Q149 -96 175 -200Q145 -211 117 -211T65 -205Q85 -16 85 218Q85 251 83 283Q103 289 117 289T151 283Q149 177 149 88ZM50 408Q50 438 68 458T123 478Q180 478 180 420Q180 348
107 348Q50 348 50 408Z" />
<glyph unicode="&#xa2;" glyph-name="cent" horiz-adv-x="470" d="M262 213V136Q337 139 393 198Q422 168 430 119Q356 64 265 64Q267 15 270 5Q243 -8 219 -8T179 -5L187 73Q40 111 40 311Q40 403 80 467T205 550Q202 598 199 632Q221 645 261 645Q270 645 290
642Q287 625 280 557Q340 554 382 522T424 432Q424 425 422 409Q396 401 375 401T331 403Q332 410 332 431T318 474T274 500Q262 375 262 213ZM122 311Q122 188 193 150Q208 319 208 455V490Q164 471 143 423T122 311Z" />
<glyph unicode="&#xa3;" glyph-name="sterling" horiz-adv-x="546" d="M136 215Q136 245 133 275H63Q55 291 55 305T58 331H127Q112 451 112 491Q112 577 163 621T300 666Q483 666 483 494Q483 482 480 469Q458 460 434 460T400 462Q401 470 401 483Q401 544 379
573T300 602T222 568T200 490T209 331Q316 333 391 339Q398 325 398 305T394 269Q294 274 213 274Q215 238 215 193T202 67H297Q330 67 401 71T490 81Q494 63 494 41T486 -7Q412 2 328 2T163 -2T65 -12Q61 6 61 23L115 72Q136 135 136 215Z" />
<glyph unicode="&#xa5;" glyph-name="yen" horiz-adv-x="494" d="M134 401L17 634Q57 651 89 651T133 650Q139 575 180 478Q196 442 222 383T262 293H266Q301 360 336 469T376 649Q394 651 403 651Q450 651 481 634Q478 626 460 586Q407 474 377 405Q426 407 451
409Q458 395 458 375T454 339Q422 341 351 343Q332 297 316 253Q340 252 385 252T450 253Q458 237 458 223T455 197Q354 197 298 196Q298 70 313 2Q280 -8 252 -8T207 -6Q217 75 220 195Q126 193 62 189Q55 203 55 223T59 259Q133 255 199 254Q183 295 160 345H63Q55
361 55 375T58 401H134Z" />
<glyph unicode="&#xa6;" glyph-name="brokenbar" horiz-adv-x="263" d="M173 -76Q142 -88 125 -88T93 -85Q103 56 103 251Q130 258 142 258T160 257Q160 -14 173 -76ZM90 717Q115 729 135 729T170 726Q160 585 160 390Q133 383 121 383T103 384Q103 655 90 717Z" />
<glyph unicode="&#xa7;" glyph-name="section" horiz-adv-x="480" d="M48 246Q48 326 101 369Q48 415 48 488T95 608T240 655T385 606T432 478Q432 466 429 453Q404 444 378 444T339 446Q340 454 340 467Q340 525 310 560T233 596T161 572T134 506T157 439T214
399T289 368T364 332T422 277T445 190Q445 110 387 70Q445 22 445 -55Q445 -111 416 -147T344 -197T247 -210Q116 -210 35 -134Q39 -110 51 -90T74 -62L85 -55Q144 -136 247 -136Q304 -136 330 -113T357 -53T325 7T248 49T157 86T80 147T48 246ZM189 168Q229 145
303 117Q357 136 357 193Q357 220 338 241T295 272T229 300T163 329Q134 303 134 251T189 168Z" />
<glyph unicode="&#xa8;" glyph-name="dieresis" horiz-adv-x="473" d="M213 607Q213 552 155 552Q110 552 110 598Q110 654 168 654Q213 654 213 607ZM363 607Q363 552 305 552Q260 552 260 598Q260 654 318 654Q363 654 363 607Z" />
<glyph unicode="&#xa9;" glyph-name="copyright" horiz-adv-x="616" d="M407 541L404 524Q393 518 377 518T349 520Q351 528 351 544T339 577T305 593Q230 593 230 468T305 342Q345 342 378 380Q400 361 405 329Q358 294 305 294Q230 294 204 339T178 467Q178
632 305 632Q356 632 381 607T407 541ZM331 674Q113 674 113 469Q113 350 154 303T285 256Q396 256 449 314T503 475T462 626T331 674ZM451 718T503 658T556 475T492 282T297 212T113 275T60 461Q60 516 71 558T110 639Q168 718 328 718Q451 718 503 658Z" />
<glyph unicode="&#xaa;" glyph-name="ordfeminine" horiz-adv-x="327" d="M258 590L255 505Q255 461 267 385Q249 378 231 378T201 381L199 404Q165 373 127 373T69 396T50 460Q50 546 148 546Q178 546 203 534Q205 556 205 571Q205 634 159 634Q119 634 119 590Q119
583 120 576L106 575Q74 575 59 581Q58 586 58 595Q58 634 89 653T163 673T232 652T258 590ZM148 510Q106 510 106 468T142 425T198 449Q201 488 201 493Q178 510 148 510ZM49 262Q43 274 43 289T49 326Q247 340 271 345Q277 333 277 318T271 281Q73 267 49 262Z"
/>
<glyph unicode="&#xab;" glyph-name="guillemotleft" horiz-adv-x="495" d="M228 426Q228 426 147 280Q154 267 228 134Q208 114 180 108Q162 130 139 158T104 202Q74 238 30 280Q74 322 95 348T139 402T180 452Q211 443 228 426ZM425 426Q346 284 344 280Q377
218 425 134Q402 113 377 108Q359 130 336 158T300 202Q271 238 227 280Q271 322 292 348T336 402T377 452Q405 444 425 426Z" />
<glyph unicode="&#xac;" glyph-name="logicalnot" horiz-adv-x="601" d="M446 286Q354 295 298 295T175 291T90 281Q87 295 87 321T94 369Q163 360 261 360Q461 360 511 374Q507 331 507 269T518 167Q504 164 482 164T438 171Q446 213 446 286Z" />
<glyph unicode="&#xae;" glyph-name="registered" horiz-adv-x="616" d="M285 474Q298 468 315 468T345 487T358 531Q358 593 299 593Q277 593 259 586Q256 549 256 444T266 305Q247 298 232 298T200 300Q208 369 208 466T198 617Q235 632 297 632T386 606T412
539T394 470T342 433Q398 348 428 308Q404 296 361 296Q330 361 286 430Q284 430 274 434Q274 463 285 474ZM451 718T503 658T556 475T492 282T297 212T113 275T60 461Q60 516 71 558T110 639Q168 718 328 718Q451 718 503 658ZM331 674Q113 674 113 469Q113 350
154 303T285 256Q396 256 449 314T503 475T462 626T331 674Z" />
<glyph unicode="&#xaf;" glyph-name="overscore" horiz-adv-x="467" d="M352 571Q305 575 224 575T111 567Q110 574 110 597T114 636Q154 632 237 632T355 641Q357 627 357 607T352 571Z" />
<glyph unicode="&#xb0;" glyph-name="degree" horiz-adv-x="342" d="M247 683T274 652T302 555T268 454T165 417T68 450T40 546T70 646T174 683ZM180 631Q95 631 95 552Q95 506 111 488T166 469T226 491T247 554T231 613T180 631Z" />
<glyph unicode="&#xb1;" glyph-name="plusminus" horiz-adv-x="601" d="M259 574Q281 581 307 581T347 578Q342 561 338 498T333 400Q367 400 430 404T511 414Q514 400 514 374T507 326Q431 333 333 335Q333 227 342 161Q320 154 294 154T254 157Q265 201 268
335Q134 332 90 321Q87 334 87 360T94 409Q160 400 268 400Q266 498 259 574ZM507 -5Q415 4 329 4T175 0T90 -10Q87 3 87 29T94 78Q163 69 261 69Q461 69 511 83Q514 70 514 44T507 -5Z" />
<glyph unicode="&#xb2;" glyph-name="twosuperior" horiz-adv-x="349" d="M119 698T171 698T259 670T295 589Q295 561 278 529T243 477T186 416T133 358H183Q266 358 299 369Q306 350 306 332T299 298Q250 305 172 305T41 295Q37 315 37 327Q66 374 116 427T182
499Q227 551 227 587Q227 610 214 628T173 646T128 631T110 582Q110 572 111 567Q99 563 81 563T48 572Q45 585 45 597Q45 645 82 671Z" />
<glyph unicode="&#xb3;" glyph-name="threesuperior" horiz-adv-x="370" d="M126 698T178 698T266 670T302 586T260 504Q316 475 316 417T280 327T166 294T41 338Q44 355 53 370T71 392L79 398Q114 347 169 347Q209 347 228 365T248 411Q248 457 208 473Q193 472
169 472T125 475Q123 487 123 498T131 522Q148 516 176 516T220 538T236 584T222 627T180 646T135 631T117 582Q117 572 118 567Q106 563 88 563T55 572Q52 585 52 597Q52 645 89 671Z" />
<glyph unicode="&#xb4;" glyph-name="acute" horiz-adv-x="424" d="M130 528Q115 544 110 565Q129 578 158 597T200 626Q241 654 274 682Q295 664 304 648T314 603Q254 579 130 528Z" />
<glyph unicode="&#xb5;" glyph-name="mu" horiz-adv-x="485" d="M294 16T269 6T204 -5T138 18Q143 -99 163 -177Q133 -188 108 -188T58 -182Q78 7 78 185T60 458Q82 467 110 467T166 464Q151 327 151 231T164 96T224 57T332 118Q334 148 334 207Q334 372 316 458Q354
468 379 468T422 464Q407 328 407 220T425 3Q395 -6 373 -6T331 -4L329 45Q294 16 269 6Z" />
<glyph unicode="&#xb6;" glyph-name="paragraph" horiz-adv-x="512" d="M408 571Q400 501 400 306T414 -6Q397 -8 369 -8T308 2Q321 45 325 280Q305 275 279 275Q177 275 126 330T75 465Q75 655 293 655Q406 655 484 617Q484 590 477 569T463 541Q438 559 408
571ZM315 597L294 598Q162 598 162 469Q162 420 186 381T265 342Q298 342 325 358Q325 496 315 597Z" />
<glyph unicode="&#xb7;" glyph-name="middot" horiz-adv-x="270" d="M220 253Q220 223 202 203T147 183Q90 183 90 241Q90 313 163 313Q220 313 220 253Z" />
<glyph unicode="&#xb8;" glyph-name="cedilla" horiz-adv-x="502" d="M337 -124Q337 -210 226 -210Q181 -210 152 -198Q151 -195 151 -180T164 -144Q186 -164 227 -164T269 -125Q269 -95 224 -95Q204 -95 176 -99L192 -10L234 -1L236 -54Q337 -58 337 -124Z" />
<glyph unicode="&#xb9;" glyph-name="onesuperior" horiz-adv-x="285" d="M200 694Q191 628 191 487T203 307Q182 298 162 298T120 300Q130 375 130 478T127 616Q76 582 59 565Q29 599 23 628Q70 647 155 698Q192 698 200 694Z" />
<glyph unicode="&#xba;" glyph-name="ordmasculine" horiz-adv-x="331" d="M50 526Q50 673 165 673T281 526Q281 455 256 414T165 373T75 414T50 526ZM108 425T165 425T222 527T165 630T108 528ZM54 262Q48 274 48 289T54 326Q252 340 276 345Q282 333 282 318T276
281Q78 267 54 262Z" />
<glyph unicode="&#xbb;" glyph-name="guillemotright" horiz-adv-x="495" d="M348 280L267 426Q284 443 315 452Q333 430 356 402T392 358Q421 322 465 280Q421 238 400 212T356 158T315 108Q288 114 267 134Q341 267 348 280ZM70 426Q90 444 118 452Q136 430
159 402T194 358Q224 322 268 280Q224 238 203 212T159 158T118 108Q93 113 70 134Q118 218 151 280Q149 284 70 426Z" />
<glyph unicode="&#xbc;" glyph-name="onequarter" horiz-adv-x="889" d="M305 -46Q271 -46 248 -27Q372 265 502 686Q518 688 528 688Q556 688 581 670Q460 391 326 -44Q310 -46 305 -46ZM758 76L730 79Q733 21 739 4Q718 -5 698 -5T656 -3Q662 50 663 82H619Q538
82 490 79Q485 92 485 110L511 153Q593 290 635 383Q658 392 680 392T736 389Q727 321 727 242T728 141Q751 144 759 147Q765 129 765 114T758 76ZM665 136Q666 155 666 207T663 327Q619 254 565 135Q649 135 665 136ZM257 649Q248 583 248 442T260 262Q239 253
219 253T177 255Q187 330 187 433T184 571Q133 537 116 520Q86 554 80 583Q127 602 212 653Q249 653 257 649Z" />
<glyph unicode="&#xbd;" glyph-name="onehalf" horiz-adv-x="889" d="M294 -46Q260 -46 237 -27Q361 265 491 686Q507 688 517 688Q545 688 570 670Q449 391 315 -44Q299 -46 294 -46ZM591 395T643 395T731 367T767 286Q767 258 750 226T715 174T658 113T605 55H655Q738
55 771 66Q778 47 778 29T771 -5Q722 2 644 2T513 -8Q509 12 509 24Q538 71 588 124T654 196Q699 248 699 284Q699 307 686 325T645 343T600 328T582 279Q582 269 583 264Q571 260 553 260T520 269Q517 283 517 294Q517 342 554 368ZM257 649Q248 583 248 442T260
262Q239 253 219 253T177 255Q187 330 187 433T184 571Q133 537 116 520Q86 554 80 583Q127 602 212 653Q249 653 257 649Z" />
<glyph unicode="&#xbe;" glyph-name="threequarters" horiz-adv-x="889" d="M335 -46Q301 -46 278 -27Q402 265 532 686Q548 688 558 688Q586 688 611 670Q490 391 356 -44Q340 -46 335 -46ZM758 76L730 79Q733 21 739 4Q718 -5 698 -5T656 -3Q662 50 663 82H619Q538
82 490 79Q485 92 485 110L511 153Q593 290 635 383Q658 392 680 392T736 389Q727 321 727 242T728 141Q751 144 759 147Q765 129 765 114T758 76ZM665 136Q666 155 666 207T663 327Q619 254 565 135Q649 135 665 136ZM158 653T210 653T298 625T334 541T292 459Q348
430 348 372T312 282T198 249T73 293Q76 310 85 325T103 346L111 353Q146 302 201 302Q241 302 260 320T280 366Q280 412 240 428Q225 427 201 427T157 430Q155 442 155 453T163 477Q180 471 208 471T252 493T268 539T254 582T212 601T167 586T149 537Q149 527
150 522Q138 518 120 518T87 527Q84 540 84 552Q84 600 121 626Z" />
<glyph unicode="&#xbf;" glyph-name="questiondown" horiz-adv-x="427" d="M360 -176L359 -187Q306 -210 228 -210T96 -170T41 -67Q41 -31 59 -1T102 49T154 89Q215 135 215 180T187 257Q213 289 249 292Q283 224 283 174T225 66Q217 58 192 35T156 0Q124 -37
124 -72T152 -130T233 -152T340 -112Q360 -145 360 -176ZM162 408Q162 438 180 458T235 478Q292 478 292 420Q292 348 219 348Q162 348 162 408Z" />
<glyph unicode="&#xc0;" glyph-name="Agrave" horiz-adv-x="562" d="M396 178Q347 181 274 181T149 177Q119 53 105 -10Q87 -12 70 -12T14 -2Q177 432 204 639Q233 649 280 649T356 639Q383 432 546 -2Q510 -12 483 -12T440 -10Q423 65 396 178ZM166 247Q212 246
263 246T378 248Q333 423 279 578H273Q214 430 166 247ZM338 704Q275 717 158 759Q158 792 164 807T191 845Q229 813 256 798T290 778T322 760T354 742Q351 721 338 704Z" />
<glyph unicode="&#xc1;" glyph-name="Aacute" horiz-adv-x="562" d="M396 178Q347 181 274 181T149 177Q119 53 105 -10Q87 -12 70 -12T14 -2Q177 432 204 639Q233 649 280 649T356 639Q383 432 546 -2Q510 -12 483 -12T440 -10Q423 65 396 178ZM166 247Q212 246
263 246T378 248Q333 423 279 578H273Q214 430 166 247ZM397 768Q397 756 396 750Q273 713 214 704Q201 721 199 743Q220 754 249 769T294 792Q338 816 367 838Q397 805 397 768Z" />
<glyph unicode="&#xc2;" glyph-name="Acircumflex" horiz-adv-x="562" d="M396 178Q347 181 274 181T149 177Q119 53 105 -10Q87 -12 70 -12T14 -2Q177 432 204 639Q233 649 280 649T356 639Q383 432 546 -2Q510 -12 483 -12T440 -10Q423 65 396 178ZM166 247Q212
246 263 246T378 248Q333 423 279 578H273Q214 430 166 247ZM409 704Q341 725 282 756Q195 716 147 704Q135 722 132 743Q153 757 171 766T203 784T225 798T244 811Q258 821 282 845Q326 803 425 742Q422 721 409 704Z" />
<glyph unicode="&#xc3;" glyph-name="Atilde" horiz-adv-x="562" d="M396 178Q347 181 274 181T149 177Q119 53 105 -10Q87 -12 70 -12T14 -2Q177 432 204 639Q233 649 280 649T356 639Q383 432 546 -2Q510 -12 483 -12T440 -10Q423 65 396 178ZM166 247Q212 246
263 246T378 248Q333 423 279 578H273Q214 430 166 247ZM409 744T379 724T324 704T268 720T218 737Q182 737 164 705Q137 716 132 737Q147 763 177 783T233 803T291 787T338 770Q374 770 392 802Q419 791 424 770Q409 744 379 724Z" />
<glyph unicode="&#xc4;" glyph-name="Adieresis" horiz-adv-x="562" d="M396 178Q347 181 274 181T149 177Q119 53 105 -10Q87 -12 70 -12T14 -2Q177 432 204 639Q233 649 280 649T356 639Q383 432 546 -2Q510 -12 483 -12T440 -10Q423 65 396 178ZM166 247Q212
246 263 246T378 248Q333 423 279 578H273Q214 430 166 247ZM407 759Q407 704 349 704Q304 704 304 750Q304 806 362 806Q407 806 407 759ZM257 759Q257 704 199 704Q154 704 154 750Q154 806 212 806Q257 806 257 759Z" />
<glyph unicode="&#xc5;" glyph-name="Aring" horiz-adv-x="562" d="M396 178Q347 181 274 181T149 177Q119 53 105 -10Q87 -12 70 -12T14 -2Q177 432 204 639Q233 649 280 649T356 639Q383 432 546 -2Q510 -12 483 -12T440 -10Q423 65 396 178ZM166 247Q212 246
263 246T378 248Q333 423 279 578H273Q214 430 166 247ZM367 783Q367 704 273 704Q230 704 212 723T193 781Q193 860 287 860Q331 860 349 842T367 783ZM285 823Q232 823 232 783Q232 760 242 751T275 741Q328 741 328 784Q328 805 318 814T285 823Z" />
<glyph unicode="&#xc6;" glyph-name="AE" horiz-adv-x="777" d="M476 76Q511 73 584 73T711 82Q719 56 719 32T715 -11Q696 -6 635 -2T514 3T388 -4Q388 77 380 179Q298 181 256 181T168 177Q143 110 106 -6Q92 -8 69 -8T12 2Q220 450 261 646Q317 639 456 639H517Q551
639 611 643T690 653Q694 635 694 613T686 565Q633 574 543 574T423 571Q424 508 438 365Q458 364 537 364T665 375Q670 343 670 323T669 289Q622 297 553 297T446 295Q461 149 476 76ZM375 248L369 310Q348 483 330 578H323Q257 419 193 247Q236 246 293 246T375
248Z" />
<glyph unicode="&#xc7;" glyph-name="Ccedilla" horiz-adv-x="536" d="M303 -15L293 -14L295 -54Q396 -58 396 -124Q396 -210 285 -210Q240 -210 211 -198Q210 -195 210 -180T223 -144Q245 -164 286 -164T328 -125Q328 -95 283 -95Q263 -95 235 -99L250 -11Q114
8 76 143Q55 215 55 327Q55 655 303 655Q403 655 452 606T501 478Q501 465 498 453Q481 444 457 444T408 446Q409 454 409 467Q409 526 381 561T303 596Q137 596 137 328T303 59Q342 59 384 78T455 130Q486 105 495 51Q406 -15 303 -15Z" />
<glyph unicode="&#xc8;" glyph-name="Egrave" horiz-adv-x="519" d="M357 704Q294 717 177 759Q177 792 183 807T210 845Q248 813 275 798T309 778T341 760T373 742Q370 721 357 704ZM195 76Q230 73 316 73T455 82Q463 56 463 32T459 -11Q440 -6 379 -2T242 3T99
-4Q113 134 113 331T94 646Q161 639 238 639T375 643T454 653Q458 635 458 613T450 565Q397 574 313 574T194 571Q188 514 188 365Q209 364 289 364T419 375Q424 343 424 323T423 289Q376 297 304 297T188 295Q188 164 195 76Z" />
<glyph unicode="&#xc9;" glyph-name="Eacute" horiz-adv-x="519" d="M195 76Q230 73 316 73T455 82Q463 56 463 32T459 -11Q440 -6 379 -2T242 3T99 -4Q113 134 113 331T94 646Q161 639 238 639T375 643T454 653Q458 635 458 613T450 565Q397 574 313 574T194
571Q188 514 188 365Q209 364 289 364T419 375Q424 343 424 323T423 289Q376 297 294 297T188 295Q188 164 195 76ZM406 768Q406 756 405 750Q282 713 223 704Q210 721 208 743Q229 754 258 769T303 792Q347 816 376 838Q406 805 406 768Z" />
<glyph unicode="&#xca;" glyph-name="Ecircumflex" horiz-adv-x="519" d="M195 76Q230 73 316 73T455 82Q463 56 463 32T459 -11Q440 -6 379 -2T242 3T99 -4Q113 134 113 331T94 646Q161 639 238 639T375 643T454 653Q458 635 458 613T450 565Q397 574 313 574T194
571Q188 514 188 365Q209 364 289 364T419 375Q424 343 424 323T423 289Q376 297 304 297T188 295Q188 164 195 76ZM412 704Q344 725 285 756Q198 716 150 704Q138 722 135 743Q156 757 174 766T206 784T228 798T246 811Q261 821 285 845Q329 803 428 742Q425 721
412 704Z" />
<glyph unicode="&#xcb;" glyph-name="Edieresis" horiz-adv-x="519" d="M406 759Q406 704 348 704Q303 704 303 750Q303 806 361 806Q406 806 406 759ZM256 759Q256 704 198 704Q153 704 153 750Q153 806 211 806Q256 806 256 759ZM195 76Q230 73 316 73T455 82Q463
56 463 32T459 -11Q440 -6 379 -2T242 3T99 -4Q113 134 113 331T94 646Q161 639 238 639T375 643T454 653Q458 635 458 613T450 565Q397 574 313 574T194 571Q188 514 188 365Q209 364 289 364T419 375Q424 343 424 323T423 289Q376 297 304 297T188 295Q188 164
195 76Z" />
<glyph unicode="&#xcc;" glyph-name="Igrave" horiz-adv-x="317" d="M106 -6Q120 111 120 327T103 639Q129 649 155 649T209 647Q195 536 195 296T212 2Q179 -8 151 -8T106 -6ZM237 704Q174 717 57 759Q57 792 63 807T90 845Q128 813 155 798T189 778T221 760T253
742Q250 721 237 704Z" />
<glyph unicode="&#xcd;" glyph-name="Iacute" horiz-adv-x="317" d="M106 -6Q120 111 120 327T103 639Q129 649 155 649T209 647Q195 536 195 296T212 2Q179 -8 151 -8T106 -6ZM281 768Q281 756 280 750Q157 713 98 704Q85 721 83 743Q104 754 133 769T178 792Q222
816 251 838Q281 805 281 768Z" />
<glyph unicode="&#xce;" glyph-name="Icircumflex" horiz-adv-x="317" d="M106 -6Q120 111 120 327T103 639Q129 649 155 649T209 647Q195 536 195 296T212 2Q179 -8 151 -8T106 -6ZM285 704Q217 725 158 756Q71 716 23 704Q11 722 8 743Q29 757 47 766T79 784T101
798T120 811Q134 821 158 845Q202 803 301 742Q298 721 285 704Z" />
<glyph unicode="&#xcf;" glyph-name="Idieresis" horiz-adv-x="317" d="M106 -6Q120 111 120 327T103 639Q129 649 155 649T209 647Q195 536 195 296T212 2Q179 -8 151 -8T106 -6ZM131 759Q131 704 73 704Q28 704 28 750Q28 806 86 806Q131 806 131 759ZM281 759Q281
704 223 704Q178 704 178 750Q178 806 236 806Q281 806 281 759Z" />
<glyph unicode="&#xd0;" glyph-name="Eth" horiz-adv-x="617" d="M298 655Q372 655 425 628T506 552Q561 459 561 325Q561 139 486 56Q458 25 410 5T298 -15Q177 -15 102 13Q114 118 116 291Q82 288 48 283Q45 296 45 322T52 371Q84 367 116 365Q114 535 99 627Q185
655 298 655ZM298 56Q475 56 475 325Q475 402 459 460T402 557T304 596T198 577Q191 494 191 363Q266 363 341 376Q344 362 344 336T337 288Q275 295 208 295H191Q191 170 199 77Q246 56 298 56Z" />
<glyph unicode="&#xd1;" glyph-name="Ntilde" horiz-adv-x="650" d="M97 -6Q111 111 111 327T94 639Q120 649 138 649T185 647Q204 575 294 429T483 145Q486 229 486 307Q486 543 469 639Q495 649 513 649T560 647Q546 536 546 296T563 2Q533 -8 520 -8T472 -6Q465
25 413 106T284 301T172 470Q171 427 171 338Q171 56 188 2Q158 -8 145 -8T97 -6ZM454 744T424 724T369 704T313 720T263 737Q227 737 209 705Q182 716 177 737Q192 763 222 783T278 803T336 787T383 770Q419 770 437 802Q464 791 469 770Q454 744 424 724Z" />
<glyph unicode="&#xd2;" glyph-name="Ograve" horiz-adv-x="692" d="M103 327Q103 655 348 655T594 327Q594 267 590 222T570 130T528 53T457 4T349 -15T241 4T169 53T128 130T108 222T103 327ZM264 81Q298 59 348 59T433 81T485 144Q515 215 515 326Q515 596
349 596T182 326Q182 133 264 81ZM430 704Q367 717 250 759Q250 792 256 807T283 845Q321 813 348 798T382 778T414 760T446 742Q443 721 430 704Z" />
<glyph unicode="&#xd3;" glyph-name="Oacute" horiz-adv-x="601" d="M55 327Q55 655 300 655T546 327Q546 267 542 222T522 130T480 53T409 4T301 -15T193 4T121 53T80 130T60 222T55 327ZM216 81Q250 59 300 59T385 81T437 144Q467 215 467 326Q467 596 301 596T134
326Q134 133 216 81ZM427 768Q427 756 426 750Q303 713 244 704Q231 721 229 743Q250 754 279 769T324 792Q368 816 397 838Q427 805 427 768Z" />
<glyph unicode="&#xd4;" glyph-name="Ocircumflex" horiz-adv-x="601" d="M55 327Q55 655 300 655T546 327Q546 267 542 222T522 130T480 53T409 4T301 -15T193 4T121 53T80 130T60 222T55 327ZM216 81Q250 59 300 59T385 81T437 144Q467 215 467 326Q467 596
301 596T134 326Q134 133 216 81ZM427 704Q359 725 300 756Q213 716 165 704Q153 722 150 743Q171 757 189 766T221 784T243 798T262 811Q276 821 300 845Q344 803 443 742Q440 721 427 704Z" />
<glyph unicode="&#xd5;" glyph-name="Otilde" horiz-adv-x="601" d="M55 327Q55 655 300 655T546 327Q546 267 542 222T522 130T480 53T409 4T301 -15T193 4T121 53T80 130T60 222T55 327ZM216 81Q250 59 300 59T385 81T437 144Q467 215 467 326Q467 596 301 596T134
326Q134 133 216 81ZM431 744T401 724T346 704T290 720T240 737Q204 737 186 705Q159 716 154 737Q169 763 199 783T255 803T313 787T360 770Q396 770 414 802Q441 791 446 770Q431 744 401 724Z" />
<glyph unicode="&#xd6;" glyph-name="Odieresis" horiz-adv-x="601" d="M55 327Q55 655 300 655T546 327Q546 267 542 222T522 130T480 53T409 4T301 -15T193 4T121 53T80 130T60 222T55 327ZM216 81Q250 59 300 59T385 81T437 144Q467 215 467 326Q467 596 301
596T134 326Q134 133 216 81ZM279 759Q279 704 221 704Q176 704 176 750Q176 806 234 806Q279 806 279 759ZM429 759Q429 704 371 704Q326 704 326 750Q326 806 384 806Q429 806 429 759Z" />
<glyph unicode="&#xd7;" glyph-name="multiply" horiz-adv-x="601" d="M104 465Q124 503 163 530Q172 515 222 459T300 373Q325 398 376 456T438 530Q477 503 497 465Q435 414 346 327Q447 228 497 190Q484 166 470 152T438 125Q428 140 377 198T300 281Q271 251
222 196T163 125Q124 153 104 190Q150 225 254 327Q177 404 104 465Z" />
<glyph unicode="&#xd8;" glyph-name="Oslash" horiz-adv-x="601" d="M195 -84Q163 -84 141 -63L168 15Q101 53 78 131T55 327Q55 655 300 655Q337 655 364 648L384 722Q400 724 409 724Q434 724 460 704L430 623Q546 552 546 327Q546 267 542 222T522 130T480
53T409 4T314 -15T234 -9L215 -81Q204 -84 195 -84ZM134 326Q134 157 197 96Q275 327 348 589Q322 596 300 596Q134 596 134 326ZM300 59Q402 59 437 144Q467 215 467 326Q467 487 405 553Q326 322 255 64Q277 59 300 59Z" />
<glyph unicode="&#xd9;" glyph-name="Ugrave" horiz-adv-x="644" d="M546 277Q546 217 542 177T525 97T487 35Q435 -15 325 -15Q184 -15 140 64Q118 106 111 154T103 277Q103 543 86 639Q112 649 138 649T192 647Q178 536 178 276Q178 164 209 112T332 59T453
111T483 276Q483 543 466 639Q492 649 512 649T560 647Q546 536 546 277ZM375 704Q312 717 195 759Q195 792 201 807T228 845Q266 813 293 798T327 778T359 760T391 742Q388 721 375 704Z" />
<glyph unicode="&#xda;" glyph-name="Uacute" horiz-adv-x="644" d="M546 277Q546 217 542 177T525 97T487 35Q435 -15 325 -15Q184 -15 140 64Q118 106 111 154T103 277Q103 543 86 639Q112 649 138 649T192 647Q178 536 178 276Q178 164 209 112T332 59T453
111T483 276Q483 543 466 639Q492 649 512 649T560 647Q546 536 546 277ZM443 768Q443 756 442 750Q319 713 260 704Q247 721 245 743Q266 754 295 769T340 792Q384 816 413 838Q443 805 443 768Z" />
<glyph unicode="&#xdb;" glyph-name="Ucircumflex" horiz-adv-x="644" d="M546 277Q546 217 542 177T525 97T487 35Q435 -15 325 -15Q184 -15 140 64Q118 106 111 154T103 277Q103 543 86 639Q112 649 138 649T192 647Q178 536 178 276Q178 164 209 112T332 59T453
111T483 276Q483 543 466 639Q492 649 512 649T560 647Q546 536 546 277ZM455 704Q387 725 328 756Q241 716 193 704Q181 722 178 743Q199 757 217 766T249 784T271 798T290 811Q304 821 328 845Q372 803 471 742Q468 721 455 704Z" />
<glyph unicode="&#xdc;" glyph-name="Udieresis" horiz-adv-x="644" d="M546 277Q546 217 542 177T525 97T487 35Q435 -15 325 -15Q184 -15 140 64Q118 106 111 154T103 277Q103 543 86 639Q112 649 138 649T192 647Q178 536 178 276Q178 164 209 112T332 59T453
111T483 276Q483 543 466 639Q492 649 512 649T560 647Q546 536 546 277ZM303 759Q303 704 245 704Q200 704 200 750Q200 806 258 806Q303 806 303 759ZM453 759Q453 704 395 704Q350 704 350 750Q350 806 408 806Q453 806 453 759Z" />
<glyph unicode="&#xdd;" glyph-name="Yacute" horiz-adv-x="494" d="M14 634Q54 651 86 651T130 650Q136 575 178 478Q193 442 219 383T259 293H263Q298 360 333 469T373 649Q391 651 400 651Q447 651 478 634Q477 631 445 561T387 434Q312 266 294 194Q299 31
310 2Q277 -8 249 -8T204 -6Q214 76 217 197Q194 270 150 362T66 532T14 634ZM394 768Q394 756 393 750Q270 713 211 704Q198 721 196 743Q217 754 246 769T291 792Q335 816 364 838Q394 805 394 768Z" />
<glyph unicode="&#xde;" glyph-name="Thorn" horiz-adv-x="518" d="M93 -6Q107 111 107 327T90 639Q116 649 142 649T196 647Q189 602 186 549Q230 555 284 555Q402 555 452 502T502 352T452 195T298 135Q258 135 219 150Q219 177 226 200T240 231Q269 202 309
202T374 227Q415 268 415 349Q415 498 283 498Q240 498 183 474Q182 429 182 338Q182 56 199 2Q166 -8 138 -8T93 -6Z" />
<glyph unicode="&#xdf;" glyph-name="germandbls" horiz-adv-x="538" d="M89 408L32 407Q26 419 26 436T28 462H89Q92 522 108 567T164 644T273 675T392 634T442 523T411 414T332 359Q512 321 512 173Q512 35 404 -3Q369 -15 324 -15Q249 -15 195 34Q201 68 223
98L230 108Q265 49 326 49Q425 49 425 173Q425 267 354 299Q325 312 294 316T259 321Q253 333 253 350T255 376Q359 397 359 507Q359 554 336 584T273 615T213 602T182 562Q165 518 165 452V237Q165 98 183 6Q149 -4 122 -4T77 0Q92 155 92 208L89 408Z" />
<glyph unicode="&#xe0;" glyph-name="agrave" horiz-adv-x="473" d="M209 219Q173 219 151 200T128 139Q128 57 199 57Q227 57 256 71T301 104Q306 167 306 184Q265 219 209 219ZM388 345L384 201Q384 118 401 3Q371 -6 349 -6T307 -4L304 44Q228 -15 170 -15T81
22T50 129T95 235T203 271T310 247Q311 267 311 291T310 333T300 375Q286 422 227 422Q153 422 153 341L154 324Q132 322 113 322T68 330Q66 346 66 353Q66 416 112 447T231 478T346 445T388 345ZM277 528Q153 579 93 603Q94 631 103 647T133 682Q179 643 228 611T297
565Q292 544 277 528Z" />
<glyph unicode="&#xe1;" glyph-name="aacute" horiz-adv-x="473" d="M209 219Q173 219 151 200T128 139Q128 57 199 57Q227 57 256 71T301 104Q306 167 306 184Q265 219 209 219ZM388 345L384 201Q384 118 401 3Q371 -6 349 -6T307 -4L304 44Q228 -15 170 -15T81
22T50 129T95 235T203 271T310 247Q311 267 311 291T310 333T300 375Q286 422 227 422Q153 422 153 341L154 324Q132 322 113 322T68 330Q66 346 66 353Q66 416 112 447T231 478T346 445T388 345ZM172 528Q157 544 152 565Q171 578 200 597T242 626Q283 654 316
682Q337 664 346 648T356 603Q296 579 172 528Z" />
<glyph unicode="&#xe2;" glyph-name="acircumflex" horiz-adv-x="473" d="M209 219Q173 219 151 200T128 139Q128 57 199 57Q227 57 256 71T301 104Q306 167 306 184Q265 219 209 219ZM388 345L384 201Q384 118 401 3Q371 -6 349 -6T307 -4L304 44Q228 -15 170
-15T81 22T50 129T95 235T203 271T310 247Q311 267 311 291T310 333T300 375Q286 422 227 422Q153 422 153 341L154 324Q132 322 113 322T68 330Q66 346 66 353Q66 416 112 447T231 478T346 445T388 345ZM339 528L225 591Q192 573 111 528Q95 546 91 565Q109 580
138 604Q199 655 225 682Q251 655 296 618T359 565Q354 544 339 528Z" />
<glyph unicode="&#xe3;" glyph-name="atilde" horiz-adv-x="473" d="M209 219Q173 219 151 200T128 139Q128 57 199 57Q227 57 256 71T301 104Q306 167 306 184Q265 219 209 219ZM388 345L384 201Q384 118 401 3Q371 -6 349 -6T307 -4L304 44Q228 -15 170 -15T81
22T50 129T95 235T203 271T310 247Q311 267 311 291T310 333T300 375Q286 422 227 422Q153 422 153 341L154 324Q132 322 113 322T68 330Q66 346 66 353Q66 416 112 447T231 478T346 445T388 345ZM96 598T125 620T180 643T237 627T286 610Q311 610 336 650Q363
638 370 617Q356 590 327 567T272 544T214 560T161 577T114 537Q89 549 82 570Q96 598 125 620Z" />
<glyph unicode="&#xe4;" glyph-name="adieresis" horiz-adv-x="473" d="M209 219Q173 219 151 200T128 139Q128 57 199 57Q227 57 256 71T301 104Q306 167 306 184Q265 219 209 219ZM388 345L384 201Q384 118 401 3Q371 -6 349 -6T307 -4L304 44Q228 -15 170 -15T81
22T50 129T95 235T203 271T310 247Q311 267 311 291T310 333T300 375Q286 422 227 422Q153 422 153 341L154 324Q132 322 113 322T68 330Q66 346 66 353Q66 416 112 447T231 478T346 445T388 345ZM202 599Q202 544 144 544Q99 544 99 590Q99 646 157 646Q202 646
202 599ZM352 599Q352 544 294 544Q249 544 249 590Q249 646 307 646Q352 646 352 599Z" />
<glyph unicode="&#xe5;" glyph-name="aring" horiz-adv-x="473" d="M209 219Q173 219 151 200T128 139Q128 57 199 57Q227 57 256 71T301 104Q306 167 306 184Q265 219 209 219ZM388 345L384 201Q384 118 401 3Q371 -6 349 -6T307 -4L304 44Q228 -15 170 -15T81
22T50 129T95 235T203 271T310 247Q311 267 311 291T310 333T300 375Q286 422 227 422Q153 422 153 341L154 324Q132 322 113 322T68 330Q66 346 66 353Q66 416 112 447T231 478T346 445T388 345ZM280 693T297 674T314 614T293 550T225 527Q150 527 150 610T239
693Q280 693 297 674ZM237 656Q189 656 189 611Q189 585 198 575T227 564Q275 564 275 612Q275 656 237 656Z" />
<glyph unicode="&#xe6;" glyph-name="ae" horiz-adv-x="716" d="M153 341L154 324Q132 322 113 322T68 330Q66 346 66 353Q66 416 112 447T241 478T364 410Q418 478 497 478T620 435T664 332T653 246Q578 222 504 222T392 227Q392 107 444 73Q468 57 505 57Q565
57 629 119Q658 89 666 40Q586 -16 497 -16Q387 -16 344 66Q299 22 261 4T167 -15T81 22T50 129T95 235T203 271T310 247Q311 267 311 291T310 333T300 375Q286 422 227 422Q153 422 153 341ZM199 57Q267 57 322 126Q318 143 314 177Q267 219 209 219Q173 219 151
200T128 139Q128 57 199 57ZM497 422Q403 422 393 285Q435 280 490 280T576 290Q580 326 580 327Q580 366 560 394T497 422Z" />
<glyph unicode="&#xe7;" glyph-name="ccedilla" horiz-adv-x="430" d="M229 478Q293 478 338 446T384 353Q384 346 382 330Q356 322 337 322T296 324Q297 331 297 343Q297 376 278 399T222 422Q127 422 127 240T231 57Q281 57 353 119Q382 89 390 40Q309 -13 229
-15L231 -54Q332 -58 332 -124Q332 -210 221 -210Q176 -210 147 -198Q146 -195 146 -180T159 -144Q181 -164 222 -164T264 -125Q264 -95 219 -95Q199 -95 171 -99L186 -12Q107 1 76 67T45 240T88 412T229 478Z" />
<glyph unicode="&#xe8;" glyph-name="egrave" horiz-adv-x="451" d="M388 246Q313 222 239 222T127 227Q127 137 156 96Q183 57 240 57T364 119Q393 89 401 40Q320 -15 232 -15Q127 -15 86 53T45 235T90 413T239 478Q311 478 354 435T398 332T388 246ZM232 422Q140
422 128 285Q171 280 225 280T311 290Q315 326 315 327Q315 366 295 394T232 422ZM272 528Q148 579 88 603Q89 631 98 647T128 682Q174 643 223 611T292 565Q287 544 272 528Z" />
<glyph unicode="&#xe9;" glyph-name="eacute" horiz-adv-x="451" d="M388 246Q313 222 239 222T127 227Q127 137 156 96Q183 57 240 57T364 119Q393 89 401 40Q320 -15 232 -15Q127 -15 86 53T45 235T90 413T239 478Q311 478 354 435T398 332T388 246ZM232 422Q140
422 128 285Q171 280 225 280T311 290Q315 326 315 327Q315 366 295 394T232 422ZM169 528Q154 544 149 565Q168 578 197 597T240 626Q280 654 313 682Q334 664 343 648T353 603Q293 579 169 528Z" />
<glyph unicode="&#xea;" glyph-name="ecircumflex" horiz-adv-x="451" d="M388 246Q313 222 239 222T127 227Q127 137 156 96Q183 57 240 57T364 119Q393 89 401 40Q320 -15 232 -15Q127 -15 86 53T45 235T90 413T239 478Q311 478 354 435T398 332T388 246ZM232
422Q140 422 128 285Q171 280 225 280T311 290Q315 326 315 327Q315 366 295 394T232 422ZM350 528L236 591Q203 573 122 528Q106 546 102 565Q120 580 150 604Q210 655 236 682Q262 655 307 618T370 565Q365 544 350 528Z" />
<glyph unicode="&#xeb;" glyph-name="edieresis" horiz-adv-x="451" d="M388 246Q313 222 239 222T127 227Q127 137 156 96Q183 57 240 57T364 119Q393 89 401 40Q320 -15 232 -15Q127 -15 86 53T45 235T90 413T239 478Q311 478 354 435T398 332T388 246ZM232
422Q140 422 128 285Q171 280 225 280T311 290Q315 326 315 327Q315 366 295 394T232 422ZM367 607Q367 552 309 552Q264 552 264 598Q264 654 322 654Q367 654 367 607ZM217 607Q217 552 159 552Q114 552 114 598Q114 654 172 654Q217 654 217 607Z" />
<glyph unicode="&#xec;" glyph-name="igrave" horiz-adv-x="263" d="M173 256Q173 92 191 6Q155 -4 126 -4T85 -2Q100 134 100 247T82 458Q116 468 143 468T188 464Q173 309 173 256ZM198 528Q74 579 14 603Q15 631 24 647T54 682Q100 643 149 611T218 565Q213
544 198 528Z" />
<glyph unicode="&#xed;" glyph-name="iacute" horiz-adv-x="263" d="M84 528Q69 544 64 565Q83 578 112 597T154 626Q195 654 228 682Q249 664 258 648T268 603Q208 579 84 528ZM173 256Q173 92 191 6Q155 -4 126 -4T85 -2Q100 134 100 247T82 458Q116 468 143
468T188 464Q173 309 173 256Z" />
<glyph unicode="&#xee;" glyph-name="icircumflex" horiz-adv-x="263" d="M173 256Q173 92 191 6Q155 -4 126 -4T85 -2Q100 134 100 247T82 458Q116 468 143 468T188 464Q173 309 173 256ZM250 528L136 591Q103 573 22 528Q6 546 2 565Q20 580 50 604Q110 655
136 682Q162 655 207 618T270 565Q265 544 250 528Z" />
<glyph unicode="&#xef;" glyph-name="idieresis" horiz-adv-x="263" d="M173 256Q173 92 191 6Q155 -4 126 -4T85 -2Q100 134 100 247T82 458Q116 468 143 468T188 464Q173 309 173 256ZM112 607Q112 552 54 552Q9 552 9 598Q9 654 67 654Q112 654 112 607ZM262
607Q262 552 204 552Q159 552 159 598Q159 654 217 654Q262 654 262 607Z" />
<glyph unicode="&#xf0;" glyph-name="eth" horiz-adv-x="486" d="M431 246Q431 99 382 40Q362 16 327 1T239 -15T148 4T90 61Q55 126 55 236T97 412T234 478Q288 478 334 435Q302 522 249 569Q188 534 166 518Q145 531 145 561Q174 576 210 597Q175 618 123 637Q123
671 136 687Q209 665 263 627Q327 663 351 681Q371 669 373 636Q339 619 299 597Q431 476 431 246ZM137 57T243 57T349 239T243 422T137 240Z" />
<glyph unicode="&#xf1;" glyph-name="ntilde" horiz-adv-x="533" d="M443 334L442 253Q442 124 462 9Q429 -4 398 -4T354 -2Q366 131 366 232T352 374T288 414T175 350Q173 319 173 256Q173 92 191 6Q155 -4 126 -4T85 -2Q100 134 100 236T80 458Q120 468 143
468T179 464V413Q248 478 317 478T414 443T443 334ZM136 598T165 620T220 643T277 627T326 610Q351 610 376 650Q403 638 410 617Q396 590 367 567T312 544T254 560T201 577T154 537Q129 549 122 570Q136 598 165 620Z" />
<glyph unicode="&#xf2;" glyph-name="ograve" horiz-adv-x="466" d="M45 478T233 478T421 237Q421 126 386 61Q346 -15 233 -15T80 61Q45 126 45 237Q45 478 233 478ZM127 57T233 57T339 239T233 422T127 240ZM285 528Q161 579 101 603Q102 631 111 647T141 682Q187
643 236 611T305 565Q300 544 285 528Z" />
<glyph unicode="&#xf3;" glyph-name="oacute" horiz-adv-x="466" d="M45 478T233 478T421 237Q421 126 386 61Q346 -15 233 -15T80 61Q45 126 45 237Q45 478 233 478ZM127 57T233 57T339 239T233 422T127 240ZM181 528Q166 544 161 565Q180 578 209 597T252 626Q292
654 325 682Q346 664 355 648T365 603Q305 579 181 528Z" />
<glyph unicode="&#xf4;" glyph-name="ocircumflex" horiz-adv-x="466" d="M45 478T233 478T421 237Q421 126 386 61Q346 -15 233 -15T80 61Q45 126 45 237Q45 478 233 478ZM127 57T233 57T339 239T233 422T127 240ZM347 528L233 591Q200 573 119 528Q103 546 99
565Q117 580 146 604Q207 655 233 682Q259 655 304 618T367 565Q362 544 347 528Z" />
<glyph unicode="&#xf5;" glyph-name="otilde" horiz-adv-x="466" d="M45 478T233 478T421 237Q421 126 386 61Q346 -15 233 -15T80 61Q45 126 45 237Q45 478 233 478ZM127 57T233 57T339 239T233 422T127 240ZM103 598T132 620T187 643T244 627T293 610Q318 610
343 650Q370 638 377 617Q363 590 334 567T279 544T221 560T168 577T121 537Q96 549 89 570Q103 598 132 620Z" />
<glyph unicode="&#xf6;" glyph-name="odieresis" horiz-adv-x="466" d="M45 478T233 478T421 237Q421 126 386 61Q346 -15 233 -15T80 61Q45 126 45 237Q45 478 233 478ZM127 57T233 57T339 239T233 422T127 240ZM209 607Q209 552 151 552Q106 552 106 598Q106
654 164 654Q209 654 209 607ZM359 607Q359 552 301 552Q256 552 256 598Q256 654 314 654Q359 654 359 607Z" />
<glyph unicode="&#xf7;" glyph-name="divide" horiz-adv-x="601" d="M507 286Q415 295 329 295T175 291T90 281Q87 295 87 321T94 369Q163 360 261 360Q461 360 511 374Q514 360 514 334T507 286ZM365 500Q365 470 347 450T292 430Q235 430 235 488Q235 560 308
560Q365 560 365 500ZM365 165Q365 135 347 115T292 95Q235 95 235 153Q235 225 308 225Q365 225 365 165Z" />
<glyph unicode="&#xf8;" glyph-name="oslash" horiz-adv-x="466" d="M379 527Q358 482 344 447Q421 392 421 237Q421 126 386 61Q346 -15 233 -15Q202 -15 177 -9L155 -79Q141 -81 136 -81Q107 -81 87 -65L121 15Q45 68 45 237Q45 478 233 478Q262 478 288 472L310
541Q322 543 340 543T379 527ZM127 237Q127 143 154 98Q212 249 269 415Q250 422 233 422Q127 422 127 237ZM233 57Q339 57 339 237Q339 324 314 373Q257 229 201 61Q213 57 233 57Z" />
<glyph unicode="&#xf9;" glyph-name="ugrave" horiz-adv-x="502" d="M82 129L83 210Q83 363 65 458Q88 467 116 467T171 464Q156 327 156 231T169 96T229 57T337 118Q339 148 339 207Q339 372 321 458Q359 468 384 468T427 464Q412 328 412 220T430 3Q400 -6 378
-6T336 -4L334 45Q260 -15 198 -15T109 20T82 129ZM299 528Q175 579 115 603Q116 631 125 647T155 682Q201 643 250 611T319 565Q314 544 299 528Z" />
<glyph unicode="&#xfa;" glyph-name="uacute" horiz-adv-x="502" d="M82 129L83 210Q83 363 65 458Q88 467 116 467T171 464Q156 327 156 231T169 96T229 57T337 118Q339 148 339 207Q339 372 321 458Q359 468 384 468T427 464Q412 328 412 220T430 3Q400 -6 378
-6T336 -4L334 45Q260 -15 198 -15T109 20T82 129ZM196 528Q181 544 176 565Q195 578 224 597T266 626Q307 654 340 682Q361 664 370 648T380 603Q320 579 196 528Z" />
<glyph unicode="&#xfb;" glyph-name="ucircumflex" horiz-adv-x="502" d="M82 129L83 210Q83 363 65 458Q88 467 116 467T171 464Q156 327 156 231T169 96T229 57T337 118Q339 148 339 207Q339 372 321 458Q359 468 384 468T427 464Q412 328 412 220T430 3Q400
-6 378 -6T336 -4L334 45Q260 -15 198 -15T109 20T82 129ZM362 528L248 591Q215 573 134 528Q118 546 114 565Q132 580 162 604Q222 655 248 682Q274 655 319 618T382 565Q377 544 362 528Z" />
<glyph unicode="&#xfc;" glyph-name="udieresis" horiz-adv-x="502" d="M82 129L83 210Q83 363 65 458Q88 467 116 467T171 464Q156 327 156 231T169 96T229 57T337 118Q339 148 339 207Q339 372 321 458Q359 468 384 468T427 464Q412 328 412 220T430 3Q400 -6
378 -6T336 -4L334 45Q260 -15 198 -15T109 20T82 129ZM374 607Q374 552 316 552Q271 552 271 598Q271 654 329 654Q374 654 374 607ZM224 607Q224 552 166 552Q121 552 121 598Q121 654 179 654Q224 654 224 607Z" />
<glyph unicode="&#xfd;" glyph-name="yacute" horiz-adv-x="443" d="M220 -111T180 -160T85 -210T-18 -178Q-14 -120 15 -95Q45 -136 88 -136Q111 -136 140 -97T187 -6Q161 86 110 221T11 452Q51 469 83 469T127 468Q137 325 226 111H230Q263 174 294 284T330
467Q348 469 357 469Q404 469 435 452Q410 396 346 236T251 -18ZM185 528Q170 544 165 565Q184 578 213 597T256 626Q296 654 329 682Q350 664 359 648T369 603Q309 579 185 528Z" />
<glyph unicode="&#xfe;" glyph-name="thorn" horiz-adv-x="494" d="M60 -208Q80 -21 80 232T77 543T62 672Q88 682 114 682T168 680Q153 561 153 410Q230 478 298 478Q439 478 439 238Q439 146 402 71Q383 31 343 8T254 -15T152 9Q156 -138 169 -200Q147 -210
113 -210T60 -208ZM245 57Q354 57 354 251Q354 369 316 400Q297 414 268 414T207 395T153 349Q151 266 151 80Q209 57 245 57Z" />
<glyph unicode="&#xff;" glyph-name="ydieresis" horiz-adv-x="441" d="M221 -111T181 -160T86 -210T-17 -178Q-13 -120 16 -95Q46 -136 89 -136Q112 -136 141 -97T188 -6Q162 86 111 221T12 452Q52 469 84 469T128 468Q138 325 227 111H231Q264 174 295 284T331
467Q349 469 358 469Q405 469 436 452Q411 396 347 236T252 -18ZM215 607Q215 552 157 552Q112 552 112 598Q112 654 170 654Q215 654 215 607ZM365 607Q365 552 307 552Q262 552 262 598Q262 654 320 654Q365 654 365 607Z" />
<glyph unicode="&#x2013;" glyph-name="endash" horiz-adv-x="502" d="M474 215Q376 224 277 224T110 219T24 210Q20 224 20 248T28 298Q102 289 203 289T382 293T478 303Q482 285 482 263T474 215Z" />
<glyph unicode="&#x2014;" glyph-name="emdash" horiz-adv-x="731" d="M697 215Q533 224 399 224T162 219T26 210Q20 224 20 248T34 298Q157 289 314 289Q618 289 705 303Q711 285 711 263T697 215Z" />
<glyph unicode="&#x2018;" glyph-name="quoteleft" horiz-adv-x="261" d="M196 682Q201 667 201 658T198 633Q131 633 131 564Q131 539 157 536Q195 533 195 487Q195 452 179 434T119 415Q60 415 60 495T92 628T196 682Z" />
<glyph unicode="&#x2019;" glyph-name="quoteright" horiz-adv-x="261" d="M65 415Q60 430 60 439T63 464Q130 464 130 533Q130 558 104 561Q66 564 66 610Q66 645 82 663T142 682Q201 682 201 602T169 469T65 415Z" />
<glyph unicode="&#x201a;" glyph-name="quotesinglbase" horiz-adv-x="281" d="M85 -152Q80 -137 80 -128T83 -103Q150 -103 150 -34Q150 -9 124 -6Q86 -3 86 43Q86 78 102 96T162 115Q221 115 221 35T189 -98T85 -152Z" />
<glyph unicode="&#x201c;" glyph-name="quotedblleft" horiz-adv-x="442" d="M196 682Q201 667 201 658T198 633Q131 633 131 564Q131 539 157 536Q195 533 195 487Q195 452 179 434T119 415Q60 415 60 495T92 628T196 682ZM377 682Q382 667 382 658T379 633Q312
633 312 564Q312 539 338 536Q376 533 376 487Q376 452 360 434T300 415Q241 415 241 495T273 628T377 682Z" />
<glyph unicode="&#x201d;" glyph-name="quotedblright" horiz-adv-x="442" d="M65 415Q60 430 60 439T63 464Q130 464 130 533Q130 558 104 561Q66 564 66 610Q66 645 82 663T142 682Q201 682 201 602T169 469T65 415ZM246 415Q241 430 241 439T244 464Q311 464
311 533Q311 558 285 561Q247 564 247 610Q247 645 263 663T323 682Q382 682 382 602T350 469T246 415Z" />
<glyph unicode="&#x201e;" glyph-name="quotedblbase" horiz-adv-x="462" d="M85 -152Q80 -137 80 -128T83 -103Q150 -103 150 -34Q150 -9 124 -6Q86 -3 86 43Q86 78 102 96T162 115Q221 115 221 35T189 -98T85 -152ZM266 -152Q261 -137 261 -128T264 -103Q331
-103 331 -34Q331 -9 305 -6Q267 -3 267 43Q267 78 283 96T343 115Q402 115 402 35T370 -98T266 -152Z" />
<glyph unicode="&#x2022;" glyph-name="bullet" horiz-adv-x="302" d="M242 335Q242 292 217 265T140 237Q60 237 60 318Q60 419 162 419Q242 419 242 335Z" />
<glyph unicode="&#x2039;" glyph-name="guilsinglleft" horiz-adv-x="298" d="M228 426Q149 284 147 280Q180 218 228 134Q205 113 180 108Q162 130 139 158T104 202Q74 238 30 280Q74 322 95 348T139 402T180 452Q208 444 228 426Z" />
<glyph unicode="&#x203a;" glyph-name="guilsinglright" horiz-adv-x="298" d="M70 426Q90 444 118 452Q136 430 159 402T194 358Q224 322 268 280Q224 238 203 212T159 158T118 108Q93 113 70 134Q118 218 151 280Q149 284 70 426Z" />
</font>
</defs>
</svg>
