<?xml version="1.0" standalone="no"?>
<!DOCTYPE svg PUBLIC "-//W3C//DTD SVG 1.1//EN" "http://www.w3.org/Graphics/SVG/1.1/DTD/svg11.dtd">
<svg xmlns="http://www.w3.org/2000/svg">
<defs >
<font id="ExpletusSans" horiz-adv-x="482" ><font-face
    font-family="Expletus Sans"
    units-per-em="1000"
    panose-1="2 0 8 3 4 0 0 9 0 4"
    ascent="900"
    descent="-400"
    alphabetic="0" />
<glyph unicode=" " glyph-name="space" horiz-adv-x="257" />
<glyph unicode="!" glyph-name="exclam" horiz-adv-x="351" d="M276 727L194 230H94L136 727H276ZM40 68Q42 85 50 100T70 127T99 145T133 152Q168 152 188 128T205 68Q200 33 174 10T113 -14Q78 -14 57 9T40 68Z" />
<glyph unicode="&quot;" glyph-name="quotedbl" horiz-adv-x="416" d="M122 727H244L234 649Q230 614 220 584T192 533T150 503T94 501L122 727ZM326 727H448L438 649Q434 614 424 584T396 533T354 503T298 501L326 727Z" />
<glyph unicode="#" glyph-name="numbersign" horiz-adv-x="894" d="M497 141L506 156L490 154H336Q343 168 353 183T377 211T412 232T459 241H525L591 448L600 464L582 462H401L257 0H145L191 145L200 156L185 154H83L94 240H219L286 453L294 464L278 462H180L191
550H317L364 702H476L428 550H623L671 702H783L734 550H848L837 463H707L637 241H750L739 154H612L564 0H452L497 141Z" />
<glyph unicode="$" glyph-name="dollar" horiz-adv-x="514" d="M339 612Q294 612 265 591T230 537Q226 504 248 481T306 436T383 394T459 344T514 276T528 181Q518 100 461 53T315 -8L302 -107H196L208 -11Q170 -7 126 5T30 40L80 134Q131 110 177 101T262 91Q316
91 353 118T396 183Q400 218 378 242T321 288T245 329T169 377T114 440T99 529Q104 570 121 601T165 655T225 690T297 709L309 810H415L403 709Q432 706 462 700T534 680L486 589Q443 601 408 606T339 612Z" />
<glyph unicode="%" glyph-name="percent" horiz-adv-x="814" d="M662 702H773L249 0H138L662 702ZM844 191Q832 94 779 41T645 -13Q565 -13 526 40T498 191Q510 288 562 341T695 394Q775 394 815 341T844 191ZM733 191Q741 252 728 283T685 315Q658 315 637 284T608
191Q600 128 614 97T655 66Q684 66 704 97T733 191ZM415 514Q403 417 350 364T216 310Q136 310 97 363T69 514Q80 611 133 664T266 717Q346 717 386 664T415 514ZM304 514Q312 575 299 606T256 638Q229 638 208 607T179 514Q171 451 184 420T225 389Q254 389 275
420T304 514Z" />
<glyph unicode="&amp;" glyph-name="ampersand" horiz-adv-x="761" d="M336 324L329 341L318 323Q299 302 287 278T270 222Q263 167 285 130T361 93Q372 93 378 94T394 96Q413 97 428 93T455 81T476 62T495 39Q457 13 418 1T333 -11Q282 -11 243 4T177 48T139
118T133 209Q141 276 181 327T275 415Q260 439 252 458T240 493T236 522T237 550Q243 596 264 631T319 689T395 725T486 737Q519 737 560 729T636 703L595 611Q563 622 531 627T471 633Q428 633 400 613T366 559Q364 540 368 523T381 487T405 449T437 404L552 246L559
228L569 249Q587 281 599 312T622 379H737Q715 313 689 256T626 147L735 0H576L336 324Z" />
<glyph unicode="&apos;" glyph-name="quotesingle" horiz-adv-x="191" d="M116 727H238L228 649Q224 614 214 584T186 533T144 503T88 501L116 727Z" />
<glyph unicode="(" glyph-name="parenleft" horiz-adv-x="403" d="M317 296Q307 213 303 153T305 48T332 -35T391 -110L317 -176Q264 -137 234 -94T191 5T180 131T194 296Q205 389 220 460T262 586T329 684T433 767L491 702Q443 663 414 626T366 543T338 438T317 296Z" />
<glyph unicode=")" glyph-name="parenright" horiz-adv-x="401" d="M158 296Q168 379 172 438T170 543T143 626T84 702L158 767Q211 728 241 685T283 586T294 460T281 296Q269 202 254 132T213 6T146 -93T42 -176L-15 -110Q32 -72 61 -35T108 47T137 153T158 296Z" />
<glyph unicode="*" glyph-name="asterisk" horiz-adv-x="530" d="M321 590L394 746L481 691L358 568L523 599L510 491L351 523L445 400L344 346L311 502L239 346L152 400L276 524L111 492L124 600L279 569L186 691L287 746L321 590Z" />
<glyph unicode="+" glyph-name="plus" horiz-adv-x="568" d="M90 353H270L294 546H400L376 353H558L546 257H364L340 62H234L258 257H78L90 353Z" />
<glyph unicode="," glyph-name="comma" horiz-adv-x="254" d="M68 98H190L180 20Q176 -15 166 -45T138 -96T96 -126T40 -128L68 98Z" />
<glyph unicode="-" glyph-name="hyphen" horiz-adv-x="375" d="M76 255L88 353H390L378 255H76Z" />
<glyph unicode="." glyph-name="period" horiz-adv-x="273" d="M50 67Q52 84 60 99T80 126T109 144T143 151Q178 151 198 127T215 67Q210 32 184 9T123 -15Q88 -15 67 8T50 67Z" />
<glyph unicode="/" glyph-name="slash" horiz-adv-x="332" d="M-20 -62L319 727H440L100 -62H-20Z" />
<glyph unicode="0" glyph-name="zero" horiz-adv-x="710" d="M667 349Q658 277 632 211T563 93T461 12T326 -19Q260 -19 209 6T124 79T78 195T75 349Q85 432 114 500T187 617T290 692T417 719Q495 719 547 686T628 601T666 482T667 349ZM515 349Q522 410 520 459T504
544T465 598T404 617Q367 617 338 598T286 544T249 460T227 349Q219 288 222 239T239 156T278 102T339 83Q375 83 404 102T456 155T492 239T515 349Z" />
<glyph unicode="1" glyph-name="one" horiz-adv-x="319" d="M129 0L197 556L84 501L51 581L289 701H343L257 0H129Z" />
<glyph unicode="2" glyph-name="two" horiz-adv-x="567" d="M558 522Q552 473 518 420T438 315T342 214T253 124L235 106L258 109H518L505 0H44L51 59Q69 92 101 129T172 206T251 287T324 367T381 443T408 512Q414 560 385 585T307 611Q284 611 251 604T178 580L153
672Q206 695 250 704T329 713Q387 713 432 700T507 662T550 602T558 522Z" />
<glyph unicode="3" glyph-name="three" horiz-adv-x="528" d="M517 546Q505 455 395 392L368 382L391 377Q444 355 474 308T497 194Q491 147 466 109T401 45T311 4T206 -11Q151 -11 103 1T9 35L53 126Q97 106 132 99T197 91Q223 91 249 98T296 118T333 150T351
196Q355 230 343 252T307 287T247 305T170 311L171 396Q215 414 250 429T311 461T351 496T369 539Q373 574 347 592T280 610Q251 610 219 604T137 578L115 671Q176 695 224 703T314 712Q361 712 400 701T466 669T507 616T517 546Z" />
<glyph unicode="4" glyph-name="four" horiz-adv-x="595" d="M243 242Q265 242 280 233T305 209T322 176T331 141H40L52 238L401 701H569L512 242H593L581 141H500L483 0H350L413 518L419 551L401 523L205 261L186 241L207 242H243Z" />
<glyph unicode="5" glyph-name="five" horiz-adv-x="537" d="M234 442L229 428L248 432Q258 433 266 433T280 433Q341 433 388 416T465 369T508 299T516 213Q510 162 483 121T415 50T319 4T205 -12Q167 -12 123 -3T24 36L68 127Q118 107 153 99T217 90Q249 90
275 100T322 128T354 168T369 215Q376 272 338 302T233 332Q207 332 174 329T93 318L165 701H546L532 592H263L234 442Z" />
<glyph unicode="6" glyph-name="six" horiz-adv-x="625" d="M488 608Q435 608 392 586T318 526T267 437T240 329Q235 288 236 245T248 166T283 108T347 85Q369 85 390 96T428 125T456 169T471 224Q478 284 458 312T408 340Q395 340 377 337Q359 334 346 339T322
355T305 378T293 403Q340 426 375 434T436 442Q478 442 514 428T576 387T613 318T619 224Q614 180 592 138T532 61T446 5T338 -16Q262 -16 211 11T131 86T93 195T93 327Q102 403 136 472T225 595T349 679T501 710Q526 710 559 704T628 686L584 593Q555 602 532
605T488 608Z" />
<glyph unicode="7" glyph-name="seven" horiz-adv-x="503" d="M105 0Q127 85 153 160T212 305T286 441T381 574L398 589L373 587H110L124 701H562L550 604Q502 551 459 494T378 366T308 206T250 0H105Z" />
<glyph unicode="8" glyph-name="eight" horiz-adv-x="662" d="M639 531Q634 496 610 458T545 378L523 363L539 355Q578 326 602 285T618 178Q612 132 588 97T526 37T440 0T336 -13Q280 -13 234 -1T157 36T111 96T102 178Q107 213 130 252T207 341Q219 329 229
315T247 286T256 255T252 222Q245 208 242 199T237 178Q232 136 263 112T348 88Q405 88 439 114T478 178Q483 216 460 241T401 285T321 324T241 369T184 434T170 531Q175 574 198 608T256 665T335 701T428 714Q478 714 519 702T588 666T630 608T639 531ZM310 531Q307
509 316 492T344 461T386 435T438 410Q467 439 482 467T501 520Q504 545 499 562T481 591T452 607T416 612Q375 612 345 592T310 531Z" />
<glyph unicode="9" glyph-name="nine" horiz-adv-x="624" d="M242 92Q295 92 338 114T412 174T463 263T490 371Q495 412 494 455T482 533T447 591T383 614Q361 614 340 603T302 574T274 530T259 476Q255 446 259 424T272 388T294 367T322 360Q327 360 335 360T353
363Q370 366 383 361T407 345T425 322T437 297Q390 274 355 266T294 258Q251 258 215 272T154 313T117 382T111 476Q116 519 138 562T197 639T283 695T392 716Q468 716 519 689T599 614T637 505T637 373Q628 296 594 227T505 105T381 21T229 -10Q204 -10 171 -5T102
14L146 106Q175 98 198 95T242 92Z" />
<glyph unicode=":" glyph-name="colon" horiz-adv-x="299" d="M77 67Q79 84 87 99T107 126T136 144T170 151Q205 151 225 127T242 67Q237 32 211 9T150 -15Q115 -15 94 8T77 67ZM121 426Q123 443 131 458T151 485T180 503T214 510Q249 510 269 486T286 426Q281
391 255 368T194 344Q159 344 138 367T121 426Z" />
<glyph unicode=";" glyph-name="semicolon" horiz-adv-x="299" d="M121 426Q123 443 131 458T151 485T180 503T214 510Q249 510 269 486T286 426Q281 391 255 368T194 344Q159 344 138 367T121 426ZM102 98H224L214 20Q210 -15 200 -45T172 -96T130 -126T74 -128L102 98Z" />
<glyph unicode="&lt;" glyph-name="less" horiz-adv-x="613" d="M570 131L554 0L65 231L76 321L621 552L605 422L241 283L214 276L240 270L570 131Z" />
<glyph unicode="=" glyph-name="equal" horiz-adv-x="606" d="M98 259H570L558 161H86L98 259ZM125 480H597L585 382H113L125 480Z" />
<glyph unicode="&gt;" glyph-name="greater" horiz-adv-x="613" d="M435 270L461 276L436 283L106 422L122 552L611 321L600 231L55 0L71 131L435 270Z" />
<glyph unicode="?" glyph-name="question" horiz-adv-x="583" d="M355 737Q405 737 445 726T513 695T554 644T563 574Q559 539 541 509T498 452T445 399T393 347T350 292T328 230H210Q215 275 232 310T271 374T317 425T363 470T400 513T418 559Q423 593 399 613T332
633Q318 633 304 632T274 628T239 618T194 602L170 696Q228 721 271 729T355 737ZM166 68Q168 85 176 100T196 127T225 145T259 152Q294 152 314 128T331 68Q326 33 300 10T239 -14Q204 -14 183 9T166 68Z" />
<glyph unicode="@" glyph-name="at" horiz-adv-x="919" d="M649 170L645 149L660 161Q685 176 704 196T736 239T757 284T768 328Q774 382 760 425T715 500T636 547T530 564Q466 564 411 543T312 482T241 386T204 257Q195 186 209 130T255 34T334 -27T441 -48Q463
-48 482 -47T523 -43T570 -34T627 -19L647 -96Q610 -108 581 -115T526 -126T478 -131T430 -132Q353 -132 289 -109T179 -38T114 83T106 257Q118 350 159 423T259 546T392 622T541 648Q613 648 676 627T785 566T853 465T867 328Q861 278 836 233T771 152T681 90T574
55Q563 61 559 72T552 96L553 115L540 95Q507 66 479 57T423 47Q362 47 330 77T303 158Q307 188 321 211T363 250T433 278T536 295Q534 288 530 276T517 252T497 231T470 219Q428 213 414 197T398 162Q396 142 410 130T452 118Q478 118 504 131T557 175L573 304Q578
350 557 369T491 389Q470 389 450 386T394 372L376 439Q419 455 451 460T515 466Q597 466 636 425T665 299L649 170Z" />
<glyph unicode="A" glyph-name="A" horiz-adv-x="722" d="M243 159L171 0H30L380 727H520L692 0H544L430 541L426 578L413 539L296 280L281 260L297 262H373Q395 262 410 252T435 227T451 194T460 159H243Z" />
<glyph unicode="B" glyph-name="B" horiz-adv-x="677" d="M363 428Q389 428 413 435T458 457T491 490T508 534Q510 552 505 570T486 604T449 629T389 639Q362 639 344 638T298 632L273 428H363ZM371 90Q425 90 463 120T508 206Q511 236 501 259T471 299T420 325T352
334H262L221 0H81L168 716Q209 723 240 727T298 735T349 739T401 740Q468 740 518 726T599 684T644 619T652 535Q647 498 620 462T553 402L522 388L549 381Q575 371 596 353T631 310T652 259T655 205Q650 166 628 128T569 59T483 9T374 -11Q360 -11 349 -11T325
-8T297 -3T260 6Q268 19 278 34T303 61T334 82T371 90Z" />
<glyph unicode="C" glyph-name="C" horiz-adv-x="602" d="M433 -12Q340 -12 272 17T160 97T100 216T92 364Q102 442 137 510T228 630T359 710T525 740Q567 740 609 732T697 706L650 614Q607 627 578 632T513 637Q453 637 406 614T325 552T271 465T244 364Q238
312 246 263T279 176T345 114T446 91Q481 91 515 99T589 125L615 34Q567 11 521 0T433 -12Z" />
<glyph unicode="D" glyph-name="D" horiz-adv-x="747" d="M374 91Q431 91 475 115T551 178T601 266T626 365Q633 424 624 474T587 560T509 616T388 637Q368 637 346 635T301 629L224 0H83L170 714Q239 728 297 734T400 740Q500 740 575 715T699 641T768 524T777
365Q767 286 732 217T644 97T521 17T376 -12Q362 -12 351 -12T326 -9T298 -4T262 5Q269 18 280 33T305 61T336 82T374 91Z" />
<glyph unicode="E" glyph-name="E" horiz-adv-x="588" d="M172 727H608L595 624H302L238 103H547L535 0H83L172 727ZM304 331Q311 347 321 365T346 398T377 422T417 432H538L525 331H304Z" />
<glyph unicode="F" glyph-name="F" horiz-adv-x="584" d="M172 727H608L595 624H302L226 0H83L172 727ZM304 331Q311 347 321 365T346 398T377 422T417 432H538L525 331H304Z" />
<glyph unicode="G" glyph-name="G" horiz-adv-x="724" d="M519 637Q459 637 411 615T326 555T268 467T238 363Q232 311 241 262T277 175T346 114T449 91Q471 91 492 92T546 102L575 337H703L666 37Q637 25 606 16T543 0T485 -9T436 -12Q343 -12 274 17T159 97T95
216T86 363Q96 442 132 510T227 630T362 710T531 740Q573 740 628 730T737 696L688 600Q634 622 594 629T519 637Z" />
<glyph unicode="H" glyph-name="H" horiz-adv-x="764" d="M304 330Q311 346 321 364T345 398T377 423T417 433H594L630 727H771L682 0H541L581 330H304ZM172 727H315L226 0H83L172 727Z" />
<glyph unicode="I" glyph-name="I" horiz-adv-x="306" d="M222 0H83L172 727H311L222 0Z" />
<glyph unicode="J" glyph-name="J" horiz-adv-x="369" d="M305 128Q296 58 275 9T220 -78T137 -150T26 -222L-27 -140Q14 -109 46 -83T102 -27T141 39T163 128L237 727H379L305 128Z" />
<glyph unicode="K" glyph-name="K" horiz-adv-x="709" d="M487 436L693 0H529L404 322L400 346L385 324L312 243Q307 276 312 311T329 379T358 443T397 497L590 727H747L487 436ZM83 0L172 727H315L226 0H83Z" />
<glyph unicode="L" glyph-name="L" horiz-adv-x="531" d="M171 727H315L238 104H500L488 0H82L171 727Z" />
<glyph unicode="M" glyph-name="M" horiz-adv-x="982" d="M233 727H414L504 166L506 130L519 166L746 727H928L907 0H776L804 548L807 596L789 548L565 10H418L324 549L318 596L309 549L205 0H74L233 727Z" />
<glyph unicode="N" glyph-name="N" horiz-adv-x="778" d="M292 509L280 545L278 511L216 0H94L183 727H321L568 238L577 198L580 238L640 727H766L677 0H551L292 509Z" />
<glyph unicode="O" glyph-name="O" horiz-adv-x="789" d="M483 639Q431 639 389 617T316 557T266 469T239 364Q233 312 240 263T269 175T327 113T415 89Q456 89 496 107T570 161T627 247T659 364Q666 423 658 473T628 560T569 618T483 639ZM403 -14Q316 -14 253
15T149 94T93 214T87 364Q97 442 130 511T215 631T339 712T496 742Q594 742 658 708T759 620T807 498T810 364Q801 290 769 222T685 102T561 18T403 -14Z" />
<glyph unicode="P" glyph-name="P" horiz-adv-x="643" d="M659 513Q653 463 629 424T569 356T489 310T400 289Q377 287 352 288T300 298Q307 312 317 327T339 356T365 378T397 389Q418 391 437 401T473 428T499 467T512 513Q515 539 508 561T485 601T445 628T389
638Q375 638 366 638T347 637T328 635T304 632L227 0H83L171 718Q212 725 243 729T300 736T350 740T401 741Q462 741 512 725T597 680T649 608T659 513Z" />
<glyph unicode="Q" glyph-name="Q" horiz-adv-x="781" d="M392 -14Q311 -14 250 14T149 92T93 211T87 364Q97 446 131 515T218 634T342 713T496 742Q580 742 643 714T747 636T804 516T810 364Q802 295 769 231T688 114L743 50L657 -26L441 226L527 303L597 221L607
200L616 226Q633 258 644 294T659 364Q666 419 659 469T630 557T572 617T483 639Q431 639 389 617T316 557T266 469T239 364Q233 312 240 263T267 175T322 113T404 89Q411 89 424 90T446 91Q479 91 504 72T544 34Q505 10 466 -2T392 -14Z" />
<glyph unicode="R" glyph-name="R" horiz-adv-x="684" d="M660 518Q652 458 620 414T540 343L510 332Q514 330 520 327T531 321Q558 295 570 260T590 183T604 95T628 0H481Q468 38 463 81T450 166T431 242T394 299Q373 297 350 298T301 308Q308 322 318 337T340
366T367 389T399 400Q420 402 439 411T473 436T499 473T513 518Q516 544 508 566T484 604T443 629T389 638Q375 638 366 638T347 637T328 635T304 632L227 0H83L171 718Q212 725 243 729T300 736T350 740T401 741Q460 741 510 726T595 683T648 613T660 518Z" />
<glyph unicode="S" glyph-name="S" horiz-adv-x="577" d="M367 640Q322 640 293 618T259 562Q255 528 277 503T334 456T410 411T486 358T540 287T554 188Q548 140 525 103T465 40T380 1T274 -13Q231 -13 176 -2T56 42L105 135Q156 109 202 100T287 90Q314 90 337
97T378 118T407 148T421 185Q425 221 404 247T347 295T271 340T195 390T141 457T127 550Q133 599 155 635T210 694T284 728T370 740Q393 740 414 739T459 734T507 724T562 707L514 616Q471 629 436 634T367 640Z" />
<glyph unicode="T" glyph-name="T" horiz-adv-x="534" d="M81 624L94 727H616L603 624H413L337 0H195L271 624H81Z" />
<glyph unicode="U" glyph-name="U" horiz-adv-x="727" d="M372 -14Q305 -14 254 5T169 61T122 152T117 278L172 727H313L256 263Q251 222 258 190T282 136T326 101T384 89Q416 89 445 101T497 135T535 190T556 263L613 727H753L698 278Q690 212 663 158T594 66T496
7T372 -14Z" />
<glyph unicode="V" glyph-name="V" horiz-adv-x="667" d="M263 0L97 727H249L352 175L354 137L366 174L605 727H752L410 0H263Z" />
<glyph unicode="W" glyph-name="W" horiz-adv-x="1059" d="M699 717L762 194L765 138L780 192L981 727H1117L823 0H682L605 535L601 576L588 536L381 0H237L120 727H259L328 193L329 138L347 193L542 717H699Z" />
<glyph unicode="X" glyph-name="X" horiz-adv-x="661" d="M129 727H287L380 488L387 457L398 488L551 727H708L447 368L630 0H475L129 727ZM182 0H29L266 325Q274 312 283 291T296 246T299 195T280 145L182 0Z" />
<glyph unicode="Y" glyph-name="Y" horiz-adv-x="699" d="M455 339L414 0H276L315 322L114 727H270L455 339ZM591 727H745L490 377Q482 390 473 410T459 455T457 506T476 557L591 727Z" />
<glyph unicode="Z" glyph-name="Z" horiz-adv-x="612" d="M167 727H673L666 668L242 115L224 100L247 103H605L593 0H47L54 59L477 612L495 629L470 626H154L167 727Z" />
<glyph unicode="[" glyph-name="bracketleft" horiz-adv-x="447" d="M216 771H519L506 667H335L242 -95H413L400 -199H97L216 771Z" />
<glyph unicode="\" glyph-name="backslash" horiz-adv-x="332" d="M222 -62L76 727H197L343 -62H222Z" />
<glyph unicode="]" glyph-name="bracketright" horiz-adv-x="447" d="M318 -199H15L28 -95H199L292 667H121L134 771H437L318 -199Z" />
<glyph unicode="^" glyph-name="asciicircum" horiz-adv-x="628" d="M208 210H79L354 727H455L602 210H475L389 543L386 574L375 543L208 210Z" />
<glyph unicode="_" glyph-name="underscore" horiz-adv-x="497" d="M15 -95L27 0H470L458 -95H15Z" />
<glyph unicode="`" glyph-name="grave" horiz-adv-x="196" d="M109 727H216L266 602Q235 594 210 600T169 631L109 727Z" />
<glyph unicode="a" glyph-name="a" horiz-adv-x="613" d="M550 126Q546 98 546 67T550 0H443Q437 3 431 13T419 37T412 69T412 105L450 418Q430 423 414 424T386 426Q352 426 324 413T276 375T242 316T224 240Q221 216 221 190T228 143T249 108T289 97Q318 99
334 80T366 32Q336 15 306 4T249 -9Q201 -12 166 10T109 68T78 149T75 240Q82 300 107 352T174 444T270 506T393 529Q414 529 434 528T479 524T531 514T596 499L550 126Z" />
<glyph unicode="b" glyph-name="b" horiz-adv-x="610" d="M387 423Q370 421 359 426T338 442T323 467T309 496Q339 510 369 517T425 526Q473 529 508 507T566 449T598 368T602 277Q594 216 568 163T502 70T408 8T291 -15Q236 -15 186 -3T78 42L166 758L304 751L224
98Q247 92 265 90T303 88Q332 88 357 102T401 141T434 201T453 277Q456 301 455 327T448 376T427 411T387 423Z" />
<glyph unicode="c" glyph-name="c" horiz-adv-x="430" d="M361 530Q388 530 419 525T479 508L433 415Q410 421 388 424T348 427Q294 427 256 382T207 259Q197 180 225 135T307 90Q328 90 352 95T410 114L433 22Q391 4 356 -4T294 -13Q242 -13 196 2T116 51T67
135T59 259Q68 327 96 378T166 462T258 513T361 530Z" />
<glyph unicode="d" glyph-name="d" horiz-adv-x="619" d="M259 -13Q205 -13 165 7T100 65T66 152T64 262Q70 315 94 363T153 447T230 504T316 526Q342 526 366 523T428 508Q410 473 389 452T343 428Q312 426 289 413T251 379T226 327T212 262Q207 227 210 196T225
142T254 104T297 90Q326 90 355 107T421 160L495 758L633 751L557 131Q553 103 553 72T557 5L449 0Q437 7 430 20T419 47L417 70L397 48Q354 13 321 0T259 -13Z" />
<glyph unicode="e" glyph-name="e" horiz-adv-x="564" d="M426 317Q432 340 430 361T419 398T393 423T353 433Q332 433 310 424T269 396T236 346T216 272Q205 185 238 138T335 90Q370 90 404 98T485 127L509 34Q452 8 403 -2T307 -13Q238 -13 192 12T118 76T81
166T77 267Q85 329 111 378T178 460T268 512T372 530Q427 530 470 508T536 447T559 354T529 235H249Q264 270 287 293T337 317H426Z" />
<glyph unicode="f" glyph-name="f" horiz-adv-x="437" d="M156 418H73L83 497L168 517L171 545Q177 594 197 634T250 703T324 747T417 763Q442 763 475 757T547 733L505 644Q476 652 457 656T420 660Q371 660 341 629T303 545L237 0H105L156 418ZM478 517L466
418H322Q329 434 339 452T363 484T394 507T434 517H478Z" />
<glyph unicode="g" glyph-name="g" horiz-adv-x="591" d="M219 240Q216 216 216 190T222 143T243 108T283 97Q313 99 329 80T360 32Q331 15 301 4T244 -9Q196 -12 161 10T103 68T73 149T70 240Q77 300 102 352T169 444T265 506T387 529Q408 529 429 528T474 524T526
514T590 499L529 0Q520 -69 494 -116T427 -193T338 -236T233 -250Q194 -250 145 -242T40 -208L86 -115Q134 -135 169 -142T237 -150Q265 -150 291 -141T338 -115T373 -72T391 -11L444 418Q425 423 409 424T381 426Q347 426 319 413T271 375T237 316T219 240Z" />
<glyph unicode="h" glyph-name="h" horiz-adv-x="608" d="M73 0L166 758L304 751L212 0H73ZM441 367Q444 392 436 408T404 424Q395 424 389 422T369 419Q358 418 349 423T333 438T319 460T307 486Q360 514 396 522T461 530Q487 530 510 520T551 490T576 440T580
369L535 0H396L441 367Z" />
<glyph unicode="i" glyph-name="i" horiz-adv-x="280" d="M70 0L133 517H273L210 0H70ZM139 667Q144 702 170 726T232 751Q249 751 263 745T287 727T301 700T303 667Q299 632 273 609T211 585Q176 585 156 608T139 667Z" />
<glyph unicode="j" glyph-name="j" horiz-adv-x="295" d="M227 48Q221 1 208 -37T167 -109T98 -177T-6 -249L-56 -176Q-16 -144 10 -119T52 -69T75 -17T88 48L146 517H285L227 48ZM152 667Q157 702 183 726T245 751Q280 751 300 727T317 667Q315 650 307 635T287
609T258 592T224 585Q189 585 169 608T152 667Z" />
<glyph unicode="k" glyph-name="k" horiz-adv-x="624" d="M212 0H73L166 758L304 751L212 0ZM448 338L606 0H452L362 233L358 257L342 237L281 180Q278 249 305 306T374 408L477 517L630 510L448 338Z" />
<glyph unicode="l" glyph-name="l" horiz-adv-x="282" d="M214 0H75L168 758L306 751L214 0Z" />
<glyph unicode="m" glyph-name="m" horiz-adv-x="930" d="M239 517Q260 490 264 464T264 407L215 0H75L122 386Q125 414 125 445T122 512L239 517ZM439 367Q442 392 435 408T402 424Q393 424 384 422T362 419Q350 418 340 423T322 439T308 461T296 488Q353 510
391 520T464 530Q490 530 513 520T552 490T576 440T579 369L534 0H394L439 367ZM758 367Q761 392 752 408T715 424Q706 424 695 422T671 418Q659 417 649 422T631 438T615 460T603 487Q661 510 700 520T775 530Q801 530 825 520T866 490T893 440T897 369L852 0H713L758
367Z" />
<glyph unicode="n" glyph-name="n" horiz-adv-x="578" d="M216 517Q237 490 241 464T242 407L193 0H53L100 386Q106 444 99 512L216 517ZM421 367Q424 392 416 408T382 424Q372 424 363 422T339 418Q327 417 318 423T302 438T288 460T276 484Q329 510 367 520T441
530Q467 530 490 520T531 490T556 440T560 369L515 0H376L421 367Z" />
<glyph unicode="o" glyph-name="o" horiz-adv-x="610" d="M601 259Q593 195 564 145T492 59T400 6T300 -13Q247 -13 201 5T122 57T73 143T65 259Q74 329 106 380T181 465T274 514T367 530Q427 530 473 510T551 454T595 369T601 259ZM312 89Q341 89 365 102T407
139T436 193T452 259Q456 294 453 324T437 378T404 414T354 428Q325 428 301 415T259 378T229 325T213 259Q204 184 230 137T312 89Z" />
<glyph unicode="p" glyph-name="p" horiz-adv-x="621" d="M418 530Q472 530 512 509T576 452T610 365T613 255Q606 202 582 154T523 70T446 13T360 -9Q334 -9 311 -6T249 9Q266 44 286 65T332 89Q395 93 425 138T465 255Q469 290 466 321T452 375T423 413T380
427Q324 427 255 357L182 -241L44 -234L120 386Q123 414 123 445T120 512L228 517Q240 509 247 495T259 466V446L277 466Q322 503 355 516T418 530Z" />
<glyph unicode="q" glyph-name="q" horiz-adv-x="605" d="M289 97Q318 99 334 80T366 32Q336 15 306 4T249 -9Q201 -12 166 10T109 68T78 149T75 240Q82 300 107 352T174 444T270 506T393 529Q414 529 434 528T479 524T531 514T596 499L505 -241L370 -234L450
418Q430 423 414 424T386 426Q352 426 324 413T276 375T242 316T224 240Q221 216 221 190T228 143T249 108T289 97Z" />
<glyph unicode="r" glyph-name="r" horiz-adv-x="391" d="M219 517Q227 510 233 490T241 443L240 419L253 443Q278 483 313 505T380 527Q409 527 444 515L414 402Q394 408 381 410T356 412Q330 412 309 399T270 364T242 310T226 241L197 0H66L113 386Q116 414
116 445T112 512L219 517Z" />
<glyph unicode="s" glyph-name="s" horiz-adv-x="436" d="M77 125Q122 107 157 100T224 93Q261 93 280 108T301 143Q304 165 288 180T247 208T191 234T137 265T98 310T88 377Q91 401 104 427T141 475T203 511T291 526Q325 526 359 521T441 500L398 410Q360 421
337 424T288 427Q259 427 241 416T221 383Q218 362 234 347T275 319T330 292T384 259T424 214T434 148Q429 112 411 83T365 33T303 1T234 -10Q195 -10 146 -3T33 32L77 125Z" />
<glyph unicode="t" glyph-name="t" horiz-adv-x="455" d="M155 418H72L82 497L167 517L182 640L319 683L260 198Q253 147 271 119T325 90Q339 90 358 93T403 105L421 14Q382 1 353 -6T298 -13Q202 -13 159 41T128 198L155 418ZM421 418Q399 418 384 427T359 451T342
482T333 517H478L466 418H421Z" />
<glyph unicode="u" glyph-name="u" horiz-adv-x="613" d="M427 0Q407 27 402 53T401 110L451 517H591L544 131Q536 74 545 5L427 0ZM223 150Q220 125 228 109T262 93Q272 93 281 95T305 99Q317 100 326 94T342 79T356 57T368 33Q314 7 276 -3T203 -13Q177 -13
154 -3T113 27T87 77T84 148L129 517H268L223 150Z" />
<glyph unicode="v" glyph-name="v" horiz-adv-x="547" d="M200 0L69 517H216L287 151L290 121L301 151L461 517L602 510L349 0H200Z" />
<glyph unicode="w" glyph-name="w" horiz-adv-x="872" d="M534 0L414 517H562L621 151L624 121L635 151L783 517L924 510L683 0H534ZM348 0H202L83 517H230L289 151L292 121L303 151L401 347Q410 325 417 294T425 228T420 156T395 87L348 0Z" />
<glyph unicode="x" glyph-name="x" horiz-adv-x="514" d="M74 517H233L293 372L297 351L307 372L404 517L550 510L353 256L503 0H347Q316 63 283 125T216 250L74 517ZM153 0H2L183 220Q191 208 199 191T212 154T214 111T198 68L153 0Z" />
<glyph unicode="y" glyph-name="y" horiz-adv-x="600" d="M109 -146Q135 -146 155 -134T193 -99T228 -42T265 37L472 517L611 510L370 11Q337 -54 310 -102T252 -183T184 -231T96 -248Q76 -247 53 -244T7 -229L50 -139Q67 -144 81 -145T109 -146ZM269 281Q275
248 271 210T257 136T232 67T202 13L78 517H228L269 281Z" />
<glyph unicode="z" glyph-name="z" horiz-adv-x="474" d="M120 517H496L489 458L219 112L202 95L225 98H447L435 0H30L37 59L308 407L326 424L304 421H108L120 517Z" />
<glyph unicode="{" glyph-name="braceleft" horiz-adv-x="403" d="M214 425Q226 488 243 538T286 628T347 702T433 767L491 702Q456 674 431 647T388 589T358 522T337 439Q329 397 305 366T247 314L222 303L243 293Q273 272 289 241T304 168Q301 118 303 79T316
8T344 -53T391 -110L317 -176Q273 -144 245 -109T202 -30T182 66T182 187Q184 222 159 242T96 270L104 342Q144 349 175 369T214 425Z" />
<glyph unicode="|" glyph-name="bar" horiz-adv-x="317" d="M79 -293L214 811H340L205 -293H79Z" />
<glyph unicode="}" glyph-name="braceright" horiz-adv-x="428" d="M371 425Q370 407 377 394T396 370T424 352T459 342L451 270Q412 263 382 243T343 187Q331 119 314 66T270 -30T208 -108T120 -176L62 -110Q97 -82 122 -54T166 7T196 79T217 168Q225 210 249
240T307 292L334 303L309 314Q280 335 264 366T250 439Q253 485 250 521T237 589T208 647T162 702L236 767Q278 736 305 703T348 629T369 538T371 425Z" />
<glyph unicode="~" glyph-name="asciitilde" horiz-adv-x="614" d="M91 236Q97 274 114 304T156 354T209 385T267 396Q302 396 327 385T373 360T409 335T444 324Q464 324 478 341T501 385L615 377Q607 334 589 304T546 255T496 226T447 217Q407 217 382 228T339
252T306 277T271 289Q254 289 235 276T208 228L91 236Z" />
<glyph unicode="&#xa1;" glyph-name="exclamdown" horiz-adv-x="351" d="M21 -210L101 287H201L161 -210H21ZM87 449Q91 483 118 507T180 531Q215 531 235 508T252 449Q247 414 221 390T159 365Q124 365 103 389T87 449Z" />
<glyph unicode="&#xa2;" glyph-name="cent" horiz-adv-x="427" d="M403 624Q425 622 447 617T491 604L445 511Q422 517 400 520T360 523Q306 523 268 478T219 355Q209 276 236 231T318 186Q339 186 363 191T422 210L445 118Q415 104 388 97T337 85L325 -14H227L239
89Q198 98 164 118T107 170T74 249T71 355Q78 412 99 456T152 534T222 588T304 618L316 716H414L403 624Z" />
<glyph unicode="&#xa3;" glyph-name="sterling" horiz-adv-x="513" d="M303 197Q295 175 287 161T264 130L244 110L266 112H496L483 0H34L43 76Q100 103 139 145T186 242Q188 257 189 271T191 305H92L104 402H187Q186 425 186 452T191 512Q197 563 219 600T276
662T355 699T452 712Q487 712 525 704T607 675L561 580Q525 596 493 602T439 608Q390 608 360 584T324 511Q318 466 318 425T319 346T318 271T303 197ZM439 305Q416 305 402 314T378 337T364 369T356 402H517L505 305H439Z" />
<glyph unicode="&#xa4;" glyph-name="currency" horiz-adv-x="513" d="M399 340Q402 366 397 389T380 431T351 459T312 470Q292 470 272 461T236 434T209 393T193 340Q190 311 195 287T213 246T242 220T280 210Q301 210 321 220T358 249T385 290T399 340ZM485
341Q480 305 468 274T441 226L511 153L455 100L386 171Q367 157 337 147T272 136Q239 136 213 146T169 170L87 99L40 155L126 226Q115 243 108 272T106 341Q111 379 125 408T154 454L85 525L146 581L211 510Q232 524 260 534T322 544Q357 544 384 534T428 509L514
580L557 527L469 454Q479 437 484 407T485 341Z" />
<glyph unicode="&#xa5;" glyph-name="yen" horiz-adv-x="660" d="M434 339L432 319H575L566 252H423L416 195H559L551 128H408L393 0H255L270 128H126L134 195H278L285 252H141L150 319H294V322L93 727H249L434 339ZM570 727H724L469 377Q461 390 452 410T438
455T436 506T455 557L570 727Z" />
<glyph unicode="&#xa6;" glyph-name="brokenbar" horiz-adv-x="254" d="M115 387L167 811H293L241 387H115ZM32 -293L85 141H211L158 -293H32Z" />
<glyph unicode="&#xa7;" glyph-name="section" horiz-adv-x="500" d="M511 325Q507 293 488 268T438 224L414 214L432 203Q454 183 466 157T474 94Q470 61 450 35T399 -11T328 -40T245 -51Q228 -51 203 -49T149 -43T91 -30T35 -9L81 75Q123 58 165 49T244 40Q287
40 318 52T354 93Q357 120 337 137T286 169T217 198T149 232T100 280T86 352Q89 381 111 407T166 454L188 463L170 473Q145 493 132 520T123 585Q127 613 145 638T191 681T257 709T338 720Q372 720 412 715T501 694L455 610Q418 621 391 625T339 629Q296 629 271
618T243 586Q240 559 260 541T311 509T380 480T448 446T497 397T511 325ZM396 330Q398 346 387 358T356 380T311 401T259 422Q232 406 219 392T202 357Q200 339 211 326T243 301T290 279T344 256Q369 273 381 291T396 330Z" />
<glyph unicode="&#xa8;" glyph-name="dieresis" horiz-adv-x="528" d="M189 670Q192 696 213 714T260 733Q286 733 302 715T316 670Q312 644 291 626T244 607Q218 607 202 625T189 670ZM384 670Q387 696 408 714T455 733Q481 733 497 715T511 670Q507 644 486
626T439 607Q413 607 397 625T384 670Z" />
<glyph unicode="&#xa9;" glyph-name="copyright" horiz-adv-x="720" d="M441 690Q515 690 573 665T669 596T724 491T732 357Q724 289 692 228T609 121T495 48T359 21Q284 21 226 46T129 115T73 221T65 357Q73 424 105 484T188 590T303 663T441 690ZM432 613Q381
613 335 595T251 543T189 462T157 354Q150 295 163 248T205 168T276 117T369 99Q419 99 465 117T547 168T608 249T640 357Q647 415 634 462T593 543T524 595T432 613ZM398 176Q362 176 332 188T281 223T251 279T247 357Q253 400 270 434T314 490T373 525T442 537Q482
537 524 523L494 459Q462 470 434 470Q396 470 369 438T335 357Q329 308 348 275T406 242Q420 242 437 245T479 259L493 199Q464 185 439 181T398 176Z" />
<glyph unicode="&#xaa;" glyph-name="ordfeminine" horiz-adv-x="527" d="M395 422Q390 380 390 351T392 302H322Q314 310 310 318T303 338V350L294 338Q273 318 246 307T187 295Q138 295 108 320T83 394Q86 419 98 438T136 473T199 498T293 514Q291 508 287 498T276
478T259 459T235 448Q205 443 191 430T175 399Q173 382 183 370T213 358Q236 358 259 368T304 401L319 527Q324 569 303 586T246 603Q227 603 206 600T162 588L149 647Q184 662 214 666T267 671Q346 671 381 632T408 522L395 422Z" />
<glyph unicode="&#xab;" glyph-name="guillemotleft" horiz-adv-x="613" d="M79 258L338 472L387 418L241 258L348 98L286 45L79 258ZM353 258L612 472L661 418L515 258L622 98L560 45L353 258Z" />
<glyph unicode="&#xac;" glyph-name="logicalnot" horiz-adv-x="591" d="M601 455L565 156H458L482 357H86L98 455H601Z" />
<glyph unicode="&#xad;" glyph-name="uni00AD" horiz-adv-x="375" d="M76 255L88 353H390L378 255H76Z" />
<glyph unicode="&#xae;" glyph-name="registered" horiz-adv-x="720" d="M441 690Q515 690 573 665T669 596T724 491T732 357Q724 289 692 228T609 121T495 48T359 21Q284 21 226 46T129 115T73 221T65 357Q73 424 105 484T188 590T303 663T441 690ZM432 613Q381
613 335 595T251 543T189 462T157 354Q150 295 163 248T205 168T276 117T369 99Q419 99 465 117T547 168T608 249T640 357Q647 415 634 462T593 543T524 595T432 613ZM550 431Q547 404 533 382T492 347L470 343L487 333Q500 322 505 307T514 272T521 232T532 189H446Q439
209 438 230T433 270T424 303T399 325H375Q382 345 394 362T429 385Q447 390 455 402T465 431Q471 472 411 472Q402 472 398 472T380 469L346 189H264L304 521Q334 528 363 532T419 536Q483 536 519 508T550 431Z" />
<glyph unicode="&#xaf;" glyph-name="overscore" horiz-adv-x="500" d="M184 603L194 687H496L486 603H184Z" />
<glyph unicode="&#xb0;" glyph-name="degree" horiz-adv-x="337" d="M180 623Q175 585 194 566T242 546Q271 546 294 565T323 623Q328 661 309 681T261 701Q232 701 209 681T180 623ZM95 623Q99 656 115 683T156 731T209 762T269 773Q299 773 326 763T372 733T401
685T407 623Q403 590 387 563T346 515T293 484T233 473Q203 473 176 483T130 513T101 560T95 623Z" />
<glyph unicode="&#xb1;" glyph-name="plusminus" horiz-adv-x="568" d="M94 383H274L291 526H397L380 383H562L550 287H368L350 142H244L262 287H82L94 383ZM47 0L59 98H527L515 0H47Z" />
<glyph unicode="&#xb2;" glyph-name="twosuperior" horiz-adv-x="402" d="M414 628Q409 592 390 562T344 503T288 448T235 392L224 382L238 384H381L372 310H107L112 355Q144 401 180 438T246 506T299 565T324 621Q326 643 311 655T266 667Q249 667 232 663T198
652L177 711Q206 725 236 730T291 736Q350 736 385 708T414 628Z" />
<glyph unicode="&#xb3;" glyph-name="threesuperior" horiz-adv-x="381" d="M385 638Q381 606 357 581T296 540Q312 536 327 527T354 503T370 471T373 430Q369 400 354 376T314 336T259 310T194 301Q163 301 136 310T95 329L124 390Q141 382 161 377T202 371Q236
371 258 389T284 433Q288 465 266 482T193 499V555L226 568Q255 579 273 593T294 631Q296 643 285 654T251 665Q234 665 216 662T175 651L158 710Q188 724 214 729T266 735Q321 735 356 712T385 638Z" />
<glyph unicode="&#xb4;" glyph-name="acute" horiz-adv-x="322" d="M278 645Q261 627 240 617T198 603T157 598T126 602L229 740H368L278 645Z" />
<glyph unicode="&#xb5;" glyph-name="mu" horiz-adv-x="553" d="M396 52Q370 21 339 6T263 -10Q246 -10 226 -4T192 14L180 31L178 7L152 -211H30L119 517H247L209 210Q202 150 223 119T284 88Q331 88 364 119T403 199L442 517H571L528 164Q523 122 532 105T574
90L575 5Q558 -2 536 -5T502 -8Q489 -8 476 -5T449 6T426 25T410 53L407 71L396 52Z" />
<glyph unicode="&#xb6;" glyph-name="paragraph" horiz-adv-x="609" d="M362 304Q360 305 360 305Q315 309 278 325T214 370T174 436T167 520Q173 563 194 603T250 673T334 722T443 740Q470 740 494 739T541 736T588 730T639 720L547 -30H474L558 658Q536 662
517 663T479 666L394 -30H321L362 304Z" />
<glyph unicode="&#xb7;" glyph-name="middot" horiz-adv-x="306" d="M106 304Q108 321 116 336T136 363T165 381T199 388Q234 388 254 364T271 304Q266 269 240 246T179 222Q144 222 123 245T106 304Z" />
<glyph unicode="&#xb8;" glyph-name="cedilla" horiz-adv-x="500" d="M291 3L274 -43Q289 -46 302 -53T326 -70T342 -93T345 -123Q342 -146 329 -162T297 -190T254 -207T207 -213Q172 -213 129 -193L154 -138Q171 -145 185 -147T215 -150Q232 -150 244 -144T258
-126Q260 -111 242 -103T188 -91L222 -3L291 3Z" />
<glyph unicode="&#xb9;" glyph-name="onesuperior" horiz-adv-x="319" d="M204 309L242 614L183 587L155 651L307 727H355L303 309H204Z" />
<glyph unicode="&#xba;" glyph-name="ordmasculine" horiz-adv-x="430" d="M296 671Q340 671 372 657T423 618T450 559T452 483Q447 445 433 411T393 351T332 310T250 294Q168 294 126 343T94 483Q99 522 115 556T156 615T217 656T296 671ZM258 364Q302 364 327
397T360 483Q366 536 348 569T287 602Q246 602 220 569T187 483Q184 459 186 438T196 400T220 374T258 364Z" />
<glyph unicode="&#xbb;" glyph-name="guillemotright" horiz-adv-x="613" d="M375 45L327 98L472 258L366 418L427 472L634 258L375 45ZM102 45L54 98L199 258L93 418L154 472L361 258L102 45Z" />
<glyph unicode="&#xbc;" glyph-name="onequarter" horiz-adv-x="698" d="M66 0L591 727H699L174 0H66ZM576 423H669L636 151H684L676 82H628L618 0H534L571 304L448 151H468Q480 151 488 145T503 128T512 106T519 82H348L355 143L576 423ZM144 309L182 614L123
587L95 651L247 727H295L243 309H144Z" />
<glyph unicode="&#xbd;" glyph-name="onehalf" horiz-adv-x="763" d="M66 0L591 727H699L174 0H66ZM144 309L182 614L123 587L95 651L247 727H295L243 309H144ZM729 318Q724 282 705 252T659 195T603 140T551 84L539 72L557 74H696L687 0H422L427 45Q459 91 495
128T561 196T614 255T639 311Q641 333 626 345T581 357Q564 357 547 353T512 342L492 401Q521 415 551 420T606 426Q665 426 700 398T729 318Z" />
<glyph unicode="&#xbe;" glyph-name="threequarters" horiz-adv-x="716" d="M102 0L627 727H735L210 0H102ZM612 423H705L672 151H720L712 82H664L654 0H570L607 304L484 151H504Q516 151 524 145T539 128T548 106T555 82H384L391 143L612 423ZM355 638Q351 606
327 581T266 540Q282 536 297 527T324 503T340 471T343 430Q339 400 324 376T284 336T229 310T164 301Q133 301 106 310T65 329L94 390Q111 382 131 377T172 371Q206 371 228 389T254 433Q258 465 236 482T163 499V555L196 568Q225 579 243 593T264 631Q266 643
255 654T221 665Q204 665 186 662T145 651L128 710Q158 724 184 729T236 735Q291 735 326 712T355 638Z" />
<glyph unicode="&#xbf;" glyph-name="questiondown" horiz-adv-x="583" d="M287 -221Q237 -221 197 -210T129 -179T88 -128T79 -58Q83 -23 101 7T144 64T197 117T250 169T293 224T315 286H433Q427 240 410 205T371 142T325 91T279 46T242 3T224 -43Q220 -77 243
-97T310 -117Q338 -117 368 -112T448 -86L472 -180Q443 -192 418 -200T371 -212T329 -219T287 -221ZM477 448Q475 431 467 416T446 389T417 371T383 364Q348 364 328 388T312 448Q316 483 342 506T404 530Q439 530 460 507T477 448Z" />
<glyph unicode="&#xc0;" glyph-name="Agrave" horiz-adv-x="687" d="M319 890H452L510 765Q497 762 478 762T438 765T399 780T370 808L319 890ZM227 159L155 0H14L364 727H504L676 0H528L414 541L410 578L397 539L280 280L265 260L281 262H357Q379 262 394 252T419
227T435 194T444 159H227Z" />
<glyph unicode="&#xc1;" glyph-name="Aacute" horiz-adv-x="687" d="M525 808Q508 791 487 781T444 767T403 762T372 765L474 890H607L525 808ZM225 159L153 0H12L362 727H502L674 0H526L412 541L408 578L395 539L278 280L263 260L279 262H355Q377 262 392 252T417
227T433 194T442 159H225Z" />
<glyph unicode="&#xc2;" glyph-name="Acircumflex" horiz-adv-x="687" d="M501 890L594 774L510 756L439 812L356 756L279 774L398 890H501ZM227 159L155 0H14L364 727H504L676 0H528L414 541L410 578L397 539L280 280L265 260L281 262H357Q379 262 394 252T419
227T435 194T444 159H227Z" />
<glyph unicode="&#xc3;" glyph-name="Atilde" horiz-adv-x="687" d="M284 783Q288 811 299 833T326 870T360 893T397 901Q419 901 435 893T464 875T487 857T509 848Q522 848 531 860T545 893L617 887Q612 855 600 833T572 797T540 776T509 769Q484 769 468 777T441
795T420 813T398 822Q387 822 375 813T358 777L284 783ZM227 159L155 0H14L364 727H504L676 0H528L414 541L410 578L397 539L280 280L265 260L281 262H357Q379 262 394 252T419 227T435 194T444 159H227Z" />
<glyph unicode="&#xc4;" glyph-name="Adieresis" horiz-adv-x="687" d="M285 840Q288 866 308 884T355 903Q381 903 398 885T412 840Q408 814 387 796T340 777Q314 777 298 795T285 840ZM480 840Q483 866 503 884T550 903Q576 903 593 885T607 840Q603 814 582
796T535 777Q509 777 493 795T480 840ZM227 159L155 0H14L364 727H504L676 0H528L414 541L410 578L397 539L280 280L265 260L281 262H357Q379 262 394 252T419 227T435 194T444 159H227Z" />
<glyph unicode="&#xc5;" glyph-name="Aring" horiz-adv-x="687" d="M228 159L156 0H15L364 725Q329 752 334 797Q337 818 347 836T374 867T412 887T457 895Q505 895 532 869T553 798Q551 775 538 756T505 724L677 0H529L415 546L411 574L400 545L281 280L266 260L280
262H358Q380 262 395 252T420 227T436 194T445 159H228ZM440 760Q458 760 469 771T482 799Q484 816 476 827T450 839Q433 839 422 828T409 798Q407 784 415 772T440 760Z" />
<glyph unicode="&#xc6;" glyph-name="AE" horiz-adv-x="975" d="M237 159L141 0H0L461 727H933L920 624H622L636 103H927L915 0H506L490 552L492 589L474 554L308 280L290 260L311 262H378Q400 262 415 252T440 227T456 194T465 159H237ZM666 331Q674 349 685
367T711 400T747 423T793 432H907L894 331H666Z" />
<glyph unicode="&#xc7;" glyph-name="Ccedilla" horiz-adv-x="652" d="M433 -12Q425 -12 418 -12T403 -11L392 -43Q407 -46 420 -53T444 -70T460 -93T463 -123Q460 -146 447 -162T415 -190T372 -207T325 -213Q290 -213 247 -193L272 -138Q289 -145 303 -147T333
-150Q350 -150 362 -144T376 -126Q378 -111 360 -103T306 -91L340 -3Q271 10 221 43T140 125T96 234T92 364Q102 442 137 510T228 630T359 710T525 740Q567 740 609 732T697 706L650 614Q607 627 578 632T513 637Q453 637 406 614T325 552T271 465T244 364Q238
312 246 263T279 176T345 114T446 91Q481 91 515 99T589 125L615 34Q567 11 521 0T433 -12Z" />
<glyph unicode="&#xc8;" glyph-name="Egrave" horiz-adv-x="577" d="M156 727H592L579 624H286L222 103H531L519 0H67L156 727ZM288 331Q295 347 305 365T330 398T361 422T401 432H522L509 331H288ZM277 890H410L468 765Q455 762 436 762T396 765T357 780T328
808L277 890Z" />
<glyph unicode="&#xc9;" glyph-name="Eacute" horiz-adv-x="577" d="M156 727H592L579 624H286L222 103H531L519 0H67L156 727ZM288 331Q295 347 305 365T330 398T361 422T401 432H522L509 331H288ZM480 808Q463 791 442 781T399 767T358 762T327 765L429 890H562L480
808Z" />
<glyph unicode="&#xca;" glyph-name="Ecircumflex" horiz-adv-x="577" d="M156 727H592L579 624H286L222 103H531L519 0H67L156 727ZM288 331Q295 347 305 365T330 398T361 422T401 432H522L509 331H288ZM463 890L556 774L472 756L401 812L318 756L241 774L360 890H463Z" />
<glyph unicode="&#xcb;" glyph-name="Edieresis" horiz-adv-x="577" d="M156 727H592L579 624H286L222 103H531L519 0H67L156 727ZM288 331Q295 347 305 365T330 398T361 422T401 432H522L509 331H288ZM242 840Q245 866 265 884T312 903Q338 903 355 885T369 840Q365
814 344 796T297 777Q271 777 255 795T242 840ZM437 840Q440 866 460 884T507 903Q533 903 550 885T564 840Q560 814 539 796T492 777Q466 777 450 795T437 840Z" />
<glyph unicode="&#xcc;" glyph-name="Igrave" horiz-adv-x="279" d="M212 0H73L162 727H301L212 0ZM115 890H248L306 765Q293 762 274 762T234 765T195 780T166 808L115 890Z" />
<glyph unicode="&#xcd;" glyph-name="Iacute" horiz-adv-x="321" d="M204 0H65L154 727H293L204 0ZM314 808Q297 791 276 781T233 767T192 762T161 765L263 890H396L314 808Z" />
<glyph unicode="&#xce;" glyph-name="Icircumflex" horiz-adv-x="321" d="M229 0H90L179 727H318L229 0ZM320 890L413 774L329 756L258 812L175 756L98 774L217 890H320Z" />
<glyph unicode="&#xcf;" glyph-name="Idieresis" horiz-adv-x="350" d="M243 0H104L193 727H332L243 0ZM115 840Q118 866 138 884T185 903Q211 903 228 885T242 840Q238 814 217 796T170 777Q144 777 128 795T115 840ZM310 840Q313 866 333 884T380 903Q406 903
423 885T437 840Q433 814 412 796T365 777Q339 777 323 795T310 840Z" />
<glyph unicode="&#xd0;" glyph-name="Eth" horiz-adv-x="713" d="M358 91Q415 91 459 115T535 178T585 266T610 365Q617 424 608 474T571 560T493 616T372 637Q352 637 330 635T285 629L257 401H460L449 310H246L208 0H67L105 310H26L37 401H116L154 714Q223 728
281 734T384 740Q484 740 559 715T683 641T752 524T761 365Q751 286 716 217T628 97T505 17T360 -12Q346 -12 335 -12T310 -9T282 -4T246 5Q253 18 264 33T289 61T320 82T358 91Z" />
<glyph unicode="&#xd1;" glyph-name="Ntilde" horiz-adv-x="749" d="M280 511L270 545L268 511L206 0H84L173 727H311L559 236L567 203L570 238L630 727H756L667 0H541L280 511ZM313 783Q317 811 328 833T355 870T389 893T426 901Q448 901 464 893T493 875T516
857T538 848Q551 848 560 860T574 893L646 887Q641 855 629 833T601 797T569 776T538 769Q513 769 497 777T470 795T449 813T427 822Q416 822 404 813T387 777L313 783Z" />
<glyph unicode="&#xd2;" glyph-name="Ograve" horiz-adv-x="791" d="M393 89Q445 89 487 112T560 174T611 262T637 364Q644 419 637 469T608 557T550 617T461 639Q409 639 367 617T294 557T244 469T217 364Q211 312 218 263T247 175T305 113T393 89ZM381 -14Q296
-14 233 14T129 92T72 211T65 364Q75 446 109 515T196 634T320 713T474 742Q558 742 621 714T725 636T782 516T788 364Q778 282 743 213T653 93T530 15T381 -14ZM326 890H459L517 765Q504 762 485 762T445 765T406 780T377 808L326 890Z" />
<glyph unicode="&#xd3;" glyph-name="Oacute" horiz-adv-x="791" d="M391 89Q443 89 485 112T558 174T609 262T635 364Q642 419 635 469T606 557T548 617T459 639Q407 639 365 617T292 557T242 469T215 364Q209 312 216 263T245 175T303 113T391 89ZM379 -14Q294
-14 231 14T127 92T70 211T63 364Q73 446 107 515T194 634T318 713T472 742Q556 742 619 714T723 636T780 516T786 364Q776 282 741 213T651 93T528 15T379 -14ZM576 808Q559 791 538 781T495 767T454 762T423 765L525 890H658L576 808Z" />
<glyph unicode="&#xd4;" glyph-name="Ocircumflex" horiz-adv-x="791" d="M391 89Q443 89 485 112T558 174T609 262T635 364Q642 419 635 469T606 557T548 617T459 639Q407 639 365 617T292 557T242 469T215 364Q209 312 216 263T245 175T303 113T391 89ZM379
-14Q294 -14 231 14T127 92T70 211T63 364Q73 446 107 515T194 634T318 713T472 742Q556 742 619 714T723 636T780 516T786 364Q776 282 741 213T651 93T528 15T379 -14ZM544 890L637 774L553 756L482 812L399 756L322 774L441 890H544Z" />
<glyph unicode="&#xd5;" glyph-name="Otilde" horiz-adv-x="791" d="M392 89Q444 89 486 112T559 174T610 262T636 364Q643 419 636 469T607 557T549 617T460 639Q408 639 366 617T293 557T243 469T216 364Q210 312 217 263T246 175T304 113T392 89ZM380 -14Q295
-14 232 14T128 92T71 211T64 364Q74 446 108 515T195 634T319 713T473 742Q557 742 620 714T724 636T781 516T787 364Q777 282 742 213T652 93T529 15T380 -14ZM322 783Q326 811 337 833T364 870T398 893T435 901Q457 901 473 893T502 875T525 857T547 848Q560
848 569 860T583 893L655 887Q650 855 638 833T610 797T578 776T547 769Q522 769 506 777T479 795T458 813T436 822Q425 822 413 813T396 777L322 783Z" />
<glyph unicode="&#xd6;" glyph-name="Odieresis" horiz-adv-x="791" d="M392 89Q444 89 486 112T559 174T610 262T636 364Q643 419 636 469T607 557T549 617T460 639Q408 639 366 617T293 557T243 469T216 364Q210 312 217 263T246 175T304 113T392 89ZM380 -14Q295
-14 232 14T128 92T71 211T64 364Q74 446 108 515T195 634T319 713T473 742Q557 742 620 714T724 636T781 516T787 364Q777 282 742 213T652 93T529 15T380 -14ZM326 840Q329 866 349 884T396 903Q422 903 439 885T453 840Q449 814 428 796T381 777Q355 777 339
795T326 840ZM521 840Q524 866 544 884T591 903Q617 903 634 885T648 840Q644 814 623 796T576 777Q550 777 534 795T521 840Z" />
<glyph unicode="&#xd7;" glyph-name="multiply" horiz-adv-x="568" d="M56 139L242 306L96 471L182 546L327 381L512 546L577 471L393 306L539 139L454 64L309 230L121 64L56 139Z" />
<glyph unicode="&#xd8;" glyph-name="Oslash" horiz-adv-x="791" d="M697 665Q752 614 775 537T787 364Q777 282 742 213T652 93T529 15T380 -14Q339 -14 304 -8T238 11L188 -60H69L156 62Q99 113 76 190T64 364Q74 446 108 515T195 634T319 713T473 742Q553 742
613 716L666 789H785L697 665ZM392 89Q444 89 486 112T559 174T610 262T636 364Q643 416 637 462T613 546L325 144Q316 159 307 176T295 212T294 251T311 294L545 619Q508 639 460 639Q408 639 366 617T293 557T243 469T216 364Q210 312 217 263T246 175T304 113T392
89Z" />
<glyph unicode="&#xd9;" glyph-name="Ugrave" horiz-adv-x="694" d="M346 -14Q279 -14 228 5T143 61T96 152T91 278L146 727H287L230 263Q225 222 232 190T256 136T300 101T358 89Q390 89 419 101T471 135T509 190T530 263L587 727H727L672 278Q664 212 637 158T568
66T470 7T346 -14ZM309 890H442L500 765Q487 762 468 762T428 765T389 780T360 808L309 890Z" />
<glyph unicode="&#xda;" glyph-name="Uacute" horiz-adv-x="694" d="M345 -14Q278 -14 227 5T142 61T95 152T90 278L145 727H286L229 263Q224 222 231 190T255 136T299 101T357 89Q389 89 418 101T470 135T508 190T529 263L586 727H726L671 278Q663 212 636 158T567
66T469 7T345 -14ZM536 808Q519 791 498 781T455 767T414 762T383 765L485 890H618L536 808Z" />
<glyph unicode="&#xdb;" glyph-name="Ucircumflex" horiz-adv-x="694" d="M345 -14Q278 -14 227 5T142 61T95 152T90 278L145 727H286L229 263Q224 222 231 190T255 136T299 101T357 89Q389 89 418 101T470 135T508 190T529 263L586 727H726L671 278Q663 212 636
158T567 66T469 7T345 -14ZM507 890L600 774L516 756L445 812L362 756L285 774L404 890H507Z" />
<glyph unicode="&#xdc;" glyph-name="Udieresis" horiz-adv-x="694" d="M344 -14Q277 -14 226 5T141 61T94 152T89 278L144 727H285L228 263Q223 222 230 190T254 136T298 101T356 89Q388 89 417 101T469 135T507 190T528 263L585 727H725L670 278Q662 212 635
158T566 66T468 7T344 -14ZM290 840Q293 866 313 884T360 903Q386 903 403 885T417 840Q413 814 392 796T345 777Q319 777 303 795T290 840ZM485 840Q488 866 508 884T555 903Q581 903 598 885T612 840Q608 814 587 796T540 777Q514 777 498 795T485 840Z" />
<glyph unicode="&#xdd;" glyph-name="Yacute" horiz-adv-x="660" d="M435 339L394 0H256L295 322L94 727H250L435 339ZM571 727H725L470 377Q462 390 453 410T439 455T437 506T456 557L571 727ZM532 808Q515 791 494 781T451 767T410 762T379 765L481 890H614L532 808Z" />
<glyph unicode="&#xde;" glyph-name="Thorn" horiz-adv-x="609" d="M621 364Q615 312 591 272T530 202T450 156T361 135Q338 133 313 134T261 144Q268 158 278 173T300 202T326 224T358 235Q379 237 398 247T434 275T460 315T474 364Q481 420 448 457T351 494Q337
494 328 494T309 493T290 491T266 488L207 0H71L160 727H296L279 594Q301 596 321 596T364 597Q425 597 475 582T560 536T611 463T621 364Z" />
<glyph unicode="&#xdf;" glyph-name="germandbls" horiz-adv-x="567" d="M298 115Q327 101 350 97T389 92Q416 92 435 106T458 144Q461 165 450 181T422 213T384 245T347 283T321 333T316 401Q319 423 329 444T357 485T398 520T449 546Q453 557 454 567T458 588Q462
620 441 641T382 663Q338 663 307 635T269 555L201 0L67 -1L134 544Q141 600 164 641T222 709T298 749T387 763Q480 763 528 715T567 588Q559 535 515 476Q480 462 461 445T438 401Q435 379 446 363T474 332T512 300T549 263T575 212T580 141Q575 104 558 76T514
28T456 -2T392 -12Q362 -12 330 -6T252 25L298 115Z" />
<glyph unicode="&#xe0;" glyph-name="agrave" horiz-adv-x="613" d="M550 126Q546 98 546 67T550 0H443Q437 3 431 13T419 37T412 69T412 105L450 418Q430 423 414 424T386 426Q352 426 324 413T276 375T242 316T224 240Q221 216 221 190T228 143T249 108T289
97Q318 99 334 80T366 32Q336 15 306 4T249 -9Q201 -12 166 10T109 68T78 149T75 240Q82 300 107 352T174 444T270 506T393 529Q414 529 434 528T479 524T531 514T596 499L550 126ZM270 740H404L460 602Q447 599 429 599T391 604T354 620T323 649L270 740Z" />
<glyph unicode="&#xe1;" glyph-name="aacute" horiz-adv-x="613" d="M550 126Q546 98 546 67T550 0H443Q437 3 431 13T419 37T412 69T412 105L450 418Q430 423 414 424T386 426Q352 426 324 413T276 375T242 316T224 240Q221 216 221 190T228 143T249 108T289
97Q318 99 334 80T366 32Q336 15 306 4T249 -9Q201 -12 166 10T109 68T78 149T75 240Q82 300 107 352T174 444T270 506T393 529Q414 529 434 528T479 524T531 514T596 499L550 126ZM481 645Q464 627 443 617T401 603T360 598T329 602L432 740H571L481 645Z" />
<glyph unicode="&#xe2;" glyph-name="acircumflex" horiz-adv-x="613" d="M550 126Q546 98 546 67T550 0H443Q437 3 431 13T419 37T412 69T412 105L450 418Q430 423 414 424T386 426Q352 426 324 413T276 375T242 316T224 240Q221 216 221 190T228 143T249 108T289
97Q318 99 334 80T366 32Q336 15 306 4T249 -9Q201 -12 166 10T109 68T78 149T75 240Q82 300 107 352T174 444T270 506T393 529Q414 529 434 528T479 524T531 514T596 499L550 126ZM476 743L566 603L482 585L413 658L328 585L251 603L373 743H476Z" />
<glyph unicode="&#xe3;" glyph-name="atilde" horiz-adv-x="613" d="M550 126Q546 98 546 67T550 0H443Q437 3 431 13T419 37T412 69T412 105L450 418Q430 423 414 424T386 426Q352 426 324 413T276 375T242 316T224 240Q221 216 221 190T228 143T249 108T289
97Q318 99 334 80T366 32Q336 15 306 4T249 -9Q201 -12 166 10T109 68T78 149T75 240Q82 300 107 352T174 444T270 506T393 529Q414 529 434 528T479 524T531 514T596 499L550 126ZM234 624Q238 652 249 674T276 711T311 734T348 742Q370 742 386 734T414 716T437
698T459 689Q472 689 481 701T496 734L568 728Q563 696 551 674T523 638T490 617T459 610Q434 610 418 618T391 636T371 654T349 663Q338 663 326 654T308 618L234 624Z" />
<glyph unicode="&#xe4;" glyph-name="adieresis" horiz-adv-x="613" d="M550 126Q546 98 546 67T550 0H443Q437 3 431 13T419 37T412 69T412 105L450 418Q430 423 414 424T386 426Q352 426 324 413T276 375T242 316T224 240Q221 216 221 190T228 143T249 108T289
97Q318 99 334 80T366 32Q336 15 306 4T249 -9Q201 -12 166 10T109 68T78 149T75 240Q82 300 107 352T174 444T270 506T393 529Q414 529 434 528T479 524T531 514T596 499L550 126ZM243 670Q246 696 267 714T314 733Q340 733 356 715T370 670Q366 644 345 626T298
607Q272 607 256 625T243 670ZM438 670Q441 696 462 714T509 733Q535 733 551 715T565 670Q561 644 540 626T493 607Q467 607 451 625T438 670Z" />
<glyph unicode="&#xe5;" glyph-name="aring" horiz-adv-x="613" d="M550 126Q546 98 546 67T550 0H443Q437 3 431 13T419 37T412 69T412 105L450 418Q430 423 414 424T386 426Q352 426 324 413T276 375T242 316T224 240Q221 216 221 190T228 143T249 108T289 97Q318
99 334 80T366 32Q336 15 306 4T249 -9Q201 -12 166 10T109 68T78 149T75 240Q82 300 107 352T174 444T270 506T393 529Q414 529 434 528T479 524T531 514T596 499L550 126ZM404 560Q356 560 329 586T306 653Q309 674 319 692T346 723T384 743T429 751Q477 751
503 725T525 654Q522 633 512 616T485 587T447 567T404 560ZM411 616Q429 616 440 627T453 655Q455 672 447 683T421 695Q404 695 394 684T381 654Q379 640 386 628T411 616Z" />
<glyph unicode="&#xe6;" glyph-name="ae" horiz-adv-x="850" d="M718 317Q724 340 722 361T711 398T685 423T645 433Q624 433 602 424T561 396T528 346T508 272Q497 185 530 138T627 90Q662 90 696 98T777 127L801 34Q744 8 695 -2T599 -13Q564 -13 534 -1T480
30T442 73T421 121Q401 85 374 60T318 19T260 -5T205 -13Q124 -13 80 27T43 138Q47 169 64 198T115 250T204 290T339 313Q329 278 311 252T260 220Q222 214 202 195T179 151Q176 125 192 108T235 90Q261 90 283 103T323 139T352 194T369 265L375 311Q381 363 357
394T279 425Q254 425 225 420T159 402L136 490Q183 510 231 519T314 528Q362 528 404 501T468 420Q485 445 508 465T557 500T610 522T664 530Q719 530 762 508T828 447T851 354T821 235H541Q556 270 579 293T629 317H718Z" />
<glyph unicode="&#xe7;" glyph-name="ccedilla" horiz-adv-x="427" d="M350 530Q377 530 408 525T468 508L422 415Q399 421 377 424T337 427Q283 427 245 382T196 259Q186 180 214 135T296 90Q317 90 341 95T399 114L422 22Q381 5 347 -3T285 -13L274 -43Q289
-46 302 -53T326 -70T342 -93T345 -123Q342 -146 329 -162T297 -190T254 -207T207 -213Q172 -213 129 -193L154 -138Q171 -145 185 -147T215 -150Q232 -150 244 -144T258 -126Q260 -111 242 -103T188 -91L221 -7Q179 1 144 20T85 72T51 151T48 259Q57 327 85 378T155
462T247 513T350 530Z" />
<glyph unicode="&#xe8;" glyph-name="egrave" horiz-adv-x="544" d="M415 317Q421 340 419 361T408 398T382 423T342 433Q321 433 299 424T258 396T225 346T205 272Q194 185 227 138T324 90Q359 90 393 98T474 127L498 34Q441 8 392 -2T296 -13Q227 -13 181 12T107
76T70 166T66 267Q74 329 100 378T167 460T257 512T361 530Q416 530 459 508T525 447T548 354T518 235H238Q253 270 276 293T326 317H415ZM223 740H357L413 602Q400 599 382 599T344 604T307 620T276 649L223 740Z" />
<glyph unicode="&#xe9;" glyph-name="eacute" horiz-adv-x="544" d="M414 317Q420 340 418 361T407 398T381 423T341 433Q320 433 298 424T257 396T224 346T204 272Q193 185 226 138T323 90Q358 90 392 98T473 127L497 34Q440 8 391 -2T295 -13Q226 -13 180 12T106
76T69 166T65 267Q73 329 99 378T166 460T256 512T360 530Q415 530 458 508T524 447T547 354T517 235H237Q252 270 275 293T325 317H414ZM451 645Q434 627 413 617T371 603T330 598T299 602L402 740H541L451 645Z" />
<glyph unicode="&#xea;" glyph-name="ecircumflex" horiz-adv-x="544" d="M413 317Q419 340 417 361T406 398T380 423T340 433Q319 433 297 424T256 396T223 346T203 272Q192 185 225 138T322 90Q357 90 391 98T472 127L496 34Q439 8 390 -2T294 -13Q225 -13 179
12T105 76T68 166T64 267Q72 329 98 378T165 460T255 512T359 530Q414 530 457 508T523 447T546 354T516 235H236Q251 270 274 293T324 317H413ZM434 743L524 603L440 585L371 658L286 585L209 603L331 743H434Z" />
<glyph unicode="&#xeb;" glyph-name="edieresis" horiz-adv-x="544" d="M415 317Q421 340 419 361T408 398T382 423T342 433Q321 433 299 424T258 396T225 346T205 272Q194 185 227 138T324 90Q359 90 393 98T474 127L498 34Q441 8 392 -2T296 -13Q227 -13 181
12T107 76T70 166T66 267Q74 329 100 378T167 460T257 512T361 530Q416 530 459 508T525 447T548 354T518 235H238Q253 270 276 293T326 317H415ZM206 670Q209 696 230 714T277 733Q303 733 319 715T333 670Q329 644 308 626T261 607Q235 607 219 625T206 670ZM401
670Q404 696 425 714T472 733Q498 733 514 715T528 670Q524 644 503 626T456 607Q430 607 414 625T401 670Z" />
<glyph unicode="&#xec;" glyph-name="igrave" horiz-adv-x="276" d="M89 0L152 517H292L229 0H89ZM87 740H221L277 602Q264 599 246 599T208 604T171 620T140 649L87 740Z" />
<glyph unicode="&#xed;" glyph-name="iacute" horiz-adv-x="273" d="M48 0L111 517H251L188 0H48ZM280 645Q263 627 242 617T200 603T159 598T128 602L231 740H370L280 645Z" />
<glyph unicode="&#xee;" glyph-name="icircumflex" horiz-adv-x="337" d="M97 0L160 517H300L237 0H97ZM310 743L400 603L316 585L247 658L162 585L85 603L207 743H310Z" />
<glyph unicode="&#xef;" glyph-name="idieresis" horiz-adv-x="352" d="M106 0L169 517H309L246 0H106ZM96 670Q99 696 120 714T167 733Q193 733 209 715T223 670Q219 644 198 626T151 607Q125 607 109 625T96 670ZM291 670Q294 696 315 714T362 733Q388 733 404
715T418 670Q414 644 393 626T346 607Q320 607 304 625T291 670Z" />
<glyph unicode="&#xf0;" glyph-name="eth" horiz-adv-x="557" d="M581 259Q574 201 547 152T480 66T388 8T280 -13Q224 -13 178 6T99 60T52 146T45 259Q52 316 79 365T147 451T239 509T347 530Q364 530 383 527T419 515Q387 562 340 600L219 546L199 604L282 642Q262
654 243 665T204 686L256 762Q291 747 323 729T385 688L501 741L523 682L439 644Q514 572 555 476T581 259ZM193 259Q189 224 193 193T209 139T242 103T292 89Q321 89 345 102T387 139T416 193T432 259Q436 294 433 324T417 378T384 414T334 428Q305 428 281 415T239
378T209 325T193 259Z" />
<glyph unicode="&#xf1;" glyph-name="ntilde" horiz-adv-x="596" d="M431 367Q434 392 426 408T392 424Q382 424 373 422T349 418Q337 417 328 423T312 438T298 460T286 484Q339 510 377 520T451 530Q477 530 500 520T541 490T566 440T570 369L525 0H386L431 367ZM208
624Q212 652 223 674T250 711T285 734T322 742Q344 742 360 734T388 716T411 698T433 689Q446 689 455 701T470 734L542 728Q537 696 525 674T497 638T464 617T433 610Q408 610 392 618T365 636T345 654T323 663Q312 663 300 654T282 618L208 624ZM226 517Q247
490 251 464T252 407L203 0H63L110 386Q116 444 109 512L226 517Z" />
<glyph unicode="&#xf2;" glyph-name="ograve" horiz-adv-x="566" d="M580 259Q573 201 546 152T479 66T387 8T279 -13Q223 -13 177 6T98 60T51 146T44 259Q51 316 78 365T146 451T238 509T346 530Q402 530 448 511T527 457T573 371T580 259ZM192 259Q188 224 192
193T208 139T241 103T291 89Q320 89 344 102T386 139T415 193T431 259Q435 294 432 324T416 378T383 414T333 428Q304 428 280 415T238 378T208 325T192 259ZM224 740H358L414 602Q401 599 383 599T345 604T308 620T277 649L224 740Z" />
<glyph unicode="&#xf3;" glyph-name="oacute" horiz-adv-x="566" d="M580 259Q573 201 546 152T479 66T387 8T279 -13Q223 -13 177 6T98 60T51 146T44 259Q51 316 78 365T146 451T238 509T346 530Q402 530 448 511T527 457T573 371T580 259ZM192 259Q188 224 192
193T208 139T241 103T291 89Q320 89 344 102T386 139T415 193T431 259Q435 294 432 324T416 378T383 414T333 428Q304 428 280 415T238 378T208 325T192 259ZM443 645Q426 627 405 617T363 603T322 598T291 602L394 740H533L443 645Z" />
<glyph unicode="&#xf4;" glyph-name="ocircumflex" horiz-adv-x="566" d="M580 259Q573 201 546 152T479 66T387 8T279 -13Q223 -13 177 6T98 60T51 146T44 259Q51 316 78 365T146 451T238 509T346 530Q402 530 448 511T527 457T573 371T580 259ZM192 259Q188
224 192 193T208 139T241 103T291 89Q320 89 344 102T386 139T415 193T431 259Q435 294 432 324T416 378T383 414T333 428Q304 428 280 415T238 378T208 325T192 259ZM423 743L513 603L429 585L360 658L275 585L198 603L320 743H423Z" />
<glyph unicode="&#xf5;" glyph-name="otilde" horiz-adv-x="566" d="M580 259Q573 201 546 152T479 66T387 8T279 -13Q223 -13 177 6T98 60T51 146T44 259Q51 316 78 365T146 451T238 509T346 530Q402 530 448 511T527 457T573 371T580 259ZM192 259Q188 224 192
193T208 139T241 103T291 89Q320 89 344 102T386 139T415 193T431 259Q435 294 432 324T416 378T383 414T333 428Q304 428 280 415T238 378T208 325T192 259ZM197 624Q201 652 212 674T239 711T274 734T311 742Q333 742 349 734T377 716T400 698T422 689Q435 689
444 701T459 734L531 728Q526 696 514 674T486 638T453 617T422 610Q397 610 381 618T354 636T334 654T312 663Q301 663 289 654T271 618L197 624Z" />
<glyph unicode="&#xf6;" glyph-name="odieresis" horiz-adv-x="566" d="M579 259Q572 201 545 152T478 66T386 8T278 -13Q222 -13 176 6T97 60T50 146T43 259Q50 316 77 365T145 451T237 509T345 530Q401 530 447 511T526 457T572 371T579 259ZM191 259Q187 224
191 193T207 139T240 103T290 89Q319 89 343 102T385 139T414 193T430 259Q434 294 431 324T415 378T382 414T332 428Q303 428 279 415T237 378T207 325T191 259ZM202 670Q205 696 226 714T273 733Q299 733 315 715T329 670Q325 644 304 626T257 607Q231 607 215
625T202 670ZM397 670Q400 696 421 714T468 733Q494 733 510 715T524 670Q520 644 499 626T452 607Q426 607 410 625T397 670Z" />
<glyph unicode="&#xf7;" glyph-name="divide" horiz-adv-x="568" d="M232 112Q236 140 255 157T301 175Q329 175 344 158T356 112Q353 85 334 68T286 51Q259 51 244 68T232 112ZM90 353H558L546 257H78L90 353ZM280 494Q284 521 303 538T348 556Q375 556 390 539T402
494Q399 468 380 451T333 434Q307 434 292 451T280 494Z" />
<glyph unicode="&#xf8;" glyph-name="oslash" horiz-adv-x="500" d="M578 259Q571 201 545 152T478 66T386 8T279 -13Q229 -13 183 3L134 -66H37L115 43Q74 78 57 133T47 259Q54 316 80 365T147 451T239 509T346 530Q402 530 450 510L496 573H590L515 468Q553
432 569 379T578 259ZM190 259Q186 224 190 193T207 139T241 103T291 89Q320 89 344 102T387 139T417 193T433 259Q436 283 434 305T427 346L271 128Q263 138 257 151T247 179T246 210T259 245L381 415Q370 421 359 424T333 428Q304 428 280 415T237 378T206 325T190
259Z" />
<glyph unicode="&#xf9;" glyph-name="ugrave" horiz-adv-x="587" d="M205 150Q202 125 210 109T244 93Q254 93 263 95T287 99Q299 100 308 94T324 79T338 57T350 33Q296 7 258 -3T185 -13Q159 -13 136 -3T95 27T69 77T66 148L111 517H250L205 150ZM218 740H352L408
602Q395 599 377 599T339 604T302 620T271 649L218 740ZM409 0Q389 27 384 53T383 110L433 517H573L526 131Q518 74 527 5L409 0Z" />
<glyph unicode="&#xfa;" glyph-name="uacute" horiz-adv-x="587" d="M207 150Q204 125 212 109T246 93Q256 93 265 95T289 99Q301 100 310 94T326 79T340 57T352 33Q298 7 260 -3T187 -13Q161 -13 138 -3T97 27T71 77T68 148L113 517H252L207 150ZM455 645Q438
627 417 617T375 603T334 598T303 602L406 740H545L455 645ZM411 0Q391 27 386 53T385 110L435 517H575L528 131Q520 74 529 5L411 0Z" />
<glyph unicode="&#xfb;" glyph-name="ucircumflex" horiz-adv-x="587" d="M207 150Q204 125 212 109T246 93Q256 93 265 95T289 99Q301 100 310 94T326 79T340 57T352 33Q298 7 260 -3T187 -13Q161 -13 138 -3T97 27T71 77T68 148L113 517H252L207 150ZM423 743L513
603L429 585L360 658L275 585L198 603L320 743H423ZM411 0Q391 27 386 53T385 110L435 517H575L528 131Q520 74 529 5L411 0Z" />
<glyph unicode="&#xfc;" glyph-name="udieresis" horiz-adv-x="587" d="M206 150Q203 125 211 109T245 93Q255 93 264 95T288 99Q300 100 309 94T325 79T339 57T351 33Q297 7 259 -3T186 -13Q160 -13 137 -3T96 27T70 77T67 148L112 517H251L206 150ZM206 670Q209
696 230 714T277 733Q303 733 319 715T333 670Q329 644 308 626T261 607Q235 607 219 625T206 670ZM401 670Q404 696 425 714T472 733Q498 733 514 715T528 670Q524 644 503 626T456 607Q430 607 414 625T401 670ZM410 0Q390 27 385 53T384 110L434 517H574L527
131Q519 74 528 5L410 0Z" />
<glyph unicode="&#xfd;" glyph-name="yacute" horiz-adv-x="529" d="M251 281Q257 248 253 210T239 136T214 67T184 13L60 517H210L251 281ZM437 645Q420 627 399 617T357 603T316 598T285 602L387 740H527L437 645ZM91 -146Q117 -146 137 -134T175 -99T210 -42T247
37L454 517L593 510L352 11Q319 -54 292 -102T234 -183T166 -231T78 -248Q58 -247 35 -244T-11 -229L32 -139Q49 -144 63 -145T91 -146Z" />
<glyph unicode="&#xfe;" glyph-name="thorn" horiz-adv-x="598" d="M166 758H298L217 98Q240 92 258 90T296 88Q325 88 350 102T394 141T427 201T446 277Q449 301 448 327T439 376T416 412T375 425Q358 424 347 430T327 447T314 472T302 502Q332 514 362 520T419
526Q467 526 502 504T559 447T591 367T595 277Q587 216 561 163T495 70T401 8T284 -15Q263 -15 243 -14T204 -8L175 -241H43L166 758Z" />
<glyph unicode="&#xff;" glyph-name="ydieresis" horiz-adv-x="529" d="M250 281Q256 248 252 210T238 136T213 67T183 13L59 517H209L250 281ZM188 670Q191 696 212 714T259 733Q285 733 301 715T315 670Q311 644 290 626T243 607Q217 607 201 625T188 670ZM383
670Q386 696 407 714T454 733Q480 733 496 715T510 670Q506 644 485 626T438 607Q412 607 396 625T383 670ZM90 -146Q116 -146 136 -134T174 -99T209 -42T246 37L453 517L592 510L351 11Q318 -54 291 -102T233 -183T165 -231T77 -248Q57 -247 34 -244T-12 -229L31
-139Q48 -144 62 -145T90 -146Z" />
<glyph unicode="&#x2013;" glyph-name="endash" horiz-adv-x="540" d="M72 226L84 324H508L496 226H72Z" />
<glyph unicode="&#x2014;" glyph-name="emdash" horiz-adv-x="849" d="M72 226L84 324H823L811 226H72Z" />
<glyph unicode="&#x2018;" glyph-name="quoteleft" horiz-adv-x="205" d="M210 501H88L98 579Q102 613 112 643T140 695T181 725T238 727L210 501Z" />
<glyph unicode="&#x2019;" glyph-name="quoteright" horiz-adv-x="191" d="M116 727H238L228 649Q224 614 214 584T186 533T144 503T88 501L116 727Z" />
<glyph unicode="&#x201a;" glyph-name="quotesinglbase" horiz-adv-x="197" d="M68 98H190L180 20Q176 -15 166 -45T138 -96T96 -126T40 -128L68 98Z" />
<glyph unicode="&#x201c;" glyph-name="quotedblleft" horiz-adv-x="396" d="M420 501H298L308 579Q312 613 322 643T350 695T391 725T448 727L420 501ZM216 501H94L104 579Q108 613 118 643T146 695T187 725T244 727L216 501Z" />
<glyph unicode="&#x201d;" glyph-name="quotedblright" horiz-adv-x="416" d="M122 727H244L234 649Q230 614 220 584T192 533T150 503T94 501L122 727ZM326 727H448L438 649Q434 614 424 584T396 533T354 503T298 501L326 727Z" />
<glyph unicode="&#x201e;" glyph-name="quotedblbase" horiz-adv-x="394" d="M45 98H167L157 20Q153 -15 143 -45T115 -96T73 -126T17 -128L45 98ZM249 98H371L361 20Q357 -15 347 -45T319 -96T277 -126T221 -128L249 98Z" />
<glyph unicode="&#x2022;" glyph-name="bullet" horiz-adv-x="500" d="M202 315Q207 356 236 383T307 410Q348 410 371 383T390 315Q385 274 355 248T284 222Q243 222 220 248T202 315Z" />
<glyph unicode="&#x2039;" glyph-name="guilsinglleft" horiz-adv-x="613" d="M205 258L464 472L513 418L367 258L474 98L412 45L205 258Z" />
<glyph unicode="&#x203a;" glyph-name="guilsinglright" horiz-adv-x="613" d="M249 45L201 98L346 258L240 418L301 472L508 258L249 45Z" />
</font>
</defs>
</svg>
