<?xml version="1.0" standalone="no"?>
<!DOCTYPE svg PUBLIC "-//W3C//DTD SVG 1.1//EN" "http://www.w3.org/Graphics/SVG/1.1/DTD/svg11.dtd">
<svg xmlns="http://www.w3.org/2000/svg">
<defs >
<font id="EncodeSansSemiCondensed" horiz-adv-x="1171" ><font-face
    font-family="Encode Sans Semi Condensed ExBd"
    units-per-em="2000"
    panose-1="0 0 9 6 0 0 0 0 0 0"
    ascent="2060"
    descent="-440"
    alphabetic="0" />
<glyph unicode=" " glyph-name="space" horiz-adv-x="472" />
<glyph unicode="!" glyph-name="exclam" horiz-adv-x="595" d="M189 504L105 982V1480H490V982L409 504H189ZM229 -19T177 7T96 81T67 195Q67 293 129 351T297 409Q367 409 419 382T499 307T528 195Q528 132 499 84T418 8T297 -19Q229 -19 177 7Z" />
<glyph unicode="&quot;" glyph-name="quotedbl" horiz-adv-x="912" d="M121 825L53 1616H412L343 825H121ZM568 825L500 1616H859L790 825H568Z" />
<glyph unicode="#" glyph-name="numbersign" horiz-adv-x="1232" d="M1137 828H966L949 652H1137V383H924L888 0H616L652 383H513L477 0H205L241 383H95V652H266L283 828H95V1097H308L344 1480H616L580 1097H719L755 1480H1027L991 1097H1137V828ZM677 652L694
828H555L538 652H677Z" />
<glyph unicode="$" glyph-name="dollar" horiz-adv-x="1106" d="M1069 286T980 173T722 12V-240H385V-17Q304 -12 224 2T78 39V340Q166 313 269 297T459 281Q590 281 646 316T703 419Q703 455 687 480T632 526T519 569L402 604Q226 654 132 760T37 1035Q37 1199
124 1309T385 1467V1720H722V1499Q872 1493 990 1463V1162Q925 1179 846 1189T696 1199Q535 1199 469 1162T403 1059Q403 1025 416 1002T464 959T562 921L679 886Q874 830 971 725T1069 448Q1069 286 980 173Z" />
<glyph unicode="%" glyph-name="percent" horiz-adv-x="2060" d="M347 568T257 619T116 775T66 1034Q66 1189 116 1293T256 1448T470 1500Q593 1500 683 1449T823 1293T873 1034Q873 880 823 776T683 620T470 568Q347 568 257 619ZM564 0L1208 1480H1496L852 0H564ZM526
794T557 848T588 1034Q588 1165 557 1219T470 1274Q413 1274 382 1220T351 1034Q351 902 382 848T470 794Q526 794 557 848ZM1468 -18T1378 33T1237 189T1187 449Q1187 603 1237 707T1377 862T1590 914Q1713 914 1803 863T1944 707T1994 449Q1994 295 1944 190T1804
34T1590 -18Q1468 -18 1378 33ZM1646 208T1677 262T1709 448Q1709 580 1678 634T1590 688Q1534 688 1503 634T1472 449Q1472 317 1503 263T1590 208Q1646 208 1677 262Z" />
<glyph unicode="&amp;" glyph-name="ampersand" horiz-adv-x="1557" d="M1377 -20L1140 143Q1053 63 932 23T657 -18Q470 -18 341 34T146 181T81 406Q81 528 140 622T298 766Q248 830 227 895T206 1033Q206 1255 362 1377T828 1500Q955 1500 1085 1476V1175Q1034
1186 974 1192T860 1199Q705 1199 639 1156T572 1030Q572 978 599 937T693 849L1034 614V639Q1034 697 1026 762T1003 887H1294Q1324 759 1324 642Q1324 528 1301 431L1557 254L1377 -20ZM828 245T907 304L513 575L488 592Q445 532 445 448Q445 352 511 299T699
245Q828 245 907 304Z" />
<glyph unicode="&apos;" glyph-name="quotesingle" horiz-adv-x="465" d="M121 825L53 1616H412L343 825H121Z" />
<glyph unicode="(" glyph-name="parenleft" horiz-adv-x="697" d="M88 -42T88 588Q88 1218 393 1616H760Q607 1395 534 1141T460 588Q460 290 533 36T760 -440H393Q88 -42 88 588Z" />
<glyph unicode=")" glyph-name="parenright" horiz-adv-x="697" d="M91 -219T164 36T238 588Q238 885 165 1140T-62 1616H304Q610 1219 610 588Q610 -43 304 -440H-62Q91 -219 164 36Z" />
<glyph unicode="*" glyph-name="asterisk" horiz-adv-x="1013" d="M639 1123L784 993L872 872L676 729L588 850L506 1036L425 850L337 729L141 872L229 993L374 1123L181 1144L30 1193L105 1424L256 1374L427 1275L385 1468V1616H627V1468L586 1275L757 1374L908
1424L983 1193L832 1144L639 1123Z" />
<glyph unicode="+" glyph-name="plus" horiz-adv-x="1070" d="M390 316V621H96V899H390V1204H679V899H973V621H679V316H390Z" />
<glyph unicode="," glyph-name="comma" horiz-adv-x="555" d="M387 425T447 353T507 137Q507 12 461 -118T336 -352H130Q177 -250 203 -171T238 -16Q152 -5 100 53T47 203Q47 308 108 366T272 425Q387 425 447 353Z" />
<glyph unicode="-" glyph-name="hyphen" horiz-adv-x="840" d="M96 423V714H744V423H96Z" />
<glyph unicode="." glyph-name="period" horiz-adv-x="555" d="M209 -19T157 8T76 85T47 203Q47 305 109 365T277 425Q347 425 399 398T479 320T508 203Q508 137 479 87T398 9T277 -19Q209 -19 157 8Z" />
<glyph unicode="/" glyph-name="slash" horiz-adv-x="776" d="M0 -240L427 1616H776L350 -240H0Z" />
<glyph unicode="0" glyph-name="zero" horiz-adv-x="1283" d="M367 -20T223 166T78 740Q78 1500 641 1500Q1205 1500 1205 740Q1205 -20 641 -20Q367 -20 223 166ZM711 281T755 323T822 466T845 739Q845 912 823 1013T756 1156T642 1199Q572 1199 528 1157T461
1014T438 741Q438 568 460 467T527 324T642 281Q711 281 755 323Z" />
<glyph unicode="1" glyph-name="one" horiz-adv-x="783" d="M434 1486H664V0H297V1056L18 873V1212L434 1486Z" />
<glyph unicode="2" glyph-name="two" horiz-adv-x="1032" d="M987 311V0H39V201L404 682Q488 794 524 875T561 1025Q561 1114 504 1156T320 1199Q241 1199 163 1185T20 1146V1447Q85 1470 183 1485T369 1500Q642 1500 782 1394T923 1058Q923 946 879 832T731 585L517
311H987Z" />
<glyph unicode="3" glyph-name="three" horiz-adv-x="1039" d="M845 733T918 644T991 413Q991 276 923 179T720 31T392 -20Q206 -20 31 27V305Q111 284 205 272T379 260Q518 260 581 303T644 437Q644 526 580 569T371 613H169V898H344Q476 898 536 940T597 1063Q597
1143 541 1181T362 1220Q285 1220 202 1207T51 1169V1447Q120 1471 218 1485T408 1500Q673 1500 809 1397T946 1101Q946 975 883 887T705 764Q845 733 918 644Z" />
<glyph unicode="4" glyph-name="four" horiz-adv-x="1229" d="M1202 574V293H1027V0H701V293H31V495L502 1480H850L426 574H701L738 980H1027V574H1202Z" />
<glyph unicode="5" glyph-name="five" horiz-adv-x="1054" d="M654 891T777 836T958 686T1016 450Q1016 218 864 99T420 -20Q237 -20 60 31V310Q139 288 233 275T408 261Q544 261 606 305T669 438Q669 501 635 540T512 602T254 636L100 645L149 1480H960V1189H475L457
908Q654 891 777 836Z" />
<glyph unicode="6" glyph-name="six" horiz-adv-x="1211" d="M841 903T943 855T1106 706T1166 455Q1166 308 1103 201T924 37T654 -20Q388 -20 238 154T87 697Q87 1100 273 1300T804 1500Q983 1500 1091 1459V1173Q968 1213 819 1213Q637 1213 545 1120T445 828Q498
864 568 883T712 903Q841 903 943 855ZM737 250T786 298T836 443Q836 540 784 587T639 635Q587 635 537 621T445 576Q450 451 476 380T547 279T656 250Q737 250 786 298Z" />
<glyph unicode="7" glyph-name="seven" horiz-adv-x="982" d="M11 1480H925V1279L496 0H119L536 1169H11V1480Z" />
<glyph unicode="8" glyph-name="eight" horiz-adv-x="1283" d="M1103 717T1158 628T1214 410Q1214 284 1148 187T954 35T645 -20Q454 -20 324 30T130 168T66 373Q66 485 129 574T315 719Q202 788 153 877T103 1083Q103 1209 167 1303T356 1448T659 1500Q819 1500
935 1455T1114 1324T1177 1121Q1177 905 969 786Q1103 717 1158 628ZM556 1244T502 1204T448 1095Q448 1045 470 1011T554 946T734 877Q802 922 833 973T864 1090Q864 1165 812 1204T659 1244Q556 1244 502 1204ZM761 236T817 276T874 391Q874 443 848 479T758
547T574 612L544 621Q476 583 442 527T407 410Q407 326 467 281T645 236Q761 236 817 276Z" />
<glyph unicode="9" glyph-name="nine" horiz-adv-x="1211" d="M823 1500T973 1326T1124 783Q1124 380 938 180T407 -20Q228 -20 120 21V307Q243 267 392 267Q574 267 666 360T766 652Q713 616 643 597T499 577Q370 577 268 625T105 774T45 1025Q45 1172 108 1279T287
1443T557 1500Q823 1500 973 1326ZM375 940T427 893T572 845Q624 845 674 859T766 904Q761 1029 735 1100T664 1201T555 1230Q474 1230 425 1182T375 1037Q375 940 427 893Z" />
<glyph unicode=":" glyph-name="colon" horiz-adv-x="555" d="M209 -19T157 8T76 85T47 203Q47 305 109 365T277 425Q347 425 399 398T479 320T508 203Q508 137 479 87T398 9T277 -19Q209 -19 157 8ZM209 673T157 700T76 777T47 895Q47 997 109 1057T277 1117Q347
1117 399 1090T479 1012T508 895Q508 829 479 779T398 701T277 673Q209 673 157 700Z" />
<glyph unicode=";" glyph-name="semicolon" horiz-adv-x="555" d="M387 425T447 353T507 137Q507 12 461 -118T336 -352H130Q177 -250 203 -171T238 -16Q152 -5 100 53T47 203Q47 308 108 366T272 425Q387 425 447 353ZM209 673T157 700T76 777T47 895Q47 997
109 1057T277 1117Q347 1117 399 1090T479 1012T508 895Q508 829 479 779T398 701T277 673Q209 673 157 700Z" />
<glyph unicode="&lt;" glyph-name="less" horiz-adv-x="1070" d="M973 1268V990L338 761L973 530V252L96 584V936L973 1268Z" />
<glyph unicode="=" glyph-name="equal" horiz-adv-x="1070" d="M96 849V1126H973V849H96ZM96 394V671H973V394H96Z" />
<glyph unicode="&gt;" glyph-name="greater" horiz-adv-x="1070" d="M96 1268L973 936V584L96 252V530L732 761L96 990V1268Z" />
<glyph unicode="?" glyph-name="question" horiz-adv-x="956" d="M248 852Q371 876 440 905T538 972T566 1062Q566 1141 510 1179T331 1217Q253 1217 171 1204T20 1165V1447Q89 1471 188 1485T378 1500Q644 1500 780 1397T916 1099Q916 943 823 840T557 685L530
502H310L248 852ZM351 -19T299 7T218 81T189 195Q189 293 251 351T420 409Q490 409 542 382T622 307T651 195Q651 132 622 84T541 8T420 -19Q351 -19 299 7Z" />
<glyph unicode="@" glyph-name="at" horiz-adv-x="2045" d="M568 465T674 552T1016 656L1150 666Q1148 723 1128 756T1063 803T942 818Q876 818 803 806T664 769L667 1046Q743 1070 834 1084T1009 1098Q1183 1098 1290 1054T1448 909T1500 639V328Q1500 220 1583
220Q1628 220 1658 248T1705 352T1722 562Q1722 815 1649 969T1425 1193T1031 1263Q790 1263 640 1190T417 955T344 521Q344 248 419 85T651 -151T1066 -225Q1290 -225 1510 -170V-406Q1289 -460 1066 -460Q578 -460 323 -219T68 520Q68 1016 317 1257T1031 1498Q1490
1498 1733 1268T1977 584Q1977 267 1852 123T1507 -21Q1276 -21 1182 131H1164Q1134 51 1065 15T904 -21Q802 -21 726 19T609 132T568 302Q568 465 674 552ZM1056 463Q987 458 954 429T920 344Q920 292 949 266T1030 239Q1061 239 1093 249T1150 282V470L1056 463Z"
/>
<glyph unicode="A" glyph-name="A" horiz-adv-x="1385" d="M1023 0L925 366H455L358 0H2L421 1480H964L1382 0H1023ZM534 666H845L689 1251L534 666Z" />
<glyph unicode="B" glyph-name="B" horiz-adv-x="1291" d="M1109 736T1180 649T1252 417Q1252 199 1080 90T526 -19Q435 -19 319 -10T109 13V1448Q215 1471 340 1485T580 1499Q798 1499 937 1455T1144 1318T1211 1083Q1211 967 1150 881T984 763Q1109 736 1180
649ZM556 1226T466 1211V897H635Q721 897 771 914T844 967T867 1061Q867 1120 844 1156T771 1209T635 1226Q556 1226 466 1211ZM734 255T795 274T884 332T911 436Q911 529 853 571T664 614H466V262Q553 255 627 255Q734 255 795 274Z" />
<glyph unicode="C" glyph-name="C" horiz-adv-x="1174" d="M450 -20T259 163T68 736Q68 1116 266 1308T836 1500Q994 1500 1132 1467V1164Q992 1194 867 1194Q724 1194 633 1149T497 1004T451 740Q451 572 495 473T629 330T862 286Q981 286 1132 332V28Q1068 6
984 -7T817 -20Q450 -20 259 163Z" />
<glyph unicode="D" glyph-name="D" horiz-adv-x="1421" d="M305 -18T109 5V1448Q216 1471 333 1484T566 1498Q962 1498 1157 1313T1353 740Q1353 476 1260 309T980 62T506 -18Q305 -18 109 5ZM731 283T812 327T935 471T977 741Q977 909 934 1009T809 1154T603
1199Q538 1199 475 1187V287Q540 283 605 283Q731 283 812 327Z" />
<glyph unicode="E" glyph-name="E" horiz-adv-x="1195" d="M470 303H1131V0H109V1480H1121V1177H470V907H1017V605H470V303Z" />
<glyph unicode="F" glyph-name="F" horiz-adv-x="1146" d="M1119 1173H475V867H1019V560H475V0H109V1480H1119V1173Z" />
<glyph unicode="G" glyph-name="G" horiz-adv-x="1357" d="M1252 720V13Q1058 -19 893 -19Q479 -19 274 167T68 738Q68 1118 278 1309T891 1500Q1064 1500 1212 1463V1159Q1059 1194 929 1194Q759 1194 655 1149T500 1002T450 733Q450 497 551 391T858 285Q895
285 913 286V720H1252Z" />
<glyph unicode="H" glyph-name="H" horiz-adv-x="1450" d="M109 0V1480H475V920H975V1480H1341V0H975V591H475V0H109Z" />
<glyph unicode="I" glyph-name="I" horiz-adv-x="584" d="M109 0V1480H475V0H109Z" />
<glyph unicode="J" glyph-name="J" horiz-adv-x="584" d="M-36 -194Q46 -79 78 31T110 303V1480H475V312Q474 120 412 -36T200 -350L-36 -194Z" />
<glyph unicode="K" glyph-name="K" horiz-adv-x="1288" d="M954 0L585 591H475V0H109V1480H475V920H587L926 1480H1308L874 765L1347 0H954Z" />
<glyph unicode="L" glyph-name="L" horiz-adv-x="1096" d="M109 0V1480H475V314H1089V0H109Z" />
<glyph unicode="M" glyph-name="M" horiz-adv-x="1813" d="M1250 1480H1700V0H1359V982L1052 217H761L454 953V0H113V1480H562L912 611L1250 1480Z" />
<glyph unicode="N" glyph-name="N" horiz-adv-x="1465" d="M1013 1480H1356V0H990L452 897V0H109V1480H475L1013 583V1480Z" />
<glyph unicode="O" glyph-name="O" horiz-adv-x="1485" d="M537 -20T386 62T151 314T68 740Q68 996 151 1166T385 1418T743 1500Q949 1500 1100 1418T1334 1166T1417 740Q1417 484 1334 314T1100 62T743 -20Q537 -20 386 62ZM890 280T965 386T1041 733Q1041 982
966 1091T743 1200Q596 1200 520 1094T444 747Q444 497 519 389T743 280Q890 280 965 386Z" />
<glyph unicode="P" glyph-name="P" horiz-adv-x="1271" d="M109 1452Q341 1499 557 1499Q888 1499 1050 1367T1213 953Q1213 686 1054 548T591 409Q564 409 516 411L475 412V0H109V1452ZM731 693T794 753T857 950Q857 1088 793 1151T592 1215Q526 1215 475 1205V701Q527
693 595 693Q731 693 794 753Z" />
<glyph unicode="Q" glyph-name="Q" horiz-adv-x="1485" d="M1417 455T1306 275T982 39Q1189 -22 1396 -48L1331 -339Q856 -258 579 -113T185 239T68 736Q68 994 151 1165T385 1418T743 1500Q949 1500 1100 1418T1334 1166T1417 740Q1417 455 1306 275ZM444 497T519
389T743 280Q890 280 965 386T1041 733Q1041 982 966 1091T743 1200Q596 1200 520 1094T444 747Q444 497 519 389Z" />
<glyph unicode="R" glyph-name="R" horiz-adv-x="1328" d="M928 0L595 519Q564 519 514 521Q484 523 469 523V0H109V1448Q338 1499 567 1499Q887 1499 1047 1378T1207 1010Q1207 857 1138 749T939 583L1322 0H928ZM469 806Q541 798 603 798Q734 798 798 847T862
1009Q862 1119 800 1171T613 1223Q541 1223 469 1211V806Z" />
<glyph unicode="S" glyph-name="S" horiz-adv-x="1106" d="M376 -20T270 -4T78 43V344Q167 315 271 298T471 281Q594 281 648 316T703 419Q703 455 687 480T632 526T519 569L402 604Q226 654 132 760T37 1035Q37 1181 105 1285T311 1444T651 1500Q745 1500 833
1489T990 1458V1157Q925 1177 844 1188T681 1199Q530 1199 467 1162T403 1059Q403 1025 416 1002T464 959T562 921L679 886Q874 830 971 725T1069 448Q1069 304 999 199T796 37T477 -20Q376 -20 270 -4Z" />
<glyph unicode="T" glyph-name="T" horiz-adv-x="1241" d="M437 0V1166H9V1480H1233V1166H804V0H437Z" />
<glyph unicode="U" glyph-name="U" horiz-adv-x="1420" d="M506 -20T371 47T169 253T103 611V1480H469V573Q469 420 530 352T715 284Q838 284 898 352T959 573V1480H1318V611Q1318 392 1253 253T1055 47T715 -20Q506 -20 371 47Z" />
<glyph unicode="V" glyph-name="V" horiz-adv-x="1362" d="M1018 1480H1371L957 0H405L-9 1480H370L691 283L1018 1480Z" />
<glyph unicode="W" glyph-name="W" horiz-adv-x="2162" d="M1802 1480H2146L1800 0H1327L1089 1037L835 0H362L16 1480H385L628 364L893 1480H1293L1547 349L1802 1480Z" />
<glyph unicode="X" glyph-name="X" horiz-adv-x="1337" d="M881 775L1375 0H976L666 494L356 0H-44L454 772L-3 1480H400L668 1057L936 1480H1330L881 775Z" />
<glyph unicode="Y" glyph-name="Y" horiz-adv-x="1241" d="M1295 1480L805 616V0H439V614L-63 1480H323L632 937L940 1480H1295Z" />
<glyph unicode="Z" glyph-name="Z" horiz-adv-x="1180" d="M521 314H1134V0H46V203L649 1166H56V1480H1124V1277L521 314Z" />
<glyph unicode="[" glyph-name="bracketleft" horiz-adv-x="697" d="M129 -440V1616H727V1335H489V-159H723V-440H129Z" />
<glyph unicode="\" glyph-name="backslash" horiz-adv-x="777" d="M427 -240L0 1616H350L777 -240H427Z" />
<glyph unicode="]" glyph-name="bracketright" horiz-adv-x="697" d="M-26 -440V-159H209V1335H-30V1616H569V-440H-26Z" />
<glyph unicode="^" glyph-name="asciicircum" horiz-adv-x="1232" d="M1174 740H835L616 1159L397 740H58L458 1480H774L1174 740Z" />
<glyph unicode="_" glyph-name="underscore" horiz-adv-x="1153" d="M84 -281V0H1069V-281H84Z" />
<glyph unicode="`" glyph-name="grave" d="M425 1226L158 1616H529L746 1226H425Z" />
<glyph unicode="a" glyph-name="a" horiz-adv-x="1067" d="M657 1115T765 1070T924 923T976 645V0H683L657 110H642Q602 42 535 11T381 -21Q279 -21 203 19T86 132T45 302Q45 465 152 554T493 658L626 667Q625 731 605 767T539 820T410 836Q346 836 273 826T133
796V1073Q210 1093 303 1104T479 1115Q657 1115 765 1070ZM577 235T626 279V466L535 459Q397 450 397 340Q397 289 426 262T507 235Q577 235 626 279Z" />
<glyph unicode="b" glyph-name="b" horiz-adv-x="1172" d="M408 -20T298 -4T97 44V1616H457V989H474Q513 1050 577 1082T724 1115Q834 1115 923 1056T1065 873T1118 568Q1118 278 970 129T516 -20Q408 -20 298 -4ZM615 252T661 279T730 369T754 538Q754 646 733
707T673 792T574 817Q542 817 511 808T457 781V262Q499 252 543 252Q615 252 661 279Z" />
<glyph unicode="c" glyph-name="c" horiz-adv-x="907" d="M336 -21T195 120T53 547Q53 836 205 975T639 1115Q761 1115 864 1094V806Q782 821 700 821Q556 821 491 758T426 551Q426 400 486 337T675 273Q755 273 864 304V17Q807 -2 740 -11T605 -21Q336 -21 195 120Z" />
<glyph unicode="d" glyph-name="d" horiz-adv-x="1172" d="M357 -21T262 37T110 219T53 526Q53 814 200 964T646 1115Q673 1115 715 1111V1616H1075V0H772L749 117H733Q693 52 628 16T474 -21Q357 -21 262 37ZM626 276T659 287T715 321V834Q665 842 630 842Q558
842 512 815T442 725T418 556Q418 448 438 387T496 301T590 276Q626 276 659 287Z" />
<glyph unicode="e" glyph-name="e" horiz-adv-x="1057" d="M1015 443H416Q421 372 448 332T533 275T694 257Q813 257 957 291V15Q872 -4 798 -12T645 -21Q437 -21 307 38T115 224T53 552Q53 731 111 857T281 1049T553 1115Q780 1115 897 968T1015 541V443ZM504
886T476 865T432 793T415 652H681Q680 742 666 793T623 865T550 886Q504 886 476 865Z" />
<glyph unicode="f" glyph-name="f" horiz-adv-x="775" d="M626 1349T579 1307T531 1175V1097H787V816H531V0H175V816H17V1097H175V1154Q175 1384 303 1510T677 1636Q759 1636 831 1624V1342Q781 1349 734 1349Q626 1349 579 1307Z" />
<glyph unicode="g" glyph-name="g" horiz-adv-x="1172" d="M391 -460T301 -451T132 -421V-139Q296 -181 445 -181Q586 -181 650 -126T715 57V119H698Q659 58 595 25T448 -8Q342 -8 253 50T108 229T53 528Q53 815 202 964T660 1115Q766 1115 876 1099T1075 1051V122Q1075
-82 1009 -210T811 -399T476 -460Q391 -460 301 -451ZM631 286T661 295T715 323V834Q670 843 628 843Q523 843 471 778T418 559Q418 454 438 394T498 310T598 286Q631 286 661 295Z" />
<glyph unicode="h" glyph-name="h" horiz-adv-x="1164" d="M97 1616H457V987H474Q569 1115 746 1115Q840 1115 913 1072T1030 935T1074 693V0H714V664Q714 738 685 769T601 800Q561 800 522 784T457 738V0H97V1616Z" />
<glyph unicode="i" glyph-name="i" horiz-adv-x="555" d="M97 0V1097H458V0H97ZM167 1229T113 1278T58 1419Q58 1510 112 1559T278 1609Q389 1609 443 1560T497 1419Q497 1327 443 1278T278 1229Q167 1229 113 1278Z" />
<glyph unicode="j" glyph-name="j" horiz-adv-x="555" d="M-49 -318Q33 -204 65 -93T97 178V1097H458V193Q458 -1 396 -158T186 -474L-49 -318ZM165 1230T111 1279T56 1420Q56 1511 110 1560T276 1610Q387 1610 441 1561T495 1420Q495 1328 441 1279T276 1230Q165
1230 111 1279Z" />
<glyph unicode="k" glyph-name="k" horiz-adv-x="1142" d="M793 0L536 422H457V0H97V1616H457V706H534L766 1097H1145L837 572L1181 0H793Z" />
<glyph unicode="l" glyph-name="l" horiz-adv-x="554" d="M97 0V1616H457V0H97Z" />
<glyph unicode="m" glyph-name="m" horiz-adv-x="1722" d="M1444 1115T1537 1013T1631 690V0H1271V670Q1271 741 1243 771T1164 801Q1132 801 1100 789T1042 753Q1043 738 1043 708V0H690V670Q690 741 664 771T588 801Q551 801 515 785T457 738V0H97V1097H394L420
986H435Q544 1115 722 1115Q807 1115 874 1082T983 978Q1042 1046 1120 1080T1285 1115Q1444 1115 1537 1013Z" />
<glyph unicode="n" glyph-name="n" horiz-adv-x="1164" d="M97 1097H394L420 986H435Q489 1050 563 1082T727 1115Q886 1115 980 1014T1074 693V0H714V668Q714 740 685 770T601 801Q560 801 522 785T457 738V0H97V1097Z" />
<glyph unicode="o" glyph-name="o" horiz-adv-x="1141" d="M323 -21T188 120T53 543Q53 829 186 972T570 1115Q819 1115 953 971T1087 546Q1087 264 953 122T570 -21Q323 -21 188 120ZM623 247T656 272T706 361T723 543Q723 663 706 729T655 821T570 847Q519 847
486 822T436 730T418 546Q418 427 435 362T484 272T570 247Q623 247 656 272Z" />
<glyph unicode="p" glyph-name="p" horiz-adv-x="1172" d="M97 1097H400L423 977H439Q478 1043 544 1079T698 1115Q815 1115 909 1057T1061 876T1118 568Q1118 280 971 130T526 -20Q499 -20 457 -16V-440H97V1097ZM614 252T660 279T730 369T754 538Q754 646 733
707T675 793T582 818Q547 818 514 807T457 774V260Q507 252 542 252Q614 252 660 279Z" />
<glyph unicode="q" glyph-name="q" horiz-adv-x="1172" d="M715 106H698Q659 45 595 13T448 -20Q338 -20 249 39T106 222T53 527Q53 817 202 966T659 1115Q766 1115 876 1099T1075 1051V-440H715V106ZM630 278T661 287T715 314V834Q670 843 627 843Q522 843 470
778T418 557Q418 449 439 388T499 303T598 278Q630 278 661 287Z" />
<glyph unicode="r" glyph-name="r" horiz-adv-x="798" d="M97 1097H391L419 950H435Q472 1035 541 1074T702 1114Q741 1114 787 1106V776Q745 786 678 786Q612 786 551 763T457 699V0H97V1097Z" />
<glyph unicode="s" glyph-name="s" horiz-adv-x="919" d="M223 -21T76 27V299Q228 250 401 250Q485 250 521 271T557 332Q557 360 542 375T488 399L318 434Q180 462 112 541T43 756Q43 866 99 946T269 1071T549 1115Q695 1115 825 1083V810Q707 843 564 843Q372
843 372 758Q372 733 388 719T442 696L612 661Q750 631 818 557T887 342Q887 230 830 149T664 23T408 -21Q223 -21 76 27Z" />
<glyph unicode="t" glyph-name="t" horiz-adv-x="820" d="M717 281T785 291V4Q743 -7 689 -13T583 -20Q378 -20 273 84T167 410V816H9V1097H167L233 1480H527V1097H783V816H527V459Q527 390 542 352T590 298T682 281Q717 281 785 291Z" />
<glyph unicode="u" glyph-name="u" horiz-adv-x="1156" d="M279 -19T185 81T91 400V1097H451V429Q451 357 479 326T559 295Q596 295 635 311T699 357V1097H1059V0H761L736 110H721Q607 -19 438 -19Q279 -19 185 81Z" />
<glyph unicode="v" glyph-name="v" horiz-adv-x="1114" d="M766 1097H1121L786 0H328L-6 1097H366L566 341L766 1097Z" />
<glyph unicode="w" glyph-name="w" horiz-adv-x="1727" d="M1382 1097H1704L1436 0H1046L867 737L682 0H293L23 1097H358L510 404L678 1097H1067L1226 420L1382 1097Z" />
<glyph unicode="x" glyph-name="x" horiz-adv-x="1094" d="M759 557L1119 0H727L545 297L359 0H-22L333 553L-15 1097H376L551 815L725 1097H1105L759 557Z" />
<glyph unicode="y" glyph-name="y" horiz-adv-x="1114" d="M766 1097H1121L651 -440H300L435 0H328L-6 1097H366L565 336L766 1097Z" />
<glyph unicode="z" glyph-name="z" horiz-adv-x="949" d="M475 281H911V0H54V226L480 816H64V1097H901V872L475 281Z" />
<glyph unicode="{" glyph-name="braceleft" horiz-adv-x="737" d="M529 796T485 728T343 631Q441 602 485 534T529 358V-64Q529 -121 559 -147T651 -173H767V-447Q672 -460 588 -460Q380 -460 275 -361T169 -68V376Q169 429 138 459T55 490H-3V771H55Q107 771
138 802T169 886V1244Q169 1437 274 1536T588 1636Q672 1636 767 1623V1349H651Q590 1349 560 1323T529 1240V904Q529 796 485 728Z" />
<glyph unicode="|" glyph-name="bar" horiz-adv-x="538" d="M109 -440V1616H429V-440H109Z" />
<glyph unicode="}" glyph-name="braceright" horiz-adv-x="737" d="M741 771V490H683Q630 490 600 460T569 376V-68Q569 -261 463 -360T149 -460Q65 -460 -30 -447V-173H86Q148 -173 178 -147T209 -64V358Q209 466 254 534T397 631Q299 660 254 728T209 904V1240Q209
1297 179 1323T86 1349H-30V1623Q65 1636 149 1636Q357 1636 463 1537T569 1244V886Q569 833 599 802T683 771H741Z" />
<glyph unicode="~" glyph-name="asciitilde" horiz-adv-x="1070" d="M678 564T630 580T511 628Q453 655 414 668T335 682Q266 682 210 656T96 572V854Q144 906 202 930T338 954Q392 954 441 938T558 890Q616 863 655 850T735 836Q804 836 860 862T973 946V665Q925
612 868 588T732 564Q678 564 630 580Z" />
<glyph unicode="&#xa0;" glyph-name="uni00A0" horiz-adv-x="472" />
<glyph unicode="&#xa1;" glyph-name="exclamdown" horiz-adv-x="595" d="M365 1116T417 1089T499 1011T528 895Q528 829 500 779T419 701T297 673Q192 673 130 733T67 895Q67 962 96 1012T177 1089T297 1116Q365 1116 417 1089ZM189 577H409L490 107V-380H105V107L189
577Z" />
<glyph unicode="&#xa2;" glyph-name="cent" horiz-adv-x="911" d="M555 821T491 758T426 551Q426 400 486 337T675 273Q755 273 864 304V17Q801 -4 724 -13V-240H421V-1Q240 42 147 178T53 547Q53 773 147 908T421 1090V1337H724V1112Q796 1108 864 1094V806Q782
821 700 821Q555 821 491 758Z" />
<glyph unicode="&#xa3;" glyph-name="sterling" horiz-adv-x="1278" d="M1232 302V0H62V302H238V613H62V887H238V1003Q238 1246 395 1373T869 1500Q955 1500 1039 1490T1193 1463V1162Q1128 1179 1049 1189T899 1199Q784 1199 719 1180T625 1121T597 1014V887H1016V613H597V302H1232Z"
/>
<glyph unicode="&#xa4;" glyph-name="currency" horiz-adv-x="1232" d="M1060 473L1167 369L987 189L883 296L792 401Q713 363 616 363Q519 363 440 401L349 296L245 189L65 369L172 473L276 562Q236 642 236 740Q236 838 276 918L172 1007L65 1111L244 1291L349
1184L441 1077Q520 1115 616 1115Q712 1115 791 1077L883 1184L988 1291L1167 1111L1060 1007L956 918Q996 838 996 740Q996 642 956 562L1060 473ZM455 660T500 613T616 566Q687 566 732 613T777 740Q777 816 733 865T618 914Q546 914 501 867T455 740Q455 660
500 613Z" />
<glyph unicode="&#xa5;" glyph-name="yen" horiz-adv-x="1247" d="M1299 1480L909 793H1110V578H808V470H1110V255H808V0H442V255H141V470H442V578H141V793H338L-59 1480H326L635 937L943 1480H1299Z" />
<glyph unicode="&#xa6;" glyph-name="brokenbar" horiz-adv-x="538" d="M109 836V1616H429V836H109ZM109 -440V340H429V-440H109Z" />
<glyph unicode="&#xa7;" glyph-name="section" horiz-adv-x="1049" d="M977 606T871 511Q933 444 933 334Q933 225 876 146T707 23T441 -21Q272 -21 126 18V274Q277 234 437 234Q532 234 570 255T608 316Q608 345 592 360T538 384L330 429Q73 487 73 741Q73 874
177 967Q113 1036 113 1139Q113 1307 241 1402T628 1498Q770 1498 892 1473V1217Q781 1242 654 1242Q438 1242 438 1157Q438 1131 454 1116T508 1093L720 1049Q846 1022 911 949T977 741Q977 606 871 511ZM631 621Q662 650 674 672T686 723Q686 760 665 784T594
819L403 859Q382 833 373 809T363 757Q363 718 384 694T457 658L631 621Z" />
<glyph unicode="&#xa8;" glyph-name="dieresis" d="M251 1236T201 1284T150 1419Q150 1505 200 1553T341 1601Q431 1601 482 1553T533 1419Q533 1333 482 1285T341 1236Q251 1236 201 1284ZM740 1236T690 1284T639 1419Q639 1505 689 1553T830 1601Q920 1601 971
1553T1022 1419Q1022 1333 971 1285T830 1236Q740 1236 690 1284Z" />
<glyph unicode="&#xa9;" glyph-name="copyright" horiz-adv-x="1634" d="M594 -22T424 73T161 340T68 740Q68 967 161 1139T424 1407T817 1502Q1040 1502 1210 1407T1473 1140T1566 740Q1566 513 1473 341T1210 73T817 -22Q594 -22 424 73ZM989 171T1112 240T1299
437T1364 740Q1364 915 1300 1043T1112 1240T817 1309Q645 1309 522 1240T335 1043T270 740Q270 565 334 437T522 240T817 171Q989 171 1112 240ZM749 324T650 372T498 512T444 732Q444 861 499 954T655 1095T896 1144Q1001 1144 1088 1121V895Q990 913 921 913Q715
913 715 733Q715 647 765 601T907 555Q950 555 989 561T1088 582V356Q1005 324 882 324Q749 324 650 372Z" />
<glyph unicode="&#xaa;" glyph-name="ordfeminine" horiz-adv-x="891" d="M547 1501T641 1463T781 1340T826 1111V610H552L528 697H513Q482 643 427 618T301 593Q216 593 153 626T56 719T22 854Q22 991 110 1060T398 1140L496 1146V1147Q496 1183 482 1204T430
1237T324 1248Q209 1248 96 1217V1466Q164 1483 242 1492T393 1501Q547 1501 641 1463ZM447 819T464 824T496 839V980L445 977Q394 974 370 955T346 899Q346 859 368 839T430 819Q447 819 464 824Z" />
<glyph unicode="&#xab;" glyph-name="guillemotleft" horiz-adv-x="1213" d="M295 131L71 569L295 1006H654L431 569L654 131H295ZM823 131L599 569L823 1006H1182L959 569L1182 131H823Z" />
<glyph unicode="&#xac;" glyph-name="logicalnot" horiz-adv-x="1286" d="M906 194V621H96V899H1195V194H906Z" />
<glyph unicode="&#xad;" glyph-name="uni00AD" horiz-adv-x="840" d="M96 423V714H744V423H96Z" />
<glyph unicode="&#xae;" glyph-name="registered" horiz-adv-x="1394" d="M876 1498T1014 1420T1230 1202T1307 882Q1307 702 1230 563T1015 346T697 268Q518 268 380 345T164 562T87 882Q87 1062 164 1202T379 1420T697 1498Q876 1498 1014 1420ZM834 412T937
470T1096 634T1152 882Q1152 1024 1096 1131T937 1296T697 1354Q560 1354 457 1296T298 1131T242 882Q242 741 298 635T457 470T697 412Q834 412 937 470ZM949 855T834 812L980 600H812L681 791H635L630 600H477V1192H688Q820 1192 884 1142T949 991Q949 855 834
812ZM635 914H712Q800 914 800 991Q800 1030 778 1049T712 1069H635V914Z" />
<glyph unicode="&#xaf;" glyph-name="overscore" d="M228 1308V1531H943V1308H228Z" />
<glyph unicode="&#xb0;" glyph-name="degree" horiz-adv-x="939" d="M361 746T274 795T137 930T87 1124Q87 1231 136 1317T273 1451T470 1499Q579 1499 666 1451T802 1317T852 1124Q852 1016 803 930T666 795T470 746Q361 746 274 795ZM539 956T584 1001T629 1124Q629
1200 584 1245T470 1290Q401 1290 356 1245T310 1124Q310 1047 355 1002T470 956Q539 956 584 1001Z" />
<glyph unicode="&#xb1;" glyph-name="plusminus" horiz-adv-x="1070" d="M390 382V675H96V952H390V1245H679V952H973V675H679V382H390ZM96 1V279H973V1H96Z" />
<glyph unicode="&#xb2;" glyph-name="uni00B2" horiz-adv-x="841" d="M766 98V-136H82V15L333 329Q391 402 416 453T442 546Q442 600 404 626T276 653Q225 653 170 643T69 617V842Q118 858 187 868T322 878Q519 878 621 804T723 572Q723 496 691 421T587 257L458 98H766Z" />
<glyph unicode="&#xb3;" glyph-name="uni00B3" horiz-adv-x="841" d="M661 360T709 300T758 145Q758 4 648 -73T327 -150Q196 -150 70 -119V91Q126 76 192 68T315 60Q408 60 449 85T490 165Q490 218 452 242T327 267H160V481H313Q457 481 457 575Q457 623 420
646T299 669Q245 669 186 660T82 632V842Q131 858 202 868T338 878Q530 878 629 808T728 605Q728 521 685 462T567 380Q661 360 709 300Z" />
<glyph unicode="&#xb4;" glyph-name="acute" d="M425 1226L642 1616H1013L746 1226H425Z" />
<glyph unicode="&#xb5;" glyph-name="uni00B5" horiz-adv-x="1156" d="M1059 1097V0H761L736 110H721Q641 -19 525 -19Q484 -19 451 -6V-440H91V1097H451V429Q451 357 479 326T559 295Q596 295 635 311T699 357V1097H1059Z" />
<glyph unicode="&#xb6;" glyph-name="paragraph" horiz-adv-x="1271" d="M539 410L464 409Q265 409 162 547T59 953Q59 1144 108 1264T260 1441T527 1499Q671 1499 790 1480V0H539V410ZM911 0V1480H1163V0H911Z" />
<glyph unicode="&#xb7;" glyph-name="middot" horiz-adv-x="555" d="M209 338T157 365T76 442T47 560Q47 662 109 721T277 781Q347 781 399 754T479 676T508 560Q508 494 479 444T398 366T277 338Q209 338 157 365Z" />
<glyph unicode="&#xb8;" glyph-name="cedilla" d="M761 -99T802 -144T844 -262Q844 -352 778 -402T577 -452Q482 -452 401 -424V-285Q439 -299 481 -306T558 -314Q607 -314 630 -299T654 -247Q654 -177 556 -177H511V20H683V-83Q761 -99 802 -144Z" />
<glyph unicode="&#xb9;" glyph-name="uni00B9" horiz-adv-x="841" d="M599 98H777V-136H127V98H315V553L136 441V691L420 868H599V98Z" />
<glyph unicode="&#xba;" glyph-name="ordmasculine" horiz-adv-x="951" d="M262 593T147 709T31 1045Q31 1265 146 1383T476 1501Q617 1501 717 1447T868 1291T920 1045Q920 902 869 801T718 647T476 593Q262 593 147 709ZM512 833T535 850T572 914T586 1045Q586
1130 573 1177T536 1242T476 1260Q422 1260 394 1215T365 1045Q365 961 378 915T416 851T476 833Q512 833 535 850Z" />
<glyph unicode="&#xbb;" glyph-name="guillemotright" horiz-adv-x="1213" d="M31 131L255 569L31 1006H391L614 569L391 131H31ZM559 131L783 569L559 1006H919L1142 569L919 131H559Z" />
<glyph unicode="&#xbc;" glyph-name="onequarter" horiz-adv-x="2044" d="M599 850H777V616H127V850H315V1305L136 1193V1443L420 1620H599V850ZM490 -136L1258 1616H1554L786 -136H490ZM2021 264V53H1910V-136H1664V53H1227V206L1517 864H1780L1521 264H1664L1721
526H1910V264H2021Z" />
<glyph unicode="&#xbd;" glyph-name="onehalf" horiz-adv-x="2044" d="M599 850H777V616H127V850H315V1305L136 1193V1443L420 1620H599V850ZM490 -136L1258 1616H1554L786 -136H490ZM1969 98V-136H1285V15L1536 329Q1594 402 1619 453T1645 546Q1645 600 1607
626T1479 653Q1428 653 1373 643T1272 617V842Q1321 858 1390 868T1525 878Q1722 878 1824 804T1926 572Q1926 496 1894 421T1790 257L1661 98H1969Z" />
<glyph unicode="&#xbe;" glyph-name="threequarters" horiz-adv-x="2044" d="M661 1112T709 1052T758 897Q758 756 648 679T327 602Q196 602 70 633V843Q126 828 192 820T315 812Q408 812 449 837T490 917Q490 970 452 994T327 1019H160V1233H313Q457 1233 457
1327Q457 1375 420 1398T299 1421Q245 1421 186 1412T82 1384V1594Q131 1610 202 1620T338 1630Q530 1630 629 1560T728 1357Q728 1273 685 1214T567 1132Q661 1112 709 1052ZM490 -136L1258 1616H1554L786 -136H490ZM2021 264V53H1910V-136H1664V53H1227V206L1517
864H1780L1521 264H1664L1721 526H1910V264H2021Z" />
<glyph unicode="&#xbf;" glyph-name="questiondown" horiz-adv-x="956" d="M605 1116T657 1090T738 1016T767 903Q767 805 705 747T536 689Q466 689 414 715T334 790T306 903Q306 966 335 1014T416 1089T536 1116Q605 1116 657 1090ZM708 245Q585 222 516 192T418
125T390 36Q390 -41 446 -79T625 -117Q703 -117 785 -104T936 -65V-348Q867 -371 768 -385T578 -400Q312 -400 176 -298T40 -1Q40 154 133 258T400 413L427 595H646L708 245Z" />
<glyph unicode="&#xc0;" glyph-name="Agrave" horiz-adv-x="1385" d="M1023 0L925 366H455L358 0H2L421 1480H964L1382 0H1023ZM534 666H845L689 1251L534 666ZM530 1590L306 1900H682L853 1590H530Z" />
<glyph unicode="&#xc1;" glyph-name="Aacute" horiz-adv-x="1385" d="M1023 0L925 366H455L358 0H2L421 1480H964L1382 0H1023ZM534 666H845L689 1251L534 666ZM530 1590L701 1900H1076L852 1590H530Z" />
<glyph unicode="&#xc2;" glyph-name="Acircumflex" horiz-adv-x="1385" d="M1023 0L925 366H455L358 0H2L421 1480H964L1382 0H1023ZM534 666H845L689 1251L534 666ZM1068 1590H814L692 1771L569 1590H315L540 1900H843L1068 1590Z" />
<glyph unicode="&#xc3;" glyph-name="Atilde" horiz-adv-x="1385" d="M1023 0L925 366H455L358 0H2L421 1480H964L1382 0H1023ZM534 666H845L689 1251L534 666ZM816 1600T774 1610T674 1642Q619 1661 586 1669T515 1678Q454 1678 408 1661T313 1605V1817Q354 1857
403 1875T520 1893Q568 1893 609 1882T710 1850Q762 1831 797 1822T869 1813Q929 1813 975 1830T1070 1886V1674Q1030 1635 981 1618T864 1600Q816 1600 774 1610Z" />
<glyph unicode="&#xc4;" glyph-name="Adieresis" horiz-adv-x="1385" d="M1023 0L925 366H455L358 0H2L421 1480H964L1382 0H1023ZM534 666H845L689 1251L534 666ZM344 1585T294 1628T244 1750Q244 1829 294 1872T437 1915Q530 1915 580 1872T630 1750Q630 1671
580 1628T437 1585Q344 1585 294 1628ZM853 1585T803 1628T753 1750Q753 1829 803 1872T946 1915Q1039 1915 1089 1872T1139 1750Q1139 1671 1089 1628T946 1585Q853 1585 803 1628Z" />
<glyph unicode="&#xc5;" glyph-name="Aring" horiz-adv-x="1385" d="M1023 0L925 366H455L358 0H2L421 1480H964L1382 0H1023ZM534 666H845L689 1251L534 666ZM629 1552T579 1579T499 1656T470 1768Q470 1830 499 1879T578 1955T693 1983Q756 1983 807 1956T886
1879T915 1768Q915 1706 887 1657T807 1580T693 1552Q629 1552 579 1579ZM731 1679T754 1703T777 1768Q777 1808 754 1832T693 1856Q655 1856 632 1832T608 1768Q608 1728 631 1704T693 1679Q731 1679 754 1703Z" />
<glyph unicode="&#xc6;" glyph-name="AE" horiz-adv-x="1932" d="M1270 303H1867V0H936L909 364H460L362 0H2L422 1480H1857V1177H1197L1220 907H1754V605H1245L1270 303ZM542 667H886L849 1177H679L542 667Z" />
<glyph unicode="&#xc7;" glyph-name="Ccedilla" horiz-adv-x="1174" d="M724 1194T633 1149T497 1004T451 740Q451 572 495 473T629 330T862 286Q981 286 1132 332V28Q1068 6 984 -7T817 -20H786V-82Q875 -95 921 -141T968 -261Q968 -352 898 -402T681 -452Q569
-452 484 -423V-285Q525 -299 573 -306T662 -314Q721 -314 749 -299T777 -247Q777 -177 659 -177H614V-4Q346 41 207 222T68 736Q68 1116 266 1308T836 1500Q994 1500 1132 1467V1164Q992 1194 867 1194Q724 1194 633 1149Z" />
<glyph unicode="&#xc8;" glyph-name="Egrave" horiz-adv-x="1195" d="M470 303H1131V0H109V1480H1121V1177H470V907H1017V605H470V303ZM475 1590L251 1900H627L798 1590H475Z" />
<glyph unicode="&#xc9;" glyph-name="Eacute" horiz-adv-x="1195" d="M470 303H1131V0H109V1480H1121V1177H470V907H1017V605H470V303ZM475 1590L646 1900H1021L797 1590H475Z" />
<glyph unicode="&#xca;" glyph-name="Ecircumflex" horiz-adv-x="1195" d="M470 303H1131V0H109V1480H1121V1177H470V907H1017V605H470V303ZM1013 1590H759L637 1771L514 1590H260L485 1900H788L1013 1590Z" />
<glyph unicode="&#xcb;" glyph-name="Edieresis" horiz-adv-x="1195" d="M470 303H1131V0H109V1480H1121V1177H470V907H1017V605H470V303ZM289 1585T239 1628T189 1750Q189 1829 239 1872T382 1915Q475 1915 525 1872T575 1750Q575 1671 525 1628T382 1585Q289
1585 239 1628ZM798 1585T748 1628T698 1750Q698 1829 748 1872T891 1915Q984 1915 1034 1872T1084 1750Q1084 1671 1034 1628T891 1585Q798 1585 748 1628Z" />
<glyph unicode="&#xcc;" glyph-name="Igrave" horiz-adv-x="584" d="M109 0V1480H475V0H109ZM130 1590L-94 1900H282L453 1590H130Z" />
<glyph unicode="&#xcd;" glyph-name="Iacute" horiz-adv-x="584" d="M109 0V1480H475V0H109ZM130 1590L301 1900H676L452 1590H130Z" />
<glyph unicode="&#xce;" glyph-name="Icircumflex" horiz-adv-x="584" d="M109 0V1480H475V0H109ZM668 1590H414L292 1771L169 1590H-85L140 1900H443L668 1590Z" />
<glyph unicode="&#xcf;" glyph-name="Idieresis" horiz-adv-x="584" d="M109 0V1480H475V0H109ZM-56 1585T-106 1628T-156 1750Q-156 1829 -106 1872T37 1915Q130 1915 180 1872T230 1750Q230 1671 180 1628T37 1585Q-56 1585 -106 1628ZM453 1585T403 1628T353
1750Q353 1829 403 1872T546 1915Q639 1915 689 1872T739 1750Q739 1671 689 1628T546 1585Q453 1585 403 1628Z" />
<glyph unicode="&#xd0;" glyph-name="Eth" horiz-adv-x="1421" d="M962 1498T1157 1313T1353 740Q1353 476 1260 309T980 62T506 -18Q305 -18 109 5V643H2V881H109V1448Q216 1471 333 1484T566 1498Q962 1498 1157 1313ZM731 283T812 327T935 471T977 741Q977
909 934 1009T809 1154T603 1199Q538 1199 475 1187V881H707V643H475V287Q540 283 605 283Q731 283 812 327Z" />
<glyph unicode="&#xd1;" glyph-name="Ntilde" horiz-adv-x="1465" d="M1013 1480H1356V0H990L452 897V0H109V1480H475L1013 583V1480ZM857 1600T815 1610T715 1642Q660 1661 627 1669T556 1678Q495 1678 449 1661T354 1605V1817Q395 1857 444 1875T561 1893Q609
1893 650 1882T751 1850Q803 1831 838 1822T910 1813Q970 1813 1016 1830T1111 1886V1674Q1071 1635 1022 1618T905 1600Q857 1600 815 1610Z" />
<glyph unicode="&#xd2;" glyph-name="Ograve" horiz-adv-x="1485" d="M537 -20T386 62T151 314T68 740Q68 996 151 1166T385 1418T743 1500Q949 1500 1100 1418T1334 1166T1417 740Q1417 484 1334 314T1100 62T743 -20Q537 -20 386 62ZM890 280T965 386T1041 733Q1041
982 966 1091T743 1200Q596 1200 520 1094T444 747Q444 497 519 389T743 280Q890 280 965 386ZM581 1590L357 1900H733L904 1590H581Z" />
<glyph unicode="&#xd3;" glyph-name="Oacute" horiz-adv-x="1485" d="M537 -20T386 62T151 314T68 740Q68 996 151 1166T385 1418T743 1500Q949 1500 1100 1418T1334 1166T1417 740Q1417 484 1334 314T1100 62T743 -20Q537 -20 386 62ZM890 280T965 386T1041 733Q1041
982 966 1091T743 1200Q596 1200 520 1094T444 747Q444 497 519 389T743 280Q890 280 965 386ZM581 1590L752 1900H1127L903 1590H581Z" />
<glyph unicode="&#xd4;" glyph-name="Ocircumflex" horiz-adv-x="1485" d="M537 -20T386 62T151 314T68 740Q68 996 151 1166T385 1418T743 1500Q949 1500 1100 1418T1334 1166T1417 740Q1417 484 1334 314T1100 62T743 -20Q537 -20 386 62ZM890 280T965 386T1041
733Q1041 982 966 1091T743 1200Q596 1200 520 1094T444 747Q444 497 519 389T743 280Q890 280 965 386ZM1119 1590H865L743 1771L620 1590H366L591 1900H894L1119 1590Z" />
<glyph unicode="&#xd5;" glyph-name="Otilde" horiz-adv-x="1485" d="M537 -20T386 62T151 314T68 740Q68 996 151 1166T385 1418T743 1500Q949 1500 1100 1418T1334 1166T1417 740Q1417 484 1334 314T1100 62T743 -20Q537 -20 386 62ZM890 280T965 386T1041 733Q1041
982 966 1091T743 1200Q596 1200 520 1094T444 747Q444 497 519 389T743 280Q890 280 965 386ZM867 1600T825 1610T725 1642Q670 1661 637 1669T566 1678Q505 1678 459 1661T364 1605V1817Q405 1857 454 1875T571 1893Q619 1893 660 1882T761 1850Q813 1831 848
1822T920 1813Q980 1813 1026 1830T1121 1886V1674Q1081 1635 1032 1618T915 1600Q867 1600 825 1610Z" />
<glyph unicode="&#xd6;" glyph-name="Odieresis" horiz-adv-x="1485" d="M537 -20T386 62T151 314T68 740Q68 996 151 1166T385 1418T743 1500Q949 1500 1100 1418T1334 1166T1417 740Q1417 484 1334 314T1100 62T743 -20Q537 -20 386 62ZM890 280T965 386T1041
733Q1041 982 966 1091T743 1200Q596 1200 520 1094T444 747Q444 497 519 389T743 280Q890 280 965 386ZM395 1585T345 1628T295 1750Q295 1829 345 1872T488 1915Q581 1915 631 1872T681 1750Q681 1671 631 1628T488 1585Q395 1585 345 1628ZM904 1585T854 1628T804
1750Q804 1829 854 1872T997 1915Q1090 1915 1140 1872T1190 1750Q1190 1671 1140 1628T997 1585Q904 1585 854 1628Z" />
<glyph unicode="&#xd7;" glyph-name="multiply" horiz-adv-x="1027" d="M267 318L71 513L318 760L71 1007L267 1202L513 956L760 1202L956 1007L709 760L956 513L760 318L513 564L267 318Z" />
<glyph unicode="&#xd8;" glyph-name="Oslash" horiz-adv-x="1485" d="M1417 1093T1417 740Q1417 484 1334 314T1100 62T743 -20Q526 -20 375 68L286 -56L132 56L229 191Q68 385 68 740Q68 996 151 1166T385 1418T743 1500Q957 1500 1111 1412L1200 1536L1355 1424L1257
1288Q1417 1093 1417 740ZM444 616T466 519L918 1145Q850 1200 743 1200Q596 1200 520 1094T444 747Q444 616 466 519ZM890 280T965 386T1041 733Q1041 862 1019 959L568 334Q633 280 743 280Q890 280 965 386Z" />
<glyph unicode="&#xd9;" glyph-name="Ugrave" horiz-adv-x="1420" d="M506 -20T371 47T169 253T103 611V1480H469V573Q469 420 530 352T715 284Q838 284 898 352T959 573V1480H1318V611Q1318 392 1253 253T1055 47T715 -20Q506 -20 371 47ZM553 1590L329 1900H705L876
1590H553Z" />
<glyph unicode="&#xda;" glyph-name="Uacute" horiz-adv-x="1420" d="M506 -20T371 47T169 253T103 611V1480H469V573Q469 420 530 352T715 284Q838 284 898 352T959 573V1480H1318V611Q1318 392 1253 253T1055 47T715 -20Q506 -20 371 47ZM553 1590L724 1900H1099L875
1590H553Z" />
<glyph unicode="&#xdb;" glyph-name="Ucircumflex" horiz-adv-x="1420" d="M506 -20T371 47T169 253T103 611V1480H469V573Q469 420 530 352T715 284Q838 284 898 352T959 573V1480H1318V611Q1318 392 1253 253T1055 47T715 -20Q506 -20 371 47ZM1091 1590H837L715
1771L592 1590H338L563 1900H866L1091 1590Z" />
<glyph unicode="&#xdc;" glyph-name="Udieresis" horiz-adv-x="1420" d="M506 -20T371 47T169 253T103 611V1480H469V573Q469 420 530 352T715 284Q838 284 898 352T959 573V1480H1318V611Q1318 392 1253 253T1055 47T715 -20Q506 -20 371 47ZM367 1585T317 1628T267
1750Q267 1829 317 1872T460 1915Q553 1915 603 1872T653 1750Q653 1671 603 1628T460 1585Q367 1585 317 1628ZM876 1585T826 1628T776 1750Q776 1829 826 1872T969 1915Q1062 1915 1112 1872T1162 1750Q1162 1671 1112 1628T969 1585Q876 1585 826 1628Z" />
<glyph unicode="&#xdd;" glyph-name="Yacute" horiz-adv-x="1241" d="M1295 1480L805 616V0H439V614L-63 1480H323L632 937L940 1480H1295ZM460 1590L631 1900H1006L782 1590H460Z" />
<glyph unicode="&#xde;" glyph-name="Thorn" horiz-adv-x="1281" d="M109 1480H475V1301Q538 1306 562 1306Q889 1306 1051 1173T1213 760Q1213 491 1055 353T595 215Q567 215 521 217Q491 219 475 219V0H109V1480ZM731 500T794 560T857 757Q857 895 793 958T592
1022Q526 1022 475 1012V507Q530 500 595 500Q731 500 794 560Z" />
<glyph unicode="&#xdf;" glyph-name="germandbls" horiz-adv-x="1509" d="M1339 631T1407 557T1476 342Q1476 230 1418 148T1249 23T981 -21Q902 -21 820 -12T666 18V291Q736 272 818 261T977 250Q1071 250 1109 271T1147 332Q1147 360 1132 375T1078 399L908
434Q770 462 701 541T632 755Q632 916 750 1007T1096 1104V1122Q1096 1259 1027 1321T836 1383Q681 1383 608 1298T535 1033V0H175V814H17V1097H177Q190 1265 269 1386T486 1571T810 1636Q1059 1636 1205 1507T1351 1107Q1351 977 1312 835Q1256 843 1170 843Q1052
843 1007 820T962 758Q962 733 978 719T1031 696L1202 661Q1339 631 1407 557Z" />
<glyph unicode="&#xe0;" glyph-name="agrave" horiz-adv-x="1067" d="M657 1115T765 1070T924 923T976 645V0H683L657 110H642Q602 42 535 11T381 -21Q279 -21 203 19T86 132T45 302Q45 465 152 554T493 658L626 667Q625 731 605 767T539 820T410 836Q346 836
273 826T133 796V1073Q210 1093 303 1104T479 1115Q657 1115 765 1070ZM577 235T626 279V466L535 459Q397 450 397 340Q397 289 426 262T507 235Q577 235 626 279ZM370 1226L103 1616H474L691 1226H370Z" />
<glyph unicode="&#xe1;" glyph-name="aacute" horiz-adv-x="1067" d="M657 1115T765 1070T924 923T976 645V0H683L657 110H642Q602 42 535 11T381 -21Q279 -21 203 19T86 132T45 302Q45 465 152 554T493 658L626 667Q625 731 605 767T539 820T410 836Q346 836
273 826T133 796V1073Q210 1093 303 1104T479 1115Q657 1115 765 1070ZM577 235T626 279V466L535 459Q397 450 397 340Q397 289 426 262T507 235Q577 235 626 279ZM370 1226L587 1616H958L691 1226H370Z" />
<glyph unicode="&#xe2;" glyph-name="acircumflex" horiz-adv-x="1067" d="M657 1115T765 1070T924 923T976 645V0H683L657 110H642Q602 42 535 11T381 -21Q279 -21 203 19T86 132T45 302Q45 465 152 554T493 658L626 667Q625 731 605 767T539 820T410 836Q346
836 273 826T133 796V1073Q210 1093 303 1104T479 1115Q657 1115 765 1070ZM577 235T626 279V466L535 459Q397 450 397 340Q397 289 426 262T507 235Q577 235 626 279ZM893 1226H646L531 1453L416 1226H169L382 1616H680L893 1226Z" />
<glyph unicode="&#xe3;" glyph-name="atilde" horiz-adv-x="1067" d="M657 1115T765 1070T924 923T976 645V0H683L657 110H642Q602 42 535 11T381 -21Q279 -21 203 19T86 132T45 302Q45 465 152 554T493 658L626 667Q625 731 605 767T539 820T410 836Q346 836
273 826T133 796V1073Q210 1093 303 1104T479 1115Q657 1115 765 1070ZM577 235T626 279V466L535 459Q397 450 397 340Q397 289 426 262T507 235Q577 235 626 279ZM646 1265T608 1277T513 1315Q467 1337 434 1348T367 1359Q311 1359 266 1338T173 1271V1500Q213
1542 261 1561T372 1580Q416 1580 455 1567T549 1529Q597 1507 629 1497T694 1486Q750 1486 795 1507T888 1574V1345Q849 1303 801 1284T689 1265Q646 1265 608 1277Z" />
<glyph unicode="&#xe4;" glyph-name="adieresis" horiz-adv-x="1067" d="M657 1115T765 1070T924 923T976 645V0H683L657 110H642Q602 42 535 11T381 -21Q279 -21 203 19T86 132T45 302Q45 465 152 554T493 658L626 667Q625 731 605 767T539 820T410 836Q346 836
273 826T133 796V1073Q210 1093 303 1104T479 1115Q657 1115 765 1070ZM577 235T626 279V466L535 459Q397 450 397 340Q397 289 426 262T507 235Q577 235 626 279ZM196 1236T146 1284T95 1419Q95 1505 145 1553T286 1601Q376 1601 427 1553T478 1419Q478 1333 427
1285T286 1236Q196 1236 146 1284ZM685 1236T635 1284T584 1419Q584 1505 634 1553T775 1601Q865 1601 916 1553T967 1419Q967 1333 916 1285T775 1236Q685 1236 635 1284Z" />
<glyph unicode="&#xe5;" glyph-name="aring" horiz-adv-x="1067" d="M657 1115T765 1070T924 923T976 645V0H683L657 110H642Q602 42 535 11T381 -21Q279 -21 203 19T86 132T45 302Q45 465 152 554T493 658L626 667Q625 731 605 767T539 820T410 836Q346 836 273
826T133 796V1073Q210 1093 303 1104T479 1115Q657 1115 765 1070ZM577 235T626 279V466L535 459Q397 450 397 340Q397 289 426 262T507 235Q577 235 626 279ZM467 1220T417 1247T337 1324T308 1435Q308 1497 337 1546T416 1623T531 1651Q594 1651 645 1623T724
1546T753 1435Q753 1373 725 1324T645 1248T531 1220Q467 1220 417 1247ZM569 1347T592 1371T615 1435Q615 1475 592 1499T531 1524Q493 1524 470 1500T446 1435Q446 1395 469 1371T531 1347Q569 1347 592 1371Z" />
<glyph unicode="&#xe6;" glyph-name="ae" horiz-adv-x="1611" d="M1568 443H977Q982 372 1008 332T1092 275T1248 257Q1365 257 1511 291V15Q1348 -21 1202 -21Q1042 -21 932 15T752 129Q685 48 601 14T416 -21Q297 -21 214 18T88 131T45 306Q45 467 156 559T499
652H632V661Q632 727 609 765T538 819T408 836Q346 836 273 826T134 796V1073Q298 1115 463 1115Q592 1115 680 1085T823 991Q879 1051 955 1083T1127 1115Q1265 1115 1364 1050T1515 857T1568 541V443ZM1063 886T1035 865T992 793T976 652H1234Q1233 742 1219
793T1177 865T1107 886Q1063 886 1035 865ZM555 237T591 251T662 301Q642 371 636 453H539Q466 453 432 422T397 337Q397 288 426 263T512 237Q555 237 591 251Z" />
<glyph unicode="&#xe7;" glyph-name="ccedilla" horiz-adv-x="907" d="M556 821T491 758T426 551Q426 400 486 337T675 273Q755 273 864 304V17Q752 -19 615 -21V-83Q693 -99 734 -144T776 -262Q776 -352 710 -402T509 -452Q414 -452 333 -424V-285Q371 -299 413
-306T490 -314Q539 -314 562 -299T586 -247Q586 -177 488 -177H443V-6Q252 32 153 170T53 547Q53 836 205 975T639 1115Q761 1115 864 1094V806Q782 821 700 821Q556 821 491 758Z" />
<glyph unicode="&#xe8;" glyph-name="egrave" horiz-adv-x="1057" d="M1015 443H416Q421 372 448 332T533 275T694 257Q813 257 957 291V15Q872 -4 798 -12T645 -21Q437 -21 307 38T115 224T53 552Q53 731 111 857T281 1049T553 1115Q780 1115 897 968T1015 541V443ZM504
886T476 865T432 793T415 652H681Q680 742 666 793T623 865T550 886Q504 886 476 865ZM384 1226L117 1616H488L705 1226H384Z" />
<glyph unicode="&#xe9;" glyph-name="eacute" horiz-adv-x="1057" d="M1015 443H416Q421 372 448 332T533 275T694 257Q813 257 957 291V15Q872 -4 798 -12T645 -21Q437 -21 307 38T115 224T53 552Q53 731 111 857T281 1049T553 1115Q780 1115 897 968T1015 541V443ZM504
886T476 865T432 793T415 652H681Q680 742 666 793T623 865T550 886Q504 886 476 865ZM384 1226L601 1616H972L705 1226H384Z" />
<glyph unicode="&#xea;" glyph-name="ecircumflex" horiz-adv-x="1057" d="M1015 443H416Q421 372 448 332T533 275T694 257Q813 257 957 291V15Q872 -4 798 -12T645 -21Q437 -21 307 38T115 224T53 552Q53 731 111 857T281 1049T553 1115Q780 1115 897 968T1015
541V443ZM504 886T476 865T432 793T415 652H681Q680 742 666 793T623 865T550 886Q504 886 476 865ZM907 1226H660L545 1453L430 1226H183L396 1616H694L907 1226Z" />
<glyph unicode="&#xeb;" glyph-name="edieresis" horiz-adv-x="1057" d="M1015 443H416Q421 372 448 332T533 275T694 257Q813 257 957 291V15Q872 -4 798 -12T645 -21Q437 -21 307 38T115 224T53 552Q53 731 111 857T281 1049T553 1115Q780 1115 897 968T1015
541V443ZM504 886T476 865T432 793T415 652H681Q680 742 666 793T623 865T550 886Q504 886 476 865ZM210 1236T160 1284T109 1419Q109 1505 159 1553T300 1601Q390 1601 441 1553T492 1419Q492 1333 441 1285T300 1236Q210 1236 160 1284ZM699 1236T649 1284T598
1419Q598 1505 648 1553T789 1601Q879 1601 930 1553T981 1419Q981 1333 930 1285T789 1236Q699 1236 649 1284Z" />
<glyph unicode="&#xec;" glyph-name="igrave" horiz-adv-x="555" d="M97 0V1097H458V0H97ZM116 1226L-151 1616H220L437 1226H116Z" />
<glyph unicode="&#xed;" glyph-name="iacute" horiz-adv-x="555" d="M97 0V1097H458V0H97ZM116 1226L333 1616H704L437 1226H116Z" />
<glyph unicode="&#xee;" glyph-name="icircumflex" horiz-adv-x="555" d="M97 0V1097H458V0H97ZM639 1226H392L277 1453L162 1226H-85L128 1616H426L639 1226Z" />
<glyph unicode="&#xef;" glyph-name="idieresis" horiz-adv-x="555" d="M97 0V1097H458V0H97ZM-58 1236T-108 1284T-159 1419Q-159 1505 -109 1553T32 1601Q122 1601 173 1553T224 1419Q224 1333 173 1285T32 1236Q-58 1236 -108 1284ZM431 1236T381 1284T330
1419Q330 1505 380 1553T521 1601Q611 1601 662 1553T713 1419Q713 1333 662 1285T521 1236Q431 1236 381 1284Z" />
<glyph unicode="&#xf0;" glyph-name="eth" horiz-adv-x="1141" d="M973 1155T1031 973T1088 614Q1088 284 956 130T571 -24Q322 -24 188 118T53 543Q53 733 113 859T283 1047T540 1108Q595 1108 647 1090Q603 1179 552 1251L170 1174L129 1365L413 1422Q317 1526
204 1616H608Q679 1559 741 1488L1018 1544L1059 1353L871 1315Q973 1155 1031 973ZM623 244T656 269T706 359T723 539Q723 658 706 725T655 818T570 844Q518 844 486 818T436 726T418 542Q418 424 435 359T484 269T571 244Q623 244 656 269Z" />
<glyph unicode="&#xf1;" glyph-name="ntilde" horiz-adv-x="1164" d="M97 1097H394L420 986H435Q489 1050 563 1082T727 1115Q886 1115 980 1014T1074 693V0H714V668Q714 740 685 770T601 801Q560 801 522 785T457 738V0H97V1097ZM701 1265T663 1277T568 1315Q522
1337 489 1348T422 1359Q366 1359 321 1338T228 1271V1500Q268 1542 316 1561T427 1580Q471 1580 510 1567T604 1529Q652 1507 684 1497T749 1486Q805 1486 850 1507T943 1574V1345Q904 1303 856 1284T744 1265Q701 1265 663 1277Z" />
<glyph unicode="&#xf2;" glyph-name="ograve" horiz-adv-x="1141" d="M323 -21T188 120T53 543Q53 829 186 972T570 1115Q819 1115 953 971T1087 546Q1087 264 953 122T570 -21Q323 -21 188 120ZM623 247T656 272T706 361T723 543Q723 663 706 729T655 821T570
847Q519 847 486 822T436 730T418 546Q418 427 435 362T484 272T570 247Q623 247 656 272ZM409 1226L142 1616H513L730 1226H409Z" />
<glyph unicode="&#xf3;" glyph-name="oacute" horiz-adv-x="1141" d="M323 -21T188 120T53 543Q53 829 186 972T570 1115Q819 1115 953 971T1087 546Q1087 264 953 122T570 -21Q323 -21 188 120ZM623 247T656 272T706 361T723 543Q723 663 706 729T655 821T570
847Q519 847 486 822T436 730T418 546Q418 427 435 362T484 272T570 247Q623 247 656 272ZM409 1226L626 1616H997L730 1226H409Z" />
<glyph unicode="&#xf4;" glyph-name="ocircumflex" horiz-adv-x="1141" d="M323 -21T188 120T53 543Q53 829 186 972T570 1115Q819 1115 953 971T1087 546Q1087 264 953 122T570 -21Q323 -21 188 120ZM623 247T656 272T706 361T723 543Q723 663 706 729T655 821T570
847Q519 847 486 822T436 730T418 546Q418 427 435 362T484 272T570 247Q623 247 656 272ZM932 1226H685L570 1453L455 1226H208L421 1616H719L932 1226Z" />
<glyph unicode="&#xf5;" glyph-name="otilde" horiz-adv-x="1141" d="M323 -21T188 120T53 543Q53 829 186 972T570 1115Q819 1115 953 971T1087 546Q1087 264 953 122T570 -21Q323 -21 188 120ZM623 247T656 272T706 361T723 543Q723 663 706 729T655 821T570
847Q519 847 486 822T436 730T418 546Q418 427 435 362T484 272T570 247Q623 247 656 272ZM685 1265T647 1277T552 1315Q506 1337 473 1348T406 1359Q350 1359 305 1338T212 1271V1500Q252 1542 300 1561T411 1580Q455 1580 494 1567T588 1529Q636 1507 668 1497T733
1486Q789 1486 834 1507T927 1574V1345Q888 1303 840 1284T728 1265Q685 1265 647 1277Z" />
<glyph unicode="&#xf6;" glyph-name="odieresis" horiz-adv-x="1141" d="M323 -21T188 120T53 543Q53 829 186 972T570 1115Q819 1115 953 971T1087 546Q1087 264 953 122T570 -21Q323 -21 188 120ZM623 247T656 272T706 361T723 543Q723 663 706 729T655 821T570
847Q519 847 486 822T436 730T418 546Q418 427 435 362T484 272T570 247Q623 247 656 272ZM235 1236T185 1284T134 1419Q134 1505 184 1553T325 1601Q415 1601 466 1553T517 1419Q517 1333 466 1285T325 1236Q235 1236 185 1284ZM724 1236T674 1284T623 1419Q623
1505 673 1553T814 1601Q904 1601 955 1553T1006 1419Q1006 1333 955 1285T814 1236Q724 1236 674 1284Z" />
<glyph unicode="&#xf7;" glyph-name="divide" horiz-adv-x="1070" d="M442 968T386 1021T329 1166Q329 1257 384 1310T535 1363Q629 1363 685 1310T741 1166Q741 1107 715 1062T643 993T535 968Q442 968 386 1021ZM96 621V899H973V621H96ZM442 157T386 210T329
354Q329 446 384 499T535 552Q629 552 685 498T741 354Q741 295 715 251T643 182T535 157Q442 157 386 210Z" />
<glyph unicode="&#xf8;" glyph-name="oslash" horiz-adv-x="1141" d="M1087 815T1087 546Q1087 264 953 122T570 -21Q426 -21 319 27L257 -61L106 46L171 140Q53 284 53 543Q53 829 186 972T570 1115Q710 1115 813 1070L876 1159L1027 1052L963 960Q1087 815 1087
546ZM514 853T478 827T423 733T403 546Q403 485 407 445L667 823Q632 853 570 853Q514 853 478 827ZM628 241T664 267T719 358T738 543Q738 610 732 661L466 276Q502 241 570 241Q628 241 664 267Z" />
<glyph unicode="&#xf9;" glyph-name="ugrave" horiz-adv-x="1156" d="M279 -19T185 81T91 400V1097H451V429Q451 357 479 326T559 295Q596 295 635 311T699 357V1097H1059V0H761L736 110H721Q607 -19 438 -19Q279 -19 185 81ZM415 1226L148 1616H519L736 1226H415Z" />
<glyph unicode="&#xfa;" glyph-name="uacute" horiz-adv-x="1156" d="M279 -19T185 81T91 400V1097H451V429Q451 357 479 326T559 295Q596 295 635 311T699 357V1097H1059V0H761L736 110H721Q607 -19 438 -19Q279 -19 185 81ZM415 1226L632 1616H1003L736 1226H415Z" />
<glyph unicode="&#xfb;" glyph-name="ucircumflex" horiz-adv-x="1156" d="M279 -19T185 81T91 400V1097H451V429Q451 357 479 326T559 295Q596 295 635 311T699 357V1097H1059V0H761L736 110H721Q607 -19 438 -19Q279 -19 185 81ZM938 1226H691L576 1453L461
1226H214L427 1616H725L938 1226Z" />
<glyph unicode="&#xfc;" glyph-name="udieresis" horiz-adv-x="1156" d="M279 -19T185 81T91 400V1097H451V429Q451 357 479 326T559 295Q596 295 635 311T699 357V1097H1059V0H761L736 110H721Q607 -19 438 -19Q279 -19 185 81ZM241 1236T191 1284T140 1419Q140
1505 190 1553T331 1601Q421 1601 472 1553T523 1419Q523 1333 472 1285T331 1236Q241 1236 191 1284ZM730 1236T680 1284T629 1419Q629 1505 679 1553T820 1601Q910 1601 961 1553T1012 1419Q1012 1333 961 1285T820 1236Q730 1236 680 1284Z" />
<glyph unicode="&#xfd;" glyph-name="yacute" horiz-adv-x="1114" d="M766 1097H1121L651 -440H300L435 0H328L-6 1097H366L565 336L766 1097ZM396 1226L613 1616H984L717 1226H396Z" />
<glyph unicode="&#xfe;" glyph-name="thorn" horiz-adv-x="1172" d="M97 1616H457V988H474Q513 1049 577 1082T724 1115Q834 1115 923 1056T1065 873T1118 568Q1118 280 971 130T526 -20Q499 -20 457 -16V-440H97V1616ZM614 252T660 279T730 369T754 538Q754 646
733 707T673 792T574 817Q541 817 510 807T457 778V260Q507 252 542 252Q614 252 660 279Z" />
<glyph unicode="&#xff;" glyph-name="ydieresis" horiz-adv-x="1114" d="M766 1097H1121L651 -440H300L435 0H328L-6 1097H366L565 336L766 1097ZM222 1236T172 1284T121 1419Q121 1505 171 1553T312 1601Q402 1601 453 1553T504 1419Q504 1333 453 1285T312 1236Q222
1236 172 1284ZM711 1236T661 1284T610 1419Q610 1505 660 1553T801 1601Q891 1601 942 1553T993 1419Q993 1333 942 1285T801 1236Q711 1236 661 1284Z" />
<glyph unicode="&#x2013;" glyph-name="endash" horiz-adv-x="850" d="M0 446V692H850V446H0Z" />
<glyph unicode="&#x2014;" glyph-name="emdash" horiz-adv-x="1700" d="M0 446V692H1700V446H0Z" />
<glyph unicode="&#x2018;" glyph-name="quoteleft" horiz-adv-x="555" d="M404 1268T456 1210T508 1061Q508 992 481 942T406 866T296 839Q47 839 47 1127Q47 1252 93 1382T218 1616H424Q377 1515 351 1436T317 1279Q404 1268 456 1210Z" />
<glyph unicode="&#x2019;" glyph-name="quoteright" horiz-adv-x="555" d="M387 1635T447 1563T507 1347Q507 1222 461 1092T336 858H130Q177 960 203 1039T238 1194Q152 1205 100 1263T47 1413Q47 1518 108 1576T272 1635Q387 1635 447 1563Z" />
<glyph unicode="&#x201a;" glyph-name="quotesinglbase" horiz-adv-x="555" d="M387 425T447 353T507 137Q507 12 461 -118T336 -352H130Q177 -250 203 -171T238 -16Q152 -5 100 53T47 203Q47 308 108 366T272 425Q387 425 447 353Z" />
<glyph unicode="&#x201c;" glyph-name="quotedblleft" horiz-adv-x="1068" d="M404 1268T456 1210T508 1061Q508 992 481 942T406 866T296 839Q47 839 47 1127Q47 1252 93 1382T218 1616H424Q377 1515 351 1436T317 1279Q404 1268 456 1210ZM918 1268T970 1210T1022
1061Q1022 992 995 942T920 866T810 839Q561 839 561 1127Q561 1252 607 1382T732 1616H938Q891 1515 865 1436T831 1279Q918 1268 970 1210Z" />
<glyph unicode="&#x201d;" glyph-name="quotedblright" horiz-adv-x="1068" d="M387 1635T447 1563T507 1347Q507 1222 461 1092T336 858H130Q177 960 203 1039T238 1194Q152 1205 100 1263T47 1413Q47 1518 108 1576T272 1635Q387 1635 447 1563ZM901 1635T961
1563T1021 1347Q1021 1222 975 1092T850 858H644Q691 960 717 1039T752 1194Q666 1205 614 1263T561 1413Q561 1518 622 1576T786 1635Q901 1635 961 1563Z" />
<glyph unicode="&#x201e;" glyph-name="quotedblbase" horiz-adv-x="1068" d="M387 425T447 353T507 137Q507 12 461 -118T336 -352H130Q177 -250 203 -171T238 -16Q152 -5 100 53T47 203Q47 308 108 366T272 425Q387 425 447 353ZM901 425T961 353T1021 137Q1021
12 975 -118T850 -352H644Q691 -250 717 -171T752 -16Q666 -5 614 53T561 203Q561 308 622 366T786 425Q901 425 961 353Z" />
<glyph unicode="&#x2022;" glyph-name="bullet" horiz-adv-x="758" d="M287 227T211 270T91 390T47 560Q47 655 91 731T211 850T379 893Q472 893 548 850T668 731T712 560Q712 466 668 390T548 270T379 227Q287 227 211 270Z" />
<glyph unicode="&#x2039;" glyph-name="guilsinglleft" horiz-adv-x="685" d="M295 131L71 569L295 1006H654L431 569L654 131H295Z" />
<glyph unicode="&#x203a;" glyph-name="guilsinglright" horiz-adv-x="685" d="M31 131L255 569L31 1006H391L614 569L391 131H31Z" />
</font>
</defs>
</svg>
