<?xml version="1.0" standalone="no"?>
<!DOCTYPE svg PUBLIC "-//W3C//DTD SVG 1.1//EN" "http://www.w3.org/Graphics/SVG/1.1/DTD/svg11.dtd">
<svg xmlns="http://www.w3.org/2000/svg">
<defs >
<font id="Arapey" horiz-adv-x="391" ><font-face
    font-family="Arapey"
    units-per-em="1000"
    panose-1="2 0 0 0 0 0 0 0 0 0"
    ascent="868"
    descent="-228"
    alphabetic="0" />
<glyph unicode=" " glyph-name="space" horiz-adv-x="250" />
<glyph unicode="!" glyph-name="exclam" horiz-adv-x="260" d="M130 170H106Q149 465 165 583Q169 610 185 626T223 642Q257 642 257 605Q257 584 235 514T180 341T130 170ZM45 16T45 36T59 70T93 84T126 70T141 36T127 2T93 -12T60 2Z" />
<glyph unicode="&quot;" glyph-name="quotedbl" horiz-adv-x="214" d="M92 444H75L82 618Q83 642 97 655T132 668Q165 668 165 633Q165 623 157 603T141 565Q120 514 92 444ZM216 444H199L206 618Q207 642 221 655T256 668Q289 668 289 633Q289 623 281 603T265
565Q244 514 216 444Z" />
<glyph unicode="#" glyph-name="numbersign" horiz-adv-x="463" d="M14 -101H-19L206 667H239L14 -101ZM437 233L427 202H-48L-38 233H437ZM219 -101H186L411 667H444L219 -101ZM486 400L476 369H1L11 400H486Z" />
<glyph unicode="$" glyph-name="dollar" horiz-adv-x="440" d="M155 -12Q90 -12 53 17T16 90Q16 120 30 144T68 168T106 152Q77 115 77 82T100 31T160 12Q220 12 263 53T307 147T250 230L160 278Q94 312 94 384T149 518T294 579Q357 579 388 552T419 488T406 425T367
399T329 414Q355 457 355 486T338 533T288 551Q229 551 194 510T158 417T212 338L304 290Q382 249 382 172T314 42T155 -12ZM159 -101H129L292 667H322L159 -101Z" />
<glyph unicode="%" glyph-name="percent" horiz-adv-x="879" d="M141 205T116 236T90 322T108 433T168 534T261 579T336 548T362 463T344 353T284 251T191 205ZM262 560Q220 560 183 475T146 308T191 225Q219 225 246 267T290 367T307 470Q307 560 262 560ZM568
-8T543 23T517 109T535 220T595 321T688 366T763 335T789 250T771 140T711 38T618 -8ZM689 347Q647 347 610 262T573 95T618 12Q646 12 673 54T717 154T734 257Q734 347 689 347ZM330 -74H299L548 648H580L330 -74Z" />
<glyph unicode="&amp;" glyph-name="ampersand" horiz-adv-x="574" d="M334 -45Q334 -17 356 86H351Q284 -12 177 -12Q100 -12 60 21T20 107Q20 174 80 236T243 319Q127 343 127 447Q127 510 184 565T324 620Q388 620 417 589T447 519T432 454T391 428T350 444Q381
487 381 528Q381 590 318 590Q265 590 230 546T195 450T228 365T322 331T429 364T501 463L516 452Q513 440 481 331H574L569 311H476Q392 14 392 -60Q392 -95 419 -95Q440 -95 463 -68T503 9L521 5Q474 -125 401 -125Q334 -125 334 -45ZM182 14Q244 14 302 65T387
222L410 311H322Q214 311 152 243T89 99Q89 62 113 38T182 14Z" />
<glyph unicode="&apos;" glyph-name="quotesingle" horiz-adv-x="90" d="M92 444H75L82 618Q83 642 97 655T132 668Q165 668 165 633Q165 623 157 603T141 565Q120 514 92 444Z" />
<glyph unicode="(" glyph-name="parenleft" horiz-adv-x="273" d="M335 620Q231 543 173 405T115 119T183 -98L169 -113Q106 -74 74 -3T41 155Q41 298 119 434T328 635L335 620Z" />
<glyph unicode=")" glyph-name="parenright" horiz-adv-x="273" d="M-46 -98Q54 -22 113 119T172 404T105 620L117 635Q182 596 214 526T246 367Q246 224 168 87T-42 -113L-46 -98Z" />
<glyph unicode="*" glyph-name="asterisk" horiz-adv-x="398" d="M250 499L246 599Q246 628 259 644T292 660Q319 660 319 632Q319 624 317 616T296 566T266 499Q289 512 320 531Q379 567 393 567T415 559T423 536T418 512T397 498T367 492T321 488T266 483Q281
465 303 444T334 410T344 384T330 355T300 341T277 353T264 406T252 474Q222 425 209 401T186 364Q169 341 153 341T128 350T120 371T130 396T153 418T193 447T242 483Q220 486 195 487T156 490T129 494Q105 498 105 518T118 552T145 567T172 559T208 531T250 499Z"
/>
<glyph unicode="+" glyph-name="plus" horiz-adv-x="505" d="M332 392L296 223H458L447 170H285L249 0H199L235 170H74L85 223H246L282 392H332Z" />
<glyph unicode="," glyph-name="comma" horiz-adv-x="182" d="M5 -111Q70 -61 70 -6Q70 24 49 43Q54 66 72 83T112 100Q153 100 153 59T113 -38T13 -125L5 -111Z" />
<glyph unicode="-" glyph-name="hyphen" horiz-adv-x="279" d="M30 211L39 251H279L270 211H30Z" />
<glyph unicode="." glyph-name="period" horiz-adv-x="192" d="M43 19T43 41T58 78T96 94T133 79T149 41T134 4T96 -12T59 3Z" />
<glyph unicode="/" glyph-name="slash" horiz-adv-x="319" d="M51 -74H18L267 648H301L51 -74Z" />
<glyph unicode="0" glyph-name="zero" horiz-adv-x="499" d="M60 174Q60 293 126 430Q158 494 212 536T333 579T439 530T479 390Q479 292 436 186Q385 65 305 16Q259 -12 199 -12T99 36T60 174ZM327 557Q280 557 234 491T159 330T131 161T152 47T210 9Q257 9 304
74T380 233T409 402T387 518T327 557Z" />
<glyph unicode="1" glyph-name="one" horiz-adv-x="307" d="M178 491L179 500Q179 516 155 516L48 510L51 534L141 547Q226 560 277 579Q259 541 243 465L145 0H74L178 491ZM152 33L151 29Q151 19 163 19H253L249 0H-50L-46 19H65Q78 19 81 33H152Z" />
<glyph unicode="2" glyph-name="two" horiz-adv-x="461" d="M295 557Q241 557 213 523T185 440Q185 426 188 414Q169 399 141 399Q116 399 116 431Q116 491 165 535T291 579T404 549T441 472Q441 426 424 398T396 354T365 318T333 286T297 253T265 224L89 63H318Q340
63 349 85L380 172H401L391 124Q373 37 373 -9Q342 0 266 0H-15L254 250Q315 306 340 369T366 477Q366 557 295 557Z" />
<glyph unicode="3" glyph-name="three" horiz-adv-x="457" d="M124 282V301Q213 307 275 362T337 480Q337 514 319 535T262 557T198 528T173 467T178 423Q160 408 130 408Q105 408 105 443Q105 508 154 543T264 579T365 552T407 476T365 378T247 307Q314 299 350
266T387 187Q387 111 321 50T149 -12Q86 -12 53 14T20 80T32 143T65 168T108 152Q83 111 83 77Q83 9 152 9T267 61T313 173T275 259T172 286Q145 286 124 282Z" />
<glyph unicode="4" glyph-name="four" horiz-adv-x="438" d="M344 134H296L274 29Q274 19 285 19H351L348 0H119L122 19H187Q200 19 205 33L226 134H-35L364 579H395L303 163H351Q366 163 368 177L381 226H398L363 71H346Q356 120 356 123Q356 134 344 134ZM22
163H233L301 471L22 163Z" />
<glyph unicode="5" glyph-name="five" horiz-adv-x="463" d="M113 288L183 566H401Q426 566 432 589L438 609H458L449 575Q436 526 420 515T357 504H197L150 321Q205 331 236 331Q322 331 367 290T412 189Q412 111 346 50T172 -12Q109 -12 77 14T45 79T57 142T94
168T133 152Q108 115 108 72Q108 9 178 9T293 63T338 180T301 272T211 302T113 288Z" />
<glyph unicode="6" glyph-name="six" horiz-adv-x="453" d="M156 302L159 300Q207 344 270 344T374 303T416 194Q416 101 352 45T206 -12T85 30T45 147T88 309T220 475T420 588L428 565Q365 546 285 478T156 302ZM255 315Q189 315 155 257T120 135T143 40T204
9Q255 9 299 62T344 197Q344 253 319 284T255 315Z" />
<glyph unicode="7" glyph-name="seven" horiz-adv-x="394" d="M444 566L228 188Q185 112 185 53Q185 31 190 3Q170 -12 141 -12T112 14Q112 52 198 188L375 504H146Q122 504 114 481L83 394H60L71 443Q88 517 91 576Q123 566 197 566H444Z" />
<glyph unicode="8" glyph-name="eight" horiz-adv-x="490" d="M191 300Q126 325 126 398T183 525T320 579Q381 579 415 551T450 465T416 363T327 301Q414 275 414 186T348 43T192 -12Q122 -12 81 19T40 112T82 227T191 300ZM259 289Q194 289 154 230T114 103Q114
59 136 34T195 9Q248 9 295 61T342 194Q342 239 319 264T259 289ZM316 557Q260 557 226 503T192 401T211 332T260 311Q305 311 345 357T385 476Q385 514 366 535T316 557Z" />
<glyph unicode="9" glyph-name="nine" horiz-adv-x="454" d="M330 255L324 259Q276 217 217 217T118 258T79 368Q79 463 139 521T281 579T403 537T444 422T402 263T272 100T73 -12L65 11Q129 32 209 96T330 255ZM237 246Q302 246 336 305T370 429T349 525T284
557T196 503T152 365Q152 308 176 277T237 246Z" />
<glyph unicode=":" glyph-name="colon" horiz-adv-x="218" d="M40 19T40 41T55 78T93 94T130 79T146 41T131 4T93 -12T56 3ZM112 351T112 373T127 410T165 426T202 411T218 373T203 336T165 320T128 335Z" />
<glyph unicode=";" glyph-name="semicolon" horiz-adv-x="201" d="M-15 -111Q50 -61 50 -6Q50 24 29 43Q34 66 52 83T92 100Q133 100 133 59T93 -38T-7 -125L-15 -111ZM95 351T95 373T110 410T148 426T185 411T201 373T186 336T148 320T111 335Z" />
<glyph unicode="&lt;" glyph-name="less" horiz-adv-x="505" d="M506 450L155 296L441 143L429 88L95 270L106 323L518 505L506 450Z" />
<glyph unicode="=" glyph-name="equal" horiz-adv-x="505" d="M437 255H64L75 308H448L437 255ZM401 85H28L39 138H412L401 85Z" />
<glyph unicode="&gt;" glyph-name="greater" horiz-adv-x="505" d="M68 143L418 296L133 450L145 505L479 323L468 270L56 88L68 143Z" />
<glyph unicode="?" glyph-name="question" horiz-adv-x="337" d="M255 621Q304 621 338 593T373 522T350 446T295 386T230 335Q151 275 151 219Q151 189 172 157L157 145Q111 198 111 245Q111 304 182 366Q212 391 242 417Q313 480 313 534Q313 565 295 582T251
600Q204 600 178 567T152 486Q152 473 155 461Q138 446 109 446Q86 446 86 479Q86 536 132 578T255 621ZM65 16T65 36T79 70T113 84T146 70T161 36T147 2T113 -12T80 2Z" />
<glyph unicode="@" glyph-name="at" horiz-adv-x="795" d="M457 115H451Q423 53 384 27T300 0T227 35T199 121T219 218T278 305T378 371T517 398L528 432H554L490 115Q482 73 482 42T497 -2T538 -16Q592 -16 645 52T699 231T620 422T417 502T193 405T94 182T173
-22T371 -101L368 -137Q236 -137 147 -49T58 171Q58 320 169 429T419 538T646 449T735 233T669 27T534 -52Q448 -52 448 43Q448 72 457 115ZM509 373Q411 367 343 295T274 120Q274 77 289 56T331 34T385 58T432 124Q466 194 490 292L509 373Z" />
<glyph unicode="A" glyph-name="A" horiz-adv-x="510" d="M361 18L334 211H113L5 18H67L64 0H-80L-76 18H-41Q-27 18 -20 32L316 630H348L430 32Q432 18 445 18H480L477 0H296L299 18H361ZM291 528L128 239H330L291 528Z" />
<glyph unicode="B" glyph-name="B" horiz-adv-x="530" d="M140 612L143 630H359Q422 630 466 598T510 510T472 407T376 336Q427 326 458 293T489 210Q489 118 417 59T256 0H10L13 18H59Q72 18 75 33Q195 601 195 606T184 612H140ZM320 321H204L141 23H257Q323
23 368 83T413 212Q413 260 390 290T320 321ZM334 607H264L208 341H277Q351 341 399 393T447 506Q447 550 419 578T334 607Z" />
<glyph unicode="C" glyph-name="C" horiz-adv-x="549" d="M437 14L438 22Q438 35 427 35Q419 35 396 24Q327 -12 265 -12Q166 -12 108 48T50 216Q50 289 74 363T141 500T254 602T404 642Q466 642 520 606Q538 595 546 595Q558 595 565 616L571 636H589L552 463H535Q536
471 536 486Q536 551 498 582T394 613T274 571T186 466Q119 334 119 204Q119 115 158 66T266 17T391 53T472 167H489L454 0H436L437 14Z" />
<glyph unicode="D" glyph-name="D" horiz-adv-x="611" d="M379 607H264L141 23H257Q321 23 375 63T462 164Q530 291 530 417Q530 507 489 557T379 607ZM143 630H385Q485 630 543 572T601 408Q601 337 577 266T509 135T399 38T252 0H10L13 18H59Q72 18 75 33Q195
601 195 606T184 612H140L143 630Z" />
<glyph unicode="E" glyph-name="E" horiz-adv-x="542" d="M143 630H444Q520 630 552 639Q537 604 516 510L506 463H484L497 590Q497 607 475 607H264L205 329H407Q417 330 421 343L441 405H458L419 225H402L411 287Q411 301 400 301H200L141 23H362Q386 23 393
45L435 167H457L447 120Q428 31 428 -9Q399 0 325 0H10L13 18H59Q72 18 75 33Q195 601 195 606T184 612H140L143 630Z" />
<glyph unicode="F" glyph-name="F" horiz-adv-x="501" d="M143 630H439Q514 630 546 639Q533 609 511 510L501 463H479L489 586Q489 602 467 602H263L205 329H402Q414 331 417 343L435 405H452L413 225H396L406 287Q406 301 394 301H199L142 28Q142 18 152 18H235L232
0H10L13 18H59Q72 18 75 33Q195 601 195 606T184 612H140L143 630Z" />
<glyph unicode="G" glyph-name="G" horiz-adv-x="579" d="M531 226L524 192Q505 103 433 46T263 -12T108 48T50 216Q50 289 74 363T141 500T254 602T404 642Q466 642 520 606Q538 595 546 595Q558 595 565 616L571 636H589L552 463H535Q536 471 536 486Q536 551
498 582T394 613T274 571T186 466Q119 334 119 204Q119 114 159 66T276 17T400 68T464 229Q464 240 454 240H391L394 258H577L574 240H549Q534 240 531 226Z" />
<glyph unicode="H" glyph-name="H" horiz-adv-x="673" d="M628 598L508 28Q508 18 519 18H563L560 0H376L379 18H425Q438 18 441 33L498 301H198Q142 36 142 27T153 18H197L194 0H10L13 18H59Q72 18 75 33Q195 601 195 606T184 612H140L143 630H327L324 612H279Q266
612 262 598L204 329H503Q561 602 561 607T550 612H506L509 630H693L690 612H645Q632 612 628 598Z" />
<glyph unicode="I" glyph-name="I" horiz-adv-x="307" d="M262 598L142 28Q142 18 153 18H197L194 0H10L13 18H59Q72 18 75 33Q195 601 195 606T184 612H140L143 630H327L324 612H279Q266 612 262 598Z" />
<glyph unicode="J" glyph-name="J" horiz-adv-x="297" d="M58 -45L195 604Q195 612 184 612H140L143 630H327L324 612H279Q266 612 262 598L162 127Q101 -159 -33 -159Q-77 -159 -96 -140T-116 -91T-102 -37T-62 -12T-24 -27Q-53 -69 -53 -102Q-53 -116 -45 -125T-16
-135T26 -113T58 -45Z" />
<glyph unicode="K" glyph-name="K" horiz-adv-x="568" d="M262 598L142 28Q142 18 153 18H197L194 0H10L13 18H59Q72 18 75 33Q195 601 195 606T184 612H140L143 630H327L324 612H279Q266 612 262 598ZM405 175L407 83Q409 21 440 21Q460 21 473 42T487 96L506
99Q506 48 480 18T413 -12Q342 -12 338 95L334 193Q331 258 307 283T228 309L233 325L518 612H471L474 630H603L600 612H574Q558 612 545 598L274 327Q346 326 374 285T405 175Z" />
<glyph unicode="L" glyph-name="L" horiz-adv-x="453" d="M262 598L141 23H338Q363 23 370 45L411 167H433L423 120Q404 33 404 -9Q375 0 301 0H10L13 18H59Q72 18 75 33Q195 601 195 606T184 612H140L143 630H327L324 612H279Q266 612 262 598Z" />
<glyph unicode="M" glyph-name="M" horiz-adv-x="769" d="M649 565L321 0H289L209 565Q97 33 97 26T108 18H152L149 0H0L3 18H49Q62 18 65 33Q185 601 185 606T174 612H130L133 630H269L344 94L653 630H789L786 612H741Q728 612 724 598Q711 535 678 378Q604 35
604 27T615 18H659L656 0H472L475 18H521Q534 18 537 33L649 565Z" />
<glyph unicode="N" glyph-name="N" horiz-adv-x="639" d="M273 630L472 125Q573 603 573 607T562 612H518L521 630H669L666 612H621Q608 612 604 598L478 0H448L214 587Q97 31 97 25T108 18H152L149 0H0L3 18H49Q62 18 65 33Q185 601 185 606T174 612H130L133 630H273Z" />
<glyph unicode="O" glyph-name="O" horiz-adv-x="627" d="M280 616Q338 642 403 642Q502 642 559 583T617 415Q617 342 593 268T526 130T414 28T255 -12T108 48T50 222T112 452T280 616ZM466 616T400 616T278 574T189 466Q120 332 120 206Q120 115 159 65T265
14T388 56T478 163Q547 296 547 423Q547 514 507 565Z" />
<glyph unicode="P" glyph-name="P" horiz-adv-x="492" d="M286 251H188Q142 39 142 29T153 18H226L223 0H10L13 18H59Q72 18 75 33Q195 601 195 606T184 612H140L143 630H366Q434 630 478 592T522 487Q522 381 449 316T286 251ZM355 607H264L193 274H287Q359 274
407 344T456 491Q456 541 431 574T355 607Z" />
<glyph unicode="Q" glyph-name="Q" horiz-adv-x="627" d="M338 27L344 9Q290 -11 242 -11Q152 -11 101 54T50 216Q50 336 110 448Q175 568 280 616Q338 642 403 642Q502 642 559 583T617 421T589 235T514 94T409 -5Q296 -85 180 -85V-90Q209 -90 258 -114T338
-139Q403 -139 462 -43L474 -49Q395 -198 319 -198Q281 -198 231 -157T154 -116T109 -131T70 -184L58 -179Q86 -98 130 -76Q151 -66 186 -63T262 -48T356 -3T450 79T518 218T547 411T507 565T400 616T278 574T189 466Q120 332 120 206Q120 124 154 69T263 14Q298
14 338 27Z" />
<glyph unicode="R" glyph-name="R" horiz-adv-x="567" d="M259 291H196Q142 34 142 26T153 18H217L214 0H10L13 18H59Q72 18 75 33Q195 601 195 606T184 612H140L143 630H370Q439 630 484 595T530 491T481 369T358 298Q428 271 428 189Q428 160 419 112T409 50Q409
22 431 22T477 53T520 143L537 139Q510 59 477 24T399 -12Q377 -12 362 4T347 51T356 128T366 212Q366 291 259 291ZM360 607H264L201 315H301Q371 315 417 374T464 499Q464 546 438 576T360 607Z" />
<glyph unicode="S" glyph-name="S" horiz-adv-x="457" d="M177 -12Q106 -12 52 24Q34 35 27 35Q9 35 4 0H-15L20 167H38Q37 159 37 143Q37 78 74 48T177 17T287 63T332 170T270 261L190 302Q96 348 96 445Q96 521 155 581T303 642Q362 642 410 609Q426 598 432
598Q442 598 449 619L454 636H472L435 463H418Q420 483 420 492Q420 554 389 583T298 613T198 569T156 470Q156 402 217 370L320 317Q403 274 403 196T335 53T177 -12Z" />
<glyph unicode="T" glyph-name="T" horiz-adv-x="472" d="M190 630H445Q520 630 552 639Q539 609 517 510L507 463H485L496 584Q496 602 473 602H345Q224 31 224 25T235 18H321L318 0H50L53 18H141Q154 18 157 33L277 602H150Q126 602 119 580L80 463H58L68 510Q87
597 87 639Q116 630 190 630Z" />
<glyph unicode="U" glyph-name="U" horiz-adv-x="609" d="M89 195L176 604Q176 612 165 612H120L123 630H307L304 612H259Q246 612 242 598L155 188Q149 160 149 137Q149 78 184 50T277 21Q332 21 392 59Q456 100 476 194L562 601Q562 612 552 612H507L510 630H659L656
612H611Q598 612 594 598L509 195Q487 91 420 40T263 -12Q82 -12 82 135Q82 164 89 195Z" />
<glyph unicode="V" glyph-name="V" horiz-adv-x="501" d="M73 630H239L236 612H189L246 109L516 612H469L472 630H601L598 612H563Q549 612 542 598L220 0H188L120 598Q118 612 105 612H70L73 630Z" />
<glyph unicode="W" glyph-name="W" horiz-adv-x="814" d="M785 630H914L911 612H876Q862 612 855 598L552 0H520L470 498L211 0H179L130 598Q128 612 115 612H80L83 630H249L246 612H199L240 117L466 551L461 598Q459 612 446 612H411L414 630H581L578 612H530L580
120L829 612H782L785 630Z" />
<glyph unicode="X" glyph-name="X" horiz-adv-x="488" d="M337 18L245 280L31 18H78L75 0H-55L-52 18H-17Q-8 18 4 32L234 312L135 598Q130 612 120 612H84L87 630H254L251 612H203L289 365L492 612H445L448 630H578L575 612H540Q529 612 519 600L300 334L406
32Q411 18 421 18H456L453 0H287L290 18H337Z" />
<glyph unicode="Y" glyph-name="Y" horiz-adv-x="455" d="M247 190L203 185L111 598Q108 612 96 612H61L64 630H229L226 612H179L259 257L470 612H423L426 630H555L552 612H517Q505 612 496 598L247 190ZM201 242L265 225Q224 31 224 25T235 18H301L298 0H70L73
18H141Q154 18 157 33L201 242Z" />
<glyph unicode="Z" glyph-name="Z" horiz-adv-x="546" d="M0 0L5 28L470 602H219Q195 602 188 580L149 463H127L137 510Q155 592 155 639Q186 630 259 630H566L560 602L96 28H366Q391 28 398 50L437 167H459L449 120Q431 38 431 -9Q402 0 327 0H0Z" />
<glyph unicode="[" glyph-name="bracketleft" horiz-adv-x="250" d="M70 -75L69 -79Q69 -89 80 -89H153L149 -107H74Q18 -107 -8 -113L152 636Q174 630 230 630H305L302 612H229Q215 612 213 598L70 -75Z" />
<glyph unicode="\" glyph-name="backslash" horiz-adv-x="319" d="M301 -74H268L18 648H52L301 -74Z" />
<glyph unicode="]" glyph-name="bracketright" horiz-adv-x="250" d="M52 -75L195 598V600Q195 612 185 612H111L114 630H190Q247 630 271 636L111 -113Q91 -107 34 -107H-42L-38 -89H36Q48 -89 52 -75Z" />
<glyph unicode="^" glyph-name="asciicircum" horiz-adv-x="505" d="M384 644L464 270H412L347 584L149 270H96L334 644H384Z" />
<glyph unicode="_" glyph-name="underscore" horiz-adv-x="406" d="M34 -51L42 -12H371L363 -51H34Z" />
<glyph unicode="`" glyph-name="grave" horiz-adv-x="232" d="M189 489L58 566Q31 581 31 606Q31 620 39 629T62 639T91 625L202 505L189 489Z" />
<glyph unicode="a" glyph-name="a" horiz-adv-x="500" d="M410 321T379 202T348 50T373 16Q392 16 414 41T452 114L468 110Q425 -12 356 -12Q294 -12 294 63Q294 78 299 111H294Q232 -12 150 -12Q103 -12 72 29T40 131T56 244T101 341T178 415T283 444Q357 444
400 381L431 435L445 425Q410 321 379 202ZM174 18Q216 18 259 83Q308 158 350 328Q359 368 364 386Q329 420 284 420T203 389T147 311Q106 215 106 130Q106 74 124 46T174 18Z" />
<glyph unicode="b" glyph-name="b" horiz-adv-x="467" d="M129 172H137L153 216Q237 444 337 444Q384 444 415 403T447 301T431 188T386 91T309 17T211 -12T125 7T69 59L78 86Q126 10 201 10Q258 10 300 62T359 178T377 295T360 377T319 406T273 387T223 326Q165
236 114 31L84 63L54 -12L37 -6L194 620L130 615L129 632Q198 641 258 657L272 647Q191 411 129 172Z" />
<glyph unicode="c" glyph-name="c" horiz-adv-x="397" d="M276 420Q235 420 201 389T146 312Q106 215 106 144Q106 12 186 12Q285 12 331 120L347 116Q323 55 278 22T175 -12T79 30T40 143T67 280T151 395T281 444Q331 444 356 419T382 358T370 294T331 266T291
282Q320 326 320 368Q320 420 276 420Z" />
<glyph unicode="d" glyph-name="d" horiz-adv-x="500" d="M348 49Q348 16 373 16Q392 16 414 41T452 114L468 110Q425 -12 356 -12Q294 -12 294 66T425 620L361 615L360 632Q429 641 489 657L503 647Q461 524 405 314T348 49ZM304 111H294Q232 -12 150 -12Q103
-12 72 29T40 131T56 244T101 341T178 415T276 444Q372 444 412 360L398 342Q351 420 281 420Q238 420 203 389T147 311Q106 215 106 130Q106 74 124 46T174 18Q217 18 262 90T342 298L304 111Z" />
<glyph unicode="e" glyph-name="e" horiz-adv-x="397" d="M334 444T360 419T387 346T350 263Q287 203 163 203Q126 203 99 209V228Q134 223 157 223Q240 223 285 265T331 357Q331 384 317 402T269 420T201 389T146 312Q106 215 106 144Q106 12 186 12Q285 12 331
120L347 116Q323 55 278 22T175 -12T79 30T40 143T67 280T151 395T281 444Q334 444 360 419Z" />
<glyph unicode="f" glyph-name="f" horiz-adv-x="290" d="M52 396L57 415H309L304 396H52ZM222 471L128 32Q99 -100 57 -164T-45 -228Q-83 -228 -104 -205T-125 -154T-114 -103T-77 -80T-41 -93Q-54 -103 -62 -123T-71 -162Q-71 -205 -35 -205Q5 -205 26 -143T84
106L142 402Q163 508 216 584T339 660Q389 660 414 637T440 583T428 527T388 502T349 516Q378 553 378 591Q378 637 335 637T265 594T222 471Z" />
<glyph unicode="g" glyph-name="g" horiz-adv-x="426" d="M111 58L270 22Q322 10 344 -10T366 -67Q366 -125 303 -176T158 -228T27 -191T-24 -103Q-24 -68 -1 -36T69 18L89 12Q59 -3 43 -33T27 -98Q27 -154 64 -181T159 -209T267 -176T317 -95T256 -34L84 4Q55
10 39 31T23 82T48 137T117 162H218L215 148H117Q96 148 84 135T71 104Q71 67 111 58ZM279 430L278 444Q306 444 325 457T344 493T312 535Q328 569 350 569T384 556T396 523Q396 488 365 459T279 430ZM96 257Q96 331 148 387T278 444Q332 444 363 416T395 335Q395
251 341 200T215 148Q160 148 128 176T96 257ZM277 425Q222 425 187 365T152 257T169 189T216 167Q260 167 300 217T340 343Q340 381 323 403T277 425Z" />
<glyph unicode="h" glyph-name="h" horiz-adv-x="495" d="M107 0L37 -6L194 620L130 615L129 632Q198 641 258 657L272 647Q191 411 129 172H137L153 216Q207 367 270 412Q300 432 319 438T368 444T419 420T440 353T392 195T343 48T368 16Q387 16 409 41T447 114L463
110Q420 -12 351 -12Q289 -12 289 56Q289 85 334 200T380 348Q380 411 334 411Q284 411 226 330Q159 233 107 0Z" />
<glyph unicode="i" glyph-name="i" horiz-adv-x="276" d="M170 557T170 576T183 608T215 621T247 608T260 576T247 544T215 531T183 544ZM70 63Q70 116 143 398L79 393L78 410Q147 419 207 435L221 425Q186 321 155 202T124 50T149 16Q168 16 190 41T228 114L244
110Q201 -12 132 -12Q70 -12 70 63Z" />
<glyph unicode="j" glyph-name="j" horiz-adv-x="250" d="M170 557T170 576T183 608T215 621T247 608T260 576T247 544T215 531T183 544ZM143 398L79 393L78 410Q147 419 207 435L221 425L126 32Q93 -102 54 -165T-45 -228Q-83 -228 -104 -205T-125 -154T-114
-103T-77 -80T-41 -93Q-54 -103 -62 -123T-71 -162Q-71 -205 -35 -205Q5 -205 26 -143T84 106L143 398Z" />
<glyph unicode="k" glyph-name="k" horiz-adv-x="468" d="M162 220L166 233H206Q289 233 337 276T386 367Q386 388 374 401T339 415T288 396T229 332Q161 234 107 0L37 -6L194 620L130 615L129 632Q198 641 258 657L272 647Q191 411 129 172H137L154 216Q205 348
256 396T365 444Q400 444 419 425T439 375Q439 317 379 267T212 217Q184 217 162 220ZM162 217L184 228Q266 228 292 193T318 49Q318 16 343 16Q362 16 384 41T422 114L438 110Q395 -12 326 -12Q294 -12 276 6T258 66T254 139T231 194T178 218Q167 218 162 217ZM245
205V227H263L259 205H245Z" />
<glyph unicode="l" glyph-name="l" horiz-adv-x="266" d="M114 49Q114 16 139 16Q158 16 180 41T218 114L234 110Q191 -12 122 -12Q60 -12 60 66T191 620L127 615L126 632Q195 641 255 657L269 647Q227 524 171 314T114 49Z" />
<glyph unicode="m" glyph-name="m" horiz-adv-x="736" d="M359 0L288 -6L324 131Q330 154 342 199T361 268Q378 334 378 357T367 395T332 411Q282 411 223 310T115 0L45 -6L143 398L79 393L78 410Q147 419 207 435L221 425Q173 315 137 172H145L161 216Q208 344
261 394T360 444Q430 444 430 365Q430 319 401 235L380 172H389L405 216Q459 367 522 412Q552 432 571 438T618 444T663 420T681 353T633 195T584 48T609 16Q628 16 650 41T688 114L704 110Q661 -12 592 -12Q530 -12 530 56Q530 85 575 200T621 357Q621 411 586
411Q536 411 478 330Q411 233 359 0Z" />
<glyph unicode="n" glyph-name="n" horiz-adv-x="503" d="M448 310T400 195T351 48T376 16Q395 16 417 41T455 114L471 110Q428 -12 359 -12Q297 -12 297 56Q297 85 342 200T388 348Q388 411 342 411Q292 411 234 330Q167 233 115 0L45 -6L143 398L79 393L78 410Q147
419 207 435L221 425Q173 315 137 172H145L161 216Q215 367 278 412Q308 432 327 438T376 444T427 420T448 353Z" />
<glyph unicode="o" glyph-name="o" horiz-adv-x="460" d="M40 145Q40 248 100 342Q129 387 176 415T283 444T382 403T420 291T394 153T312 37T186 -12T78 29T40 145ZM275 422Q221 422 180 368T121 250T103 131T125 43T187 10T261 42T316 121Q357 217 357 287T335
390T275 422Z" />
<glyph unicode="p" glyph-name="p" horiz-adv-x="476" d="M208 435L222 425Q174 315 138 172H146L162 216Q245 444 352 444Q395 444 425 402T456 300T441 189T396 93T320 20T216 -8Q129 -8 80 69L87 86Q135 13 213 13Q258 13 293 43T348 118Q386 210 386 298Q386
349 372 377T334 406Q287 406 229 315T123 31L63 -216L-7 -222L144 398L80 393L79 410Q148 419 208 435Z" />
<glyph unicode="q" glyph-name="q" horiz-adv-x="461" d="M373 401L403 369L433 444L450 438L281 -188L345 -183L346 -200Q277 -209 217 -225L203 -215L299 111H294Q230 -12 150 -12Q103 -12 72 29T40 131T56 244T101 341T178 415T276 444T362 425T418 373L409
346Q361 419 286 419Q242 419 206 389T148 314Q106 219 106 134Q106 79 125 49T172 18Q220 18 272 108T373 401Z" />
<glyph unicode="r" glyph-name="r" horiz-adv-x="371" d="M207 435L221 425Q173 315 137 172H145L161 216Q208 344 254 394T334 444T384 422T401 365T388 304T351 278T310 294Q320 307 329 332T338 376Q338 405 314 405Q289 405 252 356Q171 250 115 0L45 -6L143
398L79 393L78 410Q147 419 207 435Z" />
<glyph unicode="s" glyph-name="s" horiz-adv-x="379" d="M193 420T166 398T139 342T167 280T228 234T289 185T317 121Q317 57 268 23T148 -12T25 21Q42 55 57 139L74 136Q67 95 67 72T89 29T154 9T226 35T256 103Q256 130 230 155T172 198T114 246T87 314Q87
369 130 406T245 444Q300 444 354 417Q349 406 338 367T320 293L303 296Q309 328 309 357T290 403T232 420Z" />
<glyph unicode="t" glyph-name="t" horiz-adv-x="276" d="M67 396L72 415H294L289 396H67ZM226 538L240 528Q217 458 179 308T132 115T124 49Q124 16 149 16Q168 16 190 41T228 114L244 110Q201 -12 132 -12Q70 -12 70 63Q70 125 144 409L72 415Q127 415 161 441T226
538Z" />
<glyph unicode="u" glyph-name="u" horiz-adv-x="517" d="M311 63Q311 78 316 111H311Q247 -12 163 -12Q73 -12 73 88Q73 153 119 329L137 398L73 393L72 410Q141 419 201 435L215 425Q131 164 131 91T186 18Q232 18 276 85T350 267L384 398L320 393L319 410Q388
419 448 435L462 425Q427 321 396 202T365 50T390 16Q409 16 431 41T469 114L485 110Q442 -12 373 -12Q311 -12 311 63Z" />
<glyph unicode="v" glyph-name="v" horiz-adv-x="447" d="M200 21Q264 21 325 114T386 285T339 423Q364 444 384 444T413 419T422 352T405 246T358 125T278 27T171 -12Q134 -12 112 13T89 83T122 237T156 381T130 416Q111 416 90 391T56 318L39 322Q76 444 146
444Q211 444 211 374Q211 346 180 235T149 89Q149 21 200 21Z" />
<glyph unicode="w" glyph-name="w" horiz-adv-x="667" d="M358 198L373 199Q301 -12 171 -12Q134 -12 112 13T89 83T122 237T156 381T130 416Q111 416 90 391T56 318L39 322Q76 444 146 444Q211 444 211 374Q211 346 180 235T149 89Q149 21 198 21Q243 21 288
74T358 198ZM365 -12T342 13T319 79T349 208T380 343T357 423Q382 444 402 444T431 419T440 354T410 217T379 87Q379 21 427 21Q488 21 547 114T606 285T559 423Q584 444 604 444T633 419T642 351T627 246T583 125T507 27T403 -12Q365 -12 342 13Z" />
<glyph unicode="x" glyph-name="x" horiz-adv-x="461" d="M163 444Q203 444 228 400T262 293T279 167Q296 16 335 16Q354 16 376 41T414 114L430 110Q387 -12 318 -12Q278 -12 253 32T219 139T202 265Q185 416 146 416Q127 416 105 391T67 318L51 322Q94 444 163
444ZM182 153L219 217L244 219L196 135Q113 -12 50 -12Q20 -12 20 42Q123 51 182 153ZM289 279L252 215L227 213L275 297Q358 444 421 444Q451 444 451 390Q348 381 289 279Z" />
<glyph unicode="y" glyph-name="y" horiz-adv-x="472" d="M264 21T327 114T391 289T339 423Q364 444 385 444Q424 444 424 334T400 133T338 -23T250 -134Q155 -228 57 -228Q7 -228 -18 -205T-44 -151T-32 -95T6 -70T47 -84Q18 -121 18 -152Q18 -202 71 -202Q106
-202 152 -177T245 -105T331 20T387 189Q354 102 299 45T171 -12Q134 -12 112 13T89 83T122 237T156 381T130 416Q111 416 90 391T56 318L39 322Q76 444 146 444Q211 444 211 374Q211 346 180 235T149 89Q149 21 200 21Q264 21 327 114Z" />
<glyph unicode="z" glyph-name="z" horiz-adv-x="371" d="M350 438L366 434Q358 388 337 365L83 89Q103 88 154 67T235 46Q293 46 307 126L326 123Q312 -12 243 -12Q201 -12 145 20T65 52Q30 52 11 -12L-4 -7Q13 47 34 71L290 350Q273 351 227 369T153 387Q95
387 81 311L62 314Q76 444 145 444Q188 444 238 416T303 388Q336 388 350 438Z" />
<glyph unicode="{" glyph-name="braceleft" horiz-adv-x="274" d="M128 263V259Q166 259 166 220Q166 204 146 125T126 -7T164 -98L150 -113Q64 -59 64 53Q64 120 78 178T93 241Q93 252 83 252H45L49 270H87Q100 270 103 284L115 341Q150 508 230 582Q263 613
309 635L316 620Q250 573 227 498Q216 461 206 404T190 322Q177 263 128 263Z" />
<glyph unicode="|" glyph-name="bar" horiz-adv-x="236" d="M82 -107V630H154V-107H82Z" />
<glyph unicode="}" glyph-name="braceright" horiz-adv-x="255" d="M155 259V263Q117 263 117 302Q117 318 137 397T157 529T119 620L133 635Q219 581 219 469Q219 410 205 348T190 281Q190 270 200 270H238L234 252H196Q184 252 180 238L168 181Q133 14 54 -60Q20
-91 -26 -113L-33 -98Q33 -51 56 24Q67 61 77 118T93 200Q106 259 155 259Z" />
<glyph unicode="~" glyph-name="asciitilde" horiz-adv-x="505" d="M449 243L461 210Q404 164 340 164Q310 164 254 176T162 189T85 164L72 197Q127 241 189 241Q220 241 276 229T368 216T449 243Z" />
<glyph unicode="&#xa1;" glyph-name="exclamdown" horiz-adv-x="260" d="M130 262H154Q111 -33 95 -151Q91 -178 75 -194T37 -210Q3 -210 3 -173Q3 -152 25 -82T80 91T130 262ZM215 416T215 396T201 362T167 348T134 362T119 396T133 430T167 444T200 430Z" />
<glyph unicode="&#xa2;" glyph-name="cent" horiz-adv-x="412" d="M181 -55H151L176 65Q112 70 74 111T36 223Q36 340 106 416T269 502L294 621H324L299 502Q349 500 372 476T396 419T384 359T346 331T306 346Q332 388 332 423Q332 478 283 478Q218 478 163 403T108
209Q108 152 132 121T201 89T288 116T353 192L371 187Q347 133 302 101T206 64L181 -55Z" />
<glyph unicode="&#xa3;" glyph-name="sterling" horiz-adv-x="440" d="M117 168L114 312Q114 377 135 430T190 514Q258 579 333 579Q389 579 415 555T441 492T428 427T390 399T349 414Q378 454 378 493Q378 551 321 551T225 496T186 307Q186 188 158 96Q142 46
110 17T32 -12Q6 -12 -7 2T-20 39T2 83T55 105T156 81T266 57Q337 57 373 148L396 144Q369 58 335 23T262 -12T191 2T142 35Q96 82 52 82Q31 82 18 68T4 37Q4 8 35 8T91 46T117 168ZM322 278L315 247H35L42 278H322Z" />
<glyph unicode="&#xa4;" glyph-name="currency" horiz-adv-x="463" d="M112 212L149 174L64 89L26 126L112 212ZM349 374L311 411L400 500L437 462L349 374ZM102 348T102 294T140 202T232 164T324 202T362 294T324 386T232 424T140 386ZM72 228T72 294T119 407T232
454T345 407T392 294T345 181T232 134T119 181ZM314 175L352 212L437 127L400 89L314 175ZM152 412L115 374L26 463L64 500L152 412Z" />
<glyph unicode="&#xa5;" glyph-name="yen" horiz-adv-x="440" d="M415 278L408 247H282L255 204Q218 30 218 28Q218 18 229 18H305L302 0H54L57 18H135Q148 18 151 33L188 211L179 247H52L59 278H171L163 312H66L73 343H155L108 534Q104 548 93 548H75L78 566H216L213
548H176L253 249L437 548H405L408 566H504L501 548H484Q472 548 463 534L342 343H429L422 312H323L301 278H415Z" />
<glyph unicode="&#xa6;" glyph-name="brokenbar" horiz-adv-x="236" d="M82 366V630H154V366H82ZM82 -107V157H154V-107H82Z" />
<glyph unicode="&#xa7;" glyph-name="section" horiz-adv-x="441" d="M148 245L158 265L267 201Q309 176 333 134T358 49Q358 -18 307 -67T174 -117T53 -80T15 3T33 76T83 104T132 83Q89 57 89 -5Q89 -37 109 -58T178 -80T258 -42T289 46T265 142T202 212L148
245ZM308 280L298 260L189 324Q147 349 123 391T98 476Q98 543 149 592T282 642T403 605T441 522T423 449T373 421T324 442Q367 468 367 530Q367 562 347 583T278 605T198 567T167 479T191 383T254 313L308 280Z" />
<glyph unicode="&#xa8;" glyph-name="dieresis" horiz-adv-x="310" d="M30 557T30 576T43 608T75 621T107 608T120 576T107 544T75 531T43 544ZM190 557T190 576T203 608T235 621T267 608T280 576T267 544T235 531T203 544Z" />
<glyph unicode="&#xa9;" glyph-name="copyright" horiz-adv-x="549" d="M351 281Q349 281 338 274Q303 254 262 254T192 284T162 370Q162 465 216 524T341 583Q364 583 386 572T411 560Q418 560 423 570L427 581H438L418 487H407V495Q407 529 388 544T337 560Q291
560 252 505T212 364Q212 322 229 299T277 276T336 294T378 349H389L370 260H359V271Q359 281 351 281ZM70 366Q70 475 157 567T358 660Q439 660 490 607T542 472Q542 356 453 266T255 176Q174 176 122 230T70 366ZM95 366Q95 295 140 248T255 201Q354 201 435
283T517 472Q517 542 473 588T358 635Q254 635 175 551T95 366Z" />
<glyph unicode="&#xaa;" glyph-name="ordfeminine" horiz-adv-x="367" d="M299 570T281 500T263 411T273 392T296 407T317 450L328 448Q314 408 299 392T261 375Q222 375 222 420Q222 429 223 434H219Q188 375 140 375Q110 375 90 400T70 467Q70 533 110 590T217
648Q260 648 290 611L308 642L320 633Q299 570 281 500ZM154 393Q215 393 265 614Q245 634 216 634T162 602Q118 542 118 468T154 393Z" />
<glyph unicode="&#xab;" glyph-name="guillemotleft" horiz-adv-x="375" d="M175 225L178 237L366 408L378 394L255 231L309 68L291 54L175 225ZM33 225L36 237L224 408L237 394L113 231L168 68L149 54L33 225Z" />
<glyph unicode="&#xac;" glyph-name="logicalnot" horiz-adv-x="505" d="M420 44H370L397 170H74L85 223H458L420 44Z" />
<glyph unicode="&#xae;" glyph-name="registered" horiz-adv-x="549" d="M70 366Q70 475 157 567T358 660Q439 660 490 607T542 472Q542 356 453 266T255 176Q174 176 122 230T70 366ZM283 276L280 262H164L167 276H183Q197 276 200 288Q256 548 256 556T245 565H229L232
579H347Q383 579 406 560T429 506T407 445T350 406L384 285Q388 276 394 276H405L402 262H375Q354 262 338 258L300 399H272Q249 289 249 286Q249 276 259 276H283ZM340 558H306L277 421H311Q341 421 360 449T380 510Q380 558 340 558ZM95 366Q95 295 140 248T255
201Q354 201 435 283T517 472Q517 542 473 588T358 635Q254 635 175 551T95 366Z" />
<glyph unicode="&#xaf;" glyph-name="overscore" horiz-adv-x="301" d="M30 557L41 611H271L260 557H30Z" />
<glyph unicode="&#xb0;" glyph-name="degree" horiz-adv-x="258" d="M90 571T122 605T197 639T269 612T298 541T265 464T188 430T117 458T90 528ZM263 569T245 587T198 605T148 582T125 529T142 482T188 464T240 487T263 540Z" />
<glyph unicode="&#xb1;" glyph-name="plusminus" horiz-adv-x="505" d="M353 492L317 323H479L468 270H306L270 100H220L256 270H95L106 323H267L303 492H353ZM411 0H38L49 53H422L411 0Z" />
<glyph unicode="&#xb2;" glyph-name="twosuperior" horiz-adv-x="292" d="M236 511Q236 560 189 560Q164 560 149 538T134 488Q134 482 136 472Q122 462 101 462T79 486Q79 523 112 551T195 579T269 560T294 510Q294 481 271 450Q247 417 216 387T180 353L83 258H206Q216
258 220 269L239 326H258L251 293Q243 257 239 205Q211 213 167 213H4L166 374Q202 410 219 448T236 511Z" />
<glyph unicode="&#xb3;" glyph-name="threesuperior" horiz-adv-x="292" d="M77 388L79 405L106 410Q152 418 178 451T205 522T171 560Q150 560 137 543T123 508T126 479Q110 466 90 466T69 492Q69 533 102 556T172 579T234 562T260 515T236 455T171 408Q205 402
223 382T241 334Q241 284 198 245T90 205Q49 205 30 222T10 264T19 306T47 323T77 311Q58 286 58 260Q58 225 95 225T158 257T184 325Q184 392 110 392Q96 392 77 388Z" />
<glyph unicode="&#xb4;" glyph-name="acute" horiz-adv-x="232" d="M174 566L43 489L30 505L141 625Q154 639 169 639T193 630T201 606Q201 581 174 566Z" />
<glyph unicode="&#xb5;" glyph-name="mu" horiz-adv-x="517" d="M400 8L393 -12Q311 -12 311 63Q311 78 316 111H311Q247 -12 163 -12Q103 -12 84 36Q72 -26 72 -60Q72 -137 122 -179Q109 -195 87 -205T51 -216Q20 -216 20 -164T60 73T137 398L73 393L72 410Q141
419 201 435L215 425Q131 164 131 91T186 18Q233 18 276 83T350 267L384 398L320 393L319 410Q388 419 448 435L462 425Q427 321 396 202T365 46T400 8Z" />
<glyph unicode="&#xb6;" glyph-name="paragraph" horiz-adv-x="428" d="M420 598L274 -87Q260 -152 225 -182T105 -222V-198Q190 -180 205 -105L358 612H286Q189 612 134 553T78 425Q78 383 96 361T144 339T202 370T230 452Q230 465 227 477Q244 492 273 492Q296
492 296 459Q296 392 248 352T144 312T55 340T21 424Q21 499 93 564T279 630H484L481 612H436Q424 612 420 598Z" />
<glyph unicode="&#xb7;" glyph-name="middot" horiz-adv-x="192" d="M43 258T43 280T58 317T96 333T133 318T149 280T134 243T96 227T59 242Z" />
<glyph unicode="&#xb8;" glyph-name="cedilla" horiz-adv-x="226" d="M133 0H149L130 -46Q161 -52 177 -72T193 -122T163 -184T83 -216Q57 -216 39 -200T20 -158T31 -119T58 -105T82 -112Q65 -133 65 -163T94 -194Q113 -194 131 -175T149 -125Q149 -84 102 -75L133 0Z" />
<glyph unicode="&#xb9;" glyph-name="onesuperior" horiz-adv-x="292" d="M157 522Q157 523 158 527Q158 535 147 535L74 531L78 550Q196 568 232 583Q219 556 208 505Q152 244 152 238T163 231H209L205 213H7L11 231H81Q94 231 98 245L157 522Z" />
<glyph unicode="&#xba;" glyph-name="ordmasculine" horiz-adv-x="346" d="M118 375T94 399T70 479T110 591T217 648Q258 648 282 624T306 555Q306 489 266 432T159 375Q118 375 94 399ZM215 635Q184 635 160 602Q116 543 116 462Q116 427 128 408T167 388T216
421Q260 482 260 558T215 635Z" />
<glyph unicode="&#xbb;" glyph-name="guillemotright" horiz-adv-x="375" d="M219 237L216 225L28 54L16 68L140 231L85 394L103 408L219 237ZM361 237L358 225L170 54L158 68L282 231L227 394L245 408L361 237Z" />
<glyph unicode="&#xbc;" glyph-name="onequarter" horiz-adv-x="779" d="M178 522Q178 523 179 527Q179 535 168 535L95 531L99 550Q217 568 253 583Q240 556 229 505Q173 244 173 238T184 231H230L226 213H28L32 231H102Q116 231 119 245L178 522ZM647 88L634
28Q634 18 645 18H684L680 0H522L526 18H564Q578 18 580 30L593 88H438L658 358H704L652 112H674Q686 112 690 126L694 143H711L692 57H675Q679 75 679 77Q679 88 669 88H647ZM488 112H598L637 294L488 112ZM278 -74H247L496 648H528L278 -74Z" />
<glyph unicode="&#xbd;" glyph-name="onehalf" horiz-adv-x="779" d="M178 522Q178 523 179 527Q179 535 168 535L95 531L99 550Q217 568 253 583Q240 556 229 505Q173 244 173 238T184 231H230L226 213H28L32 231H102Q116 231 119 245L178 522ZM684 298Q684 347
637 347Q612 347 597 325T582 275Q582 269 584 259Q570 249 549 249T527 273Q527 310 560 338T643 366T717 347T742 297Q742 268 719 237Q695 204 664 174T628 140L531 45H654Q664 45 668 56L687 113H706L699 80Q691 44 687 -8Q659 0 615 0H452L614 161Q650 197
667 235T684 298ZM278 -74H247L496 648H528L278 -74Z" />
<glyph unicode="&#xbe;" glyph-name="threequarters" horiz-adv-x="779" d="M98 388L100 405L127 410Q173 418 199 451T226 522T192 560Q171 560 158 543T144 508T147 479Q131 466 111 466T90 492Q90 533 123 556T193 579T255 562T281 515T257 455T192 408Q226
402 244 382T262 334Q262 284 219 245T111 205Q70 205 51 222T31 264T40 306T68 323T98 311Q79 286 79 260Q79 225 116 225T179 257T205 325Q205 392 131 392Q117 392 98 388ZM647 88L634 28Q634 18 645 18H684L680 0H522L526 18H564Q578 18 580 30L593 88H438L658
358H704L652 112H674Q686 112 690 126L694 143H711L692 57H675Q679 75 679 77Q679 88 669 88H647ZM488 112H598L637 294L488 112ZM278 -74H247L496 648H528L278 -74Z" />
<glyph unicode="&#xbf;" glyph-name="questiondown" horiz-adv-x="279" d="M53 -189Q4 -189 -30 -161T-65 -90T-42 -14T13 46T78 97Q157 157 157 213Q157 243 136 275L151 287Q197 234 197 187Q197 128 126 66Q96 41 66 15Q-5 -48 -5 -102Q-5 -133 13 -150T57
-168Q104 -168 130 -135T156 -54Q156 -41 153 -29Q170 -14 199 -14Q222 -14 222 -47Q222 -104 176 -146T53 -189ZM243 416T243 396T229 362T195 348T162 362T147 396T161 430T195 444T228 430Z" />
<glyph unicode="&#xc0;" glyph-name="Agrave" horiz-adv-x="510" d="M361 18L334 211H113L5 18H67L64 0H-80L-76 18H-41Q-27 18 -20 32L316 630H348L430 32Q432 18 445 18H480L477 0H296L299 18H361ZM291 528L128 239H330L291 528ZM422 687L291 764Q264 779 264
804Q264 818 272 827T295 837T324 823L435 703L422 687Z" />
<glyph unicode="&#xc1;" glyph-name="Aacute" horiz-adv-x="510" d="M361 18L334 211H113L5 18H67L64 0H-80L-76 18H-41Q-27 18 -20 32L316 630H348L430 32Q432 18 445 18H480L477 0H296L299 18H361ZM291 528L128 239H330L291 528ZM407 764L276 687L263 703L374
823Q387 837 402 837T426 828T434 804Q434 779 407 764Z" />
<glyph unicode="&#xc2;" glyph-name="Acircumflex" horiz-adv-x="510" d="M361 18L334 211H113L5 18H67L64 0H-80L-76 18H-41Q-27 18 -20 32L316 630H348L430 32Q432 18 445 18H480L477 0H296L299 18H361ZM291 528L128 239H330L291 528ZM435 687L365 772L263 687L250
703L335 815Q353 837 375 837T407 814L451 696L435 687Z" />
<glyph unicode="&#xc3;" glyph-name="Atilde" horiz-adv-x="510" d="M361 18L334 211H113L5 18H67L64 0H-80L-76 18H-41Q-27 18 -20 32L316 630H348L430 32Q432 18 445 18H480L477 0H296L299 18H361ZM291 528L128 239H330L291 528ZM471 832L489 825Q467 770 446
749T405 728T354 739T305 751T276 742T246 706L229 713Q266 809 316 809Q330 809 362 798T412 786T442 795T471 832Z" />
<glyph unicode="&#xc4;" glyph-name="Adieresis" horiz-adv-x="510" d="M361 18L334 211H113L5 18H67L64 0H-80L-76 18H-41Q-27 18 -20 32L316 630H348L430 32Q432 18 445 18H480L477 0H296L299 18H361ZM291 528L128 239H330L291 528ZM227 755T227 774T240 806T272
819T304 806T317 774T304 742T272 729T240 742ZM387 755T387 774T400 806T432 819T464 806T477 774T464 742T432 729T400 742Z" />
<glyph unicode="&#xc5;" glyph-name="Aring" horiz-adv-x="510" d="M361 18L334 211H113L5 18H67L64 0H-80L-76 18H-41Q-27 18 -20 32L316 630H348L430 32Q432 18 445 18H480L477 0H296L299 18H361ZM291 528L128 239H330L291 528ZM316 691T297 707T278 759T308
826T376 858Q451 858 451 795Q451 748 420 720T353 691ZM352 839T337 810T322 745T350 710Q369 710 388 734T408 788Q408 839 380 839Z" />
<glyph unicode="&#xc6;" glyph-name="AE" horiz-adv-x="711" d="M366 286L310 23H531Q555 23 562 45L604 167H626L616 120Q597 31 597 -9Q568 0 494 0H179L182 18H228Q241 18 244 33L297 286H113L-78 18H-16L-19 0H-165L-161 18H-127Q-116 18 -106 32L299 592Q306
601 306 606T299 612H266L269 630H613Q689 630 721 639Q706 604 685 510L675 463H653L666 590Q666 607 644 607H433L371 314H573Q583 315 587 328L607 390H624L585 210H568L577 272Q577 286 566 286H366ZM345 607L133 314H303L365 607H345Z" />
<glyph unicode="&#xc7;" glyph-name="Ccedilla" horiz-adv-x="549" d="M437 14L438 22Q438 35 427 35Q419 35 396 24Q327 -12 265 -12Q166 -12 108 48T50 216Q50 289 74 363T141 500T254 602T404 642Q466 642 520 606Q538 595 546 595Q558 595 565 616L571 636H589L552
463H535Q536 471 536 486Q536 551 498 582T394 613T274 571T186 466Q119 334 119 204Q119 115 158 66T266 17T391 53T472 167H489L454 0H436L437 14ZM244 0H260L241 -46Q272 -52 288 -72T304 -122T274 -184T194 -216Q168 -216 150 -200T131 -158T142 -119T169 -105T193
-112Q176 -133 176 -163T205 -194Q224 -194 242 -175T260 -125Q260 -84 213 -75L244 0Z" />
<glyph unicode="&#xc8;" glyph-name="Egrave" horiz-adv-x="542" d="M143 630H444Q520 630 552 639Q537 604 516 510L506 463H484L497 590Q497 607 475 607H264L205 329H407Q417 330 421 343L441 405H458L419 225H402L411 287Q411 301 400 301H200L141 23H362Q386
23 393 45L435 167H457L447 120Q428 31 428 -9Q399 0 325 0H10L13 18H59Q72 18 75 33Q195 601 195 606T184 612H140L143 630ZM449 687L318 764Q291 779 291 804Q291 818 299 827T322 837T351 823L462 703L449 687Z" />
<glyph unicode="&#xc9;" glyph-name="Eacute" horiz-adv-x="542" d="M143 630H444Q520 630 552 639Q537 604 516 510L506 463H484L497 590Q497 607 475 607H264L205 329H407Q417 330 421 343L441 405H458L419 225H402L411 287Q411 301 400 301H200L141 23H362Q386
23 393 45L435 167H457L447 120Q428 31 428 -9Q399 0 325 0H10L13 18H59Q72 18 75 33Q195 601 195 606T184 612H140L143 630ZM459 764L328 687L315 703L426 823Q439 837 454 837T478 828T486 804Q486 779 459 764Z" />
<glyph unicode="&#xca;" glyph-name="Ecircumflex" horiz-adv-x="542" d="M143 630H444Q520 630 552 639Q537 604 516 510L506 463H484L497 590Q497 607 475 607H264L205 329H407Q417 330 421 343L441 405H458L419 225H402L411 287Q411 301 400 301H200L141 23H362Q386
23 393 45L435 167H457L447 120Q428 31 428 -9Q399 0 325 0H10L13 18H59Q72 18 75 33Q195 601 195 606T184 612H140L143 630ZM472 687L402 772L300 687L287 703L372 815Q390 837 412 837T444 814L488 696L472 687Z" />
<glyph unicode="&#xcb;" glyph-name="Edieresis" horiz-adv-x="542" d="M143 630H444Q520 630 552 639Q537 604 516 510L506 463H484L497 590Q497 607 475 607H264L205 329H407Q417 330 421 343L441 405H458L419 225H402L411 287Q411 301 400 301H200L141 23H362Q386
23 393 45L435 167H457L447 120Q428 31 428 -9Q399 0 325 0H10L13 18H59Q72 18 75 33Q195 601 195 606T184 612H140L143 630ZM277 755T277 774T290 806T322 819T354 806T367 774T354 742T322 729T290 742ZM437 755T437 774T450 806T482 819T514 806T527 774T514
742T482 729T450 742Z" />
<glyph unicode="&#xcc;" glyph-name="Igrave" horiz-adv-x="307" d="M262 598L142 28Q142 18 153 18H197L194 0H10L13 18H59Q72 18 75 33Q195 601 195 606T184 612H140L143 630H327L324 612H279Q266 612 262 598ZM333 687L202 764Q175 779 175 804Q175 818 183
827T206 837T235 823L346 703L333 687Z" />
<glyph unicode="&#xcd;" glyph-name="Iacute" horiz-adv-x="307" d="M262 598L142 28Q142 18 153 18H197L194 0H10L13 18H59Q72 18 75 33Q195 601 195 606T184 612H140L143 630H327L324 612H279Q266 612 262 598ZM318 764L187 687L174 703L285 823Q298 837 313
837T337 828T345 804Q345 779 318 764Z" />
<glyph unicode="&#xce;" glyph-name="Icircumflex" horiz-adv-x="307" d="M262 598L142 28Q142 18 153 18H197L194 0H10L13 18H59Q72 18 75 33Q195 601 195 606T184 612H140L143 630H327L324 612H279Q266 612 262 598ZM330 687L260 772L158 687L145 703L230 815Q248
837 270 837T302 814L346 696L330 687Z" />
<glyph unicode="&#xcf;" glyph-name="Idieresis" horiz-adv-x="307" d="M262 598L142 28Q142 18 153 18H197L194 0H10L13 18H59Q72 18 75 33Q195 601 195 606T184 612H140L143 630H327L324 612H279Q266 612 262 598ZM136 755T136 774T149 806T181 819T213 806T226
774T213 742T181 729T149 742ZM296 755T296 774T309 806T341 819T373 806T386 774T373 742T341 729T309 742Z" />
<glyph unicode="&#xd0;" glyph-name="Eth" horiz-adv-x="611" d="M379 607H264L141 23H257Q321 23 375 63T462 164Q530 291 530 417Q530 507 489 557T379 607ZM143 630H385Q485 630 543 572T601 408Q601 337 577 266T509 135T399 38T252 0H10L13 18H59Q72 18 75
33Q195 601 195 606T184 612H140L143 630ZM49 295L58 335H387L378 295H49Z" />
<glyph unicode="&#xd1;" glyph-name="Ntilde" horiz-adv-x="639" d="M273 630L472 125Q573 603 573 607T562 612H518L521 630H669L666 612H621Q608 612 604 598L478 0H448L214 587Q97 31 97 25T108 18H152L149 0H0L3 18H49Q62 18 65 33Q185 601 185 606T174 612H130L133
630H273ZM545 832L563 825Q541 770 520 749T479 728T428 739T379 751T349 742T320 706L303 713Q340 809 390 809Q404 809 436 798T486 786T516 795T545 832Z" />
<glyph unicode="&#xd2;" glyph-name="Ograve" horiz-adv-x="627" d="M280 616Q338 642 403 642Q502 642 559 583T617 415Q617 342 593 268T526 130T414 28T255 -12T108 48T50 222T112 452T280 616ZM466 616T400 616T278 574T189 466Q120 332 120 206Q120 115 159
65T265 14T388 56T478 163Q547 296 547 423Q547 514 507 565ZM496 687L365 764Q338 779 338 804Q338 818 346 827T369 837T398 823L509 703L496 687Z" />
<glyph unicode="&#xd3;" glyph-name="Oacute" horiz-adv-x="627" d="M280 616Q338 642 403 642Q502 642 559 583T617 415Q617 342 593 268T526 130T414 28T255 -12T108 48T50 222T112 452T280 616ZM466 616T400 616T278 574T189 466Q120 332 120 206Q120 115 159
65T265 14T388 56T478 163Q547 296 547 423Q547 514 507 565ZM481 764L350 687L337 703L448 823Q461 837 476 837T500 828T508 804Q508 779 481 764Z" />
<glyph unicode="&#xd4;" glyph-name="Ocircumflex" horiz-adv-x="627" d="M280 616Q338 642 403 642Q502 642 559 583T617 415Q617 342 593 268T526 130T414 28T255 -12T108 48T50 222T112 452T280 616ZM466 616T400 616T278 574T189 466Q120 332 120 206Q120
115 159 65T265 14T388 56T478 163Q547 296 547 423Q547 514 507 565ZM494 687L424 772L322 687L309 703L394 815Q412 837 434 837T466 814L510 696L494 687Z" />
<glyph unicode="&#xd5;" glyph-name="Otilde" horiz-adv-x="627" d="M280 616Q338 642 403 642Q502 642 559 583T617 415Q617 342 593 268T526 130T414 28T255 -12T108 48T50 222T112 452T280 616ZM466 616T400 616T278 574T189 466Q120 332 120 206Q120 115 159
65T265 14T388 56T478 163Q547 296 547 423Q547 514 507 565ZM537 832L555 825Q533 770 512 749T471 728T420 739T371 751T341 742T312 706L295 713Q332 809 382 809Q396 809 428 798T478 786T508 795T537 832Z" />
<glyph unicode="&#xd6;" glyph-name="Odieresis" horiz-adv-x="627" d="M280 616Q338 642 403 642Q502 642 559 583T617 415Q617 342 593 268T526 130T414 28T255 -12T108 48T50 222T112 452T280 616ZM466 616T400 616T278 574T189 466Q120 332 120 206Q120 115
159 65T265 14T388 56T478 163Q547 296 547 423Q547 514 507 565ZM302 755T302 774T315 806T347 819T379 806T392 774T379 742T347 729T315 742ZM462 755T462 774T475 806T507 819T539 806T552 774T539 742T507 729T475 742Z" />
<glyph unicode="&#xd7;" glyph-name="multiply" horiz-adv-x="505" d="M178 363L273 233L425 364L452 326L301 196L397 66L353 28L257 158L107 29L79 66L230 196L134 326L178 363Z" />
<glyph unicode="&#xd8;" glyph-name="Oslash" horiz-adv-x="627" d="M280 616Q338 642 403 642Q502 642 559 583T617 415Q617 342 593 268T526 130T414 28T255 -12T108 48T50 222T112 452T280 616ZM466 616T400 616T278 574T189 466Q120 332 120 206Q120 115 159
65T265 14T388 56T478 163Q547 296 547 423Q547 514 507 565ZM225 -80H192L441 714H475L225 -80Z" />
<glyph unicode="&#xd9;" glyph-name="Ugrave" horiz-adv-x="609" d="M89 195L176 604Q176 612 165 612H120L123 630H307L304 612H259Q246 612 242 598L155 188Q149 160 149 137Q149 78 184 50T277 21Q332 21 392 59Q456 100 476 194L562 601Q562 612 552 612H507L510
630H659L656 612H611Q598 612 594 598L509 195Q487 91 420 40T263 -12Q82 -12 82 135Q82 164 89 195ZM490 687L359 764Q332 779 332 804Q332 818 340 827T363 837T392 823L503 703L490 687Z" />
<glyph unicode="&#xda;" glyph-name="Uacute" horiz-adv-x="609" d="M89 195L176 604Q176 612 165 612H120L123 630H307L304 612H259Q246 612 242 598L155 188Q149 160 149 137Q149 78 184 50T277 21Q332 21 392 59Q456 100 476 194L562 601Q562 612 552 612H507L510
630H659L656 612H611Q598 612 594 598L509 195Q487 91 420 40T263 -12Q82 -12 82 135Q82 164 89 195ZM497 764L366 687L353 703L464 823Q477 837 492 837T516 828T524 804Q524 779 497 764Z" />
<glyph unicode="&#xdb;" glyph-name="Ucircumflex" horiz-adv-x="609" d="M89 195L176 604Q176 612 165 612H120L123 630H307L304 612H259Q246 612 242 598L155 188Q149 160 149 137Q149 78 184 50T277 21Q332 21 392 59Q456 100 476 194L562 601Q562 612 552
612H507L510 630H659L656 612H611Q598 612 594 598L509 195Q487 91 420 40T263 -12Q82 -12 82 135Q82 164 89 195ZM510 687L440 772L338 687L325 703L410 815Q428 837 450 837T482 814L526 696L510 687Z" />
<glyph unicode="&#xdc;" glyph-name="Udieresis" horiz-adv-x="609" d="M89 195L176 604Q176 612 165 612H120L123 630H307L304 612H259Q246 612 242 598L155 188Q149 160 149 137Q149 78 184 50T277 21Q332 21 392 59Q456 100 476 194L562 601Q562 612 552 612H507L510
630H659L656 612H611Q598 612 594 598L509 195Q487 91 420 40T263 -12Q82 -12 82 135Q82 164 89 195ZM317 755T317 774T330 806T362 819T394 806T407 774T394 742T362 729T330 742ZM477 755T477 774T490 806T522 819T554 806T567 774T554 742T522 729T490 742Z"
/>
<glyph unicode="&#xdd;" glyph-name="Yacute" horiz-adv-x="455" d="M247 190L203 185L111 598Q108 612 96 612H61L64 630H229L226 612H179L259 257L470 612H423L426 630H555L552 612H517Q505 612 496 598L247 190ZM201 242L265 225Q224 31 224 25T235 18H301L298
0H70L73 18H141Q154 18 157 33L201 242ZM423 764L292 687L279 703L390 823Q403 837 418 837T442 828T450 804Q450 779 423 764Z" />
<glyph unicode="&#xde;" glyph-name="Thorn" horiz-adv-x="485" d="M162 125L142 28Q142 18 153 18H197L194 0H10L13 18H59Q72 18 75 33Q195 601 195 606T184 612H140L143 630H327L324 612H279Q266 612 262 598L242 504H339Q407 504 451 466T495 361Q495 255 422
190T259 125H162ZM328 481H237L166 148H260Q332 148 380 218T429 365Q429 415 404 448T328 481Z" />
<glyph unicode="&#xdf;" glyph-name="germandbls" horiz-adv-x="483" d="M405 457T423 490T441 557T419 614T359 637Q257 637 222 471L128 32Q73 -228 -45 -228Q-83 -228 -104 -205T-125 -154T-114 -103T-77 -80T-41 -93Q-54 -103 -62 -123T-71 -162Q-71 -205
-35 -205Q5 -205 26 -141T84 106L142 402Q165 520 220 590T354 660T466 629T498 559T471 483T410 417T350 358T322 305T356 254L401 216Q447 177 447 137Q447 83 400 36T282 -12Q239 -12 212 7T184 60T196 115T230 138T262 124Q238 83 238 54Q238 10 287 10Q327
10 358 38T390 96T354 157L296 206Q264 233 264 262T282 320T326 376T378 430ZM52 396L57 415H204L199 396H52Z" />
<glyph unicode="&#xe0;" glyph-name="agrave" horiz-adv-x="500" d="M410 321T379 202T348 50T373 16Q392 16 414 41T452 114L468 110Q425 -12 356 -12Q294 -12 294 63Q294 78 299 111H294Q232 -12 150 -12Q103 -12 72 29T40 131T56 244T101 341T178 415T283 444Q357
444 400 381L431 435L445 425Q410 321 379 202ZM174 18Q216 18 259 83Q308 158 350 328Q359 368 364 386Q329 420 284 420T203 389T147 311Q106 215 106 130Q106 74 124 46T174 18ZM371 489L240 566Q213 581 213 606Q213 620 221 629T244 639T273 625L384 505L371
489Z" />
<glyph unicode="&#xe1;" glyph-name="aacute" horiz-adv-x="500" d="M410 321T379 202T348 50T373 16Q392 16 414 41T452 114L468 110Q425 -12 356 -12Q294 -12 294 63Q294 78 299 111H294Q232 -12 150 -12Q103 -12 72 29T40 131T56 244T101 341T178 415T283 444Q357
444 400 381L431 435L445 425Q410 321 379 202ZM174 18Q216 18 259 83Q308 158 350 328Q359 368 364 386Q329 420 284 420T203 389T147 311Q106 215 106 130Q106 74 124 46T174 18ZM378 566L247 489L234 505L345 625Q358 639 373 639T397 630T405 606Q405 581 378
566Z" />
<glyph unicode="&#xe2;" glyph-name="acircumflex" horiz-adv-x="500" d="M410 321T379 202T348 50T373 16Q392 16 414 41T452 114L468 110Q425 -12 356 -12Q294 -12 294 63Q294 78 299 111H294Q232 -12 150 -12Q103 -12 72 29T40 131T56 244T101 341T178 415T283
444Q357 444 400 381L431 435L445 425Q410 321 379 202ZM174 18Q216 18 259 83Q308 158 350 328Q359 368 364 386Q329 420 284 420T203 389T147 311Q106 215 106 130Q106 74 124 46T174 18ZM386 489L316 574L214 489L201 505L286 617Q304 639 326 639T358 616L402
498L386 489Z" />
<glyph unicode="&#xe3;" glyph-name="atilde" horiz-adv-x="500" d="M410 321T379 202T348 50T373 16Q392 16 414 41T452 114L468 110Q425 -12 356 -12Q294 -12 294 63Q294 78 299 111H294Q232 -12 150 -12Q103 -12 72 29T40 131T56 244T101 341T178 415T283 444Q357
444 400 381L431 435L445 425Q410 321 379 202ZM174 18Q216 18 259 83Q308 158 350 328Q359 368 364 386Q329 420 284 420T203 389T147 311Q106 215 106 130Q106 74 124 46T174 18ZM432 634L450 627Q428 572 407 551T366 530T315 541T266 553T236 544T207 508L190
515Q227 611 277 611Q291 611 323 600T373 588T403 597T432 634Z" />
<glyph unicode="&#xe4;" glyph-name="adieresis" horiz-adv-x="500" d="M410 321T379 202T348 50T373 16Q392 16 414 41T452 114L468 110Q425 -12 356 -12Q294 -12 294 63Q294 78 299 111H294Q232 -12 150 -12Q103 -12 72 29T40 131T56 244T101 341T178 415T283
444Q357 444 400 381L431 435L445 425Q410 321 379 202ZM174 18Q216 18 259 83Q308 158 350 328Q359 368 364 386Q329 420 284 420T203 389T147 311Q106 215 106 130Q106 74 124 46T174 18ZM190 557T190 576T203 608T235 621T267 608T280 576T267 544T235 531T203
544ZM350 557T350 576T363 608T395 621T427 608T440 576T427 544T395 531T363 544Z" />
<glyph unicode="&#xe5;" glyph-name="aring" horiz-adv-x="500" d="M410 321T379 202T348 50T373 16Q392 16 414 41T452 114L468 110Q425 -12 356 -12Q294 -12 294 63Q294 78 299 111H294Q232 -12 150 -12Q103 -12 72 29T40 131T56 244T101 341T178 415T283 444Q357
444 400 381L431 435L445 425Q410 321 379 202ZM174 18Q216 18 259 83Q308 158 350 328Q359 368 364 386Q329 420 284 420T203 389T147 311Q106 215 106 130Q106 74 124 46T174 18ZM268 493T249 509T230 561T260 628T328 660Q403 660 403 597Q403 550 372 522T305
493ZM304 641T289 612T274 547T302 512Q321 512 340 536T360 590Q360 641 332 641Z" />
<glyph unicode="&#xe6;" glyph-name="ae" horiz-adv-x="669" d="M606 444T632 419T659 346T622 263Q559 203 435 203Q407 203 386 206Q378 169 378 122T399 43T458 12Q557 12 603 120L619 116Q595 55 550 22T447 -12T351 30T312 147Q248 -12 150 -12Q103 -12 72
29T40 131T56 244T101 341T178 415T283 444T384 401L415 435L429 425L414 388Q475 444 553 444Q606 444 632 419ZM106 74T124 46T175 18T239 57T296 156Q344 271 364 386Q329 420 284 420T203 389T147 311Q106 215 106 130Q106 74 124 46ZM548 420Q489 420 449
363T390 225Q416 223 429 223Q512 223 557 265T603 357Q603 384 589 402T548 420Z" />
<glyph unicode="&#xe7;" glyph-name="ccedilla" horiz-adv-x="397" d="M276 420Q235 420 201 389T146 312Q106 215 106 144Q106 12 186 12Q285 12 331 120L347 116Q323 55 278 22T175 -12T79 30T40 143T67 280T151 395T281 444Q331 444 356 419T382 358T370 294T331
266T291 282Q320 326 320 368Q320 420 276 420ZM158 0H174L155 -46Q186 -52 202 -72T218 -122T188 -184T108 -216Q82 -216 64 -200T45 -158T56 -119T83 -105T107 -112Q90 -133 90 -163T119 -194Q138 -194 156 -175T174 -125Q174 -84 127 -75L158 0Z" />
<glyph unicode="&#xe8;" glyph-name="egrave" horiz-adv-x="397" d="M334 444T360 419T387 346T350 263Q287 203 163 203Q126 203 99 209V228Q134 223 157 223Q240 223 285 265T331 357Q331 384 317 402T269 420T201 389T146 312Q106 215 106 144Q106 12 186 12Q285
12 331 120L347 116Q323 55 278 22T175 -12T79 30T40 143T67 280T151 395T281 444Q334 444 360 419ZM357 489L226 566Q199 581 199 606Q199 620 207 629T230 639T259 625L370 505L357 489Z" />
<glyph unicode="&#xe9;" glyph-name="eacute" horiz-adv-x="397" d="M334 444T360 419T387 346T350 263Q287 203 163 203Q126 203 99 209V228Q134 223 157 223Q240 223 285 265T331 357Q331 384 317 402T269 420T201 389T146 312Q106 215 106 144Q106 12 186 12Q285
12 331 120L347 116Q323 55 278 22T175 -12T79 30T40 143T67 280T151 395T281 444Q334 444 360 419ZM354 566L223 489L210 505L321 625Q334 639 349 639T373 630T381 606Q381 581 354 566Z" />
<glyph unicode="&#xea;" glyph-name="ecircumflex" horiz-adv-x="397" d="M334 444T360 419T387 346T350 263Q287 203 163 203Q126 203 99 209V228Q134 223 157 223Q240 223 285 265T331 357Q331 384 317 402T269 420T201 389T146 312Q106 215 106 144Q106 12
186 12Q285 12 331 120L347 116Q323 55 278 22T175 -12T79 30T40 143T67 280T151 395T281 444Q334 444 360 419ZM367 489L297 574L195 489L182 505L267 617Q285 639 307 639T339 616L383 498L367 489Z" />
<glyph unicode="&#xeb;" glyph-name="edieresis" horiz-adv-x="397" d="M334 444T360 419T387 346T350 263Q287 203 163 203Q126 203 99 209V228Q134 223 157 223Q240 223 285 265T331 357Q331 384 317 402T269 420T201 389T146 312Q106 215 106 144Q106 12 186
12Q285 12 331 120L347 116Q323 55 278 22T175 -12T79 30T40 143T67 280T151 395T281 444Q334 444 360 419ZM173 557T173 576T186 608T218 621T250 608T263 576T250 544T218 531T186 544ZM333 557T333 576T346 608T378 621T410 608T423 576T410 544T378 531T346
544Z" />
<glyph unicode="&#xec;" glyph-name="igrave" horiz-adv-x="276" d="M70 63Q70 116 143 398L79 393L78 410Q147 419 207 435L221 425Q186 321 155 202T124 50T149 16Q168 16 190 41T228 114L244 110Q201 -12 132 -12Q70 -12 70 63ZM263 489L132 566Q105 581 105
606Q105 620 113 629T136 639T165 625L276 505L263 489Z" />
<glyph unicode="&#xed;" glyph-name="iacute" horiz-adv-x="276" d="M70 63Q70 116 143 398L79 393L78 410Q147 419 207 435L221 425Q186 321 155 202T124 50T149 16Q168 16 190 41T228 114L244 110Q201 -12 132 -12Q70 -12 70 63ZM263 566L132 489L119 505L230
625Q243 639 258 639T282 630T290 606Q290 581 263 566Z" />
<glyph unicode="&#xee;" glyph-name="icircumflex" horiz-adv-x="276" d="M70 63Q70 116 143 398L79 393L78 410Q147 419 207 435L221 425Q186 321 155 202T124 50T149 16Q168 16 190 41T228 114L244 110Q201 -12 132 -12Q70 -12 70 63ZM275 489L205 574L103 489L90
505L175 617Q193 639 215 639T247 616L291 498L275 489Z" />
<glyph unicode="&#xef;" glyph-name="idieresis" horiz-adv-x="276" d="M70 63Q70 116 143 398L79 393L78 410Q147 419 207 435L221 425Q186 321 155 202T124 50T149 16Q168 16 190 41T228 114L244 110Q201 -12 132 -12Q70 -12 70 63ZM71 557T71 576T84 608T116
621T148 608T161 576T148 544T116 531T84 544ZM231 557T231 576T244 608T276 621T308 608T321 576T308 544T276 531T244 544Z" />
<glyph unicode="&#xf0;" glyph-name="eth" horiz-adv-x="470" d="M382 373L385 374Q374 566 224 637L235 660Q330 626 380 531T430 311T367 87T197 -12Q127 -12 86 30T45 148Q45 271 119 354T271 437T382 373ZM362 344T340 376T278 409T205 381T150 309Q108 219
108 148T132 43T201 10T287 60T344 171T362 288ZM238 488L223 521L455 633L470 600L238 488Z" />
<glyph unicode="&#xf1;" glyph-name="ntilde" horiz-adv-x="503" d="M448 310T400 195T351 48T376 16Q395 16 417 41T455 114L471 110Q428 -12 359 -12Q297 -12 297 56Q297 85 342 200T388 348Q388 411 342 411Q292 411 234 330Q167 233 115 0L45 -6L143 398L79
393L78 410Q147 419 207 435L221 425Q173 315 137 172H145L161 216Q215 367 278 412Q308 432 327 438T376 444T427 420T448 353ZM450 634L468 627Q446 572 425 551T384 530T333 541T284 553T254 544T225 508L208 515Q245 611 295 611Q309 611 341 600T391 588T421
597T450 634Z" />
<glyph unicode="&#xf2;" glyph-name="ograve" horiz-adv-x="460" d="M40 145Q40 248 100 342Q129 387 176 415T283 444T382 403T420 291T394 153T312 37T186 -12T78 29T40 145ZM275 422Q221 422 180 368T121 250T103 131T125 43T187 10T261 42T316 121Q357 217
357 287T335 390T275 422ZM377 489L246 566Q219 581 219 606Q219 620 227 629T250 639T279 625L390 505L377 489Z" />
<glyph unicode="&#xf3;" glyph-name="oacute" horiz-adv-x="460" d="M40 145Q40 248 100 342Q129 387 176 415T283 444T382 403T420 291T394 153T312 37T186 -12T78 29T40 145ZM275 422Q221 422 180 368T121 250T103 131T125 43T187 10T261 42T316 121Q357 217
357 287T335 390T275 422ZM375 566L244 489L231 505L342 625Q355 639 370 639T394 630T402 606Q402 581 375 566Z" />
<glyph unicode="&#xf4;" glyph-name="ocircumflex" horiz-adv-x="460" d="M40 145Q40 248 100 342Q129 387 176 415T283 444T382 403T420 291T394 153T312 37T186 -12T78 29T40 145ZM275 422Q221 422 180 368T121 250T103 131T125 43T187 10T261 42T316 121Q357
217 357 287T335 390T275 422ZM388 489L318 574L216 489L203 505L288 617Q306 639 328 639T360 616L404 498L388 489Z" />
<glyph unicode="&#xf5;" glyph-name="otilde" horiz-adv-x="460" d="M40 145Q40 248 100 342Q129 387 176 415T283 444T382 403T420 291T394 153T312 37T186 -12T78 29T40 145ZM275 422Q221 422 180 368T121 250T103 131T125 43T187 10T261 42T316 121Q357 217
357 287T335 390T275 422ZM420 634L438 627Q416 572 395 551T354 530T303 541T254 553T224 544T195 508L178 515Q215 611 265 611Q279 611 311 600T361 588T391 597T420 634Z" />
<glyph unicode="&#xf6;" glyph-name="odieresis" horiz-adv-x="460" d="M40 145Q40 248 100 342Q129 387 176 415T283 444T382 403T420 291T394 153T312 37T186 -12T78 29T40 145ZM275 422Q221 422 180 368T121 250T103 131T125 43T187 10T261 42T316 121Q357
217 357 287T335 390T275 422ZM195 557T195 576T208 608T240 621T272 608T285 576T272 544T240 531T208 544ZM355 557T355 576T368 608T400 621T432 608T445 576T432 544T400 531T368 544Z" />
<glyph unicode="&#xf7;" glyph-name="divide" horiz-adv-x="505" d="M447 170H74L85 223H458L447 170ZM288 66Q285 40 267 25T231 9T205 19T195 49T212 86T248 105T277 94T288 66ZM347 345Q344 319 327 304T292 288T264 298T254 328T271 366T307 384T336 373T347 345Z" />
<glyph unicode="&#xf8;" glyph-name="oslash" horiz-adv-x="460" d="M40 145Q40 248 100 342Q129 387 176 415T283 444T382 403T420 291T394 153T312 37T186 -12T78 29T40 145ZM275 422Q221 422 180 368T121 250T103 131T125 43T187 10T261 42T316 121Q357 217
357 287T335 390T275 422ZM122 113H89L338 835H372L122 113Z" />
<glyph unicode="&#xf9;" glyph-name="ugrave" horiz-adv-x="517" d="M311 63Q311 78 316 111H311Q247 -12 163 -12Q73 -12 73 88Q73 153 119 329L137 398L73 393L72 410Q141 419 201 435L215 425Q131 164 131 91T186 18Q232 18 276 85T350 267L384 398L320 393L319
410Q388 419 448 435L462 425Q427 321 396 202T365 50T390 16Q409 16 431 41T469 114L485 110Q442 -12 373 -12Q311 -12 311 63ZM376 489L245 566Q218 581 218 606Q218 620 226 629T249 639T278 625L389 505L376 489Z" />
<glyph unicode="&#xfa;" glyph-name="uacute" horiz-adv-x="517" d="M311 63Q311 78 316 111H311Q247 -12 163 -12Q73 -12 73 88Q73 153 119 329L137 398L73 393L72 410Q141 419 201 435L215 425Q131 164 131 91T186 18Q232 18 276 85T350 267L384 398L320 393L319
410Q388 419 448 435L462 425Q427 321 396 202T365 50T390 16Q409 16 431 41T469 114L485 110Q442 -12 373 -12Q311 -12 311 63ZM388 566L257 489L244 505L355 625Q368 639 383 639T407 630T415 606Q415 581 388 566Z" />
<glyph unicode="&#xfb;" glyph-name="ucircumflex" horiz-adv-x="517" d="M311 63Q311 78 316 111H311Q247 -12 163 -12Q73 -12 73 88Q73 153 119 329L137 398L73 393L72 410Q141 419 201 435L215 425Q131 164 131 91T186 18Q232 18 276 85T350 267L384 398L320
393L319 410Q388 419 448 435L462 425Q427 321 396 202T365 50T390 16Q409 16 431 41T469 114L485 110Q442 -12 373 -12Q311 -12 311 63ZM401 489L331 574L229 489L216 505L301 617Q319 639 341 639T373 616L417 498L401 489Z" />
<glyph unicode="&#xfc;" glyph-name="udieresis" horiz-adv-x="517" d="M311 63Q311 78 316 111H311Q247 -12 163 -12Q73 -12 73 88Q73 153 119 329L137 398L73 393L72 410Q141 419 201 435L215 425Q131 164 131 91T186 18Q232 18 276 85T350 267L384 398L320
393L319 410Q388 419 448 435L462 425Q427 321 396 202T365 50T390 16Q409 16 431 41T469 114L485 110Q442 -12 373 -12Q311 -12 311 63ZM207 557T207 576T220 608T252 621T284 608T297 576T284 544T252 531T220 544ZM367 557T367 576T380 608T412 621T444 608T457
576T444 544T412 531T380 544Z" />
<glyph unicode="&#xfd;" glyph-name="yacute" horiz-adv-x="472" d="M371 566L240 489L227 505L338 625Q351 639 366 639T390 630T398 606Q398 581 371 566ZM264 21T327 114T391 289T339 423Q364 444 385 444Q424 444 424 334T400 133T338 -23T250 -134Q155 -228
57 -228Q7 -228 -18 -205T-44 -151T-32 -95T6 -70T47 -84Q18 -121 18 -152Q18 -202 71 -202Q106 -202 152 -177T245 -105T331 20T387 189Q354 102 299 45T171 -12Q134 -12 112 13T89 83T122 237T156 381T130 416Q111 416 90 391T56 318L39 322Q76 444 146 444Q211
444 211 374Q211 346 180 235T149 89Q149 21 200 21Q264 21 327 114Z" />
<glyph unicode="&#xfe;" glyph-name="thorn" horiz-adv-x="476" d="M-7 -222L199 620L135 615L134 632Q203 641 263 657L277 647Q206 440 138 172H146L162 216Q245 444 352 444Q395 444 425 402T456 300T441 189T396 93T320 20T216 -8Q129 -8 80 69L87 86Q135
13 213 13Q258 13 293 43T348 118Q386 210 386 298Q386 349 372 377T334 406Q287 406 229 315T123 31L63 -216L-7 -222Z" />
<glyph unicode="&#xff;" glyph-name="ydieresis" horiz-adv-x="472" d="M264 21T327 114T391 289T339 423Q364 444 385 444Q424 444 424 334T400 133T338 -23T250 -134Q155 -228 57 -228Q7 -228 -18 -205T-44 -151T-32 -95T6 -70T47 -84Q18 -121 18 -152Q18 -202
71 -202Q106 -202 152 -177T245 -105T331 20T387 189Q354 102 299 45T171 -12Q134 -12 112 13T89 83T122 237T156 381T130 416Q111 416 90 391T56 318L39 322Q76 444 146 444Q211 444 211 374Q211 346 180 235T149 89Q149 21 200 21Q264 21 327 114ZM177 557T177
576T190 608T222 621T254 608T267 576T254 544T222 531T190 544ZM337 557T337 576T350 608T382 621T414 608T427 576T414 544T382 531T350 544Z" />
<glyph unicode="&#x2013;" glyph-name="endash" horiz-adv-x="368" d="M30 211L39 251H368L359 211H30Z" />
<glyph unicode="&#x2014;" glyph-name="emdash" horiz-adv-x="609" d="M30 211L39 251H609L600 211H30Z" />
<glyph unicode="&#x2018;" glyph-name="quoteleft" horiz-adv-x="78" d="M148 654Q83 604 83 549Q83 519 104 500Q99 477 81 460T41 443Q0 443 0 484T40 581T140 668L148 654Z" />
<glyph unicode="&#x2019;" glyph-name="quoteright" horiz-adv-x="208" d="M60 457Q125 507 125 562Q125 592 104 611Q109 634 127 651T167 668Q208 668 208 627T168 530T68 443L60 457Z" />
<glyph unicode="&#x201a;" glyph-name="quotesinglbase" horiz-adv-x="182" d="M5 -111Q70 -61 70 -6Q70 24 49 43Q54 66 72 83T112 100Q153 100 153 59T113 -38T13 -125L5 -111Z" />
<glyph unicode="&#x201c;" glyph-name="quotedblleft" horiz-adv-x="223" d="M148 654Q83 604 83 549Q83 519 104 500Q99 477 81 460T41 443Q0 443 0 484T40 581T140 668L148 654ZM293 654Q228 604 228 549Q228 519 249 500Q244 477 226 460T186 443Q145 443 145
484T185 581T285 668L293 654Z" />
<glyph unicode="&#x201d;" glyph-name="quotedblright" horiz-adv-x="353" d="M60 457Q125 507 125 562Q125 592 104 611Q109 634 127 651T167 668Q208 668 208 627T168 530T68 443L60 457ZM205 457Q270 507 270 562Q270 592 249 611Q254 634 272 651T312 668Q353
668 353 627T313 530T213 443L205 457Z" />
<glyph unicode="&#x201e;" glyph-name="quotedblbase" horiz-adv-x="327" d="M5 -111Q70 -61 70 -6Q70 24 49 43Q54 66 72 83T112 100Q153 100 153 59T113 -38T13 -125L5 -111ZM150 -111Q215 -61 215 -6Q215 24 194 43Q199 66 217 83T257 100Q298 100 298 59T258
-38T158 -125L150 -111Z" />
<glyph unicode="&#x2022;" glyph-name="bullet" horiz-adv-x="226" d="M40 253T40 283T61 334T113 356T164 335T186 283T165 232T113 210T62 231Z" />
<glyph unicode="&#x2039;" glyph-name="guilsinglleft" horiz-adv-x="234" d="M30 225L33 237L221 408L234 394L110 231L165 68L146 54L30 225Z" />
<glyph unicode="&#x203a;" glyph-name="guilsinglright" horiz-adv-x="234" d="M215 237L212 225L24 54L12 68L136 231L81 394L99 408L215 237Z" />
</font>
</defs>
</svg>
