<?xml version="1.0" standalone="no"?>
<!DOCTYPE svg PUBLIC "-//W3C//DTD SVG 1.1//EN" "http://www.w3.org/Graphics/SVG/1.1/DTD/svg11.dtd">
<svg xmlns="http://www.w3.org/2000/svg">
<defs >
<font id="Athiti" horiz-adv-x="512" ><font-face
    font-family="Athiti"
    units-per-em="1000"
    panose-1="0 0 5 0 0 0 0 0 0 0"
    ascent="1150"
    descent="-450"
    alphabetic="0" />
<glyph unicode=" " glyph-name="space" horiz-adv-x="300" />
<glyph unicode="!" glyph-name="exclam" horiz-adv-x="253" d="M93 417V614H159V417L152 171H100L93 417ZM93 85H161V0H93V85Z" />
<glyph unicode="&quot;" glyph-name="quotedbl" horiz-adv-x="330" d="M205 585T203 548L195 423H157H135L127 548Q125 585 130 614H178H200Q205 585 203 548Z" />
<glyph unicode="#" glyph-name="numbersign" horiz-adv-x="697" d="M161 -1L185 182H77V238H193L214 389H102V445H221L247 626L306 623L282 445H443L468 626L527 623L503 445H611V389H496L476 238H586V182H468L443 -4L382 -1L407 182H247L221 -4L161 -1ZM415 238L435
389H274L254 238H415Z" />
<glyph unicode="$" glyph-name="dollar" horiz-adv-x="529" d="M240 -7Q148 -4 67 37L89 92Q130 71 172 62T265 53Q329 53 383 66Q400 108 400 155Q400 191 388 213T349 250T271 278Q180 302 131 339T82 452Q82 523 121 568T243 624V714H301V626Q348 623 381 614T442
587V565Q442 524 428 480H385L376 562Q312 570 277 570Q207 570 176 542T145 457Q145 423 159 402T203 367T289 338Q384 313 423 277T463 169Q463 97 425 50T298 -6V-110H240V-7Z" />
<glyph unicode="%" glyph-name="percent" horiz-adv-x="775" d="M184 11L551 610L596 593L226 -9L184 11ZM87 308T87 451Q87 524 116 564T209 604Q323 604 323 461Q323 388 293 348T200 308Q87 308 87 451ZM238 352T262 361Q274 401 274 453Q274 513 260 536T203
560Q170 560 148 551Q136 506 136 459Q136 398 150 375T205 352Q238 352 262 361ZM452 -8T452 135Q452 208 481 248T574 288Q688 288 688 145Q688 72 658 32T565 -8Q452 -8 452 135ZM603 36T627 45Q639 85 639 137Q639 197 625 220T568 244Q536 244 513 235Q501
190 501 143Q501 82 515 59T570 36Q603 36 627 45Z" />
<glyph unicode="&amp;" glyph-name="ampersand" horiz-adv-x="690" d="M200 -11T143 32T85 159Q85 228 118 269T219 336V344Q191 371 178 399T164 462Q164 530 208 567T331 604Q388 604 428 587T491 543V512Q491 480 479 446H437L429 530Q385 549 331 549Q277
549 252 528T226 463Q226 426 237 404T279 352L453 186Q467 231 479 315L538 301Q527 242 520 211T501 148L624 25L578 -7L491 84H484Q472 44 455 14Q426 1 390 -5T297 -11Q200 -11 143 32ZM338 45T362 48T410 58Q427 86 434 128L256 298Q201 281 174 249T147 159Q147
100 187 73T299 45Q338 45 362 48Z" />
<glyph unicode="&apos;" glyph-name="quotesingle" horiz-adv-x="231" d="M88 548Q86 585 91 614H139Q144 585 142 548L134 423H96L88 548Z" />
<glyph unicode="(" glyph-name="parenleft" horiz-adv-x="327" d="M141 -88T119 -65T92 -16V630Q96 655 118 678T172 711Q207 711 239 706V651H155V-37H239V-92Q207 -97 172 -97Q141 -88 119 -65Z" />
<glyph unicode=")" glyph-name="parenright" horiz-adv-x="327" d="M121 -97T89 -92V-37H173V651H89V706Q121 711 156 711Q187 701 209 678T236 630V-16Q232 -42 210 -65T156 -97Q121 -97 89 -92Z" />
<glyph unicode="*" glyph-name="asterisk" horiz-adv-x="478" d="M115 350L204 463L202 467L77 501L94 554L216 503L219 506L212 645H267L259 506L263 503L385 554L402 501L276 467L275 463L364 350L319 318L243 437H236L160 318L115 350Z" />
<glyph unicode="+" glyph-name="plus" horiz-adv-x="557" d="M251 280H67V331H251V510H306V331H490V280H306V84H251V280Z" />
<glyph unicode="," glyph-name="comma" horiz-adv-x="238" d="M87 -89Q104 -57 113 -27T122 41H68V84Q89 92 111 92Q172 92 172 25Q172 -7 160 -38T125 -98L87 -89Z" />
<glyph unicode="-" glyph-name="hyphen" horiz-adv-x="405" d="M71 306H334V253H71V306Z" />
<glyph unicode="." glyph-name="period" horiz-adv-x="241" d="M81 81H160V0H81V81Z" />
<glyph unicode="/" glyph-name="slash" horiz-adv-x="464" d="M75 -79L336 661L390 648L129 -93L75 -79Z" />
<glyph unicode="0" glyph-name="zero" horiz-adv-x="622" d="M185 -7T129 65T72 288Q72 445 127 524T320 604Q440 604 495 532T551 308Q551 204 529 135T451 30T302 -7Q185 -7 129 65ZM349 52T385 57T444 72Q486 172 486 294Q486 386 470 440T415 519T308 545Q273
545 237 539T177 524Q135 428 135 303Q135 211 152 157T207 78T314 52Q349 52 385 57Z" />
<glyph unicode="1" glyph-name="one" horiz-adv-x="375" d="M207 527L198 534L74 487L57 530L204 604Q224 602 247 587T271 559V0H207V527Z" />
<glyph unicode="2" glyph-name="two" horiz-adv-x="561" d="M70 79Q176 151 245 207T357 321T400 436Q400 497 372 521T277 546Q216 546 153 526V431H105Q90 476 90 521V561Q136 582 182 593T283 604Q376 604 419 564T463 441Q463 369 421 305T312 185T146 64V56H424V127H473Q487
87 487 42V0H70V79Z" />
<glyph unicode="3" glyph-name="three" horiz-adv-x="526" d="M153 -8T63 16L74 72Q150 50 244 50Q309 50 361 61Q384 97 384 156Q384 214 353 241T246 268H157V324H246Q312 324 344 352T377 433Q377 491 346 519T253 547Q194 547 129 532V446H81Q66 491 66 530V566Q116
585 160 594T259 604Q351 604 395 562T439 441Q439 387 417 355T347 301V295Q403 276 424 244T446 156Q446 78 400 35T243 -8Q153 -8 63 16Z" />
<glyph unicode="4" glyph-name="four" horiz-adv-x="569" d="M364 120H71L53 181L347 604H424V176H510V120H424V0H364V120ZM364 176V377L371 532H364L122 183L124 176H364Z" />
<glyph unicode="5" glyph-name="five" horiz-adv-x="527" d="M202 -8T160 -2T71 18L80 76Q176 50 256 50Q294 50 321 54T378 66Q400 123 400 185Q400 254 371 280T276 307Q238 307 209 302T142 282L88 324L108 604H421V546H166L151 343Q188 354 218 359T283 365Q371
365 417 324T463 192Q463 93 415 43T250 -8Q202 -8 160 -2Z" />
<glyph unicode="6" glyph-name="six" horiz-adv-x="523" d="M174 0T123 61T71 231Q71 351 127 439T295 602L350 573Q257 511 208 452T140 314Q218 361 299 361Q386 361 429 317T473 185Q473 106 428 53T278 0Q174 0 123 61ZM314 57T337 60T387 71Q409 119 409
185Q409 249 383 276T288 304Q210 304 134 261Q133 250 133 231Q133 140 168 99T281 57Q314 57 337 60Z" />
<glyph unicode="7" glyph-name="seven" horiz-adv-x="541" d="M188 9Q222 171 277 297T413 540V546H128V459H80Q65 499 65 550V604H479V532Q390 398 337 274T253 2L188 9Z" />
<glyph unicode="8" glyph-name="eight" horiz-adv-x="568" d="M181 -7T129 37T77 162Q77 218 97 248T160 310V317Q125 341 109 367T92 435Q92 514 145 559T301 604Q390 604 435 560T480 433Q480 387 463 357T411 304V296Q455 270 473 239T492 159Q492 77 443 35T282
-7Q181 -7 129 37ZM366 329T405 343Q419 379 419 422Q419 472 406 498T364 536T282 547Q218 547 171 530Q161 506 157 486T153 441Q153 377 189 353T305 329Q366 329 405 343ZM369 49T416 70Q429 103 429 146Q429 197 416 225T370 266T281 279Q211 279 169 268Q152
245 145 221T138 164Q138 98 175 74T301 49Q369 49 416 70Z" />
<glyph unicode="9" glyph-name="nine" horiz-adv-x="526" d="M177 29Q266 89 313 140T380 259Q343 237 307 226T228 214Q147 214 99 261T51 394Q51 485 101 543T256 602Q357 602 406 537T455 359Q455 237 401 156T231 0L177 29ZM282 270T318 280T391 314Q393 342
393 359Q393 545 248 545Q185 545 140 530Q127 496 121 464T114 394Q114 270 238 270Q282 270 318 280Z" />
<glyph unicode=":" glyph-name="colon" horiz-adv-x="241" d="M81 425H160V344H81V425ZM81 90H160V9H81V90Z" />
<glyph unicode=";" glyph-name="semicolon" horiz-adv-x="266" d="M89 425H168V344H89V425ZM100 -40Q117 -8 126 22T135 90H81V133Q102 141 124 141Q185 141 185 74Q185 42 173 11T138 -49L100 -40Z" />
<glyph unicode="&lt;" glyph-name="less" horiz-adv-x="584" d="M72 218V279L476 466L492 409L134 252V246L492 88L476 32L72 218Z" />
<glyph unicode="=" glyph-name="equal" horiz-adv-x="572" d="M87 372H486V318H87V372ZM87 173H486V119H87V173Z" />
<glyph unicode="&gt;" glyph-name="greater" horiz-adv-x="584" d="M92 88L451 246V252L92 409L108 466L512 279V218L108 32L92 88Z" />
<glyph unicode="?" glyph-name="question" horiz-adv-x="535" d="M207 220Q207 242 212 254T233 279L393 399V468Q393 521 364 544T269 567Q192 567 137 551V474H91Q77 513 77 552V583Q106 600 160 612T271 625Q369 625 412 585T455 464Q455 417 444 388T398 335L288
254Q276 244 273 236T269 210V154H207V220ZM205 83H270V0H205V83Z" />
<glyph unicode="@" glyph-name="at" horiz-adv-x="799" d="M258 -59T170 26T82 270Q82 363 119 439T233 561T418 607Q514 607 582 570T686 468T721 323Q721 237 684 177T567 117Q536 117 514 128T471 165H465Q444 140 420 128T362 115Q314 115 285 148T256 236Q256
285 272 329T320 401T399 429Q448 429 481 385H486L501 417L544 410L501 188Q531 164 575 164Q616 164 639 171Q668 224 668 320Q668 428 605 494T418 560Q326 560 262 522T166 418T134 270Q134 127 211 58T431 -12Q496 -12 543 0T635 36L654 -4Q614 -30 554 -44T427
-59Q258 -59 170 26ZM417 162T446 191L473 345Q459 364 444 373T409 382Q365 382 339 340T313 238Q313 200 328 181T375 162Q417 162 446 191Z" />
<glyph unicode="A" glyph-name="A" horiz-adv-x="591" d="M40 7Q82 162 133 323T233 614H358Q407 485 458 324T551 7L484 0Q461 93 427 209H163Q125 72 107 0L40 7ZM409 265Q350 465 317 553H273Q235 450 180 265H409Z" />
<glyph unicode="B" glyph-name="B" horiz-adv-x="535" d="M81 602Q163 624 241 624Q349 624 401 582T454 455Q454 364 373 315V310Q484 274 484 172Q484 114 463 77T389 20T244 0H81V602ZM339 338Q392 384 392 454Q392 514 355 540T238 566Q197 566 143 557V338H339ZM237
57Q310 57 350 69T406 105T422 169Q422 220 387 250T284 281H143V57H237Z" />
<glyph unicode="C" glyph-name="C" horiz-adv-x="555" d="M57 -9T57 291Q57 442 120 533T312 624Q363 624 410 613T485 585V539Q485 499 474 472H433L423 554Q377 565 311 565Q249 565 187 548Q120 448 120 295Q120 168 167 109T319 50Q366 50 408 61T480 91L509
44Q477 18 428 5T317 -9Q57 -9 57 291Z" />
<glyph unicode="D" glyph-name="D" horiz-adv-x="573" d="M81 605Q163 624 249 624Q395 624 459 546T523 316Q523 217 499 149T413 40T239 0H81V605ZM238 58Q335 58 404 78Q431 115 445 175T460 310Q460 399 440 455T372 538T245 566Q203 566 144 558V58H238Z" />
<glyph unicode="E" glyph-name="E" horiz-adv-x="523" d="M191 -9T136 10T81 74V614H452V556H143V336H423V280H143V61Q207 49 289 49Q379 49 449 65L463 10Q391 -9 286 -9Q191 -9 136 10Z" />
<glyph unicode="F" glyph-name="F" horiz-adv-x="491" d="M82 616H461V558H145V336H410V280H145V0H82V616Z" />
<glyph unicode="G" glyph-name="G" horiz-adv-x="588" d="M193 -9T125 68T57 291Q57 445 124 534T327 624Q383 624 433 613T510 585V539Q510 499 499 472H458L448 554Q406 565 326 565Q250 565 191 549Q157 498 139 434T120 295Q120 169 172 110T328 50Q370 50
400 55T459 70V266H317V322H485L522 293V115Q522 60 466 26T319 -9Q193 -9 125 68Z" />
<glyph unicode="H" glyph-name="H" horiz-adv-x="592" d="M82 614H145V327H447V614H510V0H447V268H145V0H82V614Z" />
<glyph unicode="I" glyph-name="I" horiz-adv-x="231" d="M84 614H147V0H84V614Z" />
<glyph unicode="J" glyph-name="J" horiz-adv-x="416" d="M132 -9T96 -2T31 16L46 71Q106 48 169 48Q229 48 266 69Q274 92 274 128V616H337V125Q337 59 292 25T167 -9Q132 -9 96 -2Z" />
<glyph unicode="K" glyph-name="K" horiz-adv-x="589" d="M481 -7T466 2T442 32L364 207Q345 251 320 271T244 291H145V0H82V614H145V348H239Q288 348 314 368T358 427Q402 518 444 617L504 593Q446 467 417 409Q401 375 385 357T334 323V317Q369 305 386 288T420
236L507 45L557 37V1Q530 -7 504 -7Q481 -7 466 2Z" />
<glyph unicode="L" glyph-name="L" horiz-adv-x="456" d="M82 614H145V58H427V0H82V614Z" />
<glyph unicode="M" glyph-name="M" horiz-adv-x="682" d="M101 614H168L338 252H345L514 614H582L609 0H546L532 319L528 499L521 501L368 187H314L161 501L154 499L151 319L137 0H73L101 614Z" />
<glyph unicode="N" glyph-name="N" horiz-adv-x="617" d="M82 614H153L473 96L481 98L472 288V614H535V0H464L144 518L137 516L145 326V0H82V614Z" />
<glyph unicode="O" glyph-name="O" horiz-adv-x="610" d="M57 -9T57 297Q57 460 116 542T314 624Q437 624 495 547T553 317Q553 155 494 73T296 -9Q57 -9 57 297ZM345 50T379 56T435 73Q460 118 475 176T490 303Q490 440 447 502T300 565Q264 565 229 559T172
541Q120 448 120 311Q120 174 162 112T310 50Q345 50 379 56Z" />
<glyph unicode="P" glyph-name="P" horiz-adv-x="517" d="M82 599Q173 624 247 624Q480 624 480 418Q480 310 425 258T244 206H145V0H82V599ZM236 263Q287 263 319 266T381 278Q417 328 417 415Q417 495 374 530T246 566Q188 566 145 555V263H236Z" />
<glyph unicode="Q" glyph-name="Q" horiz-adv-x="613" d="M336 -137T292 -131T226 -115V-72L243 1Q57 31 57 300Q57 462 116 543T315 624Q438 624 496 549T554 320Q554 159 496 78T302 -4Q292 -4 287 -3V-78Q325 -86 372 -86Q446 -86 506 -74L517 -123Q461 -137
373 -137Q336 -137 292 -131ZM346 55T380 61T436 79Q461 123 476 181T491 306Q491 399 473 455T414 538T301 565Q265 565 229 559T172 541Q147 497 134 439T120 314Q120 221 138 165T197 82T310 55Q346 55 380 61Z" />
<glyph unicode="R" glyph-name="R" horiz-adv-x="575" d="M470 -7T455 2T431 32L370 170Q357 200 346 217T313 244T254 254H144V0H81V600Q164 624 245 624Q356 624 409 580T463 443Q463 329 363 277V269Q386 258 400 243T426 200L496 45L546 37V1Q520 -7 493 -7Q470
-7 455 2ZM328 311Q365 335 382 364T399 441Q399 508 362 537T242 566Q192 566 144 556V311H328Z" />
<glyph unicode="S" glyph-name="S" horiz-adv-x="514" d="M144 -9T54 36L76 91Q119 70 162 61T255 51Q320 51 373 71Q389 106 389 155Q389 206 359 232T255 277Q165 299 116 335T67 447Q67 525 113 574T267 624Q323 624 361 615T433 586V555Q433 517 418 470H374L364
559Q300 567 261 567Q190 567 160 540T130 455Q130 421 144 400T188 364T274 337Q369 315 411 279T453 174Q453 93 407 42T249 -9Q144 -9 54 36Z" />
<glyph unicode="T" glyph-name="T" horiz-adv-x="533" d="M235 555H37V614H496V555H298V0H235V555Z" />
<glyph unicode="U" glyph-name="U" horiz-adv-x="599" d="M78 -9T78 170V614H141V184Q141 108 178 79T300 50Q399 50 456 75V614H519V104Q519 46 459 19T293 -9Q78 -9 78 170Z" />
<glyph unicode="V" glyph-name="V" horiz-adv-x="582" d="M188 124T134 289T40 615L107 620Q140 478 191 317T283 60H298Q339 156 390 317T474 620L541 615Q503 458 449 292T337 0H244Q188 124 134 289Z" />
<glyph unicode="W" glyph-name="W" horiz-adv-x="826" d="M110 303T43 609L111 617Q155 377 236 75H243Q316 259 390 498Q375 558 368 603L431 610Q460 471 497 343T581 75H590Q667 363 715 617L783 609Q714 298 625 0H546Q470 214 422 385H411Q341 169 272 0H200Q110
303 43 609Z" />
<glyph unicode="X" glyph-name="X" horiz-adv-x="613" d="M47 10Q125 150 241 305Q197 367 146 449T55 605L124 620Q196 478 292 337H319Q428 489 495 620L559 606Q483 463 370 310Q418 243 469 162T558 10L492 -7Q429 117 318 278H292Q231 194 189 129T111 -7L47 10Z" />
<glyph unicode="Y" glyph-name="Y" horiz-adv-x="601" d="M269 221H249Q184 305 131 396T30 602L93 619Q132 522 182 432T283 271H318Q369 342 418 432T507 619L570 602Q522 488 470 397T351 221H332V0H269V221Z" />
<glyph unicode="Z" glyph-name="Z" horiz-adv-x="552" d="M56 68L412 546V556H135V488H85Q69 532 69 575V614H487V547L130 69V57H432V128H483Q498 81 498 38V0H56V68Z" />
<glyph unicode="[" glyph-name="bracketleft" horiz-adv-x="283" d="M81 707H204V652H142V-31H204V-85H81V707Z" />
<glyph unicode="\" glyph-name="backslash" horiz-adv-x="426" d="M64 621L118 634L362 -4L307 -18L64 621Z" />
<glyph unicode="]" glyph-name="bracketright" horiz-adv-x="283" d="M78 -31H140V652H78V707H201V-85H78V-31Z" />
<glyph unicode="^" glyph-name="asciicircum" horiz-adv-x="574" d="M74 297L258 614H316L500 297L447 273L290 550H284L127 273L74 297Z" />
<glyph unicode="_" glyph-name="underscore" horiz-adv-x="562" d="M66 0H495V-42H66V0Z" />
<glyph unicode="`" glyph-name="grave" horiz-adv-x="311" d="M31 892L112 901L195 758L150 750L31 892Z" />
<glyph unicode="a" glyph-name="a" horiz-adv-x="465" d="M114 -9T80 22T45 108Q45 183 100 220T254 258Q287 258 331 254V322Q331 382 307 404T223 427Q181 427 146 422L136 350H91Q80 381 80 411V430Q112 448 158 462T247 476Q316 476 354 439T392 331V0H340L336
66H328Q302 31 264 11T179 -9Q114 -9 80 22ZM233 40T271 61T334 119V208Q289 216 234 216Q168 216 131 205Q119 182 114 162T108 117Q108 74 128 57T189 40Q233 40 271 61Z" />
<glyph unicode="b" glyph-name="b" horiz-adv-x="518" d="M167 -9T80 15V669H140V476L137 401H143Q222 476 300 476Q385 476 424 414T464 247Q464 122 408 57T240 -9Q167 -9 80 15ZM325 44T363 91T401 244Q401 337 373 380T283 423Q204 423 140 350V56Q190 44
242 44Q325 44 363 91Z" />
<glyph unicode="c" glyph-name="c" horiz-adv-x="448" d="M53 -9T53 216Q53 336 102 406T253 476Q294 476 329 466T391 437V408Q391 367 379 334H338L331 411Q296 420 249 420Q182 420 146 404Q130 370 121 321T112 217Q112 133 147 90T261 46Q334 46 388 88L417
46Q384 19 347 5T259 -9Q53 -9 53 216Z" />
<glyph unicode="d" glyph-name="d" horiz-adv-x="520" d="M139 -9T97 53T55 235Q55 338 97 407T229 476Q312 476 376 412H383L379 488V669H439V0H388L384 66H376Q320 -9 233 -9Q139 -9 97 53ZM294 44T327 67T379 126V362Q347 394 316 408T247 423Q180 423 149
375T118 232Q118 135 146 90T248 44Q294 44 327 67Z" />
<glyph unicode="e" glyph-name="e" horiz-adv-x="475" d="M55 -9T55 231Q55 346 106 411T257 476Q339 476 383 427T427 291Q427 281 425 259L374 208L114 210Q116 127 151 86T260 44Q304 44 335 53T399 83L419 36Q382 14 346 3T257 -9Q55 -9 55 231ZM365 259Q371
283 371 307Q371 361 341 392T253 423Q179 423 148 382T113 255L365 259Z" />
<glyph unicode="f" glyph-name="f" horiz-adv-x="329" d="M100 417H35L43 468H100V554Q100 590 123 619T175 665Q206 672 237 672Q281 672 321 653L305 603Q285 611 270 614T233 617Q199 617 169 608Q159 581 159 545V468H271L263 417H159V0H100V417Z" />
<glyph unicode="g" glyph-name="g" horiz-adv-x="504" d="M199 -192T157 -182T86 -155L104 -108Q133 -122 169 -130T241 -138Q285 -138 315 -132T370 -112V15L373 78H366Q301 4 221 4Q135 4 96 65T56 226Q56 345 96 410T232 476Q319 476 366 396H372L377 469H428V-56Q428
-125 379 -158T246 -192Q199 -192 157 -182ZM312 56T368 129V349Q312 424 237 424Q170 424 144 377T117 232Q117 143 145 100T234 56Q312 56 368 129Z" />
<glyph unicode="h" glyph-name="h" horiz-adv-x="517" d="M80 669H140V478L137 398H143Q221 476 316 476Q379 476 409 451T440 366V0H380V410Q349 421 305 421Q255 421 213 403T140 352V0H80V669Z" />
<glyph unicode="i" glyph-name="i" horiz-adv-x="222" d="M80 647H143V554H80V647ZM81 467H140V0H81V467Z" />
<glyph unicode="j" glyph-name="j" horiz-adv-x="263" d="M124 647H187V554H124V647ZM12 -191T-28 -178L-14 -126Q26 -137 61 -137Q91 -137 118 -128Q126 -105 126 -61V468H185V-65Q185 -126 153 -158T60 -191Q12 -191 -28 -178Z" />
<glyph unicode="k" glyph-name="k" horiz-adv-x="492" d="M397 -7T384 1T363 27L317 131Q296 178 270 199T193 221H135V0H76V669H135V270H188Q239 270 265 291T308 353L362 474L420 452L367 333Q351 299 332 280T277 249V243Q314 232 333 214T369 159L423 38L462
31V-1Q440 -7 418 -7Q397 -7 384 1Z" />
<glyph unicode="l" glyph-name="l" horiz-adv-x="268" d="M125 2T100 28T74 76V669H133V86Q133 70 134 62T141 44H155L217 74L243 41Q227 22 202 9T149 -7Q125 2 100 28Z" />
<glyph unicode="m" glyph-name="m" horiz-adv-x="802" d="M80 468H130L136 400H143Q221 476 309 476Q364 476 392 459T428 400H435Q511 476 602 476Q666 476 696 452T726 366V0H665V410Q632 421 592 421Q547 421 506 405T433 357V0H373V410Q340 421 300 421Q254
421 213 404T140 356V0H80V468Z" />
<glyph unicode="n" glyph-name="n" horiz-adv-x="516" d="M80 468H131L136 398H143Q221 476 316 476Q379 476 409 451T440 366V0H380V410Q349 421 305 421Q255 421 213 403T140 352V0H80V468Z" />
<glyph unicode="o" glyph-name="o" horiz-adv-x="507" d="M145 -9T100 53T55 229Q55 347 103 413T265 480Q361 480 406 416T452 237Q452 120 404 56T242 -9Q145 -9 100 53ZM319 44T361 65Q392 120 392 225Q392 331 361 378T248 426Q185 426 146 405Q132 379 124
336T115 240Q115 170 128 128T172 65T259 44Q319 44 361 65Z" />
<glyph unicode="p" glyph-name="p" horiz-adv-x="524" d="M80 468H133L137 401H145Q180 437 218 456T302 476Q388 476 428 415T469 235Q469 128 427 62T295 -5Q253 -5 214 12T144 59H137L140 -18V-187H80V468ZM348 48T377 96T406 237Q406 335 379 379T283 423Q240
423 203 400T141 342V111Q200 48 281 48Q348 48 377 96Z" />
<glyph unicode="q" glyph-name="q" horiz-adv-x="518" d="M374 -7L378 66H371Q342 33 308 14T224 -5Q137 -5 95 58T53 220Q53 345 110 411T277 477Q346 477 434 451V-193H374V-7ZM280 48T314 67T374 119V412Q324 424 276 424Q193 424 155 377T116 223Q116 136
146 92T240 48Q280 48 314 67Z" />
<glyph unicode="r" glyph-name="r" horiz-adv-x="360" d="M80 466H129L134 376H143Q166 420 207 446T296 472Q303 472 313 465T328 450L321 403H280Q229 403 193 380T140 315V0H80V466Z" />
<glyph unicode="s" glyph-name="s" horiz-adv-x="419" d="M116 -9T49 25L68 74Q134 42 210 42Q262 42 299 54Q311 83 311 118Q311 147 303 162T275 188T212 207Q132 225 93 254T53 341Q53 398 94 437T220 476Q295 476 348 447V422Q348 391 336 358H296L289 422Q256
427 216 427Q159 427 135 410T111 352Q111 326 121 310T155 283T226 260Q278 248 308 233T354 194T369 129Q369 71 330 31T203 -9Q116 -9 49 25Z" />
<glyph unicode="t" glyph-name="t" horiz-adv-x="366" d="M205 -6T178 1Q109 39 109 94V417H27L35 468H109V596H167V468H323L315 417H167V107Q167 81 176 57Q204 48 232 48Q250 48 273 53T316 67L333 17Q316 8 290 1T242 -6Q205 -6 178 1Z" />
<glyph unicode="u" glyph-name="u" horiz-adv-x="511" d="M136 -9T106 16T75 100V468H135V56Q171 45 209 45Q259 45 300 64T371 117V468H431V0H380L376 72H368Q331 32 291 12T199 -9Q136 -9 106 16Z" />
<glyph unicode="v" glyph-name="v" horiz-adv-x="469" d="M111 198T32 465L93 471Q166 213 230 57H239Q306 221 377 471L436 465Q359 211 270 0H196Q111 198 32 465Z" />
<glyph unicode="w" glyph-name="w" horiz-adv-x="705" d="M99 218T40 465L99 471Q165 195 210 60H218Q285 229 328 373Q324 389 309 459L363 465Q413 246 480 57H489Q541 195 614 473L672 466Q627 309 595 205T523 0H447Q389 156 353 284H348Q328 224 264 48L246
0H177Q99 218 40 465Z" />
<glyph unicode="x" glyph-name="x" horiz-adv-x="479" d="M34 5Q93 110 181 233Q97 353 37 461L99 472Q163 351 226 260H251Q330 367 384 472L443 462Q384 356 296 237Q375 122 439 5L379 -7Q334 81 251 209H226Q138 80 93 -7L34 5Z" />
<glyph unicode="y" glyph-name="y" horiz-adv-x="488" d="M92 -189T58 -172V-147Q58 -115 67 -88H111V-135Q129 -138 153 -138Q169 -138 197 -134Q219 -81 256 22H189Q137 149 102 250T36 466L96 472Q151 264 224 75H274Q337 264 385 472L446 466Q406 304 358
153T262 -114Q246 -151 213 -170T140 -189Q92 -189 58 -172Z" />
<glyph unicode="z" glyph-name="z" horiz-adv-x="442" d="M53 60L313 410V418H122L115 357H73Q62 392 62 424V468H379V406L119 59V49H332L338 113H380Q391 76 391 46V0H53V60Z" />
<glyph unicode="{" glyph-name="braceleft" horiz-adv-x="409" d="M260 -118T220 -79T179 50Q179 68 180 78L184 161Q192 292 66 292V340Q192 340 184 472L180 542Q179 552 179 570Q179 659 219 698T352 742V686Q287 684 249 669Q238 623 238 569L239 539L243
457Q249 346 153 319V314Q249 287 243 175L239 81L238 51Q238 -3 249 -49Q287 -64 352 -66V-122Q260 -118 220 -79Z" />
<glyph unicode="|" glyph-name="bar" horiz-adv-x="232" d="M88 624H143V-140H88V624Z" />
<glyph unicode="}" glyph-name="braceright" horiz-adv-x="409" d="M56 -66Q121 -64 159 -49Q170 -3 170 51L169 81L165 175Q159 287 255 314V319Q159 346 165 457L169 539L170 569Q170 623 159 669Q121 684 56 686V742Q148 738 188 699T229 570Q229 552 228 542L224
472Q216 340 342 340V292Q216 292 224 161L228 78Q229 68 229 50Q229 -39 189 -78T56 -122V-66Z" />
<glyph unicode="~" glyph-name="asciitilde" horiz-adv-x="448" d="M56 236Q62 291 86 315T151 340Q175 340 194 332T236 309Q255 298 266 293T291 287Q334 287 342 345L391 337Q386 282 362 258T296 233Q271 233 251 241T207 265Q193 273 180 279T157 286Q134
286 122 272T105 228L56 236Z" />
<glyph unicode="&#xa0;" glyph-name="uni00A0" horiz-adv-x="260" />
<glyph unicode="&#xa1;" glyph-name="exclamdown" horiz-adv-x="232" d="M82 614H150V528H82V614ZM83 197L90 443H142L149 197V0H83V197Z" />
<glyph unicode="&#xa2;" glyph-name="cent" horiz-adv-x="448" d="M224 -8Q134 1 95 59T56 216Q56 327 97 393T225 468V614H277V468Q340 463 389 431V405Q389 367 378 337H337L329 405Q291 415 247 415Q183 415 145 398Q132 368 124 320T115 217Q115 132 149 89T260
45Q333 45 387 87L416 44Q386 21 354 8T278 -9V-144H224V-8Z" />
<glyph unicode="&#xa3;" glyph-name="sterling" horiz-adv-x="545" d="M179 -6T56 4V44L121 54V254H57V302H121V439Q121 614 317 614Q363 614 395 609T465 590L451 538Q416 548 387 552T320 556Q254 556 197 542Q184 497 184 434V302H389V254H184V55Q238 50 310
50Q397 50 493 59V4Q378 -6 287 -6Q179 -6 56 4Z" />
<glyph unicode="&#xa4;" glyph-name="currency" horiz-adv-x="566" d="M70 111L134 178Q115 206 107 232T98 291Q98 322 106 348T134 404L69 471L106 507L173 443Q225 479 285 479Q317 479 343 470T397 443L463 507L501 471L435 404Q454 376 462 350T471 291Q471
258 463 232T435 178L500 111L463 76L397 140Q371 122 345 113T285 104Q252 104 226 113T173 140L106 76L70 111ZM345 157T381 194T418 291Q418 350 382 388T285 426Q224 426 188 388T152 291Q152 231 188 194T285 157Q345 157 381 194Z" />
<glyph unicode="&#xa5;" glyph-name="yen" horiz-adv-x="622" d="M279 96H165V142H279V213H165V259H236Q177 341 132 421T42 602L104 619Q179 441 294 275H328Q443 441 518 619L580 602Q536 503 491 423T386 259H457V213H342V142H457V96H342V0H279V96Z" />
<glyph unicode="&#xa6;" glyph-name="brokenbar" horiz-adv-x="232" d="M88 624H143V304H88V624ZM88 210H143V-110H88V210Z" />
<glyph unicode="&#xa7;" glyph-name="section" horiz-adv-x="546" d="M206 -127T174 -122T100 -102L119 -53Q154 -64 182 -68T250 -72Q305 -72 350 -60Q362 -27 362 8Q362 37 351 53T314 81T230 108Q146 130 107 161T68 250Q68 291 88 320T150 373V379Q125 399
113 422T100 478Q100 541 147 581T283 621Q361 621 423 591V568Q423 538 411 498H367L358 561Q314 567 280 567Q219 567 191 549T162 487Q162 456 175 437T218 406T302 382Q365 368 401 353T458 312T478 242Q478 198 457 167T388 112V106Q407 90 415 69T424 19Q424
-45 381 -86T247 -127Q206 -127 174 -122ZM384 157T399 179T415 231Q415 259 404 275T367 303T287 325Q234 337 187 351Q158 335 145 313T131 259Q131 223 155 203T245 164L338 140L358 135Q384 157 399 179Z" />
<glyph unicode="&#xa8;" glyph-name="dieresis" horiz-adv-x="370" d="M89 481T79 490T68 517Q68 535 78 544T107 554Q125 554 135 545T145 517Q145 500 135 491T107 481Q89 481 79 490ZM246 481T236 490T225 517Q225 535 235 544T265 554Q283 554 293 545T303
517Q303 500 293 491T265 481Q246 481 236 490Z" />
<glyph unicode="&#xa9;" glyph-name="copyright" horiz-adv-x="738" d="M277 5T209 43T103 151T66 308Q66 396 103 465T208 572T369 611Q461 611 529 573T634 465T671 308Q671 220 635 151T530 44T369 5Q277 5 209 43ZM451 38T511 71T604 166T637 308Q637 389
605 450T512 544T368 578Q286 578 226 545T133 450T100 308Q100 227 132 166T225 72T368 38Q451 38 511 71ZM297 122T258 169T218 299Q218 383 257 436T367 489Q399 489 429 482T474 465V446Q474 416 466 394H433L428 439Q388 444 364 444Q328 444 299 439Q266
384 266 298Q266 230 291 199T372 167Q430 167 466 189L484 149Q442 122 372 122Q297 122 258 169Z" />
<glyph unicode="&#xaa;" glyph-name="ordfeminine" horiz-adv-x="355" d="M99 265T74 288T49 350Q49 404 90 432T203 460Q230 460 251 456V508Q251 544 237 557T186 571Q154 571 119 564L113 522H81Q74 547 74 568V587Q100 600 133 608T197 616Q248 616 275 590T303
515V270H258L255 317H249Q209 265 145 265Q99 265 74 288ZM186 311T209 323T253 360V411Q227 416 187 416Q146 416 114 409Q103 387 103 360Q103 335 115 323T156 311Q186 311 209 323Z" />
<glyph unicode="&#xab;" glyph-name="guillemotleft" horiz-adv-x="463" d="M57 251L187 425L231 405L118 254V248L231 97L187 77L57 251ZM217 251L347 425L391 405L278 254V248L391 97L347 77L217 251Z" />
<glyph unicode="&#xac;" glyph-name="logicalnot" horiz-adv-x="453" d="M340 286H56V339H396V147H340V286Z" />
<glyph unicode="&#xad;" glyph-name="uni00AD" horiz-adv-x="353" d="M71 288H282V232H71V288Z" />
<glyph unicode="&#xae;" glyph-name="registered" horiz-adv-x="738" d="M277 5T209 43T103 151T66 308Q66 396 103 465T208 572T369 611Q461 611 529 573T634 465T671 308Q671 220 635 151T530 44T369 5Q277 5 209 43ZM451 38T511 71T604 166T637 308Q637 389
605 450T512 544T368 578Q286 578 226 545T133 450T100 308Q100 227 132 166T225 72T368 38Q451 38 511 71ZM463 133T449 161L416 234Q405 260 390 271T345 282H298V136H254V488Q308 502 349 502Q417 502 449 475T481 394Q481 321 418 295V292Q442 281 457 253L497
166L520 161V138Q503 133 491 133Q463 133 449 161ZM335 325Q394 325 415 339T437 392Q437 429 417 444T350 460Q321 460 298 456V325H335Z" />
<glyph unicode="&#xaf;" glyph-name="overscore" horiz-adv-x="398" d="M56 586H341V533H56V586Z" />
<glyph unicode="&#xb0;" glyph-name="degree" horiz-adv-x="399" d="M51 287T51 442Q51 523 95 566T224 610Q375 610 375 455Q375 374 331 331T202 287Q51 287 51 442ZM258 340T303 352Q317 396 317 447Q317 492 307 515T273 548T210 557Q169 557 124 545Q110
501 110 450Q110 405 120 382T154 349T217 340Q258 340 303 352Z" />
<glyph unicode="&#xb1;" glyph-name="plusminus" horiz-adv-x="586" d="M264 313H81V364H264V544H321V364H504V313H321V119H264V313ZM93 48H502V0H93V48Z" />
<glyph unicode="&#xb2;" glyph-name="uni00B2" horiz-adv-x="324" d="M41 405Q131 460 175 503T220 588Q220 619 207 631T161 643Q130 643 104 637V595H61Q53 617 53 652V671Q107 694 166 694Q275 694 275 591Q275 534 227 486T95 385V381H231V413H274Q282 389
282 357V334H41V405Z" />
<glyph unicode="&#xb3;" glyph-name="uni00B3" horiz-adv-x="307" d="M84 330T32 343L39 390Q88 378 138 378Q176 378 202 384Q211 402 211 430Q211 486 134 486H92V533H134Q169 533 186 547T203 592Q203 620 188 633T143 646Q115 646 86 642V606H44Q35 627 35
655V674Q88 695 147 695Q202 695 230 669T258 598Q258 565 243 545T197 512V509Q234 498 249 477T265 425Q265 330 138 330Q84 330 32 343Z" />
<glyph unicode="&#xb4;" glyph-name="acute" horiz-adv-x="323" d="M65 758L148 901L229 892L110 750L65 758Z" />
<glyph unicode="&#xb5;" glyph-name="uni00B5" horiz-adv-x="514" d="M80 470H141V68Q178 49 230 49Q278 49 313 67T376 120V470H437V0H387L381 72H374Q338 31 308 13T227 -6Q181 -6 148 19H141V-213H80V470Z" />
<glyph unicode="&#xb6;" glyph-name="paragraph" horiz-adv-x="647" d="M280 257H260Q168 257 120 303T71 434Q71 524 120 570T264 616H485V-120H428V570H336V-120H280V257Z" />
<glyph unicode="&#xb7;" glyph-name="middot" horiz-adv-x="345" d="M151 221T137 234T123 269Q123 290 137 304T173 318Q194 318 208 305T222 269Q222 248 209 235T173 221Q151 221 137 234Z" />
<glyph unicode="&#xb8;" glyph-name="cedilla" horiz-adv-x="322" d="M128 -216T91 -200L105 -160Q135 -172 173 -172Q198 -172 223 -167Q229 -152 229 -134Q229 -97 183 -97Q157 -97 139 -104L103 -68L167 9L209 1L161 -64Q180 -56 206 -56Q281 -56 281 -130Q281
-216 175 -216Q128 -216 91 -200Z" />
<glyph unicode="&#xb9;" glyph-name="uni00B9" horiz-adv-x="224" d="M116 633L111 637L42 611L29 644L113 694Q130 693 150 683T170 663V332H116V633Z" />
<glyph unicode="&#xba;" glyph-name="ordmasculine" horiz-adv-x="373" d="M112 265T80 309T48 433Q48 517 83 561T197 605Q262 605 293 561T325 436Q325 352 290 309T176 265Q112 265 80 309ZM225 312T255 322Q272 363 272 428Q272 498 253 528T186 558Q148 558
119 547Q102 507 102 442Q102 373 121 343T188 312Q225 312 255 322Z" />
<glyph unicode="&#xbb;" glyph-name="guillemotright" horiz-adv-x="452" d="M61 97L174 248V254L61 405L105 425L235 251L105 77L61 97ZM221 97L334 248V254L221 405L265 425L395 251L265 77L221 97Z" />
<glyph unicode="&#xbc;" glyph-name="onequarter" horiz-adv-x="792" d="M160 9L543 621L591 608L209 -5L160 9ZM145 554L140 558L74 532L61 568L145 618Q162 617 182 607T202 587V256H145V554ZM622 66H470L451 113L620 355H677V112H729V66H677V0H622V66ZM625
112V170Q625 228 632 292H628L514 117L516 112H625Z" />
<glyph unicode="&#xbd;" glyph-name="onehalf" horiz-adv-x="788" d="M160 9L543 621L591 608L209 -5L160 9ZM145 554L140 558L74 532L61 568L145 618Q162 617 182 607T202 587V256H145V554ZM523 71Q613 126 657 169T702 254Q702 285 689 297T643 309Q612 309
586 303V261H543Q535 283 535 318V337Q589 360 648 360Q757 360 757 257Q757 200 709 152T577 51V47H713V79H756Q764 55 764 23V0H523V71Z" />
<glyph unicode="&#xbe;" glyph-name="threequarters" horiz-adv-x="819" d="M215 9L598 621L646 608L264 -5L215 9ZM116 249T64 262L71 309Q120 297 170 297Q208 297 234 303Q243 321 243 349Q243 405 166 405H124V452H166Q201 452 218 466T235 511Q235 539 220
552T175 565Q147 565 118 561V525H76Q67 546 67 574V593Q119 614 179 614Q234 614 262 588T290 517Q290 484 275 464T229 431V428Q266 417 281 396T297 344Q297 249 170 249Q116 249 64 262ZM649 66H497L478 113L647 355H704V112H756V66H704V0H649V66ZM651 112V170Q651
228 658 292H654L540 117L542 112H651Z" />
<glyph unicode="&#xbf;" glyph-name="questiondown" horiz-adv-x="515" d="M251 517H316V434H251V517ZM153 -108T110 -68T66 53Q66 99 78 128T123 182L233 263Q245 273 248 281T252 307V363H314V297Q314 275 309 263T288 238L128 118V49Q128 -4 157 -27T252 -50Q329
-50 384 -34V43H431Q442 6 444 -35V-66Q415 -83 361 -95T250 -108Q153 -108 110 -68Z" />
<glyph unicode="&#xc0;" glyph-name="Agrave" horiz-adv-x="591" d="M158 841L239 850L322 707L277 700L158 841ZM40 7Q82 162 133 323T233 614H358Q407 485 458 324T551 7L484 0Q461 93 427 209H163Q125 72 107 0L40 7ZM409 265Q350 465 317 553H273Q235 450
180 265H409Z" />
<glyph unicode="&#xc1;" glyph-name="Aacute" horiz-adv-x="591" d="M270 706L353 848L434 840L315 698L270 706ZM40 7Q82 162 133 323T233 614H358Q407 485 458 324T551 7L484 0Q461 93 427 209H163Q125 72 107 0L40 7ZM409 265Q350 465 317 553H273Q235 450
180 265H409Z" />
<glyph unicode="&#xc2;" glyph-name="Acircumflex" horiz-adv-x="591" d="M164 706L265 839H325L426 706L385 698L298 786H292L203 698L164 706ZM40 7Q82 162 133 323T233 614H358Q407 485 458 324T551 7L484 0Q461 93 427 209H163Q125 72 107 0L40 7ZM409 265Q350
465 317 553H273Q235 450 180 265H409Z" />
<glyph unicode="&#xc3;" glyph-name="Atilde" horiz-adv-x="591" d="M152 712Q158 802 230 802Q245 802 258 796T293 776Q311 764 321 759T342 754Q379 754 386 804L427 791Q421 701 349 701Q332 701 318 708T284 728Q269 739 259 744T237 749Q216 749 206 736T193
699L152 712ZM40 7Q82 162 133 323T233 614H358Q407 485 458 324T551 7L484 0Q461 93 427 209H163Q125 72 107 0L40 7ZM409 265Q350 465 317 553H273Q235 450 180 265H409Z" />
<glyph unicode="&#xc4;" glyph-name="Adieresis" horiz-adv-x="591" d="M199 701T189 711T178 738Q178 756 188 765T217 775Q235 775 245 766T255 738Q255 721 245 711T217 701Q199 701 189 711ZM356 701T346 711T335 738Q335 756 345 765T375 775Q393 775 403
766T413 738Q413 721 403 711T375 701Q356 701 346 711ZM40 7Q82 162 133 323T233 614H358Q407 485 458 324T551 7L484 0Q461 93 427 209H163Q125 72 107 0L40 7ZM409 265Q350 465 317 553H273Q235 450 180 265H409Z" />
<glyph unicode="&#xc5;" glyph-name="Aring" horiz-adv-x="591" d="M239 698T212 720T185 784Q185 823 216 850T302 878Q351 878 378 855T405 790Q405 751 373 725T287 698Q239 698 212 720ZM328 737T353 744Q360 770 360 788Q360 812 345 825T300 839Q259 839
237 832Q230 811 230 786Q230 763 245 750T290 737Q328 737 353 744ZM40 7Q82 162 133 323T233 614H358Q407 485 458 324T551 7L484 0Q461 93 427 209H163Q125 72 107 0L40 7ZM409 265Q350 465 317 553H273Q235 450 180 265H409Z" />
<glyph unicode="&#xc6;" glyph-name="AE" horiz-adv-x="946" d="M600 -10T546 8T491 73V210H217Q174 130 109 0L49 20Q200 327 372 614H862V556H553V336H833V280H553V60Q617 48 698 48Q788 48 859 64L873 9Q800 -10 695 -10Q600 -10 546 8ZM491 266V553H408Q333
429 247 266H491Z" />
<glyph unicode="&#xc7;" glyph-name="Ccedilla" horiz-adv-x="555" d="M251 -216T214 -200L228 -160Q258 -172 296 -172Q321 -172 346 -167Q352 -152 352 -134Q352 -97 306 -97Q280 -97 262 -104L226 -68L277 -7Q166 4 112 80T57 291Q57 442 120 533T312 624Q363
624 410 613T485 585V539Q485 499 474 472H433L423 554Q377 565 311 565Q249 565 187 548Q120 448 120 295Q120 168 167 109T319 50Q366 50 408 61T480 91L509 44Q449 -2 343 -8L324 -9L284 -64Q303 -56 329 -56Q404 -56 404 -130Q404 -216 298 -216Q251 -216 214
-200Z" />
<glyph unicode="&#xc8;" glyph-name="Egrave" horiz-adv-x="528" d="M154 840L235 848L318 706L273 698L154 840ZM191 -9T136 10T81 74V614H452V556H143V336H423V280H143V61Q207 49 289 49Q379 49 449 65L463 10Q391 -9 286 -9Q191 -9 136 10Z" />
<glyph unicode="&#xc9;" glyph-name="Eacute" horiz-adv-x="528" d="M234 707L317 850L398 841L279 700L234 707ZM191 -9T136 10T81 74V614H452V556H143V336H423V280H143V61Q207 49 289 49Q379 49 449 65L463 10Q391 -9 286 -9Q191 -9 136 10Z" />
<glyph unicode="&#xca;" glyph-name="Ecircumflex" horiz-adv-x="528" d="M136 706L237 838H297L398 706L357 697L270 786H264L175 697L136 706ZM191 -9T136 10T81 74V614H452V556H143V336H423V280H143V61Q207 49 289 49Q379 49 449 65L463 10Q391 -9 286 -9Q191
-9 136 10Z" />
<glyph unicode="&#xcb;" glyph-name="Edieresis" horiz-adv-x="528" d="M178 701T168 711T157 738Q157 756 167 765T196 775Q214 775 224 766T234 738Q234 721 224 711T196 701Q178 701 168 711ZM335 701T325 711T314 738Q314 756 324 765T354 775Q372 775 382
766T392 738Q392 721 382 711T354 701Q335 701 325 711ZM191 -9T136 10T81 74V614H452V556H143V336H423V280H143V61Q207 49 289 49Q379 49 449 65L463 10Q391 -9 286 -9Q191 -9 136 10Z" />
<glyph unicode="&#xcc;" glyph-name="Igrave" horiz-adv-x="232" d="M-16 840L64 848L148 706L102 698L-16 840ZM84 614H147V0H84V614Z" />
<glyph unicode="&#xcd;" glyph-name="Iacute" horiz-adv-x="232" d="M87 706L170 848L251 840L132 698L87 706ZM84 614H147V0H84V614Z" />
<glyph unicode="&#xce;" glyph-name="Icircumflex" horiz-adv-x="232" d="M-15 706L87 839H146L247 706L207 698L119 786H114L24 698L-15 706ZM84 614H147V0H84V614Z" />
<glyph unicode="&#xcf;" glyph-name="Idieresis" horiz-adv-x="232" d="M20 701T10 711T-1 738Q-1 756 9 765T38 775Q56 775 66 766T76 738Q76 721 66 711T38 701Q20 701 10 711ZM176 701T166 711T155 738Q155 756 165 765T195 775Q213 775 223 766T233 738Q233
721 223 711T195 701Q176 701 166 711ZM84 614H147V0H84V614Z" />
<glyph unicode="&#xd0;" glyph-name="Eth" horiz-adv-x="632" d="M141 297H45V347H141V605Q222 624 308 624Q454 624 518 546T583 316Q583 217 559 149T473 40T299 0H141V297ZM298 58Q395 58 464 78Q491 115 505 175T520 310Q520 399 500 455T432 538T305 566Q263
566 204 558V347H315V297H204V58H298Z" />
<glyph unicode="&#xd1;" glyph-name="Ntilde" horiz-adv-x="616" d="M171 709Q177 799 249 799Q264 799 277 793T312 773Q330 761 340 756T361 751Q398 751 405 801L446 788Q440 698 368 698Q351 698 337 705T303 725Q288 736 278 741T256 746Q235 746 225 733T212
696L171 709ZM81 614H152L472 96L480 98L471 288V614H534V0H463L143 518L136 516L144 326V0H81V614Z" />
<glyph unicode="&#xd2;" glyph-name="Ograve" horiz-adv-x="610" d="M188 840L269 848L352 706L307 698L188 840ZM57 -9T57 297Q57 460 116 542T314 624Q437 624 495 547T553 317Q553 155 494 73T296 -9Q57 -9 57 297ZM345 50T379 56T435 73Q460 118 475 176T490
303Q490 440 447 502T300 565Q264 565 229 559T172 541Q120 448 120 311Q120 174 162 112T310 50Q345 50 379 56Z" />
<glyph unicode="&#xd3;" glyph-name="Oacute" horiz-adv-x="610" d="M279 705L362 848L443 839L324 698L279 705ZM57 -9T57 297Q57 460 116 542T314 624Q437 624 495 547T553 317Q553 155 494 73T296 -9Q57 -9 57 297ZM345 50T379 56T435 73Q460 118 475 176T490
303Q490 440 447 502T300 565Q264 565 229 559T172 541Q120 448 120 311Q120 174 162 112T310 50Q345 50 379 56Z" />
<glyph unicode="&#xd4;" glyph-name="Ocircumflex" horiz-adv-x="610" d="M181 706L282 838H342L443 706L402 697L315 786H309L220 697L181 706ZM57 -9T57 297Q57 460 116 542T314 624Q437 624 495 547T553 317Q553 155 494 73T296 -9Q57 -9 57 297ZM345 50T379
56T435 73Q460 118 475 176T490 303Q490 440 447 502T300 565Q264 565 229 559T172 541Q120 448 120 311Q120 174 162 112T310 50Q345 50 379 56Z" />
<glyph unicode="&#xd5;" glyph-name="Otilde" horiz-adv-x="610" d="M171 707Q177 797 249 797Q264 797 277 791T312 771Q330 759 340 754T361 749Q398 749 405 798L446 785Q440 696 368 696Q351 696 337 703T303 723Q288 734 278 739T256 744Q235 744 225 731T212
694L171 707ZM57 -9T57 297Q57 460 116 542T314 624Q437 624 495 547T553 317Q553 155 494 73T296 -9Q57 -9 57 297ZM345 50T379 56T435 73Q460 118 475 176T490 303Q490 440 447 502T300 565Q264 565 229 559T172 541Q120 448 120 311Q120 174 162 112T310 50Q345
50 379 56Z" />
<glyph unicode="&#xd6;" glyph-name="Odieresis" horiz-adv-x="610" d="M212 701T202 711T191 738Q191 756 201 765T230 775Q248 775 258 766T268 738Q268 721 258 711T230 701Q212 701 202 711ZM369 701T359 711T348 738Q348 756 358 765T388 775Q406 775 416
766T426 738Q426 721 416 711T388 701Q369 701 359 711ZM57 -9T57 297Q57 460 116 542T314 624Q437 624 495 547T553 317Q553 155 494 73T296 -9Q57 -9 57 297ZM345 50T379 56T435 73Q460 118 475 176T490 303Q490 440 447 502T300 565Q264 565 229 559T172 541Q120
448 120 311Q120 174 162 112T310 50Q345 50 379 56Z" />
<glyph unicode="&#xd7;" glyph-name="multiply" horiz-adv-x="474" d="M56 171L200 308L56 445L94 480L237 339L380 480L418 445L274 308L417 171L380 136L237 277L94 136L56 171Z" />
<glyph unicode="&#xd8;" glyph-name="Oslash" horiz-adv-x="615" d="M106 -57L149 36Q59 108 59 297Q59 460 118 542T316 624Q368 624 411 608L445 679L497 666L459 584Q555 514 555 317Q555 155 496 73T298 -9Q239 -9 195 9L158 -71L106 -57ZM385 550Q351 565
302 565Q266 565 231 559T174 541Q122 448 122 311Q122 233 134 181T176 97L385 550ZM348 49T381 55T437 73Q462 117 477 176T492 303Q492 384 478 438T431 523L221 66Q258 49 312 49Q348 49 381 55Z" />
<glyph unicode="&#xd9;" glyph-name="Ugrave" horiz-adv-x="599" d="M175 840L256 848L339 706L294 698L175 840ZM78 -9T78 170V614H141V184Q141 108 178 79T300 50Q399 50 456 75V614H519V104Q519 46 459 19T293 -9Q78 -9 78 170Z" />
<glyph unicode="&#xda;" glyph-name="Uacute" horiz-adv-x="599" d="M259 705L342 847L423 839L304 697L259 705ZM78 -9T78 170V614H141V184Q141 108 178 79T300 50Q399 50 456 75V614H519V104Q519 46 459 19T293 -9Q78 -9 78 170Z" />
<glyph unicode="&#xdb;" glyph-name="Ucircumflex" horiz-adv-x="599" d="M169 706L270 838H330L431 706L390 697L303 786H297L208 697L169 706ZM78 -9T78 170V614H141V184Q141 108 178 79T300 50Q399 50 456 75V614H519V104Q519 46 459 19T293 -9Q78 -9 78 170Z" />
<glyph unicode="&#xdc;" glyph-name="Udieresis" horiz-adv-x="599" d="M205 701T195 711T184 738Q184 756 194 765T223 775Q241 775 251 766T261 738Q261 721 251 711T223 701Q205 701 195 711ZM362 701T352 711T341 738Q341 756 351 765T381 775Q399 775 409
766T419 738Q419 721 409 711T381 701Q362 701 352 711ZM78 -9T78 170V614H141V184Q141 108 178 79T300 50Q399 50 456 75V614H519V104Q519 46 459 19T293 -9Q78 -9 78 170Z" />
<glyph unicode="&#xdd;" glyph-name="Yacute" horiz-adv-x="601" d="M265 705L348 848L429 839L310 698L265 705ZM269 221H249Q184 305 131 396T30 602L93 619Q132 522 182 432T283 271H318Q369 342 418 432T507 619L570 602Q522 488 470 397T351 221H332V0H269V221Z" />
<glyph unicode="&#xde;" glyph-name="Thorn" horiz-adv-x="481" d="M81 616H144V494H249Q338 494 386 451T434 324Q434 238 386 194T249 150H144V0H81V616ZM245 206Q314 206 342 235T371 324Q371 384 342 411T245 438H144V206H245Z" />
<glyph unicode="&#xdf;" glyph-name="germandbls" horiz-adv-x="541" d="M252 -9T211 3L221 57Q256 47 296 47Q326 47 346 48T383 57Q408 107 408 175Q408 316 242 322V379Q308 379 339 410T370 498Q370 605 250 605Q191 605 140 592V0H78V514Q78 589 126 625T259
662Q339 662 385 619T432 502Q432 445 406 411T323 358V352Q400 334 434 290T469 176Q469 87 426 39T294 -9Q252 -9 211 3Z" />
<glyph unicode="&#xe0;" glyph-name="agrave" horiz-adv-x="465" d="M130 696L211 704L294 562L249 554L130 696ZM114 -9T80 22T45 108Q45 183 100 220T254 258Q287 258 331 254V322Q331 382 307 404T223 427Q181 427 146 422L136 350H91Q80 381 80 411V430Q112
448 158 462T247 476Q316 476 354 439T392 331V0H340L336 66H328Q302 31 264 11T179 -9Q114 -9 80 22ZM233 40T271 61T334 119V208Q289 216 234 216Q168 216 131 205Q119 182 114 162T108 117Q108 74 128 57T189 40Q233 40 271 61Z" />
<glyph unicode="&#xe1;" glyph-name="aacute" horiz-adv-x="465" d="M215 562L298 704L379 696L260 554L215 562ZM114 -9T80 22T45 108Q45 183 100 220T254 258Q287 258 331 254V322Q331 382 307 404T223 427Q181 427 146 422L136 350H91Q80 381 80 411V430Q112
448 158 462T247 476Q316 476 354 439T392 331V0H340L336 66H328Q302 31 264 11T179 -9Q114 -9 80 22ZM233 40T271 61T334 119V208Q289 216 234 216Q168 216 131 205Q119 182 114 162T108 117Q108 74 128 57T189 40Q233 40 271 61Z" />
<glyph unicode="&#xe2;" glyph-name="acircumflex" horiz-adv-x="465" d="M107 561L208 694H268L369 561L328 553L241 641H235L146 553L107 561ZM114 -9T80 22T45 108Q45 183 100 220T254 258Q287 258 331 254V322Q331 382 307 404T223 427Q181 427 146 422L136
350H91Q80 381 80 411V430Q112 448 158 462T247 476Q316 476 354 439T392 331V0H340L336 66H328Q302 31 264 11T179 -9Q114 -9 80 22ZM233 40T271 61T334 119V208Q289 216 234 216Q168 216 131 205Q119 182 114 162T108 117Q108 74 128 57T189 40Q233 40 271 61Z"
/>
<glyph unicode="&#xe3;" glyph-name="atilde" horiz-adv-x="465" d="M104 566Q110 655 182 655Q197 655 210 649T245 629Q263 617 273 612T294 607Q331 607 338 657L379 644Q373 555 301 555Q284 555 270 562T236 582Q221 593 211 598T189 603Q168 603 158 590T145
553L104 566ZM114 -9T80 22T45 108Q45 183 100 220T254 258Q287 258 331 254V322Q331 382 307 404T223 427Q181 427 146 422L136 350H91Q80 381 80 411V430Q112 448 158 462T247 476Q316 476 354 439T392 331V0H340L336 66H328Q302 31 264 11T179 -9Q114 -9 80
22ZM233 40T271 61T334 119V208Q289 216 234 216Q168 216 131 205Q119 182 114 162T108 117Q108 74 128 57T189 40Q233 40 271 61Z" />
<glyph unicode="&#xe4;" glyph-name="adieresis" horiz-adv-x="465" d="M145 555T135 564T124 591Q124 609 134 618T163 628Q181 628 191 619T201 591Q201 574 191 565T163 555Q145 555 135 564ZM302 555T292 564T281 591Q281 609 291 618T321 628Q339 628 349
619T359 591Q359 574 349 565T321 555Q302 555 292 564ZM114 -9T80 22T45 108Q45 183 100 220T254 258Q287 258 331 254V322Q331 382 307 404T223 427Q181 427 146 422L136 350H91Q80 381 80 411V430Q112 448 158 462T247 476Q316 476 354 439T392 331V0H340L336
66H328Q302 31 264 11T179 -9Q114 -9 80 22ZM233 40T271 61T334 119V208Q289 216 234 216Q168 216 131 205Q119 182 114 162T108 117Q108 74 128 57T189 40Q233 40 271 61Z" />
<glyph unicode="&#xe5;" glyph-name="aring" horiz-adv-x="465" d="M193 555T166 577T139 641Q139 680 170 707T256 735Q305 735 332 712T359 646Q359 608 327 582T241 555Q193 555 166 577ZM286 594T307 601Q314 627 314 644Q314 668 299 682T254 696Q213 696
191 689Q184 668 184 642Q184 619 199 607T244 594Q286 594 307 601ZM114 -9T80 22T45 108Q45 183 100 220T254 258Q287 258 331 254V322Q331 382 307 404T223 427Q181 427 146 422L136 350H91Q80 381 80 411V430Q112 448 158 462T247 476Q316 476 354 439T392
331V0H340L336 66H328Q302 31 264 11T179 -9Q114 -9 80 22ZM233 40T271 61T334 119V208Q289 216 234 216Q168 216 131 205Q119 182 114 162T108 117Q108 74 128 57T189 40Q233 40 271 61Z" />
<glyph unicode="&#xe6;" glyph-name="ae" horiz-adv-x="758" d="M118 -9T82 23T45 108Q45 183 99 220T253 258Q295 258 341 254V322Q341 380 312 403T222 427Q181 427 146 422L136 350H91Q80 381 80 411V430Q112 448 158 462T246 476Q296 476 332 455T384 395Q433
476 540 476Q620 476 664 427T709 293Q709 283 707 259L656 208L401 210Q403 128 436 88T542 47Q586 47 617 57T682 87L701 40Q665 18 629 7T539 -5Q419 -5 375 79Q334 34 293 13T182 -9Q118 -9 82 23ZM648 259Q653 279 653 307Q653 361 623 392T535 423Q461 423
433 383T400 255L648 259ZM281 40T343 107V208Q298 216 233 216Q168 216 131 205Q119 182 114 162T108 117Q108 74 129 57T192 40Q281 40 343 107Z" />
<glyph unicode="&#xe7;" glyph-name="ccedilla" horiz-adv-x="448" d="M194 -216T157 -200L171 -160Q201 -172 239 -172Q264 -172 289 -167Q295 -152 295 -134Q295 -97 249 -97Q223 -97 205 -104L169 -68L220 -6Q53 13 53 216Q53 336 102 406T253 476Q294 476
329 466T391 437V408Q391 367 379 334H338L331 411Q296 420 249 420Q182 420 146 404Q130 370 121 321T112 217Q112 133 147 90T261 46Q334 46 388 88L417 46Q386 20 351 6T267 -9L227 -64Q246 -56 272 -56Q347 -56 347 -130Q347 -216 241 -216Q194 -216 157 -200Z"
/>
<glyph unicode="&#xe8;" glyph-name="egrave" horiz-adv-x="475" d="M129 695L210 703L293 561L248 553L129 695ZM55 -9T55 231Q55 346 106 411T257 476Q339 476 383 427T427 291Q427 281 425 259L374 208L114 210Q116 127 151 86T260 44Q304 44 335 53T399 83L419
36Q382 14 346 3T257 -9Q55 -9 55 231ZM365 259Q371 283 371 307Q371 361 341 392T253 423Q179 423 148 382T113 255L365 259Z" />
<glyph unicode="&#xe9;" glyph-name="eacute" horiz-adv-x="475" d="M217 561L300 703L381 695L262 553L217 561ZM55 -9T55 231Q55 346 106 411T257 476Q339 476 383 427T427 291Q427 281 425 259L374 208L114 210Q116 127 151 86T260 44Q304 44 335 53T399 83L419
36Q382 14 346 3T257 -9Q55 -9 55 231ZM365 259Q371 283 371 307Q371 361 341 392T253 423Q179 423 148 382T113 255L365 259Z" />
<glyph unicode="&#xea;" glyph-name="ecircumflex" horiz-adv-x="475" d="M122 561L223 694H283L384 561L343 553L256 641H250L161 553L122 561ZM55 -9T55 231Q55 346 106 411T257 476Q339 476 383 427T427 291Q427 281 425 259L374 208L114 210Q116 127 151 86T260
44Q304 44 335 53T399 83L419 36Q382 14 346 3T257 -9Q55 -9 55 231ZM365 259Q371 283 371 307Q371 361 341 392T253 423Q179 423 148 382T113 255L365 259Z" />
<glyph unicode="&#xeb;" glyph-name="edieresis" horiz-adv-x="475" d="M154 555T144 564T133 591Q133 609 143 618T172 628Q190 628 200 619T210 591Q210 574 200 565T172 555Q154 555 144 564ZM311 555T301 564T290 591Q290 609 300 618T330 628Q348 628 358
619T368 591Q368 574 358 565T330 555Q311 555 301 564ZM55 -9T55 231Q55 346 106 411T257 476Q339 476 383 427T427 291Q427 281 425 259L374 208L114 210Q116 127 151 86T260 44Q304 44 335 53T399 83L419 36Q382 14 346 3T257 -9Q55 -9 55 231ZM365 259Q371
283 371 307Q371 361 341 392T253 423Q179 423 148 382T113 255L365 259Z" />
<glyph unicode="&#xec;" glyph-name="igrave" horiz-adv-x="239" d="M-25 696L55 704L139 562L93 554L-25 696ZM82 467H141V0H82V467Z" />
<glyph unicode="&#xed;" glyph-name="iacute" horiz-adv-x="239" d="M85 562L168 704L249 696L130 554L85 562ZM82 467H141V0H82V467Z" />
<glyph unicode="&#xee;" glyph-name="icircumflex" horiz-adv-x="239" d="M-12 559L90 691H149L250 559L210 551L122 639H117L27 551L-12 559ZM90 467H149V0H90V467Z" />
<glyph unicode="&#xef;" glyph-name="idieresis" horiz-adv-x="239" d="M23 555T13 564T2 591Q2 609 12 618T41 628Q59 628 69 619T79 591Q79 574 69 565T41 555Q23 555 13 564ZM180 555T170 564T159 591Q159 609 169 618T199 628Q217 628 227 619T237 591Q237
574 227 565T199 555Q180 555 170 564ZM90 467H149V0H90V467Z" />
<glyph unicode="&#xf0;" glyph-name="eth" horiz-adv-x="561" d="M179 -11T130 38T81 177Q81 260 132 307T263 354Q304 354 337 339T396 299H402Q398 406 344 473L224 430L208 468L314 507Q270 548 210 574L240 615Q316 579 367 527L471 565L490 526L397 493Q434
441 449 383T465 248Q465 128 421 59T262 -11Q179 -11 130 38ZM335 44T380 63Q392 90 398 127T404 202Q404 229 402 245Q341 299 272 299Q142 299 142 179Q142 109 175 77T274 44Q335 44 380 63Z" />
<glyph unicode="&#xf1;" glyph-name="ntilde" horiz-adv-x="516" d="M125 566Q131 655 203 655Q218 655 231 649T266 629Q284 617 294 612T315 607Q352 607 359 657L400 644Q394 555 322 555Q305 555 291 562T257 582Q242 593 232 598T210 603Q189 603 179 590T166
553L125 566ZM80 468H131L136 398H143Q221 476 316 476Q379 476 409 451T440 366V0H380V410Q349 421 305 421Q255 421 213 403T140 352V0H80V468Z" />
<glyph unicode="&#xf2;" glyph-name="ograve" horiz-adv-x="507" d="M133 696L214 704L297 562L252 554L133 696ZM145 -9T100 53T55 229Q55 347 103 413T265 480Q361 480 406 416T452 237Q452 120 404 56T242 -9Q145 -9 100 53ZM319 44T361 65Q392 120 392 225Q392
331 361 378T248 426Q185 426 146 405Q132 379 124 336T115 240Q115 170 128 128T172 65T259 44Q319 44 361 65Z" />
<glyph unicode="&#xf3;" glyph-name="oacute" horiz-adv-x="507" d="M225 561L308 703L389 695L270 553L225 561ZM145 -9T100 53T55 229Q55 347 103 413T265 480Q361 480 406 416T452 237Q452 120 404 56T242 -9Q145 -9 100 53ZM319 44T361 65Q392 120 392 225Q392
331 361 378T248 426Q185 426 146 405Q132 379 124 336T115 240Q115 170 128 128T172 65T259 44Q319 44 361 65Z" />
<glyph unicode="&#xf4;" glyph-name="ocircumflex" horiz-adv-x="507" d="M122 559L223 691H283L384 559L343 551L256 639H250L161 551L122 559ZM145 -9T100 53T55 229Q55 347 103 413T265 480Q361 480 406 416T452 237Q452 120 404 56T242 -9Q145 -9 100 53ZM319
44T361 65Q392 120 392 225Q392 331 361 378T248 426Q185 426 146 405Q132 379 124 336T115 240Q115 170 128 128T172 65T259 44Q319 44 361 65Z" />
<glyph unicode="&#xf5;" glyph-name="otilde" horiz-adv-x="507" d="M116 566Q122 655 194 655Q209 655 222 649T257 629Q275 617 285 612T306 607Q343 607 350 657L391 644Q385 555 313 555Q296 555 282 562T248 582Q233 593 223 598T201 603Q180 603 170 590T157
553L116 566ZM145 -9T100 53T55 229Q55 347 103 413T265 480Q361 480 406 416T452 237Q452 120 404 56T242 -9Q145 -9 100 53ZM319 44T361 65Q392 120 392 225Q392 331 361 378T248 426Q185 426 146 405Q132 379 124 336T115 240Q115 170 128 128T172 65T259 44Q319
44 361 65Z" />
<glyph unicode="&#xf6;" glyph-name="odieresis" horiz-adv-x="507" d="M156 555T146 564T135 591Q135 609 145 618T174 628Q192 628 202 619T212 591Q212 574 202 565T174 555Q156 555 146 564ZM313 555T303 564T292 591Q292 609 302 618T332 628Q350 628 360
619T370 591Q370 574 360 565T332 555Q313 555 303 564ZM145 -9T100 53T55 229Q55 347 103 413T265 480Q361 480 406 416T452 237Q452 120 404 56T242 -9Q145 -9 100 53ZM319 44T361 65Q392 120 392 225Q392 331 361 378T248 426Q185 426 146 405Q132 379 124 336T115
240Q115 170 128 128T172 65T259 44Q319 44 361 65Z" />
<glyph unicode="&#xf7;" glyph-name="divide" horiz-adv-x="532" d="M245 418T232 431T218 465Q218 486 231 499T266 512Q286 512 299 499T313 465Q313 444 300 431T266 418Q245 418 232 431ZM56 332H475V281H56V332ZM245 101T232 114T218 148Q218 169 231 182T266
195Q286 195 299 182T313 148Q313 127 300 114T266 101Q245 101 232 114Z" />
<glyph unicode="&#xf8;" glyph-name="oslash" horiz-adv-x="509" d="M452 385T452 237Q452 120 404 56T242 -9Q207 -9 178 0L129 -106L76 -92L129 24Q55 80 55 229Q55 347 103 413T265 480Q303 480 334 469L371 550L424 537L381 443Q452 385 452 237ZM115 180T124
141T155 79L310 417Q284 426 248 426Q185 426 146 405Q132 379 124 336T115 240Q115 180 124 141ZM392 120T392 225Q392 283 384 322T355 386L201 51Q225 44 259 44Q319 44 361 65Q392 120 392 225Z" />
<glyph unicode="&#xf9;" glyph-name="ugrave" horiz-adv-x="511" d="M130 695L211 703L294 561L249 553L130 695ZM135 -9T105 16T74 100V468H134V56Q170 45 208 45Q258 45 299 64T370 117V468H430V0H379L375 72H367Q330 32 290 12T198 -9Q135 -9 105 16Z" />
<glyph unicode="&#xfa;" glyph-name="uacute" horiz-adv-x="511" d="M215 559L298 701L379 693L260 551L215 559ZM135 -9T105 16T74 100V468H134V56Q170 45 208 45Q258 45 299 64T370 117V468H430V0H379L375 72H367Q330 32 290 12T198 -9Q135 -9 105 16Z" />
<glyph unicode="&#xfb;" glyph-name="ucircumflex" horiz-adv-x="511" d="M121 560L222 692H282L383 560L342 551L255 640H249L160 551L121 560ZM135 -9T105 16T74 100V468H134V56Q170 45 208 45Q258 45 299 64T370 117V468H430V0H379L375 72H367Q330 32 290 12T198
-9Q135 -9 105 16Z" />
<glyph unicode="&#xfc;" glyph-name="udieresis" horiz-adv-x="511" d="M159 555T149 564T138 591Q138 609 148 618T177 628Q195 628 205 619T215 591Q215 574 205 565T177 555Q159 555 149 564ZM316 555T306 564T295 591Q295 609 305 618T335 628Q353 628 363
619T373 591Q373 574 363 565T335 555Q316 555 306 564ZM135 -9T105 16T74 100V468H134V56Q170 45 208 45Q258 45 299 64T370 117V468H430V0H379L375 72H367Q330 32 290 12T198 -9Q135 -9 105 16Z" />
<glyph unicode="&#xfd;" glyph-name="yacute" horiz-adv-x="488" d="M215 561L298 703L379 695L260 553L215 561ZM92 -189T58 -172V-147Q58 -115 67 -88H111V-135Q129 -138 153 -138Q169 -138 197 -134Q219 -81 256 22H189Q137 149 102 250T36 466L96 472Q151
264 224 75H274Q337 264 385 472L446 466Q406 304 358 153T262 -114Q246 -151 213 -170T140 -189Q92 -189 58 -172Z" />
<glyph unicode="&#xfe;" glyph-name="thorn" horiz-adv-x="487" d="M81 674H144V424H151Q215 466 283 466Q364 466 402 413T440 266Q440 174 401 119T281 63Q212 63 151 103H144V-180H81V674ZM326 121T351 158T377 266Q377 337 352 372T263 408Q204 408 144 375V152Q174
136 202 129T263 121Q326 121 351 158Z" />
<glyph unicode="&#xff;" glyph-name="ydieresis" horiz-adv-x="488" d="M149 555T139 564T128 591Q128 609 138 618T167 628Q185 628 195 619T205 591Q205 574 195 565T167 555Q149 555 139 564ZM306 555T296 564T285 591Q285 609 295 618T325 628Q343 628 353
619T363 591Q363 574 353 565T325 555Q306 555 296 564ZM92 -189T58 -172V-147Q58 -115 67 -88H111V-135Q129 -138 153 -138Q169 -138 197 -134Q219 -81 256 22H189Q137 149 102 250T36 466L96 472Q151 264 224 75H274Q337 264 385 472L446 466Q406 304 358 153T262
-114Q246 -151 213 -170T140 -189Q92 -189 58 -172Z" />
<glyph unicode="&#x2013;" glyph-name="endash" horiz-adv-x="502" d="M71 299H431V244H71V299Z" />
<glyph unicode="&#x2014;" glyph-name="emdash" horiz-adv-x="679" d="M71 299H608V244H71V299Z" />
<glyph unicode="&#x2018;" glyph-name="quoteleft" horiz-adv-x="253" d="M76 430T76 496Q76 529 88 561T123 620L159 611Q141 579 133 548T124 480H178V438Q157 430 137 430Q76 430 76 496Z" />
<glyph unicode="&#x2019;" glyph-name="quoteright" horiz-adv-x="253" d="M94 439Q111 471 120 501T129 569H75V612Q96 620 118 620Q177 620 177 553Q177 521 165 489T131 430L94 439Z" />
<glyph unicode="&#x201a;" glyph-name="quotesinglbase" horiz-adv-x="254" d="M94 -89Q111 -57 120 -27T129 41H75V84Q96 92 118 92Q179 92 179 25Q179 -7 167 -38T132 -98L94 -89Z" />
<glyph unicode="&#x201c;" glyph-name="quotedblleft" horiz-adv-x="418" d="M76 430T76 496Q76 529 88 561T123 620L159 611Q141 579 133 548T124 480H178V438Q157 430 135 430Q76 430 76 496ZM241 430T241 496Q241 529 253 561T288 620L324 611Q306 579 298
548T289 480H343V438Q322 430 302 430Q241 430 241 496Z" />
<glyph unicode="&#x201d;" glyph-name="quotedblright" horiz-adv-x="418" d="M94 439Q111 471 120 501T129 569H75V612Q96 620 117 620Q177 620 177 553Q177 521 165 489T131 430L94 439ZM259 439Q276 471 285 501T294 569H240V612Q261 620 283 620Q342 620 342
553Q342 521 330 489T296 430L259 439Z" />
<glyph unicode="&#x201e;" glyph-name="quotedblbase" horiz-adv-x="418" d="M94 439Q111 471 120 501T129 569H75V612Q96 620 117 620Q177 620 177 553Q177 521 165 489T131 430L94 439ZM259 439Q276 471 285 501T294 569H240V612Q261 620 283 620Q342 620 342
553Q342 521 330 489T296 430L259 439Z" />
<glyph unicode="&#x2022;" glyph-name="bullet" horiz-adv-x="336" d="M129 180T103 206T77 273Q77 311 103 336T168 362Q207 362 233 336T260 272Q260 232 234 206T168 180Q129 180 103 206Z" />
<glyph unicode="&#x2039;" glyph-name="guilsinglleft" horiz-adv-x="303" d="M57 261L187 435L232 418L118 261L232 103L187 86L57 261Z" />
<glyph unicode="&#x203a;" glyph-name="guilsinglright" horiz-adv-x="293" d="M61 103L175 261L61 418L106 435L236 261L106 86L61 103Z" />
</font>
</defs>
</svg>
