<?xml version="1.0" standalone="no"?>
<!DOCTYPE svg PUBLIC "-//W3C//DTD SVG 1.1//EN" "http://www.w3.org/Graphics/SVG/1.1/DTD/svg11.dtd">
<svg xmlns="http://www.w3.org/2000/svg">
<defs >
<font id="Sansita" horiz-adv-x="483" ><font-face
    font-family="Sansita"
    units-per-em="1000"
    panose-1="3 6 5 2 3 6 5 6 5 6"
    ascent="1020"
    descent="-180"
    alphabetic="0" />
<glyph unicode=" " glyph-name="space" horiz-adv-x="162" />
<glyph unicode="!" glyph-name="exclam" horiz-adv-x="249" d="M167 680T192 680Q225 680 239 663T253 613Q253 581 243 538T210 422Q187 348 174 295T160 199Q152 190 139 185T111 180Q86 180 73 194T59 233Q59 250 64 272L141 670Q167 680 192 680ZM115 104T135
88T156 42Q156 11 135 -5T79 -22Q46 -22 26 -6T6 40Q6 71 27 87T82 104Q115 104 135 88Z" />
<glyph unicode="&quot;" glyph-name="quotedbl" horiz-adv-x="395" d="M125 539T132 596T141 704Q163 710 185 710Q250 710 250 648Q250 612 232 563T191 491H113Q125 539 132 596ZM296 539T303 596T312 704Q334 710 356 710Q420 710 420 648Q420 612 402 563T362
491H284Q296 539 303 596Z" />
<glyph unicode="#" glyph-name="numbersign" horiz-adv-x="554" d="M533 239T533 222Q533 193 517 177T470 160H404L387 52Q383 28 365 14T322 0Q302 0 280 11L306 160H197L180 52Q176 28 158 14T115 0Q95 0 73 11L99 160H0Q-5 182 -5 195Q-5 224 11 241T57 258H116L137
388H30Q24 408 24 424Q24 453 40 469T86 486H154L173 612Q177 636 191 649T229 663Q249 663 273 653L247 486H360L380 612Q384 636 398 649T436 663Q457 663 480 653L454 486H558Q562 464 562 450Q562 421 546 405T501 388H439L419 258H527Q533 239 533 222ZM323
258L344 388H232L213 258H323Z" />
<glyph unicode="$" glyph-name="dollar" horiz-adv-x="554" d="M384 452T363 465Q370 480 374 501T378 537Q378 569 360 587T309 606Q269 606 244 580T218 513Q218 482 233 457T271 412T331 364Q373 334 399 310T443 252T462 175Q462 120 432 77T352 9T241 -21L235
-53Q228 -91 216 -104T174 -117Q150 -117 138 -113L157 -16Q101 -6 66 25T30 106Q30 148 56 171T119 194Q149 194 169 181Q163 166 159 145T154 110Q154 77 177 60T236 42Q282 42 315 70T348 144Q348 173 333 197T298 239T238 287Q194 320 168 344T124 402T105
480Q105 554 156 603T290 664L297 699Q304 736 316 749T355 763Q369 763 391 759L373 667Q434 661 468 633T503 552Q503 504 476 478T412 452Q384 452 363 465Z" />
<glyph unicode="%" glyph-name="percent" horiz-adv-x="983" d="M214 -22T167 -22Q121 -22 109 11L718 650Q751 683 797 683Q843 683 855 650L247 11Q214 -22 167 -22ZM411 473T389 416T320 323T202 286Q139 286 108 319T76 427Q76 491 98 547T168 639T286 674Q349
674 380 642T411 536Q411 473 389 416ZM253 344T274 379T305 462T315 546Q315 616 270 616Q236 616 214 582T183 502T173 418Q173 344 218 344Q253 344 274 379ZM908 168T886 111T817 18T699 -19Q635 -19 604 14T572 122Q572 186 595 242T665 334T783 369Q846 369
877 337T908 231Q908 168 886 111ZM749 39T771 75T802 158T812 241Q812 311 767 311Q733 311 711 277T680 197T670 113Q670 39 715 39Q749 39 771 75Z" />
<glyph unicode="&amp;" glyph-name="ampersand" horiz-adv-x="666" d="M632 64T632 49Q632 17 609 -1T544 -20Q481 -20 411 23Q338 -20 245 -20Q180 -20 128 3T45 70T14 171Q14 239 54 284T158 355Q139 415 139 466Q139 576 206 628T378 680Q446 680 493 657T540
575Q540 538 519 512T457 485Q432 485 415 493Q421 514 421 540Q421 576 406 593T357 611Q260 611 260 487Q260 398 306 304T420 147Q438 173 445 204T453 264Q453 290 443 314T416 357Q430 366 449 371T489 376Q572 376 572 286Q572 240 549 190T487 98Q533 74
570 74Q602 74 624 84Q632 64 632 49ZM316 53T347 71Q297 114 255 171T184 291Q164 277 152 252T140 192Q140 133 173 93T270 53Q316 53 347 71Z" />
<glyph unicode="&apos;" glyph-name="quotesingle" horiz-adv-x="225" d="M125 539T132 596T141 704Q165 710 186 710Q250 710 250 648Q250 612 232 563T192 491H113Q125 539 132 596Z" />
<glyph unicode="(" glyph-name="parenleft" horiz-adv-x="377" d="M356 690T280 519T203 132Q203 24 224 -50T295 -180Q289 -200 259 -200Q210 -200 170 -150T106 -15T82 167Q82 316 136 464T275 706T447 800Q483 800 497 780Q356 690 280 519Z" />
<glyph unicode=")" glyph-name="parenright" horiz-adv-x="407" d="M118 800T148 800Q197 800 237 750T301 615T325 433Q325 284 271 136T132 -106T-40 -200Q-76 -200 -90 -180Q5 -120 73 -17T175 209T210 454Q210 555 185 640T112 780Q118 800 148 800Z" />
<glyph unicode="*" glyph-name="asterisk" horiz-adv-x="426" d="M452 550T457 531Q460 522 460 515Q460 489 421 477Q378 463 310 466L381 356Q370 330 352 317Q341 309 329 309Q309 309 290 335Q263 370 244 442L158 337Q130 340 113 353Q95 365 95 382Q95 398
110 418Q139 457 197 493L77 540Q74 554 74 565Q74 578 77 588Q86 615 113 615Q137 615 169 598T235 553L243 683Q266 697 289 697Q329 697 329 646Q329 603 305 538L430 570Q452 550 457 531Z" />
<glyph unicode="+" glyph-name="plus" horiz-adv-x="554" d="M240 410Q245 436 264 451T312 466Q330 466 344 461L309 284H467Q472 270 472 258Q472 230 453 214T400 197H292L264 58Q259 33 242 20T198 6Q180 6 162 12L199 197H46Q42 208 42 220Q42 248 59 266T104
284H215L240 410Z" />
<glyph unicode="," glyph-name="comma" horiz-adv-x="194" d="M136 -5T115 -40T60 -98T-5 -121Q-24 -121 -42 -114Q-12 -80 5 -40T22 41Q22 68 13 85Q22 90 39 94T71 98Q101 98 118 82T136 32Q136 -5 115 -40Z" />
<glyph unicode="-" glyph-name="hyphen" horiz-adv-x="332" d="M274 287T291 289T316 295Q324 276 324 250Q324 225 310 210T270 195H70Q58 195 41 193T16 187Q12 195 10 208T8 232Q8 257 22 272T62 287H262Q274 287 291 289Z" />
<glyph unicode="." glyph-name="period" horiz-adv-x="192" d="M87 104T107 88T128 42Q128 11 107 -5T51 -22Q18 -22 -2 -6T-22 40Q-22 71 -1 87T54 104Q87 104 107 88Z" />
<glyph unicode="/" glyph-name="slash" horiz-adv-x="317" d="M21 -200T-5 -200Q-58 -200 -58 -165Q-58 -154 -54 -141T-48 -124L286 798Q299 801 319 801Q349 801 362 794T376 767Q376 752 365 719L33 -196Q21 -200 -5 -200Z" />
<glyph unicode="0" glyph-name="zero" horiz-adv-x="554" d="M442 680T483 621T525 447Q525 336 492 229T386 51T206 -20Q110 -20 69 39T27 213Q27 324 60 431T166 609T346 680Q442 680 483 621ZM268 604T237 555T181 399Q153 279 153 180Q153 121 168 89T230
56Q284 56 315 105T371 261Q400 386 400 480Q400 539 384 571T322 604Q268 604 237 555Z" />
<glyph unicode="1" glyph-name="one" horiz-adv-x="554" d="M497 84T497 60Q497 -3 412 -3L70 0Q16 0 1 -12Q-8 4 -8 26Q-8 55 12 72T73 90H200L286 534Q254 517 213 505T140 493Q107 493 90 515T68 572Q209 596 402 676L430 660L319 87H431Q469 87 482 103Q497
84 497 60Z" />
<glyph unicode="2" glyph-name="two" horiz-adv-x="554" d="M310 344T346 393T382 494Q382 537 353 562T267 588Q209 588 168 561T94 486Q78 495 71 507T63 540Q63 582 97 614T185 663T300 681Q393 681 447 637T502 507Q502 437 468 383T370 275L303 224Q282 208
230 168T157 108Q265 90 352 90Q390 90 415 95T460 112Q473 89 473 62Q473 -12 363 -12Q318 -12 228 2Q148 15 105 15Q64 15 35 3Q24 12 17 27T10 58Q10 91 46 124L237 281Q310 344 346 393Z" />
<glyph unicode="3" glyph-name="three" horiz-adv-x="554" d="M230 369T276 386T354 436T385 512Q385 551 354 569T265 588Q174 588 111 507Q80 523 80 558Q80 597 111 624T192 666T296 681Q392 681 449 646T507 536Q507 465 461 417T342 351Q415 335 452 301T490
204Q490 139 450 89T343 10T196 -19Q117 -19 60 15T3 108Q3 129 10 141T35 163Q94 77 201 77Q276 77 320 104T364 188Q364 254 313 278T172 302L182 365Q230 369 276 386Z" />
<glyph unicode="4" glyph-name="four" horiz-adv-x="554" d="M498 660Q486 603 466 501T434 338L414 232H461Q499 232 511 248Q527 229 527 206Q527 176 507 159T449 142H397L369 0H253L280 144H-6Q-15 160 -15 181Q-15 195 -9 205T5 226T17 240L380 660H498ZM313
312Q333 408 352 513L111 235H298L313 312Z" />
<glyph unicode="5" glyph-name="five" horiz-adv-x="554" d="M471 660T484 663T508 676Q526 657 526 629Q526 593 502 576T435 559H202L168 401Q208 403 239 403Q497 403 497 229Q497 159 458 103T351 14T197 -19Q116 -19 59 15T1 108Q1 129 8 141T33 163Q63 120
106 99T202 77Q282 77 326 110T371 204Q371 268 326 295T194 322Q163 322 122 319T59 313L140 660H450Q471 660 484 663Z" />
<glyph unicode="6" glyph-name="six" horiz-adv-x="554" d="M419 681T459 661T499 597Q499 562 472 546Q429 589 367 589Q288 589 239 527T171 369Q196 408 239 428T331 449Q408 449 447 400T486 263Q486 184 455 120T366 18T226 -20Q32 -20 32 212Q32 322 72
431T189 610T366 681Q419 681 459 661ZM242 375T214 344T172 265T158 167Q158 56 234 56Q278 56 307 88T349 169T363 267Q363 316 346 345T286 375Q242 375 214 344Z" />
<glyph unicode="7" glyph-name="seven" horiz-adv-x="554" d="M567 603Q501 516 439 425Q328 260 296 166T263 21Q263 5 264 -4Q247 -11 225 -15T186 -20Q151 -20 131 -2T111 49Q111 99 159 173L413 559H154Q112 559 88 576T63 629Q63 657 81 676Q91 666 105 663T140
660H567V603Z" />
<glyph unicode="8" glyph-name="eight" horiz-adv-x="554" d="M424 680T469 647T515 549Q515 441 373 353Q406 326 425 306T457 259T470 193Q470 132 437 84T348 8T225 -19Q140 -19 84 24T28 145Q28 213 72 266T188 354Q152 384 133 416T113 493Q113 551 147 593T235
658T350 680Q424 680 469 647ZM354 413T379 455T404 536Q404 569 385 586T330 604Q291 604 264 582T237 522Q237 489 256 460T305 407L320 394Q354 413 379 455ZM190 291T165 250T139 161Q139 112 165 85T238 57Q286 57 315 87T345 163Q345 201 325 230T268 289L238
314Q190 291 165 250Z" />
<glyph unicode="9" glyph-name="nine" horiz-adv-x="554" d="M514 681T514 449Q514 339 474 230T357 51T179 -20Q126 -20 87 0T47 64Q47 99 74 115Q117 72 179 72Q258 72 307 134T375 292Q351 254 309 233T215 212Q138 212 99 261T60 398Q60 477 90 541T179 643T319
681Q514 681 514 449ZM267 605T238 573T196 492T183 394Q183 345 199 316T259 286Q303 286 331 317T373 396T387 494Q387 545 371 575T311 605Q267 605 238 573Z" />
<glyph unicode=":" glyph-name="colon" horiz-adv-x="274" d="M192 528T212 512T233 466Q233 435 212 419T156 402Q123 402 103 418T83 464Q83 495 104 511T159 528Q192 528 212 512ZM110 104T130 88T151 42Q151 11 130 -5T74 -22Q41 -22 21 -6T1 40Q1 71 22 87T77
104Q110 104 130 88Z" />
<glyph unicode=";" glyph-name="semicolon" horiz-adv-x="259" d="M192 528T212 512T233 466Q233 435 212 419T156 402Q123 402 103 418T83 464Q83 495 104 511T159 528Q192 528 212 512ZM136 -5T115 -40T60 -98T-5 -121Q-24 -121 -42 -114Q-12 -80 5 -40T22 41Q22
68 13 85Q22 90 39 94T71 98Q101 98 118 82T136 32Q136 -5 115 -40Z" />
<glyph unicode="&lt;" glyph-name="less" horiz-adv-x="554" d="M347 102Q357 91 357 72Q357 47 338 27T285 6L51 240L333 460Q362 483 392 483Q416 483 433 470T457 434L217 241H216L347 102Z" />
<glyph unicode="=" glyph-name="equal" horiz-adv-x="554" d="M476 333T476 322Q476 297 458 281T406 264H71Q68 278 68 288Q68 315 85 332T130 349H472Q476 333 476 322ZM476 177T476 163Q476 136 458 120T406 103H71Q68 115 68 126Q68 154 85 171T130 189H472Q476
177 476 163Z" />
<glyph unicode="&gt;" glyph-name="greater" horiz-adv-x="554" d="M474 249L192 29Q163 6 133 6Q113 6 98 19T78 55L312 243L177 387Q167 398 167 417Q167 442 186 462T239 483L473 249H474Z" />
<glyph unicode="?" glyph-name="question" horiz-adv-x="409" d="M451 516T429 481T374 420T288 356Q238 321 209 297T159 244T139 179Q111 179 97 198T82 251Q82 281 98 307T138 353T204 405Q245 436 268 456T308 503T325 559Q325 590 307 605T256 620Q215 620
188 597T161 533Q161 508 170 489Q147 483 120 483Q80 483 58 500T35 553Q35 621 108 650T269 680Q354 680 402 649T451 557Q451 516 429 481ZM138 104T158 88T179 42Q179 11 158 -5T102 -22Q69 -22 49 -6T29 40Q29 71 50 87T105 104Q138 104 158 88Z" />
<glyph unicode="@" glyph-name="at" horiz-adv-x="802" d="M528 181T525 165T521 137Q521 124 527 119T550 114Q610 114 648 166T686 304Q686 378 656 431T571 512T445 540Q350 540 276 492T162 365T122 192Q122 -32 371 -32Q475 -32 531 10Q543 1 543 -16Q543
-56 484 -77T342 -98Q201 -98 114 -30T27 185Q27 299 81 394T233 545T456 601Q549 601 621 569T734 476T775 328Q775 254 746 195T664 101T544 67Q468 67 431 110Q417 88 393 78T341 67Q237 67 237 205Q237 268 259 323T325 413T434 448Q453 448 466 445T502 433L581
442L530 189Q528 181 525 165ZM449 390T425 390Q392 390 371 357T341 277T331 192Q331 160 340 143T373 125Q406 125 421 154T446 229L474 370Q449 390 425 390Z" />
<glyph unicode="A" glyph-name="A" horiz-adv-x="536" d="M463 123Q469 51 502 30Q496 7 477 -6T431 -20Q392 -20 376 10T352 93Q346 138 344 168H157L117 70L88 0H-27L271 660H417L463 123ZM238 373L185 239H338L319 578L238 373Z" />
<glyph unicode="B" glyph-name="B" horiz-adv-x="546" d="M243 669T318 669Q413 669 466 642T520 534Q520 424 410 369Q512 338 512 227Q512 152 469 99T353 18T192 -9Q126 -9 23 0L149 660Q243 669 318 669ZM236 385T261 385Q324 385 359 420T395 519Q395 563
375 583T311 603Q286 603 256 596L215 388Q236 385 261 385ZM183 60T220 60Q296 60 341 100T386 210Q386 259 363 282T304 311T201 317L152 67Q183 60 220 60Z" />
<glyph unicode="C" glyph-name="C" horiz-adv-x="512" d="M444 680T489 646T534 548Q534 501 509 475T446 449Q431 449 418 453T397 465Q403 481 407 502T411 539Q411 571 394 590T343 609Q281 609 238 546T174 395T153 231Q153 160 177 119T262 77Q314 77 351
107T417 192Q434 183 441 171T449 137Q449 92 418 56T335 0T228 -20Q130 -20 79 42T27 224Q27 331 66 436T182 611T369 680Q444 680 489 646Z" />
<glyph unicode="D" glyph-name="D" horiz-adv-x="598" d="M193 663T249 666T338 669Q425 669 475 644T548 568T570 436Q570 318 530 217T407 54T201 -9Q167 -9 118 -7T21 0L149 660Q193 663 249 666ZM168 64T191 62T232 60Q306 60 349 114T415 261Q426 306 435
363T444 463Q444 532 417 565T325 599Q294 599 254 592L151 67Q168 64 191 62Z" />
<glyph unicode="E" glyph-name="E" horiz-adv-x="441" d="M480 613T451 589T372 565Q317 565 250 592L213 377H393Q393 334 367 315T297 295Q248 295 200 318L159 89H280Q300 89 323 92T359 101Q365 93 369 81T373 56Q373 23 345 12T270 0H22L149 660H480Q480
613 451 589Z" />
<glyph unicode="F" glyph-name="F" horiz-adv-x="432" d="M480 613T451 589T372 565Q317 565 250 592L213 377H393Q393 334 367 315T297 295Q248 295 200 318L143 0H22L149 660H480Q480 613 451 589Z" />
<glyph unicode="G" glyph-name="G" horiz-adv-x="528" d="M478 261T463 171T445 -4Q435 -20 410 -20Q352 -20 352 38Q280 -20 200 -20Q115 -20 71 43T26 221Q26 330 65 436T181 611T368 680Q443 680 488 646T533 548Q533 501 508 475T445 449Q430 449 417 453T396
465Q403 481 407 502T411 539Q411 571 393 590T343 609Q280 609 237 546T173 394T152 229Q152 157 177 117T264 76Q286 76 309 81T348 97L380 308L507 326Q478 261 463 171Z" />
<glyph unicode="H" glyph-name="H" horiz-adv-x="615" d="M496 95Q491 68 491 49Q491 24 503 4Q473 -20 436 -20Q402 -20 389 -3T375 47Q375 67 386 133L413 290H195L139 0H22L149 660H268L209 360H426L482 660H601L496 95Z" />
<glyph unicode="I" glyph-name="I" horiz-adv-x="290" d="M268 660L139 0H22L149 660H268Z" />
<glyph unicode="J" glyph-name="J" horiz-adv-x="290" d="M153 71Q133 -36 99 -98T8 -160Q-15 -160 -33 -150T-59 -121Q-20 -106 0 -60T32 51L149 660H268L153 71Z" />
<glyph unicode="K" glyph-name="K" horiz-adv-x="559" d="M142 0H25Q63 198 97 383T149 660H268L142 0ZM578 633T414 429L340 336Q390 205 439 129T526 35Q519 9 499 -5T448 -19Q402 -19 370 15T307 118T226 328L469 660H600Q578 633 414 429Z" />
<glyph unicode="L" glyph-name="L" horiz-adv-x="376" d="M149 660H268L156 89H280Q300 89 323 92T359 101Q365 93 369 81T373 56Q373 23 345 12T271 0H22L149 660Z" />
<glyph unicode="M" glyph-name="M" horiz-adv-x="749" d="M745 660L693 122Q692 114 691 102T690 81Q690 60 695 45T712 16Q682 -22 636 -22Q597 -22 586 -1T574 69Q574 89 580 143L621 518L382 0H300L214 518L108 0H10L155 660H304L382 199L593 660H745Z" />
<glyph unicode="N" glyph-name="N" horiz-adv-x="649" d="M125 0H27L149 660H293L437 144L523 660H620L500 0H369L214 533L125 0Z" />
<glyph unicode="O" glyph-name="O" horiz-adv-x="591" d="M472 680T518 622T565 447Q565 338 529 231T414 52T220 -20Q119 -20 73 38T26 214Q26 324 63 431T178 609T371 680Q472 680 518 622ZM278 610T240 553T180 401Q168 351 160 290T151 185Q151 51 246 51Q316
51 353 110T411 260Q423 310 431 371T440 476Q440 610 345 610Q278 610 240 553Z" />
<glyph unicode="P" glyph-name="P" horiz-adv-x="507" d="M22 0L149 660Q243 669 318 669Q428 669 483 634T539 502Q539 438 514 387T443 306T334 277Q298 277 271 288T237 326Q246 324 265 324Q333 324 374 367T415 495Q415 550 394 576T321 603Q290 603 255
596L139 0H22Z" />
<glyph unicode="Q" glyph-name="Q" horiz-adv-x="592" d="M487 680T533 622T580 449Q580 338 542 230T428 51T249 -20Q255 -21 312 -33T432 -45Q500 -45 535 -23Q548 -46 548 -73Q548 -113 519 -130T443 -147Q412 -147 381 -141T297 -122Q255 -111 226 -105T170
-99Q132 -99 103 -111Q92 -102 85 -86T78 -53Q78 -14 107 0T181 21Q247 30 290 50T368 120T425 261Q437 312 445 370T454 474Q454 536 434 573T364 610Q247 610 196 400Q184 352 176 296T168 201Q168 167 177 152T213 132Q213 115 197 104T149 93Q41 93 41 236Q41
323 76 426T189 605T386 680Q487 680 533 622Z" />
<glyph unicode="R" glyph-name="R" horiz-adv-x="566" d="M243 669T318 669Q428 669 483 634T539 502Q539 414 494 354T371 280Q416 174 459 112T536 35Q529 7 508 -6T458 -19Q413 -19 380 14T316 119T237 326Q249 325 262 325Q337 325 375 367T414 487Q414 546
390 574T312 603Q285 603 255 596L139 0H22L149 660Q243 669 318 669Z" />
<glyph unicode="S" glyph-name="S" horiz-adv-x="505" d="M397 680T440 651T483 562Q483 513 456 487T392 460Q363 460 344 473Q351 489 355 510T359 547Q359 579 341 598T289 617Q249 617 224 590T198 522Q198 477 226 445T311 371Q353 340 379 316T423 257T442
178Q442 118 408 73T318 3T196 -22Q118 -22 64 12T10 108Q10 151 36 174T99 198Q129 198 149 185Q142 169 138 148T134 112Q134 79 157 61T216 43Q262 43 295 72T328 147Q328 176 314 201T278 244T219 292Q174 327 148 350T104 409T85 489Q85 547 116 590T202 657T324
680Q397 680 440 651Z" />
<glyph unicode="T" glyph-name="T" horiz-adv-x="403" d="M416 660T439 663T475 672Q481 664 485 652T489 627Q489 594 461 583T387 571H319L224 95Q219 68 219 49Q219 24 231 4Q201 -20 163 -20Q130 -20 117 -3T103 45Q103 76 109 106L201 571H137Q117 571 94
568T58 559Q52 567 48 579T44 604Q44 637 72 648T146 660H396Q416 660 439 663Z" />
<glyph unicode="U" glyph-name="U" horiz-adv-x="570" d="M495 270Q467 122 405 51T225 -20Q136 -20 89 20T42 138Q42 182 56 252L135 660H253L174 241Q161 171 161 143Q161 102 184 79T249 56Q316 56 347 110T395 261L465 660H570L495 270Z" />
<glyph unicode="V" glyph-name="V" horiz-adv-x="489" d="M67 605T32 629Q38 652 57 665T102 679Q175 679 182 565L211 80L449 660H564L261 0H104L71 536Q67 605 32 629Z" />
<glyph unicode="W" glyph-name="W" horiz-adv-x="804" d="M67 605T32 629Q38 652 57 665T102 679Q175 679 182 565L211 80L431 660H510L544 80L764 660H879L594 0H438L420 413L261 0H104L71 536Q67 605 32 629Z" />
<glyph unicode="X" glyph-name="X" horiz-adv-x="521" d="M107 569T89 595T51 626Q59 651 80 665T130 679Q170 679 191 653T232 577L289 423L458 660H574L324 330L403 121Q415 90 433 64T471 33Q463 8 442 -6T391 -20Q351 -20 330 6T289 82L227 248L63 0H-52L192
341L119 538Q107 569 89 595Z" />
<glyph unicode="Y" glyph-name="Y" horiz-adv-x="375" d="M271 544T321 605T426 666Q450 666 466 655T487 623Q421 581 358 500T243 308L185 0H64L128 321Q96 452 62 524T-6 612Q1 638 22 652T73 666Q106 666 127 648T163 587T195 462L208 399Q271 544 321 605Z" />
<glyph unicode="Z" glyph-name="Z" horiz-adv-x="449" d="M253 573T181 573Q143 573 118 568T73 551Q60 574 60 602Q60 675 170 675Q212 675 288 661Q355 648 394 648Q436 648 465 660Q476 651 483 635T490 604Q490 580 476 564L114 105Q204 87 286 87Q324 87
349 92T394 109Q407 86 407 59Q407 18 377 2T296 -15Q255 -15 173 -1Q101 12 62 12Q21 12 -8 0Q-19 9 -26 25T-33 57Q-33 82 -16 101L345 555Q253 573 181 573Z" />
<glyph unicode="[" glyph-name="bracketleft" horiz-adv-x="378" d="M470 760T448 747T380 734H310L148 -133H198Q243 -133 262 -145T282 -185Q282 -196 281 -200H17L205 800H476Q470 760 448 747Z" />
<glyph unicode="\" glyph-name="backslash" horiz-adv-x="283" d="M113 753T118 770T139 795T187 803Q213 803 219 799L173 -132Q171 -171 155 -185T101 -200Q70 -200 64 -196L111 718Q113 753 118 770Z" />
<glyph unicode="]" glyph-name="bracketright" horiz-adv-x="378" d="M247 733H195Q150 733 131 745T111 785Q111 796 112 800H379L191 -200H-80Q-74 -160 -52 -147T16 -134H85L247 733Z" />
<glyph unicode="^" glyph-name="asciicircum" horiz-adv-x="474" d="M340 589T355 520T397 399T455 326Q446 314 417 305T363 296Q307 296 278 356T233 554Q188 427 144 361T47 295Q26 295 12 305T-6 332Q47 354 102 446T198 660H339Q340 589 355 520Z" />
<glyph unicode="_" glyph-name="underscore" horiz-adv-x="494" d="M457 -61T457 -72Q457 -99 439 -116T385 -134H-38Q-42 -122 -42 -110Q-42 -82 -24 -64T22 -46H452Q457 -61 457 -72Z" />
<glyph unicode="`" glyph-name="grave" horiz-adv-x="228" d="M169 622Q114 637 84 656T54 713Q54 731 62 747T86 769L298 633L281 592L169 622Z" />
<glyph unicode="a" glyph-name="a" horiz-adv-x="529" d="M425 104Q420 74 420 62Q420 30 450 27Q444 4 424 -8T377 -20Q349 -20 331 -5T309 37Q289 8 252 -6T173 -20Q96 -20 62 27T27 167Q27 257 57 340T149 476T304 530Q331 530 353 525T405 509L505 522L425
104ZM360 454T337 462T292 470Q240 470 211 425T165 309Q155 270 149 224T142 145Q142 97 159 69T213 40Q264 40 293 87T334 201L378 439Q360 454 337 462Z" />
<glyph unicode="b" glyph-name="b" horiz-adv-x="510" d="M234 599Q226 556 215 513T194 443Q221 485 262 507T352 530Q424 530 454 483T485 349Q485 257 455 173T362 34T209 -20Q162 -20 105 -7T13 30L143 700L256 712L234 599ZM151 56T174 48T218 40Q271 40
300 84T347 201Q356 240 363 286T370 364Q370 407 355 430T305 453Q251 453 218 401T171 278L132 70Q151 56 174 48Z" />
<glyph unicode="c" glyph-name="c" horiz-adv-x="439" d="M372 530T410 503T449 425Q449 383 425 361T366 338Q337 338 324 352Q330 367 334 386T338 420Q338 444 326 457T290 471Q245 471 211 423T160 306T142 182Q142 63 233 63Q276 63 308 89T355 159Q389 149
389 108Q389 73 365 44T297 -2T200 -20Q27 -20 27 178Q27 267 59 348T155 479T308 530Q372 530 410 503Z" />
<glyph unicode="d" glyph-name="d" horiz-adv-x="529" d="M425 104Q420 74 420 62Q420 30 450 27Q444 4 424 -8T377 -20Q349 -20 331 -5T309 37Q289 8 252 -6T173 -20Q96 -20 62 27T27 166Q27 256 57 339T149 476T303 530Q327 530 347 526T393 513L430 700L542
712L425 104ZM360 454T337 462T292 470Q240 470 211 425T165 309Q155 270 149 224T142 145Q142 97 159 69T213 40Q264 40 293 87T334 201L378 439Q360 454 337 462Z" />
<glyph unicode="e" glyph-name="e" horiz-adv-x="438" d="M377 530T414 503T452 416Q452 359 418 319T327 258T199 237Q171 237 145 239Q142 206 142 179Q142 121 163 92T235 63Q278 63 312 83T365 142Q377 139 383 128T389 102Q389 72 365 44T298 -2T200 -20Q113
-20 70 28T27 178Q27 267 59 347T156 479T314 530Q377 530 414 503ZM239 473T202 416T152 288Q229 288 286 320T343 415Q343 444 330 458T291 473Q239 473 202 416Z" />
<glyph unicode="f" glyph-name="f" horiz-adv-x="308" d="M159 644T208 682T340 720Q400 720 439 700T478 638Q478 606 456 588T401 569Q372 569 358 580Q372 605 372 630Q372 676 329 676Q265 676 248 578L236 510H327L321 465H227L140 0L24 -12L117 465H46L55
510H125L139 564Q159 644 208 682Z" />
<glyph unicode="g" glyph-name="g" horiz-adv-x="504" d="M431 141Q406 12 375 -61T298 -167T179 -201Q105 -201 58 -169T10 -77Q10 -39 32 -21T83 -2Q102 -2 117 -10T141 -33Q122 -54 122 -81Q122 -110 139 -126T185 -142Q245 -142 274 -77T323 115Q303 86 266
72T188 58Q117 58 79 100T41 223Q41 300 74 370T168 485T308 530Q333 530 355 525T407 509L507 522L431 141ZM362 454T339 462T297 470Q252 470 220 426T172 320T156 210Q156 118 225 118Q278 118 305 163T348 279L380 439Q362 454 339 462Z" />
<glyph unicode="h" glyph-name="h" horiz-adv-x="540" d="M255 599Q247 556 236 513T215 443Q242 487 285 508T379 530Q442 530 471 498T501 402Q501 362 492 316T464 194Q454 155 447 120T439 65Q439 48 445 39T469 27Q463 4 443 -8T395 -20Q328 -20 328 55Q328
85 336 127T361 236Q376 295 383 329T390 385Q390 418 373 435T326 453Q273 453 240 402T192 278L138 0L25 -12L164 700L277 712L255 599Z" />
<glyph unicode="i" glyph-name="i" horiz-adv-x="262" d="M246 724T266 708T286 662Q286 631 265 615T210 598Q177 598 157 614T137 660Q137 691 158 707T213 724Q246 724 266 708ZM158 104Q153 77 153 62Q153 30 183 27Q177 4 157 -8T109 -20Q78 -20 60 -2T42
47Q42 76 61 174L129 510L242 522L158 104Z" />
<glyph unicode="j" glyph-name="j" horiz-adv-x="262" d="M251 724T271 708T291 662Q291 631 270 615T215 598Q182 598 162 614T142 660Q142 691 163 707T218 724Q251 724 271 708ZM149 31Q125 -90 81 -145T-21 -200Q-82 -200 -91 -142Q-53 -141 -28 -117T16 -41T52
99L135 510L248 522L149 31Z" />
<glyph unicode="k" glyph-name="k" horiz-adv-x="470" d="M234 599Q226 556 215 513T194 443Q220 486 262 508T352 530Q410 530 440 499T470 414Q470 343 423 298T303 226L349 107Q360 78 379 58T425 35Q421 10 403 -5T355 -20Q316 -20 290 6T242 86T192 241Q262
258 310 296T359 390Q359 421 343 437T297 453Q243 453 215 405T171 278L117 0L4 -12L143 700L256 712L234 599Z" />
<glyph unicode="l" glyph-name="l" horiz-adv-x="241" d="M137 104Q132 77 132 62Q132 30 162 27Q156 4 136 -8T88 -20Q57 -20 39 -2T21 47Q21 76 40 174L146 700L259 712L137 104Z" />
<glyph unicode="m" glyph-name="m" horiz-adv-x="818" d="M259 530T373 530Q426 530 454 508T491 439Q517 485 561 507T658 530Q722 530 754 497T786 401Q786 361 776 314T745 195Q731 143 724 114T717 66Q717 47 724 38T747 27Q741 4 721 -8T673 -20Q606 -20
606 55Q606 85 615 129T640 237Q651 280 659 321T668 385Q668 418 651 435T603 453Q548 453 520 404T477 278L423 0L310 -12L361 241Q362 248 373 299T384 383Q384 417 367 435T318 453Q263 453 235 405T192 278L138 0L25 -12L127 510L221 522L208 432Q259 530
373 530Z" />
<glyph unicode="n" glyph-name="n" horiz-adv-x="540" d="M234 482T279 506T379 530Q442 530 471 498T501 402Q501 362 492 316T464 194Q454 155 447 120T439 65Q439 48 445 39T469 27Q463 4 443 -8T395 -20Q328 -20 328 55Q328 85 336 127T361 236Q376 295 383
329T390 385Q390 418 373 435T326 453Q273 453 240 402T192 278L138 0L25 -12L127 510L221 522L208 432Q234 482 279 506Z" />
<glyph unicode="o" glyph-name="o" horiz-adv-x="509" d="M412 530T447 479T482 343Q482 247 451 165T355 31T194 -20Q97 -20 62 31T27 167Q27 263 58 345T153 479T314 530Q412 530 447 479ZM240 470T211 426T165 309Q155 270 149 224T142 144Q142 40 216 40Q268
40 297 84T344 201Q354 240 360 286T367 366Q367 470 292 470Q240 470 211 426Z" />
<glyph unicode="p" glyph-name="p" horiz-adv-x="531" d="M235 477T280 503T377 530Q446 530 475 483T505 348Q505 255 475 171T382 34T228 -20Q185 -20 139 -3L104 -180L-8 -192L126 510L220 522L207 432Q235 477 280 503ZM172 56T195 48T239 40Q292 40 321 85T367
201Q377 240 383 286T390 364Q390 408 375 430T324 453Q274 453 242 412T198 309L154 71Q172 56 195 48Z" />
<glyph unicode="q" glyph-name="q" horiz-adv-x="506" d="M371 -190L258 -202L279 -89Q300 22 317 67Q290 25 249 3T159 -20Q87 -20 57 27T26 162Q26 255 56 339T149 476T303 530Q330 530 352 525T404 509L503 522L371 -190ZM360 454T337 462T291 470Q240 470
211 426T164 309Q155 270 148 224T141 146Q141 103 156 80T205 57Q260 57 293 109T340 232L378 440Q360 454 337 462Z" />
<glyph unicode="r" glyph-name="r" horiz-adv-x="422" d="M226 476T264 503T349 530Q395 530 419 502T443 430Q443 380 416 345T345 309Q313 309 301 327Q313 344 321 368T330 412Q330 453 294 453Q222 453 190 278L141 0L25 -12L125 510L219 522L206 432Q226
476 264 503Z" />
<glyph unicode="s" glyph-name="s" horiz-adv-x="416" d="M260 141T239 165T172 220Q119 256 90 289T61 372Q61 420 91 456T170 511T275 530Q335 530 376 508T417 435Q417 397 392 375T330 353Q302 353 290 364Q304 399 304 423Q304 479 247 479Q212 479 192 460T171
407Q171 373 192 350T258 295Q294 270 316 251T354 204T370 142Q370 93 340 56T261 -1T156 -22Q91 -22 42 5T-7 81Q-7 119 21 137T86 156Q114 156 129 144Q115 114 115 85Q115 29 174 29Q211 29 235 51T260 108Q260 141 239 165Z" />
<glyph unicode="t" glyph-name="t" horiz-adv-x="299" d="M258 510H336L327 465H248L176 104Q171 77 171 62Q171 30 201 27Q195 4 174 -8T127 -20Q95 -20 78 -2T60 49Q60 94 99 274L109 322L137 465H66L70 495Q119 513 165 543T246 609H278L258 510Z" />
<glyph unicode="u" glyph-name="u" horiz-adv-x="528" d="M424 104Q419 74 419 62Q419 30 449 27Q443 4 423 -8T376 -20Q348 -20 330 -5T308 37Q288 8 251 -6T172 -20Q102 -20 70 18T38 123Q38 157 45 201T68 310L114 510L223 522L175 309Q165 265 156 213T147
129Q147 91 162 66T213 40Q262 40 291 87T333 201L393 510L505 522L424 104Z" />
<glyph unicode="v" glyph-name="v" horiz-adv-x="453" d="M90 285T71 410Q65 452 57 472T30 503Q51 530 98 530Q145 530 164 503T189 410Q195 344 195 187Q195 116 194 72Q256 153 301 257T346 445Q346 475 339 503Q352 515 372 522T414 530Q445 530 457 514T470
465Q470 402 435 319T350 167Q323 129 281 83T196 0L97 -11Q90 285 71 410Z" />
<glyph unicode="w" glyph-name="w" horiz-adv-x="702" d="M90 285T71 410Q65 452 57 472T30 503Q51 530 98 530Q145 530 164 503T189 410Q194 353 194 232L193 72Q252 145 294 251T336 444Q336 475 329 503Q341 514 359 522T397 530Q428 530 437 510T449 445Q452
404 453 334T455 214Q455 182 453 72Q512 145 554 251T596 444Q596 475 589 503Q602 515 622 522T664 530Q694 530 706 514T719 465Q719 402 684 320T599 167Q574 132 535 85T455 0L357 -11Q354 104 350 183Q316 127 279 84T196 0L97 -11Q90 285 71 410Z" />
<glyph unicode="x" glyph-name="x" horiz-adv-x="430" d="M75 470T24 475Q28 501 47 515T96 530Q137 530 162 502T211 416L255 310Q291 345 309 375T328 442Q328 472 313 507Q324 517 342 523T379 529Q413 529 430 510T447 459Q447 410 411 368T310 281L276 258L339
97Q361 40 412 35Q408 9 389 -5T340 -20Q297 -20 272 9T225 94L181 203Q145 168 125 135T104 67Q104 38 119 3Q108 -7 90 -13T53 -19Q19 -19 2 0T-15 50Q-15 103 26 148T137 240L160 255L97 413Q75 470 24 475Z" />
<glyph unicode="y" glyph-name="y" horiz-adv-x="442" d="M35 -65T130 19H85L83 90Q80 219 77 286T67 410Q62 452 53 472T26 503Q47 530 94 530Q143 530 161 502T183 410Q185 362 185 280V187L184 92Q251 181 291 271T332 445Q332 475 325 503Q338 515 358 522T401
530Q431 530 443 514T456 465Q456 373 392 258T212 35Q178 4 164 -20T150 -82Q150 -103 158 -127T178 -170Q165 -184 144 -192T100 -200Q68 -200 52 -181T35 -127Q35 -65 130 19Z" />
<glyph unicode="z" glyph-name="z" horiz-adv-x="396" d="M261 424T217 428T146 433Q121 433 103 427T69 406Q51 429 51 461Q51 497 78 513T149 529Q175 529 206 524T244 518Q310 506 341 506Q376 506 395 516Q413 498 413 472Q413 435 383 401L110 96Q139 90
187 85T263 80Q319 80 345 107Q363 84 363 53Q363 16 335 0T261 -16Q227 -16 161 -4Q97 8 68 8Q33 8 13 -3Q3 3 -4 19T-11 54Q-11 96 26 137L291 418Q261 424 217 428Z" />
<glyph unicode="{" glyph-name="braceleft" horiz-adv-x="373" d="M386 800T428 793L420 748H397Q358 748 341 722T313 638L277 432Q258 322 175 311Q212 308 226 291T240 246Q240 223 233 190L191 -19Q184 -58 184 -86Q184 -116 194 -131T230 -147H254L243 -193Q194
-200 162 -200Q111 -200 86 -182T60 -122Q60 -96 68 -54L112 165Q119 200 119 219Q119 248 105 264T60 280L71 336Q108 336 132 366T165 451L203 669Q212 718 227 746T270 787T348 800Q386 800 428 793Z" />
<glyph unicode="|" glyph-name="bar" horiz-adv-x="284" d="M297 800L107 -200H0L192 800H297Z" />
<glyph unicode="}" glyph-name="braceright" horiz-adv-x="404" d="M42 -148T59 -122T87 -38L127 185Q146 295 229 306Q192 309 178 326T164 371Q164 389 170 427L209 619Q216 658 216 686Q216 716 206 731T171 747H147L158 793Q207 800 238 800Q290 800 315 782T341
722Q341 702 336 670T316 570L292 452Q285 417 285 398Q285 369 299 353T344 337L333 281Q296 281 272 251T239 166L198 -69Q189 -118 174 -146T130 -187T52 -200Q15 -200 -27 -193L-19 -148H4Q42 -148 59 -122Z" />
<glyph unicode="~" glyph-name="asciitilde" horiz-adv-x="554" d="M430 255T430 235Q430 208 404 191T333 173Q310 173 286 177T225 190Q202 195 179 199T140 204Q118 204 99 197T71 179Q52 206 52 226Q52 253 78 270T149 288Q172 288 200 283T255 271Q278 266
301 262T342 257Q364 257 383 264T411 282Q430 255 430 235Z" />
<glyph unicode="&#xa0;" glyph-name="uni00A0" horiz-adv-x="162" />
<glyph unicode="&#xa1;" glyph-name="exclamdown" horiz-adv-x="239" d="M198 530T218 514T239 468Q239 437 218 421T162 404Q129 404 109 420T89 466Q89 497 110 513T165 530Q198 530 218 514ZM80 -171T56 -171Q24 -171 10 -154T-4 -104Q-4 -72 6 -29T39 87Q62
161 75 214T89 310Q97 319 110 324T138 329Q163 329 176 315T189 276Q189 255 185 237L108 -161Q80 -171 56 -171Z" />
<glyph unicode="&#xa2;" glyph-name="cent" horiz-adv-x="554" d="M455 584T481 556T507 488Q507 448 483 425T424 402Q394 402 381 416Q387 431 391 450T395 485Q395 508 383 521T348 535Q303 535 269 487T218 370T200 246Q200 192 221 160T290 127Q334 127 365
153T412 223Q447 213 447 172Q447 128 406 93T305 47L299 16Q292 -22 280 -35T238 -48Q214 -48 202 -44L220 47Q148 59 117 106T85 239Q85 324 113 401T196 529T327 591L333 623Q340 660 352 673T391 687Q405 687 427 683L409 591Q455 584 481 556Z" />
<glyph unicode="&#xa3;" glyph-name="sterling" horiz-adv-x="554" d="M326 606T309 584T285 518L264 401H422Q427 391 427 378Q427 338 362 338H252L235 235Q219 146 158 110Q195 102 248 96T348 90Q383 90 408 94T455 112Q468 89 468 62Q468 -12 358 -12Q317
-12 235 2Q163 15 123 15Q82 15 53 3Q43 12 36 27T28 57Q28 72 36 84T55 105T69 118Q91 139 104 160T125 220L145 338H40Q36 347 36 360Q36 380 51 390T94 401H157L176 504Q191 585 243 622T375 660Q446 660 490 632T535 552Q535 510 507 485T443 460Q414 460 395
473Q411 510 411 546Q411 573 399 589T359 606Q326 606 309 584Z" />
<glyph unicode="&#xa4;" glyph-name="currency" horiz-adv-x="554" d="M449 301T426 258L526 171L470 105L371 199Q327 170 265 170Q218 170 185 185L96 98L35 160L128 243Q116 272 116 310Q116 375 147 421L53 508L105 578L205 477Q248 501 298 501Q339 501 372
487L466 579L527 517L432 432Q449 400 449 355Q449 301 426 258ZM324 235T350 264T376 340Q376 385 352 410T288 435Q243 435 216 404T189 324Q189 279 211 257T275 235Q324 235 350 264Z" />
<glyph unicode="&#xa5;" glyph-name="yen" horiz-adv-x="554" d="M145 0L172 139H49Q45 148 45 161Q45 181 60 191T103 202H185L199 273H75Q71 282 71 295Q71 315 86 325T129 336H205Q175 457 142 528T75 626Q82 652 102 666T154 680Q190 680 211 657T248 577T288
399Q352 548 403 614T506 680Q530 680 546 669T567 637Q503 585 444 509T337 336H451Q456 326 456 313Q456 273 390 273H317L303 202H425Q430 192 430 179Q430 139 364 139H291L265 0H145Z" />
<glyph unicode="&#xa6;" glyph-name="brokenbar" horiz-adv-x="284" d="M114 388L167 660H273L221 388H114ZM39 0L91 272H197L146 0H39Z" />
<glyph unicode="&#xa7;" glyph-name="section" horiz-adv-x="488" d="M413 680T454 658T496 585Q496 547 472 525T410 503Q382 503 370 514Q384 549 384 573Q384 629 327 629Q292 629 271 610T250 557Q250 522 272 496T340 435Q376 407 397 386T434 337T449 272Q449
213 410 170T303 90Q355 38 355 -20Q355 -68 325 -104T246 -159T141 -179Q83 -179 42 -157T0 -84Q0 -46 24 -24T86 -2Q114 -2 126 -13Q112 -48 112 -72Q112 -128 169 -128Q204 -128 225 -109T246 -56Q246 -21 224 4T156 67Q120 95 99 116T62 165T47 229Q47 287
86 331T192 410Q141 463 141 522Q141 570 171 606T250 661T355 680Q413 680 454 658ZM193 352T175 327T156 266Q156 238 168 216T201 176T265 124Q302 148 321 173T340 234Q340 271 321 294T257 354Q239 368 230 376Q193 352 175 327Z" />
<glyph unicode="&#xa8;" glyph-name="dieresis" horiz-adv-x="339" d="M384 724T404 708T424 662Q424 631 403 615T348 598Q315 598 295 614T275 660Q275 691 296 707T351 724Q384 724 404 708ZM436 724T456 708T476 662Q476 631 455 615T400 598Q367 598 347
614T327 660Q327 691 348 707T403 724Q436 724 456 708Z" />
<glyph unicode="&#xa9;" glyph-name="copyright" horiz-adv-x="776" d="M27 317T82 411T235 560T461 614Q598 614 673 547T749 344Q749 229 696 133T543 -19T315 -76Q176 -76 102 -8T27 198Q27 317 82 411ZM121 103T179 44T336 -15Q429 -15 501 35T614 165T655
333Q655 438 597 495T440 553Q348 553 275 505T162 377T121 209Q121 103 179 44ZM385 427T363 362T340 223Q340 180 351 158T396 135Q426 135 449 154T481 203Q506 196 506 166Q506 143 489 122T441 88T367 75Q302 75 269 109T236 218Q236 283 261 340T334 433T451
469Q497 469 524 452T552 396Q552 365 535 348T490 330Q466 330 457 340Q462 351 465 366T468 393Q468 427 435 427Q385 427 363 362Z" />
<glyph unicode="&#xaa;" glyph-name="ordfeminine" horiz-adv-x="449" d="M360 368Q356 352 356 339Q356 315 378 314Q374 299 358 290T321 280Q300 280 284 291T266 323Q252 302 226 291T171 280Q117 280 90 316T62 419Q62 481 85 540T155 636T265 674Q298 674
337 659L417 668L360 368ZM196 616T172 512Q157 446 157 405Q157 338 203 338Q235 338 254 368T281 442L309 596Q297 605 282 610T254 616Q196 616 172 512ZM359 216T359 210Q359 189 346 176T305 162H43Q41 176 41 183Q41 205 54 218T88 232H357Q359 216 359 210Z"
/>
<glyph unicode="&#xab;" glyph-name="guillemotleft" horiz-adv-x="478" d="M186 509H283L163 317L212 126H117L30 317L186 509ZM384 509H482L362 317L411 126H315L228 317L384 509Z" />
<glyph unicode="&#xac;" glyph-name="logicalnot" horiz-adv-x="554" d="M437 1T425 0T400 -2Q372 -2 361 8T349 42Q349 58 354 83L375 197H52Q49 211 49 221Q49 249 66 266T112 284H493L440 2Q437 1 425 0Z" />
<glyph unicode="&#xad;" glyph-name="uni00AD" horiz-adv-x="332" d="M274 287T291 289T316 295Q324 276 324 250Q324 225 310 210T270 195H70Q58 195 41 193T16 187Q12 195 10 208T8 232Q8 257 22 272T62 287H262Q274 287 291 289Z" />
<glyph unicode="&#xae;" glyph-name="registered" horiz-adv-x="776" d="M598 679T673 612T749 409Q749 294 696 198T543 46T315 -11Q176 -11 102 57T27 263Q27 382 82 476T235 625T461 679Q598 679 673 612ZM348 618T275 570T162 442T121 274Q121 168 179 109T336
50Q429 50 501 100T614 230T655 398Q655 503 597 560T440 618Q348 618 275 570ZM463 532T502 512T541 435Q541 388 515 353T444 311Q458 266 469 244T493 209T529 191Q525 171 508 157T463 143Q434 143 417 161T388 220T363 337H365Q407 338 428 362T450 427Q450
456 437 470T390 485Q371 485 361 482L299 152H208L280 527Q340 532 397 532Q463 532 502 512Z" />
<glyph unicode="&#xaf;" glyph-name="overscore" horiz-adv-x="266" d="M354 686T354 672Q354 645 337 630T285 614H74Q72 622 72 638Q73 665 89 680T133 696H351Q354 686 354 672Z" />
<glyph unicode="&#xb0;" glyph-name="degree" horiz-adv-x="342" d="M114 370T78 403T42 497Q42 550 69 593T143 660T246 684Q310 684 345 652T380 558Q380 504 354 462T281 395T179 370Q114 370 78 403ZM233 423T262 461T292 556Q292 590 279 608T236 626Q189
626 162 587T134 490Q134 455 146 439T186 423Q233 423 262 461Z" />
<glyph unicode="&#xb1;" glyph-name="plusminus" horiz-adv-x="554" d="M255 435T274 450T320 466Q338 466 354 460L329 327H457Q462 310 462 300Q462 274 445 260T395 245H312L298 170Q293 145 276 132T233 118Q216 118 196 124L218 245H91Q87 256 87 265Q87
292 104 309T149 327H234L250 409Q255 435 274 450ZM399 79T399 65Q399 40 383 27T333 13H76Q72 25 72 38Q72 63 87 77T131 91H395Q399 79 399 65Z" />
<glyph unicode="&#xb2;" glyph-name="uni00B2" horiz-adv-x="350" d="M280 681T310 656T341 579Q341 544 328 518T288 466L258 439Q199 385 177 367Q211 357 256 357Q298 357 318 369Q325 355 325 336Q325 286 265 286Q234 286 190 294Q144 302 114 302Q90 302
73 295Q67 300 63 308T59 324Q59 340 83 366T154 435Q161 442 181 460T212 490Q228 509 238 530T248 569Q248 592 233 604T194 616Q143 616 113 562Q91 569 91 595Q91 636 132 658T227 681Q280 681 310 656Z" />
<glyph unicode="&#xb3;" glyph-name="uni00B3" horiz-adv-x="347" d="M187 508T215 526T243 576Q243 616 199 616Q174 616 150 604T110 570Q91 580 91 600Q91 636 133 658T228 681Q275 681 304 660T333 599Q333 559 306 532T238 493Q325 486 325 410Q325 372 304
343T247 297T170 281Q122 281 89 302T55 360Q55 372 59 379T73 392Q92 369 114 358T165 346Q231 346 231 405Q231 440 208 452T141 464L146 503Q187 508 215 526Z" />
<glyph unicode="&#xb4;" glyph-name="acute" horiz-adv-x="228" d="M276 769Q293 763 301 747T309 713Q309 676 279 657T193 622L82 592L65 633L276 769Z" />
<glyph unicode="&#xb5;" glyph-name="uni00B5" horiz-adv-x="546" d="M522 522L442 104Q437 74 437 62Q437 30 467 27Q461 4 441 -8T394 -20Q366 -20 348 -5T326 37Q306 8 270 -6T193 -20Q162 -20 138 -11L108 -180L-8 -192L89 309Q110 418 110 446Q110 480 80
483Q86 506 106 518T154 530Q186 530 203 512T221 457Q221 433 213 391T195 304Q180 236 173 196T166 125Q166 40 230 40Q280 40 309 86T351 201L409 510L522 522Z" />
<glyph unicode="&#xb6;" glyph-name="paragraph" horiz-adv-x="764" d="M349 -130T305 -165T188 -200Q130 -200 98 -180T66 -126Q66 -119 67 -113T69 -106Q83 -114 107 -119T153 -124Q201 -124 230 -97T270 -20L327 268Q311 261 283 257T230 253Q162 253 125 291T87
406Q87 484 126 545T236 640T400 675Q455 675 501 660L368 -54Q349 -130 305 -165ZM768 660T797 664Q792 620 773 602T712 583Q684 583 669 588L561 0L451 -20L585 660H698Q768 660 797 664Z" />
<glyph unicode="&#xb7;" glyph-name="middot" horiz-adv-x="192" d="M121 323T141 307T162 261Q162 230 141 214T85 197Q52 197 32 213T12 259Q12 290 33 306T88 323Q121 323 141 307Z" />
<glyph unicode="&#xb8;" glyph-name="cedilla" horiz-adv-x="444" d="M306 -64T333 -82T360 -140Q360 -189 317 -221T210 -253Q171 -253 148 -241T124 -205Q124 -184 140 -172Q157 -200 203 -200Q233 -200 255 -189T277 -152Q277 -111 198 -111Q187 -111 161 -113L198
11H245L222 -66Q242 -64 262 -64Q306 -64 333 -82Z" />
<glyph unicode="&#xb9;" glyph-name="uni00B9" horiz-adv-x="331" d="M210 352H243Q266 352 272 361Q281 351 281 326Q281 302 269 294T233 285L83 287Q51 287 43 280Q41 286 40 295T38 314Q38 354 85 354H118L162 580Q151 573 136 569T109 565Q86 565 76 581T63
625Q106 631 153 645T242 679L272 669L210 352Z" />
<glyph unicode="&#xba;" glyph-name="ordmasculine" horiz-adv-x="454" d="M421 472T399 414T329 318T209 280Q145 280 114 313T82 420Q82 483 105 541T175 636T294 674Q357 674 389 640T421 534Q421 472 399 414ZM259 338T281 374T314 459T325 545Q325 616 279
616Q244 616 222 579T189 493T179 408Q179 338 225 338Q259 338 281 374ZM41 176T41 183Q41 205 54 218T88 232H356Q358 216 358 210Q358 189 345 176T305 162H43Q41 176 41 183Z" />
<glyph unicode="&#xbb;" glyph-name="guillemotright" horiz-adv-x="478" d="M249 318L93 126H-4L116 318L67 509H162L249 318ZM448 318L292 126H194L314 318L265 509H361L448 318Z" />
<glyph unicode="&#xbc;" glyph-name="onequarter" horiz-adv-x="827" d="M537 720T551 720Q573 720 583 715T594 694Q594 680 585 659L259 -89Q253 -91 232 -91Q189 -91 189 -65Q189 -57 195 -43L525 718Q537 720 551 720ZM208 352H241Q264 352 270 361Q279 351
279 326Q279 302 267 294T231 285L81 287Q49 287 41 280Q39 286 38 295T36 314Q36 354 83 354H116L160 580Q149 573 134 569T107 565Q84 565 74 581T61 625Q104 631 151 645T240 679L270 669L208 352ZM761 380Q738 285 712 137Q746 140 763 151Q771 138 771 120Q771
97 754 84T698 67L688 0Q673 -12 647 -12Q621 -12 611 -2T600 30L601 43L605 69Q518 73 459 88L456 133L673 388L761 380ZM571 136T619 136L627 172Q644 261 658 303L526 141Q571 136 619 136Z" />
<glyph unicode="&#xbd;" glyph-name="onehalf" horiz-adv-x="777" d="M537 720T551 720Q573 720 583 715T594 694Q594 680 585 659L259 -89Q253 -91 232 -91Q189 -91 189 -65Q189 -57 195 -43L525 718Q537 720 551 720ZM208 352H241Q264 352 270 361Q279 351 279
326Q279 302 267 294T231 285L81 287Q49 287 41 280Q39 286 38 295T36 314Q36 354 83 354H116L160 580Q149 573 134 569T107 565Q84 565 74 581T61 625Q104 631 151 645T240 679L270 669L208 352ZM664 219T664 273Q664 297 650 308T611 320Q559 320 529 266Q507
273 507 299Q507 340 548 362T643 385Q697 385 727 360T757 283Q757 243 739 213T682 149L649 121Q635 108 621 96T593 71Q627 61 672 61Q714 61 734 73Q741 59 741 40Q741 -10 678 -10Q654 -10 600 -2Q548 6 529 6Q507 6 489 -1Q483 4 479 13T475 30Q475 41 482
52T506 77L584 149Q664 219 664 273Z" />
<glyph unicode="&#xbe;" glyph-name="threequarters" horiz-adv-x="846" d="M556 720T570 720Q592 720 602 715T613 694Q613 680 604 659L278 -89Q272 -91 251 -91Q208 -91 208 -65Q208 -57 214 -43L544 718Q556 720 570 720ZM176 508T204 526T232 576Q232 616
188 616Q163 616 139 604T99 570Q80 580 80 600Q80 636 122 658T217 681Q264 681 293 660T322 599Q322 559 295 532T227 493Q314 486 314 410Q314 372 293 343T236 297T159 281Q111 281 78 302T44 360Q44 372 48 379T62 392Q81 369 103 358T154 346Q220 346 220
405Q220 440 197 452T130 464L135 503Q176 508 204 526ZM780 380Q757 285 731 137Q765 140 782 151Q790 138 790 120Q790 97 773 84T717 67L707 0Q692 -12 666 -12Q640 -12 630 -2T619 30L620 43L624 69Q537 73 478 88L475 133L692 388L780 380ZM590 136T638 136L646
172Q663 261 677 303L545 141Q590 136 638 136Z" />
<glyph unicode="&#xbf;" glyph-name="questiondown" horiz-adv-x="409" d="M328 530T348 514T369 468Q369 437 348 421T292 404Q259 404 239 420T219 466Q219 497 240 513T295 530Q328 530 348 514ZM-42 -6T-20 29T35 90T121 154Q171 189 200 213T250 266T270
331Q298 331 312 312T327 259Q327 216 297 183T206 106Q145 61 115 28T84 -49Q84 -80 102 -95T153 -110Q194 -110 221 -87T248 -23Q248 2 239 21Q262 27 289 27Q329 27 351 10T374 -43Q374 -111 301 -140T140 -170Q55 -170 7 -139T-42 -47Q-42 -6 -20 29Z" />
<glyph unicode="&#xc0;" glyph-name="Agrave" horiz-adv-x="536" d="M463 123Q469 51 502 30Q496 7 477 -6T431 -20Q392 -20 376 10T352 93Q346 138 344 168H157L117 70L88 0H-27L271 660H417L463 123ZM238 373L185 239H338L319 578L238 373ZM424 713L309 719Q250
722 213 738T176 800Q176 830 198 845L432 756L424 713Z" />
<glyph unicode="&#xc1;" glyph-name="Aacute" horiz-adv-x="536" d="M463 123Q469 51 502 30Q496 7 477 -6T431 -20Q392 -20 376 10T352 93Q346 138 344 168H157L117 70L88 0H-27L271 660H417L463 123ZM238 373L185 239H338L319 578L238 373ZM265 756L499 845Q521
830 521 800Q521 755 484 739T388 719L273 713L265 756Z" />
<glyph unicode="&#xc2;" glyph-name="Acircumflex" horiz-adv-x="536" d="M463 123Q469 51 502 30Q496 7 477 -6T431 -20Q392 -20 376 10T352 93Q346 138 344 168H157L117 70L88 0H-27L271 660H417L463 123ZM238 373L185 239H338L319 578L238 373ZM487 722L447
674L342 746L212 674L185 723L348 839H355L487 722Z" />
<glyph unicode="&#xc3;" glyph-name="Atilde" horiz-adv-x="536" d="M463 123Q469 51 502 30Q496 7 477 -6T431 -20Q392 -20 376 10T352 93Q346 138 344 168H157L117 70L88 0H-27L271 660H417L463 123ZM238 373L185 239H338L319 578L238 373ZM515 807T515 785Q515
756 494 741T438 725Q418 725 354 733Q292 741 272 741Q235 741 216 726Q199 751 199 772Q199 798 220 812T279 826Q302 826 366 818Q428 810 449 810Q487 810 499 826Q515 807 515 785Z" />
<glyph unicode="&#xc4;" glyph-name="Adieresis" horiz-adv-x="536" d="M463 123Q469 51 502 30Q496 7 477 -6T431 -20Q392 -20 376 10T352 93Q346 138 344 168H157L117 70L88 0H-27L271 660H417L463 123ZM238 373L185 239H338L319 578L238 373ZM280 853T300 837T321
791Q321 760 299 744T244 727Q211 727 191 743T171 789Q171 820 192 836T247 853Q280 853 300 837ZM489 853T509 837T530 791Q530 760 508 744T453 727Q420 727 400 743T380 789Q380 820 401 836T456 853Q489 853 509 837Z" />
<glyph unicode="&#xc5;" glyph-name="Aring" horiz-adv-x="536" d="M463 123Q469 51 502 30Q496 7 477 -6T431 -20Q392 -20 376 10T352 93Q346 138 344 168H157L117 70L88 0H-27L271 660H417L463 123ZM238 373L185 239H338L319 578L238 373ZM457 744T421 717T339
690Q298 690 275 707T252 758Q252 802 287 828T368 855Q409 855 433 837T457 787Q457 744 421 717ZM397 801T387 810T358 820Q339 820 325 802T310 757Q310 722 345 722Q364 722 380 740T397 784Q397 801 387 810Z" />
<glyph unicode="&#xc6;" glyph-name="AE" horiz-adv-x="669" d="M45 0H-71L287 660H677Q677 613 648 589T569 565Q539 565 501 573T434 592L415 377H600Q600 334 574 315T503 295Q479 295 454 300T409 314Q397 190 397 160Q397 109 422 88T499 67Q545 67 583 81Q589
69 589 52Q589 14 547 -3T452 -20Q375 -20 330 17T285 126Q285 153 288 177H134L45 0ZM305 317T317 420L334 569L173 254H299Q305 317 317 420Z" />
<glyph unicode="&#xc7;" glyph-name="Ccedilla" horiz-adv-x="512" d="M431 449T418 453T397 465Q403 481 407 502T411 539Q411 571 394 590T343 609Q281 609 238 546T174 395T153 231Q153 160 177 119T262 77Q314 77 351 107T417 192Q434 183 441 171T449 137Q449
77 396 35T265 -18L251 -66Q271 -64 291 -64Q335 -64 362 -82T389 -140Q389 -189 346 -221T239 -253Q200 -253 177 -241T153 -205Q153 -184 169 -172Q186 -200 232 -200Q262 -200 284 -189T306 -152Q306 -111 227 -111Q216 -111 190 -113L218 -20Q125 -16 76 45T27
224Q27 331 66 436T182 611T369 680Q444 680 489 646T534 548Q534 501 509 475T446 449Q431 449 418 453Z" />
<glyph unicode="&#xc8;" glyph-name="Egrave" horiz-adv-x="441" d="M480 613T451 589T372 565Q317 565 250 592L213 377H393Q393 334 367 315T297 295Q248 295 200 318L159 89H280Q300 89 323 92T359 101Q365 93 369 81T373 56Q373 23 345 12T270 0H22L149 660H480Q480
613 451 589ZM400 713L285 719Q226 722 189 738T152 800Q152 830 174 845L408 756L400 713Z" />
<glyph unicode="&#xc9;" glyph-name="Eacute" horiz-adv-x="441" d="M480 613T451 589T372 565Q317 565 250 592L213 377H393Q393 334 367 315T297 295Q248 295 200 318L159 89H280Q300 89 323 92T359 101Q365 93 369 81T373 56Q373 23 345 12T270 0H22L149 660H480Q480
613 451 589ZM241 756L475 845Q497 830 497 800Q497 755 460 739T364 719L249 713L241 756Z" />
<glyph unicode="&#xca;" glyph-name="Ecircumflex" horiz-adv-x="441" d="M480 613T451 589T372 565Q317 565 250 592L213 377H393Q393 334 367 315T297 295Q248 295 200 318L159 89H280Q300 89 323 92T359 101Q365 93 369 81T373 56Q373 23 345 12T270 0H22L149
660H480Q480 613 451 589ZM463 722L423 674L318 746L188 674L161 723L324 839H331L463 722Z" />
<glyph unicode="&#xcb;" glyph-name="Edieresis" horiz-adv-x="441" d="M480 613T451 589T372 565Q317 565 250 592L213 377H393Q393 334 367 315T297 295Q248 295 200 318L159 89H280Q300 89 323 92T359 101Q365 93 369 81T373 56Q373 23 345 12T270 0H22L149
660H480Q480 613 451 589ZM256 853T276 837T297 791Q297 760 275 744T220 727Q187 727 167 743T147 789Q147 820 168 836T223 853Q256 853 276 837ZM465 853T485 837T506 791Q506 760 484 744T429 727Q396 727 376 743T356 789Q356 820 377 836T432 853Q465 853
485 837Z" />
<glyph unicode="&#xcc;" glyph-name="Igrave" horiz-adv-x="290" d="M268 660L139 0H22L149 660H268ZM562 713L447 719Q388 722 351 738T314 800Q314 830 336 845L570 756L562 713Z" />
<glyph unicode="&#xcd;" glyph-name="Iacute" horiz-adv-x="290" d="M268 660L139 0H22L149 660H268ZM147 756L381 845Q403 830 403 800Q403 755 366 739T270 719L155 713L147 756Z" />
<glyph unicode="&#xce;" glyph-name="Icircumflex" horiz-adv-x="290" d="M268 660L139 0H22L149 660H268ZM625 722L585 674L480 746L350 674L323 723L486 839H493L625 722Z" />
<glyph unicode="&#xcf;" glyph-name="Idieresis" horiz-adv-x="290" d="M268 660L139 0H22L149 660H268ZM418 853T438 837T459 791Q459 760 437 744T382 727Q349 727 329 743T309 789Q309 820 330 836T385 853Q418 853 438 837ZM627 853T647 837T668 791Q668 760
646 744T591 727Q558 727 538 743T518 789Q518 820 539 836T594 853Q627 853 647 837Z" />
<glyph unicode="&#xd0;" glyph-name="Eth" horiz-adv-x="598" d="M193 663T249 666T338 669Q425 669 475 644T548 568T570 436Q570 318 530 217T407 54T201 -9Q167 -9 118 -7T21 0L78 295H5Q3 303 3 319Q5 367 59 367H92L149 660Q193 663 249 666ZM168 64T191
62T232 60Q306 60 349 114T415 261Q426 306 435 363T444 463Q444 532 417 565T325 599Q294 599 254 592L210 367H361Q364 357 364 343Q364 295 301 295H196L151 67Q168 64 191 62Z" />
<glyph unicode="&#xd1;" glyph-name="Ntilde" horiz-adv-x="649" d="M125 0H27L149 660H293L437 144L523 660H620L500 0H369L214 533L125 0ZM569 807T569 785Q569 756 548 741T492 725Q472 725 408 733Q346 741 326 741Q289 741 270 726Q253 751 253 772Q253 798
274 812T333 826Q356 826 420 818Q482 810 503 810Q541 810 553 826Q569 807 569 785Z" />
<glyph unicode="&#xd2;" glyph-name="Ograve" horiz-adv-x="591" d="M472 680T518 622T565 447Q565 338 529 231T414 52T220 -20Q119 -20 73 38T26 214Q26 324 63 431T178 609T371 680Q472 680 518 622ZM278 610T240 553T180 401Q168 351 160 290T151 185Q151
51 246 51Q316 51 353 110T411 260Q423 310 431 371T440 476Q440 610 345 610Q278 610 240 553ZM460 713L345 719Q286 722 249 738T212 800Q212 830 234 845L468 756L460 713Z" />
<glyph unicode="&#xd3;" glyph-name="Oacute" horiz-adv-x="591" d="M472 680T518 622T565 447Q565 338 529 231T414 52T220 -20Q119 -20 73 38T26 214Q26 324 63 431T178 609T371 680Q472 680 518 622ZM278 610T240 553T180 401Q168 351 160 290T151 185Q151
51 246 51Q316 51 353 110T411 260Q423 310 431 371T440 476Q440 610 345 610Q278 610 240 553ZM301 756L535 845Q557 830 557 800Q557 755 520 739T424 719L309 713L301 756Z" />
<glyph unicode="&#xd4;" glyph-name="Ocircumflex" horiz-adv-x="591" d="M472 680T518 622T565 447Q565 338 529 231T414 52T220 -20Q119 -20 73 38T26 214Q26 324 63 431T178 609T371 680Q472 680 518 622ZM278 610T240 553T180 401Q168 351 160 290T151 185Q151
51 246 51Q316 51 353 110T411 260Q423 310 431 371T440 476Q440 610 345 610Q278 610 240 553ZM523 722L483 674L378 746L248 674L221 723L384 839H391L523 722Z" />
<glyph unicode="&#xd5;" glyph-name="Otilde" horiz-adv-x="591" d="M472 680T518 622T565 447Q565 338 529 231T414 52T220 -20Q119 -20 73 38T26 214Q26 324 63 431T178 609T371 680Q472 680 518 622ZM278 610T240 553T180 401Q168 351 160 290T151 185Q151
51 246 51Q316 51 353 110T411 260Q423 310 431 371T440 476Q440 610 345 610Q278 610 240 553ZM551 807T551 785Q551 756 530 741T474 725Q454 725 390 733Q328 741 308 741Q271 741 252 726Q235 751 235 772Q235 798 256 812T315 826Q338 826 402 818Q464 810
485 810Q523 810 535 826Q551 807 551 785Z" />
<glyph unicode="&#xd6;" glyph-name="Odieresis" horiz-adv-x="591" d="M472 680T518 622T565 447Q565 338 529 231T414 52T220 -20Q119 -20 73 38T26 214Q26 324 63 431T178 609T371 680Q472 680 518 622ZM278 610T240 553T180 401Q168 351 160 290T151 185Q151
51 246 51Q316 51 353 110T411 260Q423 310 431 371T440 476Q440 610 345 610Q278 610 240 553ZM316 853T336 837T357 791Q357 760 335 744T280 727Q247 727 227 743T207 789Q207 820 228 836T283 853Q316 853 336 837ZM525 853T545 837T566 791Q566 760 544 744T489
727Q456 727 436 743T416 789Q416 820 437 836T492 853Q525 853 545 837Z" />
<glyph unicode="&#xd7;" glyph-name="multiply" horiz-adv-x="554" d="M423 104Q432 92 432 76Q432 50 413 32T365 13L259 161L131 35Q107 11 77 11Q61 11 49 19T29 41L211 228L126 347Q114 364 114 385Q114 408 130 425T174 448L284 297L408 422Q433 447 464
447Q491 447 505 412L330 233L423 104Z" />
<glyph unicode="&#xd8;" glyph-name="Oslash" horiz-adv-x="608" d="M635 645T616 623L565 566Q582 519 582 447Q582 338 546 231T431 52T237 -20Q136 -20 89 39L57 5Q32 -22 13 -54Q-6 -54 -17 -42T-29 -12Q-29 12 -11 33L56 107Q43 152 43 214Q43 324 80 431T195
609T388 680Q479 680 526 631L550 658Q574 684 594 713Q608 713 621 700T635 666Q635 645 616 623ZM177 316T170 235L448 545Q429 610 361 610Q294 610 257 553T197 401Q177 316 170 235ZM333 51T374 118T430 266T456 446L173 133Q188 51 262 51Q333 51 374 118Z"
/>
<glyph unicode="&#xd9;" glyph-name="Ugrave" horiz-adv-x="570" d="M495 270Q467 122 405 51T225 -20Q136 -20 89 20T42 138Q42 182 56 252L135 660H253L174 241Q161 171 161 143Q161 102 184 79T249 56Q316 56 347 110T395 261L465 660H570L495 270ZM468 713L353
719Q294 722 257 738T220 800Q220 830 242 845L476 756L468 713Z" />
<glyph unicode="&#xda;" glyph-name="Uacute" horiz-adv-x="570" d="M495 270Q467 122 405 51T225 -20Q136 -20 89 20T42 138Q42 182 56 252L135 660H253L174 241Q161 171 161 143Q161 102 184 79T249 56Q316 56 347 110T395 261L465 660H570L495 270ZM309 756L543
845Q565 830 565 800Q565 755 528 739T432 719L317 713L309 756Z" />
<glyph unicode="&#xdb;" glyph-name="Ucircumflex" horiz-adv-x="570" d="M495 270Q467 122 405 51T225 -20Q136 -20 89 20T42 138Q42 182 56 252L135 660H253L174 241Q161 171 161 143Q161 102 184 79T249 56Q316 56 347 110T395 261L465 660H570L495 270ZM531
722L491 674L386 746L256 674L229 723L392 839H399L531 722Z" />
<glyph unicode="&#xdc;" glyph-name="Udieresis" horiz-adv-x="570" d="M495 270Q467 122 405 51T225 -20Q136 -20 89 20T42 138Q42 182 56 252L135 660H253L174 241Q161 171 161 143Q161 102 184 79T249 56Q316 56 347 110T395 261L465 660H570L495 270ZM324
853T344 837T365 791Q365 760 343 744T288 727Q255 727 235 743T215 789Q215 820 236 836T291 853Q324 853 344 837ZM533 853T553 837T574 791Q574 760 552 744T497 727Q464 727 444 743T424 789Q424 820 445 836T500 853Q533 853 553 837Z" />
<glyph unicode="&#xdd;" glyph-name="Yacute" horiz-adv-x="375" d="M271 544T321 605T426 666Q450 666 466 655T487 623Q421 581 358 500T243 308L185 0H64L128 321Q96 452 62 524T-6 612Q1 638 22 652T73 666Q106 666 127 648T163 587T195 462L208 399Q271 544
321 605ZM188 756L422 845Q444 830 444 800Q444 755 407 739T311 719L196 713L188 756Z" />
<glyph unicode="&#xde;" glyph-name="Thorn" horiz-adv-x="501" d="M243 536Q289 538 312 538Q417 538 466 501T515 376Q515 311 490 259T419 178T310 149Q274 149 247 160T213 198Q225 197 239 197Q313 197 352 239T391 357Q391 416 366 442T287 468Q259 468
229 461L139 0H22L149 660H268L243 536Z" />
<glyph unicode="&#xdf;" glyph-name="germandbls" horiz-adv-x="617" d="M140 720T328 720Q411 720 463 690T515 599Q515 554 498 528T449 472Q425 450 414 435T403 398Q403 365 425 344T494 292Q530 267 551 249T587 205T602 143Q602 94 572 57T493 -1T389 -22Q325
-22 276 4T226 81Q226 119 254 137T319 156Q347 156 362 144Q348 114 348 85Q348 29 407 29Q444 29 468 51T493 108Q493 145 469 169T395 227Q346 259 320 288T293 364Q293 394 306 416T345 467Q374 501 388 525T403 588Q403 628 385 652T326 676Q284 676 261 648T228
567L124 70Q103 -37 70 -98T-21 -160Q-43 -160 -61 -150T-87 -121Q-49 -106 -29 -60T3 50L110 563Q140 720 328 720Z" />
<glyph unicode="&#xe0;" glyph-name="agrave" horiz-adv-x="529" d="M425 104Q420 74 420 62Q420 30 450 27Q444 4 424 -8T377 -20Q349 -20 331 -5T309 37Q289 8 252 -6T173 -20Q96 -20 62 27T27 167Q27 257 57 340T149 476T304 530Q331 530 353 525T405 509L505
522L425 104ZM360 454T337 462T292 470Q240 470 211 425T165 309Q155 270 149 224T142 145Q142 97 159 69T213 40Q264 40 293 87T334 201L378 439Q360 454 337 462ZM314 622Q259 637 229 656T199 713Q199 731 207 747T231 769L443 633L426 592L314 622Z" />
<glyph unicode="&#xe1;" glyph-name="aacute" horiz-adv-x="529" d="M425 104Q420 74 420 62Q420 30 450 27Q444 4 424 -8T377 -20Q349 -20 331 -5T309 37Q289 8 252 -6T173 -20Q96 -20 62 27T27 167Q27 257 57 340T149 476T304 530Q331 530 353 525T405 509L505
522L425 104ZM360 454T337 462T292 470Q240 470 211 425T165 309Q155 270 149 224T142 145Q142 97 159 69T213 40Q264 40 293 87T334 201L378 439Q360 454 337 462ZM482 769Q499 763 507 747T515 713Q515 676 485 657T399 622L288 592L271 633L482 769Z" />
<glyph unicode="&#xe2;" glyph-name="acircumflex" horiz-adv-x="529" d="M425 104Q420 74 420 62Q420 30 450 27Q444 4 424 -8T377 -20Q349 -20 331 -5T309 37Q289 8 252 -6T173 -20Q96 -20 62 27T27 167Q27 257 57 340T149 476T304 530Q331 530 353 525T405
509L505 522L425 104ZM360 454T337 462T292 470Q240 470 211 425T165 309Q155 270 149 224T142 145Q142 97 159 69T213 40Q264 40 293 87T334 201L378 439Q360 454 337 462ZM532 628L492 580L387 652L257 580L230 629L393 745H400L532 628Z" />
<glyph unicode="&#xe3;" glyph-name="atilde" horiz-adv-x="529" d="M425 104Q420 74 420 62Q420 30 450 27Q444 4 424 -8T377 -20Q349 -20 331 -5T309 37Q289 8 252 -6T173 -20Q96 -20 62 27T27 167Q27 257 57 340T149 476T304 530Q331 530 353 525T405 509L505
522L425 104ZM360 454T337 462T292 470Q240 470 211 425T165 309Q155 270 149 224T142 145Q142 97 159 69T213 40Q264 40 293 87T334 201L378 439Q360 454 337 462ZM537 701T537 679Q537 650 516 635T460 619Q441 619 377 627Q315 635 294 635Q257 635 238 620Q221
645 221 666Q221 692 242 706T302 720Q326 720 388 712Q450 704 471 704Q509 704 521 720Q537 701 537 679Z" />
<glyph unicode="&#xe4;" glyph-name="adieresis" horiz-adv-x="529" d="M425 104Q420 74 420 62Q420 30 450 27Q444 4 424 -8T377 -20Q349 -20 331 -5T309 37Q289 8 252 -6T173 -20Q96 -20 62 27T27 167Q27 257 57 340T149 476T304 530Q331 530 353 525T405 509L505
522L425 104ZM360 454T337 462T292 470Q240 470 211 425T165 309Q155 270 149 224T142 145Q142 97 159 69T213 40Q264 40 293 87T334 201L378 439Q360 454 337 462ZM518 724T538 708T558 662Q558 631 537 615T482 598Q449 598 429 614T409 660Q409 691 430 707T485
724Q518 724 538 708ZM314 724T334 708T354 662Q354 631 333 615T278 598Q245 598 225 614T205 660Q205 691 226 707T281 724Q314 724 334 708Z" />
<glyph unicode="&#xe5;" glyph-name="aring" horiz-adv-x="529" d="M425 104Q420 74 420 62Q420 30 450 27Q444 4 424 -8T377 -20Q349 -20 331 -5T309 37Q289 8 252 -6T173 -20Q96 -20 62 27T27 167Q27 257 57 340T149 476T304 530Q331 530 353 525T405 509L505
522L425 104ZM360 454T337 462T292 470Q240 470 211 425T165 309Q155 270 149 224T142 145Q142 97 159 69T213 40Q264 40 293 87T334 201L378 439Q360 454 337 462ZM313 568T291 588T268 648Q268 699 304 729T395 760Q437 760 460 740T484 680Q484 629 447 599T355
568Q313 568 291 588ZM387 600T405 623T423 677Q423 699 413 712T384 725Q359 725 343 702T327 647Q327 600 362 600Q387 600 405 623Z" />
<glyph unicode="&#xe6;" glyph-name="ae" horiz-adv-x="735" d="M749 530T749 417Q749 360 716 320T625 258T497 237Q468 237 442 239Q439 206 439 179Q439 121 460 92T532 63Q575 63 609 83T662 142Q674 139 680 128T686 102Q686 72 662 44T596 -2T501 -20Q448
-20 407 0T346 58Q310 20 269 0T175 -20Q96 -20 61 26T26 164Q26 253 56 337T147 476T298 530Q377 530 458 484Q521 530 609 530Q749 530 749 417ZM536 473T499 416T449 288Q526 288 583 320T640 415Q640 473 589 473Q536 473 499 416ZM359 454T336 462T291 470Q239
470 210 425T164 309Q154 270 148 224T141 145Q141 97 158 69T212 40Q263 40 292 87T333 201L377 439Q359 454 336 462Z" />
<glyph unicode="&#xe7;" glyph-name="ccedilla" horiz-adv-x="439" d="M337 338T324 352Q330 367 334 386T338 420Q338 444 326 457T290 471Q245 471 211 423T160 306T142 182Q142 63 233 63Q276 63 308 89T355 159Q389 149 389 108Q389 60 344 24T227 -19L213
-66Q233 -64 253 -64Q297 -64 324 -82T351 -140Q351 -189 308 -221T201 -253Q162 -253 139 -241T115 -205Q115 -184 131 -172Q148 -200 194 -200Q224 -200 246 -189T268 -152Q268 -111 189 -111Q178 -111 152 -113L180 -19Q27 -9 27 178Q27 267 59 348T155 479T308
530Q372 530 410 503T449 425Q449 383 425 361T366 338Q337 338 324 352Z" />
<glyph unicode="&#xe8;" glyph-name="egrave" horiz-adv-x="438" d="M377 530T414 503T452 416Q452 359 418 319T327 258T199 237Q171 237 145 239Q142 206 142 179Q142 121 163 92T235 63Q278 63 312 83T365 142Q377 139 383 128T389 102Q389 72 365 44T298 -2T200
-20Q113 -20 70 28T27 178Q27 267 59 347T156 479T314 530Q377 530 414 503ZM239 473T202 416T152 288Q229 288 286 320T343 415Q343 444 330 458T291 473Q239 473 202 416ZM247 622Q192 637 162 656T132 713Q132 731 140 747T164 769L376 633L359 592L247 622Z"
/>
<glyph unicode="&#xe9;" glyph-name="eacute" horiz-adv-x="438" d="M377 530T414 503T452 416Q452 359 418 319T327 258T199 237Q171 237 145 239Q142 206 142 179Q142 121 163 92T235 63Q278 63 312 83T365 142Q377 139 383 128T389 102Q389 72 365 44T298 -2T200
-20Q113 -20 70 28T27 178Q27 267 59 347T156 479T314 530Q377 530 414 503ZM239 473T202 416T152 288Q229 288 286 320T343 415Q343 444 330 458T291 473Q239 473 202 416ZM415 769Q432 763 440 747T448 713Q448 676 418 657T332 622L221 592L204 633L415 769Z"
/>
<glyph unicode="&#xea;" glyph-name="ecircumflex" horiz-adv-x="438" d="M377 530T414 503T452 416Q452 359 418 319T327 258T199 237Q171 237 145 239Q142 206 142 179Q142 121 163 92T235 63Q278 63 312 83T365 142Q377 139 383 128T389 102Q389 72 365 44T298
-2T200 -20Q113 -20 70 28T27 178Q27 267 59 347T156 479T314 530Q377 530 414 503ZM239 473T202 416T152 288Q229 288 286 320T343 415Q343 444 330 458T291 473Q239 473 202 416ZM465 628L425 580L320 652L190 580L163 629L326 745H333L465 628Z" />
<glyph unicode="&#xeb;" glyph-name="edieresis" horiz-adv-x="438" d="M377 530T414 503T452 416Q452 359 418 319T327 258T199 237Q171 237 145 239Q142 206 142 179Q142 121 163 92T235 63Q278 63 312 83T365 142Q377 139 383 128T389 102Q389 72 365 44T298
-2T200 -20Q113 -20 70 28T27 178Q27 267 59 347T156 479T314 530Q377 530 414 503ZM239 473T202 416T152 288Q229 288 286 320T343 415Q343 444 330 458T291 473Q239 473 202 416ZM451 724T471 708T491 662Q491 631 470 615T415 598Q382 598 362 614T342 660Q342
691 363 707T418 724Q451 724 471 708ZM247 724T267 708T287 662Q287 631 266 615T211 598Q178 598 158 614T138 660Q138 691 159 707T214 724Q247 724 267 708Z" />
<glyph unicode="&#xec;" glyph-name="igrave" horiz-adv-x="261" d="M153 77T153 62Q153 30 183 27Q177 4 157 -8T109 -20Q78 -20 60 -2T42 47Q42 76 61 174L129 510L242 522L158 104Q153 77 153 62ZM403 622Q348 637 318 656T288 713Q288 731 296 747T320 769L532
633L515 592L403 622Z" />
<glyph unicode="&#xed;" glyph-name="iacute" horiz-adv-x="261" d="M153 77T153 62Q153 30 183 27Q177 4 157 -8T109 -20Q78 -20 60 -2T42 47Q42 76 61 174L129 510L242 522L158 104Q153 77 153 62ZM315 769Q332 763 340 747T348 713Q348 676 318 657T232 622L121
592L104 633L315 769Z" />
<glyph unicode="&#xee;" glyph-name="icircumflex" horiz-adv-x="261" d="M153 77T153 62Q153 30 183 27Q177 4 157 -8T109 -20Q78 -20 60 -2T42 47Q42 76 61 174L129 510L242 522L158 104Q153 77 153 62ZM621 628L581 580L476 652L346 580L319 629L482 745H489L621 628Z" />
<glyph unicode="&#xef;" glyph-name="idieresis" horiz-adv-x="261" d="M153 77T153 62Q153 30 183 27Q177 4 157 -8T109 -20Q78 -20 60 -2T42 47Q42 76 61 174L129 510L242 522L158 104Q153 77 153 62ZM351 724T371 708T391 662Q391 631 370 615T315 598Q282
598 262 614T242 660Q242 691 263 707T318 724Q351 724 371 708ZM403 724T423 708T443 662Q443 631 422 615T367 598Q334 598 314 614T294 660Q294 691 315 707T370 724Q403 724 423 708Z" />
<glyph unicode="&#xf0;" glyph-name="eth" horiz-adv-x="514" d="M546 688T546 669Q546 654 536 644T503 625L479 617Q499 558 499 462Q499 346 466 236T362 53T183 -20Q103 -20 65 25T27 168Q27 256 57 337T149 471T303 523Q339 523 375 512Q373 554 368 579L268
544Q255 557 255 573Q255 598 283 608L346 631Q331 648 303 648Q289 648 274 644T248 633Q242 643 242 656Q242 686 271 703T339 720Q373 720 403 706T451 668L535 698Q546 688 546 669ZM360 299T367 348T376 433Q358 447 335 455T291 463Q239 463 210 420T165
310Q155 271 149 225T142 144Q142 40 209 40Q247 40 273 71T316 148T350 262Q360 299 367 348Z" />
<glyph unicode="&#xf1;" glyph-name="ntilde" horiz-adv-x="540" d="M234 482T279 506T379 530Q442 530 471 498T501 402Q501 362 492 316T464 194Q454 155 447 120T439 65Q439 48 445 39T469 27Q463 4 443 -8T395 -20Q328 -20 328 55Q328 85 336 127T361 236Q376
295 383 329T390 385Q390 418 373 435T326 453Q273 453 240 402T192 278L138 0L25 -12L127 510L221 522L208 432Q234 482 279 506ZM515 701T515 679Q515 650 494 635T438 619Q419 619 355 627Q293 635 272 635Q235 635 216 620Q199 645 199 666Q199 692 220 706T280
720Q304 720 366 712Q428 704 449 704Q487 704 499 720Q515 701 515 679Z" />
<glyph unicode="&#xf2;" glyph-name="ograve" horiz-adv-x="509" d="M412 530T447 479T482 343Q482 247 451 165T355 31T194 -20Q97 -20 62 31T27 167Q27 263 58 345T153 479T314 530Q412 530 447 479ZM240 470T211 426T165 309Q155 270 149 224T142 144Q142 40
216 40Q268 40 297 84T344 201Q354 240 360 286T367 366Q367 470 292 470Q240 470 211 426ZM282 622Q227 637 197 656T167 713Q167 731 175 747T199 769L411 633L394 592L282 622Z" />
<glyph unicode="&#xf3;" glyph-name="oacute" horiz-adv-x="509" d="M412 530T447 479T482 343Q482 247 451 165T355 31T194 -20Q97 -20 62 31T27 167Q27 263 58 345T153 479T314 530Q412 530 447 479ZM240 470T211 426T165 309Q155 270 149 224T142 144Q142 40
216 40Q268 40 297 84T344 201Q354 240 360 286T367 366Q367 470 292 470Q240 470 211 426ZM450 769Q467 763 475 747T483 713Q483 676 453 657T367 622L256 592L239 633L450 769Z" />
<glyph unicode="&#xf4;" glyph-name="ocircumflex" horiz-adv-x="509" d="M412 530T447 479T482 343Q482 247 451 165T355 31T194 -20Q97 -20 62 31T27 167Q27 263 58 345T153 479T314 530Q412 530 447 479ZM240 470T211 426T165 309Q155 270 149 224T142 144Q142
40 216 40Q268 40 297 84T344 201Q354 240 360 286T367 366Q367 470 292 470Q240 470 211 426ZM500 628L460 580L355 652L225 580L198 629L361 745H368L500 628Z" />
<glyph unicode="&#xf5;" glyph-name="otilde" horiz-adv-x="509" d="M412 530T447 479T482 343Q482 247 451 165T355 31T194 -20Q97 -20 62 31T27 167Q27 263 58 345T153 479T314 530Q412 530 447 479ZM240 470T211 426T165 309Q155 270 149 224T142 144Q142 40
216 40Q268 40 297 84T344 201Q354 240 360 286T367 366Q367 470 292 470Q240 470 211 426ZM505 701T505 679Q505 650 484 635T428 619Q409 619 345 627Q283 635 262 635Q225 635 206 620Q189 645 189 666Q189 692 210 706T270 720Q294 720 356 712Q418 704 439
704Q477 704 489 720Q505 701 505 679Z" />
<glyph unicode="&#xf6;" glyph-name="odieresis" horiz-adv-x="509" d="M412 530T447 479T482 343Q482 247 451 165T355 31T194 -20Q97 -20 62 31T27 167Q27 263 58 345T153 479T314 530Q412 530 447 479ZM240 470T211 426T165 309Q155 270 149 224T142 144Q142
40 216 40Q268 40 297 84T344 201Q354 240 360 286T367 366Q367 470 292 470Q240 470 211 426ZM486 724T506 708T526 662Q526 631 505 615T450 598Q417 598 397 614T377 660Q377 691 398 707T453 724Q486 724 506 708ZM282 724T302 708T322 662Q322 631 301 615T246
598Q213 598 193 614T173 660Q173 691 194 707T249 724Q282 724 302 708Z" />
<glyph unicode="&#xf7;" glyph-name="divide" horiz-adv-x="554" d="M365 370T347 356T300 342Q271 342 254 355T236 393Q236 418 255 433T303 448Q331 448 348 434T365 395Q365 370 347 356ZM473 266T473 248Q473 226 455 212T403 198H65Q61 210 61 226Q61 251
79 267T124 283H468Q473 266 473 248ZM300 62T282 48T234 33Q206 33 188 47T170 85Q170 110 189 124T237 139Q265 139 282 125T300 87Q300 62 282 48Z" />
<glyph unicode="&#xf8;" glyph-name="oslash" horiz-adv-x="509" d="M530 518T511 499L465 448Q482 407 482 343Q482 247 451 165T355 31T194 -20Q115 -20 75 17L64 5Q39 -22 20 -54Q1 -54 -10 -42T-21 -11Q-21 15 -3 33L38 79Q27 112 27 167Q27 263 58 345T153
479T314 530Q379 530 418 504L445 534Q469 560 489 589Q503 589 516 576T530 542Q530 518 511 499ZM154 264T145 199L355 433Q337 470 292 470Q240 470 211 426T165 310Q154 264 145 199ZM265 40T297 89T346 207T366 338L146 96Q162 40 216 40Q265 40 297 89Z"
/>
<glyph unicode="&#xf9;" glyph-name="ugrave" horiz-adv-x="528" d="M424 104Q419 74 419 62Q419 30 449 27Q443 4 423 -8T376 -20Q348 -20 330 -5T308 37Q288 8 251 -6T172 -20Q102 -20 70 18T38 123Q38 157 45 201T68 310L114 510L223 522L175 309Q165 265 156
213T147 129Q147 91 162 66T213 40Q262 40 291 87T333 201L393 510L505 522L424 104ZM276 622Q221 637 191 656T161 713Q161 731 169 747T193 769L405 633L388 592L276 622Z" />
<glyph unicode="&#xfa;" glyph-name="uacute" horiz-adv-x="528" d="M424 104Q419 74 419 62Q419 30 449 27Q443 4 423 -8T376 -20Q348 -20 330 -5T308 37Q288 8 251 -6T172 -20Q102 -20 70 18T38 123Q38 157 45 201T68 310L114 510L223 522L175 309Q165 265 156
213T147 129Q147 91 162 66T213 40Q262 40 291 87T333 201L393 510L505 522L424 104ZM444 769Q461 763 469 747T477 713Q477 676 447 657T361 622L250 592L233 633L444 769Z" />
<glyph unicode="&#xfb;" glyph-name="ucircumflex" horiz-adv-x="528" d="M424 104Q419 74 419 62Q419 30 449 27Q443 4 423 -8T376 -20Q348 -20 330 -5T308 37Q288 8 251 -6T172 -20Q102 -20 70 18T38 123Q38 157 45 201T68 310L114 510L223 522L175 309Q165
265 156 213T147 129Q147 91 162 66T213 40Q262 40 291 87T333 201L393 510L505 522L424 104ZM494 628L454 580L349 652L219 580L192 629L355 745H362L494 628Z" />
<glyph unicode="&#xfc;" glyph-name="udieresis" horiz-adv-x="528" d="M424 104Q419 74 419 62Q419 30 449 27Q443 4 423 -8T376 -20Q348 -20 330 -5T308 37Q288 8 251 -6T172 -20Q102 -20 70 18T38 123Q38 157 45 201T68 310L114 510L223 522L175 309Q165 265
156 213T147 129Q147 91 162 66T213 40Q262 40 291 87T333 201L393 510L505 522L424 104ZM480 724T500 708T520 662Q520 631 499 615T444 598Q411 598 391 614T371 660Q371 691 392 707T447 724Q480 724 500 708ZM276 724T296 708T316 662Q316 631 295 615T240
598Q207 598 187 614T167 660Q167 691 188 707T243 724Q276 724 296 708Z" />
<glyph unicode="&#xfd;" glyph-name="yacute" horiz-adv-x="442" d="M35 -65T130 19H85L83 90Q80 219 77 286T67 410Q62 452 53 472T26 503Q47 530 94 530Q143 530 161 502T183 410Q185 362 185 280V187L184 92Q251 181 291 271T332 445Q332 475 325 503Q338 515
358 522T401 530Q431 530 443 514T456 465Q456 373 392 258T212 35Q178 4 164 -20T150 -82Q150 -103 158 -127T178 -170Q165 -184 144 -192T100 -200Q68 -200 52 -181T35 -127Q35 -65 130 19ZM388 769Q405 763 413 747T421 713Q421 676 391 657T305 622L194 592L177
633L388 769Z" />
<glyph unicode="&#xfe;" glyph-name="thorn" horiz-adv-x="530" d="M246 557T235 514T214 444Q243 483 285 506T376 530Q445 530 474 483T504 348Q504 255 474 171T381 34T227 -20Q184 -20 138 -3L103 -180L-9 -192L163 700L276 712L254 599Q246 557 235 514ZM171
56T194 48T238 40Q291 40 320 85T366 201Q376 240 382 286T389 364Q389 408 374 430T323 453Q273 453 241 412T197 309L153 71Q171 56 194 48Z" />
<glyph unicode="&#xff;" glyph-name="ydieresis" horiz-adv-x="442" d="M35 -65T130 19H85L83 90Q80 219 77 286T67 410Q62 452 53 472T26 503Q47 530 94 530Q143 530 161 502T183 410Q185 362 185 280V187L184 92Q251 181 291 271T332 445Q332 475 325 503Q338
515 358 522T401 530Q431 530 443 514T456 465Q456 373 392 258T212 35Q178 4 164 -20T150 -82Q150 -103 158 -127T178 -170Q165 -184 144 -192T100 -200Q68 -200 52 -181T35 -127Q35 -65 130 19ZM424 724T444 708T464 662Q464 631 443 615T388 598Q355 598 335
614T315 660Q315 691 336 707T391 724Q424 724 444 708ZM220 724T240 708T260 662Q260 631 239 615T184 598Q151 598 131 614T111 660Q111 691 132 707T187 724Q220 724 240 708Z" />
<glyph unicode="&#x2013;" glyph-name="endash" horiz-adv-x="457" d="M443 268T443 255Q442 230 424 214T371 197H18Q14 209 14 221Q14 249 32 267T78 285H438Q443 268 443 255Z" />
<glyph unicode="&#x2014;" glyph-name="emdash" horiz-adv-x="884" d="M871 270T871 260Q871 225 850 211T789 197H18Q14 209 14 221Q14 285 95 285H866Q871 270 871 260Z" />
<glyph unicode="&#x2018;" glyph-name="quoteleft" horiz-adv-x="222" d="M235 670T218 630T200 548Q200 521 209 504Q200 499 183 495T151 491Q121 491 104 507T86 557Q86 594 107 629T162 687T228 710Q247 710 265 703Q235 670 218 630Z" />
<glyph unicode="&#x2019;" glyph-name="quoteright" horiz-adv-x="216" d="M126 702T143 706T175 710Q205 710 223 694T241 644Q241 607 220 572T165 514T99 491Q80 491 62 498Q92 532 109 572T126 653Q126 680 117 697Q126 702 143 706Z" />
<glyph unicode="&#x201a;" glyph-name="quotesinglbase" horiz-adv-x="210" d="M22 90T39 94T71 98Q101 98 119 82T137 32Q137 -5 116 -40T61 -98T-5 -121Q-24 -121 -42 -114Q-12 -80 5 -40T22 41Q22 68 13 85Q22 90 39 94Z" />
<glyph unicode="&#x201c;" glyph-name="quotedblleft" horiz-adv-x="432" d="M105 594T126 629T181 687T247 710Q266 710 284 703Q254 669 237 629T220 548Q220 521 229 504Q220 499 203 495T171 491Q141 491 123 507T105 557Q105 594 126 629ZM295 594T316 629T371
687T437 710Q456 710 474 703Q444 670 427 630T410 548Q410 521 419 504Q410 499 393 495T360 491Q330 491 313 507T295 557Q295 594 316 629Z" />
<glyph unicode="&#x201d;" glyph-name="quotedblright" horiz-adv-x="405" d="M126 702T143 706T175 710Q205 710 222 694T240 644Q240 607 219 572T164 514T99 491Q80 491 62 498Q92 532 109 572T126 653Q126 680 117 697Q126 702 143 706ZM316 702T333 706T365
710Q395 710 412 694T430 644Q430 607 409 572T354 514T288 491Q269 491 251 498Q281 531 298 571T315 653Q315 680 306 697Q316 702 333 706Z" />
<glyph unicode="&#x201e;" glyph-name="quotedblbase" horiz-adv-x="419" d="M137 -5T116 -40T61 -98T-5 -121Q-24 -121 -42 -114Q-12 -80 5 -40T22 41Q22 68 13 85Q22 90 39 94T72 98Q102 98 119 82T137 32Q137 -5 116 -40ZM326 -5T305 -40T250 -98T185 -121Q166
-121 148 -114Q178 -80 195 -40T212 41Q212 68 203 85Q212 90 229 94T261 98Q291 98 308 82T326 32Q326 -5 305 -40Z" />
<glyph unicode="&#x2022;" glyph-name="bullet" horiz-adv-x="237" d="M195 222T169 201T97 179Q52 179 26 200T0 256Q0 293 28 315T101 338Q144 338 169 317T195 259Q195 222 169 201Z" />
<glyph unicode="&#x2039;" glyph-name="guilsinglleft" horiz-adv-x="253" d="M159 509H257L137 317L186 126H90L3 317L159 509Z" />
<glyph unicode="&#x203a;" glyph-name="guilsinglright" horiz-adv-x="253" d="M249 318L93 126H-4L116 318L67 509H162L249 318Z" />
</font>
</defs>
</svg>
