<?xml version="1.0" standalone="no"?>
<!DOCTYPE svg PUBLIC "-//W3C//DTD SVG 1.1//EN" "http://www.w3.org/Graphics/SVG/1.1/DTD/svg11.dtd">
<svg xmlns="http://www.w3.org/2000/svg">
<defs >
<font id="SquadaOne" horiz-adv-x="370" ><font-face
    font-family="Squada One"
    units-per-em="1000"
    panose-1="2 0 0 0 0 0 0 0 0 0"
    ascent="861"
    descent="-196"
    alphabetic="0" />
<glyph unicode=" " glyph-name="space" horiz-adv-x="202" />
<glyph unicode="!" glyph-name="exclam" horiz-adv-x="258" d="M197 647L180 190H80L63 647H197ZM59 92T80 113T131 134T182 113T203 62T182 11T131 -10T80 11T59 62Z" />
<glyph unicode="&quot;" glyph-name="quotedbl" horiz-adv-x="376" d="M167 647L154 440H64L52 647H167ZM324 647L311 440H221L209 647H324Z" />
<glyph unicode="#" glyph-name="numbersign" horiz-adv-x="493" d="M446 337H385V241H446V139H385V0H283V139H208V0H106V139H44V241H106V337H44V439H106V544H208V439H283V544H385V439H446V337ZM283 241V337H208V241H283Z" />
<glyph unicode="$" glyph-name="dollar" horiz-adv-x="466" d="M292 384Q416 382 416 252V122Q416 -10 292 -10H251V-97H214V-10H174Q50 -10 50 122V189H168V105Q168 97 173 91T187 85H214V272H174Q50 272 50 404V525Q50 657 174 657H214V709H251V657H285Q409
657 409 525V477H291V541Q291 549 286 555T272 561H251V384H292ZM188 384H214V561H188Q180 561 175 555T169 541V404Q169 396 174 390T188 384ZM298 105V252Q298 260 293 266T279 272H251V85H279Q287 85 292 91T298 105Z" />
<glyph unicode="%" glyph-name="percent" horiz-adv-x="763" d="M529 647H629L236 0H136L529 647ZM183 318H159Q35 318 35 450V525Q35 657 159 657H183Q307 657 307 525V450Q307 318 183 318ZM137 400Q137 392 142 386T156 380H187Q195 380 200 386T206 400V576Q206
584 201 590T187 596H156Q148 596 143 590T137 576V400ZM604 329Q728 329 728 197V122Q728 -10 604 -10H580Q456 -10 456 122V197Q456 329 580 329H604ZM627 72V248Q627 256 622 262T608 268H577Q569 268 564 262T558 248V72Q558 64 563 58T577 52H608Q616 52 621
58T627 72Z" />
<glyph unicode="&amp;" glyph-name="ampersand" horiz-adv-x="456" d="M93 312Q52 342 52 420V486Q52 618 176 618H282Q406 618 406 486V458H281V489Q281 497 276 503T262 509H195Q187 509 182 503T176 489V383Q176 375 181 369T195 363H442V255H403V122Q403 -10
279 -10H170Q46 -10 46 122V199Q46 279 93 312ZM268 96Q276 96 281 102T287 116V255H189Q181 255 176 249T170 235V116Q170 108 175 102T189 96H268Z" />
<glyph unicode="&apos;" glyph-name="quotesingle" horiz-adv-x="221" d="M167 647L154 440H64L52 647H167Z" />
<glyph unicode="(" glyph-name="parenleft" horiz-adv-x="254" d="M227 691Q142 524 142 308T232 -81H115Q30 107 30 308T110 691H227Z" />
<glyph unicode=")" glyph-name="parenright" horiz-adv-x="268" d="M35 691H152Q232 510 232 309T147 -81H30Q120 92 120 308T35 691Z" />
<glyph unicode="*" glyph-name="asterisk" horiz-adv-x="388" d="M364 530L264 480L364 431L326 364L232 426L239 315H163L170 425L77 364L38 431L138 480L38 530L77 597L170 535L163 647H239L232 534L326 597L364 530Z" />
<glyph unicode="+" glyph-name="plus" horiz-adv-x="495" d="M441 363V263H305V100H192V263H56V363H192V525H305V363H441Z" />
<glyph unicode="," glyph-name="comma" horiz-adv-x="216" d="M204 59L134 -145H42L85 59H204Z" />
<glyph unicode="-" glyph-name="hyphen" horiz-adv-x="451" d="M397 346V239H56V346H397Z" />
<glyph unicode="." glyph-name="period" horiz-adv-x="254" d="M59 92T80 113T131 134T182 113T203 62T182 11T131 -10T80 11T59 62Z" />
<glyph unicode="/" glyph-name="slash" horiz-adv-x="298" d="M241 674H348L65 -72H-42L241 674Z" />
<glyph unicode="0" glyph-name="zero" horiz-adv-x="453" d="M417 525V122Q417 -10 293 -10H174Q50 -10 50 122V525Q50 657 174 657H293Q417 657 417 525ZM281 106V542Q281 550 276 556T262 562H205Q197 562 192 556T186 542V106Q186 98 191 92T205 86H262Q270
86 275 92T281 106Z" />
<glyph unicode="1" glyph-name="one" horiz-adv-x="259" d="M198 646V-1H62V646H198Z" />
<glyph unicode="2" glyph-name="two" horiz-adv-x="464" d="M187 222V115H403V0H59V233Q59 365 183 365H263Q271 365 276 371T282 385V528Q282 536 277 542T263 548H204Q196 548 191 542T185 528V477H52V525Q52 657 176 657H287Q411 657 411 525V374Q411 242 287
242H206Q198 242 193 236T187 222Z" />
<glyph unicode="3" glyph-name="three" horiz-adv-x="455" d="M365 331Q412 298 412 218V122Q412 -10 288 -10H170Q46 -10 46 122V175H171V116Q171 108 176 102T190 96H269Q277 96 282 102T288 116V254Q288 262 283 268T269 274H166V382H263Q271 382 276 388T282
402V528Q282 536 277 542T263 548H196Q188 548 183 542T177 528V464H52V525Q52 657 176 657H282Q406 657 406 525V439Q406 361 365 331Z" />
<glyph unicode="4" glyph-name="four" horiz-adv-x="467" d="M292 647H417V0H292V255H175Q51 255 51 387V647H175V393Q175 385 180 379T194 373H273Q281 373 286 379T292 393V647Z" />
<glyph unicode="5" glyph-name="five" horiz-adv-x="463" d="M173 540V425Q173 417 178 411T192 405H287Q411 405 411 273V122Q411 -10 287 -10H176Q52 -10 52 122V170H185V119Q185 111 190 105T204 99H263Q271 99 276 105T282 119V262Q282 270 277 276T263 282H169Q45
282 45 414V647H385V540H173Z" />
<glyph unicode="6" glyph-name="six" horiz-adv-x="466" d="M298 392Q422 392 422 260V122Q422 -10 298 -10H180Q56 -10 56 122V525Q56 657 180 657H288Q412 657 412 525V477H284V528Q284 536 279 542T265 548H200Q192 548 187 542T181 528V379Q208 392 248 392H298ZM298
133V249Q298 257 293 263T279 269H200Q192 269 187 263T181 249V133Q181 125 186 119T200 113H279Q287 113 292 119T298 133Z" />
<glyph unicode="7" glyph-name="seven" horiz-adv-x="421" d="M49 647H379L245 0H118L223 540H49V647Z" />
<glyph unicode="8" glyph-name="eight" horiz-adv-x="469" d="M372 331Q419 298 419 218V122Q419 -10 295 -10H177Q53 -10 53 122V218Q53 298 100 331Q59 361 59 439V525Q59 657 183 657H289Q413 657 413 525V439Q413 361 372 331ZM184 525V403Q184 395 189 389T203
383H270Q278 383 283 389T289 403V525Q289 533 284 539T270 545H203Q195 545 190 539T184 525ZM295 119V252Q295 260 290 266T276 272H197Q189 272 184 266T178 252V119Q178 111 183 105T197 99H276Q284 99 289 105T295 119Z" />
<glyph unicode="9" glyph-name="nine" horiz-adv-x="455" d="M217 255H167Q43 255 43 387V525Q43 657 167 657H285Q409 657 409 525V122Q409 -10 285 -10H177Q53 -10 53 122V170H181V119Q181 111 186 105T200 99H265Q273 99 278 105T284 119V268Q257 255 217 255ZM167
514V398Q167 390 172 384T186 378H265Q273 378 278 384T284 398V514Q284 522 279 528T265 534H186Q178 534 173 528T167 514Z" />
<glyph unicode=":" glyph-name="colon" horiz-adv-x="254" d="M59 92T80 113T131 134T182 113T203 62T182 11T131 -10T80 11T59 62ZM59 437T80 458T131 479T182 458T203 407T182 356T131 335T80 356T59 407Z" />
<glyph unicode=";" glyph-name="semicolon" horiz-adv-x="254" d="M59 437T80 458T131 479T182 458T203 407T182 356T131 335T80 356T59 407ZM198 59L128 -145H36L79 59H198Z" />
<glyph unicode="&lt;" glyph-name="less" horiz-adv-x="417" d="M389 540V422L159 305L389 188V72L50 255V357L389 540Z" />
<glyph unicode="=" glyph-name="equal" horiz-adv-x="477" d="M423 442V335H56V442H423ZM423 250V143H56V250H423Z" />
<glyph unicode="&gt;" glyph-name="greater" horiz-adv-x="417" d="M44 422V540L383 357V255L44 72V188L274 305L44 422Z" />
<glyph unicode="?" glyph-name="question" horiz-adv-x="423" d="M257 265Q249 265 244 259T238 245V190H121V247Q121 379 245 379H250Q258 379 263 385T269 399V518Q269 526 264 532T250 538H174Q166 538 161 532T155 518V467H31V515Q31 647 155 647H266Q390
647 390 515V397Q390 265 266 265H257ZM110 92T131 113T182 134T233 113T254 62T233 11T182 -10T131 11T110 62Z" />
<glyph unicode="@" glyph-name="at" horiz-adv-x="716" d="M549 509Q658 509 658 392V98Q658 -19 549 -19H544Q473 -19 449 38Q427 -19 353 -19H320Q211 -19 211 98V273Q211 390 320 390H342Q404 390 426 368Q438 356 447 337V380H510V67Q510 53 520 43T544 32H547Q561
32 571 42T581 67V412Q581 426 571 436T547 447H179Q165 447 155 437T145 412V-28Q145 -42 155 -52T179 -63H604V-125H174Q65 -125 65 -8V392Q65 509 174 509H549ZM426 82V289Q426 303 416 313T392 324H329Q315 324 305 314T295 289V82Q295 68 305 58T329 47H392Q406
47 416 57T426 82Z" />
<glyph unicode="A" glyph-name="A" horiz-adv-x="485" d="M307 657Q431 657 431 525V0H291V217H190V0H50V525Q50 657 174 657H307ZM190 325H291V542Q291 550 286 556T272 562H209Q201 562 196 556T190 542V325Z" />
<glyph unicode="B" glyph-name="B" horiz-adv-x="477" d="M366 354Q431 331 431 248V132Q431 0 307 0H50V647H299Q423 647 423 515V456Q423 376 366 354ZM264 552H190V379H264Q272 379 277 385T283 399V532Q283 540 278 546T264 552ZM291 116V261Q291 269 286
275T272 281H190V96H272Q280 96 285 102T291 116Z" />
<glyph unicode="C" glyph-name="C" horiz-adv-x="458" d="M291 106V206H424V122Q424 -10 300 -10H174Q50 -10 50 122V525Q50 657 174 657H300Q424 657 424 525V464H291V542Q291 550 286 556T272 562H209Q201 562 196 556T190 542V106Q190 98 195 92T209 86H272Q280
86 285 92T291 106Z" />
<glyph unicode="D" glyph-name="D" horiz-adv-x="485" d="M307 647Q431 647 431 515V132Q431 0 307 0H50V647H307ZM291 116V532Q291 540 286 546T272 552H190V96H272Q280 96 285 102T291 116Z" />
<glyph unicode="E" glyph-name="E" horiz-adv-x="376" d="M190 116H345V0H50V647H345V533H190V381H335V271H190V116Z" />
<glyph unicode="F" glyph-name="F" horiz-adv-x="374" d="M190 254V0H50V647H342V526H190V371H332V254H190Z" />
<glyph unicode="G" glyph-name="G" horiz-adv-x="451" d="M239 257V360H424V122Q424 -10 300 -10H174Q50 -10 50 122V525Q50 657 174 657H300Q424 657 424 525V464H291V542Q291 550 286 556T272 562H209Q201 562 196 556T190 542V106Q190 98 195 92T209 86H272Q280
86 285 92T291 106V257H239Z" />
<glyph unicode="H" glyph-name="H" horiz-adv-x="491" d="M190 254V0H50V647H190V376H301V647H441V0H301V254H190Z" />
<glyph unicode="I" glyph-name="I" horiz-adv-x="244" d="M190 647V0H50V647H190Z" />
<glyph unicode="J" glyph-name="J" horiz-adv-x="408" d="M235 647H375V122Q375 -10 251 -10H135Q11 -10 11 122V203H144V106Q144 98 149 92T163 86H216Q224 86 229 92T235 106V647Z" />
<glyph unicode="K" glyph-name="K" horiz-adv-x="472" d="M453 647L343 350L474 0H331L235 256H190V0H50V647H190V376H224L325 647H453Z" />
<glyph unicode="L" glyph-name="L" horiz-adv-x="359" d="M190 118H343V0H50V647H190V118Z" />
<glyph unicode="M" glyph-name="M" horiz-adv-x="699" d="M189 0H49V525Q49 657 173 657H247Q320 657 351 609Q380 657 455 657H529Q653 657 653 525V0H513V537Q513 545 508 551T494 557H440Q432 557 427 551T421 537V0H281V537Q281 545 276 551T262 557H208Q200
557 195 551T189 537V0Z" />
<glyph unicode="N" glyph-name="N" horiz-adv-x="465" d="M421 0H281V537Q281 545 276 551T262 557H208Q200 557 195 551T189 537V0H49V525Q49 657 173 657H297Q421 657 421 525V0Z" />
<glyph unicode="O" glyph-name="O" horiz-adv-x="484" d="M431 525V122Q431 -10 307 -10H174Q50 -10 50 122V525Q50 657 174 657H307Q431 657 431 525ZM291 106V542Q291 550 286 556T272 562H209Q201 562 196 556T190 542V106Q190 98 195 92T209 86H272Q280 86
285 92T291 106Z" />
<glyph unicode="P" glyph-name="P" horiz-adv-x="446" d="M302 647Q426 647 426 515V386Q426 254 302 254H189V0H49V647H302ZM286 370V531Q286 539 281 545T267 551H189V350H267Q275 350 280 356T286 370Z" />
<glyph unicode="Q" glyph-name="Q" horiz-adv-x="475" d="M307 657Q431 657 431 525V122Q431 -10 307 -10H305V-60Q305 -75 320 -75H352V-173H293Q244 -173 217 -144T189 -77V-10H174Q50 -10 50 122V525Q50 657 174 657H307ZM190 542V106Q190 98 195 92T209 86H272Q280
86 285 92T291 106V542Q291 550 286 556T272 562H209Q201 562 196 556T190 542Z" />
<glyph unicode="R" glyph-name="R" horiz-adv-x="463" d="M190 265V0H50V647H299Q423 647 423 515V440Q423 360 366 338Q416 320 416 256V0H276V245Q276 265 257 265H190ZM190 552V363H264Q272 363 277 369T283 383V532Q283 540 278 546T264 552H190Z" />
<glyph unicode="S" glyph-name="S" horiz-adv-x="458" d="M409 477H276V528Q276 536 271 542T257 548H202Q194 548 189 542T183 528V413Q183 405 188 399T202 393H292Q416 391 416 261V122Q416 -10 292 -10H174Q50 -10 50 122V189H183V117Q183 109 188 103T202
97H264Q272 97 277 103T283 117V244Q283 252 278 258T264 264H174Q50 264 50 396V525Q50 657 174 657H285Q409 657 409 525V477Z" />
<glyph unicode="T" glyph-name="T" horiz-adv-x="377" d="M13 528V647H363V528H258V0H118V528H13Z" />
<glyph unicode="U" glyph-name="U" horiz-adv-x="467" d="M281 647H421V122Q421 -10 297 -10H173Q49 -10 49 122V647H189V110Q189 102 194 96T208 90H262Q270 90 275 96T281 110V647Z" />
<glyph unicode="V" glyph-name="V" horiz-adv-x="465" d="M311 647H446L312 0H151L17 647H153L232 175L311 647Z" />
<glyph unicode="W" glyph-name="W" horiz-adv-x="707" d="M289 647H413L488 160L544 647H680L575 0H416L351 397L286 0H127L22 647H158L214 160L289 647Z" />
<glyph unicode="X" glyph-name="X" horiz-adv-x="451" d="M425 647L322 324L438 0H292L224 226L156 0H9L125 324L24 647H160L224 438L288 647H425Z" />
<glyph unicode="Y" glyph-name="Y" horiz-adv-x="435" d="M425 647L286 236V0H146V236L7 647H139L216 377L293 647H425Z" />
<glyph unicode="Z" glyph-name="Z" horiz-adv-x="397" d="M371 556L178 104H371V0H32V86L226 542H38V647H371V556Z" />
<glyph unicode="[" glyph-name="bracketleft" horiz-adv-x="282" d="M234 593H143V17H234V-81H47V691H234V593Z" />
<glyph unicode="\" glyph-name="backslash" horiz-adv-x="305" d="M-42 674H65L348 -72H241L-42 674Z" />
<glyph unicode="]" glyph-name="bracketright" horiz-adv-x="294" d="M138 593H47V691H234V-81H47V17H138V593Z" />
<glyph unicode="^" glyph-name="asciicircum" horiz-adv-x="385" d="M358 417H275L194 561L111 417H30L158 647H230L358 417Z" />
<glyph unicode="_" glyph-name="underscore" horiz-adv-x="461" d="M32 -186V-109H432V-186H32Z" />
<glyph unicode="`" glyph-name="grave" horiz-adv-x="309" d="M159 483L28 585H175L258 483H159Z" />
<glyph unicode="a" glyph-name="a" horiz-adv-x="452" d="M293 488H406V0H293V36Q262 -10 190 -10H169Q45 -10 45 122V366Q45 498 169 498H190Q262 498 293 452V488ZM272 106V382Q272 390 267 396T253 402H198Q190 402 185 396T179 382V106Q179 98 184 92T198
86H253Q261 86 266 92T272 106Z" />
<glyph unicode="b" glyph-name="b" horiz-adv-x="452" d="M261 498H282Q406 498 406 366V122Q406 -10 282 -10H261Q189 -10 158 36V0H45V647H179V474Q211 498 261 498ZM179 382V106Q179 98 184 92T198 86H253Q261 86 266 92T272 106V382Q272 390 267 396T253 402H198Q190
402 185 396T179 382Z" />
<glyph unicode="c" glyph-name="c" horiz-adv-x="446" d="M406 296H272V382Q272 390 267 396T253 402H198Q190 402 185 396T179 382V106Q179 98 184 92T198 86H253Q261 86 266 92T272 106V192H406V122Q406 -10 282 -10H169Q45 -10 45 122V366Q45 498 169 498H282Q406
498 406 366V296Z" />
<glyph unicode="d" glyph-name="d" horiz-adv-x="452" d="M190 498Q241 498 272 474V647H406V0H293V36Q262 -10 190 -10H169Q45 -10 45 122V366Q45 498 169 498H190ZM272 106V382Q272 390 267 396T253 402H198Q190 402 185 396T179 382V106Q179 98 184 92T198
86H253Q261 86 266 92T272 106Z" />
<glyph unicode="e" glyph-name="e" horiz-adv-x="435" d="M282 498Q406 498 406 366V208H179V106Q179 98 184 92T198 86H253Q261 86 266 92T272 106V160H406V122Q406 -10 282 -10H169Q45 -10 45 122V366Q45 498 169 498H282ZM179 296H272V386Q272 394 267 400T253
406H198Q190 406 185 400T179 386V296Z" />
<glyph unicode="f" glyph-name="f" horiz-adv-x="277" d="M223 565Q201 565 190 555T179 517V488H263V387H179V0H45V525Q45 657 169 657H263V565H223Z" />
<glyph unicode="g" glyph-name="g" horiz-adv-x="452" d="M406 488V-37Q406 -169 282 -169H182Q58 -169 58 -37V-21H179V-53Q179 -61 184 -67T198 -73H253Q261 -73 266 -67T272 -53V47Q241 23 190 23H169Q45 23 45 155V366Q45 498 169 498H190Q262 498 293 452V488H406ZM272
139V382Q272 390 267 396T253 402H198Q190 402 185 396T179 382V139Q179 131 184 125T198 119H253Q261 119 266 125T272 139Z" />
<glyph unicode="h" glyph-name="h" horiz-adv-x="452" d="M179 0H45V647H179V474Q209 498 261 498H282Q406 498 406 366V0H272V382Q272 390 267 396T253 402H198Q181 402 179 384V0Z" />
<glyph unicode="i" glyph-name="i" horiz-adv-x="246" d="M160 528T130 528T78 549T56 601T78 653T130 675T181 654T203 601T182 549ZM63 0V488H197V0H63Z" />
<glyph unicode="j" glyph-name="j" horiz-adv-x="265" d="M74 -23V488H208V-37Q208 -169 84 -169H3V-71H30Q52 -71 63 -61T74 -23ZM171 528T141 528T89 549T67 601T89 653T141 675T192 654T214 601T193 549Z" />
<glyph unicode="k" glyph-name="k" horiz-adv-x="456" d="M429 488L329 259L445 0H311L219 203H179V0H45V647H179V313H224L297 488H429Z" />
<glyph unicode="l" glyph-name="l" horiz-adv-x="224" d="M179 0H45V647H179V0Z" />
<glyph unicode="m" glyph-name="m" horiz-adv-x="661" d="M485 498Q609 498 609 366V0H475V382Q475 390 470 396T456 402H413Q405 402 400 396T394 382V0H260V382Q260 390 255 396T241 402H198Q190 402 185 396T179 382V0H45V488H167V463Q198 498 261 498H270Q344
498 373 452Q404 498 476 498H485Z" />
<glyph unicode="n" glyph-name="n" horiz-adv-x="452" d="M179 0H45V488H167V463Q198 498 261 498H282Q406 498 406 366V0H272V382Q272 390 267 396T253 402H198Q190 402 185 396T179 382V0Z" />
<glyph unicode="o" glyph-name="o" horiz-adv-x="452" d="M406 366V122Q406 -10 282 -10H169Q45 -10 45 122V366Q45 498 169 498H282Q406 498 406 366ZM272 94V395Q272 403 267 409T253 415H198Q190 415 185 409T179 395V94Q179 86 184 80T198 74H253Q261 74 266
80T272 94Z" />
<glyph unicode="p" glyph-name="p" horiz-adv-x="452" d="M282 -10H261Q210 -10 179 14V-159H45V488H158V452Q189 498 261 498H282Q406 498 406 366V122Q406 -10 282 -10ZM179 382V106Q179 98 184 92T198 86H253Q261 86 266 92T272 106V382Q272 390 267 396T253
402H198Q190 402 185 396T179 382Z" />
<glyph unicode="q" glyph-name="q" horiz-adv-x="452" d="M190 -10H169Q45 -10 45 122V366Q45 498 169 498H190Q262 498 293 452V488H406V-159H272V14Q241 -10 190 -10ZM272 106V382Q272 390 267 396T253 402H198Q190 402 185 396T179 382V106Q179 98 184 92T198
86H253Q261 86 266 92T272 106Z" />
<glyph unicode="r" glyph-name="r" horiz-adv-x="294" d="M253 498H279V368H213Q179 368 179 333V0H45V488H167V441Q196 498 253 498Z" />
<glyph unicode="s" glyph-name="s" horiz-adv-x="433" d="M275 306Q399 306 399 174V122Q399 -10 275 -10H164Q40 -10 40 122V153H164V109Q164 101 169 95T183 89H265Q273 89 278 95T284 109V169Q284 177 279 183T265 189H162Q38 189 38 321V366Q38 498 162 498H267Q391
498 391 366V348H267V379Q267 387 262 393T248 399H172Q164 399 159 393T153 379V326Q153 318 158 312T172 306H275Z" />
<glyph unicode="t" glyph-name="t" horiz-adv-x="288" d="M223 77H263V-10H169Q45 -10 45 122V594H179V488H263V391H179V125Q179 97 190 87T223 77Z" />
<glyph unicode="u" glyph-name="u" horiz-adv-x="452" d="M272 488H406V0H284V25Q253 -10 190 -10H169Q45 -10 45 122V488H179V106Q179 98 184 92T198 86H253Q261 86 266 92T272 106V488Z" />
<glyph unicode="v" glyph-name="v" horiz-adv-x="413" d="M270 488H400L293 0H116L9 488H139L205 109L270 488Z" />
<glyph unicode="w" glyph-name="w" horiz-adv-x="662" d="M267 488H395L468 109L525 488H655L548 0H386L331 301L276 0H114L7 488H137L194 109L267 488Z" />
<glyph unicode="x" glyph-name="x" horiz-adv-x="437" d="M217 160L143 0H4L140 260L13 488H159L217 342L275 488H421L294 260L430 0H291L217 160Z" />
<glyph unicode="y" glyph-name="y" horiz-adv-x="452" d="M272 488H406V-37Q406 -169 282 -169H182Q58 -169 58 -37V-21H188V-53Q188 -61 193 -67T207 -73H253Q261 -73 266 -67T272 -53V46Q242 22 190 22H169Q45 22 45 154V488H179V138Q179 130 184 124T198 118H253Q261
118 266 124T272 138V488Z" />
<glyph unicode="z" glyph-name="z" horiz-adv-x="386" d="M169 99H361V0H31V94L220 390H31V488H361V399L169 99Z" />
<glyph unicode="{" glyph-name="braceleft" horiz-adv-x="258" d="M201 596Q193 596 188 590T182 576V420Q182 336 141 307Q182 278 182 194V33Q182 25 187 19T201 13H242V-88H203Q79 -88 79 44V241Q79 249 74 255T60 261H43V353H60Q68 353 73 359T79 373V559Q79
691 203 691H242V596H201Z" />
<glyph unicode="|" glyph-name="bar" horiz-adv-x="265" d="M80 -73V674H183V-73H80Z" />
<glyph unicode="}" glyph-name="braceright" horiz-adv-x="263" d="M84 596H43V691H82Q206 691 206 559V373Q206 365 211 359T225 353H242V261H225Q217 261 212 255T206 241V44Q206 -88 82 -88H43V13H84Q92 13 97 19T103 33V194Q103 278 144 307Q103 336 103 420V576Q103
584 98 590T84 596Z" />
<glyph unicode="&#xa1;" glyph-name="exclamdown" horiz-adv-x="254" d="M180 300L197 -157H63L80 300H180ZM203 398T182 377T131 356T80 377T59 428T80 479T131 500T182 479T203 428Z" />
<glyph unicode="&#xa2;" glyph-name="cent" horiz-adv-x="456" d="M406 296H272V382Q272 390 267 396T253 402H198Q190 402 185 396T179 382V106Q179 98 184 92T198 86H253Q261 86 266 92T272 106V192H406V122Q406 -10 282 -10H248V-99H203V-10H169Q45 -10 45
122V366Q45 498 169 498H203V568H248V498H282Q406 498 406 366V296Z" />
<glyph unicode="&#xa3;" glyph-name="sterling" horiz-adv-x="494" d="M470 464H337V542Q337 550 332 556T318 562H255Q247 562 242 556T236 542V376H333V275H236V101H405V0H32V101H96V275H32V376H96V525Q96 657 220 657H346Q470 657 470 525V464Z" />
<glyph unicode="&#xa4;" glyph-name="currency" horiz-adv-x="679" d="M630 121L540 32L452 120Q402 92 344 92T236 120L148 32L58 121L147 209Q119 259 119 317T147 425L58 514L148 603L236 515Q286 543 344 543T452 515L540 603L630 514L541 425Q569 375 569
317T541 209L630 121ZM231 364T231 318T264 238T344 204T424 237T457 317T424 397T344 430T264 397Z" />
<glyph unicode="&#xa5;" glyph-name="yen" horiz-adv-x="437" d="M425 647L320 339H407V267H296L286 236V202H407V130H286V0H146V130H25V202H146V236L135 267H25V339H111L7 647H139L216 377L293 647H425Z" />
<glyph unicode="&#xa6;" glyph-name="brokenbar" horiz-adv-x="327" d="M100 301V715H223V301H100ZM100 -196V218H223V-196H100Z" />
<glyph unicode="&#xa7;" glyph-name="section" horiz-adv-x="442" d="M399 217Q399 144 361 111Q399 79 399 6V-36Q399 -168 275 -168H165Q41 -168 41 -36V-18H165V-57Q165 -65 170 -71T184 -77H265Q273 -77 278 -71T284 -57V10Q284 18 279 24T265 30H162Q38 30
38 162V170Q38 243 76 275Q38 308 38 381V423Q38 555 162 555H272Q396 555 396 423V405H272V444Q272 452 267 458T253 464H172Q164 464 159 458T153 444V377Q153 369 158 363T172 357H275Q399 357 399 225V217ZM172 133H265Q273 133 278 139T284 153V233Q284 241
279 247T265 253H172Q164 253 159 247T153 233V153Q153 145 158 139T172 133Z" />
<glyph unicode="&#xa8;" glyph-name="dieresis" horiz-adv-x="373" d="M130 594T146 577T163 537T147 497T107 480T66 496T49 536T66 577T106 594ZM292 594T308 577T325 537T309 497T269 480T228 496T211 536T228 577T268 594Z" />
<glyph unicode="&#xa9;" glyph-name="copyright" horiz-adv-x="611" d="M433 355H340V415Q340 428 327 428H290Q277 428 277 415V224Q277 212 290 212H327Q332 212 336 215T340 224V284H433V236Q433 145 346 145H268Q184 145 184 236V404Q184 492 268 492H346Q433
492 433 404V355ZM497 0H117Q93 0 76 17T59 58V581Q59 605 76 622T117 639H497Q521 639 538 622T555 581V58Q555 34 538 17T497 0ZM130 568V71H484V568H130Z" />
<glyph unicode="&#xaa;" glyph-name="ordfeminine" horiz-adv-x="287" d="M187 648H243V404H187V422Q171 399 120 399H110Q48 399 48 465V587Q48 653 110 653H120Q170 653 187 630V648ZM176 457V595Q176 605 167 605H124Q115 605 115 595V457Q115 447 124 447H167Q176
447 176 457Z" />
<glyph unicode="&#xab;" glyph-name="guillemotleft" horiz-adv-x="632" d="M358 102L274 18L25 266V268L274 516L358 432L193 267L358 102ZM606 102L522 18L273 266V268L522 516L606 432L441 267L606 102Z" />
<glyph unicode="&#xac;" glyph-name="logicalnot" horiz-adv-x="490" d="M45 297V423H447V199H328V297H45Z" />
<glyph unicode="&#xae;" glyph-name="registered" horiz-adv-x="578" d="M464 624Q486 624 502 608T518 570V83Q518 60 502 45T464 29H110Q88 29 72 44T56 83V570Q56 592 72 608T110 624H464ZM452 95V558H122V95H452ZM262 295V153H187V500H321Q387 500 387 429V389Q387
346 357 334Q384 324 384 290V153H308V284Q308 295 298 295H262ZM262 449V348H302Q312 348 312 358V438Q312 449 302 449H262Z" />
<glyph unicode="&#xaf;" glyph-name="overscore" horiz-adv-x="329" d="M280 563V495H52V563H280Z" />
<glyph unicode="&#xb0;" glyph-name="degree" horiz-adv-x="308" d="M266 589V461Q266 392 201 392H111Q46 392 46 461V589Q46 658 111 658H201Q266 658 266 589ZM195 446V604Q195 615 185 615H127Q117 615 117 604V446Q117 436 127 436H185Q195 436 195 446Z" />
<glyph unicode="&#xb1;" glyph-name="plusminus" horiz-adv-x="495" d="M441 395V295H305V153H192V295H56V395H192V536H305V395H441ZM55 0V100H441V0H55Z" />
<glyph unicode="&#xb2;" glyph-name="twosuperior" horiz-adv-x="280" d="M117 451V401H218V347H57V456Q57 518 115 518H153Q162 518 162 527V594Q162 604 153 604H125Q116 604 116 594V570H54V593Q54 655 112 655H164Q222 655 222 593V522Q222 460 164 460H126Q117
460 117 451Z" />
<glyph unicode="&#xb3;" glyph-name="threesuperior" horiz-adv-x="277" d="M201 502Q223 486 223 449V404Q223 342 165 342H110Q51 342 51 404V429H110V401Q110 392 119 392H156Q165 392 165 401V466Q165 475 156 475H108V526H153Q162 526 162 535V594Q162 604
153 604H122Q113 604 113 594V564H54V593Q54 655 112 655H162Q220 655 220 593V553Q220 515 201 502Z" />
<glyph unicode="&#xb4;" glyph-name="acute" horiz-adv-x="287" d="M258 585L127 483H28L111 585H258Z" />
<glyph unicode="&#xb5;" glyph-name="mu" horiz-adv-x="462" d="M45 488H179V106Q179 98 184 92T198 86H253Q261 86 266 92T272 106V488H406V122Q406 -10 282 -10H261Q204 -10 173 25V-159H45V488Z" />
<glyph unicode="&#xb6;" glyph-name="paragraph" horiz-adv-x="529" d="M508 686V590H456V-63H337V590H289V-63H171V317H156Q32 317 32 449V554Q32 686 156 686H508Z" />
<glyph unicode="&#xb7;" glyph-name="middot" horiz-adv-x="280" d="M59 336T80 357T131 378T182 357T203 306T182 255T131 234T80 255T59 306Z" />
<glyph unicode="&#xb8;" glyph-name="cedilla" horiz-adv-x="318" d="M61 -106L159 -4H258L208 -106H61Z" />
<glyph unicode="&#xb9;" glyph-name="onesuperior" horiz-adv-x="180" d="M121 650V346H57V650H121Z" />
<glyph unicode="&#xba;" glyph-name="ordmasculine" horiz-adv-x="291" d="M183 653Q245 653 245 587V465Q245 399 183 399H112Q50 399 50 465V587Q50 653 112 653H183ZM178 451V601Q178 611 169 611H126Q117 611 117 601V451Q117 441 126 441H169Q178 441 178 451Z" />
<glyph unicode="&#xbb;" glyph-name="guillemotright" horiz-adv-x="651" d="M357 18L273 102L438 267L273 432L357 516L606 268V266L357 18ZM109 18L25 102L190 267L25 432L109 516L358 268V266L109 18Z" />
<glyph unicode="&#xbf;" glyph-name="questiondown" horiz-adv-x="423" d="M155 225H164Q172 225 177 231T183 245V300H300V243Q300 111 176 111H171Q163 111 158 105T152 91V-28Q152 -36 157 -42T171 -48H247Q255 -48 260 -42T266 -28V23H390V-25Q390 -157 266
-157H155Q31 -157 31 -25V93Q31 225 155 225ZM311 398T290 377T239 356T188 377T167 428T188 479T239 500T290 479T311 428Z" />
<glyph unicode="&#xc0;" glyph-name="Agrave" horiz-adv-x="485" d="M307 657Q431 657 431 525V0H291V217H190V0H50V525Q50 657 174 657H307ZM190 325H291V542Q291 550 286 556T272 562H209Q201 562 196 556T190 542V325ZM242 698L111 800H258L341 698H242Z" />
<glyph unicode="&#xc1;" glyph-name="Aacute" horiz-adv-x="485" d="M307 657Q431 657 431 525V0H291V217H190V0H50V525Q50 657 174 657H307ZM190 325H291V542Q291 550 286 556T272 562H209Q201 562 196 556T190 542V325ZM370 800L239 698H140L223 800H370Z" />
<glyph unicode="&#xc2;" glyph-name="Acircumflex" horiz-adv-x="485" d="M307 657Q431 657 431 525V0H291V217H190V0H50V525Q50 657 174 657H307ZM190 325H291V542Q291 550 286 556T272 562H209Q201 562 196 556T190 542V325ZM398 701H299L240 757L181 701H82L165
807H315L398 701Z" />
<glyph unicode="&#xc3;" glyph-name="Atilde" horiz-adv-x="485" d="M307 657Q431 657 431 525V0H291V217H190V0H50V525Q50 657 174 657H307ZM190 325H291V542Q291 550 286 556T272 562H209Q201 562 196 556T190 542V325ZM292 688Q265 691 229 705T173 721Q132
721 107 690L80 692L81 701Q85 750 114 775T179 800T257 784T325 768T378 798L405 796L404 787Q400 739 371 714T301 688H292Z" />
<glyph unicode="&#xc4;" glyph-name="Adieresis" horiz-adv-x="485" d="M307 657Q431 657 431 525V0H291V217H190V0H50V525Q50 657 174 657H307ZM190 325H291V542Q291 550 286 556T272 562H209Q201 562 196 556T190 542V325ZM183 809T199 792T216 752T200 712T160
695T119 711T102 751T119 792T159 809ZM345 809T361 792T378 752T362 712T322 695T281 711T264 751T281 792T321 809Z" />
<glyph unicode="&#xc5;" glyph-name="Aring" horiz-adv-x="485" d="M307 657Q431 657 431 525V0H291V217H190V0H50V525Q50 657 174 657H307ZM190 325H291V542Q291 550 286 556T272 562H209Q201 562 196 556T190 542V325ZM273 861Q343 861 343 786V773Q343 698
273 698H209Q138 698 138 773V786Q138 861 209 861H273ZM273 752V806Q273 812 269 816T260 820H222Q209 820 209 806V752Q209 747 213 743T222 738H260Q265 738 269 742T273 752Z" />
<glyph unicode="&#xc6;" glyph-name="AE" horiz-adv-x="613" d="M431 533V366H573V263H431V116H583V0H291V246H190V0H50V515Q50 647 174 647H583V533H431ZM209 543Q201 543 196 537T190 523V354H291V543H209Z" />
<glyph unicode="&#xc7;" glyph-name="Ccedilla" horiz-adv-x="458" d="M102 -106L194 -10H174Q50 -10 50 122V525Q50 657 174 657H300Q424 657 424 525V464H291V542Q291 550 286 556T272 562H209Q201 562 196 556T190 542V106Q190 98 195 92T209 86H272Q280 86
285 92T291 106V206H424V122Q424 -10 300 -10H296L249 -106H102Z" />
<glyph unicode="&#xc8;" glyph-name="Egrave" horiz-adv-x="376" d="M190 116H345V0H50V647H345V533H190V381H335V271H190V116ZM184 698L53 800H200L283 698H184Z" />
<glyph unicode="&#xc9;" glyph-name="Eacute" horiz-adv-x="376" d="M190 116H345V0H50V647H345V533H190V381H335V271H190V116ZM340 800L209 698H110L193 800H340Z" />
<glyph unicode="&#xca;" glyph-name="Ecircumflex" horiz-adv-x="376" d="M190 116H345V0H50V647H345V533H190V381H335V271H190V116ZM352 701H253L194 757L135 701H36L119 807H269L352 701Z" />
<glyph unicode="&#xcb;" glyph-name="Edieresis" horiz-adv-x="376" d="M190 116H345V0H50V647H345V533H190V381H335V271H190V116ZM138 809T154 792T171 752T155 712T115 695T74 711T57 751T74 792T114 809ZM300 809T316 792T333 752T317 712T277 695T236 711T219
751T236 792T276 809Z" />
<glyph unicode="&#xcc;" glyph-name="Igrave" horiz-adv-x="244" d="M190 647V0H50V647H190ZM110 698L-21 800H126L209 698H110Z" />
<glyph unicode="&#xcd;" glyph-name="Iacute" horiz-adv-x="244" d="M190 647V0H50V647H190ZM261 800L130 698H31L114 800H261Z" />
<glyph unicode="&#xce;" glyph-name="Icircumflex" horiz-adv-x="244" d="M190 647V0H50V647H190ZM278 701H179L120 757L61 701H-38L45 807H195L278 701Z" />
<glyph unicode="&#xcf;" glyph-name="Idieresis" horiz-adv-x="244" d="M190 647V0H50V647H190ZM63 809T79 792T96 752T80 712T40 695T-1 711T-18 751T-1 792T39 809ZM225 809T241 792T258 752T242 712T202 695T161 711T144 751T161 792T201 809Z" />
<glyph unicode="&#xd0;" glyph-name="Eth" horiz-adv-x="503" d="M330 647Q454 647 454 515V132Q454 0 330 0H73V280H10V367H73V647H330ZM314 116V532Q314 540 309 546T295 552H213V367H263V280H213V96H295Q303 96 308 102T314 116Z" />
<glyph unicode="&#xd1;" glyph-name="Ntilde" horiz-adv-x="465" d="M421 0H281V537Q281 545 276 551T262 557H208Q200 557 195 551T189 537V0H49V525Q49 657 173 657H297Q421 657 421 525V0ZM282 688Q255 691 219 705T163 721Q122 721 97 690L70 692L71 701Q75
750 104 775T169 800T247 784T315 768T368 798L395 796L394 787Q390 739 361 714T291 688H282Z" />
<glyph unicode="&#xd2;" glyph-name="Ograve" horiz-adv-x="484" d="M431 525V122Q431 -10 307 -10H174Q50 -10 50 122V525Q50 657 174 657H307Q431 657 431 525ZM291 106V542Q291 550 286 556T272 562H209Q201 562 196 556T190 542V106Q190 98 195 92T209 86H272Q280
86 285 92T291 106ZM242 698L111 800H258L341 698H242Z" />
<glyph unicode="&#xd3;" glyph-name="Oacute" horiz-adv-x="484" d="M431 525V122Q431 -10 307 -10H174Q50 -10 50 122V525Q50 657 174 657H307Q431 657 431 525ZM291 106V542Q291 550 286 556T272 562H209Q201 562 196 556T190 542V106Q190 98 195 92T209 86H272Q280
86 285 92T291 106ZM370 800L239 698H140L223 800H370Z" />
<glyph unicode="&#xd4;" glyph-name="Ocircumflex" horiz-adv-x="484" d="M431 525V122Q431 -10 307 -10H174Q50 -10 50 122V525Q50 657 174 657H307Q431 657 431 525ZM291 106V542Q291 550 286 556T272 562H209Q201 562 196 556T190 542V106Q190 98 195 92T209
86H272Q280 86 285 92T291 106ZM398 701H299L240 757L181 701H82L165 807H315L398 701Z" />
<glyph unicode="&#xd5;" glyph-name="Otilde" horiz-adv-x="484" d="M431 525V122Q431 -10 307 -10H174Q50 -10 50 122V525Q50 657 174 657H307Q431 657 431 525ZM291 106V542Q291 550 286 556T272 562H209Q201 562 196 556T190 542V106Q190 98 195 92T209 86H272Q280
86 285 92T291 106ZM291 688Q264 691 228 705T172 721Q131 721 106 690L79 692L80 701Q84 750 113 775T178 800T256 784T324 768T377 798L404 796L403 787Q399 739 370 714T300 688H291Z" />
<glyph unicode="&#xd6;" glyph-name="Odieresis" horiz-adv-x="484" d="M431 525V122Q431 -10 307 -10H174Q50 -10 50 122V525Q50 657 174 657H307Q431 657 431 525ZM291 106V542Q291 550 286 556T272 562H209Q201 562 196 556T190 542V106Q190 98 195 92T209
86H272Q280 86 285 92T291 106ZM183 809T199 792T216 752T200 712T160 695T119 711T102 751T119 792T159 809ZM345 809T361 792T378 752T362 712T322 695T281 711T264 751T281 792T321 809Z" />
<glyph unicode="&#xd7;" glyph-name="multiply" horiz-adv-x="465" d="M338 471L408 401L301 293L408 186L338 116L231 223L124 116L54 186L161 293L54 401L124 471L231 363L338 471Z" />
<glyph unicode="&#xd8;" glyph-name="Oslash" horiz-adv-x="484" d="M398 625Q431 592 431 524V121Q431 -11 307 -11H174Q157 -11 142 -8L116 -75L55 -50L83 20Q50 51 50 121V524Q50 656 174 656H307Q318 656 338 654L365 720L426 695L398 625ZM190 541V286L291
536V541Q291 549 286 555T272 561H209Q201 561 196 555T190 541ZM272 85Q280 85 285 91T291 105V360L190 109V105Q190 97 195 91T209 85H272Z" />
<glyph unicode="&#xd9;" glyph-name="Ugrave" horiz-adv-x="467" d="M281 647H421V122Q421 -10 297 -10H173Q49 -10 49 122V647H189V110Q189 102 194 96T208 90H262Q270 90 275 96T281 110V647ZM222 698L91 800H238L321 698H222Z" />
<glyph unicode="&#xda;" glyph-name="Uacute" horiz-adv-x="467" d="M281 647H421V122Q421 -10 297 -10H173Q49 -10 49 122V647H189V110Q189 102 194 96T208 90H262Q270 90 275 96T281 110V647ZM379 800L248 698H149L232 800H379Z" />
<glyph unicode="&#xdb;" glyph-name="Ucircumflex" horiz-adv-x="467" d="M281 647H421V122Q421 -10 297 -10H173Q49 -10 49 122V647H189V110Q189 102 194 96T208 90H262Q270 90 275 96T281 110V647ZM393 701H294L235 757L176 701H77L160 807H310L393 701Z" />
<glyph unicode="&#xdc;" glyph-name="Udieresis" horiz-adv-x="467" d="M281 647H421V122Q421 -10 297 -10H173Q49 -10 49 122V647H189V110Q189 102 194 96T208 90H262Q270 90 275 96T281 110V647ZM178 809T194 792T211 752T195 712T155 695T114 711T97 751T114
792T154 809ZM340 809T356 792T373 752T357 712T317 695T276 711T259 751T276 792T316 809Z" />
<glyph unicode="&#xdd;" glyph-name="Yacute" horiz-adv-x="435" d="M425 647L286 236V0H146V236L7 647H139L216 377L293 647H425ZM347 800L216 698H117L200 800H347Z" />
<glyph unicode="&#xde;" glyph-name="Thorn" horiz-adv-x="456" d="M302 509Q426 509 426 377V248Q426 116 302 116H189V0H49V647H189V509H302ZM286 232V393Q286 401 281 407T267 413H189V212H267Q275 212 280 218T286 232Z" />
<glyph unicode="&#xdf;" glyph-name="germandbls" horiz-adv-x="492" d="M405 341Q452 308 452 228V132Q452 0 328 0H247V106H309Q317 106 322 112T328 126V264Q328 272 323 278T309 284H253V392H303Q311 392 316 398T322 412V528Q322 536 317 542T303 548H236Q228
548 223 542T217 528V0H33V106H92V280H39V386H92V525Q92 657 216 657H322Q446 657 446 525V449Q446 371 405 341Z" />
<glyph unicode="&#xe0;" glyph-name="agrave" horiz-adv-x="452" d="M293 488H406V0H293V36Q262 -10 190 -10H169Q45 -10 45 122V366Q45 498 169 498H190Q262 498 293 452V488ZM272 106V382Q272 390 267 396T253 402H198Q190 402 185 396T179 382V106Q179 98 184
92T198 86H253Q261 86 266 92T272 106ZM222 545L91 647H238L321 545H222Z" />
<glyph unicode="&#xe1;" glyph-name="aacute" horiz-adv-x="452" d="M293 488H406V0H293V36Q262 -10 190 -10H169Q45 -10 45 122V366Q45 498 169 498H190Q262 498 293 452V488ZM272 106V382Q272 390 267 396T253 402H198Q190 402 185 396T179 382V106Q179 98 184
92T198 86H253Q261 86 266 92T272 106ZM363 647L232 545H133L216 647H363Z" />
<glyph unicode="&#xe2;" glyph-name="acircumflex" horiz-adv-x="452" d="M293 488H406V0H293V36Q262 -10 190 -10H169Q45 -10 45 122V366Q45 498 169 498H190Q262 498 293 452V488ZM272 106V382Q272 390 267 396T253 402H198Q190 402 185 396T179 382V106Q179
98 184 92T198 86H253Q261 86 266 92T272 106ZM383 541H284L225 597L166 541H67L150 647H300L383 541Z" />
<glyph unicode="&#xe3;" glyph-name="atilde" horiz-adv-x="452" d="M293 488H406V0H293V36Q262 -10 190 -10H169Q45 -10 45 122V366Q45 498 169 498H190Q262 498 293 452V488ZM272 106V382Q272 390 267 396T253 402H198Q190 402 185 396T179 382V106Q179 98 184
92T198 86H253Q261 86 266 92T272 106ZM279 535Q252 538 216 552T160 568Q119 568 94 537L67 539L68 548Q72 597 101 622T166 647T244 631T312 615T365 645L392 643L391 634Q387 586 358 561T288 535H279Z" />
<glyph unicode="&#xe4;" glyph-name="adieresis" horiz-adv-x="452" d="M293 488H406V0H293V36Q262 -10 190 -10H169Q45 -10 45 122V366Q45 498 169 498H190Q262 498 293 452V488ZM272 106V382Q272 390 267 396T253 402H198Q190 402 185 396T179 382V106Q179 98
184 92T198 86H253Q261 86 266 92T272 106ZM170 657T186 640T203 600T187 560T147 543T106 559T89 599T106 640T146 657ZM332 657T348 640T365 600T349 560T309 543T268 559T251 599T268 640T308 657Z" />
<glyph unicode="&#xe5;" glyph-name="aring" horiz-adv-x="452" d="M293 488H406V0H293V36Q262 -10 190 -10H169Q45 -10 45 122V366Q45 498 169 498H190Q262 498 293 452V488ZM272 106V382Q272 390 267 396T253 402H198Q190 402 185 396T179 382V106Q179 98 184
92T198 86H253Q261 86 266 92T272 106ZM255 697Q325 697 325 622V609Q325 534 255 534H191Q120 534 120 609V622Q120 697 191 697H255ZM255 588V642Q255 648 251 652T242 656H204Q191 656 191 642V588Q191 583 195 579T204 574H242Q247 574 251 578T255 588Z" />
<glyph unicode="&#xe6;" glyph-name="ae" horiz-adv-x="677" d="M631 208H404V106Q404 98 409 92T423 86H488Q496 86 501 92T507 106V160H631V122Q631 -10 507 -10H441Q368 -10 338 36Q309 -10 235 -10H169Q45 -10 45 122V146Q45 278 169 278H272V382Q272 390
267 396T253 402H194Q186 402 181 396T175 382V328H53V366Q53 498 177 498H235Q309 498 338 452Q368 498 441 498H507Q631 498 631 366V208ZM404 386V296H497V386Q497 394 492 400T478 406H423Q415 406 410 400T404 386ZM253 82Q261 82 266 88T272 102V186H198Q190
186 185 180T179 166V102Q179 94 184 88T198 82H253Z" />
<glyph unicode="&#xe7;" glyph-name="ccedilla" horiz-adv-x="446" d="M89 -106L181 -10H169Q45 -10 45 122V366Q45 498 169 498H282Q406 498 406 366V296H272V382Q272 390 267 396T253 402H198Q190 402 185 396T179 382V106Q179 98 184 92T198 86H253Q261 86
266 92T272 106V192H406V122Q406 -8 283 -10L236 -106H89Z" />
<glyph unicode="&#xe8;" glyph-name="egrave" horiz-adv-x="435" d="M282 498Q406 498 406 366V208H179V106Q179 98 184 92T198 86H253Q261 86 266 92T272 106V160H406V122Q406 -10 282 -10H169Q45 -10 45 122V366Q45 498 169 498H282ZM179 296H272V386Q272 394
267 400T253 406H198Q190 406 185 400T179 386V296ZM214 545L83 647H230L313 545H214Z" />
<glyph unicode="&#xe9;" glyph-name="eacute" horiz-adv-x="435" d="M282 498Q406 498 406 366V208H179V106Q179 98 184 92T198 86H253Q261 86 266 92T272 106V160H406V122Q406 -10 282 -10H169Q45 -10 45 122V366Q45 498 169 498H282ZM179 296H272V386Q272 394
267 400T253 406H198Q190 406 185 400T179 386V296ZM358 647L227 545H128L211 647H358Z" />
<glyph unicode="&#xea;" glyph-name="ecircumflex" horiz-adv-x="435" d="M282 498Q406 498 406 366V208H179V106Q179 98 184 92T198 86H253Q261 86 266 92T272 106V160H406V122Q406 -10 282 -10H169Q45 -10 45 122V366Q45 498 169 498H282ZM179 296H272V386Q272
394 267 400T253 406H198Q190 406 185 400T179 386V296ZM383 541H284L225 597L166 541H67L150 647H300L383 541Z" />
<glyph unicode="&#xeb;" glyph-name="edieresis" horiz-adv-x="435" d="M282 498Q406 498 406 366V208H179V106Q179 98 184 92T198 86H253Q261 86 266 92T272 106V160H406V122Q406 -10 282 -10H169Q45 -10 45 122V366Q45 498 169 498H282ZM179 296H272V386Q272
394 267 400T253 406H198Q190 406 185 400T179 386V296ZM168 657T184 640T201 600T185 560T145 543T104 559T87 599T104 640T144 657ZM330 657T346 640T363 600T347 560T307 543T266 559T249 599T266 640T306 657Z" />
<glyph unicode="&#xec;" glyph-name="igrave" horiz-adv-x="246" d="M63 0V488H197V0H63ZM131 545L0 647H147L230 545H131Z" />
<glyph unicode="&#xed;" glyph-name="iacute" horiz-adv-x="246" d="M197 488V0H63V488H197ZM260 647L129 545H30L113 647H260Z" />
<glyph unicode="&#xee;" glyph-name="icircumflex" horiz-adv-x="246" d="M63 0V488H197V0H63ZM288 541H189L130 597L71 541H-28L55 647H205L288 541Z" />
<glyph unicode="&#xef;" glyph-name="idieresis" horiz-adv-x="246" d="M63 0V488H197V0H63ZM73 657T89 640T106 600T90 560T50 543T9 559T-8 599T9 640T49 657ZM235 657T251 640T268 600T252 560T212 543T171 559T154 599T171 640T211 657Z" />
<glyph unicode="&#xf0;" glyph-name="eth" horiz-adv-x="455" d="M390 413Q406 382 406 335V122Q406 -10 282 -10H169Q45 -10 45 122V335Q45 467 169 467H219L168 529L109 486L76 531L133 573L90 626L168 687L213 631L255 662L288 616L249 587Q385 423 390 413ZM272
94V364Q272 372 267 378T253 384H198Q190 384 185 378T179 364V94Q179 86 184 80T198 74H253Q261 74 266 80T272 94Z" />
<glyph unicode="&#xf1;" glyph-name="ntilde" horiz-adv-x="452" d="M179 0H45V488H167V463Q198 498 261 498H282Q406 498 406 366V0H272V382Q272 390 267 396T253 402H198Q190 402 185 396T179 382V0ZM275 535Q248 538 212 552T156 568Q115 568 90 537L63 539L64
548Q68 597 97 622T162 647T240 631T308 615T361 645L388 643L387 634Q383 586 354 561T284 535H275Z" />
<glyph unicode="&#xf2;" glyph-name="ograve" horiz-adv-x="452" d="M406 366V122Q406 -10 282 -10H169Q45 -10 45 122V366Q45 498 169 498H282Q406 498 406 366ZM272 94V395Q272 403 267 409T253 415H198Q190 415 185 409T179 395V94Q179 86 184 80T198 74H253Q261
74 266 80T272 94ZM216 545L85 647H232L315 545H216Z" />
<glyph unicode="&#xf3;" glyph-name="oacute" horiz-adv-x="452" d="M406 366V122Q406 -10 282 -10H169Q45 -10 45 122V366Q45 498 169 498H282Q406 498 406 366ZM272 94V395Q272 403 267 409T253 415H198Q190 415 185 409T179 395V94Q179 86 184 80T198 74H253Q261
74 266 80T272 94ZM366 647L235 545H136L219 647H366Z" />
<glyph unicode="&#xf4;" glyph-name="ocircumflex" horiz-adv-x="452" d="M406 366V122Q406 -10 282 -10H169Q45 -10 45 122V366Q45 498 169 498H282Q406 498 406 366ZM272 94V395Q272 403 267 409T253 415H198Q190 415 185 409T179 395V94Q179 86 184 80T198
74H253Q261 74 266 80T272 94ZM383 541H284L225 597L166 541H67L150 647H300L383 541Z" />
<glyph unicode="&#xf5;" glyph-name="otilde" horiz-adv-x="452" d="M406 366V122Q406 -10 282 -10H169Q45 -10 45 122V366Q45 498 169 498H282Q406 498 406 366ZM272 94V395Q272 403 267 409T253 415H198Q190 415 185 409T179 395V94Q179 86 184 80T198 74H253Q261
74 266 80T272 94ZM277 535Q250 538 214 552T158 568Q117 568 92 537L65 539L66 548Q70 597 99 622T164 647T242 631T310 615T363 645L390 643L389 634Q385 586 356 561T286 535H277Z" />
<glyph unicode="&#xf6;" glyph-name="odieresis" horiz-adv-x="452" d="M406 366V122Q406 -10 282 -10H169Q45 -10 45 122V366Q45 498 169 498H282Q406 498 406 366ZM272 94V395Q272 403 267 409T253 415H198Q190 415 185 409T179 395V94Q179 86 184 80T198 74H253Q261
74 266 80T272 94ZM167 657T183 640T200 600T184 560T144 543T103 559T86 599T103 640T143 657ZM329 657T345 640T362 600T346 560T306 543T265 559T248 599T265 640T305 657Z" />
<glyph unicode="&#xf7;" glyph-name="divide" horiz-adv-x="465" d="M161 120T182 141T233 162T284 141T305 90T284 39T233 18T182 39T161 90ZM305 381T284 360T233 339T182 360T161 411T182 462T233 483T284 462T305 411ZM38 304H427V197H38V304Z" />
<glyph unicode="&#xf8;" glyph-name="oslash" horiz-adv-x="452" d="M418 516L383 455Q406 423 406 366V122Q406 -10 282 -10H169Q144 -10 123 -4L91 -61L34 -28L68 33Q45 65 45 122V366Q45 498 169 498H282Q308 498 329 492L361 549L418 516ZM179 395V229L272
393V395Q272 403 267 409T253 415H198Q190 415 185 409T179 395ZM272 94V259L179 95V94Q179 86 184 80T198 74H253Q261 74 266 80T272 94Z" />
<glyph unicode="&#xf9;" glyph-name="ugrave" horiz-adv-x="452" d="M272 488H406V0H284V25Q253 -10 190 -10H169Q45 -10 45 122V488H179V106Q179 98 184 92T198 86H253Q261 86 266 92T272 106V488ZM219 545L88 647H235L318 545H219Z" />
<glyph unicode="&#xfa;" glyph-name="uacute" horiz-adv-x="452" d="M272 488H406V0H284V25Q253 -10 190 -10H169Q45 -10 45 122V488H179V106Q179 98 184 92T198 86H253Q261 86 266 92T272 106V488ZM363 647L232 545H133L216 647H363Z" />
<glyph unicode="&#xfb;" glyph-name="ucircumflex" horiz-adv-x="452" d="M272 488H406V0H284V25Q253 -10 190 -10H169Q45 -10 45 122V488H179V106Q179 98 184 92T198 86H253Q261 86 266 92T272 106V488ZM383 541H284L225 597L166 541H67L150 647H300L383 541Z" />
<glyph unicode="&#xfc;" glyph-name="udieresis" horiz-adv-x="452" d="M272 488H406V0H284V25Q253 -10 190 -10H169Q45 -10 45 122V488H179V106Q179 98 184 92T198 86H253Q261 86 266 92T272 106V488ZM168 647T184 630T201 590T185 550T145 533T104 549T87 589T104
630T144 647ZM330 647T346 630T363 590T347 550T307 533T266 549T249 589T266 630T306 647Z" />
<glyph unicode="&#xfd;" glyph-name="yacute" horiz-adv-x="452" d="M272 488H406V-37Q406 -169 282 -169H182Q58 -169 58 -37V-21H188V-53Q188 -61 193 -67T207 -73H253Q261 -73 266 -67T272 -53V46Q242 22 190 22H169Q45 22 45 154V488H179V138Q179 130 184
124T198 118H253Q261 118 266 124T272 138V488ZM363 647L232 545H133L216 647H363Z" />
<glyph unicode="&#xfe;" glyph-name="thorn" horiz-adv-x="439" d="M45 -159V647H179V474Q211 498 261 498H282Q406 498 406 366V122Q406 -10 282 -10H261Q210 -10 179 13V-159H45ZM179 382V106Q179 98 184 92T198 86H253Q261 86 266 92T272 106V382Q272 390 267
396T253 402H198Q190 402 185 396T179 382Z" />
<glyph unicode="&#xff;" glyph-name="ydieresis" horiz-adv-x="452" d="M272 488H406V-37Q406 -169 282 -169H182Q58 -169 58 -37V-21H188V-53Q188 -61 193 -67T207 -73H253Q261 -73 266 -67T272 -53V46Q242 22 190 22H169Q45 22 45 154V488H179V138Q179 130 184
124T198 118H253Q261 118 266 124T272 138V488ZM168 657T184 640T201 600T185 560T145 543T104 559T87 599T104 640T144 657ZM330 657T346 640T363 600T347 560T307 543T266 559T249 599T266 640T306 657Z" />
</font>
</defs>
</svg>
