<?xml version="1.0" standalone="no"?>
<!DOCTYPE svg PUBLIC "-//W3C//DTD SVG 1.1//EN" "http://www.w3.org/Graphics/SVG/1.1/DTD/svg11.dtd">
<svg xmlns="http://www.w3.org/2000/svg">
<defs >
<font id="Sarala" horiz-adv-x="1201" ><font-face
    font-family="Sarala"
    units-per-em="2048"
    panose-1="0 0 8 0 0 0 0 0 0 0"
    ascent="2398"
    descent="-941"
    alphabetic="0" />
<glyph unicode=" " glyph-name="space" horiz-adv-x="460" />
<glyph unicode="!" glyph-name="exclam" horiz-adv-x="559" d="M125 1516H434L397 438H162L125 1516ZM127 256H434V-14H127V256Z" />
<glyph unicode="&quot;" glyph-name="quotedbl" horiz-adv-x="905" d="M131 1493H377L356 911H152L131 1493ZM530 1493H774L754 911H551L530 1493Z" />
<glyph unicode="#" glyph-name="numbersign" horiz-adv-x="1431" d="M371 864H92L127 1071H408L473 1452H690L625 1071H936L1001 1452H1221L1153 1071H1430L1395 864H1118L1065 555H1339L1305 348H1028L971 0H752L811 348H500L440 0H223L283 348H2L37 555H317L371
864ZM846 555L899 864H588L535 555H846Z" />
<glyph unicode="$" glyph-name="dollar" horiz-adv-x="1048" d="M985 281T891 181T629 55V-160H459V49Q350 55 254 79T55 147L127 362Q266 309 340 291T477 272Q571 272 625 314T680 428Q680 498 624 532T449 602Q334 635 260 670T134 778T82 973Q82 1135 185
1231T459 1350V1585H629V1354Q715 1348 790 1330T956 1278L893 1063Q696 1131 588 1130Q494 1130 440 1095T385 995Q385 948 413 918T486 869T610 825Q727 790 803 754T932 641T985 436Q985 281 891 181Z" />
<glyph unicode="%" glyph-name="percent" horiz-adv-x="2002" d="M479 -2L1366 1532L1524 1442L639 -94L479 -2ZM48 1452T410 1452Q586 1452 680 1332T774 987Q774 760 680 639T410 518Q48 518 47 987Q48 1452 410 1452ZM555 1147T520 1220T410 1294Q334 1294
299 1221T264 987Q264 823 299 751T410 678Q486 678 520 750T555 987Q555 1147 520 1220ZM1231 918T1593 918Q1769 918 1862 798T1956 453Q1956 226 1863 105T1593 -16Q1231 -16 1231 453Q1231 918 1593 918ZM1739 612T1704 686T1593 760Q1517 760 1483 686T1448
453Q1448 289 1483 216T1593 143Q1669 143 1704 216T1739 453Q1739 612 1704 686Z" />
<glyph unicode="&amp;" glyph-name="ampersand" horiz-adv-x="1353" d="M868 -23T596 -23Q326 -23 179 90T31 403Q31 663 287 801Q213 883 182 955T150 1114Q150 1212 206 1292T370 1419T629 1466Q854 1466 978 1364T1102 1087H819Q819 1163 767 1208T629 1253Q549
1253 496 1210T442 1102Q442 1032 486 967T641 805L969 522Q994 637 993 791H1253Q1253 531 1176 344L1356 190L1186 -4L1032 131Q868 -23 596 -23ZM764 197T856 289L453 643Q381 594 348 537T315 408Q315 316 392 257T594 197Q764 197 856 289Z" />
<glyph unicode="&apos;" glyph-name="quotesingle" horiz-adv-x="507" d="M131 1493H377L356 911H152L131 1493Z" />
<glyph unicode="(" glyph-name="parenleft" horiz-adv-x="600" d="M434 1270T371 1054T307 584Q307 336 370 120T586 -362L408 -465Q224 -182 145 60T66 580Q66 852 144 1097T408 1632L586 1530Q434 1270 371 1054Z" />
<glyph unicode=")" glyph-name="parenright" horiz-adv-x="600" d="M377 1343T456 1098T535 580Q535 304 456 61T193 -465L16 -362Q166 -96 229 121T293 584Q293 836 230 1053T16 1530L193 1632Q377 1343 456 1098Z" />
<glyph unicode="*" glyph-name="asterisk" horiz-adv-x="817" d="M510 1098L711 893L541 770L406 1030L270 770L100 891L307 1096L31 1147L92 1346L344 1214L305 1489H514L469 1214L727 1341L791 1147L510 1098Z" />
<glyph unicode="+" glyph-name="plus" horiz-adv-x="1142" d="M457 1133H680V731H1073V524H680V121H457V524H68V731H457V1133Z" />
<glyph unicode="," glyph-name="comma" horiz-adv-x="509" d="M164 276H465L240 -274H39L164 276Z" />
<glyph unicode="-" glyph-name="hyphen" horiz-adv-x="1026" d="M133 766H893V549H133V766Z" />
<glyph unicode="." glyph-name="period" horiz-adv-x="587" d="M453 305V0H137V305H453Z" />
<glyph unicode="/" glyph-name="slash" horiz-adv-x="759" d="M528 1540H768L229 -145H-10L528 1540Z" />
<glyph unicode="0" glyph-name="zero" horiz-adv-x="1314" d="M936 1468T1078 1280T1221 729Q1221 364 1077 174T657 -16Q383 -16 239 174T94 729Q94 1091 236 1279T657 1468Q936 1468 1078 1280ZM522 1243T456 1117T389 729Q389 463 455 336T657 209Q792 209
859 336T926 729Q926 991 860 1117T657 1243Q522 1243 456 1117Z" />
<glyph unicode="1" glyph-name="one" horiz-adv-x="874" d="M700 1434V0H397V1186L61 1098L12 1266L508 1462L700 1434Z" />
<glyph unicode="2" glyph-name="two" horiz-adv-x="1101" d="M633 1458T747 1403T924 1245T987 1004Q987 895 958 809T850 625T627 391L436 219Q688 219 1018 258V0H72L61 201L317 442Q516 612 592 734T668 989Q668 1098 599 1157T406 1217Q336 1217 256 1199T109
1147L63 1372Q262 1458 479 1458Q633 1458 747 1403Z" />
<glyph unicode="3" glyph-name="three" horiz-adv-x="1103" d="M856 721T938 630T1020 397Q1020 200 868 93T436 -14Q344 -14 245 1T59 45L98 260Q172 240 256 228T408 215Q553 215 629 266T705 414Q705 629 389 629H281V842H375Q520 842 596 896T672 1053Q672
1139 608 1183T432 1227Q289 1227 100 1157L53 1374Q262 1456 479 1456Q704 1456 845 1356T987 1077Q987 950 915 867T705 754Q856 721 938 630Z" />
<glyph unicode="4" glyph-name="four" horiz-adv-x="1253" d="M770 0V309H55L29 477L612 1452H1044V522H1217L1188 309H1044V0H770ZM770 522V1245L348 522H770Z" />
<glyph unicode="5" glyph-name="five" horiz-adv-x="1142" d="M764 899T861 847T1011 700T1065 481Q1065 252 919 121T518 -10Q407 -10 291 12T70 76L123 295Q213 260 306 241T473 221Q614 221 687 285T760 475Q760 577 701 631T528 686Q467 686 400 669T274 623L129
725L197 1452H1006V1229H428L391 858Q518 899 637 899Q764 899 861 847Z" />
<glyph unicode="6" glyph-name="six" horiz-adv-x="1220" d="M850 895T949 839T1105 682T1161 455Q1161 314 1095 207T905 42T623 -16Q367 -16 222 140T76 575Q76 833 188 1028T512 1335T1010 1464L1040 1235Q757 1217 597 1100T389 768Q461 829 547 862T725 895Q850
895 949 839ZM729 207T797 277T866 457Q866 570 805 632T631 694Q565 694 498 668T371 592V578Q371 396 435 302T623 207Q729 207 797 277Z" />
<glyph unicode="7" glyph-name="seven" horiz-adv-x="1079" d="M1047 1257L463 0H162L735 1214H27V1452H1001L1047 1257Z" />
<glyph unicode="8" glyph-name="eight" horiz-adv-x="1263" d="M1034 709T1112 625T1190 399Q1190 274 1122 179T928 32T639 -20Q379 -20 230 91T80 395Q80 512 146 603T340 756Q242 809 188 889T133 1092Q133 1268 268 1371T633 1475Q785 1475 898 1428T1073
1293T1135 1090Q1135 994 1074 910T897 764Q1034 709 1112 625ZM530 1253T470 1205T410 1077Q410 985 483 934T702 834Q778 883 818 945T858 1077Q858 1159 797 1206T633 1253Q530 1253 470 1205ZM756 201T831 259T907 410Q907 482 865 526T761 599T584 664L541
676Q445 608 404 547T362 408Q362 314 438 258T639 201Q756 201 831 259Z" />
<glyph unicode="9" glyph-name="nine" horiz-adv-x="1220" d="M854 1473T999 1316T1145 881Q1145 623 1033 428T709 121T211 -8L180 221Q463 239 623 356T831 688Q759 627 674 594T496 561Q371 561 272 617T116 774T59 1001Q59 1142 126 1249T315 1414T598 1473Q854
1473 999 1316ZM655 762T723 788T850 864V879Q850 1061 786 1155T598 1249Q492 1249 423 1179T354 999Q354 886 415 824T590 762Q655 762 723 788Z" />
<glyph unicode=":" glyph-name="colon" horiz-adv-x="501" d="M94 1001H410V696H94V1001ZM94 330H410V23H94V330Z" />
<glyph unicode=";" glyph-name="semicolon" horiz-adv-x="520" d="M162 944H477V639H162V944ZM164 276H465L240 -274H39L164 276Z" />
<glyph unicode="&lt;" glyph-name="less" horiz-adv-x="1261" d="M395 618L1135 348V117L68 520V719L1135 1120V891L395 618Z" />
<glyph unicode="=" glyph-name="equal" horiz-adv-x="1320" d="M186 911H1124V707H186V911ZM186 473H1124V268H186V473Z" />
<glyph unicode="&gt;" glyph-name="greater" horiz-adv-x="1261" d="M127 348L866 618L127 891V1120L1194 719V520L127 117V348Z" />
<glyph unicode="?" glyph-name="question" horiz-adv-x="897" d="M573 1186T515 1231T360 1276Q241 1276 68 1198L-18 1411Q76 1462 185 1491T401 1520Q620 1520 752 1415T885 1128Q885 1030 858 966T794 863T690 776Q622 729 581 686T510 572T481 389H193Q193
543 227 639T310 786T432 889Q506 942 539 985T573 1106Q573 1186 515 1231ZM180 274H496V-8H180V274Z" />
<glyph unicode="@" glyph-name="at" horiz-adv-x="2043" d="M66 743T194 977T553 1340T1090 1468Q1354 1468 1555 1367T1867 1082T1978 655Q1978 475 1922 339T1763 128T1524 53Q1422 53 1342 102T1231 233Q1186 153 1101 105T922 57Q770 57 678 153T586 406Q586
568 654 691T848 883T1137 952Q1198 952 1277 936T1419 895L1378 569Q1370 520 1370 475Q1370 381 1412 324T1522 266Q1612 266 1668 371T1724 649Q1724 825 1646 958T1423 1165T1090 1239Q863 1239 689 1140T418 858T322 438Q322 235 411 81T663 -159T1040 -244Q1126
-244 1220 -228T1384 -184L1448 -393Q1358 -426 1240 -446T1022 -467Q737 -467 521 -355T186 -36T66 438Q66 743 194 977ZM1141 760T1098 760Q977 760 903 674T829 449Q829 367 866 317T963 266Q1037 266 1090 331T1157 504L1192 745Q1141 760 1098 760Z" />
<glyph unicode="A" glyph-name="A" horiz-adv-x="1394" d="M440 373L322 0H14L485 1452H899L1382 0H1079L956 373H440ZM688 1184L510 604H885L702 1184H688Z" />
<glyph unicode="B" glyph-name="B" horiz-adv-x="1335" d="M1124 713T1194 627T1264 418Q1264 219 1122 110T721 0H166V1452H680Q936 1452 1075 1352T1214 1069Q1214 846 995 766V754Q1124 713 1194 627ZM905 854T905 1049Q905 1229 664 1229H459V854H664Q905
854 905 1049ZM821 223T885 279T950 438Q950 536 883 586T684 637H459V223H705Q821 223 885 279Z" />
<glyph unicode="C" glyph-name="C" horiz-adv-x="1259" d="M897 1470T1011 1441T1217 1358L1124 1141Q1038 1182 966 1200T819 1219Q612 1219 505 1094T397 731Q397 489 504 365T819 240Q979 240 1153 313L1229 84Q1004 -16 778 -16Q438 -16 257 175T76 725Q76
956 160 1124T402 1381T782 1470Q897 1470 1011 1441Z" />
<glyph unicode="D" glyph-name="D" horiz-adv-x="1482" d="M1028 1452T1217 1271T1407 733Q1407 373 1216 187T653 0H166V1452H653Q1028 1452 1217 1271ZM877 233T981 358T1085 729Q1085 971 982 1094T674 1217H475V233H674Q877 233 981 358Z" />
<glyph unicode="E" glyph-name="E" horiz-adv-x="1202" d="M479 862H1051V635H479V231H1133V0H166V1452H1112V1221H479V862Z" />
<glyph unicode="F" glyph-name="F" horiz-adv-x="1132" d="M479 852H1016V616H479V0H166V1452H1100V1217H479V852Z" />
<glyph unicode="G" glyph-name="G" horiz-adv-x="1380" d="M1169 39T1039 12T784 -16Q446 -16 261 177T76 725Q76 1081 267 1275T809 1470Q932 1470 1055 1441T1276 1358L1184 1137Q1080 1180 1002 1199T846 1219Q625 1219 511 1095T397 731Q397 493 502 362T801
231Q899 231 993 258V737H1284V90Q1169 39 1039 12Z" />
<glyph unicode="H" glyph-name="H" horiz-adv-x="1558" d="M1079 1452H1393V0H1079V621H479V0H166V1452H479V858H1079V1452Z" />
<glyph unicode="I" glyph-name="I" horiz-adv-x="643" d="M166 1452H479V0H166V1452Z" />
<glyph unicode="J" glyph-name="J" horiz-adv-x="763" d="M297 35T297 293V1221H18V1452H606V289Q606 99 468 -62T82 -317L-20 -131Q297 35 297 293Z" />
<glyph unicode="K" glyph-name="K" horiz-adv-x="1398" d="M166 1452H479V0H166V1452ZM1395 0H1038L508 776L993 1452H1346L848 780L1395 0Z" />
<glyph unicode="L" glyph-name="L" horiz-adv-x="1089" d="M1075 0H166V1452H465V238H1075V0Z" />
<glyph unicode="M" glyph-name="M" horiz-adv-x="1904" d="M1444 780Q1421 997 1409 1081Q1397 1032 1353 875T1274 608L1083 47H819L631 608Q572 784 514 1012L494 1081L440 608L369 0H74L260 1452H614L825 819Q868 678 891 594Q928 453 952 385Q977 453 1014
594Q1037 678 1079 819L1290 1452H1642L1831 0H1536L1462 608L1444 780Z" />
<glyph unicode="N" glyph-name="N" horiz-adv-x="1540" d="M676 643Q604 745 451 1006V0H166V1452H414L856 821Q940 702 1090 453V1452H1376V0H1126L676 643Z" />
<glyph unicode="O" glyph-name="O" horiz-adv-x="1542" d="M1110 1473T1289 1282T1468 733Q1468 368 1290 175T772 -18Q430 -18 253 174T76 733Q76 1089 255 1281T772 1473Q1110 1473 1289 1282ZM586 1227T493 1102T399 733Q399 485 493 356T772 227Q956 227 1050
356T1145 733Q1145 975 1051 1101T772 1227Q586 1227 493 1102Z" />
<glyph unicode="P" glyph-name="P" horiz-adv-x="1253" d="M930 1452T1071 1335T1212 993Q1212 776 1069 656T670 535H475V0H166V1452H664Q930 1452 1071 1335ZM778 764T840 820T903 993Q903 1110 842 1165T651 1221H475V764H651Q778 764 840 820Z" />
<glyph unicode="Q" glyph-name="Q" horiz-adv-x="1542" d="M1178 -215T1272 -182L1341 -401Q1212 -444 1090 -444Q891 -444 772 -331T633 -10Q359 29 218 218T76 733Q76 1089 255 1281T772 1473Q1110 1473 1289 1282T1468 733Q1468 389 1311 198T852 -16Q870 -120
929 -167T1102 -215Q1178 -215 1272 -182ZM399 485T493 356T772 227Q956 227 1050 356T1145 733Q1145 975 1051 1101T772 1227Q586 1227 493 1102T399 733Q399 485 493 356Z" />
<glyph unicode="R" glyph-name="R" horiz-adv-x="1320" d="M475 0H166V1452H664Q936 1452 1081 1337T1227 999Q1227 862 1157 762T958 608L1276 0H942L676 553H475V0ZM786 778T850 832T915 999Q915 1114 851 1167T651 1221H475V778H651Q786 778 850 832Z" />
<glyph unicode="S" glyph-name="S" horiz-adv-x="1136" d="M809 1471T1034 1391L971 1151Q762 1225 631 1225Q525 1225 464 1183T403 1069Q403 991 459 945T666 860Q887 803 980 703T1073 426Q1073 213 930 100T520 -14Q303 -14 55 84L129 317Q266 268 353 249T518
229Q631 229 692 277T754 412Q754 467 728 504T640 570T461 629Q266 676 176 775T86 1036Q86 1243 228 1356T629 1470Q809 1471 1034 1391Z" />
<glyph unicode="T" glyph-name="T" horiz-adv-x="1142" d="M1128 1214H735V0H422V1214H14V1452H1128V1214Z" />
<glyph unicode="U" glyph-name="U" horiz-adv-x="1482" d="M1348 244T1192 112T741 -20Q442 -20 289 111T135 496V1452H449V492Q449 228 741 227Q1034 227 1034 492V1452H1348V496Q1348 244 1192 112Z" />
<glyph unicode="V" glyph-name="V" horiz-adv-x="1384" d="M12 1452H332L555 770Q604 618 680 322L692 270Q770 594 827 770L1053 1452H1372L885 0H500L12 1452Z" />
<glyph unicode="W" glyph-name="W" horiz-adv-x="2080" d="M1100 809T1087 883T1065 997L1040 1133L1016 997Q1008 958 995 884T969 760L793 0H379L27 1452H338L494 770Q527 620 551 530L606 289L717 770L874 1452H1206L1364 770L1475 289Q1508 436 1532 530L1587
770L1743 1452H2054L1702 0H1288L1112 760Q1100 809 1087 883Z" />
<glyph unicode="X" glyph-name="X" horiz-adv-x="1361" d="M10 0L461 752L51 1452H393L680 930L967 1452H1309L901 752L1350 0H993L680 571L367 0H10Z" />
<glyph unicode="Y" glyph-name="Y" horiz-adv-x="1273" d="M539 1040T577 937T629 799H645Q657 834 696 937T760 1094L938 1452H1274L793 563V0H479V563L0 1452H338L514 1094Q539 1040 577 937Z" />
<glyph unicode="Z" glyph-name="Z" horiz-adv-x="1161" d="M1102 1456V1253L410 236H1096V0H55V205L745 1219H78V1456H1102Z" />
<glyph unicode="[" glyph-name="bracketleft" horiz-adv-x="692" d="M399 -188H670V-395H162V1585H670V1378H399V-188Z" />
<glyph unicode="\" glyph-name="backslash" horiz-adv-x="759" d="M229 1540L768 -145H528L-10 1540H229Z" />
<glyph unicode="]" glyph-name="bracketright" horiz-adv-x="692" d="M25 1585H530V-395H25V-188H295V1378H25V1585Z" />
<glyph unicode="^" glyph-name="asciicircum" horiz-adv-x="1118" d="M559 1268L238 719H-2L442 1456H676L1120 721H879L559 1268Z" />
<glyph unicode="_" glyph-name="underscore" horiz-adv-x="1234" d="M133 -78H1102V-297H133V-78Z" />
<glyph unicode="`" glyph-name="grave" horiz-adv-x="600" d="M207 1599L526 1270L442 1167L74 1423L207 1599Z" />
<glyph unicode="a" glyph-name="a" horiz-adv-x="1138" d="M780 1094T901 982T1022 657V0H768L733 127Q667 57 585 21T408 -16Q242 -16 145 70T47 301Q47 469 188 563T584 657H715V684Q709 870 504 870Q434 870 342 850T176 797L111 1004Q217 1047 334 1070T553
1094Q780 1094 901 982ZM479 489T407 444T334 319Q334 253 374 219T487 184Q553 184 613 213T715 291V489H610Q479 489 407 444Z" />
<glyph unicode="b" glyph-name="b" horiz-adv-x="1282" d="M578 1090T748 1090Q971 1090 1095 951T1219 559Q1219 293 1063 140T635 -14Q496 -14 365 4T152 53V1540H459V971Q578 1090 748 1090ZM600 872T540 825T459 700V221Q527 194 621 195Q760 195 833 285T907
549Q907 709 850 790T684 872Q600 872 540 825Z" />
<glyph unicode="c" glyph-name="c" horiz-adv-x="976" d="M785 1090T932 1014L864 811Q755 868 653 868Q520 868 448 782T375 539Q375 383 449 298T664 213Q779 213 889 262L938 53Q864 20 778 2T614 -16Q348 -16 207 127T66 539Q66 801 211 945T621 1090Q785
1090 932 1014Z" />
<glyph unicode="d" glyph-name="d" horiz-adv-x="1259" d="M850 129Q782 55 707 21T535 -14Q314 -14 190 125T66 516Q66 784 220 937T645 1090Q723 1090 825 1069V1540H1133V2H897L850 129ZM678 203T738 248T825 373V858Q766 872 734 877T662 883Q523 883 449
793T375 526Q375 202 598 203Q678 203 738 248Z" />
<glyph unicode="e" glyph-name="e" horiz-adv-x="1150" d="M389 205T647 205Q727 205 808 223T987 283L1061 92Q817 -21 610 -20Q356 -20 211 128T66 539Q66 801 208 947T606 1094Q1087 1094 1087 549V479H365Q389 205 647 205ZM792 881T608 881Q506 881 448 826T371
657H805Q792 881 608 881Z" />
<glyph unicode="f" glyph-name="f" horiz-adv-x="757" d="M195 1188Q195 1358 296 1457T573 1556Q649 1556 716 1541T872 1489L797 1315Q705 1346 643 1346Q573 1346 535 1306T496 1190V1073H754V858H496V92Q496 -119 389 -313H195V858H18V1073H195V1188Z" />
<glyph unicode="g" glyph-name="g" horiz-adv-x="1282" d="M674 1083T740 1062T856 999L887 1073H1135V18Q1135 -222 988 -347T586 -473Q457 -473 330 -444T104 -358L199 -158Q271 -197 375 -224T567 -252Q692 -252 759 -188T827 2V115Q704 -2 537 -2Q314 -2 190
135T66 520Q66 784 207 933T598 1083Q674 1083 740 1062ZM520 879T449 790T377 530Q377 378 434 297T600 215Q682 215 743 262T827 389V834Q749 879 655 879Q520 879 449 790Z" />
<glyph unicode="h" glyph-name="h" horiz-adv-x="1282" d="M522 1014T612 1052T809 1090Q977 1090 1068 993T1159 713V0H852V696Q852 790 815 832T696 874Q622 874 558 841T455 750V0H147V1544H455V942Q522 1014 612 1052Z" />
<glyph unicode="i" glyph-name="i" horiz-adv-x="606" d="M150 1505H457V1225H150V1505ZM150 1061H457V0H150V1061Z" />
<glyph unicode="j" glyph-name="j" horiz-adv-x="600" d="M152 1505H459V1225H152V1505ZM49 -152T100 -33T152 203V1067H459V203Q459 41 367 -112T96 -403L-59 -287Q49 -152 100 -33Z" />
<glyph unicode="k" glyph-name="k" horiz-adv-x="1198" d="M147 1546H455V0H147V1546ZM1204 0H862L475 596L815 1073H1141L795 606L1204 0Z" />
<glyph unicode="l" glyph-name="l" horiz-adv-x="610" d="M152 1540H459V0H152V1540Z" />
<glyph unicode="m" glyph-name="m" horiz-adv-x="1976" d="M572 1090T795 1090Q910 1090 992 1043T1116 905Q1192 999 1284 1044T1491 1090Q1663 1090 1756 992T1849 713V0H1542V696Q1542 790 1505 832T1386 874Q1312 874 1251 842T1149 750Q1149 746 1151 732T1153
698V0H846V696Q846 790 809 832T690 874Q618 874 556 841T457 750V0H150V1073H406L438 924Q572 1090 795 1090Z" />
<glyph unicode="n" glyph-name="n" horiz-adv-x="1280" d="M576 1090T807 1090Q975 1090 1066 992T1157 713V0H850V696Q850 790 813 832T694 874Q620 874 556 841T453 750V0H145V1073H401L434 924Q576 1090 807 1090Z" />
<glyph unicode="o" glyph-name="o" horiz-adv-x="1224" d="M877 1098T1018 954T1159 539Q1159 269 1018 123T612 -23Q350 -23 208 122T66 539Q66 809 207 953T612 1098Q877 1098 1018 954ZM375 869T375 539Q375 209 612 209Q850 209 850 539Q850 869 612 868Q375
869 375 539Z" />
<glyph unicode="p" glyph-name="p" horiz-adv-x="1284" d="M971 1087T1095 949T1219 557Q1219 379 1148 250T947 53T639 -16Q555 -16 459 6V-469H152V1073H387L434 946Q502 1020 576 1053T748 1087Q971 1087 1095 949ZM760 193T834 283T909 547Q909 871 684 870Q602
870 544 826T459 702V215Q518 201 548 197T621 193Q760 193 834 283Z" />
<glyph unicode="q" glyph-name="q" horiz-adv-x="1251" d="M911 1094T1124 1026V-469H817V96Q694 -15 530 -14Q313 -14 190 125T66 508Q66 789 223 941T676 1094Q911 1094 1124 1026ZM664 203T723 246T817 365V862Q737 885 666 885Q527 885 450 790T373 518Q373
364 430 284T592 203Q664 203 723 246Z" />
<glyph unicode="r" glyph-name="r" horiz-adv-x="849" d="M527 1090T709 1090Q748 1090 775 1086T846 1069L811 801Q725 832 659 831Q587 831 537 806T453 725V0H145V1073H389L426 924Q527 1090 709 1090Z" />
<glyph unicode="s" glyph-name="s" horiz-adv-x="960" d="M676 1094T879 1024L815 823Q709 858 647 871T535 885Q459 885 415 856T371 778Q371 731 413 705T539 653Q656 620 724 592T846 497T899 315Q899 157 782 69T459 -20Q244 -20 47 66L121 268Q238 225 310
208T440 190Q520 190 561 220T602 305Q602 360 555 386T403 442Q305 471 240 501T127 598T80 772Q80 924 197 1009T524 1094Q676 1094 879 1024Z" />
<glyph unicode="t" glyph-name="t" horiz-adv-x="854" d="M676 -16T549 -16Q195 -16 195 322V858H18V1073H215L274 1380H500V1073H793V858H500V365Q500 283 530 248T635 213Q698 213 770 238L815 41Q676 -16 549 -16Z" />
<glyph unicode="u" glyph-name="u" horiz-adv-x="1286" d="M434 377Q434 285 471 243T590 201Q662 201 726 233T829 324V1073H1137V0H883L848 150Q780 68 688 26T485 -16Q311 -16 219 81T127 360V1073H434V377Z" />
<glyph unicode="v" glyph-name="v" horiz-adv-x="1112" d="M6 1073H309L467 602Q498 506 543 322L559 260Q575 321 582 352Q621 510 649 604L807 1073H1106L737 0H375L6 1073Z" />
<glyph unicode="w" glyph-name="w" horiz-adv-x="1705" d="M897 518T888 565T872 643L854 741Q848 721 825 610Q819 579 793 451L676 0H309L20 1073H317L430 596Q448 522 485 354Q489 331 495 304T508 248Q571 494 598 596L731 1073H975L1106 596Q1124 533 1138
479T1163 383Q1204 229 1198 248Q1223 350 1276 598L1389 1073H1686L1395 0H1028L913 451Q897 518 888 565Z" />
<glyph unicode="x" glyph-name="x" horiz-adv-x="1155" d="M6 0L379 553L35 1073H352L578 721L803 1073H1120L776 553L1149 0L819 -2L578 383L336 -2L6 0Z" />
<glyph unicode="y" glyph-name="y" horiz-adv-x="1107" d="M410 6L4 1073H297L418 743Q463 620 532 356L559 254L590 373Q649 617 694 748L811 1073H1106L518 -469H238L410 6Z" />
<glyph unicode="z" glyph-name="z" horiz-adv-x="968" d="M897 1073V889L399 227H915V0H57V190L555 846H80V1073H897Z" />
<glyph unicode="{" glyph-name="braceleft" horiz-adv-x="704" d="M182 350T136 428T14 530V684Q182 743 182 963V1178Q182 1391 276 1488T582 1585H682V1386H588Q500 1386 460 1345T420 1206V901Q420 733 254 612V592Q338 526 379 457T420 307V-14Q420 -110 459
-153T588 -197H682V-395H578Q365 -395 274 -301T182 12V244Q182 350 136 428Z" />
<glyph unicode="|" glyph-name="bar" horiz-adv-x="532" d="M147 1585H385V-395H147V1585Z" />
<glyph unicode="}" glyph-name="braceright" horiz-adv-x="704" d="M207 -197T247 -154T287 -14V307Q287 389 327 457T451 592V612Q287 733 287 901V1206Q287 1300 247 1343T117 1386H23V1585H123Q334 1585 428 1488T522 1178V963Q522 744 690 684V530Q614 505
568 428T522 244V12Q522 -207 431 -301T129 -395H23V-197H117Q207 -197 247 -154Z" />
<glyph unicode="~" glyph-name="asciitilde" horiz-adv-x="1366" d="M424 754T388 706T352 571H133Q133 749 224 853T469 958Q561 958 615 925T731 825Q776 778 809 756T887 733Q946 733 980 782T1014 915H1233Q1233 739 1141 634T897 528Q811 528 755 563T631
666Q584 713 555 733T489 754Q424 754 388 706Z" />
<glyph unicode="&#xa0;" glyph-name="nbspace" horiz-adv-x="460" />
<glyph unicode="&#xa1;" glyph-name="exclamdown" horiz-adv-x="559" d="M127 801V1071H434V801H127ZM125 -459L162 618H397L434 -459H125Z" />
<glyph unicode="&#xa2;" glyph-name="cent" horiz-adv-x="923" d="M772 192T641 180V-14H477V182Q274 209 166 343T57 700Q57 919 166 1051T477 1212V1462H641V1219Q766 1207 879 1145L813 950Q707 1003 602 1004Q473 1004 405 925T336 700Q336 553 406 475T612
397Q718 397 836 446L885 244Q772 192 641 180Z" />
<glyph unicode="&#xa3;" glyph-name="sterling" horiz-adv-x="1136" d="M559 510T503 395T362 209L1085 223V0H88V180Q174 268 219 383T264 625H72V817H240L223 877Q205 940 196 982T186 1079Q186 1202 247 1293T423 1433T688 1483Q844 1483 953 1421T1102 1245L887
1155Q869 1206 820 1235T698 1264Q598 1264 542 1212T485 1069Q485 1006 518 907L543 817H864V625H563Q559 510 503 395Z" />
<glyph unicode="&#xa4;" glyph-name="currency" horiz-adv-x="1196" d="M999 530T938 430L1167 203L1053 88L821 317Q727 258 596 258Q469 258 373 315L143 88L29 203L256 430Q195 526 195 655Q195 786 258 881L29 1110L143 1225L375 993Q469 1052 596 1053Q725
1053 821 993L1053 1225L1167 1110L936 881Q999 787 999 655Q999 530 938 430ZM674 463T724 517T774 655Q774 739 724 793T596 848Q520 848 470 794T420 655Q420 571 470 517T596 463Q674 463 724 517Z" />
<glyph unicode="&#xa5;" glyph-name="yen" horiz-adv-x="1296" d="M805 584V412H1151V258H805V0H492V258H145V412H492V584H145V737H418L18 1452H356L649 840L942 1452H1278L879 737H1151V584H805Z" />
<glyph unicode="&#xa6;" glyph-name="brokenbar" horiz-adv-x="481" d="M123 1585H358V799H123V1585ZM123 424H358V-395H123V424Z" />
<glyph unicode="&#xa7;" glyph-name="section" horiz-adv-x="847" d="M616 1585T739 1554L709 1372Q623 1392 553 1393Q469 1393 424 1352T379 1235Q379 1182 420 1132T547 1006Q631 930 683 874T773 740T811 569Q811 463 764 375T629 227Q738 100 737 -49Q737
-209 628 -305T336 -401Q242 -401 111 -369L139 -186Q221 -206 297 -207Q381 -207 425 -167T469 -49Q469 8 428 56T301 180Q217 252 165 307T75 440T37 614Q37 718 84 806T219 956Q110 1081 111 1233Q111 1393 220 1489T512 1585Q616 1585 739 1554ZM254 772T254
672Q254 615 280 567T362 463T528 315Q594 405 594 514Q594 569 568 617T486 721T319 868Q254 772 254 672Z" />
<glyph unicode="&#xa8;" glyph-name="dieresis" horiz-adv-x="821" d="M74 1468H324V1227H74V1468ZM498 1468H745V1227H498V1468Z" />
<glyph unicode="&#xa9;" glyph-name="copyright" horiz-adv-x="1206" d="M49 838T123 965T325 1165T604 1239Q756 1239 883 1167T1083 969T1157 692Q1157 540 1083 413T881 210T604 135Q450 135 324 209T123 410T49 688Q49 838 123 965ZM1028 805T971 904T816
1062T604 1120Q489 1120 392 1063T238 908T180 692Q180 573 237 474T392 317T604 258Q721 258 818 315T971 472T1028 688Q1028 805 971 904ZM340 817T413 892T614 967Q673 967 724 944T811 874L737 801Q710 834 682 848T614 862Q546 862 509 817T471 690Q471 606
510 561T625 516Q688 516 764 555L797 459Q762 436 715 424T621 412Q490 412 415 485T340 690Q340 817 413 892Z" />
<glyph unicode="&#xaa;" glyph-name="ordfeminine" horiz-adv-x="735" d="M25 1053T119 1115T383 1178H459V1192Q457 1309 330 1309Q287 1309 225 1295T111 1257L66 1401Q140 1430 218 1446T362 1462Q516 1462 597 1391T678 1184V737H498L475 811Q434 768 381
746T268 723Q155 723 90 780T25 938Q25 1053 119 1115ZM229 1061T229 948Q229 909 252 888T322 866Q361 866 397 883T459 934V1061H395Q229 1061 229 948Z" />
<glyph unicode="&#xab;" glyph-name="guillemetleft" horiz-adv-x="1105" d="M541 182L362 41L4 543L365 1044L543 905L283 543L541 182ZM1073 182L897 41L539 543L899 1044L1075 905L815 543L1073 182Z" />
<glyph unicode="&#xac;" glyph-name="logicalnot" horiz-adv-x="1323" d="M1120 319H907V705H98V911H1120V319Z" />
<glyph unicode="&#xad;" glyph-name="uni00AD" horiz-adv-x="1228" d="M133 766H893V549H133V766Z" />
<glyph unicode="&#xae;" glyph-name="registered" horiz-adv-x="1206" d="M756 1468T883 1396T1083 1198T1157 922Q1157 770 1083 642T881 440T604 365Q450 365 324 438T123 639T49 918Q49 1068 123 1194T325 1394T604 1468Q756 1468 883 1396ZM489 1350T392 1293T238
1137T180 922Q180 803 237 704T392 546T604 487Q721 487 818 544T971 701T1028 918Q1028 1035 971 1134T816 1291T604 1350Q489 1350 392 1293ZM713 1217T765 1172T817 1042Q817 983 791 942T713 883L836 682L745 633L606 866H526V645H422V1217H612Q713 1217 765
1172ZM659 958T684 979T709 1042Q709 1081 684 1102T612 1124H526V958H612Q659 958 684 979Z" />
<glyph unicode="&#xaf;" glyph-name="overscore" horiz-adv-x="825" d="M74 1438H750V1247H74V1438Z" />
<glyph unicode="&#xb0;" glyph-name="degree" horiz-adv-x="833" d="M63 1210T110 1290T238 1417T418 1464Q514 1464 595 1418T722 1291T768 1114Q768 1016 721 935T594 807T418 760Q322 760 240 807T111 936T63 1114Q63 1210 110 1290ZM573 1184T529 1231T420
1278Q354 1278 310 1231T266 1114Q266 1044 311 995T420 946Q483 946 528 995T573 1114Q573 1184 529 1231Z" />
<glyph unicode="&#xb1;" glyph-name="plusminus" horiz-adv-x="1150" d="M469 1235H674V868H1049V678H674V309H469V678H100V868H469V1235ZM100 209H1049V20H100V209Z" />
<glyph unicode="&#xb2;" glyph-name="twosuperior" horiz-adv-x="694" d="M457 1778T546 1699T635 1489Q635 1389 588 1307T418 1118L303 1020Q463 1022 653 1051V862H43L31 1008L178 1139Q301 1237 350 1313T399 1473Q399 1536 359 1571T246 1606Q160 1606 61
1563L29 1722Q174 1777 309 1778Q457 1778 546 1699Z" />
<glyph unicode="&#xb3;" glyph-name="threesuperior" horiz-adv-x="702" d="M164 1008T254 1008Q338 1008 383 1037T428 1120Q428 1241 244 1241H166V1395H233Q315 1395 360 1425T406 1513Q406 1562 369 1587T264 1612Q172 1612 61 1571L29 1726Q166 1773 309
1774Q456 1774 547 1710T639 1534Q639 1452 592 1400T455 1327Q553 1307 606 1251T659 1106Q659 983 561 916T281 848Q218 848 150 858T29 889L55 1040Q164 1008 254 1008Z" />
<glyph unicode="&#xb4;" glyph-name="acute" horiz-adv-x="600" d="M74 1270L393 1599L526 1423L158 1167L74 1270Z" />
<glyph unicode="&#xb6;" glyph-name="paragraph" horiz-adv-x="1105" d="M303 664T207 714T58 854T4 1063Q4 1251 116 1356T430 1462H958V-381H758V1274H631V-381H430V664Q303 664 207 714Z" />
<glyph unicode="&#xb7;" glyph-name="middot" horiz-adv-x="587" d="M137 788H453V483H137V788Z" />
<glyph unicode="&#xb8;" glyph-name="cedilla" horiz-adv-x="534" d="M371 -113T415 -161T459 -262Q459 -348 405 -395T268 -442Q168 -442 74 -387L119 -291Q137 -301 165 -308T219 -315Q252 -315 271 -300T291 -254Q291 -223 264 -203T174 -168L154 -115L240
0H338L307 -92Q371 -113 415 -161Z" />
<glyph unicode="&#xb9;" glyph-name="onesuperior" horiz-adv-x="557" d="M471 1761V862H244V1587L39 1538L6 1659L334 1782L471 1761Z" />
<glyph unicode="&#xba;" glyph-name="ordmasculine" horiz-adv-x="798" d="M33 1272T128 1368T399 1464Q575 1464 670 1368T766 1096Q766 920 671 824T399 727Q223 727 128 823T33 1096Q33 1272 128 1368ZM545 1204T509 1255T399 1307Q325 1307 290 1256T254 1096Q254
883 399 883Q544 883 545 1096Q545 1204 509 1255Z" />
<glyph unicode="&#xbb;" glyph-name="guillemetright" horiz-adv-x="1284" d="M647 543L289 41L115 182L371 543L113 905L289 1044L647 543ZM1182 543L823 41L645 182L903 543L643 905L821 1044L1182 543Z" />
<glyph unicode="&#xbc;" glyph-name="onequarter" horiz-adv-x="1720" d="M217 -2L1102 1532L1262 1442L375 -94L217 -2ZM471 1434V535H244V1260L39 1210L6 1331L334 1454L471 1434ZM1593 186V0H1397V186H954L936 303L1282 911H1593V338H1702L1679 186H1593ZM1157
338H1397V764L1157 338Z" />
<glyph unicode="&#xbd;" glyph-name="onehalf" horiz-adv-x="1615" d="M217 -2L1102 1532L1262 1442L375 -94L217 -2ZM471 1434V535H244V1260L39 1210L6 1331L334 1454L471 1434ZM1378 915T1466 838T1554 627Q1554 527 1507 444T1337 256L1225 158Q1383 160 1573
188V0H963L952 145L1098 276Q1221 374 1270 450T1319 610Q1319 673 1279 708T1165 743Q1079 743 981 700L950 860Q1093 915 1229 915Q1378 915 1466 838Z" />
<glyph unicode="&#xbe;" glyph-name="threequarters" horiz-adv-x="1865" d="M362 -2L1247 1532L1407 1442L520 -94L362 -2ZM164 680T254 680Q338 680 383 709T428 793Q428 914 244 913H166V1067H233Q315 1067 360 1097T406 1186Q406 1235 369 1259T264 1284Q172
1284 61 1243L29 1399Q166 1446 309 1446Q456 1446 547 1382T639 1206Q639 1124 592 1072T455 999Q553 979 606 923T659 778Q659 655 561 588T281 520Q218 520 150 530T29 561L55 713Q164 680 254 680ZM1739 186V0H1542V186H1100L1081 303L1427 911H1739V338H1847L1825
186H1739ZM1305 338H1542V764L1305 338Z" />
<glyph unicode="&#xbf;" glyph-name="questiondown" horiz-adv-x="897" d="M719 795H403V1075H719V795ZM326 -117T384 -162T539 -207Q654 -207 831 -129L915 -342Q823 -393 713 -422T496 -451Q277 -451 146 -346T14 -59Q14 39 41 103T105 206T209 293Q277 340
318 383T389 497T418 680H707Q707 526 672 430T589 283T467 180Q393 127 360 84T326 -37Q326 -117 384 -162Z" />
<glyph unicode="&#xc0;" glyph-name="Agrave" horiz-adv-x="1394" d="M465 1976L784 1647L700 1544L332 1800L465 1976ZM440 373L322 0H14L485 1452H899L1382 0H1079L956 373H440ZM688 1184L510 604H885L702 1184H688Z" />
<glyph unicode="&#xc1;" glyph-name="Aacute" horiz-adv-x="1394" d="M555 1647L874 1976L1008 1800L639 1544L555 1647ZM440 373L322 0H14L485 1452H899L1382 0H1079L956 373H440ZM688 1184L510 604H885L702 1184H688Z" />
<glyph unicode="&#xc2;" glyph-name="Acircumflex" horiz-adv-x="1394" d="M428 1538L344 1640L664 1929H727L1047 1640L963 1538L694 1716L428 1538ZM440 373L322 0H14L485 1452H899L1382 0H1079L956 373H440ZM688 1184L510 604H885L702 1184H688Z" />
<glyph unicode="&#xc3;" glyph-name="Atilde" horiz-adv-x="1394" d="M604 1898T643 1878T723 1821Q758 1790 782 1776T842 1761Q881 1761 903 1792T926 1876H1098Q1098 1745 1028 1665T844 1585Q787 1585 747 1606T657 1667Q624 1696 601 1710T551 1724Q508 1724
483 1694T457 1608H283Q283 1743 352 1820T543 1898Q604 1898 643 1878ZM440 373L322 0H14L485 1452H899L1382 0H1079L956 373H440ZM688 1184L510 604H885L702 1184H688Z" />
<glyph unicode="&#xc4;" glyph-name="Adieresis" horiz-adv-x="1394" d="M358 1845H608V1604H358V1845ZM782 1845H1030V1604H782V1845ZM440 373L322 0H14L485 1452H899L1382 0H1079L956 373H440ZM688 1184L510 604H885L702 1184H688Z" />
<glyph unicode="&#xc5;" glyph-name="Aring" horiz-adv-x="1394" d="M770 2093T834 2056T938 1956T977 1821Q977 1749 938 1686T835 1585T694 1548Q618 1548 553 1585T449 1685T410 1821Q410 1893 448 1956T552 2056T694 2093Q770 2093 834 2056ZM641 1937T607
1904T573 1821Q573 1772 608 1736T694 1700Q743 1700 777 1736T811 1821Q811 1870 778 1903T694 1937Q641 1937 607 1904ZM440 373L322 0H14L485 1452H899L1382 0H1079L956 373H440ZM688 1184L510 604H885L702 1184H688Z" />
<glyph unicode="&#xc6;" glyph-name="AE" horiz-adv-x="2015" d="M1010 377H528L326 0H8L805 1452H1921V1227H1321V860H1866V637H1321V227H1939V0H1010V377ZM1010 598V1274L647 598H1010Z" />
<glyph unicode="&#xc7;" glyph-name="Ccedilla" horiz-adv-x="1259" d="M809 -113T853 -161T897 -262Q897 -348 843 -395T707 -442Q607 -442 512 -387L557 -291Q575 -301 603 -308T657 -315Q690 -315 709 -300T729 -254Q729 -223 702 -203T612 -168L592 -115L670
-10Q383 19 230 208T76 725Q76 956 160 1124T402 1381T782 1470Q897 1470 1011 1441T1217 1358L1124 1141Q1038 1182 966 1200T819 1219Q612 1219 505 1094T397 731Q397 489 504 365T819 240Q979 240 1153 313L1229 84Q1004 -16 778 -16H770L745 -92Q809 -113 853
-161Z" />
<glyph unicode="&#xc8;" glyph-name="Egrave" horiz-adv-x="1202" d="M422 1976L741 1647L657 1544L289 1800L422 1976ZM479 862H1051V635H479V231H1133V0H166V1452H1112V1221H479V862Z" />
<glyph unicode="&#xc9;" glyph-name="Eacute" horiz-adv-x="1202" d="M512 1647L831 1976L965 1800L596 1544L512 1647ZM479 862H1051V635H479V231H1133V0H166V1452H1112V1221H479V862Z" />
<glyph unicode="&#xca;" glyph-name="Ecircumflex" horiz-adv-x="1202" d="M383 1538L299 1640L618 1929H682L1001 1640L918 1538L649 1716L383 1538ZM479 862H1051V635H479V231H1133V0H166V1452H1112V1221H479V862Z" />
<glyph unicode="&#xcb;" glyph-name="Edieresis" horiz-adv-x="1202" d="M313 1845H563V1604H313V1845ZM737 1845H985V1604H737V1845ZM479 862H1051V635H479V231H1133V0H166V1452H1112V1221H479V862Z" />
<glyph unicode="&#xcc;" glyph-name="Igrave" horiz-adv-x="643" d="M94 1976L414 1647L330 1544L-39 1800L94 1976ZM166 1452H479V0H166V1452Z" />
<glyph unicode="&#xcd;" glyph-name="Iacute" horiz-adv-x="643" d="M184 1647L504 1976L637 1800L268 1544L184 1647ZM166 1452H479V0H166V1452Z" />
<glyph unicode="&#xce;" glyph-name="Icircumflex" horiz-adv-x="643" d="M57 1538L-27 1640L293 1929H356L676 1640L592 1538L324 1716L57 1538ZM166 1452H479V0H166V1452Z" />
<glyph unicode="&#xcf;" glyph-name="Idieresis" horiz-adv-x="643" d="M-12 1845H238V1604H-12V1845ZM412 1845H659V1604H412V1845ZM166 1452H479V0H166V1452Z" />
<glyph unicode="&#xd0;" glyph-name="Eth" horiz-adv-x="1482" d="M1028 1452T1219 1271T1411 733Q1411 373 1219 187T657 0H168V618H12V829H168V1452H657Q1028 1452 1219 1271ZM887 231T988 356T1090 729Q1090 1221 690 1221H479V829H737V618H479V231H690Q887
231 988 356Z" />
<glyph unicode="&#xd1;" glyph-name="Ntilde" horiz-adv-x="1540" d="M592 1724T567 1694T541 1608H367Q367 1743 436 1820T627 1898Q688 1898 727 1878T807 1821Q842 1790 866 1776T926 1761Q965 1761 987 1792T1010 1876H1182Q1182 1745 1112 1665T928 1585Q871
1585 831 1606T741 1667Q708 1696 685 1710T635 1724Q592 1724 567 1694ZM676 643Q604 745 451 1006V0H166V1452H414L856 821Q940 702 1090 453V1452H1376V0H1126L676 643Z" />
<glyph unicode="&#xd2;" glyph-name="Ograve" horiz-adv-x="1542" d="M541 1976L860 1647L776 1544L408 1800L541 1976ZM1110 1473T1289 1282T1468 733Q1468 368 1290 175T772 -18Q430 -18 253 174T76 733Q76 1089 255 1281T772 1473Q1110 1473 1289 1282ZM586
1227T493 1102T399 733Q399 485 493 356T772 227Q956 227 1050 356T1145 733Q1145 975 1051 1101T772 1227Q586 1227 493 1102Z" />
<glyph unicode="&#xd3;" glyph-name="Oacute" horiz-adv-x="1542" d="M631 1647L950 1976L1083 1800L715 1544L631 1647ZM1110 1473T1289 1282T1468 733Q1468 368 1290 175T772 -18Q430 -18 253 174T76 733Q76 1089 255 1281T772 1473Q1110 1473 1289 1282ZM586
1227T493 1102T399 733Q399 485 493 356T772 227Q956 227 1050 356T1145 733Q1145 975 1051 1101T772 1227Q586 1227 493 1102Z" />
<glyph unicode="&#xd4;" glyph-name="Ocircumflex" horiz-adv-x="1542" d="M502 1538L418 1640L737 1929H801L1120 1640L1036 1538L768 1716L502 1538ZM1110 1473T1289 1282T1468 733Q1468 368 1290 175T772 -18Q430 -18 253 174T76 733Q76 1089 255 1281T772
1473Q1110 1473 1289 1282ZM586 1227T493 1102T399 733Q399 485 493 356T772 227Q956 227 1050 356T1145 733Q1145 975 1051 1101T772 1227Q586 1227 493 1102Z" />
<glyph unicode="&#xd5;" glyph-name="Otilde" horiz-adv-x="1542" d="M678 1898T717 1878T797 1821Q832 1790 856 1776T915 1761Q954 1761 976 1792T999 1876H1171Q1171 1745 1102 1665T918 1585Q861 1585 821 1606T731 1667Q698 1696 675 1710T625 1724Q582 1724
556 1694T530 1608H356Q356 1743 426 1820T616 1898Q678 1898 717 1878ZM1110 1473T1289 1282T1468 733Q1468 368 1290 175T772 -18Q430 -18 253 174T76 733Q76 1089 255 1281T772 1473Q1110 1473 1289 1282ZM586 1227T493 1102T399 733Q399 485 493 356T772 227Q956
227 1050 356T1145 733Q1145 975 1051 1101T772 1227Q586 1227 493 1102Z" />
<glyph unicode="&#xd6;" glyph-name="Odieresis" horiz-adv-x="1542" d="M432 1845H682V1604H432V1845ZM856 1845H1104V1604H856V1845ZM1110 1473T1289 1282T1468 733Q1468 368 1290 175T772 -18Q430 -18 253 174T76 733Q76 1089 255 1281T772 1473Q1110 1473
1289 1282ZM586 1227T493 1102T399 733Q399 485 493 356T772 227Q956 227 1050 356T1145 733Q1145 975 1051 1101T772 1227Q586 1227 493 1102Z" />
<glyph unicode="&#xd7;" glyph-name="multiply" horiz-adv-x="1134" d="M567 754L897 1083L1051 930L721 600L1051 272L897 119L567 446L240 119L86 272L414 600L86 930L240 1083L567 754Z" />
<glyph unicode="&#xd8;" glyph-name="Oslash" horiz-adv-x="1536" d="M1313 1288T1388 1126T1464 731Q1464 369 1287 176T770 -18Q635 -18 514 14L471 -76H293L367 80Q224 168 149 333T74 731Q74 1087 253 1278T770 1470Q913 1470 1020 1438L1063 1528H1239L1165
1374Q1313 1288 1388 1126ZM396 473T496 346L907 1204Q844 1227 768 1227Q584 1227 490 1101T395 731Q396 473 496 346ZM952 227T1046 356T1141 731Q1141 983 1038 1110L627 250Q690 227 768 227Q952 227 1046 356Z" />
<glyph unicode="&#xd9;" glyph-name="Ugrave" horiz-adv-x="1482" d="M512 1976L831 1647L748 1544L379 1800L512 1976ZM1348 244T1192 112T741 -20Q442 -20 289 111T135 496V1452H449V492Q449 228 741 227Q1034 227 1034 492V1452H1348V496Q1348 244 1192 112Z" />
<glyph unicode="&#xda;" glyph-name="Uacute" horiz-adv-x="1482" d="M602 1647L922 1976L1055 1800L686 1544L602 1647ZM1348 244T1192 112T741 -20Q442 -20 289 111T135 496V1452H449V492Q449 228 741 227Q1034 227 1034 492V1452H1348V496Q1348 244 1192 112Z" />
<glyph unicode="&#xdb;" glyph-name="Ucircumflex" horiz-adv-x="1482" d="M475 1538L391 1640L711 1929H774L1094 1640L1010 1538L741 1716L475 1538ZM1348 244T1192 112T741 -20Q442 -20 289 111T135 496V1452H449V492Q449 228 741 227Q1034 227 1034 492V1452H1348V496Q1348
244 1192 112Z" />
<glyph unicode="&#xdc;" glyph-name="Udieresis" horiz-adv-x="1482" d="M403 1845H653V1604H403V1845ZM827 1845H1075V1604H827V1845ZM1348 244T1192 112T741 -20Q442 -20 289 111T135 496V1452H449V492Q449 228 741 227Q1034 227 1034 492V1452H1348V496Q1348
244 1192 112Z" />
<glyph unicode="&#xdd;" glyph-name="Yacute" horiz-adv-x="1273" d="M496 1647L815 1976L948 1800L580 1544L496 1647ZM539 1040T577 937T629 799H645Q657 834 696 937T760 1094L938 1452H1274L793 563V0H479V563L0 1452H338L514 1094Q539 1040 577 937Z" />
<glyph unicode="&#xde;" glyph-name="Thorn" horiz-adv-x="1251" d="M934 1174T1074 1057T1214 717Q1214 500 1072 378T674 256H479V0H168V1452H479V1174H668Q934 1174 1074 1057ZM782 487T843 543T905 715Q905 834 845 889T655 944H479V487H655Q782 487 843 543Z" />
<glyph unicode="&#xdf;" glyph-name="germandbls" horiz-adv-x="1259" d="M152 1303T279 1402T635 1501Q838 1501 961 1409T1085 1163Q1085 1083 1054 1031T963 922Q920 879 901 851T881 788Q881 755 908 732T993 678Q1063 639 1108 605T1187 510T1221 356Q1221
184 1108 92T786 0H565V213H727Q920 213 920 369Q920 432 885 464T774 532Q686 573 639 621T592 766Q592 829 617 871T692 965Q737 1012 760 1051T784 1143Q784 1278 627 1278Q541 1278 496 1236T451 1116V0H152V1120Q152 1303 279 1402Z" />
<glyph unicode="&#xe0;" glyph-name="agrave" horiz-adv-x="1138" d="M338 1599L657 1270L573 1167L205 1423L338 1599ZM780 1094T901 982T1022 657V0H768L733 127Q667 57 585 21T408 -16Q242 -16 145 70T47 301Q47 469 188 563T584 657H715V684Q709 870 504 870Q434
870 342 850T176 797L111 1004Q217 1047 334 1070T553 1094Q780 1094 901 982ZM479 489T407 444T334 319Q334 253 374 219T487 184Q553 184 613 213T715 291V489H610Q479 489 407 444Z" />
<glyph unicode="&#xe1;" glyph-name="aacute" horiz-adv-x="1138" d="M428 1270L748 1599L881 1423L512 1167L428 1270ZM780 1094T901 982T1022 657V0H768L733 127Q667 57 585 21T408 -16Q242 -16 145 70T47 301Q47 469 188 563T584 657H715V684Q709 870 504 870Q434
870 342 850T176 797L111 1004Q217 1047 334 1070T553 1094Q780 1094 901 982ZM479 489T407 444T334 319Q334 253 374 219T487 184Q553 184 613 213T715 291V489H610Q479 489 407 444Z" />
<glyph unicode="&#xe2;" glyph-name="acircumflex" horiz-adv-x="1138" d="M301 1161L217 1264L537 1552H600L920 1264L836 1161L567 1339L301 1161ZM780 1094T901 982T1022 657V0H768L733 127Q667 57 585 21T408 -16Q242 -16 145 70T47 301Q47 469 188 563T584
657H715V684Q709 870 504 870Q434 870 342 850T176 797L111 1004Q217 1047 334 1070T553 1094Q780 1094 901 982ZM479 489T407 444T334 319Q334 253 374 219T487 184Q553 184 613 213T715 291V489H610Q479 489 407 444Z" />
<glyph unicode="&#xe3;" glyph-name="atilde" horiz-adv-x="1138" d="M477 1522T516 1502T596 1444Q631 1413 655 1399T715 1384Q754 1384 776 1415T799 1499H971Q971 1368 901 1288T717 1208Q660 1208 620 1229T530 1290Q497 1319 474 1333T424 1348Q381 1348
356 1317T330 1231H156Q156 1366 225 1444T416 1522Q477 1522 516 1502ZM780 1094T901 982T1022 657V0H768L733 127Q667 57 585 21T408 -16Q242 -16 145 70T47 301Q47 469 188 563T584 657H715V684Q709 870 504 870Q434 870 342 850T176 797L111 1004Q217 1047
334 1070T553 1094Q780 1094 901 982ZM479 489T407 444T334 319Q334 253 374 219T487 184Q553 184 613 213T715 291V489H610Q479 489 407 444Z" />
<glyph unicode="&#xe4;" glyph-name="adieresis" horiz-adv-x="1138" d="M231 1468H481V1227H231V1468ZM655 1468H903V1227H655V1468ZM780 1094T901 982T1022 657V0H768L733 127Q667 57 585 21T408 -16Q242 -16 145 70T47 301Q47 469 188 563T584 657H715V684Q709
870 504 870Q434 870 342 850T176 797L111 1004Q217 1047 334 1070T553 1094Q780 1094 901 982ZM479 489T407 444T334 319Q334 253 374 219T487 184Q553 184 613 213T715 291V489H610Q479 489 407 444Z" />
<glyph unicode="&#xe5;" glyph-name="aring" horiz-adv-x="1138" d="M645 1716T709 1679T813 1579T852 1444Q852 1372 813 1309T710 1208T569 1171Q493 1171 428 1208T324 1308T285 1444Q285 1516 323 1579T428 1679T569 1716Q645 1716 709 1679ZM516 1561T483
1527T449 1444Q449 1395 483 1359T569 1323Q618 1323 652 1359T686 1444Q686 1493 654 1527T569 1561Q516 1561 483 1527ZM780 1094T901 982T1022 657V0H768L733 127Q667 57 585 21T408 -16Q242 -16 145 70T47 301Q47 469 188 563T584 657H715V684Q709 870 504
870Q434 870 342 850T176 797L111 1004Q217 1047 334 1070T553 1094Q780 1094 901 982ZM479 489T407 444T334 319Q334 253 374 219T487 184Q553 184 613 213T715 291V489H610Q479 489 407 444Z" />
<glyph unicode="&#xe6;" glyph-name="ae" horiz-adv-x="1787" d="M1024 205T1284 205Q1425 205 1595 274L1669 92Q1460 -19 1249 -18Q1007 -18 872 135Q778 63 660 22T410 -20Q244 -20 148 66T51 297Q51 467 190 562T584 657H715V684Q709 870 504 870Q432 870
340 850T176 797L111 997Q217 1040 334 1063T555 1087Q780 1087 887 956Q1020 1089 1247 1090Q1722 1090 1722 549V479H1001Q1024 205 1284 205ZM1429 879T1245 879Q1044 879 1008 655H1444Q1429 879 1245 879ZM473 483T404 440T334 315Q334 247 374 213T489 178Q552
178 614 205T715 279V483H602Q473 483 404 440Z" />
<glyph unicode="&#xe7;" glyph-name="ccedilla" horiz-adv-x="976" d="M649 -113T693 -161T737 -262Q737 -348 683 -395T547 -442Q447 -442 352 -387L397 -291Q415 -301 443 -308T498 -315Q531 -315 550 -300T569 -254Q569 -223 542 -203T453 -168L432 -115L510
-10Q295 19 181 159T66 539Q66 801 211 945T621 1090Q785 1090 932 1014L864 811Q755 868 653 868Q520 868 448 782T375 539Q375 383 449 298T664 213Q779 213 889 262L938 53Q864 20 778 2T614 -16H610L586 -92Q649 -113 693 -161Z" />
<glyph unicode="&#xe8;" glyph-name="egrave" horiz-adv-x="1150" d="M688 1270L604 1167L236 1423L369 1599L688 1270ZM389 205T647 205Q727 205 808 223T987 283L1061 92Q817 -21 610 -20Q356 -20 211 128T66 539Q66 801 208 947T606 1094Q1087 1094 1087 549V479H365Q389
205 647 205ZM792 881T608 881Q506 881 448 826T371 657H805Q792 881 608 881Z" />
<glyph unicode="&#xe9;" glyph-name="eacute" horiz-adv-x="1150" d="M913 1423L545 1167L461 1270L780 1599L913 1423ZM389 205T647 205Q727 205 808 223T987 283L1061 92Q817 -21 610 -20Q356 -20 211 128T66 539Q66 801 208 947T606 1094Q1087 1094 1087 549V479H365Q389
205 647 205ZM792 881T608 881Q506 881 448 826T371 657H805Q792 881 608 881Z" />
<glyph unicode="&#xea;" glyph-name="ecircumflex" horiz-adv-x="1150" d="M631 1552L950 1264L866 1161L598 1339L332 1161L248 1264L567 1552H631ZM389 205T647 205Q727 205 808 223T987 283L1061 92Q817 -21 610 -20Q356 -20 211 128T66 539Q66 801 208 947T606
1094Q1087 1094 1087 549V479H365Q389 205 647 205ZM792 881T608 881Q506 881 448 826T371 657H805Q792 881 608 881Z" />
<glyph unicode="&#xeb;" glyph-name="edieresis" horiz-adv-x="1150" d="M512 1468V1227H262V1468H512ZM934 1468V1227H686V1468H934ZM389 205T647 205Q727 205 808 223T987 283L1061 92Q817 -21 610 -20Q356 -20 211 128T66 539Q66 801 208 947T606 1094Q1087
1094 1087 549V479H365Q389 205 647 205ZM792 881T608 881Q506 881 448 826T371 657H805Q792 881 608 881Z" />
<glyph unicode="&#xec;" glyph-name="igrave" horiz-adv-x="604" d="M76 1599L395 1270L311 1167L-57 1423L76 1599ZM150 1059H455V0H150V1059Z" />
<glyph unicode="&#xed;" glyph-name="iacute" horiz-adv-x="604" d="M166 1270L485 1599L618 1423L250 1167L166 1270ZM150 1059H455V0H150V1059Z" />
<glyph unicode="&#xee;" glyph-name="icircumflex" horiz-adv-x="604" d="M37 1161L-47 1264L272 1552H336L655 1264L571 1161L303 1339L37 1161ZM150 1059H455V0H150V1059Z" />
<glyph unicode="&#xef;" glyph-name="idieresis" horiz-adv-x="604" d="M-33 1468H217V1227H-33V1468ZM391 1468H639V1227H391V1468ZM150 1059H455V0H150V1059Z" />
<glyph unicode="&#xf0;" glyph-name="eth" horiz-adv-x="1214" d="M913 1255T1023 1063T1133 614Q1133 313 992 148T598 -18Q344 -18 202 123T59 514Q59 745 185 878T532 1012Q671 1012 786 936Q723 1098 569 1200L461 1063L348 1151L442 1270Q338 1315 221 1348L285
1554Q447 1515 586 1450L672 1559L782 1473L713 1382Q913 1255 1023 1063ZM717 211T777 311T838 623Q838 658 834 723Q736 809 596 809Q477 809 416 734T354 516Q354 369 416 290T594 211Q717 211 777 311Z" />
<glyph unicode="&#xf1;" glyph-name="ntilde" horiz-adv-x="1280" d="M573 1522T612 1502T692 1444Q727 1413 751 1399T811 1384Q850 1384 872 1415T895 1499H1067Q1067 1368 998 1288T813 1208Q756 1208 716 1229T627 1290Q594 1319 571 1333T520 1348Q477 1348
452 1317T426 1231H252Q252 1366 321 1444T512 1522Q573 1522 612 1502ZM576 1090T807 1090Q975 1090 1066 992T1157 713V0H850V696Q850 790 813 832T694 874Q620 874 556 841T453 750V0H145V1073H401L434 924Q576 1090 807 1090Z" />
<glyph unicode="&#xf2;" glyph-name="ograve" horiz-adv-x="1224" d="M383 1599L702 1270L618 1167L250 1423L383 1599ZM877 1098T1018 954T1159 539Q1159 269 1018 123T612 -23Q350 -23 208 122T66 539Q66 809 207 953T612 1098Q877 1098 1018 954ZM375 869T375
539Q375 209 612 209Q850 209 850 539Q850 869 612 868Q375 869 375 539Z" />
<glyph unicode="&#xf3;" glyph-name="oacute" horiz-adv-x="1224" d="M473 1270L793 1599L926 1423L557 1167L473 1270ZM877 1098T1018 954T1159 539Q1159 269 1018 123T612 -23Q350 -23 208 122T66 539Q66 809 207 953T612 1098Q877 1098 1018 954ZM375 869T375
539Q375 209 612 209Q850 209 850 539Q850 869 612 868Q375 869 375 539Z" />
<glyph unicode="&#xf4;" glyph-name="ocircumflex" horiz-adv-x="1224" d="M346 1161L262 1264L582 1552H645L965 1264L881 1161L612 1339L346 1161ZM877 1098T1018 954T1159 539Q1159 269 1018 123T612 -23Q350 -23 208 122T66 539Q66 809 207 953T612 1098Q877
1098 1018 954ZM375 869T375 539Q375 209 612 209Q850 209 850 539Q850 869 612 868Q375 869 375 539Z" />
<glyph unicode="&#xf5;" glyph-name="otilde" horiz-adv-x="1224" d="M522 1522T561 1502T641 1444Q676 1413 700 1399T760 1384Q799 1384 821 1415T844 1499H1016Q1016 1368 947 1288T762 1208Q705 1208 665 1229T575 1290Q542 1319 519 1333T469 1348Q426 1348
401 1317T375 1231H201Q201 1366 270 1444T461 1522Q522 1522 561 1502ZM877 1098T1018 954T1159 539Q1159 269 1018 123T612 -23Q350 -23 208 122T66 539Q66 809 207 953T612 1098Q877 1098 1018 954ZM375 869T375 539Q375 209 612 209Q850 209 850 539Q850 869
612 868Q375 869 375 539Z" />
<glyph unicode="&#xf6;" glyph-name="odieresis" horiz-adv-x="1224" d="M274 1468H524V1227H274V1468ZM698 1468H946V1227H698V1468ZM877 1098T1018 954T1159 539Q1159 269 1018 123T612 -23Q350 -23 208 122T66 539Q66 809 207 953T612 1098Q877 1098 1018 954ZM375
869T375 539Q375 209 612 209Q850 209 850 539Q850 869 612 868Q375 869 375 539Z" />
<glyph unicode="&#xf7;" glyph-name="divide" horiz-adv-x="1171" d="M451 887V1112H676V887H451ZM66 520V725H1077V520H66ZM451 143V369H676V143H451Z" />
<glyph unicode="&#xf8;" glyph-name="oslash" horiz-adv-x="1222" d="M1157 834T1157 539Q1157 273 1015 128T610 -18Q487 -18 387 16L322 -90H129L244 94Q66 237 66 539Q66 803 207 946T610 1090Q737 1090 838 1055L903 1161H1098L983 977Q1157 834 1157 539ZM374
422T401 350L711 850Q668 868 610 868Q491 868 433 788T375 539Q374 422 401 350ZM729 209T788 290T848 539Q848 650 823 719L516 225Q559 209 610 209Q729 209 788 290Z" />
<glyph unicode="&#xf9;" glyph-name="ugrave" horiz-adv-x="1286" d="M406 1599L725 1270L641 1167L272 1423L406 1599ZM434 377Q434 285 471 243T590 201Q662 201 726 233T829 324V1073H1137V0H883L848 150Q780 68 688 26T485 -16Q311 -16 219 81T127 360V1073H434V377Z" />
<glyph unicode="&#xfa;" glyph-name="uacute" horiz-adv-x="1286" d="M496 1270L815 1599L948 1423L580 1167L496 1270ZM434 377Q434 285 471 243T590 201Q662 201 726 233T829 324V1073H1137V0H883L848 150Q780 68 688 26T485 -16Q311 -16 219 81T127 360V1073H434V377Z" />
<glyph unicode="&#xfb;" glyph-name="ucircumflex" horiz-adv-x="1286" d="M367 1161L283 1264L602 1552H666L985 1264L901 1161L633 1339L367 1161ZM434 377Q434 285 471 243T590 201Q662 201 726 233T829 324V1073H1137V0H883L848 150Q780 68 688 26T485 -16Q311
-16 219 81T127 360V1073H434V377Z" />
<glyph unicode="&#xfc;" glyph-name="udieresis" horiz-adv-x="1286" d="M297 1468H547V1227H297V1468ZM721 1468H969V1227H721V1468ZM434 377Q434 285 471 243T590 201Q662 201 726 233T829 324V1073H1137V0H883L848 150Q780 68 688 26T485 -16Q311 -16 219 81T127
360V1073H434V377Z" />
<glyph unicode="&#xfd;" glyph-name="yacute" horiz-adv-x="1107" d="M889 1423L520 1167L436 1270L756 1599L889 1423ZM410 6L4 1073H297L418 743Q463 620 532 356L559 254L590 373Q649 617 694 748L811 1073H1106L518 -469H238L410 6Z" />
<glyph unicode="&#xfe;" glyph-name="thorn" horiz-adv-x="1284" d="M971 1087T1095 949T1219 557Q1219 379 1148 250T947 53T639 -16Q555 -16 459 6V-469H152V1540H459V971Q520 1032 591 1059T748 1087Q971 1087 1095 949ZM760 193T834 283T909 547Q909 871 684
870Q602 870 544 826T459 702V215Q518 201 548 197T621 193Q760 193 834 283Z" />
<glyph unicode="&#xff;" glyph-name="ydieresis" horiz-adv-x="1107" d="M487 1468V1227H238V1468H487ZM909 1468V1227H662V1468H909ZM410 6L4 1073H297L418 743Q463 620 532 356L559 254L590 373Q649 617 694 748L811 1073H1106L518 -469H238L410 6Z" />
<glyph unicode="&#x2013;" glyph-name="endash" horiz-adv-x="1290" d="M133 766H1157V549H133V766Z" />
<glyph unicode="&#x2014;" glyph-name="emdash" horiz-adv-x="1802" d="M133 766H1669V549H133V766Z" />
<glyph unicode="&#x2018;" glyph-name="quoteleft" horiz-adv-x="569" d="M449 1200V911H96V1151L242 1493H440L338 1200H449Z" />
<glyph unicode="&#x2019;" glyph-name="quoteright" horiz-adv-x="569" d="M455 1253L307 911H109L213 1204H100V1493H455V1253Z" />
<glyph unicode="&#x201a;" glyph-name="quotesinglbase" horiz-adv-x="507" d="M131 309H377L356 -270H152L131 309Z" />
<glyph unicode="&#x201c;" glyph-name="quotedblleft" horiz-adv-x="1017" d="M449 1200V911H96V1151L242 1493H440L338 1200H449ZM897 1200V911H545V1151L688 1493H889L784 1200H897Z" />
<glyph unicode="&#x201d;" glyph-name="quotedblright" horiz-adv-x="1017" d="M455 1253L309 911H109L213 1204H100V1493H455V1253ZM903 1253L756 911H557L662 1204H549V1493H903V1253Z" />
<glyph unicode="&#x201e;" glyph-name="quotedblbase" horiz-adv-x="1017" d="M455 37L309 -305H109L213 -12H100V276H455V37ZM903 37L756 -305H557L662 -12H549V276H903V37Z" />
<glyph unicode="&#x2022;" glyph-name="bullet" horiz-adv-x="808" d="M68 768T113 846T234 969T403 1014Q495 1014 573 969T696 846T741 676Q741 584 696 506T574 383T403 338Q311 338 235 383T113 506T68 676Q68 768 113 846Z" />
<glyph unicode="&#x2039;" glyph-name="guilsinglleft" horiz-adv-x="753" d="M627 182L451 41L92 543L453 1044L631 905L369 543L627 182Z" />
<glyph unicode="&#x203a;" glyph-name="guilsinglright" horiz-adv-x="753" d="M651 543L293 41L115 182L373 543L113 905L291 1044L651 543Z" />
</font>
</defs>
</svg>
