<?xml version="1.0" standalone="no"?>
<!DOCTYPE svg PUBLIC "-//W3C//DTD SVG 1.1//EN" "http://www.w3.org/Graphics/SVG/1.1/DTD/svg11.dtd">
<svg xmlns="http://www.w3.org/2000/svg">
<defs >
<font id="NTR" horiz-adv-x="392" ><font-face
    font-family="NTR"
    units-per-em="1024"
    panose-1="0 0 0 0 0 0 0 0 0 0"
    ascent="1294"
    descent="-877"
    alphabetic="0" />
<glyph unicode=" " glyph-name="space" horiz-adv-x="231" />
<glyph unicode="!" glyph-name="exclam" horiz-adv-x="229" d="M141 158T115 158T88 182L73 452V534Q73 552 85 564T115 576Q133 576 145 564T158 534V452L142 182Q141 158 115 158ZM67 66T81 80T116 94T150 80T165 46T151 12T116 -3T82 11T67 46Z" />
<glyph unicode="&quot;" glyph-name="quotedbl" horiz-adv-x="336" d="M58 474T55 493T51 530T49 567T61 599T91 612Q107 612 120 600T133 568T132 530T128 494T121 456T114 426Q110 403 91 403Q81 403 75 409T67 426T62 455ZM212 474T209 493T205 530T204 567T217
599T246 612Q262 612 274 600Q287 588 287 568T286 530T282 494T276 456T270 426Q265 403 246 403Q236 403 230 409T222 426T216 455Z" />
<glyph unicode="#" glyph-name="numbersign" horiz-adv-x="500" d="M118 -4T110 4T102 19T122 149H58Q47 149 39 157T30 178Q30 189 38 197T58 206H130L150 331H87Q76 331 67 339T58 360Q58 371 66 379T87 388H159L179 518Q181 527 189 534T209 541T229 533T237
518T237 509T235 494T229 457L217 388H321L342 518Q344 527 351 534T371 541T391 533T399 518T399 509T397 494T390 457L379 388H442Q453 388 462 380T471 360Q471 349 463 340T442 331H370L350 206H414Q425 206 433 198T442 178Q442 167 434 158T414 149H342L321
20Q319 11 312 4T293 -4Q282 -4 273 4T264 19T283 149H179L159 20Q157 11 150 4T130 -4Q118 -4 110 4ZM312 331H208L189 206H293L312 331Z" />
<glyph unicode="$" glyph-name="dollar" horiz-adv-x="500" d="M274 317Q308 309 342 298T405 270Q467 229 466 151Q466 85 414 41Q361 -3 274 -8V-72Q274 -80 269 -85T254 -90Q236 -90 237 -72V-8Q144 -4 62 31Q39 41 39 59T47 87T68 97T97 90Q155 64 237 62V249Q146
273 112 295T61 344T44 408T56 474T94 526Q147 574 237 579V643Q237 651 241 656T254 662Q262 662 268 657T274 643V580Q356 577 419 553Q442 545 442 520Q442 508 434 497T415 486T387 493Q337 511 274 512V317ZM118 418Q118 364 190 339Q212 332 237 326V510Q185
505 152 482T118 418ZM274 62Q358 68 383 115Q392 133 392 153T383 187T357 210Q333 224 274 240V62Z" />
<glyph unicode="%" glyph-name="percent" horiz-adv-x="666" d="M167 586Q230 586 266 543Q300 503 300 439T266 335Q231 293 167 293Q105 293 69 335Q35 373 35 439Q35 540 110 574Q134 586 167 586ZM167 346Q204 346 223 373T242 439Q242 478 223 505T167 533Q130
533 112 506T93 439Q93 400 111 373T167 346ZM500 278Q563 278 598 236Q632 196 632 132T598 28Q563 -14 500 -14Q438 -14 402 28Q368 66 368 132Q368 233 442 267Q467 278 500 278ZM500 38Q537 38 555 65T574 132Q574 171 556 198T500 226Q463 226 444 199T425
132Q425 93 444 66T500 38ZM513 579T520 573T528 556T522 537L192 6Q183 -8 170 -8T149 -1T140 16T144 33L478 566Q486 579 499 579Z" />
<glyph unicode="&amp;" glyph-name="ampersand" horiz-adv-x="599" d="M427 56Q353 -8 259 -8Q158 -8 104 46Q58 92 58 161Q58 217 92 263Q118 298 150 318Q128 344 115 371T101 432T111 492T142 538Q184 580 254 580Q309 580 363 544Q377 536 377 522T370 499T352
490T330 498Q295 517 266 517T220 510T192 492Q170 470 170 446T174 408T189 380Q203 358 251 314L422 152Q436 174 445 192T462 217T484 223T506 214T516 193Q516 167 473 106L527 54Q540 43 540 29T532 4T508 -6T482 3L427 56ZM196 272Q151 243 134 197Q128 179
128 157T138 116T165 83Q199 54 246 54T323 68T378 101L196 272Z" />
<glyph unicode="&apos;" glyph-name="quotesingle" horiz-adv-x="194" d="M130 609T143 596T157 562V514Q157 471 134 438Q119 413 90 395Q86 391 76 391T59 398T52 417T64 436Q82 446 94 462T106 512H102Q83 512 70 525T57 558V562Q57 581 70 595T102 609H110Q130
609 143 596Z" />
<glyph unicode="(" glyph-name="parenleft" horiz-adv-x="255" d="M212 -76Q217 -85 217 -96T208 -117T186 -126T169 -122T158 -111Q99 -41 71 53T42 251Q42 354 70 449T158 614Q164 620 169 624T186 629T207 620T217 599T212 579Q116 418 116 251Q116 85 212 -76Z" />
<glyph unicode=")" glyph-name="parenright" horiz-adv-x="255" d="M59 -126T49 -117T39 -97T44 -76Q140 85 140 251Q140 418 44 579Q39 587 39 599T49 620T70 629T88 625T99 614Q158 544 186 449T214 251Q214 148 186 54T99 -111Q93 -117 88 -121T71 -126Z" />
<glyph unicode="*" glyph-name="asterisk" horiz-adv-x="341" d="M194 445L275 413Q286 407 286 397Q286 375 269 369Q258 365 248 372Q246 374 226 390T182 425Q187 394 190 377L194 350Q195 342 195 341T195 334T187 321T170 314Q161 314 154 321T146 334V341Q146
345 150 369T159 425Q90 370 86 368T72 369Q54 375 54 391T66 413Q67 413 68 413T77 417T101 427T147 445L66 477Q55 484 54 494Q54 516 72 522Q81 525 90 519Q91 519 112 502T159 465Q146 547 146 549V551Q146 561 154 568T170 575Q179 575 187 569T195 556T195
549T194 539L190 513Q188 495 182 465Q251 520 250 519Q259 525 269 522Q287 516 287 500T275 477Q274 477 273 476T263 472T240 463T194 445Z" />
<glyph unicode="+" glyph-name="plus" horiz-adv-x="460" d="M410 314T419 306T428 282Q428 268 419 260T396 251H262V117Q262 103 253 94T230 85Q216 85 207 94T198 117V251H64Q50 251 42 260T33 282Q33 296 41 305T64 314H198V449Q198 463 207 472T230 481Q244
481 253 472T262 449V314H396Q410 314 419 306Z" />
<glyph unicode="," glyph-name="comma" horiz-adv-x="212" d="M130 94T143 81T157 48V0Q157 -43 134 -77Q119 -102 90 -120Q86 -124 76 -124T59 -117T52 -98T64 -78Q82 -68 94 -52T106 -2H102Q83 -2 70 11T57 43V48Q57 67 70 80T102 94H110Q130 94 143 81Z" />
<glyph unicode="-" glyph-name="hyphen" horiz-adv-x="333" d="M258 263T268 253T278 230Q278 216 268 207T244 197H90Q76 197 67 206T57 230Q57 244 66 253T90 263H244Q258 263 268 253Z" />
<glyph unicode="." glyph-name="period" horiz-adv-x="212" d="M130 94T143 81T157 48V43Q157 24 144 11T110 -2H102Q83 -2 70 11T57 43V48Q57 67 70 80T102 94H110Q130 94 143 81Z" />
<glyph unicode="/" glyph-name="slash" horiz-adv-x="362" d="M259 603Q266 626 292 626Q306 626 315 616T325 598Q325 585 322 580L105 -55Q98 -78 73 -78Q59 -78 49 -68T39 -49Q39 -37 42 -32L259 603Z" />
<glyph unicode="0" glyph-name="zero" horiz-adv-x="514" d="M258 580Q313 580 354 559T423 498Q479 421 479 286Q479 150 423 73Q364 -8 257 -8T91 73Q35 150 35 286Q35 421 91 498Q150 580 258 580ZM258 61Q330 61 367 122Q405 182 405 286T367 450Q329 511
257 511T147 450T110 286Q110 181 147 122Q186 61 258 61Z" />
<glyph unicode="1" glyph-name="one" horiz-adv-x="514" d="M413 70T423 60T434 34Q434 20 424 10T398 0H145Q131 0 121 10T110 34Q110 48 120 59T145 70H242V485L159 444Q155 442 151 441T136 439T115 448T105 478T126 508L238 566Q249 572 261 572H278Q294 572
305 561T317 533V70H398Q413 70 423 60Z" />
<glyph unicode="2" glyph-name="two" horiz-adv-x="514" d="M428 70T438 60T448 34Q448 20 438 10T413 0H97Q78 0 66 12T54 42Q54 85 78 120T138 184T217 240T296 292T357 346T381 402T374 448T352 480Q319 510 251 510Q178 510 111 480Q103 476 93 476T74 485T65
511T82 538Q165 580 265 580Q345 580 398 534Q453 488 453 414T378 270Q345 240 307 215T232 165T167 117T128 70H413Q428 70 438 60Z" />
<glyph unicode="3" glyph-name="three" horiz-adv-x="514" d="M433 433Q433 334 334 296Q412 277 441 214Q453 188 453 149T437 81T391 32Q333 -8 241 -8Q151 -8 70 25Q48 35 48 56Q48 69 57 79T77 90T105 83Q155 62 227 63Q329 63 366 110Q379 128 378 154Q378
257 198 258H184Q170 258 160 268T150 292Q150 306 160 316T184 326H190Q359 326 358 425Q358 463 327 486T229 510Q162 510 102 483Q96 480 85 480T66 488T57 513T73 538Q150 580 240 580T381 542T433 433Z" />
<glyph unicode="4" glyph-name="four" horiz-adv-x="514" d="M454 210Q468 210 478 201T488 177Q488 163 479 154T454 144H392V33Q392 18 381 7T354 -4Q339 -4 329 7T318 33V144H68Q48 144 35 157T21 191V198Q21 216 30 228L287 556Q301 576 329 576H345Q367 576
379 562T392 528V210H454ZM318 210V491L100 210H318Z" />
<glyph unicode="5" glyph-name="five" horiz-adv-x="514" d="M138 329Q200 363 277 362Q368 362 419 310Q467 260 468 177Q468 47 344 6Q302 -8 244 -8Q144 -8 69 39Q53 49 53 65T61 93T82 104T111 95Q168 65 234 66Q351 66 382 126Q393 148 394 181Q394 231 360
261T275 291Q199 291 140 255Q122 245 106 245T74 258T58 294Q58 305 59 313L96 531Q98 550 110 561T139 572H402Q416 572 427 562T438 537Q438 523 428 513T402 502H165L138 329Z" />
<glyph unicode="6" glyph-name="six" horiz-adv-x="514" d="M228 364Q254 370 292 370T364 357T422 318Q475 264 475 178Q475 99 421 46Q365 -8 273 -8Q179 -8 125 42Q60 104 50 225Q48 258 48 295T60 385T99 480T172 551T278 580T372 569T431 545Q449 535 449
519T439 492T418 482T394 488Q350 508 294 508T206 486T154 431Q124 377 120 298Q156 346 228 364ZM208 74Q235 62 269 62T326 71T366 97Q400 131 400 182T371 268T278 302Q214 302 172 270Q142 248 124 212Q138 106 208 74Z" />
<glyph unicode="7" glyph-name="seven" horiz-adv-x="514" d="M438 572T451 560T465 529T456 492L224 16Q213 -5 193 -5T162 6T151 29T157 53L382 501H84Q70 501 60 511T49 536Q49 550 59 561T84 572H418Q438 572 451 560Z" />
<glyph unicode="8" glyph-name="eight" horiz-adv-x="514" d="M449 430Q449 405 442 386T420 350Q395 321 354 306Q409 287 442 251T476 151Q476 86 428 44Q369 -9 258 -8Q147 -8 87 44Q39 86 39 150T72 250T161 306Q95 329 74 385Q66 406 66 430T75 480T108 530Q160
580 258 580Q356 580 406 530Q449 488 449 430ZM258 58Q332 58 370 95Q401 124 401 155T390 208T357 242Q318 270 258 270T158 242Q114 212 113 160Q113 124 144 95Q184 58 258 58ZM258 338Q319 338 349 368Q375 393 375 427T346 488T258 514Q198 514 169 488T140
427T168 365T258 338Z" />
<glyph unicode="9" glyph-name="nine" horiz-adv-x="514" d="M286 208Q260 202 223 202T151 215T92 254Q39 308 39 394Q39 474 94 526Q152 580 242 580Q336 580 390 530Q455 468 464 347Q466 314 466 276T454 186T415 91T342 20T237 -8T143 3T83 27Q65 37 65 53T75
80T95 90T122 83Q168 63 221 63T308 86T361 141Q391 195 395 274Q358 226 286 208ZM306 498Q279 510 245 510T188 501T148 475Q114 441 114 390T144 304T236 270Q300 270 342 302Q372 324 390 360Q376 466 306 498Z" />
<glyph unicode=":" glyph-name="colon" horiz-adv-x="212" d="M110 94Q129 94 143 81T157 48V43Q157 24 144 11T110 -2H102Q83 -2 70 11T57 43V48Q57 67 70 80T102 94H110ZM110 420Q129 420 143 407T157 374V370Q157 351 144 337T110 323H102Q83 323 70 336T57
370V374Q57 393 70 406T102 420H110Z" />
<glyph unicode=";" glyph-name="semicolon" horiz-adv-x="212" d="M110 94Q129 94 143 81T157 48V0Q157 -43 134 -77Q119 -102 90 -120Q86 -124 76 -124T59 -117T52 -98T64 -78Q82 -68 94 -52T106 -2H102Q83 -2 70 11T57 43V48Q57 67 70 80T102 94H110ZM110 420Q129
420 143 407T157 374V370Q157 351 144 337T110 323H102Q83 323 70 336T57 370V374Q57 393 70 406T102 420H110Z" />
<glyph unicode="&lt;" glyph-name="less" horiz-adv-x="474" d="M431 66T422 57T401 47T385 50L58 197Q28 211 29 239V246Q29 275 58 288L385 435Q391 437 401 437T421 428T431 406Q431 382 409 374L114 242L409 111Q419 107 425 99T431 78Z" />
<glyph unicode="=" glyph-name="equal" horiz-adv-x="583" d="M92 331Q78 331 69 340T60 363Q60 377 69 386T92 395H491Q505 395 514 386T523 363Q523 349 515 340T491 331H92ZM491 211Q505 211 514 203T523 179Q523 165 515 156T491 147H92Q78 147 69 156T60
179Q60 193 69 202T92 211H491Z" />
<glyph unicode="&gt;" glyph-name="greater" horiz-adv-x="474" d="M90 50Q84 48 74 48T54 56T44 78Q44 102 66 111L362 242L66 374Q56 378 50 386T44 406T53 428T73 438T90 435L417 288Q447 274 446 246V239Q446 210 417 197L90 50Z" />
<glyph unicode="?" glyph-name="question" horiz-adv-x="406" d="M297 421Q297 511 179 510Q115 510 74 483Q64 477 52 477T31 486T22 508Q22 529 42 541Q106 580 186 580Q270 580 319 538Q369 496 370 425Q370 351 294 295Q249 261 229 230Q218 211 218 191T206
161T181 152T156 161T145 184Q145 265 221 325Q270 364 283 382T297 421ZM131 66T145 80T180 94T214 80T229 46T215 12T180 -3T146 11T131 46Z" />
<glyph unicode="@" glyph-name="at" horiz-adv-x="735" d="M375 420Q436 420 480 378L482 392Q484 403 493 410T513 418T533 410T542 394V384Q542 382 542 378L514 223Q508 189 508 169T518 132T550 116Q602 116 628 161T655 272T632 384T570 459Q494 520 387
520Q325 520 270 496T173 429T107 332T82 224T98 127T146 50Q216 -26 328 -26Q382 -26 411 -18Q449 -8 476 3T510 14T522 9T528 -8T517 -25Q430 -68 328 -68Q262 -68 209 -45T118 17T60 108T40 222T68 348T143 459T253 535T383 564T507 543T607 485T674 395T699
280Q699 198 665 142Q623 77 547 78Q485 78 464 116Q458 127 455 138Q405 76 320 77Q254 77 216 118Q181 157 181 213T197 306T242 369Q297 420 375 420ZM471 325Q436 363 378 362Q322 362 285 328Q244 290 244 230Q244 182 272 156Q297 134 338 134Q408 134 440
192Q452 214 458 248L471 325Z" />
<glyph unicode="A" glyph-name="A" horiz-adv-x="570" d="M546 49Q550 39 550 29T541 7T510 -4T478 19L425 146H146L94 19Q84 -4 63 -4T32 7T22 28T26 49L234 542Q248 576 282 576H290Q323 576 338 542L546 49ZM397 214L286 481L175 214H397Z" />
<glyph unicode="B" glyph-name="B" horiz-adv-x="567" d="M493 423Q493 334 413 298Q491 272 516 211Q525 188 525 157T514 96T477 44Q424 0 314 0H116Q101 0 90 11T79 37V534Q79 549 90 560T116 572H310Q400 572 446 531T493 423ZM422 418Q422 456 392 479T304
502H154V325H290Q396 325 416 381Q422 398 422 418ZM307 70Q423 70 446 126Q453 144 453 164Q453 213 416 235T308 258H154V70H307Z" />
<glyph unicode="C" glyph-name="C" horiz-adv-x="571" d="M490 102Q496 105 508 105T529 96T538 74Q538 52 519 42Q481 20 438 6T333 -8T219 12T128 70Q46 150 46 286Q46 421 128 502Q207 580 333 580Q394 580 437 565T504 538T532 518T538 498T529 477T509 467T490
470Q457 488 423 498T337 509T245 492T175 444Q120 384 121 286Q121 188 175 128Q235 63 340 63Q388 63 422 73T490 102Z" />
<glyph unicode="D" glyph-name="D" horiz-adv-x="614" d="M281 572Q418 572 499 480Q535 440 552 389T570 286Q570 234 553 183T499 92Q418 0 281 0H116Q101 0 90 11T79 37V534Q79 549 90 560T116 572H281ZM272 70Q374 70 436 130Q497 190 497 286T436 442Q374
502 272 502H154V70H272Z" />
<glyph unicode="E" glyph-name="E" horiz-adv-x="522" d="M459 70T469 60T480 34Q480 20 470 10T445 0H116Q101 0 90 11T79 37V534Q79 549 90 560T116 572H445Q459 572 469 562T480 537Q480 523 470 513T445 502H154V321H415Q429 321 439 311T450 286Q450 272
440 262T415 251H154V70H445Q459 70 469 60Z" />
<glyph unicode="F" glyph-name="F" horiz-adv-x="499" d="M154 502V321H406Q420 321 431 311T442 286Q442 272 432 262T406 251H154V33Q154 18 143 7T116 -4Q101 -4 90 7T79 33V534Q79 549 90 560T116 572H435Q449 572 459 562T470 537Q470 523 460 513T435 502H154Z" />
<glyph unicode="G" glyph-name="G" horiz-adv-x="608" d="M342 62Q419 62 486 98V246H350Q336 246 327 256T317 280Q317 294 327 304T350 314H512Q528 314 539 303T551 274V89Q551 71 543 58T520 38Q428 -8 333 -8Q204 -8 125 74T45 285Q45 415 128 500Q207 580
330 580Q400 580 448 563T534 521Q550 512 550 495T542 468T520 458T499 462Q420 508 338 508Q243 508 182 450Q119 389 120 285Q120 188 178 126Q239 62 342 62Z" />
<glyph unicode="H" glyph-name="H" horiz-adv-x="618" d="M502 576Q517 576 528 565T539 538V33Q539 18 528 7T502 -4Q487 -4 476 7T465 33V250H154V33Q154 18 143 7T116 -4Q101 -4 90 7T79 33V538Q79 553 90 564T116 576Q131 576 142 565T154 538V320H465V538Q465
553 476 564T502 576Z" />
<glyph unicode="I" glyph-name="I" horiz-adv-x="232" d="M116 576Q131 576 142 565T154 538V33Q154 18 143 7T116 -4Q101 -4 90 7T79 33V538Q79 553 90 564T116 576Z" />
<glyph unicode="J" glyph-name="J" horiz-adv-x="381" d="M268 576Q283 576 294 565T306 538V189Q306 82 252 31Q210 -8 137 -8Q77 -8 28 20Q10 30 10 46T18 73T38 83T61 78Q92 63 121 63T168 66T200 84Q231 114 231 183V538Q231 553 242 564T268 576Z" />
<glyph unicode="K" glyph-name="K" horiz-adv-x="548" d="M515 56Q524 45 524 31T514 6T487 -4T458 10L247 280L154 186V33Q154 18 143 7T116 -4Q101 -4 90 7T79 33V538Q79 553 90 564T116 576Q131 576 142 565T154 538V278L434 562Q444 575 460 575T487 567T497
542T487 518L298 330L515 56Z" />
<glyph unicode="L" glyph-name="L" horiz-adv-x="471" d="M438 74T448 64T459 37Q459 22 449 11T422 0H131Q109 0 94 15T79 52V538Q79 553 90 564T116 576Q131 576 142 565T154 538V74H422Q438 74 448 64Z" />
<glyph unicode="M" glyph-name="M" horiz-adv-x="791" d="M681 576T696 560T712 522V33Q712 18 701 7T675 -4Q660 -4 649 7T638 33V498L448 30Q442 15 428 6T396 -4Q378 -4 364 5T343 30L154 498V33Q154 18 143 7T116 -4Q101 -4 90 7T79 33V522Q79 544 94 560T133
576H160Q176 576 189 566T210 542L396 78L582 542Q588 556 601 566T632 576H658Q681 576 696 560Z" />
<glyph unicode="N" glyph-name="N" horiz-adv-x="657" d="M541 576Q556 576 567 565T578 538V49Q578 27 562 12T524 -4H514Q487 -4 471 18L154 476V33Q154 18 143 7T116 -4Q101 -4 90 7T79 33V522Q79 544 94 560T133 576H143Q169 576 189 551L504 96V538Q504 553
515 564T541 576Z" />
<glyph unicode="O" glyph-name="O" horiz-adv-x="664" d="M203 580T333 580T541 498Q617 417 620 286Q617 156 541 74Q463 -8 333 -8T125 74T45 286Q47 416 125 498ZM333 62Q433 62 490 126Q546 188 546 286Q546 384 490 446Q432 511 333 510Q233 510 175 446Q119
384 120 286Q120 188 175 126Q233 62 333 62Z" />
<glyph unicode="P" glyph-name="P" horiz-adv-x="548" d="M303 572Q417 572 474 513Q521 466 522 390Q522 315 474 267Q416 208 303 208H154V33Q154 18 143 7T116 -4Q101 -4 90 7T79 33V534Q79 549 90 560T116 572H303ZM296 278Q380 278 418 314Q448 342 447 390Q447
466 371 491Q341 501 296 502H154V278H296Z" />
<glyph unicode="Q" glyph-name="Q" horiz-adv-x="664" d="M382 -5Q359 -8 333 -8Q203 -8 125 74T45 286Q47 416 125 498T333 580T541 498Q617 417 620 286Q618 189 574 118T450 14L522 -66Q532 -76 532 -90T523 -114T497 -125T471 -111L382 -5ZM333 62Q433 62
490 126Q546 188 546 286Q546 384 490 446Q432 511 333 510Q233 510 175 446Q119 384 120 286Q120 188 175 126Q233 62 333 62Z" />
<glyph unicode="R" glyph-name="R" horiz-adv-x="583" d="M525 33Q525 18 515 7T488 -4T461 6T450 33V58Q450 124 436 155T396 204T323 223H154V33Q154 18 143 7T116 -4Q101 -4 90 7T79 33V534Q79 549 90 560T116 572H307Q419 572 477 524Q531 479 530 406Q530
359 504 318T422 258Q481 243 508 172Q526 126 525 70V33ZM302 294Q371 294 413 320T455 400Q455 449 422 474Q383 502 298 502H154V294H302Z" />
<glyph unicode="S" glyph-name="S" horiz-adv-x="504" d="M252 62Q395 62 396 157Q396 196 341 219Q317 229 286 237T222 254T158 274T102 304Q48 345 47 412Q47 484 102 530Q161 580 260 580Q350 580 422 553Q445 545 446 520Q446 508 438 497T419 486T390 492Q336
511 268 511Q205 511 164 487Q122 462 122 418Q122 372 176 347Q201 336 232 329T296 313T359 294T415 265Q469 226 470 151Q470 81 413 37Q355 -8 260 -8Q156 -8 65 31Q56 35 49 44T42 66T51 88T71 99T100 91T158 73T252 62Z" />
<glyph unicode="T" glyph-name="T" horiz-adv-x="500" d="M469 572T479 562T489 537Q489 523 479 513T454 502H287V33Q287 18 277 7T250 -4Q235 -4 224 7T213 33V502H46Q32 502 22 512T11 537Q11 551 21 561T46 572H454Q469 572 479 562Z" />
<glyph unicode="U" glyph-name="U" horiz-adv-x="620" d="M508 576Q523 576 534 565T546 538V214Q546 107 469 46Q403 -8 310 -8Q216 -8 151 46Q75 108 75 214V538Q75 553 86 564T112 576Q127 576 138 565T150 538V212Q150 139 200 98Q246 60 310 60Q375 60 421
98Q471 140 471 212V538Q471 553 482 564T508 576Z" />
<glyph unicode="V" glyph-name="V" horiz-adv-x="568" d="M284 70L477 550Q487 576 508 576T539 565T549 542T546 524L344 34Q326 -4 294 -4H275Q241 -4 225 34L22 524Q20 530 20 542T29 565T54 576Q81 576 92 550L284 70Z" />
<glyph unicode="W" glyph-name="W" horiz-adv-x="824" d="M413 576Q427 576 439 567T455 545L594 94L731 546Q740 576 769 576Q785 576 795 567T805 546T802 526L642 33Q629 -4 593 -4Q577 -4 564 6T545 33L413 450L281 33Q276 17 263 7T233 -4Q198 -4 184 33L24
526Q22 535 22 546T31 566T56 576Q86 576 94 546L232 94L370 545Q374 559 386 567T413 576Z" />
<glyph unicode="X" glyph-name="X" horiz-adv-x="548" d="M506 54Q513 45 513 32T503 7T480 -4Q458 -4 446 11L271 232L98 10Q86 -4 71 -4T46 6T35 29T42 54L232 286L44 517Q37 527 37 541T47 565T75 576T103 561L276 342L449 562Q458 575 474 575T501 566T512
543T506 520L316 286L506 54Z" />
<glyph unicode="Y" glyph-name="Y" horiz-adv-x="528" d="M436 557Q448 576 466 576T495 565T505 540T498 516L302 242V33Q302 18 291 7T265 -4Q250 -4 239 7T227 33V242L31 516Q25 526 25 540T34 565T62 576T94 557L265 308L436 557Z" />
<glyph unicode="Z" glyph-name="Z" horiz-adv-x="522" d="M466 70T476 60T486 34Q486 20 476 10T450 0H86Q66 0 52 14T38 47T48 78L390 501H75Q61 501 51 511T40 536Q40 550 50 561T75 572H431Q455 572 468 557T481 523T468 488L130 70H450Q466 70 476 60Z" />
<glyph unicode="[" glyph-name="bracketleft" horiz-adv-x="263" d="M224 -50T232 -58T241 -78Q241 -89 233 -98T211 -108H107Q93 -108 82 -98T71 -72V564Q71 578 82 589T107 600H211Q223 600 232 591T241 570Q241 558 233 550T211 541H136V-50H211Q224 -50 232 -58Z" />
<glyph unicode="\" glyph-name="backslash" horiz-adv-x="362" d="M38 606T48 616T70 626Q96 626 104 603L321 -32Q323 -37 323 -47T314 -68T292 -78Q266 -78 258 -55L41 580Q39 585 39 595Z" />
<glyph unicode="]" glyph-name="bracketright" horiz-adv-x="263" d="M128 -50V541H53Q41 541 32 549T23 570Q23 582 31 591T53 600H157Q171 600 182 589T193 564V-72Q193 -86 182 -97T157 -108H53Q41 -108 32 -99T23 -78Q23 -67 31 -59T53 -50H128Z" />
<glyph unicode="^" glyph-name="asciicircum" horiz-adv-x="428" d="M230 575Q246 575 254 567T270 547L355 384Q357 380 359 377T361 366T353 349T331 340Q315 340 306 353Q304 356 295 371T267 417T214 505Q180 449 161 418T133 372T122 354Q114 340 99 340T75
349T67 366T68 377T72 384L158 547Q164 558 173 566T198 575H230Z" />
<glyph unicode="_" glyph-name="underscore" horiz-adv-x="542" d="M485 -66T493 -74T501 -94Q501 -105 493 -113T474 -121H70Q59 -121 51 -113T42 -94Q42 -83 50 -75T70 -66H474Q485 -66 493 -74Z" />
<glyph unicode="`" glyph-name="graveaccent" horiz-adv-x="200" d="M57 561Q57 591 90 591Q106 591 114 576L156 502Q162 496 162 487T156 471T139 465T122 474L65 541Q57 550 57 561Z" />
<glyph unicode="a" glyph-name="a" horiz-adv-x="454" d="M80 397Q149 427 223 426Q306 426 352 375Q393 331 394 265V33Q394 18 383 7T355 -4Q340 -4 329 7T318 33V54Q296 31 259 12T165 -8T70 25Q31 59 31 114Q31 175 77 210Q127 248 219 247H318V254Q318 309
292 332T209 355Q162 355 100 336Q94 334 86 334T68 342T59 369T80 397ZM106 123Q106 57 193 58Q231 58 264 76T318 118V187H230Q172 187 139 173T106 123Z" />
<glyph unicode="b" glyph-name="b" horiz-adv-x="516" d="M139 364Q200 426 279 426T415 370Q477 308 478 209Q478 109 415 47Q357 -9 279 -9T139 54V33Q139 18 129 7T102 -4T76 7T65 33V565Q65 581 75 591T102 602T128 592T139 565V364ZM139 123Q195 61 269 62Q363
62 394 145Q404 173 403 209Q403 279 366 319Q330 356 269 356Q195 356 139 295V123Z" />
<glyph unicode="c" glyph-name="c" horiz-adv-x="438" d="M263 62Q309 62 350 84Q364 92 376 92T397 82T406 57T387 30Q329 -8 257 -8Q166 -8 103 49Q37 110 38 209Q38 308 103 369Q165 427 257 426Q306 426 337 414T387 389T406 361T397 336T379 326Q365 326
350 334Q308 357 263 356Q191 356 152 316T112 209Q112 143 151 103T263 62Z" />
<glyph unicode="d" glyph-name="d" horiz-adv-x="516" d="M378 54Q317 -8 238 -8Q160 -8 102 47Q40 109 39 209Q39 307 102 370Q159 427 238 427T378 364V565Q378 581 388 591T415 602T441 592T452 565V33Q452 18 442 7T415 -4T389 7T378 33V54ZM378 295Q322 357
248 356Q154 356 125 273Q115 245 114 209Q114 139 152 98Q187 61 248 62Q322 62 378 123V295Z" />
<glyph unicode="e" glyph-name="e" horiz-adv-x="466" d="M122 127T157 95T255 62T362 82Q376 89 387 89T407 81T417 61Q417 39 400 30T368 14T338 2Q301 -8 252 -8Q151 -8 96 48T40 209Q40 299 87 359Q140 426 236 426Q328 426 381 364Q431 306 431 219Q431 204
421 193T394 182H115Q122 127 157 95ZM236 363Q163 363 130 298Q118 275 115 243H357Q354 301 314 335Q282 363 236 363Z" />
<glyph unicode="f" glyph-name="f" horiz-adv-x="311" d="M278 530L238 535Q207 535 189 521T170 463V418H273Q287 418 296 409T305 386Q305 372 296 363T273 354H170V33Q170 18 160 7T133 -4T107 7T96 33V354H47Q33 354 24 363T15 386Q15 400 24 409T47 418H96V466Q96
537 136 575Q169 606 218 606Q256 606 290 590Q309 580 309 565T300 540T278 530Z" />
<glyph unicode="g" glyph-name="g" horiz-adv-x="516" d="M378 364V384Q378 399 388 410T414 422Q429 422 440 411T452 384V18Q452 -86 402 -141T260 -197Q162 -197 84 -154Q70 -145 70 -129T79 -103T99 -92T117 -95Q179 -126 252 -126Q378 -126 378 7V62Q320
0 238 0Q160 0 104 53Q39 113 39 213Q39 314 104 374Q160 427 240 427T378 364ZM378 298Q355 322 326 340T260 358T199 349T154 322Q114 284 114 213Q114 107 198 77Q224 68 260 68Q320 68 378 129V298Z" />
<glyph unicode="h" glyph-name="h" horiz-adv-x="498" d="M274 357Q202 357 139 278V33Q139 18 128 7T102 -4Q87 -4 76 7T65 33V565Q65 581 75 591T102 602Q117 602 128 592T139 565V350Q172 384 196 399Q242 426 284 426T354 414T400 378Q438 333 438 266V33Q438
18 427 7T401 -4Q386 -4 375 7T364 33V258Q364 304 343 330T274 357Z" />
<glyph unicode="i" glyph-name="i" horiz-adv-x="210" d="M68 401T79 411T106 422T132 412T142 384V33Q142 18 132 7T106 -4T79 7T68 33V384Q68 401 79 411ZM150 545Q150 527 138 515T108 503H103Q85 503 74 515T62 545V548Q62 566 74 578T103 590H108Q126 590
138 578T150 548V545Z" />
<glyph unicode="j" glyph-name="j" horiz-adv-x="210" d="M-6 -129L18 -131Q44 -131 52 -125Q68 -115 68 -82V383Q68 399 79 410T106 421T132 411T142 383V-84Q142 -163 85 -189Q64 -197 35 -197Q5 -197 -16 -190T-38 -160Q-38 -148 -29 -139T-6 -129ZM150 545Q150
527 138 515T108 503H103Q85 503 74 515T62 545V548Q62 566 74 578T103 590H108Q126 590 138 578T150 548V545Z" />
<glyph unicode="k" glyph-name="k" horiz-adv-x="447" d="M411 54Q419 44 419 30T409 6T385 -4Q365 -4 351 11L210 203L139 138V33Q139 18 128 7T102 -4Q87 -4 76 7T65 33V565Q65 580 75 591T102 602Q117 602 128 591T139 565V230L334 410Q347 420 363 420T387
409T395 388Q395 370 381 356L263 250L411 54Z" />
<glyph unicode="l" glyph-name="l" horiz-adv-x="216" d="M71 581T82 591T109 602T135 592T146 565V33Q146 18 136 7T109 -4T82 7T71 33V565Q71 581 82 591Z" />
<glyph unicode="m" glyph-name="m" horiz-adv-x="752" d="M139 350Q189 425 278 426Q322 426 359 400Q389 379 404 342Q427 378 449 392Q495 426 554 426Q620 426 658 375Q691 332 691 269V33Q691 18 681 7T654 -4Q639 -4 628 7T617 33V254Q617 306 599 331T534
357Q462 357 415 278V33Q415 18 405 7T378 -4Q363 -4 352 7T341 33V254Q341 306 323 331T258 357Q186 357 139 278V33Q139 18 128 7T102 -4Q87 -4 76 7T65 33V384Q65 399 75 410T102 422Q117 422 128 411T139 384V350Z" />
<glyph unicode="n" glyph-name="n" horiz-adv-x="498" d="M274 357Q202 357 139 278V33Q139 18 128 7T102 -4Q87 -4 76 7T65 33V384Q65 400 75 411T102 422Q117 422 128 412T139 384V350Q172 384 196 399Q242 426 284 426T354 414T400 378Q438 333 438 266V33Q438
18 427 7T401 -4Q386 -4 375 7T364 33V258Q364 304 343 330T274 357Z" />
<glyph unicode="o" glyph-name="o" horiz-adv-x="497" d="M249 426Q344 426 402 366Q460 305 458 209Q458 112 402 52Q344 -8 249 -8Q153 -8 97 52Q39 112 39 209Q39 307 97 366Q153 426 249 426ZM177 76T201 68T249 60T296 68T340 94Q384 134 384 210Q384 284
340 325Q303 359 249 358Q160 358 126 278Q114 249 114 209T126 140T157 94Z" />
<glyph unicode="p" glyph-name="p" horiz-adv-x="516" d="M139 364Q200 426 279 426T415 370Q477 308 478 209Q478 109 415 47Q357 -9 279 -9T139 54V-155Q139 -171 129 -182T102 -193T76 -182T65 -155V385Q65 400 75 411T102 422T128 412T139 385V364ZM139 123Q195
61 269 62Q363 62 394 145Q404 173 403 209Q403 279 366 319Q330 356 269 356Q195 356 139 295V123Z" />
<glyph unicode="q" glyph-name="q" horiz-adv-x="516" d="M378 54Q317 -8 238 -8Q160 -8 102 47Q40 109 39 209Q39 307 102 370Q159 427 238 427T378 364V385Q378 400 388 411T415 422T441 412T452 385V-155Q452 -171 442 -182T415 -193T389 -182T378 -155V54ZM378
295Q322 357 248 356Q154 356 125 273Q115 245 114 209Q114 139 152 98Q187 61 248 62Q322 62 378 123V295Z" />
<glyph unicode="r" glyph-name="r" horiz-adv-x="316" d="M139 349Q197 426 268 426H272Q287 426 297 416T308 389T297 364T270 354H266Q225 354 193 334T139 282V33Q139 18 128 7T102 -4Q87 -4 76 7T65 33V384Q65 399 75 410T102 422Q117 422 128 411T139 384V349Z" />
<glyph unicode="s" glyph-name="s" d="M198 61Q289 61 288 118Q288 136 270 146T225 163T166 178T106 200T60 236T42 292T52 348T82 389Q125 426 202 426Q264 426 321 406Q332 402 338 393T345 373T336 352T317 342T295 346Q256 358 209 358T138 342T114 303T132
269T177 250T237 235T297 214Q361 181 361 113Q361 60 321 28Q279 -8 202 -8Q120 -8 54 29Q40 39 40 53T48 78T68 89T94 82Q141 61 198 61Z" />
<glyph unicode="t" glyph-name="t" horiz-adv-x="314" d="M239 58T248 61T269 65T289 57T298 32T282 8Q247 -8 222 -8T177 -6T137 8Q92 34 92 100V354H34Q19 354 18 370Q18 377 26 383L137 492Q144 499 151 499T162 495T166 483V418H259Q273 418 282 409T291 386Q291
372 282 363T259 354H166V106Q166 75 185 64Q195 58 217 58Z" />
<glyph unicode="u" glyph-name="u" horiz-adv-x="499" d="M226 61Q298 61 361 139V385Q361 400 371 411T398 422Q413 422 424 412T435 385V34Q435 18 425 7T398 -4Q383 -4 372 7T361 34V67Q328 33 304 19Q258 -8 216 -8T146 5T100 39Q62 84 62 152V385Q62 400
72 411T99 422Q114 422 125 412T136 385V161Q136 115 157 88T226 61Z" />
<glyph unicode="v" glyph-name="v" horiz-adv-x="433" d="M342 401Q352 423 378 422Q391 422 402 411T413 390Q413 377 409 367L266 26Q260 14 249 5T221 -4H213Q198 -4 186 5T168 26L26 367Q22 377 22 388T32 411T56 422Q82 422 92 401L217 82L342 401Z" />
<glyph unicode="w" glyph-name="w" horiz-adv-x="642" d="M553 400Q559 422 588 422Q602 422 612 412T623 390T621 371L505 30Q500 16 487 6T457 -4Q441 -4 428 6T409 31L322 302L235 31Q229 17 216 7T186 -4Q170 -4 157 6T139 30L23 371Q21 378 21 389T31 411T56
422Q85 422 91 400L186 84L282 392Q286 405 297 413T322 422Q336 422 347 414T362 392L457 84L553 400Z" />
<glyph unicode="x" glyph-name="x" horiz-adv-x="444" d="M394 58Q403 48 403 34T393 8T365 -4T336 10L219 150L110 12Q98 -4 80 -4T52 6T42 31T50 57L178 206L50 362Q41 373 41 387T52 412T80 422T108 408L223 266L337 408Q347 422 364 422T392 412T403 388T395
364L266 211L394 58Z" />
<glyph unicode="y" glyph-name="y" horiz-adv-x="436" d="M396 422T406 411T417 388T414 370L191 -167Q181 -193 157 -193Q143 -193 133 -182T122 -161T124 -143L177 -6L23 369Q20 377 20 388T30 411T54 422Q81 422 91 399L217 86L346 398Q356 423 380 422Q396
422 406 411Z" />
<glyph unicode="z" glyph-name="z" horiz-adv-x="408" d="M374 34Q374 20 364 10T339 0H83Q61 0 47 11T32 42T45 77L281 348H74Q60 348 50 358T39 382Q39 396 49 407T74 418H322Q344 418 357 405T370 372T358 338L129 70H339Q353 70 363 59T374 34Z" />
<glyph unicode="{" glyph-name="leftcurly" horiz-adv-x="281" d="M96 251Q170 224 170 155V-27Q170 -42 175 -48Q186 -61 218 -62H230Q241 -62 250 -70T259 -90Q259 -101 251 -109T230 -118H220Q165 -118 138 -100Q105 -76 106 -21V152Q106 178 97 190Q79 211
30 218Q2 223 2 251Q2 279 30 284T73 296T95 311Q105 324 106 350V523Q106 603 175 618Q196 622 220 622H230Q241 622 250 614T259 593Q259 582 251 574T230 565H218Q174 565 170 541Q169 535 170 530V348Q170 278 96 251Z" />
<glyph unicode="|" glyph-name="bar" horiz-adv-x="207" d="M103 607Q117 607 127 597T137 574V-128Q137 -142 127 -151T103 -161Q89 -161 80 -152T70 -128V574Q70 588 79 597T103 607Z" />
<glyph unicode="}" glyph-name="rightcurly" horiz-adv-x="281" d="M186 251Q112 278 112 348V530Q112 545 106 551Q95 564 64 565H52Q41 565 32 573T23 593Q23 604 31 613T52 622H62Q117 622 143 603Q176 579 176 523V350Q176 324 185 314Q203 293 251 284Q279
279 279 251Q279 223 252 219T210 207T186 192Q176 179 176 152V-21Q176 -101 106 -114Q85 -118 62 -118H52Q41 -118 32 -110T23 -90Q23 -79 31 -71T52 -62H64Q108 -62 111 -38Q112 -32 112 -27V155Q112 224 186 251Z" />
<glyph unicode="~" glyph-name="asciitilde" horiz-adv-x="522" d="M411 258T414 267T424 288T442 300Q465 300 466 281Q466 278 465 274Q455 220 427 195T363 169T301 179T250 200T204 221T158 231Q116 231 102 186Q98 171 86 171T67 177T61 197T69 231T92 266Q125
301 161 301T225 291T276 270T323 248T363 238T391 242T405 252Z" />
<glyph unicode="&#xa0;" glyph-name="nbsp" horiz-adv-x="231" />
<glyph unicode="&#xa9;" glyph-name="copyright" horiz-adv-x="670" d="M336 -7Q275 -7 222 15T128 78T65 172T42 286Q42 347 65 400T128 493T221 556T336 579Q397 579 450 557T543 494T606 400T630 286Q630 225 607 172T544 78T451 16T336 -7ZM336 537Q283 537
238 518T158 463Q84 389 84 286Q84 183 158 109T335 35Q440 35 513 108T587 286Q587 389 514 463T336 537ZM479 206Q459 166 425 143T348 120T277 131T226 166Q183 211 182 286Q182 361 226 406T341 452Q390 452 424 429T479 366Q481 361 481 353T475 337T458 330T443
333T427 353T395 386T344 402T295 393T264 367Q238 335 238 286Q238 237 264 205Q291 170 341 170Q399 170 430 225Q440 243 453 243T474 235T482 220T479 206Z" />
<glyph unicode="&#xae;" glyph-name="registered" horiz-adv-x="670" d="M336 580Q397 580 450 557T543 494T606 400T630 286Q630 225 607 172T544 78T451 15T336 -8Q275 -8 222 15T128 78T65 172T42 286Q42 347 65 400T128 494T221 557T336 580ZM336 34Q388 34
433 54T514 108Q588 182 587 286Q587 389 514 463T335 538Q232 538 158 464T84 286Q84 181 158 108T336 34ZM416 449T447 421T478 356T460 300T417 271Q437 265 455 241T474 169V146Q474 135 466 127T446 118Q435 118 427 126T418 146V162Q418 197 411 212Q397
245 358 245H269V146Q269 135 261 127T241 118Q230 118 222 126T214 146V411Q214 426 224 437T250 449H349Q416 449 447 421ZM346 294Q380 294 401 307T423 347T407 387T345 402H269V294H346Z" />
<glyph unicode="&#xbc;" glyph-name="onequarter" horiz-adv-x="769" d="M686 127Q696 127 703 120T710 102Q710 92 703 85T686 78H656V22Q656 11 649 4T630 -4Q619 -4 612 3T604 22V78H476Q462 78 452 88T442 112T450 137L586 307Q600 325 615 325H622Q636 325
646 315T656 290V127H686ZM604 127V260L500 127H604ZM238 -8Q231 -19 217 -19T195 -12T186 5T191 23L530 582Q537 593 551 593T573 586T581 568T577 550L238 -8ZM237 302Q247 302 254 295T262 278Q262 268 255 261T237 254H94Q84 254 77 260T70 278Q70 288 76 295T94
302H143V519L106 502Q100 499 92 499T77 505T70 525T85 546L144 576Q152 580 164 580T186 570T196 545V302H237Z" />
<glyph unicode="&#xbd;" glyph-name="onehalf" horiz-adv-x="769" d="M232 302Q242 302 249 295T257 278Q257 268 250 261T232 254H90Q80 254 73 260T66 278Q66 288 72 295T90 302H138V519L102 502Q96 499 88 499T72 505T65 525T80 546L139 576Q147 580 159 580T181
570T191 545V302H232ZM233 -8Q226 -19 212 -19T190 -12T182 5T186 23L525 582Q532 593 545 593T567 586T576 568T572 550L233 -8ZM684 48Q694 48 701 41T709 24Q709 14 702 7T684 0H504Q490 0 481 10T472 38T485 75T519 110T562 140T606 168T640 196T654 229T640
262T594 277Q546 277 512 259Q507 257 499 257T485 263T478 281T493 302Q535 327 590 327T675 300T706 231Q706 174 627 122Q606 108 587 95Q539 63 528 48H684Z" />
<glyph unicode="&#xbe;" glyph-name="threequarters" horiz-adv-x="769" d="M697 127Q707 127 714 120T722 102Q722 92 715 85T697 78H668V22Q668 11 661 4T642 -4Q631 -4 623 3T615 22V78H487Q473 78 463 88T453 112T462 137L597 307Q611 325 626 325H634Q648
325 658 315T668 290V127H697ZM615 127V260L511 127H615ZM249 -8Q242 -19 228 -19T206 -12T198 5T202 23L542 582Q549 593 562 593T584 586T592 568T588 550L249 -8ZM138 442Q224 442 224 490Q224 521 182 530Q171 532 154 531Q120 531 90 515Q85 513 78 513T63
519T56 536T74 557Q117 581 170 581T248 556T274 496T258 445T224 420Q286 401 286 341Q286 279 222 258Q199 250 166 249Q102 249 66 270Q52 278 52 290T59 308T72 315Q79 315 89 313Q131 300 159 300Q234 300 234 342Q234 392 142 394H134Q124 394 117 400T109
418Q109 428 116 435T134 442H138Z" />
<glyph unicode="&#xf7;" glyph-name="Divide" horiz-adv-x="693" d="M596 282Q628 282 628 250Q628 218 596 218H97Q65 218 65 250Q65 282 97 282H596ZM286 493T346 493T407 433T347 372T286 432ZM286 15T286 76T346 137T407 76Q407 15 347 15Z" />
<glyph unicode="&#x2018;" glyph-name="uni2018" horiz-adv-x="208" d="M100 390Q81 390 68 404T54 437V485Q54 528 75 562Q91 587 122 605Q126 609 136 609T152 602T159 583T146 564Q128 554 117 538T105 487H108Q127 487 140 474T154 442V437Q154 418 141 404T108
390H100Z" />
<glyph unicode="&#x2019;" glyph-name="uni2019" horiz-adv-x="194" d="M130 609T143 596T157 562V514Q157 471 134 438Q119 413 90 395Q86 391 76 391T59 398T52 417T64 436Q82 446 94 462T106 512H102Q83 512 70 525T57 558V562Q57 581 70 595T102 609H110Q130
609 143 596Z" />
<glyph unicode="&#x201c;" glyph-name="uni201C" horiz-adv-x="357" d="M248 390Q229 390 216 404T202 437V485Q202 528 225 562Q240 587 270 605Q274 609 284 609T300 602T307 583T295 564Q277 554 265 538T253 487H257Q276 487 289 474T302 442V437Q302 418
289 404T257 390H248ZM100 390Q81 390 68 404T54 437V485Q54 528 75 562Q91 587 122 605Q126 609 136 609T152 602T159 583T146 564Q128 554 117 538T105 487H108Q127 487 140 474T154 442V437Q154 418 141 404T108 390H100Z" />
<glyph unicode="&#x201d;" glyph-name="uni201D" horiz-adv-x="344" d="M110 609Q129 609 143 596T157 562V514Q157 471 134 438Q119 413 90 395Q86 391 76 391T59 398T52 417T64 436Q82 446 94 462T106 512H102Q83 512 70 525T57 558V562Q57 581 70 595T102 609H110ZM259
609Q278 609 291 596T305 562V514Q305 471 283 438Q267 413 238 395Q234 391 224 391T207 398T200 417T212 436Q230 446 242 462T254 512H250Q231 512 218 525T205 558V562Q205 581 218 595T250 609H259Z" />
<glyph unicode="&#x2022;" glyph-name="uni2022" horiz-adv-x="527" d="M312 288L472 225Q494 213 494 193Q494 149 460 137Q438 129 419 143Q415 147 375 179T288 248Q298 187 304 153L312 100Q314 84 314 81T314 67T298 42T264 28Q246 28 231 42T216 68V82Q216
90 224 138T242 248Q105 139 97 135T70 137Q34 149 34 181T58 225Q60 225 63 226T80 233T128 253T218 288L58 352Q36 365 34 385Q34 429 70 441Q88 447 105 435Q107 435 150 400T242 328Q216 490 216 494V498Q216 518 232 532T264 546Q282 546 298 533T314 508T313
493T312 474L304 423Q300 387 288 328Q425 437 423 435Q440 447 460 441Q496 429 495 397T472 352Q470 352 467 350T449 342T402 323T312 288Z" />
</font>
</defs>
</svg>
