<?xml version="1.0" standalone="no"?>
<!DOCTYPE svg PUBLIC "-//W3C//DTD SVG 1.1//EN" "http://www.w3.org/Graphics/SVG/1.1/DTD/svg11.dtd">
<svg xmlns="http://www.w3.org/2000/svg">
<defs >
<font id="SairaCondensed" horiz-adv-x="438" ><font-face
    font-family="Saira Condensed SemiBold"
    units-per-em="1000"
    panose-1="0 0 7 6 0 0 0 0 0 0"
    ascent="1135"
    descent="-439"
    alphabetic="0" />
<glyph unicode=" " glyph-name="space" horiz-adv-x="186" />
<glyph unicode="!" glyph-name="exclam" horiz-adv-x="240" d="M79 274T68 429T56 630V688H188V630Q188 584 177 429T159 209H85Q79 274 68 429ZM62 0V118H182V0H62Z" />
<glyph unicode="&quot;" glyph-name="quotedbl" horiz-adv-x="350" d="M60 433L47 627V688H151V627L138 433H60ZM212 433L199 627V688H302V627L289 433H212Z" />
<glyph unicode="#" glyph-name="numbersign" horiz-adv-x="561" d="M271 0L298 185H193L167 0H85L110 185H44V265H121L144 420H68V500H155L182 688H265L238 500H342L369 688H452L424 500H497V420H414L391 265H475V185H380L354 0H271ZM331 420H227L205 265H309L331 420Z" />
<glyph unicode="$" glyph-name="dollar" horiz-adv-x="409" d="M167 70Q100 73 54 85V176Q93 171 121 169T181 167Q213 167 228 172T249 191T255 229Q255 258 252 270T242 287T216 294L158 303Q110 311 86 327T52 374T43 460Q43 536 74 572T167 617V696H249V619Q273
618 299 613T341 603V513Q285 522 225 522Q184 522 169 510T154 462Q154 436 157 424T167 408T192 401L256 393Q294 388 317 375T353 330T366 237Q366 155 337 118T249 72V-8H167V70Z" />
<glyph unicode="%" glyph-name="percent" horiz-adv-x="700" d="M112 311T87 327T53 382T45 503Q45 585 53 623T86 679T168 696Q224 696 249 680T282 624T290 503Q290 420 283 382T250 328T168 311Q112 311 87 327ZM138 0L492 688H563L208 0H138ZM190 373T198
380T209 411T212 503Q212 570 210 594T199 626T168 633Q145 633 137 626T126 595T123 503Q123 435 125 411T136 380T168 373Q190 373 198 380ZM476 -8T451 8T419 63T411 184Q411 267 418 305T451 360T533 377Q589 377 614 360T647 305T655 184Q655 102 647 64T614
9T533 -8Q476 -8 451 8ZM555 54T563 61T574 92T577 184Q577 251 575 275T564 307T533 314Q510 314 502 307T492 276T489 184Q489 116 491 92T502 61T533 54Q555 54 563 61Z" />
<glyph unicode="&amp;" glyph-name="ampersand" horiz-adv-x="542" d="M523 395V299H442V9Q403 2 354 -3T265 -8Q179 -8 131 12T64 73T45 182Q45 262 68 298T142 349V353Q95 366 73 404T50 516Q50 611 100 653T269 696Q306 696 354 691T441 677V590Q373 600 302
600Q238 600 209 592T170 563T160 497Q160 458 166 437T189 405T241 395H278V299H241Q204 299 186 290T162 258T155 192Q155 145 167 123T204 93T280 86Q307 86 335 89V395H523Z" />
<glyph unicode="&apos;" glyph-name="quotesingle" horiz-adv-x="198" d="M60 433L47 627V688H151V627L138 433H60Z" />
<glyph unicode="(" glyph-name="parenleft" horiz-adv-x="274" d="M118 -71T97 -24T64 95T53 297Q53 426 64 499T97 622T168 743H256Q217 677 200 635T172 515T162 297Q162 156 172 78T199 -42T256 -150H168Q118 -71 97 -24Z" />
<glyph unicode=")" glyph-name="parenright" horiz-adv-x="274" d="M56 -84T73 -42T101 78T111 297Q111 438 101 515T74 634T17 743H105Q153 671 175 622T208 500T219 297Q219 168 209 96T176 -24T105 -150H17Q56 -84 73 -42Z" />
<glyph unicode="*" glyph-name="asterisk" horiz-adv-x="406" d="M227 482L237 361H169L179 482L79 413L45 473L154 524L45 576L79 636L179 566L169 688H237L227 566L327 636L361 576L251 524L361 473L327 413L227 482Z" />
<glyph unicode="+" glyph-name="plus" horiz-adv-x="475" d="M191 73V206H58V299H191V432H284V299H417V206H284V73H191Z" />
<glyph unicode="," glyph-name="comma" horiz-adv-x="224" d="M66 -88T77 -82T92 -61T96 -16V0H52V118H173V30Q173 -43 165 -77T129 -126T43 -141V-88Q66 -88 77 -82Z" />
<glyph unicode="-" glyph-name="hyphen" horiz-adv-x="300" d="M50 235V335H249V235H50Z" />
<glyph unicode="." glyph-name="period" horiz-adv-x="224" d="M52 0V118H173V0H52Z" />
<glyph unicode="/" glyph-name="slash" horiz-adv-x="314" d="M14 -55L202 743H299L111 -55H14Z" />
<glyph unicode="0" glyph-name="zero" horiz-adv-x="477" d="M145 -8T105 21T55 118T44 344Q44 502 54 569T105 666T239 696Q333 696 373 667T423 570T433 344Q433 186 423 119T373 22T239 -8Q145 -8 105 21ZM281 95T296 107T315 167T320 344Q320 474 316 521T296
580T239 593Q197 593 182 581T163 521T158 344Q158 214 162 167T182 108T239 95Q281 95 296 107Z" />
<glyph unicode="1" glyph-name="one" horiz-adv-x="299" d="M122 0V551L22 507V617L152 688H236V0H122Z" />
<glyph unicode="2" glyph-name="two" horiz-adv-x="445" d="M155 103H404V0H41V87Q41 179 45 220T66 288T121 335Q161 358 241 402Q272 420 281 438T290 500Q290 543 281 562T252 587T189 593Q139 593 49 583V678Q83 686 131 691T221 696Q281 696 319 684T380
631T404 509Q404 425 386 385T321 321L192 252Q180 245 174 240T163 226Q157 215 156 197T155 133V103Z" />
<glyph unicode="3" glyph-name="three" horiz-adv-x="431" d="M154 -8T108 -3T25 9V104Q108 95 166 95Q209 95 231 101T264 127T275 192Q275 235 267 257T242 287T192 296H99V399H192Q220 399 236 406T260 434T269 497Q269 540 260 560T228 586T160 593Q100 593
27 583V678Q61 686 107 691T190 696Q294 696 338 656T383 516Q383 442 361 404T294 353V349Q343 336 366 300T389 182Q389 114 371 73T310 12T189 -8Q154 -8 108 -3Z" />
<glyph unicode="4" glyph-name="four" horiz-adv-x="467" d="M267 0V146H25V235L179 688H298L142 248H267L295 448H381V248H444V146H381V0H267Z" />
<glyph unicode="5" glyph-name="five" horiz-adv-x="447" d="M130 95T184 95Q232 95 255 104T288 138T297 210Q297 260 287 283T253 315T180 323Q115 323 53 313V688H380V585H160V419Q174 422 198 424T245 426Q311 426 347 402T397 334T411 222Q411 138 395 89T335
16T212 -8Q177 -8 131 -3T49 9V104Q130 95 184 95Z" />
<glyph unicode="6" glyph-name="six" horiz-adv-x="474" d="M180 -8T143 3T85 46T53 141Q44 203 44 340Q44 490 61 558Q78 634 124 665T262 696Q296 696 338 691T412 676V581Q337 593 283 593Q224 593 199 578T167 520T159 378H165Q179 398 204 412T281 426Q337
426 369 412T418 355T435 226Q435 132 420 83T365 13T245 -8Q180 -8 143 3ZM278 95T293 100T315 129T322 207Q322 264 316 287T295 316T241 323Q203 323 187 316T166 289T161 224Q161 164 168 137T190 103T241 95Q278 95 293 100Z" />
<glyph unicode="7" glyph-name="seven" horiz-adv-x="416" d="M73 0L271 585H23V688H392V596L195 0H73Z" />
<glyph unicode="8" glyph-name="eight" horiz-adv-x="489" d="M166 -8T123 11T61 72T43 182Q43 239 53 272T83 322T136 349V353Q90 365 69 403T47 517Q47 584 66 622T128 678T244 696Q316 696 359 679T421 622T441 517Q441 442 419 404T351 353V349Q385 339 405
323T435 273T446 182Q446 113 428 72T366 12T244 -8Q166 -8 123 11ZM279 397T296 404T320 432T327 496Q327 540 321 560T297 588T244 595Q208 595 191 588T168 561T161 496Q161 452 167 432T191 404T244 397Q279 397 296 404ZM280 93T298 100T324 128T332 195Q332
241 325 262T299 291T244 298Q206 298 189 291T164 263T157 195Q157 149 164 128T190 100T244 93Q280 93 298 100Z" />
<glyph unicode="9" glyph-name="nine" horiz-adv-x="474" d="M178 -8T136 -3T62 12V107Q136 95 191 95Q250 95 275 110T307 168T315 310H309Q296 289 271 276T193 262Q137 262 105 276T56 333T39 462Q39 556 54 605T109 675T229 696Q288 696 323 687T381 653T414
580Q430 511 430 348Q430 264 426 209T410 115Q391 48 345 20T212 -8Q178 -8 136 -3ZM271 365T287 372T308 399T313 464Q313 524 306 551T284 585T233 593Q196 593 181 588T159 559T152 481Q152 424 158 401T179 372T233 365Q271 365 287 372Z" />
<glyph unicode=":" glyph-name="colon" horiz-adv-x="224" d="M52 392V510H173V392H52ZM52 0V118H173V0H52Z" />
<glyph unicode=";" glyph-name="semicolon" horiz-adv-x="224" d="M52 392V510H173V392H52ZM66 -88T77 -82T92 -61T96 -16V0H52V118H173V30Q173 -43 165 -77T129 -126T43 -141V-88Q66 -88 77 -82Z" />
<glyph unicode="&lt;" glyph-name="less" horiz-adv-x="475" d="M417 65L58 203V301L417 439V344L168 253L417 161V65Z" />
<glyph unicode="=" glyph-name="equal" horiz-adv-x="475" d="M58 296V390H417V296H58ZM58 116V210H417V116H58Z" />
<glyph unicode="&gt;" glyph-name="greater" horiz-adv-x="475" d="M58 65V161L307 253L58 344V439L417 301V203L58 65Z" />
<glyph unicode="?" glyph-name="question" horiz-adv-x="382" d="M97 295Q97 333 103 353T120 383T157 409L174 420Q195 433 204 443T218 468T223 513Q223 549 214 566T186 588T128 593Q86 593 28 584V680Q59 687 101 691T176 696Q262 696 300 655T339 526Q339
456 324 419T263 356L248 347Q223 334 214 325T201 304T198 262V208H97V295ZM87 0V118H208V0H87Z" />
<glyph unicode="@" glyph-name="at" horiz-adv-x="696" d="M201 -108T144 -81T72 21T57 294Q57 492 71 567T143 669T349 696Q497 696 555 670T627 568T642 294Q642 188 632 143T601 86T533 75H405L400 126H395Q375 68 303 68Q250 68 227 98T204 198Q204 273 226
302T309 331Q337 331 399 327V350Q399 392 394 409T373 431T320 436Q297 436 270 434T225 430V504Q286 518 348 518Q409 518 440 502T482 449T493 345V127H540Q561 127 570 135T582 177T586 294Q586 444 581 507T552 600T474 639Q442 643 348 643Q257 643 226 639Q170
631 147 601T118 508T112 294Q112 127 119 64T158 -24T268 -54Q291 -55 349 -55Q462 -55 493 -52V-106Q457 -108 349 -108Q201 -108 144 -81ZM365 151T377 158T394 184T399 237V265H335Q317 265 309 261T297 245T294 206Q294 173 303 162T341 151Q365 151 377 158Z"
/>
<glyph unicode="A" glyph-name="A" horiz-adv-x="495" d="M367 0L334 156H158L126 0H11L165 688H330L484 0H367ZM249 575H243L179 258H312L249 575Z" />
<glyph unicode="B" glyph-name="B" horiz-adv-x="488" d="M59 688H284Q366 688 405 645T445 515Q445 443 422 404T350 353V349Q405 336 428 298T451 183Q451 94 413 47T283 0H59V688ZM296 400T313 419T330 492Q330 531 324 550T302 577T253 585H173V400H253Q296
400 313 419ZM290 102T306 110T329 138T335 198Q335 238 328 259T305 288T257 296H173V102H257Q290 102 306 110Z" />
<glyph unicode="C" glyph-name="C" horiz-adv-x="396" d="M346 1T314 -3T252 -8Q159 -8 116 21T59 122T45 344Q45 492 59 564T117 666T252 696Q283 696 315 692T364 680V585Q311 593 274 593Q217 593 195 578T166 515T159 344Q159 221 165 173T194 110T274 95Q324
95 366 103V8Q346 1 314 -3Z" />
<glyph unicode="D" glyph-name="D" horiz-adv-x="495" d="M59 688H236Q340 688 383 660T438 565T450 344Q450 189 439 123T384 29T236 0H59V688ZM233 103Q286 103 305 115T330 172T336 344Q336 469 330 515T305 573T233 585H173V103H233Z" />
<glyph unicode="E" glyph-name="E" horiz-adv-x="423" d="M59 0V688H387V585H173V399H358V296H173V103H387V0H59Z" />
<glyph unicode="F" glyph-name="F" horiz-adv-x="395" d="M59 0V688H371V585H173V383H349V280H173V0H59Z" />
<glyph unicode="G" glyph-name="G" horiz-adv-x="485" d="M249 289V391H433V12Q401 3 354 -2T263 -8Q170 -8 125 20T62 122T45 344Q45 493 63 566T128 667T271 696Q309 696 354 691T431 676V580Q399 585 363 589T307 593Q235 593 208 581T170 519T159 344Q159
228 166 178T194 110T264 92Q291 92 323 97V289H249Z" />
<glyph unicode="H" glyph-name="H" horiz-adv-x="521" d="M349 0V293H173V0H59V688H173V400H349V688H463V0H349Z" />
<glyph unicode="I" glyph-name="I" horiz-adv-x="235" d="M60 0V688H175V0H60Z" />
<glyph unicode="J" glyph-name="J" horiz-adv-x="280" d="M65 98T83 106T106 140T111 241V688H225V291Q225 141 214 87T163 17T13 0V97Q65 98 83 106Z" />
<glyph unicode="K" glyph-name="K" horiz-adv-x="486" d="M350 0L226 297H173V0H59V688H173V400H226L354 688H471L320 359L474 0H350Z" />
<glyph unicode="L" glyph-name="L" horiz-adv-x="378" d="M59 0V688H173V106H363V0H59Z" />
<glyph unicode="M" glyph-name="M" horiz-adv-x="690" d="M520 0V525H515L399 0H288L173 525H167V0H59V688H234L343 183H349L458 688H631V0H520Z" />
<glyph unicode="N" glyph-name="N" horiz-adv-x="524" d="M359 0L173 425H169V0H59V688H173L351 284H355V688H465V0H359Z" />
<glyph unicode="O" glyph-name="O" horiz-adv-x="509" d="M153 -8T110 21T56 118T45 344Q45 502 56 569T110 666T254 696Q355 696 398 667T452 569T464 344Q464 187 453 119T398 22T254 -8Q153 -8 110 21ZM303 95T321 107T344 167T350 344Q350 473 345 520T321
580T254 593Q205 593 188 581T165 521T159 344Q159 214 164 167T187 108T254 95Q303 95 321 107Z" />
<glyph unicode="P" glyph-name="P" horiz-adv-x="470" d="M59 688H275Q346 688 382 662T431 587T444 460Q444 384 432 336T383 259T273 231H173V0H59V688ZM246 334Q285 334 302 344T324 379T329 460Q329 515 324 540T302 575T247 585H173V334H246Z" />
<glyph unicode="Q" glyph-name="Q" horiz-adv-x="509" d="M310 -5Q285 -8 254 -8Q153 -8 110 21T56 118T45 344Q45 502 56 569T110 666T254 696Q355 696 398 667T452 569T464 344Q464 246 461 191T445 95T408 32L494 -111V-115H372L310 -5ZM303 95T321 107T344
167T350 344Q350 473 345 520T321 580T254 593Q205 593 188 581T165 521T159 344Q159 214 164 167T187 108T254 95Q303 95 321 107Z" />
<glyph unicode="R" glyph-name="R" horiz-adv-x="490" d="M345 0L271 251H173V0H59V688H281Q353 688 389 663T438 592T451 470Q451 396 437 347T378 275L465 0H345ZM292 354T309 363T331 396T337 470Q337 520 332 543T309 575T254 585H173V354H254Q292 354 309 363Z" />
<glyph unicode="S" glyph-name="S" horiz-adv-x="442" d="M180 -8T131 -4T46 7V104Q131 95 189 95Q259 95 278 117Q288 127 291 144T294 192Q294 234 289 252T270 278T219 293L120 310Q70 318 52 363T33 493Q33 573 56 617T121 679T228 696Q270 696 313 691T383
678V583Q331 593 261 593Q221 593 199 589T166 575Q154 565 151 548T147 497Q147 461 151 446T165 423T201 412L294 396Q333 390 357 373T395 316Q408 275 408 207Q408 118 387 72T327 9T221 -8Q180 -8 131 -4Z" />
<glyph unicode="T" glyph-name="T" horiz-adv-x="414" d="M150 0V582H12V688H401V582H264V0H150Z" />
<glyph unicode="U" glyph-name="U" horiz-adv-x="509" d="M454 688V303Q454 168 442 107T389 19T254 -8Q160 -8 119 18T67 106T55 303V688H169V260Q169 180 173 149T195 106T254 95Q297 95 314 106T335 148T340 260V688H454Z" />
<glyph unicode="V" glyph-name="V" horiz-adv-x="476" d="M155 0L11 688H128L236 126H243L350 688H464L320 0H155Z" />
<glyph unicode="W" glyph-name="W" horiz-adv-x="737" d="M453 0L371 509H365L283 0H127L18 688H135L207 133H214L302 688H439L528 133H534L605 688H718L609 0H453Z" />
<glyph unicode="X" glyph-name="X" horiz-adv-x="494" d="M355 0L248 259H241L136 0H14L170 346L16 688H141L245 437H252L357 688H477L326 349L480 0H355Z" />
<glyph unicode="Y" glyph-name="Y" horiz-adv-x="452" d="M169 0V244L2 688H119L225 383H233L337 688H450L283 244V0H169Z" />
<glyph unicode="Z" glyph-name="Z" horiz-adv-x="432" d="M30 0V97L270 585H38V688H400V591L159 102H402V0H30Z" />
<glyph unicode="[" glyph-name="bracketleft" horiz-adv-x="283" d="M59 -150V743H252V669L163 665V-72L252 -76V-150H59Z" />
<glyph unicode="\" glyph-name="backslash" horiz-adv-x="314" d="M202 -55L14 743H111L299 -55H202Z" />
<glyph unicode="]" glyph-name="bracketright" horiz-adv-x="282" d="M32 -150V-76L120 -72V665L32 669V743H225V-150H32Z" />
<glyph unicode="^" glyph-name="asciicircum" horiz-adv-x="396" d="M278 476L198 666L117 476H23L150 750H246L372 476H278Z" />
<glyph unicode="_" glyph-name="underscore" horiz-adv-x="347" d="M0 -181V-89H347V-181H0Z" />
<glyph unicode="`" glyph-name="grave" horiz-adv-x="175" d="M82 599L6 738V743H116L169 604V599H82Z" />
<glyph unicode="a" glyph-name="a" horiz-adv-x="422" d="M84 -8T57 28T29 144Q29 203 41 237T80 286T157 301Q195 301 263 297V322Q263 371 256 392T230 419T168 425Q125 425 53 417V502Q123 518 199 518Q271 518 307 499T357 438T371 316V0H271L267 63H261Q237
-8 147 -8Q84 -8 57 28ZM213 90T226 94T249 110Q263 129 263 194V221H188Q166 221 156 216T141 197T136 154Q136 115 147 103T194 90Q213 90 226 94Z" />
<glyph unicode="b" glyph-name="b" horiz-adv-x="445" d="M184 -8T163 63H156L152 0H53V743H161V455H167Q191 518 275 518Q327 518 354 494T393 413T405 254Q405 149 393 93T353 15T273 -8Q184 -8 163 63ZM261 92T274 101T292 142T297 255Q297 335 293 367T275
408T227 418Q203 418 190 411T170 383Q161 352 161 255Q161 163 168 134Q174 110 187 101T227 92Q261 92 274 101Z" />
<glyph unicode="c" glyph-name="c" horiz-adv-x="342" d="M263 -8T204 -8Q131 -8 96 19T50 100T39 255Q39 356 51 411T99 492T203 518Q233 518 263 514T310 503V417Q268 425 232 425Q193 425 176 414T153 368T147 255Q147 176 153 142T176 96T232 85Q271 85 313
93V7Q263 -8 204 -8Z" />
<glyph unicode="d" glyph-name="d" horiz-adv-x="445" d="M120 -8T92 14T51 93T39 253Q39 356 50 412T90 493T170 518Q253 518 278 455H284V743H392V0H292L288 63H281Q260 -8 172 -8Q120 -8 92 14ZM242 92T255 100T275 130Q284 162 284 255Q284 332 279 362Q274
394 260 406T217 418Q183 418 170 409T152 367T147 255Q147 175 151 143T169 102T217 92Q242 92 255 100Z" />
<glyph unicode="e" glyph-name="e" horiz-adv-x="425" d="M384 218H147Q147 153 153 128T179 94T249 85Q297 85 372 93V8Q347 1 306 -3T225 -8Q141 -8 102 17T51 95T39 254Q39 359 50 412T99 491T218 518Q298 518 332 493T375 417T384 255V218ZM185 425T171 416T153
382T147 298H281V299Q281 357 276 383T258 417T216 425Q185 425 171 416Z" />
<glyph unicode="f" glyph-name="f" horiz-adv-x="296" d="M83 417H17V510H83V557Q83 645 99 683T153 732T278 743V659Q238 659 221 654T197 633T191 581V510H278V417H191V0H83V417Z" />
<glyph unicode="g" glyph-name="g" horiz-adv-x="444" d="M169 -200T131 -197T68 -188V-103L180 -105Q230 -105 250 -96T277 -59T283 35V62H277Q265 28 239 14T171 -1Q118 -1 90 22T51 100T39 257Q39 361 51 417T91 495T172 518Q258 518 281 447H287L291 510H391V65Q391
-40 380 -93T329 -173T204 -200Q169 -200 131 -197ZM243 96T257 106T276 141Q283 170 283 257Q283 333 278 362Q273 394 259 405T216 417Q182 417 169 408T152 368T147 257Q147 179 151 147T169 106T216 96Q243 96 257 106Z" />
<glyph unicode="h" glyph-name="h" horiz-adv-x="449" d="M290 281Q290 348 286 375T270 409T228 417Q196 417 182 404T165 361T161 266V0H53V743H161V450H166Q179 485 207 501T279 518Q328 518 354 499T389 441T398 335V0H290V281Z" />
<glyph unicode="i" glyph-name="i" horiz-adv-x="214" d="M52 633V743H162V633H52ZM53 0V510H161V0H53Z" />
<glyph unicode="j" glyph-name="j" horiz-adv-x="214" d="M52 633V743H162V633H52ZM-10 -107Q19 -107 32 -102T49 -87T53 -55V510H161V-13Q161 -96 147 -133T98 -182T-10 -193V-107Z" />
<glyph unicode="k" glyph-name="k" horiz-adv-x="420" d="M291 0L197 208H161V0H53V743H161V302H197L293 510H404L286 265L406 0H291Z" />
<glyph unicode="l" glyph-name="l" horiz-adv-x="214" d="M53 0V743H161V0H53Z" />
<glyph unicode="m" glyph-name="m" horiz-adv-x="671" d="M512 281Q512 349 509 375T494 409T454 417Q424 417 411 404T394 362T390 266V0H282V281Q282 349 279 375T264 409T224 417Q194 417 181 404T165 362T161 266V0H53V510H152L156 446H162Q176 484 203 501T276
518Q325 518 349 501T383 446H389Q402 484 430 501T505 518Q552 518 576 499T610 442T620 336V0H512V281Z" />
<glyph unicode="n" glyph-name="n" horiz-adv-x="449" d="M290 281Q290 348 286 375T270 409T228 417Q196 417 182 404T165 361T161 266V0H53V510H152L156 446H162Q175 484 204 501T279 518Q329 518 354 499T389 440T398 331V0H290V281Z" />
<glyph unicode="o" glyph-name="o" horiz-adv-x="435" d="M134 -8T97 14T50 88T39 255Q39 371 49 423T97 496T217 518Q300 518 337 497T384 423T395 255Q395 140 385 88T337 14T217 -8Q134 -8 97 14ZM253 85T266 95T283 138T287 255Q287 341 284 372T267 414T217
425Q181 425 168 415T151 373T147 255Q147 170 150 138T167 96T217 85Q253 85 266 95Z" />
<glyph unicode="p" glyph-name="p" horiz-adv-x="445" d="M53 510H152L156 447H163Q184 518 273 518Q325 518 353 496T393 417T405 257Q405 154 394 98T355 17T275 -8Q191 -8 167 57H161V-193H53V510ZM261 92T274 101T292 142T297 255Q297 336 293 367T275 408T227
418Q200 418 187 408T167 371Q161 342 161 255Q161 183 165 152Q170 117 183 105T227 92Q261 92 274 101Z" />
<glyph unicode="q" glyph-name="q" horiz-adv-x="445" d="M284 57H278Q253 -8 170 -8Q118 -8 90 16T51 96T39 256Q39 361 51 417T91 495T172 518Q260 518 281 447H288L292 510H392V-193H284V57ZM245 92T258 102T278 141Q284 170 284 255Q284 305 283 333T275 378Q270
400 257 409T217 418Q183 418 170 409T152 367T147 255Q147 175 151 143T169 102T217 92Q245 92 258 102Z" />
<glyph unicode="r" glyph-name="r" horiz-adv-x="302" d="M53 510H152L156 423H163Q178 477 207 497T285 518V403Q239 403 212 387T173 335T161 235V0H53V510Z" />
<glyph unicode="s" glyph-name="s" horiz-adv-x="373" d="M154 -8T114 -4T43 6V93Q115 85 164 85Q195 85 210 90T230 108T235 144Q235 172 232 183T221 199T193 207L104 220Q63 226 47 258T31 365Q31 451 72 484T193 518Q226 518 261 514T319 502V416Q263 425
207 425Q168 425 154 414T139 367Q139 342 141 331T151 316T177 309L253 299Q282 295 301 283T331 240T342 152Q342 61 305 27T187 -8Q154 -8 114 -4Z" />
<glyph unicode="t" glyph-name="t" horiz-adv-x="291" d="M83 0V417H16V510H83V658H191V510H273V417H191V0H83Z" />
<glyph unicode="u" glyph-name="u" horiz-adv-x="449" d="M292 64H286Q273 26 244 9T170 -8Q120 -8 94 11T60 70T51 179V510H159V229Q159 161 162 135T178 101T220 93Q252 93 266 106T284 149T288 244V510H396V0H296L292 64Z" />
<glyph unicode="v" glyph-name="v" horiz-adv-x="412" d="M132 0L14 510H125L203 119H211L288 510H397L279 0H132Z" />
<glyph unicode="w" glyph-name="w" horiz-adv-x="631" d="M381 0L320 314H312L251 0H116L17 510H125L185 137H192L264 510H371L444 137H451L510 510H613L515 0H381Z" />
<glyph unicode="x" glyph-name="x" horiz-adv-x="419" d="M290 0L212 176H205L125 0H14L140 259L17 510H133L209 343H215L290 510H402L280 259L406 0H290Z" />
<glyph unicode="y" glyph-name="y" horiz-adv-x="449" d="M175 -200T138 -197T76 -190V-103Q136 -105 187 -105Q236 -105 256 -95T282 -59T288 32V65H281Q260 -2 171 -2Q117 -2 92 20T59 86T51 214V510H159V233Q159 164 162 138T178 104T220 96Q252 96 266 109T284
151T288 247V510H396V64Q396 -40 385 -93T334 -173T211 -200Q175 -200 138 -197Z" />
<glyph unicode="z" glyph-name="z" horiz-adv-x="387" d="M34 0V87L224 417H41V510H351V424L160 93H353V0H34Z" />
<glyph unicode="{" glyph-name="braceleft" horiz-adv-x="296" d="M155 -125T126 -75T97 28V149Q97 199 81 232T21 268V322Q65 325 81 358T97 442V564Q97 616 126 666T201 743H275Q231 688 216 648T201 559V445Q201 322 109 300V293Q201 271 201 146V33Q201 -15
216 -54T275 -150H201Q155 -125 126 -75Z" />
<glyph unicode="|" glyph-name="bar" horiz-adv-x="231" d="M66 -161V743H166V-161H66Z" />
<glyph unicode="}" glyph-name="braceright" horiz-adv-x="296" d="M63 -95T78 -55T93 33V146Q93 271 185 293V300Q93 322 93 445V559Q93 606 79 644T20 743H93Q138 717 167 667T197 564V442Q197 391 213 358T273 322V268Q229 265 213 233T197 149V28Q197 -25
168 -75T93 -150H20Q63 -95 78 -55Z" />
<glyph unicode="~" glyph-name="asciitilde" horiz-adv-x="453" d="M397 323T393 299T372 261T318 247Q295 247 271 252T213 266Q208 267 185 273T145 280Q128 280 124 271T120 236H55Q55 283 59 307T81 345T135 359Q175 359 239 341Q258 336 276 332T307 327Q325
327 329 335T333 370H397Q397 323 393 299Z" />
<glyph unicode="&#xa0;" glyph-name="uni00A0" horiz-adv-x="186" />
<glyph unicode="&#xa1;" glyph-name="exclamdown" horiz-adv-x="237" d="M57 392V510H178V392H57ZM52 -120Q52 -73 65 102T81 301H154Q157 277 170 102T183 -120V-178H52V-120Z" />
<glyph unicode="&#xa2;" glyph-name="cent" horiz-adv-x="359" d="M168 71Q114 80 87 111T51 197T42 342Q42 435 52 490T89 576T168 615V696H250V617Q285 614 320 603V514Q267 521 240 521Q200 521 183 509T159 461T153 343Q153 261 159 225T183 177T241 165Q276
165 322 173V84Q289 74 250 70V-8H168V71Z" />
<glyph unicode="&#xa3;" glyph-name="sterling" horiz-adv-x="436" d="M398 102V0H34V102H90V303H34V406H91V410Q91 516 106 577T162 667T279 696Q307 696 338 692T390 682V584Q349 593 308 593Q280 593 263 590T234 578Q215 563 210 527T204 410V406H343V303H204V102H398Z"
/>
<glyph unicode="&#xa4;" glyph-name="currency" horiz-adv-x="526" d="M39 69L105 136Q91 165 87 212T82 344Q82 428 86 475T105 551L39 617L106 684L182 608Q211 615 260 615Q313 615 344 607L421 684L487 617L417 548Q430 520 434 474T438 344Q438 260 434 215T417
140L487 69L421 4L343 81Q314 73 260 73Q211 73 182 80L106 4L39 69ZM296 167T309 178T326 222T330 344Q330 434 327 467T310 510T260 521Q224 521 211 511T194 467T190 344Q190 255 193 222T210 178T260 167Q296 167 309 178Z" />
<glyph unicode="&#xa5;" glyph-name="yen" horiz-adv-x="498" d="M191 0V229H51V293H177L143 381H51V446H118L32 688H149L247 383H254L352 688H466L378 446H446V381H353L319 293H446V229H305V0H191Z" />
<glyph unicode="&#xa6;" glyph-name="brokenbar" horiz-adv-x="231" d="M66 390V743H166V390H66ZM66 -161V192H166V-161H66Z" />
<glyph unicode="&#xa7;" glyph-name="section" horiz-adv-x="500" d="M195 -171T156 -167T92 -155V-59Q148 -68 213 -68Q263 -68 280 -55T298 -5Q298 18 295 29T284 45T257 59L161 99Q114 119 91 133T51 179T35 264Q35 335 53 374T116 424Q101 441 95 465T89 528Q89
620 134 658T268 696Q305 696 344 692T407 680V584Q384 588 350 590T286 593Q236 593 219 580T201 530Q201 507 204 496T215 480T242 467L337 427Q384 408 408 393T448 347T464 261Q464 189 446 150T383 99Q398 82 404 58T410 -3Q410 -95 365 -133T231 -171Q195
-171 156 -167ZM353 158T353 242Q353 295 326 308L214 356Q190 366 180 366Q164 366 155 345T145 281Q145 252 151 237T177 214L287 168Q308 158 319 158Q353 158 353 242Z" />
<glyph unicode="&#xa8;" glyph-name="dieresis" horiz-adv-x="292" d="M11 635V730H108V635H11ZM186 635V730H282V635H186Z" />
<glyph unicode="&#xa9;" glyph-name="copyright" horiz-adv-x="577" d="M174 -8T129 16T72 106T60 344Q60 515 71 581T128 672T288 696Q402 696 447 672T504 582T516 344Q516 173 504 107T447 16T288 -8Q174 -8 129 16ZM384 37T417 53T460 125T469 344Q469 506
460 562T418 634T288 650Q192 650 158 635T115 563T106 344Q106 182 115 126T158 53T288 37Q384 37 417 53ZM256 154T233 170T203 225T195 343Q195 422 202 460T233 515T305 532Q344 532 367 523V469Q341 473 318 473Q289 473 278 466T264 433T261 343Q261 278
264 254T278 221T318 213Q346 213 368 218V163Q343 154 305 154Q256 154 233 170Z" />
<glyph unicode="&#xaa;" glyph-name="ordfeminine" horiz-adv-x="327" d="M72 309T52 336T32 422Q32 485 52 510T124 535Q168 535 202 532V551Q202 587 198 601T179 619T131 624Q110 624 49 617V683Q98 696 157 696Q210 696 237 682T274 636T284 546V314H206L203
357H198Q178 309 117 309Q72 309 52 336ZM173 381T183 387T197 409Q202 423 202 456V477H148Q127 477 120 468T112 428Q112 400 119 391T153 381Q173 381 183 387Z" />
<glyph unicode="&#xab;" glyph-name="guillemotleft" horiz-adv-x="398" d="M122 116L33 312L122 510H201L129 312L201 116H122ZM274 116L185 312L274 510H353L280 312L353 116H274Z" />
<glyph unicode="&#xac;" glyph-name="logicalnot" horiz-adv-x="475" d="M323 69V203H58V297H417V69H323Z" />
<glyph unicode="&#xad;" glyph-name="uni00AD" horiz-adv-x="300" d="M50 235V335H249V235H50Z" />
<glyph unicode="&#xae;" glyph-name="registered" horiz-adv-x="577" d="M401 696T446 672T504 582T516 344Q516 173 504 107T447 16T287 -8Q173 -8 128 16T71 106T59 344Q59 515 70 581T127 672T287 696Q401 696 446 672ZM383 37T417 53T460 125T469 344Q469
505 460 561T417 634T287 650Q191 650 158 634T115 562T106 344Q106 182 115 126T157 53T287 37Q383 37 417 53ZM396 370T389 344T358 306L404 158H335L296 292H251V158H185V528H303Q343 528 363 514T390 476T396 411Q396 370 389 344ZM306 350T315 355T326 372T329
410Q329 436 326 447T315 463T288 467H251V350H286Q306 350 315 355Z" />
<glyph unicode="&#xaf;" glyph-name="overscore" horiz-adv-x="301" d="M50 643V743H249V643H50Z" />
<glyph unicode="&#xb0;" glyph-name="degree" horiz-adv-x="317" d="M102 397T78 411T47 453T41 546Q41 610 47 638T77 681T158 696Q214 696 239 682T270 638T277 546Q277 483 271 454T240 411T158 397Q102 397 78 411ZM181 456T190 462T201 486T204 546Q204 589
202 606T190 629T158 636Q136 636 127 630T116 606T114 546Q114 503 116 486T127 463T158 456Q181 456 190 462Z" />
<glyph unicode="&#xb1;" glyph-name="plusminus" horiz-adv-x="475" d="M191 195V328H58V422H191V554H284V422H417V328H284V195H191ZM58 30V124H417V30H58Z" />
<glyph unicode="&#xb2;" glyph-name="uni00B2" horiz-adv-x="296" d="M117 383H252V315H44V377Q44 434 50 457T79 494L146 535Q166 547 172 555T178 586Q178 613 168 621T127 629Q106 629 48 622V686Q98 696 148 696Q182 696 203 690T238 660T252 591Q252 547
242 525T205 487L187 476L138 447Q125 440 121 433T117 409V383Z" />
<glyph unicode="&#xb3;" glyph-name="uni00B3" horiz-adv-x="294" d="M95 307T42 317V379Q99 374 123 374Q153 374 164 382T175 421Q175 450 167 460T138 471H80V536H138Q157 536 164 544T172 583Q172 612 162 620T119 629Q93 629 43 621V685Q92 696 136 696Q195
696 220 673T246 594Q246 557 235 537T201 507V503Q224 494 236 474T249 415Q249 357 225 332T136 307Q95 307 42 317Z" />
<glyph unicode="&#xb4;" glyph-name="acute" horiz-adv-x="175" d="M6 599V604L59 743H169V738L92 599H6Z" />
<glyph unicode="&#xb5;" glyph-name="uni00B5" horiz-adv-x="451" d="M398 510V0H298L294 64H288Q276 27 248 10T175 -7Q166 -7 160 -6V-189H53V510H161V229Q161 161 164 135T180 101T223 93Q254 93 268 106T286 149T290 244V510H398Z" />
<glyph unicode="&#xb6;" glyph-name="paragraph" horiz-adv-x="466" d="M180 222Q110 222 81 238T42 299T33 454Q33 563 42 609T80 671T180 688H267V-144H180V222ZM319 -144V688H405V-144H319Z" />
<glyph unicode="&#xb7;" glyph-name="middot" horiz-adv-x="224" d="M52 239V358H173V239H52Z" />
<glyph unicode="&#xb8;" glyph-name="cedilla" horiz-adv-x="155" d="M10 -190V-185L73 8H145V3L108 -190H10Z" />
<glyph unicode="&#xb9;" glyph-name="uni00B9" horiz-adv-x="221" d="M95 315V599L41 576V646L115 688H169V315H95Z" />
<glyph unicode="&#xba;" glyph-name="ordmasculine" horiz-adv-x="335" d="M107 309T80 325T44 380T36 501Q36 584 44 623T79 679T168 696Q228 696 255 679T291 623T299 501Q299 418 291 380T256 326T168 309Q107 309 80 325ZM193 380T202 387T214 416T216 501Q216
565 214 587T203 617T168 625Q142 625 133 618T121 588T119 501Q119 438 121 416T132 387T168 380Q193 380 202 387Z" />
<glyph unicode="&#xbb;" glyph-name="guillemotright" horiz-adv-x="398" d="M45 116L117 312L45 510H123L213 312L123 116H45ZM197 116L269 312L197 510H275L364 312L275 116H197Z" />
<glyph unicode="&#xbc;" glyph-name="onequarter" horiz-adv-x="597" d="M95 315V599L41 576V646L115 688H169V315H95ZM72 0L418 688H489L143 0H72ZM450 0V75H318V129L400 374H477L393 142H450L473 250H524V142H557V75H524V0H450Z" />
<glyph unicode="&#xbd;" glyph-name="onehalf" horiz-adv-x="633" d="M95 315V599L41 576V646L115 688H169V315H95ZM418 688H489L143 0H72L418 688ZM451 68H586V0H378V62Q378 119 384 142T413 179L480 220Q500 232 506 240T512 271Q512 298 502 306T461 314Q440
314 382 307V371Q432 381 482 381Q516 381 537 375T572 345T586 276Q586 232 576 210T539 172L472 133Q459 125 455 118T451 94V68Z" />
<glyph unicode="&#xbe;" glyph-name="threequarters" horiz-adv-x="650" d="M99 374T123 374Q153 374 164 382T175 421Q175 450 167 460T138 471H80V536H138Q157 536 164 544T172 583Q172 612 162 620T119 629Q93 629 43 621V685Q92 696 136 696Q195 696 220 673T246
594Q246 557 235 537T201 507V503Q224 494 236 474T249 415Q249 357 225 332T136 307Q95 307 42 317V379Q99 374 123 374ZM123 0L469 688H541L195 0H123ZM501 0V75H369V129L452 374H528L444 142H501L525 250H575V142H608V75H575V0H501Z" />
<glyph unicode="&#xbf;" glyph-name="questiondown" horiz-adv-x="352" d="M170 392V510H291V392H170ZM120 -186T80 -147T39 -16Q39 59 56 95T115 154L147 172Q163 181 169 188T178 208T180 248V302H281V215Q281 177 275 157T258 127T221 101L205 91Q184 77 174
67T160 41T155 -3Q155 -39 164 -55T192 -77T250 -83Q294 -83 350 -74V-170Q320 -177 278 -181T203 -186Q120 -186 80 -147Z" />
<glyph unicode="&#xc0;" glyph-name="Agrave" horiz-adv-x="495" d="M367 0L334 156H158L126 0H11L165 688H330L484 0H367ZM249 575H243L179 258H312L249 575ZM217 750L141 889V894H251L304 755V750H217Z" />
<glyph unicode="&#xc1;" glyph-name="Aacute" horiz-adv-x="495" d="M367 0L334 156H158L126 0H11L165 688H330L484 0H367ZM249 575H243L179 258H312L249 575ZM192 750V755L245 894H355V889L278 750H192Z" />
<glyph unicode="&#xc2;" glyph-name="Acircumflex" horiz-adv-x="495" d="M367 0L334 156H158L126 0H11L165 688H330L484 0H367ZM249 575H243L179 258H312L249 575ZM116 750V757L191 883H304L379 757V750H304L247 829L191 750H116Z" />
<glyph unicode="&#xc3;" glyph-name="Atilde" horiz-adv-x="495" d="M367 0L334 156H158L126 0H11L165 688H330L484 0H367ZM249 575H243L179 258H312L249 575ZM398 837T394 813T375 775T328 761Q308 761 288 766T240 780Q237 781 217 787T182 794Q169 794 166
785T162 750H97Q97 798 101 822T120 860T168 874Q188 874 207 870T256 855Q297 842 314 842Q327 842 330 850T333 885H398Q398 837 394 813Z" />
<glyph unicode="&#xc4;" glyph-name="Adieresis" horiz-adv-x="495" d="M367 0L334 156H158L126 0H11L165 688H330L484 0H367ZM249 575H243L179 258H312L249 575ZM112 780V875H209V780H112ZM287 780V875H383V780H287Z" />
<glyph unicode="&#xc5;" glyph-name="Aring" horiz-adv-x="495" d="M484 0H367L334 156H158L126 0H11L165 685Q141 696 135 716T128 779Q128 821 134 842T166 874T246 885Q302 885 327 874T359 842T366 779Q366 738 360 718T330 686L484 0ZM223 829T214 825T202
811T199 779Q199 757 201 748T213 734T246 730Q270 730 280 734T293 747T296 779Q296 801 294 810T281 824T246 829Q223 829 214 825ZM179 258H312L249 575H243L179 258Z" />
<glyph unicode="&#xc6;" glyph-name="AE" horiz-adv-x="674" d="M344 0L323 156H148L103 0H-9L194 688H637V585H377L403 398H609V295H419L447 102H637V0H344ZM268 575H262L175 258H310L268 575Z" />
<glyph unicode="&#xc7;" glyph-name="Ccedilla" horiz-adv-x="396" d="M324 95T366 103V8Q346 1 314 -3T252 -8H235L200 -190H102V-185L163 1Q113 14 88 51T54 156T45 344Q45 492 59 564T117 666T252 696Q283 696 315 692T364 680V585Q311 593 274 593Q217 593
195 578T166 515T159 344Q159 221 165 173T194 110T274 95Q324 95 366 103Z" />
<glyph unicode="&#xc8;" glyph-name="Egrave" horiz-adv-x="423" d="M59 0V688H387V585H173V399H358V296H173V103H387V0H59ZM191 750L115 889V894H225L278 755V750H191Z" />
<glyph unicode="&#xc9;" glyph-name="Eacute" horiz-adv-x="423" d="M59 0V688H387V585H173V399H358V296H173V103H387V0H59ZM183 750V755L236 894H346V889L269 750H183Z" />
<glyph unicode="&#xca;" glyph-name="Ecircumflex" horiz-adv-x="423" d="M59 0V688H387V585H173V399H358V296H173V103H387V0H59ZM89 750V757L164 883H277L352 757V750H277L220 829L164 750H89Z" />
<glyph unicode="&#xcb;" glyph-name="Edieresis" horiz-adv-x="423" d="M59 0V688H387V585H173V399H358V296H173V103H387V0H59ZM86 780V875H183V780H86ZM261 780V875H357V780H261Z" />
<glyph unicode="&#xcc;" glyph-name="Igrave" horiz-adv-x="235" d="M60 0V688H175V0H60ZM87 750L11 889V894H121L174 755V750H87Z" />
<glyph unicode="&#xcd;" glyph-name="Iacute" horiz-adv-x="235" d="M60 0V688H175V0H60ZM63 750V755L116 894H226V889L149 750H63Z" />
<glyph unicode="&#xce;" glyph-name="Icircumflex" horiz-adv-x="235" d="M60 0V688H175V0H60ZM-14 750V757L61 883H174L249 757V750H174L117 829L61 750H-14Z" />
<glyph unicode="&#xcf;" glyph-name="Idieresis" horiz-adv-x="235" d="M60 0V688H175V0H60ZM-18 780V875H79V780H-18ZM157 780V875H253V780H157Z" />
<glyph unicode="&#xd0;" glyph-name="Eth" horiz-adv-x="496" d="M59 298H8V398H59V688H236Q340 688 383 660T438 565T450 344Q450 189 439 123T384 29T236 0H59V298ZM286 103T305 115T330 172T336 344Q336 469 330 515T305 573T233 585H173V398H246V298H173V103H233Q286
103 305 115Z" />
<glyph unicode="&#xd1;" glyph-name="Ntilde" horiz-adv-x="524" d="M359 0L173 425H169V0H59V688H173L351 284H355V688H465V0H359ZM412 837T408 813T389 775T342 761Q322 761 302 766T254 780Q251 781 231 787T196 794Q183 794 180 785T176 750H111Q111 798 115
822T134 860T182 874Q202 874 221 870T270 855Q311 842 328 842Q341 842 344 850T347 885H412Q412 837 408 813Z" />
<glyph unicode="&#xd2;" glyph-name="Ograve" horiz-adv-x="509" d="M153 -8T110 21T56 118T45 344Q45 502 56 569T110 666T254 696Q355 696 398 667T452 569T464 344Q464 187 453 119T398 22T254 -8Q153 -8 110 21ZM303 95T321 107T344 167T350 344Q350 473 345
520T321 580T254 593Q205 593 188 581T165 521T159 344Q159 214 164 167T187 108T254 95Q303 95 321 107ZM214 750L138 889V894H248L301 755V750H214Z" />
<glyph unicode="&#xd3;" glyph-name="Oacute" horiz-adv-x="509" d="M153 -8T110 21T56 118T45 344Q45 502 56 569T110 666T254 696Q355 696 398 667T452 569T464 344Q464 187 453 119T398 22T254 -8Q153 -8 110 21ZM303 95T321 107T344 167T350 344Q350 473 345
520T321 580T254 593Q205 593 188 581T165 521T159 344Q159 214 164 167T187 108T254 95Q303 95 321 107ZM202 750V755L255 894H365V889L288 750H202Z" />
<glyph unicode="&#xd4;" glyph-name="Ocircumflex" horiz-adv-x="509" d="M153 -8T110 21T56 118T45 344Q45 502 56 569T110 666T254 696Q355 696 398 667T452 569T464 344Q464 187 453 119T398 22T254 -8Q153 -8 110 21ZM303 95T321 107T344 167T350 344Q350
473 345 520T321 580T254 593Q205 593 188 581T165 521T159 344Q159 214 164 167T187 108T254 95Q303 95 321 107ZM122 750V757L197 883H310L385 757V750H310L253 829L197 750H122Z" />
<glyph unicode="&#xd5;" glyph-name="Otilde" horiz-adv-x="509" d="M153 -8T110 21T56 118T45 344Q45 502 56 569T110 666T254 696Q355 696 398 667T452 569T464 344Q464 187 453 119T398 22T254 -8Q153 -8 110 21ZM303 95T321 107T344 167T350 344Q350 473 345
520T321 580T254 593Q205 593 188 581T165 521T159 344Q159 214 164 167T187 108T254 95Q303 95 321 107ZM405 837T401 813T382 775T335 761Q315 761 295 766T247 780Q244 781 224 787T189 794Q176 794 173 785T169 750H104Q104 798 108 822T127 860T175 874Q195
874 214 870T263 855Q304 842 321 842Q334 842 337 850T340 885H405Q405 837 401 813Z" />
<glyph unicode="&#xd6;" glyph-name="Odieresis" horiz-adv-x="509" d="M153 -8T110 21T56 118T45 344Q45 502 56 569T110 666T254 696Q355 696 398 667T452 569T464 344Q464 187 453 119T398 22T254 -8Q153 -8 110 21ZM303 95T321 107T344 167T350 344Q350 473
345 520T321 580T254 593Q205 593 188 581T165 521T159 344Q159 214 164 167T187 108T254 95Q303 95 321 107ZM119 780V875H216V780H119ZM294 780V875H390V780H294Z" />
<glyph unicode="&#xd7;" glyph-name="multiply" horiz-adv-x="442" d="M220 186L123 89L56 154L154 252L56 349L123 416L220 319L317 416L384 349L286 252L384 154L317 89L220 186Z" />
<glyph unicode="&#xd8;" glyph-name="Oslash" horiz-adv-x="509" d="M423 643Q449 608 456 543T464 344Q464 187 453 119T398 22T254 -8Q196 -8 164 0L142 -55H45L85 45Q59 80 52 144T45 344Q45 502 56 569T110 666T254 696Q312 696 345 688L367 743H464L423 643ZM303
95T321 107T344 167T350 344Q350 473 345 520T321 580T254 593Q205 593 188 581T165 521T159 344Q159 214 164 167T187 108T254 95Q303 95 321 107Z" />
<glyph unicode="&#xd9;" glyph-name="Ugrave" horiz-adv-x="509" d="M454 688V303Q454 168 442 107T389 19T254 -8Q160 -8 119 18T67 106T55 303V688H169V260Q169 180 173 149T195 106T254 95Q297 95 314 106T335 148T340 260V688H454ZM218 750L142 889V894H252L305
755V750H218Z" />
<glyph unicode="&#xda;" glyph-name="Uacute" horiz-adv-x="509" d="M454 688V303Q454 168 442 107T389 19T254 -8Q160 -8 119 18T67 106T55 303V688H169V260Q169 180 173 149T195 106T254 95Q297 95 314 106T335 148T340 260V688H454ZM208 750V755L261 894H371V889L294
750H208Z" />
<glyph unicode="&#xdb;" glyph-name="Ucircumflex" horiz-adv-x="509" d="M454 688V303Q454 168 442 107T389 19T254 -8Q160 -8 119 18T67 106T55 303V688H169V260Q169 180 173 149T195 106T254 95Q297 95 314 106T335 148T340 260V688H454ZM123 750V757L198 883H311L386
757V750H311L254 829L198 750H123Z" />
<glyph unicode="&#xdc;" glyph-name="Udieresis" horiz-adv-x="509" d="M454 688V303Q454 168 442 107T389 19T254 -8Q160 -8 119 18T67 106T55 303V688H169V260Q169 180 173 149T195 106T254 95Q297 95 314 106T335 148T340 260V688H454ZM118 780V875H215V780H118ZM293
780V875H389V780H293Z" />
<glyph unicode="&#xdd;" glyph-name="Yacute" horiz-adv-x="452" d="M169 0V244L2 688H119L225 383H233L337 688H450L283 244V0H169ZM182 750V755L235 894H345V889L268 750H182Z" />
<glyph unicode="&#xde;" glyph-name="Thorn" horiz-adv-x="470" d="M59 688H173V579H275Q346 579 383 553T432 478T444 351Q444 275 432 227T383 151T274 122H173V0H59V688ZM246 225Q284 225 301 235T324 271T329 351Q329 407 324 431T303 466T247 476H173V225H246Z" />
<glyph unicode="&#xdf;" glyph-name="germandbls" horiz-adv-x="458" d="M215 0V93H235Q272 93 286 101T304 138T309 244Q309 307 303 335T283 373T238 382H224V477H238Q268 477 282 485T300 512T304 568Q304 605 296 624T273 650T230 657Q203 657 189 649T168
617T161 545V0H53V547Q53 620 69 664T125 729T232 750Q332 750 372 709T412 582Q412 515 390 481T320 436V432Q372 420 394 377T417 239Q417 149 405 99T356 25T246 0H215Z" />
<glyph unicode="&#xe0;" glyph-name="agrave" horiz-adv-x="422" d="M84 -8T57 28T29 144Q29 203 41 237T80 286T157 301Q195 301 263 297V322Q263 371 256 392T230 419T168 425Q125 425 53 417V502Q123 518 199 518Q271 518 307 499T357 438T371 316V0H271L267
63H261Q237 -8 147 -8Q84 -8 57 28ZM213 90T226 94T249 110Q263 129 263 194V221H188Q166 221 156 216T141 197T136 154Q136 115 147 103T194 90Q213 90 226 94ZM178 599L102 738V743H212L265 604V599H178Z" />
<glyph unicode="&#xe1;" glyph-name="aacute" horiz-adv-x="422" d="M84 -8T57 28T29 144Q29 203 41 237T80 286T157 301Q195 301 263 297V322Q263 371 256 392T230 419T168 425Q125 425 53 417V502Q123 518 199 518Q271 518 307 499T357 438T371 316V0H271L267
63H261Q237 -8 147 -8Q84 -8 57 28ZM213 90T226 94T249 110Q263 129 263 194V221H188Q166 221 156 216T141 197T136 154Q136 115 147 103T194 90Q213 90 226 94ZM160 599V604L213 743H323V738L246 599H160Z" />
<glyph unicode="&#xe2;" glyph-name="acircumflex" horiz-adv-x="422" d="M84 -8T57 28T29 144Q29 203 41 237T80 286T157 301Q195 301 263 297V322Q263 371 256 392T230 419T168 425Q125 425 53 417V502Q123 518 199 518Q271 518 307 499T357 438T371 316V0H271L267
63H261Q237 -8 147 -8Q84 -8 57 28ZM213 90T226 94T249 110Q263 129 263 194V221H188Q166 221 156 216T141 197T136 154Q136 115 147 103T194 90Q213 90 226 94ZM79 610V617L154 743H267L342 617V610H267L210 689L154 610H79Z" />
<glyph unicode="&#xe3;" glyph-name="atilde" horiz-adv-x="422" d="M84 -8T57 28T29 144Q29 203 41 237T80 286T157 301Q195 301 263 297V322Q263 371 256 392T230 419T168 425Q125 425 53 417V502Q123 518 199 518Q271 518 307 499T357 438T371 316V0H271L267
63H261Q237 -8 147 -8Q84 -8 57 28ZM213 90T226 94T249 110Q263 129 263 194V221H188Q166 221 156 216T141 197T136 154Q136 115 147 103T194 90Q213 90 226 94ZM361 695T357 671T338 633T291 619Q271 619 251 624T203 638Q200 639 180 645T145 652Q132 652 129
643T125 608H60Q60 656 64 680T83 718T131 732Q151 732 170 728T219 713Q260 700 277 700Q290 700 293 708T296 743H361Q361 695 357 671Z" />
<glyph unicode="&#xe4;" glyph-name="adieresis" horiz-adv-x="422" d="M84 -8T57 28T29 144Q29 203 41 237T80 286T157 301Q195 301 263 297V322Q263 371 256 392T230 419T168 425Q125 425 53 417V502Q123 518 199 518Q271 518 307 499T357 438T371 316V0H271L267
63H261Q237 -8 147 -8Q84 -8 57 28ZM213 90T226 94T249 110Q263 129 263 194V221H188Q166 221 156 216T141 197T136 154Q136 115 147 103T194 90Q213 90 226 94ZM76 883V978H173V883H76ZM251 883V978H347V883H251Z" />
<glyph unicode="&#xe5;" glyph-name="aring" horiz-adv-x="422" d="M84 -8T57 28T29 144Q29 203 41 237T80 286T157 301Q195 301 263 297V322Q263 371 256 392T230 419T168 425Q125 425 53 417V502Q123 518 199 518Q271 518 307 499T357 438T371 316V0H271L267
63H261Q237 -8 147 -8Q84 -8 57 28ZM213 90T226 94T249 110Q263 129 263 194V221H188Q166 221 156 216T141 197T136 154Q136 115 147 103T194 90Q213 90 226 94ZM154 841T129 852T98 883T91 946Q91 988 97 1009T129 1041T209 1052Q265 1052 290 1041T322 1009T329
946Q329 904 323 884T291 852T209 841Q154 841 129 852ZM234 897T244 901T256 914T259 946Q259 968 257 977T244 991T209 996Q186 996 177 992T165 978T162 946Q162 924 164 915T176 901T209 897Q234 897 244 901Z" />
<glyph unicode="&#xe6;" glyph-name="ae" horiz-adv-x="648" d="M608 218H370Q370 154 376 129T402 94T472 85Q520 85 595 93V7Q569 0 529 -4T450 -8Q395 -8 362 3T310 41Q286 13 250 3T170 -7Q92 -7 61 28T29 144Q29 203 40 236T80 285T157 300Q204 300 262 298V322Q262
371 255 392T229 419T166 425Q126 425 52 416V502Q136 518 198 518Q282 518 319 480Q359 518 441 518Q521 518 556 493T599 416T608 254V218ZM408 425T394 417T376 383T370 299H504Q504 357 499 382T481 416T440 425Q408 425 394 417ZM262 219H184Q162 219 152
214T137 196T132 153Q132 112 143 99T191 85Q216 85 231 92T253 119Q262 141 262 191V219Z" />
<glyph unicode="&#xe7;" glyph-name="ccedilla" horiz-adv-x="342" d="M313 7Q270 -6 209 -8L174 -190H76V-185L136 0Q94 12 74 42T46 122T39 255Q39 356 51 411T99 492T203 518Q233 518 263 514T310 503V417Q268 425 232 425Q193 425 176 414T153 368T147 255Q147
176 153 142T176 96T232 85Q271 85 313 93V7Z" />
<glyph unicode="&#xe8;" glyph-name="egrave" horiz-adv-x="425" d="M384 218H147Q147 153 153 128T179 94T249 85Q297 85 372 93V8Q347 1 306 -3T225 -8Q141 -8 102 17T51 95T39 254Q39 359 50 412T99 491T218 518Q298 518 332 493T375 417T384 255V218ZM185
425T171 416T153 382T147 298H281V299Q281 357 276 383T258 417T216 425Q185 425 171 416ZM181 599L105 738V743H215L268 604V599H181Z" />
<glyph unicode="&#xe9;" glyph-name="eacute" horiz-adv-x="425" d="M384 218H147Q147 153 153 128T179 94T249 85Q297 85 372 93V8Q347 1 306 -3T225 -8Q141 -8 102 17T51 95T39 254Q39 359 50 412T99 491T218 518Q298 518 332 493T375 417T384 255V218ZM185
425T171 416T153 382T147 298H281V299Q281 357 276 383T258 417T216 425Q185 425 171 416ZM169 599V604L222 743H332V738L255 599H169Z" />
<glyph unicode="&#xea;" glyph-name="ecircumflex" horiz-adv-x="425" d="M384 218H147Q147 153 153 128T179 94T249 85Q297 85 372 93V8Q347 1 306 -3T225 -8Q141 -8 102 17T51 95T39 254Q39 359 50 412T99 491T218 518Q298 518 332 493T375 417T384 255V218ZM185
425T171 416T153 382T147 298H281V299Q281 357 276 383T258 417T216 425Q185 425 171 416ZM86 610V617L161 743H274L349 617V610H274L217 689L161 610H86Z" />
<glyph unicode="&#xeb;" glyph-name="edieresis" horiz-adv-x="425" d="M384 218H147Q147 153 153 128T179 94T249 85Q297 85 372 93V8Q347 1 306 -3T225 -8Q141 -8 102 17T51 95T39 254Q39 359 50 412T99 491T218 518Q298 518 332 493T375 417T384 255V218ZM185
425T171 416T153 382T147 298H281V299Q281 357 276 383T258 417T216 425Q185 425 171 416ZM82 883V978H179V883H82ZM257 883V978H353V883H257Z" />
<glyph unicode="&#xec;" glyph-name="igrave" horiz-adv-x="214" d="M53 0V510H161V0H53ZM329 599L253 738V743H363L416 604V599H329Z" />
<glyph unicode="&#xed;" glyph-name="iacute" horiz-adv-x="214" d="M53 0V510H161V0H53ZM54 599V604L107 743H217V738L140 599H54Z" />
<glyph unicode="&#xee;" glyph-name="icircumflex" horiz-adv-x="214" d="M53 0V510H161V0H53ZM232 610V617L307 743H420L495 617V610H420L363 689L307 610H232Z" />
<glyph unicode="&#xef;" glyph-name="idieresis" horiz-adv-x="214" d="M53 0V510H161V0H53ZM228 883V978H325V883H228ZM403 883V978H499V883H403Z" />
<glyph unicode="&#xf0;" glyph-name="eth" d="M134 -8T97 15T50 89T39 254Q39 355 48 408T87 489T181 517Q231 517 262 500L264 503Q248 565 227 610L137 596V663L195 672Q175 704 147 739V743H258Q278 719 298 688L383 701V634L332 626Q359 564 378 466Q395 391
395 261Q395 144 385 92T338 16T217 -8Q134 -8 97 15ZM253 85T267 95T284 137T287 254Q287 336 284 367T267 412T217 425Q180 425 167 415T150 374T147 254Q147 168 150 137T167 96T217 85Q253 85 267 95Z" />
<glyph unicode="&#xf1;" glyph-name="ntilde" horiz-adv-x="449" d="M290 281Q290 348 286 375T270 409T228 417Q196 417 182 404T165 361T161 266V0H53V510H152L156 446H162Q175 484 204 501T279 518Q329 518 354 499T389 440T398 331V0H290V281ZM378 695T374
671T355 633T308 619Q288 619 268 624T220 638Q217 639 197 645T162 652Q149 652 146 643T142 608H77Q77 656 81 680T100 718T148 732Q168 732 187 728T236 713Q277 700 294 700Q307 700 310 708T313 743H378Q378 695 374 671Z" />
<glyph unicode="&#xf2;" glyph-name="ograve" horiz-adv-x="435" d="M134 -8T97 14T50 88T39 255Q39 371 49 423T97 496T217 518Q300 518 337 497T384 423T395 255Q395 140 385 88T337 14T217 -8Q134 -8 97 14ZM253 85T266 95T283 138T287 255Q287 341 284 372T267
414T217 425Q181 425 168 415T151 373T147 255Q147 170 150 138T167 96T217 85Q253 85 266 95ZM179 599L103 738V743H213L266 604V599H179Z" />
<glyph unicode="&#xf3;" glyph-name="oacute" horiz-adv-x="435" d="M134 -8T97 14T50 88T39 255Q39 371 49 423T97 496T217 518Q300 518 337 497T384 423T395 255Q395 140 385 88T337 14T217 -8Q134 -8 97 14ZM253 85T266 95T283 138T287 255Q287 341 284 372T267
414T217 425Q181 425 168 415T151 373T147 255Q147 170 150 138T167 96T217 85Q253 85 266 95ZM169 599V604L222 743H332V738L255 599H169Z" />
<glyph unicode="&#xf4;" glyph-name="ocircumflex" horiz-adv-x="435" d="M134 -8T97 14T50 88T39 255Q39 371 49 423T97 496T217 518Q300 518 337 497T384 423T395 255Q395 140 385 88T337 14T217 -8Q134 -8 97 14ZM253 85T266 95T283 138T287 255Q287 341 284
372T267 414T217 425Q181 425 168 415T151 373T147 255Q147 170 150 138T167 96T217 85Q253 85 266 95ZM86 610V617L161 743H274L349 617V610H274L217 689L161 610H86Z" />
<glyph unicode="&#xf5;" glyph-name="otilde" horiz-adv-x="435" d="M134 -8T97 14T50 88T39 255Q39 371 49 423T97 496T217 518Q300 518 337 497T384 423T395 255Q395 140 385 88T337 14T217 -8Q134 -8 97 14ZM253 85T266 95T283 138T287 255Q287 341 284 372T267
414T217 425Q181 425 168 415T151 373T147 255Q147 170 150 138T167 96T217 85Q253 85 266 95ZM369 695T365 671T346 633T299 619Q279 619 259 624T211 638Q208 639 188 645T153 652Q140 652 137 643T133 608H68Q68 656 72 680T91 718T139 732Q159 732 178 728T227
713Q268 700 285 700Q298 700 301 708T304 743H369Q369 695 365 671Z" />
<glyph unicode="&#xf6;" glyph-name="odieresis" horiz-adv-x="435" d="M134 -8T97 14T50 88T39 255Q39 371 49 423T97 496T217 518Q300 518 337 497T384 423T395 255Q395 140 385 88T337 14T217 -8Q134 -8 97 14ZM253 85T266 95T283 138T287 255Q287 341 284
372T267 414T217 425Q181 425 168 415T151 373T147 255Q147 170 150 138T167 96T217 85Q253 85 266 95ZM82 883V978H179V883H82ZM257 883V978H353V883H257Z" />
<glyph unicode="&#xf7;" glyph-name="divide" horiz-adv-x="475" d="M190 376V461H285V376H190ZM58 206V299H417V206H58ZM190 44V130H285V44H190Z" />
<glyph unicode="&#xf8;" glyph-name="oslash" horiz-adv-x="435" d="M76 32Q53 59 46 108T39 255Q39 371 49 423T97 496T217 518Q254 518 277 514L299 566H395L358 478Q381 452 388 403T395 255Q395 140 385 88T337 14T217 -8Q180 -8 157 -4L136 -55H39L76 32ZM253
85T266 95T283 138T287 255Q287 341 284 372T267 414T217 425Q181 425 168 415T151 373T147 255Q147 170 150 138T167 96T217 85Q253 85 266 95Z" />
<glyph unicode="&#xf9;" glyph-name="ugrave" horiz-adv-x="449" d="M292 64H286Q273 26 244 9T170 -8Q120 -8 94 11T60 70T51 179V510H159V229Q159 161 162 135T178 101T220 93Q252 93 266 106T284 149T288 244V510H396V0H296L292 64ZM184 599L108 738V743H218L271
604V599H184Z" />
<glyph unicode="&#xfa;" glyph-name="uacute" horiz-adv-x="449" d="M292 64H286Q273 26 244 9T170 -8Q120 -8 94 11T60 70T51 179V510H159V229Q159 161 162 135T178 101T220 93Q252 93 266 106T284 149T288 244V510H396V0H296L292 64ZM177 599V604L230 743H340V738L263
599H177Z" />
<glyph unicode="&#xfb;" glyph-name="ucircumflex" horiz-adv-x="449" d="M292 64H286Q273 26 244 9T170 -8Q120 -8 94 11T60 70T51 179V510H159V229Q159 161 162 135T178 101T220 93Q252 93 266 106T284 149T288 244V510H396V0H296L292 64ZM92 610V617L167 743H280L355
617V610H280L223 689L167 610H92Z" />
<glyph unicode="&#xfc;" glyph-name="udieresis" horiz-adv-x="449" d="M292 64H286Q273 26 244 9T170 -8Q120 -8 94 11T60 70T51 179V510H159V229Q159 161 162 135T178 101T220 93Q252 93 266 106T284 149T288 244V510H396V0H296L292 64ZM87 883V978H184V883H87ZM262
883V978H358V883H262Z" />
<glyph unicode="&#xfd;" glyph-name="yacute" horiz-adv-x="449" d="M175 -200T138 -197T76 -190V-103Q136 -105 187 -105Q236 -105 256 -95T282 -59T288 32V65H281Q260 -2 171 -2Q117 -2 92 20T59 86T51 214V510H159V233Q159 164 162 138T178 104T220 96Q252
96 266 109T284 151T288 247V510H396V64Q396 -40 385 -93T334 -173T211 -200Q175 -200 138 -197ZM177 599V604L230 743H340V738L263 599H177Z" />
<glyph unicode="&#xfe;" glyph-name="thorn" horiz-adv-x="445" d="M53 743H161V448H166Q188 518 273 518Q325 518 353 496T393 417T405 256Q405 153 394 97T355 16T275 -8Q191 -8 166 56H161V-192H53V743ZM261 92T274 101T292 142T297 255Q297 336 293 367T275
408T227 418Q198 418 184 406T166 362Q161 332 161 255Q161 197 164 162Q168 121 182 107T227 92Q261 92 274 101Z" />
<glyph unicode="&#xff;" glyph-name="ydieresis" horiz-adv-x="449" d="M175 -200T138 -197T76 -190V-103Q136 -105 187 -105Q236 -105 256 -95T282 -59T288 32V65H281Q260 -2 171 -2Q117 -2 92 20T59 86T51 214V510H159V233Q159 164 162 138T178 104T220 96Q252
96 266 109T284 151T288 247V510H396V64Q396 -40 385 -93T334 -173T211 -200Q175 -200 138 -197ZM87 883V978H184V883H87ZM262 883V978H358V883H262Z" />
<glyph unicode="&#x2013;" glyph-name="endash" horiz-adv-x="440" d="M47 257V351H394V257H47Z" />
<glyph unicode="&#x2014;" glyph-name="emdash" horiz-adv-x="818" d="M47 257V351H771V257H47Z" />
<glyph unicode="&#x2018;" glyph-name="quoteleft" horiz-adv-x="214" d="M49 525Q49 594 57 627T90 674T171 688V638Q139 638 129 624T119 570V554H163V442H49V525Z" />
<glyph unicode="&#x2019;" glyph-name="quoteright" horiz-adv-x="214" d="M74 491T84 505T95 560V576H50V688H165V605Q165 535 157 503T124 456T42 442V491Q74 491 84 505Z" />
<glyph unicode="&#x201a;" glyph-name="quotesinglbase" horiz-adv-x="219" d="M76 -84T86 -70T97 -16V0H52V112H167V29Q167 -40 159 -73T125 -120T44 -134V-84Q76 -84 86 -70Z" />
<glyph unicode="&#x201c;" glyph-name="quotedblleft" horiz-adv-x="383" d="M49 525Q49 594 57 627T90 674T171 688V638Q139 638 129 624T119 570V554H163V442H49V525ZM218 525Q218 594 226 627T260 674T341 688V638Q309 638 299 624T288 570V554H333V442H218V525Z" />
<glyph unicode="&#x201d;" glyph-name="quotedblright" horiz-adv-x="383" d="M74 491T84 505T95 560V576H50V688H165V605Q165 535 157 503T124 456T42 442V491Q74 491 84 505ZM244 491T254 505T264 560V576H220V688H335V605Q335 536 327 503T293 456T212 442V491Q244
491 254 505Z" />
<glyph unicode="&#x201e;" glyph-name="quotedblbase" horiz-adv-x="389" d="M76 -84T86 -70T97 -16V0H52V112H167V29Q167 -40 159 -73T125 -120T44 -134V-84Q76 -84 86 -70ZM246 -84T256 -70T266 -16V0H222V112H336V29Q336 -40 328 -73T295 -120T214 -134V-84Q246
-84 256 -70Z" />
<glyph unicode="&#x2022;" glyph-name="bullet" horiz-adv-x="292" d="M243 296T238 278T213 252T144 245Q97 245 78 252T53 277T48 342Q48 390 53 408T77 434T144 441Q193 441 212 434T237 409T243 342Q243 296 238 278Z" />
<glyph unicode="&#x2039;" glyph-name="guilsinglleft" horiz-adv-x="247" d="M122 116L33 312L122 510H200L129 312L200 116H122Z" />
<glyph unicode="&#x203a;" glyph-name="guilsinglright" horiz-adv-x="247" d="M45 116L117 312L45 510H123L213 312L123 116H45Z" />
</font>
</defs>
</svg>
