<?xml version="1.0" standalone="no"?>
<!DOCTYPE svg PUBLIC "-//W3C//DTD SVG 1.1//EN" "http://www.w3.org/Graphics/SVG/1.1/DTD/svg11.dtd">
<svg xmlns="http://www.w3.org/2000/svg">
<defs >
<font id="AlegreyaSans" horiz-adv-x="535" ><font-face
    font-family="Alegreya Sans"
    units-per-em="1000"
    panose-1="0 0 8 0 0 0 0 0 0 0"
    ascent="900"
    descent="-300"
    alphabetic="0" />
<glyph unicode=" " glyph-name="space" horiz-adv-x="151" />
<glyph unicode="!" glyph-name="exclam" horiz-adv-x="264" d="M210 650L173 237L98 227L84 240L76 644L88 659L194 666L210 650ZM155 135T172 117T190 67Q190 33 171 13T119 -7Q86 -7 69 11T51 62Q51 95 70 115T124 135Q155 135 172 117Z" />
<glyph unicode="&quot;" glyph-name="quotedbl" horiz-adv-x="354" d="M165 633L130 413L68 404L57 413L55 635L158 642L165 633ZM315 633L280 413L217 404L207 413L205 635L307 642L315 633Z" />
<glyph unicode="#" glyph-name="numbersign" horiz-adv-x="549" d="M418 356L398 252H488L496 243L489 175H383L355 32H278L271 41L297 175H197L169 32H92L86 41L112 175H28L20 184L26 252H127L147 356H61L53 365L59 433H162L189 573H263L272 563L247 433H348L375
573H449L458 563L433 433H520L529 424L522 356H418ZM333 356H232L212 252H312L333 356Z" />
<glyph unicode="$" glyph-name="dollar" horiz-adv-x="450" d="M402 98T364 54T253 -4L245 -136H168L157 -125L165 -7Q98 -2 38 22L55 140L68 149Q101 119 142 101T215 83Q243 83 260 97T278 132Q278 154 258 167T194 198Q149 217 121 233T72 279T51 351Q51 409
90 451T199 507L207 645H283L295 633L287 510Q341 506 390 487L371 375L353 370Q321 394 291 406T236 418Q208 418 192 405T176 372Q176 351 196 338T259 306Q304 287 332 271T381 227T402 155Q402 98 364 54Z" />
<glyph unicode="%" glyph-name="percent" horiz-adv-x="854" d="M666 653L674 634L208 -92L151 -58L145 -44L612 686L666 653ZM267 650T305 605T343 475Q343 384 302 336T181 287Q108 287 70 332T31 462Q31 553 73 601T195 650Q267 650 305 605ZM149 563T132 540T115
469Q115 417 132 393T187 368Q225 368 242 391T260 463Q260 515 242 539T186 563Q149 563 132 540ZM746 358T784 313T822 183Q822 91 781 43T660 -6Q587 -6 549 39T510 169Q510 261 552 309T674 358Q746 358 784 313ZM628 270T611 248T594 176Q594 125 611 100T666
75Q704 75 721 98T739 171Q739 222 721 246T665 270Q628 270 611 248Z" />
<glyph unicode="&amp;" glyph-name="ampersand" horiz-adv-x="711" d="M560 346L557 337Q569 291 569 247Q569 183 545 132L676 14V6Q644 -30 604 -53H595L481 50Q405 -9 283 -9Q173 -9 108 39T42 172Q42 282 156 337V344Q122 379 106 414T90 488Q90 563 144 606T300
650Q388 650 463 620L433 523H416Q355 558 296 558Q252 558 229 538T206 481Q206 456 218 435T262 387L472 197Q482 226 482 263Q482 307 465 346H404L398 354L407 439H696L704 430L695 346H560ZM365 83T410 114L212 293Q156 254 156 194Q156 141 193 112T296 83Q365
83 410 114Z" />
<glyph unicode="&apos;" glyph-name="quotesingle" horiz-adv-x="205" d="M165 633L130 413L68 404L57 413L55 635L158 642L165 633Z" />
<glyph unicode="(" glyph-name="parenleft" horiz-adv-x="295" d="M291 620V609Q231 555 204 471T177 254Q177 128 204 48T291 -88V-99L243 -139H232Q147 -77 109 15T70 253Q71 406 109 502T232 661H243L291 620Z" />
<glyph unicode=")" glyph-name="parenright" horiz-adv-x="300" d="M-1 -99V-88Q59 -34 86 50T113 267Q113 393 86 473T-1 609V620L47 660H58Q143 598 181 506T220 268Q219 115 181 19T58 -140H47L-1 -99Z" />
<glyph unicode="*" glyph-name="asterisk" horiz-adv-x="383" d="M241 734L212 611L170 606L163 613L159 729Q196 742 237 742L241 734ZM149 600L143 558L133 554L27 586Q26 621 37 664L47 667L149 600ZM353 608T368 570L362 564L242 554L223 592L227 601L332
641Q353 608 368 570ZM237 535L305 443Q288 418 250 387L241 389L196 508L226 536L237 535ZM177 516L178 505L118 409Q94 416 46 444L47 453L139 535L177 516Z" />
<glyph unicode="+" glyph-name="plus" horiz-adv-x="480" d="M286 468V305H448L457 296L450 215H286V50L205 44L195 52V215H32L23 224L30 305H195V471L276 478L286 468Z" />
<glyph unicode="," glyph-name="comma" horiz-adv-x="229" d="M188 96T188 46Q188 -41 67 -127L24 -89L23 -79Q78 -33 78 19Q78 53 46 79L47 90Q93 118 143 132Q188 96 188 46Z" />
<glyph unicode="-" glyph-name="hyphen" horiz-adv-x="304" d="M276 308V226L38 189L27 200V283L265 319L276 308Z" />
<glyph unicode="." glyph-name="period" horiz-adv-x="229" d="M148 135T165 117T183 67Q183 33 164 13T112 -7Q79 -7 62 11T44 62Q44 95 63 115T117 135Q148 135 165 117Z" />
<glyph unicode="/" glyph-name="slash" horiz-adv-x="284" d="M306 668L99 -115H7L-1 -104L205 680H295L306 668Z" />
<glyph unicode="0" glyph-name="zero" horiz-adv-x="521" d="M372 513T427 447T483 260Q483 132 423 62T253 -9Q151 -9 95 57T39 242Q39 371 99 442T270 513Q372 513 427 447ZM200 390T171 357T142 251Q142 178 171 143T261 108Q321 108 350 141T380 245Q380 319
350 354T260 390Q200 390 171 357Z" />
<glyph unicode="1" glyph-name="one" horiz-adv-x="360" d="M261 497L253 208L260 0H125L131 194V360L18 330L8 337V444L242 511L261 497Z" />
<glyph unicode="2" glyph-name="two" horiz-adv-x="471" d="M311 511T355 479T399 389Q399 349 373 301T287 189L212 106L214 102H349L439 110L447 101L431 -6L310 0H83L46 -2L39 3V84L174 217Q222 266 245 298T268 354Q268 374 253 386T211 398Q179 398 144 382T79
339H64L42 442Q145 511 242 511Q311 511 355 479Z" />
<glyph unicode="3" glyph-name="three" horiz-adv-x="431" d="M282 513T330 475T378 376Q378 335 355 297T283 231V226Q392 195 392 93Q392 38 361 -5T272 -71T141 -95Q88 -95 33 -85L26 18L35 27Q94 6 146 6Q202 6 233 28T265 90Q265 123 242 141T174 161H104L97
170L101 261L145 263Q183 264 213 287T243 347Q243 374 225 389T175 404Q147 404 119 393T57 357H43L23 454Q109 513 204 513Q282 513 330 475Z" />
<glyph unicode="4" glyph-name="four" horiz-adv-x="503" d="M470 53L387 55L392 -80L385 -89L281 -96L274 -88L277 56H117L30 53L21 65V149L266 506H388L385 158H468L476 146L470 53ZM135 158H279V355H270L135 158Z" />
<glyph unicode="5" glyph-name="five" horiz-adv-x="432" d="M400 503L386 400L376 390L285 400H169L166 288L228 275Q315 257 353 219T392 116Q392 53 360 5T270 -70T136 -97Q84 -97 26 -85L19 19L28 28Q94 5 147 5Q202 5 234 30T266 98Q266 132 243 151T168
180L72 197L63 208L68 493L84 508L142 506H288L392 511L400 503Z" />
<glyph unicode="6" glyph-name="six" horiz-adv-x="483" d="M361 361T405 312T450 187Q450 133 426 88T353 17T238 -10Q139 -10 86 49T33 215Q33 337 109 436T324 596H331L422 537V524Q317 484 259 442T175 342L183 333Q228 361 284 361Q361 361 405 312ZM285
77T307 101T330 171Q330 218 309 243T245 268Q201 268 154 238V217Q154 146 174 112T244 77Q285 77 307 101Z" />
<glyph unicode="7" glyph-name="seven" horiz-adv-x="432" d="M136 506H357L406 508V410L241 50L185 -100L78 -70L70 -49L279 395H114L23 386L15 397L24 509L136 506Z" />
<glyph unicode="8" glyph-name="eight" horiz-adv-x="493" d="M339 595T384 556T430 449Q430 405 407 372T342 312V306Q391 282 419 251T447 166Q447 85 389 38T233 -9Q142 -9 92 33T41 142Q41 194 70 228T151 285V291Q110 314 85 346T60 430Q60 506 114 550T258
595Q339 595 384 556ZM211 503T190 485T169 434Q169 401 192 382T258 345Q290 363 308 383T326 434Q326 466 306 484T249 503Q211 503 190 485ZM195 235T174 215T152 159Q152 123 176 102T244 80Q288 80 312 101T337 156Q337 190 312 209T235 250Q195 235 174 215Z"
/>
<glyph unicode="9" glyph-name="nine" horiz-adv-x="483" d="M344 516T397 457T450 291Q450 169 374 70T159 -90H152L61 -31V-18Q166 22 224 64T308 164L300 173Q255 145 199 145Q122 145 78 194T33 319Q33 373 57 418T130 489T245 516Q344 516 397 457ZM282 238T329
268V289Q329 360 309 394T239 429Q198 429 176 405T153 335Q153 288 174 263T238 238Q282 238 329 268Z" />
<glyph unicode=":" glyph-name="colon" horiz-adv-x="229" d="M400 135T417 117T435 67Q435 33 416 13T364 -7Q331 -7 314 11T296 62Q296 95 315 115T369 135Q400 135 417 117ZM144 398T161 380T179 330Q179 296 160 276T108 256Q75 256 58 274T40 325Q40 358
59 378T113 398Q144 398 161 380Z" />
<glyph unicode=";" glyph-name="semicolon" horiz-adv-x="229" d="M440 96T440 46Q440 -41 319 -127L276 -89L275 -79Q330 -33 330 19Q330 53 298 79L299 90Q345 118 395 132Q440 96 440 46ZM144 398T161 380T179 330Q179 296 160 276T108 256Q75 256 58 274T40
325Q40 358 59 378T113 398Q144 398 161 380Z" />
<glyph unicode="&lt;" glyph-name="less" horiz-adv-x="480" d="M445 395L439 385L128 267V260L440 146L421 72L409 63L34 206V314L43 326L416 471L445 395Z" />
<glyph unicode="=" glyph-name="equal" horiz-adv-x="480" d="M457 390L450 309H32L23 318L30 399H448L457 390ZM457 457L450 376H32L23 385L30 466H448L457 457Z" />
<glyph unicode="&gt;" glyph-name="greater" horiz-adv-x="480" d="M437 326L446 314V206L71 63L59 72L40 146L352 260V267L41 385L35 395L64 471L437 326Z" />
<glyph unicode="?" glyph-name="question" horiz-adv-x="340" d="M216 661T287 620T358 507Q358 466 335 430T267 369L195 326L193 321L199 236L106 224L97 233L87 353L92 363L182 409Q238 439 238 486Q238 526 195 547T56 575L47 588L71 662L84 669Q216 661 287
620ZM189 135T206 117T224 67Q224 33 205 13T153 -7Q120 -7 103 11T85 62Q85 95 104 115T158 135Q189 135 206 117Z" />
<glyph unicode="@" glyph-name="at" horiz-adv-x="844" d="M823 164T725 83T446 -1L468 156H456Q396 54 337 -7H319Q265 13 242 52T218 153Q218 219 244 283T322 395T451 462H457L534 442L606 464L616 458L569 112L568 91Q647 103 691 160T736 307Q736 382 702
438T605 523T457 551Q356 549 279 504T160 379T117 201Q117 96 164 21T297 -95T497 -135L502 -148L466 -210Q334 -209 236 -163T83 -27T28 185Q28 313 83 415T240 576T473 635Q578 635 657 596T779 483T823 312Q823 164 725 83ZM363 110T384 135T434 211T493 332L495
347V351L431 371Q382 371 354 322T326 195Q326 150 333 130T352 110Q363 110 384 135Z" />
<glyph unicode="A" glyph-name="A" horiz-adv-x="600" d="M584 0H446L430 84L413 144L287 147L176 144L159 91L142 0H8L226 644H387L584 0ZM384 249L308 517H299L211 249L297 247L384 249Z" />
<glyph unicode="B" glyph-name="B" horiz-adv-x="579" d="M484 318T515 281T547 182Q547 -5 254 -5Q168 -5 78 0L85 192L78 644L307 645Q406 645 461 604T516 484Q516 432 491 393T418 334Q484 318 515 281ZM377 510T351 528T260 547H211L208 372L302 369Q340
379 358 402T377 466Q377 510 351 528ZM340 92T374 117T409 189Q409 260 317 277L206 275L205 204L208 96Q243 92 277 92Q340 92 374 117Z" />
<glyph unicode="C" glyph-name="C" horiz-adv-x="517" d="M430 652T505 613L481 500L470 495Q440 516 404 528T330 540Q171 540 171 331Q171 218 212 162T334 105Q371 105 410 116T482 148L494 141L483 26Q407 -9 323 -9Q179 -9 104 75T28 316Q28 476 108 564T336
652Q430 652 505 613Z" />
<glyph unicode="D" glyph-name="D" horiz-adv-x="655" d="M477 648T552 570T627 346Q627 175 543 84T303 -7Q256 -7 191 -5T78 0L85 192L78 644L337 648Q477 648 552 570ZM486 98T486 315Q486 433 448 486T327 540Q274 540 214 535L208 204L211 105Q281 98 327
98Q486 98 486 315Z" />
<glyph unicode="E" glyph-name="E" horiz-adv-x="509" d="M483 112L491 101L482 0H78L85 192L78 644H486L494 633L484 532L330 537L214 536L211 381L322 379L427 382L435 372L426 271L312 274L209 273L208 204L211 107L324 106L483 112Z" />
<glyph unicode="F" glyph-name="F" horiz-adv-x="456" d="M214 536L211 362L301 361L410 364L419 354L409 253L290 256L209 255L208 204L214 0H78L85 192L78 644H461L469 633L459 531L306 537L214 536Z" />
<glyph unicode="G" glyph-name="G" horiz-adv-x="598" d="M469 652T553 613L524 491L511 489Q462 517 424 529T341 542Q252 542 211 489T170 315Q170 235 187 188T242 120T340 98Q361 98 379 101T425 112L427 167L425 269L550 278L547 188L550 31Q430 -9 329 -9Q179
-9 104 73T28 308Q28 475 115 563T364 652Q469 652 553 613Z" />
<glyph unicode="H" glyph-name="H" horiz-adv-x="696" d="M615 204L619 0H484L490 192L489 267L344 268L213 266L212 204L217 0H82L89 192L82 644H219L215 378L353 376L488 378L484 644H622L615 204Z" />
<glyph unicode="I" glyph-name="I" horiz-adv-x="295" d="M208 204L214 0H78L85 192L78 644H216L208 204Z" />
<glyph unicode="J" glyph-name="J" horiz-adv-x="335" d="M251 212L253 121Q253 64 234 24T173 -47T56 -106L15 -34V-22Q77 10 102 41T128 123V199L122 544L16 541L6 551L13 644H258L251 212Z" />
<glyph unicode="K" glyph-name="K" horiz-adv-x="584" d="M453 191T593 28L591 13Q535 -1 459 -10L443 -2Q312 172 210 332L208 204L213 0H78L85 192L78 644H215L210 345L391 582L428 644H574L346 340Q453 191 593 28Z" />
<glyph unicode="L" glyph-name="L" horiz-adv-x="433" d="M431 101L422 0H74L81 192L74 644H212L204 204L207 112H423L431 101Z" />
<glyph unicode="M" glyph-name="M" horiz-adv-x="797" d="M749 0H629L619 195L596 443H586L442 68H337L206 443H197L172 208L158 0H44L109 644H265L291 549L393 244H402L509 549L538 644H691L749 0Z" />
<glyph unicode="N" glyph-name="N" horiz-adv-x="695" d="M610 199L615 0H469L206 436H198L197 222L201 0H78L85 190L79 644H224L487 208H496L493 638L618 646L610 199Z" />
<glyph unicode="O" glyph-name="O" horiz-adv-x="643" d="M469 653T542 571T616 336Q616 170 536 80T310 -10Q175 -10 102 74T28 314Q28 477 107 565T333 653Q469 653 542 571ZM241 544T205 494T169 331Q169 202 204 147T322 92Q402 92 438 142T474 308Q474 435
439 489T321 544Q241 544 205 494Z" />
<glyph unicode="P" glyph-name="P" horiz-adv-x="553" d="M426 645T480 594T535 448Q535 375 503 321T412 236T272 206H208V204L214 0H78L85 192L78 644L325 645Q426 645 480 594ZM394 331T394 436Q394 490 367 516T282 545L214 541L210 309L302 305Q394 331 394 436Z" />
<glyph unicode="Q" glyph-name="Q" horiz-adv-x="649" d="M736 -110Q709 -163 673 -197L662 -201Q476 -132 333 -10H312Q176 -10 102 74T28 314Q28 477 107 565T333 653Q469 653 542 571T616 334Q616 218 574 137T454 19Q585 -61 731 -96L736 -110ZM169 203T205
149T323 95Q401 95 437 146T474 311Q474 436 438 489T320 543Q240 543 205 493T169 329Q169 203 205 149Z" />
<glyph unicode="R" glyph-name="R" horiz-adv-x="590" d="M494 132T571 32L569 17Q504 -6 436 -10L422 1Q350 125 305 217H208V204L214 0H78L85 192L78 644L325 645Q426 645 481 596T536 454Q536 392 505 341T416 256Q494 132 571 32ZM210 322L309 318Q394 347
394 441Q394 492 367 517T282 545L214 541L210 322Z" />
<glyph unicode="S" glyph-name="S" horiz-adv-x="498" d="M367 652T448 619L426 502L406 494Q372 518 336 532T269 546Q229 546 205 525T181 475Q181 446 207 426T291 379Q346 354 380 333T439 276T464 190Q464 135 434 90T349 18T222 -9Q127 -9 31 32L50 158L65
166Q105 131 152 113T237 94Q281 94 305 115T330 167Q330 199 304 219T218 267Q164 291 130 312T72 368T48 453Q48 509 78 554T162 626T285 652Q367 652 448 619Z" />
<glyph unicode="T" glyph-name="T" horiz-adv-x="503" d="M489 633L481 532L360 538H320L315 204L321 0H185L192 192L187 538H147L24 532L15 543L24 644H481L489 633Z" />
<glyph unicode="U" glyph-name="U" horiz-adv-x="638" d="M573 317L572 232Q573 117 505 54T310 -9Q188 -9 124 52T63 227L64 320L61 644H197L190 245Q189 172 221 137T318 102Q448 102 447 238L440 644H578L573 317Z" />
<glyph unicode="V" glyph-name="V" horiz-adv-x="587" d="M369 0H207L10 644H148L164 559L286 126H295L435 552L452 644H586L369 0Z" />
<glyph unicode="W" glyph-name="W" horiz-adv-x="903" d="M686 0H544L448 308H439L342 0H199L19 644H152L162 565L276 140H285L394 487L348 644H486L501 551L617 140H626L756 556L772 644H898L686 0Z" />
<glyph unicode="X" glyph-name="X" horiz-adv-x="623" d="M398 337L606 0H443L413 64L306 231L190 57L161 0H21L227 318L23 644H186L216 579L317 422L422 584L449 644H593L398 337Z" />
<glyph unicode="Y" glyph-name="Y" horiz-adv-x="558" d="M333 179L339 0H204L210 179L209 217L4 644H148L162 599L271 354H280L402 595L421 644H560L335 222L333 179Z" />
<glyph unicode="Z" glyph-name="Z" horiz-adv-x="547" d="M510 546L190 103H406L515 112L520 104L509 -3L364 0H107L30 -4V93L353 540H149L40 531L34 538L44 645L448 644L510 645V546Z" />
<glyph unicode="[" glyph-name="bracketleft" horiz-adv-x="295" d="M295 641V581L188 567V-46L295 -59V-120L289 -126L80 -116L87 261L80 638L289 648L295 641Z" />
<glyph unicode="\" glyph-name="backslash" horiz-adv-x="284" d="M-10 668L1 680H90L297 -104L288 -115H196L-10 668Z" />
<glyph unicode="]" glyph-name="bracketright" horiz-adv-x="295" d="M0 -120V-60L107 -46V567L0 580V641L6 647L215 637L208 260L215 -117L6 -127L0 -120Z" />
<glyph unicode="^" glyph-name="asciicircum" horiz-adv-x="441" d="M425 146L416 135L341 117L228 403H221L103 117L92 112L17 140L161 489L174 496H281L425 146Z" />
<glyph unicode="_" glyph-name="underscore" horiz-adv-x="444" d="M459 -98L452 -173H-6L-15 -163L-8 -89H451L459 -98Z" />
<glyph unicode="`" glyph-name="grave" horiz-adv-x="389" d="M207 657T315 571L283 521L271 520Q193 565 76 638L74 651L122 723L134 724Q207 657 315 571Z" />
<glyph unicode="a" glyph-name="a" horiz-adv-x="481" d="M321 474T364 440T408 343Q408 325 402 229Q401 201 399 172T397 121Q397 104 402 98T420 91Q430 91 446 95L456 87L444 17Q412 -4 371 -8Q341 -5 321 13T294 65H287Q237 12 184 -9Q112 -8 71 29T30 130Q30
180 55 208T133 247L286 276V317Q286 382 222 382Q191 382 157 368T79 324L69 330L54 418Q97 445 146 459T244 474Q321 474 364 440ZM179 186Q163 182 156 173T148 144Q148 118 162 104T201 89Q240 89 283 135L285 209L179 186Z" />
<glyph unicode="b" glyph-name="b" horiz-adv-x="523" d="M400 471T446 412T493 246Q493 123 432 57T263 -10Q212 -10 151 13L81 -12L65 1L72 191L66 692L198 702L194 399H200Q228 426 254 442T312 471Q400 471 446 412ZM313 77T341 113T369 223Q369 292 347 328T279
364Q238 364 193 322L191 208L193 95Q230 77 263 77Q313 77 341 113Z" />
<glyph unicode="c" glyph-name="c" horiz-adv-x="385" d="M285 474T317 468T375 449L353 343L342 338Q291 366 251 366Q205 366 180 333T155 239Q155 169 182 132T259 95Q304 95 359 120L369 112L356 9Q296 -10 233 -10Q137 -10 83 52T29 227Q29 343 88 408T252
474Q285 474 317 468Z" />
<glyph unicode="d" glyph-name="d" horiz-adv-x="526" d="M449 205L452 121Q452 104 456 98T473 91Q484 91 500 95L509 87L498 17Q464 -4 424 -8Q393 -5 372 13T343 62H335Q286 17 235 -7Q137 -7 83 55T29 229Q29 347 91 410T263 473Q292 473 327 467L325 692L457
702L449 205ZM154 383T154 256Q154 177 178 137T248 97Q292 97 329 138L331 193L328 365Q289 383 254 383Q154 383 154 256Z" />
<glyph unicode="e" glyph-name="e" horiz-adv-x="472" d="M421 216L151 214Q160 89 278 89Q340 89 416 124L427 117L407 18Q331 -10 264 -10Q154 -10 92 54T29 231Q29 343 90 408T255 474Q344 474 392 426T441 290Q441 267 436 232L421 216ZM325 305Q325 345 307
365T254 386Q215 386 189 361T154 287L323 291L325 305Z" />
<glyph unicode="f" glyph-name="f" horiz-adv-x="329" d="M344 704T390 695L381 596L372 590Q325 610 290 610Q228 610 227 539L226 461H339L343 454L337 381H224L221 205L228 0H95L103 193L101 381H31L26 388L33 461H100L99 516Q99 606 152 655T303 704Q344 704
390 695Z" />
<glyph unicode="g" glyph-name="g" horiz-adv-x="500" d="M481 395T431 387L429 383Q444 353 444 316Q444 241 390 197T242 152Q214 152 184 157Q175 148 172 143T169 131Q169 113 193 106T269 92Q328 85 367 75T435 40T464 -31Q464 -78 435 -115T353 -174T235
-195Q144 -195 95 -158T46 -60Q77 -17 129 15V20Q95 32 76 53T57 111Q84 144 125 172V177Q89 197 71 229T52 306Q52 384 106 428T253 472Q307 472 351 454Q423 467 498 494L508 485V402Q481 395 431 387ZM287 232T308 253T329 314Q329 390 251 390Q167 390 167
313Q167 273 187 253T246 232Q287 232 308 253ZM352 -28T324 -18T236 -1L202 4Q178 -12 166 -27T154 -59Q154 -85 178 -101T248 -117Q295 -117 323 -101T352 -55Q352 -28 324 -18Z" />
<glyph unicode="h" glyph-name="h" horiz-adv-x="533" d="M351 290Q352 326 336 345T289 364Q244 364 193 321L191 205L198 0H65L72 193L66 692L199 702L194 399H200Q255 449 321 471Q397 471 436 437T475 337L472 204L477 0H344L351 290Z" />
<glyph unicode="i" glyph-name="i" horiz-adv-x="261" d="M70 192L65 456L196 467L190 205L196 0H63L70 192ZM164 693T181 675T199 625Q199 591 180 571T128 551Q95 551 78 569T60 620Q60 653 79 673T133 693Q164 693 181 675Z" />
<glyph unicode="j" glyph-name="j" horiz-adv-x="285" d="M220 465L212 205L218 27Q218 -52 180 -104T55 -195L9 -136V-124Q54 -99 73 -65T92 23L94 192L90 381H9L1 389L8 461H92L216 468L220 465ZM174 693T191 675T209 625Q209 591 190 571T138 551Q105 551 88
569T70 620Q70 653 89 673T143 693Q174 693 191 675Z" />
<glyph unicode="k" glyph-name="k" horiz-adv-x="495" d="M191 205L198 0H65L72 193L66 692L199 702L191 205ZM326 255Q380 168 488 22L487 8Q452 0 413 -4T364 -10L350 -4Q262 120 198 243V252L314 417L338 465H478L326 255Z" />
<glyph unicode="l" glyph-name="l" horiz-adv-x="263" d="M191 205L198 0H65L72 193L66 692L199 702L191 205Z" />
<glyph unicode="m" glyph-name="m" horiz-adv-x="807" d="M618 0L626 290Q626 364 563 364Q518 364 469 324L466 204L472 0H339L347 290Q348 326 332 345T284 364Q240 364 187 322V205L193 0H61L68 192L63 456L188 467V399H195Q250 449 316 471Q428 471 459 396H465Q522
449 595 471Q671 471 710 437T748 337L745 204L751 0H618Z" />
<glyph unicode="n" glyph-name="n" horiz-adv-x="529" d="M347 290Q348 325 332 344T284 364Q239 364 188 321V205L194 0H61L68 192L63 456L189 467V399H196Q251 449 316 471Q392 471 432 437T470 337L467 204L473 0H339L347 290Z" />
<glyph unicode="o" glyph-name="o" horiz-adv-x="494" d="M356 474T410 414T464 241Q464 119 406 55T239 -10Q137 -10 83 50T29 223Q29 345 87 409T254 474Q356 474 410 414ZM197 384T176 352T154 249Q154 157 176 118T248 79Q296 79 317 110T339 214Q339 305
317 344T245 384Q197 384 176 352Z" />
<glyph unicode="p" glyph-name="p" horiz-adv-x="518" d="M394 471T441 412T488 245Q488 123 428 57T257 -10Q225 -10 190 -4L193 -185H61L68 192L62 456L189 467L188 399H195Q223 426 249 442T307 471Q394 471 441 412ZM310 77T337 114T364 223Q364 293 342 328T275
364Q232 364 188 321L187 205L189 92Q225 77 258 77Q310 77 337 114Z" />
<glyph unicode="q" glyph-name="q" horiz-adv-x="519" d="M446 473L457 467L449 205L456 -185H324L330 25V50H322Q281 15 232 -7Q135 -7 82 55T29 227Q29 346 91 409T257 473Q311 473 377 451L446 473ZM154 383T154 251Q154 176 177 137T246 97Q267 97 287 106T330
138L331 191L328 362Q288 383 253 383Q154 383 154 251Z" />
<glyph unicode="r" glyph-name="r" horiz-adv-x="348" d="M327 466T343 464V341L329 336Q312 343 292 343Q234 343 187 268V205L194 0H61L69 192L63 456L189 467L188 376H196Q245 466 318 466Q327 466 343 464Z" />
<glyph unicode="s" glyph-name="s" horiz-adv-x="384" d="M285 473T345 450L327 352L311 347Q282 366 253 376T202 386Q178 386 164 374T150 343Q150 322 168 309T227 280Q267 264 293 249T337 208T356 142Q356 102 336 68T273 12T170 -10Q98 -10 21 20L36 124L49
132Q80 106 118 91T185 75Q212 75 227 88T242 121Q242 142 224 155T165 184Q124 202 98 216T54 258T35 325Q35 390 84 431T217 473Q285 473 345 450Z" />
<glyph unicode="t" glyph-name="t" horiz-adv-x="338" d="M281 98T316 115L327 105L314 26Q263 0 210 -6Q75 8 75 126L80 209L79 381H17L12 388L19 461H78V538L199 577L208 569L205 461H324L328 454L322 381H203L197 157Q197 125 209 112T249 98Q281 98 316 115Z" />
<glyph unicode="u" glyph-name="u" horiz-adv-x="522" d="M505 87L493 17Q456 -7 417 -8Q388 -3 369 15T340 67H331Q274 11 213 -6Q137 -6 98 28T59 128L61 246L56 456L185 467L182 172Q181 137 196 119T241 101Q285 101 328 140V456L455 467L446 121Q446 105
451 98T469 91Q480 91 496 95L505 87Z" />
<glyph unicode="v" glyph-name="v" horiz-adv-x="445" d="M148 391L218 125H225L309 384L326 465H442L286 0H143L11 462L135 468L148 391Z" />
<glyph unicode="w" glyph-name="w" horiz-adv-x="698" d="M145 395L202 134H210L280 388L296 465H425L435 395L494 135H502L570 388L586 465H698L553 0H428L357 299H348L265 0H134L13 462L134 468L145 395Z" />
<glyph unicode="x" glyph-name="x" horiz-adv-x="461" d="M176 413L240 309L303 417L328 464H445L311 236L451 4L311 -6L288 53L222 160L153 47L131 0H14L149 233L13 461L155 468L176 413Z" />
<glyph unicode="y" glyph-name="y" horiz-adv-x="447" d="M141 394L224 134H232L315 383L332 465H446L294 31Q270 -37 240 -78T165 -146T49 -192L39 -191Q5 -158 -17 -113L-13 -100Q50 -89 91 -68T169 0L-1 462L125 468L141 394Z" />
<glyph unicode="z" glyph-name="z" horiz-adv-x="424" d="M138 465H340L391 466L392 387L167 85H308L393 93L400 84L391 -2L275 0H91L27 -3V75L254 379H120L37 372L29 381L39 467L138 465Z" />
<glyph unicode="{" glyph-name="braceleft" horiz-adv-x="295" d="M248 657T284 648L290 638L279 570Q257 575 243 575Q189 575 189 514Q189 493 201 443Q202 438 207 415T212 374Q212 339 195 313T144 271V266Q177 251 194 225T212 165Q212 142 200 94Q199 87
194 64T189 24Q189 -38 243 -38Q257 -38 279 -33L290 -100L284 -110Q254 -119 220 -119Q154 -119 119 -89T84 -1Q84 34 96 92Q105 137 105 158Q105 219 36 237V300Q105 318 105 379Q105 401 96 446Q84 504 84 539Q84 596 119 626T220 657Q248 657 284 648Z" />
<glyph unicode="|" glyph-name="bar" horiz-adv-x="307" d="M206 794L203 291V-252L113 -259L102 -247L103 281L104 796L196 803L206 794Z" />
<glyph unicode="}" glyph-name="braceright" horiz-adv-x="295" d="M47 -120T11 -111L5 -101L16 -33Q38 -38 52 -38Q106 -38 106 23Q106 44 94 94Q93 99 88 122T83 163Q83 198 100 224T151 266V271Q118 286 101 312T83 372Q83 395 95 443Q96 450 101 473T106 513Q106
575 52 575Q38 575 16 570L5 637L11 647Q41 656 75 656Q141 656 176 626T211 538Q211 503 199 445Q190 400 190 379Q190 318 259 300V237Q190 219 190 158Q190 136 199 91Q211 33 211 -2Q211 -59 176 -89T75 -120Q47 -120 11 -111Z" />
<glyph unicode="~" glyph-name="asciitilde" horiz-adv-x="480" d="M135 236T122 224T78 180H65L30 224V236L112 329L124 334Q146 331 227 307Q236 305 276 293T332 281Q343 281 355 290T390 322L404 337H416L451 294V282L369 189L357 184Q328 188 249 212Q218
221 190 228T150 236Q135 236 122 224Z" />
<glyph unicode="&#xa0;" glyph-name="uni00A0" horiz-adv-x="151" />
<glyph unicode="&#xa1;" glyph-name="exclamdown" horiz-adv-x="264" d="M115 334T98 352T80 402Q80 436 99 456T151 476Q184 476 201 458T219 407Q219 374 200 354T146 334Q115 334 98 352ZM60 -181L97 232L172 242L186 229L194 -175L182 -190L76 -197L60 -181Z" />
<glyph unicode="&#xa2;" glyph-name="cent" horiz-adv-x="383" d="M304 134T359 159L369 151L356 48Q316 36 273 31L263 -124H177L167 -113L176 36Q106 53 68 113T29 266Q29 368 75 431T206 509L215 657H298L312 645L303 509Q344 503 375 488L353 382L342 377Q291
405 251 405Q205 405 180 372T155 278Q155 208 182 171T259 134Q304 134 359 159Z" />
<glyph unicode="&#xa3;" glyph-name="sterling" horiz-adv-x="446" d="M420 87L410 -3L284 0H24L18 7L25 81Q62 90 79 114T97 180V270H24L19 277L25 344H96V412Q95 500 147 547T298 595Q355 595 412 579L404 486L396 481Q334 509 288 509Q212 509 212 431L211
344H350L354 337L348 270H211L210 205Q210 164 202 140T170 92V89H319L415 94L420 87Z" />
<glyph unicode="&#xa4;" glyph-name="currency" horiz-adv-x="435" d="M426 501V489L357 427Q379 391 379 349Q379 314 359 277L429 218L430 206L373 145L361 146L300 215Q263 191 222 191Q183 191 149 212L90 143L78 142L17 199L18 212L86 272Q64 307 64 349Q64
387 85 423L16 482L14 494L71 554H83L146 485Q179 506 222 506Q260 506 293 487L353 556L366 558L426 501ZM184 435T160 411T136 349Q136 311 160 288T222 264Q260 264 284 288T308 349Q308 387 284 411T222 435Q184 435 160 411Z" />
<glyph unicode="&#xa5;" glyph-name="yen" horiz-adv-x="526" d="M363 247L320 172H500L506 166L501 111H314L318 0H204L209 111H33L28 118L32 172H203L164 247H33L28 255L32 308H132L30 504H150L162 468L261 282H269L377 464L394 504H511L398 308H500L506 303L501
247H363Z" />
<glyph unicode="&#xa6;" glyph-name="brokenbar" horiz-adv-x="307" d="M206 794L203 377L112 366L103 374V796L196 803L206 794ZM203 148V-252L113 -259L102 -247L103 150L192 160L203 148Z" />
<glyph unicode="&#xa7;" glyph-name="section" horiz-adv-x="431" d="M361 110T361 54Q361 13 337 -22T269 -77T172 -98Q138 -98 96 -90T21 -69L38 36L50 44Q82 17 118 1T185 -15Q215 -15 231 -1T248 31Q248 51 229 65T167 101Q122 124 95 142T47 190T26 259Q26
302 50 341T116 405Q68 444 68 499Q68 540 92 575T160 631T256 652Q285 652 319 646T381 629L365 528L349 523Q318 544 289 555T238 566Q212 566 196 552T180 520Q180 501 198 488T261 451Q305 429 333 411T382 363T403 294Q403 252 378 214T311 151Q361 110 361
54ZM138 270T151 255T183 228T241 195Q290 223 290 262Q290 282 276 298T244 327T186 360Q138 329 138 290Q138 270 151 255Z" />
<glyph unicode="&#xa8;" glyph-name="dieresis" horiz-adv-x="389" d="M139 682T155 666T171 621Q171 590 154 572T106 554Q77 554 61 570T45 616Q45 646 62 664T111 682Q139 682 155 666ZM312 682T328 666T344 621Q344 590 327 572T280 554Q251 554 235 570T219
616Q219 646 236 664T284 682Q312 682 328 666Z" />
<glyph unicode="&#xa9;" glyph-name="copyright" horiz-adv-x="687" d="M432 598T500 560T605 453T643 293Q643 202 606 133T500 26T343 -12Q254 -12 186 26T81 133T43 293Q43 384 80 453T186 560T343 598Q432 598 500 560ZM268 552T211 520T122 429T90 293Q90
216 121 158T210 67T343 34Q418 34 475 66T564 157T596 293Q596 370 565 428T476 519T343 552Q268 552 211 520ZM408 465T454 448L438 378L432 374Q417 382 398 387T362 392Q323 392 304 371T285 302Q285 200 366 200Q383 200 402 204T438 215L446 211L439 141Q403
127 359 127Q276 127 234 169T192 293Q192 375 237 420T365 465Q408 465 454 448Z" />
<glyph unicode="&#xaa;" glyph-name="ordfeminine" horiz-adv-x="340" d="M232 652T262 628T293 560L290 483Q287 441 287 421Q287 399 300 399Q311 399 316 403L323 397L313 342Q290 325 263 325Q238 325 225 336T205 373H201Q171 337 129 324Q81 325 53 351T25
422Q25 491 98 503L197 519L198 540Q198 561 189 570T158 580Q121 580 62 546L55 549L44 616Q74 633 108 642T176 652Q232 652 262 628ZM143 461Q118 456 118 431Q118 414 126 405T151 395Q174 395 196 419L197 471L143 461Z" />
<glyph unicode="&#xab;" glyph-name="guillemotleft" horiz-adv-x="428" d="M230 215V237L365 415L428 382L430 369L327 228L430 88L428 75L365 41L230 215ZM45 215V237L180 415L243 382L245 369L142 228L245 88L243 75L180 41L45 215Z" />
<glyph unicode="&#xac;" glyph-name="logicalnot" horiz-adv-x="480" d="M432 297V50L351 44L341 52V215H31L22 224L29 305H426L432 297Z" />
<glyph unicode="&#xad;" glyph-name="uni00AD" horiz-adv-x="304" d="M276 308V226L38 189L27 200V283L265 319L276 308Z" />
<glyph unicode="&#xae;" glyph-name="registered" horiz-adv-x="446" d="M307 702T358 651T409 517Q409 432 358 381T223 330Q139 330 88 381T37 517Q37 600 88 651T223 702Q307 702 358 651ZM292 363T334 405T376 517Q376 585 334 627T224 669Q155 669 113 627T71
517Q71 447 113 405T224 363Q292 363 334 405ZM305 543T295 528T268 502Q286 474 317 436L316 431Q299 424 269 422L263 426Q243 458 228 488H197L199 425H151L152 482L151 620L236 621Q269 621 287 605T305 560Q305 543 295 528ZM198 526L229 524Q242 529 248
536T254 556Q254 584 219 585L199 584L198 526Z" />
<glyph unicode="&#xaf;" glyph-name="overscore" horiz-adv-x="389" d="M342 651L336 577H56L47 586L53 660H333L342 651Z" />
<glyph unicode="&#xb0;" glyph-name="degree" horiz-adv-x="293" d="M201 653T238 616T276 523Q276 469 239 432T147 394Q92 394 54 431T16 523Q16 578 54 615T147 653Q201 653 238 616ZM115 595T95 575T74 523Q74 493 94 473T146 452Q177 452 197 472T218 523Q218
554 198 574T146 595Q115 595 95 575Z" />
<glyph unicode="&#xb1;" glyph-name="plusminus" horiz-adv-x="480" d="M286 468V305H448L457 296L450 215H286V50L205 44L195 52V215H32L23 224L30 305H195V471L276 478L286 468ZM457 -36L450 -117H32L23 -108L30 -27H448L457 -36Z" />
<glyph unicode="&#xb2;" glyph-name="uni00B2" horiz-adv-x="361" d="M236 705T270 680T304 611Q304 582 285 548T223 462L172 398L174 396H265L332 400L337 393L326 311L232 315H65L39 314L33 317V379L127 481Q166 526 181 547T197 587Q197 601 187 610T157 620Q136
620 111 608T63 574H51L33 653Q110 705 184 705Q236 705 270 680Z" />
<glyph unicode="&#xb3;" glyph-name="uni00B3" horiz-adv-x="321" d="M208 706T242 681T277 613Q277 588 263 564T216 522V518Q288 497 288 428Q288 375 239 342T110 309Q71 309 34 317L27 391L35 398Q74 387 112 387Q147 387 166 398T185 431Q185 449 172 459T135
469H83L78 476L79 545L110 546Q134 547 151 560T169 593Q169 624 127 624Q96 624 49 599H38L22 669Q82 706 151 706Q208 706 242 681Z" />
<glyph unicode="&#xb4;" glyph-name="acute" horiz-adv-x="389" d="M268 723L316 651L314 638Q292 624 281 618Q156 541 119 520L106 521L74 571Q190 664 255 724L268 723Z" />
<glyph unicode="&#xb5;" glyph-name="uni00B5" horiz-adv-x="541" d="M516 87L504 17Q467 -7 428 -8Q398 -3 379 15T350 67H341Q300 22 246 -6Q209 -6 179 5L192 -185H67L71 192L67 456L192 467V175L191 172H192Q192 101 252 101Q296 101 339 140V456L465 467L457
121Q457 104 462 98T480 91Q490 91 506 95L516 87Z" />
<glyph unicode="&#xb6;" glyph-name="paragraph" horiz-adv-x="522" d="M504 633L495 541H428L423 197L424 136Q424 59 381 8T232 -85L196 -25V-12Q251 18 275 51T299 130V181L294 542H249Q209 536 188 507T167 427Q167 380 191 342T261 281L215 211Q124 232 75
289T25 432Q25 533 88 588T269 644H495L504 633Z" />
<glyph unicode="&#xb7;" glyph-name="middot" horiz-adv-x="229" d="M148 323T165 305T183 255Q183 221 164 201T112 181Q79 181 62 199T44 250Q44 283 63 303T117 323Q148 323 165 305Z" />
<glyph unicode="&#xb8;" glyph-name="cedilla" horiz-adv-x="389" d="M210 -48L244 -67Q266 -79 275 -93T285 -126Q285 -159 259 -180T191 -201Q146 -201 109 -173L118 -117L124 -114Q154 -144 183 -144Q207 -144 207 -123Q207 -116 203 -112T190 -103L141 -75L164
26H228L210 -48Z" />
<glyph unicode="&#xb9;" glyph-name="uni00B9" horiz-adv-x="276" d="M201 695L196 453L200 315H92L96 441V590L17 572L10 577V660L186 706L201 695Z" />
<glyph unicode="&#xba;" glyph-name="ordmasculine" horiz-adv-x="347" d="M250 652T287 612T324 493Q324 410 284 367T168 323Q97 323 60 363T23 482Q23 565 63 608T179 652Q250 652 287 612ZM145 581T133 561T121 493Q121 437 133 415T175 392Q204 392 216 412T228
481Q228 536 216 558T173 581Q145 581 133 561Z" />
<glyph unicode="&#xbb;" glyph-name="guillemotright" horiz-adv-x="428" d="M383 243V221L248 43L185 76L183 89L286 230L183 370L185 383L248 417L383 243ZM455 243V221L320 43L257 76L255 89L358 230L255 370L257 383L320 417L455 243Z" />
<glyph unicode="&#xbc;" glyph-name="onequarter" horiz-adv-x="747" d="M201 639L196 397L200 259H92L96 385V534L17 516L10 521V604L186 650L201 639ZM568 653L575 634L109 -92L52 -58L46 -44L514 686L568 653ZM715 84L662 86L667 7L661 0L578 -4L572 1L574
87H473L407 84L400 93V158L565 386H663L660 165H714L720 156L715 84ZM492 165H576L575 273H569L492 165Z" />
<glyph unicode="&#xbd;" glyph-name="onehalf" horiz-adv-x="741" d="M201 639L196 397L200 259H92L96 385V534L17 516L10 521V604L186 650L201 639ZM568 653L575 634L109 -92L52 -58L46 -44L514 686L568 653ZM616 390T650 365T684 296Q684 267 665 233T603 147L552
83L554 81H645L712 85L717 78L706 -4L612 0H445L419 -1L413 2V64L507 166Q546 211 561 232T577 272Q577 286 567 295T537 305Q516 305 491 293T443 259H431L413 338Q490 390 564 390Q616 390 650 365Z" />
<glyph unicode="&#xbe;" glyph-name="threequarters" horiz-adv-x="792" d="M208 650T242 625T277 557Q277 532 263 508T216 466V462Q288 441 288 372Q288 319 239 286T110 253Q71 253 34 261L27 335L35 342Q74 331 112 331Q147 331 166 342T185 375Q185 393 172
403T135 413H83L78 420L79 489L110 490Q134 491 151 504T169 537Q169 568 127 568Q96 568 49 543H38L22 613Q82 650 151 650Q208 650 242 625ZM613 653L620 634L154 -92L97 -58L91 -44L559 686L613 653ZM760 84L707 86L712 7L706 0L623 -4L617 1L619 87H518L452
84L445 93V158L610 386H708L705 165H759L765 156L760 84ZM537 165H621L620 273H614L537 165Z" />
<glyph unicode="&#xbf;" glyph-name="questiondown" horiz-adv-x="340" d="M156 334T139 352T121 402Q121 436 140 456T192 476Q225 476 242 458T260 407Q260 374 241 354T187 334Q156 334 139 352ZM129 -192T58 -151T-13 -38Q-13 3 10 39T78 100L150 143L152
148L146 233L239 245L248 236L258 116L253 106L163 60Q107 30 107 -17Q107 -57 150 -78T289 -106L298 -119L274 -193L261 -200Q129 -192 58 -151Z" />
<glyph unicode="&#xc0;" glyph-name="Agrave" horiz-adv-x="600" d="M584 0H446L430 84L413 144L287 147L176 144L159 91L142 0H8L226 644H387L584 0ZM384 249L308 517H299L211 249L297 247L384 249ZM303 840T428 776L407 721L394 717Q273 758 179 795L175 807L208
886L221 889Q303 840 428 776Z" />
<glyph unicode="&#xc1;" glyph-name="Aacute" horiz-adv-x="600" d="M584 0H446L430 84L413 144L287 147L176 144L159 91L142 0H8L226 644H387L584 0ZM384 249L308 517H299L211 249L297 247L384 249ZM413 886L447 807L443 795Q346 757 227 717L215 721L193 776Q316
838 400 889L413 886Z" />
<glyph unicode="&#xc2;" glyph-name="Acircumflex" horiz-adv-x="600" d="M584 0H446L430 84L413 144L287 147L176 144L159 91L142 0H8L226 644H387L584 0ZM384 249L308 517H299L211 249L297 247L384 249ZM155 781Q224 828 288 885H315Q385 825 449 781L425 728H412L386
743Q344 766 302 791Q264 768 192 728H179L155 781Z" />
<glyph unicode="&#xc3;" glyph-name="Atilde" horiz-adv-x="600" d="M584 0H446L430 84L413 144L287 147L176 144L159 91L142 0H8L226 644H387L584 0ZM384 249L308 517H299L211 249L297 247L384 249ZM475 841V830L405 741L392 736Q365 739 309 755Q304 756 277
763T238 771Q227 771 217 762T194 740T176 720H164L124 759V770L195 859L207 864Q231 861 292 844Q348 829 361 829Q373 829 384 839T408 862T424 880H436L475 841Z" />
<glyph unicode="&#xc4;" glyph-name="Adieresis" horiz-adv-x="600" d="M584 0H446L430 84L413 144L287 147L176 144L159 91L142 0H8L226 644H387L584 0ZM384 249L308 517H299L211 249L297 247L384 249ZM246 861T262 845T278 800Q278 769 261 751T213 733Q184
733 168 749T152 795Q152 825 169 843T218 861Q246 861 262 845ZM419 861T435 845T451 800Q451 769 434 751T387 733Q358 733 342 749T326 795Q326 825 343 843T391 861Q419 861 435 845Z" />
<glyph unicode="&#xc5;" glyph-name="Aring" horiz-adv-x="600" d="M584 0H446L430 84L413 144L287 147L176 144L159 91L142 0H8L226 644H387L584 0ZM384 249L308 517H299L211 249L297 247L384 249ZM348 903T372 879T396 812Q396 765 370 740T297 714Q253 714
229 738T204 808Q204 853 229 878T302 903Q348 903 372 879ZM259 846T259 809Q259 769 300 769Q341 769 341 807Q341 846 299 846Q259 846 259 809Z" />
<glyph unicode="&#xc6;" glyph-name="AE" horiz-adv-x="822" d="M814 101L805 0H416L411 84L394 221L182 165L147 91L117 0H-18L292 644H732L741 633L730 532L575 537H487L509 356L703 406L713 398L724 303L521 255L539 106H641L806 112L814 101ZM382 323L358
517H349L240 286L382 323Z" />
<glyph unicode="&#xc7;" glyph-name="Ccedilla" horiz-adv-x="517" d="M371 105T410 116T482 148L494 141L483 26Q416 -4 343 -9L333 -48L367 -67Q389 -79 398 -93T408 -126Q408 -159 382 -180T314 -201Q269 -201 232 -173L241 -117L247 -114Q277 -144 306 -144Q330
-144 330 -123Q330 -116 326 -112T313 -103L264 -75L280 -7Q156 6 92 88T28 316Q28 476 108 564T336 652Q430 652 505 613L481 500L470 495Q440 516 404 528T330 540Q171 540 171 331Q171 218 212 162T334 105Q371 105 410 116Z" />
<glyph unicode="&#xc8;" glyph-name="Egrave" horiz-adv-x="509" d="M483 112L491 101L482 0H78L85 192L78 644H486L494 633L484 532L330 537L214 536L211 381L322 379L427 382L435 372L426 271L312 274L209 273L208 204L211 107L324 106L483 112ZM284 840T409
776L388 721L375 717Q254 758 160 795L156 807L189 886L202 889Q284 840 409 776Z" />
<glyph unicode="&#xc9;" glyph-name="Eacute" horiz-adv-x="509" d="M483 112L491 101L482 0H78L85 192L78 644H486L494 633L484 532L330 537L214 536L211 381L322 379L427 382L435 372L426 271L312 274L209 273L208 204L211 107L324 106L483 112ZM394 886L428
807L424 795Q327 757 208 717L196 721L174 776Q297 838 381 889L394 886Z" />
<glyph unicode="&#xca;" glyph-name="Ecircumflex" horiz-adv-x="509" d="M483 112L491 101L482 0H78L85 192L78 644H486L494 633L484 532L330 537L214 536L211 381L322 379L427 382L435 372L426 271L312 274L209 273L208 204L211 107L324 106L483 112ZM136 781Q205
828 269 885H296Q366 825 430 781L406 728H393L367 743Q325 766 283 791Q245 768 173 728H160L136 781Z" />
<glyph unicode="&#xcb;" glyph-name="Edieresis" horiz-adv-x="509" d="M483 112L491 101L482 0H78L85 192L78 644H486L494 633L484 532L330 537L214 536L211 381L322 379L427 382L435 372L426 271L312 274L209 273L208 204L211 107L324 106L483 112ZM227 861T243
845T259 800Q259 769 242 751T194 733Q165 733 149 749T133 795Q133 825 150 843T199 861Q227 861 243 845ZM400 861T416 845T432 800Q432 769 415 751T368 733Q339 733 323 749T307 795Q307 825 324 843T372 861Q400 861 416 845Z" />
<glyph unicode="&#xcc;" glyph-name="Igrave" horiz-adv-x="295" d="M208 204L214 0H78L85 192L78 644H216L208 204ZM149 840T274 776L253 721L240 717Q119 758 25 795L21 807L54 886L67 889Q149 840 274 776Z" />
<glyph unicode="&#xcd;" glyph-name="Iacute" horiz-adv-x="295" d="M208 204L214 0H78L85 192L78 644H216L208 204ZM259 886L293 807L289 795Q192 757 73 717L61 721L39 776Q162 838 246 889L259 886Z" />
<glyph unicode="&#xce;" glyph-name="Icircumflex" horiz-adv-x="295" d="M208 204L214 0H78L85 192L78 644H216L208 204ZM1 781Q70 828 134 885H161Q231 825 295 781L271 728H258L232 743Q190 766 148 791Q110 768 38 728H25L1 781Z" />
<glyph unicode="&#xcf;" glyph-name="Idieresis" horiz-adv-x="295" d="M208 204L214 0H78L85 192L78 644H216L208 204ZM110 857T124 842T139 799Q139 770 123 753T79 736Q51 736 36 751T21 795Q21 824 37 840T83 857Q110 857 124 842ZM244 857T259 842T274 799Q274
770 258 753T213 736Q185 736 170 751T155 795Q155 824 172 840T218 857Q244 857 259 842Z" />
<glyph unicode="&#xd0;" glyph-name="Eth" horiz-adv-x="680" d="M502 648T577 570T652 346Q652 175 568 84T328 -7Q281 -7 216 -5T103 0L110 192L109 275H19L13 284L17 365H107L103 644L362 648Q502 648 577 570ZM511 98T511 315Q511 433 473 486T352 540Q299
540 239 535L236 365H352L358 355L353 275H234L233 204L236 105Q306 98 352 98Q511 98 511 315Z" />
<glyph unicode="&#xd1;" glyph-name="Ntilde" horiz-adv-x="695" d="M610 199L615 0H469L206 436H198L197 222L201 0H78L85 190L79 644H224L487 208H496L493 638L618 646L610 199ZM521 841V830L451 741L438 736Q411 739 355 755Q350 756 323 763T284 771Q273 771
263 762T240 740T222 720H210L170 759V770L241 859L253 864Q277 861 338 844Q394 829 407 829Q419 829 430 839T454 862T470 880H482L521 841Z" />
<glyph unicode="&#xd2;" glyph-name="Ograve" horiz-adv-x="643" d="M469 653T542 571T616 336Q616 170 536 80T310 -10Q175 -10 102 74T28 314Q28 477 107 565T333 653Q469 653 542 571ZM241 544T205 494T169 331Q169 202 204 147T322 92Q402 92 438 142T474
308Q474 435 439 489T321 544Q241 544 205 494ZM324 840T449 776L428 721L415 717Q294 758 200 795L196 807L229 886L242 889Q324 840 449 776Z" />
<glyph unicode="&#xd3;" glyph-name="Oacute" horiz-adv-x="643" d="M469 653T542 571T616 336Q616 170 536 80T310 -10Q175 -10 102 74T28 314Q28 477 107 565T333 653Q469 653 542 571ZM241 544T205 494T169 331Q169 202 204 147T322 92Q402 92 438 142T474
308Q474 435 439 489T321 544Q241 544 205 494ZM434 886L468 807L464 795Q367 757 248 717L236 721L214 776Q337 838 421 889L434 886Z" />
<glyph unicode="&#xd4;" glyph-name="Ocircumflex" horiz-adv-x="643" d="M469 653T542 571T616 336Q616 170 536 80T310 -10Q175 -10 102 74T28 314Q28 477 107 565T333 653Q469 653 542 571ZM241 544T205 494T169 331Q169 202 204 147T322 92Q402 92 438 142T474
308Q474 435 439 489T321 544Q241 544 205 494ZM176 781Q245 828 309 885H336Q406 825 470 781L446 728H433L407 743Q365 766 323 791Q285 768 213 728H200L176 781Z" />
<glyph unicode="&#xd5;" glyph-name="Otilde" horiz-adv-x="643" d="M469 653T542 571T616 336Q616 170 536 80T310 -10Q175 -10 102 74T28 314Q28 477 107 565T333 653Q469 653 542 571ZM241 544T205 494T169 331Q169 202 204 147T322 92Q402 92 438 142T474
308Q474 435 439 489T321 544Q241 544 205 494ZM496 841V830L426 741L413 736Q386 739 330 755Q325 756 298 763T259 771Q248 771 238 762T215 740T197 720H185L145 759V770L216 859L228 864Q252 861 313 844Q369 829 382 829Q394 829 405 839T429 862T445 880H457L496
841Z" />
<glyph unicode="&#xd6;" glyph-name="Odieresis" horiz-adv-x="643" d="M469 653T542 571T616 336Q616 170 536 80T310 -10Q175 -10 102 74T28 314Q28 477 107 565T333 653Q469 653 542 571ZM241 544T205 494T169 331Q169 202 204 147T322 92Q402 92 438 142T474
308Q474 435 439 489T321 544Q241 544 205 494ZM267 861T283 845T299 800Q299 769 282 751T234 733Q205 733 189 749T173 795Q173 825 190 843T239 861Q267 861 283 845ZM440 861T456 845T472 800Q472 769 455 751T408 733Q379 733 363 749T347 795Q347 825 364
843T412 861Q440 861 456 845Z" />
<glyph unicode="&#xd7;" glyph-name="multiply" horiz-adv-x="480" d="M419 389V375L304 261L419 145V133L357 80L240 196L123 79L62 133V144L177 261L62 375V389L123 441L240 324L357 441L419 389Z" />
<glyph unicode="&#xd8;" glyph-name="Oslash" horiz-adv-x="643" d="M563 559T589 493T616 336Q616 170 536 80T310 -10Q262 -10 225 0L168 -119L83 -88L78 -76L135 43Q82 84 55 152T28 314Q28 477 107 565T333 653Q379 653 421 642L472 748L555 718L563 704L512
599Q563 559 589 493ZM402 92T438 142T474 308Q474 435 439 489T321 544Q241 544 205 494T169 331Q169 202 204 147T322 92Q402 92 438 142Z" />
<glyph unicode="&#xd9;" glyph-name="Ugrave" horiz-adv-x="638" d="M573 317L572 232Q573 117 505 54T310 -9Q188 -9 124 52T63 227L64 320L61 644H197L190 245Q189 172 221 137T318 102Q448 102 447 238L440 644H578L573 317ZM323 840T448 776L427 721L414 717Q293
758 199 795L195 807L228 886L241 889Q323 840 448 776Z" />
<glyph unicode="&#xda;" glyph-name="Uacute" horiz-adv-x="638" d="M573 317L572 232Q573 117 505 54T310 -9Q188 -9 124 52T63 227L64 320L61 644H197L190 245Q189 172 221 137T318 102Q448 102 447 238L440 644H578L573 317ZM433 886L467 807L463 795Q366 757
247 717L235 721L213 776Q336 838 420 889L433 886Z" />
<glyph unicode="&#xdb;" glyph-name="Ucircumflex" horiz-adv-x="638" d="M573 317L572 232Q573 117 505 54T310 -9Q188 -9 124 52T63 227L64 320L61 644H197L190 245Q189 172 221 137T318 102Q448 102 447 238L440 644H578L573 317ZM175 781Q244 828 308 885H335Q405
825 469 781L445 728H432L406 743Q364 766 322 791Q284 768 212 728H199L175 781Z" />
<glyph unicode="&#xdc;" glyph-name="Udieresis" horiz-adv-x="638" d="M573 317L572 232Q573 117 505 54T310 -9Q188 -9 124 52T63 227L64 320L61 644H197L190 245Q189 172 221 137T318 102Q448 102 447 238L440 644H578L573 317ZM266 861T282 845T298 800Q298
769 281 751T233 733Q204 733 188 749T172 795Q172 825 189 843T238 861Q266 861 282 845ZM439 861T455 845T471 800Q471 769 454 751T407 733Q378 733 362 749T346 795Q346 825 363 843T411 861Q439 861 455 845Z" />
<glyph unicode="&#xdd;" glyph-name="Yacute" horiz-adv-x="558" d="M333 179L339 0H204L210 179L209 217L4 644H148L162 599L271 354H280L402 595L421 644H560L335 222L333 179ZM388 886L422 807L418 795Q321 757 202 717L190 721L168 776Q291 838 375 889L388 886Z" />
<glyph unicode="&#xde;" glyph-name="Thorn" horiz-adv-x="561" d="M432 543T486 493T540 345Q540 232 472 170T276 108L212 107L215 0H78L85 192L80 541L79 542H80L78 644H217L215 543H329Q432 543 486 493ZM350 220T373 251T397 335Q397 390 370 415T286 443L214
440L210 212L304 208Q350 220 373 251Z" />
<glyph unicode="&#xdf;" glyph-name="germandbls" horiz-adv-x="608" d="M416 347T435 329T496 286Q531 266 553 249T590 206T606 143Q606 102 586 67T524 11T422 -10Q353 -10 279 20L295 124L307 132Q337 105 372 90T435 75Q461 75 476 88T492 120Q492 141 476
155T421 193Q384 215 360 233T319 281T302 350Q302 388 316 410T358 460Q382 483 393 500T404 543Q404 576 383 593T323 610Q277 610 251 585T224 505L220 204L227 0H94L101 190L98 381H31L26 388L33 461H97V490Q97 591 160 647T330 704Q420 704 467 665T514 563Q514
525 500 501T457 447Q436 425 426 410T416 374Q416 347 435 329Z" />
<glyph unicode="&#xe0;" glyph-name="agrave" horiz-adv-x="481" d="M321 474T364 440T408 343Q408 325 402 229Q401 201 399 172T397 121Q397 104 402 98T420 91Q430 91 446 95L456 87L444 17Q412 -4 371 -8Q341 -5 321 13T294 65H287Q237 12 184 -9Q112 -8 71
29T30 130Q30 180 55 208T133 247L286 276V317Q286 382 222 382Q191 382 157 368T79 324L69 330L54 418Q97 445 146 459T244 474Q321 474 364 440ZM179 186Q163 182 156 173T148 144Q148 118 162 104T201 89Q240 89 283 135L285 209L179 186ZM246 657T354 571L322
521L310 520Q232 565 115 638L113 651L161 723L173 724Q246 657 354 571Z" />
<glyph unicode="&#xe1;" glyph-name="aacute" horiz-adv-x="481" d="M321 474T364 440T408 343Q408 325 402 229Q401 201 399 172T397 121Q397 104 402 98T420 91Q430 91 446 95L456 87L444 17Q412 -4 371 -8Q341 -5 321 13T294 65H287Q237 12 184 -9Q112 -8 71
29T30 130Q30 180 55 208T133 247L286 276V317Q286 382 222 382Q191 382 157 368T79 324L69 330L54 418Q97 445 146 459T244 474Q321 474 364 440ZM179 186Q163 182 156 173T148 144Q148 118 162 104T201 89Q240 89 283 135L285 209L179 186ZM331 723L379 651L377
638Q355 624 344 618Q219 541 182 520L169 521L137 571Q253 664 318 724L331 723Z" />
<glyph unicode="&#xe2;" glyph-name="acircumflex" horiz-adv-x="481" d="M321 474T364 440T408 343Q408 325 402 229Q401 201 399 172T397 121Q397 104 402 98T420 91Q430 91 446 95L456 87L444 17Q412 -4 371 -8Q341 -5 321 13T294 65H287Q237 12 184 -9Q112
-8 71 29T30 130Q30 180 55 208T133 247L286 276V317Q286 382 222 382Q191 382 157 368T79 324L69 330L54 418Q97 445 146 459T244 474Q321 474 364 440ZM179 186Q163 182 156 173T148 144Q148 118 162 104T201 89Q240 89 283 135L285 209L179 186ZM79 577Q136
629 220 718H249Q327 632 389 577L356 526H343Q277 578 234 618Q195 581 126 526H113L79 577Z" />
<glyph unicode="&#xe3;" glyph-name="atilde" horiz-adv-x="481" d="M321 474T364 440T408 343Q408 325 402 229Q401 201 399 172T397 121Q397 104 402 98T420 91Q430 91 446 95L456 87L444 17Q412 -4 371 -8Q341 -5 321 13T294 65H287Q237 12 184 -9Q112 -8 71
29T30 130Q30 180 55 208T133 247L286 276V317Q286 382 222 382Q191 382 157 368T79 324L69 330L54 418Q97 445 146 459T244 474Q321 474 364 440ZM179 186Q163 182 156 173T148 144Q148 118 162 104T201 89Q240 89 283 135L285 209L179 186ZM408 662V651L338 562L325
557Q298 560 242 576Q237 577 210 584T171 592Q160 592 150 583T127 561T109 541H97L57 580V591L128 680L140 685Q164 682 225 665Q281 650 294 650Q306 650 317 660T341 683T357 701H369L408 662Z" />
<glyph unicode="&#xe4;" glyph-name="adieresis" horiz-adv-x="481" d="M321 474T364 440T408 343Q408 325 402 229Q401 201 399 172T397 121Q397 104 402 98T420 91Q430 91 446 95L456 87L444 17Q412 -4 371 -8Q341 -5 321 13T294 65H287Q237 12 184 -9Q112 -8
71 29T30 130Q30 180 55 208T133 247L286 276V317Q286 382 222 382Q191 382 157 368T79 324L69 330L54 418Q97 445 146 459T244 474Q321 474 364 440ZM179 186Q163 182 156 173T148 144Q148 118 162 104T201 89Q240 89 283 135L285 209L179 186ZM179 682T195 666T211
621Q211 590 194 572T146 554Q117 554 101 570T85 616Q85 646 102 664T151 682Q179 682 195 666ZM352 682T368 666T384 621Q384 590 367 572T320 554Q291 554 275 570T259 616Q259 646 276 664T324 682Q352 682 368 666Z" />
<glyph unicode="&#xe5;" glyph-name="aring" horiz-adv-x="481" d="M321 474T364 440T408 343Q408 325 402 229Q401 201 399 172T397 121Q397 104 402 98T420 91Q430 91 446 95L456 87L444 17Q412 -4 371 -8Q341 -5 321 13T294 65H287Q237 12 184 -9Q112 -8 71
29T30 130Q30 180 55 208T133 247L286 276V317Q286 382 222 382Q191 382 157 368T79 324L69 330L54 418Q97 445 146 459T244 474Q321 474 364 440ZM179 186Q163 182 156 173T148 144Q148 118 162 104T201 89Q240 89 283 135L285 209L179 186ZM281 724T305 700T329
633Q329 586 303 561T230 535Q186 535 162 559T137 629Q137 674 162 699T235 724Q281 724 305 700ZM192 667T192 630Q192 590 233 590Q274 590 274 628Q274 667 232 667Q192 667 192 630Z" />
<glyph unicode="&#xe6;" glyph-name="ae" horiz-adv-x="694" d="M574 473T621 424T668 283Q668 268 667 260L654 244L388 213Q393 149 421 119T506 88Q536 88 570 97T637 124L648 117L629 20Q599 6 563 -2T495 -10Q437 -10 393 11T322 76Q267 18 197 -9Q120 -8
74 27T28 128Q28 177 54 209T131 248L281 264V317Q281 350 266 366T218 382Q159 382 76 323L67 329L51 419Q93 446 140 460T234 474Q320 474 356 421Q382 446 417 459T493 473Q574 473 621 424ZM441 385T414 355T387 279V278L550 301Q551 344 533 365T480 386Q441
385 414 355ZM221 90T240 100T290 139Q283 177 282 198L186 184Q165 180 156 170T147 142Q147 117 161 104T201 90Q221 90 240 100Z" />
<glyph unicode="&#xe7;" glyph-name="ccedilla" horiz-adv-x="385" d="M304 95T359 120L369 112L356 9Q305 -6 260 -9L251 -48L285 -67Q307 -79 316 -93T326 -126Q326 -159 300 -180T232 -201Q187 -201 150 -173L159 -117L165 -114Q195 -144 224 -144Q248 -144
248 -123Q248 -116 244 -112T231 -103L182 -75L197 -8Q117 4 73 65T29 227Q29 343 88 408T252 474Q285 474 317 468T375 449L353 343L342 338Q291 366 251 366Q205 366 180 333T155 239Q155 169 182 132T259 95Q304 95 359 120Z" />
<glyph unicode="&#xe8;" glyph-name="egrave" horiz-adv-x="472" d="M421 216L151 214Q160 89 278 89Q340 89 416 124L427 117L407 18Q331 -10 264 -10Q154 -10 92 54T29 231Q29 343 90 408T255 474Q344 474 392 426T441 290Q441 267 436 232L421 216ZM325 305Q325
345 307 365T254 386Q215 386 189 361T154 287L323 291L325 305ZM257 656T365 570L333 520L321 519Q243 564 126 637L124 650L172 722L184 723Q257 656 365 570Z" />
<glyph unicode="&#xe9;" glyph-name="eacute" horiz-adv-x="472" d="M421 216L151 214Q160 89 278 89Q340 89 416 124L427 117L407 18Q331 -10 264 -10Q154 -10 92 54T29 231Q29 343 90 408T255 474Q344 474 392 426T441 290Q441 267 436 232L421 216ZM325 305Q325
345 307 365T254 386Q215 386 189 361T154 287L323 291L325 305ZM342 722L390 650L388 637Q366 623 355 617Q230 540 193 519L180 520L148 570Q264 663 329 723L342 722Z" />
<glyph unicode="&#xea;" glyph-name="ecircumflex" horiz-adv-x="472" d="M421 216L151 214Q160 89 278 89Q340 89 416 124L427 117L407 18Q331 -10 264 -10Q154 -10 92 54T29 231Q29 343 90 408T255 474Q344 474 392 426T441 290Q441 267 436 232L421 216ZM325
305Q325 345 307 365T254 386Q215 386 189 361T154 287L323 291L325 305ZM90 576Q147 628 231 717H260Q338 631 400 576L367 525H354Q288 577 245 617Q206 580 137 525H124L90 576Z" />
<glyph unicode="&#xeb;" glyph-name="edieresis" horiz-adv-x="472" d="M421 216L151 214Q160 89 278 89Q340 89 416 124L427 117L407 18Q331 -10 264 -10Q154 -10 92 54T29 231Q29 343 90 408T255 474Q344 474 392 426T441 290Q441 267 436 232L421 216ZM325
305Q325 345 307 365T254 386Q215 386 189 361T154 287L323 291L325 305ZM190 681T206 665T222 620Q222 589 205 571T157 553Q128 553 112 569T96 615Q96 645 113 663T162 681Q190 681 206 665ZM363 681T379 665T395 620Q395 589 378 571T331 553Q302 553 286 569T270
615Q270 645 287 663T335 681Q363 681 379 665Z" />
<glyph unicode="&#xec;" glyph-name="igrave" horiz-adv-x="261" d="M70 192L65 456L196 467L190 205L196 0H63L70 192ZM142 657T250 571L218 521L206 520Q128 565 11 638L9 651L57 723L69 724Q142 657 250 571Z" />
<glyph unicode="&#xed;" glyph-name="iacute" horiz-adv-x="261" d="M70 192L65 456L196 467L190 205L196 0H63L70 192ZM227 723L275 651L273 638Q251 624 240 618Q115 541 78 520L65 521L33 571Q149 664 214 724L227 723Z" />
<glyph unicode="&#xee;" glyph-name="icircumflex" horiz-adv-x="261" d="M70 192L65 456L196 467L190 205L196 0H63L70 192ZM-25 577Q32 629 116 718H145Q223 632 285 577L252 526H239Q173 578 130 618Q91 581 22 526H9L-25 577Z" />
<glyph unicode="&#xef;" glyph-name="idieresis" horiz-adv-x="261" d="M70 192L65 456L196 467L190 205L196 0H63L70 192ZM93 678T107 663T122 620Q122 591 106 574T62 557Q34 557 19 572T4 616Q4 645 20 661T66 678Q93 678 107 663ZM227 678T242 663T257 620Q257
591 241 574T196 557Q168 557 153 572T138 616Q138 645 155 661T201 678Q227 678 242 663Z" />
<glyph unicode="&#xf0;" glyph-name="eth" horiz-adv-x="497" d="M386 523T424 436T462 248Q462 124 405 57T242 -10Q143 -10 88 50T33 224Q33 337 87 398T245 459Q271 459 290 455Q262 500 214 538L98 472L87 476L60 529L151 581Q104 608 52 631V647L135 709H143Q212
674 255 641L364 703L375 700L402 646L311 594Q386 523 424 436ZM300 76T321 113T343 235Q343 293 334 339Q300 369 252 369Q200 369 176 335T152 224Q152 146 176 111T250 76Q300 76 321 113Z" />
<glyph unicode="&#xf1;" glyph-name="ntilde" horiz-adv-x="529" d="M347 290Q348 325 332 344T284 364Q239 364 188 321V205L194 0H61L68 192L63 456L189 467V399H196Q251 449 316 471Q392 471 432 437T470 337L467 204L473 0H339L347 290ZM456 662V651L386 562L373
557Q346 560 290 576Q285 577 258 584T219 592Q208 592 198 583T175 561T157 541H145L105 580V591L176 680L188 685Q212 682 273 665Q329 650 342 650Q354 650 365 660T389 683T405 701H417L456 662Z" />
<glyph unicode="&#xf2;" glyph-name="ograve" horiz-adv-x="494" d="M356 474T410 414T464 241Q464 119 406 55T239 -10Q137 -10 83 50T29 223Q29 345 87 409T254 474Q356 474 410 414ZM197 384T176 352T154 249Q154 157 176 118T248 79Q296 79 317 110T339 214Q339
305 317 344T245 384Q197 384 176 352ZM260 657T368 571L336 521L324 520Q246 565 129 638L127 651L175 723L187 724Q260 657 368 571Z" />
<glyph unicode="&#xf3;" glyph-name="oacute" horiz-adv-x="494" d="M356 474T410 414T464 241Q464 119 406 55T239 -10Q137 -10 83 50T29 223Q29 345 87 409T254 474Q356 474 410 414ZM197 384T176 352T154 249Q154 157 176 118T248 79Q296 79 317 110T339 214Q339
305 317 344T245 384Q197 384 176 352ZM345 723L393 651L391 638Q369 624 358 618Q233 541 196 520L183 521L151 571Q267 664 332 724L345 723Z" />
<glyph unicode="&#xf4;" glyph-name="ocircumflex" horiz-adv-x="494" d="M356 474T410 414T464 241Q464 119 406 55T239 -10Q137 -10 83 50T29 223Q29 345 87 409T254 474Q356 474 410 414ZM197 384T176 352T154 249Q154 157 176 118T248 79Q296 79 317 110T339
214Q339 305 317 344T245 384Q197 384 176 352ZM93 577Q150 629 234 718H263Q341 632 403 577L370 526H357Q291 578 248 618Q209 581 140 526H127L93 577Z" />
<glyph unicode="&#xf5;" glyph-name="otilde" horiz-adv-x="494" d="M356 474T410 414T464 241Q464 119 406 55T239 -10Q137 -10 83 50T29 223Q29 345 87 409T254 474Q356 474 410 414ZM197 384T176 352T154 249Q154 157 176 118T248 79Q296 79 317 110T339 214Q339
305 317 344T245 384Q197 384 176 352ZM422 662V651L352 562L339 557Q312 560 256 576Q251 577 224 584T185 592Q174 592 164 583T141 561T123 541H111L71 580V591L142 680L154 685Q178 682 239 665Q295 650 308 650Q320 650 331 660T355 683T371 701H383L422 662Z"
/>
<glyph unicode="&#xf6;" glyph-name="odieresis" horiz-adv-x="494" d="M356 474T410 414T464 241Q464 119 406 55T239 -10Q137 -10 83 50T29 223Q29 345 87 409T254 474Q356 474 410 414ZM197 384T176 352T154 249Q154 157 176 118T248 79Q296 79 317 110T339
214Q339 305 317 344T245 384Q197 384 176 352ZM193 682T209 666T225 621Q225 590 208 572T160 554Q131 554 115 570T99 616Q99 646 116 664T165 682Q193 682 209 666ZM366 682T382 666T398 621Q398 590 381 572T334 554Q305 554 289 570T273 616Q273 646 290 664T338
682Q366 682 382 666Z" />
<glyph unicode="&#xf7;" glyph-name="divide" horiz-adv-x="480" d="M285 494T300 478T316 434Q316 404 299 387T253 369Q224 369 209 385T193 430Q193 459 210 476T257 494Q285 494 300 478ZM463 296L456 215H38L29 224L36 305H454L463 296ZM285 155T300 139T316
95Q316 65 299 48T253 30Q224 30 209 46T193 91Q193 120 210 137T257 155Q285 155 300 139Z" />
<glyph unicode="&#xf8;" glyph-name="oslash" horiz-adv-x="494" d="M464 362T464 241Q464 119 406 55T239 -10Q205 -10 171 -2L103 -125L27 -88L24 -77L90 43Q29 102 29 223Q29 345 87 409T254 474Q288 474 322 466L381 571L453 535L460 523L403 421Q464 362
464 241ZM296 79T317 110T339 214Q339 305 317 344T245 384Q197 384 176 352T154 249Q154 157 176 118T248 79Q296 79 317 110Z" />
<glyph unicode="&#xf9;" glyph-name="ugrave" horiz-adv-x="522" d="M505 87L493 17Q456 -7 417 -8Q388 -3 369 15T340 67H331Q274 11 213 -6Q137 -6 98 28T59 128L61 246L56 456L185 467L182 172Q181 137 196 119T241 101Q285 101 328 140V456L455 467L446 121Q446
105 451 98T469 91Q480 91 496 95L505 87ZM270 657T378 571L346 521L334 520Q256 565 139 638L137 651L185 723L197 724Q270 657 378 571Z" />
<glyph unicode="&#xfa;" glyph-name="uacute" horiz-adv-x="522" d="M505 87L493 17Q456 -7 417 -8Q388 -3 369 15T340 67H331Q274 11 213 -6Q137 -6 98 28T59 128L61 246L56 456L185 467L182 172Q181 137 196 119T241 101Q285 101 328 140V456L455 467L446 121Q446
105 451 98T469 91Q480 91 496 95L505 87ZM355 723L403 651L401 638Q379 624 368 618Q243 541 206 520L193 521L161 571Q277 664 342 724L355 723Z" />
<glyph unicode="&#xfb;" glyph-name="ucircumflex" horiz-adv-x="522" d="M505 87L493 17Q456 -7 417 -8Q388 -3 369 15T340 67H331Q274 11 213 -6Q137 -6 98 28T59 128L61 246L56 456L185 467L182 172Q181 137 196 119T241 101Q285 101 328 140V456L455 467L446
121Q446 105 451 98T469 91Q480 91 496 95L505 87ZM103 577Q160 629 244 718H273Q351 632 413 577L380 526H367Q301 578 258 618Q219 581 150 526H137L103 577Z" />
<glyph unicode="&#xfc;" glyph-name="udieresis" horiz-adv-x="522" d="M505 87L493 17Q456 -7 417 -8Q388 -3 369 15T340 67H331Q274 11 213 -6Q137 -6 98 28T59 128L61 246L56 456L185 467L182 172Q181 137 196 119T241 101Q285 101 328 140V456L455 467L446
121Q446 105 451 98T469 91Q480 91 496 95L505 87ZM203 682T219 666T235 621Q235 590 218 572T170 554Q141 554 125 570T109 616Q109 646 126 664T175 682Q203 682 219 666ZM376 682T392 666T408 621Q408 590 391 572T344 554Q315 554 299 570T283 616Q283 646
300 664T348 682Q376 682 392 666Z" />
<glyph unicode="&#xfd;" glyph-name="yacute" horiz-adv-x="447" d="M141 394L224 134H232L315 383L332 465H446L294 31Q270 -37 240 -78T165 -146T49 -192L39 -191Q5 -158 -17 -113L-13 -100Q50 -89 91 -68T169 0L-1 462L125 468L141 394ZM325 723L373 651L371
638Q349 624 338 618Q213 541 176 520L163 521L131 571Q247 664 312 724L325 723Z" />
<glyph unicode="&#xfe;" glyph-name="thorn" horiz-adv-x="522" d="M399 471T445 412T492 246Q492 123 431 57T262 -10Q228 -10 193 -1L196 -185H65L71 192L65 692L197 702L193 399H199Q227 426 253 442T311 471Q399 471 445 412ZM311 77T339 113T368 225Q368
293 346 328T279 364Q238 364 192 321L190 207L192 95Q230 77 261 77Q311 77 339 113Z" />
<glyph unicode="&#xff;" glyph-name="ydieresis" horiz-adv-x="447" d="M141 394L224 134H232L315 383L332 465H446L294 31Q270 -37 240 -78T165 -146T49 -192L39 -191Q5 -158 -17 -113L-13 -100Q50 -89 91 -68T169 0L-1 462L125 468L141 394ZM173 682T189 666T205
621Q205 590 188 572T140 554Q111 554 95 570T79 616Q79 646 96 664T145 682Q173 682 189 666ZM346 682T362 666T378 621Q378 590 361 572T314 554Q285 554 269 570T253 616Q253 646 270 664T318 682Q346 682 362 666Z" />
<glyph unicode="&#x2013;" glyph-name="endash" horiz-adv-x="461" d="M478 293L472 213H-9L-17 222L-11 303H470L478 293Z" />
<glyph unicode="&#x2014;" glyph-name="emdash" horiz-adv-x="889" d="M906 293L900 213H-9L-17 222L-11 303H897L906 293Z" />
<glyph unicode="&#x2018;" glyph-name="quoteleft" horiz-adv-x="207" d="M62 408T48 430T34 486Q34 562 126 650L172 620L174 610Q134 566 134 525Q134 501 143 484T174 454V443Q132 411 91 392Q62 408 48 430Z" />
<glyph unicode="&#x2019;" glyph-name="quoteright" horiz-adv-x="207" d="M147 634T161 612T175 556Q175 480 83 392L37 422L35 432Q75 476 75 517Q75 541 66 558T35 588V599Q77 631 118 650Q147 634 161 612Z" />
<glyph unicode="&#x201a;" glyph-name="quotesinglbase" horiz-adv-x="229" d="M188 96T188 46Q188 -41 67 -127L24 -89L23 -79Q78 -33 78 19Q78 53 46 79L47 90Q93 118 143 132Q188 96 188 46Z" />
<glyph unicode="&#x201c;" glyph-name="quotedblleft" horiz-adv-x="372" d="M227 408T213 430T199 486Q199 562 291 650L337 620L339 610Q299 566 299 525Q299 501 308 484T339 454V443Q297 411 256 392Q227 408 213 430ZM62 408T48 430T34 486Q34 562 126 650L172
620L174 610Q134 566 134 525Q134 501 143 484T174 454V443Q132 411 91 392Q62 408 48 430Z" />
<glyph unicode="&#x201d;" glyph-name="quotedblright" horiz-adv-x="366" d="M306 634T320 612T334 556Q334 480 242 392L196 422L194 432Q234 476 234 517Q234 541 225 558T194 588V599Q236 631 277 650Q306 634 320 612ZM147 634T161 612T175 556Q175 480 83
392L37 422L35 432Q75 476 75 517Q75 541 66 558T35 588V599Q77 631 118 650Q147 634 161 612Z" />
<glyph unicode="&#x201e;" glyph-name="quotedblbase" horiz-adv-x="393" d="M353 96T353 46Q353 -41 232 -127L189 -89L188 -79Q243 -33 243 19Q243 53 211 79L212 90Q258 118 308 132Q353 96 353 46ZM188 96T188 46Q188 -41 67 -127L24 -89L23 -79Q78 -33 78
19Q78 53 46 79L47 90Q93 118 143 132Q188 96 188 46Z" />
<glyph unicode="&#x2022;" glyph-name="bullet" horiz-adv-x="268" d="M176 334T197 312T219 249Q219 207 196 182T131 157Q90 157 69 179T47 243Q47 285 71 309T137 334Q176 334 197 312Z" />
<glyph unicode="&#x2039;" glyph-name="guilsinglleft" horiz-adv-x="244" d="M45 215V237L180 415L243 382L245 369L142 228L245 88L243 75L180 41L45 215Z" />
<glyph unicode="&#x203a;" glyph-name="guilsinglright" horiz-adv-x="244" d="M203 243V221L68 43L5 76L3 89L106 230L3 370L5 383L68 417L203 243Z" />
</font>
</defs>
</svg>
