<?xml version="1.0" standalone="no"?>
<!DOCTYPE svg PUBLIC "-//W3C//DTD SVG 1.1//EN" "http://www.w3.org/Graphics/SVG/1.1/DTD/svg11.dtd">
<svg xmlns="http://www.w3.org/2000/svg">
<defs >
<font id="ProzaLibre" horiz-adv-x="1249" ><font-face
    font-family="Proza Libre"
    units-per-em="2048"
    panose-1="2 0 5 5 0 0 0 2 0 4"
    ascent="2030"
    descent="-750"
    alphabetic="0" />
<glyph unicode=" " glyph-name="space" horiz-adv-x="421" />
<glyph unicode="!" glyph-name="exclam" horiz-adv-x="715" d="M251 554L192 1465H514L456 554H251ZM355 -20Q316 -20 283 -6T224 34T184 94T169 167Q169 207 184 242T226 303T286 343T360 358Q399 358 432 343T491 303T531 243T546 169Q546 129 531 95T489 35T428
-5T355 -20Z" />
<glyph unicode="&quot;" glyph-name="quotedbl" horiz-adv-x="1194" d="M125 918Q162 959 194 1002T251 1089T295 1176T322 1260Q309 1273 291 1286T251 1311T208 1331T165 1345Q157 1363 154 1385T150 1428Q150 1466 164 1500T204 1560T264 1601T340 1617Q375
1617 409 1604T471 1563T515 1492T532 1389Q532 1336 517 1274T465 1144T369 1003T222 855L125 918ZM652 918Q726 1000 779 1089T850 1260Q837 1273 819 1286T779 1311T736 1331T693 1345Q685 1363 681 1385T677 1428Q677 1466 691 1500T731 1560T792 1601T867
1617Q902 1617 936 1604T998 1563T1042 1492T1059 1389Q1059 1336 1044 1274T992 1144T896 1003T749 855L652 918Z" />
<glyph unicode="#" glyph-name="numbersign" horiz-adv-x="1785" d="M414 332H145L181 522H450L528 943H259L294 1133H563L625 1465H821L759 1133H1174L1236 1465H1432L1370 1133H1640L1605 943H1335L1257 522H1527L1491 332H1221L1160 0H964L1025 332H610L549
0H353L414 332ZM646 522H1061L1139 943H724L646 522Z" />
<glyph unicode="$" glyph-name="dollar" horiz-adv-x="1369" d="M642 197Q695 197 742 208T825 243T882 302T903 384Q903 441 874 481T798 552T691 608T568 661T445 720T337 798T261 904T232 1050Q232 1131 259 1198T335 1317T453 1402T606 1453V1814H815V1465Q846
1464 884 1460T964 1450T1050 1433T1138 1411L1092 1196L1073 1187Q1023 1209 975 1224T882 1250T800 1264T735 1268Q687 1268 647 1257T577 1225T530 1172T513 1099Q513 1043 542 1004T618 933T727 876T851 823T975 763T1083 687T1160 582T1189 440Q1189 363 1163
296T1089 175T972 81T815 20V-350H606V0Q560 0 507 6T398 25T287 54T180 95L225 311L246 321Q354 266 451 232T642 197Z" />
<glyph unicode="%" glyph-name="percent" horiz-adv-x="2178" d="M1444 1464H1679L732 0H498L1444 1464ZM543 658Q456 658 387 688T270 770T196 895T170 1052Q170 1148 201 1227T287 1364T419 1453T584 1485Q670 1485 739 1456T857 1374T932 1249T958 1092Q958
997 927 918T841 781T710 691T543 658ZM567 841Q600 841 628 856T677 901T709 971T721 1065Q721 1117 710 1160T677 1234T626 1283T560 1301Q527 1301 499 1286T450 1243T418 1173T406 1078Q406 1026 417 983T450 908T501 859T567 841ZM1593 -21Q1506 -21 1437
9T1320 91T1246 216T1220 373Q1220 469 1251 548T1337 685T1469 774T1634 806Q1720 806 1789 777T1907 695T1982 570T2008 413Q2008 318 1977 239T1891 102T1760 12T1593 -21ZM1617 163Q1650 163 1678 178T1727 223T1759 293T1771 387Q1771 438 1760 481T1727 556T1676
604T1610 622Q1577 622 1549 607T1500 564T1468 494T1456 400Q1456 347 1467 304T1500 229T1551 181T1617 163Z" />
<glyph unicode="&amp;" glyph-name="ampersand" horiz-adv-x="1548" d="M1087 1186Q1087 1123 1064 1062T998 945T898 839T770 749Q804 711 837 677T904 610T974 543T1053 472Q1102 551 1129 624T1174 780H1393Q1358 666 1311 562T1207 365Q1274 312 1336 270T1468
184L1329 -24Q1260 19 1193 66T1062 167Q977 78 869 29T615 -20Q503 -20 414 8T261 85T164 202T130 350Q130 422 156 482T226 593T328 687T450 768Q412 809 380 852T323 940T286 1031T272 1127Q272 1205 306 1270T400 1384T542 1458T720 1485Q804 1485 871 1464T987
1404T1061 1310T1087 1186ZM921 278Q874 321 830 361T743 442T658 529T570 628Q489 579 452 522T415 397Q415 346 435 305T490 236T574 192T681 177Q747 177 809 199T921 278ZM526 1134Q526 1100 538 1067T570 1002T613 939T660 881Q748 932 800 999T852 1138Q852
1171 840 1199T807 1246T757 1277T691 1288Q653 1288 623 1276T571 1243T538 1194T526 1134Z" />
<glyph unicode="&apos;" glyph-name="quotesingle" horiz-adv-x="667" d="M125 918Q162 959 194 1002T251 1089T295 1176T322 1260Q309 1273 291 1286T251 1311T208 1331T165 1345Q157 1363 154 1385T150 1428Q150 1466 164 1500T204 1560T264 1601T340 1617Q375
1617 409 1604T471 1563T515 1492T532 1389Q532 1336 517 1274T465 1144T369 1003T222 855L125 918Z" />
<glyph unicode="(" glyph-name="parenleft" horiz-adv-x="849" d="M749 1514Q618 1347 549 1124T479 620Q479 341 548 119T749 -270L615 -373Q513 -276 436 -169T306 59T227 314T200 602Q200 911 305 1166T615 1617L749 1514Z" />
<glyph unicode=")" glyph-name="parenright" horiz-adv-x="850" d="M101 -270Q232 -103 301 120T371 623Q371 902 302 1124T101 1514L235 1617Q337 1519 414 1412T544 1185T623 930T650 641Q650 332 545 77T235 -373L101 -270Z" />
<glyph unicode="*" glyph-name="asterisk" horiz-adv-x="1135" d="M474 1045L465 1061L120 1006L142 1197L466 1150L475 1166L244 1446L433 1522L559 1209H579L698 1522L891 1450L659 1165L667 1149L1015 1200L993 1008L666 1057L657 1041L885 755L695 677L576
999H556L439 682L245 753L474 1045Z" />
<glyph unicode="+" glyph-name="plus" horiz-adv-x="1302" d="M551 689V1102H751V689H1152V494H751V81H551V494H150V689H551Z" />
<glyph unicode="," glyph-name="comma" horiz-adv-x="702" d="M135 -341Q172 -300 204 -257T261 -170T305 -83T332 1Q319 14 301 27T261 52T218 72T175 86Q167 104 164 126T160 169Q160 207 174 241T214 301T274 342T350 358Q385 358 419 345T481 304T525 233T542
130Q542 77 527 15T475 -115T379 -256T232 -404L135 -341Z" />
<glyph unicode="-" glyph-name="hyphen" horiz-adv-x="986" d="M836 689V494H150V689H836Z" />
<glyph unicode="." glyph-name="period" horiz-adv-x="697" d="M346 -20Q307 -20 274 -6T215 34T175 94T160 167Q160 207 175 242T217 303T277 343T351 358Q390 358 423 343T482 303T522 243T537 169Q537 129 522 95T480 35T419 -5T346 -20Z" />
<glyph unicode="/" glyph-name="slash" horiz-adv-x="948" d="M631 1602H844L303 -308H90L631 1602Z" />
<glyph unicode="0" glyph-name="zero" horiz-adv-x="1470" d="M1034 721Q1034 851 1014 956T954 1135T859 1248T730 1288Q660 1288 606 1251T513 1144T455 973T435 745Q435 614 455 509T515 331T612 217T741 177Q811 177 865 214T957 322T1014 493T1034 721ZM1346
758Q1346 572 1297 428T1161 184T959 32T708 -20Q576 -20 468 30T284 173T166 401T124 706Q124 893 173 1038T309 1282T512 1433T761 1485Q893 1485 1000 1435T1185 1292T1304 1063T1346 758Z" />
<glyph unicode="1" glyph-name="one" horiz-adv-x="967" d="M456 0V1154H75V1299Q172 1299 250 1310T392 1342T504 1394T592 1465H757V0H456Z" />
<glyph unicode="2" glyph-name="two" horiz-adv-x="1242" d="M100 82Q280 264 402 405T600 660T707 863T740 1032Q740 1099 718 1146T659 1221T575 1263T478 1276Q439 1276 398 1269T317 1250T241 1223T175 1191V1338Q218 1371 270 1398T379 1444T496 1474T619
1485Q716 1485 795 1459T932 1383T1020 1262T1052 1101Q1052 1008 1017 910T909 702T724 467T458 197H1112L1073 0H100V82Z" />
<glyph unicode="3" glyph-name="three" horiz-adv-x="1191" d="M1024 1192Q1024 1138 1004 1093T943 1007T843 926T705 845V830Q789 815 853 784T962 708T1028 607T1051 488Q1051 433 1033 376T972 264T860 162T690 78T452 21T140 0V197Q314 197 429 218T614 277T711
363T739 468Q739 532 707 575T620 644T496 677T350 680V832Q402 848 465 872T583 931T675 1011T712 1115Q712 1157 692 1187T638 1237T562 1266T474 1276Q434 1276 392 1269T308 1250T228 1222T157 1188V1334Q200 1368 252 1395T363 1443T484 1474T610 1485Q706
1485 782 1461T913 1396T995 1302T1024 1192Z" />
<glyph unicode="4" glyph-name="four" horiz-adv-x="1328" d="M75 519L625 1465H1023V595H1258L1218 399H1023V0H726V399H75V519ZM726 595V1074L735 1292H715L615 1086L329 595H726Z" />
<glyph unicode="5" glyph-name="five" horiz-adv-x="1109" d="M214 1465H964L930 1268H404L373 971Q512 971 623 941T810 856T928 723T969 551Q969 495 953 432T898 308T798 191T645 93T432 25T151 0V197Q294 197 391 222T547 291T631 390T656 507Q656 575 629
625T552 708T433 757T282 773H145L214 1465Z" />
<glyph unicode="6" glyph-name="six" horiz-adv-x="1336" d="M625 798Q670 828 727 850T849 873Q919 873 985 845T1103 767T1186 645T1217 486Q1217 389 1178 298T1065 137T888 23T655 -20Q517 -20 416 28T249 157T151 343T119 561Q119 663 145 770T223 977T353
1166T535 1321T768 1426T1054 1465H1101V1268H1065Q945 1268 851 1243T687 1172T567 1065T488 930T444 776T430 611Q430 519 446 440T494 303T575 211T689 177Q737 177 776 197T844 252T889 337T905 446Q905 497 893 541T856 618T794 668T706 687Q685 687 665 684T625
674V798Z" />
<glyph unicode="7" glyph-name="seven" horiz-adv-x="1100" d="M90 1268L124 1465H1019V1376Q870 1020 743 681T508 0H199Q262 164 327 323T461 640T600 953T747 1268H90Z" />
<glyph unicode="8" glyph-name="eight" horiz-adv-x="1342" d="M454 744Q407 770 361 802T279 877T221 970T199 1086Q199 1169 237 1242T344 1369T505 1454T707 1485Q810 1485 893 1458T1034 1384T1125 1276T1157 1148Q1157 1089 1133 1038T1070 943T980 863T875
796Q943 761 1003 725T1109 644T1180 544T1206 417Q1206 331 1168 253T1056 113T878 16T641 -20Q518 -20 424 11T266 95T168 214T135 351Q135 416 161 472T232 577T334 667T454 744ZM600 673Q510 618 461 554T412 410Q413 359 433 316T489 243T574 195T681 177Q736
177 782 192T861 236T912 302T931 387Q931 439 906 478T837 549T732 611T600 673ZM723 865Q811 920 850 978T888 1100Q887 1148 869 1183T820 1242T752 1277T674 1288Q634 1288 597 1277T531 1244T485 1190T468 1115Q468 1070 487 1035T541 971T622 916T723 865Z"
/>
<glyph unicode="9" glyph-name="nine" horiz-adv-x="1336" d="M711 666Q666 637 609 614T487 591Q417 591 351 619T233 698T150 820T119 979Q119 1075 158 1166T271 1328T448 1442T681 1485Q819 1485 920 1437T1087 1308T1185 1122T1217 904Q1217 801 1191 694T1113
487T983 298T801 143T567 39T282 0H235V197H271Q391 197 485 222T649 293T769 400T848 535T892 689T906 854Q906 945 890 1024T842 1162T761 1254T647 1288Q599 1288 559 1268T491 1212T447 1127T431 1018Q431 967 443 923T480 847T542 796T630 778Q651 778 671
781T711 791V666Z" />
<glyph unicode=":" glyph-name="colon" horiz-adv-x="757" d="M376 -20Q337 -20 304 -6T245 34T205 94T190 167Q190 207 205 242T247 303T307 343T381 358Q420 358 453 343T512 303T552 243T567 169Q567 129 552 95T510 35T449 -5T376 -20ZM376 648Q337 648 304
662T245 702T205 762T190 835Q190 875 205 910T247 971T307 1011T381 1026Q420 1026 453 1011T512 971T552 911T567 837Q567 797 552 763T510 703T449 663T376 648Z" />
<glyph unicode=";" glyph-name="semicolon" horiz-adv-x="762" d="M373 648Q334 648 301 662T242 702T202 762T187 835Q187 875 202 910T244 971T304 1011T378 1026Q417 1026 450 1011T509 971T549 911T564 837Q564 797 549 763T507 703T446 663T373 648ZM165
-341Q202 -300 234 -257T291 -170T335 -83T362 1Q349 14 331 27T291 52T248 72T205 86Q197 104 194 126T190 169Q190 207 204 241T244 301T304 342T380 358Q415 358 449 345T511 304T555 233T572 130Q572 77 557 15T505 -115T409 -256T262 -404L165 -341Z" />
<glyph unicode="&lt;" glyph-name="less" horiz-adv-x="1167" d="M150 692L962 1154V931L385 602L962 272V50L150 511V692Z" />
<glyph unicode="=" glyph-name="equal" horiz-adv-x="1393" d="M1193 465V270H200V465H1193ZM1193 914V719H200V914H1193Z" />
<glyph unicode="&gt;" glyph-name="greater" horiz-adv-x="1167" d="M1017 511L205 50V272L782 602L205 931V1154L1017 692V511Z" />
<glyph unicode="?" glyph-name="question" horiz-adv-x="1036" d="M470 1290Q443 1290 407 1284T331 1265T247 1232T164 1182L147 1191L95 1370Q213 1433 326 1459T542 1485Q648 1485 724 1463T850 1401T922 1310T946 1198Q946 1127 917 1074T845 977T750 894T656
812T583 718T554 598Q554 588 554 576T556 554H351Q346 576 344 596T341 640Q341 709 363 762T418 860T491 941T563 1012T619 1081T641 1157Q641 1188 628 1212T591 1254T536 1280T470 1290ZM461 -20Q422 -20 389 -6T330 34T290 94T275 167Q275 207 290 242T332
303T392 343T465 358Q504 358 538 343T597 303T637 243T652 169Q652 129 637 95T595 35T534 -5T461 -20Z" />
<glyph unicode="@" glyph-name="at" horiz-adv-x="2327" d="M1354 189Q1312 133 1273 93T1197 28T1121 -8T1043 -20Q969 -20 908 14T804 105T736 235T711 388Q711 455 729 521T781 648T866 761T980 850T1122 909T1290 929Q1357 927 1439 913T1613 869V203Q1694
234 1752 286T1847 402T1901 539T1919 685Q1919 821 1866 922T1722 1091T1512 1192T1262 1226Q1085 1226 934 1168T674 1001T502 738T440 394Q440 234 486 101T625 -129T858 -278T1186 -332Q1258 -332 1338 -324T1500 -296T1660 -248T1808 -178V-319Q1739 -373
1654 -412T1479 -477T1296 -515T1118 -528Q993 -528 876 -502T655 -425T467 -298T320 -123T224 99T190 367Q190 526 231 666T345 923T521 1132T744 1289T1003 1387T1285 1421Q1397 1421 1503 1401T1704 1340T1878 1240T2015 1104T2105 933T2137 728Q2137 596 2089
472T1947 244T1714 66T1391 -40L1354 189ZM1355 710Q1329 721 1293 728T1224 735Q1162 735 1116 710T1038 642T991 547T975 438Q975 392 986 348T1017 270T1065 215T1129 194Q1156 194 1186 207T1246 243T1304 300T1355 373V710Z" />
<glyph unicode="A" glyph-name="A" horiz-adv-x="1457" d="M969 359H427L318 0H59L552 1465H905L1397 0H1080L969 359ZM914 545L760 1057L708 1272H688L636 1057L481 545H914Z" />
<glyph unicode="B" glyph-name="B" horiz-adv-x="1396" d="M975 812Q1033 796 1089 767T1189 694T1260 593T1287 466Q1287 382 1245 299T1122 149T922 41T649 0H194V1465H697Q827 1465 925 1440T1090 1370T1189 1268T1222 1145Q1222 1092 1202 1045T1148 957T1069
880T975 812ZM495 197H675Q753 197 810 218T903 274T957 353T975 445Q975 503 952 545T889 614T791 653T667 666H495V197ZM803 853Q857 890 891 945T925 1070Q925 1115 907 1152T855 1214T773 1254T663 1268H495V853H803Z" />
<glyph unicode="C" glyph-name="C" horiz-adv-x="1440" d="M1323 137Q1273 94 1211 64T1081 16T948 -11T823 -20Q674 -20 546 30T325 174T178 399T124 693Q124 818 155 925T243 1121T377 1277T546 1391T740 1461T949 1485Q983 1485 1027 1482T1121 1473T1224 1457T1329
1431L1283 1216L1263 1207Q1165 1253 1078 1270T927 1288Q818 1288 728 1248T572 1135T471 964T435 747Q435 630 470 528T573 351T739 232T963 189Q1051 189 1141 211T1323 283V137Z" />
<glyph unicode="D" glyph-name="D" horiz-adv-x="1654" d="M194 1465H741Q934 1465 1081 1415T1329 1274T1479 1058T1530 783Q1530 691 1510 597T1448 416T1339 253T1181 121T970 32T701 -1L194 0V1465ZM495 197H739Q862 197 952 239T1101 356T1189 530T1218 747Q1218
874 1185 971T1086 1135T927 1234T711 1268H495V197Z" />
<glyph unicode="E" glyph-name="E" horiz-adv-x="1255" d="M194 0V1465H1118L1082 1268H495V853H1010L977 666H495V197H1129L1093 0H194Z" />
<glyph unicode="F" glyph-name="F" horiz-adv-x="1212" d="M194 0V1465H1118L1082 1268H495V853H1010L977 666H495V0H194Z" />
<glyph unicode="G" glyph-name="G" horiz-adv-x="1575" d="M1396 79Q1253 25 1126 3T880 -20Q696 -20 555 30T318 172T173 393T124 682Q124 811 155 921T243 1120T378 1278T550 1392T749 1461T964 1485Q1000 1485 1046 1482T1143 1473T1247 1457T1353 1431L1308
1217L1288 1208Q1189 1254 1099 1271T943 1288Q827 1288 734 1248T574 1136T471 962T435 738Q435 622 468 520T564 342T717 221T923 177Q967 177 1024 184T1130 207V715H1396V79Z" />
<glyph unicode="H" glyph-name="H" horiz-adv-x="1657" d="M194 0V1465H495V858H1162V1465H1463V0H1162V661H495V0H194Z" />
<glyph unicode="I" glyph-name="I" horiz-adv-x="689" d="M495 0H194V1465H495V0Z" />
<glyph unicode="J" glyph-name="J" horiz-adv-x="688" d="M-99 -353Q-10 -295 47 -235T136 -105T181 47T193 229V1465H494V306Q494 165 468 47T381 -170T223 -346T-16 -484L-99 -353Z" />
<glyph unicode="K" glyph-name="K" horiz-adv-x="1562" d="M495 0H194V1465H495V0ZM1133 0L585 740L1156 1465H1452L876 800L1502 0H1133Z" />
<glyph unicode="L" glyph-name="L" horiz-adv-x="1148" d="M194 0V1465H495V197H1063L1027 0H194Z" />
<glyph unicode="M" glyph-name="M" horiz-adv-x="2089" d="M156 0L271 1465H701L967 616L1024 372H1044L1103 617L1369 1465H1821L1936 0H1617L1560 1040L1555 1286H1533L1473 1049L1154 29H879L558 1047L496 1286H474L471 1042L414 0H156Z" />
<glyph unicode="N" glyph-name="N" horiz-adv-x="1708" d="M189 0V1465H603L1159 598L1265 393H1285L1273 624V1465H1519V0H1219L541 1053L443 1250H423L435 1029V0H189Z" />
<glyph unicode="O" glyph-name="O" horiz-adv-x="1754" d="M885 177Q985 177 1065 221T1202 340T1288 514T1318 725Q1318 843 1285 946T1192 1125T1050 1244T868 1288Q767 1288 687 1244T551 1123T466 948T436 738Q436 620 469 518T561 340T703 221T885 177ZM850
-20Q749 -20 656 2T483 66T336 171T223 312T150 489T124 699Q124 815 151 918T229 1108T350 1265T507 1384T694 1459T905 1485Q1005 1485 1097 1464T1270 1400T1417 1296T1530 1154T1604 977T1630 766Q1630 650 1603 547T1526 357T1406 200T1249 81T1061 6T850
-20Z" />
<glyph unicode="P" glyph-name="P" horiz-adv-x="1358" d="M495 0H194V1465H678Q813 1465 921 1434T1104 1343T1220 1197T1260 1003Q1260 885 1216 791T1099 632T929 531T728 496Q714 496 699 496T665 500L681 683Q692 681 704 681T727 680Q782 680 826 701T900
759T947 850T964 968Q964 1048 942 1105T880 1198T781 1251T650 1268H495V0Z" />
<glyph unicode="Q" glyph-name="Q" horiz-adv-x="1746" d="M845 -20Q692 -20 561 31T332 176T180 403T124 702Q124 817 151 919T229 1109T350 1266T507 1384T694 1459T905 1485Q1005 1485 1097 1464T1270 1400T1417 1296T1530 1155T1604 978T1630 767Q1630 637
1596 524T1499 318T1352 156T1167 44L1925 -224L1762 -441L845 -20ZM884 177Q984 177 1064 221T1201 340T1288 515T1318 726Q1318 844 1285 946T1192 1125T1050 1244T868 1288Q767 1288 687 1244T551 1124T466 948T436 738Q436 620 469 518T561 340T703 221T884
177Z" />
<glyph unicode="R" glyph-name="R" horiz-adv-x="1408" d="M495 556V0H194V1465H682Q814 1465 914 1435T1083 1352T1187 1229T1222 1081Q1222 1011 1196 950T1129 836T1036 742T934 667L1352 0H1000L708 556H495ZM495 743H771Q804 761 832 788T881 850T914 926T926
1015Q926 1069 909 1115T857 1195T770 1248T649 1268H495V743Z" />
<glyph unicode="S" glyph-name="S" horiz-adv-x="1227" d="M573 177Q627 177 674 190T757 228T813 291T834 378Q834 437 805 478T729 551T622 607T498 659T374 718T266 796T190 905T161 1057Q161 1156 199 1235T306 1369T472 1455T688 1485Q721 1485 765 1483T860
1474T965 1457T1074 1431L1028 1216L1010 1207Q960 1229 912 1244T819 1270T737 1284T669 1288Q618 1288 576 1276T504 1242T458 1186T442 1109Q442 1050 471 1009T547 935T656 877T780 824T904 765T1012 688T1089 582T1118 436Q1118 339 1079 256T966 111T790
15T560 -20Q510 -20 455 -14T341 4T223 34T109 76L154 291L175 301Q285 245 382 211T573 177Z" />
<glyph unicode="T" glyph-name="T" horiz-adv-x="1354" d="M822 0H521V1268H56L92 1465H1298L1262 1268H822V0Z" />
<glyph unicode="U" glyph-name="U" horiz-adv-x="1546" d="M485 1465V540Q485 447 512 379T584 266T687 199T808 177Q872 177 928 199T1025 266T1091 376T1115 532V1465H1362V557Q1362 445 1325 341T1213 157T1025 28T757 -20Q627 -20 521 17T340 126T225 304T184
548V1465H485Z" />
<glyph unicode="V" glyph-name="V" horiz-adv-x="1459" d="M1136 1465H1402L900 0H557L56 1465H379L696 434L748 225H768L820 434L1136 1465Z" />
<glyph unicode="W" glyph-name="W" horiz-adv-x="2182" d="M1281 1357L1513 436L1556 225H1575L1616 436L1852 1465H2110L1725 0H1367L1152 819L1104 1063H1084L1036 819L821 0H458L72 1465H386L624 436L662 225H681L725 436L957 1357H1281Z" />
<glyph unicode="X" glyph-name="X" horiz-adv-x="1475" d="M57 0L597 733L97 1465H446L664 1114L762 936H782L886 1116L1113 1465H1397L887 769L1418 0H1069L821 389L725 558H705L604 390L341 0H57Z" />
<glyph unicode="Y" glyph-name="Y" horiz-adv-x="1390" d="M839 639V0H538V632L49 1465H394L629 1010L715 812H735L825 1009L1062 1465H1341L839 639Z" />
<glyph unicode="Z" glyph-name="Z" horiz-adv-x="1334" d="M829 1255V1274L640 1268H144L180 1465H1191V1384L560 351L457 208V189L644 197H1239L1203 0H96V76L724 1110L829 1255Z" />
<glyph unicode="[" glyph-name="bracketleft" horiz-adv-x="934" d="M245 1602H814V1407H450V-163H814V-358H245V1602Z" />
<glyph unicode="\" glyph-name="backslash" horiz-adv-x="948" d="M858 -308H645L104 1602H317L858 -308Z" />
<glyph unicode="]" glyph-name="bracketright" horiz-adv-x="934" d="M689 -358H120V-163H484V1407H120V1602H689V-358Z" />
<glyph unicode="^" glyph-name="asciicircum" horiz-adv-x="1169" d="M692 1465L1059 665H844L585 1232L325 665H110L477 1465H692Z" />
<glyph unicode="_" glyph-name="underscore" horiz-adv-x="1067" d="M1027 0V-195H40V0H1027Z" />
<glyph unicode="`" glyph-name="grave" horiz-adv-x="906" d="M481 1240L200 1602H505L706 1240H481Z" />
<glyph unicode="a" glyph-name="a" horiz-adv-x="1199" d="M731 155Q703 131 666 101T583 44T486 -1T377 -20Q314 -20 263 4T175 68T120 163T100 276Q100 347 131 412T229 528T405 607T667 637H723V709Q723 794 670 840T528 886Q492 886 451 878T370 854T291 818T220
773L202 783L149 972Q274 1033 383 1056T594 1080Q688 1080 766 1062T900 1004T987 901T1018 749V291Q1018 274 1020 256T1031 223T1053 199T1090 189Q1104 189 1121 192T1157 203V69Q1097 27 1038 4T922 -20Q882 -20 852 -7T799 30T760 85T731 155ZM723 517H672Q580
517 523 504T433 468T389 412T377 343Q377 304 388 275T418 227T464 199T520 189Q563 189 612 209T723 285V517Z" />
<glyph unicode="b" glyph-name="b" horiz-adv-x="1328" d="M158 1602H453V904Q495 940 538 972T628 1028T723 1066T827 1080Q921 1080 996 1038T1124 925T1205 762T1233 571Q1233 448 1190 341T1062 153T855 26T572 -20Q532 -20 483 -17T381 -6T271 15T158 46V1602ZM453
214Q501 193 546 184T630 174Q705 174 760 204T853 284T909 400T928 535Q928 602 911 663T862 770T782 843T672 871Q627 871 572 850T453 771V214Z" />
<glyph unicode="c" glyph-name="c" horiz-adv-x="1044" d="M948 104Q868 39 780 10T592 -20Q475 -20 383 17T227 120T129 279T95 481Q95 613 142 723T272 913T466 1036T707 1080Q758 1080 826 1071T957 1039L910 833L890 823Q873 835 850 846T799 866T743 880T685
886Q624 886 572 862T482 793T422 683T400 535Q400 447 424 382T493 274T597 210T729 189Q774 189 827 199T948 239V104Z" />
<glyph unicode="d" glyph-name="d" horiz-adv-x="1328" d="M875 848Q819 872 775 879T702 886Q627 886 571 858T476 780T419 663T399 520Q399 449 416 389T464 284T538 214T636 189Q698 189 759 221T875 309V848ZM875 1602H1170V0H923L887 171Q851 138 810 105T722
43T620 -2T505 -20Q409 -20 333 22T204 135T123 296T95 483Q95 610 141 719T269 909T458 1034T692 1080Q746 1080 794 1073T875 1057V1602Z" />
<glyph unicode="e" glyph-name="e" horiz-adv-x="1202" d="M1057 104Q1008 69 954 46T845 8T736 -13T633 -20Q513 -20 414 14T244 114T134 275T95 494Q95 630 141 738T266 923T446 1039T661 1080Q756 1080 837 1050T977 961T1069 813T1102 609Q1102 575 1099 544T1091
486H399Q399 411 425 355T500 262T617 207T769 189Q796 189 830 191T902 198T979 214T1057 239V104ZM832 607Q832 677 816 729T772 817T706 869T624 886Q575 886 534 866T463 809T416 721T399 607H832Z" />
<glyph unicode="f" glyph-name="f" horiz-adv-x="918" d="M245 866H32L52 1002L246 1060V1100Q246 1208 278 1303T373 1469T528 1581T739 1622Q786 1622 837 1615T937 1593L892 1403L873 1393Q844 1409 810 1418T738 1428Q685 1428 648 1407T586 1346T551 1253T540
1134V1060H882L836 866H540V0H245V866Z" />
<glyph unicode="g" glyph-name="g" horiz-adv-x="1254" d="M462 -86Q442 -98 421 -113T383 -146T354 -185T342 -230Q342 -286 406 -323T591 -361Q662 -361 716 -348T808 -311T864 -259T883 -198Q883 -171 870 -150T832 -115T773 -94T698 -86H462ZM303 -65Q226
-39 182 2T138 97Q138 131 156 161T205 218T274 269T352 316Q284 343 238 381T162 464T121 558T108 657Q108 752 149 830T260 963T421 1049T613 1080Q688 1080 759 1063T880 1015Q912 1033 961 1046T1078 1060H1239L1193 867H998Q1004 859 1013 843T1032 804T1047
753T1054 691Q1054 605 1013 532T905 405T749 321T566 290Q536 290 502 293Q488 285 473 275T444 251T422 222T413 190Q413 161 439 143T513 124H771Q843 124 911 108T1034 59T1120 -23T1153 -139Q1153 -210 1113 -284T993 -418T795 -517T520 -556Q424 -556 341
-540T197 -494T102 -422T67 -325Q67 -279 91 -240T150 -169T227 -111T303 -65ZM374 690Q374 642 390 601T435 531T503 486T588 469Q631 469 668 484T734 526T778 593T795 681Q795 729 779 769T734 839T666 885T582 901Q539 901 502 886T436 844T391 777T374 690Z"
/>
<glyph unicode="h" glyph-name="h" horiz-adv-x="1322" d="M158 1602H453V890Q492 923 535 957T628 1018T730 1063T843 1080Q914 1080 973 1054T1074 979T1140 862T1164 710V0H869V672Q869 721 856 758T818 821T762 858T691 871Q627 871 569 839T453 754V0H158V1602Z" />
<glyph unicode="i" glyph-name="i" horiz-adv-x="612" d="M157 1060H452V0H157V1060ZM302 1248Q264 1248 233 1260T180 1292T145 1341T132 1401Q132 1434 145 1463T183 1514T239 1548T310 1561Q348 1561 379 1549T432 1516T467 1467T480 1406Q480 1372 467 1343T429
1293T373 1260T302 1248Z" />
<glyph unicode="j" glyph-name="j" horiz-adv-x="611" d="M-55 -444Q8 -393 49 -332T114 -205T147 -68T157 72V1060H452V140Q452 39 433 -62T365 -254T234 -424T27 -557L-55 -444ZM302 1248Q264 1248 233 1260T179 1292T144 1341T131 1401Q131 1434 144 1463T182
1514T238 1548T310 1561Q347 1561 378 1549T432 1516T466 1467T479 1406Q479 1372 466 1343T429 1293T373 1260T302 1248Z" />
<glyph unicode="k" glyph-name="k" d="M158 1602H453V0H158V1602ZM858 0L502 553L898 1054H1181L786 596L1209 0H858Z" />
<glyph unicode="l" glyph-name="l" horiz-adv-x="611" d="M158 1602H453V0H158V1602Z" />
<glyph unicode="m" glyph-name="m" horiz-adv-x="1984" d="M158 1060H403L441 883Q476 915 519 949T610 1013T710 1061T817 1080Q868 1080 914 1064T997 1021T1063 956T1108 877Q1148 911 1191 947T1282 1012T1383 1061T1498 1080Q1573 1080 1633 1051T1735 972T1799
854T1822 708V0H1527V671Q1527 717 1515 754T1481 817T1427 857T1358 871Q1327 871 1299 862T1244 838T1189 800T1134 753Q1137 732 1137 708V0H842V671Q842 717 830 754T795 817T741 857T672 871Q642 871 615 862T560 838T507 801T453 754V0H158V1060Z" />
<glyph unicode="n" glyph-name="n" horiz-adv-x="1322" d="M158 1060H403L441 883Q475 914 518 948T612 1012T719 1060T838 1080Q911 1080 971 1053T1074 978T1140 861T1164 710V0H869V671Q869 720 855 757T817 820T761 858T690 871Q626 871 568 838T453 754V0H158V1060Z" />
<glyph unicode="o" glyph-name="o" horiz-adv-x="1320" d="M623 -20Q492 -20 394 22T229 135T129 301T95 501Q95 622 138 727T261 911T450 1035T695 1080Q825 1080 924 1038T1090 925T1191 758T1225 557Q1225 434 1181 329T1057 146T867 24T623 -20ZM666 174Q721
174 767 197T848 264T900 371T919 514Q919 590 901 658T849 776T766 856T653 886Q596 886 550 862T470 793T419 685T400 543Q400 464 418 397T471 280T555 202T666 174Z" />
<glyph unicode="p" glyph-name="p" horiz-adv-x="1328" d="M453 211Q500 189 548 182T627 174Q698 174 754 203T849 283T908 399T929 539Q929 611 912 672T863 777T787 846T690 871Q627 871 566 839T453 752V211ZM441 889Q478 923 519 957T607 1018T707 1063T820
1080Q917 1080 993 1038T1123 925T1204 763T1233 575Q1233 448 1186 339T1058 151T867 26T634 -20Q611 -20 586 -19T537 -14T491 -7T453 3V-536H158V1060H403L441 889Z" />
<glyph unicode="q" glyph-name="q" horiz-adv-x="1328" d="M710 1080Q799 1080 871 1062T985 1020L1170 1084V-536H875V156Q833 121 789 89T698 33T601 -5T497 -20Q404 -20 330 22T203 134T123 294T95 482Q95 607 140 716T268 906T462 1033T710 1080ZM875 844Q779
886 694 886Q620 886 565 857T474 778T419 664T400 529Q400 460 416 398T465 290T544 216T653 189Q706 189 762 214T875 291V844Z" />
<glyph unicode="r" glyph-name="r" horiz-adv-x="971" d="M158 1060H403L441 747Q456 775 471 803T501 857T528 903T548 934Q569 965 593 992T648 1038T714 1069T793 1080Q822 1080 854 1073T911 1049L879 782Q860 787 830 788T779 790Q722 790 674 776T586 736T513
675T453 600V0H158V1060Z" />
<glyph unicode="s" glyph-name="s" horiz-adv-x="1020" d="M137 256L155 267Q236 223 323 199T483 174Q570 174 615 208T660 293Q660 330 637 353T576 393T490 422T391 450T293 485T206 536T145 614T122 727Q122 803 154 867T247 979T396 1053T598 1080Q626 1080
663 1078T739 1072T816 1060T886 1043L839 841L818 829Q785 844 750 855T680 872T614 882T558 886Q472 886 430 854T388 773Q388 735 411 711T473 670T559 641T659 614T758 580T845 529T906 452T930 339Q930 265 899 200T809 86T662 9T462 -20Q418 -20 371 -16T275
-2T180 20T90 52L137 256Z" />
<glyph unicode="t" glyph-name="t" horiz-adv-x="1000" d="M245 866H32L52 997Q105 1013 143 1029T210 1064T260 1107T301 1162T339 1233T382 1325H526V1060H904L858 866H540V367Q540 269 592 229T740 189Q781 189 822 196T902 218V83Q829 31 744 6T571 -20Q488
-20 427 3T325 71T265 178T245 321V866Z" />
<glyph unicode="u" glyph-name="u" horiz-adv-x="1295" d="M158 1060H453V395Q453 348 465 310T500 245T554 204T623 189Q653 189 682 198T739 224T793 262T842 308V1060H1137V0H892L853 176Q817 143 775 109T687 46T589 -1T481 -20Q418 -20 360 4T257 76T185
192T158 350V1060Z" />
<glyph unicode="v" glyph-name="v" horiz-adv-x="1143" d="M45 1060H365L549 410L590 216H610L650 410L835 1060H1098L736 0H406L45 1060Z" />
<glyph unicode="w" glyph-name="w" horiz-adv-x="1794" d="M368 1060L513 406L546 215H565L601 405L764 1028H1088L1250 406L1288 214H1308L1340 405L1487 1060H1744L1438 0H1108L954 567L912 787H892L847 567L685 0H352L50 1060H368Z" />
<glyph unicode="x" glyph-name="x" horiz-adv-x="1163" d="M37 0L429 538L64 1060H405L527 860L606 696H624L704 860L831 1060H1100L729 564L1125 0H785L637 236L554 397H536L456 239L306 0H37Z" />
<glyph unicode="y" glyph-name="y" horiz-adv-x="1143" d="M45 1060H365L547 419L590 215H610L653 419L835 1060H1098L555 -536H292L518 0H406L45 1060Z" />
<glyph unicode="z" glyph-name="z" horiz-adv-x="1084" d="M85 76L505 718L607 853V873L421 866H116L162 1060H970V984L550 346L445 205V186L622 194H999L953 0H85V76Z" />
<glyph unicode="{" glyph-name="braceleft" horiz-adv-x="1018" d="M100 698Q146 713 187 733T260 781T310 850T329 945V1163Q329 1271 361 1353T452 1490T594 1574T781 1602H898V1407H776Q662 1407 598 1345T534 1165V957Q534 831 478 747T303 622Q421 582 477
497T534 286V78Q534 -39 598 -101T776 -163H898V-358H781Q678 -358 595 -330T452 -247T361 -109T329 81V298Q329 353 311 393T261 462T188 511T100 546V698Z" />
<glyph unicode="|" glyph-name="bar" horiz-adv-x="675" d="M235 1602H440V-537H235V1602Z" />
<glyph unicode="}" glyph-name="braceright" horiz-adv-x="1018" d="M918 546Q872 531 831 511T758 462T708 393T689 298V81Q689 -27 657 -109T566 -246T424 -330T237 -358H120V-163H242Q355 -163 419 -101T484 78V286Q484 412 540 497T715 622Q597 662 541 746T484
957V1165Q484 1283 420 1345T242 1407H120V1602H237Q340 1602 423 1574T566 1491T657 1353T689 1163V945Q689 890 707 850T757 782T830 733T918 698V546V546Z" />
<glyph unicode="~" glyph-name="asciitilde" horiz-adv-x="1435" d="M950 529Q1014 529 1053 605T1089 838H1284Q1286 741 1272 667T1231 537T1170 444T1094 383T1010 349T924 339Q861 339 815 362T732 419T666 493T608 567T551 624T484 647Q420 647 381 571T345
339H150Q148 435 162 509T202 638T263 732T339 793T421 827T505 838Q570 838 618 815T703 758T769 684T826 609T883 552T950 529Z" />
<glyph unicode="&#xa0;" glyph-name="uni00A0" horiz-adv-x="452" />
<glyph unicode="&#xa1;" glyph-name="exclamdown" horiz-adv-x="715" d="M464 505L523 -405H201L259 505H464ZM355 702Q316 702 283 716T224 756T184 816T169 889Q169 929 184 964T226 1025T287 1065T360 1080Q399 1080 432 1065T491 1025T531 965T546 891Q546
851 531 817T489 757T429 717T355 702Z" />
<glyph unicode="&#xa2;" glyph-name="cent" horiz-adv-x="1229" d="M594 177Q496 190 419 231T289 338T208 488T180 673Q180 778 210 870T296 1037T427 1165T594 1247V1606H789V1270Q796 1271 803 1271T818 1271Q840 1271 867 1269T925 1261T985 1249T1042 1231L995
1025L975 1015Q958 1027 935 1038T884 1058T828 1072T770 1078Q709 1078 657 1054T567 985T507 875T485 727Q485 639 509 574T578 466T682 402T814 381Q859 381 912 391T1033 431V296Q979 252 918 224T789 184V-163H594V177Z" />
<glyph unicode="&#xa3;" glyph-name="sterling" horiz-adv-x="1399" d="M381 816V966Q381 1090 425 1186T545 1349T722 1450T939 1485Q966 1485 998 1483T1065 1476T1133 1463T1195 1445L1145 1237L1123 1227Q1081 1256 1028 1272T924 1289Q810 1289 746 1215T682
989V816H1097L1060 641H682V530Q682 436 654 356T560 208V188L756 195H1199L1159 0H198V76Q256 118 292 161T347 250T374 342T381 437V641H191L224 816H381Z" />
<glyph unicode="&#xa4;" glyph-name="currency" horiz-adv-x="1566" d="M295 761Q295 838 317 905T377 1030L175 1232L313 1370L516 1166Q576 1206 646 1228T791 1250Q863 1250 929 1229T1053 1170L1253 1370L1391 1232L1192 1033Q1229 976 1249 909T1270 765Q1270
688 1248 620T1188 495L1391 293L1253 155L1049 358Q989 318 919 297T774 275Q701 275 635 295T512 353L313 155L175 293L373 491Q336 548 316 616T295 761ZM500 761Q500 696 522 643T583 551T673 492T783 470Q841 470 892 491T981 551T1042 644T1065 763Q1065
827 1043 881T982 973T892 1033T782 1055Q724 1055 673 1034T584 973T523 880T500 761Z" />
<glyph unicode="&#xa5;" glyph-name="yen" horiz-adv-x="1621" d="M1055 805H1330V630H279V805H552L165 1465H509L744 1009L830 812H850L938 1006L1178 1465H1456L1055 805ZM955 307V0H654V307H279V482H1330V307H955Z" />
<glyph unicode="&#xa6;" glyph-name="brokenbar" horiz-adv-x="675" d="M235 702V1602H440V702H235ZM440 364V-537H235V364H440Z" />
<glyph unicode="&#xa7;" glyph-name="section" horiz-adv-x="1409" d="M259 -107L278 -97Q321 -118 369 -135T468 -165T568 -184T664 -191Q773 -191 832 -153T891 -49Q891 -2 862 31T785 89T676 134T551 176T426 224T317 288T240 375T211 496Q211 551 229 596T277
681T348 754T432 819Q391 839 357 865T296 925T256 1004T241 1104Q241 1192 278 1262T385 1382T552 1458T773 1485Q807 1485 848 1483T935 1475T1026 1462T1115 1440L1068 1231L1048 1220Q967 1256 889 1272T738 1289Q636 1289 576 1255T515 1153Q515 1106 544
1073T622 1014T731 967T857 924T982 876T1092 813T1169 726T1199 605Q1199 549 1181 502T1132 414T1063 339T984 277Q1023 257 1057 232T1116 173T1155 97T1169 2Q1169 -84 1132 -155T1025 -278T858 -358T639 -387Q586 -387 529 -382T416 -367T308 -345T213 -317L259
-107ZM936 522Q936 575 906 611T828 672T717 718T591 759Q571 748 550 731T511 690T482 639T470 578Q470 525 501 490T582 428T695 381T824 338Q844 350 864 368T900 410T926 462T936 522Z" />
<glyph unicode="&#xa8;" glyph-name="dieresis" horiz-adv-x="1165" d="M200 1385Q200 1415 212 1442T245 1491T294 1524T355 1537Q387 1537 415 1526T463 1494T495 1447T507 1390Q507 1360 496 1333T464 1285T415 1252T352 1240Q320 1240 293 1251T245 1282T212
1328T200 1385ZM657 1385Q657 1415 669 1442T702 1491T751 1524T813 1537Q845 1537 872 1526T920 1494T953 1447T965 1390Q965 1360 954 1333T921 1285T872 1252T810 1240Q778 1240 750 1251T702 1282T669 1328T657 1385Z" />
<glyph unicode="&#xa9;" glyph-name="copyright" horiz-adv-x="1994" d="M200 724Q200 839 226 943T302 1138T423 1300T585 1424T782 1504T1011 1532Q1134 1532 1239 1504T1432 1424T1586 1300T1700 1139T1770 950T1794 741Q1794 569 1736 422T1570 166T1314 -4T981
-66Q796 -66 651 -4T406 166T253 418T200 724ZM391 741Q391 615 431 501T549 300T742 162T1007 110Q1156 110 1267 161T1453 297T1565 493T1603 724Q1603 851 1563 965T1444 1167T1251 1305T987 1357Q838 1357 727 1306T541 1170T429 973T391 741ZM1279 426Q1217
378 1143 354T995 330Q916 330 847 356T725 431T643 552T612 714Q612 817 651 896T754 1028T902 1109T1075 1137Q1110 1137 1163 1131T1282 1103L1251 920L1241 916Q1189 940 1145 951T1063 962Q1018 962 977 948T904 907T855 838T836 741Q836 690 852 648T898
575T972 527T1071 510Q1089 510 1113 512T1165 521T1222 537T1279 563V426Z" />
<glyph unicode="&#xaa;" glyph-name="ordfeminine" horiz-adv-x="1187" d="M694 689Q669 668 638 643T569 595T488 559T397 544Q340 544 295 565T219 622T172 703T155 798Q155 859 182 915T268 1014T417 1083T632 1109H684V1166Q684 1236 641 1273T525 1310Q493
1310 459 1303T389 1282T321 1251T259 1213L244 1221L196 1392Q305 1444 401 1464T587 1485Q668 1485 733 1469T843 1419T913 1329T938 1197V816Q938 801 940 786T950 759T969 739T1000 731Q1026 731 1052 741V621Q1004 588 956 566T856 544Q822 544 796 555T751
586T718 632T694 689ZM684 995H623Q554 995 509 985T437 957T399 914T388 857Q388 794 422 763T508 731Q594 731 684 815V995Z" />
<glyph unicode="&#xab;" glyph-name="guillemotleft" horiz-adv-x="1207" d="M95 619L420 1013L574 868L321 574L574 280L420 135L95 529V619ZM593 619L918 1013L1072 868L819 574L1072 280L918 135L593 529V619Z" />
<glyph unicode="&#xac;" glyph-name="logicalnot" horiz-adv-x="1439" d="M1239 796V213H1039V601H150V796H1239Z" />
<glyph unicode="&#xad;" glyph-name="uni00AD" horiz-adv-x="986" d="M836 689V494H150V689H836Z" />
<glyph unicode="&#xae;" glyph-name="registered" horiz-adv-x="1994" d="M200 724Q200 839 226 943T302 1138T423 1300T585 1424T782 1504T1011 1532Q1134 1532 1239 1504T1432 1424T1586 1300T1700 1139T1770 950T1794 741Q1794 569 1736 422T1570 166T1314
-4T981 -66Q796 -66 651 -4T406 166T253 418T200 724ZM391 741Q391 615 431 501T549 300T742 162T1007 110Q1156 110 1267 161T1453 297T1565 493T1603 724Q1603 851 1563 965T1444 1167T1251 1305T987 1357Q838 1357 727 1306T541 1170T429 973T391 741ZM702 329V1138H986Q1059
1138 1120 1122T1224 1075T1292 1001T1316 904Q1316 862 1303 828T1269 765T1225 714T1183 676L1374 329H1132L1017 567H910V329H702ZM1044 742Q1070 762 1089 791T1109 859Q1109 907 1076 935T979 963H910V742H1044Z" />
<glyph unicode="&#xaf;" glyph-name="overscore" horiz-adv-x="991" d="M200 1435H791V1240H200V1435Z" />
<glyph unicode="&#xb0;" glyph-name="degree" horiz-adv-x="1121" d="M160 1217Q160 1308 192 1382T280 1510T410 1593T567 1622Q649 1622 720 1594T845 1513T930 1387T961 1224Q961 1133 929 1059T841 931T711 849T554 820Q472 820 401 848T276 929T191 1054T160
1217ZM347 1224Q347 1174 364 1133T410 1060T480 1012T565 995Q609 995 647 1011T713 1057T757 1128T773 1218Q773 1267 756 1309T709 1381T640 1429T555 1447Q510 1447 472 1431T407 1384T363 1313T347 1224Z" />
<glyph unicode="&#xb1;" glyph-name="plusminus" horiz-adv-x="1402" d="M801 962H1202V767H801V379H601V767H200V962H601V1350H801V962ZM1202 195V0H200V195H1202Z" />
<glyph unicode="&#xb2;" glyph-name="twosuperior" horiz-adv-x="897" d="M80 579Q178 676 251 759T374 915T447 1049T472 1166Q472 1207 459 1235T422 1280T368 1305T305 1313Q258 1313 211 1301T132 1271V1390Q159 1410 195 1427T272 1457T357 1477T446 1485Q518
1485 574 1466T668 1412T726 1332T746 1232Q746 1170 721 1106T647 973T531 831T376 680H792L760 514H80V579Z" />
<glyph unicode="&#xb3;" glyph-name="threesuperior" horiz-adv-x="841" d="M720 1293Q720 1256 703 1225T657 1168T590 1119T512 1076V1062Q614 1040 675 980T736 829Q736 793 724 756T684 683T608 617T491 564T326 528T105 514V679Q212 679 281 690T390 721T446
767T462 821Q462 854 444 879T393 919T316 941T220 945V1068Q251 1075 290 1086T363 1116T422 1159T446 1220Q446 1244 434 1262T400 1291T352 1307T295 1313Q247 1313 200 1300T117 1269V1386Q146 1408 183 1426T261 1457T348 1477T439 1485Q508 1485 560 1469T648
1427T702 1365T720 1293Z" />
<glyph unicode="&#xb4;" glyph-name="acute" horiz-adv-x="902" d="M200 1240L401 1602H702L421 1240H200Z" />
<glyph unicode="&#xb6;" glyph-name="paragraph" horiz-adv-x="1473" d="M661 512Q550 512 453 544T283 636T168 785T125 988Q125 1095 165 1183T282 1333T474 1430T738 1465H1273V-536H1072V1260H861V-536H661V512Z" />
<glyph unicode="&#xb7;" glyph-name="middot" horiz-adv-x="656" d="M326 366Q287 366 254 380T195 420T155 480T140 553Q140 593 155 628T197 689T257 729T331 744Q370 744 403 729T462 689T502 629T517 555Q517 515 502 481T460 421T399 381T326 366Z" />
<glyph unicode="&#xb8;" glyph-name="cedilla" horiz-adv-x="796" d="M545 6Q563 -17 578 -52T594 -139Q594 -201 569 -255T491 -349T362 -412T180 -435V-274Q295 -274 350 -233T405 -114Q405 -78 395 -51T364 6H545Z" />
<glyph unicode="&#xb9;" glyph-name="onesuperior" horiz-adv-x="695" d="M292 514V1227H60V1357Q188 1357 271 1385T405 1465H555V514H292Z" />
<glyph unicode="&#xba;" glyph-name="ordmasculine" horiz-adv-x="1272" d="M601 544Q490 544 406 581T267 679T183 821T155 988Q155 1090 192 1180T297 1338T459 1445T668 1485Q779 1485 863 1448T1004 1350T1088 1208T1117 1039Q1117 935 1079 845T972 687T809
582T601 544ZM641 719Q687 719 725 738T792 794T837 882T853 1001Q853 1064 838 1120T794 1219T724 1285T630 1310Q583 1310 544 1290T477 1233T434 1143T418 1025Q418 960 433 904T478 807T549 743T641 719Z" />
<glyph unicode="&#xbb;" glyph-name="guillemotright" horiz-adv-x="1207" d="M614 529L289 135L135 280L387 574L135 868L289 1013L614 619V529ZM1112 529L787 135L633 280L885 574L633 868L787 1013L1112 619V529Z" />
<glyph unicode="&#xbc;" glyph-name="onequarter" horiz-adv-x="2099" d="M1234 1465H1460L720 0H494L1234 1465ZM327 515V1227H95V1357Q223 1357 306 1385T440 1465H590V515H327ZM1136 339L1474 951H1822V412H1969L1940 248H1822V0H1568V248H1136V339ZM1568 412V670L1573
818H1556L1494 682L1343 412H1568Z" />
<glyph unicode="&#xbd;" glyph-name="onehalf" horiz-adv-x="2129" d="M1234 1465H1460L720 0H494L1234 1465ZM327 514V1227H95V1357Q223 1357 306 1385T440 1465H590V514H327ZM1277 65Q1375 162 1448 245T1571 401T1644 535T1669 652Q1669 693 1656 721T1619
766T1565 791T1502 799Q1455 799 1408 787T1329 757V876Q1356 896 1392 913T1469 943T1554 963T1643 971Q1715 971 1771 952T1865 898T1923 818T1943 718Q1943 656 1918 592T1844 459T1728 317T1573 166H1989L1957 0H1277V65Z" />
<glyph unicode="&#xbe;" glyph-name="threequarters" horiz-adv-x="2170" d="M1305 1465H1531L791 0H565L1305 1465ZM1208 339L1545 951H1893V412H2040L2011 248H1893V0H1639V248H1208V339ZM1639 412V670L1644 818H1628L1565 682L1415 412H1639ZM755 1293Q755
1256 738 1225T692 1168T625 1119T547 1076V1062Q649 1040 710 980T771 829Q771 793 759 756T719 683T643 617T526 564T361 528T140 514V679Q247 679 316 690T425 721T481 767T497 821Q497 854 479 879T428 919T351 941T255 945V1068Q286 1075 325 1086T398 1116T457
1159T481 1220Q481 1244 469 1262T435 1291T387 1307T330 1313Q282 1313 235 1300T152 1269V1386Q181 1408 218 1426T296 1457T383 1477T474 1485Q543 1485 595 1469T683 1427T737 1365T755 1293Z" />
<glyph unicode="&#xbf;" glyph-name="questiondown" horiz-adv-x="981" d="M541 -230Q568 -230 604 -224T680 -205T763 -172T846 -123L863 -132L916 -311Q798 -374 685 -399T469 -425Q362 -425 286 -403T161 -341T88 -250T65 -139Q65 -68 94 -15T166 83T260 166T354
248T427 342T456 462Q456 471 456 483T455 505H660Q665 483 667 463T670 420Q670 351 648 297T592 199T520 119T447 48T392 -22T369 -97Q369 -128 382 -152T419 -194T474 -221T541 -230ZM545 702Q506 702 473 716T414 756T374 815T359 888Q359 929 374 964T416
1025T477 1065T550 1080Q589 1080 622 1065T681 1025T721 965T736 891Q736 851 721 817T679 757T619 717T545 702Z" />
<glyph unicode="&#xc0;" glyph-name="Agrave" horiz-adv-x="1430" d="M1217 359H675L566 0H307L800 1465H1153L1645 0H1328L1217 359ZM1162 545L1008 1057L956 1272H936L884 1057L729 545H1162ZM658 1602L377 1945H682L883 1602H658Z" />
<glyph unicode="&#xc1;" glyph-name="Aacute" horiz-adv-x="1430" d="M1217 359H675L566 0H307L800 1465H1153L1645 0H1328L1217 359ZM1162 545L1008 1057L956 1272H936L884 1057L729 545H1162ZM544 1602L745 1945H1048L767 1602H544Z" />
<glyph unicode="&#xc2;" glyph-name="Acircumflex" horiz-adv-x="1430" d="M1217 359H675L566 0H307L800 1465H1153L1645 0H1328L1217 359ZM1162 545L1008 1057L956 1272H936L884 1057L729 545H1162ZM340 1602L572 1945H850L1082 1602H855L709 1808L562 1602H340Z" />
<glyph unicode="&#xc3;" glyph-name="Atilde" horiz-adv-x="1430" d="M1217 359H675L566 0H307L800 1465H1153L1645 0H1328L1217 359ZM1162 545L1008 1057L956 1272H936L884 1057L729 545H1162ZM845 1602Q804 1602 773 1613T718 1641T674 1677T638 1714T603 1742T566
1753Q532 1753 507 1717T481 1602H306Q306 1692 330 1754T392 1854T478 1910T571 1927Q612 1927 643 1916T699 1888T743 1852T780 1815T814 1787T850 1776Q886 1776 911 1812T936 1927H1111Q1111 1837 1087 1775T1025 1675T939 1619T845 1602Z" />
<glyph unicode="&#xc4;" glyph-name="Adieresis" horiz-adv-x="1430" d="M1217 359H675L566 0H307L800 1465H1153L1645 0H1328L1217 359ZM1162 545L1008 1057L956 1272H936L884 1057L729 545H1162ZM333 1747Q333 1777 345 1804T378 1853T427 1886T488 1899Q520
1899 548 1888T596 1856T628 1809T640 1752Q640 1722 629 1695T597 1647T548 1614T485 1602Q453 1602 426 1613T378 1644T345 1690T333 1747ZM790 1747Q790 1777 802 1804T835 1853T884 1886T946 1899Q978 1899 1005 1888T1053 1856T1086 1809T1098 1752Q1098 1722
1087 1695T1054 1647T1005 1614T943 1602Q911 1602 883 1613T835 1644T802 1690T790 1747Z" />
<glyph unicode="&#xc5;" glyph-name="Aring" horiz-adv-x="1430" d="M969 359H427L318 0H59L552 1465H905L1397 0H1080L969 359ZM914 545L760 1057L708 1272H688L636 1057L481 545H914ZM621 1719Q621 1692 630 1670T654 1633T690 1608T733 1599Q755 1599 775 1608T812
1632T837 1670T846 1719Q846 1745 837 1767T812 1804T776 1829T733 1838Q710 1838 690 1829T655 1805T630 1767T621 1719ZM445 1716Q445 1773 468 1820T532 1900T627 1953T743 1972Q805 1972 856 1953T944 1901T1001 1821T1021 1721Q1021 1665 998 1618T934 1537T839
1484T723 1465Q661 1465 610 1484T522 1537T465 1616T445 1716Z" />
<glyph unicode="&#xc6;" glyph-name="AE" horiz-adv-x="1955" d="M952 359H443L274 0H13L741 1465H1772L1736 1268H1158L1200 853H1725L1691 666H1218L1265 197H1830L1794 0H989L952 359ZM932 545L883 1057L874 1272H854L766 1057L526 545H932Z" />
<glyph unicode="&#xc7;" glyph-name="Ccedilla" horiz-adv-x="1440" d="M1323 137Q1256 79 1169 46T993 -4Q1010 -29 1022 -61T1034 -139Q1034 -201 1009 -255T932 -349T803 -412T620 -435V-274Q736 -274 791 -233T846 -114Q846 -85 840 -63T820 -20Q671 -20 544
31T324 175T177 401T124 695Q124 820 155 927T243 1121T377 1277T546 1391T740 1461T949 1485Q983 1485 1027 1482T1121 1473T1224 1457T1329 1431L1283 1216L1263 1207Q1165 1253 1078 1270T927 1288Q818 1288 728 1248T572 1135T471 964T435 747Q435 630 470
528T573 351T739 232T963 189Q1051 189 1141 211T1323 283V137Z" />
<glyph unicode="&#xc8;" glyph-name="Egrave" horiz-adv-x="1252" d="M449 0V1465H1373L1337 1268H750V853H1265L1232 666H750V197H1384L1348 0H449ZM577 1602L296 1945H601L802 1602H577Z" />
<glyph unicode="&#xc9;" glyph-name="Eacute" horiz-adv-x="1252" d="M449 0V1465H1373L1337 1268H750V853H1265L1232 666H750V197H1384L1348 0H449ZM488 1602L689 1945H992L711 1602H488Z" />
<glyph unicode="&#xca;" glyph-name="Ecircumflex" horiz-adv-x="1252" d="M449 0V1465H1373L1337 1268H750V853H1265L1232 666H750V197H1384L1348 0H449ZM294 1602L526 1945H804L1036 1602H809L663 1808L516 1602H294Z" />
<glyph unicode="&#xcb;" glyph-name="Edieresis" horiz-adv-x="1252" d="M449 0V1465H1373L1337 1268H750V853H1265L1232 666H750V197H1384L1348 0H449ZM265 1747Q265 1777 277 1804T310 1853T359 1886T420 1899Q452 1899 480 1888T528 1856T560 1809T572 1752Q572
1722 561 1695T529 1647T480 1614T417 1602Q385 1602 358 1613T310 1644T277 1690T265 1747ZM722 1747Q722 1777 734 1804T767 1853T816 1886T878 1899Q910 1899 937 1888T985 1856T1018 1809T1030 1752Q1030 1722 1019 1695T986 1647T937 1614T875 1602Q843 1602
815 1613T767 1644T734 1690T722 1747Z" />
<glyph unicode="&#xcc;" glyph-name="Igrave" horiz-adv-x="691" d="M495 0H194V1465H495V0ZM270 1602L-11 1945H294L495 1602H270Z" />
<glyph unicode="&#xcd;" glyph-name="Iacute" horiz-adv-x="691" d="M494 0H193V1465H494V0ZM243 1602L203 1945H509L469 1602H243Z" />
<glyph unicode="&#xce;" glyph-name="Icircumflex" horiz-adv-x="691" d="M495 0H194V1465H495V0ZM-25 1602L207 1945H485L717 1602H490L344 1808L197 1602H-25Z" />
<glyph unicode="&#xcf;" glyph-name="Idieresis" horiz-adv-x="691" d="M495 0H194V1465H495V0ZM-38 1747Q-38 1777 -26 1804T7 1853T56 1886T117 1899Q149 1899 177 1888T225 1856T257 1809T269 1752Q269 1722 258 1695T226 1647T177 1614T114 1602Q82 1602 55
1613T7 1644T-26 1690T-38 1747ZM419 1747Q419 1777 431 1804T464 1853T513 1886T575 1899Q607 1899 634 1888T682 1856T715 1809T727 1752Q727 1722 716 1695T683 1647T634 1614T572 1602Q540 1602 512 1613T464 1644T431 1690T419 1747Z" />
<glyph unicode="&#xd0;" glyph-name="Eth" horiz-adv-x="1667" d="M207 830V1465H754Q947 1465 1094 1415T1342 1274T1492 1058T1543 783Q1543 691 1523 597T1461 416T1352 253T1194 121T983 32T714 -1L207 0V635H35V830H207ZM508 830H841V635H508V197H752Q875
197 965 239T1114 356T1202 530T1231 747Q1231 874 1198 971T1099 1135T940 1234T724 1268H508V830Z" />
<glyph unicode="&#xd1;" glyph-name="Ntilde" horiz-adv-x="1690" d="M433 0V1465H847L1403 598L1509 393H1529L1517 624V1465H1763V0H1463L785 1053L687 1250H667L679 1029V0H433ZM992 1602Q951 1602 920 1613T865 1641T821 1677T785 1714T750 1742T713 1753Q679
1753 654 1717T628 1602H453Q453 1692 477 1754T539 1854T625 1910T718 1927Q759 1927 790 1916T846 1888T890 1852T927 1815T961 1787T997 1776Q1033 1776 1058 1812T1083 1927H1258Q1258 1837 1234 1775T1172 1675T1086 1619T992 1602Z" />
<glyph unicode="&#xd2;" glyph-name="Ograve" horiz-adv-x="1756" d="M1134 177Q1234 177 1314 221T1451 340T1537 514T1567 725Q1567 843 1534 946T1441 1125T1299 1244T1117 1288Q1016 1288 936 1244T800 1123T715 948T685 738Q685 620 718 518T810 340T952
221T1134 177ZM1099 -20Q998 -20 905 2T732 66T585 171T472 312T399 489T373 699Q373 815 400 918T478 1108T599 1265T756 1384T943 1459T1154 1485Q1254 1485 1346 1464T1519 1400T1666 1296T1779 1154T1853 977T1879 766Q1879 650 1852 547T1775 357T1655 200T1498
81T1310 6T1099 -20ZM815 1602L534 1945H839L1040 1602H815Z" />
<glyph unicode="&#xd3;" glyph-name="Oacute" horiz-adv-x="1756" d="M1134 177Q1234 177 1314 221T1451 340T1537 514T1567 725Q1567 843 1534 946T1441 1125T1299 1244T1117 1288Q1016 1288 936 1244T800 1123T715 948T685 738Q685 620 718 518T810 340T952
221T1134 177ZM1099 -20Q998 -20 905 2T732 66T585 171T472 312T399 489T373 699Q373 815 400 918T478 1108T599 1265T756 1384T943 1459T1154 1485Q1254 1485 1346 1464T1519 1400T1666 1296T1779 1154T1853 977T1879 766Q1879 650 1852 547T1775 357T1655 200T1498
81T1310 6T1099 -20ZM750 1602L951 1945H1254L973 1602H750Z" />
<glyph unicode="&#xd4;" glyph-name="Ocircumflex" horiz-adv-x="1756" d="M1134 177Q1234 177 1314 221T1451 340T1537 514T1567 725Q1567 843 1534 946T1441 1125T1299 1244T1117 1288Q1016 1288 936 1244T800 1123T715 948T685 738Q685 620 718 518T810 340T952
221T1134 177ZM1099 -20Q998 -20 905 2T732 66T585 171T472 312T399 489T373 699Q373 815 400 918T478 1108T599 1265T756 1384T943 1459T1154 1485Q1254 1485 1346 1464T1519 1400T1666 1296T1779 1154T1853 977T1879 766Q1879 650 1852 547T1775 357T1655 200T1498
81T1310 6T1099 -20ZM493 1602L725 1945H1003L1235 1602H1008L862 1808L715 1602H493Z" />
<glyph unicode="&#xd5;" glyph-name="Otilde" horiz-adv-x="1756" d="M1134 177Q1234 177 1314 221T1451 340T1537 514T1567 725Q1567 843 1534 946T1441 1125T1299 1244T1117 1288Q1016 1288 936 1244T800 1123T715 948T685 738Q685 620 718 518T810 340T952
221T1134 177ZM1099 -20Q998 -20 905 2T732 66T585 171T472 312T399 489T373 699Q373 815 400 918T478 1108T599 1265T756 1384T943 1459T1154 1485Q1254 1485 1346 1464T1519 1400T1666 1296T1779 1154T1853 977T1879 766Q1879 650 1852 547T1775 357T1655 200T1498
81T1310 6T1099 -20ZM1005 1602Q964 1602 933 1613T878 1641T834 1677T798 1714T763 1742T726 1753Q692 1753 667 1717T641 1602H466Q466 1692 490 1754T552 1854T638 1910T731 1927Q772 1927 803 1916T859 1888T903 1852T940 1815T974 1787T1010 1776Q1046 1776
1071 1812T1096 1927H1271Q1271 1837 1247 1775T1185 1675T1099 1619T1005 1602Z" />
<glyph unicode="&#xd6;" glyph-name="Odieresis" horiz-adv-x="1756" d="M1134 177Q1234 177 1314 221T1451 340T1537 514T1567 725Q1567 843 1534 946T1441 1125T1299 1244T1117 1288Q1016 1288 936 1244T800 1123T715 948T685 738Q685 620 718 518T810 340T952
221T1134 177ZM1099 -20Q998 -20 905 2T732 66T585 171T472 312T399 489T373 699Q373 815 400 918T478 1108T599 1265T756 1384T943 1459T1154 1485Q1254 1485 1346 1464T1519 1400T1666 1296T1779 1154T1853 977T1879 766Q1879 650 1852 547T1775 357T1655 200T1498
81T1310 6T1099 -20ZM484 1747Q484 1777 496 1804T529 1853T578 1886T639 1899Q671 1899 699 1888T747 1856T779 1809T791 1752Q791 1722 780 1695T748 1647T699 1614T636 1602Q604 1602 577 1613T529 1644T496 1690T484 1747ZM941 1747Q941 1777 953 1804T986
1853T1035 1886T1097 1899Q1129 1899 1156 1888T1204 1856T1237 1809T1249 1752Q1249 1722 1238 1695T1205 1647T1156 1614T1094 1602Q1062 1602 1034 1613T986 1644T953 1690T941 1747Z" />
<glyph unicode="&#xd7;" glyph-name="multiply" horiz-adv-x="1201" d="M600 722L898 1020L1036 883L738 584L1036 287L899 149L600 447L303 149L165 287L462 584L165 882L302 1020L600 722Z" />
<glyph unicode="&#xd8;" glyph-name="Oslash" horiz-adv-x="1754" d="M360 149Q251 242 188 380T124 699Q124 815 151 918T229 1108T350 1265T507 1384T694 1459T905 1485Q997 1485 1083 1466T1246 1409L1370 1585H1583L1394 1315Q1502 1223 1566 1085T1630 766Q1630
650 1603 547T1526 357T1406 200T1249 81T1061 6T850 -20Q757 -20 671 -1T508 55L385 -120H171L360 149ZM436 738Q436 637 461 551T533 395L1106 1210Q1055 1247 995 1267T868 1288Q767 1288 687 1244T551 1123T466 948T436 738ZM885 177Q985 177 1065 221T1202
340T1288 514T1318 725Q1318 825 1293 912T1221 1069L648 253Q699 216 758 197T885 177Z" />
<glyph unicode="&#xd9;" glyph-name="Ugrave" horiz-adv-x="1558" d="M485 1465V540Q485 447 512 379T584 266T687 199T808 177Q872 177 928 199T1025 266T1091 376T1115 532V1465H1362V557Q1362 445 1325 341T1213 157T1025 28T757 -20Q627 -20 521 17T340 126T225
304T184 548V1465H485ZM727 1602L446 1945H751L952 1602H727Z" />
<glyph unicode="&#xda;" glyph-name="Uacute" horiz-adv-x="1558" d="M485 1465V540Q485 447 512 379T584 266T687 199T808 177Q872 177 928 199T1025 266T1091 376T1115 532V1465H1362V557Q1362 445 1325 341T1213 157T1025 28T757 -20Q627 -20 521 17T340 126T225
304T184 548V1465H485ZM628 1602L829 1945H1132L851 1602H628Z" />
<glyph unicode="&#xdb;" glyph-name="Ucircumflex" horiz-adv-x="1558" d="M485 1465V540Q485 447 512 379T584 266T687 199T808 177Q872 177 928 199T1025 266T1091 376T1115 532V1465H1362V557Q1362 445 1325 341T1213 157T1025 28T757 -20Q627 -20 521 17T340
126T225 304T184 548V1465H485ZM402 1602L634 1945H912L1144 1602H917L771 1808L624 1602H402Z" />
<glyph unicode="&#xdc;" glyph-name="Udieresis" horiz-adv-x="1558" d="M485 1465V540Q485 447 512 379T584 266T687 199T808 177Q872 177 928 199T1025 266T1091 376T1115 532V1465H1362V557Q1362 445 1325 341T1213 157T1025 28T757 -20Q627 -20 521 17T340
126T225 304T184 548V1465H485ZM394 1747Q394 1777 406 1804T439 1853T488 1886T549 1899Q581 1899 609 1888T657 1856T689 1809T701 1752Q701 1722 690 1695T658 1647T609 1614T546 1602Q514 1602 487 1613T439 1644T406 1690T394 1747ZM851 1747Q851 1777 863
1804T896 1853T945 1886T1007 1899Q1039 1899 1066 1888T1114 1856T1147 1809T1159 1752Q1159 1722 1148 1695T1115 1647T1066 1614T1004 1602Q972 1602 944 1613T896 1644T863 1690T851 1747Z" />
<glyph unicode="&#xdd;" glyph-name="Yacute" horiz-adv-x="1347" d="M1068 639V0H767V632L278 1465H623L858 1010L944 812H964L1054 1009L1291 1465H1570L1068 639ZM541 1602L742 1945H1045L764 1602H541Z" />
<glyph unicode="&#xde;" glyph-name="Thorn" horiz-adv-x="1365" d="M495 0H194V1465H495V1214H678Q813 1214 921 1183T1104 1092T1220 946T1260 752Q1260 634 1216 540T1099 381T929 280T728 245Q714 245 699 245T665 249L681 432Q692 430 704 430T727 429Q782
429 826 450T900 508T947 599T964 717Q964 797 942 854T880 947T781 1000T650 1017H495V0Z" />
<glyph unicode="&#xdf;" glyph-name="germandbls" horiz-adv-x="1341" d="M1006 307Q1006 360 980 396T913 463T827 522T740 588T674 676T647 801Q647 861 664 902T708 975T765 1032T822 1085T866 1147T884 1230Q884 1277 868 1314T823 1376T759 1415T682 1428Q635
1428 593 1410T520 1354T471 1260T453 1129V0H158V1087Q158 1199 196 1296T307 1466T482 1580T714 1622Q813 1622 896 1597T1039 1526T1132 1416T1166 1273Q1166 1213 1148 1169T1103 1089T1045 1026T986 971T941 915T923 847Q923 801 949 768T1014 704T1099 643T1184
572T1250 478T1276 349Q1276 270 1245 203T1158 86T1024 8T849 -20Q823 -20 790 -18T719 -10T643 5T568 27L612 229L633 242Q694 209 757 192T864 174Q927 174 966 209T1006 307Z" />
<glyph unicode="&#xe0;" glyph-name="agrave" horiz-adv-x="1199" d="M731 155Q703 131 666 101T583 44T486 -1T377 -20Q314 -20 263 4T175 68T120 163T100 276Q100 347 131 412T229 528T405 607T667 637H723V709Q723 794 670 840T528 886Q492 886 451 878T370
854T291 818T220 773L202 783L149 972Q274 1033 383 1056T594 1080Q688 1080 766 1062T900 1004T987 901T1018 749V291Q1018 274 1020 256T1031 223T1053 199T1090 189Q1104 189 1121 192T1157 203V69Q1097 27 1038 4T922 -20Q882 -20 852 -7T799 30T760 85T731
155ZM723 517H672Q580 517 523 504T433 468T389 412T377 343Q377 304 388 275T418 227T464 199T520 189Q563 189 612 209T723 285V517ZM511 1240L230 1602H535L736 1240H511Z" />
<glyph unicode="&#xe1;" glyph-name="aacute" horiz-adv-x="1199" d="M731 155Q703 131 666 101T583 44T486 -1T377 -20Q314 -20 263 4T175 68T120 163T100 276Q100 347 131 412T229 528T405 607T667 637H723V709Q723 794 670 840T528 886Q492 886 451 878T370
854T291 818T220 773L202 783L149 972Q274 1033 383 1056T594 1080Q688 1080 766 1062T900 1004T987 901T1018 749V291Q1018 274 1020 256T1031 223T1053 199T1090 189Q1104 189 1121 192T1157 203V69Q1097 27 1038 4T922 -20Q882 -20 852 -7T799 30T760 85T731
155ZM723 517H672Q580 517 523 504T433 468T389 412T377 343Q377 304 388 275T418 227T464 199T520 189Q563 189 612 209T723 285V517ZM401 1240L602 1602H903L622 1240H401Z" />
<glyph unicode="&#xe2;" glyph-name="acircumflex" horiz-adv-x="1199" d="M731 155Q703 131 666 101T583 44T486 -1T377 -20Q314 -20 263 4T175 68T120 163T100 276Q100 347 131 412T229 528T405 607T667 637H723V709Q723 794 670 840T528 886Q492 886 451 878T370
854T291 818T220 773L202 783L149 972Q274 1033 383 1056T594 1080Q688 1080 766 1062T900 1004T987 901T1018 749V291Q1018 274 1020 256T1031 223T1053 199T1090 189Q1104 189 1121 192T1157 203V69Q1097 27 1038 4T922 -20Q882 -20 852 -7T799 30T760 85T731
155ZM723 517H672Q580 517 523 504T433 468T389 412T377 343Q377 304 388 275T418 227T464 199T520 189Q563 189 612 209T723 285V517ZM210 1240L441 1602H718L949 1240H724L577 1459L431 1240H210Z" />
<glyph unicode="&#xe3;" glyph-name="atilde" horiz-adv-x="1199" d="M731 155Q703 131 666 101T583 44T486 -1T377 -20Q314 -20 263 4T175 68T120 163T100 276Q100 347 131 412T229 528T405 607T667 637H723V709Q723 794 670 840T528 886Q492 886 451 878T370
854T291 818T220 773L202 783L149 972Q274 1033 383 1056T594 1080Q688 1080 766 1062T900 1004T987 901T1018 749V291Q1018 274 1020 256T1031 223T1053 199T1090 189Q1104 189 1121 192T1157 203V69Q1097 27 1038 4T922 -20Q882 -20 852 -7T799 30T760 85T731
155ZM723 517H672Q580 517 523 504T433 468T389 412T377 343Q377 304 388 275T418 227T464 199T520 189Q563 189 612 209T723 285V517ZM972 1240Q930 1240 899 1252T843 1284T800 1324T764 1365T729 1396T691 1409Q658 1409 633 1369T607 1240H432Q432 1335 456
1400T518 1506T604 1565T696 1583Q737 1583 769 1571T825 1539T869 1499T906 1458T940 1427T976 1414Q1012 1414 1037 1454T1062 1583H1237Q1237 1488 1213 1423T1151 1317T1065 1258T972 1240Z" />
<glyph unicode="&#xe4;" glyph-name="adieresis" horiz-adv-x="1199" d="M731 155Q703 131 666 101T583 44T486 -1T377 -20Q314 -20 263 4T175 68T120 163T100 276Q100 347 131 412T229 528T405 607T667 637H723V709Q723 794 670 840T528 886Q492 886 451 878T370
854T291 818T220 773L202 783L149 972Q274 1033 383 1056T594 1080Q688 1080 766 1062T900 1004T987 901T1018 749V291Q1018 274 1020 256T1031 223T1053 199T1090 189Q1104 189 1121 192T1157 203V69Q1097 27 1038 4T922 -20Q882 -20 852 -7T799 30T760 85T731
155ZM723 517H672Q580 517 523 504T433 468T389 412T377 343Q377 304 388 275T418 227T464 199T520 189Q563 189 612 209T723 285V517ZM207 1385Q207 1415 219 1442T252 1491T301 1524T362 1537Q394 1537 422 1526T470 1494T502 1447T514 1390Q514 1360 503 1333T471
1285T422 1252T359 1240Q327 1240 300 1251T252 1282T219 1328T207 1385ZM664 1385Q664 1415 676 1442T709 1491T758 1524T820 1537Q852 1537 879 1526T927 1494T960 1447T972 1390Q972 1360 961 1333T928 1285T879 1252T817 1240Q785 1240 757 1251T709 1282T676
1328T664 1385Z" />
<glyph unicode="&#xe5;" glyph-name="aring" horiz-adv-x="1199" d="M731 155Q703 131 666 101T583 44T486 -1T377 -20Q314 -20 263 4T175 68T120 163T100 276Q100 347 131 412T229 528T405 607T667 637H723V709Q723 794 670 840T528 886Q492 886 451 878T370
854T291 818T220 773L202 783L149 972Q274 1033 383 1056T594 1080Q688 1080 766 1062T900 1004T987 901T1018 749V291Q1018 274 1020 256T1031 223T1053 199T1090 189Q1104 189 1121 192T1157 203V69Q1097 27 1038 4T922 -20Q882 -20 852 -7T799 30T760 85T731
155ZM723 517H672Q580 517 523 504T433 468T389 412T377 343Q377 304 388 275T418 227T464 199T520 189Q563 189 612 209T723 285V517ZM456 1466Q456 1439 465 1417T489 1380T525 1355T568 1346Q590 1346 610 1355T647 1379T672 1417T681 1466Q681 1492 672 1514T647
1551T611 1576T568 1585Q545 1585 525 1576T490 1552T465 1514T456 1466ZM280 1463Q280 1520 303 1567T367 1647T462 1700T578 1719Q640 1719 691 1700T779 1648T836 1568T856 1468Q856 1412 833 1365T769 1284T674 1231T558 1212Q496 1212 445 1231T357 1284T300
1363T280 1463Z" />
<glyph unicode="&#xe6;" glyph-name="ae" horiz-adv-x="1821" d="M1676 104Q1627 69 1573 46T1464 8T1355 -13T1252 -20Q1102 -20 985 33T799 189Q768 159 726 123T631 55T519 2T393 -20Q327 -20 273 2T180 64T121 155T100 269Q100 339 131 403T230 515T406 593T667
622H723V709Q723 751 709 784T670 839T608 874T529 886Q492 886 452 878T371 854T292 818T220 773L202 783L149 972Q274 1033 384 1056T589 1080Q713 1080 799 1045T937 934Q1007 1007 1094 1043T1284 1080Q1377 1080 1457 1050T1595 962T1687 819T1721 623Q1721
591 1718 559T1710 501H1018Q1018 420 1044 361T1119 264T1236 207T1388 189Q1415 189 1449 191T1521 198T1598 214T1676 239V104ZM527 189Q585 189 639 215T747 292Q733 338 728 388T723 501H672Q582 501 525 489T435 455T390 404T377 338Q377 263 418 226T527
189ZM1451 622Q1451 687 1435 736T1391 819T1325 869T1243 886Q1194 886 1153 866T1082 811T1035 728T1018 622H1451Z" />
<glyph unicode="&#xe7;" glyph-name="ccedilla" horiz-adv-x="1044" d="M948 104Q900 66 849 40T741 -1Q758 -24 771 -57T785 -139Q785 -201 760 -255T682 -349T553 -412T371 -435V-274Q486 -274 541 -233T596 -114Q596 -85 590 -64T571 -20Q459 -17 371 21T222
126T128 282T95 481Q95 613 142 723T272 913T466 1036T707 1080Q758 1080 826 1071T957 1039L910 833L890 823Q873 835 850 846T799 866T743 880T685 886Q624 886 572 862T482 793T422 683T400 535Q400 447 424 382T493 274T597 210T729 189Q774 189 827 199T948
239V104Z" />
<glyph unicode="&#xe8;" glyph-name="egrave" horiz-adv-x="1202" d="M1057 104Q1008 69 954 46T845 8T736 -13T633 -20Q513 -20 414 14T244 114T134 275T95 494Q95 630 141 738T266 923T446 1039T661 1080Q756 1080 837 1050T977 961T1069 813T1102 609Q1102
575 1099 544T1091 486H399Q399 411 425 355T500 262T617 207T769 189Q796 189 830 191T902 198T979 214T1057 239V104ZM832 607Q832 677 816 729T772 817T706 869T624 886Q575 886 534 866T463 809T416 721T399 607H832ZM553 1240L272 1602H577L778 1240H553Z"
/>
<glyph unicode="&#xe9;" glyph-name="eacute" horiz-adv-x="1202" d="M1057 104Q1008 69 954 46T845 8T736 -13T633 -20Q513 -20 414 14T244 114T134 275T95 494Q95 630 141 738T266 923T446 1039T661 1080Q756 1080 837 1050T977 961T1069 813T1102 609Q1102
575 1099 544T1091 486H399Q399 411 425 355T500 262T617 207T769 189Q796 189 830 191T902 198T979 214T1057 239V104ZM832 607Q832 677 816 729T772 817T706 869T624 886Q575 886 534 866T463 809T416 721T399 607H832ZM480 1240L681 1602H982L701 1240H480Z"
/>
<glyph unicode="&#xea;" glyph-name="ecircumflex" horiz-adv-x="1202" d="M1057 104Q1008 69 954 46T845 8T736 -13T633 -20Q513 -20 414 14T244 114T134 275T95 494Q95 630 141 738T266 923T446 1039T661 1080Q756 1080 837 1050T977 961T1069 813T1102 609Q1102
575 1099 544T1091 486H399Q399 411 425 355T500 262T617 207T769 189Q796 189 830 191T902 198T979 214T1057 239V104ZM832 607Q832 677 816 729T772 817T706 869T624 886Q575 886 534 866T463 809T416 721T399 607H832ZM264 1240L495 1602H772L1003 1240H778L631
1459L485 1240H264Z" />
<glyph unicode="&#xeb;" glyph-name="edieresis" horiz-adv-x="1202" d="M1057 104Q1008 69 954 46T845 8T736 -13T633 -20Q513 -20 414 14T244 114T134 275T95 494Q95 630 141 738T266 923T446 1039T661 1080Q756 1080 837 1050T977 961T1069 813T1102 609Q1102
575 1099 544T1091 486H399Q399 411 425 355T500 262T617 207T769 189Q796 189 830 191T902 198T979 214T1057 239V104ZM832 607Q832 677 816 729T772 817T706 869T624 886Q575 886 534 866T463 809T416 721T399 607H832ZM252 1385Q252 1415 264 1442T297 1491T346
1524T407 1537Q439 1537 467 1526T515 1494T547 1447T559 1390Q559 1360 548 1333T516 1285T467 1252T404 1240Q372 1240 345 1251T297 1282T264 1328T252 1385ZM709 1385Q709 1415 721 1442T754 1491T803 1524T865 1537Q897 1537 924 1526T972 1494T1005 1447T1017
1390Q1017 1360 1006 1333T973 1285T924 1252T862 1240Q830 1240 802 1251T754 1282T721 1328T709 1385Z" />
<glyph unicode="&#xec;" glyph-name="igrave" horiz-adv-x="612" d="M226 1240L-55 1602H250L451 1240H226ZM157 1060H452V0H157V1060Z" />
<glyph unicode="&#xed;" glyph-name="iacute" horiz-adv-x="612" d="M407 1240L608 1602H909L628 1240H407ZM157 1060H452V0H157V1060Z" />
<glyph unicode="&#xee;" glyph-name="icircumflex" horiz-adv-x="612" d="M157 1060H452V0H157V1060ZM-60 1240L171 1602H448L679 1240H454L307 1459L161 1240H-60Z" />
<glyph unicode="&#xef;" glyph-name="idieresis" horiz-adv-x="612" d="M-73 1385Q-73 1415 -61 1442T-28 1491T21 1524T82 1537Q114 1537 142 1526T190 1494T222 1447T234 1390Q234 1360 223 1333T191 1285T142 1252T79 1240Q47 1240 20 1251T-28 1282T-61 1328T-73
1385ZM384 1385Q384 1415 396 1442T429 1491T478 1524T540 1537Q572 1537 599 1526T647 1494T680 1447T692 1390Q692 1360 681 1333T648 1285T599 1252T537 1240Q505 1240 477 1251T429 1282T396 1328T384 1385ZM157 1060H452V0H157V1060Z" />
<glyph unicode="&#xf0;" glyph-name="eth" horiz-adv-x="1323" d="M497 1336Q446 1363 390 1385T274 1427L358 1602Q467 1572 562 1531T741 1438L1037 1566L1087 1451L861 1353Q952 1280 1020 1194T1135 1013T1204 813T1228 601Q1228 461 1183 347T1058 151T866
25T624 -20Q490 -20 391 24T226 142T128 311T95 509Q95 639 140 744T258 924T423 1039T611 1080Q665 1080 716 1065T810 1024L827 1029Q794 1090 742 1150T630 1255L312 1119L262 1234L497 1336ZM922 592Q922 643 917 691T899 793Q854 833 793 859T667 886Q607
886 559 863T475 796T421 690T402 551Q402 478 420 410T472 290T557 206T672 174Q787 174 854 278T922 592Z" />
<glyph unicode="&#xf1;" glyph-name="ntilde" horiz-adv-x="1322" d="M158 1060H403L441 883Q475 914 518 948T612 1012T719 1060T838 1080Q911 1080 971 1053T1074 978T1140 861T1164 710V0H869V671Q869 720 855 757T817 820T761 858T690 871Q626 871 568 838T453
754V0H158V1060ZM790 1240Q748 1240 717 1252T661 1284T618 1324T582 1365T547 1396T509 1409Q476 1409 451 1369T425 1240H250Q250 1335 274 1400T336 1506T422 1565T514 1583Q555 1583 587 1571T643 1539T687 1499T724 1458T758 1427T794 1414Q830 1414 855 1454T880
1583H1055Q1055 1488 1031 1423T969 1317T883 1258T790 1240Z" />
<glyph unicode="&#xf2;" glyph-name="ograve" horiz-adv-x="1320" d="M623 -20Q492 -20 394 22T229 135T129 301T95 501Q95 622 138 727T261 911T450 1035T695 1080Q825 1080 924 1038T1090 925T1191 758T1225 557Q1225 434 1181 329T1057 146T867 24T623 -20ZM666
174Q721 174 767 197T848 264T900 371T919 514Q919 590 901 658T849 776T766 856T653 886Q596 886 550 862T470 793T419 685T400 543Q400 464 418 397T471 280T555 202T666 174ZM566 1240L285 1602H590L791 1240H566Z" />
<glyph unicode="&#xf3;" glyph-name="oacute" horiz-adv-x="1320" d="M623 -20Q492 -20 394 22T229 135T129 301T95 501Q95 622 138 727T261 911T450 1035T695 1080Q825 1080 924 1038T1090 925T1191 758T1225 557Q1225 434 1181 329T1057 146T867 24T623 -20ZM666
174Q721 174 767 197T848 264T900 371T919 514Q919 590 901 658T849 776T766 856T653 886Q596 886 550 862T470 793T419 685T400 543Q400 464 418 397T471 280T555 202T666 174ZM510 1240L711 1602H1012L731 1240H510Z" />
<glyph unicode="&#xf4;" glyph-name="ocircumflex" horiz-adv-x="1320" d="M623 -20Q492 -20 394 22T229 135T129 301T95 501Q95 622 138 727T261 911T450 1035T695 1080Q825 1080 924 1038T1090 925T1191 758T1225 557Q1225 434 1181 329T1057 146T867 24T623
-20ZM666 174Q721 174 767 197T848 264T900 371T919 514Q919 590 901 658T849 776T766 856T653 886Q596 886 550 862T470 793T419 685T400 543Q400 464 418 397T471 280T555 202T666 174ZM291 1240L522 1602H799L1030 1240H805L658 1459L512 1240H291Z" />
<glyph unicode="&#xf5;" glyph-name="otilde" horiz-adv-x="1320" d="M623 -20Q492 -20 394 22T229 135T129 301T95 501Q95 622 138 727T261 911T450 1035T695 1080Q825 1080 924 1038T1090 925T1191 758T1225 557Q1225 434 1181 329T1057 146T867 24T623 -20ZM666
174Q721 174 767 197T848 264T900 371T919 514Q919 590 901 658T849 776T766 856T653 886Q596 886 550 862T470 793T419 685T400 543Q400 464 418 397T471 280T555 202T666 174ZM796 1240Q754 1240 723 1252T667 1284T624 1324T588 1365T553 1396T515 1409Q482
1409 457 1369T431 1240H256Q256 1335 280 1400T342 1506T428 1565T520 1583Q561 1583 593 1571T649 1539T693 1499T730 1458T764 1427T800 1414Q836 1414 861 1454T886 1583H1061Q1061 1488 1037 1423T975 1317T889 1258T796 1240Z" />
<glyph unicode="&#xf6;" glyph-name="odieresis" horiz-adv-x="1320" d="M623 -20Q492 -20 394 22T229 135T129 301T95 501Q95 622 138 727T261 911T450 1035T695 1080Q825 1080 924 1038T1090 925T1191 758T1225 557Q1225 434 1181 329T1057 146T867 24T623 -20ZM666
174Q721 174 767 197T848 264T900 371T919 514Q919 590 901 658T849 776T766 856T653 886Q596 886 550 862T470 793T419 685T400 543Q400 464 418 397T471 280T555 202T666 174ZM281 1385Q281 1415 293 1442T326 1491T375 1524T436 1537Q468 1537 496 1526T544
1494T576 1447T588 1390Q588 1360 577 1333T545 1285T496 1252T433 1240Q401 1240 374 1251T326 1282T293 1328T281 1385ZM738 1385Q738 1415 750 1442T783 1491T832 1524T894 1537Q926 1537 953 1526T1001 1494T1034 1447T1046 1390Q1046 1360 1035 1333T1002
1285T953 1252T891 1240Q859 1240 831 1251T783 1282T750 1328T738 1385Z" />
<glyph unicode="&#xf7;" glyph-name="divide" horiz-adv-x="1302" d="M1152 689V494H150V689H1152ZM649 847Q619 847 593 858T548 888T517 934T506 990Q506 1021 518 1048T550 1094T596 1125T653 1137Q683 1137 709 1126T754 1095T785 1049T796 992Q796 961 784
935T752 889T706 858T649 847ZM649 46Q619 46 593 57T548 87T517 133T506 189Q506 220 518 247T550 293T596 324T653 336Q683 336 709 325T754 294T785 248T796 191Q796 160 784 134T752 88T706 57T649 46Z" />
<glyph unicode="&#xf8;" glyph-name="oslash" horiz-adv-x="1312" d="M261 102Q177 175 136 279T95 499Q95 579 114 653T171 791T260 909T380 1000T526 1059T694 1080Q757 1080 813 1069T917 1037L1018 1180H1207L1050 957Q1134 883 1175 779T1217 559Q1217 437
1173 331T1049 147T859 25T616 -20Q552 -20 497 -9T394 22L294 -120H105L261 102ZM400 543Q400 493 410 446T442 359L781 842Q753 863 720 874T649 886Q592 886 546 861T468 791T418 683T400 543ZM661 174Q717 174 763 198T842 266T893 373T911 514Q911 564 900
611T868 698L530 216Q558 196 590 185T661 174Z" />
<glyph unicode="&#xf9;" glyph-name="ugrave" horiz-adv-x="1295" d="M158 1060H453V395Q453 348 465 310T500 245T554 204T623 189Q653 189 682 198T739 224T793 262T842 308V1060H1137V0H892L853 176Q817 143 775 109T687 46T589 -1T481 -20Q418 -20 360 4T257
76T185 192T158 350V1060ZM571 1240L290 1602H595L796 1240H571Z" />
<glyph unicode="&#xfa;" glyph-name="uacute" horiz-adv-x="1295" d="M158 1060H453V395Q453 348 465 310T500 245T554 204T623 189Q653 189 682 198T739 224T793 262T842 308V1060H1137V0H892L853 176Q817 143 775 109T687 46T589 -1T481 -20Q418 -20 360 4T257
76T185 192T158 350V1060ZM480 1240L681 1602H982L701 1240H480Z" />
<glyph unicode="&#xfb;" glyph-name="ucircumflex" horiz-adv-x="1295" d="M158 1060H453V395Q453 348 465 310T500 245T554 204T623 189Q653 189 682 198T739 224T793 262T842 308V1060H1137V0H892L853 176Q817 143 775 109T687 46T589 -1T481 -20Q418 -20 360
4T257 76T185 192T158 350V1060ZM285 1240L516 1602H793L1024 1240H799L652 1459L506 1240H285Z" />
<glyph unicode="&#xfc;" glyph-name="udieresis" horiz-adv-x="1295" d="M158 1060H453V395Q453 348 465 310T500 245T554 204T623 189Q653 189 682 198T739 224T793 262T842 308V1060H1137V0H892L853 176Q817 143 775 109T687 46T589 -1T481 -20Q418 -20 360
4T257 76T185 192T158 350V1060ZM269 1385Q269 1415 281 1442T314 1491T363 1524T424 1537Q456 1537 484 1526T532 1494T564 1447T576 1390Q576 1360 565 1333T533 1285T484 1252T421 1240Q389 1240 362 1251T314 1282T281 1328T269 1385ZM726 1385Q726 1415 738
1442T771 1491T820 1524T882 1537Q914 1537 941 1526T989 1494T1022 1447T1034 1390Q1034 1360 1023 1333T990 1285T941 1252T879 1240Q847 1240 819 1251T771 1282T738 1328T726 1385Z" />
<glyph unicode="&#xfd;" glyph-name="yacute" horiz-adv-x="1143" d="M45 1060H365L547 419L590 215H610L653 419L835 1060H1098L555 -536H292L518 0H406L45 1060ZM444 1240L645 1602H946L665 1240H444Z" />
<glyph unicode="&#xfe;" glyph-name="thorn" horiz-adv-x="1328" d="M158 1602H453V894Q489 927 530 960T617 1020T715 1063T826 1080Q921 1080 996 1038T1124 925T1205 763T1233 575Q1233 448 1186 339T1058 151T867 26T634 -20Q611 -20 586 -19T537 -14T491
-7T453 3V-536H158V1602ZM453 211Q500 189 548 182T627 174Q698 174 754 203T849 283T908 399T929 539Q929 611 912 672T863 777T787 846T690 871Q627 871 566 839T453 752V211Z" />
<glyph unicode="&#xff;" glyph-name="ydieresis" horiz-adv-x="1143" d="M45 1060H365L547 419L590 215H610L653 419L835 1060H1098L555 -536H292L518 0H406L45 1060ZM204 1385Q204 1415 216 1442T249 1491T298 1524T359 1537Q391 1537 419 1526T467 1494T499
1447T511 1390Q511 1360 500 1333T468 1285T419 1252T356 1240Q324 1240 297 1251T249 1282T216 1328T204 1385ZM661 1385Q661 1415 673 1442T706 1491T755 1524T817 1537Q849 1537 876 1526T924 1494T957 1447T969 1390Q969 1360 958 1333T925 1285T876 1252T814
1240Q782 1240 754 1251T706 1282T673 1328T661 1385Z" />
<glyph unicode="&#x2013;" glyph-name="endash" horiz-adv-x="1037" d="M987 689V494H50V689H987Z" />
<glyph unicode="&#x2014;" glyph-name="emdash" horiz-adv-x="2107" d="M2057 689V494H50V689H2057Z" />
<glyph unicode="&#x2018;" glyph-name="quoteleft" horiz-adv-x="667" d="M542 1569Q468 1487 415 1398T344 1227Q357 1213 375 1200T415 1176T458 1155T501 1142Q509 1124 513 1102T517 1059Q517 1021 503 987T463 927T402 886T327 870Q292 870 258 883T196 924T152
995T135 1098Q135 1151 150 1213T202 1343T298 1484T445 1632L542 1569Z" />
<glyph unicode="&#x2019;" glyph-name="quoteright" horiz-adv-x="667" d="M125 918Q162 959 194 1002T251 1089T295 1176T322 1260Q309 1273 291 1286T251 1311T208 1331T165 1345Q157 1363 154 1385T150 1428Q150 1466 164 1500T204 1560T264 1601T340 1617Q375
1617 409 1604T471 1563T515 1492T532 1389Q532 1336 517 1274T465 1144T369 1003T222 855L125 918Z" />
<glyph unicode="&#x201a;" glyph-name="quotesinglbase" horiz-adv-x="667" d="M125 -341Q162 -300 194 -257T251 -170T295 -83T322 1Q309 14 291 27T251 52T208 72T165 86Q157 104 154 126T150 169Q150 207 164 241T204 301T264 342T340 358Q375 358 409 345T471
304T515 233T532 130Q532 77 517 15T465 -115T369 -256T222 -404L125 -341Z" />
<glyph unicode="&#x201c;" glyph-name="quotedblleft" horiz-adv-x="1194" d="M542 1569Q468 1487 415 1398T344 1227Q357 1213 375 1200T415 1176T458 1155T501 1142Q509 1124 513 1102T517 1059Q517 1021 503 987T463 927T402 886T327 870Q292 870 258 883T196
924T152 995T135 1098Q135 1151 150 1213T202 1343T298 1484T445 1632L542 1569ZM1069 1569Q1032 1528 1000 1485T943 1398T899 1311T872 1227Q885 1213 903 1200T943 1176T986 1155T1029 1142Q1037 1124 1040 1102T1044 1059Q1044 1021 1030 987T990 927T929 886T854
870Q819 870 785 883T723 924T679 995T662 1098Q662 1151 677 1213T729 1343T825 1484T972 1632L1069 1569Z" />
<glyph unicode="&#x201d;" glyph-name="quotedblright" horiz-adv-x="1194" d="M125 918Q162 959 194 1002T251 1089T295 1176T322 1260Q309 1273 291 1286T251 1311T208 1331T165 1345Q157 1363 154 1385T150 1428Q150 1466 164 1500T204 1560T264 1601T340 1617Q375
1617 409 1604T471 1563T515 1492T532 1389Q532 1336 517 1274T465 1144T369 1003T222 855L125 918ZM652 918Q726 1000 779 1089T850 1260Q837 1273 819 1286T779 1311T736 1331T693 1345Q685 1363 681 1385T677 1428Q677 1466 691 1500T731 1560T792 1601T867
1617Q902 1617 936 1604T998 1563T1042 1492T1059 1389Q1059 1336 1044 1274T992 1144T896 1003T749 855L652 918Z" />
<glyph unicode="&#x201e;" glyph-name="quotedblbase" horiz-adv-x="1194" d="M125 -341Q162 -300 194 -257T251 -170T295 -83T322 1Q309 14 291 27T251 52T208 72T165 86Q157 104 154 126T150 169Q150 207 164 241T204 301T264 342T340 358Q375 358 409 345T471
304T515 233T532 130Q532 77 517 15T465 -115T369 -256T222 -404L125 -341ZM652 -341Q726 -259 779 -170T850 1Q837 14 819 27T779 52T736 72T693 86Q685 104 681 126T677 169Q677 207 691 241T731 301T792 342T867 358Q902 358 936 345T998 304T1042 233T1059
130Q1059 77 1044 15T992 -115T896 -256T749 -404L652 -341Z" />
<glyph unicode="&#x2022;" glyph-name="bullet" horiz-adv-x="855" d="M200 573Q200 620 218 661T268 733T340 782T429 800Q476 800 517 782T589 734T637 662T655 573Q655 525 636 484T586 411T512 363T423 345Q377 345 337 362T266 411T218 483T200 573Z" />
<glyph unicode="&#x2039;" glyph-name="guilsinglleft" horiz-adv-x="709" d="M95 619L420 1013L574 868L321 574L574 280L420 135L95 529V619Z" />
<glyph unicode="&#x203a;" glyph-name="guilsinglright" horiz-adv-x="709" d="M614 529L289 135L135 280L387 574L135 868L289 1013L614 619V529Z" />
</font>
</defs>
</svg>
