<?xml version="1.0" standalone="no"?>
<!DOCTYPE svg PUBLIC "-//W3C//DTD SVG 1.1//EN" "http://www.w3.org/Graphics/SVG/1.1/DTD/svg11.dtd">
<svg xmlns="http://www.w3.org/2000/svg">
<defs >
<font id="KottaOne" horiz-adv-x="433" ><font-face
    font-family="Kotta One"
    units-per-em="1000"
    panose-1="2 0 0 0 0 0 0 0 0 0"
    ascent="915"
    descent="-288"
    alphabetic="0" />
<glyph unicode=" " glyph-name="space" horiz-adv-x="200" />
<glyph unicode="!" glyph-name="exclam" horiz-adv-x="259" d="M61 66T80 75T119 85T150 76T162 56L157 20Q146 -10 93 -10Q73 -10 63 -1T52 20L56 51Q61 66 80 75ZM113 166L90 171Q98 220 108 377T118 680L196 696L210 680Q190 563 169 396T147 171Q134 166 113 166Z" />
<glyph unicode="&quot;" glyph-name="quotedbl" horiz-adv-x="339" d="M79 485L56 490Q70 592 70 699L135 715L149 699Q113 542 113 490Q100 485 79 485ZM216 485L193 490Q207 592 207 699L272 715L286 699Q250 542 250 490Q237 485 216 485Z" />
<glyph unicode="#" glyph-name="numbersign" horiz-adv-x="640" d="M402 -10L374 -5Q382 52 395 195H227Q211 46 211 -5Q193 -10 172 -10L144 -5Q152 52 165 195H55Q50 206 50 218L55 252H170Q178 341 181 398H55Q50 409 50 421L55 455H185Q194 603 194 680L272
696L286 680Q277 630 255 455Q355 455 415 457Q424 605 424 680L502 696L516 680Q505 617 486 460Q518 461 562 465L578 451L565 398H479Q467 302 463 255Q531 259 562 262L578 248L565 195H457Q441 46 441 -5Q423 -10 402 -10ZM249 398Q237 302 233 252Q336 252
400 254Q407 339 411 398H249Z" />
<glyph unicode="$" glyph-name="dollar" horiz-adv-x="534" d="M259 609L260 666L327 679L339 666L331 617Q376 617 411 602T453 565Q434 529 424 479L420 462Q398 453 373 453Q380 476 380 498Q380 549 358 565H324L299 351Q372 304 405 268T438 192Q438 109
392 61T262 1Q259 -41 259 -60Q243 -65 224 -65L200 -60L207 -3Q134 -3 95 15T45 60Q65 95 76 144L79 161Q101 169 126 169Q119 152 119 125Q119 76 141 60H214Q223 144 237 299Q174 335 146 365T117 442Q117 578 259 609ZM362 160Q362 215 289 266Q272 108 268
60H315Q362 91 362 160ZM184 471Q184 427 244 385Q254 518 257 565Q222 553 203 525T184 471Z" />
<glyph unicode="%" glyph-name="percent" horiz-adv-x="755" d="M146 343T118 367T89 444T131 545T220 593T295 568T324 490T283 391T187 343Q146 343 118 367ZM195 542Q148 516 148 462T186 393H223Q241 400 252 424T264 475Q264 524 229 542H195ZM469 -10T441
14T412 91T454 192T543 240T618 215T647 137T606 38T510 -10Q469 -10 441 14ZM518 189Q471 163 471 109T509 40H546Q564 47 575 71T587 122Q587 172 552 189H518ZM142 -15L112 -10Q263 185 348 304T561 625L653 641L657 625Q630 589 565 505T475 388T400 287Q295
147 188 -10Q162 -15 142 -15Z" />
<glyph unicode="&amp;" glyph-name="ampersand" horiz-adv-x="690" d="M410 690T439 662T469 597T459 533T438 486T400 444T360 409T312 374Q371 278 490 157Q516 192 535 222Q564 212 578 192L582 186Q553 144 530 116Q574 72 617 34V21L553 -30Q508 13 472 52Q425
9 380 -3T260 -15T135 24T85 138T122 267T225 373Q180 460 180 526T230 641T345 690ZM169 167Q169 126 189 97T248 60H361Q363 60 370 62T380 64T389 67T400 71T411 76Q418 79 434 93Q315 222 252 327Q169 255 169 167ZM251 545Q251 487 287 418Q342 459 369 493T397
574T368 635H304Q280 627 266 601T251 545Z" />
<glyph unicode="&apos;" glyph-name="quotesingle" horiz-adv-x="185" d="M79 485L56 490Q70 592 70 699L135 715L149 699Q113 542 113 490Q100 485 79 485Z" />
<glyph unicode="(" glyph-name="parenleft" horiz-adv-x="285" d="M57 214Q57 468 234 713Q245 713 254 709L272 697Q126 461 126 247Q126 169 148 69T192 -94L214 -156Q207 -164 196 -167L173 -171Q160 -153 137 -104T98 -12T70 93T57 214Z" />
<glyph unicode=")" glyph-name="parenright" horiz-adv-x="291" d="M222 328Q222 74 45 -171Q34 -171 25 -167L7 -155Q153 81 153 295Q153 373 131 473T87 636L65 698Q72 706 83 709L106 713Q119 695 142 646T181 554T209 449T222 328Z" />
<glyph unicode="*" glyph-name="asterisk" horiz-adv-x="357" d="M135 543Q99 566 44 592L67 638H78L162 582L165 587Q165 635 163 658T161 690L225 700L230 690Q217 663 209 584Q230 593 262 607T307 626L318 590L311 581Q257 564 222 549Q255 495 288 451V440L229
415L177 515L123 430H56L52 440Q117 514 135 543Z" />
<glyph unicode="+" glyph-name="plus" horiz-adv-x="473" d="M223 481Q237 486 253 486T280 481L269 354Q337 359 381 363L397 349L384 296H265L255 177Q241 172 220 172T198 178L207 296H91Q86 307 86 319L91 353H212L223 481Z" />
<glyph unicode="," glyph-name="comma" horiz-adv-x="233" d="M49 -174Q34 -169 20 -155V-143Q48 -119 70 -84T92 -24T82 20T63 40V71Q102 84 143 118H150Q169 89 169 50T139 -47T79 -140L49 -174Z" />
<glyph unicode="-" glyph-name="hyphen" horiz-adv-x="407" d="M144 353Q232 353 343 363L359 349L346 286H53Q48 307 48 319L53 353H144Z" />
<glyph unicode="." glyph-name="period" horiz-adv-x="216" d="M68 66T87 75T126 85T157 76T169 56L164 20Q153 -10 100 -10Q80 -10 70 -1T59 20L63 51Q68 66 87 75Z" />
<glyph unicode="/" glyph-name="slash" horiz-adv-x="461" d="M51 -150L24 -145Q56 -78 188 241T369 700L461 716L465 700Q415 603 265 261T94 -145Q84 -150 51 -150Z" />
<glyph unicode="0" glyph-name="zero" horiz-adv-x="578" d="M335 690Q433 690 484 612T535 423Q535 305 498 198Q478 138 448 92T368 15T257 -15Q159 -15 108 63T57 252Q57 370 94 477Q114 537 144 583T224 660T335 690ZM454 389Q454 553 351 625H258Q204 598
171 488T138 286Q138 122 241 50H334Q388 77 421 187T454 389Z" />
<glyph unicode="1" glyph-name="one" horiz-adv-x="414" d="M362 36Q362 13 352 -7Q223 0 186 0L66 -7Q66 16 76 36Q140 47 171 69Q188 185 206 353T226 587Q157 497 122 443Q109 443 96 454T77 477V481Q158 561 234 679L302 694L315 679Q300 592 279 383T252
53Q307 41 350 37L362 36Z" />
<glyph unicode="2" glyph-name="two" horiz-adv-x="524" d="M92 -10Q50 -6 31 9V19Q78 90 147 167T265 292T351 396T388 497T374 573T341 620H211Q191 602 176 562L170 547Q151 547 131 559Q132 618 146 655Q202 690 298 690T433 646T472 534T439 407T364 302T254
186T142 60H408Q425 86 432 123L435 136Q463 129 480 111Q459 31 457 -10Q395 -15 342 -15Q214 -15 105 10L92 -10Z" />
<glyph unicode="3" glyph-name="three" horiz-adv-x="442" d="M92 547Q73 547 53 559Q54 618 68 655Q129 690 208 690T325 658T363 568Q363 481 272 405Q319 391 349 351T380 250Q380 148 297 69T109 -10Q60 -10 16 8L2 14Q2 37 19 60H175Q227 75 261 117T295
214T268 307T201 356L170 339Q148 343 131 364V376Q291 466 291 551Q291 606 250 620H133Q113 602 98 562L92 547Z" />
<glyph unicode="4" glyph-name="four" horiz-adv-x="535" d="M485 237Q485 201 468 176L463 167H383Q381 135 375 0Q352 -10 332 -10Q300 -10 284 0L305 167H51L39 178V232Q155 389 302 606L349 675L411 690L424 675Q397 458 386 237H485ZM342 579Q211 401 120
237H313Q328 375 342 579Z" />
<glyph unicode="5" glyph-name="five" horiz-adv-x="460" d="M136 -10Q88 -10 44 8L30 14Q33 43 43 60H201Q255 83 284 129T313 245T276 358T166 403H108L96 421Q133 568 133 670L144 680Q235 680 304 686T396 698L420 705L429 698Q427 689 419 671T401 640Q377
610 345 610H192Q175 561 160 472H177Q278 472 333 424T388 281Q388 164 317 77T136 -10Z" />
<glyph unicode="6" glyph-name="six" horiz-adv-x="546" d="M317 456Q472 456 472 263Q472 173 414 84Q386 43 342 17T246 -10Q152 -10 106 51T59 242Q59 361 102 475Q125 536 159 583T246 660T365 690Q398 690 426 682T467 664L479 656Q478 632 469 620H285Q245
605 205 538T144 384Q222 456 317 456ZM131 271Q131 126 216 60H314Q352 80 378 128T405 237T375 347T298 397H240Q187 386 134 325Q131 298 131 271Z" />
<glyph unicode="7" glyph-name="seven" horiz-adv-x="527" d="M79 543Q60 543 46 555Q48 608 73 680H470L481 670L185 0Q170 -10 152 -10Q124 -10 112 0L388 610H115Q94 583 83 554L79 543Z" />
<glyph unicode="8" glyph-name="eight" horiz-adv-x="479" d="M112 497Q112 586 165 638T286 690T389 652T423 556Q423 460 302 378Q342 349 365 328T409 274T430 205Q430 114 368 52T205 -10Q124 -10 81 29T38 139T77 262T199 364Q112 433 112 497ZM326 77T345
109T364 175T342 239T298 289T232 339Q167 300 137 264T107 166Q107 128 127 98T181 60H300Q326 77 345 109ZM203 620T188 592T172 530T197 467T270 402Q351 466 351 539Q351 572 337 601T303 632H229Q203 620 188 592Z" />
<glyph unicode="9" glyph-name="nine" horiz-adv-x="516" d="M164 -10Q131 -10 103 -2T62 16L50 24Q51 48 60 60H244Q283 74 320 139T375 290Q305 224 203 224Q48 224 48 417Q48 507 106 596Q134 637 178 663T274 690Q368 690 414 629T461 438Q461 319 416 205Q393
145 360 98T275 20T164 -10ZM389 409Q389 487 364 542T304 625H206Q169 605 142 555T115 443T145 333T222 283H280Q331 294 385 348Q389 388 389 409Z" />
<glyph unicode=":" glyph-name="colon" horiz-adv-x="249" d="M79 66T98 75T137 85T168 76T180 56L175 20Q164 -10 111 -10Q91 -10 81 -1T70 20L74 51Q79 66 98 75ZM111 431T130 440T169 450T200 441T212 421L207 385Q196 355 143 355Q123 355 113 364T102 385L106
416Q111 431 130 440Z" />
<glyph unicode=";" glyph-name="semicolon" horiz-adv-x="235" d="M49 -174Q34 -169 20 -155V-143Q48 -119 70 -84T92 -24T82 20T63 40V71Q102 84 143 118H150Q169 89 169 50T139 -47T79 -140L49 -174ZM87 431T106 440T145 450T176 441T188 421L183 385Q172 355
119 355Q99 355 89 364T78 385L82 416Q87 431 106 440Z" />
<glyph unicode="&lt;" glyph-name="less" horiz-adv-x="474" d="M413 133V123Q397 103 362 83L50 287L46 302L372 513Q396 513 412 493Q416 488 418 483L143 311L413 133Z" />
<glyph unicode="=" glyph-name="equal" horiz-adv-x="475" d="M182 304Q270 304 381 314L397 300L384 237H91Q86 258 86 270L91 304H182ZM182 429Q270 429 381 439L397 425L384 362H91Q86 383 86 395L91 429H182Z" />
<glyph unicode="&gt;" glyph-name="greater" horiz-adv-x="462" d="M413 316L87 105Q63 105 47 125Q43 130 41 135L316 307L53 479V489Q69 509 104 529L409 331L413 316Z" />
<glyph unicode="?" glyph-name="question" horiz-adv-x="372" d="M51 66T70 75T109 85T140 76T152 56L147 20Q136 -10 83 -10Q63 -10 53 -1T42 20L46 51Q51 66 70 75ZM287 452Q287 513 234 572T123 644V662L176 697Q241 677 298 619T356 480T301 345T166 290L147
171Q134 166 113 166L90 171L104 335L116 347H228Q287 378 287 452Z" />
<glyph unicode="@" glyph-name="at" horiz-adv-x="1207" d="M1047 554T1067 494T1088 346T1058 178T967 12Q834 12 722 -15Q686 -15 686 30L705 173L695 179Q658 89 620 40T520 -10T416 35T374 159Q374 288 451 384T642 480Q679 480 726 451Q728 469 730 480Q780
495 825 495Q806 418 794 329T769 60H936Q945 69 960 95T984 148Q1010 219 1010 311Q1010 438 951 524T799 633H538Q415 574 322 437T228 163Q228 -14 308 -86Q348 -123 396 -141T512 -168H810Q810 -190 789 -211Q584 -244 527 -244Q334 -244 237 -155T140 105Q140
221 182 331T301 526T490 663T737 715Q826 715 895 685T1006 605ZM450 187Q450 143 470 108T515 60H563Q621 71 704 270Q708 312 720 410H560Q521 403 486 333T450 187Z" />
<glyph unicode="A" glyph-name="A" horiz-adv-x="672" d="M682 31Q682 8 672 -12Q569 -5 532 -5L427 -12Q427 11 437 31Q466 38 492 51Q461 210 456 232Q339 235 302 235T214 231L126 51L212 31Q212 8 202 -12Q122 -5 85 -5L-10 -12Q-10 11 0 31Q32 40 59 59Q246
389 358 637L350 669Q393 690 442 690Q536 265 599 46L682 31ZM239 283Q286 280 335 280T445 282Q433 339 379 556Q326 459 239 283Z" />
<glyph unicode="B" glyph-name="B" horiz-adv-x="583" d="M342 690Q520 690 520 550Q520 427 411 373Q476 358 509 320T542 229Q542 107 462 49T253 -10Q220 -10 176 -5T115 0L20 -7Q20 16 30 36Q70 48 98 72Q124 292 143 626L68 644Q68 667 78 687Q142 680 179
680T270 685T342 690ZM338 336H200Q196 289 184 60H378Q465 93 465 199Q465 261 426 298T338 336ZM447 521Q447 558 430 588T382 625H228Q212 496 203 382H348Q447 426 447 521Z" />
<glyph unicode="C" glyph-name="C" horiz-adv-x="582" d="M193 580T147 488T101 302T136 143T240 60H479Q479 37 469 17Q328 -20 246 -20Q140 -20 79 54T17 241Q17 380 80 496Q148 621 268 670Q332 696 394 696T496 678T548 635Q527 597 514 536L509 516Q484 507
455 507Q463 529 463 558Q463 607 437 625H277Q193 580 147 488Z" />
<glyph unicode="D" glyph-name="D" horiz-adv-x="657" d="M195 680L370 690Q424 690 469 670T544 618T595 544Q634 467 634 383Q634 204 529 97T245 -10Q213 -10 174 -5T123 0H102L20 -7Q20 16 30 36Q70 48 98 72Q119 249 142 626L68 644Q68 667 78 687Q158 680
195 680ZM352 625H217Q199 471 196 400T188 224T181 60H374Q451 90 502 180T554 364T497 542T352 625Z" />
<glyph unicode="E" glyph-name="E" horiz-adv-x="574" d="M537 680Q546 672 553 655Q532 618 518 565L514 548Q494 539 465 539Q474 579 474 599T459 625H216Q197 461 190 370H414Q430 394 438 424Q445 427 458 427L480 423Q459 357 449 254Q441 250 429 250L412
253Q412 293 404 320H187Q178 198 172 60H431Q450 88 459 124L462 137Q493 131 504 116L508 110Q488 60 482 0H107L12 -7Q12 16 22 36Q58 47 86 69Q112 292 131 626L56 644Q56 667 66 687Q130 680 170 680H537Z" />
<glyph unicode="F" glyph-name="F" horiz-adv-x="527" d="M75 644Q75 667 85 687Q165 680 202 680H556Q565 672 572 655Q551 618 538 565L533 548Q513 539 484 539Q493 579 493 599T478 625H235Q216 461 209 370H433Q449 394 457 424Q464 427 477 427L499 423Q478
357 468 254Q460 250 448 250L431 253Q431 293 423 320H206Q198 206 190 51L272 36Q272 13 262 -7Q179 0 145 0Q97 0 42 -6L27 -7Q27 16 37 36Q77 48 105 72Q131 292 150 626L75 644Z" />
<glyph unicode="G" glyph-name="G" horiz-adv-x="655" d="M548 37Q389 -20 281 -20T114 52T56 241Q56 380 119 496Q187 621 306 670Q371 696 434 696T552 677T617 635Q596 597 582 536L578 516Q553 507 524 507Q532 529 532 558Q532 607 506 625H316Q232 580 186
488T140 302T177 143T282 60H472Q491 144 493 227L417 244Q417 267 427 287Q490 280 529 280L634 287Q634 264 624 244Q593 238 566 224Q554 157 548 37Z" />
<glyph unicode="H" glyph-name="H" horiz-adv-x="755" d="M288 36Q288 13 278 -7Q195 0 159 0Q104 0 56 -6L43 -7Q43 16 53 36Q93 48 121 72Q147 295 166 630L88 644Q88 667 98 687Q181 680 218 680L333 687Q333 664 323 644Q279 636 250 615Q234 484 225 370H548Q558
546 564 630L486 644Q486 667 496 687Q589 680 626 680L731 687Q731 664 721 644Q677 636 648 615Q621 380 604 51L686 36Q686 13 676 -7Q593 0 557 0Q502 0 454 -6L441 -7Q441 16 451 36Q491 48 519 72Q537 230 544 321H222Q214 206 206 51L288 36Z" />
<glyph unicode="I" glyph-name="I" horiz-adv-x="334" d="M272 36Q272 13 262 -7Q164 0 134 0Q90 0 40 -6L27 -7Q27 16 37 36Q75 47 103 70Q129 295 148 631L72 644Q72 667 82 687Q170 680 207 680L317 687Q317 664 307 644Q260 636 232 613Q206 396 188 51L272 36Z" />
<glyph unicode="J" glyph-name="J" horiz-adv-x="295" d="M104 644Q104 667 114 687Q207 680 244 680L349 687Q349 664 339 644Q290 635 261 611Q246 506 238 346T218 99T179 -55T120 -163Q58 -240 21 -260H12Q0 -245 0 -217Q50 -170 89 -90T139 75T157 241T169
454T179 631L104 644Z" />
<glyph unicode="K" glyph-name="K" horiz-adv-x="598" d="M64 644Q64 667 74 687Q149 680 184 680Q239 680 294 686L309 687Q309 664 299 644Q255 636 226 615Q207 444 201 369Q232 376 281 390Q351 460 384 498T480 618L400 638Q400 661 412 681Q484 674 521
674L618 681Q618 658 608 638Q569 634 536 601Q423 488 328 368Q415 241 531 46L614 31Q614 8 604 -12Q514 -5 449 -5Q353 177 246 330L198 321Q190 206 182 51L264 36Q264 13 254 -7Q151 0 114 0L19 -7Q19 16 29 36Q69 48 97 72Q123 295 142 630L64 644Z" />
<glyph unicode="L" glyph-name="L" horiz-adv-x="547" d="M76 644Q76 667 86 687Q179 680 210 680Q253 680 306 686L321 687Q321 664 311 644Q261 635 233 611Q206 381 190 60H465Q484 88 492 132L494 147Q524 141 543 120Q522 68 518 0H121L26 -7Q26 16 36 36Q76
48 104 72Q129 289 150 631L76 644Z" />
<glyph unicode="M" glyph-name="M" horiz-adv-x="855" d="M236 36Q236 13 226 -7Q141 0 104 0L9 -7Q9 16 19 36Q59 47 87 72Q132 385 153 625L70 644Q70 667 80 687Q141 680 180 680H266Q353 334 421 139Q502 312 647 680H738L843 687Q843 664 833 644Q788 636
759 614Q733 339 728 52L813 36Q813 13 803 -7Q720 0 684 0Q629 0 581 -6L568 -7Q568 16 578 36Q615 47 643 70Q663 259 675 578Q533 269 434 0L420 -10L361 0Q284 315 209 563Q170 289 153 55L236 36Z" />
<glyph unicode="N" glyph-name="N" horiz-adv-x="672" d="M254 36Q254 13 244 -7Q154 0 117 0L22 -7Q22 16 32 36Q71 47 99 71Q117 203 124 287T138 471T151 626L68 644Q68 667 78 687Q142 680 182 680H236Q323 503 414 343T516 163Q546 449 554 626L469 644Q469
667 479 687Q546 680 580 680Q634 680 689 686L704 687Q704 664 694 644Q648 636 620 614Q584 319 572 0L558 -10L499 0Q312 356 210 537Q195 416 172 53L254 36Z" />
<glyph unicode="O" glyph-name="O" horiz-adv-x="687" d="M38 241Q38 381 100 495Q168 620 287 668Q352 695 428 695Q534 695 595 622T657 435Q657 261 562 126Q516 60 440 20T262 -20T100 54T38 241ZM214 580T168 488T122 302T157 143T261 60H400Q484 105 528
194T573 376T539 536T438 625H298Q214 580 168 488Z" />
<glyph unicode="P" glyph-name="P" horiz-adv-x="469" d="M183 680L320 690Q407 690 459 651T511 523Q511 410 427 346T224 281H183L170 51L252 36Q252 13 242 -7Q139 0 109 0Q65 0 20 -6L7 -7Q7 16 17 36Q57 48 85 72Q111 292 130 626L56 644Q56 667 66 687Q146
680 183 680ZM358 345T395 390T433 489T411 579T348 625H215Q195 453 186 332H290Q358 345 395 390Z" />
<glyph unicode="Q" glyph-name="Q" horiz-adv-x="679" d="M38 241Q38 381 100 495Q168 620 287 668Q352 695 428 695Q534 695 595 622T657 433T611 211T477 43L695 -97V-130Q567 -130 496 -80Q448 -46 394 0Q331 -20 267 -20Q161 -20 100 54T38 241ZM214 580T168
488T122 302T157 143T261 60H336L390 100L427 76Q498 125 535 208T573 380T539 536T438 625H298Q214 580 168 488Z" />
<glyph unicode="R" glyph-name="R" horiz-adv-x="577" d="M589 31Q589 8 579 -12Q495 -5 430 -5Q377 135 302 286Q276 281 238 281H199L186 51L268 36Q268 13 258 -7Q155 0 118 0L23 -7Q23 16 33 36Q73 48 101 72Q127 292 146 626L72 644Q72 667 82 687Q162 680
199 680L335 690Q422 690 474 651T527 529T488 392T382 308Q446 159 511 44L589 31ZM449 498Q449 541 427 578T363 625H231Q211 453 202 332H304Q372 345 410 390T449 498Z" />
<glyph unicode="S" glyph-name="S" horiz-adv-x="534" d="M248 625Q184 601 184 532T297 397Q392 343 434 299T477 205Q477 94 407 37T209 -20Q54 -20 24 50Q45 88 58 149L63 169Q88 178 117 178Q109 156 109 127Q109 78 135 60H335Q394 97 394 168Q394 214 358
253T247 337T139 413T107 494Q107 595 175 645T354 695Q406 695 446 678T495 635Q474 597 460 536L456 516Q431 507 402 507Q410 529 410 558Q410 607 384 625H248Z" />
<glyph unicode="T" glyph-name="T" horiz-adv-x="559" d="M391 36Q391 13 381 -7Q298 -1 254 0H241L146 -7Q146 16 156 36Q194 47 222 70Q248 289 267 622L100 615Q82 586 74 546Q55 539 23 537L20 544Q38 610 45 687Q201 680 322 680L616 687L619 680Q597 630
584 558L580 536Q558 527 527 527Q537 570 541 615Q448 620 352 622Q324 379 307 51L391 36Z" />
<glyph unicode="U" glyph-name="U" horiz-adv-x="703" d="M461 638Q461 661 473 681Q545 674 582 674L679 681Q679 658 669 638Q630 634 598 601Q575 308 560 221T530 96T483 32T406 -5T285 -15Q189 -15 137 33T85 140T97 363T115 630L35 644Q35 667 45 687Q138
680 168 680Q212 680 266 686L280 687Q280 664 270 644Q224 636 195 614Q169 406 169 172Q169 123 208 92T298 60H433Q480 89 497 169T525 359T538 544L541 618L461 638Z" />
<glyph unicode="V" glyph-name="V" horiz-adv-x="577" d="M451 120T375 55T193 -10T65 27Q92 361 95 610H18Q18 633 28 653Q95 661 149 685Q163 685 174 673T185 640Q155 233 155 60H285Q324 73 371 130Q446 221 468 365Q477 424 477 461Q477 577 448 640Q451
645 458 652T496 672T563 685Q563 568 544 442T488 218Z" />
<glyph unicode="W" glyph-name="W" horiz-adv-x="877" d="M561 60Q597 60 646 121T725 269T755 457T717 640Q722 645 731 652T772 672T842 685Q842 541 815 392T739 160Q640 -10 508 -10Q471 -10 447 0T416 20L411 30L423 173L413 179Q392 126 384 112T362 73T337
39T308 15Q276 -10 230 -10T156 0T117 20L107 30Q134 364 137 610H60Q60 633 70 653Q137 661 191 685Q205 685 216 673T227 640Q197 233 197 60H265Q292 60 323 99Q378 169 420 287Q433 489 442 581Q488 596 533 596Q517 519 516 488Q504 361 494 130L491 60H561Z"
/>
<glyph unicode="X" glyph-name="X" horiz-adv-x="492" d="M-12 608Q-12 631 -2 651Q55 659 109 683Q139 672 162 632Q189 584 203 544Q230 472 246 422L432 681Q456 681 479 674T513 658L524 650Q457 593 412 531L274 342L291 291Q302 258 309 238T327 188T345
141T362 103Q381 66 396 60H494Q494 37 484 17Q417 9 363 -15Q333 -3 305 47T261 141T220 267L21 -10Q-3 -10 -26 -2T-60 14L-71 21Q-9 70 35 131L194 350Q156 467 129 532T79 608H-12Z" />
<glyph unicode="Y" glyph-name="Y" horiz-adv-x="543" d="M-5 -217Q-5 -193 4 -175H295Q340 -153 374 -34Q396 41 406 173L396 179Q368 114 307 54Q275 23 231 4T144 -15T77 -11T40 0Q15 13 14 22L13 27Q18 72 28 153T43 277T54 384Q68 511 73 625H-1Q-1 648 9
668Q71 676 125 700Q139 700 150 688T161 655Q117 376 98 60H187Q234 60 303 131T407 278Q437 532 457 666Q507 681 552 681Q533 604 524 534T499 331T480 160T466 61T450 -27T431 -95T406 -153T373 -192T330 -224Q267 -245 214 -245Q113 -245 24 -224L-5 -217Z"
/>
<glyph unicode="Z" glyph-name="Z" horiz-adv-x="588" d="M124 549Q96 556 79 574Q102 655 102 690Q136 701 217 701T485 668L501 690Q540 690 568 676L578 672V662L146 60H488Q505 86 512 123L515 136Q543 129 560 111Q537 25 537 -10Q491 -21 438 -21Q255 -21
108 6L96 -10Q76 -10 52 -3T18 14V24L454 625H151Q134 599 126 562L124 549Z" />
<glyph unicode="[" glyph-name="bracketleft" horiz-adv-x="306" d="M319 646H219Q197 515 178 281T157 -107H244L241 -139Q152 -150 70 -150Q74 -96 90 82Q131 525 138 690L323 678L319 646Z" />
<glyph unicode="\" glyph-name="backslash" horiz-adv-x="494" d="M24 711Q39 716 52 716Q82 716 94 711Q115 620 203 350T376 -134L372 -150L280 -134Q159 305 24 711Z" />
<glyph unicode="]" glyph-name="bracketright" horiz-adv-x="306" d="M11 -106H111Q133 25 152 259T173 647H86L89 679Q177 690 259 690Q255 636 238 458Q198 15 191 -150L7 -140L11 -106Z" />
<glyph unicode="^" glyph-name="asciicircum" horiz-adv-x="475" d="M65 421L252 690L267 686L430 431Q404 393 388 380H378L241 597L96 380Q84 385 74 400L65 421Z" />
<glyph unicode="_" glyph-name="underscore" horiz-adv-x="506" d="M167 19Q305 19 416 29L432 15L419 -38H76Q71 -27 71 -15L76 19H167Z" />
<glyph unicode="`" glyph-name="grave" horiz-adv-x="400" d="M176 760Q220 696 280 621L300 596V589L251 570Q223 590 190 624T138 682L119 705V715Q144 747 176 760Z" />
<glyph unicode="a" glyph-name="a" horiz-adv-x="546" d="M509 60Q509 37 499 17Q432 9 378 -15Q363 -15 353 -4T342 30L361 173L351 179Q314 89 276 40T176 -10T72 35T30 159Q30 288 107 384T298 480Q335 480 382 451Q384 469 386 480Q436 495 481 495Q462 418
450 329T425 60H509ZM106 187Q106 143 126 108T171 60H219Q277 71 360 270Q364 312 376 410H216Q177 403 142 333T106 187Z" />
<glyph unicode="b" glyph-name="b" horiz-adv-x="520" d="M34 715Q34 738 44 758Q101 766 155 790Q169 790 180 778T191 745L146 297L156 291Q193 381 231 430T331 480T435 435T477 311Q477 182 400 86T209 -10L53 0H34Q50 67 54 98Q75 248 107 715H34ZM401 283Q401
327 381 362T336 410H288Q249 402 204 322Q170 259 149 206Q146 159 134 60H291Q330 67 365 137T401 283Z" />
<glyph unicode="c" glyph-name="c" horiz-adv-x="437" d="M364 60Q364 37 354 17Q248 -10 202 -10Q116 -10 73 34T29 164T58 318T149 433T289 480Q327 480 358 466T404 440Q383 403 370 350L365 333Q345 324 316 324Q325 364 325 384T310 410H205Q164 394 134
335T103 208Q103 130 132 96Q157 67 178 62L186 60H364Z" />
<glyph unicode="d" glyph-name="d" horiz-adv-x="555" d="M514 60Q514 37 504 17Q437 9 383 -15Q368 -15 358 -4T347 30L366 173L356 179Q319 89 281 40T181 -10T77 35T35 159Q35 288 112 384T303 480Q340 480 390 449Q405 595 410 715H333Q333 738 343 758Q400
766 454 790Q468 790 479 778T490 745Q457 466 431 60H514ZM111 187Q111 143 131 108T176 60H224Q285 72 370 280Q371 288 385 410H221Q182 403 147 333T111 187Z" />
<glyph unicode="e" glyph-name="e" horiz-adv-x="446" d="M381 60Q381 37 371 17Q265 -10 219 -10Q47 -10 47 177Q47 246 77 314T168 431T308 480Q357 480 380 455T403 394Q403 214 121 208Q121 71 203 60H381ZM333 369Q333 402 305 410H213Q180 397 156 353T124
252Q239 256 286 285T333 369Z" />
<glyph unicode="f" glyph-name="f" horiz-adv-x="309" d="M301 470Q301 446 291 410H184L153 0Q104 -15 59 -15Q75 52 82 109T112 410H53Q53 433 63 453Q68 453 79 458T98 470Q117 487 123 519Q131 595 149 649T190 730Q233 780 272 780Q298 780 354 764L372 758Q372
735 362 715H256Q211 658 197 534L189 465L301 470Z" />
<glyph unicode="g" glyph-name="g" horiz-adv-x="525" d="M14 -217Q14 -193 23 -175H251Q296 -153 330 -34Q352 41 362 173L353 178Q316 88 278 39T178 -10T74 35T32 159Q32 288 109 384T300 480Q338 480 383 452L387 480Q437 495 482 495Q463 418 457 376T444
260T431 140T417 34T397 -61T366 -136T320 -196Q260 -245 163 -245Q122 -245 41 -224L14 -217ZM108 187Q108 143 128 108T173 60H221Q280 71 361 267Q365 314 377 410H218Q179 403 144 333T108 187Z" />
<glyph unicode="h" glyph-name="h" horiz-adv-x="597" d="M57 715Q57 738 67 758Q124 766 178 790Q192 790 203 778T214 745L169 297L179 291Q210 362 271 421T409 480Q446 480 468 470T494 450L497 440Q471 219 466 60H546Q546 37 536 17Q469 9 415 -15Q400 -15
390 -4T379 30Q401 170 417 410H356Q316 410 261 348T172 210Q162 86 149 0Q100 -15 55 -15Q71 52 75 83Q94 221 130 715H57Z" />
<glyph unicode="i" glyph-name="i" horiz-adv-x="287" d="M33 410Q33 433 43 453Q100 461 154 485Q168 485 179 473T190 440Q167 245 159 60H239Q239 37 229 17Q162 9 108 -15Q93 -15 83 -4T72 30Q94 170 110 410H33ZM117 661T136 670T175 680T206 671T218 651L213
615Q202 585 149 585Q129 585 119 594T108 615L112 646Q117 661 136 670Z" />
<glyph unicode="j" glyph-name="j" horiz-adv-x="243" d="M-40 -230Q13 -168 44 -105T86 33T110 410H23L33 453Q100 461 154 485Q168 485 178 473T190 440Q183 353 178 270Q168 109 162 60Q136 -155 -24 -260H-33Q-40 -246 -40 -230ZM117 661T136 670T175 680T206
671T218 651L213 615Q202 585 149 585Q129 585 119 594T108 615L112 646Q117 661 136 670Z" />
<glyph unicode="k" glyph-name="k" horiz-adv-x="544" d="M53 715Q53 738 63 758Q120 766 174 790Q188 790 199 778T210 745L160 297L170 291Q201 362 262 421T400 480Q437 480 459 470T484 450L488 440Q480 350 425 285T320 200L412 60H510Q510 37 500 17Q433
9 379 -15Q355 -15 342 9L236 190V200Q313 234 356 284T408 410H347Q307 410 252 348T163 210Q153 86 140 0Q91 -15 46 -15Q62 52 66 83Q86 230 126 715H53Z" />
<glyph unicode="l" glyph-name="l" horiz-adv-x="269" d="M46 715Q46 738 56 758Q113 766 167 790Q181 790 192 778T203 745Q184 585 143 60H221Q221 37 211 17Q144 9 90 -15Q75 -15 65 -4T54 30Q107 475 123 715H46Z" />
<glyph unicode="m" glyph-name="m" horiz-adv-x="901" d="M708 480Q745 480 767 470T792 450L796 440Q773 247 765 60H845Q845 37 835 17Q768 9 714 -15Q699 -15 689 -4T678 30Q700 170 716 410H655Q620 410 568 340T478 189Q467 42 461 0Q412 -15 367 -15Q383
52 387 83Q405 170 421 410H360Q321 410 276 350T196 210Q186 86 173 0Q124 -15 79 -15Q95 52 107 142T128 410H55Q55 433 65 453Q122 461 176 485Q190 485 201 473T212 440L193 297L203 291Q286 480 413 480Q450 480 472 470T498 450L501 440Q500 413 488 297L498
291Q581 480 708 480Z" />
<glyph unicode="n" glyph-name="n" horiz-adv-x="614" d="M55 410Q55 433 65 453Q122 461 176 485Q190 485 201 473T212 440L193 297L203 291Q234 362 295 421T433 480Q470 480 492 470T518 450L521 440Q498 247 490 60H570Q570 37 560 17Q493 9 439 -15Q424 -15
414 -4T403 30Q425 170 441 410H380Q340 410 285 348T196 210Q186 86 173 0Q124 -15 79 -15Q95 52 107 142T128 410H55Z" />
<glyph unicode="o" glyph-name="o" horiz-adv-x="490" d="M178 62L186 60H282Q324 76 356 137T388 262Q388 341 360 374Q335 403 316 408L308 410H212Q170 394 138 333T106 201T132 98T178 62ZM406 88T346 39T202 -10Q31 -10 31 176Q31 246 59 314T148 431T292
480Q463 480 463 294Q463 224 435 156Z" />
<glyph unicode="p" glyph-name="p" horiz-adv-x="565" d="M252 -10Q215 -10 168 4Q156 -117 152 -195L231 -212Q231 -235 221 -255Q141 -245 114 -245Q67 -245 8 -252L-11 -255Q-11 -232 -1 -212Q36 -203 65 -185Q90 -32 101 86T124 410H51Q51 433 61 453Q118
461 172 485Q186 485 197 473T208 440L189 297L199 291Q236 381 274 430T374 480T478 435T520 311Q520 182 443 86T252 -10ZM444 283Q444 327 424 362T379 410H331Q269 398 188 195L173 60H334Q373 67 408 137T444 283Z" />
<glyph unicode="q" glyph-name="q" horiz-adv-x="558" d="M331 89T293 40T193 -10T89 35T47 159Q47 288 124 384T315 480Q352 480 399 451Q401 469 403 480Q453 495 498 495Q480 418 470 358T443 120T419 -194L502 -212Q502 -235 492 -255Q420 -245 390 -245Q336
-245 279 -252L260 -255Q260 -232 270 -212Q320 -200 348 -176Q364 -22 374 125L378 173L368 179Q331 89 293 40ZM123 187Q123 143 143 108T188 60H236Q294 71 377 270Q381 312 393 410H233Q194 403 159 333T123 187Z" />
<glyph unicode="r" glyph-name="r" horiz-adv-x="420" d="M37 410Q37 433 47 453Q104 461 158 485Q172 485 183 473T194 440L177 320L187 314Q212 371 264 425T366 480Q385 480 400 472T422 456L428 448Q403 404 390 350L385 333Q365 324 336 324Q345 365 345
376Q345 404 326 410Q304 410 257 354T180 232Q167 82 155 0Q106 -15 61 -15Q77 52 89 142T110 410H37Z" />
<glyph unicode="s" glyph-name="s" horiz-adv-x="454" d="M315 122Q315 141 305 152T290 169T271 183T253 195Q228 210 205 222T169 243T137 267Q103 296 103 342Q103 409 153 444T277 480T410 440Q387 397 375 348L371 333Q351 324 322 324Q331 365 331 376Q331
408 309 415H212Q164 408 164 359Q164 342 181 325T215 297T263 270T316 241T358 203T380 153Q380 75 329 33T191 -10Q138 -10 101 6T52 39L41 55Q63 93 73 137L76 150Q96 159 125 159Q116 126 116 102Q116 67 173 55H277Q315 77 315 122Z" />
<glyph unicode="t" glyph-name="t" horiz-adv-x="333" d="M300 470Q300 446 290 410H175Q156 231 151 60H271Q271 37 261 17Q174 9 120 -15Q64 -15 64 30Q96 274 104 410H52Q52 433 62 453Q64 454 67 455T81 465T99 484Q121 515 127 567Q159 585 194 585Q189 528
181 465L300 470Z" />
<glyph unicode="u" glyph-name="u" horiz-adv-x="607" d="M562 60Q562 37 552 17Q485 9 431 -15Q416 -15 406 -4T395 30L414 173L404 179Q373 108 312 49T174 -10Q137 -10 115 0T90 20L86 30Q108 227 116 410H47Q47 433 57 453Q114 461 168 485Q182 485 193 473T204
440Q182 300 166 60H227Q268 60 324 125T412 265Q426 393 439 480Q489 495 534 495Q515 418 503 329T478 60H562Z" />
<glyph unicode="v" glyph-name="v" horiz-adv-x="523" d="M170 60H265Q346 88 384 212Q401 268 401 332T377 448Q417 485 485 485Q485 239 400 115T202 -10Q162 -10 134 0T98 20L90 30Q110 284 112 410H41Q41 433 51 453Q108 461 162 485Q176 485 187 473T198
440Q170 233 170 60Z" />
<glyph unicode="w" glyph-name="w" horiz-adv-x="766" d="M512 60Q551 60 585 92T636 187T654 316T623 448Q627 452 634 458T667 474T724 485Q724 229 649 96Q589 -10 465 -10Q428 -10 405 0T378 20L373 30L385 173L375 179Q371 170 361 145T344 108T327 74T304
40T276 15Q245 -10 202 -10T136 0T108 20L104 30Q124 284 126 410H55Q55 433 65 453Q122 461 176 485Q190 485 201 473T212 440Q184 233 184 60H229Q268 60 309 125T381 275Q384 331 394 442Q440 457 485 457Q469 380 468 349Q455 215 454 96L453 60H512Z" />
<glyph unicode="x" glyph-name="x" horiz-adv-x="518" d="M484 60Q484 37 474 17Q407 9 353 -15Q319 -3 297 39T241 182L95 -15Q71 -15 52 -8T24 8L17 15Q72 58 94 86L219 248L208 281Q201 302 198 313T188 339T178 364T168 383Q158 402 146 410H55Q55 433 65
453Q122 461 176 485Q208 472 230 433T278 313L409 485Q449 485 479 468L489 463Q432 414 410 383L299 246Q352 76 386 60H484Z" />
<glyph unicode="y" glyph-name="y" horiz-adv-x="571" d="M58 -217Q58 -198 67 -175H295Q340 -153 374 -34Q396 41 406 173L396 179Q365 108 304 49T166 -10Q129 -10 107 0T82 20L78 30Q101 234 111 410H42Q42 433 52 453Q109 461 163 485Q177 485 188 473T199
440Q174 300 158 60H219Q260 60 316 125T404 265Q418 393 431 480Q481 495 526 495Q507 418 501 376T488 260T475 140T461 34T441 -61T410 -136T364 -196Q304 -245 207 -245Q166 -245 85 -224L58 -217Z" />
<glyph unicode="z" glyph-name="z" horiz-adv-x="474" d="M128 334Q100 341 83 359Q106 439 106 474Q109 480 161 480T374 452L397 480Q437 480 459 462V452L141 60H352Q369 86 376 123L379 136Q407 129 424 111Q401 31 401 -4Q392 -10 310 -10T104 14L85 -10Q44
-10 22 14V24L339 410H155Q138 384 130 347L128 334Z" />
<glyph unicode="{" glyph-name="braceleft" horiz-adv-x="315" d="M250 690Q283 690 320 680L333 676L329 651H278Q256 646 246 637T232 607T221 508T207 394T178 329T134 284Q155 271 173 245T191 182T181 50T171 -67Q171 -99 202 -110H254L250 -136Q212 -149
177 -149T123 -132T104 -85T115 29T127 151T109 215T72 252L54 263Q54 286 64 306Q72 311 83 319T116 356T143 412Q157 463 160 532T168 623Q187 690 250 690Z" />
<glyph unicode="|" glyph-name="bar" horiz-adv-x="424" d="M154 -200L126 -195Q136 -134 165 202T194 680L272 696L286 680Q269 580 231 224T193 -195Q175 -200 154 -200Z" />
<glyph unicode="}" glyph-name="braceright" horiz-adv-x="335" d="M73 -149Q40 -149 2 -138L-10 -135L-6 -110H45Q67 -105 77 -96T91 -66T102 33T116 147T145 212T189 257Q168 270 150 296T132 359T142 491T152 608Q152 640 121 651H69L73 677Q111 690 146 690T200
673T219 626T208 512T196 390T214 326T250 289L269 278Q269 255 259 235Q251 230 240 222T207 185T180 129Q166 78 163 9T155 -82Q136 -149 73 -149Z" />
<glyph unicode="~" glyph-name="asciitilde" horiz-adv-x="474" d="M376 269Q355 262 323 262T227 281T153 300H130Q119 288 111 269H74L67 277L84 365Q105 372 135 372T232 353T307 334H330Q341 346 349 365H386L393 357L376 269Z" />
<glyph unicode="&#xa1;" glyph-name="exclamdown" horiz-adv-x="259" d="M201 374T182 365T143 355T112 364T100 384L105 420Q116 450 169 450Q189 450 199 441T210 420L206 389Q201 374 182 365ZM149 274L172 269Q164 220 154 63T144 -240L66 -256L52 -240Q72
-123 93 44T115 269Q128 274 149 274Z" />
<glyph unicode="&#xa2;" glyph-name="cent" horiz-adv-x="437" d="M157 -60L165 1Q97 9 63 49T29 179T77 352T209 466Q211 492 211 537L282 553L296 537L287 480Q326 480 358 466T404 440Q383 403 370 350L365 333Q345 324 316 324Q325 364 325 384T310 410H276Q246
207 233 70H364Q364 47 354 27Q279 7 228 1Q224 -41 224 -60Q206 -65 185 -65L157 -60ZM103 208Q103 91 174 72Q194 252 206 410Q164 394 134 335T103 208Z" />
<glyph unicode="&#xa3;" glyph-name="sterling" horiz-adv-x="547" d="M196 267Q185 157 180 82Q199 82 257 67T350 52H375L400 76H431L417 -1Q373 -20 340 -20T240 -2T147 16H135L110 -10H61L103 76Q123 244 123 267H63Q58 278 58 290L63 324H129Q136 394 145
455Q157 535 211 576T321 617T409 582T441 495Q430 480 391 472H381Q381 500 364 533T330 569H285Q261 558 243 530T219 465T201 324Q258 324 354 333L369 320L356 267H196Z" />
<glyph unicode="&#xa4;" glyph-name="currency" horiz-adv-x="688" d="M274 174L283 171H373Q414 187 447 240T481 351Q481 424 452 459Q425 491 406 496L397 499H307Q266 483 233 430T199 312T227 213T274 174ZM222 502Q291 564 372 564T498 524L567 589Q592
585 607 556Q611 549 612 541L535 471Q551 431 551 381Q551 292 499 217L578 136V121Q564 91 523 69L441 153Q379 106 302 106T180 147L105 78Q88 78 75 90Q61 105 61 121L145 198Q129 234 129 299T169 434L105 500V515Q126 553 159 568L222 502Z" />
<glyph unicode="&#xa5;" glyph-name="yen" horiz-adv-x="543" d="M244 0Q220 -10 202 -10Q173 -10 153 0Q168 71 172 99H63Q58 109 58 121L63 153H180Q186 201 189 246H72Q67 256 67 268L72 300H190L68 593Q101 617 147 617Q207 445 254 337Q309 430 414 617Q450
617 463 606Q382 480 283 301Q329 302 402 309L417 296L404 246H273L260 153Q312 154 392 162L407 149L395 99H254Q248 54 244 0Z" />
<glyph unicode="&#xa6;" glyph-name="brokenbar" horiz-adv-x="429" d="M195 286L171 291Q194 475 194 680L272 696L286 680Q245 436 236 291Q216 286 195 286ZM120 -195Q129 -143 144 -10T163 192Q180 197 201 197L229 192Q187 -116 187 -195Q169 -200 148 -200L120
-195Z" />
<glyph unicode="&#xa7;" glyph-name="section" horiz-adv-x="455" d="M409 593Q405 571 391 549H219Q202 544 189 525T176 481T198 430T251 382T313 335T367 278T389 206Q389 98 289 64Q323 23 323 -23Q323 -86 277 -135T134 -185Q80 -185 40 -167L26 -161Q30
-139 44 -117H216Q259 -103 259 -51Q259 -19 226 13T153 71T80 137T46 224Q46 332 146 366Q111 404 111 459T158 566T301 617Q355 617 396 599L409 593ZM264 276T234 297T197 323H149Q117 293 117 243Q117 202 157 167Q180 147 205 130T238 108H285Q317 138 317
181T291 250Z" />
<glyph unicode="&#xa8;" glyph-name="dieresis" horiz-adv-x="400" d="M70 662T89 671T128 681T159 672T171 652L166 616Q155 586 102 586Q82 586 72 595T61 616L65 647Q70 662 89 671ZM268 662T287 671T326 681T357 672T369 652L364 616Q353 586 300 586Q280
586 270 595T259 616L263 647Q268 662 287 671Z" />
<glyph unicode="&#xa9;" glyph-name="copyright" horiz-adv-x="704" d="M451 264Q451 248 443 224Q369 205 337 205Q204 205 204 337Q204 418 259 484T398 551Q425 551 451 541T484 523Q468 494 460 457L458 444Q437 438 417 438Q423 466 423 480T414 499H339Q309
488 288 447T266 364T281 299T310 270L325 264H451ZM533 126T460 93T290 60T118 127T43 302Q43 456 130 564Q174 617 247 648T420 680T592 616T665 441Q665 293 576 181Q533 126 460 93ZM207 585T159 507T110 346T151 200T271 124H422Q505 163 551 239T598 400T560
547T443 625H290Q207 585 159 507Z" />
<glyph unicode="&#xaa;" glyph-name="ordfeminine" horiz-adv-x="342" d="M312 445Q312 427 299 410Q257 404 224 391Q215 391 208 398T200 417L211 501L206 505Q185 452 162 423T102 394T41 418T17 492Q17 568 62 624T175 680Q193 680 224 668Q224 673 226 681Q263
690 289 690Q267 593 256 445H312ZM114 625T94 588T73 517Q73 451 103 435H117Q159 445 213 584L219 635H142Q114 625 94 588Z" />
<glyph unicode="&#xab;" glyph-name="guillemotleft" horiz-adv-x="622" d="M164 261Q271 196 340 153V135L315 107Q268 142 206 178T106 234L67 253L71 293Q136 325 201 369T300 447L361 412V394Q328 362 268 321T164 261ZM402 257Q509 192 578 149V131L553 103Q506
138 444 174T344 230L305 249L309 289Q374 321 439 365T538 443L599 408V390Q566 358 506 317T402 257Z" />
<glyph unicode="&#xac;" glyph-name="logicalnot" horiz-adv-x="632" d="M531 169Q517 164 496 164T474 170L487 286H102Q97 307 97 319L102 353H283Q421 353 532 363L548 349Q535 276 532 198L531 169Z" />
<glyph unicode="&#xae;" glyph-name="registered" horiz-adv-x="704" d="M533 126T460 93T290 60T118 127T43 302Q43 456 130 564Q174 617 247 648T420 680T592 616T665 441Q665 293 576 181Q533 126 460 93ZM207 585T159 507T110 346T151 200T271 124H422Q505
163 551 239T598 400T560 547T443 625H290Q207 585 159 507ZM308 344Q303 264 303 247L332 243L327 212Q277 215 259 215H248L213 212L217 243Q230 248 242 257Q249 320 263 523L237 528L242 557Q273 555 295 555H309L375 559Q423 559 455 536T487 472T462 402T396
357Q415 314 433 288T459 247L488 241L482 210Q431 213 400 213Q386 249 338 344H308ZM392 383T410 405T429 452Q429 507 388 515H322Q315 454 310 376H359Q392 383 410 405Z" />
<glyph unicode="&#xaf;" glyph-name="overscore" horiz-adv-x="479" d="M193 660Q281 660 392 670L408 656L395 603H102Q97 614 97 626L102 660H193Z" />
<glyph unicode="&#xb0;" glyph-name="degree" horiz-adv-x="232" d="M112 670Q149 670 172 650T196 587T167 507T84 470Q47 470 24 490T0 553T29 633T112 670ZM68 623T57 605T46 565T56 529T80 512H113Q128 517 139 535T150 575T140 611T116 628H83Q68 623 57 605Z" />
<glyph unicode="&#xb1;" glyph-name="plusminus" horiz-adv-x="473" d="M223 561Q237 566 253 566T280 561L269 434Q337 439 381 443L397 429L384 376H265L255 257Q241 252 220 252T198 258L207 376H91Q86 387 86 399L91 433H212L223 561ZM80 144Q75 161 75 174T80
203H171Q259 203 370 213L386 199L373 144H80Z" />
<glyph unicode="&#xb2;" glyph-name="twosuperior" horiz-adv-x="270" d="M83 607Q73 607 59 619Q60 650 68 670Q110 690 147 690T210 671T235 625T221 575T191 535T142 491T90 442H197Q205 454 213 482Q229 480 243 468Q230 418 229 396Q197 393 155 393T60 408L49
395Q31 399 13 413V418Q46 459 90 499T156 563T178 614T156 649H105Q95 641 83 607Z" />
<glyph unicode="&#xb3;" glyph-name="threesuperior" horiz-adv-x="267" d="M55 607Q46 607 32 619Q33 650 41 670Q82 690 120 690Q201 690 201 622Q201 587 150 542Q213 526 213 461Q213 407 162 361T55 315Q32 315 12 325Q15 348 27 362H97Q121 369 140 395T159
445T143 485T104 507L96 501Q81 501 71 515V520Q99 542 124 569T149 617T128 649H77Q67 641 55 607Z" />
<glyph unicode="&#xb4;" glyph-name="acute" horiz-adv-x="400" d="M242 740Q275 734 312 715V705Q238 616 170 570L121 589V596Q193 667 242 740Z" />
<glyph unicode="&#xb5;" glyph-name="mu" horiz-adv-x="607" d="M229 -15Q170 -15 140 79L136 73L124 -118Q69 -133 24 -133Q43 -56 47 -25Q71 188 84 408L89 480Q144 495 189 495Q173 441 166 387L156 234Q156 197 186 134T244 60H284Q352 79 411 226Q417 264
425 355T439 480Q489 495 534 495Q515 418 508 366Q491 238 479 60L475 0Q425 -15 380 -15Q392 19 407 130L397 136Q331 -15 229 -15Z" />
<glyph unicode="&#xb6;" glyph-name="paragraph" horiz-adv-x="833" d="M236 281Q149 281 97 320T45 442T87 581T195 667T335 695H516Q654 695 765 705L781 691L768 638H663Q643 496 609 179T575 -195Q557 -200 536 -200L508 -195Q517 -135 544 174T575 638H422Q402
496 368 179T334 -195Q316 -200 295 -200L267 -195Q282 -98 313 281H236Z" />
<glyph unicode="&#xb7;" glyph-name="middot" horiz-adv-x="213" d="M56 273T75 282T114 292T145 283T157 263L152 227Q141 197 88 197Q68 197 58 206T47 227L51 258Q56 273 75 282Z" />
<glyph unicode="&#xb8;" glyph-name="cedilla" horiz-adv-x="371" d="M125 -190Q131 -172 145 -152Q180 -152 197 -139T214 -107T203 -81H161L155 -72L178 -3Q190 0 199 0L217 -3L211 -34H244Q272 -50 272 -84Q272 -132 231 -160T125 -190Z" />
<glyph unicode="&#xb9;" glyph-name="onesuperior" horiz-adv-x="259" d="M128 676L176 690L186 681Q164 561 161 440L232 425L224 394Q155 400 116 400L30 394Q30 410 39 424Q78 434 102 449Q118 545 118 621L119 625L62 562Q41 562 29 579V583Q90 633 128 676Z" />
<glyph unicode="&#xba;" glyph-name="ordmasculine" horiz-adv-x="301" d="M164 680Q211 680 241 650T271 560T234 447T126 394Q79 394 49 424T19 514T56 627T164 680ZM71 526Q71 462 118 439H167Q188 447 203 479T219 548Q219 612 172 635H123Q102 627 87 595T71 526Z" />
<glyph unicode="&#xbb;" glyph-name="guillemotright" horiz-adv-x="622" d="M502 313Q395 378 326 421V439L351 467Q398 432 460 396T560 340L599 321L595 281Q530 249 465 205T366 127L305 162V180Q338 212 398 253T502 313ZM264 317Q157 382 88 425V443L113
471Q160 436 222 400T322 344L361 325L357 285Q292 253 227 209T128 131L67 166V184Q100 216 160 257T264 317Z" />
<glyph unicode="&#xbc;" glyph-name="onequarter" horiz-adv-x="741" d="M142 -15L107 -10Q242 162 331 286T561 625L645 641L649 625Q511 445 429 332T188 -10Q162 -15 142 -15ZM654 37Q654 13 644 -5H601Q600 -34 600 -86Q584 -90 569 -90L538 -86L548 -5H412L405
2V35L570 262L614 270L621 262Q610 164 603 37H654ZM182 625L230 639L240 630Q218 507 213 390L284 375L276 344Q207 350 168 350L82 344Q82 360 91 374Q131 384 154 400Q172 498 172 570L173 574L116 511Q95 511 83 528V532Q144 582 182 625ZM567 205Q485 90 455
37H553Q560 101 567 205Z" />
<glyph unicode="&#xbd;" glyph-name="onehalf" horiz-adv-x="741" d="M125 -15L90 -10Q225 162 314 286T544 625L628 641L632 625Q494 445 412 332T171 -10Q145 -15 125 -15ZM506 202Q496 202 482 214Q483 245 491 265Q533 285 570 285T633 266T658 220T644 170T614
130T565 86T513 37H620Q628 49 636 77Q652 75 666 63Q653 13 652 -9Q620 -12 581 -12T483 3Q475 -5 472 -10Q454 -6 436 8V13Q469 54 513 94T579 158T601 209T579 244H528Q518 236 506 202ZM162 625L210 639L220 630Q198 507 193 390L264 375L256 344Q187 350 148
350L62 344Q62 360 71 374Q111 384 134 400Q152 498 152 570L153 574L96 511Q75 511 63 528V532Q124 582 162 625Z" />
<glyph unicode="&#xbe;" glyph-name="threequarters" horiz-adv-x="741" d="M132 -15L97 -10Q232 162 321 286T551 625L635 641L639 625Q501 445 419 332T178 -10Q152 -15 132 -15ZM664 37Q664 13 654 -5H611Q610 -34 610 -86Q594 -90 579 -90L548 -86L558 -5H422L415
2V35L580 262L624 270L631 262Q620 164 613 37H664ZM96 557Q87 557 73 569Q74 600 82 620Q123 640 161 640Q242 640 242 572Q242 537 191 492Q254 476 254 411Q254 357 203 311T96 265Q73 265 53 275Q56 298 68 312H138Q162 319 181 345T200 395T184 435T145 457L137
451Q122 451 112 465V470Q140 492 165 519T190 567T169 599H118Q108 591 96 557ZM577 205Q500 100 465 37H563Q570 101 577 205Z" />
<glyph unicode="&#xbf;" glyph-name="questiondown" horiz-adv-x="386" d="M319 374T300 365T261 355T230 364T218 384L223 420Q234 450 287 450Q307 450 317 441T328 420L324 389Q319 374 300 365ZM83 -12Q83 -73 136 -132T247 -204V-222L194 -257Q129 -237 72
-179T14 -40T69 95T204 150L223 269Q236 274 257 274L280 269L266 105L254 93H142Q83 62 83 -12Z" />
<glyph unicode="&#xc0;" glyph-name="Agrave" horiz-adv-x="672" d="M682 31Q682 8 672 -12Q569 -5 532 -5L427 -12Q427 11 437 31Q466 38 492 51Q461 210 456 232Q339 235 302 235T214 231L126 51L212 31Q212 8 202 -12Q122 -5 85 -5L-10 -12Q-10 11 0 31Q32
40 59 59Q246 389 358 637L350 669Q393 690 442 690Q536 265 599 46L682 31ZM239 283Q286 280 335 280T445 282Q433 339 379 556Q326 459 239 283ZM403 900Q450 830 496 780L514 761V754L465 735Q435 755 405 782T360 826L346 843V853Q373 888 403 900Z" />
<glyph unicode="&#xc1;" glyph-name="Aacute" horiz-adv-x="672" d="M682 31Q682 8 672 -12Q569 -5 532 -5L427 -12Q427 11 437 31Q466 38 492 51Q461 210 456 232Q339 235 302 235T214 231L126 51L212 31Q212 8 202 -12Q122 -5 85 -5L-10 -12Q-10 11 0 31Q32
40 59 59Q246 389 358 637L350 669Q393 690 442 690Q536 265 599 46L682 31ZM239 283Q286 280 335 280T445 282Q433 339 379 556Q326 459 239 283ZM432 890Q465 884 502 865V855Q439 781 371 735L322 754V761Q383 817 432 890Z" />
<glyph unicode="&#xc2;" glyph-name="Acircumflex" horiz-adv-x="672" d="M682 31Q682 8 672 -12Q569 -5 532 -5L427 -12Q427 11 437 31Q466 38 492 51Q461 210 456 232Q339 235 302 235T214 231L126 51L212 31Q212 8 202 -12Q122 -5 85 -5L-10 -12Q-10 11 0 31Q32
40 59 59Q246 389 358 637L350 669Q393 690 442 690Q536 265 599 46L682 31ZM239 283Q286 280 335 280T445 282Q433 339 379 556Q326 459 239 283ZM385 878L438 905Q485 831 548 767V759L496 735Q442 781 409 832Q369 786 309 748L265 759V767Q354 831 385 878Z"
/>
<glyph unicode="&#xc3;" glyph-name="Atilde" horiz-adv-x="672" d="M682 31Q682 8 672 -12Q569 -5 532 -5L427 -12Q427 11 437 31Q466 38 492 51Q461 210 456 232Q339 235 302 235T214 231L126 51L212 31Q212 8 202 -12Q122 -5 85 -5L-10 -12Q-10 11 0 31Q32
40 59 59Q246 389 358 637L350 669Q393 690 442 690Q536 265 599 46L682 31ZM239 283Q286 280 335 280T445 282Q433 339 379 556Q326 459 239 283ZM546 742Q525 735 497 735T416 754T353 773H330Q319 761 311 742H274L267 750L284 838Q305 845 332 845T412 826T477
807H500Q511 819 519 838H556L563 830L546 742Z" />
<glyph unicode="&#xc4;" glyph-name="Adieresis" horiz-adv-x="672" d="M682 31Q682 8 672 -12Q569 -5 532 -5L427 -12Q427 11 437 31Q466 38 492 51Q461 210 456 232Q339 235 302 235T214 231L126 51L212 31Q212 8 202 -12Q122 -5 85 -5L-10 -12Q-10 11 0 31Q32
40 59 59Q246 389 358 637L350 669Q393 690 442 690Q536 265 599 46L682 31ZM239 283Q286 280 335 280T445 282Q433 339 379 556Q326 459 239 283ZM263 811T282 820T321 830T352 821T364 801L359 765Q348 735 295 735Q275 735 265 744T254 765L258 796Q263 811
282 820ZM461 811T480 820T519 830T550 821T562 801L557 765Q546 735 493 735Q473 735 463 744T452 765L456 796Q461 811 480 820Z" />
<glyph unicode="&#xc5;" glyph-name="Aring" horiz-adv-x="672" d="M682 31Q682 8 672 -12Q569 -5 532 -5L427 -12Q427 11 437 31Q466 38 492 51Q461 210 456 232Q339 235 302 235T214 231L126 51L212 31Q212 8 202 -12Q122 -5 85 -5L-10 -12Q-10 11 0 31Q32 40
59 59Q246 389 358 637L350 669Q393 690 442 690Q536 265 599 46L682 31ZM239 283Q286 280 335 280T445 282Q433 339 379 556Q326 459 239 283ZM334 833T357 861T414 890T467 875T486 826T463 764T405 735Q334 735 334 796Q334 833 357 861ZM422 847H403Q394 845
386 835T378 804T396 779H415Q424 781 432 791T440 822T422 847Z" />
<glyph unicode="&#xc6;" glyph-name="AE" horiz-adv-x="1058" d="M968 680Q977 672 984 655Q963 618 950 565L945 548Q925 539 896 539Q905 579 905 599T890 625H647Q628 461 621 370H845Q861 394 869 424Q876 427 889 427L911 423Q890 357 880 254Q872 250 860
250L843 253Q843 293 835 320H618Q609 198 603 60H862Q881 88 890 124L893 137Q924 131 935 116L939 110Q919 60 913 0H538L443 -7Q443 16 453 36Q489 47 517 69Q530 183 534 232Q435 235 398 235T323 231Q301 197 205 48L276 31Q276 8 266 -12Q186 -5 149 -5L54
-12Q54 11 64 31Q105 43 133 68Q386 408 532 634L487 644Q487 667 497 687Q577 680 614 680H968ZM356 282Q404 280 444 280T539 282Q548 401 560 586Q472 461 356 282Z" />
<glyph unicode="&#xc7;" glyph-name="Ccedilla" horiz-adv-x="582" d="M185 -200Q191 -182 205 -162Q240 -162 257 -149T274 -117T263 -91H221L215 -82L235 -20Q133 -16 75 57T17 241Q17 380 80 496Q148 621 268 670Q332 696 394 696T496 678T548 635Q527 597
514 536L509 516Q484 507 455 507Q463 529 463 558Q463 607 437 625H277Q193 580 147 488T101 302T136 143T240 60H479Q479 37 469 17Q358 -12 276 -18L271 -44H304Q332 -60 332 -94Q332 -142 291 -170T185 -200Z" />
<glyph unicode="&#xc8;" glyph-name="Egrave" horiz-adv-x="574" d="M537 680Q546 672 553 655Q532 618 518 565L514 548Q494 539 465 539Q474 579 474 599T459 625H216Q197 461 190 370H414Q430 394 438 424Q445 427 458 427L480 423Q459 357 449 254Q441 250
429 250L412 253Q412 293 404 320H187Q178 198 172 60H431Q450 88 459 124L462 137Q493 131 504 116L508 110Q488 60 482 0H107L12 -7Q12 16 22 36Q58 47 86 69Q112 292 131 626L56 644Q56 667 66 687Q130 680 170 680H537ZM321 900Q368 830 414 780L432 761V754L383
735Q353 755 323 782T278 826L264 843V853Q291 888 321 900Z" />
<glyph unicode="&#xc9;" glyph-name="Eacute" horiz-adv-x="574" d="M537 680Q546 672 553 655Q532 618 518 565L514 548Q494 539 465 539Q474 579 474 599T459 625H216Q197 461 190 370H414Q430 394 438 424Q445 427 458 427L480 423Q459 357 449 254Q441 250
429 250L412 253Q412 293 404 320H187Q178 198 172 60H431Q450 88 459 124L462 137Q493 131 504 116L508 110Q488 60 482 0H107L12 -7Q12 16 22 36Q58 47 86 69Q112 292 131 626L56 644Q56 667 66 687Q130 680 170 680H537ZM384 890Q417 884 454 865V855Q391 781
323 735L274 754V761Q335 817 384 890Z" />
<glyph unicode="&#xca;" glyph-name="Ecircumflex" horiz-adv-x="574" d="M537 680Q546 672 553 655Q532 618 518 565L514 548Q494 539 465 539Q474 579 474 599T459 625H216Q197 461 190 370H414Q430 394 438 424Q445 427 458 427L480 423Q459 357 449 254Q441
250 429 250L412 253Q412 293 404 320H187Q178 198 172 60H431Q450 88 459 124L462 137Q493 131 504 116L508 110Q488 60 482 0H107L12 -7Q12 16 22 36Q58 47 86 69Q112 292 131 626L56 644Q56 667 66 687Q130 680 170 680H537ZM306 888L359 915Q406 841 469 777V769L417
745Q363 791 330 842Q290 796 230 758L186 769V777Q275 841 306 888Z" />
<glyph unicode="&#xcb;" glyph-name="Edieresis" horiz-adv-x="574" d="M537 680Q546 672 553 655Q532 618 518 565L514 548Q494 539 465 539Q474 579 474 599T459 625H216Q197 461 190 370H414Q430 394 438 424Q445 427 458 427L480 423Q459 357 449 254Q441
250 429 250L412 253Q412 293 404 320H187Q178 198 172 60H431Q450 88 459 124L462 137Q493 131 504 116L508 110Q488 60 482 0H107L12 -7Q12 16 22 36Q58 47 86 69Q112 292 131 626L56 644Q56 667 66 687Q130 680 170 680H537ZM200 837T219 846T258 856T289 847T301
827L296 791Q285 761 232 761Q212 761 202 770T191 791L195 822Q200 837 219 846ZM398 837T417 846T456 856T487 847T499 827L494 791Q483 761 430 761Q410 761 400 770T389 791L393 822Q398 837 417 846Z" />
<glyph unicode="&#xcc;" glyph-name="Igrave" horiz-adv-x="334" d="M272 36Q272 13 262 -7Q164 0 134 0Q90 0 40 -6L27 -7Q27 16 37 36Q75 47 103 70Q129 295 148 631L72 644Q72 667 82 687Q170 680 207 680L317 687Q317 664 307 644Q260 636 232 613Q206 396
188 51L272 36ZM190 900Q237 830 284 780L301 761V754L252 735Q222 755 192 782T148 826L133 843V853Q160 888 190 900Z" />
<glyph unicode="&#xcd;" glyph-name="Iacute" horiz-adv-x="334" d="M272 36Q272 13 262 -7Q164 0 134 0Q90 0 40 -6L27 -7Q27 16 37 36Q75 47 103 70Q129 295 148 631L72 644Q72 667 82 687Q170 680 207 680L317 687Q317 664 307 644Q260 636 232 613Q206 396
188 51L272 36ZM239 890Q272 884 309 865V855Q246 781 178 735L129 754V761Q190 817 239 890Z" />
<glyph unicode="&#xce;" glyph-name="Icircumflex" horiz-adv-x="334" d="M272 36Q272 13 262 -7Q164 0 134 0Q90 0 40 -6L27 -7Q27 16 37 36Q75 47 103 70Q129 295 148 631L72 644Q72 667 82 687Q170 680 207 680L317 687Q317 664 307 644Q260 636 232 613Q206
396 188 51L272 36ZM182 878L235 905Q282 831 345 767V759L293 735Q239 781 206 832Q166 786 106 748L62 759V767Q151 831 182 878Z" />
<glyph unicode="&#xcf;" glyph-name="Idieresis" horiz-adv-x="334" d="M272 36Q272 13 262 -7Q164 0 134 0Q90 0 40 -6L27 -7Q27 16 37 36Q75 47 103 70Q129 295 148 631L72 644Q72 667 82 687Q170 680 207 680L317 687Q317 664 307 644Q260 636 232 613Q206
396 188 51L272 36ZM62 838T81 847T120 857T151 848T163 828L158 792Q147 762 94 762Q74 762 64 771T53 792L57 823Q62 838 81 847ZM260 838T279 847T318 857T349 848T361 828L356 792Q345 762 292 762Q272 762 262 771T251 792L255 823Q260 838 279 847Z" />
<glyph unicode="&#xd0;" glyph-name="Eth" horiz-adv-x="657" d="M195 680L370 690Q424 690 469 670T544 618T595 544Q634 467 634 383Q634 204 529 97T245 -10Q214 -10 176 -5T123 0L20 -7Q20 16 30 36Q70 48 98 72Q112 200 121 302H39Q34 313 34 325L39 359H125Q125
360 142 626L68 644Q68 667 78 687Q158 680 195 680ZM352 625H217Q200 483 194 359Q233 360 329 369L345 355L332 302H191L181 60H374Q451 90 502 180T554 364T497 542T352 625Z" />
<glyph unicode="&#xd1;" glyph-name="Ntilde" horiz-adv-x="672" d="M254 36Q254 13 244 -7Q154 0 117 0L22 -7Q22 16 32 36Q71 47 99 71Q117 203 124 287T138 471T151 626L68 644Q68 667 78 687Q142 680 182 680H236Q323 503 414 343T516 163Q546 449 554 626L469
644Q469 667 479 687Q546 680 580 680Q634 680 689 686L704 687Q704 664 694 644Q648 636 620 614Q584 319 572 0L558 -10L499 0Q312 356 210 537Q195 416 172 53L254 36ZM532 761Q511 754 483 754T402 773T339 792H316Q305 780 297 761H260L253 769L270 857Q291
864 318 864T398 845T463 826H486Q497 838 505 857H542L549 849L532 761Z" />
<glyph unicode="&#xd2;" glyph-name="Ograve" horiz-adv-x="687" d="M38 241Q38 381 100 495Q168 620 287 668Q352 695 428 695Q534 695 595 622T657 435Q657 261 562 126Q516 60 440 20T262 -20T100 54T38 241ZM214 580T168 488T122 302T157 143T261 60H400Q484
105 528 194T573 376T539 536T438 625H298Q214 580 168 488ZM375 900Q422 830 468 780L486 761V754L437 735Q407 755 377 782T332 826L318 843V853Q345 888 375 900Z" />
<glyph unicode="&#xd3;" glyph-name="Oacute" horiz-adv-x="687" d="M38 241Q38 381 100 495Q168 620 287 668Q352 695 428 695Q534 695 595 622T657 435Q657 261 562 126Q516 60 440 20T262 -20T100 54T38 241ZM214 580T168 488T122 302T157 143T261 60H400Q484
105 528 194T573 376T539 536T438 625H298Q214 580 168 488ZM435 890Q468 884 505 865V855Q442 781 374 735L325 754V761Q386 817 435 890Z" />
<glyph unicode="&#xd4;" glyph-name="Ocircumflex" horiz-adv-x="687" d="M38 241Q38 381 100 495Q168 620 287 668Q352 695 428 695Q534 695 595 622T657 435Q657 261 562 126Q516 60 440 20T262 -20T100 54T38 241ZM214 580T168 488T122 302T157 143T261 60H400Q484
105 528 194T573 376T539 536T438 625H298Q214 580 168 488ZM375 878L428 905Q475 831 538 767V759L486 735Q432 781 399 832Q359 786 299 748L255 759V767Q344 831 375 878Z" />
<glyph unicode="&#xd5;" glyph-name="Otilde" horiz-adv-x="687" d="M38 241Q38 381 100 495Q168 620 287 668Q352 695 428 695Q534 695 595 622T657 435Q657 261 562 126Q516 60 440 20T262 -20T100 54T38 241ZM214 580T168 488T122 302T157 143T261 60H400Q484
105 528 194T573 376T539 536T438 625H298Q214 580 168 488ZM533 760Q512 753 484 753T403 772T340 791H317Q306 779 298 760H261L254 768L271 856Q292 863 319 863T399 844T464 825H487Q498 837 506 856H543L550 848L533 760Z" />
<glyph unicode="&#xd6;" glyph-name="Odieresis" horiz-adv-x="687" d="M38 241Q38 381 100 495Q168 620 287 668Q352 695 428 695Q534 695 595 622T657 435Q657 261 562 126Q516 60 440 20T262 -20T100 54T38 241ZM214 580T168 488T122 302T157 143T261 60H400Q484
105 528 194T573 376T539 536T438 625H298Q214 580 168 488ZM260 839T279 848T318 858T349 849T361 829L356 793Q345 763 292 763Q272 763 262 772T251 793L255 824Q260 839 279 848ZM458 839T477 848T516 858T547 849T559 829L554 793Q543 763 490 763Q470 763
460 772T449 793L453 824Q458 839 477 848Z" />
<glyph unicode="&#xd7;" glyph-name="multiply" horiz-adv-x="520" d="M381 184L253 316L107 183Q94 190 86 199L75 219L218 352L104 470V480Q122 510 150 529L273 402L410 529Q436 516 443 490L307 366L427 243V233Q413 207 381 184Z" />
<glyph unicode="&#xd8;" glyph-name="Oslash" horiz-adv-x="687" d="M267 -20L244 -19L228 -66Q210 -71 193 -71L163 -66L186 -7Q116 18 77 85T38 238T62 404T134 549T260 655T435 695L452 743L531 758L535 742Q524 718 509 681Q579 656 618 590T657 437T633 271T562
126T440 20T267 -20ZM573 385Q573 454 549 513T477 605Q389 384 272 60H400Q484 105 528 194T573 385ZM122 292Q122 223 146 165T218 78Q291 278 411 625H298Q214 580 168 488T122 292Z" />
<glyph unicode="&#xd9;" glyph-name="Ugrave" horiz-adv-x="703" d="M461 638Q461 661 473 681Q545 674 582 674L679 681Q679 658 669 638Q630 634 598 601Q575 308 560 221T530 96T483 32T406 -5T285 -15Q189 -15 137 33T85 140T97 363T115 630L35 644Q35 667
45 687Q138 680 168 680Q212 680 266 686L280 687Q280 664 270 644Q224 636 195 614Q169 406 169 172Q169 123 208 92T298 60H433Q480 89 497 169T525 359T538 544L541 618L461 638ZM356 900Q403 830 450 780L467 761V754L418 735Q388 755 358 782T314 826L299
843V853Q326 888 356 900Z" />
<glyph unicode="&#xda;" glyph-name="Uacute" horiz-adv-x="703" d="M461 638Q461 661 473 681Q545 674 582 674L679 681Q679 658 669 638Q630 634 598 601Q575 308 560 221T530 96T483 32T406 -5T285 -15Q189 -15 137 33T85 140T97 363T115 630L35 644Q35 667
45 687Q138 680 168 680Q212 680 266 686L280 687Q280 664 270 644Q224 636 195 614Q169 406 169 172Q169 123 208 92T298 60H433Q480 89 497 169T525 359T538 544L541 618L461 638ZM423 890Q456 884 493 865V855Q430 781 362 735L313 754V761Q374 817 423 890Z"
/>
<glyph unicode="&#xdb;" glyph-name="Ucircumflex" horiz-adv-x="703" d="M461 638Q461 661 473 681Q545 674 582 674L679 681Q679 658 669 638Q630 634 598 601Q575 308 560 221T530 96T483 32T406 -5T285 -15Q189 -15 137 33T85 140T97 363T115 630L35 644Q35
667 45 687Q138 680 168 680Q212 680 266 686L280 687Q280 664 270 644Q224 636 195 614Q169 406 169 172Q169 123 208 92T298 60H433Q480 89 497 169T525 359T538 544L541 618L461 638ZM353 878L406 905Q453 831 516 767V759L464 735Q410 781 377 832Q337 786
277 748L233 759V767Q322 831 353 878Z" />
<glyph unicode="&#xdc;" glyph-name="Udieresis" horiz-adv-x="703" d="M461 638Q461 661 473 681Q545 674 582 674L679 681Q679 658 669 638Q630 634 598 601Q575 308 560 221T530 96T483 32T406 -5T285 -15Q189 -15 137 33T85 140T97 363T115 630L35 644Q35
667 45 687Q138 680 168 680Q212 680 266 686L280 687Q280 664 270 644Q224 636 195 614Q169 406 169 172Q169 123 208 92T298 60H433Q480 89 497 169T525 359T538 544L541 618L461 638ZM227 838T246 847T285 857T316 848T328 828L323 792Q312 762 259 762Q239
762 229 771T218 792L222 823Q227 838 246 847ZM425 838T444 847T483 857T514 848T526 828L521 792Q510 762 457 762Q437 762 427 771T416 792L420 823Q425 838 444 847Z" />
<glyph unicode="&#xdd;" glyph-name="Yacute" horiz-adv-x="543" d="M-5 -217Q-5 -193 4 -175H295Q340 -153 374 -34Q396 41 406 173L396 179Q368 114 307 54Q275 23 231 4T144 -15T77 -11T40 0Q15 13 14 22L13 27Q18 72 28 153T43 277T54 384Q68 511 73 625H-1Q-1
648 9 668Q71 676 125 700Q139 700 150 688T161 655Q117 376 98 60H187Q234 60 303 131T407 278Q437 532 457 666Q507 681 552 681Q533 604 524 534T499 331T480 160T466 61T450 -27T431 -95T406 -153T373 -192T330 -224Q267 -245 214 -245Q113 -245 24 -224L-5
-217ZM373 890Q406 884 443 865V855Q380 781 312 735L263 754V761Q324 817 373 890Z" />
<glyph unicode="&#xde;" glyph-name="Thorn" horiz-adv-x="580" d="M52 644Q52 667 62 687Q155 680 186 680Q229 680 282 686L297 687Q297 664 287 644Q240 636 212 613L206 563L345 579Q432 579 484 540T536 412Q536 299 452 235T249 170H174L168 51L252 36Q252
13 242 -7Q139 0 109 0Q65 0 20 -6L7 -7Q7 16 17 36Q55 47 83 70Q109 295 128 631L52 644ZM383 234T420 279T458 378T436 468T373 514H201Q187 385 177 221H315Q383 234 420 279Z" />
<glyph unicode="&#xdf;" glyph-name="germandbls" horiz-adv-x="488" d="M174 -10Q176 34 189 60H284Q371 107 371 214Q371 256 350 287T296 323H225L218 333L226 397Q339 462 339 554Q339 607 305 625H239Q188 594 180 524Q161 366 148 203T127 -15Q84 -26 52
-30H33Q49 37 58 101T81 323T95 485Q103 560 142 610Q208 698 309 698Q361 698 388 672T416 592T383 486T298 397Q366 397 407 360T448 255Q448 167 398 97T261 -10H174Z" />
<glyph unicode="&#xe0;" glyph-name="agrave" horiz-adv-x="546" d="M509 60Q509 37 499 17Q432 9 378 -15Q363 -15 353 -4T342 30L361 173L351 179Q314 89 276 40T176 -10T72 35T30 159Q30 288 107 384T298 480Q335 480 382 451Q384 469 386 480Q436 495 481
495Q462 418 450 329T425 60H509ZM106 187Q106 143 126 108T171 60H219Q277 71 360 270Q364 312 376 410H216Q177 403 142 333T106 187ZM249 760Q293 696 353 621L373 596V589L324 570Q296 590 263 624T211 682L192 705V715Q217 747 249 760Z" />
<glyph unicode="&#xe1;" glyph-name="aacute" horiz-adv-x="546" d="M509 60Q509 37 499 17Q432 9 378 -15Q363 -15 353 -4T342 30L361 173L351 179Q314 89 276 40T176 -10T72 35T30 159Q30 288 107 384T298 480Q335 480 382 451Q384 469 386 480Q436 495 481
495Q462 418 450 329T425 60H509ZM106 187Q106 143 126 108T171 60H219Q277 71 360 270Q364 312 376 410H216Q177 403 142 333T106 187ZM379 740Q412 734 449 715V705Q375 616 307 570L258 589V596Q330 667 379 740Z" />
<glyph unicode="&#xe2;" glyph-name="acircumflex" horiz-adv-x="546" d="M509 60Q509 37 499 17Q432 9 378 -15Q363 -15 353 -4T342 30L361 173L351 179Q314 89 276 40T176 -10T72 35T30 159Q30 288 107 384T298 480Q335 480 382 451Q384 469 386 480Q436 495
481 495Q462 418 450 329T425 60H509ZM106 187Q106 143 126 108T171 60H219Q277 71 360 270Q364 312 376 410H216Q177 403 142 333T106 187ZM296 713L349 740Q396 666 459 602V594L407 570Q353 616 320 667Q280 621 220 583L176 594V602Q265 666 296 713Z" />
<glyph unicode="&#xe3;" glyph-name="atilde" horiz-adv-x="546" d="M509 60Q509 37 499 17Q432 9 378 -15Q363 -15 353 -4T342 30L361 173L351 179Q314 89 276 40T176 -10T72 35T30 159Q30 288 107 384T298 480Q335 480 382 451Q384 469 386 480Q436 495 481
495Q462 418 450 329T425 60H509ZM106 187Q106 143 126 108T171 60H219Q277 71 360 270Q364 312 376 410H216Q177 403 142 333T106 187ZM442 587Q421 580 393 580T312 599T249 618H226Q215 606 207 587H170L163 595L180 683Q201 690 228 690T308 671T373 652H396Q407
664 415 683H452L459 675L442 587Z" />
<glyph unicode="&#xe4;" glyph-name="adieresis" horiz-adv-x="546" d="M509 60Q509 37 499 17Q432 9 378 -15Q363 -15 353 -4T342 30L361 173L351 179Q314 89 276 40T176 -10T72 35T30 159Q30 288 107 384T298 480Q335 480 382 451Q384 469 386 480Q436 495 481
495Q462 418 450 329T425 60H509ZM106 187Q106 143 126 108T171 60H219Q277 71 360 270Q364 312 376 410H216Q177 403 142 333T106 187ZM170 662T189 671T228 681T259 672T271 652L266 616Q255 586 202 586Q182 586 172 595T161 616L165 647Q170 662 189 671ZM368
662T387 671T426 681T457 672T469 652L464 616Q453 586 400 586Q380 586 370 595T359 616L363 647Q368 662 387 671Z" />
<glyph unicode="&#xe5;" glyph-name="aring" horiz-adv-x="546" d="M509 60Q509 37 499 17Q432 9 378 -15Q363 -15 353 -4T342 30L361 173L351 179Q314 89 276 40T176 -10T72 35T30 159Q30 288 107 384T298 480Q335 480 382 451Q384 469 386 480Q436 495 481 495Q462
418 450 329T425 60H509ZM106 187Q106 143 126 108T171 60H219Q277 71 360 270Q364 312 376 410H216Q177 403 142 333T106 187ZM248 658T271 686T328 715T381 700T400 651T377 589T319 560Q248 560 248 621Q248 658 271 686ZM336 672H317Q308 670 300 660T292 629T310
604H329Q338 606 346 616T354 647T336 672Z" />
<glyph unicode="&#xe6;" glyph-name="ae" horiz-adv-x="760" d="M680 60Q680 37 670 17Q544 -10 498 -10Q417 -10 383 30T346 167Q311 83 274 37T175 -10T72 35T30 159Q30 288 107 384T298 480Q335 480 382 451Q384 469 386 480Q436 495 481 495Q472 461 466 430Q529
480 607 480Q656 480 679 455T702 394Q702 214 420 208Q420 68 482 60H680ZM106 187Q106 143 126 108T171 60H219Q246 65 279 112T329 197T360 270L376 410H216Q177 403 142 333T106 187ZM632 369Q632 402 604 410H512Q478 397 454 351T422 247Q537 251 584 282T632
369Z" />
<glyph unicode="&#xe7;" glyph-name="ccedilla" horiz-adv-x="437" d="M137 -190Q143 -172 157 -152Q192 -152 209 -139T226 -107T215 -81H173L167 -72L188 -9Q109 -6 69 38T29 166T58 318T149 433T289 480Q327 480 358 466T404 440Q383 403 370 350L365 333Q345
324 316 324Q325 364 325 384T310 410H205Q164 394 134 335T103 208Q103 130 132 96Q157 67 178 62L186 60H364Q364 37 354 17Q279 -2 228 -8L223 -34H256Q284 -50 284 -84Q284 -132 243 -160T137 -190Z" />
<glyph unicode="&#xe8;" glyph-name="egrave" horiz-adv-x="446" d="M381 60Q381 37 371 17Q265 -10 219 -10Q47 -10 47 177Q47 246 77 314T168 431T308 480Q357 480 380 455T403 394Q403 214 121 208Q121 71 203 60H381ZM333 369Q333 402 305 410H213Q180 397
156 353T124 252Q239 256 286 285T333 369ZM238 760Q282 696 342 621L362 596V589L313 570Q285 590 252 624T200 682L181 705V715Q206 747 238 760Z" />
<glyph unicode="&#xe9;" glyph-name="eacute" horiz-adv-x="446" d="M381 60Q381 37 371 17Q265 -10 219 -10Q47 -10 47 177Q47 246 77 314T168 431T308 480Q357 480 380 455T403 394Q403 214 121 208Q121 71 203 60H381ZM333 369Q333 402 305 410H213Q180 397
156 353T124 252Q239 256 286 285T333 369ZM354 740Q387 734 424 715V705Q350 616 282 570L233 589V596Q305 667 354 740Z" />
<glyph unicode="&#xea;" glyph-name="ecircumflex" horiz-adv-x="446" d="M381 60Q381 37 371 17Q265 -10 219 -10Q47 -10 47 177Q47 246 77 314T168 431T308 480Q357 480 380 455T403 394Q403 214 121 208Q121 71 203 60H381ZM333 369Q333 402 305 410H213Q180
397 156 353T124 252Q239 256 286 285T333 369ZM277 713L330 740Q377 666 440 602V594L388 570Q334 616 301 667Q261 621 201 583L157 594V602Q246 666 277 713Z" />
<glyph unicode="&#xeb;" glyph-name="edieresis" horiz-adv-x="446" d="M381 60Q381 37 371 17Q265 -10 219 -10Q47 -10 47 177Q47 246 77 314T168 431T308 480Q357 480 380 455T403 394Q403 214 121 208Q121 71 203 60H381ZM333 369Q333 402 305 410H213Q180
397 156 353T124 252Q239 256 286 285T333 369ZM157 662T176 671T215 681T246 672T258 652L253 616Q242 586 189 586Q169 586 159 595T148 616L152 647Q157 662 176 671ZM355 662T374 671T413 681T444 672T456 652L451 616Q440 586 387 586Q367 586 357 595T346
616L350 647Q355 662 374 671Z" />
<glyph unicode="&#xec;" glyph-name="igrave" horiz-adv-x="287" d="M33 410Q33 433 43 453Q100 461 154 485Q168 485 179 473T190 440Q167 245 159 60H239Q239 37 229 17Q162 9 108 -15Q93 -15 83 -4T72 30Q94 170 110 410H33ZM110 760Q154 696 214 621L234 596V589L185
570Q157 590 124 624T72 682L53 705V715Q78 747 110 760Z" />
<glyph unicode="&#xed;" glyph-name="iacute" horiz-adv-x="287" d="M33 410Q33 433 43 453Q100 461 154 485Q168 485 179 473T190 440Q167 245 159 60H239Q239 37 229 17Q162 9 108 -15Q93 -15 83 -4T72 30Q94 170 110 410H33ZM229 740Q262 734 299 715V705Q225
616 157 570L108 589V596Q180 667 229 740Z" />
<glyph unicode="&#xee;" glyph-name="icircumflex" horiz-adv-x="287" d="M33 410Q33 433 43 453Q100 461 154 485Q168 485 179 473T190 440Q167 245 159 60H239Q239 37 229 17Q162 9 108 -15Q93 -15 83 -4T72 30Q94 170 110 410H33ZM145 713L198 740Q245 666
308 602V594L256 570Q202 616 169 667Q129 621 69 583L25 594V602Q114 666 145 713Z" />
<glyph unicode="&#xef;" glyph-name="idieresis" horiz-adv-x="287" d="M33 410Q33 433 43 453Q100 461 154 485Q168 485 179 473T190 440Q167 245 159 60H239Q239 37 229 17Q162 9 108 -15Q93 -15 83 -4T72 30Q94 170 110 410H33ZM23 662T42 671T81 681T112 672T124
652L119 616Q108 586 55 586Q35 586 25 595T14 616L18 647Q23 662 42 671ZM221 662T240 671T279 681T310 672T322 652L317 616Q306 586 253 586Q233 586 223 595T212 616L216 647Q221 662 240 671Z" />
<glyph unicode="&#xf0;" glyph-name="eth" horiz-adv-x="516" d="M466 395Q466 178 396 80Q368 41 320 16T207 -10Q120 -10 76 34T31 176Q31 246 59 314T148 431T288 480T405 441Q405 537 365 603L305 558Q291 568 284 578L271 605L329 647Q313 663 283 680V690L337
741Q367 719 388 695Q416 720 430 732H449L481 690L422 646Q466 561 466 395ZM178 62L186 60H282Q324 76 356 137T388 262Q388 341 360 374Q335 403 316 408L308 410H212Q170 394 138 333T106 201T132 98T178 62Z" />
<glyph unicode="&#xf1;" glyph-name="ntilde" horiz-adv-x="614" d="M55 410Q55 433 65 453Q122 461 176 485Q190 485 201 473T212 440L193 297L203 291Q234 362 295 421T433 480Q470 480 492 470T518 450L521 440Q498 247 490 60H570Q570 37 560 17Q493 9 439
-15Q424 -15 414 -4T403 30Q425 170 441 410H380Q340 410 285 348T196 210Q186 86 173 0Q124 -15 79 -15Q95 52 107 142T128 410H55ZM496 587Q475 580 447 580T366 599T303 618H280Q269 606 261 587H224L217 595L234 683Q255 690 282 690T362 671T427 652H450Q461
664 469 683H506L513 675L496 587Z" />
<glyph unicode="&#xf2;" glyph-name="ograve" horiz-adv-x="490" d="M178 62L186 60H282Q324 76 356 137T388 262Q388 341 360 374Q335 403 316 408L308 410H212Q170 394 138 333T106 201T132 98T178 62ZM406 88T346 39T202 -10Q31 -10 31 176Q31 246 59 314T148
431T292 480Q463 480 463 294Q463 224 435 156ZM254 760Q298 696 358 621L378 596V589L329 570Q301 590 268 624T216 682L197 705V715Q222 747 254 760Z" />
<glyph unicode="&#xf3;" glyph-name="oacute" horiz-adv-x="490" d="M178 62L186 60H282Q324 76 356 137T388 262Q388 341 360 374Q335 403 316 408L308 410H212Q170 394 138 333T106 201T132 98T178 62ZM406 88T346 39T202 -10Q31 -10 31 176Q31 246 59 314T148
431T292 480Q463 480 463 294Q463 224 435 156ZM357 740Q390 734 427 715V705Q353 616 285 570L236 589V596Q308 667 357 740Z" />
<glyph unicode="&#xf4;" glyph-name="ocircumflex" horiz-adv-x="490" d="M178 62L186 60H282Q324 76 356 137T388 262Q388 341 360 374Q335 403 316 408L308 410H212Q170 394 138 333T106 201T132 98T178 62ZM406 88T346 39T202 -10Q31 -10 31 176Q31 246 59
314T148 431T292 480Q463 480 463 294Q463 224 435 156ZM272 713L325 740Q372 666 435 602V594L383 570Q329 616 296 667Q256 621 196 583L152 594V602Q241 666 272 713Z" />
<glyph unicode="&#xf5;" glyph-name="otilde" horiz-adv-x="490" d="M178 62L186 60H282Q324 76 356 137T388 262Q388 341 360 374Q335 403 316 408L308 410H212Q170 394 138 333T106 201T132 98T178 62ZM406 88T346 39T202 -10Q31 -10 31 176Q31 246 59 314T148
431T292 480Q463 480 463 294Q463 224 435 156ZM425 587Q404 580 376 580T295 599T232 618H209Q198 606 190 587H153L146 595L163 683Q184 690 211 690T291 671T356 652H379Q390 664 398 683H435L442 675L425 587Z" />
<glyph unicode="&#xf6;" glyph-name="odieresis" horiz-adv-x="490" d="M178 62L186 60H282Q324 76 356 137T388 262Q388 341 360 374Q335 403 316 408L308 410H212Q170 394 138 333T106 201T132 98T178 62ZM406 88T346 39T202 -10Q31 -10 31 176Q31 246 59 314T148
431T292 480Q463 480 463 294Q463 224 435 156ZM161 662T180 671T219 681T250 672T262 652L257 616Q246 586 193 586Q173 586 163 595T152 616L156 647Q161 662 180 671ZM359 662T378 671T417 681T448 672T460 652L455 616Q444 586 391 586Q371 586 361 595T350
616L354 647Q359 662 378 671Z" />
<glyph unicode="&#xf7;" glyph-name="divide" horiz-adv-x="512" d="M167 347Q305 347 416 357L432 343L419 280H76Q71 301 71 313L76 347H167ZM184 191T203 200T242 210T273 201T285 181L280 145Q269 115 216 115Q196 115 186 124T175 145L179 176Q184 191 203
200ZM216 496T235 505T274 515T305 506T317 486L312 450Q301 420 248 420Q228 420 218 429T207 450L211 481Q216 496 235 505Z" />
<glyph unicode="&#xf8;" glyph-name="oslash" horiz-adv-x="494" d="M31 176Q31 246 59 314T148 431T287 480Q305 480 313 479L327 516L396 532L400 516L376 464Q463 425 463 294Q463 224 435 156T346 39T207 -10Q190 -10 183 -9Q179 -20 170 -45Q167 -50 134
-50L107 -45L127 2Q31 36 31 176ZM106 208Q106 110 156 73Q223 240 288 410H212Q170 394 138 333T106 208ZM388 262Q388 351 344 391Q279 239 209 60H282Q324 76 356 137T388 262Z" />
<glyph unicode="&#xf9;" glyph-name="ugrave" horiz-adv-x="607" d="M562 60Q562 37 552 17Q485 9 431 -15Q416 -15 406 -4T395 30L414 173L404 179Q373 108 312 49T174 -10Q137 -10 115 0T90 20L86 30Q108 227 116 410H47Q47 433 57 453Q114 461 168 485Q182
485 193 473T204 440Q182 300 166 60H227Q268 60 324 125T412 265Q426 393 439 480Q489 495 534 495Q515 418 503 329T478 60H562ZM284 760Q328 696 388 621L408 596V589L359 570Q331 590 298 624T246 682L227 705V715Q252 747 284 760Z" />
<glyph unicode="&#xfa;" glyph-name="uacute" horiz-adv-x="607" d="M562 60Q562 37 552 17Q485 9 431 -15Q416 -15 406 -4T395 30L414 173L404 179Q373 108 312 49T174 -10Q137 -10 115 0T90 20L86 30Q108 227 116 410H47Q47 433 57 453Q114 461 168 485Q182
485 193 473T204 440Q182 300 166 60H227Q268 60 324 125T412 265Q426 393 439 480Q489 495 534 495Q515 418 503 329T478 60H562ZM397 740Q430 734 467 715V705Q393 616 325 570L276 589V596Q348 667 397 740Z" />
<glyph unicode="&#xfb;" glyph-name="ucircumflex" horiz-adv-x="607" d="M562 60Q562 37 552 17Q485 9 431 -15Q416 -15 406 -4T395 30L414 173L404 179Q373 108 312 49T174 -10Q137 -10 115 0T90 20L86 30Q108 227 116 410H47Q47 433 57 453Q114 461 168 485Q182
485 193 473T204 440Q182 300 166 60H227Q268 60 324 125T412 265Q426 393 439 480Q489 495 534 495Q515 418 503 329T478 60H562ZM306 713L359 740Q406 666 469 602V594L417 570Q363 616 330 667Q290 621 230 583L186 594V602Q275 666 306 713Z" />
<glyph unicode="&#xfc;" glyph-name="udieresis" horiz-adv-x="607" d="M562 60Q562 37 552 17Q485 9 431 -15Q416 -15 406 -4T395 30L414 173L404 179Q373 108 312 49T174 -10Q137 -10 115 0T90 20L86 30Q108 227 116 410H47Q47 433 57 453Q114 461 168 485Q182
485 193 473T204 440Q182 300 166 60H227Q268 60 324 125T412 265Q426 393 439 480Q489 495 534 495Q515 418 503 329T478 60H562ZM198 662T217 671T256 681T287 672T299 652L294 616Q283 586 230 586Q210 586 200 595T189 616L193 647Q198 662 217 671ZM396 662T415
671T454 681T485 672T497 652L492 616Q481 586 428 586Q408 586 398 595T387 616L391 647Q396 662 415 671Z" />
<glyph unicode="&#xfd;" glyph-name="yacute" horiz-adv-x="571" d="M58 -217Q58 -198 67 -175H295Q340 -153 374 -34Q396 41 406 173L396 179Q365 108 304 49T166 -10Q129 -10 107 0T82 20L78 30Q101 234 111 410H42Q42 433 52 453Q109 461 163 485Q177 485 188
473T199 440Q174 300 158 60H219Q260 60 316 125T404 265Q418 393 431 480Q481 495 526 495Q507 418 501 376T488 260T475 140T461 34T441 -61T410 -136T364 -196Q304 -245 207 -245Q166 -245 85 -224L58 -217ZM387 740Q420 734 457 715V705Q383 616 315 570L266
589V596Q338 667 387 740Z" />
<glyph unicode="&#xfe;" glyph-name="thorn" horiz-adv-x="424" d="M-9 715Q-9 738 1 758Q58 766 112 790Q126 790 137 779T148 745L103 297L113 291Q150 381 188 430T288 480T392 435T434 311Q434 182 357 86T166 -10Q128 -10 85 3L67 -195L145 -212Q145 -235
135 -255Q55 -245 28 -245Q-19 -245 -78 -252L-97 -255Q-97 -232 -87 -212Q-49 -203 -21 -185Q29 108 64 715H-9ZM358 283Q358 327 338 362T293 410H245Q203 402 158 316Q129 261 104 201L91 60H248Q287 67 322 137T358 283Z" />
<glyph unicode="&#xff;" glyph-name="ydieresis" horiz-adv-x="571" d="M58 -217Q58 -198 67 -175H295Q340 -153 374 -34Q396 41 406 173L396 179Q365 108 304 49T166 -10Q129 -10 107 0T82 20L78 30Q101 234 111 410H42Q42 433 52 453Q109 461 163 485Q177 485
188 473T199 440Q174 300 158 60H219Q260 60 316 125T404 265Q418 393 431 480Q481 495 526 495Q507 418 501 376T488 260T475 140T461 34T441 -61T410 -136T364 -196Q304 -245 207 -245Q166 -245 85 -224L58 -217ZM185 662T204 671T243 681T274 672T286 652L281
616Q270 586 217 586Q197 586 187 595T176 616L180 647Q185 662 204 671ZM383 662T402 671T441 681T472 672T484 652L479 616Q468 586 415 586Q395 586 385 595T374 616L378 647Q383 662 402 671Z" />
<glyph unicode="&#x2013;" glyph-name="endash" horiz-adv-x="512" d="M167 353Q305 353 416 363L432 349L419 286H76Q71 307 71 319L76 353H167Z" />
<glyph unicode="&#x2014;" glyph-name="emdash" horiz-adv-x="632" d="M283 353Q421 353 532 363L548 349L535 286H102Q97 307 97 319L102 353H283Z" />
<glyph unicode="&#x2018;" glyph-name="quoteleft" horiz-adv-x="233" d="M135 715Q151 710 169 696V684Q141 660 119 625T97 565T107 521T126 501V470Q87 457 46 423H34Q15 452 15 491T45 588T105 680L135 715Z" />
<glyph unicode="&#x2019;" glyph-name="quoteright" horiz-adv-x="233" d="M84 423Q68 428 50 442V454Q78 478 100 513T122 573T112 617T93 637V668Q132 681 173 715H185Q204 686 204 647T174 550T114 458L84 423Z" />
<glyph unicode="&#x201a;" glyph-name="quotesinglbase" horiz-adv-x="227" d="M54 -174Q38 -169 20 -155V-143Q48 -119 70 -84T92 -24T82 20T63 40V71Q102 84 143 118H155Q174 89 174 50T144 -47T84 -140L54 -174Z" />
<glyph unicode="&#x201c;" glyph-name="quotedblleft" horiz-adv-x="370" d="M135 715Q151 710 169 696V684Q141 660 119 625T97 565T107 521T126 501V470Q87 457 46 423H34Q15 452 15 491T45 588T105 680L135 715ZM283 715Q299 710 317 696V684Q289 660 267 625T245
565T255 521T274 501V470Q235 457 194 423H182Q163 452 163 491T193 588T253 680L283 715Z" />
<glyph unicode="&#x201d;" glyph-name="quotedblright" horiz-adv-x="425" d="M103 423Q87 428 69 442V454Q97 478 119 513T141 573T131 617T112 637V668Q151 681 192 715H204Q223 686 223 647T193 550T133 458L103 423ZM251 423Q235 428 217 442V454Q245 478
267 513T289 573T279 617T260 637V668Q299 681 340 715H352Q371 686 371 647T341 550T281 458L251 423Z" />
<glyph unicode="&#x201e;" glyph-name="quotedblbase" horiz-adv-x="366" d="M54 -174Q38 -169 20 -155V-143Q48 -119 70 -84T92 -24T82 20T63 40V71Q102 84 143 118H155Q174 89 174 50T144 -47T84 -140L54 -174ZM202 -174Q186 -169 168 -155V-143Q196 -119 218
-84T240 -24T230 20T211 40V71Q250 84 291 118H303Q322 89 322 50T292 -47T232 -140L202 -174Z" />
<glyph unicode="&#x2022;" glyph-name="bullet" horiz-adv-x="250" d="M43 284T69 297T122 310T165 298T181 270L174 220Q167 200 142 190T89 179T45 191T30 220L35 263Q43 284 69 297Z" />
<glyph unicode="&#x2039;" glyph-name="guilsinglleft" horiz-adv-x="442" d="M164 261Q271 196 340 153V135L315 107Q268 142 206 178T106 234L67 253L71 293Q136 325 201 369T300 447L361 412V394Q328 362 268 321T164 261Z" />
<glyph unicode="&#x203a;" glyph-name="guilsinglright" horiz-adv-x="380" d="M260 313Q153 378 84 421V439L109 467Q156 432 218 396T318 340L357 321L353 281Q288 249 223 205T124 127L63 162V180Q96 212 156 253T260 313Z" />
</font>
</defs>
</svg>
