<?xml version="1.0" standalone="no"?>
<!DOCTYPE svg PUBLIC "-//W3C//DTD SVG 1.1//EN" "http://www.w3.org/Graphics/SVG/1.1/DTD/svg11.dtd">
<svg xmlns="http://www.w3.org/2000/svg">
<defs >
<font id="FiraSansExtraCondensed" horiz-adv-x="472" ><font-face
    font-family="Fira Sans Extra Condensed Medium"
    units-per-em="1000"
    panose-1="2 11 6 3 5 0 0 2 0 4"
    ascent="935"
    descent="-265"
    alphabetic="0" />
<glyph unicode=" " glyph-name="space" horiz-adv-x="189" />
<glyph unicode="!" glyph-name="exclam" horiz-adv-x="221" d="M55 242L102 691H230L152 242H55ZM44 -15T26 4T7 54Q7 90 31 115T90 141Q122 141 140 122T158 72Q158 36 135 11T75 -15Q44 -15 26 4Z" />
<glyph unicode="&quot;" glyph-name="quotedbl" horiz-adv-x="394" d="M82 420L106 691H216L163 420H82ZM274 420L298 691H408L355 420H274Z" />
<glyph unicode="#" glyph-name="numbersign" horiz-adv-x="451" d="M463 444H405L354 239H405L392 155H334L295 0H199L237 155H143L105 0H9L47 155H-4L9 239H68L118 444H68L80 529H139L174 672H271L236 529H330L365 672H462L426 529H476L463 444ZM258 239L309
444H215L164 239H258Z" />
<glyph unicode="$" glyph-name="dollar" horiz-adv-x="446" d="M348 363T380 324T413 219Q413 135 362 73T225 -6L203 -157H115L136 -9Q42 2 -22 81L47 146Q76 114 105 99T172 83Q223 83 254 116T286 204Q286 241 267 263T194 312Q125 345 96 381T66 476Q66 525
89 569T153 642T248 680L269 826H357L335 678Q409 664 460 600L395 537Q370 564 344 576T287 589Q243 589 217 562T190 492Q190 460 208 441T279 396Q348 363 380 324Z" />
<glyph unicode="%" glyph-name="percent" horiz-adv-x="703" d="M571 715L89 11L155 -35L637 669L571 715ZM134 336T100 373T66 475Q66 527 85 575T142 654T232 685Q288 685 321 649T355 548Q355 496 336 448T279 368T188 336Q134 336 100 373ZM233 411T250 455T268
548Q268 609 226 609Q186 609 170 567T153 475Q153 411 194 411Q233 411 250 455ZM436 -15T402 22T368 125Q368 177 387 225T445 303T535 334Q591 334 624 298T657 197Q657 145 638 97T582 17T491 -15Q436 -15 402 22ZM535 61T552 105T570 197Q570 259 529 259Q488
259 472 217T455 124Q455 61 496 61Q535 61 552 105Z" />
<glyph unicode="&amp;" glyph-name="ampersand" horiz-adv-x="632" d="M398 705T440 666T482 567Q482 500 446 455T336 362L433 214Q467 280 495 360L590 329Q549 234 489 147L567 41L462 -15L408 68Q362 24 319 5T222 -15Q170 -15 131 6T71 66T49 151Q49 216
82 269T191 377Q163 415 150 448T136 518Q136 601 188 653T326 705Q398 705 440 666ZM286 622T268 593T250 521Q250 476 282 426Q327 462 347 493T368 567Q368 592 356 607T320 622Q286 622 268 593ZM206 271T190 236T174 158Q174 119 192 98T244 76Q305 76 356
134L245 305Q206 271 190 236Z" />
<glyph unicode="&apos;" glyph-name="quotesingle" horiz-adv-x="202" d="M82 420L106 691H216L163 420H82Z" />
<glyph unicode="(" glyph-name="parenleft" horiz-adv-x="271" d="M327 799Q232 666 186 516T140 209Q140 114 155 43T201 -103L116 -150Q84 -76 66 -27T35 84T22 219Q22 348 48 451T123 647T255 853L327 799Z" />
<glyph unicode=")" glyph-name="parenright" horiz-adv-x="272" d="M212 774T230 726T261 616T274 480Q274 352 248 248T172 52T40 -153L-32 -100Q155 164 155 491Q155 587 140 658T94 804L179 850Q212 774 230 726Z" />
<glyph unicode="*" glyph-name="asterisk" horiz-adv-x="391" d="M413 547L286 519L359 402L262 346L224 475L153 346L68 401L170 521L58 549L97 646L203 589L205 741H315L276 588L393 649L413 547Z" />
<glyph unicode="+" glyph-name="plus" horiz-adv-x="436" d="M308 533L287 380H407L393 282H272L249 130H148L171 282H48L62 380H186L207 533H308Z" />
<glyph unicode="," glyph-name="comma" horiz-adv-x="209" d="M115 141T132 124T150 75Q150 54 142 34T113 -27L38 -171H-31L29 1Q3 20 3 54Q3 90 26 115T85 141Q115 141 132 124Z" />
<glyph unicode="-" glyph-name="hyphen" horiz-adv-x="341" d="M44 264L57 362H311L298 264H44Z" />
<glyph unicode="." glyph-name="period" horiz-adv-x="212" d="M39 -15T21 4T2 54Q2 90 26 115T85 141Q117 141 135 122T153 72Q153 36 130 11T70 -15Q39 -15 21 4Z" />
<glyph unicode="/" glyph-name="slash" horiz-adv-x="432" d="M336 812L436 787L121 -107L21 -81L336 812Z" />
<glyph unicode="0" glyph-name="zero" horiz-adv-x="503" d="M220 685T161 613T74 431T47 209Q47 99 88 42T211 -15Q302 -15 362 57T449 239T476 461Q476 570 435 627T312 685Q220 685 161 613ZM358 591T358 492Q358 403 341 307T292 145T216 79Q191 79 178 102T165
179Q165 266 181 362T230 525T306 591Q358 591 358 492Z" />
<glyph unicode="1" glyph-name="one" horiz-adv-x="383" d="M356 673L262 0H143L217 538L89 453L45 539L247 673H356Z" />
<glyph unicode="2" glyph-name="two" horiz-adv-x="420" d="M322 685T366 639T410 520Q410 463 384 408T300 282T128 96L364 98L336 0H-15L-2 93Q124 231 180 298T261 414T286 513Q286 550 270 569T224 588Q195 588 170 572T111 520L46 578Q88 631 136 658T241
685Q322 685 366 639Z" />
<glyph unicode="3" glyph-name="three" horiz-adv-x="423" d="M319 685T362 642T406 530Q406 394 251 355Q372 337 372 226Q372 164 344 109T261 19T135 -15Q76 -15 34 9T-39 83L36 140Q58 109 81 95T135 80Q185 80 216 120T248 230Q248 272 228 289T169 307H124L153
396H181Q228 396 257 431T286 521Q286 556 270 574T223 592Q170 592 107 534L55 601Q99 644 145 664T243 685Q319 685 362 642Z" />
<glyph unicode="4" glyph-name="four" horiz-adv-x="459" d="M438 250L424 156H362L340 0H224L245 156H8L21 241L238 687L337 647L150 250H259L297 421H399L375 250H438Z" />
<glyph unicode="5" glyph-name="five" horiz-adv-x="437" d="M415 581H213L189 410Q232 434 275 434Q335 434 369 392T404 270Q404 197 376 132T291 26T155 -15Q95 -15 55 10T-13 80L63 140Q83 110 106 96T159 81Q221 81 251 137T282 265Q282 309 267 327T221
346Q187 346 147 322H63L112 673H442L415 581Z" />
<glyph unicode="6" glyph-name="six" horiz-adv-x="474" d="M377 447T411 405T446 284Q446 208 420 140T340 28T214 -15Q127 -15 85 40T43 196Q43 313 79 426T185 612T345 685Q411 685 465 641L411 569Q376 594 342 594Q293 594 251 535T185 371Q243 447 317 447Q377
447 411 405ZM256 77T280 111T315 193T326 287Q326 358 277 358Q225 358 171 276Q163 209 163 178Q163 125 176 101T219 77Q256 77 280 111Z" />
<glyph unicode="7" glyph-name="seven" horiz-adv-x="377" d="M420 672L407 586L126 -13L24 24L282 577H56L70 672H420Z" />
<glyph unicode="8" glyph-name="eight" horiz-adv-x="474" d="M392 331T414 296T436 212Q436 143 406 92T322 13T200 -15Q113 -15 64 33T15 154Q15 219 48 268T155 353Q90 401 90 480Q90 542 117 588T192 660T298 685Q375 685 422 645T469 537Q469 478 441 435T346
357Q392 331 414 296ZM247 598T227 565T206 482Q206 450 219 431T263 397L276 391Q319 420 336 453T353 531Q353 598 291 598Q247 598 227 565ZM258 77T287 113T316 210Q316 245 300 266T242 308L223 317Q135 262 135 158Q135 118 154 98T209 77Q258 77 287 113Z"
/>
<glyph unicode="9" glyph-name="nine" horiz-adv-x="460" d="M364 685T408 633T452 487Q452 307 358 169T39 -26L22 60Q140 97 208 153T310 309Q278 274 248 257T182 239Q122 239 85 285T47 409Q47 482 74 545T153 646T279 685Q364 685 408 633ZM271 328T324 401Q329
455 329 500Q329 550 316 572T272 595Q219 595 194 538T168 411Q168 328 222 328Q271 328 324 401Z" />
<glyph unicode=":" glyph-name="colon" horiz-adv-x="213" d="M39 -15T21 4T2 54Q2 90 26 115T85 141Q117 141 135 122T153 72Q153 36 130 11T70 -15Q39 -15 21 4ZM89 341T71 360T52 410Q52 446 76 471T135 497Q167 497 185 478T203 428Q203 392 180 367T120 341Q89
341 71 360Z" />
<glyph unicode=";" glyph-name="semicolon" horiz-adv-x="215" d="M115 141T132 124T150 75Q150 54 142 34T113 -27L38 -171H-31L29 1Q3 20 3 54Q3 90 26 115T85 141Q115 141 132 124ZM91 341T73 360T54 410Q54 446 78 471T137 497Q169 497 187 478T205 428Q205
392 182 367T122 341Q91 341 73 360Z" />
<glyph unicode="&lt;" glyph-name="less" horiz-adv-x="424" d="M392 562L422 470L136 327L381 191L326 104L32 275L48 390L392 562Z" />
<glyph unicode="=" glyph-name="equal" horiz-adv-x="428" d="M62 382L76 480H413L399 382H62ZM290 437L304 535H641L627 437H290Z" />
<glyph unicode="&gt;" glyph-name="greater" horiz-adv-x="424" d="M117 562L411 390L395 276L52 104L21 196L309 339L63 475L117 562Z" />
<glyph unicode="?" glyph-name="question" horiz-adv-x="400" d="M336 705T378 664T420 559Q420 515 405 484T367 433T310 388Q266 358 245 334T224 271Q224 259 226 243L119 226Q111 248 111 278Q111 319 125 348T159 395T212 438Q254 468 273 491T293 553Q293
607 241 607Q194 607 133 543L67 604Q148 705 259 705Q336 705 378 664ZM127 -15T109 4T90 54Q90 90 114 115T173 141Q205 141 223 122T241 72Q241 36 218 11T158 -15Q127 -15 109 4Z" />
<glyph unicode="@" glyph-name="at" horiz-adv-x="850" d="M597 705T667 662T773 545T809 377Q809 289 782 203T704 62T585 7Q540 7 516 35T489 106Q443 9 361 9Q305 9 273 52T240 169Q240 249 264 324T341 448T470 497Q505 497 539 486T601 456L564 186Q559 154
559 134Q559 89 587 89Q621 89 647 134T688 248T702 379Q702 492 649 552T492 613Q375 613 299 543T187 367T151 149Q151 21 210 -51T379 -124Q459 -124 542 -90L560 -177Q465 -217 368 -217Q267 -217 193 -172T80 -43T41 151Q41 282 93 410T249 621T499 705Q597
705 667 662ZM410 90T429 112T459 161L495 411Q482 417 463 417Q422 417 396 377T359 278T347 162Q347 90 386 90Q410 90 429 112Z" />
<glyph unicode="A" glyph-name="A" horiz-adv-x="490" d="M325 0L315 162H145L91 0H-39L228 691H381L455 0H325ZM176 258H309L289 598L176 258Z" />
<glyph unicode="B" glyph-name="B" horiz-adv-x="509" d="M476 337T476 230Q476 126 407 63T202 0H22L120 691H298Q394 691 449 651T504 538Q504 469 464 426T356 365Q476 337 476 230ZM232 597L205 406H261Q318 406 347 437T376 528Q376 597 297 597H232ZM288
96T318 134T348 233Q348 277 326 296T257 316H192L161 96H216Q288 96 318 134Z" />
<glyph unicode="C" glyph-name="C" horiz-adv-x="474" d="M407 705T445 686T516 631L448 564Q426 586 403 597T353 608Q289 608 248 551T189 408T170 236Q170 159 194 123T264 87Q296 87 320 99T385 141L432 65Q346 -15 243 -15Q150 -15 95 52T40 243Q40 361 74
466T180 638T354 705Q407 705 445 686Z" />
<glyph unicode="D" glyph-name="D" horiz-adv-x="547" d="M395 691T462 638T529 453Q529 251 447 126T188 0H22L120 691H280Q395 691 462 638ZM232 596L161 95H210Q279 95 322 149T383 285T402 455Q402 533 372 564T284 596H232Z" />
<glyph unicode="E" glyph-name="E" horiz-adv-x="429" d="M458 691L429 596H232L204 398H379L365 304H191L161 96H376L361 0H22L120 691H458Z" />
<glyph unicode="F" glyph-name="F" horiz-adv-x="396" d="M448 691L420 596H232L202 385H369L354 290H189L148 0H22L120 691H448Z" />
<glyph unicode="G" glyph-name="G" horiz-adv-x="534" d="M475 705T543 624L471 560Q445 587 422 598T365 609Q297 609 252 551T187 403T166 219Q166 149 188 116T255 83Q300 83 346 111L371 295H294L296 390H505L459 55Q355 -14 246 -14Q144 -14 91 49T38 235Q38
355 75 462T187 637T368 705Q475 705 543 624Z" />
<glyph unicode="H" glyph-name="H" horiz-adv-x="547" d="M148 0H22L120 691H245L206 412H382L421 691H547L450 0H324L368 310H192L148 0Z" />
<glyph unicode="I" glyph-name="I" horiz-adv-x="245" d="M245 691L148 0H22L120 691H245Z" />
<glyph unicode="J" glyph-name="J" horiz-adv-x="264" d="M183 93Q172 17 143 -31T73 -105T-28 -153L-52 -65Q-13 -45 8 -24T41 26T58 104L141 691H267L183 93Z" />
<glyph unicode="K" glyph-name="K" horiz-adv-x="519" d="M22 0L120 691H245L148 0H22ZM344 0L204 369L434 691H564L334 369L482 0H344Z" />
<glyph unicode="L" glyph-name="L" horiz-adv-x="410" d="M245 691L163 105H384L355 0H22L120 691H245Z" />
<glyph unicode="M" glyph-name="M" horiz-adv-x="657" d="M580 0H458L485 288Q497 416 522 581L363 76H241L213 580Q199 429 174 286L125 0H3L143 691H297L319 198L468 691H633L580 0Z" />
<glyph unicode="N" glyph-name="N" horiz-adv-x="545" d="M448 0H293L191 584Q191 506 188 439T172 284L134 0H23L120 691H275L377 107Q377 189 379 243T391 366L434 691H545L448 0Z" />
<glyph unicode="O" glyph-name="O" horiz-adv-x="576" d="M452 705T505 640T559 450Q559 334 526 228T423 53T247 -15Q147 -15 93 50T39 239Q39 354 72 460T175 636T352 705Q452 705 505 640ZM282 608T243 545T186 393T168 222Q168 149 190 116T255 83Q318 83
357 146T414 298T431 469Q431 541 410 574T344 608Q282 608 243 545Z" />
<glyph unicode="P" glyph-name="P" horiz-adv-x="478" d="M387 691T441 644T496 506Q496 434 467 375T378 279T229 243H182L148 0H22L120 691H285Q387 691 441 644ZM306 338T336 385T367 505Q367 555 345 576T273 597H232L196 338H231Q306 338 336 385Z" />
<glyph unicode="Q" glyph-name="Q" horiz-adv-x="576" d="M424 37T462 20T531 -31L437 -124Q403 -67 360 -40T247 -13Q147 -13 93 51T39 239Q39 354 72 460T175 636T352 705Q452 705 505 640T559 450Q559 314 513 200T372 39Q424 37 462 20ZM168 149T190 116T255
83Q318 83 357 146T414 298T431 469Q431 541 410 574T344 608Q282 608 243 545T186 393T168 222Q168 149 190 116Z" />
<glyph unicode="R" glyph-name="R" horiz-adv-x="505" d="M497 448T463 393T362 305L464 0H334L249 278L187 279L148 0H22L120 691H283Q390 691 443 646T497 519Q497 448 463 393ZM243 371Q310 371 339 413T368 515Q368 559 347 578T280 598H232L200 371H243Z" />
<glyph unicode="S" glyph-name="S" horiz-adv-x="462" d="M412 705T481 619L413 553Q387 581 360 594T299 608Q253 608 226 580T198 508Q198 475 217 454T294 406Q363 373 396 332T430 222Q430 157 398 103T309 17T180 -15Q114 -15 65 10T-22 81L50 148Q81 115
111 99T182 83Q235 83 268 116T301 207Q301 246 280 269T201 321Q131 355 101 393T71 493Q71 550 100 599T180 676T297 705Q412 705 481 619Z" />
<glyph unicode="T" glyph-name="T" horiz-adv-x="437" d="M494 691L467 589H327L244 0H118L201 589H53L67 691H494Z" />
<glyph unicode="U" glyph-name="U" horiz-adv-x="531" d="M470 189Q462 133 431 87T349 13T230 -14Q136 -14 87 36T37 162Q37 180 40 196L110 691H235L165 184Q163 168 163 162Q163 126 181 106T238 85Q284 85 311 114T345 189L414 691H540L470 189Z" />
<glyph unicode="V" glyph-name="V" horiz-adv-x="474" d="M535 691L282 0H124L58 691H186L219 112L406 691H535Z" />
<glyph unicode="W" glyph-name="W" horiz-adv-x="692" d="M738 691L545 0H382L385 559L234 0H72L74 691H196L176 103L340 691H472L468 103L619 691H738Z" />
<glyph unicode="X" glyph-name="X" horiz-adv-x="464" d="M512 691L319 372L430 0H298L235 290L97 0H-40L169 368L70 691H202L253 442L376 691H512Z" />
<glyph unicode="Y" glyph-name="Y" horiz-adv-x="475" d="M539 691L300 262L263 0H137L173 262L55 691H187L251 363L404 691H539Z" />
<glyph unicode="Z" glyph-name="Z" horiz-adv-x="436" d="M-22 0L-7 98L319 589H85L100 691H470L455 592L128 104H394L364 0H-22Z" />
<glyph unicode="[" glyph-name="bracketleft" horiz-adv-x="267" d="M318 819L304 723H211L109 -24H201L187 -119H-21L112 819H318Z" />
<glyph unicode="\" glyph-name="backslash" horiz-adv-x="433" d="M248 804L313 -90L207 -107L143 787L248 804Z" />
<glyph unicode="]" glyph-name="bracketright" horiz-adv-x="267" d="M312 819L180 -119H-26L-13 -24H80L182 723H92L105 819H312Z" />
<glyph unicode="^" glyph-name="asciicircum" horiz-adv-x="460" d="M366 842L475 527H357L297 744L182 527H59L256 842H366Z" />
<glyph unicode="_" glyph-name="underscore" horiz-adv-x="433" d="M-44 -155L-30 -56H372L358 -155H-44Z" />
<glyph unicode="`" glyph-name="grave" horiz-adv-x="281" d="M151 810L310 688L273 632L94 721L151 810Z" />
<glyph unicode="a" glyph-name="a" horiz-adv-x="481" d="M380 543T460 499L408 136Q405 118 405 105Q405 92 410 84T427 69L389 -13Q309 -3 295 65Q266 26 236 6T164 -15Q99 -15 63 35T26 170Q26 263 54 348T143 488T297 543Q380 543 460 499ZM243 453T212 411T165
304T149 168Q149 120 162 99T201 78Q225 78 245 97T291 155L331 445Q312 453 290 453Q243 453 212 411Z" />
<glyph unicode="b" glyph-name="b" horiz-adv-x="489" d="M392 543T427 497T462 364Q462 261 436 176T349 38T193 -15Q114 -15 22 24L123 741L245 754L207 481Q233 511 264 527T331 543Q392 543 427 497ZM264 450T239 433T193 386L152 89Q180 78 208 78Q252 78
281 121T325 228T339 360Q339 409 326 429T287 450Q264 450 239 433Z" />
<glyph unicode="c" glyph-name="c" horiz-adv-x="396" d="M327 543T360 528T422 482L361 414Q341 431 324 439T285 447Q218 447 187 367T155 186Q155 132 172 108T221 84Q243 84 262 92T309 119L353 43Q281 -15 203 -15Q122 -15 76 39T29 190Q29 281 58 361T144
492T283 543Q327 543 360 528Z" />
<glyph unicode="d" glyph-name="d" horiz-adv-x="490" d="M502 740L398 0H291L294 72Q267 29 235 7T161 -15Q97 -15 62 34T27 172Q27 260 52 346T127 488T249 544Q314 544 346 489L382 752L502 740ZM230 451T203 406T163 296T150 171Q150 78 203 78Q229 78 253
103T302 176L333 401Q321 427 307 439T269 451Q230 451 203 406Z" />
<glyph unicode="e" glyph-name="e" horiz-adv-x="450" d="M360 543T400 505T441 408Q441 306 362 259T150 195V181Q150 128 168 105T222 81Q251 81 276 92T335 127L379 53Q298 -15 205 -15Q122 -15 75 36T28 183Q28 275 56 357T143 491T288 543Q360 543 400 505ZM242
286T282 318T322 405Q322 456 276 456Q228 456 199 405T158 276Q242 286 282 318Z" />
<glyph unicode="f" glyph-name="f" horiz-adv-x="285" d="M277 661T261 643T240 584L232 529H336L309 440H220L164 37Q153 -42 126 -90T61 -164T-39 -217L-68 -127Q-33 -111 -12 -93T23 -44T44 40L99 440H33L46 529H111L120 591Q130 665 176 710T297 755Q364 755
417 714L373 641Q339 661 307 661Q277 661 261 643Z" />
<glyph unicode="g" glyph-name="g" horiz-adv-x="480" d="M381 543T461 499L393 13Q375 -108 319 -163T165 -219Q121 -219 79 -205T3 -166L48 -84Q108 -121 162 -121Q206 -121 235 -95T274 1L283 69Q257 35 230 18T164 0Q100 0 64 49T28 181Q28 272 56 354T144
490T298 543Q381 543 461 499ZM244 453T213 413T166 309T150 179Q150 134 163 114T202 93Q226 93 248 113T294 169L332 445Q313 453 291 453Q244 453 213 413Z" />
<glyph unicode="h" glyph-name="h" d="M383 544T411 511T440 421Q440 404 437 386L382 0H261L313 372Q315 388 315 394Q315 437 285 437Q243 437 182 314L140 0H19L123 740L245 752L202 447Q259 544 336 544Q383 544 411 511Z" />
<glyph unicode="i" glyph-name="i" horiz-adv-x="233" d="M214 529L140 0H19L93 529H214ZM138 644T121 661T103 709Q103 747 126 770T185 793Q216 793 233 776T251 728Q251 691 227 668T169 644Q138 644 121 661Z" />
<glyph unicode="j" glyph-name="j" horiz-adv-x="234" d="M-85 -127Q-50 -111 -30 -94T5 -45T27 40L95 529H216L147 37Q136 -42 109 -90T44 -164T-57 -217L-85 -127ZM141 644T124 661T106 709Q106 747 129 770T188 793Q219 793 236 776T254 728Q254 691 230 668T172
644Q141 644 124 661Z" />
<glyph unicode="k" glyph-name="k" horiz-adv-x="471" d="M203 452Q235 498 270 520T350 543Q403 543 435 511T467 426Q467 366 435 321T334 239L414 0H287L210 257Q283 283 313 319T344 407Q344 454 306 454Q278 454 247 422T184 325L140 0H19L123 741L245 754L203 452Z" />
<glyph unicode="l" glyph-name="l" horiz-adv-x="245" d="M151 117Q150 113 150 107Q150 85 169 85Q180 85 191 89L204 4Q170 -14 126 -14Q79 -14 54 12T28 87Q28 96 30 114L118 741L239 754L151 117Z" />
<glyph unicode="m" glyph-name="m" horiz-adv-x="690" d="M604 544T631 511T659 421Q659 404 656 386L600 0H479L531 372Q533 390 533 397Q533 439 508 439Q487 439 466 408T415 317L369 0H248L300 372Q302 390 302 397Q302 439 277 439Q256 439 234 407T183 315L140
0H19L93 529H198L193 443Q222 491 254 517T328 544Q367 544 393 519T425 446Q456 494 487 519T559 544Q604 544 631 511Z" />
<glyph unicode="n" glyph-name="n" horiz-adv-x="473" d="M384 544T412 511T441 421Q441 404 438 386L383 0H262L314 372Q316 388 316 394Q316 437 286 437Q244 437 183 314L140 0H19L93 529H198L193 441Q225 490 259 517T337 544Q384 544 412 511Z" />
<glyph unicode="o" glyph-name="o" horiz-adv-x="485" d="M120 -15T74 38T28 188Q28 276 55 357T140 490T283 543Q366 543 411 491T457 341Q457 254 430 173T346 38T203 -15Q120 -15 74 38ZM255 79T282 124T322 233T334 356Q334 450 275 450Q231 450 204 405T164
296T152 173Q152 79 211 79Q255 79 282 124Z" />
<glyph unicode="p" glyph-name="p" horiz-adv-x="489" d="M93 529H200L197 472Q255 543 331 543Q393 543 428 497T463 364Q463 265 437 179T355 39T214 -15Q174 -15 139 0L110 -205L-12 -219L93 529ZM252 77T282 122T326 233T340 362Q340 409 327 429T287 450Q265
450 240 433T194 387L152 89Q182 77 207 77Q252 77 282 122Z" />
<glyph unicode="q" glyph-name="q" horiz-adv-x="482" d="M280 50Q256 19 229 2T164 -15Q100 -15 63 35T26 170Q26 264 54 349T144 488T298 543Q382 543 462 499L364 -205L243 -219L280 50ZM226 78T247 98T293 155L334 445Q315 453 291 453Q244 453 212 412T165
305T149 168Q149 121 162 100T201 78Q226 78 247 98Z" />
<glyph unicode="r" glyph-name="r" horiz-adv-x="326" d="M340 542T363 535L325 417Q307 422 290 422Q252 422 225 382T176 264L140 0H19L93 529H197L192 437Q217 489 247 515T320 542Q340 542 363 535Z" />
<glyph unicode="s" glyph-name="s" horiz-adv-x="397" d="M282 543T322 526T392 478L337 411Q290 452 238 452Q206 452 188 435T169 390Q169 366 186 350T250 313Q304 289 330 256T357 169Q357 114 331 73T258 8T154 -15Q49 -15 -22 63L44 129Q70 104 96 91T154
77Q193 77 213 100T234 154Q234 184 217 201T154 239Q98 263 73 294T48 377Q48 422 72 460T138 520T234 543Q282 543 322 526Z" />
<glyph unicode="t" glyph-name="t" horiz-adv-x="315" d="M171 136Q170 131 170 122Q170 84 205 84Q217 84 228 88T256 101L286 22Q234 -15 171 -15Q113 -15 81 18T49 109Q49 118 51 140L93 440H29L42 529H110L140 649L245 661L226 529H325L298 440H214L171 136Z" />
<glyph unicode="u" glyph-name="u" horiz-adv-x="468" d="M90 -15T62 17T33 105Q33 125 35 136L89 529H210L156 143Q155 137 155 127Q155 88 183 88Q227 88 279 181L329 529H449L375 0H271L276 81Q245 34 214 10T138 -15Q90 -15 62 17Z" />
<glyph unicode="v" glyph-name="v" horiz-adv-x="421" d="M457 529L249 0H103L39 529H167L190 99L330 529H457Z" />
<glyph unicode="w" glyph-name="w" horiz-adv-x="615" d="M641 529L476 0H334L329 420L212 0H68L49 529H169L159 90L288 529H409L411 90L525 529H641Z" />
<glyph unicode="x" glyph-name="x" horiz-adv-x="416" d="M436 529L284 277L383 0H257L198 211L84 0H-41L137 283L47 529H174L221 344L313 529H436Z" />
<glyph unicode="y" glyph-name="y" horiz-adv-x="424" d="M251 -3Q210 -110 148 -158T-17 -217L-19 -131Q47 -117 80 -91T141 0H96L39 529H164L186 85L333 529H460L251 -3Z" />
<glyph unicode="z" glyph-name="z" horiz-adv-x="372" d="M387 529L374 440L130 97H332L306 0H-24L-11 89L233 432H52L67 529H387Z" />
<glyph unicode="{" glyph-name="braceleft" horiz-adv-x="267" d="M310 748Q275 748 259 732T238 676L211 468Q204 411 181 387T109 347Q144 337 160 319T177 262Q177 247 174 227L147 18Q145 2 145 -3Q145 -28 157 -38T200 -48L188 -137Q108 -137 71 -108T33
-14Q33 4 36 23L63 226Q66 243 66 255Q66 279 55 289T17 299L32 400Q64 400 79 416T99 472L128 681Q135 737 155 771T214 821T321 837L310 748Z" />
<glyph unicode="|" glyph-name="bar" horiz-adv-x="316" d="M291 809L163 -104H50L178 809H291Z" />
<glyph unicode="}" glyph-name="braceright" horiz-adv-x="267" d="M-19 -48Q16 -48 32 -33T53 24L80 232Q88 289 111 313T183 353Q147 363 131 381T114 439Q114 454 117 473L145 682Q147 698 147 703Q147 728 134 738T91 748L103 837Q183 837 220 808T258 714Q258
697 255 677L228 474Q225 458 225 445Q225 421 236 411T274 401L260 300Q228 300 213 284T192 228L164 19Q156 -38 136 -71T77 -121T-30 -137L-19 -48Z" />
<glyph unicode="~" glyph-name="asciitilde" horiz-adv-x="425" d="M255 242T239 251T201 277Q185 290 174 296T150 303Q131 303 117 291T83 252L24 288Q56 337 88 366T163 396Q185 396 202 387T239 362Q255 349 266 343T290 336Q310 336 325 348T356 383L416
347Q386 300 354 271T278 242Q255 242 239 251Z" />
<glyph unicode="&#xa0;" glyph-name="uni00A0" horiz-adv-x="190" />
<glyph unicode="&#xa1;" glyph-name="exclamdown" horiz-adv-x="222" d="M95 344T77 363T58 413Q58 449 82 474T141 500Q173 500 191 481T209 431Q209 395 186 370T126 344Q95 344 77 363ZM155 241L107 -203H-21L57 241H155Z" />
<glyph unicode="&#xa2;" glyph-name="cent" horiz-adv-x="396" d="M218 447T187 367T155 186Q155 132 172 108T221 84Q243 84 262 92T309 119L353 43Q297 -2 239 -12L218 -157H130L151 -8Q93 8 61 59T29 190Q29 270 51 343T119 468T228 536L250 688H337L317 541Q378
531 422 482L361 414Q341 431 324 439T285 447Q218 447 187 367Z" />
<glyph unicode="&#xa3;" glyph-name="sterling" horiz-adv-x="440" d="M262 590T248 489L234 387H384L374 317H225L212 218Q206 169 191 143T137 96H392L363 0H-7L7 93Q39 104 55 119T79 157T92 219L105 317H49L60 387H115L129 494Q142 582 192 633T324 685Q425
685 474 593L396 542Q381 568 366 579T327 590Q262 590 248 489Z" />
<glyph unicode="&#xa4;" glyph-name="currency" horiz-adv-x="460" d="M399 84L338 159Q297 130 240 130Q184 130 144 160L81 84L21 137L91 219Q63 270 63 341Q63 409 90 461L18 548L83 600L144 523Q185 552 240 552Q296 552 337 523L401 600L461 546L390 464Q419
414 419 341Q419 272 392 222L464 135L399 84ZM282 215T302 245T322 342Q322 408 302 438T241 469Q200 469 180 439T159 342Q159 276 179 246T241 215Q282 215 302 245Z" />
<glyph unicode="&#xa5;" glyph-name="yen" horiz-adv-x="455" d="M517 672L324 348H408L397 277H289L278 196H386L375 126H269L251 0H130L148 126H40L51 196H157L168 277H61L72 348H154L52 672H176L244 383L389 672H517Z" />
<glyph unicode="&#xa6;" glyph-name="brokenbar" horiz-adv-x="316" d="M291 809L239 443H126L178 809H291ZM214 262L163 -104H50L101 262H214Z" />
<glyph unicode="&#xa7;" glyph-name="section" horiz-adv-x="465" d="M417 400T417 317Q417 272 394 238T325 175Q361 139 361 85Q361 42 339 5T272 -54T167 -77Q78 -77 15 -24L66 46Q114 11 170 11Q209 11 227 30T246 79Q246 107 230 123T164 160Q111 182 86
212T60 288Q60 376 151 430Q118 464 118 516Q118 565 142 603T210 663T307 684Q393 684 459 627L408 559Q362 596 310 596Q269 596 251 577T232 528Q232 500 248 484T314 445Q417 400 417 317ZM271 214Q310 256 310 298Q310 321 295 338T243 372Q215 384 204 391Q168
351 168 306Q168 283 180 268T221 239L271 214Z" />
<glyph unicode="&#xa8;" glyph-name="dieresis" horiz-adv-x="376" d="M124 649T109 665T93 706Q93 738 114 759T165 781Q192 781 207 765T223 724Q223 692 202 671T150 649Q124 649 109 665ZM311 649T295 665T279 706Q279 738 300 759T351 781Q378 781 393 765T409
724Q409 691 388 670T337 649Q311 649 295 665Z" />
<glyph unicode="&#xa9;" glyph-name="copyright" horiz-adv-x="668" d="M435 757T497 717T596 604T632 433Q632 336 596 263T498 151T358 111Q281 111 219 150T120 263T83 433Q83 530 119 603T218 717T358 757Q435 757 497 717ZM300 691T254 661T181 572T155 433Q155
353 181 295T253 207T358 176Q416 176 462 206T534 295T560 433Q560 513 534 571T462 660T358 691Q300 691 254 661ZM420 627T465 582L428 532Q410 544 397 549T368 555Q306 555 306 434Q306 315 370 315Q387 315 401 322T432 342L468 290Q421 241 360 241Q296
241 257 291T218 434Q218 527 257 577T363 627Q420 627 465 582Z" />
<glyph unicode="&#xaa;" glyph-name="ordfeminine" horiz-adv-x="407" d="M111 268T83 298T55 379Q55 441 97 484T233 527H271L273 543Q275 557 275 563Q275 587 264 598T228 609Q191 609 137 590L118 663Q186 691 251 691Q315 691 348 661T381 572Q381 551 379
539L358 390Q356 378 356 373Q356 362 360 356T375 344L342 270Q278 277 263 324Q221 268 159 268Q111 268 83 298ZM228 348T252 390L262 462H232Q197 462 181 441T165 389Q165 370 173 359T196 348Q228 348 252 390ZM1 0L15 98H346L332 0H1Z" />
<glyph unicode="&#xab;" glyph-name="guillemotleft" horiz-adv-x="524" d="M226 544L295 494L158 284L236 77L154 27L33 245L46 326L226 544ZM452 544L521 494L384 284L462 77L380 27L259 245L272 326L452 544Z" />
<glyph unicode="&#xac;" glyph-name="logicalnot" horiz-adv-x="437" d="M406 374L371 129H263L283 276H47L61 374H406Z" />
<glyph unicode="&#xad;" glyph-name="uni00AD" horiz-adv-x="341" d="M44 264L57 362H311L298 264H44Z" />
<glyph unicode="&#xae;" glyph-name="registered" horiz-adv-x="523" d="M357 753T407 720T487 627T516 489Q516 411 487 352T408 259T294 226Q230 226 179 259T99 351T70 489Q70 567 99 627T179 720T294 753Q357 753 407 720ZM366 283T410 338T455 489Q455 586
411 641T294 697Q247 697 210 672T152 600T131 489Q131 393 176 338T294 283Q366 283 410 338ZM385 496T337 473L397 356H333L287 460H266V356H209V634H277Q330 634 357 612T385 548Q385 496 337 473ZM266 511H291Q327 511 327 549Q327 586 289 586H266V511Z" />
<glyph unicode="&#xaf;" glyph-name="overscore" horiz-adv-x="304" d="M328 661H86L99 749H342L328 661Z" />
<glyph unicode="&#xb0;" glyph-name="degree" horiz-adv-x="420" d="M146 376T111 411T76 511Q76 565 97 609T157 679T241 705Q294 705 329 670T364 570Q364 516 343 472T283 402T199 376Q146 376 111 411ZM241 450T260 484T280 569Q280 631 236 631Q199 631 180
597T160 512Q160 450 205 450Q241 450 260 484Z" />
<glyph unicode="&#xb1;" glyph-name="plusminus" horiz-adv-x="436" d="M14 0L28 98H365L351 0H14ZM315 583L294 430H414L400 332H279L256 180H155L178 332H55L69 430H193L214 583H315Z" />
<glyph unicode="&#xb2;" glyph-name="uni00B2" horiz-adv-x="328" d="M272 748T302 718T333 641Q333 600 312 562T256 488T159 396H309L288 321H51L61 392Q131 461 165 498T220 569T240 635Q240 654 231 664T204 675Q186 675 171 665T135 634L86 678Q145 748 221
748Q272 748 302 718Z" />
<glyph unicode="&#xb3;" glyph-name="uni00B3" horiz-adv-x="328" d="M275 749T303 722T332 651Q332 609 307 581T234 542Q272 539 293 518T314 459Q314 419 295 385T240 330T156 310Q76 310 36 376L91 419Q120 383 156 383Q187 383 205 406T223 464Q223 487 210
497T171 507H142L163 573H179Q208 573 225 593T243 641Q243 678 205 678Q171 678 129 645L91 694Q150 749 223 749Q275 749 303 722Z" />
<glyph unicode="&#xb4;" glyph-name="acute" horiz-adv-x="286" d="M275 812L320 721L120 631L88 690L275 812Z" />
<glyph unicode="&#xb5;" glyph-name="uni00B5" horiz-adv-x="478" d="M393 112T393 63Q393 36 397 -2L285 -13Q277 27 278 65Q255 28 231 9T177 -10Q157 -10 144 -3T121 19Q124 3 124 -23Q124 -58 117 -106L103 -203L-12 -216L93 529H213L162 156Q160 136 160
130Q160 82 196 82Q242 82 280 165L331 529H451L402 179Q393 112 393 63Z" />
<glyph unicode="&#xb6;" glyph-name="paragraph" horiz-adv-x="633" d="M603 691L477 -203L371 -218L483 601H404L293 -203L186 -218L256 273Q174 277 132 322T89 443Q89 518 119 574T205 660T336 691H603Z" />
<glyph unicode="&#xb7;" glyph-name="middot" horiz-adv-x="212" d="M74 230T56 249T37 299Q37 335 61 360T120 386Q152 386 170 367T188 317Q188 281 165 256T105 230Q74 230 56 249Z" />
<glyph unicode="&#xb8;" glyph-name="cedilla" horiz-adv-x="266" d="M107 -56Q143 -60 161 -80T179 -135Q179 -180 147 -215T48 -250Q-7 -250 -38 -222L-2 -166Q22 -179 46 -179Q66 -179 78 -169T91 -140Q91 -121 76 -114T22 -106L50 16H118L107 -56Z" />
<glyph unicode="&#xb9;" glyph-name="uni00B9" horiz-adv-x="328" d="M304 740L245 321H157L201 647L123 594L88 654L223 740H304Z" />
<glyph unicode="&#xba;" glyph-name="ordmasculine" horiz-adv-x="413" d="M333 691T372 650T411 530Q411 464 390 404T324 306T210 268Q140 268 101 310T62 429Q62 495 83 555T149 653T263 691Q333 691 372 650ZM211 608T192 549T172 417Q172 351 215 351Q261
351 281 412T302 542Q302 608 258 608Q211 608 192 549ZM0 0L14 98H351L337 0H0Z" />
<glyph unicode="&#xbb;" glyph-name="guillemotright" horiz-adv-x="524" d="M150 544L271 326L259 245L78 27L10 77L147 288L68 494L150 544ZM376 544L497 326L485 245L304 27L236 77L373 288L294 494L376 544Z" />
<glyph unicode="&#xbc;" glyph-name="onequarter" horiz-adv-x="783" d="M297 691L238 272H150L194 598L116 545L81 605L216 691H297ZM577 753L642 718L199 -81L133 -46L577 753ZM745 163L734 90H697L684 0H600L613 90H456L465 156L601 428L674 398L559 163H625L654
263H721L707 163H745Z" />
<glyph unicode="&#xbd;" glyph-name="onehalf" horiz-adv-x="783" d="M297 691L238 272H150L194 598L116 545L81 605L216 691H297ZM577 753L642 718L199 -81L133 -46L577 753ZM682 427T712 397T743 320Q743 279 722 241T666 167T569 75H719L698 0H461L471 71Q541
140 575 177T630 248T650 314Q650 333 641 343T614 354Q596 354 581 344T545 313L496 357Q555 427 631 427Q682 427 712 397Z" />
<glyph unicode="&#xbe;" glyph-name="threequarters" horiz-adv-x="783" d="M268 700T296 673T325 602Q325 560 300 532T227 493Q265 490 286 469T307 410Q307 370 288 336T233 281T149 261Q69 261 29 327L84 370Q113 334 149 334Q180 334 198 357T216 415Q216
438 203 448T164 458H135L156 524H172Q201 524 218 544T236 592Q236 629 198 629Q164 629 122 596L84 645Q143 700 216 700Q268 700 296 673ZM577 753L642 718L199 -81L133 -46L577 753ZM745 163L734 90H697L684 0H600L613 90H456L465 156L601 428L674 398L559
163H625L654 263H721L707 163H745Z" />
<glyph unicode="&#xbf;" glyph-name="questiondown" horiz-adv-x="399" d="M267 508T285 489T304 439Q304 403 280 378T221 352Q189 352 171 371T153 421Q153 457 176 482T236 508Q267 508 285 489ZM57 -219T15 -178T-27 -73Q-27 -29 -12 2T25 52T83 96Q127 126
148 151T170 215Q170 227 168 243L274 260Q283 235 283 208Q283 167 269 138T235 90T182 48Q141 20 121 -4T101 -66Q101 -96 114 -108T152 -121Q203 -121 260 -56L326 -118Q245 -219 134 -219Q57 -219 15 -178Z" />
<glyph unicode="&#xc0;" glyph-name="Agrave" horiz-adv-x="490" d="M325 0L315 162H145L91 0H-39L228 691H381L455 0H325ZM176 258H309L289 598L176 258ZM278 921L439 809L401 752L223 831L278 921Z" />
<glyph unicode="&#xc1;" glyph-name="Aacute" horiz-adv-x="490" d="M325 0L315 162H145L91 0H-39L228 691H381L455 0H325ZM176 258H309L289 598L176 258ZM399 923L444 831L243 751L213 810L399 923Z" />
<glyph unicode="&#xc2;" glyph-name="Acircumflex" horiz-adv-x="490" d="M325 0L315 162H145L91 0H-39L228 691H381L455 0H325ZM176 258H309L289 598L176 258ZM207 758L161 809L295 931H369L469 803L420 758L323 841L207 758Z" />
<glyph unicode="&#xc3;" glyph-name="Atilde" horiz-adv-x="490" d="M325 0L315 162H145L91 0H-39L228 691H381L455 0H325ZM176 258H309L289 598L176 258ZM354 772T341 779T312 799Q300 809 292 813T275 818Q262 818 252 808T227 774L171 808Q194 853 222 880T281
908Q299 908 312 901T342 880Q354 870 361 866T377 861Q388 861 398 871T424 904L480 871Q458 824 430 798T370 772Q354 772 341 779Z" />
<glyph unicode="&#xc4;" glyph-name="Adieresis" horiz-adv-x="490" d="M325 0L315 162H145L91 0H-39L228 691H381L455 0H325ZM176 258H309L289 598L176 258ZM198 775T183 791T167 832Q167 864 188 885T239 907Q266 907 281 891T297 850Q297 818 276 797T224 775Q198
775 183 791ZM385 775T369 791T353 832Q353 864 374 885T425 907Q452 907 467 891T483 850Q483 817 462 796T411 775Q385 775 369 791Z" />
<glyph unicode="&#xc5;" glyph-name="Aring" horiz-adv-x="490" d="M325 0L315 162H145L91 0H-39L228 691H381L455 0H325ZM176 258H309L289 598L176 258ZM386 975T412 946T439 871Q439 816 405 779T315 742Q270 742 244 771T217 846Q217 901 252 938T341 975Q386
975 412 946ZM314 913T301 895T288 848Q288 827 296 816T321 804Q343 804 355 823T368 869Q368 913 336 913Q314 913 301 895Z" />
<glyph unicode="&#xc6;" glyph-name="AE" horiz-adv-x="688" d="M660 596H438L443 397H641L626 303H446L451 96H637L622 0H336L334 162H153L87 0H-46L266 691H688L660 596ZM192 258H333L329 595L192 258Z" />
<glyph unicode="&#xc7;" glyph-name="Ccedilla" horiz-adv-x="474" d="M289 608T248 551T189 408T170 236Q170 159 194 123T264 87Q296 87 320 99T385 141L432 65Q357 -4 270 -13L264 -56Q300 -60 318 -80T336 -135Q336 -180 304 -215T205 -250Q151 -250 119 -222L155
-166Q179 -179 203 -179Q223 -179 235 -169T248 -140Q248 -121 233 -114T179 -106L201 -11Q126 4 83 69T40 243Q40 361 74 466T180 638T354 705Q407 705 445 686T516 631L448 564Q426 586 403 597T353 608Q289 608 248 551Z" />
<glyph unicode="&#xc8;" glyph-name="Egrave" horiz-adv-x="429" d="M458 691L429 596H232L204 398H379L365 304H191L161 96H376L361 0H22L120 691H458ZM263 921L424 809L386 752L208 831L263 921Z" />
<glyph unicode="&#xc9;" glyph-name="Eacute" horiz-adv-x="429" d="M458 691L429 596H232L204 398H379L365 304H191L161 96H376L361 0H22L120 691H458ZM384 923L429 831L228 751L198 810L384 923Z" />
<glyph unicode="&#xca;" glyph-name="Ecircumflex" horiz-adv-x="429" d="M458 691L429 596H232L204 398H379L365 304H191L161 96H376L361 0H22L120 691H458ZM192 758L146 809L280 931H354L454 803L405 758L308 841L192 758Z" />
<glyph unicode="&#xcb;" glyph-name="Edieresis" horiz-adv-x="429" d="M458 691L429 596H232L204 398H379L365 304H191L161 96H376L361 0H22L120 691H458ZM183 775T168 791T152 832Q152 864 173 885T224 907Q251 907 266 891T282 850Q282 818 261 797T209 775Q183
775 168 791ZM370 775T354 791T338 832Q338 864 359 885T410 907Q437 907 452 891T468 850Q468 817 447 796T396 775Q370 775 354 791Z" />
<glyph unicode="&#xcc;" glyph-name="Igrave" horiz-adv-x="245" d="M245 691L148 0H22L120 691H245ZM155 921L316 809L278 752L100 831L155 921Z" />
<glyph unicode="&#xcd;" glyph-name="Iacute" horiz-adv-x="245" d="M245 691L148 0H22L120 691H245ZM276 923L321 831L120 751L90 810L276 923Z" />
<glyph unicode="&#xce;" glyph-name="Icircumflex" horiz-adv-x="245" d="M245 691L148 0H22L120 691H245ZM84 758L38 809L172 931H246L346 803L297 758L200 841L84 758Z" />
<glyph unicode="&#xcf;" glyph-name="Idieresis" horiz-adv-x="245" d="M245 691L148 0H22L120 691H245ZM75 775T60 791T44 832Q44 864 65 885T116 907Q143 907 158 891T174 850Q174 818 153 797T101 775Q75 775 60 791ZM262 775T246 791T230 832Q230 864 251
885T302 907Q329 907 344 891T360 850Q360 817 339 796T288 775Q262 775 246 791Z" />
<glyph unicode="&#xd0;" glyph-name="Eth" horiz-adv-x="554" d="M402 691T469 638T536 453Q536 251 454 126T195 0H29L73 311H18L31 395H85L127 691H287Q402 691 469 638ZM286 95T329 149T390 285T409 455Q409 533 379 564T291 596H239L211 395H322L309 311H199L168
95H217Q286 95 329 149Z" />
<glyph unicode="&#xd1;" glyph-name="Ntilde" horiz-adv-x="545" d="M448 0H293L191 584Q191 506 188 439T172 284L134 0H23L120 691H275L377 107Q377 189 379 243T391 366L434 691H545L448 0ZM385 772T372 779T343 799Q331 809 323 813T306 818Q293 818 283 808T258
774L202 808Q225 853 253 880T312 908Q330 908 343 901T373 880Q385 870 392 866T408 861Q419 861 429 871T455 904L511 871Q489 824 461 798T401 772Q385 772 372 779Z" />
<glyph unicode="&#xd2;" glyph-name="Ograve" horiz-adv-x="576" d="M452 705T505 640T559 450Q559 334 526 228T423 53T247 -15Q147 -15 93 50T39 239Q39 354 72 460T175 636T352 705Q452 705 505 640ZM282 608T243 545T186 393T168 222Q168 149 190 116T255
83Q318 83 357 146T414 298T431 469Q431 541 410 574T344 608Q282 608 243 545ZM324 921L485 809L447 752L269 831L324 921Z" />
<glyph unicode="&#xd3;" glyph-name="Oacute" horiz-adv-x="576" d="M452 705T505 640T559 450Q559 334 526 228T423 53T247 -15Q147 -15 93 50T39 239Q39 354 72 460T175 636T352 705Q452 705 505 640ZM282 608T243 545T186 393T168 222Q168 149 190 116T255
83Q318 83 357 146T414 298T431 469Q431 541 410 574T344 608Q282 608 243 545ZM445 923L490 831L289 751L259 810L445 923Z" />
<glyph unicode="&#xd4;" glyph-name="Ocircumflex" horiz-adv-x="576" d="M452 705T505 640T559 450Q559 334 526 228T423 53T247 -15Q147 -15 93 50T39 239Q39 354 72 460T175 636T352 705Q452 705 505 640ZM282 608T243 545T186 393T168 222Q168 149 190 116T255
83Q318 83 357 146T414 298T431 469Q431 541 410 574T344 608Q282 608 243 545ZM253 758L207 809L341 931H415L515 803L466 758L369 841L253 758Z" />
<glyph unicode="&#xd5;" glyph-name="Otilde" horiz-adv-x="576" d="M452 705T505 640T559 450Q559 334 526 228T423 53T247 -15Q147 -15 93 50T39 239Q39 354 72 460T175 636T352 705Q452 705 505 640ZM282 608T243 545T186 393T168 222Q168 149 190 116T255
83Q318 83 357 146T414 298T431 469Q431 541 410 574T344 608Q282 608 243 545ZM400 772T387 779T358 799Q346 809 338 813T321 818Q308 818 298 808T273 774L217 808Q240 853 268 880T327 908Q345 908 358 901T388 880Q400 870 407 866T423 861Q434 861 444 871T470
904L526 871Q504 824 476 798T416 772Q400 772 387 779Z" />
<glyph unicode="&#xd6;" glyph-name="Odieresis" horiz-adv-x="576" d="M452 705T505 640T559 450Q559 334 526 228T423 53T247 -15Q147 -15 93 50T39 239Q39 354 72 460T175 636T352 705Q452 705 505 640ZM282 608T243 545T186 393T168 222Q168 149 190 116T255
83Q318 83 357 146T414 298T431 469Q431 541 410 574T344 608Q282 608 243 545ZM244 775T229 791T213 832Q213 864 234 885T285 907Q312 907 327 891T343 850Q343 818 322 797T270 775Q244 775 229 791ZM431 775T415 791T399 832Q399 864 420 885T471 907Q498 907
513 891T529 850Q529 817 508 796T457 775Q431 775 415 791Z" />
<glyph unicode="&#xd7;" glyph-name="multiply" horiz-adv-x="431" d="M340 497L405 435L285 307L380 178L301 117L212 239L101 117L37 179L155 305L62 436L141 497L227 369L340 497Z" />
<glyph unicode="&#xd8;" glyph-name="Oslash" horiz-adv-x="576" d="M515 634T537 579T559 450Q559 334 526 228T423 53T247 -15Q228 -15 210 -12L166 -130L74 -104L123 26Q82 58 61 112T39 239Q39 354 72 460T175 636T352 705Q371 705 387 702L433 823L524 796L475
666Q515 634 537 579ZM280 610T240 547T182 394T164 222Q164 147 186 115L363 609Q357 610 344 610Q280 610 240 547ZM320 82T360 145T417 297T434 469Q434 541 415 573L237 83Q243 82 255 82Q320 82 360 145Z" />
<glyph unicode="&#xd9;" glyph-name="Ugrave" horiz-adv-x="531" d="M470 189Q462 133 431 87T349 13T230 -14Q136 -14 87 36T37 162Q37 180 40 196L110 691H235L165 184Q163 168 163 162Q163 126 181 106T238 85Q284 85 311 114T345 189L414 691H540L470 189ZM297
921L458 809L420 752L242 831L297 921Z" />
<glyph unicode="&#xda;" glyph-name="Uacute" horiz-adv-x="531" d="M470 189Q462 133 431 87T349 13T230 -14Q136 -14 87 36T37 162Q37 180 40 196L110 691H235L165 184Q163 168 163 162Q163 126 181 106T238 85Q284 85 311 114T345 189L414 691H540L470 189ZM418
923L463 831L262 751L232 810L418 923Z" />
<glyph unicode="&#xdb;" glyph-name="Ucircumflex" horiz-adv-x="531" d="M470 189Q462 133 431 87T349 13T230 -14Q136 -14 87 36T37 162Q37 180 40 196L110 691H235L165 184Q163 168 163 162Q163 126 181 106T238 85Q284 85 311 114T345 189L414 691H540L470
189ZM226 758L180 809L314 931H388L488 803L439 758L342 841L226 758Z" />
<glyph unicode="&#xdc;" glyph-name="Udieresis" horiz-adv-x="531" d="M470 189Q462 133 431 87T349 13T230 -14Q136 -14 87 36T37 162Q37 180 40 196L110 691H235L165 184Q163 168 163 162Q163 126 181 106T238 85Q284 85 311 114T345 189L414 691H540L470 189ZM217
775T202 791T186 832Q186 864 207 885T258 907Q285 907 300 891T316 850Q316 818 295 797T243 775Q217 775 202 791ZM404 775T388 791T372 832Q372 864 393 885T444 907Q471 907 486 891T502 850Q502 817 481 796T430 775Q404 775 388 791Z" />
<glyph unicode="&#xdd;" glyph-name="Yacute" horiz-adv-x="475" d="M539 691L300 262L263 0H137L173 262L55 691H187L251 363L404 691H539ZM389 923L434 831L233 751L203 810L389 923Z" />
<glyph unicode="&#xde;" glyph-name="Thorn" horiz-adv-x="483" d="M376 577T430 529T484 387Q484 314 455 254T366 157T217 121H165L148 0H23L120 691H245L229 577H274Q376 577 430 529ZM295 216T325 264T356 386Q356 438 334 460T262 482H216L178 216H219Q295
216 325 264Z" />
<glyph unicode="&#xdf;" glyph-name="germandbls" horiz-adv-x="489" d="M-85 -127Q-51 -111 -31 -94T4 -47T25 33L94 538Q108 641 164 697T310 754Q379 754 418 717T458 622Q458 578 442 550T397 492Q376 471 366 456T355 419Q355 400 364 386T394 348Q426 313
444 278T462 185Q462 134 442 89T381 15T278 -14Q222 -14 182 14L224 97Q247 82 271 82Q306 82 322 109T339 177Q339 211 328 234T294 288Q271 318 260 342T248 401Q248 436 260 459T296 510Q320 539 331 560T343 615Q343 664 299 664Q233 664 215 536L146 37Q136
-40 109 -87T43 -162T-57 -217L-85 -127Z" />
<glyph unicode="&#xe0;" glyph-name="agrave" horiz-adv-x="481" d="M380 543T460 499L408 136Q405 118 405 105Q405 92 410 84T427 69L389 -13Q309 -3 295 65Q266 26 236 6T164 -15Q99 -15 63 35T26 170Q26 263 54 348T143 488T297 543Q380 543 460 499ZM243
453T212 411T165 304T149 168Q149 120 162 99T201 78Q225 78 245 97T291 155L331 445Q312 453 290 453Q243 453 212 411ZM284 810L443 688L406 632L227 721L284 810Z" />
<glyph unicode="&#xe1;" glyph-name="aacute" horiz-adv-x="481" d="M380 543T460 499L408 136Q405 118 405 105Q405 92 410 84T427 69L389 -13Q309 -3 295 65Q266 26 236 6T164 -15Q99 -15 63 35T26 170Q26 263 54 348T143 488T297 543Q380 543 460 499ZM243
453T212 411T165 304T149 168Q149 120 162 99T201 78Q225 78 245 97T291 155L331 445Q312 453 290 453Q243 453 212 411ZM395 812L440 721L240 631L208 690L395 812Z" />
<glyph unicode="&#xe2;" glyph-name="acircumflex" horiz-adv-x="481" d="M380 543T460 499L408 136Q405 118 405 105Q405 92 410 84T427 69L389 -13Q309 -3 295 65Q266 26 236 6T164 -15Q99 -15 63 35T26 170Q26 263 54 348T143 488T297 543Q380 543 460 499ZM243
453T212 411T165 304T149 168Q149 120 162 99T201 78Q225 78 245 97T291 155L331 445Q312 453 290 453Q243 453 212 411ZM212 630L168 681L302 806H376L476 676L423 630L330 717L212 630Z" />
<glyph unicode="&#xe3;" glyph-name="atilde" horiz-adv-x="481" d="M380 543T460 499L408 136Q405 118 405 105Q405 92 410 84T427 69L389 -13Q309 -3 295 65Q266 26 236 6T164 -15Q99 -15 63 35T26 170Q26 263 54 348T143 488T297 543Q380 543 460 499ZM243
453T212 411T165 304T149 168Q149 120 162 99T201 78Q225 78 245 97T291 155L331 445Q312 453 290 453Q243 453 212 411ZM355 646T342 653T313 673Q301 683 293 687T276 692Q263 692 253 682T228 648L172 682Q195 727 223 754T282 782Q300 782 313 775T343 754Q355
744 362 740T378 735Q389 735 399 745T425 778L481 745Q459 698 431 672T371 646Q355 646 342 653Z" />
<glyph unicode="&#xe4;" glyph-name="adieresis" horiz-adv-x="481" d="M380 543T460 499L408 136Q405 118 405 105Q405 92 410 84T427 69L389 -13Q309 -3 295 65Q266 26 236 6T164 -15Q99 -15 63 35T26 170Q26 263 54 348T143 488T297 543Q380 543 460 499ZM243
453T212 411T165 304T149 168Q149 120 162 99T201 78Q225 78 245 97T291 155L331 445Q312 453 290 453Q243 453 212 411ZM199 649T184 665T168 706Q168 738 189 759T240 781Q267 781 282 765T298 724Q298 692 277 671T225 649Q199 649 184 665ZM386 649T370 665T354
706Q354 738 375 759T426 781Q453 781 468 765T484 724Q484 691 463 670T412 649Q386 649 370 665Z" />
<glyph unicode="&#xe5;" glyph-name="aring" horiz-adv-x="481" d="M380 543T460 499L408 136Q405 118 405 105Q405 92 410 84T427 69L389 -13Q309 -3 295 65Q266 26 236 6T164 -15Q99 -15 63 35T26 170Q26 263 54 348T143 488T297 543Q380 543 460 499ZM243 453T212
411T165 304T149 168Q149 120 162 99T201 78Q225 78 245 97T291 155L331 445Q312 453 290 453Q243 453 212 411ZM385 849T411 820T438 745Q438 690 404 653T314 616Q269 616 243 645T216 720Q216 775 251 812T340 849Q385 849 411 820ZM313 787T300 769T287 722Q287
701 295 690T320 678Q342 678 354 697T367 743Q367 787 335 787Q313 787 300 769Z" />
<glyph unicode="&#xe6;" glyph-name="ae" horiz-adv-x="697" d="M292 543T321 526T373 475Q438 543 534 543Q606 543 647 505T688 408Q688 306 608 259T396 195Q396 134 412 108T469 81Q497 81 523 92T581 127L626 53Q545 -15 451 -15Q398 -15 360 6T299 68Q264
23 226 5T145 -14Q81 -14 45 23T9 122Q9 204 61 259T238 314H290Q297 346 311 379Q304 413 281 431T225 449Q175 449 110 423L93 508Q176 543 246 543Q292 543 321 526ZM474 456T445 405T404 276Q488 286 528 318T569 405Q569 429 558 442T523 456Q474 456 445
405ZM239 239Q138 239 138 133Q138 75 182 75Q206 75 228 93T276 150Q275 160 275 183Q275 218 278 239H239Z" />
<glyph unicode="&#xe7;" glyph-name="ccedilla" horiz-adv-x="396" d="M218 447T187 367T155 186Q155 132 172 108T221 84Q243 84 262 92T309 119L353 43Q289 -8 221 -14L215 -56Q251 -60 269 -80T287 -135Q287 -180 255 -215T156 -250Q102 -250 70 -222L106 -166Q130
-179 154 -179Q174 -179 186 -169T199 -140Q199 -121 184 -114T130 -106L152 -9Q94 7 62 58T29 190Q29 281 58 361T144 492T283 543Q327 543 360 528T422 482L361 414Q341 431 324 439T285 447Q218 447 187 367Z" />
<glyph unicode="&#xe8;" glyph-name="egrave" horiz-adv-x="450" d="M360 543T400 505T441 408Q441 306 362 259T150 195V181Q150 128 168 105T222 81Q251 81 276 92T335 127L379 53Q298 -15 205 -15Q122 -15 75 36T28 183Q28 275 56 357T143 491T288 543Q360
543 400 505ZM242 286T282 318T322 405Q322 456 276 456Q228 456 199 405T158 276Q242 286 282 318ZM265 810L424 688L387 632L208 721L265 810Z" />
<glyph unicode="&#xe9;" glyph-name="eacute" horiz-adv-x="450" d="M360 543T400 505T441 408Q441 306 362 259T150 195V181Q150 128 168 105T222 81Q251 81 276 92T335 127L379 53Q298 -15 205 -15Q122 -15 75 36T28 183Q28 275 56 357T143 491T288 543Q360
543 400 505ZM242 286T282 318T322 405Q322 456 276 456Q228 456 199 405T158 276Q242 286 282 318ZM376 812L421 721L221 631L189 690L376 812Z" />
<glyph unicode="&#xea;" glyph-name="ecircumflex" horiz-adv-x="450" d="M360 543T400 505T441 408Q441 306 362 259T150 195V181Q150 128 168 105T222 81Q251 81 276 92T335 127L379 53Q298 -15 205 -15Q122 -15 75 36T28 183Q28 275 56 357T143 491T288 543Q360
543 400 505ZM242 286T282 318T322 405Q322 456 276 456Q228 456 199 405T158 276Q242 286 282 318ZM193 630L149 681L283 806H357L457 676L404 630L311 717L193 630Z" />
<glyph unicode="&#xeb;" glyph-name="edieresis" horiz-adv-x="450" d="M360 543T400 505T441 408Q441 306 362 259T150 195V181Q150 128 168 105T222 81Q251 81 276 92T335 127L379 53Q298 -15 205 -15Q122 -15 75 36T28 183Q28 275 56 357T143 491T288 543Q360
543 400 505ZM242 286T282 318T322 405Q322 456 276 456Q228 456 199 405T158 276Q242 286 282 318ZM180 649T165 665T149 706Q149 738 170 759T221 781Q248 781 263 765T279 724Q279 692 258 671T206 649Q180 649 165 665ZM367 649T351 665T335 706Q335 738 356
759T407 781Q434 781 449 765T465 724Q465 691 444 670T393 649Q367 649 351 665Z" />
<glyph unicode="&#xec;" glyph-name="igrave" horiz-adv-x="233" d="M214 529L140 0H19L93 529H214ZM136 810L295 688L258 632L79 721L136 810Z" />
<glyph unicode="&#xed;" glyph-name="iacute" horiz-adv-x="233" d="M214 529L140 0H19L93 529H214ZM247 812L292 721L92 631L60 690L247 812Z" />
<glyph unicode="&#xee;" glyph-name="icircumflex" horiz-adv-x="233" d="M214 529L140 0H19L93 529H214ZM64 630L20 681L154 806H228L328 676L275 630L182 717L64 630Z" />
<glyph unicode="&#xef;" glyph-name="idieresis" horiz-adv-x="233" d="M214 529L140 0H19L93 529H214ZM51 649T36 665T20 706Q20 738 41 759T92 781Q119 781 134 765T150 724Q150 692 129 671T77 649Q51 649 36 665ZM238 649T222 665T206 706Q206 738 227 759T278
781Q305 781 320 765T336 724Q336 691 315 670T264 649Q238 649 222 665Z" />
<glyph unicode="&#xf0;" glyph-name="eth" horiz-adv-x="490" d="M407 614T431 553T455 401Q455 291 426 197T340 44T199 -14Q119 -14 73 37T26 181Q26 252 52 320T125 432T233 476Q268 476 293 463T339 424Q338 484 325 520T281 593L222 534L155 572L221 641Q189
658 144 671L179 753Q238 738 289 709L365 786L419 731L353 663Q407 614 431 553ZM262 78T289 144T331 328Q307 387 257 387Q201 387 174 322T147 175Q147 78 208 78Q262 78 289 144Z" />
<glyph unicode="&#xf1;" glyph-name="ntilde" horiz-adv-x="473" d="M384 544T412 511T441 421Q441 404 438 386L383 0H262L314 372Q316 388 316 394Q316 437 286 437Q244 437 183 314L140 0H19L93 529H198L193 441Q225 490 259 517T337 544Q384 544 412 511ZM330
646T317 653T288 673Q276 683 268 687T251 692Q238 692 228 682T203 648L147 682Q170 727 198 754T257 782Q275 782 288 775T318 754Q330 744 337 740T353 735Q364 735 374 745T400 778L456 745Q434 698 406 672T346 646Q330 646 317 653Z" />
<glyph unicode="&#xf2;" glyph-name="ograve" horiz-adv-x="485" d="M120 -15T74 38T28 188Q28 276 55 357T140 490T283 543Q366 543 411 491T457 341Q457 254 430 173T346 38T203 -15Q120 -15 74 38ZM255 79T282 124T322 233T334 356Q334 450 275 450Q231 450
204 405T164 296T152 173Q152 79 211 79Q255 79 282 124ZM264 810L423 688L386 632L207 721L264 810Z" />
<glyph unicode="&#xf3;" glyph-name="oacute" horiz-adv-x="485" d="M120 -15T74 38T28 188Q28 276 55 357T140 490T283 543Q366 543 411 491T457 341Q457 254 430 173T346 38T203 -15Q120 -15 74 38ZM255 79T282 124T322 233T334 356Q334 450 275 450Q231 450
204 405T164 296T152 173Q152 79 211 79Q255 79 282 124ZM375 812L420 721L220 631L188 690L375 812Z" />
<glyph unicode="&#xf4;" glyph-name="ocircumflex" horiz-adv-x="485" d="M120 -15T74 38T28 188Q28 276 55 357T140 490T283 543Q366 543 411 491T457 341Q457 254 430 173T346 38T203 -15Q120 -15 74 38ZM255 79T282 124T322 233T334 356Q334 450 275 450Q231
450 204 405T164 296T152 173Q152 79 211 79Q255 79 282 124ZM192 630L148 681L282 806H356L456 676L403 630L310 717L192 630Z" />
<glyph unicode="&#xf5;" glyph-name="otilde" horiz-adv-x="485" d="M120 -15T74 38T28 188Q28 276 55 357T140 490T283 543Q366 543 411 491T457 341Q457 254 430 173T346 38T203 -15Q120 -15 74 38ZM255 79T282 124T322 233T334 356Q334 450 275 450Q231 450
204 405T164 296T152 173Q152 79 211 79Q255 79 282 124ZM335 646T322 653T293 673Q281 683 273 687T256 692Q243 692 233 682T208 648L152 682Q175 727 203 754T262 782Q280 782 293 775T323 754Q335 744 342 740T358 735Q369 735 379 745T405 778L461 745Q439
698 411 672T351 646Q335 646 322 653Z" />
<glyph unicode="&#xf6;" glyph-name="odieresis" horiz-adv-x="485" d="M120 -15T74 38T28 188Q28 276 55 357T140 490T283 543Q366 543 411 491T457 341Q457 254 430 173T346 38T203 -15Q120 -15 74 38ZM255 79T282 124T322 233T334 356Q334 450 275 450Q231
450 204 405T164 296T152 173Q152 79 211 79Q255 79 282 124ZM179 649T164 665T148 706Q148 738 169 759T220 781Q247 781 262 765T278 724Q278 692 257 671T205 649Q179 649 164 665ZM366 649T350 665T334 706Q334 738 355 759T406 781Q433 781 448 765T464 724Q464
691 443 670T392 649Q366 649 350 665Z" />
<glyph unicode="&#xf7;" glyph-name="divide" horiz-adv-x="429" d="M157 19T139 38T120 88Q120 124 144 149T203 175Q235 175 253 156T271 106Q271 70 248 45T188 19Q157 19 139 38ZM222 487T204 506T185 556Q185 592 209 617T268 643Q300 643 318 624T336 574Q336
538 313 513T253 487Q222 487 204 506ZM48 283L62 381H399L385 283H48Z" />
<glyph unicode="&#xf8;" glyph-name="oslash" horiz-adv-x="485" d="M424 481T440 439T457 341Q457 254 430 173T346 38T203 -15Q193 -15 177 -13L130 -132L45 -105L96 20Q63 46 46 89T28 188Q28 276 55 357T140 490T283 543Q294 543 310 541L357 661L443 633L392
507Q424 481 440 439ZM229 455T200 411T158 302T145 173Q145 127 155 106L158 110L283 448L285 455H275Q229 455 200 411ZM257 73T286 117T328 227T341 356Q341 397 332 419L330 416L205 81L203 73H211Q257 73 286 117Z" />
<glyph unicode="&#xf9;" glyph-name="ugrave" horiz-adv-x="468" d="M90 -15T62 17T33 105Q33 125 35 136L89 529H210L156 143Q155 137 155 127Q155 88 183 88Q227 88 279 181L329 529H449L375 0H271L276 81Q245 34 214 10T138 -15Q90 -15 62 17ZM252 810L411
688L374 632L195 721L252 810Z" />
<glyph unicode="&#xfa;" glyph-name="uacute" horiz-adv-x="468" d="M90 -15T62 17T33 105Q33 125 35 136L89 529H210L156 143Q155 137 155 127Q155 88 183 88Q227 88 279 181L329 529H449L375 0H271L276 81Q245 34 214 10T138 -15Q90 -15 62 17ZM363 812L408
721L208 631L176 690L363 812Z" />
<glyph unicode="&#xfb;" glyph-name="ucircumflex" horiz-adv-x="468" d="M90 -15T62 17T33 105Q33 125 35 136L89 529H210L156 143Q155 137 155 127Q155 88 183 88Q227 88 279 181L329 529H449L375 0H271L276 81Q245 34 214 10T138 -15Q90 -15 62 17ZM180 630L136
681L270 806H344L444 676L391 630L298 717L180 630Z" />
<glyph unicode="&#xfc;" glyph-name="udieresis" horiz-adv-x="468" d="M90 -15T62 17T33 105Q33 125 35 136L89 529H210L156 143Q155 137 155 127Q155 88 183 88Q227 88 279 181L329 529H449L375 0H271L276 81Q245 34 214 10T138 -15Q90 -15 62 17ZM167 649T152
665T136 706Q136 738 157 759T208 781Q235 781 250 765T266 724Q266 692 245 671T193 649Q167 649 152 665ZM354 649T338 665T322 706Q322 738 343 759T394 781Q421 781 436 765T452 724Q452 691 431 670T380 649Q354 649 338 665Z" />
<glyph unicode="&#xfd;" glyph-name="yacute" horiz-adv-x="424" d="M251 -3Q210 -110 148 -158T-17 -217L-19 -131Q47 -117 80 -91T141 0H96L39 529H164L186 85L333 529H460L251 -3ZM343 812L388 721L188 631L156 690L343 812Z" />
<glyph unicode="&#xfe;" glyph-name="thorn" horiz-adv-x="490" d="M393 543T428 497T463 364Q463 265 437 179T355 39T214 -15Q175 -15 139 0L111 -204L-12 -219L123 741L246 754L207 480Q232 510 264 526T331 543Q393 543 428 497ZM253 77T282 122T326 233T340
362Q340 409 327 429T288 450Q265 450 241 433T194 387L152 89Q182 77 208 77Q253 77 282 122Z" />
<glyph unicode="&#xff;" glyph-name="ydieresis" horiz-adv-x="424" d="M251 -3Q210 -110 148 -158T-17 -217L-19 -131Q47 -117 80 -91T141 0H96L39 529H164L186 85L333 529H460L251 -3ZM147 649T132 665T116 706Q116 738 137 759T188 781Q215 781 230 765T246
724Q246 692 225 671T173 649Q147 649 132 665ZM334 649T318 665T302 706Q302 738 323 759T374 781Q401 781 416 765T432 724Q432 691 411 670T360 649Q334 649 318 665Z" />
<glyph unicode="&#x2013;" glyph-name="endash" horiz-adv-x="433" d="M25 264L39 362H421L408 264H25Z" />
<glyph unicode="&#x2014;" glyph-name="emdash" horiz-adv-x="654" d="M25 264L39 362H643L629 264H25Z" />
<glyph unicode="&#x2018;" glyph-name="quoteleft" horiz-adv-x="211" d="M110 478T94 494T78 538Q78 556 85 573T112 629L182 759H245L188 604Q211 587 211 555Q211 523 191 501T137 478Q110 478 94 494Z" />
<glyph unicode="&#x2019;" glyph-name="quoteright" horiz-adv-x="211" d="M200 759T216 743T232 699Q232 681 225 664T198 608L128 478H65L122 633Q99 650 99 682Q99 714 119 736T173 759Q200 759 216 743Z" />
<glyph unicode="&#x201a;" glyph-name="quotesinglbase" horiz-adv-x="211" d="M111 123T127 107T143 63Q143 45 136 28T109 -28L39 -158H-24L33 -3Q10 14 10 46Q10 78 30 100T84 123Q111 123 127 107Z" />
<glyph unicode="&#x201c;" glyph-name="quotedblleft" horiz-adv-x="404" d="M110 478T94 494T78 538Q78 556 85 573T112 629L182 759H245L188 604Q211 587 211 555Q211 523 191 501T137 478Q110 478 94 494ZM303 478T287 494T271 538Q271 556 278 573T305 629L375
759H438L381 604Q404 587 404 555Q404 523 384 501T330 478Q303 478 287 494Z" />
<glyph unicode="&#x201d;" glyph-name="quotedblright" horiz-adv-x="404" d="M200 759T216 743T232 699Q232 681 225 664T198 608L128 478H65L122 633Q99 650 99 682Q99 714 119 736T173 759Q200 759 216 743ZM393 759T409 743T425 699Q425 681 418 664T391 608L321
478H258L315 633Q292 650 292 682Q292 714 312 736T366 759Q393 759 409 743Z" />
<glyph unicode="&#x201e;" glyph-name="quotedblbase" horiz-adv-x="404" d="M111 123T127 107T143 63Q143 45 136 28T109 -28L39 -158H-24L33 -3Q10 14 10 46Q10 78 30 100T84 123Q111 123 127 107ZM304 123T320 107T336 63Q336 45 329 28T302 -28L232 -158H169L226
-3Q203 14 203 46Q203 78 223 100T277 123Q304 123 320 107Z" />
<glyph unicode="&#x2022;" glyph-name="bullet" horiz-adv-x="310" d="M227 464T256 435T285 358Q285 299 247 259T153 219Q105 219 76 249T47 326Q47 385 85 424T179 464Q227 464 256 435Z" />
<glyph unicode="&#x2039;" glyph-name="guilsinglleft" horiz-adv-x="298" d="M226 544L295 494L158 284L236 77L154 27L33 245L46 326L226 544Z" />
<glyph unicode="&#x203a;" glyph-name="guilsinglright" horiz-adv-x="298" d="M150 544L271 326L259 245L78 27L10 77L147 288L68 494L150 544Z" />
</font>
</defs>
</svg>
