<?xml version="1.0" standalone="no"?>
<!DOCTYPE svg PUBLIC "-//W3C//DTD SVG 1.1//EN" "http://www.w3.org/Graphics/SVG/1.1/DTD/svg11.dtd">
<svg xmlns="http://www.w3.org/2000/svg">
<defs >
<font id="SairaSemiCondensed" horiz-adv-x="505" ><font-face
    font-family="Saira SemiCondensed"
    units-per-em="1000"
    panose-1="0 0 5 6 0 0 0 0 0 0"
    ascent="1135"
    descent="-439"
    alphabetic="0" />
<glyph unicode=" " glyph-name="space" horiz-adv-x="212" />
<glyph unicode="!" glyph-name="exclam" horiz-adv-x="228" d="M82 331Q71 538 71 586V688H161V586Q161 538 150 331L144 194H88L82 331ZM72 0V94H160V0H72Z" />
<glyph unicode="&quot;" glyph-name="quotedbl" horiz-adv-x="321" d="M68 444L57 612V688H131V612L120 444H68ZM200 444L189 612V688H264V612L253 444H200Z" />
<glyph unicode="#" glyph-name="numbersign" horiz-adv-x="675" d="M311 0L349 192H200L163 0H103L140 192H57V251H151L187 430H89V489H198L237 688H297L258 489H407L446 688H506L467 489H554V430H455L420 251H523V192H409L372 0H311ZM395 430H247L212 251H360L395 430Z" />
<glyph unicode="$" glyph-name="dollar" horiz-adv-x="479" d="M418 168T404 136T358 88T272 69V-8H212V68Q121 72 75 81V147Q150 137 212 136V314L170 320Q126 325 103 341T70 386T61 464Q61 545 97 578T212 618V696H272V619Q348 616 392 605V540Q351 547 272
551V380L315 375Q355 370 376 357T408 313T418 225Q418 168 404 136ZM212 387V550Q173 547 156 530T138 468Q138 434 142 419T158 398T194 389L212 387ZM312 142T326 160T340 222Q340 259 336 275T320 297T284 305L272 307V138Q312 142 326 160Z" />
<glyph unicode="%" glyph-name="percent" horiz-adv-x="741" d="M121 311T95 326T61 380T53 503Q53 588 61 626T95 680T180 696Q239 696 265 680T298 626T306 503Q306 417 299 380T265 327T180 311Q121 311 95 326ZM143 0L540 688H598L201 0H143ZM215 359T228
366T245 402T250 503Q250 578 246 605T229 639T180 647Q144 647 131 640T114 604T109 503Q109 430 113 402T131 367T180 359Q215 359 228 366ZM503 -8T477 7T443 61T435 184Q435 269 443 307T477 361T562 377Q621 377 647 361T680 307T688 184Q688 98 681 61T647
8T562 -8Q503 -8 477 7ZM598 40T611 47T628 82T632 184Q632 259 629 286T612 320T562 328Q526 328 513 321T496 286T492 184Q492 110 496 83T513 48T562 40Q598 40 611 47Z" />
<glyph unicode="&amp;" glyph-name="ampersand" horiz-adv-x="638" d="M609 382V314H508V10Q477 3 422 -2T316 -8Q210 -8 155 14T80 76T60 184Q60 263 86 298T170 349V353Q116 368 91 405T65 515Q65 575 86 614T162 674T316 696Q357 696 410 691T505 678V615Q466
621 419 625T340 629Q253 629 211 618T156 580T142 504Q142 466 150 441T184 399T264 382H342V314H264Q209 314 182 300T146 260T137 186Q137 132 156 105T212 68T319 58Q384 58 432 66V382H609Z" />
<glyph unicode="&apos;" glyph-name="quotesingle" horiz-adv-x="188" d="M68 444L57 612V688H131V612L120 444H68Z" />
<glyph unicode="(" glyph-name="parenleft" horiz-adv-x="279" d="M146 -76T121 -28T83 94T71 297Q71 426 83 499T120 622T201 743H261Q213 673 192 630T159 511T146 297Q146 160 158 83T192 -37T261 -150H201Q146 -76 121 -28Z" />
<glyph unicode=")" glyph-name="parenright" horiz-adv-x="279" d="M66 -80T87 -37T120 83T132 297Q132 434 120 510T87 630T18 743H78Q132 672 157 623T195 500T207 297Q207 167 195 94T158 -27T78 -150H18Q66 -80 87 -37Z" />
<glyph unicode="*" glyph-name="asterisk" horiz-adv-x="424" d="M231 479L239 339H185L192 479L74 402L48 450L173 513L47 577L74 625L192 547L185 688H239L231 547L350 625L376 577L251 513L377 450L350 402L231 479Z" />
<glyph unicode="+" glyph-name="plus" horiz-adv-x="512" d="M223 62V221H66V285H223V443H287V285H446V221H287V62H223Z" />
<glyph unicode="," glyph-name="comma" horiz-adv-x="208" d="M74 -82T84 -70T94 -17V0H59V94H148V13Q148 -44 140 -71T110 -109T40 -120V-82Q74 -82 84 -70Z" />
<glyph unicode="-" glyph-name="hyphen" horiz-adv-x="334" d="M58 250V321H276V250H58Z" />
<glyph unicode="." glyph-name="period" horiz-adv-x="208" d="M60 0V94H148V0H60Z" />
<glyph unicode="/" glyph-name="slash" horiz-adv-x="326" d="M6 -55L248 743H319L76 -55H6Z" />
<glyph unicode="0" glyph-name="zero" horiz-adv-x="581" d="M180 -8T135 18T78 112T66 344Q66 509 78 576T135 669T290 696Q401 696 446 670T503 576T515 344Q515 179 503 112T446 19T290 -8Q180 -8 135 18ZM366 63T392 77T427 144T435 344Q435 491 427 543T393
610T290 625Q214 625 188 611T153 544T145 344Q145 197 153 145T187 78T290 63Q366 63 392 77Z" />
<glyph unicode="1" glyph-name="one" horiz-adv-x="330" d="M155 0V593L34 533V608L178 688H236V0H155Z" />
<glyph unicode="2" glyph-name="two" horiz-adv-x="528" d="M138 71H468V0H59V80Q59 167 64 205T89 268T159 317L254 363L318 394Q361 414 374 438T388 512Q388 562 376 585T334 617T245 625Q170 625 71 613V680Q108 687 163 691T267 696Q334 696 375 685T442
635T468 521Q468 463 458 429T425 373T362 331L185 247Q155 232 147 211Q141 197 140 178T138 119V71Z" />
<glyph unicode="3" glyph-name="three" horiz-adv-x="517" d="M185 -8T135 -4T45 8V74Q153 63 216 63Q274 63 306 71T356 106T373 186Q373 257 347 285T258 313H146V384H258Q309 384 337 409T366 504Q366 557 351 583T303 617T208 625Q174 625 129 622T49 613V679Q85
686 135 691T226 696Q309 696 357 678T426 620T447 515Q447 442 421 404T343 353V349Q398 338 426 301T454 184Q454 118 436 77T367 14T225 -8Q185 -8 135 -4Z" />
<glyph unicode="4" glyph-name="four" horiz-adv-x="558" d="M351 0V161H39V224L264 688H350L126 232H352L368 480H431V232H518V161H431V0H351Z" />
<glyph unicode="5" glyph-name="five" horiz-adv-x="534" d="M177 63T239 63Q305 63 338 75T383 117T396 203Q396 264 383 291T335 328T227 338Q164 338 75 325V688H434V617H150V400Q208 409 278 409Q361 409 404 388T462 325T477 213Q477 129 458 82T391 14T249
-8Q209 -8 158 -4T69 8V74Q177 63 239 63Z" />
<glyph unicode="6" glyph-name="six" horiz-adv-x="569" d="M231 -8T190 0T123 34T83 108Q73 138 70 192T66 337Q66 426 70 481T86 572Q107 642 158 669T310 696Q345 696 394 692T485 679V612Q399 625 326 625Q243 625 207 606T158 533T146 361H152Q169 383 205
397T316 411Q394 411 435 398T497 343T517 218Q517 126 500 79T438 12T300 -8Q231 -8 190 0ZM357 63T386 71T426 108T438 199Q438 267 427 295T388 332T293 340Q228 340 198 330T158 296T149 226Q149 152 161 118T203 74T293 63Q357 63 386 71Z" />
<glyph unicode="7" glyph-name="seven" horiz-adv-x="488" d="M115 0L361 617H33V688H448V625L203 0H115Z" />
<glyph unicode="8" glyph-name="eight" horiz-adv-x="590" d="M200 -8T150 13T82 74T63 184Q63 241 75 274T110 323T172 349V353Q118 364 93 402T68 515Q68 580 88 619T158 677T295 696Q382 696 431 677T501 619T522 515Q522 441 497 403T417 353V349Q456 339
479 323T515 274T527 184Q527 115 509 75T440 13T295 -8Q200 -8 150 13ZM356 383T386 393T429 428T441 504Q441 555 430 580T388 616T295 626Q233 626 203 616T161 581T149 504Q149 454 161 429T203 393T295 383Q356 383 386 393ZM357 62T388 71T432 106T446 186Q446
243 434 269T391 304T295 313Q230 313 200 304T157 269T144 186Q144 133 157 107T202 71T295 62Q357 62 388 71Z" />
<glyph unicode="9" glyph-name="nine" horiz-adv-x="569" d="M223 -8T174 -3T84 9V76Q122 70 166 67T243 63Q326 63 362 82T411 155T423 327H417Q400 305 364 291T253 277Q175 277 134 290T72 345T52 470Q52 562 69 609T131 676T269 696Q338 696 379 688T446 656T486
587Q496 552 499 497T503 351Q503 257 498 199T479 102Q456 40 406 16T259 -8Q223 -8 174 -3ZM342 348T372 358T411 391T420 462Q420 536 408 570T366 614T276 625Q212 625 184 617T143 580T131 489Q131 421 142 393T181 356T276 348Q342 348 372 358Z" />
<glyph unicode=":" glyph-name="colon" horiz-adv-x="208" d="M60 416V510H148V416H60ZM60 0V94H148V0H60Z" />
<glyph unicode=";" glyph-name="semicolon" horiz-adv-x="208" d="M60 416V510H148V416H60ZM74 -82T84 -70T94 -17V0H59V94H148V13Q148 -44 140 -71T110 -109T40 -120V-82Q74 -82 84 -70Z" />
<glyph unicode="&lt;" glyph-name="less" horiz-adv-x="512" d="M447 55L66 215V290L447 451V383L134 253L447 122V55Z" />
<glyph unicode="=" glyph-name="equal" horiz-adv-x="512" d="M66 316V380H446V316H66ZM66 125V190H446V125H66Z" />
<glyph unicode="&gt;" glyph-name="greater" horiz-adv-x="512" d="M66 55V122L378 253L66 383V451L446 290V215L66 55Z" />
<glyph unicode="?" glyph-name="question" horiz-adv-x="437" d="M129 277Q129 314 136 334T156 364T197 387L224 398Q256 412 270 423T290 456T296 519Q296 565 285 587T248 617T170 625Q119 625 31 614V681Q68 688 114 692T197 696Q295 696 335 657T376 526Q376
455 361 416T299 356L273 347Q237 332 223 323T205 301T201 260V194H129V277ZM121 0V94H209V0H121Z" />
<glyph unicode="@" glyph-name="at" horiz-adv-x="813" d="M238 -108T172 -81T90 22T73 294Q73 491 89 566T172 668T406 696Q575 696 641 669T723 567T740 294Q740 189 730 144T697 87T625 75H505L501 135H496Q481 95 449 82T372 68Q304 68 275 96T245 196Q245
246 255 273T290 313T362 326Q410 326 498 322V350Q498 402 491 424T462 452T388 458Q363 458 325 456T270 450V506Q339 518 410 518Q478 518 511 503T555 453T567 351V117H635Q660 117 671 125T688 171T694 294Q694 444 687 508T654 604T563 646Q510 654 405 654Q312
654 259 647Q191 639 162 609T126 513T118 294Q118 133 127 68T170 -26T290 -62Q331 -65 406 -65Q536 -65 567 -62V-106Q531 -108 406 -108Q238 -108 172 -81ZM436 126T458 136T489 172T498 246V275H380Q350 275 337 270T318 250T312 200Q312 168 318 153T341 132T394
126Q436 126 458 136Z" />
<glyph unicode="A" glyph-name="A" horiz-adv-x="593" d="M486 0L425 188H165L105 0H24L244 688H349L569 0H486ZM298 600H293L185 259H404L298 600Z" />
<glyph unicode="B" glyph-name="B" horiz-adv-x="591" d="M86 688H353Q444 688 483 644T523 516Q523 446 498 406T415 354V350Q481 337 505 295T530 181Q530 97 491 49T349 0H86V688ZM387 384T415 412T443 500Q443 544 434 569T400 605T330 617H166V384H330Q387
384 415 412ZM400 70T424 97T449 191Q449 258 424 285T334 313H166V70H334Q400 70 424 97Z" />
<glyph unicode="C" glyph-name="C" horiz-adv-x="491" d="M418 -1T380 -4T306 -8Q198 -8 149 18T83 116T66 344Q66 499 83 570T149 669T306 696Q341 696 379 692T442 682V616Q384 625 325 625Q238 625 203 608T157 536T146 344Q146 207 157 152T203 80T325 63Q396
63 445 72V5Q418 -1 380 -4Z" />
<glyph unicode="D" glyph-name="D" horiz-adv-x="597" d="M86 688H278Q401 688 452 663T517 571T531 344Q531 184 517 118T452 26T278 0H86V688ZM269 71Q363 71 396 84T440 150T451 344Q451 485 441 537T396 603T269 617H166V71H269Z" />
<glyph unicode="E" glyph-name="E" horiz-adv-x="519" d="M86 0V688H472V617H166V383H432V312H166V71H472V0H86Z" />
<glyph unicode="F" glyph-name="F" horiz-adv-x="487" d="M86 0V688H454V617H166V368H423V297H166V0H86Z" />
<glyph unicode="G" glyph-name="G" horiz-adv-x="585" d="M302 300V369H511V11Q469 3 415 -2T319 -8Q209 -8 157 18T86 117T66 344Q66 496 86 569T158 669T321 696Q368 696 421 690T509 676V610Q473 616 429 620T357 625Q256 625 217 611T162 541T146 344Q146
214 157 158T204 81T320 61Q345 61 377 63T433 70V300H302Z" />
<glyph unicode="H" glyph-name="H" horiz-adv-x="634" d="M468 0V311H166V0H86V688H166V384H468V688H548V0H468Z" />
<glyph unicode="I" glyph-name="I" horiz-adv-x="254" d="M87 0V688H167V0H87Z" />
<glyph unicode="J" glyph-name="J" horiz-adv-x="305" d="M90 70T112 79T140 120T146 245V688H226V272Q226 131 216 81T168 16T25 0V68Q90 70 112 79Z" />
<glyph unicode="K" glyph-name="K" horiz-adv-x="580" d="M467 0L270 314H166V0H86V688H166V385H270L468 688H555L336 354L557 0H467Z" />
<glyph unicode="L" glyph-name="L" horiz-adv-x="461" d="M86 0V688H166V73H438V0H86Z" />
<glyph unicode="M" glyph-name="M" horiz-adv-x="795" d="M631 0V557H627L430 0H362L166 557H162V0H86V688H200L395 132H401L597 688H709V0H631Z" />
<glyph unicode="N" glyph-name="N" horiz-adv-x="634" d="M471 0L167 528H163V0H86V688H168L467 170H471V688H549V0H471Z" />
<glyph unicode="O" glyph-name="O" horiz-adv-x="621" d="M193 -8T143 18T80 113T66 344Q66 507 79 575T143 669T311 696Q429 696 478 670T541 575T555 344Q555 181 542 113T479 19T311 -8Q193 -8 143 18ZM395 63T425 77T465 145T475 344Q475 489 465 543T425
611T311 625Q227 625 197 611T156 543T146 344Q146 199 156 145T196 77T311 63Q395 63 425 77Z" />
<glyph unicode="P" glyph-name="P" horiz-adv-x="564" d="M86 688H340Q418 688 457 661T508 589T520 471Q520 400 508 355T457 282T339 254H166V0H86V688ZM318 324Q373 324 399 339T432 384T440 471Q440 529 433 558T400 602T319 617H166V324H318Z" />
<glyph unicode="Q" glyph-name="Q" horiz-adv-x="621" d="M573 -112V-115H485L412 -2Q370 -8 311 -8Q193 -8 143 18T80 113T66 344Q66 507 79 575T143 669T311 696Q429 696 478 670T541 575T555 344Q555 238 551 179T531 81T484 22L573 -112ZM353 63T369 64L270
218H353L440 87Q462 109 468 163T475 344Q475 489 465 543T425 611T311 625Q227 625 197 611T156 543T146 344Q146 199 156 145T196 77T311 63Q353 63 369 64Z" />
<glyph unicode="R" glyph-name="R" horiz-adv-x="591" d="M453 0L357 274H340H166V0H86V688H351Q428 688 466 662T516 593T528 481Q528 406 510 357T434 288L539 0H453ZM379 344T405 358T440 401T448 481Q448 534 441 561T409 602T330 617H166V344H324Q379 344 405 358Z" />
<glyph unicode="S" glyph-name="S" horiz-adv-x="540" d="M227 -8T171 -5T72 6V74Q178 63 255 63Q303 63 330 68T376 86Q394 98 399 122T404 189Q404 242 399 263T377 293T314 308L173 326Q122 333 97 355T63 412T55 504Q55 581 79 622T149 680T272 696Q324 696
373 692T455 680V614Q381 625 290 625Q239 625 209 619T163 600Q146 587 141 566T135 506Q135 462 140 442T160 414T209 401L347 383Q401 376 429 362T472 309Q485 277 485 197Q485 112 462 68T396 8T279 -8Q227 -8 171 -5Z" />
<glyph unicode="T" glyph-name="T" horiz-adv-x="501" d="M210 0V615H24V688H476V615H290V0H210Z" />
<glyph unicode="U" glyph-name="U" horiz-adv-x="616" d="M536 688V300Q536 166 522 105T461 18T308 -8Q203 -8 156 17T94 104T79 300V688H159V265Q159 172 167 133T206 79T308 63Q380 63 410 78T448 133T456 265V688H536Z" />
<glyph unicode="V" glyph-name="V" horiz-adv-x="569" d="M232 0L22 688H105L283 98H288L465 688H547L336 0H232Z" />
<glyph unicode="W" glyph-name="W" horiz-adv-x="851" d="M568 0L429 558H424L285 0H186L28 688H110L237 108H243L384 688H473L615 108H621L745 688H825L668 0H568Z" />
<glyph unicode="X" glyph-name="X" horiz-adv-x="584" d="M468 0L294 280H287L114 0H24L242 346L27 688H119L290 413H297L468 688H558L343 348L560 0H468Z" />
<glyph unicode="Y" glyph-name="Y" horiz-adv-x="526" d="M222 0V262L8 688H93L261 352H268L435 688H518L303 262V0H222Z" />
<glyph unicode="Z" glyph-name="Z" horiz-adv-x="519" d="M43 0V67L377 617H53V688H474V622L139 70H479V0H43Z" />
<glyph unicode="[" glyph-name="bracketleft" horiz-adv-x="297" d="M86 -150V743H261V687L158 683V-90L261 -94V-150H86Z" />
<glyph unicode="\" glyph-name="backslash" horiz-adv-x="326" d="M249 -55L6 743H77L319 -55H249Z" />
<glyph unicode="]" glyph-name="bracketright" horiz-adv-x="297" d="M36 -150V-94L139 -90V683L36 687V743H211V-150H36Z" />
<glyph unicode="^" glyph-name="asciicircum" horiz-adv-x="434" d="M321 459L217 694L113 459H47L180 749H254L386 459H321Z" />
<glyph unicode="_" glyph-name="underscore" horiz-adv-x="341" d="M0 -170V-106H341V-170H0Z" />
<glyph unicode="`" glyph-name="grave" horiz-adv-x="188" d="M117 602L13 738V743H95L174 607V602H117Z" />
<glyph unicode="a" glyph-name="a" horiz-adv-x="500" d="M116 -8T81 24T46 141Q46 199 58 231T101 278T187 293Q215 293 350 288V322Q350 384 340 410T304 444T214 452Q186 452 144 449T75 442V504Q145 518 238 518Q318 518 357 501T411 442T426 322V0H358L354
71H349Q331 23 291 8T196 -8Q116 -8 81 24ZM265 58T291 66T331 101Q350 140 350 206V235H207Q170 235 153 229T128 204T121 146Q121 108 129 90T158 65T223 58Q265 58 291 66Z" />
<glyph unicode="b" glyph-name="b" horiz-adv-x="523" d="M244 -8T207 8T152 71H147L143 0H75V743H151V447H156Q173 485 208 501T300 518Q368 518 403 495T452 417T466 255Q466 148 452 93T402 15T299 -8Q244 -8 207 8ZM326 61T349 73T381 125T390 255Q390 346
382 384T350 436T270 449Q227 449 202 436T166 395Q157 371 154 339T151 255Q151 206 154 174T165 118Q175 88 200 75T270 61Q326 61 349 73Z" />
<glyph unicode="c" glyph-name="c" horiz-adv-x="406" d="M341 0T307 -4T242 -8Q158 -8 119 18T68 98T56 255Q56 359 70 413T123 493T239 518Q270 518 304 514T361 505V442Q311 452 257 452Q201 452 176 437T142 382T133 255Q133 166 142 127T176 73T259 58Q313
58 365 68V5Q341 0 307 -4Z" />
<glyph unicode="d" glyph-name="d" horiz-adv-x="523" d="M156 -8T121 14T71 92T56 254Q56 361 70 416T119 495T222 518Q278 518 313 502T366 447H371V743H447V0H379L376 71H370Q353 25 316 9T224 -8Q156 -8 121 14ZM297 61T322 74T358 118Q366 143 368 174T371
262Q371 305 369 332T361 381Q351 417 325 433T251 449Q196 449 173 436T141 385T133 255Q133 164 141 125T173 74T253 61Q297 61 322 74Z" />
<glyph unicode="e" glyph-name="e" horiz-adv-x="496" d="M439 229H133Q133 151 141 117T179 70T277 57Q341 57 422 68V6Q395 0 350 -4T261 -8Q169 -8 126 15T70 92T56 254Q56 362 68 414T122 492T257 518Q343 518 381 494T429 418T439 255V229ZM198 453T174 441T141
396T133 286H366V296Q366 367 357 399T325 442T255 453Q198 453 174 441Z" />
<glyph unicode="f" glyph-name="f" horiz-adv-x="327" d="M112 444H23V510H112V592Q112 661 130 693T185 734T301 743V683Q252 683 229 678T197 656T188 606V510H301V444H188V0H112V444Z" />
<glyph unicode="g" glyph-name="g" horiz-adv-x="522" d="M149 -203T81 -194V-132Q159 -137 224 -137Q292 -137 322 -123T361 -71T371 48V66H366Q350 28 315 12T224 -5Q155 -5 120 17T70 94T56 255Q56 362 70 417T120 495T224 518Q277 518 315 501T370 438H375L379
510H447V69Q447 -40 433 -95T375 -177T239 -203Q149 -203 81 -194ZM297 63T322 77T358 122Q366 145 368 174T371 256Q371 304 369 333T360 383Q349 418 324 433T253 449Q197 449 173 437T141 386T133 256Q133 166 141 127T173 76T253 63Q297 63 322 77Z" />
<glyph unicode="h" glyph-name="h" horiz-adv-x="529" d="M378 294Q378 367 371 397T342 438T270 448Q215 448 190 428T158 370T151 265V0H75V743H151V445H156Q171 479 204 498T301 518Q366 518 398 498T442 438T454 323V0H378V294Z" />
<glyph unicode="i" glyph-name="i" horiz-adv-x="227" d="M73 656V743H154V656H73ZM75 0V510H151V0H75Z" />
<glyph unicode="j" glyph-name="j" horiz-adv-x="227" d="M73 656V743H154V656H73ZM-7 -136Q31 -136 48 -131T70 -115T75 -81V510H151V-59Q151 -123 137 -151T91 -188T-7 -197V-136Z" />
<glyph unicode="k" glyph-name="k" horiz-adv-x="475" d="M363 0L210 224H151V0H75V743H151V291H210L363 510H446L272 263L449 0H363Z" />
<glyph unicode="l" glyph-name="l" horiz-adv-x="227" d="M75 0V743H151V0H75Z" />
<glyph unicode="m" glyph-name="m" horiz-adv-x="788" d="M637 294Q637 367 631 397T605 438T541 448Q490 448 467 429T438 373T432 265V0H356V294Q356 367 350 397T324 438T260 448Q210 448 187 428T157 371T151 265V0H75V510H143L147 438H152Q166 476 198 497T291
518Q352 518 382 500T423 438H429Q443 476 476 497T571 518Q631 518 661 498T702 437T713 323V0H637V294Z" />
<glyph unicode="n" glyph-name="n" horiz-adv-x="529" d="M378 294Q378 367 371 397T342 438T270 448Q215 448 190 428T158 370T151 265V0H75V510H143L147 438H152Q167 477 201 497T301 518Q366 518 398 498T442 437T454 322V0H378V294Z" />
<glyph unicode="o" glyph-name="o" horiz-adv-x="510" d="M161 -8T120 13T68 86T56 255Q56 372 67 423T120 496T255 518Q349 518 390 497T442 424T454 255Q454 138 443 87T390 14T255 -8Q161 -8 120 13ZM317 58T341 71T372 121T378 255Q378 352 372 388T342 438T255
452Q193 452 169 439T139 389T133 255Q133 157 139 121T169 72T255 58Q317 58 341 71Z" />
<glyph unicode="p" glyph-name="p" horiz-adv-x="523" d="M75 510H143L147 438H152Q169 485 207 501T299 518Q367 518 402 496T451 418T466 256Q466 149 452 94T403 15T300 -8Q243 -8 208 8T157 64H151V-196H75V510ZM326 61T349 74T381 125T390 255Q390 346 382
384T350 436T270 449Q225 449 199 435T163 387Q155 364 153 334T151 255Q151 166 161 131Q172 93 198 77T270 61Q326 61 349 74Z" />
<glyph unicode="q" glyph-name="q" horiz-adv-x="523" d="M371 64H366Q349 25 314 9T222 -8Q154 -8 119 14T70 92T56 255Q56 362 70 417T120 495T224 518Q278 518 315 502T370 438H376L379 510H447V-196H371V64ZM299 61T324 76T361 127Q367 148 369 177T371 255Q371
307 369 337T357 393Q347 422 322 435T253 449Q197 449 173 436T141 385T133 255Q133 164 141 126T173 74T253 61Q299 61 324 76Z" />
<glyph unicode="r" glyph-name="r" horiz-adv-x="327" d="M75 510H143L147 413H153Q168 473 205 495T304 518V441Q244 441 211 420T164 355T151 239V0H75V510Z" />
<glyph unicode="s" glyph-name="s" horiz-adv-x="440" d="M186 -8T140 -4T61 5V68Q140 58 218 58Q262 58 283 66T311 91T318 140Q318 175 314 190T298 210T260 218L144 233Q87 240 67 269T47 369Q47 431 68 463T127 507T227 518Q261 518 301 514T368 504V441Q309
452 226 452Q187 452 166 447T134 425T122 373Q122 341 126 327T142 307T178 298L293 284Q332 280 352 268T383 227T393 142Q393 82 375 50T320 5T223 -8Q186 -8 140 -4Z" />
<glyph unicode="t" glyph-name="t" horiz-adv-x="317" d="M112 0V444H23V510H112V658H188V510H293V444H188V0H112Z" />
<glyph unicode="u" glyph-name="u" horiz-adv-x="529" d="M382 72H376Q361 33 327 13T228 -8Q163 -8 130 12T86 73T74 188V510H150V216Q150 144 158 113T187 72T259 62Q314 62 339 82T370 139T377 245V510H453V0H385L382 72Z" />
<glyph unicode="v" glyph-name="v" horiz-adv-x="470" d="M187 0L23 510H103L232 87H239L368 510H446L283 0H187Z" />
<glyph unicode="w" glyph-name="w" horiz-adv-x="720" d="M463 0L363 379H356L257 0H166L27 510H105L211 98H217L323 510H399L506 98H512L617 510H693L553 0H463Z" />
<glyph unicode="x" glyph-name="x" horiz-adv-x="481" d="M370 0L242 199H236L107 0H25L193 259L31 510H117L239 320H245L367 510H450L288 260L456 0H370Z" />
<glyph unicode="y" glyph-name="y" horiz-adv-x="529" d="M171 -203T95 -195V-132Q177 -137 231 -137Q298 -137 328 -121T368 -69T377 42V68H372Q359 34 326 15T227 -5Q161 -5 129 15T85 78T74 198V510H150V217Q150 145 158 114T187 73T259 63Q314 63 339 84T370
141T377 247V510H453V66Q453 -40 439 -95T381 -177T247 -203Q171 -203 95 -195Z" />
<glyph unicode="z" glyph-name="z" horiz-adv-x="444" d="M44 0V60L303 444H54V510H398V450L139 66H400V0H44Z" />
<glyph unicode="{" glyph-name="braceleft" horiz-adv-x="296" d="M196 -137T172 -110T132 -46T115 33V149Q115 201 95 237T24 274V318Q74 319 94 355T115 443V560Q115 601 131 638T172 703T218 743H277Q241 710 214 663T187 566V446Q187 322 99 300V293Q187 271
187 146V27Q187 -23 213 -70T277 -150H218Q196 -137 172 -110Z" />
<glyph unicode="|" glyph-name="bar" horiz-adv-x="252" d="M91 -161V743H161V-161H91Z" />
<glyph unicode="}" glyph-name="braceright" horiz-adv-x="296" d="M54 -116T81 -69T108 27V146Q108 271 196 293V300Q108 322 108 446V566Q108 615 82 661T18 743H77Q99 730 123 703T163 639T180 560V443Q180 390 200 355T270 318V274Q220 273 200 238T180 149V33Q180
-8 164 -45T123 -110T77 -150H18Q54 -116 81 -69Z" />
<glyph unicode="~" glyph-name="asciitilde" horiz-adv-x="471" d="M406 321T401 298T381 264T334 252Q309 252 284 258T224 276Q220 277 202 283T168 292T141 295Q121 295 116 284T110 241H64Q64 284 69 307T89 341T136 353Q160 353 182 348T247 329Q253 327
271 322T303 313T329 310Q349 310 354 321T360 364H406Q406 321 401 298Z" />
<glyph unicode="&#xa0;" glyph-name="uni00A0" horiz-adv-x="212" />
<glyph unicode="&#xa1;" glyph-name="exclamdown" horiz-adv-x="224" d="M67 416V510H156V416H67ZM67 -76Q67 -45 76 153Q78 189 80 242T83 316H140L146 183Q148 144 152 53T156 -76V-178H67V-76Z" />
<glyph unicode="&#xa2;" glyph-name="cent" horiz-adv-x="420" d="M373 81Q326 71 276 68V-8H215V68Q149 73 116 101T70 185T58 342Q58 444 72 501T121 586T215 618V696H276V618Q327 615 369 605V540Q325 548 276 550V136Q329 138 373 147V81ZM138 267T144 227T166
166T215 140V546Q182 540 166 521T144 461T138 343Q138 267 144 227Z" />
<glyph unicode="&#xa3;" glyph-name="sterling" horiz-adv-x="517" d="M472 71V0H47V71H112V321H47V391H113V405Q113 521 131 582T196 669T334 696Q367 696 403 692T462 682V615Q407 625 355 625Q311 625 284 621T238 604Q211 586 202 540T193 407V391H398V321H193V71H472Z"
/>
<glyph unicode="&#xa4;" glyph-name="currency" horiz-adv-x="641" d="M57 39L147 130Q131 158 126 207T120 345Q120 431 125 480T146 558L56 648L102 693L196 599Q234 618 319 618Q407 618 444 598L539 693L584 648L493 557Q508 528 513 480T518 345Q518 256
513 208T492 131L584 39L539 -6L443 90Q405 71 319 71Q234 71 197 90L102 -6L57 39ZM381 136T405 150T436 204T442 345Q442 447 436 485T406 537T319 552Q257 552 233 538T203 486T197 345Q197 242 203 204T233 151T319 136Q381 136 405 150Z" />
<glyph unicode="&#xa5;" glyph-name="yen" horiz-adv-x="556" d="M237 0V247H59V299H220L166 406H59V458H141L32 688H117L275 344H282L441 688H523L413 458H495V406H388L334 299H495V247H317V0H237Z" />
<glyph unicode="&#xa6;" glyph-name="brokenbar" horiz-adv-x="252" d="M91 390V743H161V390H91ZM91 -161V192H161V-161H91Z" />
<glyph unicode="&#xa7;" glyph-name="section" horiz-adv-x="605" d="M236 -171T192 -167T127 -158V-91Q149 -94 187 -97T262 -100Q316 -100 345 -94T388 -71T402 -17Q402 15 397 31T381 55T345 71L190 119Q136 135 109 150T67 195T53 277Q53 347 73 389T148 439Q134
456 129 480T124 540Q124 630 173 663T322 696Q368 696 412 692T477 683V616Q456 619 417 622T342 625Q288 625 260 619T217 596T203 542Q203 510 208 494T226 470T267 452L419 405Q471 388 497 373T538 329T552 248Q552 178 532 136T456 85Q470 67 475 44T480
-16Q480 -105 431 -138T282 -171Q236 -171 192 -167ZM444 131T460 156T476 232Q476 278 466 296T429 322L237 380Q200 392 187 392Q160 392 145 368T129 292Q129 245 139 227T182 199L370 142Q377 140 393 136T417 131Q444 131 460 156Z" />
<glyph unicode="&#xa8;" glyph-name="dieresis" horiz-adv-x="292" d="M19 651V730H92V651H19ZM201 651V730H273V651H201Z" />
<glyph unicode="&#xa9;" glyph-name="copyright" horiz-adv-x="655" d="M201 -8T152 16T90 106T77 344Q77 515 89 581T152 671T327 696Q453 696 502 672T565 581T578 344Q578 172 565 106T503 16T327 -8Q201 -8 152 16ZM437 30T477 47T527 122T538 344Q538 507
528 565T477 640T327 658Q218 658 178 641T128 565T117 344Q117 181 127 123T177 47T327 30Q437 30 477 47ZM290 154T263 168T227 221T218 343Q218 426 227 464T263 518T348 533Q398 533 422 525V482Q392 487 358 487Q314 487 297 478T275 442T269 343Q269 272
274 245T297 208T358 199Q396 199 424 204V160Q397 154 348 154Q290 154 263 168Z" />
<glyph unicode="&#xaa;" glyph-name="ordfeminine" horiz-adv-x="369" d="M88 313T63 337T38 423Q38 465 47 488T77 522T140 533L214 531L255 530V552Q255 595 249 613T223 637T158 643Q118 643 58 635V685Q107 696 178 696Q237 696 266 683T305 640T315 552V318H260L256
361H251Q235 333 208 323T146 313Q88 313 63 337ZM198 364T217 371T245 399Q255 420 255 467V488H156Q131 488 119 484T101 466T96 427Q96 389 109 377T166 364Q198 364 217 371Z" />
<glyph unicode="&#xab;" glyph-name="guillemotleft" horiz-adv-x="423" d="M155 103L41 306L155 510H210L113 306L210 103H155ZM306 103L192 306L306 510H362L265 306L362 103H306Z" />
<glyph unicode="&#xac;" glyph-name="logicalnot" horiz-adv-x="511" d="M381 62V221H66V286H445V62H381Z" />
<glyph unicode="&#xad;" glyph-name="uni00AD" horiz-adv-x="334" d="M58 250V321H276V250H58Z" />
<glyph unicode="&#xae;" glyph-name="registered" horiz-adv-x="655" d="M453 696T502 672T565 581T578 344Q578 172 565 106T503 16T327 -8Q201 -8 152 16T90 106T77 344Q77 515 89 581T152 671T327 696Q453 696 502 672ZM437 30T476 47T527 122T538 344Q538
506 527 564T477 640T327 658Q218 658 178 641T128 565T117 344Q117 181 127 123T177 47T327 30Q437 30 476 47ZM452 376T442 349T403 311L459 158H404L353 302H341H262V158H212V528H353Q396 528 418 514T446 476T452 416Q452 376 442 349ZM365 347T379 354T396
375T400 416Q400 442 396 455T380 475T341 482H262V347H336Q365 347 379 354Z" />
<glyph unicode="&#xaf;" glyph-name="overscore" horiz-adv-x="335" d="M58 672V742H276V672H58Z" />
<glyph unicode="&#xb0;" glyph-name="degree" horiz-adv-x="353" d="M120 397T95 410T63 452T56 546Q56 610 63 639T95 682T177 696Q234 696 258 683T290 640T297 546Q297 481 291 452T259 410T177 397Q120 397 95 410ZM209 442T222 450T239 477T242 546Q242 595
239 614T223 642T177 650Q144 650 131 642T114 615T111 546Q111 496 114 477T130 450T177 442Q209 442 222 450Z" />
<glyph unicode="&#xb1;" glyph-name="plusminus" horiz-adv-x="512" d="M223 189V347H66V412H223V570H287V412H446V347H287V189H223ZM66 14V79H446V14H66Z" />
<glyph unicode="&#xb2;" glyph-name="uni00B2" horiz-adv-x="328" d="M104 370H279V317H49V367Q49 410 51 430T63 463T94 487Q121 502 186 533Q208 543 215 555T222 592Q222 624 208 634T153 644Q120 644 54 636V686Q112 696 166 696Q204 696 227 690T264 663T279
597Q279 552 266 529T221 491L165 463L130 447Q114 439 109 429T104 394V370Z" />
<glyph unicode="&#xb3;" glyph-name="uni00B3" horiz-adv-x="323" d="M97 309T42 319V367Q116 360 140 360Q180 360 197 371T215 419Q215 453 203 466T162 480H96V529H162Q185 529 198 541T211 586Q211 622 195 633T135 644Q98 644 44 636V686Q104 696 145 696Q214
696 241 673T269 593Q269 560 257 540T222 508V504Q273 485 273 417Q273 361 246 335T145 309Q97 309 42 319Z" />
<glyph unicode="&#xb4;" glyph-name="acute" horiz-adv-x="188" d="M13 602V607L92 743H174V738L71 602H13Z" />
<glyph unicode="&#xb5;" glyph-name="uni00B5" horiz-adv-x="530" d="M454 510V0H387L383 72H377Q362 33 328 13T229 -8Q182 -8 151 9V-189H75V510H151V216Q151 144 159 113T188 72T260 62Q315 62 340 82T371 139T378 245V510H454Z" />
<glyph unicode="&#xb6;" glyph-name="paragraph" horiz-adv-x="515" d="M255 222Q155 222 115 238T64 298T52 454Q52 565 63 610T115 671T255 688H317V-144H255V222ZM375 -144V688H436V-144H375Z" />
<glyph unicode="&#xb7;" glyph-name="middot" horiz-adv-x="208" d="M60 252V346H148V252H60Z" />
<glyph unicode="&#xb8;" glyph-name="cedilla" horiz-adv-x="151" d="M18 -190V-185L81 8H133V3L93 -190H18Z" />
<glyph unicode="&#xb9;" glyph-name="uni00B9" horiz-adv-x="226" d="M104 317V619L39 589V642L120 688H160V317H104Z" />
<glyph unicode="&#xba;" glyph-name="ordmasculine" horiz-adv-x="381" d="M122 313T92 329T54 382T45 503Q45 587 53 625T92 679T191 696Q259 696 289 680T327 625T336 503Q336 420 328 383T289 329T191 313Q122 313 92 329ZM234 365T250 374T271 409T275 503Q275
572 271 597T251 633T191 643Q148 643 131 633T110 598T106 503Q106 435 110 410T131 375T191 365Q234 365 250 374Z" />
<glyph unicode="&#xbb;" glyph-name="guillemotright" horiz-adv-x="423" d="M61 103L159 306L61 510H117L231 306L117 103H61ZM213 103L310 306L213 510H269L382 306L269 103H213Z" />
<glyph unicode="&#xbc;" glyph-name="onequarter" horiz-adv-x="633" d="M104 317V619L39 589V642L120 688H161V317H104ZM67 0L462 688H521L126 0H67ZM483 0V80H315V122L433 372H494L377 131H483L496 263H540V131H585V80H540V0H483Z" />
<glyph unicode="&#xbd;" glyph-name="onehalf" horiz-adv-x="698" d="M104 317V619L39 589V642L120 688H161V317H104ZM462 688H521L126 0H67L462 688ZM461 53H637V0H406V49Q406 92 408 112T420 146T452 170Q491 191 544 215Q566 226 573 237T580 274Q580 307 566
317T511 327Q494 327 412 319V369Q470 379 524 379Q561 379 584 373T622 345T637 279Q637 234 624 212T578 173L488 129Q471 121 466 110T461 76V53Z" />
<glyph unicode="&#xbe;" glyph-name="threequarters" horiz-adv-x="711" d="M123 360T147 360Q187 360 204 371T222 419Q222 453 210 466T169 480H102V529H169Q192 529 205 541T218 586Q218 622 202 633T142 644Q105 644 51 636V686Q111 696 152 696Q221 696 248
673T276 593Q276 560 264 540T229 508V504Q280 485 280 417Q280 361 253 335T151 309Q102 309 49 319V367Q123 360 147 360ZM147 0L542 688H601L206 0H147ZM560 0V80H393V122L511 372H572L455 131H561L574 263H618V131H663V80H618V0H560Z" />
<glyph unicode="&#xbf;" glyph-name="questiondown" horiz-adv-x="386" d="M222 416V510H311V416H222ZM137 -186T96 -148T55 -16Q55 55 71 95T133 154L175 171Q202 182 213 190T227 210T230 250V316H303V233Q303 196 296 176T276 146T235 123L211 113Q178 100
163 88T142 55T136 -9Q136 -55 147 -77T183 -107T261 -115Q314 -115 400 -104V-171Q361 -177 315 -181T234 -186Q137 -186 96 -148Z" />
<glyph unicode="&#xc0;" glyph-name="Agrave" horiz-adv-x="593" d="M486 0L425 188H165L105 0H24L244 688H349L569 0H486ZM298 600H293L185 259H404L298 600ZM283 750L179 886V891H261L340 755V750H283Z" />
<glyph unicode="&#xc1;" glyph-name="Aacute" horiz-adv-x="593" d="M486 0L425 188H165L105 0H24L244 688H349L569 0H486ZM298 600H293L185 259H404L298 600ZM251 750V755L330 891H412V886L309 750H251Z" />
<glyph unicode="&#xc2;" glyph-name="Acircumflex" horiz-adv-x="593" d="M486 0L425 188H165L105 0H24L244 688H349L569 0H486ZM298 600H293L185 259H404L298 600ZM164 750V756L254 889H337L427 756V750H374L295 846L217 750H164Z" />
<glyph unicode="&#xc3;" glyph-name="Atilde" horiz-adv-x="593" d="M486 0L425 188H165L105 0H24L244 688H349L569 0H486ZM298 600H293L185 259H404L298 600ZM457 830T453 808T434 774T390 762Q367 762 345 767T286 785Q235 804 208 804Q190 804 185 794T180
751H134Q134 794 138 816T157 850T202 862Q225 862 249 856T306 838Q360 820 384 820Q402 820 406 830T411 873H457Q457 830 453 808Z" />
<glyph unicode="&#xc4;" glyph-name="Adieresis" horiz-adv-x="593" d="M486 0L425 188H165L105 0H24L244 688H349L569 0H486ZM298 600H293L185 259H404L298 600ZM169 775V854H242V775H169ZM351 775V854H423V775H351Z" />
<glyph unicode="&#xc5;" glyph-name="Aring" horiz-adv-x="593" d="M569 0H486L425 188H165L105 0H24L239 676Q212 681 200 692T184 722T180 772Q180 813 186 833T217 863T296 873Q350 873 374 863T405 833T412 772Q412 740 409 722T393 693T353 677L569 0ZM265
831T252 826T236 810T232 772Q232 746 235 735T252 719T296 714Q327 714 340 719T357 735T360 772Q360 798 357 809T341 826T296 831Q265 831 252 826ZM185 259H404L298 600H293L185 259Z" />
<glyph unicode="&#xc6;" glyph-name="AE" horiz-adv-x="821" d="M456 0L414 188H154L75 0H-6L282 688H774V617H402L455 383H734V312H469L524 70H774V0H456ZM327 600H322L181 259H400L327 600Z" />
<glyph unicode="&#xc7;" glyph-name="Ccedilla" horiz-adv-x="491" d="M396 63T445 72V5Q418 -1 380 -4T306 -8Q281 -8 270 -7L232 -190H157V-185L217 -3Q152 7 120 41T77 144T66 344Q66 499 83 570T149 669T306 696Q341 696 379 692T442 682V616Q384 625 325
625Q238 625 203 608T157 536T146 344Q146 207 157 152T203 80T325 63Q396 63 445 72Z" />
<glyph unicode="&#xc8;" glyph-name="Egrave" horiz-adv-x="519" d="M86 0V688H472V617H166V383H432V312H166V71H472V0H86ZM266 750L162 886V891H244L323 755V750H266Z" />
<glyph unicode="&#xc9;" glyph-name="Eacute" horiz-adv-x="519" d="M86 0V688H472V617H166V383H432V312H166V71H472V0H86ZM248 750V755L327 891H409V886L306 750H248Z" />
<glyph unicode="&#xca;" glyph-name="Ecircumflex" horiz-adv-x="519" d="M86 0V688H472V617H166V383H432V312H166V71H472V0H86ZM147 750V756L237 889H320L410 756V750H357L278 846L200 750H147Z" />
<glyph unicode="&#xcb;" glyph-name="Edieresis" horiz-adv-x="519" d="M86 0V688H472V617H166V383H432V312H166V71H472V0H86ZM155 775V854H228V775H155ZM337 775V854H409V775H337Z" />
<glyph unicode="&#xcc;" glyph-name="Igrave" horiz-adv-x="254" d="M87 0V688H167V0H87ZM114 750L10 886V891H92L171 755V750H114Z" />
<glyph unicode="&#xcd;" glyph-name="Iacute" horiz-adv-x="254" d="M87 0V688H167V0H87ZM86 750V755L165 891H247V886L144 750H86Z" />
<glyph unicode="&#xce;" glyph-name="Icircumflex" horiz-adv-x="254" d="M87 0V688H167V0H87ZM-5 750V756L85 889H168L258 756V750H205L126 846L48 750H-5Z" />
<glyph unicode="&#xcf;" glyph-name="Idieresis" horiz-adv-x="254" d="M87 0V688H167V0H87ZM256 774V853H329V774H256ZM438 774V853H510V774H438Z" />
<glyph unicode="&#xd0;" glyph-name="Eth" horiz-adv-x="597" d="M86 315H23V382H86V688H278Q401 688 452 663T517 571T531 344Q531 184 517 118T452 26T278 0H86V315ZM363 71T396 84T440 150T451 344Q451 485 441 537T396 603T269 617H166V382H271V315H166V71H269Q363
71 396 84Z" />
<glyph unicode="&#xd1;" glyph-name="Ntilde" horiz-adv-x="634" d="M471 0L167 528H163V0H86V688H168L467 170H471V688H549V0H471ZM479 830T475 808T456 774T412 762Q389 762 367 767T308 785Q257 804 230 804Q212 804 207 794T202 751H156Q156 794 160 816T179
850T224 862Q247 862 271 856T328 838Q382 820 406 820Q424 820 428 830T433 873H479Q479 830 475 808Z" />
<glyph unicode="&#xd2;" glyph-name="Ograve" horiz-adv-x="621" d="M193 -8T143 18T80 113T66 344Q66 507 79 575T143 669T311 696Q429 696 478 670T541 575T555 344Q555 181 542 113T479 19T311 -8Q193 -8 143 18ZM395 63T425 77T465 145T475 344Q475 489 465
543T425 611T311 625Q227 625 197 611T156 543T146 344Q146 199 156 145T196 77T311 63Q395 63 425 77ZM287 750L183 886V891H265L344 755V750H287Z" />
<glyph unicode="&#xd3;" glyph-name="Oacute" horiz-adv-x="621" d="M193 -8T143 18T80 113T66 344Q66 507 79 575T143 669T311 696Q429 696 478 670T541 575T555 344Q555 181 542 113T479 19T311 -8Q193 -8 143 18ZM395 63T425 77T465 145T475 344Q475 489 465
543T425 611T311 625Q227 625 197 611T156 543T146 344Q146 199 156 145T196 77T311 63Q395 63 425 77ZM271 750V755L350 891H432V886L329 750H271Z" />
<glyph unicode="&#xd4;" glyph-name="Ocircumflex" horiz-adv-x="621" d="M193 -8T143 18T80 113T66 344Q66 507 79 575T143 669T311 696Q429 696 478 670T541 575T555 344Q555 181 542 113T479 19T311 -8Q193 -8 143 18ZM395 63T425 77T465 145T475 344Q475 489
465 543T425 611T311 625Q227 625 197 611T156 543T146 344Q146 199 156 145T196 77T311 63Q395 63 425 77ZM179 750V756L269 889H352L442 756V750H389L310 846L232 750H179Z" />
<glyph unicode="&#xd5;" glyph-name="Otilde" horiz-adv-x="621" d="M193 -8T143 18T80 113T66 344Q66 507 79 575T143 669T311 696Q429 696 478 670T541 575T555 344Q555 181 542 113T479 19T311 -8Q193 -8 143 18ZM395 63T425 77T465 145T475 344Q475 489 465
543T425 611T311 625Q227 625 197 611T156 543T146 344Q146 199 156 145T196 77T311 63Q395 63 425 77ZM472 830T468 808T449 774T405 762Q382 762 360 767T301 785Q250 804 223 804Q205 804 200 794T195 751H149Q149 794 153 816T172 850T217 862Q240 862 264
856T321 838Q375 820 399 820Q417 820 421 830T426 873H472Q472 830 468 808Z" />
<glyph unicode="&#xd6;" glyph-name="Odieresis" horiz-adv-x="621" d="M193 -8T143 18T80 113T66 344Q66 507 79 575T143 669T311 696Q429 696 478 670T541 575T555 344Q555 181 542 113T479 19T311 -8Q193 -8 143 18ZM395 63T425 77T465 145T475 344Q475 489
465 543T425 611T311 625Q227 625 197 611T156 543T146 344Q146 199 156 145T196 77T311 63Q395 63 425 77ZM183 775V854H256V775H183ZM365 775V854H437V775H365Z" />
<glyph unicode="&#xd7;" glyph-name="multiply" horiz-adv-x="458" d="M229 207L110 88L65 133L184 252L64 371L110 417L229 298L348 417L393 372L274 252L393 133L348 88L229 207Z" />
<glyph unicode="&#xd8;" glyph-name="Oslash" horiz-adv-x="620" d="M537 616T546 551T555 344Q555 181 542 113T479 19T311 -8Q215 -8 168 8L135 -55H66L116 40Q84 73 75 138T66 344Q66 507 79 575T143 669T311 696Q405 696 451 681L484 743H554L505 649Q537
616 546 551ZM146 253T149 204T160 125L417 615Q400 621 376 623T311 625Q227 625 197 611T156 543T146 344Q146 253 149 204ZM395 63T425 77T465 145T475 344Q475 437 472 486T460 565L202 74Q219 67 244 65T311 63Q395 63 425 77Z" />
<glyph unicode="&#xd9;" glyph-name="Ugrave" horiz-adv-x="616" d="M536 688V300Q536 166 522 105T461 18T308 -8Q203 -8 156 17T94 104T79 300V688H159V265Q159 172 167 133T206 79T308 63Q380 63 410 78T448 133T456 265V688H536ZM297 750L193 886V891H275L354
755V750H297Z" />
<glyph unicode="&#xda;" glyph-name="Uacute" horiz-adv-x="616" d="M536 688V300Q536 166 522 105T461 18T308 -8Q203 -8 156 17T94 104T79 300V688H159V265Q159 172 167 133T206 79T308 63Q380 63 410 78T448 133T456 265V688H536ZM273 750V755L352 891H434V886L331
750H273Z" />
<glyph unicode="&#xdb;" glyph-name="Ucircumflex" horiz-adv-x="616" d="M536 688V300Q536 166 522 105T461 18T308 -8Q203 -8 156 17T94 104T79 300V688H159V265Q159 172 167 133T206 79T308 63Q380 63 410 78T448 133T456 265V688H536ZM177 750V756L267 889H350L440
756V750H387L308 846L230 750H177Z" />
<glyph unicode="&#xdc;" glyph-name="Udieresis" horiz-adv-x="616" d="M536 688V300Q536 166 522 105T461 18T308 -8Q203 -8 156 17T94 104T79 300V688H159V265Q159 172 167 133T206 79T308 63Q380 63 410 78T448 133T456 265V688H536ZM180 775V854H253V775H180ZM362
775V854H434V775H362Z" />
<glyph unicode="&#xdd;" glyph-name="Yacute" horiz-adv-x="526" d="M222 0V262L8 688H93L261 352H268L435 688H518L303 262V0H222ZM234 750V755L313 891H395V886L292 750H234Z" />
<glyph unicode="&#xde;" glyph-name="Thorn" horiz-adv-x="564" d="M86 688H166V568H340Q418 568 457 541T508 469T520 350Q520 280 508 235T457 161T340 133H166V0H86V688ZM318 204Q373 204 399 219T432 263T440 350Q440 408 433 437T401 482T319 497H166V204H318Z" />
<glyph unicode="&#xdf;" glyph-name="germandbls" horiz-adv-x="538" d="M233 0V65H278Q339 65 363 75T396 119T405 239Q405 307 395 341T359 388T284 401H257V467H284Q348 467 372 490T397 573Q397 618 386 641T349 674T274 684Q228 684 202 673T164 630T151
539V0H75V545Q75 619 94 663T158 729T278 750Q353 750 395 732T455 676T473 579Q473 515 448 483T369 440V436Q427 425 454 381T481 242Q481 147 467 97T414 24T294 0H233Z" />
<glyph unicode="&#xe0;" glyph-name="agrave" horiz-adv-x="500" d="M116 -8T81 24T46 141Q46 199 58 231T101 278T187 293Q215 293 350 288V322Q350 384 340 410T304 444T214 452Q186 452 144 449T75 442V504Q145 518 238 518Q318 518 357 501T411 442T426 322V0H358L354
71H349Q331 23 291 8T196 -8Q116 -8 81 24ZM265 58T291 66T331 101Q350 140 350 206V235H207Q170 235 153 229T128 204T121 146Q121 108 129 90T158 65T223 58Q265 58 291 66ZM236 602L132 738V743H214L293 607V602H236Z" />
<glyph unicode="&#xe1;" glyph-name="aacute" horiz-adv-x="500" d="M116 -8T81 24T46 141Q46 199 58 231T101 278T187 293Q215 293 350 288V322Q350 384 340 410T304 444T214 452Q186 452 144 449T75 442V504Q145 518 238 518Q318 518 357 501T411 442T426 322V0H358L354
71H349Q331 23 291 8T196 -8Q116 -8 81 24ZM265 58T291 66T331 101Q350 140 350 206V235H207Q170 235 153 229T128 204T121 146Q121 108 129 90T158 65T223 58Q265 58 291 66ZM209 602V607L288 743H370V738L267 602H209Z" />
<glyph unicode="&#xe2;" glyph-name="acircumflex" horiz-adv-x="500" d="M116 -8T81 24T46 141Q46 199 58 231T101 278T187 293Q215 293 350 288V322Q350 384 340 410T304 444T214 452Q186 452 144 449T75 442V504Q145 518 238 518Q318 518 357 501T411 442T426
322V0H358L354 71H349Q331 23 291 8T196 -8Q116 -8 81 24ZM265 58T291 66T331 101Q350 140 350 206V235H207Q170 235 153 229T128 204T121 146Q121 108 129 90T158 65T223 58Q265 58 291 66ZM120 604V610L210 743H293L383 610V604H330L251 700L173 604H120Z" />
<glyph unicode="&#xe3;" glyph-name="atilde" horiz-adv-x="500" d="M116 -8T81 24T46 141Q46 199 58 231T101 278T187 293Q215 293 350 288V322Q350 384 340 410T304 444T214 452Q186 452 144 449T75 442V504Q145 518 238 518Q318 518 357 501T411 442T426 322V0H358L354
71H349Q331 23 291 8T196 -8Q116 -8 81 24ZM265 58T291 66T331 101Q350 140 350 206V235H207Q170 235 153 229T128 204T121 146Q121 108 129 90T158 65T223 58Q265 58 291 66ZM411 700T407 678T388 644T344 632Q321 632 299 637T240 655Q189 674 162 674Q144 674
139 664T134 621H88Q88 664 92 686T111 720T156 732Q179 732 203 726T260 708Q314 690 338 690Q356 690 360 700T365 743H411Q411 700 407 678Z" />
<glyph unicode="&#xe4;" glyph-name="adieresis" horiz-adv-x="500" d="M116 -8T81 24T46 141Q46 199 58 231T101 278T187 293Q215 293 350 288V322Q350 384 340 410T304 444T214 452Q186 452 144 449T75 442V504Q145 518 238 518Q318 518 357 501T411 442T426
322V0H358L354 71H349Q331 23 291 8T196 -8Q116 -8 81 24ZM265 58T291 66T331 101Q350 140 350 206V235H207Q170 235 153 229T128 204T121 146Q121 108 129 90T158 65T223 58Q265 58 291 66ZM124 905V984H197V905H124ZM306 905V984H378V905H306Z" />
<glyph unicode="&#xe5;" glyph-name="aring" horiz-adv-x="500" d="M116 -8T81 24T46 141Q46 199 58 231T101 278T187 293Q215 293 350 288V322Q350 384 340 410T304 444T214 452Q186 452 144 449T75 442V504Q145 518 238 518Q318 518 357 501T411 442T426 322V0H358L354
71H349Q331 23 291 8T196 -8Q116 -8 81 24ZM265 58T291 66T331 101Q350 140 350 206V235H207Q170 235 153 229T128 204T121 146Q121 108 129 90T158 65T223 58Q265 58 291 66ZM195 854T171 863T141 893T134 954Q134 996 140 1016T171 1046T249 1056Q303 1056 328
1046T359 1016T366 954Q366 913 360 893T328 864T249 854Q195 854 171 863ZM281 896T294 901T311 917T314 954Q314 981 311 992T295 1008T249 1013Q218 1013 205 1008T189 992T185 954Q185 928 188 917T205 901T249 896Q281 896 294 901Z" />
<glyph unicode="&#xe6;" glyph-name="ae" horiz-adv-x="790" d="M733 232H426Q426 153 434 119T472 71T570 57Q634 57 716 68V6Q687 0 642 -4T555 -8Q478 -8 439 9T380 68Q355 22 311 7T207 -8Q121 -8 84 24T46 140Q46 198 58 230T101 277T187 291L277 290Q305
289 349 289V322Q349 384 339 410T303 444T213 452Q184 452 141 449T75 441V504Q152 518 238 518Q302 518 337 506T391 463Q412 492 449 505T550 518Q636 518 674 494T723 418T733 257V232ZM491 453T467 441T434 397T426 288H659V296Q659 367 650 399T618 442T548
453Q491 453 467 441ZM349 232H206Q169 232 152 226T127 203T120 146Q120 108 128 90T157 64T222 57Q266 57 294 67T334 107Q349 144 349 205V232Z" />
<glyph unicode="&#xe7;" glyph-name="ccedilla" horiz-adv-x="406" d="M313 58T365 68V5Q341 0 307 -4T242 -8H228L190 -190H115V-185L175 -3Q123 7 98 37T64 117T56 255Q56 359 70 413T123 493T239 518Q270 518 304 514T361 505V442Q311 452 257 452Q201 452
176 437T142 382T133 255Q133 166 142 127T176 73T259 58Q313 58 365 68Z" />
<glyph unicode="&#xe8;" glyph-name="egrave" horiz-adv-x="496" d="M439 229H133Q133 151 141 117T179 70T277 57Q341 57 422 68V6Q395 0 350 -4T261 -8Q169 -8 126 15T70 92T56 254Q56 362 68 414T122 492T257 518Q343 518 381 494T429 418T439 255V229ZM198
453T174 441T141 396T133 286H366V296Q366 367 357 399T325 442T255 453Q198 453 174 441ZM235 602L131 738V743H213L292 607V602H235Z" />
<glyph unicode="&#xe9;" glyph-name="eacute" horiz-adv-x="496" d="M439 229H133Q133 151 141 117T179 70T277 57Q341 57 422 68V6Q395 0 350 -4T261 -8Q169 -8 126 15T70 92T56 254Q56 362 68 414T122 492T257 518Q343 518 381 494T429 418T439 255V229ZM198
453T174 441T141 396T133 286H366V296Q366 367 357 399T325 442T255 453Q198 453 174 441ZM216 602V607L295 743H377V738L274 602H216Z" />
<glyph unicode="&#xea;" glyph-name="ecircumflex" horiz-adv-x="496" d="M439 229H133Q133 151 141 117T179 70T277 57Q341 57 422 68V6Q395 0 350 -4T261 -8Q169 -8 126 15T70 92T56 254Q56 362 68 414T122 492T257 518Q343 518 381 494T429 418T439 255V229ZM198
453T174 441T141 396T133 286H366V296Q366 367 357 399T325 442T255 453Q198 453 174 441ZM119 604V610L209 743H292L382 610V604H329L250 700L172 604H119Z" />
<glyph unicode="&#xeb;" glyph-name="edieresis" horiz-adv-x="496" d="M439 229H133Q133 151 141 117T179 70T277 57Q341 57 422 68V6Q395 0 350 -4T261 -8Q169 -8 126 15T70 92T56 254Q56 362 68 414T122 492T257 518Q343 518 381 494T429 418T439 255V229ZM198
453T174 441T141 396T133 286H366V296Q366 367 357 399T325 442T255 453Q198 453 174 441ZM125 905V984H198V905H125ZM307 905V984H379V905H307Z" />
<glyph unicode="&#xec;" glyph-name="igrave" horiz-adv-x="227" d="M75 0V510H151V0H75ZM351 602L247 738V743H329L408 607V602H351Z" />
<glyph unicode="&#xed;" glyph-name="iacute" horiz-adv-x="227" d="M75 0V510H151V0H75ZM75 602V607L154 743H236V738L133 602H75Z" />
<glyph unicode="&#xee;" glyph-name="icircumflex" horiz-adv-x="227" d="M75 0V510H151V0H75ZM238 604V610L328 743H411L501 610V604H448L369 700L291 604H238Z" />
<glyph unicode="&#xef;" glyph-name="idieresis" horiz-adv-x="227" d="M75 0V510H151V0H75ZM243 905V984H316V905H243ZM425 905V984H497V905H425Z" />
<glyph unicode="&#xf0;" glyph-name="eth" horiz-adv-x="513" d="M161 -8T120 14T68 87T56 254Q56 364 67 416T115 493T237 517Q311 517 349 491L353 493Q331 567 297 624L189 607V659L266 672Q238 706 205 739V743H288Q329 699 341 684L436 699V647L372 636Q395
596 413 544T441 436Q454 362 454 271Q454 145 444 92T392 15T255 -8Q161 -8 120 14ZM318 57T342 71T372 121T378 254Q378 341 372 378T341 433T255 452Q192 452 168 439T139 389T133 254Q133 157 138 121T168 71T255 57Q318 57 342 71Z" />
<glyph unicode="&#xf1;" glyph-name="ntilde" horiz-adv-x="529" d="M378 294Q378 367 371 397T342 438T270 448Q215 448 190 428T158 370T151 265V0H75V510H143L147 438H152Q167 477 201 497T301 518Q366 518 398 498T442 437T454 322V0H378V294ZM428 700T424
678T405 644T361 632Q338 632 316 637T257 655Q206 674 179 674Q161 674 156 664T151 621H105Q105 664 109 686T128 720T173 732Q196 732 220 726T277 708Q331 690 355 690Q373 690 377 700T382 743H428Q428 700 424 678Z" />
<glyph unicode="&#xf2;" glyph-name="ograve" horiz-adv-x="510" d="M161 -8T120 13T68 86T56 255Q56 372 67 423T120 496T255 518Q349 518 390 497T442 424T454 255Q454 138 443 87T390 14T255 -8Q161 -8 120 13ZM317 58T341 71T372 121T378 255Q378 352 372
388T342 438T255 452Q193 452 169 439T139 389T133 255Q133 157 139 121T169 72T255 58Q317 58 341 71ZM239 602L135 738V743H217L296 607V602H239Z" />
<glyph unicode="&#xf3;" glyph-name="oacute" horiz-adv-x="510" d="M161 -8T120 13T68 86T56 255Q56 372 67 423T120 496T255 518Q349 518 390 497T442 424T454 255Q454 138 443 87T390 14T255 -8Q161 -8 120 13ZM317 58T341 71T372 121T378 255Q378 352 372
388T342 438T255 452Q193 452 169 439T139 389T133 255Q133 157 139 121T169 72T255 58Q317 58 341 71ZM217 602V607L296 743H378V738L275 602H217Z" />
<glyph unicode="&#xf4;" glyph-name="ocircumflex" horiz-adv-x="510" d="M161 -8T120 13T68 86T56 255Q56 372 67 423T120 496T255 518Q349 518 390 497T442 424T454 255Q454 138 443 87T390 14T255 -8Q161 -8 120 13ZM317 58T341 71T372 121T378 255Q378 352
372 388T342 438T255 452Q193 452 169 439T139 389T133 255Q133 157 139 121T169 72T255 58Q317 58 341 71ZM124 604V610L214 743H297L387 610V604H334L255 700L177 604H124Z" />
<glyph unicode="&#xf5;" glyph-name="otilde" horiz-adv-x="510" d="M161 -8T120 13T68 86T56 255Q56 372 67 423T120 496T255 518Q349 518 390 497T442 424T454 255Q454 138 443 87T390 14T255 -8Q161 -8 120 13ZM317 58T341 71T372 121T378 255Q378 352 372
388T342 438T255 452Q193 452 169 439T139 389T133 255Q133 157 139 121T169 72T255 58Q317 58 341 71ZM417 700T413 678T394 644T350 632Q327 632 305 637T246 655Q195 674 168 674Q150 674 145 664T140 621H94Q94 664 98 686T117 720T162 732Q185 732 209 726T266
708Q320 690 344 690Q362 690 366 700T371 743H417Q417 700 413 678Z" />
<glyph unicode="&#xf6;" glyph-name="odieresis" horiz-adv-x="510" d="M161 -8T120 13T68 86T56 255Q56 372 67 423T120 496T255 518Q349 518 390 497T442 424T454 255Q454 138 443 87T390 14T255 -8Q161 -8 120 13ZM317 58T341 71T372 121T378 255Q378 352 372
388T342 438T255 452Q193 452 169 439T139 389T133 255Q133 157 139 121T169 72T255 58Q317 58 341 71ZM129 905V984H202V905H129ZM311 905V984H383V905H311Z" />
<glyph unicode="&#xf7;" glyph-name="divide" horiz-adv-x="512" d="M221 394V468H291V394H221ZM66 221V285H446V221H66ZM221 37V111H291V37H221Z" />
<glyph unicode="&#xf8;" glyph-name="oslash" horiz-adv-x="510" d="M438 457T446 408T454 255Q454 138 443 87T390 14T255 -8Q192 -8 153 1L123 -55H57L101 27Q72 52 64 102T56 255Q56 372 67 423T120 496T255 518Q318 518 357 509L387 565H454L410 483Q438 457
446 408ZM133 188T134 157T143 106L324 446Q304 452 255 452Q193 452 169 439T139 389T133 255Q133 188 134 157ZM317 58T341 71T372 121T378 255Q378 322 377 353T368 404L186 64Q206 58 255 58Q317 58 341 71Z" />
<glyph unicode="&#xf9;" glyph-name="ugrave" horiz-adv-x="529" d="M382 72H376Q361 33 327 13T228 -8Q163 -8 130 12T86 73T74 188V510H150V216Q150 144 158 113T187 72T259 62Q314 62 339 82T370 139T377 245V510H453V0H385L382 72ZM246 602L142 738V743H224L303
607V602H246Z" />
<glyph unicode="&#xfa;" glyph-name="uacute" horiz-adv-x="529" d="M382 72H376Q361 33 327 13T228 -8Q163 -8 130 12T86 73T74 188V510H150V216Q150 144 158 113T187 72T259 62Q314 62 339 82T370 139T377 245V510H453V0H385L382 72ZM232 602V607L311 743H393V738L290
602H232Z" />
<glyph unicode="&#xfb;" glyph-name="ucircumflex" horiz-adv-x="529" d="M382 72H376Q361 33 327 13T228 -8Q163 -8 130 12T86 73T74 188V510H150V216Q150 144 158 113T187 72T259 62Q314 62 339 82T370 139T377 245V510H453V0H385L382 72ZM132 604V610L222 743H305L395
610V604H342L263 700L185 604H132Z" />
<glyph unicode="&#xfc;" glyph-name="udieresis" horiz-adv-x="529" d="M382 72H376Q361 33 327 13T228 -8Q163 -8 130 12T86 73T74 188V510H150V216Q150 144 158 113T187 72T259 62Q314 62 339 82T370 139T377 245V510H453V0H385L382 72ZM136 905V984H209V905H136ZM318
905V984H390V905H318Z" />
<glyph unicode="&#xfd;" glyph-name="yacute" horiz-adv-x="529" d="M171 -203T95 -195V-132Q177 -137 231 -137Q298 -137 328 -121T368 -69T377 42V68H372Q359 34 326 15T227 -5Q161 -5 129 15T85 78T74 198V510H150V217Q150 145 158 114T187 73T259 63Q314 63
339 84T370 141T377 247V510H453V66Q453 -40 439 -95T381 -177T247 -203Q171 -203 95 -195ZM232 602V607L311 743H393V738L290 602H232Z" />
<glyph unicode="&#xfe;" glyph-name="thorn" horiz-adv-x="523" d="M75 743H151V444H156Q172 485 208 501T299 518Q367 518 402 496T451 418T466 256Q466 149 452 94T403 15T300 -8Q244 -8 209 8T156 64H151V-190H75V743ZM326 61T349 74T381 125T390 255Q390 346
382 384T350 436T270 449Q224 449 199 434T163 383Q155 362 153 333T151 255Q151 169 160 137Q171 95 196 78T270 61Q326 61 349 74Z" />
<glyph unicode="&#xff;" glyph-name="ydieresis" horiz-adv-x="529" d="M171 -203T95 -195V-132Q177 -137 231 -137Q298 -137 328 -121T368 -69T377 42V68H372Q359 34 326 15T227 -5Q161 -5 129 15T85 78T74 198V510H150V217Q150 145 158 114T187 73T259 63Q314
63 339 84T370 141T377 247V510H453V66Q453 -40 439 -95T381 -177T247 -203Q171 -203 95 -195ZM137 905V984H210V905H137ZM319 905V984H391V905H319Z" />
<glyph unicode="&#x2013;" glyph-name="endash" horiz-adv-x="452" d="M56 271V336H397V271H56Z" />
<glyph unicode="&#x2014;" glyph-name="emdash" horiz-adv-x="848" d="M56 271V336H793V271H56Z" />
<glyph unicode="&#x2018;" glyph-name="quoteleft" horiz-adv-x="199" d="M55 559Q55 613 62 639T92 677T160 688V652Q127 652 117 640T107 588V571H141V480H55V559Z" />
<glyph unicode="&#x2019;" glyph-name="quoteright" horiz-adv-x="199" d="M72 516T82 528T92 580V597H57V688H143V609Q143 554 136 528T106 491T38 480V516Q72 516 82 528Z" />
<glyph unicode="&#x201a;" glyph-name="quotesinglbase" horiz-adv-x="205" d="M74 -81T84 -69T94 -17V0H59V91H145V12Q145 -43 138 -69T108 -106T40 -117V-81Q74 -81 84 -69Z" />
<glyph unicode="&#x201c;" glyph-name="quotedblleft" horiz-adv-x="350" d="M55 559Q55 613 62 639T92 677T160 688V652Q127 652 117 640T107 588V571H141V480H55V559ZM206 559Q206 613 213 639T243 677T311 688V652Q277 652 267 640T257 588V571H292V480H206V559Z" />
<glyph unicode="&#x201d;" glyph-name="quotedblright" horiz-adv-x="350" d="M72 516T82 528T92 580V597H57V688H143V609Q143 554 136 528T106 491T38 480V516Q72 516 82 528ZM223 516T233 528T243 580V597H208V688H294V609Q294 555 287 529T257 491T189 480V516Q223
516 233 528Z" />
<glyph unicode="&#x201e;" glyph-name="quotedblbase" horiz-adv-x="356" d="M74 -81T84 -69T94 -17V0H59V91H145V12Q145 -43 138 -69T108 -106T40 -117V-81Q74 -81 84 -69ZM225 -81T235 -69T245 -17V0H210V91H296V12Q296 -42 289 -68T259 -106T191 -117V-81Q225
-81 235 -69Z" />
<glyph unicode="&#x2022;" glyph-name="bullet" horiz-adv-x="332" d="M267 294T262 275T236 249T165 242Q116 242 97 249T72 275T66 342Q66 391 71 410T96 437T165 445Q215 445 235 438T261 411T267 342Q267 294 262 275Z" />
<glyph unicode="&#x2039;" glyph-name="guilsinglleft" horiz-adv-x="272" d="M154 103L40 306L154 510H210L113 306L210 103H154Z" />
<glyph unicode="&#x203a;" glyph-name="guilsinglright" horiz-adv-x="272" d="M61 103L159 306L61 510H117L231 306L117 103H61Z" />
</font>
</defs>
</svg>
