<?xml version="1.0" standalone="no"?>
<!DOCTYPE svg PUBLIC "-//W3C//DTD SVG 1.1//EN" "http://www.w3.org/Graphics/SVG/1.1/DTD/svg11.dtd">
<svg xmlns="http://www.w3.org/2000/svg">
<defs >
<font id="Yrsa" horiz-adv-x="1344" ><font-face
    font-family="Yrsa"
    units-per-em="2750"
    panose-1="2 13 0 0 0 4 0 0 0 0"
    ascent="2300"
    descent="-1050"
    alphabetic="0" />
<glyph unicode=" " glyph-name="space" horiz-adv-x="593" />
<glyph unicode="!" glyph-name="exclam" horiz-adv-x="658" d="M207 1547V1712H450V1547L393 462H265L207 1547ZM468 113Q468 54 430 17T329 -21Q267 -21 229 16T190 113Q190 173 228 209T329 246Q391 246 429 210T468 113Z" />
<glyph unicode="&quot;" glyph-name="quotedbl" horiz-adv-x="1044" d="M721 934L679 1695H897L854 934H721ZM190 934L148 1695H366L323 934H190Z" />
<glyph unicode="#" glyph-name="numbersign" horiz-adv-x="1448" d="M523 484H866L909 906H563L523 484ZM303 0L340 361H120L119 484H355L396 906H153L154 1030H409L441 1373H610L578 1030H924L956 1373H1125L1092 1030H1333L1332 906H1078L1040 484H1288L1289
361H1026L992 0H824L856 361H509L474 0H303Z" />
<glyph unicode="$" glyph-name="dollar" horiz-adv-x="1165" d="M629 -210H483V21Q367 31 271 63T119 129Q116 212 120 299T138 468H272L305 278Q308 262 315 248T337 220Q369 187 435 158T592 129Q715 129 782 188T850 337Q850 435 766 491T531 616Q460 648 390
684T266 766T177 872T143 1012Q143 1148 247 1246T551 1359V1585H697V1358Q777 1351 854 1333T990 1290Q997 1204 993 1124T976 968L845 966L810 1134Q807 1148 799 1163T772 1194Q744 1217 694 1234T574 1251Q458 1251 402 1199T346 1072Q346 1023 368 986T433
918T537 858T675 793Q760 753 832 713T957 627T1038 525T1068 398Q1068 332 1041 268T960 151T823 64T629 19V-210Z" />
<glyph unicode="%" glyph-name="percent" horiz-adv-x="1935" d="M848 1158Q848 1050 815 967T727 828T602 744T458 715Q371 715 301 745T183 829T108 958T82 1122Q82 1230 115 1313T203 1452T328 1536T472 1565Q559 1565 629 1535T747 1451T822 1322T848 1158ZM580
0H406L1356 1562H1529L580 0ZM269 1154Q269 1007 324 918T475 828Q563 828 610 908T657 1126Q657 1270 603 1361T451 1452Q364 1452 317 1372T269 1154ZM1853 440Q1853 332 1820 249T1732 109T1607 25T1463 -4Q1376 -4 1306 26T1188 110T1113 239T1087 403Q1087
511 1120 594T1208 733T1333 817T1477 846Q1564 846 1634 816T1752 732T1827 603T1853 440ZM1274 435Q1274 288 1329 199T1480 109Q1568 109 1615 189T1662 407Q1662 551 1608 642T1456 734Q1369 734 1322 654T1274 435Z" />
<glyph unicode="&amp;" glyph-name="ampersand" horiz-adv-x="1605" d="M449 1241Q449 1178 480 1096T608 880Q706 954 770 1047T835 1260Q835 1306 825 1348T794 1423T738 1474T656 1494Q606 1494 567 1473T502 1417T463 1336T449 1241ZM638 89Q716 89 793 112T936
181Q878 236 815 303T693 440T579 575T484 694Q419 641 368 571T317 391Q317 259 400 174T638 89ZM1294 -15Q1228 -15 1163 12T1017 108Q928 36 816 5T593 -27Q494 -27 406 -4T253 67T149 189T111 365Q111 453 139 519T211 635T311 718T423 775Q339 893 292 996T244
1201Q244 1279 272 1349T353 1470T482 1552T656 1583Q822 1583 925 1495T1028 1250Q1028 1099 930 990T662 808Q755 689 873 557T1095 320Q1149 394 1168 485T1188 659Q1188 677 1182 696T1144 722L987 754V858H1499V754L1397 722Q1369 714 1362 700T1350 659Q1334
545 1295 441T1167 249Q1209 209 1243 185T1312 148T1390 131T1496 127V25Q1453 10 1400 -2T1294 -15Z" />
<glyph unicode="&apos;" glyph-name="quotesingle" horiz-adv-x="513" d="M190 934L148 1695H366L323 934H190Z" />
<glyph unicode="(" glyph-name="parenleft" horiz-adv-x="713" d="M668 -376L587 -456Q556 -427 478 -336T318 -90T175 290T112 805Q112 1065 171 1278T309 1647T467 1902T587 2039L668 1959Q628 1906 570 1810T458 1576T365 1252T323 839Q319 579 360 373T459
15T576 -234T668 -376Z" />
<glyph unicode=")" glyph-name="parenright" horiz-adv-x="713" d="M601 778Q601 518 542 305T404 -64T246 -319T126 -456L46 -376Q86 -323 144 -227T255 7T348 331T391 744Q394 1004 353 1210T254 1567T138 1816T46 1959L126 2039Q158 2010 236 1919T395 1673T538
1293T601 778Z" />
<glyph unicode="*" glyph-name="asterisk" horiz-adv-x="1206" d="M675 1089L702 830H504L531 1088L573 1261L446 1138L235 985L136 1157L373 1263L543 1312L373 1362L136 1468L235 1640L446 1487L573 1364L531 1537L504 1795H702L675 1536L633 1364L761 1487L972
1640L1071 1468L832 1362L663 1313L832 1263L1071 1157L972 985L761 1138L633 1261L675 1089Z" />
<glyph unicode="+" glyph-name="plus" horiz-adv-x="1138" d="M649 151H489V376L495 545L327 539H112V689H327L495 683L489 852V1078H649V852L643 683L811 689H1026V539H811L643 545L649 376V151Z" />
<glyph unicode="," glyph-name="comma" horiz-adv-x="609" d="M462 69Q462 -78 375 -203T160 -403L112 -339Q193 -270 236 -193T280 -49Q280 -12 265 1T228 28Q200 44 175 76T149 159Q149 218 188 259T290 300Q358 300 410 243T462 69Z" />
<glyph unicode="-" glyph-name="hyphen" horiz-adv-x="1074" d="M161 521V672H913V521H161Z" />
<glyph unicode="." glyph-name="period" horiz-adv-x="581" d="M438 123Q438 60 397 20T290 -21Q224 -21 184 19T143 123Q143 187 183 227T290 267Q356 267 397 227T438 123Z" />
<glyph unicode="/" glyph-name="slash" horiz-adv-x="967" d="M260 -288H75L710 1742H895L260 -288Z" />
<glyph unicode="0" glyph-name="zero" horiz-adv-x="1319" d="M646 -21Q500 -21 402 35T245 187T162 409T137 676Q137 855 175 991T282 1218T452 1354T675 1400Q821 1400 919 1344T1075 1192T1157 969T1182 702Q1182 520 1144 384T1037 158T868 24T646 -21ZM649
1282Q497 1282 438 1138T378 725Q378 586 391 470T438 272T527 143T670 97Q821 97 881 241T942 654Q942 794 929 910T882 1108T792 1236T649 1282Z" />
<glyph unicode="1" glyph-name="one" horiz-adv-x="941" d="M634 1380V194Q634 167 648 153T689 134L895 101V0H131V101L360 135Q387 139 405 153T423 194V1164Q402 1156 367 1146T291 1126T210 1109T137 1098L114 1207Q221 1231 331 1286T515 1403L634 1380Z" />
<glyph unicode="2" glyph-name="two" horiz-adv-x="1199" d="M1035 0H140L91 130Q284 305 415 430T625 649T737 818T771 967Q771 1091 696 1155T516 1220Q424 1220 352 1170T223 1029L143 1089Q161 1147 198 1203T293 1302T425 1373T593 1400Q681 1400 757 1374T890
1297T978 1174T1010 1009Q1010 903 965 806T831 609T609 399T302 157H572Q653 157 714 161T811 172Q852 180 867 193T891 230L958 402L1073 387Q1073 298 1063 196T1035 0Z" />
<glyph unicode="3" glyph-name="three" horiz-adv-x="1158" d="M1037 395Q1037 304 997 227T887 94T723 7T522 -25Q387 -25 273 21T92 132L149 215Q217 173 300 146T478 119Q540 119 597 133T697 179T766 262T795 387Q798 509 726 581T537 668Q501 658 461 649T384
636L355 746Q437 764 507 791T627 857T706 946T735 1060Q735 1138 677 1192T519 1247Q429 1247 354 1203T222 1100L154 1167Q210 1270 324 1335T585 1400Q662 1400 731 1379T851 1319T932 1222T962 1094Q962 1026 936 968T869 863T775 784T670 734Q730 735 795
716T913 655T1002 548T1037 395Z" />
<glyph unicode="4" glyph-name="four" horiz-adv-x="1214" d="M1141 264H920V0H710V264H109L43 384Q190 624 332 877T603 1393H807L836 1337Q635 978 497 752T225 385L714 403L735 734L920 746V411L1141 419V264Z" />
<glyph unicode="5" glyph-name="five" horiz-adv-x="1172" d="M159 237Q220 188 301 154T480 119Q624 119 717 203T810 438Q810 571 734 655T516 739Q461 739 399 723T275 673L193 732L234 1375H982L961 1204H379L343 807Q406 852 475 868T612 885Q815 885 933
771T1051 463Q1051 354 1013 264T906 110T740 11T527 -25Q384 -25 273 26T98 150L159 237Z" />
<glyph unicode="6" glyph-name="six" horiz-adv-x="1258" d="M1142 462Q1142 358 1106 268T1005 114T848 12T643 -25Q526 -25 431 16T270 138T167 336T130 607Q130 779 175 925T303 1177T506 1341T775 1400Q862 1400 937 1380T1071 1323L1035 1219Q978 1244 926
1254T828 1265Q731 1265 653 1228T517 1125T423 965T374 760Q433 825 528 856T721 888Q818 888 896 856T1028 768T1112 634T1142 462ZM658 94Q721 94 770 119T851 189T900 293T917 424Q917 570 844 657T646 745Q580 745 501 723T367 657Q367 652 367 647T367 636V566Q367
463 385 376T439 227T530 129T658 94Z" />
<glyph unicode="7" glyph-name="seven" horiz-adv-x="1126" d="M913 1217H608Q526 1217 464 1212T362 1199Q332 1193 315 1182T288 1142L221 926L103 923Q99 1042 107 1159T134 1375H1015L1074 1244Q983 1131 904 997T763 710T659 378T601 0H398L362 46Q381 211
430 376T552 693T717 978T913 1217Z" />
<glyph unicode="8" glyph-name="eight" horiz-adv-x="1272" d="M628 -25Q521 -25 428 -1T267 71T161 187T122 343Q122 468 201 565T417 709Q326 765 260 846T194 1043Q194 1122 227 1188T321 1301T465 1374T649 1400Q744 1400 825 1377T964 1311T1055 1209T1088
1079Q1088 967 1011 875T819 740Q886 707 946 671T1050 589T1121 488T1147 358Q1147 271 1109 200T1002 79T837 2T628 -25ZM397 1090Q397 1036 421 995T488 919T587 854T709 793Q798 843 841 911T884 1059Q884 1167 816 1228T635 1289Q520 1289 459 1232T397 1090ZM645
89Q771 89 844 152T918 316Q918 377 892 421T821 498T719 559T599 615Q579 624 558 634T517 654Q424 603 380 527T335 363Q335 294 360 242T427 157T526 106T645 89Z" />
<glyph unicode="9" glyph-name="nine" horiz-adv-x="1256" d="M614 630Q682 630 758 653T889 716Q889 718 889 721T889 727V807Q889 902 871 988T817 1139T725 1242T594 1281Q531 1281 483 1255T403 1184T355 1078T339 948Q339 805 411 718T614 630ZM514 -25Q413
-25 323 3T178 79L224 177Q267 152 331 132T472 111Q644 111 753 245T884 614Q827 555 734 521T539 487Q440 487 361 519T227 607T143 741T113 911Q113 1016 148 1106T248 1261T406 1363T613 1400Q729 1400 824 1359T986 1236T1088 1035T1125 758Q1125 580 1082
435T959 188T766 31T514 -25Z" />
<glyph unicode=":" glyph-name="colon" horiz-adv-x="623" d="M459 968Q459 905 419 865T312 824Q246 824 205 864T164 968Q164 1032 205 1071T312 1111Q378 1111 418 1072T459 968ZM459 123Q459 60 419 20T312 -21Q246 -21 205 19T164 123Q164 187 205 227T312
267Q378 267 418 227T459 123Z" />
<glyph unicode=";" glyph-name="semicolon" horiz-adv-x="670" d="M481 969Q481 906 440 866T333 825Q267 825 226 865T185 969Q185 1033 226 1072T333 1112Q399 1112 440 1073T481 969ZM499 69Q499 -78 412 -203T197 -403L149 -339Q230 -270 273 -193T317 -49Q317
-12 302 1T265 28Q237 44 212 76T186 159Q186 218 225 259T327 300Q395 300 447 243T499 69Z" />
<glyph unicode="&lt;" glyph-name="less" horiz-adv-x="1152" d="M943 132L97 553V676L943 1096L1011 950L289 617L1011 279L943 132Z" />
<glyph unicode="=" glyph-name="equal" horiz-adv-x="1243" d="M1076 735H163V886H1076V735ZM1076 342H163V493H1076V342Z" />
<glyph unicode="&gt;" glyph-name="greater" horiz-adv-x="1152" d="M209 132L141 279L863 613L141 950L209 1096L1055 676V553L209 132Z" />
<glyph unicode="?" glyph-name="question" horiz-adv-x="1071" d="M517 462H399Q380 518 363 585T345 707Q345 791 392 844T518 970Q581 1027 627 1075T704 1168T748 1259T763 1361Q763 1473 702 1548T526 1624Q461 1624 408 1601T326 1550Q305 1528 297 1505T285
1450L265 1250H136Q111 1330 96 1423T80 1604Q149 1661 260 1705T501 1749Q615 1749 707 1713T863 1615T961 1474T996 1308Q996 1233 971 1170T902 1053T803 950T684 851Q642 817 615 793T572 747T548 698T536 631L517 462ZM608 113Q608 54 570 17T469 -21Q407
-21 369 16T330 113Q330 173 368 209T469 246Q531 246 569 209T608 113Z" />
<glyph unicode="@" glyph-name="at" horiz-adv-x="2119" d="M926 -516Q733 -516 582 -452T327 -271T169 10T113 373Q112 637 202 854T445 1225T800 1462T1223 1546Q1389 1546 1531 1497T1776 1353T1937 1115T1996 786Q1996 582 1931 429T1775 174T1584 21T1414
-30Q1329 -30 1293 36T1256 202Q1256 243 1262 303T1281 441Q1247 351 1202 265T1103 113T984 5T849 -36Q789 -36 737 -6T646 79T585 210T563 378Q563 493 600 613T706 831T875 990T1100 1052Q1159 1052 1223 1036T1354 983L1399 1047L1532 1004Q1518 935 1500
838T1466 640T1439 440T1428 268Q1428 181 1444 151T1493 121Q1537 121 1599 161T1717 280T1813 475T1853 742Q1853 921 1794 1049T1638 1257T1417 1376T1163 1414Q982 1414 819 1345T536 1148T344 835T273 421Q273 223 326 72T471 -180T691 -332T964 -384Q1021
-384 1084 -377T1206 -356T1315 -326T1397 -287L1437 -369Q1358 -432 1222 -474T926 -516ZM897 142Q944 142 993 181T1089 286T1177 441T1251 626Q1268 679 1281 727T1305 818Q1253 867 1186 891T1066 916Q990 916 931 876T833 771T774 619T754 441Q754 384 762
330T787 234T832 167T897 142Z" />
<glyph unicode="A" glyph-name="A" horiz-adv-x="1546" d="M993 599L727 1365L475 599H993ZM522 102V0H2V102L124 131Q146 136 161 149T184 184L661 1567H875L1372 184Q1380 162 1395 150T1432 131L1547 102V0H955V102L1153 138L1035 477H435L324 138L522 102Z" />
<glyph unicode="B" glyph-name="B" horiz-adv-x="1505" d="M759 -12Q717 -12 681 -10T607 -6T526 -2T427 0H109V102L275 132Q295 136 308 151T321 187V1371Q321 1391 309 1406T277 1425L109 1458V1562H432Q524 1562 603 1569T770 1577Q1051 1577 1168 1483T1286
1212Q1286 1069 1214 967T1005 831Q1183 827 1288 728T1394 459Q1394 360 1363 274T1259 124T1063 25T759 -12ZM542 1459V870Q607 868 671 868T769 868Q912 868 988 946T1065 1184Q1065 1330 991 1401T735 1472Q675 1472 622 1466T542 1459ZM753 97Q967 97 1059
182T1152 435Q1152 603 1068 676T804 749Q759 749 685 748T542 746V113Q582 107 643 102T753 97Z" />
<glyph unicode="C" glyph-name="C" horiz-adv-x="1438" d="M838 -28Q657 -28 523 25T300 179T169 425T125 753Q125 960 178 1117T328 1378T565 1534T876 1587Q973 1587 1092 1569T1314 1512Q1318 1425 1312 1326T1293 1129H1162L1114 1353Q1110 1376 1098 1393T1064
1423Q1032 1442 966 1458T827 1474Q620 1474 498 1311T376 791Q376 635 401 505T481 282T622 137T830 85Q896 85 960 102T1068 147Q1087 159 1098 175T1119 217L1187 423L1317 411Q1319 328 1313 235T1291 52Q1204 16 1081 -6T838 -28Z" />
<glyph unicode="D" glyph-name="D" horiz-adv-x="1670" d="M430 1562Q527 1562 614 1569T794 1577Q1180 1577 1363 1385T1546 826Q1546 618 1491 459T1335 193T1089 34T766 -15Q700 -14 607 -7T433 0H109V102L270 131Q295 135 308 151T321 190V1371Q321 1391 309
1406T277 1425L109 1458V1562H430ZM544 116Q587 107 658 103T786 99Q1034 106 1170 267T1306 789Q1306 1136 1168 1300T746 1465Q682 1465 630 1459T544 1451V116Z" />
<glyph unicode="E" glyph-name="E" horiz-adv-x="1404" d="M1217 1178H1106L1060 1367Q1054 1390 1040 1403T1002 1426Q968 1439 914 1444T794 1450H544V862L1031 879V725L544 738V122H851Q916 122 976 127T1071 145Q1094 154 1106 168T1127 204L1202 422L1312
406Q1311 309 1300 206T1270 0H109V102L269 131Q295 136 308 152T321 194V1364Q321 1389 308 1405T269 1427L109 1458V1562H1219Q1227 1469 1227 1374T1217 1178Z" />
<glyph unicode="F" glyph-name="F" horiz-adv-x="1294" d="M1031 704L544 717V190Q544 168 557 153T593 135L847 102V0H109V102L270 131Q295 136 308 152T321 193V1364Q321 1389 308 1405T269 1427L109 1458V1562H1219Q1227 1469 1227 1374T1217 1178H1106L1060
1367Q1054 1390 1040 1403T1002 1426Q968 1439 914 1444T794 1450H544V841L1031 857V704Z" />
<glyph unicode="G" glyph-name="G" horiz-adv-x="1593" d="M1332 -9L1202 122Q1128 51 1027 13T795 -25Q631 -25 505 32T295 193T167 442T124 764Q124 969 180 1124T337 1381T582 1535T900 1587Q1024 1587 1145 1564T1367 1489Q1371 1401 1365 1315T1346 1138H1214L1168
1340Q1161 1369 1150 1386T1117 1417Q1077 1442 1010 1459T862 1476Q756 1476 667 1435T514 1309T414 1094T378 786Q378 643 404 520T488 308T639 168T864 117Q949 117 1027 140T1166 216V650L890 671V791H1504V671L1384 651V14L1332 -9Z" />
<glyph unicode="H" glyph-name="H" horiz-adv-x="1824" d="M1715 1562V1458L1555 1427Q1530 1422 1517 1405T1503 1363V195Q1503 169 1516 153T1555 132L1715 102V0H1090V102L1228 131Q1253 136 1266 152T1280 195V737H544V194Q544 168 557 152T595 131L743 102V0H109V102L269
132Q295 137 308 153T321 195V1363Q321 1389 308 1405T269 1427L109 1458V1562H742V1458L594 1427Q569 1422 557 1406T544 1364V863H1280V1364Q1280 1389 1267 1405T1229 1427L1091 1458V1562H1715Z" />
<glyph unicode="I" glyph-name="I" horiz-adv-x="865" d="M755 1562V1458L596 1427Q571 1422 558 1406T544 1364V194Q544 168 557 152T596 131L755 102V0H109V102L269 131Q295 136 308 152T321 194V1364Q321 1389 308 1405T269 1427L109 1458V1562H755Z" />
<glyph unicode="J" glyph-name="J" horiz-adv-x="810" d="M573 1427Q548 1421 535 1406T521 1364V425Q521 251 506 129T440 -83T295 -242T44 -379L-7 -279Q87 -212 146 -151T240 -16T286 153T299 384V1364Q299 1389 286 1405T247 1427L87 1458V1562H713V1458L573 1427Z" />
<glyph unicode="K" glyph-name="K" horiz-adv-x="1588" d="M766 102V0H109V102L267 132Q292 137 306 151T321 193V1365Q321 1391 307 1406T268 1427L109 1458V1562H755V1458L595 1427Q570 1422 557 1406T543 1364V707L1167 1422L986 1458L985 1562H1529V1459L1387
1427Q1366 1422 1350 1414T1319 1390L903 932Q953 874 1001 801T1115 620L1366 207Q1390 170 1409 154T1464 128L1574 102V0H1256Q1222 0 1178 59T1076 221L903 531Q862 606 827 664T758 772L543 534V192Q543 165 557 151T598 132L766 102Z" />
<glyph unicode="L" glyph-name="L" horiz-adv-x="1366" d="M1106 206L1192 478L1307 461Q1305 355 1296 232T1264 0H109V102L269 130Q295 134 308 150T321 192V1365Q321 1391 308 1407T269 1428L109 1458V1562H804V1458L596 1426Q570 1422 557 1406T543 1364V122H828Q898
122 955 128T1048 147Q1071 155 1085 169T1106 206Z" />
<glyph unicode="M" glyph-name="M" horiz-adv-x="2181" d="M620 102V0H63V102L213 131Q238 135 251 150T268 191L409 1361Q413 1388 401 1405T361 1427L180 1458V1562H723L1100 393L1432 1562H1977V1458L1794 1427Q1766 1422 1755 1405T1747 1359L1933 190Q1936
166 1950 151T1988 131L2137 102V0H1529V102L1716 135L1522 1364L1151 66H991L556 1365L414 135L620 102Z" />
<glyph unicode="N" glyph-name="N" horiz-adv-x="1779" d="M699 102V0H109V102L269 131Q295 136 308 152T321 194V1364Q321 1389 308 1405T269 1427L109 1458V1562H544L1343 343V1364Q1343 1389 1330 1405T1291 1427L1121 1458V1562H1682V1458L1540 1427Q1515
1421 1502 1406T1488 1364V0H1302L466 1276V194Q466 167 479 151T518 131L699 102Z" />
<glyph unicode="O" glyph-name="O" horiz-adv-x="1602" d="M775 -26Q614 -26 492 28T288 184T166 430T125 756Q125 956 175 1111T317 1372T539 1532T828 1587Q989 1587 1111 1533T1314 1378T1436 1132T1477 807Q1477 609 1428 454T1287 192T1065 30T775 -26ZM803
1469Q599 1469 485 1299T371 779Q371 443 477 268T797 93Q1001 93 1115 265T1229 787Q1229 1122 1123 1295T803 1469Z" />
<glyph unicode="P" glyph-name="P" horiz-adv-x="1411" d="M739 711Q810 711 875 731T990 800T1069 929T1099 1132Q1099 1313 1010 1389T740 1466Q671 1466 626 1461T544 1454V718Q593 715 636 713T739 711ZM837 102V0H109V102L271 131Q295 135 308 151T321 190V1368Q321
1387 309 1404T277 1425L109 1458V1562H434Q480 1562 517 1564T593 1569T678 1574T790 1576Q944 1576 1049 1546T1216 1460T1305 1321T1332 1134Q1332 1008 1288 908T1166 739T978 634T739 598Q690 598 642 600T544 605V190Q544 168 557 153T593 135L837 102Z"
/>
<glyph unicode="Q" glyph-name="Q" horiz-adv-x="1602" d="M1382 -416Q1275 -416 1197 -369T1053 -257T920 -128T771 -26Q611 -25 490 30T288 186T166 432T125 756Q125 955 175 1110T317 1371T539 1531T828 1587Q989 1587 1111 1533T1314 1377T1436 1131T1477
807Q1477 488 1348 282T999 6Q1053 -16 1100 -45T1192 -108Q1267 -163 1342 -204T1515 -246Q1540 -246 1564 -245T1608 -240L1632 -335Q1601 -360 1532 -388T1382 -416ZM803 1469Q597 1469 483 1301T369 779Q369 439 476 266T797 93Q1002 93 1116 263T1231 787Q1231
1126 1125 1297T803 1469Z" />
<glyph unicode="R" glyph-name="R" horiz-adv-x="1558" d="M543 1453V801Q576 799 615 798T690 797T756 797T803 797Q930 798 1010 883T1091 1149Q1091 1300 1016 1383T736 1466Q677 1466 624 1461T543 1453ZM766 102V0H109V102L267 132Q292 137 306 151T321 193V1365Q321
1391 307 1406T268 1427L109 1458V1562H432Q519 1562 596 1569T773 1577Q1073 1577 1201 1475T1329 1163Q1329 1047 1296 968T1212 838T1103 760T991 720Q1047 683 1090 627T1176 488L1326 199Q1345 162 1363 148T1415 127L1526 102V0H1217Q1171 0 1132 66T1040
242L940 455Q905 529 870 590T800 687Q725 687 658 687T543 688V192Q543 165 557 151T598 132L766 102Z" />
<glyph unicode="S" glyph-name="S" horiz-adv-x="1281" d="M1168 416Q1168 333 1136 252T1038 108T869 6T625 -33Q467 -33 340 8T135 97Q131 193 136 292T154 488H287L324 254Q327 238 334 220T360 184Q399 144 474 111T642 78Q788 78 864 150T941 346Q941 418
915 470T843 562T732 636T587 706Q514 740 438 780T301 874T201 1002T161 1178Q161 1267 194 1342T291 1472T451 1558T673 1589Q782 1589 893 1567T1083 1506Q1090 1407 1086 1315T1068 1135H940L901 1340Q897 1359 888 1377T858 1412Q827 1439 767 1459T637 1480Q507
1480 439 1419T371 1246Q371 1178 395 1130T467 1042T582 966T739 888Q820 850 897 807T1034 708T1131 582T1168 416Z" />
<glyph unicode="T" glyph-name="T" horiz-adv-x="1514" d="M1156 0H358V102L592 138Q619 142 632 157T646 198V1450H528Q462 1450 407 1444T324 1427Q301 1419 288 1406T269 1368L204 1085H84Q74 1213 77 1328T95 1562H1423Q1436 1443 1437 1327T1428 1085H1308L1244
1368Q1239 1392 1226 1405T1191 1427Q1161 1438 1110 1444T989 1450H868V198Q868 172 882 157T922 138L1156 102V0Z" />
<glyph unicode="U" glyph-name="U" horiz-adv-x="1691" d="M1042 1562H1593V1458L1472 1429Q1447 1423 1435 1407T1422 1364V576Q1422 262 1267 121T838 -21Q542 -21 404 133T266 599V1365Q266 1390 254 1406T216 1429L101 1458V1562H723V1458L547 1426Q522 1422
509 1405T495 1362V577Q495 309 598 200T877 91Q1084 91 1175 214T1266 565V1364Q1266 1390 1253 1406T1215 1427L1042 1458V1562Z" />
<glyph unicode="V" glyph-name="V" horiz-adv-x="1544" d="M888 -5H685L165 1374Q157 1396 143 1408T106 1427L-9 1458V1562H593V1458L387 1418L824 220L1214 1418L1009 1458V1562H1536V1458L1415 1427Q1393 1420 1378 1408T1355 1374L888 -5Z" />
<glyph unicode="W" glyph-name="W" horiz-adv-x="2241" d="M1438 -10L1125 1039L821 -10H612L175 1372Q168 1394 154 1407T117 1427L-2 1458V1562H597V1458L397 1418L752 224L1055 1255L1015 1372Q1008 1394 994 1407T957 1427L855 1458V1562H1438V1458L1233 1418L1579
227L1914 1418L1713 1458V1562H2231V1458L2109 1427Q2087 1421 2072 1409T2049 1371L1648 -10H1438Z" />
<glyph unicode="X" glyph-name="X" horiz-adv-x="1502" d="M575 102V0H25V102L163 131Q184 136 198 145T226 174L639 766L235 1381Q224 1400 209 1410T174 1427L59 1458V1562H672V1458L477 1422L788 922L1114 1422L933 1458V1562H1439V1458L1315 1427Q1294 1421
1280 1411T1252 1383L864 825L1297 175Q1310 156 1325 146T1361 131L1479 102V0H865V102L1055 136L718 666L370 136L575 102Z" />
<glyph unicode="Y" glyph-name="Y" horiz-adv-x="1469" d="M1103 0H384V102L577 138Q603 142 617 157T631 198V599L182 1381Q171 1400 156 1411T119 1427L-7 1458V1562H604V1458L420 1421L786 760L1124 1422L937 1458V1562H1452V1458L1329 1430Q1307 1425 1291
1415T1265 1384L856 598V198Q856 172 869 157T910 138L1103 102V0Z" />
<glyph unicode="Z" glyph-name="Z" horiz-adv-x="1367" d="M1213 0H121L67 91L967 1447H640Q571 1447 513 1443T420 1425Q398 1417 384 1403T363 1366L293 1116H170Q166 1223 173 1340T195 1563H1199L1245 1474L354 122H768Q837 122 895 127T988 146Q1010 154
1024 168T1045 205L1127 471L1247 457Q1248 407 1246 348T1240 229T1229 109T1213 0Z" />
<glyph unicode="[" glyph-name="bracketleft" horiz-adv-x="794" d="M738 -377Q683 -384 620 -389T493 -398T368 -403T257 -404L226 -372V1954L257 1986Q307 1987 368 1986T492 1981T619 1972T738 1959V1859L478 1837Q450 1835 435 1820T420 1777V-195Q420 -223
435 -237T478 -254L738 -276V-377Z" />
<glyph unicode="\" glyph-name="backslash" horiz-adv-x="967" d="M892 -288H706L71 1742H257L892 -288Z" />
<glyph unicode="]" glyph-name="bracketright" horiz-adv-x="794" d="M568 -372L537 -404Q487 -405 426 -404T302 -398T175 -389T56 -377V-276L316 -254Q344 -252 359 -238T374 -195V1777Q374 1805 359 1820T316 1837L56 1859V1959Q111 1966 174 1971T301 1980T426
1985T537 1986L568 1954V-372Z" />
<glyph unicode="^" glyph-name="asciicircum" horiz-adv-x="1226" d="M1023 799L601 1320L195 799L104 867L509 1525L694 1538L1124 867L1023 799Z" />
<glyph unicode="_" glyph-name="underscore" horiz-adv-x="1751" d="M0 -250H1751V-375H0V-250Z" />
<glyph unicode="`" glyph-name="grave" horiz-adv-x="1000" d="M343 1761L697 1335L627 1260Q566 1300 503 1348T382 1446T276 1544T197 1634L343 1761Z" />
<glyph unicode="a" glyph-name="a" horiz-adv-x="1205" d="M495 118Q567 118 641 145T767 216V483L576 466Q455 456 391 411T326 274Q326 200 367 159T495 118ZM957 -17Q885 -17 839 19T775 126Q712 58 618 18T417 -23Q349 -23 290 -5T189 47T122 133T97 251Q97
338 137 397T240 492T382 546T537 570L767 589V724Q767 878 706 941T518 1004Q423 1004 339 973T182 874L131 925Q150 982 193 1026T294 1101T426 1146T578 1162Q777 1162 877 1062T977 754V188Q977 156 991 142T1034 124L1149 114V19Q1124 10 1065 -3T957 -17Z"
/>
<glyph unicode="b" glyph-name="b" horiz-adv-x="1296" d="M587 -23Q459 -23 350 5T187 56V1567Q187 1593 173 1608T133 1627L-15 1649V1741Q72 1766 177 1781T369 1798L401 1767V1030Q461 1092 544 1130T738 1168Q831 1168 913 1137T1055 1041T1149 872T1184
625Q1184 476 1145 356T1031 152T844 23T587 -23ZM603 90Q771 90 860 204T953 568Q957 819 874 920T651 1021Q576 1021 514 998T401 932V139Q439 119 488 105T603 90Z" />
<glyph unicode="c" glyph-name="c" horiz-adv-x="1128" d="M111 556Q111 688 146 800T251 994T424 1122T663 1168Q758 1168 855 1147T1012 1096Q1017 1018 1011 928T992 759H882L840 926Q833 954 825 973T798 1009Q773 1029 733 1042T641 1056Q501 1056 424 943T347
602Q347 363 433 244T677 125Q771 125 845 162T965 249L1026 194Q978 95 871 36T616 -24Q491 -24 396 19T238 140T143 324T111 556Z" />
<glyph unicode="d" glyph-name="d" horiz-adv-x="1357" d="M641 123Q716 123 782 148T899 215V1001Q863 1022 806 1037T685 1052Q615 1052 553 1029T444 950T371 802T344 571Q344 441 368 355T432 217T527 144T641 123ZM1093 -17Q1012 -17 969 25T909 130Q851
66 765 22T563 -23Q472 -23 390 9T246 108T149 283T113 538Q113 697 155 816T274 1013T459 1129T697 1168Q753 1168 805 1161T899 1144V1567Q899 1594 885 1609T845 1628L693 1649V1741Q736 1754 786 1764T887 1781T989 1792T1082 1798L1113 1766V189Q1113 154
1129 141T1171 124L1286 114V19Q1252 8 1196 -4T1093 -17Z" />
<glyph unicode="e" glyph-name="e" horiz-adv-x="1179" d="M616 1054Q508 1054 437 980T345 742H848Q849 753 850 764T851 789Q851 906 790 980T616 1054ZM1061 248Q1021 127 905 52T617 -24Q489 -24 394 19T236 140T142 324T111 557Q111 700 149 814T257 1006T426
1126T646 1168Q739 1168 816 1143T948 1068T1033 945T1064 774Q1064 746 1061 707T1053 636H337Q337 629 337 621T337 605Q337 470 363 378T434 230T541 150T675 126Q773 126 856 170T989 289L1061 248Z" />
<glyph unicode="f" glyph-name="f" horiz-adv-x="887" d="M280 1250Q280 1364 321 1464T429 1638T581 1754T751 1797Q817 1797 881 1775T1006 1719L970 1580Q912 1590 849 1596T740 1602Q610 1602 551 1545T491 1337V1136H831V996H492V181Q492 154 506 139T548
122L760 102V0H100V102L223 121Q250 125 264 139T278 181V989L80 1013V1108L280 1136V1250Z" />
<glyph unicode="g" glyph-name="g" horiz-adv-x="1279" d="M353 778Q353 633 412 557T603 480Q716 480 775 547T835 766Q835 918 775 988T588 1058Q490 1058 422 1001T353 778ZM1196 -122Q1196 -220 1150 -300T1020 -435T822 -521T569 -552Q332 -552 212 -465T92
-236Q92 -135 146 -69T285 38Q236 63 211 104T186 203Q186 284 230 334T335 416Q240 461 187 547T133 755Q133 859 171 937T273 1066T426 1142T613 1168Q710 1168 790 1144T927 1072Q976 1118 1023 1143T1119 1169Q1144 1169 1175 1164T1231 1151V989H1000Q1025
947 1039 896T1053 784Q1053 595 923 482T575 369Q534 369 495 373T421 386Q393 366 377 339T361 274Q361 213 413 188T585 162H831Q1012 162 1104 87T1196 -122ZM609 -434Q775 -434 880 -367T986 -162Q986 -88 943 -46T771 -4H514Q477 -4 444 -2T383 6Q348 -31
325 -81T302 -201Q302 -301 367 -367T609 -434Z" />
<glyph unicode="h" glyph-name="h" horiz-adv-x="1427" d="M624 102V0H70V102L193 121Q219 125 233 140T247 182V1570Q247 1596 233 1611T193 1630L46 1652V1743Q88 1756 137 1766T237 1782T337 1793T429 1798L461 1765V1011Q543 1095 645 1129T851 1164Q1050
1164 1122 1048T1194 725V182Q1194 156 1208 141T1249 121L1372 102V0H817V102L926 121Q950 125 965 139T980 182V686Q980 851 935 932T761 1014Q682 1014 605 990T461 916V182Q461 155 475 141T515 121L624 102Z" />
<glyph unicode="i" glyph-name="i" horiz-adv-x="737" d="M490 1130V184Q490 157 504 141T544 121L667 102V0H98V102L221 121Q247 125 261 141T276 183V928Q276 955 263 971T223 991L84 1011V1109Q170 1135 271 1147T458 1162L490 1130ZM506 1472Q506 1408 465
1368T358 1327Q292 1327 251 1367T210 1472Q210 1535 251 1575T358 1615Q424 1615 465 1575T506 1472Z" />
<glyph unicode="j" glyph-name="j" horiz-adv-x="665" d="M434 1162L466 1130V120Q466 13 458 -64T431 -198T382 -297T308 -375Q245 -429 165 -466T2 -532L-48 -435Q42 -378 100 -325T192 -210T239 -68T252 122L253 928Q253 955 240 971T200 991L61 1011V1109Q146
1135 247 1147T434 1162ZM463 1472Q463 1408 422 1368T315 1327Q249 1327 208 1367T167 1472Q167 1535 208 1575T315 1615Q381 1615 422 1575T463 1472Z" />
<glyph unicode="k" glyph-name="k" horiz-adv-x="1343" d="M637 102V0H70V102L193 121Q219 125 233 141T247 183V1567Q247 1594 233 1609T193 1628L46 1649V1741Q133 1766 237 1781T429 1798L461 1767V516L911 1007L711 1039V1136H1257V1039L1137 1013Q1108 1007
1089 1000T1051 973L794 706Q823 668 848 630T901 541L1109 190Q1126 162 1144 148T1185 129L1311 102V0H1008Q967 0 934 48T860 172L746 388Q721 436 698 478T651 558L461 359V182Q461 156 475 141T515 121L637 102Z" />
<glyph unicode="l" glyph-name="l" horiz-adv-x="719" d="M467 1766V182Q467 155 481 140T521 121L666 100V0H53V102L198 121Q224 125 238 140T253 181V1567Q253 1594 239 1609T198 1628L46 1649V1741Q89 1754 139 1764T240 1781T342 1792T435 1798L467 1766Z" />
<glyph unicode="m" glyph-name="m" horiz-adv-x="2130" d="M651 102V0H98V102L222 121Q247 125 261 141T276 183V928Q276 954 263 970T223 991L84 1010V1109Q165 1134 257 1147T431 1162L466 1127L481 1007Q557 1094 656 1129T855 1164Q974 1164 1045 1122T1150
1000Q1239 1095 1342 1129T1545 1164Q1749 1164 1823 1049T1897 715V182Q1897 156 1911 141T1951 121L2075 102V0H1521V102L1629 121Q1653 125 1668 139T1683 182V684Q1683 855 1636 934T1453 1014Q1385 1014 1313 993T1175 921Q1185 879 1189 830T1193 725V182Q1193
156 1207 141T1247 121L1355 102V0H818V102L925 121Q949 125 964 139T979 182V686Q979 851 941 932T772 1014Q705 1014 629 992T490 923V183Q490 156 503 141T542 121L651 102Z" />
<glyph unicode="n" glyph-name="n" horiz-adv-x="1455" d="M653 102V0H98V102L221 121Q247 125 261 141T276 183V928Q276 955 263 971T223 991L84 1011V1109Q165 1134 257 1147T431 1162L466 1127L481 1004Q564 1092 668 1128T879 1164Q1078 1164 1150 1048T1222
725V182Q1222 156 1236 141T1276 121L1399 102V0H845V102L954 121Q977 125 992 139T1008 182V686Q1008 851 963 932T788 1014Q709 1014 632 990T490 917V183Q490 157 504 142T543 121L653 102Z" />
<glyph unicode="o" glyph-name="o" horiz-adv-x="1287" d="M113 565Q113 722 156 837T274 1025T448 1133T662 1168Q795 1168 892 1126T1052 1007T1145 821T1175 578Q1175 421 1132 307T1014 119T839 11T625 -24Q492 -24 395 18T235 137T143 323T113 565ZM938 558Q938
671 924 763T874 919T781 1019T636 1054Q490 1054 420 943T349 586Q349 474 363 382T412 226T505 126T652 90Q797 90 867 201T938 558Z" />
<glyph unicode="p" glyph-name="p" horiz-adv-x="1361" d="M671 90Q826 90 921 197T1019 570Q1021 795 948 908T720 1021Q636 1021 571 993T466 928V139Q501 117 554 104T671 90ZM687 -395V-496H75V-395L199 -375Q225 -371 238 -356T252 -314V927Q252 953 240
970T202 991L61 1011V1109Q144 1133 233 1147T407 1162L443 1127L458 1012Q513 1078 597 1123T804 1168Q899 1168 980 1137T1121 1039T1214 870T1248 624Q1248 473 1208 353T1094 149T911 22T666 -23Q620 -23 567 -17T466 4V-315Q466 -341 480 -356T521 -375L687
-395Z" />
<glyph unicode="q" glyph-name="q" horiz-adv-x="1309" d="M1253 -496H671V-395L841 -375Q868 -372 882 -357T896 -315V120Q839 60 756 19T568 -23Q473 -23 390 9T245 108T148 283T112 539Q112 692 154 810T272 1007T453 1127T685 1168Q760 1168 832 1151T961
1107L1070 1161L1110 1127V-315Q1110 -341 1124 -356T1164 -377L1253 -395V-496ZM642 123Q716 123 780 148T896 215V988Q857 1020 803 1036T689 1052Q616 1052 553 1028T443 948T370 801T343 577Q343 445 367 357T431 218T526 145T642 123Z" />
<glyph unicode="r" glyph-name="r" horiz-adv-x="1072" d="M748 99V0H98V102L221 121Q247 125 261 140T276 182V923Q276 953 264 970T222 991L84 1011V1109Q163 1133 255 1147T425 1162L459 1130L482 947Q513 990 556 1030T648 1100T751 1149T860 1168Q891 1168
931 1161T996 1141Q1003 1057 997 951T972 758H867L838 913Q831 946 816 959T770 972Q700 973 627 944T490 852V182Q490 155 504 140T546 121L748 99Z" />
<glyph unicode="s" glyph-name="s" horiz-adv-x="1070" d="M130 62Q120 142 122 221T134 369H248L287 218Q295 184 305 167T337 135Q363 119 417 100T543 81Q648 81 702 129T757 256Q757 304 737 337T677 398T580 450T447 505Q313 561 227 631T141 839Q141 920
172 981T258 1084T392 1147T563 1168Q650 1168 744 1149T900 1103Q904 1031 899 957T881 810H774L740 946Q733 974 721 993T684 1027Q662 1040 627 1051T543 1063Q456 1064 398 1024T339 900Q339 849 361 815T421 755T505 711T603 673Q672 647 737 616T851 543T931
444T962 309Q962 229 930 167T839 62T698 -3T518 -25Q399 -25 298 3T130 62Z" />
<glyph unicode="t" glyph-name="t" horiz-adv-x="917" d="M236 283V992L63 1014V1109L190 1126Q217 1130 231 1144T252 1183L323 1477H447L450 1137H824V1000H451V354Q451 224 495 180T616 136Q679 136 732 159T825 225L887 168Q842 75 749 27T542 -22Q481 -22
425 -8T328 40T261 134T236 283Z" />
<glyph unicode="u" glyph-name="u" horiz-adv-x="1395" d="M1131 -17Q1052 -17 1008 24T947 130Q881 62 795 20T591 -23Q404 -23 320 80T235 394V931Q235 956 223 972T183 993L58 1015V1113Q141 1137 238 1148T417 1162L449 1130V431Q449 271 495 196T667 121Q741
121 809 145T938 219V931Q938 957 925 973T885 994L736 1018V1116Q821 1138 928 1150T1120 1162L1152 1130V189Q1152 154 1168 141T1210 124L1324 114V19Q1291 8 1235 -4T1131 -17Z" />
<glyph unicode="v" glyph-name="v" horiz-adv-x="1242" d="M535 -17L152 964Q144 985 130 997T93 1017L18 1038V1137H554V1038L380 1008L673 193L951 1007L780 1038V1137H1214V1038L1139 1017Q1117 1011 1102 999T1079 965L723 -17H535Z" />
<glyph unicode="w" glyph-name="w" horiz-adv-x="1816" d="M464 -17L150 967Q143 989 129 1001T91 1020L27 1038V1137H514V1038L359 1008L591 207L849 1137H894V1137H1049L1305 207L1530 1007L1374 1038V1137H1786V1038L1719 1020Q1696 1014 1682 1001T1660 966L1360
-17H1177L908 888L651 -17H464Z" />
<glyph unicode="x" glyph-name="x" horiz-adv-x="1277" d="M527 101V0H48V101L146 114Q168 118 184 126T213 152L525 560L217 982Q205 999 190 1008T153 1022L73 1039V1137H591V1039L450 1013L675 685L917 1013L771 1039V1137H1208V1039L1120 1022Q1099 1018 1084
1009T1055 983L752 595L1080 152Q1093 134 1108 125T1146 113L1227 101V0H701V101L840 121L605 466L357 122L527 101Z" />
<glyph unicode="y" glyph-name="y" horiz-adv-x="1253" d="M279 -517Q224 -517 164 -512T45 -498V-372Q163 -362 254 -343T415 -283T538 -175T636 0H533L170 961Q162 983 147 996T110 1015L27 1038V1137L568 1136V1037L397 1008L697 175L960 1008L797 1038V1137H1232V1038L1150
1015Q1126 1008 1112 996T1089 958L748 -43Q664 -286 559 -401T279 -517Z" />
<glyph unicode="z" glyph-name="z" horiz-adv-x="1163" d="M1027 0H126L85 89L780 1030H557Q511 1030 464 1028T380 1018Q348 1012 334 1000T313 958L269 773H157Q148 866 148 961T157 1137H1009L1049 1048L361 112H593Q650 112 703 114T803 124Q830 128 848 139T874
178L932 377L1042 363Q1047 276 1044 182T1027 0Z" />
<glyph unicode="{" glyph-name="braceleft" horiz-adv-x="884" d="M841 -299L828 -405Q786 -405 739 -404T636 -398Q452 -386 364 -299T276 -50Q276 103 291 229T307 466Q307 510 300 550T266 622T184 676T35 705V878Q129 885 184 907T266 960T300 1032T307 1116Q307
1227 292 1353T276 1632Q276 1794 364 1881T636 1980Q692 1984 739 1985T828 1987L841 1881L704 1856Q591 1834 536 1777T480 1592Q480 1477 489 1341T498 1086Q498 965 428 897T218 796Q358 765 428 692T498 497Q498 378 489 242T480 -9Q480 -136 535 -193T704
-273L841 -299Z" />
<glyph unicode="|" glyph-name="bar" horiz-adv-x="632" d="M227 -304V1893H405V-304H227Z" />
<glyph unicode="}" glyph-name="braceright" horiz-adv-x="884" d="M249 -398Q193 -402 146 -403T57 -405L44 -299L181 -274Q294 -252 349 -195T405 -10Q405 105 394 241T383 497Q383 618 453 687T663 789Q523 820 453 892T383 1086Q383 1205 394 1341T405 1593Q405
1719 350 1777T181 1856L44 1881L57 1987Q99 1987 146 1986T249 1981Q433 1969 521 1882T609 1633Q609 1480 592 1354T575 1116Q575 1072 582 1032T616 961T698 907T850 878V705Q754 698 699 676T616 623T582 551T575 466Q575 356 592 230T609 -50Q609 -213 521
-299T249 -398Z" />
<glyph unicode="~" glyph-name="asciitilde" horiz-adv-x="1315" d="M1153 693Q1108 597 1026 530T843 463Q785 463 731 484T626 530T527 577T433 598Q375 598 322 563T230 477L157 535Q203 631 285 698T468 765Q526 765 580 744T685 698T784 651T878 630Q936
630 988 665T1081 751L1153 693Z" />
<glyph unicode="&#xa0;" glyph-name="uni00A0" horiz-adv-x="593" />
<glyph unicode="&#xa1;" glyph-name="exclamdown" horiz-adv-x="624" d="M451 1035Q451 975 413 939T312 902Q250 902 212 938T173 1035Q173 1094 211 1131T312 1168Q374 1168 412 1131T451 1035ZM434 -564H191V-399L249 685H376L434 -399V-564Z" />
<glyph unicode="&#xa2;" glyph-name="cent" horiz-adv-x="1182" d="M1055 234Q1009 138 904 80T676 11V-210H530V16Q431 32 354 80T224 204T144 377T116 591Q116 717 149 824T247 1010T406 1138T625 1198V1410H771V1198Q855 1191 930 1172T1052 1127Q1057 1049
1051 960T1032 792H920L880 959Q874 987 865 1006T837 1042Q812 1062 767 1075T669 1089Q520 1089 436 969T352 628Q352 401 440 280T686 158Q782 158 862 197T992 293L1055 234Z" />
<glyph unicode="&#xa3;" glyph-name="sterling" horiz-adv-x="1331" d="M1222 248Q1222 105 1143 39T948 -27Q869 -27 799 -3T662 49T527 102T384 126Q330 74 270 39T163 -13L96 105Q135 133 176 167T251 251T306 370T328 539V639H124V757H328V870Q328 994 363
1093T462 1260T612 1366T803 1403Q877 1403 952 1385T1098 1333Q1102 1252 1096 1163T1077 987H956L919 1180Q915 1201 907 1218T876 1252Q848 1270 813 1278T740 1286Q708 1286 675 1272T614 1219T568 1114T550 941V757H897V639H550V559Q550 431 522 343T459 211Q518
211 574 201T681 179T779 156T869 146Q948 146 988 186T1041 284Q1049 316 1056 365T1068 453H1195Q1203 416 1212 361T1222 248Z" />
<glyph unicode="&#xa4;" glyph-name="currency" horiz-adv-x="1410" d="M703 482Q772 482 823 505T909 567T959 658T976 770Q976 830 954 884T894 977T805 1040T698 1064Q633 1064 583 1040T499 974T448 879T431 767Q431 708 452 656T511 565T597 505T703 482ZM702
326Q635 326 574 344T462 394L245 179L135 290L347 502Q309 556 288 622T266 763Q266 839 289 909T352 1037L135 1254L244 1366L462 1147Q513 1182 574 1201T702 1221Q770 1221 832 1203T948 1152L1165 1368L1277 1256L1063 1044Q1103 990 1125 924T1148 783Q1148
707 1125 637T1058 509L1273 294L1162 183L945 399Q893 365 831 346T702 326Z" />
<glyph unicode="&#xa5;" glyph-name="yen" horiz-adv-x="1496" d="M1105 96V0H418V96L605 131Q630 135 643 149T657 189V330H266V441H657V597H266V708H613L270 1206Q257 1225 244 1235T210 1250L89 1279V1375H677V1279L500 1244L801 777L1085 1253L904 1287V1383H1401V1287L1283
1261Q1261 1256 1248 1246T1222 1217L904 708H1256V597H865V441H1256V330H865V189Q865 163 879 149T918 131L1105 96Z" />
<glyph unicode="&#xa6;" glyph-name="brokenbar" horiz-adv-x="627" d="M225 950V1893H402V950H225ZM225 -304V639H402V-304H225Z" />
<glyph unicode="&#xa7;" glyph-name="section" horiz-adv-x="1279" d="M714 450Q760 430 801 411T879 373Q925 414 953 471T981 584Q981 636 955 677T879 755T751 829T572 912Q526 933 484 953T405 995Q358 954 329 896T299 781Q299 728 325 687T403 608T533 533T714
450ZM640 -284Q481 -284 357 -244T171 -169Q166 -87 171 -3T189 163H319L354 -27Q357 -44 366 -61T398 -97Q441 -130 512 -151T664 -172Q786 -172 852 -120T918 12Q918 63 892 99T814 168T689 232T520 306Q334 389 228 477T122 712Q122 829 183 914T330 1042Q262
1092 224 1155T185 1307Q185 1376 212 1438T296 1547T441 1621T652 1649Q720 1649 785 1641T907 1618T1009 1587T1083 1552Q1088 1470 1083 1386T1065 1220H934L900 1410Q896 1429 887 1446T855 1478Q820 1503 757 1520T624 1537Q502 1537 442 1486T381 1357Q381
1305 408 1267T485 1195T606 1129T766 1056Q945 975 1051 888T1158 653Q1158 540 1101 457T960 327Q1035 278 1075 218T1115 67Q1115 -6 1086 -70T998 -181T850 -256T640 -284Z" />
<glyph unicode="&#xa8;" glyph-name="dieresis" horiz-adv-x="1000" d="M850 1463Q850 1404 815 1368T722 1331Q664 1331 629 1367T593 1463Q593 1521 628 1558T722 1595Q779 1595 814 1558T850 1463ZM405 1463Q405 1404 369 1368T276 1331Q219 1331 183 1367T147
1463Q147 1521 183 1558T276 1595Q333 1595 369 1558T405 1463Z" />
<glyph unicode="&#xa9;" glyph-name="copyright" horiz-adv-x="2002" d="M115 783Q115 974 182 1138T368 1420T649 1607T1001 1675Q1190 1675 1353 1607T1634 1421T1819 1138T1887 784Q1887 593 1820 429T1634 145T1353 -42T1001 -110Q812 -110 649 -42T368 145T183
428T115 783ZM240 784Q240 614 297 470T454 221T695 59T1001 0Q1166 0 1306 58T1547 221T1705 469T1762 784Q1762 955 1705 1099T1548 1348T1307 1510T1001 1569Q836 1569 696 1511T455 1348T297 1100T240 784ZM996 286Q893 286 812 322T675 422T591 576T562 775Q562
895 597 990T694 1150T845 1250T1038 1285Q1134 1285 1221 1261T1348 1209Q1352 1143 1348 1070T1330 925H1223L1188 1068Q1184 1085 1176 1101T1146 1134Q1121 1151 1084 1161T1007 1172Q885 1172 822 1075T759 809Q759 626 833 528T1048 430Q1123 430 1191 456T1301
527L1357 472Q1315 394 1222 340T996 286Z" />
<glyph unicode="&#xaa;" glyph-name="ordfeminine" horiz-adv-x="1095" d="M462 799Q514 799 566 816T658 862V1059L520 1049Q428 1042 383 1008T337 910Q337 856 367 828T462 799ZM824 682Q764 682 724 707T667 787Q618 737 544 708T385 678Q272 678 200 733T127
888Q127 953 158 998T240 1071T353 1115T479 1134L658 1146V1243Q658 1353 610 1396T465 1440Q390 1440 323 1417T200 1344L154 1389Q187 1479 287 1529T522 1579Q690 1579 771 1500T853 1260V848Q853 823 864 813T898 800L986 792V710Q964 703 915 693T824 682Z"
/>
<glyph unicode="&#xab;" glyph-name="guillemotleft" horiz-adv-x="1411" d="M1228 102L669 541V683L1228 1132L1300 1051L905 614L1305 186L1228 102ZM665 102L106 541V683L665 1132L737 1051L342 614L742 186L665 102Z" />
<glyph unicode="&#xac;" glyph-name="logicalnot" horiz-adv-x="1307" d="M165 537V691H1140V105H976V537H165Z" />
<glyph unicode="&#xad;" glyph-name="uni00AD" horiz-adv-x="1110" d="M161 521V672H949V521H161Z" />
<glyph unicode="&#xae;" glyph-name="registered" horiz-adv-x="1779" d="M120 1092Q120 1257 178 1399T339 1645T583 1806T889 1865Q1054 1865 1195 1807T1439 1645T1600 1400T1659 1092Q1659 926 1601 784T1440 537T1196 374T889 315Q725 315 584 374T340 537T179
783T120 1092ZM233 1092Q233 945 282 821T418 607T626 468T889 417Q1031 417 1152 467T1360 607T1496 821T1545 1093Q1545 1239 1496 1363T1360 1576T1153 1715T889 1766Q747 1766 626 1716T418 1576T282 1363T233 1092ZM894 1108Q970 1108 1015 1150T1061 1279Q1061
1363 1015 1398T866 1433Q842 1433 819 1432T764 1424V1111Q798 1109 830 1109T894 1108ZM874 743V671H508V743L574 759Q590 763 599 774T608 802V1381Q608 1398 599 1408T573 1423L508 1438V1518H683Q748 1517 809 1519T910 1522Q1067 1522 1148 1465T1230 1289Q1230
1193 1180 1131T1036 1046Q1064 1033 1084 1012T1121 957L1196 817Q1211 789 1230 778T1303 753V671H1135Q1102 671 1084 692T1047 756L978 910Q965 940 951 967T917 1015L764 1016V800Q764 783 772 773T798 758L874 743Z" />
<glyph unicode="&#xaf;" glyph-name="overscore" horiz-adv-x="1000" d="M166 1360V1506H833V1360H166Z" />
<glyph unicode="&#xb0;" glyph-name="degree" horiz-adv-x="928" d="M462 942Q390 942 326 970T214 1045T138 1157T110 1293Q110 1368 138 1432T214 1543T326 1616T462 1643Q539 1643 604 1615T717 1540T790 1428T817 1293Q817 1218 789 1153T714 1042T601 969T462
942ZM464 1074Q557 1074 616 1135T675 1293Q675 1382 613 1447T461 1512Q369 1512 310 1449T250 1293Q250 1204 313 1139T464 1074Z" />
<glyph unicode="&#xb1;" glyph-name="plusminus" horiz-adv-x="1207" d="M684 287H524V481L530 650L362 644H147V792H362L530 786L524 955V1153H684V955L678 786L846 792H1061V644H846L678 650L684 481V287ZM1051 0H157V149H1051V0Z" />
<glyph unicode="&#xb2;" glyph-name="twosuperior" horiz-adv-x="1019" d="M849 626H162L134 711Q264 810 358 888T512 1031T600 1155T629 1276Q629 1363 578 1414T436 1465Q357 1465 296 1426T197 1344L148 1385Q160 1425 188 1463T259 1532T359 1580T486 1599Q565
1599 627 1575T733 1511T798 1417T821 1303Q821 1220 780 1144T672 1000T520 870T346 751H569Q656 751 699 767T755 815L800 918L893 906Q889 840 879 765T849 626Z" />
<glyph unicode="&#xb3;" glyph-name="threesuperior" horiz-adv-x="977" d="M115 747L166 822Q216 785 290 759T445 733Q542 733 607 775T672 900Q672 978 610 1013T436 1049H329L330 1155H367Q489 1155 552 1200T615 1321Q615 1393 561 1431T423 1470Q364 1470
305 1449T194 1377L150 1421Q187 1514 278 1556T471 1598Q541 1598 601 1581T704 1532T773 1456T798 1358Q798 1311 779 1272T729 1202T658 1153T574 1126Q696 1126 780 1063T864 893Q864 775 758 694T477 612Q359 612 263 650T115 747Z" />
<glyph unicode="&#xb4;" glyph-name="acute" horiz-adv-x="1000" d="M405 1260L339 1331L702 1761L848 1634Q817 1594 767 1545T658 1447T533 1349T405 1260Z" />
<glyph unicode="&#xb5;" glyph-name="uni00B5" horiz-adv-x="1461" d="M434 -464L252 -528L220 -496Q221 -268 224 -73T227 304Q227 479 221 673T207 1131L396 1168L427 1136L424 482Q425 394 448 334T507 237T586 185T671 169Q747 169 829 221T961 387L954 1131L1135
1168L1167 1136L1148 369Q1145 240 1175 192T1261 144H1391V53Q1348 19 1291 -3T1179 -26Q1096 -26 1043 36T975 235Q949 169 911 120T827 39T732 -10T634 -26Q573 -26 504 6T393 120L434 -464Z" />
<glyph unicode="&#xb6;" glyph-name="paragraph" horiz-adv-x="1447" d="M286 -344L236 -244Q331 -191 390 -137T480 -17T523 131T534 325L535 685Q452 690 370 721T222 809T116 950T75 1147Q75 1239 106 1319T202 1457T366 1550T602 1584Q703 1584 831 1573T1113
1562H1332V1458L1183 1427Q1158 1422 1144 1407T1130 1368V190Q1130 167 1144 152T1181 133L1342 102V0H948V1432Q899 1435 837 1438T718 1442V240Q718 109 698 16T628 -144T495 -257T286 -344Z" />
<glyph unicode="&#xb7;" glyph-name="middot" horiz-adv-x="616" d="M456 664Q456 601 415 561T308 520Q242 520 202 560T161 664Q161 728 201 768T308 808Q374 808 415 768T456 664Z" />
<glyph unicode="&#xb8;" glyph-name="cedilla" horiz-adv-x="1000" d="M456 51H549L506 -87Q513 -87 525 -88T550 -91Q618 -100 663 -146T709 -266Q709 -322 682 -368T607 -448T495 -499T356 -518Q342 -518 335 -518T317 -516L304 -428Q405 -421 460 -378T515
-277Q515 -224 473 -201T379 -175L456 51Z" />
<glyph unicode="&#xb9;" glyph-name="onesuperior" horiz-adv-x="917" d="M593 1574V797Q593 771 602 761T638 746L819 722V626H162V722L375 746Q401 749 411 760T421 798V1392Q361 1367 292 1352T159 1330L137 1425Q221 1448 311 1487T486 1592L593 1574Z" />
<glyph unicode="&#xba;" glyph-name="ordmasculine" horiz-adv-x="1104" d="M119 1117Q119 1239 154 1327T249 1470T392 1552T567 1578Q779 1578 882 1459T986 1130Q986 1008 951 921T856 778T713 697T538 671Q326 671 223 789T119 1117ZM766 1114Q766 1291 720
1385T547 1479Q441 1479 390 1400T338 1135Q338 960 384 865T558 770Q664 770 715 849T766 1114Z" />
<glyph unicode="&#xbb;" glyph-name="guillemotright" horiz-adv-x="1392" d="M184 102L107 186L507 614L112 1051L184 1132L743 683V541L184 102ZM727 102L650 186L1050 614L655 1051L727 1132L1286 683V541L727 102Z" />
<glyph unicode="&#xbc;" glyph-name="onequarter" horiz-adv-x="2325" d="M824 1574V797Q824 771 833 761T869 746L1050 722V626H393V722L606 746Q632 749 642 760T652 798V1392Q592 1367 523 1352T390 1330L368 1425Q452 1448 542 1487T717 1592L824 1574ZM752
0H579L1528 1562H1702L752 0ZM2252 183H2081V0H1920V183H1477L1420 258Q1538 432 1637 610T1824 966H1979L2008 930Q1930 782 1869 676T1757 495T1663 370T1576 281L1923 298L1953 556H2081V306L2252 314V183Z" />
<glyph unicode="&#xbd;" glyph-name="onehalf" horiz-adv-x="2317" d="M818 1574V797Q818 771 827 761T863 746L1044 722V626H387V722L600 746Q626 749 636 760T646 798V1392Q586 1367 517 1352T384 1330L362 1425Q446 1448 536 1487T711 1592L818 1574ZM746 0H573L1522
1562H1696L746 0ZM2195 0H1508L1480 85Q1610 184 1704 262T1858 405T1946 529T1975 650Q1975 737 1924 788T1782 839Q1703 839 1642 800T1543 718L1494 759Q1506 799 1534 837T1605 906T1705 954T1832 973Q1911 973 1973 949T2079 885T2144 791T2167 677Q2167 594
2126 518T2018 374T1866 244T1692 125H1915Q2002 125 2045 141T2101 189L2146 292L2239 280Q2235 214 2225 139T2195 0Z" />
<glyph unicode="&#xbe;" glyph-name="threequarters" horiz-adv-x="2335" d="M349 747L400 822Q450 785 524 759T679 733Q776 733 841 775T906 900Q906 978 844 1013T670 1049H563L564 1155H601Q723 1155 786 1200T849 1321Q849 1393 795 1431T657 1470Q598 1470
539 1449T428 1377L384 1421Q421 1514 512 1556T705 1598Q775 1598 835 1581T938 1532T1007 1456T1032 1358Q1032 1311 1013 1272T963 1202T892 1153T808 1126Q930 1126 1014 1063T1098 893Q1098 775 992 694T711 612Q593 612 497 650T349 747ZM762 0H589L1538
1562H1712L762 0ZM2263 183H2092V0H1931V183H1488L1431 258Q1549 432 1648 610T1835 966H1990L2019 930Q1941 782 1880 676T1768 495T1674 370T1587 281L1934 298L1964 556H2092V306L2263 314V183Z" />
<glyph unicode="&#xbf;" glyph-name="questiondown" horiz-adv-x="1055" d="M456 1035Q456 1094 494 1131T595 1168Q657 1168 695 1131T734 1035Q734 975 696 939T595 902Q533 902 495 939T456 1035ZM547 686H665Q684 630 701 563T719 441Q719 357 672 304T546
178Q483 121 437 73T360 -20T316 -111T301 -213Q301 -326 362 -401T538 -476Q603 -476 656 -453T738 -402Q759 -380 767 -357T779 -302L799 -103H928Q953 -183 968 -276T984 -456Q915 -513 804 -557T563 -601Q449 -601 357 -565T201 -468T103 -327T68 -161Q68 -85
93 -23T162 94T261 198T380 297Q422 331 449 355T492 401T516 450T528 517L547 686Z" />
<glyph unicode="&#xc0;" glyph-name="Agrave" horiz-adv-x="1546" d="M993 599L727 1365L475 599H993ZM522 102V0H2V102L124 131Q146 136 161 149T184 184L661 1567H875L1372 184Q1380 162 1395 150T1432 131L1547 102V0H955V102L1153 138L1035 477H435L324 138L522
102ZM534 2084L988 1752L938 1665Q872 1693 798 1725T653 1791T519 1861T414 1931L534 2084Z" />
<glyph unicode="&#xc1;" glyph-name="Aacute" horiz-adv-x="1546" d="M993 599L727 1365L475 599H993ZM522 102V0H2V102L124 131Q146 136 161 149T184 184L661 1567H875L1372 184Q1380 162 1395 150T1432 131L1547 102V0H955V102L1153 138L1035 477H435L324 138L522
102ZM1151 1916Q1108 1884 1042 1851T902 1785T750 1722T605 1668L561 1752L1038 2073L1151 1916Z" />
<glyph unicode="&#xc2;" glyph-name="Acircumflex" horiz-adv-x="1546" d="M993 599L727 1365L475 599H993ZM522 102V0H2V102L124 131Q146 136 161 149T184 184L661 1567H875L1372 184Q1380 162 1395 150T1432 131L1547 102V0H955V102L1153 138L1035 477H435L324
138L522 102ZM454 1663L385 1740L673 2048L844 2058L1160 1746L1087 1665L758 1879L454 1663Z" />
<glyph unicode="&#xc3;" glyph-name="Atilde" horiz-adv-x="1546" d="M993 599L727 1365L475 599H993ZM522 102V0H2V102L124 131Q146 136 161 149T184 184L661 1567H875L1372 184Q1380 162 1395 150T1432 131L1547 102V0H955V102L1153 138L1035 477H435L324 138L522
102ZM1201 1944Q1188 1900 1163 1855T1102 1775T1021 1717T924 1694Q870 1694 825 1716T739 1764T662 1813T587 1835Q533 1835 492 1792T420 1705L345 1748Q358 1792 383 1837T444 1917T525 1974T622 1997Q676 1997 721 1975T807 1927T884 1879T959 1857Q1013 1857
1054 1899T1126 1986L1201 1944Z" />
<glyph unicode="&#xc4;" glyph-name="Adieresis" horiz-adv-x="1546" d="M993 599L727 1365L475 599H993ZM522 102V0H2V102L124 131Q146 136 161 149T184 184L661 1567H875L1372 184Q1380 162 1395 150T1432 131L1547 102V0H955V102L1153 138L1035 477H435L324
138L522 102ZM1146 1836Q1146 1778 1110 1741T1017 1704Q960 1704 924 1741T888 1836Q888 1894 924 1931T1017 1968Q1074 1968 1110 1931T1146 1836ZM657 1836Q657 1778 621 1741T528 1704Q470 1704 435 1741T399 1836Q399 1894 434 1931T528 1968Q585 1968 621
1931T657 1836Z" />
<glyph unicode="&#xc5;" glyph-name="Aring" horiz-adv-x="1546" d="M993 599L727 1365L475 599H993ZM522 102V0H2V102L124 131Q146 136 161 149T184 184L661 1567H875L1372 184Q1380 162 1395 150T1432 131L1547 102V0H955V102L1153 138L1035 477H435L324 138L522
102ZM1044 1785Q1044 1730 1022 1686T963 1610T875 1563T770 1546Q642 1546 572 1614T501 1790Q502 1843 526 1886T589 1960T678 2006T782 2023Q908 2023 976 1955T1044 1785ZM643 1789Q643 1736 675 1692T775 1647Q838 1647 871 1682T905 1780Q905 1834 874 1877T776
1920Q713 1920 678 1884T643 1789Z" />
<glyph unicode="&#xc6;" glyph-name="AE" horiz-adv-x="2086" d="M887 1436L572 696H1011V1436H887ZM530 102V0H-4V102L128 131Q150 135 164 147T188 181L719 1416L461 1459V1562H1901Q1909 1469 1909 1374T1899 1178H1788L1742 1367Q1736 1390 1722 1403T1685
1426Q1651 1439 1596 1444T1476 1450H1226V859L1713 876V723L1226 736V122H1533Q1598 122 1658 127T1753 145Q1776 154 1788 168T1809 204L1884 422L1994 406Q1993 309 1982 206T1952 0H800V102L959 131Q985 136 998 152T1011 194V574H520L332 131L530 102Z" />
<glyph unicode="&#xc7;" glyph-name="Ccedilla" horiz-adv-x="1438" d="M838 -28Q657 -28 523 25T300 179T169 425T125 753Q125 960 178 1117T328 1378T565 1534T876 1587Q973 1587 1092 1569T1314 1512Q1318 1425 1312 1326T1293 1129H1162L1114 1353Q1110 1376
1098 1393T1064 1423Q1032 1442 966 1458T827 1474Q620 1474 498 1311T376 791Q376 635 401 505T481 282T622 137T830 85Q896 85 960 102T1068 147Q1087 159 1098 175T1119 217L1187 423L1317 411Q1319 328 1313 235T1291 52Q1204 16 1081 -6T838 -28ZM773 51H866L823
-87Q830 -87 842 -88T867 -91Q935 -100 980 -146T1026 -266Q1026 -322 999 -368T924 -448T812 -499T673 -518Q659 -518 652 -518T634 -516L621 -428Q722 -421 777 -378T832 -277Q832 -224 790 -201T696 -175L773 51Z" />
<glyph unicode="&#xc8;" glyph-name="Egrave" horiz-adv-x="1404" d="M1217 1178H1106L1060 1367Q1054 1390 1040 1403T1002 1426Q968 1439 914 1444T794 1450H544V862L1031 879V725L544 738V122H851Q916 122 976 127T1071 145Q1094 154 1106 168T1127 204L1202
422L1312 406Q1311 309 1300 206T1270 0H109V102L269 131Q295 136 308 152T321 194V1364Q321 1389 308 1405T269 1427L109 1458V1562H1219Q1227 1469 1227 1374T1217 1178ZM495 2084L949 1752L899 1665Q833 1693 759 1725T614 1791T480 1861T375 1931L495 2084Z"
/>
<glyph unicode="&#xc9;" glyph-name="Eacute" horiz-adv-x="1404" d="M1217 1178H1106L1060 1367Q1054 1390 1040 1403T1002 1426Q968 1439 914 1444T794 1450H544V862L1031 879V725L544 738V122H851Q916 122 976 127T1071 145Q1094 154 1106 168T1127 204L1202
422L1312 406Q1311 309 1300 206T1270 0H109V102L269 131Q295 136 308 152T321 194V1364Q321 1389 308 1405T269 1427L109 1458V1562H1219Q1227 1469 1227 1374T1217 1178ZM1112 1916Q1069 1884 1003 1851T863 1785T711 1722T566 1668L522 1752L999 2073L1112 1916Z"
/>
<glyph unicode="&#xca;" glyph-name="Ecircumflex" horiz-adv-x="1404" d="M1217 1178H1106L1060 1367Q1054 1390 1040 1403T1002 1426Q968 1439 914 1444T794 1450H544V862L1031 879V725L544 738V122H851Q916 122 976 127T1071 145Q1094 154 1106 168T1127 204L1202
422L1312 406Q1311 309 1300 206T1270 0H109V102L269 131Q295 136 308 152T321 194V1364Q321 1389 308 1405T269 1427L109 1458V1562H1219Q1227 1469 1227 1374T1217 1178ZM415 1663L346 1740L634 2048L805 2058L1121 1746L1048 1665L719 1879L415 1663Z" />
<glyph unicode="&#xcb;" glyph-name="Edieresis" horiz-adv-x="1404" d="M1217 1178H1106L1060 1367Q1054 1390 1040 1403T1002 1426Q968 1439 914 1444T794 1450H544V862L1031 879V725L544 738V122H851Q916 122 976 127T1071 145Q1094 154 1106 168T1127 204L1202
422L1312 406Q1311 309 1300 206T1270 0H109V102L269 131Q295 136 308 152T321 194V1364Q321 1389 308 1405T269 1427L109 1458V1562H1219Q1227 1469 1227 1374T1217 1178ZM1107 1836Q1107 1778 1071 1741T978 1704Q921 1704 885 1741T849 1836Q849 1894 885 1931T978
1968Q1035 1968 1071 1931T1107 1836ZM618 1836Q618 1778 582 1741T489 1704Q431 1704 396 1741T360 1836Q360 1894 395 1931T489 1968Q546 1968 582 1931T618 1836Z" />
<glyph unicode="&#xcc;" glyph-name="Igrave" horiz-adv-x="865" d="M755 1562V1458L596 1427Q571 1422 558 1406T544 1364V194Q544 168 557 152T596 131L755 102V0H109V102L269 131Q295 136 308 152T321 194V1364Q321 1389 308 1405T269 1427L109 1458V1562H755ZM193
2084L647 1752L597 1665Q531 1693 457 1725T312 1791T178 1861T73 1931L193 2084Z" />
<glyph unicode="&#xcd;" glyph-name="Iacute" horiz-adv-x="865" d="M755 1562V1458L596 1427Q571 1422 558 1406T544 1364V194Q544 168 557 152T596 131L755 102V0H109V102L269 131Q295 136 308 152T321 194V1364Q321 1389 308 1405T269 1427L109 1458V1562H755ZM810
1916Q767 1884 701 1851T561 1785T409 1722T264 1668L220 1752L697 2073L810 1916Z" />
<glyph unicode="&#xce;" glyph-name="Icircumflex" horiz-adv-x="865" d="M755 1562V1458L596 1427Q571 1422 558 1406T544 1364V194Q544 168 557 152T596 131L755 102V0H109V102L269 131Q295 136 308 152T321 194V1364Q321 1389 308 1405T269 1427L109 1458V1562H755ZM113
1663L44 1740L332 2048L503 2058L819 1746L746 1665L417 1879L113 1663Z" />
<glyph unicode="&#xcf;" glyph-name="Idieresis" horiz-adv-x="865" d="M755 1562V1458L596 1427Q571 1422 558 1406T544 1364V194Q544 168 557 152T596 131L755 102V0H109V102L269 131Q295 136 308 152T321 194V1364Q321 1389 308 1405T269 1427L109 1458V1562H755ZM805
1836Q805 1778 769 1741T676 1704Q619 1704 583 1741T547 1836Q547 1894 583 1931T676 1968Q733 1968 769 1931T805 1836ZM316 1836Q316 1778 280 1741T187 1704Q129 1704 94 1741T58 1836Q58 1894 93 1931T187 1968Q244 1968 280 1931T316 1836Z" />
<glyph unicode="&#xd0;" glyph-name="Eth" horiz-adv-x="1672" d="M1547 826Q1547 618 1492 459T1337 193T1091 34T768 -15Q701 -14 609 -7T435 0H111V102L272 131Q297 135 310 151T323 190V740H121V866H323V1371Q323 1391 311 1406T278 1425L111 1458V1562H432Q529
1562 616 1569T796 1577Q1182 1577 1364 1385T1547 826ZM545 116Q588 107 660 103T788 99Q1035 106 1171 267T1308 789Q1308 1136 1170 1300T748 1465Q684 1465 632 1459T545 1451V866H897V740H545V116Z" />
<glyph unicode="&#xd1;" glyph-name="Ntilde" horiz-adv-x="1779" d="M699 102V0H109V102L269 131Q295 136 308 152T321 194V1364Q321 1389 308 1405T269 1427L109 1458V1562H544L1343 343V1364Q1343 1389 1330 1405T1291 1427L1121 1458V1562H1682V1458L1540
1427Q1515 1421 1502 1406T1488 1364V0H1302L466 1276V194Q466 167 479 151T518 131L699 102ZM1308 1944Q1295 1900 1270 1855T1209 1775T1128 1717T1031 1694Q977 1694 932 1716T846 1764T769 1813T694 1835Q640 1835 599 1792T527 1705L452 1748Q465 1792 490
1837T551 1917T632 1974T729 1997Q783 1997 828 1975T914 1927T991 1879T1066 1857Q1120 1857 1161 1899T1233 1986L1308 1944Z" />
<glyph unicode="&#xd2;" glyph-name="Ograve" horiz-adv-x="1602" d="M775 -26Q614 -26 492 28T288 184T166 430T125 756Q125 956 175 1111T317 1372T539 1532T828 1587Q989 1587 1111 1533T1314 1378T1436 1132T1477 807Q1477 609 1428 454T1287 192T1065 30T775
-26ZM803 1469Q599 1469 485 1299T371 779Q371 443 477 268T797 93Q1001 93 1115 265T1229 787Q1229 1122 1123 1295T803 1469ZM562 2084L1016 1752L966 1665Q900 1693 826 1725T681 1791T547 1861T442 1931L562 2084Z" />
<glyph unicode="&#xd3;" glyph-name="Oacute" horiz-adv-x="1602" d="M775 -26Q614 -26 492 28T288 184T166 430T125 756Q125 956 175 1111T317 1372T539 1532T828 1587Q989 1587 1111 1533T1314 1378T1436 1132T1477 807Q1477 609 1428 454T1287 192T1065 30T775
-26ZM803 1469Q599 1469 485 1299T371 779Q371 443 477 268T797 93Q1001 93 1115 265T1229 787Q1229 1122 1123 1295T803 1469ZM1179 1916Q1136 1884 1070 1851T930 1785T778 1722T633 1668L589 1752L1066 2073L1179 1916Z" />
<glyph unicode="&#xd4;" glyph-name="Ocircumflex" horiz-adv-x="1602" d="M775 -26Q614 -26 492 28T288 184T166 430T125 756Q125 956 175 1111T317 1372T539 1532T828 1587Q989 1587 1111 1533T1314 1378T1436 1132T1477 807Q1477 609 1428 454T1287 192T1065
30T775 -26ZM803 1469Q599 1469 485 1299T371 779Q371 443 477 268T797 93Q1001 93 1115 265T1229 787Q1229 1122 1123 1295T803 1469ZM482 1663L413 1740L701 2048L872 2058L1188 1746L1115 1665L786 1879L482 1663Z" />
<glyph unicode="&#xd5;" glyph-name="Otilde" horiz-adv-x="1602" d="M775 -26Q614 -26 492 28T288 184T166 430T125 756Q125 956 175 1111T317 1372T539 1532T828 1587Q989 1587 1111 1533T1314 1378T1436 1132T1477 807Q1477 609 1428 454T1287 192T1065 30T775
-26ZM803 1469Q599 1469 485 1299T371 779Q371 443 477 268T797 93Q1001 93 1115 265T1229 787Q1229 1122 1123 1295T803 1469ZM1229 1944Q1216 1900 1191 1855T1130 1775T1049 1717T952 1694Q898 1694 853 1716T767 1764T690 1813T615 1835Q561 1835 520 1792T448
1705L373 1748Q386 1792 411 1837T472 1917T553 1974T650 1997Q704 1997 749 1975T835 1927T912 1879T987 1857Q1041 1857 1082 1899T1154 1986L1229 1944Z" />
<glyph unicode="&#xd6;" glyph-name="Odieresis" horiz-adv-x="1602" d="M775 -26Q614 -26 492 28T288 184T166 430T125 756Q125 956 175 1111T317 1372T539 1532T828 1587Q989 1587 1111 1533T1314 1378T1436 1132T1477 807Q1477 609 1428 454T1287 192T1065
30T775 -26ZM803 1469Q599 1469 485 1299T371 779Q371 443 477 268T797 93Q1001 93 1115 265T1229 787Q1229 1122 1123 1295T803 1469ZM1174 1836Q1174 1778 1138 1741T1045 1704Q988 1704 952 1741T916 1836Q916 1894 952 1931T1045 1968Q1102 1968 1138 1931T1174
1836ZM685 1836Q685 1778 649 1741T556 1704Q498 1704 463 1741T427 1836Q427 1894 462 1931T556 1968Q613 1968 649 1931T685 1836Z" />
<glyph unicode="&#xd7;" glyph-name="multiply" horiz-adv-x="1114" d="M257 195L143 315L454 617L143 920L258 1039L557 718L857 1039L971 920L660 617L971 315L858 195L557 516L257 195Z" />
<glyph unicode="&#xd8;" glyph-name="Oslash" horiz-adv-x="1602" d="M359 779Q359 602 388 469T475 250L1043 1399Q995 1436 935 1455T802 1474Q592 1474 476 1304T359 779ZM795 88Q1005 88 1121 260T1238 787Q1238 961 1210 1092T1125 1309L557 162Q605 125
664 107T795 88ZM772 -26Q694 -26 625 -13T495 26L387 -186L273 -126L383 90Q254 186 189 357T123 756Q123 956 173 1111T314 1372T536 1532T826 1587Q905 1587 975 1574T1105 1535L1195 1710L1309 1650L1217 1470Q1345 1374 1410 1204T1475 807Q1475 609 1426
454T1285 192T1063 30T772 -26Z" />
<glyph unicode="&#xd9;" glyph-name="Ugrave" horiz-adv-x="1689" d="M1042 1562H1593V1458L1472 1429Q1447 1423 1435 1407T1422 1364V576Q1422 262 1267 121T838 -21Q542 -21 404 133T266 599V1365Q266 1390 254 1406T216 1429L101 1458V1562H723V1458L547 1426Q522
1422 509 1405T495 1362V577Q495 309 598 200T877 91Q1084 91 1175 214T1266 565V1364Q1266 1390 1253 1406T1215 1427L1042 1458V1562ZM629 2084L1083 1752L1033 1665Q967 1693 893 1725T748 1791T614 1861T509 1931L629 2084Z" />
<glyph unicode="&#xda;" glyph-name="Uacute" horiz-adv-x="1689" d="M1042 1562H1593V1458L1472 1429Q1447 1423 1435 1407T1422 1364V576Q1422 262 1267 121T838 -21Q542 -21 404 133T266 599V1365Q266 1390 254 1406T216 1429L101 1458V1562H723V1458L547 1426Q522
1422 509 1405T495 1362V577Q495 309 598 200T877 91Q1084 91 1175 214T1266 565V1364Q1266 1390 1253 1406T1215 1427L1042 1458V1562ZM1246 1916Q1203 1884 1137 1851T997 1785T845 1722T700 1668L656 1752L1133 2073L1246 1916Z" />
<glyph unicode="&#xdb;" glyph-name="Ucircumflex" horiz-adv-x="1689" d="M1042 1562H1593V1458L1472 1429Q1447 1423 1435 1407T1422 1364V576Q1422 262 1267 121T838 -21Q542 -21 404 133T266 599V1365Q266 1390 254 1406T216 1429L101 1458V1562H723V1458L547
1426Q522 1422 509 1405T495 1362V577Q495 309 598 200T877 91Q1084 91 1175 214T1266 565V1364Q1266 1390 1253 1406T1215 1427L1042 1458V1562ZM549 1663L480 1740L768 2048L939 2058L1255 1746L1182 1665L853 1879L549 1663Z" />
<glyph unicode="&#xdc;" glyph-name="Udieresis" horiz-adv-x="1689" d="M1042 1562H1593V1458L1472 1429Q1447 1423 1435 1407T1422 1364V576Q1422 262 1267 121T838 -21Q542 -21 404 133T266 599V1365Q266 1390 254 1406T216 1429L101 1458V1562H723V1458L547
1426Q522 1422 509 1405T495 1362V577Q495 309 598 200T877 91Q1084 91 1175 214T1266 565V1364Q1266 1390 1253 1406T1215 1427L1042 1458V1562ZM1241 1836Q1241 1778 1205 1741T1112 1704Q1055 1704 1019 1741T983 1836Q983 1894 1019 1931T1112 1968Q1169 1968
1205 1931T1241 1836ZM752 1836Q752 1778 716 1741T623 1704Q565 1704 530 1741T494 1836Q494 1894 529 1931T623 1968Q680 1968 716 1931T752 1836Z" />
<glyph unicode="&#xdd;" glyph-name="Yacute" horiz-adv-x="1469" d="M1103 0H384V102L577 138Q603 142 617 157T631 198V599L182 1381Q171 1400 156 1411T119 1427L-7 1458V1562H604V1458L420 1421L786 760L1124 1422L937 1458V1562H1452V1458L1329 1430Q1307
1425 1291 1415T1265 1384L856 598V198Q856 172 869 157T910 138L1103 102V0ZM1113 1916Q1070 1884 1004 1851T864 1785T712 1722T567 1668L523 1752L1000 2073L1113 1916Z" />
<glyph unicode="&#xde;" glyph-name="Thorn" horiz-adv-x="1405" d="M759 439Q903 439 991 518T1079 796Q1079 948 1005 1032T748 1116Q694 1116 639 1112T535 1102V453Q595 446 650 443T759 439ZM757 102V0H123V102L263 131Q289 136 302 152T316 194V1364Q316
1389 302 1405T263 1427L123 1458V1562H757V1458L587 1427Q562 1422 549 1406T535 1364V1211Q611 1219 684 1224T830 1229Q1067 1229 1192 1125T1317 805Q1317 560 1177 447T781 333Q704 333 646 335T535 342V194Q535 168 548 152T587 131L757 102Z" />
<glyph unicode="&#xdf;" glyph-name="germandbls" horiz-adv-x="1519" d="M1013 -27Q900 -27 807 2T657 61Q653 95 651 129T649 194Q649 239 652 281T661 362H776L814 218Q823 182 832 166T863 134Q887 117 933 99T1039 80Q1127 80 1184 127T1242 255Q1242 345
1171 397T989 510Q938 538 890 568T806 635T747 721T724 833Q724 897 747 949T807 1041T893 1112T992 1163Q1008 1209 1014 1256T1021 1339Q1021 1467 955 1552T751 1638Q630 1638 560 1555T490 1269V0H99V102L222 121Q248 125 262 140T276 181V989L81 1013V1108L276
1136V1210Q276 1336 322 1443T445 1629T623 1751T834 1796Q922 1796 997 1766T1127 1682T1212 1550T1243 1381Q1244 1317 1230 1246T1196 1121Q1069 1091 997 1032T925 893Q925 814 992 768T1161 668Q1283 604 1364 527T1446 316Q1446 234 1413 170T1322 62T1185
-4T1013 -27Z" />
<glyph unicode="&#xe0;" glyph-name="agrave" horiz-adv-x="1205" d="M495 118Q567 118 641 145T767 216V483L576 466Q455 456 391 411T326 274Q326 200 367 159T495 118ZM957 -17Q885 -17 839 19T775 126Q712 58 618 18T417 -23Q349 -23 290 -5T189 47T122 133T97
251Q97 338 137 397T240 492T382 546T537 570L767 589V724Q767 878 706 941T518 1004Q423 1004 339 973T182 874L131 925Q150 982 193 1026T294 1101T426 1146T578 1162Q777 1162 877 1062T977 754V188Q977 156 991 142T1034 124L1149 114V19Q1124 10 1065 -3T957
-17ZM421 1761L775 1335L705 1260Q644 1300 581 1348T460 1446T354 1544T275 1634L421 1761Z" />
<glyph unicode="&#xe1;" glyph-name="aacute" horiz-adv-x="1205" d="M495 118Q567 118 641 145T767 216V483L576 466Q455 456 391 411T326 274Q326 200 367 159T495 118ZM957 -17Q885 -17 839 19T775 126Q712 58 618 18T417 -23Q349 -23 290 -5T189 47T122 133T97
251Q97 338 137 397T240 492T382 546T537 570L767 589V724Q767 878 706 941T518 1004Q423 1004 339 973T182 874L131 925Q150 982 193 1026T294 1101T426 1146T578 1162Q777 1162 877 1062T977 754V188Q977 156 991 142T1034 124L1149 114V19Q1124 10 1065 -3T957
-17ZM483 1260L417 1331L780 1761L926 1634Q895 1594 845 1545T736 1447T611 1349T483 1260Z" />
<glyph unicode="&#xe2;" glyph-name="acircumflex" horiz-adv-x="1205" d="M495 118Q567 118 641 145T767 216V483L576 466Q455 456 391 411T326 274Q326 200 367 159T495 118ZM957 -17Q885 -17 839 19T775 126Q712 58 618 18T417 -23Q349 -23 290 -5T189 47T122
133T97 251Q97 338 137 397T240 492T382 546T537 570L767 589V724Q767 878 706 941T518 1004Q423 1004 339 973T182 874L131 925Q150 982 193 1026T294 1101T426 1146T578 1162Q777 1162 877 1062T977 754V188Q977 156 991 142T1034 124L1149 114V19Q1124 10 1065
-3T957 -17ZM282 1259L205 1327L482 1713L649 1729L957 1333L876 1261L566 1538L282 1259Z" />
<glyph unicode="&#xe3;" glyph-name="atilde" horiz-adv-x="1205" d="M495 118Q567 118 641 145T767 216V483L576 466Q455 456 391 411T326 274Q326 200 367 159T495 118ZM957 -17Q885 -17 839 19T775 126Q712 58 618 18T417 -23Q349 -23 290 -5T189 47T122 133T97
251Q97 338 137 397T240 492T382 546T537 570L767 589V724Q767 878 706 941T518 1004Q423 1004 339 973T182 874L131 925Q150 982 193 1026T294 1101T426 1146T578 1162Q777 1162 877 1062T977 754V188Q977 156 991 142T1034 124L1149 114V19Q1124 10 1065 -3T957
-17ZM990 1545Q977 1500 954 1455T897 1374T821 1316T724 1293Q671 1293 627 1315T545 1363T470 1412T398 1434Q347 1434 308 1392T240 1304L166 1347Q179 1392 202 1437T258 1519T335 1577T432 1600Q485 1600 529 1578T611 1530T685 1481T758 1459Q809 1459 848
1501T915 1589L990 1545Z" />
<glyph unicode="&#xe4;" glyph-name="adieresis" horiz-adv-x="1205" d="M495 118Q567 118 641 145T767 216V483L576 466Q455 456 391 411T326 274Q326 200 367 159T495 118ZM957 -17Q885 -17 839 19T775 126Q712 58 618 18T417 -23Q349 -23 290 -5T189 47T122
133T97 251Q97 338 137 397T240 492T382 546T537 570L767 589V724Q767 878 706 941T518 1004Q423 1004 339 973T182 874L131 925Q150 982 193 1026T294 1101T426 1146T578 1162Q777 1162 877 1062T977 754V188Q977 156 991 142T1034 124L1149 114V19Q1124 10 1065
-3T957 -17ZM928 1463Q928 1404 893 1368T800 1331Q742 1331 707 1367T671 1463Q671 1521 706 1558T800 1595Q857 1595 892 1558T928 1463ZM483 1463Q483 1404 447 1368T354 1331Q297 1331 261 1367T225 1463Q225 1521 261 1558T354 1595Q411 1595 447 1558T483
1463Z" />
<glyph unicode="&#xe5;" glyph-name="aring" horiz-adv-x="1205" d="M495 118Q567 118 641 145T767 216V483L576 466Q455 456 391 411T326 274Q326 200 367 159T495 118ZM957 -17Q885 -17 839 19T775 126Q712 58 618 18T417 -23Q349 -23 290 -5T189 47T122 133T97
251Q97 338 137 397T240 492T382 546T537 570L767 589V724Q767 878 706 941T518 1004Q423 1004 339 973T182 874L131 925Q150 982 193 1026T294 1101T426 1146T578 1162Q777 1162 877 1062T977 754V188Q977 156 991 142T1034 124L1149 114V19Q1124 10 1065 -3T957
-17ZM843 1514Q843 1460 821 1417T763 1344T677 1297T575 1281Q449 1281 380 1347T312 1518Q313 1570 336 1612T398 1683T485 1729T587 1745Q710 1745 777 1679T843 1514ZM456 1518Q456 1467 486 1425T580 1383Q639 1383 669 1416T700 1509Q700 1560 672 1600T581
1641Q522 1641 489 1607T456 1518Z" />
<glyph unicode="&#xe6;" glyph-name="ae" horiz-adv-x="1825" d="M1262 1051Q1156 1051 1085 978T992 742H1495Q1496 753 1496 764T1497 788Q1497 906 1436 978T1262 1051ZM1707 248Q1667 126 1547 51T1265 -24Q1122 -24 1021 31T859 181Q789 83 672 30T427 -23Q280
-23 189 48T97 250Q97 337 137 396T240 492T381 546T537 570L767 588V724Q767 877 701 940T510 1004Q429 1004 342 974T182 874L131 925Q150 983 194 1027T296 1101T424 1146T564 1162Q689 1162 772 1118T898 992Q967 1076 1067 1122T1293 1168Q1385 1168 1462
1143T1595 1069T1680 945T1711 775Q1711 747 1708 707T1699 636H984Q984 629 984 622T984 607Q984 470 1010 378T1082 230T1189 150T1320 126Q1414 126 1500 170T1636 289L1707 248ZM496 118Q571 118 661 151T822 253Q800 304 787 361T770 482L576 466Q454 456
390 411T326 274Q326 200 367 159T496 118Z" />
<glyph unicode="&#xe7;" glyph-name="ccedilla" horiz-adv-x="1128" d="M111 556Q111 688 146 800T251 994T424 1122T663 1168Q758 1168 855 1147T1012 1096Q1017 1018 1011 928T992 759H882L840 926Q833 954 825 973T798 1009Q773 1029 733 1042T641 1056Q501
1056 424 943T347 602Q347 363 433 244T677 125Q771 125 845 162T965 249L1026 194Q978 95 871 36T616 -24Q491 -24 396 19T238 140T143 324T111 556ZM544 51H637L594 -87Q601 -87 613 -88T638 -91Q706 -100 751 -146T797 -266Q797 -322 770 -368T695 -448T583
-499T444 -518Q430 -518 423 -518T405 -516L392 -428Q493 -421 548 -378T603 -277Q603 -224 561 -201T467 -175L544 51Z" />
<glyph unicode="&#xe8;" glyph-name="egrave" horiz-adv-x="1179" d="M616 1054Q508 1054 437 980T345 742H848Q849 753 850 764T851 789Q851 906 790 980T616 1054ZM1061 248Q1021 127 905 52T617 -24Q489 -24 394 19T236 140T142 324T111 557Q111 700 149 814T257
1006T426 1126T646 1168Q739 1168 816 1143T948 1068T1033 945T1064 774Q1064 746 1061 707T1053 636H337Q337 629 337 621T337 605Q337 470 363 378T434 230T541 150T675 126Q773 126 856 170T989 289L1061 248ZM462 1761L816 1335L746 1260Q685 1300 622 1348T501
1446T395 1544T316 1634L462 1761Z" />
<glyph unicode="&#xe9;" glyph-name="eacute" horiz-adv-x="1179" d="M616 1054Q508 1054 437 980T345 742H848Q849 753 850 764T851 789Q851 906 790 980T616 1054ZM1061 248Q1021 127 905 52T617 -24Q489 -24 394 19T236 140T142 324T111 557Q111 700 149 814T257
1006T426 1126T646 1168Q739 1168 816 1143T948 1068T1033 945T1064 774Q1064 746 1061 707T1053 636H337Q337 629 337 621T337 605Q337 470 363 378T434 230T541 150T675 126Q773 126 856 170T989 289L1061 248ZM524 1260L458 1331L821 1761L967 1634Q936 1594
886 1545T777 1447T652 1349T524 1260Z" />
<glyph unicode="&#xea;" glyph-name="ecircumflex" horiz-adv-x="1179" d="M616 1054Q508 1054 437 980T345 742H848Q849 753 850 764T851 789Q851 906 790 980T616 1054ZM1061 248Q1021 127 905 52T617 -24Q489 -24 394 19T236 140T142 324T111 557Q111 700 149
814T257 1006T426 1126T646 1168Q739 1168 816 1143T948 1068T1033 945T1064 774Q1064 746 1061 707T1053 636H337Q337 629 337 621T337 605Q337 470 363 378T434 230T541 150T675 126Q773 126 856 170T989 289L1061 248ZM323 1259L246 1327L523 1713L690 1729L998
1333L917 1261L607 1538L323 1259Z" />
<glyph unicode="&#xeb;" glyph-name="edieresis" horiz-adv-x="1179" d="M616 1054Q508 1054 437 980T345 742H848Q849 753 850 764T851 789Q851 906 790 980T616 1054ZM1061 248Q1021 127 905 52T617 -24Q489 -24 394 19T236 140T142 324T111 557Q111 700 149
814T257 1006T426 1126T646 1168Q739 1168 816 1143T948 1068T1033 945T1064 774Q1064 746 1061 707T1053 636H337Q337 629 337 621T337 605Q337 470 363 378T434 230T541 150T675 126Q773 126 856 170T989 289L1061 248ZM969 1463Q969 1404 934 1368T841 1331Q783
1331 748 1367T712 1463Q712 1521 747 1558T841 1595Q898 1595 933 1558T969 1463ZM524 1463Q524 1404 488 1368T395 1331Q338 1331 302 1367T266 1463Q266 1521 302 1558T395 1595Q452 1595 488 1558T524 1463Z" />
<glyph unicode="&#xec;" glyph-name="igrave" horiz-adv-x="737" d="M490 1130V184Q490 157 504 141T544 121L667 102V0H98V102L221 121Q247 125 261 141T276 183V928Q276 955 263 971T223 991L84 1011V1109Q170 1135 271 1147T458 1162L490 1130ZM180 1761L534
1335L464 1260Q403 1300 340 1348T219 1446T113 1544T34 1634L180 1761Z" />
<glyph unicode="&#xed;" glyph-name="iacute" horiz-adv-x="737" d="M490 1130V184Q490 157 504 141T544 121L667 102V0H98V102L221 121Q247 125 261 141T276 183V928Q276 955 263 971T223 991L84 1011V1109Q170 1135 271 1147T458 1162L490 1130ZM242 1260L176
1331L539 1761L685 1634Q654 1594 604 1545T495 1447T370 1349T242 1260Z" />
<glyph unicode="&#xee;" glyph-name="icircumflex" horiz-adv-x="737" d="M490 1130V184Q490 157 504 141T544 121L667 102V0H98V102L221 121Q247 125 261 141T276 183V928Q276 955 263 971T223 991L84 1011V1109Q170 1135 271 1147T458 1162L490 1130ZM73 1260L-3
1322L241 1709L408 1724L683 1329L603 1262L325 1536L73 1260Z" />
<glyph unicode="&#xef;" glyph-name="idieresis" horiz-adv-x="737" d="M490 1130V184Q490 157 504 141T544 121L667 102V0H98V102L221 121Q247 125 261 141T276 183V928Q276 955 263 971T223 991L84 1011V1109Q170 1135 271 1147T458 1162L490 1130ZM687 1463Q687
1404 652 1368T559 1331Q501 1331 466 1367T430 1463Q430 1521 465 1558T559 1595Q616 1595 651 1558T687 1463ZM242 1463Q242 1404 206 1368T113 1331Q56 1331 20 1367T-16 1463Q-16 1521 20 1558T113 1595Q170 1595 206 1558T242 1463Z" />
<glyph unicode="&#xf0;" glyph-name="eth" horiz-adv-x="1278" d="M603 -23Q369 -23 242 129T114 545Q114 705 157 815T267 993T418 1090T580 1120Q653 1120 726 1097T854 1025Q816 1138 755 1237T612 1420L322 1205L242 1319L519 1503Q451 1559 371 1608T201
1699L242 1795Q359 1759 462 1709T652 1596L910 1787L991 1673L752 1517Q850 1431 924 1329T1048 1116T1121 886T1146 645Q1146 496 1112 373T1009 162T839 26T603 -23ZM629 90Q783 90 849 223T916 611Q916 680 910 746T893 873Q842 927 774 956T632 985Q509 985
429 886T348 544Q348 451 362 368T408 224T495 126T629 90Z" />
<glyph unicode="&#xf1;" glyph-name="ntilde" horiz-adv-x="1455" d="M653 102V0H98V102L221 121Q247 125 261 141T276 183V928Q276 955 263 971T223 991L84 1011V1109Q165 1134 257 1147T431 1162L466 1127L481 1004Q564 1092 668 1128T879 1164Q1078 1164 1150
1048T1222 725V182Q1222 156 1236 141T1276 121L1399 102V0H845V102L954 121Q977 125 992 139T1008 182V686Q1008 851 963 932T788 1014Q709 1014 632 990T490 917V183Q490 157 504 142T543 121L653 102ZM1146 1545Q1133 1500 1110 1455T1053 1374T977 1316T880
1293Q827 1293 783 1315T701 1363T626 1412T554 1434Q503 1434 464 1392T396 1304L322 1347Q335 1392 358 1437T414 1519T491 1577T588 1600Q641 1600 685 1578T767 1530T841 1481T914 1459Q965 1459 1004 1501T1071 1589L1146 1545Z" />
<glyph unicode="&#xf2;" glyph-name="ograve" horiz-adv-x="1287" d="M113 565Q113 722 156 837T274 1025T448 1133T662 1168Q795 1168 892 1126T1052 1007T1145 821T1175 578Q1175 421 1132 307T1014 119T839 11T625 -24Q492 -24 395 18T235 137T143 323T113
565ZM938 558Q938 671 924 763T874 919T781 1019T636 1054Q490 1054 420 943T349 586Q349 474 363 382T412 226T505 126T652 90Q797 90 867 201T938 558ZM487 1761L841 1335L771 1260Q710 1300 647 1348T526 1446T420 1544T341 1634L487 1761Z" />
<glyph unicode="&#xf3;" glyph-name="oacute" horiz-adv-x="1287" d="M113 565Q113 722 156 837T274 1025T448 1133T662 1168Q795 1168 892 1126T1052 1007T1145 821T1175 578Q1175 421 1132 307T1014 119T839 11T625 -24Q492 -24 395 18T235 137T143 323T113
565ZM938 558Q938 671 924 763T874 919T781 1019T636 1054Q490 1054 420 943T349 586Q349 474 363 382T412 226T505 126T652 90Q797 90 867 201T938 558ZM549 1260L483 1331L846 1761L992 1634Q961 1594 911 1545T802 1447T677 1349T549 1260Z" />
<glyph unicode="&#xf4;" glyph-name="ocircumflex" horiz-adv-x="1287" d="M113 565Q113 722 156 837T274 1025T448 1133T662 1168Q795 1168 892 1126T1052 1007T1145 821T1175 578Q1175 421 1132 307T1014 119T839 11T625 -24Q492 -24 395 18T235 137T143 323T113
565ZM938 558Q938 671 924 763T874 919T781 1019T636 1054Q490 1054 420 943T349 586Q349 474 363 382T412 226T505 126T652 90Q797 90 867 201T938 558ZM348 1259L271 1327L548 1713L715 1729L1023 1333L942 1261L632 1538L348 1259Z" />
<glyph unicode="&#xf5;" glyph-name="otilde" horiz-adv-x="1287" d="M113 565Q113 722 156 837T274 1025T448 1133T662 1168Q795 1168 892 1126T1052 1007T1145 821T1175 578Q1175 421 1132 307T1014 119T839 11T625 -24Q492 -24 395 18T235 137T143 323T113
565ZM938 558Q938 671 924 763T874 919T781 1019T636 1054Q490 1054 420 943T349 586Q349 474 363 382T412 226T505 126T652 90Q797 90 867 201T938 558ZM1056 1545Q1043 1500 1020 1455T963 1374T887 1316T790 1293Q737 1293 693 1315T611 1363T536 1412T464 1434Q413
1434 374 1392T306 1304L232 1347Q245 1392 268 1437T324 1519T401 1577T498 1600Q551 1600 595 1578T677 1530T751 1481T824 1459Q875 1459 914 1501T981 1589L1056 1545Z" />
<glyph unicode="&#xf6;" glyph-name="odieresis" horiz-adv-x="1287" d="M113 565Q113 722 156 837T274 1025T448 1133T662 1168Q795 1168 892 1126T1052 1007T1145 821T1175 578Q1175 421 1132 307T1014 119T839 11T625 -24Q492 -24 395 18T235 137T143 323T113
565ZM938 558Q938 671 924 763T874 919T781 1019T636 1054Q490 1054 420 943T349 586Q349 474 363 382T412 226T505 126T652 90Q797 90 867 201T938 558ZM994 1463Q994 1404 959 1368T866 1331Q808 1331 773 1367T737 1463Q737 1521 772 1558T866 1595Q923 1595
958 1558T994 1463ZM549 1463Q549 1404 513 1368T420 1331Q363 1331 327 1367T291 1463Q291 1521 327 1558T420 1595Q477 1595 513 1558T549 1463Z" />
<glyph unicode="&#xf7;" glyph-name="divide" horiz-adv-x="1219" d="M739 973Q739 918 703 883T609 848Q552 848 516 883T480 973Q480 1028 516 1062T609 1097Q666 1097 702 1063T739 973ZM1066 542H153V691H1066V542ZM739 260Q739 205 703 170T609 135Q552 135
516 170T480 260Q480 315 516 349T609 384Q666 384 702 350T739 260Z" />
<glyph unicode="&#xf8;" glyph-name="oslash" horiz-adv-x="1287" d="M340 586Q340 467 357 371T415 210L798 1011Q766 1032 726 1043T636 1054Q487 1054 414 943T340 586ZM652 90Q800 90 873 201T947 558Q947 676 931 770T875 930L494 130Q525 111 564 101T652
90ZM625 -24Q573 -24 526 -18T437 2L341 -186L235 -130L327 54Q217 126 165 258T113 565Q113 722 156 837T274 1025T448 1133T662 1168Q716 1168 764 1161T856 1140L946 1317L1052 1261L964 1087Q1072 1015 1123 883T1175 578Q1175 421 1132 307T1014 119T839 11T625
-24Z" />
<glyph unicode="&#xf9;" glyph-name="ugrave" horiz-adv-x="1395" d="M1131 -17Q1052 -17 1008 24T947 130Q881 62 795 20T591 -23Q404 -23 320 80T235 394V931Q235 956 223 972T183 993L58 1015V1113Q141 1137 238 1148T417 1162L449 1130V431Q449 271 495 196T667
121Q741 121 809 145T938 219V931Q938 957 925 973T885 994L736 1018V1116Q821 1138 928 1150T1120 1162L1152 1130V189Q1152 154 1168 141T1210 124L1324 114V19Q1291 8 1235 -4T1131 -17ZM497 1761L851 1335L781 1260Q720 1300 657 1348T536 1446T430 1544T351
1634L497 1761Z" />
<glyph unicode="&#xfa;" glyph-name="uacute" horiz-adv-x="1395" d="M1131 -17Q1052 -17 1008 24T947 130Q881 62 795 20T591 -23Q404 -23 320 80T235 394V931Q235 956 223 972T183 993L58 1015V1113Q141 1137 238 1148T417 1162L449 1130V431Q449 271 495 196T667
121Q741 121 809 145T938 219V931Q938 957 925 973T885 994L736 1018V1116Q821 1138 928 1150T1120 1162L1152 1130V189Q1152 154 1168 141T1210 124L1324 114V19Q1291 8 1235 -4T1131 -17ZM559 1260L493 1331L856 1761L1002 1634Q971 1594 921 1545T812 1447T687
1349T559 1260Z" />
<glyph unicode="&#xfb;" glyph-name="ucircumflex" horiz-adv-x="1395" d="M1131 -17Q1052 -17 1008 24T947 130Q881 62 795 20T591 -23Q404 -23 320 80T235 394V931Q235 956 223 972T183 993L58 1015V1113Q141 1137 238 1148T417 1162L449 1130V431Q449 271 495
196T667 121Q741 121 809 145T938 219V931Q938 957 925 973T885 994L736 1018V1116Q821 1138 928 1150T1120 1162L1152 1130V189Q1152 154 1168 141T1210 124L1324 114V19Q1291 8 1235 -4T1131 -17ZM358 1259L281 1327L558 1713L725 1729L1033 1333L952 1261L642
1538L358 1259Z" />
<glyph unicode="&#xfc;" glyph-name="udieresis" horiz-adv-x="1395" d="M1131 -17Q1052 -17 1008 24T947 130Q881 62 795 20T591 -23Q404 -23 320 80T235 394V931Q235 956 223 972T183 993L58 1015V1113Q141 1137 238 1148T417 1162L449 1130V431Q449 271 495
196T667 121Q741 121 809 145T938 219V931Q938 957 925 973T885 994L736 1018V1116Q821 1138 928 1150T1120 1162L1152 1130V189Q1152 154 1168 141T1210 124L1324 114V19Q1291 8 1235 -4T1131 -17ZM1004 1463Q1004 1404 969 1368T876 1331Q818 1331 783 1367T747
1463Q747 1521 782 1558T876 1595Q933 1595 968 1558T1004 1463ZM559 1463Q559 1404 523 1368T430 1331Q373 1331 337 1367T301 1463Q301 1521 337 1558T430 1595Q487 1595 523 1558T559 1463Z" />
<glyph unicode="&#xfd;" glyph-name="yacute" horiz-adv-x="1253" d="M279 -517Q224 -517 164 -512T45 -498V-372Q163 -362 254 -343T415 -283T538 -175T636 0H533L170 961Q162 983 147 996T110 1015L27 1038V1137L568 1136V1037L397 1008L697 175L960 1008L797
1038V1137H1232V1038L1150 1015Q1126 1008 1112 996T1089 958L748 -43Q664 -286 559 -401T279 -517ZM567 1260L501 1331L864 1761L1010 1634Q979 1594 929 1545T820 1447T695 1349T567 1260Z" />
<glyph unicode="&#xfe;" glyph-name="thorn" horiz-adv-x="1305" d="M614 90Q772 90 865 199T963 570Q966 806 888 913T660 1021Q580 1021 516 996T410 933V139Q445 117 498 104T614 90ZM631 -395V-496H18V-395L142 -375Q169 -371 182 -356T196 -314V1567Q196
1593 182 1608T142 1627L-6 1649V1741Q81 1766 186 1781T378 1798L410 1767V1031Q471 1092 552 1130T746 1168Q841 1168 923 1137T1064 1040T1158 871T1192 625Q1192 474 1152 353T1037 149T854 22T608 -23Q559 -23 508 -16T410 5V-315Q410 -341 424 -356T465 -375L631
-395Z" />
<glyph unicode="&#xff;" glyph-name="ydieresis" horiz-adv-x="1253" d="M279 -517Q224 -517 164 -512T45 -498V-372Q163 -362 254 -343T415 -283T538 -175T636 0H533L170 961Q162 983 147 996T110 1015L27 1038V1137L568 1136V1037L397 1008L697 175L960 1008L797
1038V1137H1232V1038L1150 1015Q1126 1008 1112 996T1089 958L748 -43Q664 -286 559 -401T279 -517ZM1012 1463Q1012 1404 977 1368T884 1331Q826 1331 791 1367T755 1463Q755 1521 790 1558T884 1595Q941 1595 976 1558T1012 1463ZM567 1463Q567 1404 531 1368T438
1331Q381 1331 345 1367T309 1463Q309 1521 345 1558T438 1595Q495 1595 531 1558T567 1463Z" />
<glyph unicode="&#x2013;" glyph-name="endash" horiz-adv-x="1487" d="M161 519V672H1326V519H161Z" />
<glyph unicode="&#x2014;" glyph-name="emdash" horiz-adv-x="2228" d="M161 520V672H2067V520H161Z" />
<glyph unicode="&#x2018;" glyph-name="quoteleft" horiz-adv-x="562" d="M110 1446Q110 1581 194 1694T410 1877L459 1815Q392 1761 342 1695T291 1563Q291 1526 305 1513T343 1487Q371 1470 396 1439T421 1357Q421 1298 382 1258T281 1217Q213 1217 162 1274T110 1446Z" />
<glyph unicode="&#x2019;" glyph-name="quoteright" horiz-adv-x="565" d="M466 1628Q466 1493 382 1380T166 1197L117 1259Q184 1313 234 1379T285 1511Q285 1548 270 1561T233 1587Q205 1604 180 1635T154 1717Q154 1775 193 1816T295 1857Q363 1857 414 1800T466
1628Z" />
<glyph unicode="&#x201a;" glyph-name="quotesinglbase" horiz-adv-x="626" d="M465 156Q465 21 381 -92T165 -275L116 -213Q183 -159 233 -93T284 39Q284 76 269 89T232 115Q204 132 179 163T153 245Q153 303 192 344T294 385Q362 385 413 328T465 156Z" />
<glyph unicode="&#x201c;" glyph-name="quotedblleft" horiz-adv-x="983" d="M531 1446Q531 1581 615 1694T831 1877L880 1815Q813 1761 763 1695T712 1563Q712 1526 726 1513T764 1487Q792 1470 817 1439T842 1357Q842 1298 803 1258T702 1217Q634 1217 583 1274T531
1446ZM110 1446Q110 1581 194 1694T410 1877L459 1815Q392 1761 342 1695T291 1563Q291 1526 305 1513T343 1487Q371 1470 396 1439T421 1357Q421 1298 382 1258T281 1217Q213 1217 162 1274T110 1446Z" />
<glyph unicode="&#x201d;" glyph-name="quotedblright" horiz-adv-x="986" d="M466 1628Q466 1493 382 1380T166 1197L117 1259Q184 1313 234 1379T285 1511Q285 1548 270 1561T233 1587Q205 1604 180 1635T154 1717Q154 1775 193 1816T295 1857Q363 1857 414
1800T466 1628ZM887 1628Q887 1493 803 1380T587 1197L538 1259Q605 1313 655 1379T706 1511Q706 1548 691 1561T654 1587Q626 1604 601 1635T575 1717Q575 1775 614 1816T716 1857Q784 1857 835 1800T887 1628Z" />
<glyph unicode="&#x201e;" glyph-name="quotedblbase" horiz-adv-x="1048" d="M465 156Q465 21 381 -92T165 -275L116 -213Q183 -159 233 -93T284 39Q284 76 269 89T232 115Q204 132 179 163T153 245Q153 303 192 344T294 385Q362 385 413 328T465 156ZM886 156Q886
21 802 -92T586 -275L537 -213Q604 -159 654 -93T705 39Q705 76 690 89T653 115Q625 132 600 163T574 245Q574 303 613 344T715 385Q783 385 834 328T886 156Z" />
<glyph unicode="&#x2022;" glyph-name="bullet" horiz-adv-x="867" d="M677 635Q677 531 610 467T433 403Q324 403 257 467T190 635Q190 740 257 804T433 868Q543 868 610 804T677 635Z" />
<glyph unicode="&#x2039;" glyph-name="guilsinglleft" horiz-adv-x="849" d="M665 102L106 541V683L665 1132L737 1051L342 614L742 186L665 102Z" />
<glyph unicode="&#x203a;" glyph-name="guilsinglright" horiz-adv-x="849" d="M184 102L107 186L507 614L112 1051L184 1132L743 683V541L184 102Z" />
</font>
</defs>
</svg>
