<?xml version="1.0" standalone="no"?>
<!DOCTYPE svg PUBLIC "-//W3C//DTD SVG 1.1//EN" "http://www.w3.org/Graphics/SVG/1.1/DTD/svg11.dtd">
<svg xmlns="http://www.w3.org/2000/svg">
<defs >
<font id="Padauk" horiz-adv-x="464" ><font-face
    font-family="Padauk"
    units-per-em="1024"
    panose-1="2 0 7 0 2 0 0 2 0 4"
    ascent="1010"
    descent="-500"
    alphabetic="0" />
<glyph unicode=" " glyph-name="space" horiz-adv-x="505" />
<glyph unicode="!" glyph-name="exclam" horiz-adv-x="273" d="M115 813T137 813T173 797T189 753Q192 718 192 670Q192 449 166 267Q160 226 155 213T137 200T119 213T108 268Q83 455 83 670Q83 718 86 753Q88 780 101 796ZM218 59Q218 26 194 3T137 -20T80 3T56
59Q56 91 80 114T137 138T194 115T218 59Z" />
<glyph unicode="&quot;" glyph-name="quotedbl" horiz-adv-x="443" d="M182 643L160 385H84L62 643H182ZM380 643L359 385H282L260 643H380Z" />
<glyph unicode="#" glyph-name="numbersign" horiz-adv-x="555" d="M324 265H240L230 181H314L324 265ZM500 88H395L380 -25H287L302 88H218L203 -25H110L125 88H55V181H137L147 265H55V358H159L177 485H270L253 358H336L354 485H447L430 358H500V265H417L407
181H500V88Z" />
<glyph unicode="$" glyph-name="dollar" horiz-adv-x="507" d="M371 172Q371 211 349 232T277 269V83Q371 92 371 172ZM231 386V555Q186 549 168 527T149 468Q149 436 167 420T231 386ZM479 182Q479 96 420 46T277 -12V-92H231V-13Q135 -5 81 49T27 197H137Q137
89 231 82V279Q189 292 169 298T120 320T77 352T52 395T41 459Q41 539 97 593T231 648V708H277V649Q359 649 409 597T460 464H349Q349 509 332 530T277 557V372Q373 345 408 323Q479 277 479 182Z" />
<glyph unicode="%" glyph-name="percent" horiz-adv-x="743" d="M613 62T613 84T597 123T560 140Q536 140 520 123T504 84Q504 61 520 44T560 27Q580 27 596 44ZM238 324T238 346T222 385T186 403Q162 403 146 386T129 346Q129 324 145 307T186 290Q206 290 222
307ZM691 84Q691 32 652 -8T560 -49Q506 -49 466 -9T426 84Q426 138 465 178T560 218Q613 218 652 178T691 84ZM316 346Q316 295 277 255T186 214Q131 214 91 254T51 346Q51 401 91 441T186 481Q238 481 277 441T316 346ZM587 440L227 -69L156 -9L511 497L587 440Z"
/>
<glyph unicode="&amp;" glyph-name="ampersand" horiz-adv-x="696" d="M421 115Q314 209 236 305Q163 250 163 186Q163 139 201 106T292 72Q375 72 421 115ZM361 517Q361 538 340 556T292 574Q256 574 235 557T214 513Q214 473 272 409Q310 430 335 459T361 517ZM688
0H543L488 51Q413 -12 289 -12Q190 -12 120 37T49 177Q49 304 185 369Q107 437 107 520Q107 585 161 620T285 655Q356 655 407 623T459 531Q459 499 448 472T413 422T373 387T324 353Q376 287 475 193Q494 243 494 310Q494 335 493 348H605Q599 218 551 121Q595
67 688 0Z" />
<glyph unicode="&apos;" glyph-name="quotesingle" horiz-adv-x="353" d="M236 643L214 385H138L116 643H236Z" />
<glyph unicode="(" glyph-name="parenleft" horiz-adv-x="441" d="M396 -464H289Q175 -322 125 -154T74 220Q74 612 292 917H396Q167 598 167 220Q167 -180 396 -464Z" />
<glyph unicode=")" glyph-name="parenright" horiz-adv-x="442" d="M368 224Q368 -191 152 -460H45Q275 -181 275 224Q275 605 45 921H150Q368 613 368 224Z" />
<glyph unicode="*" glyph-name="asterisk" horiz-adv-x="568" d="M512 383L464 301L332 380V225H239V380L106 301L55 382L192 461L55 539L106 619L237 543V696H332V544L464 619L512 538L379 461L512 383Z" />
<glyph unicode="+" glyph-name="plus" horiz-adv-x="578" d="M485 271V178H335V28H242V178H93V271H242V422H335V271H485Z" />
<glyph unicode="," glyph-name="comma" horiz-adv-x="249" d="M208 62Q208 -4 174 -63T95 -148L83 -133Q107 -114 124 -79T141 -5Q141 11 140 18Q131 11 107 3T70 -5Q57 -5 49 15T40 62Q40 98 65 124T123 151Q160 151 184 125T208 62Z" />
<glyph unicode="-" glyph-name="hyphen" horiz-adv-x="503" d="M447 267V174H55V267H447Z" />
<glyph unicode="." glyph-name="period" horiz-adv-x="243" d="M203 91T203 59T179 4T122 -20Q89 -20 65 3T40 59Q40 91 64 114T122 138Q154 138 178 115Z" />
<glyph unicode="/" glyph-name="slash" horiz-adv-x="537" d="M481 756L127 -254L55 -182L409 825L481 756Z" />
<glyph unicode="0" glyph-name="zero" horiz-adv-x="507" d="M356 326Q356 382 353 418T341 493T310 551T254 571Q219 571 197 551T165 492T152 417T149 326Q149 271 152 233T165 154T197 92T254 71Q281 71 301 86T331 124T347 184T354 251T356 326ZM471 326Q471
-13 254 -13Q36 -13 36 326Q36 655 254 655Q471 655 471 326Z" />
<glyph unicode="1" glyph-name="one" horiz-adv-x="507" d="M353 0H246V523Q180 466 97 443V540Q187 574 249 643H353V0Z" />
<glyph unicode="2" glyph-name="two" horiz-adv-x="507" d="M469 0H37V104Q355 343 355 469Q355 512 332 538T269 565Q226 565 200 539T172 467H56Q58 552 117 603T267 655T413 605T469 476Q469 424 449 377T359 255T162 91H469V0Z" />
<glyph unicode="3" glyph-name="three" horiz-adv-x="507" d="M465 178Q465 96 402 42T253 -13Q148 -13 95 37T41 177H157Q159 133 182 104T248 75Q292 75 321 104T351 182Q351 248 317 269T201 291V379Q270 380 304 401T338 475Q338 520 313 543T250 567Q210
567 186 543T159 474H46Q50 559 104 607T252 655Q341 655 396 605T451 476Q451 420 424 389T349 336Q403 317 434 282T465 178Z" />
<glyph unicode="4" glyph-name="four" horiz-adv-x="507" d="M297 239V531L118 239H297ZM485 146H404V0H297V146H21V254L269 643H404V239H485V146Z" />
<glyph unicode="5" glyph-name="five" horiz-adv-x="507" d="M468 221Q468 124 404 56T247 -12T98 33T38 161H150Q150 76 243 76Q294 76 324 115T354 215Q354 339 257 339Q218 339 194 321T150 262H48L64 643H430V550H171L161 371Q203 422 291 422Q371 422 419
363T468 221Z" />
<glyph unicode="6" glyph-name="six" horiz-adv-x="507" d="M356 200Q356 324 260 324Q163 324 163 200Q163 75 260 75Q356 75 356 200ZM473 209Q473 169 461 132T425 62T357 8T255 -13Q189 -13 145 10T77 78T44 175T34 297Q34 351 39 398T60 494T101 577T168
633T266 655Q348 655 399 610T459 485H347Q346 523 324 545T268 567Q232 567 206 541T168 473T151 396T146 328Q173 367 205 387T293 407Q340 407 376 389T432 341T463 278T473 209Z" />
<glyph unicode="7" glyph-name="seven" horiz-adv-x="507" d="M463 530L248 0H116L356 551H44V643H463V530Z" />
<glyph unicode="8" glyph-name="eight" horiz-adv-x="507" d="M358 139T358 187T331 266T254 297Q206 297 178 266T150 187Q150 139 177 108T254 76Q304 76 331 107ZM344 435T344 477T320 543T254 567Q212 567 188 543T163 477T188 411T254 386Q293 386 318 410ZM473
166Q473 75 409 32T254 -12Q161 -12 98 31T34 166Q34 236 68 279T155 343Q47 386 47 493Q47 576 108 615T254 655Q340 655 400 616T460 490Q460 434 427 398T345 343Q397 326 435 282T473 166Z" />
<glyph unicode="9" glyph-name="nine" horiz-adv-x="507" d="M343 443Q343 567 246 567Q150 567 150 443Q150 318 246 318Q343 318 343 443ZM473 413T473 345T463 219T428 106T355 19T240 -13Q161 -13 106 34T47 158H159Q160 118 182 97T239 75Q275 75 301 101T339
167T356 244T361 314Q315 236 213 236Q164 236 128 255T72 305T43 369T34 434Q34 475 46 512T82 583T150 635T251 655Q319 655 364 631T433 560T464 464Z" />
<glyph unicode=":" glyph-name="colon" horiz-adv-x="243" d="M203 91T203 59T179 4T122 -20Q89 -20 65 3T40 59Q40 92 64 115T122 138Q154 138 178 115ZM203 384Q203 352 179 329T122 305Q89 305 65 328T40 384Q40 417 64 440T122 464Q154 464 178 441T203 384Z" />
<glyph unicode=";" glyph-name="semicolon" horiz-adv-x="246" d="M198 56Q198 -1 168 -52T96 -131L79 -117Q102 -99 119 -67T136 1Q136 11 135 15Q88 -6 68 -6Q63 -6 57 0T46 22T40 58Q40 90 63 115T117 140Q152 140 175 115T198 56ZM203 385Q203 352 179 329T122
305Q89 305 65 328T40 385Q40 417 64 440T122 464Q154 464 178 441T203 385Z" />
<glyph unicode="&lt;" glyph-name="less" horiz-adv-x="891" d="M712 110V34L178 238V295L712 499V424L291 267L712 110Z" />
<glyph unicode="=" glyph-name="equal" horiz-adv-x="586" d="M550 368V275H35V368H550ZM550 171V78H35V171H550Z" />
<glyph unicode="&gt;" glyph-name="greater" horiz-adv-x="891" d="M712 295V238L178 34V110L599 267L178 424V499L712 295Z" />
<glyph unicode="?" glyph-name="question" horiz-adv-x="447" d="M392 584Q392 541 378 511T343 463T302 430T267 395T252 346V200H159V362Q159 396 173 421T209 463T250 495T285 533T300 584Q300 619 271 648T206 678Q166 678 140 647T113 578V555H20V578Q20
646 71 709T206 773Q288 773 340 716T392 584ZM269 57Q269 30 250 12T205 -7T161 12T143 57Q143 83 161 100T205 118T250 100T269 57Z" />
<glyph unicode="@" glyph-name="at" horiz-adv-x="915" d="M543 236Q543 363 451 363Q406 363 383 322T359 230Q359 175 380 135T449 95T519 138T543 236ZM873 270Q873 169 823 89T685 8T560 84Q508 12 429 12T299 76T247 226Q247 319 295 382T424 446Q495 446
544 387V435H652V139Q652 117 664 107T694 96Q721 96 742 137T763 247Q763 393 684 474T466 555Q333 555 243 464T152 228Q152 95 240 7T455 -82Q585 -82 654 -58V-161Q555 -179 485 -179Q394 -179 315 -153T174 -77T77 54T41 237Q41 419 167 534T468 649Q645 649
759 546T873 270Z" />
<glyph unicode="A" glyph-name="A" horiz-adv-x="644" d="M420 241L321 514L220 241H420ZM634 0H515L457 149H183L127 0H10L261 643H382L634 0Z" />
<glyph unicode="B" glyph-name="B" horiz-adv-x="600" d="M430 191Q430 240 392 264T292 288H183V94H293Q354 94 392 118T430 191ZM405 464Q405 504 375 526T294 549H183V379H287Q340 379 372 402T405 464ZM550 170Q550 95 484 48T341 0H66V643H328Q410 643 465
602T521 485Q521 384 399 336Q550 292 550 170Z" />
<glyph unicode="C" glyph-name="C" horiz-adv-x="634" d="M584 201Q577 107 503 47T326 -13Q254 -13 199 14T112 89T65 195T49 320Q49 464 119 559T326 655Q445 655 508 602T578 450H462Q450 564 326 564Q170 564 170 320Q170 198 207 138T325 78Q384 78 417 111T458
201H584Z" />
<glyph unicode="D" glyph-name="D" horiz-adv-x="646" d="M478 210T478 322T423 491T263 549H183V94H263Q368 94 423 152ZM596 322Q596 175 508 88T262 0H66V643H262Q422 643 509 556T596 322Z" />
<glyph unicode="E" glyph-name="E" horiz-adv-x="552" d="M490 0H66V643H481V549H180V377H466V287H180V94H490V0Z" />
<glyph unicode="F" glyph-name="F" horiz-adv-x="516" d="M444 284H183V0H66V643H462V549H183V377H444V284Z" />
<glyph unicode="G" glyph-name="G" horiz-adv-x="687" d="M621 29Q478 -13 389 -13Q223 -13 136 81T49 325Q49 467 139 561T371 655Q492 655 559 600T627 455H508Q507 503 468 532T371 561Q268 561 219 493T170 323Q170 216 225 149T383 82Q433 82 501 98V245H375V342H621V29Z"
/>
<glyph unicode="H" glyph-name="H" horiz-adv-x="635" d="M570 0H453V287H181V0H66V643H181V380H453V643H570V0Z" />
<glyph unicode="I" glyph-name="I" horiz-adv-x="249" d="M183 0H66V643H183V0Z" />
<glyph unicode="J" glyph-name="J" horiz-adv-x="541" d="M476 191Q476 100 412 44T258 -13Q49 -13 49 192H169Q169 82 257 82Q357 82 357 196V644H476V191Z" />
<glyph unicode="K" glyph-name="K" horiz-adv-x="610" d="M582 0H435L183 328V0H66V643H183V368L415 643H553L311 359L582 0Z" />
<glyph unicode="L" glyph-name="L" horiz-adv-x="496" d="M472 0H66V643H183V94H472V0Z" />
<glyph unicode="M" glyph-name="M" horiz-adv-x="818" d="M753 0H640V542L463 0H354L178 540V0H66V643H255L409 160L563 645H753V0Z" />
<glyph unicode="N" glyph-name="N" horiz-adv-x="670" d="M606 0H438L178 518V0H66V643H232L492 124V643H606V0Z" />
<glyph unicode="O" glyph-name="O" horiz-adv-x="701" d="M530 326Q530 561 351 561Q171 561 171 326Q171 82 351 82Q530 82 530 326ZM651 326Q651 177 572 82T351 -13Q205 -13 127 83T49 326Q49 473 128 564T351 655Q496 655 573 563T651 326Z" />
<glyph unicode="P" glyph-name="P" horiz-adv-x="575" d="M406 447Q406 502 369 525T257 549H183V348H257Q330 348 368 370T406 447ZM524 447Q524 393 504 354T447 294T369 264T278 254H183V0H66V643H278Q386 643 455 596T524 447Z" />
<glyph unicode="Q" glyph-name="Q" horiz-adv-x="729" d="M530 326Q530 561 351 561Q171 561 171 326Q171 82 351 82Q530 82 530 326ZM699 0H464Q371 -13 351 -13Q205 -13 127 83T49 326Q49 473 128 564T351 655Q496 655 573 563T651 326Q651 178 569 90H699V0Z" />
<glyph unicode="R" glyph-name="R" horiz-adv-x="592" d="M423 455Q423 501 387 525T299 549H183V366H293Q344 366 383 389T423 455ZM557 0H436Q428 29 424 54T416 108T409 154Q397 222 372 247T288 272H183V0H66V643H299Q421 643 481 601T542 469Q542 378 411
322Q484 306 503 258Q514 232 528 133T557 0Z" />
<glyph unicode="S" glyph-name="S" horiz-adv-x="601" d="M551 184Q551 118 510 72T412 7T292 -13Q189 -13 119 43T49 199H170Q171 142 204 112T294 82Q328 82 358 89T412 118T436 174Q436 210 409 233T340 266T251 289T161 318T93 371T65 464Q65 550 138 602T299
655Q398 655 464 609T531 469H411Q411 517 379 540T298 564Q251 564 216 541T180 473Q180 440 207 419T276 388T365 364T455 332T523 277T551 184Z" />
<glyph unicode="T" glyph-name="T" horiz-adv-x="560" d="M536 549H339V0H220V549H24V643H536V549Z" />
<glyph unicode="U" glyph-name="U" horiz-adv-x="667" d="M603 272Q603 134 531 61T329 -13Q199 -13 133 61T66 272V643H183V272Q183 170 221 126T332 82Q406 82 445 126T484 272V643H603V272Z" />
<glyph unicode="V" glyph-name="V" horiz-adv-x="632" d="M622 643L382 0H244L10 643H139L316 137L494 643H622Z" />
<glyph unicode="W" glyph-name="W" horiz-adv-x="882" d="M872 643L701 0H573L441 499L308 0H181L10 643H137L247 151L376 643H506L634 151L745 643H872Z" />
<glyph unicode="X" glyph-name="X" horiz-adv-x="621" d="M606 0H467L300 256L137 0H13L241 337L36 643H174L317 419L458 643H585L376 337L606 0Z" />
<glyph unicode="Y" glyph-name="Y" horiz-adv-x="587" d="M575 643L352 247V0H234V247L10 643H145L294 360L443 643H575Z" />
<glyph unicode="Z" glyph-name="Z" horiz-adv-x="559" d="M518 0H40V106L376 549H59V643H511V535L175 94H518V0Z" />
<glyph unicode="[" glyph-name="bracketleft" horiz-adv-x="349" d="M269 -177H80V643H269V574H178V-108H269V-177Z" />
<glyph unicode="\" glyph-name="backslash" horiz-adv-x="537" d="M481 -182L410 -254L55 756L128 825L481 -182Z" />
<glyph unicode="]" glyph-name="bracketright" horiz-adv-x="349" d="M269 -177H80V-108H173V574H80V643H269V-177Z" />
<glyph unicode="^" glyph-name="asciicircum" horiz-adv-x="536" d="M499 619L449 569L268 749L87 569L37 619L268 851L499 619Z" />
<glyph unicode="_" glyph-name="underscore" horiz-adv-x="577" d="M577 -179H0V-86H577V-179Z" />
<glyph unicode="`" glyph-name="grave" horiz-adv-x="218" d="M169 534H109L-23 692H85L169 534Z" />
<glyph unicode="a" glyph-name="a" horiz-adv-x="491" d="M327 221Q305 223 284 223Q226 223 188 200T150 130Q150 101 171 81T225 61T278 73T309 110T323 159T327 221ZM446 0H347Q338 35 335 56Q296 17 268 3T200 -12Q134 -12 88 24T41 122T76 221T159 273T263
287H327V303Q327 346 310 368T247 390Q175 390 168 323H61Q61 387 112 422T248 457Q308 457 358 438T423 372Q433 344 433 263V148Q433 46 446 0Z" />
<glyph unicode="b" glyph-name="b" horiz-adv-x="539" d="M389 221Q389 262 380 298T343 362T274 390Q220 390 193 346T165 224Q165 157 192 109T276 61Q330 61 359 107T389 221ZM498 224Q498 117 442 53T298 -12Q210 -12 166 51V0H59V643H165V398Q214 457 303
457Q358 457 398 435T458 376T488 301T498 224Z" />
<glyph unicode="c" glyph-name="c" horiz-adv-x="461" d="M421 159Q421 78 376 33T238 -12Q42 -12 42 219Q42 336 91 396T235 457Q327 457 373 417T419 302V295H314Q315 341 293 364T237 387Q189 387 167 350T144 221Q144 131 164 95T235 58Q312 58 314 159H421Z" />
<glyph unicode="d" glyph-name="d" horiz-adv-x="539" d="M373 220Q373 299 344 344T261 389Q203 389 176 337T148 219Q148 156 178 109T262 62Q317 62 345 112T373 220ZM479 0H373V58Q316 -12 248 -12Q156 -12 99 53T42 215Q42 322 92 389T234 457Q323 457 373
399V643H479V0Z" />
<glyph unicode="e" glyph-name="e" horiz-adv-x="493" d="M339 272Q339 388 247 388Q157 388 152 272H339ZM445 139Q436 68 387 28T246 -12Q140 -12 91 54T42 221Q42 325 95 391T253 457Q308 457 349 438T411 385T442 316T452 239Q452 226 450 202H152Q153 131
174 94T249 57Q325 57 336 139H445Z" />
<glyph unicode="f" glyph-name="f" horiz-adv-x="309" d="M309 567Q283 580 259 580Q225 580 212 564T199 510V445H297V375H199V0H91V375H9V445H91V513Q91 590 124 622T227 654Q268 654 309 640V567Z" />
<glyph unicode="g" glyph-name="g" horiz-adv-x="539" d="M373 225Q373 388 262 388Q202 388 175 339T148 223Q148 159 176 119T261 78T345 122T373 225ZM479 11Q479 -77 422 -127T260 -177Q154 -177 110 -137T65 -43H173Q173 -73 199 -90T266 -108Q327 -108 349
-69T372 77Q320 5 244 5Q148 5 95 63T42 223Q42 330 94 393T235 457T372 402V445H479V11Z" />
<glyph unicode="h" glyph-name="h" horiz-adv-x="524" d="M465 0H357V271Q357 390 273 390Q225 390 196 352T166 273V0H59V643H166V395Q213 457 310 457Q388 457 426 414T465 294V0Z" />
<glyph unicode="i" glyph-name="i" horiz-adv-x="225" d="M166 0H59V445H166V0ZM173 538H51V643H173V538Z" />
<glyph unicode="j" glyph-name="j" horiz-adv-x="294" d="M235 -72Q235 -123 201 -155T105 -188Q29 -188 -21 -143L32 -76Q55 -99 83 -99Q127 -99 127 -45V445H235V-72ZM241 616L214 538L121 565L149 643L241 616Z" />
<glyph unicode="k" glyph-name="k" horiz-adv-x="475" d="M460 0H326L166 234V0H59V643H166V265L316 445H446L279 253L460 0Z" />
<glyph unicode="l" glyph-name="l" horiz-adv-x="225" d="M166 0H59V643H166V0Z" />
<glyph unicode="m" glyph-name="m" horiz-adv-x="808" d="M748 0H641V286Q641 330 618 359T557 388Q516 388 487 352T458 272V0H351V286Q351 328 328 358T268 388Q224 388 195 350T166 268V0H59V445H166V383Q217 457 303 457Q358 457 389 439T445 376Q477 422
509 439T592 457Q673 457 710 411T748 291V0Z" />
<glyph unicode="n" glyph-name="n" horiz-adv-x="524" d="M457 0H350V276Q350 330 326 360T260 391Q215 391 187 355T158 259V0H51V445H158V389Q183 426 215 441T300 457Q378 457 417 415T457 299V0Z" />
<glyph unicode="o" glyph-name="o" horiz-adv-x="535" d="M385 222Q385 299 356 343T268 387Q211 387 180 342T149 222T180 103T268 58Q326 58 355 102T385 222ZM494 222Q494 115 431 52T268 -12Q168 -12 105 52T42 222Q42 329 105 393T268 457Q368 457 431 392T494 222Z" />
<glyph unicode="p" glyph-name="p" horiz-adv-x="542" d="M392 227Q392 291 364 338T278 385T193 336T165 224Q165 57 275 57Q335 57 363 108T392 227ZM501 227Q501 116 449 52T300 -13Q257 -13 228 0T166 42V-177H59V445H166V385Q227 457 295 457Q395 457 448
393T501 227Z" />
<glyph unicode="q" glyph-name="q" horiz-adv-x="542" d="M376 224Q376 288 348 336T264 385Q206 385 178 338T149 227Q149 159 178 108T267 57Q376 57 376 224ZM482 -177H375V42Q341 12 313 0T241 -13Q145 -13 94 51T42 227Q42 330 94 393T247 457Q323 457 375
385V445H482V-177Z" />
<glyph unicode="r" glyph-name="r" horiz-adv-x="338" d="M322 361Q166 361 166 235V0H59V445H166V379Q188 420 220 436T322 453V361Z" />
<glyph unicode="s" glyph-name="s" horiz-adv-x="458" d="M416 136Q416 61 359 25T220 -12Q139 -12 91 23T42 135H149Q150 93 170 75T231 57Q263 57 287 75T312 123Q312 146 293 161T245 182T182 198T120 219T72 258T52 327Q52 383 99 420T229 457Q405 457 405
318H298Q297 353 282 370T224 388Q195 388 176 372T157 331Q157 308 183 295T248 273T324 254T389 213T416 136Z" />
<glyph unicode="t" glyph-name="t" horiz-adv-x="353" d="M329 3Q291 -11 246 -11Q187 -11 150 20T112 111V375H26V445H112V521L219 574V445H323V375H219V134Q219 64 283 64Q307 64 329 72V3Z" />
<glyph unicode="u" glyph-name="u" horiz-adv-x="524" d="M465 0H357V59Q333 20 301 4T216 -12Q139 -12 99 28T59 145V445H166V169Q166 114 190 84T255 54Q303 54 330 87T357 184V445H465V0Z" />
<glyph unicode="v" glyph-name="v" horiz-adv-x="482" d="M471 445L299 0H183L10 445H127L243 122L357 445H471Z" />
<glyph unicode="w" glyph-name="w" horiz-adv-x="750" d="M739 445L599 0H477L375 331L273 0H151L10 445H122L214 133L311 445H438L536 133L629 445H739Z" />
<glyph unicode="x" glyph-name="x" horiz-adv-x="487" d="M475 0H346L236 164L132 0H12L177 236L26 445H155L252 304L341 445H461L312 236L475 0Z" />
<glyph unicode="y" glyph-name="y" horiz-adv-x="481" d="M471 445L268 -103Q254 -139 221 -160T139 -182Q97 -182 62 -161T7 -102L78 -51Q97 -93 135 -93Q160 -93 175 -51L193 0L10 445H132L248 143L356 445H471Z" />
<glyph unicode="z" glyph-name="z" horiz-adv-x="441" d="M399 0H42V87L277 373H50V445H391V358L154 70H399V0Z" />
<glyph unicode="{" glyph-name="braceleft" horiz-adv-x="430" d="M375 -413Q335 -413 304 -400T251 -366T215 -309T192 -237T178 -148T172 -49T171 61Q171 89 155 113T121 151T86 186T70 226Q70 245 86 265T120 299T155 338T171 390Q171 455 172 500T178 598T191
688T215 760T251 817T303 851T375 864V773Q308 773 286 680T264 376Q264 340 251 310T221 266T191 240T177 226T190 212T220 187T250 142T264 74Q264 -135 286 -228T375 -322V-413Z" />
<glyph unicode="|" glyph-name="bar" horiz-adv-x="336" d="M212 -230H124V709H212V-230Z" />
<glyph unicode="}" glyph-name="braceright" horiz-adv-x="429" d="M359 226Q359 206 344 186T310 152T276 113T260 61Q260 -4 259 -49T253 -147T240 -237T216 -309T180 -366T127 -400T55 -413V-321Q122 -321 144 -228T166 75Q166 112 180 142T210 186T240 212T254
226T240 240T210 265T180 309T166 376Q166 586 144 679T55 773V864Q95 864 126 851T179 817T216 760T239 689T252 600T258 501T260 391Q260 363 275 339T309 300T343 265T359 226Z" />
<glyph unicode="~" glyph-name="asciitilde" horiz-adv-x="571" d="M516 233Q447 168 370 168Q323 168 270 197T200 226Q149 226 84 166L55 242Q121 309 200 309Q247 309 295 280T370 251Q412 251 463 296L516 233Z" />
<glyph unicode="&#xd7;" glyph-name="multiply" horiz-adv-x="530" d="M438 118L371 52L266 158L160 52L94 117L200 224L95 329L160 395L266 289L372 397L439 330L333 224L438 118Z" />
<glyph unicode="&#x2013;" glyph-name="endash" horiz-adv-x="475" d="M475 174H0V267H475V174Z" />
<glyph unicode="&#x2014;" glyph-name="emdash" horiz-adv-x="842" d="M842 174H0V267H842V174Z" />
<glyph unicode="&#x2018;" glyph-name="quoteleft" horiz-adv-x="259" d="M218 666Q218 630 194 604T136 578Q99 578 75 604T50 666Q50 732 84 791T164 876L183 860Q156 840 137 805T117 731Q117 719 119 711Q169 733 190 733Q218 726 218 666Z" />
<glyph unicode="&#x2019;" glyph-name="quoteright" horiz-adv-x="260" d="M208 788Q208 722 174 663T95 578L77 593Q103 613 122 648T141 723Q141 739 140 743Q93 721 70 721Q40 726 40 788Q40 824 65 850T123 876Q160 876 184 850T208 788Z" />
<glyph unicode="&#x201c;" glyph-name="quotedblleft" horiz-adv-x="503" d="M462 666Q462 630 438 604T380 578Q342 578 318 604T294 666Q294 732 328 791T407 876L426 861Q399 840 380 805T361 731Q361 719 363 711Q410 733 434 733Q462 726 462 666ZM218 666Q218
630 194 604T136 578Q99 578 75 604T50 666Q50 732 84 791T164 876L183 861Q156 839 137 805T117 731Q117 719 119 711Q169 733 190 733Q218 726 218 666Z" />
<glyph unicode="&#x201d;" glyph-name="quotedblright" horiz-adv-x="503" d="M208 788Q208 722 174 663T95 578L77 593Q103 613 122 648T141 723Q141 738 140 743Q93 721 70 721Q40 726 40 788Q40 824 65 850T123 876Q160 876 184 850T208 788ZM452 788Q452 722
418 663T339 578L320 593Q346 613 365 648T385 723Q385 738 383 743Q336 721 312 721Q284 727 284 788Q284 824 309 850T367 876Q404 876 428 850T452 788Z" />
</font>
</defs>
</svg>
