<?xml version="1.0" standalone="no"?>
<!DOCTYPE svg PUBLIC "-//W3C//DTD SVG 1.1//EN" "http://www.w3.org/Graphics/SVG/1.1/DTD/svg11.dtd">
<svg xmlns="http://www.w3.org/2000/svg">
<defs >
<font id="Coiny" horiz-adv-x="516" ><font-face
    font-family="Coiny"
    units-per-em="1000"
    panose-1="2 0 9 3 6 5 0 6 0 0"
    ascent="750"
    descent="250"
    alphabetic="0" />
<glyph unicode=" " glyph-name="space" horiz-adv-x="270" />
<glyph unicode="!" glyph-name="exclam" horiz-adv-x="349" d="M63 69Q63 109 94 127T173 145Q292 145 292 69Q292 32 260 13T173 -7Q121 -7 92 14T63 69ZM293 602Q293 551 273 432T253 264Q253 223 234 204T172 185Q130 185 113 204T96 267Q96 315 76 429T56
591Q56 641 80 666T169 691Q236 691 264 670T293 602Z" />
<glyph unicode="&quot;" glyph-name="quotedbl" horiz-adv-x="587" d="M63 597Q63 631 91 652T171 673Q206 673 231 665T275 635T293 578Q293 550 285 525T264 479T234 442T197 413T159 393T122 380T92 376Q75 376 64 386T53 413Q53 435 68 442Q113 464 134 479T172
521Q125 521 94 539T63 597ZM322 597Q322 631 350 652T430 673Q484 673 518 651T552 578Q552 488 481 432T351 376Q333 376 323 386T312 413Q312 435 327 442Q372 464 393 479T430 521Q383 521 353 539T322 597Z" />
<glyph unicode="#" glyph-name="numbersign" horiz-adv-x="703" d="M293 272L276 210H393L410 272H293ZM615 407Q650 407 670 390T690 339Q690 269 604 269H562L546 214H576Q599 214 616 206T642 183T651 146Q651 76 565 76H508L502 55Q486 -6 426 -6Q401 -6 384
2T359 24T351 56Q351 61 353 76H242L237 56Q220 -5 160 -5Q123 -5 104 12T85 57Q85 61 87 76Q17 80 17 143Q17 214 104 214H125L141 269H133Q52 269 52 336Q52 407 139 407H180L186 429Q195 461 214 472T269 483Q296 483 316 466T336 423Q336 415 334 407H445L451
428Q460 460 479 471T535 483Q562 483 582 466T602 422Q602 415 600 407H615Z" />
<glyph unicode="$" glyph-name="dollar" horiz-adv-x="720" d="M258 683L259 715Q260 760 285 782T353 804Q399 804 423 788T447 724V683Q533 666 588 624T643 539Q643 524 637 514T621 499T600 494Q582 494 546 512T466 549T385 568Q326 568 326 520Q326 505
335 492T366 464T407 438T462 409T521 376Q598 332 629 292T660 200Q660 22 451 -3V-36Q451 -94 428 -115T355 -137Q307 -137 285 -116T262 -44V7Q202 22 154 49T82 105T57 161Q57 183 71 198T114 214Q135 214 215 188T344 161Q389 161 389 192Q389 201 386 208T374
223T355 237T326 254T289 274T240 300T182 332Q128 363 98 411T68 502Q68 569 117 617T258 683Z" />
<glyph unicode="%" glyph-name="percent" horiz-adv-x="893" d="M438 50Q424 15 405 -1T355 -17Q307 -17 265 13T222 82Q222 98 233 125L459 674Q471 702 489 715T539 728Q587 728 630 700T674 635Q674 620 666 599L438 50ZM171 371Q102 371 60 406T18 520Q18
603 58 638T171 673Q205 673 232 665T279 638T311 590T323 520Q323 442 282 407T171 371ZM194 520Q194 527 194 533T192 546T188 558T184 568T179 574T171 577Q160 577 154 560T147 520Q147 499 153 483T171 467Q183 467 188 482T194 520ZM712 -12Q642 -12 600
23T558 136Q558 220 599 255T712 290Q781 290 822 253T863 136Q863 58 822 23T712 -12ZM734 136Q734 151 732 163T724 184T712 193Q700 193 694 176T687 136Q687 115 693 100T712 84Q719 84 724 92T732 111T734 136Z" />
<glyph unicode="&amp;" glyph-name="ampersand" horiz-adv-x="838" d="M408 154L285 285Q266 276 253 260T239 226Q239 201 252 182T288 154T338 144Q376 144 408 154ZM91 528Q91 579 125 615T214 668T339 684Q395 684 442 674T522 643T573 594T592 528Q592 435
509 377Q560 314 616 250Q634 287 654 330Q663 351 677 357T719 364T763 350T780 310Q780 276 764 226T726 140Q734 125 756 109T796 79T813 51Q813 31 797 12T742 -7Q706 -7 681 1T633 24T604 42Q463 -7 329 -7Q258 -7 202 7T112 44T54 95T21 153T12 210Q12 277
50 326T148 400Q91 453 91 528ZM384 529Q384 548 380 562T365 585T341 594Q320 594 309 576T297 528Q297 498 308 476T341 453T373 475T384 529Z" />
<glyph unicode="&apos;" glyph-name="quotesingle" horiz-adv-x="330" d="M53 597Q53 631 81 652T161 673Q195 673 221 665T265 635T283 578Q283 550 275 525T254 479T223 442T186 413T148 393T112 380T82 376Q64 376 54 386T43 413Q43 435 58 442Q103 464 124
479T161 521Q114 521 84 539T53 597Z" />
<glyph unicode="(" glyph-name="parenleft" horiz-adv-x="434" d="M303 321Q303 253 313 183T337 65T360 -28T371 -99Q371 -118 364 -131T345 -150T319 -156Q280 -156 237 -120T155 -24T91 128T65 320Q65 420 90 511T154 663T237 760T319 796Q341 796 356 781T371
738Q371 709 354 645T320 494T303 321Z" />
<glyph unicode=")" glyph-name="parenright" horiz-adv-x="409" d="M145 321Q145 406 128 493T94 645T76 738Q76 766 91 781T129 796Q167 796 211 760T293 664T357 512T383 320Q383 262 374 206T350 104T315 16T271 -57T224 -110T175 -144T129 -156Q107 -156 92
-142T76 -99Q76 -70 93 -6T128 147T145 321Z" />
<glyph unicode="*" glyph-name="asterisk" horiz-adv-x="568" d="M212 747Q212 769 214 785T223 812T238 830T260 840T290 843Q327 843 342 818T357 738V701L416 722Q450 734 471 734Q488 734 503 724T528 695T538 654T518 614T456 582L417 568L462 505Q484 473
484 449Q484 423 459 401T407 378Q374 378 344 419L283 507L221 419Q192 378 159 378Q132 378 107 400T82 448T104 505L149 569L112 582Q70 597 50 614T30 654Q30 688 50 711T97 734Q119 734 153 722L212 701V747Z" />
<glyph unicode="+" glyph-name="plus" horiz-adv-x="552" d="M401 314Q460 314 483 295T507 228Q507 187 480 171T391 155H352V92Q352 2 275 2Q192 2 192 99V155H132Q43 155 43 232Q43 270 62 292T135 314H192V361Q192 420 211 443T279 466Q306 466 322 454T345
416T352 350V314H401Z" />
<glyph unicode="," glyph-name="comma" horiz-adv-x="311" d="M40 69Q40 91 52 108T88 135T148 145Q202 145 236 123T270 49Q270 11 255 -23T217 -80T166 -119T113 -144T69 -152Q51 -152 41 -142T30 -115Q30 -94 45 -87Q90 -65 111 -49T148 -7Q101 -7 71 11T40 69Z" />
<glyph unicode="-" glyph-name="hyphen" horiz-adv-x="393" d="M262 346Q298 346 319 339T349 314T358 268Q358 231 333 217T253 202H116Q35 202 35 272Q35 346 123 346H262Z" />
<glyph unicode="." glyph-name="period" horiz-adv-x="283" d="M30 69Q30 103 58 124T139 145Q248 145 248 69Q248 40 234 23T197 -1T139 -7Q92 -7 61 11T30 69Z" />
<glyph unicode="/" glyph-name="slash" horiz-adv-x="546" d="M291 620L497 112Q505 91 505 76Q505 40 461 12T369 -17Q339 -17 320 -4T289 37L86 545Q75 572 75 587Q75 625 117 655T207 686Q238 686 257 670T291 620Z" />
<glyph unicode="0" glyph-name="zero" horiz-adv-x="660" d="M330 -6Q266 -6 215 11T122 67T58 171T35 326Q35 422 57 490T120 596T212 651T330 668Q395 668 447 649T538 589T599 483T621 326Q621 236 599 171T537 67T445 12T330 -6ZM402 250T402 326T383 462T330
521Q306 521 289 491T263 418T255 326Q255 252 274 196T330 140Q366 140 384 195Z" />
<glyph unicode="1" glyph-name="one" horiz-adv-x="434" d="M372 151Q372 70 343 36T255 1Q216 1 192 13T156 57T142 143L140 516Q92 516 61 533T30 592Q30 625 58 646T138 668Q158 668 194 668T246 667Q320 667 345 643T371 557L372 151Z" />
<glyph unicode="2" glyph-name="two" horiz-adv-x="582" d="M351 186H462Q546 186 546 92Q546 39 520 17T425 -6H154Q84 -6 59 12T33 92Q33 112 37 126T52 155T82 182Q136 218 167 240T227 286T271 328T296 368T311 412T315 464Q315 520 280 520Q242 520 242 454Q242
417 218 406T147 395Q83 395 61 423T38 516Q38 581 99 624T271 668Q543 668 543 461Q543 413 532 374T505 308T462 257T410 218T351 186Z" />
<glyph unicode="3" glyph-name="three" horiz-adv-x="586" d="M318 451Q318 500 227 500Q208 500 176 497T128 493Q56 493 56 579Q56 668 264 668Q399 668 466 624T533 509Q533 410 447 351Q505 320 528 287T552 190Q552 103 484 49T300 -6Q156 -6 94 23T31 113Q31
163 51 181T107 200Q125 200 163 196T221 192Q330 192 330 232Q330 259 309 269T230 280Q172 280 148 295T124 351Q124 413 206 413Q259 413 284 418T314 429T318 451Z" />
<glyph unicode="4" glyph-name="four" horiz-adv-x="680" d="M456 1Q397 1 370 33T343 147H158Q93 147 62 178T30 258Q30 311 57 352Q128 463 217 592Q269 668 360 668L447 667Q520 667 546 643T572 557V293Q615 289 631 272T647 218Q647 180 630 166T572 148Q572
69 543 35T456 1ZM342 289L345 502L211 289H342Z" />
<glyph unicode="5" glyph-name="five" horiz-adv-x="595" d="M475 506H270L268 441Q382 441 451 414Q556 371 556 234Q556 120 483 57T262 -6Q142 -6 92 20T42 103Q42 201 111 201Q129 201 174 190T239 179Q285 179 307 191T329 234Q329 290 141 290Q89 290 72
313T55 405V584Q55 626 80 646T170 667H454Q501 667 518 649T535 578Q535 539 522 523T475 506Z" />
<glyph unicode="6" glyph-name="six" horiz-adv-x="608" d="M253 405Q305 421 354 421Q417 421 467 397T545 329T574 230Q574 156 543 102T456 19T327 -10Q270 -10 224 3T146 41T92 95T57 162T40 236T34 310Q34 392 53 457T112 572T219 649T379 677Q459 677 514
643T569 554Q569 520 548 494T490 467Q473 467 437 483T371 499Q329 499 295 472T253 405ZM369 215Q369 258 356 290T319 323Q294 323 280 290T265 215Q265 175 279 145T318 114T356 144T369 215Z" />
<glyph unicode="7" glyph-name="seven" horiz-adv-x="590" d="M108 106Q108 158 124 218T164 327T212 417T252 482L269 506H131Q72 506 51 524T29 585Q29 636 53 651T140 667L436 668Q507 668 535 649T564 570Q564 564 564 558T561 547T558 537T554 528T549 519T542
510T534 502T525 491T515 480Q430 386 392 299T337 113Q325 41 303 21T221 1Q166 1 137 28T108 106Z" />
<glyph unicode="8" glyph-name="eight" horiz-adv-x="615" d="M305 -6Q228 -6 167 16T68 82T30 187Q30 295 131 349Q63 399 63 482Q63 569 131 619T306 670T480 620T548 482Q548 399 480 349Q579 294 579 187Q579 97 502 46T305 -6ZM356 189Q356 228 343 257T306
287Q281 287 267 257T253 189Q253 165 258 144T276 108T306 93Q331 93 343 121T356 189ZM354 491Q354 522 342 545T307 569Q291 569 280 556T263 524T257 484Q257 450 270 425T306 400T342 427T354 491Z" />
<glyph unicode="9" glyph-name="nine" horiz-adv-x="604" d="M354 256Q302 240 254 240Q158 240 96 300T34 452Q34 521 65 572T151 649T280 676Q348 676 401 656T486 603T538 525T566 436T574 342Q574 280 563 228T526 131T462 56T367 8T239 -9Q158 -9 103 25T48
113Q48 147 70 174T127 201Q144 201 181 182T247 163Q271 163 294 175T333 208T354 256ZM233 446Q233 403 246 371T283 338Q299 338 311 354T330 395T336 446Q336 488 322 520T283 552T246 521T233 446Z" />
<glyph unicode=":" glyph-name="colon" horiz-adv-x="298" d="M38 68Q38 102 66 123T146 144Q255 144 255 68Q255 25 228 9T146 -8Q99 -8 69 10T38 68ZM38 407Q38 441 66 462T146 483Q255 483 255 407Q255 365 228 348T146 331Q116 331 93 338T54 362T38 407Z" />
<glyph unicode=";" glyph-name="semicolon" horiz-adv-x="313" d="M52 407Q52 441 80 462T161 483Q270 483 270 407Q270 365 242 348T161 331Q131 331 108 338T68 362T52 407ZM50 69Q50 103 78 124T158 145Q178 145 195 142T229 133T256 115T273 88T280 49Q280
11 265 -23T227 -80T176 -119T123 -144T79 -152Q62 -152 52 -142T41 -115Q41 -94 55 -87Q100 -65 121 -49T159 -7H158Q112 -7 81 11T50 69Z" />
<glyph unicode="&lt;" glyph-name="less" horiz-adv-x="446" d="M281 7L78 158Q40 185 40 235Q40 282 75 309L249 451Q302 492 345 492Q366 492 388 469T410 417Q410 404 404 392T384 367T347 336L228 238L350 145Q390 117 401 99T412 58Q412 29 390 6T346 -17Q315
-17 281 7Z" />
<glyph unicode="=" glyph-name="equal" horiz-adv-x="559" d="M442 405Q478 405 499 397T529 373T538 326Q538 290 513 275T433 260H104Q23 260 23 330Q23 405 110 405H442ZM442 199Q478 199 499 191T529 167T538 121Q538 84 513 69T433 54H104Q23 54 23 124Q23
199 110 199H442Z" />
<glyph unicode="&gt;" glyph-name="greater" horiz-adv-x="446" d="M165 7Q131 -17 100 -17Q78 -17 56 6T34 58Q34 81 45 99T96 145L218 238L99 336Q64 363 50 380T36 417Q36 446 58 469T101 492Q144 492 197 451L371 309Q406 282 406 235Q406 185 368 158L165 7Z" />
<glyph unicode="?" glyph-name="question" horiz-adv-x="577" d="M142 69Q142 109 173 127T253 145Q371 145 371 69Q371 32 340 13T253 -7Q201 -7 172 14T142 69ZM526 511Q526 446 496 383T422 276T335 206T260 179Q187 179 187 230Q187 256 208 286T254 342T300
408T321 489Q321 526 306 556T266 586Q240 586 240 561Q240 556 247 538T255 506Q255 474 234 465T169 455Q93 455 59 491T24 568Q24 691 257 691Q388 691 457 646T526 511Z" />
<glyph unicode="@" glyph-name="at" horiz-adv-x="1030" d="M522 -184Q398 -184 301 -152T143 -62T50 75T18 252Q18 447 148 551T524 656Q572 656 618 652T713 636T805 609T887 566T953 505T997 424T1013 320Q1013 258 994 209T934 121T818 59T642 37Q589 37 572
67Q520 32 450 32Q386 32 344 84T302 227Q302 319 343 373T450 428Q515 428 571 382Q592 422 641 422Q685 422 709 403T733 334V185Q816 205 816 296Q816 406 747 450T530 495Q460 495 407 483T309 442T242 362T218 237Q218 181 232 136T278 53T367 -5T505 -26Q517
-26 546 -24T590 -22Q621 -22 644 -46T667 -104Q667 -125 659 -140T638 -163T605 -176T567 -182T522 -184ZM560 153V305Q546 328 524 328Q510 328 499 313T483 275T477 227Q477 213 479 200T484 174T493 153T506 138T523 132Q546 132 560 153Z" />
<glyph unicode="A" glyph-name="A" horiz-adv-x="712" d="M358 522Q315 522 295 497T274 408V290H440V410Q440 452 430 477T403 512T358 522ZM440 152H274V99Q274 48 247 24T154 0Q126 0 108 8T77 35T57 90T47 178T43 309Q43 378 57 435T96 533T152 603T219 651T290
676T360 685Q402 685 443 674T526 634T599 565T651 457T671 309Q671 177 662 114T630 25T560 0Q494 0 467 24T440 99V152Z" />
<glyph unicode="B" glyph-name="B" horiz-adv-x="733" d="M445 492Q445 534 413 549T304 565V412Q351 412 380 419T427 443T445 492ZM458 225Q458 258 441 276T392 301T304 309V136Q382 136 420 155T458 225ZM581 356Q674 301 674 209Q674 169 659 133T613 66T532
19T419 1H187Q126 1 100 32T73 143V566Q73 600 85 626T123 668T187 684H416Q516 683 582 630T649 492Q649 465 645 445T631 408T610 380T581 356Z" />
<glyph unicode="C" glyph-name="C" horiz-adv-x="783" d="M473 497Q473 518 456 533T414 548Q366 548 335 494T304 370Q304 317 324 275T382 207T470 182Q507 182 541 196T596 228T639 260T679 275Q701 275 717 258T733 221Q733 200 721 172T681 113T618 55T529
11T416 -7Q338 -7 272 16T156 83T79 193T51 341Q51 503 148 597T402 691Q482 691 550 664T658 589T698 484Q698 418 654 365T540 311Q500 311 468 333T436 396Q436 415 454 449T473 497Z" />
<glyph unicode="D" glyph-name="D" horiz-adv-x="720" d="M299 136Q325 136 344 141T381 161T410 200T427 261T434 350Q434 407 424 446T395 506T354 535T299 545V136ZM329 684Q485 684 579 594T674 346Q674 295 665 247T633 154T578 75T494 21T379 0H182Q121
0 95 31T68 143V565Q68 684 182 684H329Z" />
<glyph unicode="E" glyph-name="E" horiz-adv-x="672" d="M471 406Q524 406 545 389T567 331Q567 297 542 283T462 268H300V162L517 161Q573 161 597 145T622 86Q622 38 594 19T507 0H183Q124 0 97 31T69 143V565Q69 685 183 685H507Q565 685 593 667T622 602Q622
558 598 541T517 523H299V406H471Z" />
<glyph unicode="F" glyph-name="F" horiz-adv-x="645" d="M292 139Q292 71 262 36T175 0Q121 0 91 32T61 143V565Q61 597 69 620T94 658T130 678T175 685H503Q561 685 589 667T618 602Q618 558 594 541T513 523H292V406H468Q495 406 513 402T543 389T559 366T564
331Q564 297 539 283T459 268H292V139Z" />
<glyph unicode="G" glyph-name="G" horiz-adv-x="782" d="M452 517Q452 548 411 548Q369 548 339 501T309 344Q309 242 343 196T425 149Q440 149 452 155T473 173T481 202Q457 202 440 211T414 233T406 263Q406 299 425 317T490 335H611Q669 335 701 310T733 222Q733
130 645 62T436 -7Q325 -7 239 33T102 152T51 341Q51 503 149 597T409 691Q473 691 524 682T608 656T664 618T696 570T706 518Q706 499 700 482T679 447T631 418T554 407Q488 407 470 426T452 517Z" />
<glyph unicode="H" glyph-name="H" horiz-adv-x="780" d="M723 150Q723 69 694 35T606 0Q548 0 521 31T494 143L493 256H289V150Q289 68 261 34T172 0Q114 0 87 31T60 143L57 565Q57 627 88 656T172 685Q232 685 260 663T289 574V406H492V565Q492 607 507 634T547
673T606 685Q664 685 693 663T723 574V150Z" />
<glyph unicode="I" glyph-name="I" horiz-adv-x="364" d="M300 150Q300 72 271 36T183 0Q125 0 98 31T70 142V565Q70 685 183 685Q241 685 270 663T300 574V150Z" />
<glyph unicode="J" glyph-name="J" horiz-adv-x="658" d="M266 199Q266 170 283 153T321 136Q346 136 357 149T368 199V565Q368 626 394 655T482 685Q536 685 567 660T598 574V203Q598 93 532 43T336 -7Q295 -7 260 -1T198 15T149 40T111 71T83 106T65 144T55
181T51 217Q51 284 73 308T162 333Q215 333 243 314T272 262Q272 252 269 230T266 199Z" />
<glyph unicode="K" glyph-name="K" horiz-adv-x="721" d="M529 329Q580 323 622 278T664 161Q664 92 654 59T620 13T547 0Q508 0 483 11T445 43T433 99Q433 143 430 172T421 219T404 246T383 257T354 260H301V149Q301 69 270 35T179 0Q121 0 94 32T66 142V559Q66
622 89 653T166 685Q197 685 217 681T257 667T286 634T296 576Q296 545 296 507T295 452Q295 439 301 430T321 416T355 410Q398 410 412 444T427 583Q427 635 455 660T545 685Q612 685 635 659T658 566Q658 456 620 396T529 329Z" />
<glyph unicode="L" glyph-name="L" horiz-adv-x="608" d="M192 0Q146 1 118 14T76 59T62 142V565Q62 618 93 651T175 685Q235 685 263 663T292 574V173H463Q521 173 544 156T568 86Q568 32 541 16T453 0H192Z" />
<glyph unicode="M" glyph-name="M" horiz-adv-x="949" d="M657 366L532 110Q516 78 498 65T455 51Q423 51 401 73T344 155L228 366V83Q228 40 209 20T150 0Q106 0 86 19T66 96V532Q66 609 101 648T219 687Q250 687 273 677T307 653T330 619L464 326L606 614Q643
686 739 686Q784 686 816 671T866 621T885 534V99Q884 0 760 0Q715 0 687 24T657 104V366Z" />
<glyph unicode="N" glyph-name="N" horiz-adv-x="773" d="M706 95Q706 51 680 26T604 0Q591 0 578 3T551 14T525 29T498 50T472 73T442 101T413 129L230 302V85Q230 36 212 18T153 0Q109 0 88 20T67 87V570Q67 627 96 656T179 685Q216 685 238 674T292 632L545
380V598Q545 641 566 662T625 684Q668 684 687 664T706 599V95Z" />
<glyph unicode="O" glyph-name="O" horiz-adv-x="805" d="M402 140Q436 140 460 170T495 244T506 338Q506 389 495 434T460 512T402 544Q370 544 346 512T310 434T298 338Q298 288 309 244T345 170T402 140ZM500 -6T402 -6T225 33T99 152T52 338Q52 500 149 595T402
691T655 596T753 338Q753 231 706 152T579 34Z" />
<glyph unicode="P" glyph-name="P" horiz-adv-x="700" d="M429 448Q429 485 422 506T398 539T360 553T303 557V337Q331 337 352 342T392 359T419 393T429 448ZM303 150Q303 69 273 35T181 0Q119 0 90 31T61 143V565Q61 626 94 655T181 685H359Q424 685 479 668T574
619T637 540T660 434Q660 363 619 311T511 232T360 206H303V150Z" />
<glyph unicode="Q" glyph-name="Q" horiz-adv-x="805" d="M670 -47Q709 -49 728 -71T747 -145Q747 -205 715 -227T625 -250Q567 -250 516 -234T436 -198T385 -156Q370 -141 358 -118T336 -63T325 1Q203 24 128 112T52 337Q52 500 150 595T404 690Q558 690 655
595T753 337Q753 206 685 120T503 5Q544 -40 670 -47ZM506 286T506 337T496 434T461 511T404 543Q371 543 347 511T311 434T299 337Q299 308 303 280T315 227T336 182T365 152T404 140Q438 140 462 170T496 243Z" />
<glyph unicode="R" glyph-name="R" horiz-adv-x="720" d="M444 486Q444 534 409 552T291 570V397Q369 397 406 416T444 486ZM291 150Q291 0 174 0Q115 0 88 31T60 143V565Q60 623 91 653T174 684H384Q507 684 583 627T659 479Q659 411 631 373T539 316Q587 313
628 270T669 161Q669 95 657 60T621 12T556 0Q497 0 470 24T442 99Q442 161 430 194T399 238T346 248L291 247V150Z" />
<glyph unicode="S" glyph-name="S" horiz-adv-x="694" d="M342 692Q461 692 545 643T629 539Q629 524 623 514T607 499T586 494Q568 494 532 512T452 549T371 568Q312 568 312 520Q312 505 321 492T352 464T393 438T448 409T507 376Q584 332 615 292T646 200Q646
-7 367 -7Q312 -7 261 4T171 33T103 73T58 118T43 161Q43 183 57 198T100 214Q121 214 201 188T330 161Q375 161 375 192Q375 201 372 208T360 223T341 237T312 254T275 274T226 300T168 332Q131 353 105 384T66 445T54 502Q54 586 129 639T342 692Z" />
<glyph unicode="T" glyph-name="T" horiz-adv-x="737" d="M492 150Q492 93 478 60T440 13T375 0Q316 0 290 31T262 143L260 512H175Q112 512 81 532T49 603Q49 634 61 652T99 677T166 685H594Q650 685 675 665T700 596Q700 563 686 545T647 519T585 512H492V150Z" />
<glyph unicode="U" glyph-name="U" horiz-adv-x="737" d="M674 565V267Q674 121 604 58T366 -6Q207 -6 133 62T58 267V565Q58 618 89 651T169 685Q228 685 258 663T289 574V248Q290 216 299 197T325 171T366 163T407 169T430 188T440 214T443 248V575Q443 609
451 632T477 666T513 681T558 685Q616 685 645 657T674 565Z" />
<glyph unicode="V" glyph-name="V" horiz-adv-x="752" d="M372 163Q423 163 438 189T454 278Q454 308 454 416T455 582Q455 635 480 659T568 684Q623 684 650 657T688 557T699 336Q699 273 685 221T645 133T587 69T518 25T445 1T374 -7Q331 -7 288 3T200 40T121
103T66 201T44 336Q44 484 56 556T97 656T186 684Q242 684 265 660T288 582Q288 524 288 417T289 279Q289 253 290 238T296 206T310 182T334 168T372 163Z" />
<glyph unicode="W" glyph-name="W" horiz-adv-x="1020" d="M663 157Q702 157 717 199T732 338L734 583Q734 636 758 660T843 685Q880 685 902 673T941 626T963 531T969 372Q969 313 959 262T932 173T892 105T842 54T787 21T731 2T677 -4Q587 -4 514 53Q442 -6
351 -6Q312 -6 273 5T194 45T122 114T72 222T52 370Q52 501 64 568T102 659T177 683Q218 683 242 672T276 638T286 581L287 337Q287 241 302 198T361 155Q383 155 394 173T409 233Q396 291 396 414Q396 483 399 524T408 595T428 638T459 656T508 662Q526 662 539
661T565 655T585 646T600 631T611 612T618 586T623 555T625 515T626 469T627 413Q627 287 614 227Q618 191 629 174T663 157Z" />
<glyph unicode="X" glyph-name="X" horiz-adv-x="763" d="M233 340L96 473Q55 517 55 557Q55 606 97 644Q143 685 179 685Q223 685 256 646L384 482L490 624Q539 684 600 684Q642 684 678 649Q719 607 719 569Q719 525 660 464L542 352L677 211Q719 164 719 128Q719
78 677 41Q631 -1 595 -1Q550 -1 518 38L389 206L283 61Q236 0 174 0Q133 0 96 37Q55 78 55 116Q55 157 113 221L233 340Z" />
<glyph unicode="Y" glyph-name="Y" horiz-adv-x="711" d="M470 150Q470 69 441 35T352 0Q294 0 267 31T239 143L238 305L84 485Q42 533 42 568Q42 623 84 655Q124 685 155 685Q198 685 232 646L354 504L456 623Q507 684 565 684Q608 684 632 660Q673 619 673 581Q673
560 659 537T614 476L470 300V150Z" />
<glyph unicode="Z" glyph-name="Z" horiz-adv-x="757" d="M599 162Q629 162 649 158T680 143T696 118T701 83Q701 32 669 16T558 0H183Q155 0 127 16T79 62T60 125Q60 155 63 174T80 215T103 248T142 290L397 522H194Q127 522 97 541T67 607Q67 650 91 667T164
685H573Q603 685 626 675T661 648T679 615T685 585Q685 567 684 553T679 527T672 507T661 488T647 472T628 453T607 431L315 162H599Z" />
<glyph unicode="[" glyph-name="bracketleft" horiz-adv-x="478" d="M106 -48V691Q106 751 132 775T231 800H339Q391 800 419 779T447 725Q447 649 326 649V-7Q447 -7 447 -83Q447 -117 419 -138T339 -159L231 -158Q158 -158 132 -134T106 -48Z" />
<glyph unicode="\" glyph-name="backslash" horiz-adv-x="546" d="M275 50L47 599Q38 620 38 635Q38 672 82 700T174 728Q204 728 223 715T254 674L480 125Q490 98 490 82Q490 57 470 34T419 -3T358 -17Q327 -17 308 -1T275 50Z" />
<glyph unicode="]" glyph-name="bracketright" horiz-adv-x="477" d="M372 -48Q372 -90 362 -113T324 -147T247 -158L139 -159Q87 -159 59 -138T31 -83Q31 -43 65 -25T152 -7V649Q99 649 65 667T31 725Q31 758 59 779T139 800H247Q320 800 346 776T372 691V-48Z" />
<glyph unicode="^" glyph-name="asciicircum" horiz-adv-x="480" d="M376 268Q427 217 427 184Q427 156 405 136T355 115Q331 115 301 146Q296 152 286 162Q272 177 266 183T253 193T239 198T225 194T212 184T197 167T180 149Q150 117 122 117Q93 117 72 137T50
184Q50 192 52 199T56 212T64 225T72 236T82 247T92 258Q161 339 237 339Q269 339 298 326T340 301T376 268Z" />
<glyph unicode="_" glyph-name="underscore" horiz-adv-x="651" d="M546 142Q590 142 607 127T625 71T605 15T536 0H82Q48 0 34 17T19 69T34 123T89 142H546Z" />
<glyph unicode="`" glyph-name="grave" horiz-adv-x="371" d="M163 762L278 690Q279 689 287 683T298 676T307 669T316 660T323 652T329 641T332 629T334 615Q334 590 316 573T267 555Q245 555 221 563L99 604Q37 627 37 678Q37 713 58 744T115 775Q140 775 163 762Z" />
<glyph unicode="a" glyph-name="a" horiz-adv-x="624" d="M225 -6Q146 -6 94 58T42 235Q42 349 93 416T225 484Q306 484 375 427Q402 477 462 477Q516 477 546 454T576 367V107Q576 47 551 24T463 0Q397 0 376 37Q312 -6 225 -6ZM361 331Q344 360 317 360Q291
360 275 322T259 235Q259 189 274 153T316 117Q344 117 361 144V331Z" />
<glyph unicode="b" glyph-name="b" horiz-adv-x="629" d="M267 436Q333 485 410 485Q488 485 540 419T592 252Q592 130 513 62T308 -7Q231 -7 174 15T84 81T50 187L48 564Q48 626 78 655T158 684Q214 684 240 658T267 573V436ZM268 153Q286 119 318 119Q345 119
360 153T375 231Q375 255 371 278T360 319T342 349T317 361Q286 361 268 324Q268 311 268 250T268 153Z" />
<glyph unicode="c" glyph-name="c" horiz-adv-x="599" d="M342 374Q342 397 316 397Q297 397 282 376T259 324T251 258Q251 208 281 177T364 146Q415 146 452 158Q467 162 488 173T519 184Q533 184 542 179T554 167T558 152Q558 138 549 118T519 76T473 36T407
5T325 -7Q201 -7 121 59T41 242Q41 316 77 371T178 455T325 484Q404 484 455 466T529 416T551 342Q551 323 544 303T521 263T475 231T405 218Q387 218 376 220T352 228T333 250T327 288Q327 308 334 336T342 374Z" />
<glyph unicode="d" glyph-name="d" horiz-adv-x="625" d="M579 150Q579 69 552 35T469 0Q405 0 381 40Q316 -7 224 -7Q146 -7 94 57T42 234Q42 348 93 415T224 483Q296 483 359 437V565Q359 626 389 655T469 685Q524 685 551 663T579 574V150ZM361 144L360 331Q343
359 316 359Q299 359 286 340T265 293T258 234Q258 188 273 152T315 116Q320 116 325 117T334 119T342 123T349 129T355 136T361 144Z" />
<glyph unicode="e" glyph-name="e" horiz-adv-x="595" d="M321 -6Q199 -6 120 57T40 229Q40 347 118 415T321 484Q438 484 492 443T547 329Q547 315 544 302T533 277T513 254T484 235T446 222T399 217L258 216Q268 184 294 166T360 147Q403 147 448 158Q467 163
489 174T522 185Q539 185 548 175T558 150Q558 132 542 107T498 56T422 12T321 -6ZM253 280Q322 281 328 281Q343 281 350 299Q355 312 355 335Q355 398 317 398Q303 398 290 383T266 341T253 280Z" />
<glyph unicode="f" glyph-name="f" horiz-adv-x="470" d="M339 526Q318 509 318 447Q385 447 411 435T437 380Q437 346 409 336T318 325V150Q318 65 292 33T208 0Q152 0 126 31T100 143L101 325Q27 326 27 383Q27 442 102 446Q103 575 139 629T280 684Q363 684
409 650T456 581Q456 566 444 555T408 543Q359 543 339 526Z" />
<glyph unicode="g" glyph-name="g" horiz-adv-x="624" d="M228 -6Q149 -6 97 58T45 236Q45 350 96 417T227 484Q308 484 377 428Q403 477 463 477Q517 477 547 453T578 367V184Q578 87 566 18T523 -105T439 -184T307 -210Q253 -210 207 -195T134 -158T92 -114T77
-76Q77 -57 88 -44T119 -31Q131 -31 179 -57T258 -83Q360 -83 360 22Q302 -6 228 -6ZM364 144L363 333Q346 361 320 361Q302 361 289 342T269 295T262 236Q262 189 277 154T319 118Q346 118 364 144Z" />
<glyph unicode="h" glyph-name="h" horiz-adv-x="624" d="M359 268Q359 325 315 325Q307 325 301 323T289 318T279 310T271 298T266 282T264 262V152Q264 70 238 36T157 1Q101 1 75 32T49 144L47 570Q47 632 77 661T157 690Q210 690 237 668T264 579V434Q338 479
444 479Q492 479 521 455T564 377T578 238Q578 194 577 162T572 104T563 60T549 31T529 13T501 3T465 0Q409 0 385 20T360 83L359 268Z" />
<glyph unicode="i" glyph-name="i" horiz-adv-x="305" d="M43 616Q43 649 71 670T152 692Q261 692 261 616Q261 574 234 557T152 540Q105 540 74 558T43 616ZM260 107Q260 47 235 24T147 0Q88 0 67 27T45 118V364Q45 415 72 446T146 477Q200 477 230 454T260 367V107Z" />
<glyph unicode="j" glyph-name="j" horiz-adv-x="340" d="M288 372V47Q288 -65 245 -134T108 -204Q2 -204 -63 -172T-129 -104Q-129 -77 -109 -66T-37 -54Q-9 -54 7 -52T39 -40T63 -9T71 48V357Q71 419 101 448T182 477Q228 477 258 447T288 372ZM68 616Q68 649
96 670T177 692Q286 692 286 616Q286 574 259 557T177 540Q130 540 99 558T68 616Z" />
<glyph unicode="k" glyph-name="k" horiz-adv-x="583" d="M302 142H266Q266 90 236 45T156 0Q100 0 74 31T47 143V554Q47 597 61 623T97 661T156 674Q218 674 239 633T260 489Q260 410 251 350Q258 328 296 328Q320 328 328 338T337 381Q337 428 361 449T445 470Q507
470 528 448T550 366Q550 304 513 270T430 236Q477 236 513 208T550 122Q550 46 530 23T445 0Q386 0 362 21T337 89Q337 112 333 123T323 138T302 142Z" />
<glyph unicode="l" glyph-name="l" horiz-adv-x="312" d="M266 151Q266 70 239 35T156 0Q100 0 74 31T48 143L46 565Q46 591 51 611T66 645T90 668T120 681T156 685Q211 685 238 663T266 574V151Z" />
<glyph unicode="m" glyph-name="m" horiz-adv-x="905" d="M639 264Q639 320 594 320Q574 320 564 297T554 239Q554 186 553 151T546 88T534 44T515 18T488 4T450 0Q415 0 394 10T363 38T354 83V264Q354 320 309 320Q291 320 280 300T268 246V107Q268 47 243 24T155
0Q96 0 75 27T53 118V364Q53 415 80 446T154 477Q236 477 258 424Q296 452 332 463T418 474Q492 474 525 410Q530 414 535 418Q612 474 724 474Q795 474 826 420T857 239Q857 186 856 151T849 88T837 44T816 18T786 4T744 0Q706 0 683 10T649 38T639 83V264Z" />
<glyph unicode="n" glyph-name="n" horiz-adv-x="616" d="M353 269Q353 325 309 325Q288 325 275 308T259 261V107Q259 46 234 23T146 0Q87 0 66 27T44 118V364Q44 415 71 446T145 477Q183 477 209 466T248 428Q326 479 438 479Q509 479 540 423T572 239Q572 176
569 137T560 69T539 26T507 6T459 0Q403 0 379 21T354 83L353 269Z" />
<glyph unicode="o" glyph-name="o" horiz-adv-x="631" d="M369 237Q369 289 356 328T318 368Q301 368 288 348T269 299T263 237Q263 186 277 148T317 109T356 147T369 237ZM317 -7Q239 -7 177 21T77 105T39 236Q39 350 117 417T317 484T516 417T593 236Q593 123
515 58T317 -7Z" />
<glyph unicode="p" glyph-name="p" horiz-adv-x="621" d="M267 -58Q267 -139 240 -173T157 -208Q101 -208 75 -177T49 -65L47 357Q47 419 77 448T157 477Q196 477 220 468T256 430Q325 484 404 484Q484 484 535 417T586 235Q586 123 534 59T403 -6Q327 -6 267
28V-58ZM267 145Q284 117 312 117Q339 117 354 153T369 235Q369 284 353 322T311 360Q284 360 267 331V145Z" />
<glyph unicode="q" glyph-name="q" horiz-adv-x="626" d="M366 43Q300 -6 223 -6Q145 -6 93 60T41 227Q41 348 123 415T337 483Q450 483 516 434T583 292L585 -85Q585 -147 555 -176T475 -205Q421 -205 393 -176T365 -94L366 43ZM365 326Q348 360 317 360Q292
360 278 326T264 248Q264 197 279 158T318 118Q348 118 365 155V326Z" />
<glyph unicode="r" glyph-name="r" horiz-adv-x="472" d="M261 107Q261 47 236 24T147 0Q88 0 67 27T46 118V364Q46 398 58 423T93 463T147 477Q223 477 247 433Q305 477 359 477Q464 477 464 377Q464 337 441 312T381 287Q359 287 346 296T321 314T294 323Q272
323 261 308V107Z" />
<glyph unicode="s" glyph-name="s" horiz-adv-x="562" d="M281 484Q374 484 436 446T498 363Q498 350 487 339T459 328Q444 328 426 338T392 361T350 383T295 393Q256 393 256 369Q256 352 276 342T334 321T393 300Q468 271 496 238T524 149Q524 122 509 96T464
46T383 8T265 -7Q136 -7 72 52Q41 81 41 112Q41 131 53 142T89 153Q112 153 159 131T246 108Q301 108 301 135Q301 149 272 157T196 178T121 208Q77 227 60 255T42 325Q42 395 108 439T281 484Z" />
<glyph unicode="t" glyph-name="t" horiz-adv-x="501" d="M96 214V332Q71 333 56 340T35 360T28 390Q28 447 97 452V545Q97 583 152 613T261 644Q294 644 304 625T314 568L315 453H342Q397 453 417 439T438 386Q438 370 432 359T413 342T380 334T333 331H315V221Q315
205 316 195T321 178T329 170T343 168Q355 168 363 176T375 195T387 214T405 223Q428 223 440 212T453 185Q453 158 443 127T412 67T357 19T277 0Q178 0 137 50T96 214Z" />
<glyph unicode="u" glyph-name="u" horiz-adv-x="625" d="M265 211Q265 154 309 154Q324 154 335 163T353 190T359 229V363Q359 397 371 422T406 462T460 476Q514 476 544 453T574 366V106Q574 45 549 22T461 -1Q434 -1 415 4T385 21T367 50Q326 23 281 12T179
1Q108 1 77 56T46 239Q46 302 49 341T58 409T78 452T110 472T159 478Q215 478 239 457T264 394L265 211Z" />
<glyph unicode="v" glyph-name="v" horiz-adv-x="617" d="M307 150Q336 150 344 166T352 227L353 388Q353 419 363 438T399 467T466 477Q493 477 510 471T540 452T559 411T568 345T571 247Q571 193 554 150T511 80T449 34T379 8T309 0T238 7T168 33T105 79T61
150T44 247Q44 345 53 392T83 458T149 477Q211 477 237 456T263 388L264 228Q264 212 264 205T265 186T269 170T276 160T288 152T307 150Z" />
<glyph unicode="w" glyph-name="w" horiz-adv-x="890" d="M590 150Q616 150 622 162T629 209L630 388Q630 434 656 455T744 477Q771 477 788 471T817 452T836 411T846 345T849 246Q849 193 833 150T791 79T731 34T663 8T595 0Q514 0 446 51Q379 0 298 0Q264 0
231 7T163 33T102 79T60 149T43 246Q43 345 52 392T82 458T148 477Q190 477 215 467T250 438T261 388L262 210Q262 195 262 189T265 173T271 160T282 153T300 150Q340 150 347 173Q338 233 338 302Q338 360 342 392T359 445T393 471T450 477Q483 477 502 471T533
445T549 393T553 302Q553 232 545 172Q552 150 590 150Z" />
<glyph unicode="x" glyph-name="x" horiz-adv-x="602" d="M302 99Q300 96 289 85T275 70T261 56T245 41T229 28T212 17T195 9T177 2T159 0Q115 0 75 36T35 113Q35 123 43 135T68 163T97 189T129 215T153 234Q145 240 130 252T105 274T82 296T62 322T48 351T42
384Q42 418 75 447T143 476Q162 476 180 468T214 446T244 417T274 383T302 353Q313 363 336 390T374 432T413 462T460 476Q474 476 489 471T516 456T539 435T555 410T561 383Q561 366 555 350T532 314T508 286T476 256T451 234Q454 230 474 215T506 189T535 163T559
136T568 113Q568 72 528 36T444 0Q434 0 424 3T405 9T385 21T368 34T350 50T334 65T317 83T302 99Z" />
<glyph unicode="y" glyph-name="y" horiz-adv-x="607" d="M564 282Q564 111 554 43Q546 -18 529 -62T481 -141T402 -193T288 -210Q235 -210 190 -195T118 -157T76 -112T61 -74T71 -45T100 -31Q113 -31 130 -39T164 -57T202 -75T245 -83Q299 -83 321 -56T344 21Q327
14 311 9T280 1T252 -3T225 -4Q166 -4 124 29T64 110T45 215Q45 271 46 310T53 379T64 428T83 457T110 473T146 477Q209 477 234 456T260 388L261 227Q261 211 261 204T262 185T266 169T273 159T285 151T304 149Q334 149 341 165T349 226L350 388Q350 419 360 438T396
467T464 477Q490 477 508 469T538 447T554 407T562 353T564 282Z" />
<glyph unicode="z" glyph-name="z" horiz-adv-x="557" d="M452 126Q481 126 497 118T519 95T525 54Q525 21 503 11T423 0H128Q94 0 66 23T37 85Q37 127 48 150T98 213L229 351H156Q102 351 78 366T54 415Q54 452 71 464T142 477H446Q483 477 504 457T526 400Q526
366 517 348T470 287L319 125L452 126Z" />
<glyph unicode="{" glyph-name="braceleft" horiz-adv-x="549" d="M362 648Q362 340 288 320Q362 305 362 -7Q415 -7 449 -25T484 -83Q484 -116 456 -137T376 -158H268Q195 -158 169 -134T143 -48V248Q65 259 65 322Q65 350 85 369T143 395V690Q143 751 169 775T268
800H376Q428 800 456 779T484 724Q484 684 450 666T362 648Z" />
<glyph unicode="|" glyph-name="bar" horiz-adv-x="339" d="M280 28Q280 -73 170 -73Q133 -73 110 -65T74 -36T61 20V633Q61 657 69 674T92 702T126 717T170 722Q187 722 200 721T226 717T248 709T265 695T276 673T280 642V28Z" />
<glyph unicode="}" glyph-name="braceright" horiz-adv-x="556" d="M194 648Q141 648 107 666T72 724Q72 758 100 779T180 800H288Q361 800 387 776T413 690V395Q451 389 471 370T491 322Q491 259 413 248V-48Q413 -90 403 -113T365 -147T288 -158H180Q128 -158
100 -137T72 -83Q72 -43 106 -25T194 -7Q194 305 268 320Q194 340 194 648Z" />
<glyph unicode="~" glyph-name="asciitilde" horiz-adv-x="475" d="M154 123Q154 88 125 64T53 39Q-5 39 -25 68T-45 153Q-45 192 -31 226T14 284T87 308Q112 308 138 303T187 291T230 274T267 256T296 240T315 228L321 223Q321 257 350 282T422 308Q480 308 500
279T521 195Q521 133 486 86T388 39Q347 39 309 52T247 81T198 110T154 123Z" />
<glyph unicode="&#xa0;" glyph-name="nbsp" horiz-adv-x="270" />
<glyph unicode="&#xa1;" glyph-name="exclamdown" horiz-adv-x="341" d="M56 616Q56 649 85 670T167 691Q285 691 285 616Q285 539 167 539Q119 539 88 557T56 616ZM276 83Q276 36 250 15T163 -7Q105 -7 83 18T61 94Q61 142 81 256T101 418Q101 461 115 480T165
499Q202 499 219 481T236 421Q236 372 256 253T276 83Z" />
<glyph unicode="&#xa2;" glyph-name="cent" horiz-adv-x="599" d="M342 431Q342 454 316 454Q297 454 282 434T259 382T251 315Q251 266 281 235T364 204Q415 204 452 215Q467 219 488 230T519 242Q539 242 548 232T558 210Q558 177 517 131T408 63V2Q408 -37
397 -59T365 -90T312 -99Q264 -99 242 -79T219 -5V65Q137 90 89 150T41 300Q41 385 88 444T219 528L220 593Q220 623 233 643T266 672T314 681Q360 681 384 665T408 601V536Q551 511 551 399Q551 380 544 360T521 321T475 288T405 275Q387 275 376 277T352 286T333
307T327 345Q327 366 334 394T342 431Z" />
<glyph unicode="&#xa3;" glyph-name="sterling" horiz-adv-x="556" d="M368 447V416H409Q447 416 463 403T479 355Q479 318 466 306T409 294H369V162H423Q468 162 485 145T502 81T482 18T414 0H104Q40 0 40 79Q40 114 52 131T93 157Q129 168 140 178T151 213V294H120Q53
294 53 353Q53 382 69 399T120 416H152V446Q153 575 189 629T330 684Q413 684 459 650T506 581Q506 566 494 555T458 543Q409 543 389 526Q368 509 368 447Z" />
<glyph unicode="&#xa4;" glyph-name="currency" horiz-adv-x="652" d="M400 316Q400 338 393 357T368 389T327 402Q303 402 285 389T259 357T251 316Q251 283 271 258T327 232Q363 232 381 257T400 316ZM59 225Q42 266 42 314Q42 365 60 407L50 414Q0 448 0 477Q0
504 24 531T70 559Q90 559 123 536L155 514Q227 556 326 556Q422 556 493 516L522 536Q555 559 574 559Q596 559 620 532T644 477Q644 448 595 414L590 411Q609 367 609 314Q609 264 590 221L610 208Q644 184 644 156Q644 129 621 101T575 72Q556 72 534 87L491
117Q421 79 326 79Q229 79 157 119L110 87Q89 72 69 72Q54 72 38 85T11 119T0 156Q0 184 35 208L59 225Z" />
<glyph unicode="&#xa5;" glyph-name="yen" horiz-adv-x="723" d="M538 167Q575 167 591 156T608 115Q608 86 593 76T538 65H458Q434 0 352 0Q310 0 286 15T249 65H160Q93 65 93 115Q93 141 107 154T160 167H239V224H160Q93 224 93 274Q93 291 98 301T118 319T160
326H220L84 485Q42 533 42 568Q42 623 84 655Q124 685 155 685Q198 685 232 646L354 504L456 623Q507 684 565 684Q608 684 632 660Q673 619 673 581Q673 560 659 537T614 476L491 326H538Q576 326 592 315T608 274Q608 264 607 257T601 243T592 234T579 228T561
225T538 224H470V167H538Z" />
<glyph unicode="&#xa6;" glyph-name="brokenbar" horiz-adv-x="339" d="M280 73Q280 -28 170 -28Q133 -28 110 -20T74 9T61 65V210Q61 256 90 277T170 299Q225 299 252 284T280 219V73ZM280 496Q280 395 170 395Q114 395 88 415T61 488V633Q61 679 90 700T170
722Q225 722 252 707T280 642V496Z" />
<glyph unicode="&#xa7;" glyph-name="section" horiz-adv-x="800" d="M516 325Q516 335 508 343T476 364Q448 380 417 399T373 428T344 443T315 449Q285 449 285 418Q285 394 315 364T388 313T468 292Q489 292 502 300T516 325ZM179 578Q179 628 195 670T242 747T326
800T448 820Q566 820 645 772T724 667Q724 646 711 634T682 622Q664 622 630 640T554 677T476 696Q418 696 418 648Q418 630 434 614T472 586T533 555T601 516Q632 497 647 487T683 462T714 438T735 414T751 386T759 355T763 316Q763 254 727 207T646 144Q648 129
648 112Q648 77 639 47T609 -9T556 -55T473 -85T358 -96Q290 -96 228 -79T124 -37T58 18T33 72Q33 94 47 109T91 125Q111 125 188 99T312 72Q357 72 357 103Q357 114 352 122T337 136T310 152T273 170T221 196T156 232Q117 254 93 278T56 331T44 396Q44 426 53
453T74 497T106 531T141 557T179 578Z" />
<glyph unicode="&#xa8;" glyph-name="dieresis" horiz-adv-x="452" d="M241 804Q241 836 268 856T345 877Q450 877 450 804Q450 763 423 747T345 731Q300 731 271 748T241 804ZM0 804Q0 836 27 856T104 877Q209 877 209 804Q209 763 183 747T104 731Q59 731 30
748T0 804Z" />
<glyph unicode="&#xa9;" glyph-name="copyright" horiz-adv-x="535" d="M277 585Q277 593 281 605T286 622Q286 639 271 639Q257 639 248 619T238 573Q238 546 254 530T299 513Q330 513 352 519Q360 522 371 528T388 535Q402 535 409 529T417 513Q417 485 377
450T276 415Q202 415 155 455T107 564Q107 630 154 668T276 707Q410 707 410 623Q410 596 389 573T323 549Q308 549 300 551T284 561T277 585ZM59 642T59 563T121 429T271 374Q358 374 418 429T479 563T419 697T271 752Q183 752 121 697ZM-4 459T-4 563T76 740T271
814Q383 814 462 741T541 563T462 386T271 312Q157 312 77 385Z" />
<glyph unicode="&#xaa;" glyph-name="ordfeminine" horiz-adv-x="624" d="M250 345Q195 345 159 390T122 514Q122 594 158 641T250 689Q307 689 355 649Q374 684 416 684Q454 684 475 668T496 607V424Q496 382 479 366T416 350Q371 350 356 375Q311 345 250 345ZM345
582Q333 602 314 602Q296 602 285 575T274 514Q274 482 284 457T314 432Q333 432 345 451V582Z" />
<glyph unicode="&#xab;" glyph-name="guillemotleft" horiz-adv-x="799" d="M292 65L89 216Q51 243 51 293Q51 340 86 367L260 509Q313 550 355 550Q377 550 399 527T421 475Q421 466 418 457T406 438T387 418T358 394L238 296L360 203Q400 175 411 157T422 116Q422
87 400 64T357 41Q326 41 292 65ZM644 65L441 216Q403 243 403 293Q403 340 438 367L613 509Q666 550 708 550Q730 550 752 527T774 475Q774 462 767 450T747 425T710 394L591 296L713 203Q753 175 764 157T775 116Q775 97 765 79T739 51T709 41Q678 41 644 65Z"
/>
<glyph unicode="&#xac;" glyph-name="logicalnot" horiz-adv-x="559" d="M540 170Q540 117 523 99T461 80Q442 80 428 85T405 102T390 133T385 179V260H104Q23 260 23 330Q23 405 110 405H442Q462 405 476 403T501 397Q540 381 540 316V170Z" />
<glyph unicode="&#xad;" glyph-name="uni00AD" horiz-adv-x="1096" />
<glyph unicode="&#xae;" glyph-name="registered" horiz-adv-x="549" d="M307 607T307 624T297 647T256 653V593Q284 593 295 600ZM256 486Q256 424 208 424Q184 424 173 437T161 483V656Q161 680 174 692T208 705H284Q335 705 366 682T397 621Q397 568 348 554Q368
553 384 535T401 490Q401 450 391 437T355 424Q308 424 308 465Q308 502 301 514T279 526H256V486ZM66 642T66 563T128 429T278 374Q364 374 425 429T486 563T425 697T278 752Q190 752 128 697ZM3 459T3 563T83 740T278 814Q390 814 469 741T548 563T469 386T278
312Q163 312 83 385Z" />
<glyph unicode="&#xaf;" glyph-name="overscore" horiz-adv-x="475" d="M34 599Q34 643 61 663T131 684H339Q394 684 416 661T438 597Q438 561 413 540T347 519H145Q85 519 60 536T34 599Z" />
<glyph unicode="&#xb0;" glyph-name="degree" horiz-adv-x="366" d="M220 556Q220 574 211 587T183 600Q165 600 155 587T144 557T154 528T183 515Q195 515 204 521T216 536T220 556ZM182 404Q104 404 52 444T0 555Q0 627 51 668T182 710T312 669T363 555Q363
520 349 491T311 444T253 415T182 404Z" />
<glyph unicode="&#xb1;" glyph-name="plusminus" horiz-adv-x="552" d="M387 443Q440 443 460 426T481 366Q481 330 457 316T378 301H343V245Q343 166 275 166Q201 166 201 251V301H147Q68 301 68 370Q68 404 85 423T150 443H201V485Q201 538 218 558T278 579Q303
579 317 568T337 534T343 476V443H387ZM414 131Q452 131 467 115T483 61Q483 28 465 15T406 2H165Q92 2 92 64Q92 131 161 131H414Z" />
<glyph unicode="&#xb2;" glyph-name="twosuperior" horiz-adv-x="582" d="M338 405H415Q474 405 474 339Q474 314 467 300T441 278T390 270H200Q151 270 133 283T115 339Q115 349 116 357T122 373T133 388T150 401Q206 439 233 459T280 503T306 547T312 599Q312
638 288 638Q261 638 261 592Q261 566 245 559T195 551Q150 551 134 570T118 635T161 711T282 742Q472 742 472 597Q472 563 465 536T446 490T415 454T379 427T338 405Z" />
<glyph unicode="&#xb3;" glyph-name="threesuperior" horiz-adv-x="586" d="M310 590Q310 624 246 624Q233 624 210 622T177 619Q127 619 127 680Q127 742 273 742Q367 742 413 711T460 631Q460 561 400 520Q428 505 443 492T466 458T474 407Q474 346 426 308T297
270Q196 270 153 290T109 353Q109 389 123 401T162 414Q175 414 201 412T242 409Q318 409 318 437Q318 446 315 452T304 462T283 468T249 470Q208 470 191 480T174 520Q174 563 231 563Q269 563 287 567T307 575T310 590Z" />
<glyph unicode="&#xb4;" glyph-name="acute" horiz-adv-x="371" d="M208 762Q230 775 256 775Q291 775 312 744T334 678Q334 628 272 604L150 563Q125 555 104 555Q84 555 69 563T45 584T37 615Q37 651 77 679Q77 679 93 690L208 762Z" />
<glyph unicode="&#xb5;" glyph-name="uni00B5" horiz-adv-x="625" d="M265 211Q265 154 309 154Q331 154 345 175T359 229V363Q359 414 386 445T460 476Q514 476 544 453T574 366V106Q574 45 549 22T461 -1Q385 -1 367 50Q319 14 264 -1V-88Q264 -151 242 -178T159
-206Q104 -206 80 -161T52 -16Q46 146 46 260Q46 294 46 313T47 357T52 395T60 425T74 449T94 464T122 475T159 478Q215 478 239 457T264 394Q264 359 264 295T265 211Z" />
<glyph unicode="&#xb6;" glyph-name="paragraph" horiz-adv-x="1000" d="M355 118Q271 118 197 147T72 241T21 392Q21 538 111 611T356 684H902Q949 684 965 669T982 614Q982 578 958 567T880 556V107Q880 47 855 24T767 0Q708 0 687 27T665 118V556H570V107Q570
47 545 24T457 0Q398 0 377 27T355 118Z" />
<glyph unicode="&#xb7;" glyph-name="middot" horiz-adv-x="315" d="M44 234Q44 268 72 289T153 310Q262 310 262 234Q262 191 234 175T153 158Q106 158 75 176T44 234Z" />
<glyph unicode="&#xb8;" glyph-name="cedilla" horiz-adv-x="599" d="M365 -36Q407 -57 407 -110Q407 -171 365 -208T266 -246Q250 -246 230 -242T188 -231T152 -209T137 -175Q137 -152 153 -131T187 -109Q194 -109 208 -115T227 -121Q236 -121 243 -113T250 -94Q250
-85 231 -71T211 -45Q211 -39 219 -20T235 14L243 30H373Q352 -11 352 -23Q352 -30 365 -36Z" />
<glyph unicode="&#xb9;" glyph-name="onesuperior" horiz-adv-x="434" d="M324 381Q324 324 304 300T242 276Q201 276 183 297T163 375L162 636Q128 636 107 648T85 689Q85 713 104 727T161 742Q174 742 199 742T236 742Q271 742 290 734T316 710T324 665V381Z" />
<glyph unicode="&#xba;" glyph-name="ordmasculine" horiz-adv-x="631" d="M353 512Q353 548 344 575T317 603Q300 603 290 575T279 512Q279 476 289 449T317 422T344 448T353 512ZM400 341T317 341T178 386T122 510Q122 590 176 637T316 684T456 638T510 510Q510
432 455 387Z" />
<glyph unicode="&#xbb;" glyph-name="guillemotright" horiz-adv-x="834" d="M533 65Q499 41 468 41Q446 41 424 64T402 116Q402 139 413 157T464 203L586 296L467 394Q432 421 418 438T404 475Q404 504 426 527T469 550Q512 550 565 509L739 367Q774 340 774
293Q774 243 736 216L533 65ZM180 65Q146 41 115 41Q94 41 72 64T50 116Q50 139 61 157T111 203L234 296L114 394Q79 421 65 438T51 475Q51 494 61 512T87 540T117 550Q159 550 212 509L386 367Q421 340 421 293Q421 243 383 216L180 65Z" />
<glyph unicode="&#xbc;" glyph-name="onequarter" horiz-adv-x="1033" d="M266 393Q266 338 247 315T186 291Q160 291 144 299T119 329T110 388L109 640Q34 640 34 691Q34 714 53 728T108 743Q121 743 145 743T181 742Q230 742 247 726T265 668L266 393ZM857 17Q817
17 799 39T781 116H655Q612 116 591 137T569 191Q569 227 587 255Q635 330 695 417Q730 469 792 469L851 468Q900 468 918 452T936 394V215Q965 213 975 201T986 164Q986 139 975 129T936 117Q936 63 917 40T857 17ZM780 212L782 356L691 212H780ZM352 65Q351 63
346 55T339 46T334 38T327 31T320 26T313 21T304 19T293 18Q271 18 249 27T213 53T199 88Q199 107 206 118L574 657Q589 678 600 686T631 695Q653 695 675 686T713 662T728 629Q728 612 722 604L352 65Z" />
<glyph unicode="&#xbd;" glyph-name="onehalf" horiz-adv-x="1083" d="M849 132H925Q982 132 982 68Q982 32 964 17T900 2H716Q669 2 652 14T634 68Q634 89 641 102T668 129Q769 197 797 230T825 320Q825 358 802 358Q776 358 776 314Q776 296 767 287T745 276T712
273Q668 273 653 292T638 355T679 429T796 458Q980 458 980 318Q980 278 970 248T940 196T900 161T849 132ZM266 393Q266 338 247 315T186 291Q160 291 144 299T119 329T110 388L109 640Q34 640 34 691Q34 714 53 728T108 743Q121 743 145 743T181 742Q230 742
247 726T265 668L266 393ZM352 65Q351 63 346 55T339 46T334 38T327 31T320 26T313 21T304 19T293 18Q271 18 249 27T213 53T199 88Q199 107 206 118L574 657Q589 678 600 686T631 695Q653 695 675 686T713 662T728 629Q728 612 722 604L352 65Z" />
<glyph unicode="&#xbe;" glyph-name="threequarters" horiz-adv-x="1033" d="M207 589Q207 622 145 622Q132 622 111 620T78 617Q30 617 30 676Q30 736 171 736Q262 736 307 706T353 628Q353 561 294 521Q334 500 349 478T365 412Q365 353 319 316T195 279Q97
279 55 299T13 360Q13 394 26 406T64 419Q76 419 102 417T141 414Q215 414 215 441Q215 459 201 466T148 473Q108 473 92 483T76 521Q76 563 131 563Q167 563 184 566T204 574T207 589ZM881 -4Q854 -4 838 5T813 36T804 95H679Q657 95 640 101T613 117T597 141T592
170Q592 206 611 234Q659 309 719 396Q754 448 816 448L875 447Q924 447 941 431T959 373V194Q988 191 999 180T1010 143Q1010 126 1005 116T989 102T959 96Q959 42 940 19T881 -4ZM804 191L806 335L715 191H804ZM404 65Q403 63 398 55T391 46T385 38T378 31T372
26T364 21T355 19T345 18Q311 18 281 39T250 88Q250 107 258 118L626 657Q636 671 642 678T658 690T683 695Q717 695 748 675T780 629Q780 612 774 604L404 65Z" />
<glyph unicode="&#xbf;" glyph-name="questiondown" horiz-adv-x="583" d="M421 425Q421 458 392 479T311 501Q275 501 249 493T207 467T192 425Q192 349 311 349Q358 349 389 366T421 425ZM38 -17Q38 -107 107 -152T306 -197Q427 -197 483 -165T540 -74Q540 -57
533 -39T510 -3T464 27T394 39Q351 39 330 29T308 -12Q308 -25 316 -43T324 -67Q324 -92 298 -92Q274 -92 259 -63T243 5Q243 39 257 71T290 127T329 173T363 219T377 264Q377 316 304 316Q274 316 229 289T142 219T69 111T38 -17Z" />
<glyph unicode="&#xc0;" glyph-name="Agrave" horiz-adv-x="712" d="M358 522Q315 522 295 497T274 408V290H440V410Q440 472 420 497T358 522ZM440 152H274V99Q274 48 247 24T154 0Q126 0 108 8T77 35T57 90T47 178T43 309Q43 368 54 419T83 508T126 576T180
627T239 660T301 679T360 685Q402 685 443 674T526 634T599 565T651 457T671 309Q671 243 669 197T662 115T650 58T629 24T600 5T560 0Q516 0 489 11T451 44T440 99V152ZM285 964L411 884Q413 883 417 880Q431 871 438 866T455 850T469 829T474 802Q474 774 454
755T399 736Q376 736 349 745L214 790Q145 816 145 872Q145 910 169 944T232 978Q261 978 285 964Z" />
<glyph unicode="&#xc1;" glyph-name="Aacute" horiz-adv-x="712" d="M358 522Q315 522 295 497T274 408V290H440V410Q440 472 420 497T358 522ZM440 152H274V99Q274 48 247 24T154 0Q126 0 108 8T77 35T57 90T47 178T43 309Q43 368 54 419T83 508T126 576T180
627T239 660T301 679T360 685Q402 685 443 674T526 634T599 565T651 457T671 309Q671 243 669 197T662 115T650 58T629 24T600 5T560 0Q516 0 489 11T451 44T440 99V152ZM436 977Q459 991 488 991Q527 991 551 957T575 885Q575 829 506 803L372 758Q344 749 321
749Q288 749 268 768T247 815Q247 834 256 850T274 873T303 893Q307 896 309 897L436 977Z" />
<glyph unicode="&#xc2;" glyph-name="Acircumflex" horiz-adv-x="712" d="M358 522Q315 522 295 497T274 408V290H440V410Q440 472 420 497T358 522ZM440 152H274V99Q274 48 247 24T154 0Q126 0 108 8T77 35T57 90T47 178T43 309Q43 368 54 419T83 508T126 576T180
627T239 660T301 679T360 685Q402 685 443 674T526 634T599 565T651 457T671 309Q671 243 669 197T662 115T650 58T629 24T600 5T560 0Q516 0 489 11T451 44T440 99V152ZM506 906Q559 852 559 818Q559 789 536 768T484 746Q458 746 427 778Q415 790 400 809T377
835T361 842Q353 842 344 834T322 808T300 781Q268 748 239 748Q218 748 201 757T173 783T163 818Q163 825 164 831T168 844T174 855T182 866T189 876T198 886T207 896Q280 981 360 981Q385 981 407 975T448 955T478 932T506 906Z" />
<glyph unicode="&#xc3;" glyph-name="Atilde" horiz-adv-x="712" d="M358 522Q315 522 295 497T274 408V290H440V410Q440 472 420 497T358 522ZM440 152H274V99Q274 48 247 24T154 0Q126 0 108 8T77 35T57 90T47 178T43 309Q43 368 54 419T83 508T126 576T180
627T239 660T301 679T360 685Q402 685 443 674T526 634T599 565T651 457T671 309Q671 243 669 197T662 115T650 58T629 24T600 5T560 0Q516 0 489 11T451 44T440 99V152ZM304 811Q304 785 283 767T231 749Q209 749 194 755T172 773T162 798T159 832Q159 877 184
910T255 944Q337 944 425 883Q425 908 446 926T499 944Q541 944 556 924T571 862Q571 818 546 784T474 749Q444 749 416 758T371 779T336 801T304 811Z" />
<glyph unicode="&#xc4;" glyph-name="Adieresis" horiz-adv-x="712" d="M358 522Q315 522 295 497T274 408V290H440V410Q440 472 420 497T358 522ZM440 152H274V99Q274 48 247 24T154 0Q126 0 108 8T77 35T57 90T47 178T43 309Q43 368 54 419T83 508T126 576T180
627T239 660T301 679T360 685Q402 685 443 674T526 634T599 565T651 457T671 309Q671 243 669 197T662 115T650 58T629 24T600 5T560 0Q516 0 489 11T451 44T440 99V152ZM382 823Q382 855 409 875T486 896Q591 896 591 823Q591 782 565 766T486 750Q441 750 412
767T382 823ZM141 823Q141 855 168 875T245 896Q350 896 350 823Q350 782 324 766T245 750Q200 750 171 767T141 823Z" />
<glyph unicode="&#xc5;" glyph-name="Aring" horiz-adv-x="712" d="M358 522Q315 522 295 497T274 408V290H440V410Q440 472 420 497T358 522ZM440 152H274V99Q274 48 247 24T154 0Q126 0 108 8T77 35T57 90T47 178T43 309Q43 368 54 419T83 508T126 576T180 627T239
660T301 679T360 685Q402 685 443 674T526 634T599 565T651 457T671 309Q671 243 669 197T662 115T650 58T629 24T600 5T560 0Q516 0 489 11T451 44T440 99V152ZM399 879Q399 900 391 916T368 932Q353 932 345 916T336 880T344 844T368 828Q378 828 385 835T396
854T399 879ZM438 742T368 742T250 778T203 878Q203 942 249 979T367 1017T485 980T531 878Q531 815 485 779Z" />
<glyph unicode="&#xc6;" glyph-name="AE" horiz-adv-x="942" d="M407 156L271 157V74Q269 36 243 18T158 0Q96 0 72 32T47 156Q47 215 54 309Q61 391 83 456T140 563T220 633T315 673T423 685H809Q867 685 895 667T924 602Q924 558 900 541T819 523H636V406H773Q826
406 847 389T869 331Q869 314 863 302T843 283T811 272T764 268H637V162L819 161Q875 161 899 145T924 86Q924 38 896 19T809 0H521H520Q461 0 435 34T407 156ZM409 285L408 521Q365 521 333 496T294 407Q289 368 284 285H409Z" />
<glyph unicode="&#xc7;" glyph-name="Ccedilla" horiz-adv-x="783" d="M478 -65Q519 -86 519 -138Q519 -199 478 -236T379 -274Q362 -274 342 -271T300 -259T264 -237T250 -204Q250 -180 266 -159T299 -138Q305 -138 313 -141T328 -146T340 -149Q349 -149 356
-142T363 -123Q363 -113 344 -99T324 -74Q324 -60 353 -2Q217 15 134 105T51 341Q51 503 148 597T402 691Q482 691 550 664T658 589T698 484Q698 442 680 403T624 338T540 311Q500 311 468 333T436 396Q436 415 454 449T473 497Q473 518 456 533T414 548Q366 548
335 494T304 370Q304 289 349 236T470 182Q507 182 541 196T596 228T639 260T679 275Q701 275 717 258T733 221Q733 203 723 179T692 127T643 74T573 29T484 0Q465 -40 465 -52Q465 -58 478 -65Z" />
<glyph unicode="&#xc8;" glyph-name="Egrave" horiz-adv-x="672" d="M471 406Q524 406 545 389T567 331Q567 308 556 295T521 275T462 268H300V162L517 161Q573 161 597 145T622 86Q622 38 594 19T507 0H183Q124 0 97 31T69 143V565Q69 685 183 685H507Q545 685
569 678T607 653T622 602Q622 558 598 541T517 523H299V406H471ZM274 964L400 884Q402 883 406 880Q420 871 427 866T444 850T458 829T463 802Q463 774 442 755T388 736Q365 736 338 745L203 790Q134 816 134 872Q134 910 158 944T221 978Q250 978 274 964Z" />
<glyph unicode="&#xc9;" glyph-name="Eacute" horiz-adv-x="672" d="M471 406Q524 406 545 389T567 331Q567 308 556 295T521 275T462 268H300V162L517 161Q573 161 597 145T622 86Q622 38 594 19T507 0H183Q124 0 97 31T69 143V565Q69 685 183 685H507Q545 685
569 678T607 653T622 602Q622 558 598 541T517 523H299V406H471ZM386 977Q410 991 439 991Q478 991 502 957T526 885Q526 829 457 803L322 758Q295 749 272 749Q250 749 233 758T206 782T197 815Q197 834 206 850T225 873T254 893Q258 896 259 897L386 977Z" />
<glyph unicode="&#xca;" glyph-name="Ecircumflex" horiz-adv-x="672" d="M471 406Q524 406 545 389T567 331Q567 308 556 295T521 275T462 268H300V162L517 161Q573 161 597 145T622 86Q622 38 594 19T507 0H183Q124 0 97 31T69 143V565Q69 685 183 685H507Q545
685 569 678T607 653T622 602Q622 558 598 541T517 523H299V406H471ZM488 906Q541 852 541 818Q541 789 518 768T466 746Q440 746 409 778Q397 790 382 809T359 835T343 842Q334 842 326 834T304 808T282 781Q250 748 221 748Q200 748 183 757T155 783T145 818Q145
825 146 831T150 844T155 855T163 866T171 876T180 886T189 896Q262 981 342 981Q367 981 389 975T430 955T460 932T488 906Z" />
<glyph unicode="&#xcb;" glyph-name="Edieresis" horiz-adv-x="672" d="M471 406Q524 406 545 389T567 331Q567 308 556 295T521 275T462 268H300V162L517 161Q573 161 597 145T622 86Q622 38 594 19T507 0H183Q124 0 97 31T69 143V565Q69 685 183 685H507Q545
685 569 678T607 653T622 602Q622 558 598 541T517 523H299V406H471ZM355 826Q355 858 382 878T459 899Q564 899 564 826Q564 785 537 769T459 753Q414 753 385 770T355 826ZM114 826Q114 858 141 878T218 899Q323 899 323 826Q323 785 296 769T218 753Q173 753
144 770T114 826Z" />
<glyph unicode="&#xcc;" glyph-name="Igrave" horiz-adv-x="364" d="M300 150Q300 72 271 36T183 0Q144 0 121 12T84 56T70 142V565Q70 685 183 685Q241 685 270 663T300 574V150ZM114 964L240 884Q242 883 246 880Q265 868 274 861T293 837T303 802Q303 774 283
755T228 736Q205 736 178 745L43 790Q-26 816 -26 872Q-26 910 -2 944T61 978Q90 978 114 964Z" />
<glyph unicode="&#xcd;" glyph-name="Iacute" horiz-adv-x="364" d="M300 150Q300 72 271 36T183 0Q144 0 121 12T84 56T70 142V565Q70 685 183 685Q241 685 270 663T300 574V150ZM251 977Q275 991 304 991Q343 991 367 957T391 885Q391 829 322 803L187 758Q160
749 137 749Q115 749 98 758T71 782T62 815Q62 834 71 850T90 873T119 893Q123 896 125 897L251 977Z" />
<glyph unicode="&#xce;" glyph-name="Icircumflex" horiz-adv-x="364" d="M300 150Q300 72 271 36T183 0Q144 0 121 12T84 56T70 142V565Q70 685 183 685Q241 685 270 663T300 574V150ZM337 906Q391 852 391 818Q391 789 367 768T315 746Q289 746 258 778Q246
790 231 809T208 835T192 842Q184 842 175 834T153 808T131 781Q99 748 70 748Q49 748 32 757T4 783T-6 818Q-6 826 -4 834T0 847T9 861T17 872T28 885T38 896Q111 981 191 981Q216 981 238 975T279 955T309 932T337 906Z" />
<glyph unicode="&#xcf;" glyph-name="Idieresis" horiz-adv-x="364" d="M300 150Q300 72 271 36T183 0Q144 0 121 12T84 56T70 142V565Q70 685 183 685Q241 685 270 663T300 574V150ZM212 825Q212 857 239 877T316 898Q421 898 421 825Q421 784 394 768T316 752Q271
752 242 769T212 825ZM-29 825Q-29 857 -2 877T75 898Q180 898 180 825Q180 784 154 768T75 752Q30 752 1 769T-29 825Z" />
<glyph unicode="&#xd0;" glyph-name="Eth" horiz-adv-x="720" d="M329 684Q485 684 579 594T674 346Q674 295 665 247T633 154T578 75T494 21T379 0H182Q121 0 95 31T68 143V262Q-12 262 -12 327Q-12 394 68 397V565Q68 684 182 684H329ZM299 136Q325 136 344
141T381 161T410 200T427 261T434 350Q434 407 424 446T395 506T354 535T299 545V397Q328 395 345 387T369 364T377 323Q377 308 373 298T358 280T334 268T299 263V136Z" />
<glyph unicode="&#xd1;" glyph-name="Ntilde" horiz-adv-x="773" d="M706 95Q706 51 680 26T604 0Q592 0 580 3T558 10T534 23T512 39T488 59T465 80T439 104T413 129L230 302V85Q230 36 212 18T153 0Q109 0 88 20T67 87V570Q67 627 96 656T179 685Q194 685 206
683T229 678T249 667T269 653T292 632L545 380V598Q545 627 555 646T583 675T625 684Q653 684 671 676T697 648T706 599V95ZM322 811Q322 794 312 780T286 757T248 749Q226 749 212 755T190 773T180 798T177 832Q177 877 202 910T273 944Q355 944 443 883Q443 908
464 926T517 944Q545 944 561 933T583 906T589 862Q589 818 563 784T492 749Q462 749 434 758T389 779T354 801T322 811Z" />
<glyph unicode="&#xd2;" glyph-name="Ograve" horiz-adv-x="805" d="M402 140Q428 140 448 157T481 203T499 266T506 338Q506 389 495 434T460 512T402 544Q370 544 346 512T310 434T298 338Q298 288 309 244T345 170T402 140ZM402 -6Q329 -6 265 17T154 83T79
192T52 338Q52 500 149 595T402 691T655 596T753 338Q753 231 706 152T579 34T402 -6ZM311 964L438 884Q440 883 443 880Q458 871 465 866T481 850T495 829T500 802Q500 774 480 755T425 736Q402 736 375 745L241 790Q172 816 172 872Q172 910 195 944T259 978Q287
978 311 964Z" />
<glyph unicode="&#xd3;" glyph-name="Oacute" horiz-adv-x="805" d="M402 140Q428 140 448 157T481 203T499 266T506 338Q506 389 495 434T460 512T402 544Q370 544 346 512T310 434T298 338Q298 288 309 244T345 170T402 140ZM402 -6Q329 -6 265 17T154 83T79
192T52 338Q52 500 149 595T402 691T655 596T753 338Q753 231 706 152T579 34T402 -6ZM473 977Q497 991 526 991Q565 991 589 957T613 885Q613 829 544 803L409 758Q382 749 359 749Q337 749 320 758T293 782T284 815Q284 834 293 850T312 873T341 893Q345 896
347 897L473 977Z" />
<glyph unicode="&#xd4;" glyph-name="Ocircumflex" horiz-adv-x="805" d="M402 140Q428 140 448 157T481 203T499 266T506 338Q506 389 495 434T460 512T402 544Q370 544 346 512T310 434T298 338Q298 288 309 244T345 170T402 140ZM402 -6Q329 -6 265 17T154
83T79 192T52 338Q52 500 149 595T402 691T655 596T753 338Q753 231 706 152T579 34T402 -6ZM551 906Q605 852 605 818Q605 799 594 782T565 756T529 746Q504 746 472 778Q460 790 445 809T422 835T406 842Q398 842 389 834T367 808T345 781Q313 748 284 748Q264
748 247 757T219 783T208 818Q208 825 209 831T214 844T219 855T227 866T235 876T244 886T252 896Q325 981 405 981Q431 981 453 975T494 955T523 932T551 906Z" />
<glyph unicode="&#xd5;" glyph-name="Otilde" horiz-adv-x="805" d="M402 140Q428 140 448 157T481 203T499 266T506 338Q506 389 495 434T460 512T402 544Q370 544 346 512T310 434T298 338Q298 288 309 244T345 170T402 140ZM402 -6Q329 -6 265 17T154 83T79
192T52 338Q52 500 149 595T402 691T655 596T753 338Q753 231 706 152T579 34T402 -6ZM348 811Q348 794 339 780T312 757T275 749Q253 749 239 755T217 773T206 798T203 832Q203 853 209 872T227 908T258 934T300 944Q381 944 470 883Q470 908 491 926T543 944Q585
944 600 924T615 862Q615 818 590 784T518 749Q488 749 461 758T416 779T380 801T348 811Z" />
<glyph unicode="&#xd6;" glyph-name="Odieresis" horiz-adv-x="805" d="M402 140Q428 140 448 157T481 203T499 266T506 338Q506 389 495 434T460 512T402 544Q370 544 346 512T310 434T298 338Q298 288 309 244T345 170T402 140ZM402 -6Q329 -6 265 17T154 83T79
192T52 338Q52 500 149 595T402 691T655 596T753 338Q753 231 706 152T579 34T402 -6ZM424 826Q424 858 451 878T528 899Q633 899 633 826Q633 785 606 769T528 753Q483 753 454 770T424 826ZM183 826Q183 858 210 878T287 899Q392 899 392 826Q392 785 366 769T287
753Q242 753 213 770T183 826Z" />
<glyph unicode="&#xd7;" glyph-name="multiply" horiz-adv-x="602" d="M302 113Q299 110 292 102T280 89T268 78T256 66T243 55T230 45T217 37T203 30T188 26T173 24Q134 24 98 56T62 126Q62 134 69 145T91 170T117 193T146 217T168 234Q161 240 144 254T116 279T94
303T75 334T68 369Q68 384 76 399T98 426T127 445T159 452Q180 452 201 440T236 413T271 375T302 341Q311 350 323 364T344 389T366 412T390 433T416 446T444 452Q465 452 486 440T521 407T535 368Q535 353 530 338T509 306T487 281T458 254T436 234Q439 231 456
217T485 194T511 171T533 146T541 126Q541 101 524 77T481 39T430 24Q421 24 412 26T395 32T377 42T361 54T345 69T330 83T315 98T302 113Z" />
<glyph unicode="&#xd8;" glyph-name="Oslash" horiz-adv-x="805" d="M299 353L462 509Q437 544 402 544Q358 544 330 487T299 353ZM402 140Q428 140 448 157T481 203T499 266T506 338Q506 343 506 348T505 359L330 193Q343 168 361 154T402 140ZM621 659Q662 698
689 698Q712 698 736 678T760 634Q760 601 716 559L698 542Q753 456 753 338Q753 231 706 152T579 34T402 -6Q277 -6 187 57L141 14Q107 -18 80 -18Q56 -18 35 5T14 54Q14 83 43 111L94 160Q52 237 52 338Q52 500 149 595T402 691Q515 691 599 639L621 659Z" />
<glyph unicode="&#xd9;" glyph-name="Ugrave" horiz-adv-x="737" d="M674 565V267Q674 121 604 58T366 -6Q207 -6 133 62T58 267V565Q58 618 89 651T169 685Q228 685 258 663T289 574V248Q290 201 309 182T366 163Q413 163 428 184T443 248V575Q443 609 451 632T477
666T513 681T558 685Q616 685 645 657T674 565ZM296 964L423 884Q424 883 428 880Q447 868 456 861T475 837T485 802Q485 774 465 755T410 736Q387 736 360 745L225 790Q156 816 156 872Q156 910 180 944T243 978Q272 978 296 964Z" />
<glyph unicode="&#xda;" glyph-name="Uacute" horiz-adv-x="737" d="M674 565V267Q674 121 604 58T366 -6Q207 -6 133 62T58 267V565Q58 618 89 651T169 685Q228 685 258 663T289 574V248Q290 201 309 182T366 163Q413 163 428 184T443 248V575Q443 609 451 632T477
666T513 681T558 685Q616 685 645 657T674 565ZM455 977Q479 991 508 991Q547 991 571 957T595 885Q595 829 526 803L391 758Q364 749 341 749Q319 749 302 758T275 782T266 815Q266 834 275 850T294 873T323 893Q327 896 329 897L455 977Z" />
<glyph unicode="&#xdb;" glyph-name="Ucircumflex" horiz-adv-x="737" d="M674 565V267Q674 121 604 58T366 -6Q207 -6 133 62T58 267V565Q58 618 89 651T169 685Q228 685 258 663T289 574V248Q290 201 309 182T366 163Q413 163 428 184T443 248V575Q443 609 451
632T477 666T513 681T558 685Q616 685 645 657T674 565ZM514 906Q568 852 568 818Q568 799 557 782T528 756T492 746Q466 746 435 778Q423 790 408 809T385 835T369 842Q361 842 352 834T330 808T308 781Q276 748 247 748Q216 748 194 768T171 818Q171 826 173
834T177 847T186 861T195 872T205 885T215 896Q288 981 368 981Q385 981 401 978T431 969T455 956T478 940T497 923T514 906Z" />
<glyph unicode="&#xdc;" glyph-name="Udieresis" horiz-adv-x="737" d="M674 565V267Q674 121 604 58T366 -6Q207 -6 133 62T58 267V565Q58 618 89 651T169 685Q228 685 258 663T289 574V248Q290 201 309 182T366 163Q413 163 428 184T443 248V575Q443 609 451
632T477 666T513 681T558 685Q616 685 645 657T674 565ZM380 825Q380 857 407 877T484 898Q589 898 589 825Q589 784 562 768T484 752Q439 752 410 769T380 825ZM139 825Q139 857 166 877T243 898Q348 898 348 825Q348 784 322 768T243 752Q198 752 169 769T139
825Z" />
<glyph unicode="&#xdd;" glyph-name="Yacute" horiz-adv-x="711" d="M470 150Q470 95 456 62T417 14T352 0Q294 0 267 31T239 143L238 305L84 485Q42 533 42 568Q42 623 84 655Q124 685 155 685Q198 685 232 646L354 504L456 623Q507 684 565 684Q608 684 632
660Q673 619 673 581Q673 560 659 537T614 476L470 300V150ZM420 977Q444 991 473 991Q512 991 536 957T560 885Q560 829 491 803L356 758Q329 749 306 749Q284 749 267 758T240 782T231 815Q231 834 240 850T259 873T288 893Q292 896 294 897L420 977Z" />
<glyph unicode="&#xde;" glyph-name="Thorn" horiz-adv-x="650" d="M299 593Q432 588 509 518T586 340Q586 234 508 166T295 94Q277 0 183 0Q125 0 98 31T70 142V565Q70 685 183 685Q237 685 266 667T299 593ZM300 269Q339 273 366 291T393 339Q393 370 366 389T300
412V269Z" />
<glyph unicode="&#xdf;" glyph-name="germandbls" horiz-adv-x="700" d="M352 703Q404 703 451 693T542 661T610 598T636 501Q636 426 586 371Q634 337 653 300T673 195Q673 108 615 54T458 -1Q380 -1 347 29T313 118T335 193T404 210Q468 210 468 251Q468 295
413 295Q366 295 345 313T324 371Q324 401 341 419T388 438Q427 438 442 447T457 480Q457 505 432 517T376 530Q332 530 299 506T266 428V130Q266 59 239 30T156 0T74 31T47 143V454Q47 575 136 639T352 703Z" />
<glyph unicode="&#xe0;" glyph-name="agrave" horiz-adv-x="624" d="M225 -6Q146 -6 94 58T42 235Q42 311 66 368T131 454T225 484Q306 484 375 427Q402 477 462 477Q516 477 546 454T576 367V107Q576 47 551 24T463 0Q397 0 376 37Q312 -6 225 -6ZM361 331Q344
360 317 360Q291 360 275 322T259 235Q259 189 274 153T316 117Q344 117 361 144V331ZM281 753L396 681Q398 680 406 674T417 667T426 660T435 651T441 643T447 632T450 620T452 606Q452 581 434 564T385 546Q363 546 339 554L217 595Q155 618 155 669Q155 704
176 735T233 766Q258 766 281 753Z" />
<glyph unicode="&#xe1;" glyph-name="aacute" horiz-adv-x="624" d="M225 -6Q146 -6 94 58T42 235Q42 311 66 368T131 454T225 484Q306 484 375 427Q402 477 462 477Q516 477 546 454T576 367V107Q576 47 551 24T463 0Q397 0 376 37Q312 -6 225 -6ZM361 331Q344
360 317 360Q291 360 275 322T259 235Q259 189 274 153T316 117Q344 117 361 144V331ZM376 753Q398 765 424 765Q460 765 481 734T503 669Q503 619 440 595L318 554Q294 546 273 546Q252 546 237 554T213 575T205 606Q205 623 213 637T230 658T256 677Q260 679
261 680L376 753Z" />
<glyph unicode="&#xe2;" glyph-name="acircumflex" horiz-adv-x="624" d="M225 -6Q146 -6 94 58T42 235Q42 311 66 368T131 454T225 484Q306 484 375 427Q402 477 462 477Q516 477 546 454T576 367V107Q576 47 551 24T463 0Q397 0 376 37Q312 -6 225 -6ZM361 331Q344
360 317 360Q291 360 275 322T259 235Q259 189 274 153T316 117Q344 117 361 144V331ZM470 702Q521 651 521 619Q521 591 499 571T449 550Q424 550 395 580Q390 586 382 594T371 606T362 615T353 623T346 628T339 632T332 633Q326 633 319 629T306 619T291 602T274
583Q243 552 216 552Q186 552 165 571T144 619Q144 626 146 633T150 646T158 659T166 670T176 682T186 693Q255 773 331 773Q362 773 391 760T434 736T470 702Z" />
<glyph unicode="&#xe3;" glyph-name="atilde" horiz-adv-x="624" d="M225 -6Q146 -6 94 58T42 235Q42 311 66 368T131 454T225 484Q306 484 375 427Q402 477 462 477Q516 477 546 454T576 367V107Q576 47 551 24T463 0Q397 0 376 37Q312 -6 225 -6ZM361 331Q344
360 317 360Q291 360 275 322T259 235Q259 189 274 153T316 117Q344 117 361 144V331ZM274 613Q274 597 265 584T240 562T204 554Q177 554 161 565T141 592T136 634Q136 660 146 684T177 724T228 740Q265 740 306 726T368 696L390 681Q390 706 410 723T460 740Q487
740 502 730T523 704T528 662Q528 635 519 612T488 571T436 554Q400 554 368 569T313 598T274 613Z" />
<glyph unicode="&#xe4;" glyph-name="adieresis" horiz-adv-x="624" d="M225 -6Q146 -6 94 58T42 235Q42 311 66 368T131 454T225 484Q306 484 375 427Q402 477 462 477Q516 477 546 454T576 367V107Q576 47 551 24T463 0Q397 0 376 37Q312 -6 225 -6ZM361 331Q344
360 317 360Q291 360 275 322T259 235Q259 189 274 153T316 117Q344 117 361 144V331ZM352 605Q352 637 379 657T456 678Q561 678 561 605Q561 564 535 548T456 532Q411 532 382 549T352 605ZM112 605Q112 637 139 657T216 678Q321 678 321 605Q321 564 294 548T216
532Q171 532 142 549T112 605Z" />
<glyph unicode="&#xe5;" glyph-name="aring" horiz-adv-x="624" d="M225 -6Q146 -6 94 58T42 235Q42 311 66 368T131 454T225 484Q306 484 375 427Q402 477 462 477Q516 477 546 454T576 367V107Q576 47 551 24T463 0Q397 0 376 37Q312 -6 225 -6ZM361 331Q344
360 317 360Q291 360 275 322T259 235Q259 189 274 153T316 117Q344 117 361 144V331ZM355 696Q355 717 348 733T325 749Q310 749 301 733T292 697T300 661T325 645Q335 645 342 653T352 672T355 696ZM395 559T325 559T207 595T160 695Q160 759 206 796T324 834T441
797T487 695Q487 632 441 596Z" />
<glyph unicode="&#xe6;" glyph-name="ae" horiz-adv-x="906" d="M563 280Q632 281 638 281Q652 281 660 299Q665 312 665 335Q665 398 627 398Q606 398 587 364T563 280ZM367 140Q350 181 350 229Q350 285 369 332Q352 360 325 360Q299 360 283 322T267 235Q267
189 282 153T324 117Q350 117 367 140ZM423 411Q466 446 514 465T631 484Q748 484 802 443T857 329Q857 284 820 251T709 217L568 216Q578 184 604 166T670 147Q713 147 758 158Q777 163 799 174T832 185Q849 185 858 175T868 150Q868 132 852 107T808 56T732 12T631
-6Q559 -6 512 11T420 67Q363 -6 223 -6Q146 -6 93 58T40 234Q40 348 91 415T223 483Q278 483 323 466T423 411Z" />
<glyph unicode="&#xe7;" glyph-name="ccedilla" horiz-adv-x="599" d="M387 -60Q428 -81 428 -134Q428 -195 386 -232T288 -270Q271 -270 251 -266T209 -255T173 -233T159 -199Q159 -176 175 -155T208 -133Q214 -133 222 -136T237 -142T249 -145Q258 -145 265
-137T272 -118Q272 -109 252 -95T232 -69Q232 -57 260 -2Q161 15 101 79T41 242Q41 354 120 419T325 484Q442 484 496 446T551 342Q551 323 544 303T521 263T475 231T405 218Q387 218 376 220T352 228T333 250T327 288Q327 308 334 336T342 374Q342 397 316 397Q288
397 270 355T251 258Q251 225 264 200T304 161T364 146Q415 146 452 158Q467 162 488 173T519 184Q539 184 548 175T558 152Q558 117 512 68T392 1Q374 -36 374 -47Q374 -54 387 -60Z" />
<glyph unicode="&#xe8;" glyph-name="egrave" horiz-adv-x="595" d="M321 -6Q199 -6 120 57T40 229Q40 347 118 415T321 484Q438 484 492 443T547 329Q547 284 510 251T399 217L258 216Q268 184 294 166T360 147Q403 147 448 158Q467 163 489 174T522 185Q539
185 548 175T558 150Q558 132 542 107T498 56T422 12T321 -6ZM253 280Q322 281 328 281Q343 281 350 299Q355 312 355 335Q355 398 317 398Q296 398 277 364T253 280ZM267 753L382 681Q384 680 392 674T403 667T412 660T421 651T427 643T433 632T436 620T438 606Q438
581 420 564T371 546Q349 546 325 554L203 595Q141 618 141 669Q141 704 162 735T219 766Q244 766 267 753Z" />
<glyph unicode="&#xe9;" glyph-name="eacute" horiz-adv-x="595" d="M321 -6Q199 -6 120 57T40 229Q40 347 118 415T321 484Q438 484 492 443T547 329Q547 284 510 251T399 217L258 216Q268 184 294 166T360 147Q403 147 448 158Q467 163 489 174T522 185Q539
185 548 175T558 150Q558 132 542 107T498 56T422 12T321 -6ZM253 280Q322 281 328 281Q343 281 350 299Q355 312 355 335Q355 398 317 398Q296 398 277 364T253 280ZM369 753Q390 766 416 766Q452 766 473 735T495 669Q495 619 433 595L311 554Q286 546 265 546Q235
546 216 563T197 606Q197 623 205 637T223 659T249 677Q252 679 254 681L369 753Z" />
<glyph unicode="&#xea;" glyph-name="ecircumflex" horiz-adv-x="595" d="M321 -6Q199 -6 120 57T40 229Q40 347 118 415T321 484Q438 484 492 443T547 329Q547 284 510 251T399 217L258 216Q268 184 294 166T360 147Q403 147 448 158Q467 163 489 174T522 185Q539
185 548 175T558 150Q558 132 542 107T498 56T422 12T321 -6ZM253 280Q322 281 328 281Q343 281 350 299Q355 312 355 335Q355 398 317 398Q296 398 277 364T253 280ZM445 702Q496 651 496 619Q496 591 474 571T424 550Q399 550 370 580Q365 586 357 594T346 606T337
615T328 623T321 628T314 632T307 633Q301 633 294 629T281 619T266 602T249 583Q218 552 191 552Q161 552 140 571T119 619Q119 626 121 633T125 646T133 659T141 670T151 682T161 693Q230 773 306 773Q337 773 366 760T409 736T445 702Z" />
<glyph unicode="&#xeb;" glyph-name="edieresis" horiz-adv-x="595" d="M321 -6Q199 -6 120 57T40 229Q40 347 118 415T321 484Q438 484 492 443T547 329Q547 284 510 251T399 217L258 216Q268 184 294 166T360 147Q403 147 448 158Q467 163 489 174T522 185Q539
185 548 175T558 150Q558 132 542 107T498 56T422 12T321 -6ZM253 280Q322 281 328 281Q343 281 350 299Q355 312 355 335Q355 398 317 398Q296 398 277 364T253 280ZM328 605Q328 637 355 657T432 678Q537 678 537 605Q537 564 511 548T432 532Q387 532 358 549T328
605ZM88 605Q88 637 115 657T192 678Q297 678 297 605Q297 564 270 548T192 532Q147 532 118 549T88 605Z" />
<glyph unicode="&#xec;" glyph-name="igrave" horiz-adv-x="283" d="M249 107Q249 47 224 24T136 0Q77 0 56 27T34 118V364Q34 398 46 423T81 463T135 477Q189 477 219 454T249 367V107ZM85 753L200 681Q202 680 210 674T221 667T230 660T239 651T245 642T251
631T254 620T256 606Q256 580 238 563T189 546Q167 546 143 554L21 595Q-41 618 -41 669Q-41 703 -20 734T37 766Q63 766 85 753Z" />
<glyph unicode="&#xed;" glyph-name="iacute" horiz-adv-x="283" d="M249 107Q249 47 224 24T136 0Q77 0 56 27T34 118V364Q34 398 46 423T81 463T135 477Q189 477 219 454T249 367V107ZM198 753Q220 765 245 765Q281 765 302 734T324 669Q324 619 262 595L140
554Q115 546 94 546Q64 546 45 563T26 606Q26 623 35 637T52 658T78 677Q81 679 83 680L198 753Z" />
<glyph unicode="&#xee;" glyph-name="icircumflex" horiz-adv-x="283" d="M249 107Q249 47 224 24T136 0Q77 0 56 27T34 118V364Q34 398 46 423T81 463T135 477Q189 477 219 454T249 367V107ZM285 702Q336 651 336 619Q336 600 325 584T298 559T264 549Q240 549
210 580Q205 586 197 594T186 606T177 615T168 623T161 628T154 632T147 633Q142 633 137 631T126 623T115 612T103 598T89 583Q58 551 31 551Q1 551 -20 571T-41 619Q-41 626 -39 633T-35 646T-27 659T-19 670T-9 681T1 692Q70 773 146 773Q177 773 206 760T249
735T285 702Z" />
<glyph unicode="&#xef;" glyph-name="idieresis" horiz-adv-x="283" d="M249 107Q249 47 224 24T136 0Q77 0 56 27T34 118V364Q34 398 46 423T81 463T135 477Q189 477 219 454T249 367V107ZM161 608Q161 640 188 660T265 681Q370 681 370 608Q370 567 344 551T265
535Q220 535 191 552T161 608ZM-79 608Q-79 640 -52 660T25 681Q130 681 130 608Q130 567 103 551T25 535Q-20 535 -49 552T-79 608Z" />
<glyph unicode="&#xf0;" glyph-name="eth" horiz-adv-x="632" d="M473 750Q532 750 532 709Q532 689 515 674T452 644Q517 575 558 478T599 291Q599 146 517 65Q444 -7 322 -7Q202 -7 123 58T44 236Q44 316 83 373T188 457T340 485Q309 546 264 566Q180 522 140
522Q93 522 93 560Q93 606 185 623Q156 638 137 658T117 698Q117 759 196 759Q239 759 277 743T363 698Q372 703 391 715T420 733T445 744T473 750ZM369 237Q369 289 356 328T318 368Q301 368 288 348T269 299T263 237Q263 186 277 148T317 109Q335 109 347 128T364
176T369 237Z" />
<glyph unicode="&#xf1;" glyph-name="ntilde" horiz-adv-x="616" d="M353 269Q353 325 309 325Q288 325 275 308T259 261V107Q259 46 234 23T146 0Q87 0 66 27T44 118V364Q44 415 71 446T145 477Q225 477 248 428Q326 479 438 479Q509 479 540 423T572 239Q572
176 569 137T560 69T539 26T507 6T459 0Q403 0 379 21T354 83L353 269ZM240 613Q240 588 220 571T171 554Q130 554 116 574T102 633Q102 653 108 671T125 705T154 730T194 740Q232 740 272 725T335 696L356 681Q356 706 376 723T426 740Q466 740 480 720T494 662Q494
635 485 611T454 571T402 554Q374 554 348 563T305 583T271 603T240 613Z" />
<glyph unicode="&#xf2;" glyph-name="ograve" horiz-adv-x="631" d="M369 237Q369 289 356 328T318 368Q292 368 278 328T263 237Q263 186 277 148T317 109Q331 109 341 120T357 149T366 190T369 237ZM317 -7Q239 -7 177 21T77 105T39 236Q39 350 117 417T317
484T516 417T593 236Q593 123 515 58T317 -7ZM271 753L386 681Q388 680 396 674T407 667T416 660T425 651T431 642T437 631T440 620T442 606Q442 580 424 563T375 546Q353 546 329 554L207 595Q145 618 145 669Q145 703 166 734T223 766Q249 766 271 753Z" />
<glyph unicode="&#xf3;" glyph-name="oacute" horiz-adv-x="631" d="M369 237Q369 289 356 328T318 368Q292 368 278 328T263 237Q263 186 277 148T317 109Q331 109 341 120T357 149T366 190T369 237ZM317 -7Q239 -7 177 21T77 105T39 236Q39 350 117 417T317
484T516 417T593 236Q593 123 515 58T317 -7ZM398 753Q420 765 445 765Q481 765 502 734T524 669Q524 619 462 595L340 554Q315 546 294 546Q274 546 259 554T235 575T226 606Q226 623 235 637T252 658T278 677Q281 679 283 680L398 753Z" />
<glyph unicode="&#xf4;" glyph-name="ocircumflex" horiz-adv-x="631" d="M369 237Q369 289 356 328T318 368Q292 368 278 328T263 237Q263 186 277 148T317 109Q331 109 341 120T357 149T366 190T369 237ZM317 -7Q239 -7 177 21T77 105T39 236Q39 350 117 417T317
484T516 417T593 236Q593 123 515 58T317 -7ZM452 702Q503 651 503 619Q503 600 492 584T465 559T431 549Q407 549 377 580Q372 585 366 592T356 603T347 612T339 619T333 625T326 629T320 632T314 633Q309 633 304 631T293 623T282 612T270 598T256 583Q225 551
198 551Q168 551 147 571T126 619Q126 626 128 633T132 646T140 659T148 670T158 681T168 692Q237 773 313 773Q333 773 351 768T382 757T410 740T432 721T452 702Z" />
<glyph unicode="&#xf5;" glyph-name="otilde" horiz-adv-x="631" d="M369 237Q369 289 356 328T318 368Q292 368 278 328T263 237Q263 186 277 148T317 109Q331 109 341 120T357 149T366 190T369 237ZM317 -7Q239 -7 177 21T77 105T39 236Q39 350 117 417T317
484T516 417T593 236Q593 123 515 58T317 -7ZM256 613Q256 601 251 590T236 571T214 559T186 554Q146 554 132 574T118 633Q118 653 124 671T141 705T170 730T210 740Q248 740 288 725T350 696L372 681Q372 706 392 723T442 740Q482 740 496 720T510 662Q510 635
501 611T470 571T418 554Q382 554 350 568T295 598T256 613Z" />
<glyph unicode="&#xf6;" glyph-name="odieresis" horiz-adv-x="631" d="M369 237Q369 289 356 328T318 368Q292 368 278 328T263 237Q263 186 277 148T317 109Q331 109 341 120T357 149T366 190T369 237ZM317 -7Q239 -7 177 21T77 105T39 236Q39 350 117 417T317
484T516 417T593 236Q593 123 515 58T317 -7ZM341 605Q341 637 368 657T445 677Q550 677 550 605Q550 564 524 548T445 532Q400 532 371 549T341 605ZM101 605Q101 637 128 657T205 677Q310 677 310 605Q310 564 283 548T205 532Q160 532 131 549T101 605Z" />
<glyph unicode="&#xf7;" glyph-name="divide" horiz-adv-x="446" d="M365 310Q408 310 425 293T442 232Q442 195 422 181T356 166H85Q4 166 4 236Q4 310 81 310H365ZM129 417Q129 447 154 466T226 486Q325 486 325 417Q325 379 300 364T226 348Q184 348 157 364T129
417ZM129 62Q129 92 154 111T226 131Q325 131 325 62Q325 24 300 9T226 -7Q184 -7 157 9T129 62Z" />
<glyph unicode="&#xf8;" glyph-name="oslash" horiz-adv-x="631" d="M263 232L271 239L355 321L358 324Q343 368 318 368T278 328T263 237Q263 236 263 235T263 232ZM276 149Q292 109 317 109Q331 109 341 120T357 149T366 190T369 237V238V239L367 237L287 160L276
149ZM499 465Q524 490 545 490Q563 490 575 480T588 453Q588 432 556 403L541 390Q593 327 593 236Q593 123 515 58T317 -7Q228 -7 160 30L136 6Q114 -18 92 -18Q77 -18 64 -5T51 23Q51 35 56 43T73 62L95 81Q39 144 39 236Q39 350 117 417T317 484Q363 484 404
474T478 444L499 465Z" />
<glyph unicode="&#xf9;" glyph-name="ugrave" horiz-adv-x="625" d="M265 211Q265 154 309 154Q331 154 345 175T359 229V363Q359 388 366 409T386 445T418 468T460 476Q514 476 544 453T574 366V106Q574 45 549 22T461 -1Q385 -1 367 50Q291 1 179 1Q108 1 77
56T46 239Q46 302 49 341T58 409T78 452T110 472T159 478Q215 478 239 457T264 394L265 211ZM263 753L378 681Q379 680 388 674T398 667T407 660T416 651T423 642T429 631T432 620T434 606Q434 580 416 563T367 546Q345 546 321 554L199 595Q137 618 137 669Q137
703 158 734T215 766Q240 766 263 753Z" />
<glyph unicode="&#xfa;" glyph-name="uacute" horiz-adv-x="625" d="M265 211Q265 154 309 154Q331 154 345 175T359 229V363Q359 388 366 409T386 445T418 468T460 476Q514 476 544 453T574 366V106Q574 45 549 22T461 -1Q385 -1 367 50Q291 1 179 1Q108 1 77
56T46 239Q46 302 49 341T58 409T78 452T110 472T159 478Q215 478 239 457T264 394L265 211ZM366 753Q387 765 413 765Q449 765 470 734T492 669Q492 619 430 595L308 554Q283 546 262 546Q232 546 213 563T194 606Q194 623 202 637T220 658T246 677Q249 679 251
680L366 753Z" />
<glyph unicode="&#xfb;" glyph-name="ucircumflex" horiz-adv-x="625" d="M265 211Q265 154 309 154Q331 154 345 175T359 229V363Q359 388 366 409T386 445T418 468T460 476Q514 476 544 453T574 366V106Q574 45 549 22T461 -1Q385 -1 367 50Q291 1 179 1Q108
1 77 56T46 239Q46 302 49 341T58 409T78 452T110 472T159 478Q215 478 239 457T264 394L265 211ZM456 702Q507 651 507 619Q507 600 496 584T469 559T435 549Q410 549 381 580Q376 586 368 594T357 606T348 615T339 623T332 628T325 632T318 633Q314 633 310 631T301
626T292 617T282 608T272 596T260 583Q229 551 202 551Q172 551 151 571T130 619Q130 626 132 633T136 646T144 659T152 670T162 681T171 692Q241 773 317 773Q336 773 354 768T386 757T414 740T436 721T456 702Z" />
<glyph unicode="&#xfc;" glyph-name="udieresis" horiz-adv-x="625" d="M265 211Q265 154 309 154Q331 154 345 175T359 229V363Q359 388 366 409T386 445T418 468T460 476Q514 476 544 453T574 366V106Q574 45 549 22T461 -1Q385 -1 367 50Q291 1 179 1Q108 1
77 56T46 239Q46 302 49 341T58 409T78 452T110 472T159 478Q215 478 239 457T264 394L265 211ZM336 605Q336 637 363 657T440 677Q545 677 545 605Q545 564 519 548T440 532Q395 532 366 549T336 605ZM96 605Q96 637 123 657T200 677Q304 677 304 605Q304 564
278 548T200 532Q155 532 126 549T96 605Z" />
<glyph unicode="&#xfd;" glyph-name="yacute" horiz-adv-x="607" d="M564 282Q564 111 554 43Q546 -18 529 -62T481 -141T402 -193T288 -210Q235 -210 190 -195T118 -157T76 -112T61 -74T71 -45T100 -31Q116 -31 139 -44T191 -70T245 -83Q299 -83 321 -56T344
21Q283 -4 225 -4Q181 -4 146 15T89 65T56 135T45 215Q45 327 53 381T82 456T146 477Q209 477 234 456T260 388L261 227Q261 211 261 204T262 185T266 169T273 159T285 151T304 149Q334 149 341 165T349 226L350 388Q350 434 375 455T464 477Q490 477 508 469T538
447T554 407T562 353T564 282ZM374 753Q395 765 421 765Q457 765 478 734T500 669Q500 619 438 595L316 554Q291 546 270 546Q250 546 235 554T211 575T202 606Q202 623 210 637T228 658T254 677Q257 679 259 680L374 753Z" />
<glyph unicode="&#xfe;" glyph-name="thorn" horiz-adv-x="650" d="M290 340V136Q306 117 329 117Q356 117 371 153T386 235Q386 284 370 322T328 360Q306 360 290 340ZM290 -48Q290 -126 261 -162T173 -198Q115 -198 88 -167T60 -56V593Q60 713 173 713Q231 713
260 691T290 602V442Q352 484 420 484Q500 484 551 417T603 235Q603 123 551 59T420 -6Q347 -6 290 24V-48Z" />
<glyph unicode="&#xff;" glyph-name="ydieresis" horiz-adv-x="607" d="M564 282Q564 111 554 43Q546 -18 529 -62T481 -141T402 -193T288 -210Q235 -210 190 -195T118 -157T76 -112T61 -74T71 -45T100 -31Q116 -31 139 -44T191 -70T245 -83Q299 -83 321 -56T344
21Q283 -4 225 -4Q181 -4 146 15T89 65T56 135T45 215Q45 327 53 381T82 456T146 477Q209 477 234 456T260 388L261 227Q261 211 261 204T262 185T266 169T273 159T285 151T304 149Q334 149 341 165T349 226L350 388Q350 434 375 455T464 477Q490 477 508 469T538
447T554 407T562 353T564 282ZM326 605Q326 637 353 657T430 677Q535 677 535 605Q535 564 509 548T430 532Q385 532 356 549T326 605ZM86 605Q86 637 113 657T190 677Q294 677 294 605Q294 564 268 548T190 532Q145 532 116 549T86 605Z" />
<glyph unicode="&#x2013;" glyph-name="endash" horiz-adv-x="650" d="M492 346Q528 346 549 339T579 314T588 268Q588 243 577 229T543 208T483 202H142Q61 202 61 272Q61 346 148 346H492Z" />
<glyph unicode="&#x2014;" glyph-name="emdash" horiz-adv-x="823" d="M686 346Q740 346 761 329T782 268Q782 231 757 217T677 202H121Q40 202 40 272Q40 346 127 346H686Z" />
<glyph unicode="&#x2018;" glyph-name="quoteleft" horiz-adv-x="320" d="M265 452Q265 418 237 397T157 376Q35 376 35 472Q35 510 50 544T88 601T139 640T192 665T236 673Q254 673 264 663T275 636Q275 616 260 608Q216 587 195 571T157 528Q203 528 234 510T265 452Z" />
<glyph unicode="&#x2019;" glyph-name="quoteright" horiz-adv-x="330" d="M53 597Q53 631 81 652T161 673Q215 673 249 651T283 578Q283 550 275 525T254 479T223 442T186 413T148 393T112 380T82 376Q70 376 62 381T48 394T43 413Q43 435 58 442Q103 464 124
479T161 521Q131 521 108 528T69 552T53 597Z" />
<glyph unicode="&#x201a;" glyph-name="quotesinglbase" horiz-adv-x="331" d="M53 69Q53 102 81 123T162 145Q284 145 284 49Q284 -13 245 -61T162 -131T82 -152Q65 -152 55 -142T44 -115Q44 -94 58 -87Q104 -64 124 -49T162 -7Q115 -7 84 11T53 69Z" />
<glyph unicode="&#x201c;" glyph-name="quotedblleft" horiz-adv-x="601" d="M550 452Q550 418 522 397T441 376Q319 376 319 472Q319 534 358 582T441 652T521 673Q538 673 548 663T559 636Q559 615 545 608Q500 586 479 570T441 528Q550 528 550 452ZM270 452Q270
418 242 397T162 376Q40 376 40 472Q40 510 55 544T93 601T144 640T197 665T241 673Q259 673 269 663T280 636Q280 616 265 608Q221 587 200 571T162 528Q209 528 239 510T270 452Z" />
<glyph unicode="&#x201d;" glyph-name="quotedblright" horiz-adv-x="609" d="M52 597Q52 631 80 652T161 673Q283 673 283 578Q283 540 268 506T230 449T179 409T126 384T81 376Q64 376 54 386T43 413Q43 435 57 442Q102 464 123 479T161 521Q114 521 83 539T52
597ZM332 597Q332 631 360 652T440 673Q562 673 562 578Q562 531 540 491T484 426T418 389T361 376Q343 376 333 386T322 413Q322 434 337 442Q382 464 402 479T440 521Q394 521 363 539T332 597Z" />
<glyph unicode="&#x201e;" glyph-name="quotedblbase" horiz-adv-x="601" d="M46 70Q46 103 74 124T155 145Q276 145 276 50Q276 -12 238 -60T154 -130T75 -152Q58 -152 48 -142T37 -115Q37 -93 51 -86Q96 -64 117 -49T155 -7Q108 -7 77 11T46 70ZM326 70Q326
103 354 124T434 145Q556 145 556 50Q556 3 534 -37T478 -102T412 -139T355 -152Q337 -152 327 -142T316 -115Q316 -93 331 -86Q376 -64 396 -49T434 -7Q387 -7 357 11T326 70Z" />
<glyph unicode="&#x2022;" glyph-name="bullet" horiz-adv-x="329" d="M45 244Q45 291 75 320T162 349Q282 349 282 249Q282 190 252 167T164 143Q112 143 79 167T45 244Z" />
<glyph unicode="&#x2039;" glyph-name="guilsinglleft" horiz-adv-x="446" d="M280 7L78 158Q40 185 40 235Q40 282 75 309L249 451Q302 492 344 492Q366 492 388 469T410 417Q410 398 396 381T347 336L227 238L349 145Q389 117 400 99T411 58Q411 29 389 6T346
-17Q314 -17 280 7Z" />
<glyph unicode="&#x203a;" glyph-name="guilsinglright" horiz-adv-x="446" d="M165 7Q131 -17 100 -17Q78 -17 56 6T34 58Q34 81 45 99T96 145L218 238L99 336Q64 363 50 380T36 417Q36 432 42 446T58 470T79 486T101 492Q144 492 197 451L371 309Q406 282 406
235Q406 185 368 158L165 7Z" />
</font>
</defs>
</svg>
