<?xml version="1.0" standalone="no"?>
<!DOCTYPE svg PUBLIC "-//W3C//DTD SVG 1.1//EN" "http://www.w3.org/Graphics/SVG/1.1/DTD/svg11.dtd">
<svg xmlns="http://www.w3.org/2000/svg">
<defs >
<font id="Spectral" horiz-adv-x="565" ><font-face
    font-family="Spectral Light"
    units-per-em="1000"
    panose-1="2 2 3 2 6 0 0 0 0 0"
    ascent="1059"
    descent="-463"
    alphabetic="0" />
<glyph unicode=" " glyph-name="uni0020" horiz-adv-x="250" />
<glyph unicode="!" glyph-name="uni0021" horiz-adv-x="250" d="M115 200L78 660H172L135 200H115ZM125 -5Q102 -5 87 12T71 50Q71 72 86 88T125 105Q147 105 163 89T179 50Q179 29 163 12T125 -5Z" />
<glyph unicode="&quot;" glyph-name="uni0022" horiz-adv-x="405" d="M101 490L80 740H145L125 490H101ZM281 490L260 740H325L305 490H281Z" />
<glyph unicode="#" glyph-name="uni0023" horiz-adv-x="500" d="M43 0L102 203H3V244H114L162 409H63V450H174L235 660H279L218 450H354L415 660H459L398 450H497V409H386L338 244H437V203H326L267 0H223L282 203H146L87 0H43ZM158 244H294L342 409H206L158 244Z" />
<glyph unicode="$" glyph-name="uni0024" horiz-adv-x="500" d="M188 -80V-1Q134 14 102 43Q53 86 53 140Q53 160 65 166T89 172H115L120 168V141Q120 67 188 40V327Q123 360 94 397T64 492Q64 544 99 589T188 655V740H227V667Q245 670 262 670Q274 670 285 669V740H324V662Q365
652 389 630Q438 587 438 541Q438 508 402 508H377L372 513V542Q372 597 324 618V346Q391 310 419 272T447 173Q447 112 413 68T324 4V-80H285V-7Q265 -10 244 -10Q236 -10 227 -9V-80H188ZM271 373Q278 370 285 366V628Q273 629 260 629Q243 629 227 626V395Q245
385 271 373ZM133 518Q133 455 188 418V612Q133 582 133 518ZM245 30Q266 30 285 34V280Q263 291 227 309V31Q236 30 245 30ZM379 154Q379 218 324 256V49Q379 80 379 154Z" />
<glyph unicode="%" glyph-name="uni0025" horiz-adv-x="709" d="M399 345Q335 345 299 401T263 548Q263 633 301 691T399 750Q463 750 498 695T533 547Q533 463 495 404T399 345ZM405 370Q436 370 452 419T469 533Q469 615 450 670T392 725Q361 725 344 677T327
562Q327 480 347 425T405 370ZM106 11L576 750L608 729L137 -10L106 11ZM568 -10Q504 -10 468 46T432 193Q432 278 470 336T568 395Q632 395 667 340T702 192Q702 108 664 49T568 -10ZM574 15Q605 15 621 64T638 178Q638 260 619 315T561 370Q530 370 513 322T496
207Q496 125 516 70T574 15Z" />
<glyph unicode="&amp;" glyph-name="uni0026" horiz-adv-x="705" d="M223 -10Q139 -10 88 37T36 161Q36 209 67 257T174 356Q131 401 112 435T93 514Q93 567 141 618T269 670Q342 670 382 634T423 543Q423 494 381 456T264 373Q270 367 277 360T291 346L459 179Q488
224 513 283T562 412L464 444V464H697V444L613 413Q581 337 550 272T483 155L590 48L669 20V0H528L436 93Q392 44 340 17T223 -10ZM166 532Q166 494 184 465T243 394Q294 430 322 462T351 538Q351 578 327 604T261 630Q219 630 193 603T166 532ZM113 183Q113 118
153 82T257 45Q343 45 411 117L268 261Q247 282 229 300T196 334Q145 296 129 264T113 183Z" />
<glyph unicode="&apos;" glyph-name="uni0027" horiz-adv-x="225" d="M101 490L80 740H145L125 490H101Z" />
<glyph unicode="(" glyph-name="uni0028" horiz-adv-x="242" d="M218 -150Q141 -53 99 59T57 295Q57 419 99 531T218 740H236V737Q175 640 143 536T111 295Q111 158 143 55T236 -147V-150H218Z" />
<glyph unicode=")" glyph-name="uni0029" horiz-adv-x="242" d="M6 -150V-147Q67 -50 99 54T131 295Q131 432 99 536T6 737V740H24Q101 643 143 531T185 295Q185 171 143 59T24 -150H6Z" />
<glyph unicode="*" glyph-name="uni002A" horiz-adv-x="350" d="M59 466L158 575L16 605L32 654L165 595L149 740H201L185 595L318 654L334 605L192 575L291 466L248 435L175 560L102 435L59 466Z" />
<glyph unicode="+" glyph-name="uni002B" horiz-adv-x="500" d="M228 62V252H40V292H228V482H272V292H460V252H272V62H228Z" />
<glyph unicode="," glyph-name="uni002C" horiz-adv-x="240" d="M58 -199V-179Q139 -136 139 -72Q139 -44 126 -26T90 5L59 24L57 32L80 71Q92 92 104 92Q115 92 128 84Q189 49 189 -31Q189 -79 159 -123T58 -199Z" />
<glyph unicode="-" glyph-name="uni002D" horiz-adv-x="375" d="M50 228V286H325V228H50Z" />
<glyph unicode="." glyph-name="uni002E" horiz-adv-x="237" d="M118 -5Q96 -5 80 11T64 50Q64 72 80 88T118 104Q140 104 156 88T173 50Q173 28 157 12T118 -5Z" />
<glyph unicode="/" glyph-name="uni002F" horiz-adv-x="242" d="M0 -120L200 750H242L42 -120H0Z" />
<glyph unicode="0" glyph-name="uni0030" horiz-adv-x="500" d="M250 -10Q149 -10 94 83T39 331Q39 475 97 572T250 670Q351 670 406 577T461 329Q461 186 402 88T250 -10ZM266 33Q321 33 352 110T384 303Q384 454 346 541T235 628Q180 628 148 551T115 358Q115
208 154 121T266 33Z" />
<glyph unicode="1" glyph-name="uni0031" horiz-adv-x="500" d="M155 0V20L244 50V576L80 488V521L297 660H315V50L394 20V0H155Z" />
<glyph unicode="2" glyph-name="uni0032" horiz-adv-x="500" d="M54 0V25Q160 150 220 225T309 344T346 421T354 491Q354 555 321 591T233 627Q181 627 150 597T118 511V468L113 461H79Q60 461 52 467T43 499Q43 559 106 608Q143 638 176 654T263 670Q340 670
387 619T435 493Q435 451 423 418T379 344T290 238T143 68H392L434 166H452L442 0H54Z" />
<glyph unicode="3" glyph-name="uni0033" horiz-adv-x="500" d="M242 -10Q192 -10 157 1T90 36Q34 78 34 120Q34 141 43 146T70 152H104L111 145V117Q111 78 144 54T242 30Q309 30 346 70T383 172Q383 242 346 281T214 321H153V361H188Q257 361 303 399T349 505Q349
628 232 628Q186 628 158 602T129 530V496L122 488H89Q72 488 63 494T54 526Q54 552 70 578T124 627Q157 648 185 659T257 670Q333 670 381 625T429 512Q429 461 393 418T292 356Q378 343 421 296T464 178Q464 102 400 46T242 -10Z" />
<glyph unicode="4" glyph-name="uni0034" horiz-adv-x="500" d="M195 0V20L284 50V193H4V211L338 660H355V248H474V193H355V50L434 20V0H195ZM85 248H284V523L85 248Z" />
<glyph unicode="5" glyph-name="uni0035" horiz-adv-x="500" d="M191 -10Q99 -10 66 36Q58 47 58 57Q58 71 76 83L104 104H113L125 85Q156 35 228 35Q293 35 335 80T377 197Q377 256 338 306T186 356Q144 356 89 347V660H397V594H133V421Q162 423 188 423Q332
423 387 362T443 226Q443 121 370 56T191 -10Z" />
<glyph unicode="6" glyph-name="uni0036" horiz-adv-x="500" d="M254 -10Q160 -10 101 59T42 234Q42 392 141 507T413 670V641Q290 602 216 515T127 305Q153 343 193 366T286 389Q366 389 414 335T462 200Q462 121 410 56T254 -10ZM123 243Q123 131 162 81T257
30Q319 30 351 76T384 180Q384 331 255 331Q168 331 123 258Q123 251 123 243Z" />
<glyph unicode="7" glyph-name="uni0037" horiz-adv-x="500" d="M97 0Q123 63 144 113T194 224T268 371T389 595H55V660H456V641Q386 507 309 343T192 0H97Z" />
<glyph unicode="8" glyph-name="uni0038" horiz-adv-x="500" d="M252 -10Q170 -10 109 32T48 144Q48 194 75 238T188 335Q120 376 93 412T66 504Q66 572 123 621T253 670Q329 670 382 625T435 509Q435 464 401 427T306 356Q381 312 416 271T452 166Q452 79 386
35T252 -10ZM139 528Q139 486 164 453T272 375Q313 400 338 429T363 500Q363 563 330 595T245 627Q201 627 170 600T139 528ZM122 164Q122 100 160 66T256 31Q312 31 347 61T382 144Q382 207 338 241T219 317Q162 279 142 247T122 164Z" />
<glyph unicode="9" glyph-name="uni0039" horiz-adv-x="500" d="M88 -10V19Q210 58 284 145T373 354Q347 316 307 294T215 271Q134 271 86 325T38 460Q38 539 90 604T246 670Q340 670 399 601T458 426Q458 268 359 153T88 -10ZM117 480Q117 329 246 329Q331 329
377 401Q377 409 377 417Q377 529 338 579T244 630Q182 630 150 584T117 480Z" />
<glyph unicode=":" glyph-name="uni003A" horiz-adv-x="237" d="M118 -5Q96 -5 80 11T64 50Q64 72 80 88T118 104Q140 104 156 88T173 50Q173 28 157 12T118 -5ZM118 333Q96 333 80 349T64 388Q64 410 80 426T118 442Q140 442 156 426T173 388Q173 366 157 350T118 333Z" />
<glyph unicode=";" glyph-name="uni003B" horiz-adv-x="240" d="M118 333Q96 333 80 349T64 388Q64 410 80 426T118 442Q140 442 156 426T173 388Q173 366 157 350T118 333ZM58 -199V-179Q139 -136 139 -72Q139 -44 126 -26T90 5L59 24L57 32L80 71Q92 92 104
92Q115 92 128 84Q189 49 189 -31Q189 -79 159 -123T58 -199Z" />
<glyph unicode="&lt;" glyph-name="uni003C" horiz-adv-x="500" d="M460 62L40 252V292L460 482V437L96 272L460 107V62Z" />
<glyph unicode="=" glyph-name="uni003D" horiz-adv-x="500" d="M40 354V394H460V354H40ZM40 150V190H460V150H40Z" />
<glyph unicode="&gt;" glyph-name="uni003E" horiz-adv-x="500" d="M40 62V107L404 272L40 437V482L460 292V252L40 62Z" />
<glyph unicode="?" glyph-name="uni003F" horiz-adv-x="475" d="M204 200L184 340Q261 367 301 404T342 495Q342 564 308 595T224 627Q178 627 150 599T121 514V476L114 468H79Q62 468 55 474T47 504Q47 566 101 607Q134 633 166 651T248 670Q321 670 371 623T421
496Q421 434 379 383T233 285L225 200H204ZM215 -5Q192 -5 176 12T160 50Q160 72 176 88T215 105Q237 105 253 89T269 50Q269 29 253 12T215 -5Z" />
<glyph unicode="@" glyph-name="uni0040" horiz-adv-x="813" d="M377 -118Q240 -118 155 -40T70 167Q70 274 123 364T265 508T462 562Q592 562 667 484T743 284Q743 184 684 103T526 21Q445 21 460 107L465 136Q386 21 313 21Q278 21 256 50T233 137Q233 206 264
273T345 385T454 429Q496 429 531 406L556 425H575L523 140Q513 86 519 68T552 50Q612 50 658 117T704 281Q704 390 634 463T442 537Q296 537 209 435T122 188Q122 54 198 -19T399 -93Q466 -93 516 -78T611 -30L619 -48Q567 -82 509 -100T377 -118ZM291 160Q291
110 304 89T345 68Q374 68 406 94T470 163L505 362Q491 378 475 389T432 400Q371 400 331 327T291 160Z" />
<glyph unicode="A" glyph-name="uni0041" horiz-adv-x="733" d="M33 0V20L93 45L348 665H383L637 46L700 20V0H467V20L553 46L475 241H228L151 45L237 20V0H33ZM247 288H456L351 550L247 288Z" />
<glyph unicode="B" glyph-name="uni0042" horiz-adv-x="631" d="M65 0V20L144 50V610L65 640V660H289Q387 660 454 623T522 512Q522 460 488 417T389 354Q479 342 529 300T579 192Q579 110 504 55T316 0H65ZM278 613H222V364H284Q355 364 397 396T439 486Q439
613 278 613ZM316 317H222V46H323Q402 46 449 84T496 182Q496 252 449 284T316 317Z" />
<glyph unicode="C" glyph-name="uni0043" horiz-adv-x="721" d="M397 -10Q249 -10 160 81T70 312Q70 410 117 491T242 621T413 670Q486 670 529 656T614 622L618 455H599L547 574Q508 601 477 614T408 628Q295 628 221 547T147 346Q147 201 221 117T402 33Q453
33 489 47T553 80L611 194H629L619 39Q575 17 527 4T397 -10Z" />
<glyph unicode="D" glyph-name="uni0044" horiz-adv-x="750" d="M65 0V20L145 50V610L65 640V660H333Q499 660 589 575T680 360Q680 200 582 100T326 0H65ZM323 613H223V47H334Q455 47 526 124T598 329Q598 458 527 535T323 613Z" />
<glyph unicode="E" glyph-name="uni0045" horiz-adv-x="635" d="M65 0V20L144 50V610L65 640V660H537V492H520L466 613H222V364H397L437 447H454V236H437L397 317H222V47H494L548 178H565V0H65Z" />
<glyph unicode="F" glyph-name="uni0046" horiz-adv-x="602" d="M65 0V20L145 50V610L66 640V660H532V492H514L461 613H223V364H392L432 447H449V236H432L392 317H223V50L313 20V0H65Z" />
<glyph unicode="G" glyph-name="uni0047" horiz-adv-x="759" d="M403 -10Q259 -10 165 81T70 312Q70 414 117 495T244 623T421 670Q500 670 545 657T634 622L639 461H621L567 573Q525 603 492 615T417 628Q296 628 221 549T145 358Q145 208 227 124T424 40Q459
40 491 44T559 63V238L471 270V290H709V270L637 238V70Q594 33 529 12T403 -10Z" />
<glyph unicode="H" glyph-name="uni0048" horiz-adv-x="799" d="M65 0V20L144 50V610L65 640V660H304V640L222 610V364H577V610L495 640V660H734V640L655 610V50L734 20V0H495V20L577 50V317H222V50L304 20V0H65Z" />
<glyph unicode="I" glyph-name="uni0049" horiz-adv-x="376" d="M70 0V20L149 50V610L70 640V660H306V640L227 610V50L306 20V0H70Z" />
<glyph unicode="J" glyph-name="uni004A" horiz-adv-x="378" d="M46 -173Q13 -173 13 -145Q13 -143 14 -134T23 -94H29Q46 -98 56 -100T80 -103Q112 -103 131 -77T150 51V610L70 640V660H308V640L228 610V228Q228 111 212 27T155 -103Q112 -149 93 -161T46 -173Z" />
<glyph unicode="K" glyph-name="uni004B" horiz-adv-x="712" d="M65 0V20L145 50V610L65 640V660H303V640L223 610V340L506 613L432 640V660H637V640L576 621L301 360L625 40L689 20V0H558L223 336V50L303 20V0H65Z" />
<glyph unicode="L" glyph-name="uni004C" horiz-adv-x="623" d="M65 0V20L144 50V610L65 640V660H312V640L222 610V47H476L536 218H553V0H65Z" />
<glyph unicode="M" glyph-name="uni004D" horiz-adv-x="949" d="M60 0V20L139 50L160 608L74 640V660H247L482 112L720 660H886V640L802 609L819 50L889 20V0H669V20L743 49L732 567L484 -5H449L206 565L194 49L275 20V0H60Z" />
<glyph unicode="N" glyph-name="uni004E" horiz-adv-x="793" d="M62 0V20L141 50V609L63 640V660H203L595 151V611L501 640V660H731V640L652 610V-5H621L199 540V51L295 20V0H62Z" />
<glyph unicode="O" glyph-name="uni004F" horiz-adv-x="791" d="M395 -10Q255 -10 163 86T70 330Q70 477 162 573T395 670Q535 670 628 574T721 330Q721 183 628 87T395 -10ZM416 32Q515 32 576 104T638 299Q638 449 563 539T378 629Q279 629 216 557T153 363Q153
213 229 123T416 32Z" />
<glyph unicode="P" glyph-name="uni0050" horiz-adv-x="613" d="M65 0V20L145 50V610L65 640V660H300Q418 660 489 617T561 481Q561 399 482 345T281 291H223V50L313 20V0H65ZM223 613V338H304Q383 338 430 375T477 473Q477 547 430 580T297 613H223Z" />
<glyph unicode="Q" glyph-name="uni0051" horiz-adv-x="795" d="M673 -149Q615 -149 549 -125T371 -9Q240 -1 155 94T70 330Q70 477 162 573T395 670Q535 670 628 574T721 330Q721 205 653 116T476 -1Q566 -68 618 -91T722 -115Q764 -115 795 -104V-122Q772 -133
741 -141T673 -149ZM416 32Q515 32 576 104T638 299Q638 449 563 539T378 629Q279 629 216 557T153 363Q153 213 229 123T416 32Z" />
<glyph unicode="R" glyph-name="uni0052" horiz-adv-x="637" d="M65 0V20L145 50V610L65 640V660H298Q403 660 463 617T524 497Q524 439 486 396T385 331L576 46L642 20V0H510L314 307H223V51L298 20V0H65ZM288 613H223V354H294Q357 354 398 391T440 484Q440 544
399 578T288 613Z" />
<glyph unicode="S" glyph-name="uni0053" horiz-adv-x="525" d="M260 -10Q200 -10 158 1T70 36L60 196H77L129 81Q165 53 198 42T265 30Q395 30 395 154Q395 222 349 250T224 317Q156 352 120 388T83 491Q83 557 142 613T276 670Q322 670 359 659T437 628L447
472H430L386 582Q329 629 271 629Q219 629 189 598T159 519Q159 466 192 436T294 372Q385 328 427 289T470 173Q470 87 401 39T260 -10Z" />
<glyph unicode="T" glyph-name="uni0054" horiz-adv-x="670" d="M196 0V20L296 50V613H120L63 466H45V660H625V466H607L550 613H374V50L474 20V0H196Z" />
<glyph unicode="U" glyph-name="uni0055" horiz-adv-x="797" d="M399 -10Q290 -10 218 51T145 249V610L65 640V660H303V640L223 610V263Q223 138 278 90T422 41Q493 41 544 86T595 232V612L495 640V660H732V640L653 611V249Q653 112 581 51T399 -10Z" />
<glyph unicode="V" glyph-name="uni0056" horiz-adv-x="721" d="M349 -5L101 613L35 640V660H270V640L185 613V609L376 124H382L570 611V614L486 640V660H686V640L631 618L378 -5H349Z" />
<glyph unicode="W" glyph-name="uni0057" horiz-adv-x="970" d="M272 -5L89 613L15 640V660H258V640L171 613L304 149H309L484 665H515L698 149H703L832 610L745 640V660H955V640L889 612L705 -5H676L490 503H485L301 -5H272Z" />
<glyph unicode="X" glyph-name="uni0058" horiz-adv-x="728" d="M35 0V20L108 49L321 330L115 613L50 640V660H288V640L209 612V607L374 383L543 608V612L468 640V660H668V640L607 614L402 345L619 51L693 20V0H450V20L524 47V51L348 293L170 52V48L250 20V0H35Z" />
<glyph unicode="Y" glyph-name="uni0059" horiz-adv-x="706" d="M228 0V20L318 50V311L97 614L35 640V660H263V640L193 614V610L376 356L542 609V613L469 640V660H671V640L608 616L396 309V50L486 20V0H228Z" />
<glyph unicode="Z" glyph-name="uni005A" horiz-adv-x="638" d="M90 0V23L439 613H173L120 482H102V660H537V637L188 47H477L531 188H548V0H90Z" />
<glyph unicode="[" glyph-name="uni005B" horiz-adv-x="242" d="M61 -150V740H234V719H113V-129H234V-150H61Z" />
<glyph unicode="\" glyph-name="uni005C" horiz-adv-x="242" d="M200 -120L0 750H42L242 -120H200Z" />
<glyph unicode="]" glyph-name="uni005D" horiz-adv-x="242" d="M8 -150V-129H129V719H8V740H181V-150H8Z" />
<glyph unicode="^" glyph-name="uni005E" horiz-adv-x="500" d="M40 250L230 670H270L460 250H415L250 614L85 250H40Z" />
<glyph unicode="_" glyph-name="uni005F" horiz-adv-x="500" d="M25 -136V-94H475V-136H25Z" />
<glyph unicode="`" glyph-name="uni0060" horiz-adv-x="500" d="M316 530L204 644Q171 678 171 707H239L328 530H316Z" />
<glyph unicode="a" glyph-name="uni0061" horiz-adv-x="474" d="M156 -10Q109 -10 78 17T47 94Q47 143 83 177T202 231L299 255V332Q299 370 270 395T204 420Q164 420 148 401T132 349V316L127 311H85Q59 311 59 337Q59 385 111 418Q139 436 168 448T228 460Q284
460 325 436T366 351V56Q382 40 417 40H461L463 38V36Q453 19 433 5T381 -10Q348 -10 329 7T304 50H299Q273 24 236 7T156 -10ZM114 113Q114 43 194 43Q246 43 299 69V226Q178 201 146 176T114 113Z" />
<glyph unicode="b" glyph-name="uni0062" horiz-adv-x="553" d="M108 -6V663L43 699V710L168 750H176V398H180Q254 460 330 460Q406 460 455 403T504 247Q504 124 436 57T270 -10Q235 -10 202 -1T140 21L116 -6H108ZM286 405Q227 405 176 367V71Q231 29 299 29Q354
29 395 74T437 227Q437 320 392 362T286 405Z" />
<glyph unicode="c" glyph-name="uni0063" horiz-adv-x="476" d="M261 -10Q161 -10 106 51T50 210Q50 319 115 389T277 460Q317 460 352 448T407 417Q429 395 429 383Q429 372 419 364L385 336H379L354 370Q336 394 312 409T253 425Q192 425 155 378T117 242Q117
163 158 108T292 52Q366 52 428 96H431V85Q408 45 364 18T261 -10Z" />
<glyph unicode="d" glyph-name="uni0064" horiz-adv-x="553" d="M219 -10Q144 -10 95 45T46 198Q46 323 116 391T284 460Q331 460 373 445V663L305 702V712L433 750H441V40L512 16V0H383L374 51H369Q296 -10 219 -10ZM112 218Q112 128 157 87T263 45Q323 45 373
83V381Q346 400 320 410T262 420Q201 420 157 374T112 218Z" />
<glyph unicode="e" glyph-name="uni0065" horiz-adv-x="483" d="M262 -10Q162 -10 106 51T50 210Q50 317 113 388T260 460Q339 460 384 406T432 254L428 250H117Q117 246 117 242Q117 163 158 108T293 52Q367 52 429 96H432V85Q410 45 366 18T262 -10ZM245 425Q197
425 163 389T120 286H364Q344 425 245 425Z" />
<glyph unicode="f" glyph-name="uni0066" horiz-adv-x="337" d="M58 0V16L121 41V408H39V450H121V490Q121 531 147 592T223 702T344 750Q358 750 374 743Q398 733 398 720Q398 710 395 704L379 664H374L349 673Q320 684 286 684Q233 684 211 647T189 530V450H321V408H189V40L262
16V0H58Z" />
<glyph unicode="g" glyph-name="uni0067" horiz-adv-x="530" d="M247 146Q209 146 177 159Q130 142 130 103Q130 47 212 47H329Q463 47 463 -71Q463 -134 401 -187T233 -240Q141 -240 101 -206T61 -121Q61 -85 78 -57L144 -9V-6Q71 11 71 75Q71 112 95 135L151
166V172Q78 217 78 303Q78 370 126 415T247 460Q294 460 335 442L480 450V401L383 408L380 405Q416 365 416 303Q416 236 368 191T247 146ZM257 178Q298 178 322 212T346 300Q346 361 316 395T240 429Q196 429 172 394T147 306Q147 247 178 213T257 178ZM122 -110Q122
-155 158 -184T246 -214Q315 -214 358 -176T402 -90Q402 -44 378 -27T292 -10H186Q178 -10 171 -9Q122 -39 122 -110Z" />
<glyph unicode="h" glyph-name="uni0068" horiz-adv-x="574" d="M52 0V16L115 41V663L50 702V712L175 750H183V387H186Q259 460 335 460Q395 460 434 428T473 335V41L536 16V0H334V16L405 40V296Q405 347 375 373T298 400Q270 400 237 389T183 356V40L254 16V0H52Z" />
<glyph unicode="i" glyph-name="uni0069" horiz-adv-x="308" d="M147 596Q125 596 111 610T96 647Q96 698 147 698Q198 698 198 647Q198 596 147 596ZM58 0V16L121 41V373L56 412V422L181 460H189V41L255 16V0H58Z" />
<glyph unicode="j" glyph-name="uni006A" horiz-adv-x="299" d="M147 596Q125 596 111 610T96 647Q96 698 147 698Q198 698 198 647Q198 596 147 596ZM58 -230V-214Q96 -178 108 -134T121 -6V373L56 412V422L181 460H189V0Q189 -76 164 -133T58 -230Z" />
<glyph unicode="k" glyph-name="uni006B" horiz-adv-x="546" d="M52 0V16L115 41V663L50 702V712L175 750H183V253L352 399V405L303 434V450H481V434L417 406L243 271L454 43L518 16V0H396L363 45L183 242V40L254 16V0H52Z" />
<glyph unicode="l" glyph-name="uni006C" horiz-adv-x="289" d="M48 0V16L111 41V663L46 702V712L171 750H179V41L245 16V0H48Z" />
<glyph unicode="m" glyph-name="uni006D" horiz-adv-x="835" d="M50 0V16L113 41V373L47 407V418L165 460H172L179 387H184Q254 460 325 460Q424 460 449 380H452Q492 421 526 440T603 460Q661 460 698 428T736 335V41L799 16V0H597V16L668 41V296Q668 347 640
373T567 400Q496 400 455 355Q456 346 456 335V41L523 16V0H320V16L389 41V296Q389 347 361 373T289 400Q263 400 232 389T180 356V41L248 16V0H50Z" />
<glyph unicode="n" glyph-name="uni006E" horiz-adv-x="574" d="M52 0V16L115 41V373L50 407V418L167 460H175L182 387H186Q259 460 335 460Q395 460 434 428T473 335V41L536 16V0H334V16L405 41V296Q405 347 375 373T298 400Q270 400 237 389T183 356V41L254 16V0H52Z" />
<glyph unicode="o" glyph-name="uni006F" horiz-adv-x="528" d="M264 -10Q169 -10 110 57T50 225Q50 326 109 393T264 460Q359 460 418 393T478 225Q478 124 419 57T264 -10ZM278 25Q342 25 373 81T404 205Q404 291 367 358T252 426Q188 426 156 372T124 246Q124
159 162 92T278 25Z" />
<glyph unicode="p" glyph-name="uni0070" horiz-adv-x="558" d="M52 -230V-214L115 -189V373L50 407V418L167 460H175L181 399H187Q259 460 337 460Q412 460 461 403T510 247Q510 124 443 57T281 -10Q231 -10 183 6V-189L254 -214V-230H52ZM293 405Q233 405 183
367V71Q238 29 312 29Q365 29 404 73T444 221Q444 317 399 361T293 405Z" />
<glyph unicode="q" glyph-name="uni0071" horiz-adv-x="545" d="M302 -230V-214L376 -191V51H371Q299 -10 222 -10Q146 -10 97 45T48 198Q48 323 118 391T286 460Q317 460 344 453T399 433L436 460H443V-189L506 -214V-230H302ZM114 218Q114 128 159 87T265 45Q324
45 376 83V328Q376 367 374 375T361 391Q318 420 258 420Q200 420 157 374T114 218Z" />
<glyph unicode="r" glyph-name="uni0072" horiz-adv-x="382" d="M56 0V16L119 41V373L54 407V418L171 460H179L186 373H189Q234 432 259 446T311 460Q329 460 345 452Q370 441 370 429Q370 420 367 414L351 374H346L316 387Q298 394 276 394Q225 394 187 338V41L260
16V0H56Z" />
<glyph unicode="s" glyph-name="uni0073" horiz-adv-x="421" d="M200 -10Q158 -10 127 -2T63 22V131H76L101 80Q127 21 202 21Q293 21 293 100Q293 141 267 161T186 204Q130 227 103 255T75 334Q75 386 117 423T210 460Q248 460 278 451T335 428V322H322L297 371Q283
402 261 415T212 428Q135 428 135 356Q135 322 158 303T230 262Q282 240 317 214T353 122Q353 62 306 26T200 -10Z" />
<glyph unicode="t" glyph-name="uni0074" horiz-adv-x="344" d="M204 -10Q161 -10 132 16T102 89V408H18V416L107 450L162 560H170V450H302V408H170V100Q170 72 191 59T244 45Q281 45 312 57L314 56V49Q304 29 277 10T204 -10Z" />
<glyph unicode="u" glyph-name="uni0075" horiz-adv-x="548" d="M230 -10Q171 -10 133 22T94 115V409L28 434V450H162V154Q162 103 191 77T267 50Q295 50 327 61T380 94V409L305 434V450H448V40L519 16V0H380V62H376Q304 -10 230 -10Z" />
<glyph unicode="v" glyph-name="uni0076" horiz-adv-x="457" d="M218 -2L43 408L-23 434V450H197V434L117 410V405L246 97H249L368 401V406L292 434V450H480V434L411 406L234 -2H218Z" />
<glyph unicode="w" glyph-name="uni0077" horiz-adv-x="722" d="M192 -2L42 408L-23 434V450H197V434L117 410V405L222 99H225L367 450H385L527 102H531L633 401V406L557 434V450H745V434L675 406L517 -2H500L357 340L209 -2H192Z" />
<glyph unicode="x" glyph-name="uni0078" horiz-adv-x="484" d="M26 0V16L82 43L211 224L82 409L31 434V450H226V434L160 410V405L256 267L341 401V406L285 434V450H441V434L387 405L271 245L413 41L458 16V0H276V16L335 40V45L227 200L132 49V44L191 16V0H26Z" />
<glyph unicode="y" glyph-name="uni0079" horiz-adv-x="457" d="M66 -241Q44 -241 39 -235T33 -212V-173L37 -169H83Q120 -169 133 -157T176 -82L217 9L42 408L-23 434V450H197V434L117 409V405L250 93H253L369 401V406L292 434V450H480V434L410 407L208 -91Q194
-124 185 -143T158 -188Q120 -241 66 -241Z" />
<glyph unicode="z" glyph-name="uni007A" horiz-adv-x="470" d="M70 0V18L301 414H129L85 314H69L80 459H85Q97 457 114 454T144 450H387V432L156 36H344L378 139H395V0H70Z" />
<glyph unicode="{" glyph-name="uni007B" horiz-adv-x="242" d="M218 -150Q138 -150 102 -113T66 -17Q66 45 89 96T113 199Q113 233 95 259T27 285H5V306H27Q76 306 94 332T113 391Q113 442 90 493T66 607Q66 666 102 703T218 740H237V719H210Q164 719 142 693T119
625Q119 566 141 516T163 413Q163 376 147 346T86 295Q130 274 146 244T163 177Q163 125 141 75T119 -35Q119 -77 141 -103T210 -129H237V-150H218Z" />
<glyph unicode="|" glyph-name="uni007C" horiz-adv-x="242" d="M100 -250V750H142V-250H100Z" />
<glyph unicode="}" glyph-name="uni007D" horiz-adv-x="242" d="M24 -150H5V-129H32Q78 -129 100 -103T123 -35Q123 24 101 74T79 177Q79 214 95 244T156 295Q112 316 96 346T79 413Q79 465 101 515T123 625Q123 667 101 693T32 719H5V740H24Q104 740 140 703T176
607Q176 545 153 494T129 391Q129 358 147 332T215 306H237V285H215Q166 285 148 259T129 199Q129 148 152 97T176 -17Q176 -76 140 -113T24 -150Z" />
<glyph unicode="~" glyph-name="uni007E" horiz-adv-x="500" d="M40 201Q40 268 70 305T152 343Q202 343 231 318T286 268T349 243Q417 243 417 343H460Q460 276 430 239T348 201Q298 201 269 226T214 276T151 301Q83 301 83 201H40Z" />
<glyph unicode="&#xa0;" glyph-name="uni00A0" horiz-adv-x="250" />
<glyph unicode="&#xa1;" glyph-name="uni00A1" horiz-adv-x="250" d="M125 350Q102 350 87 366T71 405Q71 426 86 443T125 460Q147 460 163 443T179 405Q179 383 163 367T125 350ZM78 -205L115 263H135L172 -205H78Z" />
<glyph unicode="&#xa2;" glyph-name="uni00A2" horiz-adv-x="500" d="M169 26L189 109Q127 131 94 185T60 315Q60 424 124 494T286 565Q294 565 302 564L319 635H360L341 559Q390 547 416 522Q439 502 439 489Q439 478 428 470L395 441H389L364 476Q348 497 329
508L245 166Q271 159 302 159Q371 159 437 206H440V183Q414 145 370 121T271 96Q249 96 228 99L210 26H169ZM129 348Q129 226 207 181L291 523Q279 525 264 525Q202 525 166 480T129 348Z" />
<glyph unicode="&#xa3;" glyph-name="uni00A3" horiz-adv-x="500" d="M53 0V32Q124 90 153 134T183 218Q183 241 174 265T151 315H49V353H131Q115 382 103 412T91 472Q91 547 142 608T282 670Q333 670 367 653T420 613Q436 594 436 583Q436 568 423 559L387 532H380L366
558Q346 595 325 611T263 627Q210 627 183 597T156 520Q156 480 178 438T222 353H399V315H241Q261 271 261 240Q261 154 141 67H389L419 164H451L441 0H53Z" />
<glyph unicode="&#xa4;" glyph-name="uni00A4" horiz-adv-x="500" d="M40 92L124 176Q91 221 91 272Q91 323 124 368L40 452L70 482L154 398Q199 431 250 431Q301 431 346 398L430 482L460 452L376 368Q409 323 409 272Q409 221 376 176L460 92L430 62L346 146Q301
113 250 113Q199 113 154 146L70 62L40 92ZM250 152Q300 152 332 186T365 272Q365 323 333 357T250 392Q200 392 168 358T135 272Q135 221 167 187T250 152Z" />
<glyph unicode="&#xa5;" glyph-name="uni00A5" horiz-adv-x="500" d="M127 0V20L212 50V240H79V278H212V390H79V428H186L42 626L9 640V660H201V640L140 622V620L268 434L384 615V618L322 640V660H491V640L442 621L307 428H415V390H283V278H415V240H283V50L368 20V0H127Z" />
<glyph unicode="&#xa6;" glyph-name="uni00A6" horiz-adv-x="242" d="M100 350V750H142V350H100ZM100 -250V150H142V-250H100Z" />
<glyph unicode="&#xa7;" glyph-name="uni00A7" horiz-adv-x="485" d="M184 -120Q157 -120 131 -110T91 -86Q74 -67 74 -58Q74 -46 87 -35L116 -8H120L143 -31Q160 -48 181 -60T234 -72Q280 -72 309 -46T338 19Q338 69 307 91T231 124T140 147T63 187T32 274Q32
321 61 354T138 406Q118 421 106 444T94 504Q94 568 152 619T299 670Q324 670 344 661T378 638Q395 623 395 612Q395 604 383 593L355 566H351L327 589Q312 604 292 614T245 624Q208 624 180 600T151 539Q151 490 181 467T255 433T345 410T420 371T450 288Q450
238 421 205T343 153Q366 138 380 114T394 50Q394 -14 331 -67T184 -120ZM92 300Q92 248 127 227T213 197T308 170Q340 177 366 200T393 257Q393 311 356 331T266 359T168 388Q92 371 92 300Z" />
<glyph unicode="&#xa8;" glyph-name="uni00A8" horiz-adv-x="500" d="M157 571Q111 571 111 617Q111 663 157 663Q203 663 203 617Q203 571 157 571ZM343 571Q297 571 297 617Q297 663 343 663Q389 663 389 617Q389 571 343 571Z" />
<glyph unicode="&#xa9;" glyph-name="uni00A9" horiz-adv-x="806" d="M403 -10Q260 -10 165 86T70 330Q70 477 165 573T403 670Q546 670 641 574T736 330Q736 183 641 87T403 -10ZM403 22Q531 22 616 109T701 330Q701 463 616 550T403 638Q275 638 190 551T105
330Q105 197 190 110T403 22ZM416 129Q322 129 269 185T215 325Q215 413 276 476T422 540Q464 540 490 532T544 510L548 403H523L493 475Q454 502 420 502Q356 502 315 456T274 340Q274 260 314 214T416 167Q460 167 497 188L530 259H554L547 160Q520 146 489 138T416
129Z" />
<glyph unicode="&#xaa;" glyph-name="uni00AA" horiz-adv-x="392" d="M142 417Q117 417 100 432T82 475Q82 504 100 521T166 550L218 564V600Q218 646 172 646Q137 646 137 614V592L135 589H103Q89 589 89 604Q89 628 120 647Q155 669 187 669Q275 669 275 606V456Q283
448 300 448H321L322 446V442Q309 417 272 417Q231 417 220 451H217Q186 417 142 417ZM138 487Q138 453 177 453Q195 453 218 465V543Q168 533 153 520T138 487ZM84 296V338H308V296H84Z" />
<glyph unicode="&#xab;" glyph-name="uni00AB" horiz-adv-x="408" d="M208 70L30 247L208 424H220L112 247L220 70H208ZM366 70L188 247L366 424H378L270 247L378 70H366Z" />
<glyph unicode="&#xac;" glyph-name="uni00AC" horiz-adv-x="500" d="M418 62V252H40V292H460V62H418Z" />
<glyph unicode="&#xad;" glyph-name="uni00AD" horiz-adv-x="375" d="M50 228V286H325V228H50Z" />
<glyph unicode="&#xae;" glyph-name="uni00AE" horiz-adv-x="540" d="M270 238Q178 238 118 300T58 454Q58 546 118 608T270 670Q362 670 422 608T482 454Q482 362 422 300T270 238ZM270 265Q350 265 400 319T451 454Q451 535 401 589T270 643Q190 643 140 589T89
454Q89 373 139 319T270 265ZM164 329V338L195 350V564L164 576V584H262Q349 584 349 521Q349 475 295 457L353 348L380 338V329H320L258 448H233V350L263 338V329H164ZM252 563H233V469H255Q309 469 309 516Q309 563 252 563Z" />
<glyph unicode="&#xaf;" glyph-name="uni00AF" horiz-adv-x="500" d="M119 595V639H381V595H119Z" />
<glyph unicode="&#xb0;" glyph-name="uni00B0" horiz-adv-x="500" d="M250 410Q194 410 157 449T120 540Q120 592 157 631T250 670Q306 670 343 631T380 540Q380 488 343 449T250 410ZM250 445Q288 445 315 470T342 540Q342 584 315 609T250 635Q212 635 185 610T158
540Q158 496 185 471T250 445Z" />
<glyph unicode="&#xb1;" glyph-name="uni00B1" horiz-adv-x="500" d="M228 152V292H40V332H228V482H272V332H460V292H272V152H228ZM40 66V108H460V66H40Z" />
<glyph unicode="&#xb2;" glyph-name="uni00B2" horiz-adv-x="302" d="M27 505V523Q106 615 143 664T191 741T203 798Q203 872 136 872Q108 872 90 853T71 802V776L68 771H39Q20 771 20 792Q20 829 62 864Q82 882 102 891T158 900Q210 900 239 871T268 794Q268
762 254 737T200 670T77 549H244L268 608H282L276 505H27Z" />
<glyph unicode="&#xb3;" glyph-name="uni00B3" horiz-adv-x="308" d="M150 495Q95 495 56 522Q20 548 20 573Q20 594 42 594H68L73 590V576Q73 522 144 522Q183 522 203 544T223 603Q223 645 202 668T125 691H90V715H106Q150 715 176 737T203 803Q203 872 138
872Q81 872 81 814V791L77 787H50Q30 787 30 812Q30 845 69 870Q91 884 109 892T158 900Q208 900 238 875T268 807Q268 773 243 749T177 712Q288 698 288 610Q288 561 249 528T150 495Z" />
<glyph unicode="&#xb4;" glyph-name="uni00B4" horiz-adv-x="500" d="M171 530L261 707H328Q328 692 321 678T295 644L183 530H171Z" />
<glyph unicode="&#xb5;" glyph-name="uni00B5" horiz-adv-x="544" d="M242 -10Q216 -10 190 -2T141 32L159 -213L93 -230H91V450H159V154Q159 99 188 75T263 50Q291 50 324 61T377 94V450H445V56Q459 40 495 40H539L541 38V36Q531 19 511 5T459 -10Q423 -10 403
10T380 63H374Q310 -10 242 -10Z" />
<glyph unicode="&#xb6;" glyph-name="uni00B6" horiz-adv-x="471" d="M257 -110V359H218Q139 359 87 403T35 514Q35 590 82 625T207 660H300V-110H257ZM358 -110V660H481V640L402 610V-110H358Z" />
<glyph unicode="&#xb7;" glyph-name="uni00B7" horiz-adv-x="250" d="M125 217Q102 217 87 233T71 271Q71 294 86 310T125 326Q148 326 163 310T179 271Q179 249 164 233T125 217Z" />
<glyph unicode="&#xb8;" glyph-name="uni00B8" horiz-adv-x="500" d="M241 -240Q190 -240 164 -213V-201H168Q194 -214 230 -214Q287 -214 287 -171Q287 -145 262 -130T179 -97L238 16H267L228 -59Q281 -75 308 -96T336 -157Q336 -193 312 -216T241 -240Z" />
<glyph unicode="&#xb9;" glyph-name="uni00B9" horiz-adv-x="256" d="M68 505V520L122 537V841L15 783V807L155 895H183V537L231 520V505H68Z" />
<glyph unicode="&#xba;" glyph-name="uni00BA" horiz-adv-x="393" d="M197 417Q144 417 110 453T75 543Q75 596 108 632T197 669Q251 669 284 633T318 543Q318 490 284 454T197 417ZM203 440Q258 440 258 532Q258 582 240 614T191 647Q135 647 135 554Q135 504
153 472T203 440ZM85 296V338H308V296H85Z" />
<glyph unicode="&#xbb;" glyph-name="uni00BB" horiz-adv-x="407" d="M30 70L138 247L30 424H42L220 247L42 70H30ZM187 70L295 247L187 424H199L377 247L199 70H187Z" />
<glyph unicode="&#xbc;" glyph-name="uni00BC" horiz-adv-x="709" d="M97 355V370L151 387V691L44 633V657L184 745H212V387L260 370V355H97ZM119 11L589 750L621 729L150 -10L119 11ZM485 0V15L539 32V108H372V121L572 390H600V142H670V108H600V32L649 15V0H485ZM423
142H539V302L423 142Z" />
<glyph unicode="&#xbd;" glyph-name="uni00BD" horiz-adv-x="709" d="M93 355V370L147 387V691L40 633V657L180 745H208V387L256 370V355H93ZM81 11L551 750L583 729L112 -10L81 11ZM405 0V18Q484 110 521 159T569 236T581 293Q581 367 514 367Q486 367 468 348T449
297V271L446 266H417Q398 266 398 287Q398 324 440 359Q460 377 480 386T536 395Q588 395 617 366T646 289Q646 257 632 232T578 165T455 44H622L646 103H660L654 0H405Z" />
<glyph unicode="&#xbe;" glyph-name="uni00BE" horiz-adv-x="717" d="M158 345Q103 345 64 372Q28 398 28 423Q28 444 50 444H76L81 440V426Q81 372 152 372Q191 372 211 394T231 453Q231 495 210 518T133 541H98V565H114Q158 565 184 587T211 653Q211 722 146
722Q89 722 89 664V641L85 637H58Q38 637 38 662Q38 695 77 720Q99 734 117 742T166 750Q216 750 246 725T276 657Q276 623 251 599T185 562Q296 548 296 460Q296 411 257 378T158 345ZM142 11L612 750L644 729L173 -10L142 11ZM514 0V15L568 32V108H401V121L601
390H629V142H699V108H629V32L678 15V0H514ZM452 142H568V302L452 142Z" />
<glyph unicode="&#xbf;" glyph-name="uni00BF" horiz-adv-x="475" d="M260 350Q238 350 222 366T205 405Q205 426 221 443T260 460Q282 460 298 443T314 405Q314 383 298 367T260 350ZM228 -215Q155 -215 105 -168T55 -41Q55 20 96 72T242 170L249 263H270L292
115Q134 60 134 -40Q134 -109 168 -140T251 -172Q298 -172 326 -143T354 -59V-21L361 -13H396Q413 -13 421 -19T429 -48Q429 -111 374 -152Q341 -178 309 -196T228 -215Z" />
<glyph unicode="&#xc0;" glyph-name="uni00C0" horiz-adv-x="733" d="M33 0V20L93 45L348 665H383L637 46L700 20V0H467V20L553 46L475 241H228L151 45L237 20V0H33ZM247 288H456L351 550L247 288ZM360 710L248 799Q227 816 221 831T215 862H283L372 710H360Z" />
<glyph unicode="&#xc1;" glyph-name="uni00C1" horiz-adv-x="733" d="M33 0V20L93 45L348 665H383L637 46L700 20V0H467V20L553 46L475 241H228L151 45L237 20V0H33ZM247 288H456L351 550L247 288ZM361 710L451 862H518Q518 847 512 832T485 799L373 710H361Z" />
<glyph unicode="&#xc2;" glyph-name="uni00C2" horiz-adv-x="733" d="M33 0V20L93 45L348 665H383L637 46L700 20V0H467V20L553 46L475 241H228L151 45L237 20V0H33ZM247 288H456L351 550L247 288ZM224 710L353 862H379L508 710H496L366 796L236 710H224Z" />
<glyph unicode="&#xc3;" glyph-name="uni00C3" horiz-adv-x="733" d="M33 0V20L93 45L348 665H383L637 46L700 20V0H467V20L553 46L475 241H228L151 45L237 20V0H33ZM247 288H456L351 550L247 288ZM219 728Q242 800 262 821T309 842Q347 842 376 811T438 780Q457
780 471 793T500 842H513Q490 768 470 748T423 728Q385 728 356 758T294 789Q275 789 261 776T232 728H219Z" />
<glyph unicode="&#xc4;" glyph-name="uni00C4" horiz-adv-x="733" d="M33 0V20L93 45L348 665H383L637 46L700 20V0H467V20L553 46L475 241H228L151 45L237 20V0H33ZM247 288H456L351 550L247 288ZM273 741Q227 741 227 786Q227 832 273 832Q319 832 319 786Q319
741 273 741ZM459 741Q413 741 413 786Q413 832 459 832Q505 832 505 786Q505 741 459 741Z" />
<glyph unicode="&#xc5;" glyph-name="uni00C5" horiz-adv-x="733" d="M33 0V20L93 45L348 665H383L637 46L700 20V0H467V20L553 46L475 241H228L151 45L237 20V0H33ZM247 288H456L351 550L247 288ZM366 710Q328 710 305 733T281 792Q281 826 304 850T366 874Q404
874 427 850T451 792Q451 757 428 734T366 710ZM371 732Q406 732 406 785Q406 852 362 852Q328 852 328 799Q328 732 371 732Z" />
<glyph unicode="&#xc6;" glyph-name="uni00C6" horiz-adv-x="956" d="M455 660H858V492H841L787 613H543V364H718L758 447H775V236H758L718 317H543V47H815L869 178H886V0H386V20L465 50V241H263L150 46L233 20V0H30V20L91 47L455 660ZM290 288H465V590L290 288Z" />
<glyph unicode="&#xc7;" glyph-name="uni00C7" horiz-adv-x="721" d="M385 -214Q442 -214 442 -171Q442 -145 417 -130T334 -97L380 -10Q239 -4 155 86T70 312Q70 410 117 491T242 621T413 670Q486 670 529 656T614 622L618 455H599L547 574Q508 601 477 614T408
628Q295 628 221 547T147 346Q147 201 221 117T402 33Q452 33 487 46T551 78L611 194H629L619 39Q576 18 530 5T408 -10L383 -59Q435 -75 462 -96T490 -157Q490 -193 466 -216T396 -240Q344 -240 319 -213V-201H322Q349 -214 385 -214Z" />
<glyph unicode="&#xc8;" glyph-name="uni00C8" horiz-adv-x="635" d="M65 0V20L144 50V610L65 640V660H537V492H520L466 613H222V364H397L437 447H454V236H437L397 317H222V47H494L548 178H565V0H65ZM326 710L214 799Q193 816 187 831T181 862H249L338 710H326Z" />
<glyph unicode="&#xc9;" glyph-name="uni00C9" horiz-adv-x="635" d="M65 0V20L144 50V610L65 640V660H537V492H520L466 613H222V364H397L437 447H454V236H437L397 317H222V47H494L548 178H565V0H65ZM327 710L417 862H484Q484 847 478 832T451 799L339 710H327Z" />
<glyph unicode="&#xca;" glyph-name="uni00CA" horiz-adv-x="635" d="M65 0V20L144 50V610L65 640V660H537V492H520L466 613H222V364H397L437 447H454V236H437L397 317H222V47H494L548 178H565V0H65ZM190 710L319 862H345L474 710H462L332 796L202 710H190Z" />
<glyph unicode="&#xcb;" glyph-name="uni00CB" horiz-adv-x="635" d="M65 0V20L144 50V610L65 640V660H537V492H520L466 613H222V364H397L437 447H454V236H437L397 317H222V47H494L548 178H565V0H65ZM239 741Q193 741 193 786Q193 832 239 832Q285 832 285 786Q285
741 239 741ZM425 741Q379 741 379 786Q379 832 425 832Q471 832 471 786Q471 741 425 741Z" />
<glyph unicode="&#xcc;" glyph-name="uni00CC" horiz-adv-x="376" d="M70 0V20L149 50V610L70 640V660H306V640L227 610V50L306 20V0H70ZM182 710L70 799Q49 816 43 831T37 862H105L194 710H182Z" />
<glyph unicode="&#xcd;" glyph-name="uni00CD" horiz-adv-x="376" d="M70 0V20L149 50V610L70 640V660H306V640L227 610V50L306 20V0H70ZM183 710L273 862H340Q340 847 334 832T307 799L195 710H183Z" />
<glyph unicode="&#xce;" glyph-name="uni00CE" horiz-adv-x="376" d="M70 0V20L149 50V610L70 640V660H306V640L227 610V50L306 20V0H70ZM46 710L175 862H201L330 710H318L188 796L58 710H46Z" />
<glyph unicode="&#xcf;" glyph-name="uni00CF" horiz-adv-x="376" d="M70 0V20L149 50V610L70 640V660H306V640L227 610V50L306 20V0H70ZM95 741Q49 741 49 786Q49 832 95 832Q141 832 141 786Q141 741 95 741ZM281 741Q235 741 235 786Q235 832 281 832Q327 832
327 786Q327 741 281 741Z" />
<glyph unicode="&#xd0;" glyph-name="uni00D0" horiz-adv-x="750" d="M65 0V20L145 50V320H65V364H145V610L65 640V660H333Q499 660 589 575T680 360Q680 200 582 100T326 0H65ZM394 320H223V47H334Q455 47 526 124T598 329Q598 458 527 535T323 613H223V364H394V320Z" />
<glyph unicode="&#xd1;" glyph-name="uni00D1" horiz-adv-x="793" d="M62 0V20L141 50V609L63 640V660H203L595 151V611L501 640V660H731V640L652 610V-5H621L199 540V51L295 20V0H62ZM254 728Q277 800 297 821T344 842Q382 842 411 811T473 780Q492 780 506 793T535
842H548Q525 768 505 748T458 728Q420 728 391 758T329 789Q310 789 296 776T267 728H254Z" />
<glyph unicode="&#xd2;" glyph-name="uni00D2" horiz-adv-x="791" d="M395 -10Q255 -10 163 86T70 330Q70 477 162 573T395 670Q535 670 628 574T721 330Q721 183 628 87T395 -10ZM416 32Q515 32 576 104T638 299Q638 449 563 539T378 629Q279 629 216 557T153
363Q153 213 229 123T416 32ZM382 710L270 799Q249 816 243 831T237 862H305L394 710H382Z" />
<glyph unicode="&#xd3;" glyph-name="uni00D3" horiz-adv-x="791" d="M395 -10Q255 -10 163 86T70 330Q70 477 162 573T395 670Q535 670 628 574T721 330Q721 183 628 87T395 -10ZM416 32Q515 32 576 104T638 299Q638 449 563 539T378 629Q279 629 216 557T153
363Q153 213 229 123T416 32ZM383 710L473 862H540Q540 847 534 832T507 799L395 710H383Z" />
<glyph unicode="&#xd4;" glyph-name="uni00D4" horiz-adv-x="791" d="M395 -10Q255 -10 163 86T70 330Q70 477 162 573T395 670Q535 670 628 574T721 330Q721 183 628 87T395 -10ZM416 32Q515 32 576 104T638 299Q638 449 563 539T378 629Q279 629 216 557T153
363Q153 213 229 123T416 32ZM246 710L375 862H401L530 710H518L388 796L258 710H246Z" />
<glyph unicode="&#xd5;" glyph-name="uni00D5" horiz-adv-x="791" d="M395 -10Q255 -10 163 86T70 330Q70 477 162 573T395 670Q535 670 628 574T721 330Q721 183 628 87T395 -10ZM416 32Q515 32 576 104T638 299Q638 449 563 539T378 629Q279 629 216 557T153
363Q153 213 229 123T416 32ZM241 728Q264 800 284 821T331 842Q369 842 398 811T460 780Q479 780 493 793T522 842H535Q512 768 492 748T445 728Q407 728 378 758T316 789Q297 789 283 776T254 728H241Z" />
<glyph unicode="&#xd6;" glyph-name="uni00D6" horiz-adv-x="791" d="M395 -10Q255 -10 163 86T70 330Q70 477 162 573T395 670Q535 670 628 574T721 330Q721 183 628 87T395 -10ZM416 32Q515 32 576 104T638 299Q638 449 563 539T378 629Q279 629 216 557T153
363Q153 213 229 123T416 32ZM295 741Q249 741 249 786Q249 832 295 832Q341 832 341 786Q341 741 295 741ZM481 741Q435 741 435 786Q435 832 481 832Q527 832 527 786Q527 741 481 741Z" />
<glyph unicode="&#xd7;" glyph-name="uni00D7" horiz-adv-x="500" d="M98 90L68 120L220 272L68 424L98 454L250 302L402 454L432 424L280 272L432 120L402 90L250 242L98 90Z" />
<glyph unicode="&#xd8;" glyph-name="uni00D8" horiz-adv-x="791" d="M70 -10L158 91Q70 187 70 330Q70 477 162 573T395 670Q512 670 599 600L659 670H721L633 568Q721 472 721 330Q721 183 628 87T395 -10Q278 -10 192 59L132 -10H70ZM153 363Q153 239 209 151L554
549Q482 629 378 629Q279 629 216 557T153 363ZM416 32Q515 32 576 104T638 299Q638 423 583 510L238 112Q311 32 416 32Z" />
<glyph unicode="&#xd9;" glyph-name="uni00D9" horiz-adv-x="797" d="M399 -10Q290 -10 218 51T145 249V610L65 640V660H303V640L223 610V263Q223 138 278 90T422 41Q493 41 544 86T595 232V612L495 640V660H732V640L653 611V249Q653 112 581 51T399 -10ZM403
710L291 799Q270 816 264 831T258 862H326L415 710H403Z" />
<glyph unicode="&#xda;" glyph-name="uni00DA" horiz-adv-x="797" d="M399 -10Q290 -10 218 51T145 249V610L65 640V660H303V640L223 610V263Q223 138 278 90T422 41Q493 41 544 86T595 232V612L495 640V660H732V640L653 611V249Q653 112 581 51T399 -10ZM404
710L494 862H561Q561 847 555 832T528 799L416 710H404Z" />
<glyph unicode="&#xdb;" glyph-name="uni00DB" horiz-adv-x="797" d="M399 -10Q290 -10 218 51T145 249V610L65 640V660H303V640L223 610V263Q223 138 278 90T422 41Q493 41 544 86T595 232V612L495 640V660H732V640L653 611V249Q653 112 581 51T399 -10ZM267
710L396 862H422L551 710H539L409 796L279 710H267Z" />
<glyph unicode="&#xdc;" glyph-name="uni00DC" horiz-adv-x="797" d="M399 -10Q290 -10 218 51T145 249V610L65 640V660H303V640L223 610V263Q223 138 278 90T422 41Q493 41 544 86T595 232V612L495 640V660H732V640L653 611V249Q653 112 581 51T399 -10ZM316
741Q270 741 270 786Q270 832 316 832Q362 832 362 786Q362 741 316 741ZM502 741Q456 741 456 786Q456 832 502 832Q548 832 548 786Q548 741 502 741Z" />
<glyph unicode="&#xdd;" glyph-name="uni00DD" horiz-adv-x="706" d="M228 0V20L318 50V311L97 614L35 640V660H263V640L193 614V610L376 356L542 609V613L469 640V660H671V640L608 616L396 309V50L486 20V0H228ZM361 710L451 862H518Q518 847 512 832T485 799L373
710H361Z" />
<glyph unicode="&#xde;" glyph-name="uni00DE" horiz-adv-x="613" d="M65 0V20L144 50V610L65 640V660H301V640L222 610V536H300Q418 536 489 493T561 357Q561 275 482 221T280 167H222V50L301 20V0H65ZM296 489H222V214H303Q382 214 429 251T476 349Q476 423
429 456T296 489Z" />
<glyph unicode="&#xdf;" glyph-name="uni00DF" horiz-adv-x="594" d="M64 0V16L127 41V408H45V450H127V480Q127 582 186 666T351 750Q418 750 458 713T498 623Q498 571 466 533T402 457T370 371Q370 343 394 322T468 262Q519 222 540 193T561 124Q561 68 518 29T415
-10Q338 -10 275 22V131H288L313 79Q327 47 352 34T412 21Q450 21 475 41T501 101Q501 142 469 170T392 232Q358 258 334 283T309 353Q309 397 340 429T402 500T433 608Q433 651 405 680T322 710Q253 710 224 666T195 552V0H64Z" />
<glyph unicode="&#xe0;" glyph-name="uni00E0" horiz-adv-x="474" d="M156 -10Q109 -10 78 17T47 94Q47 143 83 177T202 231L299 255V332Q299 370 270 395T204 420Q164 420 148 401T132 349V316L127 311H85Q59 311 59 337Q59 385 111 418Q139 436 168 448T228
460Q284 460 325 436T366 351V56Q382 40 417 40H461L463 38V36Q453 19 433 5T381 -10Q348 -10 329 7T304 50H299Q273 24 236 7T156 -10ZM114 113Q114 43 194 43Q246 43 299 69V226Q178 201 146 176T114 113ZM215 530L103 644Q70 678 70 707H138L227 530H215Z" />
<glyph unicode="&#xe1;" glyph-name="uni00E1" horiz-adv-x="474" d="M156 -10Q109 -10 78 17T47 94Q47 143 83 177T202 231L299 255V332Q299 370 270 395T204 420Q164 420 148 401T132 349V316L127 311H85Q59 311 59 337Q59 385 111 418Q139 436 168 448T228
460Q284 460 325 436T366 351V56Q382 40 417 40H461L463 38V36Q453 19 433 5T381 -10Q348 -10 329 7T304 50H299Q273 24 236 7T156 -10ZM114 113Q114 43 194 43Q246 43 299 69V226Q178 201 146 176T114 113ZM219 530L309 707H376Q376 692 369 678T343 644L231 530H219Z"
/>
<glyph unicode="&#xe2;" glyph-name="uni00E2" horiz-adv-x="474" d="M156 -10Q109 -10 78 17T47 94Q47 143 83 177T202 231L299 255V332Q299 370 270 395T204 420Q164 420 148 401T132 349V316L127 311H85Q59 311 59 337Q59 385 111 418Q139 436 168 448T228
460Q284 460 325 436T366 351V56Q382 40 417 40H461L463 38V36Q453 19 433 5T381 -10Q348 -10 329 7T304 50H299Q273 24 236 7T156 -10ZM114 113Q114 43 194 43Q246 43 299 69V226Q178 201 146 176T114 113ZM79 530L208 707H234L363 530H351L221 636L91 530H79Z"
/>
<glyph unicode="&#xe3;" glyph-name="uni00E3" horiz-adv-x="474" d="M156 -10Q109 -10 78 17T47 94Q47 143 83 177T202 231L299 255V332Q299 370 270 395T204 420Q164 420 148 401T132 349V316L127 311H85Q59 311 59 337Q59 385 111 418Q139 436 168 448T228
460Q284 460 325 436T366 351V56Q382 40 417 40H461L463 38V36Q453 19 433 5T381 -10Q348 -10 329 7T304 50H299Q273 24 236 7T156 -10ZM114 113Q114 43 194 43Q246 43 299 69V226Q178 201 146 176T114 113ZM74 556Q98 635 117 657T164 680Q189 680 210 662T252
626T293 607Q325 607 355 680H368Q344 601 325 579T278 556Q253 556 232 574T190 610T149 629Q117 629 87 556H74Z" />
<glyph unicode="&#xe4;" glyph-name="uni00E4" horiz-adv-x="474" d="M156 -10Q109 -10 78 17T47 94Q47 143 83 177T202 231L299 255V332Q299 370 270 395T204 420Q164 420 148 401T132 349V316L127 311H85Q59 311 59 337Q59 385 111 418Q139 436 168 448T228
460Q284 460 325 436T366 351V56Q382 40 417 40H461L463 38V36Q453 19 433 5T381 -10Q348 -10 329 7T304 50H299Q273 24 236 7T156 -10ZM114 113Q114 43 194 43Q246 43 299 69V226Q178 201 146 176T114 113ZM128 571Q82 571 82 617Q82 663 128 663Q174 663 174
617Q174 571 128 571ZM314 571Q268 571 268 617Q268 663 314 663Q360 663 360 617Q360 571 314 571Z" />
<glyph unicode="&#xe5;" glyph-name="uni00E5" horiz-adv-x="474" d="M156 -10Q109 -10 78 17T47 94Q47 143 83 177T202 231L299 255V332Q299 370 270 395T204 420Q164 420 148 401T132 349V316L127 311H85Q59 311 59 337Q59 385 111 418Q139 436 168 448T228
460Q284 460 325 436T366 351V56Q382 40 417 40H461L463 38V36Q453 19 433 5T381 -10Q348 -10 329 7T304 50H299Q273 24 236 7T156 -10ZM114 113Q114 43 194 43Q246 43 299 69V226Q178 201 146 176T114 113ZM221 700Q259 700 282 676T306 618Q306 583 283 560T221
536Q183 536 160 559T136 618Q136 652 159 676T221 700ZM217 678Q183 678 183 625Q183 558 226 558Q261 558 261 611Q261 678 217 678Z" />
<glyph unicode="&#xe6;" glyph-name="uni00E6" horiz-adv-x="732" d="M157 -10Q110 -10 79 17T48 94Q48 143 83 177T203 231L299 255V332Q299 370 270 395T204 420Q164 420 148 401T132 349V316L127 311H86Q60 311 60 337Q60 385 112 418Q140 436 169 448T229
460Q276 460 312 443T362 386Q423 460 509 460Q588 460 633 406T682 254L678 250H367Q367 246 367 242Q367 163 408 108T543 52Q617 52 679 96H682V85Q660 45 616 18T512 -10Q397 -10 340 71H333Q304 36 259 13T157 -10ZM495 425Q447 425 413 389T370 286H614Q593
425 495 425ZM115 113Q115 43 195 43Q230 43 263 54T330 87Q299 139 299 211V226Q178 201 147 176T115 113Z" />
<glyph unicode="&#xe7;" glyph-name="uni00E7" horiz-adv-x="476" d="M245 -214Q303 -214 303 -171Q303 -145 278 -130T194 -97L240 -9Q150 -2 100 58T50 210Q50 319 115 389T277 459Q362 459 407 417Q429 395 429 383Q429 372 419 364L385 336H379L354 370Q336
394 312 409T253 425Q192 425 155 378T117 242Q117 163 158 108T292 52Q366 52 428 96H431V85Q409 47 367 20T269 -10L244 -59Q296 -75 323 -96T351 -157Q351 -193 327 -216T257 -240Q204 -240 180 -213V-201H183Q210 -214 245 -214Z" />
<glyph unicode="&#xe8;" glyph-name="uni00E8" horiz-adv-x="483" d="M262 -10Q162 -10 106 51T50 210Q50 317 113 388T260 460Q339 460 384 406T432 254L428 250H117Q117 246 117 242Q117 163 158 108T293 52Q367 52 429 96H432V85Q410 45 366 18T262 -10ZM245
425Q197 425 163 389T120 286H364Q344 425 245 425ZM252 530L140 644Q107 678 107 707H175L264 530H252Z" />
<glyph unicode="&#xe9;" glyph-name="uni00E9" horiz-adv-x="483" d="M262 -10Q162 -10 106 51T50 210Q50 317 113 388T260 460Q339 460 384 406T432 254L428 250H117Q117 246 117 242Q117 163 158 108T293 52Q367 52 429 96H432V85Q410 45 366 18T262 -10ZM245
425Q197 425 163 389T120 286H364Q344 425 245 425ZM255 530L345 707H412Q412 692 405 678T379 644L267 530H255Z" />
<glyph unicode="&#xea;" glyph-name="uni00EA" horiz-adv-x="483" d="M262 -10Q162 -10 106 51T50 210Q50 317 113 388T260 460Q339 460 384 406T432 254L428 250H117Q117 246 117 242Q117 163 158 108T293 52Q367 52 429 96H432V85Q410 45 366 18T262 -10ZM245
425Q197 425 163 389T120 286H364Q344 425 245 425ZM116 530L245 707H271L400 530H388L258 636L128 530H116Z" />
<glyph unicode="&#xeb;" glyph-name="uni00EB" horiz-adv-x="483" d="M262 -10Q162 -10 106 51T50 210Q50 317 113 388T260 460Q339 460 384 406T432 254L428 250H117Q117 246 117 242Q117 163 158 108T293 52Q367 52 429 96H432V85Q410 45 366 18T262 -10ZM245
425Q197 425 163 389T120 286H364Q344 425 245 425ZM165 571Q119 571 119 617Q119 663 165 663Q211 663 211 617Q211 571 165 571ZM351 571Q305 571 305 617Q305 663 351 663Q397 663 397 617Q397 571 351 571Z" />
<glyph unicode="&#xec;" glyph-name="uni00EC" horiz-adv-x="308" d="M58 0V16L121 41V373L56 412V422L181 460H189V41L255 16V0H58ZM149 530L37 644Q4 678 4 707H72L161 530H149Z" />
<glyph unicode="&#xed;" glyph-name="uni00ED" horiz-adv-x="308" d="M58 0V16L121 41V373L56 412V422L181 460H189V41L255 16V0H58ZM152 530L242 707H309Q309 692 302 678T276 644L164 530H152Z" />
<glyph unicode="&#xee;" glyph-name="uni00EE" horiz-adv-x="308" d="M58 0V16L121 41V373L56 412V422L181 460H189V41L255 16V0H58ZM13 530L142 707H168L297 530H285L155 636L25 530H13Z" />
<glyph unicode="&#xef;" glyph-name="uni00EF" horiz-adv-x="308" d="M58 0V16L121 41V373L56 412V422L181 460H189V41L255 16V0H58ZM62 571Q16 571 16 617Q16 663 62 663Q108 663 108 617Q108 571 62 571ZM248 571Q202 571 202 617Q202 663 248 663Q294 663 294
617Q294 571 248 571Z" />
<glyph unicode="&#xf0;" glyph-name="uni00F0" horiz-adv-x="531" d="M263 -10Q168 -10 109 56T50 219Q50 335 116 397T279 460Q310 460 333 456T376 445Q343 537 279 605L192 523H131L249 634Q184 692 101 721V749Q200 719 278 662L362 741H422L311 636Q392 565
437 468T482 259Q482 140 424 65T263 -10ZM124 232Q124 156 161 91T272 25Q333 25 369 84T406 264Q406 314 398 361Q341 422 269 422Q206 422 165 377T124 232Z" />
<glyph unicode="&#xf1;" glyph-name="uni00F1" horiz-adv-x="574" d="M52 0V16L115 41V373L50 407V418L167 460H175L182 387H186Q259 460 335 460Q395 460 434 428T473 335V41L536 16V0H334V16L405 41V296Q405 347 375 373T298 400Q270 400 237 389T183 356V41L254
16V0H52ZM147 556Q171 635 190 657T237 680Q262 680 283 662T325 626T366 607Q398 607 428 680H441Q417 601 398 579T351 556Q326 556 305 574T263 610T222 629Q190 629 160 556H147Z" />
<glyph unicode="&#xf2;" glyph-name="uni00F2" horiz-adv-x="528" d="M264 -10Q169 -10 110 57T50 225Q50 326 109 393T264 460Q359 460 418 393T478 225Q478 124 419 57T264 -10ZM278 25Q342 25 373 81T404 205Q404 291 367 358T252 426Q188 426 156 372T124
246Q124 159 162 92T278 25ZM256 530L144 644Q111 678 111 707H179L268 530H256Z" />
<glyph unicode="&#xf3;" glyph-name="uni00F3" horiz-adv-x="528" d="M264 -10Q169 -10 110 57T50 225Q50 326 109 393T264 460Q359 460 418 393T478 225Q478 124 419 57T264 -10ZM278 25Q342 25 373 81T404 205Q404 291 367 358T252 426Q188 426 156 372T124
246Q124 159 162 92T278 25ZM259 530L349 707H416Q416 692 409 678T383 644L271 530H259Z" />
<glyph unicode="&#xf4;" glyph-name="uni00F4" horiz-adv-x="528" d="M264 -10Q169 -10 110 57T50 225Q50 326 109 393T264 460Q359 460 418 393T478 225Q478 124 419 57T264 -10ZM278 25Q342 25 373 81T404 205Q404 291 367 358T252 426Q188 426 156 372T124
246Q124 159 162 92T278 25ZM120 530L249 707H275L404 530H392L262 636L132 530H120Z" />
<glyph unicode="&#xf5;" glyph-name="uni00F5" horiz-adv-x="528" d="M264 -10Q169 -10 110 57T50 225Q50 326 109 393T264 460Q359 460 418 393T478 225Q478 124 419 57T264 -10ZM278 25Q342 25 373 81T404 205Q404 291 367 358T252 426Q188 426 156 372T124
246Q124 159 162 92T278 25ZM115 556Q139 635 158 657T205 680Q230 680 251 662T293 626T334 607Q366 607 396 680H409Q385 601 366 579T319 556Q294 556 273 574T231 610T190 629Q158 629 128 556H115Z" />
<glyph unicode="&#xf6;" glyph-name="uni00F6" horiz-adv-x="528" d="M264 -10Q169 -10 110 57T50 225Q50 326 109 393T264 460Q359 460 418 393T478 225Q478 124 419 57T264 -10ZM278 25Q342 25 373 81T404 205Q404 291 367 358T252 426Q188 426 156 372T124
246Q124 159 162 92T278 25ZM169 571Q123 571 123 617Q123 663 169 663Q215 663 215 617Q215 571 169 571ZM355 571Q309 571 309 617Q309 663 355 663Q401 663 401 617Q401 571 355 571Z" />
<glyph unicode="&#xf7;" glyph-name="uni00F7" horiz-adv-x="500" d="M222 427V482H278V427H222ZM40 252V292H460V252H40ZM222 62V117H278V62H222Z" />
<glyph unicode="&#xf8;" glyph-name="uni00F8" horiz-adv-x="528" d="M50 -10L106 61Q50 127 50 225Q50 326 109 393T264 460Q336 460 390 419L422 460H478L422 389Q478 323 478 225Q478 124 419 57T264 -10Q192 -10 138 31L106 -10H50ZM124 246Q124 172 150 116L355
376Q315 426 252 426Q188 426 156 372T124 246ZM278 25Q342 25 373 81T404 205Q404 280 379 335L174 76Q215 25 278 25Z" />
<glyph unicode="&#xf9;" glyph-name="uni00F9" horiz-adv-x="548" d="M230 -10Q171 -10 133 22T94 115V409L28 434V450H162V154Q162 103 191 77T267 50Q295 50 327 61T380 94V409L305 434V450H448V40L519 16V0H380V62H376Q304 -10 230 -10ZM262 530L150 644Q117
678 117 707H185L274 530H262Z" />
<glyph unicode="&#xfa;" glyph-name="uni00FA" horiz-adv-x="548" d="M230 -10Q171 -10 133 22T94 115V409L28 434V450H162V154Q162 103 191 77T267 50Q295 50 327 61T380 94V409L305 434V450H448V40L519 16V0H380V62H376Q304 -10 230 -10ZM265 530L355 707H422Q422
692 415 678T389 644L277 530H265Z" />
<glyph unicode="&#xfb;" glyph-name="uni00FB" horiz-adv-x="548" d="M230 -10Q171 -10 133 22T94 115V409L28 434V450H162V154Q162 103 191 77T267 50Q295 50 327 61T380 94V409L305 434V450H448V40L519 16V0H380V62H376Q304 -10 230 -10ZM126 530L255 707H281L410
530H398L268 636L138 530H126Z" />
<glyph unicode="&#xfc;" glyph-name="uni00FC" horiz-adv-x="548" d="M230 -10Q171 -10 133 22T94 115V409L28 434V450H162V154Q162 103 191 77T267 50Q295 50 327 61T380 94V409L305 434V450H448V40L519 16V0H380V62H376Q304 -10 230 -10ZM175 571Q129 571 129
617Q129 663 175 663Q221 663 221 617Q221 571 175 571ZM361 571Q315 571 315 617Q315 663 361 663Q407 663 407 617Q407 571 361 571Z" />
<glyph unicode="&#xfd;" glyph-name="uni00FD" horiz-adv-x="457" d="M66 -241Q44 -241 39 -235T33 -212V-173L37 -169H83Q120 -169 133 -157T176 -82L217 9L42 408L-23 434V450H197V434L117 409V405L250 93H253L369 401V406L292 434V450H480V434L410 407L208
-91Q194 -124 185 -143T158 -188Q120 -241 66 -241ZM243 530L333 707H400Q400 692 393 678T367 644L255 530H243Z" />
<glyph unicode="&#xfe;" glyph-name="uni00FE" horiz-adv-x="558" d="M52 -230V-214L115 -189V663L50 699V710L169 750H183V399H187Q259 460 337 460Q412 460 461 403T510 247Q510 124 443 57T281 -10Q231 -10 183 6V-189L254 -214V-230H52ZM293 405Q233 405 183
367V71Q238 29 312 29Q365 29 404 73T444 221Q444 317 399 361T293 405Z" />
<glyph unicode="&#xff;" glyph-name="uni00FF" horiz-adv-x="457" d="M66 -241Q44 -241 39 -235T33 -212V-173L37 -169H83Q120 -169 133 -157T176 -82L217 9L42 408L-23 434V450H197V434L117 409V405L250 93H253L369 401V406L292 434V450H480V434L410 407L208
-91Q194 -124 185 -143T158 -188Q120 -241 66 -241ZM153 571Q107 571 107 617Q107 663 153 663Q199 663 199 617Q199 571 153 571ZM339 571Q293 571 293 617Q293 663 339 663Q385 663 385 617Q385 571 339 571Z" />
<glyph unicode="&#x2013;" glyph-name="uni2013" horiz-adv-x="500" d="M50 251V293H450V251H50Z" />
<glyph unicode="&#x2014;" glyph-name="uni2014" horiz-adv-x="1000" d="M50 251V293H950V251H50Z" />
<glyph unicode="&#x2018;" glyph-name="uni2018" horiz-adv-x="235" d="M146 493Q133 493 120 500Q54 538 54 608Q54 648 87 690T191 750V732Q152 719 128 695T104 642Q104 600 154 572L184 555V547L168 510Q161 493 146 493Z" />
<glyph unicode="&#x2019;" glyph-name="uni2019" horiz-adv-x="235" d="M51 492V510Q90 524 114 547T138 601Q138 643 88 670L57 687V696L74 732Q81 750 96 750Q108 750 122 743Q188 704 188 635Q188 598 156 555T51 492Z" />
<glyph unicode="&#x201a;" glyph-name="uni201A" horiz-adv-x="235" d="M51 -200V-182Q90 -168 114 -145T138 -91Q138 -49 88 -22L57 -5V4L74 40Q81 58 96 58Q108 58 122 51Q188 12 188 -57Q188 -94 156 -137T51 -200Z" />
<glyph unicode="&#x201c;" glyph-name="uni201C" horiz-adv-x="423" d="M146 493Q133 493 120 500Q54 538 54 608Q54 648 87 690T191 750V732Q152 719 128 695T104 642Q104 600 154 572L184 555V547L168 510Q161 493 146 493ZM334 493Q321 493 308 500Q242 538
242 608Q242 648 275 690T379 750V732Q340 719 316 695T292 642Q292 600 342 572L372 555V547L356 510Q349 493 334 493Z" />
<glyph unicode="&#x201d;" glyph-name="uni201D" horiz-adv-x="423" d="M51 492V510Q90 524 114 547T138 601Q138 643 88 670L57 687V696L74 732Q81 750 96 750Q108 750 122 743Q188 704 188 635Q188 598 156 555T51 492ZM239 492V510Q278 524 302 547T326 601Q326
643 276 670L245 687V696L262 732Q269 750 284 750Q296 750 310 743Q376 704 376 635Q376 598 344 555T239 492Z" />
<glyph unicode="&#x201e;" glyph-name="uni201E" horiz-adv-x="423" d="M51 -200V-182Q90 -168 114 -145T138 -91Q138 -49 88 -22L57 -5V4L74 40Q81 58 96 58Q108 58 122 51Q188 12 188 -57Q188 -94 156 -137T51 -200ZM239 -200V-182Q278 -168 302 -145T326 -91Q326
-49 276 -22L245 -5V4L262 40Q269 58 284 58Q296 58 310 51Q376 12 376 -57Q376 -94 344 -137T239 -200Z" />
<glyph unicode="&#x2022;" glyph-name="uni2022" horiz-adv-x="500" d="M250 159Q201 159 170 191T138 272Q138 321 169 352T250 383Q297 383 329 352T362 272Q362 224 330 192T250 159Z" />
<glyph unicode="&#x2039;" glyph-name="uni2039" horiz-adv-x="250" d="M208 70L30 247L208 424H220L112 247L220 70H208Z" />
<glyph unicode="&#x203a;" glyph-name="uni203A" horiz-adv-x="250" d="M30 70L138 247L30 424H42L220 247L42 70H30Z" />
</font>
</defs>
</svg>
