<?xml version="1.0" standalone="no"?>
<!DOCTYPE svg PUBLIC "-//W3C//DTD SVG 1.1//EN" "http://www.w3.org/Graphics/SVG/1.1/DTD/svg11.dtd">
<svg xmlns="http://www.w3.org/2000/svg">
<defs >
<font id="Suravaram" horiz-adv-x="349" ><font-face
    font-family="Suravaram"
    units-per-em="980"
    panose-1="0 0 0 0 0 0 0 0 0 0"
    ascent="1295"
    descent="-794"
    alphabetic="0" />
<glyph unicode=" " glyph-name="space" horiz-adv-x="177" />
<glyph unicode="!" glyph-name="exclam" horiz-adv-x="235" d="M142 165Q142 149 144 135Q134 131 119 131T98 136T92 158L80 380Q79 414 77 436T74 464V475Q91 488 115 488T147 480T156 462V450L142 165ZM130 -8T118 -8T97 -4T82 6Q71 18 71 37T82 70T111 85T141
80T159 61T164 38T162 22T153 7T139 -4Z" />
<glyph unicode="&quot;" glyph-name="quotedbl" horiz-adv-x="264" d="M39 486Q51 500 71 500T98 493T104 475V458Q104 453 103 448L93 329Q85 321 72 321Q51 321 50 345Q49 352 48 359L43 422Q42 437 41 452T39 486ZM161 486Q173 500 193 500T220 493T226 472T225
448L215 329Q204 321 195 321Q174 321 172 344Q172 351 171 358L165 422Q162 462 161 486Z" />
<glyph unicode="#" glyph-name="numbersign" horiz-adv-x="415" d="M119 24H89Q74 24 74 34Q74 40 76 51T81 80L96 149H27V167Q27 190 38 194Q42 195 52 195H105L123 284H52V308Q52 323 58 326T78 330H133L159 452H177Q202 452 206 443Q204 431 202 417L183 330H271L297
452H325Q337 452 342 449V442L340 424Q338 414 335 398L320 330H388V312Q388 295 384 290T363 284H312L292 195H363V171Q363 151 348 149H283L258 24H239Q216 24 211 36Q212 44 215 55T220 80L234 149H145L119 24ZM155 195H243L262 284H173L155 195Z" />
<glyph unicode="$" glyph-name="dollar" horiz-adv-x="436" d="M218 535Q238 535 242 519V491Q341 491 366 458Q366 458 365 427L349 376L318 384Q305 413 288 429T242 449V267Q316 236 342 213Q388 171 388 119T348 30T242 -11V-80H220Q204 -80 200 -75T195 -53V-12Q109
-7 54 33Q48 37 46 44Q46 63 48 82L68 125L102 112Q131 37 195 31V215Q119 249 97 270T65 311T55 359Q55 413 92 446T195 489V535H218ZM195 450Q138 443 125 391Q124 386 123 382T122 366Q122 316 195 286V450ZM310 79Q316 92 316 108Q316 162 242 195V30Q292 36
310 79Z" />
<glyph unicode="%" glyph-name="percent" horiz-adv-x="550" d="M148 -11L105 4Q112 17 136 56T182 131T234 217T305 334T400 489Q429 480 434 470Q436 468 440 466L148 -11ZM136 461Q83 461 83 362Q83 311 96 288T136 265T175 288T188 362T176 437T136 461ZM178
246Q160 237 138 237Q91 237 61 269T31 363Q31 455 95 480Q114 488 136 488Q181 488 211 457T241 349T178 246ZM414 19Q468 19 468 117T414 216Q387 216 375 193T362 117Q362 19 414 19ZM437 -8T414 -8T372 0T338 23T317 62T309 117T316 171T337 211T371 235T414
243T457 235T490 211T511 172T519 117T512 63T490 24T456 0Z" />
<glyph unicode="&amp;" glyph-name="ampersand" horiz-adv-x="468" d="M102 124Q102 32 209 32Q287 32 310 92Q318 113 318 142T316 195L313 220H203Q133 220 110 164Q102 146 102 124ZM370 220Q379 168 379 127T368 62T334 22Q286 -13 203 -13Q67 -13 34 69Q24
94 24 120Q24 166 52 200T129 244V246Q65 261 46 314Q39 332 39 356Q39 410 79 443T201 476T338 442L330 348H288Q270 401 258 414Q236 438 207 438T159 431T130 412Q108 388 108 351T135 289T209 264H458V171H437Q429 200 420 210T393 220H370Z" />
<glyph unicode="&apos;" glyph-name="quotesingle" horiz-adv-x="143" d="M76 500Q104 500 104 472V458Q104 453 103 448L93 329Q82 321 72 321Q53 321 50 344Q49 351 48 358L43 422Q42 436 41 450T39 476Q39 500 76 500Z" />
<glyph unicode="(" glyph-name="parenleft" horiz-adv-x="196" d="M39 225Q39 341 92 450Q124 513 142 520Q148 522 152 522T160 520L175 513Q102 394 102 225Q102 56 175 -63L160 -70Q156 -71 149 -71T130 -60Q66 23 46 146Q39 185 39 225Z" />
<glyph unicode=")" glyph-name="parenright" horiz-adv-x="196" d="M94 225Q94 396 22 513L36 520Q40 522 49 522T67 510Q131 427 152 304Q158 265 158 225Q158 142 134 68T67 -60Q56 -71 49 -71T36 -70L22 -63Q94 54 94 225Z" />
<glyph unicode="*" glyph-name="asterisk" horiz-adv-x="310" d="M94 249L132 333L42 288L28 340L124 362L41 419L85 456L144 382L154 482L214 466L174 377L265 419L278 368L184 349L265 282L220 247L162 329L153 225L94 249Z" />
<glyph unicode="+" glyph-name="plus" horiz-adv-x="431" d="M214 374Q234 374 240 358V227H387V204Q387 186 382 182T358 178H240V32H217Q198 32 195 37T191 60V178H45V202Q45 219 50 223T74 227H191V374H214Z" />
<glyph unicode="," glyph-name="comma" horiz-adv-x="154" d="M116 46Q116 -39 39 -106Q28 -106 24 -100L20 -90Q48 -49 52 1L54 14Q36 14 28 27T27 55T43 76T69 83Q116 83 116 46Z" />
<glyph unicode="-" glyph-name="hyphen" horiz-adv-x="228" d="M211 201Q211 179 195 174H17V197Q17 211 23 214T45 218H211V201Z" />
<glyph unicode="." glyph-name="period" horiz-adv-x="200" d="M146 40Q146 5 122 -7Q113 -11 96 -11T67 3T55 35Q55 66 80 78Q89 82 105 82T134 68T146 40Z" />
<glyph unicode="/" glyph-name="slash" horiz-adv-x="285" d="M258 508Q280 508 286 499Q285 497 284 494T280 483T268 454T212 322T129 130T51 -52H27Q6 -52 -1 -42L234 508H258Z" />
<glyph unicode="0" glyph-name="zero" horiz-adv-x="427" d="M323 448T214 448T105 238Q105 183 112 144Q130 29 214 29Q323 29 323 238ZM257 -13T214 -13T137 4T78 54Q31 117 31 237T79 423T214 489Q346 489 384 344Q397 298 397 238T385 132T349 53T291 4Z" />
<glyph unicode="1" glyph-name="one" horiz-adv-x="329" d="M46 452Q152 489 176 489T204 478V85Q204 55 209 43Q221 40 244 40H274V-6Q201 4 65 -6V40H95Q118 40 130 43Q135 63 135 83V417Q123 427 103 427L83 426L52 420L46 452Z" />
<glyph unicode="2" glyph-name="two" horiz-adv-x="418" d="M282 361Q282 447 204 447Q166 447 133 424T94 358L45 399Q57 463 146 483Q172 489 204 489Q272 489 312 453T353 358Q353 317 336 287Q308 236 262 189T110 48H243Q297 48 325 78Q338 91 348 114L369
110Q369 55 365 9Q335 0 234 0H66Q41 0 35 17Q35 23 36 29T39 45Q217 220 254 276Q276 310 279 329T282 361Z" />
<glyph unicode="3" glyph-name="three" horiz-adv-x="401" d="M295 130Q295 225 150 225H137V265H159Q202 265 241 292T280 363T256 426T204 447T159 442Q124 432 102 398Q92 382 88 362L42 399Q50 441 91 464T190 488Q296 488 332 426Q345 402 345 376Q345 328
314 296T226 251Q362 235 362 127Q362 29 264 -3Q234 -13 189 -13T98 7T41 55Q49 117 52 132L89 125Q89 73 119 51T183 29Q240 29 267 58T295 130Z" />
<glyph unicode="4" glyph-name="four" horiz-adv-x="405" d="M371 -6Q330 0 288 0T165 -6V39H195Q220 39 230 42Q236 57 235 83V129H25Q12 139 12 158Q14 168 22 176Q166 386 200 429T241 482H270Q290 482 296 476T302 456V172H396V153Q396 136 390 133T369 129H302V84Q302
58 306 42Q318 39 341 39H371V-6ZM235 172V400L82 182L76 172H235Z" />
<glyph unicode="5" glyph-name="five" horiz-adv-x="413" d="M312 426T300 425T247 424T130 440L127 280Q169 300 207 300Q282 300 326 258T370 146T326 32T203 -13T77 15Q65 22 58 29V134L99 130L114 49Q154 29 190 29Q250 29 275 63T301 147T270 226Q238 255
185 255T96 225L73 232V467Q83 482 108 482H246Q311 482 344 489L346 441Q337 430 325 428Z" />
<glyph unicode="6" glyph-name="six" horiz-adv-x="410" d="M232 255Q178 255 116 193Q116 29 214 29Q257 29 283 60T309 148Q309 226 261 248Q246 255 232 255ZM210 -13Q42 -13 42 221Q42 421 149 472Q186 489 238 489T332 474Q344 469 352 463L348 358H307L297
429Q263 448 235 448Q186 448 159 416T121 336T111 266V239Q169 297 234 297T339 257T379 148T333 33T210 -13Z" />
<glyph unicode="7" glyph-name="seven" horiz-adv-x="401" d="M360 482Q370 452 370 430L210 63Q193 24 180 10T142 -4T111 8Q115 19 120 30L314 437H167Q123 437 99 429L91 358H52L37 463Q71 482 205 482H360Z" />
<glyph unicode="8" glyph-name="eight" horiz-adv-x="392" d="M345 334T324 307T260 248Q327 221 353 167Q362 148 362 118T348 62Q310 -13 192 -13Q123 -13 78 19T32 108Q32 180 84 220Q102 234 127 246Q57 281 44 334Q39 352 39 376T51 422T85 458T134 481T192
489Q255 489 300 458T345 381ZM169 226Q97 188 97 122T154 35Q172 29 194 29Q240 29 265 53T290 111Q290 177 198 215L169 226ZM206 268Q281 308 281 368Q281 403 257 425T192 448Q131 448 112 402Q105 387 105 368Q105 334 132 308T206 268Z" />
<glyph unicode="9" glyph-name="nine" horiz-adv-x="409" d="M105 332Q105 225 183 225Q228 225 260 255T295 316Q295 413 236 440Q218 448 198 448Q154 448 130 417T105 332ZM200 489Q368 489 368 265Q368 57 264 5Q229 -13 174 -13T78 8Q64 15 56 23V125L99
122L113 45Q217 0 266 82Q298 135 298 218V228Q298 232 297 237Q237 181 175 181T74 221T35 330Q35 438 132 477Q162 489 200 489Z" />
<glyph unicode=":" glyph-name="colon" horiz-adv-x="203" d="M55 57T68 69T102 82T135 67T148 31T134 0T100 -11T67 2T55 36ZM148 314Q148 261 102 261Q79 261 67 274T55 308T68 341T101 354T134 342T148 314Z" />
<glyph unicode=";" glyph-name="semicolon" horiz-adv-x="158" d="M79 261Q27 261 27 308Q27 344 62 352Q67 354 80 354T106 342T120 308T108 274T79 261ZM69 83Q116 83 116 43Q116 -17 70 -77Q48 -106 38 -106Q20 -106 14 -93Q51 -34 54 14Q26 14 26 43Q27 60
38 71T69 83Z" />
<glyph unicode="&lt;" glyph-name="less" horiz-adv-x="464" d="M45 184L44 196V200Q44 211 55 216Q126 249 203 283T304 330T346 349T373 360T389 367T397 371T402 373Q410 365 413 354T420 330L116 190L419 52Q415 39 413 28T402 8Q375 19 45 171V184Z" />
<glyph unicode="=" glyph-name="equal" horiz-adv-x="431" d="M387 272Q387 250 371 246H45V269Q45 286 52 290T78 294H387V272ZM387 137Q387 117 371 111H45V134Q45 157 58 158Q63 159 71 159H387V137Z" />
<glyph unicode="&gt;" glyph-name="greater" horiz-adv-x="464" d="M412 216Q420 213 420 192V171Q356 142 307 119T220 79Q156 49 119 33T71 11T58 11Q51 21 46 52L348 191L45 330L65 374L412 216Z" />
<glyph unicode="?" glyph-name="question" horiz-adv-x="329" d="M145 80Q181 80 194 50Q197 41 197 26T184 -1Q161 -22 133 -10T104 29T117 68T145 80ZM171 185Q171 153 181 126H155Q128 142 114 170Q110 179 110 193T118 221Q134 246 165 275Q220 326 220 372Q220
404 204 424T158 444Q88 444 76 389H29Q29 442 75 468Q111 489 150 489Q219 489 257 457T295 369T232 258Q193 223 182 210T171 185Z" />
<glyph unicode="@" glyph-name="at" horiz-adv-x="622" d="M420 152Q420 108 455 108T519 154T547 250Q547 343 489 399T335 456T172 389T105 214T171 41T333 -24T508 24L521 0Q433 -57 341 -57Q162 -57 81 76Q45 136 45 211Q45 332 129 411T329 491T516 426T587
257Q587 188 548 132T449 75Q405 75 384 110Q376 120 374 132H372Q340 75 280 75T198 132Q191 150 191 182T203 249T236 310Q285 367 355 367Q397 367 414 330L428 352H463L424 185Q420 169 420 152ZM397 304Q390 337 355 337T286 288T253 185Q253 111 304 111Q367
111 390 258Q393 281 397 304Z" />
<glyph unicode="A" glyph-name="A" horiz-adv-x="529" d="M251 421L167 176H337L254 421H251ZM167 -5Q143 0 87 0T0 -5L10 42H25Q43 42 57 46Q71 65 76 80T90 119T111 172T136 237T164 306L234 482H265Q289 482 305 476L453 87Q465 58 473 46Q489 42 505 42H520L530
-5Q502 0 469 0H422Q379 0 349 -5L342 42H348Q366 42 382 46Q382 61 372 85L349 141H156L138 87Q130 63 130 49Q130 42 155 42H170L167 -5Z" />
<glyph unicode="B" glyph-name="B" horiz-adv-x="487" d="M260 42Q371 42 371 130Q371 179 342 203T247 228Q247 228 198 228Q181 228 177 227V42H260ZM177 270Q219 267 241 267Q293 267 326 289T360 356Q360 423 296 438Q274 444 242 444L196 442L177 441V270ZM235
0T170 0T33 -5V42H62Q83 42 97 46Q103 59 102 85V386Q102 417 97 435Q85 437 70 437L26 435V473Q126 486 258 486Q434 486 434 358Q434 319 407 288T334 251Q447 236 446 132Q446 47 372 20Q327 3 281 2Z" />
<glyph unicode="C" glyph-name="C" horiz-adv-x="459" d="M264 489Q367 489 430 454L421 360H381Q364 408 348 423T317 443T269 448T207 432Q120 386 120 244Q120 85 212 46Q242 33 279 33Q341 33 433 74L438 27Q371 -13 270 -13T104 49T39 230Q39 417 178 472Q223
489 264 489Z" />
<glyph unicode="D" glyph-name="D" horiz-adv-x="541" d="M26 475Q110 486 203 486T327 482T385 466Q503 415 503 238Q503 82 398 33Q340 6 236 2Q189 0 143 0T31 -5V43Q84 43 95 46Q100 61 100 86V384Q100 406 95 431Q84 435 61 435H26V475ZM252 440L172 439V42Q178
41 183 41H210Q353 41 397 116Q422 160 422 228T412 335T381 396Q342 440 252 440Z" />
<glyph unicode="E" glyph-name="E" horiz-adv-x="453" d="M26 471Q85 482 198 482H403L412 438Q413 430 417 413T421 383L372 382L370 398Q368 412 362 429Q342 439 276 439L246 438L172 437V267H286Q310 267 319 284Q323 290 327 304H344Q344 240 340 186H319Q308
220 290 226Q284 228 275 228H172V42H326Q364 42 374 54Q380 71 384 109Q405 109 426 109V70Q426 54 425 37T422 7Q388 -3 354 -4T291 -5L136 0Q64 0 30 -5V42H60Q80 42 94 46Q100 59 99 85V393Q99 420 94 432Q88 435 80 435H26V471Z" />
<glyph unicode="F" glyph-name="F" horiz-adv-x="448" d="M250 438L175 437V269H274Q306 269 315 304H332Q332 240 328 186H307Q299 211 291 218T264 225H175V87Q175 66 180 46Q196 42 215 42H245V-5L139 0L40 -4L33 -5V42H62Q83 42 97 46Q102 59 102 81V395Q102
419 97 432Q90 435 82 435H26V471Q116 482 258 482H406Q410 458 412 440T416 408T419 383L370 382Q370 402 361 429Q343 439 279 439L250 438Z" />
<glyph unicode="G" glyph-name="G" horiz-adv-x="466" d="M452 34Q384 -13 282 -13Q114 -13 58 122Q39 167 39 231Q39 357 109 423T300 489Q381 489 444 454L435 360H394Q377 408 361 423Q335 448 292 448Q205 448 163 392T120 240T162 88T283 32Q344 32 382 51V129Q382
159 377 172Q366 176 342 176H302V213Q308 213 330 215T389 218H454Q453 202 453 191L452 160V34Z" />
<glyph unicode="H" glyph-name="H" horiz-adv-x="567" d="M540 -5Q506 0 436 0T328 -5V42H358Q379 42 393 46Q399 59 398 85V226H169V87Q169 66 174 46Q190 42 209 42H239V-5Q205 0 134 0T27 -5V42H57Q77 42 91 46Q97 61 97 85V396Q97 420 91 436Q80 440 56 440H26V476Q72
482 139 482T240 476V440H209Q190 440 174 436Q169 416 169 396V272H398V396Q398 423 393 436Q382 440 358 440H328V476Q374 482 442 482T542 476V440H511Q492 440 476 436Q471 416 471 396V87Q471 66 476 46Q492 42 510 42H540V-5Z" />
<glyph unicode="I" glyph-name="I" horiz-adv-x="264" d="M239 -5Q207 0 136 0T27 -5V42H56Q75 42 91 46Q97 61 96 85V398Q96 423 91 436Q80 440 56 440H26V476Q72 482 140 482T239 476V440H209Q188 440 174 436Q169 416 169 398V87Q169 66 174 46Q190 42 209 42H239V-5Z" />
<glyph unicode="J" glyph-name="J" horiz-adv-x="342" d="M110 476Q156 482 224 482T323 476V440H293Q272 440 258 436Q252 422 253 396V106Q253 -14 183 -49Q161 -60 138 -60T74 -53T15 -36Q15 -35 16 -28L17 -9Q18 4 19 23T22 71L70 70Q72 38 84 -12Q91 -13
99 -15T124 -17Q158 -17 169 15T180 118V396Q180 423 174 436Q165 440 140 440H110V476Z" />
<glyph unicode="K" glyph-name="K" horiz-adv-x="490" d="M26 476Q72 482 140 482T239 476V440H209Q188 440 174 436Q169 416 169 396V85Q169 60 174 46Q190 42 209 42H239V-5Q194 0 132 0Q61 0 27 -5V42H57Q77 42 91 46Q96 59 96 81V396Q96 423 91 436Q80 440
56 440H26V476ZM300 476Q350 482 409 482T492 476L490 440H463Q448 440 432 436Q405 414 353 356T283 280T256 251L388 85Q403 66 425 46Q441 42 458 42H484L489 -5Q449 0 383 0T282 -5V42H288Q311 42 321 46Q317 57 296 85L192 224Q189 227 187 230T179 243Q184
250 196 264T219 290T258 333T310 390Q343 423 343 430V436Q335 440 315 440H296L300 476Z" />
<glyph unicode="L" glyph-name="L" horiz-adv-x="445" d="M292 -5L132 0Q61 0 27 -5V42H56Q75 42 91 46Q97 61 96 85V396Q96 423 91 436Q80 440 56 440H26V476Q72 482 140 482T240 476V440H209Q190 440 174 436Q169 416 169 396V42H297Q336 42 351 50Q376 63 388
109L417 106L405 0Q332 -5 292 -5Z" />
<glyph unicode="M" glyph-name="M" horiz-adv-x="737" d="M712 -5Q677 0 608 0T503 -5L499 42H526Q550 42 555 47T561 64T561 97T558 143T553 218T539 400Q407 31 394 0H331Q311 53 284 134T239 267T195 397Q174 82 174 69T181 49T209 42H235L232 -5Q197 0 129
0T26 -5L34 42H67Q86 42 102 46Q115 72 117 87T122 129T127 186T132 247T136 305T140 355T142 389T144 410Q144 418 143 423T140 434Q126 440 104 440H69V476Q79 477 95 479T153 482T234 476Q268 394 306 274T358 116T372 75Q418 217 460 333T512 476Q554 482 587
482L668 477L671 476L674 440H645Q619 440 610 433Q609 427 608 417L634 85Q635 66 643 46Q663 42 687 42H705L712 -5Z" />
<glyph unicode="N" glyph-name="N" horiz-adv-x="557" d="M228 -5Q198 0 134 0T34 -5V42H64Q84 42 98 46Q104 59 104 85L103 396Q103 423 98 436Q87 440 63 440H26V476Q104 482 130 482T178 477Q335 234 421 89L416 358V396Q416 423 411 436Q395 440 376 440H342V476Q386
482 449 482T538 476V440H512Q491 440 477 436Q472 423 472 387T471 299T469 194T466 90T463 -5H428Q412 -5 398 2L154 389Q158 313 158 198T159 69T164 46Q180 42 198 42H228V-5Z" />
<glyph unicode="O" glyph-name="O" horiz-adv-x="524" d="M119 238Q119 29 262 29T405 239Q405 343 368 396Q330 448 262 448Q159 448 129 330Q119 291 119 238ZM486 356T486 240T426 55T263 -13T99 55T38 239T98 422T262 489T425 423Z" />
<glyph unicode="P" glyph-name="P" horiz-adv-x="450" d="M176 440V237Q176 237 231 237Q349 237 349 339Q349 418 284 434Q262 440 233 440H176ZM245 -5Q212 0 141 0T33 -5V42H63Q83 42 97 46Q103 59 103 85L102 398Q102 425 97 437Q79 440 63 440H26V476Q94
485 180 485T306 478Q424 458 424 339Q424 195 230 195Q208 195 176 197V87Q176 59 181 46Q197 42 215 42H245V-5Z" />
<glyph unicode="Q" glyph-name="Q" horiz-adv-x="541" d="M502 -39Q430 -69 378 -69Q295 -69 233 -10Q92 5 52 139Q38 184 38 242Q38 357 98 423T257 489T419 423T482 242T416 55Q379 15 323 0Q348 -22 414 -22Q432 -22 493 -4L502 -39ZM261 28Q365 28 394 144Q404
184 404 238Q404 340 367 394T261 448Q194 448 156 396T118 238Q118 28 261 28Z" />
<glyph unicode="R" glyph-name="R" horiz-adv-x="482" d="M236 244Q354 244 354 343Q354 397 325 418T228 440H176V244Q206 244 236 244ZM245 -5Q212 0 141 0T33 -5V42H63Q83 42 97 46Q103 59 103 85L102 400Q102 424 97 437Q87 440 66 440H26V476Q37 477 52 479T84
481T120 483T164 484H230Q327 484 378 453T429 346Q429 250 333 216Q348 131 417 68Q445 42 465 42H483V-5H433Q378 -5 338 34Q310 63 290 120Q281 144 277 165T268 204Q245 204 222 204T176 205V87Q176 59 181 46Q197 42 215 42H245V-5Z" />
<glyph unicode="S" glyph-name="S" horiz-adv-x="410" d="M122 402Q115 388 115 372Q115 341 138 321T202 286Q287 254 331 220T375 130Q375 29 272 -4Q241 -13 212 -13Q98 -13 33 44L48 134L99 132Q99 79 113 55Q140 28 204 28Q244 28 272 51T301 109Q301 163
222 202Q197 214 168 225T116 249Q42 290 42 360Q42 449 146 479Q181 489 223 489T305 480T354 456Q354 453 354 448L352 435Q348 396 343 361L300 365Q300 412 282 430T211 448Q143 448 122 402Z" />
<glyph unicode="T" glyph-name="T" horiz-adv-x="464" d="M452 476L448 358H406Q406 414 395 440H272V87Q272 62 276 46Q292 42 312 42H342V-5Q310 0 238 0T129 -5V42H159Q179 42 193 46Q198 59 198 81V440H75Q64 420 64 358H18L14 476Q26 482 93 482L164 480H196L239
479L288 480Q302 480 316 480L372 482Q440 482 452 476Z" />
<glyph unicode="U" glyph-name="U" horiz-adv-x="537" d="M330 477Q367 482 432 482T528 476V440H497Q476 440 462 436Q457 423 457 396V173Q457 85 405 36T266 -13Q80 -13 80 196V396Q80 423 75 436Q64 440 41 440H10V477Q48 482 121 482T224 476V440H193Q174
440 158 436Q153 422 154 396V168Q154 65 226 38Q248 29 276 29Q340 29 370 69T400 193V396Q400 423 395 436Q384 440 360 440H330V477Z" />
<glyph unicode="V" glyph-name="V" horiz-adv-x="546" d="M190 440Q171 440 157 436Q157 426 170 396L295 72H298L414 396Q423 419 423 436Q414 440 390 440H366L368 476Q408 482 465 482T547 476L539 440H522Q502 440 486 436Q474 417 468 396Q450 348 412 244T316
0H281Q250 0 243 15L91 396Q83 414 69 436Q58 440 33 440H8L0 476Q40 482 108 482T210 476L214 440H190Z" />
<glyph unicode="W" glyph-name="W" horiz-adv-x="804" d="M6 476Q46 482 114 482T216 476L220 440H196Q177 440 163 436Q164 428 167 419T176 396L281 72H284Q289 85 293 99T303 131T316 170T331 220T349 286T369 361T386 467H427Q444 467 450 456Q452 453 454
449L576 70H579Q593 117 604 154T625 222T641 277T663 355T679 419V432Q679 434 678 436Q669 440 645 440H622L620 476Q660 482 717 482T799 476L794 440H777Q759 440 741 436Q732 417 723 384Q670 183 598 0H542Q529 0 527 4Q520 16 519 23T515 33L416 337Q367
155 304 0H250Q231 0 226 15L97 396Q92 409 86 418T75 436Q64 440 39 440H14L6 476Z" />
<glyph unicode="X" glyph-name="X" horiz-adv-x="540" d="M439 0H385Q343 0 309 -5V42H326Q344 42 358 46Q346 71 334 87L257 197L177 87Q164 70 155 46Q167 42 187 42H204V-5Q170 0 128 0H75Q36 0 6 -5V42H35Q52 42 68 46Q76 54 84 64T103 85L229 236L117 396Q108
409 102 418Q96 428 88 436Q77 440 51 440H26L21 476Q57 482 124 482T228 476L232 440H212Q192 440 180 436Q182 427 185 423T191 414L277 288L361 396Q382 424 387 436Q379 440 355 440H342L346 476Q394 482 450 482T525 476L522 440H494Q476 440 456 436Q446
426 387 353T302 252L424 85Q445 57 458 46Q474 42 491 42H507V-5Q494 -4 480 -2T439 0Z" />
<glyph unicode="Y" glyph-name="Y" horiz-adv-x="531" d="M189 440Q168 440 156 436Q156 428 161 419T169 404L277 220Q301 264 315 291T339 334T365 384T386 436Q378 440 354 440H330L338 476Q382 482 445 482T534 476L521 440H492Q474 440 456 436Q452 430 448
425T442 416T434 401T417 372T395 334T360 275T298 173V87Q298 62 304 46Q320 42 337 42H368V-5Q336 0 265 0T156 -5V42H186Q204 42 220 46Q225 59 227 85V164L90 396Q82 409 78 418T67 436Q56 440 32 440H6L-4 476Q38 482 105 482T207 476L213 440H189Z" />
<glyph unicode="Z" glyph-name="Z" horiz-adv-x="411" d="M87 414L88 377Q70 377 52 377Q52 379 50 393T46 417T43 438T40 457T38 470Q81 482 211 482H368Q382 473 382 456V438L102 42H273Q299 42 309 54Q329 78 329 132H383V29Q383 20 381 10Q381 0 298 0H36Q24
9 24 27V45L298 440H205Q197 440 185 439T152 437T110 430T87 414Z" />
<glyph unicode="[" glyph-name="bracketleft" horiz-adv-x="217" d="M192 -42V-54Q192 -75 174 -76Q169 -77 162 -77H69V524H159Q186 524 189 516T192 500V489H122V-42H192Z" />
<glyph unicode="\" glyph-name="backslash" horiz-adv-x="298" d="M298 -22H262Q246 -22 237 -13L0 499H34Q53 499 65 483L298 -22Z" />
<glyph unicode="]" glyph-name="bracketright" horiz-adv-x="217" d="M65 -77Q25 -77 25 -54V-42H95V489H25V500Q25 520 41 524H149V-77H65Z" />
<glyph unicode="^" glyph-name="asciicircum" horiz-adv-x="398" d="M355 169Q363 153 363 144T358 127L324 121L200 336L78 122L55 127Q43 129 35 139Q43 160 48 169L181 405H203Q219 405 227 393L355 169Z" />
<glyph unicode="_" glyph-name="underscore" horiz-adv-x="322" d="M327 -90Q327 -109 312 -113H-4V-93Q-4 -71 17 -71H327V-90Z" />
<glyph unicode="`" glyph-name="grave" horiz-adv-x="409" d="M132 531H216L279 424H232L132 531Z" />
<glyph unicode="a" glyph-name="a" horiz-adv-x="417" d="M106 94Q106 34 173 34Q206 34 253 69Q258 114 258 164H205Q157 164 132 146T106 94ZM329 90Q329 54 335 34H388V6Q350 -7 279 -4Q261 -2 257 9T252 32L251 38Q200 -8 143 -8Q66 -8 42 48Q34 66 34 91Q34
202 209 202H258V225Q258 275 247 292T224 314T183 320Q131 320 90 253L43 282Q47 310 88 333T190 356Q329 356 329 228V90Z" />
<glyph unicode="b" glyph-name="b" horiz-adv-x="447" d="M335 182Q335 317 251 317Q200 316 155 276Q148 232 148 160T153 34Q203 29 231 29Q283 29 309 69T335 182ZM73 0H58Q52 0 47 0T40 -1L44 35Q71 45 74 62Q76 69 76 79V463Q76 473 74 483Q62 487 45 487H13V517Q49
526 92 526T145 524Q146 516 147 508T148 491V306Q196 356 264 356T371 311T410 182T366 47T258 -4L73 0Z" />
<glyph unicode="c" glyph-name="c" horiz-adv-x="361" d="M304 256Q274 317 222 317T140 281T111 195Q111 112 143 73T230 34T331 62L335 18Q291 -8 214 -8T87 39T38 169Q38 300 150 343Q183 356 211 356Q298 356 335 323L329 256H304Z" />
<glyph unicode="d" glyph-name="d" horiz-adv-x="448" d="M211 317Q115 317 115 176T209 34Q260 34 288 82Q297 97 302 116Q302 229 298 281Q262 317 211 317ZM237 517Q275 526 318 526T370 524Q373 506 373 498V90Q373 54 379 34H437V5Q399 -4 361 -4T314 1T304
28V44Q263 -8 193 -8T80 38T38 171T78 308T186 358T302 314V454Q302 472 299 483Q287 487 270 487H237V517Z" />
<glyph unicode="e" glyph-name="e" horiz-adv-x="392" d="M285 202Q286 203 286 204V208Q286 284 242 309Q226 318 204 318Q116 318 110 202H285ZM111 163Q119 34 231 34Q286 34 321 69L351 56Q315 -8 216 -8Q135 -8 87 39T38 174Q38 302 142 343Q174 356 210
356Q277 356 317 319T358 227T330 165Q320 163 307 163H111Z" />
<glyph unicode="f" glyph-name="f" horiz-adv-x="263" d="M223 -4Q169 0 131 0T45 -4L46 24Q79 28 85 34T93 48T94 67V305H18V330Q28 346 55 346H94V377Q94 452 131 488T237 524Q278 524 312 507V431H279Q264 486 225 486Q193 486 180 466T166 392V346H261V328Q261
309 245 305H166V80Q166 65 166 56T174 37T220 24L223 -4Z" />
<glyph unicode="g" glyph-name="g" horiz-adv-x="368" d="M77 22Q50 26 50 68Q50 87 60 106T92 131V132Q37 164 37 234Q37 318 120 347Q146 356 177 356T251 341L336 352Q354 352 357 345T360 314V307H286Q314 273 314 239Q314 176 276 141T159 106Q153 106 113
111Q110 107 109 103T107 93T105 79T117 65T168 60Q256 60 295 40Q344 16 344 -46Q344 -150 168 -150Q54 -150 24 -89Q15 -71 15 -51Q15 1 77 20V22ZM281 -18T261 -3T186 13T111 11Q78 -29 78 -53T92 -88Q121 -111 165 -111Q238 -111 259 -95T281 -49ZM250 230Q250
317 176 317Q136 317 118 296T100 241T105 193T122 168Q142 150 175 150T229 169T250 230Z" />
<glyph unicode="h" glyph-name="h" horiz-adv-x="455" d="M380 90Q380 64 386 34H437V4Q405 -4 373 -4T329 -2Q307 1 307 24L309 94V216Q309 303 277 314Q266 317 241 317T183 295T148 250V76Q148 47 154 38T188 24L191 -4Q143 0 109 0T34 -4L35 24Q63 28 69 34T75
48T76 67V468Q76 476 74 483Q62 487 46 487H13V517Q49 526 89 526T135 525T144 520T148 494V307Q199 356 276 356Q331 356 355 330T380 249V90Z" />
<glyph unicode="i" glyph-name="i" horiz-adv-x="214" d="M70 452Q66 461 66 477T79 505T112 518T145 505T158 471T145 438T112 425Q81 425 70 452ZM148 90Q148 64 154 34H202L206 4Q170 -4 123 -4T75 24L77 94V282Q77 297 75 309Q63 314 46 314H13V346Q37 352
83 352T148 346V90Z" />
<glyph unicode="j" glyph-name="j" horiz-adv-x="270" d="M63 346Q87 352 133 352T198 346V29Q198 -48 170 -86T94 -125T0 -111L15 -19Q23 -20 31 -22T51 -24Q51 -41 53 -55T56 -80Q63 -81 71 -83T92 -85Q113 -85 120 -54T127 35V282Q127 297 125 309Q113 314
96 314H63V346ZM117 491T129 504T162 518Q194 518 206 490Q209 482 209 466T195 438T162 425Q132 425 120 452Q117 461 117 476Z" />
<glyph unicode="k" glyph-name="k" horiz-adv-x="416" d="M190 -4Q144 0 110 0T34 -4L35 24Q63 28 69 34T75 48T76 67V466Q76 474 74 482Q59 487 45 487H13V516Q58 526 132 526Q143 518 145 509T148 488V175L237 260Q275 296 275 307Q274 313 262 314V346H407V314H395Q388
314 380 312L360 305Q349 302 339 292L224 190L348 48Q360 36 378 32T403 27T413 28L418 -5Q368 0 335 0Q295 0 251 -4V25Q267 25 267 31Q258 45 246 60L166 158L148 145V76Q148 48 154 39T188 24L190 -4Z" />
<glyph unicode="l" glyph-name="l" horiz-adv-x="213" d="M71 24L74 94V449Q74 467 70 483Q58 487 41 487H9V517Q43 526 90 526T144 517V90Q144 64 150 34H204V4Q168 -4 137 -4T93 -2Q71 1 71 24Z" />
<glyph unicode="m" glyph-name="m" horiz-adv-x="671" d="M522 24L524 94L523 221Q523 275 515 290T496 309T469 314Q423 314 388 271Q378 260 374 250V79Q374 49 380 40T418 24L421 -4Q381 0 338 0T260 -4L261 24Q289 28 295 34T302 47T303 66V221Q303 277 294
291Q281 314 250 314T191 293T155 250V79Q155 48 161 39T195 24L197 -4Q159 0 116 0T40 -4L41 24Q71 28 77 36T83 70V281Q83 298 80 309Q68 314 52 314H19V346Q43 352 89 352T153 346V303Q212 356 281 356T369 296Q393 323 412 334Q453 356 500 356Q596 356 596
251V90Q596 59 601 34H650L653 4Q617 -4 587 -4T544 -2Q522 1 522 24Z" />
<glyph unicode="n" glyph-name="n" horiz-adv-x="462" d="M315 218Q315 314 256 314Q231 314 202 297T155 257V79Q155 48 161 39T195 24L197 -4Q159 0 116 0T40 -4L41 24Q71 28 77 36T83 69V283Q83 300 80 309Q72 314 57 314H19V346Q43 352 89 352T153 346V304Q205
356 282 356Q327 356 356 330T386 249V90Q386 64 392 34H440L444 4Q410 -4 379 -4T340 -3Q313 1 313 24L315 97V218Z" />
<glyph unicode="o" glyph-name="o" horiz-adv-x="429" d="M393 89T343 41T215 -8T88 40T38 173T88 307T216 356T343 306T393 173ZM316 174Q316 317 215 317Q137 317 120 236Q115 209 115 174Q115 100 139 65T216 29T293 65T316 174Z" />
<glyph unicode="p" glyph-name="p" horiz-adv-x="443" d="M253 317Q196 317 148 269L145 98Q177 34 236 34Q331 34 331 175T253 317ZM9 346Q33 352 78 352T144 346V307Q191 356 260 356T368 310T407 177T363 41T258 -8T145 31V-80Q145 -112 151 -121T186 -134L188
-164Q151 -158 105 -158T30 -164L32 -134Q60 -130 67 -123T74 -89V279Q74 298 71 309Q59 314 41 314H9V346Z" />
<glyph unicode="q" glyph-name="q" horiz-adv-x="447" d="M302 317V346Q326 352 371 352T436 346V314H403Q385 314 374 309Q372 295 372 279V-89Q372 -116 378 -123T413 -134L414 -164Q386 -158 340 -158T257 -164L260 -134Q288 -130 294 -120T300 -78V31Q248
-8 187 -8T82 40T38 176T76 309T183 356T302 317ZM209 34Q262 34 297 71V279Q248 317 192 317Q151 317 133 282T114 175Q114 73 166 44Q184 34 209 34Z" />
<glyph unicode="r" glyph-name="r" horiz-adv-x="332" d="M23 346Q47 352 92 352T155 346V265Q186 313 202 327Q235 356 269 356T323 346L314 253H284L276 302Q258 304 248 304T221 295T190 270Q158 232 158 190V78Q158 46 164 37T198 24L201 -4Q153 0 119 0T43
-4L45 24Q75 28 80 35T86 69V286Q86 297 84 309Q72 314 61 314H23V346Z" />
<glyph unicode="s" glyph-name="s" horiz-adv-x="338" d="M114 356T183 356T286 334Q286 322 281 297T272 251L238 257Q237 272 237 284T235 305Q214 317 173 317T117 305T102 270T120 234T171 209L205 197Q285 170 302 130Q308 116 308 94Q308 46 268 19T168
-8T54 14Q39 20 31 26L47 113L82 109Q84 74 88 44Q116 29 168 29T236 62Q241 71 241 86T226 113T175 140L146 151Q90 172 71 188T46 219T39 256Q39 302 76 329Z" />
<glyph unicode="t" glyph-name="t" horiz-adv-x="298" d="M180 -4Q81 -4 81 100V305H13V323Q13 331 17 334T29 339L85 346L94 407Q97 428 102 438L108 454H153V346H260V328Q260 314 255 310T237 305H153V107Q153 48 181 38Q190 34 202 34T229 39Q230 50 231 61T234
83T237 104L281 107L284 16Q242 -4 180 -4Z" />
<glyph unicode="u" glyph-name="u" horiz-adv-x="452" d="M248 346Q272 352 317 352T378 346V90Q378 64 384 34H438V5Q398 -4 359 -4T311 2T301 27V38L274 20Q232 -8 173 -8Q75 -8 75 100V278Q75 296 71 310Q59 314 43 314H15V346Q39 352 84 352T146 346V118Q146
74 153 60Q167 34 207 34T292 62Q301 68 301 69Q307 102 307 178V278Q307 297 303 310Q291 314 275 314H248V346Z" />
<glyph unicode="v" glyph-name="v" horiz-adv-x="441" d="M3 346Q21 352 84 352T179 346L185 314H167Q149 314 140 309Q141 302 144 295T173 215T238 52L323 280Q326 288 328 295T332 309Q324 314 306 314H288L291 346Q310 352 364 352T440 346V314H421Q404 314
391 309Q379 295 335 186T281 55L254 -3H217Q200 -3 196 0T188 7L73 280L66 295Q62 302 57 309Q45 314 27 314H8L3 346Z" />
<glyph unicode="w" glyph-name="w" horiz-adv-x="638" d="M1 346Q18 352 79 352T174 346L179 314H161Q143 314 134 309L220 49L257 164Q265 187 272 211T293 276T312 336H331Q360 336 365 325L456 45L522 280Q524 288 524 295T528 309Q520 314 504 314H485L489
346Q509 352 561 352T638 346V314H620Q602 314 589 309Q577 276 565 243T542 178T520 118T502 66T487 25T477 -3H438Q410 -3 402 14Q400 20 398 28L326 238Q304 172 241 -3H202Q171 -3 166 12L70 280Q64 297 55 309Q42 314 24 314H6L1 346Z" />
<glyph unicode="x" glyph-name="x" horiz-adv-x="415" d="M297 309Q290 314 274 314H256L264 346Q286 352 341 352T412 346L401 314H386Q369 314 354 309L313 258Q305 248 296 238T279 219T264 201T252 187L330 74Q347 49 360 40T396 27L409 -4Q391 -1 372 -1L321
0Q269 0 245 -4L242 24Q271 28 271 38Q271 45 250 74L200 146L154 81Q130 49 130 39T154 24L143 -4Q127 0 78 0L34 -1Q24 -1 16 -2T4 -4L15 24Q50 28 60 35T78 52T96 74L177 172L99 280Q87 296 72 309Q57 314 40 314H29L20 346Q36 352 102 352Q168 352 200 346L205
314H187Q170 314 162 309Q166 302 172 295T183 280L230 215Q266 261 297 309Z" />
<glyph unicode="y" glyph-name="y" horiz-adv-x="441" d="M166 313Q145 313 138 308Q138 303 158 253T188 179L237 57L325 280Q327 288 329 295T334 309Q326 314 307 314H288L293 346Q312 352 365 352T441 346V314H423Q394 314 390 306Q389 304 387 298T379 282T368
255L228 -66Q192 -146 136 -160Q117 -164 88 -164T43 -154L51 -108Q74 -117 95 -117T128 -114T155 -96T197 -15L73 279Q69 287 66 294T57 308Q44 313 27 313H8L3 345Q24 352 87 352T179 345L185 313H166Z" />
<glyph unicode="z" glyph-name="z" horiz-adv-x="366" d="M36 347L84 346Q84 346 242 346Q297 346 302 345T313 340T319 320V294L99 35H234Q266 35 279 43L293 94Q301 95 309 95T326 94L328 38V-4Q288 0 254 0H45Q36 0 33 5T29 27V47L253 311H131Q99 311 85 303L71
252Q63 251 55 251T39 251L36 316V347Z" />
<glyph unicode="{" glyph-name="braceleft" horiz-adv-x="234" d="M132 520Q149 524 175 524T201 506V500Q157 498 147 489T134 468T132 441V304Q132 237 86 223Q132 208 132 141V6Q132 -23 138 -31Q154 -50 201 -54V-60Q201 -70 197 -74Q191 -75 184 -76T161
-78Q121 -78 100 -60T78 6V146Q78 201 34 216V235Q58 247 68 261T78 300V443Q78 509 132 520Z" />
<glyph unicode="|" glyph-name="bar" horiz-adv-x="390" d="M195 534Q214 534 220 519V-83H196Q182 -83 174 -79Q171 -40 171 -22V534H195Z" />
<glyph unicode="}" glyph-name="braceright" horiz-adv-x="234" d="M34 506Q34 524 61 524Q115 524 135 506T156 434V309Q156 282 164 269T200 245V216Q160 203 157 158Q156 143 156 124V6Q156 -63 102 -74Q85 -78 60 -78T34 -60V-54Q76 -52 87 -43T100 -22T103
6V120Q103 165 110 182Q121 213 148 223Q103 236 103 309V433Q103 477 91 486T34 500V506Z" />
<glyph unicode="~" glyph-name="asciitilde" horiz-adv-x="403" d="M276 180Q320 180 344 216Q362 194 365 182Q354 146 308 135Q296 132 283 132T256 136Q221 144 188 161T122 178T63 133Q46 150 38 166Q50 204 100 220Q113 225 124 225T149 222Q179 213 216
197T276 180Z" />
<glyph unicode="&#xa0;" glyph-name="uni00A0" horiz-adv-x="197" />
<glyph unicode="&#xa1;" glyph-name="exclamdown" horiz-adv-x="235" d="M99 365Q99 377 101 386Q94 389 84 389T69 386T64 370L56 215Q55 191 54 176T52 156V148Q64 139 80 139T103 145T109 158V166L99 365ZM91 487T83 487T68 484T57 477Q50 468 50 455T58 432T78
421T99 424T111 438T115 454T113 466T107 476T97 484Z" />
<glyph unicode="&#xa2;" glyph-name="cent" horiz-adv-x="403" d="M202 356Q168 343 148 308T128 213Q128 109 202 78V356ZM239 71Q295 71 335 117L360 104Q335 36 239 30V-25H224Q208 -25 205 -20T202 1V31Q133 38 94 83T55 203T94 328Q134 377 202 391V452H216Q231
452 235 446Q239 441 239 427V397Q244 398 247 398H256Q314 398 347 381Q355 377 359 371Q359 363 358 356L342 296L308 304Q296 330 280 343T239 359V71Z" />
<glyph unicode="&#xa3;" glyph-name="sterling" horiz-adv-x="407" d="M185 -2L50 0Q40 5 37 12T34 31Q80 45 99 66T119 125Q119 182 114 234H44V251Q44 264 48 267T64 270H109Q99 330 99 361T105 411T123 444T149 468T180 482T214 489T247 491Q286 491 325 484T377
461Q377 424 379 386L337 379Q322 434 279 445Q264 449 244 449Q206 449 188 426T169 368Q170 335 172 320L178 270H290V253Q290 239 286 237T269 234H182Q185 202 185 177Q185 104 144 39H235Q261 39 279 40T313 49Q341 62 361 111L388 100Q388 48 379 4Q337 -2
274 -2H185Z" />
<glyph unicode="&#xa4;" glyph-name="currency" horiz-adv-x="418" d="M119 366Q160 397 208 397T300 366L344 410Q355 399 361 392T368 378T367 371L331 335Q361 296 361 244T331 155L374 111Q352 89 343 85Q331 89 300 124Q258 94 209 94Q158 94 120 124L76
80Q54 100 49 110Q53 119 62 127L89 155Q59 193 59 245Q59 297 89 335L45 379Q53 386 60 394T76 405Q86 400 92 393L119 366ZM103 198T134 167T211 136T286 167T317 245T287 322T210 354Q165 354 134 323T103 245Z" />
<glyph unicode="&#xa5;" glyph-name="yen" horiz-adv-x="543" d="M284 220Q386 400 394 441Q386 444 361 444H337L344 479Q378 483 425 483T498 483T540 478L527 444H500Q475 444 463 441Q448 421 439 401L433 389Q406 337 360 265L321 200H398V187Q398 173 393
170T375 167H305V130H398V117Q398 104 393 100T374 97H305V84Q305 60 310 42Q320 39 344 39H374V-6Q275 6 163 -6V39H192Q216 39 227 42Q232 57 232 83V97H143V119Q152 130 176 130H232V164L230 167H143V189Q153 200 178 200H212L94 401Q86 414 82 423T72 441Q62
444 36 444H11L4 479Q36 483 85 483T162 483T214 478L218 444H194Q169 444 161 441Q161 432 174 410L284 220Z" />
<glyph unicode="&#xa6;" glyph-name="brokenbar" horiz-adv-x="184" d="M89 514Q110 514 115 498V245H95Q78 246 74 252T70 275V514H89ZM89 118Q110 118 115 103V-150H95Q78 -150 74 -144T70 -120V118H89Z" />
<glyph unicode="&#xa7;" glyph-name="section" horiz-adv-x="355" d="M268 140Q315 112 315 58Q315 8 278 -19T181 -46Q151 -46 110 -35T55 -8Q55 34 57 62L89 66Q102 26 124 10T192 -6T252 24Q257 34 257 47T250 70T228 88T194 106T152 125Q104 148 79 174T54
236T67 292T109 326Q65 358 65 406T100 481T205 508T298 483L286 414L255 420Q245 448 234 456Q217 469 186 469T139 456T122 420T138 382T195 349Q272 316 296 292T321 230Q321 166 268 140ZM225 162Q266 183 266 217Q266 248 193 283Q172 293 148 304Q109 284
109 249Q109 217 148 198T225 162Z" />
<glyph unicode="&#xa8;" glyph-name="dieresis" horiz-adv-x="293" d="M167 457T167 473T179 500T206 511Q220 511 228 503T240 488T244 473Q244 457 232 446T206 435Q191 435 182 443Q167 457 167 473ZM51 457T51 473T63 500T90 511Q104 511 112 503T124 488T128
473Q128 457 116 446T90 435Q75 435 66 443Q51 457 51 473Z" />
<glyph unicode="&#xa9;" glyph-name="copyright" horiz-adv-x="593" d="M216 258Q216 127 310 127Q354 126 390 150L394 116Q359 94 298 94T197 132T158 238T198 346T301 386T393 358L388 305H370Q345 355 298 356Q262 356 239 327T216 258ZM38 242Q38 348 114
424T297 500Q404 500 480 424Q528 376 547 310Q556 278 556 242Q556 172 522 112T428 17T297 -18Q191 -18 115 58T38 242ZM76 242Q76 149 140 85Q170 55 210 38T297 20Q343 20 383 37T454 85T502 155Q519 196 519 242Q519 333 455 398T297 463Q205 463 141 399T76
242Z" />
<glyph unicode="&#xaa;" glyph-name="ordfeminine" horiz-adv-x="265" d="M24 330Q24 399 139 399H170V418Q170 463 147 471Q140 474 130 474Q93 474 62 431Q35 446 31 450Q31 467 55 482T115 497Q173 497 195 476T218 416V318Q218 307 220 298Q229 295 254 295V276Q230
270 203 270T171 283L170 300Q135 267 96 267Q45 267 29 303Q24 315 24 330ZM136 374Q72 374 73 332Q73 317 83 309T114 300T166 320Q170 348 170 374H136Z" />
<glyph unicode="&#xab;" glyph-name="guillemotleft" horiz-adv-x="343" d="M295 57Q274 40 266 40T253 45L162 178Q163 187 174 205L248 311Q252 316 255 318T260 324H262Q267 324 270 323T282 318L300 310L222 183L295 57ZM188 46Q167 30 160 30T146 34L45 178Q48
192 57 205L141 322Q145 327 147 330L153 336Q163 336 174 328L192 321L105 183L188 46Z" />
<glyph unicode="&#xac;" glyph-name="logicalnot" horiz-adv-x="420" d="M354 85Q333 85 328 101V230H45V252Q45 270 51 274Q58 278 76 278H377V85H354Z" />
<glyph unicode="&#xad;" glyph-name="uni00AD" horiz-adv-x="300" d="M244 180Q244 162 228 158H57V188Q57 201 63 205Q70 209 84 209H244V180Z" />
<glyph unicode="&#xae;" glyph-name="registered" horiz-adv-x="593" d="M38 242Q38 348 114 424T297 500Q404 500 480 424Q528 376 547 310Q556 278 556 242Q556 172 522 112T428 17T297 -18Q191 -18 115 58T38 242ZM76 242Q76 149 140 85Q170 55 210 38T297
20Q343 20 383 37T454 85T502 155Q519 196 519 242Q519 333 455 398T297 463Q205 463 141 399T76 242ZM233 98Q212 98 172 94V120H194Q204 120 209 122Q212 130 212 146V328Q212 341 209 350Q205 351 201 351H168V370Q176 371 186 373T220 377T280 379Q349 379
378 360Q407 342 407 298Q408 238 340 218Q371 208 397 160L409 136Q413 130 415 125T421 119Q427 120 448 132L454 116Q425 92 401 92T370 111Q342 177 309 216Q285 216 260 217V146Q260 134 264 122Q270 120 284 120H301V94Q269 98 233 98ZM295 239Q357 239 357
296Q357 342 321 350Q308 353 291 353T260 351V239H295Z" />
<glyph unicode="&#xaf;" glyph-name="overscore" horiz-adv-x="197" d="M1 476H197V435H1V476Z" />
<glyph unicode="&#xb0;" glyph-name="degree" horiz-adv-x="280" d="M33 332T33 377T64 453T140 484T216 453T248 377Q248 332 216 301T140 270T65 301ZM70 348T91 328T140 307T189 327T210 377T190 427T140 448Q111 448 91 428T70 378Z" />
<glyph unicode="&#xb1;" glyph-name="plusminus" horiz-adv-x="420" d="M377 251Q376 230 360 225H234V100H211Q194 100 190 105T186 127V225H45V248Q45 265 50 269T72 273H186V399H209Q226 399 230 394T234 372V273H377V251ZM377 38Q376 17 360 12H45V34Q45 51
50 56Q55 60 71 60H377V38Z" />
<glyph unicode="&#xb2;" glyph-name="uni00B2" horiz-adv-x="298" d="M66 192Q51 192 47 203Q47 210 50 220Q158 326 178 357T198 413Q198 466 150 466Q126 466 112 456Q86 437 83 412L53 437Q59 474 115 488Q131 492 151 491Q192 491 217 469T242 411T211 337T93
222H174Q222 222 238 262L251 260Q250 226 248 198Q231 192 209 192H66Z" />
<glyph unicode="&#xb3;" glyph-name="uni00B3" horiz-adv-x="292" d="M211 274Q211 332 123 332H115V344Q115 351 117 356H128Q152 356 169 367Q201 389 201 415T187 454T156 468Q127 468 107 453T85 415L57 438Q61 463 86 477T138 491Q186 491 214 472T242 418T201
358Q187 350 169 347Q252 336 252 272Q252 233 225 210T148 187T68 212Q59 219 56 228L62 274L85 270Q85 239 103 226T143 212Q176 212 193 229T211 274Z" />
<glyph unicode="&#xb4;" glyph-name="acute" horiz-adv-x="410" d="M279 531Q233 482 177 424Q154 424 131 424Q145 447 155 464Q184 515 195 531H279Z" />
<glyph unicode="&#xb5;" glyph-name="mu" horiz-adv-x="508" d="M59 344Q102 353 182 353Q188 353 189 348T190 337V95Q190 64 199 52T220 36Q230 31 248 31Q279 31 307 45T344 69Q350 105 350 178V279Q350 298 346 312Q336 316 318 315H290V344Q333 353 414 353Q421
353 421 339V90Q421 52 428 34Q441 33 457 33H481V5Q443 -3 411 -3T370 -3T356 1Q345 7 344 27V38Q306 13 291 6Q234 -21 190 0V-40Q190 -62 194 -78Q205 -86 223 -86V-114Q200 -122 158 -122T116 -93L118 -23V279Q118 294 115 312Q105 316 87 315H59V344Z" />
<glyph unicode="&#xb6;" glyph-name="paragraph" horiz-adv-x="404" d="M161 200Q27 200 27 338Q27 405 73 435T219 465H267Q347 465 377 460V426H346Q322 426 312 422Q306 407 306 382V22Q306 -4 312 -19Q325 -23 346 -22H376V-68Q313 -62 259 -62V439H208V-62Q151
-62 91 -68V-22H121Q147 -22 155 -19Q161 -4 161 22V200Z" />
<glyph unicode="&#xb7;" glyph-name="middot" horiz-adv-x="185" d="M55 184T55 200T67 227T94 238Q108 238 116 230T128 215T132 200Q132 184 120 173T94 162Q79 162 70 170Q55 184 55 200Z" />
<glyph unicode="&#xb8;" glyph-name="cedilla" horiz-adv-x="232" d="M87 -62L70 -55L99 4H132L113 -32Q169 -34 184 -64Q189 -75 189 -93Q189 -129 165 -148T102 -167T43 -153Q41 -147 41 -140Q41 -132 43 -122Q70 -130 89 -130T121 -122T133 -97Q133 -66 99
-60L87 -62Z" />
<glyph unicode="&#xb9;" glyph-name="uni00B9" horiz-adv-x="236" d="M140 489Q148 489 153 482V245Q153 230 155 220Q162 218 176 218H195V190Q161 194 131 194T69 190V218H92Q102 218 107 220Q111 232 111 244V445Q102 452 91 452L79 451L60 447L56 466Q119
489 140 489Z" />
<glyph unicode="&#xba;" glyph-name="ordmasculine" horiz-adv-x="282" d="M259 382Q259 328 226 297Q193 267 142 267Q90 267 57 298Q24 328 24 382Q24 435 57 466T142 497Q193 497 226 466Q259 436 259 382ZM82 382Q82 293 142 293Q173 293 187 314T202 382Q202
428 188 449T142 471T97 450T82 382Z" />
<glyph unicode="&#xbb;" glyph-name="guillemotright" horiz-adv-x="343" d="M95 55Q90 48 83 41Q77 41 64 47L45 57L122 183L49 310L66 318Q80 324 86 324Q89 321 92 319T99 311L171 205Q181 192 183 178L95 55ZM203 43Q197 35 190 30Q175 30 153 46L239 183L156
321L172 328Q182 333 193 336L199 330Q202 327 205 322L287 205Q297 191 300 178L203 43Z" />
<glyph unicode="&#xbc;" glyph-name="onequarter" horiz-adv-x="574" d="M118 -8L382 493H400Q418 492 422 486Q417 475 405 454L158 -13H136Q122 -13 118 -8ZM47 466Q110 488 125 488T143 482V245Q143 230 146 220Q153 218 167 218H185V190Q151 194 122 194T59
190V218H82Q93 218 98 220Q102 232 102 244V445Q93 452 82 452L70 451L50 447L47 466ZM515 0Q483 4 454 4T391 0V28Q391 28 416 28Q426 28 430 29Q434 38 433 55V82H306Q298 88 298 100Q299 105 317 131T359 190Q423 282 437 295H454Q466 295 469 292T473 280V108H530V97Q530
87 526 84Q522 82 514 82H473V55Q473 40 476 29Q484 28 497 28H515V0ZM433 108V234V244L340 115L337 108H433Z" />
<glyph unicode="&#xbd;" glyph-name="onehalf" horiz-adv-x="601" d="M122 -8Q124 -2 387 493H405Q423 492 427 486Q423 478 419 471T410 454L163 -13H141Q126 -13 122 -8ZM47 466Q110 488 125 488T143 482V245Q143 230 146 220Q153 218 167 218H185V190Q151 194
122 194T59 190V218H82Q93 218 98 220Q102 232 102 244V445Q93 452 82 452L70 451L50 447L47 466ZM368 0Q353 0 349 10Q349 14 350 18T351 27Q457 131 483 168Q497 189 498 201T500 221Q500 273 452 274Q428 274 414 264Q388 246 384 219L355 244Q360 283 416 295Q432
299 453 299Q495 299 519 277T543 219T513 145T395 29H476Q524 29 540 70L553 67Q553 24 550 6Q533 0 510 0H368Z" />
<glyph unicode="&#xbe;" glyph-name="threequarters" horiz-adv-x="612" d="M450 493Q468 492 471 486Q464 470 453 452L208 -13H186Q171 -13 167 -8Q171 0 175 9T186 28L431 493H450ZM564 0Q532 4 503 4T440 0V28Q440 28 465 28Q475 28 479 29Q483 38 482 55V82H355Q346
88 346 100Q347 105 366 131T408 190Q467 274 485 295H503Q515 295 518 292T522 280V108H579V97Q579 87 576 85T563 82H522V55Q522 40 525 29Q533 28 546 28H564V0ZM482 108V234V244L389 115L386 108H482ZM78 270Q78 212 144 212Q170 212 187 229T204 274Q204 332
116 332H108V344Q108 351 110 356H121Q145 356 162 367Q194 389 194 421T163 464Q154 467 143 468Q120 468 101 454T78 415L50 438Q54 463 79 477T131 491Q180 491 207 472T234 418T194 358Q180 350 162 347Q245 336 245 272Q245 233 218 210T142 187T61 212Q52
219 49 228L50 236Q51 241 52 250T56 274L78 270Z" />
<glyph unicode="&#xbf;" glyph-name="questiondown" horiz-adv-x="329" d="M223 424Q197 424 188 445Q186 451 186 461T195 481Q211 495 231 487T251 460T242 432T223 424ZM204 351Q204 373 197 392H216Q234 381 244 361Q247 355 247 345T241 325Q230 308 209
288Q170 252 170 220Q170 197 181 183T213 169Q262 169 271 208H304Q304 171 272 152Q246 138 219 138Q171 138 145 160T118 222T162 299Q189 324 196 333T204 351Z" />
<glyph unicode="&#xd7;" glyph-name="multiply" horiz-adv-x="411" d="M328 375Q349 354 355 344Q352 338 341 326L237 222L358 100L344 85Q330 71 323 74Q317 77 309 87L206 190L85 69Q70 84 64 89T57 99Q61 108 70 118L174 222L53 343Q65 355 71 360T84 366H91Q92
366 94 365L206 253L328 375Z" />
<glyph unicode="&#xf7;" glyph-name="divide" horiz-adv-x="420" d="M379 190Q379 169 363 164H47V187Q47 203 52 208T73 213H379V190ZM158 57T171 69T204 82Q224 82 237 67T251 31Q251 11 238 0T203 -11T170 2T158 36ZM251 313Q251 261 204 261Q181 261 170 274T158
308T171 341T205 354Q226 354 238 341T251 313Z" />
</font>
</defs>
</svg>
