<?xml version="1.0" standalone="no"?>
<!DOCTYPE svg PUBLIC "-//W3C//DTD SVG 1.1//EN" "http://www.w3.org/Graphics/SVG/1.1/DTD/svg11.dtd">
<svg xmlns="http://www.w3.org/2000/svg">
<defs >
<font id="ArbutusSlab" horiz-adv-x="1283" ><font-face
    font-family="Arbutus Slab"
    units-per-em="2048"
    panose-1="2 0 0 0 0 0 0 0 0 0"
    ascent="2010"
    descent="-550"
    alphabetic="0" />
<glyph unicode=" " glyph-name="space" horiz-adv-x="683" />
<glyph unicode="!" glyph-name="exclam" horiz-adv-x="585" d="M249 448Q236 573 220 699Q162 1175 153 1448Q150 1520 294 1520Q399 1520 428 1488Q441 1473 440 1448Q431 1168 396 871T347 448H249ZM138 134Q138 198 183 243T292 288Q356 288 401 243T446 134Q446
70 401 25T292 -20Q228 -20 183 25T138 134Z" />
<glyph unicode="&quot;" glyph-name="quotedbl" horiz-adv-x="1136" d="M486 1321Q483 1348 483 1369Q483 1433 503 1468Q533 1520 615 1520T731 1464Q749 1435 749 1394T735 1301L631 895Q620 857 582 857Q563 857 549 870T533 905L486 1321ZM659 1321Q656 1348
656 1369Q656 1433 676 1468Q706 1520 788 1520T904 1464Q922 1435 922 1394T908 1301L804 895Q793 857 755 857Q736 857 722 870T706 905L659 1321Z" />
<glyph unicode="#" glyph-name="numbersign" horiz-adv-x="1703" d="M237 560H517L559 920H252L277 1110H581L627 1500H771L725 1110H1081L1127 1500H1271L1225 1110H1511L1487 920H1203L1162 560H1471L1447 370H1140L1097 0H952L995 370H640L597 0H452L495 370H212L237
560ZM1017 560L1059 920H703L662 560H1017Z" />
<glyph unicode="$" glyph-name="dollar" horiz-adv-x="1262" d="M636 -20L595 -19L559 -356H460L497 -9Q330 16 230 98T129 286T220 432Q248 445 280 445Q344 445 384 403T425 296T366 187Q414 138 510 114L563 609Q384 709 319 774T220 906T186 1058Q186 1225
321 1332T649 1440H652L687 1772H786L750 1433Q913 1409 1010 1322T1107 1118Q1107 1052 1067 1008T964 963Q904 963 863 1003T821 1111T889 1222Q853 1295 737 1314L686 834L710 822Q899 716 974 649T1088 514T1128 359Q1128 184 991 82T636 -20ZM639 1319Q485
1312 428 1214Q408 1179 408 1137Q408 1064 457 1004T593 888L639 1319ZM608 101Q617 100 626 100H646Q820 100 882 204Q905 241 905 289Q905 372 842 432T657 559L608 101Z" />
<glyph unicode="%" glyph-name="percent" horiz-adv-x="1850" d="M475 780Q327 780 224 882T120 1152T221 1420T475 1520Q627 1520 728 1421T830 1153T727 882T475 780ZM1261 1500H1405L581 0H436L1261 1500ZM475 1414Q326 1414 326 1152Q326 1010 369 948T475
886Q574 886 610 1023Q624 1076 624 1152Q624 1287 583 1350T475 1414ZM1020 521T1121 620T1375 720Q1527 720 1628 621T1730 353T1627 82T1375 -20Q1227 -20 1124 82T1020 352ZM1226 352Q1226 210 1269 148T1375 86Q1474 86 1510 223Q1524 276 1524 352Q1524 487
1483 550T1375 614Q1226 614 1226 352Z" />
<glyph unicode="&amp;" glyph-name="ampersand" horiz-adv-x="1675" d="M963 123Q805 -20 589 -20T242 99T110 411Q110 540 205 654T458 829Q360 991 340 1063T319 1193Q319 1324 415 1422T671 1520Q892 1520 988 1382Q1027 1327 1027 1253Q1027 1028 708 814Q855
580 1020 365Q1117 506 1164 678Q1170 699 1170 726T1139 782T1023 815L1016 913H1533L1540 815Q1404 804 1344 718Q1324 691 1246 536T1094 275Q1209 142 1282 107Q1314 92 1352 92Q1432 92 1472 146Q1427 154 1401 187T1374 271T1416 362T1501 402T1569 390Q1643
355 1643 276Q1643 135 1550 58T1333 -20Q1111 -20 963 123ZM647 915Q748 996 791 1066T834 1225Q834 1311 782 1363T661 1415Q591 1415 558 1361T525 1227T571 1056T647 915ZM516 734Q340 625 340 427Q340 289 423 204T636 119T883 213Q696 446 516 734Z" />
<glyph unicode="&apos;" glyph-name="quotesingle" horiz-adv-x="706" d="M233 1321Q230 1348 230 1369Q230 1433 250 1468Q280 1520 362 1520T478 1464Q496 1435 496 1394T482 1301L378 895Q367 857 329 857Q310 857 296 870T280 905L233 1321Z" />
<glyph unicode="(" glyph-name="parenleft" horiz-adv-x="822" d="M377 681Q377 14 743 -367L684 -447Q518 -350 392 -154Q221 113 174 470Q159 579 159 681Q159 1007 290 1321Q379 1532 524 1682Q597 1758 684 1809L743 1729Q377 1348 377 681Z" />
<glyph unicode=")" glyph-name="parenright" horiz-adv-x="822" d="M445 681Q445 14 79 -367L138 -447Q304 -350 430 -154Q601 113 648 470Q663 579 663 681Q663 1007 532 1321Q443 1532 298 1682Q225 1758 138 1809L79 1729Q445 1348 445 681Z" />
<glyph unicode="*" glyph-name="asterisk" horiz-adv-x="1030" d="M859 1029L706 1040Q675 1040 644 1030Q589 1012 617 966T701 890T786 842Q857 800 857 739T812 644T743 610Q642 610 614 716Q605 748 592 811T552 909Q510 955 480 912T432 782T385 652T310
610T235 632Q182 670 175 714T191 792T243 843T325 891T408 960Q439 1013 386 1031Q357 1040 327 1040L173 1028Q85 1028 52 1091Q42 1112 42 1136T50 1186Q68 1240 108 1260Q176 1293 249 1234Q275 1213 322 1170T412 1113Q439 1108 455 1115T472 1156Q472 1203
434 1286T395 1414T426 1491T515 1523Q573 1523 604 1491T635 1420Q635 1370 597 1287T558 1156Q565 1094 613 1110T708 1169T780 1234T833 1264Q883 1281 922 1260T975 1200T988 1136T973 1082Q946 1029 859 1029Z" />
<glyph unicode="+" glyph-name="plus" horiz-adv-x="1360" d="M596 598H127V761H596V1230H759V761H1228V598H759V129H596V598Z" />
<glyph unicode="," glyph-name="comma" horiz-adv-x="683" d="M175 232T227 279T332 326Q425 326 475 270T526 122Q526 -64 411 -211T119 -387L71 -318Q158 -289 216 -243Q322 -158 322 -69Q322 -14 277 17Q255 33 236 46T204 76Q175 108 175 170Z" />
<glyph unicode="-" glyph-name="hyphen" horiz-adv-x="995" d="M120 611H875V448H120V611Z" />
<glyph unicode="." glyph-name="period" horiz-adv-x="684" d="M192 130Q192 194 238 238T348 283Q412 283 458 239T504 130Q504 67 459 24T348 -20Q283 -20 238 23T192 130Z" />
<glyph unicode="/" glyph-name="slash" horiz-adv-x="1021" d="M757 1608H911L287 -148H132L757 1608Z" />
<glyph unicode="0" glyph-name="zero" horiz-adv-x="1458" d="M729 -20Q474 -20 309 185T144 760T321 1336Q479 1520 729 1520Q979 1520 1137 1336Q1314 1129 1314 760T1149 186T729 -20ZM729 100Q856 100 941 227Q1048 388 1048 737T959 1243T729 1400Q508 1400
436 1056Q410 934 410 780T424 524T462 348Q504 214 576 157T729 100Z" />
<glyph unicode="1" glyph-name="one" horiz-adv-x="816" d="M110 110Q226 110 259 128T302 167T312 217V1080Q312 1152 300 1174T231 1196H100V1306Q221 1306 305 1369T389 1498L533 1500L532 217Q532 154 559 138Q604 110 733 110V0H110V110Z" />
<glyph unicode="2" glyph-name="two" horiz-adv-x="1200" d="M344 1254Q417 1214 417 1141T376 1027T290 986Q211 986 170 1033T128 1146Q128 1282 274 1401T630 1520T960 1403T1082 1080T891 697Q806 618 693 536T519 405Q379 290 321 190H759Q904 190 950 235Q974
259 987 298T1016 394H1129L1079 0H144V120Q144 266 364 464Q530 615 605 690Q837 922 837 1143Q837 1271 770 1337T589 1404T390 1322Q361 1293 344 1254Z" />
<glyph unicode="3" glyph-name="three" horiz-adv-x="1217" d="M398 1275Q463 1237 463 1153T381 1034Q356 1023 326 1023Q268 1023 230 1067T191 1175Q191 1303 320 1411T639 1520T962 1416T1095 1134T936 836Q892 803 847 780Q973 735 1054 636T1135 428Q1135
222 984 101T622 -20T272 83Q210 128 176 184T142 284Q142 364 183 410T286 457Q377 457 412 374Q422 349 422 321Q422 250 363 208Q416 106 582 106Q707 106 798 186T890 417Q890 528 802 614T583 700H497V840H551Q683 840 766 925T850 1140T778 1332T600 1394T432
1328Q410 1306 398 1275Z" />
<glyph unicode="4" glyph-name="four" horiz-adv-x="1254" d="M75 552L778 1500H958V610Q958 556 988 552Q999 550 1013 550H1171V431H1008Q977 431 968 419T958 367V213Q958 150 984 135Q1028 108 1148 108V0H509V108Q664 108 694 123T731 161T738 222V431H148L75
552ZM737 550L738 521V1207L259 550H737Z" />
<glyph unicode="5" glyph-name="five" horiz-adv-x="1239" d="M338 683L172 687L252 1500H1119Q1120 1489 1120 1462T1105 1408Q1074 1355 1018 1328T862 1300H385L331 844Q418 944 564 978Q612 990 663 990Q887 990 1005 849T1123 504Q1123 257 967 119T601 -20T261
78T130 289T216 444Q242 457 272 457Q333 457 371 417T410 312T350 207Q404 96 570 96Q694 96 781 195T868 464T798 731T583 830T338 683Z" />
<glyph unicode="6" glyph-name="six" horiz-adv-x="1273" d="M382 758Q506 932 740 932Q815 932 896 899T1040 807Q1173 679 1173 479T1040 130T690 -20Q405 -20 261 206Q139 397 139 686Q139 1079 305 1299T722 1520Q900 1520 1011 1433T1122 1231T1036 1076Q1009
1063 979 1063Q919 1063 881 1103T842 1199Q842 1284 918 1321Q876 1394 752 1394Q594 1394 486 1256T377 889Q377 843 382 758ZM415 475Q415 400 443 319T504 194Q572 105 672 105Q777 105 853 203T929 462T859 712T676 803T489 714T415 475Z" />
<glyph unicode="7" glyph-name="seven" horiz-adv-x="1151" d="M426 40T415 77T403 186T424 353T481 543T565 737T666 929T774 1118T881 1300H479Q298 1300 253 1198Q238 1164 230 1118L220 1055L93 1053L162 1500H1029L1085 1371Q795 958 707 554Q672 393 658
259T630 77T593 5T537 -20T483 -12T444 18Z" />
<glyph unicode="8" glyph-name="eight" horiz-adv-x="1250" d="M409 794Q196 945 196 1129T327 1417T638 1520T940 1421T1063 1148Q1063 1044 1003 945T842 796Q980 715 1033 651T1111 528T1135 390Q1135 223 997 102T626 -20T258 88T122 401T299 732Q351 769
409 794ZM733 857Q877 934 877 1147Q877 1327 743 1386Q700 1405 650 1405Q550 1405 487 1347T423 1212T449 1087T527 990T733 857ZM517 724Q330 650 330 383Q330 271 407 188T610 105T813 168T891 343Q891 497 652 642Q585 682 517 724Z" />
<glyph unicode="9" glyph-name="nine" horiz-adv-x="1273" d="M906 741Q777 568 563 568Q379 568 247 694T115 1021T248 1370T598 1520Q883 1520 1027 1294Q1149 1103 1149 814Q1149 421 983 201T566 -20Q389 -20 278 63T166 255T252 404Q278 417 308 417Q369
417 407 377T446 281Q446 198 376 161Q423 106 522 106Q706 106 808 242T911 611Q911 658 906 741ZM722 697T796 793T870 1050T795 1303T615 1395T435 1297T359 1038T429 788T610 697Z" />
<glyph unicode=":" glyph-name="colon" horiz-adv-x="684" d="M192 130Q192 194 238 238T348 283Q412 283 458 239T504 130Q504 67 459 24T348 -20Q283 -20 238 23T192 130ZM192 809Q192 873 238 917T348 962Q412 962 458 918T504 809Q504 746 459 703T348 659Q283
659 238 702T192 809Z" />
<glyph unicode=";" glyph-name="semicolon" horiz-adv-x="684" d="M192 809Q192 873 238 917T348 962Q412 962 458 918T504 809Q504 746 459 703T348 659Q283 659 238 702T192 809ZM175 232T227 279T332 326Q425 326 475 270T526 122Q526 -64 411 -211T119 -387L71
-318Q158 -289 216 -243Q322 -158 322 -69Q322 -14 277 17Q255 33 236 46T204 76Q175 108 175 170Z" />
<glyph unicode="&lt;" glyph-name="less" horiz-adv-x="1536" d="M119 682L1230 1263V1089L422 659L1230 230V56L119 637V682Z" />
<glyph unicode="=" glyph-name="equal" horiz-adv-x="1360" d="M127 984H1228V821H127V984ZM127 537H1228V374H127V537Z" />
<glyph unicode="&gt;" glyph-name="greater" horiz-adv-x="1536" d="M1385 707L274 1288V1114L1082 684L274 255V81L1385 662V707Z" />
<glyph unicode="?" glyph-name="question" horiz-adv-x="1045" d="M415 495Q415 622 494 729Q528 775 567 817Q719 981 719 1179Q719 1338 587 1382Q548 1395 508 1395Q426 1395 358 1362T263 1264Q312 1250 341 1210T371 1109T333 1003T217 959Q109 959 67 1058Q51
1094 51 1150T79 1273T169 1396Q306 1520 504 1520T826 1412T950 1129T750 767Q625 650 582 582T534 450H415V495ZM333 134Q333 198 378 243T487 288Q551 288 596 243T641 134Q641 70 596 25T487 -20Q423 -20 378 25T333 134Z" />
<glyph unicode="@" glyph-name="at" horiz-adv-x="1989" d="M1631 -86Q1412 -280 1084 -280Q671 -280 415 -46T158 567Q158 851 281 1067T621 1401T1101 1518Q1469 1518 1669 1307Q1849 1117 1849 816Q1848 575 1725 390T1388 205Q1258 205 1202 301Q1184 332
1180 373Q1127 295 1052 250T900 205Q766 205 704 295T641 479T657 645T703 778Q762 905 865 984T1079 1063T1257 994L1271 1054H1463L1341 535Q1329 476 1329 432Q1329 315 1424 315Q1545 315 1628 463T1712 786Q1712 1103 1554 1249T1115 1395Q789 1395 587 1161T384
561Q384 256 578 51T1102 -154Q1334 -154 1506 -50Q1555 -21 1586 11L1631 -86ZM1236 910Q1195 957 1131 957Q1015 957 935 805T854 494T956 335Q1131 335 1236 910Z" />
<glyph unicode="A" glyph-name="A" horiz-adv-x="1581" d="M-11 110Q72 110 114 135T180 219L720 1500H891L1385 219Q1412 155 1445 133T1574 110V0H957V110Q1089 110 1113 128T1137 167T1123 219L1033 470H452L349 219Q326 159 363 135T536 110V0H-11V110ZM994
580L762 1228L497 580H994Z" />
<glyph unicode="B" glyph-name="B" horiz-adv-x="1363" d="M959 790Q1291 703 1291 421Q1291 304 1256 239T1176 133Q1032 0 680 0H73V110Q178 110 204 128T235 168T240 219V1281Q240 1346 218 1362Q178 1390 72 1390V1500H629Q1034 1500 1160 1308Q1210 1232
1210 1131Q1210 893 959 790ZM601 822Q881 828 942 986Q962 1038 962 1102Q962 1237 883 1313T610 1390H465V822H601ZM661 110Q959 110 1023 304Q1042 361 1042 428Q1042 566 938 647T651 732Q630 732 608 732T563 732H465V110H661Z" />
<glyph unicode="C" glyph-name="C" horiz-adv-x="1491" d="M798 110Q1113 110 1196 400H1340Q1340 322 1298 247T1180 112Q1012 -20 748 -20T296 156Q78 359 78 750Q78 1062 246 1276Q365 1429 563 1489Q665 1520 787 1520Q1028 1520 1183 1410T1338 1132Q1338
1007 1240 964Q1211 951 1177 951Q1072 951 1036 1040Q1025 1068 1025 1106T1047 1182T1105 1240Q1024 1395 815 1395T475 1237T344 761T477 277T798 110Z" />
<glyph unicode="D" glyph-name="D" horiz-adv-x="1504" d="M72 110Q178 110 204 128T235 168T240 219V1281Q240 1346 218 1362Q178 1390 72 1390V1500H609Q1255 1500 1386 1076Q1426 944 1426 793T1396 527T1312 324Q1209 157 1030 79T629 0H72V110ZM651 111Q1165
111 1165 781Q1165 1067 1023 1233T600 1400H465V111H651Z" />
<glyph unicode="E" glyph-name="E" horiz-adv-x="1337" d="M71 110Q168 110 196 128T232 166T240 217V1281Q240 1343 203 1366T72 1390V1500H1160L1199 1137L1054 1136L1027 1249Q1007 1330 986 1351Q949 1388 861 1388H465V806H659Q772 806 797 821T832 864T842
945H972V558H842Q842 651 806 673T659 696H465V110H890Q1006 110 1044 188Q1056 212 1068 238L1113 361H1258L1219 0H71V110Z" />
<glyph unicode="F" glyph-name="F" horiz-adv-x="1272" d="M72 110Q178 110 204 128T235 168T240 219V1281Q240 1343 203 1366T72 1390V1500H1140L1179 1137L1034 1136L1007 1249Q987 1330 966 1351Q929 1388 841 1388H465V806H649Q762 806 787 821T822 864T832
945H962V558H832Q832 651 796 673T649 696H465V269Q465 218 472 187T522 133T779 110V0H72V110Z" />
<glyph unicode="G" glyph-name="G" horiz-adv-x="1546" d="M134 388T106 499T78 727T96 938T153 1118Q234 1301 400 1410T808 1520T1211 1400T1372 1107Q1372 989 1278 948Q1249 935 1216 935Q1152 935 1112 975T1072 1068Q1072 1174 1157 1214Q1117 1298 1021
1346T824 1395Q611 1395 477 1236T342 760T482 276T822 110Q985 110 1074 192T1164 372T1119 496T913 522V655H1371V0H1237L1200 120Q1114 30 934 -6Q868 -20 784 -20T614 -2T448 56T302 156T184 302Z" />
<glyph unicode="H" glyph-name="H" horiz-adv-x="1675" d="M72 110Q167 110 196 128T233 168T241 219L240 1281Q240 1346 218 1362Q178 1390 72 1390V1500H634V1390Q539 1390 510 1372T473 1332T465 1281V834H1210V1281Q1210 1346 1188 1362Q1148 1390 1042 1390V1500H1604V1390Q1509
1390 1480 1372T1443 1332T1435 1281L1436 219Q1436 154 1458 138Q1498 110 1604 110V0H1042V110Q1137 110 1166 128T1203 168T1211 219L1210 704H465L466 219Q466 154 488 138Q528 110 634 110V0H72V110Z" />
<glyph unicode="I" glyph-name="I" horiz-adv-x="722" d="M81 110Q176 110 205 128T242 168T250 219L249 1281Q249 1346 226 1362Q187 1390 81 1390V1500H643V1390Q548 1390 519 1372T482 1332T474 1281L475 219Q475 154 498 138Q537 110 643 110V0H81V110Z" />
<glyph unicode="J" glyph-name="J" horiz-adv-x="1278" d="M522 107Q799 107 799 515V1281Q799 1346 772 1362Q723 1390 592 1390V1500H1192V1390Q1097 1390 1068 1372T1031 1332T1023 1281L1024 514Q1024 119 747 14Q657 -20 548 -20Q342 -20 213 86T83 347Q83
430 130 482T246 535T358 490T401 388T373 290T301 232Q325 174 386 141T522 107Z" />
<glyph unicode="K" glyph-name="K" horiz-adv-x="1562" d="M896 110Q1113 115 1018 261L711 752L465 513L466 219Q466 154 488 138Q526 110 632 110V0H72V110Q167 110 196 128T233 168T241 219L240 1281Q240 1346 218 1362Q178 1390 72 1390V1500H632V1390Q537
1390 509 1372T473 1332T465 1281V683L1060 1279Q1115 1332 1074 1361T938 1390V1500H1473V1390Q1406 1386 1363 1365T1269 1293L858 894L1272 259Q1322 179 1378 145T1510 110Q1517 110 1523 110V0H896V110Z" />
<glyph unicode="L" glyph-name="L" horiz-adv-x="1276" d="M72 110Q167 110 196 128T233 168T241 219L240 1281Q240 1346 218 1362Q178 1390 72 1390V1500H635V1390Q540 1390 511 1372T474 1332T466 1281V116H811Q971 116 1031 291L1071 404L1209 403L1140 0H72V110Z" />
<glyph unicode="M" glyph-name="M" horiz-adv-x="1970" d="M82 110Q176 110 205 128T242 168T250 219V1281Q250 1346 228 1362Q188 1390 82 1390V1500H554L997 343L1422 1500H1889V1390Q1794 1390 1765 1372T1728 1332T1720 1281V219Q1720 155 1743 138Q1783 110
1889 110V0H1334V110Q1428 110 1455 128T1490 168T1497 219V1286L1033 0H922L410 1287V219Q410 154 432 138Q472 110 578 110V0H82V110Z" />
<glyph unicode="N" glyph-name="N" horiz-adv-x="1650" d="M67 112Q165 112 194 131T231 171T240 223V1277Q240 1342 216 1359Q176 1388 67 1388V1500H412L1270 411V1277Q1270 1343 1247 1359Q1207 1388 1099 1388V1500H1603V1388Q1505 1388 1476 1369T1439 1329T1430
1277V0H1307L400 1151V223Q400 158 424 141Q464 112 574 112V0H67V112Z" />
<glyph unicode="O" glyph-name="O" horiz-adv-x="1570" d="M78 750Q78 940 136 1087T292 1331Q485 1520 785 1520T1278 1334Q1492 1129 1492 755T1296 181T785 -20Q472 -20 275 183T78 750ZM788 110Q963 110 1082 240Q1232 404 1232 739T1104 1232T782 1390Q589
1390 464 1233T338 760Q338 307 586 163Q677 110 788 110Z" />
<glyph unicode="P" glyph-name="P" horiz-adv-x="1270" d="M73 110Q178 110 204 128T235 168T240 219V1281Q240 1346 218 1362Q178 1390 72 1390V1500H619Q1029 1500 1152 1272Q1201 1182 1201 1055T1150 834Q1011 584 596 584Q577 584 558 585H465V269Q465 218
470 187T510 133T720 110V0H73V110ZM576 685Q762 685 861 777T960 1057Q960 1285 770 1362Q702 1390 605 1390H465V685H576Z" />
<glyph unicode="Q" glyph-name="Q" horiz-adv-x="1570" d="M935 -6Q863 -20 785 -20Q471 -20 275 182T78 755T292 1334Q483 1520 783 1520T1278 1336Q1492 1133 1492 757T1284 174Q1219 108 1138 64Q1185 -126 1244 -178Q1268 -199 1300 -199Q1360 -199 1392 -151T1424
-39H1522Q1531 -67 1531 -100T1522 -165Q1502 -240 1442 -291T1290 -343Q1134 -343 1048 -238Q987 -164 935 -6ZM1084 248Q1232 424 1232 754T1105 1237T785 1390Q592 1390 465 1232T338 760Q338 390 507 221Q523 327 595 412T783 498Q950 498 1038 344Q1064 299
1084 248ZM612 148Q754 80 909 129Q861 360 748 360Q686 360 651 304T612 148Z" />
<glyph unicode="R" glyph-name="R" horiz-adv-x="1475" d="M1286 124Q1364 124 1364 304H1460Q1471 268 1471 241T1470 183T1446 100Q1391 -20 1240 -20T1028 56T940 210T898 348Q852 509 824 558Q773 652 685 652H465V269Q465 218 470 187T505 133T692 110V0H73V110Q178
110 204 128T235 168T240 219V1281Q240 1346 218 1362Q178 1390 72 1390V1500H686Q1178 1500 1233 1196Q1242 1146 1242 1079Q1242 935 1152 834T905 687Q1040 646 1106 471Q1128 414 1154 324T1196 200Q1231 124 1286 124ZM688 752Q859 752 930 834T1001 1072T918
1309T627 1390H465V752H688Z" />
<glyph unicode="S" glyph-name="S" horiz-adv-x="1187" d="M840 1330Q788 1400 618 1400T382 1286Q360 1247 360 1190Q360 1085 454 998Q516 940 625 879T810 770Q1093 590 1093 376Q1093 186 954 83T593 -20T238 67T104 268T195 422Q223 435 256 435Q319 435
359 393T400 287T342 178Q420 100 600 100T848 222Q872 264 872 320Q872 417 772 500Q720 543 597 611T402 726Q141 894 141 1122Q141 1300 275 1410T608 1520T934 1435T1062 1228Q1062 1162 1022 1118T919 1073Q824 1073 787 1156Q776 1181 776 1209Q776 1286
840 1330Z" />
<glyph unicode="T" glyph-name="T" horiz-adv-x="1377" d="M367 110Q480 110 517 128T565 168T576 219V1384H371Q206 1384 182 1209L153 1006L8 1007L52 1500H1325L1369 1007L1224 1006L1195 1209Q1184 1290 1152 1324Q1094 1384 1006 1384H801V219Q801 156 842
133T1010 110V0H367V110Z" />
<glyph unicode="U" glyph-name="U" horiz-adv-x="1603" d="M815 126Q1212 126 1212 619V1281Q1212 1346 1190 1362Q1150 1390 1044 1390V1500H1552V1390Q1457 1390 1428 1372T1391 1332T1383 1281L1384 630Q1384 139 1036 18Q925 -20 822 -20T650 -6T516 41Q376
111 293 253T210 620V1281Q210 1345 188 1362Q151 1390 52 1390V1500H612V1390Q511 1390 481 1372T442 1332T433 1281V599Q433 358 542 242T815 126Z" />
<glyph unicode="V" glyph-name="V" horiz-adv-x="1485" d="M144 1281Q117 1345 84 1367T-45 1390V1500H583V1390Q450 1390 426 1372T403 1333T417 1281L792 294L1170 1281Q1193 1341 1156 1365T983 1390V1500H1530V1390Q1447 1390 1405 1365T1339 1281L819 0H688L144
1281Z" />
<glyph unicode="W" glyph-name="W" horiz-adv-x="2081" d="M122 1281Q99 1344 68 1367T-45 1390V1500H540V1390Q408 1390 385 1372T363 1333T374 1281L656 356L1018 1500H1149L1518 360L1793 1281Q1798 1299 1798 1323T1762 1369T1609 1390V1500H2126V1390Q2051
1390 2011 1366T1952 1281L1542 0H1412L1042 1095L686 0H569L122 1281Z" />
<glyph unicode="X" glyph-name="X" horiz-adv-x="1577" d="M70 110Q213 110 291 219L674 742L329 1281Q293 1337 240 1363T90 1390V1500H695V1390Q593 1390 577 1365T597 1281L843 895L1095 1281Q1132 1337 1104 1363T958 1390V1500H1485V1390Q1335 1390 1264
1281L925 767L1276 219Q1309 165 1363 138T1515 110V0H910V110Q1012 110 1029 134T1008 219L755 614L460 219Q399 138 499 118Q535 110 597 110V0H70V110Z" />
<glyph unicode="Y" glyph-name="Y" horiz-adv-x="1365" d="M386 110Q499 110 535 128T582 168T593 219L592 503L174 1281Q140 1342 105 1360Q46 1390 -45 1390V1500H534V1390Q438 1390 422 1366T436 1281L733 671L1045 1281Q1077 1342 1058 1359Q1024 1390 893
1390V1500H1410V1390Q1336 1390 1289 1365T1209 1281L807 542V219Q807 156 847 133T1013 110V0H386V110Z" />
<glyph unicode="Z" glyph-name="Z" horiz-adv-x="1312" d="M98 120L947 1378H474Q369 1378 323 1312T277 1089L127 1090L147 1500H1211V1380L362 122H863Q1090 122 1090 444H1243L1193 0H98V120Z" />
<glyph unicode="[" glyph-name="bracketleft" horiz-adv-x="814" d="M240 1760H735V1650H437V-290H735V-400H240V1760Z" />
<glyph unicode="\" glyph-name="backslash" horiz-adv-x="1021" d="M264 1608H110L734 -148H889L264 1608Z" />
<glyph unicode="]" glyph-name="bracketright" horiz-adv-x="814" d="M574 1760H79V1650H377V-290H79V-400H574V1760Z" />
<glyph unicode="^" glyph-name="asciicircum" horiz-adv-x="1529" d="M704 1608H824L1286 605L1132 542L764 1358L396 542L242 605L704 1608Z" />
<glyph unicode="_" glyph-name="underscore" horiz-adv-x="1429" d="M1431 -190V-320H-18V-190H1431Z" />
<glyph unicode="`" glyph-name="grave" horiz-adv-x="0" d="M92 1265Q95 1254 95 1240T82 1210T44 1194Q-8 1194 -45 1255L-175 1471Q-216 1540 -216 1590Q-216 1690 -101 1690Q-37 1690 -9 1647T42 1501L92 1265Z" />
<glyph unicode="a" glyph-name="a" horiz-adv-x="1172" d="M955 239Q955 120 1002 120Q1047 120 1068 150T1089 261H1194Q1195 248 1195 220Q1195 130 1150 64Q1095 -20 975 -20Q897 -20 842 24T766 140Q621 -20 399 -20Q277 -20 187 51T96 251Q96 473 424 579Q632
645 673 670T726 722T739 782Q739 841 681 880T530 920T366 870Q416 833 416 775T378 682T285 647T195 680T159 772Q159 889 277 961T564 1034Q866 1034 933 838Q955 773 955 688V239ZM426 450T382 391T338 261T376 155T471 119Q587 119 663 200T739 428V582Q675
549 604 522T514 488Q426 450 382 391Z" />
<glyph unicode="b" glyph-name="b" horiz-adv-x="1234" d="M381 117Q338 76 338 0H190V1291Q190 1363 178 1385T109 1407H38V1517Q135 1517 190 1531T269 1552T320 1559Q373 1559 389 1529T406 1431V895Q513 1034 712 1034T1029 907T1147 531T1025 132T682 -20Q501
-20 381 117ZM401 312T470 206T659 100Q777 100 845 209T914 498Q914 785 778 880Q729 913 663 913T548 881T468 793Q401 678 401 495Z" />
<glyph unicode="c" glyph-name="c" horiz-adv-x="1053" d="M766 849Q708 919 604 919Q409 919 350 697Q330 619 330 510Q330 307 408 204T603 101Q689 101 749 151T832 294H969Q969 170 860 75T563 -20T244 97Q90 234 90 500Q90 717 218 875T596 1034Q759 1034
868 955T977 751Q977 690 938 649T837 607Q750 607 717 688Q707 712 707 741Q707 810 766 849Z" />
<glyph unicode="d" glyph-name="d" horiz-adv-x="1218" d="M857 158Q738 -20 533 -20T208 115T87 478Q87 758 210 896T549 1034Q712 1034 828 922V1291Q828 1362 814 1384T743 1407H672V1517Q771 1517 827 1531T907 1552T958 1559Q1011 1559 1027 1529T1044 1431V266Q1044
169 1052 146Q1069 102 1134 102Q1167 102 1191 113V16Q1143 -20 1061 -20Q897 -20 857 158ZM454 134Q502 100 570 100Q702 100 767 210T833 516Q833 806 680 888Q631 914 572 914Q454 914 387 806T320 516Q320 227 454 134Z" />
<glyph unicode="e" glyph-name="e" horiz-adv-x="1116" d="M1023 461H329Q329 289 410 195T612 101Q773 101 843 234L992 235Q969 128 861 54T568 -20T250 94Q90 231 90 480T217 881T583 1034Q896 1034 988 782Q1025 681 1025 591T1023 461ZM792 611Q792 917 584
917Q467 917 402 826T330 574H791Q792 593 792 611Z" />
<glyph unicode="f" glyph-name="f" horiz-adv-x="815" d="M106 110Q193 110 215 127T241 165T246 215V830Q246 869 237 881T196 894H83V1014H246V1114Q246 1347 357 1483T655 1620Q782 1620 857 1543T933 1364T858 1229Q833 1218 806 1218Q753 1218 714 1254T674
1334Q674 1418 748 1443Q733 1478 705 1495T655 1512T610 1509T567 1492Q464 1431 464 1128V1014H766V894H464V224Q464 148 498 129T675 110V0H106V110Z" />
<glyph unicode="g" glyph-name="g" horiz-adv-x="1171" d="M826 956Q915 1061 1057 1061Q1105 1061 1141 1026T1178 938T1147 855T1071 824T997 849T963 926Q927 912 897 884Q957 797 957 688T924 510T833 393T699 318T563 292T471 295Q399 279 374 234Q367 223
367 209Q367 179 421 166T601 143T810 118T953 72Q1080 5 1080 -156T923 -413T539 -510Q183 -510 94 -329Q67 -274 67 -208Q67 -38 274 68Q203 110 203 198T314 336Q220 372 166 464T112 653Q112 833 241 933T546 1034T826 956ZM539 407Q671 407 722 547Q740 595
740 666Q740 798 682 861T539 924Q400 924 348 783Q330 732 330 662Q330 534 392 471T539 407ZM381 5Q282 -48 282 -175Q282 -280 366 -335T587 -390Q802 -390 870 -276Q892 -241 892 -197Q892 -52 644 -29Q566 -21 498 -15T381 5Z" />
<glyph unicode="h" glyph-name="h" horiz-adv-x="1281" d="M702 884Q538 884 436 782V215Q436 153 456 137Q491 110 588 110V0H80V110Q166 110 188 127T215 165T220 215V1300Q220 1372 208 1394T139 1416H78V1526Q172 1526 225 1540T301 1561T350 1568Q403 1568
419 1538T436 1440V900Q539 990 684 1023Q731 1034 776 1034Q1100 1034 1100 604V217Q1100 151 1119 131T1223 110V0H750V110Q841 110 859 128T881 167T884 217V591Q884 730 858 782Q807 884 702 884Z" />
<glyph unicode="i" glyph-name="i" horiz-adv-x="670" d="M337 1219Q272 1219 227 1262T181 1369Q181 1433 227 1477T337 1522Q401 1522 447 1478T493 1369Q493 1306 448 1263T337 1219ZM82 110Q175 110 198 127T227 165T232 215V766Q232 838 220 860T152 882H80V992Q178
992 234 1006T313 1027T363 1034Q415 1034 431 1004T448 906V215Q448 152 468 136Q502 110 597 110V0H82V110Z" />
<glyph unicode="j" glyph-name="j" horiz-adv-x="622" d="M353 1222Q288 1222 243 1265T197 1372Q197 1436 243 1480T353 1525Q417 1525 463 1481T509 1372Q509 1309 464 1266T353 1222ZM138 -235T147 -257T157 -316T121 -387Q147 -396 162 -395Q289 -386 289
-199Q289 -141 271 -27T252 166V765Q252 837 240 859T172 881H80V991Q178 991 240 1005T329 1026T383 1033Q435 1033 451 1003T468 905L469 10Q469 -387 288 -480Q228 -510 162 -510Q45 -510 -28 -456T-101 -333T-73 -235Q-25 -184 30 -184T111 -209Z" />
<glyph unicode="k" glyph-name="k" horiz-adv-x="1267" d="M1082 131Q1151 131 1151 278H1248Q1255 246 1255 222T1254 167T1232 90Q1180 -20 1036 -20T803 145Q778 192 754 240Q689 372 646 420Q572 501 467 501Q459 501 451 501T435 500V217Q435 155 461 133T584
110V0H67V110Q154 110 186 134T219 217V1300Q219 1372 207 1394T138 1416H57V1526Q158 1526 215 1540T296 1561T348 1568Q400 1568 417 1538T435 1440V609H486Q651 725 774 858Q794 879 804 894H631V1014H1183V894Q997 889 802 716Q743 665 684 607Q848 545 950
330Q975 276 996 232T1037 159T1082 131Z" />
<glyph unicode="l" glyph-name="l" horiz-adv-x="660" d="M70 110Q157 110 189 134T222 217V1300Q222 1372 210 1394T141 1416H60V1526Q161 1526 218 1540T299 1561T351 1568Q403 1568 420 1538T438 1440V217Q438 155 464 133T588 110V0H70V110Z" />
<glyph unicode="m" glyph-name="m" horiz-adv-x="1881" d="M1406 1033Q1700 1033 1700 604V217Q1700 151 1719 131T1823 110V0H1350V110Q1441 110 1459 128T1481 167T1484 217V591Q1484 731 1462 782T1405 859T1326 884Q1246 884 1173 852T1057 768Q1071 695 1071
604V217Q1071 151 1090 131T1194 110V0H721V110Q812 110 830 128T852 167T855 217V591Q855 731 833 782T776 859T697 884Q621 884 551 855T436 778V215Q436 152 456 136Q492 110 587 110V0H80V110Q166 110 188 127T215 165T220 215V760Q220 832 208 854T139 876H78V986Q172
986 226 1000T304 1021T354 1028Q405 1028 420 998T436 900V898Q538 987 684 1022Q732 1033 777 1033Q956 1033 1026 873Q1138 977 1296 1018Q1352 1033 1406 1033Z" />
<glyph unicode="n" glyph-name="n" horiz-adv-x="1281" d="M702 884Q538 884 436 782V215Q436 153 456 137Q491 110 588 110V0H80V110Q166 110 188 127T215 165T220 215V760Q220 832 208 854T139 876H78V986Q172 986 225 1000T301 1021T350 1028Q403 1028 419
998T436 900Q543 990 684 1022Q731 1033 776 1033Q1100 1033 1100 604V217Q1100 151 1119 131T1223 110V0H750V110Q841 110 859 128T881 167T884 217V591Q884 730 858 782Q807 884 702 884Z" />
<glyph unicode="o" glyph-name="o" horiz-adv-x="1165" d="M90 512Q90 632 127 733T232 902Q364 1034 583 1034Q804 1034 939 902T1075 526T950 131T583 -20Q341 -20 216 126T90 512ZM583 100Q699 100 771 206T844 504Q844 813 688 890Q640 914 583 914Q398 914
342 690Q322 613 322 510Q322 312 394 206T583 100Z" />
<glyph unicode="p" glyph-name="p" horiz-adv-x="1251" d="M703 -20Q539 -20 423 92V-265Q423 -342 456 -361T626 -380V-490H67V-380Q153 -380 175 -363T202 -325T207 -275V765Q207 837 195 859T126 881H55V991Q154 991 210 1005T290 1026T341 1033Q394 1033 410
1003T427 905V902Q539 1034 732 1034T1045 904T1164 525T1041 129T703 -20ZM418 312T489 206T679 100Q797 100 864 208T931 498Q931 787 791 880Q741 914 673 914T558 882T480 794Q418 680 418 496Z" />
<glyph unicode="q" glyph-name="q" horiz-adv-x="1199" d="M828 122Q722 -20 525 -20T207 117T87 497T210 887T532 1034T851 897Q892 938 892 1014H1044V-275Q1044 -338 1070 -359T1184 -380V-490H615V-380Q757 -380 786 -365T821 -327T828 -265V122ZM572 103Q705
103 769 216T833 515T763 807T572 914Q454 914 387 806T320 516Q320 228 454 136Q502 103 572 103Z" />
<glyph unicode="r" glyph-name="r" horiz-adv-x="897" d="M82 110Q168 110 190 127T216 165T221 215V766Q221 838 209 860T141 882H80V992Q175 992 227 1006T302 1027T351 1034Q402 1034 419 1004T437 906V886Q523 987 632 1022Q671 1034 710 1034Q785 1034 826
991T868 885T828 782T731 742Q675 742 639 782T606 882Q565 876 519 845T437 759V224Q437 186 443 164T478 126T650 110V0H82V110Z" />
<glyph unicode="s" glyph-name="s" horiz-adv-x="974" d="M638 881Q587 932 471 932T314 848Q303 824 303 794T327 735T389 681T474 631T573 579T681 520Q890 406 890 268T782 55T496 -20T201 44T85 209Q85 264 121 302T214 340T308 305T345 220T311 137Q391 91
509 91T676 146Q696 168 696 203Q696 286 512 376Q384 439 320 475Q115 591 115 755Q115 881 219 957T486 1033T758 973T869 816Q869 760 842 733Q795 686 752 686Q682 686 647 721T611 803T638 881Z" />
<glyph unicode="t" glyph-name="t" horiz-adv-x="837" d="M499 -20Q184 -20 184 330V830Q184 869 175 881T134 894H52V1014H89Q165 1014 200 1062T239 1220L240 1309H400V1014H707V894H400V333Q400 147 486 111Q510 101 534 101Q639 101 671 274H787Q777 69 616
2Q564 -20 499 -20Z" />
<glyph unicode="u" glyph-name="u" horiz-adv-x="1190" d="M823 164Q698 -20 489 -20Q338 -20 254 73T170 351V766Q170 838 158 860T90 882H64V992Q156 992 197 1006T257 1027T301 1034Q352 1034 369 1003T386 902V344Q386 234 409 194Q453 117 560 117Q632 117
702 174T801 307V766Q799 840 787 861T720 882H663V992Q758 992 809 1006T883 1027T931 1034Q982 1034 999 1004T1017 906V266Q1017 169 1026 146Q1042 102 1106 102Q1140 102 1164 113V16Q1116 -20 1033 -20Q859 -20 823 164Z" />
<glyph unicode="v" glyph-name="v" horiz-adv-x="1062" d="M93 797Q63 862 40 883T-60 904V1014H475V904Q364 904 339 882T339 797L565 249L806 797Q831 854 797 879T645 904V1014H1101V904Q1038 904 1005 879T947 797L580 0H471L93 797Z" />
<glyph unicode="w" glyph-name="w" horiz-adv-x="1678" d="M132 797Q108 858 82 881T-11 904V1014H494V904Q389 904 368 886T346 847T358 797L552 253L810 1014H955L1207 231L1397 797Q1418 855 1383 879T1236 904V1014H1692V904Q1626 904 1592 878T1538 797L1261
0H1092L843 685L611 0H442L132 797Z" />
<glyph unicode="x" glyph-name="x" horiz-adv-x="1176" d="M42 110Q106 110 148 139T228 215L476 508L228 809Q194 851 144 877T42 904V1014H567V904Q506 904 484 884Q445 847 475 809L634 607L793 809Q827 851 786 877T653 904V1014H1130V904Q1066 904 1024 879T945
809L700 524L945 215Q1026 110 1130 110V0H606V110Q684 110 719 141T719 215L546 424L380 215Q344 169 386 140T520 110V0H42V110Z" />
<glyph unicode="y" glyph-name="y" horiz-adv-x="1152" d="M287 -386Q313 -391 330 -391T372 -374T420 -330Q465 -279 497 -206T530 -91T520 -27T495 11T465 44T439 87L149 797Q128 859 105 881T4 904V1014H542V904Q427 904 403 886T378 847T387 797L636 117L889
797Q912 855 875 879T718 904V1014H1184V904Q1118 904 1085 878T1030 797L762 82Q727 3 696 -72T633 -213Q562 -360 479 -435T286 -510T115 -456T55 -330T95 -216T195 -174Q281 -174 314 -250Q324 -273 324 -299Q324 -349 287 -386Z" />
<glyph unicode="z" glyph-name="z" horiz-adv-x="1052" d="M87 113L703 905H389Q276 905 238 748Q226 702 219 651L89 652L119 1014H945V895L337 110H652Q777 110 812 237Q824 280 832 337H965L935 0H87V113Z" />
<glyph unicode="{" glyph-name="braceleft" horiz-adv-x="927" d="M522 1443L541 950Q541 732 343 677Q541 622 541 403Q541 306 532 156T522 -69Q522 -205 572 -266T742 -328H848V-430H752Q435 -430 352 -222Q323 -147 323 -60Q323 53 332 200T342 410Q342 532
299 576T159 621V733Q255 733 298 776T342 950Q342 987 339 1038Q323 1307 323 1397Q323 1788 752 1788H848V1687H743Q568 1687 533 1544Q522 1500 522 1443Z" />
<glyph unicode="|" glyph-name="bar" horiz-adv-x="681" d="M256 1653H419V-148H256V1653Z" />
<glyph unicode="}" glyph-name="braceright" horiz-adv-x="927" d="M405 1443L386 950Q386 732 584 677Q386 622 386 403Q386 306 395 156T405 -69Q405 -205 355 -266T185 -328H79V-430H175Q492 -430 575 -222Q604 -147 604 -60Q604 53 595 200T585 410Q585 532
628 576T768 621V733Q672 733 629 776T585 950Q585 987 588 1038Q604 1307 604 1397Q604 1788 175 1788H79V1687H184Q359 1687 394 1544Q405 1500 405 1443Z" />
<glyph unicode="~" glyph-name="asciitilde" horiz-adv-x="1533" d="M169 536Q182 851 370 948Q433 980 507 980T637 963T740 919T829 861T911 804Q1004 742 1079 742Q1211 742 1244 887L1259 978H1365Q1336 657 1162 566Q1100 534 1029 534T906 551T810 595T724
653Q564 772 455 772Q386 772 343 730T287 627L274 536H169Z" />
<glyph unicode="&#xa0;" glyph-name="nbspace" horiz-adv-x="838" />
<glyph unicode="&#xa1;" glyph-name="exclamdown" horiz-adv-x="585" d="M249 952Q236 827 220 701Q162 225 153 -48Q150 -120 294 -120Q399 -120 428 -88Q441 -73 440 -48Q431 232 396 529T347 952H249ZM138 1266Q138 1202 183 1157T292 1112Q356 1112 401 1157T446
1266Q446 1330 401 1375T292 1420Q228 1420 183 1375T138 1266Z" />
<glyph unicode="&#xa2;" glyph-name="cent" horiz-adv-x="1073" d="M560 306Q590 301 609 301Q695 301 755 351T838 494H975Q975 370 866 275T575 180H560Q553 180 545 181L516 -56H417L448 195Q207 251 125 496Q96 583 96 690Q96 913 219 1068T575 1233L607 1492H706L673
1229Q810 1213 896 1137T983 951Q983 890 944 849T843 807Q756 807 723 888Q713 912 713 941Q713 1010 772 1049Q728 1099 659 1114L560 306ZM561 1115Q336 1074 336 708Q336 451 467 349L561 1115Z" />
<glyph unicode="&#xa3;" glyph-name="sterling" horiz-adv-x="1444" d="M1104 1341Q1052 1406 962 1406Q840 1406 776 1302Q697 1174 675 857H1026V759H671L643 402Q773 367 906 262Q979 203 1021 187T1100 170Q1173 170 1211 217T1249 374H1362Q1365 339 1365
303T1357 218T1324 126Q1282 47 1182 2T954 -7Q871 17 821 60T714 160T619 243Q584 119 497 50T305 -20T133 38T66 179Q66 339 249 404Q317 428 418 429L442 695Q442 734 433 746T392 759H279L288 857H397Q425 857 440 872T458 930Q476 1217 606 1368T955 1520Q1107
1520 1212 1432T1317 1226Q1317 1155 1274 1106T1164 1057T1054 1099T1010 1195Q1010 1303 1104 1341ZM190 158Q190 130 213 108T289 85Q387 85 402 243L407 306Q290 302 240 261T190 158Z" />
<glyph unicode="&#xa4;" glyph-name="currency" horiz-adv-x="1380" d="M911 369Q812 305 693 305T479 361L316 191L172 334L340 495Q277 596 277 717Q277 840 341 939L172 1101L316 1244L479 1072Q574 1128 692 1128T910 1064L1072 1234L1215 1090L1044 926Q1100
831 1100 717T1044 508L1215 345L1072 201L911 369ZM688 440Q801 440 873 520T946 716T874 913T688 993Q575 993 504 913T432 717T503 521T688 440Z" />
<glyph unicode="&#xa5;" glyph-name="yen" horiz-adv-x="1505" d="M457 110Q571 110 606 128T652 168T663 219V374H308V473H663V648L645 674H308V783H572L235 1281Q199 1341 157 1365T26 1390V1500H609V1390Q512 1390 489 1365T501 1281L802 831L1116 1281Q1151
1340 1123 1365T964 1390V1500H1481V1390Q1407 1390 1361 1364T1280 1281L941 783H1216V674H879V473H1216V374H879V219Q879 155 918 133T1084 110V0H457V110Z" />
<glyph unicode="&#xa6;" glyph-name="brokenbar" horiz-adv-x="681" d="M256 1653H419V852H256V1653ZM256 653H419V-148H256V653Z" />
<glyph unicode="&#xa7;" glyph-name="section" horiz-adv-x="1282" d="M917 226Q1055 107 1055 -38T932 -274T614 -364T299 -284T177 -89Q177 -18 221 32T331 82T437 42T479 -65T424 -175Q486 -244 629 -244T823 -152Q839 -122 839 -84Q839 33 603 155Q442 239
380 282Q262 366 203 454T143 656Q143 811 269 927Q308 963 355 990Q223 1115 223 1271T345 1523T647 1620T944 1533T1062 1319Q1062 1248 1018 1198T906 1148Q806 1148 770 1228Q760 1252 760 1279Q760 1370 832 1417Q781 1504 641 1504T454 1406Q438 1374 438
1330Q438 1187 667 1057Q762 1003 838 956Q1125 778 1125 556T917 226ZM459 909Q338 846 338 706T560 442Q624 406 693 370T797 312Q929 376 929 525Q929 651 699 773Q530 863 459 909Z" />
<glyph unicode="&#xa8;" glyph-name="dieresis" horiz-adv-x="0" d="M240 1225Q176 1225 132 1268T87 1374Q87 1437 131 1481T240 1526Q304 1526 348 1482T393 1374Q393 1311 349 1268T240 1225ZM-240 1225Q-304 1225 -348 1268T-393 1374Q-393 1437 -349 1481T-240
1526Q-176 1526 -132 1482T-87 1374Q-87 1311 -131 1268T-240 1225Z" />
<glyph unicode="&#xa9;" glyph-name="copyright" horiz-adv-x="1918" d="M102 730Q102 1091 350 1334Q507 1488 722 1546Q830 1575 946 1575Q1176 1575 1372 1464Q1668 1295 1760 961Q1791 851 1791 730Q1791 493 1675 296Q1504 5 1170 -85Q1062 -114 946 -114Q716
-114 524 -5T217 297T102 730ZM233 702Q233 567 289 432T442 199T669 47T921 -8T1135 17T1306 89Q1469 186 1564 354T1660 730Q1660 1058 1453 1263T946 1469Q753 1469 589 1373T329 1108T233 702ZM991 361Q1173 361 1218 513H1343Q1343 406 1239 325T957 244T655
354Q509 483 509 731Q509 935 616 1071Q740 1230 967 1230Q1126 1230 1237 1144T1349 944Q1349 883 1313 843T1221 802Q1166 802 1129 837T1092 935T1161 1034Q1138 1071 1093 1093T995 1115Q813 1115 752 914Q731 842 731 740Q731 548 805 455T991 361Z" />
<glyph unicode="&#xaa;" glyph-name="ordfeminine" horiz-adv-x="1108" d="M712 829Q600 697 427 697T189 822Q167 864 167 920Q167 1021 245 1090T428 1187T582 1231T656 1263T687 1299T694 1358T659 1428T550 1458T409 1419Q446 1389 446 1352Q446 1295 415
1264T337 1233T259 1264T227 1345Q227 1443 323 1504T568 1566Q805 1566 856 1404Q872 1350 872 1280V921Q872 872 883 848T925 823Q983 823 983 929H1069Q1069 921 1069 898Q1069 821 1025 759T883 697Q747 697 712 829ZM365 873T397 848T477 822Q570 822 632
886T694 1066V1166Q644 1143 586 1124T512 1100Q365 1039 365 923Q365 873 397 848Z" />
<glyph unicode="&#xab;" glyph-name="guillemotleft" horiz-adv-x="1379" d="M139 547L700 1028V904L408 514L700 125V1L139 482V547ZM692 547L1253 1028V904L961 514L1253 125V1L692 482V547Z" />
<glyph unicode="&#xac;" glyph-name="logicalnot" horiz-adv-x="1360" d="M125 764H1196V247H1033V601H125V764Z" />
<glyph unicode="&#xad;" glyph-name="uni00AD" horiz-adv-x="1229" />
<glyph unicode="&#xae;" glyph-name="registered" horiz-adv-x="1548" d="M750 229Q631 229 506 281T286 425Q85 623 85 918Q85 1112 176 1269T426 1517T773 1608Q1058 1608 1260 1412Q1389 1287 1438 1106Q1463 1017 1463 918Q1463 623 1262 426T750 229ZM1012
333T1177 500T1343 918T1177 1336T773 1504Q620 1504 486 1428Q287 1313 224 1080Q204 1003 204 897T249 683T371 498Q534 333 773 333ZM1057 631Q1099 631 1099 749H1155Q1162 726 1162 709T1162 673T1146 622Q1108 546 1012 546Q897 546 856 717Q831 822 808
855T753 888H665V694Q665 647 682 635T779 622V559H435V622Q489 622 504 637T520 694V1159Q520 1202 504 1216T435 1230V1302H775Q930 1302 1000 1245T1071 1105Q1071 964 912 911Q954 882 970 830T994 746Q1019 631 1057 631ZM725 954Q810 954 862 991T915 1093T877
1194T763 1232H665V954H725Z" />
<glyph unicode="&#xaf;" glyph-name="overscore" horiz-adv-x="0" d="M-340 1233V1403H340V1233H-340Z" />
<glyph unicode="&#xb0;" glyph-name="degree" horiz-adv-x="1089" d="M544 903Q416 903 326 993T236 1211Q236 1340 326 1430T544 1520Q673 1520 763 1430T853 1211Q853 1083 763 993T544 903ZM544 1041Q612 1041 658 1090T704 1211Q704 1281 658 1330T544 1380Q476
1380 430 1331T384 1211Q384 1140 430 1091T544 1041Z" />
<glyph unicode="&#xb1;" glyph-name="plusminus" horiz-adv-x="1360" d="M127 163H596V598H127V761H596V1230H759V761H1228V598H759V163H1228V0H127V163Z" />
<glyph unicode="&#xb2;" glyph-name="twosuperior" horiz-adv-x="1056" d="M579 971Q829 971 829 1105H931L865 815H184V903Q184 998 324 1108T513 1259Q671 1396 671 1530T572 1700Q542 1710 504 1710T424 1692T362 1634Q428 1597 428 1529T390 1423T308 1384Q236
1384 198 1424T159 1522Q159 1643 262 1740T524 1838T785 1759T886 1548Q886 1387 685 1228Q629 1183 528 1106T380 971H579Z" />
<glyph unicode="&#xb3;" glyph-name="threesuperior" horiz-adv-x="1053" d="M740 1332Q910 1240 910 1102T793 880T513 796T253 861T155 1015Q155 1076 182 1107Q228 1160 282 1160T370 1125T404 1040T372 956Q413 913 510 913Q638 913 680 1018Q695 1053 695
1092Q695 1166 660 1218T566 1270H454V1375H531Q607 1375 651 1429T695 1542Q695 1640 646 1682T538 1724Q419 1724 379 1675Q417 1637 417 1587Q417 1536 382 1501T308 1466Q244 1466 210 1502T175 1588Q175 1686 277 1763T532 1841T792 1764T899 1562Q899 1414
740 1332Z" />
<glyph unicode="&#xb4;" glyph-name="acute" horiz-adv-x="0" d="M35 1255Q-2 1194 -54 1194Q-78 1194 -91 1209T-105 1239T-102 1265L-52 1501Q-30 1604 -10 1635Q27 1690 86 1690Q206 1690 206 1593Q206 1540 165 1471L35 1255Z" />
<glyph unicode="&#xb5;" glyph-name="mu" horiz-adv-x="1277" d="M995 218Q995 120 1057 120Q1121 120 1158 261H1253Q1184 -20 986 -20Q881 -20 830 71Q814 101 810 142Q681 -20 484 -20Q357 -20 300 66Q316 -99 316 -212Q316 -397 277 -460T194 -524Q123 -524
96 -469T68 -328T87 -148T132 39T184 219T226 381L296 759Q303 789 303 812T290 855T216 875H165V991Q256 991 306 1005T377 1026T439 1033T502 1005T525 951T520 905L420 374Q406 311 406 270Q406 110 560 110Q634 110 705 164T807 297L887 759Q901 822 883 848T806
875H755V991Q846 991 896 1005T968 1026T1029 1033T1092 1005T1115 950T1111 905L1001 266Q995 234 995 218Z" />
<glyph unicode="&#xb6;" glyph-name="paragraph" horiz-adv-x="1272" d="M556 -375Q593 -399 640 -399Q735 -399 770 -315T806 2V1500H1236V1392Q1101 1392 1075 1374T1043 1324T1036 1237V22Q1036 -253 912 -394Q809 -510 660 -510T429 -441T347 -269T440 -123Q469
-110 516 -110T601 -147T640 -238Q640 -336 556 -375ZM605 565Q402 565 260 701T118 1032Q118 1226 260 1362T605 1499V565Z" />
<glyph unicode="&#xb7;" glyph-name="middot" horiz-adv-x="684" d="M192 634Q192 698 238 742T348 787Q412 787 458 743T504 634Q504 571 459 528T348 484Q283 484 238 527T192 634Z" />
<glyph unicode="&#xb8;" glyph-name="cedilla" horiz-adv-x="658" d="M472 -165Q472 -419 212 -419Q154 -419 106 -403T47 -379L54 -273Q103 -288 131 -288Q216 -288 259 -254Q346 -185 346 -2Q346 6 346 14L446 45Q472 -77 472 -165Z" />
<glyph unicode="&#xb9;" glyph-name="onesuperior" horiz-adv-x="826" d="M139 912Q256 912 291 932T338 974T349 1030V1391Q349 1471 336 1495T260 1519H128V1625Q253 1625 343 1688T434 1816H543L542 1030Q542 960 569 942Q614 912 741 912V815H139V912Z" />
<glyph unicode="&#xba;" glyph-name="ordmasculine" horiz-adv-x="1107" d="M554 698Q349 698 244 821T138 1144T253 1455T554 1566Q740 1566 855 1455T970 1144T865 821T554 698ZM649 802T708 889T767 1130Q767 1379 640 1442Q601 1462 554 1462Q457 1462 400
1379T342 1137T400 890T554 802Z" />
<glyph unicode="&#xbb;" glyph-name="guillemotright" horiz-adv-x="1379" d="M687 547L126 1028V904L418 514L126 125V1L687 482V547ZM1240 547L679 1028V904L971 514L679 125V1L1240 482V547Z" />
<glyph unicode="&#xbc;" glyph-name="onequarter" horiz-adv-x="1089" d="M269 1086Q386 1086 421 1106T468 1148T479 1204V1565Q479 1645 466 1669T390 1693H258V1799Q383 1799 473 1862T564 1990H673L672 1204Q672 1134 699 1116Q744 1086 871 1086V989H269V1086ZM146
843H943V750H146V843ZM586 631H744V88Q744 52 755 43T794 33H953V-76H788Q759 -76 752 -83T744 -125V-189Q744 -245 772 -264T898 -283V-380H367V-283Q486 -283 509 -269T537 -235T542 -179V-76H118L70 35L586 631ZM541 27L542 6V415L206 27H541Z" />
<glyph unicode="&#xbd;" glyph-name="onehalf" horiz-adv-x="1089" d="M269 1086Q386 1086 421 1106T468 1148T479 1204V1565Q479 1645 466 1669T390 1693H258V1799Q383 1799 473 1862T564 1990H673L672 1204Q672 1134 699 1116Q744 1086 871 1086V989H269V1086ZM146
843H943V750H146V843ZM623 -224Q873 -224 873 -90H975L909 -380H233V-292Q233 -197 373 -87T562 64Q720 201 720 335T621 504Q591 515 553 515T473 497T411 439Q477 402 477 334T439 228T357 189Q285 189 247 229T208 327Q208 448 311 545T573 643T834 564T935
353Q935 192 734 32Q678 -12 579 -86T429 -224H623Z" />
<glyph unicode="&#xbe;" glyph-name="threequarters" horiz-adv-x="1089" d="M764 1500Q934 1408 934 1270T817 1048T537 964T277 1029T179 1183Q179 1244 206 1275Q252 1328 306 1328T394 1293T428 1208T396 1124Q437 1081 534 1081Q662 1081 704 1186Q719 1221
719 1260Q719 1334 684 1386T590 1438H478V1543H555Q631 1543 675 1597T719 1710Q719 1808 670 1850T562 1892Q443 1892 403 1843Q441 1805 441 1755Q441 1704 406 1669T332 1634Q268 1634 234 1670T199 1756Q199 1854 301 1931T556 2009T816 1932T923 1730Q923
1582 764 1500ZM146 843H943V750H146V843ZM586 631H744V88Q744 52 755 43T794 33H953V-76H788Q759 -76 752 -83T744 -125V-189Q744 -245 772 -264T898 -283V-380H367V-283Q486 -283 509 -269T537 -235T542 -179V-76H118L70 35L586 631ZM541 27L542 6V415L206 27H541Z"
/>
<glyph unicode="&#xbf;" glyph-name="questiondown" horiz-adv-x="1045" d="M596 905Q596 778 517 671Q483 625 444 583Q292 419 292 221Q292 62 424 18Q463 5 503 5Q585 5 653 38T748 136Q699 150 670 190T640 291T678 397T794 441Q902 441 944 342Q960 306 960
250T932 127T842 4Q705 -120 507 -120T185 -12T61 271T261 633Q386 750 429 818T477 950H596V905ZM678 1266Q678 1202 633 1157T524 1112Q460 1112 415 1157T370 1266Q370 1330 415 1375T524 1420Q588 1420 633 1375T678 1266Z" />
<glyph unicode="&#xc0;" glyph-name="Agrave" horiz-adv-x="1601" d="M-1 110Q82 110 124 135T190 219L730 1500H901L1395 219Q1422 155 1455 133T1584 110V0H967V110Q1099 110 1123 128T1147 167T1133 219L1043 470H462L359 219Q336 159 373 135T546 110V0H-1V110ZM1004
580L772 1228L507 580H1004ZM966 1644T952 1629T906 1614T818 1655L618 1804Q560 1847 560 1912T612 2002Q629 2010 657 2010Q714 2010 743 1983T825 1881L948 1712Q966 1689 966 1667Z" />
<glyph unicode="&#xc1;" glyph-name="Aacute" horiz-adv-x="1601" d="M-1 110Q82 110 124 135T190 219L730 1500H901L1395 219Q1422 155 1455 133T1584 110V0H967V110Q1099 110 1123 128T1147 167T1133 219L1043 470H462L359 219Q336 159 373 135T546 110V0H-1V110ZM1004
580L772 1228L507 580H1004ZM857 1655Q801 1614 769 1614Q709 1614 709 1666Q709 1689 727 1712L850 1881Q903 1955 932 1982T1024 2010T1109 1950Q1115 1932 1115 1909Q1115 1847 1057 1804L857 1655Z" />
<glyph unicode="&#xc2;" glyph-name="Acircumflex" horiz-adv-x="1601" d="M-1 110Q82 110 124 135T190 219L730 1500H901L1395 219Q1422 155 1455 133T1584 110V0H967V110Q1099 110 1123 128T1147 167T1133 219L1043 470H462L359 219Q336 159 373 135T546 110V0H-1V110ZM1004
580L772 1228L507 580H1004ZM1177 1687Q1177 1652 1129 1652Q1103 1653 1070 1670L813 1801L556 1670Q523 1653 497 1652Q449 1652 449 1687Q449 1703 464 1719L757 2000H869L1162 1719Q1177 1703 1177 1687Z" />
<glyph unicode="&#xc3;" glyph-name="Atilde" horiz-adv-x="1601" d="M-1 110Q82 110 124 135T190 219L730 1500H901L1395 219Q1422 155 1455 133T1584 110V0H967V110Q1099 110 1123 128T1147 167T1133 219L1043 470H462L359 219Q336 159 373 135T546 110V0H-1V110ZM1004
580L772 1228L507 580H1004ZM1059 1667Q1010 1641 955 1641T864 1653T799 1685T746 1726T687 1779T626 1811Q544 1811 528 1723L515 1630H408Q421 1888 566 1965Q615 1991 670 1991T761 1979T826 1947T880 1906T939 1853T1001 1821Q1077 1821 1095 1909L1110 2002H1218Q1199
1741 1059 1667Z" />
<glyph unicode="&#xc4;" glyph-name="Adieresis" horiz-adv-x="1601" d="M-1 110Q82 110 124 135T190 219L730 1500H901L1395 219Q1422 155 1455 133T1584 110V0H967V110Q1099 110 1123 128T1147 167T1133 219L1043 470H462L359 219Q336 159 373 135T546 110V0H-1V110ZM1004
580L772 1228L507 580H1004ZM1053 1656Q989 1656 945 1699T900 1805Q900 1868 944 1912T1053 1957Q1117 1957 1161 1913T1206 1805Q1206 1742 1162 1699T1053 1656ZM573 1656Q509 1656 465 1699T420 1805Q420 1868 464 1912T573 1957Q637 1957 681 1913T726 1805Q726
1742 682 1699T573 1656Z" />
<glyph unicode="&#xc5;" glyph-name="Aring" horiz-adv-x="1581" d="M-11 110Q72 110 114 135T180 219L686 1420Q574 1470 538 1592Q526 1630 526 1680Q526 1788 607 1869T803 1950Q918 1950 999 1869T1081 1667T986 1463Q957 1437 921 1421L1385 219Q1412 155
1445 133T1574 110V0H957V110Q1089 110 1113 128T1137 167T1123 219L1033 470H452L349 219Q326 159 363 135T536 110V0H-11V110ZM803 1514Q885 1514 916 1606Q926 1635 926 1672Q926 1742 891 1785T803 1829Q721 1829 690 1738Q680 1709 680 1672Q680 1562 756
1525Q778 1514 803 1514ZM994 580L762 1228L497 580H994Z" />
<glyph unicode="&#xc6;" glyph-name="AE" horiz-adv-x="2156" d="M-22 110Q116 110 189 219L860 1236Q937 1351 826 1382Q798 1390 752 1390H638V1500H1998L2037 1137L1892 1136L1865 1249Q1845 1330 1824 1351Q1787 1388 1699 1388H1324V806H1511Q1565 806 1597
808T1649 826T1670 945H1820V558H1670Q1670 655 1650 672T1597 693T1511 696H1324V110H1738Q1861 110 1888 182Q1897 206 1904 238L1931 361H2066L2027 0H929V110Q1026 110 1054 128T1090 166T1098 217V470H522L358 219Q321 162 351 136T515 110V0H-22V110ZM1098
580V1347L594 580H1098Z" />
<glyph unicode="&#xc7;" glyph-name="Ccedilla" horiz-adv-x="1491" d="M881 -170Q881 -419 621 -419Q563 -419 515 -403T456 -379L463 -273Q513 -288 539 -288Q619 -288 661 -258Q750 -194 754 -20Q476 -17 292 160Q78 363 78 750Q78 1062 246 1276Q365 1429
563 1489Q665 1520 787 1520Q1028 1520 1183 1410T1338 1132Q1338 1007 1240 964Q1211 951 1177 951Q1072 951 1036 1040Q1025 1068 1025 1106T1047 1182T1105 1240Q1024 1395 815 1395T475 1237T344 761T477 277T798 110Q1113 110 1196 400H1340Q1340 255 1207
134T866 -13Q881 -97 881 -170Z" />
<glyph unicode="&#xc8;" glyph-name="Egrave" horiz-adv-x="1327" d="M81 110Q178 110 206 128T242 166T250 217V1281Q250 1343 213 1366T82 1390V1500H1170L1209 1137L1064 1136L1037 1249Q1017 1330 996 1351Q959 1388 871 1388H475V806H669Q782 806 807 821T842
864T852 945H982V558H852Q852 651 816 673T669 696H475V110H900Q1016 110 1054 188Q1066 212 1078 238L1123 361H1268L1229 0H81V110ZM802 1644T788 1629T742 1614T654 1655L454 1804Q396 1847 396 1912T448 2002Q465 2010 493 2010Q550 2010 579 1983T661 1881L784
1712Q802 1689 802 1667Z" />
<glyph unicode="&#xc9;" glyph-name="Eacute" horiz-adv-x="1327" d="M81 110Q178 110 206 128T242 166T250 217V1281Q250 1343 213 1366T82 1390V1500H1170L1209 1137L1064 1136L1037 1249Q1017 1330 996 1351Q959 1388 871 1388H475V806H669Q782 806 807 821T842
864T852 945H982V558H852Q852 651 816 673T669 696H475V110H900Q1016 110 1054 188Q1066 212 1078 238L1123 361H1268L1229 0H81V110ZM693 1655Q637 1614 605 1614Q545 1614 545 1666Q545 1689 563 1712L686 1881Q739 1955 768 1982T860 2010T945 1950Q951 1932
951 1909Q951 1847 893 1804L693 1655Z" />
<glyph unicode="&#xca;" glyph-name="Ecircumflex" horiz-adv-x="1327" d="M81 110Q178 110 206 128T242 166T250 217V1281Q250 1343 213 1366T82 1390V1500H1170L1209 1137L1064 1136L1037 1249Q1017 1330 996 1351Q959 1388 871 1388H475V806H669Q782 806 807
821T842 864T852 945H982V558H852Q852 651 816 673T669 696H475V110H900Q1016 110 1054 188Q1066 212 1078 238L1123 361H1268L1229 0H81V110ZM1013 1687Q1013 1652 965 1652Q939 1653 906 1670L649 1801L392 1670Q359 1653 333 1652Q285 1652 285 1687Q285 1703
300 1719L593 2000H705L998 1719Q1013 1703 1013 1687Z" />
<glyph unicode="&#xcb;" glyph-name="Edieresis" horiz-adv-x="1327" d="M81 110Q178 110 206 128T242 166T250 217V1281Q250 1343 213 1366T82 1390V1500H1170L1209 1137L1064 1136L1037 1249Q1017 1330 996 1351Q959 1388 871 1388H475V806H669Q782 806 807
821T842 864T852 945H982V558H852Q852 651 816 673T669 696H475V110H900Q1016 110 1054 188Q1066 212 1078 238L1123 361H1268L1229 0H81V110ZM889 1656Q825 1656 781 1699T736 1805Q736 1868 780 1912T889 1957Q953 1957 997 1913T1042 1805Q1042 1742 998 1699T889
1656ZM409 1656Q345 1656 301 1699T256 1805Q256 1868 300 1912T409 1957Q473 1957 517 1913T562 1805Q562 1742 518 1699T409 1656Z" />
<glyph unicode="&#xcc;" glyph-name="Igrave" horiz-adv-x="760" d="M99 110Q194 110 223 128T260 168T268 219L267 1281Q267 1346 244 1362Q205 1390 99 1390V1500H661V1390Q566 1390 537 1372T500 1332T492 1281L493 219Q493 154 516 138Q555 110 661 110V0H99V110ZM532
1644T518 1629T472 1614T384 1655L184 1804Q126 1847 126 1912T178 2002Q195 2010 223 2010Q280 2010 309 1983T391 1881L514 1712Q532 1689 532 1667Z" />
<glyph unicode="&#xcd;" glyph-name="Iacute" horiz-adv-x="760" d="M99 110Q194 110 223 128T260 168T268 219L267 1281Q267 1346 244 1362Q205 1390 99 1390V1500H661V1390Q566 1390 537 1372T500 1332T492 1281L493 219Q493 154 516 138Q555 110 661 110V0H99V110ZM423
1655Q367 1614 335 1614Q275 1614 275 1666Q275 1689 293 1712L416 1881Q469 1955 498 1982T590 2010T675 1950Q681 1932 681 1909Q681 1847 623 1804L423 1655Z" />
<glyph unicode="&#xce;" glyph-name="Icircumflex" horiz-adv-x="760" d="M99 110Q194 110 223 128T260 168T268 219L267 1281Q267 1346 244 1362Q205 1390 99 1390V1500H661V1390Q566 1390 537 1372T500 1332T492 1281L493 219Q493 154 516 138Q555 110 661 110V0H99V110ZM743
1687Q743 1652 695 1652Q669 1653 636 1670L379 1801L122 1670Q89 1653 63 1652Q15 1652 15 1687Q15 1703 30 1719L323 2000H435L728 1719Q743 1703 743 1687Z" />
<glyph unicode="&#xcf;" glyph-name="Idieresis" horiz-adv-x="760" d="M99 110Q194 110 223 128T260 168T268 219L267 1281Q267 1346 244 1362Q205 1390 99 1390V1500H661V1390Q566 1390 537 1372T500 1332T492 1281L493 219Q493 154 516 138Q555 110 661 110V0H99V110ZM619
1656Q555 1656 511 1699T466 1805Q466 1868 510 1912T619 1957Q683 1957 727 1913T772 1805Q772 1742 728 1699T619 1656ZM139 1656Q75 1656 31 1699T-14 1805Q-14 1868 30 1912T139 1957Q203 1957 247 1913T292 1805Q292 1742 248 1699T139 1656Z" />
<glyph unicode="&#xd0;" glyph-name="Eth" horiz-adv-x="1517" d="M82 110Q188 110 214 128T245 168T250 219V723H82V843H250V1281Q250 1346 228 1362Q188 1390 82 1390V1500H629Q1051 1500 1253 1302Q1436 1121 1436 786Q1436 254 1020 75Q846 0 619 0H82V110ZM641
111Q1170 111 1170 764Q1170 1071 1030 1235T600 1400H480V843H821V723H480V111H641Z" />
<glyph unicode="&#xd1;" glyph-name="Ntilde" horiz-adv-x="1720" d="M98 112Q196 112 225 131T262 171T271 223V1277Q271 1342 247 1359Q207 1388 98 1388V1500H443L1301 411V1277Q1301 1343 1278 1359Q1238 1388 1130 1388V1500H1634V1388Q1536 1388 1507 1369T1470
1329T1461 1277V0H1338L431 1151V223Q431 158 455 141Q495 112 605 112V0H98V112ZM1122 1667Q1073 1641 1018 1641T927 1653T862 1685T809 1726T750 1779T689 1811Q607 1811 591 1723L578 1630H471Q484 1888 629 1965Q678 1991 733 1991T824 1979T889 1947T943
1906T1002 1853T1064 1821Q1140 1821 1158 1909L1173 2002H1281Q1262 1741 1122 1667Z" />
<glyph unicode="&#xd2;" glyph-name="Ograve" horiz-adv-x="1578" d="M82 750Q82 940 140 1087T296 1331Q489 1520 789 1520T1282 1334Q1496 1129 1496 755T1300 181T789 -20Q476 -20 279 183T82 750ZM792 110Q967 110 1086 240Q1236 404 1236 739T1108 1232T786
1390Q593 1390 468 1233T342 760Q342 307 590 163Q681 110 792 110ZM942 1644T928 1629T882 1614T794 1655L594 1804Q536 1847 536 1912T588 2002Q605 2010 633 2010Q690 2010 719 1983T801 1881L924 1712Q942 1689 942 1667Z" />
<glyph unicode="&#xd3;" glyph-name="Oacute" horiz-adv-x="1578" d="M82 750Q82 940 140 1087T296 1331Q489 1520 789 1520T1282 1334Q1496 1129 1496 755T1300 181T789 -20Q476 -20 279 183T82 750ZM792 110Q967 110 1086 240Q1236 404 1236 739T1108 1232T786
1390Q593 1390 468 1233T342 760Q342 307 590 163Q681 110 792 110ZM833 1655Q777 1614 745 1614Q685 1614 685 1666Q685 1689 703 1712L826 1881Q879 1955 908 1982T1000 2010T1085 1950Q1091 1932 1091 1909Q1091 1847 1033 1804L833 1655Z" />
<glyph unicode="&#xd4;" glyph-name="Ocircumflex" horiz-adv-x="1578" d="M82 750Q82 940 140 1087T296 1331Q489 1520 789 1520T1282 1334Q1496 1129 1496 755T1300 181T789 -20Q476 -20 279 183T82 750ZM792 110Q967 110 1086 240Q1236 404 1236 739T1108 1232T786
1390Q593 1390 468 1233T342 760Q342 307 590 163Q681 110 792 110ZM1153 1687Q1153 1652 1105 1652Q1079 1653 1046 1670L789 1801L532 1670Q499 1653 473 1652Q425 1652 425 1687Q425 1703 440 1719L733 2000H845L1138 1719Q1153 1703 1153 1687Z" />
<glyph unicode="&#xd5;" glyph-name="Otilde" horiz-adv-x="1578" d="M82 750Q82 940 140 1087T296 1331Q489 1520 789 1520T1282 1334Q1496 1129 1496 755T1300 181T789 -20Q476 -20 279 183T82 750ZM792 110Q967 110 1086 240Q1236 404 1236 739T1108 1232T786
1390Q593 1390 468 1233T342 760Q342 307 590 163Q681 110 792 110ZM1035 1667Q986 1641 931 1641T840 1653T775 1685T722 1726T663 1779T602 1811Q520 1811 504 1723L491 1630H384Q397 1888 542 1965Q591 1991 646 1991T737 1979T802 1947T856 1906T915 1853T977
1821Q1053 1821 1071 1909L1086 2002H1194Q1175 1741 1035 1667Z" />
<glyph unicode="&#xd6;" glyph-name="Odieresis" horiz-adv-x="1578" d="M82 750Q82 940 140 1087T296 1331Q489 1520 789 1520T1282 1334Q1496 1129 1496 755T1300 181T789 -20Q476 -20 279 183T82 750ZM792 110Q967 110 1086 240Q1236 404 1236 739T1108 1232T786
1390Q593 1390 468 1233T342 760Q342 307 590 163Q681 110 792 110ZM1029 1656Q965 1656 921 1699T876 1805Q876 1868 920 1912T1029 1957Q1093 1957 1137 1913T1182 1805Q1182 1742 1138 1699T1029 1656ZM549 1656Q485 1656 441 1699T396 1805Q396 1868 440 1912T549
1957Q613 1957 657 1913T702 1805Q702 1742 658 1699T549 1656Z" />
<glyph unicode="&#xd7;" glyph-name="multiply" horiz-adv-x="1360" d="M552 657L221 989L336 1104L667 772L999 1104L1114 989L782 657L1114 326L999 211L667 542L336 211L221 326L552 657Z" />
<glyph unicode="&#xd8;" glyph-name="Oslash" horiz-adv-x="1578" d="M1213 1392Q1496 1190 1496 739Q1496 381 1300 181T789 -20Q584 -20 427 69L325 -103L221 -33L324 141Q82 347 82 734T296 1331Q489 1520 789 1520Q962 1520 1104 1455L1203 1621L1307 1551L1213
1392ZM1022 1316Q919 1390 786 1390Q593 1390 468 1233T342 783T434 326L1022 1316ZM516 218Q631 110 799 110T1086 240Q1236 404 1236 760Q1236 1059 1113 1225L516 218Z" />
<glyph unicode="&#xd9;" glyph-name="Ugrave" horiz-adv-x="1616" d="M826 126Q1223 126 1223 619V1281Q1223 1346 1201 1362Q1161 1390 1055 1390V1500H1563V1390Q1468 1390 1439 1372T1402 1332T1394 1281L1395 630Q1395 139 1047 18Q936 -20 833 -20T661 -6T527
41Q387 111 304 253T221 620V1281Q221 1345 199 1362Q162 1390 63 1390V1500H623V1390Q522 1390 492 1372T453 1332T444 1281V599Q444 358 553 242T826 126ZM1010 1644T996 1629T950 1614T862 1655L662 1804Q604 1847 604 1912T656 2002Q673 2010 701 2010Q758
2010 787 1983T869 1881L992 1712Q1010 1689 1010 1667Z" />
<glyph unicode="&#xda;" glyph-name="Uacute" horiz-adv-x="1616" d="M826 126Q1223 126 1223 619V1281Q1223 1346 1201 1362Q1161 1390 1055 1390V1500H1563V1390Q1468 1390 1439 1372T1402 1332T1394 1281L1395 630Q1395 139 1047 18Q936 -20 833 -20T661 -6T527
41Q387 111 304 253T221 620V1281Q221 1345 199 1362Q162 1390 63 1390V1500H623V1390Q522 1390 492 1372T453 1332T444 1281V599Q444 358 553 242T826 126ZM901 1655Q845 1614 813 1614Q753 1614 753 1666Q753 1689 771 1712L894 1881Q947 1955 976 1982T1068
2010T1153 1950Q1159 1932 1159 1909Q1159 1847 1101 1804L901 1655Z" />
<glyph unicode="&#xdb;" glyph-name="Ucircumflex" horiz-adv-x="1616" d="M826 126Q1223 126 1223 619V1281Q1223 1346 1201 1362Q1161 1390 1055 1390V1500H1563V1390Q1468 1390 1439 1372T1402 1332T1394 1281L1395 630Q1395 139 1047 18Q936 -20 833 -20T661
-6T527 41Q387 111 304 253T221 620V1281Q221 1345 199 1362Q162 1390 63 1390V1500H623V1390Q522 1390 492 1372T453 1332T444 1281V599Q444 358 553 242T826 126ZM1221 1687Q1221 1652 1173 1652Q1147 1653 1114 1670L857 1801L600 1670Q567 1653 541 1652Q493
1652 493 1687Q493 1703 508 1719L801 2000H913L1206 1719Q1221 1703 1221 1687Z" />
<glyph unicode="&#xdc;" glyph-name="Udieresis" horiz-adv-x="1616" d="M826 126Q1223 126 1223 619V1281Q1223 1346 1201 1362Q1161 1390 1055 1390V1500H1563V1390Q1468 1390 1439 1372T1402 1332T1394 1281L1395 630Q1395 139 1047 18Q936 -20 833 -20T661
-6T527 41Q387 111 304 253T221 620V1281Q221 1345 199 1362Q162 1390 63 1390V1500H623V1390Q522 1390 492 1372T453 1332T444 1281V599Q444 358 553 242T826 126ZM1097 1656Q1033 1656 989 1699T944 1805Q944 1868 988 1912T1097 1957Q1161 1957 1205 1913T1250
1805Q1250 1742 1206 1699T1097 1656ZM617 1656Q553 1656 509 1699T464 1805Q464 1868 508 1912T617 1957Q681 1957 725 1913T770 1805Q770 1742 726 1699T617 1656Z" />
<glyph unicode="&#xdd;" glyph-name="Yacute" horiz-adv-x="1383" d="M395 110Q508 110 544 128T591 168T602 219L601 503L183 1281Q149 1342 114 1360Q55 1390 -36 1390V1500H543V1390Q447 1390 431 1366T445 1281L742 671L1054 1281Q1086 1342 1067 1359Q1033
1390 902 1390V1500H1419V1390Q1345 1390 1298 1365T1218 1281L816 542V219Q816 156 856 133T1022 110V0H395V110ZM795 1655Q739 1614 707 1614Q647 1614 647 1666Q647 1689 665 1712L788 1881Q841 1955 870 1982T962 2010T1047 1950Q1053 1932 1053 1909Q1053
1847 995 1804L795 1655Z" />
<glyph unicode="&#xde;" glyph-name="Thorn" horiz-adv-x="1279" d="M1181 760Q1181 313 540 313Q511 313 481 314H446V259Q446 215 449 186T470 140Q500 110 626 110V0H53V110Q158 110 184 128T215 168T220 219V1281Q220 1346 198 1362Q158 1390 53 1390V1500H626V1390Q498
1390 476 1370T450 1323T446 1251V1214H589Q1033 1214 1142 971Q1181 885 1181 760ZM525 416Q940 416 940 740Q940 1103 571 1103H446V416H525Z" />
<glyph unicode="&#xdf;" glyph-name="germandbls" horiz-adv-x="1305" d="M71 110Q157 110 178 128T203 166T208 217V829Q208 869 199 881T159 894H48V1014H154Q183 1014 193 1025T204 1075Q204 1357 344 1498T700 1640Q968 1640 1052 1420Q1081 1343 1081 1256Q1081
1105 1019 1002T848 856Q1012 822 1116 703T1221 396T1115 94T839 -20Q554 -20 554 248Q554 276 557 304H643Q658 212 680 182Q724 124 815 124T949 210T991 411Q991 620 869 704Q765 774 558 774V888Q838 888 859 1191Q862 1235 862 1278Q862 1379 813 1454T679
1530T555 1502Q487 1453 456 1341T424 1015V0H71V110Z" />
<glyph unicode="&#xe0;" glyph-name="agrave" horiz-adv-x="1172" d="M955 239Q955 120 1002 120Q1047 120 1068 150T1089 261H1194Q1195 248 1195 220Q1195 130 1150 64Q1095 -20 975 -20Q897 -20 842 24T766 140Q621 -20 399 -20Q277 -20 187 51T96 251Q96 473
424 579Q632 645 673 670T726 722T739 782Q739 841 681 880T530 920T366 870Q416 833 416 775T378 682T285 647T195 680T159 772Q159 889 277 961T564 1034Q866 1034 933 838Q955 773 955 688V239ZM426 450T382 391T338 261T376 155T471 119Q587 119 663 200T739
428V582Q675 549 604 522T514 488Q426 450 382 391ZM674 1265Q677 1254 677 1240T664 1210T626 1194Q574 1194 537 1255L407 1471Q366 1540 366 1590Q366 1690 481 1690Q545 1690 573 1647T624 1501L674 1265Z" />
<glyph unicode="&#xe1;" glyph-name="aacute" horiz-adv-x="1172" d="M955 239Q955 120 1002 120Q1047 120 1068 150T1089 261H1194Q1195 248 1195 220Q1195 130 1150 64Q1095 -20 975 -20Q897 -20 842 24T766 140Q621 -20 399 -20Q277 -20 187 51T96 251Q96 473
424 579Q632 645 673 670T726 722T739 782Q739 841 681 880T530 920T366 870Q416 833 416 775T378 682T285 647T195 680T159 772Q159 889 277 961T564 1034Q866 1034 933 838Q955 773 955 688V239ZM426 450T382 391T338 261T376 155T471 119Q587 119 663 200T739
428V582Q675 549 604 522T514 488Q426 450 382 391ZM640 1255Q603 1194 551 1194Q527 1194 514 1209T500 1239T503 1265L553 1501Q575 1604 595 1635Q632 1690 691 1690Q811 1690 811 1593Q811 1540 770 1471L640 1255Z" />
<glyph unicode="&#xe2;" glyph-name="acircumflex" horiz-adv-x="1172" d="M955 239Q955 120 1002 120Q1047 120 1068 150T1089 261H1194Q1195 248 1195 220Q1195 130 1150 64Q1095 -20 975 -20Q897 -20 842 24T766 140Q621 -20 399 -20Q277 -20 187 51T96 251Q96
473 424 579Q632 645 673 670T726 722T739 782Q739 841 681 880T530 920T366 870Q416 833 416 775T378 682T285 647T195 680T159 772Q159 889 277 961T564 1034Q866 1034 933 838Q955 773 955 688V239ZM426 450T382 391T338 261T376 155T471 119Q587 119 663 200T739
428V582Q675 549 604 522T514 488Q426 450 382 391ZM355 1200Q319 1167 296 1167Q244 1167 244 1203Q244 1215 253 1229L526 1600H638L911 1229Q920 1215 920 1207Q920 1167 879 1167Q845 1167 809 1200L582 1375L355 1200Z" />
<glyph unicode="&#xe3;" glyph-name="atilde" horiz-adv-x="1172" d="M955 239Q955 120 1002 120Q1047 120 1068 150T1089 261H1194Q1195 248 1195 220Q1195 130 1150 64Q1095 -20 975 -20Q897 -20 842 24T766 140Q621 -20 399 -20Q277 -20 187 51T96 251Q96 473
424 579Q632 645 673 670T726 722T739 782Q739 841 681 880T530 920T366 870Q416 833 416 775T378 682T285 647T195 680T159 772Q159 889 277 961T564 1034Q866 1034 933 838Q955 773 955 688V239ZM426 450T382 391T338 261T376 155T471 119Q587 119 663 200T739
428V582Q675 549 604 522T514 488Q426 450 382 391ZM828 1258Q779 1232 724 1232T633 1244T568 1276T515 1317T456 1370T395 1402Q313 1402 297 1314L284 1221H177Q190 1479 335 1556Q384 1582 439 1582T530 1570T595 1538T649 1497T708 1444T770 1412Q846 1412
864 1500L879 1593H987Q968 1332 828 1258Z" />
<glyph unicode="&#xe4;" glyph-name="adieresis" horiz-adv-x="1172" d="M955 239Q955 120 1002 120Q1047 120 1068 150T1089 261H1194Q1195 248 1195 220Q1195 130 1150 64Q1095 -20 975 -20Q897 -20 842 24T766 140Q621 -20 399 -20Q277 -20 187 51T96 251Q96
473 424 579Q632 645 673 670T726 722T739 782Q739 841 681 880T530 920T366 870Q416 833 416 775T378 682T285 647T195 680T159 772Q159 889 277 961T564 1034Q866 1034 933 838Q955 773 955 688V239ZM426 450T382 391T338 261T376 155T471 119Q587 119 663 200T739
428V582Q675 549 604 522T514 488Q426 450 382 391ZM822 1225Q758 1225 714 1268T669 1374Q669 1437 713 1481T822 1526Q886 1526 930 1482T975 1374Q975 1311 931 1268T822 1225ZM342 1225Q278 1225 234 1268T189 1374Q189 1437 233 1481T342 1526Q406 1526 450
1482T495 1374Q495 1311 451 1268T342 1225Z" />
<glyph unicode="&#xe5;" glyph-name="aring" horiz-adv-x="1172" d="M955 239Q955 120 1002 120Q1047 120 1068 150T1089 261H1194Q1195 248 1195 220Q1195 130 1150 64Q1095 -20 975 -20Q897 -20 842 24T766 140Q621 -20 399 -20Q277 -20 187 51T96 251Q96 473
424 579Q632 645 673 670T726 722T739 782Q739 841 681 880T530 920T366 870Q416 833 416 775T378 682T285 647T195 680T159 772Q159 889 277 961T564 1034Q866 1034 933 838Q955 773 955 688V239ZM426 450T382 391T338 261T376 155T471 119Q587 119 663 200T739
428V582Q675 549 604 522T514 488Q426 450 382 391ZM582 1174Q466 1174 386 1254T305 1451Q305 1567 386 1648T582 1729Q697 1729 778 1648T860 1451Q860 1336 779 1255T582 1174ZM582 1293Q664 1293 695 1384Q705 1414 705 1451Q705 1521 670 1564T582 1608Q500
1608 469 1517Q459 1488 459 1451Q459 1341 534 1304Q557 1293 582 1293Z" />
<glyph unicode="&#xe6;" glyph-name="ae" horiz-adv-x="1763" d="M817 184Q703 -20 418 -20Q287 -20 192 51T96 247T193 452T416 571T602 631T698 674T745 722T758 784Q758 848 707 886T575 924Q447 924 356 857Q403 821 403 759Q403 674 322 640Q298 630 258
630T182 665T146 760Q146 879 277 956T610 1034T902 920Q1029 1034 1227 1034Q1542 1034 1635 783Q1672 683 1672 545Q1672 501 1670 461H976Q976 290 1058 196T1242 101T1400 135T1489 233L1639 234Q1614 128 1507 54T1218 -20T900 91Q853 130 817 184ZM1439 611Q1439
917 1231 917Q1115 917 1049 826T976 574H1438Q1439 593 1439 611ZM758 582Q707 556 533 488Q336 416 336 268Q336 197 377 158T479 119Q599 119 678 200T758 428V582Z" />
<glyph unicode="&#xe7;" glyph-name="ccedilla" horiz-adv-x="1053" d="M674 -170Q674 -419 414 -419Q356 -419 308 -403T249 -379L256 -273Q306 -288 332 -288Q412 -288 454 -258Q543 -194 547 -19Q358 -12 235 105Q90 243 90 480T218 875T596 1034Q759 1034
868 955T977 751Q977 690 938 649T837 607Q750 607 717 688Q707 712 707 741Q707 810 766 849Q708 919 604 919Q409 919 350 697Q330 619 330 510Q330 307 408 204T603 101Q689 101 749 151T832 294H969Q969 188 886 100T659 -13Q674 -97 674 -170Z" />
<glyph unicode="&#xe8;" glyph-name="egrave" horiz-adv-x="1127" d="M1039 461H345Q345 289 426 195T628 101Q789 101 859 234L1008 235Q985 128 877 54T584 -20T266 94Q106 231 106 480T233 881T599 1034Q912 1034 1004 782Q1041 681 1041 591T1039 461ZM808
611Q808 917 600 917Q483 917 418 826T346 574H807Q808 593 808 611ZM695 1265Q698 1254 698 1240T685 1210T647 1194Q595 1194 558 1255L428 1471Q387 1540 387 1590Q387 1690 502 1690Q566 1690 594 1647T645 1501L695 1265Z" />
<glyph unicode="&#xe9;" glyph-name="eacute" horiz-adv-x="1127" d="M1039 461H345Q345 289 426 195T628 101Q789 101 859 234L1008 235Q985 128 877 54T584 -20T266 94Q106 231 106 480T233 881T599 1034Q912 1034 1004 782Q1041 681 1041 591T1039 461ZM808
611Q808 917 600 917Q483 917 418 826T346 574H807Q808 593 808 611ZM661 1255Q624 1194 572 1194Q548 1194 535 1209T521 1239T524 1265L574 1501Q596 1604 616 1635Q653 1690 712 1690Q832 1690 832 1593Q832 1540 791 1471L661 1255Z" />
<glyph unicode="&#xea;" glyph-name="ecircumflex" horiz-adv-x="1127" d="M1039 461H345Q345 289 426 195T628 101Q789 101 859 234L1008 235Q985 128 877 54T584 -20T266 94Q106 231 106 480T233 881T599 1034Q912 1034 1004 782Q1041 681 1041 591T1039 461ZM808
611Q808 917 600 917Q483 917 418 826T346 574H807Q808 593 808 611ZM376 1200Q340 1167 317 1167Q265 1167 265 1203Q265 1215 274 1229L547 1600H659L932 1229Q941 1215 941 1207Q941 1167 900 1167Q866 1167 830 1200L603 1375L376 1200Z" />
<glyph unicode="&#xeb;" glyph-name="edieresis" horiz-adv-x="1127" d="M1039 461H345Q345 289 426 195T628 101Q789 101 859 234L1008 235Q985 128 877 54T584 -20T266 94Q106 231 106 480T233 881T599 1034Q912 1034 1004 782Q1041 681 1041 591T1039 461ZM808
611Q808 917 600 917Q483 917 418 826T346 574H807Q808 593 808 611ZM843 1225Q779 1225 735 1268T690 1374Q690 1437 734 1481T843 1526Q907 1526 951 1482T996 1374Q996 1311 952 1268T843 1225ZM363 1225Q299 1225 255 1268T210 1374Q210 1437 254 1481T363
1526Q427 1526 471 1482T516 1374Q516 1311 472 1268T363 1225Z" />
<glyph unicode="&#xec;" glyph-name="igrave" horiz-adv-x="727" d="M137 110Q230 110 253 127T282 165T287 215V766Q287 838 275 860T207 882H135V992Q233 992 289 1006T368 1027T418 1034Q470 1034 486 1004T503 906V215Q503 152 523 136Q557 110 652 110V0H137V110ZM475
1265Q478 1254 478 1240T465 1210T427 1194Q375 1194 338 1255L208 1471Q167 1540 167 1590Q167 1690 282 1690Q346 1690 374 1647T425 1501L475 1265Z" />
<glyph unicode="&#xed;" glyph-name="iacute" horiz-adv-x="727" d="M137 110Q230 110 253 127T282 165T287 215V766Q287 838 275 860T207 882H135V992Q233 992 289 1006T368 1027T418 1034Q470 1034 486 1004T503 906V215Q503 152 523 136Q557 110 652 110V0H137V110ZM441
1255Q404 1194 352 1194Q328 1194 315 1209T301 1239T304 1265L354 1501Q376 1604 396 1635Q433 1690 492 1690Q612 1690 612 1593Q612 1540 571 1471L441 1255Z" />
<glyph unicode="&#xee;" glyph-name="icircumflex" horiz-adv-x="727" d="M137 110Q230 110 253 127T282 165T287 215V766Q287 838 275 860T207 882H135V992Q233 992 289 1006T368 1027T418 1034Q470 1034 486 1004T503 906V215Q503 152 523 136Q557 110 652 110V0H137V110ZM156
1200Q120 1167 97 1167Q45 1167 45 1203Q45 1215 54 1229L327 1600H439L712 1229Q721 1215 721 1207Q721 1167 680 1167Q646 1167 610 1200L383 1375L156 1200Z" />
<glyph unicode="&#xef;" glyph-name="idieresis" horiz-adv-x="747" d="M147 110Q240 110 263 127T292 165T297 215V766Q297 838 285 860T217 882H145V992Q243 992 299 1006T378 1027T428 1034Q480 1034 496 1004T513 906V215Q513 152 533 136Q567 110 662 110V0H147V110ZM633
1225Q569 1225 525 1268T480 1374Q480 1437 524 1481T633 1526Q697 1526 741 1482T786 1374Q786 1311 742 1268T633 1225ZM153 1225Q89 1225 45 1268T0 1374Q0 1437 44 1481T153 1526Q217 1526 261 1482T306 1374Q306 1311 262 1268T153 1225Z" />
<glyph unicode="&#xf0;" glyph-name="eth" horiz-adv-x="1136" d="M314 1625Q438 1604 578 1522L710 1664L797 1582L679 1455Q936 1250 1020 908Q1051 781 1051 662T1041 462T1008 309Q959 155 850 68T561 -20Q342 -16 215 121T87 502T213 889T578 1034Q718 1034
828 941Q807 1171 587 1357L437 1196L350 1278L488 1426Q370 1497 273 1524L314 1625ZM573 103Q829 103 829 516Q829 711 761 815T571 919T384 809T317 516Q317 228 454 136Q503 103 573 103Z" />
<glyph unicode="&#xf1;" glyph-name="ntilde" horiz-adv-x="1281" d="M702 884Q538 884 436 782V215Q436 153 456 137Q491 110 588 110V0H80V110Q166 110 188 127T215 165T220 215V760Q220 832 208 854T139 876H78V986Q172 986 225 1000T301 1021T350 1028Q403
1028 419 998T436 900Q543 990 684 1022Q731 1033 776 1033Q1100 1033 1100 604V217Q1100 151 1119 131T1223 110V0H750V110Q841 110 859 128T881 167T884 217V591Q884 730 858 782Q807 884 702 884ZM931 1258Q882 1232 827 1232T736 1244T671 1276T618 1317T559
1370T498 1402Q416 1402 400 1314L387 1221H280Q293 1479 438 1556Q487 1582 542 1582T633 1570T698 1538T752 1497T811 1444T873 1412Q949 1412 967 1500L982 1593H1090Q1071 1332 931 1258Z" />
<glyph unicode="&#xf2;" glyph-name="ograve" horiz-adv-x="1175" d="M100 512Q100 632 137 733T242 902Q374 1034 593 1034Q814 1034 949 902T1085 526T960 131T593 -20Q351 -20 226 126T100 512ZM593 100Q709 100 781 206T854 504Q854 813 698 890Q650 914 593
914Q408 914 352 690Q332 613 332 510Q332 312 404 206T593 100ZM679 1265Q682 1254 682 1240T669 1210T631 1194Q579 1194 542 1255L412 1471Q371 1540 371 1590Q371 1690 486 1690Q550 1690 578 1647T629 1501L679 1265Z" />
<glyph unicode="&#xf3;" glyph-name="oacute" horiz-adv-x="1175" d="M100 512Q100 632 137 733T242 902Q374 1034 593 1034Q814 1034 949 902T1085 526T960 131T593 -20Q351 -20 226 126T100 512ZM593 100Q709 100 781 206T854 504Q854 813 698 890Q650 914 593
914Q408 914 352 690Q332 613 332 510Q332 312 404 206T593 100ZM645 1255Q608 1194 556 1194Q532 1194 519 1209T505 1239T508 1265L558 1501Q580 1604 600 1635Q637 1690 696 1690Q816 1690 816 1593Q816 1540 775 1471L645 1255Z" />
<glyph unicode="&#xf4;" glyph-name="ocircumflex" horiz-adv-x="1175" d="M100 512Q100 632 137 733T242 902Q374 1034 593 1034Q814 1034 949 902T1085 526T960 131T593 -20Q351 -20 226 126T100 512ZM593 100Q709 100 781 206T854 504Q854 813 698 890Q650
914 593 914Q408 914 352 690Q332 613 332 510Q332 312 404 206T593 100ZM360 1200Q324 1167 301 1167Q249 1167 249 1203Q249 1215 258 1229L531 1600H643L916 1229Q925 1215 925 1207Q925 1167 884 1167Q850 1167 814 1200L587 1375L360 1200Z" />
<glyph unicode="&#xf5;" glyph-name="otilde" horiz-adv-x="1175" d="M100 512Q100 632 137 733T242 902Q374 1034 593 1034Q814 1034 949 902T1085 526T960 131T593 -20Q351 -20 226 126T100 512ZM593 100Q709 100 781 206T854 504Q854 813 698 890Q650 914 593
914Q408 914 352 690Q332 613 332 510Q332 312 404 206T593 100ZM833 1258Q784 1232 729 1232T638 1244T573 1276T520 1317T461 1370T400 1402Q318 1402 302 1314L289 1221H182Q195 1479 340 1556Q389 1582 444 1582T535 1570T600 1538T654 1497T713 1444T775 1412Q851
1412 869 1500L884 1593H992Q973 1332 833 1258Z" />
<glyph unicode="&#xf6;" glyph-name="odieresis" horiz-adv-x="1175" d="M100 512Q100 632 137 733T242 902Q374 1034 593 1034Q814 1034 949 902T1085 526T960 131T593 -20Q351 -20 226 126T100 512ZM593 100Q709 100 781 206T854 504Q854 813 698 890Q650 914
593 914Q408 914 352 690Q332 613 332 510Q332 312 404 206T593 100ZM827 1225Q763 1225 719 1268T674 1374Q674 1437 718 1481T827 1526Q891 1526 935 1482T980 1374Q980 1311 936 1268T827 1225ZM347 1225Q283 1225 239 1268T194 1374Q194 1437 238 1481T347
1526Q411 1526 455 1482T500 1374Q500 1311 456 1268T347 1225Z" />
<glyph unicode="&#xf7;" glyph-name="divide" horiz-adv-x="1360" d="M678 960Q606 960 556 1010T505 1133Q505 1205 555 1255T678 1306Q750 1306 800 1256T851 1133Q851 1061 801 1011T678 960ZM127 761H1228V598H127V761ZM505 233Q505 305 555 355T678 406Q750
406 800 356T851 233Q851 161 801 111T678 60Q606 60 556 110T505 233Z" />
<glyph unicode="&#xf8;" glyph-name="oslash" horiz-adv-x="1175" d="M585 -20Q449 -20 341 36L251 -103L169 -46L259 93Q100 233 100 496T237 897T593 1034Q727 1034 835 982L919 1112L1001 1055L919 928Q1085 790 1085 506Q1085 282 960 131T585 -20ZM593 914Q332
914 332 488Q332 364 372 267L751 852Q689 914 593 914ZM430 173Q497 100 603 100T781 206T854 485T811 761L430 173Z" />
<glyph unicode="&#xf9;" glyph-name="ugrave" horiz-adv-x="1200" d="M823 164Q698 -20 489 -20Q338 -20 254 73T170 351V766Q170 838 158 860T90 882H64V992Q156 992 197 1006T257 1027T301 1034Q352 1034 369 1003T386 902V344Q386 234 409 194Q453 117 560
117Q632 117 702 174T801 307V766Q799 840 787 861T720 882H663V992Q758 992 809 1006T883 1027T931 1034Q982 1034 999 1004T1017 906V266Q1017 169 1026 146Q1042 102 1106 102Q1140 102 1164 113V16Q1116 -20 1033 -20Q859 -20 823 164ZM672 1265Q675 1254 675
1240T662 1210T624 1194Q572 1194 535 1255L405 1471Q364 1540 364 1590Q364 1690 479 1690Q543 1690 571 1647T622 1501L672 1265Z" />
<glyph unicode="&#xfa;" glyph-name="uacute" horiz-adv-x="1200" d="M823 164Q698 -20 489 -20Q338 -20 254 73T170 351V766Q170 838 158 860T90 882H64V992Q156 992 197 1006T257 1027T301 1034Q352 1034 369 1003T386 902V344Q386 234 409 194Q453 117 560
117Q632 117 702 174T801 307V766Q799 840 787 861T720 882H663V992Q758 992 809 1006T883 1027T931 1034Q982 1034 999 1004T1017 906V266Q1017 169 1026 146Q1042 102 1106 102Q1140 102 1164 113V16Q1116 -20 1033 -20Q859 -20 823 164ZM638 1255Q601 1194 549
1194Q525 1194 512 1209T498 1239T501 1265L551 1501Q573 1604 593 1635Q630 1690 689 1690Q809 1690 809 1593Q809 1540 768 1471L638 1255Z" />
<glyph unicode="&#xfb;" glyph-name="ucircumflex" horiz-adv-x="1200" d="M823 164Q698 -20 489 -20Q338 -20 254 73T170 351V766Q170 838 158 860T90 882H64V992Q156 992 197 1006T257 1027T301 1034Q352 1034 369 1003T386 902V344Q386 234 409 194Q453 117
560 117Q632 117 702 174T801 307V766Q799 840 787 861T720 882H663V992Q758 992 809 1006T883 1027T931 1034Q982 1034 999 1004T1017 906V266Q1017 169 1026 146Q1042 102 1106 102Q1140 102 1164 113V16Q1116 -20 1033 -20Q859 -20 823 164ZM353 1200Q317 1167
294 1167Q242 1167 242 1203Q242 1215 251 1229L524 1600H636L909 1229Q918 1215 918 1207Q918 1167 877 1167Q843 1167 807 1200L580 1375L353 1200Z" />
<glyph unicode="&#xfc;" glyph-name="udieresis" horiz-adv-x="1200" d="M823 164Q698 -20 489 -20Q338 -20 254 73T170 351V766Q170 838 158 860T90 882H64V992Q156 992 197 1006T257 1027T301 1034Q352 1034 369 1003T386 902V344Q386 234 409 194Q453 117 560
117Q632 117 702 174T801 307V766Q799 840 787 861T720 882H663V992Q758 992 809 1006T883 1027T931 1034Q982 1034 999 1004T1017 906V266Q1017 169 1026 146Q1042 102 1106 102Q1140 102 1164 113V16Q1116 -20 1033 -20Q859 -20 823 164ZM820 1225Q756 1225 712
1268T667 1374Q667 1437 711 1481T820 1526Q884 1526 928 1482T973 1374Q973 1311 929 1268T820 1225ZM340 1225Q276 1225 232 1268T187 1374Q187 1437 231 1481T340 1526Q404 1526 448 1482T493 1374Q493 1311 449 1268T340 1225Z" />
<glyph unicode="&#xfd;" glyph-name="yacute" horiz-adv-x="1152" d="M287 -386Q313 -391 330 -391T372 -374T420 -330Q465 -279 497 -206T530 -91T520 -27T495 11T465 44T439 87L149 797Q128 859 105 881T4 904V1014H542V904Q427 904 403 886T378 847T387 797L636
117L889 797Q912 855 875 879T718 904V1014H1184V904Q1118 904 1085 878T1030 797L762 82Q727 3 696 -72T633 -213Q562 -360 479 -435T286 -510T115 -456T55 -330T95 -216T195 -174Q281 -174 314 -250Q324 -273 324 -299Q324 -349 287 -386ZM684 1255Q647 1194
595 1194Q571 1194 558 1209T544 1239T547 1265L597 1501Q619 1604 639 1635Q676 1690 735 1690Q855 1690 855 1593Q855 1540 814 1471L684 1255Z" />
<glyph unicode="&#xfe;" glyph-name="thorn" horiz-adv-x="1207" d="M620 -20Q489 -20 379 70V-265Q379 -342 412 -361T582 -380V-490H23V-380Q109 -380 131 -363T158 -325T163 -275V1291Q163 1363 151 1385T82 1407H11V1517Q108 1517 163 1531T242 1552T293 1559Q346
1559 362 1529T379 1431V927Q505 1034 667 1034Q875 1034 997 902T1120 524T995 130T620 -20ZM374 678T374 495T445 206T635 100Q753 100 820 208T887 498Q887 786 753 880Q705 913 639 913T524 881T442 793Q374 678 374 495Z" />
<glyph unicode="&#xff;" glyph-name="ydieresis" horiz-adv-x="1152" d="M287 -386Q313 -391 330 -391T372 -374T420 -330Q465 -279 497 -206T530 -91T520 -27T495 11T465 44T439 87L149 797Q128 859 105 881T4 904V1014H542V904Q427 904 403 886T378 847T387
797L636 117L889 797Q912 855 875 879T718 904V1014H1184V904Q1118 904 1085 878T1030 797L762 82Q727 3 696 -72T633 -213Q562 -360 479 -435T286 -510T115 -456T55 -330T95 -216T195 -174Q281 -174 314 -250Q324 -273 324 -299Q324 -349 287 -386ZM866 1225Q802
1225 758 1268T713 1374Q713 1437 757 1481T866 1526Q930 1526 974 1482T1019 1374Q1019 1311 975 1268T866 1225ZM386 1225Q322 1225 278 1268T233 1374Q233 1437 277 1481T386 1526Q450 1526 494 1482T539 1374Q539 1311 495 1268T386 1225Z" />
<glyph unicode="&#x2013;" glyph-name="endash" horiz-adv-x="1512" d="M120 611H1392V448H120V611Z" />
<glyph unicode="&#x2014;" glyph-name="emdash" horiz-adv-x="2252" d="M120 611H2132V448H120V611Z" />
<glyph unicode="&#x2018;" glyph-name="quoteleft" horiz-adv-x="680" d="M524 1177T473 1126T367 1075Q271 1075 224 1133T176 1286Q176 1476 281 1603T558 1760L605 1692Q451 1642 394 1556Q371 1522 371 1504Q371 1446 403 1424T456 1384T491 1346Q524 1302 524 1240Z" />
<glyph unicode="&#x2019;" glyph-name="quoteright" horiz-adv-x="652" d="M178 1428T229 1479T335 1530Q431 1530 478 1472T526 1319Q526 1129 421 1002T144 845L97 913Q251 963 308 1049Q331 1083 331 1101Q331 1159 299 1181T246 1221T211 1259Q178 1303 178 1365Z" />
<glyph unicode="&#x201a;" glyph-name="quotesinglbase" horiz-adv-x="680" d="M167 243T218 294T324 345Q420 345 467 287T515 134Q515 -56 410 -183T133 -340L86 -272Q240 -222 297 -136Q320 -102 320 -84Q320 -26 288 -4T235 36T200 74Q167 118 167 180Z" />
<glyph unicode="&#x201c;" glyph-name="quotedblleft" horiz-adv-x="1240" d="M474 1177T423 1126T317 1075Q221 1075 174 1133T126 1286Q126 1476 231 1603T508 1760L555 1692Q401 1642 344 1556Q321 1522 321 1504Q321 1446 353 1424T406 1384T441 1346Q474
1302 474 1240ZM1034 1177T983 1126T877 1075Q781 1075 734 1133T686 1286Q686 1476 791 1603T1068 1760L1115 1692Q961 1642 904 1556Q881 1522 881 1504Q881 1446 913 1424T966 1384T1001 1346Q1034 1302 1034 1240Z" />
<glyph unicode="&#x201d;" glyph-name="quotedblright" horiz-adv-x="1240" d="M206 1408T257 1459T363 1510Q459 1510 506 1452T554 1299Q554 1109 449 982T172 825L125 893Q279 943 336 1029Q359 1063 359 1081Q359 1139 327 1161T274 1201T239 1239Q206 1283
206 1345ZM766 1408T817 1459T923 1510Q1019 1510 1066 1452T1114 1299Q1114 1109 1009 982T732 825L685 893Q839 943 896 1029Q919 1063 919 1081Q919 1139 887 1161T834 1201T799 1239Q766 1283 766 1345Z" />
<glyph unicode="&#x201e;" glyph-name="quotedblbase" horiz-adv-x="1240" d="M206 243T257 294T363 345Q459 345 506 287T554 134Q554 -56 449 -183T172 -340L125 -272Q279 -222 336 -136Q359 -102 359 -84Q359 -26 327 -4T274 36T239 74Q206 118 206 180ZM766
243T817 294T923 345Q1019 345 1066 287T1114 134Q1114 -56 1009 -183T732 -340L685 -272Q839 -222 896 -136Q919 -102 919 -84Q919 -26 887 -4T834 36T799 74Q766 118 766 180Z" />
<glyph unicode="&#x2022;" glyph-name="bullet" horiz-adv-x="855" d="M326 444T257 512T187 678T256 846T424 917T593 847T664 679T594 513T425 444Z" />
<glyph unicode="&#x2039;" glyph-name="guilsinglleft" horiz-adv-x="826" d="M139 547L700 1028V904L408 514L700 125V1L139 482V547Z" />
<glyph unicode="&#x203a;" glyph-name="guilsinglright" horiz-adv-x="826" d="M687 547L126 1028V904L418 514L126 125V1L687 482V547Z" />
</font>
</defs>
</svg>
