<?xml version="1.0" standalone="no"?>
<!DOCTYPE svg PUBLIC "-//W3C//DTD SVG 1.1//EN" "http://www.w3.org/Graphics/SVG/1.1/DTD/svg11.dtd">
<svg xmlns="http://www.w3.org/2000/svg">
<defs >
<font id="AllertaStencil" horiz-adv-x="577" ><font-face
    font-family="Allerta Stencil"
    units-per-em="1024"
    panose-1="0 0 0 0 0 0 0 0 0 0"
    ascent="1057"
    descent="-252"
    alphabetic="0" />
<glyph unicode=" " glyph-name="space" horiz-adv-x="274" />
<glyph unicode="!" glyph-name="exclam" horiz-adv-x="292" d="M190 204H101L85 737H207L190 204ZM218 68Q218 38 197 17T146 -4Q116 -4 96 17T75 68Q75 98 96 118T146 139Q176 139 197 119T218 68Z" />
<glyph unicode="&quot;" glyph-name="quotedbl" horiz-adv-x="449" d="M167 564H98L82 737H183L167 564ZM351 564H283L266 737H368L351 564Z" />
<glyph unicode="$" glyph-name="dollar" horiz-adv-x="542" d="M200 547Q200 507 223 483T280 440T354 404T428 361T486 299T509 202Q509 167 497 134T461 74T404 28T328 1V-97H247V-3Q204 -1 158 11T81 49L102 135Q116 127 137 120T182 106T228 95T271 91Q332
91 364 119T397 204Q397 238 374 262T317 305T242 344T167 390T109 453T86 543Q86 584 99 618T136 677T190 719T258 743V829H339V748Q378 746 416 738T478 713Q472 700 464 685T449 656T437 633T431 623Q425 626 418 631T396 641T359 648T300 647Q280 645 262 636T230
612T208 581T200 547Z" />
<glyph unicode="%" glyph-name="percent" horiz-adv-x="805" d="M169 449Q146 453 127 465T93 497T69 541T60 595Q60 624 69 648T93 692T127 723T169 739V677Q150 670 137 649T124 595Q124 562 137 541T169 512V449ZM315 595Q315 539 285 499T210 450V513Q229
521 241 541T253 595Q253 627 241 647T210 676V739Q255 730 285 691T315 595ZM479 143Q479 198 508 237T581 287V222Q564 213 554 193T543 143Q543 113 553 93T581 63V-1Q538 9 509 48T479 143ZM742 737L159 -1H57L641 737H742ZM622 289Q646 286 666 274T701 242T725
198T734 143Q734 113 726 88T702 44T666 13T622 -3V59Q644 64 658 86T672 143Q672 177 658 199T622 226V289Z" />
<glyph unicode="&amp;" glyph-name="ampersand" horiz-adv-x="705" d="M653 0H528L459 86Q433 52 395 29T306 -3V85Q345 96 367 118T404 159Q380 188 355 217T306 273V442Q350 464 372 498T394 566Q394 605 369 625T306 647V744Q341 744 373 734T431 701T472 646T487
568Q485 529 473 498T442 441T399 398T352 367Q371 340 401 308T458 245Q469 262 479 280T501 325L579 293Q568 261 552 230T518 168L653 0ZM122 575Q122 606 132 633T161 682T206 720T265 741V639Q246 631 233 614T219 575Q219 540 233 514T265 469V318Q215 285
193 247T170 173Q170 162 174 146T190 116T218 91T262 80H265V-7H252Q220 -7 189 3T131 35T89 91T73 173Q73 213 85 247T117 308T162 358T214 397Q202 409 186 426T156 466T132 515T122 575Z" />
<glyph unicode="&apos;" glyph-name="quotesingle" horiz-adv-x="250" d="M160 564H91L75 737H176L160 564Z" />
<glyph unicode="(" glyph-name="parenleft" horiz-adv-x="294" d="M171 -61Q149 -33 129 15T94 121T68 243T58 361Q58 413 67 472T89 586T121 687T159 757H222Q214 746 201 713T175 626T152 502T140 341Q139 263 151 195T180 75T213 -13T240 -61H171Z" />
<glyph unicode=")" glyph-name="parenright" horiz-adv-x="293" d="M54 -61Q63 -49 80 -14T114 74T143 195T154 341Q153 430 143 501T119 626T93 712T72 757H135Q153 732 171 687T204 587T227 473T236 361Q236 306 226 243T201 122T165 15T123 -61H54Z" />
<glyph unicode="*" glyph-name="asterisk" horiz-adv-x="467" d="M392 481L270 527L315 404L242 385L220 513L137 413L84 466L184 550L55 571L76 645L198 599L153 721L226 741L248 613L331 714L384 659L284 577L413 555L392 481Z" />
<glyph unicode="+" glyph-name="plus" horiz-adv-x="648" d="M606 231H375V0H273V231H42V333H273V564H375V333H606V231Z" />
<glyph unicode="," glyph-name="comma" horiz-adv-x="270" d="M136 139Q166 139 187 118T208 68Q208 63 207 45T198 0T170 -58T114 -120H67Q87 -101 100 -80T121 -42Q130 -23 136 -4Q106 -4 86 17T65 68Q65 98 85 118T136 139Z" />
<glyph unicode="-" glyph-name="hyphen" horiz-adv-x="489" d="M404 343V242H86V343H404Z" />
<glyph unicode="." glyph-name="period" horiz-adv-x="207" d="M176 68Q176 38 155 17T104 -4Q74 -4 54 17T33 68Q33 98 54 118T104 139Q134 139 155 119T176 68Z" />
<glyph unicode="/" glyph-name="slash" horiz-adv-x="454" d="M115 -22H34L341 799H422L115 -22Z" />
<glyph unicode="0" glyph-name="zero" horiz-adv-x="712" d="M359 650Q322 650 292 636T241 589T209 502T196 372Q197 311 204 264T225 184L170 67Q124 114 99 189T74 372Q74 465 93 535T149 653T238 724T356 749Q425 749 477 723L433 629Q400 650 359 650ZM539
680Q588 634 613 557T639 372Q639 279 620 208T563 90T474 19T356 -5Q285 -5 230 23L275 118Q306 93 353 93Q390 93 420 107T472 155T504 241T517 372Q516 435 508 482T485 562Q484 563 484 564L539 680Z" />
<glyph unicode="1" glyph-name="one" horiz-adv-x="422" d="M338 0H216V565L115 464L29 550L216 737H338V0Z" />
<glyph unicode="2" glyph-name="two" horiz-adv-x="614" d="M534 518Q534 479 517 438T472 356T411 277T344 205T281 144T232 97H545V0H87V112Q105 128 137 155T206 217T280 289T347 367T397 445T417 517Q417 552 405 575T373 614T332 635T289 641Q250 641 225
639T180 632T146 619T114 601L79 675Q97 691 123 704T178 725T235 737T287 742Q352 742 398 721T475 668T519 595T534 518Z" />
<glyph unicode="3" glyph-name="three" horiz-adv-x="578" d="M367 388Q390 385 414 373T460 339T495 286T509 213Q509 163 495 127T458 66T409 28T355 6T308 -3T274 -5Q190 -5 142 6T74 30L101 116Q110 111 118 105T141 94T183 85T257 81Q326 81 360 118T394
213Q394 267 363 304T272 341H170H171L170 422H238Q260 422 282 423T325 434T358 468T371 537Q371 555 368 575T352 612T312 639T240 650Q194 650 167 642T125 628L90 718Q114 725 149 733T252 741Q299 741 341 730T414 693T464 629T483 537Q483 506 472 481T444
436T406 405T367 388Z" />
<glyph unicode="4" glyph-name="four" horiz-adv-x="621" d="M479 267H556V172H479V0H357V737H479V267ZM38 172V267L316 677V534L145 267H316V172H38Z" />
<glyph unicode="5" glyph-name="five" horiz-adv-x="605" d="M305 458Q357 458 398 440T469 390T513 320T528 239Q528 157 501 109T435 35T352 2T278 -5Q244 -5 213 0T157 14T112 31T83 45V145Q97 136 118 126T164 106T214 90T264 84Q338 84 380 122T422 239Q422
296 386 329T290 362Q271 362 252 360T216 352L228 451Q248 455 270 456T305 458ZM172 326H78Q78 334 80 356T85 408T92 475T100 548Q110 634 123 737H488V639H213Q203 565 197 524T189 463T186 439T185 433L177 366L172 326Z" />
<glyph unicode="6" glyph-name="six" horiz-adv-x="646" d="M351 649Q310 649 280 631T231 583T201 514T191 433Q192 434 195 434T199 435Q210 457 241 474T314 497V409Q286 406 263 394T223 361T196 313T186 253Q186 220 196 192T223 143T263 109T314 92V-6Q253
-3 208 20T132 82T87 175T73 291Q73 423 97 510T159 649T245 721T340 742Q396 742 445 735T530 705L492 622Q464 640 430 644T351 649ZM355 499Q405 497 446 476T516 421T560 346T575 263Q575 192 555 143T501 62T429 15T355 -5V93Q405 103 437 146T470 253Q470
314 438 356T355 408V499Z" />
<glyph unicode="7" glyph-name="seven" horiz-adv-x="569" d="M128 0L384 639H63V737H526L240 0H128Z" />
<glyph unicode="8" glyph-name="eight" horiz-adv-x="607" d="M95 551Q95 594 110 628T150 686T209 723T284 741V644Q245 638 222 615T198 549Q198 522 222 500T284 457V336L268 345Q255 334 240 320T211 288T189 247T179 197Q179 155 208 125T284 87V-8Q182 -2
127 50T72 191Q72 265 106 315T197 391Q154 422 125 460T95 551ZM402 388Q429 371 453 352T496 309T526 257T537 196Q537 150 520 113T474 50T407 9T325 -9V86Q348 88 366 97T399 119T421 149T429 182Q429 222 399 252T325 310V434Q329 431 337 427Q363 449 385
479T407 551Q407 603 383 623T325 645V742Q375 740 410 724T467 682T499 622T509 553Q509 529 500 507T475 463T441 423T402 388Z" />
<glyph unicode="9" glyph-name="nine" horiz-adv-x="645" d="M291 238Q240 239 199 261T129 316T85 390T70 473Q70 544 91 593T145 674T216 721T291 740V643Q240 633 208 590T175 483Q175 421 207 379T291 329V238ZM332 742Q393 739 438 716T513 654T558 561T572
445Q572 313 548 226T486 88T400 16T305 -5Q249 -5 200 2T115 34L154 117Q182 99 215 94T294 89Q335 89 365 107T414 154T444 222T454 303Q453 302 450 302T446 301Q435 279 405 262T332 240V328Q360 331 383 343T422 376T449 423T459 483Q459 516 449 544T423
593T383 627T332 644V742Z" />
<glyph unicode=":" glyph-name="colon" horiz-adv-x="294" d="M220 498Q220 468 199 447T148 426Q118 426 98 447T77 498Q77 528 98 548T148 569Q178 569 199 549T220 498ZM220 67Q220 37 199 16T148 -5Q118 -5 98 16T77 67Q77 97 98 117T148 138Q178 138 199
118T220 67Z" />
<glyph unicode=";" glyph-name="semicolon" horiz-adv-x="274" d="M167 139T188 119T209 68Q209 62 208 44T199 0T171 -58T115 -120H68Q88 -100 101 -80T122 -42Q131 -22 137 -4Q108 -4 87 17T66 68Q66 97 86 118T137 139Q167 139 188 119ZM209 498Q209 468 188
447T137 426Q107 426 87 447T66 498Q66 528 87 548T137 569Q167 569 188 549T209 498Z" />
<glyph unicode="&lt;" glyph-name="less" horiz-adv-x="645" d="M561 84V-6L29 254V322L561 579V489L123 288L561 84Z" />
<glyph unicode="=" glyph-name="equal" horiz-adv-x="638" d="M553 444V343H86V444H553ZM553 242V140H86V242H553Z" />
<glyph unicode="&gt;" glyph-name="greater" horiz-adv-x="647" d="M86 84L524 288L86 489V579L618 322V254L86 -6V84Z" />
<glyph unicode="?" glyph-name="question" horiz-adv-x="507" d="M241 203H150Q150 262 164 299T200 362T247 404T295 439T331 482T346 547Q346 563 338 580T316 612T284 635T246 647Q210 650 187 648T150 641T129 631T115 623Q114 624 109 633T97 655T82 684T68
713Q98 732 144 740T237 749Q281 749 321 735T392 695T441 630T460 543Q460 490 444 455T403 395T351 352T298 314T257 268T241 203ZM267 68Q267 38 246 17T196 -4Q166 -4 145 17T124 68Q124 98 145 118T196 139Q226 139 246 119T267 68Z" />
<glyph unicode="@" glyph-name="at" horiz-adv-x="1040" d="M74 301Q74 412 103 499T187 649T317 748T485 796V697Q404 687 345 653T248 566T190 446T171 301Q171 231 190 172T236 66T291 -11T337 -53L281 -120Q250 -94 214 -52T146 44T95 164T74 301ZM311 307Q311
365 327 406T367 473T423 511T485 525V449Q449 437 430 395T411 300Q411 248 431 209T485 157V78H483Q440 78 408 97T355 147T322 220T311 307ZM552 799Q658 799 739 761T874 658T956 511T984 338Q984 275 969 224T925 136T855 80T763 60Q746 60 724 65T682 80T645
103T620 134H610Q607 118 584 104T526 82V153Q569 160 592 202T616 301Q616 359 592 401T526 452V522Q554 517 576 506T610 477L621 521H706L707 230Q707 205 714 190T731 165T753 151T776 147Q832 147 859 193T887 338Q887 419 863 485T794 600T689 674T552 701Q546
701 539 701T526 700V798Q532 799 539 799T552 799Z" />
<glyph unicode="A" glyph-name="A" horiz-adv-x="759" d="M696 0H572L381 552L188 0H63L321 736H440L696 0ZM447 234L476 153H285L313 234H447Z" />
<glyph unicode="B" glyph-name="B" horiz-adv-x="671" d="M444 388Q467 385 493 373T541 339T579 286T594 213Q594 163 579 127T542 68T493 31T442 10T398 2T373 0H257V88H366Q419 88 449 122T479 213Q479 267 448 304T357 341H257V422H305Q327 422 350 423T393
434T425 468T438 537Q438 555 433 574T413 610T370 636T296 646H257V737H308Q355 737 399 726T477 691T531 629T551 537Q551 506 541 481T516 436T482 405T444 388ZM96 737H216V0H96V737Z" />
<glyph unicode="C" glyph-name="C" horiz-adv-x="671" d="M508 595Q485 621 459 634T403 649V748Q515 743 591 669L508 595ZM403 94Q433 97 459 110T508 148L591 75Q553 38 506 18T403 -5V94ZM79 372Q79 461 100 529T160 644T249 717T362 748V648Q329 643 300
626T249 575T215 492T201 372Q202 302 214 252T249 168T300 116T362 94V-4Q301 0 250 26T160 99T101 214T79 372Z" />
<glyph unicode="D" glyph-name="D" horiz-adv-x="770" d="M96 737H216V0H96V737ZM318 737Q411 737 481 708T598 629T668 518T691 389Q691 298 672 234T622 126T555 57T482 20T418 4T375 0H257V88H335Q457 88 511 166T565 392Q565 438 554 483T512 564T426 623T286
646H257V737H318Z" />
<glyph unicode="E" glyph-name="E" horiz-adv-x="628" d="M95 737H217V0H95V737ZM525 332H258V414H525V332ZM258 91H556V0H258V91ZM556 737V646H258V737H556Z" />
<glyph unicode="F" glyph-name="F" horiz-adv-x="591" d="M95 737H217V0H95V737ZM525 332H258V414H525V332ZM556 737V646H258V737H556Z" />
<glyph unicode="G" glyph-name="G" horiz-adv-x="710" d="M508 595Q484 624 453 637T389 650H385V749H386Q446 749 498 729T591 669L508 595ZM79 372Q79 458 99 524T154 637T238 711T344 745V645Q314 637 289 618T244 566T213 485T201 372Q202 307 213 258T243
174T288 117T344 88V-3Q287 4 238 31T154 106T99 219T79 372ZM629 380V95Q606 66 578 48T518 17T453 0T386 -5H385V83Q397 83 414 84T450 89T485 99T510 116V298H385V380H629Z" />
<glyph unicode="H" glyph-name="H" horiz-adv-x="749" d="M655 737V0H535V332H257V414H535V737H655ZM94 737H216V0H94V737Z" />
<glyph unicode="I" glyph-name="I" horiz-adv-x="308" d="M216 0H94V737H216V0Z" />
<glyph unicode="J" glyph-name="J" horiz-adv-x="565" d="M477 752V178Q477 126 458 91T407 34T334 4T248 -5Q226 -5 197 -1T136 13T75 35T26 62L77 143Q87 136 105 129T146 115T192 103T237 98Q290 98 321 118T355 188V752H477Z" />
<glyph unicode="K" glyph-name="K" horiz-adv-x="668" d="M93 0V737H215V0H93ZM336 358L592 0H453L256 290V436L435 737H572L336 358Z" />
<glyph unicode="L" glyph-name="L" horiz-adv-x="584" d="M215 737V91H554V0H93V737H215Z" />
<glyph unicode="M" glyph-name="M" horiz-adv-x="865" d="M92 737H214L412 282V97H380L214 507V0H92V737ZM651 737H773V0H651V507L486 97H453V280L651 737Z" />
<glyph unicode="N" glyph-name="N" horiz-adv-x="716" d="M503 737H625V0H503L255 436V666L503 229V737ZM92 0V737H214V0H92Z" />
<glyph unicode="O" glyph-name="O" horiz-adv-x="768" d="M77 372Q77 461 98 529T158 645T249 718T364 748V648Q330 644 300 627T248 577T213 493T199 372Q200 301 213 251T248 166T301 115T364 94V-5Q303 -1 250 24T159 97T99 214T77 372ZM404 748Q465 745 517
719T608 646T669 530T691 372Q691 283 669 214T609 98T518 25T404 -5V94Q438 98 468 115T520 166T555 250T569 372Q568 443 555 493T520 577T467 628T404 649V748Z" />
<glyph unicode="P" glyph-name="P" horiz-adv-x="605" d="M91 737H211V0H91V737ZM303 737Q350 737 396 722T478 677T537 605T560 509Q560 453 541 408T488 331T406 283T300 266H252V354H321Q343 354 364 361T404 386T433 433T444 509Q444 527 439 550T419 595T375
631T301 646H252V737H303Z" />
<glyph unicode="Q" glyph-name="Q" horiz-adv-x="749" d="M63 372Q63 461 84 529T144 645T236 718T350 748V648Q316 644 287 627T235 577T200 493T185 372Q186 301 199 251T235 166T287 115T350 94V-3H332Q274 4 225 31T139 105T83 219T63 372ZM678 372Q678 296
660 234T611 125T539 48T452 9L590 -169H458L391 -54V94Q425 98 454 115T506 166T541 250T556 372Q555 443 542 493T506 577T454 628T391 649V748Q452 745 504 719T595 646T656 530T678 372Z" />
<glyph unicode="R" glyph-name="R" horiz-adv-x="660" d="M90 737H210V0H90V737ZM590 0H463L324 267Q321 267 318 267T307 266T287 266T251 266V354H319Q341 354 363 361T403 386T432 433T443 509Q443 527 438 550T418 595T374 631T300 646H251V737H302Q349 737
395 722T477 677T536 605T559 509Q559 429 522 373T422 290L590 0Z" />
<glyph unicode="S" glyph-name="S" horiz-adv-x="542" d="M431 623Q426 625 419 630T399 639T366 647T315 648V749Q359 748 404 740T478 713Q472 700 464 685T449 656T437 633T431 623ZM86 543Q86 587 101 622T141 683T201 725T274 746V641Q242 630 221 603T200
547Q200 508 221 484T274 442V328Q241 344 208 362T148 406T104 464T86 543ZM102 135Q116 127 137 120T182 106T228 95T271 91H274V-4H272Q248 -4 223 -2T171 7T122 23T81 49L102 135ZM315 422Q348 407 382 390T445 349T491 289T509 202Q509 166 496 132T458 71T397
24T315 -1V95Q397 115 397 204Q397 239 374 262T315 305V422Z" />
<glyph unicode="T" glyph-name="T" horiz-adv-x="663" d="M612 737V655H392V0H271V655H51V737H612Z" />
<glyph unicode="U" glyph-name="U" horiz-adv-x="737" d="M204 384Q204 307 214 254T243 166T288 114T348 94V-5Q287 -1 238 24T154 97T101 214T82 372V737H204V384ZM655 737V372Q655 283 636 214T583 98T499 25T389 -5V94Q422 98 448 114T494 165T523 252T534
384V737H655Z" />
<glyph unicode="V" glyph-name="V" horiz-adv-x="743" d="M60 737H197L352 159V-4H289L60 737ZM549 737H685L445 -4H393V191L549 737Z" />
<glyph unicode="W" glyph-name="W" horiz-adv-x="1093" d="M339 101L479 737H526V470L417 -4H260L73 737H209L339 101ZM886 737H1022L823 -4H667L567 451V737H615L745 101L886 737Z" />
<glyph unicode="X" glyph-name="X" horiz-adv-x="702" d="M74 737H211L331 461V232L225 0H86L273 358L74 737ZM629 737L430 358L617 0H478L372 253V481L492 737H629Z" />
<glyph unicode="Y" glyph-name="Y" horiz-adv-x="655" d="M466 737H603L384 300V0H262V246L466 737ZM191 737L302 450L248 319L54 737H191Z" />
<glyph unicode="Z" glyph-name="Z" horiz-adv-x="645" d="M568 737V640L217 113L197 97H568V0H78V97L429 624L450 640H78V737H568Z" />
<glyph unicode="[" glyph-name="bracketleft" horiz-adv-x="327" d="M270 676H167V19H270V-61H86V757H270V676Z" />
<glyph unicode="\" glyph-name="backslash" horiz-adv-x="455" d="M34 799H115L422 -22H341L34 799Z" />
<glyph unicode="]" glyph-name="bracketright" horiz-adv-x="327" d="M86 676V757H270V-61H86V19H189V676H86Z" />
<glyph unicode="`" glyph-name="grave" horiz-adv-x="224" d="M24 777H145L213 635H132L24 777Z" />
<glyph unicode="a" glyph-name="a" horiz-adv-x="600" d="M184 170Q184 125 202 103T256 77V-4Q252 -5 243 -5Q209 -5 178 4T122 33T85 86T71 167Q71 213 90 246T140 301T210 333T289 344H333V273H311Q291 273 269 269T228 254T197 223T184 170ZM495 167Q495 159
496 144T500 112T509 83T527 66L495 -1Q482 -1 468 5T440 22T417 46T402 76Q392 51 363 32T297 3V79Q321 84 340 98T374 133V344Q374 393 369 422T352 464T323 481T281 485Q259 485 240 480T204 467T175 450T156 436L111 505Q121 516 141 527T187 548T243 562T307
568Q337 568 365 562T417 542T458 505T483 446Q490 411 492 376T495 305V175V167Z" />
<glyph unicode="b" glyph-name="b" horiz-adv-x="641" d="M86 777H207V67Q206 53 204 35T201 0H86V777ZM579 393Q591 347 591 292Q591 235 578 181T537 86T468 20T370 -5Q335 -5 303 3T248 25V129Q263 112 283 101T329 90Q359 90 383 105T425 145T453 206T464
281Q464 320 455 355T429 417T388 460T334 476Q308 476 287 466T248 435V542Q271 555 299 562T357 569Q390 569 424 560T487 530T541 475T579 393Z" />
<glyph unicode="c" glyph-name="c" horiz-adv-x="585" d="M461 418Q446 436 420 451T349 470V566Q404 563 443 543T515 483L461 418ZM349 95Q385 99 410 112T459 144L504 79Q473 40 437 20T349 -4V95ZM70 282Q70 339 86 389T135 477T210 538T308 566V469Q258 458
228 408T198 285Q198 248 205 216T227 158T261 116T308 95V-4Q253 -1 209 22T134 84T87 174T70 282Z" />
<glyph unicode="d" glyph-name="d" horiz-adv-x="641" d="M556 777V0H441L434 67V777H556ZM50 290Q50 368 71 421T127 507T202 554T284 569Q315 569 343 562T393 542V436Q376 454 355 465T308 476Q277 476 253 461T213 418T187 356T178 281Q178 241 188 207T215
146T256 105T310 90Q359 90 393 129V25Q369 12 338 4T271 -5Q231 -5 193 9T124 57Q86 100 68 163T50 290Z" />
<glyph unicode="e" glyph-name="e" horiz-adv-x="664" d="M348 569Q402 564 445 540T520 478T567 391T584 289Q584 265 581 241H238V329H469Q469 355 461 379T436 423T397 458T348 475V569ZM344 94Q355 94 371 96T406 105T443 122T476 146L520 79Q487 38 443 17T331
-4Q276 -4 228 18T146 80T92 171T72 283Q72 340 90 391T141 480T215 543T307 570V474Q270 467 246 444T209 392T190 331T184 278Q184 239 193 206T223 148T272 109T344 94Z" />
<glyph unicode="f" glyph-name="f" horiz-adv-x="471" d="M327 693Q307 693 294 683T271 655T258 614T253 564H340V482H251V434V0H129V434V482H55V564H131Q134 607 143 646T171 715T224 763T309 781Q324 781 341 779T374 773T405 764T427 753L388 681Q374 689
355 691T327 693Z" />
<glyph unicode="g" glyph-name="g" horiz-adv-x="683" d="M291 -5Q235 -5 193 19T123 85T82 179T69 290Q69 368 90 421T145 507T220 555T302 569Q333 569 361 562T412 542V436Q396 454 375 465T328 476Q298 476 274 461T232 419T206 358T197 284Q197 244 206 209T233
147T275 106T330 90Q355 90 375 100T412 128V24Q388 12 357 4T291 -5ZM574 564L573 0Q569 -61 549 -104T496 -175T422 -215T332 -227Q276 -227 222 -208T131 -142L201 -73Q211 -90 226 -101T258 -118T291 -126T321 -129Q383 -129 418 -93T453 30V507L466 564H574Z"
/>
<glyph unicode="h" glyph-name="h" horiz-adv-x="609" d="M86 777H207V0H86V777ZM506 502Q523 485 532 463T546 416T552 366T553 317V20V0H431V307Q431 341 428 372T414 427T384 464T331 478Q317 478 294 474T248 459V536Q275 550 306 560T368 570Q413 570 444
552T506 502Z" />
<glyph unicode="i" glyph-name="i" horiz-adv-x="291" d="M207 0H85V564H207V0ZM218 744Q218 714 197 694T146 673Q116 673 96 694T75 744Q75 774 96 795T146 816Q176 816 197 795T218 744Z" />
<glyph unicode="j" glyph-name="j" horiz-adv-x="327" d="M30 -226T-4 -218T-56 -199L-17 -126Q-3 -134 16 -136T44 -139Q77 -139 93 -113T114 -46T120 39T120 121V564H242V120Q242 82 242 42T237 -37T222 -110T192 -170T140 -211T60 -226Q30 -226 -4 -218ZM252
744Q252 714 232 694T181 673Q151 673 131 694T110 744Q110 774 131 795T181 816Q211 816 231 795T252 744Z" />
<glyph unicode="k" glyph-name="k" horiz-adv-x="588" d="M327 283L551 0H413L249 216V355L389 564H525L327 283ZM86 0V777H208V0H86Z" />
<glyph unicode="l" glyph-name="l" horiz-adv-x="363" d="M206 172Q206 138 215 119T240 90T276 77T321 74V0Q308 -2 294 -3Q283 -4 268 -4T238 -5Q223 -5 208 -4T181 -1Q147 6 128 29T99 80T87 136T84 178V190V777H206V172Z" />
<glyph unicode="m" glyph-name="m" horiz-adv-x="917" d="M195 564L208 506V0H86V564H195ZM667 570Q701 570 731 557T783 518T818 459T831 384V0H711V307Q711 341 711 371T704 426T685 463T643 477Q636 477 613 474T560 457V536Q587 552 615 561T667 570ZM494
493Q506 475 511 455T518 412T520 367T519 317V0H398V307Q398 341 398 371T392 426T372 463T331 477Q319 477 296 473T249 457V536Q273 550 300 559T355 568Q401 568 432 549T494 493Z" />
<glyph unicode="n" glyph-name="n" horiz-adv-x="634" d="M194 564L207 507V0H86V564H194ZM506 502Q523 485 532 463T546 416T552 366T553 317V20V0H431V307Q431 341 428 372T414 427T384 464T331 478Q317 478 294 474T248 459V536Q275 550 306 560T368 570Q413
570 444 552T506 502Z" />
<glyph unicode="o" glyph-name="o" horiz-adv-x="662" d="M351 567Q406 564 451 541T526 479T574 389T591 280Q591 222 574 172T525 84T449 23T351 -4V92Q401 103 432 155T464 280Q464 317 457 349T434 408T398 451T351 473V567ZM72 282Q72 340 89 390T137 477T213
538T310 566V473Q260 462 230 410T200 285Q200 248 207 215T229 156T263 113T310 92V-4Q255 0 211 23T136 85T89 174T72 282Z" />
<glyph unicode="p" glyph-name="p" horiz-adv-x="640" d="M195 564L208 507V-222H86V564H195ZM579 393Q591 347 591 290Q591 233 578 180T537 85T468 20T370 -5Q335 -5 304 3T249 24V128Q282 89 330 89Q360 89 384 104T426 144T454 205T464 281Q464 320 455 355T430
417T390 460T335 476Q309 476 288 466T249 436V542Q272 555 300 562T358 569Q391 569 425 560T488 530T542 475T579 393Z" />
<glyph unicode="q" glyph-name="q" horiz-adv-x="640" d="M50 290Q50 368 71 421T127 507T202 555T284 569Q315 569 343 562T393 542V436Q376 454 355 465T309 476Q279 476 255 461T214 419T188 358T178 284Q178 243 188 208T215 146T258 105T313 90Q337 90 357
100T393 128V24Q369 12 338 4T272 -5Q216 -5 174 19T105 85T64 179T50 290ZM556 -66Q556 -78 556 -91T559 -117T570 -142T593 -164Q591 -167 586 -177T574 -200Q567 -213 559 -230Q501 -222 468 -179T434 -74V507L447 564H556V-66Z" />
<glyph unicode="r" glyph-name="r" horiz-adv-x="446" d="M194 564L207 506V200V198V0H86V564H194ZM248 539Q273 553 308 560T403 568V442Q375 450 335 451Q313 451 291 448T248 437V539Z" />
<glyph unicode="s" glyph-name="s" horiz-adv-x="536" d="M73 403Q73 441 87 471T126 523T182 557T248 573V473Q222 468 208 452T193 407Q193 383 208 369T248 343V236Q231 241 214 247T179 262Q126 290 100 321T73 403ZM407 445Q380 459 350 466T289 475V574Q334
572 372 562T446 528L407 445ZM126 126Q146 112 173 100T243 88H248V-5Q223 -5 202 -4T161 3T119 19T75 45L126 126ZM289 327Q319 317 350 305T406 275T448 231T465 164Q465 125 451 96T414 46T358 13T289 -3V92Q323 98 341 113T360 155Q360 181 340 195T289 221V327Z"
/>
<glyph unicode="t" glyph-name="t" horiz-adv-x="418" d="M247 171Q247 137 256 118T281 89T318 77T362 74V0Q349 -2 336 -3Q325 -4 310 -4T279 -5Q264 -5 249 -4T222 -1Q188 5 169 28T141 80T129 136T126 178V482H52V564H126V724H247V564H337V482H247V171Z" />
<glyph unicode="u" glyph-name="u" horiz-adv-x="633" d="M204 257Q204 222 207 192T220 138T250 101T303 87Q316 87 340 91T386 104V30Q360 16 330 6T269 -5Q245 -5 226 -1T191 13T159 35T129 62Q112 79 102 101T88 148T83 198T82 247V564H204V257ZM549 564V0H440L427
58V564H549Z" />
<glyph unicode="v" glyph-name="v" horiz-adv-x="671" d="M59 564H196L315 163V-4H257L59 564ZM476 564H612L414 -4H356V163L476 564Z" />
<glyph unicode="w" glyph-name="w" horiz-adv-x="932" d="M731 564H862L703 -4H547L487 229V564H531L626 94L731 564ZM295 94L400 564H446V259L374 -4H217L72 564H202L295 94Z" />
<glyph unicode="x" glyph-name="x" horiz-adv-x="680" d="M77 564H214L319 379V169L217 0H78L262 283L77 564ZM604 564L419 283L603 0H464L360 182V395L467 564H604Z" />
<glyph unicode="y" glyph-name="y" horiz-adv-x="672" d="M630 564Q575 417 532 304T457 105T401 -40T356 -138T317 -200T280 -235T239 -249T187 -252Q178 -252 166 -250T143 -244T122 -237T110 -232Q114 -214 118 -198Q121 -184 124 -172T130 -154Q138 -154 154
-159T179 -164Q195 -164 207 -163T230 -154T249 -132T269 -90L307 0L508 564H630ZM286 53L76 564H197L341 185L327 151L286 53Z" />
<glyph unicode="z" glyph-name="z" horiz-adv-x="601" d="M86 564H515V467L225 113L205 97H515V0H86V97L376 451L396 467H86V564Z" />
<glyph unicode="|" glyph-name="bar" horiz-adv-x="250" d="M167 -242H86V809H167V-242Z" />
<glyph unicode="&#xa0;" glyph-name="space" horiz-adv-x="274" />
<glyph unicode="&#xa1;" glyph-name="exclamdown" horiz-adv-x="292" d="M190 533H101L85 0H207L190 533ZM218 669Q218 699 197 720T146 741Q116 741 96 720T75 669Q75 639 96 619T146 598Q176 598 197 618T218 669Z" />
<glyph unicode="&#xa2;" glyph-name="cent" horiz-adv-x="585" d="M327 94Q372 94 402 108T459 144L504 79Q475 43 443 23T364 -3V-82H283V-1Q234 7 195 31T127 94T85 179T70 282Q70 336 85 383T128 468T195 530T283 563V647H364V565Q413 560 449 540T515 483L461
418Q444 438 414 454T332 471Q302 471 277 457T235 418T208 359T198 285Q198 245 206 211T232 150T272 109T327 94Z" />
<glyph unicode="&#xa3;" glyph-name="sterling" horiz-adv-x="526" d="M61 82H135V400H61V482H137Q137 516 140 559T161 641T215 708T315 742Q376 747 416 736T474 714L434 638Q420 646 391 650T333 654Q301 654 286 638T265 595T259 538T259 482H367V400H257V82H437V0H61V82Z"
/>
<glyph unicode="&#xa4;" glyph-name="currency" horiz-adv-x="677" d="M220 560Q240 575 265 585T318 599V534Q277 524 253 481T228 378Q228 317 251 271T318 216V151Q259 156 219 187L150 103L78 175L166 248Q151 275 143 307T135 375Q135 446 167 501L78 573L150
645L220 560ZM544 374Q544 303 512 249L600 175L528 103L459 187Q439 172 414 163T359 151V217Q399 227 424 269T450 373Q450 404 444 431T426 479T397 515T359 535V599Q389 597 414 588T460 562L528 645L600 573L512 501Q544 446 544 374Z" />
<glyph unicode="&#xa5;" glyph-name="yen" horiz-adv-x="664" d="M607 737L452 427H562V345H411L404 331H247L241 345H102V427H203L58 737H196L323 407H333L470 737H607ZM388 290V284H562V202H388V0H266V202H102V284H266V290H388Z" />
<glyph unicode="&#xa8;" glyph-name="dieresis" horiz-adv-x="538" d="M459 711Q459 681 438 660T387 639Q357 639 336 660T315 711Q315 741 336 761T387 782Q417 782 438 762T459 711ZM162 711Q162 681 141 660T90 639Q60 639 39 660T18 711Q18 741 39 761T90
782Q120 782 141 762T162 711Z" />
<glyph unicode="&#xab;" glyph-name="guillemotleft" horiz-adv-x="736" d="M402 534L213 302H77L265 534H402ZM469 302H333L521 534H658L469 302ZM77 261H214L401 31H262L77 261ZM333 261H470L657 31H518L333 261Z" />
<glyph unicode="&#xb4;" glyph-name="acute" horiz-adv-x="224" d="M213 777L104 635H24L91 777H213Z" />
<glyph unicode="&#xb8;" glyph-name="cedilla" horiz-adv-x="294" d="M116 -71Q133 -64 151 -63Q169 -63 184 -71T210 -90T227 -116T233 -145Q233 -191 203 -217T120 -243V-185Q174 -185 174 -147Q174 -130 160 -118T121 -105Q108 -105 89 -111L48 -92L106 7H183L116
-71Z" />
<glyph unicode="&#xbb;" glyph-name="guillemotright" horiz-adv-x="736" d="M659 302H523L334 534H471L659 302ZM403 302H267L78 534H215L403 302ZM266 261H402L218 31H79L266 261ZM335 31L522 261H658L474 31H335Z" />
<glyph unicode="&#xbf;" glyph-name="questiondown" horiz-adv-x="507" d="M286 541H377Q377 482 363 445T327 382T280 340T232 305T196 262T181 197Q181 181 189 164T211 132T243 109T281 97Q317 94 340 96T377 103T398 113T412 121Q413 120 418 111T430 89T445
60T459 31Q429 12 383 4T290 -5Q246 -5 206 9T135 49T86 114T67 201Q67 254 83 289T124 349T176 392T229 430T270 476T286 541ZM260 676Q260 706 281 727T331 748Q361 748 382 727T403 676Q403 646 382 626T331 605Q301 605 281 625T260 676Z" />
<glyph unicode="&#xc0;" glyph-name="Agrave" horiz-adv-x="759" d="M696 0H572L381 552L188 0H63L321 736H440L696 0ZM447 234L476 153H285L313 234H447ZM285 950H406L474 808H393L285 950Z" />
<glyph unicode="&#xc1;" glyph-name="Aacute" horiz-adv-x="759" d="M696 0H572L381 552L188 0H63L321 736H440L696 0ZM447 234L476 153H285L313 234H447ZM474 950L365 808H285L352 950H474Z" />
<glyph unicode="&#xc2;" glyph-name="Acircumflex" horiz-adv-x="759" d="M696 0H572L381 552L188 0H63L321 736H440L696 0ZM447 234L476 153H285L313 234H447ZM334 950H359V850L336 808H226L334 950ZM423 808L400 849V950H425L534 808H423Z" />
<glyph unicode="&#xc3;" glyph-name="Atilde" horiz-adv-x="759" d="M696 0H572L381 552L188 0H63L321 736H440L696 0ZM447 234L476 153H285L313 234H447ZM203 843Q210 860 221 876T246 906T278 927T316 935Q334 935 352 930T386 918T417 906T444 901Q461 901
472 909T491 943L556 924Q544 880 514 857T444 833Q427 833 411 838T379 850T348 862T316 867Q300 867 287 852T264 816L203 843Z" />
<glyph unicode="&#xc4;" glyph-name="Adieresis" horiz-adv-x="759" d="M696 0H572L381 552L188 0H63L321 736H440L696 0ZM447 234L476 153H285L313 234H447ZM611 884Q611 854 590 833T539 812Q509 812 488 833T467 884Q467 914 488 934T539 955Q569 955 590 935T611
884ZM314 884Q314 854 293 833T242 812Q212 812 191 833T170 884Q170 914 191 934T242 955Q272 955 293 935T314 884Z" />
<glyph unicode="&#xc5;" glyph-name="Aring" horiz-adv-x="759" d="M696 0H572L381 552L188 0H63L321 736H440L696 0ZM447 234L476 153H285L313 234H447ZM255 933Q255 956 263 976T285 1012T318 1040T358 1055V993Q340 986 328 970T315 933Q315 911 327 895T358
871V810Q336 813 318 824T285 852T263 888T255 933ZM399 1055Q422 1052 440 1041T473 1013T495 976T503 933Q503 909 495 889T473 852T441 825T399 809V871Q419 877 431 894T444 933Q444 953 432 970T399 993V1055Z" />
<glyph unicode="&#xc7;" glyph-name="Ccedilla" horiz-adv-x="671" d="M508 595Q485 621 459 634T403 649V748Q515 743 591 669L508 595ZM403 94Q433 97 459 110T508 148L591 75Q553 38 506 18T403 -5V94ZM79 372Q79 461 100 529T160 644T249 717T362 748V648Q329
643 300 626T249 575T215 492T201 372Q202 302 214 252T249 168T300 116T362 94V-4Q301 0 250 26T160 99T101 214T79 372ZM344 -71Q361 -64 379 -63Q397 -63 412 -71T438 -90T455 -116T461 -145Q461 -191 431 -217T348 -243V-185Q402 -185 402 -147Q402 -130 388
-118T349 -105Q336 -105 317 -111L276 -92L334 7H411L344 -71Z" />
<glyph unicode="&#xc8;" glyph-name="Egrave" horiz-adv-x="628" d="M95 737H217V0H95V737ZM525 332H258V414H525V332ZM258 91H556V0H258V91ZM556 737V646H258V737H556ZM220 950H341L409 808H328L220 950Z" />
<glyph unicode="&#xc9;" glyph-name="Eacute" horiz-adv-x="628" d="M95 737H217V0H95V737ZM525 332H258V414H525V332ZM258 91H556V0H258V91ZM556 737V646H258V737H556ZM409 950L300 808H220L287 950H409Z" />
<glyph unicode="&#xca;" glyph-name="Ecircumflex" horiz-adv-x="628" d="M95 737H217V0H95V737ZM525 332H258V414H525V332ZM258 91H556V0H258V91ZM556 737V646H258V737H556ZM268 950H293V850L270 808H160L268 950ZM357 808L334 849V950H359L468 808H357Z" />
<glyph unicode="&#xcb;" glyph-name="Edieresis" horiz-adv-x="628" d="M95 737H217V0H95V737ZM525 332H258V414H525V332ZM258 91H556V0H258V91ZM556 737V646H258V737H556ZM545 884Q545 854 524 833T473 812Q443 812 422 833T401 884Q401 914 422 934T473 955Q503
955 524 935T545 884ZM248 884Q248 854 227 833T176 812Q146 812 125 833T104 884Q104 914 125 934T176 955Q206 955 227 935T248 884Z" />
<glyph unicode="&#xcc;" glyph-name="Igrave" horiz-adv-x="308" d="M216 0H94V737H216V0ZM60 950H181L249 808H168L60 950Z" />
<glyph unicode="&#xcd;" glyph-name="Iacute" horiz-adv-x="308" d="M216 0H94V737H216V0ZM249 950L140 808H60L127 950H249Z" />
<glyph unicode="&#xce;" glyph-name="Icircumflex" horiz-adv-x="308" d="M216 0H94V737H216V0ZM109 950H134V850L111 808H1L109 950ZM198 808L175 849V950H200L309 808H198Z" />
<glyph unicode="&#xcf;" glyph-name="Idieresis" horiz-adv-x="308" d="M216 0H94V737H216V0ZM386 884Q386 854 365 833T314 812Q284 812 263 833T242 884Q242 914 263 934T314 955Q344 955 365 935T386 884ZM89 884Q89 854 68 833T17 812Q-13 812 -34 833T-55
884Q-55 914 -34 934T17 955Q47 955 68 935T89 884Z" />
<glyph unicode="&#xd0;" glyph-name="Eth" horiz-adv-x="770" d="M96 737H216V0H96V318H7V420H96V737ZM318 737Q411 737 481 708T598 629T668 518T691 389Q691 298 672 234T622 126T555 57T482 20T418 4T375 0H257V88H335Q457 88 511 166T565 392Q565 438 554
483T512 564T426 623T286 646H257V737H318ZM346 318H257V420H346V318Z" />
<glyph unicode="&#xd1;" glyph-name="Ntilde" horiz-adv-x="716" d="M503 737H625V0H503L255 436V666L503 229V737ZM92 0V737H214V0H92ZM182 843Q189 860 200 876T225 906T257 927T295 935Q313 935 331 930T365 918T396 906T423 901Q440 901 451 909T470 943L535
924Q523 880 493 857T423 833Q406 833 390 838T358 850T327 862T295 867Q279 867 266 852T243 816L182 843Z" />
<glyph unicode="&#xd2;" glyph-name="Ograve" horiz-adv-x="768" d="M77 372Q77 461 98 529T158 645T249 718T364 748V648Q330 644 300 627T248 577T213 493T199 372Q200 301 213 251T248 166T301 115T364 94V-5Q303 -1 250 24T159 97T99 214T77 372ZM404 748Q465
745 517 719T608 646T669 530T691 372Q691 283 669 214T609 98T518 25T404 -5V94Q438 98 468 115T520 166T555 250T569 372Q568 443 555 493T520 577T467 628T404 649V748ZM289 950H410L478 808H397L289 950Z" />
<glyph unicode="&#xd3;" glyph-name="Oacute" horiz-adv-x="768" d="M77 372Q77 461 98 529T158 645T249 718T364 748V648Q330 644 300 627T248 577T213 493T199 372Q200 301 213 251T248 166T301 115T364 94V-5Q303 -1 250 24T159 97T99 214T77 372ZM404 748Q465
745 517 719T608 646T669 530T691 372Q691 283 669 214T609 98T518 25T404 -5V94Q438 98 468 115T520 166T555 250T569 372Q568 443 555 493T520 577T467 628T404 649V748ZM478 950L369 808H289L356 950H478Z" />
<glyph unicode="&#xd4;" glyph-name="Ocircumflex" horiz-adv-x="768" d="M77 372Q77 461 98 529T158 645T249 718T364 748V648Q330 644 300 627T248 577T213 493T199 372Q200 301 213 251T248 166T301 115T364 94V-5Q303 -1 250 24T159 97T99 214T77 372ZM404
748Q465 745 517 719T608 646T669 530T691 372Q691 283 669 214T609 98T518 25T404 -5V94Q438 98 468 115T520 166T555 250T569 372Q568 443 555 493T520 577T467 628T404 649V748ZM338 950H363V850L340 808H230L338 950ZM427 808L404 849V950H429L538 808H427Z"
/>
<glyph unicode="&#xd5;" glyph-name="Otilde" horiz-adv-x="768" d="M77 372Q77 461 98 529T158 645T249 718T364 748V648Q330 644 300 627T248 577T213 493T199 372Q200 301 213 251T248 166T301 115T364 94V-5Q303 -1 250 24T159 97T99 214T77 372ZM404 748Q465
745 517 719T608 646T669 530T691 372Q691 283 669 214T609 98T518 25T404 -5V94Q438 98 468 115T520 166T555 250T569 372Q568 443 555 493T520 577T467 628T404 649V748ZM207 843Q214 860 225 876T250 906T282 927T320 935Q338 935 356 930T390 918T421 906T448
901Q465 901 476 909T495 943L560 924Q548 880 518 857T448 833Q431 833 415 838T383 850T352 862T320 867Q304 867 291 852T268 816L207 843Z" />
<glyph unicode="&#xd6;" glyph-name="Odieresis" horiz-adv-x="768" d="M77 372Q77 461 98 529T158 645T249 718T364 748V648Q330 644 300 627T248 577T213 493T199 372Q200 301 213 251T248 166T301 115T364 94V-5Q303 -1 250 24T159 97T99 214T77 372ZM404 748Q465
745 517 719T608 646T669 530T691 372Q691 283 669 214T609 98T518 25T404 -5V94Q438 98 468 115T520 166T555 250T569 372Q568 443 555 493T520 577T467 628T404 649V748ZM615 884Q615 854 594 833T543 812Q513 812 492 833T471 884Q471 914 492 934T543 955Q573
955 594 935T615 884ZM318 884Q318 854 297 833T246 812Q216 812 195 833T174 884Q174 914 195 934T246 955Q276 955 297 935T318 884Z" />
<glyph unicode="&#xd7;" glyph-name="multiply" horiz-adv-x="601" d="M379 283L522 61H383L310 202H300L218 61H79L222 283L78 503H215L290 361H300L386 503H523L379 283Z" />
<glyph unicode="&#xd9;" glyph-name="Ugrave" horiz-adv-x="737" d="M204 384Q204 307 214 254T243 166T288 114T348 94V-5Q287 -1 238 24T154 97T101 214T82 372V737H204V384ZM655 737V372Q655 283 636 214T583 98T499 25T389 -5V94Q422 98 448 114T494 165T523
252T534 384V737H655ZM274 950H395L463 808H382L274 950Z" />
<glyph unicode="&#xda;" glyph-name="Uacute" horiz-adv-x="737" d="M204 384Q204 307 214 254T243 166T288 114T348 94V-5Q287 -1 238 24T154 97T101 214T82 372V737H204V384ZM655 737V372Q655 283 636 214T583 98T499 25T389 -5V94Q422 98 448 114T494 165T523
252T534 384V737H655ZM463 950L354 808H274L341 950H463Z" />
<glyph unicode="&#xdb;" glyph-name="Ucircumflex" horiz-adv-x="737" d="M204 384Q204 307 214 254T243 166T288 114T348 94V-5Q287 -1 238 24T154 97T101 214T82 372V737H204V384ZM655 737V372Q655 283 636 214T583 98T499 25T389 -5V94Q422 98 448 114T494
165T523 252T534 384V737H655ZM322 950H347V850L324 808H214L322 950ZM411 808L388 849V950H413L522 808H411Z" />
<glyph unicode="&#xdc;" glyph-name="Udieresis" horiz-adv-x="737" d="M204 384Q204 307 214 254T243 166T288 114T348 94V-5Q287 -1 238 24T154 97T101 214T82 372V737H204V384ZM655 737V372Q655 283 636 214T583 98T499 25T389 -5V94Q422 98 448 114T494 165T523
252T534 384V737H655ZM599 884Q599 854 578 833T527 812Q497 812 476 833T455 884Q455 914 476 934T527 955Q557 955 578 935T599 884ZM302 884Q302 854 281 833T230 812Q200 812 179 833T158 884Q158 914 179 934T230 955Q260 955 281 935T302 884Z" />
<glyph unicode="&#xdd;" glyph-name="Yacute" horiz-adv-x="655" d="M466 737H603L384 300V0H262V246L466 737ZM191 737L302 450L248 319L54 737H191ZM422 950L313 808H233L300 950H422Z" />
<glyph unicode="&#xde;" glyph-name="Thorn" horiz-adv-x="852" d="M91 737H211V0H91V737ZM303 655Q350 655 396 640T478 595T537 523T560 427Q560 371 541 326T488 250T406 201T300 184H252V272H321Q343 272 364 279T404 304T433 352T444 427Q444 445 439 469T419
514T375 550T301 564H252V655H303Z" />
<glyph unicode="&#xdf;" glyph-name="germandbls" horiz-adv-x="655" d="M460 388Q483 385 504 373T543 339T571 286T582 213Q582 163 572 127T547 66T512 28T474 6T438 -3T409 -5Q367 -5 340 -2T297 7T270 18T250 30L278 106Q295 98 319 90T391 81Q430 81 448
118T467 213Q467 240 460 263T439 304T406 331T366 341H295V422H351Q367 422 382 427T410 447T431 486T443 548Q443 624 411 656T330 688Q273 688 244 650V772Q262 777 282 779T327 782Q377 782 419 768T491 724T538 650T555 548Q552 521 543 494T522 445T493 408T460
388ZM81 396Q81 535 106 625T203 755V0H81V396Z" />
<glyph unicode="&#xe0;" glyph-name="agrave" horiz-adv-x="600" d="M184 170Q184 125 202 103T256 77V-4Q252 -5 243 -5Q209 -5 178 4T122 33T85 86T71 167Q71 213 90 246T140 301T210 333T289 344H333V273H311Q291 273 269 269T228 254T197 223T184 170ZM495
167Q495 159 496 144T500 112T509 83T527 66L495 -1Q482 -1 468 5T440 22T417 46T402 76Q392 51 363 32T297 3V79Q321 84 340 98T374 133V344Q374 393 369 422T352 464T323 481T281 485Q259 485 240 480T204 467T175 450T156 436L111 505Q121 516 141 527T187 548T243
562T307 568Q337 568 365 562T417 542T458 505T483 446Q490 411 492 376T495 305V175V167ZM205 777H326L394 635H313L205 777Z" />
<glyph unicode="&#xe1;" glyph-name="aacute" horiz-adv-x="600" d="M184 170Q184 125 202 103T256 77V-4Q252 -5 243 -5Q209 -5 178 4T122 33T85 86T71 167Q71 213 90 246T140 301T210 333T289 344H333V273H311Q291 273 269 269T228 254T197 223T184 170ZM495
167Q495 159 496 144T500 112T509 83T527 66L495 -1Q482 -1 468 5T440 22T417 46T402 76Q392 51 363 32T297 3V79Q321 84 340 98T374 133V344Q374 393 369 422T352 464T323 481T281 485Q259 485 240 480T204 467T175 450T156 436L111 505Q121 516 141 527T187 548T243
562T307 568Q337 568 365 562T417 542T458 505T483 446Q490 411 492 376T495 305V175V167ZM394 777L285 635H205L272 777H394Z" />
<glyph unicode="&#xe2;" glyph-name="acircumflex" horiz-adv-x="600" d="M184 170Q184 125 202 103T256 77V-4Q252 -5 243 -5Q209 -5 178 4T122 33T85 86T71 167Q71 213 90 246T140 301T210 333T289 344H333V273H311Q291 273 269 269T228 254T197 223T184 170ZM495
167Q495 159 496 144T500 112T509 83T527 66L495 -1Q482 -1 468 5T440 22T417 46T402 76Q392 51 363 32T297 3V79Q321 84 340 98T374 133V344Q374 393 369 422T352 464T323 481T281 485Q259 485 240 480T204 467T175 450T156 436L111 505Q121 516 141 527T187 548T243
562T307 568Q337 568 365 562T417 542T458 505T483 446Q490 411 492 376T495 305V175V167ZM254 777H279V677L256 635H146L254 777ZM343 635L320 676V777H345L454 635H343Z" />
<glyph unicode="&#xe3;" glyph-name="atilde" horiz-adv-x="600" d="M184 170Q184 125 202 103T256 77V-4Q252 -5 243 -5Q209 -5 178 4T122 33T85 86T71 167Q71 213 90 246T140 301T210 333T289 344H333V273H311Q291 273 269 269T228 254T197 223T184 170ZM495
167Q495 159 496 144T500 112T509 83T527 66L495 -1Q482 -1 468 5T440 22T417 46T402 76Q392 51 363 32T297 3V79Q321 84 340 98T374 133V344Q374 393 369 422T352 464T323 481T281 485Q259 485 240 480T204 467T175 450T156 436L111 505Q121 516 141 527T187 548T243
562T307 568Q337 568 365 562T417 542T458 505T483 446Q490 411 492 376T495 305V175V167ZM123 670Q130 687 141 703T166 733T198 754T236 762Q254 762 272 757T306 745T337 733T364 728Q381 728 392 736T411 770L476 751Q464 707 434 684T364 660Q347 660 331
665T299 677T268 689T236 694Q220 694 207 679T184 643L123 670Z" />
<glyph unicode="&#xe4;" glyph-name="adieresis" horiz-adv-x="600" d="M184 170Q184 125 202 103T256 77V-4Q252 -5 243 -5Q209 -5 178 4T122 33T85 86T71 167Q71 213 90 246T140 301T210 333T289 344H333V273H311Q291 273 269 269T228 254T197 223T184 170ZM495
167Q495 159 496 144T500 112T509 83T527 66L495 -1Q482 -1 468 5T440 22T417 46T402 76Q392 51 363 32T297 3V79Q321 84 340 98T374 133V344Q374 393 369 422T352 464T323 481T281 485Q259 485 240 480T204 467T175 450T156 436L111 505Q121 516 141 527T187 548T243
562T307 568Q337 568 365 562T417 542T458 505T483 446Q490 411 492 376T495 305V175V167ZM531 711Q531 681 510 660T459 639Q429 639 408 660T387 711Q387 741 408 761T459 782Q489 782 510 762T531 711ZM234 711Q234 681 213 660T162 639Q132 639 111 660T90
711Q90 741 111 761T162 782Q192 782 213 762T234 711Z" />
<glyph unicode="&#xe5;" glyph-name="aring" horiz-adv-x="600" d="M184 170Q184 125 202 103T256 77V-4Q252 -5 243 -5Q209 -5 178 4T122 33T85 86T71 167Q71 213 90 246T140 301T210 333T289 344H333V273H311Q291 273 269 269T228 254T197 223T184 170ZM495
167Q495 159 496 144T500 112T509 83T527 66L495 -1Q482 -1 468 5T440 22T417 46T402 76Q392 51 363 32T297 3V79Q321 84 340 98T374 133V344Q374 393 369 422T352 464T323 481T281 485Q259 485 240 480T204 467T175 450T156 436L111 505Q121 516 141 527T187 548T243
562T307 568Q337 568 365 562T417 542T458 505T483 446Q490 411 492 376T495 305V175V167ZM175 760Q175 783 183 803T205 839T238 867T278 882V820Q260 813 248 797T235 760Q235 738 247 722T278 698V637Q256 640 238 651T205 679T183 715T175 760ZM319 882Q342
879 360 868T393 840T415 803T423 760Q423 736 415 716T393 679T361 652T319 636V698Q339 704 351 721T364 760Q364 780 352 797T319 820V882Z" />
<glyph unicode="&#xe7;" glyph-name="ccedilla" horiz-adv-x="585" d="M461 418Q446 436 420 451T349 470V566Q404 563 443 543T515 483L461 418ZM349 95Q385 99 410 112T459 144L504 79Q473 40 437 20T349 -4V95ZM70 282Q70 339 86 389T135 477T210 538T308 566V469Q258
458 228 408T198 285Q198 248 205 216T227 158T261 116T308 95V-4Q253 -1 209 22T134 84T87 174T70 282ZM291 -71Q308 -64 326 -63Q344 -63 359 -71T385 -90T402 -116T408 -145Q408 -191 378 -217T295 -243V-185Q349 -185 349 -147Q349 -130 335 -118T296 -105Q283
-105 264 -111L223 -92L281 7H358L291 -71Z" />
<glyph unicode="&#xe8;" glyph-name="egrave" horiz-adv-x="664" d="M348 569Q402 564 445 540T520 478T567 391T584 289Q584 265 581 241H238V329H469Q469 355 461 379T436 423T397 458T348 475V569ZM344 94Q355 94 371 96T406 105T443 122T476 146L520 79Q487
38 443 17T331 -4Q276 -4 228 18T146 80T92 171T72 283Q72 340 90 391T141 480T215 543T307 570V474Q270 467 246 444T209 392T190 331T184 278Q184 239 193 206T223 148T272 109T344 94ZM238 777H359L427 635H346L238 777Z" />
<glyph unicode="&#xe9;" glyph-name="eacute" horiz-adv-x="664" d="M348 569Q402 564 445 540T520 478T567 391T584 289Q584 265 581 241H238V329H469Q469 355 461 379T436 423T397 458T348 475V569ZM344 94Q355 94 371 96T406 105T443 122T476 146L520 79Q487
38 443 17T331 -4Q276 -4 228 18T146 80T92 171T72 283Q72 340 90 391T141 480T215 543T307 570V474Q270 467 246 444T209 392T190 331T184 278Q184 239 193 206T223 148T272 109T344 94ZM427 777L318 635H238L305 777H427Z" />
<glyph unicode="&#xea;" glyph-name="ecircumflex" horiz-adv-x="664" d="M348 569Q402 564 445 540T520 478T567 391T584 289Q584 265 581 241H238V329H469Q469 355 461 379T436 423T397 458T348 475V569ZM344 94Q355 94 371 96T406 105T443 122T476 146L520
79Q487 38 443 17T331 -4Q276 -4 228 18T146 80T92 171T72 283Q72 340 90 391T141 480T215 543T307 570V474Q270 467 246 444T209 392T190 331T184 278Q184 239 193 206T223 148T272 109T344 94ZM287 777H312V677L289 635H179L287 777ZM376 635L353 676V777H378L487
635H376Z" />
<glyph unicode="&#xeb;" glyph-name="edieresis" horiz-adv-x="664" d="M348 569Q402 564 445 540T520 478T567 391T584 289Q584 265 581 241H238V329H469Q469 355 461 379T436 423T397 458T348 475V569ZM344 94Q355 94 371 96T406 105T443 122T476 146L520 79Q487
38 443 17T331 -4Q276 -4 228 18T146 80T92 171T72 283Q72 340 90 391T141 480T215 543T307 570V474Q270 467 246 444T209 392T190 331T184 278Q184 239 193 206T223 148T272 109T344 94ZM562 711Q562 681 541 660T490 639Q460 639 439 660T418 711Q418 741 439
761T490 782Q520 782 541 762T562 711ZM265 711Q265 681 244 660T193 639Q163 639 142 660T121 711Q121 741 142 761T193 782Q223 782 244 762T265 711Z" />
<glyph unicode="&#xec;" glyph-name="igrave" horiz-adv-x="291" d="M207 0H85V564H207V0ZM52 777H173L241 635H160L52 777Z" />
<glyph unicode="&#xed;" glyph-name="iacute" horiz-adv-x="291" d="M207 0H85V564H207V0ZM241 777L132 635H52L119 777H241Z" />
<glyph unicode="&#xee;" glyph-name="icircumflex" horiz-adv-x="291" d="M207 0H85V564H207V0ZM357 777H382V677L359 635H249L357 777ZM446 635L423 676V777H448L557 635H446Z" />
<glyph unicode="&#xef;" glyph-name="idieresis" horiz-adv-x="291" d="M207 0H85V564H207V0ZM634 711Q634 681 613 660T562 639Q532 639 511 660T490 711Q490 741 511 761T562 782Q592 782 613 762T634 711ZM337 711Q337 681 316 660T265 639Q235 639 214 660T193
711Q193 741 214 761T265 782Q295 782 316 762T337 711Z" />
<glyph unicode="&#xf0;" glyph-name="eth" horiz-adv-x="645" d="M70 264Q70 305 85 347T129 422T200 477T294 500V409Q242 401 209 359T175 254Q175 189 208 146T294 94V-4Q258 -1 219 14T146 61T92 142T70 264ZM477 671Q520 621 546 527T572 292Q572 230 558
177T515 85T440 22T335 -5V93Q362 97 384 110T423 145T449 193T459 254Q459 319 424 360T335 410V497Q375 492 405 475T446 436Q447 435 450 435T454 434Q453 479 442 525T409 602L351 545L280 616L327 665Q322 671 311 678T285 692T255 705T226 716V778Q254 778
281 774T331 762T371 747T396 733L463 799L535 727L477 671Z" />
<glyph unicode="&#xf1;" glyph-name="ntilde" horiz-adv-x="634" d="M194 564L207 507V0H86V564H194ZM506 502Q523 485 532 463T546 416T552 366T553 317V20V0H431V307Q431 341 428 372T414 427T384 464T331 478Q317 478 294 474T248 459V536Q275 550 306 560T368
570Q413 570 444 552T506 502ZM141 670Q148 687 159 703T184 733T216 754T254 762Q272 762 290 757T324 745T355 733T382 728Q399 728 410 736T429 770L494 751Q482 707 452 684T382 660Q365 660 349 665T317 677T286 689T254 694Q238 694 225 679T202 643L141
670Z" />
<glyph unicode="&#xf2;" glyph-name="ograve" horiz-adv-x="662" d="M351 567Q406 564 451 541T526 479T574 389T591 280Q591 222 574 172T525 84T449 23T351 -4V92Q401 103 432 155T464 280Q464 317 457 349T434 408T398 451T351 473V567ZM72 282Q72 340 89 390T137
477T213 538T310 566V473Q260 462 230 410T200 285Q200 248 207 215T229 156T263 113T310 92V-4Q255 0 211 23T136 85T89 174T72 282ZM237 777H358L426 635H345L237 777Z" />
<glyph unicode="&#xf3;" glyph-name="oacute" horiz-adv-x="662" d="M351 567Q406 564 451 541T526 479T574 389T591 280Q591 222 574 172T525 84T449 23T351 -4V92Q401 103 432 155T464 280Q464 317 457 349T434 408T398 451T351 473V567ZM72 282Q72 340 89 390T137
477T213 538T310 566V473Q260 462 230 410T200 285Q200 248 207 215T229 156T263 113T310 92V-4Q255 0 211 23T136 85T89 174T72 282ZM426 777L317 635H237L304 777H426Z" />
<glyph unicode="&#xf4;" glyph-name="ocircumflex" horiz-adv-x="662" d="M351 567Q406 564 451 541T526 479T574 389T591 280Q591 222 574 172T525 84T449 23T351 -4V92Q401 103 432 155T464 280Q464 317 457 349T434 408T398 451T351 473V567ZM72 282Q72 340
89 390T137 477T213 538T310 566V473Q260 462 230 410T200 285Q200 248 207 215T229 156T263 113T310 92V-4Q255 0 211 23T136 85T89 174T72 282ZM286 777H311V677L288 635H178L286 777ZM375 635L352 676V777H377L486 635H375Z" />
<glyph unicode="&#xf5;" glyph-name="otilde" horiz-adv-x="662" d="M351 567Q406 564 451 541T526 479T574 389T591 280Q591 222 574 172T525 84T449 23T351 -4V92Q401 103 432 155T464 280Q464 317 457 349T434 408T398 451T351 473V567ZM72 282Q72 340 89 390T137
477T213 538T310 566V473Q260 462 230 410T200 285Q200 248 207 215T229 156T263 113T310 92V-4Q255 0 211 23T136 85T89 174T72 282ZM155 670Q162 687 173 703T198 733T230 754T268 762Q286 762 304 757T338 745T369 733T396 728Q413 728 424 736T443 770L508
751Q496 707 466 684T396 660Q379 660 363 665T331 677T300 689T268 694Q252 694 239 679T216 643L155 670Z" />
<glyph unicode="&#xf6;" glyph-name="odieresis" horiz-adv-x="662" d="M351 567Q406 564 451 541T526 479T574 389T591 280Q591 222 574 172T525 84T449 23T351 -4V92Q401 103 432 155T464 280Q464 317 457 349T434 408T398 451T351 473V567ZM72 282Q72 340 89
390T137 477T213 538T310 566V473Q260 462 230 410T200 285Q200 248 207 215T229 156T263 113T310 92V-4Q255 0 211 23T136 85T89 174T72 282ZM561 711Q561 681 540 660T489 639Q459 639 438 660T417 711Q417 741 438 761T489 782Q519 782 540 762T561 711ZM264
711Q264 681 243 660T192 639Q162 639 141 660T120 711Q120 741 141 761T192 782Q222 782 243 762T264 711Z" />
<glyph unicode="&#xf7;" glyph-name="divide" horiz-adv-x="551" d="M511 343V242H44V343H511ZM344 498Q344 468 323 447T272 426Q242 426 222 447T201 498Q201 528 222 548T272 569Q302 569 323 549T344 498ZM344 67Q344 37 323 16T272 -5Q242 -5 222 16T201
67Q201 97 222 117T272 138Q302 138 323 118T344 67Z" />
<glyph unicode="&#xf9;" glyph-name="ugrave" horiz-adv-x="633" d="M204 257Q204 222 207 192T220 138T250 101T303 87Q316 87 340 91T386 104V30Q360 16 330 6T269 -5Q245 -5 226 -1T191 13T159 35T129 62Q112 79 102 101T88 148T83 198T82 247V564H204V257ZM549
564V0H440L427 58V564H549ZM223 777H344L412 635H331L223 777Z" />
<glyph unicode="&#xfa;" glyph-name="uacute" horiz-adv-x="633" d="M204 257Q204 222 207 192T220 138T250 101T303 87Q316 87 340 91T386 104V30Q360 16 330 6T269 -5Q245 -5 226 -1T191 13T159 35T129 62Q112 79 102 101T88 148T83 198T82 247V564H204V257ZM549
564V0H440L427 58V564H549ZM412 777L303 635H223L290 777H412Z" />
<glyph unicode="&#xfb;" glyph-name="ucircumflex" horiz-adv-x="633" d="M204 257Q204 222 207 192T220 138T250 101T303 87Q316 87 340 91T386 104V30Q360 16 330 6T269 -5Q245 -5 226 -1T191 13T159 35T129 62Q112 79 102 101T88 148T83 198T82 247V564H204V257ZM549
564V0H440L427 58V564H549ZM271 777H296V677L273 635H163L271 777ZM360 635L337 676V777H362L471 635H360Z" />
<glyph unicode="&#xfc;" glyph-name="udieresis" horiz-adv-x="633" d="M204 257Q204 222 207 192T220 138T250 101T303 87Q316 87 340 91T386 104V30Q360 16 330 6T269 -5Q245 -5 226 -1T191 13T159 35T129 62Q112 79 102 101T88 148T83 198T82 247V564H204V257ZM549
564V0H440L427 58V564H549ZM547 711Q547 681 526 660T475 639Q445 639 424 660T403 711Q403 741 424 761T475 782Q505 782 526 762T547 711ZM250 711Q250 681 229 660T178 639Q148 639 127 660T106 711Q106 741 127 761T178 782Q208 782 229 762T250 711Z" />
<glyph unicode="&#xfd;" glyph-name="yacute" horiz-adv-x="672" d="M630 564Q575 417 532 304T457 105T401 -40T356 -138T317 -200T280 -235T239 -249T187 -252Q178 -252 166 -250T143 -244T122 -237T110 -232Q114 -214 118 -198Q121 -184 124 -172T130 -154Q138
-154 154 -159T179 -164Q195 -164 207 -163T230 -154T249 -132T269 -90L307 0L508 564H630ZM286 53L76 564H197L341 185L327 151L286 53ZM431 777L322 635H242L309 777H431Z" />
<glyph unicode="&#xfe;" glyph-name="thorn" horiz-adv-x="625" d="M86 777H208V-222H86V777ZM579 393Q591 347 591 290Q591 233 578 180T537 85T468 20T370 -5Q335 -5 304 3T249 24V128Q282 89 330 89Q360 89 384 104T426 144T454 205T464 281Q464 320 455 355T430
417T390 460T335 476Q309 476 288 466T249 436V542Q272 555 300 562T358 569Q391 569 425 560T488 530T542 475T579 393Z" />
<glyph unicode="&#xff;" glyph-name="ydieresis" horiz-adv-x="672" d="M630 564Q575 417 532 304T457 105T401 -40T356 -138T317 -200T280 -235T239 -249T187 -252Q178 -252 166 -250T143 -244T122 -237T110 -232Q114 -214 118 -198Q121 -184 124 -172T130 -154Q138
-154 154 -159T179 -164Q195 -164 207 -163T230 -154T249 -132T269 -90L307 0L508 564H630ZM286 53L76 564H197L341 185L327 151L286 53ZM567 711Q567 681 546 660T495 639Q465 639 444 660T423 711Q423 741 444 761T495 782Q525 782 546 762T567 711ZM270 711Q270
681 249 660T198 639Q168 639 147 660T126 711Q126 741 147 761T198 782Q228 782 249 762T270 711Z" />
<glyph unicode="&#x2013;" glyph-name="endash" horiz-adv-x="638" d="M553 343V242H86V343H553Z" />
<glyph unicode="&#x2014;" glyph-name="emdash" horiz-adv-x="917" d="M831 343V242H86V343H831Z" />
<glyph unicode="&#x2018;" glyph-name="quoteleft" horiz-adv-x="276" d="M134 483Q104 483 83 504T62 555Q62 560 63 578T73 623T100 680T157 742H204Q184 722 171 702T148 665Q138 646 134 627Q164 627 185 606T206 555Q206 525 185 504T134 483Z" />
<glyph unicode="&#x2019;" glyph-name="quoteright" horiz-adv-x="275" d="M142 742Q172 742 193 721T214 671Q214 666 213 648T204 603T177 546T120 483H73Q93 502 106 523T127 561Q136 580 142 599Q112 599 92 620T71 671Q71 701 91 721T142 742Z" />
<glyph unicode="&#x201c;" glyph-name="quotedblleft" horiz-adv-x="494" d="M344 483Q314 483 293 504T272 555Q272 560 273 578T282 623T310 680T367 742H414Q394 722 381 702T358 665Q348 646 344 627Q374 627 395 606T416 555Q416 525 395 504T344 483ZM150
483Q120 483 99 504T78 555Q78 560 79 578T88 623T115 680T172 742H219Q199 722 186 702T164 665Q154 646 150 627Q180 627 200 606T221 555Q221 525 201 504T150 483Z" />
<glyph unicode="&#x201d;" glyph-name="quotedblright" horiz-adv-x="493" d="M151 742Q181 742 201 721T222 671Q222 666 221 648T212 603T185 546T128 483H81Q101 502 114 523T135 561Q144 580 151 599Q121 599 100 620T79 671Q79 701 100 721T151 742ZM345
742Q375 742 396 721T417 671Q417 666 416 648T407 603T379 546T323 483H275Q295 502 308 523T330 561Q339 580 345 599Q315 599 294 620T273 671Q273 701 294 721T345 742Z" />
<glyph unicode="&#x2039;" glyph-name="guilsinglleft" horiz-adv-x="457" d="M180 283L385 31H246L44 283L249 534H386L180 283Z" />
<glyph unicode="&#x203a;" glyph-name="guilsinglright" horiz-adv-x="457" d="M72 534H209L414 283L212 31H73L278 283L72 534Z" />
</font>
</defs>
</svg>
