<?xml version="1.0" standalone="no"?>
<!DOCTYPE svg PUBLIC "-//W3C//DTD SVG 1.1//EN" "http://www.w3.org/Graphics/SVG/1.1/DTD/svg11.dtd">
<svg xmlns="http://www.w3.org/2000/svg">
<defs >
<font id="DeliusUnicase" horiz-adv-x="644" ><font-face
    font-family="Delius Unicase"
    units-per-em="1000"
    panose-1="2 0 6 3 0 0 0 0 0 0"
    ascent="1016"
    descent="-236"
    alphabetic="0" />
<glyph unicode=" " glyph-name="space" horiz-adv-x="313" />
<glyph unicode="!" glyph-name="exclam" horiz-adv-x="289" d="M173 112T186 95T199 53T182 6T141 -15T104 3T90 47T106 92T148 112ZM188 467L189 266Q189 240 177 225T144 210T111 225T99 266L101 467L93 695Q93 725 106 742T144 760T181 743T195 695L188 467Z" />
<glyph unicode="&quot;" glyph-name="quotedbl" horiz-adv-x="413" d="M166 704L154 596Q152 553 145 535T118 517T92 535T82 596L70 704Q70 730 83 745T118 760T153 745T166 704ZM343 704L331 596Q329 553 322 535T295 517T269 535T259 596L247 704Q247 730 260
745T295 760T330 745T343 704Z" />
<glyph unicode="#" glyph-name="numbersign" horiz-adv-x="858" d="M361 431Q332 293 329 274H498Q504 298 515 357T530 431H361ZM691 196L564 199Q556 156 533 35Q525 -10 488 -10Q470 -10 460 1T449 27T484 200H317Q311 170 286 35Q278 -10 241 -10Q223 -10
213 1T202 25T208 68T223 140T235 200L122 196Q63 196 63 238Q63 278 122 278L249 274Q255 298 266 357T281 429L167 427Q108 427 108 466Q108 507 167 507L296 504Q305 547 327 668Q335 713 372 713Q390 713 400 702T411 675T376 503H543Q549 533 574 668Q582
713 619 713Q636 713 647 702T658 678T652 635T636 563T624 503L736 507Q795 507 795 466Q795 427 736 427Q714 427 609 430Q581 300 577 275L691 278Q750 278 750 238Q750 196 691 196Z" />
<glyph unicode="$" glyph-name="dollar" horiz-adv-x="624" d="M558 117T505 64T366 -4Q366 -85 320 -85T274 -7Q195 0 131 39T67 115Q67 133 79 145T108 157T144 146T176 122T217 95T276 78Q279 267 279 345Q199 389 161 421T108 482T93 545Q93 607 143 655T273
715Q273 802 319 802T365 715Q429 707 473 680T518 622Q518 603 506 592T473 581T420 602T362 630Q359 456 359 400Q405 375 432 358T493 314Q558 261 558 189ZM462 188Q462 243 359 301Q359 299 363 83Q407 95 434 122T462 188ZM238 621T214 598T189 546T211 494T279
443Q275 623 275 630Q238 621 214 598Z" />
<glyph unicode="%" glyph-name="percent" horiz-adv-x="874" d="M620 700Q620 650 562 589Q561 586 512 446T415 166T363 18Q350 -15 317 -15Q301 -15 289 -4T277 25T302 104Q406 361 469 555Q451 552 427 552T364 564Q366 548 366 537Q366 463 324 413T214 362T105
411T63 535T106 662T216 713Q247 713 275 699T322 668Q372 624 418 624T490 638Q516 735 538 752Q549 760 569 760T604 743T620 700ZM249 434T267 462T286 536T268 611T216 641T163 612T143 538T162 464T215 434ZM729 336T770 287T812 163T769 36T658 -15T548 34T506
159T549 285T660 336ZM693 57T712 86T732 160T713 234T660 264T606 235T586 162T605 87T659 57Z" />
<glyph unicode="&amp;" glyph-name="ampersand" horiz-adv-x="835" d="M455 370L538 368Q706 368 706 459Q706 490 688 510T647 538Q588 558 588 593Q588 611 600 622T633 634Q690 634 744 581T798 461Q798 372 735 331T577 287Q595 245 595 203Q595 113 522 49T333
-15T140 57T62 239Q62 302 93 361T176 460Q112 520 112 590T162 713T305 765Q362 765 410 737T459 677Q459 657 447 646T419 635T373 656T301 678T233 655T205 593Q205 536 257 501Q301 505 304 505Q334 505 353 491T372 453T351 414T300 399T249 409Q207 384 182
341T157 247Q157 169 206 121T331 72T454 111T502 202Q502 280 470 280Q452 280 432 270T393 260T362 273T350 306Q350 336 379 353T455 370Z" />
<glyph unicode="&apos;" glyph-name="quotesingle" horiz-adv-x="236" d="M166 704L154 596Q152 553 145 535T118 517T92 535T82 596L70 704Q70 730 83 745T118 760T153 745T166 704Z" />
<glyph unicode="(" glyph-name="parenleft" horiz-adv-x="347" d="M107 118T85 209T62 385T82 552T133 695T198 795T258 835T298 821T312 790T296 747T256 688T210 612T171 503T154 353T176 190T224 67T273 -11T295 -56T288 -75T266 -84Q241 -84 207 -46T140 55Z" />
<glyph unicode=")" glyph-name="parenright" horiz-adv-x="347" d="M244 635T264 553T285 385T263 209T208 56T141 -45T81 -84Q66 -84 59 -76T52 -57T74 -12T122 67T171 190T193 352T177 502T137 612T91 688T52 746T35 789T49 821T88 835T148 796T213 696Z" />
<glyph unicode="*" glyph-name="asterisk" horiz-adv-x="476" d="M204 642L194 716Q194 738 206 751T238 765T270 752T282 721T277 680T272 642Q279 647 298 662Q338 694 356 694T386 683T398 654T382 623T334 600T298 587Q303 584 334 574T381 552T398 520T386
491T360 480T331 488T298 511T271 532L282 460Q282 438 270 424T238 410T206 424T194 454T199 495T205 532Q198 527 178 512Q139 480 121 480T90 490T78 520T94 551T142 574T178 587Q173 590 142 600T95 622T78 653T90 683T116 694T144 686T177 663T204 642Z" />
<glyph unicode="+" glyph-name="plus" horiz-adv-x="601" d="M113 418L263 415Q263 485 261 522T259 561Q259 584 270 597T301 610T332 597T344 560Q344 558 343 540Q340 486 340 415L490 417Q512 417 526 405T540 375T526 345T490 333L340 336L344 177Q344 154
333 140T302 126T271 140T259 178L263 337L113 334Q91 334 77 346T63 376T77 406T113 418Z" />
<glyph unicode="," glyph-name="comma" horiz-adv-x="251" d="M177 36Q177 -18 141 -83T74 -148T43 -122Q43 -108 58 -83T74 -38T70 0T66 40T82 83T123 104T163 86T177 36Z" />
<glyph unicode="-" glyph-name="hyphen" horiz-adv-x="498" d="M249 336L130 333Q108 333 95 345T81 375T94 405T130 417L249 414L368 417Q390 417 403 405T417 375T404 345T368 333Q368 333 249 336Z" />
<glyph unicode="." glyph-name="period" horiz-adv-x="254" d="M155 119T168 102T182 59T165 11T124 -10T85 8T71 52T87 98T129 119Z" />
<glyph unicode="/" glyph-name="slash" horiz-adv-x="433" d="M271 809T284 822T318 835T349 820T361 789T347 718T306 558Q234 274 170 -20Q163 -51 152 -67T118 -84T84 -70T71 -40T83 25T123 182Q189 439 267 787Q271 809 284 822Z" />
<glyph unicode="0" glyph-name="zero" horiz-adv-x="728" d="M498 765T574 650T651 375T575 100T367 -15T157 100T77 375Q77 477 110 565T211 709T366 765Q498 765 574 650ZM555 250T555 375T504 589T367 678T227 588T173 375T227 162T367 72T504 161Z" />
<glyph unicode="1" glyph-name="one" horiz-adv-x="467" d="M331 698L327 380Q327 226 330 148T334 61Q334 -10 283 -10Q261 -10 249 4T235 33T232 65T235 186T238 379L237 625L165 517Q160 510 153 499T142 483T133 470T124 457T115 447T107 439T98 433Q91 428
76 428T50 440T38 469T52 510T92 564T119 599T126 608T141 627T172 669T202 711T225 738Q247 760 273 760T315 742T331 698Z" />
<glyph unicode="2" glyph-name="two" horiz-adv-x="618" d="M311 0L126 -5Q97 -5 79 8T61 51T97 132T184 241T288 356Q411 493 411 562Q411 617 377 647T292 678Q264 678 241 666T207 641T185 610T167 585Q150 565 130 565T98 578T85 608Q85 656 145 710T300 765T451
708T507 568Q507 518 466 448T375 320T263 193T178 87Q233 82 294 82T419 85T501 89T535 77T552 42T536 8T492 -5L311 0Z" />
<glyph unicode="3" glyph-name="three" horiz-adv-x="628" d="M305 750L471 755Q498 755 515 741T532 705Q532 663 464 594T354 474Q449 449 505 384T561 237Q561 137 492 61T302 -15Q211 -15 142 35T72 129Q72 143 82 154T106 166T140 152T177 119T229 87T300
72Q372 72 418 118T465 234T416 348T301 398Q268 365 246 353T199 341T159 355T145 395T172 445T253 482Q321 557 410 665Q381 668 325 668T214 665T144 661T111 673T94 708T110 742T154 755L305 750Z" />
<glyph unicode="4" glyph-name="four" horiz-adv-x="648" d="M482 329L533 332Q561 332 577 320T594 287T578 255T533 242L482 243L488 50Q488 23 475 7T439 -9T402 7T389 50L393 243H324L96 242Q70 242 55 256T40 291T58 341T137 446L341 708Q382 760 425 760Q451
760 469 744T488 690Q488 681 486 634Q482 491 482 329ZM157 327H394Q394 373 393 492T391 629Q279 496 157 327Z" />
<glyph unicode="5" glyph-name="five" horiz-adv-x="645" d="M325 750L477 755Q504 755 520 743T537 708T521 674T488 661T417 665T331 669T256 667T193 665Q198 628 198 560L193 454Q261 498 337 498Q451 498 514 428T577 250T506 64T314 -15Q213 -15 146 41T79
150Q79 168 91 181T118 195T142 190T155 180T168 162Q228 72 321 72Q390 72 436 126T482 251T442 368T332 415Q267 415 188 359Q162 340 146 340Q96 340 96 390Q96 403 103 461T110 559T104 641T98 699Q98 754 164 754L325 750Z" />
<glyph unicode="6" glyph-name="six" horiz-adv-x="647" d="M455 487T517 414T579 241T514 63T331 -14T145 70T77 285Q77 481 188 620T466 760Q503 760 522 748T542 717Q542 669 477 669Q368 669 287 596T182 416Q251 487 353 487ZM183 169T223 121T330 73T439
120T483 236T442 352T335 400T227 353T183 237Z" />
<glyph unicode="7" glyph-name="seven" horiz-adv-x="560" d="M273 750L439 754Q520 754 520 695Q520 673 499 630T434 507Q320 295 244 31Q232 -9 195 -9Q175 -9 162 5T149 47T171 137T238 301T319 481T377 601T405 663Q353 668 293 668T173 665T96 661T63 673T46
708T62 742T106 755L273 750Z" />
<glyph unicode="8" glyph-name="eight" horiz-adv-x="646" d="M572 204Q572 113 502 49T323 -15T144 49T74 204Q74 337 237 419Q114 491 114 590Q114 662 173 714T322 766T472 714T532 590Q532 494 416 419Q572 336 572 204ZM476 204Q476 304 323 371Q170 304
170 204Q170 145 214 109T323 72T432 108T476 204ZM439 553T439 590T404 653T324 679T243 653T207 591T238 525T325 464Q379 494 409 523Z" />
<glyph unicode="9" glyph-name="nine" horiz-adv-x="645" d="M190 265T128 341T66 516T134 690T317 765T500 681T568 466Q568 263 458 125T179 -14Q143 -14 124 -1T104 31T120 65T170 80Q279 80 359 153T464 337Q392 265 291 265ZM248 678T205 631T162 515T201
399T309 352T421 403T465 521T422 632T313 678Z" />
<glyph unicode=":" glyph-name="colon" horiz-adv-x="273" d="M165 504T178 487T192 444T175 397T134 375T95 393T81 437T97 483T139 504ZM165 119T178 102T192 59T175 11T134 -10T95 8T81 52T97 98T139 119Z" />
<glyph unicode=";" glyph-name="semicolon" horiz-adv-x="283" d="M170 504T183 487T197 444T180 397T139 375T100 393T86 437T102 483T144 504ZM196 36Q196 -18 160 -83T93 -148T62 -122Q62 -108 77 -83T93 -38T89 0T85 40T101 83T142 104T182 86T196 36Z" />
<glyph unicode="&lt;" glyph-name="less" horiz-adv-x="620" d="M85 358T85 376T93 408T125 435T166 457T227 481T297 509T362 536T419 560T462 578Q504 593 522 593T553 583T565 556Q565 529 531 514Q494 499 436 478T354 446Q202 386 202 376Q202 368 316 322L353
306Q377 296 435 275T530 238Q564 223 564 196Q564 180 552 170T527 159T499 162T461 174T418 192Q309 239 246 263T166 295T125 316T94 344Z" />
<glyph unicode="=" glyph-name="equal" horiz-adv-x="662" d="M326 412L142 409Q120 409 107 421T93 451T106 481T142 493L326 490L520 493Q542 493 555 481T569 451T556 421T520 409L326 412ZM326 258L142 255Q120 255 107 267T93 297T106 327T142 339L326 336L520
339Q542 339 555 327T569 297T556 267T520 255L326 258Z" />
<glyph unicode="&gt;" glyph-name="greater" horiz-adv-x="620" d="M535 394T535 376T527 344T495 317T455 295T394 271T324 243T259 216T202 192T159 174Q117 159 99 159T68 169T56 196Q56 223 90 238Q127 253 185 274T267 306Q418 366 418 376Q418 384 304 430L266
446Q242 456 184 477T89 514Q55 529 55 556Q55 572 67 582T92 593T120 590T158 578T200 560Q310 513 373 489T454 457T495 436T526 408Z" />
<glyph unicode="?" glyph-name="question" horiz-adv-x="521" d="M456 580Q456 542 440 506T408 452T360 400Q330 375 315 361T285 322T270 274Q270 208 225 208Q205 208 192 225T179 272T187 325T214 372Q240 403 288 446Q312 473 324 488T348 529T360 580Q360
623 328 650T254 678Q193 678 149 634Q125 606 106 606T75 618T64 648Q64 686 121 726T249 766Q341 766 398 713T456 580ZM251 112T264 95T277 53T260 6T219 -15T182 3T168 47T184 92T226 112Z" />
<glyph unicode="@" glyph-name="at" horiz-adv-x="938" d="M864 369Q864 266 814 197T692 127Q603 127 575 210Q518 127 429 127Q385 127 350 148T296 202Q257 267 257 342Q257 437 315 506T465 576Q514 576 564 540Q578 576 610 576Q664 576 664 496Q664 486
654 421T644 313Q644 209 691 209Q723 209 748 247T774 371Q774 521 686 599T468 678T249 581T159 339T236 110T421 26Q474 26 531 48T592 71Q608 71 618 62T628 37Q628 10 567 -22T417 -55Q268 -55 166 54T64 338T180 639T467 765T751 658T864 369ZM561 334V453Q512
489 466 489T386 448T352 349T372 252T432 213T505 248T561 334Z" />
<glyph unicode="A" glyph-name="A" horiz-adv-x="692" d="M476 241L347 244Q251 244 207 242Q196 209 176 139T142 29T96 -10Q77 -10 66 2T54 28T55 52T62 79T74 113Q103 199 116 239Q87 239 71 251T54 285Q54 332 128 332H146Q242 600 256 638T273 683T279 700T287
717T296 731T305 743T316 752Q329 760 343 760T367 757T384 746T397 729T410 701T424 666Q472 519 544 332L580 333Q606 333 622 319T639 284Q639 240 573 237Q583 205 600 156Q639 50 639 34T628 4T596 -10Q560 -10 544 29Q527 78 476 241ZM232 328Q296 326 355
326T451 328Q346 630 344 630Q338 630 258 404L232 328Z" />
<glyph unicode="B" glyph-name="B" horiz-adv-x="725" d="M662 212Q662 109 573 47T339 -15Q223 -15 149 8T74 69T124 106Q127 209 127 379T123 621Q80 634 80 667Q80 692 110 712T183 743Q269 765 338 765T461 747T546 698Q608 639 608 574Q608 468 511 409Q577
385 619 331T662 212ZM336 72Q441 72 503 109T565 218Q565 274 511 311T394 359Q333 345 290 345T218 349Q218 166 221 85Q263 72 336 72ZM336 679Q274 679 221 659Q218 608 218 439Q259 448 301 448T380 440Q420 442 468 478T517 573Q517 614 473 646T336 679Z"
/>
<glyph unicode="C" glyph-name="C" horiz-adv-x="708" d="M655 106Q655 70 581 28T405 -15Q262 -15 167 99T72 376T167 652T407 765Q495 765 564 732T634 658Q634 638 622 626T590 614T535 637Q471 678 407 678Q303 678 236 589T168 377T235 163T401 72T580 121Q613
139 624 139T645 130T655 106Z" />
<glyph unicode="D" glyph-name="D" horiz-adv-x="759" d="M128 376L123 636Q79 640 79 677T158 739T321 764T479 731T596 642Q687 528 687 372Q687 220 600 108Q557 52 486 19T317 -15T147 10T75 74Q75 111 125 111L128 376ZM591 501T520 589T313 678Q256 678
222 661Q219 599 219 391T224 85Q260 72 325 72T442 98T526 168Q591 258 591 379Z" />
<glyph unicode="E" glyph-name="E" horiz-adv-x="639" d="M514 662L355 668Q278 668 218 663V441Q237 440 284 440L463 445Q490 445 506 433T522 399Q522 355 463 355L284 359Q241 359 218 358V279Q218 133 222 87Q282 82 358 82Q358 82 517 88Q544 88 560 76T577
41T561 7T517 -6L358 0L177 -5Q123 -5 123 41Q123 76 125 155T128 355Q61 355 61 399Q61 422 80 433T128 445Q126 632 121 670Q109 689 109 710Q109 755 171 755L355 750L514 756Q541 756 557 744T574 709T558 675T514 662Z" />
<glyph unicode="F" glyph-name="F" horiz-adv-x="616" d="M284 440L454 445Q481 445 497 433T513 399Q513 355 454 355L284 359Q240 359 217 358Q217 227 220 148T223 61Q223 -10 172 -10T121 61Q121 69 122 108Q127 225 127 355Q60 355 60 399Q60 422 79 433T127
445Q125 632 120 670Q108 689 108 710Q108 755 170 755L355 750L515 756Q542 756 558 744T575 709T559 675T515 662L355 668Q277 668 217 663V441Q236 440 284 440Z" />
<glyph unicode="G" glyph-name="G" horiz-adv-x="772" d="M526 398L652 404Q679 404 695 391T712 353Q712 183 627 84T402 -15T167 99T72 376T170 652T418 765Q511 765 587 728T664 648Q664 629 653 618T619 607T558 634Q497 678 418 678Q310 678 239 589T168
378T236 164T407 72Q492 72 549 135T610 314Q577 317 526 317L391 312Q364 312 349 324T334 356T349 390T391 403L526 398Z" />
<glyph unicode="H" glyph-name="H" horiz-adv-x="768" d="M553 353L381 355Q265 355 213 354Q213 275 216 171T219 61Q219 -10 168 -10T117 61Q117 66 120 169T123 351Q59 351 59 396Q59 417 75 429T123 442Q123 521 120 602T117 689Q117 760 168 760T219 689Q219
684 216 601T213 439Q311 437 408 437T553 439Q553 518 551 601T548 689Q548 760 599 760T650 689Q650 684 647 603T644 443Q674 443 691 430T709 396T692 363T644 350Q644 271 647 169T650 61Q650 -10 599 -10T548 61L553 353Z" />
<glyph unicode="I" glyph-name="I" horiz-adv-x="486" d="M374 661L292 665Q288 568 288 387T293 83L374 87Q401 87 417 75T434 41T418 7T374 -6L243 0L112 -6Q85 -6 69 6T52 40T68 74T112 87L193 82Q198 204 198 386T194 665L112 661Q85 661 69 674T52 709T68
743T112 756L243 750L374 756Q401 756 417 744T434 709T418 674T374 661Z" />
<glyph unicode="J" glyph-name="J" horiz-adv-x="593" d="M328 750L477 756Q504 756 520 744T537 710T518 675T469 662Q468 600 468 257Q468 184 448 129T393 44Q326 -15 241 -15T101 19T46 87Q46 106 57 117T86 129T122 115T168 87T237 72Q295 72 336 121T378
278L375 667Q312 667 261 664T191 661T156 673T139 708T155 742T199 755L328 750Z" />
<glyph unicode="K" glyph-name="K" horiz-adv-x="688" d="M208 337L213 47Q213 23 198 7T163 -10T128 6T113 47Q113 47 117 372L113 702Q113 726 127 742T162 759T198 743T213 702L210 612Q208 522 208 434Q235 442 277 442L333 436Q380 471 428 556T493 714Q504
760 541 760Q558 760 570 747T583 715Q583 653 528 552T408 386Q510 202 575 119Q610 75 641 75L652 76Q659 76 659 54T641 11T595 -10T540 14Q485 61 324 341L260 334Q224 334 208 337Z" />
<glyph unicode="L" glyph-name="L" horiz-adv-x="594" d="M115 54L119 380Q119 511 116 596T113 689Q113 760 164 760T215 689Q215 681 214 638Q209 511 209 406T210 241T213 140T215 87Q263 82 319 82T428 85T497 89T530 77T547 42T531 8T487 -5L338 0L176 -5Q146
-5 131 7T115 54Z" />
<glyph unicode="M" glyph-name="M" horiz-adv-x="872" d="M214 48Q214 22 200 6T164 -10T127 6T113 39T114 104Q118 216 118 345T116 584T113 697Q113 726 127 743T163 760Q195 760 213 721L436 242Q528 436 639 684Q661 733 673 746T707 760T744 744T759 697Q754
671 754 470T757 160T760 48Q760 22 746 6T710 -10T673 6T659 39T660 104Q666 279 666 372V525L485 144Q468 109 439 109T392 146L208 525V372Q208 269 211 160T214 48Z" />
<glyph unicode="N" glyph-name="N" horiz-adv-x="743" d="M626 372L629 62Q629 -10 576 -10Q543 -10 526 21L209 567Q209 334 211 195T214 40T199 7T164 -10T129 6T114 48L118 372Q118 475 116 581T113 689Q113 760 164 760Q201 760 219 729Q510 229 536 189Q536
472 533 579T530 689Q530 760 581 760T632 689Q632 681 630 636Q626 503 626 372Z" />
<glyph unicode="O" glyph-name="O" horiz-adv-x="824" d="M517 72T586 164T656 377T587 588T413 679T238 589T168 378T238 165T412 72ZM752 539T752 376T655 99T412 -15T169 99T72 376T170 652T413 765T655 652Z" />
<glyph unicode="P" glyph-name="P" horiz-adv-x="651" d="M324 679Q258 679 214 656Q211 608 211 513T213 374Q274 359 347 359T474 404T528 519T474 634T324 679ZM114 45L122 382Q122 629 116 629Q94 632 83 644T72 675T101 714T172 744Q256 765 318 765Q468
765 546 694T624 520T546 346T344 274Q251 274 211 285L216 45Q216 19 202 3T166 -13T129 3T114 45Z" />
<glyph unicode="Q" glyph-name="Q" horiz-adv-x="824" d="M752 376Q752 271 709 183T592 43Q599 31 614 8Q644 -37 644 -54T633 -82T602 -94T566 -67L527 3Q468 -15 411 -15Q266 -15 169 99T72 376T170 652T413 765T655 652T752 376ZM656 376Q656 498 587 588T413
679T238 589T168 378T238 165T412 72Q451 72 484 81Q468 106 450 132Q422 172 422 192T433 223T463 234T500 207Q501 205 538 116Q593 158 624 228T656 376Z" />
<glyph unicode="R" glyph-name="R" horiz-adv-x="686" d="M504 533Q504 599 454 639T309 679Q262 679 212 661Q209 571 209 490T210 395Q258 404 300 404T395 395Q431 405 467 445T504 533ZM629 76L645 78Q654 78 654 54T633 10T586 -10Q541 -10 500 48Q447 120
365 301Q320 295 263 295L211 299Q211 229 214 158T217 56Q217 -15 166 -15T115 56Q115 96 118 197T122 394T116 627Q72 636 72 672Q72 715 155 740T303 765Q449 765 524 700T600 539Q600 478 559 420T452 330Q498 224 535 164T592 90T629 76Z" />
<glyph unicode="S" glyph-name="S" horiz-adv-x="606" d="M547 204Q547 111 477 48T294 -15Q207 -15 132 27T57 109Q57 127 69 139T99 151T137 139T172 112T220 85T294 72Q362 72 406 107T451 204Q451 245 413 282T321 349T213 410T121 487T83 586Q83 659 147
712T298 765T446 736T507 668Q507 649 495 638T463 627T424 640T377 666T302 679T217 653T179 589T217 519T309 456T417 393T509 311T547 204Z" />
<glyph unicode="T" glyph-name="T" horiz-adv-x="593" d="M102 756L301 750L494 756Q521 756 537 744T554 709T538 675T494 662L350 668Q346 571 346 372L352 48Q352 22 338 6T302 -10T265 6T250 48L256 372Q256 546 251 668L102 662Q75 662 59 674T42 709T58
743T102 756Z" />
<glyph unicode="U" glyph-name="U" horiz-adv-x="743" d="M638 138T569 62T372 -15T174 62T103 249Q102 301 102 378T101 525T98 638T96 689Q96 760 147 760T198 689Q198 681 196 626Q192 459 192 366T199 230T226 150Q263 72 371 72Q524 72 546 249Q551 284 551
343T550 486T547 625T545 689Q545 760 596 760T647 689Q647 681 646 638Q641 511 641 406T640 249Q638 138 569 62Z" />
<glyph unicode="V" glyph-name="V" horiz-adv-x="673" d="M397 40Q380 -10 337 -10T276 40Q130 450 121 479T88 573T52 669T40 716T52 745T87 760Q125 760 140 715Q330 133 337 133Q348 133 538 715Q553 760 586 760Q608 760 620 745T633 716T621 670Q564 515
554 483T397 40Z" />
<glyph unicode="W" glyph-name="W" horiz-adv-x="959" d="M714 38Q697 -10 654 -10T593 35Q580 71 531 237T479 404T456 331T407 164T370 38Q355 -10 311 -10T250 35Q245 48 227 106T184 246T146 364T117 453T89 538T66 611Q42 689 42 711T55 746T86 760Q126 760
140 715Q202 518 258 319T315 119Q319 119 364 276T424 495Q429 517 444 533T482 550Q527 550 541 499Q652 119 660 119L695 247Q730 375 771 527T822 715Q834 760 867 760Q890 760 902 746T914 709T867 533T790 280Q732 93 714 38Z" />
<glyph unicode="X" glyph-name="X" horiz-adv-x="696" d="M328 311Q307 278 260 202T202 109T181 75T165 50Q165 50 152 31Q143 17 131 6Q114 -10 97 -10T67 2T55 28T61 56T86 99T126 160Q219 294 278 387Q188 547 130 636Q106 672 74 672Q56 672 52 678T48 695Q48
726 66 744T110 763T154 750T201 698Q211 682 336 465Q361 505 407 582T464 676T478 701T490 720T503 737T514 749Q526 760 544 760T573 748T585 718T565 667T480 533T386 388Q524 168 561 123T626 78Q641 78 644 73T648 57Q648 26 630 7T585 -13Q544 -13 495 53Q468
89 328 311Z" />
<glyph unicode="Y" glyph-name="Y" horiz-adv-x="607" d="M347 303Q347 223 350 142L352 61Q352 -10 301 -10T250 61L252 144Q255 227 255 304Q56 646 43 673T30 717T42 747T76 760T115 739T189 603T306 401Q330 437 390 549T460 677T474 701T485 721T497 738T508
750Q518 760 536 760T565 748T577 719T563 675T500 564T437 458T398 390T347 303Z" />
<glyph unicode="Z" glyph-name="Z" horiz-adv-x="618" d="M295 750L498 755Q555 755 555 714Q555 689 535 653T456 531T351 368L180 87Q237 82 307 82T440 85T519 89T553 77T570 42T554 8T510 -5L335 0L106 -5Q49 -5 49 38Q49 62 73 103T160 238T273 413L425 664Q380
668 316 668T190 665T111 661T77 673T60 708T76 742T120 755L295 750Z" />
<glyph unicode="[" glyph-name="bracketleft" horiz-adv-x="438" d="M193 0L337 3Q364 3 380 -9T397 -41T381 -74T337 -86L243 -83L146 -87Q122 -87 107 -75T92 -46T95 104T98 375T95 640T91 790T106 824T146 839L243 835L337 838Q363 838 380 826T397 793T380
761T337 748Q332 748 314 749Q278 751 193 751Q193 748 190 619T187 377T190 136T193 0Z" />
<glyph unicode="\" glyph-name="backslash" horiz-adv-x="433" d="M71 805T82 820T114 835T147 822T165 787Q243 439 290 256Q361 -20 361 -38T349 -70T314 -84T281 -68T262 -20Q198 274 148 468Q71 772 71 788Z" />
<glyph unicode="]" glyph-name="bracketright" horiz-adv-x="438" d="M245 752L101 749Q74 749 58 761T41 793T57 826T101 838L195 835L292 839Q316 839 331 827T346 798T343 648T340 377T343 112T347 -38T332 -72T292 -87L195 -83L101 -86Q75 -86 58 -74T41 -41T58
-9T101 4L245 1Q245 4 248 133T251 375T248 616T245 752Z" />
<glyph unicode="^" glyph-name="asciicircum" horiz-adv-x="591" d="M57 420T79 458T162 594T243 726T296 760T350 725Q515 459 525 437T536 402T524 376T490 364T454 391Q417 459 359 559T297 660T235 561T139 391Q133 379 122 372T96 364T69 376T57 404Z" />
<glyph unicode="_" glyph-name="underscore" horiz-adv-x="626" d="M313 -86L114 -89Q92 -89 79 -77T65 -47T78 -17T114 -5L313 -8L512 -5Q534 -5 547 -17T561 -47T548 -77T512 -89Q512 -89 313 -86Z" />
<glyph unicode="`" glyph-name="grave" horiz-adv-x="330" d="M85 696Q85 713 96 726T125 740T155 731T173 712T188 682T221 633T245 591T237 571T212 563Q180 563 133 607T85 696Z" />
<glyph unicode="a" glyph-name="a" horiz-adv-x="810" d="M648 367Q648 255 662 178T698 90Q706 86 717 85T733 80T738 69Q738 33 718 10T665 -13Q621 -13 599 37T577 165Q524 81 466 33T335 -15T212 19T132 110Q72 225 72 363Q72 527 157 646T377 765Q429 765
478 746T561 696Q561 765 612 765Q675 765 675 664Q675 589 648 367ZM569 355L563 600Q478 678 377 678Q294 678 231 589T168 371T211 158T329 72T479 167T569 355Z" />
<glyph unicode="b" glyph-name="b" horiz-adv-x="725" d="M662 212Q662 109 573 47T339 -15Q223 -15 149 8T74 69T124 106Q127 209 127 379T123 621Q80 634 80 667Q80 692 110 712T183 743Q269 765 338 765T461 747T546 698Q608 639 608 574Q608 468 511 409Q577
385 619 331T662 212ZM336 72Q441 72 503 109T565 218Q565 274 511 311T394 359Q333 345 290 345T218 349Q218 166 221 85Q263 72 336 72ZM336 679Q274 679 221 659Q218 608 218 439Q259 448 301 448T380 440Q420 442 468 478T517 573Q517 614 473 646T336 679Z"
/>
<glyph unicode="c" glyph-name="c" horiz-adv-x="708" d="M655 106Q655 70 581 28T405 -15Q262 -15 167 99T72 376T167 652T407 765Q495 765 564 732T634 658Q634 638 622 626T590 614T535 637Q471 678 407 678Q303 678 236 589T168 377T235 163T401 72T580 121Q613
139 624 139T645 130T655 106Z" />
<glyph unicode="d" glyph-name="d" horiz-adv-x="759" d="M128 376L123 636Q79 640 79 677T158 739T321 764T479 731T596 642Q687 528 687 372Q687 220 600 108Q557 52 486 19T317 -15T147 10T75 74Q75 111 125 111L128 376ZM591 501T520 589T313 678Q256 678
222 661Q219 599 219 391T224 85Q260 72 325 72T442 98T526 168Q591 258 591 379Z" />
<glyph unicode="e" glyph-name="e" horiz-adv-x="745" d="M596 553Q596 600 558 639T452 678T334 638Q240 565 213 421Q289 400 384 400T538 440T596 553ZM668 71T597 28T444 -15T301 16T201 99Q120 207 114 352Q42 374 42 423Q42 443 53 454T80 466T122 454Q153
588 238 676T448 765Q549 765 620 704T692 557T648 416Q565 315 390 315Q318 315 211 335Q220 227 282 150T431 72T593 121Q626 139 637 139T658 130T668 106Q668 71 597 28Z" />
<glyph unicode="f" glyph-name="f" horiz-adv-x="616" d="M284 440L454 445Q481 445 497 433T513 399Q513 355 454 355L284 359Q240 359 217 358Q217 227 220 148T223 61Q223 -10 172 -10T121 61Q121 69 122 108Q127 225 127 355Q60 355 60 399Q60 422 79 433T127
445Q125 632 120 670Q108 689 108 710Q108 755 170 755L355 750L515 756Q542 756 558 744T575 709T559 675T515 662L355 668Q277 668 217 663V441Q236 440 284 440Z" />
<glyph unicode="g" glyph-name="g" horiz-adv-x="772" d="M526 398L652 404Q679 404 695 391T712 353Q712 183 627 84T402 -15T167 99T72 376T170 652T418 765Q511 765 587 728T664 648Q664 629 653 618T619 607T558 634Q497 678 418 678Q310 678 239 589T168
378T236 164T407 72Q492 72 549 135T610 314Q577 317 526 317L391 312Q364 312 349 324T334 356T349 390T391 403L526 398Z" />
<glyph unicode="h" glyph-name="h" horiz-adv-x="768" d="M553 353L381 355Q265 355 213 354Q213 275 216 171T219 61Q219 -10 168 -10T117 61Q117 66 120 169T123 351Q59 351 59 396Q59 417 75 429T123 442Q123 521 120 602T117 689Q117 760 168 760T219 689Q219
684 216 601T213 439Q311 437 408 437T553 439Q553 518 551 601T548 689Q548 760 599 760T650 689Q650 684 647 603T644 443Q674 443 691 430T709 396T692 363T644 350Q644 271 647 169T650 61Q650 -10 599 -10T548 61L553 353Z" />
<glyph unicode="i" glyph-name="i" horiz-adv-x="486" d="M374 661L292 665Q288 568 288 387T293 83L374 87Q401 87 417 75T434 41T418 7T374 -6L243 0L112 -6Q85 -6 69 6T52 40T68 74T112 87L193 82Q198 204 198 386T194 665L112 661Q85 661 69 674T52 709T68
743T112 756L243 750L374 756Q401 756 417 744T434 709T418 674T374 661Z" />
<glyph unicode="j" glyph-name="j" horiz-adv-x="593" d="M328 750L477 756Q504 756 520 744T537 710T518 675T469 662Q468 600 468 257Q468 184 448 129T393 44Q326 -15 241 -15T101 19T46 87Q46 106 57 117T86 129T122 115T168 87T237 72Q295 72 336 121T378
278L375 667Q312 667 261 664T191 661T156 673T139 708T155 742T199 755L328 750Z" />
<glyph unicode="k" glyph-name="k" horiz-adv-x="688" d="M208 337L213 47Q213 23 198 7T163 -10T128 6T113 47Q113 47 117 372L113 702Q113 726 127 742T162 759T198 743T213 702L210 612Q208 522 208 434Q235 442 277 442L333 436Q380 471 428 556T493 714Q504
760 541 760Q558 760 570 747T583 715Q583 653 528 552T408 386Q510 202 575 119Q610 75 641 75L652 76Q659 76 659 54T641 11T595 -10T540 14Q485 61 324 341L260 334Q224 334 208 337Z" />
<glyph unicode="l" glyph-name="l" horiz-adv-x="594" d="M115 54L119 380Q119 511 116 596T113 689Q113 760 164 760T215 689Q215 681 214 638Q209 511 209 406T210 241T213 140T215 87Q263 82 319 82T428 85T497 89T530 77T547 42T531 8T487 -5L338 0L176 -5Q146
-5 131 7T115 54Z" />
<glyph unicode="m" glyph-name="m" horiz-adv-x="1218" d="M1083 460L1076 218Q1076 180 1077 161T1085 121T1106 94Q1114 90 1125 89T1141 84T1146 73Q1146 38 1124 15T1072 -9Q1021 -9 1002 31T982 150L987 429Q987 538 950 604T847 671T719 583T631 383L635
60Q635 26 624 9T584 -9Q522 -9 522 91T549 383Q549 671 406 671Q342 671 280 583T192 383L196 60Q196 -9 145 -9Q83 -9 83 91T110 383Q110 449 99 560T87 697T101 741T139 760T178 742T192 700T192 645T191 589Q283 760 425 760Q507 760 558 714T630 589Q725 760
865 760Q969 760 1026 673T1083 460Z" />
<glyph unicode="n" glyph-name="n" horiz-adv-x="805" d="M670 497L663 215Q663 177 664 158T672 118T693 91Q701 87 712 86T728 81T733 70Q733 35 711 12T659 -12Q607 -12 588 28T568 147L574 431Q574 540 536 605T426 671T285 584T191 385L195 57Q195 -12 144
-12Q82 -12 82 92T109 385Q109 450 98 561T86 698T100 741T138 760T177 742T191 700T191 645T190 589Q288 760 438 760Q549 760 609 684T670 497Z" />
<glyph unicode="o" glyph-name="o" horiz-adv-x="824" d="M517 72T586 164T656 377T587 588T413 679T238 589T168 378T238 165T412 72ZM752 539T752 376T655 99T412 -15T169 99T72 376T170 652T413 765T655 652Z" />
<glyph unicode="p" glyph-name="p" horiz-adv-x="651" d="M324 679Q258 679 214 656Q211 608 211 513T213 374Q274 359 347 359T474 404T528 519T474 634T324 679ZM114 48L122 382Q122 629 116 629Q94 632 83 644T72 675T101 714T172 744Q256 765 318 765Q468
765 546 694T624 520T546 346T344 274Q251 274 211 285L216 48Q216 22 202 6T166 -10T129 6T114 48Z" />
<glyph unicode="q" glyph-name="q" horiz-adv-x="824" d="M752 376Q752 271 709 183T592 43Q599 31 614 8Q644 -37 644 -54T633 -82T602 -94T566 -67L527 3Q468 -15 411 -15Q266 -15 169 99T72 376T170 652T413 765T655 652T752 376ZM656 376Q656 498 587 588T413
679T238 589T168 378T238 165T412 72Q451 72 484 81Q468 106 450 132Q422 172 422 192T433 223T463 234T500 207Q501 205 538 116Q593 158 624 228T656 376Z" />
<glyph unicode="r" glyph-name="r" horiz-adv-x="563" d="M192 355Q192 355 195 57Q195 -12 144 -12Q82 -12 82 92T109 385Q109 450 98 561T86 698T100 741T138 760T177 742T191 700T191 645T190 590Q219 659 279 711T401 764T497 740T530 687T515 642T476 625T426
650T381 675Q335 675 272 569T192 355Z" />
<glyph unicode="s" glyph-name="s" horiz-adv-x="606" d="M547 204Q547 111 477 48T294 -15Q207 -15 132 27T57 109Q57 127 69 139T99 151T137 139T172 112T220 85T294 72Q362 72 406 107T451 204Q451 245 413 282T321 349T213 410T121 487T83 586Q83 659 147
712T298 765T446 736T507 668Q507 649 495 638T463 627T424 640T377 666T302 679T217 653T179 589T217 519T309 456T417 393T509 311T547 204Z" />
<glyph unicode="t" glyph-name="t" horiz-adv-x="593" d="M102 756L301 750L494 756Q521 756 537 744T554 709T538 675T494 662L350 668Q346 571 346 372L352 48Q352 22 338 6T302 -10T265 6T250 48L256 372Q256 546 251 668L102 662Q75 662 59 674T42 709T58
743T102 756Z" />
<glyph unicode="u" glyph-name="u" horiz-adv-x="819" d="M202 646L191 314Q191 205 228 139T342 72T490 161T574 360L570 688Q570 757 621 757Q683 757 683 655T656 360Q656 250 670 174T706 88Q714 84 725 83T742 78T747 67Q747 30 725 8T669 -15Q584 -15 584
158Q484 -15 332 -15Q251 -15 196 30Q96 114 96 297L104 536Q104 590 93 636T82 702T98 740T140 757Q202 757 202 646Z" />
<glyph unicode="v" glyph-name="v" horiz-adv-x="673" d="M397 40Q380 -10 337 -10T276 40Q130 450 121 479T88 573T52 669T40 716T52 745T87 760Q125 760 140 715Q330 133 337 133Q348 133 538 715Q553 760 586 760Q608 760 620 745T633 716T621 670Q564 515
554 483T397 40Z" />
<glyph unicode="w" glyph-name="w" horiz-adv-x="959" d="M714 38Q697 -10 654 -10T593 35Q580 71 531 237T479 404T456 331T407 164T370 38Q355 -10 311 -10T250 35Q245 48 227 106T184 246T146 364T117 453T89 538T66 611Q42 689 42 711T55 746T86 760Q126 760
140 715Q202 518 258 319T315 119Q319 119 364 276T424 495Q429 517 444 533T482 550Q527 550 541 499Q652 119 660 119L695 247Q730 375 771 527T822 715Q834 760 867 760Q890 760 902 746T914 709T867 533T790 280Q732 93 714 38Z" />
<glyph unicode="x" glyph-name="x" horiz-adv-x="696" d="M328 311Q307 278 260 202T202 109T181 75T165 50Q165 50 152 31Q143 17 131 6Q114 -10 97 -10T67 2T55 28T61 56T86 99T126 160Q219 294 278 387Q188 547 130 636Q106 672 74 672Q56 672 52 678T48 695Q48
726 66 744T110 763T154 750T201 698Q211 682 336 465Q361 505 407 582T464 676T478 701T490 720T503 737T514 749Q526 760 544 760T573 748T585 718T565 667T480 533T386 388Q524 168 561 123T626 78Q641 78 644 73T648 57Q648 26 630 7T585 -13Q544 -13 495 53Q468
89 328 311Z" />
<glyph unicode="y" glyph-name="y" horiz-adv-x="607" d="M347 303Q347 223 350 142L352 61Q352 -10 301 -10T250 61L252 144Q255 227 255 304Q56 646 43 673T30 717T42 747T76 760T115 739T189 603T306 401Q330 437 390 549T460 677T474 701T485 721T497 738T508
750Q518 760 536 760T565 748T577 719T563 675T500 564T437 458T398 390T347 303Z" />
<glyph unicode="z" glyph-name="z" horiz-adv-x="618" d="M295 750L498 755Q555 755 555 714Q555 689 535 653T456 531T351 368L180 87Q237 82 307 82T440 85T519 89T553 77T570 42T554 8T510 -5L335 0L106 -5Q49 -5 49 38Q49 62 73 103T160 238T273 413L425 664Q380
668 316 668T190 665T111 661T77 673T60 708T76 742T120 755L295 750Z" />
<glyph unicode="{" glyph-name="braceleft" horiz-adv-x="369" d="M293 3T307 -7T322 -38T310 -70T277 -83Q219 -83 176 -51T132 39Q132 66 139 122T147 210Q147 303 125 322Q108 315 87 315T47 329T29 374T47 418T87 433T126 426Q148 445 148 538Q148 569 141
627T133 713Q133 771 176 803T278 835Q299 835 311 823T323 790T309 760T277 747T246 735T231 706T238 634T245 534T238 454T223 408T199 376Q215 357 222 344Q244 305 244 210Q244 168 237 117T230 47T244 18T276 5Z" />
<glyph unicode="|" glyph-name="bar" horiz-adv-x="268" d="M173 324L178 -28Q178 -84 134 -84T90 -28L95 324L91 704Q91 760 134 760T177 704L173 324Z" />
<glyph unicode="}" glyph-name="braceright" horiz-adv-x="369" d="M180 376Q163 396 156 408T142 453T134 533T141 633T148 705T134 734T102 747T71 759T56 790T68 822T101 835Q155 835 195 803T236 713Q236 686 229 628T221 538Q221 445 243 426Q260 433 281
433T321 419T340 374T322 330T283 315T244 322Q222 303 222 210Q222 179 229 123T237 39Q237 -19 197 -51T102 -83Q81 -83 69 -71T57 -38T71 -8T103 5T134 17T149 46T142 116T135 214T142 295T156 343T180 376Z" />
<glyph unicode="~" glyph-name="asciitilde" horiz-adv-x="622" d="M549 404Q549 375 507 344T422 312T322 340T240 368T180 339T122 309T86 320T74 349Q74 382 122 413T225 444T337 416T419 387T471 411T514 436T540 427T549 404Z" />
<glyph unicode="&#xa0;" glyph-name="nbspace" horiz-adv-x="290" />
<glyph unicode="&#xa1;" glyph-name="exclamdown" horiz-adv-x="267" d="M161 690T174 672T188 628T172 583T130 563T92 580T79 622T96 669T137 690ZM177 208L185 -20Q185 -50 172 -67T134 -85T97 -68T83 -20L90 208L89 409Q89 435 101 450T134 465T167 450T179
409L177 208Z" />
<glyph unicode="&#xa2;" glyph-name="cent" horiz-adv-x="728" d="M665 112Q665 82 605 41T462 -11Q462 -82 416 -82T370 -7Q238 12 155 113T72 352T154 590T369 713Q369 787 415 787T461 716Q542 711 597 682T653 615Q653 597 641 586T609 575T545 601T459 635Q455
507 455 354T459 72Q529 81 592 130Q613 145 628 145Q665 145 665 112ZM372 74Q375 266 375 321T371 633Q281 615 224 535T167 355T224 174T372 74Z" />
<glyph unicode="&#xa3;" glyph-name="sterling" horiz-adv-x="583" d="M395 310L252 313Q258 225 242 180T200 86Q235 82 287 82T394 85T466 89T499 77T516 42T500 8T456 -5L301 0L147 -5Q119 -5 103 10T86 53T104 112T142 182T161 257T161 311Q153 310 130 310Q75
310 75 350T128 391Q132 391 139 391T149 390Q146 406 138 437Q122 505 122 544Q122 616 174 664T319 713Q378 713 434 683T490 621Q490 604 480 591T450 577T392 601T312 626T244 603T218 544T241 388L395 391Q417 391 431 380T446 351T432 322T395 310Z" />
<glyph unicode="&#xa4;" glyph-name="currency" horiz-adv-x="701" d="M487 189Q432 147 350 147T213 189Q205 180 194 168T178 151T166 139T155 129T146 124Q136 119 121 119T91 132T77 162T89 193T156 256Q128 309 128 371T157 488Q102 536 90 550T78 582T92
612T118 625T136 624T146 621T155 616T166 606T178 593T194 576T214 555Q268 596 350 596T486 555Q539 611 550 618T577 625T608 612T622 582T610 551T543 488Q572 433 572 370T544 256Q599 208 611 194T623 162T610 132T585 119T570 119T562 121T554 124T546 130T538
137T528 146T517 157T503 172T487 189ZM486 432T446 475T350 518T255 475T214 372T254 269T350 226T446 269T486 372Z" />
<glyph unicode="&#xa5;" glyph-name="yen" horiz-adv-x="646" d="M373 151L375 48Q375 22 361 6T325 -10T288 6T273 41T277 151Q197 149 139 149Q117 149 104 160T90 189T103 218T139 229L279 226V294L139 292Q117 292 104 303T90 332T103 361T137 372T189 372T234
371Q175 471 157 501T125 553T103 589T88 614T78 633T72 647Q68 657 68 671T82 699T119 713Q131 713 137 709T148 701T157 691T165 680T174 665T183 649T194 630T249 529T330 394Q351 426 393 504T444 597T460 624T470 644T480 661T490 676T499 689T508 699T517
706Q526 713 542 713T572 700T585 672T572 632Q560 608 417 371L517 372Q539 372 552 361T566 332T553 303T517 292L371 294V226L517 229Q539 229 552 218T566 189T553 160T517 149Q457 149 373 151Z" />
<glyph unicode="&#xa6;" glyph-name="brokenbar" horiz-adv-x="279" d="M178 603L183 499Q183 475 171 461T138 446Q96 446 96 499L100 603L97 707Q97 760 138 760Q159 760 170 746T182 707L178 603ZM178 147L183 43Q183 19 171 5T138 -10Q96 -10 96 43L100 147L97
251Q97 304 138 304Q159 304 170 290T182 251L178 147Z" />
<glyph unicode="&#xa7;" glyph-name="section" horiz-adv-x="586" d="M456 444T488 408T520 329T494 251T426 191Q485 149 485 83T426 -34T272 -85Q202 -85 136 -48T69 26Q69 43 80 53T108 63T146 48Q208 2 266 2T357 25T390 81T358 139T281 187T190 233T112 293T80
373T114 451T204 499Q115 561 115 620T170 722T301 765T429 738T481 675Q481 660 471 650T445 640T392 659T312 678T240 662T210 619T242 566T319 517T410 469ZM381 253T405 276T429 329T376 394T277 429T201 414T171 375T206 324T340 243Q381 253 405 276Z" />
<glyph unicode="&#xa8;" glyph-name="dieresis" horiz-adv-x="476" d="M364 707T377 690T391 647T374 599T333 578T294 596T280 640T296 686T338 707ZM169 707T182 690T196 647T179 599T138 578T99 596T85 640T101 686T143 707Z" />
<glyph unicode="&#xa9;" glyph-name="copyright" horiz-adv-x="787" d="M398 644Q443 644 480 626T517 583Q517 548 481 548Q467 548 450 560Q424 575 403 575Q351 575 323 537T294 448T325 359T403 322Q433 322 457 334T494 347Q525 347 525 316Q525 299 488
276T398 253Q321 253 268 311T215 449T266 587T398 644ZM707 580T707 449T615 226T393 133T171 225T79 449T171 672T393 765T615 673ZM490 204T559 275T629 449T560 623T393 694T226 623T157 450T226 276T392 204Z" />
<glyph unicode="&#xaa;" glyph-name="ordfeminine" horiz-adv-x="450" d="M344 593Q344 519 363 506Q366 504 372 503Q387 501 387 490Q387 466 372 452T336 437Q294 437 282 492Q246 437 186 437T94 485T62 596T104 710T209 761Q247 761 276 739Q288 761 314
761Q356 761 356 698Q356 681 344 593ZM274 600L272 666Q243 692 212 692T160 664T138 595T151 530T188 504T237 533T274 600Z" />
<glyph unicode="&#xab;" glyph-name="guillemotleft" horiz-adv-x="605" d="M150 384T150 376T207 327Q215 321 233 310T260 291Q288 271 288 253T276 224T247 212T216 220T184 245T129 292T75 341T59 376T75 411T128 459T180 503T203 524Q223 540 243 540T276
529T288 502T278 475T239 446T207 425Q150 384 150 376ZM390 384T390 376T447 327Q455 321 473 310T500 291Q528 271 528 253T516 224T487 212T456 220T424 245T369 292T315 341T299 376T315 411T368 459T420 503T443 524Q463 540 483 540T516 529T528 502T518
475T479 446T447 425Q390 384 390 376Z" />
<glyph unicode="&#xac;" glyph-name="logicalnot" horiz-adv-x="704" d="M609 305L611 237Q611 215 599 202T568 189T536 202T524 237Q524 237 527 334Q439 336 349 336L143 333Q121 333 107 345T93 375T107 405T143 417L349 414L560 417Q578 417 594 406T611
365L609 305Z" />
<glyph unicode="&#xad;" glyph-name="uni00AD" horiz-adv-x="438" d="M317 219L218 222L119 219Q97 219 84 231T70 261T83 291T119 303L218 300Q218 300 317 303Q339 303 352 291T366 261T353 231T317 219Z" />
<glyph unicode="&#xae;" glyph-name="registered" horiz-adv-x="786" d="M261 461L256 594Q256 647 385 647Q460 647 498 610T537 526Q537 454 461 416Q468 404 477 388T492 364T504 346Q515 330 533 330T552 316Q552 295 537 280T505 264T476 269T454 289Q437
311 417 349T391 398Q367 395 353 395T334 396L336 308Q336 289 325 276T296 263Q257 263 257 308L261 461ZM434 472T447 488T461 525T444 563T392 579T334 572Q334 558 333 527T331 477Q347 481 366 481T419 470Q434 472 447 488ZM707 580T707 449T615 226T393
133T171 225T79 449T171 672T393 765T615 673ZM490 204T559 275T629 449T560 623T393 694T226 623T157 450T226 276T392 204Z" />
<glyph unicode="&#xaf;" glyph-name="overscore" horiz-adv-x="496" d="M248 630L114 627Q93 627 79 639T65 669T78 699T114 711L248 708L382 711Q403 711 417 699T431 669T418 639T382 627Q382 627 248 630Z" />
<glyph unicode="&#xb0;" glyph-name="degree" horiz-adv-x="402" d="M262 763T300 720T338 614T300 508T201 464T102 507T64 613T102 719T201 763ZM260 578T260 613T245 671T201 694T157 671T141 614T157 556T201 533T244 555Z" />
<glyph unicode="&#xb1;" glyph-name="plusminus" horiz-adv-x="645" d="M132 502L284 499Q284 557 282 586T280 617Q280 640 291 653T322 666T353 653T365 616Q365 614 364 600Q361 556 361 498L513 501Q535 501 549 489T563 459T549 429T513 417L361 420L365
289Q365 266 354 252T323 238T292 252T280 290L284 421L132 418Q110 418 96 430T82 460T96 490T132 502ZM321 91L131 88Q109 88 96 100T82 130T95 160T131 172L321 169L511 172Q533 172 546 160T560 130T547 100T511 88L321 91Z" />
<glyph unicode="&#xb2;" glyph-name="twosuperior" horiz-adv-x="435" d="M213 336L113 332Q94 332 79 343T64 373T79 412T129 469T176 521T202 552T223 578T243 604Q265 634 265 651T251 681T215 693T164 671T115 649T87 659T77 689T116 737T216 765T311 733T347
660Q347 623 318 580Q298 550 284 533T258 498T179 405Q246 405 281 407T322 409Q372 409 372 371T322 332L213 336Z" />
<glyph unicode="&#xb3;" glyph-name="threesuperior" horiz-adv-x="431" d="M207 750L288 753Q319 753 334 740T350 711T341 683T305 649T257 598Q311 584 340 548T370 459T326 363T207 319Q152 319 108 350T63 407Q63 442 96 442Q114 442 144 418T211 393T268
412T290 464T267 517T209 543Q172 511 141 511Q96 511 96 552Q96 567 113 582T163 604Q224 660 242 679Q230 680 197 680L119 677Q98 677 85 686T71 713T84 742T119 753L207 750Z" />
<glyph unicode="&#xb4;" glyph-name="acute" horiz-adv-x="330" d="M245 696Q245 652 198 608T118 563Q102 563 94 571T85 591T109 632T142 682T156 711T174 730T204 740T233 727T245 696Z" />
<glyph unicode="&#xb5;" glyph-name="mu" horiz-adv-x="871" d="M595 360L591 688Q591 757 642 757Q704 757 704 655T677 360Q677 250 691 174T727 88Q735 84 746 83T763 78T768 67Q768 30 746 8T690 -15Q646 -15 625 35T604 164Q584 127 571 107T529 53Q471 -15
380 -15Q345 -15 298 3T223 51Q225 -9 225 -12Q225 -83 174 -83T123 -12Q123 -2 124 52Q128 178 128 317T127 527T124 640T122 691Q122 762 173 762T224 691Q224 685 222 638Q218 499 218 307Q218 211 271 142T388 72T510 159T595 360Z" />
<glyph unicode="&#xb6;" glyph-name="paragraph" horiz-adv-x="662" d="M405 750L489 753Q515 753 530 738T545 704T544 622Q540 473 540 324T543 76T546 -27Q544 -85 498 -85T451 -27Q451 -19 452 25Q457 157 457 266L452 676H357L352 266Q352 175 355 76T358
-27Q358 -84 311 -84T263 -27Q263 -20 264 26Q269 164 269 319Q175 324 117 382T59 526Q59 632 125 691T307 753L405 750Z" />
<glyph unicode="&#xb7;" glyph-name="middot" horiz-adv-x="269" d="M163 444T176 427T190 384T173 337T132 315T93 333T79 377T95 423T137 444Z" />
<glyph unicode="&#xb8;" glyph-name="cedilla" horiz-adv-x="341" d="M281 -133Q281 -175 244 -202T154 -230T71 -206T39 -155Q39 -146 46 -138T65 -130T102 -142T147 -154T178 -147T190 -131T176 -111T144 -90T112 -63T97 -24V19H178V-9Q178 -24 194 -39T229
-64T265 -93T281 -133Z" />
<glyph unicode="&#xb9;" glyph-name="onesuperior" horiz-adv-x="350" d="M264 544L267 377Q267 356 256 344T226 331T196 343T185 377L188 544V636Q177 625 163 612T141 591T123 574T108 561T96 552Q85 545 72 545T49 554T39 574T41 592T50 607T64 623T88 648T137
700T184 747T223 760Q267 760 267 703L264 544Z" />
<glyph unicode="&#xba;" glyph-name="ordmasculine" horiz-adv-x="425" d="M278 765T320 718T362 600T321 483T212 437T104 482T63 599T104 717T212 765ZM247 506T266 531T285 599T266 669T213 696T160 669T140 600T159 532T212 506Z" />
<glyph unicode="&#xbb;" glyph-name="guillemotright" horiz-adv-x="604" d="M546 393T546 376T530 341T477 293T425 249T402 228Q382 212 362 212T329 223T317 250T327 277T366 306T398 327Q455 368 455 376T398 425Q390 431 372 442T344 461Q317 481 317 499T329
528T358 540T389 532T421 507T476 460T530 411ZM306 393T306 376T290 341T237 293T185 249T162 228Q142 212 122 212T89 223T77 250T87 277T126 306T158 327Q215 368 215 376T158 425Q150 431 132 442T104 461Q77 481 77 499T89 528T118 540T149 532T181 507T236
460T290 411Z" />
<glyph unicode="&#xbc;" glyph-name="onequarter" horiz-adv-x="927" d="M276 544L279 377Q279 356 268 344T238 331T208 343T196 377Q196 377 199 544V636Q182 619 164 598T136 567Q113 542 96 542T68 552T56 576T61 598T74 614Q114 652 141 683T174 722T190
738T204 752Q218 760 234 760Q279 760 279 703L276 544ZM804 125L807 40Q807 -10 768 -10T728 40L731 128L566 126Q544 126 534 137T524 163T540 202T597 278T644 338T663 362T686 392Q718 434 752 434Q775 434 791 416T807 371Q807 370 806 312T804 193Q808 194
818 194Q866 194 866 160Q866 124 814 124L804 125ZM622 192H730Q731 226 731 332Q689 282 622 192ZM580 620T545 531T486 375T374 47Q363 15 351 3T321 -10T291 1T278 30T292 89T341 216T402 375T467 566T515 710Q531 760 569 760Q583 760 596 749T609 720T595
661Z" />
<glyph unicode="&#xbd;" glyph-name="onehalf" horiz-adv-x="930" d="M676 70L813 75Q864 75 864 36T813 -3L710 1Q710 1 619 -3Q600 -3 586 8T571 39T580 73T624 127T670 183T697 217T718 243T736 268Q756 299 756 316T743 346T705 358T658 336T619 314T593 324T583
354T620 402T714 430T805 398T839 329T812 248T738 148T676 70ZM276 544L279 377Q279 356 268 344T238 331T208 343T196 377L199 544V636Q182 619 164 598T136 567Q113 542 96 542T68 552T56 576T61 598T74 614Q114 652 141 683T174 722T190 738T204 752Q218 760
234 760Q279 760 279 703L276 544ZM580 620T545 531T486 375T374 47Q363 15 351 3T321 -10T291 1T278 30T292 89T341 216T402 375T467 566T515 710Q531 760 569 760Q583 760 596 749T609 720T595 661Z" />
<glyph unicode="&#xbe;" glyph-name="threequarters" horiz-adv-x="978" d="M208 750L283 752Q346 752 346 709Q346 683 289 630Q264 606 257 598Q309 584 337 548T366 459T320 363T198 319Q149 319 109 350T69 407Q69 442 102 442Q116 442 129 430T160 406T209
393T262 412T285 464T264 517T210 543Q189 511 151 511Q132 511 120 521T107 549T122 582T169 604Q222 656 243 679L124 678Q77 678 77 713Q77 731 89 741T124 752L208 750ZM857 125L860 40Q860 -10 821 -10T781 40L784 128L619 126Q597 126 587 137T577 163T593
202T650 278T697 338T716 362T739 392Q771 434 805 434Q828 434 844 416T860 371Q860 370 859 312T857 193Q861 194 871 194Q919 194 919 160Q919 124 867 124L857 125ZM675 192H783Q784 226 784 332Q742 282 675 192ZM633 620T598 531T539 375T427 47Q416 15 404
3T374 -10T344 1T331 30T345 89T394 216T455 375T520 566T568 710Q584 760 622 760Q636 760 649 749T662 720T648 661Z" />
<glyph unicode="&#xbf;" glyph-name="questiondown" horiz-adv-x="513" d="M62 101Q62 139 78 175T110 229T158 281Q188 306 203 320T233 359T248 407Q248 473 293 473Q313 473 326 456T339 409T331 356T304 308Q278 278 230 235Q206 208 194 193T170 152T158
101Q158 58 190 31T264 3Q325 3 369 47Q393 75 412 75T443 63T454 33Q454 -5 397 -45T269 -85Q177 -85 120 -32T62 101ZM267 569T254 586T241 628T258 675T299 696T336 678T350 634T334 589T292 569Z" />
<glyph unicode="&#xc0;" glyph-name="Agrave" horiz-adv-x="692" d="M476 241L347 244Q251 244 207 242Q196 209 176 139T142 29T96 -10Q77 -10 66 2T54 28T55 52T62 79T74 113Q103 199 116 239Q87 239 71 251T54 285Q54 332 128 332H146Q242 600 256 638T273
683T279 700T287 717T296 731T305 743T316 752Q329 760 343 760T367 757T384 746T397 729T410 701T424 666Q472 519 544 332L580 333Q606 333 622 319T639 284Q639 240 573 237Q583 205 600 156Q639 50 639 34T628 4T596 -10Q560 -10 544 29Q527 78 476 241ZM232
328Q296 326 355 326T451 328Q346 630 344 630Q338 630 258 404L232 328ZM236 946Q236 963 247 976T276 990T306 981T324 962T339 932T372 883T396 841T388 821T363 813Q331 813 284 857T236 946Z" />
<glyph unicode="&#xc1;" glyph-name="Aacute" horiz-adv-x="692" d="M476 241L347 244Q251 244 207 242Q196 209 176 139T142 29T96 -10Q77 -10 66 2T54 28T55 52T62 79T74 113Q103 199 116 239Q87 239 71 251T54 285Q54 332 128 332H146Q242 600 256 638T273
683T279 700T287 717T296 731T305 743T316 752Q329 760 343 760T367 757T384 746T397 729T410 701T424 666Q472 519 544 332L580 333Q606 333 622 319T639 284Q639 240 573 237Q583 205 600 156Q639 50 639 34T628 4T596 -10Q560 -10 544 29Q527 78 476 241ZM232
328Q296 326 355 326T451 328Q346 630 344 630Q338 630 258 404L232 328ZM466 946Q466 902 419 858T339 813Q323 813 315 821T306 841T330 882T363 932T377 961T395 980T425 990T454 977T466 946Z" />
<glyph unicode="&#xc2;" glyph-name="Acircumflex" horiz-adv-x="692" d="M476 241L347 244Q251 244 207 242Q196 209 176 139T142 29T96 -10Q77 -10 66 2T54 28T55 52T62 79T74 113Q103 199 116 239Q87 239 71 251T54 285Q54 332 128 332H146Q242 600 256 638T273
683T279 700T287 717T296 731T305 743T316 752Q329 760 343 760T367 757T384 746T397 729T410 701T424 666Q472 519 544 332L580 333Q606 333 622 319T639 284Q639 240 573 237Q583 205 600 156Q639 50 639 34T628 4T596 -10Q560 -10 544 29Q527 78 476 241ZM232
328Q296 326 355 326T451 328Q346 630 344 630Q338 630 258 404L232 328ZM429 842Q360 923 346 923Q330 923 266 846Q261 840 258 838L251 830Q238 817 221 817T192 827T181 856T207 896T259 948T305 994T345 1010T386 994T432 948T484 896T511 856T500 828T476
817T454 822Q441 829 429 842Z" />
<glyph unicode="&#xc3;" glyph-name="Atilde" horiz-adv-x="692" d="M476 241L347 244Q251 244 207 242Q196 209 176 139T142 29T96 -10Q77 -10 66 2T54 28T55 52T62 79T74 113Q103 199 116 239Q87 239 71 251T54 285Q54 332 128 332H146Q242 600 256 638T273
683T279 700T287 717T296 731T305 743T316 752Q329 760 343 760T367 757T384 746T397 729T410 701T424 666Q472 519 544 332L580 333Q606 333 622 319T639 284Q639 240 573 237Q583 205 600 156Q639 50 639 34T628 4T596 -10Q560 -10 544 29Q527 78 476 241ZM232
328Q296 326 355 326T451 328Q346 630 344 630Q338 630 258 404L232 328ZM544 915Q544 879 513 852T443 825T350 856Q306 878 284 878T238 849T193 819T160 831T147 862Q147 898 184 926T270 955T372 928T442 900T480 925T514 950T536 940T544 915Z" />
<glyph unicode="&#xc4;" glyph-name="Adieresis" horiz-adv-x="692" d="M476 241L347 244Q251 244 207 242Q196 209 176 139T142 29T96 -10Q77 -10 66 2T54 28T55 52T62 79T74 113Q103 199 116 239Q87 239 71 251T54 285Q54 332 128 332H146Q242 600 256 638T273
683T279 700T287 717T296 731T305 743T316 752Q329 760 343 760T367 757T384 746T397 729T410 701T424 666Q472 519 544 332L580 333Q606 333 622 319T639 284Q639 240 573 237Q583 205 600 156Q639 50 639 34T628 4T596 -10Q560 -10 544 29Q527 78 476 241ZM232
328Q296 326 355 326T451 328Q346 630 344 630Q338 630 258 404L232 328ZM472 957T485 940T499 897T482 849T441 828T402 846T388 890T404 936T446 957ZM277 957T290 940T304 897T287 849T246 828T207 846T193 890T209 936T251 957Z" />
<glyph unicode="&#xc5;" glyph-name="Aring" horiz-adv-x="692" d="M476 241L347 244Q251 244 207 242Q196 209 176 139T142 29T96 -10Q77 -10 66 2T54 28T55 52T62 79T74 113Q103 199 116 239Q87 239 71 251T54 285Q54 332 128 332H146Q242 600 256 638T273 683T279
700T287 717T296 731T305 743T316 752Q329 760 343 760T367 757T384 746T397 729T410 701T424 666Q472 519 544 332L580 333Q606 333 622 319T639 284Q639 240 573 237Q583 205 600 156Q639 50 639 34T628 4T596 -10Q560 -10 544 29Q527 78 476 241ZM232 328Q296
326 355 326T451 328Q346 630 344 630Q338 630 258 404L232 328ZM390 1016T419 986T449 914T421 843T346 815T272 843T243 914T272 986T346 1016ZM384 899T384 914T372 942T346 955T320 943T308 915T319 887T345 875T372 887Z" />
<glyph unicode="&#xc6;" glyph-name="AE" horiz-adv-x="891" d="M338 623Q332 623 257 402L232 328Q280 325 310 325T360 325T392 326Q353 563 338 623ZM676 0L503 -5Q445 -5 436 44Q420 131 403 242Q377 243 303 243T207 242Q196 209 176 139T142 29T96 -10Q77
-10 66 2T54 28T55 52T62 79T74 113Q103 199 116 239Q87 239 71 251T54 285Q54 332 128 332H146Q203 492 231 569T265 660T273 684T284 708T300 732Q319 755 341 755L548 750L677 756Q704 756 720 744T737 709T721 675T677 662L548 668Q476 668 419 663Q420 662
459 446Q493 444 533 444L682 449Q709 449 725 437T741 403Q741 359 682 359L533 363Q495 363 475 362Q518 124 527 89Q606 82 676 82L805 88Q832 88 848 76T865 41T849 7T805 -6L676 0Z" />
<glyph unicode="&#xc7;" glyph-name="Ccedilla" horiz-adv-x="708" d="M515 -133Q515 -175 478 -202T388 -230T305 -206T273 -155Q273 -146 280 -138T299 -130T336 -142T381 -154T412 -147T424 -131T410 -112T378 -91T346 -58T331 -6Q215 22 144 128T72 376Q72
539 167 652T407 765Q495 765 564 732T634 658Q634 638 622 626T591 614T535 637Q477 678 407 678Q303 678 236 589T168 377T235 163T401 72T580 121Q613 139 624 139T645 130T655 106Q655 71 583 29T412 -15Q415 -32 441 -49T491 -86T515 -133Z" />
<glyph unicode="&#xc8;" glyph-name="Egrave" horiz-adv-x="639" d="M514 662L355 668Q278 668 218 663V441Q237 440 284 440L463 445Q490 445 506 433T522 399Q522 355 463 355L284 359Q241 359 218 358V279Q218 133 222 87Q282 82 358 82Q358 82 517 88Q544
88 560 76T577 41T561 7T517 -6L358 0L177 -5Q123 -5 123 41Q123 76 125 155T128 355Q61 355 61 399Q61 422 80 433T128 445Q126 632 121 670Q109 689 109 710Q109 755 171 755L355 750L514 756Q541 756 557 744T574 709T558 675T514 662ZM229 946Q229 963 240
976T269 990T299 981T317 962T332 932T365 883T389 841T381 821T356 813Q324 813 277 857T229 946Z" />
<glyph unicode="&#xc9;" glyph-name="Eacute" horiz-adv-x="639" d="M514 662L355 668Q278 668 218 663V441Q237 440 284 440L463 445Q490 445 506 433T522 399Q522 355 463 355L284 359Q241 359 218 358V279Q218 133 222 87Q282 82 358 82Q358 82 517 88Q544
88 560 76T577 41T561 7T517 -6L358 0L177 -5Q123 -5 123 41Q123 76 125 155T128 355Q61 355 61 399Q61 422 80 433T128 445Q126 632 121 670Q109 689 109 710Q109 755 171 755L355 750L514 756Q541 756 557 744T574 709T558 675T514 662ZM439 946Q439 902 392
858T312 813Q296 813 288 821T279 841T303 882T336 932T350 961T368 980T398 990T427 977T439 946Z" />
<glyph unicode="&#xca;" glyph-name="Ecircumflex" horiz-adv-x="639" d="M463 445L284 440Q237 440 218 441V663Q278 668 355 668L514 662Q541 662 557 674T574 709T558 743T514 756L355 750L171 755Q109 755 109 710Q109 689 121 670Q126 632 128 445Q99 445
80 434T61 399Q61 355 128 355Q128 235 126 156T123 41Q123 -5 177 -5L358 0L517 -6Q544 -6 560 6T577 41T561 75T517 88L358 82Q282 82 222 87Q218 133 218 279V358Q241 359 284 359L463 355Q522 355 522 399Q522 420 506 432T463 445ZM415 842Q346 923 332 923Q316
923 252 846Q247 840 244 838L237 830Q224 817 207 817T178 827T167 856T193 896T245 948T291 994T331 1010T372 994T418 948T470 896T497 856T486 828T462 817T440 822Q427 829 415 842Z" />
<glyph unicode="&#xcb;" glyph-name="Edieresis" horiz-adv-x="639" d="M514 662L355 668Q278 668 218 663V441Q237 440 284 440L463 445Q490 445 506 433T522 399Q522 355 463 355L284 359Q241 359 218 358V279Q218 133 222 87Q282 82 358 82Q358 82 517 88Q544
88 560 76T577 41T561 7T517 -6L358 0L177 -5Q123 -5 123 41Q123 76 125 155T128 355Q61 355 61 399Q61 422 80 433T128 445Q126 632 121 670Q109 689 109 710Q109 755 171 755L355 750L514 756Q541 756 557 744T574 709T558 675T514 662ZM462 967T475 950T489
907T472 859T431 838T392 856T378 900T394 946T436 967ZM267 967T280 950T294 907T277 859T236 838T197 856T183 900T199 946T241 967Z" />
<glyph unicode="&#xcc;" glyph-name="Igrave" horiz-adv-x="486" d="M374 661L292 665Q288 568 288 387T293 83L374 87Q401 87 417 75T434 41T418 7T374 -6L243 0L112 -6Q85 -6 69 6T52 40T68 74T112 87L193 82Q198 204 198 386T194 665L112 661Q85 661 69 674T52
709T68 743T112 756L243 750L374 756Q401 756 417 744T434 709T418 674T374 661ZM133 946Q133 963 144 976T173 990T203 981T221 962T236 932T269 883T293 841T285 821T260 813Q228 813 181 857T133 946Z" />
<glyph unicode="&#xcd;" glyph-name="Iacute" horiz-adv-x="502" d="M390 661L300 665Q296 568 296 387T301 83L390 88Q417 88 433 76T450 41T434 7T390 -6Q390 -6 251 0Q251 0 112 -7Q85 -7 69 5T52 40T68 74T112 87L201 82Q206 204 206 386T202 665L112 661Q85
661 69 673T52 708T68 742T112 755L251 750L390 756Q417 756 433 744T450 709T434 674T390 661ZM360 946Q360 902 313 858T233 813Q217 813 209 821T200 841T224 882T257 932T271 961T289 980T319 990T348 977T360 946Z" />
<glyph unicode="&#xce;" glyph-name="Icircumflex" horiz-adv-x="486" d="M374 661L292 665Q288 568 288 387T293 83L374 87Q401 87 417 75T434 41T418 7T374 -6L243 0L112 -6Q85 -6 69 6T52 40T68 74T112 87L193 82Q198 204 198 386T194 665L112 661Q85 661 69
674T52 709T68 743T112 756L243 750L374 756Q401 756 417 744T434 709T418 674T374 661ZM329 842Q260 923 246 923Q230 923 166 846Q161 840 158 838L151 830Q138 817 121 817T92 827T81 856T107 896T159 948T205 994T245 1010T286 994T332 948T384 896T411 856T400
828T376 817T354 822Q341 829 329 842Z" />
<glyph unicode="&#xcf;" glyph-name="Idieresis" horiz-adv-x="486" d="M374 661L292 665Q288 568 288 387T293 83L374 87Q401 87 417 75T434 41T418 7T374 -6L243 0L112 -6Q85 -6 69 6T52 40T68 74T112 87L193 82Q198 204 198 386T194 665L112 661Q85 661 69
674T52 709T68 743T112 756L243 750L374 756Q401 756 417 744T434 709T418 674T374 661ZM369 967T382 950T396 907T379 859T338 838T299 856T285 900T301 946T343 967ZM174 967T187 950T201 907T184 859T143 838T104 856T90 900T106 946T148 967Z" />
<glyph unicode="&#xd0;" glyph-name="Eth" horiz-adv-x="770" d="M138 411L133 636Q89 640 89 677T168 739T331 764T489 731T606 642Q697 528 697 372Q697 220 610 108Q567 52 496 19T327 -15T157 10T85 74Q85 111 135 111L138 334Q118 333 83 333T34 344T20 373T33
402T72 413T138 411ZM232 661Q229 606 229 411Q273 413 301 413T342 402T356 373T343 344T301 333T229 335Q229 170 234 85Q270 72 335 72T452 98T536 168Q601 258 601 379T530 589T323 678Q266 678 232 661Z" />
<glyph unicode="&#xd1;" glyph-name="Ntilde" horiz-adv-x="743" d="M626 372L629 62Q629 -10 576 -10Q543 -10 526 21L209 567Q209 334 211 195T214 40T199 7T164 -10T129 6T114 48L118 372Q118 475 116 581T113 689Q113 760 164 760Q201 760 219 729Q510 229
536 189Q536 472 533 579T530 689Q530 760 581 760T632 689Q632 681 630 636Q626 503 626 372ZM577 925Q577 889 546 862T476 835T383 866Q339 888 317 888T271 859T226 829T193 841T180 872Q180 908 217 936T303 965T405 938T475 910T513 935T547 960T569 950T577
925Z" />
<glyph unicode="&#xd2;" glyph-name="Ograve" horiz-adv-x="824" d="M517 72T586 164T656 377T587 588T413 679T238 589T168 378T238 165T412 72ZM752 539T752 376T655 99T412 -15T169 99T72 376T170 652T413 765T655 652ZM302 946Q302 963 313 976T342 990T372
981T390 962T405 932T438 883T462 841T454 821T429 813Q397 813 350 857T302 946Z" />
<glyph unicode="&#xd3;" glyph-name="Oacute" horiz-adv-x="824" d="M517 72T586 164T656 377T587 588T413 679T238 589T168 378T238 165T412 72ZM752 539T752 376T655 99T412 -15T169 99T72 376T170 652T413 765T655 652ZM522 946Q522 902 475 858T395 813Q379
813 371 821T362 841T386 882T419 932T433 961T451 980T481 990T510 977T522 946Z" />
<glyph unicode="&#xd4;" glyph-name="Ocircumflex" horiz-adv-x="824" d="M517 72T586 164T656 377T587 588T413 679T238 589T168 378T238 165T412 72ZM752 539T752 376T655 99T412 -15T169 99T72 376T170 652T413 765T655 652ZM498 842Q429 923 414 923Q399 923
335 846Q330 840 328 838L320 830Q307 817 290 817T261 827T250 856T276 896T328 948T374 994T414 1010T455 994T501 948T553 896T580 856T569 828T545 817T524 822Q510 829 498 842Z" />
<glyph unicode="&#xd5;" glyph-name="Otilde" horiz-adv-x="824" d="M517 72T586 164T656 377T587 588T413 679T238 589T168 378T238 165T412 72ZM752 539T752 376T655 99T412 -15T169 99T72 376T170 652T413 765T655 652ZM610 927Q610 891 579 864T509 837T416
868Q372 890 350 890T304 861T259 831T226 843T213 874Q213 910 250 938T336 967T438 940T508 912T546 937T580 962T602 952T610 927Z" />
<glyph unicode="&#xd6;" glyph-name="Odieresis" horiz-adv-x="824" d="M517 72T586 164T656 377T587 588T413 679T238 589T168 378T238 165T412 72ZM752 539T752 376T655 99T412 -15T169 99T72 376T170 652T413 765T655 652ZM538 967T551 950T565 907T548 860T507
838T468 856T454 900T470 946T512 967ZM343 967T356 950T370 907T353 860T312 838T273 856T259 900T275 946T317 967Z" />
<glyph unicode="&#xd7;" glyph-name="multiply" horiz-adv-x="573" d="M286 322Q283 319 244 283T161 203Q145 187 127 187T97 199T85 227T105 264T170 321T233 376Q215 393 172 428T108 483T87 522T99 551T129 563T167 545T227 488T286 432Q301 445 341 485T403
545T442 564T471 553T484 523T463 485T400 430T339 377Q356 361 400 324T472 261Q488 245 488 229T476 200T446 188T412 204Q359 257 286 322Z" />
<glyph unicode="&#xd8;" glyph-name="Oslash" horiz-adv-x="824" d="M656 376Q656 464 618 539T516 651Q431 329 376 75Q392 72 412 72Q517 72 586 164T656 376ZM429 678L412 679Q307 679 238 589T168 376Q168 297 201 225T291 112Q327 224 429 678ZM752 376Q752
213 655 99T411 -15Q393 -15 357 -11Q339 -84 298 -84Q279 -84 268 -70T256 -34T267 20Q178 66 125 162T72 376Q72 539 170 652T413 765Q425 765 447 763Q457 803 470 819T504 835T536 821T548 787T538 739Q635 697 693 598T752 376Z" />
<glyph unicode="&#xd9;" glyph-name="Ugrave" horiz-adv-x="743" d="M638 138T569 62T372 -15T174 62T103 249Q102 301 102 378T101 525T98 638T96 689Q96 760 147 760T198 689Q198 681 196 626Q192 459 192 366T199 230T226 150Q263 72 371 72Q524 72 546 249Q551
284 551 343T550 486T547 625T545 689Q545 760 596 760T647 689Q647 681 646 638Q641 511 641 406T640 249Q638 138 569 62ZM265 946Q265 963 276 976T305 990T335 981T353 962T368 932T401 883T425 841T417 821T392 813Q360 813 313 857T265 946Z" />
<glyph unicode="&#xda;" glyph-name="Uacute" horiz-adv-x="743" d="M479 946Q479 902 432 858T352 813Q336 813 328 821T319 841T343 882T376 932T390 961T408 980T438 990T467 977T479 946ZM638 138T569 62T372 -15T174 62T103 249Q102 301 102 378T101 525T98
638T96 689Q96 760 147 760T198 689Q198 681 196 626Q192 459 192 366T199 230T226 150Q263 72 371 72Q524 72 546 249Q551 284 551 343T550 486T547 625T545 689Q545 760 596 760T647 689Q647 681 646 638Q641 511 641 406T640 249Q638 138 569 62Z" />
<glyph unicode="&#xdb;" glyph-name="Ucircumflex" horiz-adv-x="743" d="M638 138T569 62T372 -15T174 62T103 249Q102 301 102 378T101 525T98 638T96 689Q96 760 147 760T198 689Q198 681 196 626Q192 459 192 366T199 230T226 150Q263 72 371 72Q524 72 546
249Q551 284 551 343T550 486T547 625T545 689Q545 760 596 760T647 689Q647 681 646 638Q641 511 641 406T640 249Q638 138 569 62ZM457 842Q388 923 374 923Q358 923 294 846Q289 840 286 838L279 830Q266 817 249 817T220 827T209 856T235 896T287 948T333 994T373
1010T414 994T460 948T512 896T539 856T528 828T504 817T482 822Q469 829 457 842Z" />
<glyph unicode="&#xdc;" glyph-name="Udieresis" horiz-adv-x="743" d="M638 138T569 62T372 -15T174 62T103 249Q102 301 102 378T101 525T98 638T96 689Q96 760 147 760T198 689Q198 681 196 626Q192 459 192 366T199 230T226 150Q263 72 371 72Q524 72 546
249Q551 284 551 343T550 486T547 625T545 689Q545 760 596 760T647 689Q647 681 646 638Q641 511 641 406T640 249Q638 138 569 62ZM496 967T509 950T523 907T506 859T465 838T426 856T412 900T428 946T470 967ZM301 967T314 950T328 907T311 859T270 838T231
856T217 900T233 946T275 967Z" />
<glyph unicode="&#xdd;" glyph-name="Yacute" horiz-adv-x="607" d="M347 303Q347 223 350 142L352 61Q352 -10 301 -10T250 61L252 144Q255 227 255 304Q56 646 43 673T30 717T42 747T76 760T115 739T189 603T306 401Q330 437 390 549T460 677T474 701T485 721T497
738T508 750Q518 760 536 760T565 748T577 719T563 675T500 564T437 458T398 390T347 303ZM413 946Q413 902 366 858T286 813Q270 813 262 821T253 841T277 882T310 932T324 961T342 980T372 990T401 977T413 946Z" />
<glyph unicode="&#xde;" glyph-name="Thorn" horiz-adv-x="617" d="M209 524Q208 487 208 430T210 298Q262 284 329 284T437 319T479 411T437 503T328 538T209 524ZM119 375L113 689Q113 760 164 760T215 689Q215 674 213 651T210 612Q258 625 328 625Q438 625
506 564T574 411T507 258T329 197Q261 197 210 209Q215 96 215 61Q215 -10 164 -10T113 61L119 375Z" />
<glyph unicode="&#xdf;" glyph-name="germandbls" horiz-adv-x="614" d="M122 426L82 425Q62 425 49 435T35 464T48 492T76 502T121 500V575Q121 670 173 715T306 760T435 715T482 604Q482 560 452 517T393 441T363 386T395 335T466 285T537 222T570 135Q570 70
525 28T403 -15Q349 -15 302 10T255 64Q255 105 297 105Q310 105 344 85T405 64T453 83T475 132T454 186T402 227T342 264T290 315T268 382T286 448T327 501T367 551T386 607T363 657T302 678T239 652T214 566L215 48Q215 22 201 6T165 -10T129 5T116 45L122 426Z"
/>
<glyph unicode="&#xe0;" glyph-name="agrave" horiz-adv-x="810" d="M648 367Q648 255 662 178T698 90Q706 86 717 85T733 80T738 69Q738 33 718 10T665 -13Q621 -13 599 37T577 165Q524 81 466 33T335 -15T212 19T132 110Q72 225 72 363Q72 527 157 646T377 765Q429
765 478 746T561 696Q561 765 612 765Q675 765 675 664Q675 589 648 367ZM569 355L563 600Q478 678 377 678Q294 678 231 589T168 371T211 158T329 72T479 167T569 355ZM266 946Q266 963 277 976T306 990T336 981T354 962T369 932T402 883T426 841T418 821T393
813Q361 813 314 857T266 946Z" />
<glyph unicode="&#xe1;" glyph-name="aacute" horiz-adv-x="810" d="M648 367Q648 255 662 178T698 90Q706 86 717 85T733 80T738 69Q738 33 718 10T665 -13Q621 -13 599 37T577 165Q524 81 466 33T335 -15T212 19T132 110Q72 225 72 363Q72 527 157 646T377 765Q429
765 478 746T561 696Q561 765 612 765Q675 765 675 664Q675 589 648 367ZM569 355L563 600Q478 678 377 678Q294 678 231 589T168 371T211 158T329 72T479 167T569 355ZM507 946Q507 902 460 858T380 813Q364 813 356 821T347 841T371 882T404 932T418 961T436
980T466 990T495 977T507 946Z" />
<glyph unicode="&#xe2;" glyph-name="acircumflex" horiz-adv-x="810" d="M648 367Q648 255 662 178T698 90Q706 86 717 85T733 80T738 69Q738 33 718 10T665 -13Q621 -13 599 37T577 165Q524 81 466 33T335 -15T212 19T132 110Q72 225 72 363Q72 527 157 646T377
765Q429 765 478 746T561 696Q561 765 612 765Q675 765 675 664Q675 589 648 367ZM569 355L563 600Q478 678 377 678Q294 678 231 589T168 371T211 158T329 72T479 167T569 355ZM492 842Q423 923 409 923Q393 923 329 846Q324 840 321 838L314 830Q301 817 284
817T255 827T244 856T270 896T322 948T368 994T408 1010T449 994T495 948T547 896T574 856T563 828T539 817T517 822Q504 829 492 842Z" />
<glyph unicode="&#xe3;" glyph-name="atilde" horiz-adv-x="810" d="M648 367Q648 255 662 178T698 90Q706 86 717 85T733 80T738 69Q738 33 718 10T665 -13Q621 -13 599 37T577 165Q524 81 466 33T335 -15T212 19T132 110Q72 225 72 363Q72 527 157 646T377 765Q429
765 478 746T561 696Q561 765 612 765Q675 765 675 664Q675 589 648 367ZM569 355L563 600Q478 678 377 678Q294 678 231 589T168 371T211 158T329 72T479 167T569 355ZM598 925Q598 889 567 862T497 835T404 866Q360 888 338 888T292 859T247 829T214 841T201
872Q201 908 238 936T324 965T426 938T496 910T534 935T568 960T590 950T598 925Z" />
<glyph unicode="&#xe4;" glyph-name="adieresis" horiz-adv-x="810" d="M648 367Q648 255 662 178T698 90Q706 86 717 85T733 80T738 69Q738 33 718 10T665 -13Q621 -13 599 37T577 165Q524 81 466 33T335 -15T212 19T132 110Q72 225 72 363Q72 527 157 646T377
765Q429 765 478 746T561 696Q561 765 612 765Q675 765 675 664Q675 589 648 367ZM569 355L563 600Q478 678 377 678Q294 678 231 589T168 371T211 158T329 72T479 167T569 355ZM505 967T518 950T532 907T515 859T474 838T435 856T421 900T437 946T479 967ZM310
967T323 950T337 907T320 859T279 838T240 856T226 900T242 946T284 967Z" />
<glyph unicode="&#xe5;" glyph-name="aring" horiz-adv-x="810" d="M648 367Q648 255 662 178T698 90Q706 86 717 85T733 80T738 69Q738 33 718 10T665 -13Q621 -13 599 37T577 165Q524 81 466 33T335 -15T212 19T132 110Q72 225 72 363Q72 527 157 646T377 765Q429
765 478 746T561 696Q561 765 612 765Q675 765 675 664Q675 589 648 367ZM569 355L563 600Q478 678 377 678Q294 678 231 589T168 371T211 158T329 72T479 167T569 355ZM455 1016T484 986T514 914T486 843T411 815T337 843T308 914T337 986T411 1016ZM449 899T449
914T437 942T411 955T385 943T373 915T384 887T410 875T437 887Z" />
<glyph unicode="&#xe6;" glyph-name="ae" horiz-adv-x="1169" d="M150 239Q150 168 198 121T308 74Q392 74 455 145T518 343Q423 375 334 375T197 334T150 239ZM631 226T697 150T843 73T1008 123Q1040 141 1052 141T1073 132T1083 108Q1083 73 1012 30T847 -14T684
30T572 150Q529 67 459 27T304 -14Q198 -14 126 57T54 242Q54 333 129 398T310 463Q371 463 412 456T521 429Q521 563 469 620T335 678Q296 678 263 665T212 637Q165 596 143 596Q97 596 97 638T168 723T332 765T490 724T590 615Q689 765 862 765Q958 765 1026
704T1095 556T1052 414Q973 315 803 315Q697 315 622 329Q631 226 697 150ZM999 553Q999 600 964 639T862 678Q769 678 706 600T623 417Q692 400 810 400Q890 400 944 439T999 553Z" />
<glyph unicode="&#xe7;" glyph-name="ccedilla" horiz-adv-x="708" d="M515 -133Q515 -175 478 -202T388 -230T305 -206T273 -155Q273 -146 280 -138T299 -130T336 -142T381 -154T412 -147T424 -131T410 -112T378 -91T346 -58T331 -6Q215 22 144 128T72 376Q72
539 167 652T407 765Q495 765 564 732T634 658Q634 638 622 626T591 614T535 637Q477 678 407 678Q303 678 236 589T168 377T235 163T401 72T580 121Q613 139 624 139T645 130T655 106Q655 71 583 29T412 -15Q415 -32 441 -49T491 -86T515 -133Z" />
<glyph unicode="&#xe8;" glyph-name="egrave" horiz-adv-x="745" d="M596 553Q596 600 558 639T452 678T334 638Q240 565 213 421Q289 400 384 400T538 440T596 553ZM668 71T597 28T444 -15T301 16T201 99Q120 207 114 352Q42 374 42 423Q42 443 53 454T80 466T122
454Q153 588 238 676T448 765Q549 765 620 704T692 557T648 416Q565 315 390 315Q318 315 211 335Q220 227 282 150T431 72T593 121Q626 139 637 139T658 130T668 106Q668 71 597 28ZM325 946Q325 963 336 976T365 990T395 981T413 962T428 932T461 883T485 841T477
821T452 813Q420 813 373 857T325 946Z" />
<glyph unicode="&#xe9;" glyph-name="eacute" horiz-adv-x="745" d="M596 553Q596 600 558 639T452 678T334 638Q240 565 213 421Q289 400 384 400T538 440T596 553ZM668 71T597 28T444 -15T301 16T201 99Q120 207 114 352Q42 374 42 423Q42 443 53 454T80 466T122
454Q153 588 238 676T448 765Q549 765 620 704T692 557T648 416Q565 315 390 315Q318 315 211 335Q220 227 282 150T431 72T593 121Q626 139 637 139T658 130T668 106Q668 71 597 28ZM546 946Q546 902 499 858T419 813Q403 813 395 821T386 841T410 882T443 932T457
961T475 980T505 990T534 977T546 946Z" />
<glyph unicode="&#xea;" glyph-name="ecircumflex" horiz-adv-x="745" d="M596 553Q596 600 558 639T452 678T334 638Q240 565 213 421Q289 400 384 400T538 440T596 553ZM668 71T597 28T444 -15T301 16T201 99Q120 207 114 352Q42 374 42 423Q42 443 53 454T80
466T122 454Q153 588 238 676T448 765Q549 765 620 704T692 557T648 416Q565 315 390 315Q318 315 211 335Q220 227 282 150T431 72T593 121Q626 139 637 139T658 130T668 106Q668 71 597 28ZM522 842Q453 923 439 923Q423 923 359 846Q354 840 351 838L344 830Q331
817 314 817T285 827T274 856T300 896T352 948T398 994T438 1010T479 994T525 948T577 896T604 856T593 828T569 817T547 822Q534 829 522 842Z" />
<glyph unicode="&#xeb;" glyph-name="edieresis" horiz-adv-x="745" d="M596 553Q596 600 558 639T452 678T334 638Q240 565 213 421Q289 400 384 400T538 440T596 553ZM668 71T597 28T444 -15T301 16T201 99Q120 207 114 352Q42 374 42 423Q42 443 53 454T80
466T122 454Q153 588 238 676T448 765Q549 765 620 704T692 557T648 416Q565 315 390 315Q318 315 211 335Q220 227 282 150T431 72T593 121Q626 139 637 139T658 130T668 106Q668 71 597 28ZM571 967T584 950T598 907T581 860T540 838T501 856T487 900T503 946T545
967ZM376 967T389 950T403 907T386 860T345 838T306 856T292 900T308 946T350 967Z" />
<glyph unicode="&#xec;" glyph-name="igrave" horiz-adv-x="486" d="M374 661L292 665Q288 568 288 387T293 83L374 87Q401 87 417 75T434 41T418 7T374 -6L243 0L112 -6Q85 -6 69 6T52 40T68 74T112 87L193 82Q198 204 198 386T194 665L112 661Q85 661 69 674T52
709T68 743T112 756L243 750L374 756Q401 756 417 744T434 709T418 674T374 661ZM133 946Q133 963 144 976T173 990T203 981T221 962T236 932T269 883T293 841T285 821T260 813Q228 813 181 857T133 946Z" />
<glyph unicode="&#xed;" glyph-name="iacute" horiz-adv-x="502" d="M390 661L300 665Q296 568 296 387T301 83L390 88Q417 88 433 76T450 41T434 7T390 -6Q390 -6 251 0Q251 0 112 -7Q85 -7 69 5T52 40T68 74T112 87L201 82Q206 204 206 386T202 665L112 661Q85
661 69 673T52 708T68 742T112 755L251 750L390 756Q417 756 433 744T450 709T434 674T390 661ZM360 946Q360 902 313 858T233 813Q217 813 209 821T200 841T224 882T257 932T271 961T289 980T319 990T348 977T360 946Z" />
<glyph unicode="&#xee;" glyph-name="icircumflex" horiz-adv-x="486" d="M374 661L292 665Q288 568 288 387T293 83L374 87Q401 87 417 75T434 41T418 7T374 -6L243 0L112 -6Q85 -6 69 6T52 40T68 74T112 87L193 82Q198 204 198 386T194 665L112 661Q85 661 69
674T52 709T68 743T112 756L243 750L374 756Q401 756 417 744T434 709T418 674T374 661ZM329 842Q260 923 246 923Q230 923 166 846Q161 840 158 838L151 830Q138 817 121 817T92 827T81 856T107 896T159 948T205 994T245 1010T286 994T332 948T384 896T411 856T400
828T376 817T354 822Q341 829 329 842Z" />
<glyph unicode="&#xef;" glyph-name="idieresis" horiz-adv-x="486" d="M374 661L292 665Q288 568 288 387T293 83L374 87Q401 87 417 75T434 41T418 7T374 -6L243 0L112 -6Q85 -6 69 6T52 40T68 74T112 87L193 82Q198 204 198 386T194 665L112 661Q85 661 69
674T52 709T68 743T112 756L243 750L374 756Q401 756 417 744T434 709T418 674T374 661ZM369 967T382 950T396 907T379 860T338 838T299 856T285 900T301 946T343 967ZM174 967T187 950T201 907T184 860T143 838T104 856T90 900T106 946T148 967Z" />
<glyph unicode="&#xf0;" glyph-name="eth" horiz-adv-x="621" d="M544 300Q544 164 482 75T298 -15Q192 -15 128 58T63 230T127 409T293 489Q374 489 440 432Q410 533 338 595Q336 593 316 570T281 536T249 526T221 536T209 559T217 583T234 602T259 622T279 637Q256
650 219 654T168 664Q138 672 138 701Q138 717 152 729T194 741Q267 741 341 696Q384 739 398 749T429 760T457 750T469 726T461 699T446 681T423 663T403 648Q472 587 508 494T544 300ZM360 72T401 120T442 236T406 353T306 402T201 352T159 232T198 117T299 72Z"
/>
<glyph unicode="&#xf1;" glyph-name="ntilde" horiz-adv-x="805" d="M670 497L663 215Q663 177 664 158T672 118T693 91Q701 87 712 86T728 81T733 70Q733 35 711 12T659 -12Q607 -12 588 28T568 147L574 431Q574 540 536 605T426 671T285 584T191 385L195 57Q195
-12 144 -12Q82 -12 82 92T109 385Q109 450 98 561T86 698T100 741T138 760T177 742T191 700T191 645T190 589Q288 760 438 760Q549 760 609 684T670 497ZM596 927Q596 891 565 864T495 837T402 868Q358 890 336 890T290 861T245 831T212 843T199 874Q199 910 236
938T322 967T424 940T494 912T532 937T566 962T588 952T596 927Z" />
<glyph unicode="&#xf2;" glyph-name="ograve" horiz-adv-x="824" d="M517 72T586 164T656 377T587 588T413 679T238 589T168 378T238 165T412 72ZM752 539T752 376T655 99T412 -15T169 99T72 376T170 652T413 765T655 652ZM302 946Q302 963 313 976T342 990T372
981T390 962T405 932T438 883T462 841T454 821T429 813Q397 813 350 857T302 946Z" />
<glyph unicode="&#xf3;" glyph-name="oacute" horiz-adv-x="824" d="M517 72T586 164T656 377T587 588T413 679T238 589T168 378T238 165T412 72ZM752 539T752 376T655 99T412 -15T169 99T72 376T170 652T413 765T655 652ZM522 946Q522 902 475 858T395 813Q379
813 371 821T362 841T386 882T419 932T433 961T451 980T481 990T510 977T522 946Z" />
<glyph unicode="&#xf4;" glyph-name="ocircumflex" horiz-adv-x="824" d="M517 72T586 164T656 377T587 588T413 679T238 589T168 378T238 165T412 72ZM752 539T752 376T655 99T412 -15T169 99T72 376T170 652T413 765T655 652ZM498 842Q429 923 415 923Q399 923
335 846Q330 840 327 838L320 830Q307 817 290 817T261 827T250 856T276 896T328 948T374 994T414 1010T455 994T501 948T553 896T580 856T569 828T545 817T523 822Q510 829 498 842Z" />
<glyph unicode="&#xf5;" glyph-name="otilde" horiz-adv-x="824" d="M517 72T586 164T656 377T587 588T413 679T238 589T168 378T238 165T412 72ZM752 539T752 376T655 99T412 -15T169 99T72 376T170 652T413 765T655 652ZM610 927Q610 891 579 864T509 837T416
868Q372 890 350 890T304 861T259 831T226 843T213 874Q213 910 250 938T336 967T438 940T508 912T546 937T580 962T602 952T610 927Z" />
<glyph unicode="&#xf6;" glyph-name="odieresis" horiz-adv-x="824" d="M517 72T586 164T656 377T587 588T413 679T238 589T168 378T238 165T412 72ZM752 539T752 376T655 99T412 -15T169 99T72 376T170 652T413 765T655 652ZM538 967T551 950T565 907T548 859T507
838T468 856T454 900T470 946T512 967ZM343 967T356 950T370 907T353 859T312 838T273 856T259 900T275 946T317 967Z" />
<glyph unicode="&#xf7;" glyph-name="divide" horiz-adv-x="628" d="M314 406L511 409Q529 409 540 399T552 374T541 349T511 339L314 342L117 339Q99 339 88 349T76 374T87 399T117 409Q117 409 314 406ZM342 615T355 598T369 555T352 507T311 486T272 504T258
548T274 594T316 615ZM344 262T357 245T371 202T354 155T313 133T274 151T260 195T276 241T318 262Z" />
<glyph unicode="&#xf8;" glyph-name="oslash" horiz-adv-x="824" d="M656 376Q656 464 618 539T516 651Q431 329 376 75Q392 72 412 72Q517 72 586 164T656 376ZM429 678L412 679Q307 679 238 589T168 376Q168 297 201 225T291 112Q327 224 429 678ZM752 376Q752
213 655 99T411 -15Q393 -15 357 -11Q339 -84 298 -84Q279 -84 268 -70T256 -34T267 20Q178 66 125 162T72 376Q72 539 170 652T413 765Q425 765 447 763Q457 803 470 819T504 835T536 821T548 787T538 739Q635 697 693 598T752 376Z" />
<glyph unicode="&#xf9;" glyph-name="ugrave" horiz-adv-x="819" d="M202 646L191 314Q191 205 228 139T342 72T490 161T574 360L570 688Q570 757 621 757Q683 757 683 655T656 360Q656 250 670 174T706 88Q714 84 725 83T742 78T747 67Q747 30 725 8T669 -15Q584
-15 584 158Q484 -15 332 -15Q251 -15 196 30Q96 114 96 297L104 536Q104 590 93 636T82 702T98 740T140 757Q202 757 202 646ZM264 946Q264 963 275 976T304 990T334 981T352 962T367 932T400 883T424 841T416 821T391 813Q359 813 312 857T264 946Z" />
<glyph unicode="&#xfa;" glyph-name="uacute" horiz-adv-x="819" d="M202 646L191 314Q191 205 228 139T342 72T490 161T574 360L570 688Q570 757 621 757Q683 757 683 655T656 360Q656 250 670 174T706 88Q714 84 725 83T742 78T747 67Q747 30 725 8T669 -15Q584
-15 584 158Q484 -15 332 -15Q251 -15 196 30Q96 114 96 297L104 536Q104 590 93 636T82 702T98 740T140 757Q202 757 202 646ZM494 946Q494 902 447 858T367 813Q351 813 343 821T334 841T358 882T391 932T405 961T423 980T453 990T482 977T494 946Z" />
<glyph unicode="&#xfb;" glyph-name="ucircumflex" horiz-adv-x="819" d="M202 646L191 314Q191 205 228 139T342 72T490 161T574 360L570 688Q570 757 621 757Q683 757 683 655T656 360Q656 250 670 174T706 88Q714 84 725 83T742 78T747 67Q747 30 725 8T669
-15Q584 -15 584 158Q484 -15 332 -15Q251 -15 196 30Q96 114 96 297L104 536Q104 590 93 636T82 702T98 740T140 757Q202 757 202 646ZM467 842Q398 923 384 923Q368 923 304 846Q299 840 296 838L289 830Q276 817 259 817T230 827T219 856T245 896T297 948T343
994T383 1010T424 994T470 948T522 896T549 856T538 828T514 817T492 822Q479 829 467 842Z" />
<glyph unicode="&#xfc;" glyph-name="udieresis" horiz-adv-x="819" d="M202 646L191 314Q191 205 228 139T342 72T490 161T574 360L570 688Q570 757 621 757Q683 757 683 655T656 360Q656 250 670 174T706 88Q714 84 725 83T742 78T747 67Q747 30 725 8T669 -15Q584
-15 584 158Q484 -15 332 -15Q251 -15 196 30Q96 114 96 297L104 536Q104 590 93 636T82 702T98 740T140 757Q202 757 202 646ZM510 967T523 950T537 907T520 860T479 838T440 856T426 900T442 946T484 967ZM315 967T328 950T342 907T325 860T284 838T245 856T231
900T247 946T289 967Z" />
<glyph unicode="&#xfd;" glyph-name="yacute" horiz-adv-x="607" d="M347 303Q347 223 350 142L352 61Q352 -10 301 -10T250 61L252 144Q255 227 255 304Q56 646 43 673T30 717T42 747T76 760T115 739T189 603T306 401Q330 437 390 549T460 677T474 701T485 721T497
738T508 750Q518 760 536 760T565 748T577 719T563 675T500 564T437 458T398 390T347 303ZM413 946Q413 902 366 858T286 813Q270 813 262 821T253 841T277 882T310 932T324 961T342 980T372 990T401 977T413 946Z" />
<glyph unicode="&#xfe;" glyph-name="thorn" horiz-adv-x="617" d="M209 524Q208 487 208 430T210 298Q262 284 329 284T437 319T479 411T437 503T328 538T209 524ZM119 375L113 689Q113 760 164 760T215 689Q215 674 213 651T210 612Q258 625 328 625Q438 625
506 564T574 411T507 258T329 197Q261 197 210 209Q215 96 215 61Q215 -10 164 -10T113 61L119 375Z" />
<glyph unicode="&#xff;" glyph-name="ydieresis" horiz-adv-x="607" d="M347 303Q347 223 350 142L352 61Q352 -10 301 -10T250 61L252 144Q255 227 255 304Q56 646 43 673T30 717T42 747T76 760T115 739T189 603T306 401Q330 437 390 549T460 677T474 701T485
721T497 738T508 750Q518 760 536 760T565 748T577 719T563 675T500 564T437 458T398 390T347 303ZM429 967T442 950T456 907T439 859T398 838T359 856T345 900T361 946T403 967ZM234 967T247 950T261 907T244 859T203 838T164 856T150 900T166 946T208 967Z" />
<glyph unicode="&#x2013;" glyph-name="endash" horiz-adv-x="620" d="M310 336L130 333Q108 333 95 345T81 375T94 405T130 417L310 414L490 417Q512 417 525 405T539 375T526 345T490 333Q490 333 310 336Z" />
<glyph unicode="&#x2014;" glyph-name="emdash" horiz-adv-x="880" d="M440 336L120 333Q98 333 85 345T71 375T84 405T120 417L440 414L760 417Q782 417 795 405T809 375T796 345T760 333Q760 333 440 336Z" />
<glyph unicode="&#x2018;" glyph-name="quoteleft" horiz-adv-x="264" d="M170 636L176 565Q176 541 161 521T118 500T78 517T65 558Q65 627 102 693T177 759Q189 759 197 752T206 734T188 693T170 636Z" />
<glyph unicode="&#x2019;" glyph-name="quoteright" horiz-adv-x="265" d="M99 625L93 696Q93 720 108 740T151 761T191 744T204 703Q204 634 167 568T92 502Q80 502 72 509T63 527T81 568T99 625Z" />
<glyph unicode="&#x201a;" glyph-name="quotesinglbase" horiz-adv-x="256" d="M79 -35L72 36Q72 63 88 83T130 104T169 87T182 45Q182 -18 157 -79T105 -141Q92 -141 84 -134T76 -113L79 -35Z" />
<glyph unicode="&#x201c;" glyph-name="quotedblleft" horiz-adv-x="463" d="M170 637L176 566Q176 542 161 522T118 501T78 518T65 559Q65 628 102 694T177 760Q189 760 197 753T206 735T188 694T170 637ZM369 637L375 566Q375 542 360 522T317 501T277 518T264
559Q264 628 301 694T376 760Q388 760 396 753T405 735T387 694T369 637Z" />
<glyph unicode="&#x201d;" glyph-name="quotedblright" horiz-adv-x="464" d="M298 624L292 695Q292 719 307 739T350 760T390 743T403 702Q403 633 366 567T291 501Q279 501 271 508T262 526T280 567T298 624ZM99 624L93 695Q93 719 108 739T151 760T191 743T204
702Q204 633 167 567T92 501Q80 501 72 508T63 526T81 567T99 624Z" />
<glyph unicode="&#x201e;" glyph-name="quotedblbase" horiz-adv-x="462" d="M79 -32L72 39Q72 66 88 86T130 107T169 90T182 48Q182 -15 157 -76T105 -138Q92 -138 84 -131T76 -110L79 -32ZM285 -32L278 39Q278 66 294 86T336 107T375 90T388 48Q388 -15 363
-76T311 -138Q298 -138 290 -131T282 -110L285 -32Z" />
<glyph unicode="&#x2022;" glyph-name="bullet" horiz-adv-x="333" d="M221 510T244 478T268 397T237 308T161 268T91 301T66 383T97 471T174 510Z" />
<glyph unicode="&#x2039;" glyph-name="guilsinglleft" horiz-adv-x="365" d="M150 384T150 376T207 327Q215 321 233 310T260 291Q288 271 288 253T276 224T247 212T216 220T184 245T129 292T75 341T59 376T75 411T128 459T180 503T203 524Q223 540 243 540T276
529T288 502T278 475T239 446T207 425Q150 384 150 376Z" />
<glyph unicode="&#x203a;" glyph-name="guilsinglright" horiz-adv-x="365" d="M306 393T306 376T290 341T237 293T185 249T162 228Q142 212 122 212T89 223T77 250T87 277T126 306T158 327Q215 368 215 376T158 425Q150 431 132 442T104 461Q77 481 77 499T89
528T118 540T149 532T181 507T236 460T290 411Z" />
</font>
</defs>
</svg>
