<?xml version="1.0" standalone="no"?>
<!DOCTYPE svg PUBLIC "-//W3C//DTD SVG 1.1//EN" "http://www.w3.org/Graphics/SVG/1.1/DTD/svg11.dtd">
<svg xmlns="http://www.w3.org/2000/svg">
<defs >
<font id="Gorditas" horiz-adv-x="597" ><font-face
    font-family="Gorditas"
    units-per-em="1000"
    panose-1="2 9 5 0 4 0 0 0 0 0"
    ascent="954"
    descent="-259"
    alphabetic="0" />
<glyph unicode=" " glyph-name="space" horiz-adv-x="203" />
<glyph unicode="!" glyph-name="exclam" horiz-adv-x="256" d="M51 490Q51 615 89 690Q113 699 127 699Q147 699 166 690Q203 576 203 461Q203 320 151 198Q142 194 130 194Q120 194 113 195Q85 248 68 328T51 490ZM96 62Q96 90 102 119Q123 123 135 123Q146 123
162 119Q171 89 171 60Q171 30 162 0Q145 -5 132 -5Q117 -5 102 0Q96 32 96 62Z" />
<glyph unicode="&quot;" glyph-name="quotedbl" horiz-adv-x="354" d="M36 554Q36 589 50 607T86 625T122 607T137 555Q137 501 98 398L71 410Q63 423 50 483T36 554ZM216 554Q216 589 230 607T266 625T302 607T317 555Q317 501 278 398L251 410Q243 423 230 483T216
554Z" />
<glyph unicode="#" glyph-name="numbersign" horiz-adv-x="631" d="M37 195Q37 208 42 219L149 223Q154 249 164 322T182 431L46 437Q39 444 39 461Q39 480 46 487Q104 495 203 499L233 636Q271 636 282 622L269 501Q351 501 433 499L463 636Q505 636 512 622Q511
617 506 566T498 493Q566 490 591 487Q595 472 595 463Q595 452 591 437L484 433Q479 407 469 334T451 225L587 219Q589 212 589 195Q589 177 587 169Q529 161 430 157L400 20Q394 18 389 18Q362 18 351 34L364 155Q282 155 200 157L170 20Q164 18 160 18Q142 18
121 34Q122 39 127 90T135 163Q68 166 42 169Q37 184 37 195ZM222 226Q235 226 287 226T379 227L411 430Q398 430 346 430T254 429L222 226Z" />
<glyph unicode="$" glyph-name="dollar" horiz-adv-x="618" d="M37 101Q37 150 56 185Q100 199 113 199Q137 199 186 185Q191 172 193 147Q228 124 269 118Q261 230 259 286Q213 293 181 302T115 331T65 384T47 465Q47 564 117 635T280 710L289 779Q295 787 339
792L348 704Q386 697 431 674Q437 704 452 716Q471 726 500 726Q546 726 564 708Q570 690 570 618Q570 570 562 550T529 525Q512 520 496 520Q460 520 437 535Q431 550 431 568Q404 580 360 584Q368 496 369 407Q483 394 534 360T585 246Q585 149 518 76T346 -7L336
-106Q324 -113 289 -116L280 -9Q226 -2 187 27Q187 2 177 -10Q159 -20 118 -20Q74 -20 58 -5Q37 35 37 101ZM188 485Q188 423 258 412Q259 469 267 580Q188 563 188 485ZM357 125Q392 139 415 165T439 219Q439 268 366 278Q363 202 357 125Z" />
<glyph unicode="%" glyph-name="percent" horiz-adv-x="874" d="M30 394T30 485T76 630T193 684T309 630T356 485T310 340T193 286T77 340ZM116 541T116 486T136 395T197 359Q236 359 255 394T275 485T255 575T196 610Q156 610 136 576ZM191 11Q228 68 289 194T386
375T503 528T620 684Q636 688 642 688Q662 688 679 667Q642 611 584 490T489 311Q453 255 369 153T249 -6Q234 -11 225 -11Q206 -11 191 11ZM518 100T518 191T564 336T681 390T797 336T844 191T798 46T681 -8T565 46ZM602 241T602 186T622 95T683 59Q722 59 741
94T761 185T741 275T682 310Q642 310 622 276Z" />
<glyph unicode="&amp;" glyph-name="ampersand" horiz-adv-x="710" d="M35 154Q35 216 67 275T152 364Q90 430 90 519Q90 604 148 667T299 730Q382 730 433 679T485 557Q485 488 437 425T317 326Q380 262 433 195Q442 202 457 214T476 230T489 241T501 253T509
264T516 279Q486 306 477 322Q532 377 572 394Q608 376 662 319T718 239Q718 234 677 199T630 160Q616 166 595 198Q570 172 546 153T508 120Q559 65 570 55L472 -15Q470 -13 443 15T400 62Q275 -12 198 -12Q119 -12 77 36T35 154ZM138 154Q138 124 159 103T211
81Q238 81 275 98T341 145Q330 157 290 208T221 287Q138 212 138 154ZM191 530Q191 514 197 499T207 477T228 451T250 424Q316 452 347 480T378 546Q378 580 355 603T292 626Q247 626 219 598T191 530Z" />
<glyph unicode="&apos;" glyph-name="quotesingle" horiz-adv-x="150" d="M42 570Q42 588 43 597Q64 604 71 604Q72 604 104 597Q107 573 107 550Q107 477 80 389Q77 391 67 401Q42 496 42 570Z" />
<glyph unicode="(" glyph-name="parenleft" horiz-adv-x="336" d="M29 234Q29 362 97 471T286 656Q323 643 323 619Q323 600 300 572Q219 514 185 431T150 235Q150 120 189 35T332 -145Q329 -179 298 -179Q177 -115 103 -9T29 234Z" />
<glyph unicode=")" glyph-name="parenright" horiz-adv-x="336" d="M4 -145Q107 -51 146 34T186 235Q186 348 152 431T36 572Q13 600 13 619Q13 643 50 656Q171 580 239 471T307 234Q307 98 233 -8T38 -179Q7 -179 4 -145Z" />
<glyph unicode="*" glyph-name="asterisk" horiz-adv-x="384" d="M31 497Q31 499 35 504T41 510Q96 510 169 487Q169 574 183 612Q187 616 192 616Q195 616 201 612Q215 574 215 487Q288 510 343 510Q345 509 349 504T353 497Q348 489 330 480T296 465T258 452T235
444Q265 416 292 327Q288 320 277 320Q218 359 192 414Q165 357 104 320Q96 320 92 327Q119 416 149 444Q147 445 126 452T89 465T54 480T31 497Z" />
<glyph unicode="+" glyph-name="plus" horiz-adv-x="539" d="M24 310Q24 316 40 333Q87 343 138 343Q204 343 248 333Q234 389 234 455Q234 505 248 547Q263 558 273 558Q284 558 296 547Q310 502 310 452Q310 386 296 333Q337 341 401 341Q450 341 504 333Q513
320 513 313T504 289Q449 276 402 276Q341 276 296 289Q310 246 310 181Q310 129 296 75Q284 67 271 67Q260 67 248 75Q237 128 237 178Q237 244 248 289Q198 278 134 278Q84 278 40 289Q24 308 24 310Z" />
<glyph unicode="," glyph-name="comma" horiz-adv-x="214" d="M23 -83Q24 -19 31 27T62 128Q107 152 134 152Q151 152 178 146Q167 88 141 40T69 -63Q49 -83 23 -83Z" />
<glyph unicode="-" glyph-name="hyphen" horiz-adv-x="360" d="M53 277Q53 289 57 298Q140 309 194 309Q252 309 303 298Q307 287 307 274Q307 259 303 251Q258 238 204 238Q98 238 57 252Q53 258 53 277Z" />
<glyph unicode="." glyph-name="period" horiz-adv-x="200" d="M39 80Q39 115 61 147Q89 155 101 155Q120 155 140 147Q161 115 161 77Q161 40 140 3Q124 -5 105 -5T61 3Q39 42 39 80Z" />
<glyph unicode="/" glyph-name="slash" horiz-adv-x="533" d="M20 -90Q196 415 492 719Q501 718 506 712T512 702Q366 237 40 -107Q20 -104 20 -90Z" />
<glyph unicode="0" glyph-name="zero" horiz-adv-x="742" d="M38 268Q38 342 69 419T152 559T283 662T448 702Q576 702 639 622T702 416Q702 357 689 298T645 184T573 85T468 16T330 -10Q196 -10 117 68T38 268ZM199 282Q199 209 238 166T340 122Q406 122 462
171T547 287T576 416Q576 482 541 523T437 565Q367 565 311 520T227 410T199 282Z" />
<glyph unicode="1" glyph-name="one" horiz-adv-x="376" d="M32 568Q32 608 39 622Q52 649 95 674T211 699Q246 699 266 690Q280 661 280 487Q280 240 266 149Q272 150 283 150Q309 150 331 139Q334 134 334 121Q334 94 327 60T307 14Q299 6 283 4T219 1Q136 1
107 6T68 28Q61 41 61 81Q61 132 67 141L123 150Q143 153 146 153Q134 254 134 354Q134 451 146 547Q100 515 38 509Q32 515 32 568Z" />
<glyph unicode="2" glyph-name="two" horiz-adv-x="647" d="M34 4Q34 44 42 89T72 186T124 280T207 353T321 391Q361 395 382 398T425 410T457 432T467 467Q467 516 420 555T305 594Q223 594 193 538Q193 520 187 505Q171 494 113 494Q107 494 102 494T95 495Q54
504 54 608Q54 660 60 678Q68 684 97 689T152 694Q174 694 178 690Q183 686 185 684T188 680T190 674T193 664Q266 710 353 710Q463 710 529 639T595 468Q595 300 375 281Q349 279 332 277T288 267T244 246T214 211T201 155Q201 138 203 128Q271 114 371 114Q426
114 477 134Q476 137 476 141Q476 146 478 151T484 163T490 173Q507 183 536 183Q564 183 581 173Q608 158 608 98Q608 60 601 31T588 -8T579 -20Q554 -25 518 -25Q469 -25 466 -15Q457 21 456 29Q420 -1 308 -1Q281 -1 173 5Q172 -11 165 -13Q156 -25 94 -25Q50
-25 35 -20Q34 -13 34 4Z" />
<glyph unicode="3" glyph-name="three" horiz-adv-x="554" d="M6 119Q6 124 8 132Q12 148 50 172T154 213Q170 206 187 180T206 137Q206 134 202 132T193 127T184 120Q212 98 251 98Q300 98 340 131T380 212Q380 258 334 293Q322 290 310 290Q294 290 282 295Q259
324 259 374Q259 410 271 433Q281 443 304 443Q313 443 329 441T347 439Q392 464 392 502Q392 533 363 556T293 580Q264 580 237 566L243 544Q240 536 221 530T188 523Q163 523 140 565T113 638Q121 653 143 668T190 684L198 676Q242 690 289 690Q375 690 438 647T502
521Q502 428 419 354Q507 290 507 204Q507 117 423 48T238 -21Q136 -21 72 56Q50 45 44 45Q6 81 6 119Z" />
<glyph unicode="4" glyph-name="four" horiz-adv-x="564" d="M13 346Q13 362 15 372T22 392T29 407Q118 579 286 676Q335 699 374 699Q404 699 446 686Q460 641 460 477Q460 403 459 381Q462 381 469 381T481 382Q492 382 502 380Q517 358 517 330T508 284Q506
279 479 279Q464 279 455 280Q460 245 460 222Q460 159 446 135Q454 137 468 137Q492 137 509 127Q522 111 522 67Q522 17 510 8Q462 -4 360 -4Q260 -4 252 11Q240 25 240 66Q240 110 258 127Q283 139 336 139Q330 171 330 220Q330 261 335 278Q326 278 306 277T253
274T170 273Q47 273 19 280Q13 291 13 346ZM114 377Q146 379 268 379Q306 379 332 376Q332 511 336 593Q301 566 219 487T114 377Z" />
<glyph unicode="5" glyph-name="five" horiz-adv-x="634" d="M48 120Q48 180 60 212Q90 218 124 218Q176 218 201 208Q207 193 207 165Q260 109 346 109Q400 109 435 138T470 217Q470 271 427 291T304 311Q262 311 190 306T97 300Q64 386 64 523Q64 613 77 706Q102
721 156 721Q228 721 239 706Q245 705 247 678Q271 684 329 684Q403 684 440 674Q442 699 449 716Q472 728 511 728Q535 728 553 723Q557 720 562 713T575 680T582 616Q582 545 556 530Q538 520 500 520Q465 520 444 526Q438 538 438 552Q438 564 441 574Q419 588
330 588Q220 588 196 580Q182 561 182 523Q182 503 188 468T206 429L216 430H240H267Q365 430 432 414T534 369T581 307T595 235Q595 130 520 59T347 -12Q268 -12 207 39Q200 21 176 2Q161 -4 126 -4Q86 -4 64 5Q48 42 48 120Z" />
<glyph unicode="6" glyph-name="six" horiz-adv-x="648" d="M40 354Q40 447 71 526T170 658T331 711Q406 711 480 674Q481 675 483 680T489 690T493 695Q505 699 522 699Q546 699 569 692T601 673Q603 663 603 654Q603 620 581 577T534 519Q529 518 519 518Q498
518 467 527T425 545Q422 552 422 561Q422 580 429 587Q387 606 348 606Q269 606 214 536T159 384Q159 354 168 329Q230 436 377 436Q485 436 546 383T607 233Q607 120 527 53T338 -15Q244 -15 175 40T73 177T40 354ZM229 197Q229 156 259 129T341 102Q408 102
446 145T484 233Q484 273 449 299T366 326Q307 326 268 286T229 197Z" />
<glyph unicode="7" glyph-name="seven" horiz-adv-x="447" d="M14 589Q14 669 50 692Q64 699 130 704T260 710Q397 710 445 677Q383 445 315 244T200 1Q198 -2 169 -2Q102 -2 98 9Q216 442 304 590Q266 595 235 595Q184 595 131 583Q131 552 120 536Q96 528 62
528Q31 528 19 537Q14 559 14 589Z" />
<glyph unicode="8" glyph-name="eight" horiz-adv-x="562" d="M37 186Q37 311 143 400Q81 445 81 515Q81 593 135 652T294 712Q380 712 428 670T476 566Q476 497 421 441Q526 361 526 248Q526 145 450 68T248 -10Q143 -10 90 46T37 186ZM158 206Q158 163 185 135T266
106Q331 106 367 145T404 236Q404 279 377 309T301 339Q246 339 202 302T158 206ZM192 517Q192 491 208 474T256 457Q296 457 325 483T355 547Q355 577 335 596T285 616Q247 616 220 585T192 517Z" />
<glyph unicode="9" glyph-name="nine" horiz-adv-x="632" d="M37 454Q37 552 110 631T298 711Q388 711 457 657T559 520T592 345Q592 197 510 90T300 -17Q237 -17 172 12Q171 11 169 6T163 -4T159 -9Q147 -13 130 -13Q106 -13 83 -6T51 13Q49 23 49 32Q49 66 71
109T118 167Q123 168 133 168Q154 168 185 159T227 141Q230 134 230 125Q230 106 223 99Q254 90 281 90Q361 90 417 160T473 312Q473 342 464 367Q402 260 259 260Q151 260 94 315T37 454ZM152 470Q152 428 179 401T262 373Q331 373 368 414T406 504Q406 544 379
571T301 598Q243 598 198 563T152 470Z" />
<glyph unicode=":" glyph-name="colon" horiz-adv-x="228" d="M53 80Q53 115 75 147Q103 155 115 155Q134 155 154 147Q175 115 175 77Q175 40 154 3Q138 -5 119 -5T75 3Q53 42 53 80ZM53 415Q53 450 75 482Q103 490 115 490Q134 490 154 482Q175 450 175 412Q175
376 154 338Q138 330 119 330T75 338Q53 377 53 415Z" />
<glyph unicode=";" glyph-name="semicolon" horiz-adv-x="240" d="M24 -83Q25 -19 32 27T63 128Q108 152 135 152Q152 152 179 146Q168 88 142 40T70 -63Q50 -83 24 -83ZM74 385Q74 420 96 452Q124 460 136 460Q155 460 175 452Q196 420 196 382Q196 346 175 308Q159
300 140 300T96 308Q74 347 74 385Z" />
<glyph unicode="&lt;" glyph-name="less" horiz-adv-x="558" d="M26 318Q26 335 47 352Q298 516 494 574Q501 567 501 562Q501 553 494 538Q415 459 300 396T89 319Q188 301 303 238T494 99Q503 86 503 77Q503 71 494 62Q227 153 47 284Q26 302 26 318Z" />
<glyph unicode="=" glyph-name="equal" horiz-adv-x="545" d="M61 277Q61 289 65 298Q148 309 279 309Q436 309 481 298Q485 287 485 274Q485 259 481 251Q436 238 268 238Q171 238 65 252Q61 258 61 277ZM61 442Q61 454 65 463Q148 474 279 474Q436 474 481 463Q485
452 485 439Q485 424 481 416Q436 403 265 403Q176 403 65 417Q61 423 61 442Z" />
<glyph unicode="&gt;" glyph-name="greater" horiz-adv-x="558" d="M55 77Q55 86 64 99Q140 174 255 237T469 319Q374 332 259 395T64 538Q57 553 57 562Q57 567 64 574Q260 516 511 352Q532 335 532 318Q532 302 511 284Q331 153 64 62Q55 71 55 77Z" />
<glyph unicode="?" glyph-name="question" horiz-adv-x="548" d="M26 547Q26 596 69 638Q104 673 163 692T285 712Q382 712 450 667T518 540Q518 459 454 405T297 327Q306 305 306 271Q306 238 297 200Q278 195 246 195Q236 195 219 200Q205 227 205 280Q205 334
214 373Q305 403 340 433T375 531Q375 577 352 606T262 635Q134 635 134 519Q134 502 135 495Q110 488 88 488Q26 488 26 547ZM206 69Q206 100 219 129Q246 141 258 141T299 129Q318 91 318 69Q318 43 299 10Q269 -5 257 -5Q241 -5 219 10Q206 39 206 69Z" />
<glyph unicode="@" glyph-name="at" horiz-adv-x="910" d="M39 197Q39 335 100 452T270 638T514 708Q678 708 779 607T881 342Q881 278 864 226T817 140T749 83T669 51T584 41Q558 41 542 43T509 57T485 90Q464 73 428 59T359 44Q302 44 270 97T238 226Q238 284
255 338T312 432T402 472Q425 472 443 464T472 444T488 420T497 400L500 392V450Q525 473 581 473Q606 473 625 471T654 467T670 463T678 459L679 458Q682 449 682 413Q682 376 679 367Q652 352 615 352Q607 352 602 352T594 353Q597 350 597 311Q597 157 590 145Q610
138 634 138Q696 138 741 185T787 334Q787 465 707 542T503 619Q348 619 241 502T133 207Q133 59 212 -14T429 -87Q548 -87 646 -37L678 -120Q557 -175 422 -175Q243 -175 141 -78T39 197ZM339 246Q339 201 366 170T425 138Q442 138 465 147T488 164Q490 199 492
232T495 282T497 311Q497 327 475 344T425 361Q385 361 362 325T339 246Z" />
<glyph unicode="A" glyph-name="A" horiz-adv-x="747" d="M5 69Q5 113 14 128T52 144Q83 144 83 136Q90 178 189 435T300 695Q332 700 378 700Q402 700 447 695Q458 690 557 434T664 136Q664 144 695 144Q724 144 733 129T742 69Q742 18 731 12Q718 0 575 0Q472
0 472 11Q450 24 450 100Q450 111 451 117T459 129T479 135Q508 135 508 131Q512 131 512 141Q512 166 485 255Q444 251 376 251Q303 251 262 255Q235 165 235 140Q235 132 239 131Q245 135 265 135Q280 135 287 128T296 114T297 91Q297 25 275 11Q275 0 172 0Q29
0 16 12Q5 18 5 69ZM298 371Q336 374 371 374Q412 374 448 370Q403 503 373 576Q345 507 298 371Z" />
<glyph unicode="B" glyph-name="B" horiz-adv-x="656" d="M50 66Q50 86 51 97T65 119T101 131Q104 131 114 129Q106 222 106 306Q106 458 119 559Q97 559 64 564Q58 572 58 624T61 683Q91 708 182 708Q209 708 251 704Q255 691 255 664Q283 681 328 694T409 707Q486
707 537 645T589 503Q589 410 516 344Q618 286 618 178Q618 102 566 46T438 -10Q287 -10 242 31Q242 5 228 0T163 -6Q105 -6 57 6Q50 39 50 66ZM249 119Q249 113 304 103T377 92Q409 92 431 120T454 190T438 265T388 299Q357 299 306 286T254 259Q253 249 253 232T251
183T249 119ZM249 419Q249 413 304 403T377 392Q409 392 431 420T454 490T438 565T388 599Q357 599 306 586T254 559Q253 549 253 532T251 483T249 419Z" />
<glyph unicode="C" glyph-name="C" horiz-adv-x="675" d="M41 344Q41 497 119 602T328 707Q423 707 468 663Q470 693 489 700Q514 711 550 711Q597 711 624 691Q625 680 628 657T634 614T636 579Q636 517 600 485Q579 462 531 462Q481 462 456 485Q455 487 455
494Q455 506 458 510Q441 547 403 567T334 587Q276 587 227 513T177 342Q177 251 223 195T331 138Q362 138 400 152T456 191Q453 209 453 211T453 215T454 218Q491 235 519 235T601 215Q637 183 637 122Q637 106 635 87T629 44T624 9Q593 -16 544 -16Q508 -16 489
0Q468 8 468 39Q402 -6 334 -6Q281 -6 230 16T136 80T67 190T41 344Z" />
<glyph unicode="D" glyph-name="D" horiz-adv-x="710" d="M45 614Q45 636 54 647Q149 701 264 701Q369 701 447 673T573 593T644 474T667 322Q667 156 575 73T285 -10Q168 -10 61 32Q51 42 51 101Q51 134 54 144Q57 159 96 159Q107 159 121 157Q111 227 111 343Q111
446 123 533Q112 530 96 530Q57 530 54 545Q45 583 45 614ZM264 133Q293 123 327 123Q410 123 470 180T531 329Q531 422 471 496T327 570Q292 570 264 556Q273 466 273 351Q273 214 264 133Z" />
<glyph unicode="E" glyph-name="E" horiz-adv-x="690" d="M46 103Q46 119 62 155Q80 164 102 164Q112 164 118 161Q106 250 106 342Q106 477 127 564Q104 559 90 559Q72 559 62 566Q48 586 48 628Q48 654 67 680Q99 695 184 703T348 712Q532 712 644 674Q654 624
654 597Q654 550 631 520Q606 514 588 514Q556 514 506 547L509 580Q490 593 405 593Q375 593 328 590T280 584Q284 548 284 531Q284 442 271 409Q369 409 370 412Q369 415 369 421Q369 432 378 448Q384 453 411 453Q453 453 469 446Q489 413 489 351Q489 295 468
274Q460 267 421 267T376 274Q367 286 367 304L266 299Q266 240 255 135Q271 121 320 114T401 106Q425 106 460 111T509 124L506 157Q556 190 589 190Q607 190 631 184Q654 154 654 107Q654 80 644 30Q569 -13 372 -13Q276 -13 189 -3T67 24Q55 39 51 54T46 103Z"
/>
<glyph unicode="F" glyph-name="F" horiz-adv-x="642" d="M45 109Q45 130 49 134Q77 138 94 138Q97 138 104 138T116 137Q109 227 109 294Q109 384 122 564Q89 555 77 555Q68 555 65 557Q49 569 49 613Q49 660 62 680Q126 710 281 710Q378 710 483 699T629 674Q639
624 639 597Q639 550 616 520Q596 515 574 515Q517 515 501 547L504 580Q484 593 400 593Q371 593 329 590T285 584Q271 535 259 431Q345 431 346 434Q346 459 356 469Q388 476 392 476Q421 476 445 466Q463 445 463 390Q463 359 458 331T444 294Q435 287 387 287Q360
287 354 293Q352 295 350 298T346 303T344 307T343 313T342 321H252Q252 232 257 132Q266 135 286 135Q312 135 315 131Q325 118 325 59Q325 11 323 11Q291 -14 199 -14Q97 -14 58 6Q45 23 45 109Z" />
<glyph unicode="G" glyph-name="G" horiz-adv-x="680" d="M42 345Q42 506 119 608T315 710Q385 710 459 673Q462 673 466 690T480 710Q524 718 552 718Q593 718 614 701Q621 673 621 638Q621 566 600 507Q595 497 534 497Q501 497 483 506Q474 513 474 525Q474
531 479 546Q409 592 349 592Q273 592 226 523T178 348Q178 234 231 176T355 118Q420 118 476 171Q488 202 488 240Q488 276 476 306Q458 306 413 310T367 323Q360 337 360 353Q360 374 370 388Q391 419 461 419Q498 419 541 410T602 385Q611 364 619 298T627 158Q627
70 615 9Q593 -7 566 -7Q541 -7 505 5Q489 11 489 59Q389 -6 317 -6Q285 -6 250 4T177 41T110 106T61 207T42 345Z" />
<glyph unicode="H" glyph-name="H" horiz-adv-x="752" d="M50 86Q50 134 56 140Q68 147 81 149Q99 152 104 152Q92 252 92 353Q92 450 104 546Q99 546 81 549Q67 552 56 558Q50 564 50 612Q50 664 56 671Q93 699 186 699Q246 699 269 689Q275 679 283 639T292
577Q292 564 289 560Q267 549 251 549Q240 549 234 550Q245 480 246 415Q275 428 359 428Q442 428 493 413Q496 490 504 546Q499 546 481 549Q467 552 456 558Q450 564 450 612Q450 664 456 671Q455 683 488 691T571 699Q636 699 679 689Q685 679 693 639T702 577Q702
564 699 560Q677 549 651 549Q640 549 634 550Q646 469 646 374Q646 296 634 148Q640 149 651 149Q667 149 689 138Q692 134 692 121Q692 100 684 60T669 9Q651 0 604 0Q551 0 503 8T456 27Q450 34 450 86Q450 134 456 140Q468 147 481 149Q499 152 504 152Q495
223 493 313Q433 305 361 305Q275 305 243 313Q240 233 234 148Q240 149 251 149Q267 149 289 138Q292 134 292 121Q292 100 284 60T269 9Q246 -1 178 -1Q76 -1 56 27Q50 34 50 86Z" />
<glyph unicode="I" glyph-name="I" horiz-adv-x="356" d="M55 86Q55 134 61 140Q70 145 96 149Q114 152 119 152Q107 252 107 353Q107 450 119 546Q114 546 96 549Q70 553 61 558Q55 564 55 612Q55 664 61 671Q60 683 93 690T177 698Q230 698 284 689Q290 679
299 639T307 577Q307 564 304 560Q282 549 256 549Q245 549 239 550Q251 469 251 374Q251 296 239 148Q245 149 256 149Q282 149 304 138Q307 134 307 121Q307 100 299 60T284 9Q227 4 180 4Q128 4 94 10T61 27Q55 34 55 86Z" />
<glyph unicode="J" glyph-name="J" horiz-adv-x="598" d="M12 32Q12 73 35 143T72 222Q80 225 91 225Q113 225 149 218T195 204Q197 204 197 196L190 145Q227 120 255 120Q285 120 306 146T339 216T356 307T361 408Q361 511 346 579Q333 569 308 569Q281 569 271
583Q271 587 271 595T270 611Q270 657 290 691Q330 699 414 699Q540 699 569 674Q572 662 572 629Q572 579 560 565Q556 560 537 560Q510 560 500 565Q513 491 513 411Q513 295 488 201T412 48T292 -11Q230 -11 158 38Q150 10 145 10Q140 5 78 5Q19 5 16 13Q12
14 12 32Z" />
<glyph unicode="K" glyph-name="K" horiz-adv-x="746" d="M53 96Q53 133 60 140Q86 152 118 152Q106 252 106 353Q106 450 118 546Q71 551 60 558Q53 566 53 614Q53 661 60 671Q91 697 194 697Q267 697 283 689Q291 674 299 640T307 582Q307 567 303 560Q279 548
263 548Q258 548 248 550Q259 472 260 426Q265 425 276 425Q340 425 414 462T504 551Q500 550 493 550Q479 550 463 564Q451 583 451 616Q451 657 465 690Q491 700 542 700Q639 700 684 675Q696 660 696 626Q696 590 684 558Q672 543 646 543Q636 543 628 546Q618
499 587 465T495 390Q530 361 571 306T634 214T672 148Q697 148 705 140Q727 99 727 50Q727 30 721 13Q711 -4 588 -4Q507 -4 494 9Q472 38 472 92Q472 116 480 127Q487 140 513 140Q503 177 469 238T392 332Q371 317 332 304T257 291L248 148Q252 149 261 149Q281
149 303 138Q315 116 315 60Q315 25 308 12Q250 -4 183 -4Q85 -4 62 24Q53 42 53 96Z" />
<glyph unicode="L" glyph-name="L" horiz-adv-x="639" d="M45 612Q45 676 59 698Q92 707 174 707Q320 707 333 698Q348 672 348 611Q348 586 342 580Q320 572 290 572Q271 572 256 576Q253 519 253 446Q253 252 286 134Q288 125 352 125Q446 125 465 138L462 181Q518
212 569 212Q590 212 607 208Q630 141 630 99Q630 67 620 34Q579 20 479 9T282 -2Q127 -2 63 28Q51 52 51 100Q51 128 61 130Q73 136 94 136Q105 136 123 134Q109 319 109 428Q109 459 119 577Q104 574 88 574Q66 574 50 580Q45 586 45 612Z" />
<glyph unicode="M" glyph-name="M" horiz-adv-x="818" d="M50 84Q50 122 65 140Q90 152 113 152Q101 252 101 353Q101 450 113 546Q106 549 90 551T65 558Q57 570 57 615Q57 659 65 671Q88 699 179 699Q266 699 287 673Q304 632 304 589Q304 570 298 560Q277 550
263 549Q277 534 334 482T408 408Q425 429 481 482T552 550Q532 554 525 558Q517 570 517 615Q517 659 525 671Q547 700 621 700Q661 700 701 692T758 671Q770 656 770 620Q770 581 758 560Q734 548 718 548Q713 548 703 550Q715 469 715 374Q715 296 703 148Q707
149 716 149Q736 149 758 138Q763 125 763 95Q763 19 738 9Q727 0 647 0Q560 0 535 27Q519 44 519 84Q519 123 535 140Q558 152 583 152Q571 252 571 411Q538 367 486 323T408 279T330 322T245 410Q240 239 233 148Q237 149 246 149Q266 149 288 138Q305 115 305
76Q305 42 290 26Q266 -1 193 -1Q150 -1 110 8T65 27Q50 45 50 84Z" />
<glyph unicode="N" glyph-name="N" horiz-adv-x="761" d="M52 91Q52 133 67 140Q90 154 99 154Q105 154 115 152Q103 252 103 353Q103 450 115 546Q103 544 96 544Q81 544 67 558Q59 570 59 615Q59 659 67 671Q66 682 109 690T205 698Q252 698 270 689Q299 674
299 619Q299 585 290 560Q271 547 254 547Q246 547 235 550Q279 517 374 437T513 310Q513 458 525 546Q519 545 507 545Q491 545 477 558Q462 584 462 624Q462 660 477 671Q514 699 598 699Q658 699 680 689Q713 670 713 610Q713 577 700 560Q674 548 662 548Q655
548 645 550Q657 469 657 374Q657 296 645 148Q657 151 661 151Q687 151 700 138Q711 124 711 97Q711 72 702 46T680 9Q660 0 582 0Q500 0 477 26Q462 41 462 90Q462 130 477 140Q497 154 506 154Q512 154 522 152Q482 178 380 273T246 394Q244 252 235 148Q247
150 256 150Q276 150 290 138Q299 128 299 100T291 44T270 9Q252 0 205 0Q153 0 110 8T67 27Q52 42 52 91Z" />
<glyph unicode="O" glyph-name="O" horiz-adv-x="742" d="M38 266Q38 341 69 418T152 559T283 662T448 702Q575 702 638 622T702 419Q702 345 679 272T613 134T496 30T331 -10Q201 -10 120 65T38 266ZM187 282Q187 209 226 166T328 122Q394 122 450 171T535 287T564
416Q564 482 529 523T425 565Q355 565 299 520T215 410T187 282Z" />
<glyph unicode="P" glyph-name="P" horiz-adv-x="654" d="M38 626Q38 672 53 691Q113 712 171 712Q226 712 251 694Q256 675 256 659Q256 651 255 650Q274 656 313 669T372 689T417 700T464 706Q539 706 586 646T634 495Q634 388 568 303T388 218Q328 218 279
248Q281 238 281 199Q281 177 275 129Q279 130 301 130Q317 130 334 125T357 112Q372 102 372 66Q372 35 357 19Q351 -1 231 -1Q70 -1 64 19Q51 33 51 63Q51 94 64 112Q75 130 112 130Q122 130 126 129Q126 146 125 192T124 287Q124 464 134 520Q131 519 117 519Q86
519 64 524Q38 556 38 626ZM267 431Q267 389 288 366T343 343Q391 343 436 384T482 484Q482 524 460 551T399 579Q350 579 309 535T267 431Z" />
<glyph unicode="Q" glyph-name="Q" horiz-adv-x="764" d="M38 272Q38 347 69 423T152 562T283 663T448 702Q520 702 574 675T659 600T705 496T720 373Q720 198 614 83Q632 21 640 -10Q661 6 684 6Q696 6 704 2Q716 -6 724 -32T732 -83Q732 -99 730 -105Q705 -130
646 -149T539 -169Q512 -169 497 -162Q479 -154 466 -132T452 -88Q452 -80 453 -77Q457 -63 475 -54T509 -45Q503 -34 494 -14T481 12Q450 -10 357 -10Q198 -10 118 70T38 272ZM195 292Q195 222 237 172T349 122Q440 122 517 203T594 388Q594 462 550 513T434 565Q368
565 312 521T225 415T195 292Z" />
<glyph unicode="R" glyph-name="R" horiz-adv-x="719" d="M39 614Q39 684 62 700Q89 708 134 708Q190 708 235 694Q240 675 240 659Q240 651 239 650Q256 655 286 665T330 679T364 689T397 698T423 703T449 705Q493 705 527 681T581 619T610 545T620 477Q620 410
579 360T479 278Q548 230 609 180T673 114Q681 118 691 118Q702 118 717 112Q732 98 732 64T719 17Q686 0 580 0Q529 0 480 17Q470 21 463 37T456 74Q456 99 467 110Q474 116 484 116Q491 116 503 112Q492 138 470 158T424 190T373 210T325 222T288 226L273 228Q278
203 278 176Q278 150 273 127Q280 130 292 130Q324 130 341 112Q345 103 345 65Q345 28 341 19Q335 -1 165 -1Q104 -1 83 3T58 19Q54 28 54 65Q54 103 58 112Q63 120 80 125T114 130Q126 130 130 129Q130 146 129 192T128 287Q128 464 138 520Q126 515 107 515Q78
515 67 526Q39 532 39 614ZM260 434Q260 392 281 369T336 346Q384 346 429 387T475 487Q475 527 453 554T392 582Q343 582 302 538T260 434Z" />
<glyph unicode="S" glyph-name="S" horiz-adv-x="628" d="M41 101Q41 150 60 185Q104 199 117 199Q141 199 190 185Q195 172 197 147Q245 115 305 115Q360 115 401 147T443 220Q443 277 333 281Q291 283 260 286T187 301T117 332T71 385T51 467Q51 567 124 638T299
710Q370 710 435 674Q441 704 456 716Q475 726 504 726Q550 726 568 708Q574 690 574 618Q574 570 566 550T533 525Q516 520 500 520Q464 520 441 535Q435 550 435 568Q401 585 336 585Q266 585 229 563T192 487Q192 448 214 431T287 411Q429 404 480 388Q589 355
589 244Q589 139 511 65T311 -10Q242 -10 191 27Q191 2 181 -10Q163 -20 122 -20Q78 -20 62 -5Q41 35 41 101Z" />
<glyph unicode="T" glyph-name="T" horiz-adv-x="725" d="M11 577Q11 646 25 688Q44 689 106 692T230 698T358 700T487 698T616 693T700 688Q714 646 714 577Q714 541 707 514Q657 504 636 504Q592 504 562 521L545 573Q532 581 432 584Q438 456 438 318Q438 210
427 152Q432 152 450 149Q476 145 485 140Q491 132 491 79Q491 40 484 28Q468 0 363 0Q257 0 241 28Q234 40 234 80Q234 132 240 140Q249 145 275 149Q293 152 298 152Q287 210 287 318Q287 456 293 584Q193 581 180 573L163 521Q133 504 89 504Q68 504 18 514Q11
541 11 577Z" />
<glyph unicode="U" glyph-name="U" horiz-adv-x="771" d="M7 611Q7 647 28 679Q88 702 151 702Q212 702 275 681Q299 652 299 614Q299 581 280 556Q270 550 259 550Q248 550 235 555Q227 521 227 470Q227 326 279 239T400 151Q467 151 507 241T547 485Q547 536
541 565Q531 553 509 553Q492 553 488 563Q471 588 471 620T488 678Q548 702 626 702Q708 702 744 671Q762 642 762 621Q762 603 746 576Q730 562 704 562Q693 562 684 565Q694 511 694 447Q694 241 609 120T408 -1Q348 -1 290 34T186 131T111 288T82 495Q82 508
82 523T83 546Q77 541 62 541Q35 541 27 549Q7 576 7 611Z" />
<glyph unicode="V" glyph-name="V" horiz-adv-x="771" d="M4 627Q4 664 19 688Q32 700 175 700Q278 700 278 689Q300 675 300 609Q300 590 297 581Q297 575 290 570T271 565Q242 565 242 569Q238 569 238 559Q238 517 288 365T386 124Q434 204 484 358T535 559Q535
569 531 569Q531 565 502 565Q491 565 484 570T476 581Q473 590 473 609Q473 675 495 689Q495 700 618 700T754 688Q766 672 766 632Q766 581 749 564Q740 560 726 560Q697 560 693 566Q691 513 602 264T490 5Q444 -4 391 -4Q336 -4 283 5Q262 14 173 266T84 563Q84
567 85 568Q62 559 48 559Q37 559 24 564Q4 578 4 627Z" />
<glyph unicode="W" glyph-name="W" horiz-adv-x="913" d="M15 615Q15 659 23 671Q54 696 150 696Q197 696 246 689Q254 674 262 640T270 582Q270 567 266 560Q251 549 222 549Q214 549 211 550Q227 521 254 419T283 268Q297 281 332 337T402 440T456 486T510 441T580
338T629 267Q635 318 659 406T701 546Q689 550 684 553T673 561T660 570Q646 581 646 640Q646 679 653 687Q670 699 735 699Q826 699 876 689Q887 681 893 649T900 587Q900 567 896 560Q870 548 848 548Q841 548 831 550Q819 345 721 148Q727 146 732 145T740 144T747
143T756 138Q760 130 760 114Q760 90 752 57T736 9Q716 0 664 0Q611 0 573 7T533 27Q526 39 526 90Q526 133 533 140Q535 141 544 142T564 145T580 148Q576 152 455 300Q332 151 331 149Q370 145 386 138Q390 130 390 114Q390 90 382 57T366 9Q346 -1 278 -1Q164
-1 163 27Q155 45 155 94Q155 132 163 140Q175 152 191 152Q91 366 81 546Q34 551 23 558Q15 570 15 615Z" />
<glyph unicode="X" glyph-name="X" horiz-adv-x="750" d="M26 51Q26 92 55 134Q79 134 101 132Q101 167 164 246T271 353Q225 383 164 456T101 568Q88 564 54 564Q28 590 28 646Q28 667 32 683Q85 703 156 703Q194 703 217 694Q236 688 247 666T259 619Q259 599
250 587Q241 582 232 582Q226 582 214 584Q232 577 284 522T373 415Q404 451 459 507T544 584Q538 582 526 582Q509 582 506 588Q498 610 498 628Q498 667 530 693Q575 703 614 703Q672 703 718 682Q725 663 725 641Q725 600 704 577Q668 577 658 580Q657 543 592
464T481 353Q524 326 587 246T650 133L659 134H678H691Q704 125 715 97T726 45Q726 25 717 19Q657 -4 593 -4Q542 -4 501 12Q485 49 485 81Q485 103 492 118Q510 127 537 127Q475 166 373 293Q343 256 289 199T211 128Q216 129 227 129Q243 129 250 123Q253 106
253 92Q253 53 217 7Q192 -4 151 -4Q85 -4 32 18Q26 34 26 51Z" />
<glyph unicode="Y" glyph-name="Y" horiz-adv-x="682" d="M4 605Q21 630 79 660T215 702Q254 641 254 620Q254 615 229 603Q211 594 198 594Q204 575 255 514T346 412Q371 427 424 499T484 594Q472 594 453 603Q429 614 428 619Q429 627 446 663T467 702Q583 702
678 605Q666 538 650 519Q631 523 608 534Q604 528 588 502T559 460T527 420T480 373T424 331Q419 308 417 222T412 121Q437 121 463 107Q467 103 467 86Q467 67 462 41T454 8Q447 -1 336 -1Q300 -1 284 -1T249 1T220 5T207 15Q203 25 203 65Q203 101 211 109Q236
121 269 121Q269 132 268 181T264 270T259 331Q199 370 140 441T74 534Q51 523 32 519Q12 558 4 605Z" />
<glyph unicode="Z" glyph-name="Z" horiz-adv-x="747" d="M23 3Q23 72 61 138T161 258T287 359T414 458T506 551Q504 550 471 549T393 546T320 544Q241 544 231 539Q221 503 218 498Q175 490 144 490Q111 490 79 499Q61 535 61 616Q61 672 79 697Q101 702 163
702Q241 702 252 692Q254 684 254 681Q254 680 252 672Q354 676 418 676Q488 676 527 673Q530 691 536 694Q540 704 631 704Q695 704 700 700Q697 611 649 528T536 387T405 280T295 196T250 140Q284 131 337 131Q469 131 530 154Q530 194 543 203Q566 212 622 212Q670
212 685 203Q696 197 703 161T710 80Q710 -16 684 -19Q657 -24 604 -24Q529 -24 518 -13Q513 -12 509 29Q418 -1 314 -1Q280 -1 196 5Q195 -11 188 -13Q184 -24 95 -24Q32 -24 24 -20Q23 -12 23 3Z" />
<glyph unicode="[" glyph-name="bracketleft" horiz-adv-x="383" d="M55 257Q55 452 97 650Q188 666 252 666T368 650Q375 638 375 630Q375 620 368 612Q314 599 268 599Q184 599 142 612Q163 450 163 258Q163 60 142 -106Q184 -93 268 -93Q312 -93 364 -106Q377
-119 377 -132Q377 -136 375 -144Q324 -160 259 -160Q195 -160 97 -144Q55 63 55 257Z" />
<glyph unicode="\" glyph-name="backslash" horiz-adv-x="533" d="M21 702Q21 706 26 712T41 719Q337 415 513 -90Q513 -104 493 -107Q167 237 21 702Z" />
<glyph unicode="]" glyph-name="bracketright" horiz-adv-x="383" d="M6 -132Q6 -119 19 -106Q71 -93 115 -93Q199 -93 241 -106Q220 60 220 258Q220 450 241 612Q199 599 115 599Q69 599 15 612Q8 620 8 630Q8 638 15 650Q67 666 131 666T286 650Q328 452 328
257Q328 63 286 -144Q188 -160 124 -160Q59 -160 8 -144Q6 -136 6 -132Z" />
<glyph unicode="^" glyph-name="asciicircum" horiz-adv-x="833" d="M172 503Q175 508 185 526T199 551T213 573T230 597T248 620T271 644Q289 658 310 658Q330 658 355 644Q410 592 454 503Q445 499 437 499T418 503Q394 516 362 547T313 604Q246 520 208 503Q196
499 192 499Q184 499 172 503Z" />
<glyph unicode="_" glyph-name="underscore" horiz-adv-x="730" d="M104 -172Q104 -162 112 -152Q206 -141 446 -141Q503 -141 545 -143T618 -148T658 -152Q666 -160 666 -172T658 -199Q654 -205 557 -208T392 -212Q304 -212 112 -199Q104 -184 104 -172Z" />
<glyph unicode="`" glyph-name="grave" horiz-adv-x="833" d="M233 721Q256 746 298 746Q306 746 311 745Q356 696 397 594Q394 591 382 591Q373 591 367 594Q274 651 233 721Z" />
<glyph unicode="a" glyph-name="a" horiz-adv-x="623" d="M35 207Q35 279 56 346T125 463T237 512Q266 512 288 502T323 478T344 449T355 424T359 414Q359 468 358 485Q378 502 399 507T459 513Q489 513 512 511T548 506T567 500T577 496L579 495Q583 486 583
439Q583 391 579 382Q576 375 547 370T497 364Q487 364 475 366Q478 360 478 315Q478 184 469 170Q476 173 486 173Q530 173 572 164Q580 158 580 79Q580 35 577 23Q570 12 533 2T449 -8Q364 -8 344 -4Q337 15 337 28Q337 36 340 40Q328 36 272 10T191 -16Q114
-16 75 49T35 207ZM160 233Q160 177 194 139T267 100Q288 100 315 111T344 131Q347 177 349 215T353 274T355 301V313Q355 334 328 354T266 375Q216 375 188 330T160 233Z" />
<glyph unicode="b" glyph-name="b" horiz-adv-x="605" d="M15 683Q15 728 19 739L20 740Q22 742 28 745T43 751T73 756T118 758Q236 758 271 728Q276 718 276 619Q276 577 275 540T273 500Q315 512 351 512Q452 512 511 434T571 254Q571 196 552 137T490 35T395
-8Q362 -8 314 17T249 48Q250 47 250 39Q250 23 245 4Q225 0 130 0Q41 0 22 31Q19 43 19 87Q19 166 27 172Q43 182 100 182Q129 182 136 178Q135 216 135 290Q135 336 135 388T137 505T138 609Q134 608 122 608Q50 608 19 626Q15 637 15 683ZM263 163Q263 154 292
141T345 127Q384 127 415 165T446 264Q446 314 425 360T356 410Q320 410 295 393T268 356Q267 343 267 319T265 250T263 163Z" />
<glyph unicode="c" glyph-name="c" horiz-adv-x="610" d="M32 237Q32 286 53 333T114 421T216 486T357 511Q381 511 394 510L402 535Q432 541 460 541Q515 541 567 508Q573 460 573 435Q573 361 544 349Q516 338 490 338Q442 338 372 357L378 396Q358 398 346
398Q273 398 220 358T166 241Q166 177 203 146T293 115Q324 115 374 128L371 164Q421 197 493 197Q513 197 540 192Q577 146 577 86Q577 61 570 7Q528 -27 454 -27Q434 -27 408 -25L397 -9Q368 -12 341 -12Q205 -12 119 61T32 237Z" />
<glyph unicode="d" glyph-name="d" horiz-adv-x="606" d="M34 254Q34 355 93 433T254 512Q290 512 332 500Q332 502 331 539T329 619Q329 718 334 728Q369 758 487 758Q512 758 532 756T561 751T577 745T584 740L586 739Q590 730 590 683Q590 635 586 626Q553
608 483 608Q471 608 467 609Q467 558 469 455T472 303Q472 240 469 178Q476 182 505 182Q562 182 578 172Q586 166 586 87Q586 43 583 31Q559 0 465 0Q408 0 360 4Q355 23 355 39Q355 47 356 48Q340 43 292 18T210 -8Q157 -8 115 35T54 137T34 254ZM159 265Q159
203 190 165T260 127Q284 127 313 140T342 163Q341 205 340 250T339 319T337 356Q337 375 310 392T251 410Q217 410 195 384T166 327T159 265Z" />
<glyph unicode="e" glyph-name="e" horiz-adv-x="559" d="M32 209Q32 322 113 416T296 510Q358 510 402 472T446 373Q446 302 388 252T233 201Q178 201 156 218Q157 170 190 142T266 113Q322 113 357 157Q357 165 360 174Q404 210 455 210Q465 210 470 209Q536
173 551 91Q550 83 544 74T530 59T510 44T490 31T468 19T451 10Q445 10 441 11T434 16T429 21T425 29T421 37Q347 -12 262 -12Q167 -12 100 49T32 209ZM188 326Q188 293 236 293Q272 293 305 310T338 352Q338 369 327 387T290 406Q259 406 224 381T188 326Z" />
<glyph unicode="f" glyph-name="f" horiz-adv-x="385" d="M40 389Q40 465 53 482Q68 490 112 495Q112 533 111 584T109 649Q109 719 134 738T252 757Q321 757 352 751T415 731Q428 714 428 668Q428 629 418 600L326 621L332 642Q326 643 314 643Q234 643 234 564Q234
558 234 530T235 498Q249 498 271 498T302 499Q331 499 354 495Q358 491 358 470Q358 394 345 377Q327 366 242 363L249 174Q263 182 286 182Q308 182 312 176Q325 160 325 102Q325 63 319 15Q283 -3 163 -3Q74 -3 55 13Q45 27 45 78Q45 150 74 167Q89 176 103
176Q106 176 116 174Q116 184 115 252T113 361Q112 361 109 361T98 360H86Q72 360 44 364Q40 368 40 389Z" />
<glyph unicode="g" glyph-name="g" horiz-adv-x="586" d="M31 196Q31 270 68 341T176 461T334 510Q363 510 391 503Q410 533 422 547T446 561Q468 561 515 527T563 465Q562 454 487 403Q528 342 528 262Q528 161 468 81T320 1Q307 1 301 2Q300 0 300 -3Q300 -18
326 -29T385 -46T444 -71T471 -118Q471 -151 437 -178T355 -219T260 -242T182 -250Q135 -250 126 -164Q328 -155 328 -121Q328 -110 297 -103T229 -90T161 -65T130 -10Q130 4 134 17Q82 43 57 90T31 196ZM156 205Q156 160 183 129T254 98Q312 98 361 148T411 265Q411
314 384 345T308 377Q243 377 200 322T156 205Z" />
<glyph unicode="h" glyph-name="h" horiz-adv-x="717" d="M2 639Q2 715 15 732Q44 750 142 750Q171 750 208 747T247 742Q257 725 257 514Q257 448 254 440Q347 510 447 510Q531 510 583 455T636 282Q636 186 630 163Q632 165 640 165Q666 165 686 160Q695 150
695 105Q695 36 685 20Q610 0 548 0Q489 0 438 18Q431 23 423 53T415 105Q415 124 433 148Q444 155 462 155Q476 155 489 150Q489 153 489 203T490 260Q490 321 456 364T368 408Q269 408 269 241Q269 222 272 144Q284 151 303 151Q321 151 325 146Q335 146 335
106Q335 96 334 90L330 69Q328 54 325 34Q248 0 125 0Q40 0 19 28Q10 40 10 63Q10 148 92 148Q114 148 131 144Q126 374 126 545Q126 605 128 611Q124 611 116 611T101 610Q34 610 6 614Q2 618 2 639Z" />
<glyph unicode="i" glyph-name="i" horiz-adv-x="358" d="M28 83Q28 134 34 141Q46 148 64 150Q76 152 116 152Q110 215 110 289Q110 370 120 392Q71 392 55 396Q56 423 62 453Q64 466 74 504Q111 511 198 511Q233 511 262 507T307 498T323 487Q325 487 325 451Q325
394 315 379Q311 373 291 373Q254 373 244 378Q233 308 233 196Q233 150 236 148Q242 149 253 149Q289 149 311 138Q314 134 314 120Q314 95 307 60T287 12Q275 0 209 0Q52 0 35 29Q28 42 28 83ZM108 706Q108 734 138 734Q163 734 192 719Q213 740 248 740Q270
740 287 725T304 684Q304 671 299 659T287 639T267 621T246 606T219 591T195 577Q156 606 132 642T108 706Z" />
<glyph unicode="j" glyph-name="j" horiz-adv-x="481" d="M-60 -168Q-60 -127 -37 -57T0 22Q8 25 19 25Q39 25 66 18T103 4Q105 4 105 -11Q105 -12 99 -49Q155 -88 191 -88Q232 -88 251 -34T270 108Q270 156 265 208T253 311T244 372Q236 365 219 365Q198 365
169 376Q162 386 162 408Q162 435 170 468T188 504Q230 512 282 512Q419 512 447 487Q453 475 453 449Q453 426 449 396T439 357Q430 351 413 351Q392 351 378 358Q379 327 387 225T395 65Q395 -220 243 -220Q169 -220 68 -159Q59 -190 54 -190Q53 -190 53 -190Q48
-195 5 -195Q-53 -195 -56 -187Q-60 -186 -60 -168ZM237 706Q237 734 267 734Q292 734 321 719Q342 740 377 740Q399 740 416 725T433 684Q433 671 428 659T416 639T396 621T375 606T348 591T324 577Q285 606 261 642T237 706Z" />
<glyph unicode="k" glyph-name="k" horiz-adv-x="617" d="M8 666Q8 716 33 732Q84 746 153 746Q217 746 255 732Q268 719 268 676Q268 629 255 614Q231 610 216 610Q217 562 226 404Q237 412 258 427T294 452T323 476T346 500T354 521Q354 530 344 539Q337 532
319 532Q312 537 306 552T300 580Q300 592 306 595Q366 615 418 615Q475 615 528 593Q533 581 533 565Q533 523 509 516Q506 515 496 515Q471 515 463 523Q462 517 445 495T393 440T319 375Q415 335 481 256T548 144Q556 148 567 148Q576 148 592 142Q609 134 609
84Q609 40 594 17Q555 -1 501 -1Q456 -1 380 15Q368 33 368 72Q368 120 382 140Q390 145 401 145Q409 145 418 142Q400 237 226 301Q225 287 224 256T222 198T216 152Q231 161 264 161Q281 161 285 156Q292 152 297 126T302 69Q302 23 292 14Q239 0 143 0Q68 0
41 12Q24 38 24 96Q24 138 39 146Q53 156 83 156Q91 156 97 154Q96 232 95 309T92 429T91 500T93 611Q75 603 58 603Q38 603 24 614Q8 636 8 666Z" />
<glyph unicode="l" glyph-name="l" horiz-adv-x="318" d="M31 90Q31 133 38 140Q64 152 96 152Q85 218 85 354Q85 514 95 632Q66 632 50 636Q48 656 48 668Q48 712 69 744Q112 754 150 754Q198 754 225 744Q235 650 235 545Q235 471 229 334T221 148Q226 149 237
149Q267 149 286 138Q290 130 290 114Q290 90 282 57T266 9Q253 -1 167 -1Q120 -1 83 7T38 27T31 90Z" />
<glyph unicode="m" glyph-name="m" horiz-adv-x="1064" d="M33 70Q33 132 60 147Q85 156 128 156Q134 156 144 154Q144 183 142 247T140 345Q136 345 107 343T73 340Q69 340 61 342T49 344Q45 348 45 365Q45 392 53 432T68 482Q98 500 182 500Q236 500 254 493T272
462Q272 432 267 402Q360 510 465 510Q515 510 556 485T620 411V416Q710 510 809 510Q982 510 982 268Q982 221 976 173Q976 175 985 175Q1000 175 1032 170Q1041 160 1041 105Q1041 36 1031 20Q956 0 901 0Q862 0 811 18Q804 23 796 53T788 106Q788 139 806 163Q817
170 835 170Q849 170 862 165Q862 168 862 191T863 221Q863 286 827 332T745 378Q718 378 688 362T642 318Q643 311 642 295Q642 223 636 174H638Q639 175 640 175Q672 175 702 170Q711 160 711 105Q711 36 701 20Q626 0 561 0Q512 0 461 18Q454 23 446 53T438
106Q438 139 456 163Q467 170 485 170Q509 170 522 165Q522 168 522 191T523 220Q523 283 489 330T402 378Q357 378 320 342T282 227Q282 199 285 154Q297 161 316 161Q334 161 338 156Q348 156 348 116Q348 107 338 34Q266 -1 152 -1Q66 -1 42 28Q33 40 33 70Z"
/>
<glyph unicode="n" glyph-name="n" horiz-adv-x="724" d="M33 70Q33 132 60 147Q85 156 128 156Q134 156 144 154Q144 183 142 247T140 345Q136 345 107 343T73 340Q69 340 61 342T49 344Q45 348 45 365Q45 392 53 432T68 482Q97 500 174 500Q235 500 253 494T272
462Q272 432 267 402Q361 510 470 510Q642 510 642 268Q642 219 636 173Q636 175 645 175Q660 175 692 170Q701 160 701 105Q701 36 691 20Q616 0 561 0Q522 0 471 18Q464 23 456 53T448 106Q448 139 466 163Q477 170 495 170Q509 170 522 165Q522 168 522 191T523
220Q523 283 489 330T402 378Q357 378 320 342T282 227Q282 199 285 154Q297 161 316 161Q334 161 338 156Q348 156 348 116Q348 107 338 34Q266 -1 155 -1Q64 -1 42 27Q33 38 33 70Z" />
<glyph unicode="o" glyph-name="o" horiz-adv-x="532" d="M35 213Q35 337 109 423T301 510Q355 510 394 491T455 437T486 362T496 272Q496 134 426 62T242 -10Q182 -10 139 10T75 65T44 136T35 213ZM178 221Q178 171 209 135T283 99Q320 99 347 129T384 194T394
259Q394 304 367 337T299 371Q249 371 214 324T178 221Z" />
<glyph unicode="p" glyph-name="p" horiz-adv-x="605" d="M14 -180Q14 -133 18 -124Q48 -106 121 -106Q133 -106 137 -107Q137 -56 135 48T133 205Q133 284 135 324Q128 320 99 320Q42 320 26 330Q18 336 18 415Q18 459 21 471Q40 502 129 502Q224 502 244 498Q249
479 249 463Q249 455 248 454Q263 459 312 484T387 510Q445 510 488 467T551 365T570 249Q570 147 511 69T350 -10Q314 -10 272 2Q272 0 273 -37T275 -117Q275 -210 270 -220Q235 -250 117 -250Q92 -250 72 -248T43 -243T27 -237T20 -232L18 -231Q14 -222 14 -180ZM262
339Q263 297 264 252T265 183T267 146Q267 128 293 110T351 92Q385 92 407 117T437 173T445 236Q445 300 414 337T344 375Q320 375 291 362T262 339Z" />
<glyph unicode="q" glyph-name="q" horiz-adv-x="605" d="M34 248Q34 306 53 365T115 467T210 510Q243 510 291 485T356 454Q355 455 355 463Q355 479 360 498Q380 502 475 502Q564 502 583 471Q586 459 586 415Q586 336 578 330Q562 320 505 320Q476 320 469
324Q470 309 470 236Q470 37 467 -107Q471 -106 483 -106Q555 -106 586 -124Q590 -133 590 -180Q590 -222 586 -231L584 -232Q583 -234 577 -237T562 -243T532 -248T487 -250Q369 -250 334 -220Q329 -210 329 -117Q329 -75 330 -38T332 2Q290 -10 254 -10Q153 -10
94 68T34 248ZM159 236Q159 204 166 174T196 118T253 92Q285 92 311 110T337 146Q338 159 338 183T340 252T342 339Q342 348 313 361T260 375Q222 375 191 338T159 236Z" />
<glyph unicode="r" glyph-name="r" horiz-adv-x="516" d="M40 437Q40 478 46 495Q103 512 157 512Q222 512 257 485Q256 468 256 434L260 442Q263 450 271 461T292 484T326 504T375 512Q451 512 504 447Q497 403 469 380T413 355Q376 381 342 381Q243 381 243
255Q243 212 254 161Q256 166 282 166Q312 166 319 159Q331 140 331 97Q331 32 308 12Q257 1 185 1Q67 1 48 23Q45 35 45 84Q45 154 51 159Q58 168 90 168Q113 168 124 161Q115 184 115 316Q115 360 118 366Q106 364 96 364Q60 364 46 382Q40 397 40 437Z" />
<glyph unicode="s" glyph-name="s" horiz-adv-x="556" d="M29 30Q35 134 100 173Q107 174 121 174Q174 174 202 139Q202 138 202 136T203 132Q203 129 201 121Q210 106 233 97T284 87Q322 87 344 105T367 148Q367 197 286 201Q255 202 236 204T185 211T131 226T89
251T56 291T45 349Q45 427 106 467T259 507Q339 507 395 489Q401 499 411 509T428 521Q502 514 526 471Q520 367 455 328Q448 327 434 327Q381 327 353 362Q353 363 353 365T352 369Q352 372 354 380Q343 393 315 402T256 411Q179 411 179 360Q179 300 288 296Q319
295 337 294T385 288T435 274T473 249T502 210T512 152Q512 -6 280 -6Q202 -6 150 12Q134 -18 127 -20Q53 -13 29 30Z" />
<glyph unicode="t" glyph-name="t" horiz-adv-x="420" d="M12 475Q12 497 18 503Q36 506 65 506H87V694Q139 698 154 698T215 694L225 504Q335 499 351 490Q366 464 366 410Q366 388 360 382Q329 378 289 378Q276 378 250 378T211 379Q211 346 211 296T210 225Q210
147 220 130T278 112Q296 112 308 114L302 135L394 156Q404 127 404 88Q404 23 391 6Q293 -8 228 -8Q143 -8 116 16Q104 27 97 45T88 96T84 163T81 261T76 382Q44 385 27 395Q12 421 12 475Z" />
<glyph unicode="u" glyph-name="u" horiz-adv-x="725" d="M23 395Q23 464 33 480Q108 500 163 500Q202 500 253 482Q260 477 268 447T276 394Q276 361 258 337Q247 330 229 330Q215 330 202 335Q202 332 202 309T201 280Q201 217 235 170T322 122Q367 122 404
158T442 273Q442 301 439 346Q427 339 408 339Q390 339 386 344Q376 344 376 384Q376 393 386 466Q458 501 572 501Q658 501 682 472Q691 460 691 430Q691 368 664 353Q628 344 604 344Q590 344 580 346Q580 317 582 253T584 155Q588 155 617 157T651 160Q655 160
663 158T675 156Q679 152 679 135Q679 108 671 68T656 18Q626 0 542 0Q488 0 470 7T452 38Q452 68 457 98Q363 -10 254 -10Q82 -10 82 232Q82 280 88 326Q87 325 79 325Q64 325 32 330Q23 340 23 395Z" />
<glyph unicode="v" glyph-name="v" horiz-adv-x="601" d="M8 427Q89 492 209 502Q218 488 233 460T248 422Q246 414 224 405T192 396Q201 358 238 272T300 144Q362 236 408 396Q394 397 375 404T352 421Q353 427 370 463T391 502Q518 502 592 427Q582 363 564
321Q545 325 522 336Q518 308 506 276T483 224T450 167T420 118Q448 109 468 83Q467 63 453 38T421 8Q384 0 281 0Q199 0 179 8Q160 17 146 38T132 83Q138 90 156 104T180 118Q82 262 78 336Q55 325 36 321Q18 368 8 427Z" />
<glyph unicode="w" glyph-name="w" horiz-adv-x="907" d="M10 404Q46 444 92 466T221 501Q241 489 250 459T260 399Q258 391 236 382T204 373Q206 359 215 339T232 304T258 257T282 214Q302 229 325 266T364 334T398 409T420 459Q442 476 468 476Q493 476 518
459Q522 446 533 409T552 349T571 295T596 242T625 204Q647 239 672 292T703 373Q692 374 670 383T647 399L648 410Q648 422 648 428T651 447T657 468T668 486T686 501Q767 488 811 467T897 404Q887 340 869 298Q850 302 827 313Q826 298 807 261T756 170L725 118Q753
109 773 83Q773 47 724 8Q692 0 628 0Q612 0 590 22T540 89T496 161T453 237Q325 0 279 0Q202 0 182 8Q163 18 149 43T134 83Q140 90 158 104T182 118Q82 280 80 313Q57 302 38 298Q20 345 10 404Z" />
<glyph unicode="x" glyph-name="x" horiz-adv-x="680" d="M20 17Q20 65 49 103Q54 104 67 104Q84 104 93 101Q160 205 222 252Q179 280 141 319T85 398Q72 395 49 395Q23 428 21 482Q70 501 135 501T245 493Q255 492 269 459T284 408Q269 399 252 399T225 401Q228
398 250 374T292 334T339 304Q410 348 454 401Q447 399 423 399Q400 399 395 408Q395 421 409 452T433 493Q475 502 541 502Q608 502 657 482Q657 422 630 395Q623 390 618 390T594 398Q518 292 459 252Q557 168 584 104Q592 108 603 108Q612 108 630 103Q658 82
658 22V17Q608 -4 545 -4Q485 -4 433 5Q418 13 407 41T395 90Q405 101 425 101Q436 101 444 98Q428 127 400 154T339 193Q326 188 314 180T293 166T275 148T260 131T246 113T235 98Q238 98 251 99T269 100Q287 100 294 92Q293 78 279 42T255 5Q201 -4 131 -4Q68
-4 20 17Z" />
<glyph unicode="y" glyph-name="y" horiz-adv-x="714" d="M2 -199Q2 -155 13 -104T41 -34Q54 -28 70 -28Q109 -28 144 -52Q148 -55 148 -65Q148 -71 145 -83Q183 -111 216 -120T303 -129Q342 -129 369 -125T425 -108T469 -66T484 7Q484 44 477 70Q392 -1 299 -1Q201
-1 141 77T81 277Q81 310 87 336Q81 333 73 333T49 336T31 340Q18 367 18 410Q18 456 32 480Q110 499 160 499Q221 499 269 482Q293 452 293 409Q293 372 274 347Q264 341 253 341Q244 341 229 346Q217 310 217 271Q217 138 323 138Q385 138 429 182T473 293Q473
317 465 346Q451 338 429 338Q416 338 412 344Q395 355 395 404Q395 455 412 466Q434 501 530 501Q576 501 623 493T688 477Q692 451 692 427Q692 383 680 367Q671 358 658 358Q651 358 645 359T630 364T619 368Q625 200 625 176Q625 72 613 -3T577 -125T517 -201T436
-239T333 -250Q218 -250 125 -203Q116 -236 114 -236Q97 -250 64 -250Q44 -250 26 -245T5 -233Q2 -220 2 -199Z" />
<glyph unicode="z" glyph-name="z" horiz-adv-x="625" d="M19 29Q19 69 97 143T254 275T393 368Q367 395 321 395Q266 395 182 354Q185 345 185 330Q185 320 182 316Q155 308 127 308Q88 308 65 323Q48 329 48 395Q48 420 50 443T57 482T65 496Q74 499 114 499Q187
499 191 491Q197 490 198 469Q281 500 367 500Q434 500 491 483T582 440Q565 398 526 353T439 269T351 202T272 149T232 123Q254 112 294 112Q340 112 384 126T449 165Q448 169 448 176Q448 190 459 210Q478 218 515 218Q550 218 568 210Q579 202 583 191T587 148Q587
101 581 54T566 3Q546 -1 505 -1Q446 -1 440 8Q435 9 433 40Q407 20 334 10T195 0Q71 0 19 29Z" />
<glyph unicode="{" glyph-name="braceleft" horiz-adv-x="435" d="M-6 257Q-6 289 17 307Q162 307 162 384Q162 404 146 469T129 562Q129 614 168 641T266 668Q346 668 404 630Q420 617 420 599Q420 585 404 562Q340 591 291 591Q255 591 235 576T214 537Q214
521 231 463T248 382Q248 353 227 329T179 291T132 268T110 252T131 236T179 212T226 176T248 124Q248 102 231 44T214 -29Q214 -54 238 -66T299 -78Q348 -78 399 -56Q422 -67 422 -87Q422 -98 410 -124Q350 -162 267 -162Q208 -162 169 -136T129 -57Q129 -30 145
35T162 123Q162 161 133 175T28 200Q-6 215 -6 257Z" />
<glyph unicode="|" glyph-name="bar" horiz-adv-x="189" d="M59 303Q59 523 80 709Q88 720 110 722Q130 528 130 312Q130 97 110 -173Q106 -184 80 -186Q59 79 59 303Z" />
<glyph unicode="}" glyph-name="braceright" horiz-adv-x="435" d="M13 -87Q13 -67 36 -56Q87 -78 136 -78Q172 -78 196 -66T221 -29Q221 -15 204 43T187 124Q187 152 208 175T256 212T303 236T325 252T304 267T256 291T209 328T187 382Q187 404 204 462T221 537Q221
560 201 575T144 591Q95 591 31 562Q15 585 15 599Q15 617 31 630Q89 668 169 668Q228 668 267 641T306 562Q306 535 290 470T273 384Q273 307 418 307Q441 289 441 257Q441 215 407 200Q331 189 302 175T273 123Q273 101 289 36T306 -57Q306 -109 267 -135T168
-162Q85 -162 25 -124Q13 -98 13 -87Z" />
<glyph unicode="~" glyph-name="asciitilde" horiz-adv-x="595" d="M38 204Q44 259 64 278T126 298Q172 298 295 274T445 250Q467 250 478 262T499 312Q507 316 512 316Q534 316 557 279Q551 225 531 205T470 185Q427 185 303 209T147 233Q128 233 117 222T96
172Q88 167 79 167Q56 167 38 204Z" />
<glyph unicode="&#xa1;" glyph-name="exclamdown" horiz-adv-x="238" d="M43 -26Q43 55 60 135T105 269Q112 270 122 270Q134 270 143 266Q195 144 195 3Q195 -112 158 -226Q139 -235 119 -235Q105 -235 81 -226Q43 -151 43 -26ZM88 402Q88 432 94 464Q109 469
124 469Q137 469 154 464Q163 434 163 404Q163 375 154 345Q138 341 127 341Q115 341 94 345Q88 374 88 402Z" />
<glyph unicode="&#xa2;" glyph-name="cent" horiz-adv-x="625" d="M28 237Q28 322 89 398T258 500L272 629Q280 640 302 642Q304 623 308 577T315 509Q339 511 353 511Q377 511 390 510L398 535Q428 541 456 541Q511 541 563 508Q569 460 569 435Q569 361 540
349Q512 338 486 338Q438 338 368 357L374 396Q354 398 343 398Q338 398 331 398T321 397Q321 385 321 358T322 305Q322 214 317 117Q344 120 370 128L367 164Q417 197 489 197Q509 197 536 192Q573 146 573 86Q573 61 566 7Q524 -27 450 -27Q430 -27 404 -25L393
-9Q364 -12 340 -12Q332 -12 323 -12T308 -11L302 -93Q298 -104 272 -106L264 -5Q157 13 93 81T28 237ZM162 240Q162 139 256 119Q251 196 251 304V379Q162 339 162 240Z" />
<glyph unicode="&#xa3;" glyph-name="sterling" horiz-adv-x="661" d="M38 367Q38 407 51 426Q100 431 121 433Q141 583 208 670T398 757Q462 757 541 733Q562 712 562 681Q562 652 549 633Q469 649 440 649Q357 649 318 598T257 435Q356 433 387 426Q402 408
402 367Q402 360 401 357T395 350T387 339Q351 332 245 328Q245 182 239 144Q439 106 517 106Q536 106 542 115T557 158Q562 161 567 161Q588 161 609 126T635 55Q609 -12 524 -12Q480 -12 378 13T234 39Q218 39 211 38Q194 8 184 -2Q168 -8 154 -8Q130 -8 103
6T66 40Q96 114 104 171T112 332Q68 336 51 339Q49 342 48 344T45 348T43 351T40 354V358Q39 359 39 361T38 367Z" />
<glyph unicode="&#xa4;" glyph-name="currency" horiz-adv-x="703" d="M35 55Q55 95 90 130Q108 148 127 163Q92 213 92 284Q92 391 163 481Q139 499 120 519Q85 555 65 594Q71 618 85 632Q98 645 120 650Q166 625 197 592Q220 567 235 547Q308 597 395 597Q466
597 513 558Q528 578 542 592Q577 627 619 650Q641 645 654 632Q668 618 674 594Q654 554 619 519Q594 494 569 476Q590 419 590 350Q590 239 534 169Q564 145 579 130Q614 95 634 55Q628 31 614 17Q601 4 579 -1Q537 22 502 57Q480 79 459 108Q401 77 323 77Q253
77 204 100Q182 72 167 57Q132 22 90 -1Q68 4 55 17Q41 31 35 55ZM223 302Q223 256 251 223T325 190Q384 190 435 243T486 364Q486 413 457 446T380 480Q316 480 270 422T223 302Z" />
<glyph unicode="&#xa5;" glyph-name="yen" horiz-adv-x="725" d="M26 605Q43 630 101 660T237 702Q276 641 276 620Q276 615 251 603Q233 594 220 594Q226 575 277 514T368 412Q393 427 446 499T506 594Q494 594 475 603Q451 614 450 619Q451 627 468 663T489
702Q605 702 700 605Q688 538 672 519Q653 523 630 534Q626 528 610 502T581 461T549 421T503 374T448 332Q526 330 566 323Q570 312 570 299Q570 294 566 286Q537 278 440 274Q439 266 439 247Q534 245 566 238Q570 227 570 224Q570 209 566 201Q542 193 437 189Q435
126 434 121Q459 121 485 107Q489 103 489 86Q489 67 484 41T476 8Q469 -1 358 -1Q322 -1 306 -1T271 1T242 5T229 15Q225 25 225 65Q225 101 233 109Q258 121 291 121Q290 129 290 153T289 190Q286 190 269 190T234 192T198 194T166 197T150 202Q146 208 146 227Q146
229 150 238Q201 244 287 247Q286 256 286 275Q154 282 150 287T146 302Q146 314 150 323Q200 329 279 332Q219 371 161 442T96 534Q73 523 54 519Q34 558 26 605Z" />
<glyph unicode="&#xa6;" glyph-name="brokenbar" horiz-adv-x="203" d="M66 -1Q66 84 77 166Q86 170 98 170Q117 170 123 166Q137 87 137 7Q137 -114 124 -160Q116 -164 101 -164Q88 -164 77 -160Q66 -109 66 -1ZM66 462Q66 570 77 621Q88 625 101 625Q116 625
124 621Q137 576 137 462Q137 356 123 295Q117 291 98 291Q86 291 77 295Q66 378 66 462Z" />
<glyph unicode="&#xa7;" glyph-name="section" horiz-adv-x="462" d="M44 49Q44 76 49 93T71 137Q122 137 130 131Q133 124 135 107Q155 82 207 82Q276 82 276 128Q276 154 254 170T199 195T135 215T81 252T58 316Q58 363 87 415Q80 436 80 460Q80 532 127 577T239
622Q283 622 326 599Q332 615 346 623Q360 630 382 630T410 621Q415 608 415 576Q415 512 388 505Q374 503 364 503Q341 503 330 511Q326 521 326 532Q291 547 258 547Q224 547 206 531T187 491Q187 465 210 450T267 428T334 411T391 379T415 319Q415 299 407 280T389
247T359 212Q372 180 372 148Q372 85 324 43T208 0Q164 0 131 24Q128 17 113 2Q102 -1 88 -1Q66 -1 48 4Q44 25 44 49ZM155 311Q155 283 184 270T255 257Q269 257 276 258Q320 284 320 308T283 349T204 366Q190 366 176 364Q155 335 155 311Z" />
<glyph unicode="&#xa8;" glyph-name="dieresis" horiz-adv-x="833" d="M186 590Q186 625 208 657Q236 665 248 665Q267 665 287 657Q308 625 308 587Q308 550 287 513Q271 505 252 505T208 513Q186 552 186 590ZM356 590Q356 625 378 657Q406 665 418 665Q437
665 457 657Q478 625 478 587Q478 550 457 513Q441 505 422 505T378 513Q356 552 356 590Z" />
<glyph unicode="&#xa9;" glyph-name="copyright" horiz-adv-x="778" d="M37 291Q37 368 68 446T154 588T288 692T458 733Q533 733 588 705T675 627T722 519T737 390Q737 197 632 98T359 -1Q200 -1 119 82T37 291ZM149 300Q149 217 200 156T354 94Q478 94 559 183T640
404Q640 513 584 573T443 633Q363 633 294 580T187 450T149 300ZM236 371Q236 438 271 491T354 545Q393 545 439 506Q440 506 441 514T443 531T448 541Q449 541 456 541T472 542Q507 542 513 537Q518 510 518 458Q518 415 465 415Q430 415 430 428Q430 431 432
433Q400 457 374 457Q346 457 331 432T315 372T331 311T377 285Q402 285 432 303V308Q431 312 431 315T438 319Q489 319 504 314Q506 311 508 308T512 304T514 300T516 296T517 291T518 285V278Q518 227 513 199Q508 194 476 194Q451 194 445 201T439 231Q393 194
356 194Q307 194 272 248T236 371Z" />
<glyph unicode="&#xaa;" glyph-name="ordfeminine" horiz-adv-x="487" d="M29 456Q29 539 81 607T213 676Q263 676 296 632Q296 652 295 661Q325 685 379 685Q391 685 400 683T413 680T425 674T438 666Q442 661 442 631Q442 588 438 583Q432 572 412 572Q409 572
405 572T399 573Q400 571 400 530Q400 410 395 403Q403 405 405 405Q411 405 423 402L435 400Q439 397 439 345Q439 334 439 323T438 310Q410 292 319 292Q301 292 291 293Q287 305 287 312Q287 314 287 316T288 320Q251 288 189 288Q113 288 71 336T29 456ZM137
477Q137 437 160 407T224 377Q258 377 286 398V542Q286 553 263 565T218 577Q186 577 162 548T137 477Z" />
<glyph unicode="&#xab;" glyph-name="guillemotleft" horiz-adv-x="439" d="M29 239Q99 387 190 477Q206 493 223 493Q237 493 242 477Q229 341 96 239Q211 164 236 11Q224 -11 207 -11Q200 -11 192 -5Q161 16 107 93T29 239ZM193 239Q263 387 354 477Q370 493
387 493Q401 493 406 477Q393 341 260 239Q375 164 400 11Q388 -11 371 -11Q364 -11 356 -5Q325 16 271 93T193 239Z" />
<glyph unicode="&#xac;" glyph-name="logicalnot" horiz-adv-x="523" d="M33 430Q33 441 41 454Q65 467 226 467Q371 467 456 452Q463 427 463 371Q463 301 456 259Q442 252 432 252T412 259Q406 294 406 370Q406 392 407 406Q324 401 226 401Q80 401 41 410Q33
420 33 430Z" />
<glyph unicode="&#xad;" glyph-name="uni00AD" horiz-adv-x="371" d="M52 267Q52 282 56 290Q102 303 173 303Q260 303 312 289Q316 283 316 264Q316 252 312 243Q230 232 175 232Q107 232 56 243Q52 254 52 267Z" />
<glyph unicode="&#xae;" glyph-name="registered" horiz-adv-x="778" d="M37 291Q37 368 68 446T154 588T288 692T458 733Q533 733 588 705T675 627T722 519T737 390Q737 197 632 98T359 -1Q200 -1 119 82T37 291ZM149 300Q149 217 200 156T354 94Q478 94 559
183T640 404Q640 513 584 573T443 633Q363 633 294 580T187 450T149 300ZM247 236Q247 248 252 260Q257 267 273 267Q273 423 277 444Q272 444 255 447Q247 457 247 478Q247 493 253 511Q264 526 303 526Q318 526 329 522Q330 517 330 502Q364 531 414 531T494
501T524 430Q524 371 465 351Q494 342 516 316T538 260Q554 260 558 256Q565 247 565 236Q565 221 556 210Q546 205 515 205Q477 205 455 213Q442 219 442 241Q442 250 445 254Q451 259 472 261Q470 293 428 307T347 322L341 267Q357 267 364 260Q370 252 370 240Q370
227 364 218Q352 209 308 209Q257 209 252 218Q247 223 247 236ZM346 406Q346 376 381 376Q407 376 430 392T453 434Q453 451 442 460T414 469Q387 469 367 449T346 406Z" />
<glyph unicode="&#xaf;" glyph-name="overscore" horiz-adv-x="833" />
<glyph unicode="&#xb0;" glyph-name="degree" horiz-adv-x="431" d="M28 460Q28 546 93 620T252 695Q328 695 364 643T400 512Q400 410 345 358T201 305Q117 305 73 349T28 460ZM115 470Q115 434 137 409T194 383Q240 383 280 425T320 522Q320 560 299 586T241
612Q190 612 153 566T115 470Z" />
<glyph unicode="&#xb1;" glyph-name="plusminus" horiz-adv-x="559" d="M33 29Q33 40 46 56Q169 71 350 71Q429 71 509 62Q526 43 526 30Q526 18 509 5Q451 -10 282 -10Q78 -10 44 3Q33 20 33 29ZM44 400Q44 408 59 428Q82 438 139 438Q208 438 252 428Q238 484
238 535Q238 585 252 627Q274 639 282 639Q292 639 310 627Q324 582 324 532Q324 481 310 428Q351 436 400 436T503 428Q513 415 513 402Q513 388 503 374Q468 361 402 361Q355 361 310 374Q324 331 324 260Q324 217 310 175Q290 166 281 166Q269 166 252 175Q241
228 241 258Q241 329 252 374Q202 363 133 363Q103 363 59 374Q44 390 44 400Z" />
<glyph unicode="&#xb2;" glyph-name="uni00B2" horiz-adv-x="382" d="M43 345Q43 384 64 417T114 472T174 511T225 543T246 568Q246 614 194 614Q168 614 145 602T119 575Q119 569 118 563Q104 554 85 554Q75 554 68 558Q49 571 49 634Q49 660 54 668Q74 677 87
677Q99 677 114 673Q118 660 119 654Q152 680 214 680Q261 680 296 649T331 568Q331 536 313 511T267 472T214 445T169 417T150 382Q162 376 196 376Q244 376 262 384Q262 396 268 411Q284 415 306 415Q323 415 328 411Q342 392 342 344Q342 311 328 297Q324 295
293 295Q260 295 256 301L254 319Q230 304 190 304Q176 304 131 309Q130 302 129 301Q112 292 86 292Q67 292 52 297Q43 316 43 345Z" />
<glyph unicode="&#xb3;" glyph-name="uni00B3" horiz-adv-x="344" d="M20 372Q24 384 46 406T99 435L123 398Q121 392 114 385Q126 373 144 373Q171 373 194 393T218 440Q218 460 202 475Q190 473 182 473Q170 473 162 476Q154 487 154 517Q154 542 158 551Q161
557 187 557Q202 557 207 554Q220 570 220 594Q220 614 202 627T162 641Q143 641 132 630Q132 625 133 622Q126 610 105 610Q97 610 87 612Q80 615 71 642T62 683Q63 688 79 692T107 696L111 691Q140 709 172 709Q223 709 263 673T303 583Q303 541 272 510Q308
477 308 433Q308 374 258 339T140 303Q82 303 52 336Q40 331 38 331Q20 349 20 372Z" />
<glyph unicode="&#xb4;" glyph-name="acute" horiz-adv-x="833" d="M378 595Q419 697 464 746Q473 748 491 748Q535 748 572 722Q545 675 494 631T403 587Q389 587 378 595Z" />
<glyph unicode="&#xb5;" glyph-name="uni00B5" horiz-adv-x="766" d="M30 -186Q30 -145 41 -118Q46 -110 68 -105T107 -100Q119 -100 123 -101Q123 -86 121 18T119 181Q119 304 126 326Q125 325 117 325Q102 325 70 330Q58 351 58 400Q58 457 71 480Q143 500 190
500Q236 500 288 482Q295 477 303 447T311 394Q311 361 293 337Q282 330 265 330Q260 330 258 331T254 333T248 336Q240 301 240 275Q240 205 282 166T381 126T480 166T522 281Q522 314 514 346Q500 338 478 338Q465 338 461 344Q444 350 444 405Q444 456 461 466Q496
501 604 501Q700 501 727 472Q738 456 738 427Q738 370 709 353Q697 344 682 344Q677 344 667 346Q667 317 669 253T671 155Q672 155 684 156T703 158Q710 158 720 156Q725 150 725 129Q725 100 717 65T701 18Q694 14 657 6T587 -3Q552 -3 536 9Q530 26 530 40Q530
48 532 60Q445 -1 348 -1Q290 -1 246 29Q249 -28 249 -111Q249 -210 244 -220Q243 -250 165 -250Q138 -250 106 -247T55 -239T35 -232Q30 -210 30 -186Z" />
<glyph unicode="&#xb6;" glyph-name="paragraph" horiz-adv-x="728" d="M25 479Q25 566 120 634T342 703Q396 703 461 690T574 654Q630 654 681 643Q696 625 696 614T681 576Q638 565 597 562Q618 451 618 304Q618 84 577 -162Q571 -167 564 -174T553 -185T546
-188Q539 -188 524 -162Q475 39 475 257Q475 435 523 563H303Q331 444 331 311Q331 90 291 -162Q275 -186 269 -186Q266 -186 263 -184T252 -174T238 -162Q217 -76 203 52T189 300Q25 369 25 479Z" />
<glyph unicode="&#xb7;" glyph-name="middot" horiz-adv-x="218" d="M42 318Q42 347 60 373Q83 390 108 390T159 373Q176 346 176 316T159 254Q130 235 106 235T60 254Q42 288 42 318Z" />
<glyph unicode="&#xb8;" glyph-name="cedilla" horiz-adv-x="833" d="M252 -207Q252 -182 262 -166Q274 -163 286 -163Q297 -163 309 -166V-174Q333 -198 359 -198Q381 -198 395 -181T410 -135Q410 -111 399 -93T372 -75Q361 -75 344 -91T318 -107Q304 -107 292
-102Q281 -86 281 -53Q281 -26 287 6Q290 9 329 9Q331 9 332 -4T333 -31T335 -44Q362 -21 390 -21Q426 -21 447 -53T468 -130Q468 -178 444 -213T375 -249Q341 -249 305 -225Q305 -246 299 -248Q295 -248 288 -248T278 -249Q268 -249 257 -246Q252 -224 252 -207Z"
/>
<glyph unicode="&#xb9;" glyph-name="uni00B9" horiz-adv-x="263" d="M26 627Q26 648 34 664Q82 705 144 705Q171 705 190 695Q202 632 202 535T190 376Q193 377 198 377Q210 377 221 370Q224 358 224 345Q224 318 212 302Q164 292 132 292Q86 292 68 310Q60 330
60 348Q60 364 68 372Q80 378 103 378Q100 442 100 505Q100 566 103 626Q100 624 90 617T72 605T53 595T34 589Q26 605 26 627Z" />
<glyph unicode="&#xba;" glyph-name="ordmasculine" horiz-adv-x="431" d="M28 460Q28 546 93 620T252 695Q328 695 364 643T400 512Q400 410 345 358T201 305Q117 305 73 349T28 460ZM115 470Q115 434 137 409T194 383Q240 383 280 425T320 522Q320 560 299 586T241
612Q190 612 153 566T115 470Z" />
<glyph unicode="&#xbb;" glyph-name="guillemotright" horiz-adv-x="441" d="M34 477Q39 493 53 493Q70 493 86 477Q177 387 247 239Q224 171 170 95T84 -5Q76 -11 69 -11Q52 -11 40 11Q65 164 180 239Q47 341 34 477ZM198 477Q203 493 217 493Q234 493 250 477Q341
387 411 239Q388 171 334 95T248 -5Q240 -11 233 -11Q216 -11 204 11Q229 164 344 239Q211 341 198 477Z" />
<glyph unicode="&#xbc;" glyph-name="onequarter" horiz-adv-x="741" d="M29 627Q29 648 37 664Q85 705 147 705Q174 705 193 695Q205 632 205 535T193 376Q196 377 201 377Q214 377 224 370Q227 358 227 345Q227 318 215 302Q168 292 135 292Q89 292 71 310Q63
330 63 348Q63 364 71 372Q83 378 106 378Q103 442 103 505Q103 566 106 626Q103 624 93 617T75 605T56 595T37 589Q29 605 29 627ZM151 43Q275 396 481 607Q488 611 494 611Q505 611 507 595Q403 266 177 30Q170 27 165 27Q151 27 151 43ZM381 195Q381 198 384
219Q404 262 449 315T537 391Q558 400 599 400Q662 400 670 387Q677 359 677 310Q677 238 674 217Q678 218 686 218Q691 218 693 217Q706 199 706 174Q706 153 695 143Q690 140 683 140Q677 140 673 142Q674 137 674 127Q674 96 669 78Q671 79 676 79Q687 79 697
74Q708 66 708 28Q708 10 704 3Q699 -2 606 -2Q535 -2 529 5Q524 22 524 51Q524 70 532 74Q538 77 574 80Q573 89 573 107Q573 129 574 141Q546 138 473 138Q396 138 384 142Q381 168 381 195ZM462 212H466Q470 212 482 212T518 213Q548 213 560 213T575 212Q575
220 575 267T576 326Q558 312 515 269T462 212Z" />
<glyph unicode="&#xbd;" glyph-name="onehalf" horiz-adv-x="780" d="M29 627Q29 648 37 664Q85 705 147 705Q174 705 193 695Q205 632 205 535T193 376Q196 377 201 377Q214 377 224 370Q227 358 227 345Q227 318 215 302Q168 292 135 292Q89 292 71 310Q63 330
63 348Q63 364 71 372Q83 378 106 378Q103 442 103 505Q103 566 106 626Q103 624 93 617T75 605T56 595T37 589Q29 605 29 627ZM151 43Q275 396 481 607Q488 611 494 611Q505 611 507 595Q403 266 177 30Q170 27 165 27Q151 27 151 43ZM451 35Q451 78 472 113T522
169T582 208T633 241T654 273T638 300T600 311Q571 311 550 298T526 260Q512 251 492 251Q482 251 476 256Q457 273 457 329Q457 357 462 365Q482 374 495 374Q507 374 522 370Q526 357 527 351Q560 377 622 377Q669 377 704 346T739 266Q739 226 711 197T649 154T587
121T558 79Q570 73 603 73Q652 73 670 81Q670 93 676 108Q692 112 714 112Q731 112 736 108Q750 89 750 41Q750 8 736 -6Q734 -8 702 -8Q668 -8 664 -2L662 16Q638 1 600 1Q584 1 539 6Q539 -1 537 -5Q519 -11 491 -11Q475 -11 460 -6Q451 13 451 35Z" />
<glyph unicode="&#xbe;" glyph-name="threequarters" horiz-adv-x="794" d="M27 372Q31 384 53 406T106 435L130 398Q128 392 121 385Q133 373 151 373Q178 373 201 393T225 440Q225 460 209 475Q197 473 189 473Q176 473 169 476Q161 487 161 515Q161 544 165
551Q168 557 194 557Q210 557 214 554Q227 570 227 594Q227 614 209 627T169 641Q150 641 139 630Q139 625 140 622Q133 610 112 610Q104 610 94 612Q87 615 78 642T69 683Q70 688 86 692T114 696L118 691Q146 709 179 709Q230 709 270 673T310 583Q310 541 279
510Q315 477 315 433Q315 374 265 339T147 303Q89 303 59 336Q47 331 45 331Q27 349 27 372ZM199 40Q323 393 529 604Q536 608 542 608Q553 608 555 592Q451 263 225 27Q218 24 213 24Q199 24 199 40ZM431 195Q431 198 434 219Q454 262 499 315T587 391Q608 400
649 400Q712 400 720 387Q727 359 727 310Q727 238 724 217Q728 218 736 218Q741 218 743 217Q756 199 756 174Q756 150 745 143Q740 140 733 140Q727 140 723 142Q724 137 724 127Q724 96 719 78Q721 79 726 79Q737 79 747 74Q758 66 758 29Q758 5 754 3Q746 -2
656 -2Q585 -2 579 5Q574 22 574 51Q574 74 579 78Q583 78 599 78T624 80Q622 91 622 111Q622 121 624 141Q596 138 523 138Q446 138 434 142Q431 168 431 195ZM512 212H516Q520 212 532 212T568 213Q598 213 610 213T625 212Q625 220 625 267T626 326Q608 312
565 269T512 212Z" />
<glyph unicode="&#xbf;" glyph-name="questiondown" horiz-adv-x="542" d="M27 -73Q27 8 91 62T248 140Q239 162 239 196Q239 229 248 267Q267 272 299 272Q309 272 326 267Q340 240 340 187Q340 133 331 94Q240 64 205 34T170 -64Q170 -110 193 -139T283 -168Q411
-168 411 -52Q411 -35 410 -28Q435 -21 457 -21Q519 -21 519 -80Q519 -129 476 -171Q441 -206 382 -225T260 -245Q163 -245 95 -200T27 -73ZM227 398Q227 424 246 457Q276 472 288 472Q304 472 326 457Q339 428 339 398Q339 367 326 338Q299 326 287 326Q274 326
246 338Q227 376 227 398Z" />
<glyph unicode="&#xc0;" glyph-name="Agrave" horiz-adv-x="747" d="M5 69Q5 113 14 128T52 144Q83 144 83 136Q90 178 189 435T300 695Q332 700 378 700Q402 700 447 695Q458 690 557 434T664 136Q664 144 695 144Q724 144 733 129T742 69Q742 18 731 12Q718
0 575 0Q472 0 472 11Q450 24 450 100Q450 111 451 117T459 129T479 135Q508 135 508 131Q512 131 512 141Q512 166 485 255Q444 251 376 251Q303 251 262 255Q235 165 235 140Q235 132 239 131Q245 135 265 135Q280 135 287 128T296 114T297 91Q297 25 275 11Q275
0 172 0Q29 0 16 12Q5 18 5 69ZM251 921Q274 946 316 946Q324 946 329 945Q374 896 415 794Q412 791 400 791Q391 791 385 794Q292 851 251 921ZM298 371Q336 374 371 374Q412 374 448 370Q403 503 373 576Q345 507 298 371Z" />
<glyph unicode="&#xc1;" glyph-name="Aacute" horiz-adv-x="747" d="M5 69Q5 113 14 128T52 144Q83 144 83 136Q90 178 189 435T300 695Q332 700 378 700Q402 700 447 695Q458 690 557 434T664 136Q664 144 695 144Q724 144 733 129T742 69Q742 18 731 12Q718
0 575 0Q472 0 472 11Q450 24 450 100Q450 111 451 117T459 129T479 135Q508 135 508 131Q512 131 512 141Q512 166 485 255Q444 251 376 251Q303 251 262 255Q235 165 235 140Q235 132 239 131Q245 135 265 135Q280 135 287 128T296 114T297 91Q297 25 275 11Q275
0 172 0Q29 0 16 12Q5 18 5 69ZM298 371Q336 374 371 374Q412 374 448 370Q403 503 373 576Q345 507 298 371ZM371 794Q412 896 457 945Q462 946 470 946Q512 946 535 921Q494 851 401 794Q395 791 386 791Q374 791 371 794Z" />
<glyph unicode="&#xc2;" glyph-name="Acircumflex" horiz-adv-x="747" d="M5 69Q5 113 14 128T52 144Q83 144 83 136Q90 178 189 435T300 695Q332 700 378 700Q402 700 447 695Q458 690 557 434T664 136Q664 144 695 144Q724 144 733 129T742 69Q742 18 731 12Q718
0 575 0Q472 0 472 11Q450 24 450 100Q450 111 451 117T459 129T479 135Q508 135 508 131Q512 131 512 141Q512 166 485 255Q444 251 376 251Q303 251 262 255Q235 165 235 140Q235 132 239 131Q245 135 265 135Q280 135 287 128T296 114T297 91Q297 25 275 11Q275
0 172 0Q29 0 16 12Q5 18 5 69ZM202 753Q227 795 282 851T372 908T463 853T544 753Q535 749 527 749T508 753Q476 770 432 801T373 854Q356 833 311 799T238 753Q226 749 222 749Q214 749 202 753ZM298 371Q336 374 371 374Q412 374 448 370Q403 503 373 576Q345
507 298 371Z" />
<glyph unicode="&#xc3;" glyph-name="Atilde" horiz-adv-x="747" d="M5 69Q5 113 14 128T52 144Q83 144 83 136Q90 178 189 435T300 695Q332 700 378 700Q402 700 447 695Q458 690 557 434T664 136Q664 144 695 144Q724 144 733 129T742 69Q742 18 731 12Q718
0 575 0Q472 0 472 11Q450 24 450 100Q450 111 451 117T459 129T479 135Q508 135 508 131Q512 131 512 141Q512 166 485 255Q444 251 376 251Q303 251 262 255Q235 165 235 140Q235 132 239 131Q245 135 265 135Q280 135 287 128T296 114T297 91Q297 25 275 11Q275
0 172 0Q29 0 16 12Q5 18 5 69ZM219 784Q229 878 294 878Q326 878 371 854T426 830Q456 830 470 892Q478 896 483 896Q505 896 528 859Q518 765 453 765Q425 765 379 789T321 813Q290 813 277 752Q270 747 260 747Q237 747 219 784ZM298 371Q336 374 371 374Q412
374 448 370Q403 503 373 576Q345 507 298 371Z" />
<glyph unicode="&#xc4;" glyph-name="Adieresis" horiz-adv-x="747" d="M5 69Q5 113 14 128T52 144Q83 144 83 136Q90 178 189 435T300 695Q332 700 378 700Q402 700 447 695Q458 690 557 434T664 136Q664 144 695 144Q724 144 733 129T742 69Q742 18 731 12Q718
0 575 0Q472 0 472 11Q450 24 450 100Q450 111 451 117T459 129T479 135Q508 135 508 131Q512 131 512 141Q512 166 485 255Q444 251 376 251Q303 251 262 255Q235 165 235 140Q235 132 239 131Q245 135 265 135Q280 135 287 128T296 114T297 91Q297 25 275 11Q275
0 172 0Q29 0 16 12Q5 18 5 69ZM227 834Q227 869 249 901Q277 909 289 909Q308 909 328 901Q349 869 349 831Q349 794 328 757Q312 749 293 749T249 757Q227 796 227 834ZM298 371Q336 374 371 374Q412 374 448 370Q403 503 373 576Q345 507 298 371ZM397 834Q397
869 419 901Q447 909 459 909Q478 909 498 901Q519 869 519 831Q519 794 498 757Q482 749 463 749T419 757Q397 796 397 834Z" />
<glyph unicode="&#xc5;" glyph-name="Aring" horiz-adv-x="747" d="M5 69Q5 113 14 128T52 144Q80 144 83 137Q91 182 190 437T300 695Q271 721 271 766Q271 816 309 860T403 904Q448 904 469 874T490 796Q490 726 447 695Q458 690 557 434T664 136Q664 144 695
144Q724 144 733 129T742 69Q742 18 731 12Q718 0 575 0Q472 0 472 11Q450 24 450 100Q450 111 451 117T459 129T479 135Q508 135 508 131Q512 131 512 141Q512 166 485 255Q444 251 376 251Q303 251 262 255Q235 165 235 140Q235 132 239 131Q245 135 265 135Q280
135 287 128T296 114T297 91Q297 25 275 11Q275 0 172 0Q29 0 16 12Q5 18 5 69ZM298 371Q336 374 371 374Q412 374 448 370Q403 503 373 576Q345 507 298 371ZM322 773Q322 752 335 737T369 721Q395 721 418 746T442 803Q442 825 430 841T396 857Q367 857 345 829T322
773Z" />
<glyph unicode="&#xc6;" glyph-name="AE" horiz-adv-x="1010" d="M-1 62Q-1 133 15 136Q15 144 46 144Q75 144 77 136Q118 230 204 387T400 695Q591 712 666 712Q852 712 964 674Q974 624 974 597Q974 550 951 520Q926 514 908 514Q876 514 826 547L829 580Q806
593 704 593Q677 593 655 593T619 591T595 589T581 587T575 586V412Q584 412 618 412T666 411Q690 411 690 412Q689 415 689 421Q689 432 698 448Q704 453 731 453Q773 453 789 446Q809 411 809 341Q809 297 786 278Q771 265 743 265Q717 265 700 275Q691 280 689
284T687 304L574 300L575 125Q617 96 695 96Q776 96 829 124L826 157Q876 190 909 190Q927 190 951 184Q974 154 974 107Q974 80 964 30Q889 -13 692 -13Q596 -13 509 -3T387 24Q366 45 366 79Q366 122 382 135Q400 144 422 144Q432 144 438 141Q433 171 429 252Q408
251 371 251Q329 251 286 255Q240 172 233 131Q245 135 257 135Q288 135 288 119Q291 110 291 91Q291 25 269 11Q269 0 166 0Q23 0 10 12Q-1 16 -1 62ZM323 371Q347 375 378 375Q407 375 426 370L437 562L323 371Z" />
<glyph unicode="&#xc7;" glyph-name="Ccedilla" horiz-adv-x="675" d="M41 344Q41 497 119 602T328 707Q423 707 468 663Q470 693 489 700Q514 711 550 711Q597 711 624 691Q625 680 628 657T634 614T636 579Q636 517 600 485Q579 462 531 462Q481 462 456 485Q455
487 455 494Q455 506 458 510Q441 547 403 567T334 587Q276 587 227 513T177 342Q177 251 223 195T331 138Q362 138 400 152T456 191Q453 209 453 211T453 215T454 218Q491 235 519 235T601 215Q637 183 637 122Q637 106 635 87T629 44T624 9Q593 -16 544 -16Q508
-16 489 0Q468 8 468 39Q402 -6 334 -6Q330 -6 323 -6T311 -5Q312 -11 312 -21T313 -37T314 -44Q341 -21 369 -21Q405 -21 426 -53T447 -130Q447 -178 423 -213T354 -249Q320 -249 284 -225Q284 -246 278 -248Q274 -248 267 -248T257 -249Q246 -249 236 -246Q231
-224 231 -207Q231 -182 241 -166Q253 -163 265 -163Q276 -163 288 -166V-174Q312 -198 338 -198Q360 -198 374 -181T389 -135Q389 -111 378 -93T351 -75Q340 -75 323 -91T297 -107Q283 -107 271 -102Q260 -86 260 -53Q260 -24 265 3Q170 28 106 116T41 344Z" />
<glyph unicode="&#xc8;" glyph-name="Egrave" horiz-adv-x="690" d="M46 103Q46 119 62 155Q80 164 102 164Q112 164 118 161Q106 250 106 342Q106 477 127 564Q104 559 90 559Q72 559 62 566Q48 586 48 628Q48 654 67 680Q99 695 184 703T348 712Q532 712 644
674Q654 624 654 597Q654 550 631 520Q606 514 588 514Q556 514 506 547L509 580Q490 593 405 593Q375 593 328 590T280 584Q284 548 284 531Q284 442 271 409Q369 409 370 412Q369 415 369 421Q369 432 378 448Q384 453 411 453Q453 453 469 446Q489 413 489 351Q489
295 468 274Q460 267 421 267T376 274Q367 286 367 304L266 299Q266 240 255 135Q271 121 320 114T401 106Q425 106 460 111T509 124L506 157Q556 190 589 190Q607 190 631 184Q654 154 654 107Q654 80 644 30Q569 -13 372 -13Q276 -13 189 -3T67 24Q55 39 51 54T46
103ZM268 921Q290 946 333 946Q341 946 346 945Q391 896 432 794Q429 791 417 791Q408 791 402 794Q309 851 268 921Z" />
<glyph unicode="&#xc9;" glyph-name="Eacute" horiz-adv-x="690" d="M46 103Q46 119 62 155Q80 164 102 164Q112 164 118 161Q106 250 106 342Q106 477 127 564Q104 559 90 559Q72 559 62 566Q48 586 48 628Q48 654 67 680Q99 695 184 703T348 712Q532 712 644
674Q654 624 654 597Q654 550 631 520Q606 514 588 514Q556 514 506 547L509 580Q490 593 405 593Q375 593 328 590T280 584Q284 548 284 531Q284 442 271 409Q369 409 370 412Q369 415 369 421Q369 432 378 448Q384 453 411 453Q453 453 469 446Q489 413 489 351Q489
295 468 274Q460 267 421 267T376 274Q367 286 367 304L266 299Q266 240 255 135Q271 121 320 114T401 106Q425 106 460 111T509 124L506 157Q556 190 589 190Q607 190 631 184Q654 154 654 107Q654 80 644 30Q569 -13 372 -13Q276 -13 189 -3T67 24Q55 39 51 54T46
103ZM253 795Q294 897 339 946Q348 948 366 948Q410 948 447 922Q420 875 369 831T278 787Q264 787 253 795Z" />
<glyph unicode="&#xca;" glyph-name="Ecircumflex" horiz-adv-x="690" d="M46 103Q46 119 62 155Q80 164 102 164Q112 164 118 161Q106 250 106 342Q106 477 127 564Q104 559 90 559Q72 559 62 566Q48 586 48 628Q48 654 67 680Q99 695 184 703T348 712Q532 712
644 674Q654 624 654 597Q654 550 631 520Q606 514 588 514Q556 514 506 547L509 580Q490 593 405 593Q375 593 328 590T280 584Q284 548 284 531Q284 442 271 409Q369 409 370 412Q369 415 369 421Q369 432 378 448Q384 453 411 453Q453 453 469 446Q489 413 489
351Q489 295 468 274Q460 267 421 267T376 274Q367 286 367 304L266 299Q266 240 255 135Q271 121 320 114T401 106Q425 106 460 111T509 124L506 157Q556 190 589 190Q607 190 631 184Q654 154 654 107Q654 80 644 30Q569 -13 372 -13Q276 -13 189 -3T67 24Q55
39 51 54T46 103ZM179 753Q204 795 259 851T349 908T440 853T521 753Q512 749 504 749T485 753Q453 770 409 801T350 854Q333 833 288 799T215 753Q203 749 199 749Q191 749 179 753Z" />
<glyph unicode="&#xcb;" glyph-name="Edieresis" horiz-adv-x="690" d="M46 103Q46 119 62 155Q80 164 102 164Q112 164 118 161Q106 250 106 342Q106 477 127 564Q104 559 90 559Q72 559 62 566Q48 586 48 628Q48 654 67 680Q99 695 184 703T348 712Q532 712
644 674Q654 624 654 597Q654 550 631 520Q606 514 588 514Q556 514 506 547L509 580Q490 593 405 593Q375 593 328 590T280 584Q284 548 284 531Q284 442 271 409Q369 409 370 412Q369 415 369 421Q369 432 378 448Q384 453 411 453Q453 453 469 446Q489 413 489
351Q489 295 468 274Q460 267 421 267T376 274Q367 286 367 304L266 299Q266 240 255 135Q271 121 320 114T401 106Q425 106 460 111T509 124L506 157Q556 190 589 190Q607 190 631 184Q654 154 654 107Q654 80 644 30Q569 -13 372 -13Q276 -13 189 -3T67 24Q55
39 51 54T46 103ZM204 840Q204 875 226 907Q254 915 266 915Q285 915 305 907Q326 875 326 837Q326 800 305 763Q289 755 270 755T226 763Q204 802 204 840ZM374 840Q374 875 396 907Q424 915 436 915Q455 915 475 907Q496 875 496 837Q496 800 475 763Q459 755
440 755T396 763Q374 802 374 840Z" />
<glyph unicode="&#xcc;" glyph-name="Igrave" horiz-adv-x="356" d="M49 921Q72 946 114 946Q122 946 127 945Q172 896 213 794Q210 791 198 791Q189 791 183 794Q90 851 49 921ZM55 86Q55 134 61 140Q70 145 96 149Q114 152 119 152Q107 252 107 353Q107 450
119 546Q114 546 96 549Q70 553 61 558Q55 564 55 612Q55 664 61 671Q60 683 93 690T177 698Q230 698 284 689Q290 679 298 639T307 577Q307 564 304 560Q282 549 256 549Q245 549 239 550Q251 469 251 374Q251 296 239 148Q245 149 256 149Q282 149 304 138Q307
134 307 121Q307 100 299 60T284 9Q227 4 180 4Q128 4 94 10T61 27Q55 34 55 86Z" />
<glyph unicode="&#xcd;" glyph-name="Iacute" horiz-adv-x="356" d="M55 86Q55 134 61 140Q70 145 96 149Q114 152 119 152Q107 252 107 353Q107 450 119 546Q114 546 96 549Q70 553 61 558Q55 564 55 612Q55 664 61 671Q60 683 93 690T177 698Q230 698 284 689Q290
679 298 639T307 577Q307 564 304 560Q282 549 256 549Q245 549 239 550Q251 469 251 374Q251 296 239 148Q245 149 256 149Q282 149 304 138Q307 134 307 121Q307 100 299 60T284 9Q227 4 180 4Q128 4 94 10T61 27Q55 34 55 86ZM144 795Q185 897 230 946Q239 948
257 948Q301 948 338 922Q311 875 260 831T169 787Q155 787 144 795Z" />
<glyph unicode="&#xce;" glyph-name="Icircumflex" horiz-adv-x="356" d="M10 753Q35 795 90 851T180 908T271 853T352 753Q343 749 335 749T316 753Q284 770 240 801T181 854Q164 833 119 799T46 753Q34 749 30 749Q22 749 10 753ZM55 86Q55 134 61 140Q70 145
96 149Q114 152 119 152Q107 252 107 353Q107 450 119 546Q114 546 96 549Q70 553 61 558Q55 564 55 612Q55 664 61 671Q60 683 93 690T177 698Q230 698 284 689Q290 679 298 639T307 577Q307 564 304 560Q282 549 256 549Q245 549 239 550Q251 469 251 374Q251
296 239 148Q245 149 256 149Q282 149 304 138Q307 134 307 121Q307 100 299 60T284 9Q227 4 180 4Q128 4 94 10T61 27Q55 34 55 86Z" />
<glyph unicode="&#xcf;" glyph-name="Idieresis" horiz-adv-x="356" d="M35 840Q35 875 57 907Q85 915 97 915Q116 915 136 907Q157 875 157 837Q157 800 136 763Q120 755 101 755T57 763Q35 802 35 840ZM55 86Q55 134 61 140Q70 145 96 149Q114 152 119 152Q107
252 107 353Q107 450 119 546Q114 546 96 549Q70 553 61 558Q55 564 55 612Q55 664 61 671Q60 683 93 690T177 698Q230 698 284 689Q290 679 298 639T307 577Q307 564 304 560Q282 549 256 549Q245 549 239 550Q251 469 251 374Q251 296 239 148Q245 149 256 149Q282
149 304 138Q307 134 307 121Q307 100 299 60T284 9Q227 4 180 4Q128 4 94 10T61 27Q55 34 55 86ZM205 840Q205 875 227 907Q255 915 267 915Q286 915 306 907Q327 875 327 837Q327 800 306 763Q290 755 271 755T227 763Q205 802 205 840Z" />
<glyph unicode="&#xd0;" glyph-name="Eth" horiz-adv-x="711" d="M46 614Q46 636 55 647Q150 701 265 701Q370 701 448 673T574 593T645 474T668 322Q668 156 576 73T286 -10Q169 -10 62 32Q52 42 52 101Q52 134 55 144Q58 159 97 159Q108 159 122 157Q114 210
112 312Q89 316 87 318Q83 324 83 343Q83 355 87 364L112 367Q114 460 124 533Q114 530 97 530Q58 530 55 545Q46 583 46 614ZM265 133Q294 123 328 123Q411 123 471 180T532 329Q532 422 472 496T328 570Q293 570 265 556Q272 481 274 373Q304 370 333 364Q337
353 337 340Q337 325 333 317Q308 310 273 306Q271 197 265 133Z" />
<glyph unicode="&#xd1;" glyph-name="Ntilde" horiz-adv-x="761" d="M52 91Q52 133 67 140Q90 154 99 154Q105 154 115 152Q103 252 103 353Q103 450 115 546Q103 544 96 544Q81 544 67 558Q59 570 59 615Q59 659 67 671Q66 682 109 690T205 698Q252 698 270 689Q299
674 299 619Q299 585 290 560Q271 547 254 547Q246 547 235 550Q279 517 374 437T513 310Q513 458 525 546Q519 545 507 545Q491 545 477 558Q462 584 462 624Q462 660 477 671Q514 699 598 699Q658 699 680 689Q713 670 713 610Q713 577 700 560Q674 548 662 548Q655
548 645 550Q657 469 657 374Q657 296 645 148Q657 151 661 151Q687 151 700 138Q711 124 711 97Q711 72 702 46T680 9Q660 0 582 0Q500 0 477 26Q462 41 462 90Q462 130 477 140Q497 154 506 154Q512 154 522 152Q482 178 380 273T246 394Q244 252 235 148Q247
150 256 150Q276 150 290 138Q299 128 299 100T291 44T270 9Q252 0 205 0Q153 0 110 8T67 27Q52 42 52 91ZM248 794Q258 888 323 888Q355 888 400 864T455 840Q485 840 499 902Q507 906 512 906Q534 906 557 869Q547 775 482 775Q454 775 408 799T350 823Q319 823
306 762Q298 757 289 757Q266 757 248 794Z" />
<glyph unicode="&#xd2;" glyph-name="Ograve" horiz-adv-x="742" d="M38 266Q38 341 69 418T152 559T283 662T448 702Q575 702 638 622T702 419Q702 345 679 272T613 134T496 30T331 -10Q201 -10 120 65T38 266ZM187 282Q187 209 226 166T328 122Q394 122 450
171T535 287T564 416Q564 482 529 523T425 565Q355 565 299 520T215 410T187 282ZM283 921Q306 946 348 946Q356 946 361 945Q406 896 447 794Q444 791 432 791Q423 791 417 794Q324 851 283 921Z" />
<glyph unicode="&#xd3;" glyph-name="Oacute" horiz-adv-x="742" d="M38 266Q38 341 69 418T152 559T283 662T448 702Q575 702 638 622T702 419Q702 345 679 272T613 134T496 30T331 -10Q201 -10 120 65T38 266ZM187 282Q187 209 226 166T328 122Q394 122 450
171T535 287T564 416Q564 482 529 523T425 565Q355 565 299 520T215 410T187 282ZM390 795Q431 897 476 946Q485 948 503 948Q547 948 584 922Q557 875 506 831T415 787Q401 787 390 795Z" />
<glyph unicode="&#xd4;" glyph-name="Ocircumflex" horiz-adv-x="742" d="M38 266Q38 341 69 418T152 559T283 662T448 702Q575 702 638 622T702 419Q702 345 679 272T613 134T496 30T331 -10Q201 -10 120 65T38 266ZM187 282Q187 209 226 166T328 122Q394 122
450 171T535 287T564 416Q564 482 529 523T425 565Q355 565 299 520T215 410T187 282ZM264 753Q289 795 344 851T434 908T525 853T606 753Q597 749 589 749T570 753Q538 770 494 801T435 854Q418 833 373 799T300 753Q288 749 284 749Q276 749 264 753Z" />
<glyph unicode="&#xd5;" glyph-name="Otilde" horiz-adv-x="742" d="M38 266Q38 341 69 418T152 559T283 662T448 702Q575 702 638 622T702 419Q702 345 679 272T613 134T496 30T331 -10Q201 -10 120 65T38 266ZM187 282Q187 209 226 166T328 122Q394 122 450
171T535 287T564 416Q564 482 529 523T425 565Q355 565 299 520T215 410T187 282ZM271 794Q281 888 346 888Q378 888 423 864T478 840Q508 840 522 902Q530 906 535 906Q557 906 580 869Q570 775 505 775Q477 775 431 799T373 823Q342 823 329 762Q322 757 312
757Q289 757 271 794Z" />
<glyph unicode="&#xd6;" glyph-name="Odieresis" horiz-adv-x="742" d="M38 266Q38 341 69 418T152 559T283 662T448 702Q575 702 638 622T702 419Q702 345 679 272T613 134T496 30T331 -10Q201 -10 120 65T38 266ZM187 282Q187 209 226 166T328 122Q394 122 450
171T535 287T564 416Q564 482 529 523T425 565Q355 565 299 520T215 410T187 282ZM279 840Q279 875 301 907Q329 915 341 915Q360 915 380 907Q401 875 401 837Q401 800 380 763Q364 755 345 755T301 763Q279 802 279 840ZM449 840Q449 875 471 907Q499 915 511
915Q530 915 550 907Q571 875 571 837Q571 800 550 763Q534 755 515 755T471 763Q449 802 449 840Z" />
<glyph unicode="&#xd7;" glyph-name="multiply" horiz-adv-x="465" d="M46 458Q51 480 58 487T87 500Q127 478 164 441Q209 396 234 352Q254 384 299 429Q335 465 378 494Q397 491 402 486T415 457Q400 426 352 375Q315 338 273 313Q310 295 354 251Q389 216 420
166Q420 137 379 125Q334 155 299 190Q253 236 232 272Q199 225 162 188T87 129Q64 131 59 136T50 166Q76 208 112 244Q155 287 193 311Q144 340 101 383Q66 417 46 458Z" />
<glyph unicode="&#xd8;" glyph-name="Oslash" horiz-adv-x="742" d="M38 265Q38 367 89 466T236 634T449 702Q495 702 537 689Q557 713 601 759Q610 758 615 752T621 742L594 662Q648 625 675 561T702 418Q702 342 678 267T609 130T494 29T340 -10Q278 -10 217
8L149 -67Q129 -64 129 -50L159 34Q38 106 38 265ZM187 279Q187 215 217 175Q312 389 437 564Q434 564 428 564T416 565Q322 565 255 473T187 279ZM309 123Q318 122 337 122Q424 122 494 219T564 418Q564 477 536 515Q444 306 309 123Z" />
<glyph unicode="&#xd9;" glyph-name="Ugrave" horiz-adv-x="771" d="M7 611Q7 647 28 679Q88 702 151 702Q212 702 275 681Q299 652 299 614Q299 581 280 556Q270 550 259 550Q248 550 235 555Q227 521 227 470Q227 326 279 239T400 151Q467 151 507 241T547 485Q547
536 541 565Q531 553 509 553Q492 553 488 563Q471 588 471 620T488 678Q548 702 626 702Q708 702 744 671Q762 642 762 621Q762 603 746 576Q730 562 704 562Q693 562 684 565Q694 511 694 447Q694 241 609 120T408 -1Q348 -1 290 34T186 131T111 288T82 495Q82
508 82 523T83 546Q77 541 62 541Q35 541 27 549Q7 576 7 611ZM272 921Q294 946 337 946Q345 946 350 945Q395 896 436 794Q433 791 421 791Q412 791 406 794Q313 851 272 921Z" />
<glyph unicode="&#xda;" glyph-name="Uacute" horiz-adv-x="771" d="M7 611Q7 647 28 679Q88 702 151 702Q212 702 275 681Q299 652 299 614Q299 581 280 556Q270 550 259 550Q248 550 235 555Q227 521 227 470Q227 326 279 239T400 151Q467 151 507 241T547 485Q547
536 541 565Q531 553 509 553Q492 553 488 563Q471 588 471 620T488 678Q548 702 626 702Q708 702 744 671Q762 642 762 621Q762 603 746 576Q730 562 704 562Q693 562 684 565Q694 511 694 447Q694 241 609 120T408 -1Q348 -1 290 34T186 131T111 288T82 495Q82
508 82 523T83 546Q77 541 62 541Q35 541 27 549Q7 576 7 611ZM348 795Q389 897 434 946Q443 948 461 948Q505 948 542 922Q515 875 464 831T373 787Q359 787 348 795Z" />
<glyph unicode="&#xdb;" glyph-name="Ucircumflex" horiz-adv-x="771" d="M7 611Q7 647 28 679Q88 702 151 702Q212 702 275 681Q299 652 299 614Q299 581 280 556Q270 550 259 550Q248 550 235 555Q227 521 227 470Q227 326 279 239T400 151Q467 151 507 241T547
485Q547 536 541 565Q531 553 509 553Q492 553 488 563Q471 588 471 620T488 678Q548 702 626 702Q708 702 744 671Q762 642 762 621Q762 603 746 576Q730 562 704 562Q693 562 684 565Q694 511 694 447Q694 241 609 120T408 -1Q348 -1 290 34T186 131T111 288T82
495Q82 508 82 523T83 546Q77 541 62 541Q35 541 27 549Q7 576 7 611ZM233 753Q258 795 313 851T403 908T494 853T575 753Q566 749 558 749T539 753Q507 770 463 801T404 854Q387 833 342 799T269 753Q257 749 253 749Q245 749 233 753Z" />
<glyph unicode="&#xdc;" glyph-name="Udieresis" horiz-adv-x="771" d="M7 611Q7 647 28 679Q88 702 151 702Q212 702 275 681Q299 652 299 614Q299 581 280 556Q270 550 259 550Q248 550 235 555Q227 521 227 470Q227 326 279 239T400 151Q467 151 507 241T547
485Q547 536 541 565Q531 553 509 553Q492 553 488 563Q471 588 471 620T488 678Q548 702 626 702Q708 702 744 671Q762 642 762 621Q762 603 746 576Q730 562 704 562Q693 562 684 565Q694 511 694 447Q694 241 609 120T408 -1Q348 -1 290 34T186 131T111 288T82
495Q82 508 82 523T83 546Q77 541 62 541Q35 541 27 549Q7 576 7 611ZM248 840Q248 875 270 907Q298 915 310 915Q329 915 349 907Q370 875 370 837Q370 800 349 763Q333 755 314 755T270 763Q248 802 248 840ZM418 840Q418 875 440 907Q468 915 480 915Q499 915
519 907Q540 875 540 837Q540 800 519 763Q503 755 484 755T440 763Q418 802 418 840Z" />
<glyph unicode="&#xdd;" glyph-name="Yacute" horiz-adv-x="682" d="M4 605Q21 630 79 660T215 702Q254 641 254 620Q254 615 229 603Q211 594 198 594Q204 575 255 514T346 412Q371 427 424 499T484 594Q472 594 453 603Q429 614 428 619Q429 627 446 663T467
702Q583 702 678 605Q666 538 650 519Q631 523 608 534Q604 528 588 502T559 460T527 420T480 373T424 331Q419 308 417 222T412 121Q437 121 463 107Q467 103 467 86Q467 67 462 41T454 8Q447 -1 336 -1Q300 -1 284 -1T249 1T220 5T207 15Q203 25 203 65Q203 101
211 109Q236 121 269 121Q269 132 268 181T264 270T259 331Q199 370 140 441T74 534Q51 523 32 519Q12 558 4 605ZM310 795Q351 897 396 946Q405 948 423 948Q467 948 504 922Q477 875 426 831T335 787Q321 787 310 795Z" />
<glyph unicode="&#xde;" glyph-name="Thorn" horiz-adv-x="638" d="M42 608Q42 656 60 667Q80 704 198 704Q226 704 252 694Q257 675 257 609Q257 602 256 600Q302 630 334 642T404 655Q502 655 557 586T613 421Q613 317 547 240T361 162Q312 162 257 178Q259
168 259 161Q259 146 253 129Q257 130 279 130Q318 130 329 112Q344 102 344 66Q344 35 329 19Q323 -1 213 -1Q62 -1 56 19Q43 33 43 63Q43 94 56 112Q61 120 78 125T112 130Q124 130 128 129Q128 146 127 192T126 287Q126 464 136 520Q133 519 119 519Q96 519
65 526Q42 553 42 608ZM258 368Q258 321 282 296T343 271Q396 271 445 317T495 426Q495 469 470 500T403 531Q349 531 304 483T258 368Z" />
<glyph unicode="&#xdf;" glyph-name="germandbls" horiz-adv-x="811" d="M29 -15Q29 25 34 30Q36 32 83 41Q82 50 75 152T67 312Q67 381 74 440T101 559T152 658T234 724T351 750Q460 750 545 692T630 553Q630 499 587 446Q777 409 777 270Q777 164 677 81T461
-2Q426 -2 394 7Q386 9 386 46Q386 78 425 117Q438 113 457 113Q523 113 587 154T651 251Q651 313 555 347Q539 325 508 320Q476 326 454 363T431 443Q451 484 494 486Q498 502 498 519Q498 572 461 604T356 637Q302 637 271 611T223 510T205 298Q205 185 219 38Q249
38 255 29Q257 25 257 14Q257 -4 250 -38T238 -82Q214 -89 152 -89Q59 -89 34 -66Q29 -61 29 -15Z" />
<glyph unicode="&#xe0;" glyph-name="agrave" horiz-adv-x="623" d="M35 207Q35 279 56 346T125 463T237 512Q266 512 288 502T323 478T344 449T355 424T359 414Q359 468 358 485Q378 502 399 507T459 513Q489 513 512 511T548 506T567 500T577 496L579 495Q583
486 583 439Q583 391 579 382Q576 375 547 370T497 364Q487 364 475 366Q478 360 478 315Q478 184 469 170Q476 173 486 173Q530 173 572 164Q580 158 580 79Q580 35 577 23Q570 12 533 2T449 -8Q364 -8 344 -4Q337 15 337 28Q337 36 340 40Q328 36 272 10T191
-16Q114 -16 75 49T35 207ZM160 233Q160 177 194 139T267 100Q288 100 315 111T344 131Q347 177 349 215T353 274T355 301V313Q355 334 328 354T266 375Q216 375 188 330T160 233ZM188 721Q210 746 253 746Q261 746 266 745Q311 696 352 594Q349 591 337 591Q328
591 322 594Q229 651 188 721Z" />
<glyph unicode="&#xe1;" glyph-name="aacute" horiz-adv-x="623" d="M35 207Q35 279 56 346T125 463T237 512Q266 512 288 502T323 478T344 449T355 424T359 414Q359 468 358 485Q378 502 399 507T459 513Q489 513 512 511T548 506T567 500T577 496L579 495Q583
486 583 439Q583 391 579 382Q576 375 547 370T497 364Q487 364 475 366Q478 360 478 315Q478 184 469 170Q476 173 486 173Q530 173 572 164Q580 158 580 79Q580 35 577 23Q570 12 533 2T449 -8Q364 -8 344 -4Q337 15 337 28Q337 36 340 40Q328 36 272 10T191
-16Q114 -16 75 49T35 207ZM160 233Q160 177 194 139T267 100Q288 100 315 111T344 131Q347 177 349 215T353 274T355 301V313Q355 334 328 354T266 375Q216 375 188 330T160 233ZM273 595Q314 697 359 746Q368 748 386 748Q430 748 467 722Q440 675 389 631T298
587Q284 587 273 595Z" />
<glyph unicode="&#xe2;" glyph-name="acircumflex" horiz-adv-x="623" d="M35 207Q35 279 56 346T125 463T237 512Q266 512 288 502T323 478T344 449T355 424T359 414Q359 468 358 485Q378 502 399 507T459 513Q489 513 512 511T548 506T567 500T577 496L579 495Q583
486 583 439Q583 391 579 382Q576 375 547 370T497 364Q487 364 475 366Q478 360 478 315Q478 184 469 170Q476 173 486 173Q530 173 572 164Q580 158 580 79Q580 35 577 23Q570 12 533 2T449 -8Q364 -8 344 -4Q337 15 337 28Q337 36 340 40Q328 36 272 10T191
-16Q114 -16 75 49T35 207ZM159 563Q184 605 239 661T329 718T420 663T501 563Q492 559 484 559T465 563Q433 580 389 611T330 664Q313 643 268 609T195 563Q183 559 179 559Q171 559 159 563ZM160 233Q160 177 194 139T267 100Q288 100 315 111T344 131Q347 177
349 215T353 274T355 301V313Q355 334 328 354T266 375Q216 375 188 330T160 233Z" />
<glyph unicode="&#xe3;" glyph-name="atilde" horiz-adv-x="623" d="M35 207Q35 279 56 346T125 463T237 512Q266 512 288 502T323 478T344 449T355 424T359 414Q359 468 358 485Q378 502 399 507T459 513Q489 513 512 511T548 506T567 500T577 496L579 495Q583
486 583 439Q583 391 579 382Q576 375 547 370T497 364Q487 364 475 366Q478 360 478 315Q478 184 469 170Q476 173 486 173Q530 173 572 164Q580 158 580 79Q580 35 577 23Q570 12 533 2T449 -8Q364 -8 344 -4Q337 15 337 28Q337 36 340 40Q328 36 272 10T191
-16Q114 -16 75 49T35 207ZM160 233Q160 177 194 139T267 100Q288 100 315 111T344 131Q347 177 349 215T353 274T355 301V313Q355 334 328 354T266 375Q216 375 188 330T160 233ZM176 594Q186 688 251 688Q283 688 328 664T383 640Q413 640 427 702Q435 706 440
706Q462 706 485 669Q475 575 410 575Q382 575 336 599T278 623Q247 623 234 562Q226 557 217 557Q194 557 176 594Z" />
<glyph unicode="&#xe4;" glyph-name="adieresis" horiz-adv-x="623" d="M35 207Q35 279 56 346T125 463T237 512Q266 512 288 502T323 478T344 449T355 424T359 414Q359 468 358 485Q378 502 399 507T459 513Q489 513 512 511T548 506T567 500T577 496L579 495Q583
486 583 439Q583 391 579 382Q576 375 547 370T497 364Q487 364 475 366Q478 360 478 315Q478 184 469 170Q476 173 486 173Q530 173 572 164Q580 158 580 79Q580 35 577 23Q570 12 533 2T449 -8Q364 -8 344 -4Q337 15 337 28Q337 36 340 40Q328 36 272 10T191
-16Q114 -16 75 49T35 207ZM160 233Q160 177 194 139T267 100Q288 100 315 111T344 131Q347 177 349 215T353 274T355 301V313Q355 334 328 354T266 375Q216 375 188 330T160 233ZM204 670Q204 705 226 737Q254 745 266 745Q285 745 305 737Q326 705 326 667Q326
630 305 593Q289 585 270 585T226 593Q204 632 204 670ZM374 670Q374 705 396 737Q424 745 436 745Q455 745 475 737Q496 705 496 667Q496 630 475 593Q459 585 440 585T396 593Q374 632 374 670Z" />
<glyph unicode="&#xe5;" glyph-name="aring" horiz-adv-x="623" d="M35 207Q35 279 56 346T125 463T237 512Q266 512 288 502T323 478T344 449T355 424T359 414Q359 468 358 485Q378 502 399 507T459 513Q489 513 512 511T548 506T567 500T577 496L579 495Q583
486 583 439Q583 391 579 382Q576 375 547 370T497 364Q487 364 475 366Q478 360 478 315Q478 184 469 170Q476 173 486 173Q530 173 572 164Q580 158 580 79Q580 35 577 23Q570 12 533 2T449 -8Q364 -8 344 -4Q337 15 337 28Q337 36 340 40Q328 36 272 10T191
-16Q114 -16 75 49T35 207ZM160 233Q160 177 194 139T267 100Q288 100 315 111T344 131Q347 177 349 215T353 274T355 301V313Q355 334 328 354T266 375Q216 375 188 330T160 233ZM240 656Q240 706 278 750T372 794Q417 794 438 764T459 686Q459 627 427 596T342
565Q292 565 266 591T240 656ZM291 663Q291 642 304 627T338 611Q364 611 387 636T411 693Q411 715 399 731T365 747Q336 747 314 719T291 663Z" />
<glyph unicode="&#xe6;" glyph-name="ae" horiz-adv-x="832" d="M35 209Q35 281 56 348T126 463T241 512Q268 512 289 504T323 485T344 462T356 442L359 434Q359 468 358 485Q396 516 450 516Q488 516 533 501Q568 510 604 510Q683 510 725 472T768 373Q768 299
707 250T570 201Q517 201 481 227Q481 177 511 151T588 125Q626 125 657 143T710 180T741 199Q760 199 783 166T813 91Q810 67 788 40T743 0Q724 0 707 12T683 37Q634 -10 563 -10Q527 -10 486 -1Q441 -9 405 -9Q377 -9 334 -4Q327 15 327 28Q327 36 330 40Q315
35 267 10T184 -16Q114 -16 75 49T35 209ZM143 233Q143 177 177 139T249 100Q271 100 308 111T347 131Q349 175 352 216T356 278T358 313Q358 332 321 353T249 375Q199 375 171 330T143 233ZM510 326Q510 293 558 293Q594 293 627 310T660 352Q660 369 649 387T612
406Q581 406 546 381T510 326Z" />
<glyph unicode="&#xe7;" glyph-name="ccedilla" horiz-adv-x="610" d="M32 237Q32 286 53 333T114 421T216 486T357 511Q381 511 394 510L402 535Q432 541 460 541Q515 541 567 508Q573 460 573 435Q573 361 544 349Q516 338 490 338Q442 338 372 357L378 396Q358
398 346 398Q273 398 220 358T166 241Q166 177 203 146T293 115Q324 115 374 128L371 164Q421 197 493 197Q513 197 540 192Q577 146 577 86Q577 61 570 7Q528 -27 454 -27Q434 -27 408 -25L397 -9Q368 -12 341 -12Q320 -12 282 -8Q284 -44 285 -44Q312 -21 340
-21Q376 -21 397 -53T418 -130Q418 -178 394 -213T325 -249Q291 -249 255 -225Q255 -246 249 -248Q245 -248 238 -248T228 -249Q218 -249 207 -246Q202 -224 202 -207Q202 -182 212 -166Q224 -163 236 -163Q247 -163 259 -166V-174Q283 -198 309 -198Q331 -198
345 -181T360 -135Q360 -111 349 -93T322 -75Q311 -75 294 -91T268 -107Q254 -107 242 -102Q231 -86 231 -53Q231 -24 236 1Q142 27 87 91T32 237Z" />
<glyph unicode="&#xe8;" glyph-name="egrave" horiz-adv-x="559" d="M32 209Q32 322 113 416T296 510Q358 510 402 472T446 373Q446 302 388 252T233 201Q178 201 156 218Q157 170 190 142T266 113Q322 113 357 157Q357 165 360 174Q404 210 455 210Q465 210 470
209Q536 173 551 91Q550 83 544 74T530 59T510 44T490 31T468 19T451 10Q445 10 441 11T434 16T429 21T425 29T421 37Q347 -12 262 -12Q167 -12 100 49T32 209ZM135 721Q158 746 200 746Q208 746 213 745Q258 696 299 594Q296 591 284 591Q275 591 269 594Q176
651 135 721ZM188 326Q188 293 236 293Q272 293 305 310T338 352Q338 369 327 387T290 406Q259 406 224 381T188 326Z" />
<glyph unicode="&#xe9;" glyph-name="eacute" horiz-adv-x="559" d="M32 209Q32 322 113 416T296 510Q358 510 402 472T446 373Q446 302 388 252T233 201Q178 201 156 218Q157 170 190 142T266 113Q322 113 357 157Q357 165 360 174Q404 210 455 210Q465 210 470
209Q536 173 551 91Q550 83 544 74T530 59T510 44T490 31T468 19T451 10Q445 10 441 11T434 16T429 21T425 29T421 37Q347 -12 262 -12Q167 -12 100 49T32 209ZM188 326Q188 293 236 293Q272 293 305 310T338 352Q338 369 327 387T290 406Q259 406 224 381T188
326ZM230 595Q271 697 316 746Q325 748 343 748Q387 748 424 722Q397 675 346 631T255 587Q241 587 230 595Z" />
<glyph unicode="&#xea;" glyph-name="ecircumflex" horiz-adv-x="559" d="M32 209Q32 322 113 416T296 510Q358 510 402 472T446 373Q446 302 388 252T233 201Q178 201 156 218Q157 170 190 142T266 113Q322 113 357 157Q357 165 360 174Q404 210 455 210Q465
210 470 209Q536 173 551 91Q550 83 544 74T530 59T510 44T490 31T468 19T451 10Q445 10 441 11T434 16T429 21T425 29T421 37Q347 -12 262 -12Q167 -12 100 49T32 209ZM116 553Q141 595 196 651T286 708T377 653T458 553Q449 549 441 549T422 553Q390 570 346
601T287 654Q270 633 225 599T152 553Q140 549 136 549Q128 549 116 553ZM188 326Q188 293 236 293Q272 293 305 310T338 352Q338 369 327 387T290 406Q259 406 224 381T188 326Z" />
<glyph unicode="&#xeb;" glyph-name="edieresis" horiz-adv-x="559" d="M32 209Q32 322 113 416T296 510Q358 510 402 472T446 373Q446 302 388 252T233 201Q178 201 156 218Q157 170 190 142T266 113Q322 113 357 157Q357 165 360 174Q404 210 455 210Q465 210
470 209Q536 173 551 91Q550 83 544 74T530 59T510 44T490 31T468 19T451 10Q445 10 441 11T434 16T429 21T425 29T421 37Q347 -12 262 -12Q167 -12 100 49T32 209ZM141 650Q141 685 163 717Q191 725 203 725Q222 725 242 717Q263 685 263 647Q263 610 242 573Q226
565 207 565T163 573Q141 612 141 650ZM188 326Q188 293 236 293Q272 293 305 310T338 352Q338 369 327 387T290 406Q259 406 224 381T188 326ZM311 650Q311 685 333 717Q361 725 373 725Q392 725 412 717Q433 685 433 647Q433 610 412 573Q396 565 377 565T333
573Q311 612 311 650Z" />
<glyph unicode="&#xec;" glyph-name="igrave" horiz-adv-x="358" d="M28 83Q28 134 34 141Q46 148 64 150Q76 152 116 152Q110 215 110 289Q110 370 120 392Q71 392 55 396Q56 423 62 453Q64 466 74 504Q111 511 198 511Q233 511 262 507T307 498T323 487Q325
487 325 451Q325 400 314 379Q312 373 292 373Q254 373 244 378Q233 308 233 196Q233 150 236 148Q242 149 253 149Q289 149 311 138Q314 134 314 120Q314 95 307 60T287 12Q275 0 209 0Q52 0 35 29Q28 42 28 83ZM95 721Q118 746 160 746Q168 746 173 745Q218 696
259 594Q256 591 244 591Q235 591 229 594Q136 651 95 721Z" />
<glyph unicode="&#xed;" glyph-name="iacute" horiz-adv-x="358" d="M28 83Q28 134 34 141Q46 148 64 150Q76 152 116 152Q110 215 110 289Q110 370 120 392Q71 392 55 396Q56 423 62 453Q64 466 74 504Q111 511 198 511Q233 511 262 507T307 498T323 487Q325
487 325 451Q325 400 314 379Q312 373 292 373Q254 373 244 378Q233 308 233 196Q233 150 236 148Q242 149 253 149Q289 149 311 138Q314 134 314 120Q314 95 307 60T287 12Q275 0 209 0Q52 0 35 29Q28 42 28 83ZM160 595Q201 697 246 746Q255 748 273 748Q317
748 354 722Q327 675 276 631T185 587Q171 587 160 595Z" />
<glyph unicode="&#xee;" glyph-name="icircumflex" horiz-adv-x="358" d="M26 553Q51 595 106 651T196 708T287 653T368 553Q359 549 351 549T332 553Q300 570 256 601T197 654Q180 633 135 599T62 553Q50 549 46 549Q38 549 26 553ZM28 83Q28 134 34 141Q46 148
64 150Q76 152 116 152Q110 215 110 289Q110 370 120 392Q71 392 55 396Q56 423 62 453Q64 466 74 504Q111 511 198 511Q233 511 262 507T307 498T323 487Q325 487 325 451Q325 400 314 379Q312 373 292 373Q254 373 244 378Q233 308 233 196Q233 150 236 148Q242
149 253 149Q289 149 311 138Q314 134 314 120Q314 95 307 60T287 12Q275 0 209 0Q52 0 35 29Q28 42 28 83Z" />
<glyph unicode="&#xef;" glyph-name="idieresis" horiz-adv-x="358" d="M28 83Q28 134 34 141Q46 148 64 150Q76 152 116 152Q110 215 110 289Q110 370 120 392Q71 392 55 396Q56 423 62 453Q64 466 74 504Q111 511 198 511Q233 511 262 507T307 498T323 487Q325
487 325 451Q325 400 314 379Q312 373 292 373Q254 373 244 378Q233 308 233 196Q233 150 236 148Q242 149 253 149Q289 149 311 138Q314 134 314 120Q314 95 307 60T287 12Q275 0 209 0Q52 0 35 29Q28 42 28 83ZM61 660Q61 695 83 727Q111 735 123 735Q142 735
162 727Q183 695 183 657Q183 620 162 583Q146 575 127 575T83 583Q61 622 61 660ZM231 660Q231 695 253 727Q281 735 293 735Q312 735 332 727Q353 695 353 657Q353 620 332 583Q316 575 297 575T253 583Q231 622 231 660Z" />
<glyph unicode="&#xf0;" glyph-name="eth" horiz-adv-x="561" d="M34 207Q34 275 66 340T162 448T305 492Q325 492 346 489Q337 507 308 531T255 562Q247 555 223 535T186 504Q171 506 159 515T146 537Q146 539 146 541T147 544Q153 550 168 562T190 582Q151 592
119 593Q113 598 113 608Q113 619 118 630T131 643Q139 644 154 644Q172 644 237 635Q266 660 301 694Q318 693 329 683T340 657Q330 644 322 634T309 619Q408 577 466 486T524 277Q524 150 455 75T261 0Q149 0 92 59T34 207ZM160 217Q160 173 187 141T257 109Q314
109 362 159T411 275Q411 323 383 355T310 387Q248 387 204 332T160 217Z" />
<glyph unicode="&#xf1;" glyph-name="ntilde" horiz-adv-x="724" d="M33 70Q33 132 60 147Q85 156 128 156Q134 156 144 154Q144 183 142 247T140 345Q136 345 107 343T73 340Q69 340 61 342T49 344Q45 348 45 365Q45 392 53 432T68 482Q97 500 174 500Q235 500
253 494T272 462Q272 432 267 402Q361 510 470 510Q642 510 642 268Q642 219 636 173Q636 175 645 175Q660 175 692 170Q701 160 701 105Q701 36 691 20Q616 0 561 0Q522 0 471 18Q464 23 456 53T448 106Q448 139 466 163Q477 170 495 170Q509 170 522 165Q522
168 522 191T523 220Q523 283 489 330T402 378Q357 378 320 342T282 227Q282 199 285 154Q297 161 316 161Q334 161 338 156Q348 156 348 116Q348 107 338 34Q266 -1 155 -1Q64 -1 42 27Q33 38 33 70ZM209 624Q219 718 284 718Q316 718 361 694T416 670Q446 670
460 732Q468 736 473 736Q495 736 518 699Q508 605 443 605Q415 605 369 629T311 653Q280 653 267 592Q260 587 250 587Q227 587 209 624Z" />
<glyph unicode="&#xf2;" glyph-name="ograve" horiz-adv-x="532" d="M35 213Q35 337 109 423T301 510Q355 510 394 491T455 437T486 362T496 272Q496 134 426 62T242 -10Q182 -10 139 10T75 65T44 136T35 213ZM178 221Q178 171 209 135T283 99Q320 99 347 129T384
194T394 259Q394 304 367 337T299 371Q249 371 214 324T178 221ZM183 721Q206 746 248 746Q256 746 261 745Q306 696 347 594Q344 591 332 591Q323 591 317 594Q224 651 183 721Z" />
<glyph unicode="&#xf3;" glyph-name="oacute" horiz-adv-x="532" d="M35 213Q35 337 109 423T301 510Q355 510 394 491T455 437T486 362T496 272Q496 134 426 62T242 -10Q182 -10 139 10T75 65T44 136T35 213ZM178 221Q178 171 209 135T283 99Q320 99 347 129T384
194T394 259Q394 304 367 337T299 371Q249 371 214 324T178 221ZM258 595Q299 697 344 746Q353 748 371 748Q415 748 452 722Q425 675 374 631T283 587Q269 587 258 595Z" />
<glyph unicode="&#xf4;" glyph-name="ocircumflex" horiz-adv-x="532" d="M35 213Q35 337 109 423T301 510Q355 510 394 491T455 437T486 362T496 272Q496 134 426 62T242 -10Q182 -10 139 10T75 65T44 136T35 213ZM114 573Q139 615 194 671T284 728T375 673T456
573Q447 569 439 569T420 573Q388 590 344 621T285 674Q268 653 223 619T150 573Q138 569 134 569Q126 569 114 573ZM178 221Q178 171 209 135T283 99Q320 99 347 129T384 194T394 259Q394 304 367 337T299 371Q249 371 214 324T178 221Z" />
<glyph unicode="&#xf5;" glyph-name="otilde" horiz-adv-x="532" d="M35 213Q35 337 109 423T301 510Q355 510 394 491T455 437T486 362T496 272Q496 134 426 62T242 -10Q182 -10 139 10T75 65T44 136T35 213ZM140 614Q150 708 215 708Q247 708 292 684T347 660Q377
660 391 722Q399 726 404 726Q426 726 449 689Q439 595 374 595Q346 595 300 619T242 643Q211 643 198 582Q190 577 181 577Q158 577 140 614ZM178 221Q178 171 209 135T283 99Q320 99 347 129T384 194T394 259Q394 304 367 337T299 371Q249 371 214 324T178 221Z"
/>
<glyph unicode="&#xf6;" glyph-name="odieresis" horiz-adv-x="532" d="M35 213Q35 337 109 423T301 510Q355 510 394 491T455 437T486 362T496 272Q496 134 426 62T242 -10Q182 -10 139 10T75 65T44 136T35 213ZM149 670Q149 705 171 737Q199 745 211 745Q230
745 250 737Q271 705 271 667Q271 630 250 593Q234 585 215 585T171 593Q149 632 149 670ZM178 221Q178 171 209 135T283 99Q320 99 347 129T384 194T394 259Q394 304 367 337T299 371Q249 371 214 324T178 221ZM319 670Q319 705 341 737Q369 745 381 745Q400 745
420 737Q441 705 441 667Q441 630 420 593Q404 585 385 585T341 593Q319 632 319 670Z" />
<glyph unicode="&#xf7;" glyph-name="divide" horiz-adv-x="620" d="M29 299Q29 318 37 323Q130 334 371 334Q428 334 470 332T543 327T583 323Q592 312 592 301T583 276Q579 270 482 267T317 263Q229 263 37 276Q29 285 29 299ZM257 140Q257 175 279 207Q307
215 319 215Q338 215 358 207Q379 175 379 137Q379 100 358 63Q342 55 323 55T279 63Q257 102 257 140ZM257 475Q257 510 279 542Q307 550 319 550Q338 550 358 542Q379 510 379 472Q379 436 358 398Q342 390 323 390T279 398Q257 437 257 475Z" />
<glyph unicode="&#xf8;" glyph-name="oslash" horiz-adv-x="532" d="M34 214Q34 291 63 356T156 466T306 510Q354 510 396 490L415 510Q433 519 444 519Q460 519 468 500L449 443Q495 377 495 265Q495 132 424 61T238 -10Q210 -10 183 -5L159 -31Q141 -46 129
-46Q112 -46 106 -20Q110 -6 120 20Q34 76 34 214ZM177 222Q177 182 198 148Q256 273 322 367Q311 371 297 371Q248 371 213 323T177 222ZM248 105Q263 99 281 99Q319 99 346 129T383 194T393 259Q393 296 375 324Q324 214 248 105Z" />
<glyph unicode="&#xf9;" glyph-name="ugrave" horiz-adv-x="725" d="M23 395Q23 464 33 480Q108 500 163 500Q202 500 253 482Q260 477 268 447T276 394Q276 361 258 337Q247 330 229 330Q215 330 202 335Q202 332 202 309T201 280Q201 217 235 170T322 122Q367
122 404 158T442 273Q442 301 439 346Q427 339 408 339Q390 339 386 344Q376 344 376 384Q376 393 386 466Q458 501 572 501Q658 501 682 472Q691 460 691 430Q691 368 664 353Q628 344 604 344Q590 344 580 346Q580 317 582 253T584 155Q588 155 617 157T651 160Q655
160 663 158T675 156Q679 152 679 135Q679 108 671 68T656 18Q626 0 542 0Q488 0 470 7T452 38Q452 68 457 98Q363 -10 254 -10Q82 -10 82 232Q82 280 88 326Q87 325 79 325Q64 325 32 330Q23 340 23 395ZM208 721Q230 746 273 746Q281 746 286 745Q331 696 372
594Q369 591 357 591Q348 591 342 594Q249 651 208 721Z" />
<glyph unicode="&#xfa;" glyph-name="uacute" horiz-adv-x="725" d="M23 395Q23 464 33 480Q108 500 163 500Q202 500 253 482Q260 477 268 447T276 394Q276 361 258 337Q247 330 229 330Q215 330 202 335Q202 332 202 309T201 280Q201 217 235 170T322 122Q367
122 404 158T442 273Q442 301 439 346Q427 339 408 339Q390 339 386 344Q376 344 376 384Q376 393 386 466Q458 501 572 501Q658 501 682 472Q691 460 691 430Q691 368 664 353Q628 344 604 344Q590 344 580 346Q580 317 582 253T584 155Q588 155 617 157T651 160Q655
160 663 158T675 156Q679 152 679 135Q679 108 671 68T656 18Q626 0 542 0Q488 0 470 7T452 38Q452 68 457 98Q363 -10 254 -10Q82 -10 82 232Q82 280 88 326Q87 325 79 325Q64 325 32 330Q23 340 23 395ZM263 595Q304 697 349 746Q358 748 376 748Q420 748 457
722Q430 675 379 631T288 587Q274 587 263 595Z" />
<glyph unicode="&#xfb;" glyph-name="ucircumflex" horiz-adv-x="725" d="M23 395Q23 464 33 480Q108 500 163 500Q202 500 253 482Q260 477 268 447T276 394Q276 361 258 337Q247 330 229 330Q215 330 202 335Q202 332 202 309T201 280Q201 217 235 170T322 122Q367
122 404 158T442 273Q442 301 439 346Q427 339 408 339Q390 339 386 344Q376 344 376 384Q376 393 386 466Q458 501 572 501Q658 501 682 472Q691 460 691 430Q691 368 664 353Q628 344 604 344Q590 344 580 346Q580 317 582 253T584 155Q588 155 617 157T651 160Q655
160 663 158T675 156Q679 152 679 135Q679 108 671 68T656 18Q626 0 542 0Q488 0 470 7T452 38Q452 68 457 98Q363 -10 254 -10Q82 -10 82 232Q82 280 88 326Q87 325 79 325Q64 325 32 330Q23 340 23 395ZM169 573Q194 615 249 671T339 728T430 673T511 573Q502
569 494 569T475 573Q443 590 399 621T340 674Q323 653 278 619T205 573Q193 569 189 569Q181 569 169 573Z" />
<glyph unicode="&#xfc;" glyph-name="udieresis" horiz-adv-x="725" d="M23 395Q23 464 33 480Q108 500 163 500Q202 500 253 482Q260 477 268 447T276 394Q276 361 258 337Q247 330 229 330Q215 330 202 335Q202 332 202 309T201 280Q201 217 235 170T322 122Q367
122 404 158T442 273Q442 301 439 346Q427 339 408 339Q390 339 386 344Q376 344 376 384Q376 393 386 466Q458 501 572 501Q658 501 682 472Q691 460 691 430Q691 368 664 353Q628 344 604 344Q590 344 580 346Q580 317 582 253T584 155Q588 155 617 157T651 160Q655
160 663 158T675 156Q679 152 679 135Q679 108 671 68T656 18Q626 0 542 0Q488 0 470 7T452 38Q452 68 457 98Q363 -10 254 -10Q82 -10 82 232Q82 280 88 326Q87 325 79 325Q64 325 32 330Q23 340 23 395ZM174 640Q174 675 196 707Q224 715 236 715Q255 715 275
707Q296 675 296 637Q296 600 275 563Q259 555 240 555T196 563Q174 602 174 640ZM344 640Q344 675 366 707Q394 715 406 715Q425 715 445 707Q466 675 466 637Q466 600 445 563Q429 555 410 555T366 563Q344 602 344 640Z" />
<glyph unicode="&#xfd;" glyph-name="yacute" horiz-adv-x="714" d="M2 -199Q2 -155 13 -104T41 -34Q54 -28 70 -28Q109 -28 144 -52Q148 -55 148 -65Q148 -71 145 -83Q183 -111 216 -120T303 -129Q342 -129 369 -125T425 -108T469 -66T484 7Q484 44 477 70Q392
-1 299 -1Q201 -1 141 77T81 277Q81 310 87 336Q81 333 73 333T49 336T31 340Q18 367 18 410Q18 456 32 480Q110 499 160 499Q221 499 269 482Q293 452 293 409Q293 372 274 347Q264 341 253 341Q244 341 229 346Q217 310 217 271Q217 138 323 138Q385 138 429
182T473 293Q473 317 465 346Q451 338 429 338Q416 338 412 344Q395 355 395 404Q395 455 412 466Q434 501 530 501Q576 501 623 493T688 477Q692 451 692 427Q692 383 680 367Q671 358 658 358Q651 358 645 359T630 364T619 368Q625 200 625 176Q625 72 613 -3T577
-125T517 -201T436 -239T333 -250Q218 -250 125 -203Q116 -236 114 -236Q97 -250 64 -250Q44 -250 26 -245T5 -233Q2 -220 2 -199ZM301 595Q342 697 387 746Q396 748 414 748Q458 748 495 722Q468 675 417 631T326 587Q312 587 301 595Z" />
<glyph unicode="&#xfe;" glyph-name="thorn" horiz-adv-x="586" d="M-20 -181T-20 -152T-6 -103Q-1 -95 16 -90T50 -85Q62 -85 66 -86Q66 -68 65 7T64 170Q64 275 65 355T68 468T72 535T74 575Q71 574 57 574Q34 574 3 581Q-16 606 -16 653Q-16 692 -2 722Q19
738 58 748T135 758Q169 758 190 749Q195 730 195 664Q195 456 194 455Q240 485 272 497T342 510Q440 510 495 441T551 276Q551 172 485 95T299 17Q250 17 195 33Q199 14 199 -18Q199 -63 191 -86Q195 -85 217 -85Q256 -85 267 -103Q273 -124 273 -151Q273 -175
267 -196Q241 -220 126 -220Q22 -220 -6 -196Q-20 -181 -20 -152ZM196 223Q196 176 220 151T281 126Q334 126 383 172T433 281Q433 324 408 355T341 386Q287 386 242 338T196 223Z" />
<glyph unicode="&#xff;" glyph-name="ydieresis" horiz-adv-x="714" d="M2 -199Q2 -155 13 -104T41 -34Q54 -28 70 -28Q109 -28 144 -52Q148 -55 148 -65Q148 -71 145 -83Q183 -111 216 -120T303 -129Q342 -129 369 -125T425 -108T469 -66T484 7Q484 44 477 70Q392
-1 299 -1Q201 -1 141 77T81 277Q81 310 87 336Q81 333 73 333T49 336T31 340Q18 367 18 410Q18 456 32 480Q110 499 160 499Q221 499 269 482Q293 452 293 409Q293 372 274 347Q264 341 253 341Q244 341 229 346Q217 310 217 271Q217 138 323 138Q385 138 429
182T473 293Q473 317 465 346Q451 338 429 338Q416 338 412 344Q395 355 395 404Q395 455 412 466Q434 501 530 501Q576 501 623 493T688 477Q692 451 692 427Q692 383 680 367Q671 358 658 358Q651 358 645 359T630 364T619 368Q625 200 625 176Q625 72 613 -3T577
-125T517 -201T436 -239T333 -250Q218 -250 125 -203Q116 -236 114 -236Q97 -250 64 -250Q44 -250 26 -245T5 -233Q2 -220 2 -199ZM202 660Q202 695 224 727Q252 735 264 735Q283 735 303 727Q324 695 324 657Q324 620 303 583Q287 575 268 575T224 583Q202 622
202 660ZM372 660Q372 695 394 727Q422 735 434 735Q453 735 473 727Q494 695 494 657Q494 620 473 583Q457 575 438 575T394 583Q372 622 372 660Z" />
<glyph unicode="&#x2013;" glyph-name="endash" horiz-adv-x="491" d="M54 277Q54 289 58 298Q140 309 275 309Q383 309 434 298Q438 287 438 274Q438 259 434 251Q385 238 259 238Q174 238 58 252Q54 258 54 277Z" />
<glyph unicode="&#x2014;" glyph-name="emdash" horiz-adv-x="653" d="M55 277Q55 289 59 298Q154 309 376 309Q436 309 480 307T555 302T595 298Q599 287 599 274Q599 259 595 251Q587 251 559 247T489 241T392 238Q307 238 186 242T59 252Q55 258 55 277Z" />
<glyph unicode="&#x2018;" glyph-name="quoteleft" horiz-adv-x="215" d="M24 403Q35 461 61 509T133 612Q153 632 179 632Q178 568 171 522T140 421Q95 397 68 397Q51 397 24 403Z" />
<glyph unicode="&#x2019;" glyph-name="quoteright" horiz-adv-x="214" d="M41 397Q42 461 49 507T80 608Q125 632 152 632Q169 632 196 626Q185 568 159 520T87 417Q67 397 41 397Z" />
<glyph unicode="&#x201a;" glyph-name="quotesinglbase" horiz-adv-x="210" d="M19 -103Q20 -39 27 7T58 108Q103 132 130 132Q147 132 174 126Q163 68 137 20T65 -83Q45 -103 19 -103Z" />
<glyph unicode="&#x201c;" glyph-name="quotedblleft" horiz-adv-x="385" d="M24 403Q35 461 61 509T133 612Q153 632 179 632Q178 568 171 522T140 421Q95 397 68 397Q51 397 24 403ZM194 403Q205 461 231 509T303 612Q323 632 349 632Q348 568 341 522T310 421Q265
397 238 397Q221 397 194 403Z" />
<glyph unicode="&#x201d;" glyph-name="quotedblright" horiz-adv-x="384" d="M41 397Q42 461 49 507T80 608Q125 632 152 632Q169 632 196 626Q185 568 159 520T87 417Q67 397 41 397ZM211 397Q212 461 219 507T250 608Q295 632 322 632Q339 632 366 626Q355
568 329 520T257 417Q237 397 211 397Z" />
<glyph unicode="&#x201e;" glyph-name="quotedblbase" horiz-adv-x="380" d="M19 -103Q20 -39 27 7T58 108Q103 132 130 132Q147 132 174 126Q163 68 137 20T65 -83Q45 -103 19 -103ZM189 -103Q190 -39 197 7T228 108Q273 132 300 132Q317 132 344 126Q333 68
307 20T235 -83Q215 -103 189 -103Z" />
<glyph unicode="&#x2022;" glyph-name="bullet" horiz-adv-x="351" d="M44 320Q44 374 78 428Q127 460 174 460Q220 460 273 428Q306 373 306 314Q306 256 273 194Q216 156 170 156Q123 156 78 194Q44 264 44 320Z" />
<glyph unicode="&#x2039;" glyph-name="guilsinglleft" horiz-adv-x="275" d="M29 239Q99 387 190 477Q206 493 223 493Q237 493 242 477Q229 341 96 239Q211 164 236 11Q224 -11 207 -11Q199 -11 193 -5Q83 93 29 239Z" />
<glyph unicode="&#x203a;" glyph-name="guilsinglright" horiz-adv-x="277" d="M34 477Q39 493 53 493Q70 493 86 477Q177 387 247 239Q224 171 170 95T84 -5Q76 -11 69 -11Q52 -11 40 11Q65 164 180 239Q47 341 34 477Z" />
</font>
</defs>
</svg>
