<?xml version="1.0" standalone="no"?>
<!DOCTYPE svg PUBLIC "-//W3C//DTD SVG 1.1//EN" "http://www.w3.org/Graphics/SVG/1.1/DTD/svg11.dtd">
<svg xmlns="http://www.w3.org/2000/svg">
<defs >
<font id="Imprima" horiz-adv-x="434" ><font-face
    font-family="Imprima"
    units-per-em="1000"
    panose-1="0 0 0 0 0 0 0 0 0 0"
    ascent="919"
    descent="-239"
    alphabetic="0" />
<glyph unicode=" " glyph-name="space" horiz-adv-x="250" />
<glyph unicode="!" glyph-name="exclam" horiz-adv-x="270" d="M102 180L92 660H178L168 180H102ZM80 17T80 41T94 80T134 96T175 81T190 41T176 2T135 -14T94 1Z" />
<glyph unicode="&quot;" glyph-name="quotedbl" horiz-adv-x="303" d="M191 457L181 680H263L253 457H191ZM50 457L40 680H122L112 457H50Z" />
<glyph unicode="#" glyph-name="numbersign" horiz-adv-x="518" d="M290 -26L318 171H159L131 -26H63L91 171H-14L-6 233H100L122 386H17L25 449H131L160 646H228L199 449H358L386 646H454L425 449H532L524 386H416L394 233H501L492 171H385L357 -26H290ZM190
386L168 233H327L349 386H190Z" />
<glyph unicode="$" glyph-name="dollar" horiz-adv-x="518" d="M75 465Q75 536 121 583T258 635L263 705H316L311 634Q380 626 438 589L406 527Q356 557 306 563L291 351L336 337Q396 318 426 275T456 168T406 50T266 -14L261 -85H208L213 -15Q116 -11 61 27L94
87Q138 58 218 55L234 291L185 307Q126 326 101 371T75 465ZM381 172Q381 243 306 268L286 274L271 58Q323 67 352 99T381 172ZM149 468Q149 396 220 374L240 367L253 564Q202 559 176 532T149 468Z" />
<glyph unicode="%" glyph-name="percent" horiz-adv-x="770" d="M215 -85L481 705H555L289 -85H215ZM291 507T291 420T257 279T154 224T50 279T15 420T49 561T153 616T257 562ZM221 362T221 420T204 514T153 551T102 515T85 420T102 326T153 289T204 325ZM479
113T479 200T513 341T616 396T720 341T755 200T721 59T617 4T513 58ZM549 258T549 200T566 106T617 69T668 105T685 200T668 294T617 331T566 295Z" />
<glyph unicode="&amp;" glyph-name="ampersand" horiz-adv-x="606" d="M606 378V310H493Q488 149 432 68T259 -14T88 43T35 188Q35 240 63 285T145 353Q67 400 67 485T118 617T259 664T417 618L383 548Q366 565 333 578T267 592Q209 592 178 565T147 491Q147 457
174 422Q190 403 225 391T312 378H606ZM251 58Q417 58 417 310H251Q188 310 152 274T115 185T148 95T251 58Z" />
<glyph unicode="&apos;" glyph-name="quotesingle" horiz-adv-x="162" d="M50 457L40 680H122L112 457H50Z" />
<glyph unicode="(" glyph-name="parenleft" horiz-adv-x="246" d="M121 -20T91 89T60 309T90 530T175 713L231 670Q189 611 164 503T138 310T163 117T231 -50L175 -93Q121 -20 91 89Z" />
<glyph unicode=")" glyph-name="parenright" horiz-adv-x="246" d="M108 225T108 310T83 503T15 670L71 713Q125 640 155 531T186 310T156 89T71 -93L15 -50Q57 9 82 117Z" />
<glyph unicode="*" glyph-name="asterisk" horiz-adv-x="433" d="M283 486L257 563L388 590L403 540L283 486L349 370L306 340L217 438L283 486ZM217 438L127 340L85 371L151 486L217 438ZM151 486L30 541L46 590L176 563L151 486ZM176 563L191 695H242L257 563H176Z" />
<glyph unicode="+" glyph-name="plus" horiz-adv-x="518" d="M47 275V347H223V523H295V347H471V275H295V99H223V275H47Z" />
<glyph unicode="," glyph-name="comma" horiz-adv-x="210" d="M108 96Q145 96 160 73L66 -136L33 -126L49 41Q55 96 108 96Z" />
<glyph unicode="-" glyph-name="hyphen" horiz-adv-x="408" d="M358 220H50V292H358V220Z" />
<glyph unicode="." glyph-name="period" horiz-adv-x="210" d="M50 17T50 41T64 80T104 96T145 81T160 41T146 2T105 -14T64 1Z" />
<glyph unicode="/" glyph-name="slash" horiz-adv-x="312" d="M-30 -92L269 772H342L42 -92H-30Z" />
<glyph unicode="0" glyph-name="zero" horiz-adv-x="518" d="M29 165T29 310T86 545T258 636T431 545T489 310T431 75T258 -16T86 74ZM107 422T107 310T144 128T258 57T372 128T411 310T373 492T258 563T145 493Z" />
<glyph unicode="1" glyph-name="one" horiz-adv-x="518" d="M112 0V72H241L240 620H320V72H432V0H112ZM103 500L85 570L240 620V540L103 500Z" />
<glyph unicode="2" glyph-name="two" horiz-adv-x="518" d="M317 363T334 397T352 470T321 537T227 565Q193 565 161 556Q115 542 97 527L65 589Q137 636 232 636T379 588T432 468Q432 381 337 271L161 72H438V0H52V63L272 312Q317 363 334 397Z" />
<glyph unicode="3" glyph-name="three" horiz-adv-x="518" d="M79 87Q128 55 207 55T326 90T365 171T333 249T235 280H140V349H176Q309 349 343 430Q351 449 351 468Q351 510 320 537T226 565Q192 565 160 556Q114 542 96 527L64 589Q136 636 231 636T376 588T427
465Q427 374 346 326Q441 283 441 176Q441 97 382 41T216 -16T46 27L79 87Z" />
<glyph unicode="4" glyph-name="four" horiz-adv-x="518" d="M332 0V142H33V183L211 620H296L130 214H332V450H410V214H463V142H410V0H332Z" />
<glyph unicode="5" glyph-name="five" horiz-adv-x="518" d="M421 620V548H181L173 361H243Q348 361 398 310T449 178T390 41T224 -16T54 27L87 87Q136 55 215 55T334 90T373 174T341 256T243 290H96L109 620H421Z" />
<glyph unicode="6" glyph-name="six" horiz-adv-x="518" d="M428 520Q386 565 310 565T187 498T130 317Q203 378 283 378Q339 378 380 360T442 312Q482 256 482 192Q482 105 429 45T269 -16T106 61T50 256Q50 426 119 531T310 636Q408 636 463 581L428 520ZM281
308Q192 308 129 229Q142 55 271 55Q335 55 369 93T404 184Q404 213 396 238T358 286T281 308Z" />
<glyph unicode="7" glyph-name="seven" horiz-adv-x="518" d="M466 620V579L224 0H137L368 548H58V620H466Z" />
<glyph unicode="8" glyph-name="eight" horiz-adv-x="518" d="M43 163Q43 277 153 329Q66 378 66 464Q66 538 116 587T259 636T402 588T452 459T367 327Q475 279 475 163Q475 90 418 37T259 -16T101 37T43 163ZM119 163Q119 118 156 87T259 55T362 86T399 166T365
243T256 290Q233 295 219 300Q119 247 119 163ZM142 508T142 466T175 398T291 351Q376 396 376 469Q376 510 346 537T260 565T173 537Z" />
<glyph unicode="9" glyph-name="nine" horiz-adv-x="518" d="M218 55Q284 55 331 116T388 295Q312 235 226 235Q173 235 134 254T74 303Q36 359 36 426Q36 513 90 574T248 636Q309 636 353 612T422 544Q468 463 468 344Q468 169 396 77T215 -16T40 39L81 100Q128
55 218 55ZM226 305Q267 305 311 324T388 384Q382 464 349 514T249 565T149 525T114 433T140 343T226 305Z" />
<glyph unicode=":" glyph-name="colon" horiz-adv-x="260" d="M100 17T100 41T114 80T154 96T195 81T210 41T196 2T155 -14T114 1ZM100 377T100 401T114 440T154 456T195 441T210 401T196 362T155 346T114 361Z" />
<glyph unicode=";" glyph-name="semicolon" horiz-adv-x="260" d="M158 96Q195 96 210 73L116 -136L83 -126L99 41Q105 96 158 96ZM100 377T100 401T114 440T154 456T195 441T210 401T196 362T155 346T114 361Z" />
<glyph unicode="&lt;" glyph-name="less" horiz-adv-x="518" d="M70 286V335L406 534L443 473L169 311L443 149L406 88L70 286Z" />
<glyph unicode="=" glyph-name="equal" horiz-adv-x="518" d="M471 437V365H47V437H471ZM47 185V257H471V185H47Z" />
<glyph unicode="&gt;" glyph-name="greater" horiz-adv-x="518" d="M448 335V286L112 88L75 149L349 311L75 473L112 534L448 335Z" />
<glyph unicode="?" glyph-name="question" horiz-adv-x="354" d="M175 180H105V247Q105 295 123 332T159 386T206 423T245 454T267 483T278 525Q278 564 248 584T172 604Q92 604 42 552L0 608Q71 674 175 674Q251 674 302 636T354 525Q354 487 338 456T305 410T260
375T217 342T189 303T175 247V180ZM85 17T85 41T99 80T139 96T180 81T195 41T181 2T140 -14T99 1Z" />
<glyph unicode="@" glyph-name="at" horiz-adv-x="806" d="M299 181T323 150T386 118T452 159T479 275V371Q445 385 412 385Q363 385 331 346T299 244ZM413 -93Q247 -93 159 4T70 250T158 495T405 593T650 495T736 250Q736 167 693 113T576 58Q541 58 515 80T483
132H477Q463 96 435 77T376 58Q312 58 271 106T229 243T280 388T411 444T548 409V169Q548 119 584 119Q626 119 647 158T668 250Q668 369 600 450T406 531T209 451T138 250T209 49T413 -31Q511 -31 578 15L611 -35Q526 -93 413 -93Z" />
<glyph unicode="A" glyph-name="A" horiz-adv-x="556" d="M327 680L556 0H473L407 200H149L83 0H0L229 680H327ZM278 592L172 272H383L278 592Z" />
<glyph unicode="B" glyph-name="B" horiz-adv-x="564" d="M90 0V680H340Q408 680 456 632T504 516Q504 469 480 431T416 371Q470 350 502 306T534 203Q534 118 475 59T331 0H90ZM329 334H170V72H329Q382 72 420 111T458 203T420 295T329 334ZM325 608H170V406H325Q368
406 398 435T428 507T398 579T325 608Z" />
<glyph unicode="C" glyph-name="C" horiz-adv-x="534" d="M336 -16Q193 -16 122 83T50 340T121 597T336 696Q430 696 507 649L479 582Q413 623 336 623Q233 623 182 545T130 340T181 136T336 57Q421 57 489 99L524 37Q438 -16 336 -16Z" />
<glyph unicode="D" glyph-name="D" horiz-adv-x="651" d="M90 0V680H333Q477 680 549 585T621 340T549 95T333 0H90ZM333 608H170V72H333Q437 72 489 146T541 340T489 533T333 608Z" />
<glyph unicode="E" glyph-name="E" horiz-adv-x="510" d="M78 0V680H448V608H158V376H395V304H158V72H468V0H78Z" />
<glyph unicode="F" glyph-name="F" horiz-adv-x="460" d="M90 0V680H450V608H170V376H397V304H170V0H90Z" />
<glyph unicode="G" glyph-name="G" horiz-adv-x="645" d="M339 -16Q241 -16 175 33T79 160T50 340T79 520T174 647T349 696T542 650L514 582Q434 623 334 623T182 545T130 340T181 135T331 57T494 92V304H341V376H570V53Q460 -16 339 -16Z" />
<glyph unicode="H" glyph-name="H" horiz-adv-x="664" d="M90 0V680H170V377H494V680H574V0H494V303H170V0H90Z" />
<glyph unicode="I" glyph-name="I" horiz-adv-x="260" d="M90 0V680H170V0H90Z" />
<glyph unicode="J" glyph-name="J" horiz-adv-x="427" d="M171 56Q272 56 272 192V680H352V192Q352 93 305 39T182 -16Q73 -16 0 57L44 113Q104 56 171 56Z" />
<glyph unicode="K" glyph-name="K" horiz-adv-x="551" d="M90 0V680H170V361H234L437 680H526L322 360Q372 356 397 331T441 260L536 8L460 -16L361 246Q349 282 330 288Q321 291 308 291H170V0H90Z" />
<glyph unicode="L" glyph-name="L" horiz-adv-x="447" d="M170 72H447V0H90V680H170V72Z" />
<glyph unicode="M" glyph-name="M" horiz-adv-x="815" d="M80 0L105 680H198L407 201L617 680H710L735 0H655L635 532L449 106H366L179 532L160 0H80Z" />
<glyph unicode="N" glyph-name="N" horiz-adv-x="680" d="M90 0V680H183L510 127V680H590V0H497L170 553V0H90Z" />
<glyph unicode="O" glyph-name="O" horiz-adv-x="674" d="M50 182T50 340T121 597T336 696Q433 696 499 647T595 520T624 340T595 160T500 33T336 -16Q193 -16 122 83ZM130 466T130 340T181 136T336 57T492 136T544 340T492 544T337 623T182 545Z" />
<glyph unicode="P" glyph-name="P" horiz-adv-x="509" d="M90 0V680H301Q386 680 445 621T504 477T445 333T301 274H170V0H90ZM298 607H170V347H298Q350 347 387 385T425 477T388 568T298 607Z" />
<glyph unicode="Q" glyph-name="Q" horiz-adv-x="674" d="M546 -143Q484 -183 427 -183T334 -144T298 -20V-14Q173 0 112 96T50 345T121 597T336 696Q433 696 500 647Q624 555 624 340Q624 194 562 97T374 -14V-24Q374 -112 435 -112Q464 -112 516 -89L546 -143ZM130
466T130 340T181 136T336 57T492 136T544 340T492 544T337 623T182 545Z" />
<glyph unicode="R" glyph-name="R" horiz-adv-x="579" d="M90 0V680H323Q404 680 461 624T518 485Q518 427 488 380T406 309Q436 296 450 260L545 8L469 -16L370 246Q356 282 342 287Q334 290 322 291H170V0H90ZM319 607H170V361H319Q368 361 403 398T438 485T403
571T319 607Z" />
<glyph unicode="S" glyph-name="S" horiz-adv-x="511" d="M106 103T154 81T260 59T359 89T401 173T366 259T280 306T179 340T93 399T57 509Q57 602 117 649T260 696Q373 696 447 649L407 585Q350 621 259 621Q211 621 174 594T137 514Q137 447 206 416Q236 402
272 391T345 365T412 329Q481 282 481 183T418 34T257 -16Q128 -16 30 76L76 136Q106 103 154 81Z" />
<glyph unicode="T" glyph-name="T" horiz-adv-x="470" d="M195 0V608H5V680H465V608H275V0H195Z" />
<glyph unicode="U" glyph-name="U" horiz-adv-x="653" d="M75 680H155V248Q155 163 197 110T326 57T455 110T498 248V680H578V253Q578 134 515 59T326 -16T138 59T75 253V680Z" />
<glyph unicode="V" glyph-name="V" horiz-adv-x="556" d="M83 680L278 88L473 680H556L327 0H229L0 680H83Z" />
<glyph unicode="W" glyph-name="W" horiz-adv-x="825" d="M549 0L411 533L268 0H175L0 680H83L223 120L373 680H455L596 120L745 680H825L642 0H549Z" />
<glyph unicode="X" glyph-name="X" horiz-adv-x="573" d="M25 680H118L285 424L453 680H546L331 353L563 0H471L286 281L102 0H10L240 352L25 680Z" />
<glyph unicode="Y" glyph-name="Y" horiz-adv-x="528" d="M224 0V235L0 680H88L264 314L440 680H528L304 235V0H224Z" />
<glyph unicode="Z" glyph-name="Z" horiz-adv-x="501" d="M486 0H15V68L369 608H40V680H481V639L110 72H486V0Z" />
<glyph unicode="[" glyph-name="bracketleft" horiz-adv-x="277" d="M261 0V-60H90V682H170L169 0H261ZM262 682V622H170V682H262Z" />
<glyph unicode="\" glyph-name="backslash" horiz-adv-x="312" d="M269 -92L-30 772H42L342 -92H269Z" />
<glyph unicode="]" glyph-name="bracketright" horiz-adv-x="277" d="M16 -60V0H108L107 682H187V-60H16ZM15 622V682H107V622H15Z" />
<glyph unicode="^" glyph-name="asciicircum" horiz-adv-x="518" d="M235 656H284L482 320L421 283L259 557L97 283L36 320L235 656Z" />
<glyph unicode="_" glyph-name="underscore" horiz-adv-x="624" d="M574 -72H50V0H574V-72Z" />
<glyph unicode="`" glyph-name="grave" horiz-adv-x="210" d="M70 735Q96 735 122 700L224 560L200 535L20 682Q38 735 70 735Z" />
<glyph unicode="a" glyph-name="a" horiz-adv-x="564" d="M241 -14Q155 -14 100 51T45 238T114 437T287 514T474 456V100L484 0L418 -5L401 85Q345 -14 241 -14ZM121 150T159 102T256 54T357 113T398 282V421Q348 446 291 446Q217 446 169 389T121 241Z" />
<glyph unicode="b" glyph-name="b" horiz-adv-x="554" d="M151 700V418Q206 514 313 514Q397 514 450 449T504 262T435 63T265 -14T120 42T75 196V700H151ZM428 351T394 398T299 446T195 391T151 222V196Q151 133 177 94T258 54Q332 54 380 111T428 260Z" />
<glyph unicode="c" glyph-name="c" horiz-adv-x="446" d="M433 48Q361 -14 266 -14T108 50T45 236T107 436T281 514Q350 514 409 478L390 417Q337 446 283 446Q209 446 165 390T121 241T161 101T265 54Q345 54 403 102L433 48Z" />
<glyph unicode="d" glyph-name="d" horiz-adv-x="564" d="M241 -14Q155 -14 100 51T45 238T114 437T291 514Q344 514 398 495V700H474V100L484 0L418 -5L401 85Q345 -14 241 -14ZM121 150T159 102T256 54T357 113T398 282V421Q348 446 291 446Q217 446 169 389T121 241Z" />
<glyph unicode="e" glyph-name="e" horiz-adv-x="484" d="M252 -14Q162 -14 104 49T45 234T114 435T293 514Q363 514 406 472T449 366T384 249T193 196Q160 196 123 199Q130 128 166 91T255 54Q342 54 400 108L436 59Q360 -14 252 -14ZM290 446Q221 446 176 397T122
267Q155 262 195 262Q281 262 327 294T373 368Q373 399 351 422T290 446Z" />
<glyph unicode="f" glyph-name="f" horiz-adv-x="303" d="M40 435V500H105V551Q105 636 140 675T233 714T353 674L323 620Q271 643 242 643Q181 643 181 555V500H296V435H181V-160H105V435H40Z" />
<glyph unicode="g" glyph-name="g" horiz-adv-x="559" d="M474 -86T405 -162T232 -239T45 -181L83 -122Q107 -142 147 -155T228 -168Q302 -168 350 -111T398 35V82Q342 -14 241 -14Q155 -14 100 51T45 238T114 437T287 514T474 456V34Q474 -86 405 -162ZM121 150T159
102T256 54T357 114T398 285V421Q348 446 291 446Q217 446 169 389T121 241Z" />
<glyph unicode="h" glyph-name="h" horiz-adv-x="574" d="M499 0H423V304Q423 446 322 446Q264 446 217 386T166 221V0H90V700H166V403Q196 457 241 485T335 514Q499 514 499 304V0Z" />
<glyph unicode="i" glyph-name="i" horiz-adv-x="256" d="M80 623T80 644T92 678T127 692T163 678T176 644T163 610T127 596T92 609ZM90 0V500H166V0H90Z" />
<glyph unicode="j" glyph-name="j" horiz-adv-x="256" d="M82 624T82 644T94 677T128 690T162 677T174 644T162 611T128 598T94 611ZM29 -168Q90 -168 90 -80V500H166V-76Q166 -161 131 -200T38 -239T-82 -199L-52 -145Q0 -168 29 -168Z" />
<glyph unicode="k" glyph-name="k" horiz-adv-x="508" d="M467 385Q467 283 346 223L478 0H390L274 197Q229 184 166 178V0H90V700H166V421Q226 514 324 514Q396 514 431 478T467 385ZM322 446Q256 446 211 390T166 267V245Q277 254 334 292T391 380Q391 409 374
427T322 446Z" />
<glyph unicode="l" glyph-name="l" horiz-adv-x="263" d="M75 700H151V110Q151 55 196 55Q225 55 253 75L283 21Q228 -14 179 -14T103 13T75 110V700Z" />
<glyph unicode="m" glyph-name="m" horiz-adv-x="872" d="M320 514Q440 514 470 389Q499 449 544 481T638 514Q715 514 756 462T797 304V0H721V304Q721 446 626 446Q571 446 527 386T479 221V0H403V304Q403 446 308 446Q253 446 209 386T161 221V0H85V400L75 500L141
505L160 404Q190 457 233 485T320 514Z" />
<glyph unicode="n" glyph-name="n" horiz-adv-x="569" d="M330 514Q494 514 494 304V0H418V304Q418 446 317 446Q259 446 212 386T161 221V0H85V400L75 500L141 505L160 402Q191 456 237 485T330 514Z" />
<glyph unicode="o" glyph-name="o" horiz-adv-x="541" d="M50 133T50 250T105 440T269 514T435 441T491 250T435 60T270 -14T105 59ZM126 337T126 250T162 109T270 54T378 108T415 250T379 391T270 446T162 392Z" />
<glyph unicode="p" glyph-name="p" horiz-adv-x="564" d="M318 514Q404 514 459 449T514 262T445 63T268 -14Q215 -14 161 5V-225H85V400L75 500L141 505L158 413Q214 514 318 514ZM438 350T400 398T304 446T204 389T161 226V82Q213 54 268 54Q342 54 390 111T438 259Z" />
<glyph unicode="q" glyph-name="q" horiz-adv-x="569" d="M479 -225H403V78Q348 -15 241 -15Q157 -15 104 50T50 237T119 436T291 513T479 454V-225ZM241 53Q310 53 356 114T403 289V421Q357 445 290 445T174 388T126 240T158 101T241 53Z" />
<glyph unicode="r" glyph-name="r" horiz-adv-x="352" d="M161 0H85V400L75 500L141 505L161 385Q191 447 237 479T337 511L342 435Q166 421 161 166V0Z" />
<glyph unicode="s" glyph-name="s" horiz-adv-x="431" d="M216 55Q260 55 290 76T320 128T303 178T267 205T211 223T156 241T111 265Q62 295 62 367T111 477T226 514Q267 514 308 503T371 480L343 419Q295 445 226 445Q191 445 165 427T138 380T154 335T187 312T239
295T295 277T344 250Q396 215 396 140T345 25T216 -14Q112 -14 40 53L81 108Q136 55 216 55Z" />
<glyph unicode="t" glyph-name="t" horiz-adv-x="331" d="M29 435V500H105L129 650H181V500H298V435H181V109Q181 54 226 54Q260 54 300 83L328 32Q270 -14 215 -14T133 12T105 109V435H29Z" />
<glyph unicode="u" glyph-name="u" horiz-adv-x="569" d="M75 500H151V196Q151 54 252 54Q310 54 357 113T408 278V500H484V100L494 0L428 -5L408 98Q378 44 332 15T239 -14Q75 -14 75 196V500Z" />
<glyph unicode="v" glyph-name="v" horiz-adv-x="472" d="M87 500L237 87L386 500H467L281 0H191L5 500H87Z" />
<glyph unicode="w" glyph-name="w" horiz-adv-x="706" d="M317 500H389L503 118L611 500H691L550 0H465L353 369L241 0H156L15 500H95L203 118L317 500Z" />
<glyph unicode="x" glyph-name="x" horiz-adv-x="435" d="M16 500H106L220 323L335 500H425L266 253L430 0H340L217 189L95 0H5L172 258L16 500Z" />
<glyph unicode="y" glyph-name="y" horiz-adv-x="475" d="M197 -239L132 -217L200 -26L5 500H87L238 82L387 500H467L197 -239Z" />
<glyph unicode="z" glyph-name="z" horiz-adv-x="420" d="M42 435V500H400L138 65H399V0H11L271 435H42Z" />
<glyph unicode="{" glyph-name="braceleft" horiz-adv-x="277" d="M187 0H262V-60H170Q140 -60 115 -43T90 20V239Q90 263 78 274T30 286V336Q65 336 77 347T90 383V602Q90 648 115 665T170 682H262V622H187Q170 622 170 605V372Q170 347 158 331T121 314V308Q146
308 158 292T170 250V17Q170 0 187 0Z" />
<glyph unicode="|" glyph-name="bar" horiz-adv-x="272" d="M90 -76V756H182V-76H90Z" />
<glyph unicode="}" glyph-name="braceright" horiz-adv-x="277" d="M15 0H90Q107 0 107 17V250Q107 275 119 291T156 308V314Q131 314 119 330T107 372V605Q107 622 90 622H15V682H107Q137 682 162 665T187 602V383Q187 359 199 348T247 336V286Q212 286 200 275T187
239V20Q187 -26 162 -43T107 -60H15V0Z" />
<glyph unicode="~" glyph-name="asciitilde" horiz-adv-x="518" d="M353 248Q314 248 253 286T165 325Q129 325 98 269L42 300Q95 398 165 398Q204 398 265 360T353 321Q389 321 420 377L476 346Q423 248 353 248Z" />
<glyph unicode="&#xa1;" glyph-name="exclamdown" horiz-adv-x="270" d="M80 434T80 458T94 497T134 513T175 498T190 458T176 419T135 403T94 418ZM92 -161L102 319H168L178 -161H92Z" />
<glyph unicode="&#xa2;" glyph-name="cent" horiz-adv-x="518" d="M172 74T124 136T75 310T130 496T284 582L293 705H346L337 583Q390 577 439 548L419 484Q375 507 332 512L306 127Q385 131 439 181L476 129Q403 59 301 56L291 -85H238L248 60Q172 74 124 136ZM154
314Q154 163 253 133L279 509Q221 496 188 444T154 314Z" />
<glyph unicode="&#xa3;" glyph-name="sterling" horiz-adv-x="518" d="M44 268V333H108V352Q108 499 166 567T326 636Q397 636 448 612L417 552Q376 571 318 571Q179 571 179 352V333H387V268H179V71H451V0H108V268H44Z" />
<glyph unicode="&#xa4;" glyph-name="currency" horiz-adv-x="518" d="M113 212Q87 255 87 310T112 407L41 478L90 527L160 456Q202 482 257 482T355 456L427 528L476 479L404 407Q431 365 431 311T405 214L477 142L428 93L356 164Q314 138 258 138T162 163L91
92L42 141L113 212ZM151 357T151 310T179 233T258 202T338 233T367 310T339 387T259 418T179 388Z" />
<glyph unicode="&#xa5;" glyph-name="yen" horiz-adv-x="518" d="M74 308V368H160L32 619H114L259 329L404 619H486L358 368H444V308H327L304 263H444V203H294V0H224V203H74V263H213L190 308H74Z" />
<glyph unicode="&#xa6;" glyph-name="brokenbar" horiz-adv-x="272" d="M90 418V700H182V418H90ZM90 -76V262H182V-76H90Z" />
<glyph unicode="&#xa7;" glyph-name="section" horiz-adv-x="412" d="M236 -67T269 -38T302 39T283 112T233 151T170 181T109 226T67 300L74 308L183 256Q194 251 220 239T261 220T297 200T331 174T357 142Q382 107 382 48Q382 -41 326 -87T195 -134Q97 -134 30
-87L62 -29Q121 -67 178 -67ZM178 627T145 598T112 521T131 448T181 409T244 379T305 334T347 260L340 252L231 304Q220 309 194 321T153 340T117 360T83 386T57 418Q32 453 32 512Q32 601 88 647T226 694T374 647L342 589Q283 627 231 627Z" />
<glyph unicode="&#xa8;" glyph-name="dieresis" horiz-adv-x="370" d="M226 623T226 644T238 678T273 692T309 678T322 644T309 610T273 596T238 609ZM48 623T48 644T60 678T95 692T131 678T144 644T131 610T95 596T60 609Z" />
<glyph unicode="&#xa9;" glyph-name="copyright" horiz-adv-x="642" d="M35 406T35 529T109 733T318 815T530 733T607 529T531 326T319 243T109 324ZM85 631T85 529T146 359T319 291T494 359T557 529T494 698T319 767T146 699ZM435 390Q384 352 323 352T219 396T175
524T217 660T336 713Q384 713 425 687L411 634Q373 660 330 660T259 622T231 525T258 435T330 405T410 433L435 390Z" />
<glyph unicode="&#xaa;" glyph-name="ordfeminine" horiz-adv-x="355" d="M240 506Q208 452 154 452T65 492T30 606T73 727T179 774T296 737V527L303 461L248 456L240 506ZM92 558T111 533T161 507T213 539T235 632V708Q209 720 176 720T118 689T92 608Z" />
<glyph unicode="&#xab;" glyph-name="guillemotleft" horiz-adv-x="377" d="M189 219T189 242T211 290L316 414L347 399L282 242L347 85L316 70L211 194Q189 219 189 242ZM30 219T30 242T52 290L157 414L188 399L123 242L188 85L157 70L52 194Q30 219 30 242Z" />
<glyph unicode="&#xac;" glyph-name="logicalnot" horiz-adv-x="518" d="M47 275V347H471V147H403V275H47Z" />
<glyph unicode="&#xae;" glyph-name="registered" horiz-adv-x="642" d="M35 406T35 529T109 733T318 815T530 733T607 529T531 326T319 243T109 324ZM85 631T85 529T146 359T319 291T494 359T557 529T494 698T319 767T146 699ZM343 501H272V360H215V705H345Q388
705 418 675T448 602Q448 546 401 517Q408 511 414 497L463 367L411 349L359 485Q353 501 343 501ZM343 654H272V550H343Q363 550 377 565T392 602T378 639T343 654Z" />
<glyph unicode="&#xaf;" glyph-name="overscore" horiz-adv-x="417" d="M73 605V677H344V605H73Z" />
<glyph unicode="&#xb0;" glyph-name="degree" horiz-adv-x="252" d="M10 505T10 555T40 638T125 671T211 638T242 555T212 472T126 439T40 472ZM99 495T125 495T168 510T185 554T168 598T125 614T83 599T66 555T82 511Z" />
<glyph unicode="&#xb1;" glyph-name="plusminus" horiz-adv-x="518" d="M47 275V347H223V523H295V347H471V275H295V99H223V275H47ZM47 -48V24H471V-48H47Z" />
<glyph unicode="&#xb2;" glyph-name="twosuperior" horiz-adv-x="331" d="M208 524Q208 545 192 558T151 572T107 566Q73 554 66 543L39 597Q91 630 149 630T239 600T272 520T215 405L125 301H276V244H34V291L163 438Q208 490 208 524Z" />
<glyph unicode="&#xb3;" glyph-name="threesuperior" horiz-adv-x="331" d="M54 315Q91 291 133 291T195 309T216 351T200 391T149 407H85V462H115Q166 462 187 481T208 523T192 558T139 572T66 543L39 597Q91 630 148 630T237 600T269 522Q269 499 256 476T215
443Q243 434 260 408T278 354Q278 305 241 270T139 234T28 264L54 315Z" />
<glyph unicode="&#xb4;" glyph-name="acute" horiz-adv-x="210" d="M195 735Q227 735 245 682L65 535L41 560L143 700Q169 735 195 735Z" />
<glyph unicode="&#xb5;" glyph-name="mu" horiz-adv-x="569" d="M75 500H151V196Q151 54 252 54Q310 54 357 113T408 278V500H484V0L428 -5L408 98Q378 44 332 15T239 -14Q169 -14 136 32L128 -204H75V500Z" />
<glyph unicode="&#xb6;" glyph-name="paragraph" horiz-adv-x="469" d="M258 -225H217V316Q208 315 189 315Q110 315 55 370T0 504T55 638T189 694T323 639T379 504V-225H303V504H258V-225Z" />
<glyph unicode="&#xb7;" glyph-name="middot" horiz-adv-x="210" d="M50 263T50 287T64 326T104 342T145 327T160 287T146 248T105 232T64 247Z" />
<glyph unicode="&#xb8;" glyph-name="cedilla" horiz-adv-x="381" d="M163 -88H139L158 0H207L196 -50Q243 -50 262 -73T281 -126T255 -180T177 -204Q155 -204 135 -197T104 -184L95 -177L118 -136Q142 -153 168 -153T206 -143T219 -118Q219 -88 163 -88Z" />
<glyph unicode="&#xb9;" glyph-name="onesuperior" horiz-adv-x="331" d="M143 554L66 532L51 589L149 620H207V301H272V244H69V301H143V554Z" />
<glyph unicode="&#xba;" glyph-name="ordmasculine" horiz-adv-x="344" d="M35 542T35 613T69 729T171 774T274 729T309 613T274 497T171 452T69 497ZM97 661T97 613T115 536T171 507T228 536T247 613T228 690T171 720T115 691Z" />
<glyph unicode="&#xbb;" glyph-name="guillemotright" horiz-adv-x="377" d="M347 265T347 242T325 194L220 70L189 85L254 242L189 399L220 414L325 290Q347 265 347 242ZM188 265T188 242T166 194L61 70L30 85L95 242L30 399L61 414L166 290Q188 265 188 242Z" />
<glyph unicode="&#xbc;" glyph-name="onequarter" horiz-adv-x="780" d="M162 554L85 532L70 589L168 620H226V301H291V244H88V301H162V554ZM625 136V273H688V136H719V78H688V-4H625V78H452V111L559 372H626L529 136H625ZM261 0L469 620H527L319 0H261Z" />
<glyph unicode="&#xbd;" glyph-name="onehalf" horiz-adv-x="780" d="M162 554L85 532L70 589L168 620H226V301H291V244H88V301H162V554ZM652 280Q652 301 636 314T595 328T551 322Q517 310 510 299L483 353Q535 386 593 386T683 356T716 276T659 161L569 57H720V0H478V47L607
194Q652 246 652 280ZM255 0L463 620H521L313 0H255Z" />
<glyph unicode="&#xbe;" glyph-name="threequarters" horiz-adv-x="780" d="M73 315Q110 291 152 291T214 309T235 351T219 391T168 407H104V462H134Q185 462 206 481T227 523T211 558T158 572T85 543L58 597Q110 630 167 630T256 600T288 522Q288 499 275 476T234
443Q262 434 279 408T297 354Q297 305 260 270T158 234T47 264L73 315ZM625 136V273H688V136H719V78H688V-4H625V78H452V111L559 372H626L529 136H625ZM261 0L469 620H527L319 0H261Z" />
<glyph unicode="&#xbf;" glyph-name="questiondown" horiz-adv-x="354" d="M179 320H249V253Q249 205 231 168T195 114T148 77T109 46T87 17T76 -25Q76 -64 106 -84T182 -104Q262 -104 312 -52L354 -108Q283 -174 179 -174Q103 -174 52 -136T0 -25Q0 13 16 44T49
90T94 125T137 158T165 197T179 253V320ZM269 483T269 459T255 420T215 404T174 419T159 459T173 498T214 514T255 499Z" />
<glyph unicode="&#xc0;" glyph-name="Agrave" horiz-adv-x="556" d="M327 680L556 0H473L407 200H149L83 0H0L229 680H327ZM278 592L172 272H383L278 592ZM223 915Q249 915 275 880L377 740L353 715L173 862Q191 915 223 915Z" />
<glyph unicode="&#xc1;" glyph-name="Aacute" horiz-adv-x="556" d="M327 680L556 0H473L407 200H149L83 0H0L229 680H327ZM278 592L172 272H383L278 592ZM333 915Q365 915 383 862L203 715L179 740L281 880Q307 915 333 915Z" />
<glyph unicode="&#xc2;" glyph-name="Acircumflex" horiz-adv-x="556" d="M327 680L556 0H473L407 200H149L83 0H0L229 680H327ZM278 592L172 272H383L278 592ZM234 879Q253 907 277 907T322 879L419 742L395 717L278 824L161 717L137 742L234 879Z" />
<glyph unicode="&#xc3;" glyph-name="Atilde" horiz-adv-x="556" d="M327 680L556 0H473L407 200H149L83 0H0L229 680H327ZM278 592L172 272H383L278 592ZM345 770Q320 770 277 785T213 800Q173 800 166 756L119 764Q137 872 206 872Q232 872 277 857T342 842Q382
842 389 886L436 878Q417 770 345 770Z" />
<glyph unicode="&#xc4;" glyph-name="Adieresis" horiz-adv-x="556" d="M473 0L407 200H149L83 0H0L229 680H327L556 0H473ZM278 592L172 272H383L278 592ZM319 803T319 824T331 858T366 872T402 858T415 824T402 790T366 776T331 789ZM141 803T141 824T153 858T188
872T224 858T237 824T224 790T188 776T153 789Z" />
<glyph unicode="&#xc5;" glyph-name="Aring" horiz-adv-x="556" d="M327 680L556 0H473L407 200H149L83 0H0L229 680H327ZM278 592L172 272H383L278 592ZM177 774T177 818T203 890T277 919T352 890T379 818T353 746T278 717T203 745ZM228 840T228 818T241 782T277
768T314 782T328 818T315 853T278 868T241 854Z" />
<glyph unicode="&#xc6;" glyph-name="AE" horiz-adv-x="759" d="M724 0H425L373 272H172L83 0H0L229 680H684V608H387L439 344H669V272H453L492 72H724V0ZM283 608L196 344H359L309 608H283Z" />
<glyph unicode="&#xc7;" glyph-name="Ccedilla" horiz-adv-x="559" d="M254 -88H230L248 -1Q154 31 107 121T60 340Q60 498 131 597T346 696Q440 696 517 649L489 582Q423 623 346 623Q243 623 192 545T140 340T191 136T346 57Q431 57 499 99L534 37Q448 -16 346
-16Q316 -16 295 -12L287 -50Q334 -50 353 -73T372 -126T346 -180T268 -204Q246 -204 226 -197T196 -184L186 -177L209 -136Q233 -153 259 -153T297 -143T310 -118Q310 -88 254 -88Z" />
<glyph unicode="&#xc8;" glyph-name="Egrave" horiz-adv-x="510" d="M78 0V680H448V608H158V376H395V304H158V72H468V0H78ZM200 915Q226 915 252 880L354 740L330 715L150 862Q168 915 200 915Z" />
<glyph unicode="&#xc9;" glyph-name="Eacute" horiz-adv-x="510" d="M78 0V680H448V608H158V376H395V304H158V72H468V0H78ZM310 915Q342 915 360 862L180 715L156 740L258 880Q284 915 310 915Z" />
<glyph unicode="&#xca;" glyph-name="Ecircumflex" horiz-adv-x="510" d="M78 0V680H448V608H158V376H395V304H158V72H468V0H78ZM211 879Q230 907 254 907T299 879L396 742L372 717L255 824L138 717L114 742L211 879Z" />
<glyph unicode="&#xcb;" glyph-name="Edieresis" horiz-adv-x="510" d="M78 0V680H448V608H158V376H395V304H158V72H468V0H78ZM296 803T296 824T308 858T343 872T379 858T392 824T379 790T343 776T308 789ZM118 803T118 824T130 858T165 872T201 858T214 824T201
790T165 776T130 789Z" />
<glyph unicode="&#xcc;" glyph-name="Igrave" horiz-adv-x="260" d="M90 0V680H170V0H90ZM75 915Q101 915 127 880L229 740L205 715L25 862Q43 915 75 915Z" />
<glyph unicode="&#xcd;" glyph-name="Iacute" horiz-adv-x="260" d="M90 0V680H170V0H90ZM185 915Q217 915 235 862L55 715L31 740L133 880Q159 915 185 915Z" />
<glyph unicode="&#xce;" glyph-name="Icircumflex" horiz-adv-x="260" d="M90 0V680H170V0H90ZM86 879Q105 907 129 907T174 879L271 742L247 717L130 824L13 717L-11 742L86 879Z" />
<glyph unicode="&#xcf;" glyph-name="Idieresis" horiz-adv-x="260" d="M90 0V680H170V0H90ZM171 803T171 824T183 858T218 872T254 858T267 824T254 790T218 776T183 789ZM-7 803T-7 824T5 858T40 872T76 858T89 824T76 790T40 776T5 789Z" />
<glyph unicode="&#xd0;" glyph-name="Eth" horiz-adv-x="651" d="M90 0V304H23V376H90V680H333Q477 680 549 585T621 340T549 95T333 0H90ZM373 304H170V72H333Q437 72 489 146T541 340T489 533T333 608H170V376H373V304Z" />
<glyph unicode="&#xd1;" glyph-name="Ntilde" horiz-adv-x="680" d="M90 0V680H183L510 127V680H590V0H497L170 553V0H90ZM407 770Q382 770 338 785T275 800Q235 800 228 756L181 764Q199 872 268 872Q294 872 339 857T404 842Q444 842 451 886L498 878Q479 770 407 770Z" />
<glyph unicode="&#xd2;" glyph-name="Ograve" horiz-adv-x="674" d="M50 182T50 340T121 597T336 696Q433 696 499 647T595 520T624 340T595 160T500 33T336 -16Q193 -16 122 83ZM130 466T130 340T181 136T336 57T492 136T544 340T492 544T337 623T182 545ZM282
915Q308 915 334 880L436 740L412 715L232 862Q250 915 282 915Z" />
<glyph unicode="&#xd3;" glyph-name="Oacute" horiz-adv-x="674" d="M50 182T50 340T121 597T336 696Q433 696 499 647T595 520T624 340T595 160T500 33T336 -16Q193 -16 122 83ZM130 466T130 340T181 136T336 57T492 136T544 340T492 544T337 623T182 545ZM392
915Q424 915 442 862L262 715L238 740L340 880Q366 915 392 915Z" />
<glyph unicode="&#xd4;" glyph-name="Ocircumflex" horiz-adv-x="674" d="M50 182T50 340T121 597T336 696Q433 696 499 647T595 520T624 340T595 160T500 33T336 -16Q193 -16 122 83ZM130 466T130 340T181 136T336 57T492 136T544 340T492 544T337 623T182 545ZM293
879Q312 907 336 907T381 879L478 742L454 717L337 824L220 717L196 742L293 879Z" />
<glyph unicode="&#xd5;" glyph-name="Otilde" horiz-adv-x="674" d="M50 182T50 340T121 597T336 696Q433 696 499 647T595 520T624 340T595 160T500 33T336 -16Q193 -16 122 83ZM130 466T130 340T181 136T336 57T492 136T544 340T492 544T337 623T182 545ZM404
770Q378 770 335 785T272 800Q232 800 225 756L178 764Q196 872 265 872Q290 872 336 857T401 842Q441 842 448 886L495 878Q476 770 404 770Z" />
<glyph unicode="&#xd6;" glyph-name="Odieresis" horiz-adv-x="674" d="M50 182T50 340T121 597T336 696Q433 696 499 647T595 520T624 340T595 160T500 33T336 -16Q193 -16 122 83ZM130 466T130 340T181 136T336 57T492 136T544 340T492 544T337 623T182 545ZM378
803T378 824T390 858T425 872T461 858T474 824T461 790T425 776T390 789ZM200 803T200 824T212 858T247 872T283 858T296 824T283 790T247 776T212 789Z" />
<glyph unicode="&#xd7;" glyph-name="multiply" horiz-adv-x="518" d="M113 114L62 165L208 311L62 457L113 508L259 362L405 508L456 457L310 311L456 165L405 114L259 260L113 114Z" />
<glyph unicode="&#xd8;" glyph-name="Oslash" horiz-adv-x="674" d="M50 340Q50 498 121 597T336 696Q379 696 420 685L450 772H523L483 658Q553 616 588 532T624 343T595 160T500 33T336 -16Q292 -16 253 -5L223 -92H151L190 21Q120 63 85 147T50 340ZM544 340Q544
511 457 582L277 65Q306 57 336 57Q440 57 492 136T544 340ZM130 340Q130 167 216 97L395 615Q366 623 336 623Q233 623 182 545T130 340Z" />
<glyph unicode="&#xd9;" glyph-name="Ugrave" horiz-adv-x="653" d="M75 680H155V248Q155 163 197 110T326 57T455 110T498 248V680H578V253Q578 134 515 59T326 -16T138 59T75 253V680ZM271 915Q297 915 323 880L425 740L401 715L221 862Q239 915 271 915Z" />
<glyph unicode="&#xda;" glyph-name="Uacute" horiz-adv-x="653" d="M75 680H155V248Q155 163 197 110T326 57T455 110T498 248V680H578V253Q578 134 515 59T326 -16T138 59T75 253V680ZM381 915Q413 915 431 862L251 715L227 740L329 880Q355 915 381 915Z" />
<glyph unicode="&#xdb;" glyph-name="Ucircumflex" horiz-adv-x="653" d="M75 680H155V248Q155 163 197 110T326 57T455 110T498 248V680H578V253Q578 134 515 59T326 -16T138 59T75 253V680ZM282 879Q301 907 325 907T370 879L467 742L443 717L326 824L209 717L185
742L282 879Z" />
<glyph unicode="&#xdc;" glyph-name="Udieresis" horiz-adv-x="653" d="M75 680H155V248Q155 163 197 110T326 57T455 110T498 248V680H578V253Q578 134 515 59T326 -16T138 59T75 253V680ZM367 803T367 824T379 858T414 872T450 858T463 824T450 790T414 776T379
789ZM189 803T189 824T201 858T236 872T272 858T285 824T272 790T236 776T201 789Z" />
<glyph unicode="&#xdd;" glyph-name="Yacute" horiz-adv-x="528" d="M224 0V235L0 680H88L264 314L440 680H528L304 235V0H224ZM319 915Q351 915 369 862L189 715L165 740L267 880Q293 915 319 915Z" />
<glyph unicode="&#xde;" glyph-name="Thorn" horiz-adv-x="509" d="M90 0V680H170V543H301Q386 543 445 484T504 340T445 196T301 137H170V0H90ZM298 470H170V210H298Q350 210 387 248T425 340T388 431T298 470Z" />
<glyph unicode="&#xdf;" glyph-name="germandbls" horiz-adv-x="579" d="M40 435V500H105V551Q105 633 160 676T292 719T427 679T486 575Q486 532 467 498T426 447Q365 401 365 362Q365 340 386 323T437 293T497 263T548 216T569 142Q569 65 518 26T389 -14Q285
-14 213 53L254 108Q309 55 389 55Q434 56 463 76T492 131T471 185T420 216T360 243T309 285T288 352T307 424T348 471Q409 514 409 569Q409 606 374 629T292 652T214 627T181 555V-160H105V435H40Z" />
<glyph unicode="&#xe0;" glyph-name="agrave" horiz-adv-x="564" d="M241 -14Q155 -14 100 51T45 238T114 437T287 514T474 456V100L484 0L418 -5L401 85Q345 -14 241 -14ZM121 150T159 102T256 54T357 113T398 282V421Q348 446 291 446Q217 446 169 389T121 241ZM209
735Q235 735 261 700L363 560L339 535L159 682Q177 735 209 735Z" />
<glyph unicode="&#xe1;" glyph-name="aacute" horiz-adv-x="564" d="M241 -14Q155 -14 100 51T45 238T114 437T287 514T474 456V100L484 0L418 -5L401 85Q345 -14 241 -14ZM121 150T159 102T256 54T357 113T398 282V421Q348 446 291 446Q217 446 169 389T121 241ZM369
735Q401 735 419 682L239 535L215 560L317 700Q343 735 369 735Z" />
<glyph unicode="&#xe2;" glyph-name="acircumflex" horiz-adv-x="564" d="M241 -14Q155 -14 100 51T45 238T114 437T287 514T474 456V100L484 0L418 -5L401 85Q345 -14 241 -14ZM197 54T256 54T356 110T398 270V421Q348 446 291 446Q217 446 169 389T121 241T159
102ZM235 699Q254 727 278 727T323 699L420 562L396 537L279 644L162 537L138 562L235 699Z" />
<glyph unicode="&#xe3;" glyph-name="atilde" horiz-adv-x="564" d="M241 -14Q155 -14 100 51T45 238T114 437T287 514T474 456V100L484 0L418 -5L401 85Q345 -14 241 -14ZM197 54T256 54T356 110T398 270V421Q348 446 291 446Q217 446 169 389T121 241T159 102ZM347
590Q322 590 279 605T215 620Q175 620 168 576L121 584Q139 692 208 692Q233 692 278 677T344 662Q384 662 391 706L438 698Q419 590 347 590Z" />
<glyph unicode="&#xe4;" glyph-name="adieresis" horiz-adv-x="564" d="M241 -14Q155 -14 100 51T45 238T114 437T287 514T474 456V100L484 0L418 -5L401 85Q345 -14 241 -14ZM121 150T159 102T256 54T357 113T398 282V421Q348 446 291 446Q217 446 169 389T121
241ZM320 623T320 644T332 678T367 692T403 678T416 644T403 610T367 596T332 609ZM142 623T142 644T154 678T189 692T225 678T238 644T225 610T189 596T154 609Z" />
<glyph unicode="&#xe5;" glyph-name="aring" horiz-adv-x="564" d="M241 -14Q155 -14 100 51T45 238T114 437T287 514T474 456V100L484 0L418 -5L401 85Q345 -14 241 -14ZM197 54T256 54T356 110T398 270V421Q348 446 291 446Q217 446 169 389T121 241T159 102ZM192
594T192 638T218 710T292 739T367 710T394 638T368 566T293 537T218 565ZM243 660T243 638T256 602T292 588T329 602T343 638T330 673T293 688T256 674Z" />
<glyph unicode="&#xe6;" glyph-name="ae" horiz-adv-x="805" d="M762 263L760 233H426Q430 146 471 100T575 54Q662 54 718 108L756 59Q682 -14 574 -14Q509 -14 457 16T377 107Q348 53 299 20T185 -14T80 23T39 121Q39 269 220 286L350 298V347Q350 400 324 423T240
446T108 398L73 453Q159 514 252 514Q371 514 408 437Q470 514 573 514Q762 514 762 263ZM350 222V233L223 221Q166 216 142 190T118 131T139 76T196 54Q254 54 302 98T350 222ZM572 445Q514 445 477 408T429 300H686Q682 445 572 445Z" />
<glyph unicode="&#xe7;" glyph-name="ccedilla" horiz-adv-x="446" d="M215 -88H191L208 -7Q135 10 90 71T45 234Q45 359 107 436T281 514Q350 514 409 478L390 417Q337 446 283 446Q209 446 165 390T121 241T161 101T265 54Q345 54 403 102L433 48Q361 -14 262
-14H256L248 -50Q295 -50 314 -73T333 -126T307 -180T229 -204Q207 -204 187 -197T156 -184L147 -177L170 -136Q194 -153 220 -153T258 -143T271 -118Q271 -88 215 -88Z" />
<glyph unicode="&#xe8;" glyph-name="egrave" horiz-adv-x="484" d="M252 -14Q162 -14 104 49T45 234T114 435T293 514Q363 514 406 472T449 366T384 249T193 196Q160 196 123 199Q130 128 166 91T255 54Q342 54 400 108L436 59Q360 -14 252 -14ZM290 446Q221
446 176 397T122 267Q155 262 195 262Q281 262 327 294T373 368Q373 399 351 422T290 446ZM179 735Q205 735 231 700L333 560L309 535L129 682Q147 735 179 735Z" />
<glyph unicode="&#xe9;" glyph-name="eacute" horiz-adv-x="484" d="M252 -14Q162 -14 104 49T45 234T114 435T293 514Q363 514 406 472T449 366T384 249T193 196Q160 196 123 199Q130 128 166 91T255 54Q342 54 400 108L436 59Q360 -14 252 -14ZM290 446Q221
446 176 397T122 267Q155 262 195 262Q281 262 327 294T373 368Q373 399 351 422T290 446ZM339 735Q371 735 389 682L209 535L185 560L287 700Q313 735 339 735Z" />
<glyph unicode="&#xea;" glyph-name="ecircumflex" horiz-adv-x="484" d="M252 -14Q162 -14 104 49T45 234T114 435T293 514Q363 514 406 472T449 366T384 249T193 196Q160 196 123 199Q130 128 166 91T255 54Q342 54 400 108L436 59Q360 -14 252 -14ZM290 446Q221
446 176 397T122 267Q155 262 195 262Q281 262 327 294T373 368Q373 399 351 422T290 446ZM221 699Q240 727 264 727T309 699L406 562L382 537L265 644L148 537L124 562L221 699Z" />
<glyph unicode="&#xeb;" glyph-name="edieresis" horiz-adv-x="484" d="M252 -14Q162 -14 104 49T45 234T114 435T293 514Q363 514 406 472T449 366T384 249T193 196Q160 196 123 199Q130 128 166 91T255 54Q342 54 400 108L436 59Q360 -14 252 -14ZM290 446Q221
446 176 397T122 267Q155 262 195 262Q281 262 327 294T373 368Q373 399 351 422T290 446ZM307 623T307 644T319 678T354 692T390 678T403 644T390 610T354 596T319 609ZM129 623T129 644T141 678T176 692T212 678T225 644T212 610T176 596T141 609Z" />
<glyph unicode="&#xec;" glyph-name="igrave" horiz-adv-x="256" d="M90 0V500H166V0H90ZM58 735Q84 735 110 700L212 560L188 535L8 682Q26 735 58 735Z" />
<glyph unicode="&#xed;" glyph-name="iacute" horiz-adv-x="256" d="M90 0V500H166V0H90ZM183 735Q215 735 233 682L53 535L29 560L131 700Q157 735 183 735Z" />
<glyph unicode="&#xee;" glyph-name="icircumflex" horiz-adv-x="256" d="M90 0V500H166V0H90ZM84 699Q103 727 127 727T172 699L269 562L245 537L128 644L11 537L-13 562L84 699Z" />
<glyph unicode="&#xef;" glyph-name="idieresis" horiz-adv-x="256" d="M90 0V500H166V0H90ZM169 623T169 644T181 678T216 692T252 678T265 644T252 610T216 596T181 609ZM-9 623T-9 644T3 678T38 692T74 678T87 644T74 610T38 596T3 609Z" />
<glyph unicode="&#xf0;" glyph-name="eth" horiz-adv-x="541" d="M489 291Q489 159 430 73T274 -14T117 48T57 222T127 403T287 474Q344 474 390 450Q360 531 297 584L213 524L180 568L250 618Q188 654 111 662L119 722Q225 708 306 658L403 727L435 683L352 624Q423
562 456 473T489 291ZM417 291Q417 332 411 369Q362 408 298 408T183 356T133 221T171 95T271 52T375 113T417 291Z" />
<glyph unicode="&#xf1;" glyph-name="ntilde" horiz-adv-x="569" d="M330 514Q494 514 494 304V0H418V304Q418 446 317 446Q257 446 209 384T161 210V0H85V400L75 500L141 505L160 402Q191 456 237 485T330 514ZM365 590Q340 590 296 605T233 620Q193 620 186
576L139 584Q157 692 226 692Q252 692 297 677T362 662Q402 662 409 706L456 698Q437 590 365 590Z" />
<glyph unicode="&#xf2;" glyph-name="ograve" horiz-adv-x="541" d="M50 133T50 250T105 440T269 514T435 441T491 250T435 60T270 -14T105 59ZM126 337T126 250T162 109T270 54T378 108T415 250T379 391T270 446T162 392ZM200 735Q226 735 252 700L354 560L330
535L150 682Q168 735 200 735Z" />
<glyph unicode="&#xf3;" glyph-name="oacute" horiz-adv-x="541" d="M50 133T50 250T105 440T269 514T435 441T491 250T435 60T270 -14T105 59ZM126 337T126 250T162 109T270 54T378 108T415 250T379 391T270 446T162 392ZM360 735Q392 735 410 682L230 535L206
560L308 700Q334 735 360 735Z" />
<glyph unicode="&#xf4;" glyph-name="ocircumflex" horiz-adv-x="541" d="M50 133T50 250T105 440T269 514T435 441T491 250T435 60T270 -14T105 59ZM126 337T126 250T162 109T270 54T378 108T415 250T379 391T270 446T162 392ZM226 699Q245 727 269 727T314 699L411
562L387 537L270 644L153 537L129 562L226 699Z" />
<glyph unicode="&#xf5;" glyph-name="otilde" horiz-adv-x="541" d="M50 133T50 250T105 440T269 514T435 441T491 250T435 60T270 -14T105 59ZM126 337T126 250T162 109T270 54T378 108T415 250T379 391T270 446T162 392ZM338 590Q312 590 269 605T206 620Q166
620 159 576L112 584Q130 692 199 692Q224 692 270 677T335 662Q375 662 382 706L429 698Q410 590 338 590Z" />
<glyph unicode="&#xf6;" glyph-name="odieresis" horiz-adv-x="541" d="M50 133T50 250T105 440T269 514T435 441T491 250T435 60T270 -14T105 59ZM126 337T126 250T162 109T270 54T378 108T415 250T379 391T270 446T162 392ZM311 623T311 644T323 678T358 692T394
678T407 644T394 610T358 596T323 609ZM133 623T133 644T145 678T180 692T216 678T229 644T216 610T180 596T145 609Z" />
<glyph unicode="&#xf7;" glyph-name="divide" horiz-adv-x="518" d="M203 429T203 453T217 493T259 509T300 493T315 453T301 413T259 397T218 413ZM47 275V347H471V275H47ZM203 145T203 169T217 209T259 225T300 209T315 169T301 129T259 113T218 129Z" />
<glyph unicode="&#xf8;" glyph-name="oslash" horiz-adv-x="541" d="M50 250Q50 367 105 440T270 514Q300 514 327 508L358 598H417L379 488Q491 425 491 250Q491 133 435 60T270 -14Q234 -14 207 -7L177 -94H119L156 14Q50 76 50 250ZM415 250Q415 368 354 417L230
59Q245 54 270 54Q342 54 378 108T415 250ZM126 250Q126 137 181 86L304 442Q284 446 270 446Q198 446 162 392T126 250Z" />
<glyph unicode="&#xf9;" glyph-name="ugrave" horiz-adv-x="569" d="M75 500H151V196Q151 54 252 54Q310 54 357 113T408 278V500H484V100L494 0L428 -5L408 98Q378 44 332 15T239 -14Q75 -14 75 196V500ZM214 735Q240 735 266 700L368 560L344 535L164 682Q182
735 214 735Z" />
<glyph unicode="&#xfa;" glyph-name="uacute" horiz-adv-x="569" d="M75 500H151V196Q151 54 252 54Q310 54 357 113T408 278V500H484V100L494 0L428 -5L408 98Q378 44 332 15T239 -14Q75 -14 75 196V500ZM374 735Q406 735 424 682L244 535L220 560L322 700Q348
735 374 735Z" />
<glyph unicode="&#xfb;" glyph-name="ucircumflex" horiz-adv-x="569" d="M75 500H151V196Q151 54 252 54Q310 54 357 113T408 278V500H484V100L494 0L428 -5L408 98Q378 44 332 15T239 -14Q75 -14 75 196V500ZM240 699Q259 727 283 727T328 699L425 562L401 537L284
644L167 537L143 562L240 699Z" />
<glyph unicode="&#xfc;" glyph-name="udieresis" horiz-adv-x="569" d="M75 500H151V196Q151 54 252 54Q310 54 357 113T408 278V500H484V100L494 0L428 -5L408 98Q378 44 332 15T239 -14Q75 -14 75 196V500ZM147 623T147 644T159 678T194 692T230 678T243 644T230
610T194 596T159 609ZM325 623T325 644T337 678T372 692T408 678T421 644T408 610T372 596T337 609Z" />
<glyph unicode="&#xfd;" glyph-name="yacute" horiz-adv-x="475" d="M197 -239L132 -217L200 -26L5 500H87L238 82L387 500H467L197 -239ZM342 735Q374 735 392 682L212 535L188 560L290 700Q316 735 342 735Z" />
<glyph unicode="&#xfe;" glyph-name="thorn" horiz-adv-x="564" d="M85 700H161V418Q216 514 323 514Q407 514 460 449T514 262T445 63T268 -14Q217 -14 161 6V-225H85V700ZM438 351T404 398T308 446T203 388T161 210V78Q207 54 274 54T390 111T438 260Z" />
<glyph unicode="&#xff;" glyph-name="ydieresis" horiz-adv-x="475" d="M197 -239L132 -217L200 -26L5 500H87L238 82L387 500H467L197 -239ZM150 623T150 644T162 678T197 692T233 678T246 644T233 610T197 596T162 609ZM328 623T328 644T340 678T375 692T411
678T424 644T411 610T375 596T340 609Z" />
<glyph unicode="&#x2013;" glyph-name="endash" horiz-adv-x="624" d="M574 220H50V292H574V220Z" />
<glyph unicode="&#x2014;" glyph-name="emdash" horiz-adv-x="886" d="M836 220H50V292H836V220Z" />
<glyph unicode="&#x2018;" glyph-name="quoteleft" horiz-adv-x="165" d="M20 491Q20 509 55 574L113 680L145 669L104 444Q20 444 20 491Z" />
<glyph unicode="&#x2019;" glyph-name="quoteright" horiz-adv-x="165" d="M145 633Q145 615 110 550L52 444L20 455L61 680Q145 680 145 633Z" />
<glyph unicode="&#x201a;" glyph-name="quotesinglbase" horiz-adv-x="165" d="M145 49Q145 31 110 -34L52 -140L20 -129L61 96Q145 96 145 49Z" />
<glyph unicode="&#x201c;" glyph-name="quotedblleft" horiz-adv-x="295" d="M150 491Q150 509 185 574L243 680L275 669L234 444Q150 444 150 491ZM20 491Q20 509 55 574L113 680L145 669L104 444Q20 444 20 491Z" />
<glyph unicode="&#x201d;" glyph-name="quotedblright" horiz-adv-x="295" d="M275 633Q275 615 240 550L182 444L150 455L191 680Q275 680 275 633ZM145 633Q145 615 110 550L52 444L20 455L61 680Q145 680 145 633Z" />
<glyph unicode="&#x201e;" glyph-name="quotedblbase" horiz-adv-x="295" d="M275 49Q275 31 240 -34L182 -140L150 -129L191 96Q275 96 275 49ZM145 49Q145 31 110 -34L52 -140L20 -129L61 96Q145 96 145 49Z" />
<glyph unicode="&#x2022;" glyph-name="bullet" horiz-adv-x="254" d="M30 245T30 287T55 356T126 384T198 357T224 287T199 218T127 190T55 217Z" />
<glyph unicode="&#x2039;" glyph-name="guilsinglleft" horiz-adv-x="218" d="M30 219T30 242T52 290L157 414L188 399L123 242L188 85L157 70L52 194Q30 219 30 242Z" />
<glyph unicode="&#x203a;" glyph-name="guilsinglright" horiz-adv-x="218" d="M188 265T188 242T166 194L61 70L30 85L95 242L30 399L61 414L166 290Q188 265 188 242Z" />
</font>
</defs>
</svg>
