<?xml version="1.0" standalone="no"?>
<!DOCTYPE svg PUBLIC "-//W3C//DTD SVG 1.1//EN" "http://www.w3.org/Graphics/SVG/1.1/DTD/svg11.dtd">
<svg xmlns="http://www.w3.org/2000/svg">
<defs >
<font id="AveriaSerifLibre" horiz-adv-x="909" ><font-face
    font-family="Averia Serif Libre"
    units-per-em="2048"
    panose-1="2 0 6 3 0 0 0 0 0 4"
    ascent="1861"
    descent="-475"
    alphabetic="0" />
<glyph unicode=" " horiz-adv-x="519" />
<glyph unicode="!" horiz-adv-x="647" d="M512 1386H547Q604 1386 604 1342V1331Q604 1304 579 1189T550 1051Q480 649 419 457Q398 392 336 392H325Q274 392 274 436V447L282 561L286 608Q290 656 290 667Q290 814 330 1121Q332 1139 338 1208T357 1311Q383 1386
512 1386ZM298 -30H279Q234 -30 192 6T150 95V120Q152 128 152 134Q152 182 203 225T303 269H328Q388 269 419 225T451 144V125L447 96Q447 55 397 13T298 -30Z" />
<glyph unicode="&quot;" horiz-adv-x="837" d="M451 1380H470Q505 1380 505 1353Q505 1316 484 1243T458 1146Q449 1105 440 1077L434 1056Q431 1043 429 1036L387 889Q369 847 304 847H292Q260 847 260 874L277 1003Q285 1059 285 1073L288 1102Q292 1130 292
1144L296 1200Q296 1207 296 1214L297 1228Q297 1324 320 1344Q361 1380 451 1380ZM770 1380H798Q840 1380 840 1354V1342L839 1336Q839 1296 804 1174L801 1161L793 1133L737 941L735 935L732 928Q727 895 721 889Q703 847 651 847H623Q585 847 585 868V886L596
975Q603 1024 603 1045L605 1059L611 1142Q611 1149 611 1156L612 1163Q612 1170 612 1177Q612 1316 627 1335Q659 1376 735 1376Q763 1380 770 1380Z" />
<glyph unicode="#" horiz-adv-x="1170" d="M762 793H577Q549 793 542 768L539 758L537 753L536 748L533 737L531 732L528 722L526 717L523 706L520 696L518 691Q515 676 511 666T500 631T486 588L467 531Q467 521 495 521H661Q693 521 702 537Q780 677 780 783V786Q780
793 762 793ZM613 945T712 945T824 959T878 1101T930 1249Q965 1309 1023 1309T1081 1273Q1081 1257 1049 1147T1016 967Q1016 951 1092 945T1169 897Q1169 848 1138 821T1008 793Q953 793 929 755Q867 657 867 562Q867 521 984 521Q1049 521 1049 488Q1049 414
1000 386Q972 370 872 370Q830 370 806 334T742 171T699 39Q678 7 617 7T555 38T594 197T633 330Q633 370 479 370Q425 370 405 327Q403 323 384 259L363 193Q327 81 300 46T219 10T166 45Q166 57 194 161T223 302T207 357Q204 360 143 377T81 416Q81 482 146 513L175
521L208 522L240 526Q297 534 317 562Q377 644 377 752Q377 793 261 793Q198 793 198 827Q198 876 231 910T339 945T450 994Q460 1008 501 1135T552 1277Q573 1307 635 1307Q692 1307 692 1247L613 982Q613 945 712 945Z" />
<glyph unicode="$" horiz-adv-x="1062" d="M637 1196Q637 1206 630 1206H622Q567 1206 504 1152T441 1040L437 1007V988Q437 934 484 887T551 839H554Q593 839 593 981L613 1077L619 1104Q635 1176 635 1180L637 1189V1196ZM551 125H560Q628 125 695 192T763 327L766
354V386Q764 396 764 401Q764 433 718 486T641 539H637Q627 539 620 519Q544 291 544 146V133Q544 125 551 125ZM1051 1205Q1051 1113 1000 1043Q978 1013 947 1013T872 1088T787 1164Q771 1164 760 1142Q695 1009 695 822Q695 779 798 717T941 589T981 403T878
165Q826 106 733 59L655 17Q645 12 600 -6T542 -32T511 -86T481 -140Q445 -165 415 -165T374 -102T323 -7Q322 -7 231 28T115 88T90 194T124 332Q145 366 185 366Q196 366 254 256T371 145Q414 145 444 262Q495 459 495 562Q495 600 402 666T272 791T236 929Q236
1089 347 1198Q384 1235 515 1304T675 1416T745 1459T794 1447Q795 1446 795 1377Q795 1350 897 1312Q919 1304 963 1295T1029 1267T1051 1205Z" />
<glyph unicode="%" horiz-adv-x="1461" d="M638 1105Q638 1163 611 1195T546 1227H541Q476 1227 428 1141T380 958V941Q380 867 407 835T461 803H488Q534 803 584 879T635 1031L638 1060V1105ZM958 237Q958 191 981 153T1049 115H1054Q1111 115 1154 180Q1215
272 1215 367V418Q1215 476 1188 507T1135 539H1113Q1061 539 1022 480Q961 388 961 311L958 283V237ZM191 922V963Q191 1108 305 1230Q354 1282 421 1312T549 1342H582Q676 1342 751 1277T827 1097V1067Q827 921 712 798Q665 748 597 718T468 687H436Q327 687
259 760T191 922ZM1307 1271H1323Q1393 1271 1393 1253Q1393 1242 1362 1192Q1277 1054 406 145Q337 73 286 73Q204 73 204 94T254 184Q262 195 490 442L526 481Q549 507 573 533L836 818Q917 906 919 908L1111 1116Q1123 1129 1134 1141L1182 1193Q1260 1271 1307
1271ZM1132 655H1154Q1259 655 1331 588T1404 425V374Q1404 234 1285 107Q1242 61 1174 31T1040 0H1029L1018 1Q913 1 840 69T767 251V261Q767 418 877 536T1132 655Z" />
<glyph unicode="&amp;" horiz-adv-x="1474" d="M746 903H750Q810 903 891 1024Q936 1092 936 1166V1182Q936 1238 907 1267T846 1296H819Q761 1296 723 1235T685 1115V1074L689 1040Q689 995 714 949T746 903ZM838 219V229L837 234Q837 243 791 307T658 500T566
630H560Q519 630 453 507Q415 436 415 351T465 204T601 142H638Q718 142 809 191Q838 207 838 219ZM1367 70T1367 61T1347 40Q1285 3 1078 3Q1044 3 993 33T903 63T816 42Q681 -16 551 -16Q338 -16 232 74T125 296T173 509T271 633T368 710T419 748Q455 789 455
848Q455 864 441 927T426 1060T458 1202Q523 1347 694 1407Q771 1434 886 1434T1071 1369T1141 1218Q1141 1066 1005 935Q901 833 901 809Q901 694 1005 545Q1051 480 1058 480T1101 532T1137 632T1105 711T1072 763Q1072 812 1129 824T1431 837Q1504 837 1504
794Q1504 790 1449 700T1354 575T1309 532Q1238 374 1238 283Q1238 229 1288 162L1305 138L1343 98Q1367 70 1367 61Z" />
<glyph unicode="&apos;" horiz-adv-x="531" d="M458 1408Q503 1408 503 1384V1372Q503 1359 465 1193T383 923Q363 875 310 875H275Q243 875 243 901V907L246 928Q248 942 248 948L251 969Q256 1004 256 1017L259 1045L261 1073L262 1080L263 1088L270 1207Q270
1347 284 1365Q316 1406 416 1406L430 1408H458Z" />
<glyph unicode="(" horiz-adv-x="773" d="M817 1477V1459Q817 1459 817 1458Q817 1440 752 1366Q590 1180 508 959Q389 634 389 324T490 -192Q550 -312 550 -317Q550 -367 502 -367H483Q440 -367 398 -320Q316 -229 262 -102Q172 110 172 345V388Q172 547 218
723Q314 1090 557 1359Q693 1509 759 1509H777Q817 1509 817 1477Z" />
<glyph unicode=")" horiz-adv-x="764" d="M24 -371Q-21 -371 -21 -323Q-21 -309 44 -231T173 -56Q238 40 298 206Q409 508 409 827Q409 830 409 833Q409 1155 280 1384Q250 1438 250 1453Q250 1505 305 1505T400 1462Q473 1382 528 1262Q626 1050 626 819V733Q626
563 570 379Q458 7 228 -231Q92 -371 24 -371Z" />
<glyph unicode="*" horiz-adv-x="917" d="M608 775L568 764Q556 764 550 758T521 751L417 707H409Q387 707 372 741Q367 752 285 783Q267 790 269 827T271 880T284 926L292 945Q289 957 289 959Q289 985 258 1005Q205 1040 205 1120Q205 1137 236 1164T329 1191Q343
1191 385 1165T438 1138Q462 1138 462 1225T478 1342T543 1372T621 1358T650 1304Q650 1302 631 1210Q617 1144 617 1125Q618 1118 620 1118Q628 1118 712 1168T821 1219T870 1199T894 1138T856 1063T760 1010T703 977T743 924T783 799Q783 752 712 752Q677 752
645 763T608 775Z" />
<glyph unicode="+" horiz-adv-x="1069" d="M595 1023H646Q684 1023 684 971Q684 962 683 948T678 901L672 848L671 831L665 779L657 677Q657 656 832 656T1008 626V609Q1008 523 970 506Q959 501 805 501T641 494T618 332T598 160Q585 127 498 127Q445 127 445
181Q445 197 450 241T458 320L461 355L465 389L468 424Q473 468 473 476Q473 501 297 501T120 525Q120 628 154 649Q165 656 325 656T492 666Q493 667 510 821L529 992Q540 1023 595 1023Z" />
<glyph unicode="," horiz-adv-x="586" d="M332 267Q427 267 427 196V173Q427 52 313 -125Q272 -189 184 -277Q150 -311 98 -311H90Q43 -311 43 -263Q43 -258 69 -227T136 -139T177 -40T157 42T137 138T183 229T290 265L306 267H332Z" />
<glyph unicode="-" horiz-adv-x="791" d="M673 612Q695 612 695 584V564Q695 469 656 450Q636 440 399 440H378L357 439H337L316 438H296L276 437H241L220 436H173Q151 436 151 464V484Q151 580 189 599Q209 609 447 609L598 612H673Z" />
<glyph unicode="." horiz-adv-x="563" d="M293 278Q336 278 374 240T412 146L411 141Q411 82 366 29T258 -24H229Q188 -24 147 12T105 98V118Q105 170 151 223T250 276L259 278H293Z" />
<glyph unicode="/" horiz-adv-x="919" d="M919 1488Q1010 1488 1010 1459Q1010 1390 171 -78Q126 -157 73 -157H54Q-20 -157 -20 -134Q-20 -92 814 1400Q863 1488 919 1488Z" />
<glyph unicode="0" horiz-adv-x="1140" d="M710 1154H685Q553 1154 443 916Q400 823 373 680T345 425L346 413Q346 272 389 186T511 100H536Q597 100 660 159T773 327T849 579T876 817V868Q876 993 830 1073T710 1154ZM110 411V467Q110 612 161 778Q261 1104 496
1231Q602 1289 708 1289H747Q823 1289 895 1255T1017 1156Q1112 1031 1112 844V807L1111 788Q1111 640 1061 477Q963 158 724 23Q621 -35 517 -35Q225 -35 139 228Q110 318 110 411Z" />
<glyph unicode="1" horiz-adv-x="853" d="M670 77Q670 -2 540 -2H518L496 -1H453L410 0H368Q168 0 132 8T96 49Q96 103 186 149T290 228T362 565T420 943T395 1036L315 1053Q250 1067 250 1083Q250 1134 389 1202Q590 1300 693 1300Q735 1300 735 1262Q735 1236
697 1083T605 618T552 284Q552 210 611 168T670 77Z" />
<glyph unicode="2" horiz-adv-x="1044" d="M382 226Q382 193 519 193T694 208T788 268T862 314Q908 314 908 266Q908 127 845 44Q810 -2 725 -2L693 -1H568L114 -2Q50 -2 50 31Q50 104 120 181Q146 210 253 308Q551 582 629 684Q752 845 752 967Q752 1043 708
1088T598 1134T486 1094Q479 1088 390 970Q328 888 272 888Q228 888 228 958T253 1083T354 1194Q495 1295 650 1295T900 1219T995 1017V988Q995 988 995 986Q995 845 866 685Q790 591 586 414T382 226Z" />
<glyph unicode="3" horiz-adv-x="1038" d="M954 1100Q954 940 802 792Q737 728 737 714T794 657T884 554T916 405T874 231Q786 55 593 -19Q483 -61 389 -61H359Q218 -61 136 -12T53 116Q53 145 78 170T122 196T270 127Q338 91 415 91Q530 91 607 181T685 375T634
529T486 601T389 662Q389 706 479 744T621 836Q702 921 702 1008Q702 1065 675 1091T573 1117Q555 1117 455 1060T295 1002Q258 1002 258 1088T342 1224Q470 1300 651 1300H681Q816 1300 901 1239Q954 1201 954 1100Z" />
<glyph unicode="4" horiz-adv-x="1063" d="M285 440H579Q610 440 618 467Q705 772 705 926Q705 935 703 935Q689 935 640 870T436 633T280 445Q280 440 285 440ZM810 162Q810 157 831 124T852 53Q852 -16 783 -47Q739 -67 610 -67T442 -37Q425 -24 425 -11Q425
55 481 111T538 176Q538 239 507 260T337 282T166 290Q77 312 77 362Q77 383 112 431Q322 722 741 1154Q842 1258 903 1258H921Q962 1258 962 1178Q962 1167 910 872T857 539T909 477T962 426L959 377Q959 356 940 344Q890 313 877 293Q810 186 810 162Z" />
<glyph unicode="5" horiz-adv-x="1035" d="M60 78Q60 178 146 178Q173 178 264 134T422 89Q522 89 606 179T690 393T622 579T434 641Q387 641 352 635L273 620Q222 620 222 684T280 985T360 1251T592 1281Q617 1281 729 1286T902 1301T973 1310Q1021 1310 1021
1278V1250Q1021 1164 946 1108Q907 1079 792 1079L584 1084Q494 1084 462 1047Q444 1026 419 948T394 838T432 805L550 813Q723 813 828 718T933 445Q933 358 893 265T774 96T592 -20T383 -61H352Q227 -61 144 -17T60 78Z" />
<glyph unicode="6" horiz-adv-x="1091" d="M616 703H600Q490 703 419 619T348 381L349 372Q349 260 400 187T523 113H556Q637 113 715 215T794 445V487Q794 570 748 636T616 703ZM1026 505V482Q1026 377 984 284Q898 95 720 16Q625 -26 537 -26H487Q337 -26 233
78Q180 131 149 211T118 374V422Q118 576 190 742Q334 1076 645 1235Q817 1323 939 1323H960Q1024 1323 1024 1275Q1024 1234 967 1205Q961 1202 910 1190Q774 1157 686 1090T550 948T501 843T572 813L591 815L719 822Q844 822 935 731T1026 505Z" />
<glyph unicode="7" horiz-adv-x="1024" d="M611 1077Q461 1077 374 1048Q340 1037 294 996T204 954Q179 954 179 1004Q179 1105 227 1222Q250 1277 308 1277H940Q1066 1277 1066 1236V1217Q1066 1166 435 69Q402 12 359 -18T223 -48Q166 -48 166 -11Q166 64 307
283L365 363Q379 383 452 500T665 825T806 1039Q806 1075 708 1075L662 1077H611Z" />
<glyph unicode="8" horiz-adv-x="1073" d="M707 1224H694L687 1223Q618 1223 555 1160T492 1015V985Q492 915 554 860T674 805T792 891T852 1045V1076Q850 1088 850 1095Q850 1148 807 1186T707 1224ZM774 399Q774 469 720 535Q646 626 550 626H543Q475 626 402
521T329 312L330 305Q330 218 380 163T505 108H528Q618 108 695 185T772 353L774 368V399ZM859 724Q859 712 907 658Q1005 549 1005 416Q1005 318 961 234Q874 70 680 6Q590 -24 492 -24H469Q306 -24 204 64T102 278Q102 472 265 611Q289 631 335 662T381 704Q381
706 363 731L342 760Q324 786 297 837T270 974Q270 1134 413 1251Q473 1300 553 1326T703 1353H748Q886 1353 977 1277T1068 1095V1053Q1068 983 1015 901Q993 867 926 803T859 724Z" />
<glyph unicode="9" horiz-adv-x="1093" d="M562 547H587Q702 547 768 635T834 847V899Q832 915 832 924Q832 1001 780 1069T657 1138H640Q547 1138 469 1037T391 827L390 818L389 810L388 785V768Q388 675 437 611T562 547ZM655 1276H705Q771 1276 845 1245T972
1150Q1066 1040 1066 866V819Q1066 673 994 506T808 217T529 13T235 -69H215Q146 -69 146 -17Q146 30 291 73T534 196Q674 312 674 396Q674 432 599 432L560 428L499 427Q319 427 225 545Q155 632 155 755Q155 798 164 845Q196 1026 336 1151Q477 1276 655 1276Z"
/>
<glyph unicode=":" horiz-adv-x="616" d="M557 793V774Q557 707 503 661T394 614H379Q334 614 293 649T251 737V756Q254 771 254 780Q254 819 301 866T395 914L405 916H439Q487 916 522 876T557 793ZM449 155V141Q449 76 399 26T291 -25H276Q220 -25 181 14T142
103V113Q142 177 191 226T286 276L311 279H321Q366 279 407 244T449 155Z" />
<glyph unicode=";" horiz-adv-x="618" d="M560 780V762Q560 707 513 652T400 596H382Q339 596 306 629T273 701V724Q273 783 324 834T433 886H456Q495 886 527 854T560 780ZM341 279H366Q458 279 458 209V202Q458 77 365 -68Q225 -285 144 -285Q87 -285 87 -242V-232Q87
-228 113 -194Q138 -160 172 -102Q205 -45 205 -20L204 18Q204 30 187 60T171 111T172 139Q172 194 218 236T341 279Z" />
<glyph unicode="&lt;" horiz-adv-x="1084" d="M932 250T932 181T886 112H873Q822 112 224 467Q131 522 131 561Q131 616 194 651Q347 735 900 1003Q964 1034 980 1034Q1018 1034 1018 978T945 870T638 704T403 566Q403 556 599 452T848 310Q932 250 932 181Z" />
<glyph unicode="=" horiz-adv-x="1144" d="M257 850H678L689 849H1057Q1091 849 1091 809Q1091 713 1044 700Q1022 694 605 694H346L316 693H220Q173 693 173 736Q173 799 188 824T257 850ZM222 492H1011Q1055 492 1055 451Q1055 355 1009 342Q987 336 559 336H227L195
335Q138 335 138 367V377Q138 454 157 473T222 492Z" />
<glyph unicode="&gt;" horiz-adv-x="1093" d="M1005 622T1005 572T938 489Q180 110 162 110Q117 110 117 169T235 306Q281 336 507 445T734 582Q734 586 516 709T252 865T206 964T256 1030H271Q340 1030 909 681Q1005 622 1005 572Z" />
<glyph unicode="?" horiz-adv-x="952" d="M479 1380T635 1380T890 1306T990 1112T931 908T779 754Q615 632 600 614Q556 560 556 491T546 411Q514 379 470 379H454Q432 379 419 402Q384 462 384 533T426 661T567 803T704 953T742 1089T708 1187T613 1214T497 1147Q414
1046 351 1046Q272 1046 272 1118V1136Q272 1167 299 1225T366 1308Q479 1380 635 1380ZM566 152V124Q566 77 520 25T414 -28H390Q334 -28 299 13T264 99V114Q264 179 318 225T426 271H441Q485 271 525 236T566 152Z" />
<glyph unicode="@" horiz-adv-x="1740" d="M1050 756Q1050 808 962 808H954Q912 808 858 779T770 701Q661 544 661 411V364Q661 307 688 274T748 240H762Q792 240 844 272Q964 346 1006 513T1048 715L1050 729V756ZM748 83T680 83T562 112L517 149Q449 220 449
350T507 598T660 799T866 911Q923 926 1060 926T1239 906T1281 801Q1281 776 1236 588T1190 343T1225 262L1262 249Q1358 249 1433 380T1508 734Q1508 822 1473 907Q1403 1077 1227 1151Q1123 1195 998 1195T742 1143T503 982T331 724Q267 578 267 436Q267 149
427 -2Q509 -78 611 -110T858 -143Q907 -143 1055 -112T1239 -80T1274 -130L1237 -165Q1177 -210 1058 -249T833 -288H772Q621 -288 489 -233Q241 -130 142 91Q83 222 83 396T155 743T359 1048T661 1254T992 1327Q992 1327 995 1327Q1453 1327 1614 984Q1668 870
1668 753V690Q1668 574 1628 469Q1537 233 1344 136Q1253 90 1177 90T1070 104T994 162T935 207L841 139Q748 83 680 83Z" />
<glyph unicode="A" horiz-adv-x="1394" d="M549 578H826Q869 578 869 596V601Q869 611 831 788T787 1007T778 1049T761 1022T737 977T721 947Q526 613 526 586Q526 578 549 578ZM857 441T668 441T445 417T373 312T333 189T355 98T377 46Q377 9 330 -1Q297 -8 129
-8L38 -9Q-34 -9 -34 27Q-34 75 47 122T157 218T389 629T598 1007T648 1129T708 1264Q772 1370 857 1370Q892 1370 924 1328T997 1138L1021 1024Q1036 951 1046 908L1096 673Q1126 535 1158 381T1196 208Q1217 146 1256 129Q1324 99 1324 65Q1324 14 1301 3T1101
-8L987 -9Q847 -9 847 33Q847 49 856 64L869 82Q894 113 895 115Q924 166 924 248Q924 394 877 427Q857 441 668 441Z" />
<glyph unicode="B" horiz-adv-x="1240" d="M607 765H671L679 766L703 767L743 770Q838 770 912 851T986 1033V1057Q986 1131 930 1177T759 1223H736Q647 1223 625 1186Q620 1177 586 1008T552 808V801L553 796Q553 765 607 765ZM685 631H609Q530 631 516 592Q511
578 477 383T442 177V169L443 162Q443 120 580 120H617Q763 120 836 187Q941 283 941 402V429Q941 530 869 580T685 631ZM362 1122Q362 1191 323 1220Q255 1271 255 1294Q255 1333 312 1348Q339 1355 613 1355L689 1356H821Q1024 1356 1126 1281T1228 1091V1065Q1228
902 1090 792Q1079 783 1035 755T990 720T1054 672Q1190 583 1190 401T1030 103T615 -13H514L488 -12H434L332 -10Q44 -10 44 22V40Q44 56 136 126Q192 168 215 262T280 617T342 989T362 1122Z" />
<glyph unicode="C" horiz-adv-x="1281" d="M887 1372Q944 1372 1023 1359T1174 1346T1300 1311Q1333 1289 1333 1217V1187Q1333 1102 1306 1050T1239 998Q1226 998 1160 1076T1060 1176Q982 1228 879 1228Q673 1228 521 1029Q450 935 411 809T371 545Q371 362
466 248T729 134T1049 244Q1115 292 1142 292Q1175 292 1175 251T1130 145T1036 52Q913 -22 676 -22T282 123Q205 195 160 300T114 520V552Q114 715 176 867Q305 1183 609 1314Q744 1372 887 1372Z" />
<glyph unicode="D" horiz-adv-x="1398" d="M548 125H596Q598 125 600 125Q705 125 802 176Q1006 282 1089 542Q1134 682 1134 821L1133 836Q1133 1020 1037 1122T739 1224H723Q667 1224 648 1218Q610 1206 594 1151T529 806Q482 516 476 490L445 314L424 181Q424
144 450 135T548 125ZM232 1295Q232 1333 283 1349Q303 1355 552 1355L701 1358H777Q1223 1358 1347 1058Q1390 956 1390 843V793Q1390 622 1310 455Q1157 134 829 30Q704 -10 511 -10H487L461 -9H410L361 -8H311Q74 -8 66 -7Q21 -2 21 39Q21 64 110 120Q162 153
183 226T249 568T319 976T345 1154T306 1218Q232 1266 232 1295Z" />
<glyph unicode="E" horiz-adv-x="1212" d="M639 788T687 788T812 818T914 849T959 821T978 764Q978 680 927 576Q906 533 886 533Q839 533 777 578T678 623Q555 623 523 565Q474 476 474 267Q474 201 492 176T580 150Q742 150 821 175T978 262T1080 324Q1112 324
1112 274Q1112 139 1063 68T904 -3H741L699 -2L483 -1Q88 -1 79 1Q40 10 40 40T137 131Q193 166 213 244Q222 281 291 682T361 1111T318 1213T274 1313Q274 1349 347 1357Q356 1358 755 1358L1096 1360Q1163 1360 1189 1337Q1241 1292 1241 1231T1224 1134Q1195
1073 1159 1073Q1153 1073 1072 1125T982 1180Q923 1203 835 1203Q696 1203 658 1141Q582 1018 582 871Q582 838 599 823Q639 788 687 788Z" />
<glyph unicode="F" horiz-adv-x="1162" d="M358 1142Q358 1196 312 1233T265 1320Q265 1359 322 1359H460L495 1358L976 1359H1157Q1202 1359 1222 1335T1243 1230T1219 1100T1164 1051T1101 1096T1010 1174T822 1207T648 1142Q629 1114 601 994T572 840T608 783T695
759T807 797T917 835Q974 835 974 752T938 597T865 524T771 555T684 587Q571 587 526 542T480 270Q480 133 538 86Q559 68 559 54Q559 -1 431 -1H363L329 0H297Q134 0 100 19T66 48V68Q66 72 149 140Q192 175 219 271Q224 290 291 668T358 1142Z" />
<glyph unicode="G" horiz-adv-x="1353" d="M1104 637Q1322 637 1322 571Q1322 558 1295 525T1250 454T1201 273T1138 102Q1088 58 984 33Q762 -20 644 -20Q395 -20 247 141Q98 302 98 538V578Q98 720 162 873T329 1132T570 1303T847 1369H885Q895 1369 976 1359T1170
1349Q1329 1349 1329 1212Q1329 1137 1300 1075T1221 1012Q1197 1012 1134 1083T1034 1176Q960 1222 863 1222Q656 1222 512 1039Q445 954 401 830T357 568Q357 369 452 252T702 135T908 212T960 391T932 515Q875 562 875 575Q875 594 904 606Q978 637 1104 637Z"
/>
<glyph unicode="H" horiz-adv-x="1515" d="M622 766T847 766T1093 785T1142 881T1171 1053T1161 1175T1122 1246T1093 1305L1100 1323Q1134 1357 1205 1357L1526 1358Q1598 1358 1598 1334Q1598 1285 1537 1242Q1443 1175 1430 1133L1420 1086Q1414 1056 1404
997T1378 852L1362 759Q1356 725 1315 493T1273 209T1294 138L1328 122Q1385 90 1385 75Q1385 -3 1323 -3L1178 0L1040 -1Q879 -1 879 42Q879 76 938 131T1025 260Q1078 405 1078 530Q1078 600 1048 614T794 628T549 609T509 543Q462 417 462 268Q462 204 483 161L499
134L520 106Q542 72 542 49Q542 19 466 4Q440 -1 235 -1T29 25Q29 81 102 116T194 192L206 234Q215 271 241 420L273 606Q362 1088 362 1159Q362 1188 324 1213Q250 1261 250 1290Q250 1358 321 1358L371 1357L512 1356Q760 1356 760 1311Q760 1281 704 1236T622
1132Q563 994 563 864Q563 794 599 777Q622 766 847 766Z" />
<glyph unicode="I" horiz-adv-x="787" d="M395 1043T395 1099T369 1198Q362 1210 317 1241T272 1307Q272 1358 355 1358H400L423 1357L777 1358Q847 1358 847 1320T742 1220Q677 1181 647 1082Q637 1048 571 677T505 252T530 157Q538 145 581 114T625 49Q625 -2
545 -2H499L475 -1H407L364 0H322L186 -2H116Q54 -2 54 37T159 138Q216 171 245 249T304 520T365 878Z" />
<glyph unicode="J" horiz-adv-x="824" d="M492 1088T492 1134T459 1219Q449 1230 398 1258T347 1295Q347 1337 425 1354Q439 1357 636 1357L761 1358H787Q880 1358 880 1321Q880 1304 857 1270T794 1162T741 1046T653 599T519 78T329 -130T74 -222H55Q-1 -222
-26 -200T-52 -150Q-52 -95 -4 -54T112 7T206 52Q344 182 436 744Q492 1088 492 1134Z" />
<glyph unicode="K" horiz-adv-x="1384" d="M1021 1298Q1021 1342 1152 1342T1349 1329T1414 1276Q1414 1251 1312 1197T1149 1092T912 880Q812 788 812 732T1104 261Q1149 197 1230 164T1311 72Q1311 45 1245 21T1046 -3Q971 -2 918 120Q897 168 843 256T754 406T696
502L673 535Q625 587 570 587Q558 587 534 542Q465 413 465 272Q465 243 499 189T533 94Q533 35 438 7Q411 -1 238 -1T64 41Q64 68 132 116T221 218Q230 242 293 641L307 731Q324 837 330 874T343 955L350 998Q359 1055 363 1083L369 1124Q369 1180 332 1206Q249
1265 249 1301L271 1321Q308 1345 339 1345H382L426 1344L644 1345H688Q738 1345 738 1291Q738 1272 692 1233T637 1174Q551 989 551 808Q551 771 566 771Q641 771 1005 1141Q1040 1177 1040 1217L1033 1240Q1021 1279 1021 1298Z" />
<glyph unicode="L" horiz-adv-x="1172" d="M638 136Q774 136 843 176T983 300T1107 385Q1132 385 1132 348T1097 184T1052 44Q1020 -3 889 -3H773L743 -2H622L561 -1H471L389 0H305L274 -1H212L98 -3Q45 -3 45 48Q45 66 133 128Q184 164 214 249Q224 277 296 690T369
1145T315 1227T261 1313T357 1360L386 1359L558 1358Q800 1358 800 1320Q800 1297 701 1228Q646 1190 615 1102Q602 1065 558 810L538 694Q530 645 524 615T492 434T464 273Q462 252 462 235Q462 186 478 165Q500 136 638 136Z" />
<glyph unicode="M" horiz-adv-x="1805" d="M1529 -1H1414Q1211 -1 1211 36Q1211 63 1247 106L1309 182Q1351 249 1370 342T1421 681T1454 953L1451 979L1417 948L1389 905Q1349 843 1300 760L1210 609Q956 186 936 159Q884 90 817 90Q788 90 757 154L740 206L725
261Q713 307 695 371L665 483Q543 940 499 940L486 903Q479 877 430 638T381 299T393 164Q423 76 423 60L417 33Q390 -1 272 -1T102 9T50 60Q50 81 117 150T203 281T289 692T356 1079T340 1168L326 1209L294 1285Q294 1317 314 1329Q360 1356 392 1356H449Q534
1356 602 1322T709 1229Q721 1211 819 855L910 510L929 469Q964 469 1180 834T1440 1246Q1542 1354 1676 1354T1843 1321L1853 1297Q1853 1281 1803 1248T1735 1163Q1705 1070 1653 684T1601 261T1621 161L1636 121L1656 93L1675 71Q1675 -1 1529 -1Z" />
<glyph unicode="N" horiz-adv-x="1495" d="M268 1249T268 1288T288 1339Q326 1359 407 1359T564 1317T697 1204Q711 1186 922 798T1145 410L1157 428Q1166 450 1214 723T1262 1138Q1262 1172 1241 1207L1218 1232Q1190 1265 1190 1277Q1190 1318 1230 1338T1418
1359H1512Q1594 1359 1594 1321T1543 1238Q1450 1156 1440 1130T1332 544T1202 -16Q1112 -16 1034 94Q1004 136 773 566T531 996Q510 996 504 978T442 639T385 217Q385 175 427 124T469 48Q469 14 405 2Q389 -1 219 -1T49 36Q49 92 95 124Q198 196 209 226T292
663T364 1123T316 1213Z" />
<glyph unicode="O" horiz-adv-x="1439" d="M1186 776V837Q1186 1017 1085 1139Q1003 1238 868 1238H852Q752 1238 666 1184Q490 1073 406 822Q362 690 362 574V526Q362 341 453 224T696 107Q698 107 699 107Q788 107 874 158Q1048 261 1141 528Q1186 659 1186
776ZM874 1376H919Q1016 1376 1116 1338T1287 1226T1400 1050T1443 831V787Q1443 634 1376 476T1198 203T949 29T674 -32H629Q412 -32 259 121Q191 189 148 292T105 513V557Q105 559 105 562Q105 716 170 867Q300 1172 580 1307Q722 1376 874 1376Z" />
<glyph unicode="P" horiz-adv-x="1215" d="M600 678H683L692 679L719 680Q728 681 737 681Q867 681 954 776T1042 991V1010Q1042 1106 973 1159T792 1212H756Q650 1212 636 1170T603 1010T582 888T577 864L571 830L564 792Q561 778 558 761L549 710V703Q549 678
600 678ZM53 20Q53 69 130 122T223 227T272 464T347 865T389 1125T358 1202Q350 1210 316 1234T281 1282Q281 1341 347 1354Q362 1357 605 1357L815 1359Q1168 1359 1257 1154Q1283 1094 1283 1026V999Q1283 894 1232 798Q1128 604 890 552Q799 532 627 532Q539
532 514 480Q466 379 466 236Q466 174 544 139T623 55Q623 30 588 5T477 -20H111Q53 -20 53 20Z" />
<glyph unicode="Q" horiz-adv-x="1483" d="M702 127H733Q820 127 907 186Q1079 303 1158 554Q1196 676 1196 798V813Q1196 994 1108 1117T882 1241H866Q786 1241 702 1198Q538 1113 441 859Q389 722 389 586V540Q389 363 480 245T702 127ZM1454 -155Q1454 -198
1347 -250T1169 -303H1141Q1062 -303 956 -252Q412 9 312 95Q112 266 112 540V569Q112 720 173 875T342 1148T596 1333T887 1400Q1144 1400 1295 1253Q1373 1177 1418 1062T1464 815V787Q1464 565 1334 353Q1240 200 1080 96Q1018 56 1018 44Q1018 9 1212 -72Q1292
-105 1373 -105T1454 -155Z" />
<glyph unicode="R" horiz-adv-x="1300" d="M530 768V755Q530 723 595 723H673Q798 723 888 805T978 1017V1034Q978 1119 920 1172T760 1225H702Q624 1225 604 1172Q602 1167 566 975T530 768ZM785 1358Q1088 1358 1185 1193Q1223 1127 1223 1040Q1222 818 1002
672Q908 610 908 575T939 473Q1036 257 1050 235Q1083 184 1163 146T1244 63T1190 6Q1151 -3 996 -3Q925 -3 881 57T803 200T729 388T680 512Q644 583 563 583Q512 583 498 554Q444 446 444 269Q444 210 464 170T509 95T534 35Q534 -6 267 -6L135 -8L100 -9H69Q28
-9 28 13Q28 64 105 120T194 224T274 682T344 1138T317 1214Q312 1219 278 1246T243 1294Q243 1334 297 1346Q324 1352 458 1352L718 1358H785Z" />
<glyph unicode="S" horiz-adv-x="1075" d="M723 1375Q749 1375 822 1362T959 1348T1054 1322T1084 1238V1208Q1084 1091 1038 1027Q1019 1000 1002 1000Q958 1000 912 1075Q845 1185 801 1210T675 1235T526 1179T459 1016Q459 951 541 885Q585 850 721 786T915
664Q1012 565 1012 428Q1012 229 863 104T490 -22Q458 -22 292 6T120 38Q70 64 70 138L68 196Q68 258 95 316T157 375T259 278T372 151T519 122T697 188T774 362Q774 437 701 501Q659 538 517 608Q226 750 226 944Q226 1232 501 1340Q589 1375 684 1375Q687 1375
689 1375H723Z" />
<glyph unicode="T" horiz-adv-x="1248" d="M568 1218Q379 1218 292 1082Q236 994 194 994T152 1030T182 1195T229 1341T304 1360L335 1359L1021 1358H1278Q1349 1350 1349 1304Q1349 1114 1303 1026Q1283 988 1272 988Q1232 988 1212 1018Q1206 1027 1190 1080T1145
1159Q1080 1217 1010 1217T915 1200T878 1145T832 906T761 514T725 258T759 152Q838 53 838 49Q838 11 792 2Q782 0 534 0L368 -2Q275 -2 275 29T382 135Q448 182 470 258T560 728T628 1138Q628 1218 568 1218Z" />
<glyph unicode="U" horiz-adv-x="1422" d="M452 392Q452 137 744 137Q840 137 916 193T1031 331T1129 716T1188 1166Q1188 1208 1140 1244T1092 1319T1307 1357T1522 1336Q1522 1267 1466 1232Q1380 1178 1360 1116Q1349 1083 1284 721T1148 234T950 43T680 -24H638Q434
-24 319 80Q205 184 205 355V393Q205 457 262 785T320 1161Q320 1189 265 1223T210 1287Q210 1358 298 1358H337L376 1357L561 1358Q654 1358 684 1340T714 1305T645 1229Q603 1194 572 1100T496 742T452 392Z" />
<glyph unicode="V" horiz-adv-x="1379" d="M1123 1306Q1123 1358 1346 1358H1379Q1491 1358 1512 1348T1534 1308V1285Q1534 1276 1426 1201Q1373 1164 1324 1082Q1316 1068 1206 869T923 365T743 52Q686 -19 614 -19Q567 -19 543 63Q542 66 435 574T311 1128T239
1226T182 1282V1306Q182 1358 273 1358L307 1357H408Q566 1357 597 1350Q667 1334 667 1299Q667 1284 626 1239T585 1162Q585 992 723 371Q729 344 740 344T864 545Q1179 1108 1179 1169Q1179 1201 1165 1231L1153 1249Q1123 1284 1123 1306Z" />
<glyph unicode="W" horiz-adv-x="1872" d="M1940 1347Q1995 1347 1995 1305Q1995 1289 1903 1145T1794 966T1601 538T1406 107T1340 41T1261 11Q1204 11 1181 71L1170 114L1049 808L1038 846L1017 816L854 490Q669 125 655 97L630 52Q600 16 552 16T474 30T429
91L421 143Q415 190 402 304L389 411Q379 496 376 518L331 895L323 946L284 1082L279 1134Q275 1158 259 1206T243 1272T265 1319T327 1349Q453 1349 563 1319T673 1235Q673 1210 642 1154T610 1003L609 952Q608 901 608 851Q608 675 654 532Q665 499 677 499Q710
499 803 706Q836 781 881 944Q926 1106 960 1170Q1036 1310 1142 1310Q1204 1310 1227 1268T1250 1114L1246 1070L1243 1025L1251 972L1261 918Q1272 858 1300 694T1344 485L1356 458Q1394 458 1515 743T1637 1115Q1637 1161 1620 1197T1602 1251Q1602 1289 1677
1311Q1800 1347 1940 1347Z" />
<glyph unicode="X" horiz-adv-x="1386" d="M682 517Q641 517 468 267Q412 186 412 121L420 101L434 80L442 62Q442 16 400 5Q373 -2 275 -2H233Q80 -2 54 12T27 60T82 127Q198 194 217 212Q294 284 441 465T589 738Q589 806 429 1069Q387 1138 322 1201T256 1289T287
1325Q366 1354 674 1354Q749 1354 749 1314Q749 1295 710 1262T670 1196T778 935Q805 879 815 879Q858 879 1000 1064Q1078 1166 1078 1215Q1078 1224 1059 1253T1040 1314Q1040 1359 1229 1359T1449 1351T1480 1302T1447 1241L1370 1216Q1307 1195 1269 1157Q1035
923 935 767Q909 726 909 701Q909 633 1105 267Q1146 190 1195 152Q1287 80 1287 39T1108 -2H1025L984 -1Q875 -1 823 10T770 62Q770 81 810 117T850 194Q850 262 742 448Q702 517 682 517Z" />
<glyph unicode="Y" horiz-adv-x="1315" d="M1019 1308Q1019 1358 1222 1358L1253 1359Q1441 1359 1441 1320Q1441 1259 1356 1215T1242 1135Q1017 858 862 621Q826 566 799 449T772 260T814 145Q885 74 885 55Q885 -3 794 -3L760 -2L495 -1Q404 -1 395 0Q335 7
335 48Q335 65 360 87L382 103Q417 127 427 138Q472 190 510 279T549 526T353 1112Q321 1182 257 1221T193 1307Q193 1337 240 1352Q259 1358 435 1358L532 1359H562Q595 1359 629 1339T663 1295Q630 1201 630 1168Q630 1075 734 817Q758 757 771 757Q789 757 886
890Q1073 1147 1073 1201Q1073 1209 1046 1253T1019 1308Z" />
<glyph unicode="Z" horiz-adv-x="1224" d="M910 1188Q910 1215 771 1215T529 1173Q489 1157 395 1077T293 997Q251 997 251 1041Q251 1139 287 1231T336 1334Q363 1359 745 1359H937Q1133 1359 1169 1354Q1268 1340 1268 1308Q1268 1259 1215 1185T783 661T405
161Q405 141 606 141T892 183Q942 208 1009 304T1109 401T1142 369Q1142 308 1113 188T1069 45Q1038 -3 793 -3H712L673 -2L166 -3H126Q46 -3 46 34V65Q46 126 478 635T910 1188Z" />
<glyph unicode="[" horiz-adv-x="766" d="M818 1486Q818 1436 777 1412Q753 1398 681 1389T596 1375Q564 1362 551 1314T503 1024T404 372T338 -93T352 -163T425 -191T511 -220T539 -282Q539 -335 465 -335H440L414 -334L311 -333Q103 -333 103 -293T148 28T213
459Q326 1297 370 1459Q382 1503 430 1512T678 1521L754 1523Q818 1523 818 1486Z" />
<glyph unicode="\" horiz-adv-x="854" d="M729 -120T729 -155T655 -190T559 -120L482 190Q464 262 446 336L246 1138Q171 1438 171 1465Q171 1503 243 1503T336 1450Q337 1447 533 664Z" />
<glyph unicode="]" horiz-adv-x="755" d="M-29 -295Q-29 -246 13 -224Q34 -213 111 -202T208 -173T247 -72T358 659T449 1310Q449 1354 416 1369Q409 1372 350 1383T268 1408T245 1473T324 1523H350L376 1522L479 1521Q683 1521 683 1476Q683 1446 552 596T413
-283T373 -323T132 -333L29 -335Q-29 -335 -29 -295Z" />
<glyph unicode="^" horiz-adv-x="1027" d="M655 1372H668Q702 1372 739 1280Q827 1064 893 915T960 749V739Q960 714 890 714H876Q839 714 814 754T702 980T608 1167T543 1081L511 1031Q490 999 409 884T324 765Q281 717 210 717Q175 717 175 730T332 989T540
1304T655 1372Z" />
<glyph unicode="_" horiz-adv-x="1098" d="M72 -81H732Q972 -81 972 -116V-126Q972 -179 958 -204T904 -230H35Q3 -230 3 -195V-185Q3 -131 18 -106T72 -81Z" />
<glyph unicode="`" horiz-adv-x="680" d="M334 1415H367Q421 1415 452 1369T513 1246T558 1142Q571 1117 571 1104Q571 1072 499 1072L494 1073Q458 1073 335 1211T212 1365Q212 1415 334 1415Z" />
<glyph unicode="a" horiz-adv-x="1100" d="M720 736Q720 766 695 787T620 808H596Q499 808 417 703Q371 644 340 555T308 410L306 393V341Q306 258 340 208T419 158Q462 158 520 195Q641 273 683 465Q718 623 718 679L720 721V736ZM996 832Q996 814 950 588T903
296T915 215T981 199T1034 148Q1034 76 968 41Q881 -5 798 -5T676 36Q667 46 650 96T626 147T562 98Q435 -11 316 -11T126 78T55 300Q55 559 220 744Q302 835 414 886T626 938H665Q704 938 762 925T861 912L894 914L922 913Q996 913 996 832Z" />
<glyph unicode="b" horiz-adv-x="1082" d="M374 238Q374 187 406 152T504 116H521Q628 116 721 243T815 523V559Q815 643 777 702T677 762H669Q633 762 571 725T461 608Q372 460 372 289V263Q374 247 374 238ZM74 155Q74 190 106 259T147 365T167 469T236 840T295
1206T248 1306T201 1370Q201 1401 286 1436T481 1472Q519 1472 537 1458T555 1399T515 1120T474 847T501 807Q516 807 548 832Q657 917 776 917T972 835T1050 613V588Q1050 481 1006 368T879 170Q710 -3 488 -3L399 3L379 0L359 -1L319 -4Q197 -4 122 42Q74 71
74 155Z" />
<glyph unicode="c" horiz-adv-x="928" d="M933 787V769Q933 718 881 662Q859 638 818 638Q795 638 747 702T681 777T611 789Q500 789 414 663T327 376Q327 276 373 212T521 148Q576 148 671 183T780 218Q821 218 821 167Q821 109 691 44T439 -21H418Q286 -21 192
67Q140 115 114 184T88 311V355Q88 457 129 563T250 756T430 885T621 929H662Q809 929 871 893T933 787Z" />
<glyph unicode="d" horiz-adv-x="1124" d="M752 686Q752 796 638 796H621L612 795Q511 795 415 672T318 405L316 387V343Q318 325 318 316Q318 251 356 201T444 150H460Q496 150 558 190T661 297Q749 444 749 601L752 627V686ZM1101 1306Q1101 1268 1014 785T927
262T943 200T1009 165T1058 120Q1058 70 982 32T832 -6T737 9T705 46L687 80Q663 112 652 112T537 53T355 -6Q234 -6 158 80T82 295V322Q82 537 234 715T622 903Q761 909 784 927T830 1030T853 1212Q853 1245 800 1294T746 1375Q746 1387 785 1405Q921 1467 1011
1467T1102 1353L1101 1329V1306Z" />
<glyph unicode="e" horiz-adv-x="958" d="M728 687V698L727 703Q727 745 698 778T620 811L614 810H609Q542 810 481 757T387 639T355 560L356 555V551Q356 508 387 508H393Q502 508 648 589Q728 633 728 687ZM942 708V689Q942 584 872 536Q769 464 526 416Q420
396 398 387Q347 366 347 301T394 192T513 148T668 181T793 215T835 178Q835 109 708 46T481 -18H420Q357 -18 290 10T181 85Q91 182 91 335V355Q91 469 136 573Q233 796 432 891Q534 939 651 939T845 883Q942 812 942 708Z" />
<glyph unicode="f" horiz-adv-x="789" d="M852 1471Q951 1471 989 1450T1027 1380T988 1294T889 1257Q873 1257 835 1276T761 1296Q690 1296 640 1212T589 1050T612 947T696 907T767 880T777 831Q777 806 669 772T538 684T439 225T355 -195Q315 -267 259 -291T123
-315H94Q25 -315 -4 -290T-33 -233T53 -130T183 81Q194 117 230 337T266 662Q266 689 221 763Q203 793 203 869Q203 884 237 912T297 957T333 991T368 1091T425 1237T519 1354Q654 1471 852 1471Z" />
<glyph unicode="g" horiz-adv-x="946" d="M639 715Q639 779 609 822T538 865H520Q469 865 418 792T367 649Q363 625 363 618L360 574V554L361 548V535Q363 523 363 517Q363 475 393 441T455 407H478Q534 407 585 480T636 640L638 652L639 678V715ZM160 -125V-138Q160
-211 220 -258T384 -305H420Q522 -305 579 -260T637 -162V-146Q637 -103 573 -71Q409 11 327 11Q303 15 291 15L267 17H262Q245 17 203 -25T160 -125ZM177 62Q138 127 138 177T251 305Q304 341 304 345L251 381Q158 459 158 578Q158 733 281 839T560 946Q586 946
637 939L685 932L704 928L776 939Q802 942 862 942Q980 942 981 876Q981 834 930 821Q837 797 837 796L841 772L845 745Q848 718 848 669T815 551T717 423T584 346T458 318T369 293T338 243T515 161T747 72Q828 12 828 -92Q828 -143 790 -207T689 -312Q561 -394
364 -394H335Q188 -394 83 -334Q-22 -272 -22 -194Q-22 -73 106 3Q177 46 177 62Z" />
<glyph unicode="h" horiz-adv-x="1151" d="M810 33Q759 33 741 77Q732 99 732 169T751 376T770 552Q770 647 718 704Q698 726 654 726T560 690Q440 603 404 345T356 68Q311 -7 218 -7T104 25Q93 43 93 104T142 341T247 813T302 1216Q302 1263 277 1301L264 1318L249
1333Q233 1354 233 1371T268 1411Q350 1462 449 1462H482Q532 1462 550 1437T569 1367T526 1085T483 816Q483 775 526 775Q528 775 585 814T648 856Q737 903 833 903Q1020 903 1020 642Q1020 616 999 482T978 214Q978 179 994 153T1031 120Q1031 101 1002 86Q899
33 810 33Z" />
<glyph unicode="i" horiz-adv-x="688" d="M647 1279V1252Q647 1200 594 1138Q566 1105 510 1105H482Q467 1108 449 1108T402 1136T373 1208V1234Q376 1249 376 1257Q376 1313 437 1357Q472 1382 520 1382H534Q581 1382 614 1355T647 1279ZM274 -10H229Q134 -10
134 66Q134 133 174 202Q296 416 296 639Q296 713 257 742Q176 803 176 818Q176 859 265 895T477 932H492Q537 932 551 916T566 868T516 571T466 258Q466 186 537 180T609 120Q609 81 543 55Q378 -10 274 -10Z" />
<glyph unicode="j" horiz-adv-x="656" d="M525 1385H530Q582 1385 614 1357T647 1281V1259Q647 1212 603 1150Q573 1108 514 1108H481Q466 1111 448 1111T403 1138T375 1198L372 1224V1228L373 1233Q373 1290 414 1337T525 1385ZM554 775V740Q554 726 467 229Q421
-32 356 -160T176 -357T-51 -426H-70Q-148 -426 -148 -360Q-148 -312 -104 -276T-3 -240T97 -202T168 -83T247 286T299 618T275 700T201 773T150 821Q150 863 228 890Q362 936 459 936Q513 936 533 903T554 775Z" />
<glyph unicode="k" horiz-adv-x="1100" d="M510 597Q561 597 652 690T743 818T789 877T919 901T1046 866Q1058 856 1058 842T1036 804Q960 722 884 680Q694 575 694 515Q694 494 751 386T850 222T955 157Q1048 143 1048 96Q1048 60 989 35Q889 -8 799 -8T677 31Q663
48 638 141T588 283Q537 382 487 382Q443 382 423 307Q421 300 414 253L405 192Q386 79 381 71Q361 39 303 17T183 -6T102 16T84 89V119Q84 148 127 209T185 322T266 756T334 1197T306 1288Q242 1361 242 1373Q242 1407 297 1438T516 1469Q586 1469 586 1406Q586
1360 536 1068L523 999Q476 750 476 728L477 703Q478 678 478 653Q478 597 510 597Z" />
<glyph unicode="l" horiz-adv-x="666" d="M615 1370Q615 1324 527 871T438 321T455 199T518 155T564 113Q564 82 507 61Q310 -12 209 -12H189Q148 -12 126 12T103 60V75Q103 91 156 247T220 448Q348 1031 348 1233Q348 1276 309 1304Q232 1359 232 1365Q232 1397
315 1432T533 1468Q585 1468 600 1448T615 1389V1370Z" />
<glyph unicode="m" horiz-adv-x="1649" d="M767 625Q767 739 687 739Q653 739 598 702T495 590T409 322T366 113Q334 25 253 25Q200 25 171 102T142 256T152 364L165 399L175 433Q191 503 191 546T177 627T163 691Q163 778 223 831T366 885Q405 885 426 849Q429
843 437 805T451 766Q466 766 512 802Q680 932 806 932Q877 932 912 908T982 827T1020 770Q1034 770 1067 791L1095 810Q1233 906 1343 906Q1418 906 1467 849T1516 686T1493 425L1479 341L1475 301Q1475 248 1506 191T1537 131V121Q1537 111 1517 98Q1442 50 1369
50T1271 99Q1255 131 1255 260L1271 508Q1271 589 1231 664Q1210 703 1180 703T1121 683Q1066 645 1026 559Q953 401 953 208Q953 84 912 39T718 -6Q642 -6 642 39T676 182T718 315Q767 557 767 625Z" />
<glyph unicode="n" horiz-adv-x="1178" d="M910 3T822 3T733 99Q733 115 773 337Q813 558 813 624Q813 748 708 749Q656 749 593 693T497 576T431 368T398 144T364 32T262 -1T159 54T124 187T186 389Q218 453 218 552T201 669Q170 702 170 756T224 863T375 916Q475
916 488 792Q493 746 504 745Q505 745 558 794T693 888T845 932H873Q963 932 1011 868T1059 721T1025 460T991 242T1044 157Q1058 145 1079 140T1100 127Q1100 90 1034 60Q910 3 822 3Z" />
<glyph unicode="o" horiz-adv-x="1030" d="M617 812H599Q560 812 506 779T414 681Q327 536 327 399V352Q327 251 376 182T489 112H507Q541 112 594 141T691 245Q778 390 778 537V565Q778 677 730 744T617 812ZM624 944H671Q733 944 803 916T922 833Q1017 728 1017
557L1016 542Q1016 448 974 340T850 147T667 20T466 -21L451 -20Q285 -20 187 88T88 351V367L89 382Q89 478 132 587T251 773T425 897T624 944Z" />
<glyph unicode="p" horiz-adv-x="1120" d="M405 266Q405 204 432 169T535 133H552Q600 133 659 168T762 272Q847 404 847 552V561Q847 655 807 717T702 779L693 778Q650 778 595 745T511 665Q407 492 407 310L405 292V266ZM508 827Q523 827 563 854T624 892Q708
935 814 935T1001 849T1083 623V596Q1083 498 1043 391T929 196T758 57T556 5Q514 5 475 14T421 23Q382 23 352 -20T321 -145T343 -272Q394 -374 394 -380Q394 -419 353 -433Q286 -456 171 -456T30 -438T3 -385T30 -266T76 -143T111 -31Q216 456 216 592Q216 651
188 707T160 780Q160 839 220 891T387 943H409Q458 943 480 894Q491 869 497 848T508 827Z" />
<glyph unicode="q" horiz-adv-x="1082" d="M774 647V697Q774 758 745 782T659 807H633Q526 807 426 680T326 399V355Q326 275 363 217T456 158H472Q513 158 581 206T691 330Q774 478 774 647ZM1011 926Q1087 926 1087 856T1052 732L1031 696Q1013 666 1009 650T982
514L973 466L969 442Q966 422 963 405T939 277T888 -2T857 -212T887 -292T917 -377T865 -440T646 -457H621Q562 -457 535 -436T508 -386T555 -281T609 -189Q679 -41 679 86Q679 109 671 109T564 55T363 1T177 88T92 318V344Q92 449 138 558T262 750Q426 924 663
924Q682 924 710 921L733 918L755 913L876 920L1011 926Z" />
<glyph unicode="r" horiz-adv-x="910" d="M130 124V159Q130 178 209 359Q252 457 252 588Q252 656 217 700T182 794T263 895Q302 920 370 920H388Q520 920 520 830L518 810L515 789Q512 763 512 746T523 729Q534 730 572 768Q713 909 816 909H817Q877 909 912
870Q929 851 929 808T876 724T748 683L679 689Q612 689 553 588Q465 436 465 340Q465 325 478 271T492 195Q492 64 457 30T288 -4H249Q198 -4 164 28T130 124Z" />
<glyph unicode="s" horiz-adv-x="855" d="M54 41T54 105T81 225T135 281T245 196T396 111T507 146T550 233T508 320Q488 337 385 392T238 490Q165 561 165 651Q165 770 266 854T524 938H549Q663 938 768 903Q840 879 840 815T796 690Q774 660 743 660T643 731T519
803T427 776T390 702T432 619Q441 611 554 548T706 446Q776 376 776 269T681 80Q624 31 547 5T402 -22H353Q244 -22 133 15Q54 41 54 105Z" />
<glyph unicode="t" horiz-adv-x="760" d="M420 301Q420 230 443 204T515 177L529 179L558 185Q587 189 628 189T669 151Q669 87 594 50Q466 -14 351 -14H332Q260 -14 220 48T179 241Q179 289 203 420T228 632L227 666L226 683L225 734Q225 770 191 797T157 844T224
907T292 953Q309 976 328 1038Q371 1176 471 1176H487Q530 1176 551 1148Q559 1137 570 1068T588 989T671 941Q716 918 716 869Q716 837 645 807T558 760T496 645Q420 488 420 301Z" />
<glyph unicode="u" horiz-adv-x="1174" d="M805 802Q805 851 837 878T923 905T1017 863T1058 757Q1058 735 1031 581T1003 375T1015 268T1050 186T1073 143Q1073 97 1019 47T893 -4T787 27T743 109Q742 114 740 152T729 190T686 155T618 92T515 26T362 -11T223
51T167 223Q167 271 203 464T239 695T217 749T144 766Q123 766 123 802Q123 819 158 842Q260 909 383 909H404Q445 909 460 872T476 742Q476 722 444 537T412 306Q412 166 514 166Q552 166 617 217T724 347Q808 509 808 700L810 743Q805 790 805 802Z" />
<glyph unicode="v" horiz-adv-x="1063" d="M965 930Q1091 930 1091 829Q1091 762 1080 736T1038 676T999 630T922 500T743 237T575 39T450 -15T357 62Q353 75 301 375T242 688Q225 724 159 733T93 800Q93 850 142 869Q291 927 416 927Q467 927 486 908T505 850L490
644Q490 613 515 441T547 255T563 241T595 264Q673 350 735 471T797 692Q797 699 783 750T769 835T830 899T965 930Z" />
<glyph unicode="w" horiz-adv-x="1513" d="M1424 905Q1462 905 1489 876T1517 801T1470 661Q1299 319 1226 208T1088 49T990 0Q935 0 896 79T823 288T773 417Q768 417 713 332T585 172Q461 45 402 45T312 122Q301 150 285 297T253 508T179 651T122 811Q122 837
165 874T270 912H306Q408 912 443 869T478 741L475 709L473 674L476 637L478 601Q480 564 480 470T506 329Q517 310 547 310Q592 310 656 480Q683 551 698 661T736 808Q792 897 904 897Q947 897 976 848Q1019 774 1019 684L1018 651L1013 588Q1013 453 1043 361Q1053
331 1091 331Q1136 331 1198 463T1260 668L1259 692L1254 739Q1254 811 1287 843Q1351 905 1424 905Z" />
<glyph unicode="x" horiz-adv-x="1070" d="M713 442Q713 418 756 329T825 208T919 154T986 97Q986 80 943 59Q825 0 706 0Q658 0 638 26T573 176T485 301Q449 301 379 165T292 16Q257 -10 198 -10H169Q97 -10 63 20T28 72Q28 129 111 169Q231 228 244 240Q426
417 426 464Q426 560 326 691Q285 745 217 754T149 804Q149 832 186 848Q352 918 448 918Q494 918 516 882Q524 870 533 835T558 753Q602 626 625 626Q669 626 726 730Q753 780 763 826T784 887Q810 924 870 924H898Q977 924 1024 898T1071 840Q1071 832 969 752T768
564Q713 504 713 442Z" />
<glyph unicode="y" horiz-adv-x="1078" d="M632 265Q681 265 778 452Q824 541 824 671Q824 698 813 732T802 811T850 891T949 926H979Q1026 926 1059 899T1092 805V779Q1092 748 1036 656T925 448T768 145Q441 -458 198 -458Q134 -458 98 -426T61 -372Q61 -327
111 -296Q124 -288 209 -271T371 -178T449 -7Q449 -5 399 162T315 479T271 649Q245 710 198 737Q118 783 118 810Q118 825 144 839Q286 918 421 918Q446 918 470 900T494 825L488 784Q488 756 534 535T583 307Q598 265 632 265Z" />
<glyph unicode="z" horiz-adv-x="950" d="M347 925L737 905Q786 905 829 910L855 913Q893 919 901 919Q941 919 941 875T651 516T360 198Q360 188 409 188L435 190L460 191L509 192Q533 192 583 188L658 180Q708 180 768 212T837 244Q866 244 866 173Q866 62 786
-7Q756 -33 704 -33T493 -6T281 21T198 17L151 7Q112 -1 100 -1Q41 -1 41 42T334 394T628 720Q628 727 603 727L402 718Q321 718 290 700T235 659T194 637Q167 637 167 674Q167 772 201 849T277 926H299L322 925H347Z" />
<glyph unicode="{" horiz-adv-x="780" d="M814 1515Q852 1515 852 1457Q852 1431 769 1391T657 1292Q614 1205 604 1034Q594 862 570 794Q535 691 441 627Q411 606 411 591L419 579L435 567L452 552Q510 494 510 379Q510 331 478 175T445 -43T467 -137T537 -201T585
-264Q585 -323 541 -323H517Q367 -323 295 -263T222 -69Q222 -4 259 173T297 402Q297 488 213 517Q144 541 144 562Q144 611 155 626T196 655L219 664Q321 701 352 777Q371 824 384 990T405 1194Q447 1419 596 1477Q694 1515 814 1515Z" />
<glyph unicode="|" horiz-adv-x="620" d="M485 1504Q540 1504 540 1455Q540 1416 526 1300T486 930L481 890L456 643Q451 599 449 581L443 518L438 477L434 435Q363 -293 353 -334T241 -376Q187 -376 187 -322T222 31T314 893T374 1467Q385 1504 485 1504Z" />
<glyph unicode="}" horiz-adv-x="788" d="M623 1268Q623 1200 585 1024T547 798Q547 701 647 667Q698 650 698 611T683 555T630 527Q529 497 496 416Q472 356 463 200T430 -47Q383 -232 255 -285Q162 -324 39 -324Q-9 -324 -9 -277T74 -198T185 -111Q229 -25 240
150T276 407T392 562Q427 590 427 598T401 638T355 708T336 808T365 1015T394 1224Q394 1342 313 1393Q259 1427 259 1444Q259 1510 295 1510H344Q476 1510 549 1454T623 1268Z" />
<glyph unicode="~" horiz-adv-x="1045" d="M413 861H434Q502 861 608 795T779 729Q805 729 888 782T976 836Q1013 836 1013 798V788Q1013 722 921 646T753 570H722Q665 570 553 636T390 703T273 645T191 587Q145 587 145 626V636Q145 697 238 779T413 861Z" />
<glyph unicode="&#xa0;" horiz-adv-x="519" />
<glyph unicode="&#xa1;" horiz-adv-x="575" d="M226 888Q226 946 275 995T379 1044H399Q443 1044 484 1009T525 927V893Q525 839 478 792T382 744L372 742H347Q308 742 268 776T228 850L226 860V888ZM101 -409Q43 -409 43 -361V-351Q43 -205 249 550Q268 621 332
621H356Q397 621 397 575V564Q397 431 340 -25L305 -305Q270 -409 125 -409H101Z" />
<glyph unicode="&#xa2;" horiz-adv-x="939" d="M553 819V831Q553 841 541 841T494 816Q431 770 379 673T326 448V419Q326 327 378 249Q404 210 421 210H425Q435 210 440 232Q553 759 553 819ZM386 -7Q386 32 300 68T157 185T100 379Q100 593 218 745Q336 898 490
949Q541 967 553 977T577 1022L584 1042Q595 1080 596 1081Q632 1145 685 1145Q722 1145 722 1068Q722 1021 827 950T932 844Q932 785 901 742T819 699Q797 699 757 751T686 803Q665 803 592 403L560 227Q560 191 609 191Q628 191 696 224T782 258Q821 258 821
214Q821 209 580 48Q536 19 513 -45Q481 -135 430 -135T378 -91L380 -69L384 -46Q386 -28 386 -7Z" />
<glyph unicode="&#xa3;" horiz-adv-x="1097" d="M39 63Q39 98 124 186T237 331T264 457T257 541T219 570L194 578L170 588Q129 614 129 650T180 730T240 790T259 891T295 1057Q322 1138 386 1207Q518 1348 754 1348Q912 1348 987 1305T1063 1189T1035 1072T976
1028T872 1098T716 1169T574 1087T514 888Q514 824 574 772Q605 745 683 724T762 686Q762 651 710 618Q701 612 628 589T533 543Q531 541 512 489T452 349T411 240T454 220L519 224H588L753 214Q785 214 848 261T949 308T987 278Q987 214 948 132T875 20T747 -10T507
9T318 28L106 11Q39 11 39 63Z" />
<glyph unicode="&#xa4;" horiz-adv-x="1075" d="M746 684Q746 760 695 817T572 874H565Q481 874 409 795T337 621V578Q337 508 387 452T503 396H525Q596 396 670 470T744 634L746 649V684ZM900 804Q900 797 908 758T917 663T892 542L872 490L857 458Q845 432 845
427Q845 397 879 354T914 284T876 227T815 196T750 244T694 292T616 273T498 254T376 274T296 294T232 248T153 202T97 238T69 299Q69 306 148 379Q186 414 186 465L183 482L173 520Q167 549 167 618T213 780Q235 836 235 853T202 917T168 987T207 1042T277 1074Q290
1074 330 1025T390 976T468 995T584 1015T709 995T789 974T854 1021T932 1069T986 1032T1014 971Q1014 968 938 892Q900 854 900 804Z" />
<glyph unicode="&#xa5;" horiz-adv-x="1296" d="M935 418T935 393T874 318Q776 238 776 175Q776 154 795 107T815 41Q815 -3 705 -3L662 -2L538 -1Q316 -1 316 38Q316 72 387 137T459 246Q459 264 372 301T284 385Q284 388 362 424T440 510Q440 525 411 542Q361
571 361 610Q361 620 370 630T398 713T417 836Q417 940 314 1129Q283 1187 226 1242T168 1311Q168 1354 207 1366T414 1378L491 1379Q570 1379 605 1364T640 1309L633 1289L617 1263Q608 1242 608 1197Q608 1054 715 821Q733 782 747 782L771 797Q847 863 970 1071Q1026
1166 1026 1256L1018 1284L1010 1306L1001 1322Q1001 1340 1036 1357T1195 1374T1357 1340L1368 1325Q1368 1291 1241 1168T1051 943Q1022 895 997 788T968 676Q916 604 911 597T906 566L908 541L904 494Q904 482 919 450Z" />
<glyph unicode="&#xa6;" horiz-adv-x="524" d="M215 744V768L233 930Q235 946 235 948L238 966L245 1030Q247 1046 248 1055T268 1234T299 1453Q308 1490 394 1490H423Q465 1490 465 1464V1439L462 1420L456 1365Q452 1342 449 1303T441 1236T433 1181L429 1145L426
1126L423 1099Q420 1072 419 1064T402 913T379 751Q369 721 285 721H257Q215 721 215 744ZM83 -390V-374Q83 -291 104 -154T133 50T145 141T155 228T167 312Q177 354 259 354H287Q335 354 335 324L334 316V307Q334 101 251 -369Q243 -413 161 -413L143 -415H134Q83
-415 83 -390Z" />
<glyph unicode="&#xa7;" horiz-adv-x="1018" d="M466 816H452Q440 816 408 775T375 684V655Q375 593 441 542Q585 430 658 430H676Q687 430 716 471T745 568V591Q745 658 678 710Q542 816 466 816ZM404 -211H373Q269 -211 202 -174T135 -64T169 57Q180 73 204
73T294 -8Q342 -66 423 -66T541 -23T578 86T521 207Q497 230 384 300T218 438T165 591Q165 735 274 844Q343 913 343 925Q343 926 331 995T318 1116T345 1232T429 1346Q540 1442 705 1442Q815 1442 886 1413T958 1323Q958 1230 921 1185Q909 1171 883 1171Q870
1171 794 1256Q752 1303 684 1303T575 1269T535 1170T590 1050Q614 1026 731 957T891 837Q959 759 959 671V639Q959 639 959 637Q959 519 844 394Q796 341 795 328L807 229Q807 104 780 31Q728 -110 581 -173Q493 -211 404 -211Z" />
<glyph unicode="&#xa8;" horiz-adv-x="880" d="M360 1378Q396 1378 431 1348T467 1281L469 1272V1238L466 1220Q466 1194 427 1148T336 1102H310Q300 1104 297 1104Q272 1104 239 1137T205 1212V1238Q205 1283 245 1329T330 1376L339 1378H360ZM717 1102Q676 1102
640 1133T603 1215V1233Q603 1283 642 1329T723 1375L749 1378H758Q773 1375 790 1375T837 1340T868 1268V1242Q868 1196 829 1151T752 1105L739 1102H717Z" />
<glyph unicode="&#xa9;" horiz-adv-x="1547" d="M756 75H792Q900 75 1008 121T1205 255T1338 458T1384 689V707Q1384 810 1348 902Q1269 1103 1075 1178Q986 1213 883 1213H865Q744 1213 636 1162Q411 1056 317 825Q273 717 273 617V563Q273 561 273 558Q273 472
310 383Q383 203 551 124Q656 75 756 75ZM1144 911Q1144 887 1124 863T1086 838T996 887T841 936T700 842T640 618T698 427T861 366Q907 366 984 404T1064 443Q1102 443 1102 420Q1102 350 1028 295T825 240H787Q640 240 541 335T442 563V618Q442 702 480 786Q557
955 715 1016Q796 1047 876 1047H894L984 1041Q1054 1041 1099 1014T1144 911ZM875 1329H897Q1028 1329 1143 1279T1339 1142Q1503 966 1503 716V695Q1503 546 1442 410T1282 174T1051 17T804 -40H739Q615 -40 504 12Q293 112 204 322Q155 437 155 550V615Q155
617 155 619Q155 742 216 882Q278 1022 384 1122Q604 1328 875 1329Z" />
<glyph unicode="&#xaa;" horiz-adv-x="896" d="M590 1186Q590 1239 527 1239H517Q450 1239 387 1158T323 987V955Q326 937 326 928Q326 850 392 850H401Q477 850 531 947T585 1115L588 1131L590 1158V1186ZM763 1312Q769 1302 769 1219T752 1047T735 919T759 880L778
883H799Q827 883 827 842T783 766T661 731T562 765Q527 826 524 826Q522 826 508 814Q418 737 316 737Q315 737 313 737Q244 737 199 785T153 905V918Q153 985 192 1071T302 1242Q391 1349 527 1349H539Q588 1349 616 1342T651 1334L705 1344Q743 1344 763 1312Z"
/>
<glyph unicode="&#xab;" horiz-adv-x="1010" d="M541 889H549Q588 889 588 854T452 666T316 488Q316 479 392 340T469 155T414 109Q385 109 236 290T87 487Q87 519 298 704T541 889ZM475 493Q475 514 668 694T903 874T945 835Q945 808 821 658T697 494T762 349T828
172T778 126H769Q749 126 612 292T475 493Z" />
<glyph unicode="&#xac;" horiz-adv-x="1144" d="M1041 682V583Q1041 375 1000 285Q989 261 934 261H908Q851 261 851 302L865 474Q865 561 825 573Q808 578 467 578H439L398 579H252L238 580H168Q123 580 123 619Q123 731 168 731L776 732H969Q1041 732 1041 682Z" />
<glyph unicode="&#xad;" horiz-adv-x="723" d="M604 602Q649 602 649 566V559Q649 463 613 439Q596 428 352 428H331L324 427H310L289 426H268L262 425H248L227 424H206L178 423H136Q92 423 92 452V472Q92 561 126 587Q140 598 396 598L534 602H604Z" />
<glyph unicode="&#xae;" horiz-adv-x="1365" d="M703 896H753Q805 896 839 930T873 1009V1032Q873 1057 849 1087T774 1118H732Q689 1118 689 999L683 935V924L681 910Q681 896 703 896ZM692 375H723Q826 375 918 419T1080 537T1188 706T1226 899V915Q1226 1100
1099 1227Q1051 1275 974 1309T813 1344H782Q700 1344 607 1308T440 1197T323 1025T279 819V789Q279 718 311 637T402 496Q523 375 692 375ZM495 538Q457 538 457 563V576Q457 584 488 609T525 654Q554 770 554 1054Q554 1107 544 1120Q513 1160 513 1167Q513 1196
687 1196L752 1197H785Q890 1197 949 1153T1008 1034Q1008 920 918 866Q875 840 875 823Q875 782 926 707T994 621Q1042 586 1042 568Q1042 539 965 539T864 562T795 683T746 787Q728 815 689 815Q670 815 670 727L668 667Q668 640 688 605T708 563Q708 538 636
538H620L604 539H558L527 538H495ZM173 780V836Q174 954 230 1070Q339 1295 547 1390Q670 1446 795 1446H813Q1026 1446 1179 1299Q1244 1236 1288 1139T1333 938V901Q1333 794 1290 682T1163 479T961 330T729 273H673Q574 273 476 317Q280 405 208 601Q173 695
173 780Z" />
<glyph unicode="&#xaf;" horiz-adv-x="858" d="M242 1301H805Q844 1301 844 1262Q844 1177 803 1167Q795 1165 508 1165H461L430 1164H233Q196 1164 196 1197V1204Q196 1301 242 1301Z" />
<glyph unicode="&#xb0;" horiz-adv-x="691" d="M449 1283Q404 1283 361 1240T318 1152L315 1125V1116Q315 1065 349 1031T416 996H447Q455 998 460 998Q504 998 540 1048T576 1144V1167Q573 1179 573 1195T544 1246T480 1281L471 1283H449ZM455 1403H489Q588 1403
648 1332T709 1170V1162Q709 1056 626 966T427 875H402Q319 875 251 937T183 1091V1133Q183 1238 273 1320T455 1403Z" />
<glyph unicode="&#xb1;" horiz-adv-x="1056" d="M143 268H919Q936 268 936 234L935 225V215Q935 123 880 110Q871 108 485 108H96Q78 108 78 142V152Q78 268 143 268ZM695 826T825 826T963 824Q995 815 995 774Q995 703 959 678Q940 665 801 665T651 653Q632 631
621 510T605 375Q592 343 511 343H495Q445 343 445 409L465 618Q465 664 436 664H305Q170 664 162 668Q139 679 139 712Q139 798 183 819Q198 826 334 826T481 834T510 985T528 1130Q544 1160 641 1160Q687 1160 687 1092L665 866Q665 834 688 828Q695 826 825
826Z" />
<glyph unicode="&#xb2;" horiz-adv-x="740" d="M528 1184Q528 1282 446 1282Q410 1282 349 1215T249 1147Q222 1147 222 1218T281 1336Q371 1407 489 1407H509Q588 1407 652 1363T717 1244V1226Q717 1129 626 1023Q585 976 468 879T350 774Q350 760 436 760T545
767T601 797T652 820Q679 820 679 786Q679 706 633 651Q604 617 522 617L503 618H349Q172 618 162 621Q132 630 132 661Q132 709 279 851T477 1061T528 1184Z" />
<glyph unicode="&#xb3;" horiz-adv-x="729" d="M678 1278Q678 1185 570 1096Q534 1067 534 1062T571 1036T635 979T662 872Q662 757 557 674T311 591Q235 591 186 613Q106 649 106 691V706Q106 763 164 763Q188 763 236 733T339 703T440 749T486 854T462 936T376
978T314 1020T403 1095T493 1215T432 1284Q402 1284 346 1242T255 1199T220 1232Q220 1317 271 1352Q354 1408 478 1408H497Q597 1408 648 1364Q678 1338 678 1278Z" />
<glyph unicode="&#xb4;" horiz-adv-x="676" d="M658 1396V1386Q658 1362 499 1219T299 1075Q233 1075 233 1104V1109Q233 1154 411 1383Q455 1439 509 1439H545Q658 1439 658 1396Z" />
<glyph unicode="&#xb5;" horiz-adv-x="1175" d="M205 804Q205 919 390 919Q494 919 494 818Q494 771 458 583T422 320T456 211T530 177T624 208T721 307T795 537Q826 698 830 742T842 810T884 869T971 904T1059 850Q1076 824 1076 799T1044 621T1012 405T1045
265T1079 144V125Q1079 71 1041 33T927 -6T795 39Q773 57 761 100T731 144T633 79T473 13Q444 13 413 23T354 33Q345 33 329 1Q283 -91 283 -257Q283 -344 241 -390T122 -436H100Q64 -436 64 -346V-317Q64 -232 147 198T231 693Q231 701 218 736T205 804Z" />
<glyph unicode="&#xb6;" horiz-adv-x="1179" d="M922 -229T877 -229T811 -219Q727 -178 727 -105L730 -66L816 560Q818 572 828 644L914 1270Q914 1311 894 1322T821 1333Q763 1333 741 1232L550 -145Q529 -229 464 -229T387 -218T375 -119L444 381Q446 393 456
465L473 590Q473 636 457 656L428 675L364 711Q303 755 265 822Q200 937 200 1057T247 1260Q337 1419 504 1463Q594 1487 758 1487H1139Q1237 1487 1237 1432Q1237 1428 1154 1330Q1137 1310 1095 1157Q1086 1124 1058 913T981 356T931 -8L965 -126Q965 -149 944
-189Z" />
<glyph unicode="&#xb7;" horiz-adv-x="482" d="M420 639V629Q420 563 371 514T267 464H247Q194 464 155 503T115 596V610Q118 625 118 634Q118 680 169 725T269 770H298Q348 770 384 728T420 639Z" />
<glyph unicode="&#xb8;" horiz-adv-x="5093" d="M512 -225V-233Q512 -320 433 -381T234 -442L226 -441Q123 -441 123 -398V-375Q123 -329 167 -329Q181 -331 188 -331L208 -332Q264 -332 286 -310T309 -268T287 -213T264 -124T292 -37T349 -3H373Q405 -3 405 -22L391
-83Q391 -89 424 -100T484 -145T512 -225Z" />
<glyph unicode="&#xb9;" horiz-adv-x="632" d="M429 622H389L376 623H288L249 622H235Q139 622 139 650V659Q139 666 197 717T269 804Q325 958 325 1151Q325 1200 302 1223Q301 1224 260 1242T219 1269Q219 1295 257 1314Q437 1404 504 1404H514Q551 1404 551
1373V1361Q551 1338 531 1259T484 1036T455 861T454 815T477 741Q481 731 503 709T525 674Q525 622 429 622Z" />
<glyph unicode="&#xba;" horiz-adv-x="800" d="M511 1261H500Q444 1261 389 1182T334 1015V965Q334 908 361 867T429 825H450Q510 825 560 909T611 1073V1123Q611 1180 584 1220T511 1261ZM430 720H409L398 721Q285 721 217 799T149 977V987Q149 1136 253 1247Q304
1301 374 1332T516 1364H538Q640 1364 718 1296T797 1118V1087Q797 949 687 831Q642 782 572 751T430 720Z" />
<glyph unicode="&#xbb;" horiz-adv-x="1013" d="M119 125H111Q71 125 71 168T194 342T317 509Q317 521 251 654T184 829T237 872Q269 872 369 749Q539 540 539 503Q539 487 346 306T119 125ZM472 109Q424 109 424 144T560 335T697 506T620 662T543 846T597 890Q629
890 777 710T925 500T706 290T472 109Z" />
<glyph unicode="&#xbc;" horiz-adv-x="1581" d="M1080 341T1080 338T1106 335H1110L1114 336H1168Q1278 336 1278 370Q1284 397 1284 405L1290 440Q1293 452 1293 456L1299 489Q1313 545 1313 560L1320 590V599L1319 600Q1312 600 1254 532T1192 460L1172 439L1166
433L1160 426L1157 423L1155 420L1110 371Q1080 341 1080 338ZM303 570Q237 570 237 605Q237 628 303 658Q345 677 368 733Q370 738 404 914T438 1134T395 1200Q322 1239 322 1244Q322 1262 378 1292Q531 1375 605 1375H615Q646 1375 646 1338V1326Q646 1304 600
1056T554 760Q554 680 607 645Q634 628 634 620Q634 568 554 568H485L471 569H395L342 568Q316 570 303 570ZM1412 1399H1429Q1480 1399 1480 1374T1443 1297Q914 551 516 45Q477 -5 430 -5H413Q364 -5 364 23Q364 80 1318 1338Q1364 1399 1412 1399ZM1510 318Q1510
314 1518 288Q1518 284 1496 264Q1430 206 1429 144L1431 138Q1447 122 1447 102Q1447 48 1406 23Q1389 13 1299 13L1270 12Q1168 12 1168 75Q1168 104 1195 127Q1221 150 1221 155Q1221 192 1183 213Q1174 218 1116 218Q934 218 934 289Q934 300 1176 567T1465
834H1475Q1513 834 1513 781L1451 406Q1451 388 1480 366T1510 318Z" />
<glyph unicode="&#xbd;" horiz-adv-x="1692" d="M429 1127Q429 1165 377 1204T324 1245Q324 1268 366 1288Q554 1378 605 1378H614Q649 1378 649 1344V1332Q649 1318 629 1212T604 1074T580 937T560 789T573 710T610 653T634 628Q634 576 540 576L525 577H407Q234
577 234 610Q234 629 291 666T368 751Q429 900 429 1127ZM1410 1398Q1504 1398 1504 1375T830 472Q453 -20 416 -20Q324 -20 324 6T1328 1342Q1371 1398 1410 1398ZM1087 5Q1043 5 1043 32V44Q1043 102 1195 248T1379 440Q1441 526 1441 605Q1441 638 1419 660T1352
683T1254 610T1157 536Q1130 536 1130 610T1193 735Q1286 809 1395 809T1567 762T1630 637V619Q1630 528 1545 427Q1504 378 1380 275T1256 161T1341 150T1455 159T1519 192T1571 217Q1595 217 1595 192Q1595 96 1545 37Q1518 5 1448 5H1350L1331 6H1211L1126 5H1087Z"
/>
<glyph unicode="&#xbe;" horiz-adv-x="1704" d="M1389 591V599L1388 600Q1380 600 1309 517T1194 390T1149 338Q1149 336 1175 336H1179L1183 337H1241Q1346 337 1346 366Q1356 411 1356 423L1365 474Q1373 506 1373 518Q1376 530 1376 534L1386 580Q1389 589
1389 591ZM555 1383H594Q689 1383 750 1346Q781 1327 781 1280V1263Q780 1174 662 1072Q620 1036 620 1031T662 1006T733 945T763 846Q763 727 664 639T436 550H398Q321 550 264 582T207 645V659Q207 714 254 714Q294 714 340 683T424 652Q496 652 540 704T585
819Q585 929 467 964Q415 980 415 992Q415 996 500 1068T586 1203T530 1265Q483 1265 447 1227T363 1188Q326 1188 326 1245T361 1330Q429 1383 555 1383ZM1481 1398H1498Q1549 1398 1549 1371Q1549 1313 599 61Q550 -4 493 -4T436 23T504 142Q780 514 1069 908T1398
1350T1481 1398ZM1583 284Q1583 281 1560 264T1526 218T1508 169T1499 148L1500 142Q1517 125 1517 106Q1517 54 1475 27Q1454 14 1385 14H1327Q1237 14 1237 74Q1237 103 1264 127T1292 157Q1292 193 1255 214Q1246 219 1187 219Q1002 219 1002 289Q1002 320 1422
760Q1493 834 1541 834Q1581 834 1581 783L1520 410Q1520 393 1550 369T1580 342Q1578 320 1578 311L1583 289V284Z" />
<glyph unicode="&#xbf;" horiz-adv-x="900" d="M427 856V875Q427 936 476 985T586 1034H591Q606 1031 629 1031T690 994T727 913V884Q725 874 725 870Q725 823 673 779T563 734H554Q509 734 468 769T427 856ZM439 542Q439 556 467 577T523 598T577 558T603 454T555
326T438 194T331 62T292 -70T325 -167T404 -196T526 -140T641 -83Q704 -83 704 -158Q704 -268 619 -326Q513 -398 371 -398H353Q197 -398 107 -315T17 -126T68 47T250 213T390 323Q445 380 445 453Q439 492 439 542Z" />
<glyph unicode="&#xc0;" horiz-adv-x="1421" d="M557 612H812Q864 612 864 634V640Q864 649 830 808T786 1026T773 1085L718 983Q527 628 527 620T557 612ZM731 1836H753Q765 1834 769 1834Q810 1834 874 1743Q998 1566 998 1558V1553Q998 1512 960 1512H950Q897
1512 747 1617T597 1769V1774Q597 1791 628 1811T704 1832Q724 1836 731 1836ZM322 179Q322 177 346 122T370 54Q370 12 252 12L223 13H134L73 12H43Q-43 12 -43 58Q-43 97 36 143T127 204Q157 243 295 496T438 759L467 811Q481 837 510 889L582 1020Q739 1302
742 1306Q821 1424 882 1424T967 1345T1090 781T1210 237T1265 155Q1342 104 1342 67Q1342 12 1272 12H1242L1212 13H1127L1043 12H1014Q859 12 859 61Q859 66 890 124T922 238Q922 409 882 450Q859 474 668 474T438 436T360 309T322 179Z" />
<glyph unicode="&#xc1;" horiz-adv-x="1421" d="M537 613H841Q865 613 865 635V640L779 1075Q779 1085 775 1085T750 1043T722 989Q528 656 528 621Q528 613 537 613ZM822 1510H812Q775 1510 775 1548V1553Q775 1602 974 1779Q1038 1836 1083 1836H1101Q1170 1836
1221 1802Q1232 1795 1232 1781Q1232 1744 1119 1665Q898 1510 822 1510ZM323 180Q323 177 347 123T371 55Q371 13 283 13H44Q-42 13 -42 58Q-42 96 37 143T125 201T325 555T615 1078T740 1303T810 1386T887 1424Q946 1424 970 1342Q991 1258 1026 1083L1070 881Q1076
852 1091 784T1157 480T1210 239Q1232 179 1266 156Q1342 106 1342 68Q1342 13 1273 13H1015Q860 13 860 61Q860 67 891 124T923 212Q923 407 883 451Q861 475 670 475T444 441Q397 395 360 309T323 180Z" />
<glyph unicode="&#xc2;" horiz-adv-x="1421" d="M543 608H833Q864 608 864 630V636L840 758L839 764L834 785Q796 963 786 1022T773 1081T751 1043T630 814T527 616T543 608ZM1156 1519H1141Q1094 1519 1008 1593T909 1667T786 1593T633 1519H626Q574 1519 574
1547V1553Q574 1562 733 1708T934 1855H950Q986 1855 1024 1817Q1028 1813 1047 1784T1091 1719L1150 1634Q1198 1572 1198 1559Q1198 1519 1156 1519ZM322 175Q322 173 346 118T370 50Q370 8 282 8H43Q-43 8 -43 54Q-43 93 36 139T140 216T401 686T702 1235T809
1381T887 1419Q944 1419 970 1333T1090 774T1207 238T1265 151Q1341 100 1341 63Q1341 8 1272 8H1212L1183 9H1127L1072 8H1014Q859 8 859 56Q859 63 890 120T922 208Q922 403 882 446Q859 470 669 470T438 431T360 304T322 175Z" />
<glyph unicode="&#xc3;" horiz-adv-x="1421" d="M564 609H819Q870 609 870 631V637Q870 638 829 845T785 1067T779 1082T756 1041T634 812T533 617T564 609ZM793 1798H810Q867 1798 949 1745T1078 1692T1176 1736T1248 1780Q1290 1780 1290 1732T1204 1605T1041
1525H1032Q1032 1525 1030 1525Q970 1525 888 1578Q804 1632 752 1632T655 1587T591 1542Q541 1542 541 1583Q541 1654 660 1743Q733 1798 793 1798ZM328 176Q328 174 352 119T376 51Q376 9 259 9L229 10H140L80 9H49Q-37 9 -37 55Q-37 93 43 141T134 202T246 398T367
617T446 760T512 878T589 1017L660 1147Q742 1294 748 1303Q827 1421 891 1421T983 1311Q985 1304 1024 1115T1138 584T1215 235Q1238 174 1271 152Q1348 101 1348 64Q1348 9 1279 9H1248L1218 10H1133L1049 9H1020Q865 9 865 57Q865 63 896 121T928 235Q928 406
888 447Q865 471 674 471T450 438Q402 390 365 304T328 176Z" />
<glyph unicode="&#xc4;" horiz-adv-x="1421" d="M564 610H792Q857 610 857 632V638Q857 639 816 846T772 1068T766 1083T746 1049T625 820T520 618T564 610ZM579 1638V1659Q579 1707 620 1755T714 1803H740Q778 1803 812 1769T846 1692V1674Q846 1634 810 1584T724
1533L698 1530H694Q652 1530 616 1560T579 1638ZM1241 1696V1670Q1241 1612 1193 1571T1098 1530H1089L1085 1531H1076Q1066 1533 1063 1533Q1038 1533 1007 1564T976 1625L973 1650L974 1655Q974 1708 1015 1755T1109 1803H1135Q1175 1803 1208 1770T1241 1696ZM315
177Q315 175 339 120T363 52Q363 11 157 11L66 10Q-50 10 -50 56Q-50 94 30 142T121 203T228 390T344 600T426 748T497 875T576 1018L647 1148Q729 1295 735 1304Q814 1422 878 1422T970 1312Q977 1284 1014 1104T1081 789T1155 448T1202 237Q1225 175 1258 153Q1335
102 1335 65Q1335 10 1266 10H1235L1205 11H1120L1036 10H1007Q852 10 852 59Q852 65 883 122T915 237Q915 407 875 448Q852 472 661 472T437 439Q389 389 352 304T315 177Z" />
<glyph unicode="&#xc5;" horiz-adv-x="1416" d="M888 1555H903Q938 1555 966 1591T995 1671V1677L994 1680L991 1704Q990 1707 990 1710Q990 1759 942 1759Q936 1761 933 1761L924 1762H921L898 1758Q881 1758 857 1727T832 1679Q828 1667 828 1664L826 1642V1633L830
1609Q830 1557 879 1557Q885 1555 888 1555ZM630 603H758Q883 603 883 617L882 623V629Q882 632 870 684T855 750L850 771L848 778L842 806Q839 815 835 833Q832 850 828 864L816 912L812 927L806 955L799 983Q796 997 792 1016T784 1057T777 1078T742 1013T622
785T534 613T630 603ZM705 1615V1634Q705 1719 762 1776Q847 1861 931 1861H950Q1014 1861 1065 1815T1116 1707V1674Q1116 1603 1050 1529T897 1455H864Q795 1455 750 1506T705 1615ZM874 478T683 478T456 445T375 320T329 192T356 113T383 44Q383 13 194 13L106
12Q-3 12 -3 60Q-3 94 69 133T172 214T437 699T748 1274T896 1408Q935 1408 959 1319T1100 743T1231 213T1278 145Q1354 88 1354 58Q1354 22 1311 15Q1299 13 1140 13H1087L1031 12Q974 12 937 29T900 57T927 109T955 200Q955 316 923 416Q913 449 899 459Q874
478 683 478Z" />
<glyph unicode="&#xc6;" horiz-adv-x="1872" d="M672 647H898Q937 647 948 698Q1023 1048 1023 1140V1147L1021 1149H1018Q1015 1149 834 908T653 654Q653 647 672 647ZM1254 926T1254 893T1281 829T1352 798T1453 822T1574 846Q1617 846 1617 746T1559 582Q1535
556 1486 556L1452 574L1420 600Q1391 619 1347 619Q1229 619 1196 563Q1152 489 1152 333Q1152 239 1195 181Q1216 154 1302 154Q1419 154 1621 268Q1691 308 1709 308Q1745 308 1745 234Q1745 209 1721 141T1661 36T1494 -1H1391L1338 0H1175Q920 0 871 7Q771
21 771 63Q771 92 845 209Q890 280 890 377T853 497Q830 511 765 511Q616 511 544 456T392 268Q356 207 356 160L357 126L361 93L368 62Q368 10 306 2L255 1H99Q-38 1 -38 50Q-38 90 50 139T175 229L206 270Q237 312 664 900Q782 1062 822 1147L840 1187L842 1221L846
1254Q868 1370 1040 1384Q1128 1391 1478 1391L1641 1392H1748Q1819 1392 1848 1354T1878 1281Q1878 1196 1852 1151T1789 1106T1682 1171T1493 1237T1328 1177Q1306 1146 1280 1036Z" />
<glyph unicode="&#xc7;" horiz-adv-x="1369" d="M51 534V569Q51 716 115 875T300 1154T577 1336T873 1399T1107 1374T1231 1344T1298 1319T1358 1272T1381 1135V1102Q1381 1021 1315 1021Q1304 1021 1256 1091Q1148 1247 846 1247Q754 1247 656 1193T483 1043T368
819T326 565Q326 336 450 210Q508 150 572 131T736 111T1010 182Q1056 201 1125 264T1208 327T1222 299T1171 166T1083 40Q931 -40 711 -40H675Q402 -40 227 117Q51 275 51 534ZM463 -411H435Q367 -411 367 -380V-375Q367 -318 424 -318Q470 -318 500 -291T531
-232T499 -185T467 -143T496 -78T544 -39H568Q603 -39 603 -73Q603 -79 665 -122Q702 -148 702 -206L701 -213Q701 -293 629 -352T463 -411Z" />
<glyph unicode="&#xc8;" horiz-adv-x="1214" d="M680 1829Q735 1829 775 1777Q930 1578 930 1550V1546Q930 1505 892 1505H877Q828 1505 679 1610T529 1757V1767Q529 1785 562 1806T652 1827L663 1829H680ZM882 859Q920 859 944 830T969 769Q969 693 936 625T866
557Q844 557 778 600T632 643T519 593Q468 519 468 302Q468 210 494 185T584 160Q724 160 844 204Q895 223 965 274T1058 325Q1097 325 1097 253Q1097 109 1034 47Q989 3 862 3H658L615 4L443 5Q21 5 21 28V62Q21 90 66 110L138 141Q166 162 188 246T274 733T339
1166T295 1257T251 1349Q251 1395 325 1395L990 1396H1114Q1161 1396 1193 1364T1226 1271T1212 1178Q1186 1117 1149 1117T1022 1178T815 1239T660 1182Q635 1145 605 1038T575 899T609 840T678 811T794 835T882 859Z" />
<glyph unicode="&#xc9;" horiz-adv-x="1214" d="M1027 1826Q1073 1826 1118 1796Q1133 1786 1133 1772Q1133 1728 993 1639Q778 1502 727 1502T676 1541Q676 1594 876 1772Q939 1828 980 1828H1009Q1021 1826 1027 1826ZM696 811Q696 811 882 859Q921 859 945
830T969 770Q969 696 936 627T866 558Q842 558 777 600T632 643T519 594Q468 520 468 302Q468 210 494 185T584 160Q726 160 844 205Q900 226 967 275T1058 325Q1097 325 1097 254Q1097 111 1034 48Q989 3 822 3H741L700 4L401 5Q21 5 21 28V62Q21 91 66 111L104
125L138 141Q165 162 189 251T276 739T339 1168T295 1257T251 1349Q251 1395 325 1395L1075 1397H1114Q1160 1397 1193 1364T1226 1271T1212 1178Q1185 1117 1150 1117T1022 1178T813 1239T660 1183Q635 1146 605 1037T575 898T609 840T696 811Z" />
<glyph unicode="&#xca;" horiz-adv-x="1214" d="M1073 1510H1059Q1006 1510 926 1584T830 1658T703 1584T550 1510H543Q491 1510 491 1538V1544Q491 1563 658 1704T859 1846H867Q906 1846 941 1808Q954 1794 985 1746T1065 1629T1115 1550V1543Q1115 1510 1073
1510ZM696 807Q710 807 792 831T882 856Q920 856 944 827T969 766Q969 690 936 622T866 554Q844 554 779 596T633 639T519 590Q468 516 468 299Q468 207 494 182T584 156Q721 156 844 201Q895 220 965 271T1058 322Q1097 322 1097 250Q1097 106 1034 44Q989 0 862
0H615L571 1L443 2Q21 2 21 24V59Q21 87 66 107L138 138Q165 159 180 214T267 692T339 1154T295 1254T251 1346Q251 1392 325 1392L990 1393H1114Q1161 1393 1193 1361T1226 1268T1212 1174Q1186 1114 1149 1114T1022 1175T815 1236T660 1179Q635 1141 605 1034T575
896T609 836T696 807Z" />
<glyph unicode="&#xcb;" horiz-adv-x="1214" d="M497 1655Q497 1655 500 1681Q500 1714 542 1756T631 1799H657Q695 1799 729 1765T763 1692V1666Q763 1608 715 1567T620 1526H611Q575 1526 536 1554T496 1638V1651L497 1655ZM1158 1696L1155 1644Q1155 1606 1109
1566T1023 1526H997Q989 1528 984 1528Q957 1528 924 1561T891 1633V1660Q891 1702 932 1750T1026 1799H1052Q1091 1799 1123 1767T1155 1709L1158 1696ZM879 860T905 860T955 831T979 771Q979 697 946 628T876 559Q852 559 787 601T642 644T529 595Q478 521 478
303Q478 211 504 186T594 161Q736 161 854 206Q910 227 977 276T1068 326Q1107 326 1107 255Q1107 112 1044 49Q999 4 832 4H751L710 5L411 7Q31 7 31 29V63Q31 92 76 112L114 126L148 142Q175 163 197 249T284 740T349 1172T305 1259T261 1350Q261 1396 335 1396L1085
1398H1124Q1170 1398 1203 1364T1236 1271T1222 1179Q1196 1119 1160 1119T1031 1179T823 1240T670 1184Q644 1145 615 1037T585 899T619 841T687 812T800 836Z" />
<glyph unicode="&#xcc;" horiz-adv-x="728" d="M264 1757V1772Q264 1787 284 1798Q340 1829 398 1829H414Q463 1829 509 1777Q665 1601 665 1550L664 1546V1541Q664 1505 627 1505H612Q563 1505 414 1609T264 1757ZM350 1202Q350 1235 297 1272T243 1341Q243 1394
319 1394H385L408 1393L706 1394H728Q786 1394 786 1365Q786 1322 688 1264Q632 1231 612 1147T526 661T460 198Q460 164 512 124T565 57Q565 11 514 5H401L337 6H275L232 5H187L97 3Q25 3 25 33Q25 76 124 137Q180 171 200 255T285 736T350 1202Z" />
<glyph unicode="&#xcd;" horiz-adv-x="728" d="M393 1537V1546Q393 1566 524 1697T696 1828H726Q736 1826 760 1826T834 1796Q849 1787 849 1772Q849 1736 741 1660Q517 1503 444 1503H428Q393 1503 393 1537ZM346 1202Q346 1233 293 1274T239 1341Q239 1395 337
1395L359 1394L724 1395Q782 1395 782 1365Q782 1324 684 1264Q628 1229 605 1137Q596 1100 560 876T490 472T456 198Q456 162 508 125T561 58Q561 4 488 4H465L443 5L375 6H271L116 4H71Q21 4 21 33Q21 76 120 137Q174 170 193 242T279 727T346 1202Z" />
<glyph unicode="&#xce;" horiz-adv-x="728" d="M596 1850H603Q642 1850 676 1813T780 1666T851 1554Q851 1513 797 1513T662 1587T566 1662T439 1588T278 1513T228 1542V1548Q228 1556 250 1576L340 1659L447 1758Q465 1776 478 1788L496 1806Q540 1850 596 1850ZM350
1200Q350 1229 297 1270T243 1339Q243 1392 318 1392H385L407 1391L705 1392H728Q785 1392 785 1363Q785 1320 688 1262Q635 1230 612 1143T524 651T459 205T511 122T564 55Q564 9 514 3H401L336 4H275L253 3H210L96 1Q24 1 24 31Q24 74 123 135Q180 170 201 256Q203
263 213 321L217 344L220 366L228 411Q233 439 240 483T257 579T284 736T325 973T350 1200Z" />
<glyph unicode="&#xcf;" horiz-adv-x="719" d="M224 1637V1654Q224 1700 264 1747T359 1794H380Q417 1794 449 1762T481 1702L484 1677V1673L483 1669Q483 1623 444 1576T353 1529H328Q290 1529 257 1562T224 1637ZM749 1794H770Q807 1794 840 1761T873 1690V1664Q870
1652 870 1644Q870 1613 830 1573T758 1532L730 1528H726L722 1529H713Q705 1531 692 1531T647 1562T616 1621L613 1645V1650L614 1654Q614 1691 651 1742T749 1794ZM20 35Q20 81 109 127Q171 159 193 238Q206 284 278 719T351 1218Q351 1242 296 1272T240 1354Q240
1394 311 1394H356L378 1393L697 1394H719Q774 1394 774 1362Q774 1317 685 1273Q622 1242 600 1160T510 660T442 179Q442 154 496 124T551 44Q551 11 505 5H202L111 3H66Q20 3 20 35Z" />
<glyph unicode="&#xd0;" horiz-adv-x="1429" d="M707 1262Q637 1262 606 1183Q545 1025 545 846Q545 801 562 788T695 775T811 740Q811 669 787 649T641 629T503 587Q495 568 465 385T434 179Q434 133 537 133H596Q704 133 806 187Q1018 300 1103 573Q1143 700
1143 836V854Q1143 857 1143 860Q1143 951 1114 1032Q1033 1262 764 1262H707ZM815 1397Q940 1397 1053 1361Q1275 1290 1363 1102Q1415 991 1415 872V817Q1415 668 1350 509Q1216 181 887 56Q737 -1 549 -1H414L388 0L308 1H196L93 -1Q18 -1 18 48Q18 78 85 118T163
184Q233 355 233 567Q233 610 217 621Q216 622 161 631T106 669Q106 726 136 756Q147 767 200 774T269 811T312 999T340 1200T301 1259Q234 1290 234 1331T282 1386Q304 1392 438 1392L678 1397H815Z" />
<glyph unicode="&#xd1;" horiz-adv-x="1526" d="M814 1789H841Q901 1789 975 1737T1103 1684T1203 1727T1283 1771T1317 1739V1730Q1317 1675 1216 1581Q1147 1517 1076 1517H1049Q998 1517 917 1570T788 1623T683 1578T616 1533Q571 1533 571 1567V1576Q571 1628
657 1708T814 1789ZM341 1097T341 1152T293 1249T245 1338Q245 1393 392 1393Q468 1393 560 1341T689 1237L713 1196Q726 1174 760 1113L922 828Q1146 435 1154 435L1165 460Q1179 507 1218 751T1257 1092L1261 1179Q1261 1222 1230 1269T1199 1317Q1199 1353 1249
1373T1450 1394H1497Q1607 1394 1607 1340Q1607 1322 1528 1254T1437 1141L1364 721Q1352 644 1323 476T1262 130L1254 83Q1232 -8 1197 -8Q1171 -8 1129 22Q1061 70 985 193L869 398Q524 1005 510 1005Q488 1005 480 982T419 637T366 181Q366 155 404 116T442
54Q442 14 368 5Q351 3 186 3T20 50Q20 104 98 142T194 251Q220 354 280 725Z" />
<glyph unicode="&#xd2;" horiz-adv-x="1473" d="M702 130H734Q830 130 922 197Q1095 324 1175 591Q1210 708 1210 829V844Q1210 1154 1013 1257Q957 1286 889 1286H857Q780 1286 694 1238Q512 1137 419 847Q380 726 380 608V576L381 560Q381 386 466 261Q507 201
568 166T702 130ZM651 1766V1775Q651 1790 683 1814T791 1838H796Q850 1838 893 1790Q1052 1611 1052 1559V1555Q1052 1513 1009 1513H1004Q951 1513 801 1618T651 1766ZM915 1426Q1162 1426 1320 1272Q1388 1206 1435 1100T1482 873V828Q1482 672 1420 518Q1291
199 998 60Q849 -11 697 -11H651Q420 -11 256 159Q107 312 107 590Q107 734 166 889T332 1162T585 1352T892 1426H915Z" />
<glyph unicode="&#xd3;" horiz-adv-x="1473" d="M380 609V576L381 560Q381 368 484 238Q570 130 718 130Q908 130 1053 332Q1128 436 1169 572T1210 829V845Q1210 1041 1123 1164T889 1287H873Q679 1287 543 1101Q467 998 424 863T380 609ZM843 1512H827Q792 1512
792 1550V1555Q792 1558 916 1697T1095 1837H1125Q1135 1835 1159 1835T1233 1805Q1248 1796 1248 1781V1776Q1248 1745 1140 1669Q916 1512 843 1512ZM892 1426H939Q1052 1426 1156 1382Q1360 1295 1438 1091Q1482 978 1482 873V829Q1482 669 1414 504Q1278 176
957 43Q828 -11 696 -11Q426 -11 267 148T107 566Q107 569 107 572Q107 741 166 890Q294 1215 592 1356Q739 1426 892 1426Z" />
<glyph unicode="&#xd4;" horiz-adv-x="1473" d="M702 126H734Q825 126 913 187T1068 348T1172 578T1210 825V840Q1210 1036 1123 1159T889 1282H857Q770 1282 682 1226Q498 1110 414 827Q380 714 380 604V572L381 556Q381 382 466 257Q507 197 568 162T702 126ZM990
1857H998Q1036 1857 1072 1818Q1080 1809 1102 1775T1146 1710T1181 1659T1220 1606T1246 1560V1553Q1246 1520 1197 1520L1189 1521H1182Q1141 1521 1055 1594T957 1668T850 1604L828 1590Q711 1520 681 1520H674Q622 1520 622 1548V1555Q622 1562 781 1709T990
1857ZM108 606Q108 759 180 920T365 1193T618 1363T896 1422Q1159 1422 1320 1267Q1389 1200 1435 1095T1482 868V824Q1482 664 1419 512Q1291 205 1018 65Q862 -15 697 -15H651Q420 -15 256 155Q184 230 146 337T107 561L108 583V606Z" />
<glyph unicode="&#xd5;" horiz-adv-x="1473" d="M702 127H734Q830 127 922 194Q1095 321 1175 588Q1210 705 1210 826V841Q1210 1151 1013 1254Q957 1283 889 1283H857Q780 1283 694 1235Q512 1134 419 844Q380 723 380 605V573L381 557Q381 383 466 258Q507 198
568 163T702 127ZM823 1808H840Q893 1808 975 1755T1106 1702T1202 1746T1283 1790T1317 1758Q1317 1694 1216 1600Q1146 1535 1067 1535L1057 1536H1048Q1001 1536 915 1589T784 1642T683 1597T616 1552Q571 1552 571 1586V1594Q571 1654 660 1731T823 1808ZM915
1423Q1166 1423 1320 1269Q1390 1199 1436 1095T1482 870V825Q1482 665 1418 511Q1286 193 998 57Q849 -14 697 -14H651Q540 -14 436 30Q225 120 144 342Q107 442 107 586Q108 730 166 883Q288 1202 572 1343Q732 1423 892 1423H915Z" />
<glyph unicode="&#xd6;" horiz-adv-x="1473" d="M1211 811V874Q1211 1051 1120 1167T890 1284L874 1285Q872 1285 870 1285Q781 1285 697 1238Q523 1142 430 876Q382 741 382 606V558Q382 368 486 236Q572 128 719 128Q902 128 1047 318Q1129 426 1170 567T1211
811ZM617 1666Q617 1711 657 1758T751 1805H777Q815 1805 847 1773T880 1710L883 1685V1680L882 1676Q882 1628 843 1582T761 1535L735 1532H731Q685 1532 653 1564T620 1624L617 1636V1666ZM1279 1693V1676Q1279 1628 1238 1580T1144 1532H1118Q1080 1532 1046
1566T1012 1640V1666Q1012 1708 1053 1756T1151 1805H1173Q1211 1805 1245 1771T1279 1693ZM894 1424H940Q1052 1424 1156 1380Q1359 1293 1440 1089Q1484 976 1484 849V826Q1484 668 1416 506Q1277 172 959 41Q830 -13 690 -13Q444 -13 288 127Q202 205 156 317T109
541V586Q109 746 173 900Q305 1218 593 1354Q740 1424 894 1424Z" />
<glyph unicode="&#xd7;" horiz-adv-x="1049" d="M556 676Q580 676 714 805T870 935T926 901T961 847T821 697T680 553Q680 526 788 400T897 263Q897 240 857 204T800 168Q764 168 657 296T529 425Q524 425 384 295T231 165Q205 165 170 200T135 257Q135 270 278
403T421 547Q421 570 312 696T203 840T241 894T313 931Q332 931 442 804T556 676Z" />
<glyph unicode="&#xd8;" horiz-adv-x="1476" d="M380 604V567Q380 435 411 385Q420 370 428 370Q442 370 761 749T1081 1160Q1081 1206 1023 1241T885 1276H860Q680 1276 539 1087Q457 977 419 841T380 604ZM1206 804V841Q1206 956 1178 1006Q1169 1022 1161 1022T832
640T510 225T566 157T692 121H730Q813 121 902 176T1062 337T1169 569T1206 804ZM194 156T194 180T179 239T135 363T107 531V583Q107 730 168 888T345 1168Q578 1414 917 1414Q996 1414 1090 1390T1213 1366T1293 1394T1364 1423H1383Q1442 1423 1442 1358Q1442
1341 1424 1283T1406 1204T1443 1062T1481 842V816Q1481 816 1481 811Q1481 666 1420 511Q1291 181 980 45Q834 -19 674 -19Q610 -19 520 -1T387 18T283 -7T209 -33Q150 -33 150 37Q150 52 160 76L179 115Q194 156 194 180Z" />
<glyph unicode="&#xd9;" horiz-adv-x="1453" d="M1012 1551V1546Q1012 1505 969 1505H964Q912 1505 762 1610T611 1763V1767Q611 1784 643 1805T729 1827L757 1830L762 1829Q811 1829 853 1782Q1012 1603 1012 1551ZM316 1167T316 1197T260 1260T204 1319Q204
1365 224 1380T288 1395H328L367 1394L554 1395Q667 1395 704 1362L712 1348Q712 1325 668 1285T604 1205T552 1034Q462 664 462 408Q462 284 535 216T758 148Q856 148 933 206T1053 354T1154 768T1212 1198Q1212 1246 1176 1274Q1118 1318 1118 1330Q1118 1395
1198 1395L1237 1394H1351Q1553 1394 1553 1370Q1553 1318 1508 1280Q1495 1269 1452 1252T1395 1209T1332 887T1252 464Q1186 184 987 63Q854 -17 685 -17H642Q438 -17 319 90T200 407Q200 460 254 801L268 882Q270 896 293 1031Z" />
<glyph unicode="&#xda;" horiz-adv-x="1453" d="M1243 1778V1768Q1243 1729 1130 1657Q888 1503 833 1503H828Q787 1503 787 1542V1547Q787 1550 911 1690T1092 1830H1108Q1120 1828 1143 1828T1205 1809T1243 1778ZM316 1188Q316 1229 260 1261T204 1319Q204
1365 224 1380T288 1395H367L407 1394L516 1395H593Q668 1395 704 1363L712 1348Q712 1325 668 1286T604 1205T552 1034Q462 664 462 409Q462 283 537 216T758 148Q854 148 931 204T1052 353T1154 769T1212 1198Q1212 1248 1176 1275Q1118 1318 1118 1330Q1118
1395 1198 1395H1237L1276 1394L1469 1395Q1553 1395 1553 1370Q1553 1318 1508 1280Q1497 1271 1453 1253Q1409 1236 1395 1210Q1382 1184 1332 884T1252 460Q1179 155 954 45Q830 -16 685 -16H642Q438 -16 319 92T200 408Q200 460 254 801L288 1001Q316 1167
316 1188Z" />
<glyph unicode="&#xdb;" horiz-adv-x="1453" d="M973 1851H980Q1028 1851 1060 1806Q1229 1569 1229 1555Q1229 1514 1175 1514T1040 1588T943 1663T816 1589T654 1514T604 1543Q604 1561 879 1813Q920 1851 973 1851ZM316 1165T316 1195T260 1258T204 1317Q204
1363 224 1378T288 1393H328L367 1392L554 1393Q667 1393 704 1360L712 1346Q712 1323 668 1283T604 1203T552 1032Q462 662 462 406Q462 280 536 213T758 146Q856 146 933 204T1053 353T1154 770T1212 1196Q1212 1244 1176 1272Q1118 1316 1118 1328Q1118 1393
1198 1393L1237 1392L1351 1391Q1553 1391 1553 1367Q1553 1316 1508 1278Q1495 1267 1452 1250T1395 1208T1331 882T1252 458Q1187 182 987 61Q854 -19 685 -19H642Q440 -19 320 88T200 405Q200 458 254 799L268 880Q270 894 293 1029Z" />
<glyph unicode="&#xdc;" horiz-adv-x="1453" d="M607 1635V1656Q607 1704 648 1752T742 1800H768Q806 1800 840 1766T874 1689V1671Q874 1624 834 1576T730 1527H722Q680 1527 644 1557T607 1635ZM1137 1800H1163Q1202 1800 1235 1767T1269 1693V1667Q1269 1630
1232 1579T1134 1527H1108Q1100 1529 1095 1529Q1061 1529 1031 1565T1001 1639V1652L1005 1682Q1005 1715 1047 1757T1137 1800ZM210 409Q210 487 268 826T326 1198T270 1261T214 1320Q214 1366 235 1381T298 1397L338 1396L563 1397Q677 1397 714 1364L722 1350Q722
1328 676 1286T613 1207T562 1036Q472 666 472 410Q472 283 547 216T768 149Q865 149 943 207T1061 351T1161 752T1222 1199Q1222 1249 1186 1276Q1128 1320 1128 1357T1345 1395T1563 1371Q1563 1319 1518 1281Q1507 1272 1463 1254T1405 1211T1339 877Q1288 570
1260 454Q1197 187 997 65Q866 -15 695 -15H652Q550 -14 465 16Q298 76 241 217Q210 293 210 369V409Z" />
<glyph unicode="&#xdd;" horiz-adv-x="1331" d="M769 1503H754Q718 1503 718 1541V1546Q718 1549 843 1689T1023 1830H1029L1034 1829L1057 1827Q1063 1826 1069 1826Q1110 1826 1160 1796Q1175 1787 1175 1772Q1175 1729 1056 1653Q820 1503 769 1503ZM182 1332V1349Q182
1377 231 1390Q246 1394 397 1394L462 1395L494 1396H556Q595 1396 627 1377T660 1328Q660 1324 645 1277T629 1199Q629 1114 739 841Q764 780 777 780T934 983T1077 1238Q1077 1247 1051 1290T1024 1348L1034 1364Q1066 1395 1256 1395T1446 1350T1359 1250T1245
1162Q1015 885 865 641Q834 590 807 475T780 242Q780 193 826 132T873 41Q873 3 784 3L750 4Q715 5 678 5L548 6Q331 6 331 40Q331 79 388 114T471 200Q540 335 540 565Q540 637 509 719Q379 1064 336 1153Q315 1196 249 1250T182 1332Z" />
<glyph unicode="&#xde;" horiz-adv-x="1184" d="M570 448H633Q754 448 842 536T931 755V772Q929 790 929 798Q929 871 871 924T728 978H674L666 977Q585 977 569 932Q568 929 558 876L488 480Q488 448 570 448ZM247 1338Q247 1408 353 1408L381 1407L535 1406Q687
1406 706 1402Q767 1389 767 1345Q767 1325 681 1279Q628 1251 628 1197T652 1130T779 1117Q967 1117 1080 1027T1193 772Q1193 676 1151 584T1024 428T838 336T590 308L537 309L509 310Q490 310 475 287Q441 234 441 200T476 142Q541 99 541 70Q541 18 501 8T222
-2L84 -4Q12 -4 12 25Q12 68 23 83T114 131Q169 154 186 214Q191 224 211 342T243 521T267 651T320 942T362 1187Q362 1242 318 1264Q247 1300 247 1338Z" />
<glyph unicode="&#xdf;" horiz-adv-x="1219" d="M842 1460Q964 1460 1055 1379T1146 1212T1119 1076T1001 936T910 781T983 627Q1102 483 1126 434T1150 323Q1150 185 1035 86T736 -14Q633 -14 563 22T493 105T535 189T594 227T669 191T769 154T848 187T887 286T782
499T677 717Q677 823 759 936Q893 1121 893 1167T858 1245T771 1278T660 1214T563 1044T452 520T323 -17T191 -194T39 -253H1Q-81 -253 -81 -184Q-81 -141 -24 -125L29 -117L61 -100Q89 -76 114 -4T176 293T213 629Q213 641 220 699T228 805Q228 957 277 1050T442
1277Q599 1460 842 1460Z" />
<glyph unicode="&#xe0;" horiz-adv-x="1100" d="M723 753Q723 826 613 826Q438 826 342 572Q312 492 312 437L309 411V359Q309 286 340 231T421 176H437Q469 176 529 216T633 337Q719 498 719 671Q721 687 721 697L723 731V753ZM565 1445Q607 1445 630 1395Q640
1373 697 1259T754 1128V1124Q754 1093 699 1093L689 1091H684Q652 1091 521 1222T390 1389Q390 1445 494 1445L500 1446L505 1447L528 1448H539Q554 1445 565 1445ZM925 931Q999 931 999 850Q999 831 953 605T906 309T924 225Q931 219 984 216T1037 166Q1037 95
964 54T804 13T679 53Q671 62 653 113T628 164Q616 164 566 118Q447 8 325 7H306Q199 7 129 96T58 314Q58 577 223 762Q304 852 417 904T648 956Q694 956 763 943T864 929L898 931H925Z" />
<glyph unicode="&#xe1;" horiz-adv-x="1100" d="M725 755Q725 827 617 827H601Q511 827 422 722Q378 670 346 579T314 438L311 412V360Q311 283 343 230T431 177L439 178H446Q473 178 532 218T631 331Q721 500 721 672Q723 688 723 698L725 732V755ZM969 1405V1394Q969
1369 812 1230T609 1090Q543 1090 543 1119Q543 1163 723 1394Q767 1450 823 1450H840L888 1446Q969 1446 969 1405ZM1001 851Q1001 833 955 607T908 315T920 234T985 218T1039 167Q1039 95 973 60Q886 14 802 14T681 55Q671 66 654 116T628 166Q622 166 568 118Q445
8 323 8T131 97T60 318Q60 580 225 763Q299 845 410 901T631 957H670Q709 957 767 944T866 931L900 933L927 932Q1001 932 1001 851Z" />
<glyph unicode="&#xe2;" horiz-adv-x="1100" d="M723 752Q723 824 615 824H607Q509 824 420 719Q377 668 345 576T312 435L309 409V357Q309 284 340 229T429 174L437 175H444Q471 175 530 215T629 328Q719 497 719 669Q721 685 721 695L723 729V752ZM666 1472T713
1472T787 1435Q948 1202 948 1138Q948 1094 889 1094H881Q851 1094 769 1182T679 1271T561 1183T404 1095T356 1128V1134Q356 1141 391 1179L421 1210Q427 1216 439 1229L584 1389Q615 1425 640 1448ZM999 848Q999 830 953 604T906 312T918 231T983 215T1037 164Q1037
94 963 53T803 11T679 52Q669 63 652 113T626 163Q620 163 566 115Q443 5 325 5H306Q199 5 129 94T58 312Q58 575 223 760Q297 842 408 898T629 954H668Q703 954 761 941T864 928L898 930L925 929Q999 929 999 848Z" />
<glyph unicode="&#xe3;" horiz-adv-x="1100" d="M725 754Q725 784 700 805T626 826H601Q563 826 507 796T407 700Q311 556 311 403V360Q311 287 342 232T423 177H439Q471 177 528 215Q642 291 688 483Q723 631 723 698L725 731V754ZM780 1109H763Q703 1109 630
1160T510 1212T412 1170T350 1127Q301 1127 301 1164Q301 1219 386 1298T547 1377L555 1376H564Q611 1376 690 1325T813 1273T904 1314T974 1355Q1017 1355 1017 1321Q1017 1265 933 1187T780 1109ZM1001 851Q1001 832 955 606T908 309T921 230T986 217T1039 167Q1039
96 967 55T807 14T681 54Q672 64 655 114T630 165Q617 165 564 116Q448 9 327 8H308Q201 8 131 97T60 323Q60 591 239 777Q330 872 439 914T626 957T765 944T866 930L900 932L927 931Q1001 931 1001 851Z" />
<glyph unicode="&#xe4;" horiz-adv-x="1100" d="M425 179H440Q493 179 554 236T645 355Q726 529 726 733L727 749Q727 784 703 806T627 828H602Q555 828 500 793T408 702Q312 558 312 396V370Q312 280 347 230T425 179ZM505 1396Q542 1396 576 1362T610 1283V1261Q610
1217 570 1169T474 1121H456Q444 1124 428 1124T380 1156T347 1234V1251Q347 1293 383 1343T471 1394L479 1396H505ZM1004 1266Q1004 1216 964 1169T872 1121H846Q808 1121 774 1155T740 1229V1255Q740 1301 781 1348T880 1396H894Q935 1396 967 1364T1000 1305L1004
1275V1266ZM1003 868Q1002 848 984 758Q910 398 910 285Q910 241 922 232T978 219T1030 206T1040 168V153Q1040 96 966 56T807 16T683 56Q676 63 657 115T632 167T567 116Q444 10 328 10H310Q203 10 133 99T62 318V359Q62 464 109 578T241 779T433 912T623 959T767
946T868 932L901 934L928 933Q1003 933 1003 868Z" />
<glyph unicode="&#xe5;" horiz-adv-x="1100" d="M727 1385H706Q697 1382 687 1382T649 1354T620 1297L617 1285Q617 1282 617 1279L616 1269V1266L617 1263Q617 1182 683 1182H701Q710 1185 716 1185T754 1210T785 1261L790 1285V1313Q790 1385 727 1385ZM725
757Q725 785 701 807T618 829H609Q554 829 499 794T402 695Q311 558 311 405V362Q313 344 313 336Q313 272 348 226T431 179H439Q467 179 524 213Q640 282 690 494Q722 630 722 682L724 700L725 726V757ZM488 1239V1266Q488 1360 564 1428T729 1496H736Q809 1496
864 1446T920 1328V1301Q920 1208 844 1140T685 1071H665Q592 1071 540 1123T488 1239ZM1002 868Q1002 846 981 744Q909 393 909 269Q909 220 974 220T1039 169Q1039 98 967 57T806 16T681 57Q675 64 655 115T631 167Q620 167 568 120Q445 10 327 10H309Q209 10
135 93T61 318V359Q61 464 109 578T237 776T425 909T631 959H670Q696 959 765 946T867 932L900 935L927 934Q1002 934 1002 868Z" />
<glyph unicode="&#xe6;" horiz-adv-x="1500" d="M289 370V342Q289 263 324 209T414 154H422Q456 154 520 196T609 286T664 471T713 670T731 747T688 793T594 822H586Q537 822 484 790T388 695Q289 546 289 370ZM927 542L930 520Q930 497 943 497H948Q1057 497
1193 588Q1258 631 1258 715V742Q1258 781 1231 804T1179 828H1154Q1093 828 1010 733T927 546V542ZM829 939Q876 939 912 906L920 885Q927 868 933 868Q938 868 962 878Q1106 942 1205 943H1233Q1354 943 1417 881T1481 717T1395 552Q1271 461 1081 418L1028 406Q949
390 947 389Q915 375 915 312T964 199T1090 150T1245 177T1357 204T1392 186Q1392 122 1252 49T960 -25Q862 -25 779 34Q739 62 709 109L696 131L685 153Q666 186 662 186T632 162Q437 -26 307 -26T106 60T35 283V310Q36 427 84 546Q188 800 441 899Q546 940 651
940L753 930L779 933Q824 939 829 939Z" />
<glyph unicode="&#xe7;" horiz-adv-x="883" d="M554 938H594Q680 938 806 873Q860 845 860 793V776Q860 743 831 703T776 662T709 708T644 766Q618 778 552 778Q423 778 337 641Q269 533 269 363Q269 276 317 212T448 148T614 176T709 205Q744 205 744 175Q744
108 587 25Q482 -30 351 -30T123 60T25 313V355Q25 357 25 359Q25 458 70 568Q157 784 359 886Q460 938 554 938ZM460 -201V-208L459 -215Q459 -285 391 -346T222 -407H179Q123 -407 123 -381V-375Q123 -306 156 -306L191 -311Q237 -311 264 -284T291 -226T260
-179T228 -137T257 -74T319 -37H326L333 -38Q366 -38 366 -56L363 -82Q363 -96 390 -106T424 -123Q460 -155 460 -201Z" />
<glyph unicode="&#xe8;" horiz-adv-x="924" d="M334 573V551Q334 524 354 524Q447 524 583 609Q670 663 670 723V733Q670 780 643 807T582 835H572L567 834Q495 834 415 742T334 573ZM348 1384V1394Q348 1406 373 1427T474 1448H496Q553 1448 582 1405Q711 1211
711 1129V1124Q711 1091 647 1091L642 1092H637Q609 1092 479 1222T348 1384ZM60 340V380Q60 484 105 592Q198 817 403 917Q500 964 621 964T818 899T894 730T831 571Q739 493 505 438Q406 416 382 404Q332 379 332 313T380 209T489 172T632 206T734 240Q791 240
791 191Q791 131 629 52Q524 1 428 1H388Q245 1 153 97T60 340Z" />
<glyph unicode="&#xe9;" horiz-adv-x="924" d="M329 574V552Q329 526 345 526H354Q425 526 587 616Q665 659 665 725V734Q665 781 638 808T582 836H562Q490 836 410 744T329 574ZM582 1091H572Q512 1091 512 1119V1124Q512 1133 542 1176L584 1236L587 1242L602
1263L624 1294L655 1340L661 1350L692 1395Q741 1450 785 1450H820Q937 1450 937 1405V1390Q937 1371 782 1231T582 1091ZM582 965H621Q750 965 819 896T889 727T830 576T608 469Q560 453 473 434T357 395T327 311T374 211T487 174T628 207T745 241T786 192Q786
138 654 70T423 2H383Q240 2 148 98T55 342V381Q55 486 100 594Q189 809 380 910Q484 965 582 965Z" />
<glyph unicode="&#xea;" horiz-adv-x="924" d="M340 549Q340 522 361 522Q436 522 594 610Q676 656 676 717V736Q674 746 674 751Q674 785 646 809T588 833H573Q495 833 437 759Q342 637 342 576L340 567V549ZM660 1472H668Q715 1472 741 1428Q896 1170 896 1145V1139Q896
1094 829 1094Q800 1094 718 1182T628 1271Q611 1271 509 1183T355 1095T304 1128Q304 1142 319 1157T419 1264T530 1387T586 1445T660 1472ZM593 962H632Q748 962 824 898T900 732V714Q900 610 826 560Q705 479 511 436Q414 414 388 402Q338 378 338 328Q338 253
381 212T495 171T640 204T755 238T797 190T672 71T434 -1H394Q329 -1 261 26T145 110Q66 203 66 359Q66 466 106 576T222 772T397 909T593 962Z" />
<glyph unicode="&#xeb;" horiz-adv-x="924" d="M338 576V554Q338 527 358 527H363Q460 527 583 609Q674 670 674 726V736Q674 783 647 810T591 837H566Q556 835 552 835Q497 835 418 744T338 576ZM292 1234V1247Q292 1300 332 1348T424 1396H450Q487 1396 521
1362T555 1287V1262Q555 1217 515 1169T414 1121H405Q360 1121 326 1155T292 1234ZM949 1279V1266Q949 1216 909 1169T816 1121H794Q748 1121 717 1157T685 1234V1252Q685 1301 725 1348T818 1396H844Q892 1396 920 1357T949 1279ZM591 966H630Q747 966 822 902T898
733T834 573Q749 500 508 441Q400 414 386 407Q336 382 336 317T383 213T495 175T637 208T754 242T795 194Q795 134 633 55Q526 3 412 3Q249 3 157 99T64 343V383Q64 490 110 597Q202 812 389 911Q493 966 591 966Z" />
<glyph unicode="&#xec;" horiz-adv-x="625" d="M305 1434Q345 1434 370 1384Q494 1136 494 1118V1113Q494 1080 429 1080H424Q378 1080 254 1219T130 1377T157 1416T257 1437H279Q294 1434 305 1434ZM536 136Q536 89 432 43T232 -4H216Q153 -4 127 17T100 92T124
214T183 452T217 673T167 738Q93 758 93 814Q93 863 188 903T375 943T480 924T493 867T472 711L462 654L459 639L454 609L445 563Q393 303 393 251T443 198L461 200Q487 200 511 179T536 136Z" />
<glyph unicode="&#xed;" horiz-adv-x="625" d="M358 1079H348Q287 1079 287 1107V1112Q287 1121 317 1164L388 1267Q412 1297 433 1333Q496 1438 561 1438H595Q713 1438 713 1388L712 1383V1378Q712 1372 566 1226T358 1079ZM399 943H428Q499 943 499 869Q499
823 449 551T398 253Q398 200 466 200Q495 200 518 179T541 137Q541 86 432 42T237 -3H222Q158 -3 132 18T105 91T129 211T187 450T222 674T173 739Q99 759 99 815Q99 861 173 895Q277 943 399 943Z" />
<glyph unicode="&#xee;" horiz-adv-x="625" d="M451 1462H459Q504 1462 532 1418Q687 1177 687 1131T620 1084Q591 1084 509 1173T420 1262T302 1174T144 1086T97 1118V1125Q97 1133 144 1180T258 1305L318 1371Q324 1378 336 1391T357 1414Q398 1462 451 1462ZM399
942H427Q474 942 486 922T498 856T448 549T397 252Q397 198 457 198Q541 198 541 135Q541 89 464 55Q331 -4 236 -4H221Q156 -4 130 18T104 84T132 218T190 462T221 670T172 738Q98 758 98 814Q98 860 172 894Q276 942 399 942Z" />
<glyph unicode="&#xef;" horiz-adv-x="625" d="M83 1226V1243Q83 1292 123 1340T216 1388H242Q278 1388 311 1355T344 1292L347 1267V1262L346 1258Q346 1207 306 1160T210 1113H192Q146 1113 115 1149T83 1226ZM730 1236Q730 1205 691 1159T600 1113H573Q537
1113 504 1146T471 1209L468 1234V1239L469 1243V1252Q471 1260 471 1265Q471 1309 517 1348T606 1388H623Q638 1385 655 1385T702 1350T732 1279V1249Q730 1239 730 1236ZM396 948H424Q495 948 495 874Q495 816 445 556T394 258Q394 205 463 205Q491 205 514 183T538
142Q538 99 474 67Q344 2 233 2H218Q153 2 127 24T101 92T130 229T168 372Q218 672 218 675Q218 731 169 744Q95 764 95 820Q95 864 182 906T396 948Z" />
<glyph unicode="&#xf0;" horiz-adv-x="1019" d="M307 371V353Q307 250 347 183T452 115H469Q503 115 552 144T642 242Q732 392 732 548V593Q732 790 582 790H573Q529 790 478 759T386 661Q307 529 307 371ZM929 1386Q929 1338 883 1299T836 1225T878 1110Q980
916 980 691V663Q980 370 823 177Q744 80 638 30T421 -20Q271 -20 173 73Q125 118 93 189T61 340V396Q61 478 105 582T220 760Q363 907 556 907L583 906L607 905Q660 905 670 908Q699 917 699 966T670 1070T606 1126T492 1094T403 1062Q361 1062 361 1128Q361 1152
427 1193T494 1262T427 1330T360 1399Q360 1465 460 1465Q504 1465 587 1431T698 1396T787 1420T864 1444Q929 1444 929 1386Z" />
<glyph unicode="&#xf1;" horiz-adv-x="1175" d="M577 1361H602Q654 1361 728 1310T850 1259T943 1300T1005 1342Q1055 1342 1055 1313V1297Q1055 1250 971 1173T826 1095H792Q741 1095 669 1146T548 1197T449 1154T388 1111Q339 1111 339 1150Q339 1210 426 1285T577
1361ZM850 948Q1046 948 1046 704Q1046 648 1011 465T976 252T999 199T1061 169T1101 148Q1101 104 1028 70Q900 10 815 10Q776 10 744 34T711 117Q711 136 747 355T784 626Q784 758 698 758Q643 758 581 700T470 536T404 262Q385 93 373 72Q337 6 223 6Q117 6
117 162V187Q117 241 162 366T207 582T186 700Q140 759 140 770Q140 838 199 887T341 936T461 892Q481 869 481 806T493 743Q494 743 520 771Q688 948 850 948Z" />
<glyph unicode="&#xf2;" horiz-adv-x="1005" d="M591 834H574Q482 834 403 702T323 404V385Q323 274 366 203T475 131L484 132H492Q528 132 575 169T656 268Q733 412 733 555V591Q733 697 692 765T591 834ZM498 1448H520Q576 1448 605 1405Q735 1210 735 1129V1124Q735
1091 670 1091L666 1092H661Q618 1092 495 1231T371 1388T398 1427T498 1448ZM72 367V412Q72 499 115 610T238 800T415 922T609 966H624Q785 966 885 861T985 598V568Q985 457 939 350T821 167T653 45T465 -1H434Q268 -1 170 107T72 367Z" />
<glyph unicode="&#xf3;" horiz-adv-x="1005" d="M589 835H572Q535 835 489 804T403 708Q321 571 321 405V387Q321 275 363 204T464 133H482Q564 133 646 256T728 520L730 538L731 566V593Q731 703 689 769T589 835ZM831 1450Q949 1450 949 1400L948 1395V1390Q948
1369 792 1230T594 1091H584Q523 1091 523 1119V1124Q523 1164 703 1395Q744 1448 785 1448L797 1450H831ZM70 368V413Q70 514 119 624Q213 834 403 919Q511 967 607 967H638Q784 967 883 863T983 600V569Q983 469 940 360T822 171Q660 0 447 0H431Q355 0 284 29T166
110Q70 216 70 368Z" />
<glyph unicode="&#xf4;" horiz-adv-x="1005" d="M591 832H574Q482 832 403 700T323 402V384Q323 290 360 210T467 130H484Q523 130 570 163T652 259Q733 403 733 554V590Q733 700 691 766T591 832ZM928 1145V1132Q928 1094 862 1094Q838 1094 754 1178L660 1272Q654
1272 542 1184T383 1095T337 1128V1134Q337 1142 402 1213T493 1309T560 1383T610 1439Q646 1472 691 1472H699Q744 1472 772 1428Q928 1185 928 1145ZM72 365V410Q72 501 117 611T239 799T415 920T609 964H640Q786 964 885 859T985 596V566Q985 564 985 561Q985
448 938 344Q844 134 665 49Q557 -3 449 -3H434Q267 -3 170 105T72 365Z" />
<glyph unicode="&#xf5;" horiz-adv-x="1005" d="M729 547V601Q729 703 687 769T587 835H579L570 834Q478 834 411 722Q320 570 320 422V368Q322 350 322 341Q322 254 369 193T472 132L480 133H489Q524 133 570 169T657 277Q729 405 729 547ZM752 1109H735Q685
1109 602 1161T481 1213T398 1181L322 1127Q273 1127 273 1164Q273 1225 361 1301T519 1377H528Q588 1377 662 1326T784 1274T875 1314T954 1355T989 1321Q989 1265 905 1187T752 1109ZM68 367V398Q68 499 110 607T227 793T401 919T605 967H620Q855 967 947 761Q981
684 981 615V554Q981 468 937 355T816 166T647 45T461 0H430Q274 0 174 100Q127 147 98 219T68 367Z" />
<glyph unicode="&#xf6;" horiz-adv-x="1005" d="M594 836H577Q485 836 406 705T327 424V370Q329 352 329 343Q329 272 370 203T478 134H487Q578 134 657 266T736 549V603Q734 621 734 630Q734 720 690 778T594 836ZM313 1251Q313 1251 315 1273Q315 1311 357 1353T445
1396H471Q507 1396 541 1362T575 1287V1257Q573 1249 573 1244Q573 1192 524 1157T434 1121H426Q386 1121 351 1150T315 1218L312 1243V1247L313 1251ZM706 1252L708 1273Q708 1310 751 1353T838 1396H864Q901 1396 935 1362T969 1283V1266Q969 1209 925 1165T836
1121H815Q767 1121 736 1158T705 1239V1247L706 1252ZM75 369V400L76 414Q76 508 118 610Q205 823 409 921Q507 968 597 968H643Q718 968 784 938T893 859Q988 754 988 601V556Q988 464 946 360Q859 145 655 47Q562 2 468 2H421Q285 2 181 101Q139 141 107 213T75
369Z" />
<glyph unicode="&#xf7;" horiz-adv-x="1015" d="M714 953V927Q714 885 676 840T582 794H565Q524 794 492 826T459 901V922Q459 965 496 1010T587 1055H612Q650 1055 682 1023T714 953ZM192 678H941Q982 678 982 646V636Q982 521 902 521H135Q113 521 113 552V562Q113
615 137 655Q151 678 192 678ZM638 276Q638 221 593 183T504 145H495Q449 145 418 176T386 238L384 247V276Q387 288 387 297Q387 327 427 367T514 407H535Q573 407 604 376T636 314L638 306V276Z" />
<glyph unicode="&#xf8;" horiz-adv-x="1010" d="M318 380Q318 328 326 328H329Q333 328 397 407T479 505Q669 716 669 757V763Q669 777 645 798T578 820L572 819H566Q487 819 405 706T322 465Q320 453 320 446L318 420V380ZM736 559Q736 619 728 619H724Q705 619
589 460Q577 443 565 430Q554 416 542 402L479 327Q381 204 381 189V183Q381 167 404 144T470 120H489Q566 120 649 234T732 479Q734 493 734 499L735 506L736 532V559ZM936 989Q992 989 992 942Q992 933 965 876T937 808T960 717T983 544T942 345T823 156Q660
-13 431 -13Q410 -13 358 -4T269 5T173 -24T108 -54H94Q54 -54 54 -12Q54 3 86 60T118 139T105 195T81 270T71 401T112 597T229 781T406 906T612 952L782 936Q820 936 873 962T936 989Z" />
<glyph unicode="&#xf9;" horiz-adv-x="1171" d="M555 1437Q606 1437 635 1394Q765 1199 765 1113Q765 1081 705 1081H690Q648 1081 525 1220T401 1373V1378Q401 1434 499 1434L527 1437H555ZM925 926Q990 926 1026 873Q1049 839 1049 804T1018 595T987 344Q987
330 1006 274T1039 203Q1076 166 1076 157V142Q1076 100 1016 54T874 7T756 41T719 180Q719 219 701 219Q700 218 678 194Q507 0 335 0Q249 0 198 62T147 207T181 469T215 698T193 766Q186 772 120 772Q100 772 100 794Q100 836 165 868Q294 931 395 931Q469 931
469 786Q469 720 438 554T406 322T427 220T484 185T559 209Q698 294 755 524Q780 624 780 712L778 735L777 757L776 798Q776 926 925 926Z" />
<glyph unicode="&#xfa;" horiz-adv-x="1171" d="M979 1394V1378Q979 1358 822 1219T620 1079Q554 1079 554 1108V1112Q554 1122 584 1165L640 1246L648 1256L734 1383Q784 1439 839 1439H850L898 1435Q979 1435 979 1394ZM925 927Q971 927 1010 891T1049 789Q1049
769 1018 596T987 344Q987 331 1006 275T1039 204Q1076 168 1076 158V143Q1076 100 1017 54T874 8T755 42T719 181Q719 220 701 220Q700 220 678 196Q599 106 516 54T362 1H335Q248 1 198 64T147 209T181 470T215 699T193 766Q185 773 120 773Q100 773 100 794Q100
839 165 869Q297 931 371 931H395Q469 931 469 786Q469 724 438 555T406 321T428 221T486 186T559 209Q630 253 679 337Q780 509 780 712L778 736L777 758L776 798Q776 927 925 927Z" />
<glyph unicode="&#xfb;" horiz-adv-x="1171" d="M677 1463T727 1463T806 1419Q962 1176 962 1129V1123Q962 1085 903 1085H895Q865 1085 783 1173T694 1262Q677 1262 575 1174T421 1086T370 1119V1125Q370 1156 644 1430Q677 1463 727 1463ZM925 926Q971 926 1010
890T1049 788Q1049 768 1018 595T987 343Q987 330 1006 274T1039 203Q1076 167 1076 157V142Q1076 99 1017 53T874 7T755 41T719 180Q719 219 701 219Q700 218 678 194Q507 0 362 0H335Q248 0 198 63T147 208T181 469T215 698T193 765Q185 772 120 772Q100 772
100 793Q100 838 165 868Q297 930 371 930H395Q469 930 469 785Q469 723 438 554T406 320T428 220T486 185T559 208Q630 252 679 336Q780 508 780 711L778 735L777 757L776 797Q776 926 925 926Z" />
<glyph unicode="&#xfc;" horiz-adv-x="1171" d="M518 1386T536 1386T584 1351T615 1276V1258Q615 1216 579 1165T483 1114H456Q448 1116 443 1116Q412 1116 382 1152T352 1227V1244Q352 1294 391 1340T471 1386L493 1389H506Q518 1386 536 1386ZM1006 1236Q1006
1199 965 1158T888 1116L863 1113H859Q823 1113 784 1141T745 1222V1244Q745 1286 780 1336T865 1386L891 1389H895Q935 1389 971 1358T1008 1279V1249Q1006 1241 1006 1236ZM401 936Q475 936 475 792Q475 729 444 560T412 326T434 226T491 191T565 215Q704 300
761 530Q786 630 786 718L784 741L783 763L782 803Q782 932 931 932Q996 932 1032 879Q1055 845 1055 810T1024 601T993 349Q993 336 1012 280T1045 209Q1082 172 1082 163V148Q1082 106 1022 60T879 13T761 47T725 186Q725 225 707 225Q706 224 684 200Q605 110
522 58T368 6H341Q255 6 204 68T153 213T187 475T221 704T199 772Q192 778 126 778Q107 778 107 799V815Q107 837 148 862Q268 936 377 936H401Z" />
<glyph unicode="&#xfd;" horiz-adv-x="1068" d="M628 1078H618Q558 1078 558 1106V1111Q558 1152 737 1382Q780 1437 831 1437H865Q983 1437 983 1392V1382Q983 1359 827 1219T628 1078ZM620 290Q627 290 647 314Q786 478 786 693Q786 709 776 744T766 803Q766
861 801 889Q868 943 931 943H960Q1007 943 1031 918T1055 862V834Q1055 766 900 471T566 -81T288 -426Q237 -471 159 -471T33 -441Q-14 -411 -14 -370T16 -307T101 -284Q274 -284 380 -83Q411 -24 411 29T347 326T257 637T157 751T84 812Q84 834 123 853Q289 934
359 934T449 891Q458 872 461 833T479 744L487 715L499 662L524 572Q599 290 620 290Z" />
<glyph unicode="&#xfe;" horiz-adv-x="1083" d="M370 261V221Q370 123 503 123L511 124Q558 124 609 155T699 243Q788 377 788 527V571Q786 589 786 598Q786 658 749 712T656 767T548 734T463 642T400 456T370 261ZM504 1481Q580 1481 580 1406Q580 1374 564 1331T541
1263T502 1049T469 849T493 837L509 847L549 865L593 882Q686 923 769 923Q896 923 966 828T1037 599T989 350Q893 122 692 33Q609 -4 517 -4L487 -1L457 4L427 11Q354 11 314 -76Q300 -106 300 -172T318 -286T336 -373Q336 -443 257 -464Q216 -475 72 -475H12Q-57
-475 -57 -411Q-57 -378 6 -262Q27 -223 44 -151T121 254T180 658T206 814Q276 1037 276 1200Q276 1263 239 1293T202 1372T249 1437Q375 1481 473 1481H504Z" />
<glyph unicode="&#xff;" horiz-adv-x="1068" d="M321 1219V1245Q321 1283 357 1334T453 1385H479Q515 1385 548 1352T581 1289L584 1263V1259L583 1255Q583 1204 543 1157T447 1110H430Q388 1110 355 1143T321 1219ZM974 1229Q974 1187 928 1148T836 1109H832L827
1110Q791 1110 753 1137T714 1219V1244Q717 1259 717 1266Q717 1300 759 1342T850 1385H872Q882 1383 885 1383Q911 1383 944 1350T977 1276V1250Q974 1238 974 1229ZM609 293Q616 293 637 317Q776 474 776 696Q776 706 766 746T755 806Q755 863 790 892Q855 946
920 946H949Q995 946 1019 921T1044 865V837Q1044 767 903 500T592 -26T298 -404Q232 -468 155 -468H127Q70 -468 23 -438T-25 -367T5 -304T90 -281Q213 -281 307 -175T401 31Q401 70 345 300T246 639Q220 707 147 754T73 815Q73 836 112 855Q282 936 350 936T438
894Q447 876 450 836T461 769T529 518T609 293Z" />
<glyph unicode="&#x2013;" horiz-adv-x="1096" d="M207 602H1007Q1043 602 1043 564Q1043 458 1005 444Q994 440 554 440H479L438 439H168Q131 439 131 477Q131 542 148 572T207 602Z" />
<glyph unicode="&#x2014;" horiz-adv-x="1729" d="M182 601H1632Q1688 601 1688 572V555Q1688 451 1628 441Q1622 440 893 440H372L304 439H199Q122 439 122 469V486Q122 546 142 573T182 601Z" />
<glyph unicode="&#x2018;" horiz-adv-x="579" d="M349 905H334L326 906Q275 906 248 931T220 995V1017Q220 1137 309 1266Q427 1437 495 1437H509Q560 1437 560 1391V1380Q560 1379 531 1344L499 1303L491 1290Q447 1231 447 1179Q447 1176 472 1120T498 1021T449
942T349 905Z" />
<glyph unicode="&#x2019;" horiz-adv-x="577" d="M456 1418H486Q528 1418 552 1397T576 1341V1319Q576 1199 494 1081Q358 885 287 885H281Q224 885 224 936V941Q224 949 254 982Q343 1080 343 1153Q343 1169 323 1206T302 1292T344 1379T456 1418Z" />
<glyph unicode="&#x201a;" horiz-adv-x="581" d="M416 159Q416 53 319 -87Q267 -162 211 -205T128 -249Q76 -249 76 -202V-191Q76 -190 108 -154Q196 -57 197 0Q197 21 171 68T145 162T192 244T305 280H336Q415 280 415 203L417 189V174L416 167V159Z" />
<glyph unicode="&#x201c;" horiz-adv-x="897" d="M354 870H331Q284 870 255 894T226 960V982Q226 1101 315 1230Q435 1403 501 1403T568 1357V1346Q568 1345 535 1305L508 1269Q505 1263 499 1256Q455 1197 455 1143Q455 1123 478 1080T502 994T458 910T354 870ZM733
870H703Q652 870 625 894T598 959V980Q598 1086 686 1229Q734 1307 817 1376Q847 1401 877 1401H883Q938 1401 938 1350L889 1285Q874 1266 871 1260Q823 1182 823 1155T848 1081T874 991T831 909T733 870Z" />
<glyph unicode="&#x201d;" horiz-adv-x="895" d="M556 1309V1273Q556 1161 466 1031Q339 847 263 847Q207 847 207 899V904Q207 912 230 937Q324 1039 324 1102Q324 1114 304 1163T283 1258T325 1342T443 1380H451L459 1379Q556 1379 556 1309ZM801 1379H839Q879
1379 903 1357T928 1308V1272Q928 1162 819 1004T631 846Q575 846 575 903Q575 910 603 941Q693 1041 693 1108Q693 1121 674 1166T655 1255T695 1339T801 1379Z" />
<glyph unicode="&#x201e;" horiz-adv-x="920" d="M287 281H302Q351 281 375 259T400 203V182Q400 63 318 -55Q182 -251 112 -251H106Q50 -251 50 -200V-195Q50 -190 82 -152Q167 -51 167 10Q167 17 147 66T126 160T168 243T287 281ZM772 202V173Q772 72 685 -63Q639
-135 542 -223Q510 -252 482 -252H475Q419 -252 419 -196Q419 -188 447 -157Q537 -57 537 9Q537 26 518 69T498 139Q498 203 541 242T660 281H668L675 280Q723 280 747 258T772 202Z" />
<glyph unicode="&#x2022;" horiz-adv-x="856" d="M754 678V641Q754 522 660 428T451 333H423Q323 333 249 407T174 589V608Q174 727 266 826T487 925H497Q601 925 677 855T754 678Z" />
<glyph unicode="&#x2039;" horiz-adv-x="718" d="M622 893Q672 893 672 847Q672 815 531 666T390 498T470 346T550 156Q550 113 490 113Q473 113 318 289T162 498Q162 517 375 705T622 893Z" />
<glyph unicode="&#x203a;" horiz-adv-x="722" d="M177 114Q127 114 127 154T267 343T408 511T328 664T248 845T301 893H309Q336 893 487 710T638 509T425 303T177 114Z" />
</font>
</defs>
</svg>
