<?xml version="1.0" standalone="no"?>
<!DOCTYPE svg PUBLIC "-//W3C//DTD SVG 1.1//EN" "http://www.w3.org/Graphics/SVG/1.1/DTD/svg11.dtd">
<svg xmlns="http://www.w3.org/2000/svg">
<defs >
<font id="Scada" horiz-adv-x="542" ><font-face
    font-family="Scada"
    units-per-em="1000"
    panose-1="0 0 8 0 0 0 0 0 0 0"
    ascent="955"
    descent="-289"
    alphabetic="0" />
<glyph unicode=" " glyph-name="space" horiz-adv-x="300" />
<glyph unicode="!" glyph-name="exclam" horiz-adv-x="290" d="M85 200L65 700H225L205 200H85ZM115 -10T93 12T70 65Q70 95 92 117T145 140Q175 140 197 118T220 65Q220 35 198 13T145 -10Q115 -10 93 12Z" />
<glyph unicode="&quot;" glyph-name="quotedbl" horiz-adv-x="380" d="M60 455L35 700H170L145 455H60ZM235 455L210 700H345L320 455H235Z" />
<glyph unicode="#" glyph-name="numbersign" horiz-adv-x="667" d="M62 0L107 170H15V260H132L177 440H72V530H197L242 700H372L327 530H427L472 700H602L557 530H652V440H537L492 260H595V170H467L422 0H292L337 170H237L192 0H62ZM262 260H362L407 440H307L262 260Z" />
<glyph unicode="$" glyph-name="dollar" horiz-adv-x="535" d="M195 -5Q131 1 74 24Q52 34 35 45L80 125H90Q103 114 126 102Q174 80 240 80Q299 80 329 107T360 180Q360 209 343 230T300 267T229 304Q169 332 131 356T67 421T40 520Q40 584 80 633T195 700V770H330V705Q389
699 442 676Q461 667 480 655L435 575H425Q414 584 391 597Q343 620 285 620Q241 620 211 593T180 530Q180 501 197 480T240 443T311 406Q371 378 409 354T473 289T500 190Q500 117 457 68T330 0V-70H195V-5Z" />
<glyph unicode="%" glyph-name="percent" horiz-adv-x="850" d="M146 350T106 373T43 438T20 530Q20 581 43 622T106 686T195 710Q244 710 284 687T347 622T370 530Q370 479 347 438T284 374T195 350Q146 350 106 373ZM115 0L585 700H735L265 0H115ZM219 430T234
454T250 530Q250 582 235 606T195 630Q140 630 140 530Q140 430 195 430Q219 430 234 454ZM606 -10T566 13T503 78T480 170Q480 221 503 262T566 326T655 350Q704 350 744 327T807 262T830 170Q830 119 807 78T744 14T655 -10Q606 -10 566 13ZM679 70T694 94T710
170Q710 222 695 246T655 270Q600 270 600 170Q600 70 655 70Q679 70 694 94Z" />
<glyph unicode="&amp;" glyph-name="ampersand" horiz-adv-x="645" d="M180 -10T128 15T48 83T20 180Q20 262 95 329Q128 359 170 380Q146 400 125 427Q80 488 80 550Q80 595 103 631T170 689T275 710Q333 710 376 690T442 635T465 560Q465 488 397 426Q368 398
329 375L455 225L457 254Q460 305 460 320H590Q590 260 575 216T530 135L640 0H480L440 50Q419 35 388 20Q322 -10 250 -10Q180 -10 128 15ZM281 463T295 482Q325 522 325 560Q325 589 310 607T275 625Q251 625 236 606T220 550Q220 521 242 483Q256 461 265 450Q281
463 295 482ZM320 80T356 97Q374 105 385 115L230 300Q210 286 195 268Q160 229 160 180Q160 137 191 109T270 80Q320 80 356 97Z" />
<glyph unicode="&apos;" glyph-name="quotesingle" horiz-adv-x="205" d="M60 455L35 700H170L145 455H60Z" />
<glyph unicode="(" glyph-name="parenleft" horiz-adv-x="320" d="M169 -105T112 18T55 280Q55 419 112 542T265 745L320 690Q258 608 227 510T195 280Q195 149 226 51T320 -130L265 -185Q169 -105 112 18Z" />
<glyph unicode=")" glyph-name="parenright" horiz-adv-x="320" d="M0 -130Q62 -48 93 50T125 280Q125 411 94 509T0 690L55 745Q151 665 208 542T265 280Q265 141 208 18T55 -185L0 -130Z" />
<glyph unicode="*" glyph-name="asterisk" horiz-adv-x="440" d="M175 330V437L75 380L30 460L126 515L30 570L75 650L175 592V700H265V592L365 650L410 570L314 515L410 460L365 380L265 437V330H175Z" />
<glyph unicode="+" glyph-name="plus" horiz-adv-x="490" d="M195 115V280H30V380H195V545H295V380H460V280H295V115H195Z" />
<glyph unicode="," glyph-name="comma" horiz-adv-x="220" d="M45 -95Q64 -84 77 -71Q110 -40 110 -10Q80 -10 58 12T35 65Q35 95 56 117T105 140Q139 140 162 117T185 55Q185 -35 130 -94Q103 -121 75 -135L45 -95Z" />
<glyph unicode="-" glyph-name="hyphen" horiz-adv-x="450" d="M30 280V380H420V280H30Z" />
<glyph unicode="." glyph-name="period" horiz-adv-x="220" d="M80 -10T58 12T35 65Q35 95 57 117T110 140Q140 140 162 118T185 65Q185 35 163 13T110 -10Q80 -10 58 12Z" />
<glyph unicode="/" glyph-name="slash" horiz-adv-x="450" d="M0 0L310 700H450L140 0H0Z" />
<glyph unicode="0" glyph-name="zero" horiz-adv-x="610" d="M187 -10T119 78T50 350Q50 534 118 622T305 710Q423 710 491 622T560 350Q560 167 492 79T305 -10Q187 -10 119 78ZM420 80T420 350Q420 620 305 620Q190 620 190 350Q190 80 305 80Q420 80 420 350Z" />
<glyph unicode="1" glyph-name="one" horiz-adv-x="410" d="M50 0V90H150V560L70 505L15 580L160 700H290V90H390V0H50Z" />
<glyph unicode="2" glyph-name="two" horiz-adv-x="515" d="M20 70Q20 128 45 175T107 257T202 338Q250 376 277 400T322 455T340 520Q340 566 311 593T225 620Q167 620 119 597Q96 584 85 575H75L30 655Q53 671 82 682Q147 710 235 710Q356 710 418 657T480 510Q480
457 454 412T392 334T296 256Q249 220 223 197T178 147T160 90H480V0H20V70Z" />
<glyph unicode="3" glyph-name="three" horiz-adv-x="520" d="M120 -10T57 17Q27 29 5 45L50 125H60Q70 115 94 102Q140 80 200 80Q345 80 345 200Q345 330 200 330H85V420L295 610H20V700H455V610L235 420Q315 420 371 392T456 313T485 200Q485 103 416 47T210
-10Q120 -10 57 17Z" />
<glyph unicode="4" glyph-name="four" horiz-adv-x="560" d="M330 0V160H10V250L340 700H470V250H540V160H470V0H330ZM330 250V460Q330 481 335 501Q336 508 340 520H336Q333 515 332 510T328 500Q317 475 305 460L150 250H330Z" />
<glyph unicode="5" glyph-name="five" horiz-adv-x="540" d="M150 -10T87 17Q57 29 35 45L80 125H90Q100 115 124 102Q170 80 230 80Q365 80 365 215Q365 350 230 350H104L65 391V700H469V620H205V440H245Q375 440 440 382T505 215Q505 108 439 49T240 -10Q150
-10 87 17Z" />
<glyph unicode="6" glyph-name="six" horiz-adv-x="560" d="M170 -10T108 51T45 230V430Q45 563 113 636T300 710Q383 710 445 682Q473 670 496 655L451 575H441Q427 586 407 597Q359 620 310 620Q185 620 185 430Q200 438 216 445Q259 460 300 460Q406 460 465
400T525 230Q525 114 464 52T291 -10Q170 -10 108 51ZM331 80T358 118T385 230Q385 300 356 335T275 370Q245 370 211 355L185 340V230Q185 155 213 118T290 80Q331 80 358 118Z" />
<glyph unicode="7" glyph-name="seven" horiz-adv-x="480" d="M150 90Q150 248 202 383T330 610H10V700H470V610Q394 518 342 383T290 90V0H150V90Z" />
<glyph unicode="8" glyph-name="eight" horiz-adv-x="560" d="M198 -10T141 15T54 83T25 180Q25 233 47 271T105 333Q138 358 185 370Q148 380 117 402Q50 448 50 535Q50 581 78 621T158 685T280 710Q350 710 402 686T482 621T510 535Q510 449 442 402Q410 380
375 370Q422 358 455 333Q490 309 512 271T535 180Q535 126 506 83T420 15T280 -10Q198 -10 141 15ZM326 442T348 465T370 535Q370 569 344 594T280 620Q242 620 216 595T190 535Q190 489 212 466T280 425Q326 442 348 465ZM336 80T365 107T395 180Q395 235 366
264T280 315Q224 294 195 265T165 180Q165 134 194 107T280 80Q336 80 365 107Z" />
<glyph unicode="9" glyph-name="nine" horiz-adv-x="560" d="M174 -10T115 17Q85 30 64 45L109 125H119Q132 113 153 102Q199 80 250 80Q375 80 375 270Q361 261 344 255Q306 240 260 240Q154 240 95 300T35 470Q35 586 96 648T269 710Q390 710 452 649T515 470V270Q515
137 447 64T260 -10Q174 -10 115 17ZM319 330T349 345Q364 352 375 360V470Q375 545 347 582T270 620Q229 620 202 582T175 470Q175 400 204 365T285 330Q319 330 349 345Z" />
<glyph unicode=":" glyph-name="colon" horiz-adv-x="220" d="M80 360T58 382T35 435Q35 465 57 487T110 510Q140 510 162 488T185 435Q185 405 163 383T110 360Q80 360 58 382ZM80 -10T58 12T35 65Q35 95 57 117T110 140Q140 140 162 118T185 65Q185 35 163 13T110
-10Q80 -10 58 12Z" />
<glyph unicode=";" glyph-name="semicolon" horiz-adv-x="220" d="M80 360T58 382T35 435Q35 465 57 487T110 510Q140 510 162 488T185 435Q185 405 163 383T110 360Q80 360 58 382ZM45 -95Q64 -84 77 -71Q110 -40 110 -10Q80 -10 58 12T35 65Q35 95 56 117T105
140Q139 140 162 117T185 55Q185 -35 130 -94Q103 -121 75 -135L45 -95Z" />
<glyph unicode="&lt;" glyph-name="less" horiz-adv-x="455" d="M420 0L20 210V290L420 500V380L170 250L420 120V0Z" />
<glyph unicode="=" glyph-name="equal" horiz-adv-x="510" d="M35 376V476H475V376H35ZM35 185V285H475V185H35Z" />
<glyph unicode="&gt;" glyph-name="greater" horiz-adv-x="455" d="M35 0V120L285 250L35 380V500L435 290V210L35 0Z" />
<glyph unicode="?" glyph-name="question" horiz-adv-x="490" d="M130 230Q130 272 144 303T178 355T232 402Q274 435 294 462T315 530Q315 570 284 595T195 620Q137 620 89 597Q66 584 55 575H45L0 655Q23 671 52 682Q117 710 205 710Q329 710 392 658T455 520Q455
473 439 440T400 385T340 336Q298 305 279 284T260 230V200H130V230ZM165 -10T143 12T120 65Q120 95 142 117T195 140Q225 140 247 118T270 65Q270 35 248 13T195 -10Q165 -10 143 12Z" />
<glyph unicode="@" glyph-name="at" horiz-adv-x="960" d="M346 -120T248 -66T95 85T40 300Q40 419 96 515T252 665T480 720Q608 720 708 666T864 515T920 300Q920 224 893 169T817 84T705 55Q644 55 606 82Q588 94 575 110H570Q561 96 542 82Q508 55 450 55Q368
55 317 117T265 295Q265 411 316 473T450 535Q499 535 538 507Q557 494 570 480H575L585 525H675V155Q678 152 681 151T686 147Q697 140 715 140Q753 140 776 178T800 300Q800 393 758 468T642 587T480 630Q391 630 318 587T203 469T160 300Q160 207 202 132T318
13T480 -30Q547 -30 601 -8Q626 4 640 15H650L695 -65Q674 -80 639 -93Q569 -120 470 -120Q346 -120 248 -66ZM506 145T527 157Q536 161 545 170V400Q539 408 525 422Q498 445 475 445Q395 445 395 295Q395 215 418 180T475 145Q506 145 527 157Z" />
<glyph unicode="A" glyph-name="A" horiz-adv-x="600" d="M15 0L220 700H380L585 0H445L400 160H200L155 0H15ZM375 250L315 460Q312 471 309 486T305 509L302 535H298L294 509Q292 500 290 485T285 460L225 250H375Z" />
<glyph unicode="B" glyph-name="B" horiz-adv-x="610" d="M85 700H295Q414 700 474 651T535 520Q535 439 472 396Q444 377 410 370Q451 363 485 341Q517 320 538 284T560 195Q560 0 295 0H85V700ZM295 410Q340 410 367 437T395 510Q395 555 368 582T295 610H225V410H295ZM295
90Q420 90 420 205Q420 320 295 320H225V90H295Z" />
<glyph unicode="C" glyph-name="C" horiz-adv-x="535" d="M194 -10T122 77T50 350Q50 535 120 622T320 710Q396 710 456 682Q483 671 505 655L460 575H450Q439 585 418 597Q374 620 330 620Q264 620 227 559T190 350Q190 201 228 141T340 80Q386 80 428 102Q450
115 460 125H470L515 45Q495 29 466 17Q408 -10 330 -10Q194 -10 122 77Z" />
<glyph unicode="D" glyph-name="D" horiz-adv-x="615" d="M85 700H255Q565 700 565 350Q565 0 255 0H85V700ZM255 90Q312 90 349 114T406 195T425 350Q425 448 406 505T350 586T255 610H225V90H255Z" />
<glyph unicode="E" glyph-name="E" horiz-adv-x="530" d="M85 0V700H505V610H225V410H445V320H225V90H505V0H85Z" />
<glyph unicode="F" glyph-name="F" horiz-adv-x="525" d="M85 0V700H505V610H225V400H445V310H225V0H85Z" />
<glyph unicode="G" glyph-name="G" horiz-adv-x="590" d="M194 -10T122 77T50 350Q50 535 120 622T320 710Q396 710 456 682Q483 671 505 655L460 575H450Q439 585 418 597Q374 620 330 620Q264 620 227 559T190 350Q190 201 228 141T340 80Q357 80 374 85Q381
86 390 90V300H285V390H490L530 350V45Q510 30 479 17Q416 -10 330 -10Q194 -10 122 77Z" />
<glyph unicode="H" glyph-name="H" horiz-adv-x="660" d="M85 0V700H225V400H435V700H575V0H435V310H225V0H85Z" />
<glyph unicode="I" glyph-name="I" horiz-adv-x="310" d="M85 0V700H225V0H85Z" />
<glyph unicode="J" glyph-name="J" horiz-adv-x="450" d="M99 -10T45 12Q16 24 0 35L40 120H50Q68 106 78 100Q109 80 140 80Q235 80 235 190V700H375V190Q375 98 316 44T150 -10Q99 -10 45 12Z" />
<glyph unicode="K" glyph-name="K" horiz-adv-x="585" d="M85 0V700H225V390L410 700H565L355 365L580 0H420L225 330V0H85Z" />
<glyph unicode="L" glyph-name="L" horiz-adv-x="505" d="M85 0V700H225V90H495V0H85Z" />
<glyph unicode="M" glyph-name="M" horiz-adv-x="870" d="M85 700H220L415 305Q425 283 428 272L433 255H437L442 272Q445 283 455 305L650 700H785V0H645V415Q645 446 647 459L650 481H646Q641 464 639 459Q627 429 620 415L465 115H395L250 405Q238 430 231
449Q229 454 224 471H220L222 449Q225 410 225 405V0H85V700Z" />
<glyph unicode="N" glyph-name="N" horiz-adv-x="660" d="M85 700H235L410 280L428 236L436 215H440L437 236Q435 248 435 280V700H575V0H425L250 420L232 464L224 485H220L222 464Q225 425 225 420V0H85V700Z" />
<glyph unicode="O" glyph-name="O" horiz-adv-x="630" d="M190 -10T120 77T50 350Q50 535 120 622T315 710Q440 710 510 623T580 350Q580 165 510 78T315 -10Q190 -10 120 77ZM370 80T405 142T440 350Q440 496 405 558T315 620Q260 620 225 558T190 350Q190 204
225 142T315 80Q370 80 405 142Z" />
<glyph unicode="P" glyph-name="P" horiz-adv-x="595" d="M85 700H285Q426 700 490 642T555 465Q555 346 491 288T285 230H225V0H85V700ZM285 320Q354 320 384 353T415 465Q415 543 385 576T285 610H225V320H285Z" />
<glyph unicode="Q" glyph-name="Q" horiz-adv-x="630" d="M372 -165T331 -144T268 -85T245 0Q50 47 50 350Q50 535 120 622T315 710Q440 710 510 623T580 350Q580 47 385 0Q385 -36 400 -55T435 -75Q453 -75 461 -70Q462 -70 469 -65H479L505 -145Q498 -150 484
-155Q454 -165 425 -165Q372 -165 331 -144ZM370 80T405 142T440 350Q440 496 405 558T315 620Q260 620 225 558T190 350Q190 204 225 142T315 80Q370 80 405 142Z" />
<glyph unicode="R" glyph-name="R" horiz-adv-x="600" d="M85 700H275Q414 700 479 643T545 475Q545 372 480 313Q451 287 415 275L585 0H425L280 250H225V0H85V700ZM275 340Q344 340 374 371T405 475Q405 547 375 578T275 610H225V340H275Z" />
<glyph unicode="S" glyph-name="S" horiz-adv-x="535" d="M153 -10T88 17Q54 30 35 45L80 125H90Q103 114 126 102Q174 80 240 80Q299 80 329 107T360 180Q360 209 343 230T300 267T229 304Q169 332 131 356T67 421T40 520Q40 573 68 616T149 685T275 710Q363
710 428 682Q457 671 480 655L435 575H425Q414 584 391 597Q343 620 285 620Q241 620 211 593T180 530Q180 501 197 480T240 443T311 406Q371 378 409 354T473 289T500 190Q500 132 472 87T387 16T250 -10Q153 -10 88 17Z" />
<glyph unicode="T" glyph-name="T" horiz-adv-x="510" d="M185 0V610H10V700H500V610H325V0H185Z" />
<glyph unicode="U" glyph-name="U" horiz-adv-x="640" d="M203 -10T139 53T75 230V700H215V230Q215 155 243 118T320 80Q368 80 396 117T425 230V700H565V230Q565 116 501 53T320 -10Q203 -10 139 53Z" />
<glyph unicode="V" glyph-name="V" horiz-adv-x="590" d="M27 700H155L280 240Q284 225 285 213T289 191L293 165H297L300 190Q301 198 304 213T310 240L435 700H557L357 0H227L27 700Z" />
<glyph unicode="W" glyph-name="W" horiz-adv-x="886" d="M27 700H167L267 260Q271 241 273 221L275 200H279L281 221Q283 241 287 260L398 700H496L607 260Q612 240 613 221L615 200H619L621 221Q622 240 627 260L727 700H853L683 0H557L452 435Q448 451 446
477L444 500H440L438 477Q436 451 432 435L327 0H197L27 700Z" />
<glyph unicode="X" glyph-name="X" horiz-adv-x="560" d="M185 355L15 700H165L265 485L275 455L278 440H282L285 455Q286 459 289 468T295 485L395 700H545L375 355L550 0H400L295 225Q292 232 289 241T285 255L282 270H278L275 255L265 225L160 0H10L185 355Z" />
<glyph unicode="Y" glyph-name="Y" horiz-adv-x="570" d="M215 230L0 700H145L276 385L286 355L289 340H293L296 355L306 385L433 700H570L355 230V0H215V230Z" />
<glyph unicode="Z" glyph-name="Z" horiz-adv-x="525" d="M35 0V95L325 610H35V700H485V605L195 90H490V0H35Z" />
<glyph unicode="[" glyph-name="bracketleft" horiz-adv-x="335" d="M85 -170V730H325V640H225V-80H325V-170H85Z" />
<glyph unicode="\" glyph-name="backslash" horiz-adv-x="450" d="M310 0L0 700H140L450 0H310Z" />
<glyph unicode="]" glyph-name="bracketright" horiz-adv-x="335" d="M10 -170V-80H110V640H10V730H250V-170H10Z" />
<glyph unicode="^" glyph-name="asciicircum" horiz-adv-x="470" d="M0 440L185 720H285L470 440H340L235 600L130 440H0Z" />
<glyph unicode="_" glyph-name="underscore" horiz-adv-x="390" d="M0 -140V-40H390V-140H0Z" />
<glyph unicode="`" glyph-name="grave" horiz-adv-x="200" d="M110 550L10 700H145L190 550H110Z" />
<glyph unicode="a" glyph-name="a" horiz-adv-x="540" d="M137 -10T89 32T40 145Q40 220 94 262T265 305H335V320Q335 373 312 396T240 420Q198 420 163 400Q149 393 135 380H125L80 460Q104 476 127 485Q192 510 250 510Q320 510 371 486T448 418T475 320V0H375L365
60H360Q343 38 326 25Q284 -10 225 -10Q137 -10 89 32ZM281 85T311 115Q325 129 335 145V215H265Q180 215 180 145Q180 118 198 102T250 85Q281 85 311 115Z" />
<glyph unicode="b" glyph-name="b" horiz-adv-x="560" d="M261 -10T219 25Q198 41 185 60H180L170 0H70V660L110 700H210V480Q220 487 237 495Q273 510 310 510Q407 510 463 444T520 250Q520 123 465 57T320 -10Q261 -10 219 25ZM333 85T356 124T380 250Q380 342
355 381T285 420Q259 420 231 405L210 390V145Q222 127 232 115Q262 85 295 85Q333 85 356 124Z" />
<glyph unicode="c" glyph-name="c" horiz-adv-x="475" d="M40 -10T40 250Q40 380 100 445T275 510Q332 510 397 485Q417 477 445 460L400 380H390Q376 393 362 400Q327 420 285 420Q234 420 207 382T180 250Q180 156 208 118T295 80Q337 80 372 100Q386 107 400
120H410L455 40Q427 23 407 15Q347 -10 285 -10Q40 -10 40 250Z" />
<glyph unicode="d" glyph-name="d" horiz-adv-x="560" d="M150 -10T95 56T40 250Q40 378 96 444T250 510Q271 510 286 506T322 495L350 480V660L390 700H490V0H390L380 60H375Q358 38 341 25Q299 -10 240 -10Q150 -10 95 56ZM298 85T328 115Q338 127 350 145V390L329
405Q301 420 275 420Q230 420 205 381T180 250Q180 163 203 124T265 85Q298 85 328 115Z" />
<glyph unicode="e" glyph-name="e" horiz-adv-x="520" d="M40 -10T40 250Q40 378 98 444T260 510Q363 510 421 446T480 260V235L450 205H180Q180 80 300 80Q342 80 377 100Q391 107 405 120H415L460 40Q432 23 412 15Q352 -10 290 -10Q40 -10 40 250ZM340 295Q340
355 317 387T260 420Q227 420 204 388T180 295H340Z" />
<glyph unicode="f" glyph-name="f" horiz-adv-x="365" d="M75 410H20V500H75V540Q75 617 126 663T270 710Q317 710 375 685Q394 677 420 660L375 580H365Q352 591 339 600Q310 620 280 620Q253 620 234 599T215 540V500H340V410H215V0H75V410Z" />
<glyph unicode="g" glyph-name="g" horiz-adv-x="560" d="M188 -210T128 -185Q105 -176 80 -160L125 -80H135Q148 -91 164 -100Q199 -120 245 -120Q294 -120 322 -92T350 -10V20Q336 10 322 5Q286 -10 250 -10Q153 -10 97 56T40 250Q40 377 95 443T240 510Q294
510 341 475Q361 458 375 440H380L390 500H490V-10Q490 -68 462 -113T381 -184T255 -210Q188 -210 128 -185ZM305 80T329 95Q340 101 350 110V355Q338 373 328 385Q298 415 265 415Q227 415 204 376T180 250Q180 158 205 119T275 80Q305 80 329 95Z" />
<glyph unicode="h" glyph-name="h" horiz-adv-x="575" d="M70 660L110 700H210V465Q220 475 239 487Q279 510 320 510Q411 510 460 461T510 320V0H370V320Q370 367 350 391T295 415Q262 415 232 385Q222 373 210 355V0H70V660Z" />
<glyph unicode="i" glyph-name="i" horiz-adv-x="280" d="M110 565T88 587T65 640Q65 670 87 692T140 715Q170 715 192 693T215 640Q215 610 193 588T140 565Q110 565 88 587ZM70 0V500H210V0H70Z" />
<glyph unicode="j" glyph-name="j" horiz-adv-x="300" d="M130 565T108 587T85 640Q85 670 107 692T160 715Q190 715 212 693T235 640Q235 610 213 588T160 565Q130 565 108 587ZM-5 -200T-43 -185Q-62 -179 -75 -170L-40 -85H-30Q-20 -95 -14 -98Q5 -110 25 -110Q90
-110 90 -30V500H230V-30Q230 -107 179 -153T35 -200Q-5 -200 -43 -185Z" />
<glyph unicode="k" glyph-name="k" horiz-adv-x="510" d="M70 0V660L110 700H210V285L340 500H495L335 260L505 0H350L210 235V0H70Z" />
<glyph unicode="l" glyph-name="l" horiz-adv-x="280" d="M70 0V660L110 700H210V0H70Z" />
<glyph unicode="m" glyph-name="m" horiz-adv-x="835" d="M70 500H170L180 440H185Q196 456 217 475Q260 510 310 510Q371 510 412 475Q430 458 440 440Q454 457 479 475Q535 510 590 510Q674 510 722 460T770 320V0H630V320Q630 366 612 390T565 415Q538 415
511 390Q504 383 490 365V0H350V320Q350 366 332 390T285 415Q253 415 229 385Q216 368 210 355V0H70V500Z" />
<glyph unicode="n" glyph-name="n" horiz-adv-x="575" d="M70 500H170L180 440H185Q195 455 219 475Q266 510 320 510Q411 510 460 461T510 320V0H370V320Q370 367 350 391T295 415Q262 415 232 385Q222 373 210 355V0H70V500Z" />
<glyph unicode="o" glyph-name="o" horiz-adv-x="540" d="M159 -10T100 55T40 250Q40 380 99 445T270 510Q381 510 440 445T500 250Q500 120 441 55T270 -10Q159 -10 100 55ZM360 80T360 250Q360 420 270 420Q180 420 180 250Q180 80 270 80Q360 80 360 250Z" />
<glyph unicode="p" glyph-name="p" horiz-adv-x="560" d="M70 500H170L180 440H185Q195 455 219 475Q266 510 320 510Q410 510 465 444T520 250Q520 122 464 56T310 -10Q269 -10 237 5Q221 11 210 20V-160L170 -200H70V500ZM330 80T355 119T380 250Q380 337 357
376T295 415Q262 415 232 385Q222 373 210 355V110Q221 101 231 95Q255 80 285 80Q330 80 355 119Z" />
<glyph unicode="q" glyph-name="q" horiz-adv-x="560" d="M350 -160V20Q336 10 322 5Q286 -10 250 -10Q153 -10 97 56T40 250Q40 377 95 443T240 510Q294 510 341 475Q361 458 375 440H380L390 500H490V-200H390L350 -160ZM305 80T329 95Q340 101 350 110V355Q338
373 328 385Q298 415 265 415Q227 415 204 376T180 250Q180 158 205 119T275 80Q305 80 329 95Z" />
<glyph unicode="r" glyph-name="r" horiz-adv-x="395" d="M70 500H170L180 440H185Q195 455 219 475Q266 510 320 510Q346 510 371 505Q387 501 395 500L375 400H365Q356 401 343 405Q321 410 295 410Q262 410 232 380Q222 368 210 350V0H70V500Z" />
<glyph unicode="s" glyph-name="s" horiz-adv-x="485" d="M156 -10T87 15Q61 24 30 40L75 120H85Q104 108 121 100Q163 80 220 80Q270 80 292 95T315 136Q315 160 290 174T213 204Q158 222 124 238T65 284T40 360Q40 427 93 468T250 510Q313 510 386 485Q411 476
440 460L395 380H385Q367 393 351 400Q309 420 260 420Q221 420 201 406T180 370Q180 347 204 333T282 302Q335 285 370 269T430 222T455 146Q455 74 401 32T235 -10Q156 -10 87 15Z" />
<glyph unicode="t" glyph-name="t" horiz-adv-x="415" d="M179 -10T130 37T80 160V410H15V470L165 620H220V500H335V410H220V160Q220 120 235 100T275 80Q305 80 334 100Q347 109 360 120H370L415 40Q389 23 370 15Q316 -10 265 -10Q179 -10 130 37Z" />
<glyph unicode="u" glyph-name="u" horiz-adv-x="580" d="M169 -10T120 39T70 180V500H210V180Q210 133 230 109T285 85Q318 85 348 115Q358 127 370 145V500H510V0H410L400 60H395Q378 38 361 25Q319 -10 260 -10Q169 -10 120 39Z" />
<glyph unicode="v" glyph-name="v" horiz-adv-x="491" d="M15 500H147L237 190Q241 175 243 155L245 135H249L251 155Q253 174 257 190L347 500H476L311 0H180L15 500Z" />
<glyph unicode="w" glyph-name="w" horiz-adv-x="721" d="M15 500H145L215 225Q219 210 221 190L223 170H227L229 190Q231 209 235 225L313 500H409L486 225Q490 210 492 190L494 170H498L500 190Q502 210 506 225L576 500H706L571 0H447L367 295Q363 311 361
330L359 350H355L353 330Q351 311 347 295L267 0H150L15 500Z" />
<glyph unicode="x" glyph-name="x" horiz-adv-x="490" d="M160 255L15 500H160L230 370Q234 361 236 354T241 342L243 330H247L249 342Q250 346 252 354T260 370L330 500H475L330 255L480 0H335L260 135Q255 143 253 151T249 162Q247 170 247 175H243Q243 170
241 162Q239 154 230 135L155 0H10L160 255Z" />
<glyph unicode="y" glyph-name="y" horiz-adv-x="505" d="M105 -210T67 -195Q48 -189 35 -180L70 -95H80Q90 -105 96 -108Q115 -120 135 -120Q159 -120 179 -102T208 -50L222 0H184L19 500H150L250 175Q254 159 256 140L258 120H262L264 140Q266 159 270 175L355
500H495L330 -50Q280 -210 145 -210Q105 -210 67 -195Z" />
<glyph unicode="z" glyph-name="z" horiz-adv-x="470" d="M35 0V95L280 410H35V500H430V405L175 90H435V0H35Z" />
<glyph unicode="{" glyph-name="braceleft" horiz-adv-x="335" d="M192 -170T144 -131T95 -20V150Q95 198 79 216T20 235V325Q62 325 78 343T95 410V580Q95 650 143 690T290 730H325V640H290Q267 640 251 623T235 580V410Q235 333 190 300Q172 285 145 280Q170
276 190 260Q235 223 235 150V-20Q235 -46 251 -63T290 -80H325V-170H290Q192 -170 144 -131Z" />
<glyph unicode="|" glyph-name="bar" horiz-adv-x="310" d="M85 -200V700H225V-200H85Z" />
<glyph unicode="}" glyph-name="braceright" horiz-adv-x="335" d="M10 -80H45Q68 -80 84 -63T100 -20V150Q100 223 145 260Q165 276 190 280Q163 285 145 300Q100 333 100 410V580Q100 606 84 623T45 640H10V730H45Q143 730 191 690T240 580V410Q240 362 256
344T315 325V235Q273 235 257 217T240 150V-20Q240 -91 192 -130T45 -170H10V-80Z" />
<glyph unicode="~" glyph-name="asciitilde" horiz-adv-x="498" d="M310 225T287 235T237 266Q217 281 204 288T174 295Q156 295 141 282T116 254T105 235H96L20 300Q35 345 73 380T154 415Q188 415 211 405T261 374Q281 359 294 352T324 345Q342 345 357 358T382
386T393 405H402L478 340Q461 294 424 260T344 225Q310 225 287 235Z" />
<glyph unicode="&#xa0;" glyph-name="uni00A0" horiz-adv-x="300" />
<glyph unicode="&#xa1;" glyph-name="exclamdown" horiz-adv-x="290" d="M115 360T93 382T70 435Q70 465 92 487T145 510Q175 510 197 488T220 435Q220 405 198 383T145 360Q115 360 93 382ZM65 -200L85 300H205L225 -200H65Z" />
<glyph unicode="&#xa2;" glyph-name="cent" horiz-adv-x="475" d="M205 0Q121 19 81 80T40 250Q40 461 205 500V560H335V505Q377 494 414 477Q431 469 445 460L400 380H390Q376 393 362 400Q327 420 285 420Q234 420 207 382T180 250Q180 156 208 118T295 80Q337
80 372 100Q386 107 400 120H410L455 40Q440 31 421 21Q382 1 335 -6V-70H205V0Z" />
<glyph unicode="&#xa3;" glyph-name="sterling" horiz-adv-x="505" d="M35 90Q58 106 72 124Q110 172 110 240V320H55V410H110V540Q110 588 134 627T202 688T305 710Q374 710 432 682Q459 670 480 655L435 575H425Q416 583 394 597Q354 620 315 620Q285 620 268
599T250 540V410H375V320H250V240Q250 172 212 124Q198 106 175 90H495V0H35V90Z" />
<glyph unicode="&#xa4;" glyph-name="currency" horiz-adv-x="600" d="M90 155H20V230H90V275H20V350H90V700H290Q422 700 491 641T560 480Q560 383 494 329T290 275H230V230H470V155H230V0H90V155ZM290 350Q420 350 420 480Q420 610 290 610H230V350H290Z" />
<glyph unicode="&#xa5;" glyph-name="yen" horiz-adv-x="570" d="M215 170H75V255H200L180 300H75V385H145L0 700H145L270 405L280 375L283 360H287L290 375Q291 379 294 388T300 405L425 700H570L425 385H495V300H390L370 255H495V170H355V0H215V170Z" />
<glyph unicode="&#xa6;" glyph-name="brokenbar" horiz-adv-x="310" d="M85 310V700H225V310H85ZM85 -200V190H225V-200H85Z" />
<glyph unicode="&#xa7;" glyph-name="section" horiz-adv-x="540" d="M179 -210T114 -182Q82 -169 60 -154L105 -74H115Q128 -86 149 -97Q193 -120 240 -120Q295 -120 322 -98T350 -40Q350 -16 334 2T294 32T227 62Q168 87 131 108T67 167T40 260Q40 328 82 374Q100
393 125 405Q104 416 87 434Q50 473 50 530Q50 611 107 660T270 710Q346 710 411 682Q441 670 465 655L420 575H410Q393 587 375 597Q327 620 280 620Q239 620 215 598T190 540Q190 505 220 484T313 437Q373 412 410 391T473 333T500 240Q500 173 457 126Q437 105
415 95Q436 84 452 66Q490 26 490 -30Q490 -112 430 -161T250 -210Q179 -210 114 -182ZM327 160T337 169Q365 190 365 235Q365 285 297 322Q263 341 230 350Q213 345 202 336Q175 316 175 270Q175 218 242 182Q271 166 310 155Q327 160 337 169Z" />
<glyph unicode="&#xa8;" glyph-name="dieresis" horiz-adv-x="355" d="M52 570T31 591T10 640Q10 668 31 689T80 710Q108 710 129 689T150 640Q150 612 129 591T80 570Q52 570 31 591ZM247 570T226 591T205 640Q205 668 226 689T275 710Q303 710 324 689T345 640Q345
612 324 591T275 570Q247 570 226 591Z" />
<glyph unicode="&#xa9;" glyph-name="copyright" horiz-adv-x="910" d="M337 -40T243 12T94 153T40 350Q40 457 94 546T242 688T455 740Q573 740 667 688T816 547T870 350Q870 243 816 154T668 12T455 -40Q337 -40 243 12ZM539 50T606 88T712 195T750 350Q750
436 712 504T607 611T455 650Q371 650 304 612T198 505T160 350Q160 264 198 196T303 89T455 50Q539 50 606 88ZM413 125T366 152T292 230T265 350Q265 419 291 469T362 547T465 575Q517 575 573 550Q594 541 615 525L575 460H566Q548 472 539 477Q505 495 475
495Q438 495 412 458T385 350Q385 278 413 242T485 205Q517 205 549 222Q563 230 576 240H585L625 175Q604 159 583 150Q531 125 475 125Q413 125 366 152Z" />
<glyph unicode="&#xaa;" glyph-name="ordfeminine" horiz-adv-x="380" d="M89 350T57 379T25 455Q25 506 63 535T185 565H225V580Q225 635 165 635Q144 635 116 620L94 605H84L48 665Q61 675 86 687Q136 710 185 710Q266 710 305 676T345 580V360H251L245 395H240Q233
384 217 372Q185 350 145 350Q89 350 57 379ZM198 430T212 442Q217 445 225 455V490H185Q140 490 140 460Q140 430 180 430Q198 430 212 442Z" />
<glyph unicode="&#xab;" glyph-name="guillemotleft" horiz-adv-x="520" d="M235 -5L10 250L235 505L316 430L160 250L316 70L235 -5ZM420 40L235 250L420 460L500 385L385 250L500 115L420 40Z" />
<glyph unicode="&#xac;" glyph-name="logicalnot" horiz-adv-x="500" d="M355 230V320H35V420H465V230H355Z" />
<glyph unicode="&#xad;" glyph-name="uni00AD" horiz-adv-x="460" d="M35 280V380H425V280H35Z" />
<glyph unicode="&#xae;" glyph-name="registered" horiz-adv-x="910" d="M337 -40T243 12T94 153T40 350Q40 457 94 546T242 688T455 740Q573 740 667 688T816 547T870 350Q870 243 816 154T668 12T455 -40Q337 -40 243 12ZM539 50T606 88T712 195T750 350Q750
436 712 504T607 611T455 650Q371 650 304 612T198 505T160 350Q160 264 198 196T303 89T455 50Q539 50 606 88ZM290 565H450Q545 565 592 526T640 420Q640 371 617 340T560 295L655 135H525L449 275H410V135H290V565ZM450 355Q522 355 522 420Q522 485 450 485H410V355H450Z"
/>
<glyph unicode="&#xaf;" glyph-name="overscore" horiz-adv-x="310" d="M10 570V660H300V570H10Z" />
<glyph unicode="&#xb0;" glyph-name="degree" horiz-adv-x="440" d="M134 370T85 417T35 540Q35 616 84 663T220 710Q306 710 355 663T405 540Q405 464 356 417T220 370Q134 370 85 417ZM251 450T270 473T290 540Q290 584 271 607T220 630Q189 630 170 607T150
540Q150 497 169 474T220 450Q251 450 270 473Z" />
<glyph unicode="&#xb1;" glyph-name="plusminus" horiz-adv-x="500" d="M35 75V175H200V300H35V400H200V565H300V400H465V300H300V175H465V75H35Z" />
<glyph unicode="&#xb2;" glyph-name="uni00B2" horiz-adv-x="355" d="M35 420Q35 456 51 480T89 518T145 549Q173 562 186 572T200 595Q200 611 189 620T155 630Q134 630 106 615L84 600H74L38 665Q51 675 76 687Q126 710 175 710Q245 710 282 678T320 595Q320
554 293 532T216 487Q184 474 170 464T155 440H320V360H35V420Z" />
<glyph unicode="&#xb3;" glyph-name="uni00B3" horiz-adv-x="361" d="M121 350T73 372Q48 385 35 395L71 460H81Q90 453 103 445Q127 430 152 430Q173 430 184 439T196 465Q196 481 184 490T147 500H81V560L186 620H51V700H301V615L206 565Q262 561 294 532T326
460Q326 432 308 407T255 366T172 350Q121 350 73 372Z" />
<glyph unicode="&#xb4;" glyph-name="acute" horiz-adv-x="200" d="M10 550L55 700H190L90 550H10Z" />
<glyph unicode="&#xb5;" glyph-name="uni00B5" horiz-adv-x="580" d="M70 500H210V180Q210 133 230 109T285 85Q318 85 348 115Q358 127 370 145V500H510V0H410L400 60H395Q385 41 367 25Q332 -10 280 -10Q252 -10 230 5Q218 12 210 20V-160L170 -200H70V500Z" />
<glyph unicode="&#xb6;" glyph-name="paragraph" horiz-adv-x="580" d="M220 250Q160 250 113 278T38 357T10 475Q10 542 37 593T112 672T220 700H570V610H510V-200H390V610H340V-200H220V250Z" />
<glyph unicode="&#xb7;" glyph-name="middot" horiz-adv-x="300" d="M120 275T98 297T75 350Q75 380 97 402T150 425Q180 425 202 403T225 350Q225 320 203 298T150 275Q120 275 98 297Z" />
<glyph unicode="&#xb8;" glyph-name="cedilla" horiz-adv-x="215" d="M64 -195T34 -185Q18 -180 10 -175L31 -125H40Q41 -126 47 -129T63 -136T85 -140Q101 -140 110 -133T120 -110Q120 -96 111 -88T85 -80H35V20H110V-25Q151 -25 178 -50T205 -110Q205 -146 176
-170T95 -195Q64 -195 34 -185Z" />
<glyph unicode="&#xb9;" glyph-name="uni00B9" horiz-adv-x="315" d="M35 360V440H105V595L55 570L20 620L115 700H225V440H295V360H35Z" />
<glyph unicode="&#xba;" glyph-name="ordmasculine" horiz-adv-x="420" d="M161 350T121 373T58 438T35 530Q35 581 58 622T121 686T210 710Q259 710 299 687T362 622T385 530Q385 479 362 438T299 374T210 350Q161 350 121 373ZM234 430T249 454T265 530Q265
582 250 606T210 630Q155 630 155 530Q155 430 210 430Q234 430 249 454Z" />
<glyph unicode="&#xbb;" glyph-name="guillemotright" horiz-adv-x="520" d="M285 -5L204 70L360 250L204 430L285 505L510 250L285 -5ZM100 40L20 115L135 250L20 385L100 460L285 250L100 40Z" />
<glyph unicode="&#xbc;" glyph-name="onequarter" horiz-adv-x="790" d="M40 360V440H110V595L60 570L25 620L130 700H230V440H300V360H40ZM105 0L575 700H725L255 0H105ZM590 0V60H425V140L595 340H710V140H755V60H710V0H590ZM590 140V205Q590 210 592 224L595
235H591Q589 227 587 224Q581 210 575 204L520 140H590Z" />
<glyph unicode="&#xbd;" glyph-name="onehalf" horiz-adv-x="805" d="M40 360V440H110V595L60 570L25 620L130 700H230V440H300V360H40ZM105 0L575 700H725L255 0H105ZM475 60Q475 96 491 120T529 158T585 189Q613 202 626 212T640 235Q640 251 629 260T595 270Q574
270 546 255L524 240H514L478 305Q491 315 516 327Q566 350 615 350Q685 350 722 318T760 235Q760 194 733 172T656 127Q624 114 610 104T595 80H760V0H475V60Z" />
<glyph unicode="&#xbe;" glyph-name="threequarters" horiz-adv-x="776" d="M111 350T63 372Q38 385 25 395L61 460H71Q80 453 93 445Q117 430 142 430Q163 430 174 439T186 465Q186 481 174 490T137 500H71V560L176 620H41V700H291V615L196 565Q252 561 284 532T316
460Q316 432 298 407T245 366T162 350Q111 350 63 372ZM91 0L561 700H711L241 0H91ZM576 0V60H411V140L581 340H696V140H741V60H696V0H576ZM576 140V205Q576 210 578 224L581 235H577Q575 227 573 224Q567 210 561 204L506 140H576Z" />
<glyph unicode="&#xbf;" glyph-name="questiondown" horiz-adv-x="490" d="M265 360T243 382T220 435Q220 465 242 487T295 510Q325 510 347 488T370 435Q370 405 348 383T295 360Q265 360 243 382ZM161 -210T98 -158T35 -20Q35 27 51 61T90 116T150 164Q191 193
210 215T230 270V300H360V270Q360 228 346 197T312 144T258 97Q216 64 196 38T175 -30Q175 -70 206 -95T295 -120Q355 -120 401 -98Q425 -85 435 -75H445L490 -155Q468 -171 438 -183Q375 -210 285 -210Q161 -210 98 -158Z" />
<glyph unicode="&#xc0;" glyph-name="Agrave" horiz-adv-x="600" d="M15 0L220 700H380L585 0H445L400 160H200L155 0H15ZM375 250L315 460Q312 471 309 486T305 509L302 535H298L294 509Q292 500 290 485T285 460L225 250H375ZM272 750L172 900H307L352 750H272Z" />
<glyph unicode="&#xc1;" glyph-name="Aacute" horiz-adv-x="600" d="M15 0L220 700H380L585 0H445L400 160H200L155 0H15ZM375 250L315 460Q312 471 309 486T305 509L302 535H298L294 509Q292 500 290 485T285 460L225 250H375ZM237 750L282 900H417L317 750H237Z" />
<glyph unicode="&#xc2;" glyph-name="Acircumflex" horiz-adv-x="600" d="M15 0L220 700H380L585 0H445L400 160H200L155 0H15ZM375 250L315 460Q312 471 309 486T305 509L302 535H298L294 509Q292 500 290 485T285 460L225 250H375ZM140 750L250 884H350L460
750H365L300 820L235 750H140Z" />
<glyph unicode="&#xc3;" glyph-name="Atilde" horiz-adv-x="600" d="M15 0L220 700H380L585 0H445L400 160H200L155 0H15ZM375 250L315 460Q312 471 309 486T305 509L302 535H298L294 509Q292 500 290 485T285 460L225 250H375ZM450 855Q446 815 419 785T355 755Q335
755 321 761T287 781Q273 791 265 795T245 800Q234 800 225 791T211 773T205 760H196L140 790Q144 830 171 860T235 890Q255 890 269 884T303 864Q317 854 325 850T345 845Q356 845 365 853T380 873T385 885H394L450 855Z" />
<glyph unicode="&#xc4;" glyph-name="Adieresis" horiz-adv-x="600" d="M15 0L220 700H380L585 0H445L400 160H200L155 0H15ZM375 250L315 460Q312 471 309 486T305 509L302 535H298L294 509Q292 500 290 485T285 460L225 250H375ZM172 760T151 781T130 830Q130
858 151 879T200 900Q228 900 249 879T270 830Q270 802 249 781T200 760Q172 760 151 781ZM367 760T346 781T325 830Q325 858 346 879T395 900Q423 900 444 879T465 830Q465 802 444 781T395 760Q367 760 346 781Z" />
<glyph unicode="&#xc5;" glyph-name="Aring" horiz-adv-x="600" d="M15 0L220 700H380L585 0H445L400 160H200L155 0H15ZM375 250L315 460Q312 471 309 486T305 509L302 535H298L294 509Q292 500 290 485T285 460L225 250H375ZM252 745T221 775T190 850Q190 895
221 925T300 955Q348 955 379 925T410 850Q410 805 379 775T300 745Q252 745 221 775ZM315 810T325 821T335 850Q335 868 325 879T300 890Q285 890 275 879T265 850Q265 832 275 821T300 810Q315 810 325 821Z" />
<glyph unicode="&#xc6;" glyph-name="AE" horiz-adv-x="845" d="M-25 0L270 700H820V610H540V410H760V320H540V90H820V0H400V190H195L115 0H-25ZM235 280H400V610H370L235 280Z" />
<glyph unicode="&#xc7;" glyph-name="Ccedilla" horiz-adv-x="535" d="M413 -9T335 -10V-25Q376 -25 403 -50T430 -110Q430 -146 401 -170T320 -195Q289 -195 259 -185Q243 -180 235 -175L256 -125H265Q266 -126 272 -129T288 -136T310 -140Q326 -140 335 -133T345
-110Q345 -96 336 -88T310 -80H260V-4Q50 39 50 350Q50 535 120 622T320 710Q396 710 456 682Q483 671 505 655L460 575H450Q439 585 418 597Q374 620 330 620Q264 620 227 559T190 350Q190 201 228 141T340 80Q386 80 428 102Q450 115 460 125H470L515 45Q495
29 466 17Q413 -9 335 -10Z" />
<glyph unicode="&#xc8;" glyph-name="Egrave" horiz-adv-x="530" d="M85 0V700H505V610H225V410H445V320H225V90H505V0H85ZM285 750L185 900H320L365 750H285Z" />
<glyph unicode="&#xc9;" glyph-name="Eacute" horiz-adv-x="530" d="M85 0V700H505V610H225V410H445V320H225V90H505V0H85ZM230 750L275 900H410L310 750H230Z" />
<glyph unicode="&#xca;" glyph-name="Ecircumflex" horiz-adv-x="530" d="M85 0V700H505V610H225V410H445V320H225V90H505V0H85ZM142 760L252 894H352L462 760H367L302 830L237 760H142Z" />
<glyph unicode="&#xcb;" glyph-name="Edieresis" horiz-adv-x="530" d="M85 0V700H505V610H225V410H445V320H225V90H505V0H85ZM174 770T153 791T132 840Q132 868 153 889T202 910Q230 910 251 889T272 840Q272 812 251 791T202 770Q174 770 153 791ZM369 770T348
791T327 840Q327 868 348 889T397 910Q425 910 446 889T467 840Q467 812 446 791T397 770Q369 770 348 791Z" />
<glyph unicode="&#xcc;" glyph-name="Igrave" horiz-adv-x="288" d="M85 0V700H225V0H85ZM115 750L15 900H150L195 750H115Z" />
<glyph unicode="&#xcd;" glyph-name="Iacute" horiz-adv-x="287" d="M85 0V700H225V0H85ZM92 750L137 900H272L172 750H92Z" />
<glyph unicode="&#xce;" glyph-name="Icircumflex" horiz-adv-x="290" d="M85 0V700H225V0H85ZM-14 760L96 894H196L306 760H211L146 830L81 760H-14Z" />
<glyph unicode="&#xcf;" glyph-name="Idieresis" horiz-adv-x="310" d="M85 0V700H225V0H85ZM28 770T7 791T-14 840Q-14 868 7 889T56 910Q84 910 105 889T126 840Q126 812 105 791T56 770Q28 770 7 791ZM223 770T202 791T181 840Q181 868 202 889T251 910Q279
910 300 889T321 840Q321 812 300 791T251 770Q223 770 202 791Z" />
<glyph unicode="&#xd0;" glyph-name="Eth" horiz-adv-x="620" d="M90 310H35V410H90V700H260Q570 700 570 350Q570 0 260 0H90V310ZM260 90Q317 90 354 114T411 195T430 350Q430 448 411 505T355 586T260 610H230V410H325V310H230V90H260Z" />
<glyph unicode="&#xd1;" glyph-name="Ntilde" horiz-adv-x="640" d="M85 700H235L410 280L428 236L436 215H440L437 236Q435 248 435 280V700H575V0H425L250 420L232 464L224 485H220L222 464Q225 425 225 420V0H85V700ZM470 855Q466 815 439 785T375 755Q355
755 341 761T307 781Q293 791 285 795T265 800Q254 800 245 791T231 773T225 760H216L160 790Q164 830 191 860T255 890Q275 890 289 884T323 864Q337 854 345 850T365 845Q376 845 385 853T400 873T405 885H414L470 855Z" />
<glyph unicode="&#xd2;" glyph-name="Ograve" horiz-adv-x="630" d="M190 -10T120 77T50 350Q50 535 120 622T315 710Q440 710 510 623T580 350Q580 165 510 78T315 -10Q190 -10 120 77ZM370 80T405 142T440 350Q440 496 405 558T315 620Q260 620 225 558T190
350Q190 204 225 142T315 80Q370 80 405 142ZM297 750L197 900H332L377 750H297Z" />
<glyph unicode="&#xd3;" glyph-name="Oacute" horiz-adv-x="630" d="M190 -10T120 77T50 350Q50 535 120 622T315 710Q440 710 510 623T580 350Q580 165 510 78T315 -10Q190 -10 120 77ZM370 80T405 142T440 350Q440 496 405 558T315 620Q260 620 225 558T190
350Q190 204 225 142T315 80Q370 80 405 142ZM252 750L297 900H432L332 750H252Z" />
<glyph unicode="&#xd4;" glyph-name="Ocircumflex" horiz-adv-x="630" d="M190 -10T120 77T50 350Q50 535 120 622T315 710Q440 710 510 623T580 350Q580 165 510 78T315 -10Q190 -10 120 77ZM370 80T405 142T440 350Q440 496 405 558T315 620Q260 620 225 558T190
350Q190 204 225 142T315 80Q370 80 405 142ZM155 760L265 894H365L475 760H380L315 830L250 760H155Z" />
<glyph unicode="&#xd5;" glyph-name="Otilde" horiz-adv-x="630" d="M190 -10T120 77T50 350Q50 535 120 622T315 710Q440 710 510 623T580 350Q580 165 510 78T315 -10Q190 -10 120 77ZM370 80T405 142T440 350Q440 496 405 558T315 620Q260 620 225 558T190
350Q190 204 225 142T315 80Q370 80 405 142ZM465 865Q461 825 434 795T370 765Q350 765 336 771T302 791Q288 801 280 805T260 810Q249 810 240 801T226 783T220 770H211L155 800Q159 840 186 870T250 900Q270 900 284 894T318 874Q332 864 340 860T360 855Q371
855 380 863T395 883T400 895H409L465 865Z" />
<glyph unicode="&#xd6;" glyph-name="Odieresis" horiz-adv-x="630" d="M190 -10T120 77T50 350Q50 535 120 622T315 710Q440 710 510 623T580 350Q580 165 510 78T315 -10Q190 -10 120 77ZM370 80T405 142T440 350Q440 496 405 558T315 620Q260 620 225 558T190
350Q190 204 225 142T315 80Q370 80 405 142ZM187 770T166 791T145 840Q145 868 166 889T215 910Q243 910 264 889T285 840Q285 812 264 791T215 770Q187 770 166 791ZM382 770T361 791T340 840Q340 868 361 889T410 910Q438 910 459 889T480 840Q480 812 459 791T410
770Q382 770 361 791Z" />
<glyph unicode="&#xd7;" glyph-name="multiply" horiz-adv-x="440" d="M105 145L35 215L150 330L35 445L105 515L220 400L335 515L405 445L290 330L405 215L335 145L220 260L105 145Z" />
<glyph unicode="&#xd8;" glyph-name="Oslash" horiz-adv-x="630" d="M237 -10T179 24L165 0H50L107 96Q50 187 50 350Q50 535 120 622T315 710Q395 710 450 676L465 700H580L523 604Q580 511 580 350Q580 165 510 78T315 -10Q237 -10 179 24ZM392 578Q361 620
315 620Q260 620 225 558T190 350Q190 290 196 246L392 578ZM370 80T405 142T440 350Q440 410 434 453L237 122Q268 80 315 80Q370 80 405 142Z" />
<glyph unicode="&#xd9;" glyph-name="Ugrave" horiz-adv-x="640" d="M203 -10T139 53T75 230V700H215V230Q215 155 243 118T320 80Q368 80 396 117T425 230V700H565V230Q565 116 501 53T320 -10Q203 -10 139 53ZM302 730L202 880H337L382 730H302Z" />
<glyph unicode="&#xda;" glyph-name="Uacute" horiz-adv-x="640" d="M203 -10T139 53T75 230V700H215V230Q215 155 243 118T320 80Q368 80 396 117T425 230V700H565V230Q565 116 501 53T320 -10Q203 -10 139 53ZM267 730L312 880H447L347 730H267Z" />
<glyph unicode="&#xdb;" glyph-name="Ucircumflex" horiz-adv-x="640" d="M203 -10T139 53T75 230V700H215V230Q215 155 243 118T320 80Q368 80 396 117T425 230V700H565V230Q565 116 501 53T320 -10Q203 -10 139 53ZM160 760L270 894H370L480 760H385L320 830L255
760H160Z" />
<glyph unicode="&#xdc;" glyph-name="Udieresis" horiz-adv-x="640" d="M203 -10T139 53T75 230V700H215V230Q215 155 243 118T320 80Q368 80 396 117T425 230V700H565V230Q565 116 501 53T320 -10Q203 -10 139 53ZM192 770T171 791T150 840Q150 868 171 889T220
910Q248 910 269 889T290 840Q290 812 269 791T220 770Q192 770 171 791ZM387 770T366 791T345 840Q345 868 366 889T415 910Q443 910 464 889T485 840Q485 812 464 791T415 770Q387 770 366 791Z" />
<glyph unicode="&#xdd;" glyph-name="Yacute" horiz-adv-x="570" d="M215 230L0 700H145L276 385L286 355L289 340H293L296 355L306 385L433 700H570L355 230V0H215V230ZM232 730L277 880H412L312 730H232Z" />
<glyph unicode="&#xde;" glyph-name="Thorn" horiz-adv-x="645" d="M85 720H225V650H295Q391 650 461 614T568 510T605 350Q605 258 568 191T461 87T295 50H225V-20H85V720ZM295 140Q373 140 419 194T465 350Q465 452 419 506T295 560H225V140H295Z" />
<glyph unicode="&#xdf;" glyph-name="germandbls" horiz-adv-x="620" d="M338 -10T299 5Q282 11 265 20L300 105H310Q320 95 327 92Q346 80 375 80Q460 80 460 170Q460 200 442 221T384 272Q336 307 311 338T285 420Q285 441 290 457T306 497Q315 516 320 530T325
560Q325 586 309 603T270 620Q246 620 231 602T215 550V0H75V410H20V500H75V550Q75 592 98 629T164 688T260 710Q322 710 369 689T440 633T465 560Q465 539 458 523T438 483Q426 464 421 450T415 420Q415 394 433 375T490 330Q525 306 547 287T584 239T600 170Q600
90 544 40T385 -10Q338 -10 299 5Z" />
<glyph unicode="&#xe0;" glyph-name="agrave" horiz-adv-x="540" d="M137 -10T89 32T40 145Q40 220 94 262T265 305H335V320Q335 373 312 396T240 420Q198 420 163 400Q149 393 135 380H125L80 460Q104 476 127 485Q192 510 250 510Q320 510 371 486T448 418T475
320V0H375L365 60H360Q343 38 326 25Q284 -10 225 -10Q137 -10 89 32ZM281 85T311 115Q325 129 335 145V215H265Q180 215 180 145Q180 118 198 102T250 85Q281 85 311 115ZM242 550L142 700H277L322 550H242Z" />
<glyph unicode="&#xe1;" glyph-name="aacute" horiz-adv-x="540" d="M137 -10T89 32T40 145Q40 220 94 262T265 305H335V320Q335 373 312 396T240 420Q198 420 163 400Q149 393 135 380H125L80 460Q104 476 127 485Q192 510 250 510Q320 510 371 486T448 418T475
320V0H375L365 60H360Q343 38 326 25Q284 -10 225 -10Q137 -10 89 32ZM281 85T311 115Q325 129 335 145V215H265Q180 215 180 145Q180 118 198 102T250 85Q281 85 311 115ZM207 550L252 700H387L287 550H207Z" />
<glyph unicode="&#xe2;" glyph-name="acircumflex" horiz-adv-x="540" d="M137 -10T89 32T40 145Q40 220 94 262T265 305H335V320Q335 373 312 396T240 420Q198 420 163 400Q149 393 135 380H125L80 460Q104 476 127 485Q192 510 250 510Q320 510 371 486T448
418T475 320V0H375L365 60H360Q343 38 326 25Q284 -10 225 -10Q137 -10 89 32ZM281 85T311 115Q325 129 335 145V215H265Q180 215 180 145Q180 118 198 102T250 85Q281 85 311 115ZM110 560L220 694H320L430 560H335L270 630L205 560H110Z" />
<glyph unicode="&#xe3;" glyph-name="atilde" horiz-adv-x="540" d="M137 -10T89 32T40 145Q40 220 94 262T265 305H335V320Q335 373 312 396T240 420Q198 420 163 400Q149 393 135 380H125L80 460Q104 476 127 485Q192 510 250 510Q320 510 371 486T448 418T475
320V0H375L365 60H360Q343 38 326 25Q284 -10 225 -10Q137 -10 89 32ZM281 85T311 115Q325 129 335 145V215H265Q180 215 180 145Q180 118 198 102T250 85Q281 85 311 115ZM420 922Q416 882 389 852T325 822Q305 822 291 828T257 848Q243 858 235 862T215 867Q204
867 195 858T181 840T175 827H166L110 857Q114 897 141 927T205 957Q225 957 239 951T273 931Q287 921 295 917T315 912Q326 912 335 920T350 940T355 952H364L420 922Z" />
<glyph unicode="&#xe4;" glyph-name="adieresis" horiz-adv-x="540" d="M137 -10T89 32T40 145Q40 220 94 262T265 305H335V320Q335 373 312 396T240 420Q198 420 163 400Q149 393 135 380H125L80 460Q104 476 127 485Q192 510 250 510Q320 510 371 486T448 418T475
320V0H375L365 60H360Q343 38 326 25Q284 -10 225 -10Q137 -10 89 32ZM281 85T311 115Q325 129 335 145V215H265Q180 215 180 145Q180 118 198 102T250 85Q281 85 311 115ZM142 570T121 591T100 640Q100 668 121 689T170 710Q198 710 219 689T240 640Q240 612 219
591T170 570Q142 570 121 591ZM337 570T316 591T295 640Q295 668 316 689T365 710Q393 710 414 689T435 640Q435 612 414 591T365 570Q337 570 316 591Z" />
<glyph unicode="&#xe5;" glyph-name="aring" d="M137 -10T89 32T40 145Q40 220 94 262T265 305H335V320Q335 373 312 396T240 420Q198 420 163 400Q149 393 135 380H125L80 460Q104 476 127 485Q192 510 250 510Q320 510 371 486T448 418T475 320V0H375L365 60H360Q343
38 326 25Q284 -10 225 -10Q137 -10 89 32ZM281 85T311 115Q325 129 335 145V215H265Q180 215 180 145Q180 118 198 102T250 85Q281 85 311 115ZM222 555T191 585T160 660Q160 705 191 735T270 765Q318 765 349 735T380 660Q380 615 349 585T270 555Q222 555 191
585ZM285 620T295 631T305 660Q305 678 295 689T270 700Q255 700 245 689T235 660Q235 642 245 631T270 620Q285 620 295 631Z" />
<glyph unicode="&#xe6;" glyph-name="ae" horiz-adv-x="815" d="M137 -10T89 32T40 145Q40 220 94 262T265 305H335V320Q335 373 312 396T240 420Q198 420 163 400Q149 393 135 380H125L80 460Q104 476 127 485Q192 510 250 510Q308 510 345 494T410 450Q437 477
471 493T555 510Q658 510 716 446T775 260V235L745 205H475Q475 80 595 80Q637 80 672 100Q686 107 700 120H710L755 40Q727 23 707 15Q647 -10 585 -10Q520 -10 474 11T400 62Q372 32 329 11T225 -10Q137 -10 89 32ZM635 295Q635 355 612 387T555 420Q522 420
499 388T475 295H635ZM281 85T311 115Q325 129 335 145V215H265Q180 215 180 145Q180 118 198 102T250 85Q281 85 311 115Z" />
<glyph unicode="&#xe7;" glyph-name="ccedilla" horiz-adv-x="475" d="M347 -9T292 -10V-25Q333 -25 360 -50T387 -110Q387 -146 358 -170T277 -195Q246 -195 216 -185Q200 -180 192 -175L213 -125H222Q223 -126 229 -129T245 -136T267 -140Q283 -140 292 -133T302
-110Q302 -96 293 -88T267 -80H217V-4Q40 29 40 250Q40 380 100 445T275 510Q332 510 397 485Q417 477 445 460L400 380H390Q376 393 362 400Q327 420 285 420Q234 420 207 382T180 250Q180 156 208 118T295 80Q337 80 372 100Q386 107 400 120H410L455 40Q427
23 407 15Q347 -9 292 -10Z" />
<glyph unicode="&#xe8;" glyph-name="egrave" horiz-adv-x="520" d="M40 -10T40 250Q40 378 98 444T260 510Q363 510 421 446T480 260V235L450 205H180Q180 80 300 80Q342 80 377 100Q391 107 405 120H415L460 40Q432 23 412 15Q352 -10 290 -10Q40 -10 40 250ZM340
295Q340 355 317 387T260 420Q227 420 204 388T180 295H340ZM235 550L135 700H270L315 550H235Z" />
<glyph unicode="&#xe9;" glyph-name="eacute" horiz-adv-x="520" d="M40 -10T40 250Q40 378 98 444T260 510Q363 510 421 446T480 260V235L450 205H180Q180 80 300 80Q342 80 377 100Q391 107 405 120H415L460 40Q432 23 412 15Q352 -10 290 -10Q40 -10 40 250ZM340
295Q340 355 317 387T260 420Q227 420 204 388T180 295H340ZM210 550L255 700H390L290 550H210Z" />
<glyph unicode="&#xea;" glyph-name="ecircumflex" horiz-adv-x="520" d="M40 -10T40 250Q40 378 98 444T260 510Q363 510 421 446T480 260V235L450 205H180Q180 80 300 80Q342 80 377 100Q391 107 405 120H415L460 40Q432 23 412 15Q352 -10 290 -10Q40 -10 40
250ZM340 295Q340 355 317 387T260 420Q227 420 204 388T180 295H340ZM102 560L212 694H312L422 560H327L262 630L197 560H102Z" />
<glyph unicode="&#xeb;" glyph-name="edieresis" horiz-adv-x="520" d="M40 -10T40 250Q40 378 98 444T260 510Q363 510 421 446T480 260V235L450 205H180Q180 80 300 80Q342 80 377 100Q391 107 405 120H415L460 40Q432 23 412 15Q352 -10 290 -10Q40 -10 40
250ZM340 295Q340 355 317 387T260 420Q227 420 204 388T180 295H340ZM134 570T113 591T92 640Q92 668 113 689T162 710Q190 710 211 689T232 640Q232 612 211 591T162 570Q134 570 113 591ZM329 570T308 591T287 640Q287 668 308 689T357 710Q385 710 406 689T427
640Q427 612 406 591T357 570Q329 570 308 591Z" />
<glyph unicode="&#xec;" glyph-name="igrave" horiz-adv-x="283" d="M115 550L15 700H150L195 550H115ZM73 0V500H213V0H73Z" />
<glyph unicode="&#xed;" glyph-name="iacute" horiz-adv-x="282" d="M87 550L132 700H267L167 550H87ZM70 0V500H210V0H70Z" />
<glyph unicode="&#xee;" glyph-name="icircumflex" horiz-adv-x="290" d="M-15 560L95 694H195L305 560H210L145 630L80 560H-15ZM75 0V500H215V0H75Z" />
<glyph unicode="&#xef;" glyph-name="idieresis" horiz-adv-x="300" d="M22 570T1 591T-20 640Q-20 668 1 689T50 710Q78 710 99 689T120 640Q120 612 99 591T50 570Q22 570 1 591ZM217 570T196 591T175 640Q175 668 196 689T245 710Q273 710 294 689T315 640Q315
612 294 591T245 570Q217 570 196 591ZM80 0V500H220V0H80Z" />
<glyph unicode="&#xf0;" glyph-name="eth" horiz-adv-x="545" d="M156 -10T96 51T35 225Q35 298 61 351T133 432T240 460Q283 460 319 444T380 400Q380 498 314 549L290 490L205 525L231 588L200 596L130 610L150 695L215 680Q245 673 264 667L290 730L375 695L348
631Q424 589 459 516T495 325V225Q495 112 435 51T265 -10Q156 -10 96 51ZM306 80T330 115T355 225Q355 296 331 330T265 365Q224 365 200 331T175 225Q175 150 199 115T265 80Q306 80 330 115Z" />
<glyph unicode="&#xf1;" glyph-name="ntilde" horiz-adv-x="575" d="M70 500H170L180 440H185Q195 455 219 475Q266 510 320 510Q411 510 460 461T510 320V0H370V320Q370 367 350 391T295 415Q262 415 232 385Q222 373 210 355V0H70V500ZM447 932Q443 892 416
862T352 832Q332 832 318 838T284 858Q270 868 262 872T242 877Q231 877 222 868T208 850T202 837H193L137 867Q141 907 168 937T232 967Q252 967 266 961T300 941Q314 931 322 927T342 922Q353 922 362 930T377 950T382 962H391L447 932Z" />
<glyph unicode="&#xf2;" glyph-name="ograve" horiz-adv-x="540" d="M159 -10T100 55T40 250Q40 380 99 445T270 510Q381 510 440 445T500 250Q500 120 441 55T270 -10Q159 -10 100 55ZM360 80T360 250Q360 420 270 420Q180 420 180 250Q180 80 270 80Q360 80
360 250ZM242 550L142 700H277L322 550H242Z" />
<glyph unicode="&#xf3;" glyph-name="oacute" horiz-adv-x="540" d="M159 -10T100 55T40 250Q40 380 99 445T270 510Q381 510 440 445T500 250Q500 120 441 55T270 -10Q159 -10 100 55ZM360 80T360 250Q360 420 270 420Q180 420 180 250Q180 80 270 80Q360 80
360 250ZM217 550L262 700H397L297 550H217Z" />
<glyph unicode="&#xf4;" glyph-name="ocircumflex" horiz-adv-x="540" d="M159 -10T100 55T40 250Q40 380 99 445T270 510Q381 510 440 445T500 250Q500 120 441 55T270 -10Q159 -10 100 55ZM360 80T360 250Q360 420 270 420Q180 420 180 250Q180 80 270 80Q360
80 360 250ZM110 560L220 694H320L430 560H335L270 630L205 560H110Z" />
<glyph unicode="&#xf5;" glyph-name="otilde" horiz-adv-x="540" d="M159 -10T100 55T40 250Q40 380 99 445T270 510Q381 510 440 445T500 250Q500 120 441 55T270 -10Q159 -10 100 55ZM360 80T360 250Q360 420 270 420Q180 420 180 250Q180 80 270 80Q360 80
360 250ZM420 922Q416 882 389 852T325 822Q305 822 291 828T257 848Q243 858 235 862T215 867Q204 867 195 858T181 840T175 827H166L110 857Q114 897 141 927T205 957Q225 957 239 951T273 931Q287 921 295 917T315 912Q326 912 335 920T350 940T355 952H364L420
922Z" />
<glyph unicode="&#xf6;" glyph-name="odieresis" horiz-adv-x="540" d="M159 -10T100 55T40 250Q40 380 99 445T270 510Q381 510 440 445T500 250Q500 120 441 55T270 -10Q159 -10 100 55ZM360 80T360 250Q360 420 270 420Q180 420 180 250Q180 80 270 80Q360
80 360 250ZM142 570T121 591T100 640Q100 668 121 689T170 710Q198 710 219 689T240 640Q240 612 219 591T170 570Q142 570 121 591ZM337 570T316 591T295 640Q295 668 316 689T365 710Q393 710 414 689T435 640Q435 612 414 591T365 570Q337 570 316 591Z" />
<glyph unicode="&#xf7;" glyph-name="divide" horiz-adv-x="470" d="M205 430T183 452T160 505Q160 535 182 557T235 580Q265 580 287 558T310 505Q310 475 288 453T235 430Q205 430 183 452ZM30 280V380H440V280H30ZM205 80T183 102T160 155Q160 185 182 207T235
230Q265 230 287 208T310 155Q310 125 288 103T235 80Q205 80 183 102Z" />
<glyph unicode="&#xf8;" glyph-name="oslash" horiz-adv-x="540" d="M198 -10T147 17L135 0H40L89 68Q40 133 40 250Q40 380 99 445T270 510Q343 510 392 482L405 500H499L450 432Q500 365 500 250Q500 120 441 55T270 -10Q198 -10 147 17ZM327 393Q305 420 270
420Q180 420 180 250Q180 244 180 226T182 195L327 393ZM360 80T360 250Q360 280 357 305L213 107Q233 80 270 80Q360 80 360 250Z" />
<glyph unicode="&#xf9;" glyph-name="ugrave" horiz-adv-x="580" d="M169 -10T120 39T70 180V500H210V180Q210 133 230 109T285 85Q318 85 348 115Q358 127 370 145V500H510V0H410L400 60H395Q378 38 361 25Q319 -10 260 -10Q169 -10 120 39ZM272 541L172 691H307L352
541H272Z" />
<glyph unicode="&#xfa;" glyph-name="uacute" horiz-adv-x="580" d="M169 -10T120 39T70 180V500H210V180Q210 133 230 109T285 85Q318 85 348 115Q358 127 370 145V500H510V0H410L400 60H395Q378 38 361 25Q319 -10 260 -10Q169 -10 120 39ZM237 541L282 691H417L317
541H237Z" />
<glyph unicode="&#xfb;" glyph-name="ucircumflex" horiz-adv-x="580" d="M169 -10T120 39T70 180V500H210V180Q210 133 230 109T285 85Q318 85 348 115Q358 127 370 145V500H510V0H410L400 60H395Q378 38 361 25Q319 -10 260 -10Q169 -10 120 39ZM130 560L240
694H340L450 560H355L290 630L225 560H130Z" />
<glyph unicode="&#xfc;" glyph-name="udieresis" horiz-adv-x="580" d="M169 -10T120 39T70 180V500H210V180Q210 133 230 109T285 85Q318 85 348 115Q358 127 370 145V500H510V0H410L400 60H395Q378 38 361 25Q319 -10 260 -10Q169 -10 120 39ZM162 570T141 591T120
640Q120 668 141 689T190 710Q218 710 239 689T260 640Q260 612 239 591T190 570Q162 570 141 591ZM357 570T336 591T315 640Q315 668 336 689T385 710Q413 710 434 689T455 640Q455 612 434 591T385 570Q357 570 336 591Z" />
<glyph unicode="&#xfd;" glyph-name="yacute" horiz-adv-x="495" d="M105 -210T67 -195Q48 -189 35 -180L70 -95H80Q90 -105 96 -108Q115 -120 135 -120Q159 -120 179 -102T208 -50L222 0H184L19 500H150L250 175Q254 159 256 140L258 120H262L264 140Q266 159
270 175L355 500H495L330 -50Q280 -210 145 -210Q105 -210 67 -195ZM195 541L240 691H375L275 541H195Z" />
<glyph unicode="&#xfe;" glyph-name="thorn" horiz-adv-x="560" d="M70 660L110 700H210V480Q220 487 237 495Q273 510 310 510Q407 510 463 444T520 250Q520 122 464 56T310 -10Q269 -10 237 5Q221 11 210 20V-200H70V660ZM330 80T355 119T380 250Q380 342 355
381T285 420Q259 420 231 405L210 390V110Q221 101 231 95Q255 80 285 80Q330 80 355 119Z" />
<glyph unicode="&#xff;" glyph-name="ydieresis" horiz-adv-x="495" d="M105 -210T67 -195Q48 -189 35 -180L70 -95H80Q90 -105 96 -108Q115 -120 135 -120Q159 -120 179 -102T208 -50L222 0H184L19 500H150L250 175Q254 159 256 140L258 120H262L264 140Q266
159 270 175L355 500H495L330 -50Q280 -210 145 -210Q105 -210 67 -195ZM119 570T98 591T77 640Q77 668 98 689T147 710Q175 710 196 689T217 640Q217 612 196 591T147 570Q119 570 98 591ZM314 570T293 591T272 640Q272 668 293 689T342 710Q370 710 391 689T412
640Q412 612 391 591T342 570Q314 570 293 591Z" />
<glyph unicode="&#x2013;" glyph-name="endash" horiz-adv-x="530" d="M30 240V340H500V240H30Z" />
<glyph unicode="&#x2014;" glyph-name="emdash" horiz-adv-x="740" d="M30 240V340H710V240H30Z" />
<glyph unicode="&#x2018;" glyph-name="quoteleft" horiz-adv-x="220" d="M81 435T58 458T35 520Q35 612 90 669Q115 696 145 710L175 670Q155 659 142 646Q110 616 110 585Q140 585 162 563T185 510Q185 480 164 458T115 435Q81 435 58 458Z" />
<glyph unicode="&#x2019;" glyph-name="quoteright" horiz-adv-x="220" d="M45 475Q64 486 77 499Q110 530 110 560Q80 560 58 582T35 635Q35 665 56 687T105 710Q139 710 162 687T185 625Q185 535 130 476Q103 449 75 435L45 475Z" />
<glyph unicode="&#x201a;" glyph-name="quotesinglbase" horiz-adv-x="220" d="M45 -95Q64 -84 77 -71Q110 -40 110 -10Q80 -10 58 12T35 65Q35 95 56 117T105 140Q139 140 162 117T185 55Q185 -35 130 -94Q103 -121 75 -135L45 -95Z" />
<glyph unicode="&#x201c;" glyph-name="quotedblleft" horiz-adv-x="410" d="M81 435T58 458T35 520Q35 612 90 669Q115 696 145 710L175 670Q155 659 142 646Q110 616 110 585Q140 585 162 563T185 510Q185 480 164 458T115 435Q81 435 58 458ZM271 435T248 458T225
520Q225 612 280 669Q305 696 335 710L365 670Q345 659 332 646Q300 616 300 585Q330 585 352 563T375 510Q375 480 354 458T305 435Q271 435 248 458Z" />
<glyph unicode="&#x201d;" glyph-name="quotedblright" horiz-adv-x="410" d="M45 475Q64 486 77 499Q110 530 110 560Q80 560 58 582T35 635Q35 665 56 687T105 710Q139 710 162 687T185 625Q185 535 130 476Q103 449 75 435L45 475ZM235 475Q254 486 267 499Q300
530 300 560Q270 560 248 582T225 635Q225 665 246 687T295 710Q329 710 352 687T375 625Q375 535 320 476Q293 449 265 435L235 475Z" />
<glyph unicode="&#x201e;" glyph-name="quotedblbase" horiz-adv-x="410" d="M45 -95Q64 -84 77 -71Q110 -40 110 -10Q80 -10 58 12T35 65Q35 95 56 117T105 140Q139 140 162 117T185 55Q185 -35 130 -94Q103 -121 75 -135L45 -95ZM235 -95Q254 -84 267 -71Q300
-40 300 -10Q270 -10 248 12T225 65Q225 95 246 117T295 140Q329 140 352 117T375 55Q375 -35 320 -94Q293 -121 265 -135L235 -95Z" />
<glyph unicode="&#x2022;" glyph-name="bullet" horiz-adv-x="430" d="M155 170T115 210T75 310Q75 370 115 410T215 450Q275 450 315 410T355 310Q355 250 315 210T215 170Q155 170 115 210Z" />
<glyph unicode="&#x2039;" glyph-name="guilsinglleft" horiz-adv-x="340" d="M190 50L0 260L190 470H340L150 260L340 50H190Z" />
<glyph unicode="&#x203a;" glyph-name="guilsinglright" horiz-adv-x="340" d="M0 50L190 260L0 470H150L340 260L150 50H0Z" />
</font>
</defs>
</svg>
