<?xml version="1.0" standalone="no"?>
<!DOCTYPE svg PUBLIC "-//W3C//DTD SVG 1.1//EN" "http://www.w3.org/Graphics/SVG/1.1/DTD/svg11.dtd">
<svg xmlns="http://www.w3.org/2000/svg">
<defs >
<font id="AbhayaLibre" horiz-adv-x="423" ><font-face
    font-family="Abhaya Libre"
    units-per-em="1024"
    panose-1="2 0 8 3 0 0 0 0 0 0"
    ascent="860"
    descent="-348"
    alphabetic="0" />
<glyph unicode=" " glyph-name="space" horiz-adv-x="195" />
<glyph unicode="!" glyph-name="exclam" horiz-adv-x="248" d="M140 184Q140 303 174 438Q191 508 191 541Q189 609 125 610Q58 608 57 540Q57 509 79 420Q108 301 108 184H140ZM189 59Q189 98 154 116Q139 124 124 124Q84 124 67 88Q60 74 60 59Q60 18 96 1Q110
-5 124 -5Q163 -5 181 29Q189 43 189 59Z" />
<glyph unicode="&quot;" glyph-name="quotedbl" horiz-adv-x="307" d="M85 658Q42 658 34 625Q33 619 33 614Q33 598 53 523Q65 475 70 437H99Q103 472 128 567Q136 599 136 616Q136 652 97 657Q90 658 85 658ZM224 658Q179 658 173 623Q172 618 172 614Q172 599
191 524Q204 476 208 437H238Q242 472 266 567Q274 600 274 616Q274 652 234 657Q229 658 224 658Z" />
<glyph unicode="#" glyph-name="numbersign" horiz-adv-x="579" d="M315 -10H352L379 193H506V247H386L401 363H519V417H408L432 600H395L371 417H241L265 600H228L204 417H73V363H197L182 247H60V193H175L148 -10H185L212 193H342L315 -10ZM349 247H219L234 363H364L349
247Z" />
<glyph unicode="$" glyph-name="dollar" horiz-adv-x="556" d="M184 493Q184 569 268 580Q271 580 272 580V373Q188 429 184 493ZM397 126Q395 37 301 23V248Q385 202 395 146Q397 136 397 126ZM301 -91V-9Q430 0 484 73Q513 113 513 164Q513 242 423 296Q410
305 312 353Q306 356 301 358V581Q352 581 365 538Q368 529 371 510Q380 465 397 452Q413 441 439 441Q484 441 492 485Q493 493 493 500Q493 557 410 589Q361 607 301 610V699H272V610Q152 605 96 542Q63 504 63 453Q63 376 156 320Q168 313 268 264Q271 263 272
262V20H264Q204 20 188 67Q184 77 180 98Q170 145 152 159Q135 171 107 171Q60 171 46 132Q43 122 43 111Q43 55 114 20Q176 -10 272 -10V-91H301Z" />
<glyph unicode="%" glyph-name="percent" horiz-adv-x="825" d="M204 -32L636 610L602 632L169 -10L204 -32ZM216 625Q123 625 75 555Q46 511 46 453Q46 350 121 304Q161 279 213 279Q307 279 353 350Q381 393 381 451Q381 559 303 604Q264 625 216 625ZM215 300Q169
300 156 357Q148 391 148 451Q148 574 185 597Q198 604 214 604Q259 604 272 545Q279 511 279 454Q279 325 238 305Q227 300 215 300ZM609 336Q516 336 468 266Q439 222 439 164Q439 61 514 15Q554 -10 606 -10Q700 -10 746 61Q774 104 774 162Q774 270 696 315Q657
336 609 336ZM608 11Q562 11 549 68Q541 102 541 162Q541 285 578 308Q591 315 607 315Q652 315 665 256Q672 222 672 165Q672 36 631 16Q621 11 608 11Z" />
<glyph unicode="&amp;" glyph-name="ampersand" horiz-adv-x="590" d="M240 508Q240 563 281 579Q293 583 306 583Q366 583 374 526Q375 518 375 510Q375 463 325 425Q302 409 275 399Q240 468 240 508ZM270 20Q166 20 147 129Q142 160 142 202Q143 317 190 340Q257
209 388 57Q335 20 270 20ZM527 319H526H529L560 320Q583 320 586 332Q588 339 588 347H444V321H499Q499 216 457 138Q347 270 287 376Q364 403 393 466Q403 489 403 510Q403 580 340 602Q318 610 292 610Q205 610 166 553Q145 522 145 482Q146 435 179 363Q59
328 34 225Q28 201 28 176Q28 84 99 31Q155 -10 238 -10Q337 -9 404 38Q428 12 439 0H603Q603 23 587 25Q583 26 578 26H555Q510 75 476 115Q527 199 527 319Z" />
<glyph unicode="&apos;" glyph-name="quotesingle" horiz-adv-x="175" d="M88 658Q45 658 35 627Q33 620 33 614Q33 598 54 527Q68 477 73 437H102Q106 475 133 566Q142 600 142 616Q142 650 102 657Q95 658 88 658Z" />
<glyph unicode="(" glyph-name="parenleft" horiz-adv-x="336" d="M312 650Q171 612 99 467Q50 366 50 246Q50 78 139 -36Q207 -122 309 -150L319 -123Q165 -65 165 248Q166 564 321 623L312 650Z" />
<glyph unicode=")" glyph-name="parenright" horiz-adv-x="337" d="M25 650Q166 612 238 467Q287 366 287 246Q287 78 198 -36Q130 -122 28 -150L18 -123Q172 -65 172 248Q171 564 16 623L25 650Z" />
<glyph unicode="*" glyph-name="asterisk" horiz-adv-x="367" d="M185 650Q149 650 142 624Q141 620 141 616Q141 604 160 548Q170 521 174 499Q162 509 118 559Q89 590 73 591Q49 591 36 560Q31 548 31 538Q32 519 46 511Q57 504 116 494Q144 488 164 482Q148
476 77 461Q56 456 46 451Q31 441 30 424Q30 396 53 379Q64 372 74 372Q93 372 128 413Q160 451 174 464Q171 448 148 378Q141 357 141 345Q149 316 184 312Q220 312 227 338Q228 342 228 346Q228 359 208 414Q199 442 194 464Q205 455 250 404Q279 372 296 371Q320
371 334 402Q339 414 339 424Q338 442 323 451Q312 457 254 468Q225 474 204 481Q221 487 292 501Q313 506 323 511Q339 521 340 538Q340 566 316 583Q305 590 295 590Q276 590 244 551Q211 511 194 497Q197 510 221 583Q228 605 228 617Q220 646 185 650Z" />
<glyph unicode="+" glyph-name="plus" horiz-adv-x="455" d="M420 214V254H254V433H202V254H35V214H202V35H254V214H420Z" />
<glyph unicode="," glyph-name="comma" horiz-adv-x="189" d="M163 48Q163 105 120 121Q108 125 95 125Q55 125 39 89Q33 75 33 61Q33 21 71 4Q78 1 85 0Q109 -7 110 -23Q109 -53 69 -95L90 -111Q153 -43 162 31Q163 40 163 48Z" />
<glyph unicode="-" glyph-name="short_dash1" horiz-adv-x="312" d="M43 229H253V187H43V229Z" />
<glyph unicode="." glyph-name="period" horiz-adv-x="195" d="M162 59Q162 98 127 116Q112 124 97 124Q57 124 40 88Q33 74 33 59Q33 18 69 1Q83 -5 97 -5Q136 -5 154 29Q162 43 162 59Z" />
<glyph unicode="/" glyph-name="slash" horiz-adv-x="428" d="M77 -155L418 710H341L0 -155H77Z" />
<glyph unicode="0" glyph-name="zero" horiz-adv-x="554" d="M281 547Q154 547 87 449Q38 376 38 271Q38 109 136 34Q195 -10 276 -10Q402 -10 467 89Q515 162 515 267Q515 442 409 512Q354 547 281 547ZM279 17Q204 17 180 106Q164 164 164 267Q164 475 237 511Q255
520 278 520Q352 520 375 423Q389 366 389 272Q389 73 328 31Q307 17 279 17Z" />
<glyph unicode="1" glyph-name="one" horiz-adv-x="434" d="M229 537L20 402L38 374L186 465V35L56 26V0H419Q419 21 398 25Q394 26 390 26L303 35V537H229Z" />
<glyph unicode="2" glyph-name="two" horiz-adv-x="485" d="M89 90Q89 127 163 169Q180 178 218 197Q329 254 369 293Q419 343 419 401Q419 499 313 533Q270 547 219 547Q115 547 63 495Q32 464 32 421Q32 372 68 360Q77 357 86 357Q134 357 144 403Q146 414 147
438Q151 491 168 506Q183 520 211 520Q280 520 296 447Q300 428 300 408Q300 305 221 244Q209 235 136 189Q66 145 45 99Q30 66 30 26V0H429L430 182H408L391 134Q378 98 351 92Q339 90 318 90H89Z" />
<glyph unicode="3" glyph-name="three" horiz-adv-x="526" d="M459 512V537H66L64 360H88L106 409Q120 445 150 450Q162 452 184 452H344L169 250L193 230Q229 245 262 245Q337 245 360 164Q367 137 367 105Q361 -50 227 -54Q171 -54 160 -5Q157 6 155 31Q151
81 135 95Q121 106 98 106Q51 106 41 65Q39 56 39 47Q39 -28 128 -62Q177 -80 238 -80Q374 -80 442 5Q482 56 482 119Q482 203 413 247Q365 277 296 277Q261 277 231 270L459 512Z" />
<glyph unicode="4" glyph-name="four" horiz-adv-x="520" d="M478 -67Q478 -43 465 -41Q460 -40 454 -40H390V86H478V116H390V323H368L355 281Q344 244 315 238Q304 236 288 236H278V117L52 118Q229 266 285 322Q392 431 393 491Q393 539 345 548Q337 550 327
550Q284 550 264 511Q262 505 235 427Q185 282 64 167Q37 142 7 118L13 88L278 87V-40H166V-67H478Z" />
<glyph unicode="5" glyph-name="five" horiz-adv-x="508" d="M474 114Q474 222 389 271Q339 300 273 300Q192 299 127 258V447Q205 438 266 438Q373 438 402 466Q428 497 429 577H403Q392 543 362 535Q341 529 300 529Q298 529 93 538V245L127 219Q181 262 238
262Q320 262 348 183Q359 151 359 112Q359 -12 285 -44Q263 -54 236 -54Q184 -54 174 -7Q171 4 170 28Q166 79 149 93Q135 105 110 105Q63 105 54 63Q52 54 52 46Q52 -24 128 -59Q173 -80 232 -80Q354 -80 423 -12Q474 40 474 114Z" />
<glyph unicode="6" glyph-name="six" horiz-adv-x="537" d="M499 188Q499 286 424 337Q373 372 301 372Q227 371 168 332Q175 542 252 580Q272 590 296 590Q353 590 364 546Q367 536 369 517Q374 472 392 460Q406 450 430 450Q475 450 486 491Q489 501 489 511Q489
562 425 593Q375 617 307 617Q156 617 88 485Q47 405 47 296Q47 98 156 24Q207 -10 273 -10Q398 -10 461 73Q499 124 499 188ZM167 173Q167 332 269 341Q274 341 279 341Q382 339 383 185Q382 18 275 17Q168 19 167 173Z" />
<glyph unicode="7" glyph-name="seven" horiz-adv-x="473" d="M472 510V537H37L35 357H59L77 407Q90 444 122 449Q134 451 155 451H395Q349 385 271 278Q151 111 124 56Q102 11 102 -20Q102 -67 147 -78Q157 -80 168 -80Q210 -80 227 -44Q234 -31 257 61Q315 284
472 510Z" />
<glyph unicode="8" glyph-name="eight" horiz-adv-x="543" d="M256 -10Q366 -10 434 50Q484 97 485 162Q485 241 390 303Q372 315 348 328Q429 371 443 446Q446 460 446 472Q446 564 358 600Q316 617 265 617Q163 617 107 557Q69 516 69 458Q69 383 162 321Q173
314 186 306Q85 273 60 191Q53 170 53 147Q53 68 125 23Q179 -10 256 -10ZM169 498Q169 563 236 581Q257 587 280 587Q354 587 391 537Q411 509 411 472Q411 408 352 363Q336 351 320 343Q230 393 202 422Q169 457 169 498ZM89 150Q89 219 153 260Q182 278 220
287Q311 236 338 212Q382 172 383 125Q383 53 307 28Q278 19 243 19Q167 19 121 67Q89 102 89 150Z" />
<glyph unicode="9" glyph-name="nine" horiz-adv-x="539" d="M492 255Q492 433 389 507Q334 547 258 547Q127 547 70 464Q38 417 38 357Q38 247 131 202Q179 178 244 178Q316 179 371 217Q367 24 310 -28Q282 -53 242 -53Q184 -53 172 -5Q169 4 167 25Q161 71
144 84Q130 94 107 94Q61 94 49 55Q47 46 47 37Q47 -19 115 -54Q165 -80 229 -80Q363 -80 435 28Q492 115 492 255ZM154 372Q155 519 260 520Q369 518 370 361Q370 219 270 211Q264 210 258 210Q155 212 154 372Z" />
<glyph unicode=":" glyph-name="colon" horiz-adv-x="203" d="M165 333Q165 372 130 390Q116 397 101 397Q62 397 45 362Q38 348 38 333Q38 293 73 276Q87 270 101 270Q140 270 158 304Q165 318 165 333ZM165 103Q165 142 131 161Q116 170 101 170Q64 170 46 134Q38
119 38 103Q38 63 73 46Q87 40 101 40Q140 40 158 74Q165 88 165 103Z" />
<glyph unicode=";" glyph-name="semicolon" horiz-adv-x="189" d="M160 296Q160 335 125 353Q111 360 96 360Q57 360 40 325Q33 311 33 296Q33 255 69 238Q82 232 96 232Q135 232 153 267Q160 280 160 296ZM163 62Q163 119 121 135Q108 140 95 140Q56 140 39 104Q33
90 33 75Q33 35 71 18Q78 15 85 14Q109 7 110 -9Q109 -39 69 -81L90 -96Q152 -31 162 43Q163 53 163 62Z" />
<glyph unicode="&lt;" glyph-name="less" horiz-adv-x="448" d="M396 69L414 108L105 236L414 365L399 401L35 251V219L396 69Z" />
<glyph unicode="=" glyph-name="equal" horiz-adv-x="455" d="M420 269V309H35V269H420ZM420 159V199H35V159H420Z" />
<glyph unicode="&gt;" glyph-name="greater" horiz-adv-x="448" d="M52 401L35 362L344 234L35 105L50 69L414 219V251L52 401Z" />
<glyph unicode="?" glyph-name="question" horiz-adv-x="464" d="M224 184Q224 259 288 315Q299 325 323 343Q379 386 396 416Q413 446 413 482Q413 568 314 598Q275 610 227 610Q132 610 82 566Q54 540 53 507Q53 462 95 454Q103 453 110 453Q152 453 161 492Q163
500 165 517Q169 562 187 574Q201 584 224 584Q293 578 296 500Q296 422 256 361Q220 306 214 295Q192 248 192 184H224ZM276 59Q276 98 241 116Q226 124 211 124Q171 124 154 88Q147 74 147 59Q147 18 183 1Q197 -5 211 -5Q250 -5 268 29Q276 43 276 59Z" />
<glyph unicode="@" glyph-name="at" horiz-adv-x="896" d="M679 -118L667 -92Q580 -134 490 -134Q350 -134 256 -38Q160 62 160 217Q160 407 273 496Q346 554 452 554Q592 554 675 454Q751 361 751 210Q751 99 703 53Q684 35 662 35Q622 37 621 91V276Q621 399
501 418Q481 421 459 421Q341 421 309 369Q301 355 301 340Q301 306 333 299Q340 297 347 297Q384 297 396 332Q398 337 400 348Q410 384 428 393Q438 397 451 397Q500 397 510 343Q513 326 513 302V244Q279 236 274 119Q274 35 352 16Q372 11 394 11Q469 11 506
67Q513 79 518 91Q532 11 648 10Q752 10 804 96Q839 153 839 230Q839 421 700 516Q600 584 460 584Q265 584 152 466Q51 359 51 192Q51 27 177 -77Q293 -170 456 -171Q575 -171 679 -118ZM436 53Q387 55 386 131Q386 196 459 212Q482 217 513 218V136Q494 65 448
54Q442 53 436 53Z" />
<glyph unicode="A" glyph-name="A" horiz-adv-x="636" d="M636 0Q636 23 622 26Q618 27 611 27H580L346 600H284L64 27H0V0H182Q182 23 168 26Q163 27 157 27H104L177 219H379L454 27H385V0H636ZM367 249H188L277 483L367 249Z" />
<glyph unicode="B" glyph-name="B" horiz-adv-x="607" d="M533 465Q533 550 445 583Q399 600 337 600H26V573H106V27H26V0H350Q484 0 544 81Q575 123 575 174Q575 274 474 311Q447 321 415 326Q499 354 525 422Q533 444 533 465ZM291 573Q404 571 405 457Q405
375 346 349Q324 339 296 339H229V573H291ZM319 311Q403 311 431 236Q441 210 441 178Q441 75 373 40Q346 27 311 27H229V311H319Z" />
<glyph unicode="C" glyph-name="C" horiz-adv-x="608" d="M546 41Q545 2 562 -3Q569 -5 580 -5V189H550Q508 38 390 21Q373 19 356 19Q176 21 175 303Q175 522 297 570Q327 581 362 581Q475 581 525 470Q536 444 545 412H577L574 605Q549 605 544 588Q542 578
542 559Q459 610 350 610Q185 610 98 493Q36 409 36 301Q36 171 119 83Q207 -10 350 -10Q453 -9 546 41Z" />
<glyph unicode="D" glyph-name="D" horiz-adv-x="673" d="M26 600V573H106V27H26V0H317Q454 0 543 84Q631 167 631 299Q631 467 506 548Q425 600 316 600H26ZM317 573Q439 573 476 455Q494 395 494 303Q494 74 377 36Q350 27 317 27H229V573H317Z" />
<glyph unicode="E" glyph-name="E" horiz-adv-x="565" d="M518 412L514 600H26V573H106V27H26V0H514L518 188H492L472 126Q446 48 394 32Q377 27 357 27H229V294H426V324H229V573H357Q434 573 466 493Q470 484 473 474L492 412H518Z" />
<glyph unicode="F" glyph-name="F" horiz-adv-x="525" d="M348 0V27H229V294H426V324H229V573H357Q441 573 472 476Q473 475 473 474L492 408H518L514 600H26V573H106V27H26V0H348Z" />
<glyph unicode="G" glyph-name="G" horiz-adv-x="695" d="M396 274V247H483V68Q435 21 360 21Q224 21 191 171Q179 225 179 299Q180 579 365 580Q476 580 524 481Q541 444 553 393H582L578 599L486 580Q419 610 345 610Q214 610 128 528Q41 443 41 303Q41 130
165 45Q245 -9 347 -9Q428 -9 494 24L603 0V247H671V274H396Z" />
<glyph unicode="H" glyph-name="H" horiz-adv-x="729" d="M309 0Q303 25 282 27H229V294H500V27H420V0H702Q694 25 676 27H623V573H702V600H420V573H500V324H229V573H309V600H26V573H106V27H26V0H309Z" />
<glyph unicode="I" glyph-name="I" horiz-adv-x="335" d="M309 0Q303 25 282 27H229V573H309V600H26V573H106V27H26V0H309Z" />
<glyph unicode="J" glyph-name="J" horiz-adv-x="400" d="M379 573V600H90V573H180V183Q180 44 153 17Q142 6 125 6Q98 6 91 39Q89 44 87 54Q79 97 60 109Q46 117 26 117Q-10 117 -22 84Q-25 74 -25 65Q-25 22 27 -3Q62 -19 112 -19Q227 -19 275 67Q302 117 302
190V573H379Z" />
<glyph unicode="K" glyph-name="K" horiz-adv-x="648" d="M309 0Q303 25 282 27H229V265L268 300L473 -1L648 0Q642 25 621 27H606L356 381L517 528Q558 567 579 571Q587 573 594 573Q619 581 621 600H437V573H517L229 311V573H309V600H26V573H106V27H26V0H309Z" />
<glyph unicode="L" glyph-name="L" horiz-adv-x="507" d="M500 0L504 212H478L453 126Q432 56 392 37Q371 27 343 27H229V573H314V600H26V573H106V27H26V0H500Z" />
<glyph unicode="M" glyph-name="M" horiz-adv-x="806" d="M789 600H592L401 150L184 600H16V573H96V27H16V0H218Q212 25 191 27H138V420L353 -8H372L592 504V27H512V0H789Q783 25 762 27H709V573H789V600Z" />
<glyph unicode="N" glyph-name="N" horiz-adv-x="666" d="M456 573H538V167L176 600H17V573H97V27H17V0H223Q217 25 196 27H138V458L526 -5L579 5V573H659V600H456V573Z" />
<glyph unicode="O" glyph-name="O" horiz-adv-x="704" d="M355 610Q226 610 136 528Q41 441 41 303Q41 144 154 56Q239 -10 352 -10Q480 -10 569 73Q663 161 663 299Q663 463 547 549Q465 610 355 610ZM355 19Q231 19 196 150Q180 211 180 299Q180 566 333 580Q343
581 352 581Q486 581 515 418Q524 368 524 303Q524 57 400 24Q379 19 355 19Z" />
<glyph unicode="P" glyph-name="P" horiz-adv-x="562" d="M303 573Q401 573 413 462Q414 449 414 435Q414 302 307 294Q301 294 295 294H229V573H303ZM329 0Q323 25 302 27H229V264H313Q482 264 530 366Q546 400 546 441Q546 536 462 577Q415 600 348 600H26V573H106V27H26V0H329Z"
/>
<glyph unicode="Q" glyph-name="Q" horiz-adv-x="708" d="M357 610Q227 610 137 527Q43 439 43 302Q43 146 155 57Q240 -10 354 -10Q390 -10 428 -2Q480 -81 497 -100Q545 -153 597 -154Q681 -152 732 -31L709 -18Q655 -70 615 -72Q569 -72 511 -6Q503 4 490 19Q603
70 645 184Q665 239 665 300Q665 463 549 549Q466 610 357 610ZM341 124Q287 123 242 60Q180 123 180 299Q180 553 320 578Q337 581 355 581Q490 581 519 418Q528 368 528 304Q527 115 460 54Q394 122 341 124ZM356 19Q300 20 264 42Q300 80 333 81Q370 80 409
26Q387 19 356 19Z" />
<glyph unicode="R" glyph-name="R" horiz-adv-x="613" d="M309 0V27H229V274H293L445 -1L613 0Q613 22 600 25Q594 26 588 26H567L410 285Q512 312 540 393Q548 418 548 443Q548 518 482 563Q427 600 348 600H26V573H106V27H26V0H309ZM298 573Q379 573 407 498Q417
471 417 440Q417 360 366 323Q339 304 304 304H229V573H298Z" />
<glyph unicode="S" glyph-name="S" horiz-adv-x="551" d="M507 164Q507 249 413 307Q399 315 305 361Q219 404 198 445Q187 467 187 490Q187 550 245 572Q268 581 294 581Q376 581 418 522Q446 482 446 427H482V606Q454 606 450 587Q449 580 449 571Q370 610 279
610Q163 610 102 548Q62 507 62 451Q62 367 156 310Q171 302 266 255Q354 212 375 170Q386 149 386 126Q386 56 321 30Q295 19 263 19Q144 19 106 136Q96 169 93 208H57V-2Q82 -2 87 13Q89 22 89 41Q167 -10 272 -10Q395 -10 461 54Q507 99 507 164Z" />
<glyph unicode="T" glyph-name="T" horiz-adv-x="562" d="M436 0Q428 25 410 27H342V573H372Q445 573 476 499Q481 487 485 474L511 391H540L536 600H26L21 391H51L77 474Q101 552 154 568Q170 573 190 573H219V27H124V0H436Z" />
<glyph unicode="U" glyph-name="U" horiz-adv-x="642" d="M10 573H90V222Q92 -9 337 -10Q501 -10 542 117Q557 166 557 234V573H637V600H441V573H521V228Q520 20 358 19Q245 19 220 138Q212 177 212 229V573H292V600H10V573Z" />
<glyph unicode="V" glyph-name="V" horiz-adv-x="588" d="M330 -5L538 573H588V600H419V573H499L342 134L169 573H248V600H-8V573H46L241 74Q265 13 279 3Q290 -5 312 -5H330Z" />
<glyph unicode="W" glyph-name="W" horiz-adv-x="873" d="M630 0L823 573H873V600H709V573H789L643 132L486 574L566 573V600H354L427 405L327 126L166 573H246V600H-8V573H45L234 72Q256 12 274 3Q283 -2 297 -2H313L444 359L552 72Q574 14 589 5Q597 0 613 0H630Z" />
<glyph unicode="X" glyph-name="X" horiz-adv-x="625" d="M194 0V27H114L279 258L431 27H359V0H625Q619 25 598 27H567L359 337L508 545Q527 571 551 573Q556 573 562 573Q586 581 588 600H412V573H492L342 363L201 573H273V600H12V573H71L260 286L95 55Q73 27
33 27Q9 19 7 0H194Z" />
<glyph unicode="Y" glyph-name="Y" horiz-adv-x="571" d="M436 0Q430 25 409 27H352V257L493 545Q512 572 544 573Q569 579 571 600H394V573H474L334 291L183 573H259V600H-3V573H47L230 249V27H146V0H436Z" />
<glyph unicode="Z" glyph-name="Z" horiz-adv-x="551" d="M523 0L525 207H497L470 111Q446 28 372 27H159L519 578V600H69L61 419H88L129 509Q160 572 210 573L391 574L22 21V0H523Z" />
<glyph unicode="[" glyph-name="bracketleft" horiz-adv-x="368" d="M344 -136H76V645H344V616H188V-105L344 -107V-136Z" />
<glyph unicode="\" glyph-name="backslash" horiz-adv-x="440" d="M338 -155L-3 710H74L415 -155H338Z" />
<glyph unicode="]" glyph-name="bracketright" horiz-adv-x="381" d="M37 -136H305V645H37V616H193V-105L37 -107V-136Z" />
<glyph unicode="^" glyph-name="asciicircum" horiz-adv-x="527" d="M73 334L106 313L264 569L422 313L454 334L275 624H253L73 334Z" />
<glyph unicode="_" glyph-name="underscore" horiz-adv-x="500" d="M10 -72H490V-25H10V-72Z" />
<glyph unicode="`" glyph-name="grave" horiz-adv-x="500" d="M371 502Q333 537 279 607Q260 633 247 643Q232 655 217 655Q186 655 170 624Q164 611 164 599Q165 576 183 562Q197 551 275 520Q324 500 356 482L371 502Z" />
<glyph unicode="a" glyph-name="a" horiz-adv-x="489" d="M389 -10Q460 -10 477 46Q482 66 484 94L458 95Q452 25 422 24Q399 26 399 74V284Q399 413 277 437Q252 442 224 442Q98 442 61 386Q50 370 50 352Q50 318 82 308Q91 305 100 305Q136 305 150 342Q152
347 156 359Q168 400 187 410Q200 416 216 416Q276 416 286 345Q288 329 288 310V246Q26 242 25 109Q25 23 100 -2Q124 -10 152 -10Q231 -10 275 46Q287 63 294 81Q310 -9 389 -10ZM198 32Q142 32 138 112Q138 117 138 122Q138 190 206 208Q238 217 288 218V127Q271
59 224 38Q210 32 198 32Z" />
<glyph unicode="b" glyph-name="b" horiz-adv-x="554" d="M315 -10Q409 -10 468 61Q522 126 522 225Q522 349 448 408Q405 442 349 442Q243 442 194 340Q193 338 192 336V650H19V624H81V81Q81 37 51 29Q38 26 19 26V0H163L172 69Q221 -9 315 -10ZM306 396Q396
396 402 236Q402 225 402 214Q402 48 325 21Q311 16 297 16Q228 16 203 101Q191 141 191 195Q191 324 249 374Q275 396 306 396Z" />
<glyph unicode="c" glyph-name="c" horiz-adv-x="448" d="M33 213Q33 76 136 19Q189 -10 258 -10Q362 -10 417 56Q434 76 443 100L417 107Q386 41 313 24Q294 19 273 19Q155 21 154 213Q154 396 235 415Q247 417 258 417Q305 417 316 376Q318 367 320 349Q327
305 344 293Q357 285 377 284Q422 284 433 319Q435 327 435 334Q435 379 380 412Q329 442 258 442Q146 442 83 364Q33 303 33 213Z" />
<glyph unicode="d" glyph-name="d" horiz-adv-x="564" d="M378 0H546Q546 22 534 25Q529 26 521 26H474V650H271V624H363V395Q312 442 238 442Q139 442 80 362Q33 297 33 205Q33 81 114 22Q159 -10 214 -10Q312 -10 358 80Q363 89 366 97L378 0ZM154 217Q154 361
220 400Q241 412 264 412Q333 412 356 321Q365 284 365 236Q365 96 303 50Q281 34 254 34Q180 34 160 142Q154 176 154 217Z" />
<glyph unicode="e" glyph-name="e" horiz-adv-x="472" d="M252 416Q314 416 326 343Q329 327 329 310Q329 263 295 251Q273 245 231 246L154 249Q158 391 229 413Q241 416 252 416ZM435 101L411 109Q382 46 319 26Q298 19 276 19Q159 19 154 218Q154 219 154 220L255
218Q405 215 435 261Q445 277 445 299Q445 378 365 418Q315 442 252 442Q137 442 76 359Q33 300 33 216Q33 79 134 20Q188 -10 255 -10Q369 -10 420 71Q429 86 435 101Z" />
<glyph unicode="f" glyph-name="f" horiz-adv-x="333" d="M284 26H213V402H327V428H213V434Q213 590 244 619Q257 629 274 629Q300 629 318 591Q338 549 346 541Q359 527 377 527Q416 527 426 558Q428 565 428 572Q428 614 377 639Q342 655 294 655Q182 655 133
570Q103 518 103 442V428H25V402H103V80Q103 35 58 28Q45 26 27 26V0H308Q308 23 293 25Q289 26 284 26Z" />
<glyph unicode="g" glyph-name="g" horiz-adv-x="498" d="M157 276Q157 377 189 402Q206 416 236 416Q294 416 308 359Q315 331 315 278Q315 175 281 149Q263 136 235 136Q177 136 163 197Q157 225 157 276ZM239 442Q131 442 77 373Q45 332 45 278Q45 205 116
152Q127 144 138 137Q80 138 58 85Q51 67 51 48Q52 -1 90 -30Q62 -61 62 -94Q62 -148 131 -175Q177 -193 242 -193Q402 -193 451 -118Q466 -93 466 -66Q466 26 365 42Q349 45 332 45L133 49Q102 50 97 75Q96 79 96 82Q96 105 123 110Q129 111 134 111L232 110H235Q339
110 393 180Q427 225 427 280Q426 353 372 399Q386 431 413 432Q426 432 445 415Q459 404 470 404Q498 404 504 431Q505 436 505 440Q505 475 471 489Q457 494 441 494Q391 494 362 440Q355 427 351 414Q304 442 239 442ZM242 -167Q129 -167 102 -114Q96 -102 96
-89Q97 -66 114 -43Q134 -50 153 -50L340 -52Q404 -53 414 -75Q418 -83 418 -93Q418 -139 331 -158Q290 -167 242 -167Z" />
<glyph unicode="h" glyph-name="h" horiz-adv-x="565" d="M231 26H198V258Q198 347 255 380Q275 391 295 391Q353 391 369 329Q373 312 373 291V80Q373 39 358 31Q347 26 324 26V0H546Q546 22 533 25Q527 26 521 26H483V279Q483 398 402 432Q377 442 348 442Q267
442 219 382Q206 364 198 345V650H24V624H88V80Q88 35 53 28Q41 26 24 26V0H256Q256 22 243 25Q237 26 231 26Z" />
<glyph unicode="i" glyph-name="i" horiz-adv-x="291" d="M243 26H202V428H27V403H92V80Q92 37 59 29Q47 26 27 26V0H267Q267 23 252 25Q248 26 243 26ZM212 564Q212 605 175 625Q160 633 144 633Q103 633 84 596Q76 580 76 564Q76 522 113 504Q128 497 144 497Q185
497 204 532Q212 547 212 564Z" />
<glyph unicode="j" glyph-name="j" horiz-adv-x="280" d="M222 564Q222 605 185 625Q170 633 154 633Q113 633 94 596Q86 580 86 564Q86 522 123 504Q138 497 154 497Q195 497 214 532Q222 547 222 564ZM36 428V403H104V52Q104 18 106 -47Q108 -89 108 -103Q107
-166 77 -167Q57 -167 50 -138Q40 -100 35 -92Q22 -76 -2 -76Q-37 -76 -45 -106Q-47 -113 -47 -119Q-47 -161 0 -181Q27 -193 62 -193Q166 -193 201 -87Q215 -41 215 20V428H36Z" />
<glyph unicode="k" glyph-name="k" horiz-adv-x="518" d="M256 26H206V178L245 215L373 -1L528 0Q528 23 515 25Q510 26 504 26H482L322 288L402 364Q436 397 454 401Q462 403 472 403Q495 403 497 418Q498 423 498 428H328V403H402L206 218V650H20V624H96V80Q96
35 51 28Q38 26 20 26V0H280Q280 23 265 25Q261 26 256 26Z" />
<glyph unicode="l" glyph-name="l" horiz-adv-x="305" d="M259 26H208V650H21V624H98V82Q98 39 68 30Q53 26 21 26V0H284Q284 22 271 25Q265 26 259 26Z" />
<glyph unicode="m" glyph-name="m" horiz-adv-x="811" d="M224 26H197L198 273Q205 355 256 384Q272 393 288 393Q329 393 346 344Q353 322 353 294V80Q353 39 334 31Q323 26 301 26V0H514Q514 22 501 25Q495 26 489 26H463V279V292Q474 366 522 389Q535 395 548
395Q594 395 612 344Q619 321 619 294V80Q619 39 600 31Q589 26 567 26V0H792Q792 22 779 25Q773 26 767 26H729V283Q729 382 663 423Q633 442 598 442Q504 442 457 351Q455 347 454 344Q432 418 370 437Q354 442 337 442Q249 442 204 364Q200 356 196 348L191
428H23V403H87V80Q87 36 54 29Q41 26 23 26V0H248Q248 23 233 25Q229 26 224 26Z" />
<glyph unicode="n" glyph-name="n" horiz-adv-x="564" d="M228 26H197L198 273Q205 353 258 383Q277 393 296 393Q352 393 367 334Q372 316 372 294V80Q372 38 349 30Q338 26 317 26V0H546Q546 22 533 25Q527 26 521 26H482V279Q482 397 400 431Q374 442 344 442Q272
442 222 385Q206 366 196 345L191 428H23V403H87V80Q87 36 54 29Q41 26 23 26V0H253Q253 22 240 25Q234 26 228 26Z" />
<glyph unicode="o" glyph-name="o" horiz-adv-x="518" d="M154 216Q154 368 208 403Q230 416 259 416Q335 416 355 330Q365 288 365 220Q365 59 304 26Q284 16 259 16Q184 16 164 102Q154 145 154 216ZM263 442Q149 442 83 364Q33 304 33 220Q33 104 115 38Q175
-10 256 -10Q367 -10 433 70Q485 133 485 220Q485 337 401 399Q343 442 263 442Z" />
<glyph unicode="p" glyph-name="p" horiz-adv-x="557" d="M195 -164V38Q237 -9 317 -10Q412 -10 472 63Q525 128 525 227Q525 349 454 407Q411 442 355 442Q272 442 222 380Q203 356 193 328L188 428H22V403H85V-110Q85 -152 57 -160Q44 -164 22 -164V-190H277Q277
-168 264 -165Q258 -164 252 -164H195ZM309 396Q404 394 405 214Q405 43 324 19Q313 16 300 16Q239 16 211 87Q194 132 194 195Q194 322 252 374Q278 396 309 396Z" />
<glyph unicode="q" glyph-name="q" horiz-adv-x="562" d="M32 204Q32 78 114 20Q157 -10 211 -10Q294 -10 344 57Q355 73 363 90L362 -110Q362 -152 333 -160Q319 -164 293 -164V-190H541Q541 -167 528 -165Q522 -164 516 -164H473V403H540V428H372L368 394Q318
442 239 442Q144 442 85 370Q32 305 32 204ZM364 236Q364 90 299 47Q277 34 253 34Q177 34 158 145Q152 178 152 217Q152 359 217 400Q238 412 262 412Q348 412 362 284Q364 261 364 236Z" />
<glyph unicode="r" glyph-name="r" horiz-adv-x="413" d="M271 26H198V243Q205 339 252 372Q263 379 271 379Q284 379 297 356Q314 324 333 318Q342 315 352 315Q388 315 403 350Q408 361 408 373Q408 421 361 433Q349 436 337 436Q276 436 228 386Q207 363 195
334L189 428H24V403H87V80Q87 37 57 29Q44 26 24 26V0H295Q295 23 280 25Q276 26 271 26Z" />
<glyph unicode="s" glyph-name="s" horiz-adv-x="413" d="M194 18Q261 18 277 63Q280 73 280 83Q280 131 217 164Q203 171 173 184Q96 218 70 246Q43 278 43 320Q43 399 129 429Q167 442 214 442Q287 442 334 414Q334 444 350 447Q355 448 360 448V323H330Q326
414 230 415Q163 415 147 373Q143 362 143 351Q143 309 203 278Q216 272 245 259Q324 225 350 196Q380 162 380 116Q380 31 292 2Q256 -10 212 -10Q128 -10 71 23Q71 -3 58 -7Q52 -8 44 -8V144H76Q78 19 194 18Z" />
<glyph unicode="t" glyph-name="t" horiz-adv-x="349" d="M17 399H86V139Q95 -6 221 -11Q300 -11 328 52Q338 74 344 105L317 109Q295 20 246 19Q204 19 197 76Q196 86 196 96V399H336V425H196V541L86 520V425H17V399Z" />
<glyph unicode="u" glyph-name="u" horiz-adv-x="564" d="M517 26H478V428H308V403H368L367 162Q362 82 309 50Q289 39 269 39Q203 39 193 114Q191 127 191 140V428H17V403H81V156Q82 -9 224 -10Q305 -10 353 58Q363 73 370 88L375 0H541Q541 23 528 25Q523 26 517 26Z" />
<glyph unicode="v" glyph-name="v" horiz-adv-x="471" d="M221 403V428H2V403H43L168 67Q189 11 206 1Q217 -5 237 -5H266L410 372Q420 399 436 402Q442 403 448 403Q465 403 467 409Q469 415 469 428H310V403H389L269 89L153 403H221Z" />
<glyph unicode="w" glyph-name="w" horiz-adv-x="702" d="M226 403V428H5V403H48L167 67Q187 9 209 -1Q219 -5 235 -5H264L354 275L427 67Q446 10 461 1Q472 -5 491 -5H519L643 371Q652 399 670 402Q675 403 680 403Q699 403 701 417Q702 422 702 428H558V403H622L524
94L419 403H482V428H301L339 319L268 93L161 403H226Z" />
<glyph unicode="x" glyph-name="x" horiz-adv-x="467" d="M4 0H156V26H84L205 178L307 26H250V0H467Q459 24 442 26H422L279 240L379 373Q399 400 430 404Q445 405 448 415Q449 421 449 428H300V403H367L262 264L169 403H228V428H6V403H53L189 202L72 55Q51 30
21 25Q7 24 5 13Q4 7 4 0Z" />
<glyph unicode="y" glyph-name="y" horiz-adv-x="488" d="M121 -160Q104 -160 94 -134Q81 -100 70 -92Q59 -84 43 -84Q9 -84 0 -113Q-2 -120 -2 -126Q-2 -161 40 -181Q66 -193 97 -193Q179 -193 236 -96Q258 -60 278 -9L427 372Q438 399 452 402Q456 403 461 403Q482
403 485 416Q486 421 486 428H332V403H407L291 111L166 403H229V428H6V403H51L241 -14Q190 -138 143 -156Q132 -160 121 -160Z" />
<glyph unicode="z" glyph-name="z" horiz-adv-x="420" d="M136 27L397 409V430H44L36 287H58L89 355Q112 402 154 403H287L15 22V0H394L396 164H374L356 93Q338 28 279 27L282 26L136 27Z" />
<glyph unicode="{" glyph-name="braceleft" horiz-adv-x="400" d="M258 148V-3Q258 -68 270 -84Q286 -105 358 -107Q369 -107 380 -107V-136Q249 -136 209 -120Q157 -99 150 -27Q149 -12 149 4V153Q149 208 123 226Q106 237 73 244V265Q129 277 142 306Q149 324
149 356V505Q149 595 196 622Q233 644 352 645Q364 645 380 645V616Q293 616 274 598Q258 583 258 526Q258 520 258 512V361Q258 298 207 270Q198 264 182 257V252Q229 230 244 207Q258 183 258 148Z" />
<glyph unicode="|" glyph-name="bar" horiz-adv-x="265" d="M96 -136V650H169V-136H96Z" />
<glyph unicode="}" glyph-name="braceright" horiz-adv-x="397" d="M142 359V510Q142 575 130 591Q114 612 42 614Q31 614 20 614V643Q151 643 191 627Q243 606 250 534Q251 519 251 503V354Q251 299 277 281Q294 270 327 263V242Q271 230 258 201Q251 183 251
151V2Q251 -88 204 -115Q167 -137 48 -138Q36 -138 20 -138V-109Q107 -109 126 -91Q142 -76 142 -19Q142 -13 142 -5V146Q142 209 193 237Q202 243 218 250V255Q171 277 156 300Q142 324 142 359Z" />
<glyph unicode="~" glyph-name="asciitilde" horiz-adv-x="486" d="M159 319Q201 319 268 280Q325 248 350 248Q404 250 427 320L453 314Q440 223 381 190Q358 178 332 178Q291 178 222 215Q164 247 137 247Q81 245 59 176L33 183Q48 275 110 307Q133 319 159 319Z" />
<glyph unicode="&#xa0;" glyph-name="uni00A0" horiz-adv-x="203" />
<glyph unicode="&#xa1;" glyph-name="exclamdown" horiz-adv-x="278" d="M101 253Q101 134 67 -1Q50 -71 50 -104Q52 -172 116 -173Q183 -171 184 -103Q184 -72 162 17Q133 136 133 253H101ZM52 378Q52 339 87 321Q102 313 117 313Q157 313 174 349Q181 363 181
378Q181 419 145 436Q131 442 117 442Q78 442 60 408Q52 394 52 378Z" />
<glyph unicode="&#xa2;" glyph-name="cent" horiz-adv-x="465" d="M32 272Q32 135 135 78Q180 53 236 49V-20H265V48Q371 51 421 120Q434 138 442 159L417 166Q388 105 322 84Q297 76 271 76H265V475Q310 475 319 434Q321 426 322 408Q327 363 344 351Q356 343
375 342Q422 342 432 379Q434 386 434 392Q434 438 377 471Q330 498 265 500V570H236V499Q124 490 69 406Q32 349 32 272ZM149 271Q149 448 226 471Q232 472 236 473V80Q149 106 149 271Z" />
<glyph unicode="&#xa3;" glyph-name="sterling" horiz-adv-x="570" d="M548 170H527Q503 97 389 97Q328 97 228 116Q240 156 240 209Q240 238 236 297H390V326H234Q228 398 228 429Q228 560 290 578Q303 582 317 582Q370 582 383 536Q386 526 390 505Q398 457
416 444Q431 434 453 434Q498 434 512 470Q516 481 516 492Q516 557 433 590Q381 610 313 610Q194 610 133 538Q93 491 93 426Q93 381 110 326H49V297H119Q125 281 136 249Q168 164 173 126Q141 131 122 131Q65 131 48 87Q43 75 43 63Q43 21 81 6Q96 0 112 0Q174
1 210 68Q220 62 239 48Q313 -6 360 -16Q380 -21 400 -21Q514 -21 541 98Q548 130 548 170ZM111 28Q81 28 76 54Q75 59 75 62Q75 92 104 101Q112 103 120 103Q148 103 174 89Q168 46 131 32Q121 28 111 28Z" />
<glyph unicode="&#xa4;" glyph-name="currency" horiz-adv-x="605" d="M297 111Q217 111 173 172Q140 217 140 281Q140 384 217 428Q253 449 296 449Q374 449 419 389Q452 344 452 280Q452 175 375 131Q339 111 297 111ZM295 76Q372 77 427 124L513 37L538 62L452
150Q494 204 494 282Q493 356 455 408L541 493L515 519L431 435Q375 484 298 484Q221 483 166 436L80 520L55 495L141 410Q98 357 98 279Q99 200 142 146L57 61L83 36L168 121Q221 76 295 76Z" />
<glyph unicode="&#xa5;" glyph-name="yen" horiz-adv-x="572" d="M429 0Q429 24 416 26Q411 27 405 27H351L352 220H482V250H353V298H482V328H364L485 545Q496 565 511 570Q524 573 546 573Q563 581 565 600H386V573H466L335 339L198 573H265V600H13V573H61L214
328H101V298H231V250H101V220H230L229 27H152V0H429Z" />
<glyph unicode="&#xa6;" glyph-name="brokenbar" horiz-adv-x="265" d="M169 315V650H96V315H169ZM169 -136V199H96V-136H169Z" />
<glyph unicode="&#xa7;" glyph-name="section" horiz-adv-x="470" d="M145 317Q146 354 174 375Q186 369 211 358Q292 323 312 299Q327 281 327 261Q326 222 295 201Q283 207 260 217Q180 255 160 279Q145 297 145 317ZM431 294Q431 364 344 411Q325 421 283 439Q205
473 185 496Q170 514 170 535Q170 574 210 589Q224 594 239 594Q287 594 299 555Q301 549 304 537Q313 502 329 494Q340 489 353 489Q390 496 394 533Q394 580 326 606Q286 621 241 621Q134 621 88 565Q65 537 65 499Q66 438 135 395Q57 372 43 308Q41 297 41 286Q41
215 130 165Q149 154 189 134Q265 98 283 75Q295 60 295 43Q295 1 254 -13Q241 -17 227 -17Q182 -17 169 22Q167 29 164 42Q156 79 139 88Q128 94 113 94Q73 94 67 59Q66 54 66 50Q66 -5 140 -31Q179 -44 225 -44Q320 -44 371 5Q403 37 403 79Q402 138 330 182Q413
205 428 269Q431 281 431 294Z" />
<glyph unicode="&#xa8;" glyph-name="dieresis" horiz-adv-x="500" d="M219 570Q219 607 186 625Q172 632 158 632Q119 632 101 597Q95 584 95 570Q95 531 130 515Q144 509 158 509Q195 509 212 542Q219 555 219 570ZM405 570Q405 608 371 625Q357 632 342 632Q306
632 288 599Q281 585 281 570Q281 531 316 515Q329 509 342 509Q383 509 399 544Q405 557 405 570Z" />
<glyph unicode="&#xa9;" glyph-name="copyright" horiz-adv-x="641" d="M606 275Q606 401 519 483Q439 559 321 559Q186 559 103 464Q35 385 35 275Q35 148 123 66Q204 -10 321 -10Q454 -10 536 84Q606 164 606 275ZM66 275Q66 396 149 470Q219 531 321 531Q445
531 518 440Q574 370 574 275Q574 157 493 82Q422 18 321 18Q196 18 123 108Q66 179 66 275ZM326 455Q233 455 182 389Q146 341 146 274Q146 174 222 126Q267 98 323 98Q414 98 458 166Q462 174 466 181L443 191Q410 127 342 126Q278 126 260 221Q255 250 255 283Q255
392 299 422Q311 430 325 430Q356 430 362 397Q363 392 364 381Q370 339 388 329Q401 321 421 321Q462 321 467 354Q468 358 468 362Q468 412 406 439Q369 455 326 455Z" />
<glyph unicode="&#xaa;" glyph-name="ordfeminine" horiz-adv-x="308" d="M284 243V279H18V243H284ZM294 391H275Q272 355 255 354Q242 356 242 383V503Q239 598 131 600Q48 600 28 561Q24 552 24 544Q24 518 50 513Q54 512 58 512Q89 512 97 541Q105 568 108
572Q117 581 130 581Q165 581 168 529Q168 523 168 516V482Q25 481 12 415Q10 407 10 399Q10 341 65 329Q77 326 89 326Q147 326 170 374Q170 376 171 377Q180 335 222 327Q229 326 236 326Q285 326 293 376Q294 383 294 391ZM118 361Q90 363 89 406Q89 449 134
458Q149 461 168 462V413Q151 364 118 361Z" />
<glyph unicode="&#xab;" glyph-name="guillemotleft" horiz-adv-x="419" d="M217 378L197 395Q176 372 71 275Q43 250 33 238Q18 221 18 204Q19 186 33 170Q41 160 142 67Q175 37 197 15L216 32Q206 49 134 191Q130 199 127 205Q133 217 147 245Q192 336 217 378ZM401
378L381 395Q359 371 255 276Q227 250 216 238Q202 220 202 204Q203 185 216 170Q223 163 325 68Q359 37 381 15L400 32Q389 51 323 180Q316 195 310 205Q318 220 337 258Q379 340 401 378Z" />
<glyph unicode="&#xac;" glyph-name="logicalnot" horiz-adv-x="484" d="M397 111H449V337H35V297H397V111Z" />
<glyph unicode="&#xad;" glyph-name="uni00AD" horiz-adv-x="360" d="M33 197H327V240H33V197Z" />
<glyph unicode="&#xae;" glyph-name="registered" horiz-adv-x="395" d="M370 473Q370 560 303 610Q255 645 194 645Q104 645 52 577Q18 531 18 473Q18 386 85 336Q133 301 194 301Q284 301 336 369Q370 414 370 473ZM45 473Q45 552 106 596Q145 623 194 623Q274
622 317 560Q343 521 343 473Q343 394 282 350Q243 323 194 323Q114 323 71 386Q45 425 45 473ZM304 375Q302 389 292 390H285L237 468Q284 480 285 522Q285 558 241 570Q225 574 207 574L97 575V559H118V390H97V375H196V390H173V464H188L238 374L304 375ZM173
559H191Q218 559 224 530Q225 524 225 520Q225 487 199 481Q195 480 192 480H173V559Z" />
<glyph unicode="&#xaf;" glyph-name="overscore" horiz-adv-x="500" d="M93 540H407V593H93V540Z" />
<glyph unicode="&#xb0;" glyph-name="degree" horiz-adv-x="284" d="M74 542Q74 585 110 606Q126 614 142 614Q182 614 201 577Q210 561 210 542Q210 500 173 481Q158 474 142 474Q100 474 81 511Q74 526 74 542ZM241 542Q241 596 196 626Q171 643 142 643Q89
643 59 597Q43 571 43 542Q43 488 89 460Q114 446 142 446Q197 446 226 491Q241 515 241 542Z" />
<glyph unicode="&#xb1;" glyph-name="plusminus" horiz-adv-x="455" d="M420 254V294H254V433H202V294H35V254H202V115H254V254H420ZM420 31V71H35V31H420Z" />
<glyph unicode="&#xb2;" glyph-name="twosuperior" horiz-adv-x="360" d="M83 391Q94 413 160 440Q239 471 265 493Q298 523 299 564Q299 627 224 649Q195 658 162 658Q88 658 51 620Q31 599 31 573Q35 532 77 530Q107 530 118 546T128 583T131 620T159 637Q194
637 200 594Q201 582 201 566Q201 505 144 465Q135 459 115 446Q61 414 45 388Q30 362 30 330V322H304L305 440H290L279 411Q271 392 239 391Q233 391 226 391H83Z" />
<glyph unicode="&#xb3;" glyph-name="threesuperior" horiz-adv-x="373" d="M320 632V648H53L52 527H67L78 554Q87 578 109 580Q116 580 125 580H227L126 475L142 463Q163 471 178 471Q230 469 231 396Q229 299 166 298Q136 298 131 328Q130 333 130 345Q127 383
110 392Q98 398 82 398Q43 392 39 359Q39 308 106 289Q133 282 163 282Q246 282 295 327Q328 358 328 399Q328 454 274 478Q246 491 210 491Q196 491 167 487L320 632Z" />
<glyph unicode="&#xb4;" glyph-name="acute" horiz-adv-x="500" d="M368 562Q386 577 387 599Q387 631 358 648Q346 655 334 655Q319 655 304 643Q292 634 253 582Q217 536 180 502L195 482Q222 497 317 536Q354 551 368 562Z" />
<glyph unicode="&#xb5;" glyph-name="uni00B5" horiz-adv-x="564" d="M187 -105Q187 -88 155 26Q153 33 152 38Q185 -8 237 -9Q307 -9 356 65Q364 77 370 90L375 0H542Q542 22 530 25Q525 26 518 26H478V428H308V402H368L367 177Q367 88 312 52Q291 39 269 39Q203
39 193 114Q191 127 191 140V428H17V402H81V155Q81 93 71 -24Q65 -89 65 -107Q67 -174 125 -175Q182 -165 187 -105Z" />
<glyph unicode="&#xb6;" glyph-name="paragraph" horiz-adv-x="542" d="M231 -116Q340 -116 405 -54Q459 -1 459 81L458 574H530V600H281Q130 600 67 504Q36 456 36 395Q36 294 111 239Q168 198 249 198H273V57Q273 -62 256 -81Q248 -89 236 -89Q209 -89 200 -54Q198
-48 196 -35Q187 14 167 28Q151 38 128 38Q84 38 71 1Q68 -9 68 -19Q68 -72 138 -100Q180 -116 231 -116ZM354 67Q354 -39 326 -68Q309 -85 279 -88Q302 -62 302 60V574H354V67Z" />
<glyph unicode="&#xb7;" glyph-name="middot" horiz-adv-x="268" d="M202 229Q202 269 166 289Q150 297 134 297Q93 297 74 261Q66 245 66 229Q66 187 103 169Q118 162 134 162Q175 162 194 197Q202 212 202 229Z" />
<glyph unicode="&#xb8;" glyph-name="cedilla" horiz-adv-x="500" d="M158 -85L172 -95Q198 -77 221 -77Q258 -77 265 -119Q266 -127 266 -134Q266 -190 227 -199Q221 -200 216 -200Q179 -199 149 -161L133 -175Q172 -226 243 -228Q321 -228 353 -178Q366 -158
366 -135Q366 -84 314 -61Q287 -50 254 -50Q225 -50 200 -61L229 6H204L158 -85Z" />
<glyph unicode="&#xb9;" glyph-name="onesuperior" horiz-adv-x="315" d="M163 649L20 551L35 528L127 590V350L43 343V322H300Q300 340 281 343Q278 344 275 344L224 350V649H163Z" />
<glyph unicode="&#xba;" glyph-name="ordmasculine" horiz-adv-x="310" d="M102 463Q102 560 137 573Q145 576 153 576Q193 576 202 521Q205 499 205 465Q205 365 168 352Q161 350 153 350Q112 350 105 411Q102 432 102 463ZM155 600Q73 600 33 541Q10 507 10
465Q10 388 71 349Q107 326 151 326Q230 326 272 384Q297 420 297 465Q297 542 235 579Q199 600 155 600ZM21 243H287V279H21V243Z" />
<glyph unicode="&#xbb;" glyph-name="guillemotright" horiz-adv-x="419" d="M202 378L222 395Q243 372 348 275Q376 250 386 238Q401 221 401 204Q400 186 386 170Q378 160 277 67Q243 36 222 15L203 32Q213 49 285 191Q289 199 292 205Q286 217 272 245Q227
336 202 378ZM18 378L38 395Q60 371 164 276Q192 250 203 238Q217 220 217 204Q216 185 203 170Q196 163 94 68Q60 37 38 15L19 32Q30 51 96 180Q103 195 109 205Q101 220 82 258Q40 340 18 378Z" />
<glyph unicode="&#xbc;" glyph-name="onequarter" horiz-adv-x="751" d="M189 -32L621 610L587 632L154 -10L189 -32ZM183 616L40 518L55 495L147 557V317L63 310V289H320Q320 307 301 310Q298 311 295 311L244 317V616H183ZM708 -45Q708 -25 697 -23Q693 -22
688 -22H638V47H708V72H638V201H620L612 178Q599 146 564 143Q557 143 550 143H541V73L399 74Q529 164 561 191Q642 259 642 305Q642 341 602 346Q597 347 592 347Q560 347 543 314Q538 305 529 284Q491 197 436 139Q403 105 361 74L366 49L541 48V-22H464V-45H708Z"
/>
<glyph unicode="&#xbd;" glyph-name="onehalf" horiz-adv-x="769" d="M188 -32L620 610L586 632L153 -10L188 -32ZM183 616L40 518L55 495L147 557V317L63 310V289H320Q320 307 301 310Q298 311 295 311L244 317V616H183ZM498 69Q509 91 575 118Q654 149 680 171Q713
201 714 242Q714 305 639 327Q610 336 577 336Q503 336 466 298Q446 277 446 251Q450 210 492 208Q522 208 533 224T543 261T546 298T574 315Q609 315 615 272Q616 260 616 244Q616 183 559 143Q550 137 530 124Q476 92 460 66Q445 40 445 8V0H719L720 118H705L694
89Q686 70 654 69Q648 69 641 69H498Z" />
<glyph unicode="&#xbe;" glyph-name="threequarters" horiz-adv-x="760" d="M321 599V615H54L53 494H68L79 521Q88 545 110 547Q117 547 126 547H228L127 442L143 430Q164 438 179 438Q231 436 232 363Q230 266 167 265Q137 265 132 295Q131 300 131 312Q128 350
111 359Q99 365 83 365Q44 359 40 326Q40 275 107 256Q134 249 164 249Q247 249 296 294Q329 325 329 366Q329 421 275 445Q247 458 211 458Q197 458 168 454L321 599ZM197 -32L629 610L595 632L162 -10L197 -32ZM717 -45Q717 -25 706 -23Q702 -22 697 -22H647V47H717V72H647V201H629L621
178Q608 146 573 143Q566 143 559 143H550V73L408 74Q538 164 570 191Q651 259 651 305Q651 341 611 346Q606 347 601 347Q569 347 552 314Q547 305 538 284Q500 197 445 139Q412 105 370 74L375 49L550 48V-22H473V-45H717Z" />
<glyph unicode="&#xbf;" glyph-name="questiondown" horiz-adv-x="490" d="M227 253Q227 178 163 122Q152 112 128 94Q72 51 55 21Q38 -9 38 -45Q38 -131 137 -161Q176 -173 224 -173Q319 -173 369 -129Q397 -103 398 -70Q398 -25 356 -17Q349 -16 341 -16Q299
-16 290 -55Q288 -63 286 -80Q282 -125 264 -137Q250 -147 227 -147Q158 -141 155 -63Q155 15 195 76Q231 131 237 142Q259 189 259 253H227ZM175 378Q175 339 210 321Q225 313 240 313Q280 313 297 349Q304 363 304 378Q304 419 268 436Q254 442 240 442Q201 442
183 408Q175 394 175 378Z" />
<glyph unicode="&#xc0;" glyph-name="Agrave" horiz-adv-x="636" d="M636 0Q636 23 622 26Q618 27 611 27H580L346 600H284L64 27H0V0H182Q182 23 168 26Q163 27 157 27H104L177 219H379L454 27H385V0H636ZM367 249H188L277 483L367 249ZM416 632Q378 667 324
737Q305 763 292 773Q277 785 262 785Q231 785 215 754Q209 741 209 729Q210 706 228 692Q242 681 320 650Q369 630 401 612L416 632Z" />
<glyph unicode="&#xc1;" glyph-name="Aacute" horiz-adv-x="636" d="M636 0Q636 23 622 26Q618 27 611 27H580L346 600H284L64 27H0V0H182Q182 23 168 26Q163 27 157 27H104L177 219H379L454 27H385V0H636ZM367 249H188L277 483L367 249ZM412 692Q430 707 431
729Q431 761 402 778Q390 785 378 785Q363 785 348 773Q336 764 297 712Q261 666 224 632L239 612Q266 627 361 666Q398 681 412 692Z" />
<glyph unicode="&#xc2;" glyph-name="Acircumflex" horiz-adv-x="636" d="M636 0Q636 23 622 26Q618 27 611 27H580L346 600H284L64 27H0V0H182Q182 23 168 26Q163 27 157 27H104L177 219H379L454 27H385V0H636ZM367 249H188L277 483L367 249ZM440 630L453 648Q432
669 375 739Q338 775 315 778Q288 778 260 744Q254 737 240 720Q205 675 179 647L192 630Q248 663 317 692Q376 667 440 630Z" />
<glyph unicode="&#xc3;" glyph-name="Atilde" horiz-adv-x="636" d="M636 0Q636 23 622 26Q618 27 611 27H580L346 600H284L64 27H0V0H182Q182 23 168 26Q163 27 157 27H104L177 219H379L454 27H385V0H636ZM367 249H188L277 483L367 249ZM259 776Q289 776 338
743Q378 715 400 715Q441 717 455 771L476 767Q463 667 405 648Q394 644 382 644Q352 644 303 677Q263 705 243 705Q203 705 188 659Q187 654 186 650L166 653Q178 755 237 773Q248 776 259 776Z" />
<glyph unicode="&#xc4;" glyph-name="Adieresis" horiz-adv-x="636" d="M636 0Q636 23 622 26Q618 27 611 27H580L346 600H284L64 27H0V0H182Q182 23 168 26Q163 27 157 27H104L177 219H379L454 27H385V0H636ZM367 249H188L277 483L367 249ZM284 699Q284 736 251
754Q237 761 223 761Q184 761 166 726Q160 713 160 699Q160 660 195 644Q209 638 223 638Q260 638 277 671Q284 684 284 699ZM470 699Q470 737 436 754Q422 761 407 761Q371 761 353 728Q346 714 346 699Q346 660 381 644Q394 638 407 638Q448 638 464 673Q470
686 470 699Z" />
<glyph unicode="&#xc5;" glyph-name="Aring" horiz-adv-x="636" d="M636 0Q636 23 622 26Q618 27 611 27H580L349 592Q417 604 431 660Q434 672 434 684Q434 743 378 766Q353 775 323 775Q238 775 214 718Q207 701 207 683Q207 622 261 599Q271 595 281 593L64
27H0V0H182Q182 23 168 26Q163 27 157 27H104L177 219H379L454 27H385V0H636ZM367 249H188L277 483L367 249ZM277 681Q278 750 320 751Q364 750 364 683Q363 614 320 613Q277 614 277 681Z" />
<glyph unicode="&#xc6;" glyph-name="AE" horiz-adv-x="892" d="M250 265L437 571V265H250ZM186 0Q186 23 173 25Q168 26 162 26H105L232 235H437V27H355V0H842L846 192H820L800 126Q773 38 705 28Q695 27 685 27H560V294H753V324H560V573H685Q771 572 800 474L820
408H846L842 600H412L60 26H0V0H186Z" />
<glyph unicode="&#xc7;" glyph-name="Ccedilla" horiz-adv-x="608" d="M546 41Q545 2 562 -3Q569 -5 580 -5V189H550Q508 38 390 21Q373 19 356 19Q176 21 175 303Q175 522 297 570Q327 581 362 581Q475 581 525 470Q536 444 545 412H577L574 605Q549 605 544
588Q542 578 542 559Q459 610 350 610Q185 610 98 493Q36 409 36 301Q36 171 120 82Q191 8 299 -7L259 -85L273 -95Q299 -77 322 -77Q359 -77 366 -119Q367 -127 367 -134Q367 -190 328 -199Q322 -200 317 -200Q280 -199 250 -161L234 -175Q273 -226 344 -228Q422
-228 454 -178Q467 -158 467 -135Q467 -84 415 -61Q388 -50 355 -50Q326 -50 301 -61L323 -9Q333 -10 350 -10Q453 -9 546 41Z" />
<glyph unicode="&#xc8;" glyph-name="Egrave" horiz-adv-x="565" d="M518 412L514 600H26V573H106V27H26V0H514L518 188H492L472 126Q446 48 394 32Q377 27 357 27H229V294H426V324H229V573H357Q434 573 466 493Q470 484 473 474L492 412H518ZM396 632Q358 667
304 737Q285 763 272 773Q257 785 242 785Q211 785 195 754Q189 741 189 729Q190 706 208 692Q222 681 300 650Q349 630 381 612L396 632Z" />
<glyph unicode="&#xc9;" glyph-name="Eacute" horiz-adv-x="565" d="M518 412L514 600H26V573H106V27H26V0H514L518 188H492L472 126Q446 48 394 32Q377 27 357 27H229V294H426V324H229V573H357Q434 573 466 493Q470 484 473 474L492 412H518ZM394 699Q412 714
413 736Q413 768 384 785Q372 792 360 792Q345 792 330 780Q318 771 279 719Q243 673 206 639L221 619Q248 634 343 673Q380 688 394 699Z" />
<glyph unicode="&#xca;" glyph-name="Ecircumflex" horiz-adv-x="565" d="M518 412L514 600H26V573H106V27H26V0H514L518 188H492L472 126Q446 48 394 32Q377 27 357 27H229V294H426V324H229V573H357Q434 573 466 493Q470 484 473 474L492 412H518ZM420 630L433
648Q412 669 355 739Q318 775 295 778Q268 778 240 744Q234 737 220 720Q185 675 159 647L172 630Q228 663 297 692Q356 667 420 630Z" />
<glyph unicode="&#xcb;" glyph-name="Edieresis" horiz-adv-x="565" d="M518 412L514 600H26V573H106V27H26V0H514L518 188H492L472 126Q446 48 394 32Q377 27 357 27H229V294H426V324H229V573H357Q434 573 466 493Q470 484 473 474L492 412H518ZM264 699Q264
736 231 754Q217 761 203 761Q164 761 146 726Q140 713 140 699Q140 660 175 644Q189 638 203 638Q240 638 257 671Q264 684 264 699ZM450 699Q450 737 416 754Q402 761 387 761Q351 761 333 728Q326 714 326 699Q326 660 361 644Q374 638 387 638Q428 638 444
673Q450 686 450 699Z" />
<glyph unicode="&#xcc;" glyph-name="Igrave" horiz-adv-x="335" d="M309 0Q303 25 282 27H229V573H309V600H26V573H106V27H26V0H309ZM266 632Q228 667 174 737Q155 763 142 773Q127 785 112 785Q81 785 65 754Q59 741 59 729Q60 706 78 692Q92 681 170 650Q219
630 251 612L266 632Z" />
<glyph unicode="&#xcd;" glyph-name="Iacute" horiz-adv-x="335" d="M309 0Q303 25 282 27H229V573H309V600H26V573H106V27H26V0H309ZM262 692Q280 707 281 729Q281 761 252 778Q240 785 228 785Q213 785 198 773Q186 764 147 712Q111 666 74 632L89 612Q116 627
211 666Q248 681 262 692Z" />
<glyph unicode="&#xce;" glyph-name="Icircumflex" horiz-adv-x="335" d="M309 0Q303 25 282 27H229V573H309V600H26V573H106V27H26V0H309ZM290 630L303 648Q282 669 225 739Q188 775 165 778Q138 778 110 744Q104 737 90 720Q55 675 29 647L42 630Q98 663 167
692Q226 667 290 630Z" />
<glyph unicode="&#xcf;" glyph-name="Idieresis" horiz-adv-x="335" d="M309 0Q303 25 282 27H229V573H309V600H26V573H106V27H26V0H309ZM134 699Q134 736 101 754Q87 761 73 761Q34 761 16 726Q10 713 10 699Q10 660 45 644Q59 638 73 638Q110 638 127 671Q134
684 134 699ZM320 699Q320 737 286 754Q272 761 257 761Q221 761 203 728Q196 714 196 699Q196 660 231 644Q244 638 257 638Q298 638 314 673Q320 686 320 699Z" />
<glyph unicode="&#xd0;" glyph-name="Eth" horiz-adv-x="673" d="M26 600V573H106V332H33V289H106V27H26V0H317Q454 0 543 84Q631 167 631 299Q631 467 506 548Q425 600 316 600H26ZM317 573Q439 573 476 455Q494 395 494 303Q494 74 377 36Q350 27 317 27H229V289H327V332H229V573H317Z"
/>
<glyph unicode="&#xd1;" glyph-name="Ntilde" horiz-adv-x="666" d="M456 573H538V167L176 600H17V573H97V27H17V0H223Q217 25 196 27H138V458L526 -5L579 5V573H659V600H456V573ZM279 776Q309 776 358 743Q398 715 420 715Q461 717 475 771L496 767Q483 667 425
648Q414 644 402 644Q372 644 323 677Q283 705 263 705Q223 705 208 659Q207 654 206 650L186 653Q198 755 257 773Q268 776 279 776Z" />
<glyph unicode="&#xd2;" glyph-name="Ograve" horiz-adv-x="704" d="M355 610Q226 610 136 528Q41 441 41 303Q41 144 154 56Q239 -10 352 -10Q480 -10 569 73Q663 161 663 299Q663 463 547 549Q465 610 355 610ZM355 19Q231 19 196 150Q180 211 180 299Q180 566
333 580Q343 581 352 581Q486 581 515 418Q524 368 524 303Q524 57 400 24Q379 19 355 19ZM457 632Q419 667 365 737Q346 763 333 773Q318 785 303 785Q272 785 256 754Q250 741 250 729Q251 706 269 692Q283 681 361 650Q410 630 442 612L457 632Z" />
<glyph unicode="&#xd3;" glyph-name="Oacute" horiz-adv-x="704" d="M355 610Q226 610 136 528Q41 441 41 303Q41 144 154 56Q239 -10 352 -10Q480 -10 569 73Q663 161 663 299Q663 463 547 549Q465 610 355 610ZM355 19Q231 19 196 150Q180 211 180 299Q180 566
333 580Q343 581 352 581Q486 581 515 418Q524 368 524 303Q524 57 400 24Q379 19 355 19ZM453 692Q471 707 472 729Q472 761 443 778Q431 785 419 785Q404 785 389 773Q377 764 338 712Q302 666 265 632L280 612Q307 627 402 666Q439 681 453 692Z" />
<glyph unicode="&#xd4;" glyph-name="Ocircumflex" horiz-adv-x="704" d="M355 610Q226 610 136 528Q41 441 41 303Q41 144 154 56Q239 -10 352 -10Q480 -10 569 73Q663 161 663 299Q663 463 547 549Q465 610 355 610ZM355 19Q231 19 196 150Q180 211 180 299Q180
566 333 580Q343 581 352 581Q486 581 515 418Q524 368 524 303Q524 57 400 24Q379 19 355 19ZM480 630L493 648Q472 669 415 739Q378 775 355 778Q328 778 300 744Q294 737 280 720Q245 675 219 647L232 630Q288 663 357 692Q416 667 480 630Z" />
<glyph unicode="&#xd5;" glyph-name="Otilde" horiz-adv-x="704" d="M355 610Q226 610 136 528Q41 441 41 303Q41 144 154 56Q239 -10 352 -10Q480 -10 569 73Q663 161 663 299Q663 463 547 549Q465 610 355 610ZM355 19Q231 19 196 150Q180 211 180 299Q180 566
333 580Q343 581 352 581Q486 581 515 418Q524 368 524 303Q524 57 400 24Q379 19 355 19ZM300 776Q330 776 379 743Q419 715 441 715Q482 717 496 771L517 767Q504 667 446 648Q435 644 423 644Q393 644 344 677Q304 705 284 705Q244 705 229 659Q228 654 227
650L207 653Q219 755 278 773Q289 776 300 776Z" />
<glyph unicode="&#xd6;" glyph-name="Odieresis" horiz-adv-x="704" d="M355 610Q226 610 136 528Q41 441 41 303Q41 144 154 56Q239 -10 352 -10Q480 -10 569 73Q663 161 663 299Q663 463 547 549Q465 610 355 610ZM355 19Q231 19 196 150Q180 211 180 299Q180
566 333 580Q343 581 352 581Q486 581 515 418Q524 368 524 303Q524 57 400 24Q379 19 355 19ZM325 699Q325 736 292 754Q278 761 264 761Q225 761 207 726Q201 713 201 699Q201 660 236 644Q250 638 264 638Q301 638 318 671Q325 684 325 699ZM511 699Q511 737
477 754Q463 761 448 761Q412 761 394 728Q387 714 387 699Q387 660 422 644Q435 638 448 638Q489 638 505 673Q511 686 511 699Z" />
<glyph unicode="&#xd7;" glyph-name="multiply" horiz-adv-x="403" d="M328 76L358 106L229 235L358 363L329 392L201 264L72 392L42 362L171 234L43 106L71 77L199 205L328 76Z" />
<glyph unicode="&#xd8;" glyph-name="Oslash" horiz-adv-x="704" d="M355 610Q226 610 136 528Q41 441 41 303Q41 144 155 55Q178 37 204 24L133 -155H210L271 0Q309 -10 352 -10Q480 -10 569 73Q663 161 663 299Q663 463 547 549Q524 566 499 578L551 710H474L431
602Q392 610 355 610ZM180 299Q180 566 333 580Q343 581 352 581Q390 581 418 569L226 81Q180 150 180 299ZM355 19Q314 19 284 32L477 521Q524 451 524 303Q524 57 400 24Q379 19 355 19Z" />
<glyph unicode="&#xd9;" glyph-name="Ugrave" horiz-adv-x="642" d="M10 573H90V222Q92 -9 337 -10Q501 -10 542 117Q557 166 557 234V573H637V600H441V573H521V228Q520 20 358 19Q245 19 220 138Q212 177 212 229V573H292V600H10V573ZM445 632Q407 667 353 737Q334
763 321 773Q306 785 291 785Q260 785 244 754Q238 741 238 729Q239 706 257 692Q271 681 349 650Q398 630 430 612L445 632Z" />
<glyph unicode="&#xda;" glyph-name="Uacute" horiz-adv-x="642" d="M10 573H90V222Q92 -9 337 -10Q501 -10 542 117Q557 166 557 234V573H637V600H441V573H521V228Q520 20 358 19Q245 19 220 138Q212 177 212 229V573H292V600H10V573ZM441 692Q459 707 460 729Q460
761 431 778Q419 785 407 785Q392 785 377 773Q365 764 326 712Q290 666 253 632L268 612Q295 627 390 666Q427 681 441 692Z" />
<glyph unicode="&#xdb;" glyph-name="Ucircumflex" horiz-adv-x="642" d="M10 573H90V222Q92 -9 337 -10Q501 -10 542 117Q557 166 557 234V573H637V600H441V573H521V228Q520 20 358 19Q245 19 220 138Q212 177 212 229V573H292V600H10V573ZM468 630L481 648Q460
669 403 739Q366 775 343 778Q316 778 288 744Q282 737 268 720Q233 675 207 647L220 630Q276 663 345 692Q404 667 468 630Z" />
<glyph unicode="&#xdc;" glyph-name="Udieresis" horiz-adv-x="642" d="M10 573H90V222Q92 -9 337 -10Q501 -10 542 117Q557 166 557 234V573H637V600H441V573H521V228Q520 20 358 19Q245 19 220 138Q212 177 212 229V573H292V600H10V573ZM313 699Q313 736 280
754Q266 761 252 761Q213 761 195 726Q189 713 189 699Q189 660 224 644Q238 638 252 638Q289 638 306 671Q313 684 313 699ZM499 699Q499 737 465 754Q451 761 436 761Q400 761 382 728Q375 714 375 699Q375 660 410 644Q423 638 436 638Q477 638 493 673Q499
686 499 699Z" />
<glyph unicode="&#xdd;" glyph-name="Yacute" horiz-adv-x="571" d="M436 0Q430 25 409 27H352V257L493 545Q512 572 544 573Q569 579 571 600H394V573H474L334 291L183 573H259V600H-3V573H47L230 249V27H146V0H436ZM407 692Q425 707 426 729Q426 761 397 778Q385
785 373 785Q358 785 343 773Q331 764 292 712Q256 666 219 632L234 612Q261 627 356 666Q393 681 407 692Z" />
<glyph unicode="&#xde;" glyph-name="Thorn" horiz-adv-x="579" d="M295 453Q399 453 405 328Q405 321 405 315Q403 175 286 174H221V453H295ZM296 0Q296 23 284 26Q278 27 271 27H221V144H305Q474 144 522 247Q537 281 537 321Q537 417 452 458Q405 480 340 480H221V573H296V600H25V573H98V27H25V0H296Z"
/>
<glyph unicode="&#xdf;" glyph-name="germandbls" horiz-adv-x="588" d="M571 119Q571 197 494 252Q481 261 455 277Q399 312 386 334Q378 348 378 363Q378 398 421 422Q427 425 439 431Q488 456 501 480Q511 498 511 520Q511 592 430 628Q381 649 319 649Q190
649 134 563Q103 513 103 442V428H25V402H103V78Q101 26 27 26V0H213V434Q213 600 282 623Q296 627 312 627Q378 627 393 554Q397 536 397 515Q397 464 353 433Q348 430 337 422Q297 397 286 375Q277 356 277 332Q277 276 342 227Q353 219 376 204Q439 162 456
134Q471 110 471 84Q471 25 419 17Q412 16 405 16Q370 16 355 57Q353 63 350 75Q338 115 322 123Q313 127 304 127Q264 127 255 95Q253 88 253 82Q253 29 324 4Q364 -10 411 -10Q494 -10 541 41Q571 74 571 119Z" />
<glyph unicode="&#xe0;" glyph-name="agrave" horiz-adv-x="489" d="M389 -10Q460 -10 477 46Q482 66 484 94L458 95Q452 25 422 24Q399 26 399 74V284Q399 413 277 437Q252 442 224 442Q98 442 61 386Q50 370 50 352Q50 318 82 308Q91 305 100 305Q136 305 150
342Q152 347 156 359Q168 400 187 410Q200 416 216 416Q276 416 286 345Q288 329 288 310V246Q26 242 25 109Q25 23 100 -2Q124 -10 152 -10Q231 -10 275 46Q287 63 294 81Q310 -9 389 -10ZM198 32Q142 32 138 112Q138 117 138 122Q138 190 206 208Q238 217 288
218V127Q271 59 224 38Q210 32 198 32ZM345 502Q307 537 253 607Q234 633 221 643Q206 655 191 655Q160 655 144 624Q138 611 138 599Q139 576 157 562Q171 551 249 520Q298 500 330 482L345 502Z" />
<glyph unicode="&#xe1;" glyph-name="aacute" horiz-adv-x="489" d="M389 -10Q460 -10 477 46Q482 66 484 94L458 95Q452 25 422 24Q399 26 399 74V284Q399 413 277 437Q252 442 224 442Q98 442 61 386Q50 370 50 352Q50 318 82 308Q91 305 100 305Q136 305 150
342Q152 347 156 359Q168 400 187 410Q200 416 216 416Q276 416 286 345Q288 329 288 310V246Q26 242 25 109Q25 23 100 -2Q124 -10 152 -10Q231 -10 275 46Q287 63 294 81Q310 -9 389 -10ZM198 32Q142 32 138 112Q138 117 138 122Q138 190 206 208Q238 217 288
218V127Q271 59 224 38Q210 32 198 32ZM341 562Q359 577 360 599Q360 631 331 648Q319 655 307 655Q292 655 277 643Q265 634 226 582Q190 536 153 502L168 482Q195 497 290 536Q327 551 341 562Z" />
<glyph unicode="&#xe2;" glyph-name="acircumflex" horiz-adv-x="489" d="M389 -10Q460 -10 477 46Q482 66 484 94L458 95Q452 25 422 24Q399 26 399 74V284Q399 413 277 437Q252 442 224 442Q98 442 61 386Q50 370 50 352Q50 318 82 308Q91 305 100 305Q136 305
150 342Q152 347 156 359Q168 400 187 410Q200 416 216 416Q276 416 286 345Q288 329 288 310V246Q26 242 25 109Q25 23 100 -2Q124 -10 152 -10Q231 -10 275 46Q287 63 294 81Q310 -9 389 -10ZM198 32Q142 32 138 112Q138 117 138 122Q138 190 206 208Q238 217
288 218V127Q271 59 224 38Q210 32 198 32ZM369 500L382 518Q361 539 304 609Q267 645 244 648Q217 648 189 614Q183 607 169 590Q134 545 108 517L121 500Q177 533 246 562Q305 537 369 500Z" />
<glyph unicode="&#xe3;" glyph-name="atilde" horiz-adv-x="489" d="M389 -10Q460 -10 477 46Q482 66 484 94L458 95Q452 25 422 24Q399 26 399 74V284Q399 413 277 437Q252 442 224 442Q98 442 61 386Q50 370 50 352Q50 318 82 308Q91 305 100 305Q136 305 150
342Q152 347 156 359Q168 400 187 410Q200 416 216 416Q276 416 286 345Q288 329 288 310V246Q26 242 25 109Q25 23 100 -2Q124 -10 152 -10Q231 -10 275 46Q287 63 294 81Q310 -9 389 -10ZM198 32Q142 32 138 112Q138 117 138 122Q138 190 206 208Q238 217 288
218V127Q271 59 224 38Q210 32 198 32ZM188 646Q218 646 267 613Q307 585 329 585Q370 587 384 641L405 637Q392 537 334 518Q323 514 311 514Q281 514 232 547Q192 575 172 575Q132 575 117 529Q116 524 115 520L95 523Q107 625 166 643Q177 646 188 646Z" />
<glyph unicode="&#xe4;" glyph-name="adieresis" horiz-adv-x="489" d="M389 -10Q460 -10 477 46Q482 66 484 94L458 95Q452 25 422 24Q399 26 399 74V284Q399 413 277 437Q252 442 224 442Q98 442 61 386Q50 370 50 352Q50 318 82 308Q91 305 100 305Q136 305
150 342Q152 347 156 359Q168 400 187 410Q200 416 216 416Q276 416 286 345Q288 329 288 310V246Q26 242 25 109Q25 23 100 -2Q124 -10 152 -10Q231 -10 275 46Q287 63 294 81Q310 -9 389 -10ZM198 32Q142 32 138 112Q138 117 138 122Q138 190 206 208Q238 217
288 218V127Q271 59 224 38Q210 32 198 32ZM213 569Q213 606 180 624Q166 631 152 631Q113 631 95 596Q89 583 89 569Q89 530 124 514Q138 508 152 508Q189 508 206 541Q213 554 213 569ZM399 569Q399 607 365 624Q351 631 336 631Q300 631 282 598Q275 584 275
569Q275 530 310 514Q323 508 336 508Q377 508 393 543Q399 556 399 569Z" />
<glyph unicode="&#xe5;" glyph-name="aring" horiz-adv-x="489" d="M389 -10Q460 -10 477 46Q482 66 484 94L458 95Q452 25 422 24Q399 26 399 74V284Q399 413 277 437Q252 442 224 442Q98 442 61 386Q50 370 50 352Q50 318 82 308Q91 305 100 305Q136 305 150
342Q152 347 156 359Q168 400 187 410Q200 416 216 416Q276 416 286 345Q288 329 288 310V246Q26 242 25 109Q25 23 100 -2Q124 -10 152 -10Q231 -10 275 46Q287 63 294 81Q310 -9 389 -10ZM198 32Q142 32 138 112Q138 117 138 122Q138 190 206 208Q238 217 288
218V127Q271 59 224 38Q210 32 198 32ZM197 574Q198 643 240 644Q284 643 284 576Q283 507 240 506Q197 507 197 574ZM243 668Q158 668 134 611Q127 594 127 576Q127 514 184 492Q208 482 238 482Q320 482 346 539Q354 557 354 577Q354 636 298 659Q273 668 243
668Z" />
<glyph unicode="&#xe6;" glyph-name="ae" horiz-adv-x="717" d="M494 417Q571 414 572 310Q572 262 538 251Q517 245 476 246L398 249Q403 416 494 417ZM679 104L654 109Q625 46 563 26Q541 19 520 19Q404 19 398 215Q398 218 398 221L499 219Q646 216 677 259Q688
276 688 299Q688 378 609 418Q560 442 498 442Q415 441 360 391Q313 442 223 442Q91 442 55 384Q46 369 46 352Q46 318 78 308Q87 305 96 305Q131 305 146 342Q147 348 151 358Q164 399 183 410Q197 417 215 417Q289 415 290 310V246Q33 243 22 122Q21 115 21 109Q21
23 97 -2Q121 -10 149 -10Q233 -10 282 52Q300 76 309 104Q353 -9 499 -10Q616 -10 665 75Q674 89 679 104ZM197 32Q135 34 134 122Q134 191 207 210Q240 218 290 219V127Q273 60 224 38Q210 32 197 32Z" />
<glyph unicode="&#xe7;" glyph-name="ccedilla" horiz-adv-x="448" d="M33 213Q33 75 138 18Q169 2 204 -5L164 -85L178 -95Q204 -77 227 -77Q264 -77 271 -119Q272 -127 272 -134Q272 -190 233 -199Q227 -200 222 -200Q185 -199 155 -161L139 -175Q178 -226 249
-228Q327 -228 359 -178Q372 -158 372 -135Q372 -84 320 -61Q293 -50 260 -50Q231 -50 206 -61L229 -9Q239 -10 258 -10Q362 -10 417 56Q434 76 443 100L417 107Q386 41 313 24Q294 19 273 19Q155 21 154 213Q154 396 235 415Q247 417 258 417Q305 417 316 376Q318
367 320 349Q327 305 344 293Q357 285 377 284Q422 284 433 319Q435 327 435 334Q435 379 380 412Q329 442 258 442Q146 442 83 364Q33 303 33 213Z" />
<glyph unicode="&#xe8;" glyph-name="egrave" horiz-adv-x="472" d="M252 416Q314 416 326 343Q329 327 329 310Q329 263 295 251Q273 245 231 246L154 249Q158 391 229 413Q241 416 252 416ZM435 101L411 109Q382 46 319 26Q298 19 276 19Q159 19 154 218Q154
219 154 220L255 218Q405 215 435 261Q445 277 445 299Q445 378 365 418Q315 442 252 442Q137 442 76 359Q33 300 33 216Q33 79 134 20Q188 -10 255 -10Q369 -10 420 71Q429 86 435 101ZM339 502Q301 537 247 607Q228 633 215 643Q200 655 185 655Q154 655 138
624Q132 611 132 599Q133 576 151 562Q165 551 243 520Q292 500 324 482L339 502Z" />
<glyph unicode="&#xe9;" glyph-name="eacute" horiz-adv-x="472" d="M252 416Q314 416 326 343Q329 327 329 310Q329 263 295 251Q273 245 231 246L154 249Q158 391 229 413Q241 416 252 416ZM435 101L411 109Q382 46 319 26Q298 19 276 19Q159 19 154 218Q154
219 154 220L255 218Q405 215 435 261Q445 277 445 299Q445 378 365 418Q315 442 252 442Q137 442 76 359Q33 300 33 216Q33 79 134 20Q188 -10 255 -10Q369 -10 420 71Q429 86 435 101ZM335 562Q353 577 354 599Q354 631 325 648Q313 655 301 655Q286 655 271
643Q259 634 220 582Q184 536 147 502L162 482Q189 497 284 536Q321 551 335 562Z" />
<glyph unicode="&#xea;" glyph-name="ecircumflex" horiz-adv-x="472" d="M252 416Q314 416 326 343Q329 327 329 310Q329 263 295 251Q273 245 231 246L154 249Q158 391 229 413Q241 416 252 416ZM435 101L411 109Q382 46 319 26Q298 19 276 19Q159 19 154 218Q154
219 154 220L255 218Q405 215 435 261Q445 277 445 299Q445 378 365 418Q315 442 252 442Q137 442 76 359Q33 300 33 216Q33 79 134 20Q188 -10 255 -10Q369 -10 420 71Q429 86 435 101ZM363 500L376 518Q355 539 298 609Q261 645 238 648Q211 648 183 614Q177
607 163 590Q128 545 102 517L115 500Q171 533 240 562Q299 537 363 500Z" />
<glyph unicode="&#xeb;" glyph-name="edieresis" horiz-adv-x="472" d="M252 416Q314 416 326 343Q329 327 329 310Q329 263 295 251Q273 245 231 246L154 249Q158 391 229 413Q241 416 252 416ZM435 101L411 109Q382 46 319 26Q298 19 276 19Q159 19 154 218Q154
219 154 220L255 218Q405 215 435 261Q445 277 445 299Q445 378 365 418Q315 442 252 442Q137 442 76 359Q33 300 33 216Q33 79 134 20Q188 -10 255 -10Q369 -10 420 71Q429 86 435 101ZM207 569Q207 606 174 624Q160 631 146 631Q107 631 89 596Q83 583 83 569Q83
530 118 514Q132 508 146 508Q183 508 200 541Q207 554 207 569ZM393 569Q393 607 359 624Q345 631 330 631Q294 631 276 598Q269 584 269 569Q269 530 304 514Q317 508 330 508Q371 508 387 543Q393 556 393 569Z" />
<glyph unicode="&#xec;" glyph-name="igrave" horiz-adv-x="284" d="M242 26H202V428H23V402H87V78Q87 32 42 27Q33 26 23 26V0H266Q266 23 253 25Q248 26 242 26ZM243 502Q205 537 151 607Q132 633 119 643Q104 655 89 655Q58 655 42 624Q36 611 36 599Q37 576
55 562Q69 551 147 520Q196 500 228 482L243 502Z" />
<glyph unicode="&#xed;" glyph-name="iacute" horiz-adv-x="284" d="M242 26H202V428H23V402H87V78Q87 32 42 27Q33 26 23 26V0H266Q266 23 253 25Q248 26 242 26ZM239 562Q257 577 258 599Q258 631 229 648Q217 655 205 655Q190 655 175 643Q163 634 124 582Q88
536 51 502L66 482Q93 497 188 536Q225 551 239 562Z" />
<glyph unicode="&#xee;" glyph-name="icircumflex" horiz-adv-x="284" d="M242 26H202V428H23V402H87V78Q87 32 42 27Q33 26 23 26V0H266Q266 23 253 25Q248 26 242 26ZM267 500L280 518Q259 539 202 609Q165 645 142 648Q115 648 87 614Q81 607 67 590Q32 545
6 517L19 500Q75 533 144 562Q203 537 267 500Z" />
<glyph unicode="&#xef;" glyph-name="idieresis" horiz-adv-x="284" d="M118 568Q118 606 84 622Q72 628 59 628Q20 628 4 593Q-1 581 -1 568Q-1 531 32 515Q45 509 59 509Q95 509 112 542Q118 555 118 568ZM286 568Q286 605 252 622Q239 628 225 628Q188 628
172 595Q166 582 166 568Q166 531 199 515Q212 509 225 509Q262 509 279 541Q286 554 286 568ZM242 26H202V428H23V402H87V78Q87 32 42 27Q33 26 23 26V0H266Q266 23 253 25Q248 26 242 26Z" />
<glyph unicode="&#xf0;" glyph-name="eth" horiz-adv-x="574" d="M485 245Q485 386 402 499Q369 545 325 578L411 627L396 653L296 597Q217 645 116 650L113 623Q197 616 253 573L130 504L146 476L277 550Q327 494 349 384Q308 404 256 404Q156 404 90 339Q33
282 33 201Q33 96 114 35Q175 -11 256 -11Q393 -11 452 101Q485 164 485 245ZM154 197Q154 344 218 371Q236 379 260 379Q339 379 358 290Q366 254 366 201Q366 28 275 15Q267 14 259 14Q182 14 163 98Q154 137 154 197Z" />
<glyph unicode="&#xf1;" glyph-name="ntilde" horiz-adv-x="564" d="M228 26H197L198 273Q205 353 258 383Q277 393 296 393Q352 393 367 334Q372 316 372 294V80Q372 38 349 30Q338 26 317 26V0H546Q546 22 533 25Q527 26 521 26H482V279Q482 397 400 431Q374
442 344 442Q272 442 222 385Q206 366 196 345L191 428H23V403H87V80Q87 36 54 29Q41 26 23 26V0H253Q253 22 240 25Q234 26 228 26ZM225 646Q255 646 304 613Q344 585 366 585Q407 587 421 641L442 637Q429 537 371 518Q360 514 348 514Q318 514 269 547Q229 575
209 575Q169 575 154 529Q153 524 152 520L132 523Q144 625 203 643Q214 646 225 646Z" />
<glyph unicode="&#xf2;" glyph-name="ograve" horiz-adv-x="518" d="M154 216Q154 368 208 403Q230 416 259 416Q335 416 355 330Q365 288 365 220Q365 59 304 26Q284 16 259 16Q184 16 164 102Q154 145 154 216ZM263 442Q149 442 83 364Q33 304 33 220Q33 104
115 38Q175 -10 256 -10Q367 -10 433 70Q485 133 485 220Q485 337 401 399Q343 442 263 442ZM368 502Q330 537 276 607Q257 633 244 643Q229 655 214 655Q183 655 167 624Q161 611 161 599Q162 576 180 562Q194 551 272 520Q321 500 353 482L368 502Z" />
<glyph unicode="&#xf3;" glyph-name="oacute" horiz-adv-x="518" d="M154 216Q154 368 208 403Q230 416 259 416Q335 416 355 330Q365 288 365 220Q365 59 304 26Q284 16 259 16Q184 16 164 102Q154 145 154 216ZM263 442Q149 442 83 364Q33 304 33 220Q33 104
115 38Q175 -10 256 -10Q367 -10 433 70Q485 133 485 220Q485 337 401 399Q343 442 263 442ZM364 562Q382 577 383 599Q383 631 354 648Q342 655 330 655Q315 655 300 643Q288 634 249 582Q213 536 176 502L191 482Q218 497 313 536Q350 551 364 562Z" />
<glyph unicode="&#xf4;" glyph-name="ocircumflex" horiz-adv-x="518" d="M154 216Q154 368 208 403Q230 416 259 416Q335 416 355 330Q365 288 365 220Q365 59 304 26Q284 16 259 16Q184 16 164 102Q154 145 154 216ZM263 442Q149 442 83 364Q33 304 33 220Q33
104 115 38Q175 -10 256 -10Q367 -10 433 70Q485 133 485 220Q485 337 401 399Q343 442 263 442ZM392 500L405 518Q384 539 327 609Q290 645 267 648Q240 648 212 614Q206 607 192 590Q157 545 131 517L144 500Q200 533 269 562Q328 537 392 500Z" />
<glyph unicode="&#xf5;" glyph-name="otilde" horiz-adv-x="518" d="M154 216Q154 368 208 403Q230 416 259 416Q335 416 355 330Q365 288 365 220Q365 59 304 26Q284 16 259 16Q184 16 164 102Q154 145 154 216ZM263 442Q149 442 83 364Q33 304 33 220Q33 104
115 38Q175 -10 256 -10Q367 -10 433 70Q485 133 485 220Q485 337 401 399Q343 442 263 442ZM211 646Q241 646 290 613Q330 585 352 585Q393 587 407 641L428 637Q415 537 357 518Q346 514 334 514Q304 514 255 547Q215 575 195 575Q155 575 140 529Q139 524 138
520L118 523Q130 625 189 643Q200 646 211 646Z" />
<glyph unicode="&#xf6;" glyph-name="odieresis" horiz-adv-x="518" d="M154 216Q154 368 208 403Q230 416 259 416Q335 416 355 330Q365 288 365 220Q365 59 304 26Q284 16 259 16Q184 16 164 102Q154 145 154 216ZM263 442Q149 442 83 364Q33 304 33 220Q33
104 115 38Q175 -10 256 -10Q367 -10 433 70Q485 133 485 220Q485 337 401 399Q343 442 263 442ZM236 569Q236 606 203 624Q189 631 175 631Q136 631 118 596Q112 583 112 569Q112 530 147 514Q161 508 175 508Q212 508 229 541Q236 554 236 569ZM422 569Q422 607
388 624Q374 631 359 631Q323 631 305 598Q298 584 298 569Q298 530 333 514Q346 508 359 508Q400 508 416 543Q422 556 422 569Z" />
<glyph unicode="&#xf7;" glyph-name="divide" horiz-adv-x="455" d="M420 214V254H35V214H420ZM207 122Q233 135 253 117Q261 110 264 100Q277 78 262 57Q254 47 242 43Q216 29 195 48Q188 55 184 65Q177 79 178 93Q185 114 207 122ZM207 421Q233 434 253 416Q261
409 264 399Q277 377 262 356Q254 346 242 342Q216 328 195 347Q188 354 184 364Q177 378 178 392Q185 413 207 421Z" />
<glyph unicode="&#xf8;" glyph-name="oslash" horiz-adv-x="518" d="M32 -12L98 53Q162 -10 256 -10Q367 -10 433 70Q485 133 485 220Q484 316 426 377L490 441L466 463L401 399Q343 442 263 442Q149 442 83 364Q33 304 33 220Q34 138 76 79L8 11L32 -12ZM154
216Q154 368 208 403Q230 416 259 416Q326 415 350 349L156 157Q154 193 154 216ZM259 16Q186 16 165 99Q163 108 161 116L359 311Q365 271 365 220Q365 59 304 26Q284 16 259 16Z" />
<glyph unicode="&#xf9;" glyph-name="ugrave" horiz-adv-x="564" d="M517 26H478V428H308V403H368L367 162Q362 82 309 50Q289 39 269 39Q203 39 193 114Q191 127 191 140V428H17V403H81V156Q82 -9 224 -10Q305 -10 353 58Q363 73 370 88L375 0H541Q541 23 528
25Q523 26 517 26ZM384 502Q346 537 292 607Q273 633 260 643Q245 655 230 655Q199 655 183 624Q177 611 177 599Q178 576 196 562Q210 551 288 520Q337 500 369 482L384 502Z" />
<glyph unicode="&#xfa;" glyph-name="uacute" horiz-adv-x="564" d="M517 26H478V428H308V403H368L367 162Q362 82 309 50Q289 39 269 39Q203 39 193 114Q191 127 191 140V428H17V403H81V156Q82 -9 224 -10Q305 -10 353 58Q363 73 370 88L375 0H541Q541 23 528
25Q523 26 517 26ZM380 562Q398 577 399 599Q399 631 370 648Q358 655 346 655Q331 655 316 643Q304 634 265 582Q229 536 192 502L207 482Q234 497 329 536Q366 551 380 562Z" />
<glyph unicode="&#xfb;" glyph-name="ucircumflex" horiz-adv-x="564" d="M517 26H478V428H308V403H368L367 162Q362 82 309 50Q289 39 269 39Q203 39 193 114Q191 127 191 140V428H17V403H81V156Q82 -9 224 -10Q305 -10 353 58Q363 73 370 88L375 0H541Q541 23
528 25Q523 26 517 26ZM408 500L421 518Q400 539 343 609Q306 645 283 648Q256 648 228 614Q222 607 208 590Q173 545 147 517L160 500Q216 533 285 562Q344 537 408 500Z" />
<glyph unicode="&#xfc;" glyph-name="udieresis" horiz-adv-x="564" d="M517 26H478V428H308V403H368L367 162Q362 82 309 50Q289 39 269 39Q203 39 193 114Q191 127 191 140V428H17V403H81V156Q82 -9 224 -10Q305 -10 353 58Q363 73 370 88L375 0H541Q541 23
528 25Q523 26 517 26ZM252 569Q252 606 219 624Q205 631 191 631Q152 631 134 596Q128 583 128 569Q128 530 163 514Q177 508 191 508Q228 508 245 541Q252 554 252 569ZM438 569Q438 607 404 624Q390 631 375 631Q339 631 321 598Q314 584 314 569Q314 530 349
514Q362 508 375 508Q416 508 432 543Q438 556 438 569Z" />
<glyph unicode="&#xfd;" glyph-name="yacute" horiz-adv-x="488" d="M121 -160Q104 -160 94 -134Q81 -100 70 -92Q59 -84 43 -84Q9 -84 0 -113Q-2 -120 -2 -126Q-2 -161 40 -181Q66 -193 97 -193Q179 -193 236 -96Q258 -60 278 -9L427 372Q438 399 452 402Q456
403 461 403Q482 403 485 416Q486 421 486 428H332V403H407L291 111L166 403H229V428H6V403H51L241 -14Q190 -138 143 -156Q132 -160 121 -160ZM368 562Q386 577 387 599Q387 631 358 648Q346 655 334 655Q319 655 304 643Q292 634 253 582Q217 536 180 502L195
482Q222 497 317 536Q354 551 368 562Z" />
<glyph unicode="&#xfe;" glyph-name="thorn" horiz-adv-x="559" d="M197 -164V38Q239 -9 319 -10Q415 -10 475 64Q527 129 527 227Q527 350 455 408Q413 442 357 442Q275 442 225 381Q206 357 196 328V650H23V624H87V-112Q87 -154 54 -161Q42 -164 24 -164V-190H280Q280
-167 267 -165Q261 -164 255 -164H197ZM311 396Q406 394 407 214Q407 43 326 19Q315 16 302 16Q241 16 213 87Q196 132 196 195Q196 322 254 374Q280 396 311 396Z" />
<glyph unicode="&#xff;" glyph-name="ydieresis" horiz-adv-x="488" d="M121 -160Q104 -160 94 -134Q81 -100 70 -92Q59 -84 43 -84Q9 -84 0 -113Q-2 -120 -2 -126Q-2 -161 40 -181Q66 -193 97 -193Q179 -193 236 -96Q258 -60 278 -9L427 372Q438 399 452 402Q456
403 461 403Q482 403 485 416Q486 421 486 428H332V403H407L291 111L166 403H229V428H6V403H51L241 -14Q190 -138 143 -156Q132 -160 121 -160ZM219 570Q219 607 186 625Q172 632 158 632Q119 632 101 597Q95 584 95 570Q95 531 130 515Q144 509 158 509Q195 509
212 542Q219 555 219 570ZM405 570Q405 608 371 625Q357 632 342 632Q306 632 288 599Q281 585 281 570Q281 531 316 515Q329 509 342 509Q383 509 399 544Q405 557 405 570Z" />
<glyph unicode="&#x2013;" glyph-name="endash" horiz-adv-x="632" d="M66 197H566V240H66V197Z" />
<glyph unicode="&#x2014;" glyph-name="emdash" horiz-adv-x="832" d="M66 197H766V240H66V197Z" />
<glyph unicode="&#x2018;" glyph-name="quoteleft" horiz-adv-x="189" d="M156 491Q156 532 118 549Q110 552 104 553Q80 560 79 575Q80 605 120 647L99 663Q37 598 27 524Q26 514 26 505Q26 447 69 431Q80 427 94 427Q132 427 149 462Q156 476 156 491Z" />
<glyph unicode="&#x2019;" glyph-name="quoteright" horiz-adv-x="224" d="M163 579Q163 637 120 653Q108 657 95 657Q58 657 41 622Q34 608 34 593Q34 551 73 535Q79 532 85 531Q109 524 110 508Q110 479 72 438Q71 437 70 436L91 421Q152 485 162 560Q163 570 163 579Z" />
<glyph unicode="&#x201a;" glyph-name="quotesinglbase" horiz-adv-x="171" d="M149 51Q149 105 107 121Q96 125 84 125Q46 125 30 92Q24 79 24 64Q24 23 62 8Q69 6 74 5Q97 -3 98 -17Q97 -40 68 -76L89 -90Q147 -19 149 51Z" />
<glyph unicode="&#x201c;" glyph-name="quotedblleft" horiz-adv-x="324" d="M25 505Q25 446 70 433Q80 430 90 430Q128 430 144 466Q149 479 149 492Q149 532 111 548Q105 550 100 551Q77 558 76 573Q76 601 112 639Q114 641 115 642L94 657Q35 595 26 523Q25
513 25 505ZM175 505Q175 448 218 434Q229 430 241 430Q278 430 294 464Q300 478 300 492Q300 532 262 548Q256 550 251 551Q227 558 226 573Q226 600 263 639Q265 641 266 642L245 657Q185 595 176 523Q175 514 175 505Z" />
<glyph unicode="&#x201d;" glyph-name="quotedblright" horiz-adv-x="326" d="M300 567Q300 626 255 639Q245 642 235 642Q197 642 181 606Q176 593 176 580Q176 540 214 524Q220 522 225 521Q248 514 249 499Q249 471 213 433Q211 431 210 430L231 415Q290 477
299 549Q300 559 300 567ZM150 567Q150 624 107 638Q96 642 84 642Q47 642 31 608Q25 594 25 580Q25 540 63 524Q69 522 74 521Q98 514 99 499Q99 472 62 433Q60 431 59 430L80 415Q140 477 149 549Q150 558 150 567Z" />
<glyph unicode="&#x201e;" glyph-name="quotedblbase" horiz-adv-x="325" d="M300 50Q300 109 255 122Q245 125 235 125Q197 125 181 89Q176 76 176 63Q176 23 214 7Q220 5 225 4Q248 -3 249 -18Q249 -46 213 -84Q211 -86 210 -87L231 -102Q290 -40 299 32Q300
41 300 50ZM150 50Q150 107 107 121Q96 125 84 125Q47 125 31 91Q25 77 25 63Q25 23 63 7Q69 5 74 4Q98 -3 99 -18Q99 -45 62 -84Q60 -86 59 -87L80 -102Q140 -40 149 32Q150 41 150 50Z" />
<glyph unicode="&#x2022;" glyph-name="bullet" horiz-adv-x="352" d="M282 227Q282 285 234 317Q207 334 176 334Q118 334 87 286Q70 259 70 227Q70 169 119 139Q145 123 176 123Q234 123 265 170Q282 197 282 227Z" />
<glyph unicode="&#x2039;" glyph-name="guilsinglleft" horiz-adv-x="248" d="M229 378L208 395Q179 362 79 280Q44 250 33 238Q18 221 18 204Q19 186 33 170Q41 161 125 91Q181 45 209 15L229 32Q162 144 126 205Q147 239 192 316Q217 358 229 378Z" />
<glyph unicode="&#x203a;" glyph-name="guilsinglright" horiz-adv-x="248" d="M19 378L40 395Q69 362 169 280Q204 250 215 238Q230 221 230 204Q229 186 215 170Q207 161 123 91Q67 45 39 15L19 32Q86 144 122 205Q101 239 56 316Q31 358 19 378Z" />
</font>
</defs>
</svg>
