<?xml version="1.0" standalone="no"?>
<!DOCTYPE svg PUBLIC "-//W3C//DTD SVG 1.1//EN" "http://www.w3.org/Graphics/SVG/1.1/DTD/svg11.dtd">
<svg xmlns="http://www.w3.org/2000/svg">
<defs >
<font id="AlegreyaSans" horiz-adv-x="515" ><font-face
    font-family="Alegreya Sans"
    units-per-em="1000"
    panose-1="0 0 8 0 0 0 0 0 0 0"
    ascent="900"
    descent="-300"
    alphabetic="0" />
<glyph unicode=" " glyph-name="space" horiz-adv-x="133" />
<glyph unicode="!" glyph-name="exclam" horiz-adv-x="272" d="M268 650L182 236L108 226L96 239L138 644L152 659L255 665L268 650ZM154 132T171 115T188 66Q188 32 169 13T118 -7Q86 -7 69 10T52 60Q52 93 71 112T123 132Q154 132 171 115Z" />
<glyph unicode="&quot;" glyph-name="quotedbl" horiz-adv-x="349" d="M212 633L150 416L88 406L79 415L104 635L205 642L212 633ZM359 633L297 416L235 406L226 415L251 635L352 642L359 633Z" />
<glyph unicode="#" glyph-name="numbersign" horiz-adv-x="547" d="M415 357L395 252H485L493 243L487 177H380L351 32H277L270 41L297 177H195L167 32H92L86 41L113 177H28L20 185L26 252H127L148 357H61L53 365L59 432H162L190 573H263L271 563L245 432H346L374
573H447L456 563L430 432H518L526 423L520 357H415ZM332 357H231L210 252H311L332 357Z" />
<glyph unicode="$" glyph-name="dollar" horiz-adv-x="446" d="M187 348T205 335T261 305Q299 288 324 273T367 231T385 165Q385 109 347 62T238 -1L222 -134H157L149 -124L162 -8Q127 -7 88 0T15 23L43 138L57 146Q86 116 124 99T194 81Q223 81 242 97T262 135Q262
155 244 168T187 199Q148 217 124 232T81 274T63 340Q63 402 107 449T226 508L241 643H304L315 632L300 511Q358 506 407 486L377 377L358 372Q331 395 303 407T250 419Q221 419 204 404T187 368Q187 348 205 335Z" />
<glyph unicode="%" glyph-name="percent" horiz-adv-x="859" d="M719 653L724 635L167 -92L116 -59L112 -45L670 685L719 653ZM310 649T343 613T376 508Q376 404 327 346T188 287Q125 287 92 324T58 429Q58 532 107 590T247 649Q310 649 343 613ZM140 566T140
443Q140 365 203 365Q251 365 272 397T294 488Q294 566 229 566Q140 566 140 443ZM756 357T789 321T822 215Q822 111 773 53T634 -6Q571 -6 538 30T504 136Q504 240 553 298T693 357Q756 357 789 321ZM585 273T585 150Q585 72 648 72Q697 72 718 104T740 196Q740
273 674 273Q585 273 585 150Z" />
<glyph unicode="&amp;" glyph-name="ampersand" horiz-adv-x="644" d="M381 654T418 647T502 622L471 524L455 519Q381 564 320 564Q271 564 244 540T216 470Q216 423 239 398T305 371L548 385L661 400L673 386L652 302L505 296L502 291Q525 253 525 200Q525 144
497 97T410 20T267 -10Q164 -10 106 34T47 154Q47 208 82 251T186 324V328Q109 377 109 469Q109 553 171 603T342 654Q381 654 418 647ZM256 286Q165 241 165 167Q165 123 196 98T282 73Q351 73 387 108T423 203Q423 231 414 254T387 292L256 286Z" />
<glyph unicode="&apos;" glyph-name="quotesingle" horiz-adv-x="202" d="M212 633L150 416L88 406L79 415L104 635L205 642L212 633Z" />
<glyph unicode="(" glyph-name="parenleft" horiz-adv-x="296" d="M331 621L330 610Q237 537 200 406T163 148Q163 66 181 10T244 -89L243 -100L191 -139H179Q115 -87 87 -19T59 152Q59 300 108 440T278 661H290L331 621Z" />
<glyph unicode=")" glyph-name="parenright" horiz-adv-x="302" d="M-35 -100L-34 -89Q59 -16 96 115T133 373Q133 455 115 511T52 610L53 621L105 660H117Q181 608 209 540T237 369Q237 221 188 81T18 -140H6L-35 -100Z" />
<glyph unicode="*" glyph-name="asterisk" horiz-adv-x="383" d="M288 733L259 610L218 606L210 613L207 729Q242 741 283 741L288 733ZM197 600L191 558L181 554L75 586Q75 629 86 663L95 666L197 600ZM402 606T413 571L408 564L288 554L270 591L274 601L378
640Q402 606 413 571ZM283 535L351 444Q335 419 297 388L288 390L243 509L273 536L283 535ZM224 516L225 506L165 410Q135 419 94 444L95 453L187 535L224 516Z" />
<glyph unicode="+" glyph-name="plus" horiz-adv-x="477" d="M312 468L291 305H454L462 296L446 217H281L261 51L181 44L172 53L192 217H29L22 226L38 305H203L223 471L303 477L312 468Z" />
<glyph unicode="," glyph-name="comma" horiz-adv-x="229" d="M164 94T164 45Q164 1 135 -41T45 -126L3 -89L2 -79Q57 -34 57 18Q57 52 26 77V89Q73 117 120 129Q164 94 164 45Z" />
<glyph unicode="-" glyph-name="hyphen" horiz-adv-x="304" d="M285 308L276 227L33 191L24 201L34 282L276 317L285 308Z" />
<glyph unicode="." glyph-name="period" horiz-adv-x="230" d="M128 132T145 115T162 66Q162 32 143 13T92 -7Q60 -7 43 10T26 60Q26 93 45 112T97 132Q128 132 145 115Z" />
<glyph unicode="/" glyph-name="slash" horiz-adv-x="284" d="M332 668L70 -115H-19L-26 -104L235 680H322L332 668Z" />
<glyph unicode="0" glyph-name="zero" horiz-adv-x="525" d="M391 513T441 458T491 291Q491 203 461 135T372 29T233 -9Q139 -9 89 46T39 212Q39 299 70 367T159 474T298 513Q391 513 441 458ZM210 393T176 350T141 229Q141 165 166 135T248 105Q317 105 352 147T388
268Q388 333 363 363T280 393Q210 393 176 350Z" />
<glyph unicode="1" glyph-name="one" horiz-adv-x="359" d="M291 497L248 208L229 0H98L128 194L148 363L31 333L22 340L35 444L274 511L291 497Z" />
<glyph unicode="2" glyph-name="two" horiz-adv-x="470" d="M331 511T373 479T416 393Q416 353 384 309T270 182L194 104L196 99H332L423 107L429 99L401 -6L282 0H55L18 -2L12 3L22 82L170 218Q230 273 256 304T283 360Q283 379 270 390T230 401Q198 401 161
385T90 340H75L67 441Q171 511 264 511Q331 511 373 479Z" />
<glyph unicode="3" glyph-name="three" horiz-adv-x="430" d="M302 512T348 478T395 387Q395 344 365 301T280 231V226Q327 209 351 180T375 104Q375 47 341 2T245 -69T107 -95Q44 -95 -5 -84L0 19L11 28Q65 5 118 5Q178 5 213 30T249 98Q249 160 164 163H95L89
171L104 260L154 262Q177 263 201 275T242 308T258 355Q258 379 242 393T197 407Q168 407 138 395T71 358H58L51 453Q140 512 226 512Q302 512 348 478Z" />
<glyph unicode="4" glyph-name="four" horiz-adv-x="501" d="M446 55L363 57L351 -80L342 -90L241 -96L235 -88L257 58H94L8 55L1 66L11 150L298 505H419L373 157H457L463 146L446 55ZM125 157H271L297 358H288L125 157Z" />
<glyph unicode="5" glyph-name="five" horiz-adv-x="431" d="M427 502L402 402L392 393L303 402H185L170 288L231 275Q379 244 379 126Q379 63 343 12T244 -68T104 -97Q51 -97 -7 -85L-3 17L7 26Q66 3 123 3Q182 3 218 31T254 105Q254 136 234 154T170 181L69
199L61 209L96 493L114 508L171 505H317L420 511L427 502Z" />
<glyph unicode="6" glyph-name="six" horiz-adv-x="483" d="M250 461T183 341L190 331Q216 346 239 353T287 361Q334 361 370 339T425 280T445 198Q445 151 422 103T350 23T226 -10Q132 -10 81 43T30 188Q30 265 66 341T179 483T370 596H377L462 538L461 525Q250
461 183 341ZM227 269T200 259T149 231Q147 205 147 191Q147 136 165 107T231 78Q282 78 304 109T326 186Q326 269 251 269Q227 269 200 259Z" />
<glyph unicode="7" glyph-name="seven" horiz-adv-x="432" d="M169 505H389L438 507L428 412L216 48L142 -100L41 -69L35 -49L300 398H135L43 388L37 400L59 509L169 505Z" />
<glyph unicode="8" glyph-name="eight" horiz-adv-x="493" d="M363 594T409 558T455 457Q455 406 427 371T349 311L348 304Q393 280 417 250T441 168Q441 116 415 76T340 14T227 -9Q137 -9 85 31T32 137Q32 192 65 226T159 287L160 293Q123 315 103 344T83 422Q83
473 108 512T178 572T284 594Q363 594 409 558ZM238 505T214 484T189 430Q189 398 209 379T270 343Q309 363 330 385T351 441Q351 472 333 488T278 505Q238 505 214 484ZM191 234T167 213T142 155Q142 118 164 98T230 78Q277 78 305 102T334 161Q334 194 311 212T238
252Q191 234 167 213Z" />
<glyph unicode="9" glyph-name="nine" horiz-adv-x="483" d="M356 515T407 462T458 317Q458 240 422 164T309 22T118 -91H111L26 -33L27 -20Q238 44 305 164L298 174Q272 159 249 152T201 144Q154 144 118 166T63 225T43 307Q43 354 66 402T138 482T262 515Q356
515 407 462ZM261 236T288 246T339 274Q341 300 341 314Q341 369 323 398T257 427Q207 427 185 396T162 319Q162 236 237 236Q261 236 288 246Z" />
<glyph unicode=":" glyph-name="colon" horiz-adv-x="230" d="M128 132T145 115T162 66Q162 32 143 13T92 -7Q60 -7 43 10T26 60Q26 93 45 112T97 132Q128 132 145 115ZM160 395T177 378T194 329Q194 295 175 276T124 256Q92 256 75 273T58 323Q58 356 77 375T129
395Q160 395 177 378Z" />
<glyph unicode=";" glyph-name="semicolon" horiz-adv-x="229" d="M417 94T417 45Q417 1 388 -41T298 -126L256 -89L255 -79Q310 -34 310 18Q310 52 279 77V89Q326 117 373 129Q417 94 417 45ZM157 395T174 378T191 329Q191 295 172 276T121 256Q89 256 72 273T55
323Q55 356 74 375T126 395Q157 395 174 378Z" />
<glyph unicode="&lt;" glyph-name="less" horiz-adv-x="496" d="M466 396L459 386L132 267V260L430 146L403 73L390 64L33 208L45 313L56 325L447 470L466 396Z" />
<glyph unicode="=" glyph-name="equal" horiz-adv-x="478" d="M473 389L466 310H49L40 319L47 398H464L473 389ZM706 458L699 379H282L273 388L280 467H697L706 458Z" />
<glyph unicode="&gt;" glyph-name="greater" horiz-adv-x="503" d="M466 325L474 313L462 208L68 64L57 73L48 146L375 260L376 267L78 386L74 396L110 470L466 325Z" />
<glyph unicode="?" glyph-name="question" horiz-adv-x="341" d="M261 661T327 623T393 519Q393 475 365 436T284 369L206 325L203 320L199 235L107 223L99 232L104 359L111 369L207 417Q273 450 273 500Q273 536 233 556T102 583L95 595L126 661L140 668Q261
661 327 623ZM174 132T191 115T208 66Q208 32 189 13T138 -7Q107 -7 90 10T72 60Q72 93 91 112T143 132Q174 132 191 115Z" />
<glyph unicode="@" glyph-name="at" horiz-adv-x="843" d="M821 163T724 83T447 -2L469 159H457Q400 59 335 -7H317Q264 13 241 52T218 153Q218 219 244 283T323 396T452 462H457L534 442L604 464L614 458L566 112L565 88Q645 101 690 159T736 307Q736 380 704
435T611 521T469 552Q364 552 284 507T159 382T115 200Q115 95 162 20T295 -96T496 -136L501 -149L465 -210Q334 -209 236 -162T83 -27T29 185Q29 313 84 415T239 575T472 633Q577 633 656 594T778 482T821 311Q821 163 724 83ZM361 108T383 133T433 209T492 328L495
348V353L432 374Q382 374 353 324T324 194Q324 148 331 128T350 108Q361 108 383 133Z" />
<glyph unicode="A" glyph-name="A" horiz-adv-x="583" d="M539 0H406L400 83L391 146L270 148L163 146L139 90L110 0H-20L271 643H428L539 0ZM376 248L336 519H327L209 249L291 247L376 248Z" />
<glyph unicode="B" glyph-name="B" horiz-adv-x="565" d="M478 314T503 282T529 199Q529 98 454 47T222 -5Q133 -5 50 0H49L80 192L129 643L345 644Q434 644 485 608T536 503Q536 446 507 402T421 334Q478 314 503 282ZM356 379T377 406T399 480Q399 517 376 533T297
549H247L222 371L312 368Q356 379 377 406ZM321 90T358 118T395 198Q395 232 376 251T316 278L208 276L198 204L187 94Q237 90 254 90Q321 90 358 118Z" />
<glyph unicode="C" glyph-name="C" horiz-adv-x="507" d="M471 651T541 613L504 501L493 497Q466 519 433 531T362 543Q271 543 224 476T177 280Q177 192 211 147T312 102Q348 102 388 113T461 146L472 139L447 26Q407 8 371 0T293 -9Q170 -9 104 60T37 259Q37
381 77 469T193 604T376 651Q471 651 541 613Z" />
<glyph unicode="D" glyph-name="D" horiz-adv-x="641" d="M495 647T561 582T628 396Q628 207 536 100T274 -7Q227 -7 161 -5T49 0L80 192L129 643L373 647Q495 647 561 582ZM392 95T440 164T489 375Q489 461 457 501T357 542Q318 542 248 538L200 204L191 103Q218
100 250 98T303 95Q392 95 440 164Z" />
<glyph unicode="E" glyph-name="E" horiz-adv-x="497" d="M248 538L226 379L333 378L435 381L442 371L420 272L310 275L211 274L201 204L191 105L302 104L456 109L461 99L441 0H48L79 192L129 643H525L531 633L509 534L360 539L248 538Z" />
<glyph unicode="F" glyph-name="F" horiz-adv-x="444" d="M248 538L223 361L309 360L417 363L423 353L402 255L287 258L209 257L201 204L181 0H48L79 192L129 643H501L507 633L485 533L338 539L248 538Z" />
<glyph unicode="G" glyph-name="G" horiz-adv-x="585" d="M505 651T587 613L543 493L531 492Q486 520 451 532T372 544Q273 544 223 477T173 257Q173 171 207 133T317 95Q336 95 354 98T400 111L409 166L420 271L542 280L529 187L512 31Q453 10 404 1T302 -9Q172
-9 104 59T35 252Q35 444 129 547T400 651Q505 651 587 613Z" />
<glyph unicode="H" glyph-name="H" horiz-adv-x="679" d="M653 643L591 204L571 0H439L470 192L478 268L336 271L209 267L200 204L181 0H48L79 192L128 643H262L225 378L358 375L490 378L518 643H653Z" />
<glyph unicode="I" glyph-name="I" horiz-adv-x="289" d="M200 204L181 0H48L79 192L128 643H262L200 204Z" />
<glyph unicode="J" glyph-name="J" horiz-adv-x="328" d="M235 212L227 120Q216 37 167 -13T6 -106L-26 -36L-25 -23Q40 9 69 41T105 123L115 200L152 546L49 544L41 553L58 643H297L235 212Z" />
<glyph unicode="K" glyph-name="K" horiz-adv-x="569" d="M352 335Q432 194 552 28L548 13Q488 -2 416 -10L403 -2Q285 197 218 330L200 204L180 0H48L79 192L128 643H262L220 345L424 582L468 643H610L352 335Z" />
<glyph unicode="L" glyph-name="L" horiz-adv-x="423" d="M405 99L384 0H46L77 192L126 643H260L199 204L190 109H399L405 99Z" />
<glyph unicode="M" glyph-name="M" horiz-adv-x="776" d="M701 0H584L599 195L607 448H598L411 68H308L228 448H218L165 207L126 0H15L159 643H310L324 548L384 239H393L536 549L575 643H725L701 0Z" />
<glyph unicode="N" glyph-name="N" horiz-adv-x="678" d="M590 198L571 0H429L229 441H220L192 221L170 0H49L79 190L129 643H271L471 202H480L531 638L654 646L590 198Z" />
<glyph unicode="O" glyph-name="O" horiz-adv-x="631" d="M488 652T553 584T619 384Q619 266 580 177T466 39T286 -10Q168 -10 103 60T37 263Q37 381 75 469T188 604T369 652Q488 652 553 584ZM263 545T219 479T174 266Q174 175 203 134T299 92Q389 92 434 159T479
373Q479 464 450 504T353 545Q263 545 219 479Z" />
<glyph unicode="P" glyph-name="P" horiz-adv-x="540" d="M449 644T499 601T550 473Q550 396 516 336T417 241T268 207H201V204L181 0H49L80 192L129 643L359 644Q449 644 499 601ZM358 317T385 356T412 452Q412 498 389 521T315 547L249 544L216 308L310 305Q358
317 385 356Z" />
<glyph unicode="Q" glyph-name="Q" horiz-adv-x="632" d="M688 -112Q658 -164 621 -196L611 -201Q426 -134 296 -10H285Q168 -10 103 60T37 263Q37 381 75 469T189 604T370 652Q489 652 554 584T619 384Q619 248 568 152T422 16Q540 -63 684 -98L688 -112ZM174
175T203 134T299 92Q389 92 434 159T479 373Q479 464 450 504T353 545Q263 545 219 479T174 266Q174 175 203 134Z" />
<glyph unicode="R" glyph-name="R" horiz-adv-x="574" d="M551 409T513 350T408 254Q462 142 531 31L528 16Q460 -6 395 -10L383 0Q334 113 295 219H202L200 204L181 0H48L79 192L129 643L361 644Q450 644 500 602T551 481Q551 409 513 350ZM217 321L312 317Q412
351 412 459Q412 542 315 547L249 544L217 321Z" />
<glyph unicode="S" glyph-name="S" horiz-adv-x="485" d="M403 652T483 619L448 505L428 497Q397 521 363 534T299 548Q258 548 232 527T206 475Q206 447 229 427T302 379Q348 353 378 332T429 277T450 198Q450 141 418 94T327 19T197 -9Q150 -9 101 1T9 33L41
155L56 163Q92 128 135 110T217 92Q262 92 288 114T315 168Q315 198 292 218T218 267Q173 292 144 313T95 367T74 446Q74 503 106 550T194 625T321 652Q403 652 483 619Z" />
<glyph unicode="T" glyph-name="T" horiz-adv-x="489" d="M525 633L505 535L388 541H350L303 204L283 0H151L183 192L221 541H182L61 535L54 545L76 643H519L525 633Z" />
<glyph unicode="U" glyph-name="U" horiz-adv-x="622" d="M568 317L557 233Q544 116 474 54T283 -9Q178 -9 118 39T58 178Q58 204 62 227L75 320L111 643H243L188 245Q185 224 185 207Q185 152 211 126T293 100Q357 100 392 134T436 238L480 643H613L568 317Z" />
<glyph unicode="V" glyph-name="V" horiz-adv-x="570" d="M330 0H173L60 643H194L200 560L265 124H273L461 553L490 643H619L330 0Z" />
<glyph unicode="W" glyph-name="W" horiz-adv-x="877" d="M638 0H500L446 312H437L305 0H164L70 643H199V565L257 137H265L414 487L389 643H524L527 552L588 137H597L775 558L801 643H924L638 0Z" />
<glyph unicode="X" glyph-name="X" horiz-adv-x="593" d="M393 330L549 0H395L374 64L291 233L156 56L121 0H-14L224 325L70 643H225L246 580L324 419L446 585L481 643H620L393 330Z" />
<glyph unicode="Y" glyph-name="Y" horiz-adv-x="543" d="M324 220L317 180L300 0H168L198 180L202 221L56 643H193L201 600L277 352H286L434 596L458 643H596L324 220Z" />
<glyph unicode="Z" glyph-name="Z" horiz-adv-x="532" d="M537 548L170 101H380L486 109L490 102L467 -3L326 0H77L1 -4L13 91L383 542H185L78 533L73 540L97 645L223 643H489L549 644L537 548Z" />
<glyph unicode="[" glyph-name="bracketleft" horiz-adv-x="295" d="M339 641L332 582L222 569L146 -48L253 -61L245 -120L239 -127L33 -117L86 261L125 638L334 648L339 641Z" />
<glyph unicode="\" glyph-name="backslash" horiz-adv-x="350" d="M35 668L46 680H133L339 -104L331 -115H242L35 668Z" />
<glyph unicode="]" glyph-name="bracketright" horiz-adv-x="295" d="M-37 -120L-30 -61L80 -48L156 569L49 582L57 641L63 648L269 638L216 260L177 -117L-32 -127L-37 -120Z" />
<glyph unicode="^" glyph-name="asciicircum" horiz-adv-x="440" d="M413 146L402 134L328 117L249 405H241L87 117L76 112L6 139L194 489L207 496H312L413 146Z" />
<glyph unicode="_" glyph-name="underscore" horiz-adv-x="445" d="M419 -98L404 -171H-56L-63 -162L-48 -89H412L419 -98Z" />
<glyph unicode="`" glyph-name="grave" horiz-adv-x="398" d="M244 645T338 570L307 521L295 520Q216 566 101 639L99 651L146 721L158 722Q244 645 338 570Z" />
<glyph unicode="a" glyph-name="a" horiz-adv-x="461" d="M428 467L379 112L375 5L252 -4L274 154H261Q208 59 143 -9H125Q70 11 46 51T22 154Q22 221 48 287T128 402T259 471H265L341 450L417 474L428 467ZM177 112T216 171T300 337L302 354V356L237 377Q189
377 162 328T134 197Q134 112 159 112Q177 112 216 171Z" />
<glyph unicode="b" glyph-name="b" horiz-adv-x="463" d="M390 451T414 411T439 308Q439 240 413 174T333 59T204 -9H198L104 10L36 22L115 591L117 695L240 704L185 307H198Q253 403 318 471H336Q390 451 414 411ZM273 84T300 135T328 265Q328 311 321 331T303
352Q285 352 246 295T162 135L160 102L226 84Q273 84 300 135Z" />
<glyph unicode="c" glyph-name="c" horiz-adv-x="355" d="M355 449L361 435L326 342L300 340Q281 362 268 370T238 378Q193 378 168 330T142 194Q142 140 152 118T187 96Q209 96 229 113T274 169L290 168L327 121Q295 67 261 38T176 -8H159Q89 3 57 43T25 170Q25
257 54 325T141 433T280 472L355 449Z" />
<glyph unicode="d" glyph-name="d" horiz-adv-x="461" d="M461 704L379 112L375 5L252 -4L274 155H263Q210 62 143 -9H124Q69 11 45 51T21 154Q21 221 48 287T129 403T261 471H266L316 457L335 591L338 695L461 704ZM176 112T215 170T299 330L302 357L238 378Q189
378 161 328T132 196Q132 151 139 132T158 112Q176 112 215 170Z" />
<glyph unicode="e" glyph-name="e" horiz-adv-x="405" d="M324 158L361 110Q295 17 192 -9H178Q99 0 62 43T25 169Q25 256 55 324T141 431T269 474L281 473Q331 465 357 438T384 366Q384 305 325 259T140 177Q142 131 156 110T199 89Q224 89 248 104T309 160L324
158ZM199 392T174 356T141 253Q210 272 242 297T275 358Q275 376 267 384T239 392Q199 392 174 356Z" />
<glyph unicode="f" glyph-name="f" horiz-adv-x="305" d="M457 679L424 594L408 589Q363 615 325 615Q294 615 274 592T247 523L238 455H339L348 445L338 381H227L203 204L174 -2L171 -110L48 -119L90 190L115 381H48L42 389L51 455H124L129 493Q155 703 349 703L452
689L457 679Z" />
<glyph unicode="g" glyph-name="g" horiz-adv-x="460" d="M428 467L379 119L373 43Q363 -32 328 -86T239 -168T124 -197Q48 -197 3 -156T-54 -44L-50 -34L86 37L87 47Q61 68 50 98T38 172Q38 240 64 302T141 409T264 471H269L345 449L417 474L428 467ZM196 382T170
336T144 214Q144 171 152 150T169 128Q185 128 223 183T304 335L307 357V361L244 382Q196 382 170 336ZM192 -109T222 -79T259 9L281 171H269Q217 77 150 21L85 -29Q73 -39 73 -51Q73 -74 93 -91T148 -109Q192 -109 222 -79Z" />
<glyph unicode="h" glyph-name="h" horiz-adv-x="495" d="M400 460T428 435T456 372L455 359L415 113L410 5L285 -4L334 304L335 315Q335 327 331 333T318 339Q294 339 253 286T161 132L158 112L155 5L31 -4L115 591L117 695L240 704L182 288H195Q234 351 268
393T340 468L352 469Q400 460 428 435Z" />
<glyph unicode="i" glyph-name="i" horiz-adv-x="237" d="M157 112L153 5L30 -4L80 356L84 460L206 469L157 112ZM198 687T215 670T232 621Q232 587 213 568T162 548Q130 548 113 565T96 615Q96 648 115 667T167 687Q198 687 215 670Z" />
<glyph unicode="j" glyph-name="j" horiz-adv-x="257" d="M223 464L173 114L165 25Q155 -54 115 -104T-8 -194L-48 -139L-46 -127Q-1 -100 21 -67T51 19L97 353V381H28L22 389L31 455H101L219 468L223 464ZM206 687T223 670T240 621Q240 587 221 568T170 548Q138
548 121 565T104 615Q104 648 123 667T175 687Q206 687 223 670Z" />
<glyph unicode="k" glyph-name="k" horiz-adv-x="498" d="M473 264T347 181Q394 92 445 13L439 3L336 -12L324 -6Q276 86 239 174L243 192Q294 224 322 256T350 316Q350 340 332 340Q304 340 259 287T160 126L158 112L155 5L32 -4L115 591L117 695L241 704L183
291H197Q240 353 277 396T354 468L367 469Q473 447 473 357Q473 264 347 181Z" />
<glyph unicode="l" glyph-name="l" horiz-adv-x="256" d="M165 112L161 5L38 -4L122 591L124 695L247 704L165 112Z" />
<glyph unicode="m" glyph-name="m" horiz-adv-x="753" d="M656 460T684 435T712 372L711 359L672 113L667 5L542 -4L591 304L592 315Q592 339 575 339Q551 339 509 285T415 127L413 113L409 5L283 -4L332 304L333 315Q333 327 329 333T316 339Q293 339 253 288T161
137L158 112L154 5L30 -4L81 356L85 460L206 469L182 288H194Q232 350 266 392T339 468L351 469Q398 460 426 435T454 372L453 359L441 288H452Q491 351 525 393T597 468L609 469Q656 460 684 435Z" />
<glyph unicode="n" glyph-name="n" horiz-adv-x="493" d="M396 459T425 434T454 372L453 359L413 113L408 5L282 -4L332 304L333 315Q333 327 329 333T316 339Q293 339 253 288T161 137L158 112L154 5L30 -4L81 356L85 460L206 469L182 288H193Q232 351 266 393T338
468L350 469Q396 459 425 434Z" />
<glyph unicode="o" glyph-name="o" horiz-adv-x="436" d="M284 473Q412 447 412 308Q412 167 347 83T166 -10L154 -9Q91 5 58 47T25 165Q25 254 55 322T141 430T272 474L284 473ZM191 378T166 324T141 163Q141 119 151 101T188 83Q244 83 269 138T294 300Q294
343 284 360T248 378Q191 378 166 324Z" />
<glyph unicode="p" glyph-name="p" horiz-adv-x="461" d="M391 451T415 411T440 308Q440 240 413 174T333 59T204 -9H199L143 2L133 -75L129 -185L5 -194L82 356L86 460L207 469L185 307H199Q253 403 319 471H337Q391 451 415 411ZM274 84T301 135T328 265Q328
352 303 352Q285 352 245 292T160 126L157 102L227 84Q274 84 301 135Z" />
<glyph unicode="q" glyph-name="q" horiz-adv-x="461" d="M428 467L354 -77L350 -185L226 -194L275 155H261Q208 60 142 -9H124Q69 11 45 51T21 154Q21 221 47 287T128 403T259 471H265L342 450L418 474L428 467ZM169 112T191 137T242 214T301 337L303 354V356L238
378Q188 378 160 328T132 196Q132 152 139 132T157 112Q169 112 191 137Z" />
<glyph unicode="r" glyph-name="r" horiz-adv-x="352" d="M370 465L349 309L338 304L319 307Q275 301 241 267T161 143L157 112L153 5L30 -4L80 356L84 460L206 469L182 295H194Q225 350 260 391T343 468L370 465Z" />
<glyph unicode="s" glyph-name="s" horiz-adv-x="346" d="M293 463T341 446L310 344L293 338Q271 363 246 376T201 389Q180 389 166 376T152 343Q152 326 166 314T210 281Q241 261 260 246T293 206T307 149Q307 104 282 68T211 12T109 -9Q44 -1 -9 22L21 129L36
135Q59 105 88 88T145 71Q169 71 183 85T197 118Q197 136 183 149T136 185Q91 214 66 241T40 312Q40 359 67 395T140 452T240 472Q293 463 341 446Z" />
<glyph unicode="t" glyph-name="t" horiz-adv-x="347" d="M184 136L183 123Q183 103 201 103Q214 103 229 116T267 165H278L313 122Q280 64 249 34T176 -8Q124 -8 96 18T68 91L71 117L108 357L112 388H47L40 396L48 458H120L132 558L247 595L255 587L235 458H351L359
447L351 388H224L184 136Z" />
<glyph unicode="u" glyph-name="u" horiz-adv-x="490" d="M457 469L407 112L404 5L281 -4L306 173H296Q256 110 223 69T154 -3H142Q95 5 66 30T38 92L39 108L78 352L84 461L207 469L160 167L158 149Q158 125 176 125Q199 125 237 175T326 323L331 356L335 460L457 469Z" />
<glyph unicode="v" glyph-name="v" horiz-adv-x="436" d="M433 432T433 391Q433 332 388 251L246 0H108L54 461L176 469L177 384L195 128H205L287 283Q316 336 316 376Q316 406 297 438L302 452L415 471Q433 432 433 391Z" />
<glyph unicode="w" glyph-name="w" horiz-adv-x="711" d="M530 0H397L373 300H362L241 0H107L54 461L174 469L175 396L192 138H203L306 388L331 465H460L462 396L481 138H490L562 283Q591 341 591 376Q591 406 572 438L577 452L690 471Q708 432 708 391Q708 360
697 327T664 251L530 0Z" />
<glyph unicode="x" glyph-name="x" horiz-adv-x="468" d="M417 4L281 -7L266 52L220 160L144 53L119 0H-15L153 240L57 460L188 472L202 424L248 319L320 420L343 464H472L308 232L417 4Z" />
<glyph unicode="y" glyph-name="y" horiz-adv-x="445" d="M441 425T441 391Q441 356 431 323T399 251L276 24Q213 -93 155 -144T26 -196Q-12 -196 -65 -180L-60 -76L-49 -65Q-8 -74 23 -74Q61 -74 90 -60T146 -16L45 460L168 469L176 384L215 134H229L296 270Q325
329 325 379Q325 414 306 443L312 455L422 471Q441 425 441 391Z" />
<glyph unicode="z" glyph-name="z" horiz-adv-x="425" d="M412 447L151 109L179 116Q187 116 213 110Q237 103 249 103Q285 103 301 123T322 199L338 205L391 186Q385 -10 249 -10Q215 -10 161 8Q116 23 93 23Q76 23 63 17T31 -7H17L-20 27L237 363L133 361L58
350L48 358L71 466L82 474L165 468L344 464L376 482L412 447Z" />
<glyph unicode="{" glyph-name="braceleft" horiz-adv-x="295" d="M293 657T329 648L333 638L314 572Q294 577 280 577Q216 577 216 496Q216 479 220 443Q224 405 224 391Q224 349 203 319T142 271L141 266Q169 252 183 229T198 176Q198 159 193 140T176 92Q165
61 160 44T155 10Q155 -41 204 -41Q217 -41 240 -36L243 -102L236 -111Q203 -120 171 -120Q112 -120 81 -94T50 -19Q50 5 55 27T74 90Q83 118 88 135T93 168Q93 222 32 238L39 298Q81 309 100 333T120 399Q120 412 118 448Q115 477 115 506Q115 581 154 619T267
657Q293 657 329 648Z" />
<glyph unicode="|" glyph-name="bar" horiz-adv-x="308" d="M274 794L209 290L143 -253L53 -260L45 -248L110 281L174 795L266 803L274 794Z" />
<glyph unicode="}" glyph-name="braceright" horiz-adv-x="295" d="M11 -120T-25 -111L-29 -101L-10 -35Q10 -40 24 -40Q88 -40 88 41Q88 58 84 94Q80 132 80 146Q80 188 101 218T162 266L163 271Q135 285 121 308T106 361Q106 378 111 397T128 445Q139 476 144
493T149 527Q149 578 100 578Q87 578 64 573L61 639L68 648Q101 657 133 657Q192 657 223 631T254 556Q254 532 249 510T230 447Q221 419 216 402T211 369Q211 315 272 299L265 239Q223 228 204 204T184 138Q184 125 186 89Q189 61 189 31Q189 -44 150 -82T37 -120Q11
-120 -25 -111Z" />
<glyph unicode="~" glyph-name="asciitilde" horiz-adv-x="480" d="M138 238T125 229T87 196L72 182H60L30 225L32 237L125 328L138 334Q165 329 231 308Q318 281 338 281Q350 281 363 290T393 314T417 336H429L457 294L456 282L364 190L350 186Q324 189 245 214Q216
223 189 230T150 238Q138 238 125 229Z" />
<glyph unicode="&#xa0;" glyph-name="uni00A0" horiz-adv-x="133" />
<glyph unicode="&#xa1;" glyph-name="exclamdown" horiz-adv-x="273" d="M125 336T108 353T91 402Q91 436 110 455T161 475Q193 475 210 458T227 408Q227 375 208 356T156 336Q125 336 108 353ZM11 -182L97 232L171 242L183 229L141 -176L127 -191L24 -197L11 -182Z" />
<glyph unicode="&#xa2;" glyph-name="cent" horiz-adv-x="388" d="M197 427T165 376T132 233Q132 176 146 151T192 125Q244 125 291 205L306 204L342 159Q315 115 286 88T219 45L192 -123H128L121 -112L143 38Q84 52 57 92T29 213Q29 322 76 400T217 501L240 655H303L314
645L293 510L370 488L376 475L346 394L323 392Q304 411 289 419T255 427Q197 427 165 376Z" />
<glyph unicode="&#xa3;" glyph-name="sterling" horiz-adv-x="447" d="M391 595T453 579L436 486L427 480Q370 512 323 512Q245 512 235 433L223 343H350L354 336L340 273H214L202 185Q198 151 187 130T152 91V88H297L397 95L401 88L381 -3L258 0H-2L-6 7L7 77Q46
86 67 110T93 177L104 273H32L29 280L42 343H113L121 414Q131 501 188 548T341 595Q391 595 453 579Z" />
<glyph unicode="&#xa4;" glyph-name="currency" horiz-adv-x="435" d="M453 501L451 489L375 427Q388 402 388 365Q388 317 358 278L421 218V206L358 147L346 148L293 216Q255 193 212 193Q172 193 141 214L74 145L62 144L9 200L12 212L87 273Q73 299 73 335Q73
380 104 424L43 483V495L106 554L117 553L171 484Q209 506 250 506Q290 506 319 486L388 556L401 557L453 501ZM201 436T173 409T144 340Q144 305 165 284T220 263Q262 263 290 290T319 360Q319 394 298 415T242 436Q201 436 173 409Z" />
<glyph unicode="&#xa5;" glyph-name="yen" horiz-adv-x="551" d="M519 308L524 302L513 248H370L317 171H501L507 165L497 112H304L294 0H184L202 112H29L24 118L34 171H207L176 248H45L41 255L51 308H152L74 503H191L199 468L273 280H281L412 464L433 503H547L412
308H519Z" />
<glyph unicode="&#xa6;" glyph-name="brokenbar" horiz-adv-x="308" d="M274 794L220 377L130 366L122 374L173 795L266 803L274 794ZM192 149L143 -253L54 -260L45 -248L94 150L183 160L192 149Z" />
<glyph unicode="&#xa7;" glyph-name="section" horiz-adv-x="420" d="M199 499T216 485T274 446Q314 422 338 404T381 359T399 296Q399 250 369 211T287 148Q331 106 331 57Q331 15 304 -21T231 -78T129 -99Q95 -99 54 -91T-18 -69L9 30L21 38Q49 11 84 -4T149
-20Q182 -20 202 -4T223 33Q223 52 205 67T147 106Q108 128 83 146T40 192T22 255Q22 301 52 342T133 406Q90 446 90 495Q90 537 117 573T190 630T292 651Q321 651 354 645T413 628L387 533L371 528Q343 548 316 558T266 569Q237 569 218 553T199 518Q199 499 216
485ZM290 220T290 264Q290 292 268 311T196 361Q164 346 148 327T131 287Q131 268 143 253T172 226T226 191Q290 220 290 264Z" />
<glyph unicode="&#xa8;" glyph-name="dieresis" horiz-adv-x="392" d="M185 678T200 663T215 620Q215 590 199 573T153 556Q125 556 110 571T95 615Q95 644 112 661T158 678Q185 678 200 663ZM362 678T377 663T393 620Q393 590 376 573T330 556Q302 556 287 571T272
615Q272 644 288 661T334 678Q362 678 377 663Z" />
<glyph unicode="&#xa9;" glyph-name="copyright" horiz-adv-x="693" d="M442 598T510 560T615 453T653 293Q653 202 616 133T510 26T353 -12Q264 -12 197 26T92 133T54 293Q54 384 91 453T196 560T353 598Q442 598 510 560ZM278 552T221 520T132 429T100 293Q100
216 131 157T220 66T353 34Q428 34 486 66T575 157T607 293Q607 370 576 429T486 520T353 552Q278 552 221 520ZM418 465T464 448L448 379L443 376Q429 384 409 388T372 393Q332 393 313 372T294 302Q294 199 375 199Q415 199 449 213L457 210L450 141Q412 127
369 127Q286 127 245 169T203 293Q203 375 248 420T375 465Q418 465 464 448Z" />
<glyph unicode="&#xaa;" glyph-name="ordfeminine" horiz-adv-x="323" d="M333 645L300 404L296 331L212 325L227 441H218Q178 364 137 323H124Q83 337 67 362T51 430Q51 505 92 566T211 646H216L272 638L325 650L333 645ZM159 400T184 438T240 542L243 567L244
576L199 585Q166 584 148 551T130 463Q130 431 135 416T148 400Q159 400 184 438Z" />
<glyph unicode="&#xab;" glyph-name="guillemotleft" horiz-adv-x="427" d="M236 220L239 241L396 414L453 381L454 368L332 227L420 86L416 74L351 41L236 220ZM53 220L56 241L213 414L270 381L271 368L149 227L237 86L233 74L168 41L53 220Z" />
<glyph unicode="&#xac;" glyph-name="logicalnot" horiz-adv-x="480" d="M439 297L409 51L330 44L321 53L341 217H30L22 226L39 305H434L439 297Z" />
<glyph unicode="&#xad;" glyph-name="uni00AD" horiz-adv-x="304" d="M285 308L276 227L33 191L24 201L34 282L276 317L285 308Z" />
<glyph unicode="&#xae;" glyph-name="registered" horiz-adv-x="445" d="M307 702T358 651T409 517Q409 433 358 382T223 330Q139 330 88 381T37 517Q37 600 88 651T223 702Q307 702 358 651ZM292 363T334 405T376 517Q376 586 334 627T223 669Q154 669 112 628T70
517Q70 448 112 406T223 363Q292 363 334 405ZM304 543T295 528T267 502Q287 473 317 436L316 431Q303 426 269 422L263 426Q244 457 227 489H196V488L199 426H151L153 483L151 620L235 621Q268 621 286 606T304 561Q304 543 295 528ZM197 526L229 524Q242 529
248 537T254 557Q254 571 246 577T219 585L199 584L197 526Z" />
<glyph unicode="&#xaf;" glyph-name="overscore" horiz-adv-x="386" d="M388 650L382 577H101L93 586L100 659H380L388 650Z" />
<glyph unicode="&#xb0;" glyph-name="degree" horiz-adv-x="293" d="M248 652T280 619T313 537Q313 498 293 466T239 414T167 394Q117 394 84 427T51 510Q51 548 71 580T126 632T198 652Q248 652 280 619ZM157 596T133 573T108 516Q108 488 126 470T173 451Q207
451 231 474T256 531Q256 559 238 577T191 596Q157 596 133 573Z" />
<glyph unicode="&#xb1;" glyph-name="plusminus" horiz-adv-x="478" d="M312 468L291 305H454L462 296L446 217H281L261 51L181 44L172 53L192 217H29L22 226L38 305H203L223 471L303 477L312 468ZM419 -35L412 -114H-5L-14 -105L-7 -26H410L419 -35Z" />
<glyph unicode="&#xb2;" glyph-name="uni00B2" horiz-adv-x="360" d="M285 705T317 682T350 619Q350 589 327 554T248 461L186 396L188 393H284L352 398L356 391L336 312L243 316H76L49 315L44 318L51 378L159 481Q205 526 224 549T243 593Q243 606 233 614T206
623Q184 623 157 611T105 577H94L85 653Q166 705 236 705Q285 705 317 682Z" />
<glyph unicode="&#xb3;" glyph-name="uni00B3" horiz-adv-x="320" d="M253 706T287 682T322 620Q322 593 304 567T248 523L247 519Q311 501 311 440Q311 382 258 346T118 310Q78 310 43 318L46 389L53 395Q95 384 128 384Q167 384 189 398T212 435Q212 470 162
472H112L107 478L116 545L148 546Q175 547 195 561T216 598Q216 628 175 628Q144 628 93 601H82L74 668Q139 706 201 706Q253 706 287 682Z" />
<glyph unicode="&#xb4;" glyph-name="acute" horiz-adv-x="379" d="M309 721L356 651L354 639Q242 567 161 520L149 521L117 570Q212 644 297 722L309 721Z" />
<glyph unicode="&#xb5;" glyph-name="uni00B5" horiz-adv-x="491" d="M462 469L412 112L409 5L286 -4L311 173H301Q240 64 177 -3H165Q147 5 134 18L128 -185L5 -194L81 356L85 460L207 469L163 149V144Q163 125 181 125Q204 125 242 175T331 323L336 356L340
460L462 469Z" />
<glyph unicode="&#xb6;" glyph-name="paragraph" horiz-adv-x="521" d="M552 633L532 544H464L417 196L411 136Q401 59 352 8T193 -85L165 -26L167 -13Q226 17 254 50T287 130L294 180L335 545H288Q240 537 214 502T188 410Q188 368 208 334T267 280L214 213Q134
232 92 281T49 405Q49 516 123 579T326 643H544L552 633Z" />
<glyph unicode="&#xb7;" glyph-name="middot" horiz-adv-x="230" d="M151 321T168 304T185 255Q185 221 166 202T115 182Q83 182 66 199T49 249Q49 282 68 301T120 321Q151 321 168 304Z" />
<glyph unicode="&#xb8;" glyph-name="cedilla" horiz-adv-x="383" d="M160 -48L194 -67Q216 -79 225 -93T235 -126Q235 -159 209 -180T141 -201Q96 -201 60 -172L69 -117L75 -115Q107 -145 133 -145Q158 -145 158 -123Q158 -116 154 -112T141 -103L92 -75L115
25H178L160 -48Z" />
<glyph unicode="&#xb9;" glyph-name="uni00B9" horiz-adv-x="274" d="M256 696L222 453L209 316H106L125 442L143 594L59 577L53 582L63 660L244 706L256 696Z" />
<glyph unicode="&#xba;" glyph-name="ordmasculine" horiz-adv-x="309" d="M228 649Q316 633 316 537Q316 441 271 384T147 322L139 324Q97 330 74 359T51 440Q51 531 96 588T219 649H228ZM132 586T132 439Q132 408 139 396T164 383Q201 383 217 420T234 531Q234
561 228 573T205 586Q132 586 132 439Z" />
<glyph unicode="&#xbb;" glyph-name="guillemotright" horiz-adv-x="427" d="M373 237L370 216L213 43L156 76L155 89L277 230L189 371L193 383L258 416L373 237ZM446 237L443 216L286 43L229 76L228 89L350 230L262 371L266 383L331 416L446 237Z" />
<glyph unicode="&#xbc;" glyph-name="onequarter" horiz-adv-x="743" d="M249 639L215 396L202 259H99L118 385L136 537L52 520L46 525L56 603L237 649L249 639ZM635 653L641 635L83 -92L32 -59L28 -45L586 685L635 653ZM694 86L640 88L635 7L628 0L547 -4L543
1L556 89H452L387 86L382 94L389 157L583 385H677L648 164H702L707 155L694 86ZM478 164H566L580 276H574L478 164Z" />
<glyph unicode="&#xbd;" glyph-name="onehalf" horiz-adv-x="764" d="M249 639L215 396L202 259H99L118 385L136 537L52 520L46 525L56 603L237 649L249 639ZM635 653L641 635L83 -92L32 -59L28 -45L586 685L635 653ZM650 389T682 366T715 303Q715 273 692 238T613
145L551 80L553 77H649L717 82L721 75L701 -4L608 0H441L414 -1L409 2L416 62L524 165Q570 210 589 233T608 277Q608 290 598 298T571 307Q549 307 522 295T470 261H459L450 337Q531 389 601 389Q650 389 682 366Z" />
<glyph unicode="&#xbe;" glyph-name="threequarters" horiz-adv-x="782" d="M246 649T280 625T315 563Q315 536 297 510T241 466L240 462Q304 444 304 383Q304 325 251 289T111 253Q71 253 36 261L39 332L46 338Q88 327 121 327Q160 327 182 341T205 378Q205 413
155 415H105L100 421L109 488L141 489Q168 490 188 504T209 541Q209 571 168 571Q137 571 86 544H75L67 611Q132 649 194 649Q246 649 280 625ZM674 653L680 635L122 -92L71 -59L67 -45L625 685L674 653ZM733 86L679 88L674 7L667 0L586 -4L582 1L595 89H491L426
86L421 94L428 157L622 385H716L687 164H741L746 155L733 86ZM517 164H605L619 276H613L517 164Z" />
<glyph unicode="&#xbf;" glyph-name="questiondown" horiz-adv-x="340" d="M171 336T154 353T137 402Q137 436 156 455T207 475Q238 475 255 458T273 408Q273 375 254 356T202 336Q171 336 154 353ZM84 -193T18 -155T-48 -51Q-48 -7 -20 32T61 99L139 143L142
148L146 233L238 245L246 236L241 109L234 99L138 51Q72 18 72 -32Q72 -68 112 -88T243 -115L250 -127L219 -193L205 -200Q84 -193 18 -155Z" />
<glyph unicode="&#xc0;" glyph-name="Agrave" horiz-adv-x="583" d="M539 0H406L400 83L391 146L270 148L163 146L139 90L110 0H-20L271 643H428L539 0ZM376 248L336 519H327L209 249L291 247L376 248ZM355 830T465 775L444 721L431 717Q301 762 218 795L214 807L247
884L259 887Q355 830 465 775Z" />
<glyph unicode="&#xc1;" glyph-name="Aacute" horiz-adv-x="583" d="M539 0H406L400 83L391 146L270 148L163 146L139 90L110 0H-20L271 643H428L539 0ZM376 248L336 519H327L209 249L291 247L376 248ZM459 884L492 807L488 795Q399 760 274 717L261 721L240 775Q348
829 447 887L459 884Z" />
<glyph unicode="&#xc2;" glyph-name="Acircumflex" horiz-adv-x="583" d="M539 0H406L400 83L391 146L270 148L163 146L139 90L110 0H-20L271 643H428L539 0ZM376 248L336 519H327L209 249L291 247L376 248ZM216 771Q289 818 354 874H381Q433 825 508 771L478
719H465Q390 765 365 782Q349 773 290 742L247 719H233L216 771Z" />
<glyph unicode="&#xc3;" glyph-name="Atilde" horiz-adv-x="583" d="M539 0H406L400 83L391 146L270 148L163 146L139 90L110 0H-20L271 643H428L539 0ZM376 248L336 519H327L209 249L291 247L376 248ZM538 840V829L468 741L456 736Q436 739 373 756Q368 757 341
764T302 772Q291 772 280 763T257 740T240 720H228L190 759V770L259 858L272 862Q288 860 315 853T356 843Q409 827 426 827Q438 827 449 836T471 859T488 878H500L538 840Z" />
<glyph unicode="&#xc4;" glyph-name="Adieresis" horiz-adv-x="583" d="M539 0H406L400 83L391 146L270 148L163 146L139 90L110 0H-20L271 643H428L539 0ZM376 248L336 519H327L209 249L291 247L376 248ZM305 857T320 842T335 799Q335 769 319 752T273 735Q245
735 230 750T215 794Q215 823 232 840T278 857Q305 857 320 842ZM482 857T497 842T513 799Q513 769 496 752T450 735Q422 735 407 750T392 794Q392 823 408 840T454 857Q482 857 497 842Z" />
<glyph unicode="&#xc5;" glyph-name="Aring" horiz-adv-x="583" d="M539 0H406L400 83L391 146L270 148L163 146L139 90L110 0H-20L271 643H428L539 0ZM376 248L336 519H327L209 249L291 247L376 248ZM412 902T436 878T460 811Q460 764 434 739T362 713Q319 713
295 737T270 807Q270 852 295 877T367 902Q412 902 436 878ZM324 846T324 809Q324 768 365 768Q406 768 406 806Q406 846 364 846Q324 846 324 809Z" />
<glyph unicode="&#xc6;" glyph-name="AE" horiz-adv-x="798" d="M774 99L753 0H376L381 83L382 223L170 168L125 90L86 0H-45L335 643H762L768 633L747 534L596 539H511L509 356L704 405L713 397L712 304L508 256L507 103H607L767 109L774 99ZM382 323L383 519H375L239
286L382 323Z" />
<glyph unicode="&#xc7;" glyph-name="Ccedilla" horiz-adv-x="507" d="M471 651T541 613L504 501L493 497Q466 519 433 531T362 543Q271 543 224 476T177 280Q177 192 211 147T312 102Q348 102 388 113T461 146L472 139L447 26Q394 1 340 -6L330 -48L364 -67Q386
-79 395 -93T405 -126Q405 -159 379 -180T311 -201Q266 -201 230 -172L239 -117L245 -115Q277 -145 303 -145Q328 -145 328 -123Q328 -116 324 -112T311 -103L262 -75L277 -9Q161 -5 99 65T37 259Q37 381 77 469T193 604T376 651Q471 651 541 613Z" />
<glyph unicode="&#xc8;" glyph-name="Egrave" horiz-adv-x="497" d="M248 538L226 379L333 378L435 381L442 371L420 272L310 275L211 274L201 204L191 105L302 104L456 109L461 99L441 0H48L79 192L129 643H525L531 633L509 534L360 539L248 538ZM331 830T441
775L420 721L407 717Q277 762 194 795L190 807L223 884L235 887Q331 830 441 775Z" />
<glyph unicode="&#xc9;" glyph-name="Eacute" horiz-adv-x="497" d="M248 538L226 379L333 378L435 381L442 371L420 272L310 275L211 274L201 204L191 105L302 104L456 109L461 99L441 0H48L79 192L129 643H525L531 633L509 534L360 539L248 538ZM435 884L468
807L464 795Q375 760 250 717L237 721L216 775Q324 829 423 887L435 884Z" />
<glyph unicode="&#xca;" glyph-name="Ecircumflex" horiz-adv-x="497" d="M248 538L226 379L333 378L435 381L442 371L420 272L310 275L211 274L201 204L191 105L302 104L456 109L461 99L441 0H48L79 192L129 643H525L531 633L509 534L360 539L248 538ZM192 771Q265
818 330 874H357Q409 825 484 771L454 719H441Q366 765 341 782Q325 773 266 742L223 719H209L192 771Z" />
<glyph unicode="&#xcb;" glyph-name="Edieresis" horiz-adv-x="497" d="M248 538L226 379L333 378L435 381L442 371L420 272L310 275L211 274L201 204L191 105L302 104L456 109L461 99L441 0H48L79 192L129 643H525L531 633L509 534L360 539L248 538ZM281 857T296
842T311 799Q311 769 295 752T249 735Q221 735 206 750T191 794Q191 823 208 840T254 857Q281 857 296 842ZM458 857T473 842T489 799Q489 769 472 752T426 735Q398 735 383 750T368 794Q368 823 384 840T430 857Q458 857 473 842Z" />
<glyph unicode="&#xcc;" glyph-name="Igrave" horiz-adv-x="289" d="M200 204L181 0H48L79 192L128 643H262L200 204ZM204 830T314 775L293 721L280 717Q150 762 67 795L63 807L96 884L108 887Q204 830 314 775Z" />
<glyph unicode="&#xcd;" glyph-name="Iacute" horiz-adv-x="289" d="M200 204L181 0H48L79 192L128 643H262L200 204ZM308 884L341 807L337 795Q248 760 123 717L110 721L89 775Q197 829 296 887L308 884Z" />
<glyph unicode="&#xce;" glyph-name="Icircumflex" horiz-adv-x="289" d="M200 204L181 0H48L79 192L128 643H262L200 204ZM65 771Q138 818 203 874H230Q282 825 357 771L327 719H314Q239 765 214 782Q198 773 139 742L96 719H82L65 771Z" />
<glyph unicode="&#xcf;" glyph-name="Idieresis" horiz-adv-x="289" d="M200 204L181 0H48L79 192L128 643H262L200 204ZM169 856T184 841T199 798Q199 769 183 752T138 734Q110 734 95 749T80 793Q80 822 97 839T143 856Q169 856 184 841ZM315 856T330 841T345
798Q345 769 329 752T284 734Q256 734 241 749T226 793Q226 822 242 839T288 856Q315 856 330 841Z" />
<glyph unicode="&#xd0;" glyph-name="Eth" horiz-adv-x="668" d="M522 647T588 582T655 396Q655 207 563 100T301 -7Q254 -7 188 -5T76 0L107 192L116 275H29L25 285L36 364H126L156 643L400 647Q522 647 588 582ZM419 95T467 164T516 375Q516 461 484 501T384
542Q345 542 275 538L250 364H369L374 354L363 275H237L227 204L218 103Q245 100 277 98T330 95Q419 95 467 164Z" />
<glyph unicode="&#xd1;" glyph-name="Ntilde" horiz-adv-x="678" d="M590 198L571 0H429L229 441H220L192 221L170 0H49L79 190L129 643H271L471 202H480L531 638L654 646L590 198ZM584 840V829L514 741L502 736Q482 739 419 756Q414 757 387 764T348 772Q337
772 326 763T303 740T286 720H274L236 759V770L305 858L318 862Q334 860 361 853T402 843Q455 827 472 827Q484 827 495 836T517 859T534 878H546L584 840Z" />
<glyph unicode="&#xd2;" glyph-name="Ograve" horiz-adv-x="631" d="M488 652T553 584T619 384Q619 266 580 177T466 39T286 -10Q168 -10 103 60T37 263Q37 381 75 469T188 604T369 652Q488 652 553 584ZM263 545T219 479T174 266Q174 175 203 134T299 92Q389
92 434 159T479 373Q479 464 450 504T353 545Q263 545 219 479ZM376 830T486 775L465 721L452 717Q322 762 239 795L235 807L268 884L280 887Q376 830 486 775Z" />
<glyph unicode="&#xd3;" glyph-name="Oacute" horiz-adv-x="631" d="M488 652T553 584T619 384Q619 266 580 177T466 39T286 -10Q168 -10 103 60T37 263Q37 381 75 469T188 604T369 652Q488 652 553 584ZM263 545T219 479T174 266Q174 175 203 134T299 92Q389
92 434 159T479 373Q479 464 450 504T353 545Q263 545 219 479ZM480 884L513 807L509 795Q420 760 295 717L282 721L261 775Q369 829 468 887L480 884Z" />
<glyph unicode="&#xd4;" glyph-name="Ocircumflex" horiz-adv-x="631" d="M488 652T553 584T619 384Q619 266 580 177T466 39T286 -10Q168 -10 103 60T37 263Q37 381 75 469T188 604T369 652Q488 652 553 584ZM263 545T219 479T174 266Q174 175 203 134T299 92Q389
92 434 159T479 373Q479 464 450 504T353 545Q263 545 219 479ZM237 771Q310 818 375 874H402Q454 825 529 771L499 719H486Q411 765 386 782Q370 773 311 742L268 719H254L237 771Z" />
<glyph unicode="&#xd5;" glyph-name="Otilde" horiz-adv-x="631" d="M488 652T553 584T619 384Q619 266 580 177T466 39T286 -10Q168 -10 103 60T37 263Q37 381 75 469T188 604T369 652Q488 652 553 584ZM263 545T219 479T174 266Q174 175 203 134T299 92Q389
92 434 159T479 373Q479 464 450 504T353 545Q263 545 219 479ZM559 840V829L489 741L477 736Q457 739 394 756Q389 757 362 764T323 772Q312 772 301 763T278 740T261 720H249L211 759V770L280 858L293 862Q309 860 336 853T377 843Q430 827 447 827Q459 827 470
836T492 859T509 878H521L559 840Z" />
<glyph unicode="&#xd6;" glyph-name="Odieresis" horiz-adv-x="631" d="M488 652T553 584T619 384Q619 266 580 177T466 39T286 -10Q168 -10 103 60T37 263Q37 381 75 469T188 604T369 652Q488 652 553 584ZM263 545T219 479T174 266Q174 175 203 134T299 92Q389
92 434 159T479 373Q479 464 450 504T353 545Q263 545 219 479ZM326 857T341 842T356 799Q356 769 340 752T294 735Q266 735 251 750T236 794Q236 823 253 840T299 857Q326 857 341 842ZM503 857T518 842T534 799Q534 769 517 752T471 735Q443 735 428 750T413
794Q413 823 429 840T475 857Q503 857 518 842Z" />
<glyph unicode="&#xd7;" glyph-name="multiply" horiz-adv-x="481" d="M438 389L437 376L307 261L407 145L406 133L339 81L237 198L104 81L50 133L52 144L182 261L81 376L82 389L148 440L252 323L383 440L438 389Z" />
<glyph unicode="&#xd8;" glyph-name="Oslash" horiz-adv-x="631" d="M619 526T619 384Q619 266 580 177T466 39T286 -10Q236 -10 192 4L121 -117L53 -86L48 -75L119 45Q37 116 37 263Q37 381 75 469T188 604T369 652Q424 652 467 637L525 736L593 706L598 692L541
595Q619 526 619 384ZM389 92T434 159T479 373Q479 464 450 504T353 545Q263 545 219 479T174 266Q174 175 203 134T299 92Q389 92 434 159Z" />
<glyph unicode="&#xd9;" glyph-name="Ugrave" horiz-adv-x="622" d="M568 317L557 233Q544 116 474 54T283 -9Q178 -9 118 39T58 178Q58 204 62 227L75 320L111 643H243L188 245Q185 224 185 207Q185 152 211 126T293 100Q357 100 392 134T436 238L480 643H613L568
317ZM372 830T482 775L461 721L448 717Q318 762 235 795L231 807L264 884L276 887Q372 830 482 775Z" />
<glyph unicode="&#xda;" glyph-name="Uacute" horiz-adv-x="622" d="M568 317L557 233Q544 116 474 54T283 -9Q178 -9 118 39T58 178Q58 204 62 227L75 320L111 643H243L188 245Q185 224 185 207Q185 152 211 126T293 100Q357 100 392 134T436 238L480 643H613L568
317ZM476 884L509 807L505 795Q416 760 291 717L278 721L257 775Q365 829 464 887L476 884Z" />
<glyph unicode="&#xdb;" glyph-name="Ucircumflex" horiz-adv-x="622" d="M568 317L557 233Q544 116 474 54T283 -9Q178 -9 118 39T58 178Q58 204 62 227L75 320L111 643H243L188 245Q185 224 185 207Q185 152 211 126T293 100Q357 100 392 134T436 238L480 643H613L568
317ZM233 771Q306 818 371 874H398Q450 825 525 771L495 719H482Q407 765 382 782Q366 773 307 742L264 719H250L233 771Z" />
<glyph unicode="&#xdc;" glyph-name="Udieresis" horiz-adv-x="622" d="M568 317L557 233Q544 116 474 54T283 -9Q178 -9 118 39T58 178Q58 204 62 227L75 320L111 643H243L188 245Q185 224 185 207Q185 152 211 126T293 100Q357 100 392 134T436 238L480 643H613L568
317ZM324 857T339 842T354 799Q354 769 338 752T292 735Q264 735 249 750T234 794Q234 823 251 840T297 857Q324 857 339 842ZM501 857T516 842T532 799Q532 769 515 752T469 735Q441 735 426 750T411 794Q411 823 427 840T473 857Q501 857 516 842Z" />
<glyph unicode="&#xdd;" glyph-name="Yacute" horiz-adv-x="543" d="M324 220L317 180L300 0H168L198 180L202 221L56 643H193L201 600L277 352H286L434 596L458 643H596L324 220ZM436 884L469 807L465 795Q376 760 251 717L238 721L217 775Q325 829 424 887L436 884Z" />
<glyph unicode="&#xde;" glyph-name="Thorn" horiz-adv-x="547" d="M442 542T492 499T543 372Q543 296 509 236T411 142T263 108H192L182 0H49L79 192L129 643H263L249 542H353Q442 542 492 499ZM352 217T379 255T406 352Q406 397 384 419T310 445L235 441L202
209L304 205Q352 217 379 255Z" />
<glyph unicode="&#xdf;" glyph-name="germandbls" horiz-adv-x="589" d="M416 334T431 318T476 280Q519 248 541 220T564 146Q564 102 539 67T469 11T369 -9Q309 -3 250 22L277 125L291 132Q316 102 345 86T401 69Q426 69 441 83T457 118Q457 136 443 151T400
188Q370 211 352 228T321 270T308 328Q308 371 324 399T372 460Q397 487 409 506T421 551Q421 610 351 610Q310 610 283 590T247 525L203 204L175 -2L171 -110L48 -119L91 190L115 381H48L42 389L51 455H124L130 500Q142 597 203 650T364 704Q446 704 490 669T535
573Q535 531 517 502T466 440Q440 413 428 396T416 355Q416 334 431 318Z" />
<glyph unicode="&#xe0;" glyph-name="agrave" horiz-adv-x="461" d="M428 467L379 112L375 5L252 -4L274 154H261Q208 59 143 -9H125Q70 11 46 51T22 154Q22 221 48 287T128 402T259 471H265L341 450L417 474L428 467ZM177 112T216 171T300 337L302 354V356L237
377Q189 377 162 328T134 197Q134 112 159 112Q177 112 216 171ZM260 646T354 571L323 522L311 521Q232 567 117 640L115 652L162 722L174 723Q260 646 354 571Z" />
<glyph unicode="&#xe1;" glyph-name="aacute" horiz-adv-x="461" d="M428 467L379 112L375 5L252 -4L274 154H261Q208 59 143 -9H125Q70 11 46 51T22 154Q22 221 48 287T128 402T259 471H265L341 450L417 474L428 467ZM177 112T216 171T300 337L302 354V356L237
377Q189 377 162 328T134 197Q134 112 159 112Q177 112 216 171ZM347 722L394 652L392 640Q280 568 199 521L187 522L155 571Q250 645 335 723L347 722Z" />
<glyph unicode="&#xe2;" glyph-name="acircumflex" horiz-adv-x="461" d="M428 467L379 112L375 5L252 -4L274 154H261Q208 59 143 -9H125Q70 11 46 51T22 154Q22 221 48 287T128 402T259 471H265L341 450L417 474L428 467ZM177 112T216 171T300 337L302 354V356L237
377Q189 377 162 328T134 197Q134 112 159 112Q177 112 216 171ZM119 574Q171 618 251 695L272 715H300Q346 657 425 574L386 525H373Q315 577 278 618Q244 588 158 525H145L119 574Z" />
<glyph unicode="&#xe3;" glyph-name="atilde" horiz-adv-x="461" d="M428 467L379 112L375 5L252 -4L274 154H261Q208 59 143 -9H125Q70 11 46 51T22 154Q22 221 48 287T128 402T259 471H265L341 450L417 474L428 467ZM177 112T216 171T300 337L302 354V356L237
377Q189 377 162 328T134 197Q134 112 159 112Q177 112 216 171ZM448 662V651L378 563L366 558Q346 561 283 578Q278 579 251 586T212 594Q201 594 190 585T167 562T150 542H138L100 581V592L169 680L182 684Q198 682 225 675T266 665Q319 649 336 649Q348 649
359 658T381 681T398 700H410L448 662Z" />
<glyph unicode="&#xe4;" glyph-name="adieresis" horiz-adv-x="461" d="M428 467L379 112L375 5L252 -4L274 154H261Q208 59 143 -9H125Q70 11 46 51T22 154Q22 221 48 287T128 402T259 471H265L341 450L417 474L428 467ZM177 112T216 171T300 337L302 354V356L237
377Q189 377 162 328T134 197Q134 112 159 112Q177 112 216 171ZM215 679T230 664T245 621Q245 591 229 574T183 557Q155 557 140 572T125 616Q125 645 142 662T188 679Q215 679 230 664ZM392 679T407 664T423 621Q423 591 406 574T360 557Q332 557 317 572T302
616Q302 645 318 662T364 679Q392 679 407 664Z" />
<glyph unicode="&#xe5;" glyph-name="aring" horiz-adv-x="461" d="M428 467L379 112L375 5L252 -4L274 154H261Q208 59 143 -9H125Q70 11 46 51T22 154Q22 221 48 287T128 402T259 471H265L341 450L417 474L428 467ZM177 112T216 171T300 337L302 354V356L237
377Q189 377 162 328T134 197Q134 112 159 112Q177 112 216 171ZM322 724T346 700T370 633Q370 586 344 561T272 535Q229 535 205 559T180 629Q180 674 205 699T277 724Q322 724 346 700ZM234 668T234 631Q234 590 275 590Q316 590 316 628Q316 668 274 668Q234
668 234 631Z" />
<glyph unicode="&#xe6;" glyph-name="ae" horiz-adv-x="650" d="M446 471T517 474L530 473Q577 464 604 438T631 366Q631 307 573 261T385 176Q385 168 386 162Q390 124 403 106T442 88Q473 88 502 109T552 168L568 166L608 114Q533 17 437 -9H423Q348 0 314 38T272
148L270 158Q208 56 143 -9H125Q70 11 46 52T21 153Q21 221 48 287T129 403T261 471H266L393 436Q446 471 517 474ZM445 393T419 356T386 251Q456 271 490 297T524 358Q524 393 485 393Q445 393 419 356ZM189 378T161 328T133 197Q133 112 158 112Q176 112 215
167T296 320Q304 339 313 353L239 378Q189 378 161 328Z" />
<glyph unicode="&#xe7;" glyph-name="ccedilla" horiz-adv-x="355" d="M302 79T276 52T217 8L203 -48L237 -67Q259 -79 268 -93T278 -126Q278 -159 252 -180T184 -201Q139 -201 103 -172L112 -117L118 -115Q150 -145 176 -145Q201 -145 201 -123Q201 -116 197
-112T184 -103L135 -75L151 -7Q85 5 55 46T25 170Q25 257 54 325T141 433T280 472L355 449L361 435L326 342L300 340Q281 362 268 370T238 378Q193 378 168 330T142 194Q142 140 152 118T187 96Q209 96 229 113T274 169L290 168L327 121Q302 79 276 52Z" />
<glyph unicode="&#xe8;" glyph-name="egrave" horiz-adv-x="405" d="M324 158L361 110Q295 17 192 -9H178Q99 0 62 43T25 169Q25 256 55 324T141 431T269 474L281 473Q331 465 357 438T384 366Q384 305 325 259T140 177Q142 131 156 110T199 89Q224 89 248 104T309
160L324 158ZM199 392T174 356T141 253Q210 272 242 297T275 358Q275 376 267 384T239 392Q199 392 174 356ZM242 646T336 571L305 522L293 521Q214 567 99 640L97 652L144 722L156 723Q242 646 336 571Z" />
<glyph unicode="&#xe9;" glyph-name="eacute" horiz-adv-x="405" d="M324 158L361 110Q295 17 192 -9H178Q99 0 62 43T25 169Q25 256 55 324T141 431T269 474L281 473Q331 465 357 438T384 366Q384 305 325 259T140 177Q142 131 156 110T199 89Q224 89 248 104T309
160L324 158ZM199 392T174 356T141 253Q210 272 242 297T275 358Q275 376 267 384T239 392Q199 392 174 356ZM329 722L376 652L374 640Q262 568 181 521L169 522L137 571Q232 645 317 723L329 722Z" />
<glyph unicode="&#xea;" glyph-name="ecircumflex" horiz-adv-x="405" d="M324 158L361 110Q295 17 192 -9H178Q99 0 62 43T25 169Q25 256 55 324T141 431T269 474L281 473Q331 465 357 438T384 366Q384 305 325 259T140 177Q142 131 156 110T199 89Q224 89 248
104T309 160L324 158ZM199 392T174 356T141 253Q210 272 242 297T275 358Q275 376 267 384T239 392Q199 392 174 356ZM101 574Q153 618 233 695L254 715H282Q328 657 407 574L368 525H355Q297 577 260 618Q226 588 140 525H127L101 574Z" />
<glyph unicode="&#xeb;" glyph-name="edieresis" horiz-adv-x="405" d="M324 158L361 110Q295 17 192 -9H178Q99 0 62 43T25 169Q25 256 55 324T141 431T269 474L281 473Q331 465 357 438T384 366Q384 305 325 259T140 177Q142 131 156 110T199 89Q224 89 248
104T309 160L324 158ZM199 392T174 356T141 253Q210 272 242 297T275 358Q275 376 267 384T239 392Q199 392 174 356ZM197 679T212 664T227 621Q227 591 211 574T165 557Q137 557 122 572T107 616Q107 645 124 662T170 679Q197 679 212 664ZM374 679T389 664T405
621Q405 591 388 574T342 557Q314 557 299 572T284 616Q284 645 300 662T346 679Q374 679 389 664Z" />
<glyph unicode="&#xec;" glyph-name="igrave" horiz-adv-x="237" d="M157 112L153 5L30 -4L80 356L84 460L206 469L157 112ZM150 645T244 570L213 521L201 520Q122 566 7 639L5 651L52 721L64 722Q150 645 244 570Z" />
<glyph unicode="&#xed;" glyph-name="iacute" horiz-adv-x="237" d="M157 112L153 5L30 -4L80 356L84 460L206 469L157 112ZM237 721L284 651L282 639Q170 567 89 520L77 521L45 570Q140 644 225 722L237 721Z" />
<glyph unicode="&#xee;" glyph-name="icircumflex" horiz-adv-x="237" d="M157 112L153 5L30 -4L80 356L84 460L206 469L157 112ZM9 573Q61 617 141 694L162 714H190Q236 656 315 573L276 524H263Q205 576 168 617Q134 587 48 524H35L9 573Z" />
<glyph unicode="&#xef;" glyph-name="idieresis" horiz-adv-x="237" d="M157 112L153 5L30 -4L80 356L84 460L206 469L157 112ZM120 677T135 662T150 619Q150 590 134 573T89 555Q61 555 46 570T31 614Q31 643 48 660T94 677Q120 677 135 662ZM266 677T281 662T296
619Q296 590 280 573T235 555Q207 555 192 570T177 614Q177 643 193 660T239 677Q266 677 281 662Z" />
<glyph unicode="&#xf0;" glyph-name="eth" horiz-adv-x="461" d="M370 534T397 463T425 312Q425 170 360 84T180 -10L168 -9Q104 5 72 46T39 163Q39 250 68 316T150 421T276 464Q253 507 217 540L92 474L83 477L63 529L163 583Q126 607 68 635L70 649L156 708H163Q223
678 268 639L385 702L395 698L415 646L316 593Q370 534 397 463ZM258 79T284 135T312 301Q312 330 309 357Q293 381 262 381Q204 381 178 326T151 162Q151 117 162 98T200 79Q258 79 284 135Z" />
<glyph unicode="&#xf1;" glyph-name="ntilde" horiz-adv-x="493" d="M396 459T425 434T454 372L453 359L413 113L408 5L282 -4L332 304L333 315Q333 327 329 333T316 339Q293 339 253 288T161 137L158 112L154 5L30 -4L81 356L85 460L206 469L182 288H193Q232
351 266 393T338 468L350 469Q396 459 425 434ZM470 661V650L400 562L388 557Q368 560 305 577Q300 578 273 585T234 593Q223 593 212 584T189 561T172 541H160L122 580V591L191 679L204 683Q220 681 247 674T288 664Q341 648 358 648Q370 648 381 657T403 680T420
699H432L470 661Z" />
<glyph unicode="&#xf2;" glyph-name="ograve" horiz-adv-x="436" d="M284 473Q412 447 412 308Q412 167 347 83T166 -10L154 -9Q91 5 58 47T25 165Q25 254 55 322T141 430T272 474L284 473ZM191 378T166 324T141 163Q141 119 151 101T188 83Q244 83 269 138T294
300Q294 343 284 360T248 378Q191 378 166 324ZM259 645T353 570L322 521L310 520Q231 566 116 639L114 651L161 721L173 722Q259 645 353 570Z" />
<glyph unicode="&#xf3;" glyph-name="oacute" horiz-adv-x="436" d="M284 473Q412 447 412 308Q412 167 347 83T166 -10L154 -9Q91 5 58 47T25 165Q25 254 55 322T141 430T272 474L284 473ZM191 378T166 324T141 163Q141 119 151 101T188 83Q244 83 269 138T294
300Q294 343 284 360T248 378Q191 378 166 324ZM346 721L393 651L391 639Q279 567 198 520L186 521L154 570Q249 644 334 722L346 721Z" />
<glyph unicode="&#xf4;" glyph-name="ocircumflex" horiz-adv-x="436" d="M284 473Q412 447 412 308Q412 167 347 83T166 -10L154 -9Q91 5 58 47T25 165Q25 254 55 322T141 430T272 474L284 473ZM191 378T166 324T141 163Q141 119 151 101T188 83Q244 83 269 138T294
300Q294 343 284 360T248 378Q191 378 166 324ZM118 573Q170 617 250 694L271 714H299Q345 656 424 573L385 524H372Q314 576 277 617Q243 587 157 524H144L118 573Z" />
<glyph unicode="&#xf5;" glyph-name="otilde" horiz-adv-x="436" d="M284 473Q412 447 412 308Q412 167 347 83T166 -10L154 -9Q91 5 58 47T25 165Q25 254 55 322T141 430T272 474L284 473ZM191 378T166 324T141 163Q141 119 151 101T188 83Q244 83 269 138T294
300Q294 343 284 360T248 378Q191 378 166 324ZM447 661V650L377 562L365 557Q345 560 282 577Q277 578 250 585T211 593Q200 593 189 584T166 561T149 541H137L99 580V591L168 679L181 683Q197 681 224 674T265 664Q318 648 335 648Q347 648 358 657T380 680T397
699H409L447 661Z" />
<glyph unicode="&#xf6;" glyph-name="odieresis" horiz-adv-x="436" d="M284 473Q412 447 412 308Q412 167 347 83T166 -10L154 -9Q91 5 58 47T25 165Q25 254 55 322T141 430T272 474L284 473ZM191 378T166 324T141 163Q141 119 151 101T188 83Q244 83 269 138T294
300Q294 343 284 360T248 378Q191 378 166 324ZM214 678T229 663T244 620Q244 590 228 573T182 556Q154 556 139 571T124 615Q124 644 141 661T187 678Q214 678 229 663ZM391 678T406 663T422 620Q422 590 405 573T359 556Q331 556 316 571T301 615Q301 644 317
661T363 678Q391 678 406 663Z" />
<glyph unicode="&#xf7;" glyph-name="divide" horiz-adv-x="477" d="M292 494T307 479T323 436Q323 406 307 389T261 371Q232 371 217 386T202 430Q202 459 219 476T265 494Q292 494 307 479ZM459 296L452 217H35L26 226L33 305H450L459 296ZM251 154T266 139T282
96Q282 66 266 49T220 31Q191 31 176 46T161 90Q161 119 178 136T224 154Q251 154 266 139Z" />
<glyph unicode="&#xf8;" glyph-name="oslash" horiz-adv-x="436" d="M375 425Q412 383 412 308Q412 167 347 83T166 -10L154 -9L142 -6L78 -123L13 -89L10 -77L71 32Q25 76 25 165Q25 254 55 322T141 430T272 474L284 473Q303 468 306 467L363 570L423 536L429
524L375 425ZM244 83T269 138T294 300Q294 343 284 360T248 378Q191 378 166 324T141 163Q141 119 151 101T188 83Q244 83 269 138Z" />
<glyph unicode="&#xf9;" glyph-name="ugrave" horiz-adv-x="490" d="M457 469L407 112L404 5L281 -4L306 173H296Q256 110 223 69T154 -3H142Q95 5 66 30T38 92L39 108L78 352L84 461L207 469L160 167L158 149Q158 125 176 125Q199 125 237 175T326 323L331 356L335
460L457 469ZM279 645T373 570L342 521L330 520Q251 566 136 639L134 651L181 721L193 722Q279 645 373 570Z" />
<glyph unicode="&#xfa;" glyph-name="uacute" horiz-adv-x="490" d="M457 469L407 112L404 5L281 -4L306 173H296Q256 110 223 69T154 -3H142Q95 5 66 30T38 92L39 108L78 352L84 461L207 469L160 167L158 149Q158 125 176 125Q199 125 237 175T326 323L331 356L335
460L457 469ZM366 721L413 651L411 639Q299 567 218 520L206 521L174 570Q269 644 354 722L366 721Z" />
<glyph unicode="&#xfb;" glyph-name="ucircumflex" horiz-adv-x="490" d="M457 469L407 112L404 5L281 -4L306 173H296Q256 110 223 69T154 -3H142Q95 5 66 30T38 92L39 108L78 352L84 461L207 469L160 167L158 149Q158 125 176 125Q199 125 237 175T326 323L331
356L335 460L457 469ZM138 573Q190 617 270 694L291 714H319Q365 656 444 573L405 524H392Q334 576 297 617Q263 587 177 524H164L138 573Z" />
<glyph unicode="&#xfc;" glyph-name="udieresis" horiz-adv-x="490" d="M457 469L407 112L404 5L281 -4L306 173H296Q256 110 223 69T154 -3H142Q95 5 66 30T38 92L39 108L78 352L84 461L207 469L160 167L158 149Q158 125 176 125Q199 125 237 175T326 323L331
356L335 460L457 469ZM234 678T249 663T264 620Q264 590 248 573T202 556Q174 556 159 571T144 615Q144 644 161 661T207 678Q234 678 249 663ZM411 678T426 663T442 620Q442 590 425 573T379 556Q351 556 336 571T321 615Q321 644 337 661T383 678Q411 678 426
663Z" />
<glyph unicode="&#xfd;" glyph-name="yacute" horiz-adv-x="445" d="M441 425T441 391Q441 356 431 323T399 251L276 24Q213 -93 155 -144T26 -196Q-12 -196 -65 -180L-60 -76L-49 -65Q-8 -74 23 -74Q61 -74 90 -60T146 -16L45 460L168 469L176 384L215 134H229L296
270Q325 329 325 379Q325 414 306 443L312 455L422 471Q441 425 441 391ZM343 722L390 652L388 640Q276 568 195 521L183 522L151 571Q246 645 331 723L343 722Z" />
<glyph unicode="&#xfe;" glyph-name="thorn" horiz-adv-x="462" d="M393 451T417 411T442 308Q442 240 415 174T335 59T206 -9H200L145 2L135 -75L131 -185L8 -194L116 590L120 695L241 703L187 305H201Q257 406 321 471H339Q393 451 417 411ZM275 84T302 135T330
265Q330 352 305 352Q293 352 271 327T221 250T163 129L159 102L228 84Q275 84 302 135Z" />
<glyph unicode="&#xff;" glyph-name="ydieresis" horiz-adv-x="445" d="M441 425T441 391Q441 356 431 323T399 251L276 24Q213 -93 155 -144T26 -196Q-12 -196 -65 -180L-60 -76L-49 -65Q-8 -74 23 -74Q61 -74 90 -60T146 -16L45 460L168 469L176 384L215 134H229L296
270Q325 329 325 379Q325 414 306 443L312 455L422 471Q441 425 441 391ZM211 679T226 664T241 621Q241 591 225 574T179 557Q151 557 136 572T121 616Q121 645 138 662T184 679Q211 679 226 664ZM388 679T403 664T419 621Q419 591 402 574T356 557Q328 557 313
572T298 616Q298 645 314 662T360 679Q388 679 403 664Z" />
<glyph unicode="&#x2013;" glyph-name="endash" horiz-adv-x="461" d="M486 292L471 213H-11L-18 223L-2 302H479L486 292Z" />
<glyph unicode="&#x2014;" glyph-name="emdash" horiz-adv-x="891" d="M916 292L900 213H-11L-18 223L-2 302H908L916 292Z" />
<glyph unicode="&#x2018;" glyph-name="quoteleft" horiz-adv-x="204" d="M91 410T77 432T63 487Q63 526 85 565T154 650L200 620L201 611Q161 565 161 525Q161 501 170 485T201 456V445Q161 413 120 395Q91 410 77 432Z" />
<glyph unicode="&#x2019;" glyph-name="quoteright" horiz-adv-x="204" d="M175 634T189 612T203 557Q203 518 181 479T112 394L66 424L65 433Q105 479 105 519Q105 543 96 559T65 588V599Q105 631 146 649Q175 634 189 612Z" />
<glyph unicode="&#x201a;" glyph-name="quotesinglbase" horiz-adv-x="229" d="M164 94T164 45Q164 1 135 -41T45 -126L3 -89L2 -79Q57 -34 57 18Q57 52 26 77V89Q73 117 120 129Q164 94 164 45Z" />
<glyph unicode="&#x201c;" glyph-name="quotedblleft" horiz-adv-x="368" d="M254 410T240 432T226 487Q226 526 248 565T317 650L363 620L364 611Q324 565 324 525Q324 501 333 485T364 456V445Q324 413 283 395Q254 410 240 432ZM91 410T77 432T63 487Q63 526
85 565T154 650L200 620L201 611Q161 565 161 525Q161 501 170 485T201 456V445Q161 413 120 395Q91 410 77 432Z" />
<glyph unicode="&#x201d;" glyph-name="quotedblright" horiz-adv-x="362" d="M332 634T346 612T360 557Q360 518 338 479T269 394L223 424L222 433Q262 479 262 519Q262 543 253 559T222 588V599Q262 631 303 649Q332 634 346 612ZM175 634T189 612T203 557Q203
518 181 479T112 394L66 424L65 433Q105 479 105 519Q105 543 96 559T65 588V599Q105 631 146 649Q175 634 189 612Z" />
<glyph unicode="&#x201e;" glyph-name="quotedblbase" horiz-adv-x="392" d="M327 94T327 45Q327 1 298 -41T208 -126L166 -89L165 -79Q220 -34 220 18Q220 52 189 77V89Q236 117 283 129Q327 94 327 45ZM164 94T164 45Q164 1 135 -41T45 -126L3 -89L2 -79Q57
-34 57 18Q57 52 26 77V89Q73 117 120 129Q164 94 164 45Z" />
<glyph unicode="&#x2022;" glyph-name="bullet" horiz-adv-x="267" d="M176 329T197 307T219 247Q219 206 196 182T133 157Q93 157 72 179T51 240Q51 281 74 305T139 329Q176 329 197 307Z" />
<glyph unicode="&#x2039;" glyph-name="guilsinglleft" horiz-adv-x="243" d="M53 220L56 241L213 414L270 381L271 368L149 227L237 86L233 74L168 41L53 220Z" />
<glyph unicode="&#x203a;" glyph-name="guilsinglright" horiz-adv-x="244" d="M202 237L199 216L42 43L-15 76L-16 89L106 230L18 371L22 383L87 416L202 237Z" />
</font>
</defs>
</svg>
