<?xml version="1.0" standalone="no"?>
<!DOCTYPE svg PUBLIC "-//W3C//DTD SVG 1.1//EN" "http://www.w3.org/Graphics/SVG/1.1/DTD/svg11.dtd">
<svg xmlns="http://www.w3.org/2000/svg">
<defs >
<font id="Hind" horiz-adv-x="547" ><font-face
    font-family="Hind SemiBold"
    units-per-em="1000"
    panose-1="2 0 0 0 0 0 0 0 0 0"
    ascent="1055"
    descent="-546"
    alphabetic="0" />
<glyph unicode=" " glyph-name="space" horiz-adv-x="248" />
<glyph unicode="!" glyph-name="exclam" horiz-adv-x="275" d="M80 224V674H195V224H80ZM57 71Q57 104 79 127T136 150Q169 150 192 127T215 71Q215 37 192 15T136 -8Q102 -8 80 14T57 71Z" />
<glyph unicode="&quot;" glyph-name="quotedbl" horiz-adv-x="352" d="M42 429V681H144V429H42ZM208 429V681H311V429H208Z" />
<glyph unicode="#" glyph-name="numbersign" horiz-adv-x="739" d="M428 253L462 415H309L275 253H428ZM691 415H566L531 253H650V160H512L478 0H374L408 160H255L221 0H118L152 160H48V253H171L206 415H90V511H226L260 673H364L330 511H483L517 673H620L586 511H691V415Z"
/>
<glyph unicode="$" glyph-name="dollar" horiz-adv-x="510" d="M437 646V524Q362 569 277 569Q230 569 204 548T177 494Q177 476 185 462T214 434T249 412T296 390Q334 373 359 359T412 322T455 265T469 189Q469 111 420 60T286 -4V-115H185V-5Q102 3 46 35V164Q132
102 234 102Q280 102 308 124T336 185Q336 196 333 205T325 222T310 238T293 251T271 264T247 275T219 287T191 300Q122 332 82 374T41 489Q41 567 93 617T234 677V787H336V675Q394 667 437 646Z" />
<glyph unicode="%" glyph-name="percent" horiz-adv-x="925" d="M219 -1L590 691H701L329 -1H219ZM523 96T523 170T575 296T701 348Q774 348 826 296T879 170T827 44T701 -8Q627 -8 575 44ZM47 451T47 525T99 651T225 703T351 651T403 525Q403 452 351 400T225
347Q151 347 99 399ZM145 525Q145 493 168 470T225 446Q257 446 280 469T304 525Q304 558 281 581T225 605Q192 605 169 582T145 525ZM622 170Q622 138 645 115T701 91Q733 91 756 114T780 170Q780 203 757 226T701 250Q668 250 645 227T622 170Z" />
<glyph unicode="&amp;" glyph-name="ampersand" horiz-adv-x="727" d="M286 274L277 283Q224 265 202 242T179 185Q179 144 221 119T328 94Q392 94 444 122L286 274ZM331 588Q296 588 273 568T250 511Q250 464 326 386Q420 434 420 501Q420 541 397 564T331 588ZM724
0H572Q559 12 522 47Q440 -8 328 -8Q203 -8 130 46T56 181Q56 242 92 284T206 352Q127 437 127 510Q127 594 184 641T332 689Q428 689 485 640T542 507Q542 448 508 403T393 319L518 197Q539 235 541 288H651Q648 194 598 121Q691 30 724 0Z" />
<glyph unicode="&apos;" glyph-name="quotesingle" horiz-adv-x="186" d="M42 429V681H144V429H42Z" />
<glyph unicode="(" glyph-name="parenleft" horiz-adv-x="328" d="M344 -196H214Q52 7 52 260Q52 516 208 707H335Q260 612 220 490T179 256Q179 147 221 26T344 -196Z" />
<glyph unicode=")" glyph-name="parenright" horiz-adv-x="328" d="M120 707Q276 514 276 260Q276 8 113 -196H-16Q64 -96 106 25T148 256Q148 368 108 490T-7 707H120Z" />
<glyph unicode="*" glyph-name="asterisk" horiz-adv-x="470" d="M305 451H301Q321 438 336 417L393 338L314 281L257 359Q242 382 236 401Q230 382 214 360L156 281L77 338L135 417Q151 437 169 450H166Q144 450 121 458L28 488L59 581L151 551Q175 543 194 529Q186
550 186 577V674H284V577Q284 550 276 529Q292 542 319 551L412 581L442 488L350 458Q326 451 305 451Z" />
<glyph unicode="+" glyph-name="plus" horiz-adv-x="576" d="M526 393V285H342V102H231V285H50V393H231V578H342V393H526Z" />
<glyph unicode="," glyph-name="comma" horiz-adv-x="268" d="M-7 -126L91 121H230L97 -126H-7Z" />
<glyph unicode="-" glyph-name="hyphen" horiz-adv-x="353" d="M50 214V315H304V214H50Z" />
<glyph unicode="." glyph-name="period" horiz-adv-x="223" d="M34 38T34 70T57 124T112 147T166 125T189 70T167 15T112 -8T57 15Z" />
<glyph unicode="/" glyph-name="slash" horiz-adv-x="441" d="M-5 -103L356 707H481L119 -103H-5Z" />
<glyph unicode="0" glyph-name="zero" horiz-adv-x="546" d="M38 330Q38 485 99 575T272 666Q385 666 446 576T508 330Q508 176 448 84T272 -8Q160 -8 99 84T38 330ZM161 440T161 330T190 161T272 101Q326 101 355 160T385 330T355 499T272 557Q221 557 191 499Z" />
<glyph unicode="1" glyph-name="one" horiz-adv-x="358" d="M13 427V552L186 654H292V0H173V524L13 427Z" />
<glyph unicode="2" glyph-name="two" horiz-adv-x="498" d="M199 103H460V0H33V96Q150 179 235 273T320 444Q320 494 291 522T207 550Q124 550 48 488V605Q81 630 130 646T228 662Q324 662 384 610T445 462Q445 284 199 103Z" />
<glyph unicode="3" glyph-name="three" horiz-adv-x="476" d="M57 512V625Q125 662 200 662Q303 662 361 612T420 484Q420 371 317 330Q373 316 404 278T435 180Q435 98 375 47T205 -5Q104 -5 33 28V145Q111 103 197 103Q251 103 281 128T312 194Q312 281 171
281H133V382H171Q224 382 260 405T296 470Q296 554 193 554Q125 554 57 512Z" />
<glyph unicode="4" glyph-name="four" horiz-adv-x="554" d="M154 250H326V579L154 250ZM532 250V147H446V0H326V147H35V250L253 655H446V250H532Z" />
<glyph unicode="5" glyph-name="five" horiz-adv-x="504" d="M192 552V408Q221 414 248 414Q353 414 410 360T468 213Q468 113 402 53T217 -7Q114 -7 44 28V143Q110 103 197 103Q344 103 344 216Q344 260 313 285T223 310Q147 310 74 276V655H426V552H192Z" />
<glyph unicode="6" glyph-name="six" horiz-adv-x="533" d="M282 92Q327 92 353 124T380 211Q380 260 354 289T283 318Q218 318 165 263Q171 175 202 134T282 92ZM454 653V540Q415 560 364 560Q284 560 234 506T170 367Q230 422 312 422Q399 422 451 365T504 212Q504
113 444 49T281 -16Q164 -16 103 69T42 298Q42 464 129 566T356 669Q410 669 454 653Z" />
<glyph unicode="7" glyph-name="seven" horiz-adv-x="469" d="M17 655H452V551L192 0H64L325 551H17V655Z" />
<glyph unicode="8" glyph-name="eight" horiz-adv-x="541" d="M269 89Q323 89 351 116T379 181Q379 221 351 248T269 275Q216 274 189 246T162 177Q162 140 189 115T269 89ZM268 566Q222 566 198 540T173 475Q173 430 201 406T271 382Q312 382 339 406T367 475Q367
515 344 540T268 566ZM398 331Q500 291 500 178Q500 94 435 43T268 -9T104 40T41 173Q41 283 144 328Q51 375 51 473Q51 563 113 613T268 664Q364 664 426 616T488 473T398 331Z" />
<glyph unicode="9" glyph-name="nine" horiz-adv-x="522" d="M253 330Q322 330 364 383Q360 467 331 510T251 554Q205 554 178 524T150 442Q150 391 178 361T253 330ZM66 11V126Q118 102 172 102Q336 102 360 280Q315 230 223 230Q138 230 82 287T26 440Q26 536
85 599T245 663Q360 663 422 580T484 358Q484 179 405 86T183 -8Q118 -8 66 11Z" />
<glyph unicode=":" glyph-name="colon" horiz-adv-x="267" d="M57 372T57 404T79 458T133 481T187 459T210 404T188 350T133 327T79 349ZM57 44T57 76T79 130T133 153T187 131T210 76T188 22T133 0T79 22Z" />
<glyph unicode=";" glyph-name="semicolon" horiz-adv-x="268" d="M72 372T72 404T94 458T148 481T203 459T226 404T203 350T148 327T94 349ZM-7 -126L91 121H230L97 -126H-7Z" />
<glyph unicode="&lt;" glyph-name="less" horiz-adv-x="565" d="M50 283V398L519 580V459Q199 354 171 341Q184 335 271 305T438 248L519 221V101L50 283Z" />
<glyph unicode="=" glyph-name="equal" horiz-adv-x="576" d="M50 399V499H526V399H50ZM50 181V282H526V181H50Z" />
<glyph unicode="&gt;" glyph-name="greater" horiz-adv-x="565" d="M516 398V283L47 101V221Q365 327 394 341Q382 347 295 376T128 432L47 459V580L516 398Z" />
<glyph unicode="?" glyph-name="question" horiz-adv-x="456" d="M58 534V649Q121 682 213 682Q307 682 365 633T423 499Q423 454 405 418T360 361T303 329T247 316L245 224H134L131 381Q300 381 300 487Q300 529 274 554T197 579Q127 579 58 534ZM109 71Q109
104 131 127T188 150Q221 150 244 127T267 71Q267 37 244 15T188 -8Q154 -8 132 14T109 71Z" />
<glyph unicode="@" glyph-name="at" horiz-adv-x="950" d="M458 97Q494 97 525 123T569 199Q569 206 569 220T571 242Q564 292 539 318T475 344Q429 344 398 306T366 203Q366 155 392 126T458 97ZM640 -54L636 -159Q555 -198 448 -198Q262 -198 155 -84T48 199Q48
324 110 428T278 590T509 649Q675 649 792 546T910 272Q910 155 853 82T717 8Q609 8 578 109Q532 8 427 8Q349 8 304 65T258 209Q258 308 317 370T459 433Q539 433 578 364Q580 386 582 430H680L673 365Q664 230 664 208Q664 102 721 102Q759 102 784 146T809 264Q809
404 724 477T504 550Q355 550 256 446T156 196Q156 58 240 -20T448 -99Q550 -99 640 -54Z" />
<glyph unicode="A" glyph-name="A" horiz-adv-x="674" d="M241 256H431L422 286Q388 394 367 467T340 560L336 580Q327 530 250 285L241 256ZM511 0L463 153H208L160 0H28L256 674H419L647 0H511Z" />
<glyph unicode="B" glyph-name="B" horiz-adv-x="592" d="M196 103H304Q425 103 425 195Q425 289 299 289H196V103ZM196 571V390H272Q340 390 374 417T408 486Q408 525 380 548T293 571H196ZM70 674H309Q417 674 477 623T537 491Q537 436 507 396T430 342Q484
329 519 290T554 182Q554 102 498 51T343 0H70V674Z" />
<glyph unicode="C" glyph-name="C" horiz-adv-x="609" d="M561 646V523Q485 567 393 567T240 505T178 337T239 170T400 108Q495 108 562 158V32Q500 -8 388 -8Q238 -8 141 86T43 337Q43 490 139 586T388 683Q499 683 561 646Z" />
<glyph unicode="D" glyph-name="D" horiz-adv-x="675" d="M199 105H288Q394 105 449 170T504 346Q504 443 446 505T286 568H199V105ZM70 674H290Q441 674 537 581T633 346Q633 191 540 96T290 0H70V674Z" />
<glyph unicode="E" glyph-name="E" horiz-adv-x="528" d="M197 103H472V0H70V674H468V571H197V388H438V286H197V103Z" />
<glyph unicode="F" glyph-name="F" horiz-adv-x="499" d="M465 571H197V372H431V269H197V0H70V674H465V571Z" />
<glyph unicode="G" glyph-name="G" horiz-adv-x="693" d="M630 393V69H629L630 58Q538 -8 400 -8Q240 -8 142 85T43 338Q43 494 144 590T401 686Q516 686 598 643V514Q506 569 403 569Q302 569 240 506T178 338Q178 231 238 170T405 108Q457 108 506 126V285H382V393H630Z"
/>
<glyph unicode="H" glyph-name="H" horiz-adv-x="670" d="M473 674H600V0H473V283H196V0H70V674H196V392H473V674Z" />
<glyph unicode="I" glyph-name="I" horiz-adv-x="282" d="M78 0V674H204V0H78Z" />
<glyph unicode="J" glyph-name="J" horiz-adv-x="379" d="M30 20V134Q68 110 110 110Q187 110 187 192V673H313V192Q313 97 265 48T133 -1Q70 -1 30 20Z" />
<glyph unicode="K" glyph-name="K" horiz-adv-x="628" d="M70 0V674H196V0H70ZM356 336L607 0H448L206 334L439 674H590L356 336Z" />
<glyph unicode="L" glyph-name="L" horiz-adv-x="484" d="M196 112H459V0H70V674H196V112Z" />
<glyph unicode="M" glyph-name="M" horiz-adv-x="880" d="M58 0L112 674H256L348 429Q372 367 393 306T423 214L432 183Q463 287 518 429L612 674H756L822 0H696L672 263L654 499Q618 396 568 263L474 10H388L296 263L217 496Q217 447 204 263L184 0H58Z" />
<glyph unicode="N" glyph-name="N" horiz-adv-x="688" d="M70 0V674H213L375 393Q415 324 446 265T489 180L500 155Q492 238 492 393V674H619V0H475L311 280Q272 346 241 406T197 494L185 522Q196 427 196 281V0H70Z" />
<glyph unicode="O" glyph-name="O" horiz-adv-x="723" d="M43 339Q43 496 129 591T361 686Q508 686 594 592T680 339Q680 183 594 88T362 -7T130 88T43 339ZM178 339Q178 233 228 171T362 109Q447 109 496 170T545 339T496 508T361 570Q276 570 227 508T178 339Z" />
<glyph unicode="P" glyph-name="P" horiz-adv-x="556" d="M196 331H267Q336 331 370 364T404 453Q404 508 370 539T270 571H196V331ZM70 674H281Q395 674 463 612T532 453Q532 350 462 290T284 229H196V0H70V674Z" />
<glyph unicode="Q" glyph-name="Q" horiz-adv-x="729" d="M178 339Q178 233 228 171T362 109Q447 109 496 170T545 339T496 508T361 570Q276 570 227 508T178 339ZM717 -92L575 -147L377 -7H362Q217 -7 130 88T43 339Q43 496 129 591T361 686Q508 686 594 592T680
339Q680 229 636 148T512 27L717 -92Z" />
<glyph unicode="R" glyph-name="R" horiz-adv-x="589" d="M196 570V350H280Q338 350 367 379T396 462Q396 514 366 542T278 570H196ZM418 0L265 246H196V0H70V674H278Q393 674 458 616T524 461Q523 389 489 340T396 266L569 0H418Z" />
<glyph unicode="S" glyph-name="S" horiz-adv-x="518" d="M445 646V524Q370 569 285 569Q238 569 212 548T185 494T213 440T299 392Q339 374 364 361T418 323T462 266T477 189Q477 99 413 46T243 -8Q129 -8 54 35V164Q140 102 242 102Q288 102 316 124T344 185Q344
203 337 217T309 245T276 265T228 287Q218 292 213 294Q176 311 153 324T103 361T63 416T49 489Q49 575 112 627T281 679Q376 679 445 646Z" />
<glyph unicode="T" glyph-name="T" horiz-adv-x="520" d="M495 674V570H324V0H197V570H26V674H495Z" />
<glyph unicode="U" glyph-name="U" horiz-adv-x="659" d="M467 258V674H593V259Q593 128 523 60T329 -9Q209 -9 138 58T66 252V674H192V253Q192 176 230 142T329 107Q467 107 467 258Z" />
<glyph unicode="V" glyph-name="V" horiz-adv-x="651" d="M625 674L395 0H251L25 674H162L245 406Q270 326 290 253T318 147L325 114Q349 226 406 406L490 674H625Z" />
<glyph unicode="W" glyph-name="W" horiz-adv-x="958" d="M431 664H533L602 425L682 135Q707 274 744 426L805 674H933L761 0H615L554 213Q529 298 512 363T488 450L483 473Q469 403 413 213L350 0H205L25 674H158L221 425Q237 358 253 286T277 176L285 137Q317
263 363 425L431 664Z" />
<glyph unicode="X" glyph-name="X" horiz-adv-x="644" d="M246 341L42 674H189L318 453Q332 480 384 571T443 674H596L392 341L613 0H463L320 233Q305 204 249 111T183 0H32L246 341Z" />
<glyph unicode="Y" glyph-name="Y" horiz-adv-x="624" d="M606 674L374 250V0H248V246L18 674H165L210 576Q249 491 274 434T304 362L310 347Q319 384 413 576L459 674H606Z" />
<glyph unicode="Z" glyph-name="Z" horiz-adv-x="601" d="M531 674V581L208 103H544V0H57V96L379 571H62V674H531Z" />
<glyph unicode="[" glyph-name="bracketleft" horiz-adv-x="343" d="M332 602H185V-85H332V-191H70V707H332V602Z" />
<glyph unicode="\" glyph-name="backslash" horiz-adv-x="441" d="M85 707L446 -103H321L-41 707H85Z" />
<glyph unicode="]" glyph-name="bracketright" horiz-adv-x="343" d="M273 707V-191H11V-85H158V602H11V707H273Z" />
<glyph unicode="^" glyph-name="asciicircum" horiz-adv-x="480" d="M442 332H328L240 501L151 332H38L185 594H296L442 332Z" />
<glyph unicode="_" glyph-name="underscore" horiz-adv-x="552" d="M23 -141V-40H529V-141H23Z" />
<glyph unicode="`" glyph-name="grave" horiz-adv-x="470" d="M253 798L344 629H243L127 798H253Z" />
<glyph unicode="a" glyph-name="a" horiz-adv-x="507" d="M324 218H262Q215 218 190 199T165 149Q165 85 239 85Q279 85 301 108T324 170V218ZM78 370V481Q135 516 242 516Q448 516 448 324V0H329V61Q294 -4 197 -4Q125 -4 83 38T40 144Q40 216 94 257T250 298H324V329Q324
371 302 393T227 415Q146 415 78 370Z" />
<glyph unicode="b" glyph-name="b" horiz-adv-x="595" d="M313 96Q365 96 400 139T435 251Q435 327 400 369T312 412Q263 412 225 374T187 258Q187 179 223 138T313 96ZM187 707V430Q240 514 339 514Q434 514 495 444T557 253Q557 145 499 69T340 -7T187 78V0H66V707H187Z"
/>
<glyph unicode="c" glyph-name="c" horiz-adv-x="470" d="M161 252Q163 180 204 136T317 92Q379 92 432 126V22Q379 -9 300 -9Q183 -9 111 65T38 252Q39 363 110 439T306 515Q380 515 432 487V381Q382 413 318 413Q248 413 205 369T161 252Z" />
<glyph unicode="d" glyph-name="d" horiz-adv-x="594" d="M283 96Q337 96 373 137T409 258Q409 335 371 373T284 412Q232 412 197 370T161 251Q161 182 196 139T283 96ZM409 707H529V0H409V79Q357 -7 255 -7Q155 -7 97 69T38 253Q38 373 99 443T257 514Q356 514
409 429V707Z" />
<glyph unicode="e" glyph-name="e" horiz-adv-x="529" d="M370 295V310Q368 359 344 388T272 418Q229 418 198 387T157 295H370ZM452 132V28Q399 -5 299 -5Q178 -5 108 67T38 253Q38 374 104 443T269 512T426 452T484 277Q484 249 477 205H159Q172 150 213 121T317
92Q397 92 452 132Z" />
<glyph unicode="f" glyph-name="f" horiz-adv-x="340" d="M347 709V608Q321 618 297 618Q224 618 224 536V507H325V417H224V0H104V417H30V507H104V537Q104 622 151 670T281 718Q319 718 347 709Z" />
<glyph unicode="g" glyph-name="g" horiz-adv-x="571" d="M277 114Q326 114 359 152T392 253Q392 334 360 372T279 410Q227 410 197 370T167 260Q167 189 198 152T277 114ZM392 507H512V46Q512 -74 443 -134T266 -195Q166 -195 91 -159V-37Q159 -85 254 -85Q392
-85 392 47V91Q346 16 248 16Q163 16 103 78T42 260Q42 370 99 441T251 513Q346 513 392 434V507Z" />
<glyph unicode="h" glyph-name="h" horiz-adv-x="565" d="M185 707V421Q226 513 340 513Q414 513 459 467T505 332V0H385V311Q385 359 361 386T297 413Q254 413 220 380T185 272V0H65V707H185Z" />
<glyph unicode="i" glyph-name="i" horiz-adv-x="260" d="M70 0V507H190V0H70ZM58 659Q58 689 79 710T130 731T181 710T202 659Q202 628 181 607T130 586T79 607T58 659Z" />
<glyph unicode="j" glyph-name="j" horiz-adv-x="257" d="M-42 -181V-86Q-7 -101 19 -101Q72 -101 72 -32V507H192V-34Q192 -109 151 -153T34 -197Q-2 -197 -42 -181ZM59 659Q59 689 80 710T131 731Q162 731 183 710T204 659Q204 628 183 607T131 586Q101 586
80 607T59 659Z" />
<glyph unicode="k" glyph-name="k" horiz-adv-x="522" d="M508 0H367L185 262V0H65V695H185V269L364 507H504L318 265L508 0Z" />
<glyph unicode="l" glyph-name="l" horiz-adv-x="260" d="M70 0V707H190V0H70Z" />
<glyph unicode="m" glyph-name="m" horiz-adv-x="843" d="M185 507V427Q228 513 328 513Q439 513 472 417Q492 463 532 488T623 513Q700 513 742 467T784 334V0H663V311Q663 413 585 413Q546 413 516 379T485 272V0H364V311Q364 413 286 413Q247 413 216 379T185
272V0H65V507H185Z" />
<glyph unicode="n" glyph-name="n" horiz-adv-x="565" d="M185 507V420Q228 513 341 513Q417 513 461 467T505 337V0H385V312Q385 362 361 387T296 413Q249 413 217 377T185 272V0H65V507H185Z" />
<glyph unicode="o" glyph-name="o" horiz-adv-x="565" d="M282 -8Q167 -8 103 64T38 248Q38 364 105 439T282 515Q399 515 463 442T527 255Q527 140 463 66T282 -8ZM282 417Q225 417 195 370T164 252Q164 182 195 135T283 88Q342 88 372 134T402 251Q402 324 373
370T282 417Z" />
<glyph unicode="p" glyph-name="p" horiz-adv-x="594" d="M311 96Q365 96 399 137T433 254T399 370T313 412T223 373T185 257T222 138T311 96ZM185 507V429Q239 514 340 514Q439 514 497 443T556 256Q556 142 498 68T339 -7Q237 -7 185 76V-191H65V507H185Z" />
<glyph unicode="q" glyph-name="q" horiz-adv-x="594" d="M285 96Q336 96 372 138T409 257T372 373T282 412Q231 412 196 370T161 254T196 139T285 96ZM409 507H529V-191H409V78Q357 -7 256 -7Q156 -7 97 67T38 256Q38 372 97 443T256 514T409 429V507Z" />
<glyph unicode="r" glyph-name="r" horiz-adv-x="353" d="M185 507V417Q220 511 313 511Q334 511 347 508V392Q324 402 296 402Q247 402 216 362T185 262V0H64L65 507H185Z" />
<glyph unicode="s" glyph-name="s" horiz-adv-x="427" d="M368 491V385Q318 415 243 415Q212 415 195 402T177 367Q177 359 179 352T188 339T201 327T218 317T237 307T259 297T281 287Q334 261 365 229T396 146Q396 75 345 35T209 -5Q115 -5 57 26V136Q124 91
202 91Q235 91 253 103T272 138Q272 151 266 161T243 182T217 196T179 213Q176 214 175 215T170 217T165 219Q54 269 54 363Q54 433 107 473T240 513Q317 513 368 491Z" />
<glyph unicode="t" glyph-name="t" horiz-adv-x="379" d="M211 417V159Q211 127 228 111T275 94Q313 94 345 115V12Q310 -5 255 -5Q91 -5 91 161V417H15V507H91V629H211V507H337V417H211Z" />
<glyph unicode="u" glyph-name="u" horiz-adv-x="565" d="M379 507H500V0H379V83Q339 -5 223 -5Q146 -5 103 39T60 164V507H180V192Q180 144 203 119T268 94Q320 94 349 129T379 235V507Z" />
<glyph unicode="v" glyph-name="v" horiz-adv-x="524" d="M196 0L13 507H139L206 292Q226 229 240 180T258 112L261 94Q271 150 318 292L388 507H512L326 0H196Z" />
<glyph unicode="w" glyph-name="w" horiz-adv-x="801" d="M173 0L13 507H138L184 340Q204 268 217 212T234 135L238 115Q248 176 296 340L345 507H454L503 340Q525 266 539 210T558 134L561 114Q571 173 620 340L668 507H788L627 0H497L452 166Q434 231 421 284T404
358L400 379Q387 313 348 166L303 0H173Z" />
<glyph unicode="x" glyph-name="x" horiz-adv-x="508" d="M318 255L488 0H355L255 170L151 0H19L196 256L30 507H165L260 342L360 507H494L318 255Z" />
<glyph unicode="y" glyph-name="y" horiz-adv-x="517" d="M206 10L6 507H139L198 345Q225 273 241 224T262 162L265 148Q275 183 329 345L382 507H508L325 14Q249 -189 93 -189Q64 -189 43 -184V-85Q59 -89 77 -89Q168 -89 206 10Z" />
<glyph unicode="z" glyph-name="z" horiz-adv-x="469" d="M415 507V423L179 97H428V0H42V89L277 411H51V507H415Z" />
<glyph unicode="{" glyph-name="braceleft" horiz-adv-x="363" d="M342 704V591Q327 600 310 600Q286 600 271 582T255 537Q255 520 262 476T270 406Q270 347 237 307T152 258Q204 250 237 209T270 108Q270 82 263 39T255 -23Q255 -50 270 -67T310 -85Q327 -85
342 -76V-189Q311 -200 283 -200Q219 -200 177 -153T135 -31Q135 -7 143 34T151 94Q151 135 129 165T65 199H43V316Q54 316 65 317Q105 319 128 349T151 421Q151 439 143 480T135 546Q135 620 177 667T283 714Q313 714 342 704Z" />
<glyph unicode="|" glyph-name="bar" horiz-adv-x="260" d="M73 -194V695H187V-194H73Z" />
<glyph unicode="}" glyph-name="braceright" horiz-adv-x="363" d="M21 591V704Q50 714 79 714Q143 714 185 667T227 546Q227 522 220 481T212 421Q212 380 234 350T298 317Q308 316 320 316V199H298Q257 195 235 165T212 94Q212 75 219 34T227 -31Q227 -105 185
-152T79 -200Q52 -200 21 -189V-76Q36 -85 52 -85Q77 -85 92 -68T108 -23Q108 -5 101 38T93 108Q93 167 126 208T211 258Q159 266 126 306T93 406Q93 432 100 476T108 537Q108 564 93 582T52 600Q36 600 21 591Z" />
<glyph unicode="~" glyph-name="asciitilde" horiz-adv-x="633" d="M517 359L601 293Q534 191 440 191Q386 191 320 220T222 249Q162 249 114 187L31 254Q62 298 105 328T197 358Q258 358 324 329T418 300Q449 300 471 315T517 359Z" />
<glyph unicode="&#xa0;" glyph-name="uni00A0" horiz-adv-x="248" />
<glyph unicode="&#xa1;" glyph-name="exclamdown" horiz-adv-x="275" d="M57 438Q57 472 79 494T136 517Q169 517 192 495T215 438Q215 405 192 382T136 359Q102 359 80 382T57 438ZM80 -165V285H195V-165H80Z" />
<glyph unicode="&#xa2;" glyph-name="cent" horiz-adv-x="468" d="M428 486V382Q378 412 319 412Q249 412 205 369T159 252Q161 180 203 137T317 93Q375 93 428 124V20Q392 2 349 -4V-111H248V-4Q152 12 94 82T36 252Q37 349 93 420T248 509V618H349V511Q390 505
428 486Z" />
<glyph unicode="&#xa3;" glyph-name="sterling" horiz-adv-x="533" d="M195 103H498V0H51V100Q98 124 116 159T134 250Q134 268 133 277H52V366H122Q117 404 117 431Q117 540 174 600T340 660Q414 660 466 630V515Q418 546 363 546Q248 546 248 429Q248 410 252
366H424V277H262Q263 268 263 250Q263 146 195 103Z" />
<glyph unicode="&#xa4;" glyph-name="currency" horiz-adv-x="561" d="M57 310Q57 376 89 427L30 486L102 555L161 497Q214 530 282 530Q346 530 400 499L458 555L530 486L472 428Q504 377 504 313Q504 247 470 194L530 136L458 66L398 124Q345 93 279 93Q214
93 161 124L102 66L30 136L89 193Q57 246 57 310ZM158 312Q158 260 193 224T281 188T368 224T403 311Q403 363 369 399T281 435T193 399T158 312Z" />
<glyph unicode="&#xa5;" glyph-name="yen" horiz-adv-x="616" d="M597 655L431 361H546V283H387L369 252V210H546V132H369V0H243V132H68V210H243V252L226 283H68V361H182L18 655H165L305 380L451 655H597Z" />
<glyph unicode="&#xa6;" glyph-name="brokenbar" horiz-adv-x="260" d="M187 368H73V703H187V368ZM187 -140H73V195H187V-140Z" />
<glyph unicode="&#xa7;" glyph-name="section" horiz-adv-x="566" d="M177 294Q177 259 206 236T305 183Q359 159 368 154Q382 175 382 201Q382 214 379 224T368 244T353 260T330 276T305 290T272 307T237 324Q230 328 216 335T194 345Q177 321 177 294ZM455 647V525Q382
570 296 570Q248 570 223 553T198 504Q198 490 203 479T225 457T254 439T301 417T355 390Q403 366 431 346T481 287T503 199Q503 132 462 84Q496 42 496 -13Q496 -98 433 -145T265 -193Q149 -193 76 -150V-21Q160 -83 264 -83Q366 -83 366 -14Q366 18 337 39T202
107Q132 138 94 182T55 296Q55 360 99 411Q66 451 66 502Q66 585 127 632T292 680Q385 680 455 647Z" />
<glyph unicode="&#xa8;" glyph-name="dieresis" horiz-adv-x="470" d="M43 715Q43 744 63 764T114 784Q144 784 164 764T184 715Q184 685 164 665T114 645Q83 645 63 665T43 715ZM285 715Q285 744 305 764T356 784Q387 784 407 764T427 715Q427 685 407 665T356
645Q326 645 306 665T285 715Z" />
<glyph unicode="&#xa9;" glyph-name="copyright" horiz-adv-x="767" d="M38 337Q38 480 140 581T384 683T627 581T729 337T628 94T384 -8Q241 -8 140 93T38 337ZM124 337Q124 225 198 151T384 76Q494 76 569 151T644 337Q644 447 569 522T384 597Q273 597 199
522T124 337ZM318 336Q320 294 345 268T410 242Q454 242 490 267V183Q454 162 399 162Q323 162 273 211T222 336Q223 413 271 463T403 513Q451 513 490 492V409Q456 431 411 431Q373 431 346 406T318 336Z" />
<glyph unicode="&#xaa;" glyph-name="ordfeminine" horiz-adv-x="381" d="M248 576H198Q157 576 135 560T113 517Q113 464 176 464Q208 464 228 483T248 533V576ZM39 705V798Q91 827 178 827Q267 827 309 788T351 666V392H252V445Q218 389 140 389Q78 389 43 423T7
513Q7 574 53 609T185 644H248V669Q248 705 229 723T165 742Q95 742 39 705Z" />
<glyph unicode="&#xab;" glyph-name="guillemotleft" horiz-adv-x="549" d="M305 415L159 253L305 91H178L26 253L178 415H305ZM512 415L366 253L512 91H385L233 253L385 415H512Z" />
<glyph unicode="&#xac;" glyph-name="logicalnot" horiz-adv-x="583" d="M541 145H438V317H38V416H541V145Z" />
<glyph unicode="&#xad;" glyph-name="uni00AD" horiz-adv-x="353" d="M50 214V315H304V214H50Z" />
<glyph unicode="&#xae;" glyph-name="registered" horiz-adv-x="476" d="M218 639V577H242Q270 577 270 609Q270 639 238 639H218ZM168 681H235Q322 681 322 609Q322 563 285 545L343 453H282L233 536H218V453H168V681ZM161 387T239 387T363 434T410 559Q410 637
364 685T239 733T114 685T67 559Q67 482 114 435ZM139 787T238 787T401 723T466 559T402 397T238 333T75 396T10 559Q10 659 74 723Z" />
<glyph unicode="&#xaf;" glyph-name="overscore" horiz-adv-x="470" d="M399 667H71V750H399V667Z" />
<glyph unicode="&#xb0;" glyph-name="degree" horiz-adv-x="408" d="M30 435T30 508T80 631T204 682Q278 682 328 632T378 509T327 386T203 336T80 385ZM117 545T117 509T142 447T204 421T265 447T290 509T265 570T203 596T142 571Z" />
<glyph unicode="&#xb1;" glyph-name="plusminus" horiz-adv-x="576" d="M50 29V130H526V29H50ZM342 429H526V328H342V177H231V328H50V429H231V579H342V429Z" />
<glyph unicode="&#xb2;" glyph-name="twosuperior" horiz-adv-x="365" d="M40 392V458Q117 515 168 574T220 682Q220 743 153 743Q104 743 51 704V795Q104 828 165 828Q230 828 272 792T314 693Q314 577 156 469H329V392H40Z" />
<glyph unicode="&#xb3;" glyph-name="threesuperior" horiz-adv-x="343" d="M107 647H125Q160 647 182 660T205 699Q205 748 145 748Q96 748 50 715V801Q96 828 151 828Q220 828 259 795T298 709Q298 670 277 644T218 610Q256 607 282 580T308 509Q308 455 268
422T159 388Q84 388 35 414V495Q91 466 147 466Q179 466 197 480T215 519Q215 571 125 571H107V647Z" />
<glyph unicode="&#xb4;" glyph-name="acute" horiz-adv-x="470" d="M127 629L218 798H344L228 629H127Z" />
<glyph unicode="&#xb5;" glyph-name="uni00B5" horiz-adv-x="570" d="M385 507H505V0H385V67Q351 -5 270 -5Q224 -5 185 17V-180H65V507H185V192Q185 145 214 120T286 94Q385 94 385 235V507Z" />
<glyph unicode="&#xb6;" glyph-name="paragraph" horiz-adv-x="574" d="M310 674V-148H214V326Q119 326 68 376T16 500Q16 572 69 623T227 674H310ZM410 -148L411 674H506V-148H410Z" />
<glyph unicode="&#xb7;" glyph-name="middot" horiz-adv-x="254" d="M50 246T50 278T73 332T128 355T182 333T205 278T183 223T128 200T73 223Z" />
<glyph unicode="&#xb8;" glyph-name="cedilla" horiz-adv-x="470" d="M319 -124Q319 -183 276 -222T150 -262V-184Q229 -181 229 -117Q229 -88 204 -51H301Q319 -78 319 -124Z" />
<glyph unicode="&#xb9;" glyph-name="onesuperior" horiz-adv-x="268" d="M10 666V751L138 824H210V392H122V727L10 666Z" />
<glyph unicode="&#xba;" glyph-name="ordmasculine" horiz-adv-x="417" d="M209 386Q111 386 58 447T4 603Q4 701 60 765T209 829Q306 829 359 767T413 609Q413 512 359 449T209 386ZM207 747Q160 747 135 707T110 607T136 508T209 468Q257 468 281 506T306 605Q306
747 207 747Z" />
<glyph unicode="&#xbb;" glyph-name="guillemotright" horiz-adv-x="550" d="M164 415L315 253L164 91H37L183 253L37 415H164ZM371 415L522 253L371 91H244L390 253L244 415H371Z" />
<glyph unicode="&#xbc;" glyph-name="onequarter" horiz-adv-x="830" d="M143 279V614L31 553V639L159 711H231V279H143ZM568 711H662L226 0H131L568 711ZM560 163H666V365L560 163ZM808 163V91H752V0H666V91H471V163L616 430H752V163H808Z" />
<glyph unicode="&#xbd;" glyph-name="onehalf" horiz-adv-x="833" d="M519 0V66Q700 200 700 290Q700 320 682 335T633 351Q584 351 531 312V403Q584 436 645 436Q710 436 752 400T794 301Q794 185 636 77H808V0H519ZM31 553V639L159 711H231V279H143V614L31 553ZM131
0L568 711H662L226 0H131Z" />
<glyph unicode="&#xbe;" glyph-name="threequarters" horiz-adv-x="886" d="M56 601V688Q102 714 158 714Q227 714 266 681T305 595Q305 556 284 531T225 497Q262 493 288 466T314 396Q314 342 275 309T166 275Q91 275 42 301V382Q95 353 154 353Q186 353 204
367T222 406Q222 458 132 458H113V534H131Q167 534 189 547T211 585Q211 635 151 635Q103 635 56 601ZM622 711H717L280 0H185L622 711ZM614 163H720V365L614 163ZM862 163V91H806V0H720V91H525V163L670 430H806V163H862Z" />
<glyph unicode="&#xbf;" glyph-name="questiondown" horiz-adv-x="456" d="M423 -24V-140Q357 -172 267 -172Q172 -172 115 -124T58 11Q58 56 75 92T121 149T177 181T233 194L235 286H347L349 129Q180 129 180 23Q180 -19 206 -44T283 -70Q352 -70 423 -24ZM371
472T371 439T349 383T292 360Q259 360 236 383T213 439T236 495T292 518Q326 518 348 495Z" />
<glyph unicode="&#xc0;" glyph-name="Agrave" horiz-adv-x="674" d="M386 723H285L169 892H295L386 723ZM241 256H431L422 286Q388 394 367 467T340 560L336 580Q327 530 250 285L241 256ZM511 0L463 153H208L160 0H28L256 674H419L647 0H511Z" />
<glyph unicode="&#xc1;" glyph-name="Aacute" horiz-adv-x="674" d="M514 892L398 723H297L388 892H514ZM241 256H431L422 286Q388 394 367 467T340 560L336 580Q327 530 250 285L241 256ZM511 0L463 153H208L160 0H28L256 674H419L647 0H511Z" />
<glyph unicode="&#xc2;" glyph-name="Acircumflex" horiz-adv-x="674" d="M339 822L258 723H141L286 892H392L537 723H420L339 822ZM241 256H431L422 286Q388 394 367 467T340 560L336 580Q327 530 250 285L241 256ZM511 0L463 153H208L160 0H28L256 674H419L647 0H511Z" />
<glyph unicode="&#xc3;" glyph-name="Atilde" horiz-adv-x="674" d="M462 877L526 826Q487 747 404 747Q374 747 335 766T281 785Q257 785 242 776T209 741L152 794Q168 827 197 849T263 872Q297 872 338 853T398 834Q441 834 462 877ZM241 256H431L422 286Q388
394 367 467T340 560L336 580Q327 530 250 285L241 256ZM511 0L463 153H208L160 0H28L256 674H419L647 0H511Z" />
<glyph unicode="&#xc4;" glyph-name="Adieresis" horiz-adv-x="674" d="M464 739Q434 739 414 759T393 809Q393 838 413 858T464 878Q495 878 515 858T535 809Q535 779 515 759T464 739ZM222 739Q191 739 171 759T151 809Q151 838 171 858T222 878Q252 878 272
858T292 809Q292 779 272 759T222 739ZM241 256H431L422 286Q388 394 367 467T340 560L336 580Q327 530 250 285L241 256ZM511 0L463 153H208L160 0H28L256 674H419L647 0H511Z" />
<glyph unicode="&#xc5;" glyph-name="Aring" horiz-adv-x="674" d="M364 894T341 894T303 878T288 839T303 801T341 784T379 800T394 839T379 877ZM393 712T341 712T253 748T216 837T252 925T341 962T429 926T466 837T430 749ZM241 256H431L422 286Q388 394 367
467T340 560L336 580Q327 530 250 285L241 256ZM511 0L463 153H208L160 0H28L256 674H419L647 0H511Z" />
<glyph unicode="&#xc6;" glyph-name="AE" horiz-adv-x="917" d="M283 256H463V611Q416 501 298 285L283 256ZM586 103H861V0H463V153H228L147 0H14L361 674H857V571H586V388H827V286H586V103Z" />
<glyph unicode="&#xc7;" glyph-name="Ccedilla" horiz-adv-x="609" d="M324 -51H421Q439 -78 439 -124Q439 -183 396 -222T270 -262V-184Q349 -181 349 -117Q349 -88 324 -51ZM561 646V523Q485 567 393 567T240 505T178 337T239 170T400 108Q495 108 562 158V32Q500
-8 388 -8Q238 -8 141 86T43 337Q43 490 139 586T388 683Q499 683 561 646Z" />
<glyph unicode="&#xc8;" glyph-name="Egrave" horiz-adv-x="528" d="M336 723H235L119 892H245L336 723ZM197 103H472V0H70V674H468V571H197V388H438V286H197V103Z" />
<glyph unicode="&#xc9;" glyph-name="Eacute" horiz-adv-x="528" d="M448 892L332 723H231L322 892H448ZM197 103H472V0H70V674H468V571H197V388H438V286H197V103Z" />
<glyph unicode="&#xca;" glyph-name="Ecircumflex" horiz-adv-x="528" d="M273 822L192 723H75L220 892H326L471 723H354L273 822ZM197 103H472V0H70V674H468V571H197V388H438V286H197V103Z" />
<glyph unicode="&#xcb;" glyph-name="Edieresis" horiz-adv-x="528" d="M392 737Q362 737 342 757T321 807Q321 836 341 856T392 876Q423 876 443 856T463 807Q463 777 443 757T392 737ZM150 737Q119 737 99 757T79 807Q79 836 99 856T150 876Q180 876 200 856T220
807Q220 777 200 757T150 737ZM197 103H472V0H70V674H468V571H197V388H438V286H197V103Z" />
<glyph unicode="&#xcc;" glyph-name="Igrave" horiz-adv-x="282" d="M78 0V674H204V0H78ZM96 892L187 723H86L-30 892H96Z" />
<glyph unicode="&#xcd;" glyph-name="Iacute" horiz-adv-x="282" d="M78 0V674H204V0H78ZM94 723L185 892H311L195 723H94Z" />
<glyph unicode="&#xce;" glyph-name="Icircumflex" horiz-adv-x="282" d="M90 892H196L341 723H224L143 822L62 723H-55L90 892ZM78 0V674H204V0H78Z" />
<glyph unicode="&#xcf;" glyph-name="Idieresis" horiz-adv-x="282" d="M78 0V674H204V0H78ZM-46 808Q-46 837 -26 857T25 877Q55 877 75 857T95 808Q95 778 75 758T25 738Q-6 738 -26 758T-46 808ZM196 808Q196 837 216 857T267 877Q298 877 318 857T338 808Q338
778 318 758T267 738Q237 738 217 758T196 808Z" />
<glyph unicode="&#xd0;" glyph-name="Eth" horiz-adv-x="742" d="M266 105H355Q461 105 516 170T572 346Q572 443 513 505T353 568H266V385H418V282H266V105ZM137 674H357Q508 674 604 581T700 346Q700 190 608 95T357 0H137V282H64V385H137V674Z" />
<glyph unicode="&#xd1;" glyph-name="Ntilde" horiz-adv-x="688" d="M70 0V674H213L375 393Q415 324 446 265T489 180L500 155Q492 238 492 393V674H619V0H475L311 280Q272 346 241 406T197 494L185 522Q196 427 196 281V0H70ZM473 877L537 826Q498 747 415 747Q384
747 346 766T292 785Q268 785 253 776T220 741L163 794Q179 827 208 849T274 872Q308 872 349 853T409 834Q452 834 473 877Z" />
<glyph unicode="&#xd2;" glyph-name="Ograve" horiz-adv-x="723" d="M43 339Q43 496 129 591T361 686Q508 686 594 592T680 339Q680 183 594 88T362 -7T130 88T43 339ZM178 339Q178 233 228 171T362 109Q447 109 496 170T545 339T496 508T361 570Q276 570 227
508T178 339ZM330 892L421 723H320L204 892H330Z" />
<glyph unicode="&#xd3;" glyph-name="Oacute" horiz-adv-x="723" d="M316 723L407 892H533L417 723H316ZM43 339Q43 496 129 591T361 686Q508 686 594 592T680 339Q680 183 594 88T362 -7T130 88T43 339ZM178 339Q178 233 228 171T362 109Q447 109 496 170T545
339T496 508T361 570Q276 570 227 508T178 339Z" />
<glyph unicode="&#xd4;" glyph-name="Ocircumflex" horiz-adv-x="723" d="M178 339Q178 233 228 171T362 109Q447 109 496 170T545 339T496 508T361 570Q276 570 227 508T178 339ZM43 339Q43 496 129 591T361 686Q508 686 594 592T680 339Q680 183 594 88T362
-7T130 88T43 339ZM314 892H420L565 723H448L367 822L286 723H169L314 892Z" />
<glyph unicode="&#xd5;" glyph-name="Otilde" horiz-adv-x="723" d="M43 339Q43 496 129 591T361 686Q508 686 594 592T680 339Q680 183 594 88T362 -7T130 88T43 339ZM178 339Q178 233 228 171T362 109Q447 109 496 170T545 339T496 508T361 570Q276 570 227
508T178 339ZM485 877L549 826Q510 747 427 747Q396 747 358 766T304 785Q280 785 265 776T232 741L175 794Q191 827 220 849T286 872Q320 872 361 853T421 834Q464 834 485 877Z" />
<glyph unicode="&#xd6;" glyph-name="Odieresis" horiz-adv-x="723" d="M176 809Q176 838 196 858T247 878Q277 878 297 858T317 809Q317 779 297 759T247 739Q216 739 196 759T176 809ZM418 809Q418 838 438 858T489 878Q520 878 540 858T560 809Q560 779 540
759T489 739Q459 739 439 759T418 809ZM43 339Q43 496 129 591T361 686Q508 686 594 592T680 339Q680 183 594 88T362 -7T130 88T43 339ZM178 339Q178 233 228 171T362 109Q447 109 496 170T545 339T496 508T361 570Q276 570 227 508T178 339Z" />
<glyph unicode="&#xd7;" glyph-name="multiply" horiz-adv-x="515" d="M465 469L335 339L465 209L388 133L258 262L129 134L51 212L179 340L48 471L125 548L256 417L386 547L465 469Z" />
<glyph unicode="&#xd8;" glyph-name="Oslash" horiz-adv-x="699" d="M520 474L264 128Q302 103 358 103Q445 103 495 166T546 339Q546 417 520 474ZM196 203L454 550Q413 576 357 576Q270 576 220 513T169 339Q169 260 196 203ZM677 685L599 580Q676 488 676 339Q676
183 590 88T358 -7Q264 -7 194 34L163 -8H40L118 97Q39 190 39 339Q39 496 125 591T357 686Q451 686 524 644L554 685H677Z" />
<glyph unicode="&#xd9;" glyph-name="Ugrave" horiz-adv-x="659" d="M467 258V674H593V259Q593 128 523 60T329 -9Q209 -9 138 58T66 252V674H192V253Q192 176 230 142T329 107Q467 107 467 258ZM295 892L386 723H285L169 892H295Z" />
<glyph unicode="&#xda;" glyph-name="Uacute" horiz-adv-x="659" d="M292 723L383 892H509L393 723H292ZM467 258V674H593V259Q593 128 523 60T329 -9Q209 -9 138 58T66 252V674H192V253Q192 176 230 142T329 107Q467 107 467 258Z" />
<glyph unicode="&#xdb;" glyph-name="Ucircumflex" horiz-adv-x="659" d="M467 258V674H593V259Q593 128 523 60T329 -9Q209 -9 138 58T66 252V674H192V253Q192 176 230 142T329 107Q467 107 467 258ZM276 892H382L527 723H410L329 822L248 723H131L276 892Z" />
<glyph unicode="&#xdc;" glyph-name="Udieresis" horiz-adv-x="659" d="M141 808Q141 837 161 857T212 877Q242 877 262 857T282 808Q282 778 262 758T212 738Q181 738 161 758T141 808ZM383 808Q383 837 403 857T454 877Q485 877 505 857T525 808Q525 778 505
758T454 738Q424 738 404 758T383 808ZM467 258V674H593V259Q593 128 523 60T329 -9Q209 -9 138 58T66 252V674H192V253Q192 176 230 142T329 107Q467 107 467 258Z" />
<glyph unicode="&#xdd;" glyph-name="Yacute" horiz-adv-x="624" d="M494 892L378 723H277L368 892H494ZM606 674L374 250V0H248V246L18 674H165L210 576Q249 491 274 434T304 362L310 347Q319 384 413 576L459 674H606Z" />
<glyph unicode="&#xde;" glyph-name="Thorn" horiz-adv-x="553" d="M196 217H275Q338 217 369 250T401 334Q401 386 370 421T271 456H196V217ZM196 559H278Q394 559 461 497T529 338Q529 235 460 175T281 115H196V0H70V674H196V559Z" />
<glyph unicode="&#xdf;" glyph-name="germandbls" horiz-adv-x="576" d="M272 11V117Q317 89 367 89Q399 89 419 105T439 148T416 199T366 240T315 286T292 351Q292 391 325 439T358 517Q358 547 338 565T282 583Q184 583 184 481V0H66V474Q66 579 121 634T278
690Q369 690 424 642T480 526Q480 485 464 454T433 402T417 363Q417 348 438 329T485 292T531 236T553 151Q553 80 506 36T377 -8Q305 -8 272 11Z" />
<glyph unicode="&#xe0;" glyph-name="agrave" horiz-adv-x="507" d="M313 556H212L96 725H222L313 556ZM324 218H262Q215 218 190 199T165 149Q165 85 239 85Q279 85 301 108T324 170V218ZM78 370V481Q135 516 242 516Q448 516 448 324V0H329V61Q294 -4 197 -4Q125
-4 83 38T40 144Q40 216 94 257T250 298H324V329Q324 371 302 393T227 415Q146 415 78 370Z" />
<glyph unicode="&#xe1;" glyph-name="aacute" horiz-adv-x="507" d="M422 725L306 556H205L296 725H422ZM324 218H262Q215 218 190 199T165 149Q165 85 239 85Q279 85 301 108T324 170V218ZM78 370V481Q135 516 242 516Q448 516 448 324V0H329V61Q294 -4 197 -4Q125
-4 83 38T40 144Q40 216 94 257T250 298H324V329Q324 371 302 393T227 415Q146 415 78 370Z" />
<glyph unicode="&#xe2;" glyph-name="acircumflex" horiz-adv-x="507" d="M255 655L174 556H57L202 725H308L453 556H336L255 655ZM324 218H262Q215 218 190 199T165 149Q165 85 239 85Q279 85 301 108T324 170V218ZM78 370V481Q135 516 242 516Q448 516 448 324V0H329V61Q294
-4 197 -4Q125 -4 83 38T40 144Q40 216 94 257T250 298H324V329Q324 371 302 393T227 415Q146 415 78 370Z" />
<glyph unicode="&#xe3;" glyph-name="atilde" horiz-adv-x="507" d="M377 710L441 659Q402 580 319 580Q288 580 250 599T196 618Q172 618 157 609T124 574L67 627Q83 660 112 682T178 705Q212 705 253 686T313 667Q356 667 377 710ZM324 218H262Q215 218 190
199T165 149Q165 85 239 85Q279 85 301 108T324 170V218ZM78 370V481Q135 516 242 516Q448 516 448 324V0H329V61Q294 -4 197 -4Q125 -4 83 38T40 144Q40 216 94 257T250 298H324V329Q324 371 302 393T227 415Q146 415 78 370Z" />
<glyph unicode="&#xe4;" glyph-name="adieresis" horiz-adv-x="507" d="M381 570Q351 570 331 590T310 640Q310 669 330 689T381 709Q412 709 432 689T452 640Q452 610 432 590T381 570ZM139 570Q108 570 88 590T68 640Q68 669 88 689T139 709Q169 709 189 689T209
640Q209 610 189 590T139 570ZM324 218H262Q215 218 190 199T165 149Q165 85 239 85Q279 85 301 108T324 170V218ZM78 370V481Q135 516 242 516Q448 516 448 324V0H329V61Q294 -4 197 -4Q125 -4 83 38T40 144Q40 216 94 257T250 298H324V329Q324 371 302 393T227
415Q146 415 78 370Z" />
<glyph unicode="&#xe5;" glyph-name="aring" horiz-adv-x="507" d="M281 727T258 727T220 711T205 672T220 634T258 617T296 633T311 672T296 710ZM310 545T258 545T170 581T133 670T169 758T258 795T346 759T383 670T347 582ZM324 218H262Q215 218 190 199T165
149Q165 85 239 85Q279 85 301 108T324 170V218ZM78 370V481Q135 516 242 516Q448 516 448 324V0H329V61Q294 -4 197 -4Q125 -4 83 38T40 144Q40 216 94 257T250 298H324V329Q324 371 302 393T227 415Q146 415 78 370Z" />
<glyph unicode="&#xe6;" glyph-name="ae" horiz-adv-x="812" d="M329 173V217H272Q223 217 197 199T170 149Q170 86 244 86Q282 86 305 109T329 173ZM658 295V309Q656 360 632 389T562 418Q520 418 488 387T446 295H658ZM765 205H449Q462 151 504 122T605 92Q684
92 739 132V28Q685 -5 592 -5Q532 -5 478 20T394 92Q376 51 332 24T217 -4Q136 -4 91 35T45 143Q45 216 99 257T256 298H329V329Q329 371 307 393T232 415Q149 415 83 370V481Q143 516 240 516Q359 516 395 435Q447 512 559 512Q659 512 715 452T772 275Q772 249
765 205Z" />
<glyph unicode="&#xe7;" glyph-name="ccedilla" horiz-adv-x="470" d="M161 252Q163 180 204 136T317 92Q379 92 432 126V22Q379 -9 300 -9Q183 -9 111 65T38 252Q39 363 110 439T306 515Q380 515 432 487V381Q382 413 318 413Q248 413 205 369T161 252ZM358 -124Q358
-183 315 -222T189 -262V-184Q268 -181 268 -117Q268 -88 243 -51H340Q358 -78 358 -124Z" />
<glyph unicode="&#xe8;" glyph-name="egrave" horiz-adv-x="529" d="M329 556H228L112 725H238L329 556ZM370 295V310Q368 359 344 388T272 418Q229 418 198 387T157 295H370ZM452 132V28Q399 -5 299 -5Q178 -5 108 67T38 253Q38 374 104 443T269 512T426 452T484
277Q484 249 477 205H159Q172 150 213 121T317 92Q397 92 452 132Z" />
<glyph unicode="&#xe9;" glyph-name="eacute" horiz-adv-x="529" d="M452 725L336 556H235L326 725H452ZM370 295V310Q368 359 344 388T272 418Q229 418 198 387T157 295H370ZM452 132V28Q399 -5 299 -5Q178 -5 108 67T38 253Q38 374 104 443T269 512T426 452T484
277Q484 249 477 205H159Q172 150 213 121T317 92Q397 92 452 132Z" />
<glyph unicode="&#xea;" glyph-name="ecircumflex" horiz-adv-x="529" d="M274 655L193 556H76L221 725H327L472 556H355L274 655ZM370 295V310Q368 359 344 388T272 418Q229 418 198 387T157 295H370ZM452 132V28Q399 -5 299 -5Q178 -5 108 67T38 253Q38 374
104 443T269 512T426 452T484 277Q484 249 477 205H159Q172 150 213 121T317 92Q397 92 452 132Z" />
<glyph unicode="&#xeb;" glyph-name="edieresis" horiz-adv-x="529" d="M404 571Q374 571 354 591T333 641Q333 670 353 690T404 710Q435 710 455 690T475 641Q475 611 455 591T404 571ZM162 571Q131 571 111 591T91 641Q91 670 111 690T162 710Q192 710 212 690T232
641Q232 611 212 591T162 571ZM370 295V310Q368 359 344 388T272 418Q229 418 198 387T157 295H370ZM452 132V28Q399 -5 299 -5Q178 -5 108 67T38 253Q38 374 104 443T269 512T426 452T484 277Q484 249 477 205H159Q172 150 213 121T317 92Q397 92 452 132Z" />
<glyph unicode="&#xec;" glyph-name="igrave" horiz-adv-x="260" d="M70 0V507H190V0H70ZM81 725L172 556H71L-45 725H81Z" />
<glyph unicode="&#xed;" glyph-name="iacute" horiz-adv-x="260" d="M70 0V507H190V0H70ZM86 556L177 725H303L187 556H86Z" />
<glyph unicode="&#xee;" glyph-name="icircumflex" horiz-adv-x="260" d="M78 725H184L329 556H212L131 655L50 556H-67L78 725ZM70 0V507H190V0H70Z" />
<glyph unicode="&#xef;" glyph-name="idieresis" horiz-adv-x="260" d="M70 0V507H190V0H70ZM-61 642Q-61 671 -41 691T10 711Q40 711 60 691T80 642Q80 612 60 592T10 572Q-21 572 -41 592T-61 642ZM181 642Q181 671 201 691T252 711Q283 711 303 691T323 642Q323
612 303 592T252 572Q222 572 202 592T181 642Z" />
<glyph unicode="&#xf0;" glyph-name="eth" horiz-adv-x="542" d="M261 99Q364 99 375 243Q326 300 258 300Q213 300 187 273T160 196Q160 152 187 126T261 99ZM471 606L397 569Q495 437 495 282Q495 146 435 68T262 -10Q158 -10 97 52T36 203Q36 295 91 349T231
404Q316 404 372 348Q358 439 300 521L159 450V524L257 573Q207 626 129 674H290Q322 653 354 621L471 679V606Z" />
<glyph unicode="&#xf1;" glyph-name="ntilde" horiz-adv-x="565" d="M410 710L474 659Q435 580 352 580Q322 580 283 599T229 618Q205 618 190 609T157 574L100 627Q116 660 145 682T211 705Q245 705 286 686T346 667Q389 667 410 710ZM185 507V420Q228 513 341
513Q417 513 461 467T505 337V0H385V312Q385 362 361 387T296 413Q249 413 217 377T185 272V0H65V507H185Z" />
<glyph unicode="&#xf2;" glyph-name="ograve" horiz-adv-x="565" d="M282 -8Q167 -8 103 64T38 248Q38 364 105 439T282 515Q399 515 463 442T527 255Q527 140 463 66T282 -8ZM282 417Q225 417 195 370T164 252Q164 182 195 135T283 88Q342 88 372 134T402 251Q402
324 373 370T282 417ZM249 725L340 556H239L123 725H249Z" />
<glyph unicode="&#xf3;" glyph-name="oacute" horiz-adv-x="565" d="M244 556L335 725H461L345 556H244ZM282 -8Q167 -8 103 64T38 248Q38 364 105 439T282 515Q399 515 463 442T527 255Q527 140 463 66T282 -8ZM282 417Q225 417 195 370T164 252Q164 182 195
135T283 88Q342 88 372 134T402 251Q402 324 373 370T282 417Z" />
<glyph unicode="&#xf4;" glyph-name="ocircumflex" horiz-adv-x="565" d="M282 417Q225 417 195 370T164 252Q164 182 195 135T283 88Q342 88 372 134T402 251Q402 324 373 370T282 417ZM282 -8Q167 -8 103 64T38 248Q38 364 105 439T282 515Q399 515 463 442T527
255Q527 140 463 66T282 -8ZM233 724H339L484 555H367L286 654L205 555H88L233 724Z" />
<glyph unicode="&#xf5;" glyph-name="otilde" horiz-adv-x="565" d="M282 -8Q167 -8 103 64T38 248Q38 364 105 439T282 515Q399 515 463 442T527 255Q527 140 463 66T282 -8ZM282 417Q225 417 195 370T164 252Q164 182 195 135T283 88Q342 88 372 134T402 251Q402
324 373 370T282 417ZM409 710L473 659Q434 580 351 580Q320 580 282 599T228 618Q204 618 189 609T156 574L99 627Q115 660 144 682T210 705Q244 705 285 686T345 667Q388 667 409 710Z" />
<glyph unicode="&#xf6;" glyph-name="odieresis" horiz-adv-x="565" d="M101 641Q101 670 121 690T172 710Q202 710 222 690T242 641Q242 611 222 591T172 571Q141 571 121 591T101 641ZM343 641Q343 670 363 690T414 710Q445 710 465 690T485 641Q485 611 465
591T414 571Q384 571 364 591T343 641ZM282 -8Q167 -8 103 64T38 248Q38 364 105 439T282 515Q399 515 463 442T527 255Q527 140 463 66T282 -8ZM282 417Q225 417 195 370T164 252Q164 182 195 135T283 88Q342 88 372 134T402 251Q402 324 373 370T282 417Z" />
<glyph unicode="&#xf7;" glyph-name="divide" horiz-adv-x="576" d="M218 490T218 517T237 564T285 584Q312 584 332 564T352 517T332 470T285 450Q257 450 238 470ZM50 286V394H526V286H50ZM218 136T218 163T237 210T285 230Q312 230 332 210T352 163T332 116T285
96Q257 96 238 116Z" />
<glyph unicode="&#xf8;" glyph-name="oslash" horiz-adv-x="562" d="M406 343L224 94Q251 76 288 76Q353 76 386 125T420 251Q420 305 406 343ZM170 165L351 414Q326 429 287 429Q223 429 189 379T155 252Q155 204 170 165ZM532 515L474 435Q532 363 532 255Q532
140 468 66T287 -8Q218 -8 168 18L149 -8H43L101 71Q43 141 43 248Q43 363 110 439T287 515Q356 515 406 489L425 515H532Z" />
<glyph unicode="&#xf9;" glyph-name="ugrave" horiz-adv-x="565" d="M333 555H232L116 724H242L333 555ZM379 507H500V0H379V83Q339 -5 223 -5Q146 -5 103 39T60 164V507H180V192Q180 144 203 119T268 94Q320 94 349 129T379 235V507Z" />
<glyph unicode="&#xfa;" glyph-name="uacute" horiz-adv-x="565" d="M456 725L340 556H239L330 725H456ZM379 507H500V0H379V83Q339 -5 223 -5Q146 -5 103 39T60 164V507H180V192Q180 144 203 119T268 94Q320 94 349 129T379 235V507Z" />
<glyph unicode="&#xfb;" glyph-name="ucircumflex" horiz-adv-x="565" d="M281 655L200 556H83L228 725H334L479 556H362L281 655ZM379 507H500V0H379V83Q339 -5 223 -5Q146 -5 103 39T60 164V507H180V192Q180 144 203 119T268 94Q320 94 349 129T379 235V507Z" />
<glyph unicode="&#xfc;" glyph-name="udieresis" horiz-adv-x="565" d="M402 571Q372 571 352 591T331 641Q331 670 351 690T402 710Q433 710 453 690T473 641Q473 611 453 591T402 571ZM160 571Q129 571 109 591T89 641Q89 670 109 690T160 710Q190 710 210 690T230
641Q230 611 210 591T160 571ZM379 507H500V0H379V83Q339 -5 223 -5Q146 -5 103 39T60 164V507H180V192Q180 144 203 119T268 94Q320 94 349 129T379 235V507Z" />
<glyph unicode="&#xfd;" glyph-name="yacute" horiz-adv-x="517" d="M224 556L315 725H441L325 556H224ZM206 10L6 507H139L198 345Q225 273 241 224T262 162L265 148Q275 183 329 345L382 507H508L325 14Q249 -189 93 -189Q64 -189 43 -184V-85Q59 -89 77 -89Q168
-89 206 10Z" />
<glyph unicode="&#xfe;" glyph-name="thorn" horiz-adv-x="594" d="M311 96Q365 96 399 137T433 254T399 370T313 412T223 373T185 257T222 138T311 96ZM185 707V429Q239 514 340 514Q439 514 497 443T556 256Q556 142 498 68T339 -7Q237 -7 185 76V-191H65V707H185Z" />
<glyph unicode="&#xff;" glyph-name="ydieresis" horiz-adv-x="517" d="M318 641Q318 670 338 690T389 710Q420 710 440 690T460 641Q460 611 440 591T389 571Q359 571 339 591T318 641ZM76 641Q76 670 96 690T147 710Q177 710 197 690T217 641Q217 611 197 591T147
571Q116 571 96 591T76 641ZM206 10L6 507H139L198 345Q225 273 241 224T262 162L265 148Q275 183 329 345L382 507H508L325 14Q249 -189 93 -189Q64 -189 43 -184V-85Q59 -89 77 -89Q168 -89 206 10Z" />
<glyph unicode="&#x2013;" glyph-name="endash" horiz-adv-x="549" d="M50 223V315H500V223H50Z" />
<glyph unicode="&#x2014;" glyph-name="emdash" horiz-adv-x="831" d="M50 226V318H781V226H50Z" />
<glyph unicode="&#x2018;" glyph-name="quoteleft" horiz-adv-x="234" d="M252 694L158 447H21L151 694H252Z" />
<glyph unicode="&#x2019;" glyph-name="quoteright" horiz-adv-x="234" d="M22 447L116 694H253L124 447H22Z" />
<glyph unicode="&#x201a;" glyph-name="quotesinglbase" horiz-adv-x="234" d="M-4 -126L91 121H228L98 -126H-4Z" />
<glyph unicode="&#x201c;" glyph-name="quotedblleft" horiz-adv-x="403" d="M253 694L156 447H21L155 694H253ZM422 694L331 447H204L324 694H422Z" />
<glyph unicode="&#x201d;" glyph-name="quotedblright" horiz-adv-x="403" d="M191 447L288 694H423L289 447H191ZM22 447L113 694H239L120 447H22Z" />
<glyph unicode="&#x201e;" glyph-name="quotedblbase" horiz-adv-x="403" d="M169 -126L265 121H400L267 -126H169ZM0 -126L91 121H217L98 -126H0Z" />
<glyph unicode="&#x2022;" glyph-name="bullet" horiz-adv-x="434" d="M85 299T85 356T122 451T217 489Q273 489 311 451T350 356T312 262T218 223Q161 223 123 261Z" />
<glyph unicode="&#x2039;" glyph-name="guilsinglleft" horiz-adv-x="344" d="M306 415L160 253L306 91H179L27 253L179 415H306Z" />
<glyph unicode="&#x203a;" glyph-name="guilsinglright" horiz-adv-x="343" d="M165 415L317 253L165 91H38L184 253L38 415H165Z" />
</font>
</defs>
</svg>
