<?xml version="1.0" standalone="no"?>
<!DOCTYPE svg PUBLIC "-//W3C//DTD SVG 1.1//EN" "http://www.w3.org/Graphics/SVG/1.1/DTD/svg11.dtd">
<svg xmlns="http://www.w3.org/2000/svg">
<defs >
<font id="Cuprum" horiz-adv-x="476" ><font-face
    font-family="Cuprum"
    units-per-em="1000"
    panose-1="0 0 8 0 0 0 0 0 0 0"
    ascent="895"
    descent="-260"
    alphabetic="0" />
<glyph unicode=" " glyph-name="space" horiz-adv-x="250" />
<glyph unicode="!" glyph-name="exclam" horiz-adv-x="260" d="M80 185L60 700H200L180 185H80ZM70 -10V110H190V-10H70Z" />
<glyph unicode="&quot;" glyph-name="quotedbl" horiz-adv-x="370" d="M65 465L40 700H160L135 465H65ZM235 465L210 700H330L305 465H235Z" />
<glyph unicode="#" glyph-name="numbersign" horiz-adv-x="590" d="M80 0L110 195H20V275H124L147 425H50V505H160L190 700H305L275 505H365L395 700H510L480 505H570V425H466L443 275H540V195H430L400 0H285L315 195H225L195 0H80ZM228 275H339L362 425H251L228 275Z" />
<glyph unicode="$" glyph-name="dollar" horiz-adv-x="465" d="M200 -10H195Q146 -10 103 -4T35 10V65H175Q192 65 200 66V308Q145 334 112 356T54 421T30 530Q30 606 73 653T200 708V790H270V709Q344 706 395 690V635H270V392Q325 365 357 344T412 283T435 180Q435
22 270 -4V-90H200V-10ZM200 623Q150 596 150 530Q150 497 163 474T200 432V623ZM315 113T315 180Q315 234 270 269V85Q315 113 315 180Z" />
<glyph unicode="%" glyph-name="percent" horiz-adv-x="720" d="M109 410T67 451T25 560Q25 628 67 669T180 710Q251 710 293 669T335 560Q335 492 293 451T180 410Q109 410 67 451ZM105 0L495 700H615L225 0H105ZM204 480T219 500T235 560Q235 599 220 619T180
640Q156 640 141 620T125 560Q125 521 140 501T180 480Q204 480 219 500ZM469 -10T427 31T385 140Q385 208 427 249T540 290Q611 290 653 249T695 140Q695 72 653 31T540 -10Q469 -10 427 31ZM564 60T579 80T595 140Q595 179 580 199T540 220Q516 220 501 200T485
140Q485 101 500 81T540 60Q564 60 579 80Z" />
<glyph unicode="&amp;" glyph-name="ampersand" horiz-adv-x="545" d="M130 -10T83 40T35 180Q35 223 41 264T55 330H150V180Q150 117 170 91T215 65Q238 65 259 89T295 160Q225 258 188 320T136 431T120 530Q120 613 169 661T305 710Q354 710 397 704T465 690V635H325Q290
635 265 606T240 530Q240 474 260 419T340 275L385 390H505L415 170L535 0H405L358 68Q332 27 298 9T210 -10Q130 -10 83 40Z" />
<glyph unicode="&apos;" glyph-name="quotesingle" horiz-adv-x="200" d="M65 465L40 700H160L135 465H65Z" />
<glyph unicode="(" glyph-name="parenleft" horiz-adv-x="266" d="M127 -86T89 41T50 280Q50 392 88 519T210 750L266 720Q220 615 200 512T180 280Q180 152 200 49T266 -160L210 -190Q127 -86 89 41Z" />
<glyph unicode=")" glyph-name="parenright" horiz-adv-x="266" d="M0 -160Q46 -55 66 48T86 280Q86 408 66 511T0 720L56 750Q139 646 177 519T216 280Q216 168 178 41T56 -190L0 -160Z" />
<glyph unicode="*" glyph-name="asterisk" horiz-adv-x="450" d="M163 310L77 357L139 474L20 500L42 592L175 563V700H275V563L408 592L430 500L311 474L373 357L287 310L225 428L163 310Z" />
<glyph unicode="+" glyph-name="plus" horiz-adv-x="450" d="M180 90V260H30V340H180V510H270V340H420V260H270V90H180Z" />
<glyph unicode="," glyph-name="comma" horiz-adv-x="195" d="M40 -120V110H160L120 -120H40Z" />
<glyph unicode="-" glyph-name="hyphen" horiz-adv-x="380" d="M30 260V340H350V260H30Z" />
<glyph unicode="." glyph-name="period" horiz-adv-x="200" d="M40 -10V110H160V-10H40Z" />
<glyph unicode="/" glyph-name="slash" horiz-adv-x="420" d="M0 0L300 700H420L120 0H0Z" />
<glyph unicode="0" glyph-name="zero" horiz-adv-x="530" d="M161 -10T103 74T45 350Q45 542 103 626T265 710Q370 710 427 626T485 350Q485 158 428 74T265 -10Q161 -10 103 74ZM306 60T335 125T365 350Q365 509 336 574T265 640Q224 640 195 575T165 350Q165
191 194 126T265 60Q306 60 335 125Z" />
<glyph unicode="1" glyph-name="one" horiz-adv-x="305" d="M115 620H10V680Q35 688 78 694T170 700H235V0H115V620Z" />
<glyph unicode="2" glyph-name="two" horiz-adv-x="420" d="M15 90Q119 209 169 272T244 390T270 500Q270 635 165 635H25V690Q50 698 93 704T185 710Q287 710 338 658T390 500Q390 441 358 376T274 246T135 80H385V0H15V90Z" />
<glyph unicode="3" glyph-name="three" horiz-adv-x="435" d="M126 -10T83 -4T15 10V65H155Q219 65 249 95T280 190Q280 261 250 293T155 326H75V405H145Q202 405 231 435T260 525Q260 577 232 606T155 635H25V690Q50 698 93 704T185 710Q278 710 329 661T380
525Q380 471 355 433T285 372V368Q337 351 368 301T400 190Q400 -10 175 -10Q126 -10 83 -4Z" />
<glyph unicode="4" glyph-name="four" horiz-adv-x="485" d="M285 0V170H25V260L275 700H405V250H460V170H405V0H285ZM135 250H285V520H281L135 250Z" />
<glyph unicode="5" glyph-name="five" horiz-adv-x="465" d="M156 -10T113 -4T45 10V65H185Q249 65 279 97T310 200Q310 274 280 307T185 340H55V700H405V625H175V415H205Q321 415 375 362T430 200Q430 94 375 42T205 -10Q156 -10 113 -4Z" />
<glyph unicode="6" glyph-name="six" horiz-adv-x="475" d="M147 -10T96 43T45 200V420Q45 566 100 638T255 710Q304 710 347 704T415 690V635H285Q228 635 197 585T165 410Q186 417 213 421T260 425Q348 425 396 370T445 205Q445 97 394 44T245 -10Q147 -10 96
43ZM281 60T303 95T325 205Q325 262 315 294T282 340T215 355H165V200Q165 129 187 95T245 60Q281 60 303 95Z" />
<glyph unicode="7" glyph-name="seven" horiz-adv-x="430" d="M127 140T171 292T285 620H20V700H400V610Q332 437 290 290T225 0H105Q127 140 171 292Z" />
<glyph unicode="8" glyph-name="eight" horiz-adv-x="500" d="M143 -10T89 39T35 180Q35 248 71 294T165 363V367Q118 382 84 425T50 535Q50 615 102 662T250 710Q346 710 398 663T450 535Q450 469 416 426T335 367V363Q393 340 429 294T465 180Q465 88 411 39T250
-10Q143 -10 89 39ZM286 422T308 453T330 535Q330 582 306 611T250 640Q218 640 194 611T170 535Q170 485 192 454T250 409Q286 422 308 453ZM293 60T319 91T345 180Q345 232 321 263T250 320Q203 294 179 263T155 180Q155 122 181 91T250 60Q293 60 319 91Z" />
<glyph unicode="9" glyph-name="nine" horiz-adv-x="475" d="M171 -10T128 -4T60 10V65H190Q247 65 278 115T310 290Q289 283 262 279T215 275Q127 275 79 330T30 495Q30 603 81 656T230 710Q328 710 379 657T430 500V280Q430 134 375 62T220 -10Q171 -10 128
-4ZM310 345V500Q310 571 288 605T230 640Q194 640 172 605T150 495Q150 438 160 406T193 360T260 345H310Z" />
<glyph unicode=":" glyph-name="colon" horiz-adv-x="200" d="M40 380V500H160V380H40ZM40 -10V110H160V-10H40Z" />
<glyph unicode=";" glyph-name="semicolon" horiz-adv-x="190" d="M40 380V500H160V380H40ZM40 -120V110H160L120 -120H40Z" />
<glyph unicode="&lt;" glyph-name="less" horiz-adv-x="405" d="M365 5L40 200V305L365 500V380L155 257V252L365 125V5Z" />
<glyph unicode="=" glyph-name="equal" horiz-adv-x="450" d="M30 345V430H420V345H30ZM30 170V255H420V170H30Z" />
<glyph unicode="&gt;" glyph-name="greater" horiz-adv-x="405" d="M40 5V125L250 252V257L40 380V500L365 305V200L40 5Z" />
<glyph unicode="?" glyph-name="question" horiz-adv-x="395" d="M105 231T115 265T141 324T182 378Q214 417 229 446T245 520Q245 576 217 605T140 635H10V690Q35 698 78 704T170 710Q263 710 314 660T365 520Q365 478 354 446T326 390T282 335Q246 296 227 264T205
185H105Q105 231 115 265ZM95 -10V110H215V-10H95Z" />
<glyph unicode="@" glyph-name="at" horiz-adv-x="850" d="M248 -90T147 12T45 310Q45 503 143 606T420 710Q540 710 627 667T759 546T805 365Q805 266 777 206T686 118T520 90L505 120H500Q480 100 456 90T400 80Q356 80 319 104T258 178T235 300Q235 427 289
483T460 540Q499 540 540 534T605 520V155Q644 155 669 203T695 365Q695 496 623 568T420 640Q292 640 224 559T155 310Q155 142 230 64T460 -15H600V-70Q575 -78 532 -84T440 -90Q248 -90 147 12ZM448 150T462 156T485 170V470H460Q408 470 382 432T355 300Q355
224 377 187T430 150Q448 150 462 156Z" />
<glyph unicode="A" glyph-name="A" horiz-adv-x="540" d="M15 0L195 700H345L525 0H400L356 175H184L140 0H15ZM200 255H339L272 540H268L200 255Z" />
<glyph unicode="B" glyph-name="B" horiz-adv-x="530" d="M188 -10T148 -6T70 10V690Q107 701 147 705T245 710Q355 710 410 662T465 525Q465 479 440 439T370 377V373Q430 352 462 305T495 190Q495 90 436 40T245 -10Q188 -10 148 -6ZM235 405Q284 405 312 434T340
520Q340 576 312 605T235 635H190V405H235ZM245 65Q309 65 339 96T370 195Q370 266 340 298T245 330H190V65H245Z" />
<glyph unicode="C" glyph-name="C" horiz-adv-x="455" d="M199 -10T148 22T71 134T45 350Q45 487 70 566T145 677T270 710Q319 710 362 704T430 690V635H310Q240 635 203 572T165 350Q165 241 183 179T235 91T320 65H440V10Q415 2 372 -4T280 -10Q199 -10 148 22Z" />
<glyph unicode="D" glyph-name="D" horiz-adv-x="545" d="M188 -10T148 -6T70 10V690Q107 701 147 705T245 710Q330 710 386 676T471 562T500 350Q500 217 471 138T386 25T245 -10Q188 -10 148 -6ZM245 65Q310 65 345 128T380 350Q380 509 345 572T245 635H190V65H245Z" />
<glyph unicode="E" glyph-name="E" horiz-adv-x="475" d="M70 0V700H435V620H190V405H405V325H190V80H435V0H70Z" />
<glyph unicode="F" glyph-name="F" horiz-adv-x="455" d="M70 0V700H435V620H190V390H395V310H190V0H70Z" />
<glyph unicode="G" glyph-name="G" horiz-adv-x="525" d="M209 -10T154 22T72 133T45 350Q45 487 71 566T148 677T280 710Q329 710 372 704T440 690V635H310Q240 635 203 572T165 350Q165 241 183 179T235 91T320 65H345V380H465V10Q440 2 397 -4T300 -10Q209
-10 154 22Z" />
<glyph unicode="H" glyph-name="H" horiz-adv-x="560" d="M70 0V700H190V395H370V700H490V0H370V315H190V0H70Z" />
<glyph unicode="I" glyph-name="I" horiz-adv-x="260" d="M70 0V700H190V0H70Z" />
<glyph unicode="J" glyph-name="J" horiz-adv-x="375" d="M50 -10T0 10V65H100Q145 65 170 105T195 240V700H315V240Q315 107 263 49T100 -10Q50 -10 0 10Z" />
<glyph unicode="K" glyph-name="K" horiz-adv-x="520" d="M70 0V700H190V380L355 700H490L305 355L510 0H375L190 330V0H70Z" />
<glyph unicode="L" glyph-name="L" horiz-adv-x="445" d="M70 0V700H190V80H435V0H70Z" />
<glyph unicode="M" glyph-name="M" horiz-adv-x="760" d="M50 0L90 700H220L378 225H382L540 700H670L710 0H595L568 474H564L435 85H325L196 474H192L165 0H50Z" />
<glyph unicode="N" glyph-name="N" horiz-adv-x="570" d="M70 0V700H190L380 240H385V700H500V0H380L190 460H185V0H70Z" />
<glyph unicode="O" glyph-name="O" horiz-adv-x="550" d="M164 -10T105 73T45 350Q45 543 104 626T275 710Q387 710 446 627T505 350Q505 157 446 74T275 -10Q164 -10 105 73ZM323 60T354 126T385 350Q385 508 354 574T275 640Q227 640 196 574T165 350Q165 192
196 126T275 60Q323 60 354 126Z" />
<glyph unicode="P" glyph-name="P" horiz-adv-x="515" d="M70 690Q107 701 147 705T245 710Q370 710 425 652T480 460Q480 321 430 261T275 200Q263 200 236 203T190 210V0H70V690ZM245 280Q304 280 332 319T360 460Q360 557 332 596T245 635H190V280H245Z" />
<glyph unicode="Q" glyph-name="Q" horiz-adv-x="555" d="M164 -10T105 73T45 350Q45 543 104 626T275 710Q387 710 446 627T505 350Q505 245 485 174T430 60Q470 60 495 55T550 40V-10H275Q164 -10 105 73ZM323 60T354 126T385 350Q385 508 354 574T275 640Q227
640 196 574T165 350Q165 188 197 124T275 60Q323 60 354 126Z" />
<glyph unicode="R" glyph-name="R" horiz-adv-x="535" d="M70 690Q107 701 147 705T245 710Q369 710 424 654T480 470Q480 375 452 325T370 250L505 0H370L255 225H190V0H70V690ZM245 305Q304 305 332 342T360 470Q360 561 332 598T245 635H190V305H245Z" />
<glyph unicode="S" glyph-name="S" horiz-adv-x="465" d="M146 -10T103 -4T35 10V65H175Q248 65 281 93T315 180Q315 215 300 238T261 275T196 310Q143 335 110 358T54 422T30 530Q30 614 82 662T235 710Q284 710 327 704T395 690V635H255Q206 635 178 607T150
530Q150 493 166 468T207 426T275 390Q327 365 358 343T412 282T435 180Q435 87 377 39T195 -10Q146 -10 103 -4Z" />
<glyph unicode="T" glyph-name="T" horiz-adv-x="450" d="M165 0V620H10V700H440V620H285V0H165Z" />
<glyph unicode="U" glyph-name="U" horiz-adv-x="550" d="M164 -10T112 48T60 240V700H180V240Q180 141 205 101T275 60Q320 60 345 100T370 240V700H490V240Q490 107 438 49T275 -10Q164 -10 112 48Z" />
<glyph unicode="V" glyph-name="V" horiz-adv-x="520" d="M185 0L15 700H140L258 155H262L380 700H505L335 0H185Z" />
<glyph unicode="W" glyph-name="W" horiz-adv-x="750" d="M140 0L15 700H140L225 195H229L325 570H425L521 195H525L610 700H735L610 0H480L377 390H373L270 0H140Z" />
<glyph unicode="X" glyph-name="X" horiz-adv-x="490" d="M10 0L155 360L25 700H150L245 440L340 700H465L335 360L480 0H355L245 285L135 0H10Z" />
<glyph unicode="Y" glyph-name="Y" horiz-adv-x="480" d="M180 0V210L5 700H130L238 365H242L350 700H475L300 210V0H180Z" />
<glyph unicode="Z" glyph-name="Z" horiz-adv-x="435" d="M20 0V75L280 620H25V700H415V625L155 80H410V0H20Z" />
<glyph unicode="[" glyph-name="bracketleft" horiz-adv-x="285" d="M70 -180V740H285V670H190V-110H285V-180H70Z" />
<glyph unicode="\" glyph-name="backslash" horiz-adv-x="420" d="M300 0L0 700H120L420 0H300Z" />
<glyph unicode="]" glyph-name="bracketright" horiz-adv-x="285" d="M0 -180V-110H95V670H0V740H215V-180H0Z" />
<glyph unicode="^" glyph-name="asciicircum" horiz-adv-x="475" d="M115 395L30 450L185 700H290L445 450L360 395L240 595H235L115 395Z" />
<glyph unicode="_" glyph-name="underscore" horiz-adv-x="320" d="M0 -80V0H320V-80H0Z" />
<glyph unicode="`" glyph-name="grave" horiz-adv-x="200" d="M99 560L24 690H139L174 560H99Z" />
<glyph unicode="a" glyph-name="a" horiz-adv-x="475" d="M123 -10T82 25T40 150Q40 241 83 275T205 310Q240 310 290 300V340Q290 397 264 418T185 440H85V490Q109 498 143 504T205 510Q277 510 321 496T387 445T410 340V0H325L310 30H305Q263 -10 195 -10Q123
-10 82 25ZM253 60T267 66T290 80V240H235Q204 240 182 219T160 150Q160 102 182 81T235 60Q253 60 267 66Z" />
<glyph unicode="b" glyph-name="b" horiz-adv-x="495" d="M184 -10T147 -3T70 20V700H190V485Q225 510 275 510Q362 510 408 449T455 250Q455 110 403 50T235 -10Q184 -10 147 -3ZM235 60Q284 60 309 102T335 250Q335 355 311 397T245 440Q228 440 213 434T190
420V60H235Z" />
<glyph unicode="c" glyph-name="c" horiz-adv-x="395" d="M142 -10T91 50T40 250Q40 389 89 449T240 510Q275 510 310 504T370 490V440H260Q211 440 186 398T160 250Q160 143 187 102T270 60H380V10Q355 2 320 -4T250 -10Q142 -10 91 50Z" />
<glyph unicode="d" glyph-name="d" horiz-adv-x="495" d="M130 -10T85 52T40 250Q40 387 86 448T220 510Q270 510 305 485V700H425V0H340L325 30H320Q278 -10 210 -10Q130 -10 85 52ZM267 60T278 65T305 80V420Q297 428 283 434T250 440Q208 440 184 398T160 250Q160
145 184 103T250 60Q267 60 278 65Z" />
<glyph unicode="e" glyph-name="e" horiz-adv-x="460" d="M186 -10T137 15T64 98T40 250Q40 388 88 449T230 510Q324 510 372 449T420 250V215H160Q160 131 190 96T285 60H395V10Q370 2 335 -4T265 -10Q186 -10 137 15ZM300 285Q300 376 282 410T230 445Q196 445
178 411T160 285H300Z" />
<glyph unicode="f" glyph-name="f" horiz-adv-x="340" d="M75 415H20V490H75V530Q75 627 116 663T230 700Q259 700 295 694T350 680V630H270Q195 630 195 530V490H330V435Q305 427 270 421T200 415H195V0H75V415Z" />
<glyph unicode="g" glyph-name="g" horiz-adv-x="490" d="M175 -210T140 -204T80 -190V-140H190Q248 -140 276 -105T305 15Q272 -10 220 -10Q133 -10 87 51T40 250Q40 390 92 450T260 510Q311 510 348 503T425 480V40Q425 -93 373 -151T210 -210Q175 -210 140
-204ZM268 60T282 66T305 80V440H260Q211 440 186 398T160 250Q160 145 184 103T250 60Q268 60 282 66Z" />
<glyph unicode="h" glyph-name="h" horiz-adv-x="510" d="M70 700H190V480Q228 510 290 510Q362 510 403 475T445 350V0H325V350Q325 398 303 419T245 440Q228 440 213 434T190 420V0H70V700Z" />
<glyph unicode="i" glyph-name="i" horiz-adv-x="260" d="M70 560V680H190V560H70ZM70 0V500H190V0H70Z" />
<glyph unicode="j" glyph-name="j" horiz-adv-x="265" d="M75 560V680H195V560H75ZM-10 -210T-60 -190V-140H10Q38 -140 56 -115T75 -40V500H195V-40Q195 -137 154 -173T40 -210Q-10 -210 -60 -190Z" />
<glyph unicode="k" glyph-name="k" horiz-adv-x="460" d="M70 0V700H190V285L310 500H440L305 265L450 0H320L190 245V0H70Z" />
<glyph unicode="l" glyph-name="l" horiz-adv-x="260" d="M70 0V700H190V0H70Z" />
<glyph unicode="m" glyph-name="m" horiz-adv-x="740" d="M65 500H150L165 470H170Q212 510 285 510Q355 510 395 470Q443 510 525 510Q594 510 634 475T675 350V0H555V350Q555 398 533 419T480 440Q448 440 420 425Q424 413 427 392T430 350V0H310V350Q310 398
289 419T240 440Q223 440 208 434T185 420V0H65V500Z" />
<glyph unicode="n" glyph-name="n" horiz-adv-x="505" d="M65 500H150L165 470H170Q212 510 285 510Q357 510 398 475T440 350V0H320V350Q320 398 298 419T240 440Q223 440 208 434T185 420V0H65V500Z" />
<glyph unicode="o" glyph-name="o" horiz-adv-x="480" d="M139 -10T90 50T40 250Q40 389 89 449T240 510Q341 510 390 450T440 250Q440 111 391 51T240 -10Q139 -10 90 50ZM278 55T299 98T320 250Q320 358 299 401T240 445Q202 445 181 402T160 250Q160 142 181
99T240 55Q278 55 299 98Z" />
<glyph unicode="p" glyph-name="p" horiz-adv-x="490" d="M65 500H150L165 470H170Q212 510 280 510Q360 510 405 448T450 250Q450 113 404 52T270 -10Q220 -10 185 15V-200H65V500ZM282 60T306 102T330 250Q330 355 306 397T240 440Q223 440 212 435T185 420V80Q193
72 208 66T240 60Q282 60 306 102Z" />
<glyph unicode="q" glyph-name="q" horiz-adv-x="490" d="M305 15Q270 -10 220 -10Q133 -10 87 51T40 250Q40 390 92 450T260 510Q311 510 348 503T425 480V-200H305V15ZM268 60T282 66T305 80V440H260Q211 440 186 398T160 250Q160 145 184 103T250 60Q268 60 282 66Z" />
<glyph unicode="r" glyph-name="r" horiz-adv-x="360" d="M65 500H150L165 460H170Q212 500 285 500H350V415H240Q223 415 208 409T185 395V0H65V500Z" />
<glyph unicode="s" glyph-name="s" horiz-adv-x="415" d="M135 -10T100 -4T40 10V60H150Q208 60 236 76T265 130Q265 161 242 178T169 217Q125 235 97 251T50 297T30 370Q30 449 77 479T225 510Q260 510 295 504T355 490V440H245Q202 440 176 425T150 380Q150
349 173 332T246 293Q290 275 318 259T365 213T385 140Q385 81 362 49T293 3T170 -10Q135 -10 100 -4Z" />
<glyph unicode="t" glyph-name="t" horiz-adv-x="365" d="M157 -10T116 26T75 160V415H20V490H75V610H195V490H330V435Q305 427 270 421T200 415H195V160Q195 106 214 83T260 60H350V10Q331 2 295 -4T230 -10Q157 -10 116 26Z" />
<glyph unicode="u" glyph-name="u" horiz-adv-x="505" d="M148 -10T107 25T65 150V500H185V150Q185 102 207 81T265 60Q283 60 297 66T320 80V500H440V0H355L340 30H335Q293 -10 220 -10Q148 -10 107 25Z" />
<glyph unicode="v" glyph-name="v" horiz-adv-x="470" d="M160 0L15 500H135L233 125H237L335 500H455L310 0H160Z" />
<glyph unicode="w" glyph-name="w" horiz-adv-x="650" d="M115 0L15 500H135L196 150H200L280 400H370L450 150H454L515 500H635L535 0H405L327 245H323L245 0H115Z" />
<glyph unicode="x" glyph-name="x" horiz-adv-x="430" d="M10 0L130 255L15 500H140L215 325L290 500H415L300 255L420 0H295L215 185L135 0H10Z" />
<glyph unicode="y" glyph-name="y" horiz-adv-x="505" d="M190 -210T155 -204T95 -190V-140H205Q264 -140 292 -104T320 20Q283 -10 220 -10Q148 -10 107 25T65 150V500H185V150Q185 102 207 81T265 60Q283 60 297 66T320 80V500H440V40Q440 -93 388 -151T225
-210Q190 -210 155 -204Z" />
<glyph unicode="z" glyph-name="z" horiz-adv-x="400" d="M20 0V70L240 425H30V500H380V430L160 75H375V0H20Z" />
<glyph unicode="{" glyph-name="braceleft" horiz-adv-x="300" d="M228 -180T184 -166T118 -115T95 -10V120Q95 176 76 204T20 245V315Q57 327 76 355T95 440V570Q95 638 117 675T184 726T300 740V670Q215 670 215 570V460Q215 408 204 375T174 322T125 282V278Q155
258 173 239T203 186T215 100V-10Q215 -71 237 -90T300 -110V-180Q228 -180 184 -166Z" />
<glyph unicode="|" glyph-name="bar" horiz-adv-x="260" d="M70 -200V700H190V-200H70Z" />
<glyph unicode="}" glyph-name="braceright" horiz-adv-x="300" d="M0 -110Q41 -110 63 -91T85 -10V100Q85 152 96 185T126 238T175 278V282Q145 302 127 321T97 374T85 460V570Q85 670 0 670V740Q72 740 116 726T182 675T205 570V440Q205 384 224 356T280 315V245Q243
233 224 205T205 120V-10Q205 -78 183 -115T116 -166T0 -180V-110Z" />
<glyph unicode="~" glyph-name="asciitilde" horiz-adv-x="460" d="M87 185T59 232T30 370H110Q110 335 121 315T155 295Q168 295 177 302T203 325Q226 349 248 362T305 375Q373 375 401 328T430 190H350Q350 225 339 245T305 265Q292 265 283 258T257 235Q234
211 212 198T155 185Q87 185 59 232Z" />
<glyph unicode="&#xa0;" glyph-name="uni00A0" horiz-adv-x="250" />
<glyph unicode="&#xa1;" glyph-name="exclamdown" horiz-adv-x="260" d="M70 590V710H190V590H70ZM60 0L80 515H180L200 0H60Z" />
<glyph unicode="&#xa2;" glyph-name="cent" horiz-adv-x="395" d="M225 -9Q130 -3 85 57T40 250Q40 383 86 444T225 509V570H295V506Q338 500 370 490V440H295V60H380V10Q342 -3 295 -7V-60H225V-9ZM225 434Q193 421 177 378T160 250Q160 167 176 124T225 68V434Z" />
<glyph unicode="&#xa3;" glyph-name="sterling" horiz-adv-x="435" d="M45 60Q69 76 79 107T90 210V315H35V395H90V500Q90 588 113 633T181 694T305 710Q355 710 405 690V635H305Q258 635 234 608T210 500V395H355V315H210V234Q210 126 160 84V80H415V0H45V60Z" />
<glyph unicode="&#xa4;" glyph-name="currency" horiz-adv-x="520" d="M20 185L90 255Q79 270 72 296T65 350Q65 377 72 403T90 445L20 515L80 575L150 510Q167 523 196 531T260 540Q295 540 324 532T370 510L440 575L500 515L430 445Q441 430 448 404T455 350Q455
323 448 297T430 255L500 185L440 125L370 190Q353 178 324 169T260 160Q225 160 196 169T150 190L80 125L20 185ZM292 235T316 266T340 350Q340 403 316 434T260 465Q228 465 204 434T180 350Q180 297 204 266T260 235Q292 235 316 266Z" />
<glyph unicode="&#xa5;" glyph-name="yen" horiz-adv-x="480" d="M180 0V195H65V275H157L139 325H65V405H110L5 700H130L238 365H242L350 700H475L369 405H415V325H341L323 275H415V195H300V0H180Z" />
<glyph unicode="&#xa6;" glyph-name="brokenbar" horiz-adv-x="260" d="M70 310V680H190V310H70ZM70 -200V170H190V-200H70Z" />
<glyph unicode="&#xa7;" glyph-name="section" horiz-adv-x="465" d="M163 -210T124 -204T60 -190V-140H185Q243 -140 274 -115T305 -50Q305 -13 279 9T197 58Q147 83 116 104T63 161T40 250Q40 302 67 341T140 405Q96 431 73 463T50 550Q50 621 104 665T260 710Q302
710 341 704T405 690V640H280Q229 640 200 615T170 550Q170 513 195 491T274 442Q322 418 352 397T403 339T425 250Q425 197 399 159T330 100Q374 73 399 39T425 -50Q425 -121 369 -165T205 -210Q163 -210 124 -204ZM305 168T305 250Q305 288 279 315T210 365Q160
332 160 250Q160 212 186 185T255 135Q305 168 305 250Z" />
<glyph unicode="&#xa8;" glyph-name="dieresis" horiz-adv-x="310" d="M20 570V690H130V570H20ZM180 570V690H290V570H180Z" />
<glyph unicode="&#xa9;" glyph-name="copyright" horiz-adv-x="840" d="M309 -20T224 26T92 157T45 350Q45 459 92 543T224 673T420 720Q531 720 616 674T748 543T795 350Q795 241 748 157T616 27T420 -20Q309 -20 224 26ZM503 50T565 85T661 188T695 350Q695
444 661 511T565 614T420 650Q337 650 275 615T179 512T145 350Q145 256 179 189T275 86T420 50Q503 50 565 85ZM368 130T328 148T267 215T245 350Q245 437 266 485T328 551T430 570Q495 570 555 550V500H450Q419 500 399 489T367 445T355 350Q355 288 366 255T398
211T450 200H565V150Q540 142 504 136T430 130Q368 130 328 148Z" />
<glyph unicode="&#xaa;" glyph-name="ordfeminine" horiz-adv-x="305" d="M84 395T57 418T30 490Q30 590 135 590Q151 590 168 588T190 585V600Q190 622 176 633T135 645H55V693Q89 705 145 705Q213 705 244 683T275 600V400H205L195 420Q178 408 162 402T125
395Q84 395 57 418ZM168 455T177 457T190 460V530H155Q136 530 126 520T115 490Q115 475 126 465T155 455Q168 455 177 457Z" />
<glyph unicode="&#xab;" glyph-name="guillemotleft" horiz-adv-x="510" d="M195 20L20 250L195 480L280 425L150 253V247L280 75L195 20ZM395 20L220 250L395 480L480 425L350 253V247L480 75L395 20Z" />
<glyph unicode="&#xac;" glyph-name="logicalnot" horiz-adv-x="445" d="M330 240L315 335H30V415H415V240H330Z" />
<glyph unicode="&#xad;" glyph-name="uni00AD" horiz-adv-x="360" d="M30 260V340H330V260H30Z" />
<glyph unicode="&#xae;" glyph-name="registered" horiz-adv-x="840" d="M309 -20T224 26T92 157T45 350Q45 459 92 543T224 673T420 720Q531 720 616 674T748 543T795 350Q795 241 748 157T616 27T420 -20Q309 -20 224 26ZM503 50T565 85T661 188T695 350Q695
444 661 511T565 614T420 650Q337 650 275 615T179 512T145 350Q145 256 179 189T275 86T420 50Q503 50 565 85ZM265 550Q298 560 330 565T410 570Q502 570 546 537T590 430Q590 374 569 348T515 305L600 140H485L415 285H375V140H265V550ZM410 355Q442 355 461
373T480 430Q480 466 461 483T410 500H375V355H410Z" />
<glyph unicode="&#xaf;" glyph-name="overscore" horiz-adv-x="280" d="M20 630V700H260V630H20Z" />
<glyph unicode="&#xb0;" glyph-name="degree" horiz-adv-x="410" d="M127 390T84 432T40 550Q40 625 83 667T205 710Q283 710 326 668T370 550Q370 475 327 433T205 390Q127 390 84 432ZM229 460T247 484T265 550Q265 593 247 616T205 640Q181 640 163 617T145
550Q145 507 163 484T205 460Q229 460 247 484Z" />
<glyph unicode="&#xb1;" glyph-name="plusminus" horiz-adv-x="450" d="M180 150V300H30V380H180V540H270V380H420V300H270V150H180ZM30 45V125H420V45H30Z" />
<glyph unicode="&#xb2;" glyph-name="uni00B2" horiz-adv-x="270" d="M30 465Q90 512 122 546T155 605Q155 621 143 633T110 645H40V694Q56 699 79 702T125 705Q240 705 240 605Q240 572 214 539T125 460H240V400H30V465Z" />
<glyph unicode="&#xb3;" glyph-name="uni00B3" horiz-adv-x="270" d="M67 395T30 406V455H110Q132 455 143 464T155 490Q155 505 144 515T115 525H65V585H110Q128 585 136 594T145 615Q145 628 136 636T104 645H30V694Q65 705 115 705Q171 705 200 686T230 620Q230
596 216 580T185 560Q206 556 223 536T240 485Q240 435 209 415T110 395Q67 395 30 406Z" />
<glyph unicode="&#xb4;" glyph-name="acute" horiz-adv-x="190" d="M20 560L55 690H170L95 560H20Z" />
<glyph unicode="&#xb5;" glyph-name="uni00B5" horiz-adv-x="505" d="M65 500H185V170Q185 120 209 90T265 60Q283 60 297 66T320 80V500H440V0H355L340 30H335Q315 10 294 0T245 -10Q210 -10 185 15V-200H65V500Z" />
<glyph unicode="&#xb6;" glyph-name="paragraph" horiz-adv-x="565" d="M225 330Q132 330 81 379T30 515Q30 564 53 606T120 674T225 700H545V620H485V-200H375V620H335V-200H225V330Z" />
<glyph unicode="&#xb7;" glyph-name="middot" horiz-adv-x="280" d="M80 290V410H200V290H80Z" />
<glyph unicode="&#xb8;" glyph-name="cedilla" horiz-adv-x="215" d="M73 -170T56 -167T31 -160T20 -155V-121H85Q106 -121 113 -116T120 -100Q120 -79 90 -79H35V15H90V-30H105Q149 -30 172 -49T195 -100Q195 -131 169 -150T95 -170Q73 -170 56 -167Z" />
<glyph unicode="&#xb9;" glyph-name="uni00B9" horiz-adv-x="200" d="M85 640H30V688Q45 693 72 696T130 700H170V400H85V640Z" />
<glyph unicode="&#xba;" glyph-name="ordmasculine" horiz-adv-x="320" d="M101 395T66 434T30 550Q30 626 65 665T160 705Q219 705 254 666T290 550Q290 474 255 435T160 395Q101 395 66 434ZM180 455T192 477T205 550Q205 600 193 622T160 645Q140 645 128 623T115
550Q115 500 127 478T160 455Q180 455 192 477Z" />
<glyph unicode="&#xbb;" glyph-name="guillemotright" horiz-adv-x="510" d="M115 20L30 75L160 247V253L30 425L115 480L290 250L115 20ZM315 20L230 75L360 247V253L230 425L315 480L490 250L315 20Z" />
<glyph unicode="&#xbc;" glyph-name="onequarter" horiz-adv-x="590" d="M40 0L430 700H540L150 0H40ZM105 640H50V688Q65 693 92 696T150 700H190V400H105V640ZM425 0V55H285V115L425 300H510V115H535V55H510V0H425ZM360 115H425V200L360 115Z" />
<glyph unicode="&#xbd;" glyph-name="onehalf" horiz-adv-x="620" d="M50 0L440 700H550L160 0H50ZM120 640H65V688Q80 693 107 696T165 700H205V400H120V640ZM350 65Q410 112 442 146T475 205Q475 221 463 233T430 245H360V294Q376 299 399 302T445 305Q560 305
560 205Q560 172 534 139T445 60H560V0H350V65Z" />
<glyph unicode="&#xbe;" glyph-name="threequarters" horiz-adv-x="605" d="M77 395T40 406V455H120Q142 455 153 464T165 490Q165 505 154 515T125 525H75V585H120Q138 585 146 594T155 615Q155 628 145 636T114 645H40V694Q75 705 125 705Q181 705 210 686T240
620Q240 596 226 580T195 560Q216 556 233 536T250 485Q250 435 219 415T120 395Q77 395 40 406ZM55 0L445 700H555L165 0H55ZM440 0V55H300V115L440 300H525V115H550V55H525V0H440ZM375 115H440V200L375 115Z" />
<glyph unicode="&#xbf;" glyph-name="questiondown" horiz-adv-x="395" d="M180 590V710H300V590H180ZM132 -10T81 40T30 180Q30 222 41 254T69 310T113 365Q149 404 168 436T190 515H290Q290 469 280 435T254 376T213 322Q181 283 166 254T150 180Q150 124 178
95T255 65H385V10Q360 2 317 -4T225 -10Q132 -10 81 40Z" />
<glyph unicode="&#xc0;" glyph-name="Agrave" horiz-adv-x="540" d="M240 750L165 880H280L315 750H240ZM15 0L195 700H345L525 0H400L356 175H184L140 0H15ZM200 255H339L272 540H268L200 255Z" />
<glyph unicode="&#xc1;" glyph-name="Aacute" horiz-adv-x="540" d="M230 750L265 880H380L305 750H230ZM15 0L195 700H345L525 0H400L356 175H184L140 0H15ZM200 255H339L272 540H268L200 255Z" />
<glyph unicode="&#xc2;" glyph-name="Acircumflex" horiz-adv-x="540" d="M138 750L218 880H323L403 750H326L270 820L214 750H138ZM15 0L195 700H345L525 0H400L356 175H184L140 0H15ZM200 255H339L272 540H268L200 255Z" />
<glyph unicode="&#xc3;" glyph-name="Atilde" horiz-adv-x="540" d="M15 0L195 700H345L525 0H400L356 175H184L140 0H15ZM200 255H339L272 540H268L200 255ZM303 760T291 767T262 790Q250 801 244 805T230 810Q219 810 212 800T205 770H145Q145 834 164 862T220
890Q237 890 249 883T278 860Q290 849 296 845T310 840Q321 840 328 850T335 880H395Q395 816 376 788T320 760Q303 760 291 767Z" />
<glyph unicode="&#xc4;" glyph-name="Adieresis" horiz-adv-x="540" d="M135 750V870H245V750H135ZM295 750V870H405V750H295ZM15 0L195 700H345L525 0H400L356 175H184L140 0H15ZM200 255H339L272 540H268L200 255Z" />
<glyph unicode="&#xc5;" glyph-name="Aring" horiz-adv-x="540" d="M229 725T202 749T175 810Q175 847 202 871T270 895Q311 895 338 871T365 810Q365 773 338 749T270 725Q229 725 202 749ZM282 780T291 788T300 810Q300 824 291 832T270 840Q258 840 249 832T240
810Q240 796 249 788T270 780Q282 780 291 788ZM15 0L195 700H345L525 0H400L356 175H184L140 0H15ZM200 255H339L272 540H268L200 255Z" />
<glyph unicode="&#xc6;" glyph-name="AE" horiz-adv-x="755" d="M0 0L240 700H715V620H470V405H685V325H470V80H715V0H350V175H180L119 0H0ZM207 255H350V620H331L207 255Z" />
<glyph unicode="&#xc7;" glyph-name="Ccedilla" horiz-adv-x="455" d="M258 -170T241 -167T216 -160T205 -155V-121H270Q291 -121 298 -116T305 -100Q305 -79 275 -79H220V-4Q131 13 88 95T45 350Q45 487 70 566T145 677T270 710Q319 710 362 704T430 690V635H310Q240
635 203 572T165 350Q165 241 183 179T235 91T320 65H440V10Q415 2 375 -4T285 -10H275V-30H290Q334 -30 357 -49T380 -100Q380 -131 354 -150T280 -170Q258 -170 241 -167Z" />
<glyph unicode="&#xc8;" glyph-name="Egrave" horiz-adv-x="475" d="M230 750L155 880H270L305 750H230ZM70 0V700H435V620H190V405H405V325H190V80H435V0H70Z" />
<glyph unicode="&#xc9;" glyph-name="Eacute" horiz-adv-x="475" d="M215 750L250 880H365L290 750H215ZM70 0V700H435V620H190V405H405V325H190V80H435V0H70Z" />
<glyph unicode="&#xca;" glyph-name="Ecircumflex" horiz-adv-x="475" d="M120 750L200 880H305L385 750H308L252 820L196 750H120ZM70 0V700H435V620H190V405H405V325H190V80H435V0H70Z" />
<glyph unicode="&#xcb;" glyph-name="Edieresis" horiz-adv-x="475" d="M115 760V880H225V760H115ZM275 760V880H385V760H275ZM70 0V700H435V620H190V405H405V325H190V80H435V0H70Z" />
<glyph unicode="&#xcc;" glyph-name="Igrave" horiz-adv-x="255" d="M90 750L15 880H130L165 750H90ZM65 0V700H185V0H65Z" />
<glyph unicode="&#xcd;" glyph-name="Iacute" horiz-adv-x="255" d="M90 750L125 880H240L165 750H90ZM70 0V700H190V0H70Z" />
<glyph unicode="&#xce;" glyph-name="Icircumflex" horiz-adv-x="235" d="M-15 750L65 880H170L250 750H173L117 820L61 750H-15ZM55 0V700H175V0H55Z" />
<glyph unicode="&#xcf;" glyph-name="Idieresis" horiz-adv-x="250" d="M-10 760V880H100V760H-10ZM150 760V880H260V760H150ZM65 0V700H185V0H65Z" />
<glyph unicode="&#xd0;" glyph-name="Eth" horiz-adv-x="560" d="M203 -10T163 -6T85 10V315H10V395H85V690Q122 701 162 705T260 710Q345 710 401 676T486 562T515 350Q515 217 486 138T401 25T260 -10Q203 -10 163 -6ZM260 65Q325 65 360 128T395 350Q395 509
360 572T260 635H205V395H310V315H205V65H260Z" />
<glyph unicode="&#xd1;" glyph-name="Ntilde" horiz-adv-x="570" d="M189 745T170 773T150 865H210Q210 846 217 836T235 825Q242 825 248 829T267 845Q283 860 295 867T325 875Q361 875 380 847T400 755H340Q340 774 333 784T315 795Q308 795 302 791T283 775Q267
760 255 753T225 745Q189 745 170 773ZM70 0V700H190L380 240H385V700H500V0H380L190 460H185V0H70Z" />
<glyph unicode="&#xd2;" glyph-name="Ograve" horiz-adv-x="550" d="M240 760L165 890H280L315 760H240ZM164 -10T105 73T45 350Q45 543 104 626T275 710Q387 710 446 627T505 350Q505 157 446 74T275 -10Q164 -10 105 73ZM323 60T354 126T385 350Q385 508 354
574T275 640Q227 640 196 574T165 350Q165 192 196 126T275 60Q323 60 354 126Z" />
<glyph unicode="&#xd3;" glyph-name="Oacute" horiz-adv-x="550" d="M230 760L265 890H380L305 760H230ZM164 -10T105 73T45 350Q45 543 104 626T275 710Q387 710 446 627T505 350Q505 157 446 74T275 -10Q164 -10 105 73ZM323 60T354 126T385 350Q385 508 354
574T275 640Q227 640 196 574T165 350Q165 192 196 126T275 60Q323 60 354 126Z" />
<glyph unicode="&#xd4;" glyph-name="Ocircumflex" horiz-adv-x="550" d="M145 760L225 890H330L410 760H333L277 830L221 760H145ZM164 -10T105 73T45 350Q45 543 104 626T275 710Q387 710 446 627T505 350Q505 157 446 74T275 -10Q164 -10 105 73ZM323 60T354
126T385 350Q385 508 354 574T275 640Q227 640 196 574T165 350Q165 192 196 126T275 60Q323 60 354 126Z" />
<glyph unicode="&#xd5;" glyph-name="Otilde" horiz-adv-x="550" d="M164 -10T105 73T45 350Q45 543 104 626T275 710Q387 710 446 627T505 350Q505 157 446 74T275 -10Q164 -10 105 73ZM323 60T354 126T385 350Q385 508 354 574T275 640Q227 640 196 574T165
350Q165 192 196 126T275 60Q323 60 354 126ZM308 760T296 767T267 790Q255 801 249 805T235 810Q224 810 217 800T210 770H150Q150 834 169 862T225 890Q242 890 254 883T283 860Q295 849 301 845T315 840Q326 840 333 850T340 880H400Q400 816 381 788T325 760Q308
760 296 767Z" />
<glyph unicode="&#xd6;" glyph-name="Odieresis" horiz-adv-x="550" d="M140 760V880H250V760H140ZM300 760V880H410V760H300ZM164 -10T105 73T45 350Q45 543 104 626T275 710Q387 710 446 627T505 350Q505 157 446 74T275 -10Q164 -10 105 73ZM323 60T354 126T385
350Q385 508 354 574T275 640Q227 640 196 574T165 350Q165 192 196 126T275 60Q323 60 354 126Z" />
<glyph unicode="&#xd7;" glyph-name="multiply" horiz-adv-x="420" d="M100 160L40 220L150 330L40 440L100 500L210 390L320 500L380 440L270 330L380 220L320 160L210 270L100 160Z" />
<glyph unicode="&#xd8;" glyph-name="Oslash" horiz-adv-x="550" d="M168 -10T112 62L75 10L25 50L78 125Q45 211 45 350Q45 543 104 626T275 710Q382 710 438 637L475 690L525 650L472 575Q505 489 505 350Q505 157 446 74T275 -10Q168 -10 112 62ZM366 535Q352
591 328 615T275 640Q227 640 196 574T165 350Q165 291 169 254L366 535ZM323 60T354 126T385 350Q385 389 381 445L183 164Q211 60 275 60Q323 60 354 126Z" />
<glyph unicode="&#xd9;" glyph-name="Ugrave" horiz-adv-x="550" d="M245 740L170 870H285L320 740H245ZM164 -10T112 48T60 240V700H180V240Q180 141 205 101T275 60Q320 60 345 100T370 240V700H490V240Q490 107 438 49T275 -10Q164 -10 112 48Z" />
<glyph unicode="&#xda;" glyph-name="Uacute" horiz-adv-x="550" d="M230 740L265 870H380L305 740H230ZM164 -10T112 48T60 240V700H180V240Q180 141 205 101T275 60Q320 60 345 100T370 240V700H490V240Q490 107 438 49T275 -10Q164 -10 112 48Z" />
<glyph unicode="&#xdb;" glyph-name="Ucircumflex" horiz-adv-x="550" d="M143 740L223 870H328L408 740H331L275 810L219 740H143ZM164 -10T112 48T60 240V700H180V240Q180 141 205 101T275 60Q320 60 345 100T370 240V700H490V240Q490 107 438 49T275 -10Q164
-10 112 48Z" />
<glyph unicode="&#xdc;" glyph-name="Udieresis" horiz-adv-x="550" d="M140 740V860H250V740H140ZM300 740V860H410V740H300ZM164 -10T112 48T60 240V700H180V240Q180 141 205 101T275 60Q320 60 345 100T370 240V700H490V240Q490 107 438 49T275 -10Q164 -10 112 48Z" />
<glyph unicode="&#xdd;" glyph-name="Yacute" horiz-adv-x="480" d="M199 740L234 870H349L274 740H199ZM180 0V210L5 700H130L238 365H242L350 700H475L300 210V0H180Z" />
<glyph unicode="&#xde;" glyph-name="Thorn" horiz-adv-x="525" d="M70 710H190V635Q345 628 417 556T490 350Q490 216 418 144T190 65V-10H70V710ZM274 144T322 199T370 350Q370 446 322 501T190 560V140Q274 144 322 199Z" />
<glyph unicode="&#xdf;" glyph-name="germandbls" horiz-adv-x="550" d="M319 -10T289 -4T235 10V60H320Q357 60 381 78T405 135Q405 166 387 186T331 233Q287 263 264 291T240 365Q240 396 254 417T296 467Q321 491 333 508T345 550Q345 592 323 613T270 635Q233
635 209 601T185 495V0H65V495Q65 710 270 710Q331 710 375 689T442 632T465 550Q465 512 450 488T405 437Q383 417 372 402T360 365Q360 346 374 331T421 292Q454 268 474 249T510 202T525 135Q525 53 479 22T340 -10Q319 -10 289 -4Z" />
<glyph unicode="&#xe0;" glyph-name="agrave" horiz-adv-x="475" d="M216 560L141 690H256L291 560H216ZM123 -10T82 25T40 150Q40 241 83 275T205 310Q240 310 290 300V340Q290 397 264 418T185 440H85V490Q109 498 143 504T205 510Q277 510 321 496T387 445T410
340V0H325L310 30H305Q263 -10 195 -10Q123 -10 82 25ZM253 60T267 66T290 80V240H235Q204 240 182 219T160 150Q160 102 182 81T235 60Q253 60 267 66Z" />
<glyph unicode="&#xe1;" glyph-name="aacute" horiz-adv-x="475" d="M195 560L230 690H345L270 560H195ZM123 -10T82 25T40 150Q40 241 83 275T205 310Q240 310 290 300V340Q290 397 264 418T185 440H85V490Q109 498 143 504T205 510Q277 510 321 496T387 445T410
340V0H325L310 30H305Q263 -10 195 -10Q123 -10 82 25ZM253 60T267 66T290 80V240H235Q204 240 182 219T160 150Q160 102 182 81T235 60Q253 60 267 66Z" />
<glyph unicode="&#xe2;" glyph-name="acircumflex" horiz-adv-x="475" d="M110 550L190 680H295L375 550H298L242 620L186 550H110ZM123 -10T82 25T40 150Q40 241 83 275T205 310Q240 310 290 300V340Q290 397 264 418T185 440H85V490Q109 498 143 504T205 510Q277
510 321 496T387 445T410 340V0H325L310 30H305Q263 -10 195 -10Q123 -10 82 25ZM253 60T267 66T290 80V240H235Q204 240 182 219T160 150Q160 102 182 81T235 60Q253 60 267 66Z" />
<glyph unicode="&#xe3;" glyph-name="atilde" horiz-adv-x="475" d="M123 -10T82 25T40 150Q40 241 83 275T205 310Q240 310 290 300V340Q290 397 264 418T185 440H85V490Q109 498 143 504T205 510Q277 510 321 496T387 445T410 340V0H325L310 30H305Q263 -10
195 -10Q123 -10 82 25ZM253 60T267 66T290 80V240H235Q204 240 182 219T160 150Q160 102 182 81T235 60Q253 60 267 66ZM271 560T259 567T230 590Q218 601 212 605T198 610Q187 610 180 600T173 570H113Q113 634 132 662T188 690Q205 690 217 683T246 660Q258
649 264 645T278 640Q289 640 296 650T303 680H363Q363 616 344 588T288 560Q271 560 259 567Z" />
<glyph unicode="&#xe4;" glyph-name="adieresis" horiz-adv-x="475" d="M105 560V680H215V560H105ZM265 560V680H375V560H265ZM123 -10T82 25T40 150Q40 241 83 275T205 310Q240 310 290 300V340Q290 397 264 418T185 440H85V490Q109 498 143 504T205 510Q277
510 321 496T387 445T410 340V0H325L310 30H305Q263 -10 195 -10Q123 -10 82 25ZM253 60T267 66T290 80V240H235Q204 240 182 219T160 150Q160 102 182 81T235 60Q253 60 267 66Z" />
<glyph unicode="&#xe5;" glyph-name="aring" horiz-adv-x="475" d="M199 535T172 559T145 620Q145 657 172 681T240 705Q281 705 308 681T335 620Q335 583 308 559T240 535Q199 535 172 559ZM252 590T261 598T270 620Q270 634 261 642T240 650Q228 650 219 642T210
620Q210 606 219 598T240 590Q252 590 261 598ZM123 -10T82 25T40 150Q40 241 83 275T205 310Q240 310 290 300V340Q290 397 264 418T185 440H85V490Q109 498 143 504T205 510Q277 510 321 496T387 445T410 340V0H325L310 30H305Q263 -10 195 -10Q123 -10 82 25ZM253
60T267 66T290 80V240H235Q204 240 182 219T160 150Q160 102 182 81T235 60Q253 60 267 66Z" />
<glyph unicode="&#xe6;" glyph-name="ae" horiz-adv-x="710" d="M126 -10T83 23T40 140Q40 224 83 257T205 290Q240 290 290 280V340Q290 397 264 418T185 440H85V490Q109 498 143 504T205 510Q304 510 355 450Q406 510 480 510Q573 510 621 448T670 250V220H410Q410
132 440 96T535 60H645V10Q620 2 585 -4T515 -10Q455 -10 418 5T355 50Q330 21 296 6T205 -10Q126 -10 83 23ZM550 290Q550 377 532 411T480 445Q447 445 429 411T410 290H550ZM253 60T267 66T290 80V220H235Q204 220 182 201T160 140Q160 99 182 80T235 60Q253
60 267 66Z" />
<glyph unicode="&#xe7;" glyph-name="ccedilla" horiz-adv-x="395" d="M218 -170T201 -167T176 -160T165 -155V-121H230Q251 -121 258 -116T265 -100Q265 -79 235 -79H180V-2Q109 15 75 75T40 250Q40 389 89 449T240 510Q275 510 310 504T370 490V440H260Q211
440 186 398T160 250Q160 143 187 102T270 60H380V10Q355 2 320 -4T250 -10L234 -9L235 -10V-30H250Q294 -30 317 -49T340 -100Q340 -131 314 -150T240 -170Q218 -170 201 -167Z" />
<glyph unicode="&#xe8;" glyph-name="egrave" horiz-adv-x="460" d="M195 560L120 690H235L270 560H195ZM186 -10T137 15T64 98T40 250Q40 388 88 449T230 510Q324 510 372 449T420 250V215H160Q160 131 190 96T285 60H395V10Q370 2 335 -4T265 -10Q186 -10 137
15ZM300 285Q300 376 282 410T230 445Q196 445 178 411T160 285H300Z" />
<glyph unicode="&#xe9;" glyph-name="eacute" horiz-adv-x="460" d="M185 560L220 690H335L260 560H185ZM186 -10T137 15T64 98T40 250Q40 388 88 449T230 510Q324 510 372 449T420 250V215H160Q160 131 190 96T285 60H395V10Q370 2 335 -4T265 -10Q186 -10 137
15ZM300 285Q300 376 282 410T230 445Q196 445 178 411T160 285H300Z" />
<glyph unicode="&#xea;" glyph-name="ecircumflex" horiz-adv-x="460" d="M100 550L180 680H285L365 550H288L232 620L176 550H100ZM186 -10T137 15T64 98T40 250Q40 388 88 449T230 510Q324 510 372 449T420 250V215H160Q160 131 190 96T285 60H395V10Q370 2
335 -4T265 -10Q186 -10 137 15ZM300 285Q300 376 282 410T230 445Q196 445 178 411T160 285H300Z" />
<glyph unicode="&#xeb;" glyph-name="edieresis" horiz-adv-x="460" d="M95 560V680H205V560H95ZM255 560V680H365V560H255ZM186 -10T137 15T64 98T40 250Q40 388 88 449T230 510Q324 510 372 449T420 250V215H160Q160 131 190 96T285 60H395V10Q370 2 335 -4T265
-10Q186 -10 137 15ZM300 285Q300 376 282 410T230 445Q196 445 178 411T160 285H300Z" />
<glyph unicode="&#xec;" glyph-name="igrave" horiz-adv-x="260" d="M95 560L20 690H135L170 560H95ZM70 0V500H190V0H70Z" />
<glyph unicode="&#xed;" glyph-name="iacute" horiz-adv-x="260" d="M90 560L125 690H240L165 560H90ZM70 0V500H190V0H70Z" />
<glyph unicode="&#xee;" glyph-name="icircumflex" horiz-adv-x="245" d="M-10 550L70 680H175L255 550H178L122 620L66 550H-10ZM65 0V500H185V0H65Z" />
<glyph unicode="&#xef;" glyph-name="idieresis" horiz-adv-x="250" d="M-10 560V680H100V560H-10ZM150 560V680H260V560H150ZM65 0V500H185V0H65Z" />
<glyph unicode="&#xf0;" glyph-name="eth" horiz-adv-x="485" d="M40 -10T40 215Q40 329 89 384T230 440Q287 440 320 415Q320 457 315 488T295 539L245 479L195 520L250 590Q222 614 176 633T79 660L85 710Q154 706 211 691T305 650L360 717L410 676L355 611Q394
571 417 503T440 350V215Q440 -10 240 -10Q40 -10 40 215ZM274 55T297 93T320 215V350Q300 370 260 370Q212 370 186 334T160 215Q160 132 183 94T240 55Q274 55 297 93Z" />
<glyph unicode="&#xf1;" glyph-name="ntilde" horiz-adv-x="505" d="M169 560T150 588T130 680H190Q190 661 197 651T215 640Q222 640 228 644T247 660Q263 675 275 682T305 690Q341 690 360 662T380 570H320Q320 589 313 599T295 610Q288 610 282 606T263 590Q247
575 235 568T205 560Q169 560 150 588ZM65 500H150L165 470H170Q212 510 285 510Q357 510 398 475T440 350V0H320V350Q320 398 298 419T240 440Q223 440 208 434T185 420V0H65V500Z" />
<glyph unicode="&#xf2;" glyph-name="ograve" horiz-adv-x="480" d="M205 560L130 690H245L280 560H205ZM139 -10T90 50T40 250Q40 389 89 449T240 510Q341 510 390 450T440 250Q440 111 391 51T240 -10Q139 -10 90 50ZM278 55T299 98T320 250Q320 358 299 401T240
445Q202 445 181 402T160 250Q160 142 181 99T240 55Q278 55 299 98Z" />
<glyph unicode="&#xf3;" glyph-name="oacute" horiz-adv-x="480" d="M195 560L230 690H345L270 560H195ZM139 -10T90 50T40 250Q40 389 89 449T240 510Q341 510 390 450T440 250Q440 111 391 51T240 -10Q139 -10 90 50ZM278 55T299 98T320 250Q320 358 299 401T240
445Q202 445 181 402T160 250Q160 142 181 99T240 55Q278 55 299 98Z" />
<glyph unicode="&#xf4;" glyph-name="ocircumflex" horiz-adv-x="480" d="M109 550L189 680H294L374 550H297L241 620L185 550H109ZM139 -10T90 50T40 250Q40 389 89 449T240 510Q341 510 390 450T440 250Q440 111 391 51T240 -10Q139 -10 90 50ZM278 55T299 98T320
250Q320 358 299 401T240 445Q202 445 181 402T160 250Q160 142 181 99T240 55Q278 55 299 98Z" />
<glyph unicode="&#xf5;" glyph-name="otilde" horiz-adv-x="480" d="M139 -10T90 50T40 250Q40 389 89 449T240 510Q341 510 390 450T440 250Q440 111 391 51T240 -10Q139 -10 90 50ZM278 55T299 98T320 250Q320 358 299 401T240 445Q202 445 181 402T160 250Q160
142 181 99T240 55Q278 55 299 98ZM273 560T261 567T232 590Q220 601 214 605T200 610Q189 610 182 600T175 570H115Q115 634 134 662T190 690Q207 690 219 683T248 660Q260 649 266 645T280 640Q291 640 298 650T305 680H365Q365 616 346 588T290 560Q273 560
261 567Z" />
<glyph unicode="&#xf6;" glyph-name="odieresis" horiz-adv-x="480" d="M105 560V680H215V560H105ZM265 560V680H375V560H265ZM139 -10T90 50T40 250Q40 389 89 449T240 510Q341 510 390 450T440 250Q440 111 391 51T240 -10Q139 -10 90 50ZM278 55T299 98T320
250Q320 358 299 401T240 445Q202 445 181 402T160 250Q160 142 181 99T240 55Q278 55 299 98Z" />
<glyph unicode="&#xf7;" glyph-name="divide" horiz-adv-x="450" d="M175 405V515H275V405H175ZM30 255V345H420V255H30ZM175 85V195H275V85H175Z" />
<glyph unicode="&#xf8;" glyph-name="oslash" horiz-adv-x="490" d="M149 -10T100 43L70 10L25 60L65 104Q45 162 45 250Q45 389 94 449T245 510Q342 510 389 456L420 490L465 440L424 395Q445 340 445 250Q445 111 396 51T245 -10Q149 -10 100 43ZM313 374Q295
445 245 445Q207 445 186 402T165 250V213L313 374ZM283 55T304 98T325 250Q325 275 324 287L176 126Q194 55 245 55Q283 55 304 98Z" />
<glyph unicode="&#xf9;" glyph-name="ugrave" horiz-adv-x="505" d="M225 560L150 690H265L300 560H225ZM148 -10T107 25T65 150V500H185V150Q185 102 207 81T265 60Q283 60 297 66T320 80V500H440V0H355L340 30H335Q293 -10 220 -10Q148 -10 107 25Z" />
<glyph unicode="&#xfa;" glyph-name="uacute" horiz-adv-x="505" d="M210 560L245 690H360L285 560H210ZM148 -10T107 25T65 150V500H185V150Q185 102 207 81T265 60Q283 60 297 66T320 80V500H440V0H355L340 30H335Q293 -10 220 -10Q148 -10 107 25Z" />
<glyph unicode="&#xfb;" glyph-name="ucircumflex" horiz-adv-x="505" d="M123 550L203 680H308L388 550H311L255 620L199 550H123ZM148 -10T107 25T65 150V500H185V150Q185 102 207 81T265 60Q283 60 297 66T320 80V500H440V0H355L340 30H335Q293 -10 220 -10Q148
-10 107 25Z" />
<glyph unicode="&#xfc;" glyph-name="udieresis" horiz-adv-x="505" d="M120 560V680H230V560H120ZM280 560V680H390V560H280ZM148 -10T107 25T65 150V500H185V150Q185 102 207 81T265 60Q283 60 297 66T320 80V500H440V0H355L340 30H335Q293 -10 220 -10Q148
-10 107 25Z" />
<glyph unicode="&#xfd;" glyph-name="yacute" horiz-adv-x="505" d="M210 560L245 690H360L285 560H210ZM190 -210T155 -204T95 -190V-140H205Q264 -140 292 -104T320 20Q283 -10 220 -10Q148 -10 107 25T65 150V500H185V150Q185 102 207 81T265 60Q283 60 297
66T320 80V500H440V40Q440 -93 388 -151T225 -210Q190 -210 155 -204Z" />
<glyph unicode="&#xfe;" glyph-name="thorn" horiz-adv-x="495" d="M70 700H190V485Q225 510 275 510Q362 510 408 449T455 250Q455 113 409 52T275 -10Q225 -10 190 15V-200H70V700ZM287 60T311 102T335 250Q335 355 311 397T245 440Q228 440 213 434T190 420V80Q198
72 213 66T245 60Q287 60 311 102Z" />
<glyph unicode="&#xff;" glyph-name="ydieresis" horiz-adv-x="505" d="M120 560V680H230V560H120ZM280 560V680H390V560H280ZM190 -210T155 -204T95 -190V-140H205Q264 -140 292 -104T320 20Q283 -10 220 -10Q148 -10 107 25T65 150V500H185V150Q185 102 207
81T265 60Q283 60 297 66T320 80V500H440V40Q440 -93 388 -151T225 -210Q190 -210 155 -204Z" />
<glyph unicode="&#x2013;" glyph-name="endash" horiz-adv-x="480" d="M30 240V320H450V240H30Z" />
<glyph unicode="&#x2014;" glyph-name="emdash" horiz-adv-x="660" d="M30 240V320H630V240H30Z" />
<glyph unicode="&#x2018;" glyph-name="quoteleft" horiz-adv-x="195" d="M40 475L80 705H160V475H40Z" />
<glyph unicode="&#x2019;" glyph-name="quoteright" horiz-adv-x="195" d="M40 475V705H160L120 475H40Z" />
<glyph unicode="&#x201a;" glyph-name="quotesinglbase" horiz-adv-x="195" d="M40 -120V110H160L120 -120H40Z" />
<glyph unicode="&#x201c;" glyph-name="quotedblleft" horiz-adv-x="365" d="M35 475L75 705H155V475H35ZM205 475L245 705H325V475H205Z" />
<glyph unicode="&#x201d;" glyph-name="quotedblright" horiz-adv-x="365" d="M40 475V705H160L120 475H40ZM210 475V705H330L290 475H210Z" />
<glyph unicode="&#x201e;" glyph-name="quotedblbase" horiz-adv-x="365" d="M40 -120V110H160L120 -120H40ZM210 -120V110H330L290 -120H210Z" />
<glyph unicode="&#x2022;" glyph-name="bullet" horiz-adv-x="270" d="M45 260V439H225V260H45Z" />
<glyph unicode="&#x2039;" glyph-name="guilsinglleft" horiz-adv-x="325" d="M210 0L20 250L210 500L295 445L150 253V247L295 55L210 0Z" />
<glyph unicode="&#x203a;" glyph-name="guilsinglright" horiz-adv-x="325" d="M115 0L30 55L175 247V253L30 445L115 500L305 250L115 0Z" />
</font>
</defs>
</svg>
