<?xml version="1.0" standalone="no"?>
<!DOCTYPE svg PUBLIC "-//W3C//DTD SVG 1.1//EN" "http://www.w3.org/Graphics/SVG/1.1/DTD/svg11.dtd">
<svg xmlns="http://www.w3.org/2000/svg">
<defs >
<font id="AlegreyaSansSC" horiz-adv-x="504" ><font-face
    font-family="Alegreya Sans SC"
    units-per-em="1000"
    panose-1="0 0 5 0 0 0 0 0 0 0"
    ascent="900"
    descent="-300"
    alphabetic="0" />
<glyph unicode=" " glyph-name="space" horiz-adv-x="147" />
<glyph unicode="!" glyph-name="exclam" horiz-adv-x="228" d="M186 498L128 159L85 154L77 163L119 495L127 504L178 507L186 498ZM104 76T114 66T125 37Q125 18 114 7T84 -5Q66 -5 56 5T45 34Q45 53 56 64T86 76Q104 76 114 66Z" />
<glyph unicode="&quot;" glyph-name="quotedbl" horiz-adv-x="287" d="M152 492L107 312L68 306L62 313L89 494L148 498L152 492ZM269 492L223 312L184 306L178 313L206 494L264 498L269 492Z" />
<glyph unicode="#" glyph-name="numbersign" horiz-adv-x="513" d="M372 366L345 248H452L457 243L453 202H334L296 32H252L247 39L284 202H173L135 32H91L86 39L123 202H26L20 207L24 248H133L160 366H61L55 371L59 412H170L207 574H251L256 567L221 412H331L368
574H412L417 567L382 412H487L493 407L488 366H372ZM321 366H211L184 248H294L321 366Z" />
<glyph unicode="$" glyph-name="dollar" horiz-adv-x="416" d="M311 444T270 450L246 272Q299 247 327 220T356 146Q356 93 316 51T209 -2L192 -129H155L148 -122L163 -5Q129 -4 93 4T28 29L41 93L50 97Q74 73 105 60T169 44L193 226Q137 253 107 280T77 355Q77
409 119 450T229 499L246 639H284L292 631L275 500Q331 496 377 477L360 416L349 413Q311 444 270 450ZM138 341T154 324T202 292L222 448Q184 441 161 417T138 365Q138 341 154 324ZM295 157T280 173T237 205L216 49Q251 59 273 83T295 134Q295 157 280 173Z"
/>
<glyph unicode="%" glyph-name="percent" horiz-adv-x="829" d="M697 658L701 645L137 -91L107 -72L103 -60L667 677L697 658ZM303 644T334 609T366 507Q366 405 321 349T191 292Q131 292 100 328T68 431Q68 531 113 587T243 644Q303 644 334 609ZM177 592T149
553T120 441Q120 342 200 342Q256 342 285 382T314 494Q314 542 293 567T232 592Q177 592 149 553ZM718 348T750 313T782 210Q782 109 737 53T607 -4Q547 -4 515 32T483 134Q483 234 529 291T658 348Q718 348 750 313ZM592 296T564 256T535 144Q535 46 615 46Q671
46 700 85T729 197Q729 245 709 270T647 296Q592 296 564 256Z" />
<glyph unicode="&amp;" glyph-name="ampersand" horiz-adv-x="749" d="M814 313Q794 276 770 257T709 234Q677 234 600 251Q595 174 557 115T455 22T307 -11Q187 -11 118 60T49 253Q49 328 74 385T144 473T244 504Q295 504 325 479T355 414Q355 398 351 383Q443
452 514 537T625 711H633Q654 690 663 659Q625 573 541 482T346 316T122 197Q137 126 185 86T312 46Q378 46 430 73T513 149T543 262Q506 270 485 270Q459 270 440 255T404 207L395 206L379 247Q399 285 423 303T485 326Q506 326 545 319T594 309Q680 291 708 291Q737
291 756 306T789 353L798 354L814 313ZM186 452T151 400T115 263V251Q190 279 268 327Q287 344 296 362T305 398Q305 425 288 438T243 452Q186 452 151 400Z" />
<glyph unicode="&apos;" glyph-name="quotesingle" horiz-adv-x="164" d="M152 492L107 312L68 306L62 313L89 494L148 498L152 492Z" />
<glyph unicode="(" glyph-name="parenleft" horiz-adv-x="287" d="M320 637L319 630Q210 554 169 422T127 152Q127 60 149 0T228 -109L227 -116L196 -141H189Q122 -87 94 -20T66 152Q66 303 114 442T288 662H295L320 637Z" />
<glyph unicode=")" glyph-name="parenright" horiz-adv-x="308" d="M-26 -116L-25 -109Q84 -33 125 99T167 369Q167 461 145 521T66 630L67 637L98 662H105Q172 608 200 541T228 369Q228 218 180 79T6 -141H-1L-26 -116Z" />
<glyph unicode="*" glyph-name="asterisk" horiz-adv-x="374" d="M273 726L251 607L219 603L214 610L213 723Q240 732 269 732L273 726ZM199 594L194 562L186 559L86 593Q86 630 94 651L101 653L199 594ZM387 604T393 580L390 576L278 559L265 588L268 596L368
632Q387 604 393 580ZM273 538L335 447Q322 424 295 406L288 407L242 518L265 539L273 538ZM221 523L222 514L162 422Q143 429 110 448V455L194 538L221 523Z" />
<glyph unicode="+" glyph-name="plus" horiz-adv-x="477" d="M295 468L273 292H448L454 286L444 239H266L245 61L197 57L192 63L213 239H37L32 245L43 292H219L241 470L289 474L295 468Z" />
<glyph unicode="," glyph-name="comma" horiz-adv-x="229" d="M139 58T139 18Q139 -46 47 -113L22 -89V-83Q77 -39 77 5Q77 31 46 51V59Q70 75 98 84Q139 58 139 18Z" />
<glyph unicode="-" glyph-name="hyphen" horiz-adv-x="308" d="M286 292L280 244L34 210L28 217L34 265L280 299L286 292Z" />
<glyph unicode="." glyph-name="period" horiz-adv-x="230" d="M113 84T124 73T135 42Q135 21 123 8T91 -5Q71 -5 60 7T48 39Q48 59 60 71T93 84Q113 84 124 73Z" />
<glyph unicode="/" glyph-name="slash" horiz-adv-x="288" d="M314 669L54 -113H2L-3 -105L257 678H308L314 669Z" />
<glyph unicode="0" glyph-name="zero" horiz-adv-x="532" d="M392 503T441 449T490 286Q490 199 461 133T375 30T239 -7Q146 -7 97 47T48 209Q48 295 77 362T164 466T300 503Q392 503 441 449ZM202 435T155 377T108 218Q108 138 142 99T246 60Q334 60 381 116T429
274Q429 435 290 435Q202 435 155 377Z" />
<glyph unicode="1" glyph-name="one" horiz-adv-x="343" d="M254 493L214 207L193 0H118L146 198L172 416L37 378L31 383L38 442L244 501L254 493Z" />
<glyph unicode="2" glyph-name="two" horiz-adv-x="454" d="M312 501T347 472T383 396Q383 356 351 310T230 171L126 62L128 59H314L399 65L403 59L385 -4L286 0H61L24 -2L19 2L26 49L181 205Q250 274 279 311T308 380Q308 405 289 421T237 437Q201 437 163 419T91
368H82L78 426Q168 501 256 501Q312 501 347 472Z" />
<glyph unicode="3" glyph-name="three" horiz-adv-x="411" d="M281 502T320 470T360 385Q360 341 329 298T239 227V224Q347 195 347 98Q347 43 315 -1T226 -71T100 -97Q48 -97 0 -87L3 -20L11 -14Q57 -37 108 -37Q182 -37 228 -2T274 93Q274 135 243 159T154 186H96L92
192L101 244L144 245Q174 245 206 261T260 306T282 370Q282 402 261 421T202 440Q170 440 138 425T69 380H61L57 440Q99 472 136 487T213 502Q281 502 320 470Z" />
<glyph unicode="4" glyph-name="four" horiz-adv-x="479" d="M435 130L424 77L334 79H329L311 -86L305 -92L248 -97L244 -92L267 79H78L14 77L9 84L15 135L309 498H380L335 137H430L435 130ZM83 137H275L309 406H303L83 137Z" />
<glyph unicode="5" glyph-name="five" horiz-adv-x="416" d="M401 496L387 436L381 431L310 436H159L138 276L200 263Q356 230 356 111Q356 53 322 6T229 -70T99 -98Q58 -98 4 -89L6 -22L13 -16Q66 -39 116 -39Q191 -39 237 1T284 103Q284 183 173 205L80 223L74
230L106 488L120 500L173 498H308L398 501L401 496Z" />
<glyph unicode="6" glyph-name="six" horiz-adv-x="468" d="M197 470T133 309L138 303Q172 325 202 336T267 348Q335 348 378 305T421 195Q421 151 402 105T338 25T220 -8Q133 -8 88 42T42 179Q42 254 76 331T187 479T388 594H393L450 559L449 551Q197 470 133
309ZM219 292T183 277T114 232Q111 208 111 185Q111 121 136 85T223 48Q292 48 322 89T352 187Q352 237 327 264T253 292Q219 292 183 277Z" />
<glyph unicode="7" glyph-name="seven" horiz-adv-x="416" d="M148 498H378L420 500L414 444L165 14L106 -102L46 -83L44 -71L340 435H128L53 428L48 436L61 500L148 498Z" />
<glyph unicode="8" glyph-name="eight" horiz-adv-x="474" d="M344 592T385 557T426 460Q426 404 394 369T309 309L308 304Q359 279 386 249T413 164Q413 115 388 76T318 15T214 -7Q134 -7 87 32T40 138Q40 196 76 232T177 297L178 301Q138 324 117 352T95 428Q95
501 145 546T275 592Q344 592 385 557ZM222 538T190 510T157 435Q157 394 180 372T251 329Q303 350 334 378T365 454Q365 495 342 516T274 538Q222 538 190 510ZM172 251T138 224T104 146Q104 100 133 73T216 46Q275 46 312 78T350 160Q350 203 322 226T233 274Q172
251 138 224Z" />
<glyph unicode="9" glyph-name="nine" horiz-adv-x="468" d="M340 507T385 457T431 320Q431 245 397 168T286 20T85 -95H80L23 -60L24 -52Q276 29 340 190L335 196Q301 174 271 163T206 151Q138 151 95 194T52 304Q52 348 71 394T135 474T253 507Q340 507 385
457ZM254 207T290 222T359 267Q362 291 362 314Q362 378 337 414T250 451Q181 451 151 410T121 312Q121 262 146 235T220 207Q254 207 290 222Z" />
<glyph unicode=":" glyph-name="colon" horiz-adv-x="229" d="M368 84T379 73T390 42Q390 21 378 8T346 -5Q326 -5 315 7T303 39Q303 59 315 71T348 84Q368 84 379 73ZM145 354T156 343T167 312Q167 291 155 278T123 265Q103 265 92 277T80 309Q80 329 92 341T125
354Q145 354 156 343Z" />
<glyph unicode=";" glyph-name="semicolon" horiz-adv-x="229" d="M393 58T393 18Q393 -46 301 -113L276 -89V-83Q331 -39 331 5Q331 31 300 51V59Q324 75 352 84Q393 58 393 18ZM144 354T155 343T166 312Q166 291 154 278T122 265Q102 265 91 277T79 309Q79 329
91 341T124 354Q144 354 155 343Z" />
<glyph unicode="&lt;" glyph-name="less" horiz-adv-x="498" d="M461 419L457 412L97 269V264L424 130L407 87L398 81L34 234L42 296L49 304L449 463L461 419Z" />
<glyph unicode="=" glyph-name="equal" horiz-adv-x="478" d="M466 368L461 321H54L49 327L53 374H460L466 368ZM701 459L696 412H289L284 418L288 465H695L701 459Z" />
<glyph unicode="&gt;" glyph-name="greater" horiz-adv-x="503" d="M470 304L476 296L469 234L66 81L59 87L52 130L414 264V269L89 412L86 419L108 463L470 304Z" />
<glyph unicode="?" glyph-name="question" horiz-adv-x="278" d="M183 500T235 469T287 385Q287 351 265 319T202 266L125 224L124 221L118 156L71 150L66 157L69 238L73 247L155 293Q220 329 220 378Q220 445 64 454L59 461L77 502L86 506Q183 500 235 469ZM98
74T108 64T119 35Q119 17 108 6T78 -6Q60 -6 50 4T40 32Q40 52 50 63T80 74Q98 74 108 64Z" />
<glyph unicode="@" glyph-name="at" horiz-adv-x="823" d="M792 157T705 80T455 -4L485 208H476Q396 72 311 -7H297Q222 37 222 150Q222 223 249 291T330 406T459 465H464L528 443L572 465L582 460L532 109L529 51Q630 64 685 127T740 295Q740 375 705 435T606
529T454 562Q346 562 263 516T135 386T89 197Q89 89 136 11T270 -109T473 -151L475 -159L451 -197Q327 -195 233 -148T88 -15T36 187Q36 311 88 407T236 558T456 612Q557 612 633 573T750 463T792 297Q792 157 705 80ZM329 71T360 105T430 203T506 352L507 358L508
385L446 407Q397 407 361 375T305 288T286 168Q286 116 296 94T318 71Q329 71 360 105Z" />
<glyph unicode="A" glyph-name="A" horiz-adv-x="548" d="M500 0H424L418 62L397 177L261 179L138 177L86 66L61 0H-14L290 640H376L500 0ZM385 241L325 562H318L168 241L274 240L385 241Z" />
<glyph unicode="B" glyph-name="B" horiz-adv-x="512" d="M471 301T471 201Q471 101 403 49T199 -4Q113 -4 64 0H63L92 193L144 640H145L308 642Q385 642 427 608T470 508Q470 446 441 402T358 334Q471 301 471 201ZM393 538T368 558T290 579H212L181 360L286
357Q393 381 393 495Q393 538 368 558ZM301 59T347 95T394 197Q394 285 290 297L172 296L159 199L145 62Q182 59 216 59Q301 59 347 95Z" />
<glyph unicode="C" glyph-name="C" horiz-adv-x="500" d="M407 646T449 634T523 597L499 528L491 526Q433 582 351 582Q243 582 184 500T125 266Q125 165 166 112T283 58Q325 58 368 74T450 119L459 114L443 43Q357 -7 271 -7Q164 -7 106 61T47 255Q47 376 84
464T191 599T360 646Q407 646 449 634Z" />
<glyph unicode="D" glyph-name="D" horiz-adv-x="620" d="M473 645T536 580T599 395Q599 271 561 181T447 43T266 -6Q227 -6 170 -5T64 0H63L92 193L144 640H145L358 645Q473 645 536 580ZM395 57T457 140T520 381Q520 481 477 531T350 582Q325 582 285 581T211
578L159 199L145 63Q237 57 281 57Q395 57 457 140Z" />
<glyph unicode="E" glyph-name="E" horiz-adv-x="461" d="M210 576L182 360L297 358L397 361L402 354L388 296L282 298L173 297L160 199L146 64L268 62L413 66L416 59L403 0H63L92 193L144 640H485L488 633L475 574L333 578L210 576Z" />
<glyph unicode="F" glyph-name="F" horiz-adv-x="415" d="M210 576L180 348L283 346L383 348L387 341L373 283L268 286L172 285L160 199L139 0H63L92 193L144 640H467L472 633L456 573L319 578L210 576Z" />
<glyph unicode="G" glyph-name="G" horiz-adv-x="575" d="M477 646T560 600L535 529L526 527Q484 556 448 569T368 582Q248 582 185 499T122 255Q122 154 164 106T294 58Q322 58 349 63T420 82L433 160L443 259L514 264L501 170L487 31Q428 11 384 2T289 -7Q169
-7 107 59T45 248Q45 438 133 542T381 646Q477 646 560 600Z" />
<glyph unicode="H" glyph-name="H" horiz-adv-x="653" d="M614 640L555 199L534 0H459L487 193L498 291L328 294L172 291L159 199L139 0H63L92 193L143 640H219L180 357L342 354L506 357L538 640H614Z" />
<glyph unicode="I" glyph-name="I" horiz-adv-x="259" d="M159 199L139 0H63L92 193L143 640H219L159 199Z" />
<glyph unicode="J" glyph-name="J" horiz-adv-x="297" d="M194 212L185 118Q175 43 132 -6T-7 -101L-31 -59L-30 -50Q42 -12 75 25T115 118L126 205L169 579L50 578L43 585L55 640H252L194 212Z" />
<glyph unicode="K" glyph-name="K" horiz-adv-x="520" d="M159 199L138 0H62L92 193L143 640H219L159 199ZM271 338Q370 173 495 16L492 7Q457 -3 419 -9L412 -4Q274 191 190 336L191 342L426 586L471 640H556L271 338Z" />
<glyph unicode="L" glyph-name="L" horiz-adv-x="400" d="M376 56L363 0H63L93 193L144 640H220L160 199L146 64H372L376 56Z" />
<glyph unicode="M" glyph-name="M" horiz-adv-x="753" d="M664 0H597L608 195L616 521H610L384 74H321L215 521H208L137 201L95 0H31L175 640H260L280 543L365 172H372L559 549L601 640H686L664 0Z" />
<glyph unicode="N" glyph-name="N" horiz-adv-x="653" d="M553 187L532 0H454L203 520H196L157 210L134 0H63L91 190L145 640H223L474 120H480L544 637L615 642L553 187Z" />
<glyph unicode="O" glyph-name="O" horiz-adv-x="611" d="M470 647T530 580T590 391Q590 268 553 178T446 40T275 -8Q168 -8 108 61T47 255Q47 440 128 543T360 647Q470 647 530 580ZM237 584T181 501T124 260Q124 55 282 55Q396 55 453 139T511 382Q511 584 351
584Q237 584 181 501Z" />
<glyph unicode="P" glyph-name="P" horiz-adv-x="498" d="M401 642T447 600T493 476Q493 404 462 348T373 259T238 227H164L160 199L139 0H63L92 193L144 640H145L321 642Q401 642 447 600ZM341 296T378 345T416 466Q416 521 390 549T304 580L211 577L172 290L281
288Q341 296 378 345Z" />
<glyph unicode="Q" glyph-name="Q" horiz-adv-x="608" d="M674 -141Q658 -172 642 -189L635 -191Q538 -169 451 -123T294 -8H275Q168 -8 108 61T47 255Q47 440 128 543T360 647Q470 647 530 580T590 391Q590 237 533 136T367 4Q499 -100 673 -130L674 -141ZM124
55T282 55Q396 55 453 139T511 382Q511 584 351 584Q237 584 181 501T124 260Q124 55 282 55Z" />
<glyph unicode="R" glyph-name="R" horiz-adv-x="529" d="M494 409T454 350T340 259Q397 138 469 18L467 9Q431 -5 396 -9L388 -2Q323 123 276 240H165L159 199L139 0H63L92 193L144 640H145L323 642Q404 642 449 602T494 486Q494 409 454 350ZM173 304L288 301Q351
320 383 364T416 474Q416 574 304 580L210 577L173 304Z" />
<glyph unicode="S" glyph-name="S" horiz-adv-x="451" d="M370 646T439 615L418 544L404 540Q352 584 288 584Q250 584 221 569T176 530T160 478Q160 441 186 417T266 358Q310 331 337 310T384 256T404 180Q404 129 376 86T297 18T185 -7Q144 -7 100 5T19 38L38
115L48 119Q77 87 116 71T193 55Q252 55 290 87T328 166Q328 205 302 231T222 290Q179 316 152 337T106 390T87 465Q87 515 114 556T190 622T298 646Q370 646 439 615Z" />
<glyph unicode="T" glyph-name="T" horiz-adv-x="467" d="M497 633L483 575L379 580H316L265 199L244 0H169L198 193L241 580H180L71 575L66 582L80 640H493L497 633Z" />
<glyph unicode="U" glyph-name="U" horiz-adv-x="597" d="M534 315L525 242Q513 123 448 58T272 -7Q177 -7 123 42T69 180Q69 209 73 234L85 321L124 640H197L144 243Q141 219 141 198Q141 129 175 95T277 60Q355 60 400 103T456 234L502 640H577L534 315Z" />
<glyph unicode="V" glyph-name="V" horiz-adv-x="534" d="M277 0H190L65 640H142L148 577L242 78H247L481 574L505 640H579L277 0Z" />
<glyph unicode="W" glyph-name="W" horiz-adv-x="849" d="M593 0H516L444 378H437L265 0H186L71 640H146L148 581L237 84H244L424 479L392 640H470L476 574L565 84H572L799 576L821 640H892L593 0Z" />
<glyph unicode="X" glyph-name="X" horiz-adv-x="561" d="M339 329L501 0H414L395 51L280 275L106 46L76 0H-4L243 328L87 640H174L193 591L299 382L457 591L488 640H569L339 329Z" />
<glyph unicode="Y" glyph-name="Y" horiz-adv-x="502" d="M277 233L270 187L250 0H174L203 187L208 233L66 640H145L152 605L250 314H258L439 603L458 640H540L277 233Z" />
<glyph unicode="Z" glyph-name="Z" horiz-adv-x="503" d="M510 585L101 61H355L445 68L448 62L435 -2L325 0H57L3 -3L10 53L420 578H182L92 572L88 577L103 641L469 640L517 641L510 585Z" />
<glyph unicode="[" glyph-name="bracketleft" horiz-adv-x="288" d="M323 641L318 605L197 594L115 -77L233 -88L229 -125L223 -130L48 -120L98 259L141 637L319 647L323 641Z" />
<glyph unicode="\" glyph-name="backslash" horiz-adv-x="291" d="M30 669L37 678H88L293 -105L287 -113H235L30 669Z" />
<glyph unicode="]" glyph-name="bracketright" horiz-adv-x="288" d="M-27 -124L-22 -88L99 -77L181 594L63 605L67 642L73 647L248 637L198 258L155 -120L-23 -130L-27 -124Z" />
<glyph unicode="^" glyph-name="asciicircum" horiz-adv-x="423" d="M390 133L384 125L339 115L244 434H239L58 117L49 112L9 129L210 487L219 491H282L390 133Z" />
<glyph unicode="_" glyph-name="underscore" horiz-adv-x="451" d="M426 -93L416 -138H-54L-59 -132L-49 -88H421L426 -93Z" />
<glyph unicode="`" glyph-name="grave" horiz-adv-x="402" d="M216 625T308 550L287 520L278 519Q210 567 110 646L108 655L136 694L145 695Q216 625 308 550Z" />
<glyph unicode="a" glyph-name="a" horiz-adv-x="491" d="M430 0H358L355 53L339 130L226 131L125 130L88 56L67 0H-3L244 498H325L430 0ZM276 427H272L153 188H326L276 427Z" />
<glyph unicode="b" glyph-name="b" horiz-adv-x="464" d="M408 236T408 154Q408 76 351 37T181 -3Q117 -3 61 0L82 150L123 498L267 499Q333 499 370 471T408 389Q408 343 384 310T315 259Q408 236 408 154ZM333 412T312 427T244 443H186L164 284L251 281Q293
290 313 314T333 380Q333 412 312 427ZM262 51T299 77T336 152Q336 217 252 227L156 226L147 156L136 54Q166 51 195 51Q262 51 299 77Z" />
<glyph unicode="c" glyph-name="c" horiz-adv-x="445" d="M390 502T443 467L422 402L412 399Q392 420 362 432T295 444Q210 444 165 384T119 211Q119 135 151 95T245 54Q280 54 316 66T383 100L392 97L378 32Q342 13 309 4T239 -6Q147 -6 96 49T45 203Q45 345
114 423T308 502Q390 502 443 467Z" />
<glyph unicode="d" glyph-name="d" horiz-adv-x="549" d="M403 502T456 450T510 304Q510 159 438 77T233 -5Q199 -5 151 -4T61 0L82 150L123 498L306 502Q403 502 456 450ZM337 53T387 114T437 290Q437 441 297 441L186 438L147 156L137 58Q165 56 195 55T246
53Q337 53 387 114Z" />
<glyph unicode="e" glyph-name="e" horiz-adv-x="419" d="M186 440L165 284L261 283L344 286L347 279L336 224L247 226H157L147 156L137 58L230 57L358 60L363 55L350 0H61L82 150L123 498H414L417 491L405 437L286 441L186 440Z" />
<glyph unicode="f" glyph-name="f" horiz-adv-x="374" d="M181 440L158 272L241 271L325 274L330 267L317 213L228 214L150 213L142 156L126 0H56L77 150L118 498H394L398 491L384 437L269 441L181 440Z" />
<glyph unicode="g" glyph-name="g" horiz-adv-x="510" d="M400 502T477 468L444 400H437Q400 424 372 433T312 443Q216 443 167 383T118 211Q118 130 149 92T255 54Q280 54 303 58T361 75L368 128L375 198L440 203L431 138L417 24Q363 8 325 1T250 -6Q149 -6 97
47T45 207Q45 297 78 363T175 466T325 502Q400 502 477 468Z" />
<glyph unicode="h" glyph-name="h" horiz-adv-x="576" d="M522 498L476 156L459 0H389L411 150L419 220L156 219L147 156L131 0H61L83 150L123 498H194L164 282L296 281L426 282L451 498H522Z" />
<glyph unicode="i" glyph-name="i" horiz-adv-x="252" d="M147 156L131 0H61L83 150L123 498H194L147 156Z" />
<glyph unicode="j" glyph-name="j" horiz-adv-x="287" d="M175 165L166 92Q158 32 127 -6T23 -79L-2 -40L-1 -32Q49 -6 72 23T100 95L108 157L142 443H46L42 448L53 498H218L175 165Z" />
<glyph unicode="k" glyph-name="k" horiz-adv-x="474" d="M150 156L132 0H61L84 150L124 498H195L150 156ZM246 263Q324 143 434 15L430 7Q400 -2 362 -7L354 -2Q253 131 171 260L172 266L363 454L400 498H478L246 263Z" />
<glyph unicode="l" glyph-name="l" horiz-adv-x="367" d="M327 53L314 0H61L83 150L124 498H194L148 156L137 59H322L327 53Z" />
<glyph unicode="m" glyph-name="m" horiz-adv-x="658" d="M568 0H506L515 152L518 389H513L332 56H276L187 389H181L126 158L94 0H34L150 498H230L245 423L317 147H322L469 426L503 498H580L568 0Z" />
<glyph unicode="n" glyph-name="n" horiz-adv-x="577" d="M473 148L457 0H383L176 387H172L143 165L124 0H61L82 147L124 498H197L405 111H410L457 495L522 500L473 148Z" />
<glyph unicode="o" glyph-name="o" horiz-adv-x="540" d="M401 503T451 450T501 290Q501 203 470 136T380 31T240 -7Q146 -7 96 48T45 211Q45 345 114 424T307 503Q401 503 451 450ZM209 444T164 386T118 215Q118 129 148 91T247 53Q337 53 382 112T427 282Q427
366 397 405T298 444Q209 444 164 386Z" />
<glyph unicode="p" glyph-name="p" horiz-adv-x="450" d="M348 499T386 464T425 365Q425 312 399 268T326 199T221 173H149L147 156L130 0H61L82 150L123 498L280 499Q348 499 386 464ZM296 237T323 272T351 358Q351 400 329 420T259 443L186 442L157 230L247
228Q296 237 323 272Z" />
<glyph unicode="q" glyph-name="q" horiz-adv-x="538" d="M555 -106Q536 -134 519 -149L512 -150Q441 -131 375 -95T255 -7H240Q146 -7 96 48T45 211Q45 345 114 424T307 503Q401 503 451 450T501 290Q501 182 454 106T322 5Q422 -72 553 -97L555 -106ZM118 129T148
91T247 53Q337 53 382 112T427 282Q427 366 397 405T298 444Q209 444 164 386T118 215Q118 129 148 91Z" />
<glyph unicode="r" glyph-name="r" horiz-adv-x="478" d="M426 314T394 271T303 202Q350 111 411 17L408 8Q368 -5 342 -7L331 0L322 18Q264 134 243 183H152L148 156L131 0H61L83 150L124 498L280 499Q348 499 387 465T426 372Q426 314 394 271ZM160 242L251
239Q352 267 352 363Q352 401 330 420T261 442L187 441L160 242Z" />
<glyph unicode="s" glyph-name="s" horiz-adv-x="409" d="M318 502T371 479L352 409L339 406Q295 447 246 447Q201 447 174 422T147 365Q147 338 168 321T233 282Q271 263 294 248T333 209T350 149Q350 110 328 75T265 17T168 -6Q134 -6 96 3T28 28L44 102L54
106Q78 79 111 65T176 50Q220 50 249 75T279 134Q279 163 258 180T192 219Q155 237 132 252T93 292T76 353Q76 392 98 426T160 481T253 502Q318 502 371 479Z" />
<glyph unicode="t" glyph-name="t" horiz-adv-x="421" d="M422 491L410 432L321 438H272L234 156L217 0H148L169 150L204 438H153L62 432L58 439L70 498H419L422 491Z" />
<glyph unicode="u" glyph-name="u" horiz-adv-x="530" d="M457 244L448 173Q438 88 384 41T237 -6Q154 -6 109 31T64 137Q64 154 67 173L78 249L107 498H178L134 185Q132 165 132 156Q132 106 160 81T243 55Q368 55 385 185L420 498H491L457 244Z" />
<glyph unicode="v" glyph-name="v" horiz-adv-x="480" d="M248 0H166L60 498H132L138 444L215 70H219L404 441L424 498H494L248 0Z" />
<glyph unicode="w" glyph-name="w" horiz-adv-x="739" d="M511 0H439L376 279H372L236 0H163L66 498H135L137 446L211 76H215L359 373L335 498H405L409 441L484 76H490L667 443L687 498H752L511 0Z" />
<glyph unicode="x" glyph-name="x" horiz-adv-x="501" d="M295 255L437 0H354L337 42L243 207L109 38L83 0H6L211 255L73 498H159L174 456L260 302L383 457L408 498H488L295 255Z" />
<glyph unicode="y" glyph-name="y" horiz-adv-x="457" d="M249 176L244 143L227 0H158L180 143L183 177L60 498H137L143 469L223 252H230L376 467L392 498H466L249 176Z" />
<glyph unicode="z" glyph-name="z" horiz-adv-x="452" d="M432 445L103 56H306L386 64L390 59L375 -2L278 0H60L12 -2L18 50L348 441H152L78 433L76 439L89 499L174 498H398L439 499L432 445Z" />
<glyph unicode="{" glyph-name="braceleft" horiz-adv-x="288" d="M287 655T315 648L318 642L305 600Q283 605 269 605Q231 605 213 581T195 501Q195 483 197 443Q199 405 199 390Q199 296 118 262L117 259Q173 233 173 170Q173 154 168 132T158 96T152 76Q129
9 129 -25Q129 -85 184 -85Q198 -85 221 -80L224 -121L219 -127Q197 -134 168 -134Q68 -134 68 -40Q68 0 92 76Q111 141 111 166Q111 228 39 241L43 280Q93 288 115 315T138 396L137 447Q135 487 135 502Q135 655 265 655Q287 655 315 648Z" />
<glyph unicode="|" glyph-name="bar" horiz-adv-x="314" d="M256 792L193 288L126 -259L73 -262L68 -254L134 283L197 792L251 797L256 792Z" />
<glyph unicode="}" glyph-name="braceright" horiz-adv-x="288" d="M9 -134T-19 -127L-22 -121L-9 -79Q13 -84 27 -84Q65 -84 83 -60T101 20Q101 38 99 78Q97 116 97 131Q97 225 178 259L179 262Q123 288 123 351Q123 367 128 389T138 425T144 445Q167 512 167
546Q167 606 112 606Q98 606 75 601L72 642L77 648Q99 655 128 655Q228 655 228 561Q228 521 204 445Q185 380 185 355Q185 293 257 280L253 241Q203 233 181 206T158 125L159 74Q161 34 161 19Q161 -134 31 -134Q9 -134 -19 -127Z" />
<glyph unicode="~" glyph-name="asciitilde" horiz-adv-x="480" d="M142 259T131 251T97 224L79 208H70L53 234V242L133 313L144 318Q168 313 234 294Q245 291 283 280T337 269Q348 269 362 279T410 320H419L436 294L435 286L355 213L345 211Q322 214 242 237Q234
239 200 249T151 259Q142 259 131 251Z" />
<glyph unicode="&#xa0;" glyph-name="uni00A0" horiz-adv-x="147" />
<glyph unicode="&#xa1;" glyph-name="exclamdown" horiz-adv-x="228" d="M124 426T114 436T103 465Q103 484 114 495T144 507Q162 507 172 497T183 468Q183 449 172 438T142 426Q124 426 114 436ZM42 4L100 343L143 348L151 339L109 7L101 -2L50 -5L42 4Z" />
<glyph unicode="&#xa2;" glyph-name="cent" horiz-adv-x="389" d="M362 475L345 427L331 424Q298 453 266 456L205 95Q253 114 291 183L302 182L322 154Q293 109 264 84T197 45L169 -119H132L127 -112L151 38Q96 48 69 83T42 203Q42 318 88 398T227 499L253 652H290L297
644L274 505H288L356 485L362 475ZM101 153T115 124T159 90L219 451Q163 434 132 372T101 213Q101 153 115 124Z" />
<glyph unicode="&#xa3;" glyph-name="sterling" horiz-adv-x="418" d="M356 593T413 575L402 518L397 513Q349 544 299 544Q206 544 192 441L179 335H307L309 330L300 292H174L157 159Q153 123 140 99T104 57V54H271L360 60L363 54L350 -2L254 0H5L1 6L9 45Q84
59 95 152L112 292H41L38 298L47 335H117L129 432Q138 510 184 551T308 593Q356 593 413 575Z" />
<glyph unicode="&#xa4;" glyph-name="currency" horiz-adv-x="436" d="M435 511L433 502L359 439Q377 412 377 372Q377 321 340 281L400 218V210L363 175L355 176L299 243Q259 215 216 215Q173 215 141 242L70 174L62 175L31 207L34 216L108 278Q89 304 89 346Q89
393 127 438L67 500L68 509L104 542H112L168 474Q204 501 251 501Q295 501 325 476L396 543H405L435 511ZM201 457T168 425T134 348Q134 310 158 285T221 260Q267 260 300 292T333 369Q333 407 309 432T246 457Q201 457 168 425Z" />
<glyph unicode="&#xa5;" glyph-name="yen" horiz-adv-x="517" d="M485 293L489 289L481 254H330L273 173L271 160H468L472 155L465 122H266L252 0H191L209 122H29L25 126L32 160H214L216 178L184 254H45L42 260L49 293H168L85 497H152L159 469L252 246H257L417
467L433 497H499L357 293H485Z" />
<glyph unicode="&#xa6;" glyph-name="brokenbar" horiz-adv-x="314" d="M256 792L204 372L151 366L145 372L197 792L251 797L256 792ZM177 152L126 -259L74 -262L68 -254L119 154L171 160L177 152Z" />
<glyph unicode="&#xa7;" glyph-name="section" horiz-adv-x="392" d="M221 594T194 570T167 518Q167 493 187 472T249 421Q303 382 332 350T361 271Q361 228 332 191T253 130Q292 89 292 43Q292 5 268 -28T203 -82T112 -102Q81 -102 46 -93T-15 -69L1 -5L10 0Q35
-25 64 -38T125 -51Q169 -51 197 -27T226 27Q226 53 205 74T141 127Q87 166 59 198T30 275Q30 318 60 356T140 419Q102 457 102 503Q102 541 125 574T188 626T277 646Q301 646 329 641T381 624L365 561L354 558Q305 594 260 594Q221 594 194 570ZM296 282T274 305T209
361L179 384Q138 365 117 342T96 293Q96 266 117 243T183 188L215 164Q296 199 296 252Q296 282 274 305Z" />
<glyph unicode="&#xa8;" glyph-name="dieresis" horiz-adv-x="394" d="M181 646T191 636T202 608Q202 589 191 578T161 566Q142 566 132 576T122 605Q122 624 133 635T163 646Q181 646 191 636ZM344 646T354 636T365 608Q365 589 354 578T324 566Q306 566 296
576T286 605Q286 624 296 635T326 646Q344 646 354 636Z" />
<glyph unicode="&#xa9;" glyph-name="copyright" horiz-adv-x="691" d="M441 598T507 560T611 453T648 293Q648 202 611 133T508 26T353 -12Q265 -12 198 26T94 133T57 293Q57 384 94 453T198 560T353 598Q441 598 507 560ZM275 565T216 531T123 436T90 293Q90
212 123 151T215 55T353 21Q431 21 490 55T582 150T615 293Q615 374 583 435T491 531T353 565Q275 565 216 531ZM415 465T461 442L450 399L445 397Q429 408 408 414T366 420Q261 420 261 298Q261 236 287 204T365 171Q386 171 409 177T451 195L457 193L453 149Q405
126 362 126Q285 126 246 169T207 294Q207 376 248 420T368 465Q415 465 461 442Z" />
<glyph unicode="&#xaa;" glyph-name="ordfeminine" horiz-adv-x="312" d="M315 644L284 410L279 338L219 334L236 471V470H229Q181 380 132 333H122Q89 346 76 369T63 433Q63 511 103 571T217 645H221L271 638L309 648L315 644ZM149 389T181 434T246 550L249 573L251
594L209 601Q167 600 143 559T119 456Q119 423 126 406T140 389Q149 389 181 434Z" />
<glyph unicode="&#xab;" glyph-name="guillemotleft" horiz-adv-x="394" d="M219 220L221 236L387 405L421 385V375L277 226L384 76L382 67L344 46L219 220ZM55 220L57 236L223 405L257 385V375L113 226L220 76L218 67L180 46L55 220Z" />
<glyph unicode="&#xac;" glyph-name="logicalnot" horiz-adv-x="480" d="M430 285L403 61L356 57L349 63L371 239H36L32 245L41 292H425L430 285Z" />
<glyph unicode="&#xad;" glyph-name="uni00AD" horiz-adv-x="308" d="M286 292L280 244L34 210L28 217L34 265L280 299L286 292Z" />
<glyph unicode="&#xae;" glyph-name="registered" horiz-adv-x="439" d="M302 702T351 653T401 522Q401 440 352 390T220 340Q138 340 88 390T38 522Q38 603 88 652T220 702Q302 702 351 653ZM290 365T333 408T376 522Q376 592 334 634T220 676Q150 676 108 634T65
522Q65 451 107 408T220 365Q290 365 333 408ZM291 548T281 533T251 509Q273 475 303 438V435Q290 430 269 428L265 431Q244 462 222 500H188V493L189 431H155L156 489L155 625H226Q258 625 274 610T291 567Q291 548 281 533ZM189 529L224 527Q255 537 255 564Q255
597 216 598L190 597L189 529Z" />
<glyph unicode="&#xaf;" glyph-name="overscore" horiz-adv-x="386" d="M387 627L382 582H99L93 588L98 632H381L387 627Z" />
<glyph unicode="&#xb0;" glyph-name="degree" horiz-adv-x="294" d="M246 647T277 615T309 536Q309 499 290 468T238 418T168 399Q120 399 88 431T56 510Q56 547 75 578T128 628T198 647Q246 647 277 615ZM154 609T124 581T94 515Q94 482 116 459T172 436Q211
436 241 464T271 531Q271 564 249 586T193 609Q154 609 124 581Z" />
<glyph unicode="&#xb1;" glyph-name="plusminus" horiz-adv-x="478" d="M295 468L273 292H448L454 286L444 239H266L245 61L197 57L192 63L213 239H37L32 245L43 292H219L241 470L289 474L295 468ZM412 -42L407 -89H0L-5 -83L-1 -36H406L412 -42Z" />
<glyph unicode="&#xb2;" glyph-name="uni00B2" horiz-adv-x="348" d="M270 703T299 681T329 624Q329 593 306 559T223 463L141 375L142 373H273L338 376L340 370L328 320L248 323H82L55 322L51 325L55 363L169 478Q221 532 242 559T263 610Q263 628 250 640T213
652Q188 652 160 638T107 600H100L95 648Q162 703 227 703Q270 703 299 681Z" />
<glyph unicode="&#xb3;" glyph-name="uni00B3" horiz-adv-x="307" d="M233 704T264 682T295 624Q295 596 276 570T219 528L218 525Q287 507 287 443Q287 388 239 354T115 319Q76 319 48 326L50 372L55 375Q101 367 122 367Q169 367 197 387T226 440Q226 492 154
495H113L109 499L116 542H146Q176 542 203 563T230 613Q230 632 216 643T179 654Q141 654 94 622H87L82 665Q112 685 136 694T189 704Q233 704 264 682Z" />
<glyph unicode="&#xb4;" glyph-name="acute" horiz-adv-x="377" d="M307 694L335 655L333 646Q233 567 165 519L156 520L135 550Q227 625 298 695L307 694Z" />
<glyph unicode="&#xb5;" glyph-name="uni00B5" horiz-adv-x="658" d="M568 0H506L515 152L518 389H513L332 56H276L187 389H181L126 158L94 0H34L150 498H230L245 423L317 147H322L469 426L503 498H580L568 0Z" />
<glyph unicode="&#xb6;" glyph-name="paragraph" horiz-adv-x="484" d="M506 633L494 581H420L368 181L362 129Q354 63 312 14T181 -76L162 -42L164 -33Q225 2 255 39T291 124L297 169L346 582H287Q219 576 181 534T143 422Q143 367 173 329T262 275L232 231Q151
248 108 295T65 417Q65 521 132 580T316 640H501L506 633Z" />
<glyph unicode="&#xb7;" glyph-name="middot" horiz-adv-x="229" d="M137 289T148 278T159 247Q159 226 147 213T115 200Q95 200 84 212T72 244Q72 264 84 276T117 289Q137 289 148 278Z" />
<glyph unicode="&#xb8;" glyph-name="cedilla" horiz-adv-x="385" d="M151 -52L185 -72Q223 -92 223 -127Q223 -156 201 -174T144 -192Q101 -192 72 -161L80 -123L85 -121Q98 -137 110 -144T140 -152Q155 -152 164 -145T173 -125Q173 -116 168 -111T151 -100L104
-71L128 19H172L151 -52Z" />
<glyph unicode="&#xb9;" glyph-name="uni00B9" horiz-adv-x="257" d="M225 698L194 456L179 323H116L133 449L155 634L66 612L62 616L68 665L218 705L225 698Z" />
<glyph unicode="&#xba;" glyph-name="ordmasculine" horiz-adv-x="296" d="M220 647Q296 635 296 545Q296 451 256 394T145 332L139 333Q62 341 62 438Q62 529 102 586T213 647H220ZM163 602T141 558T119 438Q119 405 127 391T156 376Q196 376 217 419T238 540Q238
573 230 587T203 602Q163 602 141 558Z" />
<glyph unicode="&#xbb;" glyph-name="guillemotright" horiz-adv-x="394" d="M337 232L335 216L169 47L135 67V77L279 226L172 376L174 385L212 406L337 232ZM429 232L427 216L261 47L227 67V77L371 226L264 376L266 385L304 406L429 232Z" />
<glyph unicode="&#xbc;" glyph-name="onequarter" horiz-adv-x="698" d="M217 639L186 397L171 264H108L125 390L147 575L58 553L54 557L60 606L210 646L217 639ZM604 658L608 645L44 -91L14 -72L10 -60L574 677L604 658ZM645 101L585 103L576 5L572 0L521 -3L518
1L532 103H413L364 101L360 107L365 147L561 377H619L590 151H650L654 145L645 101ZM423 151H539L559 305H554L423 151Z" />
<glyph unicode="&#xbd;" glyph-name="onehalf" horiz-adv-x="705" d="M217 639L186 397L171 264H108L125 390L147 575L58 553L54 557L60 606L210 646L217 639ZM604 658L608 645L44 -91L14 -72L10 -60L574 677L604 658ZM587 380T616 358T646 301Q646 270 623 236T540
140L458 52L459 50H590L655 53L657 47L645 -3L565 0H399L372 -1L368 2L372 40L486 155Q538 209 559 236T580 287Q580 305 567 317T530 329Q505 329 477 315T424 277H417L412 325Q479 380 544 380Q587 380 616 358Z" />
<glyph unicode="&#xbe;" glyph-name="threequarters" horiz-adv-x="735" d="M226 645T256 623T287 565Q287 537 268 511T211 469L210 466Q279 448 279 384Q279 329 231 295T107 260Q68 260 40 267L42 313L47 316Q93 308 114 308Q161 308 189 328T218 381Q218 433
146 436H105L101 440L108 483H138Q168 483 195 504T222 554Q222 573 208 584T171 595Q133 595 86 563H79L74 606Q104 626 128 635T181 645Q226 645 256 623ZM641 658L645 645L81 -91L51 -72L47 -60L611 677L641 658ZM682 101L622 103L613 5L609 0L558 -3L555 1L569
103H450L401 101L397 107L402 147L598 377H656L627 151H687L691 145L682 101ZM460 151H576L596 305H591L460 151Z" />
<glyph unicode="&#xbf;" glyph-name="questiondown" horiz-adv-x="278" d="M180 427T170 437T159 466Q159 484 170 495T200 507Q218 507 228 497T238 469Q238 449 228 438T198 427Q180 427 170 437ZM95 1T43 32T-9 116Q-9 150 13 182T76 235L153 277L154 280L160
345L207 351L212 344L209 263L205 254L123 208Q58 172 58 123Q58 56 214 47L219 40L201 -1L192 -5Q95 1 43 32Z" />
<glyph unicode="&#xc0;" glyph-name="Agrave" horiz-adv-x="548" d="M500 0H424L418 62L397 177L261 179L138 177L86 66L61 0H-14L290 640H376L500 0ZM385 241L325 562H318L168 241L274 240L385 241ZM338 806T435 758L421 724L412 720L368 739Q279 777 219 806L216
815L236 859L244 861Q338 806 435 758Z" />
<glyph unicode="&#xc1;" glyph-name="Aacute" horiz-adv-x="548" d="M500 0H424L418 62L397 177L261 179L138 177L86 66L61 0H-14L290 640H376L500 0ZM385 241L325 562H318L168 241L274 240L385 241ZM439 859L459 815L456 806Q396 777 307 739L263 720L254 724L240
758Q346 811 431 861L439 859Z" />
<glyph unicode="&#xc2;" glyph-name="Acircumflex" horiz-adv-x="548" d="M500 0H424L418 62L397 177L261 179L138 177L86 66L61 0H-14L290 640H376L500 0ZM385 241L325 562H318L168 241L274 240L385 241ZM218 757Q276 794 339 847H361Q412 799 469 757L451 725H442Q373
772 348 791Q318 772 238 725H229L218 757Z" />
<glyph unicode="&#xc3;" glyph-name="Atilde" horiz-adv-x="548" d="M500 0H424L418 62L397 177L261 179L138 177L86 66L61 0H-14L290 640H376L500 0ZM385 241L325 562H318L168 241L274 240L385 241ZM503 822V815L442 748L433 744Q412 746 352 764Q293 781 278
781Q270 781 262 774T237 750L222 735H213L190 760V767L251 834L260 837Q284 835 343 817Q350 815 377 808T415 801Q423 801 432 808T453 828T472 847H479L503 822Z" />
<glyph unicode="&#xc4;" glyph-name="Adieresis" horiz-adv-x="548" d="M500 0H424L418 62L397 177L261 179L138 177L86 66L61 0H-14L290 640H376L500 0ZM385 241L325 562H318L168 241L274 240L385 241ZM285 828T295 818T306 790Q306 771 295 760T265 748Q246
748 236 758T226 787Q226 806 237 817T267 828Q285 828 295 818ZM448 828T458 818T469 790Q469 771 458 760T428 748Q410 748 400 758T390 787Q390 806 400 817T430 828Q448 828 458 818Z" />
<glyph unicode="&#xc5;" glyph-name="Aring" horiz-adv-x="548" d="M500 0H424L418 62L397 177L261 179L138 177L86 66L61 0H-14L290 640H376L500 0ZM385 241L325 562H318L168 241L274 240L385 241ZM387 877T408 855T430 797Q430 758 406 736T346 714Q310 714
288 735T265 795Q265 832 287 854T348 877Q387 877 408 855ZM325 839T314 828T302 796Q302 774 314 762T348 750Q368 750 380 761T393 794Q393 814 381 826T347 839Q325 839 314 828Z" />
<glyph unicode="&#xc6;" glyph-name="AE" horiz-adv-x="766" d="M730 59L717 0H388L390 62L387 261L156 208L67 66L35 0H-43L359 640H711L715 633L701 574L548 578H456L459 336L669 381L674 375L672 320L459 277L462 61H570L726 66L730 59ZM386 320L382 562H377L201
280L386 320Z" />
<glyph unicode="&#xc7;" glyph-name="Ccedilla" horiz-adv-x="500" d="M407 646T449 634T523 597L499 528L491 526Q433 582 351 582Q243 582 184 500T125 266Q125 165 166 112T283 58Q325 58 368 74T450 119L459 114L443 43Q380 6 316 -4L302 -52L336 -72Q374
-92 374 -127Q374 -156 352 -174T295 -192Q252 -192 223 -161L231 -123L236 -121Q249 -137 261 -144T291 -152Q306 -152 315 -145T324 -125Q324 -116 319 -111T302 -100L255 -71L272 -7H271Q164 -7 106 61T47 255Q47 376 84 464T191 599T360 646Q407 646 449 634Z"
/>
<glyph unicode="&#xc8;" glyph-name="Egrave" horiz-adv-x="461" d="M210 576L182 360L297 358L397 361L402 354L388 296L282 298L173 297L160 199L146 64L268 62L413 66L416 59L403 0H63L92 193L144 640H485L488 633L475 574L333 578L210 576ZM319 806T416 758L402
724L393 720L349 739Q260 777 200 806L197 815L217 859L225 861Q319 806 416 758Z" />
<glyph unicode="&#xc9;" glyph-name="Eacute" horiz-adv-x="461" d="M210 576L182 360L297 358L397 361L402 354L388 296L282 298L173 297L160 199L146 64L268 62L413 66L416 59L403 0H63L92 193L144 640H485L488 633L475 574L333 578L210 576ZM420 859L440 815L437
806Q377 777 288 739L244 720L235 724L221 758Q327 811 412 861L420 859Z" />
<glyph unicode="&#xca;" glyph-name="Ecircumflex" horiz-adv-x="461" d="M210 576L182 360L297 358L397 361L402 354L388 296L282 298L173 297L160 199L146 64L268 62L413 66L416 59L403 0H63L92 193L144 640H485L488 633L475 574L333 578L210 576ZM199 757Q257
794 320 847H342Q393 799 450 757L432 725H423Q354 772 329 791Q299 772 219 725H210L199 757Z" />
<glyph unicode="&#xcb;" glyph-name="Edieresis" horiz-adv-x="461" d="M210 576L182 360L297 358L397 361L402 354L388 296L282 298L173 297L160 199L146 64L268 62L413 66L416 59L403 0H63L92 193L144 640H485L488 633L475 574L333 578L210 576ZM266 828T276
818T287 790Q287 771 276 760T246 748Q227 748 217 758T207 787Q207 806 218 817T248 828Q266 828 276 818ZM429 828T439 818T450 790Q450 771 439 760T409 748Q391 748 381 758T371 787Q371 806 381 817T411 828Q429 828 439 818Z" />
<glyph unicode="&#xcc;" glyph-name="Igrave" horiz-adv-x="259" d="M159 199L139 0H63L92 193L143 640H219L159 199ZM190 806T287 758L273 724L264 720L220 739Q131 777 71 806L68 815L88 859L96 861Q190 806 287 758Z" />
<glyph unicode="&#xcd;" glyph-name="Iacute" horiz-adv-x="259" d="M159 199L139 0H63L92 193L143 640H219L159 199ZM291 859L311 815L308 806Q248 777 159 739L115 720L106 724L92 758Q198 811 283 861L291 859Z" />
<glyph unicode="&#xce;" glyph-name="Icircumflex" horiz-adv-x="259" d="M159 199L139 0H63L92 193L143 640H219L159 199ZM70 757Q128 794 191 847H213Q264 799 321 757L303 725H294Q225 772 200 791Q170 772 90 725H81L70 757Z" />
<glyph unicode="&#xcf;" glyph-name="Idieresis" horiz-adv-x="259" d="M159 199L139 0H63L92 193L143 640H219L159 199ZM157 830T167 819T178 789Q178 769 167 757T136 745Q116 745 106 756T95 786Q95 806 107 818T139 830Q157 830 167 819ZM282 830T292 819T303
789Q303 769 292 757T261 745Q241 745 231 756T220 786Q220 806 231 818T263 830Q282 830 292 819Z" />
<glyph unicode="&#xd0;" glyph-name="Eth" horiz-adv-x="644" d="M496 645T559 580T622 395Q622 271 584 181T470 43T289 -6Q250 -6 193 -5T87 0H86L115 193L127 298H34L30 304L37 351H133L167 640H168L381 645Q496 645 559 580ZM418 57T480 140T543 381Q543 481
500 531T373 582Q348 582 308 581T234 578L203 351H359L362 345L356 298H195L182 199L168 63Q260 57 304 57Q418 57 480 140Z" />
<glyph unicode="&#xd1;" glyph-name="Ntilde" horiz-adv-x="653" d="M553 187L532 0H454L203 520H196L157 210L134 0H63L91 190L145 640H223L474 120H480L544 637L615 642L553 187ZM553 822V815L492 748L483 744Q462 746 402 764Q343 781 328 781Q320 781 312
774T287 750L272 735H263L240 760V767L301 834L310 837Q334 835 393 817Q400 815 427 808T465 801Q473 801 482 808T503 828T522 847H529L553 822Z" />
<glyph unicode="&#xd2;" glyph-name="Ograve" horiz-adv-x="611" d="M470 647T530 580T590 391Q590 268 553 178T446 40T275 -8Q168 -8 108 61T47 255Q47 440 128 543T360 647Q470 647 530 580ZM237 584T181 501T124 260Q124 55 282 55Q396 55 453 139T511 382Q511
584 351 584Q237 584 181 501ZM366 806T463 758L449 724L440 720L396 739Q307 777 247 806L244 815L264 859L272 861Q366 806 463 758Z" />
<glyph unicode="&#xd3;" glyph-name="Oacute" horiz-adv-x="611" d="M470 647T530 580T590 391Q590 268 553 178T446 40T275 -8Q168 -8 108 61T47 255Q47 440 128 543T360 647Q470 647 530 580ZM237 584T181 501T124 260Q124 55 282 55Q396 55 453 139T511 382Q511
584 351 584Q237 584 181 501ZM467 859L487 815L484 806Q424 777 335 739L291 720L282 724L268 758Q374 811 459 861L467 859Z" />
<glyph unicode="&#xd4;" glyph-name="Ocircumflex" horiz-adv-x="611" d="M470 647T530 580T590 391Q590 268 553 178T446 40T275 -8Q168 -8 108 61T47 255Q47 440 128 543T360 647Q470 647 530 580ZM237 584T181 501T124 260Q124 55 282 55Q396 55 453 139T511
382Q511 584 351 584Q237 584 181 501ZM246 757Q304 794 367 847H389Q440 799 497 757L479 725H470Q401 772 376 791Q346 772 266 725H257L246 757Z" />
<glyph unicode="&#xd5;" glyph-name="Otilde" horiz-adv-x="611" d="M470 647T530 580T590 391Q590 268 553 178T446 40T275 -8Q168 -8 108 61T47 255Q47 440 128 543T360 647Q470 647 530 580ZM237 584T181 501T124 260Q124 55 282 55Q396 55 453 139T511 382Q511
584 351 584Q237 584 181 501ZM531 822V815L470 748L461 744Q440 746 380 764Q321 781 306 781Q298 781 290 774T265 750L250 735H241L218 760V767L279 834L288 837Q312 835 371 817Q378 815 405 808T443 801Q451 801 460 808T481 828T500 847H507L531 822Z" />
<glyph unicode="&#xd6;" glyph-name="Odieresis" horiz-adv-x="611" d="M470 647T530 580T590 391Q590 268 553 178T446 40T275 -8Q168 -8 108 61T47 255Q47 440 128 543T360 647Q470 647 530 580ZM237 584T181 501T124 260Q124 55 282 55Q396 55 453 139T511
382Q511 584 351 584Q237 584 181 501ZM313 828T323 818T334 790Q334 771 323 760T293 748Q274 748 264 758T254 787Q254 806 265 817T295 828Q313 828 323 818ZM476 828T486 818T497 790Q497 771 486 760T456 748Q438 748 428 758T418 787Q418 806 428 817T458
828Q476 828 486 818Z" />
<glyph unicode="&#xd7;" glyph-name="multiply" horiz-adv-x="481" d="M423 399L422 390L283 266L391 141L390 133L350 102L240 227L98 102L66 133L67 140L208 266L98 390L99 399L138 429L250 303L390 429L423 399Z" />
<glyph unicode="&#xd8;" glyph-name="Oslash" horiz-adv-x="612" d="M590 535T590 391Q590 268 553 178T446 40T275 -8Q217 -8 172 13L107 -101L64 -85L61 -77L128 41Q89 74 68 128T47 255Q47 440 128 543T360 647Q418 647 462 628L515 722L559 706L562 697L507
601Q590 535 590 391ZM124 158T165 105L428 568Q396 584 351 584Q237 584 181 501T124 260Q124 158 165 105ZM396 55T453 139T511 382Q511 485 470 535L205 72Q239 55 282 55Q396 55 453 139Z" />
<glyph unicode="&#xd9;" glyph-name="Ugrave" horiz-adv-x="597" d="M534 315L525 242Q513 123 448 58T272 -7Q177 -7 123 42T69 180Q69 209 73 234L85 321L124 640H197L144 243Q141 219 141 198Q141 129 175 95T277 60Q355 60 400 103T456 234L502 640H577L534
315ZM359 806T456 758L442 724L433 720L389 739Q300 777 240 806L237 815L257 859L265 861Q359 806 456 758Z" />
<glyph unicode="&#xda;" glyph-name="Uacute" horiz-adv-x="597" d="M534 315L525 242Q513 123 448 58T272 -7Q177 -7 123 42T69 180Q69 209 73 234L85 321L124 640H197L144 243Q141 219 141 198Q141 129 175 95T277 60Q355 60 400 103T456 234L502 640H577L534
315ZM460 859L480 815L477 806Q417 777 328 739L284 720L275 724L261 758Q367 811 452 861L460 859Z" />
<glyph unicode="&#xdb;" glyph-name="Ucircumflex" horiz-adv-x="597" d="M534 315L525 242Q513 123 448 58T272 -7Q177 -7 123 42T69 180Q69 209 73 234L85 321L124 640H197L144 243Q141 219 141 198Q141 129 175 95T277 60Q355 60 400 103T456 234L502 640H577L534
315ZM239 757Q297 794 360 847H382Q433 799 490 757L472 725H463Q394 772 369 791Q339 772 259 725H250L239 757Z" />
<glyph unicode="&#xdc;" glyph-name="Udieresis" horiz-adv-x="597" d="M534 315L525 242Q513 123 448 58T272 -7Q177 -7 123 42T69 180Q69 209 73 234L85 321L124 640H197L144 243Q141 219 141 198Q141 129 175 95T277 60Q355 60 400 103T456 234L502 640H577L534
315ZM308 828T318 818T329 790Q329 771 318 760T288 748Q269 748 259 758T249 787Q249 806 260 817T290 828Q308 828 318 818ZM471 828T481 818T492 790Q492 771 481 760T451 748Q433 748 423 758T413 787Q413 806 423 817T453 828Q471 828 481 818Z" />
<glyph unicode="&#xdd;" glyph-name="Yacute" horiz-adv-x="502" d="M277 233L270 187L250 0H174L203 187L208 233L66 640H145L152 605L250 314H258L439 603L458 640H540L277 233ZM412 859L432 815L429 806Q369 777 280 739L236 720L227 724L213 758Q319 811 404
861L412 859Z" />
<glyph unicode="&#xde;" glyph-name="Thorn" horiz-adv-x="502" d="M391 529T436 488T482 364Q482 292 451 236T363 147T227 115H151L139 0H64L92 193L145 640H219L204 528L310 529Q391 529 436 488ZM331 184T368 232T405 354Q405 408 379 436T293 467L196 465L160
199L158 178L270 176Q331 184 368 232Z" />
<glyph unicode="&#xdf;" glyph-name="germandbls" horiz-adv-x="538" d="M356 502T398 491T490 454L491 442L346 287Q419 262 453 230T488 148Q488 101 464 66T400 13T311 -6Q277 -6 241 3T180 29L196 99L204 102Q227 79 257 66T314 52Q357 52 385 78T414 141Q414
178 375 203T255 248L254 262L398 415Q346 445 297 445Q237 445 200 414T156 327L132 156L115 0H46L66 147L89 327Q99 407 158 454T310 502Q356 502 398 491Z" />
<glyph unicode="&#xe0;" glyph-name="agrave" horiz-adv-x="491" d="M263 607T163 686L161 695L189 734L198 735Q269 665 361 590L340 560L331 559Q263 607 163 686ZM430 0H358L355 53L339 130L226 131L125 130L88 56L67 0H-3L244 498H325L430 0ZM276 427H272L153
188H326L276 427Z" />
<glyph unicode="&#xe1;" glyph-name="aacute" horiz-adv-x="491" d="M221 560L200 590Q292 665 363 735L372 734L400 695L398 686Q298 607 230 559L221 560ZM430 0H358L355 53L339 130L226 131L125 130L88 56L67 0H-3L244 498H325L430 0ZM276 427H272L153 188H326L276
427Z" />
<glyph unicode="&#xe2;" glyph-name="acircumflex" horiz-adv-x="491" d="M179 561L163 592Q202 628 295 725H319Q368 653 425 592L400 561H392Q334 624 303 667Q261 624 188 561H179ZM430 0H358L355 53L339 130L226 131L125 130L88 56L67 0H-3L244 498H325L430
0ZM276 427H272L153 188H326L276 427Z" />
<glyph unicode="&#xe3;" glyph-name="atilde" horiz-adv-x="491" d="M455 680V673L394 606L385 602Q364 604 304 622Q245 639 230 639Q222 639 214 632T189 608L174 593H165L142 618V625L203 692L212 695Q236 693 295 675Q302 673 329 666T367 659Q375 659 384
666T405 686T424 705H431L455 680ZM325 498L430 0H358L355 53L339 130L226 131L125 130L88 56L67 0H-3L244 498H325ZM276 427H272L153 188H326L276 427Z" />
<glyph unicode="&#xe4;" glyph-name="adieresis" horiz-adv-x="491" d="M197 606T187 616T177 645Q177 664 188 675T218 686Q236 686 246 676T257 648Q257 629 246 618T216 606Q197 606 187 616ZM361 606T351 616T341 645Q341 664 351 675T381 686Q399 686 409
676T420 648Q420 629 409 618T379 606Q361 606 351 616ZM430 0H358L355 53L339 130L226 131L125 130L88 56L67 0H-3L244 498H325L430 0ZM276 427H272L153 188H326L276 427Z" />
<glyph unicode="&#xe5;" glyph-name="aring" horiz-adv-x="491" d="M262 572T240 593T217 653Q217 690 239 712T300 735Q339 735 360 713T382 655Q382 616 358 594T298 572Q262 572 240 593ZM277 697T266 686T254 654Q254 632 266 620T300 608Q320 608 332 619T345
652Q345 672 333 684T299 697Q277 697 266 686ZM430 0H358L355 53L339 130L226 131L125 130L88 56L67 0H-3L244 498H325L430 0ZM276 427H272L153 188H326L276 427Z" />
<glyph unicode="&#xe6;" glyph-name="ae" horiz-adv-x="672" d="M625 56L612 0H332L336 52L332 191L131 146L70 55L44 0H-26L303 498H605L608 491L594 437L466 442H391L396 262L569 299L575 295L572 238L397 205L401 58H490L620 62L625 56ZM331 248L326 428H320L177
214L331 248Z" />
<glyph unicode="&#xe7;" glyph-name="ccedilla" horiz-adv-x="445" d="M390 502T443 467L422 402L412 399Q392 420 362 432T295 444Q210 444 165 384T119 211Q119 135 151 95T245 54Q280 54 316 66T383 100L392 97L378 32Q324 3 276 -4L261 -53L295 -73Q333 -93
333 -128Q333 -157 311 -175T254 -193Q211 -193 182 -162L190 -124L195 -122Q208 -138 220 -145T250 -153Q265 -153 274 -146T283 -126Q283 -117 278 -112T261 -101L214 -72L232 -6Q143 -4 94 51T45 203Q45 345 114 423T308 502Q390 502 443 467Z" />
<glyph unicode="&#xe8;" glyph-name="egrave" horiz-adv-x="419" d="M250 607T150 686L148 695L176 734L185 735Q256 665 348 590L327 560L318 559Q250 607 150 686ZM186 440L165 284L261 283L344 286L347 279L336 224L247 226H157L147 156L137 58L230 57L358
60L363 55L350 0H61L82 150L123 498H414L417 491L405 437L286 441L186 440Z" />
<glyph unicode="&#xe9;" glyph-name="eacute" horiz-adv-x="419" d="M208 560L187 590Q279 665 350 735L359 734L387 695L385 686Q285 607 217 559L208 560ZM186 440L165 284L261 283L344 286L347 279L336 224L247 226H157L147 156L137 58L230 57L358 60L363 55L350
0H61L82 150L123 498H414L417 491L405 437L286 441L186 440Z" />
<glyph unicode="&#xea;" glyph-name="ecircumflex" horiz-adv-x="419" d="M166 561L150 592Q189 628 282 725H306Q355 653 412 592L387 561H379Q321 624 290 667Q248 624 175 561H166ZM186 440L165 284L261 283L344 286L347 279L336 224L247 226H157L147 156L137
58L230 57L358 60L363 55L350 0H61L82 150L123 498H414L417 491L405 437L286 441L186 440Z" />
<glyph unicode="&#xeb;" glyph-name="edieresis" horiz-adv-x="419" d="M184 606T174 616T164 645Q164 664 175 675T205 686Q223 686 233 676T244 648Q244 629 233 618T203 606Q184 606 174 616ZM348 606T338 616T328 645Q328 664 338 675T368 686Q386 686 396
676T407 648Q407 629 396 618T366 606Q348 606 338 616ZM186 440L165 284L261 283L344 286L347 279L336 224L247 226H157L147 156L137 58L230 57L358 60L363 55L350 0H61L82 150L123 498H414L417 491L405 437L286 441L186 440Z" />
<glyph unicode="&#xec;" glyph-name="igrave" horiz-adv-x="252" d="M146 665T238 590L217 560L208 559Q140 607 40 686L38 695L66 734L75 735Q146 665 238 590ZM147 156L131 0H61L83 150L123 498H194L147 156Z" />
<glyph unicode="&#xed;" glyph-name="iacute" horiz-adv-x="252" d="M249 734L277 695L275 686Q175 607 107 559L98 560L77 590Q169 665 240 735L249 734ZM147 156L131 0H61L83 150L123 498H194L147 156Z" />
<glyph unicode="&#xee;" glyph-name="icircumflex" horiz-adv-x="252" d="M39 592Q78 628 171 725H195Q244 653 301 592L276 561H268Q210 624 179 667Q137 624 64 561H55L39 592ZM147 156L131 0H61L83 150L123 498H194L147 156Z" />
<glyph unicode="&#xef;" glyph-name="idieresis" horiz-adv-x="252" d="M133 688T143 677T154 647Q154 627 143 615T112 603Q93 603 82 614T71 644Q71 664 83 676T115 688Q133 688 143 677ZM258 688T268 677T279 647Q279 627 268 615T237 603Q218 603 207 614T196
644Q196 664 207 676T239 688Q258 688 268 677ZM147 156L131 0H61L83 150L123 498H194L147 156Z" />
<glyph unicode="&#xf0;" glyph-name="eth" horiz-adv-x="552" d="M406 502T459 450T513 304Q513 159 441 77T236 -5Q202 -5 154 -4T65 0L85 150L94 221H8L4 227L13 272H100L127 498L310 502Q406 502 459 450ZM340 53T390 113T440 290Q440 441 300 441L189 438L167
272H287L290 265L282 221H160L151 156L140 58Q169 56 199 55T250 53Q340 53 390 113Z" />
<glyph unicode="&#xf1;" glyph-name="ntilde" horiz-adv-x="577" d="M494 680V673L433 606L424 602Q403 604 343 622Q284 639 269 639Q261 639 253 632T228 608L213 593H204L181 618V625L242 692L251 695Q275 693 334 675Q341 673 368 666T406 659Q414 659 423
666T444 686T463 705H470L494 680ZM473 148L457 0H383L176 387H172L143 165L124 0H61L82 147L124 498H197L405 111H410L457 495L522 500L473 148Z" />
<glyph unicode="&#xf2;" glyph-name="ograve" horiz-adv-x="540" d="M290 665T382 590L361 560L352 559Q284 607 184 686L182 695L210 734L219 735Q290 665 382 590ZM401 503T451 450T501 290Q501 203 470 136T380 31T240 -7Q146 -7 96 48T45 211Q45 345 114 424T307
503Q401 503 451 450ZM209 444T164 386T118 215Q118 129 148 91T247 53Q337 53 382 112T427 282Q427 366 397 405T298 444Q209 444 164 386Z" />
<glyph unicode="&#xf3;" glyph-name="oacute" horiz-adv-x="540" d="M393 734L421 695L419 686Q319 607 251 559L242 560L221 590Q313 665 384 735L393 734ZM401 503T451 450T501 290Q501 203 470 136T380 31T240 -7Q146 -7 96 48T45 211Q45 345 114 424T307 503Q401
503 451 450ZM209 444T164 386T118 215Q118 129 148 91T247 53Q337 53 382 112T427 282Q427 366 397 405T298 444Q209 444 164 386Z" />
<glyph unicode="&#xf4;" glyph-name="ocircumflex" horiz-adv-x="540" d="M184 592Q223 628 316 725H340Q389 653 446 592L421 561H413Q355 624 324 667Q282 624 209 561H200L184 592ZM401 503T451 450T501 290Q501 203 470 136T380 31T240 -7Q146 -7 96 48T45
211Q45 345 114 424T307 503Q401 503 451 450ZM209 444T164 386T118 215Q118 129 148 91T247 53Q337 53 382 112T427 282Q427 366 397 405T298 444Q209 444 164 386Z" />
<glyph unicode="&#xf5;" glyph-name="otilde" horiz-adv-x="540" d="M475 680V673L414 606L405 602Q384 604 324 622Q265 639 250 639Q242 639 234 632T209 608L194 593H185L162 618V625L223 692L232 695Q256 693 315 675Q322 673 349 666T387 659Q395 659 404
666T425 686T444 705H451L475 680ZM401 503T451 450T501 290Q501 203 470 136T380 31T240 -7Q146 -7 96 48T45 211Q45 345 114 424T307 503Q401 503 451 450ZM209 444T164 386T118 215Q118 129 148 91T247 53Q337 53 382 112T427 282Q427 366 397 405T298 444Q209
444 164 386Z" />
<glyph unicode="&#xf6;" glyph-name="odieresis" horiz-adv-x="540" d="M257 686T267 676T278 648Q278 629 267 618T237 606Q218 606 208 616T198 645Q198 664 209 675T239 686Q257 686 267 676ZM420 686T430 676T441 648Q441 629 430 618T400 606Q382 606 372
616T362 645Q362 664 372 675T402 686Q420 686 430 676ZM401 503T451 450T501 290Q501 203 470 136T380 31T240 -7Q146 -7 96 48T45 211Q45 345 114 424T307 503Q401 503 451 450ZM209 444T164 386T118 215Q118 129 148 91T247 53Q337 53 382 112T427 282Q427 366
397 405T298 444Q209 444 164 386Z" />
<glyph unicode="&#xf7;" glyph-name="divide" horiz-adv-x="478" d="M283 484T294 474T305 445Q305 425 294 413T263 400Q244 400 233 411T222 442Q222 461 233 472T265 484Q283 484 294 474ZM452 286L447 239H40L35 245L39 292H446L452 286ZM241 133T252 123T263
94Q263 74 252 62T221 49Q202 49 191 60T180 91Q180 110 191 121T223 133Q241 133 252 123Z" />
<glyph unicode="&#xf8;" glyph-name="oslash" horiz-adv-x="540" d="M501 413T501 290Q501 203 470 136T380 31T240 -7Q195 -7 156 7L95 -95L52 -70L50 -62L108 35Q45 90 45 211Q45 345 114 424T307 503Q348 503 383 492L434 577L477 552L479 543L433 466Q501
413 501 290ZM118 135T145 96L350 437Q329 444 298 444Q209 444 164 386T118 215Q118 135 145 96ZM337 53T382 112T427 282Q427 367 396 405L189 62Q215 53 247 53Q337 53 382 112Z" />
<glyph unicode="&#xf9;" glyph-name="ugrave" horiz-adv-x="530" d="M286 665T378 590L357 560L348 559Q280 607 180 686L178 695L206 734L215 735Q286 665 378 590ZM457 244L448 173Q438 88 384 41T237 -6Q154 -6 109 31T64 137Q64 154 67 173L78 249L107 498H178L134
185Q132 165 132 156Q132 106 160 81T243 55Q368 55 385 185L420 498H491L457 244Z" />
<glyph unicode="&#xfa;" glyph-name="uacute" horiz-adv-x="530" d="M389 734L417 695L415 686Q315 607 247 559L238 560L217 590Q309 665 380 735L389 734ZM457 244L448 173Q438 88 384 41T237 -6Q154 -6 109 31T64 137Q64 154 67 173L78 249L107 498H178L134
185Q132 165 132 156Q132 106 160 81T243 55Q368 55 385 185L420 498H491L457 244Z" />
<glyph unicode="&#xfb;" glyph-name="ucircumflex" horiz-adv-x="530" d="M179 592Q218 628 311 725H335Q384 653 441 592L416 561H408Q350 624 319 667Q277 624 204 561H195L179 592ZM457 244L448 173Q438 88 384 41T237 -6Q154 -6 109 31T64 137Q64 154 67 173L78
249L107 498H178L134 185Q132 165 132 156Q132 106 160 81T243 55Q368 55 385 185L420 498H491L457 244Z" />
<glyph unicode="&#xfc;" glyph-name="udieresis" horiz-adv-x="530" d="M253 686T263 676T274 648Q274 629 263 618T233 606Q214 606 204 616T194 645Q194 664 205 675T235 686Q253 686 263 676ZM416 686T426 676T437 648Q437 629 426 618T396 606Q378 606 368
616T358 645Q358 664 368 675T398 686Q416 686 426 676ZM457 244L448 173Q438 88 384 41T237 -6Q154 -6 109 31T64 137Q64 154 67 173L78 249L107 498H178L134 185Q132 165 132 156Q132 106 160 81T243 55Q368 55 385 185L420 498H491L457 244Z" />
<glyph unicode="&#xfd;" glyph-name="yacute" horiz-adv-x="457" d="M201 560L180 590Q272 665 343 735L352 734L380 695L378 686Q278 607 210 559L201 560ZM249 176L244 143L227 0H158L180 143L183 177L60 498H137L143 469L223 252H230L376 467L392 498H466L249 176Z" />
<glyph unicode="&#xfe;" glyph-name="thorn" horiz-adv-x="455" d="M342 416T380 381T419 282Q419 229 393 185T319 116T214 90H141L132 0H61L82 150L123 498H195L184 415L274 416Q342 416 380 381ZM290 154T317 189T345 274Q345 317 323 337T254 360L176 359L148
156L147 147L242 145Q290 154 317 189Z" />
<glyph unicode="&#xff;" glyph-name="ydieresis" horiz-adv-x="457" d="M177 606T167 616T157 645Q157 664 168 675T198 686Q216 686 226 676T237 648Q237 629 226 618T196 606Q177 606 167 616ZM341 606T331 616T321 645Q321 664 331 675T361 686Q379 686 389
676T400 648Q400 629 389 618T359 606Q341 606 331 616ZM249 176L244 143L227 0H158L180 143L183 177L60 498H137L143 469L223 252H230L376 467L392 498H466L249 176Z" />
<glyph unicode="&#x2013;" glyph-name="endash" horiz-adv-x="477" d="M499 276L490 229H-10L-15 235L-5 282H495L499 276Z" />
<glyph unicode="&#x2014;" glyph-name="emdash" horiz-adv-x="932" d="M955 276L945 229H-10L-15 235L-5 282H950L955 276Z" />
<glyph unicode="&#x2018;" glyph-name="quoteleft" horiz-adv-x="165" d="M50 318T50 371Q50 431 122 502L151 482V476Q109 430 109 392Q109 353 148 338V330Q134 317 103 297Q50 318 50 371Z" />
<glyph unicode="&#x2019;" glyph-name="quoteright" horiz-adv-x="165" d="M156 481T156 428Q156 368 84 297L55 317V323Q97 369 97 407Q97 446 58 461V469Q72 482 103 502Q156 481 156 428Z" />
<glyph unicode="&#x201a;" glyph-name="quotesinglbase" horiz-adv-x="229" d="M139 58T139 18Q139 -46 47 -113L22 -89V-83Q77 -39 77 5Q77 31 46 51V59Q70 75 98 84Q139 58 139 18Z" />
<glyph unicode="&#x201c;" glyph-name="quotedblleft" horiz-adv-x="285" d="M49 318T49 371Q49 431 121 502L150 482V476Q108 430 108 392Q108 353 147 338V330Q133 317 102 297Q49 318 49 371ZM178 318T178 371Q178 431 250 502L279 482V476Q237 430 237 392Q237
353 276 338V330Q262 317 231 297Q178 318 178 371Z" />
<glyph unicode="&#x201d;" glyph-name="quotedblright" horiz-adv-x="290" d="M156 481T156 428Q156 368 84 297L55 317V323Q97 369 97 407Q97 446 58 461V469Q72 482 103 502Q156 481 156 428ZM282 481T282 428Q282 368 210 297L181 317V323Q223 369 223 407Q223
446 184 461V469Q198 482 229 502Q282 481 282 428Z" />
<glyph unicode="&#x201e;" glyph-name="quotedblbase" horiz-adv-x="357" d="M267 58T267 18Q267 -46 175 -113L150 -89V-83Q205 -39 205 5Q205 31 174 51V59Q198 75 226 84Q267 58 267 18ZM139 58T139 18Q139 -46 47 -113L22 -89V-83Q77 -39 77 5Q77 31 46 51V59Q70
75 98 84Q139 58 139 18Z" />
<glyph unicode="&#x2022;" glyph-name="bullet" horiz-adv-x="240" d="M145 287T157 275T170 240Q170 216 157 202T120 187Q98 187 86 200T73 236Q73 260 86 273T123 287Q145 287 157 275Z" />
<glyph unicode="&#x2039;" glyph-name="guilsinglleft" horiz-adv-x="228" d="M55 220L57 236L223 405L257 385V375L113 226L220 76L218 67L180 46L55 220Z" />
<glyph unicode="&#x203a;" glyph-name="guilsinglright" horiz-adv-x="229" d="M185 232L183 216L17 47L-17 67V77L127 226L20 376L22 385L60 406L185 232Z" />
</font>
</defs>
</svg>
