<?xml version="1.0" standalone="no"?>
<!DOCTYPE svg PUBLIC "-//W3C//DTD SVG 1.1//EN" "http://www.w3.org/Graphics/SVG/1.1/DTD/svg11.dtd">
<svg xmlns="http://www.w3.org/2000/svg">
<defs >
<font id="AveriaLibre" horiz-adv-x="948" ><font-face
    font-family="Averia Libre"
    units-per-em="2048"
    panose-1="2 0 6 3 0 0 0 0 0 4"
    ascent="1952"
    descent="-492"
    alphabetic="0" />
<glyph unicode=" " horiz-adv-x="561" />
<glyph unicode="!" horiz-adv-x="636" d="M414 459Q414 392 316 392H303Q260 392 246 411T231 488Q227 536 227 549L225 599L223 623L220 698L218 723L217 760L213 850L209 926L202 1091L201 1103L198 1177V1202L195 1297V1308Q195 1383 227 1407T338 1431H374Q423
1431 443 1410T463 1313L462 1301Q462 1283 462 1265L459 1205L458 1193L457 1168L454 1106Q449 1046 449 1019L447 993Q445 967 445 955L442 916Q440 890 440 878L438 852Q436 826 436 814L433 776Q431 750 431 738L428 701Q426 676 426 663L421 589L419 565Q417
541 417 528L415 504Q414 492 414 459ZM370 249Q412 249 438 217T465 128V103Q465 -28 335 -28H301Q286 -25 263 -25T211 0T181 78L178 107V122L182 155Q182 201 216 225T288 250L317 253H337L342 252H351Q366 249 370 249Z" />
<glyph unicode="&quot;" horiz-adv-x="822" d="M230 1452H284Q354 1452 354 1388V1368L353 1361L348 1279L346 1251Q342 1223 341 1210T339 1182T337 1162L334 1141Q332 1127 332 1120L328 1092Q325 1071 325 1064Q325 992 300 956Q285 935 238 935H205Q155 935
155 996L136 1265L135 1272L134 1285Q134 1292 134 1299L131 1340V1353L130 1374V1387Q130 1423 151 1437T230 1452ZM592 1452H627Q706 1452 706 1398V1357L705 1350L699 1262L698 1255L697 1241L694 1207Q688 1165 688 1152L685 1131Q682 1110 682 1103L676 1061Q671
1026 671 1020Q671 970 651 953T587 935H561Q508 935 508 992Q506 1006 506 1013L505 1019Q505 1026 505 1033L503 1054Q503 1061 503 1068L494 1192L489 1254L483 1356V1396Q483 1452 592 1452Z" />
<glyph unicode="#" horiz-adv-x="1276" d="M531 745Q503 605 503 586L501 577V564Q501 554 516 554H697Q735 554 735 593L740 618Q751 673 751 683L758 722Q770 782 770 792L772 801V814Q772 825 733 825H683L677 824H657Q563 824 554 820Q531 810 531 745ZM1186
925V896Q1186 834 1075 824Q1006 818 989 804Q935 761 935 594Q935 563 992 555Q1098 541 1111 529T1125 471T1103 404T1007 374T908 338T857 196T823 69Q800 28 726 28T651 93Q651 129 666 216T682 332T669 370T581 379T485 363T442 234T393 74T317 26T245 39T223
109L231 175Q241 257 241 289T228 343T151 390T87 463T127 534Q143 543 208 553T293 586Q336 639 336 771Q336 800 320 810T245 825T164 841T141 903T181 980Q196 990 270 999T366 1039T410 1183T453 1320T546 1343T618 1284Q618 1254 602 1154T586 1049Q586 997
675 997T785 1013T829 1143T876 1302T973 1349T1045 1290L1022 1093Q1022 1044 1037 1028T1119 992T1186 925Z" />
<glyph unicode="$" horiz-adv-x="1154" d="M367 977Q367 936 416 887T504 838H511Q526 838 526 1015V1043L527 1052V1080L528 1094V1135Q528 1193 502 1193L498 1192Q444 1192 406 1146T367 1057L364 1034V1005L365 1000V991Q367 981 367 977ZM662 173Q722 173
773 210T825 332L826 343V349Q824 359 824 365Q824 445 780 507T667 569Q652 569 652 539Q652 535 647 510V459L648 454L651 411Q654 393 654 384L658 346V290L656 273L654 251Q651 236 651 231L649 221Q649 213 649 205L650 197Q650 173 662 173ZM126 229Q126
339 196 339Q242 339 319 275T451 210T505 410Q505 516 467 569Q450 592 339 666T180 826Q140 897 140 984Q140 1004 142 1026Q160 1211 349 1300Q475 1360 484 1368T523 1434T578 1492H600Q628 1492 664 1440T734 1366T833 1322Q984 1272 984 1153Q984 1111 963
1081T911 1051T814 1092T728 1133Q661 1133 661 922Q661 919 661 916Q661 834 678 813T820 723T997 577T1049 372T970 146Q920 85 868 59T760 11T692 -17Q661 -36 647 -105T588 -174Q533 -174 499 -105T436 -20T324 21Q126 80 126 229Z" />
<glyph unicode="%" horiz-adv-x="1649" d="M372 814H400Q444 814 472 864T500 963L502 975V988L504 1027V1033L503 1040L500 1090Q499 1096 499 1102Q499 1164 464 1204T386 1245H381Q335 1245 302 1202T268 1095L266 1083V1070L264 1031V1025L265 1018L268 968Q269
962 269 940T297 866T372 814ZM1202 142H1230Q1279 142 1308 195T1338 304L1341 329V342L1342 363V376L1341 383V396L1340 415L1336 450Q1336 498 1304 539T1233 581H1221L1216 580Q1164 580 1133 524T1101 386V327Q1101 243 1132 193T1202 142ZM705 975Q705 843
613 751T391 659H368Q252 659 169 742T86 980V1027Q88 1051 88 1061Q88 1195 179 1286T401 1378H424Q550 1378 628 1288T707 1056V1009Q705 987 705 975ZM1206 1380H1223Q1295 1380 1295 1340Q1295 1324 1264 1264Q1101 949 555 115Q478 -3 404 -3H387Q314 -3 314
36Q314 51 362 144Q366 151 664 638T1065 1276Q1136 1380 1206 1380ZM1544 377V330Q1544 180 1456 86T1231 -8H1219Q1076 -8 998 88T920 337V360Q920 524 1007 617T1231 710H1242Q1370 710 1457 623T1544 377Z" />
<glyph unicode="&amp;" horiz-adv-x="1400" d="M512 1072Q512 1072 514 1047Q514 1007 570 906Q592 866 610 866Q654 866 728 965Q774 1026 774 1087V1114Q774 1171 735 1210T662 1249H637Q589 1249 550 1204T511 1098V1077L512 1072ZM353 368Q353 277 426 204T580
130H609Q690 130 778 186Q812 208 812 224V229Q812 239 753 303Q671 401 593 514T505 628Q472 628 396 523Q355 467 355 409L353 392V368ZM558 -26H529Q364 -26 250 79T135 341V371Q135 521 295 666Q374 738 374 761T333 883T291 1057Q291 1197 391 1284T624 1371T845
1295T935 1092Q935 1002 869 834T803 644T859 577T974 531Q981 532 1018 584Q1101 702 1188 702V702Q1276 702 1276 638Q1276 634 1213 491T1149 295T1217 159T1286 56V45Q1286 19 1238 19L1067 41Q1052 41 999 32T896 19T739 -5T558 -26Z" />
<glyph unicode="&apos;" horiz-adv-x="500" d="M289 1462Q370 1462 370 1402V1374L369 1367L367 1326L358 1222L354 1188L350 1160Q347 1139 347 1133L342 1098Q338 1070 338 1063Q338 994 318 968T242 942H228Q180 942 172 975Q152 1055 152 1223L143 1372V1400Q143
1458 214 1458Q228 1460 234 1460L261 1462H289Z" />
<glyph unicode="(" horiz-adv-x="732" d="M143 578V666Q143 796 178 960Q246 1279 433 1466Q497 1530 554 1530Q636 1530 636 1477V1461Q636 1443 552 1303T426 1008T383 596T452 131Q481 44 557 -73T633 -221T608 -272T535 -293T408 -210T268 4Q144 274 143 578Z" />
<glyph unicode=")" horiz-adv-x="733" d="M595 659V593Q595 468 566 317T480 37T315 -213Q242 -294 183 -294Q100 -294 100 -240Q100 -208 186 -65T298 173Q358 391 358 636Q358 1028 208 1271Q110 1430 110 1459T134 1509T205 1530T336 1437Q506 1248 562 957Q595
784 595 659Z" />
<glyph unicode="*" horiz-adv-x="983" d="M594 1160T599 1160T673 1192T771 1224T831 1189T863 1120Q863 1067 768 1031T673 978Q673 971 708 941T748 904Q783 865 783 792Q783 742 688 742Q652 742 608 772T544 803Q540 803 487 752T403 700Q368 700 263 850Q213
921 213 1005L224 1049Q218 1065 215 1072T207 1106T196 1151T190 1179T220 1212T272 1235L360 1216Q413 1216 413 1271Q413 1317 442 1357T518 1397H535Q570 1397 584 1374T599 1234L594 1179Q594 1160 599 1160Z" />
<glyph unicode="+" horiz-adv-x="1097" d="M998 638V603Q998 537 970 524T798 511T647 498Q645 494 645 341T632 168T542 147H524Q461 147 452 187Q448 204 448 349T443 503T293 511T135 514Q97 523 97 569V605Q97 676 121 687T293 699T446 712Q448 716 448 863T454
1027Q466 1061 534 1061H570Q623 1061 633 1036T644 862T651 706T804 699T963 696Q998 688 998 638Z" />
<glyph unicode="," horiz-adv-x="569" d="M147 128Q147 255 269 255H309Q325 253 333 253Q391 253 411 228T431 147V101Q431 -24 349 -157T198 -290H184Q129 -290 129 -245V-235Q129 -234 164 -168T200 -56Q200 -43 174 10T147 128Z" />
<glyph unicode="-" horiz-adv-x="854" d="M114 584L116 623Q116 662 145 668T446 675L649 677H689Q742 677 742 620V581Q742 500 717 491T416 481H360L335 480H270L238 479H158Q113 479 113 536V576L114 584Z" />
<glyph unicode="." horiz-adv-x="568" d="M137 104V139Q137 210 171 239T271 269H306Q321 266 330 266Q377 266 402 236T428 157L429 153L430 148L431 127V112Q431 -20 317 -20L292 -23H266Q241 -18 213 -18T161 15T137 104Z" />
<glyph unicode="/" horiz-adv-x="878" d="M738 1482H756Q840 1482 840 1449V1434Q840 1415 716 1105T473 489T261 -34Q213 -147 145 -147H128Q44 -147 44 -114V-99Q44 -82 78 5Q466 1002 623 1369Q671 1482 738 1482Z" />
<glyph unicode="0" horiz-adv-x="1212" d="M578 136H604Q711 136 774 262T837 627V687Q837 1039 707 1147Q659 1187 608 1187H582Q472 1187 409 1061T346 711V622Q346 403 412 265Q445 197 491 167T578 136ZM579 1362H621Q731 1362 826 1312Q1015 1212 1075 961Q1106
830 1106 699V656Q1106 506 1070 371T972 149T808 10T590 -43H549Q460 -43 374 1Q203 89 131 337Q90 479 90 615V701Q90 846 128 976Q201 1226 390 1317Q486 1362 579 1362Z" />
<glyph unicode="1" horiz-adv-x="914" d="M141 1112Q141 1161 224 1214Q460 1364 540 1364T633 1287Q635 1275 635 844T638 396Q650 330 698 262Q746 196 746 128Q746 -4 539 -4H476Q369 -4 296 51Q257 80 257 143T303 260T365 365T381 675T352 986Q334 1018 238
1035T141 1112Z" />
<glyph unicode="2" horiz-adv-x="1138" d="M206 993Q134 993 134 1096T262 1286T555 1373H588Q769 1373 884 1273T999 1012T909 730T636 458T453 251Q453 213 578 213T793 231T928 249T997 223T1021 157V130Q1021 45 937 16Q882 -3 693 -3H629L597 -2H565Q209
-2 167 13T124 87V115Q124 202 247 353Q291 407 445 554T643 758Q731 872 731 964T685 1111T548 1167T373 1096Q252 993 206 993Z" />
<glyph unicode="3" horiz-adv-x="1133" d="M581 1371Q935 1371 935 1073Q935 951 838 826Q785 758 785 754Q785 741 853 696Q1016 588 1016 380Q1016 204 873 86Q802 27 708 -5T522 -37H490Q338 -37 231 27T123 170Q123 210 145 235T215 260T362 212T546 164T692
221T753 373T689 534T506 616Q438 626 423 635Q382 659 382 712T472 800T613 887Q687 963 687 1058Q687 1105 642 1136T542 1167T389 1128T244 1089Q161 1089 161 1160Q161 1237 257 1294Q386 1371 548 1371H581Z" />
<glyph unicode="4" horiz-adv-x="1164" d="M331 498H408L416 499H478Q646 499 656 514Q666 530 666 680V885L667 893V931L668 962V1007Q668 1024 664 1024T575 902T471 754T376 619T299 506V502Q299 498 331 498ZM1047 419Q1047 343 992 288Q938 234 938 199L940
119Q940 33 892 -13Q864 -40 776 -40T655 -4Q609 48 609 202Q609 256 481 297Q419 317 286 317T124 333Q78 358 78 416V433Q78 493 153 603Q367 915 611 1232Q660 1296 698 1320T803 1345H823Q883 1345 899 1280Q904 1259 904 966T917 629T985 504Q990 497 1018
472T1047 419Z" />
<glyph unicode="5" horiz-adv-x="1131" d="M114 165Q114 211 139 235T197 260T338 211T528 162Q643 162 710 245Q759 306 759 425Q759 470 737 524Q679 665 441 665L411 663L380 660Q343 657 320 657Q232 657 201 700T170 859Q170 1091 205 1242Q217 1295 236
1316Q277 1362 531 1362Q597 1362 661 1364L725 1367Q810 1371 821 1371L852 1370H883Q960 1370 960 1317Q960 1207 897 1173Q863 1155 668 1155T441 1137Q380 1103 380 957Q380 862 432 862L493 866Q525 868 589 868T738 836Q907 773 974 631Q1017 540 1017 434Q1017
215 878 89Q739 -36 518 -36H485Q330 -36 222 27T114 165Z" />
<glyph unicode="6" horiz-adv-x="1155" d="M552 692Q464 692 413 629T361 488V436Q361 316 425 231T588 146H605Q696 146 755 218T814 394V439Q814 541 757 617T603 694H577Q561 692 552 692ZM1057 440V414Q1057 201 917 78Q852 21 756 -7Q662 -35 564 -35Q466
-34 372 10Q182 100 131 315Q105 421 105 549V603Q106 752 144 894Q221 1179 464 1292Q612 1361 769 1361Q852 1361 898 1334T945 1253T883 1177Q870 1172 744 1156Q518 1127 438 985Q414 942 414 907T439 860T537 848L581 850Q627 852 678 852T816 820Q1057 728
1057 442V440Z" />
<glyph unicode="7" horiz-adv-x="1076" d="M409 -33H385Q284 -33 284 33Q284 110 475 572Q522 685 605 863T688 1081T649 1136T501 1150T304 1123T176 1095Q94 1095 94 1197T161 1336Q207 1361 358 1361H556Q879 1361 930 1343T981 1253T837 865Q693 549 616 297T534
35Q502 -33 409 -33Z" />
<glyph unicode="8" horiz-adv-x="1150" d="M774 1025V1046Q774 1119 725 1174T590 1230H555Q488 1230 437 1185T386 1069V1035Q386 959 452 893T602 827H621Q677 827 738 906Q774 952 774 1025ZM806 339V372Q806 472 719 551T539 631H516Q453 631 395 560T337
414V373Q337 262 412 201T588 139L596 140Q682 140 744 196T806 339ZM999 1048Q999 970 970 913T891 795T841 731Q842 726 902 674Q1048 547 1048 363T904 65Q846 19 758 -9T576 -37H552Q359 -37 226 67Q164 115 129 185T94 326V371Q94 465 141 544T263 680Q297
706 297 714Q296 722 250 772Q142 889 142 1053Q142 1116 172 1180T263 1293Q385 1392 569 1392H593Q680 1392 761 1364T894 1289Q999 1194 999 1048Z" />
<glyph unicode="9" horiz-adv-x="1158" d="M343 926V908Q343 788 406 718T564 648H573L581 649Q678 649 737 703T797 858V884L796 893V910Q794 928 794 936Q794 1023 733 1105T587 1187H544Q455 1187 399 1113T343 926ZM633 494Q616 494 586 490T488 486Q422 486
344 520Q100 626 99 918Q99 1126 232 1249Q293 1305 381 1335T559 1365H586Q800 1365 933 1219Q994 1152 1025 1045T1057 831V748Q1057 593 1013 440T895 194T687 37T414 -29H392Q310 -29 259 -4T208 70T269 145Q276 148 403 167T600 230T702 332T736 435Q736 494
633 494Z" />
<glyph unicode=":" horiz-adv-x="600" d="M162 829V839L164 859L167 883Q167 983 307 983H318L357 979Q456 979 456 846V830L452 796Q452 692 316 692H300L261 696Q162 696 162 829ZM161 157L163 181Q163 237 200 263T296 290H321Q336 287 350 287Q454 287 454
153V138L450 103Q450 57 417 29T318 0H288Q163 0 163 107L160 137V152L161 157Z" />
<glyph unicode=";" horiz-adv-x="604" d="M169 841L171 865Q171 918 203 945T282 973L306 976H336Q351 973 360 973Q462 973 462 837V832Q462 757 432 722T319 686H303Q225 686 197 719T168 826V836L169 841ZM154 -226V-215Q154 -208 188 -149T222 -46Q222 -37
195 22T168 139Q168 268 302 268H326Q401 268 427 245T453 159V128Q453 -11 372 -142T222 -274H215Q154 -274 154 -226Z" />
<glyph unicode="&lt;" horiz-adv-x="1086" d="M902 1137Q945 1137 945 1046Q945 978 841 899Q810 875 589 741T367 602T435 558T669 420T836 318Q949 241 949 175V158Q949 73 897 73Q876 73 814 106Q479 283 174 490Q102 539 102 601T165 706Q489 926 818 1105Q877
1137 902 1137Z" />
<glyph unicode="=" horiz-adv-x="1141" d="M173 696Q119 696 119 763L120 773V784Q120 857 142 867T318 878H413L423 877L519 878H955Q1009 878 1009 823V792Q1009 711 978 704T554 697H331L288 696H173ZM181 324Q118 324 118 381V422Q118 495 161 502Q186 506
581 506L869 507H943Q1006 507 1006 451V420Q1006 337 962 330Q937 326 541 326H509L477 325H276L244 324H181Z" />
<glyph unicode="&gt;" horiz-adv-x="1079" d="M186 73Q135 73 135 153T234 305Q262 325 488 462T715 601Q715 609 618 666T473 755T344 832T227 909Q139 984 139 1061T179 1138Q260 1138 895 721Q974 669 974 606T902 493Q598 287 268 107Q206 73 186 73Z" />
<glyph unicode="?" horiz-adv-x="1015" d="M465 1412H504Q675 1412 787 1316T900 1068V1049Q900 933 832 833Q797 781 696 691T577 577T543 478T524 399Q504 377 446 377T365 408T342 510Q342 653 477 779Q576 871 611 926T646 1052T602 1166T483 1208T314 1151T184
1094T127 1124T107 1198Q107 1284 217 1348T465 1412ZM589 142V112Q589 51 557 14T467 -23L457 -25H431L398 -20Q372 -20 340 3T307 76Q304 91 304 96L302 127V132L303 137Q303 201 326 233T409 266L419 268L440 269H455L491 265Q534 265 561 233T589 142Z" />
<glyph unicode="@" horiz-adv-x="1738" d="M1013 720Q1013 786 912 786H892Q798 786 739 693T679 493V447Q681 433 681 425Q681 370 716 326T784 281H796Q875 281 930 376Q1011 515 1011 669L1013 682V720ZM871 -227H813Q668 -227 532 -177Q396 -126 296 -26Q98
172 98 513Q98 856 305 1090Q401 1198 545 1269T866 1341H925Q1064 1341 1189 1290Q1432 1191 1531 989Q1594 862 1594 724Q1594 369 1346 232Q1262 186 1177 186Q1148 186 1089 203T1003 220T907 201T793 182Q691 182 624 253T556 468Q556 532 612 672T716 855Q794
926 991 926Q1074 926 1111 863Q1136 821 1151 673T1174 499Q1200 417 1261 417Q1300 417 1337 482T1374 647T1332 843T1222 1000T1076 1091T880 1123T654 1064Q445 950 370 724Q337 626 337 513T383 279T514 80Q681 -75 958 -75Q960 -75 962 -75Q1001 -75 1063
-66L1111 -58Q1174 -47 1192 -47Q1251 -47 1251 -93Q1251 -128 1139 -177T871 -227Z" />
<glyph unicode="A" horiz-adv-x="1371" d="M491 608V596Q491 575 628 575H713Q838 575 838 594V606Q838 695 697 1062Q678 1112 671 1112Q669 1112 661 1091T640 1043Q491 720 491 608ZM1283 165V145Q1283 55 1232 22Q1199 1 1119 1H1095Q1013 1 985 50Q971 74
954 190T895 350T737 394Q473 394 427 353T361 187T331 46Q305 6 227 6T120 48T90 159Q90 190 174 358Q182 373 325 787T507 1283T584 1388T694 1411T801 1376T885 1230T1027 869T1160 490T1209 344Q1283 174 1283 165Z" />
<glyph unicode="B" horiz-adv-x="1282" d="M440 1120V931Q440 859 450 839T502 819H600L608 820L639 821L678 824Q755 824 807 882T860 1012V1045Q860 1121 807 1174T668 1227Q652 1229 644 1229L605 1231H543Q471 1231 456 1214T440 1120ZM439 299Q439 208 462
192T589 175H661Q796 175 858 237T921 401V420Q919 438 919 447Q919 523 854 582T692 642Q674 644 665 644L621 646H560Q467 646 454 625T440 500V384L439 350V299ZM603 -8H578L552 -7H502L429 -6Q226 -6 188 2Q126 15 126 60Q126 85 148 162T170 358L172 480V1022Q172
1124 159 1185L123 1319Q123 1377 159 1391T303 1406L524 1411L599 1412H624Q1005 1412 1099 1197Q1124 1140 1124 1055T1092 909T1041 831T987 784T951 752Q952 750 1020 707Q1193 599 1193 408Q1192 -8 603 -8Z" />
<glyph unicode="C" horiz-adv-x="1302" d="M384 734Q384 452 475 330Q582 185 771 185Q849 185 980 237T1131 289Q1199 289 1199 226V204Q1199 173 1157 126T1032 41Q895 -21 732 -21H700Q580 -21 452 33Q100 182 100 690V724Q100 862 144 999T263 1220T464 1361T697
1417H760Q994 1417 1089 1353T1185 1194Q1185 1133 1162 1105T1102 1077T950 1133T794 1198Q751 1208 710 1208Q640 1208 576 1178Q384 1086 384 734Z" />
<glyph unicode="D" horiz-adv-x="1403" d="M1013 660V742Q1013 850 985 948Q958 1046 912 1102Q807 1230 613 1230H583L569 1229Q481 1229 459 1212T436 1146T435 1083L434 1054V950L435 920V607L434 563V474L433 415V328L435 299Q436 284 436 271Q436 210 460
193T566 176H625Q812 176 919 314Q956 362 984 458T1013 660ZM629 1412Q778 1412 910 1366Q1166 1278 1253 1022Q1300 884 1300 738V686Q1300 534 1253 396Q1161 126 899 38Q770 -6 617 -6H470L305 -2Q201 -2 164 9T126 58T147 153T171 264T175 752V1129Q170 1187
147 1250T124 1347T158 1392T294 1405L505 1412H629Z" />
<glyph unicode="E" horiz-adv-x="1204" d="M1068 1284Q1068 1171 964 1171Q951 1172 839 1186T627 1200T496 1152T466 935Q466 880 501 850T632 820Q658 820 721 834T828 849Q934 849 934 752Q934 681 923 651Q905 601 858 601T746 614T604 628T490 595T454 419T490
231T614 187T831 210T996 234T1063 212T1094 116T1025 15Q976 -4 703 -4H437Q248 -4 192 17T136 107Q136 130 156 200T177 471Q177 672 183 822L188 934Q192 1033 192 1090T170 1212Q148 1276 148 1312T169 1364T257 1392T708 1404L818 1405H854Q974 1405 1021
1377T1068 1284Z" />
<glyph unicode="F" horiz-adv-x="1146" d="M319 5H292Q213 5 178 39T143 147Q143 163 165 240T188 403L190 550V641L193 885V1038Q193 1112 172 1203T150 1321Q150 1368 230 1380Q409 1406 834 1406H896Q999 1406 1032 1385T1066 1301V1273Q1066 1215 1039 1193T977
1170T847 1191T649 1213T507 1178T467 1014T493 852T606 818L805 835Q925 835 925 692Q925 638 896 618T798 597L775 599Q752 601 728 601Q573 601 523 546T473 276L480 143Q480 5 319 5Z" />
<glyph unicode="G" horiz-adv-x="1383" d="M377 699Q377 584 407 490T478 340T602 242T775 200T917 250T969 372T902 511T834 618Q834 632 848 646Q884 682 1011 682T1192 657T1245 569Q1245 176 1177 96Q1134 45 1006 11T731 -23Q431 -23 266 168Q193 253 147
395T101 705Q101 1218 497 1375Q612 1421 761 1421H800Q993 1421 1073 1381T1181 1296T1209 1227Q1209 1154 1182 1128T1134 1101T983 1152T760 1203Q569 1203 466 1061Q377 939 377 699Z" />
<glyph unicode="H" horiz-adv-x="1449" d="M966 1261Q966 1400 1160 1400Q1256 1400 1288 1374T1320 1286Q1320 1270 1301 1202T1277 1065T1272 757V594Q1269 469 1269 369T1280 234Q1316 121 1316 108Q1316 45 1284 25T1177 5H1139Q1051 5 1008 37T964 143Q964
159 972 208L984 279Q996 367 996 478T939 615Q910 628 725 628T492 599T444 401Q444 318 461 234T479 122Q479 57 432 31T286 5T161 34T135 102T151 190Q179 278 179 376V482L181 647V882Q181 1076 179 1099T152 1184T128 1291T166 1363T338 1389T473 1268Q473
1262 464 1187T455 994T506 846T807 816Q937 816 968 854T999 1016Q999 1062 983 1157T966 1261Z" />
<glyph unicode="I" horiz-adv-x="703" d="M134 54T134 100T170 206T216 332T225 721T218 1093T171 1205T131 1318T186 1390T363 1410H403Q487 1410 526 1382T566 1294Q566 1269 533 1201T495 1084T490 696T498 296T538 182T570 76Q570 -2 413 -2H373Q333 0 281 0T181 27Z" />
<glyph unicode="J" horiz-adv-x="908" d="M474 853Q474 1016 450 1087T402 1210T378 1306T438 1380T599 1410H622Q686 1410 730 1377T775 1288V1250Q775 1235 767 1193T739 1007Q737 989 737 698Q737 408 719 288Q682 44 523 -59Q412 -130 293 -130H270Q160 -130
100 -91T39 12V31Q39 80 85 114T211 148L239 146Q359 146 412 310Q474 502 474 853Z" />
<glyph unicode="K" horiz-adv-x="1350" d="M137 1299Q137 1400 310 1400Q390 1400 431 1366T473 1291Q473 1289 458 1199T442 1025Q442 839 487 839T697 1041Q796 1163 826 1212T878 1310T920 1374Q964 1407 1049 1407H1085Q1140 1407 1167 1392T1194 1336Q1194
1312 986 1071T777 772Q777 766 931 536T1174 197T1262 52Q1262 -2 1148 -2H1110Q1010 -2 949 54Q922 78 841 221T679 474T551 585Q453 585 453 358L475 156Q475 81 422 33Q388 2 297 2T174 23T142 103Q142 120 162 198T182 408V696Q182 980 180 1030T158 1183T137
1299Z" />
<glyph unicode="L" horiz-adv-x="1134" d="M312 1409Q490 1409 490 1288Q490 1251 470 1170T448 1044T445 666T463 272T525 197Q550 189 637 189T857 223T1018 257T1066 241T1086 170V146Q1086 64 1061 35Q1024 -8 895 -8H819L794 -7H666L590 -6Q257 -6 199 12Q142
30 142 102Q142 121 155 171T174 254T181 362L182 439V769L181 795V844L180 869V918L179 968Q179 968 179 1044Q179 1096 152 1184T125 1293Q125 1362 173 1393Q197 1409 287 1409H312Z" />
<glyph unicode="M" horiz-adv-x="1756" d="M1611 149Q1611 80 1576 49T1461 18T1336 83Q1313 117 1313 233L1315 280L1318 327Q1322 390 1322 424Q1322 918 1284 918Q1266 918 1128 589T969 231Q926 171 862 171T756 246Q737 279 599 603T436 928Q399 928 399
271Q399 116 374 86Q330 34 244 34Q201 34 175 57T148 110T163 199T187 328T195 569L196 621L203 778Q211 986 211 1036T204 1138L180 1264Q180 1380 323 1380Q443 1380 537 1255Q613 1154 738 870T891 585L912 615L1031 878Q1190 1224 1201 1240Q1291 1378 1443
1378Q1527 1378 1560 1339Q1578 1318 1578 1278L1573 1241Q1569 1202 1567 1149L1566 1100L1567 1051Q1567 998 1567 945L1572 518Q1572 360 1576 321T1596 221T1611 149Z" />
<glyph unicode="N" horiz-adv-x="1465" d="M230 15Q229 15 227 15Q143 15 143 80Q143 114 176 222Q191 271 191 418L193 628V713L194 841Q194 1068 191 1113T164 1227T141 1322T161 1365T257 1382T392 1347T511 1242Q653 1078 784 873Q1047 461 1060 461Q1079
461 1079 656L1081 738Q1082 780 1082 916T1071 1147T1060 1288T1095 1362T1196 1391T1290 1374Q1343 1343 1343 1258L1342 1223Q1340 1193 1329 1148L1320 1112Q1307 1060 1301 1027T1295 581T1272 69Q1258 10 1209 10Q1089 10 1011 99Q969 146 858 326T714 555Q458
941 423 941Q400 941 400 746T405 421T418 240T427 169Q427 15 230 15Z" />
<glyph unicode="O" horiz-adv-x="1457" d="M360 744V664Q360 560 390 452Q471 154 722 154Q875 154 967 274Q1007 326 1036 427T1065 619L1067 651V731Q1067 827 1040 934Q990 1133 864 1202Q796 1239 727 1239H696Q546 1239 448 1100Q416 1054 388 956T360 744ZM1351
748V679Q1351 529 1306 390T1184 163T987 19T725 -37Q586 -36 462 14Q94 164 94 680V726Q94 893 142 1028T268 1247T460 1377T709 1424H733Q1014 1424 1187 1238Q1254 1167 1302 1034T1351 748Z" />
<glyph unicode="P" horiz-adv-x="1239" d="M452 823Q452 746 468 726T552 705H637Q767 705 834 772T902 958V977Q902 1103 830 1169T625 1235H582Q517 1235 489 1221T460 1169Q455 1129 455 1119L454 1092Q454 1052 454 1011L453 985V895L452 868V823ZM250 2Q139
2 139 85Q139 125 175 281Q190 346 190 485L191 509Q192 533 192 556L194 651V840Q194 1103 192 1166T175 1280T161 1359T198 1398T377 1410L446 1411Q470 1412 493 1412L541 1414H686Q1045 1414 1145 1169Q1176 1092 1176 1004V979Q1176 773 1032 650Q944 575
791 549T554 479T470 377Q470 354 481 304T493 175T446 49T295 2H250Z" />
<glyph unicode="Q" horiz-adv-x="1479" d="M736 1243H703Q623 1243 555 1201T442 1083Q369 961 369 723V690Q369 555 402 449Q435 342 474 292Q559 183 712 183Q795 183 850 217T992 372T1079 697V745Q1079 856 1051 957T980 1117T872 1209T736 1243ZM1201 -40Q1273
-132 1273 -134Q1273 -159 1244 -179Q1173 -229 1102 -229H1077Q985 -229 779 -133Q360 62 275 147T138 384T86 708V736Q86 888 130 1026Q216 1300 477 1396Q586 1436 732 1436Q1020 1436 1197 1248Q1270 1171 1315 1044T1361 755V728Q1360 426 1198 202Q1129 107
1129 92Q1130 51 1201 -40Z" />
<glyph unicode="R" horiz-adv-x="1326" d="M520 744H601L609 745L634 746L667 748Q764 748 825 815T886 989V998Q886 1106 820 1166T613 1227H580Q471 1227 457 1201T442 1068V954L441 928V844Q441 783 456 764T520 744ZM250 -7Q128 -7 128 121Q128 129 153 222T178
392L179 452V639L180 671Q180 671 180 859Q180 1107 175 1159T158 1263T146 1340Q146 1384 237 1395T538 1406T851 1383T1026 1301T1128 1169T1157 993T1119 820T1013 682T945 574T1088 305T1231 75Q1231 25 1199 11T1083 -3T950 44T819 260T713 461Q653 540 595
540T497 501T458 400T472 255T486 144Q486 60 440 27T279 -7H250Z" />
<glyph unicode="S" horiz-adv-x="1174" d="M578 -20Q241 -20 140 124Q109 169 109 207V237Q109 274 132 306T181 339T342 259T586 179T755 225T816 358T730 509Q685 542 495 622T226 782Q126 882 126 1058Q126 1124 158 1194Q222 1334 403 1394Q491 1423 572 1423H607Q905
1423 991 1308Q1021 1267 1021 1211T998 1129T954 1102T773 1185Q680 1233 580 1233T432 1185T384 1057T486 913Q510 897 700 816Q890 734 960 668Q1080 554 1080 385Q1080 212 952 96T613 -20H578Z" />
<glyph unicode="T" horiz-adv-x="1208" d="M990 1411Q1102 1411 1138 1387T1175 1287V1261Q1175 1169 1115 1158Q1112 1157 1107 1157Q1078 1157 996 1179Q900 1204 854 1204T782 1179T747 1094T737 822V568L736 540V420Q736 328 738 307T765 218Q789 148 789
94Q789 -2 637 -2H555Q419 -2 419 110Q419 149 444 228T474 367T480 754T468 1133Q451 1205 365 1205Q322 1205 236 1178T124 1150Q48 1150 48 1250T85 1377T260 1404L454 1408L708 1411H990Z" />
<glyph unicode="U" horiz-adv-x="1414" d="M441 661Q441 374 510 275T739 176T971 313Q1024 412 1024 671L1025 708Q1026 746 1026 792V893Q1026 1046 1012 1176T997 1335Q997 1409 1137 1409Q1226 1409 1251 1376Q1296 1316 1296 1257T1276 1127T1253 1020L1252
985L1253 912V765Q1253 474 1236 366Q1199 135 984 36Q864 -18 708 -18Q395 -18 262 176Q205 259 191 347T176 705T171 1025T141 1137T117 1234V1264Q117 1332 170 1376Q196 1398 295 1398T424 1369T455 1269L452 1242L448 1213Q438 1126 438 950L440 844L441 808V661Z"
/>
<glyph unicode="V" horiz-adv-x="1360" d="M710 342Q739 342 906 877Q979 1108 989 1207T1013 1340Q1042 1405 1167 1405Q1242 1405 1268 1386T1295 1314T1247 1167T1176 1006Q900 203 832 73Q791 -6 699 -6H670Q586 -6 541 85Q512 143 359 576T161 1090Q62 1273
62 1283V1307Q62 1359 96 1376T214 1394T340 1370Q412 1330 435 1210T580 716T710 342Z" />
<glyph unicode="W" horiz-adv-x="1930" d="M1355 521Q1372 521 1454 845T1545 1186Q1582 1256 1631 1295T1759 1334Q1805 1334 1805 1278V1247Q1805 1241 1684 769T1542 242T1462 137T1335 88Q1317 88 1273 125T1184 258T1074 540L992 775L976 811Q956 810 868
542T744 205Q674 73 588 73Q544 73 491 119T411 223T252 721T119 1233V1265Q119 1322 141 1337T212 1352T318 1312T420 1170Q438 1130 471 1003T560 689T629 502T735 859T851 1261T959 1307T1073 1286T1128 1216T1240 844T1355 521Z" />
<glyph unicode="X" horiz-adv-x="1345" d="M1262 63Q1262 -1 1083 -1H1048Q956 -1 906 54Q886 76 866 138T807 272Q684 503 656 503Q610 503 477 258Q452 211 431 138T392 45Q355 3 254 3T124 20T96 80Q96 85 293 369T490 698Q490 761 305 1039Q232 1149 201 1183Q102
1293 102 1332T143 1384T297 1397T461 1346Q484 1322 506 1256T543 1163Q660 936 690 936T849 1148Q886 1210 907 1276T945 1361Q983 1402 1087 1402T1213 1386T1235 1332T1165 1218T1032 1051Q852 791 852 741T1057 379T1262 63Z" />
<glyph unicode="Y" horiz-adv-x="1291" d="M1105 1403H1132Q1237 1403 1237 1345Q1237 1295 1178 1213T1062 1020T940 797T829 571T783 320Q783 275 799 206T816 90T766 10Q739 -8 678 -8H652Q539 -8 508 14T477 100Q477 113 504 214T531 414T492 594T320 905T171
1154Q62 1293 62 1328T103 1375Q161 1392 263 1392T413 1328Q424 1314 452 1242T574 984T670 799Q718 799 853 1080Q881 1139 900 1226T930 1332Q974 1403 1105 1403Z" />
<glyph unicode="Z" horiz-adv-x="1226" d="M654 189Q760 189 899 225T1074 261Q1144 261 1144 168T1086 36T877 -3H383Q176 -3 145 6Q90 22 90 84T146 241Q159 262 457 705T755 1184T631 1219T363 1188T184 1157T134 1188T119 1286T167 1381T351 1409H741Q1007
1409 1051 1401Q1118 1389 1118 1334Q1118 1257 1057 1157Q996 1056 908 928Q464 284 464 237T654 189Z" />
<glyph unicode="[" horiz-adv-x="757" d="M668 1470V1448Q668 1408 643 1389T577 1361L533 1354Q502 1349 491 1345Q449 1329 432 1272T414 619T428 -26T473 -93Q484 -99 547 -112T636 -146T662 -215T633 -273T430 -282H354Q227 -282 202 -249T176 -99L177 -74V28L178
78V255L179 281V483L180 534Q180 534 180 974Q180 1364 191 1427T227 1507T316 1524H570Q668 1524 668 1470Z" />
<glyph unicode="\" horiz-adv-x="883" d="M833 -105Q833 -146 740 -146H722Q675 -146 655 -117T578 43Q359 554 90 1299Q46 1421 46 1439Q46 1481 140 1481Q192 1481 215 1461T269 1368T790 35Q833 -76 833 -105Z" />
<glyph unicode="]" horiz-adv-x="763" d="M585 1322V1271L584 1246V865L583 839V610Q583 -184 562 -233Q550 -262 523 -272T302 -282H227Q100 -282 100 -234V-212Q100 -136 207 -116T337 -17Q352 38 352 628T339 1268T302 1333T221 1356T133 1385T103 1453T127
1513T250 1524H351Q527 1524 556 1492T585 1322Z" />
<glyph unicode="^" horiz-adv-x="1064" d="M931 799Q931 761 830 761Q784 761 744 808T618 1002T525 1149T488 1094T393 938T311 814Q263 757 203 757H190Q123 757 123 791Q123 806 154 866Q287 1122 413 1303Q462 1373 532 1373H546Q598 1373 640 1312Q768 1128
900 874Q931 814 931 799Z" />
<glyph unicode="_" horiz-adv-x="1083" d="M924 -74Q1006 -74 1025 -84T1044 -134V-156L1043 -168Q1043 -214 1030 -229T972 -244L950 -246H213L177 -247H154Q72 -247 53 -237T33 -176L34 -165Q34 -107 47 -92T104 -77L127 -75L877 -74H924Z" />
<glyph unicode="`" horiz-adv-x="685" d="M113 1401V1412Q113 1428 141 1447T213 1466H230Q307 1466 359 1408Q525 1221 525 1154V1138Q525 1106 469 1106H447Q403 1106 307 1181Q113 1332 113 1401Z" />
<glyph unicode="a" horiz-adv-x="1100" d="M534 161Q590 161 635 206T680 295Q682 307 682 312L684 347Q684 356 684 365L685 388V406Q685 470 631 470H596L590 469H578Q463 469 398 429T333 321V297Q333 242 368 202T454 161L483 158H506Q524 161 534 161ZM1001
84Q1000 0 864 0Q796 0 744 27T652 55Q649 55 553 19T376 -18Q240 -18 156 59T71 260V284Q71 566 506 606Q585 613 616 623Q675 643 675 710T620 816Q587 839 532 839T373 794T225 748T158 778T134 851Q134 924 251 973T508 1022Q774 1022 870 884Q913 823 925
747T938 490T945 270T977 185T1001 105V84Z" />
<glyph unicode="b" horiz-adv-x="1163" d="M398 348Q398 151 582 151L592 152Q691 152 752 229T813 458V511Q813 676 759 760T607 844H589Q476 844 427 763Q393 706 393 543V444L394 435L397 367Q398 357 398 348ZM470 979Q486 979 563 995T707 1012T843 980Q984
912 1044 727Q1075 630 1075 512V487Q1075 256 945 118Q890 59 809 25T636 -10H612Q564 -10 482 13T378 36T327 25T272 13Q192 13 165 43T137 156L138 178Q139 200 140 223L143 292Q147 384 147 444V576L148 599V743L149 815V1080Q149 1179 141 1217T118 1298T103
1386T136 1451T273 1469H296Q360 1469 385 1421T411 1251L414 1138Q414 979 470 979Z" />
<glyph unicode="c" horiz-adv-x="1005" d="M569 -19H523Q438 -19 346 20Q85 131 85 480V528Q85 531 85 534Q85 641 122 734Q197 928 392 992Q480 1021 606 1021T821 974T910 851Q910 797 884 770T817 743T685 786T556 829Q445 829 395 748T344 506T414 261T613
177Q667 177 739 198T845 220Q917 220 917 153V136Q917 85 801 33T569 -19Z" />
<glyph unicode="d" horiz-adv-x="1171" d="M338 533V479Q338 328 395 243T547 157H565Q672 157 728 250Q758 300 758 503V513Q758 716 724 773Q675 854 576 854H549Q445 854 392 765T338 533ZM1053 94Q1053 9 893 9Q851 9 815 27T751 46T647 16T500 -15H477Q296
-15 195 115T94 454L95 479V505Q95 590 128 696Q162 804 226 874Q351 1011 561 1011H564L641 1007Q690 1007 708 1041T726 1169L705 1353Q705 1403 752 1433T892 1464T1002 1408T1020 970V407Q1020 273 1036 192T1053 94Z" />
<glyph unicode="e" horiz-adv-x="1070" d="M737 659V665L736 671V682Q734 694 734 699Q734 757 682 802T569 848H539Q455 848 398 783T341 638V622Q341 592 380 592L405 589H468L473 590L656 600L677 602Q737 602 737 659ZM830 444T590 444T349 372Q349 277 422
223T630 169Q682 169 762 195T887 221Q942 221 942 133Q942 77 822 26T588 -25H565Q442 -25 349 12T200 107T110 259T74 470V494Q74 730 193 866Q256 938 350 976T548 1015H595Q666 1015 743 987Q892 933 950 775Q979 696 979 626V604Q979 503 913 477Q830 444
590 444Z" />
<glyph unicode="f" horiz-adv-x="794" d="M473 1195T473 1136T491 1053T574 1004T650 971Q694 940 694 890T621 819T518 748Q462 651 462 419Q462 337 488 233T514 115Q514 43 469 11T328 -22H283Q219 -22 175 35Q158 57 158 96T172 180Q207 292 207 484T193 726T138
824T97 919T163 1026Q187 1048 228 1171T321 1354T445 1443T584 1472H635Q723 1472 766 1444T810 1377V1357Q810 1320 777 1295T678 1270L657 1271L613 1275Q537 1275 505 1235Z" />
<glyph unicode="g" horiz-adv-x="1146" d="M320 418Q320 306 387 217Q434 154 523 154H560Q654 154 706 211T759 377Q761 395 761 405L763 453V502L762 511L761 540L759 578Q759 687 712 742T559 798L549 797Q437 797 377 719T317 499V468Q320 438 320 418ZM905
946Q1004 946 1004 832V808Q1004 755 993 664T981 444L980 416Q979 389 979 361L977 252Q977 198 979 144L984 9Q984 -100 956 -178Q896 -341 696 -398Q602 -425 477 -425T235 -370Q176 -342 176 -278Q176 -248 200 -218T257 -187T368 -206T540 -225T690 -168T747
-11Q747 38 719 38Q714 38 658 20T511 1Q215 1 131 265Q98 368 98 486T128 704Q186 893 322 948Q391 976 476 976T655 950T759 924T817 935T905 946Z" />
<glyph unicode="h" horiz-adv-x="1194" d="M440 135Q440 11 288 11H259Q123 11 123 101V128Q123 140 136 196T155 285T160 426L163 628V1100Q163 1256 144 1317T124 1380Q124 1422 151 1438T273 1455T398 1395Q418 1356 422 1220T437 1023T481 961Q485 961 569
988Q652 1015 728 1015Q887 1015 962 899T1037 514Q1037 342 1059 242T1081 125Q1081 62 1044 38T905 13Q776 13 776 125L791 266Q797 339 797 486T763 717T630 800Q506 800 446 696Q418 649 418 496Q418 493 418 490Q418 332 422 299T433 217T440 135Z" />
<glyph unicode="i" horiz-adv-x="611" d="M300 1432H315Q450 1432 450 1324V1286Q447 1271 447 1249T417 1197T339 1166L310 1163H282Q226 1163 195 1189T164 1261Q162 1269 162 1275L161 1294L162 1299Q162 1304 162 1309L164 1328Q164 1374 198 1403T300 1432ZM245
-3Q125 -2 125 90Q125 134 144 188T172 284T181 529T175 758T142 829T116 898V910Q116 959 148 974T257 990L299 993H340Q413 993 425 934Q429 915 429 765V551L430 509V438L432 397Q433 383 433 350T467 227T501 109V98Q501 -3 328 -3H245Z" />
<glyph unicode="j" horiz-adv-x="618" d="M189 1265V1286Q189 1359 227 1386Q286 1428 342 1428H377Q427 1428 454 1396T482 1304V1288Q482 1213 451 1177T346 1141L336 1139H316L312 1140H302Q288 1143 285 1143L262 1147Q235 1147 212 1179T189 1265ZM177 -404T82
-404T-14 -327V-311Q-14 -271 4 -252T112 -196Q163 -175 190 -105T218 301T212 678T178 797T150 892Q150 947 187 965T341 984H359Q421 984 444 926T468 717V181Q468 -10 451 -97Q413 -288 258 -364Q177 -404 82 -404Z" />
<glyph unicode="k" horiz-adv-x="1138" d="M257 17Q184 17 155 43T126 133Q126 149 136 199Q155 294 155 420V670L156 772V1060Q156 1196 151 1225T130 1309T115 1376V1404Q115 1427 150 1449T294 1472Q372 1472 393 1416T414 1093T420 772Q430 684 471 684Q506
684 609 804Q634 833 670 886T741 965T855 990Q992 990 992 940T853 753T714 556Q714 533 888 301T1062 45Q1062 6 987 6H956Q812 6 755 63Q732 86 688 174T585 341T484 421Q471 421 449 388T426 268L439 129Q439 17 257 17Z" />
<glyph unicode="l" horiz-adv-x="635" d="M368 -3H292Q209 -3 174 27T139 117Q139 132 148 178L155 209Q181 323 181 388V472L182 510V646L183 704V801Q183 1175 180 1208T151 1305T125 1383V1400Q125 1443 167 1458T311 1473T430 1398Q432 1389 432 1154L431
1134Q431 1115 431 1096L430 1037V941L429 903Q429 431 438 365T490 201T533 98Q533 -3 368 -3Z" />
<glyph unicode="m" horiz-adv-x="1725" d="M343 13T268 13T155 41T118 117V153Q118 176 134 233T152 322T154 544T147 801L142 835Q133 890 133 913T152 958T215 980T327 966T438 951T553 971T686 991T797 974T895 932T962 907T1081 957T1272 1008T1431 966T1539
838T1579 425Q1579 306 1590 261L1601 227L1613 196Q1624 160 1624 117T1591 43T1493 11H1457Q1357 11 1332 83Q1322 112 1322 377T1297 706T1227 789Q1203 800 1162 800T1080 776T1019 691T999 373Q999 320 1015 241T1032 150Q1032 63 991 39T833 14T716 105L717
143L722 179L735 249Q739 279 739 478T704 746T583 816Q553 816 507 791T433 713T406 433L416 159Q416 75 380 44Z" />
<glyph unicode="n" horiz-adv-x="1201" d="M425 912T450 912T569 952T746 993Q902 993 984 880Q1048 790 1048 534L1050 476L1051 390Q1051 299 1063 257L1089 192Q1104 150 1104 120Q1104 50 1066 32T945 14T825 40T788 149Q788 157 793 227T799 384Q799 642
759 733T610 825T446 727Q413 668 413 487T422 233Q431 160 431 110Q431 10 272 10H245Q174 10 144 29T113 101V127Q113 145 133 207T156 326T159 565T156 774T140 847T127 923Q127 978 260 978Q324 978 374 945Z" />
<glyph unicode="o" horiz-adv-x="1141" d="M556 145H576Q669 145 727 224T785 417L787 438L788 469V534Q788 673 728 763T568 853H538Q442 853 387 762T332 504T390 242T556 145ZM579 -33H561Q340 -33 201 112Q82 237 82 492V510L83 528Q84 635 118 732Q186 923
371 991Q464 1025 568 1025L586 1024Q800 1024 936 876Q1052 749 1052 530V512Q1052 406 1020 300Q959 96 769 10Q673 -33 579 -33Z" />
<glyph unicode="p" horiz-adv-x="1165" d="M820 467V521Q820 670 772 745Q710 841 611 841H592Q489 841 438 764Q399 705 399 536V428L400 418L403 351Q404 341 404 332Q404 251 449 202T570 153H598Q698 153 759 238T820 467ZM241 -418Q112 -418 112 -331V-310Q112
-288 130 -219T152 -42T157 248V574L156 646Q156 773 134 834T112 926Q112 985 267 985Q270 985 272 985Q294 985 336 971T420 956T539 983T685 1010H709Q869 1010 974 883Q1078 756 1078 543V517Q1078 415 1045 307T941 127T790 27T602 -1T449 -32Q427 -47 427
-83T440 -181T454 -292T404 -379T287 -418H241Z" />
<glyph unicode="q" horiz-adv-x="1156" d="M753 591L751 640Q751 746 703 798T570 851H550Q448 851 391 762T333 502V491Q333 330 388 244T530 158H567Q651 158 699 215T748 367L751 395L753 434Q753 444 753 454L754 473Q754 483 754 493L755 523V542L754 552L753
591ZM83 489V515Q83 735 197 872Q250 936 330 975T504 1014H551Q598 1014 682 987T786 959Q805 960 840 974Q876 988 924 988Q1022 988 1022 846L1019 802L1013 735Q1011 704 1011 582V232L1010 183V-9L1011 -32Q1012 -56 1012 -91T1031 -208T1050 -306Q1050 -372
1020 -403T919 -435H873Q708 -435 708 -291Q708 -269 723 -208T738 -88T715 -13T623 5L477 -6Q212 -6 117 274Q83 374 83 489Z" />
<glyph unicode="r" horiz-adv-x="861" d="M241 991H276Q382 990 422 922Q435 900 447 900T498 924T578 968T686 989T784 960T817 887T789 803T716 762L593 775Q562 775 521 749T454 667T429 492T456 270Q483 170 483 114Q483 2 278 2H259Q120 2 120 107Q120 138
140 199T165 300T170 522T163 743T134 825T112 904T146 965T241 991Z" />
<glyph unicode="s" horiz-adv-x="960" d="M102 615T102 737T204 942T476 1025Q835 1025 835 879Q835 830 816 800Q796 769 766 769T639 811T475 854T375 826T341 766Q341 709 398 671Q419 657 572 602T790 488Q876 409 876 286T794 86Q683 -19 520 -19H493Q309
-19 219 13Q97 56 97 135V158Q97 205 118 230T155 256Q197 256 301 205T478 154T591 183T632 266T554 364Q533 376 388 429T186 536Q102 615 102 737Z" />
<glyph unicode="t" horiz-adv-x="784" d="M193 212T193 460T176 772Q167 807 118 840T69 924T100 996Q107 1001 140 1018T180 1046T210 1142T256 1261T324 1295H341Q398 1295 425 1259Q439 1240 454 1165T495 1060T603 1009T686 939T661 872T563 837T468 788T446
602L445 581Q444 560 444 532V473Q444 288 481 235Q504 202 580 191T662 177Q701 157 701 112V96Q701 55 647 27T512 -2H471Q320 -2 248 119Q193 212 193 460Z" />
<glyph unicode="u" horiz-adv-x="1182" d="M1071 104Q1071 15 909 15Q860 15 808 42T744 70L638 29Q553 -4 484 -4H457Q372 -4 302 33T195 138Q141 235 141 576Q141 730 136 760T112 841T93 928T121 981T218 998H245Q345 998 373 930Q390 889 390 605T421 255Q460
171 563 171Q616 171 664 198T736 270Q773 341 773 562Q773 664 760 755T747 883Q747 993 922 993Q1008 993 1022 927Q1026 908 1026 645T1040 297T1062 175T1071 126V104Z" />
<glyph unicode="v" horiz-adv-x="1087" d="M1024 913Q1024 878 971 770T836 435T709 117T636 9T543 -8T454 9T390 96T257 431T108 786T56 924T84 988T184 1003H206Q321 1003 364 937Q383 909 396 822T443 618Q538 288 565 288Q586 288 690 616Q722 716 745 832T770
952Q795 1002 925 1002Q984 1002 1004 990T1024 931V913Z" />
<glyph unicode="w" horiz-adv-x="1574" d="M786 570T782 570T705 372T588 99T482 25Q442 25 395 55T326 135T235 407T126 731T86 887T107 959T187 976Q294 976 342 897Q354 877 422 617T519 357T613 607Q629 669 646 786T677 924Q705 972 833 972Q952 972 986
734Q996 667 1013 592Q1067 360 1091 360Q1143 360 1218 743Q1242 866 1258 903Q1293 985 1392 985H1423Q1474 985 1474 918V891Q1474 854 1433 724T1333 388T1254 139T1187 62T1106 28Q1030 28 987 95Q980 106 883 338Z" />
<glyph unicode="x" horiz-adv-x="1090" d="M317 -6T230 -6T110 5T77 57Q77 72 226 271T376 503T228 735T79 947Q79 979 106 988Q150 1003 286 1003Q358 1003 401 964L469 825Q533 695 569 695Q593 695 673 838Q688 864 706 911T735 970Q766 1006 840 1006Q991
1006 991 955Q991 921 850 747T709 509Q709 482 862 274T1016 57Q1016 27 989 15Q942 -6 835 -6H809Q719 -6 683 45Q674 57 651 117T621 190Q550 328 523 328Q502 328 423 189Q405 157 385 101T350 29Q317 -6 230 -6Z" />
<glyph unicode="y" horiz-adv-x="1098" d="M883 1008Q1025 1008 1025 947Q1025 918 869 459T686 -54Q507 -404 332 -404Q242 -404 191 -363Q176 -351 176 -333Q176 -278 222 -242Q228 -237 307 -215Q471 -169 471 0Q471 44 384 190T252 439Q65 868 65 909T103
970T236 989T372 921Q391 889 401 803T440 623Q529 322 564 322Q612 322 676 513T752 865Q756 928 770 953Q801 1008 883 1008Z" />
<glyph unicode="z" horiz-adv-x="1000" d="M374 0Q158 0 139 2Q82 8 82 48V71Q82 137 316 461T550 804Q550 834 436 834Q379 834 283 810T160 786Q101 786 101 896Q101 957 128 984T228 1012H279L305 1011L490 1012H649L675 1011L702 1012Q828 1012 854 1006Q897
996 897 938T866 830T762 682Q438 245 438 197Q438 171 533 171T734 200T851 230Q913 230 913 124Q913 63 882 30T766 -4H740L715 -3H689L532 0H374Z" />
<glyph unicode="{" horiz-adv-x="780" d="M90 615V638Q90 679 154 713T238 787T258 1074T319 1409Q401 1529 614 1529Q697 1529 697 1461Q697 1402 616 1362T513 1266T491 1015T469 768T423 692T376 649T352 626Q352 620 375 604Q450 550 470 487T490 254L488
130Q488 10 516 -37T581 -103Q654 -141 672 -163T690 -228Q690 -285 620 -285H595Q415 -285 334 -193Q287 -140 271 -69T254 150L257 300Q257 426 236 467T153 537T90 615Z" />
<glyph unicode="|" horiz-adv-x="624" d="M303 1523H342Q391 1523 404 1501T418 1392V-171Q418 -243 405 -263T324 -284H305Q237 -284 224 -262T210 -154V1411Q210 1483 222 1503T303 1523Z" />
<glyph unicode="}" horiz-adv-x="782" d="M98 1464Q98 1529 194 1529Q391 1529 472 1405Q529 1318 529 1028Q529 840 544 798T612 726Q694 680 694 636Q694 573 644 546Q566 504 548 462T529 174T468 -160Q384 -285 212 -285Q130 -285 113 -274T96 -224Q96 -164
176 -118T277 -22T297 225T320 484T390 583T436 629Q436 631 412 649Q346 698 323 755T299 1013T278 1267T177 1363T98 1464Z" />
<glyph unicode="~" horiz-adv-x="1099" d="M351 852H373Q438 852 561 791T732 729T849 775T937 821Q996 821 996 759V748Q996 675 926 605T769 535H747Q680 535 556 597T383 659T265 611T165 563Q114 563 114 624Q114 718 190 785T351 852Z" />
<glyph unicode="&#xa0;" horiz-adv-x="561" />
<glyph unicode="&#xa1;" horiz-adv-x="686" d="M306 1186H352Q367 1183 400 1183T460 1151T488 1061V1048L487 1044V1035Q485 1027 485 1023Q485 981 453 958T368 935H327Q191 935 191 1066V1075L195 1108Q195 1136 220 1161T306 1186ZM450 -154Q450 -211 426
-230T345 -249H305Q262 -249 247 -231T231 -161V-55L232 -43Q232 -25 232 -7L234 42Q234 54 234 66L237 127V152L246 342L248 392Q252 444 252 467L255 516L257 541Q260 580 260 601L262 625Q263 637 263 649L265 673L266 696Q266 769 324 769H364Q414 769 414
678L416 630L418 607Q421 568 421 546L423 522Q424 510 424 498L427 448L429 423Q432 384 432 360L434 335L448 -15Q448 -27 448 -39L450 -97V-154Z" />
<glyph unicode="&#xa2;" horiz-adv-x="1114" d="M370 626V583L371 574V557Q373 541 373 532Q373 454 422 371T516 287H521Q543 287 543 501Q543 512 543 523L546 577V592L553 691L554 699L557 744Q562 782 562 796L565 826L569 855Q569 862 569 869L570 883Q570
927 554 927H548Q478 927 424 843T370 626ZM128 583V609Q128 806 229 933Q293 1013 420 1068Q482 1094 505 1112T568 1199T640 1268Q690 1268 783 1135Q818 1085 889 1037T961 927Q961 890 940 865T896 839T830 855T750 872T704 816Q680 686 680 521T693 321T756
286Q762 286 819 299T901 313Q975 313 975 253Q975 206 858 140T700 15Q625 -94 571 -94Q542 -94 516 -30Q488 34 480 43Q458 63 371 109T218 253Q128 388 128 583Z" />
<glyph unicode="&#xa3;" horiz-adv-x="1171" d="M111 56T111 97T155 196Q162 205 199 248T253 330T269 445T249 556Q240 572 167 609Q117 635 117 687T158 777T209 838T237 975T259 1106Q311 1281 485 1354Q582 1395 680 1395H714Q856 1395 939 1346T1022 1213Q1022
1167 1001 1140T916 1112Q901 1112 823 1142T703 1173Q603 1173 557 1122T510 926Q510 863 550 836T687 792T813 761T842 700Q842 628 751 614Q678 602 666 599Q610 583 567 526Q495 431 495 291Q495 252 535 239T658 226T813 236T938 247T1023 219T1058 127T999
31T779 -3L678 0L576 6Q491 11 442 11L213 3Q162 3 137 29Z" />
<glyph unicode="&#xa4;" horiz-adv-x="1186" d="M602 978H569Q488 978 418 908T348 731V697Q348 601 417 526T572 451H605Q691 451 759 525T827 698V732Q827 826 758 902T602 978ZM157 629T157 700T181 854T205 937Q205 970 154 1030T103 1101Q103 1129 136 1163T204
1198Q212 1198 269 1150T355 1101T452 1120T584 1140T729 1119T828 1097T904 1149T982 1202T1037 1167T1072 1109T1021 1029T970 926Q970 918 982 882T1002 810T1011 711T986 567T960 468T1015 386T1071 318Q1071 289 1038 256T970 223Q956 223 900 274T790 326Q783
326 721 306T587 285Q516 285 450 304T375 323Q334 323 293 285Q216 213 193 213T136 250T103 306T154 383T205 485Q205 495 181 562Z" />
<glyph unicode="&#xa5;" horiz-adv-x="1249" d="M85 1292Q85 1376 229 1376T422 1315Q446 1286 462 1214T504 1082Q618 821 650 821Q672 821 790 1057Q826 1129 849 1215T884 1321Q918 1375 1058 1375Q1105 1375 1130 1355T1156 1318V1295Q1156 1261 1034 1069T912
794Q912 765 951 720T991 657Q991 616 914 572T837 515Q837 477 897 448Q987 405 987 378T921 295L900 280Q832 235 824 219T813 140T779 39T636 -1H599Q508 -1 472 37T436 166Q436 228 382 261Q264 334 264 372Q264 404 339 439T414 511Q414 530 346 562T278 647Q278
667 307 703T336 781Q336 858 211 1061T85 1292Z" />
<glyph unicode="&#xa6;" horiz-adv-x="598" d="M194 824V1418Q194 1473 210 1486T300 1500H319Q372 1500 388 1486T404 1415V831Q404 766 388 753T306 739H259Q218 739 206 757T194 824ZM194 -198V395Q194 449 211 460T275 472H342Q402 472 402 403L404 385V-198Q404
-254 389 -269T313 -285H257Q217 -285 206 -267T194 -198Z" />
<glyph unicode="&#xa7;" horiz-adv-x="1078" d="M360 666Q360 618 471 540T657 462H673Q728 462 728 527L730 538V555Q730 619 658 683Q515 810 436 810H427Q404 810 381 783T358 705V682Q360 672 360 666ZM870 1242Q870 1131 796 1131Q783 1131 701 1178T553
1226T455 1198T422 1132Q422 1071 488 1019Q506 1005 652 931T870 785T942 619T910 464Q900 445 873 408T845 349T869 261T894 128Q894 -6 786 -90T516 -175T255 -119T156 4T190 105Q202 117 229 117T310 84T371 46Q449 8 521 8T623 42T652 126T580 227Q573 232
435 301T240 425Q147 516 147 625T214 826Q249 875 249 882T214 966T179 1095Q179 1227 277 1314T528 1401T762 1360Q870 1305 870 1242Z" />
<glyph unicode="&#xa8;" horiz-adv-x="910" d="M201 1146Q112 1146 112 1264V1278Q112 1397 196 1397Q216 1402 226 1402L244 1403H248L253 1402H257Q369 1402 369 1308L372 1281V1259L368 1228Q368 1191 342 1169T280 1147Q272 1145 267 1145L245 1143H227L222
1144H214Q204 1146 201 1146ZM536 1304T536 1327T560 1374T620 1398L638 1401L664 1403H669L673 1402Q788 1402 788 1317Q790 1309 790 1304L792 1286V1258L791 1254V1245Q789 1237 789 1232Q789 1192 760 1168T674 1143H647Q537 1143 537 1229Q534 1241 534 1242L533
1260V1292Q536 1304 536 1327Z" />
<glyph unicode="&#xa9;" horiz-adv-x="1558" d="M758 131H795Q901 132 999 170Q1208 252 1286 467Q1325 574 1325 677V733Q1325 735 1325 738Q1325 843 1280 948Q1195 1149 1014 1225Q910 1269 804 1269H766Q655 1269 554 1226T387 1114T279 939T237 723V667Q237
665 237 662Q237 562 280 454Q361 248 564 168Q658 131 758 131ZM802 1106Q1060 1106 1060 942Q1060 882 997 882Q967 882 875 930Q815 961 771 961Q748 961 728 952Q618 901 618 729Q618 439 812 439Q858 439 921 469T1008 500Q1066 500 1066 451T986 349T802
295H765Q614 295 518 400Q422 506 421 699Q421 986 630 1076Q698 1106 766 1106H802ZM765 -5Q622 -4 495 48Q240 154 140 407Q88 540 88 668V714Q88 849 134 976Q231 1240 489 1347Q626 1404 772 1404H795Q919 1404 1045 1359Q1305 1266 1412 1013Q1473 869 1473
731V662Q1472 536 1418 404Q1315 154 1071 52Q934 -5 789 -5H765Z" />
<glyph unicode="&#xaa;" horiz-adv-x="851" d="M337 870H341L344 871H355Q415 871 442 898T470 943L476 975V1023Q476 1059 453 1059H435L432 1058H389L383 1057H377L352 1052Q338 1052 314 1021T289 961L286 943V926L289 915Q289 870 337 870ZM463 1210Q463 1292
373 1292Q346 1292 286 1261T177 1230Q117 1230 117 1306Q117 1359 205 1394T412 1429Q571 1429 639 1343Q687 1282 687 1067Q687 950 691 933T713 881T731 819V805Q731 743 617 743Q557 743 519 768T473 793T437 777T378 747T289 733Q182 733 128 787T74 934Q74
1123 360 1147Q405 1151 434 1162T463 1210Z" />
<glyph unicode="&#xab;" horiz-adv-x="1161" d="M605 940Q605 894 466 731T327 562T467 391T607 187V177Q607 159 582 137T534 114H523Q480 114 401 193Q85 509 85 559T395 920Q480 1005 528 1005H539Q605 1005 605 940ZM763 563Q763 552 815 494T909 383Q1032
229 1032 196V186Q1032 168 1005 146T959 124H949Q903 124 830 201Q524 525 524 555Q524 595 815 903Q901 994 953 994H963Q1030 994 1030 932Q1030 883 897 725T763 563Z" />
<glyph unicode="&#xac;" horiz-adv-x="1172" d="M1058 673V306Q1058 253 984 253T889 282T868 401Q868 565 814 582Q798 587 488 587T149 593Q101 603 101 667V682Q101 761 116 769T205 778H968Q1019 778 1038 754T1058 673Z" />
<glyph unicode="&#xad;" horiz-adv-x="887" d="M770 616V565Q770 480 729 480L713 479H697L680 478H536L519 477H401L384 476H291L274 475H206L181 474Q117 474 117 532V591Q117 668 150 675Q173 680 461 680L672 682H714Q770 682 770 616Z" />
<glyph unicode="&#xae;" horiz-adv-x="1473" d="M663 882H704L708 883L741 886Q745 887 755 887T796 912T828 980V1015Q828 1050 801 1077T743 1105L726 1108H718L705 1109H664Q621 1109 621 1063V923Q621 882 663 882ZM687 315H721Q810 315 902 349Q1090 418
1172 602Q1214 696 1214 791V860Q1214 966 1171 1066T1065 1229T913 1330T737 1369H684Q584 1369 493 1328Q315 1248 252 1067Q213 957 213 837L214 819Q214 604 353 459Q420 389 509 352T687 315ZM683 1215Q975 1215 975 1027Q975 936 932 884Q863 800 863 791T936
658T1009 526Q1009 489 942 489T850 512T786 619T740 716Q710 760 671 760Q622 760 622 676Q622 665 629 626T636 554Q636 488 547 488H516Q432 488 432 553V568Q432 578 445 609T458 716V904L459 953V1034Q459 1097 450 1133T441 1184Q441 1214 635 1214L683 1215ZM83
848Q83 851 83 854Q83 991 130 1110Q229 1361 475 1455Q589 1498 721 1498T969 1452Q1218 1353 1316 1106Q1362 989 1362 862V818Q1362 696 1317 582Q1224 345 996 243Q869 186 734 186H691Q561 186 443 240T254 371Q83 555 83 848Z" />
<glyph unicode="&#xaf;" horiz-adv-x="871" d="M167 1159Q100 1159 100 1204V1254Q100 1303 115 1315T168 1327H720Q770 1327 770 1282V1232Q770 1173 740 1164Q726 1160 413 1160H282L249 1159H167Z" />
<glyph unicode="&#xb0;" horiz-adv-x="831" d="M264 1126L266 1101Q266 1055 309 1018T399 981H419Q466 981 509 1017T552 1105L554 1115V1151Q551 1166 551 1175Q551 1225 505 1258T409 1291H404Q345 1291 304 1250T263 1141V1131L264 1126ZM400 1428H420Q539
1428 621 1346T704 1155V1116Q704 1011 621 928T428 844H389Q278 844 196 926T114 1116V1145Q114 1260 198 1344T400 1428Z" />
<glyph unicode="&#xb1;" horiz-adv-x="1146" d="M1024 792V740Q1024 682 985 670Q961 663 825 663T679 644T669 499T656 355T586 337H533Q488 337 478 373Q472 394 472 521T451 658Q441 663 306 663T150 669Q117 679 117 724V759Q117 828 146 839Q164 846 307
846T461 857T472 1007T486 1163T556 1180H608Q653 1180 663 1144Q668 1126 668 995T682 855T841 846T1005 837T1024 792ZM628 55H456Q183 55 153 61T123 123V156Q123 231 160 239T534 247H643Q959 247 988 241T1018 189V135Q1018 71 981 63T628 55Z" />
<glyph unicode="&#xb2;" horiz-adv-x="851" d="M490 678H379L360 679Q177 679 160 684Q121 695 121 738V755Q121 825 269 967T446 1152T475 1239Q475 1335 386 1335Q354 1335 291 1292T179 1249T131 1315T206 1432T392 1484H412Q542 1484 606 1418T670 1261T614
1098T462 947T366 842Q366 830 417 830T547 841T642 853Q686 853 686 782T632 690Q601 678 490 678Z" />
<glyph unicode="&#xb3;" horiz-adv-x="864" d="M191 854Q217 854 280 828T388 801T464 828T495 909T462 988T403 1019T350 1027T315 1033Q286 1045 286 1081T370 1160T455 1274Q455 1326 367 1326Q345 1326 288 1307T193 1288Q146 1288 146 1342T220 1438T393
1479H412Q523 1479 574 1441Q643 1390 643 1299T558 1130Q544 1117 544 1112T582 1085T654 1021T687 918V899Q687 793 603 724T392 654T183 703Q126 737 126 795T191 854Z" />
<glyph unicode="&#xb4;" horiz-adv-x="759" d="M267 1119H249Q190 1119 190 1147V1157Q190 1232 356 1419Q410 1480 499 1480H518Q530 1478 536 1478Q617 1478 617 1432V1421Q617 1373 432 1209Q331 1119 267 1119Z" />
<glyph unicode="&#xb5;" horiz-adv-x="1210" d="M1100 161Q1100 9 978 9Q922 9 888 23L865 35L844 48Q817 63 798 63T723 45T620 15T490 3L464 4L418 7Q377 7 377 -105L379 -166Q381 -229 381 -277T354 -363T266 -400T186 -382T158 -309T149 274L150 339V570Q150
702 139 771T128 891T141 961Q167 997 259 997T378 944Q403 892 403 634Q403 624 403 614Q403 603 403 593Q403 336 426 280Q473 166 567 166Q701 166 760 270Q788 319 788 498T782 744T776 827Q776 914 807 949T921 985T1032 907Q1042 880 1042 730Q1042 364 1081
233L1088 208Q1100 167 1100 161Z" />
<glyph unicode="&#xb6;" horiz-adv-x="1241" d="M836 1191T785 1191T723 1163Q717 1148 717 1032L715 930Q714 896 714 861Q714 404 671 29Q660 -64 597 -64Q546 -64 524 -41T502 48L503 83L506 116Q508 149 508 214Q508 466 451 587Q422 647 345 695Q229 766
190 821Q119 921 119 1052Q119 1234 247 1342Q296 1383 385 1411T594 1439H670Q980 1439 1038 1426T1097 1352Q1097 1343 1087 1298L1080 1268L1076 1235L1071 1202Q1049 1072 1047 1011T1044 683V271Q1044 188 1051 122T1058 9T1033 -58T976 -78Q901 -78 888 23Q872
149 872 477L859 1064Q859 1155 848 1173Z" />
<glyph unicode="&#xb7;" horiz-adv-x="628" d="M154 634V661Q154 730 186 762T266 794Q286 798 291 798H334Q465 798 465 661V635Q465 566 433 534T353 502Q333 498 327 498H290Q220 498 187 531T154 634Z" />
<glyph unicode="&#xb8;" horiz-adv-x="756" d="M195 -373V-358Q195 -315 258 -315Q272 -313 280 -313Q331 -313 356 -291T381 -241T334 -183T287 -124Q287 -61 312 -27T370 8H404Q450 8 450 -34Q450 -52 513 -104T577 -216V-241Q577 -315 512 -370T358 -425H315Q195
-425 195 -373Z" />
<glyph unicode="&#xb9;" horiz-adv-x="732" d="M349 671Q196 671 196 762Q196 804 228 851T267 918T274 1070T260 1220T188 1255T130 1308V1317Q130 1350 179 1379Q331 1470 388 1470H412Q452 1470 463 1441Q466 1433 466 1197T468 945T503 863T537 754Q537 672
375 671H349Z" />
<glyph unicode="&#xba;" horiz-adv-x="863" d="M286 1007Q286 945 323 897T414 849H420Q464 849 499 889T534 988Q537 1006 537 1013L539 1045V1100Q539 1192 504 1244T412 1297H406Q352 1297 317 1245T282 1095V1066L283 1059V1039Q286 1009 286 1007ZM78 1055V1092Q78
1240 167 1335T389 1430H438Q574 1430 656 1353Q760 1255 760 1115L762 1091V1066L761 1054Q761 907 672 812T435 716H385Q258 716 168 806T78 1055Z" />
<glyph unicode="&#xbb;" horiz-adv-x="1167" d="M140 888T140 920T163 974T220 996T327 922Q636 613 636 559T323 192Q254 123 208 123Q141 123 141 183Q141 230 275 389T409 562Q409 564 341 649L325 668Q309 687 301 697L285 716Q140 888 140 920ZM635 1007Q675
1007 752 930Q1070 612 1070 556Q1070 528 874 321T638 113H628Q562 113 562 175Q562 219 701 383T841 563Q841 570 702 734T562 940V950Q562 1007 635 1007Z" />
<glyph unicode="&#xbc;" horiz-adv-x="1609" d="M1068 287H1131L1135 288H1143Q1225 288 1228 295T1232 376V483L1233 490V534L1234 546V558L1231 562Q1225 562 1192 504T1107 373T1055 294T1068 287ZM329 606Q283 606 238 641Q216 658 216 689T235 752T268 823T283
985T265 1142T196 1201T146 1256T199 1319Q342 1405 403 1405H415Q460 1405 467 1368Q472 1343 472 1103T475 837T504 763T530 687V677Q530 609 426 609L401 607L365 606H329ZM1151 1380T1228 1380T1306 1346Q1306 1324 1274 1269Q892 611 527 54Q469 -35 414 -35H397Q314
-35 314 0Q314 58 1084 1274Q1151 1380 1228 1380ZM1321 768H1362Q1406 768 1416 735Q1419 726 1419 562T1426 370T1457 307T1496 259T1512 238V232Q1512 200 1495 165T1468 123T1455 110T1450 78Q1450 -45 1367 -45H1326Q1250 -45 1232 -26Q1201 7 1201 77Q1201
115 1153 136T1031 157T931 173T904 226V236Q904 324 1222 717Q1263 768 1321 768Z" />
<glyph unicode="&#xbd;" horiz-adv-x="1685" d="M368 603H344Q205 603 205 699Q205 726 226 769T261 847T274 1000T261 1142T191 1193T134 1258V1266Q134 1295 184 1327Q331 1420 381 1420H403Q445 1420 453 1377Q456 1360 456 1178V889Q456 864 486 793T516 689V678Q516
639 469 614Q448 603 368 603ZM1189 1411Q1285 1411 1285 1372Q1285 1353 1240 1277Q929 753 812 544T593 178T475 4Q438 -35 386 -35H369Q291 -35 291 5Q291 21 335 99Q747 831 1048 1298Q1121 1411 1189 1411ZM1433 -28H1263L1244 -27Q1069 -27 1044 -20Q1007
-10 1007 33V50Q1007 120 1158 271T1334 460T1359 546T1334 616T1273 637T1173 594T1065 551Q1014 551 1014 633Q1014 693 1095 743Q1177 793 1272 793H1312Q1423 793 1491 727T1560 575T1520 428T1367 264T1255 145T1338 130L1517 146Q1573 146 1573 88V71Q1573
23 1542 -2T1433 -28Z" />
<glyph unicode="&#xbe;" horiz-adv-x="1700" d="M1161 291H1203L1207 292H1247Q1332 292 1335 297T1338 378V502L1339 517V555L1338 556Q1334 556 1283 479T1194 356T1156 295V293Q1156 291 1161 291ZM386 1425H445Q530 1425 590 1382Q650 1338 651 1266Q651 1157
562 1075Q549 1063 549 1059T572 1044Q696 985 696 863V844Q696 749 614 679T397 608H378Q282 608 211 646T139 736Q139 801 199 801Q223 801 283 774T393 747T475 775T508 857T474 938T381 974T316 988Q293 1002 293 1040Q293 1069 390 1116Q464 1152 464 1210Q464
1276 374 1276Q345 1276 291 1256T204 1236Q156 1236 156 1290T229 1385T386 1425ZM1259 1403T1337 1403T1416 1367Q1416 1344 1373 1274Q674 133 619 51T508 -32H491Q408 -32 408 5Q408 83 1211 1328Q1259 1403 1337 1403ZM1421 778H1449Q1506 778 1515 744Q1518
732 1518 566T1532 358T1578 286T1611 247V242Q1611 211 1580 148T1548 78Q1548 17 1525 -9T1453 -36H1412Q1348 -36 1332 -18Q1302 17 1302 86Q1302 123 1243 148Q1207 163 1131 163T1026 180T998 234V244Q998 329 1321 728Q1361 778 1421 778Z" />
<glyph unicode="&#xbf;" horiz-adv-x="1040" d="M726 1054Q726 1054 724 1028Q724 973 686 941T594 908H569Q488 908 457 951T426 1074V1097Q429 1112 429 1133T458 1180T536 1206L562 1209H594Q612 1206 620 1206Q669 1206 698 1172T727 1076V1060L726 1054ZM583
768Q627 768 647 743T668 643T633 503T525 368T422 247T392 123T435 8T553 -34T705 11T824 57T884 27T904 -44V-61Q904 -141 789 -195T508 -249T233 -160T123 74T191 320Q234 383 302 444Q413 543 433 570T469 671T488 747Q506 768 566 768H583Z" />
<glyph unicode="&#xc0;" horiz-adv-x="1361" d="M563 569H702Q822 569 822 591Q822 594 780 750T693 1005T644 1104T555 866T470 594Q470 569 563 569ZM383 1797V1807Q383 1821 411 1843T479 1865H491L497 1864Q585 1864 652 1804T798 1632Q823 1596 823 1568V1563Q823
1520 770 1520H758L752 1521Q682 1521 579 1593Q383 1730 383 1797ZM1274 174V153Q1274 81 1244 43T1115 5H1088Q1001 5 966 47Q947 70 931 192T871 351T641 389T425 368Q381 337 357 197T330 52Q305 5 212 5T100 35Q69 83 69 155Q69 193 146 354Q169 402 297 785T470
1268T552 1385T675 1404T792 1379T869 1268T1159 446Q1185 368 1229 290T1274 174Z" />
<glyph unicode="&#xc1;" horiz-adv-x="1360" d="M467 609V597Q467 578 537 578H676Q818 578 818 597V608Q818 682 671 1064Q651 1115 648 1115H644Q639 1115 553 875T467 609ZM586 1518H569Q518 1518 518 1555V1572Q518 1592 574 1672T700 1806T846 1861H870Q898
1861 927 1842T957 1804V1793Q957 1733 757 1593Q650 1518 586 1518ZM1271 177V156Q1271 67 1223 31Q1191 7 1111 7H1085Q984 7 953 64Q946 77 928 197T869 354T633 391T406 353T357 192T331 54Q303 7 212 7T100 37Q67 86 67 155Q67 159 166 402Q171 415 300 803T473
1281T550 1388T651 1406H705Q771 1406 808 1365T894 1216T1053 764T1197 350Q1271 195 1271 177Z" />
<glyph unicode="&#xc2;" horiz-adv-x="1359" d="M563 568H725Q822 568 822 590Q822 593 780 749T693 1004T644 1103T555 865T470 593Q470 568 563 568ZM993 1567V1560Q993 1520 920 1520T782 1580Q678 1676 672 1676T581 1597T435 1518H427L419 1519Q350 1519
350 1550V1557Q350 1623 548 1806Q601 1855 672 1855H681Q746 1855 796 1809Q993 1627 993 1567ZM1274 173V152Q1274 80 1244 42T1115 4H1088Q1001 4 966 46Q947 69 931 191T871 350T641 388T425 367Q381 336 357 196T330 51Q305 4 212 4T100 34Q69 82 69 153Q69
192 146 353Q169 401 297 784T470 1267T552 1384T675 1403T792 1378T869 1267T1159 445Q1185 367 1229 289T1274 173Z" />
<glyph unicode="&#xc3;" horiz-adv-x="1365" d="M474 611V599Q474 578 629 578H754Q830 578 830 600V606Q830 636 744 877T654 1118T623 1054Q474 706 474 611ZM501 1803H527Q572 1803 686 1759T830 1714T904 1749T992 1784Q1040 1784 1040 1720T985 1595T860
1535H825Q772 1535 671 1580T531 1625T449 1589T359 1553T312 1602V1621Q312 1689 373 1746T501 1803ZM1282 172V152Q1282 64 1232 28Q1200 5 1097 5T961 63Q957 69 939 193T878 354T631 390H576L549 389Q522 388 496 388Q431 388 402 333T360 170T322 33T218 5T115
22Q70 52 70 153Q70 159 161 377Q190 447 310 813T475 1275T556 1389T678 1408T800 1379T878 1268T1160 470Q1190 380 1236 296T1282 172Z" />
<glyph unicode="&#xc4;" horiz-adv-x="1358" d="M542 578H735Q815 578 815 596V601Q815 647 669 1056Q648 1115 641 1115T611 1051Q465 642 465 603V597Q465 578 542 578ZM414 1542Q333 1542 333 1651V1679Q333 1791 428 1791L454 1794H481L499 1792L520 1789Q587
1789 587 1716Q590 1704 590 1703L592 1681V1649L588 1618Q588 1543 507 1543L503 1542L498 1541L462 1538H453L449 1539H435Q416 1542 414 1542ZM856 1787H900Q915 1784 922 1784Q1002 1784 1002 1676V1648Q1002 1580 972 1555T869 1530L864 1531H846Q826 1534
825 1534Q745 1534 745 1637V1674L749 1705Q749 1741 776 1764T856 1787ZM1270 177V156Q1270 67 1222 31Q1190 7 1110 7H1084Q982 7 952 64Q946 76 928 197T868 355T632 391T405 352T356 192T330 54Q304 7 212 7T99 37Q66 87 66 155Q66 164 165 402Q183 446 304
816T470 1278T550 1389T671 1407T793 1378T878 1246T1044 791T1176 395T1232 285T1270 177Z" />
<glyph unicode="&#xc5;" horiz-adv-x="1390" d="M587 1707Q587 1671 614 1644T676 1616H696Q737 1616 760 1645T783 1696L785 1709V1726L781 1749Q781 1761 758 1789T687 1818H683L651 1813Q632 1813 611 1787T589 1737L587 1724V1707ZM577 595H759Q844 595 844
615V621Q844 748 697 1066Q667 1132 664 1132T627 1058Q482 744 482 620V614Q482 595 577 595ZM678 1930H692Q784 1930 847 1873T911 1727V1712Q911 1622 846 1564T702 1505H666Q587 1505 525 1561T462 1701V1730Q462 1813 527 1871T678 1930ZM1312 172Q1312 87
1253 49Q1219 27 1137 27H1110Q1002 27 972 82Q968 90 953 209T889 374T652 419T424 380T372 216T343 67Q318 28 231 28T122 49Q70 99 70 166T113 306T178 436T315 848T473 1295T558 1407T686 1429H714Q788 1429 833 1387T928 1237T1089 784T1231 370Q1312 193
1312 172Z" />
<glyph unicode="&#xc6;" horiz-adv-x="1838" d="M834 706Q844 786 844 822L847 859Q852 904 853 922T855 954Q858 994 858 1005L860 1013L863 1028L867 1056Q873 1084 873 1097L876 1129V1135Q876 1146 865 1146Q827 1146 780 1077T710 914T625 721T561 616T574
610L628 618Q716 593 775 593L809 591L816 590H822Q842 590 842 642L834 706ZM1467 836Q1593 836 1593 717T1526 598L1380 610Q1257 610 1215 572T1173 446Q1173 303 1226 247Q1250 222 1321 222L1585 243Q1662 243 1691 222T1721 155Q1721 82 1665 52T1343 21T962
58Q876 86 876 168L878 204Q883 263 883 275Q883 365 843 392T730 420Q569 420 506 365Q464 329 394 166L382 134Q363 86 360 81Q333 33 266 33T167 66T135 156Q135 164 305 536T607 1134Q625 1165 651 1217T692 1286Q740 1344 835 1354T1230 1365L1363 1367L1408
1368H1452Q1594 1368 1640 1340T1687 1222Q1687 1157 1621 1157Q1587 1157 1484 1171T1300 1185T1188 1136T1156 947Q1156 878 1189 848T1318 818L1467 836Z" />
<glyph unicode="&#xc7;" horiz-adv-x="1351" d="M530 -395V-381Q530 -352 585 -352L615 -350Q722 -350 722 -279Q722 -237 675 -207T628 -143Q628 -39 701 -39H707Q588 -33 472 12Q338 64 252 158Q79 349 79 657Q79 659 79 661V697Q80 1209 444 1375Q576 1435
710 1435H744Q834 1435 953 1407T1120 1353T1203 1278T1237 1176T1217 1095T1168 1066Q1090 1066 966 1120Q844 1174 762 1193Q727 1202 695 1202Q652 1202 615 1186Q517 1145 465 1035T413 755T435 488Q500 200 734 200Q833 200 962 269T1185 339Q1246 339 1246
267Q1246 216 1231 187Q1189 104 1111 56Q955 -40 745 -40Q740 -40 736 -40Q790 -50 879 -170Q907 -207 907 -260V-277Q907 -354 845 -411T680 -468H645Q589 -468 551 -446Q530 -434 530 -395Z" />
<glyph unicode="&#xc8;" horiz-adv-x="1205" d="M343 1790V1801Q343 1815 371 1837T445 1859H451L457 1858Q543 1858 610 1799T758 1626Q783 1590 783 1562V1556Q783 1514 729 1514H712Q643 1514 544 1583Q343 1724 343 1790ZM989 243Q1097 243 1097 120Q1097
48 1051 22T885 -4H434Q239 -4 183 14T126 98Q126 121 148 205T170 393L171 468V1031Q171 1108 156 1170L147 1200L138 1227Q126 1266 126 1284V1313Q126 1368 201 1379T683 1391L758 1392H946Q1024 1392 1049 1357T1074 1265Q1074 1154 960 1154Q926 1154 794
1174T583 1194T479 1145T453 942Q453 867 504 840T652 813Q673 813 734 828T851 844T926 816T946 715T930 614T849 586L816 591L783 597L751 604Q690 615 602 615T477 567Q452 535 452 423T479 254T603 198Q666 198 805 220T989 243Z" />
<glyph unicode="&#xc9;" horiz-adv-x="1204" d="M537 1479H527Q472 1479 472 1531V1547Q472 1570 518 1640T642 1776T781 1842H808Q902 1842 902 1798V1793Q902 1749 663 1534Q602 1479 537 1479ZM1067 1277Q1067 1169 957 1169Q926 1169 796 1189T590 1209T489
1162T464 1010T488 880Q529 835 658 835Q673 835 734 850T850 865T924 838T943 739T927 640T847 612L815 616L783 623L751 629Q686 640 603 640T484 591Q461 560 461 449T487 284T594 230T804 251T980 273Q1087 273 1087 155Q1087 84 1040 58T878 32H620Q289 32
224 43Q133 58 133 133Q133 148 155 238T178 421L179 494V753L180 827V1047Q180 1123 158 1211T136 1322Q136 1375 217 1387T682 1400L756 1401H941Q1067 1401 1067 1277Z" />
<glyph unicode="&#xca;" horiz-adv-x="1204" d="M384 1514H367Q298 1514 298 1552Q298 1619 501 1806Q549 1850 618 1850H627Q692 1850 742 1804Q941 1620 941 1556Q941 1515 871 1515T730 1574Q717 1585 671 1628T619 1671T528 1593T384 1514ZM994 241Q1097 241
1097 120Q1097 47 1050 21T884 -6H621Q284 -6 218 5Q126 20 126 97Q126 124 148 207T170 360V467L171 504V955L170 1030Q170 1112 156 1169L147 1198L137 1226Q126 1262 126 1283V1311Q126 1366 198 1378T683 1390L834 1391H909Q1003 1391 1038 1365T1074 1264Q1074
1153 960 1153L600 1193Q504 1193 478 1143T452 987T477 856Q521 812 652 812Q673 812 732 827T849 842T927 814T946 712T930 612T848 585L815 589L750 603Q689 614 602 614T477 565Q452 532 452 421T478 254T588 197T804 219T994 241Z" />
<glyph unicode="&#xcb;" horiz-adv-x="1204" d="M424 1789Q535 1789 535 1707L538 1689L540 1662V1657L539 1653V1639Q536 1619 536 1618Q536 1579 511 1558T450 1537Q442 1535 437 1535L415 1533H392L387 1534H379Q369 1536 366 1536L349 1539Q286 1539 286 1611Q283
1623 283 1624L281 1646V1678L285 1708Q285 1739 307 1761T366 1784Q380 1787 383 1787L405 1789H424ZM696 1646V1673Q696 1785 786 1785Q794 1787 799 1787L821 1789H839Q899 1789 927 1766T955 1680V1644Q955 1581 926 1557T839 1533H807L803 1534H794Q786 1536
781 1536Q696 1536 696 1646ZM990 246Q1098 246 1099 124Q1099 53 1052 26T886 -1H473Q240 -1 184 17T128 102Q128 121 148 202T170 358T172 740T170 1093T148 1204T127 1315T176 1377T460 1395H947Q1076 1395 1076 1269Q1076 1157 962 1157Q928 1157 796 1177T585
1197T480 1148T454 992T479 860Q520 817 654 817Q675 817 733 832T850 847T927 819T947 718T931 617T850 590Q846 590 769 604T604 618T479 570Q454 538 454 427T480 259T590 202T808 224T990 246Z" />
<glyph unicode="&#xcc;" horiz-adv-x="699" d="M459 1466H444Q373 1466 274 1555Q85 1725 85 1780L86 1786V1792Q86 1809 113 1830T171 1852H176Q264 1852 325 1783Q501 1585 501 1520V1503Q501 1466 459 1466ZM565 162V128Q565 91 521 72T348 53H329Q223 53 188
71Q131 101 131 152T162 260T199 360T205 720T199 1096T158 1211T123 1319T167 1391T321 1413H379Q467 1413 500 1395Q557 1364 557 1315T526 1208T488 1103T481 742T487 372T529 253T565 162Z" />
<glyph unicode="&#xcd;" horiz-adv-x="703" d="M255 1486H234Q192 1486 192 1522V1527L193 1532Q193 1610 365 1782Q437 1854 526 1854H532Q564 1854 590 1834T617 1799V1787Q617 1745 428 1575Q329 1486 255 1486ZM309 35Q307 35 306 35Q132 35 132 140Q132 188
163 246T202 360T210 736T203 1107T164 1207T131 1315Q131 1408 291 1408H408Q499 1408 544 1365Q565 1345 565 1302T534 1198T494 1082T486 706T491 338T532 237T567 131T514 51Q481 35 368 35H309Z" />
<glyph unicode="&#xce;" horiz-adv-x="707" d="M350 1835H366Q422 1835 471 1782Q657 1580 657 1526V1519Q657 1478 562 1478Q510 1478 398 1571Q386 1581 372 1597T352 1613T324 1590T242 1521T129 1476L121 1477Q45 1477 45 1521Q45 1577 235 1783Q283 1835
350 1835ZM294 52Q138 52 138 163Q138 194 167 255T202 352T207 747V1074Q199 1145 166 1204T133 1313T186 1391Q219 1408 311 1408H408Q476 1408 508 1389Q564 1355 564 1308T533 1197T498 1094T493 712T499 332T537 244T568 141Q568 52 410 52H294Z" />
<glyph unicode="&#xcf;" horiz-adv-x="708" d="M169 1481H135Q127 1483 116 1483T73 1506T40 1577Q37 1589 37 1591L35 1615V1645Q35 1714 67 1746T145 1778H172Q218 1778 245 1746T273 1667L276 1638V1618L272 1580Q272 1532 236 1507T169 1481ZM425 1692T425
1712T446 1758T504 1784L517 1787L539 1789H575Q633 1789 656 1761T680 1679V1648Q680 1584 650 1559T559 1534H536L501 1538Q427 1538 427 1613L426 1618L424 1626L422 1648V1680Q425 1692 425 1712ZM325 52Q150 52 150 154Q150 202 179 261T216 367T223 739T216
1111T178 1212T146 1315T198 1394Q231 1411 362 1411H381Q485 1411 519 1392Q575 1361 575 1313T545 1203T507 1094T500 722T507 350T546 250T579 144V128Q579 81 513 62Q479 52 383 52H325Z" />
<glyph unicode="&#xd0;" horiz-adv-x="1425" d="M1028 629V722Q1028 1095 785 1181Q715 1206 600 1206H567Q484 1206 469 1169Q459 1145 459 993T481 814T640 787Q713 787 713 702Q713 647 694 632T593 616T484 586T457 440V372Q457 228 472 204T607 180T797 208Q950
269 1000 445Q1028 545 1028 629ZM641 1394Q1126 1394 1268 1010Q1315 885 1315 729Q1315 726 1315 723V696Q1315 176 911 35Q796 -5 635 -5H404Q224 -5 195 7T166 73Q166 89 184 145T208 248T214 439T202 597T141 619T89 631Q67 644 67 705T87 779T148 801T201
826T213 987T204 1165T178 1249T161 1330T184 1374T291 1387L412 1391L486 1394H641Z" />
<glyph unicode="&#xd1;" horiz-adv-x="1452" d="M1090 1740V1722Q1090 1645 1026 1590T902 1535H875Q832 1535 726 1582T582 1629T500 1593T413 1556Q363 1556 363 1618T422 1745T561 1809H570L579 1808Q629 1808 732 1762T873 1716T955 1751T1041 1786Q1090 1786
1090 1740ZM1021 1266Q1021 1383 1181 1383Q1249 1383 1285 1352T1321 1234Q1321 1201 1303 1134T1280 1028T1274 766L1272 596L1271 553L1269 342Q1269 82 1261 60Q1244 14 1184 14Q1068 14 984 107Q946 149 689 544T400 939Q387 939 387 778T393 536T410 329T422
181Q422 3 232 3Q159 3 140 25T121 89T143 196T167 290T169 600V1030Q169 1134 145 1220T120 1326L131 1353Q154 1385 234 1385T378 1357T516 1238L539 1206Q583 1146 654 1038T882 697T1044 465Q1056 465 1056 734T1039 1129T1021 1266Z" />
<glyph unicode="&#xd2;" horiz-adv-x="1444" d="M366 770V707Q366 591 392 488Q416 386 456 328Q544 200 698 199Q711 199 724 200H739Q869 200 952 317T1036 661V754Q1036 854 1011 956T946 1116T844 1209T708 1244H663Q517 1244 433 1102Q366 989 366 770ZM415
1802V1813Q415 1830 447 1852T518 1874H524L530 1873Q617 1873 672 1824T822 1640Q851 1599 851 1563Q851 1519 801 1519H778Q708 1519 598 1599Q415 1732 415 1802ZM732 -13H684Q534 -13 416 41T226 185T117 412T81 703V727Q82 1057 240 1246Q316 1336 439 1383T698
1431H722Q873 1431 993 1376T1188 1230Q1333 1054 1333 720V715L1332 691Q1332 195 987 43Q859 -13 732 -13Z" />
<glyph unicode="&#xd3;" horiz-adv-x="1444" d="M365 756V679Q365 582 390 483T460 323Q542 209 703 209T950 335T1036 702V764Q1036 1103 860 1207Q792 1247 714 1247H684Q534 1247 450 1122T365 756ZM630 1499H601Q555 1499 555 1538V1548Q555 1626 729 1800Q784
1855 867 1855L879 1857H891L897 1856Q925 1856 955 1836T985 1798V1793Q985 1721 785 1565Q700 1499 630 1499ZM708 -17H684Q543 -17 420 36T230 176T122 392T81 676V723Q81 890 123 1024T238 1241T429 1375T674 1427H722Q866 1427 986 1375Q1332 1224 1333 711L1332
688Q1332 526 1288 387T1163 161T963 29T708 -17Z" />
<glyph unicode="&#xd4;" horiz-adv-x="1443" d="M363 773V696Q363 564 392 467T458 318T555 231T692 197H738Q808 197 864 233Q1040 345 1040 669V746Q1040 1075 859 1193Q795 1235 712 1235H681Q532 1235 441 1101Q363 987 363 773ZM701 1851H719Q777 1851 818
1813Q903 1735 959 1656T1016 1557V1550Q1016 1513 928 1513Q869 1513 788 1588L737 1631Q706 1657 703 1657T613 1584T475 1510H451Q382 1510 382 1550Q382 1570 442 1653T584 1807Q636 1851 701 1851ZM1332 732V662Q1332 535 1293 398T1175 170T974 30T709 -20H686Q550
-20 432 29Q204 123 129 367Q82 519 82 672V719L83 742Q83 877 121 1009T233 1230T428 1370T673 1423H721Q866 1423 982 1373T1172 1240T1289 1023T1332 732Z" />
<glyph unicode="&#xd5;" horiz-adv-x="1451" d="M366 756V725Q366 603 392 501T459 339T569 245T714 210L729 211H744Q808 211 870 246Q1051 348 1051 653V656L1053 686V764Q1053 1113 845 1216Q783 1247 706 1247H691Q537 1247 452 1123T366 756ZM1064 1723V1705Q1064
1643 1008 1583T881 1522H855Q812 1522 698 1566T554 1611T483 1576T393 1541T345 1607T405 1734T542 1794H560L569 1793Q615 1793 725 1750T861 1707T930 1740T1019 1774T1064 1723ZM716 -19H692Q548 -18 432 32Q86 182 86 700L87 724Q87 1234 439 1378Q562 1428
683 1428H731Q874 1428 991 1378T1187 1242T1305 1015T1345 710L1344 687Q1344 529 1302 393Q1222 133 996 37Q864 -19 716 -19Z" />
<glyph unicode="&#xd6;" horiz-adv-x="1450" d="M360 749V702Q360 454 448 324T700 194L716 195H731Q798 195 861 235Q1030 342 1030 689V737Q1030 859 1004 961Q959 1141 840 1208Q778 1243 705 1243H675Q527 1243 444 1121T360 749ZM511 1802Q627 1802 627 1712L630
1685V1658Q630 1552 544 1552Q530 1549 527 1549L504 1547H481Q424 1547 396 1570T367 1654V1691L371 1721Q372 1756 396 1776Q423 1798 466 1799L493 1802H511ZM890 1527Q819 1527 793 1558T767 1660L768 1665Q768 1734 793 1764T875 1794Q883 1796 889 1796L908
1797H918Q1028 1797 1028 1710Q1030 1700 1030 1696L1032 1678V1645L1028 1613Q1028 1579 1004 1555T942 1531L909 1527H890ZM1334 735V664Q1334 541 1295 404T1178 178T978 36T730 -18H682Q549 -18 431 30T237 163T118 385T75 677V724Q75 884 116 1018T232 1240T430
1379Q556 1430 696 1430Q1001 1430 1172 1246Q1248 1164 1291 1026T1334 735Z" />
<glyph unicode="&#xd7;" horiz-adv-x="1124" d="M272 1017Q296 1017 426 887T563 757T697 888T853 1020H869Q885 1020 926 982T968 914T837 754T705 606Q705 601 838 463T971 300T930 237T858 198T696 329T560 460T423 328T253 196Q238 196 195 234T152 300T284
464T416 610T284 752T151 913T193 979T272 1017Z" />
<glyph unicode="&#xd8;" horiz-adv-x="1454" d="M372 738V689Q372 502 423 394Q431 376 444 376Q480 376 617 612Q882 1070 882 1129V1138Q882 1161 853 1183Q793 1228 724 1228H677Q536 1228 454 1094T372 738ZM1034 840V894Q1034 1028 1012 1028Q1002 1028 967
957T731 553T531 218V210Q531 210 531 209Q531 152 624 152Q910 152 1002 572Q1034 717 1034 840ZM299 -52H280Q189 -52 189 14Q189 30 201 79T213 163T185 265T139 386Q98 512 98 660V714Q98 876 148 1014Q246 1285 487 1374Q593 1413 763 1413Q823 1413 887 1402T980
1391T1057 1415T1135 1439Q1228 1439 1228 1358Q1228 1345 1216 1302T1204 1231T1240 1109T1280 1003Q1319 881 1319 728V674Q1319 536 1274 396Q1184 114 926 17Q823 -22 677 -22L464 -5Q413 -5 400 -10T350 -33T299 -52Z" />
<glyph unicode="&#xd9;" horiz-adv-x="1409" d="M855 1565V1549Q855 1512 796 1512L790 1513H784Q716 1513 607 1589Q417 1722 417 1795V1800Q417 1816 448 1836T519 1857H525Q543 1854 555 1854Q621 1854 685 1797T830 1624Q855 1588 855 1565ZM98 1211Q98 1394
233 1394H267Q374 1394 415 1364T457 1265Q456 1239 450 1195Q422 1012 422 715Q422 710 422 704Q422 399 467 312T588 196Q640 176 722 176Q900 176 965 338Q1001 426 1001 726T985 1138T969 1273Q969 1346 1002 1369T1126 1393T1240 1369Q1287 1317 1287 1250T1267
1111T1243 1016T1240 724T1223 352Q1206 252 1144 162Q1014 -25 700 -26Q386 -26 246 153Q180 239 163 350T146 712T144 1003T120 1113T98 1211Z" />
<glyph unicode="&#xda;" horiz-adv-x="1410" d="M628 1519H604Q557 1519 557 1554V1570Q557 1626 727 1796Q792 1861 884 1861H902Q938 1861 967 1842T997 1807V1796Q997 1732 800 1594Q693 1519 628 1519ZM473 306Q539 178 713 178T953 311Q1001 408 1001 720T985
1144T969 1303T1002 1373T1126 1397T1240 1373Q1288 1321 1288 1253T1268 1118T1243 1023T1239 728T1224 358T1146 166Q1015 -23 699 -23T246 157Q188 234 168 337T147 704T145 1008T120 1117T98 1216Q98 1325 149 1373Q175 1398 274 1398T417 1367T460 1269Q460
1250 453 1202Q425 1012 425 706T473 306Z" />
<glyph unicode="&#xdb;" horiz-adv-x="1409" d="M1025 1556V1549Q1025 1515 952 1515T816 1573Q712 1669 706 1669L597 1577Q521 1513 462 1513L454 1514H445Q383 1514 383 1550Q383 1568 412 1609Q498 1730 586 1804Q637 1847 703 1847H711Q779 1847 820 1809Q1025
1621 1025 1556ZM423 1006T423 701T468 310T577 199T722 174Q901 174 965 337Q1001 429 1001 726T985 1137T969 1271Q969 1345 1002 1368T1126 1392T1240 1368Q1287 1316 1287 1249T1267 1110T1243 1015T1240 723T1223 352T1145 162Q1014 -26 700 -26Q699 -26 699
-27Q386 -27 246 152Q180 238 163 349T146 710T144 1000T120 1109T98 1209Q98 1393 233 1393H267Q374 1393 415 1363T457 1264Q457 1238 452 1205Q423 1006 423 701Z" />
<glyph unicode="&#xdc;" horiz-adv-x="1413" d="M360 1670Q360 1670 363 1705Q363 1790 477 1790H509Q619 1790 619 1704Q621 1696 621 1691L623 1669V1651Q623 1539 532 1539Q524 1537 519 1537L496 1535H473L469 1536H460Q450 1538 432 1538T389 1558T364 1616L361
1634L359 1661V1665L360 1670ZM1034 1612Q1034 1540 954 1540L936 1537L914 1535H890L872 1537L851 1540Q775 1540 775 1660V1665L776 1669V1683Q779 1703 779 1704Q779 1743 804 1764T861 1785L874 1788L896 1790H929L960 1786Q991 1786 1013 1764T1036 1701L1039
1674V1647Q1034 1622 1034 1612ZM418 1022T418 712T462 315T571 203T718 177T865 217T964 343T999 732T983 1146T967 1304T1001 1374T1126 1397T1239 1373Q1287 1321 1287 1256T1266 1117T1242 1016T1238 723T1223 357T1145 166Q1013 -25 688 -25Q686 -25 685 -25Q358
-25 221 183Q170 260 155 362T139 716T137 1006T113 1114T91 1215V1247Q91 1324 140 1373Q165 1398 227 1398H261Q369 1398 410 1368T452 1270Q452 1244 447 1211Q418 1022 418 712Z" />
<glyph unicode="&#xdd;" horiz-adv-x="1283" d="M568 1523H545Q500 1523 500 1560V1576Q500 1651 684 1815Q745 1869 834 1869H847Q885 1869 912 1848T940 1811V1806L939 1801Q939 1736 742 1598Q635 1523 568 1523ZM611 -2Q447 -2 447 102Q447 150 475 236T503
420T454 621Q447 636 307 883T136 1167Q38 1288 38 1341Q38 1371 70 1384T201 1398Q354 1398 417 1323Q441 1295 462 1211T508 1075Q641 793 660 793Q697 793 823 1060Q856 1130 873 1217T914 1333Q965 1395 1126 1395Q1229 1395 1229 1344T1145 1188Q1108 1142
983 913T835 633Q789 524 789 386Q789 329 809 246T829 122Q829 43 769 11Q745 -2 666 -2H611Z" />
<glyph unicode="&#xde;" horiz-adv-x="1260" d="M860 715V734Q860 854 798 922T622 991H557Q490 991 468 957Q457 940 457 861V570Q457 500 471 486Q500 457 557 457H614Q734 457 797 526T860 715ZM509 146Q509 -21 319 -21H296Q203 -21 172 -1T141 67T163 195T186
366L187 390V1041Q187 1129 161 1221T135 1329Q135 1375 165 1389T257 1403H303Q397 1403 437 1372T498 1276T535 1202Q586 1174 742 1157T1007 1059Q1078 1006 1114 921T1151 753V702Q1151 612 1112 530T995 384T761 297T538 243Q509 229 509 146Z" />
<glyph unicode="&#xdf;" horiz-adv-x="1272" d="M263 -8H230Q177 -8 153 20T129 74T147 183T165 424T143 726T121 887T181 1125Q206 1222 272 1296Q405 1448 618 1448T941 1357T1052 1122Q1052 1051 984 942T916 800Q916 737 984 670Q1109 547 1143 485T1178 347Q1178
192 1082 98Q1028 45 955 19T833 -8H793Q712 -8 648 21T583 95T612 164T689 188L720 187Q763 185 787 185Q854 185 892 237Q929 287 929 347Q929 452 764 549T598 759Q598 837 689 942T780 1120Q780 1163 748 1197T650 1232T540 1181T471 1049Q428 895 428 403L430
200Q430 96 380 44T263 -8Z" />
<glyph unicode="&#xe0;" horiz-adv-x="1105" d="M556 497Q511 492 509 492Q441 492 387 451T332 331V313Q332 257 371 223T461 188H497Q582 188 643 241Q684 277 684 353V434Q684 499 616 499H598L592 498H580L568 497H556ZM270 1425V1440Q270 1451 298 1472T368
1493H392Q471 1493 527 1437Q536 1428 662 1248Q693 1204 693 1171V1160Q693 1124 625 1124L619 1125H614Q562 1125 488 1191Q270 1385 270 1425ZM598 837T539 837T375 794T229 751T163 781T139 853Q139 923 250 970T522 1018H547Q646 1018 733 984Q896 920 927
737Q938 672 938 494T945 279T976 195T1000 98T966 28T862 8T743 34T650 61Q643 61 550 26T377 -10Q230 -10 152 73T74 289Q74 537 406 595Q423 598 512 607T630 629Q672 646 672 705T635 801Z" />
<glyph unicode="&#xe1;" horiz-adv-x="1104" d="M451 189H485Q558 189 615 233T673 323L677 350V361L678 366V377L679 388V416L680 433Q680 493 636 493H596L591 492L562 490L533 487Q442 487 386 438T330 329V305Q330 257 364 223T451 189ZM475 1131H453Q391
1131 391 1168V1184Q391 1260 542 1430Q600 1495 686 1495H704Q741 1495 788 1467Q808 1455 808 1438V1427Q808 1387 680 1259T475 1131ZM1001 90Q1001 90 1001 89Q1001 6 858 6Q788 6 735 34T646 63Q644 63 546 27T371 -10H347Q223 -10 145 73T67 267V291Q67 542
405 598Q437 603 514 611T611 626Q670 646 670 685Q670 753 638 797T544 841T376 798T225 754T155 782T129 857Q129 923 217 964Q346 1024 492 1024Q768 1024 868 888Q905 838 921 764T937 512T942 292T974 198T1001 110V90Z" />
<glyph unicode="&#xe2;" horiz-adv-x="1105" d="M462 176H485Q557 176 618 217T680 312Q682 322 682 328L685 360V377L686 388V416Q686 476 621 476H592L586 475H575L512 470Q500 468 495 468Q427 468 367 408Q331 372 331 303V297Q331 241 369 209T462 176ZM779
1138H762Q696 1138 597 1255Q550 1311 545 1311T480 1252T385 1171T288 1149T227 1187Q227 1241 416 1446Q466 1500 538 1500L547 1499H556Q615 1499 656 1455Q853 1242 853 1182Q853 1138 779 1138ZM1004 86Q1004 3 864 3Q793 3 744 30T651 58Q649 58 552 22T376
-14H352Q240 -14 156 63T71 264V288Q71 575 503 609Q591 616 615 624Q675 643 675 705T638 803T542 840T378 797T229 754T160 783T135 856Q135 921 222 964Q342 1024 495 1024Q883 1024 929 747Q942 668 942 488T948 275T979 192T1004 107V86Z" />
<glyph unicode="&#xe3;" horiz-adv-x="1104" d="M512 191Q573 191 628 233T683 326L684 331L685 337L686 358V413Q686 486 622 486H605L599 485H575L558 484H541L524 483L501 481Q423 481 364 422Q328 386 328 327V322Q328 268 360 231T454 193L466 191H512ZM180
1228V1246Q180 1312 241 1368T381 1425L390 1424Q452 1424 551 1380T684 1336T762 1367T838 1398Q892 1398 892 1329T835 1203T714 1146H688Q639 1146 530 1194T390 1243T315 1210T236 1177Q180 1177 180 1228ZM1005 87Q1004 3 860 3Q790 3 738 31T649 60Q647 60
550 23T375 -14Q243 -14 157 62T70 288Q70 524 384 590Q416 597 502 606T614 623Q673 642 673 702T635 800T541 837T379 794T228 751T157 780T133 854Q133 922 220 961Q350 1020 493 1020H544Q659 1020 743 982T870 886T927 750T940 492T948 275T980 189T1005 107V87Z"
/>
<glyph unicode="&#xe4;" horiz-adv-x="1104" d="M451 193H485L518 197Q567 197 632 254Q670 287 670 331L671 337L672 342L675 397V447Q675 498 616 498H611L605 497L537 492Q513 488 502 488Q429 488 367 426Q331 390 331 328V316Q331 260 364 227T451 193ZM219
1350Q219 1436 339 1436H357Q469 1436 469 1349Q471 1339 471 1336L473 1313V1299Q473 1182 384 1182Q374 1180 371 1180L349 1178H326L322 1179H313Q305 1181 300 1181Q219 1181 219 1265L216 1283V1328Q219 1348 219 1350ZM873 1273L870 1238Q870 1155 762 1155H744Q675
1155 641 1183T607 1285V1320Q607 1362 633 1388T738 1415H752Q767 1412 794 1412T845 1388T870 1323Q872 1315 872 1310L874 1287V1278L873 1273ZM1007 93Q1007 93 1007 92Q1007 9 864 9Q796 9 743 37T635 65Q630 66 588 46Q412 -8 363 -8Q361 -8 358 -8Q245 -8
159 67T73 270V294Q73 442 196 525Q294 590 507 612Q593 621 617 629Q675 648 675 709T638 806T522 843Q486 843 381 800T231 757T160 786T135 860Q135 926 223 967Q350 1026 495 1026H546Q794 1026 892 862Q942 778 943 456Q943 312 950 278T982 195T1007 113V93Z"
/>
<glyph unicode="&#xe5;" horiz-adv-x="1108" d="M634 1373L632 1398Q632 1409 608 1433T564 1457L548 1460H521Q512 1457 500 1457T463 1432T438 1375V1345L442 1326Q442 1311 466 1287T515 1263L528 1261H549L552 1262H558L571 1265Q581 1265 606 1285T631 1330Q633
1336 633 1339L635 1356V1369L634 1373ZM462 191H485Q554 191 616 232T678 328L679 333L680 339L683 393V442Q683 489 632 489H605L599 488L548 484Q530 481 519 481Q432 481 383 432T334 327V310Q334 254 370 223T462 191ZM527 1570H558Q644 1570 706 1508T769
1358V1343Q769 1266 715 1200T563 1133H533Q454 1133 382 1192T309 1353V1368L310 1375Q310 1454 374 1512T527 1570ZM1009 99Q1009 99 1009 98Q1009 16 862 16Q790 16 741 44T636 73Q631 73 588 53T496 16T377 -1Q245 -1 158 73T71 276V300Q71 447 195 531Q274
584 410 607Q430 610 516 619T639 645T675 721T636 815T521 850Q486 850 379 806T228 762T158 791T133 867Q133 931 222 974Q343 1033 495 1033H546Q549 1033 552 1033Q651 1033 736 1000Q901 937 932 751Q944 680 944 500T951 286T983 203T1009 120V99Z" />
<glyph unicode="&#xe6;" horiz-adv-x="1636" d="M337 293Q337 239 374 207T467 175H484Q574 175 624 219T675 328V406Q675 477 612 477H579L573 476H562L524 472Q518 471 513 471Q442 471 391 426T339 334L337 323V293ZM1219 589Q1270 589 1270 638V654Q1270 733
1226 784T1129 835L1117 837H1077Q1061 834 1055 834Q1004 834 957 779T909 654Q905 634 905 626V621Q905 578 986 578H1030L1036 579L1194 586Q1209 589 1219 589ZM1149 -22H1114Q969 -22 826 64Q766 100 749 100T679 66T562 6T371 -20T157 55T69 257V292Q69 432
192 514Q266 564 348 580T501 605T602 625Q650 643 650 681Q650 755 610 794T500 834T346 793T224 751T158 774T129 844Q129 913 216 958Q332 1018 517 1018Q605 1018 703 980T813 941T923 982T1098 1023H1134Q1134 1023 1136 1023Q1412 1023 1500 780Q1530 696
1531 612V578Q1531 502 1483 481T1219 451T985 436Q928 420 928 352T995 229T1182 174Q1228 174 1318 199T1430 225Q1492 225 1492 155T1412 42Q1294 -22 1149 -22Z" />
<glyph unicode="&#xe7;" horiz-adv-x="1069" d="M547 -460H504Q392 -460 392 -389V-382Q392 -347 453 -347Q576 -347 576 -271Q576 -233 530 -204T484 -129T511 -53Q516 -47 527 -44Q448 -40 360 -4Q262 36 201 104T108 282T76 512V562Q76 652 116 752Q154 852
216 910Q356 1041 580 1041H583H608Q782 1041 882 983Q936 952 954 919T972 833T948 758T863 735T699 786T567 838Q469 838 423 758T376 505Q376 181 617 181Q638 181 729 211T914 242Q974 242 974 192V171Q974 71 847 6Q748 -44 595 -45Q635 -66 719 -150Q760
-191 760 -255V-263L759 -271Q759 -351 700 -405T547 -460Z" />
<glyph unicode="&#xe8;" horiz-adv-x="1090" d="M348 657V645Q348 602 458 602H464L470 603L560 604Q746 604 746 648V678Q746 754 698 809T571 865H540Q462 865 405 808T348 657ZM285 1433V1448Q285 1460 315 1480T390 1500L396 1499H402Q491 1499 543 1440Q704
1259 704 1186V1176Q704 1141 643 1141H626Q563 1141 479 1217Q285 1392 285 1433ZM599 -15H551Q462 -15 366 17Q181 79 115 258Q78 359 78 458V530Q78 641 114 740Q179 921 356 991Q443 1025 560 1025H584Q678 1025 758 994Q912 935 967 780Q996 699 996 629V607Q996
498 941 476T679 454T433 447Q357 433 357 390Q357 294 438 229Q497 182 639 182Q693 182 773 205T903 228Q958 228 958 159T861 44Q737 -15 599 -15Z" />
<glyph unicode="&#xe9;" horiz-adv-x="1090" d="M585 599H631Q690 599 715 611T740 664V698Q740 775 687 821T568 868H542Q450 868 398 801T346 666L344 654V636Q344 593 405 593L435 590H472L478 591L546 594Q573 599 585 599ZM491 1142H468Q412 1142 412 1180L413
1185V1190Q413 1259 576 1442Q628 1500 718 1500H730Q831 1500 831 1447V1441Q831 1392 643 1223Q553 1142 491 1142ZM884 236Q953 236 953 166T836 46T593 -4Q216 -4 118 265Q81 366 81 485V509Q81 879 357 988Q444 1022 558 1022H582Q674 1022 749 994Q898 939
954 803Q991 714 991 633V611Q991 506 935 483T670 459T413 445T364 392Q364 297 445 235Q504 190 642 190Q696 190 774 213T884 236Z" />
<glyph unicode="&#xea;" horiz-adv-x="1088" d="M416 602H589L595 603L691 606Q696 607 702 607Q749 607 749 650V662Q747 674 747 680Q747 759 692 807T569 855H544Q466 855 410 799T353 664L351 653V636Q351 602 416 602ZM866 1192V1185Q866 1148 785 1148L777
1149Q725 1149 660 1214L556 1318Q548 1318 509 1276T453 1218Q377 1148 321 1148H313Q243 1148 243 1187Q243 1243 432 1448Q482 1502 553 1502H562Q628 1502 670 1460Q866 1264 866 1192ZM601 -23H553Q442 -22 344 18Q248 58 192 120Q74 250 74 478V526Q74 638
107 732Q169 909 334 983Q430 1026 535 1026H584Q674 1026 756 996Q914 938 971 780Q1000 699 1000 627V605Q1000 495 945 472T669 449T412 439Q353 423 353 385Q353 285 436 223Q499 176 640 176Q689 176 777 199T907 222Q963 222 963 132Q963 79 847 28T601 -23Z"
/>
<glyph unicode="&#xeb;" horiz-adv-x="1088" d="M420 611H563Q745 611 745 654V671Q745 752 696 808T554 865L548 864Q464 864 407 807T349 656V646Q349 611 420 611ZM224 1285V1312Q224 1424 313 1424Q321 1426 326 1426L347 1428H365L383 1426L404 1423Q481
1423 481 1310V1287Q481 1175 392 1175Q384 1173 380 1173L358 1171H340L322 1173L301 1176Q224 1176 224 1285ZM741 1417H769Q880 1417 880 1339L883 1322L885 1300V1278Q885 1172 802 1172L797 1171L789 1169L766 1167H734Q709 1172 691 1172T647 1193T622 1279V1301L626
1335Q626 1417 741 1417ZM963 134Q963 80 847 29T604 -22Q233 -22 121 233Q75 338 75 455V528Q75 868 334 985Q430 1028 535 1028H585Q777 1028 892 913Q942 863 971 782T1000 629V607Q1000 496 944 474T668 451T412 441Q354 425 354 387Q354 289 437 225Q499 177
592 177T776 200T908 224Q963 224 963 134Z" />
<glyph unicode="&#xec;" horiz-adv-x="632" d="M60 1411V1433Q60 1478 133 1478H148Q230 1478 285 1407Q441 1206 441 1113V1107Q441 1077 386 1077H381Q322 1077 239 1170Q60 1371 60 1411ZM330 64H287Q199 64 165 85T131 156T149 254T175 338T183 560Q183 581
183 599Q183 750 176 782Q168 818 140 868T112 946V958Q112 1000 141 1014T262 1028L290 1030L346 1031Q418 1031 432 991T447 720T454 432T488 288T515 172V160Q515 107 460 78Q433 64 330 64Z" />
<glyph unicode="&#xed;" horiz-adv-x="632" d="M240 1114H224Q169 1114 169 1142V1157Q169 1242 336 1430Q393 1494 477 1494H483Q575 1494 575 1440V1435Q575 1390 408 1223Q299 1114 240 1114ZM247 23Q129 23 129 124Q129 163 151 218T183 316T192 547T186 766T151
846T122 924V937Q122 987 164 1000T338 1014H366Q437 1014 445 961Q452 917 452 662T456 368T486 245T512 138V127Q512 72 461 40Q434 23 345 23H247Z" />
<glyph unicode="&#xee;" horiz-adv-x="649" d="M611 1150Q611 1103 514 1103Q452 1103 342 1225Q318 1251 316 1251T290 1223T215 1148T114 1101L106 1102H98Q26 1102 26 1142V1150Q26 1209 214 1431Q253 1477 320 1477H328Q389 1477 426 1433Q611 1214 611 1150ZM522
166V144Q522 91 468 63Q445 51 350 51H335L321 52L265 51H251Q135 51 135 147Q135 187 154 235T181 326T188 566T184 783T152 856T124 935V948Q124 992 153 1006T261 1020Q317 1024 332 1024H374Q423 1024 440 996T458 900L460 872V843L462 772Q462 758 462 744L463
716V687L464 645Q464 481 469 420T498 266T522 166Z" />
<glyph unicode="&#xef;" horiz-adv-x="645" d="M136 1124H113Q76 1124 44 1147T11 1216L8 1230L6 1254V1288Q9 1303 9 1311Q9 1362 44 1387T123 1413H135Q246 1413 246 1283V1258L242 1220Q242 1182 213 1153T136 1124ZM528 1167H488Q476 1170 467 1170Q383 1170
383 1282V1305L387 1340Q387 1378 412 1399T470 1420Q482 1423 487 1423L513 1425H522Q588 1425 614 1399T641 1309V1286L637 1251Q637 1213 610 1190T528 1167ZM344 34H288Q206 34 177 58T147 131T166 224T195 316Q205 364 205 480V681L203 737Q203 789 170 844T136
931V943Q136 987 166 1001T283 1015L311 1017L353 1018H380Q428 1018 444 991T461 909L463 882L464 854Q464 840 464 826L465 783Q465 769 465 755L464 727V656Q464 427 469 382T500 257T526 147L525 135V123Q525 68 464 45Q435 34 344 34Z" />
<glyph unicode="&#xf0;" horiz-adv-x="1194" d="M361 463Q361 333 420 241T572 149H599Q688 149 743 241T798 476V526Q798 647 754 715Q696 805 589 805H570Q491 805 427 730T363 534L361 514V463ZM898 1338Q898 1337 889 1289T882 1230T943 1098T1028 898Q1080
736 1080 562V533Q1080 268 944 121Q879 51 788 13T599 -26H569Q460 -26 369 12Q189 87 126 279Q98 365 98 479Q98 592 138 688Q225 897 429 947Q490 962 634 962Q704 962 704 988Q704 1044 639 1081Q601 1103 523 1103L502 1102L461 1098Q391 1098 391 1157Q391
1177 411 1211T432 1259T386 1318T339 1409Q339 1465 436 1465Q476 1465 567 1437T706 1409L839 1425Q898 1425 898 1338Z" />
<glyph unicode="&#xf1;" horiz-adv-x="1218" d="M436 1444H462Q508 1444 610 1399T751 1353T834 1387T911 1421Q963 1421 963 1356T903 1230T773 1170H755Q706 1170 602 1216T460 1263T377 1228T297 1192Q245 1192 245 1259T308 1385T436 1444ZM419 942T444 942T558
978T709 1015H767Q833 1015 902 979T1018 857T1065 439Q1065 303 1070 272T1095 191T1114 94T1091 24T968 1T827 33T785 133Q785 135 794 237T804 506T774 739Q732 830 626 830T460 754Q416 697 416 521L418 464Q419 435 419 388T429 265T440 172Q440 78 408 47Q360
1 219 1Q147 1 127 23T106 88V115Q106 134 125 192T147 287T151 505T147 736T125 844T108 934T140 980T246 994T369 968Z" />
<glyph unicode="&#xf2;" horiz-adv-x="1154" d="M561 166H591Q694 166 744 249T794 458V534Q794 675 744 758Q682 861 570 861H539Q440 861 382 770Q336 698 336 559V515Q336 345 396 256T561 166ZM292 1431V1448Q292 1459 319 1480T393 1502H423Q435 1500 441
1500Q502 1500 548 1448Q709 1267 709 1178V1173Q709 1133 640 1133H634Q558 1133 474 1217Q292 1399 292 1431ZM1061 537V484Q1061 484 1061 481Q1061 141 792 22Q702 -18 600 -19H529Q526 -19 524 -19Q418 -19 334 22Q165 104 110 274Q78 373 78 470V523Q78 751
201 887Q264 956 358 991T553 1027H570L588 1026Q801 1026 931 896Q993 834 1027 738T1061 537Z" />
<glyph unicode="&#xf3;" horiz-adv-x="1154" d="M339 488Q339 488 341 437Q341 318 416 237Q470 179 565 179L575 180Q676 180 733 261T791 504V547L790 558L788 608Q788 721 727 793T565 866L555 865Q454 865 396 784T338 542V498L339 488ZM502 1124H491L485
1125Q424 1125 424 1160V1165L425 1171Q425 1254 586 1435Q639 1495 723 1495H742Q780 1495 809 1476T838 1445V1434Q838 1391 654 1207Q571 1124 502 1124ZM1064 538V484Q1064 372 1032 280Q966 95 809 27Q698 -21 600 -21H529Q428 -20 342 18Q172 94 113 258Q75
365 75 470V542Q75 642 109 735T197 887T343 988T535 1029H588Q814 1029 944 887Q999 827 1031 735T1064 538Z" />
<glyph unicode="&#xf4;" horiz-adv-x="1157" d="M560 168H580Q679 168 738 243T797 467V541Q797 693 733 775T564 857L554 856Q458 856 397 779T336 553V510Q336 353 391 261T560 168ZM560 1493H578Q648 1493 690 1443Q874 1226 874 1182T782 1138Q728 1138 669
1202Q577 1302 568 1302T528 1269T461 1202Q391 1137 338 1137H329Q255 1137 255 1173V1180Q255 1217 440 1436Q488 1493 560 1493ZM75 468V522Q75 751 200 887Q259 952 352 990T554 1029H572L590 1028Q822 1028 957 874Q1016 807 1041 708T1067 517V499L1066 481Q1066
368 1032 272Q963 77 781 10Q683 -26 584 -26H548Q431 -26 341 14Q173 89 113 255Q75 359 75 468Z" />
<glyph unicode="&#xf5;" horiz-adv-x="1158" d="M336 541V519Q336 365 389 283Q455 181 573 181H583L593 182Q695 182 748 265T802 495V538Q802 696 737 781T566 866H556Q336 866 336 541ZM733 1154H716Q657 1154 561 1199T427 1244T348 1209T272 1174Q214 1174
214 1229V1238Q214 1312 275 1369T410 1426H419Q467 1426 580 1382T721 1338T789 1372T861 1406Q918 1406 918 1350V1341Q918 1270 860 1212T733 1154ZM1070 537V483Q1070 255 944 118Q879 47 781 12T586 -23H550Q547 -23 545 -23Q452 -23 362 10Q182 76 115 257Q77
361 77 470V524Q78 869 346 989Q438 1030 539 1030H593Q706 1030 797 992Q973 919 1032 751Q1070 644 1070 537Z" />
<glyph unicode="&#xf6;" horiz-adv-x="1154" d="M781 535Q781 690 725 778T564 866H544L534 865Q440 865 388 784T336 542V520Q336 178 564 178L574 179Q666 179 722 250T778 440L780 461L781 503V535ZM499 1297L496 1257Q496 1178 419 1178Q403 1174 398 1174L371
1172H362L358 1173H345Q325 1176 324 1176Q247 1176 247 1259Q245 1267 245 1272L243 1294V1308L247 1343Q247 1373 268 1399T336 1425L362 1428H394Q414 1423 427 1423Q495 1423 495 1346Q498 1332 498 1324L499 1297ZM785 1416Q884 1416 884 1330Q886 1322 886
1316L888 1298V1260Q885 1245 885 1237Q885 1194 857 1171T782 1147H742Q727 1150 709 1150T664 1172T637 1242L634 1265V1298L638 1330Q638 1367 665 1390T732 1413L758 1416H785ZM1064 537V465Q1064 370 1030 275Q964 90 795 20Q693 -22 601 -22H529Q432 -22
342 17Q174 90 113 257Q75 361 75 469V523Q75 877 356 992Q443 1028 535 1028H588Q803 1028 933 898Q995 836 1029 739T1064 537Z" />
<glyph unicode="&#xf7;" horiz-adv-x="1150" d="M423 966V976L424 981V990L426 1008Q426 1107 555 1107H569Q643 1107 668 1077T694 990V952Q694 840 600 840Q590 838 586 838L567 836H539L507 840Q423 840 423 966ZM133 510Q90 510 90 571V604Q90 658 100 674T154
691H987Q1029 691 1029 640V575Q1029 534 1015 522T943 510H822L811 511H521L476 510H133ZM424 209V246Q424 306 452 334T550 363H574L593 361L615 358Q644 358 668 334T692 261Q694 253 694 247L695 228V224L694 219Q694 97 600 97Q592 95 587 95L568 93H539L535
94H525Q517 96 512 96Q472 96 448 125T424 209Z" />
<glyph unicode="&#xf8;" horiz-adv-x="1180" d="M349 503Q349 316 389 316Q409 316 492 440Q681 724 681 781L680 787V793Q680 846 581 846H552Q477 846 416 778T354 602Q351 578 351 571L349 533V503ZM790 644Q790 644 788 672Q788 680 783 680T755 631T659 456T532
264T478 176V171Q478 139 536 139H542Q641 139 702 244Q788 391 788 547Q790 561 790 567L792 600V619L790 644ZM242 -74Q167 -74 167 -15Q167 2 178 40T190 106T168 184Q107 324 107 451Q107 453 107 455V496Q108 752 270 896Q352 968 441 990T708 1012Q756 1012
831 1037T913 1062Q987 1062 987 1002Q987 988 977 954T967 898T1007 758T1048 531V511L1047 490Q1047 369 1004 261T878 86T710 -3T513 -24T356 -39Q247 -74 242 -74Z" />
<glyph unicode="&#xf9;" horiz-adv-x="1201" d="M737 1183V1168Q737 1141 672 1141L666 1142Q586 1142 409 1299Q313 1384 313 1436V1441Q313 1462 330 1473Q371 1500 396 1500H419L425 1499Q509 1499 563 1438Q737 1242 737 1183ZM464 189T569 189T724 257T774
483T760 739T746 895T795 983T934 1013T1037 947Q1041 928 1041 744V449L1042 367Q1042 318 1061 229T1081 128Q1081 60 1037 40T925 19T812 47T748 75T642 38T473 0H445Q262 0 178 161Q134 246 133 563Q133 723 130 754T106 839T86 915V940Q86 984 115 997T246
1011T375 946Q396 895 396 617T425 274Q464 189 569 189Z" />
<glyph unicode="&#xfa;" horiz-adv-x="1203" d="M517 1146H499Q438 1146 438 1180V1195Q438 1264 598 1444Q655 1508 745 1508H757Q800 1508 829 1489T858 1459V1443Q858 1397 665 1225Q576 1146 517 1146ZM776 538Q776 641 761 749T745 902T794 977T933 1009H960Q1026
1009 1041 945Q1045 928 1045 653T1047 339T1068 210T1088 120Q1088 51 1043 30T930 9T813 37T748 65T644 27T474 -11H446Q256 -10 174 152Q132 236 132 556Q132 717 128 750T103 836T82 909V934Q82 978 112 992T245 1006T376 942Q397 895 397 623T415 290Q450
175 565 175T728 244T776 538Z" />
<glyph unicode="&#xfb;" horiz-adv-x="1202" d="M899 1189Q899 1149 813 1149Q755 1149 689 1215L585 1319Q581 1319 553 1289T470 1203T357 1147H348Q274 1147 274 1182V1189Q274 1202 305 1248Q397 1387 478 1461Q521 1501 588 1501H597Q658 1501 703 1456Q899
1260 899 1189ZM748 276Q776 330 776 483T761 744T746 899T795 977T936 1009T1041 942Q1044 927 1044 660T1047 342T1068 206T1086 116Q1086 46 1043 26T930 5T814 33T751 61Q734 60 642 22T464 -16Q274 -16 193 114Q150 181 141 271T131 543T128 750T104 831T83
909V934Q83 979 112 992T217 1006Q349 1006 376 940Q397 888 397 605T425 258Q463 172 578 172T748 276Z" />
<glyph unicode="&#xfc;" horiz-adv-x="1201" d="M247 1284V1320Q253 1350 253 1369T280 1410T371 1433H389L423 1429Q504 1429 504 1323V1287L500 1256Q500 1224 476 1200T393 1175H353L323 1179Q290 1179 269 1205T247 1284ZM737 1178Q656 1178 656 1283V1320L657
1324V1333Q659 1341 659 1346Q659 1433 779 1433H797Q910 1433 910 1342L913 1315V1288L909 1257Q909 1220 884 1199T820 1178L803 1175H758Q739 1178 737 1178ZM460 176T568 176T725 246T774 487T759 750T743 873Q743 950 792 981T932 1013H958Q1024 1013 1038
947Q1041 933 1041 666T1044 347T1065 211T1083 120Q1083 48 1039 29T925 9T812 37T751 65T642 27T470 -11H441Q258 -11 172 152Q129 233 129 545Q129 552 129 559Q129 720 125 753T101 837T80 935T109 996T242 1010T374 944Q394 898 394 614T423 262Q460 176 568
176Z" />
<glyph unicode="&#xfd;" horiz-adv-x="1111" d="M498 1132H486Q424 1132 424 1167V1177L425 1182Q425 1242 599 1438Q656 1502 736 1502H747Q790 1502 818 1480T847 1444V1434Q847 1419 620 1192Q560 1132 498 1132ZM215 1005Q343 1005 382 923Q400 885 411 777T480
492T575 316Q583 316 603 344Q704 482 748 788Q768 934 775 948Q804 1011 895 1011H925Q1042 1011 1042 951Q1042 943 885 471T688 -77Q605 -236 533 -303Q428 -400 321 -400Q265 -400 215 -376T164 -304T227 -221Q238 -216 312 -196Q475 -153 475 -2Q475 52 388
188Q300 325 249 435Q58 848 58 930Q58 963 88 978Q143 1005 215 1005Z" />
<glyph unicode="&#xfe;" horiz-adv-x="1203" d="M576 152H612Q707 152 762 244T817 491V524Q817 679 763 764T618 849H609Q517 849 470 793T422 654L418 606L416 549V422L417 412L420 336Q421 326 421 317Q421 248 461 200T576 152ZM464 -225Q464 -402 272 -402Q180
-402 151 -384T121 -290L133 -219Q159 -89 159 121V558Q159 1080 155 1151T130 1285T108 1361Q108 1427 210 1427H290Q376 1427 406 1348Q416 1321 421 1175T432 1012Q444 973 489 973Q499 973 571 993T714 1014T858 982Q1006 919 1064 749Q1096 655 1096 551V521Q1096
399 1058 290Q984 77 786 17Q716 -4 619 -8T472 -28Q447 -36 447 -96L464 -225Z" />
<glyph unicode="&#xff;" horiz-adv-x="1131" d="M228 1267Q228 1401 321 1401H363Q375 1398 384 1398L420 1390Q473 1390 473 1302V1251Q468 1226 468 1204T438 1161T366 1139H315Q232 1139 232 1216L230 1225V1234L228 1258V1267ZM637 1336Q637 1410 758 1410H767Q883
1410 883 1324Q885 1316 885 1311L887 1288V1270L886 1266V1257Q881 1237 881 1217T855 1176T773 1154H738Q635 1154 635 1239Q633 1249 633 1252L631 1275V1293L632 1297L637 1336ZM90 926Q90 998 246 998Q354 998 395 934Q413 907 435 773T508 484T602 329Q609
329 629 356Q724 486 770 804Q790 938 794 947Q820 1001 906 1001T1022 988T1053 936L955 631Q774 66 697 -79Q540 -374 347 -374Q269 -374 219 -337Q199 -322 199 -309Q199 -239 262 -201Q270 -196 344 -176Q496 -136 496 15Q496 58 410 194T274 441Q90 847 90
926Z" />
<glyph unicode="&#x2013;" horiz-adv-x="1120" d="M903 662Q976 662 991 651T1006 601V570Q1006 489 970 481Q949 476 558 476H238L206 475Q145 475 129 486T113 536V557L114 567Q114 648 148 656Q171 661 570 661L871 662H903Z" />
<glyph unicode="&#x2014;" horiz-adv-x="1653" d="M87 547V579Q87 653 145 659Q176 662 833 662L1448 663H1464Q1522 663 1541 650T1561 591V575Q1561 486 1501 480Q1470 477 793 477H349L299 476H167Q125 476 106 488T87 547Z" />
<glyph unicode="&#x2018;" horiz-adv-x="547" d="M415 1073V1051Q415 1003 378 976T269 949L262 950H254Q186 950 158 988T130 1107V1152Q133 1173 133 1189Q133 1288 203 1382T338 1476H351Q401 1476 401 1424Q401 1408 370 1355T339 1272T377 1183T415 1073Z" />
<glyph unicode="&#x2019;" horiz-adv-x="538" d="M309 1466Q381 1466 402 1435T424 1347V1309Q424 1184 349 1062T197 939Q139 939 139 986V997Q139 1007 172 1064T206 1151T177 1228T148 1316L146 1330Q146 1341 146 1352Q146 1465 263 1465L278 1467H294L301 1466H309Z" />
<glyph unicode="&#x201a;" horiz-adv-x="534" d="M201 -253H187Q131 -253 131 -202V-197Q131 -187 163 -127T196 -35T181 21Q137 88 137 156T170 252T271 280H294Q363 280 390 253T418 160V130L417 122V107Q415 93 415 85Q415 -9 340 -131T201 -253Z" />
<glyph unicode="&#x201c;" horiz-adv-x="900" d="M397 1068V1046Q397 995 360 968T263 940H247Q183 940 151 972T119 1090V1135Q122 1156 122 1172Q122 1268 191 1368T334 1468H341Q393 1468 393 1412Q393 1396 362 1348T331 1264T364 1173T397 1068ZM785 1065V1051L784
1044Q784 1002 753 971T655 940H633Q617 942 611 942Q568 942 539 971T510 1055Q508 1069 508 1077L506 1114L507 1122Q507 1237 566 1347Q597 1405 643 1435T717 1466H730Q780 1466 780 1415Q780 1414 749 1347T718 1257T751 1174T785 1065Z" />
<glyph unicode="&#x201d;" horiz-adv-x="895" d="M409 1341V1282Q409 1169 335 1049T185 928H179Q128 928 128 980V985Q128 998 161 1052T194 1136T165 1220T136 1334T165 1424T267 1454H290Q353 1454 381 1429T409 1341ZM519 1338Q519 1453 642 1453H680Q748
1453 772 1423T796 1335V1290Q793 1269 793 1253Q793 1152 715 1040T579 927H565Q512 927 512 972V989Q512 995 545 1052T578 1136T549 1218T519 1338Z" />
<glyph unicode="&#x201e;" horiz-adv-x="903" d="M128 168Q128 280 256 280H287Q301 278 309 278Q405 278 405 164V127L404 119V104Q402 90 402 82Q402 -10 327 -132T187 -254T121 -200V-190Q121 -186 153 -126T186 -34T170 25T141 83T128 168ZM577 -255H570Q511
-255 511 -194Q511 -184 544 -128T577 -39T548 47T519 164T555 254T659 280H667L675 279Q746 279 773 252T800 153V130L798 108L796 78Q796 -26 703 -160Q637 -255 577 -255Z" />
<glyph unicode="&#x2022;" horiz-adv-x="938" d="M472 394H445Q343 394 271 460T198 629V673Q198 785 281 855T475 926H483L492 925Q590 925 665 862T740 681V655Q740 541 661 468T472 394Z" />
<glyph unicode="&#x2039;" horiz-adv-x="803" d="M576 1009H586Q640 1009 640 941Q640 895 513 746Q498 731 426 647T354 559T499 393T644 187V177Q644 110 583 110Q541 110 431 214Q122 507 122 560T426 902Q539 1009 576 1009Z" />
<glyph unicode="&#x203a;" horiz-adv-x="803" d="M168 183Q168 228 313 389T458 563T312 730T166 938V948Q166 1011 226 1011Q263 1011 469 805T676 560T471 317T227 111H217Q168 111 168 183Z" />
</font>
</defs>
</svg>
