<?xml version="1.0" standalone="no"?>
<!DOCTYPE svg PUBLIC "-//W3C//DTD SVG 1.1//EN" "http://www.w3.org/Graphics/SVG/1.1/DTD/svg11.dtd">
<svg xmlns="http://www.w3.org/2000/svg">
<defs >
<font id="Overpass" horiz-adv-x="547" ><font-face
    font-family="Overpass"
    units-per-em="1000"
    panose-1="0 0 5 0 0 0 0 0 0 0"
    ascent="982"
    descent="-284"
    alphabetic="0" />
<glyph unicode=" " glyph-name="space" horiz-adv-x="221" />
<glyph unicode="!" glyph-name="exclam" horiz-adv-x="270" d="M157 193L182 493L221 712H304L265 493L183 193H157ZM134 -14Q109 -14 94 3T79 44Q79 75 102 98T155 122Q180 122 196 105T212 65Q212 34 189 10T134 -14Z" />
<glyph unicode="&quot;" glyph-name="quotedbl" horiz-adv-x="388" d="M148 427L179 700H279L212 427H148ZM324 427L355 700H456L389 427H324Z" />
<glyph unicode="#" glyph-name="numbersign" horiz-adv-x="665" d="M138 0L202 197H87L114 272H225L282 441H172L195 515H304L372 700H441L380 515H510L571 700H647L587 515H702L678 441H565L509 272H619L595 197H485L422 0H345L409 197H278L214 0H138ZM301 272H432L488
441H357L301 272Z" />
<glyph unicode="$" glyph-name="dollar" horiz-adv-x="574" d="M228 -97L243 -8Q177 4 137 45T87 142L167 171Q179 124 214 97T303 69Q373 69 414 104T455 201Q455 238 434 266T382 310T314 345T246 384T194 439T173 520Q173 591 226 645T369 710L383 788H465L451
707Q507 697 540 665T579 589L499 562Q490 593 462 612T389 632Q330 632 296 605T261 533Q261 503 282 479T334 441T402 406T470 365T522 306T543 217Q543 123 485 62T327 -10L312 -97H228Z" />
<glyph unicode="%" glyph-name="percent" horiz-adv-x="846" d="M273 354Q208 354 177 396T145 498Q145 547 164 594T228 676T332 712Q396 712 428 669T460 568Q460 486 411 420T273 354ZM234 -12H149L736 712H821L234 -12ZM283 423Q330 423 358 464T386 562Q386
599 370 621T321 643Q274 643 247 602T220 504Q220 468 235 446T283 423ZM639 -12Q574 -12 542 31T510 132Q510 181 529 228T592 311T698 347Q762 347 793 305T825 203Q825 121 776 55T639 -12ZM649 58Q695 58 723 99T751 196Q751 233 735 255T687 277Q639 277
612 236T584 139Q584 103 600 81T649 58Z" />
<glyph unicode="&amp;" glyph-name="ampersand" horiz-adv-x="646" d="M522 0L468 85Q365 -12 240 -12Q165 -12 122 31T78 146Q78 232 127 287T275 395Q224 480 224 538Q224 616 279 664T411 712Q473 712 510 676T547 582Q547 520 507 473T386 380L485 221Q520
277 532 327H610Q587 230 529 153L624 0H522ZM302 551Q302 515 352 435Q467 499 467 570Q467 602 448 621T398 641Q357 641 330 616T302 551ZM267 67Q350 67 430 147L310 338Q231 293 196 255T161 167Q161 122 189 95T267 67Z" />
<glyph unicode="&apos;" glyph-name="quotesingle" horiz-adv-x="212" d="M179 700H279L212 427H148L179 700Z" />
<glyph unicode="(" glyph-name="parenleft" horiz-adv-x="338" d="M174 -130Q149 -84 132 -9T115 151Q115 491 332 712H413Q392 690 370 662T315 580T258 468T215 328T197 162Q197 68 216 -12T253 -130H174Z" />
<glyph unicode=")" glyph-name="parenright" horiz-adv-x="338" d="M36 -130Q240 108 240 408Q240 504 220 591T179 712H258Q286 666 304 587T323 420Q323 91 116 -130H36Z" />
<glyph unicode="*" glyph-name="asterisk" horiz-adv-x="521" d="M355 390L340 461L303 390L222 295L166 346L245 436L306 483L243 487L147 523L183 599L276 565L329 523L326 596L346 711H426L406 597L375 523L442 567L545 599L559 522L451 487L382 483L427 436L477
343L406 295L355 390Z" />
<glyph unicode="+" glyph-name="plus" horiz-adv-x="630" d="M415 301V108H329V301H141V384H329V578H415V384H605V301H415Z" />
<glyph unicode="," glyph-name="comma" horiz-adv-x="225" d="M65 -141L41 -127Q97 -82 112 -16Q87 -15 72 1T56 40Q56 75 78 97T131 120Q158 120 175 103T192 52Q192 -6 156 -57T65 -141Z" />
<glyph unicode="-" glyph-name="hyphen" horiz-adv-x="393" d="M130 256L145 339H368L354 256H130Z" />
<glyph unicode="." glyph-name="period" horiz-adv-x="224" d="M111 -14Q86 -14 71 3T56 44Q56 75 79 98T132 122Q157 122 173 105T189 65Q189 34 166 10T111 -14Z" />
<glyph unicode="/" glyph-name="slash" horiz-adv-x="479" d="M-25 -130L502 712H583L57 -130H-25Z" />
<glyph unicode="0" glyph-name="zero" horiz-adv-x="601" d="M308 -13Q241 -13 196 25T134 119T116 243Q116 307 125 370T158 496T214 606T300 683T416 713Q469 713 508 691T568 630T598 549T608 458Q608 378 592 300T543 150T449 32T308 -13ZM316 67Q364 67 402
98T463 173T499 273T518 372T523 450Q523 486 518 516T500 574T464 617T408 633Q359 633 321 602T261 526T225 425T206 327T201 250Q201 214 206 184T224 126T260 83T316 67Z" />
<glyph unicode="1" glyph-name="one" horiz-adv-x="336" d="M146 0L245 559H134L144 616Q255 616 296 700H355L232 0H146Z" />
<glyph unicode="2" glyph-name="two" horiz-adv-x="576" d="M65 0Q73 54 93 100T135 178T194 240T258 289T329 334Q429 395 459 422Q515 473 515 533Q515 577 485 605T399 634Q288 634 242 528L173 563Q202 629 264 670T405 712Q494 712 548 663T602 538Q602 518
600 499T588 462T574 431T552 401T528 375T498 349T467 327T431 303T397 282T359 260Q285 216 240 175T180 83H526L511 0H65Z" />
<glyph unicode="3" glyph-name="three" horiz-adv-x="566" d="M302 -12Q204 -12 148 37T76 153L154 181Q187 67 302 67Q367 67 411 106T455 215Q455 266 425 295T335 325H281L295 404H341Q405 404 446 440T487 536Q487 580 458 607T381 634Q279 634 238 537L163
565Q190 629 247 670T386 712Q470 712 521 667T573 548Q573 421 450 365Q491 348 516 307T542 215Q542 111 473 50T302 -12Z" />
<glyph unicode="4" glyph-name="four" horiz-adv-x="576" d="M357 0L388 177H56L66 230L496 700H566L488 255H583L569 177H474L443 0H357ZM402 255L454 551L186 255H402Z" />
<glyph unicode="5" glyph-name="five" horiz-adv-x="594" d="M299 -12Q220 -12 161 23T77 104L143 151Q207 67 309 67Q388 67 439 114T491 239Q491 300 459 338T361 377Q273 377 216 311L147 340L255 700H607L593 620H312L245 410Q301 455 382 455Q470 455 524
399T578 248Q578 132 503 60T299 -12Z" />
<glyph unicode="6" glyph-name="six" horiz-adv-x="566" d="M294 -12Q195 -12 141 49T87 202Q87 314 144 422T307 610T539 714L526 636Q422 609 339 541T215 380Q274 437 365 437Q447 437 498 384T550 249Q550 133 477 61T294 -12ZM298 67Q371 67 418 114T466
235Q466 290 432 324T343 358Q272 358 224 311T175 189Q175 134 207 101T298 67Z" />
<glyph unicode="7" glyph-name="seven" horiz-adv-x="486" d="M156 0Q187 176 257 328T458 623H143L156 700H573L562 636Q463 538 392 415T291 195T244 0H156Z" />
<glyph unicode="8" glyph-name="eight" horiz-adv-x="578" d="M306 -12Q208 -12 152 42T95 181Q95 259 138 317T260 395Q232 409 209 440T185 517Q185 598 244 655T401 712Q483 712 533 665T583 546Q583 487 550 443T461 381Q506 363 532 322T559 228Q559 125
489 57T306 -12ZM372 419Q426 419 462 452T499 539Q499 582 471 608T396 635Q343 635 307 602T270 515Q270 475 297 447T372 419ZM312 66Q380 66 425 109T471 226Q471 278 438 312T343 347Q274 347 228 302T182 187Q182 132 217 99T312 66Z" />
<glyph unicode="9" glyph-name="nine" horiz-adv-x="566" d="M159 -12L172 67Q272 90 355 161T471 326Q417 265 314 265Q235 265 183 316T130 451Q130 564 207 638T396 712Q491 712 542 653T594 495Q594 383 543 276T390 90T159 -12ZM334 340Q408 340 457 389T507
511Q507 565 476 599T388 633Q317 633 267 583T216 461Q216 408 248 374T334 340Z" />
<glyph unicode=":" glyph-name="colon" horiz-adv-x="224" d="M174 348Q150 348 135 365T119 406Q119 437 142 460T196 484Q221 484 236 467T252 426Q252 395 229 372T174 348ZM111 -14Q86 -14 71 3T56 44Q56 75 79 98T132 122Q157 122 173 105T189 65Q189 34
166 10T111 -14Z" />
<glyph unicode=";" glyph-name="semicolon" horiz-adv-x="224" d="M174 348Q150 348 135 365T119 406Q119 437 142 460T196 484Q221 484 236 467T252 426Q252 395 229 372T174 348ZM64 -141L40 -127Q58 -112 78 -82T107 -16Q84 -14 70 1T55 40Q55 75 77 97T130
120Q157 120 174 103T191 52Q191 -6 155 -57T64 -141Z" />
<glyph unicode="&lt;" glyph-name="less" horiz-adv-x="630" d="M610 115L146 304V380L610 571V487L249 343L610 199V115Z" />
<glyph unicode="=" glyph-name="equal" horiz-adv-x="630" d="M141 389V471H605V389H141ZM141 214V296H605V214H141Z" />
<glyph unicode="&gt;" glyph-name="greater" horiz-adv-x="630" d="M602 304L138 115V198L499 343L138 487V571L602 380V304Z" />
<glyph unicode="?" glyph-name="question" horiz-adv-x="503" d="M234 190L237 206Q246 252 268 289T315 349T367 393T417 434T453 479T468 541Q468 580 441 606T365 632Q299 632 256 593T199 483H117Q136 587 208 649T379 712Q461 712 507 667T553 553Q553 498
532 458T480 392T417 343T357 285T320 206L317 190H234ZM240 -14Q215 -14 200 3T184 44Q184 75 207 98T261 122Q286 122 301 105T317 65Q317 34 294 10T240 -14Z" />
<glyph unicode="@" glyph-name="at" horiz-adv-x="780" d="M393 -12Q262 -12 183 65T104 274Q104 395 164 497T322 656T531 713Q657 713 731 643T806 462Q806 338 740 249T588 160Q513 160 511 230Q455 153 382 153Q331 153 300 191T268 291Q268 387 331 459T483
531Q523 531 546 509T572 448L596 518H666L591 299Q580 268 580 254Q580 223 610 223Q659 223 698 295T738 455Q738 541 680 591T524 641Q372 641 276 538T179 285Q179 186 238 123T405 59Q480 59 545 77L514 2Q463 -12 393 -12ZM408 223Q461 223 499 272T538 383Q538
420 523 440T477 461Q422 461 384 412T346 300Q346 265 362 244T408 223Z" />
<glyph unicode="A" glyph-name="A" horiz-adv-x="648" d="M46 0L408 700H483L601 0H515L487 172H225L137 0H46ZM264 249H475L433 508Q432 515 429 538T424 569Q410 536 396 509L264 249Z" />
<glyph unicode="B" glyph-name="B" horiz-adv-x="626" d="M214 700H453Q548 700 592 655T636 543Q636 469 595 424T500 364Q549 351 578 310T607 214Q607 124 547 62T355 0H91L214 700ZM385 402Q466 402 508 437T551 529Q551 621 445 621H287L248 402H385ZM360
79Q446 79 483 120T520 216Q520 325 386 325H235L191 79H360Z" />
<glyph unicode="C" glyph-name="C" horiz-adv-x="616" d="M354 -12Q238 -12 177 73T116 279Q116 392 156 489T277 649T463 712Q540 712 590 676T661 588L588 551Q542 632 455 632Q377 632 318 578T232 447T204 287Q204 197 243 133T360 69Q454 69 520 158L592
124Q506 -12 354 -12Z" />
<glyph unicode="D" glyph-name="D" horiz-adv-x="657" d="M214 700H401Q470 700 522 674T605 605T649 510T664 401Q664 346 653 293T614 185T545 91T437 26T287 0H91L214 700ZM298 79Q358 79 406 99T485 152T537 228T566 313T575 400Q575 492 531 556T399 621H286L191
79H298Z" />
<glyph unicode="E" glyph-name="E" horiz-adv-x="574" d="M91 0L214 700H617L604 621H287L249 402H455L440 323H235L192 79H530L516 0H91Z" />
<glyph unicode="F" glyph-name="F" horiz-adv-x="541" d="M91 0L214 700H623L610 621H287L249 403H462L447 322H235L178 0H91Z" />
<glyph unicode="G" glyph-name="G" horiz-adv-x="656" d="M355 -12Q237 -12 177 70T116 273Q116 357 138 434T203 574T312 674T462 712Q543 712 592 676T664 589L587 548Q547 632 450 632Q373 632 315 578T229 445T202 280Q202 189 241 129T359 68Q427 68 473
110T534 226L540 261H419L433 337H646L633 266Q609 124 535 56T355 -12Z" />
<glyph unicode="H" glyph-name="H" horiz-adv-x="670" d="M91 0L214 700H301L249 404H564L616 700H703L580 0H493L550 322H235L179 0H91Z" />
<glyph unicode="I" glyph-name="I" horiz-adv-x="269" d="M91 0L214 700H301L178 0H91Z" />
<glyph unicode="J" glyph-name="J" horiz-adv-x="519" d="M235 -12Q167 -12 119 23T52 117L126 149Q157 68 234 68Q292 68 328 104T379 225L463 700H550L464 214Q424 -12 235 -12Z" />
<glyph unicode="K" glyph-name="K" horiz-adv-x="632" d="M493 0L361 382L219 232L178 0H91L214 700H301L242 364L559 700H662L425 450L584 0H493Z" />
<glyph unicode="L" glyph-name="L" horiz-adv-x="536" d="M91 0L214 700H301L193 82H522L507 0H91Z" />
<glyph unicode="M" glyph-name="M" horiz-adv-x="769" d="M377 -12L271 450Q266 468 263 491Q259 459 256 449L178 0H91L214 700H298L400 241Q408 205 410 188Q418 205 437 236L719 700H803L680 0H593L673 451Q676 472 682 495Q672 474 659 454L377 -12Z" />
<glyph unicode="N" glyph-name="N" horiz-adv-x="677" d="M91 0L214 700H295L511 195Q526 159 528 151L535 194L624 700H710L587 0H504L299 476Q276 526 272 543Q272 541 270 528T265 497T261 475L177 0H91Z" />
<glyph unicode="O" glyph-name="O" horiz-adv-x="691" d="M357 -12Q235 -12 176 69T116 273Q116 335 129 397T170 516T238 616T335 686T460 712Q522 712 569 688T644 623T685 533T699 429Q699 350 677 273T614 132T506 28T357 -12ZM357 68Q418 68 468 100T549
186T596 301T613 429Q613 513 575 572T458 632Q396 632 346 599T265 513T218 398T202 273Q202 185 240 127T357 68Z" />
<glyph unicode="P" glyph-name="P" horiz-adv-x="601" d="M91 0L214 700H469Q565 700 611 648T657 523Q657 425 594 354T408 283H228L178 0H91ZM418 359Q495 359 533 407T572 516Q572 559 547 591T464 624H287L241 359H418Z" />
<glyph unicode="Q" glyph-name="Q" horiz-adv-x="691" d="M513 -70L474 13Q419 -12 357 -12Q235 -12 176 69T116 273Q116 335 129 397T170 516T238 616T335 686T460 712Q522 712 569 688T644 623T685 533T699 429Q699 319 658 216T541 52L582 -35L513 -70ZM357
68Q399 68 439 87L402 165L472 200L505 129Q557 180 585 261T613 429Q613 513 575 572T458 632Q396 632 346 599T265 513T218 398T202 273Q202 185 240 127T357 68Z" />
<glyph unicode="R" glyph-name="R" horiz-adv-x="636" d="M658 517Q658 440 610 380T465 306L566 0H475L377 302H231L178 0H91L214 700H456Q561 700 609 646T658 517ZM419 381Q501 381 537 420T573 514Q573 559 545 590T453 621H287L245 381H419Z" />
<glyph unicode="S" glyph-name="S" horiz-adv-x="573" d="M500 561Q469 634 382 634Q323 634 289 605T254 531Q254 495 284 469T356 423T442 380T515 313T545 207Q545 104 477 46T298 -12Q216 -12 161 31T86 143L165 173Q203 68 307 68Q376 68 416 102T456 200Q456
243 426 274T354 325T270 368T197 430T167 525Q167 607 227 659T388 712Q464 712 512 677T577 591L500 561Z" />
<glyph unicode="T" glyph-name="T" horiz-adv-x="558" d="M432 620L323 0H236L345 620H161L174 700H630L617 620H432Z" />
<glyph unicode="U" glyph-name="U" horiz-adv-x="659" d="M342 -12Q245 -12 186 40T127 195Q127 232 135 279L209 700H296L220 269Q214 227 214 200Q214 68 346 68Q417 68 465 111T534 262L611 700H697L620 259Q595 114 526 51T342 -12Z" />
<glyph unicode="V" glyph-name="V" horiz-adv-x="624" d="M278 0L169 700H258L331 193Q336 163 336 139Q345 163 356 187L607 700H702L350 0H278Z" />
<glyph unicode="W" glyph-name="W" horiz-adv-x="798" d="M173 0L168 700H253V226V177Q253 178 256 186T265 205T273 225L482 700H551L594 220L597 175Q597 177 603 194T612 218L786 700H878L618 0H540L492 484L489 524Q486 514 473 485L250 0H173Z" />
<glyph unicode="X" glyph-name="X" horiz-adv-x="569" d="M39 0L304 370L177 700H266L359 446L538 700H637L392 360L530 0H442L337 283L138 0H39Z" />
<glyph unicode="Y" glyph-name="Y" horiz-adv-x="608" d="M260 0L310 281L159 700H248L363 359L602 700H695L393 275L345 0H260Z" />
<glyph unicode="Z" glyph-name="Z" horiz-adv-x="612" d="M61 0L72 63L548 622H192L205 700H672L661 636L188 79H563L549 0H61Z" />
<glyph unicode="[" glyph-name="bracketleft" horiz-adv-x="370" d="M85 -130L234 712H445L431 634H302L181 -52H310L296 -130H85Z" />
<glyph unicode="\" glyph-name="backslash" horiz-adv-x="479" d="M353 -130L125 712H205L433 -130H353Z" />
<glyph unicode="]" glyph-name="bracketright" horiz-adv-x="370" d="M28 -130L42 -52H171L291 634H162L177 712H388L239 -130H28Z" />
<glyph unicode="^" glyph-name="asciicircum" horiz-adv-x="630" d="M521 357L412 605L236 357H152L385 712H463L605 357H521Z" />
<glyph unicode="_" glyph-name="underscore" horiz-adv-x="505" d="M-24 -177L-10 -95H481L467 -177H-24Z" />
<glyph unicode="`" glyph-name="grave" horiz-adv-x="359" d="M295 576L150 732H267L376 576H295Z" />
<glyph unicode="a" glyph-name="a" horiz-adv-x="516" d="M363 0L370 42Q310 -12 226 -12Q158 -12 117 28T76 136Q76 231 138 280T290 329Q361 329 414 293L421 332Q426 357 426 372Q426 413 403 431T345 449Q267 449 183 395L172 466Q266 523 354 523Q414 523
460 490T507 382Q507 363 502 331L444 0H363ZM244 62Q321 62 386 129L401 218Q348 256 289 256Q233 256 195 228T157 144Q157 108 179 85T244 62Z" />
<glyph unicode="b" glyph-name="b" horiz-adv-x="541" d="M298 -12Q216 -12 172 46L164 0H81L202 689L292 722L248 471Q304 523 378 523Q451 523 498 467T545 318Q545 167 475 78T298 -12ZM292 67Q371 67 415 136T460 311Q460 374 433 409T355 445Q320 445 287
426T232 379L188 133Q221 67 292 67Z" />
<glyph unicode="c" glyph-name="c" horiz-adv-x="478" d="M262 -12Q183 -12 136 46T88 200Q88 344 157 433T339 523Q400 523 443 492T500 405L419 376Q403 445 330 445Q256 445 215 374T174 203Q174 139 198 103T268 67Q347 67 385 144L456 116Q428 56 378 22T262 -12Z" />
<glyph unicode="d" glyph-name="d" horiz-adv-x="542" d="M255 -12Q177 -12 133 47T88 207Q88 350 160 436T345 523Q422 523 461 473L500 689L590 722L463 0H379L386 44Q338 -12 255 -12ZM277 67Q350 67 403 136L445 379Q434 405 409 425T344 445Q265 445 220
380T175 209Q175 146 200 107T277 67Z" />
<glyph unicode="e" glyph-name="e" horiz-adv-x="513" d="M273 -12Q187 -12 136 48T85 203Q85 338 158 430T346 523Q429 523 476 475T524 330Q524 281 505 222H172V209Q172 141 201 103T283 65Q343 65 400 109L440 49Q364 -12 273 -12ZM184 296H437Q442 325 441
340Q440 397 412 422T341 447Q278 447 239 404T184 296Z" />
<glyph unicode="f" glyph-name="f" horiz-adv-x="319" d="M262 435L185 0H100L177 435H97L110 511H190L206 600Q227 713 334 713Q376 713 420 688L407 616Q371 635 340 635Q298 635 288 581L275 511H387L374 435H262Z" />
<glyph unicode="g" glyph-name="g" horiz-adv-x="542" d="M164 -142Q237 -138 283 -119T348 -75T376 -12L386 46Q336 -12 255 -12Q178 -12 133 46T88 198Q88 341 158 432T337 523Q415 523 460 466L468 511H552L461 1Q450 -61 426 -103T365 -167T287 -198T191 -210L164
-142ZM279 67Q316 67 349 88T403 141L444 376Q433 404 405 424T339 445Q262 445 218 376T173 208Q173 143 201 105T279 67Z" />
<glyph unicode="h" glyph-name="h" horiz-adv-x="544" d="M81 0L202 689L292 722L245 455Q302 523 381 523Q526 523 526 371Q526 332 517 285L467 0H384L438 305Q443 345 443 353Q443 445 357 445Q244 445 219 309L165 0H81Z" />
<glyph unicode="i" glyph-name="i" horiz-adv-x="246" d="M230 605Q211 605 198 618T185 650Q185 676 203 694T245 713Q266 713 278 700T291 668Q291 642 273 624T230 605ZM81 0L171 511H255L165 0H81Z" />
<glyph unicode="j" glyph-name="j" horiz-adv-x="252" d="M232 605Q212 605 200 618T187 650Q187 676 205 694T247 713Q268 713 280 700T293 668Q293 642 275 624T232 605ZM-36 -218L-63 -147Q7 -139 36 -116T74 -43L172 511H257L159 -45Q143 -132 97 -169T-36 -218Z" />
<glyph unicode="k" glyph-name="k" horiz-adv-x="503" d="M360 365L480 0H387L294 305L204 222L165 0H81L202 689L292 722L223 332L418 511H521L360 365Z" />
<glyph unicode="l" glyph-name="l" horiz-adv-x="255" d="M84 0L206 689L296 722L169 0H84Z" />
<glyph unicode="m" glyph-name="m" horiz-adv-x="822" d="M81 0L171 511H254L245 462Q301 523 381 523Q423 523 454 503T500 446Q564 523 659 523Q721 523 762 485T804 377Q804 355 800 335L741 0H655L711 315Q714 336 714 355Q714 400 693 422T636 445Q593 445
557 411T510 316L454 0H368L423 315Q427 334 427 355Q427 400 406 422T348 445Q304 445 268 411T221 316L165 0H81Z" />
<glyph unicode="n" glyph-name="n" horiz-adv-x="544" d="M81 0L171 511H255L246 456Q300 523 382 523Q451 523 488 482T526 363Q526 323 519 285L468 0H384L437 302Q442 329 442 352Q442 397 421 421T358 445Q308 445 269 407T219 306L165 0H81Z" />
<glyph unicode="o" glyph-name="o" horiz-adv-x="530" d="M273 -12Q180 -12 133 47T86 200Q86 281 115 353T205 474T348 523Q439 523 486 463T533 313Q533 253 516 196T468 92T386 17T273 -12ZM275 67Q356 67 402 140T448 307Q448 366 422 405T343 445Q264 445
218 372T171 205Q171 144 197 106T275 67Z" />
<glyph unicode="p" glyph-name="p" horiz-adv-x="545" d="M305 -12Q219 -12 173 50L134 -169L44 -203L170 511H254L246 466Q303 523 384 523Q458 523 503 465T548 311Q548 165 476 77T305 -12ZM300 67Q372 67 416 132T461 302Q461 368 436 406T360 445Q277 445
230 374L188 136Q227 67 300 67Z" />
<glyph unicode="q" glyph-name="q" horiz-adv-x="543" d="M252 -12Q176 -12 132 43T87 194Q87 339 158 431T340 523Q386 523 416 506T461 466L469 511H554L434 -167L344 -200L387 48Q325 -12 252 -12ZM275 67Q339 67 403 138L445 375Q433 409 406 427T343 445Q270
445 222 374T173 201Q173 137 199 102T275 67Z" />
<glyph unicode="r" glyph-name="r" horiz-adv-x="380" d="M80 0L170 511H254L242 445Q301 523 378 523Q420 523 445 498L419 417Q388 439 353 439Q312 439 271 403T215 288L164 0H80Z" />
<glyph unicode="s" glyph-name="s" horiz-adv-x="451" d="M239 -12Q181 -12 136 12T65 78L128 128Q172 62 244 62Q287 62 315 82T344 139Q344 166 321 186T265 222T199 255T143 304T120 377Q120 444 170 483T297 523Q412 523 462 444L401 398Q358 450 292 450Q252
450 227 431T201 381Q201 357 224 339T281 305T347 272T404 220T428 141Q428 71 377 30T239 -12Z" />
<glyph unicode="t" glyph-name="t" horiz-adv-x="358" d="M213 -12Q170 -12 147 13T124 80Q124 98 129 125L183 435H100L114 511H196L228 689L318 722L281 511H401L388 435H268L216 144Q212 114 212 106Q212 66 252 66Q286 66 330 91L308 9Q267 -12 213 -12Z" />
<glyph unicode="u" glyph-name="u" horiz-adv-x="544" d="M380 0L389 49Q340 -12 253 -12Q184 -12 145 28T105 146Q105 169 112 213L164 511H249L195 207Q190 183 190 161Q190 113 213 90T276 67Q392 67 416 200L470 511H555L465 0H380Z" />
<glyph unicode="v" glyph-name="v" horiz-adv-x="495" d="M213 0L123 511H207L262 174Q263 167 264 155T267 135T269 124L294 174L467 511H554L287 0H213Z" />
<glyph unicode="w" glyph-name="w" horiz-adv-x="686" d="M164 0L123 511H204L223 159Q224 142 224 113L244 159L398 511H465L500 159L504 113Q505 115 511 132T521 159L659 511H743L533 0H453L414 320Q409 360 409 369Q399 344 387 318L242 0H164Z" />
<glyph unicode="x" glyph-name="x" horiz-adv-x="502" d="M36 0L250 265L138 511H230L309 337L450 511H543L343 264L464 0H372L284 192L129 0H36Z" />
<glyph unicode="y" glyph-name="y" horiz-adv-x="503" d="M100 -194L210 15L117 511H203L261 159Q268 121 268 120Q268 124 288 159L474 511H565L189 -194H100Z" />
<glyph unicode="z" glyph-name="z" horiz-adv-x="486" d="M62 0L73 58L383 435H158L171 511H510L501 455L188 76H433L419 0H62Z" />
<glyph unicode="{" glyph-name="braceleft" horiz-adv-x="367" d="M300 -130Q146 -116 146 41Q146 70 152 105L161 156Q163 176 163 185Q163 217 150 236T113 255H103L116 328H126Q155 328 177 355T208 428L224 518Q240 610 300 661T449 712L435 638Q328 634 303
499L290 422Q277 350 246 321T163 291L162 287Q245 281 245 186Q245 164 239 134L230 82Q225 55 225 40Q225 -54 313 -57L300 -130Z" />
<glyph unicode="|" glyph-name="bar" horiz-adv-x="270" d="M153 -378V1062H240V-378H153Z" />
<glyph unicode="}" glyph-name="braceright" horiz-adv-x="367" d="M21 -130L34 -56Q141 -52 166 84L178 152Q190 226 222 259T308 292L309 296Q225 313 225 397Q225 415 230 447L239 499Q244 526 244 543Q244 635 156 639L170 712Q324 704 324 542Q324 515 317
468L310 430Q306 404 306 385Q306 327 356 327H366L353 255H344Q314 255 292 228T262 156L246 68Q210 -130 21 -130Z" />
<glyph unicode="~" glyph-name="asciitilde" horiz-adv-x="630" d="M468 271Q426 271 363 301T272 332Q243 332 223 316T196 271H143Q150 333 185 373T284 414Q327 414 390 384T480 353Q509 353 529 370T555 414H608Q601 352 566 312T468 271Z" />
<glyph unicode="&#xa0;" glyph-name="uni00A0" horiz-adv-x="221" />
<glyph unicode="&#xa1;" glyph-name="exclamdown" horiz-adv-x="270" d="M204 388Q179 388 164 405T148 445Q148 476 171 499T225 523Q250 523 265 506T281 466Q281 435 258 412T204 388ZM57 -200L95 17L176 317H202L177 17L140 -200H57Z" />
<glyph unicode="&#xa2;" glyph-name="cent" horiz-adv-x="503" d="M215 -12L233 88Q176 104 146 156T115 288Q115 417 171 503T325 611L343 712H424L405 614Q509 598 528 498L444 468Q430 534 365 534Q287 534 244 468T201 297Q201 236 225 201T298 165Q333 165
362 184T406 241L481 214Q429 95 313 84L296 -12H215Z" />
<glyph unicode="&#xa3;" glyph-name="sterling" horiz-adv-x="582" d="M89 0L105 90Q156 112 189 172T226 292H136L149 365H222Q201 438 201 475Q201 576 268 644T460 712Q570 712 644 645L599 567Q535 631 446 631Q370 631 330 589T289 484Q289 456 300 416T312
365H471L458 292H315Q304 181 189 81H555L541 0H89Z" />
<glyph unicode="&#xa4;" glyph-name="currency" horiz-adv-x="617" d="M404 86T323 86T194 128L119 61L70 125L148 195Q134 229 134 281Q134 388 197 472L143 541L212 604L265 538Q333 581 410 581Q490 581 539 538L614 604L664 538L588 471Q600 440 600 385Q600
276 536 192L591 122L522 61L468 129Q404 86 323 86ZM338 168Q414 168 464 224T515 365Q515 424 483 461T396 499Q322 499 271 442T219 301Q219 243 251 206T338 168Z" />
<glyph unicode="&#xa5;" glyph-name="yen" horiz-adv-x="551" d="M374 318H514L502 248H360L349 183H490L479 113H337L317 0H235L255 113H104L116 183H267L278 248H128L140 318H288L150 700H241L343 395L558 700H647L374 318Z" />
<glyph unicode="&#xa6;" glyph-name="brokenbar" horiz-adv-x="270" d="M158 366V825H245V366H158ZM158 -225V234H245V-225H158Z" />
<glyph unicode="&#xa7;" glyph-name="section" horiz-adv-x="521" d="M248 -120Q179 -120 128 -94T55 -27L126 26Q141 2 173 -18T256 -38Q384 -38 384 53Q384 70 376 84T349 112T318 132T276 152T239 169Q211 183 196 192T161 217T134 252T125 297Q125 343 151
377T217 427Q168 461 168 534Q168 617 229 664T380 712Q445 712 488 688T553 630L481 579Q446 628 369 628Q317 628 287 608T256 550Q256 534 265 520T295 493T335 472T388 448Q418 435 436 425T474 399T503 361T513 309Q513 214 434 175Q474 138 474 73Q474 -16
413 -68T248 -120ZM370 214Q426 235 426 286Q426 300 419 312T402 333T371 353T337 369T295 386Q258 380 237 361T215 315Q215 305 219 296T232 278T251 264T277 251T305 239T337 227T370 214Z" />
<glyph unicode="&#xa8;" glyph-name="dieresis" horiz-adv-x="359" d="M239 605Q220 605 208 618T195 650Q195 675 213 693T256 712Q276 712 288 699T300 667Q300 642 282 624T239 605ZM405 605Q386 605 373 618T360 650Q360 676 379 694T422 712Q441 712 453
699T466 667Q466 642 448 624T405 605Z" />
<glyph unicode="&#xa9;" glyph-name="copyright" horiz-adv-x="835" d="M630 -12T476 -12T218 92T114 350T218 608T476 712T734 608T838 350T734 92ZM476 50Q603 50 686 136T770 350Q770 479 687 564T476 649Q348 649 264 564T179 350T263 136T476 50ZM481 137Q393
137 346 195T299 354Q299 451 348 511T487 572Q594 572 636 466L566 436Q541 499 480 499Q376 499 376 354Q376 282 400 245T482 208Q555 208 572 279L638 253Q620 197 579 167T481 137Z" />
<glyph unicode="&#xaa;" glyph-name="ordfeminine" horiz-adv-x="442" d="M353 283L359 314Q308 273 243 273Q189 273 154 305T118 392Q118 470 173 512T300 555Q352 555 398 533L400 547Q404 574 404 584Q404 643 327 643Q262 643 207 605L199 671Q259 712 349
712Q402 712 441 686T480 600Q480 582 473 546L427 283H353ZM262 340Q317 340 371 384L385 464Q344 488 297 488Q256 488 226 467T195 402Q195 374 213 357T262 340Z" />
<glyph unicode="&#xab;" glyph-name="guillemotleft" horiz-adv-x="503" d="M188 0L87 256L278 511H367L176 252L276 0H188ZM385 0L284 256L475 511H566L374 252L475 0H385Z" />
<glyph unicode="&#xac;" glyph-name="logicalnot" horiz-adv-x="630" d="M517 172V386H140V467H604V172H517Z" />
<glyph unicode="&#xad;" glyph-name="uni00AD" horiz-adv-x="393" d="M130 256L145 339H368L354 256H130Z" />
<glyph unicode="&#xae;" glyph-name="registered" horiz-adv-x="835" d="M629 -12T475 -12T217 92T113 350T217 608T475 712T733 608T837 350T733 92ZM348 51T475 51T685 136T769 350T686 563T475 649T264 564T180 350T264 137ZM328 138V561H514Q579 561 610 524T642
437Q642 394 617 359T545 313L644 138H564L474 309H397V138H328ZM397 372H515Q543 372 557 390T571 436Q571 460 558 477T515 495H397V372Z" />
<glyph unicode="&#xaf;" glyph-name="overscore" horiz-adv-x="359" d="M164 603L177 676H494L481 603H164Z" />
<glyph unicode="&#xb0;" glyph-name="degree" horiz-adv-x="403" d="M288 447Q223 447 183 489T142 597Q142 679 200 734T336 790Q401 790 441 748T481 641Q481 560 423 504T288 447ZM298 529Q338 529 367 559T396 635Q396 668 377 689T327 710Q287 710 257 680T226
605Q226 572 246 551T298 529Z" />
<glyph unicode="&#xb1;" glyph-name="plusminus" horiz-adv-x="630" d="M418 364V202H331V364H143V446H331V608H418V446H607V364H418ZM143 0V82H607V0H143Z" />
<glyph unicode="&#xb2;" glyph-name="uni00B2" horiz-adv-x="358" d="M114 444Q128 520 168 563T293 659Q333 683 352 705T371 758Q371 779 357 794T315 810Q256 810 230 745L172 767Q217 873 324 873Q380 873 412 842T444 762Q444 709 415 674T308 595Q235 553
210 509H399L387 444H114Z" />
<glyph unicode="&#xb3;" glyph-name="uni00B3" horiz-adv-x="353" d="M193 567Q205 497 265 497Q302 497 323 518T344 572Q344 596 330 612T292 629H258L269 690H293Q326 690 344 711T362 762Q362 782 350 796T313 811Q265 811 232 754L175 776Q200 819 241 846T330
873Q378 873 407 847T436 778Q436 742 416 712T364 667Q388 658 403 636T418 582Q418 517 373 476T257 435Q147 435 125 543L193 567Z" />
<glyph unicode="&#xb4;" glyph-name="acute" horiz-adv-x="359" d="M320 576H238L402 732H519L320 576Z" />
<glyph unicode="&#xb5;" glyph-name="uni00B5" horiz-adv-x="544" d="M382 0L392 56Q342 -12 260 -12Q191 -12 168 41L131 -169L41 -203L167 511H251L197 208Q191 172 191 152Q191 116 212 92T279 67Q328 67 366 100T417 203L472 511H555L465 0H382Z" />
<glyph unicode="&#xb6;" glyph-name="paragraph" horiz-adv-x="615" d="M235 -200L319 277Q214 278 164 331T114 458Q114 501 128 541T170 618T251 677T373 700H649L511 -89L421 -128L552 616H461L324 -161L235 -200Z" />
<glyph unicode="&#xb7;" glyph-name="middot" horiz-adv-x="224" d="M162 281Q138 281 123 298T108 339Q108 370 131 393T184 417Q209 417 224 400T240 359Q240 328 217 305T162 281Z" />
<glyph unicode="&#xb8;" glyph-name="cedilla" horiz-adv-x="359" d="M200 -237T143 -237T57 -198L107 -167Q119 -183 143 -183Q166 -183 183 -169T200 -132Q200 -113 187 -102T151 -90Q127 -90 114 -97L101 -77L183 10H230L182 -53Q228 -53 249 -73T271 -126Q271
-176 236 -206Z" />
<glyph unicode="&#xb9;" glyph-name="uni00B9" horiz-adv-x="201" d="M147 444L203 765H157L167 818Q215 818 241 866H291L216 444H147Z" />
<glyph unicode="&#xba;" glyph-name="ordmasculine" horiz-adv-x="452" d="M275 272Q205 272 165 318T125 443Q125 565 187 638T351 712Q421 712 461 666T502 540Q502 418 440 345T275 272ZM287 347Q353 347 388 397T424 531Q424 582 402 610T339 638Q278 638
240 588T202 456Q202 405 224 376T287 347Z" />
<glyph unicode="&#xbb;" glyph-name="guillemotright" horiz-adv-x="503" d="M25 0L218 258L118 511H207L308 256L117 0H25ZM223 0L415 258L316 511H405L506 256L315 0H223Z" />
<glyph unicode="&#xbc;" glyph-name="onequarter" horiz-adv-x="688" d="M18 -12L605 712H685L98 -12H18ZM126 283L183 604H137L146 657Q194 657 219 705H270L196 283H126ZM518 0L536 101H336L343 142L604 423H661L616 165H667L655 101H604L587 0H518ZM547 165L575
323L434 165H547Z" />
<glyph unicode="&#xbd;" glyph-name="onehalf" horiz-adv-x="735" d="M18 -12L605 712H685L98 -12H18ZM126 283L183 604H137L146 657Q194 657 219 705H270L196 283H126ZM456 323Q501 429 608 429Q663 429 695 399T728 320Q728 262 697 228T588 150Q517 109 491
65H683L671 0H398Q412 77 454 122T577 215Q618 240 636 261T655 315Q655 335 641 350T599 366Q540 366 513 301L456 323Z" />
<glyph unicode="&#xbe;" glyph-name="threequarters" horiz-adv-x="825" d="M224 272Q171 272 138 301T96 380L164 404Q178 334 236 334Q272 334 293 356T315 412Q315 435 302 451T263 468H229L240 529H264Q298 529 316 551T334 601Q334 621 321 635T285 650Q236
650 203 593L147 615Q171 658 213 685T302 712Q350 712 379 686T408 617Q408 581 388 551T335 506Q389 486 389 423Q389 356 343 314T224 272ZM154 -12L741 712H822L235 -12H154ZM655 0L673 101H473L480 142L741 423H798L753 165H804L792 101H741L724 0H655ZM684
165L712 323L571 165H684Z" />
<glyph unicode="&#xbf;" glyph-name="questiondown" horiz-adv-x="503" d="M334 388Q309 388 294 405T278 445Q278 476 301 499T355 523Q380 523 395 507T411 466Q411 435 388 412T334 388ZM216 -200Q134 -200 88 -155T42 -41Q42 14 63 54T115 120T178 169T238
227T275 306L278 322H361L358 306Q349 260 327 223T280 163T228 119T178 78T142 33T127 -29Q127 -69 153 -94T230 -120Q296 -120 339 -81T396 29H478Q460 -75 388 -137T216 -200Z" />
<glyph unicode="&#xc0;" glyph-name="Agrave" horiz-adv-x="648" d="M423 738L278 894H395L504 738H423ZM46 0L408 700H483L601 0H515L487 172H225L137 0H46ZM264 249H475L433 508Q432 515 429 538T424 569Q410 536 396 509L264 249Z" />
<glyph unicode="&#xc1;" glyph-name="Aacute" horiz-adv-x="648" d="M478 738H396L560 894H677L478 738ZM46 0L408 700H483L601 0H515L487 172H225L137 0H46ZM264 249H475L433 508Q432 515 429 538T424 569Q410 536 396 509L264 249Z" />
<glyph unicode="&#xc2;" glyph-name="Acircumflex" horiz-adv-x="648" d="M556 738L468 831L348 738H273L435 894H523L632 738H556ZM46 0L408 700H483L601 0H515L487 172H225L137 0H46ZM264 249H475L433 508Q432 515 429 538T424 569Q410 536 396 509L264 249Z" />
<glyph unicode="&#xc3;" glyph-name="Atilde" horiz-adv-x="648" d="M531 759Q494 759 448 783T381 808Q362 808 348 797T328 763H286Q305 880 401 880Q437 880 482 856T550 831Q592 831 604 876H646Q625 759 531 759ZM46 0L408 700H483L601 0H515L487 172H225L137
0H46ZM264 249H475L433 508Q432 515 429 538T424 569Q410 536 396 509L264 249Z" />
<glyph unicode="&#xc4;" glyph-name="Adieresis" horiz-adv-x="648" d="M377 767Q358 767 346 780T333 812Q333 837 351 855T394 874Q414 874 426 861T438 829Q438 804 420 786T377 767ZM543 767Q524 767 511 780T498 812Q498 838 517 856T560 874Q579 874 591
861T604 829Q604 804 586 786T543 767ZM46 0L408 700H483L601 0H515L487 172H225L137 0H46ZM264 249H475L433 508Q432 515 429 538T424 569Q410 536 396 509L264 249Z" />
<glyph unicode="&#xc5;" glyph-name="Aring" horiz-adv-x="648" d="M493 643L601 0H515L487 172H225L137 0H46L378 644Q337 674 337 726Q337 780 378 819T473 859Q514 859 541 831T568 761Q568 725 547 693T493 643ZM462 798Q438 798 420 780T402 734Q402 714
413 701T442 688Q467 688 485 707T504 754Q504 774 493 786T462 798ZM264 249H475L433 508Q432 515 429 538T424 569Q410 536 396 509L264 249Z" />
<glyph unicode="&#xc6;" glyph-name="AE" horiz-adv-x="839" d="M-16 0L498 700H882L869 621H603L564 402H728L713 323H550L508 79H795L781 0H408L438 172H208L84 0H-16ZM265 249H452L513 599Q508 591 475 542L265 249Z" />
<glyph unicode="&#xc7;" glyph-name="Ccedilla" horiz-adv-x="616" d="M288 -237Q230 -237 204 -204L257 -171Q263 -183 289 -183Q313 -183 331 -168T349 -130Q349 -114 335 -102T300 -90Q277 -90 263 -97L250 -77L314 -10Q215 0 166 78T116 269Q116 383 154 481T273
646T466 712Q613 712 661 588L581 548Q562 587 534 610T456 633Q394 633 345 600T265 513T220 399T204 278Q204 189 242 129T355 69Q456 69 519 157L589 127Q508 -3 362 -11L332 -53Q377 -53 399 -73T421 -123Q421 -171 383 -204T288 -237Z" />
<glyph unicode="&#xc8;" glyph-name="Egrave" horiz-adv-x="574" d="M394 738L249 894H366L475 738H394ZM91 0L214 700H617L604 621H287L249 402H455L440 323H235L192 79H530L516 0H91Z" />
<glyph unicode="&#xc9;" glyph-name="Eacute" horiz-adv-x="574" d="M449 738H367L531 894H648L449 738ZM91 0L214 700H617L604 621H287L249 402H455L440 323H235L192 79H530L516 0H91Z" />
<glyph unicode="&#xca;" glyph-name="Ecircumflex" horiz-adv-x="574" d="M527 738L439 831L319 738H244L406 894H494L603 738H527ZM91 0L214 700H617L604 621H287L249 402H455L440 323H235L192 79H530L516 0H91Z" />
<glyph unicode="&#xcb;" glyph-name="Edieresis" horiz-adv-x="574" d="M348 767Q329 767 317 780T304 812Q304 837 322 855T365 874Q385 874 397 861T409 829Q409 804 391 786T348 767ZM514 767Q495 767 482 780T469 812Q469 838 488 856T531 874Q550 874 562
861T575 829Q575 804 557 786T514 767ZM91 0L214 700H617L604 621H287L249 402H455L440 323H235L192 79H530L516 0H91Z" />
<glyph unicode="&#xcc;" glyph-name="Igrave" horiz-adv-x="269" d="M236 738L91 894H208L317 738H236ZM91 0L214 700H301L178 0H91Z" />
<glyph unicode="&#xcd;" glyph-name="Iacute" horiz-adv-x="269" d="M291 738H209L373 894H490L291 738ZM91 0L214 700H301L178 0H91Z" />
<glyph unicode="&#xce;" glyph-name="Icircumflex" horiz-adv-x="269" d="M369 738L281 831L161 738H86L248 894H336L445 738H369ZM91 0L214 700H301L178 0H91Z" />
<glyph unicode="&#xcf;" glyph-name="Idieresis" horiz-adv-x="269" d="M190 767Q171 767 159 780T146 812Q146 837 164 855T207 874Q227 874 239 861T251 829Q251 804 233 786T190 767ZM356 767Q337 767 324 780T311 812Q311 838 330 856T373 874Q392 874 404
861T417 829Q417 804 399 786T356 767ZM91 0L214 700H301L178 0H91Z" />
<glyph unicode="&#xd0;" glyph-name="Eth" horiz-adv-x="658" d="M92 0L147 310H83L97 388H161L215 700H402Q469 700 520 676T603 609T649 514T665 401Q665 349 655 297T617 190T549 94T440 27T288 0H92ZM192 79H299Q374 79 430 109T517 189T561 292T576 400Q576
493 532 557T400 621H287L246 388H392L378 310H233L192 79Z" />
<glyph unicode="&#xd1;" glyph-name="Ntilde" horiz-adv-x="677" d="M543 756Q507 756 461 780T393 805Q374 805 360 794T340 760H298Q317 877 413 877Q450 877 495 853T562 828Q604 828 616 873H658Q637 756 543 756ZM91 0L214 700H295L511 195Q526 159 528 151L535
194L624 700H710L587 0H504L299 476Q276 526 272 543Q272 541 270 528T265 497T261 475L177 0H91Z" />
<glyph unicode="&#xd2;" glyph-name="Ograve" horiz-adv-x="691" d="M436 738L291 894H408L517 738H436ZM357 -12Q235 -12 176 69T116 273Q116 335 129 397T170 516T238 616T335 686T460 712Q522 712 569 688T644 623T685 533T699 429Q699 350 677 273T614 132T506
28T357 -12ZM357 68Q418 68 468 100T549 186T596 301T613 429Q613 513 575 572T458 632Q396 632 346 599T265 513T218 398T202 273Q202 185 240 127T357 68Z" />
<glyph unicode="&#xd3;" glyph-name="Oacute" horiz-adv-x="691" d="M491 738H409L573 894H690L491 738ZM357 -12Q235 -12 176 69T116 273Q116 335 129 397T170 516T238 616T335 686T460 712Q522 712 569 688T644 623T685 533T699 429Q699 350 677 273T614 132T506
28T357 -12ZM357 68Q418 68 468 100T549 186T596 301T613 429Q613 513 575 572T458 632Q396 632 346 599T265 513T218 398T202 273Q202 185 240 127T357 68Z" />
<glyph unicode="&#xd4;" glyph-name="Ocircumflex" horiz-adv-x="691" d="M569 738L481 831L361 738H286L448 894H536L645 738H569ZM357 -12Q235 -12 176 69T116 273Q116 335 129 397T170 516T238 616T335 686T460 712Q522 712 569 688T644 623T685 533T699 429Q699
350 677 273T614 132T506 28T357 -12ZM357 68Q418 68 468 100T549 186T596 301T613 429Q613 513 575 572T458 632Q396 632 346 599T265 513T218 398T202 273Q202 185 240 127T357 68Z" />
<glyph unicode="&#xd5;" glyph-name="Otilde" horiz-adv-x="691" d="M544 759Q507 759 462 783T394 808Q352 808 341 763H299Q318 880 414 880Q450 880 496 856T563 831Q605 831 617 876H659Q638 759 544 759ZM357 -12Q235 -12 176 69T116 273Q116 335 129 397T170
516T238 616T335 686T460 712Q522 712 569 688T644 623T685 533T699 429Q699 350 677 273T614 132T506 28T357 -12ZM357 68Q418 68 468 100T549 186T596 301T613 429Q613 513 575 572T458 632Q396 632 346 599T265 513T218 398T202 273Q202 185 240 127T357 68Z"
/>
<glyph unicode="&#xd6;" glyph-name="Odieresis" horiz-adv-x="691" d="M390 767Q371 767 359 780T346 812Q346 837 364 855T407 874Q427 874 439 861T451 829Q451 804 433 786T390 767ZM556 767Q537 767 524 780T511 812Q511 838 530 856T573 874Q592 874 604
861T617 829Q617 804 599 786T556 767ZM357 -12Q235 -12 176 69T116 273Q116 335 129 397T170 516T238 616T335 686T460 712Q522 712 569 688T644 623T685 533T699 429Q699 350 677 273T614 132T506 28T357 -12ZM357 68Q418 68 468 100T549 186T596 301T613 429Q613
513 575 572T458 632Q396 632 346 599T265 513T218 398T202 273Q202 185 240 127T357 68Z" />
<glyph unicode="&#xd7;" glyph-name="multiply" horiz-adv-x="630" d="M376 283L212 117L149 179L316 344L150 508L210 566L374 402L538 567L599 506L434 342L598 177L540 118L376 283Z" />
<glyph unicode="&#xd8;" glyph-name="Oslash" horiz-adv-x="691" d="M68 -12L154 93Q116 159 116 272Q116 334 128 395T169 514T237 615T336 685T465 712Q561 712 617 659L661 712H747L660 607Q699 539 699 428Q699 366 686 305T646 186T578 85T480 15T351 -12Q255
-12 195 40L153 -12H68ZM216 169L561 591Q522 632 454 632Q392 632 343 599T263 514T218 400T202 275Q202 208 216 169ZM359 68Q440 68 500 124T586 259T613 424Q613 485 597 530L251 109Q290 68 359 68Z" />
<glyph unicode="&#xd9;" glyph-name="Ugrave" horiz-adv-x="659" d="M424 735L279 891H396L505 735H424ZM342 -12Q245 -12 186 40T127 195Q127 232 135 279L209 700H296L220 269Q214 227 214 200Q214 68 346 68Q417 68 465 111T534 262L611 700H697L620 259Q595
114 526 51T342 -12Z" />
<glyph unicode="&#xda;" glyph-name="Uacute" horiz-adv-x="659" d="M479 735H397L561 891H678L479 735ZM342 -12Q245 -12 186 40T127 195Q127 232 135 279L209 700H296L220 269Q214 227 214 200Q214 68 346 68Q417 68 465 111T534 262L611 700H697L620 259Q595
114 526 51T342 -12Z" />
<glyph unicode="&#xdb;" glyph-name="Ucircumflex" horiz-adv-x="659" d="M557 735L469 828L349 735H274L436 891H524L633 735H557ZM342 -12Q245 -12 186 40T127 195Q127 232 135 279L209 700H296L220 269Q214 227 214 200Q214 68 346 68Q417 68 465 111T534 262L611
700H697L620 259Q595 114 526 51T342 -12Z" />
<glyph unicode="&#xdc;" glyph-name="Udieresis" horiz-adv-x="659" d="M378 764Q359 764 347 777T334 809Q334 834 352 852T395 871Q415 871 427 858T439 826Q439 801 421 783T378 764ZM544 764Q525 764 512 777T499 809Q499 835 518 853T561 871Q580 871 592
858T605 826Q605 801 587 783T544 764ZM342 -12Q245 -12 186 40T127 195Q127 232 135 279L209 700H296L220 269Q214 227 214 200Q214 68 346 68Q417 68 465 111T534 262L611 700H697L620 259Q595 114 526 51T342 -12Z" />
<glyph unicode="&#xdd;" glyph-name="Yacute" horiz-adv-x="608" d="M456 735H374L538 891H655L456 735ZM260 0L310 281L159 700H248L363 359L602 700H695L393 275L345 0H260Z" />
<glyph unicode="&#xde;" glyph-name="Thorn" horiz-adv-x="601" d="M92 0L215 700H300L277 565H449Q545 565 589 515T634 391Q634 347 619 305T573 226T493 168T379 146H203L177 0H92ZM396 226Q473 226 511 272T549 377Q549 422 524 454T442 486H263L217 226H396Z" />
<glyph unicode="&#xdf;" glyph-name="germandbls" horiz-adv-x="544" d="M36 -203L156 478Q177 597 244 654T392 712Q467 712 512 670T558 558Q558 500 527 452T437 384Q485 366 510 327T536 235Q536 129 466 59T295 -12Q241 -12 213 6L261 70Q282 63 305 63Q360
63 405 107T451 229Q451 278 421 310T327 342H315L328 417H340Q400 417 437 450T474 547Q474 588 450 612T380 637Q329 637 291 598T239 479L126 -160L36 -203Z" />
<glyph unicode="&#xe0;" glyph-name="agrave" horiz-adv-x="516" d="M333 575L188 731H305L414 575H333ZM363 0L370 42Q310 -12 226 -12Q158 -12 117 28T76 136Q76 231 138 280T290 329Q361 329 414 293L421 332Q426 357 426 372Q426 413 403 431T345 449Q267
449 183 395L172 466Q266 523 354 523Q414 523 460 490T507 382Q507 363 502 331L444 0H363ZM244 62Q321 62 386 129L401 218Q348 256 289 256Q233 256 195 228T157 144Q157 108 179 85T244 62Z" />
<glyph unicode="&#xe1;" glyph-name="aacute" horiz-adv-x="516" d="M388 575H306L470 731H587L388 575ZM363 0L370 42Q310 -12 226 -12Q158 -12 117 28T76 136Q76 231 138 280T290 329Q361 329 414 293L421 332Q426 357 426 372Q426 413 403 431T345 449Q267
449 183 395L172 466Q266 523 354 523Q414 523 460 490T507 382Q507 363 502 331L444 0H363ZM244 62Q321 62 386 129L401 218Q348 256 289 256Q233 256 195 228T157 144Q157 108 179 85T244 62Z" />
<glyph unicode="&#xe2;" glyph-name="acircumflex" horiz-adv-x="516" d="M466 575L378 668L258 575H183L345 731H433L542 575H466ZM363 0L370 42Q310 -12 226 -12Q158 -12 117 28T76 136Q76 231 138 280T290 329Q361 329 414 293L421 332Q426 357 426 372Q426
413 403 431T345 449Q267 449 183 395L172 466Q266 523 354 523Q414 523 460 490T507 382Q507 363 502 331L444 0H363ZM244 62Q321 62 386 129L401 218Q348 256 289 256Q233 256 195 228T157 144Q157 108 179 85T244 62Z" />
<glyph unicode="&#xe3;" glyph-name="atilde" horiz-adv-x="516" d="M441 596Q404 596 358 620T291 645Q272 645 258 634T238 600H196Q215 717 311 717Q348 717 393 693T460 668Q502 668 514 713H556Q535 596 441 596ZM363 0L370 42Q310 -12 226 -12Q158 -12 117
28T76 136Q76 231 138 280T290 329Q361 329 414 293L421 332Q426 357 426 372Q426 413 403 431T345 449Q267 449 183 395L172 466Q266 523 354 523Q414 523 460 490T507 382Q507 363 502 331L444 0H363ZM244 62Q321 62 386 129L401 218Q348 256 289 256Q233 256
195 228T157 144Q157 108 179 85T244 62Z" />
<glyph unicode="&#xe4;" glyph-name="adieresis" horiz-adv-x="516" d="M287 604Q268 604 256 617T243 649Q243 674 261 692T304 711Q324 711 336 698T348 666Q348 641 330 623T287 604ZM453 604Q434 604 421 617T408 649Q408 675 427 693T470 711Q489 711 501
698T514 666Q514 641 496 623T453 604ZM363 0L370 42Q310 -12 226 -12Q158 -12 117 28T76 136Q76 231 138 280T290 329Q361 329 414 293L421 332Q426 357 426 372Q426 413 403 431T345 449Q267 449 183 395L172 466Q266 523 354 523Q414 523 460 490T507 382Q507
363 502 331L444 0H363ZM244 62Q321 62 386 129L401 218Q348 256 289 256Q233 256 195 228T157 144Q157 108 179 85T244 62Z" />
<glyph unicode="&#xe5;" glyph-name="aring" horiz-adv-x="516" d="M362 570Q321 570 294 599T267 670Q267 724 308 763T404 803Q444 803 471 775T498 705Q498 651 456 611T362 570ZM373 632Q398 632 416 651T434 698Q434 718 423 730T393 742Q369 742 351 724T332
678Q332 658 343 645T373 632ZM363 0L370 42Q310 -12 226 -12Q158 -12 117 28T76 136Q76 231 138 280T290 329Q361 329 414 293L421 332Q426 357 426 372Q426 413 403 431T345 449Q267 449 183 395L172 466Q266 523 354 523Q414 523 460 490T507 382Q507 363 502
331L444 0H363ZM244 62Q321 62 386 129L401 218Q348 256 289 256Q233 256 195 228T157 144Q157 108 179 85T244 62Z" />
<glyph unicode="&#xe6;" glyph-name="ae" horiz-adv-x="824" d="M223 -12Q158 -12 118 27T77 136Q77 231 138 280T291 330Q358 330 410 295L417 335Q421 352 421 371Q421 449 342 449T182 395L171 466Q263 523 351 523Q399 523 434 501T484 441Q549 523 657 523Q743
523 789 474T835 332Q835 290 816 222H484Q483 214 483 206Q483 139 512 102T594 65Q654 65 711 109L751 49Q676 -12 584 -12Q527 -12 485 16T423 94Q339 -12 223 -12ZM495 296H748Q753 324 753 344Q752 395 724 421T651 447Q596 447 554 409T495 296ZM244 62Q321
62 393 146Q395 170 395 181Q397 212 398 217Q349 256 288 256Q232 256 195 228T157 144Q157 108 179 85T244 62Z" />
<glyph unicode="&#xe7;" glyph-name="ccedilla" horiz-adv-x="476" d="M204 -237Q146 -237 120 -204L173 -171Q179 -183 206 -183Q230 -183 248 -168T266 -130Q266 -114 252 -102T217 -90Q193 -90 179 -97L167 -77L230 -10Q163 -2 126 52T88 192Q88 340 160 431T348
523Q408 523 448 492T498 405L418 376Q404 445 333 445Q254 445 214 375T173 199Q173 138 197 103T266 67Q344 67 383 144L454 116Q429 60 382 28T280 -11L247 -53Q293 -53 314 -73T336 -123Q336 -172 298 -204T204 -237Z" />
<glyph unicode="&#xe8;" glyph-name="egrave" horiz-adv-x="513" d="M327 575L182 731H299L408 575H327ZM273 -12Q187 -12 136 48T85 203Q85 338 158 430T346 523Q429 523 476 475T524 330Q524 281 505 222H172V209Q172 141 201 103T283 65Q343 65 400 109L440
49Q364 -12 273 -12ZM184 296H437Q442 325 441 340Q440 397 412 422T341 447Q278 447 239 404T184 296Z" />
<glyph unicode="&#xe9;" glyph-name="eacute" horiz-adv-x="513" d="M382 575H300L464 731H581L382 575ZM273 -12Q187 -12 136 48T85 203Q85 338 158 430T346 523Q429 523 476 475T524 330Q524 281 505 222H172V209Q172 141 201 103T283 65Q343 65 400 109L440
49Q364 -12 273 -12ZM184 296H437Q442 325 441 340Q440 397 412 422T341 447Q278 447 239 404T184 296Z" />
<glyph unicode="&#xea;" glyph-name="ecircumflex" horiz-adv-x="513" d="M460 575L372 668L252 575H177L339 731H427L536 575H460ZM273 -12Q187 -12 136 48T85 203Q85 338 158 430T346 523Q429 523 476 475T524 330Q524 281 505 222H172V209Q172 141 201 103T283
65Q343 65 400 109L440 49Q364 -12 273 -12ZM184 296H437Q442 325 441 340Q440 397 412 422T341 447Q278 447 239 404T184 296Z" />
<glyph unicode="&#xeb;" glyph-name="edieresis" horiz-adv-x="513" d="M281 604Q262 604 250 617T237 649Q237 674 255 692T298 711Q318 711 330 698T342 666Q342 641 324 623T281 604ZM447 604Q428 604 415 617T402 649Q402 675 421 693T464 711Q483 711 495
698T508 666Q508 641 490 623T447 604ZM273 -12Q187 -12 136 48T85 203Q85 338 158 430T346 523Q429 523 476 475T524 330Q524 281 505 222H172V209Q172 141 201 103T283 65Q343 65 400 109L440 49Q364 -12 273 -12ZM184 296H437Q442 325 441 340Q440 397 412 422T341
447Q278 447 239 404T184 296Z" />
<glyph unicode="&#xec;" glyph-name="igrave" horiz-adv-x="246" d="M194 575L49 731H166L275 575H194ZM81 0L171 511H253L163 0H81Z" />
<glyph unicode="&#xed;" glyph-name="iacute" horiz-adv-x="246" d="M249 575H167L331 731H448L249 575ZM81 0L171 511H253L163 0H81Z" />
<glyph unicode="&#xee;" glyph-name="icircumflex" horiz-adv-x="246" d="M327 575L239 668L119 575H44L206 731H294L403 575H327ZM81 0L171 511H253L163 0H81Z" />
<glyph unicode="&#xef;" glyph-name="idieresis" horiz-adv-x="246" d="M148 604Q129 604 117 617T104 649Q104 674 122 692T165 711Q185 711 197 698T209 666Q209 641 191 623T148 604ZM314 604Q295 604 282 617T269 649Q269 675 288 693T331 711Q350 711 362
698T375 666Q375 641 357 623T314 604ZM81 0L171 511H253L163 0H81Z" />
<glyph unicode="&#xf0;" glyph-name="eth" horiz-adv-x="530" d="M265 -12Q181 -12 133 42T84 185Q84 302 158 379T337 456Q428 456 460 383Q458 518 392 581L318 513L285 556L347 615Q302 641 240 646L253 712Q345 705 405 668L470 729L505 686L447 633Q537 541
537 361Q537 190 465 89T265 -12ZM277 67Q339 67 388 120T437 250Q437 308 409 343T331 378Q267 378 219 324T171 191Q171 132 198 100T277 67Z" />
<glyph unicode="&#xf1;" glyph-name="ntilde" horiz-adv-x="544" d="M454 596Q418 596 372 620T304 645Q262 645 251 600H209Q228 717 324 717Q360 717 406 693T473 668Q515 668 527 713H569Q548 596 454 596ZM81 0L171 511H255L246 456Q300 523 382 523Q451 523
488 482T526 363Q526 323 519 285L468 0H384L437 302Q442 329 442 352Q442 397 421 421T358 445Q308 445 269 407T219 306L165 0H81Z" />
<glyph unicode="&#xf2;" glyph-name="ograve" horiz-adv-x="530" d="M332 575L187 731H304L413 575H332ZM273 -12Q180 -12 133 47T86 200Q86 281 115 353T205 474T348 523Q439 523 486 463T533 313Q533 253 516 196T468 92T386 17T273 -12ZM275 67Q356 67 402
140T448 307Q448 366 422 405T343 445Q264 445 218 372T171 205Q171 144 197 106T275 67Z" />
<glyph unicode="&#xf3;" glyph-name="oacute" horiz-adv-x="530" d="M387 575H305L469 731H586L387 575ZM273 -12Q180 -12 133 47T86 200Q86 281 115 353T205 474T348 523Q439 523 486 463T533 313Q533 253 516 196T468 92T386 17T273 -12ZM275 67Q356 67 402
140T448 307Q448 366 422 405T343 445Q264 445 218 372T171 205Q171 144 197 106T275 67Z" />
<glyph unicode="&#xf4;" glyph-name="ocircumflex" horiz-adv-x="530" d="M465 575L377 668L257 575H182L344 731H432L541 575H465ZM273 -12Q180 -12 133 47T86 200Q86 281 115 353T205 474T348 523Q439 523 486 463T533 313Q533 253 516 196T468 92T386 17T273
-12ZM275 67Q356 67 402 140T448 307Q448 366 422 405T343 445Q264 445 218 372T171 205Q171 144 197 106T275 67Z" />
<glyph unicode="&#xf5;" glyph-name="otilde" horiz-adv-x="530" d="M440 596Q404 596 358 620T290 645Q248 645 237 600H195Q214 717 310 717Q346 717 392 693T459 668Q501 668 513 713H555Q534 596 440 596ZM273 -12Q180 -12 133 47T86 200Q86 281 115 353T205
474T348 523Q439 523 486 463T533 313Q533 253 516 196T468 92T386 17T273 -12ZM275 67Q356 67 402 140T448 307Q448 366 422 405T343 445Q264 445 218 372T171 205Q171 144 197 106T275 67Z" />
<glyph unicode="&#xf6;" glyph-name="odieresis" horiz-adv-x="530" d="M286 604Q267 604 255 617T242 649Q242 674 260 692T303 711Q323 711 335 698T347 666Q347 641 329 623T286 604ZM452 604Q433 604 420 617T407 649Q407 675 426 693T469 711Q488 711 500
698T513 666Q513 641 495 623T452 604ZM273 -12Q180 -12 133 47T86 200Q86 281 115 353T205 474T348 523Q439 523 486 463T533 313Q533 253 516 196T468 92T386 17T273 -12ZM275 67Q356 67 402 140T448 307Q448 366 422 405T343 445Q264 445 218 372T171 205Q171
144 197 106T275 67Z" />
<glyph unicode="&#xf7;" glyph-name="divide" horiz-adv-x="630" d="M394 487T370 487T330 503T314 542T330 581T370 598T410 582T427 542T411 503ZM140 301V384H604V301H140ZM394 88T370 88T330 103T314 142T330 181T370 197T410 181T427 142T411 104Z" />
<glyph unicode="&#xf8;" glyph-name="oslash" horiz-adv-x="530" d="M48 -12L117 70Q86 123 86 200Q86 281 115 353T205 474T348 523Q416 523 463 484L495 523H571L501 440Q533 384 533 313Q533 253 516 196T468 92T386 17T273 -12Q201 -12 155 26L124 -12H48ZM179
145L409 419Q381 445 343 445Q264 445 218 372T171 205Q171 169 179 145ZM275 67Q356 67 402 140T448 307Q448 342 439 365L211 92Q234 67 275 67Z" />
<glyph unicode="&#xf9;" glyph-name="ugrave" horiz-adv-x="544" d="M335 575L190 731H307L416 575H335ZM380 0L389 49Q340 -12 253 -12Q184 -12 145 28T105 146Q105 169 112 213L164 511H249L195 207Q190 183 190 161Q190 113 213 90T276 67Q392 67 416 200L470
511H555L465 0H380Z" />
<glyph unicode="&#xfa;" glyph-name="uacute" horiz-adv-x="544" d="M390 575H308L472 731H589L390 575ZM380 0L389 49Q340 -12 253 -12Q184 -12 145 28T105 146Q105 169 112 213L164 511H249L195 207Q190 183 190 161Q190 113 213 90T276 67Q392 67 416 200L470
511H555L465 0H380Z" />
<glyph unicode="&#xfb;" glyph-name="ucircumflex" horiz-adv-x="544" d="M468 575L380 668L260 575H185L347 731H435L544 575H468ZM380 0L389 49Q340 -12 253 -12Q184 -12 145 28T105 146Q105 169 112 213L164 511H249L195 207Q190 183 190 161Q190 113 213 90T276
67Q392 67 416 200L470 511H555L465 0H380Z" />
<glyph unicode="&#xfc;" glyph-name="udieresis" horiz-adv-x="544" d="M289 604Q270 604 258 617T245 649Q245 674 263 692T306 711Q326 711 338 698T350 666Q350 641 332 623T289 604ZM455 604Q436 604 423 617T410 649Q410 675 429 693T472 711Q491 711 503
698T516 666Q516 641 498 623T455 604ZM380 0L389 49Q340 -12 253 -12Q184 -12 145 28T105 146Q105 169 112 213L164 511H249L195 207Q190 183 190 161Q190 113 213 90T276 67Q392 67 416 200L470 511H555L465 0H380Z" />
<glyph unicode="&#xfd;" glyph-name="yacute" horiz-adv-x="503" d="M374 575H292L456 731H573L374 575ZM100 -194L210 15L117 511H203L261 159Q268 121 268 120Q268 124 288 159L474 511H565L189 -194H100Z" />
<glyph unicode="&#xfe;" glyph-name="thorn" horiz-adv-x="545" d="M292 -12Q213 -12 173 48L135 -166L46 -203L202 678L291 715L246 466Q312 523 384 523Q459 523 502 467T546 317Q546 168 473 78T292 -12ZM293 67Q371 67 416 133T461 306Q461 369 434 407T358
445Q322 445 288 426T230 374L188 136Q228 67 293 67Z" />
<glyph unicode="&#xff;" glyph-name="ydieresis" horiz-adv-x="503" d="M273 604Q254 604 242 617T229 649Q229 674 247 692T290 711Q310 711 322 698T334 666Q334 641 316 623T273 604ZM439 604Q420 604 407 617T394 649Q394 675 413 693T456 711Q475 711 487
698T500 666Q500 641 482 623T439 604ZM100 -194L210 15L117 511H203L261 159Q268 121 268 120Q268 124 288 159L474 511H565L189 -194H100Z" />
<glyph unicode="&#x2013;" glyph-name="endash" horiz-adv-x="500" d="M105 250L118 324H497L484 250H105Z" />
<glyph unicode="&#x2014;" glyph-name="emdash" horiz-adv-x="577" d="M52 250L65 324H627L614 250H52Z" />
<glyph unicode="&#x2018;" glyph-name="quoteleft" horiz-adv-x="225" d="M193 451Q168 451 151 469T134 519Q134 576 170 628T262 712L286 698Q229 652 214 587Q240 585 255 570T271 532Q271 497 248 474T193 451Z" />
<glyph unicode="&#x2019;" glyph-name="quoteright" horiz-adv-x="225" d="M169 451L145 465Q202 511 216 576Q191 577 176 592T161 632Q161 666 183 689T238 712Q263 712 280 694T297 644Q297 587 261 535T169 451Z" />
<glyph unicode="&#x201a;" glyph-name="quotesinglbase" horiz-adv-x="225" d="M65 -141L41 -127Q97 -82 112 -16Q87 -15 72 1T56 40Q56 75 78 97T131 120Q158 120 175 103T192 52Q192 -6 156 -57T65 -141Z" />
<glyph unicode="&#x201c;" glyph-name="quotedblleft" horiz-adv-x="424" d="M193 451Q168 451 151 469T134 519Q134 576 170 628T262 712L286 698Q229 652 214 587Q240 585 255 570T271 532Q271 497 248 474T193 451ZM391 451Q366 451 349 469T332 520Q332 577
368 628T460 712L485 698Q464 682 443 652T414 587Q439 586 454 571T469 532Q469 497 446 474T391 451Z" />
<glyph unicode="&#x201d;" glyph-name="quotedblright" horiz-adv-x="424" d="M169 451L145 465Q202 511 216 576Q191 577 176 592T161 632Q161 666 183 689T238 712Q263 712 280 694T297 644Q297 587 261 535T169 451ZM367 451L343 465Q400 511 415 576Q390 578
375 593T359 632Q359 666 382 689T436 712Q461 712 478 694T495 644Q495 586 459 535T367 451Z" />
<glyph unicode="&#x201e;" glyph-name="quotedblbase" horiz-adv-x="424" d="M65 -141L41 -127Q97 -82 112 -16Q87 -15 72 1T56 40Q56 75 78 97T131 120Q158 120 175 103T192 52Q192 -6 156 -57T65 -141ZM263 -141L239 -127Q295 -82 310 -16Q285 -15 270 1T255
40Q255 75 277 97T329 120Q356 120 373 103T390 52Q390 -6 354 -57T263 -141Z" />
<glyph unicode="&#x2022;" glyph-name="bullet" horiz-adv-x="404" d="M240 219Q191 219 161 251T130 330Q130 392 176 437T286 483Q335 483 366 451T398 371Q398 308 351 264T240 219Z" />
<glyph unicode="&#x2039;" glyph-name="guilsinglleft" horiz-adv-x="304" d="M188 0L87 256L278 511H369L177 255L277 0H188Z" />
<glyph unicode="&#x203a;" glyph-name="guilsinglright" horiz-adv-x="304" d="M26 0L218 257L118 511H207L308 256L117 0H26Z" />
</font>
</defs>
</svg>
