<?xml version="1.0" standalone="no"?>
<!DOCTYPE svg PUBLIC "-//W3C//DTD SVG 1.1//EN" "http://www.w3.org/Graphics/SVG/1.1/DTD/svg11.dtd">
<svg xmlns="http://www.w3.org/2000/svg">
<defs >
<font id="Varela" horiz-adv-x="476" ><font-face
    font-family="Varela"
    units-per-em="1000"
    panose-1="2 0 0 0 0 0 0 0 0 0"
    ascent="1015"
    descent="-285"
    alphabetic="0" />
<glyph unicode=" " glyph-name="space" horiz-adv-x="260" />
<glyph unicode="!" glyph-name="exclam" horiz-adv-x="281" d="M84 0V112H196V0H84ZM89 698H192V552L172 193H108L89 552V698Z" />
<glyph unicode="&quot;" glyph-name="quotedbl" horiz-adv-x="411" d="M55 740H168L137 496H85L55 740ZM243 740H356L326 496H274L243 740Z" />
<glyph unicode="#" glyph-name="numbersign" horiz-adv-x="612" d="M421 655H492L463 474H565V404H452L428 252H530V182H417L388 0H317L346 182H219L190 0H119L148 182H46V252H159L183 404H81V474H194L223 655H294L265 474H392L421 655ZM357 252L381 404H254L230
252H357Z" />
<glyph unicode="$" glyph-name="dollar" horiz-adv-x="612" d="M569 185Q569 104 505 50T334 -10V-105H289V-10Q165 -5 62 44V133H67Q164 79 289 75V304Q151 339 103 385Q83 404 69 434T54 503Q54 586 116 643T289 707V803H334V708Q434 704 518 672V587H511Q424
622 334 625V387Q388 374 420 363T492 330Q569 285 569 185ZM224 617T184 588T144 511T181 440T289 398V623Q224 617 184 588ZM334 76Q479 86 479 191Q479 231 443 252T334 293V76Z" />
<glyph unicode="%" glyph-name="percent" horiz-adv-x="814" d="M589 701H667L226 -4H148L589 701ZM127 715T204 715T323 665T365 536T323 408T204 357T85 407T43 536T85 664ZM161 422T204 422T271 454T295 536T271 618T204 650T137 618T113 536T137 454ZM533
340T610 340T729 290T771 161T729 33T610 -18T491 32T449 161T491 289ZM567 47T610 47T677 79T701 161T677 243T610 275T543 243T519 161T543 79Z" />
<glyph unicode="&amp;" glyph-name="ampersand" horiz-adv-x="732" d="M579 127L710 3V0H593L523 66H519Q430 -10 312 -10T132 51T71 188T106 311T183 386V389Q153 425 138 457T123 533Q123 606 174 657T303 708T451 659V573H449Q388 630 314 630Q264 630 236
603T207 536T226 468T307 383L514 188H517Q540 223 555 260H645Q617 183 579 132V127ZM460 121V125L241 330H236Q157 277 157 193Q157 138 200 103T308 67Q394 67 460 121Z" />
<glyph unicode="&apos;" glyph-name="quotesingle" horiz-adv-x="238" d="M73 740H185V628Q185 512 73 465V530Q128 560 128 628H73V740Z" />
<glyph unicode="(" glyph-name="parenleft" horiz-adv-x="312" d="M288 760V757Q142 563 142 308T288 -142V-145H194Q51 52 51 307T194 760H288Z" />
<glyph unicode=")" glyph-name="parenright" horiz-adv-x="312" d="M25 757V760H119Q262 563 262 308T119 -145H25V-142Q171 52 171 307T25 757Z" />
<glyph unicode="*" glyph-name="asterisk" horiz-adv-x="417" d="M326 436L222 518L242 387H175L194 518L91 436L57 494L180 543L57 591L91 650L194 567L175 698H242L222 567L326 650L360 591L237 543L360 494L326 436Z" />
<glyph unicode="+" glyph-name="plus" horiz-adv-x="562" d="M45 307V384H242V582H320V384H517V307H320V109H242V307H45Z" />
<glyph unicode="," glyph-name="comma" horiz-adv-x="260" d="M74 112H186V0Q186 -116 74 -163V-98Q129 -68 129 0H74V112Z" />
<glyph unicode="-" glyph-name="hyphen" horiz-adv-x="408" d="M334 240H74V321H334V240Z" />
<glyph unicode="." glyph-name="period" horiz-adv-x="260" d="M74 0V112H186V0H74Z" />
<glyph unicode="/" glyph-name="slash" horiz-adv-x="443" d="M322 751H408L122 -85H36L322 751Z" />
<glyph unicode="0" glyph-name="zero" horiz-adv-x="628" d="M43 514T112 611T313 708T515 611T585 349T515 87T314 -10T113 87T43 349ZM227 74T314 74T447 147T494 348T448 550T314 623T181 550T134 349T180 147Z" />
<glyph unicode="1" glyph-name="one" horiz-adv-x="628" d="M387 85H524V0H140V85H296V591H292L147 519V616L303 698H387V85Z" />
<glyph unicode="2" glyph-name="two" horiz-adv-x="628" d="M553 505Q553 456 528 411T463 332T375 264T284 203Q180 140 157 89V85H543V0H65V52Q65 101 94 146T168 225T265 293T361 357T435 423T465 498Q465 622 307 622Q186 622 95 562H90V651Q197 708 323 708Q421
708 487 652T553 505Z" />
<glyph unicode="3" glyph-name="three" horiz-adv-x="628" d="M409 361Q553 325 553 183Q553 91 481 41T291 -10T73 35V124H78Q166 77 277 77Q406 77 446 134Q462 157 462 188Q462 314 241 314H189V398H229Q329 398 383 428T437 519Q437 567 397 595T279 623Q167
623 84 568H80V652Q180 708 291 708T465 661T528 528Q528 406 409 362V361Z" />
<glyph unicode="4" glyph-name="four" horiz-adv-x="628" d="M479 257H591V176H479V0H388V176H29V262L370 698H479V257ZM388 257V593H386L128 259V257H388Z" />
<glyph unicode="5" glyph-name="five" horiz-adv-x="628" d="M174 403Q247 442 347 442T509 380T571 216T502 53T301 -10T74 55V152H78Q169 80 285 80Q380 80 430 112T480 213T439 319T325 355Q216 355 147 297L68 332L125 698H529V613H201L171 403H174Z" />
<glyph unicode="6" glyph-name="six" horiz-adv-x="628" d="M351 452Q454 452 517 388T580 222T513 55T333 -10Q59 -10 59 348Q59 479 121 586Q153 641 212 674T360 708T537 659V567H532Q450 620 356 620Q295 620 252 594T188 525Q150 447 146 365H148Q216 452
351 452ZM334 75Q403 75 446 117T489 223T451 328T340 369Q210 369 151 259Q178 75 334 75Z" />
<glyph unicode="7" glyph-name="seven" horiz-adv-x="628" d="M65 698H563V617L263 0H159L462 607V611H65V698Z" />
<glyph unicode="8" glyph-name="eight" horiz-adv-x="628" d="M433 708T490 652T548 532T516 430T432 374V373Q581 323 581 185Q581 113 522 54Q493 25 439 8T314 -10T189 7T106 54Q47 113 47 185Q47 323 196 373V374Q145 391 113 429T80 532T137 652T314 708ZM224
70T314 70T447 110T490 195Q490 259 439 294T314 330T189 295T138 195Q138 151 181 111ZM244 628T208 598T171 523T205 445T314 412T422 445T457 522T421 597T314 628Z" />
<glyph unicode="9" glyph-name="nine" horiz-adv-x="628" d="M277 246Q174 246 111 310T48 476T115 643T295 708Q569 708 569 350Q569 219 507 112Q475 57 416 24T268 -10T91 39V131H96Q178 78 272 78Q333 78 376 104T440 173Q478 251 482 333H480Q412 246 277
246ZM294 623Q225 623 182 581T139 475T177 370T288 329Q418 329 477 439Q450 623 294 623Z" />
<glyph unicode=":" glyph-name="colon" horiz-adv-x="260" d="M74 398V510H186V398H74ZM74 0V112H186V0H74Z" />
<glyph unicode=";" glyph-name="semicolon" horiz-adv-x="260" d="M74 398V510H186V398H74ZM74 112H186V0Q186 -116 74 -163V-98Q129 -68 129 0H74V112Z" />
<glyph unicode="&lt;" glyph-name="less" horiz-adv-x="580" d="M512 550V462L145 297V295L512 130V42L41 256V336L512 550Z" />
<glyph unicode="=" glyph-name="equal" horiz-adv-x="712" d="M634 404H78V482H634V404ZM634 180H78V258H634V180Z" />
<glyph unicode="&gt;" glyph-name="greater" horiz-adv-x="580" d="M68 462V550L539 336V256L68 42V130L435 295V297L68 462Z" />
<glyph unicode="?" glyph-name="question" horiz-adv-x="497" d="M164 0V112H276V0H164ZM42 655Q137 708 233 708T390 657T452 519Q452 473 433 438T386 379T330 334Q264 279 264 205V193H176V209Q176 262 195 303T241 370T296 417Q362 467 362 514Q362 623 219
623Q136 623 46 564H42V655Z" />
<glyph unicode="@" glyph-name="at" horiz-adv-x="898" d="M473 688Q631 687 742 590T854 342Q854 203 776 134Q732 95 675 95T590 117T556 169Q494 94 391 94Q311 94 266 143T221 270Q221 381 292 447T458 513Q533 513 586 462L594 505H669L628 271Q621 215 621
197T633 161T671 142Q733 142 766 196T800 342T751 502T628 603T473 635Q322 635 212 525T101 262Q101 188 134 123T237 13T400 -31Q523 -31 642 31L632 -29Q528 -83 400 -83Q245 -83 147 19T49 262Q49 375 106 473T262 629T473 688ZM559 303L575 396Q531 442 463
442T347 399T298 280Q298 222 330 193T413 163Q535 163 559 303Z" />
<glyph unicode="A" glyph-name="A" horiz-adv-x="697" d="M593 0L518 179H179L104 0H5L301 698H396L692 0H593ZM215 267V262H482V267L350 586H348L215 267Z" />
<glyph unicode="B" glyph-name="B" horiz-adv-x="693" d="M641 196Q641 0 384 0H97V698H378Q485 698 543 649T602 517Q602 407 506 364V361Q641 318 641 196ZM188 85H375Q472 85 512 115T553 200Q553 314 376 314H188V85ZM188 396H354Q443 396 479 426T515 506T477
585T371 613H188V396Z" />
<glyph unicode="C" glyph-name="C" horiz-adv-x="698" d="M638 553Q535 621 411 621T217 545T147 349T217 153T411 77T638 145H643V55Q535 -10 406 -10Q253 -10 155 87T56 349T154 610T406 708Q535 708 643 643V553H638Z" />
<glyph unicode="D" glyph-name="D" horiz-adv-x="750" d="M343 698Q429 698 498 668T610 586Q696 483 696 349Q696 242 640 154Q579 57 471 20Q412 0 343 0H97V698H343ZM332 85Q456 85 531 158T606 349T531 540T332 613H188V85H332Z" />
<glyph unicode="E" glyph-name="E" horiz-adv-x="638" d="M581 613H188V392H545V307H188V85H581V0H97V698H581V613Z" />
<glyph unicode="F" glyph-name="F" horiz-adv-x="610" d="M97 698H569V613H188V392H534V307H188V0H97V698Z" />
<glyph unicode="G" glyph-name="G" horiz-adv-x="744" d="M410 383H673V67Q544 -10 406 -10Q249 -10 152 90T55 349T155 608T395 708T662 631V537H658Q535 620 416 620T221 548T146 353T219 153T418 76Q512 76 593 120V301H410V383Z" />
<glyph unicode="H" glyph-name="H" horiz-adv-x="755" d="M567 698H658V0H567V306H188V0H97V698H188V391H567V698Z" />
<glyph unicode="I" glyph-name="I" horiz-adv-x="285" d="M188 698V0H97V698H188Z" />
<glyph unicode="J" glyph-name="J" horiz-adv-x="466" d="M282 698H373V230Q373 99 315 45T174 -10T24 31V121H28Q89 76 152 76T248 107T282 224V698Z" />
<glyph unicode="K" glyph-name="K" horiz-adv-x="670" d="M362 404L673 0H562L304 340H299L188 225V0H97V698H188V341H191L528 698H647L362 404Z" />
<glyph unicode="L" glyph-name="L" horiz-adv-x="576" d="M556 91V0H97V698H188V91H556Z" />
<glyph unicode="M" glyph-name="M" horiz-adv-x="966" d="M727 698H869V0H778V602H776L530 0H436L189 602H188V0H97V698H239L482 101H484L727 698Z" />
<glyph unicode="N" glyph-name="N" horiz-adv-x="803" d="M615 698H706V0H594L190 575H188V0H97V698H209L612 124H615V698Z" />
<glyph unicode="O" glyph-name="O" horiz-adv-x="811" d="M248 708T406 708T659 608T757 349Q754 190 659 90T406 -10T153 90T55 349Q58 508 153 608ZM146 230T215 153T405 75T596 152T666 349T596 545T406 623T216 546T146 349Z" />
<glyph unicode="P" glyph-name="P" horiz-adv-x="669" d="M370 698Q442 698 496 679T579 626T623 556T637 476T623 397T580 326T496 274T370 254H188V0H97V698H370ZM361 340Q463 340 504 379T546 476T505 573T361 612H188V340H361Z" />
<glyph unicode="Q" glyph-name="Q" horiz-adv-x="812" d="M552 18V15L688 -137V-140H576L466 -6Q441 -10 406 -10Q248 -10 153 90T55 349Q58 508 153 608T406 708T659 608T757 349Q755 232 701 145T552 18ZM146 230T215 153T405 75T596 152T666 349T596 545T406
623T216 546T146 349Z" />
<glyph unicode="R" glyph-name="R" horiz-adv-x="712" d="M636 86V62Q636 30 653 4V0H559Q545 23 545 54V70Q545 162 526 196Q517 214 502 234Q471 272 395 272H188V0H97V698H375Q511 698 579 642T647 495Q647 434 614 386T518 315V313Q636 282 636 86ZM369 358Q455
358 505 392T556 487T513 580T364 612H188V358H369Z" />
<glyph unicode="S" glyph-name="S" horiz-adv-x="616" d="M148 510Q148 470 179 444T258 408T360 382T463 348T541 289T573 185Q573 99 503 45T306 -10T66 44V133H71Q175 75 308 75Q483 75 483 191Q483 248 398 275Q361 287 316 298T226 324T143 359T82 416T58
503Q58 590 126 649T311 708T522 672V587H515Q421 625 335 625T198 595T148 510Z" />
<glyph unicode="T" glyph-name="T" horiz-adv-x="611" d="M592 698V613H351V0H260V613H19V698H592Z" />
<glyph unicode="U" glyph-name="U" horiz-adv-x="758" d="M575 698H666V262Q666 194 641 141T573 55T481 7T379 -10T278 6T186 55T118 140T92 262V698H183V259Q183 171 241 122T379 73T517 122T575 259V698Z" />
<glyph unicode="V" glyph-name="V" horiz-adv-x="694" d="M591 698H689L401 0H293L5 698H104L345 93H349L591 698Z" />
<glyph unicode="W" glyph-name="W" horiz-adv-x="1007" d="M900 698H995L767 0H676L506 542H501L331 0H240L12 698H107L283 122H286L464 698H543L721 122H724L900 698Z" />
<glyph unicode="X" glyph-name="X" horiz-adv-x="669" d="M386 350L656 0H543L334 280H329L123 0H15L283 349L15 698H129L334 420H339L543 698H653L386 350Z" />
<glyph unicode="Y" glyph-name="Y" horiz-adv-x="645" d="M541 698H652L368 295V0H277V295L-7 698H104L320 379H325L541 698Z" />
<glyph unicode="Z" glyph-name="Z" horiz-adv-x="638" d="M587 698V616L161 88V85H587V0H47V80L473 607V611H55V698H587Z" />
<glyph unicode="[" glyph-name="bracketleft" horiz-adv-x="322" d="M288 660H166V-61H288V-132H87V732H288V660Z" />
<glyph unicode="\" glyph-name="backslash" horiz-adv-x="443" d="M35 751H121L407 -85H321L35 751Z" />
<glyph unicode="]" glyph-name="bracketright" horiz-adv-x="322" d="M156 660H34V732H235V-132H34V-61H156V660Z" />
<glyph unicode="^" glyph-name="asciicircum" horiz-adv-x="524" d="M378 426L262 611H260L145 426H65L212 698H312L459 426H378Z" />
<glyph unicode="_" glyph-name="underscore" horiz-adv-x="663" d="M606 -147H57V-81H606V-147Z" />
<glyph unicode="`" glyph-name="grave" horiz-adv-x="246" d="M35 711H134L210 578H148L35 711Z" />
<glyph unicode="a" glyph-name="a" horiz-adv-x="555" d="M88 482Q175 520 274 520T427 462T480 323V0H400L389 64H386Q314 -10 201 -10Q133 -10 86 31T38 143T96 258T268 302H389V310Q389 376 357 405T244 434T94 400H88V482ZM389 145V229H280Q129 229 129 150T235
70Q279 70 320 91T389 145Z" />
<glyph unicode="b" glyph-name="b" horiz-adv-x="631" d="M244 520T341 520T510 448T583 255T511 62T341 -10T173 64H170L159 0H79V730H170V446H173Q244 520 341 520ZM328 75Q402 75 447 122T492 255T447 388T328 435Q238 435 170 360V150Q238 75 328 75Z" />
<glyph unicode="c" glyph-name="c" horiz-adv-x="536" d="M482 385Q408 435 322 435T186 386T137 255T186 125T321 75T482 125H486V39Q403 -10 313 -10Q202 -10 124 62T46 255T124 448T313 520Q403 520 486 471V385H482Z" />
<glyph unicode="d" glyph-name="d" horiz-adv-x="631" d="M193 520T290 520T458 446H461V730H552V0H472L461 64H458Q387 -10 290 -10T121 62T48 255T120 448ZM303 75Q393 75 461 150V360Q393 435 303 435Q229 435 184 388T139 255T184 122T303 75Z" />
<glyph unicode="e" glyph-name="e" horiz-adv-x="570" d="M527 255V223H141Q149 153 193 114T326 75T492 125H497V37Q413 -10 300 -10T118 59T49 247T110 443T288 520T466 443T527 255ZM141 297H436Q432 369 388 406T288 443T189 406T141 297Z" />
<glyph unicode="f" glyph-name="f" horiz-adv-x="380" d="M357 640Q320 653 285 653T229 634T208 565V510H364V432H208V0H117V432H24V510H117V568Q117 655 161 697T262 740T364 715V640H357Z" />
<glyph unicode="g" glyph-name="g" horiz-adv-x="631" d="M472 510H552V22Q552 -104 491 -172T315 -240T104 -189V-99H109Q194 -154 308 -154Q461 -154 461 9V74H458Q389 0 293 0T123 68T48 260T122 451T293 520T458 446H461L472 510ZM461 157V363Q389 437 312
437T187 392T139 260T186 129T311 83T461 157Z" />
<glyph unicode="h" glyph-name="h" horiz-adv-x="609" d="M356 520Q439 520 487 464T535 324V0H444V314Q444 436 334 436Q247 436 170 340V0H79V730H170V431H173Q254 520 356 520Z" />
<glyph unicode="i" glyph-name="i" horiz-adv-x="257" d="M83 0V510H174V0H83ZM178 716V618H80V716H178Z" />
<glyph unicode="j" glyph-name="j" horiz-adv-x="257" d="M80 716H178V618H80V716ZM83 -101V510H174V-103Q174 -165 143 -202T43 -240Q0 -240 -32 -227V-152H-24Q0 -160 26 -160T68 -149T83 -101Z" />
<glyph unicode="k" glyph-name="k" horiz-adv-x="546" d="M309 305L539 0H427L247 241H244L170 167V0H79V730H170V283H173L394 510H516L309 305Z" />
<glyph unicode="l" glyph-name="l" horiz-adv-x="265" d="M178 730V0H87V730H178Z" />
<glyph unicode="m" glyph-name="m" horiz-adv-x="919" d="M677 520Q759 520 801 462T844 328V0H753V310Q753 375 730 405T651 436Q565 436 507 340V0H416V310Q416 375 393 405T314 436Q228 436 170 340V0H79V510H159L170 446V431H172Q236 520 340 520Q396 520
435 491T492 419H495Q556 520 677 520Z" />
<glyph unicode="n" glyph-name="n" horiz-adv-x="609" d="M356 520Q439 520 487 464T535 324V0H444V314Q444 436 334 436Q247 436 170 340V0H79V510H159L170 446V431H172Q253 520 356 520Z" />
<glyph unicode="o" glyph-name="o" horiz-adv-x="608" d="M48 374T118 447T303 520T489 447T560 255T490 63T304 -10T118 63T48 255ZM238 73T304 73T419 118T469 255T420 392T304 437T189 392T139 256T188 119Z" />
<glyph unicode="p" glyph-name="p" horiz-adv-x="631" d="M438 -10T341 -10T173 64H170V-230H79V510H159L170 446H173Q244 520 341 520T510 448T583 255T511 62ZM328 435Q238 435 170 360V150Q238 75 328 75Q402 75 447 122T492 255T447 388T328 435Z" />
<glyph unicode="q" glyph-name="q" horiz-adv-x="631" d="M387 -10T290 -10T121 62T48 255T120 448T290 520T458 446H461L472 510H552V-230H461V64H458Q387 -10 290 -10ZM303 435Q229 435 184 388T139 255T184 122T303 75Q393 75 461 150V360Q393 435 303 435Z" />
<glyph unicode="r" glyph-name="r" horiz-adv-x="387" d="M360 520H368V433H360Q301 433 250 410T170 346V0H79V510H159L170 446V431H172Q244 520 360 520Z" />
<glyph unicode="s" glyph-name="s" horiz-adv-x="480" d="M200 437T170 418T139 369T170 323T245 298T334 274T409 226T440 133T390 32T240 -10T58 35V122H63Q144 74 241 74Q352 74 352 145Q352 168 321 182T246 207T158 231T83 278T52 362Q52 432 102 476T240
520T402 492V409H395Q328 437 264 437Z" />
<glyph unicode="t" glyph-name="t" horiz-adv-x="384" d="M348 432H203V130Q203 88 226 78Q245 70 275 70T341 86H348V12Q306 -10 258 -10Q112 -10 112 122V432H17V438L203 620V510H348V432Z" />
<glyph unicode="u" glyph-name="u" horiz-adv-x="610" d="M254 -10Q171 -10 123 46T75 186V510H166V196Q166 74 276 74Q363 74 440 170V510H531V0H451L440 64V79H438Q357 -10 254 -10Z" />
<glyph unicode="v" glyph-name="v" horiz-adv-x="530" d="M425 510H524L310 0H220L6 510H105L263 108H267L425 510Z" />
<glyph unicode="w" glyph-name="w" horiz-adv-x="785" d="M678 510H774L599 0H510L394 365H391L275 0H186L11 510H107L228 110H231L355 510H430L554 110H557L678 510Z" />
<glyph unicode="x" glyph-name="x" horiz-adv-x="542" d="M521 510L324 258L521 0H407L270 181H265L135 0H21L217 252L21 510H135L270 328H275L407 510H521Z" />
<glyph unicode="y" glyph-name="y" horiz-adv-x="533" d="M529 510L222 -230H130L216 -8L5 510H103L263 107H267L431 510H529Z" />
<glyph unicode="z" glyph-name="z" horiz-adv-x="499" d="M448 510V425L159 88V85H448V0H46V84L339 421V425H55V510H448Z" />
<glyph unicode="{" glyph-name="braceleft" horiz-adv-x="344" d="M207 425Q207 340 117 307V306Q207 273 207 189V-33Q207 -45 209 -52T226 -67T266 -75H311V-145H269Q202 -145 166 -119T129 -25V186Q129 203 127 213T114 237Q93 262 14 270V344Q93 352 114 377Q124
390 126 400T129 428V639Q129 707 165 733T269 759H311V689H266Q240 689 226 682T210 667T207 647V425Z" />
<glyph unicode="|" glyph-name="bar" horiz-adv-x="253" d="M167 736V-191H86V736H167Z" />
<glyph unicode="}" glyph-name="braceright" horiz-adv-x="344" d="M137 425V647Q137 659 135 666T118 681T78 689H33V759H75Q142 759 178 733T215 639V428Q215 411 217 401T230 377Q251 352 330 344V270Q251 262 230 237Q220 224 218 214T215 186V-25Q215 -93
179 -119T75 -145H33V-75H78Q104 -75 118 -68T134 -53T137 -33V189Q137 273 227 306V307Q137 340 137 425Z" />
<glyph unicode="~" glyph-name="asciitilde" horiz-adv-x="638" d="M521 359H571Q562 284 527 245T444 206T349 225T264 263T194 282Q135 282 121 215H71Q79 289 114 328T198 367T293 348T379 310T448 291Q507 291 521 359Z" />
<glyph unicode="&#xa0;" glyph-name="uni00A0" horiz-adv-x="260" />
<glyph unicode="&#xa1;" glyph-name="exclamdown" horiz-adv-x="259" d="M73 510H185V398H73V510ZM78 -188V-42L97 317H161L181 -42V-188H78Z" />
<glyph unicode="&#xa2;" glyph-name="cent" horiz-adv-x="551" d="M480 385Q435 414 391 425L273 79Q292 75 319 75Q406 75 480 125H484V39Q401 -10 311 -10Q274 -10 245 -3L205 -118H146L192 15Q125 46 85 108T44 255Q44 376 122 448T311 520Q331 520 363 516L397
615H456L418 502Q448 492 484 471V385H480ZM335 434L319 435Q233 435 184 386T135 255Q135 143 220 97L335 434Z" />
<glyph unicode="&#xa3;" glyph-name="sterling" horiz-adv-x="604" d="M223 118L248 119Q288 119 349 99T454 78T548 111H552V22Q492 -10 443 -10T337 12T237 35Q168 35 114 -10L59 36Q175 141 175 255Q175 282 169 307H44V352H157Q155 358 150 374L142 398Q125
454 125 502Q125 598 191 653T357 708T532 670V580H527Q456 620 372 620T252 587T216 506Q216 464 232 413T251 352H446V307H261Q265 287 265 261Q265 184 223 118Z" />
<glyph unicode="&#xa4;" glyph-name="currency" horiz-adv-x="668" d="M571 425T571 349T526 210L598 137L546 85L473 158Q411 112 334 112T195 158L122 85L70 137L142 210Q97 273 97 349T142 489L70 561L122 613L195 541Q258 586 334 586T473 541L546 613L598
561L526 489Q571 425 571 349ZM269 194T334 194T444 239T490 349T444 459T334 505T224 460T178 350T223 240Z" />
<glyph unicode="&#xa5;" glyph-name="yen" horiz-adv-x="658" d="M621 698L417 365H546V290H374V199H546V124H374V0H284V124H111V199H284V290H111V365H241L37 698H148L329 381L510 698H621Z" />
<glyph unicode="&#xa7;" glyph-name="section" horiz-adv-x="529" d="M177 554Q177 511 256 483Q341 452 400 420Q434 401 456 368T479 292Q479 197 380 165Q445 121 445 51T395 -61T245 -103T63 -58V29H68Q149 -19 246 -19Q359 -19 359 51Q359 78 328 98T253
133T164 169T88 225T57 313Q57 406 155 439Q91 486 91 555T141 666T281 708T445 676V591H438Q370 624 290 624Q177 624 177 554ZM320 198Q395 216 395 286Q395 325 355 348Q321 367 277 383T215 407Q141 389 141 319Q141 280 181 257Q208 241 255 223T320 198Z"
/>
<glyph unicode="&#xa8;" glyph-name="dieresis" horiz-adv-x="400" d="M66 578V674H162V578H66ZM234 578V674H330V578H234Z" />
<glyph unicode="&#xa9;" glyph-name="copyright" horiz-adv-x="819" d="M262 708T410 708T663 603T769 349T664 95T410 -10T157 95T51 349T156 603ZM103 223T193 133T409 42T626 132T717 349T627 566T410 656T193 566T103 350ZM416 206Q499 206 530 283H597Q580
219 532 182T416 145Q330 145 277 201T223 349T276 497T407 553T532 517T597 415H530Q499 492 416 492Q356 492 323 451T290 349T323 247T416 206Z" />
<glyph unicode="&#xaa;" glyph-name="ordfeminine" horiz-adv-x="485" d="M197 339Q149 339 115 368T81 447T121 525T242 553H318V555Q318 600 297 620T228 640T118 614H114V680Q181 708 248 708T353 667T390 569V346H325L318 386H316Q275 339 197 339ZM250 499Q153
499 153 452T220 404Q275 404 318 451V499H250ZM72 285H399V229H72V285Z" />
<glyph unicode="&#xab;" glyph-name="guillemotleft" horiz-adv-x="585" d="M327 479L134 255L327 32H223L37 255L223 479H327ZM342 255L535 32H431L245 255L431 479H535L342 255Z" />
<glyph unicode="&#xac;" glyph-name="logicalnot" horiz-adv-x="579" d="M78 311V383H496V173H421V311H78Z" />
<glyph unicode="&#xae;" glyph-name="registered" horiz-adv-x="819" d="M262 708T410 708T663 603T769 349T664 95T410 -10T157 95T51 349T156 603ZM103 223T193 133T409 42T626 132T717 349T627 566T410 656T193 566T103 350ZM573 192Q573 175 585 154V150H518Q505
169 505 189V197Q505 253 490 274Q471 299 432 299H328V150H261V548H421Q500 548 539 515T578 428Q578 360 505 332V331Q533 321 553 291T573 206V192ZM418 358Q461 358 486 375T512 426Q512 490 416 490H328V358H418Z" />
<glyph unicode="&#xaf;" glyph-name="overscore" horiz-adv-x="312" d="M297 648V588H13V648H297Z" />
<glyph unicode="&#xb0;" glyph-name="degree" horiz-adv-x="378" d="M52 628T92 668T189 708T286 668T326 572T286 475T190 434T93 474T52 571ZM154 486T189 486T249 511T274 571T249 631T189 656T129 631T104 571T129 511Z" />
<glyph unicode="&#xb1;" glyph-name="plusminus" horiz-adv-x="606" d="M67 0V77H539V0H67ZM67 342V419H264V611H342V419H539V342H342V150H264V342H67Z" />
<glyph unicode="&#xb2;" glyph-name="twosuperior" horiz-adv-x="370" d="M248 850T285 817T323 739T295 659T232 601Q129 535 114 513V510H317V451H43V490Q43 529 77 564T152 622Q260 683 260 729Q260 789 184 789T61 750H57V815Q117 850 182 850Z" />
<glyph unicode="&#xb3;" glyph-name="threesuperior" horiz-adv-x="370" d="M308 744Q308 679 248 655V653Q322 630 322 557Q322 509 287 477T178 445T48 473V535H53Q104 507 167 507Q259 507 259 559Q259 621 147 621H111V681H140Q246 681 246 739Q246 789 168
789Q105 789 57 756H52V816Q111 850 176 850T274 821T308 744Z" />
<glyph unicode="&#xb4;" glyph-name="acute" horiz-adv-x="240" d="M111 711H210L97 578H35L111 711Z" />
<glyph unicode="&#xb5;" glyph-name="mu" horiz-adv-x="604" d="M84 -213V510H175V196Q175 74 285 74Q372 74 449 170V510H540V0H460L449 64V79H447Q408 36 369 13T275 -10T178 16H175V-213H84Z" />
<glyph unicode="&#xb6;" glyph-name="paragraph" horiz-adv-x="732" d="M683 698V619H602V-219H523V619H411V-219H332V184H296Q190 184 115 259T39 441T114 623T296 698H683Z" />
<glyph unicode="&#xb7;" glyph-name="middot" horiz-adv-x="260" d="M74 229V341H186V229H74Z" />
<glyph unicode="&#xb8;" glyph-name="cedilla" horiz-adv-x="307" d="M146 -63Q162 -59 188 -59T235 -78T257 -129Q257 -221 146 -221Q94 -221 48 -190L64 -155Q101 -178 133 -178Q190 -178 190 -132Q190 -117 180 -109T151 -101T108 -113L79 -97L150 17H192L146 -63Z" />
<glyph unicode="&#xb9;" glyph-name="onesuperior" horiz-adv-x="370" d="M232 510H307V451H84V510H168V768H164L88 731V797L178 844H232V510Z" />
<glyph unicode="&#xba;" glyph-name="ordmasculine" horiz-adv-x="514" d="M176 708T257 708T386 658T435 524T387 390T257 339T128 390T79 524T127 657ZM215 403T257 403T331 433T363 524T331 615T257 645T183 615T151 525T183 434ZM75 285H439V229H75V285Z" />
<glyph unicode="&#xbb;" glyph-name="guillemotright" horiz-adv-x="585" d="M451 255L258 479H362L548 255L362 32H258L451 255ZM50 32L243 255L50 479H154L340 255L154 32H50Z" />
<glyph unicode="&#xbc;" glyph-name="onequarter" horiz-adv-x="940" d="M239 369H314V310H91V369H175V627H171L95 590V656L185 703H239V369ZM727 710L288 -14H208L647 710H727ZM801 155H862V96H801V0H737V96H543V152L731 393H801V155ZM737 155V312H735L616 157V155H737Z" />
<glyph unicode="&#xbd;" glyph-name="onehalf" horiz-adv-x="940" d="M786 399T823 366T861 288T833 208T770 150Q667 84 652 62V59H855V0H581V39Q581 78 615 113T690 172Q798 232 798 278Q798 338 722 338T599 299H595V364Q655 399 720 399ZM721 710L282 -14H202L641
710H721ZM233 369H308V310H85V369H169V627H165L89 590V656L179 703H233V369Z" />
<glyph unicode="&#xbe;" glyph-name="threequarters" horiz-adv-x="940" d="M741 710L302 -14H222L661 710H741ZM815 155H876V96H815V0H751V96H557V152L745 393H815V155ZM751 155V312H749L630 157V155H751ZM335 603Q335 538 275 514V512Q349 489 349 416Q349 368
314 336T205 304T75 332V394H80Q131 366 194 366Q286 366 286 418Q286 480 174 480H138V540H167Q273 540 273 598Q273 648 195 648Q132 648 84 615H79V675Q138 709 203 709T301 680T335 603Z" />
<glyph unicode="&#xbf;" glyph-name="questiondown" horiz-adv-x="488" d="M328 510V398H216V510H328ZM450 -145Q355 -198 259 -198T102 -147T40 -9Q40 37 59 72T106 131T162 176Q228 231 228 305V317H316V301Q316 248 297 207T251 140T196 93Q130 43 130 -4Q130
-113 273 -113Q356 -113 446 -54H450V-145Z" />
<glyph unicode="&#xc0;" glyph-name="Agrave" horiz-adv-x="697" d="M223 883H322L398 750H336L223 883ZM593 0L518 179H179L104 0H5L301 698H396L692 0H593ZM215 267V262H482V267L350 586H348L215 267Z" />
<glyph unicode="&#xc1;" glyph-name="Aacute" horiz-adv-x="697" d="M375 883H474L361 750H299L375 883ZM593 0L518 179H179L104 0H5L301 698H396L692 0H593ZM215 267V262H482V267L350 586H348L215 267Z" />
<glyph unicode="&#xc2;" glyph-name="Acircumflex" horiz-adv-x="697" d="M390 873L503 750H424L349 823L274 750H195L308 873H390ZM593 0L518 179H179L104 0H5L301 698H396L692 0H593ZM215 267V262H482V267L350 586H348L215 267Z" />
<glyph unicode="&#xc3;" glyph-name="Atilde" horiz-adv-x="697" d="M469 855H514Q510 801 487 773T431 745T349 769T274 793Q241 793 231 750H187Q191 804 214 832T270 861T351 838T427 814Q461 814 469 855ZM593 0L518 179H179L104 0H5L301 698H396L692 0H593ZM215
267V262H482V267L350 586H348L215 267Z" />
<glyph unicode="&#xc4;" glyph-name="Adieresis" horiz-adv-x="697" d="M593 0L518 179H179L104 0H5L301 698H396L692 0H593ZM215 267V262H482V267L350 586H348L215 267ZM217 750V846H313V750H217ZM385 750V846H481V750H385Z" />
<glyph unicode="&#xc5;" glyph-name="Aring" horiz-adv-x="697" d="M310 918T349 918T415 891T443 824T416 758T349 730T283 757T255 824T282 890ZM329 775T349 775T383 789T398 824T384 858T349 873T315 859T300 824T314 790ZM593 0L518 179H179L104 0H5L301
698H396L692 0H593ZM215 267V262H482V267L350 586H348L215 267Z" />
<glyph unicode="&#xc6;" glyph-name="AE" horiz-adv-x="1040" d="M983 613H590V392H947V307H590V85H983V0H499V179H191L75 0H-33L427 698H983V613ZM499 262V613H474L247 265V262H499Z" />
<glyph unicode="&#xc7;" glyph-name="Ccedilla" horiz-adv-x="698" d="M381 -63Q397 -59 423 -59T470 -78T492 -129Q492 -221 381 -221Q329 -221 283 -190L299 -155Q336 -178 368 -178Q425 -178 425 -132Q425 -117 415 -109T386 -101T343 -113L314 -97L369 -8Q231
4 144 100T56 354T154 610T406 708Q535 708 643 643V553H638Q535 621 411 621T217 545T147 349T217 153T411 77T638 145H643V55Q536 -9 411 -10L381 -63Z" />
<glyph unicode="&#xc8;" glyph-name="Egrave" horiz-adv-x="638" d="M581 613H188V392H545V307H188V85H581V0H97V698H581V613ZM218 883H317L393 750H331L218 883Z" />
<glyph unicode="&#xc9;" glyph-name="Eacute" horiz-adv-x="638" d="M581 613H188V392H545V307H188V85H581V0H97V698H581V613ZM365 883H464L351 750H289L365 883Z" />
<glyph unicode="&#xca;" glyph-name="Ecircumflex" horiz-adv-x="638" d="M581 613H188V392H545V307H188V85H581V0H97V698H581V613ZM390 873L503 750H424L349 823L274 750H195L308 873H390Z" />
<glyph unicode="&#xcb;" glyph-name="Edieresis" horiz-adv-x="638" d="M581 613H188V392H545V307H188V85H581V0H97V698H581V613ZM206 750V846H302V750H206ZM374 750V846H470V750H374Z" />
<glyph unicode="&#xcc;" glyph-name="Igrave" horiz-adv-x="285" d="M188 698V0H97V698H188ZM22 883H121L197 750H135L22 883Z" />
<glyph unicode="&#xcd;" glyph-name="Iacute" horiz-adv-x="285" d="M188 698V0H97V698H188ZM164 883H263L150 750H88L164 883Z" />
<glyph unicode="&#xce;" glyph-name="Icircumflex" horiz-adv-x="285" d="M188 698V0H97V698H188ZM183 873L296 750H217L142 823L67 750H-12L101 873H183Z" />
<glyph unicode="&#xcf;" glyph-name="Idieresis" horiz-adv-x="285" d="M188 698V0H97V698H188ZM10 750V846H106V750H10ZM178 750V846H274V750H178Z" />
<glyph unicode="&#xd0;" glyph-name="Eth" horiz-adv-x="757" d="M22 315V382H104V698H350Q436 698 505 668T617 586Q703 483 703 349Q703 242 648 154Q586 57 478 20Q419 0 350 0H104V315H22ZM339 85Q463 85 538 158T613 349T538 540T339 613H195V382H341V315H195V85H339Z"
/>
<glyph unicode="&#xd1;" glyph-name="Ntilde" horiz-adv-x="803" d="M615 698H706V0H594L190 575H188V0H97V698H209L612 124H615V698ZM525 855H570Q566 801 543 773T487 745T405 769T330 793Q297 793 287 750H243Q247 804 270 832T326 861T407 838T483 814Q517
814 525 855Z" />
<glyph unicode="&#xd2;" glyph-name="Ograve" horiz-adv-x="811" d="M248 708T406 708T659 608T757 349Q754 190 659 90T406 -10T153 90T55 349Q58 508 153 608ZM146 230T215 153T405 75T596 152T666 349T596 545T406 623T216 546T146 349ZM288 883H387L463 750H401L288
883Z" />
<glyph unicode="&#xd3;" glyph-name="Oacute" horiz-adv-x="811" d="M248 708T406 708T659 608T757 349Q754 190 659 90T406 -10T153 90T55 349Q58 508 153 608ZM146 230T215 153T405 75T596 152T666 349T596 545T406 623T216 546T146 349ZM425 883H524L411 750H349L425
883Z" />
<glyph unicode="&#xd4;" glyph-name="Ocircumflex" horiz-adv-x="811" d="M248 708T406 708T659 608T757 349Q754 190 659 90T406 -10T153 90T55 349Q58 508 153 608ZM146 230T215 153T405 75T596 152T666 349T596 545T406 623T216 546T146 349ZM447 873L560 750H481L406
823L331 750H252L365 873H447Z" />
<glyph unicode="&#xd5;" glyph-name="Otilde" horiz-adv-x="811" d="M248 708T406 708T659 608T757 349Q754 190 659 90T406 -10T153 90T55 349Q58 508 153 608ZM146 230T215 153T405 75T596 152T666 349T596 545T406 623T216 546T146 349ZM525 855H570Q566 801
543 773T487 745T405 769T330 793Q297 793 287 750H243Q247 804 270 832T326 861T407 838T483 814Q517 814 525 855Z" />
<glyph unicode="&#xd6;" glyph-name="Odieresis" horiz-adv-x="811" d="M248 708T406 708T659 608T757 349Q754 190 659 90T406 -10T153 90T55 349Q58 508 153 608ZM146 230T215 153T405 75T596 152T666 349T596 545T406 623T216 546T146 349ZM274 750V846H370V750H274ZM442
750V846H538V750H442Z" />
<glyph unicode="&#xd7;" glyph-name="multiply" horiz-adv-x="563" d="M506 430L335 259V257L506 86L452 33L282 204H280L109 34L56 87L227 257V259L57 430L110 483L280 312H282L453 483L506 430Z" />
<glyph unicode="&#xd8;" glyph-name="Oslash" horiz-adv-x="811" d="M635 631Q754 531 757 349Q754 190 659 90T406 -10Q302 -10 219 38L171 -30L130 -1L178 67Q60 165 55 349Q58 508 153 608T406 708Q513 708 594 660L642 729L683 700L635 631ZM285 623T216 546T146
343T229 140L544 589Q485 623 406 623Q285 623 216 546ZM406 75Q526 75 596 152T666 356T584 559L269 110Q329 75 406 75Z" />
<glyph unicode="&#xd9;" glyph-name="Ugrave" horiz-adv-x="758" d="M575 698H666V262Q666 194 641 141T573 55T481 7T379 -10T278 6T186 55T118 140T92 262V698H183V259Q183 171 241 122T379 73T517 122T575 259V698ZM267 883H366L442 750H380L267 883Z" />
<glyph unicode="&#xda;" glyph-name="Uacute" horiz-adv-x="758" d="M575 698H666V262Q666 194 641 141T573 55T481 7T379 -10T278 6T186 55T118 140T92 262V698H183V259Q183 171 241 122T379 73T517 122T575 259V698ZM392 883H491L378 750H316L392 883Z" />
<glyph unicode="&#xdb;" glyph-name="Ucircumflex" horiz-adv-x="758" d="M575 698H666V262Q666 194 641 141T573 55T481 7T379 -10T278 6T186 55T118 140T92 262V698H183V259Q183 171 241 122T379 73T517 122T575 259V698ZM420 873L533 750H454L379 823L304 750H225L338
873H420Z" />
<glyph unicode="&#xdc;" glyph-name="Udieresis" horiz-adv-x="758" d="M575 698H666V262Q666 194 641 141T573 55T481 7T379 -10T278 6T186 55T118 140T92 262V698H183V259Q183 171 241 122T379 73T517 122T575 259V698ZM247 750V846H343V750H247ZM415 750V846H511V750H415Z"
/>
<glyph unicode="&#xdd;" glyph-name="Yacute" horiz-adv-x="645" d="M541 698H652L368 295V0H277V295L-7 698H104L320 379H325L541 698ZM345 883H444L331 750H269L345 883Z" />
<glyph unicode="&#xde;" glyph-name="Thorn" horiz-adv-x="671" d="M370 586Q442 586 496 567T579 514T623 444T637 364T623 285T580 214T496 162T370 142H188V0H97V698H188V586H370ZM361 228Q463 228 504 267T546 364T505 461T361 500H188V228H361Z" />
<glyph unicode="&#xdf;" glyph-name="germandbls" horiz-adv-x="610" d="M415 351Q468 339 512 302Q563 258 563 172T507 38T377 -10T244 13V95H248Q296 71 347 71T435 97T472 183T422 276T291 309H270V379H278Q348 379 390 414T433 503T399 590T305 623T208 590T170
475V0H79V486Q79 591 141 649T297 708T457 658T524 512Q524 387 415 352V351Z" />
<glyph unicode="&#xe0;" glyph-name="agrave" horiz-adv-x="555" d="M88 482Q175 520 274 520T427 462T480 323V0H400L389 64H386Q314 -10 201 -10Q133 -10 86 31T38 143T96 258T268 302H389V310Q389 376 357 405T244 434T94 400H88V482ZM389 145V229H280Q129
229 129 150T235 70Q279 70 320 91T389 145ZM155 711H254L330 578H268L155 711Z" />
<glyph unicode="&#xe1;" glyph-name="aacute" horiz-adv-x="555" d="M88 482Q175 520 274 520T427 462T480 323V0H400L389 64H386Q314 -10 201 -10Q133 -10 86 31T38 143T96 258T268 302H389V310Q389 376 357 405T244 434T94 400H88V482ZM389 145V229H280Q129
229 129 150T235 70Q279 70 320 91T389 145ZM287 711H386L273 578H211L287 711Z" />
<glyph unicode="&#xe2;" glyph-name="acircumflex" horiz-adv-x="555" d="M88 482Q175 520 274 520T427 462T480 323V0H400L389 64H386Q314 -10 201 -10Q133 -10 86 31T38 143T96 258T268 302H389V310Q389 376 357 405T244 434T94 400H88V482ZM389 145V229H280Q129
229 129 150T235 70Q279 70 320 91T389 145ZM314 701L427 578H348L273 651L198 578H119L232 701H314Z" />
<glyph unicode="&#xe3;" glyph-name="atilde" horiz-adv-x="555" d="M88 482Q175 520 274 520T427 462T480 323V0H400L389 64H386Q314 -10 201 -10Q133 -10 86 31T38 143T96 258T268 302H389V310Q389 376 357 405T244 434T94 400H88V482ZM389 145V229H280Q129
229 129 150T235 70Q279 70 320 91T389 145ZM389 683H434Q430 629 407 601T351 573T269 597T194 621Q161 621 151 578H107Q111 632 134 660T190 689T271 666T347 642Q381 642 389 683Z" />
<glyph unicode="&#xe4;" glyph-name="adieresis" horiz-adv-x="555" d="M88 482Q175 520 274 520T427 462T480 323V0H400L389 64H386Q314 -10 201 -10Q133 -10 86 31T38 143T96 258T268 302H389V310Q389 376 357 405T244 434T94 400H88V482ZM389 145V229H280Q129
229 129 150T235 70Q279 70 320 91T389 145ZM142 578V674H238V578H142ZM310 578V674H406V578H310Z" />
<glyph unicode="&#xe5;" glyph-name="aring" horiz-adv-x="555" d="M88 482Q175 520 274 520T427 462T480 323V0H400L389 64H386Q314 -10 201 -10Q133 -10 86 31T38 143T96 258T268 302H389V310Q389 376 357 405T244 434T94 400H88V482ZM389 145V229H280Q129 229
129 150T235 70Q279 70 320 91T389 145ZM230 739T269 739T335 712T363 645T336 579T269 551T203 578T175 645T202 711ZM249 596T269 596T303 610T318 645T304 679T269 694T235 680T220 645T234 611Z" />
<glyph unicode="&#xe6;" glyph-name="ae" horiz-adv-x="904" d="M861 255V226H473Q490 75 650 75Q751 75 828 126H831V37Q747 -10 642 -10Q506 -10 439 77Q382 -10 233 -10Q150 -10 94 31T37 142T95 256T267 299H388V310Q388 376 356 405T243 434T91 399H87V482Q174
520 270 520Q390 520 441 436Q504 520 621 520T800 443T861 255ZM388 169V226H279Q128 226 128 150Q128 116 160 93T250 70T348 92T388 169ZM473 299H771Q767 371 722 407T622 443T522 407T473 299Z" />
<glyph unicode="&#xe7;" glyph-name="ccedilla" horiz-adv-x="537" d="M285 -63Q301 -59 327 -59T374 -78T396 -129Q396 -221 285 -221Q233 -221 187 -190L203 -155Q240 -178 272 -178Q329 -178 329 -132Q329 -117 319 -109T290 -101T247 -113L218 -97L274 -7Q176
6 112 76T47 261T125 448T314 520Q404 520 487 471V385H483Q409 435 323 435T187 386T138 255T187 125T322 75T483 125H487V39Q406 -9 315 -10L285 -63Z" />
<glyph unicode="&#xe8;" glyph-name="egrave" horiz-adv-x="570" d="M527 255V223H141Q149 153 193 114T326 75T492 125H497V37Q413 -10 300 -10T118 59T49 247T110 443T288 520T466 443T527 255ZM141 297H436Q432 369 388 406T288 443T189 406T141 297ZM175 711H274L350
578H288L175 711Z" />
<glyph unicode="&#xe9;" glyph-name="eacute" horiz-adv-x="570" d="M527 255V223H141Q149 153 193 114T326 75T492 125H497V37Q413 -10 300 -10T118 59T49 247T110 443T288 520T466 443T527 255ZM141 297H436Q432 369 388 406T288 443T189 406T141 297ZM301 711H400L287
578H225L301 711Z" />
<glyph unicode="&#xea;" glyph-name="ecircumflex" horiz-adv-x="570" d="M527 255V223H141Q149 153 193 114T326 75T492 125H497V37Q413 -10 300 -10T118 59T49 247T110 443T288 520T466 443T527 255ZM141 297H436Q432 369 388 406T288 443T189 406T141 297ZM328
701L441 578H362L287 651L212 578H133L246 701H328Z" />
<glyph unicode="&#xeb;" glyph-name="edieresis" horiz-adv-x="570" d="M527 255V223H141Q149 153 193 114T326 75T492 125H497V37Q413 -10 300 -10T118 59T49 247T110 443T288 520T466 443T527 255ZM141 297H436Q432 369 388 406T288 443T189 406T141 297ZM155
578V674H251V578H155ZM323 578V674H419V578H323Z" />
<glyph unicode="&#xec;" glyph-name="igrave" horiz-adv-x="257" d="M83 0V510H174V0H83ZM8 711H107L183 578H121L8 711Z" />
<glyph unicode="&#xed;" glyph-name="iacute" horiz-adv-x="257" d="M83 0V510H174V0H83ZM150 711H249L136 578H74L150 711Z" />
<glyph unicode="&#xee;" glyph-name="icircumflex" horiz-adv-x="257" d="M83 0V510H174V0H83ZM169 701L282 578H203L128 651L53 578H-26L87 701H169Z" />
<glyph unicode="&#xef;" glyph-name="idieresis" horiz-adv-x="257" d="M83 0V510H174V0H83ZM-4 578V674H92V578H-4ZM164 578V674H260V578H164Z" />
<glyph unicode="&#xf0;" glyph-name="eth" horiz-adv-x="599" d="M362 637Q546 471 546 274Q546 149 485 70T305 -10T117 61T49 243T112 429T283 505Q342 505 392 479H395Q356 537 289 594L186 534L161 577L246 627Q194 663 144 689Q192 758 193 758Q266 716 322
671L408 723L434 680L362 637ZM233 70T297 70T409 115T458 251T410 386T297 431T185 387T137 252T185 116Z" />
<glyph unicode="&#xf1;" glyph-name="ntilde" horiz-adv-x="609" d="M356 520Q439 520 487 464T535 324V0H444V314Q444 436 334 436Q247 436 170 340V0H79V510H159L170 446V431H172Q253 520 356 520ZM429 683H474Q470 629 447 601T391 573T309 597T234 621Q201
621 191 578H147Q151 632 174 660T230 689T311 666T387 642Q421 642 429 683Z" />
<glyph unicode="&#xf2;" glyph-name="ograve" horiz-adv-x="608" d="M48 374T118 447T303 520T489 447T560 255T490 63T304 -10T118 63T48 255ZM238 73T304 73T419 118T469 255T420 392T304 437T189 392T139 256T188 119ZM184 711H283L359 578H297L184 711Z" />
<glyph unicode="&#xf3;" glyph-name="oacute" horiz-adv-x="608" d="M48 374T118 447T303 520T489 447T560 255T490 63T304 -10T118 63T48 255ZM238 73T304 73T419 118T469 255T420 392T304 437T189 392T139 256T188 119ZM325 711H424L311 578H249L325 711Z" />
<glyph unicode="&#xf4;" glyph-name="ocircumflex" horiz-adv-x="608" d="M48 374T118 447T303 520T489 447T560 255T490 63T304 -10T118 63T48 255ZM238 73T304 73T419 118T469 255T420 392T304 437T189 392T139 256T188 119ZM345 701L458 578H379L304 651L229
578H150L263 701H345Z" />
<glyph unicode="&#xf5;" glyph-name="otilde" horiz-adv-x="608" d="M48 374T118 447T303 520T489 447T560 255T490 63T304 -10T118 63T48 255ZM238 73T304 73T419 118T469 255T420 392T304 437T189 392T139 256T188 119ZM424 683H469Q465 629 442 601T386 573T304
597T229 621Q196 621 186 578H142Q146 632 169 660T225 689T307 666T382 642Q416 642 424 683Z" />
<glyph unicode="&#xf6;" glyph-name="odieresis" horiz-adv-x="608" d="M48 374T118 447T303 520T489 447T560 255T490 63T304 -10T118 63T48 255ZM238 73T304 73T419 118T469 255T420 392T304 437T189 392T139 256T188 119ZM172 578V674H268V578H172ZM340 578V674H436V578H340Z"
/>
<glyph unicode="&#xf7;" glyph-name="divide" horiz-adv-x="712" d="M78 372H634V291H78V372ZM310 100V192H402V100H310ZM402 562V470H310V562H402Z" />
<glyph unicode="&#xf8;" glyph-name="oslash" horiz-adv-x="608" d="M477 459Q560 384 560 260T490 63T304 -10Q229 -10 171 23L134 -30L93 -1L130 52Q48 125 48 249T118 447T304 520Q380 520 436 488L473 541L514 512L477 459ZM238 437T189 392T139 261T182 126L386
417Q349 437 304 437Q238 437 189 392ZM304 73Q370 73 419 118T469 250T425 386L221 94Q260 73 304 73Z" />
<glyph unicode="&#xf9;" glyph-name="ugrave" horiz-adv-x="610" d="M254 -10Q171 -10 123 46T75 186V510H166V196Q166 74 276 74Q363 74 440 170V510H531V0H451L440 64V79H438Q357 -10 254 -10ZM183 711H282L358 578H296L183 711Z" />
<glyph unicode="&#xfa;" glyph-name="uacute" horiz-adv-x="610" d="M254 -10Q171 -10 123 46T75 186V510H166V196Q166 74 276 74Q363 74 440 170V510H531V0H451L440 64V79H438Q357 -10 254 -10ZM324 711H423L310 578H248L324 711Z" />
<glyph unicode="&#xfb;" glyph-name="ucircumflex" horiz-adv-x="610" d="M254 -10Q171 -10 123 46T75 186V510H166V196Q166 74 276 74Q363 74 440 170V510H531V0H451L440 64V79H438Q357 -10 254 -10ZM344 701L457 578H378L303 651L228 578H149L262 701H344Z" />
<glyph unicode="&#xfc;" glyph-name="udieresis" horiz-adv-x="610" d="M254 -10Q171 -10 123 46T75 186V510H166V196Q166 74 276 74Q363 74 440 170V510H531V0H451L440 64V79H438Q357 -10 254 -10ZM171 578V674H267V578H171ZM339 578V674H435V578H339Z" />
<glyph unicode="&#xfd;" glyph-name="yacute" horiz-adv-x="533" d="M529 510L222 -230H130L216 -8L5 510H103L263 107H267L431 510H529ZM287 711H386L273 578H211L287 711Z" />
<glyph unicode="&#xfe;" glyph-name="thorn" horiz-adv-x="631" d="M244 520T341 520T510 448T583 255T511 62T341 -10T173 64H170V-230H79V730H170V446H173Q244 520 341 520ZM328 75Q402 75 447 122T492 255T447 388T328 435Q238 435 170 360V150Q238 75 328 75Z" />
<glyph unicode="&#xff;" glyph-name="ydieresis" horiz-adv-x="533" d="M529 510L222 -230H130L216 -8L5 510H103L263 107H267L431 510H529ZM133 578V674H229V578H133ZM301 578V674H397V578H301Z" />
<glyph unicode="&#x2013;" glyph-name="endash" horiz-adv-x="684" d="M610 240H74V321H610V240Z" />
<glyph unicode="&#x2014;" glyph-name="emdash" horiz-adv-x="891" d="M817 240H74V321H817V240Z" />
<glyph unicode="&#x2018;" glyph-name="quoteleft" horiz-adv-x="255" d="M183 465H71V577Q71 693 183 740V675Q128 645 128 577H183V465Z" />
<glyph unicode="&#x2019;" glyph-name="quoteright" horiz-adv-x="238" d="M73 740H185V628Q185 512 73 465V530Q128 560 128 628H73V740Z" />
<glyph unicode="&#x201a;" glyph-name="quotesinglbase" horiz-adv-x="260" d="M74 112H186V0Q186 -116 74 -163V-98Q129 -68 129 0H74V112Z" />
<glyph unicode="&#x201c;" glyph-name="quotedblleft" horiz-adv-x="437" d="M365 465H253V577Q253 693 365 740V675Q310 645 310 577H365V465ZM183 465H71V577Q71 693 183 740V675Q128 645 128 577H183V465Z" />
<glyph unicode="&#x201d;" glyph-name="quotedblright" horiz-adv-x="420" d="M73 740H185V628Q185 512 73 465V530Q128 560 128 628H73V740ZM255 740H367V628Q367 512 255 465V530Q310 560 310 628H255V740Z" />
<glyph unicode="&#x201e;" glyph-name="quotedblbase" horiz-adv-x="442" d="M74 112H186V0Q186 -116 74 -163V-98Q129 -68 129 0H74V112ZM256 112H368V0Q368 -116 256 -163V-98Q311 -68 311 0H256V112Z" />
<glyph unicode="&#x2022;" glyph-name="bullet" horiz-adv-x="377" d="M134 526T189 526T282 487T321 393T283 299T189 260T95 299T56 393T95 487Z" />
<glyph unicode="&#x2039;" glyph-name="guilsinglleft" horiz-adv-x="377" d="M327 479L134 255L327 32H223L37 255L223 479H327Z" />
<glyph unicode="&#x203a;" glyph-name="guilsinglright" horiz-adv-x="377" d="M243 255L50 479H154L340 255L154 32H50L243 255Z" />
</font>
</defs>
</svg>
