<?xml version="1.0" standalone="no"?>
<!DOCTYPE svg PUBLIC "-//W3C//DTD SVG 1.1//EN" "http://www.w3.org/Graphics/SVG/1.1/DTD/svg11.dtd">
<svg xmlns="http://www.w3.org/2000/svg">
<defs >
<font id="Karma" horiz-adv-x="519" ><font-face
    font-family="Karma Light"
    units-per-em="1000"
    panose-1="2 0 0 0 0 0 0 0 0 0"
    ascent="945"
    descent="-474"
    alphabetic="0" />
<glyph unicode=" " glyph-name="space" horiz-adv-x="268" />
<glyph unicode="!" glyph-name="exclam" horiz-adv-x="252" d="M146 -15T126 -15T93 -2T80 32T93 65T126 79T159 66T172 32T159 -1ZM106 186L97 690Q123 700 161 694L144 186Q125 180 106 186Z" />
<glyph unicode="&quot;" glyph-name="quotedbl" horiz-adv-x="269" d="M62 507L50 679Q85 689 121 682L104 507Q84 503 62 507ZM160 507L148 679Q183 689 219 682L202 507Q182 503 160 507Z" />
<glyph unicode="#" glyph-name="numbersign" horiz-adv-x="705" d="M447 235H603Q614 214 616 190H434L384 17H337L387 190H212L162 17H115L165 190H74Q62 209 60 235H178L233 424H102Q91 446 88 467H246L297 644H344L293 467L468 468L519 644H566L515 468H631Q641
453 645 424H502L447 235ZM400 235L455 424H280L225 235H400Z" />
<glyph unicode="$" glyph-name="dollar" horiz-adv-x="458" d="M366 558Q391 537 391 508T376 468T342 456Q342 550 232 550Q177 550 143 527T108 462Q108 410 160 376Q198 351 268 325T378 265T418 167T371 49T247 -15L252 -99Q224 -108 194 -99L200 -16Q138
-12 89 15T40 83Q40 101 51 114T79 127Q92 79 130 53T226 26T325 58T367 152Q367 206 330 233Q301 255 226 284T102 352T53 447T94 543T200 593L194 677Q224 686 252 677L247 596Q323 594 366 558Z" />
<glyph unicode="%" glyph-name="percent" horiz-adv-x="737" d="M433 153Q433 323 562 323T692 156Q692 73 658 29T562 -15T467 27T433 153ZM562 285Q479 285 479 155T561 24Q646 24 646 156Q646 217 625 251T562 285ZM45 450Q45 620 174 620T304 453Q304 370
270 326T174 282T79 324T45 450ZM174 582Q91 582 91 452T173 321Q258 321 258 453Q258 514 237 548T174 582ZM571 620L217 0H165L519 620H571Z" />
<glyph unicode="&amp;" glyph-name="ampersand" horiz-adv-x="721" d="M637 33Q672 33 692 61Q706 49 706 31T689 -2T642 -17Q576 -17 463 67Q372 -18 247 -18Q146 -18 93 30T40 155Q40 209 73 262T178 353Q104 452 104 524T146 635T260 675Q310 675 354 639T399
538T356 420T253 344Q263 331 287 305Q376 208 463 133Q513 200 533 291L476 297Q472 332 499 332H641Q640 329 641 325T641 316T637 307Q632 298 613 296L580 294Q557 183 498 106Q591 33 637 33ZM291 398T318 444T346 538T318 608T260 630Q206 630 180 602T154
531Q154 472 228 375L232 377L233 376Q291 398 318 444ZM100 108T138 67T264 26T428 95Q351 159 254 263Q234 284 204 320Q154 293 127 253T100 160Z" />
<glyph unicode="&apos;" glyph-name="quotesingle" horiz-adv-x="171" d="M62 507L50 679Q85 689 121 682L104 507Q84 503 62 507Z" />
<glyph unicode="(" glyph-name="parenleft" horiz-adv-x="271" d="M124 250Q124 -7 255 -170L222 -196Q188 -156 167 -126T118 -40T75 87T60 245T76 406T122 538T175 630T230 702L261 679Q237 644 230 633T196 573T158 486Q124 371 124 250Z" />
<glyph unicode=")" glyph-name="parenright" horiz-adv-x="271" d="M211 331T211 245T197 88T154 -39T104 -125T49 -196L16 -170Q147 -7 147 250Q147 440 75 573Q49 621 42 632T10 679L41 702Q72 665 95 631T148 539T194 406Z" />
<glyph unicode="*" glyph-name="asterisk" horiz-adv-x="600" d="M270 547L407 618Q432 584 432 543L280 516L389 404Q366 372 325 358L254 495L182 357Q144 369 118 404L226 515L75 542Q80 588 101 617L238 546L214 698Q255 709 293 698L270 547Z" />
<glyph unicode="+" glyph-name="plus" horiz-adv-x="470" d="M420 316V266H261V106H209V266H50V316H209V476H261V316H420Z" />
<glyph unicode="," glyph-name="comma" horiz-adv-x="172" d="M40 51T52 64T85 77T119 64T132 20T110 -48T60 -96Q56 -98 49 -92T42 -81Q68 -63 79 -17Q61 -15 51 -1T40 32Z" />
<glyph unicode="-" glyph-name="hyphen" horiz-adv-x="383" d="M50 270H333V220H50V270Z" />
<glyph unicode="." glyph-name="period" horiz-adv-x="172" d="M106 -15T86 -15T53 -2T40 32T53 65T86 79T119 66T132 32T119 -1Z" />
<glyph unicode="/" glyph-name="slash" horiz-adv-x="409" d="M79 -142H20L330 696H389L79 -142Z" />
<glyph unicode="0" glyph-name="zero" horiz-adv-x="494" d="M325 575T247 575T132 507T95 299T132 95T247 30T362 94T399 299T362 507ZM138 620T247 620T407 542T459 299T408 60T247 -15T87 60T35 299T86 541Z" />
<glyph unicode="1" glyph-name="one" horiz-adv-x="342" d="M273 0H58V7Q58 27 71 32Q77 35 86 36L151 39V552L75 524Q62 519 54 530T45 553L148 611Q165 620 183 620Q209 620 209 591V41L296 35Q300 0 273 0Z" />
<glyph unicode="2" glyph-name="two" horiz-adv-x="439" d="M51 547T99 583T223 620T346 578T393 464Q393 356 280 220Q243 177 218 152T155 90T106 41L352 44L362 107Q365 126 381 134T404 135V0H40Q34 17 36 29Q44 37 80 73T131 123T179 174T228 230T268 284T304
343Q333 407 333 458T302 541T215 574T129 540T98 445Q78 445 65 457T51 495Q51 547 99 583Z" />
<glyph unicode="3" glyph-name="three" horiz-adv-x="426" d="M267 380T287 408T307 478T279 547T204 575T134 549T109 476Q84 478 70 492T59 528Q64 565 106 592T213 620T324 582T369 489Q369 378 250 330Q318 319 357 276T396 169Q396 89 337 37T183 -15Q120
-15 77 9T34 70T70 117Q80 77 110 53T198 28T296 67T334 168Q333 208 314 235T263 276Q207 298 130 294L129 340Q181 340 237 366Q267 380 287 408Z" />
<glyph unicode="4" glyph-name="four" horiz-adv-x="455" d="M440 197V152H352V0L297 -10V152H39Q31 160 26 173T20 195L293 610Q322 618 350 610L351 197H440ZM297 197V546L73 197H297Z" />
<glyph unicode="5" glyph-name="five" horiz-adv-x="413" d="M209 374Q290 374 340 331T390 196T333 45T181 -15Q111 -15 72 6T33 65Q33 98 73 102Q84 28 185 28Q250 28 289 73T329 193T289 297T189 327T85 300L73 307L87 611L344 610L341 561H130L122 362Q162
374 209 374Z" />
<glyph unicode="6" glyph-name="six" horiz-adv-x="467" d="M117 302Q186 347 266 347T388 303T430 179T381 42T248 -15Q55 -15 55 241Q55 426 118 523T298 620Q351 620 378 604T405 560Q405 520 365 515Q365 539 347 558T291 577Q218 577 173 505T117 302ZM115
238Q115 135 149 82T245 28T338 66T370 170T340 269T253 303Q175 303 115 253V238Z" />
<glyph unicode="7" glyph-name="seven" horiz-adv-x="378" d="M15 611H363Q370 597 370 585L121 -4L61 15L310 571L67 567L57 498Q54 481 37 475T15 476V611Z" />
<glyph unicode="8" glyph-name="eight" horiz-adv-x="447" d="M350 297T383 260T417 157T363 38T222 -15T92 28T47 132T85 243T186 326Q138 356 112 391T86 483T129 580T235 620T342 585T386 486Q386 396 289 333Q350 297 383 260ZM195 580T166 553T136 485T166
415T259 350Q335 407 335 482Q335 526 311 553T241 580ZM169 281T135 237T101 144T133 62T228 28T329 63T367 146T334 228T241 294L220 306Q169 281 135 237Z" />
<glyph unicode="9" glyph-name="nine" horiz-adv-x="431" d="M206 620Q399 620 399 364Q399 179 336 82T156 -15Q103 -15 76 1T49 45Q49 85 89 90Q89 66 107 47T163 28Q236 28 281 100T337 303Q268 258 188 258T66 302T24 426T73 563T206 620ZM339 367Q339 470
305 523T209 577T116 539T84 435T114 336T201 302Q279 302 339 352V367Z" />
<glyph unicode=":" glyph-name="colon" horiz-adv-x="172" d="M106 291T86 291T53 304T40 338T53 371T86 385T119 372T132 338T119 305ZM106 -15T86 -15T53 -2T40 32T53 65T86 79T119 66T132 32T119 -1Z" />
<glyph unicode=";" glyph-name="semicolon" horiz-adv-x="189" d="M57 51T69 64T102 77T136 64T149 20T127 -48T77 -96Q73 -98 66 -92T59 -81Q85 -63 96 -17Q78 -15 68 -1T57 32ZM132 358T132 338T119 305T86 291T53 304T40 338T53 371T86 385T119 372Z" />
<glyph unicode="&lt;" glyph-name="less" horiz-adv-x="441" d="M391 436L114 291L391 146L367 100L40 272V310L367 482L391 436Z" />
<glyph unicode="=" glyph-name="equal" horiz-adv-x="470" d="M50 254H420V204H50V254ZM50 383H420V333H50V383Z" />
<glyph unicode="&gt;" glyph-name="greater" horiz-adv-x="421" d="M54 482L381 310V272L54 100L30 146L307 291L30 436L54 482Z" />
<glyph unicode="?" glyph-name="question" horiz-adv-x="482" d="M192 79T212 79T245 66T258 32T245 -1T212 -15T179 -2T166 32T179 65ZM50 624T102 666T243 709T381 665T432 543T373 408T239 332L233 179Q213 176 192 179L187 363Q269 384 320 433T372 540T337
633T239 668T140 628T104 529Q50 529 50 573Q50 624 102 666Z" />
<glyph unicode="@" glyph-name="at" horiz-adv-x="950" d="M493 -163Q293 -163 172 -50T50 253T173 564T500 684Q680 684 790 596T900 366T818 138T600 53Q564 53 558 74Q555 87 558 107Q486 41 413 41T301 94T274 250T350 417T508 481Q561 481 607 457L609 473L657
480L604 93Q716 89 784 162T852 361T755 565T498 644Q319 644 210 538T100 259T210 -18T500 -123Q634 -123 728 -63L740 -103Q628 -163 493 -163ZM489 436Q419 436 378 384T327 261T341 140T434 90Q468 90 495 103T564 147L598 393Q584 408 555 422T489 436Z" />
<glyph unicode="A" glyph-name="A" horiz-adv-x="597" d="M563 0H382V8Q382 30 395 36Q401 39 410 40L460 43L403 236H183L127 45L201 39Q205 0 178 0H10V8Q10 30 23 36Q30 39 78 43L272 676Q300 680 328 676L521 45H522L586 39Q590 0 563 0ZM197 281H390L293
609L197 281Z" />
<glyph unicode="B" glyph-name="B" horiz-adv-x="531" d="M70 677H274Q368 677 417 630T467 511Q467 407 360 360Q417 348 458 305T501 196Q502 104 441 52T279 0H42Q42 0 42 8Q42 30 55 36Q61 39 70 40L120 43V632L47 638Q43 677 70 677ZM178 634V372H227Q321
372 363 407T405 510T360 610T229 637L179 634H178ZM356 41T397 78T439 192T393 301T239 332L178 331V43L254 42Q356 41 397 78Z" />
<glyph unicode="C" glyph-name="C" horiz-adv-x="547" d="M326 690Q406 690 460 654T514 566T461 512Q461 575 423 609T319 644Q214 644 159 559T103 336T157 119T324 39T509 100Q521 94 521 80Q521 52 463 19T319 -15Q187 -15 116 72T40 318T113 583T326 690Z" />
<glyph unicode="D" glyph-name="D" horiz-adv-x="652" d="M70 677H273Q453 677 532 596T612 345T527 88T273 0H42V8Q42 30 55 36Q61 39 70 40L120 43V632L47 638Q43 677 70 677ZM178 42H252Q395 42 472 115T550 344T470 571T229 636L178 634V42Z" />
<glyph unicode="E" glyph-name="E" horiz-adv-x="547" d="M501 129V0H42V8Q42 30 55 36Q61 39 70 40L120 43V630L47 637Q43 675 71 675H489V536Q489 509 450 513L440 625L178 630V358L374 369Q380 339 374 304L178 315V45L452 51L462 152Q470 156 485 152T501 129Z" />
<glyph unicode="F" glyph-name="F" horiz-adv-x="510" d="M490 675V546Q490 519 451 523L440 630H180V370L375 381Q381 351 375 316L180 327V45L266 39Q270 0 243 0H42Q42 0 42 8Q42 30 55 36Q61 39 70 40L120 43V630L47 637Q43 675 71 675H490Z" />
<glyph unicode="G" glyph-name="G" horiz-adv-x="612" d="M402 303H596Q596 303 596 296Q596 266 568 263L544 260V65Q508 29 444 7T314 -15Q188 -15 117 70T40 318T116 586T346 692Q444 692 492 654T540 564T487 512Q487 581 446 613T332 646Q220 646 161 560T102
335T155 115T325 32Q424 32 485 80V258L380 264Q376 303 402 303Z" />
<glyph unicode="H" glyph-name="H" horiz-adv-x="699" d="M629 0H443V8Q443 30 456 36Q462 39 471 40L521 43V316H178V45L252 39Q256 0 229 0H42V8Q42 30 55 36Q61 39 70 40L120 43V630L47 636Q43 675 70 675H257V668Q257 646 244 639Q238 636 229 635L179 632V361H521V630L448
636Q444 675 471 675H657V668Q657 646 644 639Q638 636 629 635L579 632V45L652 39Q656 0 629 0Z" />
<glyph unicode="I" glyph-name="I" horiz-adv-x="299" d="M178 632V45L252 39Q256 0 229 0H42V8Q42 30 55 36Q61 39 70 40L120 43V630L47 636Q43 675 70 675H257V668Q257 646 244 639Q238 636 229 635L179 632H178Z" />
<glyph unicode="J" glyph-name="J" horiz-adv-x="306" d="M72 675H264Q264 675 264 668Q264 646 251 639Q244 636 191 632V128Q191 44 155 -9T54 -62Q24 -62 2 -46T-20 -10Q-20 29 19 27Q22 -15 68 -15Q102 -15 117 14T133 117V630L49 636Q45 675 72 675Z" />
<glyph unicode="K" glyph-name="K" horiz-adv-x="590" d="M395 675H561Q561 675 561 668Q561 646 548 639Q541 636 494 632L268 361L499 41L560 35Q564 0 537 0H454L231 317L178 253V45L252 39Q256 0 229 0H42V8Q42 30 55 36Q61 39 70 40L120 43V630L47 636Q43
675 70 675H257V668Q257 646 244 639Q238 636 229 635L179 632L178 317L435 630L372 636Q368 675 395 675Z" />
<glyph unicode="L" glyph-name="L" d="M499 129V0H42V8Q42 30 55 36Q61 39 70 40L120 43V632L46 638Q42 677 69 677H256V670Q256 648 243 641Q237 638 228 637L178 634V45L450 49L460 152Q499 156 499 129Z" />
<glyph unicode="M" glyph-name="M" horiz-adv-x="786" d="M747 0H572V8Q572 30 585 36Q592 39 646 43L608 575L418 127Q394 122 379 125L182 559L142 45L213 39Q217 0 190 0H15V8Q15 30 28 36Q35 39 89 43L138 632L66 638Q62 677 89 677H195L405 209L598 677H707Q734
677 730 638L660 632L706 47L770 39Q774 0 747 0Z" />
<glyph unicode="N" glyph-name="N" horiz-adv-x="682" d="M478 675H657Q657 675 657 668Q657 646 644 639Q638 636 629 635L577 632V11Q554 0 532 0L170 562V45L244 39Q248 0 221 0H42Q42 0 42 8Q42 30 55 36Q61 39 70 40L121 43V630L47 636Q43 675 70 675H169L529
115V630L455 636Q451 675 478 675Z" />
<glyph unicode="O" glyph-name="O" horiz-adv-x="629" d="M148 120Q172 78 214 55T314 31Q423 32 477 115T531 335Q531 470 482 554Q430 644 319 644T153 559T99 339T148 120ZM326 690Q398 690 459 654Q496 633 523 598T569 501T589 358Q591 190 517 88T298 -15Q180
-15 112 72T40 319T112 585T326 690Z" />
<glyph unicode="P" glyph-name="P" horiz-adv-x="540" d="M70 677H274Q397 677 458 625T520 490Q520 277 250 277Q214 277 178 280V45L252 39Q256 0 229 0H42Q42 0 42 8Q42 30 55 36Q61 39 70 40L120 43V632L47 638Q43 677 70 677ZM242 319Q353 319 405 357T458
480T403 604T229 637L178 634V322Q212 319 242 319Z" />
<glyph unicode="Q" glyph-name="Q" horiz-adv-x="646" d="M598 -66Q606 -76 606 -95T590 -127T547 -141T494 -134T435 -110T384 -81T328 -46T281 -14Q171 -8 108 78T40 322T112 585T326 690Q398 690 459 654Q496 633 523 598T569 501T589 358Q591 209 532 110T357
-10Q496 -82 548 -82Q573 -82 598 -66ZM148 120Q172 78 214 55T314 31Q423 32 477 115T531 335Q531 470 482 554Q430 644 319 644T153 559T99 339T148 120Z" />
<glyph unicode="R" glyph-name="R" horiz-adv-x="563" d="M42 0V10Q42 27 48 32Q61 40 70 40L120 43V632L47 638Q47 639 47 647T46 658T49 666Q53 677 70 677H286Q497 677 497 514Q497 431 443 382T306 321Q369 188 436 113T549 37Q549 13 538 -1T509 -15Q451
-15 376 91T257 317H254Q216 317 179 320V45L253 39Q253 6 238 1Q235 0 230 0H42ZM179 634V362Q215 359 247 359Q339 359 387 396T436 500Q436 577 396 608Q356 638 298 638Q261 638 180 634H179Z" />
<glyph unicode="S" glyph-name="S" horiz-adv-x="486" d="M396 650Q429 624 429 590T413 542T374 528Q374 580 343 610T251 640T150 613T111 534Q111 474 167 437Q211 408 269 384T353 347T408 312Q461 273 461 194T394 50T221 -15Q144 -15 85 17T25 99Q25 121
37 136T70 151Q85 94 128 65T241 35T355 74T401 180Q401 210 393 231T362 269T322 295Q294 310 249 329T174 363T113 402Q51 447 51 520T107 641T251 690Q340 692 396 650Z" />
<glyph unicode="T" glyph-name="T" horiz-adv-x="594" d="M20 675H574V560Q574 533 535 537L529 630H328V45L402 39Q406 0 379 0H192Q192 0 192 8Q192 30 205 36Q211 39 220 40L270 43V630H65L59 537Q20 533 20 560V675Z" />
<glyph unicode="U" glyph-name="U" horiz-adv-x="640" d="M442 675H615Q615 675 615 668Q615 646 602 639Q596 636 587 635L539 632V244Q539 125 483 55T307 -15Q99 -15 99 228V630L26 636Q22 675 49 675H235Q235 675 235 668Q235 646 222 639Q216 636 207 635L157
632L156 237Q156 30 314 30Q399 30 445 81T492 236V630L419 636Q415 675 442 675Z" />
<glyph unicode="V" glyph-name="V" horiz-adv-x="605" d="M454 675H600Q600 675 600 668Q600 638 572 635L553 632L319 0H277L60 630L6 636Q2 675 29 675H203V668Q203 646 190 639Q184 636 175 635L125 632H124L305 83L501 630L431 636Q427 675 454 675Z" />
<glyph unicode="W" glyph-name="W" horiz-adv-x="938" d="M780 675H933Q933 675 933 668Q933 646 920 639Q914 636 887 633L679 0H632L471 511L291 0H248L59 630L6 636Q2 675 29 675H200V668Q200 646 187 639Q180 636 125 632L276 94L453 616H505L661 91L831 630L757
636Q753 675 780 675Z" />
<glyph unicode="X" glyph-name="X" horiz-adv-x="606" d="M572 0H411V8Q411 30 424 36Q430 39 469 43L298 296L133 45H134L191 39Q195 0 168 0H10V8Q10 30 23 36Q30 40 71 42L271 335L70 632L16 638Q12 677 39 677H203V670Q203 648 190 641Q183 638 141 634L311
384L459 633L402 638Q398 677 425 677H574V670Q574 648 561 641Q555 638 527 635H520L337 345L541 45L595 39Q599 0 572 0Z" />
<glyph unicode="Y" glyph-name="Y" horiz-adv-x="580" d="M427 677H575Q575 677 575 670Q575 640 547 637L527 634H526L324 272V45L398 39Q402 0 375 0H186V8Q186 30 199 36Q205 39 214 40L264 43V272L60 632L6 638Q2 677 29 677H202V670Q202 648 189 641Q183
638 174 637L126 634L304 317L473 632L404 638Q400 677 427 677Z" />
<glyph unicode="Z" glyph-name="Z" horiz-adv-x="518" d="M490 0H33Q31 3 23 21L410 638L119 629L106 538Q103 518 92 511T67 507V685H481Q485 678 491 664L103 45L437 54L450 153Q453 173 464 180T490 184V0Z" />
<glyph unicode="[" glyph-name="bracketleft" horiz-adv-x="208" d="M114 645V-140H198V-180H60V685H198V645H114Z" />
<glyph unicode="\" glyph-name="backslash" horiz-adv-x="409" d="M388 -142H329L19 696H78L388 -142Z" />
<glyph unicode="]" glyph-name="bracketright" horiz-adv-x="198" d="M94 -140V645H10V685H148V-180H10V-140H94Z" />
<glyph unicode="^" glyph-name="asciicircum" horiz-adv-x="478" d="M428 204H374L244 564L106 204H50L225 653H263L428 204Z" />
<glyph unicode="_" glyph-name="underscore" horiz-adv-x="380" d="M-40 -89H420V-139H-40V-89Z" />
<glyph unicode="`" glyph-name="grave" horiz-adv-x="600" d="M266 529L70 635Q79 652 95 665T128 679L292 555Q281 536 266 529Z" />
<glyph unicode="a" glyph-name="a" horiz-adv-x="497" d="M422 -16Q363 -16 356 51Q330 24 289 5T189 -15T90 20T50 118Q50 171 87 210Q131 258 240 258Q302 258 355 242V331Q355 384 325 420T237 456Q137 456 125 357Q105 355 92 366T79 403Q79 444 121 472T231
500Q283 500 338 475Q370 460 390 424T410 334V35L477 27Q477 -16 422 -16ZM355 185Q307 215 240 215T144 191T114 125T140 58T214 33Q295 33 355 96V185Z" />
<glyph unicode="b" glyph-name="b" horiz-adv-x="543" d="M147 423Q222 500 306 500T445 438T503 255T443 60T268 -15Q206 -15 140 17L92 36V632L36 638Q16 640 16 676L147 694V423ZM286 32Q365 32 404 92T443 242T406 389T290 448Q250 448 221 433T147 381V84Q166
66 203 49T286 32Z" />
<glyph unicode="c" glyph-name="c" horiz-adv-x="447" d="M272 500Q334 500 369 475T405 409Q405 363 357 363Q356 399 331 426T256 453Q180 453 140 391T100 237Q100 158 132 100Q169 34 258 34Q331 34 398 87Q408 80 408 68Q408 38 352 12T233 -15Q141 -15 92
50T40 228T99 420T272 500Z" />
<glyph unicode="d" glyph-name="d" horiz-adv-x="535" d="M461 -15Q402 -15 397 64Q322 -15 238 -15T98 47T40 231T100 426T276 500Q334 500 397 472V632L341 638Q321 640 321 676L452 694V36L515 28Q513 -15 461 -15ZM258 453Q179 453 140 393T100 244T138 96T254
37Q294 37 323 52T397 104V401Q378 419 341 436T258 453Z" />
<glyph unicode="e" glyph-name="e" horiz-adv-x="452" d="M421 268H104Q102 244 102 232Q102 146 140 90T256 34T400 87Q410 80 410 67Q410 41 356 13T238 -15Q150 -15 95 45T40 230T106 427T264 500Q307 500 339 483T388 438Q421 382 421 314V268ZM361 372T333
415T253 458T163 417T110 307H359Q361 372 333 415Z" />
<glyph unicode="f" glyph-name="f" horiz-adv-x="302" d="M274 35Q274 27 274 22T273 12T270 6Q260 0 251 0H49V7Q49 27 62 32Q69 35 122 39V445H51Q51 447 51 453T50 462T52 470T55 478Q60 485 74 485H122V525Q122 615 156 662T257 709Q288 709 310 696T332 662T321
630T293 619Q292 642 277 655T242 669Q208 669 193 642T177 553V485H298Q301 445 274 445H177V41L274 35Z" />
<glyph unicode="g" glyph-name="g" horiz-adv-x="458" d="M207 155Q189 155 163 159Q129 123 132 110T215 94Q343 92 394 66T446 -39T384 -171T222 -224T70 -187T18 -90Q18 -8 104 51Q75 62 75 93T125 172Q50 209 43 295T85 440T219 500Q278 500 320 471L437 501Q446
489 447 475T437 450Q422 442 348 444Q382 401 381 329T335 206T207 155ZM160 459T129 421T98 329T128 234T211 194T294 235T325 329T296 422T213 461ZM69 -121T113 -146T234 -172T357 -135T403 -47Q403 15 326 29Q282 37 215 39T134 43Q105 22 87 -10T69 -74Q69
-121 113 -146Z" />
<glyph unicode="h" glyph-name="h" horiz-adv-x="611" d="M562 0H381V7Q381 27 394 32Q401 35 453 39V291Q453 368 421 408T336 448T251 431T180 380V41L257 35Q260 0 234 0H52V7Q52 27 65 32Q72 35 125 39V632L69 638Q49 640 49 676L180 694V428Q246 500 340
500Q407 500 456 453T507 300L508 41L585 35Q588 0 562 0Z" />
<glyph unicode="i" glyph-name="i" horiz-adv-x="283" d="M234 0H52V7Q52 27 65 32Q72 35 125 39V443L69 448Q49 450 49 485L180 500V41L257 35Q260 0 234 0ZM164 586T144 586T113 598T101 629T112 660T144 672T175 660T187 629T176 598Z" />
<glyph unicode="j" glyph-name="j" horiz-adv-x="237" d="M100 672T120 672T151 660T163 629T152 598T120 586T89 598T77 629T88 660ZM155 -9Q155 -101 122 -162T14 -224Q-16 -224 -38 -211T-60 -173Q-60 -132 -21 -135Q-18 -177 28 -177Q100 -177 100 -45V443L44
449Q24 451 24 485L155 500V-9Z" />
<glyph unicode="k" glyph-name="k" horiz-adv-x="524" d="M340 485H492V478Q492 452 464 449L433 446L284 284L462 40L529 35Q532 0 506 0H430L249 246L180 170V41L257 35Q260 0 234 0H52V7Q52 27 65 32Q72 35 125 39V632L69 638Q49 640 49 676L180 694V225L377
444L317 450Q314 485 340 485Z" />
<glyph unicode="l" glyph-name="l" horiz-adv-x="277" d="M228 0H50V7Q50 27 63 32Q70 36 125 39V633L69 639Q49 641 49 675L180 693V41L251 35Q254 0 228 0Z" />
<glyph unicode="m" glyph-name="m" horiz-adv-x="922" d="M873 0H692V7Q692 27 705 32Q712 35 764 39V290Q764 367 732 407T640 447Q597 447 565 428T492 371Q501 344 501 299V41L578 35Q582 0 555 0H374V7Q374 27 387 32Q394 35 446 39V290Q446 366 412 406T319
447Q278 447 247 430T180 379V41L257 35Q260 0 234 0H52V7Q52 27 65 32Q72 35 125 39V446H79Q49 446 49 484L164 500L177 428H180Q246 500 330 500Q376 500 417 477T480 405Q501 432 520 450T574 484T651 500Q718 500 768 452T819 299V41L896 35Q900 0 873 0Z"
/>
<glyph unicode="n" glyph-name="n" horiz-adv-x="604" d="M555 0H378V7Q378 27 391 32Q398 36 453 39V301Q453 450 337 450Q295 450 260 433T180 378V41L251 35Q254 0 228 0H50V7Q50 27 63 32Q70 36 125 39V443L69 449Q49 451 49 484L164 500L178 420H181Q265
500 352 500Q416 500 462 455T508 312V41L578 35Q582 0 555 0Z" />
<glyph unicode="o" glyph-name="o" horiz-adv-x="499" d="M100 333T100 241T137 89T247 30T359 90T399 240T362 393T252 455T140 394ZM256 500Q325 500 385 458Q418 434 438 384T459 261Q461 138 403 62T245 -15T94 48T41 230T98 425T256 500Z" />
<glyph unicode="p" glyph-name="p" horiz-adv-x="538" d="M142 421Q223 500 304 500T440 438T498 255T438 59T263 -15Q205 -15 142 13V-172L219 -178Q222 -213 196 -213H14V-206Q14 -186 27 -180Q34 -178 87 -174V440L31 446Q11 448 11 480L126 495L142 421ZM281
32Q360 32 399 92T438 241T401 389T285 448Q245 448 216 433T142 381V83Q161 65 198 49T281 32Z" />
<glyph unicode="q" glyph-name="q" horiz-adv-x="513" d="M504 -213H322V-206Q322 -186 335 -180Q342 -178 395 -174V49Q325 -15 240 -15T98 48T40 231T99 425T272 500Q336 500 395 472V485H450V-172L527 -178Q530 -213 504 -213ZM255 453Q178 453 139 393T100
244T138 97T256 39Q297 39 326 52T395 95V403Q377 421 340 437T255 453Z" />
<glyph unicode="r" glyph-name="r" horiz-adv-x="395" d="M334 500Q390 500 390 451Q390 399 378 384Q366 373 341 375Q341 446 303 446Q256 446 180 377V41L267 35Q270 0 244 0H52Q52 0 52 7Q52 27 65 32Q72 35 125 39V439L69 445Q49 447 49 480L172 496L178
421H181Q213 452 257 476T334 500Z" />
<glyph unicode="s" glyph-name="s" horiz-adv-x="384" d="M42 426T93 463T202 500T300 479T339 421Q338 396 321 386T287 377Q288 412 267 433T201 455T125 434T93 377T122 322T207 281T280 251T322 226Q363 197 362 139T310 32T174 -15Q114 -13 68 11T23 76Q24
96 36 108T65 119Q74 80 107 56T189 30T272 54T308 118T286 177T217 214T157 236T115 256T74 283Q41 318 41 363Q42 426 93 463Z" />
<glyph unicode="t" glyph-name="t" horiz-adv-x="365" d="M151 445V146Q151 86 163 60T212 34T272 41T333 78Q350 72 350 55Q350 29 303 7T214 -16Q149 -16 123 22T96 134V445H26Q22 485 49 485H96V601L151 620V485H340Q341 469 334 445H151Z" />
<glyph unicode="u" glyph-name="u" horiz-adv-x="564" d="M262 -15Q195 -15 145 33T94 186V444L18 450Q14 485 41 485H149V195Q149 118 181 78T278 37T412 97V444L335 450Q332 485 358 485H467V54L523 48Q543 46 543 10L428 1L417 53Q351 -15 262 -15Z" />
<glyph unicode="v" glyph-name="v" horiz-adv-x="466" d="M336 485H461Q461 485 461 472Q461 464 454 457T433 449H429L249 0H207L41 444L5 450Q2 485 26 485H176V478Q176 458 163 452Q156 450 104 446L234 70L373 444L313 450Q310 485 336 485Z" />
<glyph unicode="w" glyph-name="w" horiz-adv-x="697" d="M567 485H692Q692 485 692 472Q692 464 685 457T664 449H661L496 0H461L349 322L228 0H193L43 444L5 450Q2 485 26 485H176V478Q176 458 163 452Q156 450 105 446L217 73L348 444H369L486 78L606 444H605L544
450Q540 485 567 485Z" />
<glyph unicode="x" glyph-name="x" horiz-adv-x="475" d="M446 0H298V7Q298 33 326 36L361 39L237 210L127 41L188 35Q192 0 165 0H10Q11 3 10 7T10 16T14 25Q19 34 38 36L75 39H76L214 241L67 444H66L18 450Q14 485 41 485H191V478Q191 452 163 449L129 446L250
279L357 444L302 450Q298 485 325 485H462Q461 482 462 478T462 468T458 459Q453 449 434 449L410 448L272 249L423 41L469 35Q472 0 446 0Z" />
<glyph unicode="y" glyph-name="y" horiz-adv-x="484" d="M351 485H480Q479 482 480 478T480 469T476 460Q471 451 440 448L264 12Q211 -119 175 -167T103 -215T51 -201T35 -167T45 -137T67 -125T84 -127Q76 -163 108 -163Q151 -163 226 19L54 444L6 450Q2 485
29 485H187V478Q187 458 174 452Q167 450 116 446L251 89L388 444L328 450Q324 485 351 485Z" />
<glyph unicode="z" glyph-name="z" horiz-adv-x="388" d="M52 485H362Q368 476 372 463L85 39L329 43L334 101Q335 114 343 122T360 131T373 129V0H24Q18 9 15 22L305 450L95 445L92 388Q91 375 83 367T66 358T52 360V485Z" />
<glyph unicode="{" glyph-name="braceleft" horiz-adv-x="306" d="M101 629T135 665T222 701T296 688L289 659Q267 661 259 661Q207 661 182 639T157 564Q157 540 165 477T174 381Q174 273 123 256V250Q174 233 174 125Q174 93 166 29T157 -59Q157 -112 182 -134T259
-156Q267 -156 289 -154L296 -183Q274 -196 222 -196T136 -160T101 -64Q101 -27 109 36T117 134T112 183T97 210T80 227T50 241V265Q82 277 94 293T112 323T117 372T109 468T101 569Q101 629 135 665Z" />
<glyph unicode="|" glyph-name="bar" horiz-adv-x="254" d="M100 -196V701H154V-196H100Z" />
<glyph unicode="}" glyph-name="braceright" horiz-adv-x="306" d="M-10 688Q12 701 64 701T150 665T185 569Q185 530 177 469T169 373T174 324T191 293T236 265V241Q213 231 207 227T190 210T174 184T169 135T177 36T185 -64Q185 -124 151 -160T64 -196T-10 -183L-3
-154Q19 -156 27 -156Q79 -156 104 -134T129 -59Q129 -35 121 29T112 125Q112 233 163 250V256Q112 273 112 381Q112 413 120 476T129 564Q129 617 104 639T27 661Q19 661 -3 659L-10 688Z" />
<glyph unicode="~" glyph-name="asciitilde" horiz-adv-x="534" d="M129 244L100 258Q114 301 144 322T206 342T276 312T338 282T380 293T405 328L434 317Q423 277 395 252T329 229T252 260T187 290Q150 291 129 244Z" />
<glyph unicode="&#xa0;" glyph-name="uni00A0" horiz-adv-x="268" />
<glyph unicode="&#xa1;" glyph-name="exclamdown" horiz-adv-x="252" d="M97 -23L106 481Q125 487 144 481L161 -27Q123 -33 97 -23ZM106 682T126 682T159 669T172 635T159 602T126 588T93 601T80 635T93 668Z" />
<glyph unicode="&#xa2;" glyph-name="cent" horiz-adv-x="468" d="M415 409Q415 363 367 363Q366 402 342 430T266 458Q190 458 150 395T110 237Q110 157 142 100Q179 33 268 33Q341 33 408 86Q418 79 418 67Q418 43 379 20T288 -12L293 -102Q261 -112 233 -102L239
-16Q149 -15 101 50T50 222T98 405T240 497L233 592Q264 601 293 592L288 500Q347 499 381 474T415 409Z" />
<glyph unicode="&#xa3;" glyph-name="sterling" horiz-adv-x="498" d="M154 318Q161 388 161 389Q170 508 215 561T342 615Q383 615 414 598T446 544Q446 496 395 496Q395 571 327 571Q281 571 249 528T209 389L202 318H380V273H197Q186 161 178 113T143 40H448Q452
0 417 0H56Q50 9 50 28Q85 38 103 56T128 110T149 273H58V318H154Z" />
<glyph unicode="&#xa4;" glyph-name="currency" horiz-adv-x="578" d="M157 214T195 175T295 135T394 174T432 278T395 382T296 422T196 382T157 278ZM444 405Q486 354 486 280T447 155L528 83Q509 57 488 45L416 125Q367 87 292 87T166 129L90 45Q69 57 50 83L137
161Q103 209 103 279T140 399L50 479Q69 505 90 517L169 430Q220 470 291 470T413 434L488 517Q509 505 528 479L444 405Z" />
<glyph unicode="&#xa5;" glyph-name="yen" horiz-adv-x="549" d="M389 611H539Q539 611 539 604Q539 574 511 571L491 568H490L336 317H440V272H315V221H440V176H315V45L389 39Q393 0 366 0H181V8Q181 30 194 36Q200 39 209 40L259 43V176H118V221H259V272H118V317H237L67
566H65L11 572Q7 611 34 611H208V604Q208 582 195 575Q188 572 140 568L293 326L434 566L366 572Q362 611 389 611Z" />
<glyph unicode="&#xa6;" glyph-name="brokenbar" horiz-adv-x="254" d="M100 335V701H154V335H100ZM154 170V-196H100V170H154Z" />
<glyph unicode="&#xa7;" glyph-name="section" horiz-adv-x="516" d="M476 -41Q476 -128 409 -192T236 -257Q159 -257 100 -225T40 -143Q40 -121 52 -106T85 -91Q100 -146 143 -175T253 -205T368 -169T416 -63Q416 -23 396 5T354 44T302 69T244 94T189 121T128
160Q66 206 66 279T128 401Q66 452 66 523T126 642Q214 710 340 684Q378 676 411 651T444 591T428 543T389 529Q389 580 358 609T266 639T165 612T126 535Q126 471 201 426Q227 411 244 404T296 382T352 357T400 330T442 296Q476 256 476 201Q476 127 427 69Q476
26 476 -41ZM126 293Q126 229 201 184Q227 169 244 162T312 133T390 95Q416 131 416 175T396 247T354 286T302 312Q214 349 170 373Q126 345 126 293Z" />
<glyph unicode="&#xa8;" glyph-name="dieresis" horiz-adv-x="600" d="M381 587T368 574T334 560T301 574T287 607T300 640T334 654T367 640T381 607ZM223 587T210 574T177 560T143 573T129 606T143 640T176 654T209 640T223 607Z" />
<glyph unicode="&#xa9;" glyph-name="copyright" horiz-adv-x="638" d="M375 462T395 448T415 415T405 389T383 382Q383 401 369 414T324 427T271 394T250 310Q250 204 337 204Q383 204 411 226Q417 221 417 212Q417 195 390 180T328 164Q268 164 236 201T203
304T238 416T339 462Q375 462 395 448ZM538 413T477 475T318 537T160 474T100 310T161 147T319 85T477 147T538 311ZM50 432T124 506T319 580T514 506T588 311T515 116T320 42T124 116T50 311Z" />
<glyph unicode="&#xaa;" glyph-name="ordfeminine" horiz-adv-x="312" d="M250 346Q211 346 201 375Q167 346 124 346T58 365T35 418Q35 495 147 495Q173 495 198 490V522Q198 584 144 584Q93 584 88 537Q73 535 63 542T52 570T77 605T144 621T218 600T251 525V382L288
378Q288 364 278 355T250 346ZM198 453Q175 463 149 463T108 452T93 425T105 396T144 384T198 404V453Z" />
<glyph unicode="&#xab;" glyph-name="guillemotleft" horiz-adv-x="539" d="M330 436L129 243V238L331 45L307 21L63 221Q59 240 63 261L307 460L330 436ZM505 436L304 243V238L506 45L482 21L238 221Q234 240 238 261L482 460L505 436Z" />
<glyph unicode="&#xac;" glyph-name="logicalnot" horiz-adv-x="472" d="M422 318V161H370V268H50V318H422Z" />
<glyph unicode="&#xad;" glyph-name="uni00AD" horiz-adv-x="383" d="M50 270H333V220H50V270Z" />
<glyph unicode="&#xae;" glyph-name="registered" horiz-adv-x="585" d="M70 571T131 633T292 695T453 634T515 471T454 308T293 247T132 308T70 470ZM115 388T164 337T293 286T421 336T470 469T423 603T296 655T166 605T115 471ZM204 604H295Q383 604 383 543Q383
486 315 473Q337 428 362 403T407 378Q405 353 377 353T320 389T275 470H263V385L293 383Q293 357 280 357H192Q192 383 205 384L221 385V577L193 578Q193 604 204 604ZM263 578V496Q269 495 288 495T323 507T339 539Q339 578 283 578H263Z" />
<glyph unicode="&#xaf;" glyph-name="overscore" horiz-adv-x="600" d="M130 631H385V578H130V631Z" />
<glyph unicode="&#xb0;" glyph-name="degree" horiz-adv-x="307" d="M95 607T95 580T111 536T154 518T196 535T212 579T196 623T154 640T111 624ZM50 535T50 579T79 650T154 678T228 651T257 580T228 507T154 479T79 507Z" />
<glyph unicode="&#xb1;" glyph-name="plusminus" horiz-adv-x="470" d="M261 316H420V266H261V142H209V266H50V316H209V476H261V316ZM50 66V116H420V66H50Z" />
<glyph unicode="&#xb2;" glyph-name="twosuperior" horiz-adv-x="313" d="M278 277H40Q33 293 35 304Q130 383 170 432T212 528Q212 554 196 570T150 586Q86 586 86 509Q44 507 44 545Q44 577 76 599T157 621T236 596T266 535T251 468T206 406Q139 340 100 314H241L246
347Q248 360 259 365T278 366V277Z" />
<glyph unicode="&#xb3;" glyph-name="threesuperior" horiz-adv-x="296" d="M93 469Q126 469 160 486T194 541Q194 587 142 587Q116 587 103 572T88 533Q68 534 59 542T50 569T78 604T147 620T219 599T248 543Q248 485 173 459Q215 454 240 431T266 368T228 298T139
268T61 283T34 322Q34 352 66 355Q69 331 86 317T136 302T190 320T211 372T176 420T93 431V469Z" />
<glyph unicode="&#xb4;" glyph-name="acute" horiz-adv-x="600" d="M408 635L212 529Q197 536 186 555L350 679Q367 678 383 665T408 635Z" />
<glyph unicode="&#xb5;" glyph-name="uni00B5" horiz-adv-x="557" d="M541 27Q541 -16 485 -16T421 45Q359 -15 279 -15T152 38L158 -187Q131 -195 101 -187L107 160Q106 168 106 186V485H161V195Q161 118 193 78T290 37T419 93V485H474V35L541 27Z" />
<glyph unicode="&#xb6;" glyph-name="paragraph" horiz-adv-x="563" d="M281 677H489Q516 677 512 638L439 632V-90H379V632H317V-90H257V300Q204 300 165 317T103 355T65 410T50 490Q50 571 109 624T281 677Z" />
<glyph unicode="&#xb7;" glyph-name="middot" horiz-adv-x="172" d="M106 204T86 204T53 217T40 251T53 284T86 298T119 285T132 251T119 218Z" />
<glyph unicode="&#xb8;" glyph-name="cedilla" horiz-adv-x="600" d="M298 -41Q378 -41 378 -113Q378 -147 353 -168T284 -189T214 -161Q211 -142 226 -132Q250 -151 277 -151Q326 -151 326 -112Q326 -77 252 -77L277 18H312L298 -41Z" />
<glyph unicode="&#xb9;" glyph-name="onesuperior" horiz-adv-x="268" d="M55 292Q55 316 76 316L114 317V562L73 550Q62 547 54 556T45 572L121 611Q132 617 147 617Q166 617 166 595V318L222 315Q224 307 221 297T202 287H55V292Z" />
<glyph unicode="&#xba;" glyph-name="ordmasculine" horiz-adv-x="355" d="M236 525T219 554T170 584T120 555T101 480T118 407T168 378T218 406T236 479ZM45 542T79 581T168 621T257 589T292 489T259 381T167 341T78 376T46 476Z" />
<glyph unicode="&#xbb;" glyph-name="guillemotright" horiz-adv-x="539" d="M235 243L34 436L57 460L301 261Q305 240 301 221L57 21L33 45L235 238V243ZM410 243L209 436L232 460L476 261Q480 240 476 221L232 21L208 45L410 238V243Z" />
<glyph unicode="&#xbc;" glyph-name="onequarter" horiz-adv-x="600" d="M573 105V70H520V-3L469 -9V70H322Q309 90 308 101L476 336Q499 342 519 338L520 105H573ZM469 105V270L351 105H469ZM460 620H512L158 0H106L460 620ZM37 282Q37 306 58 306L96 308V562L55
549Q44 546 36 555T27 573L103 614Q114 620 129 620Q148 620 148 597V309L204 305Q206 297 203 287T184 276H37V282Z" />
<glyph unicode="&#xbd;" glyph-name="onehalf" horiz-adv-x="600" d="M583 0H345Q338 16 340 27Q435 106 468 146Q517 204 517 251Q517 277 501 293T455 309Q391 309 391 232Q349 230 349 268Q349 300 381 322T462 344T541 319T571 258T556 191T510 130Q444 63
405 37H546L551 70Q553 83 564 88T583 89V0ZM446 620H498L144 0H92L446 620ZM28 282Q28 306 49 306L87 308V562L46 549Q35 546 27 555T18 573L94 614Q105 620 120 620Q139 620 139 597V309L195 305Q197 297 194 287T175 276H28V282Z" />
<glyph unicode="&#xbe;" glyph-name="threequarters" horiz-adv-x="600" d="M583 105V70H530V-3L479 -9V70H332Q319 90 318 101L486 336Q509 342 529 338L530 105H583ZM479 105V270L361 105H479ZM479 620H531L177 0H125L479 620ZM80 469Q113 469 147 486T181 541Q181
587 129 587Q103 587 90 572T75 533Q55 534 46 542T37 569T65 604T134 620T206 599T235 543Q235 485 160 459Q202 454 227 431T253 368T215 298T126 268T48 283T21 322Q21 352 53 355Q56 331 73 317T123 302T177 320T198 372T163 420T80 431V469Z" />
<glyph unicode="&#xbf;" glyph-name="questiondown" horiz-adv-x="482" d="M290 592T270 592T237 605T224 639T237 672T270 686T303 673T316 639T303 606ZM432 47T380 5T239 -38T101 6T50 128T109 263T243 339L249 492Q269 495 290 492L295 308Q213 287 162 238T110
131T145 38T243 3T342 43T378 142Q432 142 432 98Q432 47 380 5Z" />
<glyph unicode="&#xc0;" glyph-name="Agrave" horiz-adv-x="597" d="M563 0H382V8Q382 30 395 36Q401 39 410 40L460 43L403 236H183L127 45L201 39Q205 0 178 0H10V8Q10 30 23 36Q30 39 78 43L272 676Q300 680 328 676L521 45H522L586 39Q590 0 563 0ZM197 281H390L293
609L197 281ZM231 869L395 745Q384 726 369 719L173 825Q182 842 198 855T231 869Z" />
<glyph unicode="&#xc1;" glyph-name="Aacute" horiz-adv-x="597" d="M563 0H382V8Q382 30 395 36Q401 39 410 40L460 43L403 236H183L127 45L201 39Q205 0 178 0H10V8Q10 30 23 36Q30 39 78 43L272 676Q300 680 328 676L521 45H522L586 39Q590 0 563 0ZM197 281H390L293
609L197 281ZM442 835L246 729Q231 736 220 755L384 879Q401 878 417 865T442 835Z" />
<glyph unicode="&#xc2;" glyph-name="Acircumflex" horiz-adv-x="597" d="M563 0H382V8Q382 30 395 36Q401 39 410 40L460 43L403 236H183L127 45L201 39Q205 0 178 0H10V8Q10 30 23 36Q30 39 78 43L272 676Q300 680 328 676L521 45H522L586 39Q590 0 563 0ZM197
281H390L293 609L197 281ZM299 808L166 719Q151 726 140 745L270 864Q299 872 328 864L458 745Q447 726 432 719L299 808Z" />
<glyph unicode="&#xc3;" glyph-name="Atilde" horiz-adv-x="597" d="M563 0H382V8Q382 30 395 36Q401 39 410 40L460 43L403 236H183L127 45L201 39Q205 0 178 0H10V8Q10 30 23 36Q30 39 78 43L272 676Q300 680 328 676L521 45H522L586 39Q590 0 563 0ZM197 281H390L293
609L197 281ZM455 810T429 783T364 756T285 781T221 806Q181 806 164 757L134 768Q145 813 173 836T234 860T305 834T370 808T411 822T433 860L463 851Q455 810 429 783Z" />
<glyph unicode="&#xc4;" glyph-name="Adieresis" horiz-adv-x="597" d="M563 0H382V8Q382 30 395 36Q401 39 410 40L460 43L403 236H183L127 45L201 39Q205 0 178 0H10V8Q10 30 23 36Q30 39 78 43L272 676Q300 680 328 676L521 45H522L586 39Q590 0 563 0ZM197
281H390L293 609L197 281ZM267 777T254 764T221 750T187 763T173 796T187 830T220 844T253 830T267 797ZM425 777T412 764T378 750T345 764T331 797T344 830T378 844T411 830T425 797Z" />
<glyph unicode="&#xc5;" glyph-name="Aring" horiz-adv-x="597" d="M563 0H382V8Q382 30 395 36Q401 39 410 40L460 43L403 236H183L127 45L201 39Q205 0 178 0H10V8Q10 30 23 36Q30 39 78 43L272 676Q300 680 328 676L521 45H522L586 39Q590 0 563 0ZM197 281H390L293
609L197 281ZM390 780T365 756T300 732T235 755T211 817T236 880T302 904T367 881T391 819ZM322 864T301 864T268 852T255 818T267 785T301 772T334 784T347 818T335 851Z" />
<glyph unicode="&#xc6;" glyph-name="AE" horiz-adv-x="854" d="M808 129V0H341V8Q341 30 354 36Q360 39 369 40L419 43V317H259L127 45L201 39Q205 0 178 0H10V8Q10 30 23 36Q30 39 77 43L387 676L788 677V538Q788 511 749 515L739 627L477 632V360L673 371Q679
341 673 306L477 317V45L759 51L769 152Q776 156 792 152T808 129ZM419 362V632H411L280 362H419Z" />
<glyph unicode="&#xc7;" glyph-name="Ccedilla" horiz-adv-x="547" d="M326 690Q406 690 460 654T514 566T461 512Q461 575 423 609T319 644Q214 644 159 559T103 336T157 119T324 39T509 100Q521 94 521 80Q521 54 469 22T339 -14L333 -41Q374 -41 393 -60T413
-113T388 -168T319 -189T249 -161Q246 -142 261 -132Q285 -151 312 -151Q361 -151 361 -112Q361 -77 287 -77L303 -15Q179 -9 112 78T40 320T113 583T326 690Z" />
<glyph unicode="&#xc8;" glyph-name="Egrave" horiz-adv-x="547" d="M371 719L175 825Q184 842 200 855T233 869L397 745Q386 726 371 719ZM501 129V0H42V8Q42 30 55 36Q61 39 70 40L120 43V630L47 637Q43 675 71 675H489V536Q489 509 450 513L440 625L178 630V358L374
369Q380 339 374 304L178 315V45L452 51L462 152Q470 156 485 152T501 129Z" />
<glyph unicode="&#xc9;" glyph-name="Eacute" horiz-adv-x="547" d="M444 835L248 729Q233 736 222 755L386 879Q403 878 419 865T444 835ZM501 129V0H42V8Q42 30 55 36Q61 39 70 40L120 43V630L47 637Q43 675 71 675H489V536Q489 509 450 513L440 625L178 630V358L374
369Q380 339 374 304L178 315V45L452 51L462 152Q470 156 485 152T501 129Z" />
<glyph unicode="&#xca;" glyph-name="Ecircumflex" horiz-adv-x="547" d="M501 129V0H42V8Q42 30 55 36Q61 39 70 40L120 43V630L47 637Q43 675 71 675H489V536Q489 509 450 513L440 625L178 630V358L374 369Q380 339 374 304L178 315V45L452 51L462 152Q470 156
485 152T501 129ZM301 808L168 719Q153 726 142 745L272 864Q301 872 330 864L460 745Q449 726 434 719L301 808Z" />
<glyph unicode="&#xcb;" glyph-name="Edieresis" horiz-adv-x="547" d="M427 777T414 764T380 750T347 764T333 797T346 830T380 844T413 830T427 797ZM269 777T256 764T223 750T189 763T175 796T189 830T222 844T255 830T269 797ZM501 129V0H42V8Q42 30 55 36Q61
39 70 40L120 43V630L47 637Q43 675 71 675H489V536Q489 509 450 513L440 625L178 630V358L374 369Q380 339 374 304L178 315V45L452 51L462 152Q470 156 485 152T501 129Z" />
<glyph unicode="&#xcc;" glyph-name="Igrave" horiz-adv-x="299" d="M178 632V45L252 39Q256 0 229 0H42V8Q42 30 55 36Q61 39 70 40L120 43V630L47 636Q43 675 70 675H257V668Q257 646 244 639Q238 636 229 635L179 632H178ZM86 869L250 745Q239 726 224 719L28
825Q37 842 53 855T86 869Z" />
<glyph unicode="&#xcd;" glyph-name="Iacute" horiz-adv-x="299" d="M70 675H257Q257 675 257 668Q257 646 244 639Q238 636 229 635L179 632H178V45L252 39Q256 0 229 0H42Q42 0 42 8Q42 30 55 36Q61 39 70 40L120 43V630L47 636Q43 675 70 675ZM297 835L101
729Q86 736 75 755L239 879Q256 878 272 865T297 835Z" />
<glyph unicode="&#xce;" glyph-name="Icircumflex" horiz-adv-x="299" d="M183 864L313 745Q302 726 287 719L154 808L21 719Q6 726 -5 745L125 864Q154 872 183 864ZM70 675H257Q257 675 257 668Q257 646 244 639Q238 636 229 635L179 632H178V45L252 39Q256
0 229 0H42Q42 0 42 8Q42 30 55 36Q61 39 70 40L120 43V630L47 636Q43 675 70 675Z" />
<glyph unicode="&#xcf;" glyph-name="Idieresis" horiz-adv-x="299" d="M186 816T199 830T233 844T266 830T280 797T267 764T233 750T200 764T186 797ZM70 675H257V668Q257 646 244 639Q238 636 229 635L179 632H178V45L252 39Q256 0 229 0H42V8Q42 30 55 36Q61
39 70 40L120 43V630L47 636Q43 675 70 675ZM95 844T108 830T122 797T109 764T76 750T42 763T28 796T42 830T75 844Z" />
<glyph unicode="&#xd0;" glyph-name="Eth" horiz-adv-x="685" d="M70 677H273Q453 677 532 596T612 345T527 88T273 0H42V8Q42 30 55 36Q61 39 70 40L120 43V315H69V360H120V632L47 638Q43 677 70 677ZM178 42H252Q395 42 472 115T550 344T470 571T229 636L178
634V360H367V315H178V42Z" />
<glyph unicode="&#xd1;" glyph-name="Ntilde" horiz-adv-x="682" d="M478 675H657Q657 675 657 668Q657 646 644 639Q638 636 629 635L577 632V11Q554 0 532 0L170 562V45L244 39Q248 0 221 0H42Q42 0 42 8Q42 30 55 36Q61 39 70 40L121 43V630L47 636Q43 675
70 675H169L529 115V630L455 636Q451 675 478 675ZM492 810T466 783T401 756T322 781T258 806Q218 806 201 757L171 768Q182 813 210 836T271 860T342 834T407 808T448 822T470 860L500 851Q492 810 466 783Z" />
<glyph unicode="&#xd2;" glyph-name="Ograve" horiz-adv-x="629" d="M400 719L204 825Q213 842 229 855T262 869L426 745Q415 726 400 719ZM326 690Q398 690 459 654Q496 633 523 598T569 501T589 358Q591 190 517 88T298 -15Q180 -15 112 72T40 319T112 585T326
690ZM148 120Q172 78 214 55T314 31Q423 32 477 115T531 335Q531 470 482 554Q430 644 319 644T153 559T99 339T148 120Z" />
<glyph unicode="&#xd3;" glyph-name="Oacute" horiz-adv-x="629" d="M473 835L277 729Q262 736 251 755L415 879Q432 878 448 865T473 835ZM148 120Q172 78 214 55T314 31Q423 32 477 115T531 335Q531 470 482 554Q430 644 319 644T153 559T99 339T148 120ZM326
690Q398 690 459 654Q496 633 523 598T569 501T589 358Q591 190 517 88T298 -15Q180 -15 112 72T40 319T112 585T326 690Z" />
<glyph unicode="&#xd4;" glyph-name="Ocircumflex" horiz-adv-x="629" d="M298 -15Q180 -15 112 72T40 319T112 585T326 690Q398 690 459 654Q496 633 523 598T569 501T589 358Q591 190 517 88T298 -15ZM430 644T319 644T153 559T99 333Q99 203 148 120Q172 78
214 55T314 31Q423 32 477 115T531 334T481 557ZM330 808L197 719Q182 726 171 745L301 864Q330 872 359 864L489 745Q478 726 463 719L330 808Z" />
<glyph unicode="&#xd5;" glyph-name="Otilde" horiz-adv-x="629" d="M176 813T204 836T265 860T336 834T401 808T442 822T464 860L494 851Q486 810 460 783T395 756T316 781T252 806Q212 806 195 757L165 768Q176 813 204 836ZM148 120Q172 78 214 55T314 31Q423
32 477 115T531 335Q531 470 482 554Q430 644 319 644T153 559T99 339T148 120ZM326 690Q398 690 459 654Q496 633 523 598T569 501T589 358Q591 190 517 88T298 -15Q180 -15 112 72T40 319T112 585T326 690Z" />
<glyph unicode="&#xd6;" glyph-name="Odieresis" horiz-adv-x="629" d="M456 777T443 764T409 750T376 764T362 797T375 830T409 844T442 830T456 797ZM298 777T285 764T252 750T218 763T204 796T218 830T251 844T284 830T298 797ZM148 120Q172 78 214 55T314
31Q423 32 477 115T531 335Q531 470 482 554Q430 644 319 644T153 559T99 339T148 120ZM326 690Q398 690 459 654Q496 633 523 598T569 501T589 358Q591 190 517 88T298 -15Q180 -15 112 72T40 319T112 585T326 690Z" />
<glyph unicode="&#xd7;" glyph-name="multiply" horiz-adv-x="412" d="M362 411L242 291L362 171L326 135L206 255L86 135L50 171L170 291L50 411L86 447L206 327L326 447L362 411Z" />
<glyph unicode="&#xd8;" glyph-name="Oslash" horiz-adv-x="680" d="M298 -15Q242 -15 193 7L180 -15L132 11L147 36Q45 121 41 300T112 585T326 690Q427 690 493 630L526 687L575 663L531 587Q588 501 589 358Q591 190 517 88T298 -15ZM99 333Q99 162 175 85L463
580Q409 644 315 644Q207 643 153 559T99 333ZM423 32T477 115T531 324T496 527L219 52Q260 31 314 31Q423 32 477 115Z" />
<glyph unicode="&#xd9;" glyph-name="Ugrave" horiz-adv-x="640" d="M392 719L196 825Q205 842 221 855T254 869L418 745Q407 726 392 719ZM442 675H615Q615 675 615 668Q615 646 602 639Q596 636 587 635L539 632V244Q539 125 483 55T307 -15Q99 -15 99 228V630L26
636Q22 675 49 675H235Q235 675 235 668Q235 646 222 639Q216 636 207 635L157 632L156 237Q156 30 314 30Q399 30 445 81T492 236V630L419 636Q415 675 442 675Z" />
<glyph unicode="&#xda;" glyph-name="Uacute" horiz-adv-x="640" d="M465 835L269 729Q254 736 243 755L407 879Q424 878 440 865T465 835ZM442 675H615Q615 675 615 668Q615 646 602 639Q596 636 587 635L539 632V244Q539 125 483 55T307 -15Q99 -15 99 228V630L26
636Q22 675 49 675H235Q235 675 235 668Q235 646 222 639Q216 636 207 635L157 632L156 237Q156 30 314 30Q399 30 445 81T492 236V630L419 636Q415 675 442 675Z" />
<glyph unicode="&#xdb;" glyph-name="Ucircumflex" horiz-adv-x="640" d="M442 675H615Q615 675 615 668Q615 646 602 639Q596 636 587 635L539 632V244Q539 125 483 55T307 -15Q99 -15 99 228V630L26 636Q22 675 49 675H235Q235 675 235 668Q235 646 222 639Q216
636 207 635L157 632L156 237Q156 30 314 30Q399 30 445 81T492 236V630L419 636Q415 675 442 675ZM322 808L189 719Q174 726 163 745L293 864Q322 872 351 864L481 745Q470 726 455 719L322 808Z" />
<glyph unicode="&#xdc;" glyph-name="Udieresis" horiz-adv-x="640" d="M448 777T435 764T401 750T368 764T354 797T367 830T401 844T434 830T448 797ZM290 777T277 764T244 750T210 763T196 796T210 830T243 844T276 830T290 797ZM442 675H615V668Q615 646 602
639Q596 636 587 635L539 632V244Q539 125 483 55T307 -15Q99 -15 99 228V630L26 636Q22 675 49 675H235V668Q235 646 222 639Q216 636 207 635L157 632L156 237Q156 30 314 30Q399 30 445 81T492 236V630L419 636Q415 675 442 675Z" />
<glyph unicode="&#xdd;" glyph-name="Yacute" horiz-adv-x="580" d="M427 677H575Q575 677 575 670Q575 640 547 637L527 634H526L324 272V45L398 39Q402 0 375 0H186V8Q186 30 199 36Q205 39 214 40L264 43V272L60 632L6 638Q2 677 29 677H202V670Q202 648 189
641Q183 638 174 637L126 634L304 317L473 632L404 638Q400 677 427 677ZM442 835L246 729Q231 736 220 755L384 879Q401 878 417 865T442 835Z" />
<glyph unicode="&#xde;" glyph-name="Thorn" horiz-adv-x="604" d="M178 546H274Q401 546 463 494T525 359Q525 146 250 146Q226 146 178 148V45L252 39Q256 0 229 0H42Q42 0 42 8Q42 30 55 36Q61 39 70 40L120 43V632L47 638Q43 677 70 677H257Q257 677 257 670Q257
648 244 641Q238 638 229 637L179 634H178V546ZM229 505H178V190Q222 188 242 188Q353 188 405 226T458 348T404 468T229 505Z" />
<glyph unicode="&#xdf;" glyph-name="germandbls" horiz-adv-x="588" d="M49 7Q49 36 77 36L124 38V455Q124 526 142 577T193 656Q255 707 343 705Q406 704 450 678T495 590Q495 530 440 484Q418 465 395 448Q340 407 340 367Q340 345 357 326T393 296T441 272T487
248T525 222Q565 191 565 136T520 33T399 -15Q346 -15 307 10T268 75T307 116Q316 76 342 53T411 30T483 57T512 124Q512 148 503 160T490 178T473 191T455 202T433 214T398 232T365 251T328 277Q288 308 288 351T312 426T364 479T416 527T440 586Q440 610 428
628Q406 663 341 663Q259 663 219 610T179 470V0H49V7Z" />
<glyph unicode="&#xe0;" glyph-name="agrave" horiz-adv-x="497" d="M422 -16Q363 -16 356 51Q330 24 289 5T189 -15T90 20T50 118Q50 171 87 210Q131 258 240 258Q302 258 355 242V331Q355 384 325 420T237 456Q137 456 125 357Q105 355 92 366T79 403Q79 444
121 472T231 500Q283 500 338 475Q370 460 390 424T410 334V35L477 27Q477 -16 422 -16ZM355 185Q307 215 240 215T144 191T114 125T140 58T214 33Q295 33 355 96V185ZM161 679L325 555Q314 536 299 529L103 635Q112 652 128 665T161 679Z" />
<glyph unicode="&#xe1;" glyph-name="aacute" horiz-adv-x="497" d="M422 -16Q363 -16 356 51Q330 24 289 5T189 -15T90 20T50 118Q50 171 87 210Q131 258 240 258Q302 258 355 242V331Q355 384 325 420T237 456Q137 456 125 357Q105 355 92 366T79 403Q79 444
121 472T231 500Q283 500 338 475Q370 460 390 424T410 334V35L477 27Q477 -16 422 -16ZM355 185Q307 215 240 215T144 191T114 125T140 58T214 33Q295 33 355 96V185ZM372 635L176 529Q161 536 150 555L314 679Q331 678 347 665T372 635Z" />
<glyph unicode="&#xe2;" glyph-name="acircumflex" horiz-adv-x="497" d="M422 -16Q363 -16 356 51Q330 24 289 5T189 -15T90 20T50 118Q50 171 87 210Q131 258 240 258Q302 258 355 242V331Q355 384 325 420T237 456Q137 456 125 357Q105 355 92 366T79 403Q79
444 121 472T231 500Q283 500 338 475Q370 460 390 424T410 334V35L477 27Q477 -16 422 -16ZM355 185Q307 215 240 215T144 191T114 125T140 58T214 33Q295 33 355 96V185ZM229 618L96 529Q81 536 70 555L200 674Q229 682 258 674L388 555Q377 536 362 529L229
618Z" />
<glyph unicode="&#xe3;" glyph-name="atilde" horiz-adv-x="497" d="M422 -16Q363 -16 356 51Q330 24 289 5T189 -15T90 20T50 118Q50 171 87 210Q131 258 240 258Q302 258 355 242V331Q355 384 325 420T237 456Q137 456 125 357Q105 355 92 366T79 403Q79 444
121 472T231 500Q283 500 338 475Q370 460 390 424T410 334V35L477 27Q477 -16 422 -16ZM355 185Q307 215 240 215T144 191T114 125T140 58T214 33Q295 33 355 96V185ZM366 654L396 643Q384 603 356 578T290 555T213 586T151 615T114 604T91 571L62 584Q76 627
106 648T168 668T237 638T301 607Q350 604 366 654Z" />
<glyph unicode="&#xe4;" glyph-name="adieresis" horiz-adv-x="497" d="M422 -16Q363 -16 356 51Q330 24 289 5T189 -15T90 20T50 118Q50 171 87 210Q131 258 240 258Q302 258 355 242V331Q355 384 325 420T237 456Q137 456 125 357Q105 355 92 366T79 403Q79
444 121 472T231 500Q283 500 338 475Q370 460 390 424T410 334V35L477 27Q477 -16 422 -16ZM355 185Q307 215 240 215T144 191T114 125T140 58T214 33Q295 33 355 96V185ZM197 587T184 574T151 560T117 573T103 606T117 640T150 654T183 640T197 607ZM355 587T342
574T308 560T275 574T261 607T274 640T308 654T341 640T355 607Z" />
<glyph unicode="&#xe5;" glyph-name="aring" horiz-adv-x="497" d="M422 -16Q363 -16 356 51Q330 24 289 5T189 -15T90 20T50 118Q50 171 87 210Q131 258 240 258Q302 258 355 242V331Q355 384 325 420T237 456Q137 456 125 357Q105 355 92 366T79 403Q79 444
121 472T231 500Q283 500 338 475Q370 460 390 424T410 334V35L477 27Q477 -16 422 -16ZM355 185Q307 215 240 215T144 191T114 125T140 58T214 33Q295 33 355 96V185ZM320 590T295 566T230 542T165 565T141 627T166 690T232 714T297 691T321 629ZM252 674T231
674T198 662T185 628T197 595T231 582T264 594T277 628T265 661Z" />
<glyph unicode="&#xe6;" glyph-name="ae" horiz-adv-x="767" d="M676 372T648 415T568 458T478 417T425 307H674Q676 372 648 415ZM355 185Q307 215 241 215T144 191T114 125T141 58T215 33Q292 33 355 94V185ZM432 447T479 473T574 500T654 483T703 438Q736 382
736 314V268H419Q417 244 417 229Q417 145 455 90T571 34T715 87Q725 80 725 67Q725 41 671 13T553 -15Q441 -15 390 73Q362 38 313 12T197 -15T90 20T50 115T93 216T240 258Q302 258 355 242V331Q355 384 325 420T234 456Q164 456 138 404Q127 381 125 357Q107
355 93 365T79 401Q79 444 121 472T231 500Q260 500 300 488Q382 465 400 397Q432 447 479 473Z" />
<glyph unicode="&#xe7;" glyph-name="ccedilla" horiz-adv-x="447" d="M272 500Q334 500 369 475T405 409Q405 363 357 363Q356 399 331 426T256 453Q180 453 140 391T100 237Q100 158 132 100Q169 34 258 34Q331 34 398 87Q408 80 408 68Q408 39 355 13T241 -15L235
-41Q276 -41 295 -60T315 -113T290 -168T221 -189T151 -161Q148 -142 163 -132Q187 -151 214 -151Q263 -151 263 -112Q263 -77 189 -77L206 -13Q127 -4 85 60T40 219Q38 341 99 420T272 500Z" />
<glyph unicode="&#xe8;" glyph-name="egrave" horiz-adv-x="452" d="M421 268H104Q102 244 102 232Q102 146 140 90T256 34T400 87Q410 80 410 67Q410 41 356 13T238 -15Q150 -15 95 45T40 230T106 427T264 500Q307 500 339 483T388 438Q421 382 421 314V268ZM361
372T333 415T253 458T163 417T110 307H359Q361 372 333 415ZM189 679L353 555Q342 536 327 529L131 635Q140 652 156 665T189 679Z" />
<glyph unicode="&#xe9;" glyph-name="eacute" horiz-adv-x="452" d="M421 268H104Q102 244 102 232Q102 146 140 90T256 34T400 87Q410 80 410 67Q410 41 356 13T238 -15Q150 -15 95 45T40 230T106 427T264 500Q307 500 339 483T388 438Q421 382 421 314V268ZM361
372T333 415T253 458T163 417T110 307H359Q361 372 333 415ZM400 635L204 529Q189 536 178 555L342 679Q359 678 375 665T400 635Z" />
<glyph unicode="&#xea;" glyph-name="ecircumflex" horiz-adv-x="452" d="M421 268H104Q102 244 102 232Q102 146 140 90T256 34T400 87Q410 80 410 67Q410 41 356 13T238 -15Q150 -15 95 45T40 230T106 427T264 500Q307 500 339 483T388 438Q421 382 421 314V268ZM361
372T333 415T253 458T163 417T110 307H359Q361 372 333 415ZM257 618L124 529Q109 536 98 555L228 674Q257 682 286 674L416 555Q405 536 390 529L257 618Z" />
<glyph unicode="&#xeb;" glyph-name="edieresis" horiz-adv-x="452" d="M421 268H104Q102 244 102 232Q102 146 140 90T256 34T400 87Q410 80 410 67Q410 41 356 13T238 -15Q150 -15 95 45T40 230T106 427T264 500Q307 500 339 483T388 438Q421 382 421 314V268ZM361
372T333 415T253 458T163 417T110 307H359Q361 372 333 415ZM225 587T212 574T179 560T145 573T131 606T145 640T178 654T211 640T225 607ZM383 587T370 574T336 560T303 574T289 607T302 640T336 654T369 640T383 607Z" />
<glyph unicode="&#xec;" glyph-name="igrave" horiz-adv-x="283" d="M234 0H52V7Q52 27 65 32Q72 35 125 39V443L69 448Q49 450 49 485L180 500V41L257 35Q260 0 234 0ZM70 679L234 555Q223 536 208 529L12 635Q21 652 37 665T70 679Z" />
<glyph unicode="&#xed;" glyph-name="iacute" horiz-adv-x="283" d="M234 0H52V7Q52 27 65 32Q72 35 125 39V443L69 448Q49 450 49 485L180 500V41L257 35Q260 0 234 0ZM281 635L85 529Q70 536 59 555L223 679Q240 678 256 665T281 635Z" />
<glyph unicode="&#xee;" glyph-name="icircumflex" horiz-adv-x="283" d="M167 674L297 555Q286 536 271 529L138 618L5 529Q-10 536 -21 555L109 674Q138 682 167 674ZM234 0H52V7Q52 27 65 32Q72 35 125 39V443L69 448Q49 450 49 485L180 500V41L257 35Q260 0 234 0Z" />
<glyph unicode="&#xef;" glyph-name="idieresis" horiz-adv-x="283" d="M234 0H52V7Q52 27 65 32Q72 35 125 39V443L69 448Q49 450 49 485L180 500V41L257 35Q260 0 234 0ZM79 654T92 640T106 607T93 574T60 560T26 573T12 606T26 640T59 654ZM264 587T251 574T217
560T184 574T170 607T183 640T217 654T250 640T264 607Z" />
<glyph unicode="&#xf0;" glyph-name="eth" horiz-adv-x="502" d="M462 284Q462 147 399 66T229 -15Q137 -15 90 44T40 205Q37 331 100 405T271 480Q325 480 364 458Q330 529 269 578L178 520L153 559L227 606Q165 644 111 651L136 694Q209 680 277 638L362 692L387
653L317 609Q462 491 462 284ZM100 135T134 86T241 37T358 102T402 278Q402 340 388 393Q345 433 262 433T140 373T100 224Z" />
<glyph unicode="&#xf1;" glyph-name="ntilde" horiz-adv-x="604" d="M172 571L143 584Q157 627 187 648T249 668T318 638T382 607Q431 604 447 654L477 643Q465 603 437 578T371 555T294 586T232 615T195 604T172 571ZM555 0H378V7Q378 27 391 32Q398 36 453 39V301Q453
450 337 450Q295 450 260 433T180 378V41L251 35Q254 0 228 0H50V7Q50 27 63 32Q70 36 125 39V443L69 449Q49 451 49 484L164 500L178 420H181Q265 500 352 500Q416 500 462 455T508 312V41L578 35Q582 0 555 0Z" />
<glyph unicode="&#xf2;" glyph-name="ograve" horiz-adv-x="499" d="M322 529L126 635Q135 652 151 665T184 679L348 555Q337 536 322 529ZM256 500Q325 500 385 458Q418 434 438 384T459 261Q461 138 403 62T245 -15T94 48T41 230T98 425T256 500ZM100 333T100
241T137 89T247 30T359 90T399 240T362 393T252 455T140 394Z" />
<glyph unicode="&#xf3;" glyph-name="oacute" horiz-adv-x="499" d="M100 333T100 241T137 89T247 30T359 90T399 240T362 393T252 455T140 394ZM256 500Q325 500 385 458Q418 434 438 384T459 261Q461 138 403 62T245 -15T94 48T41 230T98 425T256 500ZM395 635L199
529Q184 536 173 555L337 679Q354 678 370 665T395 635Z" />
<glyph unicode="&#xf4;" glyph-name="ocircumflex" horiz-adv-x="499" d="M461 138T403 62T245 -15T94 48T41 230T98 425T256 500Q325 500 385 458Q418 434 438 384T459 261Q461 138 403 62ZM320 31T359 90T399 240T362 393T252 455T140 394T100 241T137 89T247
30ZM252 618L119 529Q104 536 93 555L223 674Q252 682 281 674L411 555Q400 536 385 529L252 618Z" />
<glyph unicode="&#xf5;" glyph-name="otilde" horiz-adv-x="499" d="M114 571L85 584Q99 627 129 648T191 668T260 638T324 607Q373 604 389 654L419 643Q407 603 379 578T313 555T236 586T174 615T137 604T114 571ZM100 333T100 241T137 89T247 30T359 90T399
240T362 393T252 455T140 394ZM256 500Q325 500 385 458Q418 434 438 384T459 261Q461 138 403 62T245 -15T94 48T41 230T98 425T256 500Z" />
<glyph unicode="&#xf6;" glyph-name="odieresis" horiz-adv-x="499" d="M100 333T100 241T137 89T247 30T359 90T399 240T362 393T252 455T140 394ZM256 500Q325 500 385 458Q418 434 438 384T459 261Q461 138 403 62T245 -15T94 48T41 230T98 425T256 500ZM378
587T365 574T331 560T298 574T284 607T297 640T331 654T364 640T378 607ZM220 587T207 574T174 560T140 573T126 606T140 640T173 654T206 640T220 607Z" />
<glyph unicode="&#xf7;" glyph-name="divide" horiz-adv-x="470" d="M251 386T231 386T198 399T185 433T198 466T231 480T264 467T277 433T264 400ZM251 102T231 102T198 115T185 149T198 182T231 196T264 183T277 149T264 116ZM50 316H420V266H50V316Z" />
<glyph unicode="&#xf8;" glyph-name="oslash" horiz-adv-x="509" d="M241 -15Q186 -15 146 6L134 -15L89 10L104 36Q42 100 40 225Q39 350 98 425T256 500Q314 500 360 475L375 500L421 477L401 442Q458 382 459 260T403 62T241 -15ZM179 454T140 394T100 242T136
91L332 427Q299 455 250 455Q179 454 140 394ZM320 31T359 90T399 238T367 385L173 52Q206 30 249 30Q320 31 359 90Z" />
<glyph unicode="&#xf9;" glyph-name="ugrave" horiz-adv-x="564" d="M353 529L157 635Q166 652 182 665T215 679L379 555Q368 536 353 529ZM262 -15Q195 -15 145 33T94 186V444L18 450Q14 485 41 485H149V195Q149 118 181 78T278 37T412 97V444L335 450Q332 485
358 485H467V54L523 48Q543 46 543 10L428 1L417 53Q351 -15 262 -15Z" />
<glyph unicode="&#xfa;" glyph-name="uacute" horiz-adv-x="564" d="M262 -15Q195 -15 145 33T94 186V444L18 450Q14 485 41 485H149V195Q149 118 181 78T278 37T412 97V444L335 450Q332 485 358 485H467V54L523 48Q543 46 543 10L428 1L417 53Q351 -15 262 -15ZM426
635L230 529Q215 536 204 555L368 679Q385 678 401 665T426 635Z" />
<glyph unicode="&#xfb;" glyph-name="ucircumflex" horiz-adv-x="564" d="M262 -15Q195 -15 145 33T94 186V444L18 450Q14 485 41 485H149V195Q149 118 181 78T278 37T412 97V444L335 450Q332 485 358 485H467V54L523 48Q543 46 543 10L428 1L417 53Q351 -15 262
-15ZM283 618L150 529Q135 536 124 555L254 674Q283 682 312 674L442 555Q431 536 416 529L283 618Z" />
<glyph unicode="&#xfc;" glyph-name="udieresis" horiz-adv-x="564" d="M262 -15Q195 -15 145 33T94 186V444L18 450Q14 485 41 485H149V195Q149 118 181 78T278 37T412 97V444L335 450Q332 485 358 485H467V54L523 48Q543 46 543 10L428 1L417 53Q351 -15 262
-15ZM409 587T396 574T362 560T329 574T315 607T328 640T362 654T395 640T409 607ZM251 587T238 574T205 560T171 573T157 606T171 640T204 654T237 640T251 607Z" />
<glyph unicode="&#xfd;" glyph-name="yacute" horiz-adv-x="484" d="M351 485H480Q479 482 480 478T480 469T476 460Q471 451 440 448L264 12Q211 -119 175 -167T103 -215T51 -201T35 -167T45 -137T67 -125T84 -127Q76 -163 108 -163Q151 -163 226 19L54 444L6
450Q2 485 29 485H187V478Q187 458 174 452Q167 450 116 446L251 89L388 444L328 450Q324 485 351 485ZM386 635L190 529Q175 536 164 555L328 679Q345 678 361 665T386 635Z" />
<glyph unicode="&#xfe;" glyph-name="thorn" horiz-adv-x="538" d="M142 421Q223 500 304 500T440 438T498 255T438 59T263 -15Q205 -15 142 13V-172L219 -178Q222 -213 196 -213H14V-206Q14 -186 27 -180Q34 -178 87 -174V639L31 645Q11 647 11 679L142 694V421ZM281
32Q360 32 399 92T438 241T401 389T285 448Q245 448 216 433T142 381V83Q161 65 198 49T281 32Z" />
<glyph unicode="&#xff;" glyph-name="ydieresis" horiz-adv-x="484" d="M351 485H480Q479 482 480 478T480 469T476 460Q471 451 440 448L264 12Q211 -119 175 -167T103 -215T51 -201T35 -167T45 -137T67 -125T84 -127Q76 -163 108 -163Q151 -163 226 19L54 444L6
450Q2 485 29 485H187V478Q187 458 174 452Q167 450 116 446L251 89L388 444L328 450Q324 485 351 485ZM211 587T198 574T165 560T131 573T117 606T131 640T164 654T197 640T211 607ZM369 587T356 574T322 560T289 574T275 607T288 640T322 654T355 640T369 607Z"
/>
<glyph unicode="&#x2013;" glyph-name="endash" horiz-adv-x="483" d="M50 270H433V220H50V270Z" />
<glyph unicode="&#x2014;" glyph-name="emdash" horiz-adv-x="795" d="M50 270H745V220H50V270Z" />
<glyph unicode="&#x2018;" glyph-name="quoteleft" horiz-adv-x="168" d="M108 611T118 598T128 567T116 536T84 524T52 536T40 575T62 635T109 679Q113 681 119 675T126 665Q101 648 91 613Q108 611 118 598Z" />
<glyph unicode="&#x2019;" glyph-name="quoteright" horiz-adv-x="168" d="M64 679T84 679T116 667T128 628T106 568T59 524Q55 522 49 528T42 538Q67 555 77 590Q60 592 50 605T40 636T52 667Z" />
<glyph unicode="&#x201a;" glyph-name="quotesinglbase" horiz-adv-x="172" d="M40 51T52 64T85 77T119 64T132 20T110 -48T60 -96Q56 -98 49 -92T42 -81Q68 -63 79 -17Q61 -15 51 -1T40 32Z" />
<glyph unicode="&#x201c;" glyph-name="quotedblleft" horiz-adv-x="268" d="M208 611T218 598T228 567T216 536T184 524T152 536T140 575T162 635T209 679Q213 681 219 675T226 665Q201 648 191 613Q208 611 218 598ZM108 611T118 598T128 567T116 536T84 524T52
536T40 575T62 635T109 679Q113 681 119 675T126 665Q101 648 91 613Q108 611 118 598Z" />
<glyph unicode="&#x201d;" glyph-name="quotedblright" horiz-adv-x="268" d="M164 679T184 679T216 667T228 628T206 568T159 524Q155 522 149 528T142 538Q167 555 177 590Q160 592 150 605T140 636T152 667ZM64 679T84 679T116 667T128 628T106 568T59 524Q55
522 49 528T42 538Q67 555 77 590Q60 592 50 605T40 636T52 667Z" />
<glyph unicode="&#x201e;" glyph-name="quotedblbase" horiz-adv-x="268" d="M164 72T184 72T216 60T228 21T206 -39T159 -83Q155 -85 149 -79T142 -69Q167 -52 177 -17Q160 -15 150 -2T140 29T152 60ZM64 72T84 72T116 60T128 21T106 -39T59 -83Q55 -85 49 -79T42
-69Q67 -52 77 -17Q60 -15 50 -2T40 29T52 60Z" />
<glyph unicode="&#x2022;" glyph-name="bullet" horiz-adv-x="434" d="M249 230T217 230T163 252T140 307T162 361T216 384T271 361T294 307T272 253Z" />
<glyph unicode="&#x2039;" glyph-name="guilsinglleft" horiz-adv-x="364" d="M330 436L129 243V238L331 45L307 21L63 221Q59 240 63 261L307 460L330 436Z" />
<glyph unicode="&#x203a;" glyph-name="guilsinglright" horiz-adv-x="364" d="M235 243L34 436L57 460L301 261Q305 240 301 221L57 21L33 45L235 238V243Z" />
</font>
</defs>
</svg>
