<?xml version="1.0" standalone="no"?>
<!DOCTYPE svg PUBLIC "-//W3C//DTD SVG 1.1//EN" "http://www.w3.org/Graphics/SVG/1.1/DTD/svg11.dtd">
<svg xmlns="http://www.w3.org/2000/svg">
<defs >
<font id="BerkshireSwash" horiz-adv-x="855" ><font-face
    font-family="Berkshire Swash"
    units-per-em="2048"
    panose-1="2 0 5 5 0 0 0 2 0 3"
    ascent="2007"
    descent="-537"
    alphabetic="0" />
<glyph unicode=" " glyph-name="space" horiz-adv-x="461" />
<glyph unicode="!" glyph-name="exclam" horiz-adv-x="748" d="M205 152Q205 187 218 218T253 272T307 308T373 322Q408 322 439 309T493 272T529 218T543 152Q543 116 530 86T493 33T439 -3T373 -16Q338 -16 307 -3T254 32T218 85T205 152ZM213 1395Q213 1405
217 1422T236 1455T281 1483T365 1495Q418 1495 449 1485T498 1459T520 1426T524 1395Q518 1308 511 1221T494 1051T475 891T456 745Q434 586 410 440H336Q310 586 286 745Q276 813 266 890T245 1051T227 1222T213 1395Z" />
<glyph unicode="&quot;" glyph-name="quotedbl" horiz-adv-x="743" d="M285 1028Q283 1011 276 1002T257 988T234 982T213 981Q204 981 192 982T169 987T150 1001T141 1028L104 1427Q102 1444 110 1457T133 1478T168 1491T213 1495Q237 1495 257 1491T293 1479T315
1457T322 1427L285 1028ZM602 1028Q600 1011 593 1002T574 988T551 982T530 981Q521 981 510 982T487 987T468 1001T459 1028L422 1427Q420 1444 428 1457T451 1478T486 1491T530 1495Q578 1495 610 1479T639 1427L602 1028Z" />
<glyph unicode="#" glyph-name="numbersign" horiz-adv-x="952" d="M524 524H336L268 125H160L225 524H76V637H244L299 965H143V1077H317L379 1436H489L428 1077H616L678 1436H788L727 1077H874V965H709L653 637H807V524H635L567 125H459L524 524ZM354 637H543L598
965H410L354 637Z" />
<glyph unicode="$" glyph-name="dollar" horiz-adv-x="1036" d="M578 1374Q567 1374 558 1373T539 1370V965Q578 926 622 886T710 804T793 717T863 624T912 525T930 418Q930 329 902 258T823 136T700 55T539 20V-276H477V20Q395 25 328 53T210 119T122 198T63
272L96 299Q114 278 142 250T210 195T298 151T406 133Q424 133 442 134T477 141V600Q418 657 351 716T226 840T132 975T94 1126Q94 1207 127 1266T213 1366T336 1428T477 1452V1636H539V1452Q599 1449 654 1434T750 1394T815 1332T840 1251Q840 1213 815 1185T745
1157Q702 1157 680 1176T657 1227Q657 1248 667 1260T691 1279T714 1292T725 1307Q725 1320 713 1332T681 1354T635 1368T578 1374ZM623 362Q623 407 600 450T539 537V172Q577 200 600 247T623 362ZM395 1202Q395 1157 417 1114T477 1028V1348Q440 1328 418 1292T395
1202Z" />
<glyph unicode="%" glyph-name="percent" horiz-adv-x="1536" d="M410 719Q344 719 283 745T175 820T100 942T72 1106Q72 1198 100 1270T174 1393T282 1469T410 1495Q476 1495 537 1469T645 1393T720 1271T748 1106Q748 1014 720 942T645 821T537 745T410 719ZM410
1432Q391 1432 372 1423T338 1381T313 1283T303 1106Q303 994 312 930T337 835T372 796T410 788Q422 788 434 791T457 804T479 834T497 890T509 978T514 1106Q514 1218 505 1283T480 1381T447 1423T410 1432ZM1141 1497L1208 1458L387 -16L319 23L1141 1497ZM1126
-16Q1060 -16 999 10T891 85T816 207T788 371Q788 463 816 535T891 657T999 733T1126 760Q1192 760 1253 734T1361 657T1436 535T1464 371Q1464 279 1436 207T1362 86T1254 10T1126 -16ZM1126 696Q1108 696 1089 688T1055 646T1030 548T1020 371Q1020 259 1029
195T1054 100T1089 61T1126 53Q1144 53 1162 60T1196 99T1221 195T1231 371Q1231 483 1222 548T1197 646T1163 687T1126 696Z" />
<glyph unicode="&amp;" glyph-name="ampersand" horiz-adv-x="1462" d="M846 893Q751 895 673 873T539 799T453 666T422 469Q422 424 427 377T444 287T477 204T527 137T597 91T690 74Q753 74 799 105T876 184T921 292T936 408Q936 451 926 486T896 546T848 586T786
600Q749 600 721 586T692 549Q692 534 707 529T741 515T775 490T791 440Q791 400 765 377T696 354Q670 354 651 365T618 395T597 437T590 485Q590 546 620 584T698 646T809 680T937 701T1064 720T1175 750T1254 803T1284 891Q1284 922 1273 937T1247 958Q1230 965
1210 963Q1195 963 1184 960T1164 952T1144 944T1122 940Q1098 940 1078 959T1057 1022Q1057 1062 1072 1090T1110 1136T1160 1162T1214 1171Q1265 1171 1303 1154T1368 1108T1408 1044T1421 973Q1421 902 1402 849T1347 756T1259 692T1139 651Q1170 616 1187 564T1204
438Q1204 357 1168 276T1060 130T881 25T631 -16Q511 -16 410 16T237 111T123 264T82 469Q82 550 104 616T162 733T245 822T340 886T434 926T516 946Q502 950 480 958T432 981T380 1016T334 1065T300 1129T287 1212Q287 1278 316 1330T396 1419T515 1475T662 1495Q752
1495 817 1481T924 1441T987 1381T1008 1309Q1008 1291 1003 1272T985 1237T955 1211T911 1200Q882 1200 869 1216T849 1256T840 1307T827 1359T798 1399T737 1415Q706 1415 678 1398T629 1350T595 1276T582 1182Q582 1135 599 1094T649 1020T732 967T846 940V893Z"
/>
<glyph unicode="&apos;" glyph-name="quotesingle" horiz-adv-x="426" d="M285 1028Q283 1011 276 1002T257 988T234 982T213 981Q204 981 192 982T169 987T150 1001T141 1028L104 1427Q102 1444 110 1457T133 1478T168 1491T213 1495Q237 1495 257 1491T293 1479T315
1457T322 1427L285 1028Z" />
<glyph unicode="(" glyph-name="parenleft" horiz-adv-x="815" d="M795 -369Q707 -345 622 -303T459 -201T317 -61T204 117T129 335T102 594Q102 734 129 853T203 1070T316 1248T459 1388T621 1490T795 1556V1511Q771 1498 734 1471T653 1396T567 1280T489 1113T432
887T410 594Q410 429 432 301T489 75T567 -92T653 -209T733 -283T795 -324V-369Z" />
<glyph unicode=")" glyph-name="parenright" horiz-adv-x="815" d="M20 -324Q44 -311 81 -284T162 -209T248 -93T327 74T384 300T406 594Q406 759 384 887T327 1112T249 1279T162 1396T82 1470T20 1511V1556Q108 1532 193 1490T356 1388T498 1249T611 1071T686
853T713 594Q713 454 686 335T612 118T499 -60T356 -200T194 -303T20 -369V-324Z" />
<glyph unicode="*" glyph-name="asterisk" horiz-adv-x="778" d="M446 1239L635 1350Q652 1361 674 1347T713 1294Q731 1251 725 1229T698 1198L475 1135L635 969Q649 953 641 929T598 879Q561 851 538 851T504 870L389 1067L274 870Q263 852 240 852T180 879Q145
905 137 929T143 969L301 1135L80 1198Q60 1207 54 1229T66 1294Q83 1333 104 1347T143 1350L332 1239L307 1446Q305 1466 325 1480T391 1495Q436 1495 454 1481T471 1446L446 1239Z" />
<glyph unicode="+" glyph-name="plus" horiz-adv-x="969" d="M123 692H397V967H571V692H846V518H571V244H397V518H123V692Z" />
<glyph unicode="," glyph-name="comma" horiz-adv-x="563" d="M113 -336Q174 -282 197 -219T221 -100Q221 -37 196 9T139 90Q125 107 125 133Q125 160 140 189T179 244T236 285T303 301Q342 301 368 276T410 213T433 135T440 61Q440 -7 416 -69T352 -187T257 -288T143
-371L113 -336Z" />
<glyph unicode="-" glyph-name="hyphen" horiz-adv-x="717" d="M102 641H614V399H102V641Z" />
<glyph unicode="." glyph-name="period" horiz-adv-x="584" d="M123 152Q123 187 136 218T171 272T225 308T291 322Q326 322 357 309T411 272T447 218T461 152Q461 116 448 86T411 33T357 -3T291 -16Q256 -16 225 -3T172 32T136 85T123 152Z" />
<glyph unicode="/" glyph-name="slash" horiz-adv-x="748" d="M592 1556L707 1518L156 -82L41 -41L592 1556Z" />
<glyph unicode="0" glyph-name="zero" horiz-adv-x="1169" d="M584 -16Q476 -16 382 15T218 110T107 274T66 510Q66 646 106 746T217 910T382 1006T584 1038Q692 1038 786 1007T951 911T1063 746T1104 510Q1104 374 1063 275T952 111T787 15T584 -16ZM584 950Q565
950 544 945T503 924T464 879T432 800T410 680T401 508Q401 408 409 337T432 217T464 141T502 97T544 78T584 74Q603 74 624 78T666 97T705 140T738 217T760 336T768 508Q768 608 760 679T738 800T706 878T667 924T625 945T584 950Z" />
<glyph unicode="1" glyph-name="one" horiz-adv-x="670" d="M530 131Q530 54 491 19T369 -16Q285 -16 246 19T207 131V799Q207 812 204 825T193 849T171 867T135 874Q115 874 96 866T61 848Q43 837 25 823L0 856Q123 953 223 995T412 1038Q464 1038 497 1008T530
911V131V131Z" />
<glyph unicode="2" glyph-name="two" horiz-adv-x="932" d="M473 1038Q548 1038 613 1020T725 965T800 871T827 735Q827 681 805 632T745 539T659 456T560 383T460 320T369 266H705Q765 266 791 291T823 369H864Q864 337 863 297T857 216T842 136T813 67T765 19T694
0H0V57Q30 76 78 112T182 196T293 302T394 421T467 546T496 670Q496 713 485 748T449 808T389 848T301 862Q253 862 214 850T142 817T84 770T39 715L12 741Q34 788 75 840T176 936T310 1009T473 1038Z" />
<glyph unicode="3" glyph-name="three" horiz-adv-x="928" d="M438 1038Q505 1038 566 1019T674 961T748 864T776 729Q776 667 757 623T706 547T638 495T567 461V455Q621 444 681 417T791 340T874 217T907 41Q907 -2 896 -52T862 -153T801 -250T712 -333T591 -390T436
-412Q368 -412 312 -398T209 -361T127 -309T64 -249T16 -190T-20 -139L10 -113Q61 -184 127 -221T287 -258Q328 -258 377 -242T468 -187T538 -87T567 68Q567 136 546 195T481 299T371 371T215 401V442Q257 442 298 457T372 502T425 575T446 676Q446 716 437 756T405
828T349 880T264 901Q235 901 211 894T167 873T130 842T96 801L66 825Q97 872 135 911T218 978T318 1022T438 1038Z" />
<glyph unicode="4" glyph-name="four" horiz-adv-x="1067" d="M524 41H51V133L516 920Q528 939 542 960T576 998T624 1026T692 1038Q735 1038 765 1029T813 1002T840 961T848 909V133H1047V41H848V-264Q848 -342 809 -377T686 -412Q602 -412 563 -377T524 -264V41ZM524
133V725L182 133H524Z" />
<glyph unicode="5" glyph-name="five" horiz-adv-x="967" d="M858 1079Q858 1032 855 976T834 872T782 791T682 758H242L178 446Q200 464 229 479T293 507T366 525T446 532Q502 532 559 522T670 489T769 431T849 346T902 232T922 86Q922 -33 885 -125T784 -282T635
-379T453 -412Q354 -412 282 -388T157 -329T69 -254T10 -182L41 -154Q61 -179 86 -201T143 -239T212 -264T293 -274Q350 -274 402 -253T493 -187T556 -76T580 82Q580 169 559 232T502 336T418 398T315 418Q273 418 241 407T186 380T148 345T123 311L80 324L219
1024H721Q817 1024 817 1079H858V1079Z" />
<glyph unicode="6" glyph-name="six" horiz-adv-x="1102" d="M756 1448Q667 1401 606 1338T505 1197T445 1028T416 834Q437 853 463 871T522 905T596 929T688 938Q736 938 795 918T906 847T994 713T1030 500Q1030 375 992 279T888 117T737 18T557 -16Q457 -16
369 22T215 139T111 334T72 608Q72 705 94 799T159 982T261 1148T395 1292T556 1407T739 1485L756 1448ZM541 809Q493 809 463 796T412 768Q409 730 409 691T408 610Q408 343 450 210T569 76Q603 76 629 103T674 178T701 296T711 449Q711 541 697 608T658 720T604
787T541 809Z" />
<glyph unicode="7" glyph-name="seven" horiz-adv-x="915" d="M172 758Q128 758 101 744T61 682H20Q36 779 49 845T81 950T124 1007T190 1024H834Q876 1024 895 1008T915 965Q915 944 903 920Q827 784 755 638T626 341T535 38T500 -264Q500 -335 461 -373T338
-412Q254 -412 215 -377T176 -264Q176 -167 215 -52T323 193T484 464T682 758H172Z" />
<glyph unicode="8" glyph-name="eight" horiz-adv-x="1047" d="M911 1182Q911 1097 864 1025T711 881Q762 837 810 790T897 687T958 568T981 428Q981 319 943 236T839 98T689 14T510 -16Q390 -17 306 16T168 104T91 226T66 362Q66 418 79 471T124 575T208 677T338
778Q295 815 256 854T188 938T141 1033T123 1145Q123 1235 159 1301T255 1410T391 1474T545 1495Q618 1495 684 1475T800 1416T881 1319T911 1182ZM668 328Q668 392 647 446T590 547T508 635T414 717Q387 676 369 630T340 535T324 441T319 354Q319 283 333 230T373
142T431 88T502 70Q542 70 573 91T625 147T657 229T668 328ZM426 1249Q426 1204 443 1164T489 1086T557 1013T639 940Q660 979 670 1017T684 1090T688 1155T688 1206Q688 1242 681 1278T657 1344T616 1391T557 1409Q527 1409 503 1397T462 1362T435 1311T426 1249Z"
/>
<glyph unicode="9" glyph-name="nine" horiz-adv-x="1094" d="M266 -375Q353 -334 419 -278T533 -151T612 3T662 180Q624 154 571 135T438 115Q367 115 299 144T178 230T93 367T61 553Q61 668 98 758T199 910T347 1005T526 1038Q627 1038 717 1001T875 890T982
704T1022 442Q1022 346 995 253T920 73T803 -91T653 -231T477 -340T283 -412L266 -375ZM557 227Q592 227 622 235T674 254Q682 313 685 374T688 500Q688 721 648 835T532 950Q497 950 469 922T420 843T390 719T379 557Q379 462 395 399T437 298T494 243T557 227Z"
/>
<glyph unicode=":" glyph-name="colon" horiz-adv-x="645" d="M154 152Q154 187 167 218T202 272T255 308T322 322Q357 322 388 309T442 272T478 218T492 152Q492 116 479 86T442 33T388 -3T322 -16Q286 -16 256 -3T203 32T167 85T154 152ZM154 827Q154 863 167
894T202 948T255 984T322 997Q357 997 388 984T442 948T478 894T492 827Q492 792 479 761T442 708T388 672T322 659Q286 659 256 672T203 707T167 761T154 827Z" />
<glyph unicode=";" glyph-name="semicolon" horiz-adv-x="645" d="M154 827Q154 863 167 894T202 948T255 984T322 997Q357 997 388 984T442 948T478 894T492 827Q492 792 479 761T442 708T388 672T322 659Q286 659 256 672T203 707T167 761T154 827ZM150 -336Q180
-309 201 -279T234 -219T252 -158T258 -100Q258 -37 233 9T176 90Q162 107 162 133Q162 160 177 189T216 244T273 285T340 301Q378 301 404 276T447 213T470 135T477 61Q477 -7 453 -69T389 -187T294 -288T180 -371L150 -336Z" />
<glyph unicode="&lt;" glyph-name="less" horiz-adv-x="969" d="M123 662L754 1049L842 901L356 608L842 315L754 168L123 551V662Z" />
<glyph unicode="=" glyph-name="equal" horiz-adv-x="969" d="M143 862H825V688H143V862ZM143 522H825V348H143V522Z" />
<glyph unicode="&gt;" glyph-name="greater" horiz-adv-x="969" d="M846 551L215 168L127 315L612 608L127 901L215 1049L846 662V551Z" />
<glyph unicode="?" glyph-name="question" horiz-adv-x="1118" d="M455 1405Q405 1405 362 1387T287 1337T237 1267T219 1188Q219 1159 227 1143T246 1118T267 1107T283 1104Q306 1104 321 1111T347 1127T369 1143T395 1151Q406 1151 418 1147T442 1132T460 1104T467
1061Q467 1030 452 1006T412 964T357 937T297 928Q207 928 155 986T102 1153Q102 1240 138 1304T235 1411T374 1474T535 1495Q631 1495 711 1469T850 1396T942 1281T975 1133Q975 1044 945 978T869 860T767 764T662 675T573 578T522 459H442Q442 521 458 575T497
679T548 780T599 885T639 1002T655 1141Q655 1200 644 1248T608 1332T545 1386T455 1405ZM330 152Q330 187 343 218T378 272T431 308T498 322Q533 322 564 309T618 272T654 218T668 152Q668 116 655 86T618 33T564 -3T498 -16Q462 -16 432 -3T379 32T343 85T330
152Z" />
<glyph unicode="@" glyph-name="at" horiz-adv-x="1876" d="M1038 686Q1038 708 1023 719T985 731Q953 731 925 717T874 674T838 605T825 510Q825 459 833 425T854 371T885 342T922 334Q946 334 967 345T1003 375T1028 418T1038 467V686ZM971 1153Q1055 1153 1120
1138T1229 1091T1297 1006T1321 881V362Q1321 329 1327 309T1342 279T1365 265T1393 262Q1450 262 1503 295T1598 388T1665 535T1690 729Q1690 879 1645 1001T1509 1209T1286 1342T977 1389Q835 1389 704 1338T473 1191T312 955T252 639Q252 461 310 321T468 85T697
-62T971 -113Q1011 -113 1053 -110T1135 -101T1209 -86T1266 -63L1298 -117Q1265 -135 1225 -147T1139 -168T1045 -180T948 -184Q830 -184 722 -156T519 -76T348 50T217 215T132 414T102 639Q102 763 132 874T218 1081T352 1253T527 1383T736 1466T971 1495Q1153
1495 1301 1442T1554 1290T1716 1048T1774 729Q1774 612 1747 512T1664 338T1525 224T1331 182Q1221 182 1159 230T1077 360Q1025 283 948 243T788 203Q744 203 702 216T628 260T575 337T555 451Q555 532 587 585T674 674T797 737T940 791Q993 812 1015 847T1038
924Q1038 993 1001 1036T895 1079Q863 1079 837 1072T791 1054T761 1030T750 1006Q750 992 764 986T796 972T827 950T842 907Q842 889 834 873T813 845T781 826T743 819Q692 819 661 853T629 944Q629 999 660 1038T740 1103T850 1141T971 1153Z" />
<glyph unicode="A" glyph-name="A" horiz-adv-x="1528" d="M944 422H567Q525 290 477 193T369 32T240 -63T82 -94Q34 -94 -10 -86T-89 -62T-143 -27T-164 18Q-164 36 -159 54T-143 88T-119 113T-86 123Q-70 123 -58 101T-28 53T20 4T100 -18Q152 -18 199 7T289
85T373 222T451 422H215V510H477Q510 622 541 736T601 955T651 1151T688 1311Q668 1367 634 1386T541 1405Q487 1405 430 1389T325 1342T248 1267T217 1167Q217 1135 225 1116T245 1088T268 1076T285 1073Q309 1073 325 1081T354 1099T379 1117T406 1126Q417 1126
430 1121T455 1103T475 1072T483 1024Q483 984 468 955T428 907T372 878T309 868Q261 868 223 885T157 933T116 1003T102 1087Q102 1153 124 1208T185 1309T277 1389T391 1447T520 1483T655 1495Q751 1495 817 1480T929 1434T1001 1357T1047 1249L1262 510H1479V422H1286L1364
160Q1368 145 1372 132T1381 110T1395 94T1417 88Q1445 88 1469 97T1511 117L1528 80Q1510 67 1483 51T1420 19T1341 -6T1249 -16Q1181 -16 1140 1T1075 43T1041 96T1024 145L944 422ZM750 1098Q709 931 671 784T594 510H920L750 1098Z" />
<glyph unicode="B" glyph-name="B" horiz-adv-x="1608" d="M842 178Q842 155 846 135T864 99T901 75T963 66Q1018 66 1064 97T1143 178T1194 289T1212 412Q1212 503 1188 572T1119 690T1015 764T885 795L905 846Q949 844 989 858T1059 907T1108 1001T1126 1151Q1126
1212 1111 1261T1072 1343T1015 1395T948 1413Q927 1413 908 1408T874 1391T851 1360T842 1311V178ZM862 1495Q1152 1495 1288 1405T1425 1141Q1425 1098 1416 1062T1391 997T1357 944T1318 904Q1271 863 1212 840V825Q1305 814 1379 769Q1410 750 1440 722T1493
653T1531 559T1546 436Q1546 331 1508 247T1395 105T1208 15T948 -16Q811 -16 725 1T591 50T526 129T508 233V1327Q508 1382 432 1382Q377 1382 321 1366T219 1321T144 1253T115 1167Q115 1135 123 1116T143 1088T165 1076T182 1073Q207 1073 223 1081T252 1099T276
1117T303 1126Q315 1126 328 1121T353 1103T373 1072T381 1024Q381 984 366 955T326 907T270 878T207 868Q159 868 121 884T55 930T14 998T0 1081Q0 1164 31 1227T118 1337T254 1413T429 1462T634 1487T862 1495Z" />
<glyph unicode="C" glyph-name="C" horiz-adv-x="1116" d="M768 1409Q741 1409 705 1398T632 1357T558 1271T494 1129T448 916T430 621Q430 459 447 340T494 138T562 1T642 -81T726 -122T805 -133Q844 -133 884 -123T962 -94T1036 -48T1102 14L1147 -31Q1117 -68
1075 -106T978 -176T853 -228T700 -248Q569 -248 457 -198T261 -43T130 228T82 623Q82 839 132 1002T268 1274T470 1439T717 1495Q804 1495 875 1479T999 1431T1079 1353T1108 1247Q1108 1220 1099 1191T1072 1137T1026 1097T963 1081Q931 1081 914 1095T888 1132T877
1184T873 1245T869 1305T855 1358T824 1395T768 1409Z" />
<glyph unicode="D" glyph-name="D" horiz-adv-x="1694" d="M487 1319Q487 1351 464 1366T412 1382Q356 1382 303 1366T208 1321T141 1253T115 1167Q115 1135 123 1116T143 1088T165 1076T182 1073Q207 1073 223 1081T252 1099T276 1117T303 1126Q315 1126 328
1121T353 1103T373 1072T381 1024Q381 984 366 955T326 907T270 878T207 868Q159 868 121 884T55 930T14 998T0 1081Q0 1206 63 1286T234 1413T487 1477T795 1495Q981 1495 1131 1458T1389 1336T1554 1117T1612 786Q1612 591 1551 440T1383 187T1133 31T825 -23Q716
-23 650 -13T547 23T499 91T487 199V1319ZM817 190Q817 133 842 109T918 84Q993 84 1056 117T1166 230T1238 445T1264 782Q1264 918 1248 1017T1204 1186T1143 1299T1072 1367T1002 1400T940 1409Q875 1409 846 1380T817 1276V190Z" />
<glyph unicode="E" glyph-name="E" horiz-adv-x="1415" d="M0 1061Q0 1178 64 1260T241 1394T502 1471T821 1495Q902 1495 979 1494T1119 1489T1229 1482T1296 1473Q1316 1468 1328 1462T1346 1448T1354 1430T1356 1405Q1356 1393 1353 1379T1344 1352T1329 1330T1307
1321Q1299 1321 1290 1328T1263 1346T1216 1369T1137 1392T1014 1410T836 1417V776H1251V688H836V297Q836 250 850 217T890 161T952 129T1034 119Q1085 119 1136 129T1232 156T1315 192T1376 231L1415 188Q1390 168 1348 134T1246 66T1105 9T922 -16Q888 -16 845
-13T755 1T665 32T586 87T530 170T508 289V688H352V776H508V1405Q476 1402 435 1394T350 1370T264 1333T189 1284T136 1222T115 1147Q115 1115 123 1096T143 1068T165 1056T182 1053Q207 1053 223 1061T252 1079T276 1097T303 1106Q315 1106 328 1101T353 1083T373
1052T381 1004Q381 964 366 935T326 886T270 858T207 848Q159 848 121 864T55 910T14 977T0 1061Z" />
<glyph unicode="F" glyph-name="F" horiz-adv-x="1296" d="M1231 688H836V131Q836 54 796 19T672 -16Q588 -16 548 19T508 131V688H352V776H508V1405Q476 1402 435 1394T350 1370T264 1333T189 1284T136 1222T115 1147Q115 1115 123 1096T143 1068T165 1056T182
1053Q207 1053 223 1061T252 1079T276 1097T303 1106Q315 1106 328 1101T353 1083T373 1052T381 1004Q381 964 366 935T326 886T270 858T207 848Q159 848 121 864T55 910T14 977T0 1061Q0 1178 64 1260T241 1394T502 1471T821 1495Q890 1495 965 1494T1106 1489T1224
1482T1296 1473Q1316 1468 1328 1462T1346 1448T1354 1430T1356 1405Q1356 1393 1353 1379T1344 1352T1329 1330T1307 1321Q1299 1321 1290 1328T1263 1346T1216 1369T1137 1392T1014 1410T836 1417V776H1231V688Z" />
<glyph unicode="G" glyph-name="G" horiz-adv-x="1366" d="M1346 616H1202V29Q1202 -107 1156 -208T1028 -377T832 -478T586 -512Q535 -512 488 -504T405 -480T348 -445T326 -399Q326 -381 331 -363T346 -329T370 -305T403 -295Q415 -295 423 -306T440 -333T461
-368T491 -404T535 -431T600 -442Q677 -442 736 -414T834 -336T894 -215T915 -59V2Q873 -7 831 -11T735 -16Q599 -16 480 25T273 154T133 376T82 698Q82 828 110 938T188 1136T306 1292T455 1404T625 1472T807 1495Q894 1495 969 1479T1099 1431T1187 1353T1219
1247Q1219 1220 1210 1191T1182 1137T1137 1097T1073 1081Q1030 1081 1010 1105T979 1166T963 1245T946 1324T910 1384T838 1409Q803 1409 759 1392T670 1339T582 1246T505 1110T451 929T430 698Q430 556 448 456T495 288T563 181T643 121T724 96T799 90Q834 90
863 95T915 111V616H739V705H1346V616Z" />
<glyph unicode="H" glyph-name="H" horiz-adv-x="1776" d="M326 766H508V1335Q508 1357 503 1370T489 1390T468 1400T440 1403Q418 1403 386 1396T317 1375T245 1341T180 1294T133 1236T115 1167Q115 1135 123 1116T143 1088T165 1076T182 1073Q207 1073 223 1081T252
1099T276 1117T303 1126Q315 1126 328 1121T353 1103T373 1072T381 1024Q381 984 366 955T326 907T270 878T207 868Q159 868 121 884T55 930T14 998T0 1081Q0 1150 25 1207T93 1311T195 1391T322 1449T464 1483T612 1495Q694 1495 739 1480T806 1442T832 1396T836
1356V766H1204V1247Q1204 1412 1247 1528T1358 1717T1510 1824T1677 1858Q1734 1858 1785 1850T1875 1824T1937 1782T1960 1722Q1960 1707 1956 1694T1943 1669T1925 1652T1903 1645Q1885 1645 1871 1656T1845 1683T1820 1719T1793 1755T1759 1783T1714 1794Q1653
1794 1617 1761T1562 1663T1538 1502T1532 1282V766H1733V678H1532V70Q1532 41 1544 24T1583 6Q1611 6 1635 16T1677 35L1694 -2Q1672 -17 1643 -33T1578 -64T1502 -88T1417 -98Q1349 -98 1307 -80T1242 -33T1212 34T1204 109V678H836V180Q836 44 787 -57T651 -225T449
-326T199 -360Q148 -360 101 -352T18 -328T-39 -293T-61 -248Q-61 -230 -56 -212T-41 -178T-17 -153T16 -143Q27 -143 35 -154T53 -181T73 -217T103 -252T148 -280T213 -291Q290 -291 345 -263T437 -184T490 -63T508 92V678H326V766Z" />
<glyph unicode="I" glyph-name="I" horiz-adv-x="987" d="M836 131Q836 54 796 19T672 -16Q588 -16 548 19T508 131V1335Q508 1357 503 1370T489 1390T468 1400T440 1403Q418 1403 386 1396T317 1375T245 1341T180 1294T133 1236T115 1167Q115 1135 123 1116T143
1088T165 1076T182 1073Q207 1073 223 1081T252 1099T276 1117T303 1126Q315 1126 328 1121T353 1103T373 1072T381 1024Q381 984 366 955T326 907T270 878T207 868Q159 868 121 884T55 930T14 998T0 1081Q0 1150 25 1207T93 1311T195 1391T322 1449T464 1483T612
1495Q694 1495 739 1480T806 1442T832 1396T836 1356V131Z" />
<glyph unicode="J" glyph-name="J" horiz-adv-x="987" d="M836 180Q836 44 787 -57T651 -225T449 -326T199 -360Q148 -360 101 -352T18 -328T-39 -293T-61 -248Q-61 -230 -56 -212T-41 -178T-17 -153T16 -143Q27 -143 35 -154T53 -181T73 -217T103 -252T148 -280T213
-291Q290 -291 345 -263T437 -184T490 -63T508 92V1335Q508 1357 503 1370T489 1390T468 1400T440 1403Q418 1403 386 1396T317 1375T245 1341T180 1294T133 1236T115 1167Q115 1135 123 1116T143 1088T165 1076T182 1073Q207 1073 223 1081T252 1099T276 1117T303
1126Q315 1126 328 1121T353 1103T373 1072T381 1024Q381 984 366 955T326 907T270 878T207 868Q159 868 121 884T55 930T14 998T0 1081Q0 1150 25 1207T93 1311T195 1391T322 1449T464 1483T612 1495Q694 1495 739 1480T806 1442T832 1396T836 1356V180V180Z"
/>
<glyph unicode="K" glyph-name="K" horiz-adv-x="1675" d="M836 899Q925 1027 998 1126T1134 1298T1249 1422T1353 1502T1454 1546T1559 1559Q1690 1559 1690 1475Q1690 1464 1688 1449T1681 1420T1665 1396T1640 1386Q1629 1386 1615 1397T1581 1421T1537 1446T1481
1458Q1447 1458 1404 1430T1310 1354T1205 1243T1094 1108Q1244 766 1358 515T1567 100T1742 -145T1903 -225Q1917 -225 1931 -221T1956 -212Q1969 -207 1982 -199L2003 -238Q1986 -248 1957 -262T1887 -288T1797 -310T1692 -319Q1615 -319 1549 -295T1421 -218T1298
-78T1172 134T1033 425T874 805L836 748V131Q836 54 796 19T672 -16Q588 -16 548 19T508 131V1335Q508 1357 503 1370T489 1390T468 1400T440 1403Q418 1403 386 1396T317 1375T245 1341T180 1294T133 1236T115 1167Q115 1135 123 1116T143 1088T165 1076T182 1073Q207
1073 223 1081T252 1099T276 1117T303 1126Q315 1126 328 1121T353 1103T373 1072T381 1024Q381 984 366 955T326 907T270 878T207 868Q159 868 121 884T55 930T14 998T0 1081Q0 1150 25 1207T93 1311T195 1391T322 1449T464 1483T612 1495Q694 1495 739 1480T806
1442T832 1396T836 1356V899Z" />
<glyph unicode="L" glyph-name="L" horiz-adv-x="1341" d="M836 227Q836 184 846 158T877 116T927 96T999 90Q1065 90 1118 103T1211 133T1278 164T1321 178Q1340 178 1351 166T1362 131Q1362 91 1354 74T1321 47Q1230 15 1116 0T858 -16Q751 -16 683 -7T576 27T523
92T508 199V1335Q508 1357 503 1370T489 1390T468 1400T440 1403Q418 1403 386 1396T317 1375T245 1341T180 1294T133 1236T115 1167Q115 1135 123 1116T143 1088T165 1076T182 1073Q207 1073 223 1081T252 1099T276 1117T303 1126Q315 1126 328 1121T353 1103T373
1072T381 1024Q381 984 366 955T326 907T270 878T207 868Q159 868 121 884T55 930T14 998T0 1081Q0 1150 25 1207T93 1311T195 1391T322 1449T464 1483T612 1495Q694 1495 739 1480T806 1442T832 1396T836 1356V227Z" />
<glyph unicode="M" glyph-name="M" horiz-adv-x="2054" d="M1030 358L670 1075L657 834Q651 729 647 626T630 429T593 255T519 117T393 25T199 -8Q148 -8 101 0T18 24T-39 59T-61 104Q-61 122 -56 140T-41 174T-17 199T16 209Q27 209 35 198T53 171T73 135T103
100T148 72T213 61Q290 61 342 87T429 164T481 285T508 446Q512 496 516 542T524 635T531 728T539 829Q544 906 548 975T554 1105T558 1213T561 1296Q544 1331 531 1352T504 1385T473 1401T432 1405Q412 1405 383 1398T322 1376T259 1342T203 1295T163 1236T147
1167Q147 1135 155 1116T175 1088T198 1076T215 1073Q240 1073 256 1081T285 1099T309 1117T336 1126Q348 1126 361 1121T386 1103T406 1072T414 1024Q414 984 399 955T359 907T303 878T240 868Q192 868 154 884T88 930T47 998T33 1081Q33 1185 81 1262T207 1392T383
1469T584 1495Q666 1495 721 1479T813 1435T874 1370T918 1292L1182 756Q1285 959 1369 1119T1526 1402T1660 1610T1781 1750T1897 1830T2017 1855Q2070 1855 2103 1833T2136 1765Q2136 1725 2123 1699T2087 1673Q2068 1673 2058 1687T2039 1719T2015 1750T1974
1765Q1958 1765 1935 1756T1888 1729T1839 1684T1797 1621T1769 1539T1763 1438Q1767 1375 1774 1291T1789 1110T1807 910T1827 707T1846 515T1864 349T1879 223T1890 152Q1896 123 1906 106T1942 88Q1969 88 1993 97T2036 117L2052 80Q2034 67 2007 51T1944 19T1866
-6T1774 -16Q1705 -16 1665 1T1604 44T1575 98T1563 150Q1554 201 1544 273T1525 427T1506 597T1490 768T1476 926T1466 1055Q1436 1006 1411 961T1361 868T1312 768T1260 655T1200 521T1128 358H1030Z" />
<glyph unicode="N" glyph-name="N" horiz-adv-x="1669" d="M496 961Q496 1052 495 1128T492 1260T489 1350T487 1389Q467 1403 442 1404T391 1405Q356 1405 307 1389T212 1342T134 1267T102 1167Q102 1135 110 1116T130 1088T153 1076T170 1073Q195 1073 211 1081T240
1099T264 1117T291 1126Q303 1126 316 1121T341 1103T361 1072T369 1024Q369 984 354 955T314 907T258 878T195 868Q147 868 109 884T43 930T2 998T-12 1081Q-12 1185 31 1262T147 1392T314 1469T510 1495Q601 1495 660 1483T756 1451T814 1404T850 1346Q911 1222
968 1102T1079 868T1183 649T1282 449V592V901Q1282 984 1286 1063T1305 1213T1349 1343T1426 1445T1547 1512T1720 1536Q1771 1536 1814 1529T1888 1507T1938 1473T1956 1427Q1956 1411 1952 1394T1938 1362T1916 1339T1884 1329Q1869 1329 1857 1350T1826 1396T1777
1443T1694 1464Q1613 1464 1560 1436T1473 1355T1425 1229T1405 1063Q1403 1000 1402 941T1400 820T1399 694T1399 553Q1399 447 1400 363T1403 225Q1448 148 1492 87T1578 -17T1664 -83T1751 -106Q1765 -106 1778 -102T1801 -93Q1812 -88 1823 -80L1855 -119Q1841
-129 1816 -143T1754 -170T1670 -192T1567 -201Q1486 -201 1412 -162T1268 -53T1136 108T1015 307T902 528T798 755T701 973T610 1167Q610 1109 611 1047T612 922V612Q612 529 608 450T589 301T546 171T468 68T347 1T174 -23Q123 -23 80 -16T6 6T-43 40T-61 86Q-61
102 -57 119T-43 151T-21 174T10 184Q20 184 28 174T46 149T68 117T98 84T141 59T201 49Q282 49 335 77T422 158T470 285T489 451Q492 514 493 573T495 693T496 820T496 961Z" />
<glyph unicode="O" glyph-name="O" horiz-adv-x="1473" d="M645 1178Q645 1143 656 1121T683 1083T719 1057T754 1036T782 1011T793 975Q793 938 767 919T707 899Q675 899 648 919T600 973T567 1054T555 1153Q555 1217 575 1275T634 1378T730 1449T862 1475Q912
1475 971 1459T1088 1406T1201 1313T1298 1174T1366 984T1391 739Q1391 562 1339 422T1197 185T989 36T739 -16Q608 -16 489 29T280 166T136 401T82 739Q82 890 122 1014T231 1234T391 1395T584 1495L618 1452Q589 1423 564 1392T518 1322T481 1231T453 1110T436
949T430 739Q430 585 446 476T489 294T549 177T617 111T683 83T739 76Q763 76 794 82T859 111T926 176T984 293T1026 476T1042 739Q1042 874 1030 974T999 1145T954 1261T901 1333T846 1370T795 1380Q759 1380 731 1363T684 1318T655 1253T645 1178Z" />
<glyph unicode="P" glyph-name="P" horiz-adv-x="1462" d="M836 131Q836 54 796 19T672 -16Q588 -16 548 19T508 131V1327Q508 1382 432 1382Q377 1382 321 1366T219 1321T144 1253T115 1167Q115 1135 123 1116T143 1088T165 1076T182 1073Q207 1073 223 1081T252
1099T276 1117T303 1126Q315 1126 328 1121T353 1103T373 1072T381 1024Q381 984 366 955T326 907T270 878T207 868Q159 868 121 884T55 930T14 998T0 1081Q0 1164 31 1227T118 1337T254 1413T429 1462T634 1487T862 1495Q1148 1495 1295 1386T1442 1071Q1442 971
1416 894T1345 762T1242 672T1122 622T998 610T881 633L895 676Q970 653 1018 674T1094 751T1132 890T1143 1075Q1143 1151 1127 1213T1084 1320T1020 1388T942 1413Q910 1413 890 1404T858 1380T842 1349T836 1317V131Z" />
<glyph unicode="Q" glyph-name="Q" horiz-adv-x="1466" d="M733 -16Q718 -16 703 -15T674 -12Q730 -27 797 -54T937 -115T1082 -182T1223 -244T1349 -289T1450 -307Q1488 -307 1514 -299T1557 -278T1582 -250T1593 -219L1624 -225Q1619 -282 1602 -334T1552 -425T1473
-488T1362 -512Q1308 -512 1235 -486T1080 -422T911 -338T743 -255T590 -190T467 -164Q406 -164 383 -215L352 -205Q353 -193 359 -174T376 -132T406 -86T448 -45T505 -14T580 0Q475 23 384 79T226 226T121 445T82 739Q82 934 134 1076T276 1312T483 1450T733 1495Q864
1495 982 1450T1189 1312T1331 1077T1384 739Q1384 544 1332 402T1190 167T982 29T733 -16ZM733 1415Q709 1415 678 1408T613 1376T546 1306T488 1186T446 1002T430 739Q430 587 446 479T487 297T546 180T612 114T677 85T733 78Q756 78 788 84T853 113T920 179T978
296T1020 478T1036 739Q1036 892 1020 1001T979 1186T920 1306T854 1375T788 1407T733 1415Z" />
<glyph unicode="R" glyph-name="R" horiz-adv-x="1618" d="M862 1495Q1134 1495 1277 1399T1421 1122Q1421 1034 1401 972T1344 866T1257 794T1147 745Q1188 734 1229 686T1314 568T1401 411T1489 237T1579 66T1670 -82T1762 -186T1855 -225Q1875 -225 1894 -217T1925
-201L1946 -240Q1926 -251 1897 -264T1829 -290T1742 -310T1634 -319Q1537 -319 1459 -266T1325 -115Q1268 -15 1213 95T1104 315T995 530T885 727L893 768Q952 753 995 775T1067 846T1108 968T1122 1124Q1122 1184 1109 1236T1073 1328T1016 1390T942 1413Q910
1413 890 1404T857 1380T841 1349T836 1317V131Q836 54 796 19T672 -16Q588 -16 548 19T508 131V1327Q508 1382 432 1382Q377 1382 321 1366T219 1321T144 1253T115 1167Q115 1135 123 1116T143 1088T165 1076T182 1073Q207 1073 223 1081T252 1099T276 1117T303
1126Q315 1126 328 1121T353 1103T373 1072T381 1024Q381 984 366 955T326 907T270 878T207 868Q159 868 121 884T55 930T14 998T0 1081Q0 1164 31 1227T118 1337T254 1413T429 1462T634 1487T862 1495Z" />
<glyph unicode="S" glyph-name="S" horiz-adv-x="1053" d="M436 -145Q476 -145 515 -131T584 -83T634 5T653 137Q653 221 612 300T508 455T373 607T238 761T134 923T92 1098Q92 1189 125 1262T216 1387T350 1467T514 1495Q607 1495 679 1476T802 1423T879 1344T905
1247Q905 1223 898 1198T876 1151T838 1116T784 1102Q747 1102 730 1124T704 1180T689 1252T670 1325T631 1380T555 1403Q528 1403 502 1391T454 1355T419 1292T406 1202Q406 1142 431 1085T497 973T590 862T697 750T804 634T898 510T964 376T989 229Q989 116 946
28T828 -121T653 -214T440 -246Q338 -246 260 -221T127 -153T46 -58T18 53Q18 77 25 104T47 155T84 193T135 209Q165 209 183 194T213 154T231 97T246 32T266 -33T299 -90T353 -130T436 -145Z" />
<glyph unicode="T" glyph-name="T" horiz-adv-x="1192" d="M748 -16Q664 -16 624 19T584 131V1401Q552 1398 505 1390T405 1365T301 1327T208 1275T141 1208T115 1126Q115 1094 123 1075T143 1047T165 1035T182 1032Q207 1032 223 1040T252 1058T276 1076T303
1085Q315 1085 328 1080T353 1062T373 1031T381 983Q381 943 366 914T326 866T270 837T207 827Q159 827 121 843T55 889T14 957T0 1040Q0 1157 64 1242T241 1384T502 1468T821 1495Q902 1495 979 1494T1119 1489T1229 1482T1296 1473Q1316 1468 1328 1459T1346
1437T1354 1412T1356 1384Q1356 1373 1353 1359T1344 1331T1329 1309T1307 1300Q1299 1300 1291 1307T1267 1324T1227 1347T1160 1371T1058 1391T911 1403V131Q911 54 871 19T748 -16Z" />
<glyph unicode="U" glyph-name="U" horiz-adv-x="1716" d="M1411 -16Q1360 -16 1327 -7T1274 19T1243 54T1229 94Q1166 48 1084 16T899 -16Q807 -16 729 10T592 90T500 230T467 436Q467 524 470 594T477 725T487 844T497 963T505 1096T508 1257Q508 1285 503 1310T485
1355T450 1387T395 1399Q363 1399 315 1384T223 1339T147 1266T115 1167Q115 1135 123 1116T143 1088T165 1076T182 1073Q207 1073 223 1081T252 1099T276 1117T303 1126Q315 1126 328 1121T353 1103T373 1072T381 1024Q381 984 366 955T326 907T270 878T207 868Q159
868 121 884T55 930T14 998T0 1081Q0 1150 23 1207T86 1311T178 1391T291 1449T414 1483T537 1495Q606 1495 654 1481T736 1443T789 1392T819 1338T833 1290T836 1257Q836 1176 833 1109T826 979T816 858T806 734T798 597T795 436Q795 327 816 261T870 158T938
110T1004 98Q1059 98 1115 116T1225 168V1327Q1225 1356 1213 1373T1174 1391Q1146 1391 1122 1381T1079 1362L1063 1399Q1088 1412 1124 1428T1201 1460T1285 1485T1366 1495Q1434 1495 1471 1478T1527 1435T1548 1380T1552 1329V152Q1552 123 1565 106T1604 88Q1631
88 1655 97T1698 117L1714 80Q1689 67 1653 51T1576 19T1492 -6T1411 -16Z" />
<glyph unicode="V" glyph-name="V" horiz-adv-x="1513" d="M1110 344Q1146 437 1186 551T1259 783T1315 1012T1337 1210Q1337 1276 1328 1320T1308 1393T1287 1442T1278 1477Q1278 1498 1289 1512T1318 1537T1355 1551T1393 1556Q1433 1556 1460 1544T1499 1503Q1504
1488 1507 1472T1511 1440T1513 1411T1513 1389Q1513 1347 1499 1274T1462 1109T1407 912T1343 701T1276 492T1212 304T1159 152T1122 55Q1113 32 1100 18T1069 -3T1032 -13T989 -16Q949 -16 924 -8T884 12T861 38T850 63L471 1253Q460 1287 449 1310T421 1349T381
1371T324 1378Q296 1378 259 1365T189 1325T132 1259T109 1167Q109 1135 117 1116T137 1088T159 1076T176 1073Q201 1073 217 1081T246 1099T270 1117T297 1126Q309 1126 322 1121T347 1103T367 1072T375 1024Q375 984 360 955T320 907T264 878T201 868Q153 868
116 885T53 931T14 998T0 1081Q0 1185 40 1262T146 1392T296 1469T469 1495Q569 1495 633 1465T736 1386T799 1279T840 1161L1110 344Z" />
<glyph unicode="W" glyph-name="W" horiz-adv-x="2157" d="M1090 350Q1112 409 1136 477T1183 617T1227 764T1266 911L1169 1229Q1159 1262 1170 1286T1207 1327T1266 1352T1339 1360Q1372 1360 1398 1357T1443 1344T1476 1319T1497 1276L1784 352Q1807 414 1832
486T1881 634T1927 788T1965 941T1991 1084T2001 1210Q2001 1276 1992 1320T1972 1393T1951 1442T1942 1477Q1942 1498 1953 1512T1981 1537T2018 1551T2056 1556Q2096 1556 2124 1544T2163 1503Q2168 1488 2171 1472T2175 1440T2177 1411T2177 1389Q2177 1347
2164 1274T2127 1110T2073 913T2011 702T1945 493T1883 305T1831 153T1796 55Q1788 31 1775 17T1744 -4T1706 -14T1663 -16Q1623 -16 1598 -8T1557 12T1535 38T1524 63L1325 717Q1292 608 1258 503T1194 308T1139 153T1102 55Q1092 31 1078 17T1046 -4T1008 -14T967
-16Q927 -16 902 -8T861 12T839 38T827 63L471 1253Q461 1287 450 1310T422 1349T382 1371T324 1378Q296 1378 259 1365T189 1325T132 1259T109 1167Q109 1135 117 1116T137 1088T159 1076T176 1073Q201 1073 217 1081T246 1099T270 1117T297 1126Q309 1126 322
1121T347 1103T367 1072T375 1024Q375 984 360 955T320 907T264 878T201 868Q153 868 116 885T53 931T14 998T0 1081Q0 1185 40 1262T146 1392T296 1469T469 1495Q569 1495 633 1465T736 1386T799 1279T840 1161L1090 350Z" />
<glyph unicode="X" glyph-name="X" horiz-adv-x="1333" d="M741 1012Q766 1114 801 1202T885 1355T996 1458T1141 1495Q1192 1495 1236 1487T1314 1463T1369 1428T1393 1382Q1394 1364 1391 1346T1380 1312T1359 1288T1327 1278Q1316 1278 1308 1289T1292 1316T1272
1351T1243 1387T1199 1414T1135 1425Q1075 1425 1028 1377T945 1246T881 1058T831 834L1167 178Q1187 138 1210 118T1266 98Q1298 98 1322 112T1366 141L1391 111Q1370 90 1340 68T1271 27T1190 -4T1098 -16Q1050 -16 1009 -7T930 26T857 94T786 205L637 496Q610
388 572 295T483 132T364 24T213 -16Q162 -16 115 -8T30 16T-32 51T-59 96Q-61 114 -58 132T-46 166T-25 191T6 201Q17 201 26 190T47 163T72 127T106 92T153 64T219 53Q280 53 330 104T421 242T491 441T545 676L227 1300Q207 1341 184 1360T129 1380Q97 1380 72
1367T29 1337L4 1368Q25 1389 55 1411T123 1452T205 1483T297 1495Q345 1495 386 1486T464 1453T537 1385T608 1274L741 1012Z" />
<glyph unicode="Y" glyph-name="Y" horiz-adv-x="1225" d="M168 -467Q241 -467 304 -429T424 -323T531 -162T627 39Q518 399 406 684T188 1167Q133 1273 74 1326T-39 1380Q-71 1380 -96 1367T-139 1337L-164 1368Q-143 1389 -112 1411T-40 1452T52 1483T166 1495Q197
1495 235 1490T312 1468T391 1422T465 1343Q542 1235 628 1039T811 561Q842 654 872 746T933 926T995 1095T1061 1247Q1096 1322 1132 1379T1212 1476T1310 1535T1434 1556Q1486 1556 1519 1534T1552 1466Q1552 1426 1539 1400T1503 1374Q1484 1374 1474 1388T1453
1420T1428 1451T1386 1466Q1325 1466 1274 1410T1177 1258T1089 1034T1003 761T913 465T812 168T694 -104T550 -329T375 -481T162 -537Q111 -537 64 -529T-21 -505T-83 -469T-111 -424Q-113 -406 -110 -388T-98 -354T-77 -329T-45 -319Q-34 -319 -25 -330T-4 -357T20
-393T54 -428T101 -456T168 -467Z" />
<glyph unicode="Z" glyph-name="Z" horiz-adv-x="1192" d="M664 70Q718 70 776 78T882 108T961 163T993 250Q993 281 982 296T956 317Q940 324 920 322Q905 322 893 319T871 311T851 303T831 299Q820 299 809 304T788 319T772 344T766 381Q766 421 781 449T819
495T870 521T924 530Q975 530 1013 513T1078 468T1117 404T1130 328Q1130 229 1088 164T969 59T781 4T535 -12Q373 -12 272 0T115 33T40 80T20 133Q20 156 27 181T49 237T89 308T147 403L647 1202Q659 1222 672 1242T695 1282T712 1319T719 1348Q719 1374 694 1387T635
1406T566 1412T510 1413Q456 1413 397 1403T289 1371T207 1312T174 1221Q174 1191 185 1176T211 1156Q227 1149 248 1151Q262 1151 273 1154T295 1162T314 1170T334 1174Q341 1174 352 1169T373 1154T390 1129T397 1092Q397 1053 383 1026T346 981T296 955T244
946Q194 946 156 964T93 1011T54 1075T41 1145Q41 1215 67 1268T137 1360T240 1423T364 1464T496 1485T625 1491Q744 1491 829 1481T970 1453T1051 1410T1077 1354Q1077 1333 1072 1310T1055 1257T1021 1189T967 1098L451 264Q431 232 416 202T401 145Q401 123
415 109T461 86T543 74T664 70Z" />
<glyph unicode="[" glyph-name="bracketleft" horiz-adv-x="737" d="M655 -369H293Q240 -369 210 -357T165 -327T147 -291T143 -262V1456Q143 1469 148 1486T169 1519T216 1545T299 1556H655V1479H451V-291H655V-369Z" />
<glyph unicode="\" glyph-name="backslash" horiz-adv-x="748" d="M707 -41L592 -82L41 1518L156 1556L707 -41Z" />
<glyph unicode="]" glyph-name="bracketright" horiz-adv-x="758" d="M82 -291H287V1479H82V1556H438Q490 1556 521 1546T568 1520T589 1487T594 1456V-262Q594 -273 591 -291T572 -326T527 -356T444 -369H82V-291Z" />
<glyph unicode="^" glyph-name="asciicircum" horiz-adv-x="1024" d="M565 1475L952 1012L805 883L512 1241L219 883L72 1012L455 1475H565Z" />
<glyph unicode="_" glyph-name="underscore" horiz-adv-x="823" d="M0 -186H823V-389H0V-186Z" />
<glyph unicode="`" glyph-name="grave" horiz-adv-x="819" d="M545 1139L190 1290Q166 1301 149 1320T131 1366Q131 1384 138 1401T157 1433T185 1455T219 1464Q238 1464 257 1455T293 1430L565 1167L545 1139Z" />
<glyph unicode="a" glyph-name="a" horiz-adv-x="1020" d="M575 518Q575 543 559 556T518 569Q483 569 452 553T396 506T358 430T344 324Q344 266 352 228T375 168T409 136T449 127Q475 127 498 140T538 175T565 222T575 274V518ZM416 956Q382 956 353 948T303
928T270 902T258 874Q258 859 273 853T308 838T342 814T358 766Q358 745 350 728T327 697T293 676T252 668Q196 668 162 706T127 807Q127 868 159 911T242 983T359 1024T489 1038Q567 1038 638 1021T763 967T850 873T883 735V170Q883 161 884 150T889 130T901 115T924
109Q942 109 957 122T985 150L1010 129Q995 108 974 83T923 36T853 -1T762 -16Q699 -16 650 21T586 137Q554 94 520 65T449 18T377 -8T303 -16Q255 -16 210 -1T130 46T73 131T51 258Q51 349 87 407T181 504T314 572T467 631Q525 654 551 699T578 793Q578 867 535
911T416 956Z" />
<glyph unicode="b" glyph-name="b" horiz-adv-x="1069" d="M688 498Q688 585 679 661T650 795T599 886T524 920Q490 920 467 904T428 866T406 825T399 797V498Q399 280 435 181T543 82Q618 82 653 183T688 498ZM92 1380Q92 1409 79 1430T33 1452Q16 1452 4 1447T-23
1430L-43 1454Q-20 1473 8 1491T70 1524T141 1547T221 1556Q279 1556 314 1539T368 1496T393 1441T399 1386V940Q411 951 430 967T478 1000T547 1027T643 1038Q707 1038 771 1009T886 916T969 754T1001 516Q1001 407 972 310T884 141T739 26T537 -16Q412 -16 327
24T189 133T115 293T92 485V1380Z" />
<glyph unicode="c" glyph-name="c" horiz-adv-x="948" d="M760 692Q729 692 708 701T674 727T655 762T649 803Q649 830 652 855T654 900T638 932T592 944Q557 944 518 924T447 861T394 751T373 588Q373 483 392 397T451 249T548 155T684 121Q719 121 750 129T810
151T863 183T913 223L938 199Q915 168 879 131T792 62T673 8T518 -14Q431 -14 349 19T202 117T100 272T61 481Q61 572 84 648T146 787T238 896T349 974T467 1022T584 1038Q658 1038 713 1021T804 976T859 912T877 836Q877 807 870 781T848 735T811 704T760 692Z"
/>
<glyph unicode="d" glyph-name="d" horiz-adv-x="1053" d="M680 543Q680 554 680 587T678 664T671 757T655 848Q631 879 602 903T526 928Q448 928 412 826T375 510Q375 416 383 338T409 204T454 117T520 86Q680 86 680 543ZM668 983Q649 1083 615 1169T534 1319T426
1418T295 1454Q255 1454 223 1444T166 1421T127 1395T104 1376L78 1411Q102 1442 136 1469T212 1515T298 1545T389 1556Q537 1556 649 1492T836 1309T949 1024T987 653Q987 488 954 363T858 154T708 27T508 -16Q431 -16 352 11T208 101T102 263T61 510Q61 636 96
734T192 899T331 1002T498 1038Q532 1038 559 1033T606 1019T641 1002T668 983Z" />
<glyph unicode="e" glyph-name="e" horiz-adv-x="948" d="M383 459Q383 427 392 390T420 314T464 242T525 180T602 137T694 121Q729 121 759 129T815 151T865 183T913 223L938 199Q915 168 879 131T792 62T673 8T518 -14Q431 -14 349 17T202 112T100 269T61 489Q61
580 84 656T146 793T238 900T349 976T467 1022T584 1038Q658 1038 713 1022T804 979T859 917T877 842Q877 795 850 758T778 692L383 459ZM584 662Q597 670 605 677T619 695T626 721T629 760Q629 785 624 815T605 873T572 918T524 936Q488 936 463 915T421 859T395
782T380 694T374 610T373 541L584 662Z" />
<glyph unicode="f" glyph-name="f" horiz-adv-x="666" d="M618 1487Q590 1487 565 1475T522 1437T492 1369T481 1270V1024H700V952H481V164Q481 28 446 -87T338 -285T158 -416T-94 -463Q-145 -463 -192 -455T-275 -431T-332 -396T-354 -350Q-354 -332 -349 -314T-334
-280T-310 -256T-276 -246Q-265 -246 -257 -257T-239 -284T-219 -319T-189 -355T-145 -382T-80 -393Q-29 -393 10 -373T77 -316T124 -231T154 -126T169 -9T174 113V952H-10V1024H174V1141Q174 1229 195 1294T252 1406T333 1481T424 1527T515 1550T592 1556Q663
1556 718 1546T810 1518T866 1477T885 1430Q885 1412 880 1394T864 1360T840 1335T807 1325Q796 1325 787 1337T768 1367T746 1406T717 1445T675 1475T618 1487Z" />
<glyph unicode="g" glyph-name="g" horiz-adv-x="1044" d="M82 629Q82 731 117 807T213 935T352 1012T518 1038Q605 1038 683 1015T821 944Q840 973 852 1005T864 1069Q864 1111 842 1136T784 1161V1190Q806 1197 823 1202T854 1211T882 1215T913 1217Q960 1217
985 1188T1010 1108Q1010 1078 996 1049T961 992T915 941T866 899Q908 851 931 787T954 641Q954 538 919 459T823 326T684 245T518 217Q467 217 418 226T326 252Q310 240 299 222T287 182Q287 145 319 127T404 101T524 91T661 85T799 68T919 27T1004 -51T1036 -178Q1036
-235 1012 -280T948 -360T854 -419T741 -459T620 -482T502 -489Q400 -489 319 -479T180 -446T92 -389T61 -305Q61 -270 77 -241T119 -187T179 -143T246 -106Q196 -85 163 -43T129 70Q129 107 142 138T175 196T220 244T268 281Q227 305 193 339T134 417T96 514T82
629ZM653 637Q653 695 647 750T626 848T585 917T518 944Q477 944 451 917T410 845T389 744T383 629Q383 570 389 513T410 411T451 339T518 311Q559 311 585 340T626 415T647 520T653 637ZM805 -258Q805 -226 780 -206T715 -173T623 -154T518 -144T415 -137T328
-129Q307 -144 288 -161T254 -198T230 -239T221 -283Q221 -321 243 -346T302 -387T389 -408T494 -414Q567 -414 625 -402T723 -368T784 -318T805 -258Z" />
<glyph unicode="h" glyph-name="h" horiz-adv-x="1092" d="M434 848Q471 901 518 943Q537 961 560 978T610 1008T666 1030T727 1038Q794 1038 847 1012T936 925T991 764T1010 514Q1010 369 984 262T916 80T821 -42T714 -117T610 -154T524 -166L514 -125Q559 -114
594 -84T653 14T689 199T702 498Q702 624 691 699T661 814T619 866T571 879Q542 879 520 864T482 828T454 788T434 758V90Q434 77 430 59T411 24T365 -4T281 -16Q228 -16 197 -4T151 26T131 61T127 90V1380Q127 1409 114 1430T68 1452Q51 1452 39 1447T12 1430L-8
1454Q15 1473 43 1491T104 1524T176 1547T256 1556Q321 1556 357 1539T410 1496T430 1442T434 1391V848Z" />
<glyph unicode="i" glyph-name="i" horiz-adv-x="571" d="M444 90Q444 77 440 59T419 24T371 -4T287 -16Q234 -16 204 -4T159 26T141 61T137 90V862Q137 891 124 912T78 934Q61 934 49 928T23 911L2 936Q25 955 53 973T115 1006T186 1029T266 1038Q331 1038 367
1021T420 978T440 923T444 872V90ZM106 1266Q106 1294 118 1319T153 1364T205 1394T270 1405Q304 1405 333 1394T385 1364T419 1320T432 1266Q432 1237 420 1212T385 1169T334 1139T270 1128Q235 1128 206 1139T154 1168T119 1212T106 1266Z" />
<glyph unicode="j" glyph-name="j" horiz-adv-x="571" d="M106 1266Q106 1294 118 1319T153 1364T205 1394T270 1405Q304 1405 333 1394T385 1364T419 1320T432 1266Q432 1237 420 1212T385 1169T334 1139T270 1128Q235 1128 206 1139T154 1168T119 1212T106 1266ZM137
862Q137 891 124 912T78 934Q61 934 49 928T23 911L2 936Q25 955 53 973T115 1006T186 1029T266 1038Q331 1038 367 1021T420 978T440 923T444 872V164Q444 28 409 -87T301 -285T121 -416T-131 -463Q-182 -463 -229 -455T-312 -431T-369 -396T-391 -350Q-391 -332
-386 -314T-370 -280T-346 -256T-313 -246Q-302 -246 -294 -257T-276 -284T-256 -319T-226 -355T-182 -382T-117 -393Q-66 -393 -27 -373T40 -316T87 -231T117 -126T132 -9T137 113V862Z" />
<glyph unicode="k" glyph-name="k" horiz-adv-x="1087" d="M434 766Q469 813 509 861T595 949T695 1013T813 1038Q870 1038 908 1016T969 962T1002 896T1012 838Q1012 794 1001 747T962 653T888 563T772 483Q866 284 955 141T1126 -95T1285 -232T1430 -276Q1442
-276 1454 -273T1476 -266Q1487 -262 1499 -256L1518 -291Q1491 -306 1463 -319T1399 -343T1316 -359T1204 -365Q1145 -365 1088 -351T972 -301T855 -205T733 -53T604 166T467 463Q563 534 618 594T701 704T736 791T743 856Q743 860 742 869T736 888T720 904T690
911Q653 911 615 880T543 802T480 702T434 604V88Q434 75 430 57T409 23T361 -4T276 -16Q223 -16 193 -4T149 26T131 61T127 90V1380Q127 1409 114 1430T68 1452Q51 1452 39 1447T12 1430L-8 1454Q15 1473 43 1491T104 1524T176 1547T256 1556Q321 1556 357 1539T410
1496T430 1442T434 1391V766Z" />
<glyph unicode="l" glyph-name="l" horiz-adv-x="561" d="M434 88Q434 75 430 57T409 23T361 -4T276 -16Q223 -16 193 -4T149 26T131 61T127 90V1380Q127 1409 114 1430T68 1452Q51 1452 39 1447T12 1430L-8 1454Q15 1473 43 1491T104 1524T176 1547T256 1556Q321
1556 357 1539T410 1496T430 1442T434 1391V88Z" />
<glyph unicode="m" glyph-name="m" horiz-adv-x="1651" d="M979 88Q979 75 975 57T956 23T909 -4T825 -16Q772 -16 742 -4T696 26T676 61T672 90V797Q672 811 668 825T656 852T636 871T608 879Q581 879 555 864T507 828T468 788T444 758V88Q444 75 440 57T421
23T375 -4T291 -16Q238 -16 208 -4T161 26T141 61T137 90V862Q137 891 124 912T78 934Q61 934 49 928T23 911L2 936Q25 955 53 973T115 1006T186 1029T266 1038Q331 1038 367 1017T420 965T440 903T444 848Q491 901 545 943Q567 961 593 978T648 1008T706 1030T766
1038Q824 1038 865 1017T931 967T967 905T979 848Q1027 901 1080 943Q1102 961 1128 978T1182 1008T1240 1030T1300 1038Q1358 1038 1399 1017T1465 960T1501 881T1513 793V174Q1513 165 1514 155T1519 135T1531 119T1554 113Q1573 113 1588 126T1616 154L1640
133Q1626 112 1603 87T1549 38T1476 0T1382 -16Q1338 -16 1306 -5T1251 26T1217 72T1206 129V797Q1206 811 1202 825T1191 852T1171 871T1143 879Q1116 879 1090 864T1041 828T1002 788T979 758V88Z" />
<glyph unicode="n" glyph-name="n" horiz-adv-x="1102" d="M713 498Q713 624 702 699T671 814T629 866T582 879Q553 879 531 864T492 828T464 788T444 758V90Q444 77 440 59T421 24T375 -4T291 -16Q238 -16 208 -4T161 26T141 61T137 90V862Q137 891 124 912T78
934Q61 934 49 928T23 911L2 936Q25 955 53 973T115 1006T186 1029T266 1038Q331 1038 367 1017T420 965T440 903T444 848Q481 901 528 943Q547 961 570 978T620 1008T676 1030T737 1038Q805 1038 857 1012T946 925T1001 764T1020 514Q1020 369 994 262T926 80T831
-42T724 -117T621 -154T535 -166L524 -125Q554 -118 579 -103T626 -59T663 14T690 126T707 284T713 498Z" />
<glyph unicode="o" glyph-name="o" horiz-adv-x="1049" d="M61 512Q61 643 99 741T200 906T348 1005T524 1038Q616 1038 700 1008T847 914T949 755T987 526Q987 395 949 294T848 124T700 20T524 -16Q432 -16 348 17T201 117T99 282T61 512ZM676 522Q676 602 671
676T649 809T603 901T524 936Q475 936 445 900T399 804T378 668T373 512Q373 432 378 356T399 219T445 123T524 86Q573 86 603 124T649 224T670 364T676 522Z" />
<glyph unicode="p" glyph-name="p" horiz-adv-x="1112" d="M137 862Q137 891 124 912T78 934Q61 934 49 928T23 911L2 936Q25 955 53 973T115 1006T186 1029T266 1038Q311 1038 343 1024T396 991T429 950T442 913Q462 941 489 964T549 1003T618 1029T694 1038Q774
1038 839 1005T950 907T1022 746T1047 524Q1047 378 1017 276T937 108T824 14T694 -16Q639 -16 598 -5T526 22T476 54T444 82V-406Q444 -419 440 -437T421 -471T375 -500T291 -512Q238 -512 208 -500T161 -470T141 -435T137 -406V862ZM444 225Q444 217 451 197T473
156T511 119T569 102Q613 102 644 135T695 226T724 360T733 524Q733 631 722 705T688 824T636 890T567 911Q545 911 523 899T484 868T455 826T444 782V225Z" />
<glyph unicode="q" glyph-name="q" horiz-adv-x="1049" d="M61 512Q61 643 99 741T200 906T348 1005T524 1038Q616 1038 700 1008T847 914T949 755T987 526Q987 395 949 294T848 124T700 20T524 -16H518Q574 -32 640 -60T778 -120T922 -185T1063 -246T1191 -290T1300
-307Q1332 -307 1354 -302T1392 -288T1415 -267T1430 -240L1460 -246Q1455 -303 1437 -349T1387 -429T1311 -481T1212 -500Q1147 -500 1071 -474T914 -410T749 -326T586 -243T434 -178T303 -152Q244 -152 219 -203L188 -193Q191 -176 203 -145T240 -83T304 -28T401
0Q330 18 268 59T160 165T88 316T61 512ZM676 522Q676 602 671 676T649 809T603 901T524 936Q475 936 445 900T399 804T378 668T373 512Q373 432 378 356T399 219T445 123T524 86Q573 86 603 124T649 224T670 364T676 522Z" />
<glyph unicode="r" glyph-name="r" horiz-adv-x="813" d="M444 827Q482 885 525 932Q543 952 564 971T607 1005T654 1029T702 1038Q753 1038 782 1008T811 922Q811 888 806 857T784 780H756Q750 811 728 831T664 852Q633 852 603 841T545 812T491 775T444 737V88Q444
75 440 57T421 23T375 -4T291 -16Q238 -16 208 -4T161 26T141 61T137 90V862Q137 891 124 912T78 934Q61 934 49 928T23 911L2 936Q25 955 53 973T115 1006T186 1029T266 1038Q309 1038 339 1027T389 997T420 955T436 909T443 864T444 827Z" />
<glyph unicode="s" glyph-name="s" horiz-adv-x="776" d="M446 958Q423 958 403 952T366 933T341 899T332 850Q332 811 360 773T431 693T523 607T615 513T686 407T715 287Q715 215 691 159T621 64T511 5T367 -16Q298 -16 242 3T143 51T68 112T20 170L55 195Q68
180 88 163T132 130T185 106T242 96Q314 96 360 130T406 233Q406 271 381 311T318 395T236 484T154 579T91 680T66 788Q66 851 91 898T159 976T256 1022T369 1038Q436 1038 491 1026T585 990T646 928T668 842Q668 804 643 776T573 748Q530 748 508 766T485 817Q485
838 495 850T519 869T542 882T553 897Q553 925 523 941T446 958Z" />
<glyph unicode="t" glyph-name="t" horiz-adv-x="690" d="M449 952V213Q449 160 469 140T524 119Q551 119 572 134T608 168Q626 189 639 217L670 203Q655 171 635 133T580 63T495 8T365 -14Q321 -14 281 -1T209 40T158 110T139 211V952H27V1024Q55 1024 105 1038T207
1087T305 1178T369 1319H449V1024H612Q692 1024 692 1051Q692 1061 682 1064T660 1073T637 1089T627 1122Q627 1150 644 1166T690 1182Q708 1182 721 1175T744 1155T757 1126T762 1094Q762 1029 725 991T604 952H449Z" />
<glyph unicode="u" glyph-name="u" horiz-adv-x="1137" d="M999 174Q999 165 1000 155T1005 135T1017 119T1040 113Q1059 113 1074 126T1102 154L1126 133Q1111 112 1089 87T1034 38T961 0T868 -16Q824 -16 792 -5T737 26T703 72T692 129V174Q642 120 587 79Q563
61 536 44T480 14T420 -8T358 -16Q298 -16 256 5T187 62T149 141T137 229V848Q137 857 136 867T131 887T119 903T96 909Q78 909 63 896T35 868L10 889Q25 910 47 935T102 984T175 1022T268 1038Q312 1038 345 1027T400 996T433 950T444 893V225Q444 211 448 197T461
170T483 151T514 143Q543 143 572 158T625 193T666 234T692 264V848Q692 857 691 867T686 887T674 903T651 909Q633 909 618 896T590 868L565 889Q580 910 602 935T657 984T730 1022T823 1038Q867 1038 900 1027T955 996T988 950T999 893V174Z" />
<glyph unicode="v" glyph-name="v" horiz-adv-x="977" d="M98 850Q92 890 79 912T33 934Q16 934 4 928T-23 911L-43 936Q-20 955 8 973T70 1006T141 1029T221 1038Q281 1038 318 1018T376 967T407 901T420 838Q457 535 503 379T612 223Q647 223 679 261T736 365T776
519T791 707Q791 773 782 818T762 895T742 946T733 983Q733 998 745 1008T773 1025T807 1035T836 1038Q865 1038 878 1030T899 999Q908 970 911 923T915 821Q915 744 905 652T873 467T818 287T740 133T637 25T508 -16Q425 -16 364 32T261 157T190 330T145 522T117
705T98 850Z" />
<glyph unicode="w" glyph-name="w" horiz-adv-x="1538" d="M1343 721Q1343 787 1334 830T1315 901T1295 948T1286 983Q1286 998 1298 1008T1326 1025T1360 1035T1389 1038Q1418 1038 1431 1030T1452 999Q1461 970 1464 923T1468 821Q1468 744 1459 652T1431 467T1381
287T1307 133T1208 25T1081 -16Q1025 -16 981 6T901 68T840 159T793 272Q770 211 740 159T674 67T593 6T498 -16Q435 -16 387 11T301 86T237 197T191 330T158 474T136 617T121 746T109 850Q102 890 89 912T43 934Q26 934 14 928T-12 911L-33 936Q-10 955 18 973T80
1006T151 1029T231 1038Q291 1038 328 1018T386 967T417 901T430 838Q448 687 465 572T503 380T546 263T602 223Q623 223 643 241T681 291T715 368T743 469Q733 524 726 578T714 681T703 774T692 850Q677 944 709 991T840 1038Q883 1038 912 1031T961 1003T993
947T1012 856Q1031 706 1049 588T1087 389T1130 266T1186 223Q1220 223 1249 265T1299 376T1331 535T1343 721Z" />
<glyph unicode="x" glyph-name="x" horiz-adv-x="985" d="M571 664L682 829Q696 851 705 873T721 917T732 957T741 989Q749 1015 768 1026T827 1038Q850 1038 867 1030T885 1004Q885 975 865 933T811 842L625 575L885 141Q895 123 903 112T920 95T936 87T954 84Q965
84 976 89T1001 106L1022 82Q999 63 974 45T919 12T852 -11T770 -20Q719 -20 682 -3T618 41T571 97T537 152L391 395L256 193Q242 171 233 149T217 105T206 65T197 33Q189 7 170 -4T111 -16Q88 -16 71 -8T53 18Q53 47 71 85T127 180L340 483L100 887Q88 907 78
920T47 934Q28 934 0 911L-20 936Q3 955 30 973T88 1006T157 1029T236 1038Q283 1038 315 1024T370 987T409 938T440 887L571 664Z" />
<glyph unicode="y" glyph-name="y" horiz-adv-x="983" d="M922 881Q922 698 887 528T789 208T640 -65T453 -277T240 -414T12 -463Q-76 -463 -124 -434T-172 -354Q-172 -335 -166 -317T-150 -285T-126 -263T-96 -254Q-77 -254 -65 -273T-38 -314T-4 -356T51 -375Q96
-375 145 -360T243 -315T342 -245T440 -152Q412 -51 376 68T299 309T216 542T133 742T55 881T-12 934Q-31 934 -41 928T-66 911L-86 936Q-66 953 -44 971T8 1004T78 1028T174 1038Q235 1038 287 1011T383 909Q414 854 447 777T515 605T583 400T653 168Q715 298
753 443T791 743Q791 798 784 837T768 903T752 950T745 985Q745 1000 757 1010T786 1027T820 1035T850 1038Q877 1038 891 1027T913 996T921 946T922 881Z" />
<glyph unicode="z" glyph-name="z" horiz-adv-x="874" d="M485 870Q495 883 502 898T510 926Q510 945 480 953T369 961Q319 961 286 949T232 920T197 881T173 843T154 813T129 801Q112 801 100 812T79 839T67 875T63 913Q63 940 86 963T153 1002T260 1028T406
1038Q539 1038 622 1027T753 998T817 953T834 897Q834 881 827 862T809 824T788 791T772 768L356 131Q353 126 347 116T340 92Q340 84 345 78T366 68T411 63T487 61Q547 61 586 74T651 107T691 149T717 192T738 225T766 238Q783 238 796 226T818 194T831 153T836
113Q836 86 812 63T739 22T615 -6T436 -16Q325 -16 247 -7T120 19T49 64T27 127Q27 156 40 184T80 250L485 870Z" />
<glyph unicode="{" glyph-name="braceleft" horiz-adv-x="799" d="M385 592Q461 560 495 513T530 389Q530 336 524 282T510 165T496 30T489 -129Q489 -194 513 -229T582 -264Q603 -264 630 -255T676 -236L692 -272Q667 -285 633 -302T559 -334T479 -359T399 -369Q335
-369 293 -346T227 -287T192 -207T182 -121Q182 -50 189 22T205 160T221 283T229 379Q229 402 227 432T210 492T160 543T61 571V618Q125 624 159 646T209 698T227 757T229 811Q229 850 222 906T206 1028T190 1166T182 1309Q182 1351 192 1395T226 1474T293 1533T399
1556Q438 1556 479 1546T559 1521T632 1490T692 1460L676 1423Q657 1433 630 1442T582 1452Q537 1452 513 1417T489 1317Q489 1229 495 1158T509 1025T523 909T530 801Q530 724 496 677T385 598V592Z" />
<glyph unicode="|" glyph-name="bar" horiz-adv-x="512" d="M172 -512V1536H340V-512H172Z" />
<glyph unicode="}" glyph-name="braceright" horiz-adv-x="799" d="M414 598Q337 630 303 677T268 801Q268 854 274 908T288 1024T302 1157T309 1317Q309 1382 286 1417T217 1452Q195 1452 168 1443T123 1423L106 1460Q131 1473 166 1489T240 1521T320 1546T399
1556Q463 1556 504 1533T571 1475T606 1395T616 1309Q616 1238 609 1166T593 1028T577 906T569 811Q569 788 571 758T588 698T638 647T737 618V571Q672 565 638 543T589 492T571 433T569 379Q569 340 576 284T592 161T608 22T616 -121Q616 -163 606 -207T571 -287T505
-346T399 -369Q361 -369 320 -359T240 -334T166 -302T106 -272L123 -236Q141 -245 168 -254T217 -264Q262 -264 285 -229T309 -129Q309 -42 303 30T289 164T275 281T268 389Q268 466 302 513T414 592V598Z" />
<glyph unicode="~" glyph-name="asciitilde" horiz-adv-x="1024" d="M934 713Q920 648 893 601T829 524T750 480T664 465Q619 465 573 486T487 533T413 580T358 602Q332 602 313 586T280 547T259 501T250 463L96 535Q107 597 133 644T196 723T274 771T360 788Q405
788 448 767T531 719T604 671T666 649Q690 649 708 665T740 703T763 748T778 786L934 713Z" />
<glyph unicode="&#xa0;" glyph-name="nbspace" horiz-adv-x="461" />
<glyph unicode="&#xa1;" glyph-name="exclamdown" horiz-adv-x="748" d="M541 913Q541 878 528 847T493 793T439 757T373 743Q338 743 307 756T253 793T217 847T203 913Q203 949 216 979T253 1032T307 1068T373 1081Q408 1081 439 1068T492 1033T528 980T541 913ZM532
-332Q532 -343 528 -359T509 -392T464 -420T381 -432Q328 -432 296 -422T247 -396T225 -363T221 -332Q227 -246 235 -159T252 12T271 174T290 321Q312 482 336 629H410Q436 482 460 321Q470 252 480 174T500 12T518 -159T532 -332Z" />
<glyph unicode="&#xa2;" glyph-name="cent" horiz-adv-x="973" d="M748 854Q719 854 699 863T665 887T647 922T641 963Q641 986 644 1007T647 1047Q647 1070 637 1084T592 1098Q589 1098 586 1098T579 1097Q575 1096 573 1096V319Q619 301 676 301Q744 301 797
330T897 399L922 377Q901 349 870 317T797 255T699 203T573 172V-113H512V170Q428 170 349 202T208 296T109 447T72 649Q72 768 112 862T215 1023T356 1131T512 1184V1432H573V1190Q647 1190 701 1174T791 1130T844 1067T862 993Q862 965 855 940T833 895T798 865T748
854ZM373 754Q373 614 407 511T512 354V1077Q484 1062 459 1035T415 969T385 876T373 754Z" />
<glyph unicode="&#xa3;" glyph-name="sterling" horiz-adv-x="1112" d="M561 1495Q656 1495 732 1474T860 1417T941 1337T969 1247Q969 1226 962 1204T941 1163T906 1132T856 1120Q823 1120 809 1141T789 1195T781 1264T768 1334T733 1387T662 1409Q609 1409 572
1386T512 1324T479 1237T469 1141Q469 1076 482 1017T514 902T550 792T578 682H811V604H586Q585 539 567 479T521 367T458 274T389 205H850Q910 205 936 230T969 307H1010Q1010 275 1009 240T1003 170T988 105T959 51T911 14T840 0H104V57Q232 150 298 245T365
428Q365 476 354 519T324 604H102V682H285Q259 728 231 773T179 867T140 968T125 1081Q125 1177 160 1253T256 1384T395 1466T561 1495Z" />
<glyph unicode="&#xa4;" glyph-name="currency" horiz-adv-x="1024" d="M72 436L238 600Q215 637 202 680T188 772Q188 820 201 863T238 944L72 1110L174 1212L340 1047Q378 1070 421 1084T512 1098Q560 1098 603 1085T684 1047L848 1212L952 1110L786 944Q809
907 822 864T836 772Q836 724 823 681T786 600L952 436L848 334L684 498Q646 475 603 462T512 449Q464 449 421 462T340 498L174 332L72 436ZM336 772Q336 735 349 703T387 647T443 610T512 596Q549 596 581 609T637 647T674 703T688 772Q688 809 675 841T637 897T581
934T512 948Q475 948 443 935T387 897T350 841T336 772Z" />
<glyph unicode="&#xa5;" glyph-name="yen" horiz-adv-x="1102" d="M1022 719H737L725 686V606H1022V535H725V131Q725 54 685 19T561 -16Q478 -16 440 19T401 131V535H104V606H401V623L358 719H104V791H328L92 1327Q78 1359 66 1375T27 1391Q8 1391 -9 1383T-45
1366L-61 1403Q-36 1416 -1 1432T73 1462T153 1485T233 1495Q275 1495 305 1490T356 1472T392 1439T420 1389L666 827Q706 921 738 998T794 1138T834 1249T860 1335Q868 1363 876 1392T897 1443T933 1480T993 1495Q1021 1495 1041 1481T1061 1442Q1061 1430 1056
1414T1037 1369T1002 1297T948 1185T871 1020T770 791H1022V719Z" />
<glyph unicode="&#xa6;" glyph-name="brokenbar" horiz-adv-x="512" d="M172 760V1536H340V760H172ZM172 -512V264H340V-512H172Z" />
<glyph unicode="&#xa7;" glyph-name="section" horiz-adv-x="922" d="M567 197Q567 239 534 280T452 364T345 450T238 543T156 646T123 762Q123 811 138 851T179 920T240 969T315 997Q287 1022 263 1049T220 1106T192 1166T182 1233Q182 1291 202 1336T257 1412T337
1459T432 1475Q467 1475 502 1466T568 1440T626 1401T672 1354L645 1329Q634 1339 618 1351T581 1373T533 1390T475 1397Q452 1397 432 1389T396 1367T371 1333T362 1290Q362 1249 394 1211T475 1135T580 1054T685 963T766 856T799 727Q799 681 786 643T750 575T696
525T627 494Q679 444 713 386T748 256Q748 197 729 149T673 66T586 12T473 -8Q422 -8 382 7T308 44T249 94T201 147L227 174Q247 156 269 138T317 106T373 82T438 72Q503 72 535 107T567 197ZM618 657Q618 696 598 731T544 801T468 869T383 938Q349 930 326 904T303
834Q303 795 325 760T384 692T465 625T555 555Q583 566 600 590T618 657Z" />
<glyph unicode="&#xa8;" glyph-name="dieresis" horiz-adv-x="819" d="M125 1311Q125 1333 133 1352T157 1387T191 1410T233 1419Q255 1419 275 1411T310 1387T333 1353T342 1311Q342 1288 334 1269T310 1234T275 1211T233 1202Q211 1202 192 1210T157 1234T134
1268T125 1311ZM477 1311Q477 1333 485 1352T509 1387T543 1410T586 1419Q608 1419 627 1411T662 1387T685 1353T694 1311Q694 1288 686 1269T662 1234T628 1211T586 1202Q563 1202 544 1210T509 1234T486 1268T477 1311Z" />
<glyph unicode="&#xa9;" glyph-name="copyright" horiz-adv-x="1806" d="M143 725Q143 830 170 927T246 1108T365 1262T519 1381T701 1458T903 1485Q1008 1485 1105 1458T1286 1382T1440 1263T1559 1109T1636 927T1663 725Q1663 620 1636 523T1560 342T1441 188T1287
69T1105 -8T903 -35Q745 -35 607 24T366 187T203 429T143 725ZM246 725Q246 634 269 550T336 393T439 260T572 158T728 92T903 68Q1039 68 1159 119T1368 260T1509 469T1561 725Q1561 815 1538 899T1471 1056T1368 1189T1235 1292T1078 1358T903 1382Q813 1382
729 1359T572 1292T439 1189T336 1056T270 899T246 725ZM1001 1143Q966 1143 927 1124T856 1057T802 929T780 727Q780 610 804 536T866 420T945 362T1024 346Q1061 346 1094 354T1157 377T1211 410T1257 449L1288 420Q1269 388 1231 356T1144 298T1036 255T918
238Q820 238 735 268T586 360T486 514T449 729Q449 850 489 941T599 1094T759 1187T952 1219Q1021 1219 1078 1206T1176 1169T1239 1111T1262 1034Q1262 1016 1256 995T1239 955T1214 925T1182 913Q1157 913 1143 930T1120 972T1103 1028T1084 1083T1053 1126T1001
1143Z" />
<glyph unicode="&#xaa;" glyph-name="ordfeminine" horiz-adv-x="813" d="M434 1104Q434 1122 423 1131T395 1141Q368 1141 345 1130T304 1096T276 1041T266 969Q266 929 272 902T288 857T313 833T344 825Q365 825 381 834T409 859T427 894T434 934V1104ZM315
1434Q289 1434 267 1428T229 1413T203 1394T193 1374Q193 1362 205 1357T231 1346T258 1328T270 1294Q270 1263 245 1242T186 1221Q143 1221 117 1249T90 1323Q90 1368 115 1400T180 1452T271 1483T373 1493Q434 1493 489 1481T587 1442T655 1373T680 1272V868Q680
861 681 853T685 839T694 828T711 823Q726 823 736 833T756 852L778 825Q767 810 751 792T711 757T657 730T586 719Q536 719 498 746T449 831Q398 768 341 744T227 719Q190 719 155 730T93 765T48 827T31 920Q31 987 59 1029T133 1101T236 1151T354 1194Q377 1203
392 1216T416 1244T428 1277T432 1313Q432 1367 400 1400T315 1434Z" />
<glyph unicode="&#xab;" glyph-name="guillemotleft" horiz-adv-x="895" d="M258 520L455 258L399 199L51 487V553L399 842L455 782L258 520ZM627 520L823 258L768 199L420 487V553L768 842L823 782L627 520Z" />
<glyph unicode="&#xac;" glyph-name="logicalnot" horiz-adv-x="969" d="M123 780H846V319H672V606H123V780Z" />
<glyph unicode="&#xad;" glyph-name="uni00AD" horiz-adv-x="717" d="M102 641H614V399H102V641Z" />
<glyph unicode="&#xae;" glyph-name="registered" horiz-adv-x="1274" d="M102 950Q102 1061 144 1158T259 1328T429 1443T637 1485Q748 1485 845 1443T1014 1328T1129 1158T1171 950Q1171 839 1129 742T1015 573T845 458T637 416Q526 416 429 458T259 572T144
742T102 950ZM195 950Q195 859 229 779T324 638T464 543T637 508Q728 508 808 543T949 638T1044 778T1079 950Q1079 1041 1044 1122T949 1263T809 1358T637 1393Q545 1393 465 1358T324 1263T230 1122T195 950ZM582 936V702Q582 670 560 656T500 641Q462 641 440
655T418 702V1190Q418 1202 415 1209T401 1217Q387 1217 376 1212T358 1204L348 1227Q380 1242 446 1259T621 1276Q736 1276 795 1235T854 1118Q854 1085 845 1060T820 1016T783 984T739 961Q752 957 761 949T780 924L868 725Q876 708 887 696T915 684Q925 684
931 687T942 694L954 674Q940 665 911 653T831 641Q780 641 750 658T705 707L627 911Q622 922 616 927T605 934Q599 937 592 936H582ZM627 1239Q612 1239 604 1235T591 1225T585 1211T582 1198V973Q619 973 642 981T678 1007T697 1052T702 1118Q702 1169 683 1204T627
1239Z" />
<glyph unicode="&#xaf;" glyph-name="overscore" horiz-adv-x="819" d="M143 1382H676V1241H143V1382Z" />
<glyph unicode="&#xb0;" glyph-name="degree" horiz-adv-x="592" d="M51 1249Q51 1300 70 1344T123 1422T201 1475T297 1495Q348 1495 392 1476T470 1423T522 1345T541 1249Q541 1198 522 1154T470 1077T393 1025T297 1006Q246 1006 202 1025T124 1077T71 1154T51
1249ZM170 1251Q170 1224 180 1201T207 1161T247 1134T297 1124Q324 1124 347 1134T387 1161T414 1201T424 1251Q424 1277 415 1300T388 1340T347 1368T297 1378Q271 1378 248 1368T207 1341T180 1300T170 1251Z" />
<glyph unicode="&#xb1;" glyph-name="plusminus" horiz-adv-x="969" d="M123 692H397V946H571V692H846V518H571V264H397V518H123V692ZM123 201H846V27H123V201Z" />
<glyph unicode="&#xb2;" glyph-name="twosuperior" horiz-adv-x="672" d="M322 1495Q362 1495 412 1485T506 1447T580 1373T610 1253Q610 1208 591 1164T539 1077T467 995T384 919T301 851T229 793H522Q560 793 576 808T598 852H631Q631 824 630 786T618 713T586
654T524 629H20V672Q39 689 70 721T136 796T207 890T272 996T319 1107T338 1219Q338 1250 331 1280T307 1335T266 1374T203 1389Q173 1389 151 1383T113 1365T83 1340T57 1309L33 1329Q46 1357 70 1386T129 1440T212 1479T322 1495Z" />
<glyph unicode="&#xb3;" glyph-name="threesuperior" horiz-adv-x="717" d="M338 1495Q386 1495 432 1484T514 1449T572 1391T594 1309Q594 1270 582 1243T550 1197T508 1166T463 1145V1143Q497 1136 534 1119T603 1073T655 999T676 893Q676 847 657 798T598 709T496
644T346 618Q271 618 216 635T123 676T60 727T20 772L49 797Q83 755 123 732T227 709Q255 709 286 719T342 752T384 813T401 907Q401 949 389 984T351 1045T281 1087T174 1104V1137Q205 1137 232 1146T281 1175T314 1221T326 1284Q326 1306 319 1328T298 1367T264
1396T217 1407Q183 1407 157 1396T104 1350L80 1372Q122 1426 184 1460T338 1495Z" />
<glyph unicode="&#xb4;" glyph-name="acute" horiz-adv-x="819" d="M252 1167L524 1430Q541 1445 560 1454T598 1464Q616 1464 632 1456T660 1433T679 1402T686 1366Q686 1340 669 1321T627 1290L272 1139L252 1167Z" />
<glyph unicode="&#xb5;" glyph-name="micro" horiz-adv-x="1126" d="M682 924Q682 937 686 954T705 986T752 1013T836 1024Q889 1024 919 1012T965 982T985 946T989 918V174Q989 165 990 155T995 135T1007 119T1030 113Q1049 113 1064 126T1092 154L1116 133Q1101
111 1080 85T1031 37T969 -1T895 -16Q856 -16 825 -6T771 23T731 64T707 113Q694 76 673 48Q655 24 626 4T555 -16Q502 -16 461 16T395 98L434 -303Q435 -316 431 -334T411 -369T365 -398T281 -410Q228 -410 197 -398T151 -368T131 -332T127 -303V924Q127 937 131
954T150 986T197 1013T281 1024Q334 1024 364 1012T410 982T430 946T434 918V293Q434 252 443 224T468 177T505 151T551 143Q610 143 646 182T682 295V924Z" />
<glyph unicode="&#xb6;" glyph-name="paragraph" horiz-adv-x="1100" d="M512 -201V659Q434 665 360 685T229 748T137 865T102 1051Q102 1124 121 1181T173 1280T251 1353T347 1401T453 1428T561 1436H936V1366H809V-201H717V1366H604V-201H512Z" />
<glyph unicode="&#xb7;" glyph-name="middot" horiz-adv-x="584" d="M158 606Q158 634 168 659T197 703T239 732T291 743Q319 743 344 733T388 703T417 659T428 606Q428 578 418 554T388 512T344 484T291 473Q263 473 239 483T197 512T169 554T158 606Z" />
<glyph unicode="&#xb8;" glyph-name="cedilla" horiz-adv-x="819" d="M397 -96Q460 -96 507 -111T585 -151T631 -207T647 -272Q647 -333 623 -373T560 -436T475 -469T387 -479Q345 -479 310 -472T245 -454T192 -430T154 -406L172 -373Q212 -394 256 -404T342 -412Q407
-409 447 -379T487 -283Q487 -243 472 -217T433 -174T377 -151T315 -143L354 10H424L397 -96Z" />
<glyph unicode="&#xb9;" glyph-name="onesuperior" horiz-adv-x="522" d="M397 725Q397 680 364 649T258 618Q196 618 164 649T131 725V1305Q131 1326 121 1342T82 1358Q62 1358 43 1347T8 1327L-12 1354Q30 1382 70 1408T149 1453T222 1483T289 1495Q335 1495
366 1478T397 1421V725V725Z" />
<glyph unicode="&#xba;" glyph-name="ordmasculine" horiz-adv-x="817" d="M47 1106Q47 1203 76 1276T156 1398T272 1471T410 1495Q481 1495 546 1473T661 1403T740 1285T770 1116Q770 1019 741 945T662 819T547 742T410 715Q338 715 272 739T156 813T77 935T47
1106ZM518 1114Q518 1173 515 1227T500 1323T467 1390T410 1415Q374 1415 353 1389T319 1320T303 1221T299 1106Q299 1047 303 991T319 892T352 822T410 795Q445 795 466 822T499 895T514 997T518 1114Z" />
<glyph unicode="&#xbb;" glyph-name="guillemotright" horiz-adv-x="895" d="M637 520L440 782L496 842L844 553V487L496 199L440 258L637 520ZM268 520L72 782L127 842L475 553V487L127 199L72 258L268 520Z" />
<glyph unicode="&#xbc;" glyph-name="onequarter" horiz-adv-x="1305" d="M893 174H610V238L893 725Q900 737 909 750T932 774T968 792T1022 799Q1053 799 1075 791T1111 769T1131 738T1137 702V238H1264V174H1137V90Q1137 68 1131 49T1110 15T1071 -7T1010 -16Q948
-16 921 15T893 90V174ZM410 788Q410 766 404 747T382 713T342 691T281 682Q219 682 192 713T164 788V1307Q164 1328 154 1344T115 1360Q95 1360 76 1349T41 1329L20 1356Q62 1384 101 1410T176 1455T245 1485T311 1497Q358 1497 384 1480T410 1423V788ZM1001 1497L1069
1458L248 -16L180 23L1001 1497ZM893 238V588L690 238H893Z" />
<glyph unicode="&#xbd;" glyph-name="onehalf" horiz-adv-x="1360" d="M1010 799Q1050 799 1096 789T1183 751T1251 677T1278 557Q1278 516 1261 479T1215 407T1149 340T1073 277T996 219T926 164H1190Q1228 164 1244 179T1266 223H1298Q1298 196 1297 158T1285
84T1254 25T1192 0H709V43Q728 60 758 88T824 151T896 229T960 320T1007 420T1026 526Q1026 557 1019 587T995 640T954 678T891 692Q861 692 839 686T801 668T771 643T745 612L721 633Q734 661 758 690T817 744T900 783T1010 799ZM410 788Q410 766 404 747T382
713T342 691T281 682Q219 682 192 713T164 788V1307Q164 1328 154 1344T115 1360Q95 1360 76 1349T41 1329L20 1356Q62 1384 101 1410T176 1455T245 1485T311 1497Q358 1497 384 1480T410 1423V788ZM1001 1497L1069 1458L248 -16L180 23L1001 1497Z" />
<glyph unicode="&#xbe;" glyph-name="threequarters" horiz-adv-x="1454" d="M1042 174H760V238L1042 725Q1050 737 1059 750T1082 774T1117 792T1171 799Q1202 799 1224 791T1260 769T1280 738T1286 702V238H1413V174H1286V90Q1286 68 1280 49T1259 15T1220 -7T1159
-16Q1097 -16 1070 15T1042 90V174ZM365 1495Q411 1495 452 1486T525 1457T574 1406T592 1329Q592 1294 580 1269T549 1227T507 1199T461 1182V1180Q497 1178 533 1165T598 1126T646 1060T664 961Q664 915 648 870T596 788T501 730T354 707Q279 707 226 723T137
762T79 810T41 854L70 879Q87 858 104 843T140 817T184 802T240 797Q269 797 299 806T354 834T394 885T410 961Q410 1051 361 1094T193 1141V1174Q223 1174 250 1181T299 1204T332 1244T344 1305Q344 1350 316 1378T242 1407Q205 1407 177 1396T123 1350L98 1372Q140
1426 207 1460T365 1495ZM1151 1497L1219 1458L397 -16L330 23L1151 1497ZM1042 238V588L840 238H1042Z" />
<glyph unicode="&#xbf;" glyph-name="questiondown" horiz-adv-x="1118" d="M664 -336Q714 -336 757 -318T831 -268T881 -199T899 -119Q899 -91 891 -74T872 -49T851 -38T836 -35Q813 -35 798 -42T771 -58T749 -74T723 -82Q712 -82 700 -78T676 -63T658 -35T651
8Q651 39 666 63T706 105T761 131T821 141Q911 141 963 83T1016 -84Q1016 -171 980 -235T883 -342T745 -405T584 -426Q488 -426 407 -400T268 -327T176 -212T143 -63Q143 26 173 91T249 209T351 306T456 395T545 491T596 610H676Q676 548 660 494T621 390T570 289T519
184T479 67T463 -72Q463 -131 474 -179T511 -263T573 -317T664 -336ZM788 918Q788 882 775 851T740 797T687 761T621 748Q585 748 554 761T500 797T464 851T451 918Q451 953 464 983T500 1036T554 1072T621 1085Q656 1085 686 1072T739 1037T775 984T788 918Z"
/>
<glyph unicode="&#xc0;" glyph-name="Agrave" horiz-adv-x="1528" d="M944 422H567Q525 290 477 193T369 32T240 -63T82 -94Q34 -94 -10 -86T-89 -62T-143 -27T-164 18Q-164 36 -159 54T-143 88T-119 113T-86 123Q-70 123 -58 101T-28 53T20 4T100 -18Q152 -18
199 7T289 85T373 222T451 422H215V510H477Q510 622 541 736T601 955T651 1151T688 1311Q668 1367 634 1386T541 1405Q487 1405 430 1389T325 1342T248 1267T217 1167Q217 1135 225 1116T245 1088T268 1076T285 1073Q309 1073 325 1081T354 1099T379 1117T406 1126Q417
1126 430 1121T455 1103T475 1072T483 1024Q483 984 468 955T428 907T372 878T309 868Q261 868 223 885T157 933T116 1003T102 1087Q102 1153 124 1208T185 1309T277 1389T391 1447T520 1483T655 1495Q751 1495 817 1480T929 1434T1001 1357T1047 1249L1262 510H1479V422H1286L1364
160Q1368 145 1372 132T1381 110T1395 94T1417 88Q1445 88 1469 97T1511 117L1528 80Q1510 67 1483 51T1420 19T1341 -6T1249 -16Q1181 -16 1140 1T1075 43T1041 96T1024 145L944 422ZM750 1098Q709 931 671 784T594 510H920L750 1098ZM914 1579L559 1730Q535 1741
518 1760T500 1806Q500 1824 507 1841T526 1873T554 1895T588 1904Q607 1904 626 1895T662 1870L934 1607L914 1579Z" />
<glyph unicode="&#xc1;" glyph-name="Aacute" horiz-adv-x="1528" d="M944 422H567Q525 290 477 193T369 32T240 -63T82 -94Q34 -94 -10 -86T-89 -62T-143 -27T-164 18Q-164 36 -159 54T-143 88T-119 113T-86 123Q-70 123 -58 101T-28 53T20 4T100 -18Q152 -18
199 7T289 85T373 222T451 422H215V510H477Q510 622 541 736T601 955T651 1151T688 1311Q668 1367 634 1386T541 1405Q487 1405 430 1389T325 1342T248 1267T217 1167Q217 1135 225 1116T245 1088T268 1076T285 1073Q309 1073 325 1081T354 1099T379 1117T406 1126Q417
1126 430 1121T455 1103T475 1072T483 1024Q483 984 468 955T428 907T372 878T309 868Q261 868 223 885T157 933T116 1003T102 1087Q102 1153 124 1208T185 1309T277 1389T391 1447T520 1483T655 1495Q751 1495 817 1480T929 1434T1001 1357T1047 1249L1262 510H1479V422H1286L1364
160Q1368 145 1372 132T1381 110T1395 94T1417 88Q1445 88 1469 97T1511 117L1528 80Q1510 67 1483 51T1420 19T1341 -6T1249 -16Q1181 -16 1140 1T1075 43T1041 96T1024 145L944 422ZM750 1098Q709 931 671 784T594 510H920L750 1098ZM621 1607L893 1870Q910 1885
929 1894T967 1904Q985 1904 1001 1896T1029 1873T1048 1842T1055 1806Q1055 1780 1038 1761T996 1730L641 1579L621 1607Z" />
<glyph unicode="&#xc2;" glyph-name="Acircumflex" horiz-adv-x="1528" d="M944 422H567Q525 290 477 193T369 32T240 -63T82 -94Q34 -94 -10 -86T-89 -62T-143 -27T-164 18Q-164 36 -159 54T-143 88T-119 113T-86 123Q-70 123 -58 101T-28 53T20 4T100 -18Q152
-18 199 7T289 85T373 222T451 422H215V510H477Q510 622 541 736T601 955T651 1151T688 1311Q668 1367 634 1386T541 1405Q487 1405 430 1389T325 1342T248 1267T217 1167Q217 1135 225 1116T245 1088T268 1076T285 1073Q309 1073 325 1081T354 1099T379 1117T406
1126Q417 1126 430 1121T455 1103T475 1072T483 1024Q483 984 468 955T428 907T372 878T309 868Q261 868 223 885T157 933T116 1003T102 1087Q102 1153 124 1208T185 1309T277 1389T391 1447T520 1483T655 1495Q751 1495 817 1480T929 1434T1001 1357T1047 1249L1262
510H1479V422H1286L1364 160Q1368 145 1372 132T1381 110T1395 94T1417 88Q1445 88 1469 97T1511 117L1528 80Q1510 67 1483 51T1420 19T1341 -6T1249 -16Q1181 -16 1140 1T1075 43T1041 96T1024 145L944 422ZM750 1098Q709 931 671 784T594 510H920L750 1098ZM836
1904L1061 1611L1031 1581L779 1753L527 1581L496 1611L721 1904H836Z" />
<glyph unicode="&#xc3;" glyph-name="Atilde" horiz-adv-x="1528" d="M944 422H567Q525 290 477 193T369 32T240 -63T82 -94Q34 -94 -10 -86T-89 -62T-143 -27T-164 18Q-164 36 -159 54T-143 88T-119 113T-86 123Q-70 123 -58 101T-28 53T20 4T100 -18Q152 -18
199 7T289 85T373 222T451 422H215V510H477Q510 622 541 736T601 955T651 1151T688 1311Q668 1367 634 1386T541 1405Q487 1405 430 1389T325 1342T248 1267T217 1167Q217 1135 225 1116T245 1088T268 1076T285 1073Q309 1073 325 1081T354 1099T379 1117T406 1126Q417
1126 430 1121T455 1103T475 1072T483 1024Q483 984 468 955T428 907T372 878T309 868Q261 868 223 885T157 933T116 1003T102 1087Q102 1153 124 1208T185 1309T277 1389T391 1447T520 1483T655 1495Q751 1495 817 1480T929 1434T1001 1357T1047 1249L1262 510H1479V422H1286L1364
160Q1368 145 1372 132T1381 110T1395 94T1417 88Q1445 88 1469 97T1511 117L1528 80Q1510 67 1483 51T1420 19T1341 -6T1249 -16Q1181 -16 1140 1T1075 43T1041 96T1024 145L944 422ZM750 1098Q709 931 671 784T594 510H920L750 1098ZM650 1726Q628 1726 610 1717T579
1692T556 1656T543 1614H498Q503 1677 520 1723T562 1801T615 1847T672 1863Q707 1863 739 1848T800 1814T856 1781T908 1765Q929 1765 947 1774T978 1799T1001 1835T1014 1878H1059Q1054 1815 1037 1768T995 1690T942 1644T885 1628Q850 1628 818 1643T757 1677T701
1710T650 1726Z" />
<glyph unicode="&#xc4;" glyph-name="Adieresis" horiz-adv-x="1528" d="M944 422H567Q525 290 477 193T369 32T240 -63T82 -94Q34 -94 -10 -86T-89 -62T-143 -27T-164 18Q-164 36 -159 54T-143 88T-119 113T-86 123Q-70 123 -58 101T-28 53T20 4T100 -18Q152
-18 199 7T289 85T373 222T451 422H215V510H477Q510 622 541 736T601 955T651 1151T688 1311Q668 1367 634 1386T541 1405Q487 1405 430 1389T325 1342T248 1267T217 1167Q217 1135 225 1116T245 1088T268 1076T285 1073Q309 1073 325 1081T354 1099T379 1117T406
1126Q417 1126 430 1121T455 1103T475 1072T483 1024Q483 984 468 955T428 907T372 878T309 868Q261 868 223 885T157 933T116 1003T102 1087Q102 1153 124 1208T185 1309T277 1389T391 1447T520 1483T655 1495Q751 1495 817 1480T929 1434T1001 1357T1047 1249L1262
510H1479V422H1286L1364 160Q1368 145 1372 132T1381 110T1395 94T1417 88Q1445 88 1469 97T1511 117L1528 80Q1510 67 1483 51T1420 19T1341 -6T1249 -16Q1181 -16 1140 1T1075 43T1041 96T1024 145L944 422ZM750 1098Q709 931 671 784T594 510H920L750 1098ZM494
1751Q494 1773 502 1792T526 1827T560 1850T602 1859Q624 1859 644 1851T679 1827T702 1793T711 1751Q711 1728 703 1709T679 1674T644 1651T602 1642Q580 1642 561 1650T526 1674T503 1708T494 1751ZM846 1751Q846 1773 854 1792T878 1827T912 1850T955 1859Q977
1859 996 1851T1031 1827T1054 1793T1063 1751Q1063 1728 1055 1709T1031 1674T997 1651T955 1642Q932 1642 913 1650T878 1674T855 1708T846 1751Z" />
<glyph unicode="&#xc5;" glyph-name="Aring" horiz-adv-x="1528" d="M944 422H567Q525 290 477 193T369 32T240 -63T82 -94Q34 -94 -10 -86T-89 -62T-143 -27T-164 18Q-164 36 -159 54T-143 88T-119 113T-86 123Q-70 123 -58 101T-28 53T20 4T100 -18Q152 -18
199 7T289 85T373 222T451 422H215V510H477Q510 622 541 736T601 955T651 1151T688 1311Q668 1367 634 1386T541 1405Q487 1405 430 1389T325 1342T248 1267T217 1167Q217 1135 225 1116T245 1088T268 1076T285 1073Q309 1073 325 1081T354 1099T379 1117T406 1126Q417
1126 430 1121T455 1103T475 1072T483 1024Q483 984 468 955T428 907T372 878T309 868Q261 868 223 885T157 933T116 1003T102 1087Q102 1153 124 1208T185 1309T277 1389T391 1447T520 1483T655 1495Q751 1495 817 1480T929 1434T1001 1357T1047 1249L1262 510H1479V422H1286L1364
160Q1368 145 1372 132T1381 110T1395 94T1417 88Q1445 88 1469 97T1511 117L1528 80Q1510 67 1483 51T1420 19T1341 -6T1249 -16Q1181 -16 1140 1T1075 43T1041 96T1024 145L944 422ZM750 1098Q709 931 671 784T594 510H920L750 1098ZM555 1783Q555 1829 572 1870T620
1941T692 1989T779 2007Q825 2007 865 1990T936 1942T984 1870T1002 1783Q1002 1737 985 1697T937 1626T866 1578T779 1560Q733 1560 692 1577T621 1625T573 1696T555 1783ZM668 1783Q668 1760 676 1740T700 1705T735 1682T779 1673Q802 1673 822 1681T857 1705T880
1740T889 1783Q889 1806 881 1826T857 1862T822 1885T779 1894Q756 1894 736 1886T700 1862T677 1827T668 1783Z" />
<glyph unicode="&#xc6;" glyph-name="AE" horiz-adv-x="1827" d="M1663 688H1247V297Q1247 250 1261 217T1302 161T1364 129T1446 119Q1497 119 1548 129T1644 156T1727 192T1788 231L1827 188Q1801 168 1760 134T1657 66T1516 9T1333 -16Q1300 -16 1257 -13T1167
1T1077 32T998 87T942 170T920 289V422H588Q542 292 491 196T380 35T249 -62T92 -94Q41 -94 -5 -86T-86 -62T-143 -27T-164 18Q-164 36 -159 54T-143 88T-119 113T-86 123Q-75 123 -67 112T-49 85T-29 49T1 14T46 -14T111 -25Q223 -25 310 84T475 422H236V510H504Q534
601 562 693T614 874T660 1044T699 1195T727 1318T745 1405Q619 1395 529 1370T382 1310T297 1231T270 1139Q270 1107 278 1090T298 1064T321 1055T338 1053Q362 1053 378 1061T407 1079T432 1097T459 1106Q470 1106 483 1101T509 1083T529 1052T537 1004Q537 964
522 935T481 886T425 858T362 848Q314 848 276 865T211 911T170 979T156 1063Q156 1177 211 1258T372 1392T628 1470T973 1495Q1139 1495 1263 1494T1476 1489T1619 1482T1698 1473Q1721 1468 1734 1462T1755 1448T1765 1430T1767 1405Q1767 1393 1765 1379T1756
1352T1741 1330T1718 1321Q1710 1321 1701 1328T1675 1346T1627 1369T1548 1392T1425 1410T1247 1417V776H1663V688ZM864 1409Q801 1146 740 921T618 510H920V1409H864Z" />
<glyph unicode="&#xc7;" glyph-name="Ccedilla" horiz-adv-x="1116" d="M768 1409Q741 1409 705 1399T632 1361T558 1283T494 1153T448 960T430 690Q430 542 447 434T494 249T562 124T642 49T726 12T805 2Q844 2 884 12T962 41T1036 87T1102 150L1147 104Q1117
67 1075 29T978 -41T853 -93T700 -113H668L657 -158Q720 -158 767 -172T845 -209T891 -261T907 -322Q907 -378 883 -414T820 -473T735 -503T647 -512Q606 -512 570 -505T505 -487T452 -463T414 -438L432 -406Q472 -427 516 -436T602 -444Q634 -443 661 -436T707
-415T737 -380T748 -330Q748 -294 733 -270T693 -232T637 -212T575 -205L600 -104Q488 -88 393 -34T229 118T121 357T82 690Q82 889 132 1039T268 1291T470 1444T717 1495Q804 1495 875 1479T999 1431T1079 1353T1108 1247Q1108 1220 1099 1191T1072 1137T1026
1097T963 1081Q931 1081 914 1095T888 1132T877 1184T873 1245T869 1305T855 1358T824 1395T768 1409Z" />
<glyph unicode="&#xc8;" glyph-name="Egrave" horiz-adv-x="1415" d="M0 1061Q0 1178 64 1260T241 1394T502 1471T821 1495Q902 1495 979 1494T1119 1489T1229 1482T1296 1473Q1316 1468 1328 1462T1346 1448T1354 1430T1356 1405Q1356 1393 1353 1379T1344 1352T1329
1330T1307 1321Q1299 1321 1290 1328T1263 1346T1216 1369T1137 1392T1014 1410T836 1417V776H1251V688H836V297Q836 250 850 217T890 161T952 129T1034 119Q1085 119 1136 129T1232 156T1315 192T1376 231L1415 188Q1390 168 1348 134T1246 66T1105 9T922 -16Q888
-16 845 -13T755 1T665 32T586 87T530 170T508 289V688H352V776H508V1405Q476 1402 435 1394T350 1370T264 1333T189 1284T136 1222T115 1147Q115 1115 123 1096T143 1068T165 1056T182 1053Q207 1053 223 1061T252 1079T276 1097T303 1106Q315 1106 328 1101T353
1083T373 1052T381 1004Q381 964 366 935T326 886T270 858T207 848Q159 848 121 864T55 910T14 977T0 1061ZM989 1579L634 1730Q610 1741 593 1760T575 1806Q575 1824 582 1841T601 1873T629 1895T663 1904Q682 1904 701 1895T737 1870L1009 1607L989 1579Z" />
<glyph unicode="&#xc9;" glyph-name="Eacute" horiz-adv-x="1415" d="M0 1061Q0 1178 64 1260T241 1394T502 1471T821 1495Q902 1495 979 1494T1119 1489T1229 1482T1296 1473Q1316 1468 1328 1462T1346 1448T1354 1430T1356 1405Q1356 1393 1353 1379T1344 1352T1329
1330T1307 1321Q1299 1321 1290 1328T1263 1346T1216 1369T1137 1392T1014 1410T836 1417V776H1251V688H836V297Q836 250 850 217T890 161T952 129T1034 119Q1085 119 1136 129T1232 156T1315 192T1376 231L1415 188Q1390 168 1348 134T1246 66T1105 9T922 -16Q888
-16 845 -13T755 1T665 32T586 87T530 170T508 289V688H352V776H508V1405Q476 1402 435 1394T350 1370T264 1333T189 1284T136 1222T115 1147Q115 1115 123 1096T143 1068T165 1056T182 1053Q207 1053 223 1061T252 1079T276 1097T303 1106Q315 1106 328 1101T353
1083T373 1052T381 1004Q381 964 366 935T326 886T270 858T207 848Q159 848 121 864T55 910T14 977T0 1061ZM696 1607L968 1870Q985 1885 1004 1894T1042 1904Q1060 1904 1076 1896T1104 1873T1123 1842T1130 1806Q1130 1780 1113 1761T1071 1730L716 1579L696
1607Z" />
<glyph unicode="&#xca;" glyph-name="Ecircumflex" horiz-adv-x="1415" d="M0 1061Q0 1178 64 1260T241 1394T502 1471T821 1495Q902 1495 979 1494T1119 1489T1229 1482T1296 1473Q1316 1468 1328 1462T1346 1448T1354 1430T1356 1405Q1356 1393 1353 1379T1344
1352T1329 1330T1307 1321Q1299 1321 1290 1328T1263 1346T1216 1369T1137 1392T1014 1410T836 1417V776H1251V688H836V297Q836 250 850 217T890 161T952 129T1034 119Q1085 119 1136 129T1232 156T1315 192T1376 231L1415 188Q1390 168 1348 134T1246 66T1105
9T922 -16Q888 -16 845 -13T755 1T665 32T586 87T530 170T508 289V688H352V776H508V1405Q476 1402 435 1394T350 1370T264 1333T189 1284T136 1222T115 1147Q115 1115 123 1096T143 1068T165 1056T182 1053Q207 1053 223 1061T252 1079T276 1097T303 1106Q315 1106
328 1101T353 1083T373 1052T381 1004Q381 964 366 935T326 886T270 858T207 848Q159 848 121 864T55 910T14 977T0 1061ZM911 1904L1136 1611L1106 1581L854 1753L602 1581L571 1611L796 1904H911Z" />
<glyph unicode="&#xcb;" glyph-name="Edieresis" horiz-adv-x="1415" d="M0 1061Q0 1178 64 1260T241 1394T502 1471T821 1495Q902 1495 979 1494T1119 1489T1229 1482T1296 1473Q1316 1468 1328 1462T1346 1448T1354 1430T1356 1405Q1356 1393 1353 1379T1344
1352T1329 1330T1307 1321Q1299 1321 1290 1328T1263 1346T1216 1369T1137 1392T1014 1410T836 1417V776H1251V688H836V297Q836 250 850 217T890 161T952 129T1034 119Q1085 119 1136 129T1232 156T1315 192T1376 231L1415 188Q1390 168 1348 134T1246 66T1105
9T922 -16Q888 -16 845 -13T755 1T665 32T586 87T530 170T508 289V688H352V776H508V1405Q476 1402 435 1394T350 1370T264 1333T189 1284T136 1222T115 1147Q115 1115 123 1096T143 1068T165 1056T182 1053Q207 1053 223 1061T252 1079T276 1097T303 1106Q315 1106
328 1101T353 1083T373 1052T381 1004Q381 964 366 935T326 886T270 858T207 848Q159 848 121 864T55 910T14 977T0 1061ZM569 1751Q569 1773 577 1792T601 1827T635 1850T677 1859Q699 1859 719 1851T754 1827T777 1793T786 1751Q786 1728 778 1709T754 1674T719
1651T677 1642Q655 1642 636 1650T601 1674T578 1708T569 1751ZM921 1751Q921 1773 929 1792T953 1827T987 1850T1030 1859Q1052 1859 1071 1851T1106 1827T1129 1793T1138 1751Q1138 1728 1130 1709T1106 1674T1072 1651T1030 1642Q1007 1642 988 1650T953 1674T930
1708T921 1751Z" />
<glyph unicode="&#xcc;" glyph-name="Igrave" horiz-adv-x="987" d="M836 131Q836 54 796 19T672 -16Q588 -16 548 19T508 131V1335Q508 1357 503 1370T489 1390T468 1400T440 1403Q418 1403 386 1396T317 1375T245 1341T180 1294T133 1236T115 1167Q115 1135
123 1116T143 1088T165 1076T182 1073Q207 1073 223 1081T252 1099T276 1117T303 1126Q315 1126 328 1121T353 1103T373 1072T381 1024Q381 984 366 955T326 907T270 878T207 868Q159 868 121 884T55 930T14 998T0 1081Q0 1150 25 1207T93 1311T195 1391T322 1449T464
1483T612 1495Q694 1495 739 1480T806 1442T832 1396T836 1356V131ZM764 1579L409 1730Q385 1741 368 1760T350 1806Q350 1824 357 1841T376 1873T404 1895T438 1904Q457 1904 476 1895T512 1870L784 1607L764 1579Z" />
<glyph unicode="&#xcd;" glyph-name="Iacute" horiz-adv-x="987" d="M836 131Q836 54 796 19T672 -16Q588 -16 548 19T508 131V1335Q508 1357 503 1370T489 1390T468 1400T440 1403Q418 1403 386 1396T317 1375T245 1341T180 1294T133 1236T115 1167Q115 1135
123 1116T143 1088T165 1076T182 1073Q207 1073 223 1081T252 1099T276 1117T303 1126Q315 1126 328 1121T353 1103T373 1072T381 1024Q381 984 366 955T326 907T270 878T207 868Q159 868 121 884T55 930T14 998T0 1081Q0 1150 25 1207T93 1311T195 1391T322 1449T464
1483T612 1495Q694 1495 739 1480T806 1442T832 1396T836 1356V131ZM471 1607L743 1870Q760 1885 779 1894T817 1904Q835 1904 851 1896T879 1873T898 1842T905 1806Q905 1780 888 1761T846 1730L491 1579L471 1607Z" />
<glyph unicode="&#xce;" glyph-name="Icircumflex" horiz-adv-x="987" d="M836 131Q836 54 796 19T672 -16Q588 -16 548 19T508 131V1335Q508 1357 503 1370T489 1390T468 1400T440 1403Q418 1403 386 1396T317 1375T245 1341T180 1294T133 1236T115 1167Q115
1135 123 1116T143 1088T165 1076T182 1073Q207 1073 223 1081T252 1099T276 1117T303 1126Q315 1126 328 1121T353 1103T373 1072T381 1024Q381 984 366 955T326 907T270 878T207 868Q159 868 121 884T55 930T14 998T0 1081Q0 1150 25 1207T93 1311T195 1391T322
1449T464 1483T612 1495Q694 1495 739 1480T806 1442T832 1396T836 1356V131ZM686 1904L911 1611L881 1581L629 1753L377 1581L346 1611L571 1904H686Z" />
<glyph unicode="&#xcf;" glyph-name="Idieresis" horiz-adv-x="987" d="M836 131Q836 54 796 19T672 -16Q588 -16 548 19T508 131V1335Q508 1357 503 1370T489 1390T468 1400T440 1403Q418 1403 386 1396T317 1375T245 1341T180 1294T133 1236T115 1167Q115 1135
123 1116T143 1088T165 1076T182 1073Q207 1073 223 1081T252 1099T276 1117T303 1126Q315 1126 328 1121T353 1103T373 1072T381 1024Q381 984 366 955T326 907T270 878T207 868Q159 868 121 884T55 930T14 998T0 1081Q0 1150 25 1207T93 1311T195 1391T322 1449T464
1483T612 1495Q694 1495 739 1480T806 1442T832 1396T836 1356V131ZM344 1751Q344 1773 352 1792T376 1827T410 1850T452 1859Q474 1859 494 1851T529 1827T552 1793T561 1751Q561 1728 553 1709T529 1674T494 1651T452 1642Q430 1642 411 1650T376 1674T353 1708T344
1751ZM696 1751Q696 1773 704 1792T728 1827T762 1850T805 1859Q827 1859 846 1851T881 1827T904 1793T913 1751Q913 1728 905 1709T881 1674T847 1651T805 1642Q782 1642 763 1650T728 1674T705 1708T696 1751Z" />
<glyph unicode="&#xd0;" glyph-name="Eth" horiz-adv-x="1694" d="M487 686H270V774H487V1319Q487 1351 464 1366T412 1382Q356 1382 303 1366T208 1321T141 1253T115 1167Q115 1135 123 1116T143 1088T165 1076T182 1073Q207 1073 223 1081T252 1099T276 1117T303
1126Q315 1126 328 1121T353 1103T373 1072T381 1024Q381 984 366 955T326 907T270 878T207 868Q159 868 121 884T55 930T14 998T0 1081Q0 1206 63 1286T234 1413T487 1477T795 1495Q981 1495 1131 1458T1389 1336T1554 1117T1612 786Q1612 591 1551 440T1383 187T1133
31T825 -23Q716 -23 650 -13T547 23T499 91T487 199V686ZM1061 686H817V190Q817 133 842 109T918 84Q993 84 1056 117T1166 230T1238 445T1264 782Q1264 918 1248 1017T1204 1186T1143 1299T1072 1367T1002 1400T940 1409Q875 1409 846 1380T817 1276V774H1061V686Z"
/>
<glyph unicode="&#xd1;" glyph-name="Ntilde" horiz-adv-x="1669" d="M496 961Q496 1052 495 1128T492 1260T489 1350T487 1389Q467 1403 442 1404T391 1405Q356 1405 307 1389T212 1342T134 1267T102 1167Q102 1135 110 1116T130 1088T153 1076T170 1073Q195
1073 211 1081T240 1099T264 1117T291 1126Q303 1126 316 1121T341 1103T361 1072T369 1024Q369 984 354 955T314 907T258 878T195 868Q147 868 109 884T43 930T2 998T-12 1081Q-12 1185 31 1262T147 1392T314 1469T510 1495Q601 1495 660 1483T756 1451T814 1404T850
1346Q911 1222 968 1102T1079 868T1183 649T1282 449V592V901Q1282 984 1286 1063T1305 1213T1349 1343T1426 1445T1547 1512T1720 1536Q1771 1536 1814 1529T1888 1507T1938 1473T1956 1427Q1956 1411 1952 1394T1938 1362T1916 1339T1884 1329Q1869 1329 1857
1350T1826 1396T1777 1443T1694 1464Q1613 1464 1560 1436T1473 1355T1425 1229T1405 1063Q1403 1000 1402 941T1400 820T1399 694T1399 553Q1399 447 1400 363T1403 225Q1448 148 1492 87T1578 -17T1664 -83T1751 -106Q1765 -106 1778 -102T1801 -93Q1812 -88
1823 -80L1855 -119Q1841 -129 1816 -143T1754 -170T1670 -192T1567 -201Q1486 -201 1412 -162T1268 -53T1136 108T1015 307T902 528T798 755T701 973T610 1167Q610 1109 611 1047T612 922V612Q612 529 608 450T589 301T546 171T468 68T347 1T174 -23Q123 -23 80
-16T6 6T-43 40T-61 86Q-61 102 -57 119T-43 151T-21 174T10 184Q20 184 28 174T46 149T68 117T98 84T141 59T201 49Q282 49 335 77T422 158T470 285T489 451Q492 514 493 573T495 693T496 820T496 961ZM889 1726Q867 1726 849 1717T818 1692T795 1656T782 1614H737Q742
1677 759 1723T801 1801T854 1847T911 1863Q946 1863 978 1848T1039 1814T1095 1781T1147 1765Q1168 1765 1186 1774T1217 1799T1240 1835T1253 1878H1298Q1293 1815 1276 1768T1234 1690T1181 1644T1124 1628Q1089 1628 1057 1643T996 1677T940 1710T889 1726Z"
/>
<glyph unicode="&#xd2;" glyph-name="Ograve" horiz-adv-x="1473" d="M645 1178Q645 1143 656 1121T683 1083T719 1057T754 1036T782 1011T793 975Q793 938 767 919T707 899Q675 899 648 919T600 973T567 1054T555 1153Q555 1217 575 1275T634 1378T730 1449T862
1475Q912 1475 971 1459T1088 1406T1201 1313T1298 1174T1366 984T1391 739Q1391 562 1339 422T1197 185T989 36T739 -16Q608 -16 489 29T280 166T136 401T82 739Q82 890 122 1014T231 1234T391 1395T584 1495L618 1452Q589 1423 564 1392T518 1322T481 1231T453
1110T436 949T430 739Q430 585 446 476T489 294T549 177T617 111T683 83T739 76Q763 76 794 82T859 111T926 176T984 293T1026 476T1042 739Q1042 874 1030 974T999 1145T954 1261T901 1333T846 1370T795 1380Q759 1380 731 1363T684 1318T655 1253T645 1178ZM895
1579L540 1730Q516 1741 499 1760T481 1806Q481 1824 488 1841T507 1873T535 1895T569 1904Q588 1904 607 1895T643 1870L915 1607L895 1579Z" />
<glyph unicode="&#xd3;" glyph-name="Oacute" horiz-adv-x="1473" d="M645 1178Q645 1143 656 1121T683 1083T719 1057T754 1036T782 1011T793 975Q793 938 767 919T707 899Q675 899 648 919T600 973T567 1054T555 1153Q555 1217 575 1275T634 1378T730 1449T862
1475Q912 1475 971 1459T1088 1406T1201 1313T1298 1174T1366 984T1391 739Q1391 562 1339 422T1197 185T989 36T739 -16Q608 -16 489 29T280 166T136 401T82 739Q82 890 122 1014T231 1234T391 1395T584 1495L618 1452Q589 1423 564 1392T518 1322T481 1231T453
1110T436 949T430 739Q430 585 446 476T489 294T549 177T617 111T683 83T739 76Q763 76 794 82T859 111T926 176T984 293T1026 476T1042 739Q1042 874 1030 974T999 1145T954 1261T901 1333T846 1370T795 1380Q759 1380 731 1363T684 1318T655 1253T645 1178ZM602
1607L874 1870Q891 1885 910 1894T948 1904Q966 1904 982 1896T1010 1873T1029 1842T1036 1806Q1036 1780 1019 1761T977 1730L622 1579L602 1607Z" />
<glyph unicode="&#xd4;" glyph-name="Ocircumflex" horiz-adv-x="1473" d="M645 1178Q645 1143 656 1121T683 1083T719 1057T754 1036T782 1011T793 975Q793 938 767 919T707 899Q675 899 648 919T600 973T567 1054T555 1153Q555 1217 575 1275T634 1378T730 1449T862
1475Q912 1475 971 1459T1088 1406T1201 1313T1298 1174T1366 984T1391 739Q1391 562 1339 422T1197 185T989 36T739 -16Q608 -16 489 29T280 166T136 401T82 739Q82 890 122 1014T231 1234T391 1395T584 1495L618 1452Q589 1423 564 1392T518 1322T481 1231T453
1110T436 949T430 739Q430 585 446 476T489 294T549 177T617 111T683 83T739 76Q763 76 794 82T859 111T926 176T984 293T1026 476T1042 739Q1042 874 1030 974T999 1145T954 1261T901 1333T846 1370T795 1380Q759 1380 731 1363T684 1318T655 1253T645 1178ZM817
1904L1042 1611L1012 1581L760 1753L508 1581L477 1611L702 1904H817Z" />
<glyph unicode="&#xd5;" glyph-name="Otilde" horiz-adv-x="1473" d="M645 1178Q645 1143 656 1121T683 1083T719 1057T754 1036T782 1011T793 975Q793 938 767 919T707 899Q675 899 648 919T600 973T567 1054T555 1153Q555 1217 575 1275T634 1378T730 1449T862
1475Q912 1475 971 1459T1088 1406T1201 1313T1298 1174T1366 984T1391 739Q1391 562 1339 422T1197 185T989 36T739 -16Q608 -16 489 29T280 166T136 401T82 739Q82 890 122 1014T231 1234T391 1395T584 1495L618 1452Q589 1423 564 1392T518 1322T481 1231T453
1110T436 949T430 739Q430 585 446 476T489 294T549 177T617 111T683 83T739 76Q763 76 794 82T859 111T926 176T984 293T1026 476T1042 739Q1042 874 1030 974T999 1145T954 1261T901 1333T846 1370T795 1380Q759 1380 731 1363T684 1318T655 1253T645 1178ZM631
1726Q609 1726 591 1717T560 1692T537 1656T524 1614H479Q484 1677 501 1723T543 1801T596 1847T653 1863Q688 1863 720 1848T781 1814T837 1781T889 1765Q910 1765 928 1774T959 1799T982 1835T995 1878H1040Q1035 1815 1018 1768T976 1690T923 1644T866 1628Q831
1628 799 1643T738 1677T682 1710T631 1726Z" />
<glyph unicode="&#xd6;" glyph-name="Odieresis" horiz-adv-x="1473" d="M645 1178Q645 1143 656 1121T683 1083T719 1057T754 1036T782 1011T793 975Q793 938 767 919T707 899Q675 899 648 919T600 973T567 1054T555 1153Q555 1217 575 1275T634 1378T730 1449T862
1475Q912 1475 971 1459T1088 1406T1201 1313T1298 1174T1366 984T1391 739Q1391 562 1339 422T1197 185T989 36T739 -16Q608 -16 489 29T280 166T136 401T82 739Q82 890 122 1014T231 1234T391 1395T584 1495L618 1452Q589 1423 564 1392T518 1322T481 1231T453
1110T436 949T430 739Q430 585 446 476T489 294T549 177T617 111T683 83T739 76Q763 76 794 82T859 111T926 176T984 293T1026 476T1042 739Q1042 874 1030 974T999 1145T954 1261T901 1333T846 1370T795 1380Q759 1380 731 1363T684 1318T655 1253T645 1178ZM475
1751Q475 1773 483 1792T507 1827T541 1850T583 1859Q605 1859 625 1851T660 1827T683 1793T692 1751Q692 1728 684 1709T660 1674T625 1651T583 1642Q561 1642 542 1650T507 1674T484 1708T475 1751ZM827 1751Q827 1773 835 1792T859 1827T893 1850T936 1859Q958
1859 977 1851T1012 1827T1035 1793T1044 1751Q1044 1728 1036 1709T1012 1674T978 1651T936 1642Q913 1642 894 1650T859 1674T836 1708T827 1751Z" />
<glyph unicode="&#xd7;" glyph-name="multiply" horiz-adv-x="969" d="M137 383L360 606L137 829L260 952L483 729L707 952L829 829L606 606L829 383L707 260L483 483L260 260L137 383Z" />
<glyph unicode="&#xd8;" glyph-name="Oslash" horiz-adv-x="1473" d="M645 1202Q645 1171 656 1152T683 1119T719 1096T754 1078T782 1056T793 1024Q793 987 767 968T707 948Q675 948 648 966T600 1016T567 1090T555 1180Q555 1239 575 1292T634 1386T730 1451T862
1475Q910 1475 967 1459T1081 1409L1167 1556L1243 1513L1151 1360Q1200 1318 1243 1261T1320 1127T1372 954T1391 739Q1391 562 1339 422T1197 185T989 36T739 -16Q645 -16 558 5T395 74L305 -78L229 -35L324 125Q269 170 225 231T149 368T100 537T82 739Q82 890
122 1014T231 1234T391 1395T584 1495L618 1452Q589 1423 564 1392T518 1322T481 1231T453 1110T436 949T430 739Q430 619 440 529T467 369L971 1225Q952 1271 930 1301T884 1348T838 1373T795 1380Q759 1380 731 1365T684 1325T655 1268T645 1202ZM1042 739Q1042
860 1033 951T1006 1112L502 258Q529 196 561 160T625 106T687 82T739 76Q763 76 794 82T859 111T926 176T984 293T1026 476T1042 739Z" />
<glyph unicode="&#xd9;" glyph-name="Ugrave" horiz-adv-x="1716" d="M1411 -16Q1360 -16 1327 -7T1274 19T1243 54T1229 94Q1166 48 1084 16T899 -16Q807 -16 729 10T592 90T500 230T467 436Q467 524 470 594T477 725T487 844T497 963T505 1096T508 1257Q508
1285 503 1310T485 1355T450 1387T395 1399Q363 1399 315 1384T223 1339T147 1266T115 1167Q115 1135 123 1116T143 1088T165 1076T182 1073Q207 1073 223 1081T252 1099T276 1117T303 1126Q315 1126 328 1121T353 1103T373 1072T381 1024Q381 984 366 955T326
907T270 878T207 868Q159 868 121 884T55 930T14 998T0 1081Q0 1150 23 1207T86 1311T178 1391T291 1449T414 1483T537 1495Q606 1495 654 1481T736 1443T789 1392T819 1338T833 1290T836 1257Q836 1176 833 1109T826 979T816 858T806 734T798 597T795 436Q795
327 816 261T870 158T938 110T1004 98Q1059 98 1115 116T1225 168V1327Q1225 1356 1213 1373T1174 1391Q1146 1391 1122 1381T1079 1362L1063 1399Q1088 1412 1124 1428T1201 1460T1285 1485T1366 1495Q1434 1495 1471 1478T1527 1435T1548 1380T1552 1329V152Q1552
123 1565 106T1604 88Q1631 88 1655 97T1698 117L1714 80Q1689 67 1653 51T1576 19T1492 -6T1411 -16ZM1104 1579L749 1730Q725 1741 708 1760T690 1806Q690 1824 697 1841T716 1873T744 1895T778 1904Q797 1904 816 1895T852 1870L1124 1607L1104 1579Z" />
<glyph unicode="&#xda;" glyph-name="Uacute" horiz-adv-x="1716" d="M1411 -16Q1360 -16 1327 -7T1274 19T1243 54T1229 94Q1166 48 1084 16T899 -16Q807 -16 729 10T592 90T500 230T467 436Q467 524 470 594T477 725T487 844T497 963T505 1096T508 1257Q508
1285 503 1310T485 1355T450 1387T395 1399Q363 1399 315 1384T223 1339T147 1266T115 1167Q115 1135 123 1116T143 1088T165 1076T182 1073Q207 1073 223 1081T252 1099T276 1117T303 1126Q315 1126 328 1121T353 1103T373 1072T381 1024Q381 984 366 955T326
907T270 878T207 868Q159 868 121 884T55 930T14 998T0 1081Q0 1150 23 1207T86 1311T178 1391T291 1449T414 1483T537 1495Q606 1495 654 1481T736 1443T789 1392T819 1338T833 1290T836 1257Q836 1176 833 1109T826 979T816 858T806 734T798 597T795 436Q795
327 816 261T870 158T938 110T1004 98Q1059 98 1115 116T1225 168V1327Q1225 1356 1213 1373T1174 1391Q1146 1391 1122 1381T1079 1362L1063 1399Q1088 1412 1124 1428T1201 1460T1285 1485T1366 1495Q1434 1495 1471 1478T1527 1435T1548 1380T1552 1329V152Q1552
123 1565 106T1604 88Q1631 88 1655 97T1698 117L1714 80Q1689 67 1653 51T1576 19T1492 -6T1411 -16ZM811 1607L1083 1870Q1100 1885 1119 1894T1157 1904Q1175 1904 1191 1896T1219 1873T1238 1842T1245 1806Q1245 1780 1228 1761T1186 1730L831 1579L811 1607Z"
/>
<glyph unicode="&#xdb;" glyph-name="Ucircumflex" horiz-adv-x="1716" d="M1411 -16Q1360 -16 1327 -7T1274 19T1243 54T1229 94Q1166 48 1084 16T899 -16Q807 -16 729 10T592 90T500 230T467 436Q467 524 470 594T477 725T487 844T497 963T505 1096T508 1257Q508
1285 503 1310T485 1355T450 1387T395 1399Q363 1399 315 1384T223 1339T147 1266T115 1167Q115 1135 123 1116T143 1088T165 1076T182 1073Q207 1073 223 1081T252 1099T276 1117T303 1126Q315 1126 328 1121T353 1103T373 1072T381 1024Q381 984 366 955T326
907T270 878T207 868Q159 868 121 884T55 930T14 998T0 1081Q0 1150 23 1207T86 1311T178 1391T291 1449T414 1483T537 1495Q606 1495 654 1481T736 1443T789 1392T819 1338T833 1290T836 1257Q836 1176 833 1109T826 979T816 858T806 734T798 597T795 436Q795
327 816 261T870 158T938 110T1004 98Q1059 98 1115 116T1225 168V1327Q1225 1356 1213 1373T1174 1391Q1146 1391 1122 1381T1079 1362L1063 1399Q1088 1412 1124 1428T1201 1460T1285 1485T1366 1495Q1434 1495 1471 1478T1527 1435T1548 1380T1552 1329V152Q1552
123 1565 106T1604 88Q1631 88 1655 97T1698 117L1714 80Q1689 67 1653 51T1576 19T1492 -6T1411 -16ZM1026 1904L1251 1611L1221 1581L969 1753L717 1581L686 1611L911 1904H1026Z" />
<glyph unicode="&#xdc;" glyph-name="Udieresis" horiz-adv-x="1716" d="M1411 -16Q1360 -16 1327 -7T1274 19T1243 54T1229 94Q1166 48 1084 16T899 -16Q807 -16 729 10T592 90T500 230T467 436Q467 524 470 594T477 725T487 844T497 963T505 1096T508 1257Q508
1285 503 1310T485 1355T450 1387T395 1399Q363 1399 315 1384T223 1339T147 1266T115 1167Q115 1135 123 1116T143 1088T165 1076T182 1073Q207 1073 223 1081T252 1099T276 1117T303 1126Q315 1126 328 1121T353 1103T373 1072T381 1024Q381 984 366 955T326
907T270 878T207 868Q159 868 121 884T55 930T14 998T0 1081Q0 1150 23 1207T86 1311T178 1391T291 1449T414 1483T537 1495Q606 1495 654 1481T736 1443T789 1392T819 1338T833 1290T836 1257Q836 1176 833 1109T826 979T816 858T806 734T798 597T795 436Q795
327 816 261T870 158T938 110T1004 98Q1059 98 1115 116T1225 168V1327Q1225 1356 1213 1373T1174 1391Q1146 1391 1122 1381T1079 1362L1063 1399Q1088 1412 1124 1428T1201 1460T1285 1485T1366 1495Q1434 1495 1471 1478T1527 1435T1548 1380T1552 1329V152Q1552
123 1565 106T1604 88Q1631 88 1655 97T1698 117L1714 80Q1689 67 1653 51T1576 19T1492 -6T1411 -16ZM684 1751Q684 1773 692 1792T716 1827T750 1850T792 1859Q814 1859 834 1851T869 1827T892 1793T901 1751Q901 1728 893 1709T869 1674T834 1651T792 1642Q770
1642 751 1650T716 1674T693 1708T684 1751ZM1036 1751Q1036 1773 1044 1792T1068 1827T1102 1850T1145 1859Q1167 1859 1186 1851T1221 1827T1244 1793T1253 1751Q1253 1728 1245 1709T1221 1674T1187 1651T1145 1642Q1122 1642 1103 1650T1068 1674T1045 1708T1036
1751Z" />
<glyph unicode="&#xdd;" glyph-name="Yacute" horiz-adv-x="1225" d="M168 -467Q241 -467 304 -429T424 -323T531 -162T627 39Q518 399 406 684T188 1167Q133 1273 74 1326T-39 1380Q-71 1380 -96 1367T-139 1337L-164 1368Q-143 1389 -112 1411T-40 1452T52 1483T166
1495Q197 1495 235 1490T312 1468T391 1422T465 1343Q542 1235 628 1039T811 561Q842 654 872 746T933 926T995 1095T1061 1247Q1096 1322 1132 1379T1212 1476T1310 1535T1434 1556Q1486 1556 1519 1534T1552 1466Q1552 1426 1539 1400T1503 1374Q1484 1374 1474
1388T1453 1420T1428 1451T1386 1466Q1325 1466 1274 1410T1177 1258T1089 1034T1003 761T913 465T812 168T694 -104T550 -329T375 -481T162 -537Q111 -537 64 -529T-21 -505T-83 -469T-111 -424Q-113 -406 -110 -388T-98 -354T-77 -329T-45 -319Q-34 -319 -25
-330T-4 -357T20 -393T54 -428T101 -456T168 -467ZM635 1607L907 1870Q924 1885 943 1894T981 1904Q999 1904 1015 1896T1043 1873T1062 1842T1069 1806Q1069 1780 1052 1761T1010 1730L655 1579L635 1607Z" />
<glyph unicode="&#xde;" glyph-name="Thorn" horiz-adv-x="1462" d="M836 131Q836 54 796 19T672 -16Q588 -16 548 19T508 131V1040Q508 1096 432 1096Q377 1096 321 1080T219 1035T144 967T115 881Q115 849 123 830T143 801T165 789T182 786Q207 786 223 794T252
813T276 831T303 840Q315 840 328 835T353 817T373 785T381 737Q381 697 366 668T326 620T270 592T207 582Q159 582 121 598T55 644T14 711T0 795Q0 886 37 953T142 1067T302 1143T508 1188V1327Q508 1356 496 1373T457 1391Q429 1391 405 1381T362 1362L346 1399Q371
1412 407 1428T485 1460T568 1485T649 1495Q717 1495 755 1478T811 1435T832 1380T836 1329V1208H862Q1148 1208 1295 1099T1442 784Q1442 684 1416 607T1345 475T1242 385T1122 335T998 323T881 346L895 389Q970 366 1018 387T1094 464T1132 603T1143 788Q1143
864 1127 926T1084 1033T1020 1101T942 1126Q910 1126 890 1117T858 1093T842 1062T836 1030V131Z" />
<glyph unicode="&#xdf;" glyph-name="germandbls" horiz-adv-x="1112" d="M127 1171Q127 1249 145 1308T196 1409T270 1480T358 1525T451 1549T543 1556Q641 1556 715 1530T838 1458T913 1349T938 1210Q938 1126 915 1070T858 979T788 927T725 905V889Q816 877
888 825Q918 803 947 770T1000 691T1037 582T1051 440Q1051 335 1023 251T945 107T827 16T680 -16Q623 -16 576 -5T483 33L500 70Q520 60 538 58T573 55Q614 55 643 78T690 151T716 276T725 457Q725 559 713 634T673 761T603 839T498 872V911Q544 919 573 942T618
1004T641 1093T647 1210Q647 1340 611 1407T518 1475Q478 1475 456 1451T434 1374V268Q434 123 408 17T340 -165T245 -288T138 -363T35 -400T-51 -412L-61 -371Q-32 -364 -7 -349T40 -305T77 -232T104 -120T121 38T127 252V1171Z" />
<glyph unicode="&#xe0;" glyph-name="agrave" horiz-adv-x="1020" d="M575 518Q575 543 559 556T518 569Q483 569 452 553T396 506T358 430T344 324Q344 266 352 228T375 168T409 136T449 127Q475 127 498 140T538 175T565 222T575 274V518ZM416 956Q382 956 353
948T303 928T270 902T258 874Q258 859 273 853T308 838T342 814T358 766Q358 745 350 728T327 697T293 676T252 668Q196 668 162 706T127 807Q127 868 159 911T242 983T359 1024T489 1038Q567 1038 638 1021T763 967T850 873T883 735V170Q883 161 884 150T889 130T901
115T924 109Q942 109 957 122T985 150L1010 129Q995 108 974 83T923 36T853 -1T762 -16Q699 -16 650 21T586 137Q554 94 520 65T449 18T377 -8T303 -16Q255 -16 210 -1T130 46T73 131T51 258Q51 349 87 407T181 504T314 572T467 631Q525 654 551 699T578 793Q578
867 535 911T416 956ZM645 1139L290 1290Q266 1301 249 1320T231 1366Q231 1384 238 1401T257 1433T285 1455T319 1464Q338 1464 357 1455T393 1430L665 1167L645 1139Z" />
<glyph unicode="&#xe1;" glyph-name="aacute" horiz-adv-x="1020" d="M575 518Q575 543 559 556T518 569Q483 569 452 553T396 506T358 430T344 324Q344 266 352 228T375 168T409 136T449 127Q475 127 498 140T538 175T565 222T575 274V518ZM416 956Q382 956 353
948T303 928T270 902T258 874Q258 859 273 853T308 838T342 814T358 766Q358 745 350 728T327 697T293 676T252 668Q196 668 162 706T127 807Q127 868 159 911T242 983T359 1024T489 1038Q567 1038 638 1021T763 967T850 873T883 735V170Q883 161 884 150T889 130T901
115T924 109Q942 109 957 122T985 150L1010 129Q995 108 974 83T923 36T853 -1T762 -16Q699 -16 650 21T586 137Q554 94 520 65T449 18T377 -8T303 -16Q255 -16 210 -1T130 46T73 131T51 258Q51 349 87 407T181 504T314 572T467 631Q525 654 551 699T578 793Q578
867 535 911T416 956ZM352 1167L624 1430Q641 1445 660 1454T698 1464Q716 1464 732 1456T760 1433T779 1402T786 1366Q786 1340 769 1321T727 1290L372 1139L352 1167Z" />
<glyph unicode="&#xe2;" glyph-name="acircumflex" horiz-adv-x="1020" d="M575 518Q575 543 559 556T518 569Q483 569 452 553T396 506T358 430T344 324Q344 266 352 228T375 168T409 136T449 127Q475 127 498 140T538 175T565 222T575 274V518ZM416 956Q382
956 353 948T303 928T270 902T258 874Q258 859 273 853T308 838T342 814T358 766Q358 745 350 728T327 697T293 676T252 668Q196 668 162 706T127 807Q127 868 159 911T242 983T359 1024T489 1038Q567 1038 638 1021T763 967T850 873T883 735V170Q883 161 884 150T889
130T901 115T924 109Q942 109 957 122T985 150L1010 129Q995 108 974 83T923 36T853 -1T762 -16Q699 -16 650 21T586 137Q554 94 520 65T449 18T377 -8T303 -16Q255 -16 210 -1T130 46T73 131T51 258Q51 349 87 407T181 504T314 572T467 631Q525 654 551 699T578
793Q578 867 535 911T416 956ZM567 1464L792 1171L762 1141L510 1313L258 1141L227 1171L452 1464H567Z" />
<glyph unicode="&#xe3;" glyph-name="atilde" horiz-adv-x="1020" d="M575 518Q575 543 559 556T518 569Q483 569 452 553T396 506T358 430T344 324Q344 266 352 228T375 168T409 136T449 127Q475 127 498 140T538 175T565 222T575 274V518ZM416 956Q382 956 353
948T303 928T270 902T258 874Q258 859 273 853T308 838T342 814T358 766Q358 745 350 728T327 697T293 676T252 668Q196 668 162 706T127 807Q127 868 159 911T242 983T359 1024T489 1038Q567 1038 638 1021T763 967T850 873T883 735V170Q883 161 884 150T889 130T901
115T924 109Q942 109 957 122T985 150L1010 129Q995 108 974 83T923 36T853 -1T762 -16Q699 -16 650 21T586 137Q554 94 520 65T449 18T377 -8T303 -16Q255 -16 210 -1T130 46T73 131T51 258Q51 349 87 407T181 504T314 572T467 631Q525 654 551 699T578 793Q578
867 535 911T416 956ZM381 1286Q359 1286 341 1277T310 1252T287 1216T274 1174H229Q234 1237 251 1283T293 1361T346 1407T403 1423Q438 1423 470 1408T531 1374T587 1341T639 1325Q660 1325 678 1334T709 1359T732 1395T745 1438H790Q785 1375 768 1328T726 1250T673
1204T616 1188Q581 1188 549 1203T488 1237T432 1270T381 1286Z" />
<glyph unicode="&#xe4;" glyph-name="adieresis" horiz-adv-x="1020" d="M575 518Q575 543 559 556T518 569Q483 569 452 553T396 506T358 430T344 324Q344 266 352 228T375 168T409 136T449 127Q475 127 498 140T538 175T565 222T575 274V518ZM416 956Q382 956
353 948T303 928T270 902T258 874Q258 859 273 853T308 838T342 814T358 766Q358 745 350 728T327 697T293 676T252 668Q196 668 162 706T127 807Q127 868 159 911T242 983T359 1024T489 1038Q567 1038 638 1021T763 967T850 873T883 735V170Q883 161 884 150T889
130T901 115T924 109Q942 109 957 122T985 150L1010 129Q995 108 974 83T923 36T853 -1T762 -16Q699 -16 650 21T586 137Q554 94 520 65T449 18T377 -8T303 -16Q255 -16 210 -1T130 46T73 131T51 258Q51 349 87 407T181 504T314 572T467 631Q525 654 551 699T578
793Q578 867 535 911T416 956ZM225 1311Q225 1333 233 1352T257 1387T291 1410T333 1419Q355 1419 375 1411T410 1387T433 1353T442 1311Q442 1288 434 1269T410 1234T375 1211T333 1202Q311 1202 292 1210T257 1234T234 1268T225 1311ZM577 1311Q577 1333 585
1352T609 1387T643 1410T686 1419Q708 1419 727 1411T762 1387T785 1353T794 1311Q794 1288 786 1269T762 1234T728 1211T686 1202Q663 1202 644 1210T609 1234T586 1268T577 1311Z" />
<glyph unicode="&#xe5;" glyph-name="aring" horiz-adv-x="1020" d="M575 518Q575 543 559 556T518 569Q483 569 452 553T396 506T358 430T344 324Q344 266 352 228T375 168T409 136T449 127Q475 127 498 140T538 175T565 222T575 274V518ZM416 956Q382 956 353
948T303 928T270 902T258 874Q258 859 273 853T308 838T342 814T358 766Q358 745 350 728T327 697T293 676T252 668Q196 668 162 706T127 807Q127 868 159 911T242 983T359 1024T489 1038Q567 1038 638 1021T763 967T850 873T883 735V170Q883 161 884 150T889 130T901
115T924 109Q942 109 957 122T985 150L1010 129Q995 108 974 83T923 36T853 -1T762 -16Q699 -16 650 21T586 137Q554 94 520 65T449 18T377 -8T303 -16Q255 -16 210 -1T130 46T73 131T51 258Q51 349 87 407T181 504T314 572T467 631Q525 654 551 699T578 793Q578
867 535 911T416 956ZM286 1343Q286 1389 303 1430T351 1501T423 1549T510 1567Q556 1567 596 1550T667 1502T715 1430T733 1343Q733 1297 716 1257T668 1186T597 1138T510 1120Q464 1120 423 1137T352 1185T304 1256T286 1343ZM399 1343Q399 1320 407 1300T431
1265T466 1242T510 1233Q533 1233 553 1241T588 1265T611 1300T620 1343Q620 1366 612 1386T588 1422T553 1445T510 1454Q487 1454 467 1446T431 1422T408 1387T399 1343Z" />
<glyph unicode="&#xe6;" glyph-name="ae" horiz-adv-x="1448" d="M489 1038Q582 1038 656 1013T778 932Q849 984 929 1011T1083 1038Q1158 1038 1213 1022T1304 979T1358 917T1376 842Q1376 795 1350 758T1278 692L883 459Q883 427 892 390T919 314T963 242T1024
180T1101 137T1194 121Q1229 121 1259 129T1315 151T1365 183T1413 223L1438 199Q1415 168 1379 131T1292 62T1173 8T1018 -14Q908 -14 810 33T647 176Q593 110 542 72T447 14T365 -11T303 -16Q255 -16 210 -1T130 46T73 131T51 258Q51 349 87 407T181 506T314
575T467 635Q525 658 551 702T578 791Q578 874 533 915T416 956Q382 956 353 948T303 928T270 902T258 874Q258 859 273 853T308 838T342 814T358 766Q358 745 350 728T327 697T293 676T252 668Q196 668 162 706T127 807Q127 868 159 911T242 983T359 1024T489
1038ZM449 127Q476 127 500 142T543 179T575 229T594 283Q578 328 570 379T561 489Q561 517 562 543T569 594Q522 584 481 569T410 525T362 448T344 324Q344 266 352 228T375 168T409 136T449 127ZM1092 662Q1105 670 1113 677T1127 695T1134 721T1137 760Q1137
785 1132 815T1113 873T1080 918T1032 936Q996 936 971 915T929 859T903 782T888 694T882 610T881 541L1092 662Z" />
<glyph unicode="&#xe7;" glyph-name="ccedilla" horiz-adv-x="948" d="M760 692Q729 692 708 701T674 727T655 762T649 803Q649 830 652 855T654 900T638 932T592 944Q557 944 518 924T447 861T394 751T373 588Q373 483 392 397T451 249T548 155T684 121Q719 121
750 129T810 151T863 183T913 223L938 199Q915 168 879 131T792 62T673 8T518 -14H512L492 -96Q555 -96 601 -111T679 -151T725 -207T741 -272Q741 -333 717 -373T654 -436T569 -469T481 -479Q440 -479 404 -472T339 -454T286 -430T248 -406L266 -373Q306 -394
350 -404T436 -412Q501 -409 541 -379T582 -283Q582 -243 567 -217T528 -174T472 -151T410 -143L442 -8Q366 5 297 44T176 145T92 292T61 481Q61 572 84 648T146 787T238 896T349 974T467 1022T584 1038Q658 1038 713 1021T804 976T859 912T877 836Q877 807 870
781T848 735T811 704T760 692Z" />
<glyph unicode="&#xe8;" glyph-name="egrave" horiz-adv-x="948" d="M383 459Q383 427 392 390T420 314T464 242T525 180T602 137T694 121Q729 121 759 129T815 151T865 183T913 223L938 199Q915 168 879 131T792 62T673 8T518 -14Q431 -14 349 17T202 112T100
269T61 489Q61 580 84 656T146 793T238 900T349 976T467 1022T584 1038Q658 1038 713 1022T804 979T859 917T877 842Q877 795 850 758T778 692L383 459ZM584 662Q597 670 605 677T619 695T626 721T629 760Q629 785 624 815T605 873T572 918T524 936Q488 936 463
915T421 859T395 782T380 694T374 610T373 541L584 662ZM678 1139L323 1290Q299 1301 282 1320T264 1366Q264 1384 271 1401T290 1433T318 1455T352 1464Q371 1464 390 1455T426 1430L698 1167L678 1139Z" />
<glyph unicode="&#xe9;" glyph-name="eacute" horiz-adv-x="948" d="M383 459Q383 427 392 390T420 314T464 242T525 180T602 137T694 121Q729 121 759 129T815 151T865 183T913 223L938 199Q915 168 879 131T792 62T673 8T518 -14Q431 -14 349 17T202 112T100
269T61 489Q61 580 84 656T146 793T238 900T349 976T467 1022T584 1038Q658 1038 713 1022T804 979T859 917T877 842Q877 795 850 758T778 692L383 459ZM584 662Q597 670 605 677T619 695T626 721T629 760Q629 785 624 815T605 873T572 918T524 936Q488 936 463
915T421 859T395 782T380 694T374 610T373 541L584 662ZM385 1167L657 1430Q674 1445 693 1454T731 1464Q749 1464 765 1456T793 1433T812 1402T819 1366Q819 1340 802 1321T760 1290L405 1139L385 1167Z" />
<glyph unicode="&#xea;" glyph-name="ecircumflex" horiz-adv-x="948" d="M383 459Q383 427 392 390T420 314T464 242T525 180T602 137T694 121Q729 121 759 129T815 151T865 183T913 223L938 199Q915 168 879 131T792 62T673 8T518 -14Q431 -14 349 17T202 112T100
269T61 489Q61 580 84 656T146 793T238 900T349 976T467 1022T584 1038Q658 1038 713 1022T804 979T859 917T877 842Q877 795 850 758T778 692L383 459ZM584 662Q597 670 605 677T619 695T626 721T629 760Q629 785 624 815T605 873T572 918T524 936Q488 936 463
915T421 859T395 782T380 694T374 610T373 541L584 662ZM600 1464L825 1171L795 1141L543 1313L291 1141L260 1171L485 1464H600Z" />
<glyph unicode="&#xeb;" glyph-name="edieresis" horiz-adv-x="948" d="M383 459Q383 427 392 390T420 314T464 242T525 180T602 137T694 121Q729 121 759 129T815 151T865 183T913 223L938 199Q915 168 879 131T792 62T673 8T518 -14Q431 -14 349 17T202 112T100
269T61 489Q61 580 84 656T146 793T238 900T349 976T467 1022T584 1038Q658 1038 713 1022T804 979T859 917T877 842Q877 795 850 758T778 692L383 459ZM584 662Q597 670 605 677T619 695T626 721T629 760Q629 785 624 815T605 873T572 918T524 936Q488 936 463
915T421 859T395 782T380 694T374 610T373 541L584 662ZM258 1311Q258 1333 266 1352T290 1387T324 1410T366 1419Q388 1419 408 1411T443 1387T466 1353T475 1311Q475 1288 467 1269T443 1234T408 1211T366 1202Q344 1202 325 1210T290 1234T267 1268T258 1311ZM610
1311Q610 1333 618 1352T642 1387T676 1410T719 1419Q741 1419 760 1411T795 1387T818 1353T827 1311Q827 1288 819 1269T795 1234T761 1211T719 1202Q696 1202 677 1210T642 1234T619 1268T610 1311Z" />
<glyph unicode="&#xec;" glyph-name="igrave" horiz-adv-x="571" d="M444 84Q444 71 440 54T419 21T371 -5T287 -16Q234 -16 204 -4T159 26T141 61T137 90V862Q137 891 124 912T78 934Q61 934 49 928T23 911L2 936Q25 955 53 973T115 1006T186 1029T266 1038Q331
1038 367 1021T420 978T440 923T444 872V84ZM720 1139L365 1290Q341 1301 324 1320T306 1366Q306 1384 313 1401T332 1433T360 1455T394 1464Q413 1464 432 1455T468 1430L740 1167L720 1139Z" />
<glyph unicode="&#xed;" glyph-name="iacute" horiz-adv-x="571" d="M444 84Q444 71 440 54T419 21T371 -5T287 -16Q234 -16 204 -4T159 26T141 61T137 90V862Q137 891 124 912T78 934Q61 934 49 928T23 911L2 936Q25 955 53 973T115 1006T186 1029T266 1038Q331
1038 367 1021T420 978T440 923T444 872V84ZM50 1167L322 1430Q339 1445 358 1454T396 1464Q414 1464 430 1456T458 1433T477 1402T484 1366Q484 1340 467 1321T425 1290L70 1139L50 1167Z" />
<glyph unicode="&#xee;" glyph-name="icircumflex" horiz-adv-x="571" d="M444 84Q444 71 440 54T419 21T371 -5T287 -16Q234 -16 204 -4T159 26T141 61T137 90V862Q137 891 124 912T78 934Q61 934 49 928T23 911L2 936Q25 955 53 973T115 1006T186 1029T266 1038Q331
1038 367 1021T420 978T440 923T444 872V84ZM325 1464L550 1171L520 1141L268 1313L16 1141L-15 1171L210 1464H325Z" />
<glyph unicode="&#xef;" glyph-name="idieresis" horiz-adv-x="571" d="M444 84Q444 71 440 54T419 21T371 -5T287 -16Q234 -16 204 -4T159 26T141 61T137 90V862Q137 891 124 912T78 934Q61 934 49 928T23 911L2 936Q25 955 53 973T115 1006T186 1029T266 1038Q331
1038 367 1021T420 978T440 923T444 872V84ZM-17 1311Q-17 1333 -9 1352T15 1387T49 1410T91 1419Q113 1419 133 1411T168 1387T191 1353T200 1311Q200 1288 192 1269T168 1234T133 1211T91 1202Q69 1202 50 1210T15 1234T-8 1268T-17 1311ZM335 1311Q335 1333
343 1352T367 1387T401 1410T444 1419Q466 1419 485 1411T520 1387T543 1353T552 1311Q552 1288 544 1269T520 1234T486 1211T444 1202Q421 1202 402 1210T367 1234T344 1268T335 1311Z" />
<glyph unicode="&#xf0;" glyph-name="eth" horiz-adv-x="1049" d="M467 1354Q432 1392 389 1425T291 1485L307 1522Q449 1478 561 1403L799 1530L836 1462L631 1352Q718 1281 784 1191T896 996T964 772T987 526Q987 395 949 294T848 124T700 20T524 -16Q432 -16
348 14T201 106T99 264T61 492Q61 623 100 718T201 876T343 967T502 997Q556 997 587 988T641 967Q627 1050 598 1134T516 1292L281 1165L246 1235L467 1354ZM676 502Q676 552 675 601T671 694T663 776T651 840Q623 864 592 879T524 895Q475 895 445 862T399 774T378
645T373 492Q373 412 378 339T399 209T445 120T524 86Q573 86 603 121T649 214T670 347T676 502Z" />
<glyph unicode="&#xf1;" glyph-name="ntilde" horiz-adv-x="1102" d="M713 498Q713 624 702 699T671 814T629 866T582 879Q553 879 531 864T492 828T464 788T444 758V90Q444 77 440 59T421 24T375 -4T291 -16Q238 -16 208 -4T161 26T141 61T137 90V862Q137 891
124 912T78 934Q61 934 49 928T23 911L2 936Q25 955 53 973T115 1006T186 1029T266 1038Q331 1038 367 1017T420 965T440 903T444 848Q481 901 528 943Q547 961 570 978T620 1008T676 1030T737 1038Q805 1038 857 1012T946 925T1001 764T1020 514Q1020 369 994
262T926 80T831 -42T724 -117T621 -154T535 -166L524 -125Q554 -118 579 -103T626 -59T663 14T690 126T707 284T713 498ZM416 1286Q394 1286 376 1277T345 1252T322 1216T309 1174H264Q269 1237 286 1283T328 1361T381 1407T438 1423Q473 1423 505 1408T566 1374T622
1341T674 1325Q695 1325 713 1334T744 1359T767 1395T780 1438H825Q820 1375 803 1328T761 1250T708 1204T651 1188Q616 1188 584 1203T523 1237T467 1270T416 1286Z" />
<glyph unicode="&#xf2;" glyph-name="ograve" horiz-adv-x="1049" d="M61 512Q61 643 99 741T200 906T348 1005T524 1038Q616 1038 700 1008T847 914T949 755T987 526Q987 395 949 294T848 124T700 20T524 -16Q432 -16 348 17T201 117T99 282T61 512ZM676 522Q676
602 671 676T649 809T603 901T524 936Q475 936 445 900T399 804T378 668T373 512Q373 432 378 356T399 219T445 123T524 86Q573 86 603 124T649 224T670 364T676 522ZM660 1139L305 1290Q281 1301 264 1320T246 1366Q246 1384 253 1401T272 1433T300 1455T334 1464Q353
1464 372 1455T408 1430L680 1167L660 1139Z" />
<glyph unicode="&#xf3;" glyph-name="oacute" horiz-adv-x="1049" d="M61 512Q61 643 99 741T200 906T348 1005T524 1038Q616 1038 700 1008T847 914T949 755T987 526Q987 395 949 294T848 124T700 20T524 -16Q432 -16 348 17T201 117T99 282T61 512ZM676 522Q676
602 671 676T649 809T603 901T524 936Q475 936 445 900T399 804T378 668T373 512Q373 432 378 356T399 219T445 123T524 86Q573 86 603 124T649 224T670 364T676 522ZM367 1167L639 1430Q656 1445 675 1454T713 1464Q731 1464 747 1456T775 1433T794 1402T801 1366Q801
1340 784 1321T742 1290L387 1139L367 1167Z" />
<glyph unicode="&#xf4;" glyph-name="ocircumflex" horiz-adv-x="1049" d="M61 512Q61 643 99 741T200 906T348 1005T524 1038Q616 1038 700 1008T847 914T949 755T987 526Q987 395 949 294T848 124T700 20T524 -16Q432 -16 348 17T201 117T99 282T61 512ZM676
522Q676 602 671 676T649 809T603 901T524 936Q475 936 445 900T399 804T378 668T373 512Q373 432 378 356T399 219T445 123T524 86Q573 86 603 124T649 224T670 364T676 522ZM582 1464L807 1171L777 1141L525 1313L273 1141L242 1171L467 1464H582Z" />
<glyph unicode="&#xf5;" glyph-name="otilde" horiz-adv-x="1049" d="M61 512Q61 643 99 741T200 906T348 1005T524 1038Q616 1038 700 1008T847 914T949 755T987 526Q987 395 949 294T848 124T700 20T524 -16Q432 -16 348 17T201 117T99 282T61 512ZM676 522Q676
602 671 676T649 809T603 901T524 936Q475 936 445 900T399 804T378 668T373 512Q373 432 378 356T399 219T445 123T524 86Q573 86 603 124T649 224T670 364T676 522ZM396 1286Q374 1286 356 1277T325 1252T302 1216T289 1174H244Q249 1237 266 1283T308 1361T361
1407T418 1423Q453 1423 485 1408T546 1374T602 1341T654 1325Q675 1325 693 1334T724 1359T747 1395T760 1438H805Q800 1375 783 1328T741 1250T688 1204T631 1188Q596 1188 564 1203T503 1237T447 1270T396 1286Z" />
<glyph unicode="&#xf6;" glyph-name="odieresis" horiz-adv-x="1049" d="M61 512Q61 643 99 741T200 906T348 1005T524 1038Q616 1038 700 1008T847 914T949 755T987 526Q987 395 949 294T848 124T700 20T524 -16Q432 -16 348 17T201 117T99 282T61 512ZM676 522Q676
602 671 676T649 809T603 901T524 936Q475 936 445 900T399 804T378 668T373 512Q373 432 378 356T399 219T445 123T524 86Q573 86 603 124T649 224T670 364T676 522ZM240 1311Q240 1333 248 1352T272 1387T306 1410T348 1419Q370 1419 390 1411T425 1387T448 1353T457
1311Q457 1288 449 1269T425 1234T390 1211T348 1202Q326 1202 307 1210T272 1234T249 1268T240 1311ZM592 1311Q592 1333 600 1352T624 1387T658 1410T701 1419Q723 1419 742 1411T777 1387T800 1353T809 1311Q809 1288 801 1269T777 1234T743 1211T701 1202Q678
1202 659 1210T624 1234T601 1268T592 1311Z" />
<glyph unicode="&#xf7;" glyph-name="divide" horiz-adv-x="969" d="M369 895Q369 920 378 942T402 980T438 1005T483 1014Q508 1014 529 1005T567 980T592 942T602 895Q602 872 593 852T567 816T530 791T483 782Q459 782 439 791T403 815T378 851T369 895ZM123
692H846V518H123V692ZM369 309Q369 334 378 356T402 394T438 419T483 428Q508 428 529 419T567 394T592 356T602 309Q602 286 593 266T567 230T530 206T483 197Q459 197 439 206T403 230T378 265T369 309Z" />
<glyph unicode="&#xf8;" glyph-name="oslash" horiz-adv-x="1049" d="M242 80Q160 145 111 252T61 512Q61 643 99 741T200 906T348 1005T524 1038Q645 1038 748 985L811 1100L874 1063L809 946Q849 915 881 874T937 781T974 665T987 526Q987 395 949 294T848 124T700
20T524 -16Q402 -16 301 39L238 -78L174 -41L242 80ZM373 512Q373 464 373 418T379 328L649 809Q632 866 603 901T524 936Q475 936 445 900T399 804T378 668T373 512ZM676 522Q676 614 670 694L399 215Q416 156 445 121T524 86Q573 86 603 124T649 224T670 364T676
522Z" />
<glyph unicode="&#xf9;" glyph-name="ugrave" horiz-adv-x="1137" d="M999 174Q999 165 1000 155T1005 135T1017 119T1040 113Q1059 113 1074 126T1102 154L1126 133Q1111 112 1089 87T1034 38T961 0T868 -16Q824 -16 792 -5T737 26T703 72T692 129V174Q642 120
587 79Q563 61 536 44T480 14T420 -8T358 -16Q298 -16 256 5T187 62T149 141T137 229V848Q137 857 136 867T131 887T119 903T96 909Q78 909 63 896T35 868L10 889Q25 910 47 935T102 984T175 1022T268 1038Q312 1038 345 1027T400 996T433 950T444 893V225Q444
211 448 197T461 170T483 151T514 143Q543 143 572 158T625 193T666 234T692 264V848Q692 857 691 867T686 887T674 903T651 909Q633 909 618 896T590 868L565 889Q580 910 602 935T657 984T730 1022T823 1038Q867 1038 900 1027T955 996T988 950T999 893V174ZM688
1139L333 1290Q309 1301 292 1320T274 1366Q274 1384 281 1401T300 1433T328 1455T362 1464Q381 1464 400 1455T436 1430L708 1167L688 1139Z" />
<glyph unicode="&#xfa;" glyph-name="uacute" horiz-adv-x="1137" d="M999 174Q999 165 1000 155T1005 135T1017 119T1040 113Q1059 113 1074 126T1102 154L1126 133Q1111 112 1089 87T1034 38T961 0T868 -16Q824 -16 792 -5T737 26T703 72T692 129V174Q642 120
587 79Q563 61 536 44T480 14T420 -8T358 -16Q298 -16 256 5T187 62T149 141T137 229V848Q137 857 136 867T131 887T119 903T96 909Q78 909 63 896T35 868L10 889Q25 910 47 935T102 984T175 1022T268 1038Q312 1038 345 1027T400 996T433 950T444 893V225Q444
211 448 197T461 170T483 151T514 143Q543 143 572 158T625 193T666 234T692 264V848Q692 857 691 867T686 887T674 903T651 909Q633 909 618 896T590 868L565 889Q580 910 602 935T657 984T730 1022T823 1038Q867 1038 900 1027T955 996T988 950T999 893V174ZM395
1167L667 1430Q684 1445 703 1454T741 1464Q759 1464 775 1456T803 1433T822 1402T829 1366Q829 1340 812 1321T770 1290L415 1139L395 1167Z" />
<glyph unicode="&#xfb;" glyph-name="ucircumflex" horiz-adv-x="1137" d="M999 174Q999 165 1000 155T1005 135T1017 119T1040 113Q1059 113 1074 126T1102 154L1126 133Q1111 112 1089 87T1034 38T961 0T868 -16Q824 -16 792 -5T737 26T703 72T692 129V174Q642
120 587 79Q563 61 536 44T480 14T420 -8T358 -16Q298 -16 256 5T187 62T149 141T137 229V848Q137 857 136 867T131 887T119 903T96 909Q78 909 63 896T35 868L10 889Q25 910 47 935T102 984T175 1022T268 1038Q312 1038 345 1027T400 996T433 950T444 893V225Q444
211 448 197T461 170T483 151T514 143Q543 143 572 158T625 193T666 234T692 264V848Q692 857 691 867T686 887T674 903T651 909Q633 909 618 896T590 868L565 889Q580 910 602 935T657 984T730 1022T823 1038Q867 1038 900 1027T955 996T988 950T999 893V174ZM610
1464L835 1171L805 1141L553 1313L301 1141L270 1171L495 1464H610Z" />
<glyph unicode="&#xfc;" glyph-name="udieresis" horiz-adv-x="1137" d="M999 174Q999 165 1000 155T1005 135T1017 119T1040 113Q1059 113 1074 126T1102 154L1126 133Q1111 112 1089 87T1034 38T961 0T868 -16Q824 -16 792 -5T737 26T703 72T692 129V174Q642
120 587 79Q563 61 536 44T480 14T420 -8T358 -16Q298 -16 256 5T187 62T149 141T137 229V848Q137 857 136 867T131 887T119 903T96 909Q78 909 63 896T35 868L10 889Q25 910 47 935T102 984T175 1022T268 1038Q312 1038 345 1027T400 996T433 950T444 893V225Q444
211 448 197T461 170T483 151T514 143Q543 143 572 158T625 193T666 234T692 264V848Q692 857 691 867T686 887T674 903T651 909Q633 909 618 896T590 868L565 889Q580 910 602 935T657 984T730 1022T823 1038Q867 1038 900 1027T955 996T988 950T999 893V174ZM268
1311Q268 1333 276 1352T300 1387T334 1410T376 1419Q398 1419 418 1411T453 1387T476 1353T485 1311Q485 1288 477 1269T453 1234T418 1211T376 1202Q354 1202 335 1210T300 1234T277 1268T268 1311ZM620 1311Q620 1333 628 1352T652 1387T686 1410T729 1419Q751
1419 770 1411T805 1387T828 1353T837 1311Q837 1288 829 1269T805 1234T771 1211T729 1202Q706 1202 687 1210T652 1234T629 1268T620 1311Z" />
<glyph unicode="&#xfd;" glyph-name="yacute" horiz-adv-x="983" d="M922 881Q922 698 887 528T789 208T640 -65T453 -277T240 -414T12 -463Q-76 -463 -124 -434T-172 -354Q-172 -335 -166 -317T-150 -285T-126 -263T-96 -254Q-77 -254 -65 -273T-38 -314T-4 -356T51
-375Q96 -375 145 -360T243 -315T342 -245T440 -152Q412 -51 376 68T299 309T216 542T133 742T55 881T-12 934Q-31 934 -41 928T-66 911L-86 936Q-66 953 -44 971T8 1004T78 1028T174 1038Q235 1038 287 1011T383 909Q414 854 447 777T515 605T583 400T653 168Q715
298 753 443T791 743Q791 798 784 837T768 903T752 950T745 985Q745 1000 757 1010T786 1027T820 1035T850 1038Q877 1038 891 1027T913 996T921 946T922 881ZM324 1167L596 1430Q613 1445 632 1454T670 1464Q688 1464 704 1456T732 1433T751 1402T758 1366Q758
1340 741 1321T699 1290L344 1139L324 1167Z" />
<glyph unicode="&#xfe;" glyph-name="thorn" horiz-adv-x="1102" d="M127 1380Q127 1409 114 1430T68 1452Q51 1452 39 1447T12 1430L-8 1454Q15 1473 43 1491T104 1524T176 1547T256 1556Q321 1556 357 1539T410 1496T430 1442T434 1391V915Q474 969 540 1003T684
1038Q764 1038 829 1005T940 907T1011 746T1036 524Q1036 378 1006 276T926 108T813 14T684 -16Q629 -16 588 -5T516 22T466 54T434 82V-406Q434 -419 430 -437T411 -471T365 -500T281 -512Q228 -512 197 -500T151 -470T131 -435T127 -406V1380ZM434 225Q434 217
441 197T463 156T501 119T559 102Q603 102 634 135T685 226T714 360T723 524Q723 631 711 705T678 824T625 890T557 911Q536 911 515 900T477 871T448 832T434 791V225Z" />
<glyph unicode="&#xff;" glyph-name="ydieresis" horiz-adv-x="983" d="M922 881Q922 698 887 528T789 208T640 -65T453 -277T240 -414T12 -463Q-76 -463 -124 -434T-172 -354Q-172 -335 -166 -317T-150 -285T-126 -263T-96 -254Q-77 -254 -65 -273T-38 -314T-4
-356T51 -375Q96 -375 145 -360T243 -315T342 -245T440 -152Q412 -51 376 68T299 309T216 542T133 742T55 881T-12 934Q-31 934 -41 928T-66 911L-86 936Q-66 953 -44 971T8 1004T78 1028T174 1038Q235 1038 287 1011T383 909Q414 854 447 777T515 605T583 400T653
168Q715 298 753 443T791 743Q791 798 784 837T768 903T752 950T745 985Q745 1000 757 1010T786 1027T820 1035T850 1038Q877 1038 891 1027T913 996T921 946T922 881ZM197 1311Q197 1333 205 1352T229 1387T263 1410T305 1419Q327 1419 347 1411T382 1387T405
1353T414 1311Q414 1288 406 1269T382 1234T347 1211T305 1202Q283 1202 264 1210T229 1234T206 1268T197 1311ZM549 1311Q549 1333 557 1352T581 1387T615 1410T658 1419Q680 1419 699 1411T734 1387T757 1353T766 1311Q766 1288 758 1269T734 1234T700 1211T658
1202Q635 1202 616 1210T581 1234T558 1268T549 1311Z" />
<glyph unicode="&#x2013;" glyph-name="endash" horiz-adv-x="1024" d="M102 621H922V420H102V621Z" />
<glyph unicode="&#x2014;" glyph-name="emdash" horiz-adv-x="2048" d="M0 621H2048V420H0V621Z" />
<glyph unicode="&#x2018;" glyph-name="quoteleft" horiz-adv-x="395" d="M354 1460Q292 1418 269 1371T246 1280Q246 1234 271 1199T328 1137Q342 1122 342 1104Q342 1083 328 1061T291 1020T238 989T174 977Q142 977 121 993T86 1032T67 1080T61 1126Q61 1184
82 1237T139 1338T223 1424T324 1495L354 1460Z" />
<glyph unicode="&#x2019;" glyph-name="quoteright" horiz-adv-x="395" d="M41 1012Q103 1054 126 1101T150 1192Q150 1238 125 1273T68 1335Q53 1350 53 1368Q53 1389 67 1411T104 1452T157 1483T221 1495Q252 1495 274 1479T309 1440T328 1392T334 1346Q334
1287 313 1234T256 1134T173 1048T72 977L41 1012Z" />
<glyph unicode="&#x201a;" glyph-name="quotesinglbase" horiz-adv-x="395" d="M41 -203Q102 -161 126 -114T150 -23Q150 23 125 59T68 121Q53 135 53 154Q53 175 67 197T104 238T157 269T221 281Q252 281 274 265T309 226T328 177T334 131Q334 72 313 19T256
-81T173 -167T72 -238L41 -203Z" />
<glyph unicode="&#x201c;" glyph-name="quotedblleft" horiz-adv-x="743" d="M354 1458Q292 1416 269 1369T246 1278Q246 1232 271 1197T328 1135Q342 1120 342 1102Q342 1081 328 1059T291 1018T238 987T174 975Q142 975 121 991T86 1030T67 1078T61 1124Q61
1182 82 1235T139 1336T223 1422T324 1493L354 1458ZM702 1460Q641 1418 618 1371T594 1280Q594 1234 619 1199T676 1137Q690 1122 690 1104Q690 1083 676 1061T639 1020T586 989T522 977Q490 977 469 993T435 1032T416 1080T410 1126Q410 1184 431 1237T488 1338T571
1424T672 1495L702 1460Z" />
<glyph unicode="&#x201d;" glyph-name="quotedblright" horiz-adv-x="743" d="M389 1012Q451 1054 474 1101T498 1192Q498 1238 473 1273T416 1335Q401 1351 401 1368Q401 1389 415 1411T452 1452T505 1483T569 1495Q600 1495 622 1479T657 1440T676 1392T682
1346Q682 1287 661 1234T604 1134T521 1048T420 977L389 1012ZM41 1012Q103 1054 126 1101T150 1192Q150 1238 125 1273T68 1335Q53 1350 53 1368Q53 1389 67 1411T104 1452T157 1483T221 1495Q252 1495 274 1479T309 1440T328 1392T334 1346Q334 1287 313 1234T256
1134T173 1048T72 977L41 1012Z" />
<glyph unicode="&#x201e;" glyph-name="quotedblbase" horiz-adv-x="743" d="M389 -203Q450 -161 474 -114T498 -23Q498 23 473 59T416 121Q401 136 401 154Q401 175 415 197T452 238T505 269T569 281Q600 281 622 265T657 226T676 177T682 131Q682 72 661 19T604
-81T521 -167T420 -238L389 -203ZM41 -203Q102 -161 126 -114T150 -23Q150 23 125 59T68 121Q53 135 53 154Q53 175 67 197T104 238T157 269T221 281Q252 281 274 265T309 226T328 177T334 131Q334 72 313 19T256 -81T173 -167T72 -238L41 -203Z" />
<glyph unicode="&#x2022;" glyph-name="bullet" horiz-adv-x="614" d="M84 664Q84 710 101 750T149 821T219 869T305 887Q351 887 391 870T462 822T510 751T528 664Q528 619 511 579T463 508T392 460T305 442Q260 442 220 459T149 507T102 578T84 664Z" />
<glyph unicode="&#x2039;" glyph-name="guilsinglleft" horiz-adv-x="526" d="M258 520L455 258L399 199L51 487V553L399 842L455 782L258 520Z" />
<glyph unicode="&#x203a;" glyph-name="guilsinglright" horiz-adv-x="526" d="M268 520L72 782L127 842L475 553V487L127 199L72 258L268 520Z" />
</font>
</defs>
</svg>
