<?xml version="1.0" standalone="no"?>
<!DOCTYPE svg PUBLIC "-//W3C//DTD SVG 1.1//EN" "http://www.w3.org/Graphics/SVG/1.1/DTD/svg11.dtd">
<svg xmlns="http://www.w3.org/2000/svg">
<defs >
<font id="JockeyOne" horiz-adv-x="370" ><font-face
    font-family="Jockey One"
    units-per-em="1000"
    panose-1="2 0 5 6 0 0 0 2 0 4"
    ascent="1079"
    descent="-319"
    alphabetic="0" />
<glyph unicode=" " glyph-name="space" horiz-adv-x="160" />
<glyph unicode="!" glyph-name="exclam" horiz-adv-x="222" d="M55 135H167V0H55V135ZM182 700L167 380V241H55V380L40 700H182Z" />
<glyph unicode="&quot;" glyph-name="quotedbl" horiz-adv-x="351" d="M62 479L52 700H163L153 479H62ZM198 479L188 700H299L289 479H198Z" />
<glyph unicode="#" glyph-name="numbersign" horiz-adv-x="625" d="M320 0L343 124H212L189 0H114L137 124H34L47 198H151L177 332H72L85 406H191L215 529H290L266 406H397L421 529H496L472 406H582L569 332H458L432 198H544L531 124H418L395 0H320ZM252 332L226
198H357L383 332H252Z" />
<glyph unicode="$" glyph-name="dollar" horiz-adv-x="395" d="M261 684H360V564H166L163 558L325 302Q374 223 374 168Q374 67 307 20H260V-66H154V20H42V136H254L257 142L72 429Q33 491 33 543Q33 647 120 684H155V770H261V684Z" />
<glyph unicode="%" glyph-name="percent" horiz-adv-x="776" d="M241 279H95Q10 365 10 483Q10 621 95 700H241Q326 621 326 483Q326 365 241 279ZM146 604Q119 558 119 489T146 373H190Q217 422 217 488T190 604H146ZM681 0H535Q450 86 450 204Q450 342 535 421H681Q766
342 766 204Q766 86 681 0ZM586 325Q559 279 559 210T586 94H630Q657 143 657 209T630 325H586ZM221 0L443 700H556L330 0H221Z" />
<glyph unicode="&amp;" glyph-name="ampersand" horiz-adv-x="465" d="M161 421L148 451Q127 492 127 539Q127 625 198 655H359V535H256L254 529L430 111V0H152Q95 22 63 76T30 196T63 321T161 421ZM210 314Q155 267 155 206T194 111H299L210 314Z" />
<glyph unicode="&apos;" glyph-name="quotesingle" horiz-adv-x="181" d="M45 479L35 700H146L136 479H45Z" />
<glyph unicode="(" glyph-name="parenleft" horiz-adv-x="271" d="M271 -150H163Q35 49 35 327T163 800H271Q153 597 153 330T271 -150Z" />
<glyph unicode=")" glyph-name="parenright" horiz-adv-x="271" d="M108 -150H0Q118 62 118 329T0 800H108Q236 606 236 328T108 -150Z" />
<glyph unicode="*" glyph-name="asterisk" horiz-adv-x="376" d="M154 732H222L226 629L316 655L336 592L249 560L305 474L252 435L188 516L124 435L71 474L128 558L40 592L60 655L149 629L154 732Z" />
<glyph unicode="+" glyph-name="plus" horiz-adv-x="344" d="M5 290V387H339V290H5ZM123 167V511H219V167H123Z" />
<glyph unicode="," glyph-name="comma" horiz-adv-x="224" d="M40 0V148H184V89Q184 14 167 -32T99 -149L41 -121Q89 -47 99 0H40Z" />
<glyph unicode="-" glyph-name="hyphen" horiz-adv-x="256" d="M25 231V345H231V231H25Z" />
<glyph unicode="." glyph-name="period" horiz-adv-x="224" d="M40 148H184V0H40V148Z" />
<glyph unicode="/" glyph-name="slash" horiz-adv-x="385" d="M12 0L234 700H367L141 0H12Z" />
<glyph unicode="0" glyph-name="zero" horiz-adv-x="493" d="M342 0H151Q84 67 55 158T25 340Q25 573 151 700H342Q408 633 438 543T468 362Q468 126 342 0ZM290 580H204Q160 490 160 351T203 116H291Q334 226 334 358T290 580Z" />
<glyph unicode="1" glyph-name="one" horiz-adv-x="285" d="M90 0V580H10V700H230V0H90Z" />
<glyph unicode="2" glyph-name="two" horiz-adv-x="367" d="M20 100L219 573L216 580H41V700H257Q344 663 344 582Q344 538 322 482Q316 465 312 454T299 423T286 392Q269 353 254 320L164 116H339V0H20V100Z" />
<glyph unicode="3" glyph-name="three" horiz-adv-x="409" d="M230 411V406Q367 363 367 219Q367 146 329 88T243 0H15V116H187Q199 127 214 160T229 227Q229 290 184 320H103V429L224 569L219 580H19V700H260Q345 664 345 586Q345 526 290 471L230 411Z" />
<glyph unicode="4" glyph-name="four" horiz-adv-x="479" d="M317 700L156 270H304V452H434V0H304V145H119Q32 190 32 284Q32 327 80 447L180 700H317Z" />
<glyph unicode="5" glyph-name="five" horiz-adv-x="443" d="M252 451H328Q403 400 403 321Q403 273 369 214Q359 196 334 158L231 0H76L279 321L276 330H45V700H373V580H178V438Q208 451 252 451Z" />
<glyph unicode="6" glyph-name="six" horiz-adv-x="481" d="M286 318H193Q169 268 169 231T178 161T198 116H285Q312 163 312 222T286 318ZM279 434H331Q388 405 419 349T451 233Q451 92 339 0H147Q33 81 33 233Q33 284 48 343T80 441T126 540L198 700H337L207
411Q244 434 279 434Z" />
<glyph unicode="7" glyph-name="seven" horiz-adv-x="372" d="M19 0L220 580H10V700H367V607L160 0H19Z" />
<glyph unicode="8" glyph-name="eight" horiz-adv-x="487" d="M337 0H153Q99 23 62 76T25 197Q25 307 110 363V367Q42 425 42 512Q42 578 79 628T169 700H320Q372 679 408 630T445 515Q445 428 376 369V365Q462 308 462 201Q462 134 425 79T337 0ZM199 298Q164
269 164 213Q164 182 175 154T201 116H286Q300 126 311 154T323 213Q323 269 288 298H199ZM205 580Q191 570 180 548T169 498Q169 448 204 415H283Q318 448 318 498Q318 525 307 547T282 580H205Z" />
<glyph unicode="9" glyph-name="nine" horiz-adv-x="468" d="M190 382H283Q307 432 307 469T299 537T279 580H191Q164 537 164 478T190 382ZM197 266H145Q88 295 57 351T25 467Q25 615 144 700H329Q443 619 443 467Q443 352 350 160L278 0H139L269 289Q232 266 197 266Z" />
<glyph unicode=":" glyph-name="colon" horiz-adv-x="224" d="M40 148H184V0H40V148ZM40 444H184V296H40V444Z" />
<glyph unicode=";" glyph-name="semicolon" horiz-adv-x="224" d="M40 444H184V296H40V444ZM40 0V148H184V89Q184 14 167 -32T99 -149L41 -121Q89 -47 99 0H40Z" />
<glyph unicode="&lt;" glyph-name="less" horiz-adv-x="379" d="M308 144L20 289V389L308 534L359 431L156 339L359 247L308 144Z" />
<glyph unicode="=" glyph-name="equal" horiz-adv-x="344" d="M5 370V467H339V370H5ZM5 170V267H339V170H5Z" />
<glyph unicode="&gt;" glyph-name="greater" horiz-adv-x="379" d="M359 289L71 144L20 247L223 339L20 431L71 534L359 389V289Z" />
<glyph unicode="?" glyph-name="question" horiz-adv-x="309" d="M67 135H189V0H67V135ZM67 241V286Q67 372 111 482Q126 520 130 532T135 558Q135 576 116 576H30V700H197Q243 681 262 644T281 579T275 528T262 492L218 412Q189 354 189 282V241H67Z" />
<glyph unicode="@" glyph-name="at" horiz-adv-x="722" d="M341 120H394V250H344Q323 220 323 185T341 120ZM325 20H279Q206 87 206 184T287 348H325Q376 348 404 325L409 348H509V116H530Q559 146 570 176T581 256T564 338T511 406H260Q140 325 140 190Q140 79
203 18Q233 -11 272 -35H501V-140H236Q134 -87 80 -11T25 190Q25 381 225 511H557Q696 407 696 260Q696 184 669 133T580 20H423L410 46Q395 29 378 25T325 20Z" />
<glyph unicode="A" glyph-name="A" horiz-adv-x="490" d="M346 0L325 111H167L146 0H10L145 700H352L480 0H346ZM244 570L205 337L183 218H308L285 337L246 570H244Z" />
<glyph unicode="B" glyph-name="B" horiz-adv-x="501" d="M48 0V700H333Q382 682 420 637T458 528Q458 415 384 370V366Q476 315 476 206Q476 81 349 0H48ZM184 411H283Q327 438 327 493T286 580H184V411ZM184 116H287Q305 129 319 157T334 213T322 264T292 298H184V116Z" />
<glyph unicode="C" glyph-name="C" horiz-adv-x="443" d="M242 116H418V0H164Q98 62 64 157T30 352T68 546T181 700H418V580H242Q215 549 196 480T176 348T195 216T242 116Z" />
<glyph unicode="D" glyph-name="D" horiz-adv-x="510" d="M184 116H274Q302 151 318 218T335 351Q335 508 276 580H184V116ZM48 0V700H338Q480 574 480 359T347 0H48Z" />
<glyph unicode="E" glyph-name="E" horiz-adv-x="440" d="M48 0V700H407V580H185V413H383V297H185V116H411V0H48Z" />
<glyph unicode="F" glyph-name="F" horiz-adv-x="423" d="M48 0V700H413V580H185V405H383V289H185V0H48Z" />
<glyph unicode="G" glyph-name="G" horiz-adv-x="494" d="M380 0H168Q96 66 63 157T30 347T70 544T182 700H425V580H239Q213 550 194 486T175 349T192 211T236 116H332V388H464V220Q464 82 380 0Z" />
<glyph unicode="H" glyph-name="H" horiz-adv-x="530" d="M185 0H48V700H185V418H345V700H482V0H345V290H185V0Z" />
<glyph unicode="I" glyph-name="I" horiz-adv-x="233" d="M48 0V700H185V0H48Z" />
<glyph unicode="J" glyph-name="J" horiz-adv-x="326" d="M16 116H119Q137 139 142 169T147 293V700H284V340Q284 273 282 236T269 152Q250 63 174 0H16V116Z" />
<glyph unicode="K" glyph-name="K" horiz-adv-x="463" d="M48 0V700H185V405H190L315 700H456L310 366L463 0H311L192 306H185V0H48Z" />
<glyph unicode="L" glyph-name="L" horiz-adv-x="413" d="M48 0V700H185V116H393V0H48Z" />
<glyph unicode="M" glyph-name="M" horiz-adv-x="602" d="M303 320H299H303L356 539L399 700H524L569 0H438L419 382H414L342 100H260L188 382H183L164 0H33L78 700H203L246 539L299 320H303Z" />
<glyph unicode="N" glyph-name="N" horiz-adv-x="501" d="M360 0L173 387L168 385L174 267V0H48V700H149L333 298L338 300L327 423V700H453V0H360Z" />
<glyph unicode="O" glyph-name="O" horiz-adv-x="542" d="M374 700Q444 643 478 547T512 350T479 157T374 0H168Q96 66 63 157T30 349T64 547T168 700H374ZM235 116H307Q332 145 349 210T367 349T350 486T308 580H235Q210 551 193 487T175 349T192 211T235 116Z" />
<glyph unicode="P" glyph-name="P" horiz-adv-x="491" d="M183 580V330H272Q327 375 327 462Q327 499 313 532T278 580H183ZM48 0V700H319Q387 670 426 608T466 464T425 311T304 212H183V0H48Z" />
<glyph unicode="Q" glyph-name="Q" horiz-adv-x="542" d="M374 700Q444 643 478 547T512 350T479 157T374 0H341L372 -113H244L213 0H168Q96 66 63 157T30 349T64 547T168 700H374ZM235 116H307Q332 145 349 210T367 349T350 486T308 580H235Q210 551 193 487T175
349T192 211T235 116Z" />
<glyph unicode="R" glyph-name="R" horiz-adv-x="490" d="M48 700H314Q377 679 421 623T466 484Q466 350 360 287L461 0H321L236 255H183V0H48V700ZM183 580V367H269Q286 371 306 401T327 473T310 545T275 580H183Z" />
<glyph unicode="S" glyph-name="S" horiz-adv-x="388" d="M112 700H352V580H160L157 574L317 282Q366 194 366 148Q366 47 299 0H34V116H241L244 122L64 445Q25 515 25 559Q25 663 112 700Z" />
<glyph unicode="T" glyph-name="T" horiz-adv-x="458" d="M161 580H10V700H448V580H297V0H161V580Z" />
<glyph unicode="U" glyph-name="U" horiz-adv-x="526" d="M221 116H305Q327 140 336 164T346 237V700H483V287Q483 236 481 208T468 138Q451 65 374 0H152Q75 63 58 138Q43 199 43 287V700H180V237Q180 189 189 165T221 116Z" />
<glyph unicode="V" glyph-name="V" horiz-adv-x="482" d="M477 700L335 0H147L5 700H149L204 376L238 166H244L278 376L333 700H477Z" />
<glyph unicode="W" glyph-name="W" horiz-adv-x="644" d="M393 0L323 413H319L247 0H107L10 700H144L172 494L193 262H198L235 493L266 700H379L409 493L447 262H452L472 494L500 700H634L537 0H393Z" />
<glyph unicode="X" glyph-name="X" horiz-adv-x="462" d="M158 700L229 415H233L304 700H442L346 366L449 0H307L233 300H229L155 0H13L116 366L20 700H158Z" />
<glyph unicode="Y" glyph-name="Y" horiz-adv-x="442" d="M294 0H148V233L0 700H136L198 487L219 364H223L244 487L306 700H442L294 233V0Z" />
<glyph unicode="Z" glyph-name="Z" horiz-adv-x="432" d="M406 583L169 116H407V0H24V114L260 580H24V700H406V583Z" />
<glyph unicode="[" glyph-name="bracketleft" horiz-adv-x="248" d="M45 -150V800H233V690H167V-40H233V-150H45Z" />
<glyph unicode="\" glyph-name="backslash" horiz-adv-x="385" d="M143 700L365 0H236L10 700H143Z" />
<glyph unicode="]" glyph-name="bracketright" horiz-adv-x="248" d="M203 800V-150H15V-40H81V690H15V800H203Z" />
<glyph unicode="^" glyph-name="asciicircum" horiz-adv-x="436" d="M40 362L155 700H273L396 362L275 330L214 511L162 330L40 362Z" />
<glyph unicode="_" glyph-name="underscore" horiz-adv-x="416" d="M0 -215V-101H416V-215H0Z" />
<glyph unicode="`" glyph-name="grave" horiz-adv-x="500" d="M183 727L354 627L314 546L136 624L183 727Z" />
<glyph unicode="a" glyph-name="a" horiz-adv-x="458" d="M284 231H177Q156 205 156 166T178 105H284V231ZM69 511H317Q377 475 396 429T415 302V152Q415 69 419 0H305L287 36Q248 0 177 0H114Q29 56 29 161T116 328H210Q249 328 283 304V354Q283 393 249 406H69V511Z" />
<glyph unicode="b" glyph-name="b" horiz-adv-x="474" d="M43 700H175V475Q197 495 216 503T275 511H355Q397 470 421 405T445 262Q445 95 345 0H250Q201 0 168 37L150 0H43V700ZM176 105H272Q309 168 309 258T271 406H176V105Z" />
<glyph unicode="c" glyph-name="c" horiz-adv-x="390" d="M167 260Q167 218 180 175T216 105H366V0H147Q29 94 29 260T155 511H366V406H216Q167 355 167 260Z" />
<glyph unicode="d" glyph-name="d" horiz-adv-x="473" d="M430 0H329L311 36Q289 16 270 8T211 0H124Q80 42 55 110T29 262T54 406T127 511H213Q266 511 297 483V700H430V0ZM297 406H201Q164 343 164 252T200 105H297V406Z" />
<glyph unicode="e" glyph-name="e" horiz-adv-x="454" d="M274 406H199Q184 388 175 356T165 294H308Q310 324 300 356T274 406ZM410 105V0H156Q86 47 58 116T29 257Q29 421 153 511H315Q382 462 406 407T430 296T421 200H172Q175 177 189 148T221 105H410Z" />
<glyph unicode="f" glyph-name="f" horiz-adv-x="310" d="M177 700H321V595H231Q197 574 197 511H301V406H197V0H64V406H9V511H64Q64 641 177 700Z" />
<glyph unicode="g" glyph-name="g" horiz-adv-x="469" d="M430 511V53Q430 -23 411 -69T333 -150H105V-46H276Q301 -31 301 2V61Q264 30 183 30H110Q29 127 29 255Q29 347 55 405T131 511H205Q270 511 308 469L326 511H430ZM297 406H200Q164 344 164 264T195 131H297V406Z"
/>
<glyph unicode="h" glyph-name="h" horiz-adv-x="486" d="M276 511H371Q415 455 431 399T447 259V0H314V269Q314 364 288 406H176V0H43V700H176V475Q198 495 217 503T276 511Z" />
<glyph unicode="i" glyph-name="i" horiz-adv-x="218" d="M43 0V511H175V0H43ZM43 700H175V565H43V700Z" />
<glyph unicode="j" glyph-name="j" horiz-adv-x="217" d="M43 511H174V51Q174 -25 156 -70T81 -150H-51V-45H18Q43 -30 43 3V511ZM43 700H174V555H43V700Z" />
<glyph unicode="k" glyph-name="k" horiz-adv-x="426" d="M43 0V700H176V329H190L284 511H414L296 288L415 0H283L191 224H176V0H43Z" />
<glyph unicode="l" glyph-name="l" horiz-adv-x="218" d="M175 700V0H43V700H175Z" />
<glyph unicode="m" glyph-name="m" horiz-adv-x="686" d="M265 511H336L361 476Q382 495 401 503T460 511H571Q615 455 631 399T647 259V0H514V269Q514 361 486 406H390Q412 363 412 289V0H279V269Q279 364 253 406H176V0H43V511H147L165 475Q187 495 206 503T265 511Z" />
<glyph unicode="n" glyph-name="n" horiz-adv-x="486" d="M265 511H371Q415 455 431 399T447 259V0H314V269Q314 364 288 406H176V0H43V511H147L165 475Q187 495 206 503T265 511Z" />
<glyph unicode="o" glyph-name="o" horiz-adv-x="476" d="M347 0H129Q29 93 29 254Q29 335 51 395T123 511H357Q409 451 428 395T447 254Q447 93 347 0ZM200 105H276Q312 175 312 264T275 406H200Q164 355 164 262T200 105Z" />
<glyph unicode="p" glyph-name="p" horiz-adv-x="474" d="M43 511H150L165 475Q187 495 206 503T265 511H355Q397 470 421 405T445 262Q445 95 345 0H260Q207 0 176 28V-150H43V511ZM176 105H272Q309 168 309 258T271 406H176V105Z" />
<glyph unicode="q" glyph-name="q" horiz-adv-x="473" d="M323 505H430V-150H297V28Q266 0 213 0H129Q29 95 29 262Q29 338 55 403T124 511H208Q247 511 266 503T308 475L323 505ZM201 104H297V406H202Q164 348 164 258T201 104Z" />
<glyph unicode="r" glyph-name="r" horiz-adv-x="318" d="M44 0V511H139L164 457Q204 511 265 511H304V377H177V0H44Z" />
<glyph unicode="s" glyph-name="s" horiz-adv-x="350" d="M93 511H314V406H158L253 265Q317 174 324 140Q328 124 328 107Q328 36 275 0H20V105H203L96 262Q89 273 75 293T52 325T41 344T33 359T26 376Q22 395 22 407Q22 480 93 511Z" />
<glyph unicode="t" glyph-name="t" horiz-adv-x="312" d="M73 223V406H4V511H73V650H206V511H288V406H206V191Q206 130 227 105H288V0H146Q93 49 82 106Q73 154 73 223Z" />
<glyph unicode="u" glyph-name="u" horiz-adv-x="477" d="M220 0H115Q71 56 55 112T39 252V511H172V242Q172 151 208 105H301V511H434V0H329L311 36Q273 0 220 0Z" />
<glyph unicode="v" glyph-name="v" horiz-adv-x="473" d="M329 0H144Q96 39 68 103T40 245V511H173V249Q173 161 206 105H267Q300 164 300 248V511H433V250Q433 171 405 105T329 0Z" />
<glyph unicode="w" glyph-name="w" horiz-adv-x="684" d="M276 511H408V105H478Q511 158 511 251V511H644V245Q644 76 550 0H467Q390 0 340 46Q290 0 217 0H134Q40 66 40 245V511H173V245Q173 156 205 105H276V511Z" />
<glyph unicode="x" glyph-name="x" horiz-adv-x="421" d="M212 321L274 511H413L318 262L417 0H280L211 198H207L141 0H4L103 262L8 511H145L208 321H212Z" />
<glyph unicode="y" glyph-name="y" horiz-adv-x="473" d="M40 281V511H173V280Q173 193 208 135H267Q300 192 300 280V511H433V288Q433 213 414 156T350 27L283 -82Q265 -113 245 -128T193 -150H35V-45H143Q164 -39 178 -24T207 19L213 30H144Q96 69 68 135T40 281Z" />
<glyph unicode="z" glyph-name="z" horiz-adv-x="402" d="M378 434L185 105H376V0H24V77L220 406H36V511H378V434Z" />
<glyph unicode="{" glyph-name="braceleft" horiz-adv-x="248" d="M139 330V322Q209 277 192 171L175 67Q166 18 171 -22T193 -78H238V-148H164Q20 -116 46 50L69 213Q78 261 61 291H25V361H61Q78 391 69 439L46 602Q20 768 164 800H238V730H193Q176 715 171 675T175
585L192 481Q209 375 139 330Z" />
<glyph unicode="|" glyph-name="bar" horiz-adv-x="228" d="M50 0V700H178V0H50Z" />
<glyph unicode="}" glyph-name="braceright" horiz-adv-x="248" d="M109 322V330Q39 375 56 481L73 585Q82 634 77 674T55 730H10V800H84Q228 768 202 602L179 439Q170 391 187 361H223V291H187Q170 261 179 213L202 50Q228 -116 84 -148H10V-78H55Q72 -63 77
-23T73 67L56 171Q39 277 109 322Z" />
<glyph unicode="~" glyph-name="asciitilde" horiz-adv-x="412" d="M274 224L138 272Q74 267 10 245V362Q66 388 138 391L274 343Q346 343 402 357V241Q349 225 274 224Z" />
<glyph unicode="&#xa0;" glyph-name="uni00A0" horiz-adv-x="160" />
<glyph unicode="&#xa1;" glyph-name="exclamdown" horiz-adv-x="222" d="M167 376H55V511H167V376ZM55 131L40 -189H182L167 131V270H55V131Z" />
<glyph unicode="&#xa2;" glyph-name="cent" horiz-adv-x="401" d="M178 363Q178 321 191 278T227 208H377V103H316V0H210V103H158Q40 197 40 363T166 614H210V700H316V614H377V509H227Q178 458 178 363Z" />
<glyph unicode="&#xa3;" glyph-name="sterling" horiz-adv-x="422" d="M27 290L44 395H91V479Q91 629 207 700H385V580H256Q238 562 233 545T228 493V395H385L368 290H228V116H392V0H33V83L91 116V290H27Z" />
<glyph unicode="&#xa5;" glyph-name="yen" horiz-adv-x="458" d="M302 0H156V222H56V336H123L8 700H144L206 487L227 364H231L252 487L314 700H450L334 336H404V222H302V0Z" />
<glyph unicode="&#xa6;" glyph-name="brokenbar" horiz-adv-x="228" d="M50 0V316H178V0H50ZM50 386V700H178V386H50Z" />
<glyph unicode="&#xa7;" glyph-name="section" horiz-adv-x="408" d="M236 72Q289 -16 289 -65Q289 -156 193 -196H26V-82H173L176 -77L90 91Q84 103 62 144T32 202Q7 260 7 298T20 364T46 403T83 432H153Q105 522 105 569Q105 660 201 700H368V580H221L218 575L310
392Q314 385 328 360L346 326Q383 255 383 202Q383 122 311 72H236ZM117 330L113 321L188 174H274L278 183L203 330H117Z" />
<glyph unicode="&#xa8;" glyph-name="dieresis" horiz-adv-x="500" d="M97 565V700H229V565H97ZM270 565V700H402V565H270Z" />
<glyph unicode="&#xa9;" glyph-name="copyright" horiz-adv-x="770" d="M381 265Q349 292 349 346T381 427H488V544H320Q218 475 218 350T320 149H488V265H381ZM635 649T690 556T745 350T690 144T534 0H236Q135 51 80 143T25 349T80 556T236 700H534Q635 649 690
556ZM560 134T593 203T626 349T593 494T492 597H278Q210 563 177 495T144 350T177 204T278 102H492Q560 134 593 203Z" />
<glyph unicode="&#xaa;" glyph-name="ordfeminine" horiz-adv-x="363" d="M229 300L220 359H142L133 300H10L76 700H286L353 300H229ZM185 593H177L154 448H209L185 593Z" />
<glyph unicode="&#xab;" glyph-name="guillemotleft" horiz-adv-x="497" d="M166 59L35 244L156 437L245 388L160 244L255 108L166 59ZM373 59L242 244L363 437L452 388L367 244L462 108L373 59Z" />
<glyph unicode="&#xac;" glyph-name="logicalnot" horiz-adv-x="344" d="M5 293V412H339V129H206V293H5Z" />
<glyph unicode="&#xad;" glyph-name="uni00AD" horiz-adv-x="296" d="M45 231V345H251V231H45Z" />
<glyph unicode="&#xae;" glyph-name="registered" horiz-adv-x="538" d="M177 337V602H311Q338 591 354 567T370 513Q370 465 332 437L369 337H293L264 421H251V337H177ZM251 533V477H286Q297 486 297 505T286 533H251ZM381 242H157Q93 272 59 334T25 471T59 607T157
700H381Q445 670 479 608T513 471T479 335T381 242ZM362 627H176Q142 604 124 561T106 471T124 382T176 315H362Q395 338 413 381T432 471T414 560T362 627Z" />
<glyph unicode="&#xaf;" glyph-name="overscore" horiz-adv-x="500" d="M124 569V669H376V569H124Z" />
<glyph unicode="&#xb0;" glyph-name="degree" horiz-adv-x="315" d="M111 774H205Q285 735 285 644Q285 605 264 570T205 518H111Q73 535 52 570T31 644Q31 735 111 774ZM142 598H174Q192 616 192 646T174 694H142Q124 677 124 647T142 598Z" />
<glyph unicode="&#xb1;" glyph-name="plusminus" horiz-adv-x="344" d="M339 0V97H5V0H339ZM5 290V387H339V290H5ZM123 167V511H219V167H123Z" />
<glyph unicode="&#xb4;" glyph-name="acute" horiz-adv-x="500" d="M146 627L317 727L364 624L186 546L146 627Z" />
<glyph unicode="&#xb6;" glyph-name="paragraph" horiz-adv-x="463" d="M249 150H188Q112 186 69 260T25 416Q25 605 188 700H426V115Q426 -11 396 -110H264Q294 -1 294 111V558H249V150Z" />
<glyph unicode="&#xb7;" glyph-name="middot" horiz-adv-x="192" d="M40 419H152V295H40V419Z" />
<glyph unicode="&#xb8;" glyph-name="cedilla" horiz-adv-x="500" d="M219 -132H194V-60L227 15H311L282 -60Q297 -73 304 -82Q326 -108 326 -146T308 -213T262 -260H174V-179H219Q228 -173 228 -156T219 -132Z" />
<glyph unicode="&#xba;" glyph-name="ordmasculine" horiz-adv-x="369" d="M275 300H93Q20 368 20 492T93 700H275Q349 615 349 494Q349 441 331 388T275 300ZM171 398H197Q219 437 219 502T196 600H172Q149 566 149 502T171 398Z" />
<glyph unicode="&#xbb;" glyph-name="guillemotright" horiz-adv-x="486" d="M451 244L320 59L231 108L326 244L241 388L330 437L451 244ZM245 244L114 59L25 108L120 244L35 388L124 437L245 244Z" />
<glyph unicode="&#xbf;" glyph-name="questiondown" horiz-adv-x="309" d="M242 376H120V511H242V376ZM242 270V225Q242 138 198 28Q183 -9 179 -21T174 -47Q174 -65 193 -65H279V-189H112Q66 -170 47 -133T28 -68T34 -17T47 18L91 99Q120 157 120 229V270H242Z" />
<glyph unicode="&#xc0;" glyph-name="Agrave" horiz-adv-x="490" d="M346 0L325 111H167L146 0H10L145 700H352L480 0H346ZM244 570L205 337L183 218H308L285 337L246 570H244ZM170 899L353 817L321 730L131 788L170 899Z" />
<glyph unicode="&#xc1;" glyph-name="Aacute" horiz-adv-x="490" d="M346 0L325 111H167L146 0H10L145 700H352L480 0H346ZM244 570L205 337L183 218H308L285 337L246 570H244ZM159 817L342 899L380 788L191 730L159 817Z" />
<glyph unicode="&#xc2;" glyph-name="Acircumflex" horiz-adv-x="490" d="M346 0L325 111H167L146 0H10L145 700H352L480 0H346ZM244 570L205 337L183 218H308L285 337L246 570H244ZM193 878H299L390 767L331 728L245 786L159 729L100 769L193 878Z" />
<glyph unicode="&#xc3;" glyph-name="Atilde" horiz-adv-x="490" d="M346 0L325 111H167L146 0H10L145 700H352L480 0H346ZM244 570L205 337L183 218H308L285 337L246 570H244ZM292 734L196 759Q175 759 114 736V841Q178 868 200 868L297 841Q317 841 376 855V748Q315
733 292 734Z" />
<glyph unicode="&#xc4;" glyph-name="Adieresis" horiz-adv-x="490" d="M346 0L325 111H167L146 0H10L145 700H352L480 0H346ZM244 570L205 337L183 218H308L285 337L246 570H244ZM93 730V865H225V730H93ZM266 730V865H398V730H266Z" />
<glyph unicode="&#xc5;" glyph-name="Aring" horiz-adv-x="490" d="M202 892H292Q372 853 372 767Q372 729 352 698L480 0H346L325 111H167L146 0H10L144 694Q122 726 122 767Q122 853 202 892ZM244 570L205 337L183 218H308L285 337L246 570H244ZM228 719H265Q286
740 286 769T265 817H228Q208 797 208 768T228 719Z" />
<glyph unicode="&#xc6;" glyph-name="AE" horiz-adv-x="675" d="M5 0L186 700H642V580H420V413H618V297H420V116H646V0H283V170H181L141 0H5ZM277 580L206 278H283V580H277Z" />
<glyph unicode="&#xc7;" glyph-name="Ccedilla" horiz-adv-x="443" d="M224 -132H199V-60L225 0H164Q98 62 64 157T30 352T68 546T181 700H418V580H242Q215 549 196 480T176 348T195 216T242 116H418V0H310L287 -60Q302 -73 309 -82Q331 -108 331 -146T313 -213T267
-260H179V-179H224Q233 -173 233 -156T224 -132Z" />
<glyph unicode="&#xc8;" glyph-name="Egrave" horiz-adv-x="440" d="M48 700V0H411V116H185V297H383V413H185V580H407V700H48ZM159 899L342 817L310 730L120 788L159 899Z" />
<glyph unicode="&#xc9;" glyph-name="Eacute" horiz-adv-x="440" d="M48 700V0H411V116H185V297H383V413H185V580H407V700H48ZM128 817L311 899L349 788L160 730L128 817Z" />
<glyph unicode="&#xca;" glyph-name="Ecircumflex" horiz-adv-x="440" d="M48 700V0H411V116H185V297H383V413H185V580H407V700H48ZM178 878H284L375 767L316 728L230 786L144 729L85 769L178 878Z" />
<glyph unicode="&#xcb;" glyph-name="Edieresis" horiz-adv-x="440" d="M48 700V0H411V116H185V297H383V413H185V580H407V700H48ZM75 730V865H207V730H75ZM248 730V865H380V730H248Z" />
<glyph unicode="&#xcc;" glyph-name="Igrave" horiz-adv-x="233" d="M48 700V0H185V700H48ZM12 899L195 817L163 730L-27 788L12 899Z" />
<glyph unicode="&#xcd;" glyph-name="Iacute" horiz-adv-x="233" d="M48 700V0H185V700H48ZM30 817L213 899L251 788L62 730L30 817Z" />
<glyph unicode="&#xce;" glyph-name="Icircumflex" horiz-adv-x="233" d="M48 700V0H185V700H48ZM64 878H170L261 767L202 728L116 786L30 729L-29 769L64 878Z" />
<glyph unicode="&#xcf;" glyph-name="Idieresis" horiz-adv-x="233" d="M48 700V0H185V700H48ZM-36 730V865H96V730H-36ZM137 730V865H269V730H137Z" />
<glyph unicode="&#xd0;" glyph-name="Eth" horiz-adv-x="522" d="M13 299V405H60V700H350Q492 574 492 359T359 0H60V299H13ZM196 116H286Q314 151 330 218T347 351Q347 508 288 580H196V405H283V299H196V116Z" />
<glyph unicode="&#xd1;" glyph-name="Ntilde" horiz-adv-x="501" d="M360 0L173 387L168 385L174 267V0H48V700H149L333 298L338 300L327 423V700H453V0H360ZM292 734L196 759Q175 759 114 736V841Q178 868 200 868L297 841Q317 841 376 855V748Q315 733 292 734Z" />
<glyph unicode="&#xd2;" glyph-name="Ograve" horiz-adv-x="542" d="M176 899L359 817L327 730L137 788L176 899ZM374 700Q444 643 478 547T512 350T479 157T374 0H168Q96 66 63 157T30 349T64 547T168 700H374ZM235 116H307Q332 145 349 210T367 349T350 486T308
580H235Q210 551 193 487T175 349T192 211T235 116Z" />
<glyph unicode="&#xd3;" glyph-name="Oacute" horiz-adv-x="542" d="M175 817L358 899L396 788L207 730L175 817ZM374 700Q444 643 478 547T512 350T479 157T374 0H168Q96 66 63 157T30 349T64 547T168 700H374ZM235 116H307Q332 145 349 210T367 349T350 486T308
580H235Q210 551 193 487T175 349T192 211T235 116Z" />
<glyph unicode="&#xd4;" glyph-name="Ocircumflex" horiz-adv-x="542" d="M219 878H325L416 767L357 728L271 786L185 729L126 769L219 878ZM374 700Q444 643 478 547T512 350T479 157T374 0H168Q96 66 63 157T30 349T64 547T168 700H374ZM235 116H307Q332 145
349 210T367 349T350 486T308 580H235Q210 551 193 487T175 349T192 211T235 116Z" />
<glyph unicode="&#xd5;" glyph-name="Otilde" horiz-adv-x="542" d="M318 734L222 759Q201 759 140 736V841Q204 868 226 868L323 841Q343 841 402 855V748Q341 733 318 734ZM374 700Q444 643 478 547T512 350T479 157T374 0H168Q96 66 63 157T30 349T64 547T168
700H374ZM235 116H307Q332 145 349 210T367 349T350 486T308 580H235Q210 551 193 487T175 349T192 211T235 116Z" />
<glyph unicode="&#xd6;" glyph-name="Odieresis" horiz-adv-x="542" d="M119 730V865H251V730H119ZM292 730V865H424V730H292ZM374 700Q444 643 478 547T512 350T479 157T374 0H168Q96 66 63 157T30 349T64 547T168 700H374ZM235 116H307Q332 145 349 210T367
349T350 486T308 580H235Q210 551 193 487T175 349T192 211T235 116Z" />
<glyph unicode="&#xd7;" glyph-name="multiply" horiz-adv-x="321" d="M78 186L9 255L245 491L314 422L78 186ZM248 183L5 426L73 494L316 251L248 183Z" />
<glyph unicode="&#xd8;" glyph-name="Oslash" horiz-adv-x="542" d="M99 -50L129 41Q30 164 30 340Q30 451 64 547T168 700H312L329 750H452L420 653Q512 535 512 340Q512 248 479 157T374 0H238L222 -50H99ZM235 116H307Q332 145 349 210T367 349T350 486T308
580H235Q210 551 193 487T175 349T192 211T235 116Z" />
<glyph unicode="&#xd9;" glyph-name="Ugrave" horiz-adv-x="526" d="M221 116H305Q327 140 336 164T346 237V700H483V287Q483 236 481 208T468 138Q451 65 374 0H152Q75 63 58 138Q43 199 43 287V700H180V237Q180 189 189 165T221 116ZM188 899L371 817L339 730L149
788L188 899Z" />
<glyph unicode="&#xda;" glyph-name="Uacute" horiz-adv-x="526" d="M221 116H305Q327 140 336 164T346 237V700H483V287Q483 236 481 208T468 138Q451 65 374 0H152Q75 63 58 138Q43 199 43 287V700H180V237Q180 189 189 165T221 116ZM177 817L360 899L398 788L209
730L177 817Z" />
<glyph unicode="&#xdb;" glyph-name="Ucircumflex" horiz-adv-x="526" d="M221 116H305Q327 140 336 164T346 237V700H483V287Q483 236 481 208T468 138Q451 65 374 0H152Q75 63 58 138Q43 199 43 287V700H180V237Q180 189 189 165T221 116ZM211 878H317L408 767L349
728L263 786L177 729L118 769L211 878Z" />
<glyph unicode="&#xdc;" glyph-name="Udieresis" horiz-adv-x="526" d="M221 116H305Q327 140 336 164T346 237V700H483V287Q483 236 481 208T468 138Q451 65 374 0H152Q75 63 58 138Q43 199 43 287V700H180V237Q180 189 189 165T221 116ZM111 730V865H243V730H111ZM284
730V865H416V730H284Z" />
<glyph unicode="&#xdd;" glyph-name="Yacute" horiz-adv-x="442" d="M294 0H148V233L0 700H136L198 487L219 364H223L244 487L306 700H442L294 233V0ZM146 817L329 899L367 788L178 730L146 817Z" />
<glyph unicode="&#xde;" glyph-name="Thorn" horiz-adv-x="491" d="M48 0V700H183V610H319Q387 580 426 518T466 374T425 221T304 122H183V0H48ZM183 488V239H272Q327 284 327 368Q327 405 312 439T278 488H183Z" />
<glyph unicode="&#xdf;" glyph-name="germandbls" horiz-adv-x="508" d="M373 198Q373 270 333 292H254V445Q254 542 226 595H193Q166 541 166 445V0H33V413Q33 514 52 582T138 700H282Q355 639 372 564Q386 500 386 413V395Q508 355 508 197Q508 145 478 87T392
0H215V105H333Q349 116 361 141T373 198Z" />
<glyph unicode="&#xe0;" glyph-name="agrave" horiz-adv-x="458" d="M284 231H177Q156 205 156 166T178 105H284V231ZM69 511H317Q377 475 396 429T415 302V152Q415 69 419 0H305L287 36Q248 0 177 0H114Q29 56 29 161T116 328H210Q249 328 283 304V354Q283 393
249 406H69V511ZM400 727L571 627L531 546L353 624L400 727Z" />
<glyph unicode="&#xe1;" glyph-name="aacute" horiz-adv-x="458" d="M284 231H177Q156 205 156 166T178 105H284V231ZM69 511H317Q377 475 396 429T415 302V152Q415 69 419 0H305L287 36Q248 0 177 0H114Q29 56 29 161T116 328H210Q249 328 283 304V354Q283 393
249 406H69V511ZM382 627L553 727L600 624L422 546L382 627Z" />
<glyph unicode="&#xe2;" glyph-name="acircumflex" horiz-adv-x="458" d="M284 231H177Q156 205 156 166T178 105H284V231ZM69 511H317Q377 475 396 429T415 302V152Q415 69 419 0H305L287 36Q248 0 177 0H114Q29 56 29 161T116 328H210Q249 328 283 304V354Q283
393 249 406H69V511ZM417 718H535L616 582L552 549L476 626L400 549L337 582L417 718Z" />
<glyph unicode="&#xe3;" glyph-name="atilde" horiz-adv-x="458" d="M284 231H177Q156 205 156 166T178 105H284V231ZM69 511H317Q377 475 396 429T415 302V152Q415 69 419 0H305L287 36Q248 0 177 0H114Q29 56 29 161T116 328H210Q249 328 283 304V354Q283 393
249 406H69V511ZM267 557L171 582Q150 582 89 559V659Q153 686 175 686L272 659Q292 659 351 673V571Q290 556 267 557Z" />
<glyph unicode="&#xe4;" glyph-name="adieresis" horiz-adv-x="458" d="M284 231H177Q156 205 156 166T178 105H284V231ZM69 511H317Q377 475 396 429T415 302V152Q415 69 419 0H305L287 36Q248 0 177 0H114Q29 56 29 161T116 328H210Q249 328 283 304V354Q283
393 249 406H69V511ZM68 565V700H200V565H68ZM241 565V700H373V565H241Z" />
<glyph unicode="&#xe5;" glyph-name="aring" horiz-adv-x="458" d="M284 231H177Q156 205 156 166T178 105H284V231ZM69 511H317Q377 475 396 429T415 302V152Q415 69 419 0H305L287 36Q248 0 177 0H114Q29 56 29 161T116 328H210Q249 328 283 304V354Q283 393
249 406H69V511ZM431 794H521Q601 755 601 669Q601 631 580 599T521 548H431Q393 566 372 598T351 669Q351 755 431 794ZM457 621H494Q515 642 515 671T494 719H457Q437 699 437 670T457 621Z" />
<glyph unicode="&#xe6;" glyph-name="ae" horiz-adv-x="708" d="M664 104V0H410Q390 13 364 39Q320 0 257 0H114Q29 56 29 161T116 328H210Q249 328 283 304V354Q283 393 249 406H69V511H308Q341 497 362 467Q378 485 412 511H569Q636 462 660 407T684 296T675
200H426Q429 177 443 147T475 104H664ZM284 231H177Q156 205 156 166T178 105H317Q287 164 284 231ZM528 406H453Q438 388 429 356T419 294H562Q562 321 553 355T528 406Z" />
<glyph unicode="&#xe7;" glyph-name="ccedilla" horiz-adv-x="390" d="M206 -132H181V-60L207 0H147Q29 94 29 260T155 511H366V406H216Q167 355 167 260Q167 218 180 175T216 105H366V0H292L269 -60Q284 -73 291 -82Q313 -108 313 -146T295 -213T249 -260H161V-179H206Q215
-173 215 -156T206 -132Z" />
<glyph unicode="&#xe8;" glyph-name="egrave" horiz-adv-x="454" d="M274 406H199Q184 388 175 356T165 294H308Q310 324 300 356T274 406ZM410 105V0H156Q86 47 58 116T29 257Q29 421 153 511H315Q382 462 406 407T430 296T421 200H172Q175 177 189 148T221 105H410ZM403
727L574 627L534 546L356 624L403 727Z" />
<glyph unicode="&#xe9;" glyph-name="eacute" horiz-adv-x="454" d="M274 406H199Q184 388 175 356T165 294H308Q310 324 300 356T274 406ZM410 105V0H156Q86 47 58 116T29 257Q29 421 153 511H315Q382 462 406 407T430 296T421 200H172Q175 177 189 148T221 105H410ZM149
627L320 727L367 624L189 546L149 627Z" />
<glyph unicode="&#xea;" glyph-name="ecircumflex" horiz-adv-x="454" d="M274 406H199Q184 388 175 356T165 294H308Q310 324 300 356T274 406ZM410 105V0H156Q86 47 58 116T29 257Q29 421 153 511H315Q382 462 406 407T430 296T421 200H172Q175 177 189 148T221
105H410ZM174 718H292L373 582L309 549L233 626L157 549L94 582L174 718Z" />
<glyph unicode="&#xeb;" glyph-name="edieresis" horiz-adv-x="454" d="M274 406H199Q184 388 175 356T165 294H308Q310 324 300 356T274 406ZM410 105V0H156Q86 47 58 116T29 257Q29 421 153 511H315Q382 462 406 407T430 296T421 200H172Q175 177 189 148T221
105H410ZM337 565V700H469V565H337ZM510 565V700H642V565H510Z" />
<glyph unicode="&#xec;" glyph-name="igrave" horiz-adv-x="218" d="M43 0V511H175V0H43ZM7 727L178 627L138 546L-40 624L7 727Z" />
<glyph unicode="&#xed;" glyph-name="iacute" horiz-adv-x="218" d="M43 511V0H175V511H43ZM8 627L179 727L226 624L48 546L8 627Z" />
<glyph unicode="&#xee;" glyph-name="icircumflex" horiz-adv-x="218" d="M43 0V511H175V0H43ZM50 718H168L249 582L185 549L109 626L33 549L-30 582L50 718Z" />
<glyph unicode="&#xef;" glyph-name="idieresis" horiz-adv-x="218" d="M43 511V0H175V511H43ZM-51 565V700H81V565H-51ZM122 565V700H254V565H122Z" />
<glyph unicode="&#xf0;" glyph-name="eth" horiz-adv-x="472" d="M156 555V643H229Q225 649 215 669T198 700H324L353 643H449V555H393Q445 427 445 304T419 116T347 0H124Q80 42 55 110T29 262T54 406T127 511H213Q261 511 297 481Q285 518 269 555H156ZM304
406H201Q164 343 164 252T200 105H279Q312 180 312 297Q312 360 304 406Z" />
<glyph unicode="&#xf1;" glyph-name="ntilde" horiz-adv-x="486" d="M265 511H371Q415 455 431 399T447 259V0H314V269Q314 364 288 406H176V0H43V511H147L165 475Q187 495 206 503T265 511ZM273 557L177 582Q156 582 95 559V659Q159 686 181 686L278 659Q298
659 357 673V571Q296 556 273 557Z" />
<glyph unicode="&#xf2;" glyph-name="ograve" horiz-adv-x="476" d="M347 0H129Q29 93 29 254Q29 335 51 395T123 511H357Q409 451 428 395T447 254Q447 93 347 0ZM200 105H276Q312 175 312 264T275 406H200Q164 355 164 262T200 105ZM424 727L595 627L555 546L377
624L424 727Z" />
<glyph unicode="&#xf3;" glyph-name="oacute" horiz-adv-x="476" d="M347 0H129Q29 93 29 254Q29 335 51 395T123 511H357Q409 451 428 395T447 254Q447 93 347 0ZM200 105H276Q312 175 312 264T275 406H200Q164 355 164 262T200 105ZM396 627L567 727L614 624L436
546L396 627Z" />
<glyph unicode="&#xf4;" glyph-name="ocircumflex" horiz-adv-x="476" d="M347 0H129Q29 93 29 254Q29 335 51 395T123 511H357Q409 451 428 395T447 254Q447 93 347 0ZM200 105H276Q312 175 312 264T275 406H200Q164 355 164 262T200 105ZM431 718H549L630 582L566
549L490 626L414 549L351 582L431 718Z" />
<glyph unicode="&#xf5;" glyph-name="otilde" horiz-adv-x="476" d="M347 0H129Q29 93 29 254Q29 335 51 395T123 511H357Q409 451 428 395T447 254Q447 93 347 0ZM200 105H276Q312 175 312 264T275 406H200Q164 355 164 262T200 105ZM281 557L185 582Q164 582
103 559V659Q167 686 189 686L286 659Q306 659 365 673V571Q304 556 281 557Z" />
<glyph unicode="&#xf6;" glyph-name="odieresis" horiz-adv-x="476" d="M129 0H347Q447 93 447 254Q447 338 428 394T357 511H123Q74 455 52 395T29 254Q29 93 129 0ZM276 105H200Q164 168 164 261T200 406H275Q312 353 312 264T276 105ZM82 565V700H214V565H82ZM255
565V700H387V565H255Z" />
<glyph unicode="&#xf7;" glyph-name="divide" horiz-adv-x="344" d="M142 570H202Q249 546 249 491Q249 472 236 449T202 416H142Q121 426 108 448T95 491Q95 547 142 570ZM142 259H202Q249 236 249 180Q249 161 236 138T202 105H142Q121 115 108 137T95 180Q95
236 142 259ZM339 289V386H5V289H339Z" />
<glyph unicode="&#xf8;" glyph-name="oslash" horiz-adv-x="476" d="M267 511L292 583H415L381 482Q418 431 432 380T447 254Q447 93 347 0H212L187 -77H64L100 31Q29 120 29 254Q29 335 51 395T123 511H267ZM200 105H276Q312 175 312 264T275 406H200Q164 355
164 262T200 105Z" />
<glyph unicode="&#xf9;" glyph-name="ugrave" horiz-adv-x="477" d="M220 0H115Q71 56 55 112T39 252V511H172V242Q172 151 208 105H301V511H434V0H329L311 36Q273 0 220 0ZM404 727L575 627L535 546L357 624L404 727Z" />
<glyph unicode="&#xfa;" glyph-name="uacute" horiz-adv-x="477" d="M220 0H115Q71 56 55 112T39 252V511H172V242Q172 151 208 105H301V511H434V0H329L311 36Q273 0 220 0ZM162 627L333 727L380 624L202 546L162 627Z" />
<glyph unicode="&#xfb;" glyph-name="ucircumflex" horiz-adv-x="477" d="M220 0H115Q71 56 55 112T39 252V511H172V242Q172 151 208 105H301V511H434V0H329L311 36Q273 0 220 0ZM431 718H549L630 582L566 549L490 626L414 549L351 582L431 718Z" />
<glyph unicode="&#xfc;" glyph-name="udieresis" horiz-adv-x="477" d="M220 0H115Q71 56 55 112T39 252V511H172V242Q172 151 208 105H301V511H434V0H329L311 36Q273 0 220 0ZM82 565V700H214V565H82ZM255 565V700H387V565H255Z" />
<glyph unicode="&#xfd;" glyph-name="yacute" horiz-adv-x="473" d="M40 281V511H173V280Q173 193 208 135H267Q300 192 300 280V511H433V288Q433 213 414 156T350 27L283 -82Q265 -113 245 -128T193 -150H35V-45H143Q164 -39 178 -24T207 19L213 30H144Q96 69
68 135T40 281ZM165 627L336 727L383 624L205 546L165 627Z" />
<glyph unicode="&#xfe;" glyph-name="thorn" horiz-adv-x="474" d="M43 700H174V485Q206 511 265 511H355Q445 423 445 259T345 0H260Q205 0 174 28V-150H43V700ZM174 105H272Q309 168 309 258T271 406H174V105Z" />
<glyph unicode="&#xff;" glyph-name="ydieresis" horiz-adv-x="473" d="M40 281V511H173V280Q173 193 208 135H267Q300 192 300 280V511H433V288Q433 213 414 156T350 27L283 -82Q265 -113 245 -128T193 -150H35V-45H143Q164 -39 178 -24T207 19L213 30H144Q96
69 68 135T40 281ZM336 565V700H468V565H336ZM509 565V700H641V565H509Z" />
<glyph unicode="&#x2013;" glyph-name="endash" horiz-adv-x="416" d="M0 231V345H416V231H0Z" />
<glyph unicode="&#x2014;" glyph-name="emdash" horiz-adv-x="793" d="M0 231V345H793V231H0Z" />
<glyph unicode="&#x2018;" glyph-name="quoteleft" horiz-adv-x="216" d="M174 622V487H40V522Q40 604 52 644T119 760L176 728Q131 651 124 622H174Z" />
<glyph unicode="&#x2019;" glyph-name="quoteright" horiz-adv-x="216" d="M42 616V751H176V716Q176 634 164 594T97 478L40 510Q85 587 92 616H42Z" />
<glyph unicode="&#x201a;" glyph-name="quotesinglbase" horiz-adv-x="216" d="M42 0V135H176V114Q176 22 164 -20T97 -138L40 -106Q45 -99 54 -82Q54 -82 68 -57Q73 -48 75 -45T80 -34T85 -23T88 -12T92 0H42Z" />
<glyph unicode="&#x201c;" glyph-name="quotedblleft" horiz-adv-x="398" d="M174 622V487H40V522Q40 604 52 644T119 760L176 728Q131 651 124 622H174ZM356 622V487H222V522Q222 604 234 644T301 760L358 728Q313 651 306 622H356Z" />
<glyph unicode="&#x201d;" glyph-name="quotedblright" horiz-adv-x="398" d="M224 617V752H358V717Q358 635 346 595T279 479L222 511Q267 588 274 617H224ZM42 617V752H176V717Q176 635 164 595T97 479L40 511Q85 588 92 617H42Z" />
<glyph unicode="&#x201e;" glyph-name="quotedblbase" horiz-adv-x="398" d="M224 0V135H358V100Q358 18 346 -22T279 -138L222 -106Q267 -29 274 0H224ZM42 0V135H176V100Q176 18 164 -22T97 -138L40 -106Q45 -99 54 -82Q54 -82 68 -57Q73 -48 75 -45T80 -34T85
-23T88 -12T92 0H42Z" />
<glyph unicode="&#x2022;" glyph-name="bullet" horiz-adv-x="263" d="M40 437H223V233H40V437Z" />
<glyph unicode="&#x2039;" glyph-name="guilsinglleft" horiz-adv-x="280" d="M166 59L35 244L156 437L245 388L160 244L255 108L166 59Z" />
<glyph unicode="&#x203a;" glyph-name="guilsinglright" horiz-adv-x="280" d="M245 244L114 59L25 108L120 244L35 388L124 437L245 244Z" />
</font>
</defs>
</svg>
