<?xml version="1.0" standalone="no"?>
<!DOCTYPE svg PUBLIC "-//W3C//DTD SVG 1.1//EN" "http://www.w3.org/Graphics/SVG/1.1/DTD/svg11.dtd">
<svg xmlns="http://www.w3.org/2000/svg">
<defs >
<font id="Cinzel" horiz-adv-x="649" ><font-face
    font-family="Cinzel Black"
    units-per-em="1000"
    panose-1="0 0 10 0 0 0 0 0 0 0"
    ascent="971"
    descent="-372"
    alphabetic="0" />
<glyph unicode=" " glyph-name="space" horiz-adv-x="250" />
<glyph unicode="!" glyph-name="exclam" horiz-adv-x="295" d="M227 363L182 230H112L67 363L45 702H250L227 363ZM183 -14T146 -14T82 12T55 76T81 139T145 166T209 140T235 76T209 13Z" />
<glyph unicode="&quot;" glyph-name="quotedbl" horiz-adv-x="394" d="M30 505Q64 590 64 643Q64 669 59 700L191 714Q191 710 191 699T185 661T165 602T119 541T47 500L30 505ZM204 505Q238 590 238 643Q238 669 233 700L364 714Q364 710 364 699T359 661T338
602T293 541T221 500L204 505Z" />
<glyph unicode="#" glyph-name="numbersign" horiz-adv-x="600" d="M546 437H428L400 277H502V217H389L351 0H289L327 217H189L151 0H89L127 217H20V277H138L166 437H64V497H177L212 700H274L239 497H377L412 700H474L439 497H546V437ZM338 277L366 437H228L200 277H338Z" />
<glyph unicode="$" glyph-name="dollar" horiz-adv-x="615" d="M596 113T521 54T321 -13L314 -102L266 -99L273 -14Q192 -13 132 5T44 51Q35 73 35 98T39 148Q50 207 76 240H85Q84 234 84 227Q84 159 135 102T277 37L294 264L174 320Q105 351 74 407Q49 451 49
504Q49 612 122 668Q183 714 284 714Q301 714 328 713L334 788L382 787L376 710Q418 707 453 704H531L509 541H499Q499 616 426 648Q402 658 373 662L357 457L480 400Q596 347 596 230ZM204 545T225 526T293 487L310 478L324 664Q252 659 221 621Q204 600 204 573ZM341
243L325 37Q382 42 412 69T443 131T419 191T341 243Z" />
<glyph unicode="%" glyph-name="percent" horiz-adv-x="777" d="M363 642Q379 610 379 582T377 537Q368 454 313 408T172 361T48 410Q20 447 20 505Q20 614 89 670Q144 714 229 714H230Q232 714 249 714T294 707T336 691Q381 665 419 665Q461 665 523 698Q539
706 544 709L583 692L211 -19L166 0L512 653Q475 629 437 629T363 642ZM156 401T181 401T224 437T247 522T253 598Q253 674 225 674T177 611Q156 543 156 472ZM450 295Q505 339 586 339T703 296T739 187Q739 86 679 36T533 -14T409 35Q381 72 381 129Q381 238 450
295ZM510 94Q510 26 537 26Q561 26 578 61T602 146T608 223Q608 299 579 299Q558 299 542 263T518 175T510 94Z" />
<glyph unicode="&amp;" glyph-name="ampersand" horiz-adv-x="911" d="M921 0Q836 -10 756 -10T601 27Q520 -10 401 -10Q237 -10 134 44Q25 102 25 211Q25 319 127 374Q154 388 184 397Q141 466 141 523T165 618T229 675Q307 714 410 714Q481 714 541 697T625
643L578 480H569Q567 664 453 664Q391 664 364 615Q351 592 351 563Q351 511 391 463T527 331L661 216Q669 251 669 290T650 372T593 415Q592 415 592 415H577V425H833V415H819Q805 415 798 408T789 392T786 371Q774 230 733 152Q865 37 920 11L921 0ZM354 64T390
52T468 40T548 60Q505 91 439 146T367 205Q292 267 245 317Q237 292 237 273Q237 201 262 156T320 88Z" />
<glyph unicode="&apos;" glyph-name="quotesingle" horiz-adv-x="220" d="M30 505Q64 590 64 643Q64 669 59 700L191 714Q191 710 191 699T185 661T165 602T119 541T47 500L30 505Z" />
<glyph unicode="(" glyph-name="parenleft" horiz-adv-x="478" d="M290 354Q290 19 447 -91L441 -100Q351 -79 283 -35T173 67Q90 183 90 334Q90 495 173 601Q261 712 443 732L449 724Q290 648 290 354Z" />
<glyph unicode=")" glyph-name="parenright" horiz-adv-x="478" d="M32 -91Q189 19 189 354Q189 648 30 724L36 732Q218 712 305 601Q389 495 389 334Q389 183 306 67Q264 9 196 -35T38 -100L32 -91Z" />
<glyph unicode="*" glyph-name="asterisk" horiz-adv-x="390" d="M202 605L269 574L328 516L293 474L242 454L204 527L195 600L187 527L150 454L99 474L64 516L122 574L188 605L116 591L35 604L38 658L68 704L141 667L191 614L156 678L142 759L195 773L248 759L236
678L200 613L250 667L323 705L353 659L356 604L274 591L202 605Z" />
<glyph unicode="+" glyph-name="plus" horiz-adv-x="481" d="M442 342V277H273V109H208V277H40V342H208V511H273V342H442Z" />
<glyph unicode="," glyph-name="comma" horiz-adv-x="260" d="M41 -116Q71 -103 82 -73Q86 -61 86 -52Q86 -20 61 9T35 76Q35 125 68 149Q90 166 111 166Q184 166 210 108Q225 71 225 35T209 -34Q175 -104 113 -125Q92 -132 75 -132T45 -129L41 -116Z" />
<glyph unicode="-" glyph-name="hyphen" horiz-adv-x="380" d="M30 292L40 332H340L350 292L340 251H40L30 292Z" />
<glyph unicode="." glyph-name="period" horiz-adv-x="250" d="M162 -14T125 -14T62 12T35 76T61 139T125 166T188 140T215 76T189 13Z" />
<glyph unicode="/" glyph-name="slash" horiz-adv-x="439" d="M10 14L371 723L430 696L69 -14L10 14Z" />
<glyph unicode="0" glyph-name="zero" horiz-adv-x="690" d="M200 714T345 714T572 615T655 350T573 85T345 -14T118 85T35 350T117 615ZM345 664Q294 664 270 588T245 350Q245 85 314 44Q328 36 345 36Q397 36 421 112T445 350Q445 590 390 645Q371 664 345 664Z" />
<glyph unicode="1" glyph-name="one" horiz-adv-x="424" d="M48 640H30V650Q90 653 175 669T308 714H318V64Q318 41 334 26T373 10H394V0H37L38 10H59Q81 10 97 26T114 64V571Q114 640 48 640Z" />
<glyph unicode="2" glyph-name="two" horiz-adv-x="658" d="M308 714Q373 714 437 690T540 619T578 509Q578 420 504 342Q446 279 359 222Q342 211 318 196T287 176H477Q522 176 555 201T614 281H624L556 0H36V10Q63 43 108 97T184 187T252 273T310 362Q363 454
363 530Q363 595 328 632Q298 664 247 664Q241 664 235 664Q106 653 107 456H97L30 636Q120 714 308 714Z" />
<glyph unicode="3" glyph-name="three" horiz-adv-x="602" d="M279 712Q399 712 466 667T533 540Q533 475 493 436T398 395Q460 383 508 341Q562 292 562 204T511 51Q415 -70 222 -70Q124 -70 39 -32L41 -22Q46 -22 52 -22Q127 -22 194 5T304 89T347 216Q347 260
331 293T286 346Q232 383 162 384L164 394Q167 394 170 394Q236 394 282 440T328 548Q328 614 287 642Q259 663 220 663Q149 663 120 610Q97 567 97 485Q97 477 97 468H87L30 641Q69 673 134 692T279 712Z" />
<glyph unicode="4" glyph-name="four" horiz-adv-x="643" d="M511 189V63Q511 41 527 26T566 10H577V0H239L240 10H250Q273 10 289 25T306 62V189H-15V199L501 714H511V294H554Q580 294 594 303T619 334H629L598 189H511ZM306 294V441L154 294H306Z" />
<glyph unicode="5" glyph-name="five" horiz-adv-x="591" d="M152 424Q223 440 276 440T369 429Q456 405 498 346T541 208Q541 140 512 88T439 3Q336 -73 195 -73Q89 -73 10 -31L12 -21Q16 -21 30 -21T79 -16T155 4T233 41T294 98Q322 138 322 186T289 267Q253
301 192 301T59 274L50 280L133 664L431 689Q485 689 510 739H520L478 532L171 507L152 424Z" />
<glyph unicode="6" glyph-name="six" horiz-adv-x="675" d="M309 400T334 419T388 445T435 452Q489 452 522 436T581 394Q635 341 635 240Q635 128 563 58Q487 -15 336 -15Q40 -15 40 315Q40 533 168 647Q273 741 461 741Q508 741 559 734L563 727Q473 699 434
676T373 637T335 600T307 561T288 516T276 469T268 415Q265 365 265 303T266 204T273 136T288 84Q308 45 349 45Q409 45 423 118Q430 155 430 226Q430 355 380 376Q367 381 349 381T305 365L298 373Q309 400 334 419Z" />
<glyph unicode="7" glyph-name="seven" horiz-adv-x="572" d="M90 525Q61 525 44 511T15 465H5L33 698H563L435 403Q406 337 363 208T298 0H128Q159 50 237 186T358 414L410 525H90Z" />
<glyph unicode="8" glyph-name="eight" horiz-adv-x="636" d="M611 200Q611 97 527 42T298 -14Q96 -14 42 87Q25 119 25 159Q25 226 64 266T160 326Q68 398 68 500T137 658T311 714T489 666T562 544Q562 493 525 459T430 410Q547 349 578 306Q611 260 611 200ZM273
663T253 640T233 578T261 512T372 441Q396 486 396 547Q396 601 373 631Q349 663 311 663ZM322 35Q361 35 394 58T427 117T393 185T294 249T217 289Q194 248 194 184T223 81Q257 35 322 35Z" />
<glyph unicode="9" glyph-name="nine" horiz-adv-x="675" d="M366 296T341 277T287 251T240 244Q186 244 153 260T94 302Q40 355 40 457Q40 594 144 662Q218 711 339 711Q635 711 635 381Q635 163 506 49Q402 -44 214 -44Q167 -44 116 -38L112 -31Q202 -3 241
20T302 59T340 96T368 135T387 180T399 227T406 281Q410 331 410 400T407 512T395 587T369 635T328 650T288 641T265 617T252 577Q245 541 245 470Q245 341 295 320Q308 315 326 315T370 331L377 323Q366 296 341 277Z" />
<glyph unicode=":" glyph-name="colon" horiz-adv-x="250" d="M162 369T125 369T62 395T35 458T61 522T125 549T188 523T215 459T189 395ZM162 -14T125 -14T62 12T35 76T61 139T125 166T188 140T215 76T189 13Z" />
<glyph unicode=";" glyph-name="semicolon" horiz-adv-x="260" d="M162 397T125 397T62 423T35 487T61 551T125 577T188 551T215 488T189 424ZM41 -116Q71 -103 82 -73Q86 -61 86 -52Q86 -20 61 9T35 76Q35 125 68 149Q90 166 111 166Q184 166 210 108Q225 71
225 35T209 -34Q175 -104 113 -125Q92 -132 75 -132T45 -129L41 -116Z" />
<glyph unicode="&lt;" glyph-name="less" horiz-adv-x="501" d="M442 526V455L133 310L442 164V93L40 280V339L442 526Z" />
<glyph unicode="=" glyph-name="equal" horiz-adv-x="481" d="M40 354V419H442V354H40ZM40 179V244H442V179H40Z" />
<glyph unicode="&gt;" glyph-name="greater" horiz-adv-x="481" d="M40 526L442 339V280L40 93V164L349 310L40 455V526Z" />
<glyph unicode="?" glyph-name="question" horiz-adv-x="493" d="M248 539Q248 664 157 664Q60 664 60 510H50L0 625Q23 665 81 689T221 714Q338 714 400 668T463 537Q463 479 431 438T316 337Q264 299 258 278Q250 251 265 221L256 215Q191 232 166 281Q155 302
155 317T156 347T169 379T193 412T219 442Q248 478 248 539ZM315 39T289 13T226 -14T162 12T135 76T161 139T225 166T289 140T315 76Z" />
<glyph unicode="@" glyph-name="at" horiz-adv-x="998" d="M84 114Q20 169 20 267Q20 325 47 395Q88 495 177 568T385 673Q463 694 525 694Q778 694 891 563Q974 466 974 327Q974 162 875 42T607 -115Q558 -126 503 -126Q371 -126 208 -63L204 -53Q311 -97 406
-97Q532 -97 631 -34Q713 20 762 113Q820 220 820 341T776 535Q726 619 625 642Q586 649 564 649T537 649Q450 647 355 582Q262 518 202 390Q150 282 150 199Q150 156 166 138T200 118T231 122T257 135T281 155T305 179T327 207T349 236Q374 272 389 291L516 464Q562
521 571 541H577L661 137Q670 90 701 90H706L704 83H466L467 90H474Q489 90 502 102T516 123T515 137L507 190H371Q323 128 286 101Q246 73 189 73T84 114ZM483 346L398 225H502L483 346Z" />
<glyph unicode="A" glyph-name="A" horiz-adv-x="720" d="M752 10H760V0H381V10H390Q412 10 423 23T434 48T429 73L390 166H176L136 73Q131 60 131 52T134 35T149 18T174 10H183V0H-40V10H-31Q-8 10 14 23T52 64L285 575Q338 687 342 724H351L668 65Q700 10 752
10ZM198 216H369L285 416L198 216Z" />
<glyph unicode="B" glyph-name="B" horiz-adv-x="731" d="M394 0H30V10H43Q79 10 98 41Q106 55 107 72V628Q106 664 75 682Q60 690 43 690H30V700H378Q656 700 656 526Q656 425 574 391Q551 382 525 381Q602 377 654 329T707 200Q707 100 622 50T394 0ZM326 52Q391
52 431 91T472 209T440 329T346 370V379Q441 379 441 514T325 650Q325 650 325 650H312V52H325Q326 52 326 52Z" />
<glyph unicode="C" glyph-name="C" horiz-adv-x="793" d="M35 351Q35 464 87 546T237 671T479 714T730 668L720 477H711Q682 578 627 621T490 664Q379 664 317 582T255 354T312 123T472 36Q590 36 643 92Q693 144 721 292H729L753 110Q679 -14 474 -14T152 82T35 351Z" />
<glyph unicode="D" glyph-name="D" horiz-adv-x="842" d="M808 515T808 350T703 93T409 0H30V10H43Q69 10 87 28T107 73V633Q107 657 88 673T43 690H31L30 700H409Q597 700 702 608ZM312 650V50H389Q482 50 535 129T588 350T535 570T389 650H312Z" />
<glyph unicode="E" glyph-name="E" horiz-adv-x="667" d="M43 10Q69 10 87 28T107 73V627Q106 659 80 678Q64 690 43 690H30V700H473Q504 700 540 706T592 718V512H582V520Q582 600 524 632Q496 648 457 649H312V370H421Q469 371 499 401T529 480V484H539V206H529V211Q529
258 499 288T422 320H312V51H435Q508 51 564 99T643 232H653L615 0H30V10H43Z" />
<glyph unicode="F" glyph-name="F" horiz-adv-x="631" d="M312 649V370H421Q469 371 499 401T529 479V484H539V206H529V211Q529 258 499 288T422 320H312V73Q312 47 331 29T376 10H389V0H30V10H43Q69 10 87 28T107 73V627Q106 653 88 671T43 690H30V700H473Q516
700 549 707T592 718V512H582V520Q582 600 524 632Q496 648 457 649H312Z" />
<glyph unicode="G" glyph-name="G" horiz-adv-x="861" d="M425 -14Q246 -14 141 83T35 351T141 618T435 714Q516 714 602 701T733 668L723 477H714Q662 664 485 664Q255 664 255 342Q255 196 302 116T447 36Q500 36 539 64T579 143L580 280Q580 302 567 313T529
325H513V335H849V325H834Q809 325 796 314T784 280V115Q728 44 581 6Q505 -14 425 -14Z" />
<glyph unicode="H" glyph-name="H" horiz-adv-x="893" d="M517 10Q543 10 561 28T581 72V325H312V73Q313 36 344 18Q359 10 376 10H389V0H30V10H43Q69 10 87 28T107 73V628Q106 654 88 672T43 690H30V700H389V690H376Q350 690 332 672T312 628V375H581V628Q580
654 562 672T517 690H504V700H863V690H850Q814 690 795 659Q787 644 786 627V73Q787 47 805 29T850 10H863V0H504V10H517Z" />
<glyph unicode="I" glyph-name="I" horiz-adv-x="418" d="M43 10Q69 10 87 28T107 73V628Q106 654 88 672T43 690H30V700H389V690H376Q350 690 332 672T312 628V73Q312 47 331 29T376 10H389V0H30V10H43Z" />
<glyph unicode="J" glyph-name="J" horiz-adv-x="424" d="M381 690Q345 690 326 659Q318 645 317 627V50Q317 -32 271 -94T150 -183Q97 -203 40 -203Q18 -203 -5 -200V-191Q112 -138 112 53V627Q111 653 93 671T48 690H35V700H394V690H381Z" />
<glyph unicode="K" glyph-name="K" horiz-adv-x="822" d="M43 10Q69 10 87 28T107 73V628Q106 654 88 672T43 690H30V700H389V690H376Q350 690 332 672T312 628V73Q312 47 331 29T376 10H389V0H30V10H43ZM848 0H740Q556 0 483 100Q453 140 399 228T344 318L583
644Q590 654 590 662T587 676Q580 691 559 691H549V700H790V691H786Q719 691 676 642L507 438L741 86Q790 12 848 10V0Z" />
<glyph unicode="L" glyph-name="L" horiz-adv-x="652" d="M43 10Q69 10 87 28T107 73V627Q106 664 75 682Q60 690 43 690H30V700H389V690H376Q350 690 331 672T312 627V51H435Q508 51 564 99T643 232H653L615 0H30V10H43Z" />
<glyph unicode="M" glyph-name="M" horiz-adv-x="968" d="M978 10H994V0H639V9H655Q671 9 682 22T694 52L656 344L486 92Q469 68 456 34T444 -24H435L175 335L140 52Q140 36 151 23T179 9H195V0H-25V10H-9Q19 10 39 27T64 73L152 714H161L497 255L805 714H814L905
73Q912 33 945 17Q960 10 978 10Z" />
<glyph unicode="N" glyph-name="N" horiz-adv-x="881" d="M843 690Q818 690 800 673T781 630V114Q781 40 791 0L794 -14H785L306 412V71Q306 35 337 18Q351 10 367 10H386V0H20V10H39Q64 10 82 27T100 71V590Q100 660 90 701L87 715H97L576 289V629Q575 655 557
672T514 690H495V700H861V690H843Z" />
<glyph unicode="O" glyph-name="O" horiz-adv-x="905" d="M450 714Q579 714 672 671T816 546T866 350Q866 179 755 83T450 -14T146 82T35 350T145 617T450 714ZM359 36T450 36T593 119T645 350T594 581T451 664T308 581T256 350T307 119Z" />
<glyph unicode="P" glyph-name="P" horiz-adv-x="707" d="M693 495Q693 449 675 406T621 334Q558 283 487 283Q415 283 351 329V339Q387 345 405 358T435 383Q460 410 468 446T477 497Q477 576 443 613T352 650H317V73Q318 47 336 29T381 10H394V0H35V10H48Q84
10 103 41Q112 56 112 73V633Q109 657 91 673T48 690H36L35 700H416Q553 700 626 643Q693 592 693 495Z" />
<glyph unicode="Q" glyph-name="Q" horiz-adv-x="912" d="M1269 -264Q1197 -306 1093 -306Q1057 -306 985 -290T843 -235T715 -155T621 -86T540 -37T453 -14Q260 -13 150 83T40 350T150 617T455 714Q584 714 677 671T821 546T871 350Q871 178 760 82Q706 35 629
11Q713 -3 776 -24T921 -76Q1056 -125 1170 -125T1369 -64L1376 -67Q1376 -131 1349 -182T1269 -264ZM261 498T261 350T312 119T455 36T598 119T650 350T599 581T456 664T313 581Z" />
<glyph unicode="R" glyph-name="R" horiz-adv-x="793" d="M675 590Q691 555 691 518T683 452T658 395Q621 335 531 321Q570 310 601 282Q634 254 663 204Q738 76 778 39Q808 11 854 10V0H729Q599 0 543 29Q463 70 429 170Q420 199 414 231T403 277T392 304T379
324Q367 336 351 342V352H367Q425 352 454 405Q469 433 472 465T476 506T476 516Q469 648 362 648H318V73Q318 47 337 29T382 10H394V0H35V10H48Q74 10 92 28T112 72V627Q111 664 80 682Q65 690 48 690H35V700H426Q622 700 675 590Z" />
<glyph unicode="S" glyph-name="S" horiz-adv-x="645" d="M606 105T520 46T291 -14Q208 -14 145 4T54 51Q45 73 45 98T49 148Q60 207 86 240H95Q94 234 94 227Q94 153 152 95T312 36Q380 36 416 64T453 129T428 192T347 244L184 320Q115 351 84 407Q59 451 59
504Q59 612 132 668Q193 714 294 714Q360 714 463 704H541L519 541H509Q509 596 466 630T357 664T254 641T214 580Q210 533 274 500Q285 494 303 487L490 400Q606 347 606 226Z" />
<glyph unicode="T" glyph-name="T" horiz-adv-x="698" d="M452 651V72Q453 46 471 28T516 10H529V0H170V10H183Q209 10 227 28T247 71V651H148Q88 650 54 616T20 521V514L10 513V719Q24 713 60 707T128 701H571Q602 701 638 707T689 719V513L679 514V521Q679 602
619 635Q590 650 550 651H452Z" />
<glyph unicode="U" glyph-name="U" horiz-adv-x="845" d="M825 690H809Q788 690 773 677T756 643V257Q756 130 678 58T456 -14Q277 -14 188 56T99 256V640Q99 662 84 676T46 690H30V700H373V690H357Q335 690 320 677T304 642V260Q304 155 352 96T486 37T620 92T669
247V642Q668 663 653 676T616 690H600V700H825V690Z" />
<glyph unicode="V" glyph-name="V" horiz-adv-x="720" d="M760 690H751Q699 690 668 636L435 125Q382 13 378 -24H369L52 635Q21 690 -32 690H-40V700H339V690H330Q309 690 299 677T288 651T292 627L435 284L584 627Q590 640 590 651T579 676T546 690H537V700H760V690Z" />
<glyph unicode="W" glyph-name="W" horiz-adv-x="964" d="M1004 690H996Q971 690 946 676T910 633L740 89Q725 42 725 -5Q725 -14 726 -22H716L485 413L327 89Q301 33 300 -22H291L44 633Q30 662 7 676T-42 690H-50V700H309V690H300Q270 690 260 662Q259 656 259
648T263 628L372 356L545 716L554 715L753 347L833 628Q835 639 835 647T832 666T819 683T795 690H786V700H1004V690Z" />
<glyph unicode="X" glyph-name="X" horiz-adv-x="773" d="M419 10Q440 10 453 31Q459 41 459 51T453 72L321 273L179 72Q162 42 189 20Q201 10 214 10H227V0H-33V10H-19Q35 10 80 67L279 339L88 632Q71 656 44 673T-13 690H-27V700H375V690H363Q341 690 329 669Q322
659 322 649T328 628L445 451L558 628Q564 638 564 648T558 669Q545 690 523 690H511L510 700H769V690H755Q726 690 700 674T656 632L489 383L695 68Q711 44 738 27T796 10H810V0H406V10H419Z" />
<glyph unicode="Y" glyph-name="Y" horiz-adv-x="729" d="M775 690H761Q731 690 704 673T660 631L464 322V73Q464 47 482 29T528 10H540V0H182V10H195Q221 10 239 28T259 72V322L68 633Q43 672 -1 685Q-16 690 -31 690H-45V700H341V690H329Q307 690 295 670Q288
659 288 649T294 628L431 381L573 628Q579 638 579 648T572 669Q559 690 538 690H526V700H775V690Z" />
<glyph unicode="Z" glyph-name="Z" horiz-adv-x="668" d="M49 719Q64 713 101 707T154 701T170 701H515Q557 701 586 706T621 714V705L285 50H426Q499 50 555 98T634 232H644L606 0H35V9L367 651H187Q127 650 93 616T59 521V513H49V719Z" />
<glyph unicode="[" glyph-name="bracketleft" horiz-adv-x="472" d="M120 -90V722H429V712L325 662V-30L432 -80V-90H120Z" />
<glyph unicode="\" glyph-name="backslash" horiz-adv-x="439" d="M10 696L69 723L430 14L371 -14L10 696Z" />
<glyph unicode="]" glyph-name="bracketright" horiz-adv-x="472" d="M43 722H352V-90H40V-80L147 -30V662L43 712V722Z" />
<glyph unicode="^" glyph-name="asciicircum" horiz-adv-x="572" d="M253 381H321L538 172H449L287 325L124 172H35L253 381Z" />
<glyph unicode="_" glyph-name="underscore" horiz-adv-x="500" d="M0 -110V-60H500V-110H0Z" />
<glyph unicode="`" glyph-name="grave" horiz-adv-x="600" d="M294 750L287 743Q234 749 169 776T54 836Q75 909 139 936Q182 899 228 847T294 750Z" />
<glyph unicode="a" glyph-name="a" horiz-adv-x="632" d="M668 10H676V0H324V10H332Q352 10 361 20T371 40T366 61L337 127H152L122 58Q118 49 118 40T127 21T157 10H164V0H-42V10H-34Q-13 10 8 22T42 59L248 503Q297 610 300 636H308L590 61Q616 10 668 10ZM171
172H317L244 340L171 172Z" />
<glyph unicode="b" glyph-name="b" horiz-adv-x="626" d="M552 525Q571 494 571 443T539 359T462 327Q524 324 567 284T611 173Q611 85 538 43T341 0H23V10H34Q56 10 71 25T86 62V538Q86 560 71 575T34 590H23V600H334Q506 600 552 525ZM328 48T359 81T390 182T372
283T308 317Q307 317 306 317V325Q343 325 356 353T370 435Q370 555 281 555H278V46Q328 48 359 81Z" />
<glyph unicode="c" glyph-name="c" horiz-adv-x="668" d="M225 -11T124 70T23 299T123 530T404 612Q531 612 622 576L609 406H602Q576 494 532 530T421 567Q322 567 275 497T227 304T273 110Q319 36 404 33Q474 33 510 54Q549 76 569 122Q588 166 606 250H613L639
90Q579 -12 402 -12Z" />
<glyph unicode="d" glyph-name="d" horiz-adv-x="741" d="M717 442T717 300T623 79T359 0H19V10H31Q54 10 70 26T87 64V539Q85 561 69 575T30 590H18V600H359Q529 600 623 521ZM283 555V46H340Q420 46 466 113T512 300Q512 462 432 525Q393 555 340 555H283Z" />
<glyph unicode="e" glyph-name="e" horiz-adv-x="575" d="M21 0V10H32Q53 10 64 21Q84 40 84 62V537Q84 560 69 575T32 590H21V600H411Q436 600 467 605T510 615V426H500V431Q500 489 470 521T383 554H280V319H357Q401 320 428 348T456 422V424H466V166H456V170Q456
214 429 243T357 272H280V46H376Q436 46 485 90T552 210H561L533 0H21Z" />
<glyph unicode="f" glyph-name="f" horiz-adv-x="542" d="M510 424H500V430Q500 508 446 538Q419 553 381 554H280V319H356Q401 320 428 348T456 422V424H466V166H456V170Q456 214 429 243T356 272H280V62Q281 31 306 17Q318 10 333 10H343V0H21V10H32Q53 10 68
25T84 62V537Q84 560 69 575T32 590H21V600H411Q436 600 467 605T510 615V424Z" />
<glyph unicode="g" glyph-name="g" horiz-adv-x="723" d="M455 -12T355 -12T180 25T65 133T24 302Q24 448 113 530T365 612Q433 612 509 602T622 576L608 406H601Q556 567 416 567Q319 567 274 498T228 292Q228 33 377 33Q418 33 444 56T471 113Q471 120 470 128V240Q470
259 459 269T428 280H414V288H719V280H707Q664 280 664 240V98Q633 56 544 22Z" />
<glyph unicode="h" glyph-name="h" horiz-adv-x="754" d="M670 538V62Q670 31 696 17Q708 10 722 10H733V0H412V10H422Q444 10 459 25T475 62V278H280V62Q281 40 296 25T333 10H343V0H21V10H32Q53 10 68 25T84 62V538Q84 560 69 575T32 590H21V600H343V590H333Q311
590 296 575T280 538V324H475V538Q474 560 459 575T422 590H412V600H734V590H723Q701 590 686 576T670 538Z" />
<glyph unicode="i" glyph-name="i" horiz-adv-x="363" d="M331 10H342V0H21V10H32Q53 10 68 25T83 62V538Q83 560 68 575T32 590H21V600H341V590H331Q301 590 287 565Q280 553 279 538V62Q280 40 295 25T331 10Z" />
<glyph unicode="j" glyph-name="j" horiz-adv-x="361" d="M330 590Q309 590 294 575T276 537V51Q276 -24 234 -79T126 -159Q79 -175 44 -175T-13 -172V-163Q48 -134 66 -70Q80 -18 80 54V535Q80 558 64 574T26 590H16L15 600H341V590H330Z" />
<glyph unicode="k" glyph-name="k" horiz-adv-x="705" d="M335 10H345V0H23V10H33Q55 10 70 25T86 62V539Q85 561 70 576T33 591H22V601H345V591H335Q313 591 298 576T282 538V62Q282 40 297 25T335 10ZM635 0H624Q469 0 404 90Q376 128 342 197T307 268L506 552Q517
567 511 579T487 592H479V600H683V592H679Q627 592 592 555L458 387L647 78Q689 10 738 8V0H635Z" />
<glyph unicode="l" glyph-name="l" horiz-adv-x="557" d="M533 0H21V10H32Q53 10 68 25T84 62V538Q84 560 69 575T32 590H21V600H344V590H333Q298 590 285 559Q280 549 280 538V46H376Q436 46 484 90T552 210H562L533 0Z" />
<glyph unicode="m" glyph-name="m" horiz-adv-x="854" d="M549 0V10H563Q581 10 589 22T596 48L563 272L425 79Q410 58 399 30T388 -8T388 -22H380L155 258L128 48Q127 38 133 28Q143 10 161 10H175V0H-19V10H-6Q19 10 37 23T58 62L136 612H144L442 237L709 612H718L798
57Q804 35 820 23T859 10H873V0H549Z" />
<glyph unicode="n" glyph-name="n" horiz-adv-x="779" d="M768 590H751Q728 590 712 576T696 541V97Q696 32 705 -1L708 -12H699L279 341V60Q280 39 295 25T334 10H350V0H12V10H28Q51 10 67 24T83 60V507Q83 567 74 602L71 613H80L499 259V540Q499 561 484 575T445
590H428V600H768V590Z" />
<glyph unicode="o" glyph-name="o" horiz-adv-x="779" d="M25 448T121 530T389 612T657 530T754 300T658 70T390 -12T122 70T25 300ZM229 172T270 103T389 33T508 102T549 299Q549 472 477 535Q441 567 389 567Q311 567 270 498T229 300Z" />
<glyph unicode="p" glyph-name="p" horiz-adv-x="607" d="M307 282V290Q343 295 368 345Q388 386 388 436Q388 510 342 541Q321 555 292 555H280V62Q281 39 295 25T332 10H342V0H22V10H33Q54 10 69 25T84 62V539Q83 561 68 575T32 590H21V600H357Q500 600 557
531Q592 488 592 423Q592 384 578 346T533 283Q481 239 421 239T307 282Z" />
<glyph unicode="q" glyph-name="q" horiz-adv-x="760" d="M1138 -51L1144 -54Q1144 -57 1144 -61Q1144 -160 1083 -218Q1024 -273 923 -273Q809 -273 677 -196Q612 -159 538 -96Q472 -39 440 -26T381 -12H378Q211 -12 118 70T25 300T118 530T379 612T640 530T734
299Q734 155 645 74Q602 34 539 12Q609 2 657 -14T782 -59Q1008 -142 1138 -51ZM306 567T268 498T230 300T268 102T379 33T491 102T529 299Q529 496 445 549Q416 567 379 567Q306 567 268 498Z" />
<glyph unicode="r" glyph-name="r" horiz-adv-x="678" d="M604 435Q604 383 579 339Q550 288 476 275Q511 266 540 240T579 196T599 158Q658 43 692 21Q710 10 737 10V0H619Q520 0 490 13Q449 31 431 53T395 106Q368 152 351 237Q341 282 318 294V302H323Q351
302 372 327T399 411Q399 412 399 417Q404 462 391 491T368 531T342 546Q325 552 311 552H291V62Q291 37 307 24T344 10H353V0H32V10H43Q64 10 79 25T94 62V538Q94 560 80 575T44 590H32V600H376Q604 600 604 435Z" />
<glyph unicode="s" glyph-name="s" horiz-adv-x="549" d="M514 202Q514 92 435 37Q365 -12 241 -12Q167 -12 118 4T49 45Q40 66 40 89T44 133Q55 186 79 216H85Q85 211 85 207Q85 140 133 87Q182 34 268 34Q319 34 345 57T371 110T348 163T271 209L166 258Q102
285 72 337Q49 377 49 425Q49 441 51 457Q73 612 241 612Q297 612 392 603H459L435 457H429Q429 506 394 535T305 565Q203 565 196 499Q193 467 220 448Q241 434 278 419L407 360Q460 337 487 296T514 202Z" />
<glyph unicode="t" glyph-name="t" horiz-adv-x="613" d="M606 428H596V433Q597 510 542 539Q516 554 478 554H404V62Q404 40 419 25T457 10H467V0H146V10H156Q177 10 192 25T208 62V554H135Q49 553 25 484Q17 461 17 433V428H7V616Q20 611 51 606T107 601H506Q532
601 565 606T606 616V428Z" />
<glyph unicode="u" glyph-name="u" horiz-adv-x="708" d="M697 592H684Q666 592 653 580T640 549V223Q640 112 574 50T386 -12Q76 -12 76 221V549Q76 578 49 589Q41 592 32 592H19V600H329V592H315Q297 592 285 580T272 549V223Q272 103 339 58Q372 36 418 36Q486
36 523 82T561 212V549Q560 568 548 580T517 592H504V600H697V592Z" />
<glyph unicode="v" glyph-name="v" horiz-adv-x="620" d="M663 590H655Q606 590 581 544L379 122Q330 18 327 -12H319L38 545Q12 590 -35 590H-42V600H309V591H301Q282 591 273 580T263 558T267 538L383 281L499 538Q504 549 504 559T495 580T466 591H458V600H663V590Z" />
<glyph unicode="w" glyph-name="w" horiz-adv-x="851" d="M883 590H876Q855 590 835 580T804 549L657 87Q644 48 644 23T644 -10H636L430 338L296 84Q272 37 272 -10H264L48 542Q37 567 17 578T-25 590H-32V600H297V590H288Q271 590 262 580T253 560T255 543L347
335L492 613H499L671 325L733 539Q735 548 735 558T727 579T699 590H692V600H883V590Z" />
<glyph unicode="x" glyph-name="x" horiz-adv-x="666" d="M691 0H334V10H344Q362 10 370 22T378 43T373 60L275 221L159 60Q153 51 153 43T160 22T187 10H197V0H-24V10H-12Q32 10 67 52L238 281L75 549Q62 567 40 579T-5 592H-16V602H339V592H329Q310 592 300
576Q290 558 300 542L392 391L489 542Q494 551 494 559T487 580T461 592H451V602H667V592H655Q606 592 575 548L430 330L598 55Q611 36 633 23T680 10H691V0Z" />
<glyph unicode="y" glyph-name="y" horiz-adv-x="633" d="M684 590H671Q645 590 623 577T586 543L417 279V62Q418 40 433 25T472 10H483V0H155V10H167Q189 10 205 25T221 62V278L49 543Q30 571 6 580T-36 590H-48V600H302V590H292Q273 590 265 578T257 556T262
539L386 329L507 539Q512 547 512 555T504 577T477 590H466V600H684V590Z" />
<glyph unicode="z" glyph-name="z" horiz-adv-x="606" d="M25 0V8L326 555H168Q111 555 80 523T48 432V428H38V616Q50 611 83 606T144 601H482Q519 601 545 605T577 612V605L287 45H395Q463 45 515 89T588 210H598L562 0H25Z" />
<glyph unicode="{" glyph-name="braceleft" horiz-adv-x="407" d="M309 110L303 1Q303 -34 310 -49Q325 -81 368 -92L366 -100Q166 -100 117 30Q104 66 104 106T115 202T127 272T125 292Q118 311 85 314V324Q120 325 128 340Q130 344 130 353T126 386T113 450T104
527T120 602Q157 685 258 716Q313 733 385 733H386L388 725Q337 712 323 678Q309 645 309 599V536Q309 444 293 404Q280 370 270 361T253 346T234 336T215 329T193 323T171 316Q238 297 258 278Q286 250 294 225Q309 172 309 110Z" />
<glyph unicode="|" glyph-name="bar" horiz-adv-x="265" d="M100 -180V700H165V-180H100Z" />
<glyph unicode="}" glyph-name="braceright" horiz-adv-x="407" d="M20 725Q22 733 22 733Q168 733 238 669Q304 609 304 521Q304 491 295 450Q278 364 278 354T280 340Q287 325 323 324V314Q290 311 283 292Q281 288 281 273T292 203T304 107T291 31T248 -36Q186
-100 42 -100L40 -92Q83 -81 97 -51Q105 -34 105 1L98 110Q98 213 129 254Q141 269 150 277T177 295Q199 305 237 316Q229 319 215 323T193 329T174 336T155 346T140 359T125 378T114 404T105 438Q98 483 98 536L99 599Q99 641 95 653T85 678T71 699Q49 717 20
725Z" />
<glyph unicode="~" glyph-name="asciitilde" horiz-adv-x="494" d="M461 363Q468 336 468 319T464 282T441 242Q404 204 346 204Q307 204 257 238Q235 252 215 267Q164 303 138 303T99 281Q92 268 92 250T97 209H32Q27 232 27 253Q27 296 50 324Q85 368 142 368Q166
368 197 353T253 319Q321 269 350 269T395 292Q403 304 403 321T393 363H461Z" />
<glyph unicode="&#xa1;" glyph-name="exclamdown" horiz-adv-x="295" d="M112 716T149 716T213 690T240 626T214 562T150 536T86 562T60 625T86 689ZM68 339L113 472H183L228 339L250 0H45L68 339Z" />
<glyph unicode="&#xa2;" glyph-name="cent" horiz-adv-x="578" d="M15 348Q15 482 116 552Q209 617 356 617Q358 617 361 617L368 701L415 700L408 615Q488 608 542 586L531 439H525Q491 555 405 571L368 121Q423 123 445 137T478 163T498 198Q514 234 528 304H534L557
166Q507 81 364 78L357 -9L311 -6L318 79Q176 88 96 158T15 348ZM322 125L358 573Q201 567 202 351Q201 154 322 125Z" />
<glyph unicode="&#xa3;" glyph-name="sterling" horiz-adv-x="620" d="M571 24Q525 3 468 -3T384 -10Q337 -10 258 7T159 24T130 24T83 11T40 -10H30V0Q86 110 102 205Q110 258 112 319H30L48 375H112Q112 381 112 387Q112 698 388 714Q403 715 438 715T520 701T591
657L543 515H533Q530 594 506 629T429 664Q325 664 317 527Q315 496 315 459T317 375H498L477 319H319Q318 198 279 144Q245 97 183 79Q194 82 204 82T228 82T256 79T296 73Q341 67 367 67T423 72T489 95Q562 131 606 219H616L571 24Z" />
<glyph unicode="&#xa4;" glyph-name="currency" horiz-adv-x="541" d="M410 193Q350 139 270 139T130 191L71 132L50 154L109 212Q56 272 56 352T110 493L50 553L71 574L131 514Q191 565 270 565T409 513L470 574L492 553L430 492Q482 432 482 353T431 214L492
154L470 132L410 193ZM194 169T269 169T398 222T452 352T399 481T270 535T140 482T86 352T140 223Z" />
<glyph unicode="&#xa5;" glyph-name="yen" horiz-adv-x="729" d="M775 690H761Q731 690 704 673T660 631L529 425H623V375H497L464 322V315H623V265H464V73Q464 47 482 29T528 10H540V0H182V10H195Q221 10 239 28T259 72V265H97V315H259V322L226 375H97V425H196L68
633Q43 672 -1 685Q-16 690 -31 690H-45V700H341V690H329Q307 690 295 670Q288 659 288 649T294 628L431 381L573 628Q579 638 579 648T572 669Q559 690 538 690H526V700H775V690Z" />
<glyph unicode="&#xa6;" glyph-name="brokenbar" horiz-adv-x="265" d="M100 350V700H165V350H100ZM100 -180V170H165V-180H100Z" />
<glyph unicode="&#xa7;" glyph-name="section" horiz-adv-x="536" d="M331 716Q415 716 461 678Q488 654 488 633T474 591Q454 559 427 559Q410 559 385 577T344 612Q311 646 279 655Q275 656 268 656T247 647T234 623T241 593T261 560T292 524T325 488T359 455Q433
380 469 301Q512 206 512 125Q512 12 447 -65Q410 -108 352 -133T229 -159T117 -141Q44 -113 44 -65Q44 -50 53 -32Q75 4 104 4Q123 4 151 -15T197 -51Q235 -86 269 -95Q273 -96 281 -96T302 -86T315 -60T296 -18T220 63T145 136Q93 187 64 245Q26 319 26 399Q26
545 137 644Q217 716 331 716ZM145 583Q119 526 119 468Q119 430 148 375Q164 343 193 313T250 254T295 207T337 156T374 99Q397 51 397 5Q397 -8 395 -21Q418 26 418 77Q418 156 322 264Q308 279 279 310T236 357T202 398T174 439Q151 488 148 518T145 564T145
583Z" />
<glyph unicode="&#xa8;" glyph-name="dieresis" horiz-adv-x="600" d="M180 665T150 665T98 687T76 739T97 791T149 813T201 792T223 740T202 687ZM442 665T412 665T360 687T338 739T359 791T411 813T463 792T485 740T464 687Z" />
<glyph unicode="&#xa9;" glyph-name="copyright" horiz-adv-x="848" d="M273 714T424 714T681 608T788 350T682 93T424 -14T167 92T60 350T166 607ZM736 479T645 570T424 662T204 571T112 350T203 130T424 38T644 129T736 350Q736 479 645 570ZM321 265T353 217T449
169T555 209T610 326H616L639 218Q561 127 434 127Q326 128 256 191T185 350T256 509T436 573Q482 573 532 562T617 530L611 410H605Q553 532 442 532Q385 532 353 484T321 351Z" />
<glyph unicode="&#xaa;" glyph-name="ordfeminine" horiz-adv-x="390" d="M395 377H190V381H195Q205 381 211 388T215 406L199 439H99L84 409Q78 397 85 389T103 381H108V377H-5V381H-1Q25 381 40 404L155 635Q183 698 185 710H189L351 404Q367 381 391 381H395V377ZM111
465H186L149 542L111 465Z" />
<glyph unicode="&#xab;" glyph-name="guillemotleft" horiz-adv-x="541" d="M265 490L273 485L195 292L274 95L265 88L40 292L265 490ZM473 490L481 485L403 292L482 95L473 88L248 292L473 490Z" />
<glyph unicode="&#xac;" glyph-name="logicalnot" horiz-adv-x="600" d="M40 407H562V195H497V342H40V407Z" />
<glyph unicode="&#xad;" glyph-name="softhyphen" horiz-adv-x="380" d="M30 292L40 332H340L350 292L340 251H40L30 292Z" />
<glyph unicode="&#xae;" glyph-name="registered" horiz-adv-x="245" d="M76 701T123 701T203 668T236 588T203 508T123 475T43 508T10 588T43 668ZM84 499T122 499T186 524T212 588T187 651T123 677T59 652T34 588T59 525ZM170 617Q170 588 139 584Q150 582 164
559T190 532V530H171Q155 530 149 534T140 540T134 548T129 556T124 566Q115 588 112 588V590H122Q139 591 138 616T117 640H107V543Q107 532 117 532H120V530H63V532H65Q75 532 76 542V637Q75 648 65 648H63V650H107H126Q156 650 166 631Q170 625 170 617Z" />
<glyph unicode="&#xaf;" glyph-name="overscore" horiz-adv-x="600" d="M150 703V788H440V703H150Z" />
<glyph unicode="&#xb0;" glyph-name="degree" horiz-adv-x="237" d="M78 664T118 664T188 636T217 566T188 496T119 467T49 496T20 566T49 635ZM135 606T119 606T90 595T78 566T90 538T118 526T147 537T159 566T147 594Z" />
<glyph unicode="&#xb1;" glyph-name="plusminus" horiz-adv-x="481" d="M273 412H442V347H273V179H208V347H40V412H208V581H273V412ZM40 50V115H442V50H40Z" />
<glyph unicode="&#xb2;" glyph-name="twosuperior" horiz-adv-x="419" d="M156 687Q85 687 85 559H79L30 674Q84 719 193 719Q295 719 341 667Q364 642 364 610T349 549T308 498Q261 456 212 434H305Q356 434 384 496H389L348 308H38V313Q50 330 73 361T109 409T141
454T170 500T192 542Q212 585 212 620T196 671T156 687Z" />
<glyph unicode="&#xb3;" glyph-name="threesuperior" horiz-adv-x="373" d="M168 714Q297 714 320 646Q325 632 325 617Q325 581 305 563T254 543Q343 524 343 435Q343 383 311 347Q260 290 163 290Q87 290 27 323L28 328Q32 328 35 328Q101 328 148 358T196 440T166
514T100 538L101 543Q103 543 106 543Q140 543 163 568T186 625Q186 663 162 676Q148 684 136 684Q90 684 76 652Q65 627 65 576Q65 571 65 565H60L20 676Q70 714 168 714Z" />
<glyph unicode="&#xb4;" glyph-name="acute" horiz-adv-x="600" d="M211 743L204 750Q223 794 269 846T358 936Q422 909 444 836Q394 803 329 776T211 743Z" />
<glyph unicode="&#xb6;" glyph-name="paragraph" horiz-adv-x="540" d="M432 147Q432 92 414 51T364 -13L355 -5Q380 37 381 85Q382 100 382 145V650H299V0Q299 -91 256 -149Q232 -182 193 -199L186 -190Q227 -148 237 -115T247 -47T246 0V333Q161 333 106 383T50
516T106 649T246 700H428Q428 700 435 700T444 700T452 700T463 702T473 705T485 710T497 718Q509 726 523 743L530 737Q523 695 480 667Q458 653 432 651V147Z" />
<glyph unicode="&#xb7;" glyph-name="middot" horiz-adv-x="250" d="M162 265T125 265T62 291T35 355T61 418T125 445T188 419T215 355T189 292Z" />
<glyph unicode="&#xb8;" glyph-name="cedilla" horiz-adv-x="600" d="M284 -48Q298 -43 308 -43T328 -43T359 -48T391 -69T403 -96Q403 -142 371 -169Q330 -205 271 -205Q244 -205 214 -196L215 -186Q252 -186 285 -166T319 -105Q319 -89 303 -77Q287 -66 264
-66T222 -72L217 -62L265 1H327L284 -48Z" />
<glyph unicode="&#xb9;" glyph-name="onesuperior" horiz-adv-x="292" d="M262 314V308H34V314H45Q58 314 66 322T75 343V632Q75 649 68 662T34 675H30V680Q62 681 123 690T216 715H221V343Q221 331 230 323T251 314H262Z" />
<glyph unicode="&#xba;" glyph-name="ordmasculine" horiz-adv-x="400" d="M20 624T66 667T200 710T334 667T380 544T334 420T200 377T66 420T20 543ZM200 403Q231 403 245 438T259 525T256 603T246 647Q232 684 200 684Q140 684 140 544T200 403Z" />
<glyph unicode="&#xbb;" glyph-name="guillemotright" horiz-adv-x="541" d="M69 88L60 95L139 292L61 485L69 490L294 292L69 88ZM277 88L268 95L347 292L269 485L277 490L502 292L277 88Z" />
<glyph unicode="&#xbc;" glyph-name="onequarter" horiz-adv-x="769" d="M597 723L644 691L167 -20L119 11L597 723ZM65 632Q65 675 24 675H20V680Q52 681 113 690T206 715H211V343Q211 331 220 323T241 314H253V308H24V314H35Q48 314 56 322T65 343V632ZM667
92V38Q667 25 677 16T700 6H707V0H483V6H490Q503 6 513 15T523 37V92H329V98L661 408H667V164H693Q722 164 734 192H740L719 92H667ZM523 165V231L448 165H523Z" />
<glyph unicode="&#xbd;" glyph-name="onehalf" horiz-adv-x="850" d="M575 723L622 691L145 -20L97 11L575 723ZM24 675H20V680Q52 681 113 690T206 715H211V343Q211 331 220 323T241 314H252V308H24V314H35Q48 314 56 322T65 343V632Q65 675 24 675ZM577 380Q506
380 505 251H500L451 366Q505 412 614 412Q687 412 736 382T785 299Q785 221 680 152Q656 137 633 126H726Q777 126 805 188H810L769 0H459V5Q471 21 500 60T542 117T576 168T608 221Q633 277 633 312T617 364T577 380Z" />
<glyph unicode="&#xbe;" glyph-name="threequarters" horiz-adv-x="839" d="M666 723L713 691L236 -20L188 11L666 723ZM250 714T289 689T329 623T309 563T259 543Q348 524 348 435Q348 383 316 347Q264 290 167 290Q92 290 32 323L33 328Q36 328 40 328Q106 328
153 358T201 440T171 514T105 538L106 543Q108 543 110 543Q145 543 167 568T190 625Q190 663 167 676Q152 684 141 684Q95 684 80 652Q70 627 70 576Q70 571 70 565H64L25 676Q75 714 162 714ZM747 92V38Q747 20 764 10Q771 6 780 6H787V0H563V6H570Q583 6 592
15T603 37V92H409V98L741 409H747V165H773Q802 165 814 192H820L799 92H747ZM603 165V231L528 165H603Z" />
<glyph unicode="&#xbf;" glyph-name="questiondown" horiz-adv-x="523" d="M178 661T204 687T267 714T331 688T358 624T332 561T268 534T204 560T178 624Q178 661 204 687ZM245 161Q245 36 336 36Q433 36 433 190H443L493 75Q470 35 412 11T272 -14Q155 -14 93
32T30 163Q30 221 62 262T177 363Q229 401 235 422Q243 449 228 479L237 485Q302 468 327 419Q338 398 338 383T337 353T324 321T300 288T274 258Q245 222 245 161Z" />
<glyph unicode="&#xc0;" glyph-name="Agrave" horiz-adv-x="720" d="M376 771L369 764Q316 770 251 797T136 857Q157 930 221 957Q264 920 310 868T376 771ZM752 10H760V0H381V10H390Q412 10 423 23T434 48T429 73L390 166H176L136 73Q131 60 131 52T134 35T149
18T174 10H183V0H-40V10H-31Q-8 10 14 23T52 64L285 575Q338 687 342 724H351L668 65Q700 10 752 10ZM198 216H369L285 416L198 216Z" />
<glyph unicode="&#xc1;" glyph-name="Aacute" horiz-adv-x="720" d="M332 761L325 768Q344 812 390 864T480 954Q544 927 565 854Q515 821 450 794T332 761ZM752 10H760V0H381V10H390Q412 10 423 23T434 48T429 73L390 166H176L136 73Q131 60 131 52T134 35T149
18T174 10H183V0H-40V10H-31Q-8 10 14 23T52 64L285 575Q338 687 342 724H351L668 65Q700 10 752 10ZM198 216H369L285 416L198 216Z" />
<glyph unicode="&#xc2;" glyph-name="Acircumflex" horiz-adv-x="720" d="M342 932H353L532 756L525 748L347 813L180 748L173 756L342 932ZM752 10H760V0H381V10H390Q412 10 423 23T434 48T429 73L390 166H176L136 73Q131 60 131 52T134 35T149 18T174 10H183V0H-40V10H-31Q-8
10 14 23T52 64L285 575Q338 687 342 724H351L668 65Q700 10 752 10ZM198 216H369L285 416L198 216Z" />
<glyph unicode="&#xc3;" glyph-name="Atilde" horiz-adv-x="720" d="M544 919H556Q562 902 562 883T554 844Q532 794 493 776Q469 764 438 764T357 789Q307 814 290 816T257 819T218 803T186 767H174Q170 781 170 796Q170 856 215 899Q246 929 283 929T375 902T474
875Q489 875 513 889T544 919ZM700 10T752 10H760V0H381V10H390Q412 10 423 23T434 48T429 73L390 166H176L136 73Q130 60 130 49T141 24T174 10H183V0H-40V10H-31Q-8 10 14 23T52 64L285 575Q338 687 342 724H351L668 65Q700 10 752 10ZM198 216H369L285 416L198
216Z" />
<glyph unicode="&#xc4;" glyph-name="Adieresis" horiz-adv-x="720" d="M244 755T214 755T162 777T140 829T161 881T213 903T266 882T288 830T266 777ZM507 755T477 755T425 777T403 829T424 881T476 903T528 882T550 830T529 777ZM752 10H760V0H381V10H390Q412
10 423 23T434 48T429 73L390 166H176L136 73Q131 60 131 52T134 35T149 18T174 10H183V0H-40V10H-31Q-8 10 14 23T52 64L285 575Q338 687 342 724H351L668 65Q700 10 752 10ZM198 216H369L285 416L198 216Z" />
<glyph unicode="&#xc5;" glyph-name="Aring" horiz-adv-x="720" d="M752 10H760V0H381V10H390Q412 10 422 23T433 48T429 72L388 166H178L135 71Q131 59 131 48T141 24T174 10H183V0H-40V10H-31Q-6 10 18 25T57 73L285 565Q325 648 338 694Q300 696 275 717T249
769T277 822T347 843T417 823T446 771T422 719T361 694L664 73Q695 10 752 10ZM348 821Q347 821 347 821T346 821Q329 821 317 806T305 776T307 752T312 738T322 726Q332 716 349 716T378 731T391 768T379 806T348 821ZM200 216H367L285 408L200 216Z" />
<glyph unicode="&#xc6;" glyph-name="AE" horiz-adv-x="1017" d="M416 10Q436 10 450 24T466 58V317H309L158 73Q141 44 158 26Q174 10 196 10H205V0H-33V10H-24Q19 10 62 71L453 641Q461 654 461 662Q461 690 432 690H427V700H821Q865 700 898 707T940 718V512H930V520Q931
600 873 632Q845 648 805 649H671V367H773Q819 369 848 399T878 476V481H888V203H878V208Q878 254 849 284T775 317H671V51H784Q857 51 912 99T991 232H1001L963 0H406L407 10H416ZM466 367V569L340 367H466Z" />
<glyph unicode="&#xc7;" glyph-name="Ccedilla" horiz-adv-x="793" d="M472 -14H460L423 -57Q437 -52 447 -52T467 -52T497 -57T530 -78T542 -105Q542 -151 510 -178Q468 -213 410 -213Q382 -213 353 -205L354 -195Q390 -195 424 -175T458 -114Q458 -98 441 -86Q411
-65 360 -81L355 -71L402 -11Q229 6 132 100T35 351Q35 464 87 546T237 671T479 714T730 668L720 477H711Q682 578 627 621T490 664Q379 664 317 582T255 354T312 123T472 36Q590 36 643 92Q693 144 721 292H729L753 110Q679 -14 472 -14Z" />
<glyph unicode="&#xc8;" glyph-name="Egrave" horiz-adv-x="667" d="M393 771L386 764Q333 770 269 797T156 857Q180 930 245 957Q286 920 330 868T393 771ZM43 10Q69 10 87 28T107 73V627Q106 664 75 682Q60 690 43 690H30V700H473Q516 700 549 707T592 718V512H582V520Q582
600 524 632Q496 648 457 649H312V370H421Q469 371 499 401T529 480V484H539V206H529V211Q529 258 499 288T422 320H312V51H435Q508 51 564 99T643 232H653L615 0H30V10H43Z" />
<glyph unicode="&#xc9;" glyph-name="Eacute" horiz-adv-x="667" d="M322 761L315 768Q334 812 380 864T470 954Q534 927 555 854Q505 821 440 794T322 761ZM43 10Q69 10 87 28T107 73V627Q106 653 88 671T43 690H30V700H473Q504 700 540 706T592 718V512H582V520Q582
600 524 632Q496 648 457 649H312V370H421Q469 371 499 401T529 480V484H539V206H529V211Q529 258 499 288T422 320H312V51H435Q508 51 564 99T643 232H653L615 0H30V10H43Z" />
<glyph unicode="&#xca;" glyph-name="Ecircumflex" horiz-adv-x="667" d="M332 932H344L522 756L515 748L337 813L170 748L163 756L332 932ZM43 10Q69 10 87 28T107 73V627Q106 653 88 671T43 690H30V700H473Q504 700 540 706T592 718V512H582V520Q582 600 524
632Q496 648 457 649H312V370H421Q469 371 499 401T529 480V484H539V206H529V211Q529 258 499 288T422 320H312V51H435Q508 51 564 99T643 232H653L615 0H30V10H43Z" />
<glyph unicode="&#xcb;" glyph-name="Edieresis" horiz-adv-x="667" d="M235 755T205 755T153 777T131 829T152 881T204 903T256 882T278 830T257 777ZM497 755T467 755T415 777T393 829T414 881T466 903T518 882T540 830T519 777ZM43 10Q69 10 87 28T107 73V627Q106
653 88 671T43 690H30V700H473Q516 700 549 707T592 718V512H582V520Q582 600 524 632Q496 648 457 649H312V370H421Q469 371 499 401T529 480V484H539V206H529V211Q529 258 499 288T422 320H312V51H435Q508 51 564 99T643 232H653L615 0H30V10H43Z" />
<glyph unicode="&#xcc;" glyph-name="Igrave" horiz-adv-x="418" d="M245 771L238 764Q185 770 120 797T5 857Q26 930 90 957Q134 920 180 868T245 771ZM43 10Q69 10 87 28T107 73V628Q106 654 88 672T43 690H30V700H389V690H376Q350 690 332 672T312 628V73Q312
47 331 29T376 10H389V0H30V10H43Z" />
<glyph unicode="&#xcd;" glyph-name="Iacute" horiz-adv-x="418" d="M191 761L184 768Q213 836 309 926Q325 941 339 954Q403 927 424 854Q374 821 309 794T191 761ZM43 10Q69 10 87 28T107 73V628Q106 654 88 672T43 690H30V700H389V690H376Q350 690 332 672T312
628V73Q312 47 331 29T376 10H389V0H30V10H43Z" />
<glyph unicode="&#xce;" glyph-name="Icircumflex" horiz-adv-x="418" d="M201 932H213L391 756L384 748L206 813L39 748L32 756L201 932ZM43 10Q69 10 87 28T107 73V628Q106 654 88 672T43 690H30V700H389V690H376Q350 690 332 672T312 628V73Q312 47 331 29T376
10H389V0H30V10H43Z" />
<glyph unicode="&#xcf;" glyph-name="Idieresis" horiz-adv-x="418" d="M104 755T74 755T22 777T0 829T21 881T73 903T125 882T147 830T126 777ZM367 755T337 755T284 777T262 829T284 881T336 903T388 882T410 830T389 777ZM43 10Q69 10 87 28T107 73V628Q106
654 88 672T43 690H30V700H389V690H376Q350 690 332 672T312 628V73Q312 47 331 29T376 10H389V0H30V10H43Z" />
<glyph unicode="&#xd0;" glyph-name="Eth" horiz-adv-x="842" d="M808 515T808 350T703 93T409 0H30V10H43Q69 10 87 28T107 73V325H30V375H107V633Q107 657 88 673T43 690H31L30 700H409Q597 700 702 608ZM312 325V50H389Q483 50 538 129T593 350T538 570T389
650H312V375H420V325H312Z" />
<glyph unicode="&#xd1;" glyph-name="Ntilde" horiz-adv-x="881" d="M607 919H619Q625 902 625 883T617 844Q595 794 556 776Q532 764 501 764T420 789Q370 814 353 816T320 819T281 803T249 767H237Q233 781 233 796Q233 856 278 899Q309 929 346 929T438 902T537
875Q552 875 576 889T607 919ZM843 690Q818 690 800 673T781 630V114Q781 40 791 0L794 -14H785L306 412V71Q306 35 337 18Q351 10 367 10H386V0H20V10H39Q64 10 82 27T100 71V590Q100 660 90 701L87 715H97L576 289V629Q575 655 557 672T514 690H495V700H861V690H843Z"
/>
<glyph unicode="&#xd2;" glyph-name="Ograve" horiz-adv-x="905" d="M477 785L470 778Q398 787 309 830Q270 849 237 871Q259 944 323 971Q384 918 424 867T477 785ZM450 714Q579 714 672 671T816 546T866 350Q866 179 756 83T451 -14T146 82T35 350T145 617T450
714ZM450 36Q546 36 598 118T650 350Q650 551 559 627Q514 664 450 664Q354 664 303 582T251 350Q251 149 342 73Q387 36 450 36Z" />
<glyph unicode="&#xd3;" glyph-name="Oacute" horiz-adv-x="905" d="M433 775L426 782Q445 826 491 878T581 968Q645 941 666 868Q616 835 551 808T433 775ZM450 714Q579 714 672 671T816 546T866 350Q866 179 756 83T451 -14T146 82T35 350T145 617T450 714ZM359
36T450 36T593 119T645 350T594 581T451 664T308 581T256 350T307 119Z" />
<glyph unicode="&#xd4;" glyph-name="Ocircumflex" horiz-adv-x="905" d="M443 946H455L634 770L626 762L449 827L281 762L274 770L443 946ZM450 714Q579 714 672 671T816 546T866 350Q866 179 755 83T450 -14T146 82T35 350T145 617T450 714ZM359 36T450 36T593
119T645 350T594 581T451 664T308 581T256 350T307 119Z" />
<glyph unicode="&#xd5;" glyph-name="Otilde" horiz-adv-x="905" d="M645 933H658Q664 916 664 897T655 858Q634 808 594 790Q570 778 543 778T488 789Q462 800 434 814T390 830T359 833T320 817T288 781H275Q272 795 272 810Q272 870 316 913Q347 943 384 943T476
916T576 889Q590 889 614 903T645 933ZM256 714T450 714T755 618T866 350T755 83T450 -14T146 82T35 350T145 617ZM359 36T450 36T593 119T645 350T594 581T451 664T308 581T256 350T307 119Z" />
<glyph unicode="&#xd6;" glyph-name="Odieresis" horiz-adv-x="905" d="M346 769T316 769T264 791T242 843T263 895T315 917T367 896T389 844T368 791ZM609 769T579 769T526 791T504 843T526 895T578 917T630 896T652 844T631 791ZM450 714Q579 714 672 671T816
546T866 350Q866 179 755 83T450 -14T146 82T35 350T145 617T450 714ZM359 36T450 36T593 119T645 350T594 581T451 664T308 581T256 350T307 119Z" />
<glyph unicode="&#xd7;" glyph-name="multiply" horiz-adv-x="410" d="M370 429L251 310L370 191L324 145L205 264L86 145L40 191L159 310L40 429L86 475L205 356L324 475L370 429Z" />
<glyph unicode="&#xd8;" glyph-name="Oslash" horiz-adv-x="905" d="M866 350Q866 179 755 83T450 -14Q307 -14 207 40L153 -23L109 13L159 71Q35 168 35 344T145 617T450 714Q580 714 674 670L722 726L766 692L723 642Q866 546 866 350ZM598 582Q546 664 450
664T303 582T251 350Q251 264 269 199L598 582ZM291 138Q343 36 444 36T598 118T650 350Q650 454 624 527L291 138Z" />
<glyph unicode="&#xd9;" glyph-name="Ugrave" horiz-adv-x="845" d="M510 771L503 764Q450 770 385 797T270 857Q291 930 355 957Q398 920 444 868T510 771ZM600 700H825V690H809Q788 690 773 677T756 643V257Q756 130 678 58T456 -14Q277 -14 188 56T99 256V640Q99
670 73 684Q61 690 46 690H30V700H373V690H357Q335 690 320 677T304 642V260Q304 155 352 96T486 37T620 92T669 247V642Q668 663 653 676T616 690H600V700Z" />
<glyph unicode="&#xda;" glyph-name="Uacute" horiz-adv-x="845" d="M466 761L459 768Q478 812 524 864T614 954Q678 927 699 854Q649 821 584 794T466 761ZM600 700H825V690H809Q788 690 773 677T756 643V257Q756 130 678 58T456 -14Q277 -14 188 56T99 256V640Q99
670 73 684Q61 690 46 690H30V700H373V690H357Q335 690 320 677T304 642V260Q304 155 352 96T486 37T620 92T669 247V642Q668 675 637 686Q627 690 616 690H600V700Z" />
<glyph unicode="&#xdb;" glyph-name="Ucircumflex" horiz-adv-x="845" d="M476 932H488L666 756L659 748L481 813L314 748L307 756L476 932ZM600 700H825V690H809Q788 690 773 677T756 643V257Q756 130 678 58T456 -14Q277 -14 188 56T99 256V640Q99 670 73 684Q61
690 46 690H30V700H373V690H357Q335 690 320 677T304 642V260Q304 155 352 96T486 37T620 92T669 247V642Q668 663 653 676T616 690H600V700Z" />
<glyph unicode="&#xdc;" glyph-name="Udieresis" horiz-adv-x="845" d="M379 755T349 755T296 777T274 829T296 881T348 903T400 882T422 830T401 777ZM641 755T611 755T559 777T537 829T558 881T610 903T662 882T684 830T663 777ZM600 700H825V690H809Q788 690
773 677T756 643V257Q756 130 678 58T456 -14Q277 -14 188 56T99 256V640Q99 670 73 684Q61 690 46 690H30V700H373V690H357Q335 690 320 677T304 642V260Q304 155 352 96T486 37T620 92T669 247V642Q668 663 653 676T616 690H600V700Z" />
<glyph unicode="&#xdd;" glyph-name="Yacute" horiz-adv-x="729" d="M418 761L411 768Q430 812 476 864T566 954Q630 927 651 854Q601 821 536 794T418 761ZM775 690H761Q731 690 704 673T660 631L464 322V73Q464 47 482 29T528 10H540V0H182V10H195Q221 10 239
28T259 72V322L68 633Q53 657 26 673T-31 690H-45V700H341V690H329Q307 690 295 670Q289 659 289 649T294 628L431 381L573 628Q579 638 579 648T572 669Q559 690 538 690H526V700H775V690Z" />
<glyph unicode="&#xde;" glyph-name="Thorn" horiz-adv-x="707" d="M693 353Q693 307 675 264T621 192Q558 141 487 141Q415 141 351 187V197Q387 203 405 216T435 241Q460 268 468 304T477 355Q477 434 443 471T352 508H325V73Q325 36 357 18Q371 10 389 10H401V0H43V10H55Q82
10 100 28T120 73V628Q119 654 101 672T56 690H43V700H401V690H389Q363 690 344 672T325 628V558H416Q582 558 650 479Q693 429 693 353Z" />
<glyph unicode="&#xdf;" glyph-name="germandbls" horiz-adv-x="1098" d="M514 202Q514 92 435 37Q365 -12 241 -12Q167 -12 118 4T49 45Q40 66 40 89T44 133Q55 186 79 216H85Q85 211 85 207Q85 140 133 87Q182 34 268 34Q319 34 345 57T371 110T348 163T271
209L166 258Q102 285 72 337Q49 377 49 425Q49 441 51 457Q73 612 241 612Q297 612 392 603H459L435 457H429Q429 506 394 535T305 565Q203 565 196 499Q193 467 220 448Q241 434 278 419L407 360Q460 337 487 296T514 202ZM1063 202Q1063 92 984 37Q914 -12 790
-12Q716 -12 667 4T598 45Q589 66 589 89T593 133Q604 186 628 216H634Q634 211 634 207Q634 140 682 87Q731 34 817 34Q868 34 894 57T920 110T897 163T820 209L715 258Q651 285 621 337Q598 377 598 425Q598 441 600 457Q622 612 790 612Q846 612 941 603H1008L984
457H978Q978 506 943 535T848 565Q786 565 760 534Q747 519 745 501T748 471T769 448Q790 434 827 419L956 360Q1009 337 1036 296T1063 202Z" />
<glyph unicode="&#xe0;" glyph-name="agrave" horiz-adv-x="632" d="M331 671L324 664Q272 670 207 697T92 757Q113 830 177 857Q220 820 266 768T331 671ZM668 10H676V0H325V10H332Q352 10 361 20T371 40T366 61L337 127H152L122 58Q118 49 118 40T127 21T157
10H164V0H-42V10H-34Q-13 10 8 22T42 59L248 503Q297 610 300 636H308L590 61Q616 10 668 10ZM171 172H317L244 340L171 172Z" />
<glyph unicode="&#xe1;" glyph-name="aacute" horiz-adv-x="632" d="M288 661L281 668Q299 712 345 764T435 854Q499 827 520 754Q470 721 405 694T288 661ZM668 10H676V0H324V10H332Q352 10 361 20T371 40T366 61L337 127H152L122 58Q118 49 118 40T127 21T157
10H164V0H-42V10H-34Q-13 10 8 22T42 59L248 503Q297 610 300 636H308L590 61Q616 10 668 10ZM171 172H317L244 340L171 172Z" />
<glyph unicode="&#xe2;" glyph-name="acircumflex" horiz-adv-x="632" d="M297 832H309L488 656L480 648L303 713L136 648L128 656L297 832ZM668 10H676V0H324V10H332Q352 10 361 20T371 40T366 61L337 127H152L122 58Q118 49 118 40T127 21T157 10H164V0H-42V10H-34Q-13
10 8 22T42 59L248 503Q297 610 300 636H308L590 61Q616 10 668 10ZM171 172H317L244 340L171 172Z" />
<glyph unicode="&#xe3;" glyph-name="atilde" horiz-adv-x="632" d="M500 819H512Q518 802 518 783T509 744Q488 694 448 676Q424 664 390 664T316 687Q300 696 278 705T242 717T218 719T193 713Q154 697 142 667H130Q127 682 127 703T136 747Q158 798 196 817Q219
829 248 829T331 802T430 775Q444 775 468 789T500 819ZM668 10H676V0H324V10H332Q352 10 361 20T371 40T366 61L337 127H151L122 58Q118 49 118 40T127 21T157 10H164V0H-42V10H-34Q-13 10 8 22T42 59L248 503Q296 610 300 636H308L590 61Q616 10 668 10ZM171
172H317L244 340L171 172Z" />
<glyph unicode="&#xe4;" glyph-name="adieresis" horiz-adv-x="632" d="M200 655T170 655T118 677T96 729T117 781T169 803T221 782T243 730T222 677ZM463 655T433 655T381 677T359 729T380 781T432 803T484 782T506 730T485 677ZM668 10H676V0H324V10H332Q352
10 361 20T371 40T366 61L337 127H152L122 58Q118 49 118 40T127 21T157 10H164V0H-42V10H-34Q-13 10 8 22T42 59L248 503Q297 610 300 636H308L590 61Q616 10 668 10ZM171 172H317L244 340L171 172Z" />
<glyph unicode="&#xe5;" glyph-name="aring" horiz-adv-x="632" d="M185 791T219 816T303 842T387 817T421 754T388 689T304 663T219 688T185 752ZM355 778T340 795T307 812T277 804Q253 788 253 758T267 711T303 694T340 710T355 752ZM668 10H676V0H324V10H332Q352
10 361 20T371 40T366 61L337 127H151L122 58Q118 49 118 40T127 21T157 10H164V0H-42V10H-34Q-13 10 8 22T42 59L248 503Q296 610 300 636H308L590 61Q616 10 668 10ZM171 172H317L244 340L171 172Z" />
<glyph unicode="&#xe6;" glyph-name="ae" horiz-adv-x="885" d="M358 10Q382 10 394 30Q400 39 400 50V271H266L135 61Q129 50 129 41T139 21T170 10H178V0H-31V10H-23Q14 10 52 63L389 547Q396 558 396 566Q396 590 370 590H366V599H721Q758 599 787 605T824
615V427L815 428V433Q815 488 785 519T699 553H592V316H673Q715 318 742 345T769 416V419H777V167H769V170Q769 213 743 240T674 271H592V46H684Q748 46 798 89T868 209H877L845 0H349L350 10H358ZM400 316V484L295 316H400Z" />
<glyph unicode="&#xe7;" glyph-name="ccedilla" horiz-adv-x="668" d="M365 -57Q379 -52 389 -52T409 -52T440 -57T472 -78T484 -105Q484 -151 452 -178Q410 -214 352 -214Q324 -214 295 -205L296 -195Q332 -195 366 -175T400 -114Q400 -98 384 -86Q353 -65 302
-81L297 -71L345 -9Q193 4 108 84T23 306T123 530T404 612Q531 612 622 576L609 406H602Q576 494 532 530T421 567Q322 567 275 497T227 304T273 109T404 33Q474 33 510 54Q549 76 569 122Q588 166 606 250H613L639 90Q579 -12 404 -12L365 -57Z" />
<glyph unicode="&#xe8;" glyph-name="egrave" horiz-adv-x="575" d="M315 671L308 664Q255 671 190 697T75 757Q96 830 160 857Q203 820 249 768T315 671ZM21 0V10H32Q53 10 64 21Q84 40 84 62V537Q84 560 69 575T32 590H21V600H411Q436 600 467 605T510 615V426H500V431Q500
489 470 521T383 554H280V319H357Q401 320 428 348T456 422V424H466V166H456V170Q456 214 429 243T357 272H280V46H376Q436 46 485 90T552 210H561L533 0H21Z" />
<glyph unicode="&#xe9;" glyph-name="eacute" horiz-adv-x="575" d="M271 661L264 668Q283 713 329 765T418 854Q482 827 504 754Q434 708 370 687T271 661ZM21 0V10H32Q53 10 64 21Q84 40 84 62V537Q84 560 69 575T32 590H21V600H411Q436 600 467 605T510 615V426H500V431Q500
489 470 521T383 554H280V319H357Q401 320 428 348T456 422V424H466V166H456V170Q456 214 429 243T357 272H280V46H376Q436 46 485 90T552 210H561L533 0H21Z" />
<glyph unicode="&#xea;" glyph-name="ecircumflex" horiz-adv-x="575" d="M280 832H292L471 657L464 649L286 713L119 649L112 657L280 832ZM21 0V10H32Q53 10 64 21Q84 40 84 62V537Q84 560 69 575T32 590H21V600H411Q436 600 467 605T510 615V426H500V431Q500
489 470 521T383 554H280V319H357Q401 320 428 348T456 422V424H466V166H456V170Q456 214 429 243T357 272H280V46H376Q436 46 485 90T552 210H561L533 0H21Z" />
<glyph unicode="&#xeb;" glyph-name="edieresis" horiz-adv-x="575" d="M183 656T153 656T101 677T79 729T100 781T152 803T205 782T227 730T205 678ZM446 656T416 656T364 677T342 729T363 781T415 803T467 782T489 730T468 678ZM21 0V10H32Q53 10 64 21Q84 40
84 62V537Q84 560 69 575T32 590H21V600H411Q436 600 467 605T510 615V426H500V431Q500 509 447 538Q421 553 383 554H280V319H357Q401 320 428 348T456 422V424H466V166H456V170Q456 214 429 243T357 272H280V46H376Q436 46 485 90T552 210H561L533 0H21Z" />
<glyph unicode="&#xec;" glyph-name="igrave" horiz-adv-x="362" d="M206 671L199 664Q146 671 81 697T-34 757Q-14 830 51 857Q94 820 140 768T206 671ZM331 10H342V0H21V10H32Q53 10 68 25T83 62V538Q83 560 68 575T32 590H21V600H341V590H331Q301 590 287 565Q280
553 279 538V62Q280 27 311 14Q321 10 331 10Z" />
<glyph unicode="&#xed;" glyph-name="iacute" horiz-adv-x="362" d="M162 662L155 669Q174 713 220 765T310 854Q374 827 395 754Q345 721 280 695T162 662ZM331 10H342V0H21V10H32Q53 10 68 25T83 62V538Q83 560 68 575T32 590H21V600H341V590H331Q301 590 287
565Q280 553 279 538V62Q280 27 311 14Q321 10 331 10Z" />
<glyph unicode="&#xee;" glyph-name="icircumflex" horiz-adv-x="362" d="M172 832H184L362 657L355 649L177 713L10 649L3 657L172 832ZM331 10H342V0H21V10H32Q53 10 68 25T83 62V538Q83 560 68 575T32 590H21V600H341V590H331Q310 590 295 575T279 538V62Q280
27 311 14Q321 10 331 10Z" />
<glyph unicode="&#xef;" glyph-name="idieresis" horiz-adv-x="362" d="M75 656T45 656T-8 677T-30 729T-8 781T44 803T96 782T118 730T97 678ZM337 656T307 656T255 677T233 729T254 781T306 803T358 782T380 730T359 678ZM331 10H342V0H21V10H32Q53 10 68 25T83
62V538Q83 560 68 575T32 590H21V600H341V590H331Q301 590 287 565Q280 553 279 538V62Q280 40 295 25T331 10Z" />
<glyph unicode="&#xf0;" glyph-name="eth" horiz-adv-x="741" d="M717 442T717 300T623 79T359 0H19V10H31Q54 10 66 21Q87 40 87 62V278H20V323H87V539Q86 561 70 575T30 590H18V600H359Q529 600 623 521ZM283 278V46H340Q420 46 466 113T512 300Q512 462 432
525Q393 555 340 555H283V323H388V278H283Z" />
<glyph unicode="&#xf1;" glyph-name="ntilde" horiz-adv-x="779" d="M557 819H570Q576 802 576 783T567 744Q545 694 506 676Q482 664 451 664T370 689Q321 714 303 716T271 719T232 703T200 667H187Q184 681 184 696Q184 756 228 799Q259 829 296 829T388 802T487
775Q502 775 526 789T557 819ZM768 590H751Q728 590 712 576T696 541V97Q696 32 705 -1L708 -12H699L279 341V60Q280 39 295 25T334 10H350V0H12V10H28Q51 10 67 24T83 60V507Q83 567 74 602L71 613H80L499 259V540Q499 570 472 584Q460 590 445 590H428V600H768V590Z"
/>
<glyph unicode="&#xf2;" glyph-name="ograve" horiz-adv-x="779" d="M417 672L410 665Q357 671 292 698T177 758Q198 831 262 857Q305 820 351 768T417 672ZM25 448T121 530T389 612T657 530T754 300T658 70T390 -12T122 70T25 300ZM229 172T270 103T389 33T508
102T549 299Q549 472 477 535Q441 567 389 567Q311 567 270 498T229 300Z" />
<glyph unicode="&#xf3;" glyph-name="oacute" horiz-adv-x="779" d="M373 662L366 669Q385 713 431 765T521 855Q585 828 606 755Q556 722 491 695T373 662ZM25 448T121 530T389 612T657 530T754 300T658 70T390 -12T122 70T25 300ZM229 172T270 103T389 33T508
102T549 299Q549 472 477 535Q441 567 389 567Q311 567 270 498T229 300Z" />
<glyph unicode="&#xf4;" glyph-name="ocircumflex" horiz-adv-x="779" d="M383 833H395L573 657L566 649L388 714L221 649L214 657L383 833ZM25 448T121 530T389 612T657 530T754 300T658 70T390 -12T122 70T25 300ZM229 172T270 103T389 33T508 102T549 300T508
497T389 567T270 498T229 300Z" />
<glyph unicode="&#xf5;" glyph-name="otilde" horiz-adv-x="779" d="M585 820H597Q603 803 603 784T595 745Q573 695 534 676Q510 665 479 665T398 690Q349 714 331 717T299 720T260 704T227 668H215Q211 681 211 697Q211 757 256 800Q287 830 324 830T416 803T515
776Q530 776 554 790T585 820ZM25 448T121 530T389 612T657 530T754 300T658 70T390 -12T122 70T25 300ZM229 172T270 103T389 33T508 102T549 299Q549 472 477 535Q441 567 389 567Q311 567 270 497T229 300Z" />
<glyph unicode="&#xf6;" glyph-name="odieresis" horiz-adv-x="779" d="M286 656T256 656T203 678T181 730T203 782T255 804T307 783T329 731T308 678ZM548 656T518 656T466 678T444 730T465 782T517 804T569 783T591 731T570 678ZM25 448T121 530T389 612T657
530T754 300T658 70T390 -12T122 70T25 300ZM229 172T270 103T389 33T508 102T549 299Q549 472 477 535Q441 567 389 567Q311 567 270 498T229 300Z" />
<glyph unicode="&#xf7;" glyph-name="divide" horiz-adv-x="481" d="M262 416T241 416T204 431T188 468T203 505T240 520T277 505T293 469T278 432ZM40 277V342H442V277H40ZM262 100T241 100T204 115T188 152T203 189T240 204T277 189T293 153T278 116Z" />
<glyph unicode="&#xf8;" glyph-name="oslash" horiz-adv-x="779" d="M754 299Q754 152 658 70T389 -12Q275 -12 192 25L143 -33L99 3L142 54Q25 136 25 292T121 530T389 612Q500 612 583 574L641 643L684 608L632 546Q754 462 754 299ZM512 490Q471 567 391 567T270
498T229 299Q229 227 243 173L512 490ZM265 112Q306 33 386 33T508 102T549 299Q549 375 534 431L265 112Z" />
<glyph unicode="&#xf9;" glyph-name="ugrave" horiz-adv-x="708" d="M425 671L418 664Q365 670 300 697T185 757Q206 830 270 857Q332 804 372 753T425 671ZM697 592H684Q666 592 653 580T640 549V223Q640 112 574 50T386 -12Q76 -12 76 221V549Q76 575 54 587Q44
592 32 592H19V600H329V592H315Q297 592 285 580T272 549V223Q272 103 339 58Q372 36 418 36Q486 36 523 82T561 212V549Q560 575 539 587Q529 592 517 592H504V600H697V592Z" />
<glyph unicode="&#xfa;" glyph-name="uacute" horiz-adv-x="708" d="M381 661L374 668Q393 712 439 764T528 854Q592 827 614 754Q564 721 499 694T381 661ZM697 592H684Q666 592 653 580T640 549V223Q640 112 574 50T386 -12Q76 -12 76 221V549Q76 575 54 587Q44
592 32 592H19V600H329V592H315Q297 592 285 580T272 549V223Q272 103 339 58Q372 36 418 36Q486 36 523 82T561 212V549Q560 575 539 587Q529 592 517 592H504V600H697V592Z" />
<glyph unicode="&#xfb;" glyph-name="ucircumflex" horiz-adv-x="708" d="M390 832H402L581 656L574 648L396 713L229 648L222 656L390 832ZM697 592H684Q666 592 653 580T640 549V223Q640 112 574 50T386 -12Q76 -12 76 221V549Q76 575 54 587Q44 592 32 592H19V600H329V592H315Q297
592 285 580T272 549V223Q272 134 310 85T417 36T523 82T561 212V549Q560 568 548 580T517 592H504V600H697V592Z" />
<glyph unicode="&#xfc;" glyph-name="udieresis" horiz-adv-x="708" d="M293 655T263 655T211 677T189 729T210 781T262 803T315 782T337 730T315 677ZM556 655T526 655T474 677T452 729T473 781T525 803T577 782T599 730T578 677ZM697 592H684Q666 592 653 580T640
549V223Q640 112 574 50T386 -12Q76 -12 76 221V549Q76 578 49 589Q41 592 32 592H19V600H329V592H315Q297 592 285 580T272 549V223Q272 103 339 58Q372 36 418 36Q486 36 523 82T561 212V549Q560 568 548 580T517 592H504V600H697V592Z" />
<glyph unicode="&#xfd;" glyph-name="yacute" horiz-adv-x="633" d="M356 661L349 668Q368 712 414 764T504 854Q568 827 589 754Q539 721 474 694T356 661ZM684 590H671Q645 590 623 577T586 543L417 279V62Q418 31 445 17Q457 10 472 10H483V0H155V10H167Q189
10 205 25T221 62V278L49 543Q35 563 12 576T-36 590H-48V600H302V590H292Q273 590 265 578T257 556T262 539L386 329L507 539Q512 547 512 555T504 577T477 590H467V600H684V590Z" />
<glyph unicode="&#xfe;" glyph-name="thorn" horiz-adv-x="600" d="M616 303Q616 264 601 226Q570 152 484 126Q462 119 441 119Q373 119 317 161L316 169Q361 174 391 225Q415 264 415 316Q415 373 386 404T309 436H295V63Q295 32 322 17Q335 10 350 10H360L361
0H37V10H48Q71 10 87 25T103 63V538Q103 560 87 575T48 590H37V600H361L360 590H350Q318 590 302 565Q295 553 294 538V481H370Q495 481 553 435Q616 386 616 303Z" />
<glyph unicode="&#xff;" glyph-name="ydieresis" horiz-adv-x="633" d="M269 655T239 655T187 677T165 729T186 781T238 803T290 782T312 730T291 677ZM532 655T502 655T449 677T427 729T449 781T501 803T553 782T575 730T554 677ZM684 590H671Q645 590 623 577T586
543L417 279V62Q417 40 433 25T472 10H483V0H155V10H167Q189 10 205 25T221 62V278L49 543Q30 571 6 580T-36 590H-48V600H302V590H292Q273 590 265 578T257 556T262 539L386 329L507 539Q512 547 512 555T504 577T477 590H466V600H684V590Z" />
<glyph unicode="&#x2013;" glyph-name="endash" horiz-adv-x="500" d="M0 261V321H500V261H0Z" />
<glyph unicode="&#x2014;" glyph-name="emdash" horiz-adv-x="800" d="M0 261V321H800V261H0Z" />
<glyph unicode="&#x2018;" glyph-name="quoteleft" horiz-adv-x="278" d="M221 821T209 808T192 782T187 758Q187 723 215 691T243 618Q243 564 207 538Q183 520 160 520Q80 520 52 583Q35 624 35 663T52 738Q89 815 157 838Q180 845 199 845T233 843L237 828Q221
821 209 808Z" />
<glyph unicode="&#x2019;" glyph-name="quoteright" horiz-adv-x="268" d="M80 591Q87 604 87 612T88 629Q88 655 62 685T35 755Q35 807 69 831Q93 849 114 849Q190 849 217 789Q233 750 233 712T217 641Q182 568 117 546Q95 539 77 539T45 541L41 555Q67 566 80 591Z" />
<glyph unicode="&#x201a;" glyph-name="quotesinglbase" horiz-adv-x="278" d="M41 -127Q75 -112 86 -80Q91 -66 91 -56Q91 -22 63 10T35 83Q35 137 71 163Q96 182 118 182Q198 182 227 118Q243 78 243 39T226 -37Q189 -113 121 -136Q98 -144 79 -144T46 -141L41 -127Z" />
<glyph unicode="&#x201c;" glyph-name="quotedblleft" horiz-adv-x="528" d="M221 821T209 808T192 782T187 758Q187 723 215 691T243 618Q243 564 207 538Q183 520 160 520Q80 520 52 583Q35 624 35 663T52 738Q89 815 157 838Q180 845 199 845T233 843L237 828Q221
821 209 808ZM462 821T450 808T433 782T428 758Q428 723 456 691T484 618Q484 564 448 538Q424 520 401 520Q321 520 293 583Q276 624 276 663T293 738Q330 815 398 838Q421 845 440 845T474 843L478 828Q462 821 450 808Z" />
<glyph unicode="&#x201d;" glyph-name="quotedblright" horiz-adv-x="498" d="M80 591Q87 604 87 612T88 629Q88 655 62 685T35 755Q35 807 69 831Q93 849 114 849Q190 849 217 789Q233 750 233 712T217 641Q182 568 117 546Q95 539 77 539T45 541L41 555Q67 566
80 591ZM310 591Q317 604 317 612T318 629Q318 655 292 685T265 755Q265 807 299 831Q323 849 344 849Q420 849 447 789Q463 754 463 722T455 662T429 610Q380 539 302 539Q289 539 275 541L271 555Q297 566 310 591Z" />
<glyph unicode="&#x201e;" glyph-name="quotedblbase" horiz-adv-x="518" d="M41 -134Q75 -119 86 -87Q91 -74 91 -63Q91 -29 63 3T35 76Q35 130 71 156Q96 175 118 175Q198 175 227 111Q243 71 243 32T226 -44Q189 -120 121 -143Q98 -151 79 -151T46 -148L41
-134ZM282 -134Q315 -119 326 -87Q331 -74 331 -63Q331 -29 303 3T275 76Q275 130 311 156Q336 175 358 175Q438 175 467 111Q483 71 483 32T466 -44Q429 -120 361 -143Q338 -151 319 -151T286 -148L282 -134Z" />
<glyph unicode="&#x2022;" glyph-name="bullet" horiz-adv-x="389" d="M205 188T195 188T175 192Q111 213 93 231T54 313Q50 323 50 333T54 353Q75 417 93 435T175 474Q185 477 195 477T215 474Q279 453 297 435T336 353Q339 343 339 333T332 299T317 261T296
231T266 210T228 196Z" />
<glyph unicode="&#x2039;" glyph-name="guilsinglleft" horiz-adv-x="333" d="M265 490L273 485L195 292L274 95L265 88L40 292L265 490Z" />
<glyph unicode="&#x203a;" glyph-name="guilsinglright" horiz-adv-x="333" d="M69 88L60 95L139 292L61 485L69 490L294 292L69 88Z" />
</font>
</defs>
</svg>
