<?xml version="1.0" standalone="no"?>
<!DOCTYPE svg PUBLIC "-//W3C//DTD SVG 1.1//EN" "http://www.w3.org/Graphics/SVG/1.1/DTD/svg11.dtd">
<svg xmlns="http://www.w3.org/2000/svg">
<defs >
<font id="AlegreyaSansSC" horiz-adv-x="513" ><font-face
    font-family="Alegreya Sans SC Medium"
    units-per-em="1000"
    panose-1="0 0 6 0 0 0 0 0 0 0"
    ascent="900"
    descent="-300"
    alphabetic="0" />
<glyph unicode=" " glyph-name="space" horiz-adv-x="141" />
<glyph unicode="!" glyph-name="exclam" horiz-adv-x="230" d="M197 498L137 170L82 163L72 172L110 495L120 506L187 509L197 498ZM111 94T123 82T136 46Q136 23 123 9T86 -5Q63 -5 51 7T38 42Q38 66 51 80T88 94Q111 94 123 82Z" />
<glyph unicode="&quot;" glyph-name="quotedbl" horiz-adv-x="315" d="M170 493L118 298L69 291L62 298L89 495L164 501L170 493ZM297 493L245 298L196 291L189 298L216 495L292 501L297 493Z" />
<glyph unicode="#" glyph-name="numbersign" horiz-adv-x="526" d="M389 362L365 250H466L472 243L467 191H352L318 32H262L256 39L288 191H182L148 32H91L86 39L118 191H27L20 198L24 250H131L155 362H61L54 369L59 420H167L200 574H256L262 565L231 420H337L370
574H426L433 565L402 420H500L507 414L501 362H389ZM325 362H219L195 250H301L325 362Z" />
<glyph unicode="$" glyph-name="dollar" horiz-adv-x="426" d="M319 431T278 439L257 280Q311 255 341 227T371 151Q371 98 331 54T221 -2L205 -131H157L149 -122L164 -6Q128 -4 91 4T23 27L41 108L52 113Q75 89 108 74T171 57L192 219Q135 245 104 273T72 351Q72
407 114 450T229 502L245 641H293L302 632L285 503Q346 500 392 480L371 403L357 399Q319 431 278 439ZM153 346T166 332T204 305L221 437Q189 430 171 410T153 366Q153 346 166 332ZM290 168T246 193L229 63Q257 73 273 92T290 134Q290 168 246 193Z" />
<glyph unicode="%" glyph-name="percent" horiz-adv-x="841" d="M705 656L710 641L150 -91L111 -66L107 -54L668 681L705 656ZM305 647T337 611T370 508Q370 405 324 348T190 290Q129 290 97 326T64 430Q64 532 111 589T244 647Q305 647 337 611ZM180 581T154
545T128 442Q128 352 201 352Q254 352 279 388T305 492Q305 581 230 581Q180 581 154 545ZM733 351T765 316T798 212Q798 110 752 53T618 -5Q557 -5 525 31T492 135Q492 236 539 293T672 351Q733 351 765 316ZM608 286T582 250T556 147Q556 57 629 57Q682 57 707
93T733 196Q733 286 658 286Q608 286 582 250Z" />
<glyph unicode="&amp;" glyph-name="ampersand" horiz-adv-x="745" d="M809 295Q789 260 765 242T706 220Q677 220 600 235Q592 162 553 106T450 20T305 -11Q183 -11 114 59T44 251Q44 328 71 386T144 476T248 508Q303 508 334 482T365 414Q365 409 363 393Q452
462 521 543T628 711H637Q666 682 676 646Q641 567 558 478T363 312T138 190Q153 129 197 95T313 61Q373 61 421 84T497 150T529 249Q500 255 481 255Q458 255 440 242T405 198L394 197L377 252Q398 287 422 304T482 326Q512 326 593 309Q603 307 643 300T705 292Q732
292 750 305T782 348L793 349L809 295ZM192 443T161 394T129 264V259Q189 282 262 325Q285 342 294 361T302 399Q300 421 285 432T246 443Q192 443 161 394Z" />
<glyph unicode="&apos;" glyph-name="quotesingle" horiz-adv-x="180" d="M170 493L118 298L69 291L62 298L89 495L164 501L170 493Z" />
<glyph unicode="(" glyph-name="parenleft" horiz-adv-x="290" d="M323 630L322 622Q220 547 181 415T141 152Q141 63 161 5T233 -101L232 -109L192 -141H183Q117 -87 90 -20T62 153Q62 301 111 441T282 662H291L323 630Z" />
<glyph unicode=")" glyph-name="parenright" horiz-adv-x="306" d="M-28 -109L-27 -101Q75 -26 114 106T154 369Q154 458 134 516T62 622L63 630L103 662H112Q178 608 205 541T233 368Q233 220 184 80T13 -141H4L-28 -109Z" />
<glyph unicode="*" glyph-name="asterisk" horiz-adv-x="378" d="M281 729L256 609L219 604L213 612L211 726Q242 737 277 737L281 729ZM199 597L194 560L185 556L83 590Q83 630 92 657L101 659L199 597ZM394 604T402 575L398 570L284 556L268 590L272 599L372
636Q394 604 402 575ZM279 537L342 445Q326 420 295 397L287 398L243 513L269 538L279 537ZM223 520L224 510L166 416Q142 423 104 446V454L191 537L223 520Z" />
<glyph unicode="+" glyph-name="plus" horiz-adv-x="477" d="M302 468L280 297H450L458 290L444 230H272L251 57L190 52L184 59L204 230H33L28 237L41 297H212L234 470L295 476L302 468Z" />
<glyph unicode="," glyph-name="comma" horiz-adv-x="229" d="M149 73T149 29Q149 -43 46 -118L13 -89V-81Q68 -37 68 10Q68 39 37 62V71Q71 92 106 102Q149 73 149 29Z" />
<glyph unicode="-" glyph-name="hyphen" horiz-adv-x="306" d="M286 298L278 237L34 202L26 210L34 272L278 306L286 298Z" />
<glyph unicode="." glyph-name="period" horiz-adv-x="230" d="M119 104T132 90T146 51Q146 25 131 10T91 -5Q66 -5 53 9T39 48Q39 74 54 89T95 104Q119 104 132 90Z" />
<glyph unicode="/" glyph-name="slash" horiz-adv-x="286" d="M321 669L61 -114H-7L-12 -105L248 679H314L321 669Z" />
<glyph unicode="0" glyph-name="zero" horiz-adv-x="529" d="M392 507T441 453T490 287Q490 200 461 134T374 30T237 -8Q143 -8 94 46T44 211Q44 297 74 364T162 469T300 507Q392 507 441 453ZM206 418T164 366T122 223Q122 149 151 114T246 78Q327 78 369 129T412
271Q412 346 382 382T286 418Q206 418 164 366Z" />
<glyph unicode="1" glyph-name="one" horiz-adv-x="349" d="M269 495L228 207L208 0H110L139 196L163 394L35 360L27 365L36 442L257 505L269 495Z" />
<glyph unicode="2" glyph-name="two" horiz-adv-x="461" d="M320 505T358 475T396 395Q396 354 364 309T244 173L154 79L156 75H321L408 82L414 76L392 -4L284 0H59L22 -2L16 2L24 62L177 211Q242 274 269 309T297 372Q297 395 281 408T234 422Q201 422 163 405T91
357H79L73 432Q170 505 260 505Q320 505 358 475Z" />
<glyph unicode="3" glyph-name="three" horiz-adv-x="419" d="M289 506T331 473T374 385Q374 342 344 299T255 229V225Q306 210 332 180T358 101Q358 45 325 0T233 -71T103 -97Q51 -97 -2 -86L2 -2L11 6Q60 -20 113 -20Q180 -20 221 11T263 95Q263 132 237 153T158
177H96L91 183L102 251L148 252Q175 252 204 266T252 307T272 364Q272 393 253 409T200 426Q169 426 138 412T70 370H59L55 445Q98 476 137 491T217 506Q289 506 331 473Z" />
<glyph unicode="4" glyph-name="four" horiz-adv-x="488" d="M433 68L342 70L327 -84L320 -91L245 -97L240 -90L263 70H85L12 68L6 77L13 141L305 501H396L351 145H441L446 136L433 68ZM100 145H274L304 386H297L100 145Z" />
<glyph unicode="5" glyph-name="five" horiz-adv-x="422" d="M412 498L393 422L385 415L306 422H170L151 281L213 268Q365 236 365 116Q365 57 331 8T236 -69T102 -98Q58 -98 -1 -87L3 -4L11 4Q67 -22 122 -22Q189 -22 230 13T272 104Q272 175 174 195L76 213L69
221L102 490L118 503L173 501H310L407 505L412 498Z" />
<glyph unicode="6" glyph-name="six" horiz-adv-x="474" d="M219 466T153 322L159 314Q191 334 218 343T275 353Q320 353 355 332T411 276T431 197Q431 152 411 105T344 25T223 -8Q133 -8 85 43T37 183Q37 259 72 335T184 480T381 594H386L458 550L457 540Q219
466 153 322ZM223 283T191 270T128 230Q126 202 126 188Q126 128 148 95T227 61Q288 61 314 97T341 187Q341 233 319 258T253 283Q223 283 191 270Z" />
<glyph unicode="7" glyph-name="seven" horiz-adv-x="423" d="M157 501H383L427 503L420 431L185 28L121 -101L44 -77L40 -61L324 420H131L49 411L43 421L60 504L157 501Z" />
<glyph unicode="8" glyph-name="eight" horiz-adv-x="482" d="M351 593T394 557T438 458Q438 405 408 370T327 309L326 304Q373 280 398 250T424 166Q424 116 399 77T327 15T219 -8Q135 -8 86 32T36 139Q36 195 71 230T169 293L170 298Q132 320 111 348T90 425Q90
474 113 512T180 571T278 593Q351 593 394 557ZM229 525T200 500T170 433Q170 395 192 375T259 335Q306 356 332 381T359 449Q359 485 338 505T276 525Q229 525 200 500ZM179 244T149 220T119 151Q119 108 145 84T221 59Q275 59 309 88T343 160Q343 199 317 220T235
265Q179 244 149 220Z" />
<glyph unicode="9" glyph-name="nine" horiz-adv-x="474" d="M346 509T394 458T442 318Q442 242 407 166T295 21T98 -93H93L21 -49L22 -39Q260 35 326 179L320 187Q288 167 261 158T204 148Q159 148 124 169T68 225T48 304Q48 349 68 396T135 476T256 509Q346
509 394 458ZM256 218T288 231T351 271Q353 299 353 313Q353 373 331 406T252 440Q191 440 165 404T138 314Q138 268 160 243T226 218Q256 218 288 231Z" />
<glyph unicode=":" glyph-name="colon" horiz-adv-x="229" d="M374 104T387 90T401 51Q401 25 386 10T346 -5Q321 -5 308 9T294 48Q294 74 309 89T350 104Q374 104 387 90ZM151 371T164 357T178 318Q178 292 163 277T123 262Q98 262 85 276T71 315Q71 341 86 356T127
371Q151 371 164 357Z" />
<glyph unicode=";" glyph-name="semicolon" horiz-adv-x="229" d="M403 73T403 29Q403 -43 300 -118L267 -89V-81Q322 -37 322 10Q322 39 291 62V71Q325 92 360 102Q403 73 403 29ZM149 371T162 357T176 318Q176 292 161 277T121 262Q96 262 83 276T69 315Q69
341 84 356T125 371Q149 371 162 357Z" />
<glyph unicode="&lt;" glyph-name="less" horiz-adv-x="497" d="M463 410L458 401L111 268V262L426 136L405 81L394 74L34 223L43 303L52 313L449 466L463 410Z" />
<glyph unicode="=" glyph-name="equal" horiz-adv-x="478" d="M469 376L463 316H52L45 323L51 383H461L469 376ZM703 459L697 399H286L279 406L285 466H695L703 459Z" />
<glyph unicode="&gt;" glyph-name="greater" horiz-adv-x="503" d="M469 313L475 303L466 223L67 74L58 81L51 136L398 262V268L84 401L81 410L109 466L469 313Z" />
<glyph unicode="?" glyph-name="question" horiz-adv-x="282" d="M187 504T241 473T296 387Q296 353 273 321T209 268L138 231L136 227L131 167L71 159L64 166L67 249L71 259L148 300Q204 329 208 370Q213 403 178 421T60 443L53 452L76 504L86 510Q187 504 241
473ZM108 92T120 79T133 44Q133 21 119 8T82 -6Q60 -6 48 6T36 40Q36 64 49 78T86 92Q108 92 120 79Z" />
<glyph unicode="@" glyph-name="at" horiz-adv-x="831" d="M804 160T713 81T452 -3L479 186H468Q399 68 321 -8H305Q220 35 220 152Q220 222 247 288T328 403T458 465H463L530 442L586 466L596 460L547 111L545 67Q636 79 687 140T738 300Q738 377 704 435T607
526T459 558Q353 558 272 512T145 385T100 199Q100 92 147 15T281 -104T482 -145L486 -155L457 -202Q330 -201 234 -154T86 -20T33 187Q33 312 86 411T238 565T463 621Q565 621 642 582T762 471T804 303Q804 160 713 81ZM342 88T369 118T432 208T502 347L503 355L504
370L441 393Q377 393 339 332T301 179Q301 130 309 109T330 88Q342 88 369 118Z" />
<glyph unicode="A" glyph-name="A" horiz-adv-x="561" d="M517 -2H417L410 69L394 162L264 165L147 163L107 74L80 -2H-18L282 643H398L517 -2ZM380 244L329 545H321L184 244L281 242L380 244Z" />
<glyph unicode="B" glyph-name="B" horiz-adv-x="532" d="M441 315T468 283T495 200Q495 -6 207 -6Q112 -6 56 -2H55L86 192L137 643L323 644Q406 644 452 609T498 507Q498 446 469 402T384 334Q441 315 468 283ZM395 531T371 549T292 567H225L197 366L296 363Q395
386 395 490Q395 531 371 549ZM309 72T351 104T394 197Q394 274 300 289L186 287L174 200L162 76Q212 72 231 72Q309 72 351 104Z" />
<glyph unicode="C" glyph-name="C" horiz-adv-x="503" d="M464 650T532 605L502 516L492 514Q434 567 354 567Q255 567 201 491T146 272Q146 176 184 126T294 75Q335 75 377 89T456 131L465 125L445 34Q403 11 364 1T279 -9Q165 -9 103 60T41 256Q41 378 79 467T191
603T366 650Q464 650 532 605Z" />
<glyph unicode="D" glyph-name="D" horiz-adv-x="627" d="M481 646T545 581T610 395Q610 271 571 181T455 43T269 -6Q227 -6 168 -5T58 0H57L87 193L138 642H139L363 646Q481 646 545 581ZM393 73T449 150T506 378Q506 473 468 519T352 565Q298 565 226 561L175
201L164 80Q199 77 233 75T289 73Q393 73 449 150Z" />
<glyph unicode="E" glyph-name="E" horiz-adv-x="475" d="M226 561L199 369L312 367L413 370L418 362L401 285L293 288L188 287L176 200L163 80L283 78L431 84L435 75L419 -2H55L86 192L137 643H502L506 635L489 558L344 562L226 561Z" />
<glyph unicode="F" glyph-name="F" horiz-adv-x="426" d="M226 561L197 354L293 352L397 355L402 347L385 271L275 274L186 273L176 200L155 -2H55L86 192L137 643H481L487 635L468 556L326 562L226 561Z" />
<glyph unicode="G" glyph-name="G" horiz-adv-x="578" d="M487 648T570 605L537 513L527 511Q483 541 447 553T368 566Q142 566 142 256Q142 162 181 118T304 74Q327 74 350 78T411 95L422 162L433 264L525 271L512 176L497 31Q439 11 393 2T296 -8Q171 -8 106
59T41 249Q41 440 131 544T387 648Q487 648 570 605Z" />
<glyph unicode="H" glyph-name="H" horiz-adv-x="662" d="M631 643L570 200L549 -2H450L480 192L490 281L330 284L186 281L175 200L155 -2H55L85 192L135 643H236L198 366L348 363L499 366L530 643H631Z" />
<glyph unicode="I" glyph-name="I" horiz-adv-x="270" d="M175 201L156 0H57L86 193L137 642H236L175 201Z" />
<glyph unicode="J" glyph-name="J" horiz-adv-x="311" d="M213 212L204 118Q193 40 147 -10T-3 -105L-31 -51L-30 -40Q41 -4 73 31T112 119L123 202L163 566L49 565L41 572L55 644H273L213 212Z" />
<glyph unicode="K" glyph-name="K" horiz-adv-x="539" d="M175 201L155 0H56L86 193L137 642H236L175 201ZM303 337Q392 186 517 21L514 9Q463 -3 417 -9L407 -4Q285 181 200 336L201 342L424 584L469 642H577L303 337Z" />
<glyph unicode="L" glyph-name="L" horiz-adv-x="409" d="M388 74L371 0H56L87 193L137 642H236L176 201L164 82H383L388 74Z" />
<glyph unicode="M" glyph-name="M" horiz-adv-x="761" d="M680 -2H591L604 194L613 492H605L395 70H315L219 492H211L147 203L106 -2H22L167 643H280L297 547L372 199H380L550 550L590 643H703L680 -2Z" />
<glyph unicode="N" glyph-name="N" horiz-adv-x="662" d="M567 191L547 0H443L213 488H206L171 214L148 0H57L86 190L139 642H242L472 153H479L537 637L630 644L567 191Z" />
<glyph unicode="O" glyph-name="O" horiz-adv-x="618" d="M477 651T540 583T603 389Q603 267 565 177T455 39T279 -10Q167 -10 104 59T41 257Q41 442 125 546T363 651Q477 651 540 583ZM246 569T195 493T144 262Q144 164 179 117T289 70Q498 70 498 379Q498 476
462 522T352 569Q246 569 195 493Z" />
<glyph unicode="P" glyph-name="P" horiz-adv-x="514" d="M421 644T469 602T517 474Q517 401 484 343T391 251T249 218H178L176 200L155 -2H55L86 192L136 643L336 644Q421 644 469 602ZM348 305T381 350T414 460Q414 511 390 537T308 566L226 563L189 298L294
295Q348 305 381 350Z" />
<glyph unicode="Q" glyph-name="Q" horiz-adv-x="617" d="M680 -129Q661 -164 635 -192L627 -195Q533 -170 448 -122T294 -8H279Q168 -8 106 61T43 257Q43 441 126 545T363 649Q476 649 538 582T601 389Q601 241 546 142T388 9Q516 -85 678 -117L680 -129ZM144
165T179 118T289 71Q497 71 497 379Q497 476 462 522T352 568Q247 568 196 492T144 262Q144 165 179 118Z" />
<glyph unicode="R" glyph-name="R" horiz-adv-x="547" d="M516 409T477 350T367 257Q424 138 493 23L491 12Q442 -5 395 -9L385 -1Q321 134 283 231H179L175 201L156 0H57L86 193L138 642L338 643Q421 643 468 602T516 484Q516 409 477 350ZM191 311L298 308Q413
344 413 468Q413 560 308 565L226 562L191 311Z" />
<glyph unicode="S" glyph-name="S" horiz-adv-x="464" d="M385 650T458 619L431 528L415 522Q357 570 292 570Q241 570 210 543T179 478Q179 445 204 422T282 367Q327 340 355 318T404 263T424 186Q424 132 394 88T311 17T191 -9Q147 -9 100 2T13 34L38 133L51
138Q82 104 123 87T203 69Q256 69 289 97T322 166Q322 201 297 224T220 279Q175 306 148 327T101 381T81 459Q81 512 110 556T191 625T307 650Q385 650 458 619Z" />
<glyph unicode="T" glyph-name="T" horiz-adv-x="475" d="M509 635L492 559L383 565H330L280 200L260 -2H160L191 192L232 565H180L65 559L60 568L77 643H505L509 635Z" />
<glyph unicode="U" glyph-name="U" horiz-adv-x="606" d="M547 315L538 241Q524 121 458 57T276 -8Q177 -8 121 41T65 180Q65 205 68 233L81 321L118 642H215L162 246Q159 222 159 203Q159 77 283 77Q429 77 447 236L492 642H590L547 315Z" />
<glyph unicode="V" glyph-name="V" horiz-adv-x="548" d="M298 -2H181L61 643H162L168 571L251 96H257L472 566L499 643H596L298 -2Z" />
<glyph unicode="W" glyph-name="W" horiz-adv-x="859" d="M611 0H509L444 351H436L280 0H176L71 642H167L169 575L245 105H252L419 482L390 642H491L496 565L574 105H581L788 569L812 642H904L611 0Z" />
<glyph unicode="X" glyph-name="X" horiz-adv-x="573" d="M361 329L521 -2H405L386 55L284 257L126 49L93 -2H-10L234 327L79 643H194L214 588L309 398L452 590L485 643H591L361 329Z" />
<glyph unicode="Y" glyph-name="Y" horiz-adv-x="518" d="M296 227L289 183L270 -2H170L200 183L204 227L60 643H163L171 604L260 330H268L437 602L458 643H564L296 227Z" />
<glyph unicode="Z" glyph-name="Z" horiz-adv-x="514" d="M520 570L129 78H363L461 86L465 80L447 -2L324 0H65L2 -3L12 69L404 563H186L86 555L82 561L101 643L477 642L529 643L520 570Z" />
<glyph unicode="[" glyph-name="bracketleft" horiz-adv-x="291" d="M328 641L322 596L206 583L127 -65L240 -77L234 -123L228 -128L41 -118L92 259L133 637L324 647L328 641Z" />
<glyph unicode="\" glyph-name="backslash" horiz-adv-x="298" d="M24 669L32 679H98L304 -105L297 -114H230L24 669Z" />
<glyph unicode="]" glyph-name="bracketright" horiz-adv-x="291" d="M-30 -122L-24 -77L92 -64L171 584L58 596L64 642L70 647L257 637L206 260L165 -118L-26 -128L-30 -122Z" />
<glyph unicode="^" glyph-name="asciicircum" horiz-adv-x="429" d="M399 138L391 129L334 115L246 422H240L70 117L60 112L7 133L203 487L214 493H294L399 138Z" />
<glyph unicode="_" glyph-name="underscore" horiz-adv-x="448" d="M423 -95L411 -151H-54L-61 -144L-49 -88H417L423 -95Z" />
<glyph unicode="`" glyph-name="grave" horiz-adv-x="400" d="M204 649T313 558L288 520L278 519Q218 558 99 643L97 653L133 705L143 706Q204 649 313 558Z" />
<glyph unicode="a" glyph-name="a" horiz-adv-x="501" d="M443 0H350L347 60L336 118L228 119L132 118L106 65L83 0H-7L236 501H343L443 0ZM322 192L279 413H273L167 192L243 191L322 192Z" />
<glyph unicode="b" glyph-name="b" horiz-adv-x="481" d="M382 246T405 220T428 152Q428 74 368 36T191 -3Q119 -3 54 0L76 150L116 501H280Q350 501 390 473T430 389Q430 345 406 312T337 259Q382 246 405 220ZM297 295T315 316T334 376Q334 406 314 419T249
432H197L178 290L260 287Q297 295 315 316ZM268 65T301 87T334 154Q334 182 316 198T261 220L168 219L160 158L151 68Q181 65 208 65Q268 65 301 87Z" />
<glyph unicode="c" glyph-name="c" horiz-adv-x="445" d="M395 506T448 474L422 391L411 388Q390 408 361 419T296 431Q219 431 178 377T137 217Q137 145 167 108T254 70Q287 70 322 81T386 113L395 108L377 26Q344 9 313 2T245 -6Q146 -6 93 49T40 206Q40 348
112 427T312 506Q395 506 448 474Z" />
<glyph unicode="d" glyph-name="d" horiz-adv-x="553" d="M409 504T464 452T519 306Q519 160 445 78T234 -5Q137 -5 54 0L76 150L116 501L311 504Q409 504 464 452ZM334 68T378 123T423 289Q423 428 298 428Q259 428 197 424L161 158L152 74Q216 68 253 68Q334
68 378 123Z" />
<glyph unicode="e" glyph-name="e" horiz-adv-x="429" d="M198 427L179 292L273 291L356 294L361 287L346 216L256 219L169 218L161 158L152 74L242 73L372 77L378 70L362 0H54L76 150L116 501H428L432 493L416 423L295 428L198 427Z" />
<glyph unicode="f" glyph-name="f" horiz-adv-x="382" d="M194 427L173 278L250 277L337 280L342 273L327 203L233 205L162 204L156 158L140 0H49L71 150L111 501H406L410 493L394 423L275 428L194 427Z" />
<glyph unicode="g" glyph-name="g" horiz-adv-x="510" d="M404 506T485 474L445 387H437Q399 411 372 420T310 430Q223 430 179 375T135 214Q135 137 163 103T263 68Q284 68 303 72T352 87L357 130L365 204L449 210L440 145L425 24Q371 8 332 1T255 -7Q149 -7
95 47T40 211Q40 300 74 367T173 470T329 506Q404 506 485 474Z" />
<glyph unicode="h" glyph-name="h" horiz-adv-x="582" d="M535 501L487 158L471 0H381L403 150L410 212L168 211L161 158L145 0H54L77 150L116 501H209L180 291L301 290L419 291L443 501H535Z" />
<glyph unicode="i" glyph-name="i" horiz-adv-x="261" d="M161 158L145 0H54L77 150L116 501H209L161 158Z" />
<glyph unicode="j" glyph-name="j" horiz-adv-x="298" d="M190 165L182 94Q174 31 139 -8T25 -82L-4 -32L-3 -23Q47 2 69 29T97 96L105 155L135 431L43 430L38 437L52 501H235L190 165Z" />
<glyph unicode="k" glyph-name="k" horiz-adv-x="489" d="M163 158L146 0H54L78 150L117 501H210L163 158ZM275 263Q346 151 454 19L450 9Q411 -2 359 -7L349 -2Q244 149 180 260L181 267L361 454L398 501H498L275 263Z" />
<glyph unicode="l" glyph-name="l" horiz-adv-x="374" d="M337 69L321 0H54L76 150L116 501H208L160 158L152 76H331L337 69Z" />
<glyph unicode="m" glyph-name="m" horiz-adv-x="663" d="M579 0H499L509 152L513 363H507L340 54H270L190 363H184L135 161L104 0H27L143 501H247L260 426L322 172H329L459 428L492 501H593L579 0Z" />
<glyph unicode="n" glyph-name="n" horiz-adv-x="583" d="M485 152L470 0H373L185 360H179L155 169L136 0H54L76 147L117 501H213L402 141H409L451 497L535 503L485 152Z" />
<glyph unicode="o" glyph-name="o" horiz-adv-x="544" d="M406 507T458 453T510 289Q510 203 478 136T386 31T242 -7Q144 -7 92 48T40 214Q40 301 71 367T164 470T309 507Q406 507 458 453ZM216 431T176 379T135 219Q135 136 162 102T252 67Q414 67 414 280Q414
361 387 396T297 431Q216 431 176 379Z" />
<glyph unicode="p" glyph-name="p" horiz-adv-x="463" d="M363 501T403 465T444 362Q444 308 416 263T339 192T230 166H162L161 158L144 0H53L76 150L116 501H291Q363 501 403 465ZM301 245T324 277T348 353Q348 392 328 410T264 431L198 430L172 237L258 235Q301
245 324 277Z" />
<glyph unicode="q" glyph-name="q" horiz-adv-x="544" d="M561 -95Q536 -133 513 -152L505 -154Q436 -132 372 -95T254 -7H242Q144 -7 92 48T40 214Q40 301 71 367T164 470T309 507Q406 507 458 453T510 289Q510 186 466 112T339 9Q440 -61 559 -86L561 -95ZM135
136T162 102T252 67Q414 67 414 280Q414 361 387 396T297 431Q216 431 176 379T135 219Q135 136 162 102Z" />
<glyph unicode="r" glyph-name="r" horiz-adv-x="491" d="M445 314T414 271T326 201Q371 115 432 22L429 11Q379 -5 341 -7L327 2L307 46Q267 132 249 176L164 175L162 158L145 0H54L77 150L117 501H293Q364 501 404 466T445 370Q445 314 414 271ZM174 249L259
245Q349 272 349 358Q349 394 329 411T265 430L199 429L174 249Z" />
<glyph unicode="s" glyph-name="s" horiz-adv-x="419" d="M292 506T325 500T386 482L362 394L347 390Q298 436 248 436Q210 436 187 415T163 367Q163 342 183 327T244 292Q283 273 306 258T347 218T364 156Q364 115 342 78T276 17T171 -7Q136 -7 96 1T23 26L44
118L56 124Q82 95 117 79T184 63Q221 63 246 84T272 134Q272 159 253 175T190 211Q151 230 128 245T88 285T71 348Q71 390 94 426T161 484T261 506Q292 506 325 500Z" />
<glyph unicode="t" glyph-name="t" horiz-adv-x="427" d="M432 493L416 418L324 425H283L246 158L231 0H140L162 150L195 425H153L58 418L52 426L68 501H427L432 493Z" />
<glyph unicode="u" glyph-name="u" horiz-adv-x="535" d="M468 246L458 173Q448 86 392 40T239 -7Q153 -7 106 30T58 137Q58 154 61 173L72 249L101 501H193L148 187Q146 169 146 161Q146 70 248 70Q362 70 375 187L410 501H502L468 246Z" />
<glyph unicode="v" glyph-name="v" horiz-adv-x="490" d="M266 0H158L57 501H150L156 439L222 87H228L396 435L417 501H507L266 0Z" />
<glyph unicode="w" glyph-name="w" horiz-adv-x="745" d="M526 0H431L375 256H370L249 0H153L64 501H154L155 442L216 96H222L353 377L331 501H424L426 434L490 96H498L656 438L677 501H762L526 0Z" />
<glyph unicode="x" glyph-name="x" horiz-adv-x="510" d="M313 257L453 0H346L328 47L246 193L126 42L99 0H1L204 255L66 501H176L192 454L268 316L377 457L404 501H505L313 257Z" />
<glyph unicode="y" glyph-name="y" horiz-adv-x="470" d="M264 170L259 141L244 0H154L176 141L179 171L55 501H153L160 469L232 267H239L372 465L390 501H486L264 170Z" />
<glyph unicode="z" glyph-name="z" horiz-adv-x="460" d="M441 433L128 71H312L400 80L404 75L385 -2L275 0H66L10 -2L18 64L333 428H154L72 419L69 426L86 502L182 501H449L441 433Z" />
<glyph unicode="{" glyph-name="braceleft" horiz-adv-x="291" d="M288 655T320 648L323 640L308 589Q286 594 272 594Q236 594 219 571T202 500Q202 483 203 469T205 443Q208 413 208 389Q208 300 127 266L126 262Q154 249 168 226T182 172Q182 155 177 136T160
83Q149 50 144 29T138 -11Q138 -67 191 -67Q205 -67 228 -62L231 -113L225 -120Q200 -128 168 -128Q114 -128 87 -104T60 -31Q60 -7 66 18T83 82Q102 143 102 167Q102 226 35 239L41 287Q87 297 108 322T129 396L128 447Q126 487 126 505Q126 655 265 655Q288 655
320 648Z" />
<glyph unicode="|" glyph-name="bar" horiz-adv-x="312" d="M263 793L200 289L133 -257L65 -261L59 -252L124 283L188 794L257 799L263 793Z" />
<glyph unicode="}" glyph-name="braceright" horiz-adv-x="291" d="M12 -128T-20 -121L-23 -113L-8 -62Q14 -67 28 -67Q64 -67 81 -44T98 27Q98 44 97 58T95 84Q92 114 92 138Q92 227 173 261L174 265Q146 278 132 301T118 355Q118 372 123 391T140 444Q151 477
156 498T162 538Q162 594 109 594Q95 594 72 589L69 640L75 647Q100 655 132 655Q186 655 213 631T240 558Q240 534 234 509T217 445Q198 384 198 360Q198 301 265 288L259 240Q213 230 192 205T171 131L172 80Q174 40 174 22Q174 -128 35 -128Q12 -128 -20 -121Z"
/>
<glyph unicode="~" glyph-name="asciitilde" horiz-adv-x="480" d="M142 250T129 241T94 212Q94 212 76 197H66L44 230L45 240L131 319L142 324Q160 321 192 312T237 299Q318 274 338 274Q348 274 361 283T398 313L414 327H424L445 294L444 284L359 204L347 200Q326
203 291 213T248 226Q240 228 204 239T152 250Q142 250 129 241Z" />
<glyph unicode="&#xa0;" glyph-name="uni00A0" horiz-adv-x="141" />
<glyph unicode="&#xa1;" glyph-name="exclamdown" horiz-adv-x="230" d="M120 410T107 423T94 458Q94 481 107 495T144 509Q167 509 179 497T192 462Q192 438 179 424T142 410Q120 410 107 423ZM33 6L93 334L148 341L158 332L120 9L110 -2L43 -5L33 6Z" />
<glyph unicode="&#xa2;" glyph-name="cent" horiz-adv-x="390" d="M301 438T272 443L217 112Q257 131 292 192L304 191L330 156Q303 111 273 85T206 45L179 -121H131L125 -112L148 37Q91 49 64 87T37 207Q37 319 84 398T224 500L249 653H297L304 644L282 507H290L362
486L368 475L346 413L329 410Q301 438 272 443ZM113 168T124 141T159 106L214 437Q166 420 140 364T113 221Q113 168 124 141Z" />
<glyph unicode="&#xa3;" glyph-name="sterling" horiz-adv-x="430" d="M375 593T430 577L416 504L410 499Q357 532 309 532Q266 532 241 508T210 438L197 338H325L328 332L317 285H190L175 170Q170 134 158 111T123 72V68H281L376 75L379 68L364 -2L257 0H2L-2
6L9 57Q84 73 94 162L109 285H38L35 291L45 338H115L126 425Q135 506 186 549T322 593Q375 593 430 577Z" />
<glyph unicode="&#xa4;" glyph-name="currency" horiz-adv-x="436" d="M442 507L440 497L365 434Q382 406 382 369Q382 320 347 279L409 218V208L361 164L351 165L297 232Q256 206 214 206Q194 206 175 212T141 231L72 162H62L22 204L25 214L99 276Q82 304 82
342Q82 387 118 432L57 493V503L104 547H114L170 478Q207 503 251 503Q294 503 323 480L393 548L403 549L442 507ZM201 448T170 418T138 345Q138 308 161 285T221 262Q266 262 297 291T328 365Q328 401 305 424T244 448Q201 448 170 418Z" />
<glyph unicode="&#xa5;" glyph-name="yen" horiz-adv-x="534" d="M502 298L506 294L497 252H348L290 169V165H484L489 159L481 118H283L271 0H190L208 118H30L26 123L34 165H214L215 173L183 252H46L43 258L51 298H164L82 499H168L176 469L262 260H269L418 466L436
499H521L381 298H502Z" />
<glyph unicode="&#xa6;" glyph-name="brokenbar" horiz-adv-x="312" d="M263 793L211 374L142 366L136 372L187 794L257 799L263 793ZM183 150L133 -257L66 -261L59 -252L109 152L176 160L183 150Z" />
<glyph unicode="&#xa7;" glyph-name="section" horiz-adv-x="401" d="M179 496T198 478T258 432Q314 394 344 362T375 282Q375 238 345 199T265 137Q306 96 306 49Q306 9 281 -25T213 -79T117 -100Q84 -100 47 -92T-18 -69L3 11L13 18Q39 -9 70 -23T134 -38Q172
-38 197 -17T223 29Q223 52 203 71T142 117Q86 154 56 186T25 266Q25 311 55 350T135 413Q95 453 95 499Q95 539 119 573T187 627T281 648Q340 648 393 626L372 547L359 544Q307 584 260 584Q226 584 203 563T179 518Q179 496 198 478ZM291 207T291 257Q291 284
270 306T206 358L185 373Q148 356 129 335T109 290Q109 264 130 243T193 193Q209 183 217 177Q291 207 291 257Z" />
<glyph unicode="&#xa8;" glyph-name="dieresis" horiz-adv-x="393" d="M183 659T195 647T207 613Q207 590 194 576T157 562Q135 562 123 574T111 609Q111 632 124 645T161 659Q183 659 195 647ZM351 659T363 647T376 613Q376 590 363 576T326 562Q304 562 292
574T280 609Q280 632 293 645T329 659Q351 659 363 647Z" />
<glyph unicode="&#xa9;" glyph-name="copyright" horiz-adv-x="692" d="M442 598T509 560T613 453T650 293Q650 202 613 133T509 26T353 -12Q265 -12 198 26T93 133T56 293Q56 384 93 453T197 560T353 598Q442 598 509 560ZM276 560T218 527T127 433T94 293Q94
214 126 154T217 60T353 26Q430 26 488 59T579 153T612 293Q612 372 580 432T489 526T353 560Q276 560 218 527ZM414 465T463 444L450 391L444 388Q428 398 408 403T368 409Q274 409 274 300Q274 182 369 182Q388 182 410 187T450 202L457 200L451 146Q409 126
365 126Q286 126 246 169T205 294Q205 376 248 420T371 465Q414 465 463 444Z" />
<glyph unicode="&#xaa;" glyph-name="ordfeminine" horiz-adv-x="317" d="M324 644L292 407L287 335L216 329L233 459L232 455H224Q182 374 136 328H124Q87 341 73 365T58 431Q58 508 98 568T215 645H219L272 638L317 649L324 644ZM155 395T184 437T244 547L247
570L248 585L205 593Q168 592 147 555T126 459Q126 427 132 411T145 395Q155 395 184 437Z" />
<glyph unicode="&#xab;" glyph-name="guillemotleft" horiz-adv-x="407" d="M225 220L227 238L390 409L433 383V372L298 226L398 80L394 69L345 44L225 220ZM53 220L55 238L218 409L261 383V372L126 226L226 80L222 69L173 44L53 220Z" />
<glyph unicode="&#xac;" glyph-name="logicalnot" horiz-adv-x="480" d="M434 290L405 57L345 52L338 59L359 230H34L28 237L40 297H429L434 290Z" />
<glyph unicode="&#xad;" glyph-name="uni00AD" horiz-adv-x="306" d="M286 298L278 237L34 202L26 210L34 272L278 306L286 298Z" />
<glyph unicode="&#xae;" glyph-name="registered" horiz-adv-x="441" d="M304 702T354 652T404 520Q404 437 354 387T221 336Q138 336 88 386T38 520Q38 602 88 652T221 702Q304 702 354 652ZM291 365T333 407T376 520Q376 589 334 631T222 673Q152 673 110 632T67
520Q67 450 109 408T222 365Q291 365 333 407ZM296 547T286 532T257 506Q288 461 309 437L308 433Q294 428 269 426L265 429Q247 454 224 496H191V491L193 429H153L154 487L153 623H230Q262 623 279 608T296 565Q296 547 286 532ZM192 528L226 526Q255 537 255
561Q255 591 217 593L193 592L192 528Z" />
<glyph unicode="&#xaf;" glyph-name="overscore" horiz-adv-x="386" d="M387 636L382 580H100L93 588L98 643H381L387 636Z" />
<glyph unicode="&#xb0;" glyph-name="degree" horiz-adv-x="293" d="M247 649T279 617T311 536Q311 499 291 467T238 416T168 397Q118 397 86 429T54 510Q54 548 74 580T127 630T198 649Q247 649 279 617ZM156 604T128 578T100 515Q100 485 121 464T172 442Q210
442 237 468T265 531Q265 562 245 583T193 604Q156 604 128 578Z" />
<glyph unicode="&#xb1;" glyph-name="plusminus" horiz-adv-x="478" d="M302 468L280 297H450L458 290L444 230H272L251 57L190 52L184 59L204 230H33L28 237L41 297H212L234 470L295 476L302 468ZM415 -40L409 -100H-2L-9 -93L-3 -33H407L415 -40Z" />
<glyph unicode="&#xb2;" glyph-name="uni00B2" horiz-adv-x="353" d="M275 704T306 681T337 621Q337 590 314 556T233 461L160 384L161 382H277L343 385L346 379L330 317L245 320H79L52 319L48 322L53 370L164 479Q213 528 233 554T253 603Q253 619 242 629T209
639Q186 639 159 626T106 590H97L90 650Q164 704 229 704Q275 704 306 681Z" />
<glyph unicode="&#xb3;" glyph-name="uni00B3" horiz-adv-x="312" d="M240 705T272 682T305 621Q305 593 287 567T231 525L230 522Q296 504 296 442Q296 386 246 351T116 316Q76 316 45 323L48 379L54 384Q96 374 124 374Q167 374 193 391T219 438Q219 483 157
486H112L108 490L115 543H147Q175 544 198 562T222 606Q222 624 210 633T177 643Q141 643 93 613H84L78 666Q109 686 135 695T192 705Q240 705 272 682Z" />
<glyph unicode="&#xb4;" glyph-name="acute" horiz-adv-x="378" d="M308 705L344 653L342 643Q223 558 163 519L153 520L128 558Q237 649 298 706L308 705Z" />
<glyph unicode="&#xb5;" glyph-name="uni00B5" horiz-adv-x="663" d="M579 0H499L509 152L513 363H507L340 54H270L190 363H184L135 161L104 0H27L143 501H247L260 426L322 172H329L459 428L492 501H593L579 0Z" />
<glyph unicode="&#xb6;" glyph-name="paragraph" horiz-adv-x="499" d="M525 633L509 566H438L388 187L382 132Q374 62 329 12T186 -80L164 -35L166 -25Q225 8 254 44T289 126L295 173L341 567H287Q227 560 195 521T162 417Q162 367 188 331T264 277L225 224Q145
241 102 289T59 412Q59 519 130 580T322 642H519L525 633Z" />
<glyph unicode="&#xb7;" glyph-name="middot" horiz-adv-x="229" d="M143 302T156 288T170 249Q170 223 155 208T115 193Q90 193 77 207T63 246Q63 272 78 287T119 302Q143 302 156 288Z" />
<glyph unicode="&#xb8;" glyph-name="cedilla" horiz-adv-x="385" d="M155 -50L189 -70Q228 -92 228 -127Q228 -158 205 -177T142 -197Q101 -197 66 -166L75 -121L80 -119Q95 -134 108 -141T137 -149Q151 -149 159 -143T167 -125Q167 -111 147 -102L99 -73L122
21H175L155 -50Z" />
<glyph unicode="&#xb9;" glyph-name="uni00B9" horiz-adv-x="264" d="M237 697L205 455L191 320H110L128 446L149 617L63 597L58 601L66 663L228 706L237 697Z" />
<glyph unicode="&#xba;" glyph-name="ordmasculine" horiz-adv-x="302" d="M224 648Q304 634 304 541Q304 446 262 389T146 327L139 328Q58 339 58 438Q58 530 100 587T215 648H224ZM165 594T146 553T126 438Q126 407 134 393T160 379Q234 379 234 536Q234 567
227 580T203 594Q165 594 146 553Z" />
<glyph unicode="&#xbb;" glyph-name="guillemotright" horiz-adv-x="407" d="M353 234L351 216L188 45L145 71V82L280 228L180 374L184 385L233 410L353 234ZM437 234L435 216L272 45L229 71V82L364 228L264 374L268 385L317 410L437 234Z" />
<glyph unicode="&#xbc;" glyph-name="onequarter" horiz-adv-x="716" d="M230 639L198 397L184 262H103L121 388L142 559L56 539L51 543L59 605L221 648L230 639ZM616 656L621 641L60 -91L22 -66L18 -54L579 681L616 656ZM664 95L607 97L600 5L594 0L531 -3L527
1L541 97H428L373 95L368 101L374 151L569 381H642L613 157H670L674 149L664 95ZM446 157H549L566 293H561L446 157Z" />
<glyph unicode="&#xbd;" glyph-name="onehalf" horiz-adv-x="727" d="M230 639L198 397L184 262H103L121 388L142 559L56 539L51 543L59 605L221 648L230 639ZM616 656L621 641L60 -91L22 -66L18 -54L579 681L616 656ZM610 384T641 361T672 301Q672 270 649 236T568
141L495 64L496 62H612L678 65L681 59L665 -3L580 0H414L387 -1L383 2L388 50L499 159Q548 208 568 234T588 283Q588 299 577 309T544 319Q521 319 494 306T441 270H432L425 330Q499 384 564 384Q610 384 641 361Z" />
<glyph unicode="&#xbe;" glyph-name="threequarters" horiz-adv-x="754" d="M233 647T265 624T298 563Q298 535 280 509T224 467L223 464Q289 446 289 384Q289 328 239 293T109 258Q69 258 38 265L41 321L47 326Q89 316 117 316Q160 316 186 333T212 380Q212 425
150 428H105L101 432L108 485H140Q168 486 191 504T215 548Q215 566 203 575T170 585Q134 585 86 555H77L71 608Q102 628 128 637T185 647Q233 647 265 624ZM654 656L659 641L98 -91L60 -66L56 -54L617 681L654 656ZM702 95L645 97L638 5L632 0L569 -3L565 1L579
97H466L411 95L406 101L412 151L607 381H680L651 157H708L712 149L702 95ZM484 157H587L604 293H599L484 157Z" />
<glyph unicode="&#xbf;" glyph-name="questiondown" horiz-adv-x="282" d="M174 412T162 425T149 460Q149 483 163 496T200 510Q222 510 234 498T246 464Q246 440 233 426T196 412Q174 412 162 425ZM95 0T41 31T-14 117Q-14 151 9 183T73 236L144 273L146 277L151
337L211 345L218 338L215 255L211 245L134 204Q78 175 74 134Q69 101 104 83T222 61L229 52L206 0L196 -6Q95 0 41 31Z" />
<glyph unicode="&#xc0;" glyph-name="Agrave" horiz-adv-x="561" d="M517 -2H417L410 69L394 162L264 165L147 163L107 74L80 -2H-18L282 643H398L517 -2ZM380 244L329 545H321L184 244L281 242L380 244ZM324 829T447 767L429 725L419 721Q307 765 218 804L214
814L239 871L249 874Q324 829 447 767Z" />
<glyph unicode="&#xc1;" glyph-name="Aacute" horiz-adv-x="561" d="M517 -2H417L410 69L394 162L264 165L147 163L107 74L80 -2H-18L282 643H398L517 -2ZM380 244L329 545H321L184 244L281 242L380 244ZM447 871L472 814L468 804Q390 769 267 721L256 725L239
767Q369 833 437 874L447 871Z" />
<glyph unicode="&#xc2;" glyph-name="Acircumflex" horiz-adv-x="561" d="M517 -2H417L410 69L394 162L264 165L147 163L107 74L80 -2H-18L282 643H398L517 -2ZM380 244L329 545H321L184 244L281 242L380 244ZM217 764Q288 811 345 859H369Q414 817 485 764L462
724H452L355 789Q334 776 316 766T284 748L242 724H231L217 764Z" />
<glyph unicode="&#xc3;" glyph-name="Atilde" horiz-adv-x="561" d="M517 -2H417L410 69L394 162L264 165L147 163L107 74L80 -2H-18L282 643H398L517 -2ZM380 244L329 545H321L184 244L281 242L380 244ZM516 832V823L452 747L441 743Q425 745 397 752T358 763Q299
780 286 780Q277 780 268 773T243 748Q239 742 228 731H218L189 761V770L253 846L264 849Q298 844 349 829Q403 814 418 814Q428 814 438 822T461 843T478 862H486L516 832Z" />
<glyph unicode="&#xc4;" glyph-name="Adieresis" horiz-adv-x="561" d="M517 -2H417L410 69L394 162L264 165L147 163L107 74L80 -2H-18L282 643H398L517 -2ZM380 244L329 545H321L184 244L281 242L380 244ZM293 842T305 830T317 796Q317 773 304 759T267 745Q245
745 233 757T221 792Q221 815 234 828T271 842Q293 842 305 830ZM461 842T473 830T486 796Q486 773 473 759T436 745Q414 745 402 757T390 792Q390 815 403 828T439 842Q461 842 473 830Z" />
<glyph unicode="&#xc5;" glyph-name="Aring" horiz-adv-x="561" d="M517 -2H417L410 69L394 162L264 165L147 163L107 74L80 -2H-18L282 643H398L517 -2ZM380 244L329 545H321L184 244L281 242L380 244ZM398 889T420 866T442 805Q442 763 417 740T352 716Q314
716 291 738T267 802Q267 843 290 866T356 889Q398 889 420 866ZM311 844T311 803Q311 782 322 771T355 760Q375 760 386 770T398 801Q398 821 387 832T353 844Q311 844 311 803Z" />
<glyph unicode="&#xc6;" glyph-name="AE" horiz-adv-x="778" d="M747 76L730 0H382L386 71L385 247L162 193L91 75L55 0H-44L349 642H731L736 633L719 557L567 562H478V344L682 391L689 385L687 314L479 269V78H585L742 84L747 76ZM384 322L382 544H376L217 283L384 322Z" />
<glyph unicode="&#xc7;" glyph-name="Ccedilla" horiz-adv-x="503" d="M464 650T532 605L502 516L492 514Q434 567 354 567Q255 567 201 491T146 272Q146 176 184 126T294 75Q335 75 377 89T456 131L465 125L445 34Q385 3 328 -6L315 -52L349 -72Q388 -94 388
-129Q388 -160 365 -179T302 -199Q261 -199 226 -168L235 -123L240 -121Q255 -136 268 -143T297 -151Q311 -151 319 -145T327 -127Q327 -113 307 -104L259 -75L275 -9Q163 -7 102 61T41 256Q41 378 79 467T191 603T366 650Q464 650 532 605Z" />
<glyph unicode="&#xc8;" glyph-name="Egrave" horiz-adv-x="475" d="M226 561L199 369L312 367L413 370L418 362L401 285L293 288L188 287L176 200L163 80L283 78L431 84L435 75L419 -2H55L86 192L137 643H502L506 635L489 558L344 562L226 561ZM302 829T425 767L407
725L397 721Q285 765 196 804L192 814L217 871L227 874Q302 829 425 767Z" />
<glyph unicode="&#xc9;" glyph-name="Eacute" horiz-adv-x="475" d="M226 561L199 369L312 367L413 370L418 362L401 285L293 288L188 287L176 200L163 80L283 78L431 84L435 75L419 -2H55L86 192L137 643H502L506 635L489 558L344 562L226 561ZM425 871L450 814L446
804Q368 769 245 721L234 725L217 767Q347 833 415 874L425 871Z" />
<glyph unicode="&#xca;" glyph-name="Ecircumflex" horiz-adv-x="475" d="M226 561L199 369L312 367L413 370L418 362L401 285L293 288L188 287L176 200L163 80L283 78L431 84L435 75L419 -2H55L86 192L137 643H502L506 635L489 558L344 562L226 561ZM195 764Q266
811 323 859H347Q392 817 463 764L440 724H430L333 789Q312 776 294 766T262 748L220 724H209L195 764Z" />
<glyph unicode="&#xcb;" glyph-name="Edieresis" horiz-adv-x="475" d="M226 561L199 369L312 367L413 370L418 362L401 285L293 288L188 287L176 200L163 80L283 78L431 84L435 75L419 -2H55L86 192L137 643H502L506 635L489 558L344 562L226 561ZM271 842T283
830T295 796Q295 773 282 759T245 745Q223 745 211 757T199 792Q199 815 212 828T249 842Q271 842 283 830ZM439 842T451 830T464 796Q464 773 451 759T414 745Q392 745 380 757T368 792Q368 815 381 828T417 842Q439 842 451 830Z" />
<glyph unicode="&#xcc;" glyph-name="Igrave" horiz-adv-x="270" d="M175 201L156 0H57L86 193L137 642H236L175 201ZM175 828T298 766L280 724L270 720Q158 764 69 803L65 813L90 870L100 873Q175 828 298 766Z" />
<glyph unicode="&#xcd;" glyph-name="Iacute" horiz-adv-x="270" d="M175 201L156 0H57L86 193L137 642H236L175 201ZM298 870L323 813L319 803Q241 768 118 720L107 724L90 766Q220 832 288 873L298 870Z" />
<glyph unicode="&#xce;" glyph-name="Icircumflex" horiz-adv-x="270" d="M175 201L156 0H57L86 193L137 642H236L175 201ZM68 763Q139 810 196 858H220Q265 816 336 763L313 723H303L206 788Q185 775 167 765T135 747L93 723H82L68 763Z" />
<glyph unicode="&#xcf;" glyph-name="Idieresis" horiz-adv-x="270" d="M175 201L156 0H57L86 193L137 642H236L175 201ZM162 842T174 829T187 794Q187 769 173 755T136 741Q113 741 101 754T88 790Q88 814 101 828T140 842Q162 842 174 829ZM295 842T307 829T320
794Q320 769 307 755T270 741Q247 741 234 754T221 790Q221 814 235 828T273 842Q295 842 307 829Z" />
<glyph unicode="&#xd0;" glyph-name="Eth" horiz-adv-x="653" d="M506 646T570 581T635 395Q635 271 596 181T480 43T294 -6Q252 -6 193 -5T83 0H82L112 193L123 289H32L28 296L37 356H131L163 642H164L388 646Q506 646 570 581ZM418 73T474 150T531 378Q531 473
493 519T377 565Q323 565 251 561L222 356H364L367 349L360 289H212L200 201L189 80Q224 77 258 75T314 73Q418 73 474 150Z" />
<glyph unicode="&#xd1;" glyph-name="Ntilde" horiz-adv-x="662" d="M567 191L547 0H443L213 488H206L171 214L148 0H57L86 190L139 642H242L472 153H479L537 637L630 644L567 191ZM564 831V822L500 746L489 742Q473 744 445 751T406 762Q347 779 334 779Q325
779 316 772T291 747Q287 741 276 730H266L237 760V769L301 845L312 848Q346 843 397 828Q451 813 466 813Q476 813 486 821T509 842T526 861H534L564 831Z" />
<glyph unicode="&#xd2;" glyph-name="Ograve" horiz-adv-x="618" d="M477 651T540 583T603 389Q603 267 565 177T455 39T279 -10Q167 -10 104 59T41 257Q41 442 125 546T363 651Q477 651 540 583ZM246 569T195 493T144 262Q144 164 179 117T289 70Q498 70 498
379Q498 476 462 522T352 569Q246 569 195 493ZM350 829T473 767L455 725L445 721Q333 765 244 804L240 814L265 871L275 874Q350 829 473 767Z" />
<glyph unicode="&#xd3;" glyph-name="Oacute" horiz-adv-x="618" d="M477 651T540 583T603 389Q603 267 565 177T455 39T279 -10Q167 -10 104 59T41 257Q41 442 125 546T363 651Q477 651 540 583ZM246 569T195 493T144 262Q144 164 179 117T289 70Q498 70 498
379Q498 476 462 522T352 569Q246 569 195 493ZM473 871L498 814L494 804Q416 769 293 721L282 725L265 767Q395 833 463 874L473 871Z" />
<glyph unicode="&#xd4;" glyph-name="Ocircumflex" horiz-adv-x="618" d="M477 651T540 583T603 389Q603 267 565 177T455 39T279 -10Q167 -10 104 59T41 257Q41 442 125 546T363 651Q477 651 540 583ZM246 569T195 493T144 262Q144 164 179 117T289 70Q498 70
498 379Q498 476 462 522T352 569Q246 569 195 493ZM243 764Q314 811 371 859H395Q440 817 511 764L488 724H478L381 789Q360 776 342 766T310 748L268 724H257L243 764Z" />
<glyph unicode="&#xd5;" glyph-name="Otilde" horiz-adv-x="618" d="M477 651T540 583T603 389Q603 267 565 177T455 39T279 -10Q167 -10 104 59T41 257Q41 442 125 546T363 651Q477 651 540 583ZM246 569T195 493T144 262Q144 164 179 117T289 70Q498 70 498
379Q498 476 462 522T352 569Q246 569 195 493ZM542 832V823L478 747L467 743Q451 745 423 752T384 763Q325 780 312 780Q303 780 294 773T269 748Q265 742 254 731H244L215 761V770L279 846L290 849Q324 844 375 829Q429 814 444 814Q454 814 464 822T487 843T504
862H512L542 832Z" />
<glyph unicode="&#xd6;" glyph-name="Odieresis" horiz-adv-x="618" d="M477 651T540 583T603 389Q603 267 565 177T455 39T279 -10Q167 -10 104 59T41 257Q41 442 125 546T363 651Q477 651 540 583ZM246 569T195 493T144 262Q144 164 179 117T289 70Q498 70 498
379Q498 476 462 522T352 569Q246 569 195 493ZM319 842T331 830T343 796Q343 773 330 759T293 745Q271 745 259 757T247 792Q247 815 260 828T297 842Q319 842 331 830ZM487 842T499 830T512 796Q512 773 499 759T462 745Q440 745 428 757T416 792Q416 815 429
828T465 842Q487 842 499 830Z" />
<glyph unicode="&#xd7;" glyph-name="multiply" horiz-adv-x="481" d="M429 395L428 384L292 264L398 143L397 133L346 93L238 215L100 93L60 133L61 142L197 264L91 384L92 395L142 434L251 311L387 434L429 395Z" />
<glyph unicode="&#xd8;" glyph-name="Oslash" horiz-adv-x="619" d="M559 568T580 515T601 389Q601 267 564 178T454 41T279 -8Q223 -8 179 10L111 -107L57 -85L54 -76L123 44Q84 78 64 132T43 257Q43 441 126 545T363 649Q419 649 461 633L515 728L569 706L573
695L518 600Q559 568 580 515ZM144 176T172 129L417 556Q389 568 352 568Q247 568 196 492T144 262Q144 176 172 129ZM497 71T497 379Q497 465 468 512L221 84Q248 71 289 71Q497 71 497 379Z" />
<glyph unicode="&#xd9;" glyph-name="Ugrave" horiz-adv-x="606" d="M547 315L538 241Q524 121 458 57T276 -8Q177 -8 121 41T65 180Q65 205 68 233L81 321L118 642H215L162 246Q159 222 159 203Q159 77 283 77Q429 77 447 236L492 642H590L547 315ZM344 828T467
766L449 724L439 720Q327 764 238 803L234 813L259 870L269 873Q344 828 467 766Z" />
<glyph unicode="&#xda;" glyph-name="Uacute" horiz-adv-x="606" d="M547 315L538 241Q524 121 458 57T276 -8Q177 -8 121 41T65 180Q65 205 68 233L81 321L118 642H215L162 246Q159 222 159 203Q159 77 283 77Q429 77 447 236L492 642H590L547 315ZM467 870L492
813L488 803Q410 768 287 720L276 724L259 766Q389 832 457 873L467 870Z" />
<glyph unicode="&#xdb;" glyph-name="Ucircumflex" horiz-adv-x="606" d="M547 315L538 241Q524 121 458 57T276 -8Q177 -8 121 41T65 180Q65 205 68 233L81 321L118 642H215L162 246Q159 222 159 203Q159 77 283 77Q429 77 447 236L492 642H590L547 315ZM237
763Q308 810 365 858H389Q434 816 505 763L482 723H472L375 788Q354 775 336 765T304 747L262 723H251L237 763Z" />
<glyph unicode="&#xdc;" glyph-name="Udieresis" horiz-adv-x="606" d="M547 315L538 241Q524 121 458 57T276 -8Q177 -8 121 41T65 180Q65 205 68 233L81 321L118 642H215L162 246Q159 222 159 203Q159 77 283 77Q429 77 447 236L492 642H590L547 315ZM315 841T327
829T339 795Q339 772 326 758T289 744Q267 744 255 756T243 791Q243 814 256 827T293 841Q315 841 327 829ZM483 841T495 829T508 795Q508 772 495 758T458 744Q436 744 424 756T412 791Q412 814 425 827T461 841Q483 841 495 829Z" />
<glyph unicode="&#xdd;" glyph-name="Yacute" horiz-adv-x="518" d="M296 227L289 183L270 -2H170L200 183L204 227L60 643H163L171 604L260 330H268L437 602L458 643H564L296 227ZM422 871L447 814L443 804Q365 769 242 721L231 725L214 767Q344 833 412 874L422 871Z" />
<glyph unicode="&#xde;" glyph-name="Thorn" horiz-adv-x="520" d="M411 535T458 493T506 366Q506 293 474 236T381 145T241 112H167L156 0H58L86 193L139 642H237L222 534L326 535Q411 535 458 493ZM339 198T371 242T404 352Q404 403 380 428T299 457L211 454L176
201L175 191L285 188Q339 198 371 242Z" />
<glyph unicode="&#xdf;" glyph-name="germandbls" horiz-adv-x="553" d="M366 506T410 494T509 456L510 442L372 293Q444 263 476 231T509 150Q509 101 484 66T416 12T323 -7Q288 -7 251 2T187 27L208 116L217 120Q241 95 271 81T326 67Q362 67 386 89T411 143Q411
175 375 198T258 248L257 262L390 406Q345 432 300 432Q243 432 210 405T170 325L146 158L131 0H40L61 147L83 325Q93 408 155 457T317 506Q366 506 410 494Z" />
<glyph unicode="&#xe0;" glyph-name="agrave" horiz-adv-x="501" d="M278 598T159 683L157 693L193 745L203 746Q264 689 373 598L348 560L338 559Q278 598 159 683ZM443 0H350L347 60L336 118L228 119L132 118L106 65L83 0H-7L236 501H343L443 0ZM322 192L279
413H273L167 192L243 191L322 192Z" />
<glyph unicode="&#xe1;" glyph-name="aacute" horiz-adv-x="501" d="M222 560L197 598Q306 689 367 746L377 745L413 693L411 683Q292 598 232 559L222 560ZM443 0H350L347 60L336 118L228 119L132 118L106 65L83 0H-7L236 501H343L443 0ZM322 192L279 413H273L167
192L243 191L322 192Z" />
<glyph unicode="&#xe2;" glyph-name="acircumflex" horiz-adv-x="501" d="M180 563L160 601Q203 640 301 738H326Q380 664 440 601L410 563H400Q344 618 308 663Q268 625 191 563H180ZM443 0H350L347 60L336 118L228 119L132 118L106 65L83 0H-7L236 501H343L443
0ZM322 192L279 413H273L167 192L243 191L322 192Z" />
<glyph unicode="&#xe3;" glyph-name="atilde" horiz-adv-x="501" d="M466 689V680L402 604L391 600Q375 602 347 609T308 620Q249 637 236 637Q227 637 218 630T193 605Q189 599 178 588H168L139 618V627L203 703L214 706Q248 701 299 686Q353 671 368 671Q378
671 388 679T411 700T428 719H436L466 689ZM343 501L443 0H350L347 60L336 118L228 119L132 118L106 65L83 0H-7L236 501H343ZM322 192L279 413H273L167 192L243 191L322 192Z" />
<glyph unicode="&#xe4;" glyph-name="adieresis" horiz-adv-x="501" d="M195 602T183 614T171 649Q171 672 184 685T221 699Q243 699 255 687T267 653Q267 630 254 616T217 602Q195 602 183 614ZM364 602T352 614T340 649Q340 672 353 685T389 699Q411 699 423
687T436 653Q436 630 423 616T386 602Q364 602 352 614ZM443 0H350L347 60L336 118L228 119L132 118L106 65L83 0H-7L236 501H343L443 0ZM322 192L279 413H273L167 192L243 191L322 192Z" />
<glyph unicode="&#xe5;" glyph-name="aring" horiz-adv-x="501" d="M264 573T241 595T217 659Q217 700 240 723T306 746Q348 746 370 723T392 662Q392 620 367 597T302 573Q264 573 241 595ZM261 701T261 660Q261 639 272 628T305 617Q325 617 336 627T348 658Q348
678 337 689T303 701Q261 701 261 660ZM443 0H350L347 60L336 118L228 119L132 118L106 65L83 0H-7L236 501H343L443 0ZM322 192L279 413H273L167 192L243 191L322 192Z" />
<glyph unicode="&#xe6;" glyph-name="ae" horiz-adv-x="680" d="M640 70L625 0H328L333 59L331 180L134 133L89 63L59 0H-28L294 500H622L627 493L610 424L483 430H410L413 269L582 309L588 303L586 233L414 199L416 72H503L635 77L640 70ZM329 249L326 415H319L190
217L329 249Z" />
<glyph unicode="&#xe7;" glyph-name="ccedilla" horiz-adv-x="445" d="M395 506T448 474L422 391L411 388Q390 408 361 419T296 431Q219 431 178 377T137 217Q137 145 167 108T254 70Q287 70 322 81T386 113L395 108L377 26Q332 3 286 -3L273 -50L307 -70Q346
-92 346 -127Q346 -158 323 -177T260 -197Q219 -197 184 -166L193 -121L198 -119Q213 -134 226 -141T255 -149Q269 -149 277 -143T285 -125Q285 -111 265 -102L217 -73L233 -6Q140 -2 90 53T40 206Q40 348 112 427T312 506Q395 506 448 474Z" />
<glyph unicode="&#xe8;" glyph-name="egrave" horiz-adv-x="429" d="M262 598T143 683L141 693L177 745L187 746Q248 689 357 598L332 560L322 559Q262 598 143 683ZM198 427L179 292L273 291L356 294L361 287L346 216L256 219L169 218L161 158L152 74L242 73L372
77L378 70L362 0H54L76 150L116 501H428L432 493L416 423L295 428L198 427Z" />
<glyph unicode="&#xe9;" glyph-name="eacute" horiz-adv-x="429" d="M206 560L181 598Q290 689 351 746L361 745L397 693L395 683Q276 598 216 559L206 560ZM198 427L179 292L273 291L356 294L361 287L346 216L256 219L169 218L161 158L152 74L242 73L372 77L378
70L362 0H54L76 150L116 501H428L432 493L416 423L295 428L198 427Z" />
<glyph unicode="&#xea;" glyph-name="ecircumflex" horiz-adv-x="429" d="M164 563L144 601Q187 640 285 738H310Q364 664 424 601L394 563H384Q328 618 292 663Q252 625 175 563H164ZM198 427L179 292L273 291L356 294L361 287L346 216L256 219L169 218L161 158L152
74L242 73L372 77L378 70L362 0H54L76 150L116 501H428L432 493L416 423L295 428L198 427Z" />
<glyph unicode="&#xeb;" glyph-name="edieresis" horiz-adv-x="429" d="M179 602T167 614T155 649Q155 672 168 685T205 699Q227 699 239 687T251 653Q251 630 238 616T201 602Q179 602 167 614ZM348 602T336 614T324 649Q324 672 337 685T373 699Q395 699 407
687T420 653Q420 630 407 616T370 602Q348 602 336 614ZM198 427L179 292L273 291L356 294L361 287L346 216L256 219L169 218L161 158L152 74L242 73L372 77L378 70L362 0H54L76 150L116 501H428L432 493L416 423L295 428L198 427Z" />
<glyph unicode="&#xec;" glyph-name="igrave" horiz-adv-x="261" d="M141 689T250 598L225 560L215 559Q155 598 36 683L34 693L70 745L80 746Q141 689 250 598ZM161 158L145 0H54L77 150L116 501H209L161 158Z" />
<glyph unicode="&#xed;" glyph-name="iacute" horiz-adv-x="261" d="M253 745L289 693L287 683Q168 598 108 559L98 560L73 598Q182 689 243 746L253 745ZM161 158L145 0H54L77 150L116 501H209L161 158Z" />
<glyph unicode="&#xee;" glyph-name="icircumflex" horiz-adv-x="261" d="M36 601Q79 640 177 738H202Q256 664 316 601L286 563H276Q220 618 184 663Q144 625 67 563H56L36 601ZM161 158L145 0H54L77 150L116 501H209L161 158Z" />
<glyph unicode="&#xef;" glyph-name="idieresis" horiz-adv-x="261" d="M138 700T150 687T163 652Q163 627 149 613T112 599Q89 599 77 612T64 648Q64 672 77 686T116 700Q138 700 150 687ZM271 700T283 687T296 652Q296 627 283 613T246 599Q223 599 210 612T197
648Q197 672 211 686T249 700Q271 700 283 687ZM161 158L145 0H54L77 150L116 501H209L161 158Z" />
<glyph unicode="&#xf0;" glyph-name="eth" horiz-adv-x="558" d="M414 504T469 452T524 306Q524 160 450 78T239 -5Q142 -5 59 0L81 150L88 215H7L3 223L14 279H96L121 501L316 504Q414 504 469 452ZM339 68T383 123T428 289Q428 428 303 428Q265 428 203 424L183
279H297L300 271L290 215H174L166 158L157 74Q221 68 258 68Q339 68 383 123Z" />
<glyph unicode="&#xf1;" glyph-name="ntilde" horiz-adv-x="583" d="M504 689V680L440 604L429 600Q413 602 385 609T346 620Q287 637 274 637Q265 637 256 630T231 605Q227 599 216 588H206L177 618V627L241 703L252 706Q286 701 337 686Q391 671 406 671Q416
671 426 679T449 700T466 719H474L504 689ZM485 152L470 0H373L185 360H179L155 169L136 0H54L76 147L117 501H213L402 141H409L451 497L535 503L485 152Z" />
<glyph unicode="&#xf2;" glyph-name="ograve" horiz-adv-x="544" d="M282 689T391 598L366 560L356 559Q296 598 177 683L175 693L211 745L221 746Q282 689 391 598ZM406 507T458 453T510 289Q510 203 478 136T386 31T242 -7Q144 -7 92 48T40 214Q40 301 71 367T164
470T309 507Q406 507 458 453ZM216 431T176 379T135 219Q135 136 162 102T252 67Q414 67 414 280Q414 361 387 396T297 431Q216 431 176 379Z" />
<glyph unicode="&#xf3;" glyph-name="oacute" horiz-adv-x="544" d="M395 745L431 693L429 683Q310 598 250 559L240 560L215 598Q324 689 385 746L395 745ZM406 507T458 453T510 289Q510 203 478 136T386 31T242 -7Q144 -7 92 48T40 214Q40 301 71 367T164 470T309
507Q406 507 458 453ZM216 431T176 379T135 219Q135 136 162 102T252 67Q414 67 414 280Q414 361 387 396T297 431Q216 431 176 379Z" />
<glyph unicode="&#xf4;" glyph-name="ocircumflex" horiz-adv-x="544" d="M178 601Q221 640 319 738H344Q398 664 458 601L428 563H418Q362 618 326 663Q286 625 209 563H198L178 601ZM406 507T458 453T510 289Q510 203 478 136T386 31T242 -7Q144 -7 92 48T40
214Q40 301 71 367T164 470T309 507Q406 507 458 453ZM216 431T176 379T135 219Q135 136 162 102T252 67Q414 67 414 280Q414 361 387 396T297 431Q216 431 176 379Z" />
<glyph unicode="&#xf5;" glyph-name="otilde" horiz-adv-x="544" d="M485 689V680L421 604L410 600Q394 602 366 609T327 620Q268 637 255 637Q246 637 237 630T212 605Q208 599 197 588H187L158 618V627L222 703L233 706Q267 701 318 686Q372 671 387 671Q397
671 407 679T430 700T447 719H455L485 689ZM406 507T458 453T510 289Q510 203 478 136T386 31T242 -7Q144 -7 92 48T40 214Q40 301 71 367T164 470T309 507Q406 507 458 453ZM216 431T176 379T135 219Q135 136 162 102T252 67Q414 67 414 280Q414 361 387 396T297
431Q216 431 176 379Z" />
<glyph unicode="&#xf6;" glyph-name="odieresis" horiz-adv-x="544" d="M261 699T273 687T285 653Q285 630 272 616T235 602Q213 602 201 614T189 649Q189 672 202 685T239 699Q261 699 273 687ZM429 699T441 687T454 653Q454 630 441 616T404 602Q382 602 370
614T358 649Q358 672 371 685T407 699Q429 699 441 687ZM406 507T458 453T510 289Q510 203 478 136T386 31T242 -7Q144 -7 92 48T40 214Q40 301 71 367T164 470T309 507Q406 507 458 453ZM216 431T176 379T135 219Q135 136 162 102T252 67Q414 67 414 280Q414 361
387 396T297 431Q216 431 176 379Z" />
<glyph unicode="&#xf7;" glyph-name="divide" horiz-adv-x="477" d="M288 490T300 477T312 441Q312 418 299 404T262 389Q239 389 227 402T214 438Q214 462 227 476T266 490Q288 490 300 477ZM455 290L449 230H38L31 237L37 297H447L455 290ZM246 143T258 130T270
94Q270 71 257 57T220 42Q197 42 185 55T172 91Q172 115 185 129T224 143Q246 143 258 130Z" />
<glyph unicode="&#xf8;" glyph-name="oslash" horiz-adv-x="544" d="M510 411T510 289Q510 203 478 136T386 31T242 -7Q196 -7 160 5L94 -100L41 -68L39 -58L100 40Q40 95 40 214Q40 301 71 367T164 470T309 507Q354 507 385 497L440 584L492 552L495 542L446
464Q510 411 510 289ZM135 154T151 121L341 426Q319 431 297 431Q216 431 176 379T135 219Q135 154 151 121ZM414 67T414 280Q414 347 396 383L203 74Q223 67 252 67Q414 67 414 280Z" />
<glyph unicode="&#xf9;" glyph-name="ugrave" horiz-adv-x="535" d="M279 689T388 598L363 560L353 559Q293 598 174 683L172 693L208 745L218 746Q279 689 388 598ZM468 246L458 173Q448 86 392 40T239 -7Q153 -7 106 30T58 137Q58 154 61 173L72 249L101 501H193L148
187Q146 169 146 161Q146 70 248 70Q362 70 375 187L410 501H502L468 246Z" />
<glyph unicode="&#xfa;" glyph-name="uacute" horiz-adv-x="535" d="M392 745L428 693L426 683Q307 598 247 559L237 560L212 598Q321 689 382 746L392 745ZM468 246L458 173Q448 86 392 40T239 -7Q153 -7 106 30T58 137Q58 154 61 173L72 249L101 501H193L148
187Q146 169 146 161Q146 70 248 70Q362 70 375 187L410 501H502L468 246Z" />
<glyph unicode="&#xfb;" glyph-name="ucircumflex" horiz-adv-x="535" d="M175 601Q218 640 316 738H341Q395 664 455 601L425 563H415Q359 618 323 663Q283 625 206 563H195L175 601ZM468 246L458 173Q448 86 392 40T239 -7Q153 -7 106 30T58 137Q58 154 61 173L72
249L101 501H193L148 187Q146 169 146 161Q146 70 248 70Q362 70 375 187L410 501H502L468 246Z" />
<glyph unicode="&#xfc;" glyph-name="udieresis" horiz-adv-x="535" d="M258 699T270 687T282 653Q282 630 269 616T232 602Q210 602 198 614T186 649Q186 672 199 685T236 699Q258 699 270 687ZM426 699T438 687T451 653Q451 630 438 616T401 602Q379 602 367
614T355 649Q355 672 368 685T404 699Q426 699 438 687ZM468 246L458 173Q448 86 392 40T239 -7Q153 -7 106 30T58 137Q58 154 61 173L72 249L101 501H193L148 187Q146 169 146 161Q146 70 248 70Q362 70 375 187L410 501H502L468 246Z" />
<glyph unicode="&#xfd;" glyph-name="yacute" horiz-adv-x="470" d="M203 560L178 598Q287 689 348 746L358 745L394 693L392 683Q273 598 213 559L203 560ZM264 170L259 141L244 0H154L176 141L179 171L55 501H153L160 469L232 267H239L372 465L390 501H486L264 170Z" />
<glyph unicode="&#xfe;" glyph-name="thorn" horiz-adv-x="469" d="M357 422T398 385T439 283Q439 229 411 185T334 114T224 87H155L146 0H54L76 150L116 501H210L199 421L286 422Q357 422 398 385ZM296 166T319 198T343 274Q343 313 323 331T259 352L189 350L162
159L253 156Q296 166 319 198Z" />
<glyph unicode="&#xff;" glyph-name="ydieresis" horiz-adv-x="470" d="M176 602T164 614T152 649Q152 672 165 685T202 699Q224 699 236 687T248 653Q248 630 235 616T198 602Q176 602 164 614ZM345 602T333 614T321 649Q321 672 334 685T370 699Q392 699 404
687T417 653Q417 630 404 616T367 602Q345 602 333 614ZM264 170L259 141L244 0H154L176 141L179 171L55 501H153L160 469L232 267H239L372 465L390 501H486L264 170Z" />
<glyph unicode="&#x2013;" glyph-name="endash" horiz-adv-x="471" d="M494 283L483 223H-10L-16 230L-3 290H489L494 283Z" />
<glyph unicode="&#x2014;" glyph-name="emdash" horiz-adv-x="916" d="M939 283L927 223H-10L-16 230L-3 290H933L939 283Z" />
<glyph unicode="&#x2018;" glyph-name="quoteleft" horiz-adv-x="183" d="M75 294T62 314T48 363Q48 428 128 507L163 482L165 475Q123 430 123 390Q123 348 162 330V321Q142 302 103 281Q75 294 62 314Z" />
<glyph unicode="&#x2019;" glyph-name="quoteright" horiz-adv-x="183" d="M145 493T158 473T172 424Q172 359 92 280L57 305L55 312Q97 357 97 397Q97 439 58 457V466Q78 485 117 506Q145 493 158 473Z" />
<glyph unicode="&#x201a;" glyph-name="quotesinglbase" horiz-adv-x="229" d="M149 73T149 29Q149 -43 46 -118L13 -89V-81Q68 -37 68 10Q68 39 37 62V71Q71 92 106 102Q149 73 149 29Z" />
<glyph unicode="&#x201c;" glyph-name="quotedblleft" horiz-adv-x="318" d="M76 294T63 314T49 363Q49 428 129 507L164 482L166 475Q124 430 124 390Q124 348 163 330V321Q143 302 104 281Q76 294 63 314ZM218 294T205 314T191 363Q191 428 271 507L306 482L308
475Q266 430 266 390Q266 348 305 330V321Q285 302 246 281Q218 294 205 314Z" />
<glyph unicode="&#x201d;" glyph-name="quotedblright" horiz-adv-x="321" d="M145 493T158 473T172 424Q172 359 92 280L57 305L55 312Q97 357 97 397Q97 439 58 457V466Q78 485 117 506Q145 493 158 473ZM284 493T297 473T311 424Q311 359 231 280L196 305L194
312Q236 357 236 397Q236 439 197 457V466Q217 485 256 506Q284 493 297 473Z" />
<glyph unicode="&#x201e;" glyph-name="quotedblbase" horiz-adv-x="371" d="M291 73T291 29Q291 -43 188 -118L155 -89V-81Q210 -37 210 10Q210 39 179 62V71Q213 92 248 102Q291 73 291 29ZM149 73T149 29Q149 -43 46 -118L13 -89V-81Q68 -37 68 10Q68 39 37
62V71Q71 92 106 102Q149 73 149 29Z" />
<glyph unicode="&#x2022;" glyph-name="bullet" horiz-adv-x="249" d="M156 303T171 287T187 241Q187 212 170 194T123 176Q94 176 78 192T62 238Q62 268 80 285T128 303Q156 303 171 287Z" />
<glyph unicode="&#x2039;" glyph-name="guilsinglleft" horiz-adv-x="235" d="M53 220L55 238L218 409L261 383V372L126 226L226 80L222 69L173 44L53 220Z" />
<glyph unicode="&#x203a;" glyph-name="guilsinglright" horiz-adv-x="235" d="M193 234L191 216L28 45L-15 71V82L120 228L20 374L24 385L73 410L193 234Z" />
</font>
</defs>
</svg>
