<?xml version="1.0" standalone="no"?>
<!DOCTYPE svg PUBLIC "-//W3C//DTD SVG 1.1//EN" "http://www.w3.org/Graphics/SVG/1.1/DTD/svg11.dtd">
<svg xmlns="http://www.w3.org/2000/svg">
<defs >
<font id="FiraSansExtraCondensed" horiz-adv-x="480" ><font-face
    font-family="Fira Sans Extra Condensed SemiBold"
    units-per-em="1000"
    panose-1="2 11 6 3 5 0 0 2 0 4"
    ascent="935"
    descent="-265"
    alphabetic="0" />
<glyph unicode=" " glyph-name="space" horiz-adv-x="192" />
<glyph unicode="!" glyph-name="exclam" horiz-adv-x="220" d="M181 692L163 247H57L38 692H181ZM146 149T168 125T190 66Q190 32 168 8T110 -16Q75 -16 53 8T30 66Q30 100 52 124T110 149Q146 149 168 125Z" />
<glyph unicode="&quot;" glyph-name="quotedbl" horiz-adv-x="403" d="M59 419L45 692H163L148 419H59ZM255 419L241 692H359L344 419H255Z" />
<glyph unicode="#" glyph-name="numbersign" horiz-adv-x="460" d="M448 443H393L367 242H418V151H355L335 0H228L248 151H162L142 0H35L55 151H12V242H67L93 443H42V534H106L124 674H231L213 534H299L317 674H424L406 534H448V443ZM260 242L286 443H200L174 242H260Z" />
<glyph unicode="$" glyph-name="dollar" horiz-adv-x="453" d="M433 123T393 70T281 -3V-159H184V-10Q127 -5 84 18T4 81L70 154Q103 123 135 107T205 91Q249 91 271 117T294 187Q294 226 272 251T194 298Q103 336 65 381T27 498Q27 568 71 618T184 681V828H281V680Q358
666 419 602L357 530Q328 557 300 570T241 584Q204 584 184 564T164 508Q164 474 187 452T272 404Q327 380 361 354T414 290T433 195Q433 123 393 70Z" />
<glyph unicode="%" glyph-name="percent" horiz-adv-x="723" d="M512 717L594 670L212 -37L130 10L512 717ZM242 687T283 641T324 511Q324 426 283 380T177 334Q113 334 72 380T31 510Q31 594 72 640T177 687Q242 687 283 641ZM149 606T138 583T126 510Q126 462
137 439T177 415Q206 415 217 438T229 511Q229 559 218 582T177 606Q149 606 138 583ZM610 337T651 291T692 160Q692 75 651 30T545 -16Q481 -16 440 30T398 160Q398 245 439 291T545 337Q610 337 651 291ZM516 256T505 233T493 160Q493 112 504 89T545 65Q574
65 585 88T596 160Q596 210 585 233T545 256Q516 256 505 233Z" />
<glyph unicode="&amp;" glyph-name="ampersand" horiz-adv-x="630" d="M346 708T394 664T442 547Q442 489 414 446T330 361L445 220Q468 287 483 368L591 341Q561 229 516 150L617 44L506 -16L437 68Q397 25 352 5T253 -16Q194 -16 149 8T78 76T52 176Q52 237
79 281T167 372Q120 421 102 458T84 544Q84 614 130 661T263 708Q346 708 394 664ZM213 618T213 545Q213 511 223 487T259 427Q289 459 301 483T314 544Q314 618 264 618Q213 618 213 545ZM215 273T204 246T193 182Q193 134 215 109T277 83Q330 83 372 134L240
297Q215 273 204 246Z" />
<glyph unicode="&apos;" glyph-name="quotesingle" horiz-adv-x="207" d="M59 419L45 692H163L148 419H59Z" />
<glyph unicode="(" glyph-name="parenleft" horiz-adv-x="276" d="M262 796Q201 691 176 594T150 350Q150 203 175 106T262 -96L174 -154Q124 -76 91 -8T37 149T15 350Q15 461 36 550T91 708T174 854L262 796Z" />
<glyph unicode=")" glyph-name="parenright" horiz-adv-x="276" d="M154 769T186 703T240 549T262 350Q262 239 241 151T187 -3T102 -154L15 -96Q74 7 99 106T125 350Q125 495 100 593T15 796L102 854Q154 769 186 703Z" />
<glyph unicode="*" glyph-name="asterisk" horiz-adv-x="390" d="M374 544L260 518L347 410L251 350L195 473L140 350L44 409L130 518L16 544L51 644L156 589L138 741H252L234 589L338 645L374 544Z" />
<glyph unicode="+" glyph-name="plus" horiz-adv-x="439" d="M275 536V384H400V278H275V128H164V278H38V384H164V536H275Z" />
<glyph unicode="," glyph-name="comma" horiz-adv-x="212" d="M140 149T161 126T183 68Q183 52 178 35T156 -28L103 -173H29L66 -2Q28 25 28 68Q28 103 50 126T106 149Q140 149 161 126Z" />
<glyph unicode="-" glyph-name="hyphen" horiz-adv-x="346" d="M41 260V366H305V260H41Z" />
<glyph unicode="." glyph-name="period" horiz-adv-x="217" d="M144 149T166 125T189 66Q189 33 167 9T108 -16Q73 -16 51 8T28 66Q28 100 50 124T108 149Q144 149 166 125Z" />
<glyph unicode="/" glyph-name="slash" horiz-adv-x="427" d="M255 813L370 788L171 -109L57 -84L255 813Z" />
<glyph unicode="0" glyph-name="zero" horiz-adv-x="508" d="M358 687T412 600T466 336Q466 -16 254 -16Q42 -16 42 336Q42 687 254 687Q358 687 412 600ZM227 585T212 564T189 489T181 336Q181 236 188 182T211 107T254 86Q282 86 297 107T320 181T327 336Q327
436 320 489T298 564T254 585Q227 585 212 564Z" />
<glyph unicode="1" glyph-name="one" horiz-adv-x="383" d="M315 674V0H183V539L66 452L5 539L194 674H315Z" />
<glyph unicode="2" glyph-name="two" horiz-adv-x="417" d="M250 687T294 663T360 596T383 502Q383 446 364 395T298 278T160 106H395L380 0H15V99Q113 220 160 286T225 399T244 494Q244 537 226 559T174 581Q146 581 125 566T75 515L-4 575Q70 687 189 687Q250
687 294 663Z" />
<glyph unicode="3" glyph-name="three" horiz-adv-x="430" d="M254 687T296 664T362 602T385 515Q385 392 257 357Q326 348 364 308T403 192Q403 136 378 89T305 13T189 -16Q128 -16 82 8T-5 83L70 149Q100 117 124 103T179 89Q218 89 241 117T265 198Q265 255
240 280T165 305H123L139 399H166Q207 399 231 425T256 499Q256 541 236 563T178 586Q124 586 74 531L6 600Q90 687 197 687Q254 687 296 664Z" />
<glyph unicode="4" glyph-name="four" horiz-adv-x="467" d="M451 255V152H389V0H262L261 152H21V245L178 689L292 649L157 255H262L278 422H389V255H451Z" />
<glyph unicode="5" glyph-name="five" horiz-adv-x="447" d="M377 575H176V412Q198 426 218 432T261 438Q331 438 375 381T419 221Q419 151 392 97T315 14T198 -16Q137 -16 93 9T11 81L86 148Q112 118 136 103T193 88Q236 88 258 121T281 220Q281 288 262 315T207
342Q189 342 174 337T139 318H48V674H393L377 575Z" />
<glyph unicode="6" glyph-name="six" horiz-adv-x="484" d="M347 450T382 425T438 350T459 230Q459 116 405 50T256 -16Q42 -16 42 310Q42 425 72 510T157 641T288 687Q360 687 415 644L366 564Q327 588 294 588Q246 588 216 536T181 382Q228 450 302 450Q347
450 382 425ZM324 301T308 328T263 355Q241 355 220 338T180 288Q181 211 188 167T211 104T255 84Q290 84 307 120T324 234Q324 301 308 328Z" />
<glyph unicode="7" glyph-name="seven" horiz-adv-x="386" d="M373 674V580L170 -14L48 25L237 570H10V674H373Z" />
<glyph unicode="8" glyph-name="eight" d="M400 328T428 285T457 181Q457 93 399 39T236 -16Q137 -16 80 38T23 179Q23 239 51 280T135 349Q86 380 66 418T45 508Q45 591 98 639T237 687Q327 687 381 642T435 515Q435 467 412 429T337 361Q400 328 428 285ZM207
594T191 575T174 506Q174 467 189 445T242 403L257 395Q285 420 295 445T306 507Q306 553 290 573T240 594Q207 594 191 575ZM283 83T303 107T324 182Q324 227 306 252T237 301L213 312Q183 289 170 258T156 184Q156 83 241 83Q283 83 303 107Z" />
<glyph unicode="9" glyph-name="nine" horiz-adv-x="473" d="M335 687T388 619T442 425Q442 288 405 200T291 59T90 -26L63 70Q172 104 227 155T300 300Q252 237 184 237Q141 237 104 264T45 341T22 457Q22 530 49 582T124 660T232 687Q335 687 388 619ZM271 334T304
396Q305 471 298 513T275 572T232 590Q158 590 158 460Q158 394 176 364T226 334Q271 334 304 396Z" />
<glyph unicode=":" glyph-name="colon" horiz-adv-x="217" d="M144 149T166 125T189 66Q189 33 167 9T108 -16Q73 -16 51 8T28 66Q28 100 50 124T108 149Q144 149 166 125ZM144 500T166 476T189 417Q189 384 167 360T108 335Q73 335 51 359T28 417Q28 451 50 475T108
500Q144 500 166 476Z" />
<glyph unicode=";" glyph-name="semicolon" horiz-adv-x="217" d="M140 149T161 126T183 68Q183 52 178 35T156 -28L103 -173H29L66 -2Q28 25 28 68Q28 103 50 126T106 149Q140 149 161 126ZM144 500T166 476T189 417Q189 384 167 360T108 335Q73 335 51 359T28
417Q28 451 50 475T108 500Q144 500 166 476Z" />
<glyph unicode="&lt;" glyph-name="less" horiz-adv-x="428" d="M356 562L402 468L133 333L402 200L356 104L25 274V392L356 562Z" />
<glyph unicode="=" glyph-name="equal" horiz-adv-x="427" d="M38 382V485H389V382H38ZM38 433V536H389V433H38Z" />
<glyph unicode="&gt;" glyph-name="greater" horiz-adv-x="428" d="M71 562L402 392V274L71 104L25 200L294 333L25 468L71 562Z" />
<glyph unicode="?" glyph-name="question" horiz-adv-x="408" d="M267 708T308 685T371 625T392 545Q392 507 381 480T354 436T312 396Q277 365 261 341T244 278V247H121V284Q121 328 132 358T158 407T199 446Q227 471 240 489T253 539Q253 568 238 584T194 600Q168
600 145 586T97 541L16 603Q90 708 209 708Q267 708 308 685ZM220 149T242 125T265 66Q265 33 243 9T184 -16Q149 -16 127 8T104 66Q104 100 126 124T184 149Q220 149 242 125Z" />
<glyph unicode="@" glyph-name="at" horiz-adv-x="847" d="M473 499T511 488T581 455V206Q581 140 589 117T619 94Q649 94 667 145T685 311Q685 454 624 530T437 607Q350 607 289 562T196 435T164 242Q164 65 233 -26T438 -118Q481 -118 523 -109T599 -85L631
-177Q538 -219 437 -219Q316 -219 227 -164T91 -5T43 241Q43 376 93 482T234 647T437 707Q551 707 634 655T760 512T804 313Q804 225 781 155T717 46T623 6Q579 6 551 34T515 102Q477 9 395 9Q322 9 284 68T245 232Q245 361 294 430T436 499Q473 499 511 488ZM443
95T467 136V407Q452 413 431 413Q397 413 382 374T366 232Q366 154 377 125T414 95Q443 95 467 136Z" />
<glyph unicode="A" glyph-name="A" horiz-adv-x="501" d="M363 0L332 158H166L135 0H-5L166 692H336L506 0H363ZM186 261H312L249 587L186 261Z" />
<glyph unicode="B" glyph-name="B" horiz-adv-x="510" d="M414 352T452 313T491 200Q491 98 423 49T236 0H53V692H213Q334 692 400 647T467 515Q467 457 435 419T349 366Q414 352 452 313ZM195 590V410H231Q280 410 302 433T324 502Q324 547 301 568T226 590H195ZM291
105T318 128T346 206Q346 261 321 287T240 313H195V105H237Q291 105 318 128Z" />
<glyph unicode="C" glyph-name="C" d="M345 708T387 690T469 634L402 555Q377 578 353 589T300 601Q243 601 211 543T179 347Q179 213 211 154T301 95Q332 95 355 107T409 146L475 69Q396 -16 291 -16Q172 -16 102 75T32 347Q32 466 65 547T156 668T291 708Q345
708 387 690Z" />
<glyph unicode="D" glyph-name="D" horiz-adv-x="545" d="M305 692T369 666T473 564T513 349Q513 154 436 77T229 0H53V692H217Q305 692 369 666ZM195 588V104H237Q279 104 307 124T352 199T368 349Q368 447 352 499T307 569T237 588H195Z" />
<glyph unicode="E" glyph-name="E" horiz-adv-x="433" d="M408 692L393 589H195V403H368V301H195V104H406V0H53V692H408Z" />
<glyph unicode="F" glyph-name="F" horiz-adv-x="403" d="M53 0V692H397L382 589H195V387H358V284H195V0H53Z" />
<glyph unicode="G" glyph-name="G" horiz-adv-x="541" d="M366 708T412 687T499 625L430 554Q400 580 373 591T313 603Q248 603 213 546T178 346Q178 246 190 190T227 112T291 90Q331 90 368 114V291H295L281 393H501V54Q457 21 403 3T293 -15Q161 -15 97 72T32
347Q32 467 68 548T166 668T307 708Q366 708 412 687Z" />
<glyph unicode="H" glyph-name="H" horiz-adv-x="552" d="M357 0V305H195V0H53V692H195V416H357V692H499V0H357Z" />
<glyph unicode="I" glyph-name="I" horiz-adv-x="248" d="M195 692V0H53V692H195Z" />
<glyph unicode="J" glyph-name="J" horiz-adv-x="264" d="M213 102Q213 -10 163 -67T26 -159L-12 -59Q24 -41 42 -21T66 28T72 107V692H213V102Z" />
<glyph unicode="K" glyph-name="K" horiz-adv-x="529" d="M195 692V0H53V692H195ZM523 692L342 380L538 0H383L199 369L382 692H523Z" />
<glyph unicode="L" glyph-name="L" horiz-adv-x="421" d="M195 692V114H415L400 0H53V692H195Z" />
<glyph unicode="M" glyph-name="M" horiz-adv-x="666" d="M632 0H498L489 284L487 345Q486 376 485 417T484 507L485 564L399 75H266L175 564Q178 498 178 433Q178 359 175 281L166 0H34L77 692H252L335 211L411 692H589L632 0Z" />
<glyph unicode="N" glyph-name="N" horiz-adv-x="549" d="M496 0H320L158 558L161 530Q168 464 172 407T177 277V0H53V692H229L392 133Q384 177 378 243T372 380V692H496V0Z" />
<glyph unicode="O" glyph-name="O" horiz-adv-x="580" d="M414 708T481 618T548 346Q548 166 481 75T290 -16Q165 -16 99 74T32 346Q32 525 99 616T290 708Q414 708 481 618ZM233 602T206 544T179 346Q179 205 206 148T290 90Q329 90 353 114T389 194T401 346Q401
485 374 543T290 602Q233 602 206 544Z" />
<glyph unicode="P" glyph-name="P" horiz-adv-x="494" d="M348 692T414 636T481 470Q481 355 416 297T233 239H195V0H53V692H220Q348 692 414 636ZM283 342T309 371T336 469Q336 532 310 561T225 590H195V342H223Q283 342 309 371Z" />
<glyph unicode="Q" glyph-name="Q" horiz-adv-x="580" d="M466 42T507 26T586 -26L499 -133Q457 -74 406 -43T281 -12Q164 -12 98 79T32 346Q32 523 99 615T290 708Q414 708 481 617T548 346Q548 223 511 154T408 43Q466 42 507 26ZM179 206T206 148T290 90Q329
90 353 114T389 194T401 346Q401 487 374 544T290 602Q233 602 206 545T179 346Q179 206 206 148Z" />
<glyph unicode="R" glyph-name="R" horiz-adv-x="514" d="M365 0L247 274H238H195V0H53V692H227Q480 692 480 486Q480 424 454 376T372 301L516 0H365ZM287 373T311 400T335 486Q335 540 310 565T226 591H195V373H232Q287 373 311 400Z" />
<glyph unicode="S" glyph-name="S" horiz-adv-x="471" d="M300 708T348 686T435 621L371 547Q313 602 251 602Q215 602 194 581T173 523Q173 488 196 465T283 416Q341 392 376 365T431 298T451 199Q451 138 423 89T343 12T222 -16Q151 -16 99 9T4 80L73 156Q108
124 141 108T213 91Q257 91 280 117T304 189Q304 230 282 255T202 305Q108 344 68 392T28 513Q28 570 55 614T130 683T238 708Q300 708 348 686Z" />
<glyph unicode="T" glyph-name="T" horiz-adv-x="444" d="M445 692L430 583H292V0H151V583H6V692H445Z" />
<glyph unicode="U" glyph-name="U" horiz-adv-x="537" d="M493 197Q493 137 468 89T393 13T269 -15Q159 -15 101 43T43 197V692H185V203Q185 146 205 119T269 92Q312 92 332 119T352 203V692H493V197Z" />
<glyph unicode="V" glyph-name="V" horiz-adv-x="484" d="M489 692L335 0H156L-5 692H137L247 118L351 692H489Z" />
<glyph unicode="W" glyph-name="W" horiz-adv-x="707" d="M695 692L603 0H419L352 548L282 0H101L12 692H147L204 110L280 692H428L501 110L565 692H695Z" />
<glyph unicode="X" glyph-name="X" d="M321 373L484 0H336L236 279L140 0H-5L153 368L7 692H155L238 456L327 692H470L321 373Z" />
<glyph unicode="Y" glyph-name="Y" horiz-adv-x="491" d="M498 692L316 262V0H175V261L-7 692H141L248 374L355 692H498Z" />
<glyph unicode="Z" glyph-name="Z" horiz-adv-x="444" d="M424 692V584L166 114H428L414 0H13V107L271 581H38V692H424Z" />
<glyph unicode="[" glyph-name="bracketleft" horiz-adv-x="269" d="M250 820V718H155V-19H250V-121H28V820H250Z" />
<glyph unicode="\" glyph-name="backslash" horiz-adv-x="427" d="M171 811L370 -84L255 -109L57 786L171 811Z" />
<glyph unicode="]" glyph-name="bracketright" horiz-adv-x="269" d="M241 820V-121H20V-19H114V718H20V820H241Z" />
<glyph unicode="^" glyph-name="asciicircum" horiz-adv-x="464" d="M294 842L449 527H316L230 737L149 527H15L170 842H294Z" />
<glyph unicode="_" glyph-name="underscore" horiz-adv-x="432" d="M10 -161V-53H422V-161H10Z" />
<glyph unicode="`" glyph-name="grave" horiz-adv-x="293" d="M90 818L268 693L231 628L35 719L90 818Z" />
<glyph unicode="a" glyph-name="a" horiz-adv-x="455" d="M402 108T408 96T431 76L403 -14Q361 -9 335 7T296 59Q250 -16 166 -16Q100 -16 61 29T22 148Q22 235 75 280T232 326H269V358Q269 407 253 426T198 446Q153 446 83 420L52 507Q93 526 138 536T223 546Q402
546 402 365V134Q402 108 408 96ZM247 82T269 140V247H245Q199 247 178 226T156 159Q156 121 169 102T205 82Q247 82 269 140Z" />
<glyph unicode="b" glyph-name="b" horiz-adv-x="496" d="M383 546T424 475T466 265Q466 135 419 60T292 -16Q257 -16 228 1T179 50L172 0H51V741L187 755V476Q208 509 238 527T306 546Q383 546 424 475ZM288 85T307 125T326 265Q326 369 309 406T261 444Q240
444 221 427T187 380V137Q215 85 254 85Q288 85 307 125Z" />
<glyph unicode="c" glyph-name="c" horiz-adv-x="399" d="M335 546T398 483L341 407Q298 441 259 441Q216 441 195 401T173 262Q173 167 195 130T259 92Q280 92 298 99T338 124L398 46Q334 -16 251 -16Q146 -16 88 54T30 261Q30 349 57 413T133 512T250 546Q335
546 398 483Z" />
<glyph unicode="d" glyph-name="d" horiz-adv-x="498" d="M447 741V0H326L320 59Q273 -16 199 -16Q117 -16 74 57T30 265Q30 350 52 413T116 511T209 546Q271 546 311 494V756L447 741ZM279 85T311 143V396Q296 420 280 432T245 444Q171 444 171 265Q171 166 189
126T240 85Q279 85 311 143Z" />
<glyph unicode="e" glyph-name="e" horiz-adv-x="466" d="M441 266T438 224H167Q171 146 194 116T260 86Q289 86 314 96T368 129L424 54Q352 -16 251 -16Q144 -16 87 57T30 261Q30 392 84 469T239 546Q334 546 387 478T441 277Q441 266 438 224ZM309 316Q309 388
293 420T240 453Q206 453 189 421T167 308H309V316Z" />
<glyph unicode="f" glyph-name="f" horiz-adv-x="301" d="M230 654T218 640T205 595V530H304L289 433H205V0H69V433H5V530H69V591Q69 666 112 711T238 756Q301 756 360 725L324 637Q289 654 257 654Q230 654 218 640Z" />
<glyph unicode="g" glyph-name="g" horiz-adv-x="450" d="M453 502Q414 482 329 482Q372 461 392 429T413 346Q413 266 363 217T226 168Q203 168 177 175Q160 163 160 138Q160 119 170 110T211 100H265Q348 100 396 59T444 -49Q444 -126 384 -172T214 -219Q95
-219 49 -177T2 -52H124Q124 -92 142 -109T215 -127Q265 -127 286 -109T308 -58Q308 -26 291 -11T236 4H196Q119 4 84 32T48 107Q48 160 103 203Q61 229 42 265T23 354Q23 442 76 493T220 544Q285 544 327 559T419 603L453 502ZM189 454T173 431T156 356Q156 307
172 282T220 256Q252 256 267 279T283 358Q283 408 268 431T221 454Q189 454 173 431Z" />
<glyph unicode="h" glyph-name="h" horiz-adv-x="481" d="M367 546T400 505T433 395V0H297V380Q297 413 288 427T261 441Q225 441 187 369V0H51V741L187 755V469Q213 508 242 527T310 546Q367 546 400 505Z" />
<glyph unicode="i" glyph-name="i" horiz-adv-x="239" d="M187 530V0H51V530H187ZM154 800T176 777T198 719Q198 685 176 663T119 640Q83 640 61 662T39 719Q39 754 61 777T119 800Q154 800 176 777Z" />
<glyph unicode="j" glyph-name="j" horiz-adv-x="239" d="M187 31Q187 -38 165 -85T104 -161T7 -218L-38 -120Q-7 -102 11 -85T40 -40T51 29V530H187V31ZM154 800T176 777T198 719Q198 685 176 663T119 640Q83 640 61 662T39 719Q39 754 61 777T119 800Q154 800 176 777Z" />
<glyph unicode="k" glyph-name="k" horiz-adv-x="463" d="M187 756V0H51V741L187 756ZM459 530L325 296L469 0H325L191 290L328 530H459Z" />
<glyph unicode="l" glyph-name="l" horiz-adv-x="252" d="M113 -16T80 19T46 114V741L182 756V120Q182 93 205 93Q215 93 225 97L251 3Q215 -16 171 -16Q113 -16 80 19Z" />
<glyph unicode="m" glyph-name="m" horiz-adv-x="699" d="M587 546T619 505T651 395V0H518V381Q518 414 510 428T485 442Q450 442 418 376V0H286V381Q286 442 252 442Q216 442 184 376V0H51V530H170L178 463Q203 503 233 524T303 546Q340 546 366 524T407 459Q460
546 535 546Q587 546 619 505Z" />
<glyph unicode="n" glyph-name="n" horiz-adv-x="481" d="M367 546T400 505T433 395V0H297V380Q297 413 288 427T261 441Q225 441 187 369V0H51V530H170L180 463Q206 504 237 525T310 546Q367 546 400 505Z" />
<glyph unicode="o" glyph-name="o" horiz-adv-x="492" d="M348 546T405 475T462 265Q462 132 405 58T246 -16Q145 -16 88 56T30 265Q30 401 87 473T246 546Q348 546 405 475ZM207 443T189 403T171 265Q171 167 189 127T246 86Q285 86 303 127T321 265Q321 363
303 403T246 443Q207 443 189 403Z" />
<glyph unicode="p" glyph-name="p" horiz-adv-x="496" d="M384 546T425 474T466 266Q466 180 445 117T385 19T293 -16Q229 -16 187 40V-204L51 -219V530H172L178 470Q203 509 234 527T306 546Q384 546 425 474ZM326 86T326 265Q326 366 310 405T262 444Q221 444
187 382V133Q216 86 254 86Q326 86 326 265Z" />
<glyph unicode="q" glyph-name="q" horiz-adv-x="498" d="M447 530V-219L311 -204V50Q268 -16 198 -16Q118 -16 74 57T30 265Q30 351 52 414T115 512T209 546Q277 546 322 482L328 530H447ZM261 85T278 100T311 145V395Q296 419 280 431T244 444Q211 444 191 402T171
265Q171 164 189 125T239 85Q261 85 278 100Z" />
<glyph unicode="r" glyph-name="r" horiz-adv-x="334" d="M319 544T337 537L315 406Q297 412 278 412Q240 412 219 381T187 287V0H51V530H170L180 440Q217 544 296 544Q319 544 337 537Z" />
<glyph unicode="s" glyph-name="s" horiz-adv-x="400" d="M254 546T295 530T368 482L317 408Q263 447 216 447Q189 447 174 434T159 395Q159 378 166 367T193 344T251 316Q319 289 351 253T383 154Q383 75 328 30T187 -16Q132 -16 85 4T4 60L68 131Q128 82 181
82Q211 82 228 98T245 142Q245 173 227 190T153 230Q84 258 55 294T25 386Q25 431 46 467T109 525T205 546Q254 546 295 530Z" />
<glyph unicode="t" glyph-name="t" horiz-adv-x="321" d="M329 24Q304 4 273 -6T209 -16Q136 -16 99 25T62 138V433H3V530H62V646L198 663V530H297L284 433H198V139Q198 93 236 93Q249 93 259 96T283 108L329 24Z" />
<glyph unicode="u" glyph-name="u" horiz-adv-x="477" d="M425 0H306L300 64Q251 -16 173 -16Q115 -16 82 25T48 134V530H184V141Q184 86 221 86Q259 86 289 150V530H425V0Z" />
<glyph unicode="v" glyph-name="v" horiz-adv-x="431" d="M433 530L298 0H137L-2 530H138L218 106L300 530H433Z" />
<glyph unicode="w" glyph-name="w" horiz-adv-x="631" d="M622 530L532 0H370L315 407L261 0H101L9 530H140L188 102L251 530H384L445 102L495 530H622Z" />
<glyph unicode="x" glyph-name="x" horiz-adv-x="429" d="M294 284L436 0H293L211 208L134 0H-7L133 279L6 530H147L213 351L277 530H413L294 284Z" />
<glyph unicode="y" glyph-name="y" horiz-adv-x="436" d="M299 -1Q247 -202 50 -219L35 -124Q98 -113 130 -86T180 0H129L-2 530H136L216 89L303 530H438L299 -1Z" />
<glyph unicode="z" glyph-name="z" horiz-adv-x="380" d="M363 530V433L158 106H367L355 0H11V98L216 425H29V530H363Z" />
<glyph unicode="{" glyph-name="braceleft" horiz-adv-x="267" d="M249 743Q213 743 200 730T186 681V476Q186 416 166 389T99 349Q145 337 166 310T187 224V19Q187 -16 200 -29T249 -43V-138Q176 -138 136 -121T79 -70T63 20V221Q63 261 52 277T10 294V405Q41
405 52 422T63 479V680Q63 735 79 769T135 821T249 838V743Z" />
<glyph unicode="|" glyph-name="bar" horiz-adv-x="305" d="M216 809V-104H89V809H216Z" />
<glyph unicode="}" glyph-name="braceright" horiz-adv-x="267" d="M91 838T131 821T188 770T204 680V479Q204 439 215 422T257 405V294Q226 294 215 278T204 221V20Q204 -35 188 -69T132 -121T18 -138V-43Q53 -43 66 -30T80 19V224Q80 283 101 309T169 349Q120
363 100 389T80 476V681Q80 716 67 729T19 743L18 838Q91 838 131 821Z" />
<glyph unicode="~" glyph-name="asciitilde" horiz-adv-x="432" d="M261 242T242 251T197 276Q177 288 167 293T143 299Q125 299 113 286T84 248L16 285Q40 335 71 366T148 398Q173 398 192 389T235 364Q255 351 265 346T288 341Q306 341 319 353T346 388L416
352Q364 242 287 242Q261 242 242 251Z" />
<glyph unicode="&#xa0;" glyph-name="uni00A0" horiz-adv-x="192" />
<glyph unicode="&#xa1;" glyph-name="exclamdown" horiz-adv-x="220" d="M146 504T168 480T190 422Q190 388 168 364T110 339Q75 339 53 363T30 422Q30 455 52 479T110 504Q146 504 168 480ZM163 241L182 -208H39L58 241H163Z" />
<glyph unicode="&#xa2;" glyph-name="cent" horiz-adv-x="399" d="M398 46Q347 -3 285 -13V-159H188V-9Q112 10 71 78T30 261Q30 372 72 444T189 538V690H285V543Q348 533 398 483L341 407Q298 441 259 441Q216 441 195 401T173 262Q173 167 195 130T259 92Q280
92 298 99T338 124L398 46Z" />
<glyph unicode="&#xa3;" glyph-name="sterling" horiz-adv-x="448" d="M223 182T211 155T160 106H421L406 0H22V100Q53 111 67 126T86 162T90 223V315H34V389H90V496Q90 580 137 633T268 687Q323 687 364 664T437 593L356 535Q339 561 322 572T283 584Q223 584
223 498V389H373V315H223V230Q223 182 211 155Z" />
<glyph unicode="&#xa4;" glyph-name="currency" horiz-adv-x="460" d="M387 82L327 157Q284 128 229 128Q173 128 132 158L70 82L7 137L77 221Q49 272 49 341Q49 409 76 461L5 548L73 602L133 526Q174 555 229 555Q284 555 327 526L390 602L453 546L382 463Q410
410 410 341Q410 272 384 222L455 136L387 82ZM268 220T287 248T306 342Q306 407 287 435T229 464Q190 464 171 435T152 342Q152 278 171 249T229 220Q268 220 287 248Z" />
<glyph unicode="&#xa5;" glyph-name="yen" horiz-adv-x="469" d="M476 674L328 350H411V275H302V197H411V122H302V0H167V122H60V197H167V275H60V350H141L-7 674H129L236 387L342 674H476Z" />
<glyph unicode="&#xa6;" glyph-name="brokenbar" horiz-adv-x="305" d="M216 809V443H89V809H216ZM216 262V-104H89V262H216Z" />
<glyph unicode="&#xa7;" glyph-name="section" horiz-adv-x="453" d="M369 159T380 135T392 78Q392 8 342 -35T210 -79Q117 -79 48 -27L95 51Q147 17 202 17Q233 17 249 30T266 71Q266 89 259 101T230 125T166 154Q101 180 72 211T42 300Q42 339 60 370T110 424Q85
446 74 471T63 531Q63 599 112 642T241 686Q331 686 401 631L355 555Q303 590 253 590Q222 590 206 576T189 536Q189 516 196 504T223 480T286 450Q349 425 380 393T411 306Q411 229 343 179Q369 159 380 135ZM256 229T275 220Q296 251 296 284Q296 313 279 331T214
368Q179 383 175 385Q157 357 157 324Q157 292 171 275T228 241Q256 229 275 220Z" />
<glyph unicode="&#xa8;" glyph-name="dieresis" horiz-adv-x="390" d="M134 788T153 768T173 717Q173 687 154 667T104 646Q75 646 55 666T35 717Q35 747 55 767T104 788Q134 788 153 768ZM326 788T345 768T365 717Q365 687 346 667T296 646Q267 646 247 666T226
717Q226 747 246 767T296 788Q326 788 345 768Z" />
<glyph unicode="&#xa9;" glyph-name="copyright" horiz-adv-x="664" d="M411 760T474 720T574 605T611 433Q611 335 575 261T475 147T333 106Q255 106 191 146T90 261T53 433Q53 531 90 605T191 719T333 760Q411 760 474 720ZM275 689T229 659T157 570T131 433Q131
354 157 296T229 208T333 177Q391 177 436 207T508 296T534 433Q534 512 508 570T437 658T333 689Q275 689 229 659ZM397 628T442 581L403 528Q386 540 373 545T344 550Q285 550 285 434Q285 318 347 318Q364 318 377 324T407 345L446 289Q396 239 335 239Q269
239 230 289T190 434Q190 526 230 577T338 628Q397 628 442 581Z" />
<glyph unicode="&#xaa;" glyph-name="ordfeminine" horiz-adv-x="419" d="M232 527V548Q232 578 221 590T181 602Q142 602 90 582L62 662Q93 677 130 684T201 692Q350 692 350 560V388Q350 358 372 350L348 269Q281 275 256 320Q220 266 156 266Q102 266 70 301T37
392Q37 457 80 492T203 527H232ZM215 353T232 383V461H211Q180 461 168 447T155 403Q155 353 189 353Q215 353 232 383ZM40 105H383V2H40V105Z" />
<glyph unicode="&#xab;" glyph-name="guillemotleft" horiz-adv-x="543" d="M192 549L276 494L165 285L276 76L192 22L36 241V329L192 549ZM423 549L507 494L396 285L507 76L423 22L267 241V329L423 549Z" />
<glyph unicode="&#xac;" glyph-name="logicalnot" horiz-adv-x="439" d="M401 378V123H289V275H38V378H401Z" />
<glyph unicode="&#xad;" glyph-name="uni00AD" horiz-adv-x="346" d="M41 260V366H305V260H41Z" />
<glyph unicode="&#xae;" glyph-name="registered" horiz-adv-x="522" d="M327 756T378 723T459 628T488 487Q488 408 459 348T379 254T262 221Q197 221 145 254T64 347T34 487Q34 566 63 627T145 722T262 756Q327 756 378 723ZM334 281T378 336T423 487Q423 585
379 640T262 695Q190 695 145 640T100 487Q100 390 145 336T262 281Q334 281 378 336ZM368 354H300L255 458H235V354H175V634H244Q299 634 327 612T355 546Q355 498 308 472L368 354ZM235 511H259Q274 511 283 520T293 549Q293 584 258 584H235V511Z" />
<glyph unicode="&#xaf;" glyph-name="overscore" horiz-adv-x="312" d="M287 661H35V754H287V661Z" />
<glyph unicode="&#xb0;" glyph-name="degree" horiz-adv-x="427" d="M139 374T106 393T52 450T31 542Q31 595 51 632T105 689T178 708Q218 708 251 689T305 633T326 541Q326 487 306 450T252 393T178 374Q139 374 106 393ZM234 455T234 541Q234 627 178 627Q123
627 123 542Q123 455 178 455Q234 455 234 541Z" />
<glyph unicode="&#xb1;" glyph-name="plusminus" horiz-adv-x="439" d="M44 0V103H395V0H44ZM275 597V445H400V339H275V189H164V339H38V445H164V597H275Z" />
<glyph unicode="&#xb2;" glyph-name="uni00B2" horiz-adv-x="334" d="M222 749T257 714T293 626Q293 593 281 564T239 497T149 400H301L290 321H44V395Q108 467 137 504T179 567T191 621Q191 645 180 657T149 670Q132 670 117 661T84 631L29 675Q79 749 162 749Q222
749 257 714Z" />
<glyph unicode="&#xb3;" glyph-name="uni00B3" horiz-adv-x="334" d="M223 750T256 719T290 639Q290 563 206 543Q252 539 277 514T303 441Q303 385 265 348T157 310Q73 310 25 375L77 423Q97 404 113 396T149 388Q173 388 187 403T201 448Q201 479 186 492T141
505H114L125 575H143Q168 575 181 588T194 626Q194 675 149 675Q114 675 79 642L31 693Q86 750 163 750Q223 750 256 719Z" />
<glyph unicode="&#xb4;" glyph-name="acute" horiz-adv-x="293" d="M214 818L268 719L72 628L35 693L214 818Z" />
<glyph unicode="&#xb5;" glyph-name="uni00B5" horiz-adv-x="482" d="M322 -15Q314 7 310 25T303 71Q285 34 262 13T212 -9Q171 -9 145 36Q163 0 171 -31T179 -111V-204L51 -218V530H187V154Q187 93 225 93Q265 93 291 161V530H427V182Q427 84 447 0L322 -15Z" />
<glyph unicode="&#xb6;" glyph-name="paragraph" horiz-adv-x="652" d="M560 692V-204L442 -220V595H366V-204L249 -220V269Q153 273 102 331T51 481Q51 581 109 636T274 692H560Z" />
<glyph unicode="&#xb7;" glyph-name="middot" horiz-adv-x="217" d="M144 390T166 366T189 307Q189 274 167 250T108 225Q73 225 51 249T28 307Q28 341 50 365T108 390Q144 390 166 366Z" />
<glyph unicode="&#xb8;" glyph-name="cedilla" horiz-adv-x="278" d="M167 -55Q253 -69 253 -147Q253 -196 220 -225T129 -255Q75 -255 35 -227L67 -166Q94 -178 119 -178Q156 -178 156 -146Q156 -126 138 -117T80 -108L94 16H167V-55Z" />
<glyph unicode="&#xb9;" glyph-name="uni00B9" horiz-adv-x="334" d="M248 741V321H150V642L75 590L30 654L158 741H248Z" />
<glyph unicode="&#xba;" glyph-name="ordmasculine" horiz-adv-x="419" d="M293 692T339 639T386 479Q386 377 340 322T210 266Q127 266 80 320T33 480Q33 582 79 637T209 692Q293 692 339 639ZM181 603T168 577T155 480Q155 408 168 382T210 356Q238 356 251
382T264 479Q264 552 252 577T210 603Q181 603 168 577ZM34 0V103H385V0H34Z" />
<glyph unicode="&#xbb;" glyph-name="guillemotright" horiz-adv-x="543" d="M120 549L276 329V241L120 22L36 76L147 285L36 494L120 549ZM351 549L507 329V241L351 22L267 76L378 285L267 494L351 549Z" />
<glyph unicode="&#xbc;" glyph-name="onequarter" horiz-adv-x="810" d="M248 692V272H150V593L75 541L30 605L158 692H248ZM532 756L613 722L278 -83L197 -48L532 756ZM788 164V88H750V0H658L657 88H498V158L596 429L680 397L596 164H658L678 264H750V164H788Z" />
<glyph unicode="&#xbd;" glyph-name="onehalf" horiz-adv-x="810" d="M248 692V272H150V593L75 541L30 605L158 692H248ZM532 756L613 722L278 -83L197 -48L532 756ZM698 428T733 393T769 305Q769 272 757 243T715 176T625 79H777L766 0H520V74Q584 146 613 183T655
246T667 300Q667 324 656 336T625 349Q608 349 593 340T560 310L505 354Q555 428 638 428Q698 428 733 393Z" />
<glyph unicode="&#xbe;" glyph-name="threequarters" horiz-adv-x="810" d="M223 701T256 670T290 590Q290 514 206 494Q252 490 277 465T303 392Q303 336 265 299T157 261Q73 261 25 326L77 374Q97 355 113 347T149 339Q173 339 187 354T201 399Q201 430 186
443T141 456H114L125 526H143Q168 526 181 539T194 577Q194 626 149 626Q114 626 79 593L31 644Q86 701 163 701Q223 701 256 670ZM532 756L613 722L278 -83L197 -48L532 756ZM788 164V88H750V0H658L657 88H498V158L596 429L680 397L596 164H658L678 264H750V164H788Z"
/>
<glyph unicode="&#xbf;" glyph-name="questiondown" horiz-adv-x="408" d="M188 339T166 363T143 421Q143 455 165 479T224 503Q259 503 281 479T304 421Q304 388 282 364T224 339Q188 339 166 363ZM140 -221T99 -198T37 -138T16 -57Q16 -19 27 8T54 54T96 95Q130
125 146 148T163 211V239H286V206Q286 162 275 132T249 84T209 44Q181 19 168 -1T154 -52Q154 -82 170 -97T214 -113Q240 -113 263 -99T311 -54L392 -117Q319 -221 198 -221Q140 -221 99 -198Z" />
<glyph unicode="&#xc0;" glyph-name="Agrave" horiz-adv-x="501" d="M363 0L332 158H166L135 0H-5L166 692H336L506 0H363ZM186 261H312L249 587L186 261ZM185 936L365 819L330 752L133 835L185 936Z" />
<glyph unicode="&#xc1;" glyph-name="Aacute" horiz-adv-x="501" d="M363 0L332 158H166L135 0H-5L166 692H336L506 0H363ZM186 261H312L249 587L186 261ZM314 936L366 835L169 752L134 820L314 936Z" />
<glyph unicode="&#xc2;" glyph-name="Acircumflex" horiz-adv-x="501" d="M363 0L332 158H166L135 0H-5L166 692H336L506 0H363ZM186 261H312L249 587L186 261ZM141 760L93 810L210 937H292L408 810L360 760L250 842L141 760Z" />
<glyph unicode="&#xc3;" glyph-name="Atilde" horiz-adv-x="501" d="M363 0L332 158H166L135 0H-5L166 692H336L506 0H363ZM186 261H312L249 587L186 261ZM284 772T271 778T239 797Q228 806 220 810T204 814Q190 814 181 805T160 772L95 802Q111 850 138 878T201
907Q219 907 231 901T263 883Q274 874 282 870T299 866Q312 866 321 875T342 906L407 877Q391 827 364 800T302 772Q284 772 271 778Z" />
<glyph unicode="&#xc4;" glyph-name="Adieresis" horiz-adv-x="501" d="M363 0L332 158H166L135 0H-5L166 692H336L506 0H363ZM186 261H312L249 587L186 261ZM189 914T208 894T228 843Q228 813 209 793T159 772Q130 772 110 792T90 843Q90 873 110 893T159 914Q189
914 208 894ZM381 914T400 894T420 843Q420 813 401 793T351 772Q322 772 302 792T281 843Q281 873 301 893T351 914Q381 914 400 894Z" />
<glyph unicode="&#xc5;" glyph-name="Aring" horiz-adv-x="501" d="M363 0L332 158H166L135 0H-5L166 692H336L506 0H363ZM186 261H312L249 587L186 261ZM305 983T336 950T367 860Q367 804 336 771T251 737Q198 737 167 771T135 860Q135 915 166 949T251 983Q305
983 336 950ZM233 914T224 902T214 860Q214 830 223 818T251 805Q289 805 289 860Q289 889 280 901T251 914Q233 914 224 902Z" />
<glyph unicode="&#xc6;" glyph-name="AE" horiz-adv-x="696" d="M483 104H673V0H365L344 158H172L130 0H-18L205 692H642L628 589H410L438 401H635V299H454L483 104ZM200 261H330L287 587L200 261Z" />
<glyph unicode="&#xc7;" glyph-name="Ccedilla" d="M407 -3T322 -14V-55Q408 -69 408 -147Q408 -196 375 -225T284 -255Q230 -255 190 -227L222 -166Q249 -178 274 -178Q311 -178 311 -146Q311 -126 293 -117T235 -108L246 -12Q146 4 89 94T32 347Q32 466 65 547T156
668T291 708Q345 708 387 690T469 634L402 555Q377 578 353 589T300 601Q243 601 211 543T179 347Q179 213 211 154T301 95Q332 95 355 107T409 146L475 69Q407 -3 322 -14Z" />
<glyph unicode="&#xc8;" glyph-name="Egrave" horiz-adv-x="433" d="M408 692L393 589H195V403H368V301H195V104H406V0H53V692H408ZM165 936L345 819L310 752L113 835L165 936Z" />
<glyph unicode="&#xc9;" glyph-name="Eacute" horiz-adv-x="433" d="M408 692L393 589H195V403H368V301H195V104H406V0H53V692H408ZM294 936L346 835L149 752L114 820L294 936Z" />
<glyph unicode="&#xca;" glyph-name="Ecircumflex" horiz-adv-x="433" d="M408 692L393 589H195V403H368V301H195V104H406V0H53V692H408ZM121 760L73 810L190 937H272L388 810L340 760L230 842L121 760Z" />
<glyph unicode="&#xcb;" glyph-name="Edieresis" horiz-adv-x="433" d="M408 692L393 589H195V403H368V301H195V104H406V0H53V692H408ZM169 914T188 894T208 843Q208 813 189 793T139 772Q110 772 90 792T70 843Q70 873 90 893T139 914Q169 914 188 894ZM361 914T380
894T400 843Q400 813 381 793T331 772Q302 772 282 792T261 843Q261 873 281 893T331 914Q361 914 380 894Z" />
<glyph unicode="&#xcc;" glyph-name="Igrave" horiz-adv-x="248" d="M195 692V0H53V692H195ZM58 936L238 819L203 752L6 835L58 936Z" />
<glyph unicode="&#xcd;" glyph-name="Iacute" horiz-adv-x="248" d="M195 692V0H53V692H195ZM187 936L239 835L42 752L7 820L187 936Z" />
<glyph unicode="&#xce;" glyph-name="Icircumflex" horiz-adv-x="248" d="M195 692V0H53V692H195ZM14 760L-34 810L83 937H165L281 810L233 760L123 842L14 760Z" />
<glyph unicode="&#xcf;" glyph-name="Idieresis" horiz-adv-x="248" d="M195 692V0H53V692H195ZM62 914T81 894T101 843Q101 813 82 793T32 772Q3 772 -17 792T-37 843Q-37 873 -17 893T32 914Q62 914 81 894ZM254 914T273 894T293 843Q293 813 274 793T224 772Q195
772 175 792T154 843Q154 873 174 893T224 914Q254 914 273 894Z" />
<glyph unicode="&#xd0;" glyph-name="Eth" horiz-adv-x="562" d="M322 692T386 666T490 564T530 349Q530 154 453 77T246 0H70V309H15V397H70V692H234Q322 692 386 666ZM296 104T324 124T369 199T385 349Q385 447 369 499T324 569T254 588H212V397H303V309H212V104H254Q296
104 324 124Z" />
<glyph unicode="&#xd1;" glyph-name="Ntilde" horiz-adv-x="549" d="M496 0H320L158 558L161 530Q168 464 172 407T177 277V0H53V692H229L392 133Q384 177 378 243T372 380V692H496V0ZM311 772T298 778T266 797Q255 806 247 810T231 814Q217 814 208 805T187 772L122
802Q138 850 165 878T228 907Q246 907 258 901T290 883Q301 874 309 870T326 866Q339 866 348 875T369 906L434 877Q418 827 391 800T329 772Q311 772 298 778Z" />
<glyph unicode="&#xd2;" glyph-name="Ograve" horiz-adv-x="580" d="M414 708T481 618T548 346Q548 166 481 75T290 -16Q165 -16 99 74T32 346Q32 525 99 616T290 708Q414 708 481 618ZM233 602T206 544T179 346Q179 205 206 148T290 90Q329 90 353 114T389 194T401
346Q401 485 374 543T290 602Q233 602 206 544ZM224 936L404 819L369 752L172 835L224 936Z" />
<glyph unicode="&#xd3;" glyph-name="Oacute" horiz-adv-x="580" d="M414 708T481 618T548 346Q548 166 481 75T290 -16Q165 -16 99 74T32 346Q32 525 99 616T290 708Q414 708 481 618ZM233 602T206 544T179 346Q179 205 206 148T290 90Q329 90 353 114T389 194T401
346Q401 485 374 543T290 602Q233 602 206 544ZM353 936L405 835L208 752L173 820L353 936Z" />
<glyph unicode="&#xd4;" glyph-name="Ocircumflex" horiz-adv-x="580" d="M414 708T481 618T548 346Q548 166 481 75T290 -16Q165 -16 99 74T32 346Q32 525 99 616T290 708Q414 708 481 618ZM233 602T206 544T179 346Q179 205 206 148T290 90Q329 90 353 114T389
194T401 346Q401 485 374 543T290 602Q233 602 206 544ZM180 760L132 810L249 937H331L447 810L399 760L289 842L180 760Z" />
<glyph unicode="&#xd5;" glyph-name="Otilde" horiz-adv-x="580" d="M414 708T481 618T548 346Q548 166 481 75T290 -16Q165 -16 99 74T32 346Q32 525 99 616T290 708Q414 708 481 618ZM233 602T206 544T179 346Q179 205 206 148T290 90Q329 90 353 114T389 194T401
346Q401 485 374 543T290 602Q233 602 206 544ZM323 772T310 778T278 797Q267 806 259 810T243 814Q229 814 220 805T199 772L134 802Q150 850 177 878T240 907Q258 907 270 901T302 883Q313 874 321 870T338 866Q351 866 360 875T381 906L446 877Q430 827 403
800T341 772Q323 772 310 778Z" />
<glyph unicode="&#xd6;" glyph-name="Odieresis" horiz-adv-x="580" d="M414 708T481 618T548 346Q548 166 481 75T290 -16Q165 -16 99 74T32 346Q32 525 99 616T290 708Q414 708 481 618ZM233 602T206 544T179 346Q179 205 206 148T290 90Q329 90 353 114T389
194T401 346Q401 485 374 543T290 602Q233 602 206 544ZM228 914T247 894T267 843Q267 813 248 793T198 772Q169 772 149 792T129 843Q129 873 149 893T198 914Q228 914 247 894ZM420 914T439 894T459 843Q459 813 440 793T390 772Q361 772 341 792T320 843Q320
873 340 893T390 914Q420 914 439 894Z" />
<glyph unicode="&#xd7;" glyph-name="multiply" horiz-adv-x="427" d="M310 502L391 438L286 307L391 175L310 112L213 238L117 112L36 175L141 307L36 438L117 502L213 375L310 502Z" />
<glyph unicode="&#xd8;" glyph-name="Oslash" horiz-adv-x="580" d="M548 590T548 346Q548 167 481 76T290 -15Q278 -15 254 -13L225 -132L119 -104L153 23Q32 104 32 346Q32 524 99 615T290 707Q303 707 325 705L355 825L461 796L427 669Q548 590 548 346ZM248
604T223 579T185 498T172 346Q172 261 180 208T207 127L314 602Q298 604 290 604Q248 604 223 579ZM407 506T372 561L266 90Q282 88 290 88Q333 88 358 113T395 197T407 359Q407 506 372 561Z" />
<glyph unicode="&#xd9;" glyph-name="Ugrave" horiz-adv-x="537" d="M493 197Q493 137 468 89T393 13T269 -15Q159 -15 101 43T43 197V692H185V203Q185 146 205 119T269 92Q312 92 332 119T352 203V692H493V197ZM202 936L382 819L347 752L150 835L202 936Z" />
<glyph unicode="&#xda;" glyph-name="Uacute" horiz-adv-x="537" d="M493 197Q493 137 468 89T393 13T269 -15Q159 -15 101 43T43 197V692H185V203Q185 146 205 119T269 92Q312 92 332 119T352 203V692H493V197ZM331 936L383 835L186 752L151 820L331 936Z" />
<glyph unicode="&#xdb;" glyph-name="Ucircumflex" horiz-adv-x="537" d="M493 197Q493 137 468 89T393 13T269 -15Q159 -15 101 43T43 197V692H185V203Q185 146 205 119T269 92Q312 92 332 119T352 203V692H493V197ZM158 760L110 810L227 937H309L425 810L377
760L267 842L158 760Z" />
<glyph unicode="&#xdc;" glyph-name="Udieresis" horiz-adv-x="537" d="M493 197Q493 137 468 89T393 13T269 -15Q159 -15 101 43T43 197V692H185V203Q185 146 205 119T269 92Q312 92 332 119T352 203V692H493V197ZM206 914T225 894T245 843Q245 813 226 793T176
772Q147 772 127 792T107 843Q107 873 127 893T176 914Q206 914 225 894ZM398 914T417 894T437 843Q437 813 418 793T368 772Q339 772 319 792T298 843Q298 873 318 893T368 914Q398 914 417 894Z" />
<glyph unicode="&#xdd;" glyph-name="Yacute" horiz-adv-x="491" d="M498 692L316 262V0H175V261L-7 692H141L248 374L355 692H498ZM308 936L360 835L163 752L128 820L308 936Z" />
<glyph unicode="&#xde;" glyph-name="Thorn" horiz-adv-x="494" d="M352 580T416 524T481 356Q481 237 418 178T241 119H195V0H53V692H195V580H231Q352 580 416 524ZM285 222T311 252T338 355Q338 420 311 449T227 478H195V222H228Q285 222 311 252Z" />
<glyph unicode="&#xdf;" glyph-name="germandbls" horiz-adv-x="504" d="M329 756T374 715T420 610Q420 575 409 551T377 500Q361 478 354 464T346 430Q346 410 358 394T397 351Q425 324 443 302T475 245T489 164Q489 109 468 68T409 6T324 -16Q267 -16 225 9L266
98Q284 90 302 90Q324 90 338 109T353 166Q353 204 338 230T291 290Q261 322 246 348T230 411Q230 439 238 459T263 504Q279 529 287 549T295 596Q295 627 282 642T245 658Q187 658 187 568V0H51V561Q51 648 103 702T248 756Q329 756 374 715Z" />
<glyph unicode="&#xe0;" glyph-name="agrave" horiz-adv-x="455" d="M402 108T408 96T431 76L403 -14Q361 -9 335 7T296 59Q250 -16 166 -16Q100 -16 61 29T22 148Q22 235 75 280T232 326H269V358Q269 407 253 426T198 446Q153 446 83 420L52 507Q93 526 138 536T223
546Q402 546 402 365V134Q402 108 408 96ZM247 82T269 140V247H245Q199 247 178 226T156 159Q156 121 169 102T205 82Q247 82 269 140ZM170 818L348 693L311 628L115 719L170 818Z" />
<glyph unicode="&#xe1;" glyph-name="aacute" horiz-adv-x="455" d="M402 108T408 96T431 76L403 -14Q361 -9 335 7T296 59Q250 -16 166 -16Q100 -16 61 29T22 148Q22 235 75 280T232 326H269V358Q269 407 253 426T198 446Q153 446 83 420L52 507Q93 526 138 536T223
546Q402 546 402 365V134Q402 108 408 96ZM247 82T269 140V247H245Q199 247 178 226T156 159Q156 121 169 102T205 82Q247 82 269 140ZM280 818L334 719L138 628L101 693L280 818Z" />
<glyph unicode="&#xe2;" glyph-name="acircumflex" horiz-adv-x="455" d="M402 108T408 96T431 76L403 -14Q361 -9 335 7T296 59Q250 -16 166 -16Q100 -16 61 29T22 148Q22 235 75 280T232 326H269V358Q269 407 253 426T198 446Q153 446 83 420L52 507Q93 526
138 536T223 546Q402 546 402 365V134Q402 108 408 96ZM247 82T269 140V247H245Q199 247 178 226T156 159Q156 121 169 102T205 82Q247 82 269 140ZM115 629L67 679L184 812H266L382 679L334 629L224 718L115 629Z" />
<glyph unicode="&#xe3;" glyph-name="atilde" horiz-adv-x="455" d="M402 108T408 96T431 76L403 -14Q361 -9 335 7T296 59Q250 -16 166 -16Q100 -16 61 29T22 148Q22 235 75 280T232 326H269V358Q269 407 253 426T198 446Q153 446 83 420L52 507Q93 526 138 536T223
546Q402 546 402 365V134Q402 108 408 96ZM247 82T269 140V247H245Q199 247 178 226T156 159Q156 121 169 102T205 82Q247 82 269 140ZM257 646T244 652T212 671Q201 680 193 684T177 688Q163 688 154 679T133 646L68 676Q84 724 111 752T174 781Q192 781 204 775T236
757Q247 748 255 744T272 740Q285 740 294 749T315 780L380 751Q364 701 337 674T275 646Q257 646 244 652Z" />
<glyph unicode="&#xe4;" glyph-name="adieresis" horiz-adv-x="455" d="M402 108T408 96T431 76L403 -14Q361 -9 335 7T296 59Q250 -16 166 -16Q100 -16 61 29T22 148Q22 235 75 280T232 326H269V358Q269 407 253 426T198 446Q153 446 83 420L52 507Q93 526 138
536T223 546Q402 546 402 365V134Q402 108 408 96ZM247 82T269 140V247H245Q199 247 178 226T156 159Q156 121 169 102T205 82Q247 82 269 140ZM158 788T177 768T197 717Q197 687 178 667T128 646Q99 646 79 666T59 717Q59 747 79 767T128 788Q158 788 177 768ZM350
788T369 768T389 717Q389 687 370 667T320 646Q291 646 271 666T250 717Q250 747 270 767T320 788Q350 788 369 768Z" />
<glyph unicode="&#xe5;" glyph-name="aring" horiz-adv-x="455" d="M402 108T408 96T431 76L403 -14Q361 -9 335 7T296 59Q250 -16 166 -16Q100 -16 61 29T22 148Q22 235 75 280T232 326H269V358Q269 407 253 426T198 446Q153 446 83 420L52 507Q93 526 138 536T223
546Q402 546 402 365V134Q402 108 408 96ZM247 82T269 140V247H245Q199 247 178 226T156 159Q156 121 169 102T205 82Q247 82 269 140ZM278 857T309 824T340 734Q340 678 309 645T224 611Q171 611 140 645T108 734Q108 789 139 823T224 857Q278 857 309 824ZM206
788T197 776T187 734Q187 704 196 692T224 679Q262 679 262 734Q262 763 253 775T224 788Q206 788 197 776Z" />
<glyph unicode="&#xe6;" glyph-name="ae" horiz-adv-x="710" d="M685 266T682 224H411Q416 148 441 117T509 86Q534 86 558 96T612 129L668 56Q596 -16 497 -16Q439 -16 396 7T323 74Q266 -16 173 -16Q104 -16 63 29T22 148Q22 232 77 277T237 322H274V353Q274
405 258 425T203 446Q158 446 88 419L58 507Q145 546 223 546Q273 546 304 529T355 477Q410 546 495 546Q582 546 633 477T685 277Q685 266 682 224ZM554 316Q554 385 537 418T485 452Q451 452 433 419T411 308H554V316ZM234 82T253 100T289 154Q278 196 277 243V244H251Q161
244 161 157Q161 82 211 82Q234 82 253 100Z" />
<glyph unicode="&#xe7;" glyph-name="ccedilla" horiz-adv-x="399" d="M342 -8T273 -15V-55Q359 -69 359 -147Q359 -196 326 -225T235 -255Q181 -255 141 -227L173 -166Q200 -178 225 -178Q262 -178 262 -146Q262 -126 244 -117T186 -108L197 -11Q117 6 74 74T30
261Q30 349 57 413T133 512T250 546Q335 546 398 483L341 407Q298 441 259 441Q216 441 195 401T173 262Q173 167 195 130T259 92Q280 92 298 99T338 124L398 46Q342 -8 273 -15Z" />
<glyph unicode="&#xe8;" glyph-name="egrave" horiz-adv-x="466" d="M441 266T438 224H167Q171 146 194 116T260 86Q289 86 314 96T368 129L424 54Q352 -16 251 -16Q144 -16 87 57T30 261Q30 392 84 469T239 546Q334 546 387 478T441 277Q441 266 438 224ZM309
316Q309 388 293 420T240 453Q206 453 189 421T167 308H309V316ZM185 818L363 693L326 628L130 719L185 818Z" />
<glyph unicode="&#xe9;" glyph-name="eacute" horiz-adv-x="466" d="M441 266T438 224H167Q171 146 194 116T260 86Q289 86 314 96T368 129L424 54Q352 -16 251 -16Q144 -16 87 57T30 261Q30 392 84 469T239 546Q334 546 387 478T441 277Q441 266 438 224ZM309
316Q309 388 293 420T240 453Q206 453 189 421T167 308H309V316ZM295 818L349 719L153 628L116 693L295 818Z" />
<glyph unicode="&#xea;" glyph-name="ecircumflex" horiz-adv-x="466" d="M441 266T438 224H167Q171 146 194 116T260 86Q289 86 314 96T368 129L424 54Q352 -16 251 -16Q144 -16 87 57T30 261Q30 392 84 469T239 546Q334 546 387 478T441 277Q441 266 438 224ZM309
316Q309 388 293 420T240 453Q206 453 189 421T167 308H309V316ZM130 629L82 679L199 812H281L397 679L349 629L239 718L130 629Z" />
<glyph unicode="&#xeb;" glyph-name="edieresis" horiz-adv-x="466" d="M441 266T438 224H167Q171 146 194 116T260 86Q289 86 314 96T368 129L424 54Q352 -16 251 -16Q144 -16 87 57T30 261Q30 392 84 469T239 546Q334 546 387 478T441 277Q441 266 438 224ZM309
316Q309 388 293 420T240 453Q206 453 189 421T167 308H309V316ZM173 788T192 768T212 717Q212 687 193 667T143 646Q114 646 94 666T74 717Q74 747 94 767T143 788Q173 788 192 768ZM365 788T384 768T404 717Q404 687 385 667T335 646Q306 646 286 666T265 717Q265
747 285 767T335 788Q365 788 384 768Z" />
<glyph unicode="&#xec;" glyph-name="igrave" horiz-adv-x="239" d="M187 530V0H51V530H187ZM65 818L243 693L206 628L10 719L65 818Z" />
<glyph unicode="&#xed;" glyph-name="iacute" horiz-adv-x="239" d="M187 530V0H51V530H187ZM175 818L229 719L33 628L-4 693L175 818Z" />
<glyph unicode="&#xee;" glyph-name="icircumflex" horiz-adv-x="239" d="M187 530V0H51V530H187ZM10 629L-38 679L79 812H161L277 679L229 629L119 718L10 629Z" />
<glyph unicode="&#xef;" glyph-name="idieresis" horiz-adv-x="239" d="M187 530V0H51V530H187ZM53 788T72 768T92 717Q92 687 73 667T23 646Q-6 646 -26 666T-46 717Q-46 747 -26 767T23 788Q53 788 72 768ZM245 788T264 768T284 717Q284 687 265 667T215 646Q186
646 166 666T145 717Q145 747 165 767T215 788Q245 788 264 768Z" />
<glyph unicode="&#xf0;" glyph-name="eth" horiz-adv-x="489" d="M383 598T418 503T454 275Q454 143 398 64T239 -15Q179 -15 132 13T57 98T30 234Q30 305 53 360T115 446T200 477Q235 477 261 465T309 428Q298 483 280 521T227 592L176 530L93 572L150 640Q104
658 72 666L97 755Q159 741 220 715L281 790L354 735L300 667Q383 598 418 503ZM279 85T298 124T317 252L316 329Q285 380 240 380Q203 380 185 345T167 237Q167 155 186 120T241 85Q279 85 298 124Z" />
<glyph unicode="&#xf1;" glyph-name="ntilde" horiz-adv-x="481" d="M367 546T400 505T433 395V0H297V380Q297 413 288 427T261 441Q225 441 187 369V0H51V530H170L180 463Q206 504 237 525T310 546Q367 546 400 505ZM277 646T264 652T232 671Q221 680 213 684T197
688Q183 688 174 679T153 646L88 676Q104 724 131 752T194 781Q212 781 224 775T256 757Q267 748 275 744T292 740Q305 740 314 749T335 780L400 751Q384 701 357 674T295 646Q277 646 264 652Z" />
<glyph unicode="&#xf2;" glyph-name="ograve" horiz-adv-x="492" d="M348 546T405 475T462 265Q462 132 405 58T246 -16Q145 -16 88 56T30 265Q30 401 87 473T246 546Q348 546 405 475ZM207 443T189 403T171 265Q171 167 189 127T246 86Q285 86 303 127T321 265Q321
363 303 403T246 443Q207 443 189 403ZM192 818L370 693L333 628L137 719L192 818Z" />
<glyph unicode="&#xf3;" glyph-name="oacute" horiz-adv-x="492" d="M348 546T405 475T462 265Q462 132 405 58T246 -16Q145 -16 88 56T30 265Q30 401 87 473T246 546Q348 546 405 475ZM207 443T189 403T171 265Q171 167 189 127T246 86Q285 86 303 127T321 265Q321
363 303 403T246 443Q207 443 189 403ZM302 818L356 719L160 628L123 693L302 818Z" />
<glyph unicode="&#xf4;" glyph-name="ocircumflex" horiz-adv-x="492" d="M348 546T405 475T462 265Q462 132 405 58T246 -16Q145 -16 88 56T30 265Q30 401 87 473T246 546Q348 546 405 475ZM207 443T189 403T171 265Q171 167 189 127T246 86Q285 86 303 127T321
265Q321 363 303 403T246 443Q207 443 189 403ZM137 629L89 679L206 812H288L404 679L356 629L246 718L137 629Z" />
<glyph unicode="&#xf5;" glyph-name="otilde" horiz-adv-x="492" d="M348 546T405 475T462 265Q462 132 405 58T246 -16Q145 -16 88 56T30 265Q30 401 87 473T246 546Q348 546 405 475ZM207 443T189 403T171 265Q171 167 189 127T246 86Q285 86 303 127T321 265Q321
363 303 403T246 443Q207 443 189 403ZM279 646T266 652T234 671Q223 680 215 684T199 688Q185 688 176 679T155 646L90 676Q106 724 133 752T196 781Q214 781 226 775T258 757Q269 748 277 744T294 740Q307 740 316 749T337 780L402 751Q386 701 359 674T297 646Q279
646 266 652Z" />
<glyph unicode="&#xf6;" glyph-name="odieresis" horiz-adv-x="492" d="M348 546T405 475T462 265Q462 132 405 58T246 -16Q145 -16 88 56T30 265Q30 401 87 473T246 546Q348 546 405 475ZM207 443T189 403T171 265Q171 167 189 127T246 86Q285 86 303 127T321
265Q321 363 303 403T246 443Q207 443 189 403ZM180 788T199 768T219 717Q219 687 200 667T150 646Q121 646 101 666T81 717Q81 747 101 767T150 788Q180 788 199 768ZM372 788T391 768T411 717Q411 687 392 667T342 646Q313 646 293 666T272 717Q272 747 292 767T342
788Q372 788 391 768Z" />
<glyph unicode="&#xf7;" glyph-name="divide" horiz-adv-x="427" d="M249 177T271 153T294 94Q294 61 272 37T213 12Q178 12 156 36T133 94Q133 128 155 152T213 177Q249 177 271 153ZM249 650T271 626T294 567Q294 534 272 510T213 485Q178 485 156 509T133 567Q133
601 155 625T213 650Q249 650 271 626ZM38 281V384H389V281H38Z" />
<glyph unicode="&#xf8;" glyph-name="oslash" horiz-adv-x="492" d="M412 477T437 416T462 265Q462 132 405 58T246 -16Q229 -16 222 -15L191 -133L92 -106L127 20Q81 53 56 115T30 265Q30 401 87 473T246 546Q265 546 274 545L305 663L403 635L367 510Q412 477
437 416ZM199 446T177 405T154 265Q154 156 179 116L260 445Q255 446 246 446Q199 446 177 405ZM293 83T315 124T338 265Q338 370 315 411L235 83H246Q293 83 315 124Z" />
<glyph unicode="&#xf9;" glyph-name="ugrave" horiz-adv-x="477" d="M425 0H306L300 64Q251 -16 173 -16Q115 -16 82 25T48 134V530H184V141Q184 86 221 86Q259 86 289 150V530H425V0ZM183 818L361 693L324 628L128 719L183 818Z" />
<glyph unicode="&#xfa;" glyph-name="uacute" horiz-adv-x="477" d="M425 0H306L300 64Q251 -16 173 -16Q115 -16 82 25T48 134V530H184V141Q184 86 221 86Q259 86 289 150V530H425V0ZM293 818L347 719L151 628L114 693L293 818Z" />
<glyph unicode="&#xfb;" glyph-name="ucircumflex" horiz-adv-x="477" d="M425 0H306L300 64Q251 -16 173 -16Q115 -16 82 25T48 134V530H184V141Q184 86 221 86Q259 86 289 150V530H425V0ZM128 629L80 679L197 812H279L395 679L347 629L237 718L128 629Z" />
<glyph unicode="&#xfc;" glyph-name="udieresis" horiz-adv-x="477" d="M425 0H306L300 64Q251 -16 173 -16Q115 -16 82 25T48 134V530H184V141Q184 86 221 86Q259 86 289 150V530H425V0ZM171 788T190 768T210 717Q210 687 191 667T141 646Q112 646 92 666T72
717Q72 747 92 767T141 788Q171 788 190 768ZM363 788T382 768T402 717Q402 687 383 667T333 646Q304 646 284 666T263 717Q263 747 283 767T333 788Q363 788 382 768Z" />
<glyph unicode="&#xfd;" glyph-name="yacute" horiz-adv-x="436" d="M299 -1Q247 -202 50 -219L35 -124Q98 -113 130 -86T180 0H129L-2 530H136L216 89L303 530H438L299 -1ZM274 818L328 719L132 628L95 693L274 818Z" />
<glyph unicode="&#xfe;" glyph-name="thorn" horiz-adv-x="496" d="M384 546T425 474T466 266Q466 180 445 117T385 19T293 -16Q227 -16 187 45V-202L51 -219V741L187 756V478Q234 546 306 546Q384 546 425 474ZM326 86T326 265Q326 366 310 405T261 444Q221 444
187 382V133Q216 86 254 86Q326 86 326 265Z" />
<glyph unicode="&#xff;" glyph-name="ydieresis" horiz-adv-x="436" d="M299 -1Q247 -202 50 -219L35 -124Q98 -113 130 -86T180 0H129L-2 530H136L216 89L303 530H438L299 -1ZM152 788T171 768T191 717Q191 687 172 667T122 646Q93 646 73 666T53 717Q53 747
73 767T122 788Q152 788 171 768ZM344 788T363 768T383 717Q383 687 364 667T314 646Q285 646 265 666T244 717Q244 747 264 767T314 788Q344 788 363 768Z" />
<glyph unicode="&#x2013;" glyph-name="endash" horiz-adv-x="439" d="M23 260V366H416V260H23Z" />
<glyph unicode="&#x2014;" glyph-name="emdash" horiz-adv-x="666" d="M23 260V366H643V260H23Z" />
<glyph unicode="&#x2018;" glyph-name="quoteleft" horiz-adv-x="214" d="M74 472T56 492T37 545Q37 562 42 579T61 630L113 762H180L146 608Q178 586 178 546Q178 514 158 493T106 472Q74 472 56 492Z" />
<glyph unicode="&#x2019;" glyph-name="quoteright" horiz-adv-x="214" d="M140 762T158 742T177 689Q177 672 172 655T153 604L101 472H34L68 626Q36 648 36 688Q36 720 56 741T108 762Q140 762 158 742Z" />
<glyph unicode="&#x201a;" glyph-name="quotesinglbase" horiz-adv-x="214" d="M140 130T158 110T177 57Q177 40 172 23T153 -28L101 -160H34L68 -6Q36 16 36 56Q36 88 56 109T108 130Q140 130 158 110Z" />
<glyph unicode="&#x201c;" glyph-name="quotedblleft" horiz-adv-x="413" d="M74 472T56 492T37 545Q37 562 42 579T61 630L113 762H180L146 608Q178 586 178 546Q178 514 158 493T106 472Q74 472 56 492ZM273 472T255 492T236 545Q236 562 241 579T260 630L312
762H379L345 608Q377 586 377 546Q377 514 357 493T305 472Q273 472 255 492Z" />
<glyph unicode="&#x201d;" glyph-name="quotedblright" horiz-adv-x="413" d="M140 762T158 742T177 689Q177 672 172 655T153 604L101 472H34L68 626Q36 648 36 688Q36 720 56 741T108 762Q140 762 158 742ZM339 762T357 742T376 689Q376 672 371 655T352 604L300
472H233L267 626Q235 648 235 688Q235 720 255 741T307 762Q339 762 357 742Z" />
<glyph unicode="&#x201e;" glyph-name="quotedblbase" horiz-adv-x="413" d="M140 130T158 110T177 57Q177 40 172 23T153 -28L101 -160H34L68 -6Q36 16 36 56Q36 88 56 109T108 130Q140 130 158 110ZM339 130T357 110T376 57Q376 40 371 23T352 -28L300 -160H233L267
-6Q235 16 235 56Q235 88 255 109T307 130Q339 130 357 110Z" />
<glyph unicode="&#x2022;" glyph-name="bullet" horiz-adv-x="317" d="M214 470T249 434T284 342Q284 286 249 250T159 214Q104 214 69 250T33 342Q33 397 68 433T159 470Q214 470 249 434Z" />
<glyph unicode="&#x2039;" glyph-name="guilsinglleft" horiz-adv-x="312" d="M192 549L276 494L165 285L276 76L192 22L36 241V329L192 549Z" />
<glyph unicode="&#x203a;" glyph-name="guilsinglright" horiz-adv-x="312" d="M120 549L276 329V241L120 22L36 76L147 285L36 494L120 549Z" />
</font>
</defs>
</svg>
