<?xml version="1.0" standalone="no"?>
<!DOCTYPE svg PUBLIC "-//W3C//DTD SVG 1.1//EN" "http://www.w3.org/Graphics/SVG/1.1/DTD/svg11.dtd">
<svg xmlns="http://www.w3.org/2000/svg">
<defs >
<font id="WendyOne" horiz-adv-x="532" ><font-face
    font-family="Wendy One"
    units-per-em="1000"
    panose-1="2 0 0 0 0 0 0 0 0 0"
    ascent="819"
    descent="-236"
    alphabetic="0" />
<glyph unicode=" " glyph-name="space" horiz-adv-x="200" />
<glyph unicode="!" glyph-name="exclam" horiz-adv-x="290" d="M198 185T145 185T58 163L31 606H259L232 163Q198 185 145 185ZM107 134T145 134T202 114T221 62T202 11T145 -10T88 10T69 62T88 113Z" />
<glyph unicode="&quot;" glyph-name="quotedbl" horiz-adv-x="371" d="M10 585Q10 616 29 636T86 657T143 637T162 585L159 562L124 417H48L13 562Q10 574 10 585ZM209 585Q209 616 228 636T285 657T342 637T361 585L358 562L323 417H247L212 562Q209 574 209 585Z" />
<glyph unicode="#" glyph-name="numbersign" horiz-adv-x="657" d="M213 0H107L135 101H30L58 199H162L187 290H76L104 388H214L242 491H349L320 388H415L443 491H550L521 388H627L600 290H494L469 199H581L554 101H442L414 0H308L336 101H241L213 0ZM293 290L268
199H363L388 290H293Z" />
<glyph unicode="$" glyph-name="dollar" horiz-adv-x="500" d="M269 131Q269 150 243 165T180 196T106 232T43 292T17 384Q17 463 71 508T207 563V619H302V563Q346 559 385 547T440 525L457 515L420 434Q344 466 290 466T236 429Q236 407 259 394Q274 385 311
370T371 344Q427 317 460 281T494 190Q494 104 435 54T290 -7V-70H197V-7Q148 -1 103 16T36 48L15 62L56 144Q140 94 219 94Q269 94 269 131Z" />
<glyph unicode="%" glyph-name="percent" horiz-adv-x="883" d="M654 259T654 169T693 79T732 169T693 259ZM524 94T524 169T570 291T693 338T815 291T862 169T816 47T693 0T571 47ZM155 527T155 437T194 347T233 437T194 527ZM25 362T25 437T71 559T194 606T316
559T363 437T317 315T194 268T72 315ZM268 -10L478 620H621L408 -10H268Z" />
<glyph unicode="&amp;" glyph-name="ampersand" horiz-adv-x="580" d="M379 40Q315 -10 218 -10T60 43T0 168Q0 256 86 313Q54 369 54 411Q54 493 123 534T288 576T452 546L442 441Q414 454 379 454T320 436T296 382Q296 313 367 229Q375 267 375 301T372 362H511L530
256H481Q475 194 456 144Q513 99 580 65L540 -27Q471 -14 379 40ZM150 145T170 127T220 108T272 114Q217 156 165 210Q150 194 150 170Z" />
<glyph unicode="&apos;" glyph-name="quotesingle" horiz-adv-x="172" d="M10 585Q10 616 29 636T86 657T143 637T162 585L159 562L124 417H48L13 562Q10 574 10 585Z" />
<glyph unicode="(" glyph-name="parenleft" horiz-adv-x="345" d="M170 356T170 248T202 59T305 -136L210 -192Q125 -98 68 19T10 248T67 477T210 688L305 632Q235 519 203 438Z" />
<glyph unicode=")" glyph-name="parenright" horiz-adv-x="345" d="M145 140T145 248T113 437T10 632L105 688Q190 594 247 477T305 248T248 19T105 -192L10 -136Q80 -23 112 58Z" />
<glyph unicode="*" glyph-name="asterisk" horiz-adv-x="452" d="M363 494Q389 494 410 475T432 419T411 363T364 343T292 374L263 394V320Q263 294 244 273T188 251T132 272T112 319T143 391L162 419H89Q63 419 42 438T20 494T41 550T88 570T160 539L188 520V594Q188
620 207 641T263 663T319 642T339 595T308 523L288 494H363Z" />
<glyph unicode="+" glyph-name="plus" horiz-adv-x="415" d="M30 247V345H153V474H261V345H385V247H261V119H153V247H30Z" />
<glyph unicode="," glyph-name="comma" horiz-adv-x="191" d="M20 -75V62Q20 88 39 109T95 131T151 110T171 63T140 -9L95 -75H20Z" />
<glyph unicode="-" glyph-name="hyphen" horiz-adv-x="315" d="M30 247V345H285V247H30Z" />
<glyph unicode="." glyph-name="period" horiz-adv-x="192" d="M58 134T96 134T153 114T172 62T153 11T96 -10T39 10T20 62T39 113Z" />
<glyph unicode="/" glyph-name="slash" horiz-adv-x="398" d="M0 -87L251 663H398L144 -87H0Z" />
<glyph unicode="0" glyph-name="zero" horiz-adv-x="656" d="M370 492T328 492T272 446T257 304Q257 119 328 119T399 304Q399 400 385 446ZM456 -10T328 -10T110 73T20 302T103 533T328 620T553 534T636 302T546 74Z" />
<glyph unicode="1" glyph-name="one" horiz-adv-x="462" d="M174 0L113 478L28 495L20 606H422L359 0H174Z" />
<glyph unicode="2" glyph-name="two" horiz-adv-x="559" d="M529 0H30V97Q39 107 79 148T139 212T190 272Q247 344 247 394Q247 469 173 469Q130 469 80 448L52 558Q94 583 158 601T271 620T360 611T438 582T498 525T520 437Q519 290 286 150L292 136L529 185V0Z" />
<glyph unicode="3" glyph-name="three" horiz-adv-x="530" d="M253 220Q253 315 106 315H88L173 468L28 495L60 606H485L371 410Q376 408 385 405T416 387T455 353T486 299T500 223Q500 123 422 57T234 -10Q178 -10 125 8T46 46L20 64L68 160Q116 133 160 133T228
155T253 220Z" />
<glyph unicode="4" glyph-name="four" horiz-adv-x="592" d="M170 606H539L508 295H572L554 152H493L478 0H304L289 152H20L28 295L170 606ZM258 462L180 295H274L258 462Z" />
<glyph unicode="5" glyph-name="five" horiz-adv-x="526" d="M506 213Q506 112 428 51T241 -10Q187 -10 134 8T56 44L30 62L78 160Q129 137 167 137T226 158T248 216T228 278T178 316Q119 345 72 350L51 353L124 606H503L471 495L318 441V430Q403 403 454 348Q475
326 490 290T506 213Z" />
<glyph unicode="6" glyph-name="six" horiz-adv-x="637" d="M420 231T402 247T357 264T307 252T273 218Q273 192 296 171T350 149T401 163T420 204ZM525 451Q460 477 400 477T300 442T261 355Q265 361 273 370T314 394T390 409Q492 409 554 355T617 208T544 52T338
-10T118 67T30 297T119 535T332 620T564 557L525 451Z" />
<glyph unicode="7" glyph-name="seven" horiz-adv-x="472" d="M473 606V439L251 0H56L200 441L14 411L4 606H473Z" />
<glyph unicode="8" glyph-name="eight" horiz-adv-x="591" d="M153 305Q55 388 55 463T120 579T306 620T490 584T553 481Q553 439 529 406T451 339Q575 261 575 175T499 40T296 -10T99 31T28 157T153 305ZM174 167Q174 141 194 125T242 108T286 125T303 161T288
196T239 236Q174 201 174 167ZM410 457Q410 503 357 503Q331 503 317 490T303 455T354 396Q410 424 410 457Z" />
<glyph unicode="9" glyph-name="nine" horiz-adv-x="637" d="M217 379T235 363T280 346T330 358T364 392Q364 418 341 439T287 461T236 447T217 406ZM112 159Q177 133 237 133T337 168T376 255Q372 249 364 240T323 216T247 201Q145 201 83 255T20 402T93 558T299
620T519 543T607 313T518 75T305 -10T73 53L112 159Z" />
<glyph unicode=":" glyph-name="colon" horiz-adv-x="191" d="M57 134T95 134T152 114T171 62T152 11T95 -10T38 10T19 62T38 113ZM57 488T95 488T152 468T171 416T152 365T95 344T38 364T19 416T38 467Z" />
<glyph unicode=";" glyph-name="semicolon" horiz-adv-x="191" d="M57 439T95 439T152 419T171 367T152 316T95 295T38 315T19 367T38 418ZM20 -75V62Q20 88 39 109T95 131T151 110T171 63T140 -9L95 -75H20Z" />
<glyph unicode="&lt;" glyph-name="less" horiz-adv-x="478" d="M30 247V345L438 488V390L170 296L438 202V104L30 247Z" />
<glyph unicode="=" glyph-name="equal" horiz-adv-x="455" d="M50 165V263H405V165H50ZM50 329V427H405V329H50Z" />
<glyph unicode="&gt;" glyph-name="greater" horiz-adv-x="478" d="M448 345V247L40 104V202L308 296L40 390V488L448 345Z" />
<glyph unicode="?" glyph-name="question" horiz-adv-x="476" d="M129 484Q84 484 35 451L7 561Q92 624 210 624Q288 624 342 588Q419 537 419 461Q419 426 402 386Q375 324 304 277L265 159Q243 173 211 173T147 159L106 278Q148 314 172 348T198 400L201 416Q200
454 178 469T129 484ZM170 134T208 134T265 114T284 62T265 11T208 -10T151 10T132 62T151 113Z" />
<glyph unicode="@" glyph-name="at" horiz-adv-x="863" d="M432 -155Q244 -155 147 -53T50 204Q50 327 142 432Q186 483 261 514T432 546T603 515T723 432Q813 326 813 204Q813 109 761 54T636 -1Q548 -1 487 76Q481 69 471 60T423 34T336 17T246 51T207 145T249
236T356 268Q392 268 421 260T462 244L474 237Q471 285 445 302T370 320Q344 320 314 314L304 312L294 372L310 378Q363 398 430 398Q639 398 639 223Q639 143 646 120T673 97Q703 97 719 127T735 202T717 294T663 381T567 447T433 472T298 447T202 382Q130 299
130 201Q130 78 207 -2T432 -82V-155ZM413 111Q454 111 478 139L477 174Q456 195 430 195T388 183T372 155T384 125T413 111Z" />
<glyph unicode="A" glyph-name="A" horiz-adv-x="694" d="M485 0L445 101H190L152 0H10L179 606H535L704 0H485ZM394 231L315 431L239 231H394Z" />
<glyph unicode="B" glyph-name="B" horiz-adv-x="680" d="M456 606Q649 606 649 463Q649 432 637 407T608 367T572 342Q541 327 523 324Q544 319 571 305T616 275T646 232T660 171Q660 80 593 40T380 0H76L25 606H456ZM353 249H305L290 101H327Q368 101 393 123T418
181T399 233T353 249ZM344 365Q379 365 403 385T427 438Q427 503 352 503H330L316 365H344Z" />
<glyph unicode="C" glyph-name="C" horiz-adv-x="588" d="M338 620Q396 620 463 599T574 546L532 457Q488 474 435 474Q287 474 287 302Q287 219 327 173T425 126T533 150L578 64Q477 -10 337 -10T109 72T20 307T107 540T338 620Z" />
<glyph unicode="D" glyph-name="D" horiz-adv-x="691" d="M285 101Q354 101 392 174T430 327T401 456T326 504H320L279 101H285ZM281 0H85L25 606H320Q543 606 627 484Q671 419 671 330Q671 0 281 0Z" />
<glyph unicode="E" glyph-name="E" horiz-adv-x="562" d="M324 233Q324 172 344 151T394 129Q441 129 489 145L504 150L547 64Q538 56 520 44T440 11T311 -10T199 9T130 53T91 121T72 194T64 269L40 606H490L518 486L348 471L338 374H472L492 280L324 238V233Z" />
<glyph unicode="F" glyph-name="F" horiz-adv-x="531" d="M472 378V285L304 243L280 0H85L25 606H485L516 482L327 470L317 378H472Z" />
<glyph unicode="G" glyph-name="G" horiz-adv-x="660" d="M640 320V85Q627 72 596 54T534 24Q453 -10 354 -10Q189 -10 105 70T20 304T106 538T347 620Q467 620 566 570Q589 559 600 551L610 543L566 454Q519 474 454 474Q288 474 288 302Q288 213 326 163T426
113Q451 113 475 123L452 219H378L398 320H640Z" />
<glyph unicode="H" glyph-name="H" horiz-adv-x="792" d="M507 0L484 230L306 214L285 0H90L30 606H345L322 375H470L447 606H762L702 0H507Z" />
<glyph unicode="I" glyph-name="I" horiz-adv-x="365" d="M85 0L25 606H340L280 0H85Z" />
<glyph unicode="J" glyph-name="J" horiz-adv-x="508" d="M222 -10Q162 -10 107 10T26 50L0 70L43 156Q96 129 137 129Q210 129 210 200Q210 211 181 471L43 488L72 606H483L444 205Q423 -10 222 -10Z" />
<glyph unicode="K" glyph-name="K" horiz-adv-x="684" d="M299 193L280 0H85L25 606H340L322 426L485 606H660L491 347L694 0H498Q358 135 299 193Z" />
<glyph unicode="L" glyph-name="L" horiz-adv-x="491" d="M80 0L20 606H335L290 155L471 165L414 0H80Z" />
<glyph unicode="M" glyph-name="M" horiz-adv-x="990" d="M75 0L25 606H399L512 309L625 606H965L915 0H710L674 361L536 0H374L236 361L206 0H75Z" />
<glyph unicode="N" glyph-name="N" horiz-adv-x="775" d="M370 606L547 253L519 606H750L700 0H407L239 330L206 0H75L25 606H370Z" />
<glyph unicode="O" glyph-name="O" horiz-adv-x="747" d="M20 456T111 538T373 620T635 538T727 299T631 66T374 -10T117 66T20 299ZM461 505T374 505T286 303T373 101T461 303Z" />
<glyph unicode="P" glyph-name="P" horiz-adv-x="712" d="M358 303Q404 303 431 331T458 399T433 460T367 481H327L310 303H358ZM421 175H297L280 0H85L25 606H471Q576 606 641 553T707 399Q707 338 683 293T616 223Q535 175 421 175Z" />
<glyph unicode="Q" glyph-name="Q" horiz-adv-x="747" d="M20 456T111 538T373 620T635 538T727 312T658 93T470 -2Q486 -35 535 -35T644 7L687 -79Q602 -153 492 -153Q416 -153 354 -114T269 -1Q153 20 87 95T20 313ZM461 505T374 505T286 303T373 101T461 303Z" />
<glyph unicode="R" glyph-name="R" horiz-adv-x="717" d="M358 303Q404 303 431 331T458 399T433 460T367 481H327L310 303H358ZM471 606Q578 606 642 556T707 406Q707 370 692 338T656 285Q612 245 575 228L560 222L668 0H493L299 195L280 0H85L25 606H471Z" />
<glyph unicode="S" glyph-name="S" horiz-adv-x="552" d="M482 331T504 294T527 196T488 84Q416 -10 269 -10Q205 -10 143 8T50 46L20 64L63 150Q135 115 193 115T251 152Q251 173 229 191T174 227T109 266T54 329T31 424Q31 520 104 570T282 620Q344 620 398
605T476 575L500 560L461 475Q410 497 359 497T307 458Q307 437 329 420T384 388T449 352Z" />
<glyph unicode="T" glyph-name="T" horiz-adv-x="608" d="M588 606L608 416L447 448L402 0H207L162 448L0 416L20 606H588Z" />
<glyph unicode="U" glyph-name="U" horiz-adv-x="748" d="M527 -10T374 -10T131 66T40 305V606H306V256Q306 139 336 114Q350 101 374 101T412 113T433 152Q442 192 442 256V606H708V305Q708 142 618 66Z" />
<glyph unicode="V" glyph-name="V" horiz-adv-x="693" d="M483 606H663Q663 488 641 382T586 209T522 93T466 22L444 0H187L0 606H317L374 212Q444 299 471 459Q483 529 483 606Z" />
<glyph unicode="W" glyph-name="W" horiz-adv-x="1084" d="M873 606H1054Q1054 488 1031 382T974 209T906 93T848 22L825 0H598L523 243Q509 196 480 136T427 38L404 0H187L0 606H317L374 212Q389 227 411 266T449 347T478 458T493 606H708L765 212Q835 300 862
458Q873 528 873 606Z" />
<glyph unicode="X" glyph-name="X" horiz-adv-x="671" d="M190 0H10Q10 206 178 331L34 606H342L420 456Q449 489 462 521T476 606H656Q656 500 613 421T508 290L661 0H353L261 174Q190 98 190 0Z" />
<glyph unicode="Y" glyph-name="Y" horiz-adv-x="611" d="M208 0L182 259L-30 606H216L306 399L395 606H641L429 259L403 0H208Z" />
<glyph unicode="Z" glyph-name="Z" horiz-adv-x="629" d="M40 0V107L264 445L58 398L78 606H599V497L306 143L619 203L599 0H40Z" />
<glyph unicode="[" glyph-name="bracketleft" horiz-adv-x="287" d="M30 -171V663H257V549H173V-57H257L256 -171H30Z" />
<glyph unicode="\" glyph-name="backslash" horiz-adv-x="398" d="M251 -87L0 663H144L398 -87H251Z" />
<glyph unicode="]" glyph-name="bracketright" horiz-adv-x="287" d="M257 663V-171H31V-57H114V549H30L31 663H257Z" />
<glyph unicode="^" glyph-name="asciicircum" horiz-adv-x="492" d="M187 534H305L462 269H344L246 434L148 269H30L187 534Z" />
<glyph unicode="_" glyph-name="underscore" horiz-adv-x="415" d="M0 -139V-41H415V-139H0Z" />
<glyph unicode="`" glyph-name="grave" horiz-adv-x="329" d="M139 687Q103 708 103 739T122 789T173 808T229 771L301 653H197L139 687Z" />
<glyph unicode="a" glyph-name="a" horiz-adv-x="600" d="M201 -10Q124 -10 75 35T25 162T81 282T216 320T353 295Q340 378 248 378Q206 378 144 361L119 451Q209 488 302 488Q570 488 570 260Q570 182 552 44L547 0H382L376 55Q308 -10 201 -10ZM291 114Q336
114 368 139L362 205Q337 222 307 222T257 207T237 170T252 131T291 114Z" />
<glyph unicode="b" glyph-name="b" horiz-adv-x="598" d="M272 456T303 472T370 488T438 477T502 442T553 367T573 248Q573 122 516 56T370 -10T226 62Q225 64 224 65L207 0H57L30 649H258L250 430Q254 436 263 446ZM307 354Q241 354 241 234Q241 193 256 161T301
128T345 150T363 192T366 234Q366 354 307 354Z" />
<glyph unicode="c" glyph-name="c" horiz-adv-x="489" d="M489 70Q414 -10 289 -10T94 57T25 248T99 429T284 488Q331 488 374 479T438 460L458 451L436 348Q395 360 352 360T273 333T237 248Q237 120 336 120Q362 120 386 126T421 140L432 146L489 70Z" />
<glyph unicode="d" glyph-name="d" horiz-adv-x="598" d="M25 248Q25 317 44 367T96 442Q155 488 227 488Q263 488 293 474T336 444L348 430L340 649H568L541 0H391L374 65Q314 -9 227 -9T82 56T25 248ZM291 354Q232 354 232 234Q232 212 235 192T253 150T297
128T341 160T357 234Q357 354 291 354Z" />
<glyph unicode="e" glyph-name="e" horiz-adv-x="543" d="M291 -10Q178 -10 102 55T25 248Q25 328 64 384Q135 488 284 488Q398 488 458 443T518 317Q518 255 469 217T324 178Q285 178 254 184L243 186Q248 150 274 133T338 115Q399 115 442 152L504 77Q488 58
466 42T396 8T291 -10ZM372 346T357 359T314 372T264 348T240 291Q262 281 297 281T352 293T372 326Z" />
<glyph unicode="f" glyph-name="f" horiz-adv-x="390" d="M80 474Q80 566 123 614T271 663Q317 663 359 650L370 553Q355 557 340 557Q291 557 291 487V474H352L364 344H297L282 0H98L83 344H20L32 474H80Z" />
<glyph unicode="g" glyph-name="g" horiz-adv-x="612" d="M316 -185Q267 -185 220 -171T151 -142L129 -127L173 -37Q216 -58 253 -58Q321 -58 353 -15T385 84Q385 94 384 104Q337 10 230 10Q136 10 81 67T25 248Q25 317 44 367T96 442Q155 488 227 488Q277 488
312 464Q341 443 361 418L355 474H587L570 85Q557 -185 316 -185ZM291 353Q232 353 232 243Q232 223 235 204T254 166T299 147T342 175T357 243Q357 353 291 353Z" />
<glyph unicode="h" glyph-name="h" horiz-adv-x="615" d="M431 488Q488 488 524 455T572 374T585 254T562 0H387L365 232Q359 292 349 312T315 332Q256 332 251 231L241 0H57L30 649H268L258 389Q290 453 364 478Q395 488 431 488Z" />
<glyph unicode="i" glyph-name="i" horiz-adv-x="315" d="M268 460L285 466L251 0H62L30 466Q87 443 151 443T268 460ZM107 487T73 517T39 595T72 673T156 703T241 673T275 595T241 517T157 487Z" />
<glyph unicode="j" glyph-name="j" horiz-adv-x="330" d="M63 -79T68 -62T74 -31T45 466Q102 443 172 443Q231 443 284 460L300 466L266 -4Q260 -87 213 -136T74 -185L0 -128L13 -122Q31 -113 47 -96ZM122 487T88 517T54 595T87 673T171 703T256 673T290 595T256
517T172 487Z" />
<glyph unicode="k" glyph-name="k" horiz-adv-x="569" d="M416 0Q297 115 248 163L241 0H57L30 649H268L256 341L357 474H559L418 276L579 0H416Z" />
<glyph unicode="l" glyph-name="l" horiz-adv-x="298" d="M268 649L241 0H57L30 649H268Z" />
<glyph unicode="m" glyph-name="m" horiz-adv-x="940" d="M832 488T871 424T910 271T887 0H712L690 232Q684 292 674 312T640 332Q583 332 576 231L559 0H381L359 232Q353 292 343 312T309 332Q250 332 245 231L235 0H51L30 474H256L252 379Q254 383 257 390T275
417T308 450T357 476T425 488Q483 488 519 451T567 369Q582 394 593 409T626 445Q671 488 751 488Z" />
<glyph unicode="n" glyph-name="n" horiz-adv-x="609" d="M408 488Q478 488 528 429T579 276T556 0H381L361 224Q351 331 303 331Q246 331 242 223L235 0H51L30 474H256L252 389Q257 399 275 420T310 454Q354 488 408 488Z" />
<glyph unicode="o" glyph-name="o" horiz-adv-x="582" d="M25 109T25 239T97 428T291 488T484 429T557 239T485 50T291 -10T98 49ZM237 318T237 239T249 126T291 91T333 125T345 239T333 352T291 387T249 353Z" />
<glyph unicode="p" glyph-name="p" horiz-adv-x="617" d="M387 -10Q331 -10 294 16Q261 40 243 65L230 -171H59L30 474H245L256 418Q261 426 271 437T316 468T388 488T457 477T521 442T572 367T592 248Q592 122 535 56T387 -10ZM326 353Q260 353 260 233Q260 191
274 159T318 127T362 148Q385 180 385 233Q385 353 326 353Z" />
<glyph unicode="q" glyph-name="q" horiz-adv-x="617" d="M361 418L372 474H587L558 -171H387L374 65Q342 17 282 -2Q257 -10 230 -10Q139 -10 82 56T25 248Q25 317 44 367T96 442Q155 488 230 488T361 418ZM291 353Q232 353 232 233Q232 180 251 154T299 127T342
159T357 233Q357 353 291 353Z" />
<glyph unicode="r" glyph-name="r" horiz-adv-x="451" d="M252 409Q305 488 383 488Q420 488 451 470L427 306Q387 334 337 334Q289 334 272 294Q262 269 259 246L240 0H60L30 474H227L252 409Z" />
<glyph unicode="s" glyph-name="s" horiz-adv-x="489" d="M464 150Q464 93 426 55T339 4T243 -10T163 -4T104 10Q60 27 34 42L25 48L69 139Q129 105 170 105T211 139Q211 156 185 174T129 208T72 257T46 333Q46 410 104 449T257 488Q305 488 351 480T420 464L442
455L417 354Q360 375 320 375T280 344Q280 329 299 316T345 289T399 260T445 215T464 150Z" />
<glyph unicode="t" glyph-name="t" horiz-adv-x="416" d="M295 178Q294 120 336 120Q348 120 365 131L386 34Q380 29 370 22T325 2T253 -10Q185 -10 142 36T96 155L87 344H10L22 474H82L78 572L315 620L308 474H366L378 344H302L295 178Z" />
<glyph unicode="u" glyph-name="u" horiz-adv-x="615" d="M219 -10Q30 -10 30 247Q30 316 53 474H247V258Q247 142 312 142Q369 142 369 246Q369 254 369 263L360 474H585L564 0H395L384 92Q382 88 379 81T363 57T332 26T285 1T219 -10Z" />
<glyph unicode="v" glyph-name="v" horiz-adv-x="549" d="M282 166Q368 281 368 474H529Q529 338 491 235Q455 138 412 82Q371 28 348 8L337 0H137L-10 474H239L282 166Z" />
<glyph unicode="w" glyph-name="w" horiz-adv-x="858" d="M691 474H838Q838 381 821 298T778 163Q725 55 684 16L666 0H465L415 161Q394 112 367 72T322 16L306 0H136L-10 474H238L281 175Q287 181 297 193T328 253T359 357L320 474H567L606 176Q635 205 662 276Q691
356 691 474Z" />
<glyph unicode="x" glyph-name="x" horiz-adv-x="540" d="M216 124Q167 65 167 0H20Q20 135 149 251L32 474H281L337 367Q349 376 360 407T371 474H518Q518 329 408 232L530 0H282L216 124Z" />
<glyph unicode="y" glyph-name="y" horiz-adv-x="610" d="M377 111V119Q374 102 362 82T334 47T292 22T219 11T134 31T72 88Q30 155 30 235T53 474H247V258Q247 148 312 148Q341 148 355 174T369 240Q369 245 369 251L360 474H585L571 167Q568 102 562 56T538
-38T492 -117Q427 -185 299 -185Q209 -185 130 -129L121 -123L163 -37Q211 -59 253 -59Q311 -59 344 -15T377 111Z" />
<glyph unicode="z" glyph-name="z" horiz-adv-x="516" d="M34 0V84L219 342L30 303L55 474H486V385L312 116L483 168V0H34Z" />
<glyph unicode="{" glyph-name="braceleft" horiz-adv-x="362" d="M308 -185Q198 -185 147 -132Q125 -110 114 -69T100 8T97 99T78 170T10 187L29 300Q69 301 83 322T97 398T99 488T113 565T147 630Q198 682 308 682Q320 682 336 680L352 585Q295 580 268 555T241
469Q241 449 246 418T251 372Q251 271 137 249Q251 227 251 125Q251 110 246 79T241 28Q241 -32 268 -57T352 -88L336 -183Q320 -185 308 -185Z" />
<glyph unicode="|" glyph-name="bar" horiz-adv-x="171" d="M20 -171V682H151V-171H20Z" />
<glyph unicode="}" glyph-name="braceright" horiz-adv-x="362" d="M54 682Q164 682 215 630Q237 607 248 566T262 489T265 398T284 327T352 310L333 197Q293 196 279 175T265 99T263 9T249 -68T215 -132Q164 -185 54 -185Q42 -185 26 -183L10 -88Q67 -83 94 -58T121
28Q121 48 116 79T111 125Q111 226 225 248Q111 270 111 372Q111 387 116 418T121 469Q121 529 94 554T10 585L26 680Q42 682 54 682Z" />
<glyph unicode="~" glyph-name="asciitilde" horiz-adv-x="551" d="M371 294Q424 294 447 333L521 290Q477 171 372 171Q331 171 276 190L275 314Q333 294 371 294ZM181 210Q127 210 104 171L30 213Q74 333 180 333Q214 333 275 314L276 190Q211 210 181 210Z" />
<glyph unicode="&#xa0;" glyph-name="nbspace" horiz-adv-x="200" />
<glyph unicode="&#xa1;" glyph-name="exclamdown" horiz-adv-x="270" d="M82 293T135 293T222 315L249 -128H21L48 315Q82 293 135 293ZM173 344T135 344T78 364T59 416T78 467T135 488T192 468T211 416T192 365Z" />
<glyph unicode="&#xa2;" glyph-name="cent" horiz-adv-x="489" d="M454 356Q403 371 353 371T271 342T238 250T266 151T343 116T453 149L489 90Q427 25 330 13L321 -78H246L232 13Q135 25 80 84T25 242T79 397T217 471L206 546H331L323 476Q399 470 452 448L468
441L454 356Z" />
<glyph unicode="&#xa3;" glyph-name="sterling" d="M106 294Q106 389 167 438T329 488Q390 488 423 478Q478 463 502 451L488 366Q452 377 414 377Q324 377 312 288H423L398 195H302L290 103L512 132L491 0H31V70L130 83L116 195H20L45 288H106Q106 291 106 294Z" />
<glyph unicode="&#xa4;" glyph-name="currency" horiz-adv-x="530" d="M456 341Q479 298 479 245T450 142L517 63L424 -10L363 62Q320 43 275 43T187 62L126 -10L33 63L100 143Q72 190 72 244T95 341L33 415L126 488L178 426Q224 450 275 450T371 426L424 488L517
415L456 341ZM201 278T201 247T222 195T275 173T327 194T349 247T328 299T275 321T223 300Z" />
<glyph unicode="&#xa5;" glyph-name="yen" horiz-adv-x="581" d="M67 210L94 288H138L30 474H206L289 348L362 474H561L438 288H517L490 210H67ZM67 93L94 170H517L490 93H369L360 0H208L198 93H67Z" />
<glyph unicode="&#xa6;" glyph-name="brokenbar" horiz-adv-x="184" d="M144 345H40V690H144V345ZM144 -98H40V247H144V-98Z" />
<glyph unicode="&#xa7;" glyph-name="section" horiz-adv-x="707" d="M529 70T459 30T312 -10T173 8T80 46L50 64L93 150Q165 115 223 115T281 152Q281 173 258 191T200 227T132 266T75 329T51 415T61 487L550 148Q529 70 459 30ZM184 553T251 586T391 620T518
605T596 575L620 560L581 475Q530 497 479 497T427 458Q427 437 450 420T508 388T576 352T633 294T657 215T650 148L161 487Q184 553 251 586Z" />
<glyph unicode="&#xa8;" glyph-name="dieresis" horiz-adv-x="366" d="M239 784T274 784T327 765T346 716T328 667T274 648T221 667T203 715T221 764ZM56 784T91 784T144 765T163 716T145 667T91 648T38 667T20 715T38 764Z" />
<glyph unicode="&#xa9;" glyph-name="copyright" horiz-adv-x="585" d="M513 467T456 529T294 591T131 529T73 384T128 241T293 182T457 240T513 383ZM224 646T293 646T417 623T504 562Q570 486 570 394Q570 278 501 203T294 128T86 203T15 394Q15 485 82 562Q114
599 169 622ZM345 462Q276 462 276 386Q276 346 295 327T344 307T393 319L413 281Q368 247 303 247T198 282T157 387T196 492T301 528T412 494L393 454Q371 462 345 462Z" />
<glyph unicode="&#xaa;" glyph-name="ordfeminine" horiz-adv-x="394" d="M56 277V319H349V277H56ZM141 365Q94 365 64 392T34 469T67 542T150 565T232 550Q224 600 169 600Q146 600 106 590L91 644Q147 666 201 666Q364 666 364 528Q364 475 354 397L350 371H250L246
405Q209 365 141 365ZM162 460T171 450T202 440T241 455L237 495Q226 505 206 505T174 496T162 474Z" />
<glyph unicode="&#xab;" glyph-name="guillemotleft" horiz-adv-x="422" d="M222 408L143 232L222 56H111L1 232L111 408H222ZM407 408L328 232L407 56H296L186 232L296 408H407Z" />
<glyph unicode="&#xac;" glyph-name="logicalnot" horiz-adv-x="415" d="M30 247V345H385V157H287V247H30Z" />
<glyph unicode="&#xae;" glyph-name="registered" horiz-adv-x="585" d="M513 467T456 529T294 591T131 529T73 384T128 241T293 182T457 240T513 383ZM224 646T293 646T417 623T504 562Q570 486 570 394Q570 278 501 203T294 128T86 203T15 394Q15 485 82 562Q114
599 169 622ZM299 458H280L273 380H296Q315 380 327 392T339 422Q339 458 299 458ZM450 425Q450 399 432 378T403 352T385 343L433 244H355L268 331L260 244H173L147 513H346Q394 513 422 492T450 425Z" />
<glyph unicode="&#xaf;" glyph-name="overscore" horiz-adv-x="357" d="M337 599H20V699H337V599Z" />
<glyph unicode="&#xb0;" glyph-name="degree" horiz-adv-x="410" d="M20 715T67 767T204 819T342 767T390 644T343 524T205 474T67 523T20 644ZM270 670T253 688T205 707T156 689T139 645T155 603T204 585T253 602T270 645Z" />
<glyph unicode="&#xb1;" glyph-name="plusminus" horiz-adv-x="415" d="M30 318V416H155V534H259V416H385V318H259V199H155V318H30ZM30 60V148H385V60H30Z" />
<glyph unicode="&#xb2;" glyph-name="twosuperior" horiz-adv-x="351" d="M326 277H15V337Q22 345 45 369T83 409T114 447Q150 492 150 522Q150 569 104 569Q76 569 46 556L28 624Q95 663 162 663T274 636T320 549Q319 458 174 370L178 362L326 392V277Z" />
<glyph unicode="&#xb3;" glyph-name="threesuperior" horiz-adv-x="339" d="M170 408Q170 467 78 467H67L120 563L29 579L49 649H314L243 526Q294 509 314 458Q323 436 323 410Q323 347 275 306T158 265Q123 265 90 276T40 300L24 311L54 371Q82 354 110 354Q170
354 170 408Z" />
<glyph unicode="&#xb4;" glyph-name="acute" horiz-adv-x="329" d="M149 781Q172 818 204 818T256 800T275 750T239 697L181 663H77L149 781Z" />
<glyph unicode="&#xb5;" glyph-name="mu" horiz-adv-x="612" d="M245 -171H20L50 474H254V265Q254 179 284 152Q295 142 309 142Q341 142 353 177T366 234T366 260L357 474H582L561 0H392L382 85Q365 52 333 28T264 4Q259 4 245 6V-171Z" />
<glyph unicode="&#xb6;" glyph-name="paragraph" horiz-adv-x="476" d="M268 606V0H201L171 303Q97 305 54 341T10 452T54 566T180 606H268ZM329 0V606H456L396 0H329Z" />
<glyph unicode="&#xb7;" glyph-name="middot" horiz-adv-x="212" d="M68 369T106 369T163 349T182 297T163 246T106 225T49 245T30 297T49 348Z" />
<glyph unicode="&#xb8;" glyph-name="cedilla" horiz-adv-x="268" d="M176 -146Q153 -183 121 -183T69 -165T50 -115T86 -62L144 -28H248L176 -146Z" />
<glyph unicode="&#xb9;" glyph-name="onesuperior" horiz-adv-x="287" d="M113 277L75 570L23 581L18 649H265L227 277H113Z" />
<glyph unicode="&#xba;" glyph-name="ordmasculine" horiz-adv-x="379" d="M30 588T70 626T189 664T308 626T349 513T306 402T190 365T74 401T30 513ZM227 560T220 581T190 603T160 582T152 515T160 448T190 426T219 447T227 514ZM46 277V329H339V277H46Z" />
<glyph unicode="&#xbb;" glyph-name="guillemotright" horiz-adv-x="422" d="M279 232L200 408H311L421 232L311 56H200L279 232ZM94 232L15 408H126L236 232L126 56H15L94 232Z" />
<glyph unicode="&#xbc;" glyph-name="onequarter" horiz-adv-x="979" d="M156 167L117 469L64 480L59 550H313L273 167H156ZM256 -87L507 663H654L400 -87H256ZM662 383H895L875 186H916L904 96H866L856 0H747L737 96H568L573 186L662 383ZM718 292L668 186H728L718 292Z" />
<glyph unicode="&#xbd;" glyph-name="onehalf" horiz-adv-x="968" d="M897 274Q897 183 750 94L754 85L903 116V0H590V61Q643 114 690 171Q726 215 726 247Q726 294 680 294Q651 294 621 281L604 350L623 360Q642 370 676 379T743 389Q829 389 872 343Q897 316
897 274ZM156 167L117 469L64 480L59 550H313L273 167H156ZM256 -87L507 663H654L400 -87H256Z" />
<glyph unicode="&#xbe;" glyph-name="threequarters" horiz-adv-x="1020" d="M211 306Q211 366 118 366H107L160 463L69 480L89 550H357L285 426Q336 409 358 356Q367 334 367 308Q367 245 318 203T199 161Q163 161 130 172T80 196L64 207L94 268Q125 251 152
251T195 265T211 306ZM297 -87L548 663H695L441 -87H297ZM703 383H936L916 186H957L945 96H907L897 0H788L778 96H609L614 186L703 383ZM759 292L709 186H769L759 292Z" />
<glyph unicode="&#xbf;" glyph-name="questiondown" horiz-adv-x="476" d="M347 -6Q392 -6 441 27L469 -83Q384 -146 266 -146Q188 -146 134 -110Q57 -59 57 17Q57 52 74 92Q101 154 172 201L211 319Q233 305 265 305T329 319L370 200Q328 164 304 130T278 78L275
62Q276 24 298 9T347 -6ZM306 344T268 344T211 364T192 416T211 467T268 488T325 468T344 416T325 365Z" />
<glyph unicode="&#xc0;" glyph-name="Agrave" horiz-adv-x="694" d="M485 0L445 101H190L152 0H10L179 606H535L704 0H485ZM394 231L315 431L239 231H394ZM245 687Q209 708 209 739T228 789T279 808T335 771L407 653H303L245 687Z" />
<glyph unicode="&#xc1;" glyph-name="Aacute" horiz-adv-x="694" d="M485 0L445 101H190L152 0H10L179 606H535L704 0H485ZM394 231L315 431L239 231H394ZM367 771Q390 808 422 808T474 790T493 740T457 687L399 653H295L367 771Z" />
<glyph unicode="&#xc2;" glyph-name="Acircumflex" horiz-adv-x="694" d="M485 0L445 101H190L152 0H10L179 606H535L704 0H485ZM394 231L315 431L239 231H394ZM344 808H370Q403 808 422 797T458 759L523 653H419L357 715L295 653H191L256 759Q272 785 291 796T344 808Z" />
<glyph unicode="&#xc3;" glyph-name="Atilde" horiz-adv-x="694" d="M485 0L445 101H190L152 0H10L179 606H535L704 0H485ZM394 231L315 431L239 231H394ZM413 646Q390 646 372 664T345 683T332 680L274 646L191 681L242 764Q265 801 303 801Q322 801 336 789T361
768T384 767L442 801L525 766L474 683Q451 646 413 646Z" />
<glyph unicode="&#xc4;" glyph-name="Adieresis" horiz-adv-x="694" d="M485 0L445 101H190L152 0H10L179 606H535L704 0H485ZM394 231L315 431L239 231H394ZM413 798T448 798T501 779T520 730T502 681T448 662T395 681T377 729T395 778ZM230 798T265 798T318
779T337 730T319 681T265 662T212 681T194 729T212 778Z" />
<glyph unicode="&#xc5;" glyph-name="Aring" horiz-adv-x="694" d="M485 0L445 101H190L152 0H10L179 606H535L704 0H485ZM394 231L315 431L239 231H394ZM362 592Q410 592 436 610T462 675T438 740T362 759H352Q301 759 277 740T252 675T278 611T352 592H362ZM355
654Q334 654 327 661Q322 666 322 678T329 694T355 699H359Q377 699 384 695T392 678T386 660T359 654H355Z" />
<glyph unicode="&#xc6;" glyph-name="AE" horiz-adv-x="909" d="M671 233Q671 172 691 151T740 129Q788 129 836 145L851 150L894 64Q885 56 867 44T787 11T652 -10Q492 -10 430 101H190L152 0H10L179 606H837L865 486L695 471L685 374H819L839 280L671 238V233ZM394
231L315 431L239 231H394Z" />
<glyph unicode="&#xc7;" glyph-name="Ccedilla" horiz-adv-x="608" d="M338 620Q396 620 463 599T574 546L532 457Q488 474 435 474Q287 474 287 302Q287 219 327 173T425 126T533 150L578 64Q477 -10 337 -10T109 72T20 307T107 540T338 620ZM335 -146Q312 -183
280 -183T228 -165T209 -115T245 -62L303 -28H407L335 -146Z" />
<glyph unicode="&#xc8;" glyph-name="Egrave" horiz-adv-x="557" d="M319 233Q319 172 339 151T388 129Q436 129 484 145L499 150L542 64Q533 56 515 44T435 11T306 -10T194 9T125 53T86 121T67 194T59 269L35 606H485L513 486L343 471L333 374H467L487 280L319
238V233ZM163 687Q127 708 127 739T146 789T197 808T253 771L325 653H221L163 687Z" />
<glyph unicode="&#xc9;" glyph-name="Eacute" horiz-adv-x="557" d="M239 -10T194 9T125 53T86 121T67 194T59 269L35 606H485L513 486L343 471L333 374H467L487 280L319 238V233Q319 172 339 151T402 129T499 150L542 64L532 56Q509 38 455 16Q428 5 387 -2T292
-10ZM263 771Q286 808 318 808T370 790T389 740T353 687L295 653H191L263 771Z" />
<glyph unicode="&#xca;" glyph-name="Ecircumflex" horiz-adv-x="557" d="M239 -10T194 9T125 53T86 121T67 194T59 269L35 606H485L513 486L343 471L333 374H467L487 280L319 238V233Q319 172 339 151T402 129T499 150L542 64L532 56Q509 38 455 16Q428 5 387
-2T292 -10ZM263 808H289Q322 808 341 797T377 759L442 653H338L276 715L214 653H110L175 759Q191 785 210 796T263 808Z" />
<glyph unicode="&#xcb;" glyph-name="Edieresis" horiz-adv-x="557" d="M239 -10T194 9T125 53T86 121T67 194T59 269L35 606H485L513 486L343 471L333 374H467L487 280L319 238V233Q319 172 339 151T402 129T499 150L542 64L532 56Q509 38 455 16Q428 5 387 -2T292
-10ZM316 798T351 798T404 779T423 730T405 681T351 662T298 681T280 729T298 778ZM133 798T168 798T221 779T240 730T222 681T168 662T115 681T97 729T115 778Z" />
<glyph unicode="&#xcc;" glyph-name="Igrave" horiz-adv-x="365" d="M85 0L25 606H340L280 0H85ZM98 687Q62 708 62 739T81 789T132 808T188 771L260 653H156L98 687Z" />
<glyph unicode="&#xcd;" glyph-name="Iacute" horiz-adv-x="365" d="M85 0L25 606H340L280 0H85ZM176 771Q199 808 231 808T283 790T302 740T266 687L208 653H104L176 771Z" />
<glyph unicode="&#xce;" glyph-name="Icircumflex" horiz-adv-x="365" d="M85 0L25 606H340L280 0H85ZM167 808H193Q226 808 245 797T281 759L346 653H242L180 715L118 653H14L79 759Q95 785 114 796T167 808Z" />
<glyph unicode="&#xcf;" glyph-name="Idieresis" horiz-adv-x="365" d="M85 0L25 606H340L280 0H85ZM239 798T274 798T327 779T346 730T328 681T274 662T221 681T203 729T221 778ZM56 798T91 798T144 779T163 730T145 681T91 662T38 681T20 729T38 778Z" />
<glyph unicode="&#xd0;" glyph-name="Eth" horiz-adv-x="691" d="M-21 253V351H50L25 606H320Q543 606 627 484Q671 419 671 330Q671 0 281 0H85L60 253H-21ZM369 351V253H294L279 101H285Q354 101 392 174T430 327T401 456T326 504H320L304 351H369Z" />
<glyph unicode="&#xd1;" glyph-name="Ntilde" horiz-adv-x="775" d="M436 649Q413 649 395 667T368 686T355 683L297 649L214 684L265 767Q288 804 326 804Q345 804 359 792T384 771T407 770L465 804L548 769L497 686Q474 649 436 649ZM370 606L547 253L519 606H750L700
0H407L239 330L206 0H75L25 606H370Z" />
<glyph unicode="&#xd2;" glyph-name="Ograve" horiz-adv-x="747" d="M20 456T111 538T373 620T635 538T727 299T631 66T374 -10T117 66T20 299ZM461 505T374 505T286 303T373 101T461 303ZM261 687Q225 708 225 739T244 789T295 808T351 771L423 653H319L261 687Z" />
<glyph unicode="&#xd3;" glyph-name="Oacute" horiz-adv-x="747" d="M20 456T111 538T373 620T635 538T727 299T631 66T374 -10T117 66T20 299ZM461 505T374 505T286 303T373 101T461 303ZM391 771Q414 808 446 808T498 790T517 740T481 687L423 653H319L391 771Z" />
<glyph unicode="&#xd4;" glyph-name="Ocircumflex" horiz-adv-x="747" d="M20 456T111 538T373 620T635 538T727 299T631 66T374 -10T117 66T20 299ZM461 505T374 505T286 303T373 101T461 303ZM363 808H389Q422 808 441 797T477 759L542 653H438L376 715L314
653H210L275 759Q291 785 310 796T363 808ZM363 808Q330 808 311 797T275 759L210 653H314L376 715L438 653H542L477 759Q461 785 442 796T389 808H363Z" />
<glyph unicode="&#xd5;" glyph-name="Otilde" horiz-adv-x="747" d="M20 456T111 538T373 620T635 538T727 299T631 66T374 -10T117 66T20 299ZM461 505T374 505T286 303T373 101T461 303ZM440 646Q417 646 399 664T372 683T359 680L301 646L218 681L269 764Q292
801 330 801Q349 801 363 789T388 768T411 767L469 801L552 766L501 683Q478 646 440 646Z" />
<glyph unicode="&#xd6;" glyph-name="Odieresis" horiz-adv-x="747" d="M20 456T111 538T373 620T635 538T727 299T631 66T374 -10T117 66T20 299ZM461 505T374 505T286 303T373 101T461 303ZM431 798T466 798T519 779T538 730T520 681T466 662T413 681T395 729T413
778ZM248 798T283 798T336 779T355 730T337 681T283 662T230 681T212 729T230 778Z" />
<glyph unicode="&#xd7;" glyph-name="multiply" horiz-adv-x="381" d="M30 387L99 456L190 365L281 457L351 387L259 296L351 205L281 135L190 226L99 136L30 205L120 296L30 387Z" />
<glyph unicode="&#xd8;" glyph-name="Oslash" horiz-adv-x="747" d="M199 -66L451 670H523L271 -66H199ZM20 456T111 538T373 620T635 538T727 299T631 66T374 -10T117 66T20 299ZM461 505T374 505T286 303T373 101T461 303Z" />
<glyph unicode="&#xd9;" glyph-name="Ugrave" horiz-adv-x="707" d="M507 -10T354 -10T111 66T20 305V606H286V256Q286 139 316 114Q330 101 354 101T392 113T413 152Q422 192 422 256V606H688V305Q688 142 598 66ZM248 687Q212 708 212 739T231 789T282 808T338
771L410 653H306L248 687Z" />
<glyph unicode="&#xda;" glyph-name="Uacute" horiz-adv-x="707" d="M507 -10T354 -10T111 66T20 305V606H286V256Q286 192 295 152Q301 126 315 114T354 101T392 114Q422 139 422 256V606H688V305Q688 142 598 66ZM368 771Q391 808 423 808T475 790T494 740T458
687L400 653H296L368 771Z" />
<glyph unicode="&#xdb;" glyph-name="Ucircumflex" horiz-adv-x="707" d="M507 -10T354 -10T111 66T20 305V606H286V256Q286 192 295 152Q301 126 315 114T354 101T392 114Q422 139 422 256V606H688V305Q688 142 598 66ZM338 808H364Q397 808 416 797T452 759L517
653H413L351 715L289 653H185L250 759Q266 785 285 796T338 808Z" />
<glyph unicode="&#xdc;" glyph-name="Udieresis" horiz-adv-x="707" d="M507 -10T354 -10T111 66T20 305V606H286V256Q286 192 295 152Q301 126 315 114T354 101T392 114Q422 139 422 256V606H688V305Q688 142 598 66ZM410 798T445 798T498 779T517 730T499 681T445
662T392 681T374 729T392 778ZM227 798T262 798T315 779T334 730T316 681T262 662T209 681T191 729T209 778Z" />
<glyph unicode="&#xdd;" glyph-name="Yacute" horiz-adv-x="640" d="M208 0L182 259L-30 606H216L306 399L395 606H641L429 259L403 0H208ZM330 771Q353 808 385 808T437 790T456 740T420 687L362 653H258L330 771Z" />
<glyph unicode="&#xde;" glyph-name="Thorn" horiz-adv-x="614" d="M327 552Q456 552 522 503T589 334T520 162T338 109H235L231 0H57L30 649H258L254 552H327ZM284 439H249L240 223H284Q387 223 387 329Q387 393 359 416T284 439Z" />
<glyph unicode="&#xdf;" glyph-name="germandbls" horiz-adv-x="775" d="M336 158Q384 131 429 131T498 155T521 215T503 273T462 307Q404 337 404 374Q404 398 424 422T444 476T426 522T377 539Q328 539 312 500T285 364L247 0H58L28 351Q25 386 25 416Q25 500
54 549Q115 649 380 649Q593 649 652 582Q677 553 677 518T657 461T613 431T569 413T549 394T564 378T602 366T652 349T701 323T739 280T755 216Q755 107 683 49T507 -10Q380 -10 288 62L336 158Z" />
<glyph unicode="&#xe0;" glyph-name="agrave" horiz-adv-x="606" d="M207 -10Q130 -10 81 35T31 162T87 282T222 320T359 295Q346 378 254 378Q212 378 150 361L125 451Q215 488 308 488Q576 488 576 260Q576 182 558 44L553 0H388L382 55Q314 -10 207 -10ZM297
114Q342 114 374 139L368 205Q343 222 313 222T263 207T243 170T258 131T297 114ZM221 553Q185 574 185 605T204 655T255 674T311 637L383 519H279L221 553Z" />
<glyph unicode="&#xe1;" glyph-name="aacute" horiz-adv-x="606" d="M207 -10Q130 -10 81 35T31 162T87 282T222 320T359 295Q346 378 254 378Q212 378 150 361L125 451Q215 488 308 488Q576 488 576 260Q576 182 558 44L553 0H388L382 55Q314 -10 207 -10ZM297
114Q342 114 374 139L368 205Q343 222 313 222T263 207T243 170T258 131T297 114ZM315 637Q338 674 370 674T422 656T441 606T405 553L347 519H243L315 637Z" />
<glyph unicode="&#xe2;" glyph-name="acircumflex" horiz-adv-x="606" d="M207 -10Q130 -10 81 35T31 162T87 282T222 320T359 295Q346 378 254 378Q212 378 150 361L125 451Q215 488 308 488Q576 488 576 260Q576 182 558 44L553 0H388L382 55Q314 -10 207 -10ZM297
114Q342 114 374 139L368 205Q343 222 313 222T263 207T243 170T258 131T297 114ZM292 674H318Q351 674 370 663T406 625L471 519H367L305 581L243 519H139L204 625Q220 651 239 662T292 674Z" />
<glyph unicode="&#xe3;" glyph-name="atilde" horiz-adv-x="606" d="M207 -10Q130 -10 81 35T31 162T87 282T222 320T359 295Q346 378 254 378Q212 378 150 361L125 451Q215 488 308 488Q576 488 576 260Q576 182 558 44L553 0H388L382 55Q314 -10 207 -10ZM297
114Q342 114 374 139L368 205Q343 222 313 222T263 207T243 170T258 131T297 114ZM378 516Q355 516 337 534T310 553T297 550L239 516L156 551L207 634Q230 671 268 671Q287 671 301 659T326 638T349 637L407 671L490 636L439 553Q416 516 378 516Z" />
<glyph unicode="&#xe4;" glyph-name="adieresis" horiz-adv-x="606" d="M207 -10Q130 -10 81 35T31 162T87 282T222 320T359 295Q346 378 254 378Q212 378 150 361L125 451Q215 488 308 488Q576 488 576 260Q576 182 558 44L553 0H388L382 55Q314 -10 207 -10ZM297
114Q342 114 374 139L368 205Q343 222 313 222T263 207T243 170T258 131T297 114ZM384 664T419 664T472 645T491 596T473 547T419 528T366 547T348 595T366 644ZM201 664T236 664T289 645T308 596T290 547T236 528T183 547T165 595T183 644Z" />
<glyph unicode="&#xe5;" glyph-name="aring" horiz-adv-x="606" d="M207 -10Q130 -10 81 35T31 162T87 282T222 320T359 295Q346 378 254 378Q212 378 150 361L125 451Q215 488 308 488Q576 488 576 260Q576 182 558 44L553 0H388L382 55Q314 -10 207 -10ZM297
114Q342 114 374 139L368 205Q343 222 313 222T263 207T243 170T258 131T297 114ZM344 509H334Q286 509 260 527T234 592T258 657T334 676H344Q395 676 419 657T444 592T418 528T344 509ZM337 571H341Q362 571 368 577T374 595T367 611T341 616H337Q319 616 312
612T304 595T309 578Q316 571 337 571Z" />
<glyph unicode="&#xe6;" glyph-name="ae" horiz-adv-x="883" d="M624 489Q738 489 798 444T858 318Q858 256 809 218T664 179Q625 179 594 185L583 187Q589 106 702 106Q733 106 759 114T798 130L809 137L853 80Q842 66 820 49T774 20Q714 -9 631 -9Q506 -9 433
64Q342 -10 226 -10Q138 -10 79 33T20 157T73 278T210 320Q257 320 296 309T350 289L365 280Q362 342 327 364T228 387Q196 387 157 380L144 377L132 457L153 464Q174 472 217 480T307 488Q413 488 477 453Q542 489 624 489ZM232 148T247 131T287 114T333 122T364
140L373 148L369 196Q341 222 306 222T252 207T232 170ZM712 347T697 360T654 373T604 349T580 292Q602 282 637 282T692 294T712 327Z" />
<glyph unicode="&#xe7;" glyph-name="ccedilla" horiz-adv-x="489" d="M489 70Q414 -10 289 -10T94 57T25 248T99 429T284 488Q331 488 374 479T438 460L458 451L436 348Q395 360 352 360T273 333T237 248Q237 120 336 120Q362 120 386 126T421 140L432 146L489
70ZM287 -146Q264 -183 232 -183T180 -165T161 -115T197 -62L255 -28H359L287 -146Z" />
<glyph unicode="&#xe8;" glyph-name="egrave" horiz-adv-x="534" d="M291 -10Q178 -10 102 55T25 248Q25 328 64 384Q135 488 284 488Q398 488 458 443T518 317Q518 255 469 217T324 178Q285 178 254 184L243 186Q248 150 274 133T338 115Q399 115 442 152L504
77Q488 58 466 42T396 8T291 -10ZM372 346T357 359T314 372T264 348T240 291Q262 281 297 281T352 293T372 326ZM206 553Q170 574 170 605T189 655T240 674T296 637L368 519H264L206 553Z" />
<glyph unicode="&#xe9;" glyph-name="eacute" horiz-adv-x="543" d="M338 115Q399 115 442 152L504 77Q488 58 466 42T396 8T291 -10Q178 -10 102 55T25 248Q25 328 64 384Q135 488 284 488Q398 488 458 443T518 317Q518 255 469 217T324 178Q281 178 243 186Q248
150 274 133T338 115ZM333 281T352 293T372 326T357 359T314 372T264 348T240 291Q266 281 299 281ZM303 637Q326 674 358 674T410 656T429 606T393 553L335 519H231L303 637Z" />
<glyph unicode="&#xea;" glyph-name="ecircumflex" horiz-adv-x="543" d="M338 115Q399 115 442 152L504 77Q488 58 466 42T396 8T291 -10Q178 -10 102 55T25 248Q25 328 64 384Q135 488 284 488Q398 488 458 443T518 317Q518 255 469 217T324 178Q281 178 243
186Q248 150 274 133T338 115ZM333 281T352 293T372 326T357 359T314 372T264 348T240 291Q266 281 299 281ZM267 674H293Q326 674 345 663T381 625L446 519H342L280 581L218 519H114L179 625Q195 651 214 662T267 674Z" />
<glyph unicode="&#xeb;" glyph-name="edieresis" horiz-adv-x="543" d="M338 115Q399 115 442 152L504 77Q488 58 466 42T396 8T291 -10Q178 -10 102 55T25 248Q25 328 64 384Q135 488 284 488Q398 488 458 443T518 317Q518 255 469 217T324 178Q281 178 243 186Q248
150 274 133T338 115ZM333 281T352 293T372 326T357 359T314 372T264 348T240 291Q266 281 299 281ZM338 664T373 664T426 645T445 596T427 547T373 528T320 547T302 595T320 644ZM155 664T190 664T243 645T262 596T244 547T190 528T137 547T119 595T137 644Z"
/>
<glyph unicode="&#xec;" glyph-name="igrave" horiz-adv-x="315" d="M268 460L285 466L251 0H62L30 466Q87 443 151 443T268 460ZM77 553Q41 574 41 605T60 655T111 674T167 637L239 519H135L77 553Z" />
<glyph unicode="&#xed;" glyph-name="iacute" horiz-adv-x="315" d="M268 460L285 466L251 0H62L30 466Q87 443 151 443T268 460ZM149 637Q172 674 204 674T256 656T275 606T239 553L181 519H77L149 637Z" />
<glyph unicode="&#xee;" glyph-name="icircumflex" horiz-adv-x="315" d="M144 674H150Q183 674 202 663T238 625L303 519H199L147 581L95 519H-9L56 625Q72 651 91 662T144 674ZM268 460L285 466L251 0H62L30 466Q87 443 151 443T268 460Z" />
<glyph unicode="&#xef;" glyph-name="idieresis" horiz-adv-x="315" d="M193 664T228 664T281 645T300 596T282 547T228 528T175 547T157 595T175 644ZM30 664T65 664T118 645T137 596T119 547T65 528T12 547T-6 595T12 644ZM268 460L285 466L251 0H62L30 466Q87
443 151 443T268 460Z" />
<glyph unicode="&#xf0;" glyph-name="eth" horiz-adv-x="592" d="M483 570T525 475T567 293T539 141T448 33T296 -10Q172 -10 99 48T25 225T97 407T268 470Q321 470 365 448Q358 514 317 566L250 512L193 585L245 627Q205 651 172 658L161 661L176 742Q256 732
328 693L413 761L471 689L407 637Q483 570 525 475ZM369 356Q341 371 307 371T251 335T229 228Q229 75 296 75Q327 75 350 132T373 280Q373 320 369 356Z" />
<glyph unicode="&#xf1;" glyph-name="ntilde" horiz-adv-x="609" d="M408 488Q478 488 528 429T579 276T556 0H381L361 224Q351 331 303 331Q246 331 242 223L235 0H51L30 474H256L252 389Q257 399 275 420T310 454Q354 488 408 488ZM356 516Q333 516 315 534T288
553T275 550L217 516L134 551L185 634Q208 671 246 671Q265 671 279 659T304 638T327 637L385 671L468 636L417 553Q394 516 356 516Z" />
<glyph unicode="&#xf2;" glyph-name="ograve" horiz-adv-x="582" d="M25 109T25 239T97 428T291 488T484 429T557 239T485 50T291 -10T98 49ZM237 318T237 239T249 126T291 91T333 125T345 239T333 352T291 387T249 353ZM192 553Q156 574 156 605T175 655T226
674T282 637L354 519H250L192 553Z" />
<glyph unicode="&#xf3;" glyph-name="oacute" horiz-adv-x="582" d="M25 109T25 239T97 428T291 488T484 429T557 239T485 50T291 -10T98 49ZM237 318T237 239T249 126T291 91T333 125T345 239T333 352T291 387T249 353ZM312 637Q335 674 367 674T419 656T438
606T402 553L344 519H240L312 637Z" />
<glyph unicode="&#xf4;" glyph-name="ocircumflex" horiz-adv-x="582" d="M25 109T25 239T97 428T291 488T484 429T557 239T485 50T291 -10T98 49ZM237 318T237 239T249 126T291 91T333 125T345 239T333 352T291 387T249 353ZM276 674H302Q335 674 354 663T390
625L455 519H351L289 581L227 519H123L188 625Q204 651 223 662T276 674Z" />
<glyph unicode="&#xf5;" glyph-name="otilde" horiz-adv-x="582" d="M25 109T25 239T97 428T291 488T484 429T557 239T485 50T291 -10T98 49ZM237 318T237 239T249 126T291 91T333 125T345 239T333 352T291 387T249 353ZM332 516Q309 516 291 534T264 553T251
550L193 516L110 551L161 634Q184 671 222 671Q241 671 255 659T280 638T303 637L361 671L444 636L393 553Q370 516 332 516Z" />
<glyph unicode="&#xf6;" glyph-name="odieresis" horiz-adv-x="582" d="M25 109T25 239T97 428T291 488T484 429T557 239T485 50T291 -10T98 49ZM237 318T237 239T249 126T291 91T333 125T345 239T333 352T291 387T249 353ZM348 664T383 664T436 645T455 596T437
547T383 528T330 547T312 595T330 644ZM165 664T200 664T253 645T272 596T254 547T200 528T147 547T129 595T147 644Z" />
<glyph unicode="&#xf7;" glyph-name="divide" horiz-adv-x="415" d="M30 247V345H385V247H30ZM170 202T208 202T265 182T284 130T265 79T208 58T151 78T132 130T151 181ZM170 538T208 538T265 518T284 466T265 415T208 394T151 414T132 466T151 517Z" />
<glyph unicode="&#xf8;" glyph-name="oslash" horiz-adv-x="582" d="M150 -73L361 535H433L222 -73H150ZM25 109T25 239T97 428T291 488T484 429T557 239T485 50T291 -10T98 49ZM237 318T237 239T249 126T291 91T333 125T345 239T333 352T291 387T249 353Z" />
<glyph unicode="&#xf9;" glyph-name="ugrave" horiz-adv-x="615" d="M219 -10Q30 -10 30 247Q30 316 53 474H247V258Q247 142 312 142Q369 142 369 246Q369 254 369 263L360 474H585L564 0H395L384 92Q382 88 379 81T363 57T332 26T285 1T219 -10ZM198 553Q162
574 162 605T181 655T232 674T288 637L360 519H256L198 553Z" />
<glyph unicode="&#xfa;" glyph-name="uacute" horiz-adv-x="615" d="M219 -10Q30 -10 30 247Q30 316 53 474H247V258Q247 142 312 142Q369 142 369 246Q369 254 369 263L360 474H585L564 0H395L384 92Q382 88 379 81T363 57T332 26T285 1T219 -10ZM323 637Q346
674 378 674T430 656T449 606T413 553L355 519H251L323 637Z" />
<glyph unicode="&#xfb;" glyph-name="ucircumflex" horiz-adv-x="615" d="M219 -10Q30 -10 30 247Q30 316 53 474H247V258Q247 142 312 142Q369 142 369 246Q369 254 369 263L360 474H585L564 0H395L384 92Q382 88 379 81T363 57T332 26T285 1T219 -10ZM294 674H320Q353
674 372 663T408 625L473 519H369L307 581L245 519H141L206 625Q222 651 241 662T294 674Z" />
<glyph unicode="&#xfc;" glyph-name="udieresis" horiz-adv-x="615" d="M219 -10Q30 -10 30 247Q30 316 53 474H247V258Q247 142 312 142Q369 142 369 246Q369 254 369 263L360 474H585L564 0H395L384 92Q382 88 379 81T363 57T332 26T285 1T219 -10ZM364 664T399
664T452 645T471 596T453 547T399 528T346 547T328 595T346 644ZM181 664T216 664T269 645T288 596T270 547T216 528T163 547T145 595T163 644Z" />
<glyph unicode="&#xfd;" glyph-name="yacute" horiz-adv-x="610" d="M377 111V119Q374 102 362 82T334 47T292 22T219 11T134 31T72 88Q30 155 30 235T53 474H247V258Q247 148 312 148Q341 148 355 174T369 240Q369 245 369 251L360 474H585L571 167Q568 102 562
56T538 -38T492 -117Q427 -185 299 -185Q209 -185 130 -129L121 -123L163 -37Q211 -59 253 -59Q311 -59 344 -15T377 111ZM323 637Q346 674 378 674T430 656T449 606T413 553L355 519H251L323 637Z" />
<glyph unicode="&#xfe;" glyph-name="thorn" horiz-adv-x="598" d="M272 456T303 472T370 488T438 477T502 442T553 367T573 248Q573 122 516 56T368 -10T224 55L211 -171H40L30 649H258L250 430Q254 436 263 446ZM307 354Q241 354 241 234Q241 193 256 161T301
128T345 150T363 192T366 234Q366 354 307 354Z" />
<glyph unicode="&#xff;" glyph-name="ydieresis" horiz-adv-x="610" d="M377 111V119Q374 102 362 82T334 47T292 22T219 11T134 31T72 88Q30 155 30 235T53 474H247V258Q247 148 312 148Q341 148 355 174T369 240Q369 245 369 251L360 474H585L571 167Q568 102
562 56T538 -38T492 -117Q427 -185 299 -185Q209 -185 130 -129L121 -123L163 -37Q211 -59 253 -59Q311 -59 344 -15T377 111ZM364 664T399 664T452 645T471 596T453 547T399 528T346 547T328 595T346 644ZM181 664T216 664T269 645T288 596T270 547T216 528T163
547T145 595T163 644Z" />
<glyph unicode="&#x2013;" glyph-name="endash" horiz-adv-x="415" d="M0 247V345H415V247H0Z" />
<glyph unicode="&#x2014;" glyph-name="emdash" horiz-adv-x="826" d="M0 247V345H826V247H0Z" />
<glyph unicode="&#x2018;" glyph-name="quoteleft" horiz-adv-x="191" d="M171 649V512Q171 486 152 465T96 443T40 464T20 511T51 583L96 649H171Z" />
<glyph unicode="&#x2019;" glyph-name="quoteright" horiz-adv-x="191" d="M20 457V594Q20 620 39 641T95 663T151 642T171 595T140 523L95 457H20Z" />
<glyph unicode="&#x201a;" glyph-name="quotesinglbase" horiz-adv-x="180" d="M20 -85V42Q20 67 38 86T90 106T142 87T160 43T131 -24L90 -85H20Z" />
<glyph unicode="&#x201c;" glyph-name="quotedblleft" horiz-adv-x="361" d="M171 649V512Q171 486 152 465T96 443T40 464T20 511T51 583L96 649H171ZM341 649V512Q341 486 322 465T266 443T210 464T190 511T221 583L266 649H341Z" />
<glyph unicode="&#x201d;" glyph-name="quotedblright" horiz-adv-x="361" d="M20 457V594Q20 620 39 641T95 663T151 642T171 595T140 523L95 457H20ZM190 457V594Q190 620 209 641T265 663T321 642T341 595T310 523L265 457H190Z" />
<glyph unicode="&#x201e;" glyph-name="quotedblbase" horiz-adv-x="364" d="M20 -75V62Q20 88 39 109T95 131T151 110T171 63T140 -9L95 -75H20ZM193 -75V62Q193 88 212 109T268 131T324 110T344 63T313 -9L268 -75H193Z" />
<glyph unicode="&#x2022;" glyph-name="bullet" horiz-adv-x="320" d="M95 420T160 420T257 386T290 297T258 209T160 174T63 208T30 297T62 385Z" />
<glyph unicode="&#x2039;" glyph-name="guilsinglleft" horiz-adv-x="237" d="M222 408L143 232L222 56H111L1 232L111 408H222Z" />
<glyph unicode="&#x203a;" glyph-name="guilsinglright" horiz-adv-x="237" d="M1 56L80 232L1 408H112L222 232L112 56H1Z" />
</font>
</defs>
</svg>
