<?xml version="1.0" standalone="no"?>
<!DOCTYPE svg PUBLIC "-//W3C//DTD SVG 1.1//EN" "http://www.w3.org/Graphics/SVG/1.1/DTD/svg11.dtd">
<svg xmlns="http://www.w3.org/2000/svg">
<defs >
<font id="Rambla" horiz-adv-x="491" ><font-face
    font-family="Rambla"
    units-per-em="1000"
    panose-1="2 0 8 6 2 0 0 2 0 4"
    ascent="929"
    descent="-295"
    alphabetic="0" />
<glyph unicode=" " glyph-name="space" horiz-adv-x="186" />
<glyph unicode="!" glyph-name="exclam" horiz-adv-x="248" d="M197 702L175 216H70L51 702H197ZM43 110T67 134T125 158T183 134T207 77T183 18T125 -7T67 17T43 76Z" />
<glyph unicode="&quot;" glyph-name="quotedbl" horiz-adv-x="389" d="M40 700H166L148 449H58L40 700ZM223 700H349L331 449H241L223 700Z" />
<glyph unicode="#" glyph-name="numbersign" horiz-adv-x="642" d="M355 277L372 372H267L250 277H355ZM601 172H447L415 -13H304L336 172H231L199 -13H88L120 172H38V277H139L156 372H44V476H174L209 668H319L285 476H390L425 668H535L501 476H601V372H483L466
277H601V172Z" />
<glyph unicode="$" glyph-name="dollar" horiz-adv-x="493" d="M237 110Q330 110 330 182Q330 217 299 242T215 291T140 329T90 366Q39 411 39 491T85 619T208 677L204 786H295L291 679Q355 674 442 643L402 534Q320 563 262 563Q179 563 178 497Q178 470 196
457T222 438T254 420T300 396T338 374T385 341T430 300Q469 250 469 180T422 57T292 -9L296 -111H205L208 -11Q100 -2 26 33L63 152Q155 110 237 110Z" />
<glyph unicode="%" glyph-name="uni0025" horiz-adv-x="810" d="M291 0H161L514 691H643L291 0ZM103 323T64 362T25 510Q25 622 77 664Q121 700 185 700T288 660T327 511Q327 400 276 358Q232 323 168 323ZM204 633T176 633T134 607T119 510T133 414T176 389T218
414T233 510T219 606ZM562 -10T523 29T484 177Q484 289 536 332Q580 367 644 367T747 327T786 178Q786 67 734 25Q691 -10 627 -10ZM663 300T635 300T593 274T578 177T592 81T635 56T677 81T692 177T678 273Z" />
<glyph unicode="&amp;" glyph-name="ampersand" horiz-adv-x="677" d="M202 297T182 264T162 193T189 125T276 95T383 139L237 314Q202 297 182 264ZM111 607T160 645T285 683T462 646L429 549Q352 582 296 582T239 530Q239 493 287 436L458 230Q501 314 509 426H617Q611
261 528 151Q581 105 673 60L620 -33Q583 -17 533 11T450 65Q376 -13 270 -13T100 39T35 190Q35 317 178 390Q111 476 111 541Z" />
<glyph unicode="&apos;" glyph-name="quotesingle" horiz-adv-x="206" d="M40 700H166L148 449H58L40 700Z" />
<glyph unicode="(" glyph-name="parenleft" horiz-adv-x="302" d="M197 -133Q31 94 31 309T197 752L284 692Q164 487 164 308T284 -73L197 -133Z" />
<glyph unicode=")" glyph-name="parenright" horiz-adv-x="302" d="M105 752Q271 525 271 310T105 -133L18 -73Q138 129 138 308T18 692L105 752Z" />
<glyph unicode="*" glyph-name="asterisk" horiz-adv-x="393" d="M260 527L358 489L307 407L233 473L243 368H148L158 476L83 407L34 491L132 526L35 562L82 649L158 579L148 686H242L233 580L308 648L358 562L260 527Z" />
<glyph unicode="+" glyph-name="plus" horiz-adv-x="483" d="M297 77H186V223H37V333H186V478H297V333H446V223H297V77Z" />
<glyph unicode="," glyph-name="comma" horiz-adv-x="218" d="M172 59Q172 -46 83 -128H-20Q62 -33 62 44Q62 77 45 116H160Q172 90 172 59Z" />
<glyph unicode="-" glyph-name="hyphen" horiz-adv-x="509" d="M458 332V223H51V332H458Z" />
<glyph unicode="." glyph-name="period" horiz-adv-x="242" d="M39 110T63 134T121 158T179 134T203 77T179 18T121 -7T63 17T39 76Z" />
<glyph unicode="/" glyph-name="slash" horiz-adv-x="426" d="M408 731L125 -118L18 -89L303 762L408 731Z" />
<glyph unicode="0" glyph-name="zero" horiz-adv-x="546" d="M411 21T370 4T260 -13T144 16Q43 78 43 332Q43 585 148 650Q197 681 275 681Q392 681 447 605T503 335Q503 137 442 60Q411 21 370 4ZM324 562T273 562T201 513T179 334T200 155T273 105T345 154T367
333T346 512Z" />
<glyph unicode="1" glyph-name="one" horiz-adv-x="377" d="M313 1H174V536L51 483L7 582L205 668H313V1Z" />
<glyph unicode="2" glyph-name="two" horiz-adv-x="482" d="M27 0V105Q135 223 204 306T289 417T305 484T282 545T207 567T84 537L53 637Q144 682 233 682T376 630T429 492Q429 439 407 395T339 288T193 116H451L442 0H27Z" />
<glyph unicode="3" glyph-name="three" horiz-adv-x="489" d="M286 489Q286 524 262 541T189 558T66 528L34 635Q132 680 224 680T368 633T420 505Q420 465 402 427T345 365Q452 319 452 213T389 47T215 -13Q134 -13 27 25L57 136Q147 104 204 104Q318 104 318
207Q318 253 287 280T196 307H127V408H186Q286 408 286 489Z" />
<glyph unicode="4" glyph-name="four" horiz-adv-x="568" d="M545 176H441V0H308V176H19V250L285 669H441V271H545V176ZM308 271L307 505L166 271H308Z" />
<glyph unicode="5" glyph-name="five" horiz-adv-x="483" d="M220 105Q263 105 290 133T317 219T292 303T223 330T138 289L65 324V669H414V554H182V427Q214 450 264 450Q345 450 398 392T451 229T393 56T232 -13T28 48L71 147Q155 105 220 105Z" />
<glyph unicode="6" glyph-name="six" horiz-adv-x="499" d="M253 -12Q41 -12 41 283Q41 474 116 577T314 680Q377 680 439 652L408 545Q373 558 324 558T239 523T191 413Q211 431 238 440T285 449Q369 449 418 395T467 235T412 58T253 -12ZM180 194T199 149T255
104T313 137T333 227T314 308T257 333T180 311Q180 194 199 149Z" />
<glyph unicode="7" glyph-name="seven" horiz-adv-x="433" d="M22 554V669H421V597L313 338Q239 176 213 0H82Q103 169 178 340Q180 344 274 554H22Z" />
<glyph unicode="8" glyph-name="eight" horiz-adv-x="518" d="M480 106T425 47T261 -12T95 41T37 187Q37 236 66 282T147 358Q67 407 67 498T121 635T263 681T403 637T455 515Q455 414 362 359Q480 302 480 190Q480 106 425 47ZM331 536T312 551T263 567T212 553T191
506T212 445T266 402Q295 419 313 450T331 508ZM167 190Q167 149 193 127T260 104T325 129T350 196T322 261T243 305Q242 305 239 306T235 308L234 309Q167 268 167 190Z" />
<glyph unicode="9" glyph-name="nine" horiz-adv-x="500" d="M247 679Q459 679 459 384Q459 193 384 91T186 -12Q123 -12 61 16L92 123Q127 110 176 110T261 145T309 254Q289 236 262 227T215 218Q131 218 82 272T33 432T88 609T247 679ZM320 473T301 518T245
563T187 530T167 440T186 359T243 334T320 356Q320 473 301 518Z" />
<glyph unicode=":" glyph-name="colon" horiz-adv-x="266" d="M50 110T74 134T132 158T190 134T214 77T190 18T132 -7T74 17T50 76ZM52 407T76 431T134 455T192 431T216 374T192 315T134 290T76 314T52 373Z" />
<glyph unicode=";" glyph-name="semicolon" horiz-adv-x="256" d="M194 59Q194 -46 105 -128H2Q84 -33 84 44Q84 77 67 116H182Q194 90 194 59ZM44 404T68 428T126 452T184 428T208 371T184 312T126 287T68 311T44 370Z" />
<glyph unicode="&lt;" glyph-name="less" horiz-adv-x="439" d="M31 236V324L387 502V380L179 281L387 180V60L31 236Z" />
<glyph unicode="=" glyph-name="equal" horiz-adv-x="488" d="M433 431V324H55V431H433ZM433 236V128H55V236H433Z" />
<glyph unicode="&gt;" glyph-name="greater" horiz-adv-x="439" d="M408 324V236L52 60V180L260 281L52 380V502L408 324Z" />
<glyph unicode="?" glyph-name="question" horiz-adv-x="366" d="M152 128T175 105T198 50T176 -5T121 -29T65 -6T42 50T65 105T120 128ZM176 238L174 184H60Q57 220 57 251Q61 284 77 316T109 365T147 404T180 436Q214 470 214 510Q214 593 50 608L75 700Q200
694 271 643T343 518Q343 477 327 448T298 405T260 370T221 334T193 293T176 238Z" />
<glyph unicode="@" glyph-name="at" horiz-adv-x="801" d="M441 415Q396 415 366 375T336 273Q336 192 388 192Q414 192 432 215T452 273L463 412Q456 415 441 415ZM394 -86Q239 -86 140 -2Q91 41 64 113T36 280Q36 460 143 570T438 680Q604 680 689 595T775 358Q775
101 586 101Q557 101 529 117T488 159Q470 135 440 118T379 100Q310 100 268 144T226 266Q226 372 287 438T440 504Q500 504 580 469L562 261Q561 249 561 230T570 202T604 194Q667 194 667 359Q667 464 609 523T436 582Q300 582 224 502T148 282Q148 109 265 45Q326
12 409 12T614 54L639 -32Q516 -86 394 -86Z" />
<glyph unicode="A" glyph-name="A" horiz-adv-x="568" d="M570 0H428L381 158H188L142 0H-4L208 668H361L570 0ZM350 267L284 530L219 267H350Z" />
<glyph unicode="B" glyph-name="B" horiz-adv-x="549" d="M410 632Q478 588 478 497T413 366Q471 340 493 303T516 204Q516 109 459 55T284 0H64V668H210Q287 668 331 662T410 632ZM207 562V409H274Q339 414 339 490Q339 546 295 557Q275 562 228 562H207ZM267
114Q377 114 377 208Q377 263 346 283T255 304H207V114H267Z" />
<glyph unicode="C" glyph-name="C" horiz-adv-x="519" d="M483 5Q404 -13 337 -13T220 4T128 61Q39 144 39 336Q39 431 65 500T136 608Q220 679 339 679Q414 679 490 657L467 554Q410 565 361 565Q280 565 233 515T186 338T234 159T367 106Q426 106 474 114L483 5Z" />
<glyph unicode="D" glyph-name="D" horiz-adv-x="601" d="M208 538V129H258Q353 129 385 178T418 334T386 489T258 538H208ZM252 0H64V667H252Q378 667 428 641Q560 573 560 333Q560 225 529 143T429 27Q375 0 252 0Z" />
<glyph unicode="E" glyph-name="E" horiz-adv-x="536" d="M208 116H494V0H64V669H485V553H208V402H469V290H208V116Z" />
<glyph unicode="F" glyph-name="F" horiz-adv-x="512" d="M485 553H209V402H461V290H209V0H64V668H485V553Z" />
<glyph unicode="G" glyph-name="G" horiz-adv-x="580" d="M179 645T229 662T349 679T513 653L492 549Q425 565 352 565T232 515T185 339Q185 106 340 106Q371 106 405 112V236H311V341H536V31Q426 -13 312 -13T120 70T38 336Q38 431 64 500T134 607Z" />
<glyph unicode="H" glyph-name="H" horiz-adv-x="633" d="M426 404V668H569V0H426V288H207V0H64V668H207V404H426Z" />
<glyph unicode="I" glyph-name="I" horiz-adv-x="272" d="M208 668V0H64V668H208Z" />
<glyph unicode="J" glyph-name="J" horiz-adv-x="270" d="M65 121V668H208V123Q208 14 163 -60T4 -186L-58 -91Q17 -49 41 -4T65 121Z" />
<glyph unicode="K" glyph-name="K" horiz-adv-x="636" d="M230 341L424 668H594L387 346L638 0H463L230 341ZM208 668V0H64V668H208Z" />
<glyph unicode="L" glyph-name="L" horiz-adv-x="474" d="M209 116H464V0H64V668H209V116Z" />
<glyph unicode="M" glyph-name="M" horiz-adv-x="771" d="M438 85H333L195 479L179 0H46L85 668H241L385 238L530 668H686L725 0H591L575 478L438 85Z" />
<glyph unicode="N" glyph-name="N" horiz-adv-x="682" d="M618 0H466L203 467V0H64V668H216L478 200V668H618V0Z" />
<glyph unicode="O" glyph-name="O" horiz-adv-x="618" d="M127 623T181 651T303 680T417 661T495 609T544 532Q579 448 579 334Q579 192 522 96Q492 46 437 17T315 -12T200 7T123 59T74 136Q39 220 39 334Q39 475 97 572Q127 623 181 651ZM236 110T309 110T411
169T440 316T430 450T390 530T316 563T245 546T204 495Q178 434 178 332T207 170Z" />
<glyph unicode="P" glyph-name="P" horiz-adv-x="540" d="M459 610Q520 556 520 454T452 296Q417 268 367 256T233 244H208V0H64V668H257Q333 668 378 655T459 610ZM346 371Q380 394 380 456T346 540T234 562H208V350H219Q318 350 346 371Z" />
<glyph unicode="Q" glyph-name="Q" horiz-adv-x="618" d="M68 146T54 205T39 334T53 463T97 572T181 651T303 680T417 661T495 609T544 532Q579 448 579 334Q579 116 461 33Q574 20 673 -39L601 -137Q588 -124 558 -104T496 -68Q414 -28 307 -10Q235 -10 182 18T98
96ZM178 94T309 94T440 328T309 563T178 329Z" />
<glyph unicode="R" glyph-name="R" horiz-adv-x="581" d="M233 244H208V0H64V668H257Q333 668 378 655T459 610Q520 556 520 462Q520 347 452 296Q429 278 398 266L569 33L461 -33L263 245Q254 244 233 244ZM346 371Q381 395 381 451T353 535T234 562H208V350H219Q318
350 346 371Z" />
<glyph unicode="S" glyph-name="S" horiz-adv-x="499" d="M472 187Q472 98 411 43T245 -13Q195 -13 133 0T29 33L66 152Q158 110 240 110Q333 110 333 182Q333 217 302 242T218 291T143 329T93 366Q42 411 42 497T102 632T252 681T445 643L405 534Q323 563 265
563Q182 563 181 497Q181 470 199 457T225 438T257 420T303 396T341 374T388 341T432 300Q472 250 472 187Z" />
<glyph unicode="T" glyph-name="T" horiz-adv-x="515" d="M184 553H10V668H505V553H328V0H184V553Z" />
<glyph unicode="U" glyph-name="U" horiz-adv-x="606" d="M59 246V667H204V251Q204 165 224 138Q244 108 303 108T382 139Q402 165 402 251V667H547V246Q547 130 500 64Q440 -10 303 -12Q166 -12 105 64Q59 131 59 246Z" />
<glyph unicode="V" glyph-name="V" horiz-adv-x="553" d="M276 160L415 668H557L347 0H206L-4 668H138L276 160Z" />
<glyph unicode="W" glyph-name="W" horiz-adv-x="795" d="M345 612H450L590 164L626 668H759L692 0H542L397 494L253 0H103L36 668H168L204 163L345 612Z" />
<glyph unicode="X" glyph-name="X" horiz-adv-x="600" d="M591 0H430L297 231L163 0H9L224 334L19 667H173L299 440L424 667H580L372 340L591 0Z" />
<glyph unicode="Y" glyph-name="Y" horiz-adv-x="548" d="M346 0H202V264L-8 668H138L274 383L410 668H556L346 264V0Z" />
<glyph unicode="Z" glyph-name="Z" horiz-adv-x="525" d="M496 117V0H43L32 88L315 552H48L33 668H466L475 575L194 117H496Z" />
<glyph unicode="[" glyph-name="bracketleft" horiz-adv-x="346" d="M58 -131V748H319V648L189 640V-24L319 -30V-131H58Z" />
<glyph unicode="\" glyph-name="backslash" horiz-adv-x="428" d="M302 -118L19 731L124 762L409 -89L302 -118Z" />
<glyph unicode="]" glyph-name="bracketright" horiz-adv-x="346" d="M288 748V-131H27V-30L157 -24V640L27 648V748H288Z" />
<glyph unicode="^" glyph-name="asciicircum" horiz-adv-x="499" d="M204 643H292L470 295H348L249 495L148 295H28L204 643Z" />
<glyph unicode="_" glyph-name="underscore" horiz-adv-x="534" d="M483 109V0H51V109H483Z" />
<glyph unicode="`" glyph-name="grave" horiz-adv-x="343" d="M262 587L58 663L107 774L296 665L262 587Z" />
<glyph unicode="a" glyph-name="a" horiz-adv-x="510" d="M516 17Q465 -11 405 -11T315 35Q257 -13 179 -13T61 26T21 134Q21 179 40 211T89 258Q144 284 203 284T299 281V330Q299 382 278 397T207 412T93 391L64 479Q101 501 154 512T246 524Q348 524 391 481T435
332V122Q435 94 460 94Q473 94 497 100L516 17ZM217 80Q259 80 299 106V211Q271 213 250 213Q151 213 151 149Q151 80 217 80Z" />
<glyph unicode="b" glyph-name="b" horiz-adv-x="541" d="M192 701V480Q213 497 248 509T320 522Q402 522 455 460T508 281Q508 138 450 63T264 -13Q209 -13 146 -3T52 22V701H192ZM244 100Q313 100 340 142T367 264T346 376T280 408T192 381V105Q219 100 244 100Z" />
<glyph unicode="c" glyph-name="c" horiz-adv-x="438" d="M271 -13Q168 -13 100 53T32 254T99 455T271 522Q333 522 412 499L385 398Q324 412 287 412Q228 412 197 377T165 251T199 126T296 91Q328 91 394 101L411 10Q332 -13 271 -13Z" />
<glyph unicode="d" glyph-name="d" horiz-adv-x="534" d="M34 244Q34 522 251 522Q306 522 340 504V710H481V-7H365L357 31Q301 -9 224 -9Q130 -9 82 59T34 244ZM265 412Q168 412 168 247Q168 96 258 96Q304 96 341 119V398Q308 412 265 412Z" />
<glyph unicode="e" glyph-name="e" horiz-adv-x="480" d="M164 242Q166 92 296 92Q357 92 417 115L441 20Q364 -13 270 -13Q33 -13 33 266Q33 376 92 449T262 522Q351 522 399 475T448 342Q448 292 435 242H164ZM336 318V324Q336 423 266 423Q182 423 165 318H336Z" />
<glyph unicode="f" glyph-name="f" horiz-adv-x="409" d="M445 613Q403 623 345 623T268 601T249 527V512H402L393 416H249V-186L109 -172V416L15 422V504L110 511V540Q110 643 166 690T340 737Q400 737 474 713L445 613Z" />
<glyph unicode="g" glyph-name="g" horiz-adv-x="490" d="M283 -23H182Q131 -40 131 -84Q131 -140 245 -140T359 -67Q359 -45 343 -34T283 -23ZM230 419Q161 419 161 329Q161 285 177 265T230 245T282 265T298 330T282 397T230 419ZM227 525L315 520Q393 520 480
535L492 458Q473 453 388 441Q423 392 423 330Q423 244 374 190T231 136Q198 136 178 141Q172 123 172 110Q172 77 229 77H315Q392 77 435 43T478 -53Q478 -142 410 -193T234 -244T71 -208T15 -104Q15 -65 41 -30T114 26Q82 47 82 86T112 166Q76 192 56 235T36
330Q36 417 84 471T227 525Z" />
<glyph unicode="h" glyph-name="h" horiz-adv-x="546" d="M223 490T264 506T347 522T420 510T467 472Q496 427 496 351V0H350V326Q350 390 323 402Q310 408 288 408Q232 408 193 371V0H53V697L193 706V467Q223 490 264 506Z" />
<glyph unicode="i" glyph-name="i" horiz-adv-x="246" d="M193 0H53V512L193 524V0ZM40 711T64 735T122 759T180 735T204 678T180 619T122 594T64 618T40 677Z" />
<glyph unicode="j" glyph-name="j" horiz-adv-x="244" d="M192 51Q192 -194 -66 -207L-77 -99Q-6 -87 23 -52T53 60V508L192 522V51ZM38 713T62 737T122 762T181 738T206 679T182 619T122 593T63 618T38 678Z" />
<glyph unicode="k" glyph-name="k" horiz-adv-x="554" d="M193 0H53V699L193 709V293L363 512H515L330 281L554 0H394L193 261V0Z" />
<glyph unicode="l" glyph-name="l" horiz-adv-x="309" d="M313 9Q262 -13 214 -13T135 -2T89 23T65 64T56 109T54 161V700H195V153Q195 124 203 112T238 100T292 107L313 9Z" />
<glyph unicode="m" glyph-name="m" horiz-adv-x="836" d="M206 482T251 502T348 522T427 505T472 453Q499 481 545 501T639 522Q725 522 755 478T786 351V0H646V326Q646 390 619 402Q606 408 584 408Q528 408 489 371Q490 364 490 350V0H350V326Q350 390 323 402Q310
408 288 408Q232 408 193 371V0H53V513H168L180 456Q206 482 251 502Z" />
<glyph unicode="n" glyph-name="n" horiz-adv-x="546" d="M346 522Q433 522 464 478T496 351V0H356V326Q356 365 344 386T283 408T196 371V0H53V513H171L183 456Q212 483 256 502T346 522Z" />
<glyph unicode="o" glyph-name="o" horiz-adv-x="511" d="M478 116T416 52T253 -13T93 51T33 254T94 457T256 522Q478 522 478 255Q478 116 416 52ZM342 348T320 381T256 414T191 381T168 254Q168 94 255 94Q296 94 319 129T342 256Z" />
<glyph unicode="p" glyph-name="p" horiz-adv-x="538" d="M316 522Q409 522 457 453T505 266Q505 -13 276 -13Q238 -13 193 5V-197L53 -213V513H173L185 472Q249 522 316 522ZM253 100Q367 100 367 262Q367 408 272 408Q234 408 193 383V107Q221 100 253 100Z" />
<glyph unicode="q" glyph-name="q" horiz-adv-x="541" d="M349 19Q298 -13 219 -13T86 49T33 228Q33 522 288 522Q342 522 400 511T489 484V-222L349 -213V19ZM292 409Q226 409 200 367T174 245T195 133T260 100T349 120V401Q323 409 292 409Z" />
<glyph unicode="r" glyph-name="r" horiz-adv-x="377" d="M308 410Q226 410 193 363V0H53V513H169L180 448Q238 524 328 524Q353 524 374 519L351 404Q329 410 308 410Z" />
<glyph unicode="s" glyph-name="s" horiz-adv-x="419" d="M237 414Q169 414 169 369Q169 345 192 328T247 299T312 271T368 226T391 155Q391 80 340 34T190 -13Q145 -13 96 -3T23 20L57 120Q135 94 197 94T260 143Q260 164 237 181T182 212T117 244T61 292T38
364Q38 441 89 482T235 523T384 492L351 393Q282 414 237 414Z" />
<glyph unicode="t" glyph-name="t" horiz-adv-x="403" d="M105 165V416L15 422V504L108 512V629L248 641V513H394L386 416H247V152Q247 123 256 111T294 98T359 107L380 8Q331 -13 281 -13T205 -7T163 7T135 30T118 58T109 92Q105 122 105 165Z" />
<glyph unicode="u" glyph-name="u" horiz-adv-x="543" d="M363 47Q286 -13 200 -13T82 31T50 158V513H190V183Q190 143 202 122T261 101T350 132V513H490V-13H375L363 47Z" />
<glyph unicode="v" glyph-name="v" horiz-adv-x="511" d="M255 112L362 513H503L343 0H167L10 513H151L255 112Z" />
<glyph unicode="w" glyph-name="w" horiz-adv-x="689" d="M279 504L408 513L481 115L536 513H673L558 0H408L346 373L283 0H127L21 513H158L210 112L279 504Z" />
<glyph unicode="x" glyph-name="x" horiz-adv-x="527" d="M506 513L347 264L519 0H371L264 191L156 0H6L184 266L24 513H174L267 341L360 513H506Z" />
<glyph unicode="y" glyph-name="y" horiz-adv-x="502" d="M85 -213Q40 -213 -20 -195L1 -98Q1 -99 31 -103T70 -108Q126 -108 149 -88T192 13L5 500L138 517L253 163L355 513H490L328 42Q276 -108 230 -160T85 -213Z" />
<glyph unicode="z" glyph-name="z" horiz-adv-x="451" d="M181 95H421L433 0H37L25 75L250 416H45L35 512H394L407 434L181 95Z" />
<glyph unicode="{" glyph-name="braceleft" horiz-adv-x="369" d="M248 -35H343V-130H254Q181 -130 138 -84T91 43Q90 66 89 118T87 185T86 212T85 231T82 245Q77 260 61 260H18V364H61Q82 364 84 393Q86 411 86 432Q89 533 91 581Q94 662 137 708T254 754H343V659H248Q208
659 208 579L206 450Q204 350 161 312Q204 274 206 174L208 45Q208 -35 248 -35Z" />
<glyph unicode="|" glyph-name="bar" horiz-adv-x="234" d="M59 -43V694H175V-43H59Z" />
<glyph unicode="}" glyph-name="braceright" horiz-adv-x="369" d="M121 659H26V754H115Q188 754 231 708T278 581Q279 558 280 506T282 439T283 412T284 393T288 379Q292 364 308 364H351V260H308Q287 260 284 231Q283 213 282 192Q280 91 278 43Q275 -38 232
-84T115 -130H26V-35H121Q161 -35 161 45L163 174Q165 274 208 312Q165 350 163 450L161 579Q161 659 121 659Z" />
<glyph unicode="~" glyph-name="asciitilde" horiz-adv-x="567" d="M398 308Q439 308 471 354L534 299Q476 196 390 196Q343 196 275 229T168 262T97 216L34 271Q92 375 171 375Q223 375 299 339Q369 308 398 308Z" />
<glyph unicode="&#xa0;" glyph-name="uni00A0" horiz-adv-x="186" />
<glyph unicode="&#xa1;" glyph-name="exclamdown" horiz-adv-x="240" d="M47 -178L69 308H174L193 -178H47ZM201 414T177 390T119 366T61 390T37 447T61 506T119 531T177 507T201 448Z" />
<glyph unicode="&#xa2;" glyph-name="cent" horiz-adv-x="440" d="M281 496Q222 496 191 461T159 335T193 210T290 175Q322 175 388 185L405 94Q353 78 305 72L311 -36H221L227 73Q138 85 82 151T26 338T81 526T227 603L221 719H311L304 604Q342 601 406 583L379
482Q318 496 281 496Z" />
<glyph unicode="&#xa3;" glyph-name="sterling" horiz-adv-x="493" d="M36 304V404H92Q80 440 80 491Q80 583 133 633T272 683T449 641L411 541Q333 573 289 573T223 553T202 492T217 404H349L355 304H247Q252 279 252 244Q252 176 220 115H461V0H62V100Q94 116
113 160T132 243T124 304H36Z" />
<glyph unicode="&#xa4;" glyph-name="currency" horiz-adv-x="537" d="M178 68L100 -32L31 21L110 122Q67 179 67 252T115 384Q115 384 39 479L108 532L183 436Q226 454 272 454T354 438Q400 499 428 532L496 479L426 388Q480 329 480 252T429 115L503 21L434
-32L361 64Q328 47 275 47T178 68ZM161 202T193 169T273 136T354 169T386 250T354 332T274 366T193 333T161 251Z" />
<glyph unicode="&#xa5;" glyph-name="yen" horiz-adv-x="606" d="M83 247V331H196L21 668H167L303 383L439 668H585L410 331H523V247H375V194H523V109H375V0H231V109H83V194H231V247H83Z" />
<glyph unicode="&#xa6;" glyph-name="brokenbar" horiz-adv-x="236" d="M60 407V694H176V407H60ZM60 -43V242H176V-43H60Z" />
<glyph unicode="&#xa7;" glyph-name="section" horiz-adv-x="379" d="M102 427Q88 469 88 500Q88 623 214 669Q230 675 277 686L300 587L254 571Q199 551 199 510Q199 478 263 383T341 255T356 185Q356 93 276 43Q292 11 292 -31T277 -104T232 -160Q179 -204 102
-214L79 -117L126 -102Q180 -83 180 -41Q180 -23 172 -10Q158 24 147 40T125 74T107 102T84 135Q57 174 41 209T24 287Q24 375 102 427ZM226 128Q244 148 244 167T234 214T153 340Q136 324 136 302T147 251T211 149L226 128Z" />
<glyph unicode="&#xa8;" glyph-name="dieresis" horiz-adv-x="358" d="M17 695T36 715T85 735T135 715T155 666T135 617T86 596T37 616T17 666ZM201 695T221 715T270 735T319 715T339 666T319 617T270 596T221 616T201 666Z" />
<glyph unicode="&#xa9;" glyph-name="copyright" horiz-adv-x="716" d="M452 414Q414 438 370 438T295 404T265 298T295 192T368 157T459 184L481 135Q429 98 362 98T245 148T195 298T245 447T361 498T476 466L452 414ZM678 436T678 302T585 75T358 -18T131 75T38
302T131 529T358 622T585 529ZM603 192T603 302T534 483T358 555T182 483T112 300T182 118T358 45T533 118Z" />
<glyph unicode="&#xaa;" glyph-name="ordfeminine" horiz-adv-x="342" d="M310 421Q280 404 247 404T197 428Q164 403 122 403T57 425T34 491T66 552T133 571T187 569V595Q187 621 176 629T141 637T75 624L57 677Q99 703 158 703T241 679T265 596V479Q265 467
276 467T299 471L310 421ZM177 527L162 528Q110 528 110 494T143 459Q166 459 187 472V527H177Z" />
<glyph unicode="&#xab;" glyph-name="guillemotleft" horiz-adv-x="560" d="M525 421L386 276L525 134L443 61L267 247V306L443 491L525 421ZM294 421L154 276L294 134L212 61L36 247V306L212 491L294 421Z" />
<glyph unicode="&#xac;" glyph-name="logicalnot" horiz-adv-x="566" d="M508 225H398V333H51V442H508V225Z" />
<glyph unicode="&#xad;" glyph-name="uni00AD" horiz-adv-x="509" />
<glyph unicode="&#xae;" glyph-name="registered" horiz-adv-x="716" d="M678 436T678 302T585 75T358 -18T131 75T38 302T131 529T358 622T585 529ZM603 192T603 302T534 483T358 555T182 483T112 300T182 118T358 45T533 118ZM331 497Q482 497 482 381Q482 319
445 289Q430 276 412 270Q415 264 454 212T515 136L473 105Q411 172 354 260Q328 258 315 258H294V111H235V497H331ZM396 321Q420 338 420 379T396 436T323 452H294V305H314Q377 305 396 321Z" />
<glyph unicode="&#xaf;" glyph-name="overscore" horiz-adv-x="532" d="M487 650V541H45V650H487Z" />
<glyph unicode="&#xb0;" glyph-name="degree" horiz-adv-x="311" d="M276 615T276 565T245 479T155 443T66 478T35 563T66 648T155 683T245 649ZM155 507Q208 507 208 562T155 618Q129 618 117 602T104 563T116 524T155 507Z" />
<glyph unicode="&#xb1;" glyph-name="plusminus" horiz-adv-x="511" d="M311 187H200V333H51V443H200V588H311V443H460V333H311V187ZM459 110V1H52V110H459Z" />
<glyph unicode="&#xb2;" glyph-name="twosuperior" horiz-adv-x="378" d="M46 256V331Q116 401 171 467Q215 522 215 546T203 583T172 595T85 571L59 648Q127 680 183 680T275 646T310 558Q310 482 204 373Q184 350 178 344H323V256H46Z" />
<glyph unicode="&#xb3;" glyph-name="threesuperior" horiz-adv-x="367" d="M152 444H103V514H151Q194 514 194 562Q194 596 153 596T74 577L48 648Q112 680 167 680T256 650T290 571T255 488Q304 458 304 393T265 288T164 249T35 291L70 365Q121 334 161 334Q183
334 196 348T210 388Q210 444 152 444Z" />
<glyph unicode="&#xb4;" glyph-name="acute" horiz-adv-x="342" d="M288 663L84 587L50 665L239 774L288 663Z" />
<glyph unicode="&#xb5;" glyph-name="mu" horiz-adv-x="603" d="M249 -3Q222 -3 201 6V-201H61V513H201V183Q201 143 213 122T272 101T361 132V513H501V122Q501 94 526 94Q539 94 563 100L582 17Q531 -11 473 -11Q398 -11 374 53Q318 -3 249 -3Z" />
<glyph unicode="&#xb6;" glyph-name="paragraph" horiz-adv-x="506" d="M478 604H406V-162H332V604H258V-162H180V351Q114 351 68 397T21 510T67 622T180 668H478V604Z" />
<glyph unicode="&#xb7;" glyph-name="middot" horiz-adv-x="248" d="M42 297T66 321T124 345T182 321T206 264T182 205T124 180T66 204T42 263Z" />
<glyph unicode="&#xb8;" glyph-name="cedilla" horiz-adv-x="276" d="M232 -133Q232 -230 104 -295L53 -230Q111 -187 111 -139Q111 -111 90 -57H214Q232 -96 232 -133Z" />
<glyph unicode="&#xb9;" glyph-name="onesuperior" horiz-adv-x="320" d="M232 251H129V559L43 523L12 604L155 666H232V251Z" />
<glyph unicode="&#xba;" glyph-name="ordmasculine" horiz-adv-x="325" d="M288 475T253 439T161 402T71 437T37 551T72 666T163 703Q288 703 288 553Q288 475 253 439ZM186 639T163 639T128 621T116 552Q116 465 162 465T209 552Q209 603 198 621Z" />
<glyph unicode="&#xbb;" glyph-name="guillemotright" horiz-adv-x="561" d="M176 278L37 423L119 493L295 308V249L119 63L37 136L176 278ZM408 278L268 423L350 493L526 308V249L350 63L268 136L408 278Z" />
<glyph unicode="&#xbc;" glyph-name="onequarter" horiz-adv-x="874" d="M847 109H784V0H689V109H525V164L665 408H784V181H847V109ZM689 181V305L623 181H689ZM239 272H136V580L50 544L19 625L162 687H239V272ZM621 765L338 -84L231 -55L516 796L621 765Z" />
<glyph unicode="&#xbd;" glyph-name="onehalf" horiz-adv-x="841" d="M239 272H136V580L50 544L19 625L162 687H239V272ZM533 -2V73Q603 143 658 209Q702 264 702 292Q702 334 659 334Q630 334 572 313L546 390Q614 422 670 422T762 388T797 300Q797 224 691 115Q671
93 665 86H810V-2H533ZM605 765L322 -84L215 -55L500 796L605 765Z" />
<glyph unicode="&#xbe;" glyph-name="threequarters" horiz-adv-x="874" d="M138 460H93V530H137Q184 530 184 578Q184 612 143 612T64 593L38 664Q102 696 157 696T246 666T280 587T245 504Q294 474 294 409T255 304T154 265T25 307L60 381Q111 350 151 350Q173
350 186 364T200 404T184 444T138 460ZM853 109H790V0H695V109H531V164L671 408H790V181H853V109ZM695 181V305L629 181H695ZM629 752L346 -97L239 -68L524 783L629 752Z" />
<glyph unicode="&#xbf;" glyph-name="questiondown" horiz-adv-x="361" d="M323 416T300 394T245 371T190 393T167 448T189 504T244 528T300 505T323 449ZM188 258L190 312H304Q307 276 307 245Q303 212 287 180T255 131T217 92T184 60Q150 26 150 -14Q150 -97
314 -112L289 -204Q164 -198 93 -147T21 -22Q21 19 37 48T66 91T104 126T143 162T171 203T188 258Z" />
<glyph unicode="&#xc0;" glyph-name="Agrave" horiz-adv-x="568" d="M357 732L153 808L202 919L391 810L357 732ZM570 0H428L381 158H188L142 0H-4L208 668H361L570 0ZM350 267L284 530L219 267H350Z" />
<glyph unicode="&#xc1;" glyph-name="Aacute" horiz-adv-x="568" d="M570 0H428L381 158H188L142 0H-4L208 668H361L570 0ZM350 267L284 530L219 267H350ZM456 811L252 735L218 813L407 922L456 811Z" />
<glyph unicode="&#xc2;" glyph-name="Acircumflex" horiz-adv-x="568" d="M570 0H428L381 158H188L142 0H-4L208 668H361L570 0ZM350 267L284 530L219 267H350ZM285 796L201 711L137 763L248 882H322L433 763L369 711L285 796Z" />
<glyph unicode="&#xc3;" glyph-name="Atilde" horiz-adv-x="568" d="M570 0H428L381 158H188L142 0H-4L208 668H361L570 0ZM350 267L284 530L219 267H350ZM244 871T289 850T356 828T408 863L457 809Q439 779 409 757T351 734T279 755T213 777T161 742L112 796Q130
826 159 848T216 871Z" />
<glyph unicode="&#xc4;" glyph-name="Adieresis" horiz-adv-x="568" d="M570 0H428L381 158H188L142 0H-4L208 668H361L570 0ZM350 267L284 530L219 267H350ZM124 814T143 834T192 854T242 834T262 785T242 736T193 715T144 735T124 785ZM308 814T328 834T377
854T426 834T446 785T426 736T377 715T328 735T308 785Z" />
<glyph unicode="&#xc5;" glyph-name="Aring" horiz-adv-x="568" d="M387 859T387 816T360 743T283 712T207 742T181 815T207 887T284 917T360 888ZM284 775Q320 775 320 814T285 853T249 814Q249 798 257 787T284 775ZM570 0H428L381 158H188L142 0H-4L208 668H361L570
0ZM350 267L284 530L219 267H350Z" />
<glyph unicode="&#xc6;" glyph-name="AE" horiz-adv-x="817" d="M361 267V571L244 267H361ZM370 -1V158H201L138 0H-7L281 668H766V552H489V401H750V289H489V115H775V-1H370Z" />
<glyph unicode="&#xc7;" glyph-name="Ccedilla" horiz-adv-x="519" d="M483 5Q404 -13 337 -13T220 4T128 61Q39 144 39 336Q39 431 65 500T136 608Q220 679 339 679Q414 679 490 657L467 554Q410 565 361 565Q280 565 233 515T186 338T234 159T367 106Q426 106
474 114L483 5ZM424 -133Q424 -230 296 -295L245 -230Q303 -187 303 -139Q303 -111 282 -57H406Q424 -96 424 -133Z" />
<glyph unicode="&#xc8;" glyph-name="Egrave" horiz-adv-x="536" d="M208 116H494V0H64V669H485V553H208V402H469V290H208V116ZM354 732L150 808L199 919L388 810L354 732Z" />
<glyph unicode="&#xc9;" glyph-name="Eacute" horiz-adv-x="536" d="M208 116H494V0H64V669H485V553H208V402H469V290H208V116ZM382 811L178 735L144 813L333 922L382 811Z" />
<glyph unicode="&#xca;" glyph-name="Ecircumflex" horiz-adv-x="536" d="M208 116H494V0H64V669H485V553H208V402H469V290H208V116ZM256 796L172 711L108 763L219 882H293L404 763L340 711L256 796Z" />
<glyph unicode="&#xcb;" glyph-name="Edieresis" horiz-adv-x="536" d="M208 116H494V0H64V669H485V553H208V402H469V290H208V116ZM107 814T126 834T175 854T225 834T245 785T225 736T176 715T127 735T107 785ZM291 814T311 834T360 854T409 834T429 785T409 736T360
715T311 735T291 785Z" />
<glyph unicode="&#xcc;" glyph-name="Igrave" horiz-adv-x="272" d="M208 668V0H64V668H208ZM182 732L-22 808L27 919L216 810L182 732Z" />
<glyph unicode="&#xcd;" glyph-name="Iacute" horiz-adv-x="272" d="M208 668V0H64V668H208ZM285 811L81 735L47 813L236 922L285 811Z" />
<glyph unicode="&#xce;" glyph-name="Icircumflex" horiz-adv-x="272" d="M208 668V0H64V668H208ZM132 796L48 711L-16 763L95 882H169L280 763L216 711L132 796Z" />
<glyph unicode="&#xcf;" glyph-name="Idieresis" horiz-adv-x="272" d="M208 668V0H64V668H208ZM-35 814T-16 834T33 854T83 834T103 785T83 736T34 715T-15 735T-35 785ZM149 814T169 834T218 854T267 834T287 785T267 736T218 715T169 735T149 785Z" />
<glyph unicode="&#xd0;" glyph-name="Eth" horiz-adv-x="653" d="M21 280V392H116V667H304Q430 667 480 641Q612 573 612 333Q612 225 581 143T481 27Q427 0 304 0H116V280H21ZM260 538V392H375V280H260V129H310Q405 129 437 178T470 334T438 489T310 538H260Z" />
<glyph unicode="&#xd1;" glyph-name="Ntilde" horiz-adv-x="682" d="M618 0H466L203 467V0H64V668H216L478 200V668H618V0ZM290 871T335 850T402 828T454 863L503 809Q485 779 455 757T397 734T325 755T259 777T207 742L158 796Q176 826 205 848T262 871Z" />
<glyph unicode="&#xd2;" glyph-name="Ograve" horiz-adv-x="618" d="M127 623T181 651T303 680T417 661T495 609T544 532Q579 448 579 334Q579 192 522 96Q492 46 437 17T315 -12T200 7T123 59T74 136Q39 220 39 334Q39 475 97 572Q127 623 181 651ZM236 110T309
110T411 169T440 316T430 450T390 530T316 563T245 546T204 495Q178 434 178 332T207 170ZM386 732L182 808L231 919L420 810L386 732Z" />
<glyph unicode="&#xd3;" glyph-name="Oacute" horiz-adv-x="618" d="M127 623T181 651T303 680T417 661T495 609T544 532Q579 448 579 334Q579 192 522 96Q492 46 437 17T315 -12T200 7T123 59T74 136Q39 220 39 334Q39 475 97 572Q127 623 181 651ZM236 110T309
110T411 169T440 316T430 450T390 530T316 563T245 546T204 495Q178 434 178 332T207 170ZM431 811L227 735L193 813L382 922L431 811Z" />
<glyph unicode="&#xd4;" glyph-name="Ocircumflex" horiz-adv-x="618" d="M127 623T181 651T303 680T417 661T495 609T544 532Q579 448 579 334Q579 192 522 96Q492 46 437 17T315 -12T200 7T123 59T74 136Q39 220 39 334Q39 475 97 572Q127 623 181 651ZM236
110T309 110T411 169T440 316T430 450T390 530T316 563T245 546T204 495Q178 434 178 332T207 170ZM310 796L226 711L162 763L273 882H347L458 763L394 711L310 796Z" />
<glyph unicode="&#xd5;" glyph-name="Otilde" horiz-adv-x="618" d="M127 623T181 651T303 680T417 661T495 609T544 532Q579 448 579 334Q579 192 522 96Q492 46 437 17T315 -12T200 7T123 59T74 136Q39 220 39 334Q39 475 97 572Q127 623 181 651ZM236 110T309
110T411 169T440 316T430 450T390 530T316 563T245 546T204 495Q178 434 178 332T207 170ZM266 868T310 847T378 825T430 860L479 806Q461 776 431 754T373 731T301 752T235 774T183 739L134 793Q152 823 181 845T238 868Z" />
<glyph unicode="&#xd6;" glyph-name="Odieresis" horiz-adv-x="618" d="M127 623T181 651T303 680T417 661T495 609T544 532Q579 448 579 334Q579 192 522 96Q492 46 437 17T315 -12T200 7T123 59T74 136Q39 220 39 334Q39 475 97 572Q127 623 181 651ZM236 110T309
110T411 169T440 316T430 450T390 530T316 563T245 546T204 495Q178 434 178 332T207 170ZM142 814T161 834T210 854T260 834T280 785T260 736T211 715T162 735T142 785ZM326 814T346 834T395 854T444 834T464 785T444 736T395 715T346 735T326 785Z" />
<glyph unicode="&#xd7;" glyph-name="multiply" horiz-adv-x="516" d="M477 152L399 75L259 213L119 73L39 150L179 290L41 427L120 506L257 369L395 506L475 428L338 292L477 152Z" />
<glyph unicode="&#xd8;" glyph-name="Oslash" horiz-adv-x="618" d="M579 334Q579 192 522 96Q492 46 437 17T320 -12T217 0L172 -110L67 -74L122 59Q39 147 39 334Q39 475 97 572Q127 623 181 651T310 680Q348 680 377 673L420 778L523 740L476 626Q579 540 579
334ZM309 110Q382 110 411 169T440 330T418 486L265 117Q283 110 309 110ZM178 325Q178 265 189 220L330 561Q316 563 309 563Q233 563 204 495Q178 434 178 325Z" />
<glyph unicode="&#xd9;" glyph-name="Ugrave" horiz-adv-x="606" d="M59 246V667H204V251Q204 165 224 138Q244 108 303 108T382 139Q402 165 402 251V667H547V246Q547 130 500 64Q440 -10 303 -12Q166 -12 105 64Q59 131 59 246ZM382 732L178 808L227 919L416
810L382 732Z" />
<glyph unicode="&#xda;" glyph-name="Uacute" horiz-adv-x="606" d="M59 246V667H204V251Q204 165 224 138Q244 108 303 108T382 139Q402 165 402 251V667H547V246Q547 130 500 64Q440 -10 303 -12Q166 -12 105 64Q59 131 59 246ZM440 811L236 735L202 813L391
922L440 811Z" />
<glyph unicode="&#xdb;" glyph-name="Ucircumflex" horiz-adv-x="606" d="M59 246V667H204V251Q204 165 224 138Q244 108 303 108T382 139Q402 165 402 251V667H547V246Q547 130 500 64Q440 -10 303 -12Q166 -12 105 64Q59 131 59 246ZM306 796L222 711L158 763L269
882H343L454 763L390 711L306 796Z" />
<glyph unicode="&#xdc;" glyph-name="Udieresis" horiz-adv-x="606" d="M59 246V667H204V251Q204 165 224 138Q244 108 303 108T382 139Q402 165 402 251V667H547V246Q547 130 500 64Q440 -10 303 -12Q166 -12 105 64Q59 131 59 246ZM145 814T164 834T213 854T263
834T283 785T263 736T214 715T165 735T145 785ZM329 814T349 834T398 854T447 834T467 785T447 736T398 715T349 735T329 785Z" />
<glyph unicode="&#xdd;" glyph-name="Yacute" horiz-adv-x="548" d="M346 0H202V264L-8 668H138L274 383L410 668H556L346 264V0ZM413 811L209 735L175 813L364 922L413 811Z" />
<glyph unicode="&#xde;" glyph-name="Thorn" horiz-adv-x="504" d="M484 395Q484 282 419 234Q383 206 334 195T199 183H168V0H64V697H168V597H224Q301 597 346 585T425 542Q484 490 484 395ZM210 276Q308 276 343 301T379 384T348 473T225 504H168V276H210Z" />
<glyph unicode="&#xdf;" glyph-name="germandbls" horiz-adv-x="604" d="M406 420T395 404T384 372T392 344T410 326T443 310T481 293T519 271T554 242Q586 202 586 153Q586 76 537 32T402 -13Q361 -13 307 2T226 37L261 135Q354 96 407 96T460 145Q460 165 439
180T387 209T326 240T275 289T253 360T269 428T305 473Q357 517 357 548Q357 612 288 612Q237 612 214 584T191 493V-129H53V495Q53 609 115 664T284 720T440 675T491 556Q491 505 454 466Q438 449 422 435Z" />
<glyph unicode="&#xe0;" glyph-name="agrave" horiz-adv-x="510" d="M516 17Q465 -11 405 -11T315 35Q257 -13 179 -13T61 26T21 134Q21 179 40 211T89 258Q144 284 203 284T299 281V330Q299 382 278 397T207 412T93 391L64 479Q101 501 154 512T246 524Q348 524
391 481T435 332V122Q435 94 460 94Q473 94 497 100L516 17ZM217 80Q259 80 299 106V211Q271 213 250 213Q151 213 151 149Q151 80 217 80ZM320 587L116 663L165 774L354 665L320 587Z" />
<glyph unicode="&#xe1;" glyph-name="aacute" horiz-adv-x="510" d="M516 17Q465 -11 405 -11T315 35Q257 -13 179 -13T61 26T21 134Q21 179 40 211T89 258Q144 284 203 284T299 281V330Q299 382 278 397T207 412T93 391L64 479Q101 501 154 512T246 524Q348 524
391 481T435 332V122Q435 94 460 94Q473 94 497 100L516 17ZM217 80Q259 80 299 106V211Q271 213 250 213Q151 213 151 149Q151 80 217 80ZM359 663L155 587L121 665L310 774L359 663Z" />
<glyph unicode="&#xe2;" glyph-name="acircumflex" horiz-adv-x="510" d="M239 676L155 591L91 643L202 762H276L387 643L323 591L239 676ZM516 17Q465 -11 405 -11T315 35Q257 -13 179 -13T61 26T21 134Q21 179 40 211T89 258Q144 284 203 284T299 281V330Q299
382 278 397T207 412T93 391L64 479Q101 501 154 512T246 524Q348 524 391 481T435 332V122Q435 94 460 94Q473 94 497 100L516 17ZM217 80Q259 80 299 106V211Q271 213 250 213Q151 213 151 149Q151 80 217 80Z" />
<glyph unicode="&#xe3;" glyph-name="atilde" horiz-adv-x="510" d="M516 17Q465 -11 405 -11T315 35Q257 -13 179 -13T61 26T21 134Q21 179 40 211T89 258Q144 284 203 284T299 281V330Q299 382 278 397T207 412T93 391L64 479Q101 501 154 512T246 524Q348 524
391 481T435 332V122Q435 94 460 94Q473 94 497 100L516 17ZM217 80Q259 80 299 106V211Q271 213 250 213Q151 213 151 149Q151 80 217 80ZM196 728T241 707T309 685T361 720L410 666Q392 636 362 614T304 591T232 612T166 634T114 599L65 653Q83 683 112 705T169
728Z" />
<glyph unicode="&#xe4;" glyph-name="adieresis" horiz-adv-x="510" d="M516 17Q465 -11 405 -11T315 35Q257 -13 179 -13T61 26T21 134Q21 179 40 211T89 258Q144 284 203 284T299 281V330Q299 382 278 397T207 412T93 391L64 479Q101 501 154 512T246 524Q348
524 391 481T435 332V122Q435 94 460 94Q473 94 497 100L516 17ZM217 80Q259 80 299 106V211Q271 213 250 213Q151 213 151 149Q151 80 217 80ZM87 695T106 715T155 735T205 715T225 666T205 617T156 596T107 616T87 666ZM271 695T291 715T340 735T389 715T409
666T389 617T340 596T291 616T271 666Z" />
<glyph unicode="&#xe5;" glyph-name="aring" horiz-adv-x="510" d="M516 17Q465 -11 405 -11T315 35Q257 -13 179 -13T61 26T21 134Q21 179 40 211T89 258Q144 284 203 284T299 281V330Q299 382 278 397T207 412T93 391L64 479Q101 501 154 512T246 524Q348 524
391 481T435 332V122Q435 94 460 94Q473 94 497 100L516 17ZM217 80Q259 80 299 106V211Q271 213 250 213Q151 213 151 149Q151 80 217 80ZM346 744T346 701T319 628T242 597T166 627T140 700T166 772T243 802T319 773ZM243 660Q279 660 279 699T244 738T208 699Q208
683 216 672T243 660Z" />
<glyph unicode="&#xe6;" glyph-name="ae" horiz-adv-x="746" d="M430 242Q432 92 562 92Q623 92 683 115L707 20Q630 -13 534 -13T379 43Q350 22 298 5T195 -13Q111 -13 66 26T21 134Q21 179 40 211T89 258Q144 284 207 284T306 281V330Q306 382 285 397T210 412T93
391L64 479Q101 501 154 512T255 524T335 510T388 457Q435 522 526 522T665 475T714 342Q714 300 701 242H430ZM151 149Q151 80 229 80Q303 80 342 106Q323 149 316 211Q288 213 257 213Q151 213 151 149ZM602 318V324Q602 423 529 423Q444 423 427 318H602Z" />
<glyph unicode="&#xe7;" glyph-name="ccedilla" horiz-adv-x="438" d="M353 -133Q353 -230 225 -295L174 -230Q232 -187 232 -139Q232 -111 211 -57H335Q353 -96 353 -133ZM271 -13Q168 -13 100 53T32 254T99 455T271 522Q333 522 412 499L385 398Q324 412 287
412Q228 412 197 377T165 251T199 126T296 91Q328 91 394 101L411 10Q332 -13 271 -13Z" />
<glyph unicode="&#xe8;" glyph-name="egrave" horiz-adv-x="480" d="M334 587L130 663L179 774L368 665L334 587ZM164 242Q166 92 296 92Q357 92 417 115L441 20Q364 -13 270 -13Q33 -13 33 266Q33 376 92 449T262 522Q351 522 399 475T448 342Q448 292 435 242H164ZM336
318V324Q336 423 266 423Q182 423 165 318H336Z" />
<glyph unicode="&#xe9;" glyph-name="eacute" horiz-adv-x="480" d="M377 663L173 587L139 665L328 774L377 663ZM164 242Q166 92 296 92Q357 92 417 115L441 20Q364 -13 270 -13Q33 -13 33 266Q33 376 92 449T262 522Q351 522 399 475T448 342Q448 292 435 242H164ZM336
318V324Q336 423 266 423Q182 423 165 318H336Z" />
<glyph unicode="&#xea;" glyph-name="ecircumflex" horiz-adv-x="480" d="M448 342Q448 292 435 242H164Q166 92 296 92Q357 92 417 115L441 20Q364 -13 270 -13Q33 -13 33 266Q33 376 92 449T262 522Q351 522 399 475T448 342ZM336 318V324Q336 423 266 423Q182
423 165 318H336ZM256 676L172 591L108 643L219 762H293L404 643L340 591L256 676Z" />
<glyph unicode="&#xeb;" glyph-name="edieresis" horiz-adv-x="480" d="M96 695T115 715T164 735T214 715T234 666T214 617T165 596T116 616T96 666ZM280 695T300 715T349 735T398 715T418 666T398 617T349 596T300 616T280 666ZM164 242Q166 92 296 92Q357 92
417 115L441 20Q364 -13 270 -13Q33 -13 33 266Q33 376 92 449T262 522Q351 522 399 475T448 342Q448 292 435 242H164ZM336 318V324Q336 423 266 423Q182 423 165 318H336Z" />
<glyph unicode="&#xec;" glyph-name="igrave" horiz-adv-x="246" d="M185 587L-19 663L30 774L219 665L185 587ZM193 0H53V512L193 524V0Z" />
<glyph unicode="&#xed;" glyph-name="iacute" horiz-adv-x="246" d="M276 663L72 587L38 665L227 774L276 663ZM193 0H53V512L193 524V0Z" />
<glyph unicode="&#xee;" glyph-name="icircumflex" horiz-adv-x="246" d="M127 676L43 591L-21 643L90 762H164L275 643L211 591L127 676ZM193 0H53V512L193 524V0Z" />
<glyph unicode="&#xef;" glyph-name="idieresis" horiz-adv-x="246" d="M-32 695T-13 715T36 735T86 715T106 666T86 617T37 596T-12 616T-32 666ZM152 695T172 715T221 735T270 715T290 666T270 617T221 596T172 616T152 666ZM193 0H53V512L193 524V0Z" />
<glyph unicode="&#xf0;" glyph-name="eth" horiz-adv-x="499" d="M461 132T405 60T246 -12T90 59T35 241T84 405T217 459Q273 459 311 437Q300 524 248 571L174 495L114 553L171 611Q129 623 53 627L71 719Q179 719 254 694L321 764L379 704L332 656Q461 564 461
307Q461 132 405 60ZM169 244Q169 104 246 104Q271 104 287 122Q322 160 322 335Q290 351 240 351Q169 349 169 244Z" />
<glyph unicode="&#xf1;" glyph-name="ntilde" horiz-adv-x="546" d="M226 728T271 707T338 685T390 720L439 666Q421 636 391 614T333 591T261 612T195 634T143 599L94 653Q112 683 141 705T198 728ZM346 522Q433 522 464 478T496 351V0H356V326Q356 365 344 386T283
408T196 371V0H53V513H171L183 456Q212 483 256 502T346 522Z" />
<glyph unicode="&#xf2;" glyph-name="ograve" horiz-adv-x="511" d="M478 116T416 52T253 -13T93 51T33 254T94 457T256 522Q478 522 478 255Q478 116 416 52ZM342 348T320 381T256 414T191 381T168 254Q168 94 255 94Q296 94 319 129T342 256ZM335 587L131 663L180
774L369 665L335 587Z" />
<glyph unicode="&#xf3;" glyph-name="oacute" horiz-adv-x="511" d="M478 116T416 52T253 -13T93 51T33 254T94 457T256 522Q478 522 478 255Q478 116 416 52ZM342 348T320 381T256 414T191 381T168 254Q168 94 255 94Q296 94 319 129T342 256ZM408 663L204 587L170
665L359 774L408 663Z" />
<glyph unicode="&#xf4;" glyph-name="ocircumflex" horiz-adv-x="511" d="M152 -13T93 51T33 254T94 457T256 522Q478 522 478 255Q478 116 416 52T253 -13ZM213 414T191 381T168 254Q168 94 255 94Q296 94 319 129T342 256T320 381T256 414ZM253 676L169 591L105
643L216 762H290L401 643L337 591L253 676Z" />
<glyph unicode="&#xf5;" glyph-name="otilde" horiz-adv-x="511" d="M478 116T416 52T253 -13T93 51T33 254T94 457T256 522Q478 522 478 255Q478 116 416 52ZM342 348T320 381T256 414T191 381T168 254Q168 94 255 94Q296 94 319 129T342 256ZM212 728T257 707T325
685T377 720L426 666Q408 636 378 614T320 591T248 612T182 634T130 599L81 653Q99 683 128 705T185 728Z" />
<glyph unicode="&#xf6;" glyph-name="odieresis" horiz-adv-x="511" d="M478 116T416 52T253 -13T93 51T33 254T94 457T256 522Q478 522 478 255Q478 116 416 52ZM342 348T320 381T256 414T191 381T168 254Q168 94 255 94Q296 94 319 129T342 256ZM92 695T111
715T160 735T210 715T230 666T210 617T161 596T112 616T92 666ZM276 695T296 715T345 735T394 715T414 666T394 617T345 596T296 616T276 666Z" />
<glyph unicode="&#xf7;" glyph-name="divide" horiz-adv-x="537" d="M203 465T222 483T269 501T314 483T333 439T315 392T269 372T223 392T203 438ZM497 332V223H40V332H497ZM203 144T222 162T269 180T314 162T333 118T315 71T269 51T223 71T203 117Z" />
<glyph unicode="&#xf8;" glyph-name="oslash" horiz-adv-x="511" d="M97 45Q33 114 33 253T94 457T256 522Q292 522 327 514L367 597L442 561L401 476Q478 410 478 263T416 52T250 -13Q210 -13 169 0L131 -78L54 -43L97 45ZM255 94Q296 94 319 129T342 237T335
340L219 102Q234 94 255 94ZM256 414Q213 414 191 381T168 254Q168 229 172 197L277 412Q263 414 256 414Z" />
<glyph unicode="&#xf9;" glyph-name="ugrave" horiz-adv-x="543" d="M363 47Q286 -13 200 -13T82 31T50 158V513H190V183Q190 143 202 122T261 101T350 132V513H490V-13H375L363 47ZM310 587L106 663L155 774L344 665L310 587Z" />
<glyph unicode="&#xfa;" glyph-name="uacute" horiz-adv-x="543" d="M363 47Q286 -13 200 -13T82 31T50 158V513H190V183Q190 143 202 122T261 101T350 132V513H490V-13H375L363 47ZM427 663L223 587L189 665L378 774L427 663Z" />
<glyph unicode="&#xfb;" glyph-name="ucircumflex" horiz-adv-x="543" d="M363 47Q286 -13 200 -13T82 31T50 158V513H190V183Q190 143 202 122T261 101T350 132V513H490V-13H375L363 47ZM270 676L186 591L122 643L233 762H307L418 643L354 591L270 676Z" />
<glyph unicode="&#xfc;" glyph-name="udieresis" horiz-adv-x="543" d="M363 47Q286 -13 200 -13T82 31T50 158V513H190V183Q190 143 202 122T261 101T350 132V513H490V-13H375L363 47ZM112 695T131 715T180 735T230 715T250 666T230 617T181 596T132 616T112
666ZM296 695T316 715T365 735T414 715T434 666T414 617T365 596T316 616T296 666Z" />
<glyph unicode="&#xfd;" glyph-name="yacute" horiz-adv-x="502" d="M85 -213Q40 -213 -20 -195L1 -98Q1 -99 31 -103T70 -108Q126 -108 149 -88T192 13L5 500L138 517L253 163L355 513H490L328 42Q276 -108 230 -160T85 -213ZM414 663L210 587L176 665L365 774L414 663Z" />
<glyph unicode="&#xfe;" glyph-name="thorn" horiz-adv-x="542" d="M193 -212H53V701H193V480Q214 497 249 509T321 522Q403 522 456 460T509 281Q509 -13 269 -13Q230 -13 193 3V-212ZM245 100Q314 100 341 142T368 264T347 376T281 408T193 381V105Q220 100 245 100Z" />
<glyph unicode="&#xff;" glyph-name="ydieresis" horiz-adv-x="502" d="M85 -213Q40 -213 -20 -195L1 -98Q1 -99 31 -103T70 -108Q126 -108 149 -88T192 13L5 500L138 517L253 163L355 513H490L328 42Q276 -108 230 -160T85 -213ZM87 695T106 715T155 735T205
715T225 666T205 617T156 596T107 616T87 666ZM271 695T291 715T340 735T389 715T409 666T389 617T340 596T291 616T271 666Z" />
<glyph unicode="&#x2013;" glyph-name="endash" horiz-adv-x="559" d="M508 332V223H51V332H508Z" />
<glyph unicode="&#x2014;" glyph-name="emdash" horiz-adv-x="709" d="M658 332V223H51V332H658Z" />
<glyph unicode="&#x2018;" glyph-name="quoteleft" horiz-adv-x="221" d="M41 533Q41 638 130 720H233Q151 625 151 548Q151 515 168 476H53Q41 502 41 533Z" />
<glyph unicode="&#x2019;" glyph-name="quoteright" horiz-adv-x="254" d="M224 642Q224 537 135 455H32Q114 550 114 627Q114 660 97 699H212Q224 673 224 642Z" />
<glyph unicode="&#x201a;" glyph-name="quotesinglbase" horiz-adv-x="218" d="M172 59Q172 -46 83 -128H-20Q62 -33 62 44Q62 77 45 116H160Q172 90 172 59Z" />
<glyph unicode="&#x201c;" glyph-name="quotedblleft" horiz-adv-x="411" d="M41 533Q41 638 130 720H233Q151 625 151 548Q151 515 168 476H53Q41 502 41 533ZM231 533Q231 638 320 720H423Q341 625 341 548Q341 515 358 476H243Q231 502 231 533Z" />
<glyph unicode="&#x201d;" glyph-name="quotedblright" horiz-adv-x="444" d="M414 642Q414 537 325 455H222Q304 550 304 627Q304 660 287 699H402Q414 673 414 642ZM224 642Q224 537 135 455H32Q114 550 114 627Q114 660 97 699H212Q224 673 224 642Z" />
<glyph unicode="&#x201e;" glyph-name="quotedblbase" horiz-adv-x="408" d="M172 59Q172 -46 83 -128H-20Q62 -33 62 44Q62 77 45 116H160Q172 90 172 59ZM362 59Q362 -46 273 -128H170Q252 -33 252 44Q252 77 235 116H350Q362 90 362 59Z" />
<glyph unicode="&#x2022;" glyph-name="bullet" horiz-adv-x="357" d="M62 264T62 314T95 397T178 431T261 398T295 314T262 231T179 197T96 230Z" />
<glyph unicode="&#x2039;" glyph-name="guilsinglleft" horiz-adv-x="330" d="M293 423L153 278L293 136L211 63L35 249V308L211 493L293 423Z" />
<glyph unicode="&#x203a;" glyph-name="guilsinglright" horiz-adv-x="330" d="M177 278L37 423L119 493L295 308V249L119 63L37 136L177 278Z" />
</font>
</defs>
</svg>
