<?xml version="1.0" standalone="no"?>
<!DOCTYPE svg PUBLIC "-//W3C//DTD SVG 1.1//EN" "http://www.w3.org/Graphics/SVG/1.1/DTD/svg11.dtd">
<svg xmlns="http://www.w3.org/2000/svg">
<defs >
<font id="Halant" horiz-adv-x="528" ><font-face
    font-family="Halant"
    units-per-em="1000"
    panose-1="0 0 5 0 0 0 0 0 0 0"
    ascent="1089"
    descent="-486"
    alphabetic="0" />
<glyph unicode=" " glyph-name="space" horiz-adv-x="250" />
<glyph unicode="!" glyph-name="exclam" horiz-adv-x="466" d="M182 704L246 681L237 207H232L192 227L176 704H182ZM265 73T250 59T214 44T178 58T163 94T177 131T213 146T250 131T265 95Z" />
<glyph unicode="&quot;" glyph-name="quotedbl" horiz-adv-x="356" d="M68 832H147L127 656H88L68 832ZM195 832H274L255 656H215L195 832Z" />
<glyph unicode="#" glyph-name="numbersign" horiz-adv-x="752" d="M454 292L492 486H305L268 292H454ZM708 486H547L510 292H654V239H500L463 49H407L444 239H258L221 49H165L202 239H60V292H212L250 486H114V539H260L297 727H352L316 539H502L539 727H594L558
539H708V486Z" />
<glyph unicode="$" glyph-name="dollar" horiz-adv-x="520" d="M390 605T356 622T275 640T194 612T159 532Q159 482 201 456Q227 440 255 428T309 405T357 381T407 346Q459 305 459 231T413 112T296 61V0H254V61Q146 71 56 155L95 209Q107 192 125 174T186 133T277
110T362 140T398 220T371 296T285 348Q242 365 210 381T171 403T149 420T128 442T114 466Q100 489 100 528Q100 599 148 642T263 690V748H304V688Q387 679 442 628L409 582Q390 605 356 622Z" />
<glyph unicode="%" glyph-name="percent" horiz-adv-x="836" d="M263 49H192L574 698H643L263 49ZM146 536Q146 479 165 445T216 410T268 443T288 536Q288 658 216 658Q146 658 146 536ZM154 705T217 705T312 657T344 536T313 414T219 365T124 416T91 538T122
657ZM554 211Q554 154 573 120T624 86T675 119T695 211Q695 333 623 333Q554 333 554 211ZM561 380T624 380T719 332T751 211T720 90T626 41T531 92T498 213T529 332Z" />
<glyph unicode="&amp;" glyph-name="ampersand" horiz-adv-x="660" d="M266 92Q348 92 410 169Q296 264 215 353Q178 325 160 309T125 268T108 218Q108 161 155 127T266 92ZM334 580T307 605T244 630Q172 630 172 558Q172 505 245 415Q334 480 334 545Q334 580
307 605ZM239 36Q165 36 106 82T46 199Q46 236 67 268T113 320T194 378Q113 476 113 534T159 632T260 672T354 639T393 562T367 482T269 392L266 390Q341 304 444 218Q474 270 512 377H650L634 325H527Q502 252 470 196Q550 128 615 84L563 47Q557 52 514 85T438
146Q356 36 239 36Z" />
<glyph unicode="&apos;" glyph-name="quotesingle" horiz-adv-x="368" d="M154 832H234L214 656H174L154 832Z" />
<glyph unicode="(" glyph-name="parenleft" horiz-adv-x="382" d="M179 405Q179 276 228 151T380 -70L345 -100Q234 -2 174 127T113 405Q113 691 345 896L380 867Q179 680 179 405Z" />
<glyph unicode=")" glyph-name="parenright" horiz-adv-x="367" d="M269 405Q269 256 209 127T37 -100L2 -70Q104 25 153 150T202 405Q202 681 2 867L37 896Q269 691 269 405Z" />
<glyph unicode="*" glyph-name="asterisk" horiz-adv-x="466" d="M171 720Q185 727 205 727T237 724L227 594L334 640Q341 633 347 612T352 577L236 559L325 471Q320 461 305 448T274 429L207 536L148 427Q136 429 119 440T93 465L178 559L58 577Q58 592 64 613T78
640L189 596L171 720Z" />
<glyph unicode="+" glyph-name="plus" horiz-adv-x="601" d="M542 345H332V141H328L269 187V345H88L60 403V407H269V612H273L332 565V407H513L542 350V345Z" />
<glyph unicode="," glyph-name="comma" horiz-adv-x="268" d="M193 26Q193 -50 126 -140L88 -122Q88 -121 95 -111T103 -98T110 -86T117 -73T123 -60T130 -46Q139 -21 139 3Q139 60 79 90V94L109 145Q154 127 173 95T193 26Z" />
<glyph unicode="-" glyph-name="hyphen" horiz-adv-x="552" d="M483 345H88L60 403V407H455L483 350V345Z" />
<glyph unicode="." glyph-name="period" horiz-adv-x="291" d="M168 45T148 45T114 59T100 94T114 129T148 143T182 129T197 95T183 60Z" />
<glyph unicode="/" glyph-name="slash" horiz-adv-x="467" d="M289 742H351L169 23H108L289 742Z" />
<glyph unicode="0" glyph-name="zero" horiz-adv-x="508" d="M125 374Q125 79 258 79Q383 79 383 335Q383 631 249 631Q125 631 125 374ZM460 500T460 354T407 123T254 37T101 122T48 354T101 586T254 673T407 587Z" />
<glyph unicode="1" glyph-name="one" horiz-adv-x="316" d="M35 49Q34 54 34 61T38 78Q86 83 105 92T124 125V589L37 577Q37 592 38 597Q130 649 179 672L195 666V98Q232 81 282 78Q282 61 279 49H35Z" />
<glyph unicode="2" glyph-name="two" horiz-adv-x="452" d="M275 110Q325 110 346 131T375 208Q384 208 396 203Q396 114 381 49H42Q34 78 34 101Q253 341 290 427Q307 467 307 513T279 592T207 625Q114 625 87 518Q71 518 64 520Q64 588 69 629Q143 673 220 673T342
629T387 515T342 384T127 146Q105 122 93 110H275Z" />
<glyph unicode="3" glyph-name="three" horiz-adv-x="452" d="M219 376T260 418T301 515T277 597T210 625Q115 625 89 518Q72 518 66 520Q66 535 66 564T70 629Q148 673 221 673T336 634T378 536T342 433T249 368Q397 332 397 202Q397 129 340 83T199 36T39 100Q45
120 58 128Q112 87 179 87T285 118T323 205Q323 330 156 342V375Q219 376 260 418Z" />
<glyph unicode="4" glyph-name="four" horiz-adv-x="477" d="M288 261V545L86 261H288ZM355 217V92Q382 80 421 77Q421 60 417 49H222Q220 66 225 77Q260 82 274 92T288 125V217H50Q34 234 29 256L316 667H355V261H444Q449 246 449 235T448 217H355Z" />
<glyph unicode="5" glyph-name="five" horiz-adv-x="482" d="M126 386Q187 438 255 438T374 391T426 259T361 105T206 37T44 100Q50 119 64 130Q119 88 190 88T306 135T351 248T319 349T231 385T96 330L78 338L110 650H306Q374 650 391 690Q402 690 412 687Q408
642 390 588H150L126 386Z" />
<glyph unicode="6" glyph-name="six" horiz-adv-x="473" d="M132 182T160 133T239 84T325 126T358 245Q356 301 330 339T256 378Q185 378 135 327Q131 296 131 257Q132 182 160 133ZM428 161T369 100T233 38T107 100Q57 162 57 277T127 500T339 671Q359 657 361
641Q188 552 144 373Q176 408 210 419T285 430Q347 430 387 378Q428 326 428 244Z" />
<glyph unicode="7" glyph-name="seven" horiz-adv-x="412" d="M166 49Q157 48 142 48T105 55L297 493L348 596H147Q97 596 78 583T52 527Q41 527 32 532Q32 605 42 658H375Q391 635 397 610L166 49Z" />
<glyph unicode="8" glyph-name="eight" horiz-adv-x="524" d="M136 135T172 108T265 81T359 112T396 195Q396 252 350 288Q316 314 259 339Q193 298 165 264T136 183ZM146 525Q146 450 278 391Q332 424 357 454T382 525T353 597T267 628T178 601T146 525ZM461
202Q461 138 400 88T258 38T122 81T68 180T105 275T217 356Q159 384 118 425T77 514Q77 583 139 627T278 672T402 630T449 533T417 446T319 374Q461 307 461 202Z" />
<glyph unicode="9" glyph-name="nine" horiz-adv-x="468" d="M217 332Q287 332 337 383Q341 416 341 433Q341 524 312 575T231 626T148 585T115 477T142 371T217 332ZM415 429Q415 315 346 209T137 39Q116 53 114 70Q286 159 329 338Q297 302 263 291T188 280Q127
280 86 332Q44 386 44 467T103 611T238 673T364 612T415 442Q415 436 415 429Z" />
<glyph unicode=":" glyph-name="colon" horiz-adv-x="268" d="M183 528T183 507T169 472T134 458T99 472T85 507T99 542T134 556T169 542ZM183 168T183 148T169 114T134 100T99 114T85 148T99 182T133 197T168 183Z" />
<glyph unicode=";" glyph-name="semicolon" horiz-adv-x="268" d="M183 497T169 483T134 469T99 483T85 517T99 552T134 566T169 552T183 518ZM212 67Q212 -7 145 -98L106 -80Q157 -1 157 45Q157 102 97 131V136L127 187Q172 169 192 137T212 67Z" />
<glyph unicode="&lt;" glyph-name="less" horiz-adv-x="622" d="M129 328L95 384L473 577L516 522L185 354L514 208L495 167L129 328Z" />
<glyph unicode="=" glyph-name="equal" horiz-adv-x="627" d="M533 422H125L97 479V485H505L533 427V422ZM533 261H125L97 318V324H505L533 266V261Z" />
<glyph unicode="&gt;" glyph-name="greater" horiz-adv-x="632" d="M490 416L522 361L144 167L101 222L432 390L103 536L123 577L490 416Z" />
<glyph unicode="?" glyph-name="question" horiz-adv-x="589" d="M293 65T273 65T240 78T227 112T240 146T273 160T307 146T321 112T307 79ZM413 570Q413 619 377 646T278 674T152 626L110 676Q177 731 261 731T407 679T469 553Q469 440 299 381V258H289L247 278V423Q339
460 368 486Q400 515 406 533T413 570Z" />
<glyph unicode="@" glyph-name="at" horiz-adv-x="870" d="M508 132V289Q500 289 492 289Q423 289 381 256T339 168Q339 132 359 112T412 91Q470 91 508 132ZM581 379V148Q581 118 593 104T633 90Q675 90 710 146T746 304Q746 440 670 528T460 616Q306 616 215
512T123 234Q123 99 206 7T448 -85Q447 -96 432 -127Q258 -127 159 -23T60 242Q60 426 171 544T453 663T716 561T810 304Q810 180 750 109T618 37Q534 37 514 101Q457 37 388 37Q334 37 298 71T262 160Q262 240 332 284Q390 322 473 322Q490 322 508 320V370Q508
415 490 436T417 458T308 428L292 447Q363 515 454 515Q514 515 547 479T581 379Z" />
<glyph unicode="A" glyph-name="A" horiz-adv-x="574" d="M174 291H370L270 598L260 555L174 291ZM358 49Q358 66 362 78Q407 85 432 100L381 255H163L110 94Q141 80 185 78Q185 67 181 49H-3Q-3 62 1 78Q34 83 51 96T76 133L254 664Q278 673 319 673L495 134Q504
105 523 93T577 78Q575 58 572 49H358Z" />
<glyph unicode="B" glyph-name="B" horiz-adv-x="557" d="M171 84H279Q351 84 385 120T420 214T386 308T279 345H171V84ZM393 502Q393 559 360 593T255 627H171V380L302 379Q393 409 393 502ZM255 660Q368 660 419 616T471 502Q471 454 445 420T376 368Q434 355
466 312T499 214Q499 144 444 97T281 49H34Q34 70 37 78Q72 83 86 92T100 126V618Q72 630 32 632Q32 651 35 660H255Z" />
<glyph unicode="C" glyph-name="C" horiz-adv-x="580" d="M539 121Q457 37 339 37T138 122T55 349T146 582T369 673Q462 673 525 643Q523 579 509 517Q490 517 487 518Q486 569 453 598T368 627Q263 627 200 553T136 355T199 161T354 90T522 139L539 121Z" />
<glyph unicode="D" glyph-name="D" horiz-adv-x="590" d="M172 84H254Q367 84 426 157T486 355T426 553T252 627H172V84ZM258 660Q397 660 482 580T567 356T484 130T262 49H35Q33 65 38 78Q73 83 87 92T101 126V618Q69 630 32 632Q32 651 35 660H258Z" />
<glyph unicode="E" glyph-name="E" horiz-adv-x="518" d="M174 84H347Q396 84 413 107T436 187Q459 187 466 185Q469 140 469 107T468 49H36Q34 65 39 78Q75 83 88 92T102 126V617Q76 630 33 632Q33 651 36 660H453Q454 639 454 605T449 527Q443 525 421 525Q416
581 399 604T334 627H174V378L338 385H368V337H338L174 341V84Z" />
<glyph unicode="F" glyph-name="F" horiz-adv-x="488" d="M453 660Q454 639 454 605T449 527Q443 525 421 525Q416 581 399 604T334 627H174V358L326 365H360V317H326L174 321V101Q215 86 275 79Q275 61 272 49H34Q32 64 36 79Q73 84 87 94T102 129V617Q76 630
33 632Q33 651 36 660H453Z" />
<glyph unicode="G" glyph-name="G" horiz-adv-x="622" d="M602 352Q603 347 603 339T599 322Q564 316 550 307T536 274V49H499L480 85Q408 37 325 37Q213 37 134 120T55 347T147 582T370 673Q457 673 535 643Q533 581 519 518Q503 518 497 519Q494 571 459 599T371
627Q260 627 198 553T136 352T192 155T339 86Q408 86 469 120V306Q437 319 397 322Q397 340 400 352H602Z" />
<glyph unicode="H" glyph-name="H" horiz-adv-x="641" d="M608 78L607 49H403Q403 70 405 78Q441 83 454 92T468 126V336H174V93Q203 80 241 78Q242 66 238 49H36Q34 65 39 78Q75 83 88 92T102 126V616Q71 629 33 632Q33 651 36 660H239Q239 640 236 632Q202 628
188 618T174 585V374H468V617Q440 628 400 632Q400 652 404 660H606Q608 647 604 632Q568 628 555 619T541 585V93Q569 80 608 78Z" />
<glyph unicode="I" glyph-name="I" horiz-adv-x="275" d="M174 585V93Q203 80 241 78Q241 76 241 70T238 49H36Q34 65 39 78Q75 83 88 92T102 126V616Q71 629 33 632Q33 651 36 660H239Q239 640 236 632Q202 628 188 618T174 585Z" />
<glyph unicode="J" glyph-name="J" horiz-adv-x="265" d="M239 660Q239 640 236 632Q202 628 188 618T174 585V69Q174 -21 133 -73T7 -151Q-5 -132 -6 -131Q61 -94 81 -49T102 67V616Q71 629 33 632Q33 651 36 660H239Z" />
<glyph unicode="K" glyph-name="K" horiz-adv-x="607" d="M102 126V616Q71 629 33 632Q33 651 36 660H239Q239 640 236 632Q202 628 188 618T174 585V364L416 616Q390 630 351 632Q349 650 355 660H553Q553 641 550 632Q491 632 453 593L249 385Q279 380 302 348L455
136Q479 103 499 92T555 79Q555 62 550 49H430L233 317Q221 334 202 337L174 308V93Q203 80 241 78Q242 66 238 49H36Q34 65 39 78Q75 83 88 92T102 126Z" />
<glyph unicode="L" glyph-name="L" horiz-adv-x="522" d="M172 84H357Q405 84 422 106T444 184Q464 184 470 183Q475 135 475 103T474 49H35Q33 65 38 78Q73 83 87 92T101 126V616Q71 629 32 632Q32 651 35 660H237Q239 646 234 632Q200 628 186 618T172 585V84Z" />
<glyph unicode="M" glyph-name="M" horiz-adv-x="808" d="M787 78Q788 72 788 65T786 49H577Q575 65 577 78Q614 83 628 92T642 126L611 586L579 502L399 49H375L206 512L176 598L136 92Q165 80 211 78Q211 67 207 49H15Q15 62 19 78Q90 88 93 131L131 619Q105
628 81 631Q78 645 82 660H219L397 170L592 660H723Q727 643 726 631Q675 626 678 580L715 93Q749 80 787 78Z" />
<glyph unicode="N" glyph-name="N" horiz-adv-x="661" d="M634 660Q634 640 631 632Q562 624 562 578V49H530L203 508L153 584V93Q183 80 228 78Q229 66 225 49H37Q36 54 36 61T39 78Q108 87 108 131V618Q82 630 40 632Q40 650 43 660H180L437 301L517 181V617Q492
628 441 632Q439 646 444 660H634Z" />
<glyph unicode="O" glyph-name="O" horiz-adv-x="659" d="M412 633T323 633T186 560T138 372Q138 362 138 353Q140 210 192 143T335 76T474 147T522 339Q522 489 467 561ZM605 213T530 125T330 36T130 124T56 353T130 583T329 673T529 584T605 354Z" />
<glyph unicode="P" glyph-name="P" horiz-adv-x="519" d="M172 344H263Q337 344 375 383T413 485T376 587T263 626H172V344ZM279 660Q376 660 435 609T495 485T436 361T280 309H172V98Q215 81 270 78Q271 66 267 49H35Q33 65 38 78Q73 83 87 92T101 126V616Q66
631 32 632Q32 651 35 660H279Z" />
<glyph unicode="Q" glyph-name="Q" horiz-adv-x="658" d="M141 215T192 147T335 78T474 150T522 340Q522 484 468 557T323 631T186 556T138 371Q138 362 138 353Q141 215 192 147ZM657 2Q657 -43 633 -85T551 -127Q515 -127 480 -108T421 -64T366 -21T306 -1T262
-19T247 -63Q247 -69 248 -75H233Q220 -49 220 -22Q220 25 264 43Q166 65 111 148T56 363T130 583T329 673T529 584T605 359T538 136T356 30Q386 21 417 0T479 -36T557 -51Q624 -51 643 19L656 16Q657 9 657 2Z" />
<glyph unicode="R" glyph-name="R" horiz-adv-x="566" d="M174 369H255Q391 369 391 497T255 626H174V369ZM556 78Q556 64 553 49H437L318 284Q304 311 289 322T239 334H174V98Q215 81 255 78Q256 63 253 49H36Q34 65 39 78Q75 83 88 92T102 126V616Q69 631 33
632Q33 651 36 660H272Q369 660 419 616T470 505Q470 374 347 343Q373 330 396 287L477 133Q494 101 510 90T556 78Z" />
<glyph unicode="S" glyph-name="S" horiz-adv-x="475" d="M431 211Q431 134 374 87T229 40T58 82Q57 98 57 135T66 229Q77 229 92 226Q92 223 92 220Q92 79 234 79Q290 79 326 110T362 188T332 267T258 321T172 365T99 426T68 518Q68 588 120 629T252 670T410
640Q408 570 399 522Q383 522 377 524Q357 631 247 631Q194 631 164 605T133 534T163 460T238 410T326 367T400 305T431 211Z" />
<glyph unicode="T" glyph-name="T" horiz-adv-x="514" d="M496 632T496 600T493 531Q486 528 468 528Q463 583 444 604T378 626H293V95Q335 80 386 78Q388 63 384 49H127Q125 65 130 78Q184 83 202 92T221 126V626H136Q89 626 70 605T46 528Q28 528 21 531Q18
562 18 594T21 660H493Q496 632 496 600Z" />
<glyph unicode="U" glyph-name="U" horiz-adv-x="653" d="M616 660Q617 656 617 649T614 632Q578 628 565 619T551 585V256Q551 144 491 91T329 37T168 90T107 256V616Q76 629 38 632Q37 636 37 643T41 660H243Q243 640 241 632Q206 628 192 618T178 585V249Q178
163 219 121T329 79T438 121T478 249V617Q450 628 410 632Q410 652 414 660H616Z" />
<glyph unicode="V" glyph-name="V" horiz-adv-x="587" d="M6 631Q3 645 3 651T4 660H197Q200 646 200 631Q160 627 153 621T145 605T150 582L289 212Q302 177 308 150H311L482 616Q449 630 414 631Q414 648 417 660H584Q582 642 579 631Q551 627 535 617T509 581L308
43H281L60 619Q28 630 6 631Z" />
<glyph unicode="W" glyph-name="W" horiz-adv-x="873" d="M7 631Q5 644 5 650T5 660H203Q208 648 208 631Q165 627 157 620T148 603T151 582L256 228Q267 193 271 162H274L452 629H477L622 218Q632 187 635 158H637L773 614Q746 628 717 631Q719 648 723 660H868Q869
652 865 631Q835 625 822 615T800 576L635 43H609L444 509L262 43H237L62 618Q30 630 7 631Z" />
<glyph unicode="X" glyph-name="X" horiz-adv-x="599" d="M567 78Q570 64 570 58T570 49H384Q380 56 380 78Q420 82 428 91T423 119L286 314L129 92Q160 79 194 78Q195 64 192 49H30Q29 62 34 78Q58 81 73 91T108 126L262 348L69 624Q44 630 31 631Q27 642 27
649T29 660H216Q220 648 220 632Q180 628 171 619T176 591L310 399L471 618Q439 629 406 632Q404 646 408 660H570Q570 644 566 632Q542 629 527 619T493 585L333 367L529 87Q546 82 567 78Z" />
<glyph unicode="Y" glyph-name="Y" horiz-adv-x="565" d="M568 660Q568 648 565 631Q537 627 523 617T492 581L317 301V92Q350 79 387 78Q387 62 384 49H175Q174 64 177 78Q213 83 227 92T241 126V291L52 620Q23 630 0 631Q-4 653 -4 660H198Q203 645 203 631Q161
627 151 616Q147 611 147 603T155 579L293 330H295Q302 355 319 381L468 619Q439 630 407 631Q407 648 410 660H568Z" />
<glyph unicode="Z" glyph-name="Z" horiz-adv-x="538" d="M366 89Q413 89 432 108T460 180Q473 180 480 176Q480 104 471 49H59Q51 63 51 84L398 622H184Q138 622 118 602T90 529Q81 529 69 534Q69 601 79 660H476Q481 649 481 626L136 89H366Z" />
<glyph unicode="[" glyph-name="bracketleft" horiz-adv-x="368" d="M150 788V-23H282L322 -81H135L84 -23V847H282L322 788H150Z" />
<glyph unicode="\" glyph-name="backslash" horiz-adv-x="461" d="M108 742H170L351 23H290L108 742Z" />
<glyph unicode="]" glyph-name="bracketright" horiz-adv-x="329" d="M218 -23V788H85L46 847H233L284 788V-81H85L46 -23H218Z" />
<glyph unicode="^" glyph-name="asciicircum" horiz-adv-x="453" d="M256 643L418 286Q395 275 366 273L227 580L88 273Q65 274 42 286L204 643Q217 646 230 646L256 643Z" />
<glyph unicode="_" glyph-name="underscore" horiz-adv-x="552" d="M483 98H88L60 156V160H455L483 103V98Z" />
<glyph unicode="`" glyph-name="grave" horiz-adv-x="194" d="M74 726L184 560L163 547L10 683V694Q35 719 74 726Z" />
<glyph unicode="a" glyph-name="a" horiz-adv-x="465" d="M121 168Q121 131 142 111T200 90Q255 90 292 130V293L221 275Q121 248 121 168ZM364 37Q338 37 319 51T294 92Q244 37 182 37T82 72T45 164Q45 274 197 307L292 328V372Q292 417 274 438T204 459T84 435L71
455Q145 516 237 516Q298 516 331 480T365 380V143Q365 113 372 101T394 89T433 94L439 82Q405 37 364 37Z" />
<glyph unicode="b" glyph-name="b" horiz-adv-x="513" d="M148 106Q191 82 250 82T349 134T389 283T355 424T273 468T191 434T148 332V106ZM284 516Q359 516 414 456T470 284T403 104T240 37Q175 37 117 75Q98 52 66 38L54 49Q76 99 76 160V699Q66 700 48 700T6
699Q6 717 11 727Q78 754 148 764V408Q166 460 202 488T284 516Z" />
<glyph unicode="c" glyph-name="c" horiz-adv-x="452" d="M417 110Q339 37 250 37T101 100T41 271T106 447T273 516Q353 516 408 477Q408 425 399 369L378 372Q378 420 347 447T267 475Q200 475 160 422T119 278T158 136T265 84T404 126L417 110Z" />
<glyph unicode="d" glyph-name="d" horiz-adv-x="534" d="M286 468Q119 468 119 280Q119 182 154 136T252 89T354 125V461Q325 468 286 468ZM425 37Q401 37 383 51T357 89Q305 37 229 37T98 97T44 270T120 450T309 516Q332 516 354 513V699Q344 700 326 700T284
699Q284 716 288 727Q357 754 426 764V143Q426 113 433 101T454 89T494 94L501 82Q465 37 425 37Z" />
<glyph unicode="e" glyph-name="e" horiz-adv-x="471" d="M354 414T324 445T252 476T172 442T124 340L240 348L355 349Q354 414 324 445ZM119 284Q119 191 157 141T270 90T416 138L425 120Q352 37 246 37Q171 37 110 92Q79 120 61 165T42 268Q42 385 110 450T256
516T382 467T431 325Q425 314 420 307H120Q119 300 119 284Z" />
<glyph unicode="f" glyph-name="f" horiz-adv-x="302" d="M96 565Q96 662 142 710T249 759T356 714Q355 671 344 624Q336 624 315 627Q315 632 315 637Q315 717 251 717Q168 717 168 602V498Q227 498 309 505Q309 476 302 458H168V100Q215 82 272 79Q274 63 270
49H27Q26 54 26 62T30 79Q67 84 81 94T96 129V457Q68 461 31 461Q31 472 33 482Q68 494 96 498V565Z" />
<glyph unicode="g" glyph-name="g" horiz-adv-x="503" d="M197 226T244 226T318 258T346 342Q346 414 314 450T235 486T160 453T132 364Q132 296 164 261ZM128 47Q81 13 81 -34T121 -107T240 -133T374 -94T429 -9Q429 45 369 45L165 44Q144 44 128 47ZM374 105Q430
105 460 80T491 12Q490 -62 408 -125T218 -188Q134 -188 84 -152T33 -50T100 56Q53 79 53 135T129 225Q55 269 55 356Q55 429 108 472T235 516T357 482Q416 524 497 524Q498 520 498 510T493 471L384 459Q422 418 422 351T370 240T239 196Q197 196 158 210Q109
187 109 152Q109 131 125 117T176 103L370 105Q372 105 374 105Z" />
<glyph unicode="h" glyph-name="h" horiz-adv-x="555" d="M460 367V94Q492 82 530 79Q530 65 528 49H324Q323 61 325 79Q361 83 374 93T388 128V361Q388 410 365 436T301 462Q214 462 171 358V94Q199 82 239 79Q239 61 236 49H31Q29 64 33 79Q70 83 84 93T99 128V696Q70
697 54 697T29 697Q29 708 33 724Q105 751 171 760V413Q223 516 326 516Q385 516 422 478T460 367Z" />
<glyph unicode="i" glyph-name="i" horiz-adv-x="277" d="M156 600T134 600T96 616T80 654T96 692T134 708T171 693T187 655T172 616ZM99 128V445Q83 446 66 446T29 445Q29 455 33 473Q103 499 171 510V94Q199 82 239 79Q239 61 236 49H31Q29 64 33 79Q70 83 84
93T99 128Z" />
<glyph unicode="j" glyph-name="j" horiz-adv-x="258" d="M99 51V445Q83 446 66 446T29 445Q29 455 33 473Q103 499 171 510V58Q171 -119 -7 -174L-17 -152Q52 -115 75 -69T99 51ZM112 708T134 708T171 693T187 655T172 616T134 600T96 616T80 654T96 692Z" />
<glyph unicode="k" glyph-name="k" horiz-adv-x="532" d="M99 128V699Q88 700 71 700T29 699Q29 711 33 727Q99 754 171 764V268L367 457Q333 464 302 480Q302 495 305 504H504Q504 486 501 473Q440 473 401 435L277 318Q295 310 314 285L424 138Q449 105 469
93T524 79Q525 67 520 49H402L247 257Q238 269 231 273L171 216V94Q199 82 239 79Q239 61 236 49H31Q29 64 33 79Q70 83 84 93T99 128Z" />
<glyph unicode="l" glyph-name="l" horiz-adv-x="276" d="M99 128V699Q88 700 71 700T29 699Q29 711 33 727Q99 754 171 764V94Q199 82 239 79Q239 61 236 49H31Q29 64 33 79Q70 83 84 93T99 128Z" />
<glyph unicode="m" glyph-name="m" horiz-adv-x="844" d="M750 367V94Q781 82 820 79Q820 61 817 49H613Q611 64 615 79Q651 83 664 93T677 128V361Q677 410 654 436T591 462Q503 462 460 358V94Q488 82 528 79Q528 61 525 49H324Q323 61 325 79Q361 83 374 93T388
128V361Q388 410 365 436T301 462Q214 462 171 358V94Q199 82 239 79Q239 61 236 49H31Q29 64 33 79Q70 83 84 93T99 128V446Q70 447 54 447T29 447Q29 459 33 473Q99 499 163 510Q169 472 171 412Q222 516 326 516Q376 516 411 488T457 406Q508 516 615 516Q674
516 712 478T750 367Z" />
<glyph unicode="n" glyph-name="n" horiz-adv-x="553" d="M460 367V94Q492 82 530 79Q530 65 528 49H324Q323 61 325 79Q361 83 374 93T388 128V361Q388 410 365 436T301 462Q214 462 171 358V94Q199 82 239 79Q239 61 236 49H31Q29 64 33 79Q70 83 84 93T99 128V446Q70
447 54 447T29 447Q29 459 33 473Q99 499 163 510Q169 472 171 412Q222 516 326 516Q385 516 422 478T460 367Z" />
<glyph unicode="o" glyph-name="o" horiz-adv-x="509" d="M192 79T259 79T357 129T389 265Q389 367 353 422T251 478T152 426T119 286Q119 186 155 133ZM352 516T409 451T467 277T408 103T252 37T98 102T42 276T101 450T256 516Z" />
<glyph unicode="p" glyph-name="p" horiz-adv-x="530" d="M252 82Q316 82 361 134T406 283T372 424T293 468T217 441T171 362V98Q209 82 252 82ZM97 -96V446Q68 447 52 447T28 447Q30 466 33 473Q98 499 160 510Q168 474 170 425Q206 516 300 516Q375 516 430
456T486 283T414 104T242 37Q206 37 171 49V-123Q211 -141 265 -146Q265 -168 263 -176H29Q27 -159 32 -146Q69 -141 83 -131T97 -96Z" />
<glyph unicode="q" glyph-name="q" horiz-adv-x="512" d="M285 468Q208 468 164 423T119 280T154 136T252 89T354 125V454Q319 468 285 468ZM426 522V-130Q457 -143 496 -146Q496 -149 496 -155T493 -176H259Q257 -159 260 -146Q314 -142 334 -129T354 -89V86Q301
37 227 37T98 97T44 270T119 450T305 516Q349 516 389 497Q405 514 416 522H426Z" />
<glyph unicode="r" glyph-name="r" horiz-adv-x="353" d="M171 385V378Q195 440 243 478T346 516Q351 504 351 487T344 445Q261 445 208 390Q178 357 171 308V100Q216 82 276 79Q276 60 272 49H31Q30 61 32 79Q70 84 84 94T99 129V446Q70 447 54 447T29 447Q29
459 33 473Q99 499 163 510Q171 459 171 385Z" />
<glyph unicode="s" glyph-name="s" horiz-adv-x="417" d="M246 75T275 96T304 149T280 201T221 238T152 271T93 318T69 388Q69 451 114 483T222 516T344 496Q345 479 345 450T339 383Q331 383 316 386Q317 396 317 405Q317 480 226 480Q186 480 161 459T135 406T159
352T219 315T290 283T350 238T375 171Q375 108 324 73T197 37T57 58Q55 81 55 111T61 179Q70 179 84 177Q84 171 84 165Q84 118 115 97T196 75Z" />
<glyph unicode="t" glyph-name="t" horiz-adv-x="354" d="M204 37Q156 37 125 66T93 155V457Q65 461 28 461Q28 464 28 469T29 482Q64 494 93 498L150 622L166 617V498Q242 500 306 505Q306 478 298 458H166V165Q166 94 224 94Q273 94 318 131L330 118Q277 37 204 37Z" />
<glyph unicode="u" glyph-name="u" horiz-adv-x="542" d="M438 423V108Q480 106 503 106Q504 95 504 89T504 80Q447 52 375 44Q368 81 366 146Q305 37 212 37Q155 37 116 77T77 191V447Q64 448 50 448T18 447Q18 458 22 474Q95 505 149 511V197Q149 148 172 120T234
92T306 118T366 194V415Q366 462 338 480Q340 491 343 495Q380 511 431 511Q436 511 442 511Q438 475 438 423Z" />
<glyph unicode="v" glyph-name="v" horiz-adv-x="499" d="M-4 474Q-6 486 -6 493T-6 504H201Q204 495 204 474Q157 470 134 458L263 96Q267 116 277 145L377 412Q385 427 385 437T380 454Q368 470 317 474Q311 487 313 504H510Q511 494 505 474Q475 471 443 459L279
43H222L70 419Q58 448 44 459T-4 474Z" />
<glyph unicode="w" glyph-name="w" horiz-adv-x="751" d="M733 504Q734 499 734 491T730 473Q701 468 686 461L521 43H492L374 370L242 43H213L65 462Q44 472 21 473Q19 487 19 494T20 504H210Q213 489 213 473Q173 469 163 459T152 440T155 423L234 192Q242 170
246 147H248L377 484H406L509 192Q518 169 522 147H524L622 413Q628 430 628 441T619 461T563 473Q561 493 563 504H733Z" />
<glyph unicode="x" glyph-name="x" horiz-adv-x="509" d="M498 79Q500 67 500 60T500 49H303Q300 63 300 79Q340 82 359 90L241 243L119 89Q139 82 175 79Q177 63 175 49H8Q10 69 12 79Q41 81 59 92T100 128L219 272L109 415Q70 466 11 474Q7 484 7 491T8 504H211Q214
495 214 474Q171 470 157 464L271 315L390 463Q370 471 333 474Q331 492 334 504H499Q501 487 495 474Q466 472 448 461T409 424L293 285L403 141Q429 107 448 95T498 79Z" />
<glyph unicode="y" glyph-name="y" horiz-adv-x="505" d="M112 -176H99Q89 -151 89 -134T91 -106H110Q142 -106 160 -93T197 -43L233 34L77 419Q66 448 52 459T4 474Q2 486 2 493T2 504H208Q212 492 212 474Q166 470 142 460L269 112Q272 128 280 148L384 412Q390
427 390 438T384 456Q371 470 323 474Q319 494 321 504H504Q505 490 499 474Q479 471 454 464L237 -54Q210 -119 182 -147T112 -176Z" />
<glyph unicode="z" glyph-name="z" horiz-adv-x="450" d="M283 86Q332 86 353 107T384 183Q396 183 405 179Q405 174 405 145T395 49H45Q43 56 43 66T47 89L321 468H180Q131 468 110 446T79 369Q68 369 58 375Q58 441 68 504H403Q406 492 406 482T402 462L134 86H283Z" />
<glyph unicode="{" glyph-name="braceleft" horiz-adv-x="535" d="M232 526Q232 475 219 452T164 416Q205 403 218 380T232 306Q232 294 228 248T224 169T226 115T240 71T272 34Q318 5 422 3V-44Q416 -44 410 -44Q258 -44 208 8Q180 37 170 73T160 151T164 242T169
319T155 368T94 393V439Q140 442 154 463T169 512T165 589T160 680T170 758Q193 841 288 863Q336 874 410 874Q416 874 422 874V829Q320 827 272 797Q252 784 241 761T227 718T224 664T228 584T232 526Z" />
<glyph unicode="|" glyph-name="bar" horiz-adv-x="323" d="M132 742H193V23H132V742Z" />
<glyph unicode="}" glyph-name="braceright" horiz-adv-x="536" d="M305 306Q305 357 317 380T371 416Q330 427 318 451T305 526Q305 538 309 584T313 667T308 729T283 779Q247 827 114 829V874Q120 874 126 874Q279 874 328 822Q355 794 365 759T375 681T371
589T366 512T381 463T443 439V393Q396 389 381 368T366 319T370 242T375 151T365 73Q342 -10 248 -32Q200 -44 126 -44Q120 -44 114 -44V3Q247 5 283 52Q302 77 307 102T313 164T309 248T305 306Z" />
<glyph unicode="~" glyph-name="asciitilde" horiz-adv-x="497" d="M167 379Q201 379 262 341T352 302Q405 302 420 383H448Q443 322 413 284T338 245T232 283T144 322Q91 322 76 244H48Q53 305 84 342T167 379Z" />
<glyph unicode="&#xa0;" glyph-name="nbsp" horiz-adv-x="250" />
<glyph unicode="&#xa1;" glyph-name="exclamdown" horiz-adv-x="466" d="M163 607T177 621T213 636T250 622T265 586T250 549T214 534T178 549T163 585ZM246 -1L182 -24H176L192 453L232 473H237L246 -1Z" />
<glyph unicode="&#xa2;" glyph-name="cent" horiz-adv-x="440" d="M274 82H235V144Q159 150 109 197T58 328T108 465T235 522V583H274V520Q340 512 383 478L353 432Q314 478 255 478T159 441T121 335T165 228T271 188T376 228L397 211Q385 190 352 169T274 144V82Z" />
<glyph unicode="&#xa3;" glyph-name="sterling" horiz-adv-x="619" d="M541 177Q544 169 544 153T543 125T536 100T521 74Q499 49 456 49T351 61T268 73T229 71T198 66T173 60T153 54T142 50L114 72Q146 98 166 148T186 243T177 338H63V344L79 376H169Q156 437
156 476Q157 561 205 612T333 663Q388 663 420 650T466 628Q499 610 506 603L478 555Q455 582 420 600T350 618Q287 618 253 585T219 500T235 376H415V370L395 338H243Q249 298 249 280Q249 172 197 109Q242 127 283 127T382 113T465 99Q520 99 520 176H526Q530
176 541 177Z" />
<glyph unicode="&#xa4;" glyph-name="currency" horiz-adv-x="454" d="M187 247T226 247T293 276T321 365T294 453T227 482T160 453T132 365T159 277ZM351 452Q375 415 375 365T351 276L403 224Q392 202 367 188L316 239Q276 210 226 210T137 238L86 189Q63 201
51 224L102 275Q78 313 78 364T103 453L50 505Q62 529 86 541L137 490Q175 519 226 519T316 489L368 541Q391 528 404 505L351 452Z" />
<glyph unicode="&#xa5;" glyph-name="yen" horiz-adv-x="600" d="M488 376V370L468 339H335V280H488V274L468 243H335V49H264V243H116V249L132 280H264V339H116V346L132 376H250L79 646L139 661L298 393Q448 655 450 657H523L350 376H488Z" />
<glyph unicode="&#xa6;" glyph-name="brokenbar" horiz-adv-x="325" d="M132 309H193V23H132V309ZM193 456H132V742H193V456Z" />
<glyph unicode="&#xa7;" glyph-name="section" horiz-adv-x="920" d="M153 263Q153 232 167 217T190 195T217 178T246 163Q282 146 311 134Q379 160 379 226Q379 251 370 270T336 307T298 330T261 347T233 360Q153 331 153 263ZM451 -25Q451 -97 394 -140T250
-183T78 -145Q78 -135 78 -104T86 -8Q102 -8 112 -11Q111 -85 148 -116T248 -148T346 -119T383 -46T353 26T279 73T192 111T118 166T87 248T114 330T185 382Q138 407 112 439T85 521Q85 589 136 629T262 670T414 642Q414 599 403 533Q387 533 381 535Q366 634 259
634Q209 634 180 607T150 538T180 470T255 426T343 388T417 332T448 245Q448 152 358 111Q451 59 451 -25Z" />
<glyph unicode="&#xa8;" glyph-name="dieresis" horiz-adv-x="237" d="M202 653T214 641T227 610T215 579T185 566T155 578T143 609T155 640T184 653ZM70 653T82 641T95 610T83 579T52 566T22 578T10 609T22 640T52 653Z" />
<glyph unicode="&#xa9;" glyph-name="copyright" horiz-adv-x="771" d="M466 159T388 159T258 215T206 366T262 521T407 582Q464 582 512 559Q512 519 499 473Q490 470 477 472Q477 506 458 524T406 542Q342 542 306 495T270 369T305 247T397 203T505 237L524
219Q466 159 388 159ZM719 517T719 366T625 125T386 34T147 124T52 366T146 607T385 697T624 607ZM96 504T96 366T179 149T386 69T592 148T675 366T593 583T386 662T179 583Z" />
<glyph unicode="&#xaa;" glyph-name="ordfeminine" horiz-adv-x="333" d="M200 488Q85 488 85 416Q85 395 98 382T137 369Q181 369 212 399V488Q206 488 200 488ZM262 331Q219 331 213 373Q171 331 119 331Q82 331 57 353T31 413Q31 469 85 494Q127 513 180 513Q196
513 212 511V565Q212 596 198 611T143 626T61 604L53 619Q100 667 167 667Q213 667 237 642T262 571V406Q262 367 285 367Q294 367 311 372L315 363Q291 331 262 331Z" />
<glyph unicode="&#xab;" glyph-name="guillemotleft" horiz-adv-x="604" d="M122 375L282 557L316 540L191 375L316 210L282 192L122 375ZM283 375L443 557L477 540L352 375L477 210L443 192L283 375Z" />
<glyph unicode="&#xac;" glyph-name="logicalnot" horiz-adv-x="593" d="M511 470V293Q500 291 489 291T466 293V411H74Q70 424 70 439T74 470H511Z" />
<glyph unicode="&#xae;" glyph-name="registered" horiz-adv-x="762" d="M320 377H371Q418 377 441 398T465 459Q465 542 371 542H320V377ZM555 201Q555 184 553 178H480L390 321Q377 346 353 346H320V214Q349 203 382 201Q384 191 381 178H233Q230 194 236 201Q259
204 267 210T276 232V542Q256 551 231 553Q231 566 234 573H381Q442 573 478 540T515 463T488 389T414 349Q421 344 438 321L494 237Q518 201 555 201ZM262 69T381 69T579 148T659 366T580 583T381 662T183 583T103 366T182 149ZM241 697T381 697T611 607T702 366T612
125T381 34T151 124T60 366T150 607Z" />
<glyph unicode="&#xaf;" glyph-name="overscore" horiz-adv-x="247" d="M10 559V594H237V559H10Z" />
<glyph unicode="&#xb0;" glyph-name="degree" horiz-adv-x="308" d="M278 511T243 478T154 445T65 478T30 570T65 662T153 696T242 663T278 570ZM182 663T153 663T107 641T89 571T107 502T153 479T200 501T219 571T201 640Z" />
<glyph unicode="&#xb1;" glyph-name="plusminus" horiz-adv-x="596" d="M60 251H513L542 193V189H88L60 247V251ZM542 396H332V280H328L269 327V396H88L60 454V458H269V574H273L332 528V458H513L542 400V396Z" />
<glyph unicode="&#xb2;" glyph-name="twosuperior" horiz-adv-x="244" d="M147 385Q172 385 183 396T199 436Q210 436 215 434Q215 388 208 350H28Q23 365 23 381Q111 481 137 521T164 592Q164 645 116 645T55 595Q41 595 37 596Q37 603 37 618T42 653Q80 678
121 678T186 655T210 594T183 519T64 385H147Z" />
<glyph unicode="&#xb3;" glyph-name="threesuperior" horiz-adv-x="228" d="M156 598Q156 651 111 651Q85 651 70 641T49 600Q36 600 32 602Q32 634 35 659Q76 682 115 682T176 662T199 610T181 556T133 522Q207 504 207 434Q207 397 178 373T101 349T20 379Q29
405 32 407Q62 382 96 382T148 396T167 440Q167 497 79 503V533Q115 535 135 552T156 598Z" />
<glyph unicode="&#xb4;" glyph-name="acute" horiz-adv-x="193" d="M10 557L119 723Q156 718 183 691V680L31 544L10 557Z" />
<glyph unicode="&#xb5;" glyph-name="uni00B5" horiz-adv-x="550" d="M446 430V108Q488 106 511 106Q512 95 512 89T512 80Q444 55 383 44Q376 81 374 146Q313 37 220 37Q185 37 157 51V-91Q135 -96 117 -96T85 -91V453Q56 454 40 454T15 454Q15 464 19 480Q88
507 157 517V130Q187 92 243 92Q280 92 315 119T374 196V421Q374 468 346 486Q348 495 351 502Q389 517 435 517Q442 517 450 517Q446 481 446 430Z" />
<glyph unicode="&#xb6;" glyph-name="paragraph" horiz-adv-x="511" d="M212 660H426V49H375V611H302V49H250V269H212Q130 269 83 324T35 464T82 605T212 660Z" />
<glyph unicode="&#xb7;" glyph-name="middot" horiz-adv-x="280" d="M160 339T140 339T106 353T92 388T106 423T140 437T174 423T189 389T175 354Z" />
<glyph unicode="&#xb8;" glyph-name="cedilla" horiz-adv-x="257" d="M164 -21Q205 -21 226 -38T247 -86T214 -142T125 -167T10 -137L25 -118Q70 -140 117 -140Q190 -140 190 -88Q190 -48 132 -48Q122 -48 94 -52L117 61H174L157 -21H164Z" />
<glyph unicode="&#xb9;" glyph-name="onesuperior" horiz-adv-x="175" d="M22 350Q22 370 24 375Q50 377 60 382T70 398V626L24 620Q22 631 24 640Q91 676 98 679L111 675V385Q131 376 156 375Q156 354 154 350H22Z" />
<glyph unicode="&#xba;" glyph-name="ordmasculine" horiz-adv-x="368" d="M138 360T187 360T260 395T284 489Q284 561 257 600T180 639Q179 639 178 639Q131 639 107 602T83 503Q83 501 83 498Q85 434 111 397ZM253 667T295 621T338 499T294 378T182 331T72 377T30
498T73 620T185 667Z" />
<glyph unicode="&#xbb;" glyph-name="guillemotright" horiz-adv-x="609" d="M128 540L161 557L322 375L161 192L128 210L253 375L128 540ZM293 540L326 557L486 375L326 192L293 210L417 375L293 540Z" />
<glyph unicode="&#xbc;" glyph-name="onequarter" horiz-adv-x="701" d="M64 273Q63 278 63 285T67 300Q99 303 111 308T123 329V621L67 614Q65 623 67 633Q130 668 159 682L171 677V313Q196 301 228 300Q228 284 225 273H64ZM486 701H523L199 11H162L486 701ZM541
187V365L415 187H541ZM584 152V85Q601 77 627 75Q627 59 625 49H498Q496 64 500 75Q524 78 532 83T541 105V152H386Q379 160 372 183L559 450H584V187H642Q645 176 645 167T644 152H584Z" />
<glyph unicode="&#xbd;" glyph-name="onehalf" horiz-adv-x="761" d="M64 273Q63 278 63 285T67 300Q99 303 111 308T123 329V621L67 614Q65 623 67 633Q130 668 159 682L171 677V313Q196 301 228 300Q228 284 225 273H64ZM494 701H531L199 11H162L494 701ZM596
89Q628 89 641 103T661 153Q672 153 679 150Q679 89 670 48H448Q443 68 443 83Q554 209 587 259T621 345T603 399T556 418Q496 418 479 356Q465 356 461 357Q461 366 461 385T466 424Q518 456 566 456T644 427T674 351T641 258T490 89H596Z" />
<glyph unicode="&#xbe;" glyph-name="threequarters" horiz-adv-x="743" d="M236 586Q236 653 177 653T101 585Q87 585 83 587Q83 625 86 658Q136 687 184 687T259 662T286 597T262 529T201 488Q299 466 299 380Q299 334 263 304T170 273T67 311Q76 336 82 339Q122
308 163 308T227 327T250 385T224 442T142 465V498Q184 499 210 524T236 586ZM533 701H571L246 11H210L533 701ZM582 187V363L457 187H582ZM626 152V85Q644 77 669 75Q669 59 667 49H540Q538 60 541 75Q565 78 573 83T582 105V152H428Q421 160 414 183L601 450H626V187H684Q687
176 687 167T686 152H626Z" />
<glyph unicode="&#xbf;" glyph-name="questiondown" horiz-adv-x="589" d="M285 631T305 631T338 618T351 584T338 550T305 536T271 550T257 584T271 617ZM165 126Q165 77 201 50T300 22T426 70L468 20Q401 -35 317 -35T171 17T109 143Q109 256 279 315V438H289L331
418V273Q239 236 210 210Q178 181 172 163T165 126Z" />
<glyph unicode="&#xc0;" glyph-name="Agrave" horiz-adv-x="574" d="M316 766L295 753L142 889V900Q167 925 206 932L316 766ZM174 340H370L270 647L260 604L174 340ZM358 98Q358 115 362 127Q407 134 432 149L381 304H163L110 143Q141 129 185 127Q185 116 181
98H-3Q-3 111 1 127Q34 132 51 145T76 182L254 713Q278 722 319 722L495 183Q504 154 523 142T577 127Q575 107 572 98H358Z" />
<glyph unicode="&#xc1;" glyph-name="Aacute" horiz-adv-x="574" d="M448 885L296 749L275 762L384 928Q421 923 448 896V885ZM174 340H370L270 647L260 604L174 340ZM358 98Q358 115 362 127Q407 134 432 149L381 304H163L110 143Q141 129 185 127Q185 116 181
98H-3Q-3 111 1 127Q34 132 51 145T76 182L254 713Q278 722 319 722L495 183Q504 154 523 142T577 127Q575 107 572 98H358Z" />
<glyph unicode="&#xc2;" glyph-name="Acircumflex" horiz-adv-x="574" d="M286 827L167 753L148 772L269 887H304L424 772L407 753L286 827ZM174 340H370L270 647L260 604L174 340ZM358 98Q358 115 362 127Q407 134 432 149L381 304H163L110 143Q141 129 185 127Q185
116 181 98H-3Q-3 111 1 127Q34 132 51 145T76 182L254 713Q278 722 319 722L495 183Q504 154 523 142T577 127Q575 107 572 98H358Z" />
<glyph unicode="&#xc3;" glyph-name="Atilde" horiz-adv-x="574" d="M339 778Q313 778 281 802T234 827Q199 827 189 782H161Q176 882 243 882Q267 882 299 858T347 833Q382 833 392 879H420Q405 778 339 778ZM174 340H370L270 647L260 604L174 340ZM358 98Q358
115 362 127Q407 134 432 149L381 304H163L110 143Q141 129 185 127Q185 116 181 98H-3Q-3 111 1 127Q34 132 51 145T76 182L254 713Q278 722 319 722L495 183Q504 154 523 142T577 127Q575 107 572 98H358Z" />
<glyph unicode="&#xc4;" glyph-name="Adieresis" horiz-adv-x="574" d="M395 797T383 785T353 772T323 784T311 815T323 846T352 859T382 847T395 816ZM238 772T220 772T190 784T178 815T190 846T220 859T250 847T263 816T251 785ZM174 340H370L270 647L260 604L174
340ZM358 98Q358 115 362 127Q407 134 432 149L381 304H163L110 143Q141 129 185 127Q185 116 181 98H-3Q-3 111 1 127Q34 132 51 145T76 182L254 713Q278 722 319 722L495 183Q504 154 523 142T577 127Q575 107 572 98H358Z" />
<glyph unicode="&#xc5;" glyph-name="Aring" horiz-adv-x="574" d="M325 842T314 853T287 864T259 853T248 821T259 788T286 776T313 787T325 820ZM371 790T347 771T287 751T226 770T201 820T226 870T286 889T346 871T371 821ZM174 340H370L270 647L260 604L174
340ZM358 98Q358 115 362 127Q407 134 432 149L381 304H163L110 143Q141 129 185 127Q185 116 181 98H-3Q-3 111 1 127Q34 132 51 145T76 182L254 713Q278 722 319 722L495 183Q504 154 523 142T577 127Q575 107 572 98H358Z" />
<glyph unicode="&#xc6;" glyph-name="AE" horiz-adv-x="817" d="M401 291V568L372 515L235 291H401ZM473 84H646Q695 84 712 107T735 187Q758 187 765 185Q768 140 768 107T767 49H335Q333 65 338 78Q374 83 387 92T401 126V255H213L118 99Q147 82 181 79Q181
61 177 49H5Q5 63 9 79Q43 83 60 96T92 134L390 622Q369 630 332 632Q332 651 335 660H752Q753 639 753 605T748 527Q742 525 720 525Q715 581 698 604T633 627H473V378L614 385H643V337H614L473 341V84Z" />
<glyph unicode="&#xc7;" glyph-name="Ccedilla" horiz-adv-x="580" d="M340 86H338L326 28H333Q374 28 395 11T416 -37T383 -93T294 -118T179 -88L194 -69Q239 -91 286 -91Q359 -91 359 -39Q359 1 301 1Q291 1 263 -3L282 92Q183 112 119 193T55 407T146 631T369
722Q462 722 525 692Q523 628 509 566Q490 566 487 567Q486 618 453 647T368 676Q263 676 200 602T136 404T199 210T354 139T522 188L539 170Q457 86 340 86Z" />
<glyph unicode="&#xc8;" glyph-name="Egrave" horiz-adv-x="518" d="M304 766L283 753L130 889V900Q155 925 194 932L304 766ZM174 133H347Q396 133 413 156T436 236Q459 236 466 234Q469 189 469 156T468 98H36Q34 114 39 127Q75 132 88 141T102 175V666Q76 679
33 681Q33 700 36 709H453Q454 688 454 654T449 576Q443 574 421 574Q416 630 399 653T334 676H174V427L338 434H368V386H338L174 390V133Z" />
<glyph unicode="&#xc9;" glyph-name="Eacute" horiz-adv-x="518" d="M437 884L285 748L264 761L373 927Q410 922 437 895V884ZM174 133H347Q396 133 413 156T436 236Q459 236 466 234Q469 189 469 156T468 98H36Q34 114 39 127Q75 132 88 141T102 175V666Q76 679
33 681Q33 700 36 709H453Q454 688 454 654T449 576Q443 574 421 574Q416 630 399 653T334 676H174V427L338 434H368V386H338L174 390V133Z" />
<glyph unicode="&#xca;" glyph-name="Ecircumflex" horiz-adv-x="518" d="M273 827L154 753L135 772L256 887H291L411 772L394 753L273 827ZM174 133H347Q396 133 413 156T436 236Q459 236 466 234Q469 189 469 156T468 98H36Q34 114 39 127Q75 132 88 141T102
175V666Q76 679 33 681Q33 700 36 709H453Q454 688 454 654T449 576Q443 574 421 574Q416 630 399 653T334 676H174V427L338 434H368V386H338L174 390V133Z" />
<glyph unicode="&#xcb;" glyph-name="Edieresis" horiz-adv-x="518" d="M377 797T365 785T335 772T305 784T293 815T305 846T334 859T364 847T377 816ZM220 772T202 772T172 784T160 815T172 846T202 859T232 847T245 816T233 785ZM174 133H347Q396 133 413 156T436
236Q459 236 466 234Q469 189 469 156T468 98H36Q34 114 39 127Q75 132 88 141T102 175V666Q76 679 33 681Q33 700 36 709H453Q454 688 454 654T449 576Q443 574 421 574Q416 630 399 653T334 676H174V427L338 434H368V386H338L174 390V133Z" />
<glyph unicode="&#xcc;" glyph-name="Igrave" horiz-adv-x="275" d="M168 766L147 753L-6 889V900Q19 925 58 932L168 766ZM174 634V142Q203 129 241 127Q241 125 241 119T238 98H36Q34 114 39 127Q75 132 88 141T102 175V665Q71 678 33 681Q33 700 36 709H239Q239
689 236 681Q202 677 188 667T174 634Z" />
<glyph unicode="&#xcd;" glyph-name="Iacute" horiz-adv-x="275" d="M174 634V142Q203 129 241 127Q242 115 238 98H36Q34 114 39 127Q75 132 88 141T102 175V665Q71 678 33 681Q33 700 36 709H239Q239 689 236 681Q202 677 188 667T174 634ZM127 762L236 928Q273
923 300 896V885L148 749L127 762Z" />
<glyph unicode="&#xce;" glyph-name="Icircumflex" horiz-adv-x="275" d="M174 634V142Q203 129 241 127Q242 115 238 98H36Q34 114 39 127Q75 132 88 141T102 175V665Q71 678 33 681Q33 700 36 709H239Q239 689 236 681Q202 677 188 667T174 634ZM156 887L276
772L259 753L138 827L19 753L0 772L121 887H156Z" />
<glyph unicode="&#xcf;" glyph-name="Idieresis" horiz-adv-x="275" d="M246 797T234 785T204 772T174 784T162 815T174 846T203 859T233 847T246 816ZM89 772T71 772T41 784T29 815T41 846T71 859T101 847T114 816T102 785ZM174 634V142Q203 129 241 127Q241
125 241 119T238 98H36Q34 114 39 127Q75 132 88 141T102 175V665Q71 678 33 681Q33 700 36 709H239Q239 689 236 681Q202 677 188 667T174 634Z" />
<glyph unicode="&#xd0;" glyph-name="Eth" horiz-adv-x="590" d="M172 133H254Q367 133 426 206T486 404T426 602T252 676H172V376H299Q301 366 301 357T299 338H172V133ZM258 709Q397 709 482 629T567 405T484 179T262 98H35Q33 114 38 127Q73 132 87 141T101
175V338H25Q23 348 23 357T25 376H101V667Q69 679 32 681Q32 700 35 709H258Z" />
<glyph unicode="&#xd1;" glyph-name="Ntilde" horiz-adv-x="661" d="M397 778Q371 778 339 802T292 827Q257 827 247 782H219Q234 882 301 882Q325 882 357 858T405 833Q440 833 450 879H478Q463 778 397 778ZM634 709Q634 689 631 681Q562 674 562 627V98H530L203
557L153 633V142Q183 129 228 127Q229 115 225 98H37Q36 103 36 110T39 127Q108 136 108 180V667Q82 679 40 681Q40 698 43 709H180L437 350L517 230V666Q492 677 441 681Q439 695 444 709H634Z" />
<glyph unicode="&#xd2;" glyph-name="Ograve" horiz-adv-x="659" d="M250 932L360 766L339 753L186 889V900Q211 925 250 932ZM412 682T323 682T186 609T138 421Q138 411 138 402Q140 259 192 192T335 125T474 196T522 388Q522 538 467 610ZM605 262T530 174T330
85T130 173T56 402T130 632T329 722T529 633T605 403Z" />
<glyph unicode="&#xd3;" glyph-name="Oacute" horiz-adv-x="659" d="M412 682T323 682T186 609T138 421Q138 411 138 402Q140 259 192 192T335 125T474 196T522 388Q522 538 467 610ZM605 262T530 174T330 85T130 173T56 402T130 632T329 722T529 633T605 403ZM318
761L427 927Q464 922 491 895V884L339 748L318 761Z" />
<glyph unicode="&#xd4;" glyph-name="Ocircumflex" horiz-adv-x="659" d="M412 682T323 682T186 609T138 421Q138 411 138 402Q140 259 192 192T335 125T474 196T522 388Q522 538 467 610ZM605 262T530 174T330 85T130 173T56 402T130 632T329 722T529 633T605
403ZM466 772L449 753L328 827L209 753L190 772L311 887H346L466 772Z" />
<glyph unicode="&#xd5;" glyph-name="Otilde" horiz-adv-x="659" d="M287 882Q311 882 343 858T391 833Q426 833 436 879H464Q449 778 383 778Q357 778 325 802T278 827Q243 827 233 782H205Q220 882 287 882ZM412 682T323 682T186 609T138 421Q138 411 138 402Q140
259 192 192T335 125T474 196T522 388Q522 538 467 610ZM605 262T530 174T330 85T130 173T56 402T130 632T329 722T529 633T605 403Z" />
<glyph unicode="&#xd6;" glyph-name="Odieresis" horiz-adv-x="659" d="M412 682T323 682T186 609T138 421Q138 411 138 402Q140 259 192 192T335 125T474 196T522 388Q522 538 467 610ZM605 262T530 174T330 85T130 173T56 402T130 632T329 722T529 633T605 403ZM407
859T419 847T432 816T420 785T390 772T360 784T348 815T360 846T389 859ZM275 859T287 847T300 816T288 785T257 772T227 784T215 815T227 846T257 859Z" />
<glyph unicode="&#xd7;" glyph-name="multiply" d="M443 522L304 372L442 220L406 192L273 338L140 195L86 232L230 385L92 536L131 562L262 418L398 562L443 522Z" />
<glyph unicode="&#xd8;" glyph-name="Oslash" horiz-adv-x="659" d="M197 148Q251 78 342 78T482 153Q523 218 523 322Q523 338 522 354Q518 447 488 512L197 148ZM466 551Q412 631 319 631T178 553Q137 485 137 384Q137 369 138 353Q142 252 174 186L466 551ZM537
574Q605 486 605 350T530 125T330 36Q225 36 156 96L108 36H55L126 125Q56 212 56 353T130 583T329 673Q436 673 509 605L562 672H616L537 574Z" />
<glyph unicode="&#xd9;" glyph-name="Ugrave" horiz-adv-x="653" d="M359 766L338 753L185 889V900Q210 925 249 932L359 766ZM616 709Q617 705 617 698T614 681Q578 677 565 668T551 634V305Q551 193 491 140T329 86T168 139T107 305V665Q76 678 38 681Q37 685
37 692T41 709H243Q243 689 241 681Q206 677 192 667T178 634V298Q178 212 219 170T329 128T438 170T478 298V666Q450 677 410 681Q410 701 414 709H616Z" />
<glyph unicode="&#xda;" glyph-name="Uacute" horiz-adv-x="665" d="M477 884L325 748L304 761L413 927Q450 922 477 895V884ZM616 709Q617 705 617 698T614 681Q578 677 565 668T551 634V305Q551 193 491 140T329 86T168 139T107 305V665Q76 678 38 681Q37 685
37 692T41 709H243Q243 689 241 681Q206 677 192 667T178 634V298Q178 212 219 170T329 128T438 170T478 298V666Q450 677 410 681Q410 701 414 709H616Z" />
<glyph unicode="&#xdb;" glyph-name="Ucircumflex" horiz-adv-x="665" d="M314 827L195 753L176 772L297 887H332L452 772L435 753L314 827ZM616 709Q617 705 617 698T614 681Q578 677 565 668T551 634V305Q551 193 491 140T329 86T168 139T107 305V665Q76 678
38 681Q37 685 37 692T41 709H243Q243 689 241 681Q206 677 192 667T178 634V298Q178 212 219 170T329 128T438 170T478 298V666Q450 677 410 681Q410 701 414 709H616Z" />
<glyph unicode="&#xdc;" glyph-name="Udieresis" horiz-adv-x="665" d="M417 797T405 785T375 772T345 784T333 815T345 846T374 859T404 847T417 816ZM260 772T242 772T212 784T200 815T212 846T242 859T272 847T285 816T273 785ZM616 709Q617 705 617 698T614
681Q578 677 565 668T551 634V305Q551 193 491 140T329 86T168 139T107 305V665Q76 678 38 681Q37 685 37 692T41 709H243Q243 689 241 681Q206 677 192 667T178 634V298Q178 212 219 170T329 128T438 170T478 298V666Q450 677 410 681Q410 701 414 709H616Z" />
<glyph unicode="&#xdd;" glyph-name="Yacute" horiz-adv-x="565" d="M450 885L298 749L277 762L386 928Q423 923 450 896V885ZM568 709Q568 696 565 680Q537 676 523 666T492 630L317 350V141Q350 128 387 127Q387 112 384 98H175Q174 113 177 127Q213 132 227
141T241 175V340L52 669Q23 679 0 680Q-4 702 -4 709H198Q203 694 203 680Q161 676 151 664Q147 660 147 652T155 628L293 379H295Q302 404 319 430L468 668Q439 679 407 680Q407 697 410 709H568Z" />
<glyph unicode="&#xde;" glyph-name="Thorn" horiz-adv-x="526" d="M174 240H271Q334 240 369 271T404 360T370 450T271 482H174V240ZM174 517H288Q380 517 432 474T485 361T433 248T288 205H174V93Q203 80 241 78Q242 66 238 49H36Q34 65 39 78Q75 83 88 92T102
126V616Q71 629 33 632Q33 651 36 660H239Q239 640 236 632Q202 628 188 618T174 585V517Z" />
<glyph unicode="&#xdf;" glyph-name="germandbls" horiz-adv-x="561" d="M100 128V477Q100 560 153 610T294 660T432 614T482 502Q482 454 455 420T384 369Q444 356 477 313T511 209T462 98T320 49Q284 49 239 62Q236 71 236 80T238 97Q275 84 310 84Q369 84 399
120T430 214T397 308T295 345H256Q252 357 252 365T252 379H315Q402 411 402 502Q402 561 371 594T285 627T201 589T173 487V49H32Q31 54 31 61T34 79Q71 83 85 93T100 128Z" />
<glyph unicode="&#xe0;" glyph-name="agrave" horiz-adv-x="465" d="M257 609L236 596L83 732V743Q108 768 147 775L257 609ZM121 217Q121 180 142 160T200 139Q255 139 292 179V342L221 324Q121 297 121 217ZM364 86Q338 86 319 100T294 141Q244 86 182 86T82
121T45 212Q45 323 197 356L292 377V421Q292 466 274 487T204 508T84 484L71 504Q145 565 237 565Q298 565 331 529T365 429V192Q365 162 372 150T394 138T433 143L439 131Q405 86 364 86Z" />
<glyph unicode="&#xe1;" glyph-name="aacute" horiz-adv-x="465" d="M390 728L238 592L217 605L326 771Q363 766 390 739V728ZM121 217Q121 180 142 160T200 139Q255 139 292 179V342L221 324Q121 297 121 217ZM364 86Q338 86 319 100T294 141Q244 86 182 86T82
121T45 212Q45 323 197 356L292 377V421Q292 466 274 487T204 508T84 484L71 504Q145 565 237 565Q298 565 331 529T365 429V192Q365 162 372 150T394 138T433 143L439 131Q405 86 364 86Z" />
<glyph unicode="&#xe2;" glyph-name="acircumflex" horiz-adv-x="465" d="M227 670L108 596L89 615L210 730H245L365 615L348 596L227 670ZM121 217Q121 180 142 160T200 139Q255 139 292 179V342L221 324Q121 297 121 217ZM364 86Q338 86 319 100T294 141Q244
86 182 86T82 121T45 212Q45 323 197 356L292 377V421Q292 466 274 487T204 508T84 484L71 504Q145 565 237 565Q298 565 331 529T365 429V192Q365 162 372 150T394 138T433 143L439 131Q405 86 364 86Z" />
<glyph unicode="&#xe3;" glyph-name="atilde" horiz-adv-x="465" d="M280 621Q254 621 222 645T175 670Q140 670 130 625H102Q117 725 184 725Q208 725 240 701T288 676Q323 676 333 722H361Q346 621 280 621ZM121 217Q121 180 142 160T200 139Q255 139 292 179V342L221
324Q121 297 121 217ZM364 86Q338 86 319 100T294 141Q244 86 182 86T82 121T45 212Q45 323 197 356L292 377V421Q292 466 274 487T204 508T84 484L71 504Q145 565 237 565Q298 565 331 529T365 429V192Q365 162 372 150T394 138T433 143L439 131Q405 86 364 86Z"
/>
<glyph unicode="&#xe4;" glyph-name="adieresis" horiz-adv-x="465" d="M336 640T324 628T294 615T264 627T252 658T264 689T293 702T323 690T336 659ZM179 615T161 615T131 627T119 658T131 689T161 702T191 690T204 659T192 628ZM121 217Q121 180 142 160T200
139Q255 139 292 179V342L221 324Q121 297 121 217ZM364 86Q338 86 319 100T294 141Q244 86 182 86T82 121T45 212Q45 323 197 356L292 377V421Q292 466 274 487T204 508T84 484L71 504Q145 565 237 565Q298 565 331 529T365 429V192Q365 162 372 150T394 138T433
143L439 131Q405 86 364 86Z" />
<glyph unicode="&#xe5;" glyph-name="aring" horiz-adv-x="465" d="M266 685T255 696T228 707T200 696T189 664T200 631T227 619T255 630T266 663ZM312 633T288 614T228 594T167 613T142 663T167 713T227 732T287 714T312 664ZM121 217Q121 180 142 160T200 139Q255
139 292 179V342L221 324Q121 297 121 217ZM364 86Q338 86 319 100T294 141Q244 86 182 86T82 121T45 212Q45 323 197 356L292 377V421Q292 466 274 487T204 508T84 484L71 504Q145 565 237 565Q298 565 331 529T365 429V192Q365 162 372 150T394 138T433 143L439
131Q405 86 364 86Z" />
<glyph unicode="&#xe6;" glyph-name="ae" horiz-adv-x="721" d="M603 413T574 444T502 476T422 442T374 340L490 348H604Q603 413 574 444ZM121 168Q121 131 142 111T200 90Q267 90 315 156Q292 204 292 268V293L221 275Q121 248 121 168ZM369 284Q369 191 407
141T520 90T666 138L675 120Q602 37 496 37Q449 37 404 60T330 128Q266 37 179 37Q119 37 82 72T45 164Q45 274 197 307L292 328V372Q292 417 274 438T204 459T84 435L71 455Q145 516 236 516T352 438Q383 476 426 496T510 516Q584 516 632 467T680 325Q677 316
670 307H370Q369 300 369 284Z" />
<glyph unicode="&#xe7;" glyph-name="ccedilla" horiz-adv-x="452" d="M257 28Q298 28 319 11T340 -37T307 -93T218 -118T103 -88L118 -69Q163 -91 210 -91Q283 -91 283 -39Q283 1 225 1Q215 1 187 -3L206 90Q134 105 88 165T41 317Q41 428 106 496T273 565Q353
565 408 526Q408 474 399 418L378 421Q378 469 347 496T267 524Q200 524 160 471T119 327T158 185T265 133T404 175L417 159Q346 91 262 86L250 28H257Z" />
<glyph unicode="&#xe8;" glyph-name="egrave" horiz-adv-x="471" d="M289 609L268 596L115 732V743Q140 768 179 775L289 609ZM354 463T324 494T252 525T172 491T124 389L240 397L355 398Q354 463 324 494ZM119 333Q119 240 157 190T270 139T416 187L425 169Q352
86 246 86Q171 86 110 142Q79 169 61 214T42 317Q42 434 110 499T256 565T382 516T431 374Q425 363 420 356H120Q119 349 119 333Z" />
<glyph unicode="&#xe9;" glyph-name="eacute" horiz-adv-x="471" d="M421 729L269 593L248 606L357 772Q394 767 421 740V729ZM354 463T324 494T252 525T172 491T124 389L240 397L355 398Q354 463 324 494ZM119 333Q119 240 157 190T270 139T416 187L425 169Q352
86 246 86Q171 86 110 142Q79 169 61 214T42 317Q42 434 110 499T256 565T382 516T431 374Q425 363 420 356H120Q119 349 119 333Z" />
<glyph unicode="&#xea;" glyph-name="ecircumflex" horiz-adv-x="471" d="M258 670L139 596L120 615L241 730H276L396 615L379 596L258 670ZM354 463T324 494T252 525T172 491T124 389L240 397L355 398Q354 463 324 494ZM119 333Q119 240 157 190T270 139T416
187L425 169Q352 86 246 86Q171 86 110 142Q79 169 61 214T42 317Q42 434 110 499T256 565T382 516T431 374Q425 363 420 356H120Q119 349 119 333Z" />
<glyph unicode="&#xeb;" glyph-name="edieresis" horiz-adv-x="471" d="M361 640T349 628T319 615T289 627T277 658T289 689T318 702T348 690T361 659ZM204 615T186 615T156 627T144 658T156 689T186 702T216 690T229 659T217 628ZM354 463T324 494T252 525T172
491T124 389L240 397L355 398Q354 463 324 494ZM119 333Q119 240 157 190T270 139T416 187L425 169Q352 86 246 86Q171 86 110 142Q79 169 61 214T42 317Q42 434 110 499T256 565T382 516T431 374Q425 363 420 356H120Q119 349 119 333Z" />
<glyph unicode="&#xec;" glyph-name="igrave" horiz-adv-x="277" d="M166 609L145 596L-8 732V743Q17 768 56 775L166 609ZM99 177V494Q83 495 66 495T29 494Q29 504 33 522Q99 547 171 559V143Q199 131 239 128Q239 110 236 98H31Q29 113 33 128Q70 132 84 142T99 177Z" />
<glyph unicode="&#xed;" glyph-name="iacute" horiz-adv-x="277" d="M99 177V494Q83 495 66 495T29 494Q29 504 33 522Q99 547 171 559V143Q199 131 239 128Q239 110 236 98H31Q29 113 33 128Q70 132 84 142T99 177ZM125 606L234 772Q271 767 298 740V729L146
593L125 606Z" />
<glyph unicode="&#xee;" glyph-name="icircumflex" horiz-adv-x="277" d="M99 177V494Q83 495 66 495T29 494Q29 504 33 522Q99 547 171 559V143Q199 131 239 128Q239 110 236 98H31Q29 113 33 128Q70 132 84 142T99 177ZM154 730L274 615L257 596L136 670L17
596L-2 615L119 730H154Z" />
<glyph unicode="&#xef;" glyph-name="idieresis" horiz-adv-x="277" d="M239 640T227 628T197 615T167 627T155 658T167 689T196 702T226 690T239 659ZM82 615T64 615T34 627T22 658T34 689T64 702T94 690T107 659T95 628ZM99 177V494Q83 495 66 495T29 494Q29
504 33 522Q99 547 171 559V143Q199 131 239 128Q239 110 236 98H31Q29 113 33 128Q70 132 84 142T99 177Z" />
<glyph unicode="&#xf0;" glyph-name="eth" horiz-adv-x="499" d="M287 470Q207 470 163 419T119 277T153 133T247 79T338 146T369 305T354 461Q322 470 287 470ZM446 321Q446 202 388 120T242 37T98 99T42 267T115 444T297 516Q314 516 338 514Q321 566 287 621L177
569Q162 581 157 603L265 653Q232 699 192 740L219 764Q269 717 306 673L416 724Q431 713 436 691L331 641Q446 487 446 321Z" />
<glyph unicode="&#xf1;" glyph-name="ntilde" horiz-adv-x="553" d="M341 622Q315 622 283 646T236 671Q201 671 191 626H163Q178 726 245 726Q269 726 301 702T349 677Q384 677 394 723H422Q407 622 341 622ZM460 416V143Q492 131 530 128Q530 114 528 98H324Q323
110 325 128Q361 132 374 142T388 177V410Q388 459 365 485T301 511Q214 511 171 407V143Q199 131 239 128Q239 110 236 98H31Q29 113 33 128Q70 132 84 142T99 177V495Q70 496 54 496T29 496Q29 508 33 522Q99 548 163 559Q169 521 171 461Q222 565 326 565Q385
565 422 527T460 416Z" />
<glyph unicode="&#xf2;" glyph-name="ograve" horiz-adv-x="509" d="M182 775L292 609L271 596L118 732V743Q143 768 182 775ZM192 128T259 128T357 178T389 314Q389 416 353 471T251 527T152 475T119 335Q119 235 155 182ZM352 565T409 500T467 326T408 152T252
86T98 151T42 325T101 499T256 565Z" />
<glyph unicode="&#xf3;" glyph-name="oacute" horiz-adv-x="525" d="M192 128T259 128T357 178T389 314Q389 416 353 471T251 527T152 475T119 335Q119 235 155 182ZM352 565T409 500T467 326T408 152T252 86T98 151T42 325T101 499T256 565ZM251 606L360 772Q397
767 424 740V729L272 593L251 606Z" />
<glyph unicode="&#xf4;" glyph-name="ocircumflex" horiz-adv-x="525" d="M192 128T259 128T357 178T389 314Q389 416 353 471T251 527T152 475T119 335Q119 235 155 182ZM352 565T409 500T467 326T408 152T252 86T98 151T42 325T101 499T256 565ZM399 615L382
596L261 670L142 596L123 615L244 730H279L399 615Z" />
<glyph unicode="&#xf5;" glyph-name="otilde" horiz-adv-x="509" d="M219 725Q243 725 275 701T323 676Q358 676 368 722H396Q381 621 315 621Q289 621 257 645T210 670Q175 670 165 625H137Q152 725 219 725ZM192 128T259 128T357 178T389 314Q389 416 353 471T251
527T152 475T119 335Q119 235 155 182ZM352 565T409 500T467 326T408 152T252 86T98 151T42 325T101 499T256 565Z" />
<glyph unicode="&#xf6;" glyph-name="odieresis" horiz-adv-x="525" d="M192 128T259 128T357 178T389 314Q389 416 353 471T251 527T152 475T119 335Q119 235 155 182ZM352 565T409 500T467 326T408 152T252 86T98 151T42 325T101 499T256 565ZM339 702T351 690T364
659T352 628T322 615T292 627T280 658T292 689T321 702ZM207 702T219 690T232 659T220 628T189 615T159 627T147 658T159 689T189 702Z" />
<glyph unicode="&#xf7;" glyph-name="divide" horiz-adv-x="604" d="M542 345H88L60 403V407H513L542 350V345ZM358 167T342 152T303 137T265 152T250 190T265 229T303 245T342 229T358 190ZM358 539T342 524T303 509T265 524T250 561T265 600T303 616T342 600T358 562Z" />
<glyph unicode="&#xf8;" glyph-name="oslash" horiz-adv-x="525" d="M163 126Q201 79 268 79T370 130T405 266Q405 343 382 394L163 126ZM362 428Q324 478 257 478T154 426T119 286Q119 210 142 159L362 428ZM426 446Q483 381 483 276T421 104T270 37T125 81L89
37H42L99 106Q42 171 42 277T104 449T263 516Q341 516 399 472L435 516H483L426 446Z" />
<glyph unicode="&#xf9;" glyph-name="ugrave" horiz-adv-x="542" d="M287 609L266 596L113 732V743Q138 768 177 775L287 609ZM438 472V157Q480 155 503 155Q504 144 504 138T504 129Q447 101 375 93Q368 130 366 195Q305 86 212 86Q155 86 116 126T77 240V496Q64
496 50 496T18 496Q18 507 22 523Q95 554 149 560V246Q149 197 172 169T234 141T306 167T366 243V464Q366 511 338 529Q340 540 343 544Q380 560 431 560Q436 560 442 560Q438 524 438 472Z" />
<glyph unicode="&#xfa;" glyph-name="uacute" horiz-adv-x="550" d="M435 729L283 593L262 606L371 772Q408 767 435 740V729ZM438 472V157Q480 155 503 155Q504 144 504 138T504 129Q447 101 375 93Q368 130 366 195Q305 86 212 86Q155 86 116 126T77 240V496Q64
496 50 496T18 496Q18 507 22 523Q95 554 149 560V246Q149 197 172 169T234 141T306 167T366 243V464Q366 511 338 529Q340 540 343 544Q380 560 431 560Q436 560 442 560Q438 524 438 472Z" />
<glyph unicode="&#xfb;" glyph-name="ucircumflex" horiz-adv-x="550" d="M272 670L153 596L134 615L255 730H290L410 615L393 596L272 670ZM438 472V157Q480 155 503 155Q504 144 504 138T504 129Q447 101 375 93Q368 130 366 195Q305 86 212 86Q155 86 116 126T77
240V496Q64 496 50 496T18 496Q18 507 22 523Q95 554 149 560V246Q149 197 172 169T234 141T306 167T366 243V464Q366 511 338 529Q340 540 343 544Q380 560 431 560Q436 560 442 560Q438 524 438 472Z" />
<glyph unicode="&#xfc;" glyph-name="udieresis" horiz-adv-x="550" d="M376 640T364 628T334 615T304 627T292 658T304 689T333 702T363 690T376 659ZM219 615T201 615T171 627T159 658T171 689T201 702T231 690T244 659T232 628ZM438 472V157Q480 155 503 155Q504
144 504 138T504 129Q447 101 375 93Q368 130 366 195Q305 86 212 86Q155 86 116 126T77 240V496Q64 496 50 496T18 496Q18 507 22 523Q95 554 149 560V246Q149 197 172 169T234 141T306 167T366 243V464Q366 511 338 529Q340 540 343 544Q380 560 431 560Q436
560 442 560Q438 524 438 472Z" />
<glyph unicode="&#xfd;" glyph-name="yacute" horiz-adv-x="505" d="M435 728L283 592L262 605L371 771Q408 766 435 739V728ZM112 -127H99Q89 -102 89 -85T91 -57H110Q142 -57 160 -44T197 6L233 83L77 468Q66 497 52 508T4 523Q2 535 2 542T2 553H208Q212 541
212 523Q166 519 142 509L269 161Q272 177 280 197L384 461Q390 476 390 487T384 505Q371 519 323 523Q319 542 321 553H504Q505 539 499 523Q479 520 454 513L237 -5Q210 -70 182 -98T112 -127Z" />
<glyph unicode="&#xfe;" glyph-name="thorn" horiz-adv-x="530" d="M171 191Q199 85 293 85Q338 85 372 129T406 276T372 423T293 468T217 441T171 362V191ZM300 516Q376 516 431 456T486 277T431 98T300 36Q209 36 171 125V-128Q203 -143 246 -146Q247 -159 243
-176H31Q29 -161 33 -146Q70 -141 84 -131T99 -97V699Q88 700 71 700T29 699Q29 711 33 727Q99 754 171 764V427Q209 516 300 516Z" />
<glyph unicode="&#xff;" glyph-name="ydieresis" horiz-adv-x="505" d="M381 640T369 628T339 615T309 627T297 658T309 689T338 702T368 690T381 659ZM224 615T206 615T176 627T164 658T176 689T206 702T236 690T249 659T237 628ZM112 -127H99Q89 -102 89 -85T91
-57H110Q142 -57 160 -44T197 6L233 83L77 468Q66 497 52 508T4 523Q2 535 2 542T2 553H208Q212 541 212 523Q166 519 142 509L269 161Q272 177 280 197L384 461Q390 476 390 487T384 505Q371 519 323 523Q319 542 321 553H504Q505 539 499 523Q479 520 454 513L237
-5Q210 -70 182 -98T112 -127Z" />
<glyph unicode="&#x2013;" glyph-name="endash" horiz-adv-x="578" d="M562 345H88L60 403V407H533L562 350V345Z" />
<glyph unicode="&#x2014;" glyph-name="emdash" horiz-adv-x="689" d="M606 345H88L60 403V407H577L606 350V345Z" />
<glyph unicode="&#x2018;" glyph-name="quoteleft" horiz-adv-x="224" d="M65 736Q65 806 132 901L171 883Q170 881 165 873T158 861T151 851T144 839T138 828T132 815T128 803T124 789Q119 771 119 762Q119 701 179 670V666L150 615Q105 633 85 666T65 736Z" />
<glyph unicode="&#x2019;" glyph-name="quoteright" horiz-adv-x="223" d="M159 782Q159 710 92 615L53 633Q102 709 105 754Q105 813 44 845V850L74 901Q159 866 159 782Z" />
<glyph unicode="&#x201a;" glyph-name="quotesinglbase" horiz-adv-x="223" d="M158 75Q158 -1 91 -91L53 -73Q53 -72 60 -62T68 -49T75 -37T82 -24T88 -11T95 4Q104 28 104 52Q104 109 44 139V143L74 194Q119 176 138 144T158 75Z" />
<glyph unicode="&#x201c;" glyph-name="quotedblleft" horiz-adv-x="364" d="M64 731Q64 801 132 897L171 879Q122 804 119 758Q117 699 179 666V662L150 611Q64 647 64 731ZM205 731Q205 804 273 897L311 879Q311 878 304 868T296 855T289 843T282 830T276 817T269
802Q260 778 260 754Q260 698 320 666V662L290 611Q245 630 225 662T205 731Z" />
<glyph unicode="&#x201d;" glyph-name="quotedblright" horiz-adv-x="364" d="M300 776Q300 704 232 611L193 629Q242 700 244 754T185 841V846L214 897Q259 879 279 846T300 776ZM159 776Q159 704 92 611L53 629Q54 631 59 639T66 651T73 661T80 673T86 684T92
697T96 709T100 723Q105 741 105 750Q105 809 44 841V846L74 897Q119 879 139 846T159 776Z" />
<glyph unicode="&#x201e;" glyph-name="quotedblbase" horiz-adv-x="364" d="M300 74Q300 2 232 -91L193 -73Q242 -2 244 52T185 139V144L214 195Q259 177 279 144T300 74ZM159 74Q159 2 92 -91L53 -73Q54 -71 59 -63T66 -51T73 -41T80 -29T86 -18T92 -5T96 7T100
21Q105 39 105 48Q105 107 44 139V144L74 195Q119 177 139 144T159 74Z" />
<glyph unicode="&#x2022;" glyph-name="bullet" horiz-adv-x="310" d="M218 348T200 331T155 313T111 330T93 374T110 419T154 438T199 420T218 375Z" />
<glyph unicode="&#x2039;" glyph-name="guilsinglleft" horiz-adv-x="381" d="M86 375L248 557L281 540L156 375L281 210L248 192L86 375Z" />
<glyph unicode="&#x203a;" glyph-name="guilsinglright" horiz-adv-x="381" d="M131 606L293 424L131 241L98 259L223 424L98 589L131 606Z" />
</font>
</defs>
</svg>
