<?xml version="1.0" standalone="no"?>
<!DOCTYPE svg PUBLIC "-//W3C//DTD SVG 1.1//EN" "http://www.w3.org/Graphics/SVG/1.1/DTD/svg11.dtd">
<svg xmlns="http://www.w3.org/2000/svg">
<defs >
<font id="Catamaran" horiz-adv-x="619" ><font-face
    font-family="Catamaran Medium"
    units-per-em="1000"
    panose-1="0 0 6 0 0 0 0 0 0 0"
    ascent="1100"
    descent="-540"
    alphabetic="0" />
<glyph unicode=" " glyph-name="space" horiz-adv-x="230" />
<glyph unicode="!" glyph-name="exclam" horiz-adv-x="181" d="M55 230L128 196L143 702H38L55 230ZM66 120T48 103T30 60Q30 35 48 18T91 0Q116 0 133 17T151 60Q151 85 134 102T91 120Q66 120 48 103Z" />
<glyph unicode="&quot;" glyph-name="quotedbl" horiz-adv-x="350" d="M69 722T51 703T32 661Q32 639 47 621T81 601Q78 574 63 556T20 515L43 470Q90 495 122 547T155 650Q155 681 137 701T93 722Q69 722 51 703ZM235 722T217 703T198 661Q198 639 213 621T248
601Q243 574 228 555T185 515L209 470Q256 495 288 547T320 650Q320 682 302 702T259 722Q235 722 217 703Z" />
<glyph unicode="#" glyph-name="numbersign" horiz-adv-x="540" d="M393 511L365 389H237L266 509L185 511L156 389H30L39 316H138L110 194H30L39 121H93L65 -2L145 -7L175 121H303L275 -2L355 -7L384 121H510L502 194H401L430 316H510L502 389H447L475 509L393
511ZM348 316L319 194H192L221 316H348Z" />
<glyph unicode="$" glyph-name="dollar" horiz-adv-x="518" d="M363 682Q408 668 443 651L411 575Q376 592 345 601T270 611Q210 611 173 588T136 522Q136 489 155 465T209 420T312 369Q403 328 445 284T488 170Q488 113 456 70T363 6V-119H295V-10Q271 -13 249
-13H233V-119H166V-4Q96 11 52 37L74 113Q106 96 153 83T242 70Q313 70 352 96T391 168Q391 200 372 224T316 269T216 318Q153 346 116 372T59 434T40 520Q40 575 73 618T166 681V794L233 804V696H250Q273 696 295 694V794L363 804V682Z" />
<glyph unicode="%" glyph-name="percent" horiz-adv-x="885" d="M545 710L242 0L337 -4L640 706L545 710ZM30 480T51 442T109 383T191 363Q234 363 271 384T330 443T352 532Q352 611 306 656T191 702Q148 702 111 681T52 621T30 532Q30 480 51 442ZM116 580T138
604T191 629Q223 629 244 605T266 532Q266 484 244 460T191 435Q158 435 137 459T116 533Q116 580 138 604ZM535 91T581 46T696 0Q738 0 774 21T833 80T855 169Q855 248 810 293T696 338Q652 338 616 317T557 258T535 169Q535 91 581 46ZM620 217T642 241T696 266Q727
266 748 241T770 169Q770 121 748 96T696 71Q663 71 642 96T620 170Q620 217 642 241Z" />
<glyph unicode="&amp;" glyph-name="ampersand" horiz-adv-x="673" d="M436 672T396 684T310 696Q250 696 206 671T138 604T114 512Q114 457 144 413Q97 379 69 326T40 213Q40 141 74 91T167 15T300 -12Q433 -12 510 65L589 -8L643 61L562 134Q604 216 610 330L528
362Q522 266 490 198L305 370Q253 417 232 448T211 518Q211 557 238 585T311 613Q348 613 373 605T419 588T446 575L479 651Q436 672 396 684ZM387 72T300 72Q233 72 186 108T139 215Q140 257 157 292T203 350Q220 331 246 306L442 127Q387 72 300 72Z" />
<glyph unicode="&apos;" glyph-name="quotesingle" horiz-adv-x="185" d="M69 722T51 703T32 661Q32 639 47 621T81 601Q78 574 63 556T20 515L43 470Q90 495 122 547T155 650Q155 681 137 701T93 722Q69 722 51 703Z" />
<glyph unicode="(" glyph-name="parenleft" horiz-adv-x="279" d="M221 21T196 80T156 206T141 321Q141 395 174 496T249 651L173 678Q112 597 81 504T50 320Q50 228 81 134T173 -38L249 -10Q221 21 196 80Z" />
<glyph unicode=")" glyph-name="parenright" horiz-adv-x="279" d="M58 619T82 560T122 435T137 320Q137 246 105 144T30 -11L106 -38Q166 45 197 138T229 320Q229 411 197 505T106 678L30 650Q58 619 82 560Z" />
<glyph unicode="*" glyph-name="asterisk" horiz-adv-x="363" d="M219 770H144L142 663L31 687L10 622L122 600L44 489L101 446L182 554L262 446L319 489L241 600L353 622L332 687L220 663L219 770Z" />
<glyph unicode="+" glyph-name="plus" horiz-adv-x="537" d="M497 311H315V531L226 534V311H30L38 236H226V8L315 4V236H507L497 311Z" />
<glyph unicode="," glyph-name="comma" horiz-adv-x="185" d="M69 120T51 102T33 60Q33 38 48 20T82 0Q79 -27 64 -45T20 -86L43 -131Q91 -106 123 -55T155 48Q155 80 138 100T93 120Q69 120 51 102Z" />
<glyph unicode="-" glyph-name="hyphen" horiz-adv-x="324" d="M285 311H30L39 235H294L285 311Z" />
<glyph unicode="." glyph-name="period" horiz-adv-x="180" d="M116 0T133 17T150 60Q150 85 133 102T91 120Q65 120 48 103T30 60Q30 35 47 18T91 0Q116 0 133 17Z" />
<glyph unicode="/" glyph-name="slash" horiz-adv-x="419" d="M313 710L10 0L105 -4L409 706L313 710Z" />
<glyph unicode="0" glyph-name="zero" horiz-adv-x="597" d="M30 201T64 133T160 26T299 -13Q376 -13 437 25T532 133T567 288Q567 371 533 437T437 541T299 579Q222 579 161 542T65 437T30 286Q30 201 64 133ZM122 349T144 396T207 470T299 497Q350 497 390 470T453
394T476 284Q476 222 454 173T391 97T299 69Q248 69 208 97T145 176T122 289Q122 349 144 396Z" />
<glyph unicode="1" glyph-name="one" horiz-adv-x="325" d="M255 0V566H191L10 478L54 402L159 458V0H255Z" />
<glyph unicode="2" glyph-name="two" horiz-adv-x="481" d="M160 579T119 565T38 527L61 450Q104 474 137 487T218 501Q276 501 309 478T342 405Q342 368 316 332T236 248L25 63V0H461L443 74H154L281 180Q366 251 398 304T430 418Q430 495 374 537T219 579Q160
579 119 565Z" />
<glyph unicode="3" glyph-name="three" horiz-adv-x="470" d="M115 579T15 514L61 450Q91 471 131 486T215 501Q267 501 299 474T331 409Q331 362 289 334T175 305H125L139 232H169Q258 232 300 200T343 112Q343 63 302 33T206 2Q160 2 124 13T49 47L0 -19Q46
-43 99 -59T204 -76Q273 -76 325 -52T406 16T435 113Q435 173 403 216T325 270Q365 285 394 324T423 411Q423 456 400 494T330 556T218 579Q115 579 15 514Z" />
<glyph unicode="4" glyph-name="four" horiz-adv-x="536" d="M516 145H411V571H342L10 145L23 66H315V-69H411V66H505L516 145ZM315 409V145H113L315 409Z" />
<glyph unicode="5" glyph-name="five" horiz-adv-x="501" d="M171 236T198 251T260 266Q313 266 346 232T379 138Q379 77 340 41T236 4Q188 4 153 14T78 48L30 -19Q75 -43 128 -59T232 -76Q306 -76 360 -48T442 28T471 138Q470 227 416 285T255 343Q205 343 161
317L169 487H423L434 566H84L68 218H157Q171 236 198 251Z" />
<glyph unicode="6" glyph-name="six" horiz-adv-x="520" d="M335 387T385 362T462 293T490 190Q490 132 463 86T386 13T274 -13Q203 -13 148 17T62 107T30 252Q30 362 87 445T231 575T405 634L423 558Q325 539 243 486T133 341Q165 363 198 375T271 387Q335 387
385 362ZM327 67T364 100T401 185Q401 242 365 276T268 310Q198 310 122 245Q126 160 167 114T270 67Q327 67 364 100Z" />
<glyph unicode="7" glyph-name="seven" horiz-adv-x="451" d="M218 -69L431 525L401 566H10L22 487H322L128 -42L218 -69Z" />
<glyph unicode="8" glyph-name="eight" horiz-adv-x="515" d="M196 643T151 620T81 558T57 474Q57 429 84 394T154 339Q122 331 94 306T48 246T30 177Q30 124 57 81T135 13T258 -13Q328 -13 379 12T458 81T485 177Q485 214 468 248T422 306T361 339Q403 358 431
394T459 474Q459 519 435 558T366 620T258 643Q196 643 151 620ZM308 565T338 539T369 473Q369 435 340 408T258 372Q205 380 176 407T146 473Q146 511 176 538T256 565Q308 565 338 539ZM324 293T359 258T395 175Q395 126 355 96T258 65Q200 65 160 95T120 175Q120
223 155 258T258 302Q324 293 359 258Z" />
<glyph unicode="9" glyph-name="nine" horiz-adv-x="520" d="M317 579T372 549T458 459T490 314Q490 204 433 121T289 -9T115 -68L97 8Q195 27 277 80T387 225Q355 203 322 191T249 179Q185 179 135 204T58 273T30 376Q30 434 57 480T134 553T246 579Q317 579
372 549ZM119 324T155 290T252 256Q322 256 398 321Q394 406 353 452T250 499Q193 499 156 466T119 381Q119 324 155 290Z" />
<glyph unicode=":" glyph-name="colon" horiz-adv-x="180" d="M115 341T132 358T150 401Q150 426 133 444T90 462Q65 462 48 444T30 401Q30 376 47 359T90 341Q115 341 132 358ZM115 18T132 35T150 78Q150 104 133 121T90 139Q65 139 48 122T30 78Q30 53 47 36T90
18Q115 18 132 35Z" />
<glyph unicode=";" glyph-name="semicolon" horiz-adv-x="186" d="M70 462T52 444T34 401Q34 376 52 359T96 341Q121 341 138 358T156 401Q156 426 139 444T96 462Q70 462 52 444ZM69 139T51 121T33 78Q33 55 48 37T82 18Q79 -9 64 -27T20 -68L43 -113Q91 -88
123 -37T155 66Q155 99 138 119T93 139Q69 139 51 121Z" />
<glyph unicode="&lt;" glyph-name="less" horiz-adv-x="335" d="M315 95L123 245L315 394L292 470L30 271V218L292 19L315 95Z" />
<glyph unicode="=" glyph-name="equal" horiz-adv-x="506" d="M468 389H30L39 316H476L468 389ZM468 194H30L39 121H476L468 194Z" />
<glyph unicode="&gt;" glyph-name="greater" horiz-adv-x="335" d="M305 271L43 470L20 394L212 245L20 95L43 19L305 218V271Z" />
<glyph unicode="?" glyph-name="question" horiz-adv-x="419" d="M141 701T99 687T10 643L22 558Q68 589 109 604T192 620Q242 620 269 597T297 528Q297 480 250 439T127 373L135 187L204 159L216 324Q294 361 341 417T389 530Q389 608 340 654T195 701Q141 701
99 687ZM140 120T123 103T105 60Q105 35 122 18T165 0Q190 0 208 17T226 60Q226 85 208 102T165 120Q140 120 123 103Z" />
<glyph unicode="@" glyph-name="at" horiz-adv-x="764" d="M519 421H443Q384 421 332 396T248 324T216 217Q216 146 259 105T386 63Q431 63 477 92Q507 62 557 62Q637 62 685 124T734 305Q734 389 694 455T583 560T421 598Q304 598 215 547T78 409T30 219Q30 125
76 52T197 -61T355 -102Q474 -102 555 -60L531 12Q496 -6 452 -14T366 -23Q298 -23 242 6T152 91T118 219Q118 309 160 378T271 484T419 522Q488 522 541 494T623 415T653 299Q653 226 628 182T564 137Q548 137 535 148T524 182L547 386L519 421ZM343 137T323 160T303
217Q303 281 345 316T449 352H465L444 187Q440 163 425 150T385 137Q343 137 323 160Z" />
<glyph unicode="A" glyph-name="A" horiz-adv-x="625" d="M266 680L10 0H104L172 182H449L520 -8L615 6L353 680H266ZM420 259H199L308 551L420 259Z" />
<glyph unicode="B" glyph-name="B" horiz-adv-x="603" d="M438 0T505 48T573 194Q573 257 541 300T451 365Q538 421 538 496Q538 680 304 680H90V0H325Q438 0 505 48ZM367 599T403 577T439 495Q439 441 395 416T279 390H186V599H296Q367 599 403 577ZM399 312T437
282T475 192Q475 134 433 107T321 79H186V312H331Q399 312 437 282Z" />
<glyph unicode="C" glyph-name="C" horiz-adv-x="559" d="M503 673T451 683T363 694Q266 694 193 648T80 520T40 336Q40 238 76 159T184 33T357 -14Q400 -14 453 -3T539 26L502 98Q437 68 353 68Q288 68 240 104T166 201T140 337Q140 417 169 480T248 577T361
612Q405 612 433 606T506 584L536 653Q503 673 451 683Z" />
<glyph unicode="D" glyph-name="D" horiz-adv-x="678" d="M428 0T497 44T602 166T638 344Q638 495 562 587T335 680H90V0H331Q428 0 497 44ZM440 598T490 530T541 343Q541 217 484 149T331 80H186V598H339Q440 598 490 530Z" />
<glyph unicode="E" glyph-name="E" horiz-adv-x="542" d="M522 0L509 75H186V309H430L417 383H186V606H486L473 680H90V0H522Z" />
<glyph unicode="F" glyph-name="F" horiz-adv-x="491" d="M407 378H186V606H471L457 680H90V0H186V305H419L407 378Z" />
<glyph unicode="G" glyph-name="G" horiz-adv-x="628" d="M489 284V85Q434 68 378 68Q310 68 256 101T171 195T140 337Q140 423 175 485T267 580T393 612Q437 612 464 606T537 584L567 653Q534 673 482 683T391 694Q292 694 212 649T86 522T40 336Q40 237 82 158T201
32T380 -14Q433 -14 487 -1T577 34L578 357H349L341 284H489Z" />
<glyph unicode="H" glyph-name="H" horiz-adv-x="674" d="M584 0V680H488V380H186V685L90 680V0H186V303H488V0H584Z" />
<glyph unicode="I" glyph-name="I" horiz-adv-x="276" d="M186 0V680H90V0H186Z" />
<glyph unicode="J" glyph-name="J" horiz-adv-x="268" d="M92 38T86 20T63 -9T10 -33L48 -102Q103 -85 133 -66T175 -18T188 55V680H92V73Q92 38 86 20Z" />
<glyph unicode="K" glyph-name="K" horiz-adv-x="625" d="M498 0L259 313L186 235V0H90V680H186V365L496 695L564 639L323 382L615 0H498Z" />
<glyph unicode="L" glyph-name="L" horiz-adv-x="515" d="M493 75H186V680H90V0H505L493 75Z" />
<glyph unicode="M" glyph-name="M" horiz-adv-x="765" d="M409 223L578 472V0H675V680H615L388 344L149 680H90V0H186V481L374 218L409 223Z" />
<glyph unicode="N" glyph-name="N" horiz-adv-x="715" d="M186 0V507L539 0H625V680H528V177L175 680H90V0H186Z" />
<glyph unicode="O" glyph-name="O" horiz-adv-x="729" d="M272 694T198 647T82 519T40 337Q40 236 81 156T196 31T362 -14Q456 -13 530 34T647 162T689 344Q689 445 648 525T532 650T365 696Q272 694 198 647ZM140 417T169 479T250 577T367 613Q430 613 480 579T558
483T587 344Q587 265 558 202T478 104T361 68Q298 68 248 102T169 199T140 338Q140 417 169 479Z" />
<glyph unicode="P" glyph-name="P" horiz-adv-x="572" d="M186 250H275Q349 250 409 273T506 346T542 468Q542 576 472 628T285 680H90V0H186V250ZM362 599T402 569T442 464Q439 396 396 363T279 330H186V599H284Q362 599 402 569Z" />
<glyph unicode="Q" glyph-name="Q" horiz-adv-x="729" d="M689 271T667 207T602 95L675 24L619 -25L545 44Q465 -13 362 -14Q270 -14 197 31T82 156T40 337Q40 438 82 519T198 647T365 696Q458 696 532 651T647 525T689 344Q689 271 667 207ZM428 68T480 105L392
187L458 237L535 162Q587 236 587 344Q587 421 559 482T480 578T367 613Q302 613 250 578T169 480T140 338Q140 261 168 199T247 103T361 68Q428 68 480 105Z" />
<glyph unicode="R" glyph-name="R" horiz-adv-x="604" d="M90 0H186V272H275Q321 272 338 275L490 0H594L423 300Q477 323 509 368T542 478Q542 580 471 630T285 680H90V0ZM361 599T401 571T442 474Q441 409 397 380T279 350H186V599H284Q361 599 401 571Z" />
<glyph unicode="S" glyph-name="S" horiz-adv-x="518" d="M72 19T135 3T243 -13Q320 -13 375 10T459 74T488 170Q488 240 446 284T312 369Q244 400 209 420T155 464T136 522Q136 565 173 588T270 611Q313 611 344 602T411 575L443 651Q405 670 358 683T263 696Q195
696 145 673T67 610T40 520Q40 470 59 435T115 373T216 318Q280 290 316 270T371 225T391 168Q391 123 352 97T242 70Q200 70 153 83T74 113L52 37Q72 19 135 3Z" />
<glyph unicode="T" glyph-name="T" horiz-adv-x="572" d="M549 680H10V604H231V0H328V604H562L549 680Z" />
<glyph unicode="U" glyph-name="U" horiz-adv-x="690" d="M80 680V243Q80 170 112 112T205 22T345 -11Q425 -11 485 22T577 112T610 243V680H513V252Q513 168 468 118T345 68Q269 68 223 117T176 252V680H80Z" />
<glyph unicode="V" glyph-name="V" horiz-adv-x="625" d="M105 688L10 674L272 0H359L615 680H521L317 129L105 688Z" />
<glyph unicode="W" glyph-name="W" horiz-adv-x="893" d="M883 680L687 0H600L447 542L299 0H212L10 674L105 688L257 129L401 680H495L645 129L789 680H883Z" />
<glyph unicode="X" glyph-name="X" horiz-adv-x="604" d="M110 0L303 276L478 0H581L364 335L594 680H493L315 402L116 700L38 660L253 344L10 0H110Z" />
<glyph unicode="Y" glyph-name="Y" horiz-adv-x="579" d="M331 0L332 271L569 680H467L283 366L103 697L10 663L235 270V0H331Z" />
<glyph unicode="Z" glyph-name="Z" horiz-adv-x="564" d="M531 75H125L544 604L534 680H48L61 604H435L20 75L31 0H541L531 75Z" />
<glyph unicode="[" glyph-name="bracketleft" horiz-adv-x="318" d="M100 -88H308L294 -15H193V622H294L308 696H100V-88Z" />
<glyph unicode="\" glyph-name="backslash" horiz-adv-x="419" d="M409 0L106 710L10 706L313 -4L409 0Z" />
<glyph unicode="]" glyph-name="bracketright" horiz-adv-x="317" d="M217 696H10L23 622H123V-15H23L10 -88H217V696Z" />
<glyph unicode="^" glyph-name="asciicircum" horiz-adv-x="432" d="M216 301L325 143H422L251 390H182L10 143H107L216 301Z" />
<glyph unicode="_" glyph-name="underscore" horiz-adv-x="440" d="M401 75H30L39 0H410L401 75Z" />
<glyph unicode="`" glyph-name="grave" horiz-adv-x="176" d="M100 589L166 606L112 747H10L100 589Z" />
<glyph unicode="a" glyph-name="a" horiz-adv-x="493" d="M177 412T243 412Q297 412 318 381T340 290H225Q144 290 96 251T47 140Q47 71 90 30T216 -12Q253 -12 292 5T358 46L370 0H437V329Q437 375 412 414T341 475T241 498Q207 498 155 486T76 455L103 379Q177
412 243 412ZM133 176T157 201T223 226H341V128Q315 99 282 82T214 64Q175 64 154 86T133 140Q133 176 157 201Z" />
<glyph unicode="b" glyph-name="b" horiz-adv-x="537" d="M340 498T394 466T478 376T507 239Q507 164 477 107T392 19T265 -13Q240 -13 207 -3T143 29L124 0H70V695L166 706V468Q193 482 219 490T266 498Q340 498 394 466ZM333 69T371 116T409 238Q409 318 372
367T266 416Q207 416 166 381V102Q208 69 266 69Q333 69 371 116Z" />
<glyph unicode="c" glyph-name="c" horiz-adv-x="464" d="M372 85T342 77T271 69Q204 69 166 117T128 244Q129 318 168 367T274 416Q312 416 340 408T410 383L438 451Q408 471 358 484T275 498Q201 498 146 466T60 376T30 243Q30 167 59 109T143 19T271 -13Q305
-13 355 0T436 33L407 102Q372 85 342 77Z" />
<glyph unicode="d" glyph-name="d" horiz-adv-x="544" d="M474 705V0H419L400 37Q370 13 334 0T271 -13Q197 -13 143 19T59 109T30 246Q30 321 60 378T145 466T272 498Q293 498 321 490T377 467V695L474 705ZM128 167T165 118T271 69Q304 69 329 79T377 110V378Q354
398 329 407T271 416Q204 416 166 369T128 247Q128 167 165 118Z" />
<glyph unicode="e" glyph-name="e" horiz-adv-x="504" d="M474 247Q474 357 421 427T262 498Q191 498 139 466T58 376T30 243Q30 126 98 57T293 -12Q381 -12 469 41L439 111Q388 87 360 78T293 68Q215 68 176 109T130 221H474V247ZM139 347T171 381T259 416Q362
416 381 286H132Q139 347 171 381Z" />
<glyph unicode="f" glyph-name="f" horiz-adv-x="324" d="M89 406V0H185V406H306L275 479H185V533Q185 572 201 594T252 617Q271 617 300 606L324 680Q311 689 288 695T243 702Q171 702 130 659T89 542V479H15L16 406H89Z" />
<glyph unicode="g" glyph-name="g" horiz-adv-x="540" d="M474 485V-43Q474 -97 447 -139T367 -206T242 -230Q207 -230 154 -217T70 -182L99 -113Q149 -135 174 -143T239 -152Q301 -152 339 -124T377 -42V21Q350 5 321 -4T271 -13Q197 -13 143 19T59 109T30 246Q30
321 60 378T145 466T272 498Q298 498 334 486T400 451L419 485H474ZM304 69T329 79T377 110V378Q354 398 329 407T271 416Q204 416 166 369T128 247Q128 167 165 118T271 69Q304 69 329 79Z" />
<glyph unicode="h" glyph-name="h" horiz-adv-x="551" d="M418 501T456 452T495 320V0H399V311Q399 364 382 391T319 419Q285 419 245 398T166 342V0H70V695L166 706V431Q204 463 249 482T339 501Q418 501 456 452Z" />
<glyph unicode="i" glyph-name="i" horiz-adv-x="217" d="M132 572T150 589T168 632Q168 657 150 674T107 692Q82 692 65 675T48 632Q48 607 65 590T107 572Q132 572 150 589ZM157 0V485H60V0H157Z" />
<glyph unicode="j" glyph-name="j" horiz-adv-x="240" d="M98 572T81 589T63 632Q63 657 80 674T123 692Q148 692 166 675T184 632Q184 607 166 590T123 572Q98 572 81 589ZM172 2Q172 -64 164 -99T128 -160T37 -206L0 -135Q34 -123 50 -108T70 -72T75 -13V485H172V2Z" />
<glyph unicode="k" glyph-name="k" horiz-adv-x="487" d="M166 0V174L228 234L375 0H487L294 296L438 434L382 498L166 287V706L70 695V0H166Z" />
<glyph unicode="l" glyph-name="l" horiz-adv-x="236" d="M166 0V706L70 695V0H166Z" />
<glyph unicode="m" glyph-name="m" horiz-adv-x="842" d="M710 501T748 452T786 320V0H690V311Q690 363 673 391T614 419Q585 419 548 400T474 348Q475 339 475 320V0H379V311Q379 363 362 391T303 419Q272 419 234 398T156 342V0H60V485H127L144 421Q182 456
230 478T323 501Q371 501 404 480T455 421Q493 456 541 478T634 501Q710 501 748 452Z" />
<glyph unicode="n" glyph-name="n" horiz-adv-x="541" d="M156 342Q195 376 235 397T309 419Q354 419 371 392T389 311V0H485V320Q485 403 447 452T329 501Q281 501 232 479T144 421L127 485H60V0H156V342Z" />
<glyph unicode="o" glyph-name="o" horiz-adv-x="545" d="M515 167T485 109T400 19T270 -13Q197 -13 143 19T59 109T30 243Q30 318 60 376T145 466T274 498Q347 498 401 466T485 376T515 242Q515 167 485 109ZM337 69T376 118T417 241Q417 319 379 367T274 416Q208
416 169 367T128 244Q128 166 166 118T271 69Q337 69 376 118Z" />
<glyph unicode="p" glyph-name="p" horiz-adv-x="533" d="M336 498T390 466T474 376T503 239Q503 164 473 107T388 19T261 -13Q241 -13 215 -6T162 15V-208L66 -219V485H120L141 455Q171 475 204 486T262 498Q336 498 390 466ZM329 69T367 116T405 238Q405 318
368 367T262 416Q203 416 162 381V102Q204 69 262 69Q329 69 367 116Z" />
<glyph unicode="q" glyph-name="q" horiz-adv-x="540" d="M474 485V-209L377 -219V21Q350 5 321 -4T271 -13Q197 -13 143 19T59 109T30 246Q30 321 60 378T145 466T272 498Q298 498 333 487T398 453L419 485H474ZM304 69T329 79T377 110V378Q354 398 329 407T271
416Q204 416 166 369T128 247Q128 167 165 118T271 69Q304 69 329 79Z" />
<glyph unicode="r" glyph-name="r" horiz-adv-x="338" d="M156 321Q194 357 242 382T328 408L307 485Q272 485 226 460T145 406L114 485H60V0H156V321Z" />
<glyph unicode="s" glyph-name="s" horiz-adv-x="421" d="M62 11T110 -1T194 -13Q289 -13 340 25T391 132Q391 230 227 289Q179 305 154 322T127 359Q127 385 151 402T214 420Q249 420 278 412T342 387L372 452Q343 472 297 485T216 498Q131 498 82 461T32 357Q32
263 191 211Q299 177 299 127Q299 99 271 82T194 65Q132 65 64 98L34 31Q62 11 110 -1Z" />
<glyph unicode="t" glyph-name="t" horiz-adv-x="341" d="M180 479V622L84 600V479H15L16 406H84V135Q84 62 125 23T239 -17Q259 -17 282 -11T321 4L296 77Q267 66 249 66Q214 66 197 88T180 150V406H298L268 479H180Z" />
<glyph unicode="u" glyph-name="u" horiz-adv-x="541" d="M385 143Q346 109 306 88T232 66Q187 66 170 93T152 174V485H56V165Q56 82 94 33T212 -16Q260 -16 309 6T397 64L414 0H481V485H385V143Z" />
<glyph unicode="v" glyph-name="v" horiz-adv-x="473" d="M279 0L463 485H364L236 135L102 503L10 469L190 0H279Z" />
<glyph unicode="w" glyph-name="w" horiz-adv-x="702" d="M541 0L692 485H593L498 143L398 485H297L202 143L102 502L10 468L157 0H245L346 345L453 0H541Z" />
<glyph unicode="x" glyph-name="x" horiz-adv-x="470" d="M117 0L228 174L339 0H445L293 232L460 485H355L238 306L114 502L28 468L173 247L10 0H117Z" />
<glyph unicode="y" glyph-name="y" horiz-adv-x="473" d="M148 -91T122 -108T48 -147L80 -221Q138 -208 184 -173T248 -88L463 485H364L236 137L101 503L10 469L187 13L159 -61Q148 -91 122 -108Z" />
<glyph unicode="z" glyph-name="z" horiz-adv-x="434" d="M409 485H38L59 407H290L18 50L30 0H416L406 76H138L414 432L409 485Z" />
<glyph unicode="{" glyph-name="braceleft" horiz-adv-x="279" d="M188 324T199 349T211 413Q211 430 206 446T192 487Q186 502 181 518T176 547Q176 562 189 574T230 586H260L269 659H242Q171 659 134 633T96 553Q96 523 110 481Q115 465 119 447T123 409Q123
379 108 359T69 339H30V276H69Q91 276 110 258T129 214Q129 200 125 184T117 158T112 145Q103 120 99 105T94 74Q94 16 130 -13T242 -42H269L260 30H230Q204 30 190 42T176 70Q176 83 180 99T188 124T193 136Q202 157 206 173T211 204Q211 278 162 310Q188 324
199 349Z" />
<glyph unicode="|" glyph-name="bar" horiz-adv-x="275" d="M90 711V0L185 -7V704L90 711Z" />
<glyph unicode="}" glyph-name="braceright" horiz-adv-x="278" d="M67 278T67 204Q67 189 71 173T85 136Q86 133 91 119T99 92T102 70Q102 54 88 42T48 30H18L9 -42H36Q112 -42 148 -13T184 74Q184 90 180 105T166 145Q165 148 160 163T152 190T149 214Q149 239
168 257T209 276H248V339H209Q185 339 170 359T155 409Q155 429 158 444T169 481Q174 497 178 515T182 553Q182 606 145 632T36 659H9L18 586H48Q75 586 88 574T102 547Q102 534 97 518T86 487Q77 463 72 447T67 413Q67 374 78 349T116 310Q67 278 67 204Z" />
<glyph unicode="~" glyph-name="asciitilde" horiz-adv-x="431" d="M111 188Q115 227 147 227Q167 227 181 222T214 208Q235 198 251 193T291 188Q340 188 370 219T401 318H319Q318 296 307 287T282 277Q265 277 252 281T219 295Q197 306 180 311T140 317Q91 317
61 286T30 188H111Z" />
<glyph unicode="&#xa0;" glyph-name="uni00A0" horiz-adv-x="236" />
<glyph unicode="&#xa1;" glyph-name="exclamdown" horiz-adv-x="181" d="M116 580T133 598T151 641Q151 666 134 684T91 702Q66 702 48 684T30 641Q30 616 48 598T91 580Q116 580 133 598ZM128 471L54 505L38 0H143L128 471Z" />
<glyph unicode="&#xa2;" glyph-name="cent" horiz-adv-x="464" d="M436 33Q417 20 388 10T328 -6V-113H240V-11Q142 -1 86 67T30 243Q31 348 86 416T239 496V598L327 608V492Q400 477 438 451L410 383Q369 400 341 408T274 416Q208 416 169 367T128 244Q128 166
166 118T271 69Q312 69 342 77T407 102L436 33Z" />
<glyph unicode="&#xa3;" glyph-name="sterling" horiz-adv-x="468" d="M458 0L445 75H193Q221 110 221 212V310H380L348 383H221V515Q221 554 237 577T288 600Q306 600 335 589L360 661Q347 670 323 677T278 684Q202 684 163 637T124 507V383H50L51 310H124V160Q124
120 107 98T52 75L61 0H458Z" />
<glyph unicode="&#xa4;" glyph-name="currency" horiz-adv-x="682" d="M652 -4L552 99Q593 162 594 241Q593 323 553 385L652 487L595 556L490 450Q426 497 344 498Q263 497 194 448L87 556L30 487L132 383Q113 355 102 319T91 243Q91 164 130 99L30 -4L87 -72L192
35Q256 -12 338 -13Q426 -13 489 35L595 -72L652 -4ZM495 194T474 157T418 97T339 75Q273 76 232 124T190 244Q190 289 210 327T266 386T344 408Q387 408 421 386T475 326T495 240Q495 194 474 157Z" />
<glyph unicode="&#xa5;" glyph-name="yen" horiz-adv-x="579" d="M513 238H332V144H504L513 72H331V0H235V72H75L66 144H235V238H75L66 311H212L10 663L103 697L283 366L467 680H569L355 311H504L513 238Z" />
<glyph unicode="&#xa6;" glyph-name="brokenbar" horiz-adv-x="275" d="M90 711V413L185 406V704L90 711ZM90 294V0L185 -7V288L90 294Z" />
<glyph unicode="&#xa7;" glyph-name="section" horiz-adv-x="583" d="M553 211T535 176T481 117Q488 95 488 64Q488 10 459 -31T375 -96T243 -119Q199 -119 136 -103T52 -69L74 7Q106 -10 153 -23T242 -36Q313 -36 352 -10T391 62Q391 94 372 118T316 163T216
212Q153 240 116 266T59 328T40 414Q40 455 58 489T112 549Q105 571 105 604Q105 654 132 694T209 757T328 780Q375 780 422 767T508 735L476 659Q441 676 410 685T335 695Q275 695 238 672T201 606Q201 573 220 549T274 504T377 453Q468 412 510 368T553 254Q553
211 535 176ZM389 229T432 192Q456 216 456 252Q456 284 437 308T381 353T281 402Q196 440 161 473Q136 451 136 416Q136 383 155 359T209 314T312 263Q389 229 432 192Z" />
<glyph unicode="&#xa8;" glyph-name="dieresis" horiz-adv-x="302" d="M87 610T102 626T118 664Q118 686 103 702T64 718Q42 718 26 702T10 664Q10 642 26 626T64 610Q87 610 102 626ZM261 610T276 626T292 664Q292 686 277 702T238 718Q216 718 200 702T184 664Q184
642 200 626T238 610Q261 610 276 626Z" />
<glyph unicode="&#xa9;" glyph-name="copyright" horiz-adv-x="807" d="M777 439T731 523T600 657T403 706Q291 706 207 657T76 524T30 336Q30 233 76 149T206 16T403 -33Q515 -33 600 16T731 149T777 336Q777 439 731 523ZM101 425T138 495T243 605T403 645Q495
645 563 605T669 495T706 337Q706 249 669 179T564 69T403 29Q312 29 244 69T138 179T101 337Q101 425 138 495ZM452 104T495 116T567 148L539 218Q504 200 481 193T420 185Q295 185 295 340Q295 408 328 449T422 490Q460 490 482 483T542 458L569 529Q540 549
498 560T422 572Q354 572 303 543T225 461T197 339Q197 232 255 168T419 104Q452 104 495 116Z" />
<glyph unicode="&#xaa;" glyph-name="ordfeminine" horiz-adv-x="330" d="M93 621T114 626T160 632Q191 632 206 614T222 567H152Q98 567 64 540T30 466Q30 420 61 392T146 363Q170 363 194 374T237 402L254 371H300V581Q300 613 282 641T231 685T159 702Q136
702 102 694T50 673L67 611Q93 621 114 626ZM106 487T121 497T164 508H224V468Q189 431 148 431Q128 431 117 442T106 469Q106 487 121 497Z" />
<glyph unicode="&#xab;" glyph-name="guillemotleft" horiz-adv-x="382" d="M30 222L180 83L202 147L103 245L202 343L180 407L30 268V222ZM190 222L341 83L362 147L263 245L362 343L341 407L190 268V222Z" />
<glyph unicode="&#xac;" glyph-name="logicalnot" horiz-adv-x="514" d="M476 406H10L18 330H400V117L484 112V356L476 406Z" />
<glyph unicode="&#xad;" glyph-name="softhyphen" horiz-adv-x="120" />
<glyph unicode="&#xae;" glyph-name="registered" horiz-adv-x="719" d="M689 579T649 653T534 771T360 814Q261 814 186 771T71 654T30 487Q30 396 70 322T186 205T360 162Q459 162 533 205T648 322T689 487Q689 579 649 653ZM96 566T128 626T219 721T360 755Q440
755 499 721T591 626T623 488Q623 412 591 352T500 256T360 221Q279 221 220 256T128 351T96 488Q96 566 128 626ZM436 470Q465 483 482 508T500 569Q500 625 462 652T359 680H235V304H306V454L369 455L445 304H525L436 470ZM386 622T406 612T427 566Q427 534 404
523T338 511H306V622H340Q386 622 406 612Z" />
<glyph unicode="&#xaf;" glyph-name="overscore" horiz-adv-x="271" d="M10 626H261L252 702H10V626Z" />
<glyph unicode="&#xb0;" glyph-name="degree" horiz-adv-x="246" d="M77 713T44 681T10 604Q10 559 43 528T123 497Q169 497 202 528T236 604Q236 649 203 681T123 713Q77 713 44 681ZM102 553T88 568T73 604Q73 624 87 638T123 653Q144 653 158 639T173 603Q173
583 159 568T123 553Q102 553 88 568Z" />
<glyph unicode="&#xb1;" glyph-name="plusminus" horiz-adv-x="480" d="M442 368H283V531L199 534V368H30L39 300H199V129L283 124V300H450L442 368ZM444 69H31L39 0H450L444 69Z" />
<glyph unicode="&#xb2;" glyph-name="twosuperior" horiz-adv-x="362" d="M128 771T94 760T41 738T16 725L49 661Q81 678 109 689T169 700Q203 700 222 683T241 641Q241 611 225 584T171 523L25 399V336H342L332 403H136L222 475Q279 524 304 562T329 641Q329
673 313 703T261 752T173 771Q128 771 94 760Z" />
<glyph unicode="&#xb3;" glyph-name="threesuperior" horiz-adv-x="362" d="M121 771T85 758T12 722L46 662Q71 679 96 689T155 700Q192 700 211 684T231 644Q231 611 207 591T132 571H95L105 504H127Q186 504 213 483T240 420Q240 387 214 368T148 348Q116 348
93 356T37 382L0 322Q84 278 153 278Q205 278 244 297T305 348T327 421Q327 467 303 499T245 539Q275 549 297 579T319 645Q319 699 279 735T164 771Q121 771 85 758Z" />
<glyph unicode="&#xb4;" glyph-name="acute" horiz-adv-x="176" d="M76 589L166 747H64L10 606L76 589Z" />
<glyph unicode="&#xb5;" glyph-name="mu" horiz-adv-x="551" d="M491 485V0H424L407 64Q368 29 319 7T222 -16Q188 -16 162 -7V-208L66 -219V485H162V174Q162 121 179 94T242 66Q276 66 316 87T395 143V485H491Z" />
<glyph unicode="&#xb6;" glyph-name="paragraph" horiz-adv-x="861" d="M424 604H638V0H735V604H831V680H286Q170 680 100 628T30 468Q30 395 66 346T162 274T297 250H328V0H424V604Z" />
<glyph unicode="&#xb7;" glyph-name="middot" horiz-adv-x="180" d="M116 201T133 219T150 262Q150 287 133 304T91 322Q65 322 48 305T30 262Q30 237 47 219T91 201Q116 201 133 219Z" />
<glyph unicode="&#xb8;" glyph-name="cedilla" horiz-adv-x="223" d="M90 -82T115 -95T140 -127Q140 -141 126 -148T94 -156Q81 -156 64 -151T32 -139L10 -198Q25 -208 50 -214T94 -221Q143 -221 178 -196T213 -125Q213 -98 192 -74T138 -42L160 13H87L51 -78Q90
-82 115 -95Z" />
<glyph unicode="&#xb9;" glyph-name="onesuperior" horiz-adv-x="278" d="M208 336V764H151L10 697L44 637L121 676V336H208Z" />
<glyph unicode="&#xba;" glyph-name="ordmasculine" horiz-adv-x="384" d="M119 702T75 656T30 532Q30 454 73 409T189 363Q262 363 308 409T354 531Q354 610 310 656T191 702Q119 702 75 656ZM227 632T247 607T268 531Q268 482 246 457T190 432Q156 432 136 457T115
532Q115 582 137 607T192 632Q227 632 247 607Z" />
<glyph unicode="&#xbb;" glyph-name="guillemotright" horiz-adv-x="383" d="M192 268L43 407L20 343L119 245L20 147L43 83L192 222V268ZM353 268L203 407L181 343L280 245L181 147L203 83L353 222V268Z" />
<glyph unicode="&#xbc;" glyph-name="onequarter" horiz-adv-x="820" d="M208 336V764H151L10 697L44 637L121 676V336H208ZM571 700L55 -134H155L672 700H571ZM716 -78H793L800 -8H716V321H657L407 -8L415 -78H631V-164H716V-78ZM631 171V-8H496L631 171Z" />
<glyph unicode="&#xbd;" glyph-name="onehalf" horiz-adv-x="844" d="M208 336V764H151L10 697L44 637L121 676V336H208ZM561 700L45 -134H145L662 700H561ZM610 325T576 314T523 292T498 279L531 215Q563 232 591 243T651 254Q685 254 704 237T723 195Q723 165
707 138T653 77L507 -47V-110H824L814 -43H618L704 29Q761 78 786 116T811 195Q811 227 795 257T743 306T655 325Q610 325 576 314Z" />
<glyph unicode="&#xbe;" glyph-name="threequarters" horiz-adv-x="830" d="M121 771T85 758T12 722L46 662Q71 679 96 689T155 700Q193 700 212 683T231 644Q231 607 202 589T132 571H95L105 504H127Q186 504 213 483T240 420Q240 387 214 368T148 348Q116 348
93 356T37 382L0 322Q84 278 153 278Q205 278 244 297T305 348T327 421Q327 467 303 499T245 539Q275 549 297 579T319 645Q319 699 279 735T164 771Q121 771 85 758ZM625 700L109 -134H209L726 700H625ZM726 321H667L417 -8L425 -78H641V-164H726V-78H803L810
-8H726V321ZM506 -8L641 171V-8H506Z" />
<glyph unicode="&#xbf;" glyph-name="questiondown" horiz-adv-x="419" d="M279 521T297 539T315 582Q315 607 297 625T254 643Q229 643 211 625T193 582Q193 557 211 539T254 521Q279 521 297 539ZM278 -59T321 -45T409 -1L397 85Q351 53 310 38T227 22Q177 22
150 45T122 113Q122 162 168 203T293 270L284 455L215 484L203 319Q126 282 78 225T30 112Q30 34 79 -12T224 -59Q278 -59 321 -45Z" />
<glyph unicode="&#xc0;" glyph-name="Agrave" horiz-adv-x="625" d="M266 680L10 0H104L172 182H449L520 -8L615 6L353 680H266ZM420 259H199L308 551L420 259ZM301 739L367 756L313 897H211L301 739Z" />
<glyph unicode="&#xc1;" glyph-name="Aacute" horiz-adv-x="625" d="M266 680L10 0H104L172 182H449L520 -8L615 6L353 680H266ZM420 259H199L308 551L420 259ZM331 739L421 897H319L265 756L331 739Z" />
<glyph unicode="&#xc2;" glyph-name="Acircumflex" horiz-adv-x="625" d="M266 680L10 0H104L172 182H449L520 -8L615 6L353 680H266ZM420 259H199L308 551L420 259ZM306 826L381 739L467 749L338 897H272L144 749L231 739L306 826Z" />
<glyph unicode="&#xc3;" glyph-name="Atilde" horiz-adv-x="625" d="M266 680L10 0H104L172 182H449L520 -8L615 6L353 680H266ZM420 259H199L308 551L420 259ZM390 840T381 830T358 820Q341 820 330 825T305 840Q290 850 278 855T246 861Q203 861 177 837T151
756H216Q217 771 227 782T250 793Q267 793 278 788T302 773Q316 762 328 757T359 751Q401 751 427 776T454 857H391Q390 840 381 830Z" />
<glyph unicode="&#xc4;" glyph-name="Adieresis" horiz-adv-x="625" d="M266 680L10 0H104L172 182H449L520 -8L615 6L353 680H266ZM420 259H199L308 551L420 259ZM240 760T255 776T271 814Q271 836 256 852T217 868Q195 868 179 852T163 814Q163 792 179 776T217
760Q240 760 255 776ZM414 760T429 776T445 814Q445 836 430 852T391 868Q369 868 353 852T337 814Q337 792 353 776T391 760Q414 760 429 776Z" />
<glyph unicode="&#xc5;" glyph-name="Aring" horiz-adv-x="625" d="M266 680L10 0H104L172 182H449L520 -8L615 6L353 680H266ZM420 259H199L308 551L420 259ZM266 926T237 899T208 833Q208 795 236 770T306 744Q346 744 374 769T403 833Q403 872 375 899T306
926Q266 926 237 899ZM289 792T277 804T264 833Q264 851 276 863T306 875Q323 875 335 863T347 833Q347 817 335 805T306 792Q289 792 277 804Z" />
<glyph unicode="&#xc6;" glyph-name="AE" horiz-adv-x="907" d="M100 -10L218 182H455V0H887L875 75H552V309H796L783 383H552V606H852L840 680H444L10 4L100 -10ZM455 548V259H269L455 548Z" />
<glyph unicode="&#xc7;" glyph-name="Ccedilla" horiz-adv-x="559" d="M407 -50T428 -74T450 -125Q450 -171 415 -196T331 -221Q312 -221 287 -215T247 -198L269 -139Q283 -145 300 -150T331 -156Q349 -156 363 -149T377 -127Q377 -109 352 -96T288 -78L314 -12Q226
-2 165 46T72 170T40 336Q40 438 79 519T192 647T363 694Q399 694 451 684T536 653L506 584Q461 600 433 606T361 612Q299 612 249 578T169 480T140 337Q140 263 165 202T239 104T353 68Q437 68 502 98L539 26Q511 12 469 2T387 -13L375 -42Q407 -50 428 -74Z"
/>
<glyph unicode="&#xc8;" glyph-name="Egrave" horiz-adv-x="542" d="M522 0L509 75H186V309H430L417 383H186V606H486L473 680H90V0H522ZM288 739L354 756L300 897H198L288 739Z" />
<glyph unicode="&#xc9;" glyph-name="Eacute" horiz-adv-x="542" d="M522 0L509 75H186V309H430L417 383H186V606H486L473 680H90V0H522ZM318 739L408 897H306L252 756L318 739Z" />
<glyph unicode="&#xca;" glyph-name="Ecircumflex" horiz-adv-x="542" d="M522 0L509 75H186V309H430L417 383H186V606H486L473 680H90V0H522ZM293 826L368 739L454 749L325 897H259L131 749L218 739L293 826Z" />
<glyph unicode="&#xcb;" glyph-name="Edieresis" horiz-adv-x="542" d="M522 0L509 75H186V309H430L417 383H186V606H486L473 680H90V0H522ZM227 760T242 776T258 814Q258 836 243 852T204 868Q182 868 166 852T150 814Q150 792 166 776T204 760Q227 760 242 776ZM401
760T416 776T432 814Q432 836 417 852T378 868Q356 868 340 852T324 814Q324 792 340 776T378 760Q401 760 416 776Z" />
<glyph unicode="&#xcc;" glyph-name="Igrave" horiz-adv-x="276" d="M186 0V680H90V0H186ZM133 739L199 756L145 897H43L133 739Z" />
<glyph unicode="&#xcd;" glyph-name="Iacute" horiz-adv-x="276" d="M186 0V680H90V0H186ZM163 739L253 897H151L97 756L163 739Z" />
<glyph unicode="&#xce;" glyph-name="Icircumflex" horiz-adv-x="276" d="M186 0V680H90V0H186ZM394 826L469 739L555 749L426 897H360L232 749L319 739L394 826Z" />
<glyph unicode="&#xcf;" glyph-name="Idieresis" horiz-adv-x="276" d="M186 0V680H90V0H186ZM328 760T343 776T359 814Q359 836 344 852T305 868Q283 868 267 852T251 814Q251 792 267 776T305 760Q328 760 343 776ZM502 760T517 776T533 814Q533 836 518 852T479
868Q457 868 441 852T425 814Q425 792 441 776T479 760Q502 760 517 776Z" />
<glyph unicode="&#xd0;" glyph-name="Eth" horiz-adv-x="678" d="M486 680T562 588T638 344Q638 244 603 166T498 44T331 0H90V300H29L19 375H90V680H335Q486 680 562 588ZM427 80T484 148T541 343Q541 461 491 529T339 598H186V375H277L286 300H186V80H331Q427
80 484 148Z" />
<glyph unicode="&#xd1;" glyph-name="Ntilde" horiz-adv-x="715" d="M186 0V507L539 0H625V680H528V177L175 680H90V0H186ZM444 840T435 830T412 820Q395 820 384 825T359 840Q344 850 332 855T300 861Q257 861 231 837T205 756H270Q271 771 281 782T304 793Q321
793 332 788T356 773Q370 762 382 757T413 751Q455 751 481 776T508 857H445Q444 840 435 830Z" />
<glyph unicode="&#xd2;" glyph-name="Ograve" horiz-adv-x="729" d="M272 694T198 647T82 519T40 337Q40 236 81 156T196 31T362 -14Q456 -13 530 34T647 162T689 344Q689 445 648 525T532 650T365 696Q272 694 198 647ZM140 417T169 479T250 577T367 613Q430
613 480 579T558 483T587 344Q587 265 558 202T478 104T361 68Q298 68 248 102T169 199T140 338Q140 417 169 479ZM357 739L423 756L369 897H267L357 739Z" />
<glyph unicode="&#xd3;" glyph-name="Oacute" horiz-adv-x="729" d="M272 694T198 647T82 519T40 337Q40 236 81 156T196 31T362 -14Q456 -13 530 34T647 162T689 344Q689 445 648 525T532 650T365 696Q272 694 198 647ZM140 417T169 479T250 577T367 613Q430
613 480 579T558 483T587 344Q587 265 558 202T478 104T361 68Q298 68 248 102T169 199T140 338Q140 417 169 479ZM387 739L477 897H375L321 756L387 739Z" />
<glyph unicode="&#xd4;" glyph-name="Ocircumflex" horiz-adv-x="729" d="M272 694T198 647T82 519T40 337Q40 236 81 156T196 31T362 -14Q456 -13 530 34T647 162T689 344Q689 445 648 525T532 650T365 696Q272 694 198 647ZM140 417T169 479T250 577T367 613Q430
613 480 579T558 483T587 344Q587 265 558 202T478 104T361 68Q298 68 248 102T169 199T140 338Q140 417 169 479ZM362 826L437 739L523 749L394 897H328L200 749L287 739L362 826Z" />
<glyph unicode="&#xd5;" glyph-name="Otilde" horiz-adv-x="729" d="M272 694T198 647T82 519T40 337Q40 236 81 156T196 31T362 -14Q456 -13 530 34T647 162T689 344Q689 445 648 525T532 650T365 696Q272 694 198 647ZM140 417T169 479T250 577T367 613Q430
613 480 579T558 483T587 344Q587 265 558 202T478 104T361 68Q298 68 248 102T169 199T140 338Q140 417 169 479ZM446 840T437 830T414 820Q397 820 386 825T361 840Q346 850 334 855T302 861Q259 861 233 837T207 756H272Q273 771 283 782T306 793Q323 793 334
788T358 773Q372 762 384 757T415 751Q457 751 483 776T510 857H447Q446 840 437 830Z" />
<glyph unicode="&#xd6;" glyph-name="Odieresis" horiz-adv-x="729" d="M272 694T198 647T82 519T40 337Q40 236 81 156T196 31T362 -14Q456 -13 530 34T647 162T689 344Q689 445 648 525T532 650T365 696Q272 694 198 647ZM140 417T169 479T250 577T367 613Q430
613 480 579T558 483T587 344Q587 265 558 202T478 104T361 68Q298 68 248 102T169 199T140 338Q140 417 169 479ZM296 760T311 776T327 814Q327 836 312 852T273 868Q251 868 235 852T219 814Q219 792 235 776T273 760Q296 760 311 776ZM470 760T485 776T501 814Q501
836 486 852T447 868Q425 868 409 852T393 814Q393 792 409 776T447 760Q470 760 485 776Z" />
<glyph unicode="&#xd7;" glyph-name="multiply" horiz-adv-x="528" d="M310 251L482 30H384L263 185L128 30H30L218 253L46 474H144L265 319L400 474H498L310 251Z" />
<glyph unicode="&#xd8;" glyph-name="Oslash" horiz-adv-x="729" d="M458 696T532 651T647 525T689 344Q689 243 647 162T531 34T362 -14Q270 -14 197 31T82 156T40 337Q40 438 82 519T198 647T365 696Q458 696 532 651ZM302 613T250 578T169 480T140 338Q140
269 162 213T225 120L431 603Q402 613 367 613Q302 613 250 578ZM426 68T477 103T558 202T587 344Q587 408 567 462T511 553L304 76Q333 68 361 68Q426 68 477 103Z" />
<glyph unicode="&#xd9;" glyph-name="Ugrave" horiz-adv-x="690" d="M80 680V243Q80 170 112 112T205 22T345 -11Q425 -11 485 22T577 112T610 243V680H513V252Q513 168 468 118T345 68Q269 68 223 117T176 252V680H80ZM338 739L404 756L350 897H248L338 739Z" />
<glyph unicode="&#xda;" glyph-name="Uacute" horiz-adv-x="690" d="M80 680V243Q80 170 112 112T205 22T345 -11Q425 -11 485 22T577 112T610 243V680H513V252Q513 168 468 118T345 68Q269 68 223 117T176 252V680H80ZM368 739L458 897H356L302 756L368 739Z" />
<glyph unicode="&#xdb;" glyph-name="Ucircumflex" horiz-adv-x="690" d="M80 680V243Q80 170 112 112T205 22T345 -11Q425 -11 485 22T577 112T610 243V680H513V252Q513 168 468 118T345 68Q269 68 223 117T176 252V680H80ZM343 826L418 739L504 749L375 897H309L181
749L268 739L343 826Z" />
<glyph unicode="&#xdc;" glyph-name="Udieresis" horiz-adv-x="690" d="M80 680V243Q80 170 112 112T205 22T345 -11Q425 -11 485 22T577 112T610 243V680H513V252Q513 168 468 118T345 68Q269 68 223 117T176 252V680H80ZM277 760T292 776T308 814Q308 836 293
852T254 868Q232 868 216 852T200 814Q200 792 216 776T254 760Q277 760 292 776ZM451 760T466 776T482 814Q482 836 467 852T428 868Q406 868 390 852T374 814Q374 792 390 776T428 760Q451 760 466 776Z" />
<glyph unicode="&#xdd;" glyph-name="Yacute" horiz-adv-x="579" d="M331 0L332 271L569 680H467L283 366L103 697L10 663L235 270V0H331ZM306 739L396 897H294L240 756L306 739Z" />
<glyph unicode="&#xde;" glyph-name="Thorn" horiz-adv-x="572" d="M401 600T471 548T542 388Q542 315 506 266T410 194T275 170H186V0H90V680H186V600H285Q401 600 471 548ZM352 250T395 283T442 384Q442 458 402 488T284 519H186V250H279Q352 250 395 283Z" />
<glyph unicode="&#xdf;" glyph-name="germandbls" horiz-adv-x="592" d="M166 0V472Q166 533 201 570T296 608Q348 608 382 580T416 500Q416 448 381 419T275 390H244V313H314Q378 313 417 282T457 192Q457 135 415 107T304 79H233V0H308Q421 0 489 48T557 191Q557
254 522 300T432 364Q470 383 492 421T515 505Q515 594 453 642T294 691Q192 691 131 633T70 473V0H166Z" />
<glyph unicode="&#xe0;" glyph-name="agrave" horiz-adv-x="493" d="M177 412T243 412Q297 412 318 381T340 290H225Q144 290 96 251T47 140Q47 71 90 30T216 -12Q253 -12 292 5T358 46L370 0H437V329Q437 375 412 414T341 475T241 498Q207 498 155 486T76 455L103
379Q177 412 243 412ZM133 176T157 201T223 226H341V128Q315 99 282 82T214 64Q175 64 154 86T133 140Q133 176 157 201ZM229 589L295 606L241 747H139L229 589Z" />
<glyph unicode="&#xe1;" glyph-name="aacute" horiz-adv-x="493" d="M177 412T243 412Q297 412 318 381T340 290H225Q144 290 96 251T47 140Q47 71 90 30T216 -12Q253 -12 292 5T358 46L370 0H437V329Q437 375 412 414T341 475T241 498Q207 498 155 486T76 455L103
379Q177 412 243 412ZM133 176T157 201T223 226H341V128Q315 99 282 82T214 64Q175 64 154 86T133 140Q133 176 157 201ZM241 589L331 747H229L175 606L241 589Z" />
<glyph unicode="&#xe2;" glyph-name="acircumflex" horiz-adv-x="493" d="M177 412T243 412Q297 412 318 381T340 290H225Q144 290 96 251T47 140Q47 71 90 30T216 -12Q253 -12 292 5T358 46L370 0H437V329Q437 375 412 414T341 475T241 498Q207 498 155 486T76
455L103 379Q177 412 243 412ZM133 176T157 201T223 226H341V128Q315 99 282 82T214 64Q175 64 154 86T133 140Q133 176 157 201ZM237 676L312 589L398 599L269 747H203L75 599L162 589L237 676Z" />
<glyph unicode="&#xe3;" glyph-name="atilde" horiz-adv-x="493" d="M177 412T243 412Q297 412 318 381T340 290H225Q144 290 96 251T47 140Q47 71 90 30T216 -12Q253 -12 292 5T358 46L370 0H437V329Q437 375 412 414T341 475T241 498Q207 498 155 486T76 455L103
379Q177 412 243 412ZM133 176T157 201T223 226H341V128Q315 99 282 82T214 64Q175 64 154 86T133 140Q133 176 157 201ZM328 690T319 680T296 670Q283 670 274 674T249 688Q232 699 219 705T184 711Q141 711 115 687T89 606H154Q155 621 165 632T188 643Q201 643
211 639T234 624Q251 613 264 607T297 601Q339 601 365 626T392 707H329Q328 690 319 680Z" />
<glyph unicode="&#xe4;" glyph-name="adieresis" horiz-adv-x="493" d="M177 412T243 412Q297 412 318 381T340 290H225Q144 290 96 251T47 140Q47 71 90 30T216 -12Q253 -12 292 5T358 46L370 0H437V329Q437 375 412 414T341 475T241 498Q207 498 155 486T76
455L103 379Q177 412 243 412ZM133 176T157 201T223 226H341V128Q315 99 282 82T214 64Q175 64 154 86T133 140Q133 176 157 201ZM163 610T178 626T194 664Q194 686 179 702T140 718Q118 718 102 702T86 664Q86 642 102 626T140 610Q163 610 178 626ZM337 610T352
626T368 664Q368 686 353 702T314 718Q292 718 276 702T260 664Q260 642 276 626T314 610Q337 610 352 626Z" />
<glyph unicode="&#xe5;" glyph-name="aring" horiz-adv-x="493" d="M177 412T243 412Q297 412 318 381T340 290H225Q144 290 96 251T47 140Q47 71 90 30T216 -12Q253 -12 292 5T358 46L370 0H437V329Q437 375 412 414T341 475T241 498Q207 498 155 486T76 455L103
379Q177 412 243 412ZM133 176T157 201T223 226H341V128Q315 99 282 82T214 64Q175 64 154 86T133 140Q133 176 157 201ZM198 776T169 749T140 683Q140 645 168 620T238 594Q278 594 306 619T335 683Q335 722 307 749T238 776Q198 776 169 749ZM221 642T209 654T196
683Q196 701 208 713T238 725Q255 725 267 713T279 683Q279 667 267 655T238 642Q221 642 209 654Z" />
<glyph unicode="&#xe6;" glyph-name="ae" horiz-adv-x="812" d="M782 221H438Q444 150 483 109T601 68Q639 68 667 77T747 111L777 41Q689 -12 601 -12Q465 -12 396 68Q322 -12 216 -12Q133 -12 90 29T47 140Q47 211 95 250T225 290H340Q340 348 319 380T243 412Q177
412 103 379L76 455Q102 473 154 485T241 498Q290 498 331 479T400 428Q431 462 474 480T570 498Q677 498 729 426T782 240V221ZM689 286Q670 416 567 416Q512 416 480 382T440 286H689ZM265 64T297 83T356 136Q341 176 338 226H223Q181 226 157 201T133 140Q133
109 154 87T214 64Q265 64 297 83Z" />
<glyph unicode="&#xe7;" glyph-name="ccedilla" horiz-adv-x="464" d="M412 17T375 6T301 -11L289 -42Q321 -50 342 -74T364 -125Q364 -171 329 -196T245 -221Q226 -221 201 -215T161 -198L183 -139Q197 -145 214 -150T245 -156Q263 -156 277 -149T291 -127Q291
-109 266 -96T202 -78L229 -10Q136 3 83 71T30 243Q30 318 60 376T145 466T275 498Q308 498 358 485T438 451L410 383Q369 400 341 408T274 416Q208 416 169 367T128 244Q128 166 166 118T271 69Q312 69 342 77T407 102L436 33Q412 17 375 6Z" />
<glyph unicode="&#xe8;" glyph-name="egrave" horiz-adv-x="504" d="M474 247Q474 357 421 427T262 498Q191 498 139 466T58 376T30 243Q30 126 98 57T293 -12Q381 -12 469 41L439 111Q388 87 360 78T293 68Q215 68 176 109T130 221H474V247ZM139 347T171 381T259
416Q362 416 381 286H132Q139 347 171 381ZM251 589L317 606L263 747H161L251 589Z" />
<glyph unicode="&#xe9;" glyph-name="eacute" horiz-adv-x="504" d="M474 247Q474 357 421 427T262 498Q191 498 139 466T58 376T30 243Q30 126 98 57T293 -12Q381 -12 469 41L439 111Q388 87 360 78T293 68Q215 68 176 109T130 221H474V247ZM139 347T171 381T259
416Q362 416 381 286H132Q139 347 171 381ZM263 589L353 747H251L197 606L263 589Z" />
<glyph unicode="&#xea;" glyph-name="ecircumflex" horiz-adv-x="504" d="M474 247Q474 357 421 427T262 498Q191 498 139 466T58 376T30 243Q30 126 98 57T293 -12Q381 -12 469 41L439 111Q388 87 360 78T293 68Q215 68 176 109T130 221H474V247ZM139 347T171
381T259 416Q362 416 381 286H132Q139 347 171 381ZM259 676L334 589L420 599L291 747H225L97 599L184 589L259 676Z" />
<glyph unicode="&#xeb;" glyph-name="edieresis" horiz-adv-x="504" d="M474 247Q474 357 421 427T262 498Q191 498 139 466T58 376T30 243Q30 126 98 57T293 -12Q381 -12 469 41L439 111Q388 87 360 78T293 68Q215 68 176 109T130 221H474V247ZM139 347T171 381T259
416Q362 416 381 286H132Q139 347 171 381ZM185 610T200 626T216 664Q216 686 201 702T162 718Q140 718 124 702T108 664Q108 642 124 626T162 610Q185 610 200 626ZM359 610T374 626T390 664Q390 686 375 702T336 718Q314 718 298 702T282 664Q282 642 298 626T336
610Q359 610 374 626Z" />
<glyph unicode="&#xec;" glyph-name="igrave" horiz-adv-x="217" d="M157 0V485H60V0H157ZM354 589L420 606L366 747H264L354 589Z" />
<glyph unicode="&#xed;" glyph-name="iacute" horiz-adv-x="217" d="M157 0V485H60V0H157ZM110 589L200 747H98L44 606L110 589Z" />
<glyph unicode="&#xee;" glyph-name="icircumflex" horiz-adv-x="217" d="M157 0V485H60V0H157ZM362 676L437 589L523 599L394 747H328L200 599L287 589L362 676Z" />
<glyph unicode="&#xef;" glyph-name="idieresis" horiz-adv-x="217" d="M157 0V485H60V0H157ZM288 610T303 626T319 664Q319 686 304 702T265 718Q243 718 227 702T211 664Q211 642 227 626T265 610Q288 610 303 626ZM462 610T477 626T493 664Q493 686 478 702T439
718Q417 718 401 702T385 664Q385 642 401 626T439 610Q462 610 477 626Z" />
<glyph unicode="&#xf0;" glyph-name="eth" horiz-adv-x="545" d="M413 569T464 469T515 251Q515 174 487 115T404 21T270 -13Q197 -13 143 19T59 109T30 243Q30 318 60 376T145 466T274 498Q311 498 355 480Q312 548 236 602L111 539L77 603L163 646Q133 662 88
680L116 750Q186 726 249 688L358 742L391 681L316 643Q413 569 464 469ZM337 69T376 118T417 241Q417 308 404 364Q379 389 349 402T274 416Q208 416 169 367T128 244Q128 166 166 118T271 69Q337 69 376 118Z" />
<glyph unicode="&#xf1;" glyph-name="ntilde" horiz-adv-x="541" d="M156 342Q195 376 235 397T309 419Q354 419 371 392T389 311V0H485V320Q485 403 447 452T329 501Q281 501 232 479T144 421L127 485H60V0H156V342ZM370 690T361 680T338 670Q325 670 316 674T291
688Q274 699 261 705T226 711Q183 711 157 687T131 606H196Q197 621 207 632T230 643Q243 643 253 639T276 624Q293 613 306 607T339 601Q381 601 407 626T434 707H371Q370 690 361 680Z" />
<glyph unicode="&#xf2;" glyph-name="ograve" horiz-adv-x="545" d="M515 167T485 109T400 19T270 -13Q197 -13 143 19T59 109T30 243Q30 318 60 376T145 466T274 498Q347 498 401 466T485 376T515 242Q515 167 485 109ZM337 69T376 118T417 241Q417 319 379 367T274
416Q208 416 169 367T128 244Q128 166 166 118T271 69Q337 69 376 118ZM263 589L329 606L275 747H173L263 589Z" />
<glyph unicode="&#xf3;" glyph-name="oacute" horiz-adv-x="545" d="M515 167T485 109T400 19T270 -13Q197 -13 143 19T59 109T30 243Q30 318 60 376T145 466T274 498Q347 498 401 466T485 376T515 242Q515 167 485 109ZM337 69T376 118T417 241Q417 319 379 367T274
416Q208 416 169 367T128 244Q128 166 166 118T271 69Q337 69 376 118ZM275 589L365 747H263L209 606L275 589Z" />
<glyph unicode="&#xf4;" glyph-name="ocircumflex" horiz-adv-x="545" d="M515 167T485 109T400 19T270 -13Q197 -13 143 19T59 109T30 243Q30 318 60 376T145 466T274 498Q347 498 401 466T485 376T515 242Q515 167 485 109ZM337 69T376 118T417 241Q417 319
379 367T274 416Q208 416 169 367T128 244Q128 166 166 118T271 69Q337 69 376 118ZM271 676L346 589L432 599L303 747H237L109 599L196 589L271 676Z" />
<glyph unicode="&#xf5;" glyph-name="otilde" horiz-adv-x="545" d="M515 167T485 109T400 19T270 -13Q197 -13 143 19T59 109T30 243Q30 318 60 376T145 466T274 498Q347 498 401 466T485 376T515 242Q515 167 485 109ZM337 69T376 118T417 241Q417 319 379 367T274
416Q208 416 169 367T128 244Q128 166 166 118T271 69Q337 69 376 118ZM362 690T353 680T330 670Q317 670 308 674T283 688Q266 699 253 705T218 711Q175 711 149 687T123 606H188Q189 621 199 632T222 643Q235 643 245 639T268 624Q285 613 298 607T331 601Q373
601 399 626T426 707H363Q362 690 353 680Z" />
<glyph unicode="&#xf6;" glyph-name="odieresis" horiz-adv-x="545" d="M515 167T485 109T400 19T270 -13Q197 -13 143 19T59 109T30 243Q30 318 60 376T145 466T274 498Q347 498 401 466T485 376T515 242Q515 167 485 109ZM337 69T376 118T417 241Q417 319 379
367T274 416Q208 416 169 367T128 244Q128 166 166 118T271 69Q337 69 376 118ZM197 610T212 626T228 664Q228 686 213 702T174 718Q152 718 136 702T120 664Q120 642 136 626T174 610Q197 610 212 626ZM371 610T386 626T402 664Q402 686 387 702T348 718Q326 718
310 702T294 664Q294 642 310 626T348 610Q371 610 386 626Z" />
<glyph unicode="&#xf7;" glyph-name="divide" horiz-adv-x="503" d="M279 360T298 379T317 426Q317 454 298 473T251 493Q223 493 204 474T184 426Q184 399 203 380T251 360Q279 360 298 379ZM464 311H30L39 235H473L464 311ZM280 40T299 60T319 107Q319 135 300
154T252 174Q224 174 205 155T185 107Q185 80 204 60T252 40Q280 40 299 60Z" />
<glyph unicode="&#xf8;" glyph-name="oslash" horiz-adv-x="559" d="M347 498T401 466T485 376T515 242Q515 167 485 109T400 19T270 -13Q197 -13 143 19T59 109T30 243Q30 318 60 376T145 466T274 498Q347 498 401 466ZM208 416T169 367T128 244Q128 164 167
116L323 408Q299 416 274 416Q208 416 169 367ZM337 69T376 118T417 241Q417 307 390 352L240 72Q254 69 271 69Q337 69 376 118Z" />
<glyph unicode="&#xf9;" glyph-name="ugrave" horiz-adv-x="541" d="M385 143Q346 109 306 88T232 66Q187 66 170 93T152 174V485H56V165Q56 82 94 33T212 -16Q260 -16 309 6T397 64L414 0H481V485H385V143ZM257 589L323 606L269 747H167L257 589Z" />
<glyph unicode="&#xfa;" glyph-name="uacute" horiz-adv-x="541" d="M385 143Q346 109 306 88T232 66Q187 66 170 93T152 174V485H56V165Q56 82 94 33T212 -16Q260 -16 309 6T397 64L414 0H481V485H385V143ZM269 589L359 747H257L203 606L269 589Z" />
<glyph unicode="&#xfb;" glyph-name="ucircumflex" horiz-adv-x="541" d="M385 143Q346 109 306 88T232 66Q187 66 170 93T152 174V485H56V165Q56 82 94 33T212 -16Q260 -16 309 6T397 64L414 0H481V485H385V143ZM265 676L340 589L426 599L297 747H231L103 599L190
589L265 676Z" />
<glyph unicode="&#xfc;" glyph-name="udieresis" horiz-adv-x="541" d="M385 143Q346 109 306 88T232 66Q187 66 170 93T152 174V485H56V165Q56 82 94 33T212 -16Q260 -16 309 6T397 64L414 0H481V485H385V143ZM191 610T206 626T222 664Q222 686 207 702T168 718Q146
718 130 702T114 664Q114 642 130 626T168 610Q191 610 206 626ZM365 610T380 626T396 664Q396 686 381 702T342 718Q320 718 304 702T288 664Q288 642 304 626T342 610Q365 610 380 626Z" />
<glyph unicode="&#xfd;" glyph-name="yacute" horiz-adv-x="473" d="M148 -91T122 -108T48 -147L80 -221Q138 -208 184 -173T248 -88L463 485H364L236 137L101 503L10 469L187 13L159 -61Q148 -91 122 -108ZM232 589L322 747H220L166 606L232 589Z" />
<glyph unicode="&#xfe;" glyph-name="thorn" horiz-adv-x="533" d="M336 498T390 466T474 376T503 239Q503 164 473 107T388 19T261 -13Q241 -13 215 -6T162 15V-208L66 -219V695L162 706V468Q189 482 215 490T262 498Q336 498 390 466ZM329 69T367 116T405 238Q405
318 368 367T262 416Q203 416 162 381V102Q204 69 262 69Q329 69 367 116Z" />
<glyph unicode="&#xff;" glyph-name="ydieresis" horiz-adv-x="473" d="M148 -91T122 -108T48 -147L80 -221Q138 -208 184 -173T248 -88L463 485H364L236 137L101 503L10 469L187 13L159 -61Q148 -91 122 -108ZM154 610T169 626T185 664Q185 686 170 702T131 718Q109
718 93 702T77 664Q77 642 93 626T131 610Q154 610 169 626ZM328 610T343 626T359 664Q359 686 344 702T305 718Q283 718 267 702T251 664Q251 642 267 626T305 610Q328 610 343 626Z" />
<glyph unicode="&#x2013;" glyph-name="endash" horiz-adv-x="440" d="M401 311H30L39 235H410L401 311Z" />
<glyph unicode="&#x2014;" glyph-name="emdash" horiz-adv-x="541" d="M503 311H30L39 235H511L503 311Z" />
<glyph unicode="&#x2018;" glyph-name="quoteleft" horiz-adv-x="185" d="M115 470T133 488T151 531Q151 553 136 571T102 591Q105 618 120 635T165 676L141 722Q94 697 62 645T30 542Q30 511 47 491T91 470Q115 470 133 488Z" />
<glyph unicode="&#x2019;" glyph-name="quoteright" horiz-adv-x="185" d="M69 722T51 703T32 661Q32 639 47 621T81 601Q78 574 63 556T20 515L43 470Q90 495 122 547T155 650Q155 681 137 701T93 722Q69 722 51 703Z" />
<glyph unicode="&#x201a;" glyph-name="quotesinglbase" horiz-adv-x="185" d="M69 120T51 102T32 60Q32 38 47 20T81 0Q78 -27 63 -45T20 -86L43 -131Q90 -106 122 -54T155 48Q155 80 137 100T93 120Q69 120 51 102Z" />
<glyph unicode="&#x201c;" glyph-name="quotedblleft" horiz-adv-x="351" d="M115 470T133 488T151 531Q151 553 136 571T102 591Q105 618 120 635T165 676L141 722Q94 697 62 645T30 542Q30 511 47 491T91 470Q115 470 133 488ZM281 470T299 489T318 531Q318
552 303 571T269 591Q272 618 287 636T331 676L307 722Q260 697 228 645T196 542Q196 511 213 491T256 470Q281 470 299 489Z" />
<glyph unicode="&#x201d;" glyph-name="quotedblright" horiz-adv-x="350" d="M69 722T51 703T32 661Q32 639 47 621T81 601Q78 574 63 556T20 515L43 470Q90 495 122 547T155 650Q155 681 137 701T93 722Q69 722 51 703ZM235 722T217 703T198 661Q198 639 213
621T248 601Q243 574 228 555T185 515L209 470Q256 495 288 547T320 650Q320 682 302 702T259 722Q235 722 217 703Z" />
<glyph unicode="&#x201e;" glyph-name="quotedblbase" horiz-adv-x="350" d="M69 120T51 102T32 60Q32 38 47 20T81 0Q78 -27 64 -45T20 -85L43 -131Q90 -106 122 -54T155 48Q155 80 137 100T93 120Q69 120 51 102ZM235 120T217 102T198 60Q198 38 213 20T248
0Q243 -27 228 -46T185 -86L209 -131Q256 -106 288 -55T320 48Q320 80 303 100T259 120Q235 120 217 102Z" />
<glyph unicode="&#x2022;" glyph-name="bullet" horiz-adv-x="250" d="M165 234T192 261T220 328Q220 367 193 395T125 423Q85 423 58 395T30 328Q30 289 57 262T125 234Q165 234 192 261Z" />
<glyph unicode="&#x2039;" glyph-name="guilsinglleft" horiz-adv-x="222" d="M30 221L180 83L202 150L107 245L202 339L180 408L30 269V221Z" />
<glyph unicode="&#x203a;" glyph-name="guilsinglright" horiz-adv-x="222" d="M192 269L42 408L20 339L115 245L20 150L42 83L192 221V269Z" />
</font>
</defs>
</svg>
