<?xml version="1.0" standalone="no"?>
<!DOCTYPE svg PUBLIC "-//W3C//DTD SVG 1.1//EN" "http://www.w3.org/Graphics/SVG/1.1/DTD/svg11.dtd">
<svg xmlns="http://www.w3.org/2000/svg">
<defs >
<font id="LondrinaSolid" horiz-adv-x="443" ><font-face
    font-family="Londrina Solid Thin"
    units-per-em="1000"
    panose-1="0 0 3 0 0 0 0 0 0 0"
    ascent="945"
    descent="-238"
    alphabetic="0" />
<glyph unicode=" " glyph-name="space" horiz-adv-x="200" />
<glyph unicode="!" glyph-name="exclam" horiz-adv-x="217" d="M121 1T128 1H135Q135 30 136 61T138 121Q123 121 112 122T88 119V118Q88 104 86 84T83 46T82 14T85 1Q121 1 128 1ZM88 634T88 567T88 434T89 302T89 170H90Q107 171 115 171T142 175Q136 303 137
439T141 704Q123 706 116 705T95 702H92Q88 634 88 567Z" />
<glyph unicode="&quot;" glyph-name="quotedbl" horiz-adv-x="378" d="M64 702Q62 667 61 642T60 592T61 536T62 460V459Q72 459 76 459T87 459T105 460T116 460Q116 467 116 500T116 573T115 651T114 706Q112 710 104 710T90 710T76 706T65 704H64V702ZM267 702Q265
667 264 642T263 592T264 536T265 460V459Q275 459 282 459T295 459T309 460T318 460Q318 467 318 500T318 573T317 651T316 706Q314 710 304 710T288 710T277 706T268 704H267V702Z" />
<glyph unicode="#" glyph-name="numbersign" horiz-adv-x="669" d="M639 462Q561 462 546 462T514 463Q528 511 536 550T549 604T555 625T555 638L510 639H509H508Q494 579 481 529T460 466Q403 467 352 466T274 466Q287 509 296 546T310 600T316 624T318 633Q286
634 280 635T273 636T275 636T268 638V637Q265 623 259 601T245 545T231 492T221 467Q221 466 221 466T220 465Q214 464 205 464T189 465Q70 465 57 466T40 469T36 470L38 415Q87 415 128 415T182 416T199 416T202 416Q190 378 178 328T159 255T150 228Q59 228
48 227T31 227T25 229Q26 212 26 199T28 173Q43 172 130 175Q116 137 109 112T74 0Q99 2 123 0Q131 0 132 13T150 80T186 177Q233 178 287 178T354 178T372 178T378 177H379Q369 140 354 93T328 1Q369 -1 369 0T371 1H373L374 2Q381 20 390 44T407 102T420 153T428
174H430H431Q504 175 529 175T573 175T605 175T635 178V180Q633 189 632 202T628 224Q577 228 517 228T445 228Q456 260 471 320T497 416L646 419L639 458V462ZM242 383T256 418V419H258Q310 419 360 419T447 418Q436 380 420 324T395 232Q395 231 395 231T394
229L203 228Q242 383 256 418Z" />
<glyph unicode="$" glyph-name="dollar" horiz-adv-x="445" d="M313 338T276 345T232 354Q173 360 145 366T87 453Q87 456 80 484T80 536T112 582T201 619T322 602T377 506T392 443T417 442T426 468Q426 495 425 516T412 561Q406 573 397 586T374 612T344 633T268
658Q255 659 255 672L253 742Q250 748 242 750T222 750T205 745T199 734Q199 732 200 727T201 709T203 685T204 672Q204 667 205 664T201 658Q162 651 122 633T64 597Q45 578 37 555T28 507Q28 471 43 435T82 373Q104 349 146 333T284 297T373 167Q372 130 360
106T304 57Q239 33 152 58T75 176Q75 184 75 191T74 207Q74 222 72 231T59 241T40 240T26 232T21 216T20 191Q20 158 23 130T36 80T68 40T168 7Q191 6 197 -4T204 -26T205 -50T205 -77T214 -94T224 -97Q237 -96 247 -96T254 -69V-65Q254 -62 254 -52T254 -30T254
-8T255 6Q257 6 281 11T323 22T350 35T363 44Q395 70 408 99T422 160Q422 181 418 206T404 256T377 296T340 325Q313 338 276 345Z" />
<glyph unicode="%" glyph-name="percent" horiz-adv-x="604" d="M194 3T193 2Q187 1 147 0Q150 6 153 15T161 41T173 71T180 90Q215 189 228 225T259 309T306 438Q317 467 343 547T378 654T393 709Q426 707 438 701Q436 696 435 693T432 683Q428 669 418 637T386
538Q376 510 367 483T349 428Q330 373 312 319T272 211Q267 196 262 181T250 151L196 7Q194 3 193 2ZM379 305T374 287T366 251T364 213T366 176Q366 152 368 132T375 92T395 58T433 32Q449 28 468 26Q488 24 506 32T537 53T560 84T575 123T583 163T585 204Q585
218 584 231T581 261Q577 281 568 300T546 333T512 357T468 364Q445 364 426 354T395 326Q391 324 389 321Q379 305 374 287ZM413 65T405 130Q401 163 401 184T401 230Q401 242 403 249T407 264T422 297T480 319Q519 313 533 285T549 234T550 198T548 174Q548 163
548 155T545 133T525 94T473 65Q413 65 405 130ZM34 623T29 605T21 569T19 531T21 494Q21 470 23 450T30 410T50 376T88 350Q104 346 123 344Q143 342 161 350T192 371T215 402T230 441T238 481T240 522Q240 536 239 549T236 579Q232 599 223 618T201 651T167 675T123
682Q100 682 81 672T50 644Q46 642 44 639Q34 623 29 605ZM68 383T60 448Q56 481 56 502T56 548Q56 560 58 567T62 582T77 615T135 637Q174 631 188 603T204 552T205 516T203 492Q203 481 203 473T200 451T180 412T128 383Q68 383 60 448Z" />
<glyph unicode="&amp;" glyph-name="ampersand" horiz-adv-x="565" d="M548 69T533 90T503 129V128Q494 140 486 149T477 165Q477 170 500 220T532 294T544 348Q554 381 545 384T519 393T498 389T485 355Q479 328 466 299T425 313T369 376T347 411T361 434T373
449Q391 479 398 510T406 579Q406 609 394 636T359 685T304 718T234 731Q198 731 164 720T102 688T58 640T41 580Q41 557 48 534T67 488T92 446T118 410Q99 392 81 370T49 324T27 273T18 220Q18 180 31 141T69 70T131 19T219 -1Q318 2 355 13T448 90Q495 28 502
13T553 2L564 29Q548 69 533 90ZM326 685T360 628Q387 562 351 492T216 420Q151 430 127 462T90 526T78 582Q81 630 133 668T265 695Q326 685 360 628ZM290 46T274 44T237 42Q194 42 166 54T121 84T77 145Q68 162 66 172T64 204Q64 280 91 324T202 379Q212 381
216 381T231 382Q329 382 375 337T422 194Q422 159 416 141T380 89Q358 69 316 54Q290 46 274 44Z" />
<glyph unicode="&apos;" glyph-name="quotesingle" horiz-adv-x="185" d="M69 702Q67 667 66 642T65 592T66 536T67 460V459Q77 459 84 459T97 459T111 460T120 460Q120 467 120 500T120 573T119 651T118 706Q116 710 106 710T90 710T79 706T70 704H69V702Z" />
<glyph unicode="(" glyph-name="parenleft" horiz-adv-x="314" d="M134 21T163 11Q196 1 228 0H245Q256 0 268 0T287 9L289 57Q196 41 152 69T88 166Q73 207 95 559Q96 566 100 583T113 614T153 644T227 660T285 664Q290 673 286 704L285 705Q268 707 249 708T212
711Q167 710 127 690T62 621Q50 601 46 579T40 535T38 489T38 444V420Q39 369 37 313T32 203Q34 177 40 149T66 87Q69 81 70 80Q86 58 108 41Q134 21 163 11Z" />
<glyph unicode=")" glyph-name="parenright" horiz-adv-x="313" d="M181 21T152 11Q119 1 87 0H70Q59 0 47 0T28 9L26 57Q119 41 163 69T227 166Q242 207 220 559Q219 566 215 583T202 614T162 644T88 660T30 664Q25 673 29 704L30 705Q47 707 66 708T103 711Q148
710 188 690T253 621Q265 601 269 579T275 535T277 489T277 444V420Q276 369 278 313T283 203Q281 177 275 149T249 87Q246 81 245 80Q229 58 207 41Q181 21 152 11Z" />
<glyph unicode="*" glyph-name="asterisk" horiz-adv-x="367" d="M321 419T320 423Q318 424 308 436T285 463T244 507T214 537Q217 545 241 569T277 604T298 626T308 646Q305 649 296 657T285 669Q286 670 275 660T250 637T209 599T180 572Q176 575 152 599T114
635T90 657T76 668L75 667Q68 662 63 655T53 647Q55 642 65 631T86 607T108 581T143 544Q149 536 148 535Q140 526 112 498T74 458T56 438T45 424L70 402Q72 402 73 403T77 406Q84 411 94 420T133 456T170 491T182 501Q184 500 191 494T224 462T259 429T271 417Q273
416 280 409T290 398Q291 396 293 398Q321 419 320 423Z" />
<glyph unicode="+" glyph-name="plus" horiz-adv-x="445" d="M197 115T205 114T230 113T248 116V118Q248 125 249 142T252 192T255 252T255 287Q260 290 280 290T341 291T399 291T419 294Q423 319 423 345Q412 347 383 347T329 348T287 348T257 349Q255 354 255
412T255 490T255 520Q247 521 235 521T214 520T205 524Q204 519 204 516T202 506Q201 496 201 484T202 416T201 349Q198 348 179 346T111 343T43 340T21 339Q21 336 22 320T24 301T24 296Q28 294 44 292T105 289T166 287T188 286H190Q191 285 191 280T192 266Q193
230 193 216T193 178T192 144T194 117Q194 115 194 115T195 114Q197 115 205 114Z" />
<glyph unicode="," glyph-name="comma" horiz-adv-x="188" d="M127 -16T128 -10T130 1Q130 2 130 2T131 4H133L137 119H136Q104 121 76 120H75V119Q73 78 73 56T72 22T71 8T71 4Q72 3 74 3L93 -1Q91 -15 88 -31T80 -61T74 -86T73 -98Q105 -98 110 -100Q112 -90
114 -81T118 -61L126 -21Q127 -16 128 -10Z" />
<glyph unicode="-" glyph-name="hyphen" horiz-adv-x="521" d="M41 272T75 271T157 270T260 268T363 266T445 265T484 265H485Q483 295 482 323Q470 323 433 323T348 323T245 323T146 323T70 323T39 323Q39 320 39 306T37 288T36 272Q41 272 75 271Z" />
<glyph unicode="." glyph-name="period" horiz-adv-x="189" d="M119 0V1V2Q119 9 120 28T122 67T124 102T125 119Q118 122 112 123T94 123T73 117Q73 110 73 95T72 63T71 29T74 1H77L117 0H119Z" />
<glyph unicode="/" glyph-name="slash" horiz-adv-x="412" d="M106 3T105 2Q99 1 59 0Q62 6 65 15T73 41T85 71T92 90Q127 189 140 225T171 309T218 438Q229 467 255 547T290 654T305 709Q338 707 350 701Q348 696 347 693T344 683Q340 669 330 637T298 538Q288
510 279 483T261 428Q242 373 224 319T184 211Q179 196 174 181T162 151L108 7Q106 3 105 2Z" />
<glyph unicode="0" glyph-name="zero" horiz-adv-x="513" d="M60 584T49 547T33 471T29 393T32 315Q33 270 36 225T53 140T95 67T174 15Q204 4 244 2Q291 -1 328 14T392 58T439 124T470 204T486 290T488 373Q490 402 488 431T480 493Q472 535 454 575T407 645T338
694T247 710Q196 708 159 687T92 631Q86 625 82 618Q60 584 49 547ZM108 40T88 200Q78 283 78 334T77 448Q80 478 83 495T93 533T132 611T274 667Q366 652 402 581T441 454T444 368T442 310Q440 284 439 261T431 206T381 109T257 40Q108 40 88 200Z" />
<glyph unicode="1" glyph-name="one" horiz-adv-x="307" d="M254 35T254 53T254 88Q254 203 259 315T261 542Q261 584 262 625T260 710Q194 711 171 710Q169 708 160 694T132 650T83 572T23 471Q23 466 45 459T72 452Q80 452 134 538T193 633T202 641Q203 636
203 632T203 623Q202 407 199 305T194 103V6V5Q214 3 228 4T253 5Q254 35 254 53Z" />
<glyph unicode="2" glyph-name="two" horiz-adv-x="498" d="M460 4T460 5Q457 16 458 26T454 63Q387 56 282 56T110 59Q106 61 106 68T109 88T121 116Q253 230 296 256T366 296T416 329T454 373T473 436Q474 456 473 480T471 526Q466 580 442 625T373 693Q346
704 306 708T223 709T144 691T87 651Q50 610 38 550T37 420V418H38Q72 414 93 422H94V424Q95 442 91 495T110 595T182 654T255 667Q326 669 367 643T419 542T426 433Q421 377 336 335T167 226T51 108Q35 82 32 56T30 2Q30 0 31 -1H76L456 4Q460 4 460 5Z" />
<glyph unicode="3" glyph-name="three" horiz-adv-x="492" d="M72 42T84 33T117 18Q131 14 144 10T172 4Q210 -1 254 -1T335 11Q372 23 396 47T435 104Q448 131 449 161T452 220Q455 301 455 383T454 551Q455 570 453 588T440 623Q423 653 390 673T315 702T229
709T145 691T75 649T32 582Q24 560 26 535T28 489V487Q30 487 40 488T82 489Q75 585 105 616T187 660T317 659T402 556T401 430T361 393T256 397T165 394V393Q167 402 166 380T170 344Q195 343 263 345T362 336T400 270T391 135T238 46T89 126T79 219L78 220H77Q60
217 30 219H29Q28 219 28 218Q29 187 31 163T37 115Q39 95 47 77T70 44Q72 42 84 33Z" />
<glyph unicode="4" glyph-name="four" horiz-adv-x="469" d="M384 326T384 345T384 421T386 525T389 611T391 677T392 704H390Q382 705 378 705T345 705T312 704Q311 704 311 703Q234 606 18 315Q12 296 17 265Q18 263 33 263T70 262T119 262T209 263T293 263T318
261Q318 259 316 188T312 92T309 48T307 13T307 -2Q370 -3 376 4Q377 8 378 23T378 58T378 121T381 199T384 245T385 256Q430 254 446 259L452 318Q440 318 391 320L385 319Q384 326 384 345ZM318 321T264 320T187 318T126 319T87 320Q88 322 148 400T262 549T325
634T336 642L325 322Q318 321 264 320Z" />
<glyph unicode="5" glyph-name="five" horiz-adv-x="503" d="M43 214Q37 182 37 156Q36 100 65 64T138 9T237 -9T339 7T424 55T470 134Q478 193 476 255T450 372T342 439T105 438H104L103 439L102 440Q98 446 97 539T94 641Q94 642 94 642T93 644V645V647H94Q100
647 169 648T266 649T325 651T385 652T435 654T464 656Q464 656 464 666T464 688T463 702Q456 703 423 703T344 703T246 701T148 699T71 697T37 696H36Q36 649 36 608T37 527T38 444T42 392Q42 391 44 391Q65 389 92 390T197 394T324 392T397 354T427 250T401 112T263
41T119 84T101 211Q101 212 101 213T100 215V216H43V214Z" />
<glyph unicode="6" glyph-name="six" horiz-adv-x="503" d="M476 250T468 273T445 311Q419 340 376 354Q287 376 200 345Q105 314 87 247V248Q88 276 86 312T85 409T91 534T190 641T370 636Q410 597 410 550T410 486V485H412Q431 480 460 485Q471 525 464 565T433
637T373 689T289 708Q253 708 217 700T148 677T90 638T51 585Q49 581 48 578T44 563T40 531T38 489Q35 440 33 387T33 281T45 182T73 96T122 33T197 -1Q252 -7 305 2T400 35T464 101T481 203L479 227Q476 250 468 273ZM433 206Q433 136 415 110T352 62T251 37T153
76T117 172T147 254T211 299T300 318T388 290T433 219V215V206Z" />
<glyph unicode="7" glyph-name="seven" horiz-adv-x="476" d="M54 652T86 653T206 655T329 655T394 653Q393 645 286 399T103 6Q118 2 132 4T168 7Q231 132 283 244T462 647Q462 675 462 704V705Q413 710 359 711T248 713T135 710T27 707V706Q26 676 27 651H29Q54
652 86 653Z" />
<glyph unicode="8" glyph-name="eight" horiz-adv-x="490" d="M463 523Q463 528 463 532T461 541Q459 555 457 565T451 592Q449 601 444 613T436 630Q427 644 420 652T408 666T396 676T383 685Q366 695 349 700T311 707T262 709T200 708Q159 706 128 687T75 636T43
567T33 490T47 415T87 352Q56 322 41 284T25 205T34 126T70 57Q86 35 112 20T170 -3T236 -12T303 -7T362 12T406 45Q433 75 447 115T461 198T441 279T386 345V346Q418 372 434 400T459 464Q461 471 462 479T463 495V513V519V523ZM405 107T396 99Q383 59 312 41Q277
35 238 34T161 45Q113 64 99 84T73 150T87 260T246 327Q319 322 345 307T393 263T417 205T411 138Q405 107 396 99ZM410 445T392 417T324 370Q286 364 241 364T157 379Q107 401 91 438T82 522T119 609T189 666Q239 677 292 673T376 638Q398 623 410 593T422 531T420
494Q420 486 418 482T416 475Q410 445 392 417Z" />
<glyph unicode="9" glyph-name="nine" horiz-adv-x="513" d="M473 522T468 570T440 653Q425 676 404 687T359 703T308 708T256 709Q201 707 150 689T66 632Q59 624 54 616T44 598Q35 576 31 547T28 488T37 428T59 378Q78 349 105 329T165 297T272 286T420 348L421
347Q419 318 419 294T419 175T341 56Q269 26 171 58T97 222Q65 223 30 222V217Q20 140 54 89Q71 64 99 45T162 14T235 -2T308 -2T375 17T427 57Q448 86 460 120T477 192Q481 225 479 257T476 323L474 471Q473 522 468 570ZM414 409T391 383T326 338T241 322T156
349T95 417Q85 444 82 474T76 535Q76 580 101 606T164 650Q207 671 255 670T347 654T408 596T422 506Q422 482 419 467Q414 409 391 383Z" />
<glyph unicode=":" glyph-name="colon" horiz-adv-x="205" d="M125 0V1V2Q125 9 126 28T128 67T130 102T131 119Q124 122 118 123T100 123T79 117Q79 110 79 95T78 63T77 29T80 1H83L123 0H125ZM126 336V337V338Q126 345 127 364T129 403T131 438T132 455Q125
458 119 459T101 459T80 453Q80 446 80 431T79 399T78 365T81 337H84L124 336H126Z" />
<glyph unicode=";" glyph-name="semicolon" horiz-adv-x="205" d="M130 336V337V338Q130 345 131 364T133 403T135 438T136 455Q129 458 122 459T102 459T78 453Q78 446 78 431T77 399T76 365T79 337H82L128 336H130ZM127 -16T128 -10T130 1Q130 2 130 2T131 4H133L137
119H136Q104 121 76 120H75V119Q73 78 73 56T72 22T71 8T71 4Q72 3 74 3L93 -1Q91 -15 88 -31T80 -61T74 -86T73 -98Q105 -98 110 -100Q112 -90 114 -81T118 -61L126 -21Q127 -16 128 -10Z" />
<glyph unicode="&lt;" glyph-name="less" horiz-adv-x="363" d="M250 92T188 152T76 267Q95 291 119 317T186 387T251 455T288 497Q285 504 276 513T258 528Q244 514 230 500T201 469Q178 445 153 420T103 369T55 319T13 270Q41 232 74 200T138 138T201 80T264
20L265 19L280 32L298 53Q250 92 188 152Z" />
<glyph unicode="=" glyph-name="equal" horiz-adv-x="466" d="M41 159T75 158T157 157T260 155T363 153T418 152T423 152H424Q422 182 421 210Q416 210 406 210T348 210T245 210T146 210T70 210T39 210Q39 207 39 193T37 175T36 159Q41 159 75 158ZM41 369T75
368T157 367T260 365T363 363T418 362T423 362H424Q422 392 421 420Q416 420 406 420T348 420T245 420T146 420T70 420T39 420Q39 417 39 403T37 385T36 369Q41 369 75 368Z" />
<glyph unicode="&gt;" glyph-name="greater" horiz-adv-x="363" d="M112 92T174 152T286 267Q267 291 243 317T176 387T111 455T74 497Q77 504 86 513T104 528Q118 514 132 500T161 469Q184 445 209 420T259 369T307 319T349 270Q321 232 288 200T224 138T161
80T98 20L97 19L82 32L64 53Q112 92 174 152Z" />
<glyph unicode="?" glyph-name="question" horiz-adv-x="451" d="M226 200T226 177H227L270 179V180Q268 188 271 222T288 282T323 336Q338 356 352 369T383 405Q400 427 413 453T430 511Q435 555 419 593T373 658T301 698T213 707Q170 705 135 687T74 639T33
574T16 499V498Q46 497 67 497Q65 537 91 591T187 661T298 662T366 607T389 526T367 453T311 379T255 308T229 232L226 205Q226 200 226 177ZM261 0V1V2Q261 9 262 28T264 67T266 102T267 119Q260 122 252 121T239 120T224 116Q224 109 224 94T223 62T222 28T225
0H228H259H261Z" />
<glyph unicode="@" glyph-name="at" horiz-adv-x="564" d="M379 472T364 475T333 479Q314 479 295 475T258 463T228 446T206 426Q166 380 164 315Q163 287 168 253T193 196Q226 160 278 160Q326 160 359 187Q364 180 369 175T377 167Q386 162 396 158T418 154Q461
155 490 176T527 236Q531 259 532 277T533 326V380Q533 408 532 438T524 497T506 554T470 602Q447 624 420 636T363 652Q343 655 322 657T280 659Q268 659 254 659T229 656Q187 651 149 638T83 590Q51 549 43 502T33 406V376Q33 328 35 287T40 195Q41 181 45 162T56
123T72 85T90 53Q114 21 149 3T224 -20Q257 -23 293 -23Q319 -23 344 -22T392 -15Q406 -13 424 -7T462 7T499 24T531 42L514 75Q496 66 474 57T428 41T383 28T342 21H343Q337 21 329 21T313 20Q288 20 253 21T171 49Q144 66 116 106T83 222Q77 277 77 300T77 355Q77
366 77 377T78 400Q79 421 80 444T88 499T109 553T139 589Q159 609 200 618T287 625T360 616T408 598T456 549T489 467T495 401V373Q496 359 496 345T496 313Q496 305 495 292T492 266T479 216Q410 185 406 211T403 262T404 304T403 354T404 399Q406 450 395 462L392
464Q379 472 364 475ZM210 292T214 327T238 393T291 431T363 438Q362 438 362 421T362 362T363 310Q363 273 359 244T300 204Q265 196 241 209T210 257V260Q210 292 214 327Z" />
<glyph unicode="A" glyph-name="A" horiz-adv-x="434" d="M358 368T351 397T336 461T320 534T304 605T290 665T280 705Q247 702 227 702T198 701T181 701T166 700Q133 620 113 539T76 383T47 242T25 124T11 41T4 2Q44 2 47 2T52 3Q63 64 67 87T83 172L348 169Q365
106 370 83T381 38T393 0H394Q391 -6 437 0V1L362 351Q358 368 351 397ZM215 210T158 211T88 213Q136 451 159 554T192 658T220 659T247 659T347 213Q215 210 158 211Z" />
<glyph unicode="B" glyph-name="B" horiz-adv-x="477" d="M390 337T388 341T390 352Q410 386 424 426T439 508Q439 564 421 602T372 665T301 701T216 714T127 710T42 693L41 692Q44 518 41 348T44 4Q49 2 54 2T66 2Q102 1 143 -2T226 -5T307 1T378 23T432 68T463
145Q469 177 465 203T451 250T426 291T395 331Q390 337 388 341ZM354 365T342 359T275 347T162 346T88 353Q79 388 82 514T83 664Q98 672 140 673T226 675T327 653T391 545T375 414Q354 365 342 359ZM377 66T354 54T275 35T164 34T93 41Q88 165 81 230T87 298Q203
305 222 305T306 304T395 233T404 126Q377 66 354 54Z" />
<glyph unicode="C" glyph-name="C" horiz-adv-x="488" d="M75 254T76 197Q78 89 137 55T269 28Q339 37 387 98T421 283Q444 284 465 287Q475 228 467 177T432 84T362 17T263 -11Q227 -16 189 -12T118 8T63 52T36 122Q34 158 33 197T32 284T31 394T33 537Q38 589
44 604Q53 630 66 652T99 691Q110 699 123 704T150 714Q196 729 241 726T325 706T397 659T448 593T471 511T471 420Q420 413 426 418Q428 433 425 480T417 553T373 628T212 680Q64 683 76 360Q75 254 76 197Z" />
<glyph unicode="D" glyph-name="D" horiz-adv-x="482" d="M375 646T346 669T284 701Q255 700 225 701T163 702T102 701T43 691Q42 690 42 689T40 687Q42 600 41 512T39 336T42 165T56 1Q57 2 57 2Q120 2 187 2T320 5Q358 52 392 105T437 188T447 218T448 219Q457
265 458 312T462 407Q461 423 460 438T453 470Q444 510 429 546T393 617Q375 646 346 669ZM391 161T358 122T290 50H259Q241 48 173 46T94 49Q92 79 86 201T83 356T87 508T80 657H81H88Q203 663 223 663T273 661T347 608T417 441Q425 369 418 296Q391 161 358 122Z"
/>
<glyph unicode="E" glyph-name="E" horiz-adv-x="481" d="M389 39T325 42T87 45L86 46Q90 165 89 227T92 319Q97 323 165 324T250 325T274 325T321 329Q320 326 320 335T319 364V365Q288 366 257 366T88 367L87 368Q80 395 86 509T91 652L92 653H95Q236 657 269
657T335 657T397 657T459 657L460 695Q460 696 440 697T387 698T311 697T222 695T131 693T46 689Q41 603 40 518T40 348T43 178T45 5Q142 -3 247 0T455 3L457 39V41Q389 39 325 42Z" />
<glyph unicode="F" glyph-name="F" horiz-adv-x="494" d="M354 320T354 325T355 342T353 358Q342 357 330 357T297 357T228 358T90 358Q89 358 88 359Q83 385 84 434T85 643Q197 649 232 651T303 654T373 654T489 648Q490 669 490 682Q462 689 423 693T340 697T251
697T165 692T92 686T43 680V679Q43 601 43 538T43 419T42 315T42 216T41 115T41 2L42 1Q46 -1 70 -2T77 -2T86 1Q87 58 88 120T87 314H88Q255 319 280 319T351 318H353Q354 320 354 325Z" />
<glyph unicode="G" glyph-name="G" horiz-adv-x="481" d="M241 347T241 347Q240 347 240 346V345Q242 327 245 317Q250 315 259 315T280 314T342 315T399 313Q402 312 402 304T406 286T412 233T411 124Q387 58 369 50T329 32T270 20T173 36Q151 50 142 56Q123
71 103 100T71 253Q68 290 69 330T73 404T77 477T86 541Q88 549 95 579T130 631T200 662T307 658T389 595T402 519T401 483Q433 472 440 472T449 475L450 481Q457 542 439 586T385 658T299 695T194 699Q167 695 142 687T97 662Q68 642 56 611T38 547Q33 515 31
482T28 416Q27 379 27 351T29 297T33 245T38 187Q40 167 43 148T50 117Q62 74 83 45T144 -1Q168 -11 194 -14T249 -15T304 -7T356 6Q394 20 420 47T451 125Q461 179 459 238T451 351L450 352H448Q438 352 410 354T348 358T286 358T243 348Q241 347 241 347Z" />
<glyph unicode="H" glyph-name="H" horiz-adv-x="499" d="M427 707T402 705Q401 509 406 362H405Q380 360 299 358T88 357H87Q77 492 73 697L43 699H41H40V698Q39 647 39 584T39 452T41 315T45 187T49 78T54 1Q68 1 93 2Q91 34 91 66T91 133T90 317Q224 326 318
321L409 322Q413 180 413 145T422 6H423Q452 3 469 6L442 706Q427 707 402 705Z" />
<glyph unicode="I" glyph-name="I" horiz-adv-x="260" d="M136 705T128 706Q126 706 123 707T104 708V706Q95 622 95 535T97 283T96 -4Q106 -1 119 -1T138 -1T154 1Q149 90 150 177T151 351T152 526T155 699V703Q136 705 128 706Z" />
<glyph unicode="J" glyph-name="J" horiz-adv-x="463" d="M379 703Q375 584 376 466T378 250Q377 235 375 191T353 101T231 39T93 74T54 176T47 245T43 280V285V286Q25 289 4 288Q2 250 5 205T22 118T60 44T126 0Q171 -10 221 -8T313 16Q359 33 382 69T415 149T426
240T429 329Q431 426 427 522T425 712L379 710V703Z" />
<glyph unicode="K" glyph-name="K" horiz-adv-x="459" d="M239 459T266 489T350 575T462 692H398Q372 660 338 627T242 535T139 438T98 401Q96 514 97 577T96 697L45 699Q46 524 41 351T43 5Q56 2 70 2T99 5Q99 33 96 106T96 236T98 322Q137 288 189 230T403 2L463
4L133 362Q239 459 266 489Z" />
<glyph unicode="L" glyph-name="L" horiz-adv-x="461" d="M456 32T456 43Q448 42 428 42T381 44T325 46T269 49T173 49T95 45V46Q99 219 99 287T97 425T96 562T97 696Q83 702 66 704T39 703Q40 633 41 576T43 467T44 367T44 266T41 153T36 17V-1Q157 -3 229 -3T343
-2T402 0T431 0Q442 0 454 1Q456 32 456 43Z" />
<glyph unicode="M" glyph-name="M" horiz-adv-x="501" d="M464 414T460 507T460 697Q444 697 424 696T397 695Q388 683 336 582T274 454T244 391Q219 445 171 542T114 660T96 691H95Q57 690 44 686Q43 550 43 448T42 272T41 148T41 68T43 22T45 3Q46 0 48 0L103
3Q97 96 96 192T89 613Q89 613 138 514T207 372T248 304Q252 304 260 323T326 460T392 595T407 624Q405 349 407 299T408 197T406 95T409 2Q421 2 431 2T456 -1L459 318Q464 414 460 507Z" />
<glyph unicode="N" glyph-name="N" horiz-adv-x="498" d="M455 -1T457 0V20Q451 66 456 100Q456 128 456 155T457 211Q457 254 457 297T456 382V704Q427 710 398 708Q398 683 400 662T407 347Q407 311 408 277T410 190Q410 173 410 124Q402 135 388 163T263 384T151
582Q142 603 129 627T109 664T96 694Q96 696 77 699T48 700Q43 636 41 569T39 432Q39 338 40 252T42 71V1Q65 1 78 -1T102 0Q101 17 101 38T101 83Q101 125 97 294T94 500T92 569Q95 587 98 578T119 533Q316 173 347 126T412 4Q455 -1 457 0Z" />
<glyph unicode="O" glyph-name="O" horiz-adv-x="483" d="M425 627T396 653Q367 675 331 686T256 700T179 695T107 671Q94 663 84 653Q53 618 43 573T31 482Q26 403 29 325T36 168Q37 139 41 111T60 57Q69 37 83 25T114 4T151 -7T192 -13Q221 -15 249 -13T306
-3Q337 5 364 19T409 58Q427 87 436 122T447 193L450 226Q454 278 453 328T455 431Q456 456 456 480T453 530Q451 546 448 561T437 592Q425 627 396 653ZM408 300Q408 298 406 241T402 163Q400 142 398 129T392 107T383 92T370 72Q355 55 333 42T242 22T141 35T100
75Q90 108 83 144T73 311Q71 444 76 486T90 566Q102 608 137 635Q210 668 262 663T334 649Q357 638 376 615T398 564Q399 547 400 528T402 507L408 439V300Z" />
<glyph unicode="P" glyph-name="P" horiz-adv-x="497" d="M481 548T458 588T400 654T318 694T224 712T127 711T37 695Q40 612 40 521T41 340T41 165T44 6Q61 4 68 4T89 9Q90 9 90 9T92 10V11Q90 84 90 127T89 195T89 234T88 262Q265 260 307 270T388 308T452 377T484
466V491Q481 548 458 588ZM342 657T379 633T436 532T421 401T347 326T208 303T87 301Q85 353 84 481T82 629T82 667Q113 676 186 677T298 669Q342 657 379 633Z" />
<glyph unicode="Q" glyph-name="Q" horiz-adv-x="495" d="M462 189T462 214T465 264Q467 294 467 315T468 368Q468 428 462 488T439 602Q422 642 404 664T364 698T315 711T253 714Q214 714 181 707T122 687T77 657T52 618Q42 582 38 542T32 462T30 382T30 307Q30
270 30 235T35 168T52 107T90 54Q105 40 119 30T150 13T186 1T231 -6Q246 -7 263 -5T295 1T322 11T340 24Q346 16 358 4T377 -8Q415 15 407 21T393 34T380 50Q445 115 451 139Q455 153 456 165Q462 189 462 214ZM293 91T306 77T320 57T308 42Q268 23 191 41T85
149Q77 181 75 204T71 253T70 296T71 328Q71 349 71 366T72 405T73 444T77 483Q79 508 82 551T106 623T180 663T309 669Q345 664 366 646T398 594Q418 519 426 438T430 263T402 134T360 79Q354 85 348 91T338 101T319 121L290 97Q293 91 306 77Z" />
<glyph unicode="R" glyph-name="R" horiz-adv-x="518" d="M363 150T320 184T168 312Q391 309 422 333T473 393Q504 445 503 500T475 602T402 679T296 713Q223 721 156 714T33 699Q35 686 36 650T39 562T41 449T43 325T44 204T44 100T43 28T40 0Q45 1 60 -1T103
3Q102 22 100 54T97 121T96 213T97 301L288 152L454 1Q467 3 517 3H516Q363 150 320 184ZM211 683T276 677T377 652T442 591T460 472T396 374Q334 347 92 367H91Q89 378 89 426T88 492T85 583T80 670Q211 683 276 677Z" />
<glyph unicode="S" glyph-name="S" horiz-adv-x="485" d="M477 549T451 598T377 672Q353 683 325 690T267 698T208 697T155 683Q107 663 74 622T28 531T29 430T96 349T225 323T356 309T418 218Q423 135 363 82T215 49T94 112T63 206Q40 208 12 206Q9 152 29 115T83
51T160 11T248 -5Q279 -6 308 0T363 21T409 57T441 110Q453 136 458 164T464 227T456 285T418 329T336 358T213 367T109 398T68 481T90 580T191 648T347 635T410 473Q431 470 462 474H463Q477 549 451 598Z" />
<glyph unicode="T" glyph-name="T" d="M329 706T221 706T10 704Q10 703 10 703T11 702Q9 678 11 666T16 650Q22 648 37 648T85 648T146 646T187 644V637Q192 392 193 293T195 131T193 35T193 -1Q215 4 226 4T257 6V7V8Q255 117 254 197T252 335T251 429T250 541T251
626T250 647Q334 647 372 648T429 645Q433 671 432 695Q329 706 221 706Z" />
<glyph unicode="U" glyph-name="U" horiz-adv-x="505" d="M457 676T420 671Q417 555 419 439T415 219T351 66T202 39T98 173T94 680Q56 680 41 680H40L41 679Q43 547 40 413T44 168Q46 122 67 79T124 17T206 -10T293 -14Q365 -7 407 39T457 151Q471 280 473 410T469
669Q457 676 420 671Z" />
<glyph unicode="V" glyph-name="V" horiz-adv-x="440" d="M428 687T411 687T394 686Q290 284 224 63Q178 200 143 330T90 565T69 690Q61 692 42 691T16 682V681Q59 471 91 339T189 3Q205 -2 224 -1T252 1Q306 161 350 316T445 684Q428 687 411 687Z" />
<glyph unicode="W" glyph-name="W" horiz-adv-x="465" d="M412 700T407 700T385 696V695Q381 651 377 585T369 456T350 244T332 54Q326 69 319 98T283 267T251 417Q225 417 225 416T224 413Q176 177 166 137T143 54Q131 94 112 258T88 538T79 699Q69 700 54 699T23
696V695Q26 522 49 349T96 5H97Q119 2 135 2Q149 2 160 3T184 7Q192 20 198 44T216 132T238 266H239Q253 174 264 117T298 3H310H346Q356 3 364 3T380 5Q394 179 412 351T446 696L445 697Q412 700 407 700Z" />
<glyph unicode="X" glyph-name="X" horiz-adv-x="436" d="M439 699T439 699T440 700H439Q409 701 392 699V698Q331 566 233 402Q170 494 121 579T66 685Q63 690 52 690T-1 689Q117 471 183 367Q75 127 46 83T6 1Q26 -2 42 2T57 2Q85 54 116 107T231 339Q276 274
379 -1Q402 0 424 2Q414 43 401 85T356 205T279 366Q388 575 406 614T439 698Q439 699 439 699Z" />
<glyph unicode="Y" glyph-name="Y" horiz-adv-x="435" d="M444 694T434 694T421 695T404 692Q395 670 359 583T255 347Q213 408 162 492T61 693Q56 695 46 694T16 692Q26 650 54 594T109 494T156 413T223 298Q183 195 101 0H103Q109 -1 129 0T156 0Q199 102 231
180T305 344T384 516T450 692V693Q444 694 434 694Z" />
<glyph unicode="Z" glyph-name="Z" horiz-adv-x="474" d="M456 655T451 694Q336 695 226 697T13 690Q15 665 14 654Q32 654 63 655T130 656T275 654T403 652Q379 611 313 497T177 270T35 48Q37 17 34 -1Q141 5 244 4T443 -2V0Q446 36 445 50Q309 51 280 51T224
50T169 47T93 46Q260 303 454 650Q456 655 451 694Z" />
<glyph unicode="[" glyph-name="bracketleft" horiz-adv-x="321" d="M296 33T292 50Q267 52 239 53T100 61V62Q100 162 98 233T95 363T100 597L103 658Q130 656 196 658T290 659H292H293L297 706Q268 703 238 704T178 706T116 708T53 705V704Q47 618 45 530T43
352T43 175T43 2V-2Q54 -1 74 -1T118 0T162 0T197 0L294 1Q296 33 292 50Z" />
<glyph unicode="\" glyph-name="backslash" horiz-adv-x="412" d="M312 3T313 2Q319 1 359 0Q356 6 353 15T345 41T333 71T326 90Q291 189 278 225T247 309T200 438Q189 467 163 547T128 654T113 709Q80 707 68 701Q70 696 71 693T74 683Q78 669 88 637T120 538Q130
510 139 483T157 428Q176 373 194 319T234 211Q239 196 244 181T256 151L310 7Q312 3 313 2Z" />
<glyph unicode="]" glyph-name="bracketright" horiz-adv-x="321" d="M25 33T29 50Q54 52 82 53T221 61V62Q221 162 223 233T226 363T221 597L218 658Q191 656 125 658T31 659H29H28L24 706Q53 703 83 704T143 706T205 708T268 705V704Q274 618 276 530T278 352T278
175T278 2V-2Q267 -1 247 -1T203 0T159 0T124 0L27 1Q25 33 29 50Z" />
<glyph unicode="^" glyph-name="asciicircum" horiz-adv-x="440" d="M163 636T118 593T11 478Q52 476 63 476T87 478Q92 479 133 523T184 577T205 600T222 614Q228 611 237 601T256 580T316 521T371 473Q396 476 412 478T430 479L220 689Q163 636 118 593Z" />
<glyph unicode="_" glyph-name="underscore" horiz-adv-x="650" d="M41 -105T41 -112T42 -132T43 -148Q44 -148 83 -148T181 -148T309 -149T441 -150T549 -150T607 -150Q607 -129 607 -119T611 -88H610Q606 -88 580 -88T515 -88T426 -88T326 -89T225 -90T137 -91T71
-92T41 -93Q41 -105 41 -112Z" />
<glyph unicode="`" glyph-name="grave" horiz-adv-x="255" d="M41 649T67 622T111 577T141 546T160 525Q188 522 203 523T225 527Q208 543 186 567T142 611T103 649T73 681L38 654Q41 649 67 622Z" />
<glyph unicode="a" glyph-name="a" horiz-adv-x="476" d="M407 500T405 500T396 501T389 499Q389 473 385 448Q375 466 366 473T341 488T269 497T187 497Q152 496 121 479T68 431T32 358T19 266Q19 226 27 179T54 92T99 25T166 -2Q201 -2 279 0T391 55Q391 45
391 33T391 10T399 -2Q398 -1 426 -1Q438 1 438 14T439 40Q446 147 442 251T441 464V474Q441 480 441 486T439 498Q407 500 405 500ZM85 388T130 426T243 461Q308 457 328 445T363 418T384 362T390 253Q390 199 390 156T367 86T314 48T236 39Q141 31 105 85T64
239Q64 264 65 290T74 341Q85 388 130 426Z" />
<glyph unicode="b" glyph-name="b" horiz-adv-x="464" d="M93 705T75 706T41 704V638Q41 555 39 472T36 309T34 151T35 1Q75 1 91 -1Q92 1 92 6Q92 16 93 41T88 106Q104 55 134 30T206 2T275 3Q332 7 365 32T414 97T436 186T443 285Q443 320 439 353T425 413T400
460T362 488Q335 498 303 500T214 503T128 469T96 426Q97 523 97 552T97 598T97 625T96 643T95 662T93 693V704Q93 705 75 706ZM393 296T394 274T396 232Q396 195 387 149T358 83T306 53T236 43Q190 43 155 81T107 157T94 241Q94 298 102 343T149 420T224 452Q296
452 342 431T391 349Q393 296 394 274Z" />
<glyph unicode="c" glyph-name="c" horiz-adv-x="442" d="M410 195T402 194T379 198Q380 181 379 133T342 51T205 25T86 99T71 188Q65 320 72 369T90 438T134 465Q257 473 322 458T384 289Q397 287 403 287T423 289Q422 322 422 350T417 402T406 442T384 469Q363
489 334 499T273 511Q252 513 234 512T195 512Q171 512 148 509T104 499T68 480T45 454Q42 444 36 425T29 395Q23 359 23 323Q23 257 23 234T26 171T38 95T75 35Q110 0 161 -9Q189 -9 223 -11T289 -12T348 1T393 35Q400 42 404 57T412 94T417 141T421 192Q410 195
402 194Z" />
<glyph unicode="d" glyph-name="d" horiz-adv-x="463" d="M375 669T376 632T378 586T379 417Q377 426 347 463T258 505T143 499T68 465T40 414T26 353T21 285Q22 235 27 186T49 98T99 33T189 3Q226 -2 289 6T373 75Q376 58 377 38T378 7Q378 2 379 0Q409 -4 429
1Q433 145 428 308T423 638V704Q377 708 376 700V689Q375 669 376 632ZM72 463T178 471T320 440T363 359T373 260Q373 211 371 172T345 100T296 57T224 47Q185 47 155 54T109 79T83 133T67 251Q67 254 67 326Q72 463 178 471Z" />
<glyph unicode="e" glyph-name="e" horiz-adv-x="444" d="M75 253T97 252T192 249T295 248T351 251T397 255T424 259Q427 301 424 342T407 417T364 475T290 507Q254 516 216 515T144 504T83 473T43 423Q31 390 28 356T21 284Q19 243 23 202T38 125T67 58T112 8Q136
-6 164 -10Q192 -10 225 -12T291 -12T350 0T394 34Q401 40 405 55T413 92T418 139T422 190Q411 193 398 191T375 190Q377 149 367 86T254 19T117 60T76 136T68 188T65 237V255Q75 253 97 252ZM355 440T372 397T391 316Q391 304 391 299T380 292T346 289T267 289Q193
286 157 287T96 291T70 302T71 336Q75 365 84 392T114 438T164 467T242 479Q265 479 279 477T315 467Q355 440 372 397Z" />
<glyph unicode="f" glyph-name="f" horiz-adv-x="379" d="M171 391Q202 390 259 389T370 391Q371 427 373 438L175 436Q173 593 179 617T235 642T325 642T377 641Q379 655 379 664T374 688Q327 690 214 688Q128 688 126 596T126 439Q110 440 71 440T11 441L14
391Q34 392 73 391T128 391Q128 376 128 332T127 253T126 179T126 107T127 45T130 5Q143 3 154 3T160 4T171 2V136V391Z" />
<glyph unicode="g" glyph-name="g" horiz-adv-x="467" d="M66 254T66 270T70 303Q79 379 89 398T131 438T197 461T264 462T320 453T373 401Q386 374 386 292T385 157T379 89T359 64T328 49Q277 35 192 33T75 104Q61 178 66 224V239Q66 254 66 270ZM320 -199T334
-196T362 -186T390 -165T419 -130Q429 -114 428 -91T428 -43Q434 101 434 237T429 499H382Q379 494 379 486T380 469T381 455T376 451Q364 479 337 489T189 497Q125 493 91 461T42 381T24 279T22 178Q24 147 30 118T50 61Q59 42 73 30T104 11T141 1T180 -2Q194
-1 253 1T332 6T364 13T388 29Q386 11 388 -6Q389 -14 388 -24T387 -94T258 -158T107 -116T86 -43Q55 -38 45 -42Q44 -50 44 -61T47 -84T53 -107T61 -126Q84 -160 121 -180T205 -200Q246 -200 272 -201T308 -200Q320 -199 334 -196Z" />
<glyph unicode="h" glyph-name="h" horiz-adv-x="448" d="M85 466T85 489T85 527T84 575T84 638T84 689T83 716Q83 719 75 719T58 721T36 723Q35 679 35 620T34 493T34 356T34 219T35 96T36 -3Q60 -1 60 -2T83 1V5Q84 171 82 244T94 372T159 453T288 467T368 382T367
257Q366 141 366 110T365 50T367 -2Q379 -3 414 2Q412 36 413 81T415 174T416 270T416 358T409 426T393 464Q372 482 336 495T229 509T130 488T85 448Q85 466 85 489Z" />
<glyph unicode="i" glyph-name="i" horiz-adv-x="207" d="M91 505T87 504V503Q81 444 82 382T83 267T83 161T83 -2Q90 0 101 1T139 0Q131 127 134 253T139 500V503Q91 505 87 504ZM82 673T84 642T87 581Q102 581 138 583Q137 607 137 625T137 662T136 696T135
718L83 719Q82 673 84 642Z" />
<glyph unicode="j" glyph-name="j" horiz-adv-x="204" d="M124 261T126 158T122 -21T83 -113T-4 -134T-80 -139T-120 -139Q-122 -153 -120 -187Q-80 -189 -37 -187T44 -175T111 -148T154 -99Q168 -41 168 -2T169 81T170 169T169 263Q167 281 168 311T169 375T170
442T167 500Q154 502 125 500L127 361Q124 261 126 158ZM114 673T116 642T119 585Q138 582 151 583T168 590Q168 605 168 624T167 662T166 696T165 718L115 719Q114 673 116 642Z" />
<glyph unicode="k" glyph-name="k" horiz-adv-x="435" d="M411 -5T420 -3T443 0Q363 71 312 115T113 285Q241 373 272 396T434 512Q420 513 375 514Q334 487 271 444T79 310Q76 333 77 404T79 509V728Q53 726 38 726Q39 544 35 365T38 0Q60 0 84 2Q81 35 81 56T81
103T80 183T79 259Q236 129 287 85T386 -4Q411 -5 420 -3Z" />
<glyph unicode="l" glyph-name="l" horiz-adv-x="206" d="M75 636T75 545T79 363T83 181T78 0Q85 2 93 1T112 -1T128 6Q126 46 125 103T124 227T124 364T126 501T128 625T129 724L84 727Q75 636 75 545Z" />
<glyph unicode="m" glyph-name="m" horiz-adv-x="684" d="M90 454T90 465T89 493Q89 496 81 496T61 497T36 498Q32 366 34 243T37 -3Q61 -1 84 -3V1Q84 51 84 80T84 138T84 200T85 269Q87 296 86 333T118 410T222 454T313 430T331 334T327 204T325 110T324 50T326
-2Q356 -2 377 1Q375 31 375 72T377 155T379 241T378 314Q377 361 381 395T424 448T525 462T599 418Q609 388 609 345T609 289Q608 204 607 173T605 110T604 50T606 -2Q626 -3 650 2Q648 36 649 81T651 174T652 270T652 358T645 426T629 464Q608 482 582 489T491
497T398 487T361 466T348 454Q343 466 338 471Q317 489 282 494T205 496T136 478T91 440Q90 454 90 465Z" />
<glyph unicode="n" glyph-name="n" horiz-adv-x="450" d="M96 456T96 467T95 495Q95 498 87 498T64 498T37 498Q33 366 35 243T38 -3Q62 -1 93 -1V3Q94 36 94 69T93 135T90 235T91 337Q93 364 106 387T151 427T273 451T366 390T369 280T367 192T364 112T363 52T365
0Q404 0 416 2Q414 36 415 81T417 174T418 270T418 358T411 426T395 464Q374 482 348 489T295 495T205 483T122 457Q117 453 110 449T97 442Q96 456 96 467Z" />
<glyph unicode="o" glyph-name="o" horiz-adv-x="448" d="M37 434T34 421T29 397Q26 378 25 361T24 325Q27 292 26 252T26 173T38 97T75 37Q110 2 161 -7Q189 -7 223 -9T289 -10T348 3T393 37Q403 47 408 74T417 135T422 206T425 272Q424 305 423 336T418 394T406
441T384 470Q363 490 334 500T273 513Q252 515 234 514T195 514Q171 514 148 511T104 501T68 482T45 456Q37 434 34 421ZM116 465T194 476Q260 482 318 465T377 378Q384 298 382 247T379 157Q379 59 326 41Q291 29 251 27T178 28T115 51T76 133Q65 236 64 286T67
369T90 432Q116 465 194 476Z" />
<glyph unicode="p" glyph-name="p" horiz-adv-x="464" d="M87 -170T87 -160T88 -141T89 -123T90 -96T90 -49T89 27Q91 18 111 11T200 1T302 -1T362 12Q384 20 399 39T424 86T438 147T443 215Q443 277 437 320T415 402T365 467T275 497Q247 501 190 495T101 456Q90
440 91 447T91 460Q90 483 90 493Q90 498 89 500Q66 499 35 499Q33 427 33 350T35 192T39 28T41 -138V-204Q57 -207 71 -207T86 -201V-190Q87 -170 87 -160ZM369 47T329 42T207 37Q165 37 138 49T99 78T85 130T82 226Q82 275 82 315T96 385T143 435T220 461Q277
467 321 451T380 385T399 303T405 233T397 124Q369 47 329 42Z" />
<glyph unicode="q" glyph-name="q" horiz-adv-x="463" d="M376 -170T376 -160T375 -141T374 -123T373 -96T373 -49T374 27Q372 18 352 11T263 1T161 -1T101 12Q79 20 64 39T39 86T25 147T20 215Q20 277 26 320T48 402T98 467T188 497Q216 501 273 495T362 456Q373
440 372 447T372 460Q373 483 373 493Q373 498 374 500Q397 499 428 499Q430 427 430 350T428 192T424 28T422 -138V-204Q406 -207 392 -207T377 -201V-190Q376 -170 376 -160ZM94 47T134 42T256 37Q298 37 325 49T364 78T378 130T381 226Q381 275 381 315T367
385T320 435T243 461Q186 467 142 451T83 385T64 303T58 233T66 124Q94 47 134 42Z" />
<glyph unicode="r" glyph-name="r" horiz-adv-x="296" d="M83 469T83 472T82 477T82 484T82 496Q82 498 74 498T57 498T37 498Q33 366 35 243T38 -3Q65 -5 82 0V4Q82 41 82 125T82 240T81 303T79 363Q77 410 87 422T124 442T170 453T215 456T257 449L268 443Q268
463 268 494Q268 495 254 495T218 495T173 491T130 481Q116 476 102 470T83 462Q83 469 83 472Z" />
<glyph unicode="s" glyph-name="s" horiz-adv-x="450" d="M436 400T416 442T363 499T295 517T230 520T172 517T125 509Q76 496 50 459T22 379T48 300T132 245Q160 233 193 231T281 230T364 209T392 144T352 58T212 20T82 73T56 158Q44 161 11 157V155V152Q11 112
27 80T73 26T144 -7T236 -16Q294 -17 343 4T415 74Q434 129 429 166T389 238T267 270T143 282T89 318T69 370T81 433T170 482T311 476T385 407T389 347Q413 341 436 346Q436 400 416 442Z" />
<glyph unicode="t" glyph-name="t" horiz-adv-x="387" d="M173 686T172 686T157 685Q155 666 155 642T154 587T155 517T156 455Q140 455 89 456T17 458L14 416Q35 416 86 415T154 415Q153 325 155 244T160 100T192 18T277 -2T373 0Q378 15 373 40Q356 39 334 40T260
41T205 95Q202 128 202 242T202 421L373 419Q376 438 375 447T371 464Q316 461 274 460T200 458Q200 473 200 487T199 514V686Q173 686 172 686Z" />
<glyph unicode="u" glyph-name="u" horiz-adv-x="450" d="M369 39T370 0Q370 -3 375 -3T386 -3T413 2Q417 134 415 257T412 503Q387 501 369 496V492Q370 459 370 426T372 322T375 217T373 139T299 63T150 40T74 158T75 311T75 386T76 446T74 498H34Q36 464 35
419T33 326T32 230T32 142T38 77T59 34T102 9T173 2T270 11T342 35T368 53Q369 39 370 0Z" />
<glyph unicode="v" glyph-name="v" horiz-adv-x="429" d="M42 496T11 500Q43 382 55 349T186 2Q211 2 219 2T243 4Q310 175 333 233T382 366T428 499Q407 500 385 497Q340 365 304 269T249 126T216 51Q192 104 163 175T55 499Q42 496 11 500Z" />
<glyph unicode="w" glyph-name="w" horiz-adv-x="683" d="M71 218T115 -3Q134 -3 178 -3Q261 214 350 462Q456 161 507 -2Q526 -2 531 -3T557 -1Q607 187 620 243T682 499Q642 502 624 501Q593 351 532 57Q456 308 431 385T398 499Q383 502 346 502T309 501T270
384T151 43Q125 179 116 222T100 314T85 408T71 498L11 500Q71 218 115 -3Z" />
<glyph unicode="x" glyph-name="x" horiz-adv-x="413" d="M413 500T413 501H412Q399 501 384 501T359 499Q263 369 211 295Q147 373 54 495Q53 496 45 496L2 497Q65 421 81 398T184 260Q132 176 103 137T9 1Q48 1 57 1L210 222Q261 154 351 2H352Q362 1 379 1T401
0Q351 82 338 103T237 259Q301 354 339 407T412 500Q413 500 413 501Z" />
<glyph unicode="y" glyph-name="y" horiz-adv-x="449" d="M34 502T3 500Q34 387 64 295T178 -53Q189 -92 135 -116T-7 -129Q-16 -153 -6 -177Q79 -182 137 -164T235 -112T299 -30T338 69T364 175T387 279T412 384T441 499L391 496Q379 466 324 219T230 -33Q202
-13 55 498Q34 502 3 500Z" />
<glyph unicode="z" glyph-name="z" horiz-adv-x="456" d="M430 499T413 499T306 498Q252 498 181 498T28 497Q29 475 28 449Q50 452 164 452T308 453T382 456Q339 404 256 317T110 154T23 47Q25 24 24 1Q72 1 124 1T229 3T333 5T431 7L430 54Q376 46 256 49T86
48Q244 239 326 322T434 453V497Q430 499 413 499Z" />
<glyph unicode="{" glyph-name="braceleft" horiz-adv-x="318" d="M294 24T292 35Q194 49 182 60T165 87T158 121T158 157Q160 199 152 249T89 346Q151 389 159 435T165 511T162 570T171 619Q183 653 229 649T291 649Q293 651 289 678Q265 680 243 680T192 676Q173
673 159 663T136 637T125 602T126 562Q129 499 127 468T113 411T78 372T15 361Q11 352 13 323Q15 322 21 322Q60 324 82 306T115 259T126 183T123 108Q122 85 133 64T165 28T218 4T292 1Q294 24 292 35Z" />
<glyph unicode="|" glyph-name="bar" horiz-adv-x="201" d="M133 -24T133 10T133 96T133 215T133 350T133 485T132 603T132 690T131 728V729L82 726V601Q82 592 82 561T82 485T82 384T82 273T82 163T82 68T82 2T82 -25Q85 -25 97 -25T124 -28H133Q133 -24 133 10Z" />
<glyph unicode="}" glyph-name="braceright" horiz-adv-x="318" d="M23 24T25 35Q123 49 135 60T152 87T159 121T159 157Q157 199 165 249T228 346Q166 389 158 435T152 511T155 570T146 619Q134 653 88 649T26 649Q24 651 28 678Q52 680 74 680T125 676Q144 673
158 663T181 637T192 602T191 562Q188 499 190 468T204 411T239 372T302 361Q306 352 304 323Q302 322 296 322Q257 324 235 306T202 259T191 183T194 108Q195 85 184 64T152 28T99 4T25 1Q23 24 25 35Z" />
<glyph unicode="~" glyph-name="asciitilde" horiz-adv-x="570" d="M87 204T110 249T182 306Q210 311 232 300T275 232Q301 147 338 136T417 130Q450 136 475 157T516 208T538 272T539 339V341L491 339Q498 288 485 237T409 174T330 221T301 298T270 330Q249 345
226 349T180 350T134 335T95 306Q82 291 71 269T49 223T30 176T17 138Q36 140 47 140T74 138V140Q87 204 110 249Z" />
<glyph unicode="&#xa0;" glyph-name="uni00A0" horiz-adv-x="200" />
<glyph unicode="&#xa1;" glyph-name="exclamdown" horiz-adv-x="216" d="M113 631T120 631H127Q127 602 128 571T130 511Q115 511 104 510T80 513V514Q80 528 78 548T75 586T74 618T77 631Q113 631 120 631ZM80 -2T80 65T80 198T81 330T81 462H82Q99 461 107 461T134
457Q128 329 129 193T133 -72Q115 -74 108 -73T87 -70H84Q80 -2 80 65Z" />
<glyph unicode="&#xa2;" glyph-name="cent" horiz-adv-x="350" d="M162 450T162 337Q161 227 160 118Q129 121 102 137Q62 160 62 233Q61 271 62 343Q53 561 160 559Q162 450 162 337ZM195 655Q183 654 178 653T159 649Q160 620 160 590Q136 590 111 582Q102 579
93 576T77 566Q64 555 55 540T40 508Q36 498 33 462Q32 408 32 367T31 293T32 234T34 183Q37 154 52 135T89 106T137 92Q149 90 160 90V25Q182 25 192 28H194Q195 57 195 92Q227 95 253 111Q283 129 301 156T325 219T324 293Q310 292 294 291Q304 207 271 166Q240
127 196 119Q196 155 196 187Q197 266 197 343T195 499Q195 527 195 560Q243 547 261 524Q287 491 291 474T297 424T297 382Q294 379 328 384Q330 415 328 445T313 500T279 544T230 576Q213 585 195 589L196 655H195Z" />
<glyph unicode="&#xa3;" glyph-name="sterling" horiz-adv-x="486" d="M152 337T136 338T93 340T50 340T20 332Q19 331 19 329Q18 326 18 320T21 275Q23 274 28 274T48 274T98 274T172 273Q174 184 176 123T174 11Q179 7 199 5T244 3T326 2T460 2Q461 6 462 12T468
54Q465 54 452 55T420 57T379 59T320 62T268 63T248 65Q247 66 245 75T240 165T236 256T237 269Q245 269 253 269T274 270T328 271T404 270Q401 273 404 292T405 334H404Q398 332 391 331T370 330T316 332T238 335Q240 415 240 504T238 674V675Q225 672 224 671T217
669T197 668T180 669Q178 663 177 632T175 558T174 449T176 339H175H170H167Q152 337 136 338Z" />
<glyph unicode="&#xa4;" glyph-name="currency" horiz-adv-x="607" d="M105 575T94 586T61 621L18 578Q31 560 37 553T50 540T65 525T92 491Q86 468 83 437T78 373T78 309T81 209Q83 196 85 184T92 156V155Q87 149 82 142T69 125T48 101T18 66Q59 18 67 19Q92
53 108 75T136 112Q259 92 343 98T474 114Q514 41 533 20Q540 19 588 61Q573 83 558 99T513 156Q533 211 534 236T536 299Q530 406 526 426Q520 459 506 484Q528 509 549 533T589 578L549 621Q526 596 512 583T473 547Q444 552 382 560T277 564Q205 560 174 553T134
544Q105 575 94 586ZM253 512T306 512T414 496Q439 488 456 464Q477 435 479 376T482 247T407 154Q369 148 310 147T212 149Q171 156 151 184T131 250Q126 376 133 419Q146 484 205 502Q253 512 306 512Z" />
<glyph unicode="&#xa5;" glyph-name="yen" horiz-adv-x="530" d="M28 120T66 119T159 117Q185 117 212 116Q189 63 163 0H165Q171 -1 191 0T218 0Q244 62 266 116H276Q339 115 393 114T456 113H463Q461 144 459 173H290Q292 177 293 180Q307 214 322 249Q359 248
393 248Q448 247 456 247H463Q461 278 459 307H349Q358 325 367 344Q408 430 446 516T512 692V693Q506 694 496 694T483 695T466 692Q457 670 421 583T317 347Q275 408 224 492T123 693Q118 695 108 694T78 692Q88 650 116 594T171 494T218 412Q238 378 280 307H25Q25
304 25 290T23 271T22 254Q28 254 66 253T159 251Q209 251 266 250Q252 216 235 173H25Q25 170 25 156T23 137T22 120Q28 120 66 119Z" />
<glyph unicode="&#xa6;" glyph-name="brokenbar" horiz-adv-x="147" />
<glyph unicode="&#xa7;" glyph-name="section" horiz-adv-x="867" />
<glyph unicode="&#xa8;" glyph-name="dieresis" horiz-adv-x="349" d="M117 521V522V523Q117 530 118 546T120 579T122 610T123 624Q116 627 99 627T72 623Q72 617 72 604T71 576T70 547T73 522H76L115 521H117ZM275 521V522V523Q275 530 276 546T278 579T280
610T281 624Q274 627 257 627T230 623Q230 617 230 604T229 576T228 547T231 522H234L273 521H275Z" />
<glyph unicode="&#xa9;" glyph-name="copyright" horiz-adv-x="553" d="M510 290T515 333T519 417T504 493T456 553Q453 555 450 557T444 561Q424 574 403 581T361 593Q321 601 280 600T198 596Q163 591 131 576T77 532Q44 493 40 446Q36 395 36 346T45 247Q50
205 76 176T147 127Q173 119 200 116T255 113Q281 115 308 116T363 122T414 137T458 168Q494 202 506 249Q510 290 515 333ZM483 487T484 463T487 414Q488 382 487 348T483 283Q479 262 473 240T455 201T424 172T383 155Q339 146 292 146T204 142Q181 143 159 150T120
170T92 200T81 238Q78 292 75 347T79 457Q83 492 109 520T177 556Q180 556 180 556T183 557Q274 568 365 557Q396 551 424 538T465 507Q483 487 484 463ZM216 258T233 246T277 236Q298 239 311 257T325 311Q325 324 324 331Q341 331 358 334Q360 325 360 307Q360
264 338 234T276 202Q272 201 263 201Q233 201 209 216T181 260Q178 292 178 334Q178 349 180 415Q181 431 184 443Q192 465 209 480Q220 488 232 491H230Q243 495 263 495Q304 495 333 465T362 393Q362 377 358 364Q348 362 342 362Q338 362 326 364Q327 374 326
392T323 419Q322 427 308 444Q298 459 255 459Q211 459 216 349L215 315L216 289Q216 258 233 246Z" />
<glyph unicode="&#xaa;" glyph-name="ordfeminine" horiz-adv-x="276" d="M218 719T217 719T213 720T210 719Q210 706 208 693Q203 702 199 706T187 713T152 717T112 718Q95 717 81 709T55 685T38 648T31 602Q31 582 35 558T48 514T70 481T102 467Q119 467 157
468T211 496Q211 491 211 485T211 473T214 467Q214 468 227 468Q233 469 233 475T234 488Q237 542 235 594T235 701V706Q235 709 235 712T234 718Q218 719 217 719ZM63 663T85 682T139 700Q171 698 180 692T197 678T207 650T210 595Q210 568 210 547T199 511T174
492T136 488Q90 484 73 511T53 588Q53 601 54 614T58 640Q63 663 85 682Z" />
<glyph unicode="&#xab;" glyph-name="guillemotleft" horiz-adv-x="583" d="M516 92T454 152T342 267Q361 291 385 317T452 387T517 455T554 497Q551 504 542 513T524 528Q510 514 496 500T467 469Q444 445 419 420T369 369T321 319T279 270Q307 232 340 200T404
138T467 80T530 20L531 19L546 32L564 53Q516 92 454 152ZM292 92T230 152T118 267Q137 291 161 317T228 387T293 455T330 497Q327 504 318 513T300 528Q286 514 272 500T243 469Q220 445 195 420T145 369T97 319T55 270Q83 232 116 200T180 138T243 80T306 20L307
19L322 32L340 53Q292 92 230 152Z" />
<glyph unicode="&#xac;" glyph-name="logicalnot" horiz-adv-x="471" d="M431 251T431 266T432 303T432 351T433 401T434 443T434 467H433Q433 468 433 468T434 470Q431 470 400 470T324 471T227 471T130 472T54 472T20 472Q20 466 20 457T20 440T21 425T21 417Q21
417 39 417T88 416T157 415T234 414T310 413T375 412Q375 390 375 363T375 312T376 271T376 251H431Q431 251 431 266Z" />
<glyph unicode="&#xad;" glyph-name="uni00AD" horiz-adv-x="369" d="M36 298T36 289T36 272T37 257T37 249Q37 249 57 249T108 249T175 248T244 248T301 248T331 248Q331 258 331 264T331 277T331 289T333 306Q330 306 308 306T253 306T184 306T115 305T61 304T36
304Q36 298 36 289Z" />
<glyph unicode="&#xae;" glyph-name="registered" horiz-adv-x="553" d="M510 290T515 333T519 417T504 493T456 553Q453 555 450 557T444 561Q424 574 403 581T361 593Q321 601 280 600T198 596Q163 591 131 576T77 532Q44 493 40 446Q36 395 36 346T45 247Q50
205 76 176T147 127Q173 119 200 116T255 113Q281 115 308 116T363 122T414 137T458 168Q494 202 506 249Q510 290 515 333ZM483 487T484 463T487 414Q488 382 487 348T483 283Q479 262 473 240T455 201T424 172T383 155Q339 146 292 146T204 142Q181 143 159 150T120
170T92 200T81 238Q78 292 75 347T79 457Q83 492 109 520T177 556Q180 556 180 556T183 557Q274 568 365 557Q396 551 424 538T465 507Q483 487 484 463ZM286 309Q279 316 264 328Q330 330 345 339Q359 349 368 367L367 366Q382 389 382 413Q382 448 355 475T289
508Q281 509 264 509Q231 509 191 503L172 502Q175 485 177 419T179 292Q179 252 184 204L195 203Q205 203 221 207Q221 229 220 239Q218 253 218 262L219 300V315L239 299Q261 281 280 267L349 203Q353 204 360 203T378 202Q392 202 400 204Q314 286 304 294L286
309ZM331 460T337 446Q345 435 345 417Q345 399 340 387T325 371Q313 367 276 367Q240 367 215 368Q214 369 214 371Q214 371 214 373T215 384V410L214 423L213 446L212 464V472Q244 475 263 475Q296 475 316 466Q331 460 337 446Z" />
<glyph unicode="&#xb0;" glyph-name="degree" horiz-adv-x="298" d="M106 402T134 402T192 406Q197 407 202 408T212 411Q231 418 242 430T261 459T270 494T273 530Q273 541 273 552T271 574Q269 588 264 600T247 621Q235 632 219 638Q214 640 210 641T201 645Q191
648 181 649T160 650Q150 650 141 650T121 649Q118 649 115 649T108 648Q81 643 61 628T32 588Q25 563 26 535T29 480Q30 473 31 466T35 451Q46 426 79 410Q106 402 134 402ZM121 621T151 621T209 614Q222 610 232 596Q245 582 246 566T245 533Q243 521 242 511T239
489Q235 468 226 453T191 435H190Q187 435 185 434T179 432Q158 430 139 430T100 430Q80 432 68 448T56 484Q56 506 56 528T57 573Q65 605 95 617Q121 621 151 621Z" />
<glyph unicode="&#xb1;" glyph-name="plusminus" horiz-adv-x="501" d="M223 256T231 255T256 254T274 257V259Q274 266 275 283T278 333T281 393T281 428Q286 431 306 431T367 432T425 432T445 435Q449 460 449 486Q438 488 409 488T355 489T313 489T283 490Q281
495 281 553T281 631T281 661Q273 662 261 662T240 661T231 665Q230 660 230 657T228 647Q227 637 227 625T228 557T227 490Q224 489 205 487T137 484T69 481T47 480Q47 477 48 461T50 442T50 437Q54 435 70 433T131 430T192 428T214 427H216Q217 426 217 421T218
407Q219 371 219 357T219 319T218 285T220 258Q220 256 220 256T221 255Q223 256 231 255ZM30 63T64 62T146 61T249 59T352 57T434 56T473 56H474Q472 86 471 114Q459 114 422 114T337 114T234 114T135 114T59 114T28 114Q28 111 28 97T26 79T25 63Q30 63 64 62Z"
/>
<glyph unicode="&#xb2;" glyph-name="uni00B2" horiz-adv-x="264" d="M225 338T225 338Q224 343 224 347T223 364Q192 361 145 361T68 362Q67 363 67 366T68 375T73 388Q133 439 152 450T183 468T206 483T223 503T231 531Q231 541 231 552T230 572Q228 597 218
616T186 647Q174 652 156 654T119 655T84 647T58 628Q41 610 36 583T35 524V524H36Q51 522 61 525V525V526Q61 535 60 558T68 603T100 630T134 636Q165 636 183 625T207 580T210 530Q207 505 169 486T94 437T42 384Q34 372 33 361T33 337Q33 336 33 335H53L224
338Q225 338 225 338Z" />
<glyph unicode="&#xb3;" glyph-name="uni00B3" horiz-adv-x="254" d="M46 347T51 343T67 336Q73 334 79 332T92 330Q109 327 129 327T167 332Q184 338 195 349T213 376Q219 387 219 401T221 428Q222 466 222 504T222 581Q222 589 221 597T215 614Q207 628 192
636T157 649T118 653T79 645T47 626T27 594Q24 585 25 573T26 552V551Q27 551 32 551T50 552Q48 596 61 610T98 630T158 630T198 583T197 525T179 508T131 509T89 508V508Q90 512 90 502T91 485Q102 485 133 486T179 482T197 452T193 390T123 349T54 385T50 428H49V428Q40
427 27 428V428Q26 428 26 427Q27 413 27 402T30 381Q31 371 34 363T45 347Q46 347 51 343Z" />
<glyph unicode="&#xb4;" glyph-name="acute" horiz-adv-x="255" d="M218 647T192 620T148 575T118 544T99 523Q71 520 56 521T34 525Q51 541 73 565T117 609T156 647T186 679L220 643Q218 647 192 620Z" />
<glyph unicode="&#xb5;" glyph-name="uni00B5" horiz-adv-x="458" d="M369 39T370 0Q370 -3 375 -3T386 -3T413 2Q417 134 415 257T412 503Q387 501 369 496V492Q370 459 370 426T372 322T375 217T373 139T299 63T150 40T74 158T75 311V336Q76 428 77 460L79 498H34Q36
464 35 419T29 259Q34 -75 27 -165Q34 -163 42 -164T61 -166T77 -159Q75 -119 74 -61Q73 -22 73 21Q85 13 102 9Q128 2 173 2T270 11T342 35T368 53Q369 39 370 0Z" />
<glyph unicode="&#xb6;" glyph-name="paragraph" horiz-adv-x="672" d="M219 727Q200 726 180 726T142 725T107 720T77 711Q40 694 28 645Q20 582 19 551T18 481T83 437Q82 250 82 178T82 35T80 -97T74 -207Q81 -205 113 -206T151 -201Q149 -168 149 -114T148
7T148 150T150 302T152 491T154 664L491 666Q488 572 488 426T487 174T486 -29T478 -204Q485 -202 515 -203T550 -198Q548 -166 548 -112T547 8T548 150T550 302T553 492T555 665Q572 664 588 663T618 662T642 665T655 672Q655 687 654 704T652 728L557 730L395
728L219 727Z" />
<glyph unicode="&#xb7;" glyph-name="middot" horiz-adv-x="164" d="M56 347T58 316T61 255Q80 256 84 255T96 256T108 264Q108 279 108 298T107 336T106 370T105 392L57 393Q56 347 58 316Z" />
<glyph unicode="&#xb8;" glyph-name="cedilla" horiz-adv-x="190" d="M99 -1T94 0Q86 -22 83 -32T77 -53T66 -85T43 -147Q43 -148 57 -148T76 -148T89 -148V-147Q92 -138 99 -118T113 -75T127 -33T136 -6H137Q99 -1 94 0Z" />
<glyph unicode="&#xb9;" glyph-name="uni00B9" horiz-adv-x="187" d="M124 353T124 360T124 375Q124 423 126 471T127 568Q127 586 127 603T127 639Q99 640 89 639Q88 638 84 632T73 614T52 582T26 538Q26 536 35 533T47 530Q50 530 73 567T99 607T103 611Q103
609 103 607T103 603Q103 511 102 467T99 381V340V340Q107 339 113 339T124 340Q124 353 124 360Z" />
<glyph unicode="&#xba;" glyph-name="ordmasculine" horiz-adv-x="254" d="M41 590T36 574T29 540T27 506T29 472Q29 453 31 433T38 396T55 365T90 342Q104 337 122 336Q141 335 157 341T185 360T206 389T219 424T226 461T227 498Q228 510 227 523T223 549Q220
568 213 585T192 616T162 637T122 644Q100 643 84 634T55 610Q53 607 51 604Q41 590 36 574ZM61 352T53 422Q48 458 48 480T48 530Q50 544 51 551T55 567T72 601T134 625Q173 618 189 588T207 533T208 495T207 470Q206 458 206 448T202 425T181 383T126 352Q61
352 53 422Z" />
<glyph unicode="&#xbb;" glyph-name="guillemotright" horiz-adv-x="583" d="M65 92T127 152T239 267Q220 291 196 317T129 387T64 455T27 497Q30 504 39 513T57 528Q71 514 85 500T114 469Q137 445 162 420T212 369T260 319T302 270Q274 232 241 200T177 138T114
80T51 20L50 19L35 32L17 53Q65 92 127 152ZM289 92T351 152T463 267Q444 291 420 317T353 387T288 455T251 497Q254 504 263 513T281 528Q295 514 309 500T338 469Q361 445 386 420T436 369T484 319T526 270Q498 232 465 200T401 138T338 80T275 20L274 19L259
32L241 53Q289 92 351 152Z" />
<glyph unicode="&#xbc;" glyph-name="onequarter" horiz-adv-x="595" d="M162 323T162 331T162 348Q162 405 164 460T165 573Q165 594 165 614T165 656Q119 657 108 656Q107 655 102 648T88 627T64 589T34 538Q34 536 51 530T70 524Q74 524 96 561T121 603T125
608Q125 606 125 603T125 598Q123 507 122 456T119 355V308V308Q129 307 136 307T162 308Q162 323 162 331ZM190 3T189 2Q183 1 143 0Q146 6 149 15T157 41T169 71T176 90Q211 189 224 225T255 309T302 438Q313 467 339 547T374 654T389 709Q422 707 434 701Q432
696 431 693T428 683Q424 669 414 637T382 538Q372 510 363 483T345 428Q326 373 308 319T268 211Q263 196 258 181T246 151L192 7Q190 3 189 2ZM537 174T537 178T537 211T538 263T539 307T540 340T541 354H540Q536 354 534 354T517 354T500 354Q500 354 500 353Q461
304 352 157Q349 148 352 132Q352 131 359 131T378 131T403 131T443 131T479 132T491 130Q491 129 490 93T488 45T487 23T486 5T486 -2Q530 -3 533 1Q533 3 533 10T534 28T534 59T535 99T536 122T537 128Q560 127 568 129L571 170Q565 170 540 171L537 170Q537
174 537 178ZM487 171T468 171T451 170T433 171T412 172Q412 173 430 196T466 246T488 278T493 282L491 172Q487 171 468 171Z" />
<glyph unicode="&#xbd;" glyph-name="onehalf" horiz-adv-x="602" d="M162 323T162 331T162 348Q162 405 164 460T165 573Q165 594 165 614T165 656Q119 657 108 656Q107 655 102 648T88 627T64 589T34 538Q34 536 51 530T70 524Q74 524 96 561T121 603T125 608Q125
606 125 603T125 598Q123 507 122 456T119 355V308V308Q129 307 136 307T162 308Q162 323 162 331ZM566 3T566 3Q565 9 565 19T564 43Q530 40 483 40T403 41Q402 42 402 46T403 56T409 69Q440 98 472 120T519 150T545 169T564 194T573 226Q573 227 573 239T572
261Q570 289 559 310T523 344Q510 349 490 351T450 353T411 344T382 323Q364 303 358 274T357 208V208H358Q375 206 391 209V209V211Q391 220 391 244T402 288T430 312T459 316Q493 316 511 308T534 274T529 215Q520 196 479 169T410 117T363 69Q354 56 353 43T355
2Q355 1 355 0H377L565 3Q566 3 566 3ZM190 3T189 2Q183 1 143 0Q146 6 149 15T157 41T169 71T176 90Q211 189 224 225T255 309T302 438Q313 467 339 547T374 654T389 709Q422 707 434 701Q432 696 431 693T428 683Q424 669 414 637T382 538Q372 510 363 483T345
428Q326 373 308 319T268 211Q263 196 258 181T246 151L192 7Q190 3 189 2Z" />
<glyph unicode="&#xbe;" glyph-name="threequarters" horiz-adv-x="626" d="M220 3T219 2Q213 1 173 0Q176 6 179 15T187 41T199 71T206 90Q241 189 254 225T285 309T332 438Q343 467 369 547T404 654T419 709Q452 707 464 701Q462 696 461 693T458 683Q454 669
444 637T412 538Q402 510 393 483T375 428Q356 373 338 319T298 211Q293 196 288 181T276 151L222 7Q220 3 219 2ZM47 327T53 323T70 315Q77 313 83 311T97 308Q116 305 137 305T177 311Q195 317 207 328T226 357Q233 371 233 385T235 414Q237 454 237 494T236
578Q237 587 236 596T229 613Q220 628 204 638T168 652T125 655T84 647T49 626T28 593Q24 582 25 570T26 547V546Q27 546 32 546T73 547Q65 577 75 591T104 610T158 611T198 572T199 522T180 507T131 508T89 506V506Q90 510 86 500T85 468Q97 468 130 469T180 464T199
435T194 378T135 344T77 372T72 414V414H71Q42 413 27 414V414Q26 414 26 413Q27 398 27 386T30 363Q32 353 36 344T46 327Q47 327 53 323ZM569 174T569 178T569 211T570 263T571 307T572 340T573 354H572Q568 354 566 354T549 354T532 354Q532 354 532 353Q493
304 384 157Q381 148 384 132Q384 131 391 131T410 131T435 131T475 131T511 132T523 130Q523 129 522 93T520 45T519 23T518 5T518 -2Q562 -3 565 1Q565 3 565 10T566 28T566 59T567 99T568 122T569 128Q592 127 600 129L603 170Q597 170 572 171L569 170Q569
174 569 178ZM519 171T500 171T483 170T465 171T444 172Q444 173 462 196T498 246T520 278T525 282L523 172Q519 171 500 171Z" />
<glyph unicode="&#xbf;" glyph-name="questiondown" horiz-adv-x="450" d="M223 417T223 440H222L179 438V437Q181 429 178 395T161 335T126 281Q111 261 97 248T66 212Q49 190 36 164T19 106Q14 62 30 24T76 -41T148 -81T236 -90Q279 -88 314 -70T375 -22T416
43T433 118V119Q403 120 382 120Q384 80 358 26T262 -44T151 -45T83 10T60 91T82 164T138 238T194 309T220 385L223 412Q223 417 223 440ZM188 617V616V615Q188 608 187 589T185 550T183 515T182 498Q189 495 197 496T210 497T225 501Q225 508 225 523T226 555T227
589T224 617H221H190H188Z" />
<glyph unicode="&#xc0;" glyph-name="Agrave" horiz-adv-x="434" d="M358 368T351 397T336 461T320 534T304 605T290 665T280 705Q247 702 227 702T198 701T181 701T166 700Q133 620 113 539T76 383T47 242T25 124T11 41T4 2Q44 2 47 2T52 3Q63 64 67 87T83 172L348
169Q365 106 370 83T381 38T393 0H394Q391 -6 437 0V1L362 351Q358 368 351 397ZM215 210T158 211T88 213Q136 451 159 554T192 658T220 659T247 659T347 213Q215 210 158 211ZM75 872T101 845T145 800T175 769T194 748Q222 745 237 746T259 750Q242 766 220 790T176
834T137 872T107 904L73 868Q75 872 101 845Z" />
<glyph unicode="&#xc1;" glyph-name="Aacute" horiz-adv-x="434" d="M358 368T351 397T336 461T320 534T304 605T290 665T280 705Q247 702 227 702T198 701T181 701T166 700Q133 620 113 539T76 383T47 242T25 124T11 41T4 2Q44 2 47 2T52 3Q63 64 67 87T83 172L348
169Q365 106 370 83T381 38T393 0H394Q391 -6 437 0V1L362 351Q358 368 351 397ZM215 210T158 211T88 213Q136 451 159 554T192 658T220 659T247 659T347 213Q215 210 158 211ZM363 874T337 847T293 802T263 771T244 750Q216 747 201 748T179 752Q196 768 218 792T262
836T301 874T331 906L365 870Q363 874 337 847Z" />
<glyph unicode="&#xc2;" glyph-name="Acircumflex" horiz-adv-x="434" d="M358 368T351 397T336 461T320 534T304 605T290 665T280 705Q247 702 227 702T198 701T181 701T166 700Q133 620 113 539T76 383T47 242T25 124T11 41T4 2Q44 2 47 2T52 3Q63 64 67 87T83
172L348 169Q365 106 370 83T381 38T393 0H394Q391 -6 437 0V1L362 351Q358 368 351 397ZM215 210T158 211T88 213Q136 451 159 554T192 658T220 659T247 659T347 213Q215 210 158 211ZM176 874T142 841T60 753Q91 752 100 752T118 753Q122 754 153 787T192 829T208
847T222 857Q226 855 233 848T248 832T293 786T336 749Q355 752 367 753T381 754L220 915Q176 874 142 841Z" />
<glyph unicode="&#xc3;" glyph-name="Atilde" horiz-adv-x="434" d="M71 808T89 842T144 886Q166 890 183 881T216 829Q236 764 265 755T325 751Q351 755 370 771T402 811T418 860T419 912V913L382 912Q388 872 378 833T319 785T258 820T236 880T212 905Q196 916
178 919T142 920T107 908T77 886Q67 875 58 858T41 822T27 786T17 757Q32 758 40 758T61 757V758Q71 808 89 842ZM358 368T351 397T336 461T320 534T304 605T290 665T280 705Q247 702 227 702T198 701T181 701T166 700Q133 620 113 539T76 383T47 242T25 124T11
41T4 2Q44 2 47 2T52 3Q63 64 67 87T83 172L348 169Q365 106 370 83T381 38T393 0H394Q391 -6 437 0V1L362 351Q358 368 351 397ZM215 210T158 211T88 213Q136 451 159 554T192 658T220 659T247 659T347 213Q215 210 158 211Z" />
<glyph unicode="&#xc4;" glyph-name="Adieresis" horiz-adv-x="434" d="M358 368T351 397T336 461T320 534T304 605T290 665T280 705Q247 702 227 702T198 701T181 701T166 700Q133 620 113 539T76 383T47 242T25 124T11 41T4 2Q44 2 47 2T52 3Q63 64 67 87T83
172L348 169Q365 106 370 83T381 38T393 0H394Q391 -6 437 0V1L362 351Q358 368 351 397ZM215 210T158 211T88 213Q136 451 159 554T192 658T220 659T247 659T347 213Q215 210 158 211ZM161 759V760V761Q161 768 162 784T164 817T166 848T167 862Q160 865 143 865T116
861Q116 855 116 842T115 814T114 785T117 760H120L159 759H161ZM319 759V760V761Q319 768 320 784T322 817T324 848T325 862Q318 865 301 865T274 861Q274 855 274 842T273 814T272 785T275 760H278L317 759H319Z" />
<glyph unicode="&#xc5;" glyph-name="Aring" horiz-adv-x="434" d="M304 807T305 841T298 906Q287 922 264 928T219 935Q196 937 176 933T141 915Q133 905 130 895Q123 868 124 839T131 781Q136 768 149 761T176 752Q190 751 204 751T232 753Q249 754 266 758T292
777Q304 807 305 841ZM199 891T216 891Q227 891 237 888T255 877Q260 869 262 855Q263 844 261 832T257 810Q252 799 239 798T214 795H204Q189 795 179 804Q171 812 170 824T169 848Q169 855 171 865Q174 878 186 885Q199 891 216 891ZM358 368T351 397T336 461T320
534T304 605T290 665T280 705Q247 702 227 702T198 701T181 701T166 700Q133 620 113 539T76 383T47 242T25 124T11 41T4 2Q44 2 47 2T52 3Q63 64 67 87T83 172L348 169Q365 106 370 83T381 38T393 0H394Q391 -6 437 0V1L362 351Q358 368 351 397ZM215 210T158
211T88 213Q136 451 159 554T192 658T220 659T247 659T347 213Q215 210 158 211Z" />
<glyph unicode="&#xc6;" glyph-name="AE" horiz-adv-x="716" d="M628 39T564 42T445 45L444 46Q448 165 447 227T450 326Q507 324 513 325T559 329V335Q559 345 558 364V365Q527 366 496 366T446 367L445 368Q444 461 447 542T449 652L450 653H453Q475 657 508
657T574 657T636 657T698 657L699 695Q699 696 679 697T626 698T402 699T202 701Q178 701 171 700Q138 620 118 539T81 383T52 242T30 124T16 41T9 2Q49 2 52 2T57 3Q68 64 72 87T88 172L353 169Q370 106 375 83T386 38T398 0H399Q396 -6 494 -1T694 3L696 39V41Q628
39 564 42ZM220 210T163 211T93 213Q141 451 164 554T197 658T225 659H252Q261 659 352 213Q220 210 163 211ZM559 327T559 329H560Q559 327 559 329Z" />
<glyph unicode="&#xc7;" glyph-name="Ccedilla" horiz-adv-x="476" d="M203 -14T201 -20Q194 -52 182 -97V-98Q192 -98 212 -98T232 -98Q234 -91 242 -58Q248 -35 253 -9Q318 -10 361 16T432 84T467 176T465 287Q444 284 421 283Q435 159 387 98T269 28Q196 21
137 55T76 197Q75 254 76 360Q64 683 212 680Q335 677 373 628T416 554T425 481T426 418Q420 413 471 420Q475 467 471 511T448 592T397 659T326 705T241 726T150 714Q136 710 123 705T99 691Q80 674 67 652T44 604Q38 589 33 537Q32 456 32 395T31 285T33 197T36
122Q40 80 62 52T118 9T204 -9Q203 -14 201 -20Z" />
<glyph unicode="&#xc8;" glyph-name="Egrave" horiz-adv-x="481" d="M389 39T325 42T87 45L86 46Q90 165 89 227T92 319Q97 323 165 324T250 325T274 325T321 329Q320 326 320 335T319 364V365Q288 366 257 366T88 367L87 368Q80 395 86 509T91 652L92 653H95Q236
657 269 657T335 657T397 657T459 657L460 695Q460 696 440 697T387 698T311 697T222 695T131 693T46 689Q41 603 40 518T40 348T43 178T45 5Q142 -3 247 0T455 3L457 39V41Q389 39 325 42ZM132 872T158 845T202 800T232 769T251 748Q279 745 294 746T316 750Q299
766 277 790T233 834T194 872T164 904L130 868Q132 872 158 845Z" />
<glyph unicode="&#xc9;" glyph-name="Eacute" horiz-adv-x="481" d="M389 39T325 42T87 45L86 46Q90 165 89 227T92 319Q97 323 165 324T250 325T274 325T321 329Q320 326 320 335T319 364V365Q288 366 257 366T88 367L87 368Q80 395 86 509T91 652L92 653H95Q236
657 269 657T335 657T397 657T459 657L460 695Q460 696 440 697T387 698T311 697T222 695T131 693T46 689Q41 603 40 518T40 348T43 178T45 5Q142 -3 247 0T455 3L457 39V41Q389 39 325 42ZM378 875T352 848T308 803T278 772T259 751Q231 748 216 749T194 753Q211
769 233 793T277 837T316 875T346 907L380 871Q378 875 352 848Z" />
<glyph unicode="&#xca;" glyph-name="Ecircumflex" horiz-adv-x="481" d="M389 39T325 42T87 45L86 46Q90 165 89 227T92 319Q97 323 165 324T250 325T274 325T321 329Q320 326 320 335T319 364V365Q288 366 257 366T88 367L87 368Q80 395 86 509T91 652L92 653H95Q236
657 269 657T335 657T397 657T459 657L460 695Q460 696 440 697T387 698T311 697T222 695T131 693T46 689Q41 603 40 518T40 348T43 178T45 5Q142 -3 247 0T455 3L457 39V41Q389 39 325 42ZM207 874T173 841T91 753Q122 752 131 752T149 753Q153 754 184 787T223
829T239 847T253 857Q257 855 264 848T279 832T324 786T367 749Q386 752 398 753T412 754L251 915Q207 874 173 841Z" />
<glyph unicode="&#xcb;" glyph-name="Edieresis" horiz-adv-x="481" d="M389 39T325 42T87 45L86 46Q90 165 89 227T92 319Q97 323 165 324T250 325T274 325T321 329Q320 326 320 335T319 364V365Q288 366 257 366T88 367L87 368Q80 395 86 509T91 652L92 653H95Q236
657 269 657T335 657T397 657T459 657L460 695Q460 696 440 697T387 698T311 697T222 695T131 693T46 689Q41 603 40 518T40 348T43 178T45 5Q142 -3 247 0T455 3L457 39V41Q389 39 325 42ZM175 759V760V761Q175 768 176 784T178 817T180 848T181 862Q174 865 157
865T130 861Q130 855 130 842T129 814T128 785T131 760H134L173 759H175ZM333 759V760V761Q333 768 334 784T336 817T338 848T339 862Q332 865 315 865T288 861Q288 855 288 842T287 814T286 785T289 760H292L331 759H333Z" />
<glyph unicode="&#xcc;" glyph-name="Igrave" horiz-adv-x="260" d="M-13 872T13 845T57 800T87 769T106 748Q134 745 149 746T171 750Q154 766 132 790T88 834T49 872T19 904L-15 868Q-13 872 13 845ZM136 705T128 706Q126 706 123 707T104 708V706Q95 622 95
535T97 283T96 -4Q106 -1 119 -1T138 -1T154 1Q149 90 150 177T151 351T152 526T155 699V703Q136 705 128 706Z" />
<glyph unicode="&#xcd;" glyph-name="Iacute" horiz-adv-x="259" d="M136 705T128 706Q126 706 123 707T104 708V706Q95 622 95 535T97 283T96 -4Q106 -1 119 -1T138 -1T154 1Q149 90 150 177T151 351T152 526T155 699V703Q136 705 128 706ZM290 872T264 845T220
800T190 769T171 748Q143 745 128 746T106 750Q123 766 145 790T189 834T228 872T258 904L292 868Q290 872 264 845Z" />
<glyph unicode="&#xce;" glyph-name="Icircumflex" horiz-adv-x="260" d="M136 705T128 706Q126 706 123 707T104 708V706Q95 622 95 535T97 283T96 -4Q106 -1 119 -1T138 -1T154 1Q149 90 150 177T151 351T152 526T155 699V703Q136 705 128 706ZM97 874T63 841T-19
753Q12 752 21 752T39 753Q43 754 74 787T113 829T129 847T143 857Q147 855 154 848T169 832T214 786T257 749Q276 752 288 753T302 754L141 915Q97 874 63 841Z" />
<glyph unicode="&#xcf;" glyph-name="Idieresis" horiz-adv-x="260" d="M136 705T128 706Q126 706 123 707T104 708V706Q95 622 95 535T97 283T96 -4Q106 -1 119 -1T138 -1T154 1Q149 90 150 177T151 351T152 526T155 699V703Q136 705 128 706ZM76 759V760V761Q76
768 77 784T79 817T81 848T82 862Q75 865 58 865T31 861Q31 855 31 842T30 814T29 785T32 760H35L74 759H76ZM234 759V760V761Q234 768 235 784T237 817T239 848T240 862Q233 865 216 865T189 861Q189 855 189 842T188 814T187 785T190 760H193L232 759H234Z" />
<glyph unicode="&#xd0;" glyph-name="Eth" horiz-adv-x="482" d="M1 322T29 320Q34 320 39 320Q39 241 42 164Q45 80 56 1L57 2Q120 2 187 2T320 5Q358 52 392 105T437 188T447 218L448 219Q457 265 458 312T462 407Q461 423 460 438T453 470Q444 510 429 546T393
617Q375 646 346 669T284 701Q255 700 225 701T163 702T102 701T43 691Q42 690 42 689T40 687Q42 600 40 511Q39 442 39 374Q28 374 21 374Q0 373 -1 373Q-1 370 -1 356T-3 338T-4 322Q1 322 29 320ZM391 161T358 122T290 50H259Q241 48 173 46T94 49Q92 79 86
201Q82 277 82 318Q93 318 106 318Q154 317 188 317H228Q226 347 225 375H90H85Q87 416 87 508Q87 626 80 657H88Q203 663 223 663T273 661T347 608T417 441Q425 369 418 296Q391 161 358 122Z" />
<glyph unicode="&#xd1;" glyph-name="Ntilde" horiz-adv-x="516" d="M455 -1T457 0V20Q451 66 456 100Q456 128 456 155T457 211Q457 254 457 297T456 382V704Q427 710 398 708Q398 683 400 662T407 347Q407 311 408 277T410 190Q410 173 410 124Q402 135 388
163T263 384T151 582Q142 603 129 627T109 664T96 694Q96 696 77 699T48 700Q43 636 41 569T39 432Q39 338 40 252T42 71V1Q65 1 78 -1T102 0Q101 17 101 38T101 83Q101 125 97 294T94 500T92 569Q95 587 98 578T119 533Q316 173 347 126T412 4Q455 -1 457 0ZM115
808T133 842T188 886Q210 890 227 881T260 829Q280 764 309 755T369 751Q395 755 414 771T446 811T462 860T463 912V913L426 912Q432 872 422 833T363 785T302 820T280 880T256 905Q240 916 222 919T186 920T151 908T121 886Q111 875 102 858T85 822T71 786T61
757Q76 758 84 758T105 757V758Q115 808 133 842Z" />
<glyph unicode="&#xd2;" glyph-name="Ograve" horiz-adv-x="485" d="M425 627T396 653Q367 675 331 686T256 700T179 695T107 671Q94 663 84 653Q53 618 43 573T31 482Q26 403 29 325T36 168Q37 139 41 111T60 57Q69 37 83 25T114 4T151 -7T192 -13Q221 -15 249
-13T306 -3Q337 5 364 19T409 58Q427 87 436 122T447 193L450 226Q454 278 453 328T455 431Q456 456 456 480T453 530Q451 546 448 561T437 592Q425 627 396 653ZM408 300Q408 298 406 241T402 163Q400 142 398 129T392 107T383 92T370 72Q355 55 333 42T242 22T141
35T100 75Q90 108 83 144T73 311Q71 444 76 486T90 566Q102 608 137 635Q210 668 262 663T334 649Q357 638 376 615T398 564Q399 547 400 528T402 507L408 439V300ZM88 872T114 845T158 800T188 769T207 748Q235 745 250 746T272 750Q255 766 233 790T189 834T150
872T120 904L86 868Q88 872 114 845Z" />
<glyph unicode="&#xd3;" glyph-name="Oacute" horiz-adv-x="485" d="M425 627T396 653Q367 675 331 686T256 700T179 695T107 671Q94 663 84 653Q53 618 43 573T31 482Q26 403 29 325T36 168Q37 139 41 111T60 57Q69 37 83 25T114 4T151 -7T192 -13Q221 -15 249
-13T306 -3Q337 5 364 19T409 58Q427 87 436 122T447 193L450 226Q454 278 453 328T455 431Q456 456 456 480T453 530Q451 546 448 561T437 592Q425 627 396 653ZM408 300Q408 298 406 241T402 163Q400 142 398 129T392 107T383 92T370 72Q355 55 333 42T242 22T141
35T100 75Q90 108 83 144T73 311Q71 444 76 486T90 566Q102 608 137 635Q210 668 262 663T334 649Q357 638 376 615T398 564Q399 547 400 528T402 507L408 439V300ZM376 872T350 845T306 800T276 769T257 748Q229 745 214 746T192 750Q209 766 231 790T275 834T314
872T344 904L378 868Q376 872 350 845Z" />
<glyph unicode="&#xd4;" glyph-name="Ocircumflex" horiz-adv-x="484" d="M425 627T396 653Q367 675 331 686T256 700T179 695T107 671Q94 663 84 653Q53 618 43 573T31 482Q26 403 29 325T36 168Q37 139 41 111T60 57Q69 37 83 25T114 4T151 -7T192 -13Q221 -15
249 -13T306 -3Q337 5 364 19T409 58Q427 87 436 122T447 193L450 226Q454 278 453 328T455 431Q456 456 456 480T453 530Q451 546 448 561T437 592Q425 627 396 653ZM408 300Q408 298 406 241T402 163Q400 142 398 129T392 107T383 92T370 72Q355 55 333 42T242
22T141 35T100 75Q90 108 83 144T73 311Q71 444 76 486T90 566Q102 608 137 635Q210 668 262 663T334 649Q357 638 376 615T398 564Q399 547 400 528T402 507L408 439V300ZM205 874T171 841T89 753Q120 752 129 752T147 753Q151 754 182 787T221 829T237 847T251
857Q255 855 262 848T277 832T322 786T365 749Q384 752 396 753T410 754L249 915Q205 874 171 841Z" />
<glyph unicode="&#xd5;" glyph-name="Otilde" horiz-adv-x="484" d="M425 627T396 653Q367 675 331 686T256 700T179 695T107 671Q94 663 84 653Q53 618 43 573T31 482Q26 403 29 325T36 168Q37 139 41 111T60 57Q69 37 83 25T114 4T151 -7T192 -13Q221 -15 249
-13T306 -3Q337 5 364 19T409 58Q427 87 436 122T447 193L450 226Q454 278 453 328T455 431Q456 456 456 480T453 530Q451 546 448 561T437 592Q425 627 396 653ZM408 300Q408 298 406 241T402 163Q400 142 398 129T392 107T383 92T370 72Q355 55 333 42T242 22T141
35T100 75Q90 108 83 144T73 311Q71 444 76 486T90 566Q102 608 137 635Q210 668 262 663T334 649Q357 638 376 615T398 564Q399 547 400 528T402 507L408 439V300ZM90 796T108 830T163 874Q185 878 202 869T235 817Q255 752 284 743T344 739Q370 743 389 759T421
799T437 848T438 900V901L401 900Q407 860 397 821T338 773T277 808T255 868T231 893Q215 904 197 907T161 908T126 896T96 874Q86 863 77 846T60 810T46 774T36 745Q51 746 59 746T80 745V746Q90 796 108 830Z" />
<glyph unicode="&#xd6;" glyph-name="Odieresis" horiz-adv-x="484" d="M425 627T396 653Q367 675 331 686T256 700T179 695T107 671Q94 663 84 653Q53 618 43 573T31 482Q26 403 29 325T36 168Q37 139 41 111T60 57Q69 37 83 25T114 4T151 -7T192 -13Q221 -15
249 -13T306 -3Q337 5 364 19T409 58Q427 87 436 122T447 193L450 226Q454 278 453 328T455 431Q456 456 456 480T453 530Q451 546 448 561T437 592Q425 627 396 653ZM408 300Q408 298 406 241T402 163Q400 142 398 129T392 107T383 92T370 72Q355 55 333 42T242
22T141 35T100 75Q90 108 83 144T73 311Q71 444 76 486T90 566Q102 608 137 635Q210 668 262 663T334 649Q357 638 376 615T398 564Q399 547 400 528T402 507L408 439V300ZM190 759V760V761Q190 768 191 784T193 817T195 848T196 862Q189 865 172 865T145 861Q145
855 145 842T144 814T143 785T146 760H149L188 759H190ZM348 759V760V761Q348 768 349 784T351 817T353 848T354 862Q347 865 330 865T303 861Q303 855 303 842T302 814T301 785T304 760H307L346 759H348Z" />
<glyph unicode="&#xd7;" glyph-name="multiply" horiz-adv-x="735" d="M41 630T43 541T48 365T51 188T46 2Q224 -3 341 -5T529 -7T634 -5T680 -1T692 6T693 13Q691 57 690 114T688 236T687 367T687 499T687 621T688 724L41 726Q41 630 43 541ZM274 298T89 41Q89
109 89 194T90 366T92 537T95 692Q133 625 314 362Q274 298 89 41ZM635 651T650 683Q650 618 650 537T651 369T651 204T647 54Q633 88 588 142T406 364Q635 651 650 683ZM355 410T290 492T156 691Q177 691 213 691T376 688T537 684T595 685Q576 644 471 528T360
395Q355 410 290 492ZM597 35T486 37T330 39T229 40T143 42Q350 313 360 334L608 37Q597 35 486 37Z" />
<glyph unicode="&#xd8;" glyph-name="Oslash" horiz-adv-x="479" d="M97 57T90 66Q65 98 53 139T37 224T33 314Q31 352 30 391T33 469T48 545T78 617Q82 623 88 629Q116 663 149 684T230 708Q277 710 313 692Q321 688 329 684L341 726Q375 724 388 718Q386 712
385 709T382 699Q377 685 367 654Q372 649 377 644Q404 614 420 574T443 491Q448 459 450 430T451 372Q453 333 449 290T435 204T406 124T363 59T304 15T228 2Q191 4 163 15Q154 18 146 22L134 -12Q131 -16 130 -17Q124 -18 82 -20Q85 -13 88 -3T97 23Q101 36 105
49Q97 57 90 66ZM155 182T168 217Q182 255 200 305T249 441Q261 472 288 556Q306 611 316 642Q289 658 254 665Q154 667 125 610T89 532T80 494T74 446Q75 384 75 333T84 200Q92 132 122 90Q155 182 168 217ZM192 40T239 40Q313 45 352 108T398 205T406 260T409
309Q410 335 410 366T409 452T372 578Q364 595 353 616Q345 582 333 546Q323 517 314 488T294 431Q274 373 255 316T213 202Q208 187 203 171T190 139L161 57Q192 40 239 40Z" />
<glyph unicode="&#xd9;" glyph-name="Ugrave" horiz-adv-x="505" d="M457 676T420 671Q417 555 419 439T415 219T351 66T202 39T98 173T94 680Q56 680 41 680H40L41 679Q43 547 40 413T44 168Q46 122 67 79T124 17T206 -10T293 -14Q365 -7 407 39T457 151Q471
280 473 410T469 669Q457 676 420 671ZM119 872T145 845T189 800T219 769T238 748Q266 745 281 746T303 750Q286 766 264 790T220 834T181 872T151 904L117 868Q119 872 145 845Z" />
<glyph unicode="&#xda;" glyph-name="Uacute" horiz-adv-x="505" d="M457 676T420 671Q417 555 419 439T415 219T351 66T202 39T98 173T94 680Q56 680 41 680H40L41 679Q43 547 40 413T44 168Q46 122 67 79T124 17T206 -10T293 -14Q365 -7 407 39T457 151Q471
280 473 410T469 669Q457 676 420 671ZM378 875T352 848T308 803T278 772T259 751Q231 748 216 749T194 753Q211 769 233 793T277 837T316 875T346 907L380 871Q378 875 352 848Z" />
<glyph unicode="&#xdb;" glyph-name="Ucircumflex" horiz-adv-x="505" d="M457 676T420 671Q417 555 419 439T415 219T351 66T202 39T98 173T94 680Q56 680 41 680H40L41 679Q43 547 40 413T44 168Q46 122 67 79T124 17T206 -10T293 -14Q365 -7 407 39T457 151Q471
280 473 410T469 669Q457 676 420 671ZM206 874T172 841T90 753Q121 752 130 752T148 753Q152 754 183 787T222 829T238 847T252 857Q256 855 263 848T278 832T323 786T366 749Q385 752 397 753T411 754L250 915Q206 874 172 841Z" />
<glyph unicode="&#xdc;" glyph-name="Udieresis" horiz-adv-x="505" d="M457 676T420 671Q417 555 419 439T415 219T351 66T202 39T98 173T94 680Q56 680 41 680H40L41 679Q43 547 40 413T44 168Q46 122 67 79T124 17T206 -10T293 -14Q365 -7 407 39T457 151Q471
280 473 410T469 669Q457 676 420 671ZM198 759V760V761Q198 768 199 784T201 817T203 848T204 862Q197 865 180 865T153 861Q153 855 153 842T152 814T151 785T154 760H157L196 759H198ZM356 759V760V761Q356 768 357 784T359 817T361 848T362 862Q355 865 338
865T311 861Q311 855 311 842T310 814T309 785T312 760H315L354 759H356Z" />
<glyph unicode="&#xdd;" glyph-name="Yacute" horiz-adv-x="434" d="M363 872T337 845T293 800T263 769T244 748Q216 745 201 746T179 750Q196 766 218 790T262 834T301 872T331 904L365 868Q363 872 337 845ZM444 694T434 694T421 695T404 692Q395 670 359 583T255
347Q213 408 162 492T61 693Q56 695 46 694T16 692Q26 650 54 594T109 494T156 413T223 298Q183 195 101 0H103Q109 -1 129 0T156 0Q199 102 231 180T305 344T384 516T450 692V693Q444 694 434 694Z" />
<glyph unicode="&#xde;" glyph-name="Thorn" horiz-adv-x="478" d="M97 725T77 726T40 724Q36 687 36 604T36 441T34 283T35 -1Q75 4 91 2Q92 4 92 9Q92 19 93 108T88 238Q104 187 134 162T206 134T275 135Q332 139 365 164T414 229T436 318T443 417Q443 452 439
485T425 545T400 592T362 620Q335 630 303 632T214 635T128 601T96 558Q97 655 97 674T97 713V724Q97 725 77 726ZM393 428T394 406T396 364Q396 327 387 281T358 215T306 185T236 175Q190 175 155 213T107 289T94 373Q94 430 102 475T149 552T224 584Q296 584
342 563T391 481Q393 428 394 406Z" />
<glyph unicode="&#xdf;" glyph-name="germandbls" horiz-adv-x="470" d="M419 437T281 336Q357 319 380 284T403 184Q403 119 381 89T257 58Q241 58 216 57Q210 15 220 0Q282 -4 311 1T372 23T426 68T457 145Q463 177 459 203T445 250T420 291T389 331Q384 337
382 341T384 352Q404 386 418 426T433 508Q433 564 415 602T366 665T295 701T210 714T121 710T36 693L35 692Q38 518 35 348T38 3Q43 1 85 0Q95 -1 94 94T92 214T91 271T90 331T87 407T83 546T83 660Q98 668 155 670T248 663Q347 636 377 557Q419 437 281 336Z"
/>
<glyph unicode="&#xe0;" glyph-name="agrave" horiz-adv-x="476" d="M137 710T163 683T207 638T237 607T256 586Q284 583 299 584T321 588Q304 604 282 628T238 672T199 710T169 742L135 706Q137 710 163 683ZM407 500T405 500T396 501T389 499Q389 473 385 448Q375
466 366 473T341 488T269 497T187 497Q152 496 121 479T68 431T32 358T19 266Q19 226 27 179T54 92T99 25T166 -2Q201 -2 279 0T391 55Q391 45 391 33T391 10T399 -2Q398 -1 426 -1Q438 1 438 14T439 40Q446 147 442 251T441 464V474Q441 480 441 486T439 498Q407
500 405 500ZM85 388T130 426T243 461Q308 457 328 445T363 418T384 362T390 253Q390 199 390 156T367 86T314 48T236 39Q141 31 105 85T64 239Q64 264 65 290T74 341Q85 388 130 426Z" />
<glyph unicode="&#xe1;" glyph-name="aacute" horiz-adv-x="476" d="M375 705T349 678T305 633T275 602T256 581Q228 578 213 579T191 583Q208 599 230 623T274 667T313 705T343 737L377 701Q375 705 349 678ZM407 500T405 500T396 501T389 499Q389 473 385 448Q375
466 366 473T341 488T269 497T187 497Q152 496 121 479T68 431T32 358T19 266Q19 226 27 179T54 92T99 25T166 -2Q201 -2 279 0T391 55Q391 45 391 33T391 10T399 -2Q398 -1 426 -1Q438 1 438 14T439 40Q446 147 442 251T441 464V474Q441 480 441 486T439 498Q407
500 405 500ZM85 388T130 426T243 461Q308 457 328 445T363 418T384 362T390 253Q390 199 390 156T367 86T314 48T236 39Q141 31 105 85T64 239Q64 264 65 290T74 341Q85 388 130 426Z" />
<glyph unicode="&#xe2;" glyph-name="acircumflex" horiz-adv-x="476" d="M209 715T175 682T93 594Q124 593 133 593T151 594Q155 595 186 628T225 670T241 688T255 698Q259 696 266 689T281 673T326 627T369 590Q388 593 400 594T414 595L253 756Q209 715 175
682ZM407 500T405 500T396 501T389 499Q389 473 385 448Q375 466 366 473T341 488T269 497T187 497Q152 496 121 479T68 431T32 358T19 266Q19 226 27 179T54 92T99 25T166 -2Q201 -2 279 0T391 55Q391 45 391 33T391 10T399 -2Q398 -1 426 -1Q438 1 438 14T439
40Q446 147 442 251T441 464V474Q441 480 441 486T439 498Q407 500 405 500ZM85 388T130 426T243 461Q308 457 328 445T363 418T384 362T390 253Q390 199 390 156T367 86T314 48T236 39Q141 31 105 85T64 239Q64 264 65 290T74 341Q85 388 130 426Z" />
<glyph unicode="&#xe3;" glyph-name="atilde" horiz-adv-x="476" d="M407 500T405 500T396 501T389 499Q389 473 385 448Q375 466 366 473T341 488T269 497T187 497Q152 496 121 479T68 431T32 358T19 266Q19 226 27 179T54 92T99 25T166 -2Q201 -2 279 0T391
55Q391 45 391 33T391 10T399 -2Q398 -1 426 -1Q438 1 438 14T439 40Q446 147 442 251T441 464V474Q441 480 441 486T439 498Q407 500 405 500ZM85 388T130 426T243 461Q308 457 328 445T363 418T384 362T390 253Q390 199 390 156T367 86T314 48T236 39Q141 31
105 85T64 239Q64 264 65 290T74 341Q85 388 130 426ZM99 642T117 676T172 720Q194 724 211 715T244 663Q264 598 293 589T353 585Q379 589 398 605T430 645T446 694T447 746V747L410 746Q416 706 406 667T347 619T286 654T264 714T240 739Q224 750 206 753T170
754T135 742T105 720Q95 709 86 692T69 656T55 620T45 591Q60 592 68 592T89 591V592Q99 642 117 676Z" />
<glyph unicode="&#xe4;" glyph-name="adieresis" horiz-adv-x="476" d="M407 500T405 500T396 501T389 499Q389 473 385 448Q375 466 366 473T341 488T269 497T187 497Q152 496 121 479T68 431T32 358T19 266Q19 226 27 179T54 92T99 25T166 -2Q201 -2 279 0T391
55Q391 45 391 33T391 10T399 -2Q398 -1 426 -1Q438 1 438 14T439 40Q446 147 442 251T441 464V474Q441 480 441 486T439 498Q407 500 405 500ZM85 388T130 426T243 461Q308 457 328 445T363 418T384 362T390 253Q390 199 390 156T367 86T314 48T236 39Q141 31
105 85T64 239Q64 264 65 290T74 341Q85 388 130 426ZM220 635V636V637Q220 644 221 660T223 693T225 724T226 738Q219 741 202 741T175 737Q175 731 175 718T174 690T173 661T176 636H179L218 635H220ZM378 635V636V637Q378 644 379 660T381 693T383 724T384 738Q377
741 360 741T333 737Q333 731 333 718T332 690T331 661T334 636H337L376 635H378Z" />
<glyph unicode="&#xe5;" glyph-name="aring" horiz-adv-x="476" d="M339 624T340 658T333 723Q322 739 299 745T254 752Q231 754 211 750T176 732Q168 722 165 712Q158 685 159 656T166 598Q171 585 184 578T211 569Q225 568 239 568T267 570Q284 571 301 575T327
594Q339 624 340 658ZM234 708T251 708Q262 708 272 705T290 694Q295 686 297 672Q298 661 296 649T292 627Q287 616 274 615T249 612H239Q224 612 214 621Q206 629 205 641T204 665Q204 672 206 682Q209 695 221 702Q234 708 251 708ZM407 500T405 500T396 501T389
499Q389 473 385 448Q375 466 366 473T341 488T269 497T187 497Q152 496 121 479T68 431T32 358T19 266Q19 226 27 179T54 92T99 25T166 -2Q201 -2 279 0T391 55Q391 45 391 33T391 10T399 -2Q398 -1 426 -1Q438 1 438 14T439 40Q446 147 442 251T441 464V474Q441
480 441 486T439 498Q407 500 405 500ZM85 388T130 426T243 461Q308 457 328 445T363 418T384 362T390 253Q390 199 390 156T367 86T314 48T236 39Q141 31 105 85T64 239Q64 264 65 290T74 341Q85 388 130 426Z" />
<glyph unicode="&#xe6;" glyph-name="ae" horiz-adv-x="703" d="M375 249T395 248T485 246T582 245T635 247T678 251T703 255Q706 294 703 333T687 404T647 458T577 488Q543 497 508 496T440 485T382 456Q369 446 360 434Q359 446 354 451Q335 469 303 479T233
489T158 482T91 455T44 408T32 340Q42 335 59 337T88 341Q79 397 106 418T197 445T290 438T318 365T315 291T316 255Q291 269 253 280T165 289T84 272T37 233Q11 189 10 151T24 81T70 29T137 -2T216 -6T297 21Q313 31 325 40T349 59V61Q380 31 404 17Q432 6 458
2Q485 2 516 0T578 0T633 11T675 43Q682 49 686 63T693 98T697 142T701 190Q691 193 679 191T657 190Q659 151 650 92T543 29T414 67T375 139T368 188T365 234V251Q375 249 395 248ZM96 39T75 63T52 114T57 173T83 222Q131 256 181 254T281 225Q303 212 314 175T314
100T264 40T142 31Q96 39 75 63ZM638 425T654 385T672 309V292Q672 287 662 286T629 283T555 283Q486 280 452 281T394 285T370 296T371 327Q375 355 384 380T411 423T458 451T532 462Q554 462 567 460T601 451Q638 425 654 385Z" />
<glyph unicode="&#xe7;" glyph-name="ccedilla" d="M410 195T402 194T379 198Q380 181 379 133T342 51T205 25T86 99T71 188Q65 320 72 369T90 438T134 465Q257 473 322 458T384 289Q397 287 403 287T423 289Q422 322 422 350T417 402T406 442T384 469Q363 489
334 499T273 511Q252 513 234 512T195 512Q171 512 148 509T104 499T68 480T45 454Q42 444 36 425T29 395Q23 359 23 323Q23 257 23 234T26 171T38 95T75 35Q110 0 161 -9Q176 -9 194 -9Q183 -42 177 -66Q170 -98 158 -143V-144H208Q210 -137 218 -104T235 -38Q239
-24 241 -12Q266 -13 289 -11Q321 -9 348 1T393 35Q400 42 404 57T412 94T417 141T421 192Q410 195 402 194Z" />
<glyph unicode="&#xe8;" glyph-name="egrave" horiz-adv-x="444" d="M113 708T139 681T183 636T213 605T232 584Q260 581 275 582T297 586Q280 602 258 626T214 670T175 708T145 740L111 704Q113 708 139 681ZM75 253T97 252T192 249T295 248T351 251T397 255T424
259Q427 301 424 342T407 417T364 475T290 507Q254 516 216 515T144 504T83 473T43 423Q31 390 28 356T21 284Q19 243 23 202T38 125T67 58T112 8Q136 -6 164 -10Q192 -10 225 -12T291 -12T350 0T394 34Q401 40 405 55T413 92T418 139T422 190Q411 193 398 191T375
190Q377 149 367 86T254 19T117 60T76 136T68 188T65 237V255Q75 253 97 252ZM355 440T372 397T391 316Q391 304 391 299T380 292T346 289T267 289Q193 286 157 287T96 291T70 302T71 336Q75 365 84 392T114 438T164 467T242 479Q265 479 279 477T315 467Q355 440
372 397Z" />
<glyph unicode="&#xe9;" glyph-name="eacute" horiz-adv-x="444" d="M358 710T332 683T288 638T258 607T239 586Q211 583 196 584T174 588Q191 604 213 628T257 672T296 710T326 742L360 706Q358 710 332 683ZM75 253T97 252T192 249T295 248T351 251T397 255T424
259Q427 301 424 342T407 417T364 475T290 507Q254 516 216 515T144 504T83 473T43 423Q31 390 28 356T21 284Q19 243 23 202T38 125T67 58T112 8Q136 -6 164 -10Q192 -10 225 -12T291 -12T350 0T394 34Q401 40 405 55T413 92T418 139T422 190Q411 193 398 191T375
190Q377 149 367 86T254 19T117 60T76 136T68 188T65 237V255Q75 253 97 252ZM355 440T372 397T391 316Q391 304 391 299T380 292T346 289T267 289Q193 286 157 287T96 291T70 302T71 336Q75 365 84 392T114 438T164 467T242 479Q265 479 279 477T315 467Q355 440
372 397Z" />
<glyph unicode="&#xea;" glyph-name="ecircumflex" horiz-adv-x="444" d="M192 717T158 684T76 596Q107 595 116 595T134 596Q138 597 169 630T208 672T224 690T238 700Q242 698 249 691T264 675T309 629T352 592Q371 595 383 596T397 597L236 758Q192 717 158
684ZM75 253T97 252T192 249T295 248T351 251T397 255T424 259Q427 301 424 342T407 417T364 475T290 507Q254 516 216 515T144 504T83 473T43 423Q31 390 28 356T21 284Q19 243 23 202T38 125T67 58T112 8Q136 -6 164 -10Q192 -10 225 -12T291 -12T350 0T394 34Q401
40 405 55T413 92T418 139T422 190Q411 193 398 191T375 190Q377 149 367 86T254 19T117 60T76 136T68 188T65 237V255Q75 253 97 252ZM355 440T372 397T391 316Q391 304 391 299T380 292T346 289T267 289Q193 286 157 287T96 291T70 302T71 336Q75 365 84 392T114
438T164 467T242 479Q265 479 279 477T315 467Q355 440 372 397Z" />
<glyph unicode="&#xeb;" glyph-name="edieresis" horiz-adv-x="444" d="M62 255T78 254T124 252T192 249T274 247Q298 247 322 248T368 251T404 255T424 259Q425 270 425 280T426 302Q426 346 417 385T386 453T324 498T223 515Q194 515 166 509T114 492T72 463T43
423Q29 385 25 342T20 257Q20 219 25 182T41 112T70 52T112 8Q142 -9 180 -11T261 -13Q301 -13 337 -5T394 34Q401 40 405 55T413 92T418 139T422 190Q417 191 408 191Q400 191 393 191T379 190H375V176Q375 158 374 135T367 85Q355 19 241 19Q148 19 116 60Q99
82 90 101T76 136T70 166T67 188Q66 198 66 210T65 237V255Q62 255 78 254ZM336 452T350 432T374 390T387 345T391 303Q391 298 389 296T380 291T357 289T315 288Q305 288 293 288T267 289Q240 289 218 288T179 286Q129 286 99 290T68 311Q68 345 76 376T105 429T159
465T242 479Q265 479 279 477T315 467Q336 452 350 432ZM169 651V653Q169 660 170 676T172 709T174 740T175 754Q172 756 167 756T154 756Q138 756 131 753T122 742T121 722T122 692Q122 667 125 652H128L167 651H169ZM327 651V653Q327 660 328 676T330 709T332
740T333 754Q330 756 325 756T312 756Q296 756 289 753T280 742T279 722T280 692Q280 667 283 651H286H325H327Z" />
<glyph unicode="&#xec;" glyph-name="igrave" horiz-adv-x="207" d="M-38 712T-12 685T32 640T62 609T81 588Q109 585 124 586T146 590Q129 606 107 630T63 674T24 712T-6 744L-40 708Q-38 712 -12 685ZM91 505T87 504V503Q81 444 82 382T83 267T83 161T83 -2Q90
0 101 1T139 0Q131 127 134 253T139 500V503Q91 505 87 504Z" />
<glyph unicode="&#xed;" glyph-name="iacute" horiz-adv-x="207" d="M266 706T240 679T196 634T166 603T147 582Q119 579 104 580T82 584Q99 600 121 624T165 668T204 706T234 738L268 702Q266 706 240 679ZM91 505T87 504V503Q81 444 82 382T83 267T83 161T83
-2Q90 0 101 1T139 0Q131 127 134 253T139 500V503Q91 505 87 504Z" />
<glyph unicode="&#xee;" glyph-name="icircumflex" horiz-adv-x="207" d="M65 712T31 679T-51 591Q-20 590 -11 590T7 591Q11 592 42 625T81 667T97 685T111 695Q115 693 122 686T137 670T182 624T225 587Q244 590 256 591T270 592L109 753Q65 712 31 679ZM91
505T87 504V503Q81 444 82 382T83 267T83 161T83 -2Q90 0 101 1T139 0Q131 127 134 253T139 500V503Q91 505 87 504Z" />
<glyph unicode="&#xef;" glyph-name="idieresis" horiz-adv-x="207" d="M91 505T87 504V503Q81 444 82 382T83 267T83 161T83 -2Q90 0 101 1T139 0Q131 127 134 253T139 500V503Q91 505 87 504ZM45 650V651V652Q45 659 46 675T48 708T50 739T51 753Q44 756 27
756T0 752Q0 746 0 733T-1 705T-2 676T1 651H4L43 650H45ZM203 650V651V652Q203 659 204 675T206 708T208 739T209 753Q202 756 185 756T158 752Q158 746 158 733T157 705T156 676T159 651H162L201 650H203Z" />
<glyph unicode="&#xf0;" glyph-name="eth" horiz-adv-x="529" d="M58 269T81 330T177 402Q210 406 253 398T336 367T403 303T437 206Q444 128 407 82T293 26Q261 21 226 26T159 46T104 90T70 159L65 192Q58 269 81 330ZM225 756T184 779T127 814Q122 816 103 803T76
783T69 774Q109 757 135 740T188 716Q163 698 121 667T63 623T36 604T26 597Q28 594 40 584T60 563Q63 565 76 573T111 596T163 635T226 682Q257 656 275 641T357 551T441 325Q402 386 368 409T315 437T268 443T170 447Q123 441 93 422T45 372T22 299T18 206L19
178Q19 172 19 166T21 155Q27 102 54 66T121 8T211 -20T313 -21Q386 -12 428 25T485 120T502 248T494 393Q474 500 384 598T274 713Q288 722 307 733T348 762T424 812Q399 839 387 855Q376 849 347 828T244 750Q225 756 184 779Z" />
<glyph unicode="&#xf1;" glyph-name="ntilde" horiz-adv-x="450" d="M96 456T96 467T95 495Q95 498 87 498T64 498T37 498Q33 366 35 243T38 -3Q62 -1 93 -1V3Q94 36 94 69T93 135T90 235T91 337Q93 364 106 387T151 427T273 451T366 390T369 280T367 192T364
112T363 52T365 0Q404 0 416 2Q414 36 415 81T417 174T418 270T418 358T411 426T395 464Q374 482 348 489T295 495T205 483T122 457Q117 453 110 449T97 442Q96 456 96 467ZM80 643T98 677T153 721Q175 725 192 716T225 664Q245 599 274 590T334 586Q360 590 379
606T411 646T427 695T428 747V748L391 747Q397 707 387 668T328 620T267 655T245 715T221 740Q205 751 187 754T151 755T116 743T86 721Q76 710 67 693T50 657T36 621T26 592Q41 593 49 593T70 592V593Q80 643 98 677Z" />
<glyph unicode="&#xf2;" glyph-name="ograve" horiz-adv-x="448" d="M100 711T126 684T170 639T200 608T219 587Q247 584 262 585T284 589Q267 605 245 629T201 673T162 711T132 743L98 707Q100 711 126 684ZM37 434T34 421T29 397Q26 378 25 361T24 325Q27 292
26 252T26 173T38 97T75 37Q110 2 161 -7Q189 -7 223 -9T289 -10T348 3T393 37Q403 47 408 74T417 135T422 206T425 272Q424 305 423 336T418 394T406 441T384 470Q363 490 334 500T273 513Q252 515 234 514T195 514Q171 514 148 511T104 501T68 482T45 456Q37
434 34 421ZM116 465T194 476Q260 482 318 465T377 378Q384 298 382 247T379 157Q379 59 326 41Q291 29 251 27T178 28T115 51T76 133Q65 236 64 286T67 369T90 432Q116 465 194 476Z" />
<glyph unicode="&#xf3;" glyph-name="oacute" horiz-adv-x="448" d="M360 706T334 679T290 634T260 603T241 582Q213 579 198 580T176 584Q193 600 215 624T259 668T298 706T328 738L362 702Q360 706 334 679ZM37 434T34 421T29 397Q26 378 25 361T24 325Q27 292
26 252T26 173T38 97T75 37Q110 2 161 -7Q189 -7 223 -9T289 -10T348 3T393 37Q403 47 408 74T417 135T422 206T425 272Q424 305 423 336T418 394T406 441T384 470Q363 490 334 500T273 513Q252 515 234 514T195 514Q171 514 148 511T104 501T68 482T45 456Q37
434 34 421ZM116 465T194 476Q260 482 318 465T377 378Q384 298 382 247T379 157Q379 59 326 41Q291 29 251 27T178 28T115 51T76 133Q65 236 64 286T67 369T90 432Q116 465 194 476Z" />
<glyph unicode="&#xf4;" glyph-name="ocircumflex" horiz-adv-x="448" d="M187 714T153 681T71 593Q102 592 111 592T129 593Q133 594 164 627T203 669T219 687T233 697Q237 695 244 688T259 672T304 626T347 589Q366 592 378 593T392 594L231 755Q187 714 153
681ZM37 434T34 421T29 397Q26 378 25 361T24 325Q27 292 26 252T26 173T38 97T75 37Q110 2 161 -7Q189 -7 223 -9T289 -10T348 3T393 37Q403 47 408 74T417 135T422 206T425 272Q424 305 423 336T418 394T406 441T384 470Q363 490 334 500T273 513Q252 515 234
514T195 514Q171 514 148 511T104 501T68 482T45 456Q37 434 34 421ZM116 465T194 476Q260 482 318 465T377 378Q384 298 382 247T379 157Q379 59 326 41Q291 29 251 27T178 28T115 51T76 133Q65 236 64 286T67 369T90 432Q116 465 194 476Z" />
<glyph unicode="&#xf5;" glyph-name="otilde" horiz-adv-x="448" d="M37 434T34 421T29 397Q26 378 25 361T24 325Q27 292 26 252T26 173T38 97T75 37Q110 2 161 -7Q189 -7 223 -9T289 -10T348 3T393 37Q403 47 408 74T417 135T422 206T425 272Q424 305 423 336T418
394T406 441T384 470Q363 490 334 500T273 513Q252 515 234 514T195 514Q171 514 148 511T104 501T68 482T45 456Q37 434 34 421ZM116 465T194 476Q260 482 318 465T377 378Q384 298 382 247T379 157Q379 59 326 41Q291 29 251 27T178 28T115 51T76 133Q65 236
64 286T67 369T90 432Q116 465 194 476ZM77 643T95 677T150 721Q172 725 189 716T222 664Q242 599 271 590T331 586Q357 590 376 606T408 646T424 695T425 747V748L388 747Q394 707 384 668T325 620T264 655T242 715T218 740Q202 751 184 754T148 755T113 743T83
721Q73 710 64 693T47 657T33 621T23 592Q38 593 46 593T67 592V593Q77 643 95 677Z" />
<glyph unicode="&#xf6;" glyph-name="odieresis" horiz-adv-x="448" d="M37 434T34 421T29 397Q26 378 25 361T24 325Q27 292 26 252T26 173T38 97T75 37Q110 2 161 -7Q189 -7 223 -9T289 -10T348 3T393 37Q403 47 408 74T417 135T422 206T425 272Q424 305 423
336T418 394T406 441T384 470Q363 490 334 500T273 513Q252 515 234 514T195 514Q171 514 148 511T104 501T68 482T45 456Q37 434 34 421ZM116 465T194 476Q260 482 318 465T377 378Q384 298 382 247T379 157Q379 59 326 41Q291 29 251 27T178 28T115 51T76 133Q65
236 64 286T67 369T90 432Q116 465 194 476ZM166 651V652V653Q166 660 167 676T169 709T171 740T172 754Q165 757 148 757T121 753Q121 747 121 734T120 706T119 677T122 652H125L164 651H166ZM324 651V652V653Q324 660 325 676T327 709T329 740T330 754Q323 757
306 757T279 753Q279 747 279 734T278 706T277 677T280 652H283L322 651H324Z" />
<glyph unicode="&#xf7;" glyph-name="divide" horiz-adv-x="466" d="M28 200T64 199T153 198T263 196T373 193T432 192T438 192H439Q437 226 436 257Q431 257 420 257T357 257T247 257T140 257T59 257T26 257Q26 254 26 238T24 218T23 200Q28 200 64 199ZM249
0V1V2Q249 9 250 28T252 67T254 102T255 119Q248 122 242 123T224 123T203 117Q203 110 203 95T202 63T201 29T204 1H207L247 0H249ZM250 336V337V338Q250 345 251 364T253 403T255 438T256 455Q249 458 243 459T225 459T204 453Q204 446 204 431T203 399T202 365T205
337H208L248 336H250Z" />
<glyph unicode="&#xf8;" glyph-name="oslash" horiz-adv-x="351" d="M74 35T69 42Q50 64 41 93T30 154T27 219Q25 246 25 274T27 330T38 384T61 435Q63 439 68 443Q88 467 113 483T172 500Q207 502 233 489Q239 486 246 483L254 513Q279 512 289 507Q287 503 287
501T284 494Q281 484 273 461Q277 458 281 454Q300 433 312 404T329 345Q333 322 335 301T335 260Q337 232 334 202T324 140T303 83T271 36T227 4T170 -4Q144 -3 123 5Q116 7 110 10L101 -14Q99 -17 98 -18Q94 -19 63 -20Q66 -15 68 -8T74 10Q77 20 80 30Q74 35
69 42ZM116 125T127 149Q137 176 150 212T187 310Q195 332 215 392Q228 431 235 453Q216 464 190 470Q116 471 95 431T69 375T62 347T58 313Q58 268 58 232T65 137Q71 88 92 59Q116 125 127 149ZM144 22T178 22Q233 27 262 72T296 141T301 180T304 215Q305 234
305 256T304 317T277 407Q271 419 263 434Q257 410 249 385Q240 363 234 343T219 303Q205 261 191 220T160 139Q156 128 152 117T143 93L122 35Q144 22 178 22Z" />
<glyph unicode="&#xf9;" glyph-name="ugrave" horiz-adv-x="450" d="M98 708T124 681T168 636T198 605T217 584Q245 581 260 582T282 586Q265 602 243 626T199 670T160 708T130 740L96 704Q98 708 124 681ZM369 39T370 0Q370 -3 375 -3T386 -3T413 2Q417 134 415
257T412 503Q387 501 369 496V492Q370 459 370 426T372 322T375 217T373 139T299 63T150 40T74 158T75 311T75 386T76 446T74 498H34Q36 464 35 419T33 326T32 230T32 142T38 77T59 34T102 9T173 2T270 11T342 35T368 53Q369 39 370 0Z" />
<glyph unicode="&#xfa;" glyph-name="uacute" horiz-adv-x="449" d="M359 707T333 680T289 635T259 604T240 583Q212 580 197 581T175 585Q192 601 214 625T258 669T297 707T327 739L361 703Q359 707 333 680ZM369 39T370 0Q370 -3 375 -3T386 -3T413 2Q417 134
415 257T412 503Q387 501 369 496V492Q370 459 370 426T372 322T375 217T373 139T299 63T150 40T74 158T75 311T75 386T76 446T74 498H34Q36 464 35 419T33 326T32 230T32 142T38 77T59 34T102 9T173 2T270 11T342 35T368 53Q369 39 370 0Z" />
<glyph unicode="&#xfb;" glyph-name="ucircumflex" horiz-adv-x="450" d="M186 717T152 684T70 596Q101 595 110 595T128 596Q132 597 163 630T202 672T218 690T232 700Q236 698 243 691T258 675T303 629T346 592Q365 595 377 596T391 597L230 758Q186 717 152
684ZM369 39T370 0Q370 -3 375 -3T386 -3T413 2Q417 134 415 257T412 503Q387 501 369 496V492Q370 459 370 426T372 322T375 217T373 139T299 63T150 40T74 158T75 311T75 386T76 446T74 498H34Q36 464 35 419T33 326T32 230T32 142T38 77T59 34T102 9T173 2T270
11T342 35T368 53Q369 39 370 0Z" />
<glyph unicode="&#xfc;" glyph-name="udieresis" horiz-adv-x="449" d="M166 651V652V653Q166 660 167 676T169 709T171 740T172 754Q165 757 148 757T121 753Q121 747 121 734T120 706T119 677T122 652H125L164 651H166ZM324 651V652V653Q324 660 325 676T327
709T329 740T330 754Q323 757 306 757T279 753Q279 747 279 734T278 706T277 677T280 652H283L322 651H324ZM369 39T370 0Q370 -3 375 -3T386 -3T413 2Q417 134 415 257T412 503Q387 501 369 496V492Q370 459 370 426T372 322T375 217T373 139T299 63T150 40T74
158T75 311T75 386T76 446T74 498H34Q36 464 35 419T33 326T32 230T32 142T38 77T59 34T102 9T173 2T270 11T342 35T368 53Q369 39 370 0Z" />
<glyph unicode="&#xfd;" glyph-name="yacute" horiz-adv-x="449" d="M340 708T314 681T270 636T240 605T221 584Q193 581 178 582T156 586Q173 602 195 626T239 670T278 708T308 740L342 704Q340 708 314 681ZM34 502T3 500Q34 387 64 295T178 -53Q189 -92 135
-116T-7 -129Q-16 -153 -6 -177Q79 -182 137 -164T235 -112T299 -30T338 69T364 175T387 279T412 384T441 499L391 496Q379 466 324 219T230 -33Q202 -13 55 498Q34 502 3 500Z" />
<glyph unicode="&#xfe;" glyph-name="thorn" horiz-adv-x="470" d="M93 705T75 706T41 704V638Q41 555 39 472T36 309T34 151T35 -176Q75 -171 91 -173Q92 -171 92 -166Q92 -156 93 -45T88 106Q104 55 134 30T206 2T275 3Q332 7 365 32T414 97T436 186T443 285Q443
320 439 353T425 413T400 460T362 488Q335 498 303 500T214 503T128 469T96 426Q97 523 97 552T97 598T97 625T96 643T95 662T93 693V704Q93 705 75 706ZM393 296T394 274T396 232Q396 195 387 149T358 83T306 53T236 43Q190 43 155 81T107 157T94 241Q94 298 102
343T149 420T224 452Q296 452 342 431T391 349Q393 296 394 274Z" />
<glyph unicode="&#xff;" glyph-name="ydieresis" horiz-adv-x="449" d="M166 651V652V653Q166 660 167 676T169 709T171 740T172 754Q165 757 148 757T121 753Q121 747 121 734T120 706T119 677T122 652H125L164 651H166ZM324 651V652V653Q324 660 325 676T327
709T329 740T330 754Q323 757 306 757T279 753Q279 747 279 734T278 706T277 677T280 652H283L322 651H324ZM34 502T3 500Q34 387 64 295T178 -53Q189 -92 135 -116T-7 -129Q-16 -153 -6 -177Q79 -182 137 -164T235 -112T299 -30T338 69T364 175T387 279T412 384T441
499L391 496Q379 466 324 219T230 -33Q202 -13 55 498Q34 502 3 500Z" />
<glyph unicode="&#x2013;" glyph-name="endash" horiz-adv-x="455" d="M41 227T75 226T157 225T260 223T358 221T409 220T414 220H415Q413 250 412 278Q407 278 397 278T343 278T245 278T146 278T70 278T39 278Q39 275 39 261T37 243T36 227Q41 227 75 226Z" />
<glyph unicode="&#x2014;" glyph-name="emdash" horiz-adv-x="692" d="M44 232T98 231T229 230T393 228T557 226T645 225T653 225H655Q652 255 650 283Q642 283 626 283T533 283T369 283T211 283T90 283T41 283Q41 280 40 266T38 248T36 232Q44 232 98 231Z" />
<glyph unicode="&#x2018;" glyph-name="quoteleft" horiz-adv-x="207" d="M116 703T116 703Q104 668 97 643T83 593T69 536T49 459V458Q59 458 79 458T99 458Q101 465 109 498T128 571T149 649T163 704Q162 708 147 708T127 707T118 705H117Q116 703 116 703Z" />
<glyph unicode="&#x2019;" glyph-name="quoteright" horiz-adv-x="207" d="M116 703T116 703Q104 668 97 643T83 593T69 536T49 459V458Q59 458 79 458T99 458Q101 465 109 498T128 571T149 649T163 704Q162 708 147 708T127 707T118 705H117Q116 703 116 703Z" />
<glyph unicode="&#x201a;" glyph-name="quotesinglbase" horiz-adv-x="196" d="M105 147T105 147Q93 112 86 87T72 37T58 -20T38 -97V-98Q48 -98 68 -98T88 -98Q90 -91 98 -58T117 15T138 93T152 148Q133 149 127 149T116 149T107 149H106Q105 147 105 147Z" />
<glyph unicode="&#x201c;" glyph-name="quotedblleft" horiz-adv-x="367" d="M116 703T116 703Q104 668 97 643T83 593T69 536T49 459V458Q59 458 79 458T99 458Q101 465 109 498T128 571T149 649T163 704Q162 708 147 708T127 707T118 705H117Q116 703 116 703ZM272
703T272 703Q260 668 253 643T239 593T225 536T205 459V458Q215 458 235 458T255 458Q257 465 265 498T284 571T305 649T319 704Q318 708 303 708T283 707T274 705H273Q272 703 272 703Z" />
<glyph unicode="&#x201d;" glyph-name="quotedblright" horiz-adv-x="367" d="M116 703T116 703Q104 668 97 643T83 593T69 536T49 459V458Q59 458 79 458T99 458Q101 465 109 498T128 571T149 649T163 704Q162 708 147 708T127 707T118 705H117Q116 703 116 703ZM272
703T272 703Q260 668 253 643T239 593T225 536T205 459V458Q215 458 235 458T255 458Q257 465 265 498T284 571T305 649T319 704Q318 708 303 708T283 707T274 705H273Q272 703 272 703Z" />
<glyph unicode="&#x201e;" glyph-name="quotedblbase" horiz-adv-x="353" d="M104 147T104 147Q92 112 85 87T71 37T57 -20T37 -97V-98Q47 -98 67 -98T87 -98Q89 -91 97 -58T116 15T137 93T151 148Q140 149 130 149T115 150T106 149H105Q104 147 104 147ZM260
147T260 147Q248 112 241 87T227 37T213 -20T193 -97V-98Q203 -98 223 -98T243 -98Q245 -91 253 -58T272 15T293 93T307 148Q288 149 282 149T271 149T262 149H261Q260 147 260 147Z" />
<glyph unicode="&#x2022;" glyph-name="bullet" horiz-adv-x="289" d="M124 244T128 242T135 241H136Q140 241 143 241T151 241Q154 242 156 242T161 243Q165 245 167 248T170 255Q170 261 170 267T170 279Q170 284 166 287T158 292Q155 293 153 293T148 293Q145
293 142 293T135 293Q135 293 134 293T133 292Q130 292 129 291Q127 291 125 289Q123 288 121 285Q121 284 121 284T121 283Q120 279 120 276T120 268Q119 260 120 252Q121 249 122 247Q124 244 128 242Z" />
<glyph unicode="&#x2039;" glyph-name="guilsinglleft" horiz-adv-x="362" d="M272 105T221 155T119 260Q138 284 162 310T310 465Q307 472 298 481T280 496Q259 477 240 458T196 413T146 362T98 312T56 263Q84 225 117 193T181 131T234 83T286 33L302 45L320
66Q272 105 221 155Z" />
<glyph unicode="&#x203a;" glyph-name="guilsinglright" horiz-adv-x="362" d="M104 105T155 155T257 260Q238 284 214 310T66 465Q69 472 78 481T96 496Q117 477 136 458T180 413T230 362T278 312T320 263Q292 225 259 193T195 131T142 83T90 33L74 45L56 66Q104
105 155 155Z" />
</font>
</defs>
</svg>
