<?xml version="1.0" standalone="no"?>
<!DOCTYPE svg PUBLIC "-//W3C//DTD SVG 1.1//EN" "http://www.w3.org/Graphics/SVG/1.1/DTD/svg11.dtd">
<svg xmlns="http://www.w3.org/2000/svg">
<defs >
<font id="Vidaloka" horiz-adv-x="1017" ><font-face
    font-family="Vidaloka "
    units-per-em="2048"
    panose-1="2 0 5 4 0 0 0 2 0 4"
    ascent="1927"
    descent="-560"
    alphabetic="0" />
<glyph unicode=" " glyph-name="space" horiz-adv-x="463" />
<glyph unicode="!" glyph-name="exclam" horiz-adv-x="542" d="M125 1294Q125 1326 135 1356T165 1410T213 1448T275 1462Q309 1462 335 1448T380 1411T407 1357T416 1294Q416 1266 410 1214T390 1090T361 932T331 752T307 560T294 366H248Q245 462 236 560T212
752T182 932T152 1089T132 1213T125 1294ZM133 115Q133 178 170 216T268 255Q331 255 370 217T409 115Q409 54 370 17T268 -20Q207 -20 170 17T133 115Z" />
<glyph unicode="&quot;" glyph-name="quotedbl" horiz-adv-x="594" d="M90 1329Q90 1462 176 1462Q258 1462 258 1329Q258 1297 251 1248T225 1102T196 946H151Q141 1009 124 1103T98 1247T90 1329ZM336 1329Q336 1462 422 1462Q504 1462 504 1329Q504 1297 497
1248T471 1102T442 946H397Q388 1002 370 1101T344 1248T336 1329Z" />
<glyph unicode="#" glyph-name="numbersign" horiz-adv-x="1364" d="M26 403L45 537H350L413 915H112L131 1049H436L506 1462H629L559 1049H923L993 1462H1116L1046 1049H1335L1317 915H1023L960 537H1253L1235 403H937L864 -35H741L814 403H450L377 -35H254L327
403H26ZM473 537H837L900 915H536L473 537Z" />
<glyph unicode="$" glyph-name="dollar" horiz-adv-x="1009" d="M482 -35Q353 -34 266 -10T124 54T47 142T24 241Q24 274 34 302T63 352T111 386T176 399Q209 399 236 388T281 357T310 311T321 253Q321 182 280 146T174 110V106Q181 98 201 84T258 56T348 32T475
21H482V567Q458 579 432 591T376 617Q277 659 214 709T114 816T63 934T49 1061Q49 1142 77 1213T161 1339T297 1426T482 1461V1653H538V1461Q631 1456 699 1431T813 1366T880 1277T903 1173Q903 1143 893 1116T864 1068T817 1035T753 1022Q720 1022 693 1033T647
1063T617 1108T606 1165Q606 1200 618 1227T650 1273T699 1301T759 1311V1315Q753 1322 738 1335T696 1363T630 1389T538 1405V853Q655 799 736 751T867 649T941 527T964 366Q964 297 938 229T859 104T726 11T538 -33V-244H482V-35ZM203 1172Q203 1137 212 1103T250
1033T334 959T482 879V1407Q413 1405 361 1387T274 1339T221 1266T203 1172ZM805 253Q805 291 794 324T754 392T672 461T538 539V25Q590 32 638 51T724 99T783 167T805 253Z" />
<glyph unicode="%" glyph-name="percent" horiz-adv-x="1612" d="M26 1074Q26 1171 68 1258T197 1403T399 1462Q487 1462 557 1430T671 1344T736 1226T759 1092Q759 933 654 816T398 699Q284 699 198 752T69 889T26 1074ZM228 1107Q229 1012 232 972T242 905T260
847T289 798T331 767T390 754Q554 754 554 1060Q551 1173 547 1218T532 1292T504 1350T459 1393T394 1407Q342 1407 306 1376T255 1294T234 1199T228 1107ZM378 0L1157 1462H1220L441 0H378ZM856 339Q856 412 881 480T952 604T1071 694T1231 728Q1319 728 1389
696T1501 609T1566 491T1589 358Q1589 255 1542 165T1411 20T1229 -35Q1058 -35 957 74T856 339ZM1059 372Q1060 278 1063 238T1073 170T1091 112T1119 63T1162 33T1221 20Q1384 20 1384 325Q1383 422 1380 461T1370 528T1352 584T1324 632T1282 661T1225 673Q1182
673 1150 651T1102 598T1075 522T1059 372Z" />
<glyph unicode="&amp;" glyph-name="ampersand" horiz-adv-x="1499" d="M140 387Q140 557 258 676T586 814V816Q532 817 483 826T382 856T294 910T233 994T209 1112Q209 1157 222 1202T267 1295T346 1379T470 1439T642 1462Q734 1462 804 1438T912 1381T971 1308T1000
1242T1006 1190Q1006 1131 968 1088T860 1045Q803 1045 766 1084T728 1188Q728 1243 764 1280T863 1320L862 1324Q843 1361 795 1383T685 1405Q572 1405 516 1334T460 1136Q460 993 530 916T723 839H737V784H719Q654 784 603 767T519 720T463 655T429 576T413 497T408
421Q408 232 487 132T719 31Q760 31 805 40T905 79T1002 153T1073 277T1102 457L1101 512L1060 511H859Q809 511 773 504T718 488T689 465T676 440T673 417Q673 385 694 373H697Q710 395 736 407T784 419Q829 419 860 392T892 315Q892 267 859 237T779 206Q716
206 669 250T622 395Q622 416 624 436T635 488T661 547T708 603T782 653T891 686T1040 700H1241Q1291 700 1327 707T1382 723T1411 746T1424 771T1427 794Q1427 826 1406 838H1403Q1390 816 1364 804T1316 792Q1271 792 1240 819T1208 896Q1208 944 1241 974T1321
1005Q1384 1005 1431 961T1478 816Q1478 793 1475 772T1463 716T1432 652T1376 594T1285 545T1154 516Q1157 483 1157 453Q1157 347 1129 260T1043 106T889 2T667 -35Q523 -35 418 -2T253 92T167 225T140 387Z" />
<glyph unicode="&apos;" glyph-name="quotesingle" horiz-adv-x="360" d="M86 1329Q86 1462 182 1462Q274 1462 274 1329Q274 1299 264 1246T236 1105T205 946H156Q144 1017 125 1104T96 1245T86 1329Z" />
<glyph unicode="(" glyph-name="parenleft" horiz-adv-x="552" d="M64 481Q64 752 183 1016T480 1462L519 1425Q290 1103 290 481Q290 -136 519 -459L480 -495Q302 -314 183 -52T64 481Z" />
<glyph unicode=")" glyph-name="parenright" horiz-adv-x="552" d="M33 -459Q262 -136 262 481Q262 1103 33 1425L72 1462Q250 1281 369 1017T488 481Q488 211 369 -51T72 -495L33 -459Z" />
<glyph unicode="*" glyph-name="asterisk" horiz-adv-x="933" d="M59 1169Q74 1212 103 1229T163 1246Q192 1246 214 1237T256 1212T294 1176T332 1137T378 1099T440 1069Q440 1118 426 1154T395 1222T364 1283T350 1345Q350 1368 357 1389T380 1426T416 1452T467
1462Q495 1462 516 1453T551 1427T572 1390T579 1345Q579 1311 565 1283T534 1223T503 1155T489 1071Q541 1088 574 1115T634 1173T689 1225T760 1248Q781 1248 802 1241T840 1220T868 1184T879 1131Q879 1105 868 1084T838 1048T795 1025T744 1017Q728 1017 618
1035Q611 1036 582 1036T508 1024Q530 988 563 966T632 927T697 893T741 854Q752 838 758 820T765 780Q765 762 757 742T734 706T698 678T649 667Q619 667 596 682T557 719Q539 740 531 772T519 843T504 920T467 993Q438 954 428 917T413 844T403 778T377 717Q361
696 336 681T281 666Q255 666 234 677T197 704T174 737T165 778Q166 805 178 831T214 877T263 908T317 934T374 970T426 1022Q393 1034 343 1035Q298 1034 255 1025T189 1015Q164 1014 140 1021T96 1043T64 1079T52 1130Q52 1149 59 1169Z" />
<glyph unicode="+" glyph-name="plus" horiz-adv-x="1146" d="M117 592V702H518V1100H628V702H1029V592H628V194H518V592H117Z" />
<glyph unicode="," glyph-name="comma" horiz-adv-x="459" d="M92 103Q92 153 125 196T225 240Q296 240 332 187T369 60Q369 -3 351 -61T280 -182T139 -289L123 -238Q209 -197 246 -135T283 -17H279Q251 -35 217 -35Q164 -35 128 4T92 103Z" />
<glyph unicode="-" glyph-name="hyphen" horiz-adv-x="746" d="M117 592V702H629V592H117Z" />
<glyph unicode="." glyph-name="period" horiz-adv-x="464" d="M94 100Q94 163 132 201T232 240Q295 240 332 202T370 100Q370 39 333 2T232 -35Q171 -35 133 2T94 100Z" />
<glyph unicode="/" glyph-name="slash" horiz-adv-x="850" d="M-56 -495L785 1462H908L66 -495H-56Z" />
<glyph unicode="0" glyph-name="zero" horiz-adv-x="1279" d="M97 693Q97 817 118 930T182 1140T289 1309T441 1421T637 1462Q899 1462 1040 1269T1182 745Q1182 624 1165 515T1108 304T1008 128T854 10T643 -35Q459 -35 335 56T154 308T97 693ZM369 728Q369 516
397 360T487 112T637 20Q769 20 839 204T910 730Q910 1407 643 1407Q600 1407 561 1386T487 1314T426 1187T385 994T369 728Z" />
<glyph unicode="1" glyph-name="one" horiz-adv-x="736" d="M28 1341L467 1462H522V55L676 45V0H123V45L276 55V1344L43 1288L28 1341Z" />
<glyph unicode="2" glyph-name="two" horiz-adv-x="1071" d="M79 1110Q79 1152 92 1197T137 1290T217 1376T344 1437T519 1462Q712 1462 829 1369T946 1119Q946 980 872 857T603 549Q263 221 219 183L622 188Q693 189 735 193T815 207T872 238T903 290T919 371H974L964
0H93V143Q199 237 312 359T501 586Q558 665 595 741T648 886T668 1004T673 1115Q673 1260 612 1331T446 1402Q396 1402 352 1387T278 1347T231 1299T205 1253V1249Q213 1250 229 1250Q294 1250 334 1210T374 1104Q374 1042 334 1001T229 960Q159 960 119 1003T79
1110Z" />
<glyph unicode="3" glyph-name="three" horiz-adv-x="1099" d="M90 1144Q90 1173 100 1209T140 1291T212 1374T331 1436T501 1462Q697 1462 812 1368T927 1105Q927 976 837 893T564 789V787Q1009 743 1009 354Q1009 279 979 212T891 88T733 -1T505 -35Q294 -35
193 38T91 231Q91 293 132 339T241 386Q306 386 346 346T386 243Q386 176 345 141T237 106V102L251 86Q255 81 275 66T316 44T377 29T464 22Q591 22 665 108T740 352Q740 392 739 420T732 493T714 570T679 638T624 697T543 735T431 750H363V805H427Q495 805 544
829T621 897T660 991T673 1105Q673 1242 615 1322T439 1402Q352 1402 288 1356T207 1266V1262Q275 1272 318 1234T361 1130Q361 1071 325 1035T227 998Q162 998 126 1038T90 1144Z" />
<glyph unicode="4" glyph-name="four" horiz-adv-x="1112" d="M10 330V377L772 1462H827V384L1083 387V330H827V55L981 45V0H428V45L581 55V330H10ZM84 377L581 382V1091H578L84 380V377Z" />
<glyph unicode="5" glyph-name="five" horiz-adv-x="1029" d="M86 231Q86 293 127 339T235 386Q301 386 341 348T381 247Q381 180 340 143T231 105V101Q298 22 450 22Q570 22 631 124T692 395Q691 466 689 503T682 565T668 624T645 681T610 729T562 770T498 795T415
805Q352 805 293 778T198 711L153 737L149 1427H542Q591 1427 616 1427T673 1430T719 1435T751 1446T777 1462T792 1488T804 1523T811 1569H866L856 1239L203 1245V786Q321 865 471 865Q580 865 665 839T805 768T895 663T945 536T960 397Q960 322 931 248T846 110T696
5T483 -35Q298 -35 192 40T86 231Z" />
<glyph unicode="6" glyph-name="six" horiz-adv-x="1123" d="M103 621Q103 1037 234 1249T622 1462Q709 1462 776 1442T880 1391T940 1322T970 1253T977 1193Q977 1132 942 1088T836 1043Q779 1043 741 1080T703 1178Q703 1236 740 1274T836 1318V1322Q821 1356
773 1381T650 1407Q365 1407 365 1030Q365 996 362 908T361 755H363Q402 815 470 850T625 885Q733 885 814 848T943 747T1012 602T1035 428Q1035 367 1021 306T971 183T883 73T749 -5T566 -35Q477 -35 406 -12T287 47T204 138T150 247T120 372T106 498T103 621ZM360
569Q360 407 375 296T418 126T479 44T555 20Q664 20 717 128T770 408Q770 469 768 511T760 604T741 690T707 754T653 800T574 815Q503 815 440 766T361 641Q360 616 360 569Z" />
<glyph unicode="7" glyph-name="seven" horiz-adv-x="865" d="M52 1057L62 1427H851V1284Q740 1138 665 980T554 668T503 383T489 109Q489 46 461 -2T368 -50Q258 -50 258 107Q258 189 291 302T355 488T470 745Q551 925 627 1057T749 1242V1244L386 1239Q315 1238
274 1234T199 1220T148 1189T121 1138T107 1057H52Z" />
<glyph unicode="8" glyph-name="eight" horiz-adv-x="1135" d="M117 309Q117 371 141 428T208 532T297 616T402 688Q267 787 199 896T131 1098Q131 1255 256 1358T571 1462Q726 1462 841 1375T956 1163Q956 1101 937 1048T879 952T800 877T700 808Q744 777 757
769T810 730T898 657T980 563T1023 483T1039 420T1047 348Q1047 274 1019 207T936 85T791 -2T586 -35Q364 -35 241 54T117 309ZM285 319Q285 270 300 222T347 126T441 50T586 20Q699 20 779 81T859 250Q859 288 846 320T810 382T734 454T622 538L458 650Q376 583
331 505T285 319ZM332 1225Q332 1192 343 1159T367 1101T411 1042T459 991T520 940T578 896L656 838Q812 960 812 1145Q812 1274 743 1340T557 1407Q465 1407 399 1356T332 1225Z" />
<glyph unicode="9" glyph-name="nine" horiz-adv-x="1122" d="M86 999Q86 1060 100 1121T150 1244T238 1354T372 1432T555 1462Q644 1462 715 1439T834 1380T917 1289T971 1180T1001 1055T1015 929T1018 806Q1018 385 894 175T509 -35Q422 -35 355 -15T251 36T191
105T160 174T153 234Q153 294 189 339T298 385Q354 385 391 348T428 249Q428 191 391 153T295 109V105Q309 72 362 46T491 20Q540 20 579 31T645 71T693 128T725 210T745 304T755 418T759 539T760 675Q721 614 653 578T496 542Q388 542 307 579T178 680T109 825T86
999ZM351 1019Q351 958 353 916T361 823T380 737T414 673T468 627T547 612Q618 612 681 661T760 786Q760 799 760 823T761 858Q761 1019 746 1131T702 1301T641 1383T566 1407Q457 1407 404 1299T351 1019Z" />
<glyph unicode=":" glyph-name="colon" horiz-adv-x="510" d="M117 100Q117 163 155 201T255 240Q318 240 355 202T393 100Q393 39 356 2T255 -35Q194 -35 156 2T117 100ZM117 894Q117 957 155 995T255 1034Q318 1034 355 996T393 894Q393 833 356 796T255 759Q194
759 156 796T117 894Z" />
<glyph unicode=";" glyph-name="semicolon" horiz-adv-x="518" d="M117 894Q117 957 155 995T255 1034Q318 1034 355 996T393 894Q393 833 356 796T255 759Q194 759 156 796T117 894ZM123 103Q123 153 156 196T256 240Q327 240 363 187T400 60Q400 -3 382 -61T311
-182T170 -289L154 -238Q240 -197 277 -135T314 -17H310Q282 -35 248 -35Q195 -35 159 4T123 103Z" />
<glyph unicode="&lt;" glyph-name="less" horiz-adv-x="1018" d="M16 611V669L928 1114V992L181 645V643L928 297V174L16 611Z" />
<glyph unicode="=" glyph-name="equal" horiz-adv-x="1146" d="M117 398V508H1029V398H117ZM117 798V908H1029V798H117Z" />
<glyph unicode="&gt;" glyph-name="greater" horiz-adv-x="1018" d="M90 174V296L837 643V645L90 991V1114L1002 677V619L90 174Z" />
<glyph unicode="?" glyph-name="question" horiz-adv-x="847" d="M18 1158Q18 1208 40 1258T109 1356T238 1432T430 1462Q523 1462 597 1435T718 1360T788 1252T813 1123Q813 1065 792 1009T736 904T575 727Q533 685 499 644T443 558T421 467Q421 436 431 406H377Q357
450 357 498Q357 549 380 609T437 727Q536 898 560 979T584 1136Q584 1270 526 1337T362 1404Q278 1404 213 1361T137 1276V1270H151Q279 1270 279 1148Q279 1093 244 1057T149 1021Q89 1021 54 1061T18 1158ZM294 85Q294 142 328 176T417 211Q473 211 507 177T541
85Q541 31 507 -2T417 -35Q363 -35 329 -2T294 85Z" />
<glyph unicode="@" glyph-name="at" horiz-adv-x="1508" d="M78 546Q78 705 128 845T269 1089T499 1253T805 1314Q991 1314 1139 1228T1370 990T1453 650Q1453 526 1420 427T1334 268T1217 178T1089 147Q1015 147 962 176T890 264Q846 207 786 183T671 158Q547
158 473 245T398 488Q398 561 408 631T445 772T511 896T615 983T759 1017Q869 1017 946 950L952 1000L1100 985Q1094 933 1072 751T1038 466T1027 313Q1027 250 1048 226T1114 201Q1219 201 1302 329T1385 633Q1385 816 1313 956T1102 1177T775 1258Q638 1258 518
1200T317 1046T190 824T143 563Q143 450 166 348T241 157T367 2T550 -102T789 -140Q1100 -140 1287 66L1324 32Q1113 -195 792 -195Q623 -195 487 -140T262 15T126 250T78 546ZM551 477Q551 367 595 300T720 233Q806 233 882 323Q882 350 885 394T912 645T939 890Q878
960 779 960Q717 960 671 918T600 805T563 652T551 477Z" />
<glyph unicode="A" glyph-name="A" horiz-adv-x="1237" d="M-6 0V45L115 55L588 1468H633L1122 55L1254 45V0H719V45L854 55L736 414H288L172 55L307 45V0H-6ZM306 474L714 482L514 1096H510L306 474Z" />
<glyph unicode="B" glyph-name="B" horiz-adv-x="1282" d="M73 0V45L227 55V1372L73 1382V1427H608Q694 1427 764 1419T904 1390T1019 1333T1094 1241T1123 1106Q1123 1045 1096 994T1028 908T931 848T825 807T723 786V782Q824 782 909 759T1057 689T1157 569T1193
399Q1193 313 1162 245T1079 131T957 56T810 13T651 0H73ZM483 65Q537 55 587 55Q746 55 836 147T927 397Q927 566 834 655T575 745Q528 745 483 738V65ZM483 806Q525 800 560 800Q863 800 863 1100Q863 1228 795 1300T587 1372Q537 1372 483 1362V806Z" />
<glyph unicode="C" glyph-name="C" horiz-adv-x="1253" d="M98 688Q98 799 122 907T198 1116T327 1293T515 1416T761 1462Q917 1462 1036 1377T1155 1174Q1155 1115 1118 1073T1015 1031Q953 1031 914 1069T875 1167Q875 1225 912 1264T1004 1304Q1015 1304 1020
1303V1307Q1005 1335 939 1370T780 1405Q598 1405 481 1216T364 717Q364 584 387 466T455 250T578 96T754 38Q896 38 1001 122T1165 339L1212 317Q1069 -35 731 -35Q584 -35 471 6T289 114T175 278T115 473T98 688Z" />
<glyph unicode="D" glyph-name="D" horiz-adv-x="1418" d="M73 0V45L227 55V1372L73 1382V1427H577Q780 1427 925 1376T1154 1228T1277 1003T1316 707Q1316 586 1291 482T1212 288T1076 135T876 36T610 0H73ZM483 65Q537 55 581 55Q683 55 762 88T895 179T984
322T1034 506T1050 723Q1050 839 1039 930T998 1107T917 1249T785 1338T593 1372Q537 1372 483 1362V65Z" />
<glyph unicode="E" glyph-name="E" horiz-adv-x="1210" d="M73 0V45L227 55V1372L73 1382V1427H1058L1068 1020H1026Q1014 1088 1001 1135T962 1231T904 1307T818 1354T696 1372Q611 1372 483 1362V768Q513 765 592 765Q697 765 742 816T787 1004H842V467H787Q787
603 742 656T592 710Q515 710 483 707V65Q611 55 737 55Q796 55 841 64T919 96T975 145T1015 216T1044 302T1067 408H1110L1099 0H73Z" />
<glyph unicode="F" glyph-name="F" horiz-adv-x="1080" d="M73 0V45L227 55V1372L73 1382V1427H1018L1028 1020H972Q965 1104 948 1163T897 1272T802 1347T656 1372Q541 1372 483 1362V746Q508 745 512 745Q583 745 624 752T698 784T744 857T757 985H812V448H757Q757
585 712 638T562 691L483 690V55L677 45V0H73Z" />
<glyph unicode="G" glyph-name="G" horiz-adv-x="1407" d="M98 684Q98 789 121 895T197 1104T324 1286T511 1413T757 1462Q959 1462 1091 1376T1224 1173Q1224 1110 1184 1066T1074 1022Q1009 1022 968 1062T927 1165Q927 1233 970 1271T1080 1310V1314Q1058 1340
987 1371T817 1402Q676 1402 573 1315T417 1073T364 717Q364 648 368 584T386 449T419 318T474 203T553 108T662 46T803 23Q890 23 989 53V598L841 609V654H1365V609L1218 598V68Q1134 19 1007 -8T748 -35Q98 -35 98 684Z" />
<glyph unicode="H" glyph-name="H" horiz-adv-x="1504" d="M73 0V45L227 55V1372L73 1382V1427H637V1382L483 1372V762L1021 770V1372L867 1382V1427H1431V1382L1277 1372V55L1431 45V0H867V45L1021 55V702H483V55L637 45V0H73Z" />
<glyph unicode="I" glyph-name="I" horiz-adv-x="710" d="M73 0V45L227 55V1372L73 1382V1427H637V1382L483 1372V55L637 45V0H73Z" />
<glyph unicode="J" glyph-name="J" horiz-adv-x="821" d="M-59 -113Q-59 -53 -19 -9T84 35Q151 35 188 -5T225 -102Q225 -135 205 -173T149 -229L152 -233Q165 -252 211 -252Q227 -252 238 -250T268 -241T298 -217T323 -173T341 -99T348 8V1372L154 1382V1427H758V1382L604
1372V221Q604 87 574 -13T499 -168T396 -255T290 -298T195 -307Q88 -307 15 -256T-59 -113Z" />
<glyph unicode="K" glyph-name="K" horiz-adv-x="1381" d="M73 0V45L227 55V1372L73 1382V1427H637V1382L483 1372V764H485L1052 1372L923 1382V1427H1247V1382L1130 1372L665 881L1300 55L1408 45V0H837V45L966 55L485 712H483V55L637 45V0H73Z" />
<glyph unicode="L" glyph-name="L" horiz-adv-x="1166" d="M73 0V45L227 55V1372L73 1382V1427H637V1382L483 1372V65Q646 54 706 54Q761 54 802 57T878 70T936 91T981 125T1015 171T1049 259T1086 408H1120V0H73Z" />
<glyph unicode="M" glyph-name="M" horiz-adv-x="1795" d="M73 0V45L227 55V1372L73 1382V1427H501L918 363H920L1312 1427H1722V1382L1568 1372V55L1722 45V0H1158V45L1312 55L1314 1278H1312L837 -20H800L272 1325H270L285 55L436 45V0H73Z" />
<glyph unicode="N" glyph-name="N" horiz-adv-x="1414" d="M69 1382V1427H283L1141 387H1143L1129 1372L976 1382V1427H1346V1382L1192 1372L1203 -20H1142L284 1023H282L296 55L449 45V0H79V45L233 55L222 1372L69 1382Z" />
<glyph unicode="O" glyph-name="O" horiz-adv-x="1441" d="M96 709Q96 915 170 1085T387 1358T718 1462Q1000 1462 1172 1263T1345 741Q1345 623 1322 512T1248 302T1127 128T951 9T724 -35Q431 -35 264 169T96 709ZM364 731Q364 534 403 376T523 119T718 20Q886
20 981 215T1077 733Q1077 1069 984 1238T724 1407Q666 1407 614 1383T515 1306T436 1176T384 984T364 731Z" />
<glyph unicode="P" glyph-name="P" horiz-adv-x="1207" d="M73 0V45L227 55V1372L73 1382V1427H616Q726 1427 819 1404T988 1333T1105 1206T1148 1022Q1148 926 1116 849T1028 720T896 634T732 584T548 568Q527 568 483 570V55L637 45V0H73ZM483 627Q518 624 554
624Q882 624 882 1024Q882 1121 860 1189T797 1295T705 1349T589 1366Q540 1366 483 1358V627Z" />
<glyph unicode="Q" glyph-name="Q" horiz-adv-x="1441" d="M96 709Q96 915 170 1085T387 1358T718 1462Q1000 1462 1172 1263T1345 741Q1345 623 1322 512T1248 302T1127 128T951 9T724 -35Q431 -35 264 169T96 709ZM364 731Q364 534 403 376T523 119T718 20Q886
20 981 215T1077 733Q1077 1069 984 1238T724 1407Q666 1407 614 1383T515 1306T436 1176T384 984T364 731ZM404 -173Q526 -73 656 -73Q719 -73 778 -93T877 -138Q1060 -256 1114 -286Q1183 -325 1234 -325Q1284 -325 1309 -295T1334 -226Q1334 -224 1334 -219T1333
-212L1330 -213Q1309 -249 1264 -249Q1216 -249 1187 -220T1158 -146Q1158 -98 1188 -69T1265 -39Q1326 -39 1359 -85T1393 -200Q1393 -239 1376 -282T1326 -363T1242 -426T1127 -451Q1084 -451 1057 -447T976 -419T841 -349L662 -237Q632 -219 596 -204T532 -189Q472
-189 424 -213L404 -173Z" />
<glyph unicode="R" glyph-name="R" horiz-adv-x="1289" d="M73 0V45L227 55V1372L73 1382V1427H606Q717 1427 806 1408T966 1348T1075 1238T1114 1073Q1114 902 999 807T688 683V681Q772 680 833 654T931 588T1001 483Q1023 439 1063 349T1144 188Q1176 131 1211
100T1270 62T1325 55V0H1159Q1083 0 1039 9T952 55T874 154T758 420Q746 450 724 497T685 569T646 621T600 659T550 671Q506 671 483 670V55L637 45V0H73ZM483 727Q494 726 524 726Q702 726 774 812T847 1071Q847 1157 827 1217T768 1310T684 1357T579 1371Q540
1371 483 1363V727Z" />
<glyph unicode="S" glyph-name="S" horiz-adv-x="1120" d="M575 1407Q503 1407 449 1390T357 1342T302 1268T283 1172Q283 1135 293 1099T336 1026T431 948T600 862Q722 806 806 757T944 653T1020 530T1044 366Q1044 294 1015 222T928 93T781 1T573 -35Q441 -35
351 -11T207 53T128 141T104 241Q104 274 114 302T143 352T191 386T256 399Q289 399 316 388T361 357T390 311T401 253Q401 182 360 146T254 110V106Q261 98 281 84T338 56T428 32T555 21Q615 21 674 37T780 83T856 156T885 253Q885 299 868 339T804 420T674 509T456
617Q357 659 294 709T194 816T143 934T129 1061Q129 1143 159 1216T246 1343T386 1430T577 1462Q680 1462 756 1438T883 1375T958 1283T983 1173Q983 1143 973 1116T944 1068T897 1035T833 1022Q800 1022 773 1033T727 1063T697 1108T686 1165Q686 1200 698 1227T730
1273T779 1301T839 1311V1315Q833 1322 815 1337T765 1368T686 1395T575 1407Z" />
<glyph unicode="T" glyph-name="T" horiz-adv-x="1232" d="M60 937L70 1427H1162L1172 938H1117Q1103 1015 1093 1062T1067 1161T1036 1242T997 1300T945 1342T876 1364T786 1373Q782 1373 770 1373T747 1372V55L902 45V0H338V45L491 55L485 1371Q475 1371 463
1371T446 1372Q401 1372 366 1367T303 1348T253 1318T214 1272T184 1214T158 1138T115 937H60Z" />
<glyph unicode="U" glyph-name="U" horiz-adv-x="1431" d="M49 1382V1427H613V1382L458 1372V438Q458 397 460 365T469 289T491 211T531 143T593 86T683 49T806 34Q888 34 951 59T1054 126T1119 226T1155 346T1165 478V1372L1012 1382V1427H1382V1382L1229 1372V456Q1229
384 1218 320T1175 188T1095 74T964 -4T774 -35Q663 -35 576 -19T429 23T327 90T260 172T223 269T206 372T202 479V1372L49 1382Z" />
<glyph unicode="V" glyph-name="V" horiz-adv-x="1314" d="M-39 1382V1427H516V1382L380 1372L778 358H782L1130 1372L995 1382V1427H1314V1382L1193 1372L718 -20H673L112 1372L-39 1382Z" />
<glyph unicode="W" glyph-name="W" horiz-adv-x="1844" d="M-27 1382V1427H528V1382L392 1372L658 373H662L971 1448H1016L1376 377H1380L1666 1372L1531 1382V1427H1848V1382L1727 1372L1321 -20H1276L908 1023H906L600 -20H555L124 1372L-27 1382Z" />
<glyph unicode="X" glyph-name="X" horiz-adv-x="1345" d="M-11 1382V1427H549V1382L399 1372L713 862H715L1022 1372L893 1382V1427H1224V1382L1093 1372L752 802L1216 55L1370 45V0H745V45L919 55L595 587H593L274 55L424 45V0H69V45L200 55L556 647L112 1372L-11
1382Z" />
<glyph unicode="Y" glyph-name="Y" horiz-adv-x="1219" d="M-37 1382V1427H550V1382L395 1372L732 765H737L1019 1372L878 1382V1427H1211V1382L1087 1372L775 703V55L929 45V0H366V45L519 55V644L98 1372L-37 1382Z" />
<glyph unicode="Z" glyph-name="Z" horiz-adv-x="1187" d="M95 958L126 1427H1054V1374L363 51L744 45Q746 45 748 45Q806 46 854 72Q903 100 935 143T992 253T1030 384T1054 530H1099L1068 0H98V55L825 1378L488 1372Q330 1369 251 1270T140 958H95Z" />
<glyph unicode="[" glyph-name="bracketleft" horiz-adv-x="547" d="M152 -495L153 1462H506V1402L347 1401V-434L510 -435V-495H152Z" />
<glyph unicode="\" glyph-name="backslash" horiz-adv-x="850" d="M-58 1462H65L906 -495H784L-58 1462Z" />
<glyph unicode="]" glyph-name="bracketright" horiz-adv-x="547" d="M37 -435L200 -434V1401L41 1402V1462H394L395 -495H37V-435Z" />
<glyph unicode="^" glyph-name="asciicircum" horiz-adv-x="1299" d="M80 950L634 1462H672L1219 950H1090L649 1354H647L207 950H80Z" />
<glyph unicode="_" glyph-name="underscore" horiz-adv-x="1091" d="M66 -111H1025V-197H66V-111Z" />
<glyph unicode="`" glyph-name="grave" horiz-adv-x="488" d="M85 1489Q85 1528 110 1555T174 1582Q205 1582 230 1563T264 1513L375 1195L338 1169L115 1409Q85 1440 85 1489Z" />
<glyph unicode="a" glyph-name="a" horiz-adv-x="1005" d="M72 217Q72 266 87 311T138 399T224 472T350 521T518 540Q567 540 611 536V674Q611 740 609 781T596 865T568 932T516 971T434 987Q288 987 221 872V868Q238 871 252 871Q304 871 334 839T364 747Q364
695 328 660T238 624Q179 624 145 664T111 758Q111 876 219 955T469 1034Q569 1034 639 1013T752 958T817 864T848 742T856 590V51L959 41V0H641L613 158H611Q562 63 493 17T324 -30Q202 -30 137 43T72 217ZM314 238Q314 158 344 109T432 59Q500 59 555 144T611
352V490Q571 495 546 495Q494 495 454 481T389 443T349 393T326 334T317 281T314 238Z" />
<glyph unicode="b" glyph-name="b" horiz-adv-x="1089" d="M24 1348V1389L233 1411L374 1448L392 1419V865H396Q453 961 517 997T673 1034Q700 1034 727 1029T788 1010T851 972T910 908T959 814T992 683T1005 510Q1005 398 981 303T910 132T785 13T607 -30Q551
-30 492 -5T392 78L188 -10H147V1348H24ZM392 215Q392 144 441 87T554 30Q593 30 624 48T675 93T710 165T731 247T743 341T748 433T749 520Q749 687 727 785T668 919T575 954Q502 954 447 874T392 695V215Z" />
<glyph unicode="c" glyph-name="c" horiz-adv-x="946" d="M81 496Q81 570 98 644T152 788T243 913T376 1001T548 1034Q687 1034 778 956T870 770Q870 716 836 679T743 641Q688 641 653 676T618 764Q618 814 650 850T734 886Q741 886 759 884V889Q747 909 731 926T674
964T585 984Q497 984 440 918T360 748T337 500Q337 39 583 39Q615 39 642 44T707 66T782 120T853 216L892 193Q769 -30 540 -30Q81 -30 81 496Z" />
<glyph unicode="d" glyph-name="d" horiz-adv-x="1106" d="M82 477Q82 564 98 644T149 795T235 919T360 1003T525 1034Q563 1034 614 1022T697 983V1348H574V1389L783 1411L924 1448L943 1419V51L1045 41V0H711L698 142H696Q638 43 575 7T424 -30Q401 -30 375
-25T315 -6T250 31T187 94T133 185T96 311T82 477ZM338 487Q338 54 517 54Q588 54 642 139T697 321V934Q640 977 570 977Q524 977 488 958T427 910T386 837T360 751T346 657T339 568T338 487Z" />
<glyph unicode="e" glyph-name="e" horiz-adv-x="982" d="M81 502Q81 580 96 654T145 798T228 919T349 1002T510 1034Q593 1034 659 1011T769 945T842 843T883 712T896 557L869 532H337V471Q337 35 585 35Q761 35 866 211L905 187Q776 -30 538 -30Q308 -30 195
112T81 502ZM337 577L660 590Q663 641 663 688Q663 833 629 911T514 989Q466 989 432 958T378 867T350 739T337 577Z" />
<glyph unicode="f" glyph-name="f" horiz-adv-x="680" d="M36 961V1004H183Q184 1092 199 1163T236 1279T290 1358T352 1408T417 1434T475 1446T523 1448Q630 1448 689 1401T748 1280Q748 1231 717 1196T632 1161Q580 1161 550 1196T519 1276Q519 1304 530 1332T562
1374V1378Q559 1388 545 1395T511 1403Q483 1403 466 1388T441 1345T431 1294T429 1237V1004H670V961L429 951V51L572 41V0H81V41L183 51V951L36 961Z" />
<glyph unicode="g" glyph-name="g" horiz-adv-x="1121" d="M66 -256Q66 -201 91 -158T155 -93T227 -59T289 -47V-45Q103 11 103 156Q103 243 165 306T300 390V392Q209 434 162 511T115 685Q115 834 234 934T529 1034Q695 1034 805 947Q886 1100 1000 1100Q1058
1100 1090 1067T1123 983Q1123 938 1097 908T1029 877Q983 877 955 902T926 973Q926 1004 937 1022V1026Q911 1021 886 990T842 913Q933 816 933 687Q933 537 818 442T527 347Q429 347 351 372Q291 351 257 320T223 254Q223 162 555 162Q692 162 779 148T922 98T1000
5T1023 -141Q1023 -189 1008 -237T956 -332T865 -415T728 -473T541 -495Q479 -495 421 -490T295 -469T180 -428T99 -359T66 -256ZM244 -225Q244 -287 273 -331T353 -399T459 -432T578 -443Q732 -443 822 -383T912 -227Q912 -165 877 -130T777 -84T644 -70L484 -67Q391
-65 330 -55L329 -56Q244 -117 244 -225ZM361 691Q361 546 402 469T525 392Q687 392 687 685Q687 843 650 916T529 989Q448 989 405 911T361 691Z" />
<glyph unicode="h" glyph-name="h" horiz-adv-x="1149" d="M41 1348V1389L250 1411L391 1448L405 1419V860H409Q528 1034 717 1034Q753 1034 786 1028T859 1001T928 946T977 849T997 702V51L1099 41V0H649V41L751 51V731Q751 944 614 944Q524 944 467 862T409
647V51L512 41V0H61V41L164 51V1348H41Z" />
<glyph unicode="i" glyph-name="i" horiz-adv-x="586" d="M57 924V965L266 987L407 1024L425 995V51L528 41V0H77V41L180 51V924H57ZM166 1379Q166 1407 176 1431T205 1473T247 1501T298 1511Q325 1511 349 1501T391 1472T420 1430T431 1379Q431 1352 421 1328T392
1286T350 1257T298 1246Q270 1246 246 1256T204 1285T176 1327T166 1379Z" />
<glyph unicode="j" glyph-name="j" horiz-adv-x="561" d="M-160 -333Q-160 -308 -151 -286T-126 -246T-88 -218T-40 -208Q-13 -208 8 -217T45 -243T67 -281T75 -327Q75 -339 72 -353T62 -380T46 -404T24 -423V-427Q38 -450 73 -450Q90 -450 107 -443T138 -415T160
-353T169 -245V924H46V965L255 987L397 1024L415 995V-45Q415 -156 394 -232T338 -358T261 -435T178 -476T103 -492T48 -495Q-9 -495 -48 -482T-112 -447T-148 -396T-160 -333ZM156 1379Q156 1407 166 1431T195 1473T237 1501T288 1511Q315 1511 339 1501T381 1472T410
1430T421 1379Q421 1352 411 1328T382 1286T340 1257T288 1246Q260 1246 236 1256T194 1285T166 1327T156 1379Z" />
<glyph unicode="k" glyph-name="k" horiz-adv-x="1080" d="M41 1389L250 1411L391 1448L409 1419V51L512 41V0H61V41L164 51V1350L43 1348L41 1389ZM409 522V547L798 952L686 963V1004H985V963L872 952L585 647L987 51L1091 41V0H633V41L714 51L409 522Z" />
<glyph unicode="l" glyph-name="l" horiz-adv-x="572" d="M41 1348V1389L250 1411L391 1448L409 1419V51L512 41V0H61V41L164 51V1348H41Z" />
<glyph unicode="m" glyph-name="m" horiz-adv-x="1700" d="M57 924V965L266 987L407 1024L421 995V860H425Q544 1034 712 1034Q747 1034 780 1027T849 1001T916 943T963 847H965Q1099 1034 1277 1034Q1312 1034 1345 1028T1416 999T1483 942T1530 844T1549 696V51L1652
41V0H1201V41L1303 51V731Q1303 790 1293 832T1269 896T1235 928T1203 942T1176 944Q1109 944 1046 870T982 667V51L1085 41V0H634V41L736 51V731Q736 790 726 832T703 896T670 928T638 942T611 944Q547 944 486 858T425 647V51L528 41V0H77V41L180 51V924H57Z"
/>
<glyph unicode="n" glyph-name="n" horiz-adv-x="1164" d="M56 965L265 987L406 1024L424 995L420 860H424Q543 1034 732 1034Q768 1034 801 1028T874 1001T943 946T992 849T1012 702V51L1114 41V0H664V41L766 51V731Q766 944 629 944Q539 944 482 862T424 647V51L527
41V0H76V41L179 51V926L58 924L56 965Z" />
<glyph unicode="o" glyph-name="o" horiz-adv-x="1071" d="M80 496Q80 647 138 770T302 963T541 1034Q651 1034 739 989T881 867T963 698T992 502Q992 355 936 234T776 42T539 -30Q422 -30 333 11T189 126T107 293T80 496ZM336 508Q336 397 347 310T381 155T443
51T535 15Q736 15 736 496Q736 617 727 704T695 857T632 956T535 989Q482 989 443 953T381 851T347 700T336 508Z" />
<glyph unicode="p" glyph-name="p" horiz-adv-x="1114" d="M46 924V965L255 987L396 1024L410 995V865H414Q471 962 534 998T685 1034Q708 1034 734 1029T794 1010T861 972T924 908T979 815T1016 684T1031 512Q1031 399 1003 303T921 131T779 13T578 -30Q479 -30
414 21V-424L517 -434V-475H66V-434L169 -424V924H46ZM414 74Q471 23 537 23Q585 23 622 42T684 89T727 162T754 248T768 345T774 438T775 526Q775 688 752 785T692 918T599 954Q521 954 468 872T414 688V74Z" />
<glyph unicode="q" glyph-name="q" horiz-adv-x="1100" d="M84 481Q84 592 110 690T185 866T313 989T492 1034Q548 1034 607 1008T707 925L912 1004H953V-424L1055 -434V-475H605V-434L707 -424V142H703Q646 45 582 8T431 -30Q407 -30 382 -26T321 -9T255 27T191
88T136 180T99 309T84 481ZM340 471Q340 348 356 261T399 130T455 69T517 51Q591 51 649 134T707 318V791Q701 864 655 919T545 974Q504 974 472 955T418 908T382 835T358 749T346 652T341 559T340 471Z" />
<glyph unicode="r" glyph-name="r" horiz-adv-x="868" d="M57 924V965L266 987L407 1024L421 995V823H425Q445 863 474 901T537 968T611 1016T690 1034Q768 1034 810 993T853 882Q853 853 844 829T819 786T779 758T727 747Q697 747 673 757T633 784T607 823T598
872Q598 925 620 950V956Q584 948 550 918T487 837T442 713T425 549V51L528 41V0H77V41L180 51V924H57Z" />
<glyph unicode="s" glyph-name="s" horiz-adv-x="912" d="M419 19Q533 19 587 61T642 166Q642 199 632 224T598 273T536 321T440 377Q390 406 334 437T231 510T152 607T120 739Q120 807 146 862T218 955T329 1015T471 1036Q529 1036 587 1022T693 978T769 906T798
806Q798 784 791 763T768 725T732 698T682 687Q624 687 595 719T566 797Q566 826 574 846T595 880T626 900T662 907H671V909Q661 925 642 939T597 965T539 984T471 991Q418 991 381 977T321 942T286 894T275 844Q275 815 284 794T315 752T377 705T477 645Q535 615
599 581T718 503T807 401T843 266Q843 201 819 147T743 54T612 -6T423 -28Q371 -28 312 -15T203 26T120 100T87 212Q87 240 96 266T121 312T162 345T217 357Q244 357 265 348T300 323T323 286T332 241Q332 213 322 192T296 156T260 135T219 127Q215 127 211 127T202
128V126Q211 106 229 87T274 53T338 29T419 19Z" />
<glyph unicode="t" glyph-name="t" horiz-adv-x="753" d="M5 961V1004H175V1225L261 1234L402 1271L421 1242V1004H640V961L421 952V248Q421 187 435 147T473 91T511 72T542 68Q573 68 601 81T653 121T692 168T726 221L769 195Q716 107 677 67Q582 -30 458 -30Q411
-30 375 -24T299 4T234 60T192 158T175 305V952L5 961Z" />
<glyph unicode="u" glyph-name="u" horiz-adv-x="1142" d="M35 924V965L244 987L385 1024L404 995V273Q404 214 416 172T444 110T483 78T520 65T549 63Q619 63 677 151T736 369V924H613V965L822 987L963 1024L981 995V51L1084 41V0H770L740 154H736Q710 116 687
90T629 33T549 -14T451 -30Q415 -30 381 -24T305 2T232 57T180 154T158 301V924H35Z" />
<glyph unicode="v" glyph-name="v" horiz-adv-x="963" d="M-12 963V1004H461V963L353 952L589 322H593L809 952L699 963V1004H973V963L869 952L534 -10H488L87 952L-12 963Z" />
<glyph unicode="w" glyph-name="w" horiz-adv-x="1476" d="M556 963V1004H1003V963L894 952L1106 319H1110L1325 952L1210 963V1004H1486V963L1382 952L1053 -10H1008L745 690L503 -10H457L86 952L-12 963V1004H453V963L353 952L558 328H562L717 764L646 952L556 963Z" />
<glyph unicode="x" glyph-name="x" horiz-adv-x="1034" d="M62 0V41L167 51L421 440L101 952L3 963V1004H480V963L372 952L577 625L785 952L674 963V1004H955V963L850 952L609 575L939 51L1037 41V0H556V41L665 51L454 388L232 51L343 41V0H62Z" />
<glyph unicode="y" glyph-name="y" horiz-adv-x="965" d="M80 -347Q80 -288 115 -248T205 -208Q263 -208 292 -244T322 -333Q322 -353 310 -381T277 -423V-427Q312 -426 343 -403T399 -335T437 -261T467 -186L512 -34L87 952L-12 963V1004H461V963L353 952L613
300L809 952L699 963V1004H971V963L867 952L535 -172Q500 -274 463 -342T389 -441T319 -484T248 -495Q173 -495 127 -453T80 -347Z" />
<glyph unicode="z" glyph-name="z" horiz-adv-x="961" d="M57 29L599 952L356 961H346Q303 961 268 945Q230 926 208 897T171 827T152 749T147 670H106V1004H873L892 975L329 52L614 43H624Q670 44 706 60Q746 78 767 107T803 177T821 255T825 334H866V0H75L57 29Z" />
<glyph unicode="{" glyph-name="braceleft" horiz-adv-x="684" d="M-9 454V514H38Q232 514 232 750Q232 795 227 893T221 1038Q221 1249 316 1355T619 1462H676V1408H664Q531 1408 476 1336T420 1121Q420 1106 429 996T439 767T357 579T139 486V482Q275 459 357
390T439 201T430 -29T420 -154Q420 -297 475 -369T664 -441H676V-495H619Q413 -495 317 -388T221 -70Q221 -23 226 75T232 218Q232 454 38 454H-9Z" />
<glyph unicode="|" glyph-name="bar" horiz-adv-x="426" d="M152 -495V1462H274V-495H152Z" />
<glyph unicode="}" glyph-name="braceright" horiz-adv-x="685" d="M694 513V453H647Q453 453 453 217Q453 172 458 74T464 -71Q464 -282 369 -388T66 -495H9V-441H21Q154 -441 209 -369T265 -154Q265 -139 256 -29T246 200T328 388T546 481V485Q410 508 328 577T246
766T255 996T265 1121Q265 1264 210 1336T21 1408H9V1462H66Q272 1462 368 1355T464 1037Q464 990 459 892T453 749Q453 513 647 513H694Z" />
<glyph unicode="~" glyph-name="asciitilde" horiz-adv-x="1101" d="M94 449Q112 511 136 566T197 665T283 733T403 761Q459 761 503 742T592 699T685 656T799 636Q907 636 954 759H1011Q938 437 731 437Q668 437 608 457T492 502T386 547T293 568Q261 568 240
562T204 541T176 504T151 449H94Z" />
<glyph unicode="&#xa0;" glyph-name="nbspace" horiz-adv-x="463" />
<glyph unicode="&#xa1;" glyph-name="exclamdown" horiz-adv-x="538" d="M415 8Q415 -24 405 -54T375 -108T327 -146T265 -160Q231 -160 205 -146T160 -109T133 -55T124 8Q124 36 130 88T150 212T179 370T209 550T233 742T246 936H292Q295 840 304 742T328 550T358
370T388 213T408 89T415 8ZM407 1187Q407 1124 370 1086T272 1047Q209 1047 170 1085T131 1187Q131 1248 170 1285T272 1322Q333 1322 370 1285T407 1187Z" />
<glyph unicode="&#xa2;" glyph-name="cent" horiz-adv-x="982" d="M100 496Q100 565 115 634T163 771T242 892T357 983T508 1030V1162H590V1033Q720 1026 804 950T889 770Q889 716 855 679T762 641Q707 641 672 676T637 764Q637 814 669 850T753 886Q760 886 778
884V889Q766 909 750 926T693 964T604 984Q594 984 590 983V39H602Q634 39 661 44T726 66T801 120T872 216L911 193Q797 -15 590 -29V-195H508V-28Q100 1 100 496ZM356 500Q356 139 508 60V959Q356 872 356 500Z" />
<glyph unicode="&#xa3;" glyph-name="sterling" horiz-adv-x="1117" d="M31 719V759H218V871Q218 1162 332 1305T658 1448Q732 1448 790 1432T889 1388T951 1322T973 1240Q973 1215 965 1193T943 1155T907 1130T860 1120Q803 1120 774 1147T744 1226Q744 1322
838 1344V1348Q785 1405 676 1405Q464 1405 464 957V759H809V719L464 706V212Q487 209 540 195T679 156Q847 107 932 107Q984 107 1009 133T1034 194Q1034 209 1029 227L1026 225Q1020 205 999 192T948 179Q909 179 885 205T860 273Q860 315 887 342T956 370Q984
370 1007 357T1048 323T1074 273T1083 213Q1083 172 1068 129T1020 51T939 -7T821 -30Q801 -30 771 -27T706 -18T632 -3T560 18Q368 84 277 84Q251 84 226 74T178 48T134 12T99 -30L52 7Q125 116 218 154V706L31 719Z" />
<glyph unicode="&#xa4;" glyph-name="currency" horiz-adv-x="1166" d="M100 276L254 429Q159 545 159 700Q159 857 255 973L100 1128L156 1184L311 1029Q427 1124 583 1124Q736 1124 855 1029L1010 1184L1066 1128L910 972Q1007 857 1007 700Q1007 545 912 429L1066
276L1010 220L857 373Q742 276 583 276Q422 276 309 373L156 220L100 276ZM348 945Q259 845 259 700Q259 628 282 565T348 456T450 383T583 356Q656 356 716 383T818 456T884 566T907 700Q907 771 884 834T819 943T716 1017T583 1044Q438 1044 348 945Z" />
<glyph unicode="&#xa5;" glyph-name="yen" horiz-adv-x="1206" d="M-34 1382V1427H553V1382L398 1372L735 765H740L1022 1372L881 1382V1427H1214V1382L1090 1372L794 738H1056V630H778V488H1056V380H778V55L932 45V0H368V45L522 55V380H244V488H522V630H244V738H467L101
1372L-34 1382Z" />
<glyph unicode="&#xa6;" glyph-name="brokenbar" horiz-adv-x="458" d="M168 222H290V-495H168V222ZM168 745V1462H290V745H168Z" />
<glyph unicode="&#xa7;" glyph-name="section" horiz-adv-x="990" d="M84 577Q84 647 107 726T186 865Q114 962 114 1109Q114 1155 125 1201T166 1295T240 1379T355 1439T515 1462Q594 1462 657 1443T757 1395T819 1329T853 1259T862 1196Q862 1134 825 1091T721
1048Q660 1048 623 1085T586 1182Q586 1246 623 1281T723 1317V1321Q699 1357 639 1382T502 1408Q386 1408 322 1355T258 1203Q258 1113 310 1056T506 937Q625 887 697 846T821 752T892 639T913 491Q913 420 890 340T806 197Q883 93 883 -51Q883 -97 871 -142T829
-233T754 -315T635 -372T470 -394Q388 -394 323 -375T219 -327T154 -261T118 -191T108 -128Q108 -65 145 -20T249 26Q310 26 347 -11T384 -108Q384 -172 347 -207T247 -243V-247Q272 -283 335 -311T474 -340Q594 -340 666 -291T739 -145Q739 -56 682 7T481 131Q250
228 167 319T84 577ZM182 706Q182 662 202 622T270 538T401 445T607 346Q710 302 777 232Q815 284 815 362Q815 450 717 536T380 722Q279 764 215 830Q201 812 192 773T182 706Z" />
<glyph unicode="&#xa8;" glyph-name="dieresis" horiz-adv-x="736" d="M80 1379Q80 1436 112 1473T196 1511Q250 1511 281 1473T313 1379Q313 1321 282 1284T196 1246Q142 1246 111 1282T80 1379ZM423 1379Q423 1436 455 1473T539 1511Q592 1511 624 1473T656
1379Q656 1321 625 1284T539 1246Q485 1246 454 1282T423 1379Z" />
<glyph unicode="&#xa9;" glyph-name="copyright" horiz-adv-x="1494" d="M81 560Q81 652 103 737T168 897T270 1032T404 1136T564 1203T746 1227Q886 1227 1008 1176T1220 1035T1361 823T1413 560Q1413 472 1391 389T1328 231T1228 96T1095 -10T933 -80T746 -105Q606
-105 485 -54T274 86T133 297T81 560ZM152 560Q152 438 194 327T313 132T501 -1T746 -51Q876 -51 985 -4T1174 125T1298 319T1343 560Q1343 683 1301 794T1180 989T991 1123T746 1173Q618 1173 510 1126T322 997T197 802T152 560ZM387 561Q387 613 397 668T429
775T482 873T559 954T661 1009T788 1029Q848 1029 899 1011T988 961T1047 888T1069 800Q1069 776 1062 756T1040 720T1005 695T958 686Q910 686 881 716T851 794Q851 837 877 868T949 900Q955 900 961 900T973 898V903Q958 925 918 945T822 966Q610 966 610 565Q610
183 837 183Q865 183 895 190T956 214T1015 257T1068 321L1105 296Q996 103 799 103Q694 103 617 134T488 225T412 369T387 561Z" />
<glyph unicode="&#xaa;" glyph-name="ordfeminine" horiz-adv-x="819" d="M86 867Q86 964 168 1034T410 1105Q442 1105 478 1102V1196Q478 1235 477 1257T473 1307T461 1350T440 1381T406 1402T355 1408Q248 1408 209 1334V1331Q223 1333 229 1333Q262 1333 283
1311T305 1253Q305 1214 281 1189T214 1163T147 1192T122 1261Q122 1349 198 1405T385 1462Q458 1462 509 1447T590 1406T636 1338T658 1250T663 1139V747L738 739V709H500L481 827H479Q409 688 269 688Q180 688 133 741T86 867ZM262 883Q262 828 283 803T348 777Q397
777 437 837T478 985V1052Q453 1056 427 1056Q383 1056 351 1042T303 1010T276 965T264 920T262 883Z" />
<glyph unicode="&#xab;" glyph-name="guillemotleft" horiz-adv-x="901" d="M80 479V516L437 839L473 802L251 498V497L473 193L437 156L80 479ZM420 479V516L777 869L813 832L591 498V497L813 163L777 126L420 479Z" />
<glyph unicode="&#xac;" glyph-name="logicalnot" horiz-adv-x="1146" d="M117 592V702H1029V350H919V592H117Z" />
<glyph unicode="&#xad;" glyph-name="uni00AD" horiz-adv-x="746" d="M117 592V702H629V592H117Z" />
<glyph unicode="&#xae;" glyph-name="registered" horiz-adv-x="1016" d="M69 997Q69 1089 102 1169T195 1309T335 1403T508 1437Q601 1437 681 1403T821 1309T914 1169T948 997Q948 906 915 826T822 687T682 593T508 558Q415 558 335 592T196 686T103 825T69
997ZM139 997Q139 916 163 845T235 721T351 638T508 607Q595 607 663 637T780 721T853 845T879 997Q879 1077 854 1147T780 1271T663 1355T508 1386Q422 1386 354 1356T238 1273T165 1149T139 997ZM292 747V776L338 781V1254L292 1258V1288H499Q544 1288 582 1280T647
1256T689 1214T705 1154Q705 1034 540 1012V1010Q583 1006 609 991T654 950T688 892T724 818Q737 793 747 785T772 777V747H708Q682 747 664 751T631 768T602 806T572 872Q519 1001 477 1001H453V781L502 776V747H292ZM453 1028H468Q534 1028 562 1060T591 1153Q591
1211 564 1234T489 1257Q468 1257 453 1254V1028Z" />
<glyph unicode="&#xaf;" glyph-name="overscore" horiz-adv-x="959" d="M0 1341V1427H959V1341H0Z" />
<glyph unicode="&#xb0;" glyph-name="degree" horiz-adv-x="788" d="M73 1140Q73 1207 98 1266T166 1368T267 1437T394 1462Q461 1462 520 1437T622 1369T690 1266T715 1140Q715 1074 691 1016T623 914T521 845T394 820Q325 820 267 845T165 913T98 1015T73 1140ZM181
1140Q181 1092 196 1049T239 975T306 925T394 906Q442 906 481 924T549 974T592 1049T608 1140Q608 1189 593 1232T549 1307T481 1357T394 1376Q346 1376 307 1358T240 1307T197 1232T181 1140Z" />
<glyph unicode="&#xb1;" glyph-name="plusminus" horiz-adv-x="1146" d="M117 0V110H1029V0H117ZM117 592V702H518V1030H628V702H1029V592H628V264H518V592H117Z" />
<glyph unicode="&#xb2;" glyph-name="twosuperior" horiz-adv-x="716" d="M103 1279Q103 1313 119 1345T165 1404T239 1446T340 1462Q401 1462 447 1447T524 1405T570 1342T585 1266Q585 1157 489 1054T206 845V843L424 847Q469 848 498 851T546 865T572 893T582
941H605L600 710H120V824Q210 878 266 929T353 1035T395 1150T406 1283Q406 1424 298 1424Q248 1424 214 1402T172 1350V1348Q179 1352 195 1352Q237 1352 257 1329T278 1267Q278 1228 254 1204T191 1179Q149 1179 126 1206T103 1279Z" />
<glyph unicode="&#xb3;" glyph-name="threesuperior" horiz-adv-x="689" d="M95 855Q95 904 118 932T183 960Q222 960 246 936T270 874Q270 831 243 807T167 788V785Q200 733 288 733Q357 733 395 773T434 890Q434 989 398 1037T276 1085H246V1116H275Q317 1116
345 1128T388 1165T407 1217T412 1283Q412 1425 300 1425Q249 1425 214 1403T170 1353V1351Q217 1357 243 1334T269 1269Q269 1234 247 1212T188 1189Q147 1189 124 1215T101 1287Q101 1352 161 1407T328 1462Q439 1462 503 1417T568 1285Q568 1217 517 1170T366
1104V1102Q469 1094 536 1048T604 904Q604 801 531 749T325 697Q218 697 157 742T95 855Z" />
<glyph unicode="&#xb4;" glyph-name="acute" horiz-adv-x="488" d="M121 1182L232 1500Q241 1530 266 1549T322 1569Q360 1569 386 1542T412 1476Q412 1428 381 1396L158 1156L121 1182Z" />
<glyph unicode="&#xb5;" glyph-name="mu" horiz-adv-x="1127" d="M147 -119V1004H393V302Q393 89 530 89Q598 89 657 151T735 296V1004H980V0H753L735 29L739 173H735Q616 -1 427 -1Q369 -1 323 15V-198Q323 -319 356 -365T460 -411V-451H357Q246 -451 197 -373T147
-119Z" />
<glyph unicode="&#xb6;" glyph-name="paragraph" horiz-adv-x="1135" d="M34 1005Q34 1110 72 1191T179 1324T335 1401T526 1427H718V55H836V1427H1089V1382L935 1372V55L1089 45V0H465V45L619 55V569H594Q462 569 363 591T188 663T73 799T34 1005ZM300 1014Q300
798 368 711T588 624H619V1362Q583 1366 553 1366Q443 1366 372 1283T300 1014Z" />
<glyph unicode="&#xb7;" glyph-name="middot" horiz-adv-x="484" d="M104 700Q104 763 142 801T242 840Q305 840 342 802T380 700Q380 639 343 602T242 565Q181 565 143 602T104 700Z" />
<glyph unicode="&#xb8;" glyph-name="cedilla" horiz-adv-x="564" d="M80 -461Q182 -443 249 -387T316 -269Q316 -237 298 -218T251 -198Q201 -198 158 -228L129 -194L188 16H256L200 -155Q263 -116 347 -116Q410 -116 447 -152T484 -251Q484 -310 444 -358T339
-438T214 -487T92 -514L80 -461Z" />
<glyph unicode="&#xb9;" glyph-name="onesuperior" horiz-adv-x="571" d="M83 1377V1418L282 1440L373 1477L391 1448V761L494 751V710H103V751L206 761V1377H83Z" />
<glyph unicode="&#xba;" glyph-name="ordmasculine" horiz-adv-x="877" d="M72 1074Q72 1171 114 1258T243 1403T445 1462Q533 1462 603 1430T717 1344T782 1226T805 1092Q805 933 700 816T444 699Q330 699 244 752T115 889T72 1074ZM274 1107Q274 1067 274 1040T278
972T288 905T306 847T335 798T377 767T436 754Q600 754 600 1060Q600 1108 599 1140T593 1218T578 1292T550 1350T505 1393T440 1407Q388 1407 352 1376T301 1294T280 1199T274 1107Z" />
<glyph unicode="&#xbb;" glyph-name="guillemotright" horiz-adv-x="901" d="M820 516V479L463 156L427 193L649 497V498L427 802L463 839L820 516ZM480 516V479L123 126L87 163L309 497V498L87 832L123 869L480 516Z" />
<glyph unicode="&#xbc;" glyph-name="onequarter" horiz-adv-x="1197" d="M294 1377V1418L493 1440L584 1477L602 1448V761L705 751V710H314V751L417 761V1377H294ZM205 0L984 1462H1047L268 0H205ZM582 162V211L965 765H1052V215L1156 216V162H1052V62L1155 52V11H764V52L867
62V162H582ZM633 210L867 211V537H865L633 212V210Z" />
<glyph unicode="&#xbd;" glyph-name="onehalf" horiz-adv-x="1277" d="M294 1377V1418L493 1440L584 1477L602 1448V761L705 751V710H314V751L417 761V1377H294ZM205 0L984 1462H1047L268 0H205ZM722 570Q722 604 738 636T784 695T858 737T959 753Q1020 753 1066
738T1143 696T1189 633T1204 557Q1204 448 1108 345T825 136V134L1043 138Q1088 139 1117 142T1165 156T1191 184T1201 232H1224L1219 1H739V115Q829 169 885 220T972 326T1014 441T1025 574Q1025 715 917 715Q867 715 833 693T791 641V639Q798 643 814 643Q856
643 876 620T897 558Q897 519 873 495T810 470Q768 470 745 497T722 570Z" />
<glyph unicode="&#xbe;" glyph-name="threequarters" horiz-adv-x="1273" d="M257 0L1036 1462H1099L320 0H257ZM308 855Q308 904 331 932T396 960Q435 960 459 936T483 874Q483 831 456 807T380 788V785Q413 733 501 733Q570 733 608 773T647 890Q647 989 611
1037T489 1085H459V1116H488Q530 1116 558 1128T601 1165T620 1217T625 1283Q625 1425 513 1425Q462 1425 427 1403T383 1353V1351Q430 1357 456 1334T482 1269Q482 1234 460 1212T401 1189Q360 1189 337 1215T314 1287Q314 1352 374 1407T541 1462Q652 1462 716
1417T781 1285Q781 1217 730 1170T579 1104V1102Q682 1094 749 1048T817 904Q817 801 744 749T538 697Q431 697 370 742T308 855ZM257 0L1036 1462H1099L320 0H257ZM664 152V201L1047 755H1134V205L1238 206V152H1134V52L1237 42V1H846V42L949 52V152H664ZM715
200L949 201V527H947L715 202V200Z" />
<glyph unicode="&#xbf;" glyph-name="questiondown" horiz-adv-x="847" d="M829 169Q829 119 807 69T738 -29T609 -105T417 -135Q324 -135 250 -108T129 -33T59 75T34 204Q34 262 55 318T111 423T272 600Q314 642 348 683T404 769T426 860Q426 891 416 921H470Q490
877 490 829Q490 778 467 718T410 600Q311 429 287 348T263 191Q263 57 321 -10T485 -77Q569 -77 634 -34T710 51V57H696Q568 57 568 179Q568 234 603 270T698 306Q758 306 793 266T829 169ZM553 1242Q553 1185 519 1151T430 1116Q374 1116 340 1150T306 1242Q306
1296 340 1329T430 1362Q484 1362 518 1329T553 1242Z" />
<glyph unicode="&#xc0;" glyph-name="Agrave" horiz-adv-x="1237" d="M-6 0V45L115 55L588 1468H633L1122 55L1254 45V0H719V45L854 55L736 414H288L172 55L307 45V0H-6ZM306 474L714 482L514 1096H510L306 474ZM286 1720Q286 1761 314 1783T377 1805Q409 1805
451 1772L693 1581L678 1543L377 1623Q339 1631 313 1656T286 1720Z" />
<glyph unicode="&#xc1;" glyph-name="Aacute" horiz-adv-x="1237" d="M-6 0V45L115 55L588 1468H633L1122 55L1254 45V0H719V45L854 55L736 414H288L172 55L307 45V0H-6ZM306 474L714 482L514 1096H510L306 474ZM497 1574L739 1765Q783 1800 817 1800Q850 1800
876 1778T903 1713Q903 1678 876 1651T813 1616L512 1536L497 1574Z" />
<glyph unicode="&#xc2;" glyph-name="Acircumflex" horiz-adv-x="1237" d="M-6 0V45L115 55L588 1468H633L1122 55L1254 45V0H719V45L854 55L736 414H288L172 55L307 45V0H-6ZM306 474L714 482L514 1096H510L306 474ZM320 1576L617 1855H621L916 1580L854 1533L613
1694H609L375 1530L320 1576Z" />
<glyph unicode="&#xc3;" glyph-name="Atilde" horiz-adv-x="1237" d="M-6 0V45L115 55L588 1468H633L1122 55L1254 45V0H719V45L854 55L736 414H288L172 55L307 45V0H-6ZM306 474L714 482L514 1096H510L306 474ZM289 1627Q300 1666 319 1702T367 1765T430 1809T507
1826Q553 1826 581 1813T633 1784T680 1755T742 1742Q835 1742 897 1834L936 1821Q926 1767 906 1726T859 1657T799 1615T730 1600Q684 1600 654 1614T598 1645T548 1677T487 1691Q390 1691 325 1611L289 1627Z" />
<glyph unicode="&#xc4;" glyph-name="Adieresis" horiz-adv-x="1237" d="M-6 0V45L115 55L588 1468H633L1122 55L1254 45V0H719V45L854 55L736 414H288L172 55L307 45V0H-6ZM306 474L714 482L514 1096H510L306 474ZM305 1708Q305 1736 314 1760T339 1803T377 1831T427
1842Q454 1842 477 1832T516 1803T541 1761T550 1708Q550 1679 541 1655T516 1612T477 1584T427 1573Q372 1573 339 1611T305 1708ZM665 1708Q665 1736 674 1760T699 1803T737 1831T787 1842Q814 1842 837 1832T876 1803T901 1761T910 1708Q910 1679 901 1655T876
1612T837 1584T787 1573Q732 1573 699 1611T665 1708Z" />
<glyph unicode="&#xc5;" glyph-name="Aring" horiz-adv-x="1237" d="M-6 0V45L115 55L588 1468H633L1122 55L1254 45V0H719V45L854 55L736 414H288L172 55L307 45V0H-6ZM306 474L714 482L514 1096H510L306 474ZM362 1693Q362 1781 427 1828T608 1875Q729 1875
793 1829T858 1693Q858 1603 794 1559T608 1515Q362 1515 362 1693ZM501 1693Q501 1571 608 1571Q718 1571 718 1693Q718 1819 608 1819Q501 1819 501 1693Z" />
<glyph unicode="&#xc6;" glyph-name="AE" horiz-adv-x="1854" d="M-34 0V45L87 55L636 1020Q738 1200 738 1277Q738 1330 698 1356T564 1382V1427H1714V1020H1659Q1652 1086 1641 1135T1606 1231T1550 1307T1464 1354T1342 1372Q1257 1372 1129 1362V768Q1159
765 1238 765Q1343 765 1388 816T1433 1004H1488V467H1433Q1433 603 1388 656T1238 710Q1161 710 1129 707V65Q1257 55 1383 55Q1469 55 1530 80T1628 156T1684 266T1713 408H1745V0H719V45L873 55V414H354L150 55L285 45V0H-34ZM379 468H873V1328L379 468Z" />
<glyph unicode="&#xc7;" glyph-name="Ccedilla" horiz-adv-x="1253" d="M98 688Q98 799 122 907T198 1116T327 1293T515 1416T761 1462Q917 1462 1036 1377T1155 1174Q1155 1115 1118 1073T1015 1031Q953 1031 914 1069T875 1167Q875 1225 912 1264T1004 1304Q1015
1304 1020 1303V1307Q1005 1335 939 1370T780 1405Q598 1405 481 1216T364 717Q364 584 387 466T455 250T578 96T754 38Q896 38 1001 122T1165 339L1212 317Q1069 -35 731 -35Q654 -35 586 -23L538 -171Q603 -136 694 -136Q758 -136 798 -172T839 -271Q839 -318
811 -362T738 -439T640 -497T534 -538T438 -560L430 -510Q535 -495 599 -426T663 -289Q663 -216 598 -216Q548 -216 505 -246L471 -218L523 -10Q496 -3 471 6Q358 47 289 114T175 278T115 473T98 688Z" />
<glyph unicode="&#xc8;" glyph-name="Egrave" horiz-adv-x="1210" d="M73 0V45L227 55V1372L73 1382V1427H1058L1068 1020H1026Q1014 1088 1001 1135T962 1231T904 1307T818 1354T696 1372Q611 1372 483 1362V768Q513 765 592 765Q697 765 742 816T787 1004H842V467H787Q787
603 742 656T592 710Q515 710 483 707V65Q611 55 737 55Q796 55 841 64T919 96T975 145T1015 216T1044 302T1067 408H1110L1099 0H73ZM387 1720Q387 1761 415 1783T478 1805Q510 1805 552 1772L794 1581L779 1543L478 1623Q440 1631 414 1656T387 1720Z" />
<glyph unicode="&#xc9;" glyph-name="Eacute" horiz-adv-x="1210" d="M73 0V45L227 55V1372L73 1382V1427H1058L1068 1020H1026Q1014 1088 1001 1135T962 1231T904 1307T818 1354T696 1372Q611 1372 483 1362V768Q513 765 592 765Q697 765 742 816T787 1004H842V467H787Q787
603 742 656T592 710Q515 710 483 707V65Q611 55 737 55Q796 55 841 64T919 96T975 145T1015 216T1044 302T1067 408H1110L1099 0H73ZM558 1574L800 1765Q844 1800 878 1800Q911 1800 937 1778T964 1713Q964 1678 937 1651T874 1616L573 1536L558 1574Z" />
<glyph unicode="&#xca;" glyph-name="Ecircumflex" horiz-adv-x="1210" d="M73 0V45L227 55V1372L73 1382V1427H1058L1068 1020H1026Q1014 1088 1001 1135T962 1231T904 1307T818 1354T696 1372Q611 1372 483 1362V768Q513 765 592 765Q697 765 742 816T787 1004H842V467H787Q787
603 742 656T592 710Q515 710 483 707V65Q611 55 737 55Q796 55 841 64T919 96T975 145T1015 216T1044 302T1067 408H1110L1099 0H73ZM361 1576L658 1855H662L957 1580L895 1533L654 1694H650L416 1530L361 1576Z" />
<glyph unicode="&#xcb;" glyph-name="Edieresis" horiz-adv-x="1210" d="M73 0V45L227 55V1372L73 1382V1427H1058L1068 1020H1026Q1014 1088 1001 1135T962 1231T904 1307T818 1354T696 1372Q611 1372 483 1362V768Q513 765 592 765Q697 765 742 816T787 1004H842V467H787Q787
603 742 656T592 710Q515 710 483 707V65Q611 55 737 55Q796 55 841 64T919 96T975 145T1015 216T1044 302T1067 408H1110L1099 0H73ZM326 1708Q326 1736 335 1760T360 1803T398 1831T448 1842Q475 1842 498 1832T537 1803T562 1761T571 1708Q571 1679 562 1655T537
1612T498 1584T448 1573Q393 1573 360 1611T326 1708ZM686 1708Q686 1736 695 1760T720 1803T758 1831T808 1842Q835 1842 858 1832T897 1803T922 1761T931 1708Q931 1679 922 1655T897 1612T858 1584T808 1573Q753 1573 720 1611T686 1708Z" />
<glyph unicode="&#xcc;" glyph-name="Igrave" horiz-adv-x="710" d="M73 0V45L227 55V1372L73 1382V1427H637V1382L483 1372V55L637 45V0H73ZM313 1976Q313 2017 341 2039T404 2061Q436 2061 478 2028L720 1837L705 1799L404 1879Q366 1887 340 1912T313 1976Z" />
<glyph unicode="&#xcd;" glyph-name="Iacute" horiz-adv-x="710" d="M73 0V45L227 55V1372L73 1382V1427H637V1382L483 1372V55L637 45V0H73ZM227 1574L469 1765Q513 1800 547 1800Q580 1800 606 1778T633 1713Q633 1678 606 1651T543 1616L242 1536L227 1574Z" />
<glyph unicode="&#xce;" glyph-name="Icircumflex" horiz-adv-x="710" d="M73 0V45L227 55V1372L73 1382V1427H637V1382L483 1372V55L637 45V0H73ZM317 1832L614 2111H618L913 1836L851 1789L610 1950H606L372 1786L317 1832Z" />
<glyph unicode="&#xcf;" glyph-name="Idieresis" horiz-adv-x="710" d="M73 0V45L227 55V1372L73 1382V1427H637V1382L483 1372V55L637 45V0H73ZM302 1964Q302 1992 311 2016T336 2059T374 2087T424 2098Q451 2098 474 2088T513 2059T538 2017T547 1964Q547 1935
538 1911T513 1868T474 1840T424 1829Q369 1829 336 1867T302 1964ZM662 1964Q662 1992 671 2016T696 2059T734 2087T784 2098Q811 2098 834 2088T873 2059T898 2017T907 1964Q907 1935 898 1911T873 1868T834 1840T784 1829Q729 1829 696 1867T662 1964Z" />
<glyph unicode="&#xd0;" glyph-name="Eth" horiz-adv-x="1418" d="M48 692V755H227V1372L73 1382V1427H577Q780 1427 925 1376T1154 1228T1277 1003T1316 707Q1316 586 1291 482T1212 288T1076 135T876 36T610 0H73V45L227 55V692H48ZM483 65Q537 55 581 55Q683
55 762 88T895 179T984 322T1034 506T1050 723Q1050 839 1039 930T998 1107T917 1249T785 1338T593 1372Q537 1372 483 1362V762H690V692H483V65Z" />
<glyph unicode="&#xd1;" glyph-name="Ntilde" horiz-adv-x="1414" d="M69 1382V1427H283L1141 387H1143L1129 1372L976 1382V1427H1346V1382L1192 1372L1203 -20H1142L284 1023H282L296 55L449 45V0H79V45L233 55L222 1372L69 1382ZM381 1627Q392 1666 411 1702T459
1765T522 1809T599 1826Q645 1826 673 1813T725 1784T772 1755T834 1742Q927 1742 989 1834L1028 1821Q1018 1767 998 1726T951 1657T891 1615T822 1600Q776 1600 746 1614T690 1645T640 1677T579 1691Q482 1691 417 1611L381 1627Z" />
<glyph unicode="&#xd2;" glyph-name="Ograve" horiz-adv-x="1441" d="M96 709Q96 915 170 1085T387 1358T718 1462Q1000 1462 1172 1263T1345 741Q1345 623 1322 512T1248 302T1127 128T951 9T724 -35Q431 -35 264 169T96 709ZM364 731Q364 534 403 376T523 119T718
20Q886 20 981 215T1077 733Q1077 1069 984 1238T724 1407Q666 1407 614 1383T515 1306T436 1176T384 984T364 731ZM432 1720Q432 1761 460 1783T523 1805Q555 1805 597 1772L839 1581L824 1543L523 1623Q485 1631 459 1656T432 1720Z" />
<glyph unicode="&#xd3;" glyph-name="Oacute" horiz-adv-x="1441" d="M96 709Q96 915 170 1085T387 1358T718 1462Q1000 1462 1172 1263T1345 741Q1345 623 1322 512T1248 302T1127 128T951 9T724 -35Q431 -35 264 169T96 709ZM364 731Q364 534 403 376T523 119T718
20Q886 20 981 215T1077 733Q1077 1069 984 1238T724 1407Q666 1407 614 1383T515 1306T436 1176T384 984T364 731ZM603 1574L845 1765Q889 1800 923 1800Q956 1800 982 1778T1009 1713Q1009 1678 982 1651T919 1616L618 1536L603 1574Z" />
<glyph unicode="&#xd4;" glyph-name="Ocircumflex" horiz-adv-x="1441" d="M96 709Q96 915 170 1085T387 1358T718 1462Q1000 1462 1172 1263T1345 741Q1345 623 1322 512T1248 302T1127 128T951 9T724 -35Q431 -35 264 169T96 709ZM364 731Q364 534 403 376T523
119T718 20Q886 20 981 215T1077 733Q1077 1069 984 1238T724 1407Q666 1407 614 1383T515 1306T436 1176T384 984T364 731ZM426 1576L723 1855H727L1022 1580L960 1533L719 1694H715L481 1530L426 1576Z" />
<glyph unicode="&#xd5;" glyph-name="Otilde" horiz-adv-x="1441" d="M96 709Q96 915 170 1085T387 1358T718 1462Q1000 1462 1172 1263T1345 741Q1345 623 1322 512T1248 302T1127 128T951 9T724 -35Q431 -35 264 169T96 709ZM364 731Q364 534 403 376T523 119T718
20Q886 20 981 215T1077 733Q1077 1069 984 1238T724 1407Q666 1407 614 1383T515 1306T436 1176T384 984T364 731ZM395 1627Q406 1666 425 1702T473 1765T536 1809T613 1826Q659 1826 687 1813T739 1784T786 1755T848 1742Q941 1742 1003 1834L1042 1821Q1032
1767 1012 1726T965 1657T905 1615T836 1600Q790 1600 760 1614T704 1645T654 1677T593 1691Q496 1691 431 1611L395 1627Z" />
<glyph unicode="&#xd6;" glyph-name="Odieresis" horiz-adv-x="1441" d="M96 709Q96 915 170 1085T387 1358T718 1462Q1000 1462 1172 1263T1345 741Q1345 623 1322 512T1248 302T1127 128T951 9T724 -35Q431 -35 264 169T96 709ZM364 731Q364 534 403 376T523
119T718 20Q886 20 981 215T1077 733Q1077 1069 984 1238T724 1407Q666 1407 614 1383T515 1306T436 1176T384 984T364 731ZM411 1708Q411 1736 420 1760T445 1803T483 1831T533 1842Q560 1842 583 1832T622 1803T647 1761T656 1708Q656 1679 647 1655T622 1612T583
1584T533 1573Q478 1573 445 1611T411 1708ZM771 1708Q771 1736 780 1760T805 1803T843 1831T893 1842Q920 1842 943 1832T982 1803T1007 1761T1016 1708Q1016 1679 1007 1655T982 1612T943 1584T893 1573Q838 1573 805 1611T771 1708Z" />
<glyph unicode="&#xd7;" glyph-name="multiply" horiz-adv-x="1146" d="M117 302L493 647L117 1002L190 1081L574 721L964 1080L1029 1002L650 650L1029 295L954 212L569 575L191 224L117 302Z" />
<glyph unicode="&#xd8;" glyph-name="Oslash" horiz-adv-x="1441" d="M96 -57L265 166Q96 366 96 709Q96 808 114 902T169 1079T258 1233T380 1354T533 1433T716 1462Q972 1462 1140 1294L1257 1448H1380L1205 1217Q1341 1026 1341 741Q1341 648 1326 555T1277
376T1194 214T1076 84T919 -3T722 -35Q492 -35 335 96L219 -57H96ZM347 731Q347 496 398 328L1031 1164Q942 1407 722 1407Q649 1407 581 1374T461 1263T378 1054T347 731ZM439 221Q536 20 716 20Q806 20 875 68T992 208T1065 432T1090 733Q1090 823 1084 900T1064
1044L439 221Z" />
<glyph unicode="&#xd9;" glyph-name="Ugrave" horiz-adv-x="1431" d="M49 1382V1427H613V1382L458 1372V438Q458 397 460 365T469 289T491 211T531 143T593 86T683 49T806 34Q888 34 951 59T1054 126T1119 226T1155 346T1165 478V1372L1012 1382V1427H1382V1382L1229
1372V456Q1229 384 1218 320T1175 188T1095 74T964 -4T774 -35Q663 -35 576 -19T429 23T327 90T260 172T223 269T206 372T202 479V1372L49 1382ZM504 1720Q504 1761 532 1783T595 1805Q627 1805 669 1772L911 1581L896 1543L595 1623Q557 1631 531 1656T504 1720Z"
/>
<glyph unicode="&#xda;" glyph-name="Uacute" horiz-adv-x="1431" d="M49 1382V1427H613V1382L458 1372V438Q458 397 460 365T469 289T491 211T531 143T593 86T683 49T806 34Q888 34 951 59T1054 126T1119 226T1155 346T1165 478V1372L1012 1382V1427H1382V1382L1229
1372V456Q1229 384 1218 320T1175 188T1095 74T964 -4T774 -35Q663 -35 576 -19T429 23T327 90T260 172T223 269T206 372T202 479V1372L49 1382ZM675 1574L917 1765Q961 1800 995 1800Q1028 1800 1054 1778T1081 1713Q1081 1678 1054 1651T991 1616L690 1536L675
1574Z" />
<glyph unicode="&#xdb;" glyph-name="Ucircumflex" horiz-adv-x="1431" d="M49 1382V1427H613V1382L458 1372V438Q458 397 460 365T469 289T491 211T531 143T593 86T683 49T806 34Q888 34 951 59T1054 126T1119 226T1155 346T1165 478V1372L1012 1382V1427H1382V1382L1229
1372V456Q1229 384 1218 320T1175 188T1095 74T964 -4T774 -35Q663 -35 576 -19T429 23T327 90T260 172T223 269T206 372T202 479V1372L49 1382ZM508 1576L805 1855H809L1104 1580L1042 1533L801 1694H797L563 1530L508 1576Z" />
<glyph unicode="&#xdc;" glyph-name="Udieresis" horiz-adv-x="1431" d="M49 1382V1427H613V1382L458 1372V438Q458 397 460 365T469 289T491 211T531 143T593 86T683 49T806 34Q888 34 951 59T1054 126T1119 226T1155 346T1165 478V1372L1012 1382V1427H1382V1382L1229
1372V456Q1229 384 1218 320T1175 188T1095 74T964 -4T774 -35Q663 -35 576 -19T429 23T327 90T260 172T223 269T206 372T202 479V1372L49 1382ZM493 1707Q493 1735 502 1759T527 1802T565 1830T615 1841Q642 1841 665 1831T704 1802T729 1760T738 1707Q738 1678
729 1654T704 1611T665 1583T615 1572Q560 1572 527 1610T493 1707ZM853 1707Q853 1735 862 1759T887 1802T925 1830T975 1841Q1002 1841 1025 1831T1064 1802T1089 1760T1098 1707Q1098 1678 1089 1654T1064 1611T1025 1583T975 1572Q920 1572 887 1610T853 1707Z"
/>
<glyph unicode="&#xdd;" glyph-name="Yacute" horiz-adv-x="1219" d="M-37 1382V1427H550V1382L395 1372L732 765H737L1019 1372L878 1382V1427H1211V1382L1087 1372L775 703V55L929 45V0H366V45L519 55V644L98 1372L-37 1382ZM584 1574L826 1765Q870 1800 904
1800Q937 1800 963 1778T990 1713Q990 1678 963 1651T900 1616L599 1536L584 1574Z" />
<glyph unicode="&#xde;" glyph-name="Thorn" horiz-adv-x="1209" d="M73 0V45L227 55V1372L73 1382V1427H637V1382L483 1372V1160H615Q723 1160 820 1137T989 1064T1104 938T1147 755Q1147 632 1098 546T966 406T774 327T547 302Q537 302 521 302T483 304V55L637
45V0H73ZM483 360Q517 357 553 357Q881 357 881 757Q881 855 859 920T798 1026T705 1082T588 1099Q563 1099 537 1097T483 1091V360Z" />
<glyph unicode="&#xdf;" glyph-name="germandbls" horiz-adv-x="1246" d="M61 0V41L163 51V991Q163 1102 190 1179T260 1307T356 1386T460 1428T556 1445T627 1448Q670 1448 719 1443T818 1425T912 1387T992 1326T1048 1235T1069 1109Q1069 873 670 800V798Q676
798 689 798T709 799Q790 799 872 781T1020 714T1128 581T1170 366Q1170 327 1163 283T1138 194T1090 110T1016 38T911 -11T770 -30Q714 -30 662 -18T570 21T506 92T482 202Q482 232 491 259T517 306T559 337T613 349Q667 349 698 316T732 232Q732 178 700 146T614
113Q595 113 582 117V115Q587 94 601 76T637 45T686 25T743 17Q787 17 820 38T875 97T908 188T919 305Q919 417 906 495T871 624T818 704T753 747T680 764T605 767H559V816H604Q632 816 671 831T747 881T809 971T835 1106Q835 1198 817 1256T770 1346T703 1391T627
1403Q562 1403 520 1380T454 1319T419 1237T409 1147L408 0H61Z" />
<glyph unicode="&#xe0;" glyph-name="agrave" horiz-adv-x="1005" d="M72 217Q72 266 87 311T138 399T224 472T350 521T518 540Q567 540 611 536V674Q611 740 609 781T596 865T568 932T516 971T434 987Q288 987 221 872V868Q238 871 252 871Q304 871 334 839T364
747Q364 695 328 660T238 624Q179 624 145 664T111 758Q111 876 219 955T469 1034Q569 1034 639 1013T752 958T817 864T848 742T856 590V51L959 41V0H641L613 158H611Q562 63 493 17T324 -30Q202 -30 137 43T72 217ZM314 238Q314 158 344 109T432 59Q500 59 555
144T611 352V490Q571 495 546 495Q494 495 454 481T389 443T349 393T326 334T317 281T314 238ZM269 1489Q269 1528 294 1555T358 1582Q389 1582 414 1563T448 1513L559 1195L522 1169L299 1409Q269 1440 269 1489Z" />
<glyph unicode="&#xe1;" glyph-name="aacute" horiz-adv-x="1005" d="M72 217Q72 266 87 311T138 399T224 472T350 521T518 540Q567 540 611 536V674Q611 740 609 781T596 865T568 932T516 971T434 987Q288 987 221 872V868Q238 871 252 871Q304 871 334 839T364
747Q364 695 328 660T238 624Q179 624 145 664T111 758Q111 876 219 955T469 1034Q569 1034 639 1013T752 958T817 864T848 742T856 590V51L959 41V0H641L613 158H611Q562 63 493 17T324 -30Q202 -30 137 43T72 217ZM314 238Q314 158 344 109T432 59Q500 59 555
144T611 352V490Q571 495 546 495Q494 495 454 481T389 443T349 393T326 334T317 281T314 238ZM416 1182L527 1500Q536 1530 561 1549T617 1569Q655 1569 681 1542T707 1476Q707 1428 676 1396L453 1156L416 1182Z" />
<glyph unicode="&#xe2;" glyph-name="acircumflex" horiz-adv-x="1005" d="M72 217Q72 266 87 311T138 399T224 472T350 521T518 540Q567 540 611 536V674Q611 740 609 781T596 865T568 932T516 971T434 987Q288 987 221 872V868Q238 871 252 871Q304 871 334
839T364 747Q364 695 328 660T238 624Q179 624 145 664T111 758Q111 876 219 955T469 1034Q569 1034 639 1013T752 958T817 864T848 742T856 590V51L959 41V0H641L613 158H611Q562 63 493 17T324 -30Q202 -30 137 43T72 217ZM314 238Q314 158 344 109T432 59Q500
59 555 144T611 352V490Q571 495 546 495Q494 495 454 481T389 443T349 393T326 334T317 281T314 238ZM226 1209L492 1585H497L731 1213L650 1167L484 1379H480L302 1168L226 1209Z" />
<glyph unicode="&#xe3;" glyph-name="atilde" horiz-adv-x="1005" d="M72 217Q72 266 87 311T138 399T224 472T350 521T518 540Q567 540 611 536V674Q611 740 609 781T596 865T568 932T516 971T434 987Q288 987 221 872V868Q238 871 252 871Q304 871 334 839T364
747Q364 695 328 660T238 624Q179 624 145 664T111 758Q111 876 219 955T469 1034Q569 1034 639 1013T752 958T817 864T848 742T856 590V51L959 41V0H641L613 158H611Q562 63 493 17T324 -30Q202 -30 137 43T72 217ZM314 238Q314 158 344 109T432 59Q500 59 555
144T611 352V490Q571 495 546 495Q494 495 454 481T389 443T349 393T326 334T317 281T314 238ZM160 1291Q171 1330 190 1366T238 1429T301 1473T378 1490Q424 1490 452 1477T504 1448T551 1419T613 1406Q706 1406 768 1498L807 1485Q797 1431 777 1390T730 1321T670
1279T601 1264Q555 1264 525 1278T469 1309T419 1341T358 1355Q261 1355 196 1275L160 1291Z" />
<glyph unicode="&#xe4;" glyph-name="adieresis" horiz-adv-x="1005" d="M72 217Q72 266 87 311T138 399T224 472T350 521T518 540Q567 540 611 536V674Q611 740 609 781T596 865T568 932T516 971T434 987Q288 987 221 872V868Q238 871 252 871Q304 871 334 839T364
747Q364 695 328 660T238 624Q179 624 145 664T111 758Q111 876 219 955T469 1034Q569 1034 639 1013T752 958T817 864T848 742T856 590V51L959 41V0H641L613 158H611Q562 63 493 17T324 -30Q202 -30 137 43T72 217ZM314 238Q314 158 344 109T432 59Q500 59 555
144T611 352V490Q571 495 546 495Q494 495 454 481T389 443T349 393T326 334T317 281T314 238ZM193 1379Q193 1436 225 1473T309 1511Q363 1511 394 1473T426 1379Q426 1321 395 1284T309 1246Q255 1246 224 1282T193 1379ZM536 1379Q536 1436 568 1473T652 1511Q705
1511 737 1473T769 1379Q769 1321 738 1284T652 1246Q598 1246 567 1282T536 1379Z" />
<glyph unicode="&#xe5;" glyph-name="aring" horiz-adv-x="1005" d="M72 217Q72 266 87 311T138 399T224 472T350 521T518 540Q567 540 611 536V674Q611 740 609 781T596 865T568 932T516 971T434 987Q288 987 221 872V868Q238 871 252 871Q304 871 334 839T364
747Q364 695 328 660T238 624Q179 624 145 664T111 758Q111 876 219 955T469 1034Q569 1034 639 1013T752 958T817 864T848 742T856 590V51L959 41V0H641L613 158H611Q562 63 493 17T324 -30Q202 -30 137 43T72 217ZM314 238Q314 158 344 109T432 59Q500 59 555
144T611 352V490Q571 495 546 495Q494 495 454 481T389 443T349 393T326 334T317 281T314 238ZM249 1379Q249 1424 267 1461T317 1527T391 1570T482 1586Q533 1586 576 1570T651 1527T701 1461T719 1379Q719 1334 702 1297T653 1233T578 1191T482 1176Q429 1176
387 1191T313 1232T266 1296T249 1379ZM398 1379Q398 1227 482 1227Q528 1227 548 1269T569 1379Q569 1413 564 1441T548 1491T521 1523T482 1535Q437 1535 418 1492T398 1379Z" />
<glyph unicode="&#xe6;" glyph-name="ae" horiz-adv-x="1486" d="M74 217Q74 279 103 337T191 441T337 513T540 540Q565 540 588 539T633 536V674Q633 750 624 808T593 906T533 966T436 987Q393 987 358 977T294 951T246 914T213 872V868Q229 871 244 871Q295
871 325 839T356 746Q356 720 347 698T320 660T280 634T230 624Q200 624 177 635T137 664T112 707T103 758Q103 821 136 872T222 959T340 1014T471 1034Q574 1034 646 1001T754 881H756Q819 968 889 1001T1044 1034Q1391 1034 1391 557L1364 532H868V414Q868 35
1103 35Q1275 35 1380 211L1419 187Q1385 131 1343 90T1254 23T1157 -17T1056 -30Q773 -30 676 225H674Q639 147 599 98T516 20T425 -19T326 -30Q264 -30 217 -10T139 44T91 122T74 217ZM316 238Q316 199 325 167T350 111T390 74T444 61Q478 61 512 84T573 147T616
239T633 352V490Q613 492 597 493T567 495Q514 495 475 482T408 446T362 395T334 339T320 284T316 238ZM868 577L1175 590Q1176 604 1177 672Q1177 746 1169 804T1143 904T1099 967T1036 989Q994 989 964 962T914 882T882 753T868 577Z" />
<glyph unicode="&#xe7;" glyph-name="ccedilla" horiz-adv-x="946" d="M274 -461Q376 -443 443 -387T510 -269Q510 -237 492 -218T445 -198Q395 -198 352 -228L323 -194L375 -9Q81 75 81 496Q81 570 98 644T152 788T243 913T376 1001T548 1034Q687 1034 778 956T870
770Q870 716 836 679T743 641Q688 641 653 676T618 764Q618 814 650 850T734 886Q741 886 759 884V889Q747 909 731 926T674 964T585 984Q497 984 440 918T360 748T337 500Q337 39 583 39Q615 39 642 44T707 66T782 120T853 216L892 193Q769 -30 540 -30Q485 -30
437 -22L394 -155Q457 -116 541 -116Q604 -116 641 -152T678 -251Q678 -310 638 -358T533 -438T408 -487T286 -514L274 -461Z" />
<glyph unicode="&#xe8;" glyph-name="egrave" horiz-adv-x="982" d="M81 502Q81 580 96 654T145 798T228 919T349 1002T510 1034Q593 1034 659 1011T769 945T842 843T883 712T896 557L869 532H337V471Q337 35 585 35Q761 35 866 211L905 187Q776 -30 538 -30Q308
-30 195 112T81 502ZM337 577L660 590Q663 641 663 688Q663 833 629 911T514 989Q466 989 432 958T378 867T350 739T337 577ZM315 1489Q315 1528 340 1555T404 1582Q435 1582 460 1563T494 1513L605 1195L568 1169L345 1409Q315 1440 315 1489Z" />
<glyph unicode="&#xe9;" glyph-name="eacute" horiz-adv-x="982" d="M81 502Q81 580 96 654T145 798T228 919T349 1002T510 1034Q593 1034 659 1011T769 945T842 843T883 712T896 557L869 532H337V471Q337 35 585 35Q761 35 866 211L905 187Q776 -30 538 -30Q308
-30 195 112T81 502ZM337 577L660 590Q663 641 663 688Q663 833 629 911T514 989Q466 989 432 958T378 867T350 739T337 577ZM452 1182L563 1500Q572 1530 597 1549T653 1569Q691 1569 717 1542T743 1476Q743 1428 712 1396L489 1156L452 1182Z" />
<glyph unicode="&#xea;" glyph-name="ecircumflex" horiz-adv-x="982" d="M81 502Q81 580 96 654T145 798T228 919T349 1002T510 1034Q593 1034 659 1011T769 945T842 843T883 712T896 557L869 532H337V471Q337 35 585 35Q761 35 866 211L905 187Q776 -30 538
-30Q308 -30 195 112T81 502ZM337 577L660 590Q663 641 663 688Q663 833 629 911T514 989Q466 989 432 958T378 867T350 739T337 577ZM242 1209L508 1585H513L747 1213L666 1167L500 1379H496L318 1168L242 1209Z" />
<glyph unicode="&#xeb;" glyph-name="edieresis" horiz-adv-x="982" d="M81 502Q81 580 96 654T145 798T228 919T349 1002T510 1034Q593 1034 659 1011T769 945T842 843T883 712T896 557L869 532H337V471Q337 35 585 35Q761 35 866 211L905 187Q776 -30 538 -30Q308
-30 195 112T81 502ZM337 577L660 590Q663 641 663 688Q663 833 629 911T514 989Q466 989 432 958T378 867T350 739T337 577ZM209 1379Q209 1436 241 1473T325 1511Q379 1511 410 1473T442 1379Q442 1321 411 1284T325 1246Q271 1246 240 1282T209 1379ZM552 1379Q552
1436 584 1473T668 1511Q721 1511 753 1473T785 1379Q785 1321 754 1284T668 1246Q614 1246 583 1282T552 1379Z" />
<glyph unicode="&#xec;" glyph-name="igrave" horiz-adv-x="585" d="M57 965L266 987L407 1024L425 995V51L528 41V0H77V41L180 51V926L59 924L57 965ZM314 1489Q314 1528 339 1555T403 1582Q434 1582 459 1563T493 1513L604 1195L567 1169L344 1409Q314 1440 314 1489Z" />
<glyph unicode="&#xed;" glyph-name="iacute" horiz-adv-x="585" d="M57 965L266 987L407 1024L425 995V51L528 41V0H77V41L180 51V926L59 924L57 965ZM204 1182L315 1500Q324 1530 349 1549T405 1569Q443 1569 469 1542T495 1476Q495 1428 464 1396L241 1156L204 1182Z" />
<glyph unicode="&#xee;" glyph-name="icircumflex" horiz-adv-x="585" d="M57 965L266 987L407 1024L425 995V51L528 41V0H77V41L180 51V926L59 924L57 965ZM261 1209L527 1585H532L766 1213L685 1167L519 1379H515L337 1168L261 1209Z" />
<glyph unicode="&#xef;" glyph-name="idieresis" horiz-adv-x="585" d="M57 965L266 987L407 1024L425 995V51L528 41V0H77V41L180 51V926L59 924L57 965ZM228 1379Q228 1436 260 1473T344 1511Q398 1511 429 1473T461 1379Q461 1321 430 1284T344 1246Q290 1246
259 1282T228 1379ZM571 1379Q571 1436 603 1473T687 1511Q740 1511 772 1473T804 1379Q804 1321 773 1284T687 1246Q633 1246 602 1282T571 1379Z" />
<glyph unicode="&#xf0;" glyph-name="eth" horiz-adv-x="1102" d="M80 496Q80 642 136 763T293 954T519 1024Q618 1024 690 989Q623 1232 464 1330L349 1186L313 1217L414 1357Q321 1397 208 1397L209 1447L246 1448Q351 1448 456 1414L558 1555L609 1513L513
1392Q660 1326 770 1192T935 894T991 557Q991 271 868 121T535 -30Q419 -30 330 13T187 130T107 297T80 496ZM336 508Q336 15 531 15Q638 15 688 145T739 496Q739 763 706 922Q648 971 572 971Q502 971 455 940T383 846T347 703T336 508Z" />
<glyph unicode="&#xf1;" glyph-name="ntilde" horiz-adv-x="1164" d="M56 965L265 987L406 1024L424 995L420 860H424Q543 1034 732 1034Q768 1034 801 1028T874 1001T943 946T992 849T1012 702V51L1114 41V0H664V41L766 51V731Q766 944 629 944Q539 944 482 862T424
647V51L527 41V0H76V41L179 51V926L58 924L56 965ZM261 1291Q272 1330 291 1366T339 1429T402 1473T479 1490Q525 1490 553 1477T605 1448T652 1419T714 1406Q807 1406 869 1498L908 1485Q898 1431 878 1390T831 1321T771 1279T702 1264Q656 1264 626 1278T570
1309T520 1341T459 1355Q362 1355 297 1275L261 1291Z" />
<glyph unicode="&#xf2;" glyph-name="ograve" horiz-adv-x="1071" d="M80 496Q80 647 138 770T302 963T541 1034Q651 1034 739 989T881 867T963 698T992 502Q992 355 936 234T776 42T539 -30Q422 -30 333 11T189 126T107 293T80 496ZM336 508Q336 397 347 310T381
155T443 51T535 15Q736 15 736 496Q736 617 727 704T695 857T632 956T535 989Q482 989 443 953T381 851T347 700T336 508ZM337 1489Q337 1528 362 1555T426 1582Q457 1582 482 1563T516 1513L627 1195L590 1169L367 1409Q337 1440 337 1489Z" />
<glyph unicode="&#xf3;" glyph-name="oacute" horiz-adv-x="1071" d="M80 496Q80 647 138 770T302 963T541 1034Q651 1034 739 989T881 867T963 698T992 502Q992 355 936 234T776 42T539 -30Q422 -30 333 11T189 126T107 293T80 496ZM336 508Q336 397 347 310T381
155T443 51T535 15Q736 15 736 496Q736 617 727 704T695 857T632 956T535 989Q482 989 443 953T381 851T347 700T336 508ZM454 1182L565 1500Q574 1530 599 1549T655 1569Q693 1569 719 1542T745 1476Q745 1428 714 1396L491 1156L454 1182Z" />
<glyph unicode="&#xf4;" glyph-name="ocircumflex" horiz-adv-x="1071" d="M80 496Q80 647 138 770T302 963T541 1034Q651 1034 739 989T881 867T963 698T992 502Q992 355 936 234T776 42T539 -30Q422 -30 333 11T189 126T107 293T80 496ZM336 508Q336 397 347
310T381 155T443 51T535 15Q736 15 736 496Q736 617 727 704T695 857T632 956T535 989Q482 989 443 953T381 851T347 700T336 508ZM284 1209L550 1585H555L789 1213L708 1167L542 1379H538L360 1168L284 1209Z" />
<glyph unicode="&#xf5;" glyph-name="otilde" horiz-adv-x="1071" d="M80 496Q80 647 138 770T302 963T541 1034Q651 1034 739 989T881 867T963 698T992 502Q992 355 936 234T776 42T539 -30Q422 -30 333 11T189 126T107 293T80 496ZM336 508Q336 397 347 310T381
155T443 51T535 15Q736 15 736 496Q736 617 727 704T695 857T632 956T535 989Q482 989 443 953T381 851T347 700T336 508ZM218 1291Q229 1330 248 1366T296 1429T359 1473T436 1490Q482 1490 510 1477T562 1448T609 1419T671 1406Q764 1406 826 1498L865 1485Q855
1431 835 1390T788 1321T728 1279T659 1264Q613 1264 583 1278T527 1309T477 1341T416 1355Q319 1355 254 1275L218 1291Z" />
<glyph unicode="&#xf6;" glyph-name="odieresis" horiz-adv-x="1071" d="M80 496Q80 647 138 770T302 963T541 1034Q651 1034 739 989T881 867T963 698T992 502Q992 355 936 234T776 42T539 -30Q422 -30 333 11T189 126T107 293T80 496ZM336 508Q336 397 347 310T381
155T443 51T535 15Q736 15 736 496Q736 617 727 704T695 857T632 956T535 989Q482 989 443 953T381 851T347 700T336 508ZM261 1379Q261 1436 293 1473T377 1511Q431 1511 462 1473T494 1379Q494 1321 463 1284T377 1246Q323 1246 292 1282T261 1379ZM604 1379Q604
1436 636 1473T720 1511Q773 1511 805 1473T837 1379Q837 1321 806 1284T720 1246Q666 1246 635 1282T604 1379Z" />
<glyph unicode="&#xf7;" glyph-name="divide" horiz-adv-x="1146" d="M435 228Q435 291 473 329T573 368Q636 368 673 330T711 228Q711 167 674 130T573 93Q512 93 474 130T435 228ZM435 1022Q435 1085 473 1123T573 1162Q636 1162 673 1124T711 1022Q711 961
674 924T573 887Q512 887 474 924T435 1022ZM117 586V696H1029V586H117Z" />
<glyph unicode="&#xf8;" glyph-name="oslash" horiz-adv-x="1071" d="M53 -55L193 124Q80 269 80 496Q80 604 113 701T207 873T352 990T541 1034Q716 1034 835 920L924 1034H1034L892 852Q945 776 968 686T992 489Q992 381 958 286T864 121T720 11T539 -30Q370
-30 254 62L162 -55H53ZM321 508Q321 389 336 295L723 789Q675 989 535 989Q481 989 441 953T374 852T334 700T321 508ZM361 188Q417 15 535 15Q592 15 632 51T699 151T738 304T751 496Q751 542 749 586T743 673L361 188Z" />
<glyph unicode="&#xf9;" glyph-name="ugrave" horiz-adv-x="1142" d="M35 924V965L244 987L385 1024L404 995V273Q404 214 416 172T444 110T483 78T520 65T549 63Q619 63 677 151T736 369V924H613V965L822 987L963 1024L981 995V51L1084 41V0H770L740 154H736Q710
116 687 90T629 33T549 -14T451 -30Q415 -30 381 -24T305 2T232 57T180 154T158 301V924H35ZM340 1489Q340 1528 365 1555T429 1582Q460 1582 485 1563T519 1513L630 1195L593 1169L370 1409Q340 1440 340 1489Z" />
<glyph unicode="&#xfa;" glyph-name="uacute" horiz-adv-x="1142" d="M35 924V965L244 987L385 1024L404 995V273Q404 214 416 172T444 110T483 78T520 65T549 63Q619 63 677 151T736 369V924H613V965L822 987L963 1024L981 995V51L1084 41V0H770L740 154H736Q710
116 687 90T629 33T549 -14T451 -30Q415 -30 381 -24T305 2T232 57T180 154T158 301V924H35ZM477 1182L588 1500Q597 1530 622 1549T678 1569Q716 1569 742 1542T768 1476Q768 1428 737 1396L514 1156L477 1182Z" />
<glyph unicode="&#xfb;" glyph-name="ucircumflex" horiz-adv-x="1142" d="M35 924V965L244 987L385 1024L404 995V273Q404 214 416 172T444 110T483 78T520 65T549 63Q619 63 677 151T736 369V924H613V965L822 987L963 1024L981 995V51L1084 41V0H770L740 154H736Q710
116 687 90T629 33T549 -14T451 -30Q415 -30 381 -24T305 2T232 57T180 154T158 301V924H35ZM307 1209L573 1585H578L812 1213L731 1167L565 1379H561L383 1168L307 1209Z" />
<glyph unicode="&#xfc;" glyph-name="udieresis" horiz-adv-x="1142" d="M35 924V965L244 987L385 1024L404 995V273Q404 214 416 172T444 110T483 78T520 65T549 63Q619 63 677 151T736 369V924H613V965L822 987L963 1024L981 995V51L1084 41V0H770L740 154H736Q710
116 687 90T629 33T549 -14T451 -30Q415 -30 381 -24T305 2T232 57T180 154T158 301V924H35ZM254 1379Q254 1436 286 1473T370 1511Q424 1511 455 1473T487 1379Q487 1321 456 1284T370 1246Q316 1246 285 1282T254 1379ZM597 1379Q597 1436 629 1473T713 1511Q766
1511 798 1473T830 1379Q830 1321 799 1284T713 1246Q659 1246 628 1282T597 1379Z" />
<glyph unicode="&#xfd;" glyph-name="yacute" horiz-adv-x="965" d="M80 -347Q80 -288 115 -248T205 -208Q263 -208 292 -244T322 -333Q322 -353 310 -381T277 -423V-427Q312 -426 343 -403T399 -335T437 -261T467 -186L512 -34L87 952L-12 963V1004H461V963L353
952L613 300L809 952L699 963V1004H971V963L867 952L535 -172Q500 -274 463 -342T389 -441T319 -484T248 -495Q173 -495 127 -453T80 -347ZM480 1182L591 1500Q600 1530 625 1549T681 1569Q719 1569 745 1542T771 1476Q771 1428 740 1396L517 1156L480 1182Z" />
<glyph unicode="&#xfe;" glyph-name="thorn" horiz-adv-x="1092" d="M24 1348V1389L233 1411L374 1448L392 1419V865H396Q450 958 513 996T663 1034Q690 1034 721 1026T794 998T871 939T940 846T990 705T1009 512Q1009 399 981 303T899 131T757 13T556 -30Q457
-30 392 21V-424L495 -434V-475H44V-434L147 -424V1348H24ZM392 74Q449 23 515 23Q563 23 600 42T662 89T705 162T732 248T746 345T752 438T753 526Q753 688 730 785T670 918T577 954Q503 954 448 875T392 698V74Z" />
<glyph unicode="&#xff;" glyph-name="ydieresis" horiz-adv-x="965" d="M80 -347Q80 -288 115 -248T205 -208Q263 -208 292 -244T322 -333Q322 -353 310 -381T277 -423V-427Q312 -426 343 -403T399 -335T437 -261T467 -186L512 -34L87 952L-12 963V1004H461V963L353
952L613 300L809 952L699 963V1004H971V963L867 952L535 -172Q500 -274 463 -342T389 -441T319 -484T248 -495Q173 -495 127 -453T80 -347ZM277 1379Q277 1436 309 1473T393 1511Q447 1511 478 1473T510 1379Q510 1321 479 1284T393 1246Q339 1246 308 1282T277
1379ZM620 1379Q620 1436 652 1473T736 1511Q789 1511 821 1473T853 1379Q853 1321 822 1284T736 1246Q682 1246 651 1282T620 1379Z" />
<glyph unicode="&#x2013;" glyph-name="endash" horiz-adv-x="1067" d="M117 592V702H950V592H117Z" />
<glyph unicode="&#x2014;" glyph-name="emdash" horiz-adv-x="1445" d="M156 592V702H1289V592H156Z" />
<glyph unicode="&#x2018;" glyph-name="quoteleft" horiz-adv-x="421" d="M84 1098Q84 1161 100 1219T166 1340T295 1447L310 1396Q231 1355 197 1293T163 1175H167Q193 1193 224 1193Q273 1193 305 1154T338 1055Q338 1005 308 962T216 918Q151 918 118 971T84 1098Z" />
<glyph unicode="&#x2019;" glyph-name="quoteright" horiz-adv-x="417" d="M92 1310Q92 1360 122 1403T214 1447Q279 1447 312 1394T346 1267Q346 1204 330 1146T264 1025T135 918L120 969Q199 1010 233 1072T267 1190H263Q237 1172 206 1172Q157 1172 125 1211T92 1310Z" />
<glyph unicode="&#x201a;" glyph-name="quotesinglbase" horiz-adv-x="459" d="M92 103Q92 153 122 196T214 240Q279 240 312 187T346 60Q346 -3 330 -61T264 -182T135 -289L120 -238Q199 -197 233 -135T267 -17H263Q237 -35 206 -35Q157 -35 125 4T92 103Z" />
<glyph unicode="&#x201c;" glyph-name="quotedblleft" horiz-adv-x="752" d="M84 1098Q84 1161 100 1219T166 1340T295 1447L310 1396Q231 1355 197 1293T163 1175H167Q193 1193 224 1193Q273 1193 305 1154T338 1055Q338 1005 308 962T216 918Q151 918 118 971T84
1098ZM414 1098Q414 1161 430 1219T496 1340T625 1447L640 1396Q561 1355 527 1293T493 1175H497Q523 1193 554 1193Q603 1193 635 1154T668 1055Q668 1005 638 962T546 918Q481 918 448 971T414 1098Z" />
<glyph unicode="&#x201d;" glyph-name="quotedblright" horiz-adv-x="747" d="M92 1310Q92 1360 122 1403T214 1447Q279 1447 312 1394T346 1267Q346 1204 330 1146T264 1025T135 918L120 969Q199 1010 233 1072T267 1190H263Q237 1172 206 1172Q157 1172 125
1211T92 1310ZM422 1310Q422 1360 452 1403T544 1447Q609 1447 642 1394T676 1267Q676 1204 660 1146T594 1025T465 918L450 969Q529 1010 563 1072T597 1190H593Q567 1172 536 1172Q487 1172 455 1211T422 1310Z" />
<glyph unicode="&#x201e;" glyph-name="quotedblbase" horiz-adv-x="770" d="M94 103Q94 153 124 196T216 240Q281 240 314 187T348 60Q348 -3 332 -61T266 -182T137 -289L122 -238Q201 -197 235 -135T269 -17H265Q239 -35 208 -35Q159 -35 127 4T94 103ZM424
103Q424 153 454 196T546 240Q611 240 644 187T678 60Q678 -3 662 -61T596 -182T467 -289L452 -238Q531 -197 565 -135T599 -17H595Q569 -35 538 -35Q489 -35 457 4T424 103Z" />
<glyph unicode="&#x2022;" glyph-name="bullet" horiz-adv-x="613" d="M89 698Q89 798 150 863T307 929Q405 929 464 864T524 698Q524 601 465 539T307 476Q212 476 151 539T89 698Z" />
<glyph unicode="&#x2039;" glyph-name="guilsinglleft" horiz-adv-x="595" d="M47 625V669L476 1057L519 1012L252 648V646L519 282L476 237L47 625Z" />
<glyph unicode="&#x203a;" glyph-name="guilsinglright" horiz-adv-x="595" d="M548 669V625L119 237L76 282L343 646V648L76 1012L119 1057L548 669Z" />
</font>
</defs>
</svg>
