<?xml version="1.0" standalone="no"?>
<!DOCTYPE svg PUBLIC "-//W3C//DTD SVG 1.1//EN" "http://www.w3.org/Graphics/SVG/1.1/DTD/svg11.dtd">
<svg xmlns="http://www.w3.org/2000/svg">
<defs >
<font id="Corben" horiz-adv-x="1338" ><font-face
    font-family="Corben"
    units-per-em="2048"
    panose-1="2 0 5 5 2 0 0 2 0 4"
    ascent="2300"
    descent="-940"
    alphabetic="0" />
<glyph unicode=" " glyph-name="space" horiz-adv-x="500" />
<glyph unicode="!" glyph-name="exclam" horiz-adv-x="820" d="M78 227Q78 277 95 314T140 379T203 425T275 455T345 470T404 475Q430 475 464 471T535 455T606 426T668 380T712 315T729 227Q729 178 713 140T669 75T606 30T535 0T465 -15T404 -20Q379 -20 346
-16T276 0T204 29T141 75T96 139T78 227ZM717 1278Q691 1145 673 1041T639 858T606 724T562 634T499 583T406 567Q356 567 323 583T267 634T227 724T193 859T156 1043T106 1282Q98 1314 94 1345T90 1405Q90 1460 106 1507T159 1589T256 1643T406 1663Q499 1663
561 1643T660 1588T714 1505T730 1399Q730 1370 727 1340T717 1278Z" />
<glyph unicode="&quot;" glyph-name="quotedbl" horiz-adv-x="1327" d="M1272 1319Q1249 1200 1233 1112T1203 959T1172 853T1133 787T1077 753T993 743Q949 743 919 752T868 786T832 853T802 959T769 1113T725 1323Q711 1382 711 1433Q711 1482 725 1524T772
1597T859 1645T993 1663Q1076 1663 1131 1645T1221 1596T1269 1521T1283 1426Q1283 1377 1272 1319ZM602 1319Q579 1200 563 1112T533 959T502 853T463 787T407 753T323 743Q279 743 249 752T198 786T162 853T132 959T99 1113T55 1323Q41 1382 41 1433Q41 1482
55 1524T102 1597T189 1645T323 1663Q406 1663 461 1645T551 1596T599 1521T613 1426Q613 1377 602 1319Z" />
<glyph unicode="#" glyph-name="numbersign" horiz-adv-x="2037" d="M141 1159Q139 1164 139 1169T139 1180Q139 1220 158 1242T209 1276T282 1291T366 1294H473L550 1726Q555 1755 568 1785T603 1839T659 1878T741 1894Q816 1894 866 1872T945 1818T987 1749T999
1683Q999 1669 997 1650T987 1591T967 1481T933 1294H1241L1318 1726Q1323 1755 1336 1785T1371 1839T1427 1878T1509 1894Q1584 1894 1634 1872T1713 1818T1755 1749T1767 1683Q1767 1669 1765 1650T1755 1591T1735 1481T1701 1294Q1749 1294 1801 1291T1897 1273T1969
1227T1998 1141Q1998 1097 1972 1074T1905 1039T1815 1026T1718 1024H1652L1589 684Q1640 684 1695 682T1796 665T1872 619T1902 532Q1902 488 1876 464T1808 429T1716 416T1617 414H1542L1474 45Q1469 18 1457 -11T1422 -66T1366 -107T1284 -123Q1208 -123 1159
-100T1080 -43T1040 29T1028 96Q1028 122 1034 143L1081 414H774L706 45Q701 18 689 -11T654 -66T598 -107T516 -123Q440 -123 391 -100T312 -43T272 29T260 96Q260 122 266 143L313 414H299Q252 414 206 416T123 433T64 480T41 571Q41 610 60 633T112 667T185
681T268 684H362Q372 737 379 775T393 850T407 927T424 1024H399Q354 1024 310 1026T231 1041T171 1081T141 1159ZM1192 1024H884L821 684H1130L1192 1024Z" />
<glyph unicode="$" glyph-name="dollar" horiz-adv-x="1562" d="M630 -231Q604 -230 587 -222T560 -202T546 -174T542 -145Q542 -136 543 -131Q544 -125 547 -89T555 4Q451 24 359 61T198 150T89 269T49 414Q49 465 65 503T107 565T168 602T239 614Q284 614 329
597T410 547T468 466T491 356Q491 337 513 316T578 278L601 549Q541 568 479 592T359 649T250 724T161 822T101 949T79 1110Q79 1237 127 1328T257 1481T451 1574T689 1616L704 1792Q704 1806 708 1820T723 1847T749 1867T788 1875Q820 1875 840 1868T872 1848T888
1820T893 1787V1776Q892 1770 889 1728T880 1617Q1032 1608 1139 1570T1313 1477T1412 1360T1443 1235Q1443 1176 1418 1133T1353 1062T1262 1021T1159 1008Q1109 1008 1062 1019T978 1052T919 1105T896 1178Q896 1208 909 1223T939 1248T969 1268T983 1298Q983
1320 953 1339T860 1367L834 1057L901 1034Q969 1010 1041 984T1181 924T1309 848T1414 752T1486 628T1513 471Q1513 331 1459 237T1309 87T1080 6T790 -18Q779 -18 769 -18T747 -17Q742 -72 740 -107T737 -147Q735 -161 730 -176T715 -203T688 -224T649 -232Q644
-232 640 -232T630 -231ZM933 385Q933 420 893 444T788 491L769 260Q823 265 855 278T904 310T927 347T933 385ZM567 1257Q567 1221 589 1193T650 1139Q655 1197 659 1254T668 1363Q634 1356 614 1345T584 1319T570 1289T567 1257Z" />
<glyph unicode="%" glyph-name="percent" horiz-adv-x="3340" d="M1167 -27Q1095 8 1067 53T1038 145Q1038 176 1047 204T1070 258Q1078 273 1106 323T1175 449T1268 620T1378 821T1496 1036T1613 1250T1722 1449T1814 1618T1881 1740T1914 1802Q1926 1825 1944
1848T1986 1889T2039 1918T2105 1929Q2175 1929 2222 1907T2297 1852T2337 1786T2349 1726Q2349 1696 2340 1669T2316 1616Q2309 1603 2283 1555T2216 1432T2123 1264T2014 1065T1896 850T1778 635T1668 435T1575 264T1506 138T1470 72Q1458 50 1440 28T1398 -12T1344
-41T1277 -53Q1253 -53 1224 -47T1167 -27ZM1415 1298Q1415 1117 1357 982T1200 758T975 624T709 579Q575 579 455 619T243 741T99 943T45 1225Q45 1402 103 1534T258 1754T483 1885T750 1929Q883 1929 1003 1889T1215 1770T1361 1572T1415 1298ZM584 1349Q584
1218 600 1115T641 938T698 827T760 788Q782 788 802 811T839 883T864 1007T874 1188Q874 1311 858 1410T817 1578T760 1685T698 1722Q675 1722 655 1700T618 1633T593 1517T584 1349ZM3295 596Q3295 415 3237 280T3080 56T2855 -78T2589 -123Q2455 -123 2335 -83T2123
39T1979 241T1925 523Q1925 700 1983 832T2138 1052T2363 1183T2630 1227Q2763 1227 2883 1187T3095 1068T3241 870T3295 596ZM2464 647Q2464 516 2480 413T2521 236T2578 125T2640 86Q2662 86 2682 109T2719 181T2744 305T2754 486Q2754 609 2738 708T2697 876T2640
983T2578 1020Q2555 1020 2535 998T2498 931T2473 815T2464 647Z" />
<glyph unicode="&amp;" glyph-name="ampersand" horiz-adv-x="2149" d="M2153 1354Q2133 1255 2094 1174T2002 1028T1888 919T1762 846Q1854 643 1854 483Q1854 392 1819 317T1721 183T1574 81T1389 8T1179 -35T955 -49Q842 -49 731 -35T518 10T331 86T182 196T82
341T46 524Q46 588 61 652T104 777T174 892T267 993Q192 1041 156 1107T120 1245Q120 1321 159 1396T277 1531T472 1628T744 1665Q779 1665 825 1659T919 1641T1014 1610T1097 1564T1155 1503T1178 1425Q1178 1415 1175 1404T1165 1382T1146 1365T1117 1358Q1109
1358 1103 1358T1090 1364Q1047 1386 1005 1399T924 1413Q890 1413 863 1392T815 1338T784 1264T773 1182Q773 1154 779 1129T797 1083T828 1048T873 1030Q896 1015 907 1001T918 965Q918 915 890 885T816 854Q790 854 771 836T738 788T718 716T711 627Q711 579
722 529T755 431T806 341T875 266T959 216T1056 197Q1140 197 1195 220T1282 285T1328 380T1342 496Q1342 544 1335 594T1318 694T1295 791T1271 879Q1217 879 1176 866T1113 819Q1094 789 1082 769T1063 737T1054 720T1051 713L929 807Q956 941 1019 1043T1161
1213T1328 1317T1494 1352Q1542 1352 1585 1342T1670 1318T1751 1295T1832 1284Q1851 1284 1871 1286T1909 1295T1942 1313T1969 1341Q1992 1377 2004 1397T2023 1427T2030 1442T2034 1448L2153 1354Z" />
<glyph unicode="&apos;" glyph-name="quotesingle" horiz-adv-x="657" d="M602 1319Q579 1200 563 1112T533 959T502 853T463 787T407 753T323 743Q279 743 249 752T198 786T162 853T132 959T99 1113T55 1323Q41 1382 41 1433Q41 1482 55 1524T102 1597T189 1645T323
1663Q406 1663 461 1645T551 1596T599 1521T613 1426Q613 1377 602 1319Z" />
<glyph unicode="(" glyph-name="parenleft" horiz-adv-x="1034" d="M45 797Q45 893 64 993T123 1190T226 1374T376 1532T578 1650T835 1716Q845 1718 854 1718T872 1718Q914 1718 943 1706T990 1675T1016 1630T1024 1579Q1024 1558 1019 1537T1005 1497T984 1466T956
1446Q869 1409 804 1343T695 1190T630 1004T608 801Q608 698 629 598T694 411T803 258T956 155Q971 149 983 136T1005 104T1019 65T1024 23Q1024 -3 1016 -28T990 -73T943 -105T872 -117Q864 -117 855 -117T835 -115Q692 -97 578 -49T377 70T226 227T123 409T64
603T45 797Z" />
<glyph unicode=")" glyph-name="parenright" horiz-adv-x="1033" d="M989 797Q989 703 970 604T911 409T808 227T657 70T455 -48T198 -115Q189 -117 180 -117T162 -117Q120 -117 91 -105T44 -74T18 -29T10 23Q10 44 15 65T29 104T50 135T78 155Q165 191 230 258T339
411T404 597T426 801Q426 904 405 1003T340 1189T231 1342T78 1446Q63 1452 51 1465T29 1497T15 1536T10 1579Q10 1605 18 1630T44 1674T91 1706T162 1718Q170 1718 179 1718T198 1716Q341 1698 455 1650T657 1532T808 1375T911 1191T970 994T989 797Z" />
<glyph unicode="*" glyph-name="asterisk" horiz-adv-x="2055" d="M1032 604Q1004 529 972 452Q945 386 911 307T841 156Q820 114 797 79T746 17T686 -24T614 -39Q578 -39 539 -25T462 13T390 68T330 132T289 199T274 262Q274 321 310 377T403 481Q440 512 480
547T560 618T635 685T698 742T741 781T757 797Q683 803 606 812Q540 819 462 828T309 849Q253 857 205 872T121 914T65 980T44 1073Q44 1105 51 1142T73 1225Q111 1335 168 1383T292 1432Q321 1432 360 1421T444 1391T535 1349T627 1301Q732 1244 845 1171Q831
1250 817 1331Q811 1365 804 1403T790 1480T774 1557T759 1630Q753 1658 749 1686T745 1741Q745 1789 759 1831T806 1904T893 1952T1027 1970Q1107 1970 1161 1953T1248 1904T1295 1831T1310 1741Q1310 1715 1306 1687T1296 1630Q1288 1595 1281 1557T1266 1481T1251
1404T1238 1331Q1224 1250 1210 1171Q1322 1244 1427 1301Q1471 1325 1518 1348T1609 1390T1693 1420T1763 1432Q1829 1432 1885 1384T1981 1225Q1997 1180 2004 1143T2011 1073Q2011 1019 1990 980T1933 915T1849 873T1746 849Q1672 838 1593 829T1448 812Q1371
803 1298 797Q1298 796 1314 782T1357 742T1419 685T1494 618T1574 548T1652 481Q1708 433 1744 377T1781 262Q1781 233 1766 199T1725 132T1665 68T1593 13T1515 -25T1439 -39Q1392 -39 1351 -11T1273 62T1207 165T1151 284T1105 402T1071 505T1046 577T1032 604Z"
/>
<glyph unicode="+" glyph-name="plus" horiz-adv-x="1330" d="M664 104Q616 104 585 119T536 158T511 209T504 260V610H167Q145 610 123 613T82 628T53 663T41 727Q41 768 52 792T82 828T122 843T167 846H504V1196Q504 1222 511 1250T536 1300T585 1337T664 1352Q712
1352 742 1338T790 1301T815 1250T822 1196V846H1164Q1187 846 1209 843T1249 828T1278 792T1289 727Q1289 686 1278 663T1250 628T1210 613T1164 610H822V260Q822 236 815 209T791 159T743 120T664 104Z" />
<glyph unicode="," glyph-name="comma" horiz-adv-x="735" d="M309 -10Q241 -10 191 8T107 57T58 126T41 207Q41 255 62 303T125 389T227 451T367 475Q450 475 510 448T609 375T667 269T686 141Q686 52 655 -39T564 -204T419 -324T225 -371Q199 -371 181 -354T162
-315Q162 -289 173 -273T200 -242T235 -212T271 -171T298 -108T309 -10Z" />
<glyph unicode="-" glyph-name="hyphen" horiz-adv-x="1267" d="M52 617Q52 669 69 702T111 754T165 780T221 788H1047Q1075 788 1104 781T1158 754T1199 702T1215 617Q1215 565 1199 532T1159 480T1105 454T1047 446H221Q195 446 166 453T111 480T69 532T52 617Z" />
<glyph unicode="." glyph-name="period" horiz-adv-x="736" d="M42 227Q42 277 59 314T104 379T167 425T239 455T309 470T368 475Q394 475 428 471T499 455T570 426T632 380T676 315T693 227Q693 178 677 140T633 75T570 30T499 0T429 -15T368 -20Q343 -20 310
-16T240 0T168 29T105 75T60 139T42 227Z" />
<glyph unicode="/" glyph-name="slash" horiz-adv-x="1034" d="M205 -115Q157 -103 125 -83T74 -39T47 14T39 70Q39 110 51 143Q56 160 72 215T113 352T169 538T234 757T304 992T374 1227T439 1444T494 1628T533 1762T553 1829Q562 1858 577 1888T618 1942T679
1981T762 1997Q830 1997 875 1979T948 1932T986 1871T997 1808Q997 1788 993 1769T984 1731Q980 1717 964 1664T924 1530T870 1346T805 1129T735 894T665 659T599 440T544 254T503 117T482 45Q474 18 458 -11T416 -66T354 -107T270 -123Q255 -123 239 -122T205
-115Z" />
<glyph unicode="0" glyph-name="zero" horiz-adv-x="1671" d="M1604 850Q1604 703 1574 581T1491 362T1363 192T1201 71T1013 -1T811 -25Q712 -25 618 -3T442 63T291 173T173 326T96 522T68 762Q68 905 97 1024T180 1238T307 1405T468 1523T654 1594T856 1618Q955
1618 1049 1597T1227 1532T1379 1424T1498 1274T1576 1083T1604 850ZM672 911Q672 753 689 627T735 412T799 276T869 229Q894 229 917 257T959 345T987 497T998 717Q998 867 980 987T934 1192T871 1321T801 1366Q775 1366 752 1340T711 1257T683 1115T672 911Z"
/>
<glyph unicode="1" glyph-name="one" horiz-adv-x="1129" d="M899 424Q899 379 911 354T941 316T980 298T1019 287T1049 271T1061 236Q1061 111 932 56T559 0Q441 0 350 13T196 55T101 129T68 236Q68 260 80 270T109 286T147 297T185 314T215 351T227 420V1051Q227
1095 215 1119T186 1156T148 1174T110 1184T80 1200T68 1235Q68 1299 101 1350T189 1440T317 1508T467 1555T624 1582T772 1591Q819 1591 845 1575T883 1526T898 1447T901 1338L899 424Z" />
<glyph unicode="2" glyph-name="two" horiz-adv-x="1269" d="M72 225Q117 300 174 387T289 567T404 751T503 928T573 1085T600 1210Q600 1270 555 1304T400 1339Q319 1339 252 1321T131 1274Q118 1264 99 1264Q87 1264 76 1273T56 1295T42 1324T37 1354Q37 1363
40 1370T49 1384Q98 1440 164 1483T307 1557T466 1602T633 1618Q760 1618 856 1586T1018 1498T1116 1363T1149 1194Q1149 1095 1110 984T992 759T792 532T508 317Q651 317 746 328T900 355T992 390T1041 425T1067 452T1090 463Q1141 463 1175 431T1209 342Q1209
314 1205 278T1191 203T1163 129T1118 64T1054 18T967 0H185Q149 0 123 12T81 45T57 90T49 141Q49 164 55 186T72 225Z" />
<glyph unicode="3" glyph-name="three" horiz-adv-x="1301" d="M674 -23Q589 -23 504 -8T342 38T197 112T80 213Q75 221 72 227T68 244Q68 258 73 274T86 304T106 327T131 336Q151 336 164 328Q220 297 298 278T457 258Q519 258 566 278T644 330T691 404T707 489Q707
526 694 562T654 626T589 671T500 688Q478 688 452 679T406 670Q389 670 374 679T348 704T331 736T324 770Q324 790 334 805T367 840Q418 874 454 910T513 984T546 1058T557 1130Q557 1172 542 1208T500 1271T435 1312T350 1327Q296 1327 236 1306T113 1237Q102
1231 93 1229T76 1227Q45 1227 34 1248T23 1294Q23 1304 24 1313T27 1329Q53 1401 109 1455T240 1546T402 1601T578 1620Q673 1620 762 1599T921 1533T1031 1423T1073 1268Q1073 1222 1063 1176T1025 1085T950 1000T827 926Q936 897 1016 848T1149 736T1227 602T1253
457Q1253 366 1215 280T1103 127T921 18T674 -23Z" />
<glyph unicode="4" glyph-name="four" horiz-adv-x="1502" d="M1212 772H1220Q1288 772 1338 769T1420 749T1468 695T1484 590Q1484 528 1468 494T1420 445T1337 427T1220 424H1212V391Q1212 349 1223 326T1250 291T1286 274T1322 264T1350 249T1361 217Q1361
163 1324 122T1225 54T1086 14T927 0Q846 0 770 13T634 53T538 121T501 217Q501 239 512 249T539 264T575 273T610 289T638 323T649 387V424H319Q233 424 175 427T80 443T28 478T12 543Q12 554 12 567T11 595Q11 617 13 643T21 696T40 753T73 811L649 1618Q816
1618 925 1602T1098 1548T1188 1452T1214 1309L1212 772ZM649 1221Q598 1150 546 1072T450 926Q399 848 350 772H649V1221Z" />
<glyph unicode="5" glyph-name="five" horiz-adv-x="1254" d="M306 1593H507Q650 1593 744 1603T899 1630T990 1664T1039 1698T1065 1724T1089 1735Q1140 1735 1174 1703T1208 1614Q1208 1586 1204 1550T1190 1475T1162 1401T1117 1336T1053 1290T966 1272H415L372
1079Q397 1081 421 1081T468 1081Q654 1081 788 1031T1008 900T1136 715T1177 506Q1177 413 1155 338T1093 203T999 102T880 32T743 -9T597 -23Q513 -23 431 -8T272 38T131 111T16 211Q1 224 1 242Q1 255 6 270T19 299T39 322T63 332Q72 332 80 330T98 322Q124
308 157 296T228 275T306 261T386 256Q444 256 493 274T579 322T635 392T655 475Q655 523 627 573T537 666T374 740T130 784L306 1593Z" />
<glyph unicode="6" glyph-name="six" horiz-adv-x="1554" d="M759 815Q705 815 678 814T637 810Q622 807 620 805Q620 631 628 522T653 350T700 265T771 242Q813 242 842 262T890 316T918 395T927 489Q927 547 915 605T882 709T829 785T759 815ZM1214 1642Q1242
1642 1263 1632T1298 1607T1319 1571T1326 1530Q1326 1495 1308 1463T1253 1415Q1228 1406 1181 1395T1076 1366T955 1322T834 1254T729 1155T657 1018Q742 1061 823 1080T982 1100Q1111 1100 1212 1055T1382 936T1488 765T1525 567Q1525 494 1506 422T1448 284T1349
162T1208 64T1022 -1T790 -25Q598 -25 456 29T220 176T80 389T34 643Q34 759 68 878T169 1109T336 1317T567 1486T860 1600T1214 1642Z" />
<glyph unicode="7" glyph-name="seven" horiz-adv-x="1258" d="M706 1274Q563 1274 469 1263T314 1236T223 1201T174 1166T148 1139T125 1128Q74 1128 40 1161T6 1249Q6 1277 10 1313T24 1388T52 1462T97 1527T161 1573T248 1591H1003Q1136 1591 1195 1554T1255
1430Q1255 1405 1252 1380T1241 1324T1221 1257T1190 1171L735 -23Q719 -65 708 -98T676 -155T621 -190T522 -203Q465 -203 407 -185T301 -137T223 -67T193 19Q193 45 205 72L745 1276L706 1274Z" />
<glyph unicode="8" glyph-name="eight" horiz-adv-x="1526" d="M990 1257Q990 1308 942 1339T795 1370Q726 1370 686 1360T626 1334T601 1298T595 1257Q595 1208 632 1172T731 1104T871 1044T1032 979T1192 900T1332 796T1431 654T1469 465Q1469 340 1418 248T1269
96T1033 7T720 -23Q637 -23 556 -12T403 23T269 82T163 164T93 269T68 399Q68 476 104 549T209 680T372 772T587 807Q605 807 623 804T657 796T681 785T691 774Q691 759 674 734T631 678T576 612T520 542T477 472T460 408Q460 383 470 358T506 313T571 279T670
266Q741 266 788 283T863 326T904 378T916 426Q916 460 881 483T789 527T658 569T508 620T358 692T227 796T134 942T99 1143Q99 1223 125 1289T197 1408T305 1500T440 1566T592 1605T750 1618Q859 1618 961 1594T1143 1522T1270 1403T1318 1237Q1318 1156 1283
1076T1186 931T1038 828T849 788Q808 788 784 808T759 874Q759 893 776 922T819 985T874 1056T930 1130T973 1199T990 1257Z" />
<glyph unicode="9" glyph-name="nine" horiz-adv-x="1554" d="M795 778Q848 778 876 779T917 783Q932 785 934 788Q934 962 926 1071T900 1243T853 1329T782 1352Q741 1352 712 1332T663 1277T636 1198T627 1104Q627 1046 639 988T672 884T725 808T795 778ZM340
-49Q312 -49 291 -39T256 -14T234 22T227 63Q227 99 245 131T301 177Q326 186 373 197T478 226T599 271T720 339T825 438T897 575Q812 532 731 513T571 494Q442 494 341 539T171 658T66 829T29 1026Q29 1099 48 1171T106 1309T205 1431T346 1529T532 1594T764 1618Q956
1618 1098 1564T1334 1417T1474 1204T1520 950Q1520 834 1486 715T1385 484T1218 276T987 107T694 -7T340 -49Z" />
<glyph unicode=":" glyph-name="colon" horiz-adv-x="824" d="M86 227Q86 277 103 314T148 379T211 425T283 455T353 470T412 475Q438 475 472 471T543 455T614 426T676 380T720 315T737 227Q737 178 721 140T677 75T614 30T543 0T473 -15T412 -20Q387 -20 354
-16T284 0T212 29T149 75T104 139T86 227ZM86 1049Q86 1099 103 1136T148 1201T211 1246T283 1276T353 1291T412 1296Q438 1296 472 1292T543 1276T614 1247T676 1201T720 1136T737 1049Q737 999 721 962T677 897T614 851T543 821T473 806T412 801Q387 801 354
805T284 821T212 850T149 896T104 961T86 1049Z" />
<glyph unicode=";" glyph-name="semicolon" horiz-adv-x="799" d="M67 1049Q67 1099 84 1136T129 1201T192 1246T264 1276T334 1291T393 1296Q419 1296 453 1292T524 1276T595 1247T657 1201T701 1136T718 1049Q718 999 702 962T658 897T595 851T524 821T454 806T393
801Q368 801 335 805T265 821T193 850T130 896T85 961T67 1049ZM335 -10Q267 -10 217 8T133 57T84 126T67 207Q67 255 88 303T151 389T253 451T393 475Q476 475 536 448T635 375T693 269T712 141Q712 52 681 -39T590 -204T445 -324T251 -371Q225 -371 207 -354T188
-315Q188 -289 199 -273T226 -242T261 -212T297 -171T324 -108T335 -10Z" />
<glyph unicode="&lt;" glyph-name="less" horiz-adv-x="1025" d="M43 639Q43 687 58 722T98 785T157 840T226 895L540 1150Q577 1180 610 1206T675 1251T740 1281T809 1292Q843 1292 869 1280T913 1248T939 1202T948 1149Q948 1078 875 994T656 795L460 639L656
483Q801 368 874 284T948 129Q948 102 939 77T913 31T870 -2T809 -14Q773 -14 741 -3T676 27T610 72T540 128L226 383Q190 412 157 438T99 492T58 556T43 639Z" />
<glyph unicode="=" glyph-name="equal" horiz-adv-x="1180" d="M81 297Q81 331 91 351T121 380T167 392T228 395H942Q978 395 1007 394T1056 383T1088 354T1099 297Q1099 260 1088 240T1057 211T1007 201T942 199H228Q195 199 168 200T121 211T92 240T81 297ZM81
634Q81 668 91 688T121 717T167 729T228 732H942Q978 732 1007 731T1056 720T1088 691T1099 634Q1099 597 1088 577T1057 548T1007 538T942 536H228Q195 536 168 537T121 548T92 577T81 634Z" />
<glyph unicode="&gt;" glyph-name="greater" horiz-adv-x="1025" d="M982 639Q982 591 967 556T927 493T868 438T799 383L485 128Q448 98 415 72T350 27T285 -3T216 -14Q181 -14 155 -2T112 30T86 76T77 129Q77 199 150 283T369 483L565 639L369 795Q224 910 151
994T77 1149Q77 1176 86 1201T112 1247T155 1280T216 1292Q252 1292 284 1281T349 1251T415 1206T485 1150L799 895Q835 866 868 840T926 786T967 722T982 639Z" />
<glyph unicode="?" glyph-name="question" horiz-adv-x="1280" d="M556 428Q515 428 487 444T441 483T417 533T409 582Q409 692 426 763T470 883T526 962T583 1024T626 1091T644 1184Q644 1224 634 1253T599 1303T532 1333T427 1343Q339 1343 269 1323T141 1272Q121
1264 104 1264Q90 1264 78 1273T56 1297T42 1328T36 1360Q36 1371 40 1378T50 1393Q103 1453 174 1500T327 1579T499 1628T679 1645Q788 1645 887 1612T1062 1519T1183 1378T1228 1200Q1228 1134 1206 1081T1148 984T1066 904T972 837T878 776T796 717T738 654T716
582Q716 533 700 503T660 456T608 434T556 428ZM325 164Q325 202 338 230T372 280T420 315T474 337T527 348T571 352Q602 352 644 344T725 315T791 258T818 164Q818 126 806 97T773 47T726 13T672 -9T618 -21T571 -25Q552 -25 527 -22T475 -10T421 12T373 47T338
97T325 164Z" />
<glyph unicode="@" glyph-name="at" horiz-adv-x="3052" d="M1540 438Q1574 438 1608 451T1667 479Q1666 487 1666 497T1666 530T1665 593T1665 703T1665 874T1665 1122Q1637 1139 1601 1155T1528 1171Q1488 1171 1463 1153T1422 1091T1402 975T1396 795Q1396
730 1400 666T1419 552T1462 470T1540 438ZM2003 240Q1929 240 1876 248T1785 270T1726 305T1691 352Q1670 331 1637 308T1558 265T1452 232T1315 219Q1226 219 1159 243T1042 310T959 408T905 529T877 663T868 799Q868 867 878 937T911 1074T970 1198T1059 1299T1181
1368T1339 1393Q1408 1393 1463 1382T1560 1352T1633 1312T1685 1268Q1696 1296 1714 1319T1760 1359T1830 1385T1927 1395Q2012 1395 2064 1388T2146 1361T2186 1311T2196 1233Q2196 1230 2196 1224T2196 1198T2196 1139T2196 1029T2196 852T2195 592Q2195 554
2207 536T2236 518Q2295 518 2338 555T2409 656T2450 804T2464 983Q2464 1084 2431 1169T2338 1323T2198 1444T2022 1532T1820 1586T1605 1604Q1487 1604 1370 1583T1146 1518T947 1409T788 1255T682 1054T643 805Q643 606 713 456T906 205T1200 53T1571 2Q1710
2 1860 26T2169 102L2423 -291Q2236 -385 2018 -434T1569 -483Q1318 -483 1108 -433T730 -295T434 -85T221 178T94 476T51 793Q51 955 95 1114T227 1417T447 1684T758 1897T1159 2038T1652 2089Q1881 2089 2070 2048T2411 1935T2674 1765T2861 1554T2973 1316T3010
1067Q3010 955 2984 850T2904 653T2768 485T2574 355T2320 270T2003 240Z" />
<glyph unicode="A" glyph-name="A" horiz-adv-x="1791" d="M548 641H861L707 1223L548 641ZM290 0Q216 0 160 19T67 70T10 145T-9 236Q-9 260 2 270T31 287T71 298T117 316T161 353T197 424L443 1174Q450 1195 453 1211T457 1239Q457 1270 440 1281T403 1298T365
1312T348 1347Q348 1354 349 1358Q359 1427 404 1472T523 1544T699 1582T922 1593Q1025 1593 1119 1586T1290 1553T1417 1482T1484 1358Q1486 1348 1486 1344Q1486 1327 1477 1319T1453 1305T1423 1297T1393 1286T1370 1266T1360 1228Q1360 1207 1369 1174L1590
424Q1603 379 1623 354T1665 316T1710 298T1751 287T1780 271T1791 236Q1791 111 1662 56T1289 0Q1171 0 1080 13T925 55T830 129T797 236Q797 257 806 267T830 283T861 293T892 304T915 326T925 368Q925 391 918 420L902 489H496L472 420Q459 382 459 358Q459
335 468 323T492 304T523 293T554 284T577 267T587 236Q587 188 568 146T512 71T419 19T290 0Z" />
<glyph unicode="B" glyph-name="B" horiz-adv-x="1902" d="M1041 897Q1085 897 1112 913T1155 961T1175 1036T1180 1137Q1180 1197 1173 1245T1145 1327T1091 1379T1004 1397Q962 1397 939 1382T904 1341T891 1281T889 1210V907Q894 904 912 902Q927 900 957 899T1041
897ZM1041 731Q987 731 957 730T912 726Q894 723 889 721V418Q889 381 891 347T904 288T938 247T1004 231Q1057 231 1091 249T1145 300T1172 382T1180 492Q1180 548 1175 592T1155 667T1113 714T1041 731ZM545 0Q427 0 336 13T182 55T87 129T54 236Q54 260 66 270T95
286T133 297T171 314T201 351T213 420V1174Q213 1218 201 1242T172 1279T134 1297T96 1307T66 1323T54 1358Q54 1420 86 1464T181 1537T335 1579T545 1593H1078Q1245 1593 1364 1576T1565 1528T1694 1457T1768 1369T1801 1270T1809 1167Q1809 1108 1794 1063T1753
984T1693 927T1620 888T1540 864T1461 854Q1532 849 1602 828T1729 762T1821 642T1856 455Q1856 393 1839 335T1783 227T1679 135T1519 63T1296 17T1000 0H545Z" />
<glyph unicode="C" glyph-name="C" horiz-adv-x="1564" d="M859 -25Q728 -25 618 4T419 87T261 213T147 373T78 557T54 758Q54 876 74 985T138 1191T252 1366T422 1501T653 1589T953 1620Q1064 1620 1164 1590T1339 1505T1459 1370T1504 1192Q1504 1152 1492 1120T1457
1066T1404 1032T1338 1020Q1307 1020 1276 1030T1217 1063T1167 1124T1131 1217Q1113 1295 1070 1335T978 1376Q941 1376 905 1353T840 1283T793 1162T775 989Q775 857 790 760T831 593T893 480T970 411T1055 377T1143 367Q1188 367 1231 377T1309 403T1370 436T1408
469Q1423 489 1440 498T1473 508Q1501 508 1521 479T1541 399Q1541 319 1492 243T1352 108T1137 12T859 -25Z" />
<glyph unicode="D" glyph-name="D" horiz-adv-x="1962" d="M1237 854Q1237 962 1226 1060T1191 1233T1128 1352T1033 1397Q991 1397 966 1382T927 1341T910 1281T906 1210V418Q906 381 910 347T927 288T965 247T1033 231Q1089 231 1128 276T1191 402T1226 599T1237
854ZM1033 1593Q1195 1593 1322 1565T1546 1487T1710 1368T1820 1215T1882 1037T1901 844Q1901 732 1886 626T1832 426T1725 254T1552 119T1298 32T949 0H545Q427 0 336 13T182 55T87 129T54 236Q54 260 66 270T95 286T133 297T171 314T201 351T213 420V1176Q213
1220 201 1244T172 1281T134 1299T96 1309T66 1325T54 1360Q54 1422 86 1466T181 1539T335 1580T545 1593H1033Z" />
<glyph unicode="E" glyph-name="E" horiz-adv-x="1765" d="M1393 844Q1393 791 1381 741T1344 653T1280 591T1186 567Q1154 567 1132 580T1093 618T1060 677T1024 752L944 762V205L1286 221L1327 395Q1344 452 1368 491T1420 555T1481 591T1545 602Q1582 602 1614
590T1669 553T1706 496T1719 420Q1719 379 1711 332T1686 238T1644 148T1585 72T1509 20T1415 0H545Q427 0 336 13T182 55T87 129T54 236Q54 260 66 270T95 286T133 297T171 314T201 351T213 420V1174Q213 1218 201 1242T172 1279T134 1297T96 1307T66 1323T54
1358Q54 1420 86 1464T181 1537T335 1579T545 1593H1403Q1476 1593 1530 1553T1619 1453T1672 1322T1690 1192Q1690 1152 1678 1120T1643 1066T1590 1032T1524 1020Q1493 1020 1463 1030T1406 1064T1356 1125T1317 1217L1278 1384H944V924L1024 934Q1044 974 1060
1008T1093 1066T1132 1104T1186 1118Q1241 1118 1280 1095T1344 1033T1381 946T1393 844Z" />
<glyph unicode="F" glyph-name="F" horiz-adv-x="1660" d="M967 924Q987 964 1003 998T1036 1056T1075 1094T1129 1108Q1183 1108 1222 1085T1287 1023T1324 936T1336 834Q1336 781 1324 731T1287 643T1223 581T1129 557Q1097 557 1075 570T1036 608T1003 666T967
741L863 752V420Q863 376 875 352T905 315T944 297T983 287T1013 271T1025 236Q1025 174 993 129T897 56T743 14T533 0Q415 0 324 13T170 55T75 129T42 236Q42 260 54 270T83 286T121 297T159 314T189 351T201 420V1174Q201 1218 189 1242T160 1279T122 1297T84
1307T54 1323T42 1358Q42 1420 74 1464T169 1537T323 1579T533 1593H1354Q1427 1593 1481 1553T1570 1453T1623 1322T1641 1192Q1641 1152 1629 1120T1594 1066T1541 1032T1475 1020Q1444 1020 1414 1030T1357 1064T1308 1125T1270 1217V1384H863V913L967 924Z"
/>
<glyph unicode="G" glyph-name="G" horiz-adv-x="1709" d="M1605 420Q1605 347 1580 286T1511 176T1404 89T1269 26T1112 -12T943 -25Q837 -25 729 -5T521 56T334 161T183 312T81 510T44 758Q44 911 81 1034T182 1253T333 1418T519 1532T725 1598T937 1620Q1063
1620 1178 1591T1382 1506T1523 1370T1576 1188Q1576 1148 1564 1116T1529 1062T1476 1028T1410 1016Q1379 1016 1348 1026T1289 1059T1239 1120T1204 1212Q1195 1251 1173 1281T1122 1331T1063 1362T1009 1372Q972 1372 929 1349T850 1279T789 1158T765 985Q765
853 778 753T814 579T864 458T923 381T984 340T1039 328Q1070 328 1089 342T1109 375Q1109 433 1096 465T1062 514T1018 539T974 556T941 583T927 635Q927 713 959 760T1045 832T1166 864T1306 872Q1423 872 1499 861T1619 829T1681 780T1699 719Q1699 670 1692
642T1675 595T1652 565T1630 536T1612 493T1605 420Z" />
<glyph unicode="H" glyph-name="H" horiz-adv-x="2226" d="M1337 729H886V424Q886 379 898 354T929 316T968 298T1006 287T1036 271T1048 236Q1048 111 919 56T546 0Q428 0 337 13T183 55T88 129T55 236Q55 260 67 270T96 286T134 297T172 314T202 351T214 420V1174Q214
1218 202 1242T173 1279T135 1297T97 1307T67 1323T55 1358Q55 1420 87 1464T182 1537T336 1579T546 1593Q668 1593 762 1580T919 1538T1015 1465T1048 1358Q1048 1334 1036 1324T1007 1308T968 1297T930 1280T900 1243T888 1174V922H1337V1174Q1337 1218 1325
1242T1296 1279T1257 1297T1219 1307T1189 1323T1177 1358Q1177 1482 1305 1537T1679 1593Q1920 1593 2048 1538T2176 1358Q2176 1334 2164 1324T2133 1308T2092 1297T2052 1280T2021 1243T2008 1174V424Q2008 379 2020 354T2051 316T2092 298T2132 287T2163 271T2176
236Q2176 174 2144 129T2048 56T1892 14T1679 0Q1557 0 1463 13T1306 55T1210 129T1177 236Q1177 260 1189 270T1218 287T1257 298T1295 316T1325 353T1337 424V729Z" />
<glyph unicode="I" glyph-name="I" horiz-adv-x="1097" d="M885 424Q885 379 897 354T927 316T966 298T1005 287T1035 271T1047 236Q1047 111 918 56T545 0Q427 0 336 13T182 55T87 129T54 236Q54 260 66 270T95 286T133 297T171 314T201 351T213 420V1174Q213
1218 201 1242T172 1279T134 1297T96 1307T66 1323T54 1358Q54 1420 86 1464T181 1537T335 1579T545 1593Q667 1593 761 1580T918 1538T1014 1465T1047 1358Q1047 1334 1035 1324T1006 1308T967 1297T929 1280T899 1243T887 1174L885 424Z" />
<glyph unicode="J" glyph-name="J" horiz-adv-x="1623" d="M325 858Q376 858 431 845T532 803T608 730T638 623Q638 585 627 551T600 487T564 430T528 382T500 341T489 309Q489 288 513 275T577 262Q613 262 646 275T704 319T744 399T759 520V1176Q759 1220 747
1244T718 1281T679 1297T641 1307T611 1323T599 1358Q599 1482 727 1537T1101 1593Q1219 1593 1310 1580T1464 1538T1559 1465T1592 1358Q1592 1334 1580 1324T1550 1308T1512 1297T1473 1280T1443 1243T1431 1174V520Q1431 428 1404 352T1328 215T1214 109T1071
34T909 -10T736 -25Q647 -25 559 -10T390 36T240 112T121 218T42 354T13 520Q13 587 34 648T95 756T193 830T325 858Z" />
<glyph unicode="K" glyph-name="K" horiz-adv-x="2081" d="M1343 1174Q1372 1192 1380 1210T1388 1241Q1388 1258 1372 1271T1335 1299T1298 1331T1281 1372Q1281 1436 1312 1479T1395 1547T1512 1582T1646 1593Q1726 1593 1797 1581T1923 1544T2009 1479T2041
1384Q2041 1349 2023 1328T1973 1293T1900 1268T1815 1243T1727 1208T1644 1151L1433 956L1851 424Q1882 384 1912 362T1970 327T2020 307T2060 289T2086 262T2096 211Q2096 100 1974 50T1619 0Q1503 0 1411 14T1255 57T1156 132T1122 242Q1122 267 1139 280T1178
302T1216 322T1234 352Q1234 365 1226 380T1199 420L1027 645Q1017 658 1003 665T974 677T941 681T906 682H886V424Q886 379 898 354T928 316T967 298T1006 287T1036 271T1048 236Q1048 111 919 56T546 0Q428 0 337 13T183 55T88 129T55 236Q55 260 67 270T96 286T134
297T172 314T202 351T214 420V1174Q214 1218 202 1242T173 1279T135 1297T97 1307T67 1323T55 1358Q55 1420 87 1464T182 1537T336 1579T546 1593Q668 1593 762 1580T919 1538T1015 1465T1048 1358Q1048 1334 1036 1324T1006 1308T967 1297T928 1280T898 1243T886
1174V862Q914 862 945 865T1001 887L1343 1174Z" />
<glyph unicode="L" glyph-name="L" horiz-adv-x="1542" d="M886 360Q886 314 897 286T926 243T965 222T1004 216Q1006 216 1009 216T1021 217T1049 220T1101 225L1142 399Q1159 456 1183 495T1235 559T1295 595T1359 606Q1397 606 1429 594T1484 558T1520 500T1533
424Q1533 383 1525 335T1500 240T1458 150T1400 73T1324 20T1230 0H546Q428 0 337 13T183 55T88 129T55 236Q55 260 67 270T96 286T134 297T172 314T202 351T214 420V1174Q214 1218 202 1242T173 1279T135 1297T97 1307T67 1323T55 1358Q55 1420 87 1464T182 1537T336
1579T546 1593Q668 1593 762 1580T919 1538T1015 1465T1048 1358Q1048 1334 1036 1324T1007 1308T968 1297T930 1280T900 1243T888 1174L886 360Z" />
<glyph unicode="M" glyph-name="M" horiz-adv-x="2219" d="M512 838V424Q512 379 524 354T554 316T593 298T632 287T662 271T674 236Q674 174 647 129T576 56T480 14T375 0Q315 0 259 13T159 55T89 129T62 236Q62 260 74 270T103 286T141 297T179 314T209 351T221
420V1174Q221 1218 209 1242T180 1279T142 1297T104 1307T74 1323T62 1358Q62 1420 91 1464T170 1537T288 1579T434 1593Q508 1593 558 1579T649 1535T724 1455T803 1337L1071 903L1313 1315Q1346 1372 1383 1422T1467 1511T1570 1571T1700 1593Q1822 1593 1910
1580T2054 1538T2138 1465T2165 1358Q2165 1334 2153 1324T2123 1308T2084 1297T2045 1280T2015 1243T2003 1174V424Q2003 379 2015 354T2045 316T2084 298T2123 287T2153 271T2165 236Q2165 111 2036 56T1663 0Q1545 0 1454 13T1300 55T1205 129T1172 236Q1172
260 1184 270T1213 286T1251 297T1289 314T1319 351T1331 420V836L973 236Q961 213 935 213Q912 213 895 236L512 838Z" />
<glyph unicode="N" glyph-name="N" horiz-adv-x="1811" d="M533 776Q526 781 522 781Q513 781 513 771Q513 768 514 766V424Q514 379 526 354T556 316T595 298T634 287T664 271T676 236Q676 174 649 129T578 56T482 14T377 0Q317 0 261 13T161 55T91 129T64 236Q64
260 76 270T105 286T143 297T181 314T211 351T223 420V1174Q223 1218 211 1242T182 1279T144 1297T106 1307T76 1323T64 1358Q64 1420 89 1464T157 1537T260 1579T387 1593Q439 1593 476 1585T547 1557T618 1504T707 1423L1280 889Q1282 887 1285 885T1294 883Q1300
883 1305 888T1311 911V1169Q1311 1215 1299 1240T1269 1278T1230 1296T1191 1307T1161 1323T1149 1358Q1149 1420 1176 1464T1247 1537T1343 1579T1448 1593Q1508 1593 1564 1580T1664 1538T1734 1465T1761 1358Q1761 1334 1750 1324T1721 1308T1683 1297T1645
1280T1616 1243T1604 1174V215Q1604 149 1593 107T1562 42T1513 9T1450 0Q1426 0 1400 10T1345 39T1281 88T1204 154L533 776Z" />
<glyph unicode="O" glyph-name="O" horiz-adv-x="1899" d="M907 -25Q756 -25 634 4T418 87T256 213T144 373T80 557T59 758Q59 876 72 985T122 1191T224 1366T392 1501T643 1589T991 1620Q1153 1620 1279 1591T1499 1508T1658 1383T1763 1225T1821 1043T1839 848Q1839
736 1826 628T1776 422T1674 243T1505 102T1254 9T907 -25ZM964 238Q1009 238 1037 263T1082 335T1105 450T1112 604V649Q1112 725 1111 806T1105 966T1089 1115T1057 1238T1005 1323T927 1354Q880 1354 851 1333T807 1270T786 1167T780 1026Q780 953 781 866T787
692T803 522T834 377T886 276T964 238Z" />
<glyph unicode="P" glyph-name="P" horiz-adv-x="1895" d="M1035 754Q1081 754 1109 776T1151 832T1169 908T1174 989Q1174 1015 1173 1037T1172 1077Q1172 1134 1168 1191T1146 1295T1093 1370T998 1399Q960 1399 939 1387T907 1352T894 1302T891 1240V764Q894
761 910 759Q924 757 952 756T1035 754ZM1129 1593Q1317 1593 1456 1550T1688 1436T1826 1275T1872 1090Q1872 993 1825 900T1684 733T1451 616T1129 571Q1113 571 1079 571T1008 572T936 573T887 575V424Q887 379 899 354T929 316T968 298T1007 287T1037 271T1049
236Q1049 111 920 56T547 0Q429 0 338 13T184 55T89 129T56 236Q56 260 68 270T97 286T135 297T173 314T203 351T215 420V1174Q215 1218 203 1242T174 1279T136 1297T98 1307T68 1323T56 1358Q56 1419 87 1463T180 1537T330 1579T534 1593H547H1129Z" />
<glyph unicode="Q" glyph-name="Q" horiz-adv-x="1902" d="M1840 848Q1840 725 1824 607T1762 386T1634 198T1421 59L1607 -66Q1645 -91 1685 -96T1756 -102Q1782 -102 1799 -99Q1809 -98 1816 -96Q1824 -113 1828 -130T1832 -164Q1832 -196 1814 -227T1758 -292T1662
-359T1523 -432Q1485 -451 1451 -459T1386 -467Q1346 -467 1311 -454T1244 -422T1183 -378T1123 -331L765 -16Q640 -3 539 33T360 124T225 249T132 401T79 573T61 758Q61 876 74 985T124 1191T226 1366T394 1501T645 1589T993 1620Q1155 1620 1281 1591T1501 1508T1660
1383T1765 1225T1822 1043T1840 848ZM966 238Q1011 238 1039 263T1084 335T1107 450T1113 604V653Q1113 729 1112 810T1106 969T1090 1117T1058 1239T1007 1323T929 1354Q882 1354 853 1333T809 1270T788 1167T782 1026Q782 953 783 866T789 692T805 522T836 377T888
276T966 238Z" />
<glyph unicode="R" glyph-name="R" horiz-adv-x="2051" d="M1821 414Q1849 372 1879 349T1937 313T1991 296T2036 285T2067 271T2079 240Q2079 169 2053 123T1964 49T1796 11T1534 0Q1464 0 1411 14T1316 53T1244 111T1188 184T1144 265T1106 351L1006 629H994Q962
629 940 630T885 633V418Q885 375 897 351T927 315T966 298T1005 287T1035 271T1047 236Q1047 111 918 56T545 0Q427 0 336 13T182 55T87 129T54 236Q54 260 66 270T95 286T133 297T171 314T201 351T213 420V1174Q213 1218 201 1242T172 1279T134 1297T96 1307T66
1323T54 1358Q54 1420 88 1464T186 1537T344 1579T555 1593H1096Q1255 1593 1378 1576T1593 1529T1748 1456T1851 1363T1907 1256T1925 1139Q1925 1074 1913 1012T1867 895T1775 794T1624 713L1821 414ZM1022 784Q1112 784 1155 842T1198 1004V1034Q1198 1100 1195
1165T1175 1282T1120 1366T1014 1399Q972 1399 947 1385T908 1348T891 1294T887 1229V795Q888 792 902 789Q914 787 941 786T1022 784Z" />
<glyph unicode="S" glyph-name="S" horiz-adv-x="1570" d="M987 1298Q987 1326 937 1349T782 1372Q710 1372 668 1362T605 1336T577 1299T571 1257Q571 1214 611 1182T718 1120T870 1062T1044 998T1218 916T1369 808T1476 663T1517 471Q1517 331 1463 236T1313
83T1084 0T794 -25Q702 -25 611 -11T438 29T286 94T164 181T83 288T53 414Q53 465 69 503T111 565T172 602T243 614Q288 614 333 597T414 547T472 466T495 356Q495 341 509 324T551 293T620 268T714 258Q788 258 832 267T899 293T930 329T937 369Q937 394 900 413T803
451T666 493T508 545T351 618T213 719T116 858T79 1044Q79 1149 104 1232T176 1379T288 1488T432 1563T603 1606T794 1620Q971 1620 1095 1585T1298 1493T1411 1369T1447 1235Q1447 1176 1422 1133T1357 1062T1266 1021T1163 1008Q1113 1008 1066 1019T982 1052T923
1105T900 1178Q900 1208 913 1223T943 1248T973 1268T987 1298Z" />
<glyph unicode="T" glyph-name="T" horiz-adv-x="1740" d="M1206 424Q1206 379 1218 354T1248 316T1287 298T1326 287T1356 271T1368 236Q1368 111 1239 56T866 0Q748 0 657 13T503 55T408 129T375 236Q375 260 387 270T416 286T454 297T492 314T522 351T534 420V1378L422
1374L383 1214Q367 1160 344 1123T294 1063T237 1029T176 1018Q141 1018 111 1030T58 1064T23 1118T10 1190Q10 1250 27 1320T80 1451T170 1552T297 1593H1444Q1517 1593 1570 1553T1659 1453T1712 1322T1730 1192Q1730 1152 1718 1120T1683 1066T1631 1032T1565
1020Q1534 1020 1503 1030T1444 1063T1394 1124T1358 1217L1319 1376L1206 1380V424Z" />
<glyph unicode="U" glyph-name="U" horiz-adv-x="1882" d="M1689 516Q1689 419 1663 341T1590 203T1478 99T1334 29T1168 -12T987 -25Q876 -25 774 -12T584 29T423 100T300 204T220 343T192 520V1174Q192 1218 180 1242T151 1279T113 1297T75 1307T45 1323T33
1358Q33 1420 65 1464T160 1537T314 1579T524 1593Q646 1593 740 1580T897 1538T993 1465T1026 1358Q1026 1334 1014 1324T985 1308T946 1298T908 1281T878 1245T866 1176V520Q866 450 886 401T942 321T1027 276T1136 262Q1191 262 1238 276T1321 322T1376 402T1397
520V1174Q1397 1218 1385 1242T1356 1279T1317 1297T1279 1307T1249 1323T1237 1358Q1237 1420 1267 1464T1343 1537T1444 1579T1550 1593Q1595 1593 1647 1580T1745 1538T1819 1465T1849 1358Q1849 1334 1837 1324T1807 1307T1768 1296T1729 1278T1699 1240T1687
1169L1689 516Z" />
<glyph unicode="V" glyph-name="V" horiz-adv-x="1713" d="M1262 1174Q1275 1210 1275 1234Q1275 1258 1264 1270T1237 1290T1202 1300T1167 1310T1140 1326T1129 1358Q1129 1406 1148 1448T1204 1523T1297 1574T1426 1593Q1500 1593 1556 1574T1649 1523T1706
1449T1725 1358Q1725 1334 1713 1324T1680 1307T1634 1296T1583 1278T1536 1240T1498 1169L1197 435Q1141 297 1101 205T1024 56T948 -23T853 -47Q805 -47 767 -18T688 79T595 259T470 537L191 1169Q172 1212 150 1236T106 1274T63 1292T26 1304T1 1322T-9 1358Q-9
1482 119 1537T492 1593Q610 1593 702 1580T856 1538T951 1465T984 1358Q984 1338 974 1327T949 1310T916 1300T883 1289T858 1271T848 1237Q848 1225 851 1210T863 1174L1027 774Q1037 751 1048 734T1073 716Q1084 716 1096 731T1123 784L1262 1174Z" />
<glyph unicode="W" glyph-name="W" horiz-adv-x="2737" d="M1248 1194Q1229 1229 1208 1248T1165 1277T1126 1293T1093 1305T1071 1323T1062 1358Q1062 1482 1190 1537T1564 1593Q1682 1593 1773 1580T1927 1538T2022 1465T2055 1358Q2055 1337 2045 1327T2020
1310T1988 1301T1955 1290T1930 1271T1920 1236Q1920 1224 1923 1209T1934 1174L2067 815Q2076 791 2088 774T2115 756Q2126 756 2138 771T2164 825L2280 1174Q2292 1210 2292 1233Q2292 1257 2282 1270T2255 1290T2220 1300T2185 1310T2158 1326T2147 1358Q2147
1406 2166 1448T2222 1523T2315 1574T2444 1593Q2518 1593 2574 1574T2667 1523T2724 1449T2743 1358Q2743 1334 2731 1323T2700 1307T2655 1296T2605 1277T2557 1239T2516 1169L2249 459Q2212 361 2183 286T2129 154T2080 59T2031 -2T1975 -36T1908 -47Q1860 -47
1819 -19T1735 76T1641 255T1525 537L1377 918L1203 460Q1147 313 1108 216T1033 60T958 -23T861 -47Q813 -47 776 -18T699 80T606 260T478 537L185 1169Q165 1211 143 1235T98 1272T56 1291T20 1304T-5 1322T-15 1358Q-15 1482 113 1537T486 1593Q604 1593 696
1580T850 1538T945 1465T978 1358Q978 1338 968 1327T942 1310T909 1299T875 1288T850 1270T839 1238Q839 1226 843 1210T857 1174L1021 815Q1032 792 1043 775T1068 757Q1079 757 1091 772T1117 825L1248 1194Z" />
<glyph unicode="X" glyph-name="X" horiz-adv-x="1772" d="M618 715L247 1174Q216 1212 187 1233T130 1266T79 1285T39 1303T13 1330T3 1380Q3 1436 38 1476T135 1543T283 1581T470 1593Q621 1593 722 1579T885 1536T973 1462T999 1352Q999 1326 982 1313T943
1291T904 1271T886 1241Q886 1229 893 1213T921 1174L994 1085L1085 1174Q1109 1197 1119 1213T1130 1241Q1130 1258 1117 1268T1087 1288T1058 1312T1044 1350Q1044 1414 1075 1460T1158 1536T1274 1579T1408 1593Q1469 1593 1524 1581T1621 1544T1686 1479T1711
1384Q1711 1349 1696 1330T1654 1300T1593 1282T1520 1263T1442 1231T1365 1174L1124 932L1552 424Q1584 385 1615 364T1673 329T1723 309T1762 290T1788 262T1797 211Q1797 100 1675 50T1320 0Q1204 0 1106 14T935 57T822 132T781 242Q781 267 798 280T837 302T876
322T894 352Q894 365 887 380T859 420L747 557L607 420Q586 400 577 385T568 358Q568 339 585 328T624 307T663 282T681 242Q681 178 647 133T557 58T430 14T286 0Q238 0 190 12T102 49T38 113T13 209Q13 243 25 261T59 291T110 311T174 332T246 366T321 424L618
715Z" />
<glyph unicode="Y" glyph-name="Y" horiz-adv-x="1744" d="M862 0Q743 0 651 13T496 55T401 129T368 236Q368 260 380 270T410 286T449 297T488 314T518 351T530 420V780L249 1169Q222 1207 193 1229T138 1264T88 1284T46 1300T18 1321T8 1358Q8 1482 136 1537T509
1593Q627 1593 719 1580T873 1538T968 1465T1001 1358Q1001 1330 983 1317T944 1295T904 1277T886 1246Q886 1234 894 1217T921 1174L1027 1004Q1051 976 1072 976Q1087 976 1100 987T1124 1014L1238 1174Q1255 1198 1261 1215T1267 1246Q1267 1262 1258 1271T1236
1286T1207 1297T1178 1309T1155 1327T1146 1358Q1146 1406 1165 1448T1221 1523T1314 1574T1443 1593Q1517 1593 1573 1574T1666 1523T1723 1449T1742 1358Q1742 1334 1730 1322T1697 1302T1649 1287T1593 1267T1532 1231T1474 1169L1202 780V424Q1202 379 1214
354T1244 316T1282 298T1321 287T1351 271T1363 236Q1363 174 1331 129T1235 56T1078 14T862 0Z" />
<glyph unicode="Z" glyph-name="Z" horiz-adv-x="1597" d="M694 1335Q696 1341 696 1344Q696 1355 688 1364T669 1374H442L403 1214Q387 1160 364 1123T314 1063T257 1029T196 1018Q161 1018 131 1030T78 1064T43 1118T30 1190Q30 1250 47 1320T100 1451T190 1552T317
1593H1388Q1446 1593 1470 1571T1494 1514Q1494 1491 1485 1465T1458 1413L921 326Q901 295 901 273Q901 258 910 249T932 234T963 227T995 225Q1057 225 1095 240T1157 281T1192 338T1214 403T1233 469T1264 526T1317 566T1405 582Q1440 582 1470 570T1523 536T1557
482T1570 410Q1570 350 1553 279T1500 145T1411 42T1284 0H182Q163 0 144 4T110 17T86 42T76 82Q76 105 86 134T120 203L694 1335Z" />
<glyph unicode="[" glyph-name="bracketleft" horiz-adv-x="863" d="M146 1700Q146 1749 147 1797T157 1889T183 1970T234 2034T319 2076T445 2091Q560 2091 645 2079T786 2040T869 1968T896 1858Q896 1792 882 1748T827 1676T715 1636T527 1624V170Q642 170 714
158T827 119T881 47T896 -63Q896 -129 869 -173T786 -245T645 -285T445 -297Q370 -297 319 -282T235 -240T183 -176T157 -96T148 -4T146 94V1700Z" />
<glyph unicode="\" glyph-name="backslash" horiz-adv-x="1034" d="M831 -115Q814 -120 797 -121T765 -123Q717 -123 681 -107T620 -66T578 -12T554 45L51 1731Q46 1749 42 1768T38 1808Q38 1837 49 1870T87 1932T159 1978T273 1997Q321 1997 356 1982T417 1942T458
1888T482 1829Q486 1815 501 1762T541 1628T596 1444T661 1227T731 993T801 757T866 538T921 352T962 215T984 143Q996 110 996 70Q996 42 989 14T962 -38T911 -83T831 -115Z" />
<glyph unicode="]" glyph-name="bracketright" horiz-adv-x="863" d="M717 94Q717 45 716 -3T706 -95T680 -176T629 -240T544 -282T418 -297Q302 -297 218 -285T77 -246T-6 -174T-33 -63Q-33 2 -19 46T36 118T148 158T336 170V1624Q220 1624 148 1636T36 1675T-18
1747T-33 1858Q-33 1923 -6 1967T77 2039T217 2079T418 2091Q493 2091 544 2076T628 2034T680 1970T706 1890T715 1798T717 1700V94Z" />
<glyph unicode="^" glyph-name="asciicircum" horiz-adv-x="1046" d="M523 1591Q586 1591 629 1570T708 1499T782 1366T872 1160L1009 834Q1016 818 1018 804T1021 777Q1021 753 1013 735T990 704T957 686T920 679Q895 679 877 685T838 709T792 759T727 843L523
1163L319 843Q280 791 254 759T208 709T170 685T126 679Q107 679 89 685T57 704T34 734T25 777Q25 790 27 804T37 834L174 1160Q226 1283 263 1366T337 1499T417 1570T523 1591Z" />
<glyph unicode="_" glyph-name="underscore" horiz-adv-x="1183" d="M11 -170Q11 -118 28 -85T70 -33T124 -7T180 1H1006Q1034 1 1063 -6T1117 -33T1158 -85T1174 -170Q1174 -222 1158 -255T1118 -307T1064 -333T1006 -341H180Q154 -341 125 -334T70 -307T28 -255T11
-170Z" />
<glyph unicode="`" glyph-name="grave" horiz-adv-x="806" d="M788 158Q788 142 780 125T759 94T728 70T692 61Q656 61 593 94T427 203Q388 232 343 264T252 333T164 407T88 487T36 572T16 662Q16 703 33 744T81 817T155 870T253 891Q321 891 374 850T474 745T564
601T656 446Q695 385 720 340T761 262T782 204T788 158Z" />
<glyph unicode="a" glyph-name="a" horiz-adv-x="1556" d="M717 205Q750 205 770 215T802 245T816 293T820 358Q820 389 819 437T817 531Q815 585 814 643Q800 645 788 646T763 648Q712 648 678 628T622 571T593 485T584 377Q584 342 588 311T606 256T646 219T717
205ZM1199 0Q1148 0 1098 5T1002 28T918 77T853 162Q833 115 789 80T688 22T569 -13T449 -25Q348 -25 272 -1T144 67T66 174T40 313Q40 404 70 485T174 628T371 724T679 760H816Q816 871 809 944T785 1060T745 1120T687 1137Q649 1137 624 1114T583 1048T561 943T554
803Q511 803 464 804T370 812T282 830T208 864T157 919T138 999Q138 1065 172 1124T278 1227T460 1298T722 1325Q899 1325 1027 1289T1237 1181T1359 1000T1399 743V389Q1399 346 1410 322T1438 286T1475 268T1511 258T1539 243T1551 211Q1551 111 1462 56T1199
0Z" />
<glyph unicode="b" glyph-name="b" horiz-adv-x="1787" d="M818 1196Q846 1219 883 1242T970 1283T1081 1313T1220 1325Q1321 1325 1398 1296T1533 1218T1630 1101T1692 958T1726 801T1736 641Q1736 557 1723 475T1682 319T1611 182T1509 73T1375 1T1205 -25Q1118
-25 1051 -11T932 26T844 74T783 125Q769 96 747 73T692 33T613 9T505 0Q397 0 314 12T174 50T88 117T58 215Q58 237 69 246T96 261T131 270T166 285T193 318T204 381V1505Q204 1546 193 1567T166 1600T131 1616T96 1625T69 1639T58 1671Q58 1728 87 1768T174 1835T314
1874T505 1886Q613 1886 675 1875T770 1838T811 1766T820 1653L818 1196ZM937 1069Q902 1069 872 1057T816 1028V385Q816 356 816 328T814 274Q842 257 877 243T955 229Q1011 229 1041 248T1086 315T1102 440T1105 637Q1105 761 1096 844T1067 977T1015 1048T937
1069Z" />
<glyph unicode="c" glyph-name="c" horiz-adv-x="1329" d="M729 1325Q878 1325 983 1292T1156 1203T1255 1072T1286 913Q1286 878 1275 851T1246 805T1201 776T1145 766Q1119 766 1092 775T1041 804T998 856T969 934Q961 967 945 992T909 1034T864 1060T815 1069Q772
1069 741 1051T688 999T657 915T647 803Q647 563 719 448T952 332Q998 332 1046 344T1135 372T1206 399T1247 412Q1270 412 1283 393T1296 348Q1296 340 1296 333T1292 319Q1263 245 1210 183T1084 74T917 1T715 -25Q603 -25 510 1T343 75T213 187T120 326T64 484T45
651Q45 736 64 819T121 978T216 1116T349 1226T520 1299T729 1325Z" />
<glyph unicode="d" glyph-name="d" horiz-adv-x="1783" d="M1579 385Q1579 344 1590 321T1617 287T1652 271T1688 261T1715 247T1726 215Q1726 101 1608 51T1267 0Q1207 0 1162 9T1085 34T1031 74T997 127Q971 103 934 76T843 27T720 -10T561 -25Q460 -25 383
3T249 79T154 193T93 332T61 485T51 641Q51 720 62 801T100 958T168 1101T269 1217T408 1296T589 1325Q660 1325 718 1315T822 1287T904 1248T966 1204V1505Q966 1546 956 1567T929 1600T894 1616T859 1625T832 1639T821 1671Q821 1728 850 1768T937 1835T1077
1874T1267 1886Q1375 1886 1437 1875T1532 1838T1574 1766T1583 1653L1579 385ZM821 229Q861 229 900 243T968 274Q966 300 966 326T966 381V1014Q932 1034 891 1051T807 1069Q761 1069 732 1048T685 978T662 845T655 637Q655 562 660 489T682 359T732 265T821
229Z" />
<glyph unicode="e" glyph-name="e" horiz-adv-x="1345" d="M803 1069Q771 1069 743 1055T695 1010T663 934T651 823H970Q970 893 959 940T927 1016T875 1057T803 1069ZM729 1325Q863 1325 970 1285T1153 1175T1269 1011T1310 807Q1310 762 1298 737T1262 700T1205
685T1128 682H647Q647 572 669 504T732 397T828 346T952 332Q988 332 1026 339T1100 357T1166 380T1216 403Q1232 412 1247 412Q1270 412 1283 393T1296 349Q1296 341 1295 334T1291 320Q1262 246 1212 183T1091 74T925 1T714 -25Q602 -25 510 1T343 75T212 187T119
326T64 484T45 651Q45 736 64 819T121 978T216 1116T349 1226T520 1299T729 1325Z" />
<glyph unicode="f" glyph-name="f" horiz-adv-x="1056" d="M222 1296Q222 1368 236 1437T280 1569T357 1685T472 1777T628 1838T828 1860Q931 1860 1023 1844T1184 1790T1293 1691T1334 1540Q1334 1512 1324 1479T1288 1416T1222 1366T1119 1346Q1054 1346 1010
1363T937 1407T896 1467T883 1534Q883 1553 887 1580T906 1638Q864 1638 837 1634T793 1622T769 1601T762 1573Q762 1552 771 1524T791 1460T811 1384T820 1296H926Q938 1296 955 1295T987 1284T1012 1256T1023 1200Q1023 1166 1015 1146T995 1115T968 1101T940
1098H828V383Q828 342 839 319T866 285T901 269T937 259T964 245T975 213Q975 99 858 50T517 0Q409 0 326 12T186 49T100 115T70 213Q70 235 81 244T108 259T143 268T178 283T205 316T216 379V1096H167Q154 1096 137 1097T105 1109T80 1140T70 1200Q70 1236 80
1255T106 1284T138 1294T167 1296H222Z" />
<glyph unicode="g" glyph-name="g" horiz-adv-x="1644" d="M845 1325Q960 1325 1050 1302T1206 1237Q1234 1255 1268 1271T1340 1299T1417 1318T1493 1325Q1534 1325 1570 1316T1634 1286T1677 1232T1693 1151Q1693 1120 1683 1091T1651 1038T1599 1000T1525 985Q1483
985 1460 997T1423 1027T1404 1066T1391 1105T1374 1135T1341 1147Q1336 1147 1330 1146T1316 1143Q1361 1090 1383 1029T1405 905Q1405 815 1364 728T1241 570T1039 457T761 414Q681 414 602 426V401Q602 376 641 365T745 346T891 333T1059 312T1227 271T1374
197T1477 76T1517 -104Q1517 -191 1491 -261T1419 -386T1310 -481T1173 -547T1017 -585T850 -598Q761 -598 673 -590T505 -561T357 -508T238 -427T158 -313T129 -162Q129 -106 147 -67T194 -2Q143 35 114 90T84 227Q84 282 103 326T157 404T241 462T352 504Q296
532 251 570T173 655T122 758T104 881Q104 964 149 1043T285 1185T516 1286T845 1325ZM1013 -190Q1013 -164 990 -149T926 -126T831 -115T714 -110T585 -103T454 -90Q455 -116 456 -142T466 -194T494 -242T551 -281T646 -307T790 -317Q864 -317 908 -305T975 -274T1006
-233T1013 -190ZM782 1069Q746 1069 721 1057T680 1023T657 974T649 915Q649 875 660 835T690 761T736 707T794 686Q828 686 854 701T897 742T922 800T931 868Q931 905 922 941T893 1005T847 1051T782 1069Z" />
<glyph unicode="h" glyph-name="h" horiz-adv-x="1940" d="M809 1151Q832 1176 870 1206T964 1262T1094 1307T1266 1325Q1378 1325 1458 1297T1593 1220T1682 1110T1734 979T1758 841T1764 709V393Q1764 350 1775 326T1803 290T1839 272T1876 262T1904 247T1915
215Q1915 101 1798 51T1457 0Q1349 0 1266 12T1126 50T1040 117T1010 215Q1010 237 1021 246T1049 261T1085 271T1121 288T1149 323T1160 389V797Q1160 861 1151 912T1120 997T1061 1050T967 1069Q938 1069 914 1061T870 1042T834 1017T807 993V385Q807 344 818
321T845 287T881 271T916 261T944 247T955 215Q955 101 837 51T496 0Q281 0 166 50T50 215Q50 237 60 246T87 261T122 270T157 285T184 318T195 381V1505Q195 1546 185 1567T158 1600T123 1616T88 1625T61 1639T50 1671Q50 1785 165 1835T496 1886Q604 1886 666
1875T761 1838T802 1766T811 1653L809 1151Z" />
<glyph unicode="i" glyph-name="i" horiz-adv-x="1024" d="M204 1640Q204 1690 221 1727T266 1792T329 1838T401 1868T470 1883T529 1888Q556 1888 590 1884T661 1868T732 1839T794 1793T838 1728T855 1640Q855 1591 839 1553T795 1488T732 1443T661 1413T591
1398T529 1393Q504 1393 471 1397T401 1413T330 1442T267 1488T222 1552T204 1640ZM824 381Q824 341 835 319T862 286T898 270T933 261T961 247T972 215Q972 101 854 51T513 0Q405 0 322 12T182 50T96 117T66 215Q66 237 77 246T104 261T139 270T174 285T201 318T212
381V915Q212 955 201 977T174 1010T139 1026T104 1035T77 1049T66 1081Q66 1138 95 1178T182 1245T322 1284T513 1296Q621 1296 683 1285T776 1248T816 1176T824 1063V381Z" />
<glyph unicode="j" glyph-name="j" horiz-adv-x="957" d="M176 1640Q176 1690 193 1727T238 1792T301 1838T373 1868T443 1883T502 1888Q528 1888 562 1884T633 1868T704 1839T766 1793T810 1728T827 1640Q827 1591 811 1553T767 1488T704 1443T633 1413T563 1398T502
1393Q477 1393 444 1397T374 1413T302 1442T239 1488T194 1552T176 1640ZM815 221Q815 149 800 80T754 -52T673 -167T556 -258T398 -318T197 -340Q146 -340 111 -330T54 -305T22 -269T12 -227Q12 -206 20 -187T43 -152T76 -128T119 -119Q160 -119 187 -115T231
-102T255 -82T262 -53Q262 -32 253 -4T232 58T211 133T201 221V915Q201 955 190 977T163 1010T128 1026T93 1035T66 1049T55 1081Q55 1138 84 1178T171 1245T311 1284T502 1296Q609 1296 671 1285T766 1248T806 1176T815 1063V221Z" />
<glyph unicode="k" glyph-name="k" horiz-adv-x="1855" d="M1165 954Q1187 971 1194 985T1202 1010Q1202 1024 1185 1037T1147 1064T1109 1093T1092 1128Q1092 1181 1123 1214T1204 1265T1313 1289T1429 1296Q1514 1296 1573 1287T1670 1258T1724 1205T1741 1128Q1741
1099 1729 1083T1696 1057T1648 1040T1588 1023T1523 998T1456 954L1307 827L1620 367Q1644 332 1671 316T1725 292T1777 282T1821 274T1852 258T1864 219Q1864 160 1839 118T1765 50T1643 12T1475 0Q1365 0 1299 11T1196 43T1144 92T1119 154T1099 227T1063 307L915
539Q912 543 908 548T893 557T864 564T817 567V385Q817 344 828 321T855 287T891 271T926 261T954 247T965 215Q965 101 847 51T506 0Q398 0 315 12T175 50T89 117T59 215Q59 237 70 246T97 261T132 270T167 285T194 318T205 381V1505Q205 1546 194 1567T167 1600T132
1616T97 1625T70 1639T59 1671Q59 1728 88 1768T175 1835T315 1874T506 1886Q608 1886 669 1877T763 1844T806 1781T817 1681V729Q841 729 854 730T877 735T894 745T915 762L1165 954Z" />
<glyph unicode="l" glyph-name="l" horiz-adv-x="1023" d="M818 385Q818 344 829 321T856 287T891 271T927 261T954 247T965 215Q965 101 847 51T506 0Q399 0 316 12T176 50T90 117T60 215Q60 237 70 246T97 261T132 270T167 285T194 318T205 381V1505Q205 1546
195 1567T168 1600T133 1616T98 1625T71 1639T60 1671Q60 1728 89 1768T176 1835T316 1874T506 1886Q614 1886 676 1875T769 1838T809 1766T818 1653V385Z" />
<glyph unicode="m" glyph-name="m" horiz-adv-x="2759" d="M1586 1202Q1603 1213 1630 1233T1712 1274T1855 1310T2084 1325Q2189 1325 2267 1300T2400 1232T2492 1131T2549 1005T2578 864T2586 719V709Q2585 590 2585 526T2584 431T2584 396T2584 390Q2584 348
2595 325T2622 289T2658 272T2694 262T2722 247T2733 215Q2733 158 2705 118T2621 51T2486 12T2301 0Q2200 0 2122 12T1989 50T1907 117T1879 215Q1879 237 1886 246T1905 261T1929 270T1953 285T1971 318T1979 381V811Q1979 872 1972 920T1947 1001T1902 1051T1830
1069Q1764 1069 1735 1028T1705 920V393Q1705 350 1713 326T1733 290T1760 272T1787 262T1808 247T1816 215Q1816 158 1794 118T1724 51T1602 12T1422 0Q1321 0 1243 12T1110 50T1028 117T1000 215Q1000 237 1007 246T1026 261T1050 270T1075 285T1093 318T1101
381V811Q1101 933 1072 1000T966 1067Q936 1067 909 1056T861 1025T828 976T816 915V385Q816 344 824 321T846 287T874 271T903 261T924 247T933 215Q933 101 820 51T493 0Q390 0 309 12T173 50T88 117T58 215Q58 237 69 246T96 261T131 270T166 285T193 318T204
381V915Q204 955 193 977T166 1010T131 1026T96 1035T69 1049T58 1081Q58 1138 87 1178T171 1245T307 1284T488 1296Q534 1296 571 1292T636 1280T686 1263T722 1243Q757 1219 771 1190Q820 1227 889 1257Q948 1283 1033 1304T1232 1325Q1350 1325 1441 1292T1586
1202Z" />
<glyph unicode="n" glyph-name="n" horiz-adv-x="1967" d="M822 385Q822 344 833 321T860 287T896 271T931 261T959 247T970 215Q970 101 852 51T511 0Q403 0 320 12T180 50T94 117T64 215Q64 237 75 246T102 261T137 270T172 285T199 318T210 381V915Q210 955
199 977T172 1010T137 1026T102 1035T75 1049T64 1081Q64 1138 93 1178T180 1245T320 1284T511 1296Q609 1296 667 1280T757 1243Q794 1219 808 1190Q860 1227 932 1257Q994 1283 1083 1304T1293 1325Q1403 1325 1482 1298T1617 1224T1707 1116T1759 987T1784 852T1791
721V390Q1791 348 1802 325T1830 289T1866 272T1903 262T1931 247T1942 215Q1942 101 1825 51T1484 0Q1376 0 1293 12T1153 50T1067 117T1037 215Q1037 237 1048 246T1076 261T1112 270T1148 285T1176 318T1187 381V808Q1187 870 1178 918T1146 1000T1086 1051T994
1069Q959 1069 928 1058T874 1026T838 977T824 915L822 385Z" />
<glyph unicode="o" glyph-name="o" horiz-adv-x="1572" d="M760 -25Q641 -25 542 3T363 79T223 194T123 336T63 496T43 662Q43 747 64 829T129 986T238 1122T390 1229T587 1299T829 1325Q945 1325 1041 1299T1216 1228T1352 1120T1450 985T1508 831T1528 668Q1528
583 1507 498T1444 336T1337 193T1188 79T995 3T760 -25ZM805 231Q838 231 860 250T897 307T917 396T923 514Q923 571 922 634T917 759T904 877T879 976T837 1044T776 1069Q741 1069 717 1050T676 995T653 911T645 803Q645 748 647 684T655 557T672 434T701 330T744
258T805 231Z" />
<glyph unicode="p" glyph-name="p" horiz-adv-x="1716" d="M1664 641Q1664 564 1655 485T1622 332T1561 193T1467 80T1333 3T1154 -25Q1040 -25 958 -1T817 57V-176Q817 -218 828 -240T855 -274T890 -290T926 -300T953 -314T964 -346Q964 -460 846 -510T505 -561Q398
-561 315 -549T175 -511T89 -444T59 -346Q59 -324 69 -315T96 -300T131 -291T166 -276T193 -243T204 -180V915Q204 955 194 977T167 1010T132 1026T97 1035T70 1049T59 1081Q59 1138 88 1178T175 1245T315 1284T505 1296Q622 1296 685 1279T778 1219Q806 1240 842
1259T923 1292T1024 1316T1148 1325Q1249 1325 1327 1296T1462 1218T1558 1101T1620 958T1654 801T1664 641ZM817 256Q838 248 860 244T905 240Q961 240 991 257T1035 320T1051 442T1054 637Q1054 761 1045 844T1016 977T964 1048T886 1069Q868 1069 850 1066T817
1057Q819 1026 819 991T819 915L817 256Z" />
<glyph unicode="q" glyph-name="q" horiz-adv-x="1782" d="M963 104Q936 80 899 57T812 16T700 -13T562 -25Q461 -25 384 3T250 79T155 193T94 332T62 485T52 641Q52 720 62 801T95 958T158 1101T254 1217T389 1296T568 1325Q649 1325 714 1312T830 1277T920 1230T984
1180Q995 1213 1016 1235T1071 1270T1156 1290T1277 1296Q1384 1296 1467 1284T1607 1246T1693 1179T1723 1081Q1723 1059 1713 1050T1686 1035T1651 1026T1616 1011T1589 977T1578 915V-180Q1578 -221 1588 -242T1615 -275T1650 -291T1685 -300T1712 -314T1723
-346Q1723 -403 1694 -443T1607 -510T1467 -549T1277 -561Q1054 -561 936 -511T818 -346Q818 -324 829 -315T856 -300T891 -291T927 -275T954 -241T965 -176L963 104ZM812 240Q852 240 892 254T963 285V1024Q935 1043 902 1056T830 1069Q784 1069 752 1048T700
978T671 845T662 637Q662 519 664 442T681 320T725 258T812 240Z" />
<glyph unicode="r" glyph-name="r" horiz-adv-x="1349" d="M795 385Q795 344 806 321T833 287T869 271T904 261T932 247T943 215Q943 101 825 51T484 0Q376 0 293 12T153 50T67 117T37 215Q37 237 48 246T75 261T110 270T145 285T172 318T183 381V915Q183 955
172 977T145 1010T110 1026T75 1035T48 1049T37 1081Q37 1138 66 1178T153 1245T293 1284T484 1296Q583 1296 642 1277T736 1219Q764 1237 794 1253T858 1282T932 1302T1020 1309Q1080 1309 1135 1297T1234 1256T1302 1182T1328 1069Q1328 1025 1313 983T1269 909T1195
856T1092 836Q1034 836 1001 853T950 895T924 949T906 1004T881 1046T834 1063Q803 1063 793 1056T783 1034Q783 1016 790 988T797 920L795 385Z" />
<glyph unicode="s" glyph-name="s" horiz-adv-x="1289" d="M815 1063Q815 1086 773 1105T645 1124Q601 1124 574 1119T530 1105T509 1083T503 1053Q503 1020 535 996T619 948T739 902T876 850T1013 782T1132 691T1217 568T1249 406Q1249 293 1198 212T1062 78T871
0T651 -25Q538 -25 430 -2T236 64T99 165T47 295Q47 337 60 368T94 420T144 451T202 461Q250 461 281 450T331 422T363 382T386 335T410 289T445 249T501 220T589 209Q674 209 714 224T755 283Q755 299 726 314T648 347T538 385T412 434T286 500T176 587T99 701T69
846Q69 935 91 1005T152 1129T247 1220T367 1280T505 1314T655 1325Q788 1325 883 1300T1039 1236T1130 1149T1159 1053Q1159 1020 1146 991T1106 939T1043 904T958 891Q904 891 870 897T815 913T786 938T778 971Q778 989 784 998T796 1015T809 1034T815 1063Z"
/>
<glyph unicode="t" glyph-name="t" horiz-adv-x="1123" d="M765 498Q765 465 767 435T779 380T810 342T868 328Q920 328 958 341T1038 377Q1054 386 1068 386Q1091 386 1104 366T1118 321Q1118 304 1113 293Q1084 219 1039 160T934 60T803 -3T651 -25Q539 -25
459 3T324 79T236 189T186 320T163 458T157 590V1096H108Q71 1096 50 1117T29 1165Q29 1196 57 1217Q174 1301 271 1379T438 1520Q520 1592 585 1655Q611 1681 638 1693T690 1706Q721 1706 742 1685T763 1620V1296H1007Q1019 1296 1035 1295T1067 1284T1092 1256T1103
1200Q1103 1161 1093 1140T1068 1109T1037 1098T1007 1096H763L765 498Z" />
<glyph unicode="u" glyph-name="u" horiz-adv-x="1941" d="M1147 911Q1147 952 1136 975T1109 1009T1073 1025T1038 1035T1010 1049T999 1081Q999 1195 1117 1245T1458 1296Q1533 1296 1584 1282T1668 1243T1720 1183T1747 1106T1757 1015T1759 915V379Q1759 339
1769 317T1796 284T1831 268T1866 259T1893 245T1904 213Q1904 99 1789 49T1458 -2Q1405 -2 1364 6T1293 27T1240 56T1203 91Q1168 131 1159 184Q1107 125 1036 79Q1006 59 968 41T885 8T788 -16T676 -25Q566 -25 486 2T351 76T261 183T208 311T183 446T176 577V906Q176
948 165 971T137 1007T101 1024T65 1034T37 1049T26 1081Q26 1195 144 1245T485 1296Q584 1296 643 1272T733 1207T773 1108T782 985V491Q782 429 791 381T823 298T883 247T975 229Q1010 229 1041 240T1095 271T1131 318T1145 379L1147 911Z" />
<glyph unicode="v" glyph-name="v" horiz-adv-x="1582" d="M1074 952Q1081 967 1082 976T1084 994V1008Q1084 1021 1064 1034T1019 1061T974 1091T953 1126Q953 1179 992 1212T1089 1264T1215 1289T1338 1296Q1468 1296 1538 1257T1609 1126Q1609 1103 1596 1091T1560
1070T1511 1054T1457 1036T1406 1005T1365 952L941 74Q924 39 907 15T871 -23T836 -44T804 -51Q791 -51 775 -45T741 -24T703 17T662 82L191 952Q172 987 148 1006T100 1036T52 1052T11 1065T-19 1086T-30 1126Q-30 1181 11 1214T119 1266T269 1290T435 1296Q549
1296 634 1289T776 1264T860 1212T888 1126Q888 1107 870 1093T831 1067T791 1043T773 1016Q775 1005 782 990T804 952L947 674L1074 952Z" />
<glyph unicode="w" glyph-name="w" horiz-adv-x="2082" d="M2108 1122Q2108 1106 2097 1093T2069 1068T2031 1045T1990 1021T1954 996T1929 967L1417 8Q1411 -3 1400 -9T1376 -16Q1353 -16 1339 8L1066 485L780 8Q773 -3 762 -9T738 -16Q715 -16 702 8L198 909Q177
947 152 972T101 1014T53 1042T11 1064T-18 1087T-29 1120Q-29 1176 3 1210T98 1264T252 1289T460 1296Q495 1296 541 1293T636 1283T732 1264T817 1232T877 1185T900 1120Q900 1088 887 1071T857 1044T827 1024T813 996Q813 983 821 967L950 692L1079 967Q1083
974 1083 982Q1083 1000 1065 1013T1026 1041T986 1074T968 1122Q968 1177 985 1211T1038 1264T1128 1289T1257 1296Q1314 1296 1358 1289T1433 1262T1478 1208T1494 1120Q1459 1091 1433 1065Q1410 1042 1391 1018T1372 977Q1372 970 1374 967L1529 692L1670 967Q1674
974 1674 982Q1674 999 1656 1012T1617 1039T1578 1072T1560 1120Q1560 1172 1579 1206T1635 1260T1729 1288T1859 1296Q1910 1296 1954 1291T2032 1269T2085 1217T2108 1122Z" />
<glyph unicode="x" glyph-name="x" horiz-adv-x="1601" d="M544 592L202 952Q175 981 149 998T101 1025T61 1043T29 1059T8 1084T1 1126Q1 1172 39 1204T140 1257T283 1286T446 1296Q570 1296 653 1289T786 1264T857 1212T878 1126Q878 1105 864 1090T832 1063T801
1037T786 1008Q786 997 792 984T814 952L880 885L956 952Q976 970 984 983T993 1008Q993 1021 982 1034T958 1061T934 1091T923 1126Q923 1179 948 1212T1015 1264T1110 1289T1220 1296Q1305 1296 1364 1287T1461 1257T1514 1204T1531 1126Q1531 1097 1519 1081T1486
1056T1437 1039T1378 1023T1313 997T1247 952L1017 748L1412 346Q1439 314 1464 299T1511 275T1552 265T1584 256T1605 238T1613 199Q1613 154 1578 117T1482 54T1339 14T1161 0Q1066 0 985 11T845 47T753 108T720 199Q720 220 734 230T766 247T797 263T812 287Q812
298 806 310T784 342L681 449L565 344Q546 327 539 315T532 293Q532 278 546 269T578 252T609 232T624 199Q624 146 606 109T546 47T438 12T278 0Q224 0 177 14T94 54T37 117T16 199Q16 226 25 240T52 261T93 271T145 282T204 304T268 348L544 592Z" />
<glyph unicode="y" glyph-name="y" horiz-adv-x="1651" d="M995 639L1142 952Q1150 969 1151 977T1152 994V1008Q1152 1021 1132 1034T1087 1061T1042 1091T1021 1126Q1021 1179 1060 1212T1157 1264T1283 1289T1406 1296Q1536 1296 1606 1257T1677 1126Q1677
1103 1664 1091T1628 1070T1579 1056T1524 1037T1473 1006T1433 952L935 -127Q876 -255 817 -343T698 -487T580 -567T464 -592Q394 -592 333 -561T227 -479T156 -366T130 -242Q130 -163 147 -110T193 -24T256 23T329 37Q374 37 405 16T456 -37T488 -106T511 -175T530
-228T552 -250Q561 -250 574 -237T606 -192T648 -109T704 16L198 952Q179 987 155 1006T107 1036T59 1052T18 1065T-12 1086T-23 1126Q-23 1163 -4 1190T48 1236T126 1266T222 1284T330 1293T442 1296Q556 1296 641 1289T782 1264T866 1212T894 1126Q894 1107 876
1093T837 1067T798 1044T780 1017Q780 1014 782 1008Q787 997 793 986T810 952L995 639Z" />
<glyph unicode="z" glyph-name="z" horiz-adv-x="1356" d="M588 1096Q590 1102 590 1104Q590 1112 584 1115T572 1119Q568 1119 567 1118H377L346 987Q333 943 315 913T274 863T226 836T176 827Q147 827 123 837T80 865T52 909T41 967Q41 1016 55 1073T99 1180T172
1263T276 1296H1171Q1217 1296 1235 1278T1253 1232Q1253 1212 1246 1189T1227 1143L790 266Q777 239 777 221Q777 208 783 201T800 190T824 185T850 184Q917 184 951 205T1002 259T1027 329T1050 399T1094 453T1184 475Q1242 475 1280 438T1319 334Q1319 286 1305
228T1262 119T1189 34T1085 0H166Q150 0 135 2T109 12T90 32T83 64Q83 82 90 107T114 166L588 1096Z" />
<glyph unicode="{" glyph-name="braceleft" horiz-adv-x="1149" d="M3 1026Q59 1026 96 1044T155 1097T186 1182T195 1298V1384Q195 1525 242 1637T370 1828T555 1947T775 1989Q880 1989 986 1954T1193 1843L1150 1724Q1123 1730 1097 1734Q1074 1738 1047 1741T994
1745Q938 1745 901 1727T842 1674T811 1588T802 1473V1386Q802 1311 789 1252T753 1146T702 1066T644 1008Q574 952 486 930Q574 907 644 851Q674 827 702 793T752 713T788 607T802 473V387Q802 322 811 272T842 187T901 134T994 115Q1020 115 1047 118T1097 125Q1123
129 1150 135L1193 16Q1093 -58 987 -93T775 -129Q660 -129 555 -88T370 32T243 222T195 475V561Q195 625 186 676T155 762T96 815T3 834V1026Z" />
<glyph unicode="|" glyph-name="bar" horiz-adv-x="750" d="M375 -301Q308 -301 265 -280T198 -226T164 -155T154 -84V1671Q154 1707 163 1745T197 1815T265 1867T375 1888Q442 1888 484 1868T552 1816T586 1746T596 1671V-84Q596 -117 587 -155T552 -225T485
-279T375 -301Z" />
<glyph unicode="}" glyph-name="braceright" horiz-adv-x="1147" d="M1146 834Q1090 834 1053 816T993 762T962 676T953 561V475Q953 334 906 222T779 32T594 -87T374 -129Q268 -129 162 -94T-44 16L-1 135Q25 129 51 125Q74 121 101 118T154 115Q210 115 247
133T307 186T338 271T347 387V473Q347 548 360 607T396 712T446 793T504 851Q574 907 662 930Q574 952 504 1008Q474 1032 446 1066T396 1146T361 1251T347 1386V1473Q347 1537 338 1588T307 1673T248 1726T154 1745Q128 1745 101 1742T51 1734Q25 1730 -1 1724L-44
1843Q56 1918 162 1953T374 1989Q489 1989 594 1948T778 1828T905 1638T953 1384V1298Q953 1233 962 1183T993 1098T1052 1045T1146 1026V834Z" />
<glyph unicode="~" glyph-name="asciitilde" horiz-adv-x="1411" d="M1391 1186Q1356 1057 1310 973T1207 840T1088 772T955 752Q879 752 798 769T636 807T473 845T313 862Q279 862 249 856T195 836T159 798T145 741Q145 737 149 737L27 860Q70 989 118 1073T220
1206T331 1275T452 1295Q524 1295 602 1277T765 1237T942 1197T1134 1178Q1164 1178 1189 1184T1232 1206T1260 1245T1270 1304Q1270 1309 1268 1311L1391 1186Z" />
<glyph unicode="&#xa0;" glyph-name="uni00A0" horiz-adv-x="500" />
<glyph unicode="&#xa1;" glyph-name="exclamdown" horiz-adv-x="820" d="M78 227Q78 277 95 314T140 379T203 425T275 455T345 470T404 475Q430 475 464 471T535 455T606 426T668 380T712 315T729 227Q729 178 713 140T669 75T606 30T535 0T465 -15T404 -20Q379
-20 346 -16T276 0T204 29T141 75T96 139T78 227ZM717 1278Q691 1145 673 1041T639 858T606 724T562 634T499 583T406 567Q356 567 323 583T267 634T227 724T193 859T156 1043T106 1282Q98 1314 94 1345T90 1405Q90 1460 106 1507T159 1589T256 1643T406 1663Q499
1663 561 1643T660 1588T714 1505T730 1399Q730 1370 727 1340T717 1278Z" />
<glyph unicode="&#xa2;" glyph-name="cent" horiz-adv-x="1351" d="M754 -289Q729 -288 712 -280T685 -260T671 -233T667 -204Q667 -200 667 -196T668 -188Q669 -180 673 -136T683 -19Q577 -15 489 13T329 89T205 199T117 335T64 488T46 651Q46 736 65 820T122
980T217 1121T350 1233T521 1308T730 1335Q747 1335 762 1335T794 1333L812 1552Q812 1566 816 1580T830 1607T855 1627T894 1635Q899 1635 904 1635T914 1634Q941 1633 957 1625T984 1605T997 1577T1001 1547V1536Q1000 1528 995 1465T982 1301Q1062 1276 1120
1236T1215 1145T1269 1035T1287 913Q1287 878 1276 851T1247 805T1202 776T1146 766Q1120 766 1093 775T1042 804T999 856T970 934Q965 954 955 975L903 335Q927 332 953 332Q989 332 1027 339T1101 357T1167 380T1217 403Q1233 412 1247 412Q1270 412 1284 393T1298
349Q1298 334 1292 319Q1269 260 1230 208T1139 114T1020 42T876 -4L874 -24Q870 -72 867 -111Q865 -144 863 -173T861 -205Q859 -219 854 -234T839 -261T812 -282T772 -290Q767 -290 763 -290T754 -289ZM648 803Q648 682 665 593T721 446L772 1063Q708 1046 678
979T648 803Z" />
<glyph unicode="&#xa3;" glyph-name="sterling" horiz-adv-x="1673" d="M909 360Q909 314 920 286T949 243T988 222T1028 217Q1029 217 1042 217T1077 218T1127 220T1188 225L1229 399Q1246 456 1270 495T1322 559T1382 595T1446 606Q1483 606 1515 594T1570 558T1607
500T1620 424Q1620 383 1612 335T1587 240T1545 150T1487 73T1411 20T1317 0H569Q451 0 360 13T206 55T111 129T78 236Q78 260 90 270T119 286T157 297T195 314T225 351T237 420V874Q237 1008 261 1113T331 1299T441 1435T585 1526T755 1577T948 1593Q1095 1593
1211 1560T1408 1471T1530 1345T1573 1198Q1573 1153 1556 1120T1511 1066T1448 1034T1376 1024Q1341 1024 1305 1032T1239 1057T1190 1097T1171 1153Q1171 1217 1165 1261T1144 1332T1105 1370T1046 1382Q1008 1382 982 1369T939 1327T916 1251T909 1137V360ZM51
856Q51 897 64 923T97 964T140 985T184 991H1143Q1164 991 1187 985T1230 964T1261 923T1274 856Q1274 815 1262 789T1230 748T1188 727T1143 721H184Q163 721 140 727T97 748T64 789T51 856Z" />
<glyph unicode="&#xa4;" glyph-name="currency" horiz-adv-x="1290" d="M622 381Q521 381 439 406L308 219Q294 200 270 184T213 167Q193 167 173 174Q167 177 159 180T143 190Q112 209 100 231T88 275Q88 284 90 292T95 309Q99 320 103 328T114 344L241 522Q162
598 124 694T85 891Q85 988 121 1078T233 1237L116 1405L95 1442Q90 1457 90 1473Q90 1500 109 1529T179 1577Q199 1584 219 1584Q251 1584 273 1568T310 1532Q313 1528 319 1517T339 1485T375 1431T433 1352Q486 1369 545 1377T673 1386Q779 1386 865 1356L986
1532Q1000 1552 1023 1568T1078 1584Q1097 1584 1117 1577Q1168 1558 1187 1530T1207 1474Q1207 1455 1201 1442L1181 1405L1062 1233Q1128 1164 1161 1077T1195 897Q1195 797 1158 703T1046 537Q1082 488 1106 454T1146 396T1170 361T1183 344Q1189 336 1193 328T1201
309Q1208 294 1208 274Q1208 253 1196 231T1154 190Q1146 184 1138 181T1124 174Q1104 167 1084 167Q1051 167 1027 183T988 219L849 416Q750 381 622 381ZM655 569Q679 569 696 584T723 627T738 694T743 782Q743 824 743 871T739 965T729 1054T710 1128T678 1179T632
1198Q606 1198 588 1183T558 1142T541 1078T536 997Q536 956 537 908T543 813T556 721T577 643T610 589T655 569Z" />
<glyph unicode="&#xa5;" glyph-name="yen" horiz-adv-x="1810" d="M259 780Q259 808 267 825T289 853T317 866T347 870H493L279 1161Q251 1199 223 1221T167 1255T117 1275T76 1291T48 1313T38 1350Q38 1474 166 1529T539 1585Q657 1585 749 1572T903 1530T998
1457T1031 1350Q1031 1322 1013 1309T974 1287T934 1269T916 1238Q916 1226 924 1208T951 1165L1057 1004Q1070 989 1081 983T1102 977Q1117 977 1129 987T1154 1014L1268 1165Q1284 1190 1290 1207T1297 1237Q1297 1253 1288 1262T1266 1277T1237 1288T1208 1300T1185
1319T1176 1350Q1176 1398 1195 1440T1251 1515T1344 1566T1473 1585Q1547 1585 1603 1566T1696 1515T1753 1441T1772 1350Q1772 1326 1760 1314T1728 1293T1680 1278T1623 1258T1563 1223T1504 1161L1296 870H1461Q1476 870 1491 867T1519 853T1540 826T1549 780Q1549
753 1541 736T1520 710T1492 696T1461 692H1232V592H1461Q1476 592 1491 588T1519 574T1540 547T1549 502Q1549 475 1541 458T1520 431T1492 418T1461 414H1232Q1233 372 1246 349T1276 314T1314 297T1352 287T1381 270T1393 236Q1393 174 1361 129T1265 56T1108
14T892 0Q773 0 681 13T526 55T431 129T398 236Q398 260 409 270T439 286T477 297T516 313T546 348T560 414H347Q333 414 318 417T289 431T268 458T259 502Q259 529 267 546T289 574T317 588T347 592H560V692H347Q333 692 318 696T289 709T268 736T259 780Z" />
<glyph unicode="&#xa6;" glyph-name="brokenbar" horiz-adv-x="734" d="M367 -301Q300 -301 257 -280T190 -226T156 -155T146 -84V395Q146 431 155 469T189 539T257 591T367 612Q434 612 476 592T544 540T578 470T588 395V-84Q588 -117 579 -155T544 -225T477
-279T367 -301ZM367 977Q300 977 257 998T190 1052T156 1123T146 1194V1673Q146 1709 155 1747T189 1817T257 1869T367 1890Q434 1890 476 1870T544 1818T578 1748T588 1673V1194Q588 1161 579 1123T544 1053T477 999T367 977Z" />
<glyph unicode="&#xa7;" glyph-name="section" horiz-adv-x="1085" d="M678 1386Q678 1403 645 1418T543 1434Q497 1434 470 1428T429 1411T411 1387T407 1360Q407 1337 433 1321T502 1289T600 1258T712 1221T825 1170T922 1100T991 1002T1018 870Q1018 819 1004
776T965 699T905 638T827 592Q866 569 901 541T962 476T1003 394T1018 293Q1018 204 978 142T871 40T721 -18T549 -37Q460 -37 375 -20T222 29T115 106T74 207Q74 240 84 264T111 305T150 330T196 338Q247 338 273 324T315 287T340 239T367 191T414 154T500 139Q548
139 576 147T620 167T640 193T645 221Q645 236 621 246T559 267T470 289T369 321T267 368T179 439T116 539T92 676Q92 782 137 847T258 950Q223 972 193 1000T141 1066T105 1149T92 1253Q92 1348 129 1413T229 1518T375 1575T551 1593Q655 1593 730 1574T853 1523T923
1454T946 1378Q946 1352 936 1329T905 1289T856 1261T788 1251Q747 1251 720 1255T676 1268T654 1287T647 1313Q647 1327 652 1334T662 1348T673 1363T678 1386ZM645 772Q645 779 638 787T618 803T591 818T560 833Q522 849 475 864Q456 851 441 837Q428 825 418
811T407 784Q407 771 428 755T475 724Q505 707 543 690Q571 700 594 713Q613 724 629 739T645 772Z" />
<glyph unicode="&#xa8;" glyph-name="dieresis" horiz-adv-x="1512" d="M40 309Q40 384 70 432T145 507T238 546T324 557Q364 557 413 546T506 508T579 432T609 309Q609 235 580 187T507 111T414 72T324 61Q287 61 238 72T145 111T71 187T40 309ZM902 309Q902
384 932 432T1007 507T1101 546T1187 557Q1227 557 1276 546T1368 508T1441 432T1471 309Q1471 235 1442 187T1369 111T1276 72T1187 61Q1150 61 1101 72T1008 111T933 187T902 309Z" />
<glyph unicode="&#xa9;" glyph-name="copyright" horiz-adv-x="1997" d="M1011 272Q862 272 748 321T557 451T439 640T399 864Q399 999 434 1118T549 1326T759 1466T1081 1518Q1165 1518 1241 1496T1374 1431T1466 1329T1500 1194Q1500 1132 1464 1098T1373 1063Q1349
1063 1326 1071T1281 1096T1243 1142T1216 1212Q1202 1272 1170 1302T1099 1333Q1071 1333 1044 1316T994 1263T959 1172T945 1040Q945 940 956 866T988 739T1035 652T1094 599T1159 573T1226 565Q1260 565 1292 573T1351 593T1398 619T1427 645Q1451 674 1476
674Q1496 674 1511 652T1527 592Q1527 531 1490 474T1384 371T1221 299T1011 272ZM50 891Q50 1019 84 1136T181 1354T331 1537T524 1678T750 1768T999 1800Q1127 1800 1247 1768T1473 1678T1666 1538T1815 1354T1912 1136T1947 891Q1947 763 1913 646T1816 427T1666
244T1474 104T1248 14T999 -18Q871 -18 751 13T525 103T332 244T182 427T85 645T50 891ZM290 891Q290 793 315 703T387 534T497 390T641 279T810 208T999 182Q1097 182 1187 207T1356 279T1499 390T1610 533T1681 702T1707 891Q1707 989 1682 1079T1610 1248T1500
1391T1357 1502T1188 1573T999 1599Q901 1599 811 1574T641 1502T498 1392T387 1249T316 1080T290 891Z" />
<glyph unicode="&#xaa;" glyph-name="ordfeminine" horiz-adv-x="1600" d="M730 494Q763 494 783 504T815 534T829 582T833 647Q833 678 832 726T830 820Q828 874 827 932Q813 934 801 935T776 937Q725 937 691 917T635 860T606 774T597 666Q597 631 601 600T619
545T659 508T730 494ZM1212 289Q1161 289 1111 294T1015 317T931 366T866 451Q846 404 802 369T701 311T582 276T462 264Q361 264 285 288T157 356T79 463T53 602Q53 693 83 774T187 917T384 1013T692 1049H829Q829 1160 822 1233T798 1349T758 1409T700 1426Q662
1426 637 1403T596 1337T574 1232T567 1092Q524 1092 477 1093T383 1101T295 1119T221 1153T170 1208T151 1288Q151 1354 185 1413T291 1516T473 1587T735 1614Q912 1614 1040 1578T1250 1470T1372 1289T1412 1032V678Q1412 635 1423 611T1451 575T1488 557T1524
547T1552 532T1564 500Q1564 400 1475 345T1212 289Z" />
<glyph unicode="&#xab;" glyph-name="guillemotleft" horiz-adv-x="1944" d="M27 639Q27 705 42 753T93 839T184 911T324 979T518 1056T772 1153Q797 1161 816 1165T854 1169Q888 1169 914 1157T958 1125T984 1079T993 1026Q993 991 974 961T917 900T819 834T680
754L475 639L680 524Q760 479 819 444T916 378T974 317T993 252Q993 224 984 198T958 152T915 119T854 106Q836 106 817 111T772 125Q629 180 518 221T324 298T185 367T93 438T43 525T27 639ZM914 639Q914 705 929 753T980 839T1071 911T1211 979T1405 1056T1659
1153Q1684 1161 1703 1165T1741 1169Q1775 1169 1801 1157T1845 1125T1871 1079T1880 1026Q1880 991 1861 961T1804 900T1706 834T1567 754L1362 639L1567 524Q1647 479 1706 444T1803 378T1861 317T1880 252Q1880 224 1871 198T1845 152T1802 119T1741 106Q1723
106 1704 111T1659 125Q1516 180 1405 221T1211 298T1072 367T980 438T930 525T914 639Z" />
<glyph unicode="&#xac;" glyph-name="logicalnot" horiz-adv-x="1163" d="M52 687Q52 721 62 741T92 770T138 782T199 785H959Q998 785 1020 775T1054 746T1067 697T1070 628V380Q1070 347 1069 320T1058 273T1029 244T972 233Q937 233 918 243T889 273T877 319T874
380V589H199Q166 589 139 590T92 601T63 630T52 687Z" />
<glyph unicode="&#xad;" glyph-name="uni00AD" horiz-adv-x="803" d="M-95 469Q-95 503 -85 523T-55 552T-9 564T52 567H766Q802 567 831 566T880 555T912 526T923 469Q923 432 912 412T881 383T831 373T766 371H52Q19 371 -8 372T-55 383T-84 412T-95 469Z" />
<glyph unicode="&#xae;" glyph-name="registered" horiz-adv-x="1997" d="M50 891Q50 1019 84 1136T181 1354T331 1537T524 1678T750 1768T999 1800Q1127 1800 1247 1768T1473 1678T1666 1538T1815 1354T1912 1136T1947 891Q1947 763 1913 646T1816 427T1666 244T1474
104T1248 14T999 -18Q871 -18 751 13T525 103T332 244T182 427T85 645T50 891ZM290 891Q290 793 315 703T387 534T497 390T641 279T810 208T999 182Q1097 182 1187 207T1356 279T1499 390T1610 533T1681 702T1707 891Q1707 989 1682 1079T1610 1248T1500 1391T1357
1502T1188 1573T999 1599Q901 1599 811 1574T641 1502T498 1392T387 1249T316 1080T290 891ZM913 696Q913 663 927 651T958 634T989 623T1003 600Q1003 531 931 500T722 469Q591 469 521 500T450 600Q450 620 464 624T495 634T526 652T540 702V1122Q540 1147 534
1160T517 1181T495 1190T473 1196T457 1205T450 1225Q450 1294 523 1325T730 1356H1030Q1163 1356 1251 1335T1393 1279T1469 1198T1492 1102Q1492 1066 1485 1032T1460 968T1408 911T1324 864L1449 678Q1466 652 1488 635T1531 608Q1554 597 1578 590Q1578 554
1562 530T1509 490T1416 468T1275 461Q1218 461 1180 478T1116 523T1073 585T1040 655L1027 686L980 819H974Q955 819 943 819T913 821V696ZM990 905Q1040 905 1064 937T1089 1028V1039Q1089 1076 1087 1113T1075 1180T1044 1228T984 1247Q961 1247 948 1239T927
1218T917 1188T915 1153V911Q915 909 923 908Q930 906 945 906T990 905Z" />
<glyph unicode="&#xaf;" glyph-name="overscore" horiz-adv-x="1250" d="M41 283Q41 350 62 392T117 460T188 494T259 504H992Q1028 504 1066 495T1136 460T1188 393T1209 283Q1209 216 1189 173T1137 105T1067 71T992 61H259Q226 61 188 70T117 105T63 173T41 283Z" />
<glyph unicode="&#xb0;" glyph-name="degree" horiz-adv-x="995" d="M313 1192Q313 1138 332 1104T379 1049T438 1022T494 1014Q518 1014 549 1021T607 1049T653 1103T672 1192Q672 1246 654 1281T608 1336T549 1364T494 1372Q470 1372 439 1365T380 1337T333
1281T313 1192ZM39 1194Q39 1274 62 1334T122 1439T208 1513T307 1560T407 1585T496 1593Q539 1593 589 1586T691 1561T789 1514T873 1440T932 1335T954 1194Q954 1115 932 1055T874 950T790 877T691 830T590 805T496 797Q457 797 408 804T308 829T209 876T123
950T62 1054T39 1194Z" />
<glyph unicode="&#xb1;" glyph-name="plusminus" horiz-adv-x="1343" d="M134 214Q134 248 144 268T174 297T220 309T281 312H995Q1031 312 1060 311T1109 300T1141 271T1152 214Q1152 177 1141 157T1110 128T1060 118T995 116H281Q248 116 221 117T174 128T145
157T134 214ZM675 419Q627 419 596 434T547 473T522 524T515 575V925H178Q156 925 134 928T93 943T64 978T52 1042Q52 1083 63 1107T93 1143T133 1158T178 1161H515V1511Q515 1537 522 1565T547 1615T596 1652T675 1667Q723 1667 753 1653T801 1616T826 1565T833
1511V1161H1175Q1198 1161 1220 1158T1260 1143T1289 1107T1300 1042Q1300 1001 1289 978T1261 943T1221 928T1175 925H833V575Q833 551 826 524T802 474T754 435T675 419Z" />
<glyph unicode="&#xb2;" glyph-name="uni00B2" horiz-adv-x="1131" d="M80 162Q124 221 177 288T283 425T386 565T474 702T536 828T559 936Q559 967 548 991T512 1033T447 1059T350 1069Q276 1069 215 1052T104 1008Q91 999 74 999Q62 999 52 1007T33 1028T21
1054T16 1081Q16 1090 19 1096T27 1108Q73 1160 134 1200T265 1268T411 1310T565 1325Q673 1325 758 1296T903 1216T993 1097T1024 950Q1024 867 999 784T917 617T767 453T539 293Q653 293 725 303T841 327T905 359T936 391T952 416T971 426Q1017 426 1048 396T1079
315Q1079 276 1070 222T1037 119T969 35T856 0H174Q142 0 120 8T85 29T65 59T59 94Q59 114 65 131T80 162Z" />
<glyph unicode="&#xb3;" glyph-name="uni00B3" horiz-adv-x="1274" d="M911 -319Q826 -319 742 -304T580 -259T436 -185T319 -84Q314 -78 311 -71T307 -53Q307 -39 312 -23T326 7T346 30T371 39Q390 39 403 31Q431 16 465 3T537 -19T615 -34T694 -39Q756 -39 802
-19T880 35T926 111T942 195Q942 232 929 267T889 331T825 377T737 395Q715 395 690 386T643 377Q626 377 611 386T585 411T568 443T561 477Q561 497 571 512T604 545Q655 579 691 616T750 690T783 765T794 838Q794 879 780 914T739 976T675 1017T590 1032Q534
1032 475 1011T352 942Q341 937 332 936T315 934Q284 934 273 954T262 999Q262 1009 263 1018T266 1034Q292 1106 348 1160T479 1251T640 1306T815 1325Q910 1325 999 1304T1157 1239T1267 1129T1309 975Q1309 928 1299 881T1261 790T1186 706T1065 631Q1173 603
1253 554T1385 443T1463 308T1489 162Q1489 72 1451 -14T1340 -168T1158 -277T911 -319Z" />
<glyph unicode="&#xb4;" glyph-name="acute" horiz-adv-x="805" d="M18 158Q18 179 24 203T45 261T85 340T149 446Q197 522 241 601T331 744T431 850T552 891Q606 891 649 871T724 818T773 744T790 662Q790 616 771 573T718 488T643 408T554 333T463 265T378 203Q277
127 213 94T114 61Q96 61 79 70T48 93T26 125T18 158Z" />
<glyph unicode="&#xb5;" glyph-name="uni00B5" horiz-adv-x="1998" d="M1189 911Q1189 952 1178 975T1151 1009T1115 1025T1080 1035T1052 1049T1041 1081Q1041 1195 1159 1245T1500 1296Q1575 1296 1626 1282T1710 1243T1762 1183T1789 1106T1799 1015T1801 915V379Q1801
339 1811 317T1838 284T1873 268T1908 259T1935 245T1946 213Q1946 99 1831 49T1500 -2Q1447 -2 1406 6T1335 27T1282 56T1245 91Q1210 131 1201 184Q1149 125 1078 79Q1048 59 1010 41T927 8T830 -16T718 -25Q644 -25 593 -3T510 46Q472 77 449 117Q449 5 454
-95T466 -276T478 -418T484 -510Q484 -541 478 -568T454 -617T407 -650T333 -662Q288 -662 260 -650T215 -617T192 -569T185 -510Q185 -489 187 -450T193 -362T201 -256T209 -142T215 -29T218 72V903Q218 947 207 970T179 1006T143 1024T107 1034T79 1049T68 1081Q68
1195 186 1245T527 1296Q626 1296 685 1272T775 1207T815 1108T824 985V491Q824 429 833 381T865 298T925 247T1017 229Q1052 229 1083 240T1137 271T1173 318T1187 379L1189 911Z" />
<glyph unicode="&#xb6;" glyph-name="paragraph" horiz-adv-x="1483" d="M886 59Q886 37 880 16T861 -23T825 -50T768 -61Q735 -61 713 -51T676 -25T655 13T649 59V739Q586 739 517 749T381 781T252 841T145 933T71 1061T43 1231Q43 1351 87 1434T204 1570T371
1653T566 1697T766 1713T948 1716Q1163 1716 1278 1666T1394 1501Q1394 1479 1384 1470T1357 1455T1322 1446T1287 1431T1260 1397T1249 1335V55Q1249 33 1242 12T1221 -25T1184 -51T1130 -61Q1096 -61 1074 -51T1037 -23T1017 15T1011 59V1554H886V59Z" />
<glyph unicode="&#xb7;" glyph-name="middot" horiz-adv-x="742" d="M46 862Q46 912 63 949T108 1014T171 1060T243 1090T313 1105T372 1110Q398 1110 432 1106T503 1090T574 1061T636 1015T680 950T697 862Q697 813 681 775T637 710T574 664T503 634T433 619T372
614Q347 614 314 618T244 634T172 663T109 709T64 774T46 862Z" />
<glyph unicode="&#xb8;" glyph-name="cedilla" horiz-adv-x="693" d="M23 -326Q42 -338 70 -352T131 -380T198 -401T265 -410Q290 -410 312 -404T351 -381T376 -340T386 -276Q386 -247 374 -216T335 -151T265 -80T157 0H365Q424 -13 478 -40T573 -106T638 -194T662
-301Q662 -381 634 -440T559 -537T450 -595T322 -614Q242 -614 164 -587T23 -506V-326Z" />
<glyph unicode="&#xb9;" glyph-name="uni00B9" horiz-adv-x="1045" d="M231 877Q231 922 219 946T190 982T152 1000T114 1010T84 1026T72 1061Q72 1121 111 1165T215 1238T363 1282T534 1296Q647 1296 709 1277T800 1217T836 1118T842 977V424Q842 379 854 354T884
316T922 298T961 287T991 271T1003 236Q1003 177 963 133T856 59T706 15T534 0Q447 0 364 14T216 58T112 131T72 236Q72 260 84 270T113 286T151 297T189 314T219 351T231 420V877Z" />
<glyph unicode="&#xba;" glyph-name="ordmasculine" horiz-adv-x="1464" d="M1674 694Q1674 513 1616 378T1459 154T1234 20T968 -25Q834 -25 714 15T502 137T358 339T304 621Q304 798 362 930T517 1150T742 1281T1009 1325Q1142 1325 1262 1285T1474 1166T1620
968T1674 694ZM843 745Q843 614 859 511T900 334T957 223T1019 184Q1041 184 1061 207T1098 279T1123 403T1133 584Q1133 707 1117 806T1076 974T1019 1081T957 1118Q934 1118 914 1096T877 1029T852 913T843 745Z" />
<glyph unicode="&#xbb;" glyph-name="guillemotright" horiz-adv-x="1709" d="M347 795Q280 859 226 909T134 1000T75 1078T54 1149Q54 1176 63 1201T89 1247T133 1280T194 1292Q237 1292 292 1268T408 1205T535 1116T665 1012Q722 965 775 919T869 827T934 734T959
639Q959 591 935 545T869 452T775 359T665 266Q601 213 536 163T409 73T292 10T194 -14Q159 -14 133 -2T90 30T63 76T54 129Q54 164 74 200T133 277T226 369T347 483L511 639L347 795ZM1093 795Q1026 859 972 909T880 1000T821 1078T800 1149Q800 1176 809 1201T835
1247T878 1280T939 1292Q982 1292 1037 1268T1153 1205T1280 1116T1410 1012Q1467 965 1520 919T1614 827T1680 734T1705 639Q1705 591 1681 545T1615 452T1520 359T1410 266Q1346 213 1281 163T1154 73T1037 10T939 -14Q904 -14 878 -2T835 30T809 76T800 129Q800
164 820 200T879 277T972 369T1093 483L1256 639L1093 795Z" />
<glyph unicode="&#xbc;" glyph-name="onequarter" horiz-adv-x="2180" d="M183 1102Q183 1133 175 1150T155 1176T128 1188T101 1195T80 1206T72 1231Q72 1272 99 1303T172 1354T276 1385T396 1395Q476 1395 519 1389T583 1364T607 1311T611 1219V784Q611 752
619 735T640 708T667 696T694 688T714 677T723 653Q723 612 695 581T621 529T516 498T396 487Q334 487 276 497T173 528T100 580T72 653Q72 669 80 676T100 688T127 695T154 708T175 734T183 782V1102ZM549 51Q511 79 496 108T480 166Q480 194 491 216T517 258Q524
268 549 299T611 378T694 486T793 612T899 747T1004 882T1102 1007T1184 1113T1245 1191T1275 1230Q1295 1256 1327 1275T1405 1294Q1440 1294 1468 1280T1517 1246T1550 1205T1565 1171Q1567 1165 1568 1158T1569 1145Q1567 1117 1557 1094T1530 1053Q1524 1045
1500 1014T1440 937T1358 831T1260 706T1154 571T1048 436T949 311T865 204T803 126T770 85Q761 74 749 62T722 39T687 23T646 16Q624 16 598 24T549 51ZM1936 264H1942Q1993 264 2031 262T2094 247T2131 206T2143 125Q2143 78 2131 53T2094 16T2031 2T1942 0H1936V-27Q1936
-59 1944 -76T1965 -102T1992 -114T2019 -122T2039 -133T2048 -158Q2048 -199 2020 -230T1945 -282T1841 -313T1721 -324Q1659 -324 1601 -314T1498 -283T1425 -231T1397 -158Q1397 -141 1405 -134T1425 -122T1452 -115T1479 -103T1500 -77T1508 -29V0H1258Q1193
0 1148 2T1076 14T1036 40T1024 88V124Q1024 159 1031 203T1072 293L1508 905Q1635 905 1717 893T1848 853T1916 781T1936 672V264ZM1508 604Q1469 550 1429 491T1357 381Q1319 322 1283 264H1508V604Z" />
<glyph unicode="&#xbd;" glyph-name="onehalf" horiz-adv-x="2276" d="M176 1102Q176 1133 168 1150T148 1176T121 1188T94 1195T73 1206T65 1231Q65 1272 92 1303T165 1354T269 1385T389 1395Q469 1395 512 1389T576 1364T600 1311T604 1219V784Q604 752 612
735T633 708T660 696T687 688T707 677T716 653Q716 612 688 581T614 529T509 498T389 487Q327 487 269 497T166 528T93 580T65 653Q65 669 73 676T93 688T120 695T147 708T168 734T176 782V1102ZM542 51Q504 79 489 108T473 166Q473 194 484 216T510 258Q517 268
542 299T604 378T687 486T786 612T892 747T997 882T1095 1007T1177 1113T1238 1191T1268 1230Q1288 1256 1320 1275T1398 1294Q1433 1294 1461 1280T1510 1246T1543 1205T1558 1171Q1560 1165 1561 1158T1562 1145Q1560 1117 1550 1094T1523 1053Q1517 1045 1493
1014T1433 937T1351 831T1253 706T1147 571T1041 436T942 311T858 204T796 126T763 85Q754 74 742 62T715 39T680 23T639 16Q617 16 591 24T542 51ZM1828 -223Q1769 -223 1711 -213T1598 -181T1497 -130T1415 -59Q1412 -54 1410 -49T1407 -37Q1407 -28 1410 -17T1420
4T1434 20T1452 27Q1458 27 1463 27T1474 23Q1512 0 1567 -13T1677 -27Q1721 -27 1753 -13T1808 25T1840 77T1851 135Q1851 161 1842 186T1814 232T1769 264T1708 276Q1692 276 1674 270T1642 264Q1630 264 1620 270T1602 287T1590 310T1585 334Q1585 359 1613
381Q1686 429 1716 483T1747 586Q1747 615 1737 640T1709 683T1664 712T1605 723Q1565 723 1524 709T1437 659Q1422 653 1413 653Q1391 653 1384 667T1376 700Q1376 707 1376 713T1378 725Q1396 775 1435 813T1527 876T1639 915T1761 928Q1828 928 1890 913T2001
868T2078 791T2107 682Q2107 649 2100 616T2073 552T2021 493T1937 442Q2013 422 2069 388T2161 310T2216 216T2234 113Q2234 50 2208 -10T2129 -118T2002 -194T1828 -223Z" />
<glyph unicode="&#xbe;" glyph-name="threequarters" horiz-adv-x="2495" d="M520 264Q461 264 402 275T289 307T188 358T106 428Q103 433 101 438T98 451Q98 460 101 471T111 491T125 507T143 514Q149 514 154 514T166 510Q204 488 259 475T368 461Q412 461 444
475T499 513T531 565T542 625Q542 650 533 675T505 719T460 751T399 764Q384 764 367 758T333 752Q321 752 311 758T293 775T281 797T276 821Q276 847 306 867Q377 916 407 971T438 1073Q438 1102 428 1127T400 1170T355 1199T297 1210Q256 1210 215 1196T129 1147Q112
1141 104 1141Q82 1141 75 1155T67 1188Q67 1194 67 1200T69 1210Q87 1261 126 1299T218 1363T330 1402T452 1415Q519 1415 581 1400T692 1355T769 1278T798 1169Q798 1136 791 1103T765 1040T713 981T628 930Q704 910 760 876T852 797T907 703T925 600Q925 537
899 477T820 369T693 293T520 264ZM839 51Q801 79 786 108T770 166Q770 194 781 216T807 258Q814 268 839 299T901 378T984 486T1083 612T1189 747T1294 882T1392 1007T1474 1113T1535 1191T1565 1230Q1585 1256 1617 1275T1695 1294Q1730 1294 1758 1280T1807
1246T1840 1205T1855 1171Q1857 1165 1858 1158T1859 1145Q1857 1117 1847 1094T1820 1053Q1814 1045 1790 1014T1730 937T1648 831T1550 706T1444 571T1338 436T1239 311T1155 204T1093 126T1060 85Q1051 74 1039 62T1012 39T977 23T936 16Q914 16 888 24T839
51ZM2252 264H2259Q2310 264 2348 262T2410 247T2447 206T2459 125Q2459 78 2447 53T2411 16T2348 2T2259 0H2252V-27Q2252 -59 2260 -76T2281 -102T2308 -114T2335 -122T2356 -133T2365 -158Q2365 -199 2337 -230T2262 -282T2157 -313T2037 -324Q1976 -324 1918
-314T1815 -283T1742 -231T1714 -158Q1714 -141 1722 -134T1742 -122T1769 -115T1795 -103T1816 -77T1824 -29V0H1575Q1509 0 1465 2T1393 14T1353 40T1341 88Q1341 96 1341 106T1340 128Q1340 163 1348 205T1388 293L1824 905Q1951 905 2033 893T2164 853T2232
781T2252 672V264ZM1824 604Q1786 550 1746 491T1673 381Q1634 322 1599 264H1824V604Z" />
<glyph unicode="&#xbf;" glyph-name="questiondown" horiz-adv-x="1280" d="M556 428Q515 428 487 444T441 483T417 533T409 582Q409 692 426 763T470 883T526 962T583 1024T626 1091T644 1184Q644 1224 634 1253T599 1303T532 1333T427 1343Q339 1343 269 1323T141
1272Q121 1264 104 1264Q90 1264 78 1273T56 1297T42 1328T36 1360Q36 1371 40 1378T50 1393Q103 1453 174 1500T327 1579T499 1628T679 1645Q788 1645 887 1612T1062 1519T1183 1378T1228 1200Q1228 1134 1206 1081T1148 984T1066 904T972 837T878 776T796 717T738
654T716 582Q716 533 700 503T660 456T608 434T556 428ZM325 164Q325 202 338 230T372 280T420 315T474 337T527 348T571 352Q602 352 644 344T725 315T791 258T818 164Q818 126 806 97T773 47T726 13T672 -9T618 -21T571 -25Q552 -25 527 -22T475 -10T421 12T373
47T338 97T325 164Z" />
<glyph unicode="&#xc0;" glyph-name="Agrave" horiz-adv-x="1790" d="M548 641H861L707 1223L548 641ZM290 0Q216 0 160 19T67 70T10 145T-9 236Q-9 260 2 270T31 287T71 298T117 316T161 353T197 424L443 1174Q450 1195 453 1211T457 1239Q457 1270 440 1281T403
1298T365 1312T348 1347Q348 1354 349 1358Q359 1427 404 1472T523 1544T699 1582T922 1593Q1025 1593 1119 1586T1290 1553T1417 1482T1484 1358Q1486 1348 1486 1344Q1486 1327 1477 1319T1453 1305T1423 1297T1393 1286T1370 1266T1360 1228Q1360 1207 1369
1174L1590 424Q1603 379 1623 354T1665 316T1710 298T1751 287T1780 271T1791 236Q1791 111 1662 56T1289 0Q1171 0 1080 13T925 55T830 129T797 236Q797 257 806 267T830 283T861 293T892 304T915 326T925 368Q925 391 918 420L902 489H496L472 420Q459 382 459
358Q459 335 468 323T492 304T523 293T554 284T577 267T587 236Q587 188 568 146T512 71T419 19T290 0ZM1090 1796Q1090 1780 1082 1763T1061 1732T1030 1708T994 1699Q958 1699 895 1732T729 1841Q690 1870 645 1902T554 1971T466 2045T390 2125T338 2210T318
2300Q318 2341 335 2382T383 2455T457 2508T555 2529Q623 2529 676 2488T776 2383T866 2239T958 2084Q997 2023 1022 1978T1063 1900T1084 1842T1090 1796Z" />
<glyph unicode="&#xc1;" glyph-name="Aacute" horiz-adv-x="1790" d="M548 641H861L707 1223L548 641ZM290 0Q216 0 160 19T67 70T10 145T-9 236Q-9 260 2 270T31 287T71 298T117 316T161 353T197 424L443 1174Q450 1195 453 1211T457 1239Q457 1270 440 1281T403
1298T365 1312T348 1347Q348 1354 349 1358Q359 1427 404 1472T523 1544T699 1582T922 1593Q1025 1593 1119 1586T1290 1553T1417 1482T1484 1358Q1486 1348 1486 1344Q1486 1327 1477 1319T1453 1305T1423 1297T1393 1286T1370 1266T1360 1228Q1360 1207 1369
1174L1590 424Q1603 379 1623 354T1665 316T1710 298T1751 287T1780 271T1791 236Q1791 111 1662 56T1289 0Q1171 0 1080 13T925 55T830 129T797 236Q797 257 806 267T830 283T861 293T892 304T915 326T925 368Q925 391 918 420L902 489H496L472 420Q459 382 459
358Q459 335 468 323T492 304T523 293T554 284T577 267T587 236Q587 188 568 146T512 71T419 19T290 0ZM544 1796Q544 1817 550 1841T571 1899T611 1978T675 2084Q723 2160 767 2239T857 2382T957 2488T1078 2529Q1132 2529 1175 2509T1250 2456T1299 2382T1316
2300Q1316 2254 1297 2211T1244 2126T1169 2046T1080 1971T989 1903T904 1841Q803 1765 739 1732T640 1699Q622 1699 605 1708T574 1731T552 1763T544 1796Z" />
<glyph unicode="&#xc2;" glyph-name="Acircumflex" horiz-adv-x="1790" d="M548 641H861L707 1223L548 641ZM290 0Q216 0 160 19T67 70T10 145T-9 236Q-9 260 2 270T31 287T71 298T117 316T161 353T197 424L443 1174Q450 1195 453 1211T457 1239Q457 1270 440
1281T403 1298T365 1312T348 1347Q348 1354 349 1358Q359 1427 404 1472T523 1544T699 1582T922 1593Q1025 1593 1119 1586T1290 1553T1417 1482T1484 1358Q1486 1348 1486 1344Q1486 1327 1477 1319T1453 1305T1423 1297T1393 1286T1370 1266T1360 1228Q1360 1207
1369 1174L1590 424Q1603 379 1623 354T1665 316T1710 298T1751 287T1780 271T1791 236Q1791 111 1662 56T1289 0Q1171 0 1080 13T925 55T830 129T797 236Q797 257 806 267T830 283T861 293T892 304T915 326T925 368Q925 391 918 420L902 489H496L472 420Q459 382
459 358Q459 335 468 323T492 304T523 293T554 284T577 267T587 236Q587 188 568 146T512 71T419 19T290 0ZM897 2498Q967 2498 1017 2467T1109 2369T1193 2202T1288 1963L1330 1853Q1343 1818 1343 1789Q1343 1763 1334 1743T1309 1709T1273 1688T1231 1681Q1204
1681 1184 1688T1141 1714T1090 1770T1018 1863L897 2025L777 1863Q734 1806 706 1770T655 1715T612 1688T564 1681Q543 1681 523 1688T487 1708T462 1742T452 1789Q452 1818 465 1853L507 1964Q560 2102 601 2203T685 2369T777 2466T897 2498Z" />
<glyph unicode="&#xc3;" glyph-name="Atilde" horiz-adv-x="1790" d="M548 641H861L707 1223L548 641ZM290 0Q216 0 160 19T67 70T10 145T-9 236Q-9 260 2 270T31 287T71 298T117 316T161 353T197 424L443 1174Q450 1195 453 1211T457 1239Q457 1270 440 1281T403
1298T365 1312T348 1347Q348 1354 349 1358Q359 1427 404 1472T523 1544T699 1582T922 1593Q1025 1593 1119 1586T1290 1553T1417 1482T1484 1358Q1486 1348 1486 1344Q1486 1327 1477 1319T1453 1305T1423 1297T1393 1286T1370 1266T1360 1228Q1360 1207 1369
1174L1590 424Q1603 379 1623 354T1665 316T1710 298T1751 287T1780 271T1791 236Q1791 111 1662 56T1289 0Q1171 0 1080 13T925 55T830 129T797 236Q797 257 806 267T830 283T861 293T892 304T915 326T925 368Q925 391 918 420L902 489H496L472 420Q459 382 459
358Q459 335 468 323T492 304T523 293T554 284T577 267T587 236Q587 188 568 146T512 71T419 19T290 0ZM1688 2220Q1653 2091 1607 2007T1504 1874T1385 1806T1252 1786Q1176 1786 1095 1803T933 1841T770 1879T610 1896Q576 1896 546 1890T492 1870T456 1832T442
1775Q442 1771 446 1771L324 1894Q367 2023 415 2107T517 2240T628 2309T749 2329Q821 2329 899 2311T1062 2271T1239 2231T1431 2212Q1461 2212 1486 2218T1529 2240T1557 2279T1567 2338Q1567 2343 1565 2345L1688 2220Z" />
<glyph unicode="&#xc4;" glyph-name="Adieresis" horiz-adv-x="1790" d="M548 641H861L707 1223L548 641ZM290 0Q216 0 160 19T67 70T10 145T-9 236Q-9 260 2 270T31 287T71 298T117 316T161 353T197 424L443 1174Q450 1195 453 1211T457 1239Q457 1270 440 1281T403
1298T365 1312T348 1347Q348 1354 349 1358Q359 1427 404 1472T523 1544T699 1582T922 1593Q1025 1593 1119 1586T1290 1553T1417 1482T1484 1358Q1486 1348 1486 1344Q1486 1327 1477 1319T1453 1305T1423 1297T1393 1286T1370 1266T1360 1228Q1360 1207 1369
1174L1590 424Q1603 379 1623 354T1665 316T1710 298T1751 287T1780 271T1791 236Q1791 111 1662 56T1289 0Q1171 0 1080 13T925 55T830 129T797 236Q797 257 806 267T830 283T861 293T892 304T915 326T925 368Q925 391 918 420L902 489H496L472 420Q459 382 459
358Q459 335 468 323T492 304T523 293T554 284T577 267T587 236Q587 188 568 146T512 71T419 19T290 0ZM196 1947Q196 2022 226 2070T301 2145T394 2184T480 2195Q520 2195 569 2184T662 2146T735 2070T765 1947Q765 1873 736 1825T663 1749T570 1710T480 1699Q443
1699 394 1710T301 1749T227 1825T196 1947ZM1058 1947Q1058 2022 1088 2070T1163 2145T1257 2184T1343 2195Q1383 2195 1432 2184T1524 2146T1597 2070T1627 1947Q1627 1873 1598 1825T1525 1749T1432 1710T1343 1699Q1306 1699 1257 1710T1164 1749T1089 1825T1058
1947Z" />
<glyph unicode="&#xc5;" glyph-name="Aring" horiz-adv-x="1790" d="M548 641H861L707 1223L548 641ZM290 0Q216 0 160 19T67 70T10 145T-9 236Q-9 260 2 270T31 287T71 298T117 316T161 353T197 424L443 1174Q450 1195 453 1211T457 1239Q457 1270 440 1281T403
1298T365 1312T348 1347Q348 1354 349 1358Q359 1427 404 1472T523 1544T699 1582T922 1593Q1025 1593 1119 1586T1290 1553T1417 1482T1484 1358Q1486 1348 1486 1344Q1486 1327 1477 1319T1453 1305T1423 1297T1393 1286T1370 1266T1360 1228Q1360 1207 1369
1174L1590 424Q1603 379 1623 354T1665 316T1710 298T1751 287T1780 271T1791 236Q1791 111 1662 56T1289 0Q1171 0 1080 13T925 55T830 129T797 236Q797 257 806 267T830 283T861 293T892 304T915 326T925 368Q925 391 918 420L902 489H496L472 420Q459 382 459
358Q459 335 468 323T492 304T523 293T554 284T577 267T587 236Q587 188 568 146T512 71T419 19T290 0ZM738 2095Q738 2041 757 2007T804 1952T863 1925T919 1917Q943 1917 974 1924T1032 1952T1078 2006T1097 2095Q1097 2149 1079 2184T1033 2239T974 2267T919
2275Q895 2275 864 2268T805 2240T758 2184T738 2095ZM464 2097Q464 2177 487 2237T547 2342T633 2416T732 2463T832 2488T921 2496Q964 2496 1014 2489T1116 2464T1214 2417T1298 2343T1357 2238T1379 2097Q1379 2018 1357 1958T1299 1853T1215 1779T1116 1732T1015
1707T921 1699Q882 1699 833 1706T733 1731T634 1778T548 1852T487 1957T464 2097Z" />
<glyph unicode="&#xc6;" glyph-name="AE" horiz-adv-x="2465" d="M626 641H898L897 1223L626 641ZM896 489H544L507 420Q486 382 482 358Q477 335 484 323T504 304T533 293T562 284T582 267T586 236Q577 188 550 146T479 71T376 19T244 0Q170 0 118 19T35 70T-8
145T-10 236Q-5 260 8 270T40 287T83 298T132 316T183 353T233 424L624 1174Q635 1195 641 1211T650 1239Q654 1260 648 1271T632 1288T608 1298T583 1307T565 1321T562 1347Q563 1349 563 1352T565 1358Q589 1427 643 1472T776 1544T959 1582T1184 1593Q1217 1593
1242 1582T1287 1554T1319 1514T1340 1468Q1359 1413 1362 1344Q1361 1335 1361 1314V1174L1362 424L898 420L896 489ZM2093 844Q2093 791 2081 741T2044 653T1980 591T1886 567Q1854 567 1832 580T1793 618T1760 677T1724 752L1644 762V205L1986 221L2027 395Q2044
452 2068 491T2120 555T2181 591T2245 602Q2282 602 2314 590T2369 553T2406 496T2419 420Q2419 379 2411 332T2386 238T2344 148T2285 72T2209 20T2115 0H1245Q1127 0 1036 13T882 55T787 129T754 236Q754 260 766 270T795 286T833 297T871 314T901 351T913 420V1174Q913
1218 901 1242T872 1279T834 1297T796 1307T766 1323T754 1358Q754 1420 786 1464T881 1537T1035 1579T1245 1593H2103Q2176 1593 2230 1553T2319 1453T2372 1322T2390 1192Q2390 1152 2378 1120T2343 1066T2290 1032T2224 1020Q2193 1020 2163 1030T2106 1064T2056
1125T2017 1217L1978 1384H1644V924L1724 934Q1744 974 1760 1008T1793 1066T1832 1104T1886 1118Q1941 1118 1980 1095T2044 1033T2081 946T2093 844Z" />
<glyph unicode="&#xc7;" glyph-name="Ccedilla" horiz-adv-x="1569" d="M862 -25Q731 -25 621 4T422 87T264 213T150 373T81 557T57 758Q57 876 77 985T141 1191T255 1366T425 1501T656 1589T956 1620Q1067 1620 1167 1590T1342 1505T1462 1370T1507 1192Q1507
1152 1495 1120T1460 1066T1407 1032T1341 1020Q1310 1020 1279 1030T1220 1063T1170 1124T1134 1217Q1116 1295 1073 1335T981 1376Q944 1376 908 1353T843 1283T796 1162T778 989Q778 857 793 760T834 593T896 480T973 411T1058 377T1146 367Q1191 367 1234 377T1312
403T1373 436T1411 469Q1426 489 1443 498T1476 508Q1504 508 1524 479T1544 399Q1544 319 1495 243T1355 108T1140 12T862 -25ZM577 -326Q596 -338 624 -352T685 -380T752 -401T819 -410Q844 -410 866 -404T905 -381T930 -340T940 -276Q940 -247 928 -216T889
-151T819 -80T711 0H919Q978 -13 1032 -40T1127 -106T1192 -194T1216 -301Q1216 -381 1188 -440T1113 -537T1004 -595T876 -614Q796 -614 718 -587T577 -506V-326Z" />
<glyph unicode="&#xc8;" glyph-name="Egrave" horiz-adv-x="1765" d="M1393 844Q1393 791 1381 741T1344 653T1280 591T1186 567Q1154 567 1132 580T1093 618T1060 677T1024 752L944 762V205L1286 221L1327 395Q1344 452 1368 491T1420 555T1481 591T1545 602Q1582
602 1614 590T1669 553T1706 496T1719 420Q1719 379 1711 332T1686 238T1644 148T1585 72T1509 20T1415 0H545Q427 0 336 13T182 55T87 129T54 236Q54 260 66 270T95 286T133 297T171 314T201 351T213 420V1174Q213 1218 201 1242T172 1279T134 1297T96 1307T66
1323T54 1358Q54 1420 86 1464T181 1537T335 1579T545 1593H1403Q1476 1593 1530 1553T1619 1453T1672 1322T1690 1192Q1690 1152 1678 1120T1643 1066T1590 1032T1524 1020Q1493 1020 1463 1030T1406 1064T1356 1125T1317 1217L1278 1384H944V924L1024 934Q1044
974 1060 1008T1093 1066T1132 1104T1186 1118Q1241 1118 1280 1095T1344 1033T1381 946T1393 844ZM1042 1796Q1042 1780 1034 1763T1013 1732T982 1708T946 1699Q910 1699 847 1732T681 1841Q642 1870 597 1902T506 1971T418 2045T342 2125T290 2210T270 2300Q270
2341 287 2382T335 2455T409 2508T507 2529Q575 2529 628 2488T728 2383T818 2239T910 2084Q949 2023 974 1978T1015 1900T1036 1842T1042 1796Z" />
<glyph unicode="&#xc9;" glyph-name="Eacute" horiz-adv-x="1765" d="M1393 844Q1393 791 1381 741T1344 653T1280 591T1186 567Q1154 567 1132 580T1093 618T1060 677T1024 752L944 762V205L1286 221L1327 395Q1344 452 1368 491T1420 555T1481 591T1545 602Q1582
602 1614 590T1669 553T1706 496T1719 420Q1719 379 1711 332T1686 238T1644 148T1585 72T1509 20T1415 0H545Q427 0 336 13T182 55T87 129T54 236Q54 260 66 270T95 286T133 297T171 314T201 351T213 420V1174Q213 1218 201 1242T172 1279T134 1297T96 1307T66
1323T54 1358Q54 1420 86 1464T181 1537T335 1579T545 1593H1403Q1476 1593 1530 1553T1619 1453T1672 1322T1690 1192Q1690 1152 1678 1120T1643 1066T1590 1032T1524 1020Q1493 1020 1463 1030T1406 1064T1356 1125T1317 1217L1278 1384H944V924L1024 934Q1044
974 1060 1008T1093 1066T1132 1104T1186 1118Q1241 1118 1280 1095T1344 1033T1381 946T1393 844ZM608 1796Q608 1817 614 1841T635 1899T675 1978T739 2084Q787 2160 831 2239T921 2382T1021 2488T1142 2529Q1196 2529 1239 2509T1314 2456T1363 2382T1380 2300Q1380
2254 1361 2211T1308 2126T1233 2046T1144 1971T1053 1903T968 1841Q867 1765 803 1732T704 1699Q686 1699 669 1708T638 1731T616 1763T608 1796Z" />
<glyph unicode="&#xca;" glyph-name="Ecircumflex" horiz-adv-x="1765" d="M1393 844Q1393 791 1381 741T1344 653T1280 591T1186 567Q1154 567 1132 580T1093 618T1060 677T1024 752L944 762V205L1286 221L1327 395Q1344 452 1368 491T1420 555T1481 591T1545
602Q1582 602 1614 590T1669 553T1706 496T1719 420Q1719 379 1711 332T1686 238T1644 148T1585 72T1509 20T1415 0H545Q427 0 336 13T182 55T87 129T54 236Q54 260 66 270T95 286T133 297T171 314T201 351T213 420V1174Q213 1218 201 1242T172 1279T134 1297T96
1307T66 1323T54 1358Q54 1420 86 1464T181 1537T335 1579T545 1593H1403Q1476 1593 1530 1553T1619 1453T1672 1322T1690 1192Q1690 1152 1678 1120T1643 1066T1590 1032T1524 1020Q1493 1020 1463 1030T1406 1064T1356 1125T1317 1217L1278 1384H944V924L1024
934Q1044 974 1060 1008T1093 1066T1132 1104T1186 1118Q1241 1118 1280 1095T1344 1033T1381 946T1393 844ZM938 2498Q1008 2498 1058 2467T1150 2369T1234 2202T1329 1963L1371 1853Q1384 1818 1384 1789Q1384 1763 1375 1743T1350 1709T1314 1688T1272 1681Q1245
1681 1225 1688T1182 1714T1131 1770T1059 1863L938 2025L818 1863Q775 1806 747 1770T696 1715T653 1688T605 1681Q584 1681 564 1688T528 1708T503 1742T493 1789Q493 1818 506 1853L548 1964Q601 2102 642 2203T726 2369T818 2466T938 2498Z" />
<glyph unicode="&#xcb;" glyph-name="Edieresis" horiz-adv-x="1765" d="M1393 844Q1393 791 1381 741T1344 653T1280 591T1186 567Q1154 567 1132 580T1093 618T1060 677T1024 752L944 762V205L1286 221L1327 395Q1344 452 1368 491T1420 555T1481 591T1545 602Q1582
602 1614 590T1669 553T1706 496T1719 420Q1719 379 1711 332T1686 238T1644 148T1585 72T1509 20T1415 0H545Q427 0 336 13T182 55T87 129T54 236Q54 260 66 270T95 286T133 297T171 314T201 351T213 420V1174Q213 1218 201 1242T172 1279T134 1297T96 1307T66
1323T54 1358Q54 1420 86 1464T181 1537T335 1579T545 1593H1403Q1476 1593 1530 1553T1619 1453T1672 1322T1690 1192Q1690 1152 1678 1120T1643 1066T1590 1032T1524 1020Q1493 1020 1463 1030T1406 1064T1356 1125T1317 1217L1278 1384H944V924L1024 934Q1044
974 1060 1008T1093 1066T1132 1104T1186 1118Q1241 1118 1280 1095T1344 1033T1381 946T1393 844ZM182 1947Q182 2022 212 2070T287 2145T380 2184T466 2195Q506 2195 555 2184T648 2146T721 2070T751 1947Q751 1873 722 1825T649 1749T556 1710T466 1699Q429
1699 380 1710T287 1749T213 1825T182 1947ZM1044 1947Q1044 2022 1074 2070T1149 2145T1243 2184T1329 2195Q1369 2195 1418 2184T1510 2146T1583 2070T1613 1947Q1613 1873 1584 1825T1511 1749T1418 1710T1329 1699Q1292 1699 1243 1710T1150 1749T1075 1825T1044
1947Z" />
<glyph unicode="&#xcc;" glyph-name="Igrave" horiz-adv-x="1097" d="M885 424Q885 379 897 354T927 316T966 298T1005 287T1035 271T1047 236Q1047 111 918 56T545 0Q427 0 336 13T182 55T87 129T54 236Q54 260 66 270T95 286T133 297T171 314T201 351T213 420V1174Q213
1218 201 1242T172 1279T134 1297T96 1307T66 1323T54 1358Q54 1420 86 1464T181 1537T335 1579T545 1593Q667 1593 761 1580T918 1538T1014 1465T1047 1358Q1047 1334 1035 1324T1006 1308T967 1297T929 1280T899 1243T887 1174L885 424ZM890 1796Q890 1780 882
1763T861 1732T830 1708T794 1699Q758 1699 695 1732T529 1841Q490 1870 445 1902T354 1971T266 2045T190 2125T138 2210T118 2300Q118 2341 135 2382T183 2455T257 2508T355 2529Q423 2529 476 2488T576 2383T666 2239T758 2084Q797 2023 822 1978T863 1900T884
1842T890 1796Z" />
<glyph unicode="&#xcd;" glyph-name="Iacute" horiz-adv-x="1098" d="M885 424Q885 379 897 354T927 316T966 298T1005 287T1035 271T1047 236Q1047 111 918 56T545 0Q427 0 336 13T182 55T87 129T54 236Q54 260 66 270T95 286T133 297T171 314T201 351T213 420V1174Q213
1218 201 1242T172 1279T134 1297T96 1307T66 1323T54 1358Q54 1420 86 1464T181 1537T335 1579T545 1593Q667 1593 761 1580T918 1538T1014 1465T1047 1358Q1047 1334 1035 1324T1006 1308T967 1297T929 1280T899 1243T887 1174L885 424ZM173 1796Q173 1817 179
1841T200 1899T240 1978T304 2084Q352 2160 396 2239T486 2382T586 2488T707 2529Q761 2529 804 2509T879 2456T928 2382T945 2300Q945 2254 926 2211T873 2126T798 2046T709 1971T618 1903T533 1841Q432 1765 368 1732T269 1699Q251 1699 234 1708T203 1731T181
1763T173 1796Z" />
<glyph unicode="&#xce;" glyph-name="Icircumflex" horiz-adv-x="1097" d="M885 424Q885 379 897 354T927 316T966 298T1005 287T1035 271T1047 236Q1047 111 918 56T545 0Q427 0 336 13T182 55T87 129T54 236Q54 260 66 270T95 286T133 297T171 314T201 351T213
420V1174Q213 1218 201 1242T172 1279T134 1297T96 1307T66 1323T54 1358Q54 1420 86 1464T181 1537T335 1579T545 1593Q667 1593 761 1580T918 1538T1014 1465T1047 1358Q1047 1334 1035 1324T1006 1308T967 1297T929 1280T899 1243T887 1174L885 424ZM551 2498Q621
2498 671 2467T763 2369T847 2202T942 1963L984 1853Q997 1818 997 1789Q997 1763 988 1743T963 1709T927 1688T885 1681Q858 1681 838 1688T795 1714T744 1770T672 1863L551 2025L431 1863Q388 1806 360 1770T309 1715T266 1688T218 1681Q197 1681 177 1688T141
1708T116 1742T106 1789Q106 1818 119 1853L161 1964Q214 2102 255 2203T339 2369T431 2466T551 2498Z" />
<glyph unicode="&#xcf;" glyph-name="Idieresis" horiz-adv-x="1097" d="M886 424Q886 379 898 354T928 316T967 298T1006 287T1036 271T1048 236Q1048 111 919 56T546 0Q428 0 337 13T183 55T88 129T55 236Q55 260 67 270T96 286T134 297T172 314T202 351T214
420V1174Q214 1218 202 1242T173 1279T135 1297T97 1307T67 1323T55 1358Q55 1420 87 1464T182 1537T336 1579T546 1593Q668 1593 762 1580T919 1538T1015 1465T1048 1358Q1048 1334 1036 1324T1007 1308T968 1297T930 1280T900 1243T888 1174L886 424ZM-150 1947Q-150
2022 -120 2070T-45 2145T48 2184T134 2195Q174 2195 223 2184T316 2146T389 2070T419 1947Q419 1873 390 1825T317 1749T224 1710T134 1699Q97 1699 48 1710T-45 1749T-119 1825T-150 1947ZM712 1947Q712 2022 742 2070T817 2145T911 2184T997 2195Q1037 2195
1086 2184T1178 2146T1251 2070T1281 1947Q1281 1873 1252 1825T1179 1749T1086 1710T997 1699Q960 1699 911 1710T818 1749T743 1825T712 1947Z" />
<glyph unicode="&#xd0;" glyph-name="Eth" horiz-adv-x="1962" d="M82 842Q82 876 92 896T122 925T168 937T229 940H943Q979 940 1008 939T1057 928T1089 899T1100 842Q1100 805 1089 785T1058 756T1008 746T943 744H229Q196 744 169 745T122 756T93 785T82 842ZM1237
854Q1237 962 1226 1060T1191 1233T1128 1352T1033 1397Q991 1397 966 1382T927 1341T910 1281T906 1210V418Q906 381 910 347T927 288T965 247T1033 231Q1089 231 1128 276T1191 402T1226 599T1237 854ZM1033 1593Q1195 1593 1322 1565T1546 1487T1710 1368T1820
1215T1882 1037T1901 844Q1901 732 1886 626T1832 426T1725 254T1552 119T1298 32T949 0H545Q427 0 336 13T182 55T87 129T54 236Q54 260 66 270T95 286T133 297T171 314T201 351T213 420V1176Q213 1220 201 1244T172 1281T134 1299T96 1309T66 1325T54 1360Q54
1422 86 1466T181 1539T335 1580T545 1593H1033Z" />
<glyph unicode="&#xd1;" glyph-name="Ntilde" horiz-adv-x="1812" d="M533 776Q526 781 522 781Q513 781 513 771Q513 768 514 766V424Q514 379 526 354T556 316T595 298T634 287T664 271T676 236Q676 174 649 129T578 56T482 14T377 0Q317 0 261 13T161 55T91
129T64 236Q64 260 76 270T105 286T143 297T181 314T211 351T223 420V1174Q223 1218 211 1242T182 1279T144 1297T106 1307T76 1323T64 1358Q64 1420 89 1464T157 1537T260 1579T387 1593Q439 1593 476 1585T547 1557T618 1504T707 1423L1280 889Q1282 887 1285
885T1294 883Q1300 883 1305 888T1311 911V1169Q1311 1215 1299 1240T1269 1278T1230 1296T1191 1307T1161 1323T1149 1358Q1149 1420 1176 1464T1247 1537T1343 1579T1448 1593Q1508 1593 1564 1580T1664 1538T1734 1465T1761 1358Q1761 1334 1750 1324T1721 1308T1683
1297T1645 1280T1616 1243T1604 1174V215Q1604 149 1593 107T1562 42T1513 9T1450 0Q1426 0 1400 10T1345 39T1281 88T1204 154L533 776ZM1665 2220Q1630 2091 1584 2007T1481 1874T1362 1806T1229 1786Q1153 1786 1072 1803T910 1841T747 1879T587 1896Q553 1896
523 1890T469 1870T433 1832T419 1775Q419 1771 423 1771L301 1894Q344 2023 392 2107T494 2240T605 2309T726 2329Q798 2329 876 2311T1039 2271T1216 2231T1408 2212Q1438 2212 1463 2218T1506 2240T1534 2279T1544 2338Q1544 2343 1542 2345L1665 2220Z" />
<glyph unicode="&#xd2;" glyph-name="Ograve" horiz-adv-x="1899" d="M907 -25Q756 -25 634 4T418 87T256 213T144 373T80 557T59 758Q59 876 72 985T122 1191T224 1366T392 1501T643 1589T991 1620Q1153 1620 1279 1591T1499 1508T1658 1383T1763 1225T1821 1043T1839
848Q1839 736 1826 628T1776 422T1674 243T1505 102T1254 9T907 -25ZM964 238Q1009 238 1037 263T1082 335T1105 450T1112 604V649Q1112 725 1111 806T1105 966T1089 1115T1057 1238T1005 1323T927 1354Q880 1354 851 1333T807 1270T786 1167T780 1026Q780 953
781 866T787 692T803 522T834 377T886 276T964 238ZM1128 1796Q1128 1780 1120 1763T1099 1732T1068 1708T1032 1699Q996 1699 933 1732T767 1841Q728 1870 683 1902T592 1971T504 2045T428 2125T376 2210T356 2300Q356 2341 373 2382T421 2455T495 2508T593 2529Q661
2529 714 2488T814 2383T904 2239T996 2084Q1035 2023 1060 1978T1101 1900T1122 1842T1128 1796Z" />
<glyph unicode="&#xd3;" glyph-name="Oacute" horiz-adv-x="1899" d="M907 -25Q756 -25 634 4T418 87T256 213T144 373T80 557T59 758Q59 876 72 985T122 1191T224 1366T392 1501T643 1589T991 1620Q1153 1620 1279 1591T1499 1508T1658 1383T1763 1225T1821 1043T1839
848Q1839 736 1826 628T1776 422T1674 243T1505 102T1254 9T907 -25ZM964 238Q1009 238 1037 263T1082 335T1105 450T1112 604V649Q1112 725 1111 806T1105 966T1089 1115T1057 1238T1005 1323T927 1354Q880 1354 851 1333T807 1270T786 1167T780 1026Q780 953
781 866T787 692T803 522T834 377T886 276T964 238ZM528 1796Q528 1817 534 1841T555 1899T595 1978T659 2084Q707 2160 751 2239T841 2382T941 2488T1062 2529Q1116 2529 1159 2509T1234 2456T1283 2382T1300 2300Q1300 2254 1281 2211T1228 2126T1153 2046T1064
1971T973 1903T888 1841Q787 1765 723 1732T624 1699Q606 1699 589 1708T558 1731T536 1763T528 1796Z" />
<glyph unicode="&#xd4;" glyph-name="Ocircumflex" horiz-adv-x="1899" d="M907 -25Q756 -25 634 4T418 87T256 213T144 373T80 557T59 758Q59 876 72 985T122 1191T224 1366T392 1501T643 1589T991 1620Q1153 1620 1279 1591T1499 1508T1658 1383T1763 1225T1821
1043T1839 848Q1839 736 1826 628T1776 422T1674 243T1505 102T1254 9T907 -25ZM964 238Q1009 238 1037 263T1082 335T1105 450T1112 604V649Q1112 725 1111 806T1105 966T1089 1115T1057 1238T1005 1323T927 1354Q880 1354 851 1333T807 1270T786 1167T780 1026Q780
953 781 866T787 692T803 522T834 377T886 276T964 238ZM936 2498Q1006 2498 1056 2467T1148 2369T1232 2202T1327 1963L1369 1853Q1382 1818 1382 1789Q1382 1763 1373 1743T1348 1709T1312 1688T1270 1681Q1243 1681 1223 1688T1180 1714T1129 1770T1057 1863L936
2025L816 1863Q773 1806 745 1770T694 1715T651 1688T603 1681Q582 1681 562 1688T526 1708T501 1742T491 1789Q491 1818 504 1853L546 1964Q599 2102 640 2203T724 2369T816 2466T936 2498Z" />
<glyph unicode="&#xd5;" glyph-name="Otilde" horiz-adv-x="1899" d="M907 -25Q756 -25 634 4T418 87T256 213T144 373T80 557T59 758Q59 876 72 985T122 1191T224 1366T392 1501T643 1589T991 1620Q1153 1620 1279 1591T1499 1508T1658 1383T1763 1225T1821 1043T1839
848Q1839 736 1826 628T1776 422T1674 243T1505 102T1254 9T907 -25ZM964 238Q1009 238 1037 263T1082 335T1105 450T1112 604V649Q1112 725 1111 806T1105 966T1089 1115T1057 1238T1005 1323T927 1354Q880 1354 851 1333T807 1270T786 1167T780 1026Q780 953
781 866T787 692T803 522T834 377T886 276T964 238ZM1727 2220Q1692 2091 1646 2007T1543 1874T1424 1806T1291 1786Q1215 1786 1134 1803T972 1841T809 1879T649 1896Q615 1896 585 1890T531 1870T495 1832T481 1775Q481 1771 485 1771L363 1894Q406 2023 454
2107T556 2240T667 2309T788 2329Q860 2329 938 2311T1101 2271T1278 2231T1470 2212Q1500 2212 1525 2218T1568 2240T1596 2279T1606 2338Q1606 2343 1604 2345L1727 2220Z" />
<glyph unicode="&#xd6;" glyph-name="Odieresis" horiz-adv-x="1899" d="M907 -25Q756 -25 634 4T418 87T256 213T144 373T80 557T59 758Q59 876 72 985T122 1191T224 1366T392 1501T643 1589T991 1620Q1153 1620 1279 1591T1499 1508T1658 1383T1763 1225T1821
1043T1839 848Q1839 736 1826 628T1776 422T1674 243T1505 102T1254 9T907 -25ZM964 238Q1009 238 1037 263T1082 335T1105 450T1112 604V649Q1112 725 1111 806T1105 966T1089 1115T1057 1238T1005 1323T927 1354Q880 1354 851 1333T807 1270T786 1167T780 1026Q780
953 781 866T787 692T803 522T834 377T886 276T964 238ZM246 1947Q246 2022 276 2070T351 2145T444 2184T530 2195Q570 2195 619 2184T712 2146T785 2070T815 1947Q815 1873 786 1825T713 1749T620 1710T530 1699Q493 1699 444 1710T351 1749T277 1825T246 1947ZM1108
1947Q1108 2022 1138 2070T1213 2145T1307 2184T1393 2195Q1433 2195 1482 2184T1574 2146T1647 2070T1677 1947Q1677 1873 1648 1825T1575 1749T1482 1710T1393 1699Q1356 1699 1307 1710T1214 1749T1139 1825T1108 1947Z" />
<glyph unicode="&#xd7;" glyph-name="multiply" horiz-adv-x="1134" d="M128 285Q98 315 86 343T74 398Q74 432 89 460T124 508L343 727L124 946Q103 968 87 996T71 1059Q71 1085 83 1113T125 1170Q155 1199 183 1211T237 1223Q270 1223 298 1208T347 1171L568
952L785 1169Q807 1190 835 1206T898 1223Q924 1223 952 1211T1009 1168Q1038 1138 1050 1110T1063 1056Q1063 1023 1047 995T1010 946L791 727L1008 510Q1028 490 1044 462T1060 398Q1060 372 1049 345T1008 289Q978 259 950 247T895 235Q861 235 833 250T785
285L568 502L349 285Q329 265 301 249T237 233Q211 233 184 244T128 285Z" />
<glyph unicode="&#xd8;" glyph-name="Oslash" horiz-adv-x="1893" d="M321 -74Q321 -54 326 -38T341 -6L1390 1712Q1405 1737 1431 1756T1492 1776Q1533 1776 1560 1764T1603 1734T1627 1697T1634 1663Q1634 1643 1629 1627T1613 1595L565 -123Q551 -146 524 -166T458
-186Q434 -186 410 -178T366 -154T334 -119T321 -74ZM904 -25Q752 -25 631 4T415 87T253 213T141 373T77 557T56 758Q56 876 69 985T119 1191T221 1366T389 1501T640 1589T988 1620Q1150 1620 1276 1591T1496 1508T1655 1383T1760 1225T1818 1043T1836 848Q1836
736 1823 628T1773 422T1671 243T1502 102T1251 9T904 -25ZM961 238Q1006 238 1034 263T1079 335T1102 450T1109 604V649Q1109 725 1108 806T1102 966T1086 1115T1054 1238T1002 1323T924 1354Q877 1354 848 1333T804 1270T783 1167T777 1026Q777 953 778 866T784
692T800 522T831 377T883 276T961 238Z" />
<glyph unicode="&#xd9;" glyph-name="Ugrave" horiz-adv-x="1882" d="M1689 516Q1689 419 1663 341T1590 203T1478 99T1334 29T1168 -12T987 -25Q876 -25 774 -12T584 29T423 100T300 204T220 343T192 520V1174Q192 1218 180 1242T151 1279T113 1297T75 1307T45
1323T33 1358Q33 1420 65 1464T160 1537T314 1579T524 1593Q646 1593 740 1580T897 1538T993 1465T1026 1358Q1026 1334 1014 1324T985 1308T946 1298T908 1281T878 1245T866 1176V520Q866 450 886 401T942 321T1027 276T1136 262Q1191 262 1238 276T1321 322T1376
402T1397 520V1174Q1397 1218 1385 1242T1356 1279T1317 1297T1279 1307T1249 1323T1237 1358Q1237 1420 1267 1464T1343 1537T1444 1579T1550 1593Q1595 1593 1647 1580T1745 1538T1819 1465T1849 1358Q1849 1334 1837 1324T1807 1307T1768 1296T1729 1278T1699
1240T1687 1169L1689 516ZM1101 1796Q1101 1780 1093 1763T1072 1732T1041 1708T1005 1699Q969 1699 906 1732T740 1841Q701 1870 656 1902T565 1971T477 2045T401 2125T349 2210T329 2300Q329 2341 346 2382T394 2455T468 2508T566 2529Q634 2529 687 2488T787
2383T877 2239T969 2084Q1008 2023 1033 1978T1074 1900T1095 1842T1101 1796Z" />
<glyph unicode="&#xda;" glyph-name="Uacute" horiz-adv-x="1882" d="M1689 516Q1689 419 1663 341T1590 203T1478 99T1334 29T1168 -12T987 -25Q876 -25 774 -12T584 29T423 100T300 204T220 343T192 520V1174Q192 1218 180 1242T151 1279T113 1297T75 1307T45
1323T33 1358Q33 1420 65 1464T160 1537T314 1579T524 1593Q646 1593 740 1580T897 1538T993 1465T1026 1358Q1026 1334 1014 1324T985 1308T946 1298T908 1281T878 1245T866 1176V520Q866 450 886 401T942 321T1027 276T1136 262Q1191 262 1238 276T1321 322T1376
402T1397 520V1174Q1397 1218 1385 1242T1356 1279T1317 1297T1279 1307T1249 1323T1237 1358Q1237 1420 1267 1464T1343 1537T1444 1579T1550 1593Q1595 1593 1647 1580T1745 1538T1819 1465T1849 1358Q1849 1334 1837 1324T1807 1307T1768 1296T1729 1278T1699
1240T1687 1169L1689 516ZM643 1796Q643 1817 649 1841T670 1899T710 1978T774 2084Q822 2160 866 2239T956 2382T1056 2488T1177 2529Q1231 2529 1274 2509T1349 2456T1398 2382T1415 2300Q1415 2254 1396 2211T1343 2126T1268 2046T1179 1971T1088 1903T1003
1841Q902 1765 838 1732T739 1699Q721 1699 704 1708T673 1731T651 1763T643 1796Z" />
<glyph unicode="&#xdb;" glyph-name="Ucircumflex" horiz-adv-x="1882" d="M1689 516Q1689 419 1663 341T1590 203T1478 99T1334 29T1168 -12T987 -25Q876 -25 774 -12T584 29T423 100T300 204T220 343T192 520V1174Q192 1218 180 1242T151 1279T113 1297T75 1307T45
1323T33 1358Q33 1420 65 1464T160 1537T314 1579T524 1593Q646 1593 740 1580T897 1538T993 1465T1026 1358Q1026 1334 1014 1324T985 1308T946 1298T908 1281T878 1245T866 1176V520Q866 450 886 401T942 321T1027 276T1136 262Q1191 262 1238 276T1321 322T1376
402T1397 520V1174Q1397 1218 1385 1242T1356 1279T1317 1297T1279 1307T1249 1323T1237 1358Q1237 1420 1267 1464T1343 1537T1444 1579T1550 1593Q1595 1593 1647 1580T1745 1538T1819 1465T1849 1358Q1849 1334 1837 1324T1807 1307T1768 1296T1729 1278T1699
1240T1687 1169L1689 516ZM1008 2498Q1078 2498 1128 2467T1220 2369T1304 2202T1399 1963L1441 1853Q1454 1818 1454 1789Q1454 1763 1445 1743T1420 1709T1384 1688T1342 1681Q1315 1681 1295 1688T1252 1714T1201 1770T1129 1863L1008 2025L888 1863Q845 1806
817 1770T766 1715T723 1688T675 1681Q654 1681 634 1688T598 1708T573 1742T563 1789Q563 1818 576 1853L618 1964Q671 2102 712 2203T796 2369T888 2466T1008 2498Z" />
<glyph unicode="&#xdc;" glyph-name="Udieresis" horiz-adv-x="1882" d="M1689 516Q1689 419 1663 341T1590 203T1478 99T1334 29T1168 -12T987 -25Q876 -25 774 -12T584 29T423 100T300 204T220 343T192 520V1174Q192 1218 180 1242T151 1279T113 1297T75 1307T45
1323T33 1358Q33 1420 65 1464T160 1537T314 1579T524 1593Q646 1593 740 1580T897 1538T993 1465T1026 1358Q1026 1334 1014 1324T985 1308T946 1298T908 1281T878 1245T866 1176V520Q866 450 886 401T942 321T1027 276T1136 262Q1191 262 1238 276T1321 322T1376
402T1397 520V1174Q1397 1218 1385 1242T1356 1279T1317 1297T1279 1307T1249 1323T1237 1358Q1237 1420 1267 1464T1343 1537T1444 1579T1550 1593Q1595 1593 1647 1580T1745 1538T1819 1465T1849 1358Q1849 1334 1837 1324T1807 1307T1768 1296T1729 1278T1699
1240T1687 1169L1689 516ZM265 1947Q265 2022 295 2070T370 2145T463 2184T549 2195Q589 2195 638 2184T731 2146T804 2070T834 1947Q834 1873 805 1825T732 1749T639 1710T549 1699Q512 1699 463 1710T370 1749T296 1825T265 1947ZM1127 1947Q1127 2022 1157 2070T1232
2145T1326 2184T1412 2195Q1452 2195 1501 2184T1593 2146T1666 2070T1696 1947Q1696 1873 1667 1825T1594 1749T1501 1710T1412 1699Q1375 1699 1326 1710T1233 1749T1158 1825T1127 1947Z" />
<glyph unicode="&#xdd;" glyph-name="Yacute" horiz-adv-x="1743" d="M862 0Q743 0 651 13T496 55T401 129T368 236Q368 260 380 270T410 286T449 297T488 314T518 351T530 420V780L249 1169Q222 1207 193 1229T138 1264T88 1284T46 1300T18 1321T8 1358Q8 1482
136 1537T509 1593Q627 1593 719 1580T873 1538T968 1465T1001 1358Q1001 1330 983 1317T944 1295T904 1277T886 1246Q886 1234 894 1217T921 1174L1027 1004Q1051 976 1072 976Q1087 976 1100 987T1124 1014L1238 1174Q1255 1198 1261 1215T1267 1246Q1267 1262
1258 1271T1236 1286T1207 1297T1178 1309T1155 1327T1146 1358Q1146 1406 1165 1448T1221 1523T1314 1574T1443 1593Q1517 1593 1573 1574T1666 1523T1723 1449T1742 1358Q1742 1334 1730 1322T1697 1302T1649 1287T1593 1267T1532 1231T1474 1169L1202 780V424Q1202
379 1214 354T1244 316T1282 298T1321 287T1351 271T1363 236Q1363 174 1331 129T1235 56T1078 14T862 0ZM578 1796Q578 1817 584 1841T605 1899T645 1978T709 2084Q757 2160 801 2239T891 2382T991 2488T1112 2529Q1166 2529 1209 2509T1284 2456T1333 2382T1350
2300Q1350 2254 1331 2211T1278 2126T1203 2046T1114 1971T1023 1903T938 1841Q837 1765 773 1732T674 1699Q656 1699 639 1708T608 1731T586 1763T578 1796Z" />
<glyph unicode="&#xde;" glyph-name="Thorn" horiz-adv-x="1800" d="M903 625H1034Q1081 625 1114 649T1169 712T1200 801T1210 905Q1210 960 1199 1014T1164 1110T1100 1178T1004 1204H901L903 625ZM225 1427Q225 1472 213 1496T184 1533T146 1551T108 1561T78
1577T66 1612Q66 1674 98 1718T193 1791T347 1833T557 1847Q679 1847 773 1834T930 1792T1026 1719T1059 1612Q1059 1588 1047 1578T1017 1561T978 1550T939 1532T909 1494T897 1423V1384H1141Q1304 1384 1426 1345T1629 1241T1751 1094T1792 924Q1792 838 1752
756T1630 609T1426 505T1141 465Q1125 465 1091 465T1019 466T948 467T899 469V412Q899 370 911 348T941 314T980 297T1019 287T1049 270T1061 236Q1061 111 932 56T559 0Q441 0 350 13T196 55T101 129T68 236Q68 260 80 270T109 286T147 297T185 314T215 351T227
420L225 1427Z" />
<glyph unicode="&#xdf;" glyph-name="germandbls" horiz-adv-x="1963" d="M883 420Q883 376 895 352T925 315T965 297T1004 287T1035 271T1047 236Q1047 111 918 56T539 0Q421 0 330 13T175 55T80 129T47 236Q47 260 59 270T88 286T127 297T165 314T195 351T207
420V874Q207 982 213 1077T246 1252T325 1395T468 1502T695 1569T1026 1593Q1193 1593 1317 1558T1523 1466T1645 1339T1686 1198Q1686 1150 1667 1105T1612 1022T1520 956T1393 915Q1522 907 1621 857T1789 731T1892 562T1927 375Q1927 291 1898 213T1809 75T1656
-21T1438 -57Q1359 -57 1293 -40T1180 6T1107 72T1080 150Q1080 192 1093 213T1122 246Q1140 258 1164 260Q1196 260 1223 279T1269 330T1298 405T1309 492Q1309 545 1293 598T1240 693T1146 761T1006 788Q983 788 969 797T947 820T937 848T934 874Q934 885 936
900T947 928T969 951T1008 961Q1048 961 1077 977T1125 1019T1152 1080T1161 1153Q1161 1197 1150 1240T1117 1319T1067 1375T1000 1397Q965 1397 943 1379T908 1328T890 1246T885 1137L883 420Z" />
<glyph unicode="&#xe0;" glyph-name="agrave" horiz-adv-x="1556" d="M717 205Q750 205 770 215T802 245T816 293T820 358Q820 389 819 437T817 531Q815 585 814 643Q800 645 788 646T763 648Q712 648 678 628T622 571T593 485T584 377Q584 342 588 311T606 256T646
219T717 205ZM1199 0Q1148 0 1098 5T1002 28T918 77T853 162Q833 115 789 80T688 22T569 -13T449 -25Q348 -25 272 -1T144 67T66 174T40 313Q40 404 70 485T174 628T371 724T679 760H816Q816 871 809 944T785 1060T745 1120T687 1137Q649 1137 624 1114T583 1048T561
943T554 803Q511 803 464 804T370 812T282 830T208 864T157 919T138 999Q138 1065 172 1124T278 1227T460 1298T722 1325Q899 1325 1027 1289T1237 1181T1359 1000T1399 743V389Q1399 346 1410 322T1438 286T1475 268T1511 258T1539 243T1551 211Q1551 111 1462
56T1199 0ZM883 1551Q883 1535 875 1518T854 1487T823 1463T787 1454Q751 1454 688 1487T522 1596Q483 1625 438 1657T347 1726T259 1800T183 1880T131 1965T111 2055Q111 2096 128 2137T176 2210T250 2263T348 2284Q416 2284 469 2243T569 2138T659 1994T751 1839Q790
1778 815 1733T856 1655T877 1597T883 1551Z" />
<glyph unicode="&#xe1;" glyph-name="aacute" horiz-adv-x="1556" d="M717 205Q750 205 770 215T802 245T816 293T820 358Q820 389 819 437T817 531Q815 585 814 643Q800 645 788 646T763 648Q712 648 678 628T622 571T593 485T584 377Q584 342 588 311T606 256T646
219T717 205ZM1199 0Q1148 0 1098 5T1002 28T918 77T853 162Q833 115 789 80T688 22T569 -13T449 -25Q348 -25 272 -1T144 67T66 174T40 313Q40 404 70 485T174 628T371 724T679 760H816Q816 871 809 944T785 1060T745 1120T687 1137Q649 1137 624 1114T583 1048T561
943T554 803Q511 803 464 804T370 812T282 830T208 864T157 919T138 999Q138 1065 172 1124T278 1227T460 1298T722 1325Q899 1325 1027 1289T1237 1181T1359 1000T1399 743V389Q1399 346 1410 322T1438 286T1475 268T1511 258T1539 243T1551 211Q1551 111 1462
56T1199 0ZM466 1551Q466 1572 472 1596T493 1654T533 1733T597 1839Q645 1915 689 1994T779 2137T879 2243T1000 2284Q1054 2284 1097 2264T1172 2211T1221 2137T1238 2055Q1238 2009 1219 1966T1166 1881T1091 1801T1002 1726T911 1658T826 1596Q725 1520 661
1487T562 1454Q544 1454 527 1463T496 1486T474 1518T466 1551Z" />
<glyph unicode="&#xe2;" glyph-name="acircumflex" horiz-adv-x="1556" d="M717 205Q750 205 770 215T802 245T816 293T820 358Q820 389 819 437T817 531Q815 585 814 643Q800 645 788 646T763 648Q712 648 678 628T622 571T593 485T584 377Q584 342 588 311T606
256T646 219T717 205ZM1199 0Q1148 0 1098 5T1002 28T918 77T853 162Q833 115 789 80T688 22T569 -13T449 -25Q348 -25 272 -1T144 67T66 174T40 313Q40 404 70 485T174 628T371 724T679 760H816Q816 871 809 944T785 1060T745 1120T687 1137Q649 1137 624 1114T583
1048T561 943T554 803Q511 803 464 804T370 812T282 830T208 864T157 919T138 999Q138 1065 172 1124T278 1227T460 1298T722 1325Q899 1325 1027 1289T1237 1181T1359 1000T1399 743V389Q1399 346 1410 322T1438 286T1475 268T1511 258T1539 243T1551 211Q1551
111 1462 56T1199 0ZM790 2253Q860 2253 910 2222T1002 2124T1086 1957T1181 1718L1223 1608Q1236 1573 1236 1544Q1236 1518 1227 1498T1202 1464T1166 1443T1124 1436Q1097 1436 1077 1443T1034 1469T983 1525T911 1618L790 1780L670 1618Q627 1561 599 1525T548
1470T505 1443T457 1436Q436 1436 416 1443T380 1463T355 1497T345 1544Q345 1573 358 1608L400 1719Q453 1857 494 1958T578 2124T670 2221T790 2253Z" />
<glyph unicode="&#xe3;" glyph-name="atilde" horiz-adv-x="1556" d="M717 205Q750 205 770 215T802 245T816 293T820 358Q820 389 819 437T817 531Q815 585 814 643Q800 645 788 646T763 648Q712 648 678 628T622 571T593 485T584 377Q584 342 588 311T606 256T646
219T717 205ZM1199 0Q1148 0 1098 5T1002 28T918 77T853 162Q833 115 789 80T688 22T569 -13T449 -25Q348 -25 272 -1T144 67T66 174T40 313Q40 404 70 485T174 628T371 724T679 760H816Q816 871 809 944T785 1060T745 1120T687 1137Q649 1137 624 1114T583 1048T561
943T554 803Q511 803 464 804T370 812T282 830T208 864T157 919T138 999Q138 1065 172 1124T278 1227T460 1298T722 1325Q899 1325 1027 1289T1237 1181T1359 1000T1399 743V389Q1399 346 1410 322T1438 286T1475 268T1511 258T1539 243T1551 211Q1551 111 1462
56T1199 0ZM1482 1975Q1447 1846 1401 1762T1298 1629T1179 1561T1046 1541Q970 1541 889 1558T727 1596T564 1634T404 1651Q370 1651 340 1645T286 1625T250 1587T236 1530Q236 1526 240 1526L118 1649Q161 1778 209 1862T311 1995T422 2064T543 2084Q615 2084
693 2066T856 2026T1033 1986T1225 1967Q1255 1967 1280 1973T1323 1995T1351 2034T1361 2093Q1361 2098 1359 2100L1482 1975Z" />
<glyph unicode="&#xe4;" glyph-name="adieresis" horiz-adv-x="1556" d="M717 205Q750 205 770 215T802 245T816 293T820 358Q820 389 819 437T817 531Q815 585 814 643Q800 645 788 646T763 648Q712 648 678 628T622 571T593 485T584 377Q584 342 588 311T606
256T646 219T717 205ZM1199 0Q1148 0 1098 5T1002 28T918 77T853 162Q833 115 789 80T688 22T569 -13T449 -25Q348 -25 272 -1T144 67T66 174T40 313Q40 404 70 485T174 628T371 724T679 760H816Q816 871 809 944T785 1060T745 1120T687 1137Q649 1137 624 1114T583
1048T561 943T554 803Q511 803 464 804T370 812T282 830T208 864T157 919T138 999Q138 1065 172 1124T278 1227T460 1298T722 1325Q899 1325 1027 1289T1237 1181T1359 1000T1399 743V389Q1399 346 1410 322T1438 286T1475 268T1511 258T1539 243T1551 211Q1551
111 1462 56T1199 0ZM66 1702Q66 1777 96 1825T171 1900T264 1939T350 1950Q390 1950 439 1939T532 1901T605 1825T635 1702Q635 1628 606 1580T533 1504T440 1465T350 1454Q313 1454 264 1465T171 1504T97 1580T66 1702ZM928 1702Q928 1777 958 1825T1033 1900T1127
1939T1213 1950Q1253 1950 1302 1939T1394 1901T1467 1825T1497 1702Q1497 1628 1468 1580T1395 1504T1302 1465T1213 1454Q1176 1454 1127 1465T1034 1504T959 1580T928 1702Z" />
<glyph unicode="&#xe5;" glyph-name="aring" horiz-adv-x="1556" d="M717 205Q750 205 770 215T802 245T816 293T820 358Q820 389 819 437T817 531Q815 585 814 643Q800 645 788 646T763 648Q712 648 678 628T622 571T593 485T584 377Q584 342 588 311T606 256T646
219T717 205ZM1199 0Q1148 0 1098 5T1002 28T918 77T853 162Q833 115 789 80T688 22T569 -13T449 -25Q348 -25 272 -1T144 67T66 174T40 313Q40 404 70 485T174 628T371 724T679 760H816Q816 871 809 944T785 1060T745 1120T687 1137Q649 1137 624 1114T583 1048T561
943T554 803Q511 803 464 804T370 812T282 830T208 864T157 919T138 999Q138 1065 172 1124T278 1227T460 1298T722 1325Q899 1325 1027 1289T1237 1181T1359 1000T1399 743V389Q1399 346 1410 322T1438 286T1475 268T1511 258T1539 243T1551 211Q1551 111 1462
56T1199 0ZM614 1850Q614 1796 633 1762T680 1707T739 1680T795 1672Q819 1672 850 1679T908 1707T954 1761T973 1850Q973 1904 955 1939T909 1994T850 2022T795 2030Q771 2030 740 2023T681 1995T634 1939T614 1850ZM340 1852Q340 1932 363 1992T423 2097T509
2171T608 2218T708 2243T797 2251Q840 2251 890 2244T992 2219T1090 2172T1174 2098T1233 1993T1255 1852Q1255 1773 1233 1713T1175 1608T1091 1534T992 1487T891 1462T797 1454Q758 1454 709 1461T609 1486T510 1533T424 1607T363 1712T340 1852Z" />
<glyph unicode="&#xe6;" glyph-name="ae" horiz-adv-x="2118" d="M1502 1325Q1636 1325 1743 1285T1926 1175T2042 1011T2083 807Q2083 762 2071 737T2035 700T1978 685T1901 682H1420Q1420 572 1442 504T1505 397T1601 346T1725 332Q1771 332 1819 344T1908 372T1979
399T2020 412Q2043 412 2056 393T2069 348Q2069 340 2069 333T2065 319Q2036 245 1986 183T1864 74T1699 1T1488 -25Q1443 -25 1404 -18T1330 1T1266 28T1213 59Q1158 96 1117 143Q1105 110 1054 80T926 26T757 -11T566 -25Q466 -25 371 -8T202 49T83 153T38 313Q38
404 68 485T172 628T369 724T677 760H814Q814 871 807 944T783 1060T743 1120T685 1137Q647 1137 622 1114T581 1048T559 943T552 803Q509 803 462 804T368 812T280 830T206 864T155 919T136 999Q136 1065 170 1124T276 1227T458 1298T720 1325Q829 1325 905 1305T1028
1262Q1083 1235 1117 1200Q1168 1235 1229 1262Q1281 1285 1351 1305T1502 1325ZM715 205Q748 205 768 215T799 245T814 293T818 358Q818 389 817 437T815 531Q813 585 812 643Q798 645 786 646T760 647Q709 647 675 627T620 570T591 484T582 377Q582 342 586 311T604
256T644 219T715 205ZM1576 1069Q1544 1069 1516 1055T1468 1010T1436 934T1424 823H1744Q1744 893 1733 940T1701 1016T1648 1057T1576 1069Z" />
<glyph unicode="&#xe7;" glyph-name="ccedilla" horiz-adv-x="1331" d="M730 1325Q879 1325 984 1292T1157 1203T1256 1072T1287 913Q1287 878 1276 851T1247 805T1202 776T1146 766Q1120 766 1093 775T1042 804T999 856T970 934Q962 967 946 992T910 1034T865
1060T816 1069Q773 1069 742 1051T689 999T658 915T648 803Q648 563 720 448T953 332Q999 332 1047 344T1136 372T1207 399T1248 412Q1271 412 1284 393T1297 348Q1297 340 1297 333T1293 319Q1264 245 1211 183T1085 74T918 1T716 -25Q604 -25 511 1T344 75T214
187T121 326T65 484T46 651Q46 736 65 819T122 978T217 1116T350 1226T521 1299T730 1325ZM453 -326Q472 -338 500 -352T561 -380T628 -401T695 -410Q720 -410 742 -404T781 -381T806 -340T816 -276Q816 -247 804 -216T765 -151T695 -80T587 0H795Q854 -13 908
-40T1003 -106T1068 -194T1092 -301Q1092 -381 1064 -440T989 -537T880 -595T752 -614Q672 -614 594 -587T453 -506V-326Z" />
<glyph unicode="&#xe8;" glyph-name="egrave" horiz-adv-x="1346" d="M803 1069Q771 1069 743 1055T695 1010T663 934T651 823H970Q970 893 959 940T927 1016T875 1057T803 1069ZM729 1325Q863 1325 970 1285T1153 1175T1269 1011T1310 807Q1310 762 1298 737T1262
700T1205 685T1128 682H647Q647 572 669 504T732 397T828 346T952 332Q988 332 1026 339T1100 357T1166 380T1216 403Q1232 412 1247 412Q1270 412 1283 393T1296 349Q1296 341 1295 334T1291 320Q1262 246 1212 183T1091 74T925 1T714 -25Q602 -25 510 1T343 75T212
187T119 326T64 484T45 651Q45 736 64 819T121 978T216 1116T349 1226T520 1299T729 1325ZM890 1551Q890 1535 882 1518T861 1487T830 1463T794 1454Q758 1454 695 1487T529 1596Q490 1625 445 1657T354 1726T266 1800T190 1880T138 1965T118 2055Q118 2096 135
2137T183 2210T257 2263T355 2284Q423 2284 476 2243T576 2138T666 1994T758 1839Q797 1778 822 1733T863 1655T884 1597T890 1551Z" />
<glyph unicode="&#xe9;" glyph-name="eacute" horiz-adv-x="1346" d="M803 1069Q771 1069 743 1055T695 1010T663 934T651 823H970Q970 893 959 940T927 1016T875 1057T803 1069ZM729 1325Q863 1325 970 1285T1153 1175T1269 1011T1310 807Q1310 762 1298 737T1262
700T1205 685T1128 682H647Q647 572 669 504T732 397T828 346T952 332Q988 332 1026 339T1100 357T1166 380T1216 403Q1232 412 1247 412Q1270 412 1283 393T1296 349Q1296 341 1295 334T1291 320Q1262 246 1212 183T1091 74T925 1T714 -25Q602 -25 510 1T343 75T212
187T119 326T64 484T45 651Q45 736 64 819T121 978T216 1116T349 1226T520 1299T729 1325ZM367 1551Q367 1572 373 1596T394 1654T434 1733T498 1839Q546 1915 590 1994T680 2137T780 2243T901 2284Q955 2284 998 2264T1073 2211T1122 2137T1139 2055Q1139 2009
1120 1966T1067 1881T992 1801T903 1726T812 1658T727 1596Q626 1520 562 1487T463 1454Q445 1454 428 1463T397 1486T375 1518T367 1551Z" />
<glyph unicode="&#xea;" glyph-name="ecircumflex" horiz-adv-x="1346" d="M803 1069Q771 1069 743 1055T695 1010T663 934T651 823H970Q970 893 959 940T927 1016T875 1057T803 1069ZM729 1325Q863 1325 970 1285T1153 1175T1269 1011T1310 807Q1310 762 1298
737T1262 700T1205 685T1128 682H647Q647 572 669 504T732 397T828 346T952 332Q988 332 1026 339T1100 357T1166 380T1216 403Q1232 412 1247 412Q1270 412 1283 393T1296 349Q1296 341 1295 334T1291 320Q1262 246 1212 183T1091 74T925 1T714 -25Q602 -25 510
1T343 75T212 187T119 326T64 484T45 651Q45 736 64 819T121 978T216 1116T349 1226T520 1299T729 1325ZM732 2253Q802 2253 852 2222T944 2124T1028 1957T1123 1718L1165 1608Q1178 1573 1178 1544Q1178 1518 1169 1498T1144 1464T1108 1443T1066 1436Q1039 1436
1019 1443T976 1469T925 1525T853 1618L732 1780L612 1618Q569 1561 541 1525T490 1470T447 1443T399 1436Q378 1436 358 1443T322 1463T297 1497T287 1544Q287 1573 300 1608L342 1719Q395 1857 436 1958T520 2124T612 2221T732 2253Z" />
<glyph unicode="&#xeb;" glyph-name="edieresis" horiz-adv-x="1346" d="M803 1069Q771 1069 743 1055T695 1010T663 934T651 823H970Q970 893 959 940T927 1016T875 1057T803 1069ZM729 1325Q863 1325 970 1285T1153 1175T1269 1011T1310 807Q1310 762 1298 737T1262
700T1205 685T1128 682H647Q647 572 669 504T732 397T828 346T952 332Q988 332 1026 339T1100 357T1166 380T1216 403Q1232 412 1247 412Q1270 412 1283 393T1296 349Q1296 341 1295 334T1291 320Q1262 246 1212 183T1091 74T925 1T714 -25Q602 -25 510 1T343 75T212
187T119 326T64 484T45 651Q45 736 64 819T121 978T216 1116T349 1226T520 1299T729 1325ZM-20 1702Q-20 1777 10 1825T85 1900T178 1939T264 1950Q304 1950 353 1939T446 1901T519 1825T549 1702Q549 1628 520 1580T447 1504T354 1465T264 1454Q227 1454 178 1465T85
1504T11 1580T-20 1702ZM842 1702Q842 1777 872 1825T947 1900T1041 1939T1127 1950Q1167 1950 1216 1939T1308 1901T1381 1825T1411 1702Q1411 1628 1382 1580T1309 1504T1216 1465T1127 1454Q1090 1454 1041 1465T948 1504T873 1580T842 1702Z" />
<glyph unicode="&#xec;" glyph-name="igrave" horiz-adv-x="1024" d="M824 381Q824 341 835 319T862 286T898 270T933 261T961 247T972 215Q972 101 854 51T513 0Q405 0 322 12T182 50T96 117T66 215Q66 237 77 246T104 261T139 270T174 285T201 318T212 381V915Q212
955 201 977T174 1010T139 1026T104 1035T77 1049T66 1081Q66 1138 95 1178T182 1245T322 1284T513 1296Q621 1296 683 1285T776 1248T816 1176T824 1063V381ZM762 1533Q762 1517 754 1500T733 1469T702 1445T666 1436Q630 1436 567 1469T401 1578Q362 1607 317
1639T226 1708T138 1782T62 1862T10 1947T-10 2037Q-10 2078 7 2119T55 2192T129 2245T227 2266Q295 2266 348 2225T448 2120T538 1976T630 1821Q669 1760 694 1715T735 1637T756 1579T762 1533Z" />
<glyph unicode="&#xed;" glyph-name="iacute" horiz-adv-x="1024" d="M824 381Q824 341 835 319T862 286T898 270T933 261T961 247T972 215Q972 101 854 51T513 0Q405 0 322 12T182 50T96 117T66 215Q66 237 77 246T104 261T139 270T174 285T201 318T212 381V915Q212
955 201 977T174 1010T139 1026T104 1035T77 1049T66 1081Q66 1138 95 1178T182 1245T322 1284T513 1296Q621 1296 683 1285T776 1248T816 1176T824 1063V381ZM84 1502Q84 1523 90 1547T111 1605T151 1684T215 1790Q263 1866 307 1945T397 2088T497 2194T618 2235Q672
2235 715 2215T790 2162T839 2088T856 2006Q856 1960 837 1917T784 1832T709 1752T620 1677T529 1609T444 1547Q343 1471 279 1438T180 1405Q162 1405 145 1414T114 1437T92 1469T84 1502Z" />
<glyph unicode="&#xee;" glyph-name="icircumflex" horiz-adv-x="1024" d="M824 381Q824 341 835 319T862 286T898 270T933 261T961 247T972 215Q972 101 854 51T513 0Q405 0 322 12T182 50T96 117T66 215Q66 237 77 246T104 261T139 270T174 285T201 318T212
381V915Q212 955 201 977T174 1010T139 1026T104 1035T77 1049T66 1081Q66 1138 95 1178T182 1245T322 1284T513 1296Q621 1296 683 1285T776 1248T816 1176T824 1063V381ZM474 2230Q544 2230 594 2199T686 2101T770 1934T865 1695L907 1585Q920 1550 920 1521Q920
1495 911 1475T886 1441T850 1420T808 1413Q781 1413 761 1420T718 1446T667 1502T595 1595L474 1757L354 1595Q311 1538 283 1502T232 1447T189 1420T141 1413Q120 1413 100 1420T64 1440T39 1474T29 1521Q29 1550 42 1585L84 1696Q137 1834 178 1935T262 2101T354
2198T474 2230Z" />
<glyph unicode="&#xef;" glyph-name="idieresis" horiz-adv-x="1024" d="M824 381Q824 341 835 319T862 286T898 270T933 261T961 247T972 215Q972 101 854 51T513 0Q405 0 322 12T182 50T96 117T66 215Q66 237 77 246T104 261T139 270T174 285T201 318T212 381V915Q212
955 201 977T174 1010T139 1026T104 1035T77 1049T66 1081Q66 1138 95 1178T182 1245T322 1284T513 1296Q621 1296 683 1285T776 1248T816 1176T824 1063V381ZM-223 1634Q-223 1709 -193 1757T-118 1832T-25 1871T61 1882Q101 1882 150 1871T243 1833T316 1757T346
1634Q346 1560 317 1512T244 1436T151 1397T61 1386Q24 1386 -25 1397T-118 1436T-192 1512T-223 1634ZM639 1634Q639 1709 669 1757T744 1832T838 1871T924 1882Q964 1882 1013 1871T1105 1833T1178 1757T1208 1634Q1208 1560 1179 1512T1106 1436T1013 1397T924
1386Q887 1386 838 1397T745 1436T670 1512T639 1634Z" />
<glyph unicode="&#xf0;" glyph-name="eth" horiz-adv-x="1567" d="M335 1618Q485 1618 615 1593T859 1521L981 1599Q1006 1615 1026 1626T1063 1637Q1078 1637 1091 1628T1119 1597Q1137 1570 1137 1550Q1137 1525 1115 1507T1058 1466L1019 1441Q1141 1367 1233
1272T1388 1069T1483 846T1515 619Q1515 486 1469 365T1329 152T1093 6T759 -49Q632 -49 528 -26T342 39T200 137T101 259T43 397T24 543Q24 644 60 740T166 910T336 1030T566 1075Q644 1075 725 1056T892 994Q866 1077 816 1136T704 1237L585 1160Q561 1144 541
1133T502 1122Q487 1122 474 1131T446 1162Q430 1188 430 1208Q430 1232 450 1251T502 1290L545 1317Q505 1332 467 1343T397 1363T338 1379T296 1392Q259 1406 241 1438T222 1506Q222 1527 229 1547T250 1582T286 1608T335 1618ZM790 791Q751 791 720 762T668
686T634 581T622 465Q622 416 630 371T658 292T706 238T777 217Q819 217 848 240T895 325T921 497T929 781Q927 783 912 786Q899 788 871 789T790 791Z" />
<glyph unicode="&#xf1;" glyph-name="ntilde" horiz-adv-x="1967" d="M822 385Q822 344 833 321T860 287T896 271T931 261T959 247T970 215Q970 101 852 51T511 0Q403 0 320 12T180 50T94 117T64 215Q64 237 75 246T102 261T137 270T172 285T199 318T210 381V915Q210
955 199 977T172 1010T137 1026T102 1035T75 1049T64 1081Q64 1138 93 1178T180 1245T320 1284T511 1296Q609 1296 667 1280T757 1243Q794 1219 808 1190Q860 1227 932 1257Q994 1283 1083 1304T1293 1325Q1403 1325 1482 1298T1617 1224T1707 1116T1759 987T1784
852T1791 721V390Q1791 348 1802 325T1830 289T1866 272T1903 262T1931 247T1942 215Q1942 101 1825 51T1484 0Q1376 0 1293 12T1153 50T1067 117T1037 215Q1037 237 1048 246T1076 261T1112 270T1148 285T1176 318T1187 381V808Q1187 870 1178 918T1146 1000T1086
1051T994 1069Q959 1069 928 1058T874 1026T838 977T824 915L822 385ZM1751 1975Q1716 1846 1670 1762T1567 1629T1448 1561T1315 1541Q1239 1541 1158 1558T996 1596T833 1634T673 1651Q639 1651 609 1645T555 1625T519 1587T505 1530Q505 1526 509 1526L387 1649Q430
1778 478 1862T580 1995T691 2064T812 2084Q884 2084 962 2066T1125 2026T1302 1986T1494 1967Q1524 1967 1549 1973T1592 1995T1620 2034T1630 2093Q1630 2098 1628 2100L1751 1975Z" />
<glyph unicode="&#xf2;" glyph-name="ograve" horiz-adv-x="1572" d="M760 -25Q641 -25 542 3T363 79T223 194T123 336T63 496T43 662Q43 747 64 829T129 986T238 1122T390 1229T587 1299T829 1325Q945 1325 1041 1299T1216 1228T1352 1120T1450 985T1508 831T1528
668Q1528 583 1507 498T1444 336T1337 193T1188 79T995 3T760 -25ZM805 231Q838 231 860 250T897 307T917 396T923 514Q923 571 922 634T917 759T904 877T879 976T837 1044T776 1069Q741 1069 717 1050T676 995T653 911T645 803Q645 748 647 684T655 557T672 434T701
330T744 258T805 231ZM958 1551Q958 1535 950 1518T929 1487T898 1463T862 1454Q826 1454 763 1487T597 1596Q558 1625 513 1657T422 1726T334 1800T258 1880T206 1965T186 2055Q186 2096 203 2137T251 2210T325 2263T423 2284Q491 2284 544 2243T644 2138T734
1994T826 1839Q865 1778 890 1733T931 1655T952 1597T958 1551Z" />
<glyph unicode="&#xf3;" glyph-name="oacute" horiz-adv-x="1572" d="M760 -25Q641 -25 542 3T363 79T223 194T123 336T63 496T43 662Q43 747 64 829T129 986T238 1122T390 1229T587 1299T829 1325Q945 1325 1041 1299T1216 1228T1352 1120T1450 985T1508 831T1528
668Q1528 583 1507 498T1444 336T1337 193T1188 79T995 3T760 -25ZM805 231Q838 231 860 250T897 307T917 396T923 514Q923 571 922 634T917 759T904 877T879 976T837 1044T776 1069Q741 1069 717 1050T676 995T653 911T645 803Q645 748 647 684T655 557T672 434T701
330T744 258T805 231ZM452 1551Q452 1572 458 1596T479 1654T519 1733T583 1839Q631 1915 675 1994T765 2137T865 2243T986 2284Q1040 2284 1083 2264T1158 2211T1207 2137T1224 2055Q1224 2009 1205 1966T1152 1881T1077 1801T988 1726T897 1658T812 1596Q711
1520 647 1487T548 1454Q530 1454 513 1463T482 1486T460 1518T452 1551Z" />
<glyph unicode="&#xf4;" glyph-name="ocircumflex" horiz-adv-x="1572" d="M760 -25Q641 -25 542 3T363 79T223 194T123 336T63 496T43 662Q43 747 64 829T129 986T238 1122T390 1229T587 1299T829 1325Q945 1325 1041 1299T1216 1228T1352 1120T1450 985T1508
831T1528 668Q1528 583 1507 498T1444 336T1337 193T1188 79T995 3T760 -25ZM805 231Q838 231 860 250T897 307T917 396T923 514Q923 571 922 634T917 759T904 877T879 976T837 1044T776 1069Q741 1069 717 1050T676 995T653 911T645 803Q645 748 647 684T655 557T672
434T701 330T744 258T805 231ZM786 2253Q856 2253 906 2222T998 2124T1082 1957T1177 1718L1219 1608Q1232 1573 1232 1544Q1232 1518 1223 1498T1198 1464T1162 1443T1120 1436Q1093 1436 1073 1443T1030 1469T979 1525T907 1618L786 1780L666 1618Q623 1561 595
1525T544 1470T501 1443T453 1436Q432 1436 412 1443T376 1463T351 1497T341 1544Q341 1573 354 1608L396 1719Q449 1857 490 1958T574 2124T666 2221T786 2253Z" />
<glyph unicode="&#xf5;" glyph-name="otilde" horiz-adv-x="1572" d="M760 -25Q641 -25 542 3T363 79T223 194T123 336T63 496T43 662Q43 747 64 829T129 986T238 1122T390 1229T587 1299T829 1325Q945 1325 1041 1299T1216 1228T1352 1120T1450 985T1508 831T1528
668Q1528 583 1507 498T1444 336T1337 193T1188 79T995 3T760 -25ZM805 231Q838 231 860 250T897 307T917 396T923 514Q923 571 922 634T917 759T904 877T879 976T837 1044T776 1069Q741 1069 717 1050T676 995T653 911T645 803Q645 748 647 684T655 557T672 434T701
330T744 258T805 231ZM1558 1975Q1523 1846 1477 1762T1374 1629T1255 1561T1122 1541Q1046 1541 965 1558T803 1596T640 1634T480 1651Q446 1651 416 1645T362 1625T326 1587T312 1530Q312 1526 316 1526L194 1649Q237 1778 285 1862T387 1995T498 2064T619 2084Q691
2084 769 2066T932 2026T1109 1986T1301 1967Q1331 1967 1356 1973T1399 1995T1427 2034T1437 2093Q1437 2098 1435 2100L1558 1975Z" />
<glyph unicode="&#xf6;" glyph-name="odieresis" horiz-adv-x="1572" d="M760 -25Q641 -25 542 3T363 79T223 194T123 336T63 496T43 662Q43 747 64 829T129 986T238 1122T390 1229T587 1299T829 1325Q945 1325 1041 1299T1216 1228T1352 1120T1450 985T1508 831T1528
668Q1528 583 1507 498T1444 336T1337 193T1188 79T995 3T760 -25ZM805 231Q838 231 860 250T897 307T917 396T923 514Q923 571 922 634T917 759T904 877T879 976T837 1044T776 1069Q741 1069 717 1050T676 995T653 911T645 803Q645 748 647 684T655 557T672 434T701
330T744 258T805 231ZM70 1702Q70 1777 100 1825T175 1900T268 1939T354 1950Q394 1950 443 1939T536 1901T609 1825T639 1702Q639 1628 610 1580T537 1504T444 1465T354 1454Q317 1454 268 1465T175 1504T101 1580T70 1702ZM932 1702Q932 1777 962 1825T1037 1900T1131
1939T1217 1950Q1257 1950 1306 1939T1398 1901T1471 1825T1501 1702Q1501 1628 1472 1580T1399 1504T1306 1465T1217 1454Q1180 1454 1131 1465T1038 1504T963 1580T932 1702Z" />
<glyph unicode="&#xf7;" glyph-name="divide" horiz-adv-x="1106" d="M578 124Q516 124 470 142T394 191T348 260T332 340Q332 380 347 419T393 488T470 537T578 556Q639 556 685 538T763 489T809 419T825 340Q825 299 810 260T764 191T687 143T578 124ZM578 896Q516
896 470 914T394 963T348 1032T332 1112Q332 1152 347 1191T393 1260T470 1309T578 1328Q639 1328 685 1310T763 1261T809 1191T825 1112Q825 1071 810 1032T764 963T687 915T578 896ZM43 727Q43 761 53 781T83 810T129 822T190 825H904Q940 825 969 824T1018 813T1050
784T1061 727Q1061 690 1050 670T1019 641T969 631T904 629H190Q157 629 130 630T83 641T54 670T43 727Z" />
<glyph unicode="&#xf8;" glyph-name="oslash" horiz-adv-x="1571" d="M223 -82Q223 -62 228 -46T243 -14L1132 1442Q1147 1467 1173 1486T1234 1505Q1275 1505 1302 1493T1345 1463T1369 1426T1376 1393Q1376 1373 1371 1357T1355 1325L466 -131Q452 -154 425
-174T360 -195Q335 -195 311 -187T267 -163T235 -127T223 -82ZM759 -25Q640 -25 541 3T362 79T222 194T122 336T62 496T42 662Q42 747 63 829T128 986T237 1122T389 1229T586 1299T828 1325Q944 1325 1040 1299T1215 1228T1351 1120T1449 985T1507 831T1527 668Q1527
583 1506 498T1443 336T1336 193T1187 79T994 3T759 -25ZM804 231Q837 231 859 250T896 307T916 396T922 514Q922 571 921 634T916 759T903 877T878 976T836 1044T775 1069Q740 1069 716 1050T675 995T652 911T644 803Q644 748 646 684T654 557T671 434T700 330T743
258T804 231Z" />
<glyph unicode="&#xf9;" glyph-name="ugrave" horiz-adv-x="1940" d="M1147 911Q1147 952 1136 975T1109 1009T1073 1025T1038 1035T1010 1049T999 1081Q999 1195 1117 1245T1458 1296Q1533 1296 1584 1282T1668 1243T1720 1183T1747 1106T1757 1015T1759 915V379Q1759
339 1769 317T1796 284T1831 268T1866 259T1893 245T1904 213Q1904 99 1789 49T1458 -2Q1405 -2 1364 6T1293 27T1240 56T1203 91Q1168 131 1159 184Q1107 125 1036 79Q1006 59 968 41T885 8T788 -16T676 -25Q566 -25 486 2T351 76T261 183T208 311T183 446T176
577V906Q176 948 165 971T137 1007T101 1024T65 1034T37 1049T26 1081Q26 1195 144 1245T485 1296Q584 1296 643 1272T733 1207T773 1108T782 985V491Q782 429 791 381T823 298T883 247T975 229Q1010 229 1041 240T1095 271T1131 318T1145 379L1147 911ZM1026 1551Q1026
1535 1018 1518T997 1487T966 1463T930 1454Q894 1454 831 1487T665 1596Q626 1625 581 1657T490 1726T402 1800T326 1880T274 1965T254 2055Q254 2096 271 2137T319 2210T393 2263T491 2284Q559 2284 612 2243T712 2138T802 1994T894 1839Q933 1778 958 1733T999
1655T1020 1597T1026 1551Z" />
<glyph unicode="&#xfa;" glyph-name="uacute" horiz-adv-x="1940" d="M1147 911Q1147 952 1136 975T1109 1009T1073 1025T1038 1035T1010 1049T999 1081Q999 1195 1117 1245T1458 1296Q1533 1296 1584 1282T1668 1243T1720 1183T1747 1106T1757 1015T1759 915V379Q1759
339 1769 317T1796 284T1831 268T1866 259T1893 245T1904 213Q1904 99 1789 49T1458 -2Q1405 -2 1364 6T1293 27T1240 56T1203 91Q1168 131 1159 184Q1107 125 1036 79Q1006 59 968 41T885 8T788 -16T676 -25Q566 -25 486 2T351 76T261 183T208 311T183 446T176
577V906Q176 948 165 971T137 1007T101 1024T65 1034T37 1049T26 1081Q26 1195 144 1245T485 1296Q584 1296 643 1272T733 1207T773 1108T782 985V491Q782 429 791 381T823 298T883 247T975 229Q1010 229 1041 240T1095 271T1131 318T1145 379L1147 911ZM525 1551Q525
1572 531 1596T552 1654T592 1733T656 1839Q704 1915 748 1994T838 2137T938 2243T1059 2284Q1113 2284 1156 2264T1231 2211T1280 2137T1297 2055Q1297 2009 1278 1966T1225 1881T1150 1801T1061 1726T970 1658T885 1596Q784 1520 720 1487T621 1454Q603 1454
586 1463T555 1486T533 1518T525 1551Z" />
<glyph unicode="&#xfb;" glyph-name="ucircumflex" horiz-adv-x="1940" d="M1147 911Q1147 952 1136 975T1109 1009T1073 1025T1038 1035T1010 1049T999 1081Q999 1195 1117 1245T1458 1296Q1533 1296 1584 1282T1668 1243T1720 1183T1747 1106T1757 1015T1759
915V379Q1759 339 1769 317T1796 284T1831 268T1866 259T1893 245T1904 213Q1904 99 1789 49T1458 -2Q1405 -2 1364 6T1293 27T1240 56T1203 91Q1168 131 1159 184Q1107 125 1036 79Q1006 59 968 41T885 8T788 -16T676 -25Q566 -25 486 2T351 76T261 183T208 311T183
446T176 577V906Q176 948 165 971T137 1007T101 1024T65 1034T37 1049T26 1081Q26 1195 144 1245T485 1296Q584 1296 643 1272T733 1207T773 1108T782 985V491Q782 429 791 381T823 298T883 247T975 229Q1010 229 1041 240T1095 271T1131 318T1145 379L1147 911ZM958
2253Q1028 2253 1078 2222T1170 2124T1254 1957T1349 1718L1391 1608Q1404 1573 1404 1544Q1404 1518 1395 1498T1370 1464T1334 1443T1292 1436Q1265 1436 1245 1443T1202 1469T1151 1525T1079 1618L958 1780L838 1618Q795 1561 767 1525T716 1470T673 1443T625
1436Q604 1436 584 1443T548 1463T523 1497T513 1544Q513 1573 526 1608L568 1719Q621 1857 662 1958T746 2124T838 2221T958 2253Z" />
<glyph unicode="&#xfc;" glyph-name="udieresis" horiz-adv-x="1940" d="M1147 911Q1147 952 1136 975T1109 1009T1073 1025T1038 1035T1010 1049T999 1081Q999 1195 1117 1245T1458 1296Q1533 1296 1584 1282T1668 1243T1720 1183T1747 1106T1757 1015T1759 915V379Q1759
339 1769 317T1796 284T1831 268T1866 259T1893 245T1904 213Q1904 99 1789 49T1458 -2Q1405 -2 1364 6T1293 27T1240 56T1203 91Q1168 131 1159 184Q1107 125 1036 79Q1006 59 968 41T885 8T788 -16T676 -25Q566 -25 486 2T351 76T261 183T208 311T183 446T176
577V906Q176 948 165 971T137 1007T101 1024T65 1034T37 1049T26 1081Q26 1195 144 1245T485 1296Q584 1296 643 1272T733 1207T773 1108T782 985V491Q782 429 791 381T823 298T883 247T975 229Q1010 229 1041 240T1095 271T1131 318T1145 379L1147 911ZM209 1702Q209
1777 239 1825T314 1900T407 1939T493 1950Q533 1950 582 1939T675 1901T748 1825T778 1702Q778 1628 749 1580T676 1504T583 1465T493 1454Q456 1454 407 1465T314 1504T240 1580T209 1702ZM1071 1702Q1071 1777 1101 1825T1176 1900T1270 1939T1356 1950Q1396
1950 1445 1939T1537 1901T1610 1825T1640 1702Q1640 1628 1611 1580T1538 1504T1445 1465T1356 1454Q1319 1454 1270 1465T1177 1504T1102 1580T1071 1702Z" />
<glyph unicode="&#xfd;" glyph-name="yacute" horiz-adv-x="1651" d="M995 639L1142 952Q1150 969 1151 977T1152 994V1008Q1152 1021 1132 1034T1087 1061T1042 1091T1021 1126Q1021 1179 1060 1212T1157 1264T1283 1289T1406 1296Q1536 1296 1606 1257T1677
1126Q1677 1103 1664 1091T1628 1070T1579 1056T1524 1037T1473 1006T1433 952L935 -127Q876 -255 817 -343T698 -487T580 -567T464 -592Q394 -592 333 -561T227 -479T156 -366T130 -242Q130 -163 147 -110T193 -24T256 23T329 37Q374 37 405 16T456 -37T488 -106T511
-175T530 -228T552 -250Q561 -250 574 -237T606 -192T648 -109T704 16L198 952Q179 987 155 1006T107 1036T59 1052T18 1065T-12 1086T-23 1126Q-23 1163 -4 1190T48 1236T126 1266T222 1284T330 1293T442 1296Q556 1296 641 1289T782 1264T866 1212T894 1126Q894
1107 876 1093T837 1067T798 1044T780 1017Q780 1014 782 1008Q787 997 793 986T810 952L995 639ZM565 1551Q565 1572 571 1596T592 1654T632 1733T696 1839Q744 1915 788 1994T878 2137T978 2243T1099 2284Q1153 2284 1196 2264T1271 2211T1320 2137T1337 2055Q1337
2009 1318 1966T1265 1881T1190 1801T1101 1726T1010 1658T925 1596Q824 1520 760 1487T661 1454Q643 1454 626 1463T595 1486T573 1518T565 1551Z" />
<glyph unicode="&#xfe;" glyph-name="thorn" horiz-adv-x="1734" d="M452 -614Q345 -614 262 -602T122 -564T36 -497T6 -399Q6 -377 16 -368T43 -353T78 -344T113 -329T140 -296T151 -233V1300Q151 1341 141 1362T114 1395T79 1411T44 1420T17 1434T6 1466Q6 1523
35 1563T122 1630T262 1669T452 1681Q569 1681 632 1667T725 1620T759 1534T764 1401V1194Q791 1218 828 1241T915 1283T1027 1313T1167 1325Q1268 1325 1346 1296T1481 1218T1577 1101T1639 958T1673 801T1683 641Q1683 557 1670 475T1629 317T1559 177T1457 66T1322
-8T1153 -35Q1079 -35 1019 -24T910 5T826 45T764 90V-229Q764 -269 774 -291T801 -324T836 -340T871 -349T898 -363T909 -395Q909 -452 878 -493T788 -561T645 -601T452 -614ZM884 1069Q847 1069 817 1057T764 1028V272Q791 255 826 242T903 229Q959 229 989 248T1033
315T1049 440T1052 637Q1052 761 1043 844T1014 977T962 1048T884 1069Z" />
<glyph unicode="&#xff;" glyph-name="ydieresis" horiz-adv-x="1651" d="M995 639L1142 952Q1150 969 1151 977T1152 994V1008Q1152 1021 1132 1034T1087 1061T1042 1091T1021 1126Q1021 1179 1060 1212T1157 1264T1283 1289T1406 1296Q1536 1296 1606 1257T1677
1126Q1677 1103 1664 1091T1628 1070T1579 1056T1524 1037T1473 1006T1433 952L935 -127Q876 -255 817 -343T698 -487T580 -567T464 -592Q394 -592 333 -561T227 -479T156 -366T130 -242Q130 -163 147 -110T193 -24T256 23T329 37Q374 37 405 16T456 -37T488 -106T511
-175T530 -228T552 -250Q561 -250 574 -237T606 -192T648 -109T704 16L198 952Q179 987 155 1006T107 1036T59 1052T18 1065T-12 1086T-23 1126Q-23 1163 -4 1190T48 1236T126 1266T222 1284T330 1293T442 1296Q556 1296 641 1289T782 1264T866 1212T894 1126Q894
1107 876 1093T837 1067T798 1044T780 1017Q780 1014 782 1008Q787 997 793 986T810 952L995 639ZM123 1702Q123 1777 153 1825T228 1900T321 1939T407 1950Q447 1950 496 1939T589 1901T662 1825T692 1702Q692 1628 663 1580T590 1504T497 1465T407 1454Q370 1454
321 1465T228 1504T154 1580T123 1702ZM985 1702Q985 1777 1015 1825T1090 1900T1184 1939T1270 1950Q1310 1950 1359 1939T1451 1901T1524 1825T1554 1702Q1554 1628 1525 1580T1452 1504T1359 1465T1270 1454Q1233 1454 1184 1465T1091 1504T1016 1580T985 1702Z"
/>
<glyph unicode="&#x2013;" glyph-name="endash" horiz-adv-x="1267" d="M52 617Q52 669 69 702T111 754T165 780T221 788H1047Q1075 788 1104 781T1158 754T1199 702T1215 617Q1215 565 1199 532T1159 480T1105 454T1047 446H221Q195 446 166 453T111 480T69 532T52 617Z" />
<glyph unicode="&#x2014;" glyph-name="emdash" horiz-adv-x="1852" d="M52 617Q52 669 69 702T111 754T165 780T221 788H1632Q1660 788 1689 781T1743 754T1784 702T1800 617Q1800 565 1784 532T1744 480T1690 454T1632 446H221Q195 446 166 453T111 480T69 532T52 617Z" />
<glyph unicode="&#x2018;" glyph-name="quoteleft" horiz-adv-x="730" d="M423 1234Q491 1234 541 1216T625 1167T674 1098T691 1017Q691 938 666 878T597 778T499 718T386 698Q323 698 262 721T153 793T76 913T46 1083Q46 1172 77 1263T168 1428T313 1548T507
1595Q533 1595 551 1578T570 1539Q570 1512 559 1496T532 1466T497 1436T461 1395T434 1332T423 1234Z" />
<glyph unicode="&#x2019;" glyph-name="quoteright" horiz-adv-x="718" d="M301 1058Q233 1058 183 1076T99 1125T50 1195T33 1275Q33 1354 59 1414T127 1514T225 1574T338 1595Q401 1595 462 1572T571 1500T648 1380T678 1210Q678 1150 664 1089T623 972T556
865T465 778T352 720T217 698Q191 698 173 714T154 753Q154 780 165 796T192 826T227 856T263 897T290 960T301 1058Z" />
<glyph unicode="&#x201a;" glyph-name="quotesinglbase" horiz-adv-x="683" d="M616 135Q593 16 577 -72T547 -225T516 -331T477 -397T421 -431T337 -441Q293 -441 263 -432T212 -398T176 -331T146 -225T113 -71T69 139Q55 198 55 249Q55 298 69 340T116 413T203
461T337 479Q420 479 475 461T565 412T613 337T627 242Q627 193 616 135Z" />
<glyph unicode="&#x201c;" glyph-name="quotedblleft" horiz-adv-x="1436" d="M423 1234Q491 1234 541 1216T625 1167T674 1098T691 1017Q691 938 666 878T597 778T499 718T386 698Q323 698 262 721T153 793T76 913T46 1083Q46 1172 77 1263T168 1428T313 1548T507
1595Q533 1595 551 1578T570 1539Q570 1512 559 1496T532 1466T497 1436T461 1395T434 1332T423 1234ZM1129 1234Q1197 1234 1247 1216T1331 1167T1380 1098T1397 1017Q1397 938 1372 878T1303 778T1205 718T1092 698Q1029 698 968 721T859 793T782 913T752 1083Q752
1172 783 1263T874 1428T1019 1548T1213 1595Q1239 1595 1257 1578T1276 1539Q1276 1512 1265 1496T1238 1466T1203 1436T1167 1395T1140 1332T1129 1234Z" />
<glyph unicode="&#x201d;" glyph-name="quotedblright" horiz-adv-x="1412" d="M301 1058Q233 1058 183 1076T99 1125T50 1195T33 1275Q33 1354 59 1414T127 1514T225 1574T338 1595Q401 1595 462 1572T571 1500T648 1380T678 1210Q678 1150 664 1089T623 972T556
865T465 778T352 720T217 698Q191 698 173 714T154 753Q154 780 165 796T192 826T227 856T263 897T290 960T301 1058ZM996 1058Q928 1058 878 1076T794 1125T745 1195T728 1275Q728 1354 754 1414T822 1514T920 1574T1033 1595Q1096 1595 1157 1572T1266 1500T1343
1380T1373 1210Q1373 1150 1359 1089T1318 972T1251 865T1160 778T1047 720T912 698Q886 698 868 714T849 753Q849 780 860 796T887 826T922 856T958 897T985 960T996 1058Z" />
<glyph unicode="&#x201e;" glyph-name="quotedblbase" horiz-adv-x="1353" d="M1286 135Q1263 16 1247 -72T1217 -225T1186 -331T1147 -397T1091 -431T1007 -441Q963 -441 933 -432T882 -398T846 -331T816 -225T783 -71T739 139Q725 198 725 249Q725 298 739 340T786
413T873 461T1007 479Q1090 479 1145 461T1235 412T1283 337T1297 242Q1297 193 1286 135ZM616 135Q593 16 577 -72T547 -225T516 -331T477 -397T421 -431T337 -441Q293 -441 263 -432T212 -398T176 -331T146 -225T113 -71T69 139Q55 198 55 249Q55 298 69 340T116
413T203 461T337 479Q420 479 475 461T565 412T613 337T627 242Q627 193 616 135Z" />
<glyph unicode="&#x2022;" glyph-name="bullet" horiz-adv-x="1151" d="M560 360Q438 360 346 401T192 509T99 660T68 829Q68 917 101 998T201 1143T369 1244T605 1282Q724 1282 813 1244T962 1142T1052 999T1082 834Q1082 745 1050 660T952 509T788 401T560 360Z" />
<glyph unicode="&#x2039;" glyph-name="guilsinglleft" horiz-adv-x="1056" d="M27 639Q27 705 42 753T93 839T184 911T324 979T518 1056T772 1153Q797 1161 816 1165T854 1169Q888 1169 914 1157T958 1125T984 1079T993 1026Q993 991 974 961T917 900T819 834T680
754L475 639L680 524Q760 479 819 444T916 378T974 317T993 252Q993 224 984 198T958 152T915 119T854 106Q836 106 817 111T772 125Q629 180 518 221T324 298T185 367T93 438T43 525T27 639Z" />
<glyph unicode="&#x203a;" glyph-name="guilsinglright" horiz-adv-x="964" d="M347 795Q280 859 226 909T134 1000T75 1078T54 1149Q54 1176 63 1201T89 1247T133 1280T194 1292Q237 1292 292 1268T408 1205T535 1116T665 1012Q722 965 775 919T869 827T934 734T959
639Q959 591 935 545T869 452T775 359T665 266Q601 213 536 163T409 73T292 10T194 -14Q159 -14 133 -2T90 30T63 76T54 129Q54 164 74 200T133 277T226 369T347 483L511 639L347 795Z" />
</font>
</defs>
</svg>
