<?xml version="1.0" standalone="no"?>
<!DOCTYPE svg PUBLIC "-//W3C//DTD SVG 1.1//EN" "http://www.w3.org/Graphics/SVG/1.1/DTD/svg11.dtd">
<svg xmlns="http://www.w3.org/2000/svg">
<defs >
<font id="FiraSansExtraCondensed" horiz-adv-x="447" ><font-face
    font-family="Fira Sans Extra Condensed ExtraLight"
    units-per-em="1000"
    panose-1="2 11 4 3 5 0 0 2 0 4"
    ascent="935"
    descent="-265"
    alphabetic="0" />
<glyph unicode=" " glyph-name="space" horiz-adv-x="230" />
<glyph unicode="!" glyph-name="exclam" horiz-adv-x="218" d="M132 684L129 213H89L85 684H132ZM126 67T136 56T147 28Q147 12 137 1T109 -11Q92 -11 82 0T71 28Q71 44 81 55T109 67Q126 67 136 56Z" />
<glyph unicode="&quot;" glyph-name="quotedbl" horiz-adv-x="326" d="M71 436L66 684H110L105 436H71ZM221 436L216 684H260L255 436H221Z" />
<glyph unicode="#" glyph-name="numbersign" horiz-adv-x="411" d="M399 454H337L307 224H369V187H302L277 0H236L261 187H111L86 0H46L71 187H12V224H76L106 454H42V491H111L134 664H174L151 491H301L324 664H365L342 491H399V454ZM266 224L296 454H146L116 224H266Z" />
<glyph unicode="$" glyph-name="dollar" horiz-adv-x="431" d="M386 107T344 54T235 -9V-149H196V-11Q146 -9 107 12T33 71L59 98Q92 64 126 46T205 28Q266 28 303 69T340 178Q340 238 312 272T209 336Q126 367 90 408T54 514Q54 575 94 620T196 672V816H235V672Q276
668 307 651T369 602L343 574Q311 606 282 620T215 634Q163 634 132 601T100 515Q100 463 128 432T229 373Q311 341 348 298T386 179Q386 107 344 54Z" />
<glyph unicode="%" glyph-name="percent" horiz-adv-x="660" d="M507 700L540 682L160 -21L127 -3L507 700ZM226 675T259 633T293 516Q293 440 261 398T172 355Q118 355 85 397T51 514Q51 590 83 632T172 675Q226 675 259 633ZM92 641T92 514Q92 456 111 423T172
389Q252 389 252 516Q252 574 233 607T172 641Q92 641 92 514ZM542 310T575 268T609 151Q609 75 576 32T488 -11Q434 -11 401 31T367 149Q367 225 399 267T488 310Q542 310 575 268ZM407 275T407 149Q407 91 426 58T488 24Q568 24 568 151Q568 209 549 242T488
275Q407 275 407 149Z" />
<glyph unicode="&amp;" glyph-name="ampersand" horiz-adv-x="592" d="M314 694T350 654T387 548Q387 491 357 450T259 362L431 161Q469 257 487 357L527 347Q505 230 459 134L563 16L530 -11L435 99Q399 46 355 18T251 -11Q202 -11 164 11T103 75T80 170Q80 234
109 279T199 369Q153 421 134 457T115 543Q115 611 152 652T253 694Q314 694 350 654ZM210 658T185 627T159 544Q159 505 173 475T233 389Q291 428 317 464T343 546Q343 600 319 629T253 658Q210 658 185 627ZM175 306T151 266T126 170Q126 105 161 67T252 28Q303
28 340 53T408 126L224 342Q175 306 151 266Z" />
<glyph unicode="&apos;" glyph-name="quotesingle" horiz-adv-x="176" d="M71 436L66 684H110L105 436H71Z" />
<glyph unicode="(" glyph-name="parenleft" horiz-adv-x="265" d="M221 815Q175 733 149 674T107 535T90 350Q90 244 106 165T149 26T221 -115L192 -134Q143 -54 113 10T64 158T45 350Q45 458 64 542T113 690T192 834L221 815Z" />
<glyph unicode=")" glyph-name="parenright" horiz-adv-x="265" d="M123 753T152 690T201 542T220 350Q220 242 201 158T153 11T74 -134L44 -115Q90 -33 116 26T158 165T175 350Q175 456 159 535T116 674T44 815L74 834Q123 753 152 690Z" />
<glyph unicode="*" glyph-name="asterisk" horiz-adv-x="370" d="M334 590L209 548L291 424L255 403L185 529L115 403L79 424L161 547L36 590L51 626L169 574L164 735H206L201 574L319 627L334 590Z" />
<glyph unicode="+" glyph-name="plus" horiz-adv-x="404" d="M224 501V351H347V310H224V161H182V310H57V351H182V501H224Z" />
<glyph unicode="," glyph-name="comma" horiz-adv-x="182" d="M110 67T120 56T131 28Q131 15 126 0T118 -21L73 -145H42L77 -6Q56 5 56 28Q56 45 66 56T93 67Q110 67 120 56Z" />
<glyph unicode="-" glyph-name="hyphen" horiz-adv-x="330" d="M57 293V333H273V293H57Z" />
<glyph unicode="." glyph-name="period" horiz-adv-x="179" d="M106 67T116 56T127 28Q127 12 117 1T89 -11Q72 -11 62 0T51 28Q51 44 61 55T89 67Q106 67 116 56Z" />
<glyph unicode="/" glyph-name="slash" horiz-adv-x="426" d="M290 801L328 793L136 -98L97 -90L290 801Z" />
<glyph unicode="0" glyph-name="zero" horiz-adv-x="465" d="M317 675T360 591T403 331Q403 156 360 73T233 -11Q62 -11 62 333Q62 508 105 591T233 675Q317 675 360 591ZM172 636T141 564T109 333Q109 172 140 100T233 28Q295 28 325 99T356 331Q356 493 326
564T233 636Q172 636 141 564Z" />
<glyph unicode="1" glyph-name="one" horiz-adv-x="336" d="M231 664V0H187V612L53 510L31 542L193 664H231Z" />
<glyph unicode="2" glyph-name="two" horiz-adv-x="381" d="M243 675T283 630T323 510Q323 445 301 387T230 255T75 41H338L331 0H25V40Q134 183 185 260T256 393T277 509Q277 569 249 602T172 636Q134 636 105 617T48 560L17 582Q51 630 88 652T174 675Q243 675
283 630Z" />
<glyph unicode="3" glyph-name="three" horiz-adv-x="398" d="M249 675T290 629T331 510Q331 444 300 406T212 354Q273 348 309 307T346 188Q346 100 300 45T176 -11Q126 -11 88 10T17 74L47 97Q78 59 106 44T175 28Q233 28 267 70T301 187Q301 263 265 298T165
333H128L133 369H162Q213 369 250 405T288 509Q288 569 259 603T178 637Q144 637 116 623T58 577L32 601Q64 639 100 657T180 675Q249 675 290 629Z" />
<glyph unicode="4" glyph-name="four" horiz-adv-x="424" d="M395 217V179H321V0H278V179H37V214L203 675L242 661L84 217H278L284 418H321V217H395Z" />
<glyph unicode="5" glyph-name="five" horiz-adv-x="400" d="M332 625H109V386Q152 419 205 419Q275 419 316 365T358 214Q358 113 311 51T183 -11Q135 -11 99 9T29 68L59 93Q85 60 114 45T183 29Q243 29 277 78T311 215Q311 300 281 340T196 381Q169 381 148
373T101 347H67V664H340L332 625Z" />
<glyph unicode="6" glyph-name="six" horiz-adv-x="440" d="M312 431T352 379T393 223Q393 109 350 49T235 -11Q145 -11 104 70T62 295Q62 478 114 576T259 675Q289 675 312 666T359 637L338 606Q302 636 258 636Q190 636 151 556T107 332Q132 378 167 404T248
431Q312 431 352 379ZM291 28T319 78T348 222Q348 309 320 351T243 393Q201 393 167 363T107 276Q109 153 139 91T235 28Q291 28 319 78Z" />
<glyph unicode="7" glyph-name="seven" horiz-adv-x="359" d="M329 664V628L112 -7L71 7L284 624H25V664H329Z" />
<glyph unicode="8" glyph-name="eight" horiz-adv-x="443" d="M338 318T367 278T397 171Q397 86 349 38T220 -11Q140 -11 93 37T46 169Q46 304 172 360Q117 386 94 420T70 511Q70 589 114 632T222 675Q286 675 330 634T375 511Q375 458 350 421T270 350Q338 318
367 278ZM114 462T134 434T213 378L241 364Q288 394 309 428T330 510Q330 575 301 606T222 638Q173 638 144 606T114 510Q114 462 134 434ZM282 28T317 63T352 170Q352 212 341 239T304 287T232 329L203 342Q144 315 118 274T91 169Q91 98 126 63T221 28Q282 28
317 63Z" />
<glyph unicode="9" glyph-name="nine" horiz-adv-x="429" d="M293 675T333 607T374 404Q374 278 344 197T254 67T101 -18L89 17Q204 61 263 134T328 342Q304 298 270 275T195 251Q152 251 118 275T64 347T44 458Q44 563 89 619T209 675Q293 675 333 607ZM240 289T271
315T329 393Q329 521 301 579T210 637Q153 637 122 593T91 457Q91 375 120 332T201 289Q240 289 271 315Z" />
<glyph unicode=":" glyph-name="colon" horiz-adv-x="179" d="M106 67T116 56T127 28Q127 12 117 1T89 -11Q72 -11 62 0T51 28Q51 44 61 55T89 67Q106 67 116 56ZM106 465T116 454T127 426Q127 410 117 399T89 387Q72 387 62 398T51 426Q51 442 61 453T89 465Q106
465 116 454Z" />
<glyph unicode=";" glyph-name="semicolon" horiz-adv-x="183" d="M110 67T120 56T131 28Q131 15 126 0T118 -21L73 -145H42L77 -6Q56 5 56 28Q56 45 66 56T93 67Q110 67 120 56ZM106 465T116 454T127 426Q127 410 117 399T89 387Q72 387 62 398T51 426Q51 442
61 453T89 465Q106 465 116 454Z" />
<glyph unicode="&lt;" glyph-name="less" horiz-adv-x="407" d="M334 517L355 483L91 333L355 180L335 145L52 313V353L334 517Z" />
<glyph unicode="=" glyph-name="equal" horiz-adv-x="403" d="M57 396V435H346V396H57ZM57 483V522H346V483H57Z" />
<glyph unicode="&gt;" glyph-name="greater" horiz-adv-x="407" d="M72 517L355 353V313L72 145L52 180L315 333L52 483L72 517Z" />
<glyph unicode="?" glyph-name="question" horiz-adv-x="377" d="M261 694T299 653T337 552Q337 502 318 473T262 413Q237 391 223 374T198 332T187 272V213H145V276Q145 316 156 344T182 391T224 431Q258 460 275 485T292 552Q292 599 265 627T194 655Q156 655
128 638T71 581L41 604Q73 650 110 672T195 694Q261 694 299 653ZM183 67T194 56T205 28Q205 12 194 1T166 -11Q149 -11 139 0T128 28Q128 44 138 55T166 67Q183 67 194 56Z" />
<glyph unicode="@" glyph-name="at" horiz-adv-x="846" d="M542 694T617 644T731 506T770 308Q770 157 730 85T624 13Q582 13 558 41T525 117Q507 69 477 42T404 15Q341 15 303 71T265 232Q265 356 312 418T436 481Q492 481 553 446V189Q553 117 570 84T624 50Q670
50 698 109T726 306Q726 410 693 488T594 611T437 655Q343 655 272 601T161 454T121 243Q121 113 159 22T269 -116T436 -163Q516 -163 589 -130L602 -167Q560 -184 523 -193T435 -202Q329 -202 248 -151T122 1T76 243Q76 370 121 473T249 635T437 694Q542 694 617
644ZM443 53T470 82T512 156V426Q473 444 436 444Q376 444 343 389T309 232Q309 142 334 98T407 53Q443 53 470 82Z" />
<glyph unicode="A" glyph-name="A" horiz-adv-x="475" d="M408 0L357 193H116L65 0H21L209 684H267L455 0H408ZM127 232H347L237 646L127 232Z" />
<glyph unicode="B" glyph-name="B" horiz-adv-x="489" d="M445 342T445 188Q445 98 391 49T240 0H92V684H211Q311 684 365 640T419 514Q419 392 300 363Q445 342 445 188ZM138 644V380H236Q301 380 336 415T371 511Q371 577 332 610T216 644H138ZM316 40T356 76T397
188Q397 341 240 341H138V40H240Q316 40 356 76Z" />
<glyph unicode="C" glyph-name="C" horiz-adv-x="451" d="M329 694T362 679T427 633L401 604Q372 630 346 641T286 653Q204 653 155 580T105 342Q105 183 154 108T284 32Q324 32 350 45T406 86L433 57Q370 -11 284 -11Q217 -11 166 27T85 145T56 342Q56 461 86
540T167 656T284 694Q329 694 362 679Z" />
<glyph unicode="D" glyph-name="D" horiz-adv-x="518" d="M319 684T390 612T462 348Q462 154 390 77T211 0H92V684H204Q319 684 390 612ZM138 643V40H213Q302 40 357 107T413 348Q413 469 384 534T311 621T209 643H138Z" />
<glyph unicode="E" glyph-name="E" horiz-adv-x="415" d="M375 684L369 643H138V377H338V337H138V40H380V0H92V684H375Z" />
<glyph unicode="F" glyph-name="F" horiz-adv-x="392" d="M92 0V684H370L365 643H138V364H334V324H138V0H92Z" />
<glyph unicode="G" glyph-name="G" horiz-adv-x="508" d="M337 694T371 679T442 629L415 601Q384 629 356 641T291 653Q211 653 158 581T105 345Q105 179 152 105T289 30Q324 30 352 39T407 67V324H297L291 365H452V44Q416 18 374 4T290 -11Q179 -11 118 76T56
345Q56 464 88 542T174 657T291 694Q337 694 371 679Z" />
<glyph unicode="H" glyph-name="H" horiz-adv-x="548" d="M410 0V340H138V0H92V684H138V380H410V684H456V0H410Z" />
<glyph unicode="I" glyph-name="I" horiz-adv-x="230" d="M138 684V0H92V684H138Z" />
<glyph unicode="J" glyph-name="J" horiz-adv-x="236" d="M150 90Q150 34 138 -2T99 -63T24 -112L11 -79Q49 -56 68 -35T95 14T103 92V684H150V90Z" />
<glyph unicode="K" glyph-name="K" horiz-adv-x="452" d="M138 684V0H92V684H138ZM431 684L193 369L445 0H392L141 367L381 684H431Z" />
<glyph unicode="L" glyph-name="L" horiz-adv-x="387" d="M138 684V43H372L366 0H92V684H138Z" />
<glyph unicode="M" glyph-name="M" horiz-adv-x="639" d="M578 0H535L508 335Q498 447 486 639L342 82H297L148 639Q146 580 128 340L104 0H60L115 684H178L320 138L458 684H523L578 0Z" />
<glyph unicode="N" glyph-name="N" horiz-adv-x="550" d="M458 0H397L129 631Q136 528 136 409V0H92V684H153L420 53Q414 155 414 252V684H458V0Z" />
<glyph unicode="O" glyph-name="O" horiz-adv-x="568" d="M391 694T451 606T512 341Q512 168 452 79T284 -11Q179 -11 118 78T56 340Q56 513 117 603T284 694Q391 694 451 606ZM200 653T153 577T105 340Q105 183 153 107T284 30Q371 30 417 106T464 341Q464 502
417 577T284 653Q200 653 153 577Z" />
<glyph unicode="P" glyph-name="P" horiz-adv-x="462" d="M313 684T371 634T429 481Q429 272 192 272H138V0H92V684H194Q313 684 371 634ZM288 312T334 350T380 480Q380 568 336 606T194 644H138V312H193Q288 312 334 350Z" />
<glyph unicode="Q" glyph-name="Q" horiz-adv-x="568" d="M469 15T534 -53L502 -89Q458 -42 410 -25T283 -8Q179 -8 118 80T56 340Q56 513 117 603T284 694Q390 694 451 606T512 341Q512 197 474 122T366 18Q469 15 534 -53ZM105 183T153 107T284 30Q371 30 417
106T464 341Q464 502 417 577T284 653Q200 653 153 577T105 340Q105 183 153 107Z" />
<glyph unicode="R" glyph-name="R" horiz-adv-x="482" d="M403 0L254 315Q232 313 219 313H138V0H92V684H208Q321 684 373 637T426 501Q426 432 393 387T299 323L454 0H403ZM297 353T336 389T376 501Q376 573 338 608T206 644H138V353H214Q297 353 336 389Z" />
<glyph unicode="S" glyph-name="S" horiz-adv-x="442" d="M271 694T307 676T379 620L352 593Q320 625 290 639T220 653Q167 653 135 619T102 531Q102 478 131 446T234 385Q318 352 357 308T396 185Q396 130 373 86T307 15T211 -11Q156 -11 113 11T33 74L60 101Q96
66 130 48T210 30Q273 30 310 72T348 184Q348 247 319 282T214 346Q128 380 92 422T55 530Q55 574 76 612T135 672T220 694Q271 694 307 676Z" />
<glyph unicode="T" glyph-name="T" horiz-adv-x="403" d="M395 684L390 643H225V0H178V643H12V684H395Z" />
<glyph unicode="U" glyph-name="U" horiz-adv-x="529" d="M448 176Q448 95 401 42T265 -11Q175 -11 129 41T82 176V684H128V180Q128 111 162 71T265 31Q334 31 367 71T401 180V684H448V176Z" />
<glyph unicode="V" glyph-name="V" horiz-adv-x="459" d="M439 684L257 0H203L21 684H67L231 48L393 684H439Z" />
<glyph unicode="W" glyph-name="W" horiz-adv-x="671" d="M641 684L517 0H458L335 633L212 0H153L29 684H75L184 45L308 684H362L487 45L597 684H641Z" />
<glyph unicode="X" glyph-name="X" horiz-adv-x="418" d="M235 371L409 0H361L206 339L56 0H9L179 368L26 684H74L207 398L339 684H386L235 371Z" />
<glyph unicode="Y" glyph-name="Y" horiz-adv-x="426" d="M414 684L237 269V0H191V268L12 684H61L215 311L366 684H414Z" />
<glyph unicode="Z" glyph-name="Z" horiz-adv-x="422" d="M384 684V645L78 42H378L373 0H29V40L336 642H60V684H384Z" />
<glyph unicode="[" glyph-name="bracketleft" horiz-adv-x="260" d="M203 803V766H113V-74H203V-111H71V803H203Z" />
<glyph unicode="\" glyph-name="backslash" horiz-adv-x="426" d="M136 800L328 -90L290 -98L97 792L136 800Z" />
<glyph unicode="]" glyph-name="bracketright" horiz-adv-x="260" d="M189 803V-111H56V-74H146V766H56V803H189Z" />
<glyph unicode="^" glyph-name="asciicircum" horiz-adv-x="435" d="M236 829L387 527H335L217 781L98 527H48L199 829H236Z" />
<glyph unicode="_" glyph-name="underscore" horiz-adv-x="431" d="M28 -114V-74H404V-114H28Z" />
<glyph unicode="`" glyph-name="grave" horiz-adv-x="233" d="M58 772L209 673L193 648L35 732L58 772Z" />
<glyph unicode="a" glyph-name="a" horiz-adv-x="441" d="M353 63T361 47T389 21L379 -11Q348 -3 333 17T314 75Q267 -11 181 -11Q119 -11 84 31T48 145Q48 226 96 269T234 312H309V376Q309 435 286 464T213 494Q183 494 155 487T92 465L78 498Q152 532 216 532Q285
532 319 493T353 379V96Q353 63 361 47ZM269 27T309 128V277H238Q95 277 95 146Q95 88 119 58T187 27Q269 27 309 128Z" />
<glyph unicode="b" glyph-name="b" horiz-adv-x="472" d="M338 532T378 466T419 264Q419 131 376 60T255 -11Q217 -11 185 10T131 67L127 0H88V735L133 740V450Q184 532 263 532Q338 532 378 466ZM371 28T371 264Q371 385 342 439T257 493Q218 493 189 470T133
402V113Q183 28 250 28Q371 28 371 264Z" />
<glyph unicode="c" glyph-name="c" horiz-adv-x="378" d="M271 532T299 520T355 481L332 452Q310 473 288 483T237 493Q174 493 138 436T101 258Q101 139 136 84T236 29Q289 29 335 72L358 45Q304 -11 236 -11Q150 -11 102 56T53 258Q53 391 102 461T236 532Q271
532 299 520Z" />
<glyph unicode="d" glyph-name="d" horiz-adv-x="475" d="M388 735V0H347L344 79Q298 -11 216 -11Q140 -11 97 59T53 259Q53 342 74 404T133 499T223 532Q297 532 343 461V741L388 735ZM262 28T291 54T343 133V409Q297 493 228 493Q170 493 136 435T101 263Q101
147 132 88T221 28Q262 28 291 54Z" />
<glyph unicode="e" glyph-name="e" horiz-adv-x="439" d="M391 261T389 241H99Q107 29 236 29Q270 29 296 41T350 79L374 52Q344 21 311 5T236 -11Q150 -11 102 57T53 257Q53 390 99 461T227 532Q308 532 349 468T391 282Q391 261 389 241ZM347 297Q347 493 227
493Q171 493 137 442T99 277H347V297Z" />
<glyph unicode="f" glyph-name="f" horiz-adv-x="263" d="M177 702T158 683T138 620V522H253L246 484H138V0H93V484H20V522H93V623Q93 678 124 709T210 741Q262 741 310 712L294 679Q254 702 214 702Q177 702 158 683Z" />
<glyph unicode="g" glyph-name="g" horiz-adv-x="411" d="M402 516Q366 503 286 501Q359 460 359 355Q359 276 318 231T204 186Q172 186 149 196Q132 185 123 168T113 132Q113 72 192 72H244Q313 72 351 37T390 -55Q390 -123 344 -162T206 -202Q112 -202 70 -167T28
-56H69Q70 -114 100 -139T206 -164Q278 -164 311 -136T345 -58Q345 -13 318 10T237 34H191Q130 34 101 58T71 123Q71 173 119 209Q46 255 46 358Q46 439 89 485T205 532Q283 532 318 538T389 560L402 516ZM148 496T120 461T92 358Q92 293 122 257T203 221Q314 221
314 356Q314 421 286 458T204 496Q148 496 120 461Z" />
<glyph unicode="h" glyph-name="h" horiz-adv-x="479" d="M335 532T365 492T396 382V0H351V376Q351 494 270 494Q229 494 196 464T133 377V0H88V735L133 741V430Q162 479 196 505T278 532Q335 532 365 492Z" />
<glyph unicode="i" glyph-name="i" horiz-adv-x="221" d="M133 522V0H88V522H133ZM125 743T134 733T144 709Q144 695 135 685T110 675Q95 675 86 685T76 709Q76 723 85 733T110 743Q125 743 134 733Z" />
<glyph unicode="j" glyph-name="j" horiz-adv-x="221" d="M133 -14Q133 -67 121 -100T85 -155T20 -200L5 -168Q37 -148 54 -130T79 -85T88 -13V522H133V-14ZM125 743T134 733T144 709Q144 695 135 685T110 675Q95 675 86 685T76 709Q76 723 85 733T110 743Q125
743 134 733Z" />
<glyph unicode="k" glyph-name="k" horiz-adv-x="398" d="M133 741V0H88V735L133 741ZM373 522L187 287L392 0H340L138 285L324 522H373Z" />
<glyph unicode="l" glyph-name="l" horiz-adv-x="232" d="M124 -11T104 11T83 72V735L128 741V73Q128 52 137 40T164 28Q179 28 193 35L205 2Q183 -11 158 -11Q124 -11 104 11Z" />
<glyph unicode="m" glyph-name="m" horiz-adv-x="699" d="M556 532T585 491T615 382V0H571V376Q571 434 552 464T497 494Q430 494 374 381V0H330V376Q330 434 311 464T256 494Q188 494 132 381V0H88V522H127L130 432Q186 532 262 532Q304 532 332 505T369 428Q425
532 504 532Q556 532 585 491Z" />
<glyph unicode="n" glyph-name="n" horiz-adv-x="479" d="M335 532T365 492T396 382V0H351V376Q351 494 270 494Q195 494 133 377V0H88V522H127L131 429Q160 479 195 505T278 532Q335 532 365 492Z" />
<glyph unicode="o" glyph-name="o" horiz-adv-x="467" d="M320 532T367 465T414 263Q414 130 366 60T233 -11Q148 -11 101 59T53 260Q53 393 101 462T234 532Q320 532 367 465ZM170 493T135 437T100 260Q100 143 134 86T233 29Q367 29 367 263Q367 493 234 493Q170
493 135 437Z" />
<glyph unicode="p" glyph-name="p" horiz-adv-x="472" d="M338 532T378 465T419 264Q419 132 376 61T256 -11Q216 -11 185 9T133 63V-195L88 -202V522H127L130 446Q183 532 263 532Q338 532 378 465ZM371 29T371 264Q371 382 343 437T257 493Q218 493 189 470T133
403V112Q182 29 250 29Q371 29 371 264Z" />
<glyph unicode="q" glyph-name="q" horiz-adv-x="475" d="M388 522V-202L343 -195V76Q297 -11 218 -11Q141 -11 97 60T53 259Q53 385 98 458T222 532Q264 532 293 512T346 459L349 522H388ZM262 28T291 53T343 127V410Q321 449 294 471T227 493Q170 493 136 434T101
263Q101 147 133 88T222 28Q262 28 291 53Z" />
<glyph unicode="r" glyph-name="r" horiz-adv-x="306" d="M273 532T295 526L287 486Q267 491 251 491Q207 491 180 453T133 335V0H88V522H127L130 416Q149 475 179 503T254 532Q273 532 295 526Z" />
<glyph unicode="s" glyph-name="s" horiz-adv-x="383" d="M269 532T329 475L306 447Q277 472 252 483T194 494Q150 494 123 469T96 398Q96 360 119 338T204 292Q277 265 308 231T340 138Q340 71 297 30T187 -11Q139 -11 103 6T34 56L59 82Q89 54 118 41T186 27Q234
27 264 56T295 137Q295 169 285 189T250 226T179 260Q110 286 81 317T51 398Q51 456 91 494T193 532Q269 532 329 475Z" />
<glyph unicode="t" glyph-name="t" horiz-adv-x="279" d="M282 21Q240 -11 192 -11Q143 -11 115 19T87 103V484H17V522H87V649L132 654V522H244L238 484H132V104Q132 69 148 49T196 29Q228 29 262 51L282 21Z" />
<glyph unicode="u" glyph-name="u" horiz-adv-x="475" d="M387 0H349L346 91Q293 -11 207 -11Q150 -11 117 28T83 133V522H128V137Q128 83 150 56T213 28Q290 28 342 140V522H387V0Z" />
<glyph unicode="v" glyph-name="v" horiz-adv-x="392" d="M374 522L226 0H172L17 522H65L199 39L328 522H374Z" />
<glyph unicode="w" glyph-name="w" horiz-adv-x="584" d="M557 522L451 0H390L293 478L195 0H135L27 522H73L166 40L267 522H321L421 39L513 522H557Z" />
<glyph unicode="x" glyph-name="x" horiz-adv-x="380" d="M216 280L368 0H317L189 252L60 0H12L163 278L31 522H80L189 305L300 522H348L216 280Z" />
<glyph unicode="y" glyph-name="y" horiz-adv-x="389" d="M224 -2Q199 -92 163 -136T53 -201L47 -166Q89 -152 113 -132T153 -83T184 0H167L17 522H64L197 35L326 522H372L224 -2Z" />
<glyph unicode="z" glyph-name="z" horiz-adv-x="345" d="M317 522V486L71 40H315L310 0H22V36L269 482H42V522H317Z" />
<glyph unicode="{" glyph-name="braceleft" horiz-adv-x="268" d="M212 790Q174 790 159 772T143 712V441Q143 396 128 378T77 349Q113 339 128 321T143 257V-14Q143 -54 159 -73T212 -92V-127Q156 -127 129 -100T102 -11V257Q102 297 88 313T39 329V369Q73 369
87 385T102 442V710Q102 772 128 798T212 825V790Z" />
<glyph unicode="|" glyph-name="bar" horiz-adv-x="332" d="M187 803V-100H145V803H187Z" />
<glyph unicode="}" glyph-name="braceright" horiz-adv-x="268" d="M112 825T139 799T166 710V442Q166 402 180 386T229 369V329Q195 329 181 313T166 257V-11Q166 -72 139 -99T56 -127V-92Q93 -92 109 -73T125 -14V257Q125 302 140 320T191 349Q155 359 140 377T125
441V712Q125 753 110 771T57 790L56 825Q112 825 139 799Z" />
<glyph unicode="~" glyph-name="asciitilde" horiz-adv-x="386" d="M240 271T223 279T184 302Q180 304 168 311T147 322T129 326Q111 326 99 315T74 282L45 298Q62 329 82 346T131 364Q149 364 165 357T203 334Q221 322 234 316T260 309Q276 309 287 319T313 352L341
336Q324 305 305 288T259 271Q240 271 223 279Z" />
<glyph unicode="&#xa0;" glyph-name="uni00A0" horiz-adv-x="231" />
<glyph unicode="&#xa1;" glyph-name="exclamdown" horiz-adv-x="218" d="M126 467T136 456T147 428Q147 412 137 401T109 390Q92 390 82 401T71 428Q71 444 81 455T109 467Q126 467 136 456ZM129 251L133 -195H86L90 251H129Z" />
<glyph unicode="&#xa2;" glyph-name="cent" horiz-adv-x="378" d="M310 -4T253 -10V-149H214V-10Q138 -1 96 66T53 258Q53 382 96 452T215 531V679H253V531Q282 529 306 517T355 481L332 452Q310 473 288 483T237 493Q174 493 138 436T101 258Q101 139 136 84T236
29Q289 29 335 72L358 45Q310 -4 253 -10Z" />
<glyph unicode="&#xa3;" glyph-name="sterling" horiz-adv-x="420" d="M156 109T143 84T95 41H370L365 0H43V39Q83 62 97 85T112 157V335H57V371H112V512Q112 584 149 629T251 675Q292 675 323 658T382 603L353 579Q331 609 308 623T253 637Q206 637 181 604T156
513V371H331V335H156V158Q156 109 143 84Z" />
<glyph unicode="&#xa4;" glyph-name="currency" horiz-adv-x="460" d="M391 109L327 187Q286 151 228 151Q173 151 134 185L70 109L42 133L110 213Q76 264 76 341Q76 415 108 466L38 549L68 573L133 495Q173 530 228 530Q286 530 325 496L389 573L417 548L349
468Q383 419 383 341Q383 265 351 216L421 133L391 109ZM285 188T313 227T342 341Q342 416 314 455T229 494Q174 494 146 455T117 341Q117 266 145 227T229 188Q285 188 313 227Z" />
<glyph unicode="&#xa5;" glyph-name="yen" horiz-adv-x="417" d="M405 664L245 335H343V299H232V192H343V155H232V0H186V155H76V192H186V299H76V335H173L12 664H60L210 344L359 664H405Z" />
<glyph unicode="&#xa6;" glyph-name="brokenbar" horiz-adv-x="332" d="M187 803V443H145V803H187ZM187 262V-100H145V262H187Z" />
<glyph unicode="&#xa7;" glyph-name="section" horiz-adv-x="438" d="M326 144T337 121T348 66Q348 5 309 -31T208 -67Q167 -67 135 -56T74 -21L95 10Q143 -29 206 -29Q252 -29 278 -4T304 63Q304 89 296 106T266 138T201 172Q153 192 126 210T85 254T71 319Q71
390 138 446Q113 465 103 487T92 542Q92 602 130 638T229 674Q267 674 296 662T355 627L335 597Q308 617 284 626T231 636Q186 636 162 611T137 544Q137 518 145 501T176 468T244 433Q309 405 338 373T368 291Q368 251 352 220T302 162Q326 144 337 121ZM114 294T122
275T153 241T218 207Q251 193 275 180Q301 203 312 228T324 287Q324 323 304 348T225 399Q196 411 164 428Q138 405 126 380T114 323Q114 294 122 275Z" />
<glyph unicode="&#xa8;" glyph-name="dieresis" horiz-adv-x="277" d="M82 732T91 723T100 699Q100 685 91 676T68 666Q54 666 45 675T36 699Q36 713 45 722T68 732Q82 732 91 723ZM234 732T243 723T253 699Q253 685 244 676T220 666Q206 666 197 675T188 699Q188
713 197 722T220 732Q234 732 243 723Z" />
<glyph unicode="&#xa9;" glyph-name="copyright" horiz-adv-x="663" d="M401 731T455 696T541 594T573 435Q573 344 542 277T456 174T332 138Q263 138 208 173T122 276T90 435Q90 526 121 593T208 695T332 731Q401 731 455 696ZM272 697T226 667T153 577T126 435Q126
352 152 293T225 203T332 173Q392 173 438 203T511 293T538 435Q538 518 512 577T439 667T332 697Q272 697 226 667ZM358 612T377 604T414 580L395 554Q380 565 367 570T333 576Q300 576 277 544T253 436Q253 361 275 328T335 294Q356 294 371 301T402 321L420
295Q383 258 334 258Q279 258 247 303T214 436Q214 525 248 568T333 612Q358 612 377 604Z" />
<glyph unicode="&#xaa;" glyph-name="ordfeminine" horiz-adv-x="422" d="M274 520V567Q274 607 256 626T196 646Q162 646 104 624L93 658Q152 684 200 684Q317 684 317 571V354Q317 333 323 323T344 306L335 275Q310 282 297 296T280 336Q240 275 175 275Q125
275 96 307T66 392Q66 453 104 486T208 520H274ZM241 312T274 382V485H209Q160 485 136 463T112 394Q112 354 130 333T181 312Q241 312 274 382ZM67 40H356V1H67V40Z" />
<glyph unicode="&#xab;" glyph-name="guillemotleft" horiz-adv-x="480" d="M201 514L230 495L114 288L230 81L201 63L69 272V303L201 514ZM383 514L412 495L296 288L412 81L383 63L251 272V303L383 514Z" />
<glyph unicode="&#xac;" glyph-name="logicalnot" horiz-adv-x="410" d="M353 340V179H311V301H57V340H353Z" />
<glyph unicode="&#xad;" glyph-name="uni00AD" horiz-adv-x="330" d="M57 293V333H273V293H57Z" />
<glyph unicode="&#xae;" glyph-name="registered" horiz-adv-x="524" d="M317 732T362 704T432 624T458 499Q458 429 432 376T362 293T262 264Q207 264 163 291T93 371T67 496Q67 566 92 620T162 703T262 732Q317 732 362 704ZM308 295T345 319T404 390T426 499Q426
595 381 648T262 701Q216 701 179 677T120 606T98 496Q98 401 144 348T262 295Q308 295 345 319ZM342 500T291 484L351 366H314L259 479H227V366H195V636H250Q295 636 318 616T342 558Q342 500 291 484ZM227 509H260Q309 509 309 558Q309 606 256 606H227V509Z"
/>
<glyph unicode="&#xaf;" glyph-name="overscore" horiz-adv-x="253" d="M228 680H35V717H228V680Z" />
<glyph unicode="&#xb0;" glyph-name="degree" horiz-adv-x="414" d="M128 401T92 439T56 548Q56 593 73 626T118 676T179 694Q233 694 268 656T303 547Q303 479 268 440T179 401Q128 401 92 439ZM217 436T239 464T262 547Q262 602 240 630T179 659Q143 659 120
631T97 548Q97 494 120 465T179 436Q217 436 239 464Z" />
<glyph unicode="&#xb1;" glyph-name="plusminus" horiz-adv-x="404" d="M57 0V39H346V0H57ZM224 507V357H347V316H224V167H182V316H57V357H182V507H224Z" />
<glyph unicode="&#xb2;" glyph-name="uni00B2" horiz-adv-x="328" d="M208 741T235 711T263 632Q263 592 249 558T207 485T107 359H273L267 323H63V358Q134 443 165 486T209 561T222 631Q222 667 205 686T159 706Q115 706 82 661L55 681Q80 713 105 727T162 741Q208
741 235 711Z" />
<glyph unicode="&#xb3;" glyph-name="uni00B3" horiz-adv-x="328" d="M210 743T237 714T265 639Q265 599 244 574T188 543Q226 541 250 514T275 439Q275 385 243 350T157 315Q96 315 52 370L77 391Q95 369 114 360T156 350Q194 350 214 374T235 439Q235 524 158
524H134L138 557H155Q185 557 205 577T226 636Q226 671 209 690T161 709Q139 709 121 701T82 673L61 696Q84 719 108 731T163 743Q210 743 237 714Z" />
<glyph unicode="&#xb4;" glyph-name="acute" horiz-adv-x="234" d="M186 772L209 732L50 648L34 673L186 772Z" />
<glyph unicode="&#xb5;" glyph-name="uni00B5" horiz-adv-x="480" d="M368 -8Q357 25 353 48T347 107Q293 -11 213 -11Q150 -11 124 51Q132 -2 132 -74V-195L88 -199V522H133V148Q133 86 156 58T215 30Q291 30 341 153V522H386V176Q386 78 409 -3L368 -8Z" />
<glyph unicode="&#xb6;" glyph-name="paragraph" horiz-adv-x="579" d="M455 684V-195L412 -203V645H306V-195L264 -203V299Q170 303 127 355T83 491Q83 583 132 633T272 683L455 684Z" />
<glyph unicode="&#xb7;" glyph-name="middot" horiz-adv-x="179" d="M106 360T116 349T127 321Q127 305 117 294T89 282Q72 282 62 293T51 321Q51 337 61 348T89 360Q106 360 116 349Z" />
<glyph unicode="&#xb8;" glyph-name="cedilla" horiz-adv-x="209" d="M108 -68Q184 -78 184 -142Q184 -179 160 -200T100 -222Q64 -222 35 -202L52 -174Q74 -188 99 -188Q119 -188 132 -176T145 -142Q145 -118 127 -107T71 -95L78 16H108V-68Z" />
<glyph unicode="&#xb9;" glyph-name="uni00B9" horiz-adv-x="329" d="M210 736V323H172V692L87 632L68 658L177 736H210Z" />
<glyph unicode="&#xba;" glyph-name="ordmasculine" horiz-adv-x="414" d="M278 684T316 634T354 481Q354 380 315 328T207 275Q137 275 99 326T60 479Q60 580 99 632T207 684Q278 684 316 634ZM157 647T131 607T104 479Q104 392 130 352T207 312Q258 312 284
352T310 481Q310 569 285 608T208 647Q157 647 131 607ZM62 0V39H351V0H62Z" />
<glyph unicode="&#xbb;" glyph-name="guillemotright" horiz-adv-x="480" d="M96 514L230 303V272L96 63L69 81L185 288L69 495L96 514ZM278 514L412 303V272L278 63L251 81L367 288L251 495L278 514Z" />
<glyph unicode="&#xbc;" glyph-name="onequarter" horiz-adv-x="749" d="M210 684V271H172V640L87 580L68 606L177 684H210ZM526 746L559 733L225 -68L192 -54L526 746ZM705 141V106H659V0H620V106H466V136L572 420L605 407L504 141H620L626 260H659V141H705Z" />
<glyph unicode="&#xbd;" glyph-name="onehalf" horiz-adv-x="750" d="M210 684V271H172V640L87 580L68 606L177 684H210ZM526 746L559 733L225 -68L192 -54L526 746ZM630 418T657 388T685 309Q685 269 671 235T629 162T529 36H695L689 0H485V35Q556 120 587 163T631
238T644 308Q644 344 627 363T581 383Q537 383 504 338L477 358Q502 390 527 404T584 418Q630 418 657 388Z" />
<glyph unicode="&#xbe;" glyph-name="threequarters" horiz-adv-x="748" d="M210 691T237 662T265 587Q265 547 244 522T188 491Q226 489 250 462T275 387Q275 333 243 298T157 263Q96 263 52 318L77 339Q95 317 114 308T156 298Q194 298 214 322T235 387Q235
472 158 472H134L138 505H155Q185 505 205 525T226 584Q226 619 209 638T161 657Q139 657 121 649T82 621L61 644Q84 667 108 679T163 691Q210 691 237 662ZM525 746L558 733L224 -68L191 -54L525 746ZM704 141V106H658V0H619V106H465V136L571 420L604 407L503
141H619L625 260H658V141H704Z" />
<glyph unicode="&#xbf;" glyph-name="questiondown" horiz-adv-x="377" d="M194 390T184 401T173 428Q173 444 183 455T211 467Q228 467 238 456T249 428Q249 412 239 401T211 390Q194 390 184 401ZM117 -203T79 -162T41 -61Q41 -12 59 17T115 78Q152 111 171
140T190 219V250H233V215Q233 174 222 146T196 100T153 59Q119 29 103 5T86 -61Q86 -108 112 -136T184 -164Q222 -164 250 -147T307 -90L337 -114Q305 -160 268 -181T183 -203Q117 -203 79 -162Z" />
<glyph unicode="&#xc0;" glyph-name="Agrave" horiz-adv-x="475" d="M408 0L357 193H116L65 0H21L209 684H267L455 0H408ZM127 232H347L237 646L127 232ZM171 875L322 785L308 759L149 834L171 875Z" />
<glyph unicode="&#xc1;" glyph-name="Aacute" horiz-adv-x="475" d="M408 0L357 193H116L65 0H21L209 684H267L455 0H408ZM127 232H347L237 646L127 232ZM304 875L325 835L165 759L152 786L304 875Z" />
<glyph unicode="&#xc2;" glyph-name="Acircumflex" horiz-adv-x="475" d="M408 0L357 193H116L65 0H21L209 684H267L455 0H408ZM127 232H347L237 646L127 232ZM138 765L118 786L223 886H250L356 786L335 765L237 844L138 765Z" />
<glyph unicode="&#xc3;" glyph-name="Atilde" horiz-adv-x="475" d="M408 0L357 193H116L65 0H21L209 684H267L455 0H408ZM127 232H347L237 646L127 232ZM272 797T260 803T230 822Q217 832 208 836T190 841Q176 841 166 833T144 804L117 817Q148 877 189 877Q202
877 214 871T242 853Q258 842 267 838T286 833Q299 833 309 842T333 875L359 863Q331 797 287 797Q272 797 260 803Z" />
<glyph unicode="&#xc4;" glyph-name="Adieresis" horiz-adv-x="475" d="M408 0L357 193H116L65 0H21L209 684H267L455 0H408ZM127 232H347L237 646L127 232ZM181 858T190 849T199 825Q199 811 190 802T167 792Q153 792 144 801T135 825Q135 839 144 848T167 858Q181
858 190 849ZM333 858T342 849T352 825Q352 811 343 802T319 792Q305 792 296 801T287 825Q287 839 296 848T319 858Q333 858 342 849Z" />
<glyph unicode="&#xc5;" glyph-name="Aring" horiz-adv-x="475" d="M408 0L357 193H116L65 0H21L209 684H267L455 0H408ZM127 232H347L237 646L127 232ZM275 941T296 918T318 852Q318 809 297 786T238 762Q202 762 181 785T159 852Q159 895 180 918T238 941Q275
941 296 918ZM193 912T193 852Q193 820 204 806T238 791Q261 791 272 805T284 852Q284 884 273 898T238 912Q193 912 193 852Z" />
<glyph unicode="&#xc6;" glyph-name="AE" horiz-adv-x="638" d="M415 40H603V0H378L340 188H106L48 0H2L220 684H563L558 643H291L346 376H557V337H354L415 40ZM118 228H332L247 646L118 228Z" />
<glyph unicode="&#xc7;" glyph-name="Ccedilla" horiz-adv-x="451" d="M371 -8T292 -11V-68Q368 -78 368 -142Q368 -179 344 -200T284 -222Q248 -222 219 -202L236 -174Q258 -188 283 -188Q303 -188 316 -176T329 -142Q329 -118 311 -107T255 -95L260 -10Q167
0 112 89T56 342Q56 461 86 540T167 656T284 694Q329 694 362 679T427 633L401 604Q372 630 346 641T286 653Q204 653 155 580T105 342Q105 183 154 108T284 32Q324 32 350 45T406 86L433 57Q371 -8 292 -11Z" />
<glyph unicode="&#xc8;" glyph-name="Egrave" horiz-adv-x="415" d="M375 684L369 643H138V377H338V337H138V40H380V0H92V684H375ZM170 875L321 785L307 759L148 834L170 875Z" />
<glyph unicode="&#xc9;" glyph-name="Eacute" horiz-adv-x="415" d="M375 684L369 643H138V377H338V337H138V40H380V0H92V684H375ZM303 875L324 835L164 759L151 786L303 875Z" />
<glyph unicode="&#xca;" glyph-name="Ecircumflex" horiz-adv-x="415" d="M375 684L369 643H138V377H338V337H138V40H380V0H92V684H375ZM137 765L117 786L222 886H249L355 786L334 765L236 844L137 765Z" />
<glyph unicode="&#xcb;" glyph-name="Edieresis" horiz-adv-x="415" d="M375 684L369 643H138V377H338V337H138V40H380V0H92V684H375ZM180 858T189 849T198 825Q198 811 189 802T166 792Q152 792 143 801T134 825Q134 839 143 848T166 858Q180 858 189 849ZM332
858T341 849T351 825Q351 811 342 802T318 792Q304 792 295 801T286 825Q286 839 295 848T318 858Q332 858 341 849Z" />
<glyph unicode="&#xcc;" glyph-name="Igrave" horiz-adv-x="230" d="M138 684V0H92V684H138ZM47 875L198 785L184 759L25 834L47 875Z" />
<glyph unicode="&#xcd;" glyph-name="Iacute" horiz-adv-x="230" d="M138 684V0H92V684H138ZM180 875L201 835L41 759L28 786L180 875Z" />
<glyph unicode="&#xce;" glyph-name="Icircumflex" horiz-adv-x="230" d="M138 684V0H92V684H138ZM14 765L-6 786L99 886H126L232 786L211 765L113 844L14 765Z" />
<glyph unicode="&#xcf;" glyph-name="Idieresis" horiz-adv-x="230" d="M138 684V0H92V684H138ZM57 858T66 849T75 825Q75 811 66 802T43 792Q29 792 20 801T11 825Q11 839 20 848T43 858Q57 858 66 849ZM209 858T218 849T228 825Q228 811 219 802T195 792Q181
792 172 801T163 825Q163 839 172 848T195 858Q209 858 218 849Z" />
<glyph unicode="&#xd0;" glyph-name="Eth" horiz-adv-x="522" d="M323 684T394 612T466 348Q466 154 394 77T215 0H96V332H20V372H96V684H208Q323 684 394 612ZM306 40T361 107T417 348Q417 469 388 534T315 621T213 643H142V372H285V332H142V40H217Q306 40 361 107Z" />
<glyph unicode="&#xd1;" glyph-name="Ntilde" horiz-adv-x="550" d="M458 0H397L129 631Q136 528 136 409V0H92V684H153L420 53Q414 155 414 252V684H458V0ZM316 797T304 803T274 822Q261 832 252 836T234 841Q220 841 210 833T188 804L161 817Q192 877 233 877Q246
877 258 871T286 853Q302 842 311 838T330 833Q343 833 353 842T377 875L403 863Q375 797 331 797Q316 797 304 803Z" />
<glyph unicode="&#xd2;" glyph-name="Ograve" horiz-adv-x="568" d="M391 694T451 606T512 341Q512 168 452 79T284 -11Q179 -11 118 78T56 340Q56 513 117 603T284 694Q391 694 451 606ZM200 653T153 577T105 340Q105 183 153 107T284 30Q371 30 417 106T464
341Q464 502 417 577T284 653Q200 653 153 577ZM217 875L368 785L354 759L195 834L217 875Z" />
<glyph unicode="&#xd3;" glyph-name="Oacute" horiz-adv-x="568" d="M391 694T451 606T512 341Q512 168 452 79T284 -11Q179 -11 118 78T56 340Q56 513 117 603T284 694Q391 694 451 606ZM200 653T153 577T105 340Q105 183 153 107T284 30Q371 30 417 106T464
341Q464 502 417 577T284 653Q200 653 153 577ZM350 875L371 835L211 759L198 786L350 875Z" />
<glyph unicode="&#xd4;" glyph-name="Ocircumflex" horiz-adv-x="568" d="M391 694T451 606T512 341Q512 168 452 79T284 -11Q179 -11 118 78T56 340Q56 513 117 603T284 694Q391 694 451 606ZM200 653T153 577T105 340Q105 183 153 107T284 30Q371 30 417 106T464
341Q464 502 417 577T284 653Q200 653 153 577ZM184 765L164 786L269 886H296L402 786L381 765L283 844L184 765Z" />
<glyph unicode="&#xd5;" glyph-name="Otilde" horiz-adv-x="568" d="M391 694T451 606T512 341Q512 168 452 79T284 -11Q179 -11 118 78T56 340Q56 513 117 603T284 694Q391 694 451 606ZM200 653T153 577T105 340Q105 183 153 107T284 30Q371 30 417 106T464
341Q464 502 417 577T284 653Q200 653 153 577ZM318 797T306 803T276 822Q263 832 254 836T236 841Q222 841 212 833T190 804L163 817Q194 877 235 877Q248 877 260 871T288 853Q304 842 313 838T332 833Q345 833 355 842T379 875L405 863Q377 797 333 797Q318
797 306 803Z" />
<glyph unicode="&#xd6;" glyph-name="Odieresis" horiz-adv-x="568" d="M391 694T451 606T512 341Q512 168 452 79T284 -11Q179 -11 118 78T56 340Q56 513 117 603T284 694Q391 694 451 606ZM200 653T153 577T105 340Q105 183 153 107T284 30Q371 30 417 106T464
341Q464 502 417 577T284 653Q200 653 153 577ZM227 858T236 849T245 825Q245 811 236 802T213 792Q199 792 190 801T181 825Q181 839 190 848T213 858Q227 858 236 849ZM379 858T388 849T398 825Q398 811 389 802T365 792Q351 792 342 801T333 825Q333 839 342
848T365 858Q379 858 388 849Z" />
<glyph unicode="&#xd7;" glyph-name="multiply" horiz-adv-x="404" d="M305 465L336 441L230 307L336 173L305 150L202 281L99 150L68 173L174 307L68 441L100 465L202 333L305 465Z" />
<glyph unicode="&#xd8;" glyph-name="Oslash" horiz-adv-x="568" d="M446 634T479 553T512 341Q512 169 452 79T284 -11Q248 -11 219 -1L191 -117L150 -106L183 15Q123 51 90 133T56 340Q56 513 117 603T284 694Q318 694 348 685L378 807L419 795L384 669Q446
634 479 553ZM104 120T199 54L340 644Q315 653 284 653Q199 653 152 577T104 340Q104 120 199 54ZM463 30T464 341Q464 568 369 630L228 40Q252 30 284 30Q463 30 464 341Z" />
<glyph unicode="&#xd9;" glyph-name="Ugrave" horiz-adv-x="529" d="M448 176Q448 95 401 42T265 -11Q175 -11 129 41T82 176V684H128V180Q128 111 162 71T265 31Q334 31 367 71T401 180V684H448V176ZM198 875L349 785L335 759L176 834L198 875Z" />
<glyph unicode="&#xda;" glyph-name="Uacute" horiz-adv-x="529" d="M448 176Q448 95 401 42T265 -11Q175 -11 129 41T82 176V684H128V180Q128 111 162 71T265 31Q334 31 367 71T401 180V684H448V176ZM331 875L352 835L192 759L179 786L331 875Z" />
<glyph unicode="&#xdb;" glyph-name="Ucircumflex" horiz-adv-x="529" d="M448 176Q448 95 401 42T265 -11Q175 -11 129 41T82 176V684H128V180Q128 111 162 71T265 31Q334 31 367 71T401 180V684H448V176ZM165 765L145 786L250 886H277L383 786L362 765L264 844L165
765Z" />
<glyph unicode="&#xdc;" glyph-name="Udieresis" horiz-adv-x="529" d="M448 176Q448 95 401 42T265 -11Q175 -11 129 41T82 176V684H128V180Q128 111 162 71T265 31Q334 31 367 71T401 180V684H448V176ZM208 858T217 849T226 825Q226 811 217 802T194 792Q180
792 171 801T162 825Q162 839 171 848T194 858Q208 858 217 849ZM360 858T369 849T379 825Q379 811 370 802T346 792Q332 792 323 801T314 825Q314 839 323 848T346 858Q360 858 369 849Z" />
<glyph unicode="&#xdd;" glyph-name="Yacute" horiz-adv-x="426" d="M414 684L237 269V0H191V268L12 684H61L215 311L366 684H414ZM279 875L300 835L140 759L127 786L279 875Z" />
<glyph unicode="&#xde;" glyph-name="Thorn" horiz-adv-x="462" d="M315 560T372 510T429 356Q429 243 370 192T197 140H138V0H92V684H138V560H198Q315 560 372 510ZM289 180T334 219T380 355Q380 443 336 481T198 520H138V180H196Q289 180 334 219Z" />
<glyph unicode="&#xdf;" glyph-name="germandbls" horiz-adv-x="477" d="M300 741T337 705T375 610Q375 570 361 546T318 492Q297 470 288 456T278 423Q278 399 292 381T337 339Q368 313 388 291T422 235T437 153Q437 80 401 35T305 -11Q261 -11 226 10L242 43Q267
29 301 29Q342 29 366 61T391 153Q391 193 379 223T349 272T302 316Q268 345 252 367T236 421Q236 446 246 463T279 503Q305 530 318 552T331 609Q331 654 307 678T241 702Q192 702 163 667T133 568V0H88V570Q88 647 130 694T241 741Q300 741 337 705Z" />
<glyph unicode="&#xe0;" glyph-name="agrave" horiz-adv-x="441" d="M353 63T361 47T389 21L379 -11Q348 -3 333 17T314 75Q267 -11 181 -11Q119 -11 84 31T48 145Q48 226 96 269T234 312H309V376Q309 435 286 464T213 494Q183 494 155 487T92 465L78 498Q152
532 216 532Q285 532 319 493T353 379V96Q353 63 361 47ZM269 27T309 128V277H238Q95 277 95 146Q95 88 119 58T187 27Q269 27 309 128ZM154 772L305 673L289 648L131 732L154 772Z" />
<glyph unicode="&#xe1;" glyph-name="aacute" horiz-adv-x="441" d="M353 63T361 47T389 21L379 -11Q348 -3 333 17T314 75Q267 -11 181 -11Q119 -11 84 31T48 145Q48 226 96 269T234 312H309V376Q309 435 286 464T213 494Q183 494 155 487T92 465L78 498Q152
532 216 532Q285 532 319 493T353 379V96Q353 63 361 47ZM269 27T309 128V277H238Q95 277 95 146Q95 88 119 58T187 27Q269 27 309 128ZM273 772L296 732L137 648L121 673L273 772Z" />
<glyph unicode="&#xe2;" glyph-name="acircumflex" horiz-adv-x="441" d="M353 63T361 47T389 21L379 -11Q348 -3 333 17T314 75Q267 -11 181 -11Q119 -11 84 31T48 145Q48 226 96 269T234 312H309V376Q309 435 286 464T213 494Q183 494 155 487T92 465L78 498Q152
532 216 532Q285 532 319 493T353 379V96Q353 63 361 47ZM269 27T309 128V277H238Q95 277 95 146Q95 88 119 58T187 27Q269 27 309 128ZM116 649L96 669L201 775H228L334 669L313 649L215 734L116 649Z" />
<glyph unicode="&#xe3;" glyph-name="atilde" horiz-adv-x="441" d="M353 63T361 47T389 21L379 -11Q348 -3 333 17T314 75Q267 -11 181 -11Q119 -11 84 31T48 145Q48 226 96 269T234 312H309V376Q309 435 286 464T213 494Q183 494 155 487T92 465L78 498Q152
532 216 532Q285 532 319 493T353 379V96Q353 63 361 47ZM269 27T309 128V277H238Q95 277 95 146Q95 88 119 58T187 27Q269 27 309 128ZM249 671T237 677T207 696Q194 706 185 710T167 715Q153 715 143 707T121 678L94 691Q125 751 166 751Q179 751 191 745T219
727Q235 716 244 712T263 707Q276 707 286 716T310 749L336 737Q308 671 264 671Q249 671 237 677Z" />
<glyph unicode="&#xe4;" glyph-name="adieresis" horiz-adv-x="441" d="M353 63T361 47T389 21L379 -11Q348 -3 333 17T314 75Q267 -11 181 -11Q119 -11 84 31T48 145Q48 226 96 269T234 312H309V376Q309 435 286 464T213 494Q183 494 155 487T92 465L78 498Q152
532 216 532Q285 532 319 493T353 379V96Q353 63 361 47ZM269 27T309 128V277H238Q95 277 95 146Q95 88 119 58T187 27Q269 27 309 128ZM153 732T162 723T171 699Q171 685 162 676T139 666Q125 666 116 675T107 699Q107 713 116 722T139 732Q153 732 162 723ZM305
732T314 723T324 699Q324 685 315 676T291 666Q277 666 268 675T259 699Q259 713 268 722T291 732Q305 732 314 723Z" />
<glyph unicode="&#xe5;" glyph-name="aring" horiz-adv-x="441" d="M353 63T361 47T389 21L379 -11Q348 -3 333 17T314 75Q267 -11 181 -11Q119 -11 84 31T48 145Q48 226 96 269T234 312H309V376Q309 435 286 464T213 494Q183 494 155 487T92 465L78 498Q152 532
216 532Q285 532 319 493T353 379V96Q353 63 361 47ZM269 27T309 128V277H238Q95 277 95 146Q95 88 119 58T187 27Q269 27 309 128ZM252 815T273 792T295 726Q295 683 274 660T215 636Q179 636 158 659T136 726Q136 769 157 792T215 815Q252 815 273 792ZM170 786T170
726Q170 694 181 680T215 665Q238 665 249 679T261 726Q261 758 250 772T215 786Q170 786 170 726Z" />
<glyph unicode="&#xe6;" glyph-name="ae" horiz-adv-x="695" d="M647 261T645 241H356Q360 134 396 82T493 29Q527 29 553 41T607 80L630 53Q598 21 565 5T490 -11Q439 -11 400 17T337 98Q302 40 266 15T182 -11Q120 -11 84 32T48 145Q48 225 97 268T232 312H309V367Q309
432 286 462T209 493Q161 493 93 464L81 498Q155 532 214 532Q271 532 302 505T345 425Q390 532 485 532Q564 532 605 468T647 282Q647 261 645 241ZM602 297Q602 393 573 443T485 493Q428 493 394 440T356 277H602V297ZM229 27T260 53T323 139Q309 192 309 256V277H233Q167
277 131 244T95 146Q95 89 120 58T189 27Q229 27 260 53Z" />
<glyph unicode="&#xe7;" glyph-name="ccedilla" horiz-adv-x="378" d="M308 -7T245 -11V-68Q321 -78 321 -142Q321 -179 297 -200T237 -222Q201 -222 172 -202L189 -174Q211 -188 236 -188Q256 -188 269 -176T282 -142Q282 -118 264 -107T208 -95L213 -10Q137
-2 95 66T53 258Q53 391 102 461T236 532Q271 532 299 520T355 481L332 452Q310 473 288 483T237 493Q174 493 138 436T101 258Q101 139 136 84T236 29Q289 29 335 72L358 45Q308 -7 245 -11Z" />
<glyph unicode="&#xe8;" glyph-name="egrave" horiz-adv-x="439" d="M391 261T389 241H99Q107 29 236 29Q270 29 296 41T350 79L374 52Q344 21 311 5T236 -11Q150 -11 102 57T53 257Q53 390 99 461T227 532Q308 532 349 468T391 282Q391 261 389 241ZM347 297Q347
493 227 493Q171 493 137 442T99 277H347V297ZM166 772L317 673L301 648L143 732L166 772Z" />
<glyph unicode="&#xe9;" glyph-name="eacute" horiz-adv-x="439" d="M391 261T389 241H99Q107 29 236 29Q270 29 296 41T350 79L374 52Q344 21 311 5T236 -11Q150 -11 102 57T53 257Q53 390 99 461T227 532Q308 532 349 468T391 282Q391 261 389 241ZM347 297Q347
493 227 493Q171 493 137 442T99 277H347V297ZM285 772L308 732L149 648L133 673L285 772Z" />
<glyph unicode="&#xea;" glyph-name="ecircumflex" horiz-adv-x="439" d="M391 261T389 241H99Q107 29 236 29Q270 29 296 41T350 79L374 52Q344 21 311 5T236 -11Q150 -11 102 57T53 257Q53 390 99 461T227 532Q308 532 349 468T391 282Q391 261 389 241ZM347
297Q347 493 227 493Q171 493 137 442T99 277H347V297ZM128 649L108 669L213 775H240L346 669L325 649L227 734L128 649Z" />
<glyph unicode="&#xeb;" glyph-name="edieresis" horiz-adv-x="439" d="M391 261T389 241H99Q107 29 236 29Q270 29 296 41T350 79L374 52Q344 21 311 5T236 -11Q150 -11 102 57T53 257Q53 390 99 461T227 532Q308 532 349 468T391 282Q391 261 389 241ZM347 297Q347
493 227 493Q171 493 137 442T99 277H347V297ZM165 732T174 723T183 699Q183 685 174 676T151 666Q137 666 128 675T119 699Q119 713 128 722T151 732Q165 732 174 723ZM317 732T326 723T336 699Q336 685 327 676T303 666Q289 666 280 675T271 699Q271 713 280
722T303 732Q317 732 326 723Z" />
<glyph unicode="&#xec;" glyph-name="igrave" horiz-adv-x="221" d="M133 522V0H88V522H133ZM49 772L200 673L184 648L26 732L49 772Z" />
<glyph unicode="&#xed;" glyph-name="iacute" horiz-adv-x="221" d="M133 522V0H88V522H133ZM168 772L191 732L32 648L16 673L168 772Z" />
<glyph unicode="&#xee;" glyph-name="icircumflex" horiz-adv-x="221" d="M133 522V0H88V522H133ZM11 649L-9 669L96 775H123L229 669L208 649L110 734L11 649Z" />
<glyph unicode="&#xef;" glyph-name="idieresis" horiz-adv-x="221" d="M133 522V0H88V522H133ZM48 732T57 723T66 699Q66 685 57 676T34 666Q20 666 11 675T2 699Q2 713 11 722T34 732Q48 732 57 723ZM200 732T209 723T219 699Q219 685 210 676T186 666Q172 666
163 675T154 699Q154 713 163 722T186 732Q200 732 209 723Z" />
<glyph unicode="&#xf0;" glyph-name="eth" horiz-adv-x="456" d="M332 601T365 512T398 286Q398 140 351 65T224 -11Q145 -11 99 54T53 232Q53 296 72 349T127 434T214 466Q254 466 286 447T347 388Q338 468 313 527T237 635L172 556L139 570L210 657Q160 693
108 706L117 742Q173 728 235 685L292 756L321 735L263 663Q332 601 365 512ZM284 28T318 94T352 288Q352 320 351 333Q295 427 219 427Q162 427 131 373T100 231Q100 133 132 81T224 28Q284 28 318 94Z" />
<glyph unicode="&#xf1;" glyph-name="ntilde" horiz-adv-x="479" d="M335 532T365 492T396 382V0H351V376Q351 494 270 494Q195 494 133 377V0H88V522H127L131 429Q160 479 195 505T278 532Q335 532 365 492ZM278 671T266 677T236 696Q223 706 214 710T196 715Q182
715 172 707T150 678L123 691Q154 751 195 751Q208 751 220 745T248 727Q264 716 273 712T292 707Q305 707 315 716T339 749L365 737Q337 671 293 671Q278 671 266 677Z" />
<glyph unicode="&#xf2;" glyph-name="ograve" horiz-adv-x="467" d="M320 532T367 465T414 263Q414 130 366 60T233 -11Q148 -11 101 59T53 260Q53 393 101 462T234 532Q320 532 367 465ZM170 493T135 437T100 260Q100 143 134 86T233 29Q367 29 367 263Q367 493
234 493Q170 493 135 437ZM173 772L324 673L308 648L150 732L173 772Z" />
<glyph unicode="&#xf3;" glyph-name="oacute" horiz-adv-x="467" d="M320 532T367 465T414 263Q414 130 366 60T233 -11Q148 -11 101 59T53 260Q53 393 101 462T234 532Q320 532 367 465ZM170 493T135 437T100 260Q100 143 134 86T233 29Q367 29 367 263Q367 493
234 493Q170 493 135 437ZM292 772L315 732L156 648L140 673L292 772Z" />
<glyph unicode="&#xf4;" glyph-name="ocircumflex" horiz-adv-x="467" d="M320 532T367 465T414 263Q414 130 366 60T233 -11Q148 -11 101 59T53 260Q53 393 101 462T234 532Q320 532 367 465ZM170 493T135 437T100 260Q100 143 134 86T233 29Q367 29 367 263Q367
493 234 493Q170 493 135 437ZM135 649L115 669L220 775H247L353 669L332 649L234 734L135 649Z" />
<glyph unicode="&#xf5;" glyph-name="otilde" horiz-adv-x="467" d="M320 532T367 465T414 263Q414 130 366 60T233 -11Q148 -11 101 59T53 260Q53 393 101 462T234 532Q320 532 367 465ZM170 493T135 437T100 260Q100 143 134 86T233 29Q367 29 367 263Q367 493
234 493Q170 493 135 437ZM268 671T256 677T226 696Q213 706 204 710T186 715Q172 715 162 707T140 678L113 691Q144 751 185 751Q198 751 210 745T238 727Q254 716 263 712T282 707Q295 707 305 716T329 749L355 737Q327 671 283 671Q268 671 256 677Z" />
<glyph unicode="&#xf6;" glyph-name="odieresis" horiz-adv-x="467" d="M320 532T367 465T414 263Q414 130 366 60T233 -11Q148 -11 101 59T53 260Q53 393 101 462T234 532Q320 532 367 465ZM170 493T135 437T100 260Q100 143 134 86T233 29Q367 29 367 263Q367
493 234 493Q170 493 135 437ZM172 732T181 723T190 699Q190 685 181 676T158 666Q144 666 135 675T126 699Q126 713 135 722T158 732Q172 732 181 723ZM324 732T333 723T343 699Q343 685 334 676T310 666Q296 666 287 675T278 699Q278 713 287 722T310 732Q324
732 333 723Z" />
<glyph unicode="&#xf7;" glyph-name="divide" horiz-adv-x="403" d="M218 154T228 143T239 115Q239 99 229 88T201 76Q184 76 174 87T163 115Q163 131 173 142T201 154Q218 154 228 143ZM218 584T228 573T239 545Q239 529 229 518T201 506Q184 506 174 517T163
545Q163 561 173 572T201 584Q218 584 228 573ZM57 312V351H346V312H57Z" />
<glyph unicode="&#xf8;" glyph-name="oslash" horiz-adv-x="467" d="M414 450T414 263Q414 130 366 60T233 -11Q207 -11 181 -3L148 -123L110 -113L147 13Q101 42 77 104T53 260Q53 393 101 462T234 532Q263 532 287 525L321 645L358 635L322 508Q414 450 414
263ZM99 98T163 50L277 486Q259 493 234 493Q169 493 134 437T99 260Q99 98 163 50ZM368 28T368 263Q368 423 306 471L191 35Q209 28 233 28Q368 28 368 263Z" />
<glyph unicode="&#xf9;" glyph-name="ugrave" horiz-adv-x="475" d="M387 0H349L346 91Q293 -11 207 -11Q150 -11 117 28T83 133V522H128V137Q128 83 150 56T213 28Q290 28 342 140V522H387V0ZM174 772L325 673L309 648L151 732L174 772Z" />
<glyph unicode="&#xfa;" glyph-name="uacute" horiz-adv-x="475" d="M387 0H349L346 91Q293 -11 207 -11Q150 -11 117 28T83 133V522H128V137Q128 83 150 56T213 28Q290 28 342 140V522H387V0ZM293 772L316 732L157 648L141 673L293 772Z" />
<glyph unicode="&#xfb;" glyph-name="ucircumflex" horiz-adv-x="475" d="M387 0H349L346 91Q293 -11 207 -11Q150 -11 117 28T83 133V522H128V137Q128 83 150 56T213 28Q290 28 342 140V522H387V0ZM136 649L116 669L221 775H248L354 669L333 649L235 734L136 649Z" />
<glyph unicode="&#xfc;" glyph-name="udieresis" horiz-adv-x="475" d="M387 0H349L346 91Q293 -11 207 -11Q150 -11 117 28T83 133V522H128V137Q128 83 150 56T213 28Q290 28 342 140V522H387V0ZM173 732T182 723T191 699Q191 685 182 676T159 666Q145 666 136
675T127 699Q127 713 136 722T159 732Q173 732 182 723ZM325 732T334 723T344 699Q344 685 335 676T311 666Q297 666 288 675T279 699Q279 713 288 722T311 732Q325 732 334 723Z" />
<glyph unicode="&#xfd;" glyph-name="yacute" horiz-adv-x="389" d="M224 -2Q199 -92 163 -136T53 -201L47 -166Q89 -152 113 -132T153 -83T184 0H167L17 522H64L197 35L326 522H372L224 -2ZM254 772L277 732L118 648L102 673L254 772Z" />
<glyph unicode="&#xfe;" glyph-name="thorn" horiz-adv-x="472" d="M338 532T378 465T419 264Q419 132 376 61T256 -11Q216 -11 185 9T133 64V-194L88 -202V735L133 741V449Q183 532 263 532Q338 532 378 465ZM371 29T371 264Q371 382 343 437T257 493Q218 493
189 470T133 403V112Q182 29 250 29Q371 29 371 264Z" />
<glyph unicode="&#xff;" glyph-name="ydieresis" horiz-adv-x="389" d="M224 -2Q199 -92 163 -136T53 -201L47 -166Q89 -152 113 -132T153 -83T184 0H167L17 522H64L197 35L326 522H372L224 -2ZM134 732T143 723T152 699Q152 685 143 676T120 666Q106 666 97 675T88
699Q88 713 97 722T120 732Q134 732 143 723ZM286 732T295 723T305 699Q305 685 296 676T272 666Q258 666 249 675T240 699Q240 713 249 722T272 732Q286 732 295 723Z" />
<glyph unicode="&#x2013;" glyph-name="endash" horiz-adv-x="430" d="M35 293V333H394V293H35Z" />
<glyph unicode="&#x2014;" glyph-name="emdash" horiz-adv-x="644" d="M35 294V333H609V294H35Z" />
<glyph unicode="&#x2018;" glyph-name="quoteleft" horiz-adv-x="189" d="M76 542T67 552T58 579Q58 592 70 621L114 738H143L110 610Q128 600 128 579Q128 563 119 553T93 542Q76 542 67 552Z" />
<glyph unicode="&#x2019;" glyph-name="quoteright" horiz-adv-x="189" d="M113 737T122 727T131 700Q131 687 119 658L75 541H46L79 669Q61 680 61 700Q61 716 70 726T96 737Q113 737 122 727Z" />
<glyph unicode="&#x201a;" glyph-name="quotesinglbase" horiz-adv-x="189" d="M113 63T122 53T131 26Q131 13 119 -16L75 -133H46L79 -5Q61 6 61 26Q61 42 70 52T96 63Q113 63 122 53Z" />
<glyph unicode="&#x201c;" glyph-name="quotedblleft" horiz-adv-x="332" d="M76 542T67 552T58 579Q58 592 70 621L114 738H143L110 610Q128 600 128 579Q128 563 119 553T93 542Q76 542 67 552ZM219 542T210 552T201 579Q201 592 213 621L257 738H286L253 610Q271
600 271 579Q271 563 262 553T236 542Q219 542 210 552Z" />
<glyph unicode="&#x201d;" glyph-name="quotedblright" horiz-adv-x="332" d="M113 737T122 727T131 700Q131 687 119 658L75 541H46L79 669Q61 680 61 700Q61 716 70 726T96 737Q113 737 122 727ZM256 737T265 727T274 700Q274 687 262 658L218 541H189L222 669Q204
680 204 700Q204 716 213 726T239 737Q256 737 265 727Z" />
<glyph unicode="&#x201e;" glyph-name="quotedblbase" horiz-adv-x="332" d="M113 63T122 53T131 26Q131 13 119 -16L75 -133H46L79 -5Q61 6 61 26Q61 42 70 52T96 63Q113 63 122 53ZM256 63T265 53T274 26Q274 13 262 -16L218 -133H189L222 -5Q204 6 204 26Q204
42 213 52T239 63Q256 63 265 53Z" />
<glyph unicode="&#x2022;" glyph-name="bullet" horiz-adv-x="244" d="M149 407T165 390T181 347Q181 322 165 305T122 288Q97 288 81 305T64 347Q64 373 80 390T122 407Q149 407 165 390Z" />
<glyph unicode="&#x2039;" glyph-name="guilsinglleft" horiz-adv-x="298" d="M201 514L230 495L114 288L230 81L201 63L69 272V303L201 514Z" />
<glyph unicode="&#x203a;" glyph-name="guilsinglright" horiz-adv-x="298" d="M96 514L230 303V272L96 63L69 81L185 288L69 495L96 514Z" />
</font>
</defs>
</svg>
