<?xml version="1.0" standalone="no"?>
<!DOCTYPE svg PUBLIC "-//W3C//DTD SVG 1.1//EN" "http://www.w3.org/Graphics/SVG/1.1/DTD/svg11.dtd">
<svg xmlns="http://www.w3.org/2000/svg">
<defs >
<font id="GFSNeohellenic" horiz-adv-x="489" ><font-face
    font-family="GFS Neohellenic"
    units-per-em="1000"
    panose-1="2 0 5 0 0 0 0 2 0 4"
    ascent="873"
    descent="-245"
    alphabetic="0" />
<glyph unicode=" " glyph-name="space" horiz-adv-x="398" />
<glyph unicode="!" glyph-name="exclam" horiz-adv-x="209" d="M140 540Q130 504 130 342Q130 230 130 168T132 93H80Q82 109 83 171T84 342Q84 515 73 540H140ZM141 17Q141 2 130 -8T105 -19Q90 -19 80 -9T69 17Q69 32 79 42T105 53Q119 53 130 43T141 17Z" />
<glyph unicode="&quot;" glyph-name="quotedbl" horiz-adv-x="245" d="M109 626L91 449H42L44 630L109 626ZM203 626L185 449H136L138 630L203 626Z" />
<glyph unicode="#" glyph-name="numbersign" horiz-adv-x="803" d="M286 226H459L495 399H322L286 226ZM699 226L688 174H500L462 -1H410L448 174H275L237 -1H185L223 174H59L70 226H234L270 399H106L118 451H282L319 628H371L334 451H507L544 628H596L559 451H747L735
399H547L511 226H699Z" />
<glyph unicode="$" glyph-name="dollar" horiz-adv-x="528" d="M274 271V50Q322 45 369 76Q426 112 418 174Q412 224 366 243Q343 250 320 257T274 271ZM239 353V573Q187 570 153 538T118 457Q118 452 118 447T120 436Q126 400 154 384Q168 376 239 353ZM274 -74H239V-11Q179
-13 99 16Q71 26 54 23Q54 50 57 124H95Q98 107 123 89Q177 50 239 48V282Q144 310 110 333Q51 374 51 446Q51 523 107 576Q160 625 239 632V703H274V634Q299 634 375 615Q424 604 429 605Q429 591 429 567T430 505H392Q386 537 376 544Q338 569 274 574Q274 338
275 338Q278 342 329 329Q382 315 418 292Q493 245 488 156Q483 76 414 30Q353 -10 274 -9V-74Z" />
<glyph unicode="%" glyph-name="percent" horiz-adv-x="680" d="M638 156Q634 -7 523 -7Q409 -7 409 155Q409 228 434 271Q462 323 523 323Q644 323 638 156ZM583 151Q584 196 575 223Q562 265 524 263Q468 262 466 150Q466 107 475 82Q489 41 525 43Q583 43 583
151ZM270 460Q266 297 155 297Q41 297 41 459Q41 532 66 575Q94 627 155 627Q276 627 270 460ZM215 455Q216 500 207 527Q194 569 156 567Q100 566 98 454Q98 411 107 386Q121 345 157 347Q215 347 215 455ZM473 647L235 -88H191L427 647H473Z" />
<glyph unicode="&amp;" glyph-name="ampersand" horiz-adv-x="556" d="M537 0H451L395 70Q367 32 317 10T211 -12Q166 -12 130 2T68 41T29 101T17 180Q20 298 154 372Q139 393 127 410T107 443T94 474T90 508Q90 569 128 606T226 643Q256 643 280 633T321 605T348
564T357 515Q357 462 332 426T249 356L390 176Q397 189 401 201T408 226T411 254T414 288H477Q473 239 463 199T436 124L537 0ZM295 508Q295 522 291 536T278 562T256 581T225 588Q195 588 173 566T151 511Q151 479 166 457T213 399Q295 436 295 508ZM353 118L189
324Q75 271 83 164Q88 110 124 79T213 47Q251 47 290 67T353 118Z" />
<glyph unicode="&apos;" glyph-name="quotesingle" horiz-adv-x="173" d="M120 626L102 449H53L55 630L120 626Z" />
<glyph unicode="(" glyph-name="parenleft" horiz-adv-x="297" d="M287 -228H191Q100 -89 71 -22Q22 86 22 204Q22 328 69 442Q101 515 187 650Q233 650 257 650T287 648Q263 615 238 582T191 515T151 449T123 385Q110 347 103 303T95 208Q92 98 151 -18Q168 -50
201 -102T287 -228Z" />
<glyph unicode=")" glyph-name="parenright" horiz-adv-x="297" d="M287 218Q287 92 239 -19Q209 -92 121 -228Q32 -228 22 -226Q46 -193 70 -160T117 -93T156 -27T185 37Q198 75 205 119T213 214Q216 324 157 440Q124 504 22 650H117Q163 580 193 529T238 444Q287
336 287 218Z" />
<glyph unicode="*" glyph-name="asterisk" horiz-adv-x="494" d="M408 354L381 306Q368 320 340 339T269 383Q269 273 279 247H225Q233 271 235 294Q237 308 235 383Q203 365 183 354T156 337Q138 324 124 306L96 355Q122 361 140 370Q145 372 164 383T217 413Q183
433 163 444T138 458Q117 468 96 470L122 518Q150 489 234 443Q235 519 234 534Q233 545 231 556T224 577H278Q267 545 269 442Q301 460 321 471T348 488Q367 499 379 518L408 470Q381 464 363 455Q358 453 339 442T285 411Q319 392 339 381T366 367Q384 357 408
354Z" />
<glyph unicode="+" glyph-name="plus" horiz-adv-x="554" d="M525 214H303V0H250V214H45V263H250V478H303V263H524L525 214Z" />
<glyph unicode="," glyph-name="comma" horiz-adv-x="191" d="M122 6Q122 -94 43 -113V-78Q84 -70 84 0H56V67H122V6Z" />
<glyph unicode="-" glyph-name="hyphen" horiz-adv-x="313" d="M271 183H43V237H271V183Z" />
<glyph unicode="." glyph-name="period" horiz-adv-x="261" d="M169 31Q169 15 156 3T126 -10Q110 -10 97 2T84 31Q84 48 96 61T126 74Q143 74 156 61T169 31Z" />
<glyph unicode="/" glyph-name="slash" horiz-adv-x="323" d="M308 647L70 -88H6L242 647H308Z" />
<glyph unicode="0" glyph-name="zero" horiz-adv-x="535" d="M498 311Q487 -16 268 -16Q39 -16 39 308Q39 453 89 541Q147 644 267 644Q391 644 450 549Q502 464 498 311ZM424 309Q426 440 397 503Q359 587 265 583Q112 575 111 308Q109 191 138 129Q175 47 267
47Q422 49 424 309Z" />
<glyph unicode="1" glyph-name="one" horiz-adv-x="535" d="M302 0H215Q226 38 227 127V312Q227 419 227 477T226 546Q212 548 189 546V572Q227 584 254 622Q295 622 293 605Q292 597 292 523T292 306V127Q294 35 302 0Z" />
<glyph unicode="2" glyph-name="two" horiz-adv-x="535" d="M459 -4Q390 -1 339 0T251 1Q225 2 181 2T74 0V35Q88 49 121 83T208 173Q273 238 293 261Q344 321 365 377Q383 422 383 461Q383 517 346 551Q314 581 267 581Q200 582 167 530Q147 498 143 456H84Q85
476 92 498Q106 548 133 578Q178 628 270 633Q350 636 398 588Q434 552 445 494Q448 477 448 460Q448 341 310 196L175 54H348Q397 54 404 64Q412 75 413 93H459Q455 36 459 -4Z" />
<glyph unicode="3" glyph-name="three" horiz-adv-x="535" d="M461 175Q461 98 406 46Q344 -13 241 -8Q147 -3 98 19L120 82Q157 66 162 65Q203 51 244 50Q307 49 348 80T393 169Q397 236 345 279Q298 317 238 314Q237 316 237 378Q292 374 329 406Q365 438 367
482Q369 527 342 553T272 578Q232 576 201 551Q166 522 153 475L102 496Q116 554 159 591T262 633Q343 638 390 594Q430 555 432 495Q433 445 403 404Q370 360 316 350Q389 333 425 285Q461 240 461 175Z" />
<glyph unicode="4" glyph-name="four" horiz-adv-x="535" d="M460 153Q445 157 429 158T396 161V58Q397 48 399 34T406 0H319Q325 21 328 34T332 53V162Q237 163 77 162V209Q111 258 141 302T199 385Q263 479 302 540T357 630Q358 631 376 630Q395 630 396 629V523V325V218Q407
217 423 219T460 225V153ZM331 215Q331 312 331 377T332 478Q298 432 253 367T151 216Q217 215 261 215T331 215Z" />
<glyph unicode="5" glyph-name="five" horiz-adv-x="535" d="M453 216Q453 138 411 77Q367 11 291 -8Q255 -18 204 -18Q131 -18 65 2L86 65Q152 42 206 42Q281 42 334 89Q386 135 388 211Q389 287 334 335Q275 385 175 385Q165 385 156 385T136 383Q120 379 116
360H74Q74 600 67 628Q145 623 208 622Q248 621 299 622T415 627Q411 596 415 545H365Q364 556 362 558T357 563Q351 571 293 571H131Q129 539 129 508T130 445Q141 446 152 446T174 447Q314 447 389 375Q453 312 453 216Z" />
<glyph unicode="6" glyph-name="six" horiz-adv-x="535" d="M468 163Q467 90 418 38Q365 -19 278 -19Q177 -19 122 41Q66 103 73 201Q75 238 83 270T104 332Q129 389 193 466Q269 561 395 642L435 595Q422 587 409 579T383 562Q352 539 325 515T271 464Q188 373
153 289Q205 343 284 343Q370 343 421 289Q470 240 468 163ZM407 162Q408 189 400 212T375 252T335 278T281 288Q260 288 239 282T199 266T163 241T134 212Q131 195 131 179Q131 113 171 74T282 34Q309 34 331 43T370 70T396 111T407 162Z" />
<glyph unicode="7" glyph-name="seven" horiz-adv-x="535" d="M488 590Q371 440 315 306Q286 235 270 159T250 0Q175 -2 175 0Q194 161 231 266Q257 342 299 417T400 567H200Q148 567 138 554Q130 545 129 518H79Q84 592 79 627Q143 625 194 624T285 622Q347 622
488 628V590Z" />
<glyph unicode="8" glyph-name="eight" horiz-adv-x="535" d="M471 173Q471 99 423 50Q369 -7 273 -7Q174 -8 118 51Q69 101 69 178Q69 246 111 299Q153 352 221 355Q167 355 133 394Q101 431 101 481Q100 542 143 585Q191 634 273 633Q354 631 398 587Q438 547
438 489Q438 435 404 395Q370 355 318 355Q386 355 430 298Q472 245 471 173ZM378 491Q378 529 352 555Q324 583 273 583Q220 583 189 552Q161 525 161 485Q161 443 189 418Q220 388 274 388Q323 388 352 420Q379 449 378 491ZM406 173Q408 233 375 273Q338 319
276 319Q212 319 172 276Q137 236 135 180Q134 125 168 88Q205 48 274 46Q335 46 371 85Q404 120 406 173Z" />
<glyph unicode="9" glyph-name="nine" horiz-adv-x="535" d="M468 410Q465 374 457 341T434 274T395 206T341 132Q292 72 230 26Q209 12 188 -1T146 -29L105 18Q133 33 162 51Q231 95 279 148Q319 191 347 234T391 324Q338 270 256 270Q212 270 177 283T118 322T81
381T70 456Q73 529 122 578Q174 632 262 632Q362 632 418 570Q475 508 468 410ZM406 401Q407 408 407 415T408 429Q408 495 370 536T262 578Q205 578 169 539Q135 502 133 450Q131 399 163 364Q197 325 259 325Q299 325 343 348Q385 371 406 401Z" />
<glyph unicode=":" glyph-name="colon" horiz-adv-x="244" d="M157 363Q157 345 144 333T114 320Q98 320 85 332T72 363Q72 380 85 392T114 405Q131 405 144 392T157 363ZM157 7Q157 -9 144 -22T114 -35Q98 -35 85 -23T72 7Q72 25 84 37T114 50Q131 50 144 38T157 7Z" />
<glyph unicode=";" glyph-name="semicolon" horiz-adv-x="260" d="M178 355Q178 338 166 326T136 313Q120 313 107 325T94 355Q94 387 136 387Q178 387 178 355ZM178 32Q173 -66 99 -82V-47Q133 -40 136 -12Q119 -12 105 1T91 33Q91 51 104 64T136 77Q153 77 166
64T178 32Z" />
<glyph unicode="&lt;" glyph-name="less" horiz-adv-x="472" d="M413 -37L122 258V304L413 595L411 519L177 282L411 45L413 -37Z" />
<glyph unicode="=" glyph-name="equalorig" horiz-adv-x="788" d="M670 315H118V364H670V315ZM670 141H118V191H670V141Z" />
<glyph unicode="&gt;" glyph-name="greater" horiz-adv-x="472" d="M357 258L65 -37L67 45L303 282L67 519L65 595L357 304V258Z" />
<glyph unicode="?" glyph-name="question" horiz-adv-x="426" d="M382 474Q382 345 268 260Q228 230 210 207Q188 175 184 125Q184 127 184 122T186 105H121Q121 112 122 117Q122 196 184 258Q203 274 221 290T259 322Q301 363 318 432Q323 455 323 474Q323 522
298 553Q269 588 214 588Q159 588 127 547Q110 525 105 498L65 499Q62 572 62 600Q78 596 131 614Q149 620 162 624T185 630T204 634T223 635Q257 635 286 627T336 600T370 550T382 474ZM188 26Q188 11 177 1T152 -10Q137 -10 127 0T116 26Q116 41 126 51T152 62Q166
62 177 52T188 26Z" />
<glyph unicode="@" glyph-name="at" horiz-adv-x="935" d="M873 197Q867 86 812 28Q763 -23 691 -20Q640 -18 605 8T559 79Q537 35 491 8T394 -19Q302 -19 249 43Q200 98 200 186Q200 263 250 322Q305 386 394 386Q505 386 561 287Q574 357 654 398L660 336Q592
274 592 185Q590 57 690 42Q728 36 760 71Q796 111 802 189Q803 197 803 206T803 223Q803 359 718 440Q634 521 486 521Q338 521 235 426Q129 327 129 168Q129 33 207 -57Q267 -126 365 -161Q441 -187 490 -183Q490 -246 486 -243Q301 -243 182 -134Q55 -20 55
170Q55 360 190 477Q315 584 490 584Q662 584 769 486Q882 381 873 197ZM533 185Q533 242 490 284Q448 327 392 327Q343 327 303 285Q264 244 264 186Q264 153 273 126T300 80T341 50T394 39Q451 39 492 80Q533 121 533 185Z" />
<glyph unicode="A" glyph-name="A" horiz-adv-x="613" d="M587 0H496Q489 32 427 205H176Q112 42 103 0H23Q72 97 272 633H343Q374 548 401 475T453 338Q565 37 587 0ZM406 266Q378 345 354 420T307 567Q293 524 266 450T197 266H406Z" />
<glyph unicode="B" glyph-name="B" horiz-adv-x="586" d="M522 170Q522 77 448 32Q394 -1 317 -1H86Q96 36 98 125Q98 311 98 414T97 540Q96 563 94 584T86 624H315Q505 624 505 463Q505 410 467 369Q434 334 388 324Q434 313 475 276Q522 229 522 170ZM445 463Q445
534 381 561Q347 575 308 575L157 574V347H308Q345 347 380 362Q445 391 445 463ZM456 170Q454 241 383 277Q337 300 303 300H157V54H312Q458 54 456 170Z" />
<glyph unicode="C" glyph-name="C" horiz-adv-x="533" d="M479 106Q475 72 474 49T472 13Q466 14 420 3Q372 -10 324 -10Q199 -10 120 89Q44 181 44 308Q44 446 116 536Q194 634 327 634Q368 634 414 623Q459 613 466 614Q466 601 468 578T474 519H427Q425 533
415 554Q390 576 324 575Q225 572 166 491Q113 415 113 307Q113 206 172 130Q236 49 334 49Q394 49 416 71Q426 81 432 106H479Z" />
<glyph unicode="D" glyph-name="D" horiz-adv-x="564" d="M529 303Q529 170 442 85Q357 0 223 0H39Q46 27 48 75Q51 123 51 312Q51 393 51 446T50 528Q49 556 47 579T39 621H230Q375 621 454 533Q529 449 529 303ZM455 303Q455 551 224 551H117V436Q116 398 116
369T116 321Q116 240 119 65H222Q326 65 390 132Q455 200 455 303Z" />
<glyph unicode="E" glyph-name="E" horiz-adv-x="525" d="M485 -5Q421 -2 370 -1T279 0Q248 -1 198 -2T77 -6Q87 27 87 324Q87 593 77 626Q144 622 253 620Q293 619 344 620T460 625Q455 590 460 529H410Q408 545 408 545Q408 548 402 554Q398 561 338 561H153Q151
468 153 358Q370 358 403 372V286Q356 301 153 298Q152 187 153 60H364Q418 60 427 72Q433 81 436 103H485Q480 29 485 -5Z" />
<glyph unicode="F" glyph-name="F" horiz-adv-x="470" d="M460 535H410Q410 557 398 563Q391 567 364 567H153V358Q232 358 280 358T347 360Q384 363 403 372V289Q394 291 379 293T340 297Q283 300 236 300T150 298Q150 263 150 223T151 138Q152 93 155 59T165
0H78Q84 23 87 58Q89 84 89 117T89 191Q88 263 88 296T87 324V544Q85 602 77 632Q109 632 165 629Q228 626 253 626Q305 625 356 626T460 631V535Z" />
<glyph unicode="G" glyph-name="G" horiz-adv-x="527" d="M501 16Q467 18 407 0Q375 -9 324 -9Q196 -9 118 88Q44 179 44 308Q44 444 117 535Q195 634 328 634Q372 634 413 625Q422 624 445 616Q460 611 466 613Q468 568 475 519H428Q421 554 394 568Q374 577
334 577Q230 577 169 490Q114 411 114 304Q114 205 173 129Q238 49 334 49Q376 49 397 57Q429 69 428 106L427 227H412Q379 227 372 224Q356 220 354 196H305Q309 254 305 289Q360 288 406 288T493 288Q493 157 493 123T492 152Q494 71 501 16Z" />
<glyph unicode="H" glyph-name="H" horiz-adv-x="635" d="M580 0H493Q500 25 502 96T504 285H152Q152 44 163 0H74Q85 38 86 128Q86 312 86 414T85 539Q84 562 82 582T74 621H163Q146 559 151 350H504Q505 462 503 529T493 621H579Q574 602 572 571T568 494V310Q568
46 580 0Z" />
<glyph unicode="I" glyph-name="I" horiz-adv-x="230" d="M165 621Q160 602 158 571T154 494V310V129Q156 35 164 0H77Q88 38 89 128Q89 312 89 414T88 539Q87 562 85 582T77 621H165Z" />
<glyph unicode="J" glyph-name="J" horiz-adv-x="235" d="M203 622Q196 597 196 428Q196 60 186 33Q169 -12 98 -12Q83 -12 72 -10T51 -4T32 0T14 0Q12 73 14 72L50 71Q51 58 68 49Q81 42 96 42Q125 42 127 68Q129 92 130 181T131 429Q131 597 124 622H203Z" />
<glyph unicode="K" glyph-name="K" horiz-adv-x="590" d="M552 0H443Q429 43 397 82Q383 99 357 126T293 190Q202 278 144 318L267 442Q313 488 339 515T373 550Q408 591 410 623H535Q503 599 440 533Q408 499 375 466T310 400Q297 387 279 369T237 328Q301 275
342 238Q488 101 552 0ZM154 623Q142 576 142 314V131Q143 83 145 51T153 0H65Q76 38 77 128Q77 313 77 415T76 540Q75 563 73 583T65 623H154Z" />
<glyph unicode="L" glyph-name="L" horiz-adv-x="530" d="M485 -5Q421 -2 370 -1T279 0Q248 -1 198 -2T77 -6Q87 27 87 325Q87 465 87 508T88 501Q87 543 85 573T77 622H165Q160 603 158 571T154 490V311L153 57H364Q418 57 427 69Q433 78 436 100H485Q482 28 485 -5Z" />
<glyph unicode="M" glyph-name="M" horiz-adv-x="763" d="M703 623Q688 595 683 498Q682 479 682 432T681 309V126Q682 81 684 50T692 0H608Q613 19 615 50T619 127V307V553Q608 507 549 392T384 89Q322 195 276 281Q166 486 150 548V307V127Q151 81 153 50T161
0H80Q85 19 87 50T91 126V309Q91 385 91 432T90 498Q85 595 70 623H168L383 212L602 623H703Z" />
<glyph unicode="N" glyph-name="N" horiz-adv-x="636" d="M578 623Q573 604 571 573T567 495Q568 522 568 476T568 310V0H510Q464 66 423 125T347 236Q262 361 212 437T144 543V310V129Q145 83 147 51T155 0H72Q77 19 79 50T83 128V312Q83 388 83 435T82 500Q77
596 63 623Q158 622 157 623Q201 563 240 508T316 400Q398 281 444 207T504 101V311Q504 422 504 467T505 495Q504 585 493 623H578Z" />
<glyph unicode="O" glyph-name="O" horiz-adv-x="697" d="M643 304Q643 175 563 84Q479 -10 352 -10Q220 -10 139 84Q61 172 61 304Q61 444 134 535Q213 634 352 634Q492 634 572 535Q643 444 643 304ZM571 304Q571 422 518 493Q460 569 351 569Q249 569 188 485Q132
409 132 303Q132 203 191 132Q254 55 352 55Q452 55 513 131Q571 201 571 304Z" />
<glyph unicode="P" glyph-name="P" horiz-adv-x="511" d="M480 448Q480 355 408 306Q357 272 295 267Q286 267 269 267T232 266T191 265T156 265Q156 251 156 243T155 220T155 180T154 104Q155 70 157 45T165 0H77Q82 19 84 49T88 125V309V493Q87 540 85 572T77
623H296Q353 623 406 590Q480 542 480 448ZM410 448Q410 499 382 527Q362 548 330 557Q321 559 312 560T295 563Q266 567 157 566L156 325Q216 324 250 324T295 327Q411 344 410 448Z" />
<glyph unicode="Q" glyph-name="Q" horiz-adv-x="698" d="M535 -123H428Q427 -118 423 -103T408 -64L380 -9Q373 -10 366 -10T352 -10Q220 -10 139 84Q61 172 61 304Q61 444 134 535Q213 634 352 634Q492 634 572 535Q643 444 643 304Q643 203 590 120Q537 38
450 7L456 -4Q459 -11 469 -27T496 -68Q529 -117 535 -123ZM571 304Q571 422 518 493Q460 569 351 569Q249 569 188 485Q132 409 132 303Q132 203 191 132Q254 55 352 55Q452 55 513 131Q571 201 571 304Z" />
<glyph unicode="R" glyph-name="R" horiz-adv-x="540" d="M502 0H414Q415 4 415 7T416 16Q416 80 377 160Q332 256 264 277Q238 285 193 286Q183 285 174 285T154 284V114Q155 76 157 48T165 0H77Q82 19 84 49T88 125V309V493Q87 540 85 572T77 623H296Q333 623
366 614T425 586T465 535T480 458Q480 324 331 292Q453 251 502 0ZM410 458Q410 486 402 505T378 537T342 555T295 563Q266 567 157 566L156 345Q216 344 250 344T295 347Q351 355 380 379T410 458Z" />
<glyph unicode="S" glyph-name="S" horiz-adv-x="505" d="M471 157Q467 60 372 18Q301 -15 193 -10Q152 -9 82 17Q50 28 37 24Q37 51 40 125H78Q81 108 106 90Q163 48 233 48Q300 48 349 76Q409 110 401 173Q397 212 363 236Q339 255 288 270Q266 276 244 282T200
294Q126 317 90 342Q34 386 34 456Q34 545 102 593Q162 636 257 634Q283 634 358 615Q407 604 412 605Q412 591 412 567T413 505H375Q369 537 359 544Q313 575 246 575Q95 575 100 449Q103 374 257 344Q478 300 471 157Z" />
<glyph unicode="T" glyph-name="T" horiz-adv-x="640" d="M604 521H554Q553 546 546 558Q534 570 483 570H355V301Q355 186 355 141T354 122Q355 79 357 49T365 0H278Q289 38 290 122V301V571H164Q114 571 102 559Q95 547 94 522H43Q48 585 43 623H604Q601 590 604 521Z" />
<glyph unicode="U" glyph-name="U" horiz-adv-x="635" d="M585 621Q574 580 574 395Q574 385 574 371T575 337Q576 318 576 304T576 281Q576 152 518 78Q447 -12 320 -12Q192 -12 122 75Q66 146 66 262Q66 257 66 293T68 406Q69 448 69 484T66 550Q63 599 56 621H148Q140
587 137 468Q136 407 136 353T135 251Q135 55 322 55Q409 55 457 107Q510 166 510 301Q510 411 507 500Q506 545 504 575T497 621H585Z" />
<glyph unicode="V" glyph-name="V" horiz-adv-x="594" d="M578 621Q535 546 338 -2H263Q257 17 232 84T162 269Q108 412 74 499T24 621H102Q107 602 128 541T188 376Q234 254 262 176T302 63Q307 77 333 154T411 375Q483 580 492 621H578Z" />
<glyph unicode="W" glyph-name="W" horiz-adv-x="950" d="M933 624Q920 590 868 436T723 1H648Q622 82 581 209T481 513Q452 425 410 298T313 1H238Q195 129 144 284T29 624H107Q129 548 171 409T277 66Q352 298 442 624H522Q547 532 687 66Q750 271 790 410T847
624H933Z" />
<glyph unicode="X" glyph-name="X" horiz-adv-x="640" d="M633 0H529Q522 16 510 40T477 97L328 292L169 97Q136 58 114 0H8Q24 34 291 334Q260 372 233 405T183 468Q126 537 92 575T44 623H157Q164 605 213 533L332 377L450 530Q479 569 500 623H603Q580 596
523 524T372 333Q410 288 442 250T501 178Q630 19 633 0Z" />
<glyph unicode="Y" glyph-name="Y" horiz-adv-x="525" d="M517 623Q500 605 471 565T399 462Q374 424 349 386T299 310Q300 264 300 219T301 128Q303 35 311 0H223Q234 38 235 127V310Q207 353 179 395T123 481Q81 544 54 579T14 623H130Q128 596 161 544L272
367L381 543Q414 597 416 623H517Z" />
<glyph unicode="Z" glyph-name="Z" horiz-adv-x="585" d="M554 621L156 57H419Q473 57 482 70Q490 80 490 100H541Q536 31 541 -10Q400 -2 320 -4Q275 -3 211 -3T62 -6V31L434 559H206Q148 559 142 552Q137 545 135 527H84Q88 588 84 624Q148 621 199 620T291
619Q338 618 403 618T554 621Z" />
<glyph unicode="[" glyph-name="bracketleft" horiz-adv-x="356" d="M320 -227H88V652H320L319 607H145V-173H320V-227Z" />
<glyph unicode="\" glyph-name="backslash" horiz-adv-x="323" d="M72 647L308 -88H244L6 647H72Z" />
<glyph unicode="]" glyph-name="bracketright" horiz-adv-x="385" d="M266 -227H34V-175H210V606H34V652H266V-227Z" />
<glyph unicode="^" glyph-name="asciicircum" horiz-adv-x="500" d="M450 244H388L250 555L112 244H49L226 626H274L450 244Z" />
<glyph unicode="_" glyph-name="underscore" horiz-adv-x="485" d="M485 -121H0V-73H485V-121Z" />
<glyph unicode="`" glyph-name="grave" horiz-adv-x="540" d="M278 459L227 443L166 610L234 633L278 459Z" />
<glyph unicode="a" glyph-name="a" horiz-adv-x="427" d="M272 288Q271 355 198 351Q180 350 160 344T121 327T86 304T59 277V337Q111 398 200 400Q257 401 292 374Q333 342 333 279V73Q333 50 350 50Q356 50 397 80V26Q364 -9 339 -9Q287 -9 275 40Q229 -8 150
-10Q126 -10 106 -2T71 22T48 57T40 100Q40 150 74 183Q106 213 159 221Q179 223 207 227T272 238V288ZM275 90V186Q260 184 235 181T174 172Q141 167 120 149T98 108Q98 80 115 62T161 43Q182 43 220 58Q259 75 275 90Z" />
<glyph unicode="b" glyph-name="b" horiz-adv-x="431" d="M414 194Q414 103 356 48Q297 -8 213 -8Q135 -8 105 35L109 0H44Q44 11 44 29T46 73Q46 74 46 104T47 194Q48 254 48 284T48 316V387Q49 544 42 600H110Q108 566 107 514T105 388V349Q141 394 213 394Q304
394 359 339Q414 284 414 194ZM353 194Q353 225 344 252T316 299T272 330T215 341Q147 341 105 293Q104 262 104 213T107 95Q137 47 215 47Q275 47 313 87T353 194Z" />
<glyph unicode="c" glyph-name="c" horiz-adv-x="368" d="M340 17Q327 12 318 8T300 1Q273 -7 237 -8Q144 -12 86 49Q32 108 33 196Q35 274 82 329Q131 384 210 393Q267 399 324 383L315 330Q273 341 240 341Q205 341 177 330Q97 299 95 193Q95 134 136 90Q177
48 239 47Q276 47 323 68L340 17Z" />
<glyph unicode="d" glyph-name="d" horiz-adv-x="458" d="M411 600Q409 566 408 514T406 388V349Q406 327 406 297T407 227Q408 180 408 145T409 84V26Q410 12 410 5T410 0H345L347 42Q306 -8 237 -8Q145 -8 87 52Q31 109 33 196Q34 281 90 337Q147 394 237 394Q319
394 348 347L349 387Q353 517 343 600H411ZM239 341Q176 341 134 299Q93 256 93 194Q93 133 135 90Q178 47 239 47Q308 47 347 99Q348 146 348 192T349 287Q308 341 239 341Z" />
<glyph unicode="e" glyph-name="e" horiz-adv-x="435" d="M220 394Q310 395 357 338Q399 285 398 197H95V193Q94 129 140 86Q182 47 242 45Q302 44 349 91L378 38Q300 -5 237 -8Q144 -12 86 49Q32 108 33 195Q34 279 87 336Q139 392 220 394ZM325 250Q314 340
219 340Q182 340 151 316T105 250H325Z" />
<glyph unicode="f" glyph-name="f" horiz-adv-x="295" d="M295 501Q231 565 181 560Q144 557 135 512Q131 493 131 396Q242 401 251 407V339Q237 346 131 348V312Q131 177 131 100T133 -1H66Q72 50 72 310V348Q19 346 6 342V400Q22 394 71 395Q70 522 85 555Q111
613 189 611Q218 611 245 598Q262 590 274 586T295 579V501Z" />
<glyph unicode="g" glyph-name="g" horiz-adv-x="471" d="M439 388Q437 341 436 273T435 112Q435 -67 426 -103Q412 -156 363 -187Q313 -219 252 -219Q182 -219 131 -196Q124 -192 112 -188T83 -177L120 -116Q165 -158 232 -165Q237 -166 241 -166T250 -166Q274
-166 296 -158T334 -137T361 -104T373 -63Q374 -32 376 64Q329 -8 237 -8Q145 -8 87 52Q31 109 33 196Q34 281 90 337Q147 394 237 394Q332 394 373 328Q373 341 373 356T372 388H439ZM239 341Q176 341 134 299Q93 256 93 194Q93 133 135 90Q178 47 239 47Q296
47 332 82T376 175V220Q368 274 331 307T239 341Z" />
<glyph unicode="h" glyph-name="h" horiz-adv-x="423" d="M391 0H323Q323 28 323 57T324 117V197Q323 232 321 257T313 299Q295 352 246 353Q195 354 155 326Q147 318 138 311T121 295Q120 275 120 247T120 181Q121 155 121 125T122 61Q123 29 123 14T124 0H59Q61
52 62 137T63 340V387Q63 550 57 600H125Q123 566 122 514T120 388V349Q181 404 255 404Q324 404 355 361Q389 314 389 196V78Q390 42 390 20T391 0Z" />
<glyph unicode="i" glyph-name="i" horiz-adv-x="188" d="M149 509Q149 491 134 477T100 462Q82 462 68 476T53 509Q53 528 67 542T100 557Q119 557 134 543T149 509ZM131 -1H65Q74 204 65 387H131Q124 197 131 -1Z" />
<glyph unicode="j" glyph-name="j" horiz-adv-x="188" d="M149 509Q149 491 134 477T100 462Q82 462 68 476T53 509Q53 528 67 542T100 557Q119 557 134 543T149 509ZM133 387Q131 370 130 302T129 112V-57Q126 -136 114 -163Q88 -219 22 -219Q8 -219 -1 -216Q-16
-208 -48 -198Q-44 -190 -38 -178T-21 -146Q1 -171 22 -170Q58 -167 67 -123Q70 -108 70 111Q70 205 69 273T66 387H133Z" />
<glyph unicode="k" glyph-name="k" horiz-adv-x="401" d="M394 29L353 -12L160 178L97 130Q95 71 97 62Q100 32 123 10Q91 -10 59 -10Q51 -10 48 -9Q39 -6 39 74Q39 112 42 222Q45 331 45 384Q45 459 43 513T37 600H105Q103 566 102 514T100 388V191Q130 217 186
269T324 399L365 360L203 214Q229 189 276 143T394 29Z" />
<glyph unicode="l" glyph-name="l" horiz-adv-x="184" d="M132 600Q130 557 129 495T127 349Q127 319 127 268T129 141Q130 65 130 30T131 0H66Q68 52 69 137T70 340Q72 514 64 600H132Z" />
<glyph unicode="m" glyph-name="m" horiz-adv-x="689" d="M636 0H568Q568 28 568 57T569 117Q571 162 569 197Q568 232 566 257T558 299Q542 351 491 353Q442 354 405 329Q404 328 396 321T370 298Q379 257 379 196V78Q380 42 380 20T381 0H313Q313 28 313 57T314
117Q316 162 314 197Q313 232 311 257T303 299Q285 352 236 353Q186 354 152 327Q145 319 138 312T124 297V0H59Q61 52 62 137T63 340Q62 346 62 358T61 388H122L121 351Q171 404 245 404Q326 404 355 344Q415 404 500 404Q570 404 600 361Q634 314 634 196Q634
158 634 129T635 78Q635 60 635 45T636 18V0Z" />
<glyph unicode="n" glyph-name="n" horiz-adv-x="451" d="M392 0H324Q324 29 324 57T325 113Q326 153 325 188Q324 223 322 248T314 290Q296 343 247 344Q196 345 158 318L125 288V0H60Q63 103 63 341Q63 347 63 359T62 388L123 389L122 342Q183 395 256 395Q325
395 356 352Q390 305 390 187Q390 157 390 125T391 58Q392 24 392 10T392 0Z" />
<glyph unicode="o" glyph-name="o" horiz-adv-x="471" d="M438 194Q438 103 380 48Q321 -8 237 -8Q145 -8 87 52Q31 109 33 196Q34 281 90 337Q147 394 237 394Q328 394 383 339Q438 284 438 194ZM377 194Q377 225 368 252T340 299T296 330T239 341Q176 341 134
299Q93 256 93 194Q93 133 135 90Q178 47 239 47Q299 47 337 87T377 194Z" />
<glyph unicode="p" glyph-name="p" horiz-adv-x="431" d="M414 195Q414 103 359 47Q303 -9 213 -9Q141 -9 105 36V-3Q105 -79 106 -133T110 -222H42Q49 -167 48 -2V69Q47 132 47 193T46 316Q45 339 45 357T44 389H109L105 354Q119 374 148 385T213 397Q297 397
356 341Q414 286 414 195ZM215 342Q150 342 107 294Q105 226 105 176T105 92Q147 44 215 44Q276 44 315 88Q354 132 353 195Q352 262 314 302T215 342Z" />
<glyph unicode="q" glyph-name="q" horiz-adv-x="458" d="M237 396Q306 396 347 346L345 388H410Q410 390 410 383T409 362V304Q409 279 409 244T407 160Q406 119 406 89T406 36V-3Q406 -76 407 -130T411 -222H343Q353 -137 349 -2L348 38Q310 -9 237 -9Q147 -9
90 49Q34 108 33 192Q32 277 88 337Q145 396 237 396ZM239 341Q179 341 135 297Q93 253 93 194Q93 131 134 87Q176 44 239 44Q307 44 349 101Q349 144 349 190T347 289Q308 341 239 341Z" />
<glyph unicode="r" glyph-name="r" horiz-adv-x="259" d="M237 328Q220 341 207 341Q149 341 120 288Q100 249 102 207Q102 182 102 150T103 77Q104 36 104 17T105 0L41 -1Q44 96 41 339Q39 353 38 388H101L100 319Q122 395 201 396Q222 396 237 389V328Z" />
<glyph unicode="s" glyph-name="s" horiz-adv-x="310" d="M225 7Q183 -12 125 -8Q108 -7 85 -2T33 12V80Q43 73 67 65T129 45Q134 44 139 44T149 43Q182 43 207 59T235 105Q238 143 180 168Q160 174 132 185T69 212Q32 236 32 288Q32 336 70 368Q105 397 161 397Q177
397 205 390Q224 385 235 383T251 380V313Q206 340 152 342Q130 342 111 330Q90 315 89 293Q87 258 173 236Q224 222 255 194Q295 160 295 109Q295 38 225 7Z" />
<glyph unicode="t" glyph-name="t" horiz-adv-x="278" d="M257 389V346H159L155 176Q154 124 154 108T153 108Q153 53 165 53Q171 53 182 61T197 71Q199 68 203 58T214 29Q155 -10 115 -9Q92 -7 92 78Q92 85 95 174Q96 205 98 345H40Q41 346 41 367V388H99V492L159
518V388Q256 388 257 389Z" />
<glyph unicode="u" glyph-name="u" horiz-adv-x="454" d="M441 29Q367 -15 341 -9Q326 -6 324 44Q263 -9 190 -9Q120 -9 90 34Q56 81 56 199Q56 231 56 260T57 315Q57 332 57 346T58 372Q59 382 59 386T59 388H127Q126 362 125 334T122 274Q121 254 121 235T121
198Q122 163 124 138T132 96Q150 43 199 42Q250 41 288 68L321 98Q322 143 324 269Q325 327 325 356T326 388H391Q389 336 388 254T387 56Q389 54 390 54Q393 54 398 56T408 62T417 68T424 71Q426 68 430 58T441 29Z" />
<glyph unicode="v" glyph-name="v" horiz-adv-x="404" d="M384 386Q370 354 331 258T225 0H183Q148 88 109 184T25 387H102Q122 320 148 244T206 82Q220 117 236 159T270 253Q288 304 298 337T313 386H384Z" />
<glyph unicode="w" glyph-name="w" horiz-adv-x="599" d="M585 386Q572 352 538 256T447 0H404Q390 45 366 117T308 292L197 0H155L17 387H94Q120 299 141 225T179 88Q190 119 204 159T234 252Q266 352 273 385V387H344L343 386H344V385V384Q362 324 428 84Q447
150 468 224T514 386H585Z" />
<glyph unicode="x" glyph-name="x" horiz-adv-x="393" d="M373 0H298Q285 20 260 59T196 158Q170 121 144 82T90 0H19Q41 29 77 78T165 199Q135 242 103 289T36 387H108Q124 362 147 327T200 245Q222 279 242 314T282 387H356Q339 361 308 315T230 200Q276 131 373 0Z" />
<glyph unicode="y" glyph-name="y" horiz-adv-x="432" d="M416 386L295 84Q248 -32 226 -75Q165 -196 113 -212Q82 -222 47 -222Q-17 -222 -51 -192L-31 -143Q-2 -171 46 -171Q61 -171 79 -166Q116 -156 154 -97Q186 -50 204 4Q159 101 116 196T28 387H101Q120
345 153 268T234 76Q269 161 296 238T344 386Q414 387 416 386Z" />
<glyph unicode="z" glyph-name="z" horiz-adv-x="397" d="M357 0H45V25L262 335H167Q100 335 69 325V387H354V367L131 52H278Q287 52 306 54T357 60V0Z" />
<glyph unicode="{" glyph-name="braceleft" horiz-adv-x="330" d="M259 -229H204Q168 -229 139 -197Q109 -161 109 -107V52Q109 106 88 139T33 173V230Q66 230 87 263T109 348V508Q109 562 139 597Q166 629 204 629H259V569H217Q173 569 173 491V334Q173 273 139
235Q117 210 92 202L102 200Q125 195 144 169Q173 129 173 66V-90Q173 -168 217 -168H259V-229Z" />
<glyph unicode="|" glyph-name="bar" horiz-adv-x="223" d="M146 -228H76V623H146V-228Z" />
<glyph unicode="}" glyph-name="braceright" horiz-adv-x="330" d="M293 173Q260 173 239 140T217 52V-107Q217 -134 210 -156T189 -195T159 -220T122 -229H67V-168H109Q152 -168 152 -90V66Q152 130 182 169Q201 195 224 200L234 202Q209 210 187 235Q152 276
152 334V491Q152 569 109 569H67V629H122Q141 629 158 621T189 596T209 558T217 508V348Q217 297 238 264T293 230V173Z" />
<glyph unicode="~" glyph-name="asciitilde" horiz-adv-x="490" d="M432 261Q401 161 331 161Q295 161 225 203Q169 236 153 235Q125 234 107 168L61 187Q97 283 148 286Q175 287 247 246Q307 210 332 208Q350 207 368 229T390 284Q401 279 411 273T432 261Z" />
<glyph unicode="&#xa0;" glyph-name="ch202" horiz-adv-x="250" />
<glyph unicode="&#xa1;" glyph-name="exclamdown" horiz-adv-x="209" d="M77 -95Q88 -70 88 103Q88 212 87 274T84 352H136Q135 339 135 277T134 103Q134 -59 144 -95H77ZM145 428Q145 413 134 403T109 392Q95 392 84 402T73 428Q73 443 84 453T109 464Q123 464
134 454T145 428Z" />
<glyph unicode="&#xa2;" glyph-name="cent" horiz-adv-x="414" d="M231 444Q174 436 145 397T115 298Q115 255 137 220T197 166L231 444ZM360 122Q347 117 338 113T320 106Q293 98 257 97Q248 96 240 96T223 98L210 0Q178 -5 177 0L190 104Q157 113 132 132T89
177T62 234T53 301Q55 379 102 434Q153 491 230 498H237L250 608H283L270 499Q302 499 344 488L335 435Q316 440 299 442T264 446L230 155Q243 152 259 152Q296 152 343 173L360 122Z" />
<glyph unicode="&#xa3;" glyph-name="sterling" horiz-adv-x="515" d="M320 271Q307 278 207 279Q228 233 223 192Q214 119 131 66Q180 81 236 81Q249 81 261 80T285 77Q289 76 301 74T335 67Q363 61 381 61Q425 61 465 98L501 22Q434 -9 374 -5Q363 -4 344 0T295
11Q242 23 214 23Q209 23 205 23T195 22Q154 16 84 -5L45 61Q157 125 157 209Q157 242 138 279Q25 276 15 270V348Q22 342 101 339Q64 397 61 441Q55 538 127 590Q189 636 293 636Q318 636 394 617Q443 606 448 607Q448 593 448 569T449 507H411Q405 539 395 546Q354
573 282 576Q218 579 172 545Q122 507 128 448Q131 411 175 337Q306 341 320 349V271Z" />
<glyph unicode="&#xa4;" glyph-name="currency" horiz-adv-x="500" d="M466 326Q466 249 420 194L465 149Q467 147 441 124Q430 114 424 109T416 101L375 152Q320 112 250 112Q180 112 125 152L84 101Q77 106 71 112T58 123Q33 147 35 149L80 194Q34 249 34 326Q34
403 80 458L35 503Q36 504 42 509T59 526Q85 550 84 551L125 500Q177 538 250 540Q319 542 375 500L416 551Q415 550 438 527Q462 504 465 503L420 458Q466 403 466 326ZM410 325Q410 393 362 443Q314 493 251 493Q187 493 139 443Q92 393 92 325Q92 255 139 205Q187
157 251 157Q314 157 362 206Q410 255 410 325Z" />
<glyph unicode="&#xa5;" glyph-name="yen" horiz-adv-x="525" d="M517 626Q476 582 337 368H449V320H306L299 310V267H450V219H299Q299 48 311 0H223Q236 46 235 219H95V267H235V310L228 320H94V368H197Q162 422 137 460T96 523Q35 611 14 626H130Q128 596 161
544L271 368Q272 367 271 366Q273 370 300 414T381 543Q414 597 416 626H517Z" />
<glyph unicode="&#xa6;" glyph-name="brokenbar" horiz-adv-x="234" d="M148 262H86V539H148V262ZM148 -84H86V193H148V-84Z" />
<glyph unicode="&#xa7;" glyph-name="section" horiz-adv-x="353" d="M221 403Q180 404 138 378Q94 349 94 307Q94 277 121 255Q131 253 140 252T158 250Q177 250 195 257T227 276T249 305T257 342Q257 382 221 403ZM305 87Q299 36 256 11Q220 -10 167 -10Q159
-10 152 -10T138 -8Q104 -3 73 7Q57 13 48 11V77H73Q99 51 139 42Q145 41 151 41T163 40Q193 40 216 55T242 97Q245 138 191 162Q183 166 168 171T130 183Q113 188 101 194T81 205Q32 241 32 299Q32 344 65 382Q99 420 143 432Q59 462 56 527Q53 576 97 606Q134
633 186 633Q197 633 243 622Q269 616 273 617V552H240Q215 579 178 580Q157 580 137 567T116 532Q115 499 197 477Q324 443 317 326Q314 284 285 255T214 219Q306 187 306 105Q306 100 306 96T305 87Z" />
<glyph unicode="&#xa8;" glyph-name="dieresis" horiz-adv-x="613" d="M446 505Q446 489 434 476T405 463Q388 463 375 475T362 505Q362 522 375 535T405 548Q421 548 433 535T446 505ZM270 507Q270 490 258 478T228 465Q211 465 198 477T185 507Q185 523 198
536T228 549Q245 549 257 536T270 507Z" />
<glyph unicode="&#xa9;" glyph-name="copyright" horiz-adv-x="732" d="M721 337Q721 189 616 86Q513 -17 365 -17Q219 -17 115 87Q11 191 11 336Q11 481 115 587Q218 692 364 692Q512 692 616 588Q721 484 721 337ZM678 337Q678 465 585 557Q494 648 364 648Q237
648 145 556Q54 465 54 336Q54 207 145 116Q236 25 365 25Q495 25 586 116Q678 208 678 337ZM481 197Q479 174 478 159T476 135Q472 136 441 128Q434 126 423 124T394 120L350 122Q277 136 234 196Q192 254 192 331Q192 422 240 482Q291 547 380 547Q397 547 437
537Q466 530 472 530Q472 522 473 507T477 471H446Q445 476 444 481T438 495Q422 511 378 509Q315 508 274 452Q238 402 238 330Q238 262 277 213Q319 159 384 159Q424 159 439 174Q445 181 449 197H481Z" />
<glyph unicode="&#xaa;" glyph-name="ordfeminine" horiz-adv-x="332" d="M202 445Q202 492 151 489Q138 488 124 483T97 471T72 455T53 437V479Q91 522 152 523Q245 524 245 438V294Q245 278 257 278Q261 278 290 299V261Q267 237 249 237Q212 237 205 271Q173
238 117 236Q84 236 62 259T40 313Q40 384 124 398Q151 401 203 410L202 445ZM205 306V373Q194 371 177 369T134 363Q81 355 81 319Q81 299 93 286T125 273Q132 273 143 276T166 283T188 294T205 306Z" />
<glyph unicode="&#xab;" glyph-name="guillemotleft" horiz-adv-x="606" d="M517 -1L303 167V229L517 397V330L347 198L517 67V-1ZM347 -1L133 167V229L347 397V330L177 198L347 67V-1Z" />
<glyph unicode="&#xac;" glyph-name="logicalnot" horiz-adv-x="500" d="M467 50H408V256H33V305H467V50Z" />
<glyph unicode="&#xae;" glyph-name="registered" horiz-adv-x="732" d="M721 337Q721 189 616 86Q513 -17 365 -17Q219 -17 115 87Q11 191 11 336Q11 481 115 587Q218 692 364 692Q512 692 616 588Q721 484 721 337ZM678 337Q678 465 585 557Q494 648 364 648Q237
648 145 556Q54 465 54 336Q54 207 145 116Q236 25 365 25Q495 25 586 116Q678 208 678 337ZM520 138H463Q469 171 443 232Q413 303 365 318Q347 323 319 323Q313 323 307 323T294 322Q294 163 301 138H244Q251 163 251 338Q251 518 244 545H386Q426 545 457 526Q506
498 506 437Q506 347 408 327Q487 302 520 138ZM460 437Q460 483 425 498Q415 500 406 501T386 505Q366 508 296 508L295 362Q333 361 355 361T385 363Q417 368 428 374Q461 391 460 437Z" />
<glyph unicode="&#xaf;" glyph-name="glyph328" horiz-adv-x="333" d="M348 464H40L41 512H348V464Z" />
<glyph unicode="&#xb0;" glyph-name="degree" horiz-adv-x="613" d="M409 745Q409 726 402 709T383 680T353 660T317 653Q298 653 281 660T252 679T232 709T225 745Q225 764 232 781T251 810T281 830T317 837Q336 837 353 830T382 811T402 781T409 745ZM375 745Q375
769 358 786T317 803Q293 803 276 786T259 745Q259 721 276 704T317 687Q341 687 358 704T375 745Z" />
<glyph unicode="&#xb1;" glyph-name="plusminus" horiz-adv-x="500" d="M443 239H280V84H221V239H58V288H221V436H280V288H443V239ZM443 0H58V49H443V0Z" />
<glyph unicode="&#xb2;" glyph-name="twosuperior" horiz-adv-x="375" d="M286 266Q209 271 168 269Q152 270 127 270T67 268V288Q75 296 93 316T143 367Q160 384 172 397T193 420Q223 457 235 489Q245 513 245 537Q245 569 226 587T178 605Q141 605 123 576Q112
559 109 534H75Q76 539 76 545T79 556Q86 581 103 604Q128 635 181 635Q268 635 281 556Q282 551 282 547T283 537Q283 465 201 380L124 299H223Q251 299 255 305T260 321H286Q284 289 286 266Z" />
<glyph unicode="&#xb3;" glyph-name="threesuperior" horiz-adv-x="268" d="M241 362Q241 317 209 287Q174 253 113 255Q85 256 64 260T29 271L41 308Q52 303 58 301T66 297Q78 293 90 292T114 289Q152 288 176 307T202 359Q205 398 175 422Q147 446 111 444Q109
446 111 481Q143 479 164 498T187 543Q188 569 172 584T131 599Q78 598 61 539L31 551Q49 627 125 631Q173 634 200 608Q224 585 224 551Q225 521 207 496T157 465Q241 445 241 362Z" />
<glyph unicode="&#xb4;" glyph-name="acute" horiz-adv-x="141" d="M130 610L69 443L18 459L63 633L130 610Z" />
<glyph unicode="&#xb5;" glyph-name="uni00B5" horiz-adv-x="460" d="M445 27L410 -20Q403 -12 398 -5T387 11Q374 30 365 48T350 83Q301 -8 228 -8Q138 -8 112 78Q111 53 111 36T110 11Q110 -119 149 -165L92 -190Q69 -156 65 -85Q63 -64 65 41Q66 63 68 148T75
386H134L124 145Q158 48 229 48Q272 48 305 88Q331 119 336 146Q318 226 331 386H395Q386 309 386 240Q386 182 393 147Q405 80 445 27Z" />
<glyph unicode="&#xb6;" glyph-name="paragraph" horiz-adv-x="583" d="M345 561Q343 532 342 438T341 183V1Q343 -93 351 -127H264Q275 -91 276 0V185V223Q267 221 258 221T237 219Q144 215 86 276Q32 335 33 423Q35 503 82 558Q132 614 210 620Q242 620 289
620T400 621Q475 622 502 624Q546 627 566 635V549Q537 558 481 561Q479 532 478 438T477 183V1Q479 -93 487 -127H400Q411 -91 412 0V185Q412 343 411 437T408 562Q397 562 382 562T345 561Z" />
<glyph unicode="&#xb7;" glyph-name="middot" horiz-adv-x="250" d="M183 299Q183 275 166 258T125 241Q101 241 84 258T66 299Q66 324 83 341T125 358Q149 358 166 341T183 299Z" />
<glyph unicode="&#xb8;" glyph-name="cedilla" horiz-adv-x="383" d="M245 -133Q221 -178 161 -174Q128 -171 115 -160L140 -120Q153 -126 167 -126Q196 -126 200 -98Q205 -63 153 -48Q150 -48 183 12L234 11L212 -29Q256 -52 256 -94Q256 -113 245 -133Z" />
<glyph unicode="&#xb9;" glyph-name="onesuperior" horiz-adv-x="375" d="M217 277H168Q175 301 175 455Q175 516 175 549T174 588Q166 589 153 588V603Q174 611 190 632H213Q212 622 212 578T212 452Q212 302 217 277Z" />
<glyph unicode="&#xba;" glyph-name="ordmasculine" horiz-adv-x="351" d="M323 383Q323 317 280 275Q236 234 174 234Q106 234 64 277Q23 322 24 385Q24 447 66 489Q108 531 174 531Q243 531 283 491T323 383ZM278 383Q279 431 250 461T176 492Q130 492 99 462T68
383Q68 338 99 307Q131 275 176 275Q221 275 249 304T278 383Z" />
<glyph unicode="&#xbb;" glyph-name="guillemotright" horiz-adv-x="606" d="M527 169L313 1V69L483 200L313 332V399L527 231V169ZM357 169L142 1V69L313 200L142 332V399L357 231V169Z" />
<glyph unicode="&#xbc;" glyph-name="onequarter" horiz-adv-x="755" d="M231 282H181Q188 306 188 460Q188 521 188 554T187 594H166V609Q188 615 204 637H226Q225 627 225 583T225 457Q225 306 231 282ZM648 695L198 -5H160L157 0L607 700H646L648 695ZM646
83Q631 87 611 87Q611 22 616 -3H568Q571 8 572 15T575 27V88Q522 90 432 88V114Q464 160 503 219T589 350Q603 352 611 350V290V179V119Q617 119 626 120T646 123V83ZM574 117Q574 172 574 208T575 265Q537 214 473 118Q510 117 535 117T574 117Z" />
<glyph unicode="&#xbd;" glyph-name="onehalf" horiz-adv-x="755" d="M110 1L558 698H597L600 694L151 -5H114L110 1ZM183 279H134Q141 303 141 457Q141 518 141 551T140 590Q132 591 119 590V605Q140 613 156 634H179Q178 624 178 580T178 454Q178 304 183 279ZM666
-6Q589 -1 548 -3Q532 -2 507 -2T447 -4V16Q455 24 473 44T523 95Q540 112 552 125T573 148Q603 185 615 217Q625 241 625 265Q625 297 606 315T558 333Q521 333 503 304Q492 287 489 262H455Q456 267 456 273T459 284Q466 309 483 332Q508 363 561 363Q648 363
661 284Q662 279 662 275T663 265Q663 193 581 108L504 27H603Q631 27 635 33T640 49H666Q664 17 666 -6Z" />
<glyph unicode="&#xbe;" glyph-name="threequarters" horiz-adv-x="686" d="M612 683L163 -17H125L122 -12L571 688H610L612 683ZM241 378Q241 334 210 306Q176 275 118 276Q68 277 39 291L51 326Q70 318 75 317Q99 309 120 309Q156 308 178 326T203 375Q206 412
177 436Q149 457 117 456Q116 457 117 491Q147 489 169 507Q187 523 189 549Q190 574 175 588T136 602Q85 602 70 545L41 557Q59 628 131 633Q176 635 200 613T225 557Q226 528 209 505T160 475Q241 457 241 378ZM630 86Q622 88 613 89T594 91Q594 22 600 0H551Q554
12 555 19T558 30V91Q505 93 415 91V118Q447 164 486 223T572 354Q579 355 584 355T594 353V294V183V123Q607 121 630 126V86ZM558 121V268Q539 243 514 207T457 122Q494 121 519 121T558 121Z" />
<glyph unicode="&#xbf;" glyph-name="questiondown" horiz-adv-x="426" d="M317 429Q317 415 307 404T281 393Q267 393 256 404T245 429Q245 444 256 454T281 465Q296 465 306 455T317 429ZM391 -156Q375 -153 323 -173Q264 -196 244 -197Q237 -198 231 -198T218
-198Q86 -198 70 -71Q69 -63 69 -55T68 -38Q68 29 100 91Q128 144 173 181Q215 215 229 236Q249 268 252 319Q252 316 249 339L315 341Q314 336 314 334T314 329Q316 249 257 186Q238 169 220 152T184 117Q144 74 129 2Q126 -16 126 -34Q126 -84 152 -116Q182 -152
239 -150Q292 -149 324 -106Q340 -84 345 -56L385 -55Q388 -90 391 -156Z" />
<glyph unicode="&#xc0;" glyph-name="Agrave" horiz-adv-x="611" d="M587 0H496Q489 32 427 205H176Q112 42 103 0H23Q72 97 272 633H343Q374 548 401 475T453 338Q565 37 587 0ZM406 266Q378 345 354 420T307 567Q293 524 266 450T197 266H406ZM337 684L286 668L225
835L293 858L337 684Z" />
<glyph unicode="&#xc1;" glyph-name="Aacute" horiz-adv-x="613" d="M587 0H496Q489 32 427 205H176Q112 42 103 0H23Q72 97 272 633H343Q374 548 401 475T453 338Q565 37 587 0ZM406 266Q378 345 354 420T307 567Q293 524 266 450T197 266H406ZM407 848L327 687L276
703L332 873L407 848Z" />
<glyph unicode="&#xc2;" glyph-name="Acircumflex" horiz-adv-x="613" d="M491 729L448 688L310 794Q309 794 172 690L135 729L312 853Q357 822 401 791T491 729ZM587 0H496Q489 32 427 205H176Q112 42 103 0H23Q72 97 272 633H343Q374 548 401 475T453 338Q565
37 587 0ZM406 266Q378 345 354 420T307 567Q293 524 266 450T197 266H406Z" />
<glyph unicode="&#xc3;" glyph-name="Atilde" horiz-adv-x="613" d="M587 0H496Q489 32 427 205H176Q112 42 103 0H23Q72 97 272 633H343Q374 548 401 475T453 338Q565 37 587 0ZM406 266Q378 345 354 420T307 567Q293 524 266 450T197 266H406ZM454 783Q442 733
418 709T367 685Q355 685 334 695T284 728Q244 758 227 758Q202 758 187 695L146 718Q162 769 182 792T223 817Q234 817 253 808T301 778Q325 760 342 749T368 738Q375 738 382 744T397 761T408 786T414 816Q423 811 434 803T454 788V783Z" />
<glyph unicode="&#xc4;" glyph-name="Adieresis" horiz-adv-x="613" d="M587 0H496Q489 32 427 205H176Q112 42 103 0H23Q72 97 272 633H343Q374 548 401 475T453 338Q565 37 587 0ZM406 266Q378 345 354 420T307 567Q293 524 266 450T197 266H406ZM438 730Q438
714 426 701T397 688Q379 688 367 700T354 730Q354 747 366 760T397 773Q413 773 425 760T438 730ZM262 730Q262 714 250 701T220 688Q203 688 190 700T177 730Q177 746 190 759T220 772Q236 772 249 759T262 730Z" />
<glyph unicode="&#xc5;" glyph-name="Aring" horiz-adv-x="613" d="M397 780Q397 761 390 744T371 715T341 695T305 688Q286 688 269 695T240 714T220 744T213 780Q213 799 220 816T239 845T269 865T305 872Q324 872 341 865T370 846T390 816T397 780ZM363 780Q363
804 346 821T305 838Q281 838 264 821T247 780Q247 756 264 739T305 722Q329 722 346 739T363 780ZM587 0H496Q489 32 427 205H176Q112 42 103 0H23Q72 97 272 633H343Q374 548 401 475T453 338Q565 37 587 0ZM406 266Q378 345 354 420T307 567Q293 524 266 450T197
266H406Z" />
<glyph unicode="&#xc6;" glyph-name="AE" horiz-adv-x="927" d="M885 -5Q821 -2 770 -1T679 0H471Q476 33 477 205H245Q196 139 161 89T103 0H-2Q41 49 158 204T468 622H561Q593 621 616 621T653 621Q693 621 744 622T860 626Q855 591 860 530H810Q808 546 808
546Q808 549 802 555Q798 562 738 562H553Q551 464 553 355Q770 355 803 369V283Q756 298 553 295Q552 184 553 60H764Q818 60 827 72Q833 81 836 103H885Q880 29 885 -5ZM478 536L288 266H478V536Z" />
<glyph unicode="&#xc7;" glyph-name="Ccedilla" horiz-adv-x="524" d="M357 -133Q334 -178 273 -174Q240 -171 227 -160L252 -120Q265 -126 279 -126Q308 -126 312 -98Q317 -63 265 -48Q262 -50 283 -9H282Q172 11 104 104Q40 192 40 312Q40 453 113 544Q192 644
329 644Q364 644 417 632Q462 620 470 622Q470 595 479 528H431Q430 535 427 544T418 565Q392 589 326 586Q228 582 166 499Q110 420 110 311Q110 206 170 130Q235 47 336 47Q396 47 419 70Q429 80 435 106H483Q477 37 477 11Q469 12 423 0Q412 -2 394 -5T334 -12L324
-29Q366 -52 366 -95Q366 -114 357 -133Z" />
<glyph unicode="&#xc8;" glyph-name="Egrave" horiz-adv-x="525" d="M485 -5Q421 -2 370 -1T279 0Q248 -1 198 -2T77 -6Q87 27 87 324Q87 593 77 626Q144 622 253 620Q293 619 344 620T460 625Q455 590 460 529H410Q408 545 408 545Q408 548 402 554Q398 561 338
561H153Q151 468 153 358Q370 358 403 372V286Q356 301 153 298Q152 187 153 60H364Q418 60 427 72Q433 81 436 103H485Q480 29 485 -5ZM307 683L256 667L195 834L263 857L307 683Z" />
<glyph unicode="&#xc9;" glyph-name="Eacute" horiz-adv-x="525" d="M477 0Q413 3 362 4T271 5Q240 4 190 3T69 -1Q79 32 79 329Q79 597 69 631Q137 626 245 625Q285 624 336 625T452 630Q447 594 452 534H402Q401 547 400 550T395 558Q387 566 330 566H145Q144
472 145 363Q362 363 395 377V291Q347 306 145 303Q144 191 145 65H356Q410 65 419 77Q425 84 428 108H477Q472 34 477 0ZM345 848L265 687L214 703L270 873L345 848Z" />
<glyph unicode="&#xca;" glyph-name="Ecircumflex" horiz-adv-x="525" d="M456 729L413 688L275 794Q274 794 137 690L100 729L277 853Q322 822 366 792T456 729ZM485 0Q421 3 370 4T279 5Q248 4 198 3T77 -1Q87 32 87 329Q87 597 77 631Q144 627 253 625Q293
624 344 625T460 630Q455 594 460 534H410Q408 549 408 550Q408 553 402 559Q398 566 338 566H153Q152 472 153 363Q370 363 403 377V291Q356 306 153 303Q152 191 153 65H364Q419 65 427 77Q435 86 436 108H485Q482 34 485 0Z" />
<glyph unicode="&#xcb;" glyph-name="Edieresis" horiz-adv-x="525" d="M486 2Q422 5 371 6T280 7Q249 6 199 5T78 1Q88 34 88 331Q88 600 78 633Q145 629 254 627Q294 626 345 627T461 632Q456 597 461 536H411Q409 552 409 552Q409 555 403 561Q399 568 339
568H154Q152 475 154 365Q371 365 404 379V293Q357 308 154 305Q153 194 154 67H365Q419 67 428 79Q434 88 437 110H486Q481 36 486 2ZM408 730Q408 714 396 701T367 688Q349 688 337 700T324 730Q324 747 336 760T367 773Q383 773 395 760T408 730ZM232 730Q232
714 220 701T190 688Q173 688 160 700T147 730Q147 746 160 759T190 772Q206 772 219 759T232 730Z" />
<glyph unicode="&#xcc;" glyph-name="Igrave" horiz-adv-x="242" d="M165 621Q160 602 158 571T154 494V310V129Q156 35 164 0H77Q88 38 89 128Q89 312 89 414T88 539Q87 562 85 582T77 621H165ZM148 680L97 664L36 831L104 854L148 680Z" />
<glyph unicode="&#xcd;" glyph-name="Iacute" horiz-adv-x="242" d="M165 621Q160 602 158 571T154 494V310V129Q156 35 164 0H77Q88 38 89 128Q89 312 89 414T88 539Q87 562 85 582T77 621H165ZM224 848L144 687L93 703L149 873L224 848Z" />
<glyph unicode="&#xce;" glyph-name="Icircumflex" horiz-adv-x="242" d="M165 621Q160 602 158 571T154 494V310V129Q156 35 164 0H77Q88 38 89 128Q89 312 89 414T88 539Q87 562 85 582T77 621H165ZM308 727L265 686L127 792Q126 792 -11 688L-48 727L129 851Q174
820 218 789T308 727Z" />
<glyph unicode="&#xcf;" glyph-name="Idieresis" horiz-adv-x="242" d="M165 621Q160 602 158 571T154 494V310V129Q156 35 164 0H77Q88 38 89 128Q89 312 89 414T88 539Q87 562 85 582T77 621H165ZM227 730Q227 714 215 701T186 688Q168 688 156 700T143 730Q143
747 155 760T186 773Q202 773 214 760T227 730ZM51 730Q51 714 39 701T9 688Q-8 688 -21 700T-34 730Q-34 746 -21 759T9 772Q25 772 38 759T51 730Z" />
<glyph unicode="&#xd0;" glyph-name="Eth" horiz-adv-x="609" d="M567 303Q567 170 480 85Q395 0 261 0H77Q84 27 86 75Q89 123 89 292H-2V340H89Q89 407 89 453T88 528Q87 556 85 579T77 621H268Q413 621 492 533Q567 449 567 303ZM493 303Q493 551 262 551H155Q155
476 155 424T154 340H313V292H154Q154 239 157 65H260Q364 65 428 132Q493 200 493 303Z" />
<glyph unicode="&#xd1;" glyph-name="Ntilde" horiz-adv-x="640" d="M578 623Q573 604 571 573T567 495Q568 522 568 476T568 310V0H510Q464 66 423 125T347 236Q262 361 212 437T144 543V310V129Q145 83 147 51T155 0H72Q77 19 79 50T83 128V312Q83 388 83 435T82
500Q77 596 63 623Q158 622 157 623Q201 563 240 508T316 400Q398 281 444 207T504 101V311Q504 422 504 467T505 495Q504 585 493 623H578ZM482 786Q470 736 446 712T395 688Q383 688 362 698T312 731Q272 761 255 761Q230 761 215 698L174 721Q190 772 210 795T251
820Q262 820 281 811T329 781Q353 763 370 752T396 741Q403 741 410 747T425 764T436 789T442 819Q451 814 462 806T482 791V786Z" />
<glyph unicode="&#xd2;" glyph-name="Ograve" horiz-adv-x="710" d="M643 304Q643 175 563 84Q479 -10 352 -10Q220 -10 139 84Q61 172 61 304Q61 444 134 535Q213 634 352 634Q492 634 572 535Q643 444 643 304ZM571 304Q571 422 518 493Q460 569 351 569Q249
569 188 485Q132 409 132 303Q132 203 191 132Q254 55 352 55Q452 55 513 131Q571 201 571 304ZM399 690L348 674L287 841L355 864L399 690Z" />
<glyph unicode="&#xd3;" glyph-name="Oacute" horiz-adv-x="710" d="M643 304Q643 175 563 84Q479 -10 352 -10Q220 -10 139 84Q61 172 61 304Q61 444 134 535Q213 634 352 634Q492 634 572 535Q643 444 643 304ZM571 304Q571 422 518 493Q460 569 351 569Q249
569 188 485Q132 409 132 303Q132 203 191 132Q254 55 352 55Q452 55 513 131Q571 201 571 304ZM450 848L370 687L319 703L375 873L450 848Z" />
<glyph unicode="&#xd4;" glyph-name="Ocircumflex" horiz-adv-x="710" d="M643 304Q643 175 563 84Q479 -10 352 -10Q220 -10 139 84Q61 172 61 304Q61 444 134 535Q213 634 352 634Q492 634 572 535Q643 444 643 304ZM571 304Q571 422 518 493Q460 569 351 569Q249
569 188 485Q132 409 132 303Q132 203 191 132Q254 55 352 55Q452 55 513 131Q571 201 571 304ZM545 727L502 686L364 792Q363 792 226 688L189 727L366 851Q411 820 455 789T545 727Z" />
<glyph unicode="&#xd5;" glyph-name="Otilde" horiz-adv-x="710" d="M643 304Q643 175 563 84Q479 -10 352 -10Q220 -10 139 84Q61 172 61 304Q61 444 134 535Q213 634 352 634Q492 634 572 535Q643 444 643 304ZM571 304Q571 422 518 493Q460 569 351 569Q249
569 188 485Q132 409 132 303Q132 203 191 132Q254 55 352 55Q452 55 513 131Q571 201 571 304ZM511 785Q499 735 475 711T424 687Q412 687 391 697T341 730Q301 760 284 760Q259 760 244 697L203 720Q219 771 239 794T280 819Q291 819 310 810T358 780Q382 762
399 751T425 740Q432 740 439 746T454 763T465 788T471 818Q480 813 491 805T511 790V785Z" />
<glyph unicode="&#xd6;" glyph-name="Odieresis" horiz-adv-x="710" d="M643 304Q643 175 563 84Q479 -10 352 -10Q220 -10 139 84Q61 172 61 304Q61 444 134 535Q213 634 352 634Q492 634 572 535Q643 444 643 304ZM571 304Q571 422 518 493Q460 569 351 569Q249
569 188 485Q132 409 132 303Q132 203 191 132Q254 55 352 55Q452 55 513 131Q571 201 571 304ZM479 730Q479 714 467 701T438 688Q420 688 408 700T395 730Q395 747 407 760T438 773Q454 773 466 760T479 730ZM303 730Q303 714 291 701T261 688Q244 688 231 700T218
730Q218 746 231 759T261 772Q277 772 290 759T303 730Z" />
<glyph unicode="&#xd7;" glyph-name="multiply" horiz-adv-x="500" d="M440 164L401 125L250 270L100 125L60 164L210 309L60 454L100 492L250 347L401 492L440 454L290 309L440 164Z" />
<glyph unicode="&#xd8;" glyph-name="Oslash" horiz-adv-x="710" d="M659 313Q659 178 575 84Q491 -11 359 -11Q344 -11 329 -10T300 -6L270 -99H216L251 8Q161 41 110 124Q59 206 59 313Q59 455 134 550Q216 653 359 653Q411 653 456 639L489 745H543L504 619Q580
578 621 493Q659 412 659 313ZM585 313Q585 485 482 552L321 59Q340 56 359 56Q460 56 525 133Q585 206 585 313ZM435 574Q400 586 358 586Q253 586 190 499Q132 422 132 312Q132 233 169 168Q206 103 272 74L435 574Z" />
<glyph unicode="&#xd9;" glyph-name="Ugrave" horiz-adv-x="635" d="M585 621Q574 580 574 395Q574 385 574 371T575 337Q576 318 576 304T576 281Q576 152 518 78Q447 -12 320 -12Q192 -12 122 75Q66 146 66 262Q66 257 66 293T68 406Q69 448 69 484T66 550Q63
599 56 621H148Q140 587 137 468Q136 407 136 353T135 251Q135 55 322 55Q409 55 457 107Q510 166 510 301Q510 411 507 500Q506 545 504 575T497 621H585ZM366 687L315 671L254 838L322 861L366 687Z" />
<glyph unicode="&#xda;" glyph-name="Uacute" horiz-adv-x="635" d="M585 621Q574 580 574 395Q574 385 574 371T575 337Q576 318 576 304T576 281Q576 152 518 78Q447 -12 320 -12Q192 -12 122 75Q66 146 66 262Q66 257 66 293T68 406Q69 448 69 484T66 550Q63
599 56 621H148Q140 587 137 468Q136 407 136 353T135 251Q135 55 322 55Q409 55 457 107Q510 166 510 301Q510 411 507 500Q506 545 504 575T497 621H585ZM418 848L338 687L287 703L343 873L418 848Z" />
<glyph unicode="&#xdb;" glyph-name="Ucircumflex" horiz-adv-x="740" d="M585 621Q574 580 574 395Q574 385 574 371T575 337Q576 318 576 304T576 281Q576 152 518 78Q447 -12 320 -12Q192 -12 122 75Q66 146 66 262Q66 257 66 293T68 406Q69 448 69 484T66
550Q63 599 56 621H148Q140 587 137 468Q136 407 136 353T135 251Q135 55 322 55Q409 55 457 107Q510 166 510 301Q510 411 507 500Q506 545 504 575T497 621H585ZM502 725L459 684L321 790Q320 790 183 686L146 725L323 849Q368 818 412 787T502 725Z" />
<glyph unicode="&#xdc;" glyph-name="Udieresis" horiz-adv-x="635" d="M585 621Q574 580 574 395Q574 385 574 371T575 337Q576 318 576 304T576 281Q576 152 518 78Q447 -12 320 -12Q192 -12 122 75Q66 146 66 262Q66 257 66 293T68 406Q69 448 69 484T66 550Q63
599 56 621H148Q140 587 137 468Q136 407 136 353T135 251Q135 55 322 55Q409 55 457 107Q510 166 510 301Q510 411 507 500Q506 545 504 575T497 621H585ZM461 730Q461 714 449 701T420 688Q402 688 390 700T377 730Q377 747 389 760T420 773Q436 773 448 760T461
730ZM285 730Q285 714 273 701T243 688Q226 688 213 700T200 730Q200 746 213 759T243 772Q259 772 272 759T285 730Z" />
<glyph unicode="&#xdd;" glyph-name="Yacute" horiz-adv-x="525" d="M517 623Q500 605 471 565T399 462Q374 424 349 386T299 310Q300 264 300 219T301 128Q303 35 311 0H223Q234 38 235 127V310Q207 353 179 395T123 481Q81 544 54 579T14 623H130Q128 596 161
544L272 367L381 543Q414 597 416 623H517ZM367 848L287 687L236 703L292 873L367 848Z" />
<glyph unicode="&#xde;" glyph-name="Thorn" horiz-adv-x="494" d="M145 619Q141 603 139 580T135 525H276Q330 525 386 487Q460 434 460 340Q460 247 388 196Q338 161 275 156Q266 156 249 156T212 155T171 154T136 154Q134 129 134 117T134 97Q134 39 144 0H57Q68
38 69 122V300Q69 394 69 452T68 534Q67 558 65 579T57 619H145ZM390 340Q389 446 275 465Q246 469 137 468L136 214Q196 213 230 213T275 216Q391 233 390 340Z" />
<glyph unicode="&#xdf;" glyph-name="germandbls" horiz-adv-x="435" d="M427 91Q422 41 378 14Q339 -10 285 -10Q278 -10 272 -10T259 -8Q224 -3 192 8Q176 14 166 12V80H192Q219 53 260 44Q272 41 285 41Q317 41 340 56Q366 73 366 101Q368 127 336 150L273
195Q254 209 245 217T234 226Q216 244 216 271Q216 286 220 302Q227 331 265 375Q302 418 310 438Q317 458 317 479Q317 519 289 542T221 560Q150 551 139 480Q133 442 133 281Q133 184 134 114T137 -1H70Q76 50 76 280V318Q23 316 10 312V370Q25 362 75 364Q74
478 89 523Q118 610 221 611Q289 613 331 578Q375 540 375 477Q375 436 354 402Q344 384 313 351Q287 323 281 309Q275 291 275 280Q275 267 287 258T313 238Q333 224 352 210T392 181Q433 143 427 91Z" />
<glyph unicode="&#xe0;" glyph-name="agrave" horiz-adv-x="427" d="M272 288Q271 355 198 351Q180 350 160 344T121 327T86 304T59 277V337Q111 398 200 400Q257 401 292 374Q333 342 333 279V73Q333 50 350 50Q356 50 397 80V26Q364 -9 339 -9Q287 -9 275 40Q229
-8 150 -10Q126 -10 106 -2T71 22T48 57T40 100Q40 150 74 183Q106 213 159 221Q179 223 207 227T272 238V288ZM275 90V186Q260 184 235 181T174 172Q141 167 120 149T98 108Q98 80 115 62T161 43Q182 43 220 58Q259 75 275 90ZM243 466L192 450L131 617L199 640L243
466Z" />
<glyph unicode="&#xe1;" glyph-name="aacute" horiz-adv-x="427" d="M262 288Q261 355 188 351Q170 350 150 344T111 327T76 304T49 277V337Q101 398 190 400Q247 401 282 374Q323 342 323 279V73Q323 50 340 50Q346 50 387 80V26Q354 -9 329 -9Q277 -9 265 40Q219
-8 140 -10Q116 -10 96 -2T61 22T38 57T30 100Q30 150 64 183Q96 213 149 221Q169 223 197 227T262 238V288ZM265 90V186Q250 184 225 181T164 172Q131 167 110 149T88 108Q88 80 105 62T151 43Q172 43 210 58Q249 75 265 90ZM285 616L224 449L173 465L218 639L285
616Z" />
<glyph unicode="&#xe2;" glyph-name="acircumflex" horiz-adv-x="430" d="M282 288Q281 355 208 351Q190 350 170 344T131 327T96 304T69 277V337Q121 398 210 400Q267 401 302 374Q343 342 343 279V73Q343 50 360 50Q366 50 407 80V26Q374 -9 349 -9Q297 -9 285
40Q239 -8 160 -10Q136 -10 116 -2T81 22T58 57T50 100Q50 150 84 183Q116 213 169 221Q189 223 217 227T282 238V288ZM285 90V186Q270 184 245 181T184 172Q151 167 130 149T108 108Q108 80 125 62T171 43Q192 43 230 58Q269 75 285 90ZM400 507L357 466L219 572Q218
572 81 468L44 507L221 631Q266 600 310 569T400 507Z" />
<glyph unicode="&#xe3;" glyph-name="atilde" horiz-adv-x="409" d="M260 288Q259 355 186 351Q168 350 148 344T109 327T74 304T47 277V337Q99 398 188 400Q245 401 280 374Q321 342 321 279V73Q321 50 338 50Q344 50 385 80V26Q352 -9 327 -9Q275 -9 263 40Q217
-8 138 -10Q114 -10 94 -2T59 22T36 57T28 100Q28 150 62 183Q94 213 147 221Q167 223 195 227T260 238V288ZM263 90V186Q248 184 223 181T162 172Q129 167 108 149T86 108Q86 80 103 62T149 43Q170 43 208 58Q247 75 263 90ZM347 551Q335 501 311 477T260 453Q248
453 227 463T177 496Q137 526 120 526Q95 526 80 463L39 486Q55 537 75 560T116 585Q127 585 146 576T194 546Q218 528 235 517T261 506Q268 506 275 512T290 529T301 554T307 584Q316 579 327 571T347 556V551Z" />
<glyph unicode="&#xe4;" glyph-name="adieresis" horiz-adv-x="430" d="M272 288Q271 355 198 351Q180 350 160 344T121 327T86 304T59 277V337Q111 398 200 400Q257 401 292 374Q333 342 333 279V73Q333 50 350 50Q356 50 397 80V26Q364 -9 339 -9Q287 -9 275
40Q229 -8 150 -10Q126 -10 106 -2T71 22T48 57T40 100Q40 150 74 183Q106 213 159 221Q179 223 207 227T272 238V288ZM275 90V186Q260 184 235 181T174 172Q141 167 120 149T98 108Q98 80 115 62T161 43Q182 43 220 58Q259 75 275 90ZM329 508Q329 492 317 479T288
466Q271 466 258 478T245 508Q245 525 258 538T288 551Q304 551 316 538T329 508ZM153 510Q153 493 141 481T111 468Q94 468 81 480T68 510Q68 526 81 539T111 552Q128 552 140 539T153 510Z" />
<glyph unicode="&#xe5;" glyph-name="aring" horiz-adv-x="430" d="M306 562Q306 542 298 525T277 494T246 472T208 464Q188 464 171 472T140 493T118 524T110 562Q110 582 118 599T139 630T170 652T208 660Q250 660 278 632T306 562ZM269 562Q269 591 253 608T208
625Q181 625 165 608T148 562Q148 534 164 517T208 499Q236 499 252 516T269 562ZM272 288Q271 355 198 351Q180 350 160 344T121 327T86 304T59 277V337Q111 398 200 400Q257 401 292 374Q333 342 333 279V73Q333 50 350 50Q356 50 397 80V26Q364 -9 339 -9Q287
-9 275 40Q229 -8 150 -10Q126 -10 106 -2T71 22T48 57T40 100Q40 150 74 183Q106 213 159 221Q179 223 207 227T272 238V288ZM275 90V186Q260 184 235 181T174 172Q141 167 120 149T98 108Q98 80 115 62T161 43Q182 43 220 58Q259 75 275 90Z" />
<glyph unicode="&#xe6;" glyph-name="ae" horiz-adv-x="641" d="M300 72Q245 -13 130 -12Q83 -11 51 21Q20 53 20 98Q20 157 69 193Q83 203 109 214T173 239L252 267V285Q252 353 178 348Q160 347 140 341T101 324T66 301T39 274V334Q91 395 180 397Q280 400 306
323Q350 392 438 394Q529 395 575 337Q617 285 616 197H313Q312 133 354 89Q395 47 460 45Q520 44 567 91L596 38Q518 -5 455 -8Q407 -10 365 11T300 72ZM543 250Q532 340 437 340Q400 340 369 316T322 250H543ZM252 88V218Q210 204 182 193T136 173Q78 142 78
106Q78 78 95 60T141 41Q162 41 198 56Q233 71 252 88Z" />
<glyph unicode="&#xe7;" glyph-name="ccedilla" horiz-adv-x="368" d="M243 -133Q217 -179 161 -174Q128 -171 115 -160L140 -120Q153 -126 167 -126Q196 -126 200 -98Q205 -63 153 -48L177 -3Q108 14 70 70Q32 125 33 196Q35 274 82 329Q131 384 210 393Q267
399 324 383L315 330Q273 341 240 341Q205 341 177 330Q97 299 95 193Q95 134 136 90Q177 48 239 47Q276 47 323 68L340 17Q279 -9 223 -8L212 -29Q253 -50 253 -96Q253 -117 243 -133Z" />
<glyph unicode="&#xe8;" glyph-name="egrave" horiz-adv-x="420" d="M253 469L202 453L141 620L209 643L253 469ZM398 197H95V193Q94 129 140 86Q182 47 242 45Q302 44 349 91L378 38Q300 -5 237 -8Q144 -12 86 49Q32 108 33 195Q34 279 87 336Q139 392 220 394Q310
395 357 338Q399 285 398 197ZM325 250Q314 340 219 340Q182 340 151 316T105 250H325Z" />
<glyph unicode="&#xe9;" glyph-name="eacute" horiz-adv-x="420" d="M335 620L274 453L223 469L267 643L335 620ZM398 197H95V193Q94 129 140 86Q182 47 242 45Q302 44 349 91L378 38Q300 -5 237 -8Q144 -12 86 49Q32 108 33 195Q34 279 87 336Q139 392 220 394Q310
395 357 338Q399 285 398 197ZM325 250Q314 340 219 340Q182 340 151 316T105 250H325Z" />
<glyph unicode="&#xea;" glyph-name="ecircumflex" horiz-adv-x="420" d="M410 500L367 459L229 565Q228 565 91 461L54 500L231 624Q276 593 320 562T410 500ZM398 197H95V193Q94 129 140 86Q182 47 242 45Q302 44 349 91L378 38Q300 -5 237 -8Q144 -12 86 49Q32
108 33 195Q34 279 87 336Q139 392 220 394Q310 395 357 338Q399 285 398 197ZM325 250Q314 340 219 340Q182 340 151 316T105 250H325Z" />
<glyph unicode="&#xeb;" glyph-name="edieresis" horiz-adv-x="420" d="M363 504Q363 488 351 475T322 462Q304 462 292 474T279 504Q279 521 291 534T322 547Q338 547 350 534T363 504ZM187 506Q187 490 175 477T145 464Q128 464 115 476T102 506Q102 522 115
535T145 548Q161 548 174 535T187 506ZM398 197H95V193Q94 129 140 86Q182 47 242 45Q302 44 349 91L378 38Q300 -5 237 -8Q144 -12 86 49Q32 108 33 195Q34 279 87 336Q139 392 220 394Q310 395 357 338Q399 285 398 197ZM325 250Q314 340 219 340Q182 340 151
316T105 250H325Z" />
<glyph unicode="&#xec;" glyph-name="igrave" horiz-adv-x="160" d="M112 469L61 453L0 620L68 643L112 469ZM117 -1H51Q61 210 51 389H117Q111 191 117 -1Z" />
<glyph unicode="&#xed;" glyph-name="iacute" horiz-adv-x="160" d="M171 620L110 453L59 469L103 643L171 620ZM117 -1H51Q61 210 51 389H117Q111 191 117 -1Z" />
<glyph unicode="&#xee;" glyph-name="icircumflex" horiz-adv-x="160" d="M227 500L184 459Q88 565 86 565Q84 565 -12 461L-49 500L88 624Q123 593 157 562T227 500ZM117 -1H51Q61 210 51 389H117Q111 191 117 -1Z" />
<glyph unicode="&#xef;" glyph-name="idieresis" horiz-adv-x="160" d="M215 504Q215 488 203 475T174 462Q156 462 144 474T131 504Q131 521 143 534T174 547Q190 547 202 534T215 504ZM39 506Q39 490 27 477T-3 464Q-20 464 -33 476T-46 506Q-46 522 -33 535T-3
548Q13 548 26 535T39 506ZM117 -1H51Q61 210 51 389H117Q111 191 117 -1Z" />
<glyph unicode="&#xf0;" glyph-name="eth" d="M451 194Q451 103 393 48Q334 -8 250 -8Q158 -8 101 52Q46 108 46 196Q47 281 103 337Q160 394 250 394Q285 394 317 385Q303 406 287 425T252 464Q242 474 232 484T211 504L88 440Q90 442 74 473L182 529Q132 569
89 595L129 642L139 636Q196 599 240 559L362 623Q365 620 378 591L268 534Q285 518 300 501T331 466Q453 319 451 194ZM390 194Q392 258 353 299Q314 341 252 341Q190 341 148 299Q107 257 106 194Q106 133 148 90Q191 47 252 47Q282 47 307 57T350 87T379 133T390
194Z" />
<glyph unicode="&#xf1;" glyph-name="ntilde" horiz-adv-x="402" d="M370 0H302Q302 28 302 57T303 117V197Q302 232 300 257T292 299Q274 352 225 353Q175 354 135 327Q127 319 119 312T103 297V0H38Q41 103 41 341L40 388H101L100 351Q161 404 234 404Q303 404
334 361Q368 314 368 196V78Q369 42 369 20T370 0ZM355 559Q343 509 319 485T268 461Q256 461 235 471T185 504Q145 534 128 534Q103 534 88 471L47 494Q63 545 83 568T124 593Q135 593 154 584T202 554Q226 536 243 525T269 514Q276 514 283 520T298 537T309 562T315
592Q324 587 335 579T355 564V559Z" />
<glyph unicode="&#xf2;" glyph-name="ograve" horiz-adv-x="471" d="M278 469L227 453L166 620L234 643L278 469ZM438 194Q438 103 380 48Q321 -8 237 -8Q145 -8 87 52Q31 109 33 196Q34 281 90 337Q147 394 237 394Q328 394 383 339Q438 284 438 194ZM377 194Q377
225 368 252T340 299T296 330T239 341Q176 341 134 299Q93 256 93 194Q93 133 135 90Q178 47 239 47Q299 47 337 87T377 194Z" />
<glyph unicode="&#xf3;" glyph-name="oacute" horiz-adv-x="471" d="M326 620L265 453L214 469L258 643L326 620ZM438 194Q438 103 380 48Q321 -8 237 -8Q145 -8 87 52Q31 109 33 196Q34 281 90 337Q147 394 237 394Q328 394 383 339Q438 284 438 194ZM377 194Q377
225 368 252T340 299T296 330T239 341Q176 341 134 299Q93 256 93 194Q93 133 135 90Q178 47 239 47Q299 47 337 87T377 194Z" />
<glyph unicode="&#xf4;" glyph-name="ocircumflex" horiz-adv-x="471" d="M427 500L384 459L246 565Q245 565 108 461L71 500L248 624Q293 593 337 562T427 500ZM438 194Q438 103 380 48Q321 -8 237 -8Q145 -8 87 52Q31 109 33 196Q34 281 90 337Q147 394 237
394Q328 394 383 339Q438 284 438 194ZM377 194Q377 225 368 252T340 299T296 330T239 341Q176 341 134 299Q93 256 93 194Q93 133 135 90Q178 47 239 47Q299 47 337 87T377 194Z" />
<glyph unicode="&#xf5;" glyph-name="otilde" horiz-adv-x="471" d="M438 194Q438 103 380 48Q321 -8 237 -8Q145 -8 87 52Q31 109 33 196Q34 281 90 337Q147 394 237 394Q328 394 383 339Q438 284 438 194ZM377 194Q377 225 368 252T340 299T296 330T239 341Q176
341 134 299Q93 256 93 194Q93 133 135 90Q178 47 239 47Q299 47 337 87T377 194ZM386 559Q374 509 350 485T299 461Q287 461 266 471T216 504Q176 534 159 534Q134 534 119 471L78 494Q94 545 114 568T155 593Q166 593 185 584T233 554Q257 536 274 525T300 514Q307
514 314 520T329 537T340 562T346 592Q355 587 366 579T386 564V559Z" />
<glyph unicode="&#xf6;" glyph-name="odieresis" horiz-adv-x="471" d="M371 504Q371 488 359 475T330 462Q312 462 300 474T287 504Q287 521 299 534T330 547Q346 547 358 534T371 504ZM195 506Q195 490 183 477T153 464Q136 464 123 476T110 506Q110 522 123
535T153 548Q169 548 182 535T195 506ZM438 194Q438 103 380 48Q321 -8 237 -8Q145 -8 87 52Q31 109 33 196Q34 281 90 337Q147 394 237 394Q328 394 383 339Q438 284 438 194ZM377 194Q377 225 368 252T340 299T296 330T239 341Q176 341 134 299Q93 256 93 194Q93
133 135 90Q178 47 239 47Q299 47 337 87T377 194Z" />
<glyph unicode="&#xf7;" glyph-name="divide" horiz-adv-x="594" d="M355 444Q355 421 338 405T297 388Q275 388 258 405T241 444Q241 467 258 484T297 502Q320 502 337 485T355 444ZM543 228H49V283H543V228ZM355 67Q355 43 338 27T297 10Q275 10 258 27T241
67Q241 89 258 106T297 123Q320 123 337 106T355 67Z" />
<glyph unicode="&#xf8;" glyph-name="oslash" horiz-adv-x="450" d="M428 194Q428 103 370 48Q311 -8 227 -8Q208 -8 190 -5L160 -99H106L141 8Q84 32 53 82T23 196Q24 281 80 337Q137 394 227 394Q247 394 265 391L281 438Q280 438 280 439L292 475H346L336 446Q337
446 337 445Q335 441 330 424T315 378Q428 331 428 194ZM367 194Q368 284 298 324L208 49Q213 48 218 48T229 47Q289 47 327 87T367 194ZM249 340Q244 341 239 341T229 341Q166 341 124 299Q83 256 83 194Q82 108 159 65L249 340Z" />
<glyph unicode="&#xf9;" glyph-name="ugrave" horiz-adv-x="430" d="M244 459L193 443L132 610L200 633L244 459ZM420 29Q346 -15 320 -9Q305 -6 303 44Q242 -9 169 -9Q99 -9 69 34Q35 81 35 199Q35 231 35 260T36 315Q36 332 36 346T37 372Q38 382 38 386T38
388H106Q105 362 104 334T101 274Q100 254 100 235T100 198Q101 163 103 138T111 96Q129 43 178 42Q229 41 267 68L300 98Q301 143 303 269Q304 327 304 356T305 388H370Q368 336 367 254T366 56Q368 54 369 54Q372 54 377 56T387 62T396 68T403 71Q405 68 409
58T420 29Z" />
<glyph unicode="&#xfa;" glyph-name="uacute" horiz-adv-x="430" d="M298 620L237 453L186 469L230 643L298 620ZM420 29Q346 -15 320 -9Q305 -6 303 44Q242 -9 169 -9Q99 -9 69 34Q35 81 35 199Q35 231 35 260T36 315Q36 332 36 346T37 372Q38 382 38 386T38
388H106Q105 362 104 334T101 274Q100 254 100 235T100 198Q101 163 103 138T111 96Q129 43 178 42Q229 41 267 68L300 98Q301 143 303 269Q304 327 304 356T305 388H370Q368 336 367 254T366 56Q368 54 369 54Q372 54 377 56T387 62T396 68T403 71Q405 68 409
58T420 29Z" />
<glyph unicode="&#xfb;" glyph-name="ucircumflex" horiz-adv-x="430" d="M397 500L354 459L216 565Q215 565 78 461L41 500L218 624Q263 593 307 562T397 500ZM420 29Q346 -15 320 -9Q305 -6 303 44Q242 -9 169 -9Q99 -9 69 34Q35 81 35 199Q35 231 35 260T36
315Q36 332 36 346T37 372Q38 382 38 386T38 388H106Q105 362 104 334T101 274Q100 254 100 235T100 198Q101 163 103 138T111 96Q129 43 178 42Q229 41 267 68L300 98Q301 143 303 269Q304 327 304 356T305 388H370Q368 336 367 254T366 56Q368 54 369 54Q372
54 377 56T387 62T396 68T403 71Q405 68 409 58T420 29Z" />
<glyph unicode="&#xfc;" glyph-name="udieresis" horiz-adv-x="430" d="M337 504Q337 488 325 475T296 462Q278 462 266 474T253 504Q253 521 265 534T296 547Q312 547 324 534T337 504ZM161 506Q161 490 149 477T119 464Q102 464 89 476T76 506Q76 522 89 535T119
548Q135 548 148 535T161 506ZM420 29Q346 -15 320 -9Q305 -6 303 44Q242 -9 169 -9Q99 -9 69 34Q35 81 35 199Q35 231 35 260T36 315Q36 332 36 346T37 372Q38 382 38 386T38 388H106Q105 362 104 334T101 274Q100 254 100 235T100 198Q101 163 103 138T111 96Q129
43 178 42Q229 41 267 68L300 98Q301 143 303 269Q304 327 304 356T305 388H370Q368 336 367 254T366 56Q368 54 369 54Q372 54 377 56T387 62T396 68T403 71Q405 68 409 58T420 29Z" />
<glyph unicode="&#xfd;" glyph-name="yacute" horiz-adv-x="470" d="M416 386L295 84Q248 -32 226 -75Q165 -196 113 -212Q82 -222 47 -222Q-17 -222 -51 -192L-31 -143Q-2 -171 46 -171Q61 -171 79 -166Q116 -156 154 -97Q186 -50 204 4Q159 101 116 196T28 387H101Q120
345 153 268T234 76Q269 161 296 238T344 386Q414 387 416 386ZM321 610L260 443L209 459L254 633L321 610Z" />
<glyph unicode="&#xfe;" glyph-name="thorn" horiz-adv-x="426" d="M414 195Q414 103 359 47Q303 -9 213 -9Q141 -9 105 36Q105 -60 106 -124T110 -222H42Q44 -177 45 -70T47 210Q47 481 41 600H109Q108 586 107 553T105 468Q102 358 105 354Q112 364 125 372T153
385T185 394T213 397Q297 397 356 341Q414 286 414 195ZM353 195Q352 262 314 302T215 342Q150 342 107 294Q105 226 105 176T105 92Q147 44 215 44Q276 44 315 88Q354 132 353 195Z" />
<glyph unicode="&#xff;" glyph-name="ydieresis" horiz-adv-x="470" d="M416 386L295 84Q248 -32 226 -75Q165 -196 113 -212Q82 -222 47 -222Q-17 -222 -51 -192L-31 -143Q-2 -171 46 -171Q61 -171 79 -166Q116 -156 154 -97Q186 -50 204 4Q159 101 116 196T28
387H101Q120 345 153 268T234 76Q269 161 296 238T344 386Q414 387 416 386ZM380 501Q380 485 368 472T339 459Q322 459 309 471T296 501Q296 518 309 531T339 544Q355 544 367 531T380 501ZM204 503Q204 486 192 474T162 461Q145 461 132 473T119 503Q119 519
132 532T162 545Q179 545 191 532T204 503Z" />
<glyph unicode="&#x2013;" glyph-name="endash" horiz-adv-x="543" d="M543 211H0V273H543V211Z" />
<glyph unicode="&#x2014;" glyph-name="emdash" horiz-adv-x="724" d="M724 212H0V273H724V212Z" />
<glyph unicode="&#x2018;" glyph-name="quoteleft" horiz-adv-x="224" d="M171 459L120 443L59 610L127 633L171 459Z" />
<glyph unicode="&#x2019;" glyph-name="quoteright" horiz-adv-x="223" d="M188 610L127 443L76 459L120 633L188 610Z" />
<glyph unicode="&#x201a;" glyph-name="quotesinglbase" horiz-adv-x="223" d="M162 42L101 -125L50 -109L94 65L162 42Z" />
<glyph unicode="&#x201c;" glyph-name="quotedblleft" horiz-adv-x="355" d="M301 459L250 443L189 610L257 633L301 459ZM171 459L120 443L59 610L127 633L171 459Z" />
<glyph unicode="&#x201d;" glyph-name="quotedblright" horiz-adv-x="336" d="M301 610L240 443L189 459L233 633L301 610ZM171 610L110 443L59 459L103 633L171 610Z" />
<glyph unicode="&#x201e;" glyph-name="quotedblbase" horiz-adv-x="336" d="M273 51L212 -116L161 -100L205 74L273 51ZM143 51L82 -116L31 -100L75 74L143 51Z" />
<glyph unicode="&#x2022;" glyph-name="bullet" horiz-adv-x="594" d="M466 337Q466 268 416 218Q367 169 297 169Q227 169 178 218Q128 268 128 337Q128 406 178 456Q228 506 297 506Q366 506 416 456Q466 406 466 337Z" />
<glyph unicode="&#x2039;" glyph-name="guilsinglleft" horiz-adv-x="261" d="M74 200L237 70V1L23 169V232L237 400V331L74 200Z" />
<glyph unicode="&#x203a;" glyph-name="guilsinglright" horiz-adv-x="261" d="M23 331V400L237 232V169L23 1V70L186 200L23 331Z" />
</font>
</defs>
</svg>
