<?xml version="1.0" standalone="no"?>
<!DOCTYPE svg PUBLIC "-//W3C//DTD SVG 1.1//EN" "http://www.w3.org/Graphics/SVG/1.1/DTD/svg11.dtd">
<svg xmlns="http://www.w3.org/2000/svg">
<defs >
<font id="Palanquin" horiz-adv-x="783" ><font-face
    font-family="Palanquin Light"
    units-per-em="1000"
    panose-1="2 11 0 4 2 2 3 2 2 4"
    ascent="1320"
    descent="-491"
    alphabetic="0" />
<glyph unicode=" " glyph-name="space" horiz-adv-x="236" />
<glyph unicode="!" glyph-name="exclam" horiz-adv-x="222" d="M148 702L132 196L90 217L74 702H148ZM111 94Q131 94 144 81T158 48Q158 28 145 14T111 0Q92 0 77 14T62 48Q62 67 77 80T111 94Z" />
<glyph unicode="&quot;" glyph-name="quotedbl" horiz-adv-x="268" d="M215 702Q234 702 248 687T262 647Q262 602 235 560T171 498L153 527Q177 543 192 561T210 606Q191 608 179 622T167 654Q167 673 181 687T215 702ZM69 702Q88 702 102 687T116 647Q116 602
89 560T24 498L6 527Q29 543 44 561T62 606Q43 608 32 622T20 654Q20 673 34 687T69 702Z" />
<glyph unicode="#" glyph-name="numbersign" horiz-adv-x="480" d="M418 502L386 371H451L458 322H373L342 190H451L458 140H330L297 1L248 6L280 140H143L110 1L60 6L92 140H29L21 190H104L135 322H29L21 371H148L179 502H230L198 371H335L366 502H418ZM187 322L155
190H291L323 322H187Z" />
<glyph unicode="$" glyph-name="dollar" horiz-adv-x="533" d="M339 800V687Q367 682 390 674T433 657L411 610Q385 622 352 633T267 644Q195 644 153 613T111 530Q111 411 298 360T481 160Q480 103 443 60T339 -2V-111L292 -107V-10Q282 -11 270 -12T246 -13H225V-111H179V-7Q142
0 109 9T64 29L79 77Q105 64 150 51T245 38Q331 38 376 73T422 160Q422 277 237 326T53 530Q54 582 87 623T179 683V800L225 797V692Q235 693 245 694T265 696Q272 696 279 696T292 694V800H339Z" />
<glyph unicode="%" glyph-name="percent" horiz-adv-x="832" d="M599 706L290 -4L232 0L540 710L599 706ZM187 702Q257 702 300 658T343 532Q343 454 299 409T188 363Q117 363 74 407T31 532Q31 610 76 656T187 702ZM187 651Q154 651 124 624T94 532Q94 470 122
442T188 414Q220 414 250 440T280 532Q280 595 252 623T187 651ZM645 338Q714 338 757 294T800 169Q800 91 756 46T645 0Q575 0 532 44T489 169Q489 246 534 292T645 338ZM645 288Q611 288 582 262T552 169Q552 106 580 79T645 51Q678 51 707 78T737 169Q737 232
709 260T645 288Z" />
<glyph unicode="&amp;" glyph-name="ampersand" horiz-adv-x="681" d="M491 115L276 310Q257 329 239 345T207 375Q167 353 146 309T124 209Q124 121 184 80T316 39Q373 39 417 58T491 115ZM566 339L612 321Q609 261 597 210T562 118L645 41L616 0L533 75Q498
34 445 11T316 -13Q209 -12 136 43T62 207Q63 275 94 330T174 415Q159 437 151 462T143 520Q143 591 189 643T324 696Q374 696 409 684T475 657L453 610Q428 622 402 633T324 644Q268 644 235 607T202 526Q202 472 229 438T309 354L519 156Q539 193 550 239T566
339Z" />
<glyph unicode="&apos;" glyph-name="quotesingle" horiz-adv-x="121" d="M69 702Q88 702 102 687T116 647Q116 602 89 560T24 498L6 527Q29 543 44 561T62 606Q43 608 32 622T20 654Q20 673 34 687T69 702Z" />
<glyph unicode="(" glyph-name="parenleft" horiz-adv-x="239" d="M171 -37Q108 44 80 142T52 320Q52 399 80 497T171 675L223 657Q179 610 147 502T115 321Q115 248 147 138T223 -19L171 -37Z" />
<glyph unicode=")" glyph-name="parenright" horiz-adv-x="239" d="M68 675Q129 595 158 497T187 320Q187 240 158 142T68 -37L16 -19Q59 27 91 137T124 319Q124 391 92 500T16 657L68 675Z" />
<glyph unicode="*" glyph-name="asterisk" horiz-adv-x="330" d="M190 659L312 685L325 646L202 622L288 498L253 472L166 590L78 472L42 498L129 622L6 646L18 685L140 659L141 774H189L190 659Z" />
<glyph unicode="+" glyph-name="plus" horiz-adv-x="516" d="M496 248H286V4L229 8V248H29L21 298H229V534L286 531V298H486L496 248Z" />
<glyph unicode="," glyph-name="comma" horiz-adv-x="141" d="M78 94Q98 94 112 80T126 41Q126 -5 99 -47T34 -108L16 -79Q40 -63 56 -45T73 1Q54 2 42 16T30 48Q30 67 44 80T78 94Z" />
<glyph unicode="-" glyph-name="hyphen" horiz-adv-x="288" d="M272 248H24L16 298H264L272 248Z" />
<glyph unicode="." glyph-name="period" horiz-adv-x="127" d="M64 94Q83 94 97 81T111 48Q111 28 97 14T64 0Q44 0 30 14T16 48Q16 67 30 80T64 94Z" />
<glyph unicode="/" glyph-name="slash" horiz-adv-x="377" d="M371 706L62 -4L6 0L314 710L371 706Z" />
<glyph unicode="0" glyph-name="zero" horiz-adv-x="603" d="M62 288Q62 423 128 501T302 579Q410 579 475 504T540 289Q540 153 473 70T302 -13Q196 -13 129 68T62 288ZM127 291Q127 174 176 108T302 41Q376 41 425 107T475 286Q475 402 427 464T302 526Q226
526 177 464T127 291Z" />
<glyph unicode="1" glyph-name="one" horiz-adv-x="380" d="M327 0H71L62 50H169V489L94 438L65 481L190 566H232V50H320L327 0Z" />
<glyph unicode="2" glyph-name="two" horiz-adv-x="489" d="M225 579Q332 579 375 524T419 412Q419 356 381 308T270 196L106 50H428L436 0H31V50L236 238Q301 297 327 333T353 412Q353 462 321 495T223 528Q173 528 133 505T92 481L64 527Q65 527 111 553T225 579Z" />
<glyph unicode="3" glyph-name="three" horiz-adv-x="510" d="M236 579Q336 579 385 530T435 417Q435 363 402 323T321 268Q377 255 412 211T447 106Q447 29 386 -23T221 -76Q165 -76 115 -60T31 -24L64 20Q99 -1 134 -13T224 -25Q284 -25 333 9T382 104Q382 168
336 206T185 244H167L157 289H191Q275 289 322 324T370 416Q370 460 333 494T233 528Q179 528 138 512T73 479L42 520Q81 545 128 562T236 579Z" />
<glyph unicode="4" glyph-name="four" horiz-adv-x="544" d="M505 74H409V-69H347V74H40L31 125L368 571H409V125H513L505 74ZM98 125H347V456L98 125Z" />
<glyph unicode="5" glyph-name="five" horiz-adv-x="535" d="M85 230L100 566H433L425 514H160L150 293Q176 310 206 320T264 330Q374 330 422 271T472 130Q472 47 413 -14T241 -76Q186 -76 137 -60T52 -24L85 20Q120 -1 155 -13T245 -25Q318 -25 362 16T406 130Q406
202 368 240T268 279Q228 279 196 261T148 230H85Z" />
<glyph unicode="6" glyph-name="six" horiz-adv-x="540" d="M350 634L375 597Q282 575 216 495T132 321Q160 347 201 367T288 387Q381 387 434 327T487 190Q487 112 432 50T289 -13Q187 -13 125 57T62 261Q62 371 142 490T350 634ZM426 185Q426 245 389 291T288
337Q233 337 191 310T127 248Q128 154 167 97T287 40Q350 40 388 84T426 185Z" />
<glyph unicode="7" glyph-name="seven" horiz-adv-x="482" d="M61 -49L376 514H60L52 566H429L451 537L121 -69L61 -49Z" />
<glyph unicode="8" glyph-name="eight" horiz-adv-x="552" d="M276 643Q373 643 422 594T471 481Q471 430 437 394T363 339Q416 326 457 279T499 169Q499 97 442 42T276 -13Q166 -13 109 40T52 169Q52 223 92 274T189 339Q143 357 112 394T80 481Q80 544 130 593T276
643ZM273 593Q206 593 175 558T143 479Q143 437 177 403T276 360Q339 369 374 404T409 479Q409 525 376 559T273 593ZM276 316Q196 306 156 265T116 167Q116 110 162 74T276 38Q341 38 388 73T435 167Q435 224 395 265T276 316Z" />
<glyph unicode="9" glyph-name="nine" horiz-adv-x="540" d="M407 246Q379 221 338 200T252 179Q159 179 106 239T52 375Q52 454 107 516T251 579Q353 579 415 509T477 304Q477 194 397 76T190 -69L164 -30Q258 -10 324 71T407 246ZM413 318Q410 411 372 469T253
527Q189 527 152 483T115 381Q115 322 151 276T252 229Q306 229 348 256T413 318Z" />
<glyph unicode=":" glyph-name="colon" horiz-adv-x="127" d="M63 355Q44 355 30 369T16 402Q16 421 30 436T63 451Q83 451 97 436T111 402Q111 383 97 369T63 355ZM63 36Q44 36 30 50T16 84Q16 104 30 118T63 132Q83 132 97 118T111 84Q111 64 97 50T63 36Z" />
<glyph unicode=";" glyph-name="semicolon" horiz-adv-x="143" d="M79 355Q59 355 45 369T31 402Q31 421 45 436T79 451Q99 451 113 436T127 402Q127 383 113 369T79 355ZM78 132Q98 132 112 117T126 76Q126 32 99 -11T34 -72L16 -43Q40 -27 56 -8T73 37Q54 39
42 52T30 84Q30 104 44 118T78 132Z" />
<glyph unicode="&lt;" glyph-name="less" horiz-adv-x="314" d="M259 19L10 221V269L259 470L282 426L66 245L282 64L259 19Z" />
<glyph unicode="=" glyph-name="equal" horiz-adv-x="480" d="M458 322H29L21 371H451L458 322ZM458 140H29L21 190H451L458 140Z" />
<glyph unicode="&gt;" glyph-name="greater" horiz-adv-x="314" d="M304 221L54 19L31 64L247 245L31 426L54 470L304 269V221Z" />
<glyph unicode="?" glyph-name="question" horiz-adv-x="395" d="M192 702Q291 702 335 656T380 538Q380 481 331 425T199 332L191 139L145 157L137 363Q215 388 265 434T315 537Q315 597 284 622T190 648Q136 648 100 632T24 587L16 641Q56 666 94 684T192 702ZM167
94Q187 94 201 81T215 48Q215 28 201 14T167 0Q147 0 134 14T120 48Q120 67 133 80T167 94Z" />
<glyph unicode="@" glyph-name="at" horiz-adv-x="799" d="M555 384L531 183Q527 141 547 127T589 112Q635 112 663 161T692 297Q692 406 623 476T437 546Q309 546 212 457T114 214Q114 89 192 17T382 -55Q425 -55 469 -46T545 -20L561 -66Q519 -88 470 -97T371
-107Q248 -107 150 -19T52 213Q52 368 155 481T440 594Q575 594 660 512T746 304Q746 185 701 125T581 65Q557 65 536 73T500 100Q482 87 456 77T403 66Q320 66 281 106T241 211Q241 301 308 355T463 409H534L555 384ZM402 112Q427 112 447 119T481 140Q479 150
479 163T480 190L503 367H458Q395 367 348 325T301 211Q301 176 324 144T402 112Z" />
<glyph unicode="A" glyph-name="A" horiz-adv-x="584" d="M286 600L157 254H419L286 600ZM318 680L578 10L517 0L437 204H140L65 0H6L253 680H318Z" />
<glyph unicode="B" glyph-name="B" horiz-adv-x="604" d="M105 0V680H259Q366 680 435 643T504 503Q504 452 479 417T413 362Q475 343 513 301T552 188Q552 81 477 41T296 0H105ZM261 627H167V378H258Q336 379 389 404T442 502Q442 580 393 603T261 627ZM309 327H167V52H298Q378
52 434 79T490 186Q490 262 441 294T309 327Z" />
<glyph unicode="C" glyph-name="C" horiz-adv-x="600" d="M517 611Q486 624 456 632T372 640Q265 639 202 554T139 337Q139 215 193 128T363 41Q417 41 451 50T513 71L537 23Q509 8 459 -3T365 -14Q209 -14 141 91T73 336Q73 485 148 589T371 694Q402 694 455
685T537 657L517 611Z" />
<glyph unicode="D" glyph-name="D" horiz-adv-x="693" d="M105 0V680H327Q484 680 551 582T619 344Q619 202 543 101T318 0H105ZM330 627H167V52H320Q427 52 493 132T559 343Q559 464 503 545T330 627Z" />
<glyph unicode="E" glyph-name="E" horiz-adv-x="524" d="M105 0V680H465L470 635H167V371H367L372 326H167V50H487L493 0H105Z" />
<glyph unicode="F" glyph-name="F" horiz-adv-x="482" d="M362 322H167V0H105V680H454L461 635H167V367H356L362 322Z" />
<glyph unicode="G" glyph-name="G" horiz-adv-x="657" d="M370 342H579V32H578L579 31Q551 12 495 -1T396 -14Q241 -14 157 86T73 336Q73 497 164 595T402 694Q433 694 486 685T568 657L549 611Q518 624 488 632T404 640Q297 639 218 561T139 337Q139 200 209
121T395 41Q431 41 461 48T517 64V297H364L370 342Z" />
<glyph unicode="H" glyph-name="H" horiz-adv-x="671" d="M504 0V319H167V0H105V680L167 685V369H504V680H566V0H504Z" />
<glyph unicode="I" glyph-name="I" horiz-adv-x="272" d="M105 0V680H167V0H105Z" />
<glyph unicode="J" glyph-name="J" horiz-adv-x="273" d="M106 139V680H168V122Q168 62 143 31T45 -22L21 20Q71 39 89 59T106 139Z" />
<glyph unicode="K" glyph-name="K" horiz-adv-x="603" d="M519 0L244 346L167 257V0H105V680H167V335L473 695L513 657L283 391L593 0H519Z" />
<glyph unicode="L" glyph-name="L" horiz-adv-x="507" d="M486 0H105V680H167V50H481L486 0Z" />
<glyph unicode="M" glyph-name="M" horiz-adv-x="780" d="M381 230L167 547V0H105V680H140L389 322L634 680H675V0H612V552L401 234L381 230Z" />
<glyph unicode="N" glyph-name="N" horiz-adv-x="703" d="M105 0V680H146L503 188L537 129V680H600V0H559L181 531L167 560V0H105Z" />
<glyph unicode="O" glyph-name="O" horiz-adv-x="736" d="M371 696Q527 696 595 590T664 345Q664 204 588 96T365 -14Q209 -14 141 92T73 337Q73 486 148 589T371 696ZM139 338Q139 216 193 129T363 41Q470 41 533 126T596 344Q596 466 543 553T372 640Q265 640
202 555T139 338Z" />
<glyph unicode="P" glyph-name="P" horiz-adv-x="577" d="M105 0V680H281Q387 680 456 633T526 475Q525 365 451 315T270 264H167V0H105ZM283 627H167V317H272Q352 317 407 353T463 474Q463 562 414 594T283 627Z" />
<glyph unicode="Q" glyph-name="Q" horiz-adv-x="736" d="M608 -14L542 48Q508 19 463 3T365 -14Q209 -14 141 92T73 337Q73 486 148 589T371 696Q527 696 595 590T664 345Q664 270 642 202T577 83L645 18L608 -14ZM139 338Q139 216 193 129T363 41Q403 41 437
53T498 88L395 186L439 219L533 127Q563 167 579 222T596 344Q596 466 543 553T372 640Q265 640 202 555T139 338Z" />
<glyph unicode="R" glyph-name="R" horiz-adv-x="633" d="M283 627H167V337H272Q348 337 405 368T463 484Q463 571 412 599T283 627ZM510 0L349 291Q330 289 310 288T270 286H167V0H105V680H281Q387 680 456 637T526 486Q525 415 491 372T404 308L580 0H510Z" />
<glyph unicode="S" glyph-name="S" horiz-adv-x="533" d="M79 77Q105 64 150 51T245 38Q331 38 376 73T422 160Q422 277 237 326T53 530Q54 600 111 648T265 696Q315 696 359 684T433 657L411 610Q385 622 352 633T267 644Q195 644 153 613T111 530Q111 411 298
360T481 160Q480 85 419 36T246 -13Q203 -13 142 0T64 29L79 77Z" />
<glyph unicode="T" glyph-name="T" horiz-adv-x="514" d="M503 631H288V0H225V631H10V680H498L503 631Z" />
<glyph unicode="U" glyph-name="U" horiz-adv-x="685" d="M156 248Q156 161 206 101T342 41Q431 41 479 101T528 248V680H591V239Q591 130 525 59T342 -12Q227 -11 161 59T94 239V680H156V248Z" />
<glyph unicode="V" glyph-name="V" horiz-adv-x="584" d="M265 0L6 669L66 680L297 79L519 680H578L331 0H265Z" />
<glyph unicode="W" glyph-name="W" horiz-adv-x="948" d="M668 0L473 580L290 0H223L6 669L66 680L255 85L446 680H505L700 85L884 680H944L734 0H668Z" />
<glyph unicode="X" glyph-name="X" horiz-adv-x="634" d="M21 0L276 344L36 669L101 680L323 377L546 680H614L356 331L600 0H531L310 297L83 -10L21 0Z" />
<glyph unicode="Y" glyph-name="Y" horiz-adv-x="547" d="M240 0L241 276L6 669L71 680L272 336L475 680H542L304 283L303 0H240Z" />
<glyph unicode="Z" glyph-name="Z" horiz-adv-x="566" d="M519 0H31L25 50L467 631H62L52 680H529L534 631L94 50H514L519 0Z" />
<glyph unicode="[" glyph-name="bracketleft" horiz-adv-x="253" d="M84 696H247L239 651H141V-44H239L247 -88H84V696Z" />
<glyph unicode="\" glyph-name="backslash" horiz-adv-x="377" d="M314 -4L6 706L63 710L371 0L314 -4Z" />
<glyph unicode="]" glyph-name="bracketright" horiz-adv-x="253" d="M168 -88H6L14 -44H111V651H14L6 696H168V-88Z" />
<glyph unicode="^" glyph-name="asciicircum" horiz-adv-x="423" d="M76 143H16L182 390H241L407 143H347L212 344L76 143Z" />
<glyph unicode="_" glyph-name="underscore" horiz-adv-x="412" d="M395 0H24L16 50H387L395 0Z" />
<glyph unicode="`" glyph-name="grave" horiz-adv-x="162" d="M16 742H87L148 589H101L16 742Z" />
<glyph unicode="a" glyph-name="a" horiz-adv-x="500" d="M113 136Q113 102 136 70T213 38Q260 38 297 62T360 117V240H223Q169 240 141 209T113 136ZM86 456Q114 475 162 486T241 498Q324 498 373 455T422 340V0H381L363 52Q340 28 299 8T215 -13Q133 -13 93
30T52 136Q52 205 100 243T225 281H360V330Q360 380 332 413T244 446Q191 446 161 435T105 412L86 456Z" />
<glyph unicode="b" glyph-name="b" horiz-adv-x="542" d="M84 0V696L146 706V444Q176 467 211 482T281 498Q388 498 438 426T489 242Q489 131 439 59T281 -13Q246 -13 209 2T140 43L125 0H84ZM146 98Q177 69 211 55T276 40Q358 40 393 96T428 241Q428 330 393
387T276 445Q246 445 212 430T146 386V98Z" />
<glyph unicode="c" glyph-name="c" horiz-adv-x="463" d="M412 28Q382 9 339 -2T265 -13Q158 -13 105 59T52 245Q53 354 109 426T272 498Q301 498 344 487T417 456L397 412Q372 424 347 435T269 446Q189 446 153 389T115 246Q115 157 148 98T264 39Q317 39 341
49T392 73L412 28Z" />
<glyph unicode="d" glyph-name="d" horiz-adv-x="542" d="M395 386Q364 415 330 430T266 445Q184 445 150 388T115 242Q115 154 149 97T266 40Q296 40 330 54T395 98V386ZM458 705V0H417L401 43Q370 18 333 3T260 -13Q154 -13 103 58T52 241Q52 353 103 425T260
498Q293 498 329 483T395 444V696L458 705Z" />
<glyph unicode="e" glyph-name="e" horiz-adv-x="522" d="M475 239H115Q116 152 155 95T285 37Q338 37 370 47T428 71L449 25Q419 6 368 -3T288 -13Q169 -13 111 59T52 245Q53 354 109 426T272 498Q379 498 427 424T475 239ZM412 282Q405 353 373 399T269 446Q197
446 161 400T117 282H412Z" />
<glyph unicode="f" glyph-name="f" horiz-adv-x="288" d="M21 475H94V563Q94 626 126 664T212 702Q232 702 250 698T278 689L266 636Q260 639 248 642T225 645Q187 645 172 622T156 563V475H244L265 428H156V0H94V428H22L21 475Z" />
<glyph unicode="g" glyph-name="g" horiz-adv-x="542" d="M395 386Q364 415 330 430T266 445Q184 445 150 388T115 242Q115 154 149 97T266 40Q296 40 330 54T395 98V386ZM458 -53Q458 -125 408 -173T262 -221Q233 -221 184 -210T107 -180L126 -134Q151 -146 180
-157T260 -169Q321 -169 358 -141T395 -52V40Q366 16 330 2T260 -13Q154 -13 103 58T52 241Q52 353 103 425T260 498Q295 498 332 482T400 440L417 485H458V-53Z" />
<glyph unicode="h" glyph-name="h" horiz-adv-x="552" d="M84 0V696L146 706V411Q177 446 224 472T317 498Q395 498 434 453T474 337V1H412V325Q412 375 388 409T310 445Q278 445 229 422T146 356V0H84Z" />
<glyph unicode="i" glyph-name="i" horiz-adv-x="232" d="M116 591Q95 591 82 604T69 638Q69 658 82 671T116 685Q135 685 149 672T164 638Q164 618 150 605T116 591ZM85 0V485H148V0H85Z" />
<glyph unicode="j" glyph-name="j" horiz-adv-x="232" d="M116 591Q95 591 82 604T69 638Q69 658 82 671T116 685Q135 685 149 672T164 638Q164 618 150 605T116 591ZM85 -47V485H148V-62Q148 -125 117 -160T14 -219L-10 -176Q40 -157 63 -132T85 -47Z" />
<glyph unicode="k" glyph-name="k" horiz-adv-x="482" d="M84 0V696L146 706V266L371 498L410 461L258 305L466 0H391L218 264L146 190V0H84Z" />
<glyph unicode="l" glyph-name="l" horiz-adv-x="230" d="M84 0V696L146 706V0H84Z" />
<glyph unicode="m" glyph-name="m" horiz-adv-x="843" d="M84 0V485H125L145 426Q176 456 218 477T301 498Q354 498 390 476T442 417Q473 450 519 474T608 498Q687 498 726 453T766 337V1H703V325Q703 375 678 409T601 445Q567 445 529 426T456 370Q457 361 457
353T458 337V1H395V325Q395 375 371 409T295 445Q260 445 220 426T146 366V0H84Z" />
<glyph unicode="n" glyph-name="n" horiz-adv-x="552" d="M84 0V485H125L145 409Q176 445 224 471T317 498Q395 498 434 453T474 337V1H412V325Q412 375 388 409T310 445Q278 445 229 422T146 356V0H84Z" />
<glyph unicode="o" glyph-name="o" horiz-adv-x="528" d="M257 -13Q152 -12 102 61T52 245Q53 352 108 424T267 498Q374 498 424 425T475 239Q474 129 418 58T257 -13ZM414 239Q414 326 383 385T269 445Q189 445 153 388T115 246Q115 157 146 99T258 40Q339 40
376 96T414 239Z" />
<glyph unicode="p" glyph-name="p" horiz-adv-x="542" d="M146 98Q177 69 211 55T276 40Q358 40 393 96T428 241Q428 330 393 387T276 445Q246 445 212 430T146 386V98ZM84 -219V485H125L140 440Q171 464 208 481T281 498Q388 498 438 426T489 242Q489 131 439
59T281 -13Q247 -13 212 1T146 40V-208L84 -219Z" />
<glyph unicode="q" glyph-name="q" horiz-adv-x="542" d="M458 485V-208L395 -219V40Q366 16 330 2T260 -13Q154 -13 103 58T52 241Q52 353 103 425T260 498Q295 498 332 481T401 440L417 485H458ZM395 386Q364 415 330 430T266 445Q184 445 150 388T115 242Q115
154 149 97T266 40Q296 40 330 54T395 98V386Z" />
<glyph unicode="r" glyph-name="r" horiz-adv-x="321" d="M84 0V485H125L143 418Q169 440 211 462T292 485L309 436Q263 436 219 412T146 356V0H84Z" />
<glyph unicode="s" glyph-name="s" horiz-adv-x="451" d="M76 73Q102 60 136 50T209 39Q269 39 303 58T337 119Q337 154 299 179T209 223Q152 242 102 274T52 364Q52 427 100 462T230 498Q261 498 306 487T376 458L356 412Q336 422 305 434T228 446Q177 446 146
425T115 368Q116 334 151 313T237 274Q296 253 347 218T399 124Q399 60 350 24T207 -13Q177 -13 131 -4T56 25L76 73Z" />
<glyph unicode="t" glyph-name="t" horiz-adv-x="309" d="M265 428H156V123Q156 87 171 64T224 41Q235 41 247 44T265 50L277 -1Q267 -3 250 -8T211 -13Q158 -13 126 20T93 116V428H22L21 475H93V601L156 623V475H244L265 428Z" />
<glyph unicode="u" glyph-name="u" horiz-adv-x="531" d="M448 485V0H406L387 55Q356 27 316 8T236 -12Q156 -12 117 33T78 150V485H140V159Q140 110 165 76T241 41Q269 41 310 57T386 107V485H448Z" />
<glyph unicode="v" glyph-name="v" horiz-adv-x="469" d="M206 0L21 475L83 485L239 79L389 485H449L272 0H206Z" />
<glyph unicode="w" glyph-name="w" horiz-adv-x="753" d="M510 0L376 393L252 0H185L21 475L83 485L218 83L348 485H407L542 83L672 485H733L577 0H510Z" />
<glyph unicode="x" glyph-name="x" horiz-adv-x="482" d="M17 0L200 245L31 475L96 485L246 279L398 485H466L280 233L452 0H384L234 199L87 0H17Z" />
<glyph unicode="y" glyph-name="y" horiz-adv-x="469" d="M181 -98L213 -7L21 475L80 485L239 83L389 485H449L315 117L236 -112Q221 -153 186 -181T103 -219L86 -179Q123 -162 145 -147T181 -98Z" />
<glyph unicode="z" glyph-name="z" horiz-adv-x="472" d="M428 453L123 48H412L422 0H50L42 31L343 436H87L71 485H425L428 453Z" />
<glyph unicode="{" glyph-name="braceleft" horiz-adv-x="272" d="M160 560Q160 533 179 489T198 419Q198 375 183 349T134 311Q165 298 181 269T198 199Q198 171 179 128T160 58Q160 36 177 20T232 3H251L256 -42H230Q167 -42 137 -14T106 64Q106 95 124 135T142
207Q142 245 118 266T64 288H31V328H64Q94 328 118 350T142 410Q142 441 124 482T106 554Q106 602 136 630T230 659H256L251 614H232Q195 614 178 598T160 560Z" />
<glyph unicode="|" glyph-name="bar" horiz-adv-x="272" d="M167 706V-4L105 0V710L167 706Z" />
<glyph unicode="}" glyph-name="braceright" horiz-adv-x="272" d="M111 58Q111 84 92 127T73 199Q73 242 89 268T139 306Q107 319 90 348T73 419Q73 445 92 489T111 560Q111 581 94 597T40 614H21L16 659H41Q105 659 135 631T166 554Q166 523 148 482T129 410Q129
373 153 351T207 329H240V290H207Q177 290 153 268T129 207Q129 176 147 136T166 64Q166 15 136 -13T41 -42H16L21 3H40Q76 3 93 19T111 58Z" />
<glyph unicode="~" glyph-name="asciitilde" horiz-adv-x="356" d="M339 290Q340 238 312 219T245 199Q211 199 174 223T111 247Q92 247 78 237T62 205H17Q15 256 43 275T111 295Q153 295 185 271T244 247Q263 247 277 257T292 290H339Z" />
<glyph unicode="&#xa0;" glyph-name="uni00A0" horiz-adv-x="236" />
<glyph unicode="&#xa1;" glyph-name="exclamdown" horiz-adv-x="222" d="M111 605Q91 605 77 619T62 654Q62 673 76 687T111 702Q130 702 144 688T158 654Q158 634 144 620T111 605ZM74 0L90 505L132 485L148 0H74Z" />
<glyph unicode="&#xa2;" glyph-name="cent" horiz-adv-x="463" d="M297 605V496Q327 492 360 482T417 456L397 412Q372 424 347 435T269 446Q189 446 153 389T115 246Q115 157 148 98T264 39Q317 39 341 49T392 73L412 28Q390 13 359 3T297 -10V-111L251 -107V-13Q152
-7 102 65T52 245Q53 349 104 419T251 497V605H297Z" />
<glyph unicode="&#xa3;" glyph-name="sterling" horiz-adv-x="437" d="M188 545V376H324L346 330H188V154Q188 120 179 94T154 50H412L418 0H62L57 50H60Q96 51 110 74T125 133V330H54L52 376H125V545Q125 608 157 646T243 684Q263 684 281 679T309 671L297 618Q292
621 280 625T257 629Q219 629 204 606T188 545Z" />
<glyph unicode="&#xa4;" glyph-name="currency" horiz-adv-x="667" d="M31 -18L134 87Q113 119 102 159T90 245Q90 288 102 325T136 394L31 501L65 543L173 435Q205 463 246 480T337 498Q385 498 425 482T497 437L601 543L635 501L532 395Q554 364 565 325T577
239Q576 196 564 159T531 90L635 -18L601 -59L494 49Q462 19 419 3T325 -13Q279 -12 240 3T170 47L65 -59L31 -18ZM514 239Q514 326 468 385T338 445Q258 445 206 388T153 246Q153 157 200 99T328 40Q408 40 460 96T514 239Z" />
<glyph unicode="&#xa5;" glyph-name="yen" horiz-adv-x="547" d="M240 0V78H63L55 127H241V259H63L55 309H223L6 669L71 680L272 336L475 680H542L320 309H484L493 259H304V127H484L493 78H303V0H240Z" />
<glyph unicode="&#xa6;" glyph-name="brokenbar" horiz-adv-x="272" d="M167 706V406L105 410V710L167 706ZM167 288V-4L105 0V292L167 288Z" />
<glyph unicode="&#xa7;" glyph-name="section" horiz-adv-x="589" d="M422 173Q449 189 463 213T477 265Q477 354 360 390T164 494Q139 480 125 456T111 403Q111 314 227 276T422 173ZM79 -28Q105 -41 150 -54T245 -68Q331 -68 376 -33T422 55Q422 171 237 209T53
402Q54 443 74 477T129 533Q119 550 113 570T107 614Q108 684 165 732T321 780Q370 780 413 769T486 742L465 695Q439 707 407 718T321 729Q249 729 208 698T166 615Q166 495 352 455T535 265Q534 223 515 189T459 132Q469 115 475 96T481 54Q480 -21 419 -70T246
-119Q203 -119 142 -105T64 -76L79 -28Z" />
<glyph unicode="&#xa8;" glyph-name="dieresis" horiz-adv-x="276" d="M216 704Q235 704 247 692T259 662Q259 643 247 631T216 618Q198 618 186 630T173 662Q173 679 185 691T216 704ZM59 704Q78 704 90 692T103 662Q103 643 91 631T59 618Q42 618 29 630T16
662Q16 679 29 691T59 704Z" />
<glyph unicode="&#xa9;" glyph-name="copyright" horiz-adv-x="847" d="M783 336Q783 188 686 84T423 -20Q257 -20 160 84T62 336Q62 485 159 589T423 694Q589 694 686 590T783 336ZM121 337Q121 206 202 118T423 29Q563 29 644 117T726 337Q726 468 645 556T423
645Q283 645 202 557T121 337ZM582 148Q553 128 510 117T435 106Q328 106 276 173T223 342Q223 441 279 507T441 574Q472 574 515 564T587 533L567 488Q542 501 517 511T439 522Q359 522 322 471T285 344Q285 255 318 206T435 157Q486 157 511 167T562 191L582
148Z" />
<glyph unicode="&#xaa;" glyph-name="ordfeminine" horiz-adv-x="344" d="M97 463Q97 443 113 427T157 410Q185 410 208 427T248 466V518H171Q143 518 120 504T97 463ZM64 673Q83 686 115 694T167 702Q231 702 267 665T304 580V372H262L251 408Q237 392 212 378T157
363Q108 363 75 391T42 463Q42 509 76 534T162 559H248V577Q248 611 228 632T168 653Q134 653 114 646T76 631L64 673Z" />
<glyph unicode="&#xab;" glyph-name="guillemotleft" horiz-adv-x="356" d="M183 267L323 406L344 365L231 245L344 125L323 84L183 223V267ZM31 267L171 406L192 365L80 245L192 125L171 84L31 223V267Z" />
<glyph unicode="&#xac;" glyph-name="logicalnot" horiz-adv-x="511" d="M490 356V112L432 117V356H24L16 406H482L490 356Z" />
<glyph unicode="&#xad;" glyph-name="softhyphen" horiz-adv-x="131" />
<glyph unicode="&#xae;" glyph-name="registered" horiz-adv-x="738" d="M687 487Q687 356 602 265T370 174Q223 174 138 265T52 487Q52 619 137 710T370 802Q516 802 601 711T687 487ZM106 488Q106 374 176 298T370 221Q492 222 562 298T633 488Q633 604 563
679T370 755Q246 755 176 680T106 488ZM342 640H309V501H337Q379 501 410 513T442 571Q442 620 414 630T342 640ZM470 304L380 463Q373 463 366 463T351 462H309V304H259V680H356Q415 680 453 656T492 572Q492 534 474 511T428 475L528 304H470Z" />
<glyph unicode="&#xaf;" glyph-name="overscore" horiz-adv-x="272" d="M16 689H257V640H16V689Z" />
<glyph unicode="&#xb0;" glyph-name="degree" horiz-adv-x="245" d="M122 702Q166 702 197 672T229 599Q229 554 198 526T122 498Q79 498 48 526T16 599Q16 642 47 672T122 702ZM122 538Q147 538 165 556T184 599Q184 624 166 641T122 659Q96 659 79 642T62 599Q62
574 79 556T122 538Z" />
<glyph unicode="&#xb1;" glyph-name="plusminus" horiz-adv-x="475" d="M453 302H264V108L208 113V302H29L21 350H208V534L264 531V350H445L453 302ZM453 1H29L21 48H445L453 1Z" />
<glyph unicode="&#xb2;" glyph-name="twosuperior" horiz-adv-x="390" d="M178 771Q259 771 291 730T324 647Q324 605 297 567T214 481L95 379H332L338 336H31V379L187 515Q236 560 252 592T269 647Q269 675 248 700T176 726Q138 726 108 708T77 689L55 733Q56
733 91 752T178 771Z" />
<glyph unicode="&#xb3;" glyph-name="threesuperior" horiz-adv-x="408" d="M186 771Q261 771 298 736T336 651Q336 610 311 580T251 538Q294 528 319 496T345 416Q345 358 299 318T174 278Q132 278 95 290T31 318L55 356Q81 340 108 332T178 323Q223 323 257
346T291 415Q291 464 259 490T148 516H134L127 560H153Q215 560 248 583T281 650Q281 684 256 705T185 727Q142 727 112 714T62 689L40 727Q70 746 105 758T186 771Z" />
<glyph unicode="&#xb4;" glyph-name="acute" horiz-adv-x="162" d="M76 742H148L62 589H16L76 742Z" />
<glyph unicode="&#xb5;" glyph-name="mu" horiz-adv-x="536" d="M84 -219V485H146V159Q146 110 170 76T246 41Q274 41 315 57T390 107V485H453V0H412L393 55Q362 27 321 8T241 -12Q212 -12 188 -6T146 13V-208L84 -219Z" />
<glyph unicode="&#xb6;" glyph-name="paragraph" horiz-adv-x="827" d="M346 0V264H308Q202 264 128 314T52 475Q52 586 121 633T297 680H795V631H696V0H634V631H408V0H346Z" />
<glyph unicode="&#xb7;" glyph-name="middot" horiz-adv-x="127" d="M64 309Q83 309 97 296T111 262Q111 243 97 229T64 214Q44 214 30 228T16 262Q16 282 30 295T64 309Z" />
<glyph unicode="&#xb8;" glyph-name="cedilla" horiz-adv-x="218" d="M95 13H148L122 -54Q156 -58 179 -82T202 -132Q202 -178 168 -199T90 -221Q72 -221 51 -216T16 -202L31 -160Q40 -164 57 -169T90 -174Q111 -174 129 -164T148 -134Q148 -113 122 -99T58 -81L95 13Z" />
<glyph unicode="&#xb9;" glyph-name="onesuperior" horiz-adv-x="321" d="M269 336H69L62 379H141V700L87 663L64 700L160 765H196V379H262L269 336Z" />
<glyph unicode="&#xba;" glyph-name="ordmasculine" horiz-adv-x="395" d="M197 702Q267 702 310 658T354 532Q354 454 309 409T197 363Q128 363 85 407T42 532Q42 610 86 656T197 702ZM197 652Q165 652 134 625T102 532Q102 470 132 441T197 412Q230 412 261
439T292 532Q292 595 263 623T197 652Z" />
<glyph unicode="&#xbb;" glyph-name="guillemotright" horiz-adv-x="356" d="M33 406L173 267V223L33 84L10 125L123 245L10 365L33 406ZM185 406L324 267V223L185 84L162 125L276 245L162 365L185 406Z" />
<glyph unicode="&#xbc;" glyph-name="onequarter" horiz-adv-x="736" d="M269 336H69L62 379H141V700L87 663L64 700L160 765H196V379H262L269 336ZM509 498L219 -4L164 0L454 501L509 498ZM700 -75H627V-163H575V-75H342L337 -34V-31H338L591 321H627V-31H704L700
-75ZM395 -31H575V220L395 -31Z" />
<glyph unicode="&#xbd;" glyph-name="onehalf" horiz-adv-x="773" d="M269 336H69L62 379H141V700L87 663L64 700L160 765H196V379H262L269 336ZM498 498L207 -4L154 0L444 501L498 498ZM561 326Q642 326 674 285T707 202Q707 160 680 122T598 36L479 -67H715L721
-110H415V-67L569 71Q618 114 635 146T652 202Q652 230 631 255T560 281Q522 281 492 263T461 244L439 288Q440 288 475 307T561 326Z" />
<glyph unicode="&#xbe;" glyph-name="threequarters" horiz-adv-x="801" d="M574 498L283 -4L229 0L519 501L574 498ZM186 771Q261 771 298 736T336 651Q336 610 311 580T251 538Q294 528 319 496T345 416Q345 358 299 318T174 278Q132 278 95 290T31 318L55 356Q81
340 108 332T178 323Q223 323 257 346T291 415Q291 464 259 490T148 516H134L127 560H153Q215 560 248 583T281 650Q281 684 256 705T185 727Q142 727 112 714T62 689L40 727Q70 746 105 758T186 771ZM766 -75H692V-163H640V-75H407L401 -34V-31H403L656 321H692V-31H770L766
-75ZM461 -31H640V220L461 -31Z" />
<glyph unicode="&#xbf;" glyph-name="questiondown" horiz-adv-x="412" d="M244 525Q225 525 211 539T196 574Q196 593 210 607T244 622Q264 622 278 608T292 574Q292 554 278 540T244 525ZM219 -80Q119 -80 75 -35T31 82Q31 139 80 196T213 290L220 483L266 464L274
258Q196 233 147 187T97 84Q97 24 127 -1T221 -26Q275 -26 311 -10T387 35L395 -21Q357 -46 318 -63T219 -80Z" />
<glyph unicode="&#xc0;" glyph-name="Agrave" horiz-adv-x="584" d="M201 892H272L333 739H286L201 892ZM286 600L157 254H419L286 600ZM318 680L578 10L517 0L437 204H140L65 0H6L253 680H318Z" />
<glyph unicode="&#xc1;" glyph-name="Aacute" horiz-adv-x="584" d="M296 892H368L282 739H236L296 892ZM286 600L157 254H419L286 600ZM318 680L578 10L517 0L437 204H140L65 0H6L253 680H318Z" />
<glyph unicode="&#xc2;" glyph-name="Acircumflex" horiz-adv-x="584" d="M211 739H151L256 892H316L422 739H360L286 848L211 739ZM286 600L157 254H419L286 600ZM318 680L578 10L517 0L437 204H140L65 0H6L253 680H318Z" />
<glyph unicode="&#xc3;" glyph-name="Atilde" horiz-adv-x="584" d="M379 849H425Q426 797 401 778T341 758Q307 758 281 782T229 806Q216 806 204 796T190 762H145Q143 815 168 834T228 853Q270 853 292 830T341 806Q354 806 365 816T379 849ZM286 600L157 254H419L286
600ZM318 680L578 10L517 0L437 204H140L65 0H6L253 680H318Z" />
<glyph unicode="&#xc4;" glyph-name="Adieresis" horiz-adv-x="584" d="M365 854Q384 854 396 842T408 812Q408 793 396 781T365 768Q347 768 335 780T322 812Q322 829 334 841T365 854ZM208 854Q227 854 239 842T252 812Q252 793 240 781T208 768Q191 768 178
780T165 812Q165 829 178 841T208 854ZM286 600L157 254H419L286 600ZM318 680L578 10L517 0L437 204H140L65 0H6L253 680H318Z" />
<glyph unicode="&#xc5;" glyph-name="Aring" horiz-adv-x="584" d="M286 909Q322 909 348 885T374 825Q374 790 348 767T286 744Q250 744 224 767T197 825Q197 861 223 885T286 909ZM286 783Q304 783 317 795T330 825Q330 844 317 856T286 869Q268 869 255 857T242
825Q242 807 255 795T286 783ZM286 600L157 254H419L286 600ZM318 680L578 10L517 0L437 204H140L65 0H6L253 680H318Z" />
<glyph unicode="&#xc6;" glyph-name="AE" horiz-adv-x="850" d="M430 0V204H189L63 0L6 10L422 680H792L798 635H493V371H693L699 326H493V50H814L818 0H430ZM220 254H430V595L220 254Z" />
<glyph unicode="&#xc7;" glyph-name="Ccedilla" horiz-adv-x="600" d="M517 611Q486 624 456 632T372 640Q265 639 202 554T139 337Q139 215 193 128T363 41Q417 41 451 50T513 71L537 23Q512 10 471 0T389 -13L373 -54Q407 -58 430 -82T453 -132Q453 -178 419
-199T341 -221Q323 -221 302 -216T267 -202L282 -160Q291 -164 308 -169T341 -174Q362 -174 380 -164T399 -134Q399 -113 373 -99T309 -81L335 -13Q195 -2 134 101T73 336Q73 485 148 589T371 694Q402 694 455 685T537 657L517 611Z" />
<glyph unicode="&#xc8;" glyph-name="Egrave" horiz-adv-x="524" d="M197 892H268L329 739H282L197 892ZM105 0V680H465L470 635H167V371H367L372 326H167V50H487L493 0H105Z" />
<glyph unicode="&#xc9;" glyph-name="Eacute" horiz-adv-x="524" d="M292 892H364L278 739H232L292 892ZM105 0V680H465L470 635H167V371H367L372 326H167V50H487L493 0H105Z" />
<glyph unicode="&#xca;" glyph-name="Ecircumflex" horiz-adv-x="524" d="M207 739H147L252 892H312L418 739H356L282 848L207 739ZM105 0V680H465L470 635H167V371H367L372 326H167V50H487L493 0H105Z" />
<glyph unicode="&#xcb;" glyph-name="Edieresis" horiz-adv-x="524" d="M361 854Q380 854 392 842T404 812Q404 793 392 781T361 768Q343 768 331 780T318 812Q318 829 330 841T361 854ZM204 854Q223 854 235 842T248 812Q248 793 236 781T204 768Q187 768 174
780T161 812Q161 829 174 841T204 854ZM105 0V680H465L470 635H167V371H367L372 326H167V50H487L493 0H105Z" />
<glyph unicode="&#xcc;" glyph-name="Igrave" horiz-adv-x="272" d="M51 892H122L183 739H136L51 892ZM105 0V680H167V0H105Z" />
<glyph unicode="&#xcd;" glyph-name="Iacute" horiz-adv-x="272" d="M146 892H218L132 739H86L146 892ZM105 0V680H167V0H105Z" />
<glyph unicode="&#xce;" glyph-name="Icircumflex" horiz-adv-x="272" d="M61 739H1L106 892H166L272 739H210L136 848L61 739ZM105 0V680H167V0H105Z" />
<glyph unicode="&#xcf;" glyph-name="Idieresis" horiz-adv-x="272" d="M215 854Q234 854 246 842T258 812Q258 793 246 781T215 768Q197 768 185 780T172 812Q172 829 184 841T215 854ZM58 854Q77 854 89 842T102 812Q102 793 90 781T58 768Q41 768 28 780T15
812Q15 829 28 841T58 854ZM105 0V680H167V0H105Z" />
<glyph unicode="&#xd0;" glyph-name="Eth" horiz-adv-x="700" d="M111 0V309H29L21 359H111V680H334Q490 680 558 582T626 344Q626 202 550 101T324 0H111ZM277 309H173V52H325Q432 52 498 132T565 343Q565 464 509 545T337 627H173V359H269L277 309Z" />
<glyph unicode="&#xd1;" glyph-name="Ntilde" horiz-adv-x="703" d="M458 849H504Q505 797 480 778T420 758Q386 758 360 782T308 806Q295 806 283 796T269 762H224Q222 815 247 834T307 853Q349 853 371 830T420 806Q433 806 444 816T458 849ZM105 0V680H146L503
188L537 129V680H600V0H559L181 531L167 560V0H105Z" />
<glyph unicode="&#xd2;" glyph-name="Ograve" horiz-adv-x="736" d="M286 892H357L418 739H371L286 892ZM371 696Q527 696 595 590T664 345Q664 204 588 96T365 -14Q209 -14 141 92T73 337Q73 486 148 589T371 696ZM139 338Q139 216 193 129T363 41Q470 41 533
126T596 344Q596 466 543 553T372 640Q265 640 202 555T139 338Z" />
<glyph unicode="&#xd3;" glyph-name="Oacute" horiz-adv-x="736" d="M381 892H453L367 739H321L381 892ZM371 696Q527 696 595 590T664 345Q664 204 588 96T365 -14Q209 -14 141 92T73 337Q73 486 148 589T371 696ZM139 338Q139 216 193 129T363 41Q470 41 533
126T596 344Q596 466 543 553T372 640Q265 640 202 555T139 338Z" />
<glyph unicode="&#xd4;" glyph-name="Ocircumflex" horiz-adv-x="736" d="M296 739H236L341 892H401L507 739H445L371 848L296 739ZM371 696Q527 696 595 590T664 345Q664 204 588 96T365 -14Q209 -14 141 92T73 337Q73 486 148 589T371 696ZM139 338Q139 216
193 129T363 41Q470 41 533 126T596 344Q596 466 543 553T372 640Q265 640 202 555T139 338Z" />
<glyph unicode="&#xd5;" glyph-name="Otilde" horiz-adv-x="736" d="M464 849H510Q511 797 486 778T426 758Q392 758 366 782T314 806Q301 806 289 796T275 762H230Q228 815 253 834T313 853Q355 853 377 830T426 806Q439 806 450 816T464 849ZM371 696Q527 696
595 590T664 345Q664 204 588 96T365 -14Q209 -14 141 92T73 337Q73 486 148 589T371 696ZM139 338Q139 216 193 129T363 41Q470 41 533 126T596 344Q596 466 543 553T372 640Q265 640 202 555T139 338Z" />
<glyph unicode="&#xd6;" glyph-name="Odieresis" horiz-adv-x="736" d="M450 854Q469 854 481 842T493 812Q493 793 481 781T450 768Q432 768 420 780T407 812Q407 829 419 841T450 854ZM293 854Q312 854 324 842T337 812Q337 793 325 781T293 768Q276 768 263
780T250 812Q250 829 263 841T293 854ZM371 696Q527 696 595 590T664 345Q664 204 588 96T365 -14Q209 -14 141 92T73 337Q73 486 148 589T371 696ZM139 338Q139 216 193 129T363 41Q470 41 533 126T596 344Q596 466 543 553T372 640Q265 640 202 555T139 338Z"
/>
<glyph unicode="&#xd7;" glyph-name="multiply" horiz-adv-x="469" d="M21 41L192 250L28 454L87 464L232 282L386 464H449L265 241L433 31H370L225 209L78 31L21 41Z" />
<glyph unicode="&#xd8;" glyph-name="Oslash" horiz-adv-x="736" d="M371 696Q527 696 595 590T664 345Q664 204 588 96T365 -14Q209 -14 141 92T73 337Q73 486 148 589T371 696ZM372 640Q265 640 202 555T139 338Q139 262 160 197T224 91L456 624Q438 631 417
635T372 640ZM270 61Q289 51 312 46T363 41Q470 41 533 126T596 344Q596 424 573 491T503 597L270 61Z" />
<glyph unicode="&#xd9;" glyph-name="Ugrave" horiz-adv-x="685" d="M257 892H328L389 739H342L257 892ZM156 248Q156 161 206 101T342 41Q431 41 479 101T528 248V680H591V239Q591 130 525 59T342 -12Q227 -11 161 59T94 239V680H156V248Z" />
<glyph unicode="&#xda;" glyph-name="Uacute" horiz-adv-x="685" d="M352 892H424L338 739H292L352 892ZM156 248Q156 161 206 101T342 41Q431 41 479 101T528 248V680H591V239Q591 130 525 59T342 -12Q227 -11 161 59T94 239V680H156V248Z" />
<glyph unicode="&#xdb;" glyph-name="Ucircumflex" horiz-adv-x="685" d="M267 739H207L312 892H372L478 739H416L342 848L267 739ZM156 248Q156 161 206 101T342 41Q431 41 479 101T528 248V680H591V239Q591 130 525 59T342 -12Q227 -11 161 59T94 239V680H156V248Z" />
<glyph unicode="&#xdc;" glyph-name="Udieresis" horiz-adv-x="685" d="M421 854Q440 854 452 842T464 812Q464 793 452 781T421 768Q403 768 391 780T378 812Q378 829 390 841T421 854ZM264 854Q283 854 295 842T308 812Q308 793 296 781T264 768Q247 768 234
780T221 812Q221 829 234 841T264 854ZM156 248Q156 161 206 101T342 41Q431 41 479 101T528 248V680H591V239Q591 130 525 59T342 -12Q227 -11 161 59T94 239V680H156V248Z" />
<glyph unicode="&#xdd;" glyph-name="Yacute" horiz-adv-x="547" d="M282 892H354L268 739H222L282 892ZM240 0L241 276L6 669L71 680L272 336L475 680H542L304 283L303 0H240Z" />
<glyph unicode="&#xde;" glyph-name="Thorn" horiz-adv-x="589" d="M105 0V680H167V566H281Q387 566 456 520T526 361Q525 251 451 201T270 150H167V0H105ZM283 514H167V203H272Q352 203 407 239T463 360Q463 448 414 481T283 514Z" />
<glyph unicode="&#xdf;" glyph-name="germandbls" horiz-adv-x="577" d="M84 473Q84 574 144 627T297 680Q375 680 433 637T491 503Q491 450 470 414T406 356Q460 334 493 294T526 188Q526 81 451 41T270 0H221V52H272Q352 52 407 79T463 186Q463 262 414 294T282
327H237V378H264Q354 378 391 408T429 502Q429 568 389 597T295 627Q221 627 184 584T146 473V0H84V473Z" />
<glyph unicode="&#xe0;" glyph-name="agrave" horiz-adv-x="500" d="M157 742H229L290 589H243L157 742ZM113 136Q113 102 136 70T213 38Q260 38 297 62T360 117V240H223Q169 240 141 209T113 136ZM86 456Q114 475 162 486T241 498Q324 498 373 455T422 340V0H381L363
52Q340 28 299 8T215 -13Q133 -13 93 30T52 136Q52 205 100 243T225 281H360V330Q360 380 332 413T244 446Q191 446 161 435T105 412L86 456Z" />
<glyph unicode="&#xe1;" glyph-name="aacute" horiz-adv-x="500" d="M253 742H324L239 589H192L253 742ZM113 136Q113 102 136 70T213 38Q260 38 297 62T360 117V240H223Q169 240 141 209T113 136ZM86 456Q114 475 162 486T241 498Q324 498 373 455T422 340V0H381L363
52Q340 28 299 8T215 -13Q133 -13 93 30T52 136Q52 205 100 243T225 281H360V330Q360 380 332 413T244 446Q191 446 161 435T105 412L86 456Z" />
<glyph unicode="&#xe2;" glyph-name="acircumflex" horiz-adv-x="500" d="M167 589H107L213 742H272L378 589H318L243 698L167 589ZM113 136Q113 102 136 70T213 38Q260 38 297 62T360 117V240H223Q169 240 141 209T113 136ZM86 456Q114 475 162 486T241 498Q324
498 373 455T422 340V0H381L363 52Q340 28 299 8T215 -13Q133 -13 93 30T52 136Q52 205 100 243T225 281H360V330Q360 380 332 413T244 446Q191 446 161 435T105 412L86 456Z" />
<glyph unicode="&#xe3;" glyph-name="atilde" horiz-adv-x="500" d="M335 699H382Q383 647 358 628T297 608Q264 608 238 632T185 656Q172 656 161 646T148 612H101Q100 665 125 684T185 703Q227 703 249 680T297 656Q310 656 321 666T335 699ZM113 136Q113 102
136 70T213 38Q260 38 297 62T360 117V240H223Q169 240 141 209T113 136ZM86 456Q114 475 162 486T241 498Q324 498 373 455T422 340V0H381L363 52Q340 28 299 8T215 -13Q133 -13 93 30T52 136Q52 205 100 243T225 281H360V330Q360 380 332 413T244 446Q191 446
161 435T105 412L86 456Z" />
<glyph unicode="&#xe4;" glyph-name="adieresis" horiz-adv-x="500" d="M322 704Q340 704 352 692T365 662Q365 643 353 631T322 618Q303 618 291 630T278 662Q278 679 290 691T322 704ZM166 704Q183 704 196 692T209 662Q209 643 196 631T166 618Q147 618 134
630T121 662Q121 679 134 691T166 704ZM113 136Q113 102 136 70T213 38Q260 38 297 62T360 117V240H223Q169 240 141 209T113 136ZM86 456Q114 475 162 486T241 498Q324 498 373 455T422 340V0H381L363 52Q340 28 299 8T215 -13Q133 -13 93 30T52 136Q52 205 100
243T225 281H360V330Q360 380 332 413T244 446Q191 446 161 435T105 412L86 456Z" />
<glyph unicode="&#xe5;" glyph-name="aring" horiz-adv-x="500" d="M244 759Q279 759 305 735T332 675Q332 640 306 617T244 594Q207 594 181 617T154 675Q154 711 180 735T244 759ZM244 633Q261 633 274 645T288 675Q288 694 275 706T244 719Q225 719 212 707T199
675Q199 657 212 645T244 633ZM113 136Q113 102 136 70T213 38Q260 38 297 62T360 117V240H223Q169 240 141 209T113 136ZM86 456Q114 475 162 486T241 498Q324 498 373 455T422 340V0H381L363 52Q340 28 299 8T215 -13Q133 -13 93 30T52 136Q52 205 100 243T225
281H360V330Q360 380 332 413T244 446Q191 446 161 435T105 412L86 456Z" />
<glyph unicode="&#xe6;" glyph-name="ae" horiz-adv-x="830" d="M782 239H422Q423 152 463 95T593 37Q646 37 678 47T736 71L755 25Q727 6 676 -3T594 -13Q526 -13 477 13T401 84Q377 46 328 17T219 -13Q132 -13 92 30T52 136Q52 205 100 243T225 281H360V330Q360
380 332 413T244 446Q191 446 161 435T105 412L86 456Q114 475 162 486T241 498Q301 498 343 474T405 409Q432 450 476 474T579 498Q686 498 734 424T782 239ZM719 282Q713 353 681 399T577 446Q505 446 469 400T423 282H719ZM113 136Q113 102 136 70T213 38Q266
38 309 66T377 134Q370 158 365 184T360 239H223Q169 239 141 209T113 136Z" />
<glyph unicode="&#xe7;" glyph-name="ccedilla" horiz-adv-x="463" d="M392 73L412 28Q387 13 354 3T291 -11L275 -54Q309 -58 332 -82T356 -132Q356 -178 322 -199T244 -221Q225 -221 204 -216T168 -202L185 -160Q193 -164 210 -169T244 -174Q263 -174 281 -164T300
-134Q300 -113 275 -99T212 -81L238 -11Q145 -2 99 68T52 245Q53 354 109 426T272 498Q301 498 344 487T417 456L397 412Q372 424 347 435T269 446Q189 446 153 389T115 246Q115 157 148 98T264 39Q317 39 341 49T392 73Z" />
<glyph unicode="&#xe8;" glyph-name="egrave" horiz-adv-x="522" d="M186 742H257L318 589H271L186 742ZM475 239H115Q116 152 155 95T285 37Q338 37 370 47T428 71L449 25Q419 6 368 -3T288 -13Q169 -13 111 59T52 245Q53 354 109 426T272 498Q379 498 427 424T475
239ZM412 282Q405 353 373 399T269 446Q197 446 161 400T117 282H412Z" />
<glyph unicode="&#xe9;" glyph-name="eacute" horiz-adv-x="522" d="M281 742H352L267 589H220L281 742ZM475 239H115Q116 152 155 95T285 37Q338 37 370 47T428 71L449 25Q419 6 368 -3T288 -13Q169 -13 111 59T52 245Q53 354 109 426T272 498Q379 498 427 424T475
239ZM412 282Q405 353 373 399T269 446Q197 446 161 400T117 282H412Z" />
<glyph unicode="&#xea;" glyph-name="ecircumflex" horiz-adv-x="522" d="M196 589H134L241 742H300L405 589H344L271 698L196 589ZM475 239H115Q116 152 155 95T285 37Q338 37 370 47T428 71L449 25Q419 6 368 -3T288 -13Q169 -13 111 59T52 245Q53 354 109 426T272
498Q379 498 427 424T475 239ZM412 282Q405 353 373 399T269 446Q197 446 161 400T117 282H412Z" />
<glyph unicode="&#xeb;" glyph-name="edieresis" horiz-adv-x="522" d="M350 704Q368 704 380 692T393 662Q393 643 381 631T350 618Q331 618 318 630T305 662Q305 679 318 691T350 704ZM192 704Q211 704 224 692T237 662Q237 643 224 631T192 618Q174 618 162
630T150 662Q150 679 162 691T192 704ZM475 239H115Q116 152 155 95T285 37Q338 37 370 47T428 71L449 25Q419 6 368 -3T288 -13Q169 -13 111 59T52 245Q53 354 109 426T272 498Q379 498 427 424T475 239ZM412 282Q405 353 373 399T269 446Q197 446 161 400T117
282H412Z" />
<glyph unicode="&#xec;" glyph-name="igrave" horiz-adv-x="232" d="M15 742H87L147 589H100L15 742ZM85 0V485H148V0H85Z" />
<glyph unicode="&#xed;" glyph-name="iacute" horiz-adv-x="232" d="M146 742H217L132 589H85L146 742ZM85 0V485H148V0H85Z" />
<glyph unicode="&#xee;" glyph-name="icircumflex" horiz-adv-x="232" d="M41 589H-20L87 742H146L252 589H190L117 698L41 589ZM85 0V485H148V0H85Z" />
<glyph unicode="&#xef;" glyph-name="idieresis" horiz-adv-x="232" d="M195 704Q213 704 226 692T239 662Q239 643 226 631T195 618Q177 618 164 630T150 662Q150 679 163 691T195 704ZM38 704Q56 704 69 692T83 662Q83 643 70 631T38 618Q20 618 7 630T-6 662Q-6
679 7 691T38 704ZM85 0V485H148V0H85Z" />
<glyph unicode="&#xf0;" glyph-name="eth" horiz-adv-x="540" d="M394 664L320 599Q387 538 432 450T477 261Q477 128 415 58T251 -13Q162 -13 107 49T52 190Q52 266 105 326T252 387Q297 387 338 367T408 320Q397 391 362 453T278 561L180 475L151 514L241 593Q209
618 175 635T107 659L134 698Q171 690 209 673T282 629L364 702L394 664ZM115 185Q115 128 152 84T253 40Q333 40 371 97T413 248Q391 283 349 310T252 337Q188 337 152 291T115 185Z" />
<glyph unicode="&#xf1;" glyph-name="ntilde" horiz-adv-x="552" d="M409 699H455Q457 647 432 628T371 608Q337 608 311 632T258 656Q245 656 234 646T221 612H174Q173 665 198 684T258 703Q301 703 323 680T370 656Q383 656 395 666T409 699ZM84 0V485H125L145
409Q176 445 224 471T317 498Q395 498 434 453T474 337V1H412V325Q412 375 388 409T310 445Q278 445 229 422T146 356V0H84Z" />
<glyph unicode="&#xf2;" glyph-name="ograve" horiz-adv-x="528" d="M182 742H253L313 589H266L182 742ZM257 -13Q152 -12 102 61T52 245Q53 352 108 424T267 498Q374 498 424 425T475 239Q474 129 418 58T257 -13ZM414 239Q414 326 383 385T269 445Q189 445 153
388T115 246Q115 157 146 99T258 40Q339 40 376 96T414 239Z" />
<glyph unicode="&#xf3;" glyph-name="oacute" horiz-adv-x="528" d="M276 742H348L262 589H216L276 742ZM257 -13Q152 -12 102 61T52 245Q53 352 108 424T267 498Q374 498 424 425T475 239Q474 129 418 58T257 -13ZM414 239Q414 326 383 385T269 445Q189 445 153
388T115 246Q115 157 146 99T258 40Q339 40 376 96T414 239Z" />
<glyph unicode="&#xf4;" glyph-name="ocircumflex" horiz-adv-x="528" d="M191 589H131L237 742H295L402 589H340L266 698L191 589ZM257 -13Q152 -12 102 61T52 245Q53 352 108 424T267 498Q374 498 424 425T475 239Q474 129 418 58T257 -13ZM414 239Q414 326
383 385T269 445Q189 445 153 388T115 246Q115 157 146 99T258 40Q339 40 376 96T414 239Z" />
<glyph unicode="&#xf5;" glyph-name="otilde" horiz-adv-x="528" d="M358 699H405Q406 647 381 628T321 608Q287 608 261 632T209 656Q196 656 184 646T171 612H123Q122 665 147 684T207 703Q250 703 272 680T321 656Q333 656 345 666T358 699ZM257 -13Q152 -12
102 61T52 245Q53 352 108 424T267 498Q374 498 424 425T475 239Q474 129 418 58T257 -13ZM414 239Q414 326 383 385T269 445Q189 445 153 388T115 246Q115 157 146 99T258 40Q339 40 376 96T414 239Z" />
<glyph unicode="&#xf6;" glyph-name="odieresis" horiz-adv-x="528" d="M345 704Q364 704 376 692T389 662Q389 643 377 631T345 618Q327 618 315 630T302 662Q302 679 314 691T345 704ZM189 704Q207 704 219 692T232 662Q232 643 220 631T189 618Q170 618 158
630T145 662Q145 679 157 691T189 704ZM257 -13Q152 -12 102 61T52 245Q53 352 108 424T267 498Q374 498 424 425T475 239Q474 129 418 58T257 -13ZM414 239Q414 326 383 385T269 445Q189 445 153 388T115 246Q115 157 146 99T258 40Q339 40 376 96T414 239Z" />
<glyph unicode="&#xf7;" glyph-name="divide" horiz-adv-x="480" d="M239 360Q214 360 198 377T182 416Q182 440 198 456T239 472Q262 472 278 456T294 416Q294 394 278 377T239 360ZM458 248H29L21 298H451L458 248ZM241 57Q217 57 201 74T185 114Q185 137 201
153T241 170Q264 170 280 154T297 114Q297 91 281 74T241 57Z" />
<glyph unicode="&#xf8;" glyph-name="oslash" horiz-adv-x="528" d="M257 -13Q152 -12 102 61T52 245Q53 352 108 424T267 498Q374 498 424 425T475 239Q474 129 418 58T257 -13ZM338 428Q325 436 308 440T269 445Q189 445 153 388T115 246Q115 194 124 151T159
79L338 428ZM258 40Q339 40 376 96T414 239Q414 284 406 323T379 390L204 49Q215 44 229 42T258 40Z" />
<glyph unicode="&#xf9;" glyph-name="ugrave" horiz-adv-x="531" d="M178 742H248L309 589H262L178 742ZM448 485V0H406L387 55Q356 27 316 8T236 -12Q156 -12 117 33T78 150V485H140V159Q140 110 165 76T241 41Q269 41 310 57T386 107V485H448Z" />
<glyph unicode="&#xfa;" glyph-name="uacute" horiz-adv-x="531" d="M272 742H344L258 589H213L272 742ZM448 485V0H406L387 55Q356 27 316 8T236 -12Q156 -12 117 33T78 150V485H140V159Q140 110 165 76T241 41Q269 41 310 57T386 107V485H448Z" />
<glyph unicode="&#xfb;" glyph-name="ucircumflex" horiz-adv-x="531" d="M188 589H127L232 742H291L397 589H337L262 698L188 589ZM448 485V0H406L387 55Q356 27 316 8T236 -12Q156 -12 117 33T78 150V485H140V159Q140 110 165 76T241 41Q269 41 310 57T386 107V485H448Z"
/>
<glyph unicode="&#xfc;" glyph-name="udieresis" horiz-adv-x="531" d="M341 704Q360 704 372 692T385 662Q385 643 373 631T341 618Q324 618 311 630T297 662Q297 679 310 691T341 704ZM185 704Q203 704 215 692T228 662Q228 643 216 631T185 618Q166 618 153
630T140 662Q140 679 153 691T185 704ZM448 485V0H406L387 55Q356 27 316 8T236 -12Q156 -12 117 33T78 150V485H140V159Q140 110 165 76T241 41Q269 41 310 57T386 107V485H448Z" />
<glyph unicode="&#xfd;" glyph-name="yacute" horiz-adv-x="469" d="M251 742H322L237 589H190L251 742ZM181 -98L213 -7L21 475L80 485L239 83L389 485H449L315 117L236 -112Q221 -153 186 -181T103 -219L86 -179Q123 -162 145 -147T181 -98Z" />
<glyph unicode="&#xfe;" glyph-name="thorn" horiz-adv-x="542" d="M146 98Q177 69 211 55T276 40Q358 40 393 96T428 241Q428 330 393 387T276 445Q246 445 212 430T146 386V98ZM84 -219V696L146 706V444Q176 467 211 482T281 498Q388 498 438 426T489 242Q489
131 439 59T281 -13Q247 -13 212 1T146 40V-208L84 -219Z" />
<glyph unicode="&#xff;" glyph-name="ydieresis" horiz-adv-x="469" d="M321 704Q338 704 350 692T363 662Q363 643 351 631T321 618Q302 618 289 630T276 662Q276 679 289 691T321 704ZM163 704Q182 704 194 692T206 662Q206 643 194 631T163 618Q145 618 133
630T120 662Q120 679 132 691T163 704ZM181 -98L213 -7L21 475L80 485L239 83L389 485H449L315 117L236 -112Q221 -153 186 -181T103 -219L86 -179Q123 -162 145 -147T181 -98Z" />
<glyph unicode="&#x2013;" glyph-name="endash" horiz-adv-x="412" d="M395 248H24L16 298H387L395 248Z" />
<glyph unicode="&#x2014;" glyph-name="emdash" horiz-adv-x="505" d="M490 248H24L16 298H482L490 248Z" />
<glyph unicode="&#x2018;" glyph-name="quoteleft" horiz-adv-x="121" d="M53 498Q32 498 19 512T6 552Q6 597 33 640T97 702L116 671Q92 656 76 638T57 593Q78 591 89 577T101 545Q101 526 87 512T53 498Z" />
<glyph unicode="&#x2019;" glyph-name="quoteright" horiz-adv-x="121" d="M69 702Q88 702 102 687T116 647Q116 602 89 560T24 498L6 527Q29 543 44 561T62 606Q43 608 32 622T20 654Q20 673 34 687T69 702Z" />
<glyph unicode="&#x201a;" glyph-name="quotesinglbase" horiz-adv-x="121" d="M69 94Q88 94 102 80T116 41Q116 -5 89 -47T24 -108L6 -79Q29 -63 44 -45T62 1Q43 2 32 16T20 48Q20 67 34 80T69 94Z" />
<glyph unicode="&#x201c;" glyph-name="quotedblleft" horiz-adv-x="268" d="M53 498Q32 498 19 512T6 552Q6 597 33 640T97 702L116 671Q92 656 76 638T57 593Q78 591 89 577T101 545Q101 526 87 512T53 498ZM199 498Q180 498 167 512T153 552Q153 597 180 640T245
702L262 671Q238 656 223 638T206 593Q225 591 236 577T248 545Q248 526 234 512T199 498Z" />
<glyph unicode="&#x201d;" glyph-name="quotedblright" horiz-adv-x="268" d="M215 702Q234 702 248 687T262 647Q262 602 235 560T171 498L153 527Q177 543 192 561T210 606Q191 608 179 622T167 654Q167 673 181 687T215 702ZM69 702Q88 702 102 687T116 647Q116
602 89 560T24 498L6 527Q29 543 44 561T62 606Q43 608 32 622T20 654Q20 673 34 687T69 702Z" />
<glyph unicode="&#x201e;" glyph-name="quotedblbase" horiz-adv-x="268" d="M69 95Q88 95 102 81T116 41Q116 -4 89 -46T24 -108L6 -78Q29 -62 44 -44T62 1Q43 2 32 16T20 48Q20 68 34 81T69 95ZM215 94Q234 94 248 80T262 41Q262 -5 235 -47T171 -108L153 -79Q177
-63 192 -45T210 1Q191 2 179 16T167 48Q167 67 181 80T215 94Z" />
<glyph unicode="&#x2022;" glyph-name="bullet" horiz-adv-x="206" d="M103 245Q69 245 45 269T21 326Q21 360 45 384T103 409Q137 409 161 385T185 326Q185 293 161 269T103 245Z" />
<glyph unicode="&#x2039;" glyph-name="guilsinglleft" horiz-adv-x="204" d="M31 269L171 408L192 363L83 245L192 127L171 83L31 221V269Z" />
<glyph unicode="&#x203a;" glyph-name="guilsinglright" horiz-adv-x="204" d="M33 408L173 269V221L33 83L10 127L122 245L10 363L33 408Z" />
</font>
</defs>
</svg>
