<?xml version="1.0" standalone="no"?>
<!DOCTYPE svg PUBLIC "-//W3C//DTD SVG 1.1//EN" "http://www.w3.org/Graphics/SVG/1.1/DTD/svg11.dtd">
<svg xmlns="http://www.w3.org/2000/svg">
<defs >
<font id="CormorantUpright" horiz-adv-x="521" ><font-face
    font-family="Cormorant Upright"
    units-per-em="1000"
    panose-1="0 0 8 0 0 0 0 0 0 0"
    ascent="924"
    descent="-287"
    alphabetic="0" />
<glyph unicode=" " glyph-name="space" horiz-adv-x="234" />
<glyph unicode="!" glyph-name="exclam" horiz-adv-x="263" d="M59 622T82 625T131 629Q157 629 180 626T202 615Q180 539 170 449T148 221Q148 211 146 189Q146 187 141 186T129 184Q123 184 118 185T112 189Q103 337 93 434T61 615Q59 622 82 625ZM97 -11T81
5T64 50Q64 76 80 92T125 108Q153 108 168 93T184 50Q184 21 169 5T125 -11Q97 -11 81 5Z" />
<glyph unicode="&quot;" glyph-name="quotedbl" horiz-adv-x="290" d="M28 606Q27 618 60 629T119 641Q128 641 132 639T136 632L73 366Q71 364 64 363T57 365L28 606ZM168 606Q167 618 200 629T259 641Q268 641 272 639T276 632L213 366Q211 364 204 363T197
365L168 606Z" />
<glyph unicode="#" glyph-name="numbersign" horiz-adv-x="526" d="M465 320T466 313T468 297Q468 288 467 281T463 273H400L373 122H428Q430 122 431 115T433 98Q433 89 432 82T428 74H365L337 -83Q337 -87 311 -83T287 -75L313 74H178L150 -83Q150 -87 124 -83T99
-75L125 74H63Q61 74 60 82T58 100Q58 108 59 115T62 122H134L161 273H98Q96 273 95 281T93 298Q93 306 94 313T97 320H169L198 482Q198 487 223 481T248 471L221 320H356L385 482Q385 487 410 481T435 471L408 320H463Q465 320 466 313ZM322 122L348 273H213L186
122H322Z" />
<glyph unicode="$" glyph-name="dollar" horiz-adv-x="422" d="M391 75T347 35T234 -11V-102Q234 -109 220 -109Q205 -109 205 -102V-12Q161 -11 119 0T61 25Q53 30 53 46L48 159Q48 163 53 164T60 161Q95 101 128 62T205 13V203L175 219Q116 251 85 279T54 353Q54
406 97 439T205 479V561Q205 565 209 567T220 569Q226 569 230 567T234 561V480Q265 479 298 473T351 457Q360 454 363 450T366 437V342Q366 339 361 338T354 339Q338 373 309 409T234 455V287L258 275Q303 251 328 235T372 192T391 131Q391 75 347 35ZM137 363T155
342T205 302V457Q170 456 154 438T137 392Q137 363 155 342ZM263 13T282 32T302 85Q302 116 284 140T234 185V11Q263 13 282 32Z" />
<glyph unicode="%" glyph-name="percent" horiz-adv-x="574" d="M93 303T56 340T18 433Q18 486 55 523T150 560Q207 560 243 523T280 430Q280 376 243 340T150 303Q93 303 56 340ZM108 -11T93 -1T80 13L450 557Q453 560 468 549T481 535L110 -8Q108 -11 93 -1ZM182
319T190 345T198 423Q198 483 184 513T144 544Q118 544 109 516T99 436Q99 319 157 319Q182 319 190 345ZM370 -5T333 32T295 125Q295 178 332 215T427 253Q484 253 520 215T557 123Q557 69 521 32T427 -5Q370 -5 333 32ZM459 12T467 38T475 116Q475 175 461 205T421
236Q396 236 387 208T377 129Q377 74 389 43T434 12Q459 12 467 38Z" />
<glyph unicode="&amp;" glyph-name="ampersand" horiz-adv-x="777" d="M777 399T777 360Q777 332 760 303T714 254T655 235Q630 235 587 253Q566 126 493 57T316 -12Q243 -12 187 20T99 107T68 225Q68 251 74 278Q85 332 118 374T200 441T304 465Q353 465 388
448Q437 505 437 544Q437 563 430 572T408 591Q393 600 386 609T379 637Q379 660 392 674T429 688Q458 688 473 665T488 605Q488 543 451 485T358 379T208 256L166 223Q177 141 229 94T353 46Q404 46 449 72T525 147T566 263Q562 265 540 277Q497 299 474 308T429
318Q412 318 404 313T396 297Q396 285 409 270Q422 253 422 242Q422 230 414 221T388 211Q373 211 363 220T352 250Q352 279 372 308T425 355T490 374Q516 374 543 364T612 332Q646 315 668 306T708 297Q721 297 729 302T738 316Q738 323 725 336Q715 346 711 352T706
370Q706 383 715 391T742 399Q777 399 777 360ZM162 277T164 248Q182 263 183 264Q271 333 314 373Q295 435 250 435Q217 435 196 400T167 310Q162 277 164 248Z" />
<glyph unicode="&apos;" glyph-name="quotesingle" horiz-adv-x="150" d="M28 606Q27 618 60 629T119 641Q128 641 132 639T136 632L73 366Q71 364 64 363T57 365L28 606Z" />
<glyph unicode="(" glyph-name="parenleft" horiz-adv-x="309" d="M44 446T104 559T274 725Q276 726 278 724T278 719Q215 648 186 545T156 304Q156 166 185 63T278 -111Q280 -112 278 -115T274 -117Q165 -63 105 49T44 304Q44 446 104 559Z" />
<glyph unicode=")" glyph-name="parenright" horiz-adv-x="309" d="M265 162T205 49T35 -117Q33 -118 31 -116T31 -111Q94 -40 123 63T153 304Q153 442 124 545T31 719Q29 720 31 723T35 725Q144 671 204 559T265 304Q265 162 205 49Z" />
<glyph unicode="*" glyph-name="asterisk" horiz-adv-x="448" d="M200 657Q198 668 237 678T304 689Q316 689 315 685L236 529Q235 526 231 526T226 529L200 657ZM73 526Q64 528 64 556Q64 584 70 616T82 644L207 520Q209 518 208 514T204 511L73 526ZM250 504Q248
504 247 508T248 513L361 578Q370 582 387 558T418 505T425 477L250 504ZM159 363T152 363Q139 363 113 373T66 396T50 411L206 491L208 492Q211 492 213 490T215 485L160 366Q159 363 152 363ZM232 481V482Q232 484 236 486T241 488L337 399Q344 393 326 369T285
324T261 309L232 481Z" />
<glyph unicode="+" glyph-name="plus" horiz-adv-x="398" d="M366 214T367 207T369 190Q369 181 368 173T364 165H223V25Q223 23 214 22T195 20Q174 20 174 23V165H34Q32 165 31 173T29 191Q29 200 30 207T33 214H174V354Q174 356 182 357T199 359Q208 359 215
358T223 354V214H364Q366 214 367 207Z" />
<glyph unicode="," glyph-name="comma" horiz-adv-x="222" d="M136 106T155 79T175 2Q175 -43 155 -81T95 -159Q94 -160 92 -160Q89 -160 87 -157T87 -152Q136 -102 136 -34Q136 -6 126 7Q117 -8 89 -8Q65 -8 51 7T36 48Q36 75 53 90T101 106Q136 106 155 79Z" />
<glyph unicode="-" glyph-name="hyphen" horiz-adv-x="323" d="M30 156T29 166T27 187Q27 210 30 211L291 257Q293 258 294 250T296 231Q296 221 295 213T291 204L32 157Q30 156 29 166Z" />
<glyph unicode="." glyph-name="period" horiz-adv-x="207" d="M77 -11T61 5T44 50Q44 76 60 92T105 108Q133 108 148 93T164 50Q164 21 149 5T105 -11Q77 -11 61 5Z" />
<glyph unicode="/" glyph-name="slash" horiz-adv-x="351" d="M72 -169T49 -163T26 -152L278 730Q280 734 303 728T325 716L74 -165Q72 -169 49 -163Z" />
<glyph unicode="0" glyph-name="zero" horiz-adv-x="477" d="M178 -13T130 14T54 88T26 195Q26 254 53 300T129 373T240 399Q302 399 350 373T424 299T451 193Q451 134 424 87T349 14T240 -13Q178 -13 130 14ZM296 8T319 53T343 179Q343 280 312 329T232 378Q185
378 159 332T133 206Q133 117 165 63T250 8Q296 8 319 53Z" />
<glyph unicode="1" glyph-name="one" horiz-adv-x="332" d="M38 0T38 6T41 12Q80 12 98 17T124 36T131 81V257Q131 289 125 302T101 316Q85 316 37 297H36Q33 297 31 302T33 309L215 395Q216 396 218 396Q221 396 223 394T225 388V81Q225 50 231 36T255 17T312
12Q315 12 315 6T312 0Q276 0 256 1L177 2L98 1Q77 0 41 0Q38 0 38 6Z" />
<glyph unicode="2" glyph-name="two" horiz-adv-x="402" d="M124 107T164 147T220 217T237 276Q237 313 218 340T164 368Q127 368 104 336T56 235Q56 234 52 234Q43 234 44 237L88 408Q88 410 92 410Q95 410 97 409T99 406Q98 401 98 394Q98 377 113 377Q122 377
143 384Q186 399 222 399Q277 399 308 373T339 304Q339 252 299 210T187 117L147 87Q144 84 145 82T152 80Q232 80 272 83T336 96T367 130Q368 133 373 133T379 130L358 11Q358 7 356 4T349 0H43Q39 0 37 6T34 18Q34 24 37 27Q124 107 164 147Z" />
<glyph unicode="3" glyph-name="three" horiz-adv-x="394" d="M292 120T327 80T363 -12Q363 -59 330 -108T227 -200T54 -275Q50 -276 48 -271T49 -264Q158 -220 206 -155T254 -25Q254 34 224 69T143 105Q123 105 102 99Q99 98 97 104T98 111Q168 129 200 165T232
268Q232 318 217 344T173 371Q131 371 97 342T40 258Q40 257 36 257Q27 257 28 261L65 407Q67 409 69 409Q72 409 75 408T77 405Q75 397 75 394Q75 377 92 377Q104 377 126 385Q150 392 167 395T206 399Q266 399 299 366T333 285Q333 237 304 195T222 131Q292 120
327 80Z" />
<glyph unicode="4" glyph-name="four" horiz-adv-x="456" d="M423 48T423 32Q423 21 422 11T418 1L352 4V-135Q352 -145 344 -149L265 -188Q259 -190 259 -190Q256 -190 256 -182V7Q196 8 34 8Q29 8 26 12T27 20L337 396Q339 398 343 398Q346 398 349 397T352
392V46Q372 46 420 48Q423 48 423 32ZM210 42T256 43V245L89 49Q83 42 94 42Q210 42 256 43Z" />
<glyph unicode="5" glyph-name="five" horiz-adv-x="409" d="M229 194T294 145T360 9Q360 -48 330 -94T237 -184T68 -275H67Q63 -275 61 -271T62 -264Q170 -203 213 -141T257 -8Q257 75 208 121T68 167Q63 167 60 170T58 179L90 357Q91 364 93 365T103 368Q229
383 272 389T327 401T345 423Q346 426 351 426T356 421L336 310Q333 299 327 296T308 292L118 288Q105 288 103 274L89 196Q229 194 294 145Z" />
<glyph unicode="6" glyph-name="six" horiz-adv-x="465" d="M374 288T407 250T440 159Q440 112 412 73T336 10T230 -13Q141 -13 89 45T37 207Q37 301 81 391T207 553T400 661Q404 662 406 657T405 650Q319 607 259 538T169 386T139 221Q139 163 153 115T195 39T257
11Q294 11 316 42T338 130Q338 183 317 214T255 246Q237 246 221 240T184 218Q183 217 181 217Q178 217 175 220T173 225Q231 288 309 288Q374 288 407 250Z" />
<glyph unicode="7" glyph-name="seven" horiz-adv-x="429" d="M170 -230T156 -236L74 -275H73Q70 -275 68 -273T67 -268L327 291Q331 298 323 298Q181 298 126 294T53 277T25 230Q23 228 20 228Q17 228 15 229T13 233L58 413Q59 415 65 415T70 412Q69 408 69 402Q69
392 78 389T117 386H382Q386 386 389 382T391 373L177 -212Q170 -230 156 -236Z" />
<glyph unicode="8" glyph-name="eight" horiz-adv-x="489" d="M362 316T390 295T441 241T463 164Q463 113 433 73T352 10T241 -13Q181 -13 135 9T63 70T37 153Q37 206 72 254T168 331Q135 356 117 384T98 448Q98 491 122 519T182 560T257 574Q302 574 336 559T389
519T407 470Q407 439 380 406T306 352Q362 316 390 295ZM222 553T207 535T192 488Q192 450 217 422T290 361Q306 387 314 409T322 455Q322 497 300 525T247 553Q222 553 207 535ZM313 9T340 43T367 124Q367 161 349 190T303 240T231 289L189 316Q166 291 153 256T140
180Q140 135 156 96T202 33T268 9Q313 9 340 43Z" />
<glyph unicode="9" glyph-name="nine" horiz-adv-x="465" d="M117 98T86 120T40 175T26 243Q26 312 78 355T214 399Q313 399 370 338T428 172Q428 82 385 -8T259 -169T65 -275Q62 -276 60 -271T61 -264Q146 -225 206 -156T296 -5T326 154Q326 205 314 256T273
343T200 378Q127 378 127 268Q127 208 148 173T211 137Q229 137 245 144T282 168Q283 169 285 169Q288 169 290 166T292 161Q269 130 236 114T164 98Q117 98 86 120Z" />
<glyph unicode=":" glyph-name="colon" horiz-adv-x="207" d="M77 -11T61 5T44 50Q44 76 60 92T105 108Q133 108 148 93T164 50Q164 21 149 5T105 -11Q77 -11 61 5ZM77 270T61 286T44 331Q44 357 60 373T105 389Q133 389 148 374T164 331Q164 302 149 286T105
270Q77 270 61 286Z" />
<glyph unicode=";" glyph-name="semicolon" horiz-adv-x="232" d="M145 106T164 79T184 2Q184 -43 164 -81T104 -159Q103 -160 101 -160Q98 -160 96 -157T96 -152Q145 -102 145 -34Q145 -6 135 7Q126 -8 98 -8Q74 -8 60 7T45 48Q45 75 62 90T110 106Q145 106 164
79ZM79 270T63 286T46 331Q46 357 62 373T107 389Q135 389 150 374T166 331Q166 302 151 286T107 270Q79 270 63 286Z" />
<glyph unicode="&lt;" glyph-name="less" horiz-adv-x="407" d="M377 71T377 46Q377 22 370 25L36 173Q31 176 31 190Q31 205 36 207L370 354Q373 356 375 350T377 334Q377 310 370 306L98 190L370 74Q377 71 377 46Z" />
<glyph unicode="=" glyph-name="equal" horiz-adv-x="468" d="M32 236T31 244T29 261Q29 269 30 276T33 283H434Q436 283 437 276T439 260Q439 251 438 244T434 236H34Q32 236 31 244ZM32 96T31 104T29 121Q29 129 30 136T33 143H434Q436 143 437 136T439 120Q439
111 438 104T434 96H34Q32 96 31 104Z" />
<glyph unicode="&gt;" glyph-name="greater" horiz-adv-x="407" d="M376 204T376 189Q376 175 371 172L37 25Q34 24 32 30T30 45Q30 54 32 63T37 73L309 189L37 305Q34 307 32 315T30 333Q30 343 32 349T37 354L371 206Q376 204 376 189Z" />
<glyph unicode="?" glyph-name="question" horiz-adv-x="339" d="M151 606T145 595T137 565Q135 537 124 517T80 496Q54 496 42 510T30 543Q30 578 68 601T165 625Q230 625 274 594T319 506Q319 468 300 444T244 389L222 371Q191 344 177 315T163 248Q163 233
168 195Q170 192 162 190T152 191Q140 218 133 253T126 312Q126 342 135 361T164 405Q185 431 196 455T208 519Q208 557 197 581T165 606Q151 606 145 595ZM125 -11T109 5T92 50Q92 76 108 92T153 108Q181 108 196 93T212 50Q212 21 197 5T153 -11Q125 -11 109
5Z" />
<glyph unicode="@" glyph-name="at" horiz-adv-x="729" d="M402 56T402 115Q402 131 406 147L408 154Q374 108 336 81T263 54Q238 54 222 70T205 121Q205 127 207 143Q215 197 249 247T330 328T418 360Q433 360 446 354T468 336Q496 347 502 367Q504 369 508 369Q512
369 515 368T519 366L478 142Q476 134 476 119Q476 82 513 82Q537 82 562 99T604 152T621 236Q621 303 589 359T500 447T372 480Q296 480 241 443T156 341T126 201Q126 119 160 58T256 -37T401 -71Q448 -71 487 -60T568 -20H569Q572 -20 574 -23T574 -28Q522 -72
471 -89T365 -106Q281 -106 213 -73T104 24T64 175Q64 270 111 345T238 461T407 503Q487 503 548 471T642 385T676 268Q676 210 648 162T572 85T467 56Q402 56 402 115ZM332 118T356 141T402 202T430 275Q432 289 432 295Q432 314 426 325T407 337Q372 337 340
294T296 194Q291 172 291 155Q291 139 296 129T313 118Q332 118 356 141Z" />
<glyph unicode="A" glyph-name="A" horiz-adv-x="654" d="M663 12T663 6T660 0Q642 0 604 2Q562 4 537 4Q511 4 473 2Q437 0 420 0Q416 0 416 6T420 12Q450 12 463 18T476 42Q476 57 464 84L376 295H218L150 129Q134 91 134 68Q134 39 157 26T228 12Q232 12 232
6Q232 0 227 0Q214 0 170 2Q120 4 94 4Q70 4 38 2Q10 0 -8 0Q-12 0 -12 6T-8 12Q22 12 57 44T119 136L330 634Q330 637 337 637Q346 637 350 633L574 84Q589 49 596 37T618 19T660 12Q663 12 663 6ZM230 323H365L297 486L230 323Z" />
<glyph unicode="B" glyph-name="B" horiz-adv-x="604" d="M454 340T505 295T556 181Q556 129 525 87T440 21T319 -4Q291 -4 255 -1Q241 0 221 1T175 2L103 1Q84 0 50 0Q48 0 48 6T50 12Q79 12 93 17T114 37T120 81V544Q120 573 115 587T95 607T51 613Q49 613 49
619T51 625L104 624Q148 622 175 622Q203 622 233 625Q243 626 263 627T298 628Q392 628 443 595T495 499Q495 451 463 412T369 350Q454 340 505 295ZM254 608T243 594T232 542V352L273 351Q327 351 356 390T386 490Q386 547 360 577T283 608Q254 608 243 594ZM373
18T406 53T439 157Q439 234 401 279T284 324Q255 324 232 322V81Q232 46 245 32T302 18Q373 18 406 53Z" />
<glyph unicode="C" glyph-name="C" horiz-adv-x="635" d="M264 -12T185 36T71 157T36 313Q36 412 84 485T213 597T388 636Q434 636 484 628T565 607Q573 602 575 598T578 584L585 450Q585 447 581 447T574 450Q537 526 480 567T349 609Q254 609 204 540T153 346Q153
256 184 178T270 54T389 8Q492 8 581 160Q583 163 586 163Q592 163 592 157L586 42Q584 29 582 26T571 19Q483 -12 387 -12Q264 -12 185 36Z" />
<glyph unicode="D" glyph-name="D" horiz-adv-x="688" d="M282 -4T247 -1Q233 0 213 1T168 2L94 1Q76 0 43 0Q41 0 41 6T43 12Q74 12 88 17T107 36T112 81V544Q110 574 105 588T85 607T43 613Q41 613 41 619T43 625L94 624Q138 622 166 622Q199 622 232 625Q274
627 294 627Q399 627 480 589T606 481T651 323Q651 227 604 153T478 37T310 -4Q282 -4 247 -1ZM371 16T423 49T503 147T532 301Q532 378 507 447T428 562T289 607Q249 607 235 593T221 542V92Q222 51 238 34T301 16Q371 16 423 49Z" />
<glyph unicode="E" glyph-name="E" horiz-adv-x="572" d="M524 161T527 161Q530 161 533 160T535 157Q525 92 525 15Q525 7 522 4T510 0H54Q50 0 50 6T53 12Q83 12 96 17T114 36T119 81V544Q119 574 114 588T95 607T53 613Q50 613 50 619T51 625H482Q490 625 490
616L492 484Q492 481 487 481T480 483Q463 539 419 571T313 604H294Q263 604 250 600T232 583T227 543V339H352Q403 339 427 357T451 415Q451 419 458 419Q465 419 465 414L464 359Q463 347 463 325Q463 293 464 277L465 223Q465 218 459 218Q456 218 454 219T451
223Q451 266 425 288T350 311H227V85Q227 45 239 33T292 21H320Q385 21 439 58T522 159Q524 161 527 161Z" />
<glyph unicode="F" glyph-name="F" horiz-adv-x="523" d="M488 558T488 484Q488 481 483 481T475 483Q460 539 416 571T310 604H290Q258 604 245 600T228 583T223 543V327H325Q375 327 398 345T423 404Q423 408 429 408T436 404L435 312Q435 280 436 264L437 211Q437
207 432 207Q430 207 428 208T425 212Q425 254 398 276T323 299H223V85Q223 54 232 39T263 18T331 12Q335 12 335 6T331 0Q308 0 292 1L168 2L99 1Q80 0 48 0Q45 0 45 6T48 12Q79 12 92 17T110 36T115 81V544Q115 574 110 588T91 607T48 613Q45 613 45 619T48 625H478Q482
625 483 623T485 616Q488 558 488 484Z" />
<glyph unicode="G" glyph-name="G" horiz-adv-x="684" d="M285 -12T204 31T79 149T36 319Q36 410 84 482T215 595T400 636Q447 636 496 628T573 607Q581 603 583 599T586 584L594 453Q594 449 589 448T582 450Q547 526 490 568T358 611Q261 611 207 543T153 356Q153
253 189 174T287 52T429 9Q465 9 484 19T510 54T518 126Q518 175 509 197T476 226T399 233Q393 233 393 241Q393 244 394 246T398 249Q481 244 536 244Q588 244 644 247Q648 247 649 240T646 233Q630 234 626 225T622 184V116Q622 71 625 53T628 28Q628 22 627
20T619 16Q491 -12 396 -12Q285 -12 204 31Z" />
<glyph unicode="H" glyph-name="H" horiz-adv-x="731" d="M690 12T690 6T688 0Q660 0 642 1L567 2L495 1Q476 0 443 0Q441 0 441 6T443 12Q474 12 487 17T505 36T509 81V311H221V81Q221 51 226 37T246 18T290 12Q293 12 293 6T290 0Q257 0 239 1L165 2L96 1Q77
0 46 0Q43 0 43 6T46 12Q76 12 89 17T107 36T112 81V544Q113 586 100 599T46 613Q43 613 43 619T46 625L94 624Q138 622 165 622Q192 622 238 624L289 625Q291 625 291 619T289 613Q259 613 245 607T227 587T221 542V339H508V542Q508 585 496 599T442 613Q440 613
440 619T442 625L491 624Q535 622 563 622Q590 622 634 624L685 625Q688 625 688 619T685 613Q655 613 642 608T623 588T616 544V81Q616 52 622 38T644 18T688 12Q690 12 690 6Z" />
<glyph unicode="I" glyph-name="I" horiz-adv-x="358" d="M54 0T54 6T56 12Q87 12 100 17T119 36T124 81V544Q124 573 119 587T99 607T56 613Q54 613 54 619T56 625L106 624Q150 622 177 622Q207 622 253 624L302 625Q304 625 304 619T302 613Q272 613 258 607T240
587T234 542V81Q234 51 239 37T259 18T302 12Q304 12 304 6T302 0Q271 0 252 1L179 2L108 1Q89 0 56 0Q54 0 54 6Z" />
<glyph unicode="J" glyph-name="J" horiz-adv-x="337" d="M38 -194T36 -189T35 -182Q79 -155 98 -101T115 40V544Q115 573 110 587T90 607T47 613Q44 613 44 619T47 625L99 624Q141 622 167 622Q201 622 245 624L292 625Q295 625 295 619T292 613Q263 613 249
607T231 587T225 542V67Q225 -11 207 -59T149 -138T42 -193Q38 -194 36 -189Z" />
<glyph unicode="K" glyph-name="K" horiz-adv-x="675" d="M680 12T680 6T677 0H575Q516 0 502 6T455 64T389 160L260 335L221 296V81Q221 47 224 35T240 17T288 12Q290 12 290 6T288 0Q255 0 238 1L163 2L94 1Q75 0 43 0Q41 0 41 6T43 12Q74 12 88 17T107 36T112
81V544Q112 574 107 588T88 607T46 613Q43 613 43 619T46 625L94 624Q138 622 165 622Q192 622 238 624L289 625Q291 625 291 619T289 613Q259 613 245 607T227 587T221 542V327L413 524Q439 550 439 574Q439 592 425 602T387 613Q383 613 383 619T386 625L441
624Q497 622 529 622Q563 622 599 624L637 625Q640 625 640 619T637 613Q593 613 540 588T442 518L330 406L470 216Q546 115 577 77T629 25T677 12Q680 12 680 6Z" />
<glyph unicode="L" glyph-name="L" horiz-adv-x="544" d="M42 0T42 6T44 12Q75 12 89 17T107 36T112 81V544Q112 574 107 588T88 607T46 613Q43 613 43 619T46 625L94 624Q138 622 165 622Q192 622 238 624L289 625Q291 625 291 619T289 613Q258 613 245 608T227
588T221 543V85Q221 46 232 34T274 21H302Q383 21 437 57T525 171Q527 173 530 173Q533 173 536 172T539 168Q531 86 531 15Q531 0 516 0H44Q42 0 42 6Z" />
<glyph unicode="M" glyph-name="M" horiz-adv-x="804" d="M783 12T783 6T780 0Q750 0 732 1L658 2L587 1Q569 0 536 0Q533 0 533 6T536 12Q567 12 581 17T601 36T604 81L590 558L398 7Q396 3 391 3Q385 3 382 8L160 533L158 130Q156 75 177 44T237 12Q240 12 240
6T237 0Q212 0 197 1L138 2L86 1Q71 0 43 0Q41 0 41 6T43 12Q81 12 103 43T126 127L131 580Q100 613 47 613Q44 613 44 619T47 625Q62 625 72 624L115 623L181 624Q192 625 208 625Q221 625 229 615T251 573L427 162L578 600Q581 611 590 618T613 625Q629 625 640
624L685 623L730 624Q740 625 759 625Q762 625 762 619T760 613Q728 613 713 603T697 563Q697 552 698 546L712 81Q714 51 719 37T738 17T780 12Q783 12 783 6Z" />
<glyph unicode="N" glyph-name="N" horiz-adv-x="709" d="M697 625T697 619T694 613Q653 613 628 585T601 509L600 -7Q601 -10 596 -12T583 -15Q573 -15 570 -9L151 517L150 116Q149 68 174 40T241 12Q245 12 245 6T241 0Q213 0 198 1L135 2L75 1Q58 0 27 0Q23
0 23 6T27 12Q69 12 93 40T119 116L120 555Q91 587 69 600T22 613Q20 613 20 619T22 625L76 624Q92 623 119 623Q146 623 164 624T189 625Q197 625 201 621T212 606Q224 588 236 573L569 157L571 509Q572 557 548 585T480 613Q476 613 476 619T480 625L519 624Q559
622 586 622Q607 622 645 624L694 625Q697 625 697 619Z" />
<glyph unicode="O" glyph-name="O" horiz-adv-x="735" d="M261 -12T188 31T76 147T36 311Q36 403 79 477T199 593T372 636Q469 636 543 595T657 481T698 319Q698 220 652 145T527 29T356 -12Q261 -12 188 31ZM453 14T494 44T559 129T582 260Q582 352 551 433T464
563T336 612Q281 612 239 582T174 497T151 366Q151 276 182 195T269 64T398 14Q453 14 494 44Z" />
<glyph unicode="P" glyph-name="P" horiz-adv-x="574" d="M43 0T43 6T46 12Q77 12 91 17T110 36T115 81V544Q115 574 110 588T90 607T46 613Q43 613 43 619T46 625L95 624Q137 622 165 622Q204 622 252 626Q286 628 297 628Q403 628 469 585T536 461Q536 395 500
350T410 284T302 262Q272 262 255 267Q253 267 253 274Q253 279 254 283T258 287Q271 283 290 283Q346 283 382 322T419 441Q419 492 399 529T348 587T281 607Q246 607 235 595T222 542L223 81Q223 51 228 37T247 18T290 12Q293 12 293 6T290 0Q258 0 240 1L168
2L97 1Q78 0 46 0Q43 0 43 6Z" />
<glyph unicode="Q" glyph-name="Q" horiz-adv-x="735" d="M811 -173T814 -178T814 -185Q772 -200 743 -200Q670 -200 592 -149T445 -2Q397 -12 356 -12Q261 -12 188 31T76 147T36 311Q36 403 79 477T199 593T372 636Q469 636 543 595T657 481T698 319Q698 222
654 149T535 33Q569 -26 615 -74T706 -150T778 -178Q796 -178 808 -174Q811 -173 814 -178ZM151 276T182 195T269 64T398 14Q453 14 494 44T559 129T582 260Q582 352 551 433T464 563T336 612Q281 612 239 582T174 497T151 366Q151 276 182 195Z" />
<glyph unicode="R" glyph-name="R" horiz-adv-x="687" d="M704 12T704 6T701 0H537Q513 0 454 80T310 323Q282 316 248 316Q243 316 235 318V81Q234 52 239 38T259 18T304 12Q308 12 308 6T305 0Q271 0 253 1L179 2L104 1Q84 0 50 0Q46 0 46 6T49 12Q82 12 98
17T119 37T126 81V544Q126 574 121 588T100 607T54 613Q50 613 50 619T54 625L107 624Q151 622 179 622Q213 622 253 626Q285 628 295 628Q396 628 446 595T497 503Q497 460 469 420T393 353Q471 224 525 151T621 45T701 12Q704 12 704 6ZM247 343T264 343Q330
343 357 372T385 469Q385 540 358 573T290 607Q263 607 253 604T240 588T235 542V346Q247 343 264 343Z" />
<glyph unicode="S" glyph-name="S" horiz-adv-x="505" d="M168 494T187 465T233 415T308 363Q359 330 388 306T439 249T460 172Q460 87 401 38T247 -12Q202 -12 151 0T83 28Q78 31 77 34T74 47L70 206Q69 210 74 211T82 208Q110 150 134 111T194 42T273 13Q361
13 361 109Q361 155 341 190T291 248T212 304Q167 333 140 354T95 406T76 474Q76 528 106 564T185 618T287 636Q322 636 360 630T420 614Q429 609 432 605T435 594V447Q435 444 430 443T423 444Q420 450 402 495T346 577T260 614Q220 614 194 591T168 530Q168 494
187 465Z" />
<glyph unicode="T" glyph-name="T" horiz-adv-x="596" d="M151 0T151 6T153 12Q195 12 214 17T241 36T248 81V544Q249 579 239 590T201 602H188Q154 602 121 581T65 524T37 446Q37 444 32 444Q29 444 27 445T25 448Q30 486 40 647Q40 650 45 650Q48 650 50 649T53
646Q53 625 98 625Q179 622 301 622Q356 622 424 624L494 625Q527 625 542 630T561 650Q563 653 568 653T573 648Q570 604 567 538T565 448Q565 445 559 445Q551 445 551 449Q551 490 533 525T482 581T411 602H398Q378 602 370 597T359 581T356 542L357 81Q357
50 363 36T389 17T451 12Q454 12 454 6T451 0Q414 0 393 1L302 2L216 1Q194 0 154 0Q151 0 151 6Z" />
<glyph unicode="U" glyph-name="U" horiz-adv-x="775" d="M738 12T738 6T735 0L637 1L561 0Q550 0 548 3T545 19V63Q497 23 449 6T343 -12Q272 -12 216 12T128 81T96 186V544Q96 573 91 587T71 607T29 613Q26 613 26 619T29 625L78 624Q120 622 149 622Q175 622
221 624L271 625Q275 625 275 619T273 613Q243 613 229 607T210 587T204 542V221Q203 128 250 77T381 25Q424 25 463 40T545 92L544 542Q545 585 532 599T478 613Q475 613 475 619T477 625L527 624Q571 622 599 622Q624 622 670 624L720 625Q724 625 724 619T722
613Q692 613 678 608T658 588T653 544V81Q653 51 659 37T682 17T735 12Q738 12 738 6Z" />
<glyph unicode="V" glyph-name="V" horiz-adv-x="647" d="M660 625T660 619T655 613Q618 613 591 592T539 506L349 1Q346 -4 334 -4Q329 -4 324 -3T318 1L69 542Q51 582 34 597T-11 613Q-14 613 -14 619T-12 625L41 624Q77 622 94 622Q132 622 180 624L229 625Q234
625 234 619T229 613Q173 613 173 582Q173 571 181 552L369 139L504 509Q512 531 512 547Q512 578 489 595T428 613Q424 613 424 619T428 625L479 624Q523 622 559 622Q579 622 609 624L655 625Q660 625 660 619Z" />
<glyph unicode="W" glyph-name="W" horiz-adv-x="904" d="M917 625T917 619T912 613Q875 613 848 592T796 506L606 1Q603 -4 592 -4Q578 -4 575 1L450 272L349 1Q346 -4 334 -4Q329 -4 324 -3T318 1L69 542Q51 582 34 597T-11 613Q-14 613 -14 619T-12 625L41
624Q77 622 94 622Q125 622 163 624L204 625Q208 625 208 619T204 613Q169 613 169 584Q169 569 177 552L368 135L433 310L326 542Q308 583 295 598T260 613Q257 613 257 619T258 625Q273 625 305 623L351 622Q376 622 404 624L435 625Q440 625 440 619T435 613Q425
613 421 611T417 602Q417 589 434 552L492 425L523 509Q539 554 539 575Q539 613 498 613Q496 613 496 619T498 625L529 624Q555 622 578 622Q596 622 620 624L657 625Q661 625 661 619T658 613Q637 613 622 606T592 575T559 506L512 382L625 135L761 509Q769 531
769 550Q769 578 753 595T706 613Q704 613 704 619T706 625L750 624Q786 622 816 622Q836 622 866 624L912 625Q917 625 917 619Z" />
<glyph unicode="X" glyph-name="X" horiz-adv-x="627" d="M625 12T625 6T621 0Q593 0 577 1L518 2L430 1Q408 0 374 0Q369 0 369 6Q369 12 374 12Q391 12 406 18T421 37Q421 43 416 51L282 269L173 103Q152 70 152 51Q152 12 222 12Q226 12 226 6T222 0Q187 0
164 1L80 2L35 1Q21 0 -6 0Q-11 0 -11 6T-6 12Q29 12 69 39T147 123L265 298L115 542Q92 580 71 596T22 613Q19 613 19 619T22 625L63 624Q89 622 103 622Q137 622 191 624L243 625Q248 625 248 619T243 613Q229 613 220 607T210 590Q210 581 215 573L333 382L423
522Q444 553 444 574Q444 613 375 613Q371 613 371 619T374 625L432 624Q488 622 518 622Q532 622 562 624L602 625Q607 625 607 619T602 613Q568 613 529 586T449 502L350 353L517 83Q540 44 563 28T621 12Q625 12 625 6Z" />
<glyph unicode="Y" glyph-name="Y" horiz-adv-x="577" d="M583 625T583 619T578 613Q543 613 512 587T449 504L349 314V81Q349 50 354 36T376 17T428 12Q432 12 432 6T428 0Q393 0 374 1L295 2L212 1Q192 0 158 0Q154 0 154 6T158 12Q194 12 211 17T234 37T240
81L239 300L80 542Q56 579 35 596T-9 613Q-13 613 -13 619T-11 625L41 624Q79 622 97 622Q122 622 172 624L223 625Q226 625 226 621Q226 618 225 616T221 613Q195 613 184 609T172 596Q172 587 182 573L332 343L426 526Q435 546 435 562Q435 585 420 599T375 613Q371
613 371 619T374 625L428 624Q478 622 505 622Q522 622 544 624L578 625Q583 625 583 619Z" />
<glyph unicode="Z" glyph-name="Z" horiz-adv-x="601" d="M396 0T37 0Q33 0 32 4T32 13L432 600Q435 605 434 606T427 608Q305 608 241 597T138 557T65 465Q63 463 61 463Q58 463 55 465T53 469L97 655Q97 656 100 656Q104 656 108 655T111 651Q109 639 112 634T127
627T165 625H556Q560 625 562 620T563 612L168 27Q164 22 165 21T172 19H284Q396 19 459 48T563 154Q565 157 568 157Q570 157 572 156T575 152L561 8Q561 -2 552 -2Q396 0 37 0Z" />
<glyph unicode="[" glyph-name="bracketleft" horiz-adv-x="274" d="M67 715Q67 722 68 723T76 725H236Q239 725 239 719T236 713Q205 713 190 707T170 687T165 642V-34Q165 -64 170 -78T190 -99T236 -105Q239 -105 239 -111T236 -117H76Q70 -117 69 -115T67 -106V715Z" />
<glyph unicode="\" glyph-name="backslash" horiz-adv-x="351" d="M26 716Q25 721 48 727T73 730L325 -152Q326 -156 303 -162T277 -165L26 716Z" />
<glyph unicode="]" glyph-name="bracketright" horiz-adv-x="274" d="M207 -113T206 -115T198 -117H38Q35 -117 35 -111T38 -105Q69 -105 84 -99T104 -79T109 -34V642Q109 672 104 686T84 707T38 713Q35 713 35 719T38 725H198Q204 725 205 724T207 715V-106Q207
-113 206 -115Z" />
<glyph unicode="^" glyph-name="asciicircum" horiz-adv-x="392" d="M333 379Q333 377 329 375T324 375L196 509L68 375Q67 374 65 374Q62 374 60 376T58 380L185 629Q186 634 196 634Q206 634 207 629L333 380V379Z" />
<glyph unicode="_" glyph-name="underscore" horiz-adv-x="398" d="M32 -81T31 -73T29 -55Q29 -46 30 -39T33 -32H364Q366 -32 367 -40T369 -57Q369 -66 368 -73T364 -81H34Q32 -81 31 -73Z" />
<glyph unicode="`" glyph-name="grave" horiz-adv-x="166" d="M16 727Q13 734 37 734Q59 734 85 728T112 716L131 476Q132 474 128 473T123 475L16 727Z" />
<glyph unicode="a" glyph-name="a" horiz-adv-x="477" d="M474 78T476 78Q479 78 482 75T484 69Q456 30 430 11T377 -9Q341 -9 323 15T305 89V157Q278 77 229 32T125 -13Q84 -13 59 14T33 99Q33 165 69 235T161 352T277 399Q298 399 320 393T361 373Q380 388 389
407Q391 409 393 409Q396 409 399 407T402 404L400 89Q399 66 404 54T421 42Q431 42 445 51T473 77Q474 78 476 78ZM215 60T243 92T288 170T305 256Q305 300 285 325T229 350Q178 350 149 301T120 172Q121 113 138 87T182 60Q215 60 243 92Z" />
<glyph unicode="b" glyph-name="b" horiz-adv-x="485" d="M393 399T424 358T457 251Q457 170 417 110T318 19T204 -13Q139 -13 101 14T63 87L67 589Q68 621 61 635T36 650Q18 650 -8 637H-10Q-14 637 -16 642T-14 649L144 725H146Q150 725 154 722T158 717V233Q180
307 229 353T342 399Q393 399 424 358ZM272 15T299 39T341 110T356 220Q358 269 341 300T291 332Q252 332 222 303T175 222T158 103V96Q158 61 181 38T239 15Q272 15 299 39Z" />
<glyph unicode="c" glyph-name="c" horiz-adv-x="372" d="M149 -13T107 18T44 98T27 202Q28 255 58 300T136 372T234 399Q277 399 312 382T351 332Q353 311 341 299T302 287Q275 287 262 299T239 332Q229 351 219 361T191 371Q159 371 141 337T122 246Q122 154
159 95T269 36Q321 36 351 60H352Q355 60 358 57T360 50Q329 15 292 1T212 -13Q149 -13 107 18Z" />
<glyph unicode="d" glyph-name="d" horiz-adv-x="484" d="M491 79Q495 79 497 76T498 69Q468 28 444 10T388 -9Q352 -9 336 15T320 89L321 158Q291 78 249 33T151 -13Q103 -13 68 21T33 125Q33 195 69 258T161 360T277 399Q302 399 322 392L324 589Q325 621 318
635T294 650Q276 650 250 637H249Q245 637 243 642T243 649L401 725H403Q407 725 411 722T415 717L414 89Q413 63 419 53T436 42Q448 42 459 50T487 77L491 79ZM227 57T254 85T299 154T321 234L322 278Q316 312 289 331T225 350Q173 350 146 308T119 192Q119 57
192 57Q227 57 254 85Z" />
<glyph unicode="e" glyph-name="e" horiz-adv-x="381" d="M361 63Q364 63 367 60T368 55Q336 20 295 4T211 -12Q151 -12 109 15T46 86T25 180Q25 234 53 284T132 367T251 399Q296 399 321 385T350 345Q354 301 288 263T125 208Q129 131 165 82T265 32Q289 32 314
39T359 63H361ZM164 372T145 331T125 224Q246 252 242 324Q242 346 231 359T199 372Q164 372 145 331Z" />
<glyph unicode="f" glyph-name="f" horiz-adv-x="283" d="M296 726T326 710T356 669Q356 649 344 638T311 627Q282 627 270 639T248 674Q241 690 235 697T216 705Q185 705 173 655T160 499L161 439L163 380Q209 382 229 384Q255 386 265 386Q270 386 273 382T276
374Q275 364 266 351T246 339L225 342Q213 343 198 345T164 349L175 -21L176 -56Q176 -138 162 -186T118 -254T40 -275Q-8 -275 -35 -259T-62 -218Q-62 -199 -50 -189T-20 -178Q7 -178 18 -190T39 -225Q46 -241 51 -248T68 -255Q79 -255 82 -241T86 -183Q86 -139
83 -47L71 306Q70 332 66 342T49 356T5 359Q1 359 1 367T4 375Q39 375 53 384T68 418L67 457Q67 563 85 621T141 702T248 726Q296 726 326 710Z" />
<glyph unicode="g" glyph-name="g" horiz-adv-x="455" d="M391 409T394 409Q397 409 399 408T402 404L401 -33Q400 -151 344 -216T187 -281Q122 -281 82 -257T41 -193Q41 -174 54 -164T87 -154Q110 -154 121 -166T145 -204Q158 -232 172 -246T216 -261Q257 -261
280 -218T305 -56V157Q278 77 229 32T125 -13Q84 -13 59 14T33 99Q33 165 69 235T161 352T277 399Q298 399 320 393T361 373Q380 388 389 407Q391 409 394 409ZM215 60T243 92T288 170T305 256Q305 300 285 325T229 350Q178 350 149 301T120 172Q121 113 138 87T182
60Q215 60 243 92Z" />
<glyph unicode="h" glyph-name="h" horiz-adv-x="489" d="M486 79T488 79Q492 79 494 76T496 69Q465 28 441 10T385 -9Q350 -9 334 15T318 89L319 248Q319 342 273 342Q241 342 215 306T174 198T157 27V12Q157 3 142 -2T98 -8Q63 -8 61 0V23Q63 51 63 74L67 589Q68
621 61 636T36 651Q20 651 -8 637H-9Q-13 637 -15 642T-14 649L144 725H146Q150 725 154 722T158 717L157 222Q178 307 219 353T316 399Q413 399 413 267L411 89Q409 42 434 42Q453 42 485 78Q486 79 488 79Z" />
<glyph unicode="i" glyph-name="i" horiz-adv-x="260" d="M115 -9T99 15T84 89L88 297Q89 346 62 346Q40 346 7 306Q6 305 4 305Q1 305 -2 308T-4 315Q26 357 54 376T113 395Q181 395 181 309L177 89Q175 42 200 42Q210 42 220 50T250 77Q252 79 254 79Q258 79
260 76T262 69Q232 28 207 10T151 -9Q115 -9 99 15ZM95 495T79 511T63 556Q63 582 79 597T124 613Q152 613 167 598T182 556Q182 527 167 511T124 495Q95 495 79 511Z" />
<glyph unicode="j" glyph-name="j" horiz-adv-x="262" d="M13 -275T-17 -258T-47 -216Q-47 -198 -35 -188T-5 -178Q22 -178 33 -190T55 -225Q61 -241 66 -248T83 -255Q92 -255 95 -246T100 -213T102 -140V-47V297Q102 346 76 346Q54 346 21 306Q20 305 18 305Q15
305 12 308T11 315Q42 358 69 376T127 395Q162 395 178 374T195 309V-21Q196 -117 184 -171T142 -250T62 -275Q13 -275 -17 -258ZM99 495T83 511T67 556Q67 582 83 597T128 613Q156 613 171 598T186 556Q186 527 171 511T128 495Q99 495 83 511Z" />
<glyph unicode="k" glyph-name="k" horiz-adv-x="453" d="M476 77Q480 77 482 73T483 67Q453 28 429 10T382 -9Q353 -9 329 5T271 58L188 154Q177 166 171 171T157 177V12Q157 3 142 -2T98 -8Q63 -8 61 0V23Q63 51 63 74L67 589Q68 621 61 635T37 650Q19 650 -7
637H-9Q-13 637 -15 642T-14 649L144 725H146Q149 725 153 723T158 717L157 329Q191 362 232 380T318 399Q365 399 383 381T404 339Q405 302 365 267T250 204L340 102Q367 70 384 60T419 49Q443 49 474 76L476 77ZM211 356T185 315T157 205V197Q229 213 262 238T296
300Q296 326 286 341T255 356Q211 356 185 315Z" />
<glyph unicode="l" glyph-name="l" horiz-adv-x="260" d="M101 -9T85 15T70 89L73 589Q74 621 67 635T43 650Q25 650 -1 637H-3Q-8 637 -9 642T-7 649L150 725H152Q156 725 160 722T164 717L163 89Q161 42 186 42Q196 42 208 51T237 77Q239 79 241 79Q244 79 246
76T248 69Q218 28 193 10T137 -9Q101 -9 85 15Z" />
<glyph unicode="m" glyph-name="m" horiz-adv-x="743" d="M741 79T743 79Q746 79 748 76T750 69Q719 28 695 10T639 -9Q602 -9 587 15T572 89L573 248Q573 342 530 342Q503 342 479 309T440 208T422 45V12Q422 -8 365 -8Q331 -8 327 0L328 20Q330 50 330 74L331
250Q332 297 320 319T285 342Q258 342 234 308T195 208T178 54V12Q178 3 164 -2T120 -8Q85 -8 83 0V23Q85 51 85 74L87 297Q87 346 61 346Q39 346 6 306Q4 304 2 304Q-1 304 -3 307T-5 315Q25 357 53 376T112 395Q147 395 162 374T179 309V228Q199 310 238 354T331
399Q375 399 399 367T423 269V225Q443 309 482 354T574 399Q665 399 665 267L664 89Q663 42 688 42Q698 42 709 50T739 77Q741 79 743 79Z" />
<glyph unicode="n" glyph-name="n" horiz-adv-x="511" d="M510 79Q514 79 517 76T518 69Q488 28 463 10T407 -9Q371 -9 355 15T340 89L342 248Q342 342 294 342Q262 342 236 306T195 200T178 32V12Q178 3 164 -2T120 -8Q85 -8 83 0V23Q85 51 85 74L87 297Q87 346
61 346Q39 346 6 306Q5 305 3 305Q-1 305 -4 308T-5 315Q25 357 53 376T112 395Q147 395 162 374T179 309V217Q200 304 241 351T338 399Q434 399 434 267L433 89Q432 42 456 42Q467 42 478 51T506 77L510 79Z" />
<glyph unicode="o" glyph-name="o" horiz-adv-x="437" d="M150 -14T109 13T46 87T25 188Q25 250 51 298T123 372T228 399Q316 399 365 343T414 198Q414 131 385 83T309 11T208 -14Q150 -14 109 13ZM277 11T295 49T313 156Q313 214 298 264T255 345T196 375Q163
375 144 340T125 236Q125 176 141 125T183 42T241 11Q277 11 295 49Z" />
<glyph unicode="p" glyph-name="p" horiz-adv-x="441" d="M174 -1T146 1V-178Q146 -211 154 -223T185 -235Q191 -235 209 -233Q214 -232 215 -237T212 -244L11 -275Q7 -276 5 -270T7 -263Q27 -259 36 -253T47 -232T50 -185L53 294Q32 282 2 260Q1 259 -2 259Q-6
259 -8 263T-7 270Q27 299 53 316V386Q53 388 70 398Q98 415 115 430T135 464Q135 468 140 468Q146 468 146 462V367Q211 393 267 393Q335 393 371 354T408 242Q408 176 380 121T300 32T184 -1Q174 -1 146 1ZM171 344T146 337V44Q186 29 219 29Q273 29 294 67T316
180Q316 260 291 302T200 344Q171 344 146 337Z" />
<glyph unicode="q" glyph-name="q" horiz-adv-x="451" d="M479 -239Q483 -239 484 -244T481 -250L256 -275Q252 -276 251 -270T254 -263Q280 -260 290 -254T304 -233T308 -185V124Q282 59 237 23T140 -13Q93 -13 64 16T34 103Q34 182 67 250T157 358T280 399Q301
399 323 393T364 373Q381 387 392 407Q392 409 395 409Q399 409 402 408T405 404L401 -178Q401 -212 412 -226T454 -241Q460 -241 478 -239H479ZM249 60T278 111T308 232Q308 350 218 350Q171 350 144 301T117 188Q117 135 137 98T195 60Q249 60 278 111Z" />
<glyph unicode="r" glyph-name="r" horiz-adv-x="379" d="M360 328T344 309T309 289Q299 289 292 292T273 302Q266 306 260 309T247 312Q228 312 212 264T186 146T175 20V12Q175 -8 118 -8Q83 -8 81 0V23Q83 51 83 74L84 297Q84 346 58 346Q35 346 4 306Q2 304
0 304Q-4 304 -7 307T-7 315Q23 357 51 376T110 395Q145 395 160 374T177 309L176 202Q189 291 215 343T283 396Q308 396 334 381T360 345Q360 328 344 309Z" />
<glyph unicode="s" glyph-name="s" horiz-adv-x="336" d="M103 -11T65 10T25 61Q25 81 37 91T68 102Q86 102 99 93T129 64Q149 43 163 33T199 23Q218 23 225 31T233 59Q233 95 208 119T134 175Q100 197 81 212T49 247T35 293Q35 318 53 342T103 381T178 396Q231
396 264 380T298 336Q300 317 288 306T258 295Q234 295 222 304T196 332Q183 350 172 359T138 368Q120 368 112 359T104 337Q104 306 128 284T199 231Q251 198 277 172T303 108Q302 81 284 54T232 8T152 -11Q103 -11 65 10Z" />
<glyph unicode="t" glyph-name="t" horiz-adv-x="319" d="M317 81Q320 81 323 78T324 71Q281 27 246 8T173 -12Q65 -12 67 94L68 306Q69 338 59 348T18 359Q14 359 14 367T16 375Q106 375 139 463Q141 466 147 466Q152 466 156 464T161 460V378Q202 380 291 386Q296
386 299 382T302 374Q301 363 292 350T271 337Q208 347 161 349L160 111Q160 76 176 60T228 43Q272 43 316 81H317Z" />
<glyph unicode="u" glyph-name="u" horiz-adv-x="512" d="M507 81T509 81Q513 81 516 78T517 71Q486 28 459 10T400 -9Q365 -9 349 12T332 77V162Q311 78 271 33T174 -13Q126 -13 102 20T78 119L82 297Q83 344 58 344Q48 344 38 336T8 309Q6 307 5 307Q1 307 -2
310T-4 317Q27 358 51 376T106 395Q140 395 158 371T174 297L171 138Q170 44 218 44Q248 44 273 77T315 177T333 334V374Q333 383 348 388T392 394Q426 394 429 386V363Q427 335 427 312L426 89Q426 40 451 40Q473 40 506 80Q507 81 509 81Z" />
<glyph unicode="v" glyph-name="v" horiz-adv-x="476" d="M207 -13T175 5T124 55T104 122Q104 145 110 167T132 228Q148 268 152 282Q156 293 156 300Q156 305 153 307T143 310H89Q51 310 36 301T16 268Q16 264 9 264Q6 264 4 265T2 270Q11 318 20 341T46 376T96
387H198Q208 387 209 385T208 375Q195 328 187 276T178 189Q178 133 208 99T281 64Q328 64 361 101T394 198Q394 231 382 250T339 296Q322 311 312 325T301 358Q301 377 314 386T349 396Q396 396 415 357T434 256Q434 177 407 116T336 21T242 -13Q207 -13 175 5Z"
/>
<glyph unicode="w" glyph-name="w" horiz-adv-x="680" d="M595 396T613 353T632 248Q632 171 608 112T544 20T458 -13Q397 -13 356 46Q305 -13 239 -13Q181 -13 145 22T109 116Q109 189 152 282Q157 295 157 300Q157 310 143 310H89Q51 310 36 301T16 268Q16 264
9 264Q6 264 4 265T2 270Q11 318 20 341T46 376T96 387H198Q208 387 209 385T208 375Q178 264 178 195Q178 156 192 126T228 80T276 64Q306 64 334 87Q303 157 303 257Q303 328 319 360T371 392Q402 392 417 367T432 284Q432 186 395 109Q440 64 492 64Q538 64
564 97T591 189Q591 224 579 246T536 296Q518 311 508 326T497 358Q497 377 511 386T549 396Q595 396 613 353ZM327 303T327 262Q327 235 339 201T372 136Q386 163 394 192T402 247Q402 303 359 303Q327 303 327 262Z" />
<glyph unicode="x" glyph-name="x" horiz-adv-x="462" d="M452 75T454 75Q458 75 461 72T461 65Q428 26 400 8T342 -11Q313 -11 294 4T251 60L207 140L168 62Q145 16 131 3T94 -11Q65 -11 39 9T11 55Q9 70 21 81T53 92Q68 92 78 88T99 75Q101 74 110 69T130 63Q142
63 152 83L195 162L123 292Q108 320 94 329T62 338Q47 338 36 332T11 311Q10 310 8 310Q4 310 1 313T1 319Q34 358 62 376T120 395Q149 395 168 380T211 325L250 254L285 323Q301 355 311 369T332 389T359 395Q388 395 415 375T442 328Q442 314 431 303T401 292Q386
292 376 296T354 309Q345 316 339 319T325 322Q312 322 302 302L262 231L339 92Q354 64 368 56T400 47Q415 47 426 53T451 74Q452 75 454 75Z" />
<glyph unicode="y" glyph-name="y" horiz-adv-x="484" d="M411 394T420 393T430 388Q430 347 428 312L426 -70Q424 -165 370 -223T222 -281Q181 -281 148 -271T96 -244T80 -205Q80 -179 93 -167T125 -154Q148 -154 159 -165T183 -202Q196 -230 211 -245T262 -260Q295
-260 313 -224T331 -94L332 159Q310 76 270 32T174 -13Q126 -13 102 20T78 119L82 297Q83 344 58 344Q48 344 36 336T7 309Q5 307 3 307Q0 307 -2 310T-4 317Q27 358 51 376T106 395Q140 395 158 371T174 297L171 138Q170 44 218 44Q247 44 271 76T312 171T332
320L333 380Q333 386 346 390T382 394Q411 394 420 393Z" />
<glyph unicode="z" glyph-name="z" horiz-adv-x="372" d="M358 120T362 120Q365 120 368 119T370 116Q364 63 357 38T339 4T306 -5Q270 -5 196 8Q187 9 150 15T84 22Q67 22 55 16T29 -7Q29 -8 27 -8Q22 -8 17 -3T13 6L247 287Q227 288 160 299Q105 310 83 310Q41
310 36 275Q35 270 29 271T25 277Q33 333 40 356T60 387T101 394Q119 393 146 389T185 382Q247 370 288 367Q306 367 318 373T343 396Q343 397 345 397Q349 397 354 392T359 385L126 103Q159 102 232 90Q298 80 315 80Q333 80 343 89T358 118Q358 120 362 120Z"
/>
<glyph unicode="{" glyph-name="braceleft" horiz-adv-x="289" d="M29 298T29 304T32 311Q67 317 78 375T90 529Q90 615 103 655T148 710T250 725Q254 725 254 719T250 713Q224 713 210 686T195 607Q193 485 187 435T157 357T78 305Q134 281 157 252T186 172T195
1Q196 -50 210 -77T250 -105Q254 -105 254 -111T250 -117Q181 -117 148 -103T103 -47T90 80Q90 176 79 234T32 298Q29 298 29 304Z" />
<glyph unicode="|" glyph-name="bar" horiz-adv-x="168" d="M62 731Q62 738 86 738Q109 738 109 731V-154Q109 -158 102 -160T86 -162Q76 -162 69 -160T62 -154V731Z" />
<glyph unicode="}" glyph-name="braceright" horiz-adv-x="283" d="M216 292T205 234T193 80Q193 -6 181 -47T135 -102T33 -117Q29 -117 29 -111T33 -105Q59 -105 73 -78T88 1Q90 122 96 172T126 251T205 305Q149 328 126 356T97 435T88 607Q87 658 73 685T33
713Q29 713 29 719T33 725Q102 725 134 711T180 656T193 529Q193 434 204 376T251 311Q254 311 254 305T251 298Q216 292 205 234Z" />
<glyph unicode="~" glyph-name="asciitilde" horiz-adv-x="443" d="M342 212T357 222T389 250L391 251Q393 251 395 248T396 243Q357 181 333 160T280 139Q263 139 249 143T208 156Q162 175 129 175Q105 175 92 168T69 151T55 137H54Q52 137 50 139T48 144Q111
248 171 248Q184 248 200 243T232 232Q257 222 276 217T315 212Q342 212 357 222Z" />
<glyph unicode="&#xa0;" glyph-name="uni00A0" horiz-adv-x="234" />
<glyph unicode="&#xa1;" glyph-name="exclamdown" horiz-adv-x="263" d="M166 365T182 349T199 304Q199 278 183 262T138 246Q110 246 95 261T79 304Q79 333 94 349T138 365Q166 365 182 349ZM204 -268T181 -271T132 -275Q106 -275 83 -272T61 -261Q83 -185 93
-95T115 133Q115 143 117 165Q117 170 134 170Q151 170 151 165Q160 17 170 -80T202 -261Q204 -268 181 -271Z" />
<glyph unicode="&#xa2;" glyph-name="cent" horiz-adv-x="530" d="M475 144T480 143T485 139L477 33Q476 25 474 22T463 15Q386 -12 303 -12H302V-102Q302 -109 288 -109Q273 -109 273 -102V-11Q188 -5 134 34T55 127T30 236Q30 299 61 352T148 438T273 478V561Q273
565 277 567T288 569Q294 569 298 567T302 561V480H308Q345 480 388 472T460 451Q467 448 469 445T471 434L476 331Q476 328 471 327T464 330Q427 394 389 425T302 458V10Q307 9 318 9Q369 9 404 40T474 140Q475 144 480 143ZM149 168T180 102T273 15V456Q213 447
181 392T149 251Q149 168 180 102Z" />
<glyph unicode="&#xa3;" glyph-name="sterling" horiz-adv-x="432" d="M368 131T372 131Q375 131 377 130T380 127Q371 75 371 15Q371 7 368 4T356 0H13Q10 0 10 5T13 12Q64 24 82 48T101 108Q101 162 84 215H43Q40 215 38 219T36 230Q36 235 38 239T43 244H74Q65
270 61 288T57 327Q57 406 111 443T247 480Q293 480 336 467Q351 461 352 448L359 344Q359 340 354 340Q350 340 347 344Q313 405 289 432T226 460Q188 460 172 433T156 363Q156 335 162 310T181 244H274Q281 244 281 230Q281 215 274 215H189Q198 177 198 149Q198
112 186 89T153 48H251Q295 48 316 54T349 76T368 129Q368 131 372 131Z" />
<glyph unicode="&#xa4;" glyph-name="currency" horiz-adv-x="414" d="M329 32L280 87Q239 65 196 65Q157 65 128 82L83 32L50 64L95 110Q61 150 61 202Q61 252 95 288L46 338L83 373L135 317Q171 335 211 335Q250 335 283 316L335 370L366 338L317 289Q349 251
349 201Q349 153 318 117L367 68L329 32ZM242 89T258 113T274 180Q274 233 251 272T188 311Q163 311 148 289T133 223Q133 171 154 130T215 89Q242 89 258 113Z" />
<glyph unicode="&#xa5;" glyph-name="yen" horiz-adv-x="498" d="M500 468T500 462T497 456Q436 456 386 366L310 229V213H401Q405 213 407 209T409 200Q409 195 407 191T401 187H310V142H401Q405 142 407 138T409 129Q409 124 407 120T401 116H310V81Q310 50
315 36T335 17T384 12Q386 12 386 6T384 0Q351 0 332 1L257 2L186 1Q166 0 131 0Q128 0 128 6T131 12Q164 12 179 17T200 36T206 81V116H112Q109 116 107 120T105 129Q105 134 107 138T112 142H206V187H112Q109 187 107 191T105 200Q105 205 107 209T112 213H206V214L96
385Q72 423 51 439T6 456Q3 456 3 462T6 468L43 467L83 465Q113 465 177 467L240 468Q242 468 242 462T240 456Q191 456 191 431Q191 419 204 400L297 255L358 367Q373 394 373 415Q373 434 361 445T322 456Q319 456 319 462T322 468L370 467Q410 465 443 465Q455
465 473 467L497 468Q500 468 500 462Z" />
<glyph unicode="&#xa6;" glyph-name="brokenbar" horiz-adv-x="168" d="M62 731Q62 738 86 738Q109 738 109 731V360Q109 357 102 355T86 353Q77 353 70 355T62 360V731ZM62 216Q62 220 69 222T86 224Q95 224 102 222T109 216V-154Q109 -158 102 -160T86 -162Q76
-162 69 -160T62 -154V216Z" />
<glyph unicode="&#xa7;" glyph-name="section" horiz-adv-x="488" d="M398 -6T398 -58Q398 -121 348 -154T228 -188Q178 -188 142 -170Q131 -163 131 -153L123 -36Q123 -34 128 -34T135 -36Q137 -40 154 -75T201 -137T261 -165Q284 -165 298 -148T312 -98Q312
-63 298 -38T262 5T203 48Q163 74 139 94T99 146T82 219Q82 254 98 284T158 350Q117 391 117 442Q117 505 167 538T287 572Q338 572 373 553Q384 548 384 537L392 420Q392 417 387 417T380 420Q378 423 361 458T314 521T254 549Q230 549 216 532T202 482Q202 447
217 422T254 378T312 336Q352 309 376 289T416 238T433 165Q433 130 417 100T356 34Q398 -6 398 -58ZM158 222T176 189T220 134T288 85Q298 78 314 67T341 47Q357 73 357 116Q357 161 339 194T296 248T228 298Q195 319 173 337Q158 311 158 268Q158 222 176 189Z"
/>
<glyph unicode="&#xa8;" glyph-name="dieresis" horiz-adv-x="275" d="M26 464T11 478T-4 519Q-4 543 11 557T51 571Q76 571 90 557T104 519Q104 493 90 479T51 464Q26 464 11 478ZM200 464T186 478T172 519Q172 543 186 556T226 570Q250 570 263 557T277 519Q277
493 264 479T226 464Q200 464 186 478Z" />
<glyph unicode="&#xa9;" glyph-name="copyright" horiz-adv-x="727" d="M295 -106T223 -71T107 30T64 187Q64 278 113 350T242 462T412 503Q490 503 550 471T642 384T675 268Q675 209 641 157T547 72T411 39Q317 39 272 85T227 195Q227 247 252 285T318 343T404
364Q446 364 478 349T511 303Q511 261 468 261Q453 261 443 270T425 297Q413 319 402 329T371 340Q340 340 329 314T318 230Q318 159 354 113T464 67Q501 67 534 88T588 147T608 236Q608 303 578 359T495 447T377 480Q303 480 249 444T166 347T138 213Q138 127
172 63T270 -36T418 -71Q469 -71 512 -60T602 -20H603Q606 -20 608 -23T608 -28Q552 -72 497 -89T381 -106Q295 -106 223 -71Z" />
<glyph unicode="&#xaa;" glyph-name="ordfeminine" horiz-adv-x="292" d="M291 426Q294 426 297 424T299 420Q260 364 221 364Q177 364 177 426L176 453Q158 407 129 384T65 361Q39 361 23 381T7 443Q7 485 29 529T87 603T159 633Q189 633 211 617Q223 628 228
637Q229 639 233 638T237 635L235 426Q235 396 249 396Q265 396 290 426H291ZM126 406T147 440T175 515V525L177 526V540Q178 569 165 585T130 601Q97 601 80 571T61 490Q61 446 72 426T99 406Q126 406 147 440ZM272 313T272 297Q272 283 268 283H20Q18 283 17
288T15 299Q15 304 16 308T19 313H267Q272 313 272 297Z" />
<glyph unicode="&#xab;" glyph-name="guillemotleft" horiz-adv-x="475" d="M53 189Q49 193 49 201Q49 208 53 212L241 361Q241 362 243 362Q245 362 247 360T248 356L156 201L248 46Q249 44 246 41T241 40L53 189ZM223 189Q219 195 219 201Q219 206 223 212L412
361Q412 362 414 362Q416 362 418 360T419 356L326 201L419 46Q420 44 417 41T412 40L223 189Z" />
<glyph unicode="&#xac;" glyph-name="logicalnot" horiz-adv-x="395" d="M364 77Q364 75 356 74T339 72Q331 72 324 73T317 76V225H34Q32 225 31 233T29 250Q29 258 30 264T33 271H364V77Z" />
<glyph unicode="&#xad;" glyph-name="uni00AD" horiz-adv-x="323" d="M30 156T29 166T27 187Q27 210 30 211L291 257Q293 258 294 250T296 231Q296 221 295 213T291 204L32 157Q30 156 29 166Z" />
<glyph unicode="&#xae;" glyph-name="registered" horiz-adv-x="740" d="M484 725T550 690T652 592T688 451Q688 365 645 294T528 180T364 138Q287 138 218 173T107 272T64 419Q64 511 110 580T232 687T398 725Q484 725 550 690ZM510 164T565 234T621 418Q621
506 588 570T496 667T359 701Q280 701 228 668T151 579T126 456Q126 372 162 306T262 202T402 164Q510 164 565 234ZM563 281T563 278T561 274H463Q454 274 434 312T373 434Q349 432 336 432V330Q336 300 343 293T378 285Q380 285 380 280T378 274L305 275L234
274Q233 274 233 279T234 285Q249 285 255 288T263 300T265 330V545Q265 573 260 581T234 589Q233 589 233 595T234 601L305 600Q317 600 349 602Q377 604 387 604Q438 604 463 588T488 535Q488 506 473 485T432 451Q468 376 496 340T561 282Q563 281 563 278ZM382
444T398 458T415 515Q415 591 371 591Q356 591 349 589T339 576T336 543V447Q382 444 398 458Z" />
<glyph unicode="&#xaf;" glyph-name="overscore" horiz-adv-x="333" d="M50 473T47 479T44 493Q44 501 47 507T54 513H282Q287 513 290 507T293 493Q293 485 290 479T282 473H54Q50 473 47 479Z" />
<glyph unicode="&#xb0;" glyph-name="degree" horiz-adv-x="332" d="M106 373T68 410T29 503Q29 556 67 593T167 630Q228 630 265 593T303 501Q303 446 266 410T167 373Q106 373 68 410ZM207 387T217 413T227 494Q227 556 211 586T161 616Q129 616 118 588T106
506Q106 449 121 418T174 387Q207 387 217 413Z" />
<glyph unicode="&#xb1;" glyph-name="plusminus" horiz-adv-x="398" d="M32 228T31 236T29 254Q29 263 30 270T33 277H174V418Q174 422 199 422Q223 422 223 418V277H364Q366 277 367 270T369 253Q369 244 368 236T364 228H223V88Q223 86 215 85T197 83Q188 83
181 84T174 87V228H34Q32 228 31 236ZM366 44T367 38T369 23Q369 15 368 8T364 1H34Q32 1 31 8T29 24Q29 31 30 37T33 44H364Q366 44 367 38Z" />
<glyph unicode="&#xb2;" glyph-name="uni00B2" horiz-adv-x="253" d="M32 459T50 488T95 548Q119 575 129 594T140 644Q140 702 99 702Q77 702 61 688T37 651Q37 649 33 649Q30 649 28 650T26 654Q37 689 60 709T127 730Q171 730 193 710T215 656Q215 623 195
600T136 547Q105 524 88 507T63 468Q62 464 65 464Q127 464 157 467T200 478T213 504Q213 506 219 506T225 504L223 408Q223 404 219 404H23Q18 404 20 409Q32 459 50 488Z" />
<glyph unicode="&#xb3;" glyph-name="uni00B3" horiz-adv-x="251" d="M189 569T209 549T229 499Q229 475 216 452T178 413T116 398Q77 398 55 416T21 467Q20 470 26 471T33 469Q43 448 60 437T99 425Q122 425 137 441T153 495Q153 565 78 565Q76 565 75 566T73
570Q73 572 74 574T78 577Q108 577 124 595T140 644Q140 673 129 686T98 699Q76 699 60 685T39 651Q37 649 34 649Q31 649 29 650T27 654Q37 689 61 709T127 730Q170 730 193 709T216 656Q216 630 199 608T156 576Q189 569 209 549Z" />
<glyph unicode="&#xb4;" glyph-name="acute" horiz-adv-x="212" d="M68 471T66 471Q63 471 60 473T58 476L91 716Q92 722 118 727T169 732Q192 732 189 727L70 473Q68 471 66 471Z" />
<glyph unicode="&#xb6;" glyph-name="paragraph" horiz-adv-x="657" d="M309 -193T285 -178T260 -133Q260 -113 272 -101T310 -88Q338 -88 346 -101T358 -141Q360 -158 363 -166T378 -174Q398 -174 405 -136T413 8V125Q394 122 368 122Q288 122 217 148T100 233T54
386Q54 505 130 566T342 628Q372 628 406 625Q481 622 490 622Q510 622 548 624L600 625Q603 625 603 619T600 613Q557 613 534 592T511 532L512 55Q512 -74 475 -133T353 -193Q309 -193 285 -178Z" />
<glyph unicode="&#xb7;" glyph-name="middot" horiz-adv-x="195" d="M69 141T53 157T36 202Q36 228 52 244T97 260Q125 260 140 245T156 202Q156 173 141 157T97 141Q69 141 53 157Z" />
<glyph unicode="&#xb8;" glyph-name="cedilla" horiz-adv-x="196" d="M51 -275T25 -260T-2 -222Q-3 -205 7 -197T33 -188Q51 -188 60 -197T79 -225Q88 -242 94 -249T113 -256Q125 -256 130 -250T135 -232Q133 -215 116 -192T68 -138Q55 -125 55 -105Q55 -89 64
-60L83 0H99Q95 -12 95 -24Q95 -46 106 -61T144 -104Q169 -130 180 -149T191 -187Q192 -206 181 -226T147 -261T87 -275Q51 -275 25 -260Z" />
<glyph unicode="&#xb9;" glyph-name="uni00B9" horiz-adv-x="262" d="M35 404T35 409T37 415Q68 415 80 419T97 437T101 484V602Q101 643 97 658T79 673Q68 673 33 658H32Q28 658 26 663T27 669L163 729H165Q168 729 170 727T173 722V484Q173 450 176 437T192
419T233 415Q235 415 235 410T233 404Q207 404 192 405L138 406L80 405Q64 404 37 404Q35 404 35 409Z" />
<glyph unicode="&#xba;" glyph-name="ordmasculine" horiz-adv-x="284" d="M72 358T39 398T8 497Q8 555 45 592T139 630Q197 630 229 593T262 498Q262 454 244 423T195 375T130 358Q72 358 39 398ZM173 377T186 401T199 470Q199 528 176 570T120 612Q74 612 71
524Q71 463 93 420T149 377Q173 377 186 401ZM20 283T20 299Q20 313 23 313H267Q269 313 270 309T272 299Q272 293 271 288T267 283H25Q20 283 20 299Z" />
<glyph unicode="&#xbb;" glyph-name="guillemotright" horiz-adv-x="475" d="M251 212Q256 207 256 201Q256 194 251 189L63 40Q63 39 61 39Q59 39 57 41T56 46L149 200L56 356Q55 358 58 361T63 361L251 212ZM422 212Q427 207 427 201Q427 194 422 189L234 40Q234
39 232 39Q230 39 228 41T227 46L319 200L227 356Q226 358 229 361T234 361L422 212Z" />
<glyph unicode="&#xbc;" glyph-name="onequarter" horiz-adv-x="607" d="M35 309T35 314T37 320Q68 320 80 324T97 342T101 389V508Q101 549 97 564T79 579Q72 579 60 575T33 564H31Q28 564 26 568T27 574L163 634H165Q168 634 170 632T173 627V389Q173 355 176
342T192 324T233 320Q235 320 235 315T233 309Q207 309 192 310L138 311L80 310Q64 309 37 309Q35 309 35 314ZM188 -4T172 4T157 14L436 630Q438 634 454 627T469 616L189 -1Q188 -4 172 4ZM547 90V41Q547 27 549 22T559 14T586 11Q587 9 587 5T586 -1L516 0L428
-1Q427 -1 427 5T428 11Q451 11 461 13T474 21T478 41V92Q408 94 352 94Q348 94 346 98T347 105L513 320Q516 324 529 324Q536 324 541 323T547 319V113L586 115Q589 115 589 102Q589 88 586 88L547 90ZM478 110V239L382 112Q379 109 384 109L478 110Z" />
<glyph unicode="&#xbd;" glyph-name="onehalf" horiz-adv-x="612" d="M35 309T35 314T37 320Q68 320 80 324T97 342T101 389V508Q101 549 97 564T79 579Q72 579 60 575T33 564H31Q28 564 26 568T27 574L163 634H165Q168 634 170 632T173 627V389Q173 355 176 342T192
324T233 320Q235 320 235 315T233 309Q207 309 192 310L138 311L80 310Q64 309 37 309Q35 309 35 314ZM188 -4T172 4T157 14L436 630Q438 634 454 627T469 616L189 -1Q188 -4 172 4ZM391 55T408 84T454 145Q477 170 488 190T499 241Q499 298 458 298Q436 298 420
284T396 248Q396 245 392 245Q389 245 387 246T385 250Q396 285 419 305T486 326Q530 326 552 306T574 253Q574 220 554 197T495 144Q463 119 446 103T422 64Q421 61 424 61Q486 61 516 64T559 75T572 101Q572 103 578 103T584 101L582 5Q582 0 578 0H382Q378 0
379 6Q391 55 408 84Z" />
<glyph unicode="&#xbe;" glyph-name="threequarters" horiz-adv-x="596" d="M188 474T208 454T229 405Q229 381 217 358T178 319T116 303Q77 303 55 321T21 372Q20 376 26 377T33 374Q43 353 60 342T99 330Q122 330 137 346T153 400Q153 470 78 470Q76 470 75
471T73 475Q73 477 74 479T78 482Q108 482 124 500T140 550Q140 578 129 591T98 605Q77 605 60 590T39 557Q38 554 34 554Q31 554 29 555T27 559Q36 595 61 615T127 635Q170 635 193 614T216 561Q216 534 199 513T156 481Q188 474 208 454ZM177 -4T161 4T146 14L425
630Q427 634 443 627T458 616L178 -1Q177 -4 161 4ZM536 90V41Q536 27 538 22T548 14T575 11Q576 9 576 5T575 -1L505 0L417 -1Q416 -1 416 5T417 11Q440 11 450 13T463 21T467 41V92Q397 94 341 94Q337 94 335 98T336 105L502 320Q505 324 518 324Q525 324 530
323T536 319V113L575 115Q578 115 578 102Q578 88 575 88L536 90ZM467 110V239L371 112Q368 109 373 109L467 110Z" />
<glyph unicode="&#xbf;" glyph-name="questiondown" horiz-adv-x="327" d="M202 361T218 345T235 300Q235 274 219 258T174 242Q146 242 131 257T115 300Q115 329 130 345T174 361Q202 361 218 345ZM176 -256T182 -245T190 -215Q192 -187 203 -167T247 -146Q273
-146 285 -160T297 -193Q297 -228 259 -251T162 -275Q97 -275 53 -244T8 -156Q8 -118 27 -94T83 -39L105 -21Q136 6 150 35T164 102Q164 117 159 155Q158 158 166 160T175 159Q187 132 194 97T201 38Q201 8 192 -11T163 -55Q142 -81 131 -105T119 -169Q119 -207
130 -231T162 -256Q176 -256 182 -245Z" />
<glyph unicode="&#xc0;" glyph-name="Agrave" horiz-adv-x="654" d="M663 12T663 6T660 0Q642 0 604 2Q562 4 537 4Q511 4 473 2Q437 0 420 0Q416 0 416 6T420 12Q450 12 463 18T476 42Q476 57 464 84L376 295H218L150 129Q134 91 134 68Q134 39 157 26T228 12Q232
12 232 6Q232 0 227 0Q214 0 170 2Q120 4 94 4Q70 4 38 2Q10 0 -8 0Q-12 0 -12 6T-8 12Q22 12 57 44T119 136L330 634Q330 637 337 637Q346 637 350 633L574 84Q589 49 596 37T618 19T660 12Q663 12 663 6ZM230 323H365L297 486L230 323ZM382 713T341 725T235 756Q222
759 240 768T287 786T332 794Q337 794 341 792Q365 769 409 732L446 701Q448 700 448 697Q448 694 445 693T439 692Q382 713 341 725Z" />
<glyph unicode="&#xc1;" glyph-name="Aacute" horiz-adv-x="654" d="M663 12T663 6T660 0Q642 0 604 2Q562 4 537 4Q511 4 473 2Q437 0 420 0Q416 0 416 6T420 12Q450 12 463 18T476 42Q476 57 464 84L376 295H218L150 129Q134 91 134 68Q134 39 157 26T228 12Q232
12 232 6Q232 0 227 0Q214 0 170 2Q120 4 94 4Q70 4 38 2Q10 0 -8 0Q-12 0 -12 6T-8 12Q22 12 57 44T119 136L330 634Q330 637 337 637Q346 637 350 633L574 84Q589 49 596 37T618 19T660 12Q663 12 663 6ZM230 323H365L297 486L230 323ZM275 678Q271 678 269 682T270
689Q295 709 336 752Q377 793 377 793Q382 798 413 790T470 770T485 756Q378 728 277 679L275 678Z" />
<glyph unicode="&#xc2;" glyph-name="Acircumflex" horiz-adv-x="654" d="M663 12T663 6T660 0Q642 0 604 2Q562 4 537 4Q511 4 473 2Q437 0 420 0Q416 0 416 6T420 12Q450 12 463 18T476 42Q476 57 464 84L376 295H218L150 129Q134 91 134 68Q134 39 157 26T228
12Q232 12 232 6Q232 0 227 0Q214 0 170 2Q120 4 94 4Q70 4 38 2Q10 0 -8 0Q-12 0 -12 6T-8 12Q22 12 57 44T119 136L330 634Q330 637 337 637Q346 637 350 633L574 84Q589 49 596 37T618 19T660 12Q663 12 663 6ZM230 323H365L297 486L230 323ZM235 660Q232 660
230 662T229 667L324 782Q327 787 332 787Q337 787 342 782L446 667Q448 665 446 662T441 660L339 698L236 660H235Z" />
<glyph unicode="&#xc3;" glyph-name="Atilde" horiz-adv-x="654" d="M663 12T663 6T660 0Q642 0 604 2Q562 4 537 4Q511 4 473 2Q437 0 420 0Q416 0 416 6T420 12Q450 12 463 18T476 42Q476 57 464 84L376 295H218L150 129Q134 91 134 68Q134 39 157 26T228 12Q232
12 232 6Q232 0 227 0Q214 0 170 2Q120 4 94 4Q70 4 38 2Q10 0 -8 0Q-12 0 -12 6T-8 12Q22 12 57 44T119 136L330 634Q330 637 337 637Q346 637 350 633L574 84Q589 49 596 37T618 19T660 12Q663 12 663 6ZM230 323H365L297 486L230 323ZM214 685T212 685Q210 685
208 688T206 693Q242 774 291 774Q301 774 339 764Q358 758 378 754T415 749Q436 749 448 755T474 776H475Q478 776 480 774T482 769Q461 721 444 705T401 688Q385 688 343 700Q326 705 307 709T273 713Q248 713 239 708T214 686Q214 685 212 685Z" />
<glyph unicode="&#xc4;" glyph-name="Adieresis" horiz-adv-x="654" d="M663 12T663 6T660 0Q642 0 604 2Q562 4 537 4Q511 4 473 2Q437 0 420 0Q416 0 416 6T420 12Q450 12 463 18T476 42Q476 57 464 84L376 295H218L150 129Q134 91 134 68Q134 39 157 26T228
12Q232 12 232 6Q232 0 227 0Q214 0 170 2Q120 4 94 4Q70 4 38 2Q10 0 -8 0Q-12 0 -12 6T-8 12Q22 12 57 44T119 136L330 634Q330 637 337 637Q346 637 350 633L574 84Q589 49 596 37T618 19T660 12Q663 12 663 6ZM230 323H365L297 486L230 323ZM223 703T208 717T193
758Q193 782 208 796T248 810Q273 810 287 796T301 758Q301 732 287 718T248 703Q223 703 208 717ZM397 703T383 717T369 758Q369 782 383 795T423 809Q447 809 460 796T474 758Q474 732 461 718T423 703Q397 703 383 717Z" />
<glyph unicode="&#xc5;" glyph-name="Aring" horiz-adv-x="654" d="M663 12T663 6T660 0Q642 0 604 2Q562 4 537 4Q511 4 473 2Q437 0 420 0Q416 0 416 6T420 12Q450 12 463 18T476 42Q476 57 464 84L376 295H218L150 129Q134 91 134 68Q134 39 157 26T228 12Q232
12 232 6Q232 0 227 0Q214 0 170 2Q120 4 94 4Q70 4 38 2Q10 0 -8 0Q-12 0 -12 6T-8 12Q22 12 57 44T119 136L330 634Q330 637 337 637Q346 637 350 633L574 84Q589 49 596 37T618 19T660 12Q663 12 663 6ZM230 323H365L297 486L230 323ZM279 660T251 683T222 739Q222
775 257 795T338 816Q382 816 413 793T444 737Q444 702 409 681T328 660Q279 660 251 683ZM357 674T363 685T370 719Q370 753 355 777T318 802Q305 802 300 792T294 759Q294 726 307 700T344 674Q357 674 363 685Z" />
<glyph unicode="&#xc6;" glyph-name="AE" horiz-adv-x="837" d="M789 161T792 161Q795 161 798 160T800 157Q791 107 791 15Q791 7 788 4T775 0H363Q358 0 358 6T363 12Q399 12 411 21T424 60Q424 73 423 81L411 311H264L158 123Q145 100 145 79Q145 49 170 31T240
12Q245 12 245 6Q245 0 240 0Q223 0 165 2Q101 4 73 4Q49 4 15 2Q-15 0 -33 0Q-38 0 -38 6T-33 12Q13 12 50 38T126 135L371 577Q381 595 381 600Q381 610 367 611T301 613Q296 613 296 619T301 625H747Q751 625 752 623T754 616Q757 558 757 482Q757 479 753 479Q746
479 744 483Q728 542 683 576T577 611H558Q530 611 518 595T508 543L519 339H616Q667 339 690 356T716 415Q716 419 722 419Q725 419 727 418T730 414Q729 371 729 325L730 242Q731 236 731 222Q731 218 725 218Q722 218 720 219T717 223Q716 266 689 288T614 311H521L533
85Q535 55 540 42T558 23T599 18H613Q670 18 717 56T787 159Q789 161 792 161ZM280 339H410L399 551L280 339Z" />
<glyph unicode="&#xc7;" glyph-name="Ccedilla" horiz-adv-x="635" d="M583 163T586 163Q592 163 592 157L586 42Q584 29 582 26T571 19Q483 -12 387 -12H386Q385 -16 385 -24Q385 -46 396 -61T434 -104Q459 -130 470 -149T481 -187Q482 -206 471 -226T437 -261T377
-275Q341 -275 315 -260T288 -222Q287 -205 297 -197T323 -188Q341 -188 350 -197T369 -225Q378 -242 384 -249T403 -256Q415 -256 420 -250T425 -232Q423 -215 406 -192T358 -138Q345 -125 345 -105Q345 -89 354 -60L369 -12Q252 -8 178 40T70 160T36 313Q36 412
84 485T213 597T388 636Q434 636 484 628T565 607Q573 602 575 598T578 584L585 450Q585 447 581 447T574 450Q537 526 480 567T349 609Q254 609 204 540T153 346Q153 256 184 178T270 54T389 8Q492 8 581 160Q583 163 586 163Z" />
<glyph unicode="&#xc8;" glyph-name="Egrave" horiz-adv-x="572" d="M524 161T527 161Q530 161 533 160T535 157Q525 92 525 15Q525 7 522 4T510 0H54Q50 0 50 6T53 12Q83 12 96 17T114 36T119 81V544Q119 574 114 588T95 607T53 613Q50 613 50 619T51 625H482Q490
625 490 616L492 484Q492 481 487 481T480 483Q463 539 419 571T313 604H294Q263 604 250 600T232 583T227 543V339H352Q403 339 427 357T451 415Q451 419 458 419Q465 419 465 414L464 359Q463 347 463 325Q463 293 464 277L465 223Q465 218 459 218Q456 218 454
219T451 223Q451 266 425 288T350 311H227V85Q227 45 239 33T292 21H320Q385 21 439 58T522 159Q524 161 527 161ZM341 713T300 725T194 756Q181 759 199 768T246 786T291 794Q296 794 300 792Q324 769 368 732L405 701Q407 700 407 697Q407 694 404 693T398 692Q341
713 300 725Z" />
<glyph unicode="&#xc9;" glyph-name="Eacute" horiz-adv-x="572" d="M524 161T527 161Q530 161 533 160T535 157Q525 92 525 15Q525 7 522 4T510 0H54Q50 0 50 6T53 12Q83 12 96 17T114 36T119 81V544Q119 574 114 588T95 607T53 613Q50 613 50 619T51 625H482Q490
625 490 616L492 484Q492 481 487 481T480 483Q463 539 419 571T313 604H294Q263 604 250 600T232 583T227 543V339H352Q403 339 427 357T451 415Q451 419 458 419Q465 419 465 414L464 359Q463 347 463 325Q463 293 464 277L465 223Q465 218 459 218Q456 218 454
219T451 223Q451 266 425 288T350 311H227V85Q227 45 239 33T292 21H320Q385 21 439 58T522 159Q524 161 527 161ZM234 678Q230 678 228 682T229 689Q254 709 295 752Q336 793 336 793Q341 798 372 790T429 770T444 756Q337 728 236 679L234 678Z" />
<glyph unicode="&#xca;" glyph-name="Ecircumflex" horiz-adv-x="572" d="M524 161T527 161Q530 161 533 160T535 157Q525 92 525 15Q525 7 522 4T510 0H54Q50 0 50 6T53 12Q83 12 96 17T114 36T119 81V544Q119 574 114 588T95 607T53 613Q50 613 50 619T51 625H482Q490
625 490 616L492 484Q492 481 487 481T480 483Q463 539 419 571T313 604H294Q263 604 250 600T232 583T227 543V339H352Q403 339 427 357T451 415Q451 419 458 419Q465 419 465 414L464 359Q463 347 463 325Q463 293 464 277L465 223Q465 218 459 218Q456 218 454
219T451 223Q451 266 425 288T350 311H227V85Q227 45 239 33T292 21H320Q385 21 439 58T522 159Q524 161 527 161ZM194 660Q191 660 189 662T188 667L283 782Q286 787 291 787Q296 787 301 782L405 667Q407 665 405 662T400 660L298 698L195 660H194Z" />
<glyph unicode="&#xcb;" glyph-name="Edieresis" horiz-adv-x="572" d="M524 161T527 161Q530 161 533 160T535 157Q525 92 525 15Q525 7 522 4T510 0H54Q50 0 50 6T53 12Q83 12 96 17T114 36T119 81V544Q119 574 114 588T95 607T53 613Q50 613 50 619T51 625H482Q490
625 490 616L492 484Q492 481 487 481T480 483Q463 539 419 571T313 604H294Q263 604 250 600T232 583T227 543V339H352Q403 339 427 357T451 415Q451 419 458 419Q465 419 465 414L464 359Q463 347 463 325Q463 293 464 277L465 223Q465 218 459 218Q456 218 454
219T451 223Q451 266 425 288T350 311H227V85Q227 45 239 33T292 21H320Q385 21 439 58T522 159Q524 161 527 161ZM182 703T167 717T152 758Q152 782 167 796T207 810Q232 810 246 796T260 758Q260 732 246 718T207 703Q182 703 167 717ZM356 703T342 717T328 758Q328
782 342 795T382 809Q406 809 419 796T433 758Q433 732 420 718T382 703Q356 703 342 717Z" />
<glyph unicode="&#xcc;" glyph-name="Igrave" horiz-adv-x="358" d="M54 0T54 6T56 12Q87 12 100 17T119 36T124 81V544Q124 573 119 587T99 607T56 613Q54 613 54 619T56 625L106 624Q150 622 177 622Q207 622 253 624L302 625Q304 625 304 619T302 613Q272 613
258 607T240 587T234 542V81Q234 51 239 37T259 18T302 12Q304 12 304 6T302 0Q271 0 252 1L179 2L108 1Q89 0 56 0Q54 0 54 6ZM221 713T180 725T74 756Q61 759 79 768T126 786T171 794Q176 794 180 792Q204 769 248 732L285 701Q287 700 287 697Q287 694 284 693T278
692Q221 713 180 725Z" />
<glyph unicode="&#xcd;" glyph-name="Iacute" horiz-adv-x="358" d="M54 0T54 6T56 12Q87 12 100 17T119 36T124 81V544Q124 573 119 587T99 607T56 613Q54 613 54 619T56 625L106 624Q150 622 177 622Q207 622 253 624L302 625Q304 625 304 619T302 613Q272 613
258 607T240 587T234 542V81Q234 51 239 37T259 18T302 12Q304 12 304 6T302 0Q271 0 252 1L179 2L108 1Q89 0 56 0Q54 0 54 6ZM114 678Q110 678 108 682T109 689Q134 709 175 752Q216 793 216 793Q221 798 252 790T309 770T324 756Q217 728 116 679L114 678Z"
/>
<glyph unicode="&#xce;" glyph-name="Icircumflex" horiz-adv-x="358" d="M54 0T54 6T56 12Q87 12 100 17T119 36T124 81V544Q124 573 119 587T99 607T56 613Q54 613 54 619T56 625L106 624Q150 622 177 622Q207 622 253 624L302 625Q304 625 304 619T302 613Q272
613 258 607T240 587T234 542V81Q234 51 239 37T259 18T302 12Q304 12 304 6T302 0Q271 0 252 1L179 2L108 1Q89 0 56 0Q54 0 54 6ZM74 660Q71 660 69 662T68 667L163 782Q166 787 171 787Q176 787 181 782L285 667Q287 665 285 662T280 660L178 698L75 660H74Z"
/>
<glyph unicode="&#xcf;" glyph-name="Idieresis" horiz-adv-x="358" d="M54 0T54 6T56 12Q87 12 100 17T119 36T124 81V544Q124 573 119 587T99 607T56 613Q54 613 54 619T56 625L106 624Q150 622 177 622Q207 622 253 624L302 625Q304 625 304 619T302 613Q272
613 258 607T240 587T234 542V81Q234 51 239 37T259 18T302 12Q304 12 304 6T302 0Q271 0 252 1L179 2L108 1Q89 0 56 0Q54 0 54 6ZM75 703T61 717T46 758Q46 782 61 796T101 810Q126 810 140 796T154 758Q154 732 140 718T101 703Q75 703 61 717ZM228 703T214
717T199 758Q199 782 214 796T254 810Q279 810 293 796T307 758Q307 732 293 718T254 703Q228 703 214 717Z" />
<glyph unicode="&#xd0;" glyph-name="Eth" horiz-adv-x="688" d="M399 627T480 589T606 481T651 323Q651 227 604 153T478 37T310 -4Q282 -4 247 -1Q233 0 213 1T168 2L94 1Q76 0 43 0Q41 0 41 6T43 12Q74 12 88 17T107 36T112 81V297H46Q42 297 42 311Q42 325
46 325H112V544Q110 574 105 588T85 607T43 613Q41 613 41 619T43 625L94 624Q138 622 166 622Q199 622 232 625Q274 627 294 627Q399 627 480 589ZM371 16T423 49T503 147T532 301Q532 378 507 447T428 562T289 607Q249 607 235 593T221 542V325H308Q312 325 312
311Q312 297 308 297H221V92Q222 51 238 34T301 16Q371 16 423 49Z" />
<glyph unicode="&#xd1;" glyph-name="Ntilde" horiz-adv-x="709" d="M697 625T697 619T694 613Q653 613 628 585T601 509L600 -7Q601 -10 596 -12T583 -15Q573 -15 570 -9L151 517L150 116Q149 68 174 40T241 12Q245 12 245 6T241 0Q213 0 198 1L135 2L75 1Q58
0 27 0Q23 0 23 6T27 12Q69 12 93 40T119 116L120 555Q91 587 69 600T22 613Q20 613 20 619T22 625L76 624Q92 623 119 623Q146 623 164 624T189 625Q197 625 201 621T212 606Q224 588 236 573L569 157L571 509Q572 557 548 585T480 613Q476 613 476 619T480 625L519
624Q559 622 586 622Q607 622 645 624L694 625Q697 625 697 619ZM230 685T228 685Q226 685 224 688T222 693Q258 774 307 774Q317 774 355 764Q374 758 394 754T431 749Q452 749 464 755T490 776H491Q494 776 496 774T498 769Q477 721 460 705T417 688Q401 688
359 700Q342 705 323 709T289 713Q264 713 255 708T230 686Q230 685 228 685Z" />
<glyph unicode="&#xd2;" glyph-name="Ograve" horiz-adv-x="735" d="M261 -12T188 31T76 147T36 311Q36 403 79 477T199 593T372 636Q469 636 543 595T657 481T698 319Q698 220 652 145T527 29T356 -12Q261 -12 188 31ZM453 14T494 44T559 129T582 260Q582 352
551 433T464 563T336 612Q281 612 239 582T174 497T151 366Q151 276 182 195T269 64T398 14Q453 14 494 44ZM416 713T375 725T269 756Q256 759 274 768T321 786T366 794Q371 794 375 792Q399 769 443 732L480 701Q482 700 482 697Q482 694 479 693T473 692Q416
713 375 725Z" />
<glyph unicode="&#xd3;" glyph-name="Oacute" horiz-adv-x="735" d="M261 -12T188 31T76 147T36 311Q36 403 79 477T199 593T372 636Q469 636 543 595T657 481T698 319Q698 220 652 145T527 29T356 -12Q261 -12 188 31ZM453 14T494 44T559 129T582 260Q582 352
551 433T464 563T336 612Q281 612 239 582T174 497T151 366Q151 276 182 195T269 64T398 14Q453 14 494 44ZM309 678Q305 678 303 682T304 689Q329 709 370 752Q411 793 411 793Q416 798 447 790T504 770T519 756Q412 728 311 679L309 678Z" />
<glyph unicode="&#xd4;" glyph-name="Ocircumflex" horiz-adv-x="735" d="M261 -12T188 31T76 147T36 311Q36 403 79 477T199 593T372 636Q469 636 543 595T657 481T698 319Q698 220 652 145T527 29T356 -12Q261 -12 188 31ZM453 14T494 44T559 129T582 260Q582
352 551 433T464 563T336 612Q281 612 239 582T174 497T151 366Q151 276 182 195T269 64T398 14Q453 14 494 44ZM269 660Q266 660 264 662T263 667L358 782Q361 787 366 787Q371 787 376 782L480 667Q482 665 480 662T475 660L373 698L270 660H269Z" />
<glyph unicode="&#xd5;" glyph-name="Otilde" horiz-adv-x="735" d="M261 -12T188 31T76 147T36 311Q36 403 79 477T199 593T372 636Q469 636 543 595T657 481T698 319Q698 220 652 145T527 29T356 -12Q261 -12 188 31ZM453 14T494 44T559 129T582 260Q582 352
551 433T464 563T336 612Q281 612 239 582T174 497T151 366Q151 276 182 195T269 64T398 14Q453 14 494 44ZM248 685T246 685Q244 685 242 688T240 693Q276 774 325 774Q335 774 373 764Q392 758 412 754T449 749Q470 749 482 755T508 776H509Q512 776 514 774T516
769Q495 721 478 705T435 688Q419 688 377 700Q360 705 341 709T307 713Q282 713 273 708T248 686Q248 685 246 685Z" />
<glyph unicode="&#xd6;" glyph-name="Odieresis" horiz-adv-x="735" d="M261 -12T188 31T76 147T36 311Q36 403 79 477T199 593T372 636Q469 636 543 595T657 481T698 319Q698 220 652 145T527 29T356 -12Q261 -12 188 31ZM453 14T494 44T559 129T582 260Q582
352 551 433T464 563T336 612Q281 612 239 582T174 497T151 366Q151 276 182 195T269 64T398 14Q453 14 494 44ZM257 703T242 717T227 758Q227 782 242 796T282 810Q307 810 321 796T335 758Q335 732 321 718T282 703Q257 703 242 717ZM431 703T417 717T403 758Q403
782 417 795T457 809Q481 809 494 796T508 758Q508 732 495 718T457 703Q431 703 417 717Z" />
<glyph unicode="&#xd7;" glyph-name="multiply" horiz-adv-x="399" d="M337 88T320 70T299 56L200 155L101 55Q97 52 80 69T64 89L165 190L65 289Q63 293 80 310T99 325L200 225L298 323Q302 326 319 309T333 289L234 190L333 91Q337 88 320 70Z" />
<glyph unicode="&#xd8;" glyph-name="Oslash" horiz-adv-x="735" d="M637 524T667 460T698 320Q698 220 652 145T527 29T356 -12Q239 -12 156 52L101 -14Q99 -17 87 -7T77 7L132 73Q86 117 61 178T36 309Q36 402 79 476T199 593T372 636Q479 636 557 586L598 635L599
636Q605 636 615 628T622 616L582 568Q637 524 667 460ZM151 248T200 155L503 521Q471 564 429 588T336 612Q281 612 239 582T174 497T151 366Q151 248 200 155ZM453 14T494 44T559 129T582 260Q582 325 566 385T521 494L216 126Q250 73 296 44T398 14Q453 14 494
44Z" />
<glyph unicode="&#xd9;" glyph-name="Ugrave" horiz-adv-x="775" d="M738 12T738 6T735 0L637 1L561 0Q550 0 548 3T545 19V63Q497 23 449 6T343 -12Q272 -12 216 12T128 81T96 186V544Q96 573 91 587T71 607T29 613Q26 613 26 619T29 625L78 624Q120 622 149
622Q175 622 221 624L271 625Q275 625 275 619T273 613Q243 613 229 607T210 587T204 542V221Q203 128 250 77T381 25Q424 25 463 40T545 92L544 542Q545 585 532 599T478 613Q475 613 475 619T477 625L527 624Q571 622 599 622Q624 622 670 624L720 625Q724 625
724 619T722 613Q692 613 678 608T658 588T653 544V81Q653 51 659 37T682 17T735 12Q738 12 738 6ZM420 713T379 725T273 756Q260 759 278 768T325 786T370 794Q375 794 379 792Q403 769 447 732L484 701Q486 700 486 697Q486 694 483 693T477 692Q420 713 379
725Z" />
<glyph unicode="&#xda;" glyph-name="Uacute" horiz-adv-x="775" d="M738 12T738 6T735 0L637 1L561 0Q550 0 548 3T545 19V63Q497 23 449 6T343 -12Q272 -12 216 12T128 81T96 186V544Q96 573 91 587T71 607T29 613Q26 613 26 619T29 625L78 624Q120 622 149
622Q175 622 221 624L271 625Q275 625 275 619T273 613Q243 613 229 607T210 587T204 542V221Q203 128 250 77T381 25Q424 25 463 40T545 92L544 542Q545 585 532 599T478 613Q475 613 475 619T477 625L527 624Q571 622 599 622Q624 622 670 624L720 625Q724 625
724 619T722 613Q692 613 678 608T658 588T653 544V81Q653 51 659 37T682 17T735 12Q738 12 738 6ZM313 678Q309 678 307 682T308 689Q333 709 374 752Q415 793 415 793Q420 798 451 790T508 770T523 756Q416 728 315 679L313 678Z" />
<glyph unicode="&#xdb;" glyph-name="Ucircumflex" horiz-adv-x="775" d="M738 12T738 6T735 0L637 1L561 0Q550 0 548 3T545 19V63Q497 23 449 6T343 -12Q272 -12 216 12T128 81T96 186V544Q96 573 91 587T71 607T29 613Q26 613 26 619T29 625L78 624Q120 622
149 622Q175 622 221 624L271 625Q275 625 275 619T273 613Q243 613 229 607T210 587T204 542V221Q203 128 250 77T381 25Q424 25 463 40T545 92L544 542Q545 585 532 599T478 613Q475 613 475 619T477 625L527 624Q571 622 599 622Q624 622 670 624L720 625Q724
625 724 619T722 613Q692 613 678 608T658 588T653 544V81Q653 51 659 37T682 17T735 12Q738 12 738 6ZM273 660Q270 660 268 662T267 667L362 782Q365 787 370 787Q375 787 380 782L484 667Q486 665 484 662T479 660L377 698L274 660H273Z" />
<glyph unicode="&#xdc;" glyph-name="Udieresis" horiz-adv-x="775" d="M738 12T738 6T735 0L637 1L561 0Q550 0 548 3T545 19V63Q497 23 449 6T343 -12Q272 -12 216 12T128 81T96 186V544Q96 573 91 587T71 607T29 613Q26 613 26 619T29 625L78 624Q120 622 149
622Q175 622 221 624L271 625Q275 625 275 619T273 613Q243 613 229 607T210 587T204 542V221Q203 128 250 77T381 25Q424 25 463 40T545 92L544 542Q545 585 532 599T478 613Q475 613 475 619T477 625L527 624Q571 622 599 622Q624 622 670 624L720 625Q724 625
724 619T722 613Q692 613 678 608T658 588T653 544V81Q653 51 659 37T682 17T735 12Q738 12 738 6ZM261 703T246 717T231 758Q231 782 246 796T286 810Q311 810 325 796T339 758Q339 732 325 718T286 703Q261 703 246 717ZM435 703T421 717T407 758Q407 782 421
795T461 809Q485 809 498 796T512 758Q512 732 499 718T461 703Q435 703 421 717Z" />
<glyph unicode="&#xdd;" glyph-name="Yacute" horiz-adv-x="577" d="M583 625T583 619T578 613Q543 613 512 587T449 504L349 314V81Q349 50 354 36T376 17T428 12Q432 12 432 6T428 0Q393 0 374 1L295 2L212 1Q192 0 158 0Q154 0 154 6T158 12Q194 12 211 17T234
37T240 81L239 300L80 542Q56 579 35 596T-9 613Q-13 613 -13 619T-11 625L41 624Q79 622 97 622Q122 622 172 624L223 625Q226 625 226 621Q226 618 225 616T221 613Q195 613 184 609T172 596Q172 587 182 573L332 343L426 526Q435 546 435 562Q435 585 420 599T375
613Q371 613 371 619T374 625L428 624Q478 622 505 622Q522 622 544 624L578 625Q583 625 583 619ZM233 678Q229 678 227 682T228 689Q253 709 294 752Q335 793 335 793Q340 798 371 790T428 770T443 756Q336 728 235 679L233 678Z" />
<glyph unicode="&#xde;" glyph-name="Thorn" horiz-adv-x="592" d="M362 156T404 189T447 298Q447 345 429 387T373 455T283 481Q258 481 225 474L226 81Q226 49 232 36T256 17T318 12Q321 12 321 6T318 0Q280 0 258 1L171 2L99 1Q81 0 48 0Q45 0 45 6T48 12Q79
12 93 17T112 36T117 81V544Q117 574 112 588T93 607T50 613Q48 613 48 619T50 625L99 624Q141 622 167 622Q206 622 262 624L320 625Q323 625 323 619T320 613Q275 613 257 609T232 590T225 542V494Q268 502 318 502Q430 502 497 453T565 320Q565 257 527 216T431
155T316 136Q289 136 269 140Q267 141 267 147Q267 152 268 156T271 159Q289 156 305 156Q362 156 404 189Z" />
<glyph unicode="&#xdf;" glyph-name="germandbls" horiz-adv-x="511" d="M-4 -275T-34 -257T-64 -213Q-64 -197 -52 -188T-19 -178Q6 -178 17 -190T38 -224Q45 -240 50 -247T67 -255Q77 -255 81 -232T85 -150Q85 -129 83 -47L69 418Q64 557 118 641T289 726Q348
726 385 703T426 634Q428 601 413 577T367 520Q341 492 328 472T316 428Q316 403 333 379T388 312Q437 258 462 219T487 133Q487 71 451 30T350 -11Q306 -11 277 7T242 49Q241 53 241 60Q241 77 251 87T282 98Q308 98 321 87T346 55Q356 38 365 30T391 21Q414 21
421 34T428 70Q427 101 407 130T347 205Q302 257 279 293T256 371Q256 397 264 420T289 477Q308 514 317 540T326 597Q326 648 306 675T250 703Q199 703 179 639T160 439L174 -21Q175 -37 175 -65Q175 -144 162 -189T121 -255T46 -275Q-4 -275 -34 -257Z" />
<glyph unicode="&#xe0;" glyph-name="agrave" horiz-adv-x="477" d="M474 78T476 78Q479 78 482 75T484 69Q456 30 430 11T377 -9Q341 -9 323 15T305 89V157Q278 77 229 32T125 -13Q84 -13 59 14T33 99Q33 165 69 235T161 352T277 399Q298 399 320 393T361 373Q380
388 389 407Q391 409 393 409Q396 409 399 407T402 404L400 89Q399 66 404 54T421 42Q431 42 445 51T473 77Q474 78 476 78ZM215 60T243 92T288 170T305 256Q305 300 285 325T229 350Q178 350 149 301T120 172Q121 113 138 87T182 60Q215 60 243 92ZM160 727Q157
734 181 734Q203 734 229 728T256 716L275 476Q276 474 272 473T267 475L160 727Z" />
<glyph unicode="&#xe1;" glyph-name="aacute" horiz-adv-x="477" d="M474 78T476 78Q479 78 482 75T484 69Q456 30 430 11T377 -9Q341 -9 323 15T305 89V157Q278 77 229 32T125 -13Q84 -13 59 14T33 99Q33 165 69 235T161 352T277 399Q298 399 320 393T361 373Q380
388 389 407Q391 409 393 409Q396 409 399 407T402 404L400 89Q399 66 404 54T421 42Q431 42 445 51T473 77Q474 78 476 78ZM215 60T243 92T288 170T305 256Q305 300 285 325T229 350Q178 350 149 301T120 172Q121 113 138 87T182 60Q215 60 243 92ZM254 471T252
471Q249 471 246 473T244 476L277 716Q278 722 304 727T355 732Q378 732 375 727L256 473Q254 471 252 471Z" />
<glyph unicode="&#xe2;" glyph-name="acircumflex" horiz-adv-x="477" d="M474 78T476 78Q479 78 482 75T484 69Q456 30 430 11T377 -9Q341 -9 323 15T305 89V157Q278 77 229 32T125 -13Q84 -13 59 14T33 99Q33 165 69 235T161 352T277 399Q298 399 320 393T361
373Q380 388 389 407Q391 409 393 409Q396 409 399 407T402 404L400 89Q399 66 404 54T421 42Q431 42 445 51T473 77Q474 78 476 78ZM215 60T243 92T288 170T305 256Q305 300 285 325T229 350Q178 350 149 301T120 172Q121 113 138 87T182 60Q215 60 243 92ZM352
477Q353 475 347 475T340 476L268 584L194 474Q192 472 190 472Q187 472 185 473T182 477L258 726Q259 731 268 731Q276 731 277 726L352 477Z" />
<glyph unicode="&#xe3;" glyph-name="atilde" horiz-adv-x="477" d="M474 78T476 78Q479 78 482 75T484 69Q456 30 430 11T377 -9Q341 -9 323 15T305 89V157Q278 77 229 32T125 -13Q84 -13 59 14T33 99Q33 165 69 235T161 352T277 399Q298 399 320 393T361 373Q380
388 389 407Q391 409 393 409Q396 409 399 407T402 404L400 89Q399 66 404 54T421 42Q431 42 445 51T473 77Q474 78 476 78ZM215 60T243 92T288 170T305 256Q305 300 285 325T229 350Q178 350 149 301T120 172Q121 113 138 87T182 60Q215 60 243 92ZM132 470Q130
470 127 472T125 477Q142 512 161 535T210 558Q220 558 237 554T259 548Q310 533 335 533Q356 533 368 539T394 560Q394 561 394 561T395 561Q397 561 400 558T402 553Q381 505 364 489T321 473Q302 473 263 484Q245 489 226 493T191 497Q167 497 158 492T133 470H132Z"
/>
<glyph unicode="&#xe4;" glyph-name="adieresis" horiz-adv-x="477" d="M474 78T476 78Q479 78 482 75T484 69Q456 30 430 11T377 -9Q341 -9 323 15T305 89V157Q278 77 229 32T125 -13Q84 -13 59 14T33 99Q33 165 69 235T161 352T277 399Q298 399 320 393T361
373Q380 388 389 407Q391 409 393 409Q396 409 399 407T402 404L400 89Q399 66 404 54T421 42Q431 42 445 51T473 77Q474 78 476 78ZM215 60T243 92T288 170T305 256Q305 300 285 325T229 350Q178 350 149 301T120 172Q121 113 138 87T182 60Q215 60 243 92ZM151
464T136 478T121 519Q121 543 136 557T176 571Q201 571 215 557T229 519Q229 493 215 479T176 464Q151 464 136 478ZM325 464T311 478T297 519Q297 543 311 556T351 570Q375 570 388 557T402 519Q402 493 389 479T351 464Q325 464 311 478Z" />
<glyph unicode="&#xe5;" glyph-name="aring" horiz-adv-x="477" d="M474 78T476 78Q479 78 482 75T484 69Q456 30 430 11T377 -9Q341 -9 323 15T305 89V157Q278 77 229 32T125 -13Q84 -13 59 14T33 99Q33 165 69 235T161 352T277 399Q298 399 320 393T361 373Q380
388 389 407Q391 409 393 409Q396 409 399 407T402 404L400 89Q399 66 404 54T421 42Q431 42 445 51T473 77Q474 78 476 78ZM215 60T243 92T288 170T305 256Q305 300 285 325T229 350Q178 350 149 301T120 172Q121 113 138 87T182 60Q215 60 243 92ZM209 468T180
491T151 547Q151 583 187 604T267 625Q311 625 342 602T373 545Q373 510 338 489T257 468Q209 468 180 491ZM286 482T292 493T299 527Q299 561 284 586T247 611Q223 611 223 567Q223 534 236 508T273 482Q286 482 292 493Z" />
<glyph unicode="&#xe6;" glyph-name="ae" horiz-adv-x="636" d="M605 65T607 65Q611 65 614 62T615 56Q548 -12 470 -12Q395 -12 355 41T315 187Q286 96 238 42T131 -13Q87 -13 60 17T33 100Q33 165 65 235T155 352T281 399Q315 399 342 387T380 351Q439 399 526
399Q625 399 625 338Q626 304 579 271T406 197Q413 119 447 77T530 35Q571 35 604 64Q605 65 607 65ZM441 373T421 329T405 215V212Q457 235 488 261T519 323Q519 342 509 357T477 373Q441 373 421 329ZM310 302T288 334T234 367Q206 367 181 341T141 270T126 171Q127
111 145 88T186 65Q210 65 239 96T289 173T310 257Q310 302 288 334Z" />
<glyph unicode="&#xe7;" glyph-name="ccedilla" horiz-adv-x="372" d="M352 60Q355 60 358 57T360 50Q330 17 295 3T219 -13Q218 -17 218 -24Q218 -46 229 -61T267 -104Q292 -130 303 -149T314 -187Q315 -206 304 -226T270 -261T210 -275Q174 -275 148 -260T121
-222Q120 -205 130 -197T156 -188Q174 -188 183 -197T202 -225Q211 -242 217 -249T236 -256Q248 -256 253 -250T258 -232Q256 -215 239 -192T191 -138Q178 -125 178 -105Q178 -89 187 -60L202 -13Q143 -10 103 21T43 101T27 202Q28 255 58 300T136 372T234 399Q277
399 312 382T351 332Q353 311 341 299T302 287Q275 287 262 299T239 332Q229 351 219 361T191 371Q159 371 141 337T122 246Q122 154 159 95T269 36Q321 36 351 60H352Z" />
<glyph unicode="&#xe8;" glyph-name="egrave" horiz-adv-x="381" d="M361 63Q364 63 367 60T368 55Q336 20 295 4T211 -12Q151 -12 109 15T46 86T25 180Q25 234 53 284T132 367T251 399Q296 399 321 385T350 345Q354 301 288 263T125 208Q129 131 165 82T265 32Q289
32 314 39T359 63H361ZM164 372T145 331T125 224Q246 252 242 324Q242 346 231 359T199 372Q164 372 145 331ZM110 727Q107 734 131 734Q153 734 179 728T206 716L225 476Q226 474 222 473T217 475L110 727Z" />
<glyph unicode="&#xe9;" glyph-name="eacute" horiz-adv-x="381" d="M361 63Q364 63 367 60T368 55Q336 20 295 4T211 -12Q151 -12 109 15T46 86T25 180Q25 234 53 284T132 367T251 399Q296 399 321 385T350 345Q354 301 288 263T125 208Q129 131 165 82T265 32Q289
32 314 39T359 63H361ZM164 372T145 331T125 224Q246 252 242 324Q242 346 231 359T199 372Q164 372 145 331ZM204 471T202 471Q199 471 196 473T194 476L227 716Q228 722 254 727T305 732Q328 732 325 727L206 473Q204 471 202 471Z" />
<glyph unicode="&#xea;" glyph-name="ecircumflex" horiz-adv-x="381" d="M361 63Q364 63 367 60T368 55Q336 20 295 4T211 -12Q151 -12 109 15T46 86T25 180Q25 234 53 284T132 367T251 399Q296 399 321 385T350 345Q354 301 288 263T125 208Q129 131 165 82T265
32Q289 32 314 39T359 63H361ZM164 372T145 331T125 224Q246 252 242 324Q242 346 231 359T199 372Q164 372 145 331ZM302 477Q303 475 297 475T290 476L218 584L144 474Q142 472 140 472Q137 472 135 473T132 477L208 726Q209 731 218 731Q226 731 227 726L302
477Z" />
<glyph unicode="&#xeb;" glyph-name="edieresis" horiz-adv-x="381" d="M361 63Q364 63 367 60T368 55Q336 20 295 4T211 -12Q151 -12 109 15T46 86T25 180Q25 234 53 284T132 367T251 399Q296 399 321 385T350 345Q354 301 288 263T125 208Q129 131 165 82T265
32Q289 32 314 39T359 63H361ZM164 372T145 331T125 224Q246 252 242 324Q242 346 231 359T199 372Q164 372 145 331ZM101 464T86 478T71 519Q71 543 86 557T126 571Q151 571 165 557T179 519Q179 493 165 479T126 464Q101 464 86 478ZM275 464T261 478T247 519Q247
543 261 556T301 570Q325 570 338 557T352 519Q352 493 339 479T301 464Q275 464 261 478Z" />
<glyph unicode="&#xec;" glyph-name="igrave" horiz-adv-x="260" d="M115 -9T99 15T84 89L88 297Q89 346 62 346Q40 346 7 306Q6 305 4 305Q1 305 -2 308T-4 315Q26 357 54 376T113 395Q181 395 181 309L177 89Q175 42 200 42Q210 42 220 50T250 77Q252 79 254
79Q258 79 260 76T262 69Q232 28 207 10T151 -9Q115 -9 99 15ZM0 731T15 731Q37 731 68 726T100 716L132 476Q132 474 128 473T122 474L1 727Q0 731 15 731Z" />
<glyph unicode="&#xed;" glyph-name="iacute" horiz-adv-x="260" d="M115 -9T99 15T84 89L88 297Q89 346 62 346Q40 346 7 306Q6 305 4 305Q1 305 -2 308T-4 315Q26 357 54 376T113 395Q181 395 181 309L177 89Q175 42 200 42Q210 42 220 50T250 77Q252 79 254
79Q258 79 260 76T262 69Q232 28 207 10T151 -9Q115 -9 99 15ZM121 472T117 472Q114 472 112 473T110 476L143 716Q145 720 176 725T228 731Q242 731 241 727L121 474Q121 472 117 472Z" />
<glyph unicode="&#xee;" glyph-name="icircumflex" horiz-adv-x="260" d="M115 -9T99 15T84 89L88 297Q89 346 62 346Q40 346 7 306Q6 305 4 305Q1 305 -2 308T-4 315Q26 357 54 376T113 395Q181 395 181 309L177 89Q175 42 200 42Q210 42 220 50T250 77Q252 79
254 79Q258 79 260 76T262 69Q232 28 207 10T151 -9Q115 -9 99 15ZM211 477Q212 475 206 475T199 476L127 584L53 474Q51 472 49 472Q46 472 44 473T41 477L117 726Q118 731 127 731Q135 731 136 726L211 477Z" />
<glyph unicode="&#xef;" glyph-name="idieresis" horiz-adv-x="260" d="M115 -9T99 15T84 89L88 297Q89 346 62 346Q40 346 7 306Q6 305 4 305Q1 305 -2 308T-4 315Q26 357 54 376T113 395Q181 395 181 309L177 89Q175 42 200 42Q210 42 220 50T250 77Q252 79
254 79Q258 79 260 76T262 69Q232 28 207 10T151 -9Q115 -9 99 15ZM279 464T265 478T250 519Q250 543 265 557T305 571Q330 571 344 557T358 519Q358 493 344 479T305 464Q279 464 265 478ZM432 464T418 478T403 519Q403 543 418 557T458 571Q483 571 497 557T511
519Q511 493 497 479T458 464Q432 464 418 478Z" />
<glyph unicode="&#xf0;" glyph-name="eth" horiz-adv-x="429" d="M338 502T375 407T413 219Q413 144 385 92T310 14T204 -13Q147 -13 105 13T41 83T18 179Q18 250 49 300T126 374T221 399Q251 399 275 389Q248 479 210 551L92 495L90 494Q83 494 79 505T80 518L198
573Q143 668 83 712Q81 714 81 715Q81 719 86 722T95 725Q181 684 256 601L357 648H358Q364 648 368 638T367 625L273 581Q338 502 375 407ZM267 11T288 49T309 169Q309 192 308 204Q303 290 280 334T209 378Q172 378 147 339T122 232Q122 174 136 123T175 42T229
11Q267 11 288 49Z" />
<glyph unicode="&#xf1;" glyph-name="ntilde" horiz-adv-x="511" d="M510 79Q514 79 517 76T518 69Q488 28 463 10T407 -9Q371 -9 355 15T340 89L342 248Q342 342 294 342Q262 342 236 306T195 200T178 32V12Q178 3 164 -2T120 -8Q85 -8 83 0V23Q85 51 85 74L87
297Q87 346 61 346Q39 346 6 306Q5 305 3 305Q-1 305 -4 308T-5 315Q25 357 53 376T112 395Q147 395 162 374T179 309V217Q200 304 241 351T338 399Q434 399 434 267L433 89Q432 42 456 42Q467 42 478 51T506 77L510 79ZM117 470Q115 470 112 472T110 477Q127 512
146 535T195 558Q205 558 222 554T244 548Q295 533 320 533Q341 533 353 539T379 560Q379 561 379 561T380 561Q382 561 385 558T387 553Q366 505 349 489T306 473Q287 473 248 484Q230 489 211 493T176 497Q152 497 143 492T118 470H117Z" />
<glyph unicode="&#xf2;" glyph-name="ograve" horiz-adv-x="437" d="M150 -14T109 13T46 87T25 188Q25 250 51 298T123 372T228 399Q316 399 365 343T414 198Q414 131 385 83T309 11T208 -14Q150 -14 109 13ZM277 11T295 49T313 156Q313 214 298 264T255 345T196
375Q163 375 144 340T125 236Q125 176 141 125T183 42T241 11Q277 11 295 49ZM112 727Q109 734 133 734Q155 734 181 728T208 716L227 476Q228 474 224 473T219 475L112 727Z" />
<glyph unicode="&#xf3;" glyph-name="oacute" horiz-adv-x="437" d="M150 -14T109 13T46 87T25 188Q25 250 51 298T123 372T228 399Q316 399 365 343T414 198Q414 131 385 83T309 11T208 -14Q150 -14 109 13ZM277 11T295 49T313 156Q313 214 298 264T255 345T196
375Q163 375 144 340T125 236Q125 176 141 125T183 42T241 11Q277 11 295 49ZM206 471T204 471Q201 471 198 473T196 476L229 716Q230 722 256 727T307 732Q330 732 327 727L208 473Q206 471 204 471Z" />
<glyph unicode="&#xf4;" glyph-name="ocircumflex" horiz-adv-x="437" d="M150 -14T109 13T46 87T25 188Q25 250 51 298T123 372T228 399Q316 399 365 343T414 198Q414 131 385 83T309 11T208 -14Q150 -14 109 13ZM277 11T295 49T313 156Q313 214 298 264T255
345T196 375Q163 375 144 340T125 236Q125 176 141 125T183 42T241 11Q277 11 295 49ZM304 477Q305 475 299 475T292 476L220 584L146 474Q144 472 142 472Q139 472 137 473T134 477L210 726Q211 731 220 731Q228 731 229 726L304 477Z" />
<glyph unicode="&#xf5;" glyph-name="otilde" horiz-adv-x="437" d="M150 -14T109 13T46 87T25 188Q25 250 51 298T123 372T228 399Q316 399 365 343T414 198Q414 131 385 83T309 11T208 -14Q150 -14 109 13ZM277 11T295 49T313 156Q313 214 298 264T255 345T196
375Q163 375 144 340T125 236Q125 176 141 125T183 42T241 11Q277 11 295 49ZM84 470Q82 470 79 472T77 477Q94 512 113 535T162 558Q172 558 189 554T211 548Q262 533 287 533Q308 533 320 539T346 560Q346 561 346 561T347 561Q349 561 352 558T354 553Q333 505
316 489T273 473Q254 473 215 484Q197 489 178 493T143 497Q119 497 110 492T85 470H84Z" />
<glyph unicode="&#xf6;" glyph-name="odieresis" horiz-adv-x="437" d="M150 -14T109 13T46 87T25 188Q25 250 51 298T123 372T228 399Q316 399 365 343T414 198Q414 131 385 83T309 11T208 -14Q150 -14 109 13ZM277 11T295 49T313 156Q313 214 298 264T255 345T196
375Q163 375 144 340T125 236Q125 176 141 125T183 42T241 11Q277 11 295 49ZM103 464T88 478T73 519Q73 543 88 557T128 571Q153 571 167 557T181 519Q181 493 167 479T128 464Q103 464 88 478ZM277 464T263 478T249 519Q249 543 263 556T303 570Q327 570 340
557T354 519Q354 493 341 479T303 464Q277 464 263 478Z" />
<glyph unicode="&#xf7;" glyph-name="divide" horiz-adv-x="398" d="M173 274T157 290T140 335Q140 361 156 376T201 392Q229 392 244 377T260 335Q260 306 245 290T201 274Q173 274 157 290ZM32 165T31 173T29 191Q29 200 30 207T33 214H364Q366 214 367 207T369
190Q369 181 368 173T364 165H34Q32 165 31 173ZM173 -11T157 5T140 50Q140 76 156 92T201 108Q229 108 244 93T260 50Q260 21 245 5T201 -11Q173 -11 157 5Z" />
<glyph unicode="&#xf8;" glyph-name="oslash" horiz-adv-x="437" d="M384 326T399 286T414 198Q414 131 385 83T309 11T208 -14Q140 -14 94 24L61 -18H60Q55 -18 47 -11T41 0L75 42Q50 70 38 108T25 188Q25 250 51 298T123 372T228 399Q289 399 334 370L360 402L362
403Q368 403 376 397T381 387L355 353Q384 326 399 286ZM125 179T141 126L282 303Q265 337 243 356T196 375Q163 375 144 340T125 236Q125 179 141 126ZM313 218T293 276L151 96Q167 57 191 34T241 11Q277 11 295 49T313 157Q313 218 293 276Z" />
<glyph unicode="&#xf9;" glyph-name="ugrave" horiz-adv-x="512" d="M507 81T509 81Q513 81 516 78T517 71Q486 28 459 10T400 -9Q365 -9 349 12T332 77V162Q311 78 271 33T174 -13Q126 -13 102 20T78 119L82 297Q83 344 58 344Q48 344 38 336T8 309Q6 307 5 307Q1
307 -2 310T-4 317Q27 358 51 376T106 395Q140 395 158 371T174 297L171 138Q170 44 218 44Q248 44 273 77T315 177T333 334V374Q333 383 348 388T392 394Q426 394 429 386V363Q427 335 427 312L426 89Q426 40 451 40Q473 40 506 80Q507 81 509 81ZM149 727Q146
734 170 734Q192 734 218 728T245 716L264 476Q265 474 261 473T256 475L149 727Z" />
<glyph unicode="&#xfa;" glyph-name="uacute" horiz-adv-x="512" d="M507 81T509 81Q513 81 516 78T517 71Q486 28 459 10T400 -9Q365 -9 349 12T332 77V162Q311 78 271 33T174 -13Q126 -13 102 20T78 119L82 297Q83 344 58 344Q48 344 38 336T8 309Q6 307 5 307Q1
307 -2 310T-4 317Q27 358 51 376T106 395Q140 395 158 371T174 297L171 138Q170 44 218 44Q248 44 273 77T315 177T333 334V374Q333 383 348 388T392 394Q426 394 429 386V363Q427 335 427 312L426 89Q426 40 451 40Q473 40 506 80Q507 81 509 81ZM243 471T241
471Q238 471 235 473T233 476L266 716Q267 722 293 727T344 732Q367 732 364 727L245 473Q243 471 241 471Z" />
<glyph unicode="&#xfb;" glyph-name="ucircumflex" horiz-adv-x="512" d="M507 81T509 81Q513 81 516 78T517 71Q486 28 459 10T400 -9Q365 -9 349 12T332 77V162Q311 78 271 33T174 -13Q126 -13 102 20T78 119L82 297Q83 344 58 344Q48 344 38 336T8 309Q6 307
5 307Q1 307 -2 310T-4 317Q27 358 51 376T106 395Q140 395 158 371T174 297L171 138Q170 44 218 44Q248 44 273 77T315 177T333 334V374Q333 383 348 388T392 394Q426 394 429 386V363Q427 335 427 312L426 89Q426 40 451 40Q473 40 506 80Q507 81 509 81ZM341
477Q342 475 336 475T329 476L257 584L183 474Q181 472 179 472Q176 472 174 473T171 477L247 726Q248 731 257 731Q265 731 266 726L341 477Z" />
<glyph unicode="&#xfc;" glyph-name="udieresis" horiz-adv-x="512" d="M507 81T509 81Q513 81 516 78T517 71Q486 28 459 10T400 -9Q365 -9 349 12T332 77V162Q311 78 271 33T174 -13Q126 -13 102 20T78 119L82 297Q83 344 58 344Q48 344 38 336T8 309Q6 307
5 307Q1 307 -2 310T-4 317Q27 358 51 376T106 395Q140 395 158 371T174 297L171 138Q170 44 218 44Q248 44 273 77T315 177T333 334V374Q333 383 348 388T392 394Q426 394 429 386V363Q427 335 427 312L426 89Q426 40 451 40Q473 40 506 80Q507 81 509 81ZM140
464T125 478T110 519Q110 543 125 557T165 571Q190 571 204 557T218 519Q218 493 204 479T165 464Q140 464 125 478ZM314 464T300 478T286 519Q286 543 300 556T340 570Q364 570 377 557T391 519Q391 493 378 479T340 464Q314 464 300 478Z" />
<glyph unicode="&#xfd;" glyph-name="yacute" horiz-adv-x="484" d="M411 394T420 393T430 388Q430 347 428 312L426 -70Q424 -165 370 -223T222 -281Q181 -281 148 -271T96 -244T80 -205Q80 -179 93 -167T125 -154Q148 -154 159 -165T183 -202Q196 -230 211 -245T262
-260Q295 -260 313 -224T331 -94L332 159Q310 76 270 32T174 -13Q126 -13 102 20T78 119L82 297Q83 344 58 344Q48 344 36 336T7 309Q5 307 3 307Q0 307 -2 310T-4 317Q27 358 51 376T106 395Q140 395 158 371T174 297L171 138Q170 44 218 44Q247 44 271 76T312
171T332 320L333 380Q333 386 346 390T382 394Q411 394 420 393ZM244 471T242 471Q239 471 236 473T234 476L267 716Q268 722 294 727T345 732Q368 732 365 727L246 473Q244 471 242 471Z" />
<glyph unicode="&#xfe;" glyph-name="thorn" horiz-adv-x="441" d="M174 -1T146 1V-178Q146 -211 154 -223T186 -235Q191 -235 209 -233Q213 -232 214 -237T212 -244L9 -275Q6 -276 5 -270T7 -263Q27 -259 36 -253T47 -232T50 -185L52 294Q30 280 2 260Q1 259
-2 259Q-6 259 -8 263T-7 270Q27 299 53 316L54 589Q55 621 48 635T25 650Q8 650 -19 637H-20Q-25 637 -26 642T-23 649L133 725H135Q139 725 143 722T147 717V367Q212 393 267 393Q335 393 371 354T408 242Q408 176 380 121T300 32T184 -1Q174 -1 146 1ZM172 344T147
337L146 44Q188 29 219 29Q273 29 294 67T316 180Q316 260 291 302T200 344Q172 344 147 337Z" />
<glyph unicode="&#xff;" glyph-name="ydieresis" horiz-adv-x="484" d="M411 394T420 393T430 388Q430 347 428 312L426 -70Q424 -165 370 -223T222 -281Q181 -281 148 -271T96 -244T80 -205Q80 -179 93 -167T125 -154Q148 -154 159 -165T183 -202Q196 -230 211
-245T262 -260Q295 -260 313 -224T331 -94L332 159Q310 76 270 32T174 -13Q126 -13 102 20T78 119L82 297Q83 344 58 344Q48 344 36 336T7 309Q5 307 3 307Q0 307 -2 310T-4 317Q27 358 51 376T106 395Q140 395 158 371T174 297L171 138Q170 44 218 44Q247 44 271
76T312 171T332 320L333 380Q333 386 346 390T382 394Q411 394 420 393ZM141 464T126 478T111 519Q111 543 126 557T166 571Q191 571 205 557T219 519Q219 493 205 479T166 464Q141 464 126 478ZM315 464T301 478T287 519Q287 543 301 556T341 570Q365 570 378
557T392 519Q392 493 379 479T341 464Q315 464 301 478Z" />
<glyph unicode="&#x2013;" glyph-name="endash" horiz-adv-x="515" d="M32 165T31 173T29 191Q29 200 30 207T33 214H481Q483 214 484 207T486 190Q486 181 485 173T481 165H34Q32 165 31 173Z" />
<glyph unicode="&#x2014;" glyph-name="emdash" horiz-adv-x="830" d="M32 165T31 173T29 191Q29 200 30 207T33 214H796Q798 214 799 207T801 190Q801 181 800 173T796 165H34Q32 165 31 173Z" />
<glyph unicode="&#x2018;" glyph-name="quoteleft" horiz-adv-x="191" d="M136 505T150 490T165 449Q165 422 148 407T100 391Q65 391 46 418T26 495Q26 540 46 578T106 656Q107 657 109 657Q112 657 114 654T114 649Q65 599 65 531Q65 503 75 490Q84 505 112
505Q136 505 150 490Z" />
<glyph unicode="&#x2019;" glyph-name="quoteright" horiz-adv-x="191" d="M125 625T144 598T164 521Q164 476 144 438T84 360Q83 359 81 359Q78 359 76 362T76 367Q125 417 125 485Q125 513 115 526Q106 511 78 511Q54 511 40 526T25 567Q25 594 42 609T90 625Q125
625 144 598Z" />
<glyph unicode="&#x201a;" glyph-name="quotesinglbase" horiz-adv-x="191" d="M381 106T400 79T420 2Q420 -43 400 -81T340 -159Q339 -160 337 -160Q334 -160 332 -157T332 -152Q381 -102 381 -34Q381 -6 371 7Q362 -8 334 -8Q310 -8 296 7T281 48Q281 75 298
90T346 106Q381 106 400 79Z" />
<glyph unicode="&#x201c;" glyph-name="quotedblleft" horiz-adv-x="351" d="M123 505T137 490T152 449Q152 422 135 407T87 391Q52 391 33 418T13 495Q13 540 33 578T93 656Q94 657 96 657Q99 657 101 654T101 649Q52 599 52 531Q52 503 62 490Q71 505 99 505Q123
505 137 490ZM297 505T311 490T326 449Q326 422 309 407T261 391Q226 391 207 418T187 495Q187 540 207 578T267 656Q268 657 270 657Q273 657 275 654T275 649Q226 599 226 531Q226 503 236 490Q245 505 273 505Q297 505 311 490Z" />
<glyph unicode="&#x201d;" glyph-name="quotedblright" horiz-adv-x="364" d="M299 626T318 599T338 522Q338 477 318 439T258 361Q257 360 255 360Q252 360 250 363T250 368Q299 418 299 486Q299 514 289 527Q280 512 252 512Q228 512 214 527T199 568Q199 595
216 610T264 626Q299 626 318 599ZM125 626T144 599T164 522Q164 477 144 439T84 361Q83 360 81 360Q78 360 76 363T76 368Q125 418 125 486Q125 514 115 527Q106 512 78 512Q54 512 40 527T25 568Q25 595 42 610T90 626Q125 626 144 599Z" />
<glyph unicode="&#x201e;" glyph-name="quotedblbase" horiz-adv-x="364" d="M299 106T318 79T338 2Q338 -43 318 -81T258 -159Q257 -160 255 -160Q252 -160 250 -157T250 -152Q299 -102 299 -34Q299 -6 289 7Q280 -8 252 -8Q228 -8 214 7T199 48Q199 75 216 90T264
106Q299 106 318 79ZM381 106T400 79T420 2Q420 -43 400 -81T340 -159Q339 -160 337 -160Q334 -160 332 -157T332 -152Q381 -102 381 -34Q381 -6 371 7Q362 -8 334 -8Q310 -8 296 7T281 48Q281 75 298 90T346 106Q381 106 400 79Z" />
<glyph unicode="&#x2022;" glyph-name="bullet" horiz-adv-x="324" d="M114 131T79 165T44 248Q44 279 60 306T103 349T163 365Q194 365 221 349T264 306T280 248Q280 199 246 165T163 131Q114 131 79 165Z" />
<glyph unicode="&#x2039;" glyph-name="guilsinglleft" horiz-adv-x="304" d="M53 189Q49 193 49 201Q49 208 53 212L241 361Q241 362 243 362Q245 362 247 360T248 356L156 201L248 46Q249 44 246 41T241 40L53 189Z" />
<glyph unicode="&#x203a;" glyph-name="guilsinglright" horiz-adv-x="304" d="M251 212Q256 207 256 201Q256 194 251 189L63 40Q63 39 61 39Q59 39 57 41T56 46L149 200L56 356Q55 358 58 361T63 361L251 212Z" />
</font>
</defs>
</svg>
