<?xml version="1.0" standalone="no"?>
<!DOCTYPE svg PUBLIC "-//W3C//DTD SVG 1.1//EN" "http://www.w3.org/Graphics/SVG/1.1/DTD/svg11.dtd">
<svg xmlns="http://www.w3.org/2000/svg">
<defs >
<font id="Prociono" horiz-adv-x="540" ><font-face
    font-family="Prociono"
    units-per-em="1000"
    panose-1="2 0 5 3 0 0 0 0 0 0"
    ascent="1008"
    descent="-212"
    alphabetic="0" />
<glyph unicode=" " glyph-name="space" horiz-adv-x="240" />
<glyph unicode="!" glyph-name="exclam" horiz-adv-x="240" d="M69 742Q140 752 171 759L183 748Q146 286 129 196L96 202L91 286Q69 676 69 742ZM346 -10T329 31T312 84T329 122T364 148T403 111T426 59T402 17T360 -10Q346 -10 329 31Z" />
<glyph unicode="&quot;" glyph-name="quotedbl" horiz-adv-x="368" d="M60 791Q73 797 105 797T152 791L126 565H86L60 791ZM216 791Q229 797 261 797T308 791L282 565H242L216 791Z" />
<glyph unicode="#" glyph-name="numbersign" horiz-adv-x="487" d="M314 477Q326 484 366 484L380 485Q361 420 354 348H447L437 302H349L337 211H426L417 163H338Q327 114 327 15Q317 9 277 6L264 4Q275 61 284 162H184Q174 118 174 16Q168 13 125 6L112 5Q126
89 131 163H48L57 207H135L144 300H67L76 344H152Q164 437 164 475Q174 481 218 484L233 485Q213 426 206 346H302Q314 439 314 477ZM189 208H286L298 301H200L189 208Z" />
<glyph unicode="$" glyph-name="dollar" horiz-adv-x="480" d="M375 459L372 361H335Q334 374 327 399T310 437Q295 460 256 465V311Q362 275 384 221Q396 194 396 150T381 80Q349 29 322 12T256 -13V-96H215V-17Q116 -16 94 19Q86 32 86 53Q86 134 90 152T111
171T132 157T139 119T154 79Q171 54 215 48V216Q117 249 94 300Q84 325 84 365T106 442T154 497T215 522V608H256V525H259Q302 525 341 508Q352 504 358 500Q375 489 375 459ZM158 434T155 423T151 392Q151 355 215 326V465Q189 461 174 448ZM256 48Q331 58 331
122Q331 153 312 171T256 202V48Z" />
<glyph unicode="%" glyph-name="percent" horiz-adv-x="697" d="M109 216T76 258T42 376Q42 478 135 514Q159 524 173 524Q238 524 271 478T304 367Q304 315 274 272Q261 255 231 236T168 216Q109 216 76 258ZM100 424Q93 403 93 365T120 301T183 275T236 295T252
363T227 438T169 465Q114 465 100 424ZM150 -3L503 537L540 513L187 -27L150 -3ZM459 -12T426 30T392 147Q392 250 485 286Q509 296 523 296Q588 296 621 249T655 139Q655 105 646 84T624 45T581 8T518 -12Q459 -12 426 30ZM450 196Q443 175 443 137T470 73T533
47T586 67T602 135T577 209T519 236Q464 236 450 196Z" />
<glyph unicode="&amp;" glyph-name="ampersand" horiz-adv-x="780" d="M116 38Q45 106 45 196T111 344Q162 390 229 430Q142 537 142 617Q142 674 194 720T323 766T429 753T459 711Q459 661 422 584L388 592Q393 622 393 633Q393 707 313 707Q278 707 254 686T229
626Q229 570 313 459T536 222Q590 322 590 413Q590 449 574 461T516 477V510Q553 507 623 507T732 510V477Q654 472 644 406Q639 377 621 315T570 191Q662 111 770 33V0Q688 0 637 -4L522 117Q485 69 435 35L403 13Q376 -6 352 -12T269 -18T183 -10T116 38ZM144
221Q144 155 193 107T309 59Q410 59 489 152L259 396Q144 323 144 221Z" />
<glyph unicode="&apos;" glyph-name="quotesingle" horiz-adv-x="212" d="M60 791Q73 797 105 797T152 791L126 565H86L60 791Z" />
<glyph unicode="(" glyph-name="parenleft" horiz-adv-x="330" d="M136 31T118 121T100 297T118 472T150 597T178 654T204 693T233 728T261 758L308 802L330 780Q276 700 225 586Q195 525 195 297T225 6Q284 -118 330 -187L308 -209L307 -208Q200 -118 157 -20Q136
31 118 121Z" />
<glyph unicode=")" glyph-name="parenright" horiz-adv-x="330" d="M0 -187Q46 -118 105 6Q135 68 135 296T105 586Q54 700 0 780L22 802L46 781Q143 688 173 613Q194 561 212 472T230 297T212 121T173 -20Q135 -113 23 -208L22 -209L0 -187Z" />
<glyph unicode="*" glyph-name="asterisk" horiz-adv-x="520" d="M50 554L72 633L86 641L246 564L208 749L290 751L302 741L279 565L442 659L470 581L464 566L289 535L429 408L364 357L348 359L264 515L186 343L118 389L115 405L237 533L50 554Z" />
<glyph unicode="+" glyph-name="plus" horiz-adv-x="480" d="M11 250L25 316H208V501L264 514L275 502L274 316H460L472 305L459 250H275L274 67L208 53V250H11Z" />
<glyph unicode="," glyph-name="comma" horiz-adv-x="240" d="M108 12T86 45T63 84T72 104Q98 148 113 148T153 110T177 42T138 -51T83 -114Q81 -114 75 -109T68 -100T88 -67T108 -12Z" />
<glyph unicode="-" glyph-name="hyphen" horiz-adv-x="270" d="M17 250L31 316H242L253 305L241 250H17Z" />
<glyph unicode="." glyph-name="period" horiz-adv-x="240" d="M97 -10T80 31T63 84T80 122T115 148T154 111T177 59T153 17T111 -10Q97 -10 80 31Z" />
<glyph unicode="/" glyph-name="slash" horiz-adv-x="480" d="M-20 -140L439 797H500L43 -140H-20Z" />
<glyph unicode="0" glyph-name="zero" horiz-adv-x="480" d="M30 252Q30 445 178 508Q217 525 239 525Q293 525 335 501T402 436Q450 355 450 248Q450 162 411 100Q368 31 311 2Q273 -18 232 -18Q137 -18 84 57T30 252ZM97 171T144 120T247 69Q323 69 351 108T380
241T335 386T232 439Q210 439 197 438T162 426T128 398Q97 353 97 262Z" />
<glyph unicode="1" glyph-name="one" horiz-adv-x="480" d="M60 390Q294 516 339 525L351 514Q339 334 339 239T340 117T342 80T350 59T371 43Q410 33 474 31V0H92V31H117Q251 33 254 76Q259 111 259 175T253 409Q196 409 74 360L60 390Z" />
<glyph unicode="2" glyph-name="two" horiz-adv-x="480" d="M10 29L45 58L159 147Q241 211 281 257T322 351Q322 451 212 451Q183 451 159 444T75 410L61 439L183 521Q206 527 237 527Q310 527 366 492T423 377Q423 333 391 286T323 207T234 140L182 105Q155 87
142 76Q216 74 285 74T443 83L455 72Q451 38 451 0H24L10 29Z" />
<glyph unicode="3" glyph-name="three" horiz-adv-x="480" d="M148 171L126 170L119 214Q180 224 222 243T281 284Q309 322 309 351T296 401T264 434Q226 455 211 455Q166 455 70 401L54 429L164 517Q193 525 219 525Q288 525 343 485T399 379Q399 277 264 215Q326
214 369 171T412 76Q412 -28 309 -115T43 -203L20 -157L25 -149Q44 -152 63 -152Q159 -152 239 -88T319 52Q319 171 148 171Z" />
<glyph unicode="4" glyph-name="four" horiz-adv-x="480" d="M-3 46L68 182Q123 279 187 380T278 515Q286 518 315 522T362 526L369 518V77Q401 77 476 82Q480 79 484 75Q481 48 466 0H444Q396 0 369 -2L375 -192Q334 -194 287 -207L274 -212Q277 -117 278 -3Q70
-3 21 0L-3 46ZM82 89L94 78Q139 74 198 74T279 75Q283 212 283 338V430Q244 387 172 268T82 89Z" />
<glyph unicode="5" glyph-name="five" horiz-adv-x="480" d="M22 -157L27 -149Q47 -152 65 -152Q162 -152 235 -95T309 36Q309 138 264 164Q239 177 216 180T152 184H96L75 202Q117 464 121 496L135 510Q161 508 225 508T390 512L402 501Q396 472 396 423Q242
425 231 425T159 423Q141 342 137 268Q166 271 210 271Q289 271 349 226T409 92Q409 -44 305 -123T45 -203L22 -157Z" />
<glyph unicode="6" glyph-name="six" horiz-adv-x="480" d="M25 269Q25 541 215 684Q287 738 376 767L395 736Q361 723 295 680L278 669Q224 632 177 549T125 380Q149 417 183 436T289 455T409 408T458 255Q458 188 441 137T400 57T344 10Q292 -17 235 -17Q25
-17 25 269ZM121 338L120 310Q120 310 121 266L122 248Q129 93 190 54Q218 36 259 36Q316 36 345 93T374 227T354 338T283 389Q263 396 232 396T177 386T144 367T121 338Z" />
<glyph unicode="7" glyph-name="seven" horiz-adv-x="480" d="M40 336Q45 419 45 448T44 496L58 510Q96 508 248 508T461 510L473 499Q467 407 333 154T109 -212Q91 -205 69 -188Q196 8 261 148T365 415L353 426Q139 426 113 427Q102 421 69 336H40Z" />
<glyph unicode="8" glyph-name="eight" horiz-adv-x="480" d="M21 194Q21 265 51 313T154 403Q104 431 74 485T44 576Q44 662 100 719T246 776T390 731T444 619Q444 570 412 520T317 431L351 414Q403 386 430 333T458 216Q458 122 400 53T240 -17T80 40T21 194ZM155
330T127 288T99 188T146 84T240 37Q304 37 338 84T373 191T343 285T259 347L219 368Q155 330 127 288ZM194 725T164 699T134 626T168 534T259 463Q310 486 338 522T366 608T334 692T248 725Z" />
<glyph unicode="9" glyph-name="nine" horiz-adv-x="480" d="M35 274Q35 419 108 476Q173 525 269 525Q321 525 359 502T416 441Q452 369 452 281T437 119T398 -3T339 -89T269 -147T192 -182Q128 -202 45 -204L39 -170Q172 -151 243 -94T340 87Q279 50 219 50Q139
50 87 112T35 274ZM121 301Q121 154 189 118Q218 102 267 102T347 128Q356 192 356 246T353 325T339 386T301 445T230 467T154 425T121 301Z" />
<glyph unicode=":" glyph-name="colon" horiz-adv-x="240" d="M97 -10T80 31T63 84T80 122T115 148T154 111T177 59T153 17T111 -10Q97 -10 80 31ZM97 333T80 374T63 427T80 465T115 491T154 454T177 402T153 360T111 333Q97 333 80 374Z" />
<glyph unicode=";" glyph-name="semicolon" horiz-adv-x="240" d="M97 333T80 374T63 427T80 465T115 491T154 454T177 402T153 360T111 333Q97 333 80 374ZM108 12T86 45T63 84T72 104Q98 148 113 148T153 110T177 42T138 -51T83 -114Q81 -114 75 -109T68 -100T88
-67T108 -12Z" />
<glyph unicode="&lt;" glyph-name="less" horiz-adv-x="480" d="M-3 247L11 317L471 522L483 511L471 450L87 279L471 108L483 47L471 36L-3 247Z" />
<glyph unicode="=" glyph-name="equal" horiz-adv-x="480" d="M4 172L18 238H464L476 227L462 172H4ZM4 328L18 394H464L476 383L462 328H4Z" />
<glyph unicode="&gt;" glyph-name="greater" horiz-adv-x="480" d="M-3 47L9 108L393 279L9 450L-3 511L9 522L483 311L469 241L9 36L-3 47Z" />
<glyph unicode="?" glyph-name="question" horiz-adv-x="445" d="M70 666Q70 701 93 714T171 727T260 715T315 685T354 648Q383 615 387 600Q400 535 400 485Q400 288 226 288Q182 288 143 315Q132 212 129 196L96 202L85 410Q146 358 193 358Q263 358 292 392T322
493Q322 525 314 577T287 647T232 665T174 661T139 651T118 635T108 616T104 594T99 573H74Q70 653 70 666ZM346 -10T329 31T312 84T329 122T364 148T403 111T426 59T402 17T360 -10Q346 -10 329 31Z" />
<glyph unicode="@" glyph-name="at" horiz-adv-x="920" d="M77 -5T49 73T20 243T49 417T128 560T243 661Q371 744 523 744Q678 744 784 655Q837 611 868 541T899 389T859 213T759 54T652 -12Q586 -12 571 100Q528 59 475 23T394 -13Q369 -13 343 6T301 48T272
111T260 209T285 327T346 429T423 496T504 522T618 494L653 525L675 516Q662 482 654 332T645 126Q645 49 674 49Q697 49 729 96T786 222T811 375T783 510T708 608Q614 683 487 683Q419 683 362 661T264 602T194 518T146 418Q111 315 111 232T133 82T201 -39T324
-124T483 -156T667 -133L675 -162Q641 -175 577 -189T473 -203Q363 -203 275 -166T132 -67ZM332 225Q332 174 364 121T430 68T503 92T574 156Q587 309 587 390Q518 459 460 459T367 394T332 225Z" />
<glyph unicode="A" glyph-name="A" horiz-adv-x="755" d="M0 0V36Q33 39 49 50T83 94T134 210L342 730Q349 735 374 739T410 743Q666 110 674 94T690 69T715 49T755 36V0H469V34Q558 41 558 78Q558 105 537 153L518 197Q506 224 497 249H208Q190 208 168 151T146
83Q146 47 236 39V0H0ZM222 292H484L351 621L222 292Z" />
<glyph unicode="B" glyph-name="B" horiz-adv-x="649" d="M29 0V37Q59 39 75 42T105 55T119 83Q119 429 112 661Q111 683 97 690T43 700L29 701V738Q83 734 170 734T308 739T369 744H389Q441 744 480 731T541 700T576 657Q597 617 597 564Q597 463 486 409L456
394Q623 338 623 213Q623 124 550 59T384 -6H363Q334 -6 284 -2L252 0Q198 4 141 4T29 0ZM217 140Q217 84 251 70T398 56Q440 56 478 98T517 212T470 324T340 364T219 358Q217 244 217 140ZM219 406Q284 412 323 412T386 410Q440 426 464 465T488 547T473 621T438
666Q397 695 377 695Q267 695 235 683L223 672Q220 531 219 406Z" />
<glyph unicode="C" glyph-name="C" horiz-adv-x="675" d="M579 536L546 645Q540 664 530 671Q457 690 381 690Q238 690 190 620T142 362Q142 153 275 72Q332 38 406 38T548 89Q558 107 577 178L591 232H628Q624 191 624 33Q489 -17 376 -17Q227 -17 138 64Q42
152 42 366Q42 490 77 572Q98 621 163 677T313 745Q364 752 430 752Q559 752 612 723L623 712Q623 662 614 536H579Z" />
<glyph unicode="D" glyph-name="D" horiz-adv-x="776" d="M377 -6L168 4Q83 4 29 0V37Q59 39 75 42T105 55T119 83Q119 429 112 661Q111 683 97 690T43 700L29 701V738Q83 734 172 734T321 739T401 744H422Q585 744 660 664T735 409Q735 319 714 246T658 127T578
50Q495 -6 398 -6H377ZM216 140Q216 90 255 73T414 56Q487 56 522 82T594 176T632 377Q632 541 568 617T364 694Q268 694 235 683L224 672Q216 460 216 140Z" />
<glyph unicode="E" glyph-name="E" horiz-adv-x="640" d="M29 0V37Q59 39 75 42T105 55T119 83Q123 211 123 387T119 661Q118 683 104 690T51 700L37 701V738Q91 734 173 734T300 737L563 738L575 727Q573 719 561 636T548 542H514Q495 644 491 656T476 676Q443
685 356 685T250 679T231 651Q229 597 227 413Q368 413 473 418L463 344H446Q410 370 226 370Q224 222 224 83Q224 59 260 52T388 44T496 56Q521 78 547 178L561 232H598Q595 206 592 111T589 0H29Z" />
<glyph unicode="F" glyph-name="F" horiz-adv-x="564" d="M120 157L122 421Q122 559 119 661Q118 683 104 690T51 700L36 701V738Q92 734 173 734T300 737L538 738L550 727Q548 719 536 636T523 542H489Q470 644 466 656T451 676Q415 685 341 685T249 679T230
651Q226 431 226 413Q368 413 473 418L463 344H445Q411 368 282 370Q229 370 226 370Q223 148 223 83Q223 52 266 42Q282 39 313 37L351 34V0H29V37Q59 39 75 42T105 55T119 83L120 157Z" />
<glyph unicode="G" glyph-name="G" horiz-adv-x="757" d="M42 374Q42 490 77 572Q98 621 163 677T313 745Q364 752 426 752T560 744T652 723L664 712Q664 662 655 536H620Q593 628 584 651Q564 664 506 677T382 690Q239 690 191 620T142 362Q142 48 428 48Q529
48 575 91V230Q575 253 548 261Q523 268 493 270L468 272L467 306Q521 302 605 302T744 306V269L730 268Q696 266 683 259T669 237V51L658 40Q497 -17 376 -17Q227 -17 138 64Q42 152 42 374Z" />
<glyph unicode="H" glyph-name="H" horiz-adv-x="849" d="M218 370L216 83Q216 52 258 42Q275 39 306 37V0H29V37Q59 39 75 42T105 55T119 83Q119 429 112 661Q111 683 97 690T43 700L29 701V738H306V701L292 700Q253 698 239 691T223 661Q220 484 219 413H630Q629
534 625 661Q624 683 610 690T556 700L542 701V738H819V701L805 700Q766 698 752 691T736 661Q729 461 729 83Q729 52 772 42Q788 39 819 37V0H542V37Q572 39 588 42T618 55T632 83Q632 221 630 370H218Z" />
<glyph unicode="I" glyph-name="I" horiz-adv-x="335" d="M29 0V37Q59 39 75 42T105 55T119 83Q119 429 112 661Q111 683 97 690T43 700L29 701V738H306V701L292 700Q253 698 239 691T223 661Q216 461 216 83Q216 52 258 42Q275 39 306 37V0H29Z" />
<glyph unicode="J" glyph-name="J" horiz-adv-x="312" d="M0 -162L27 -141Q75 -98 89 -52T103 92Q103 598 97 661Q96 684 82 691T29 700L15 701V738H292V701L277 700Q251 698 238 696Q209 690 209 661Q202 56 193 8Q175 -105 64 -170L20 -194L0 -162Z" />
<glyph unicode="K" glyph-name="K" horiz-adv-x="670" d="M224 369L225 83Q225 52 268 42Q284 39 315 37V0H38V37Q68 39 84 42T114 55T128 77T126 202Q121 485 115 661Q114 683 100 690T47 700L32 701V738H218L230 727Q224 601 224 411Q254 412 317 478T429 611T478
684T467 695T419 701V738H651V701Q609 698 596 693T544 654T396 496L332 422Q520 156 608 60L670 36V0Q573 0 518 -4L256 362Q251 369 241 369H224Z" />
<glyph unicode="L" glyph-name="L" horiz-adv-x="558" d="M29 0V37Q61 39 78 42Q119 51 119 83Q119 436 112 661Q111 684 97 691T43 700L29 701V738H319V701L305 700Q277 698 262 696Q223 689 223 661Q216 461 216 83Q216 44 314 44H335Q442 44 456 56Q481 78
507 178L521 232H558Q555 206 552 111T549 0H29Z" />
<glyph unicode="M" glyph-name="M" horiz-adv-x="953" d="M2 701V738H230L239 711L463 155Q585 420 690 711L699 738H927V701Q843 698 826 683Q819 676 819 669T838 116L839 88Q842 57 857 49T920 37V0H643V37Q673 39 689 42T719 55T733 83Q730 276 711 597Q572
292 460 0H421L165 601Q150 343 150 83Q150 47 239 39V0H3V36Q48 41 65 62T86 132Q106 440 109 610L110 666Q110 685 84 691T2 701Z" />
<glyph unicode="N" glyph-name="N" horiz-adv-x="777" d="M109 527L108 620V667Q104 692 65 696L15 701V738H204Q216 703 633 159Q629 215 629 358T625 634Q624 669 610 681T535 700V738H777V702Q710 696 696 675L690 644Q683 401 683 164L685 0H626Q586 60 525
137T426 263Q350 361 164 597V290Q169 99 169 80T191 52T255 39V0H19V36Q97 43 102 80Q109 130 109 450V527Z" />
<glyph unicode="O" glyph-name="O" horiz-adv-x="745" d="M200 -14T121 88T42 352T106 610Q140 661 202 696Q300 751 395 751Q551 751 627 662T704 400T633 122Q585 52 503 19T359 -14Q200 -14 121 88ZM144 379Q144 278 174 202Q188 169 216 132T288 74T405 52Q601
52 601 351Q601 520 548 597T413 687Q404 689 359 689Q260 689 202 616T144 379Z" />
<glyph unicode="P" glyph-name="P" horiz-adv-x="637" d="M225 338L223 83Q223 56 259 48Q289 40 333 37L371 34V0H29V37Q59 39 75 42T105 55T119 83Q122 185 122 372T119 661Q118 683 104 690T50 700L36 701V738Q92 734 178 734T315 739T376 744H396Q455 744
497 727T562 678Q602 621 602 541Q602 487 562 430Q484 322 332 322Q261 322 225 338ZM226 402Q260 372 341 372Q382 372 412 383T456 410T479 448Q490 481 490 516T489 568T480 610Q468 660 413 686Q393 695 384 695Q277 695 242 683L231 672Q228 591 226 402Z"
/>
<glyph unicode="Q" glyph-name="Q" horiz-adv-x="745" d="M200 -14T121 88T42 352T106 610Q140 661 202 696Q300 751 395 751Q551 751 627 662T704 412T656 160T511 23Q603 -78 654 -114Q625 -152 609 -191L595 -195L439 -2Q396 -14 359 -14Q200 -14 121 88ZM144
379Q144 278 174 202Q188 169 216 132T288 74T405 52Q601 52 601 351Q601 520 548 597T413 687Q404 689 359 689Q260 689 202 616T144 379Z" />
<glyph unicode="R" glyph-name="R" horiz-adv-x="669" d="M32 0V37Q62 39 78 42T108 55T122 83Q122 429 115 661Q114 683 100 690T46 700L32 701V738Q88 734 170 734T308 739T372 744H392Q459 744 508 695T558 574T530 463T436 382Q541 176 614 60L669 36V0Q579
0 524 -4L349 357H321Q260 357 222 370Q219 159 219 83Q219 52 262 42Q278 39 309 37V0H32ZM223 424Q251 407 328 407Q375 407 405 432T444 488T454 552T446 612T425 654T398 680Q375 697 359 697Q267 697 237 684L227 673Q225 629 223 424Z" />
<glyph unicode="S" glyph-name="S" horiz-adv-x="519" d="M412 528L379 637Q371 657 363 663Q334 689 269 689T170 666T137 584Q137 520 190 486Q201 478 217 469L369 390Q489 328 489 204Q489 151 476 120T424 44Q370 -15 253 -15Q160 -15 58 30Q65 126 65 232H102L116
178Q130 124 137 109T164 78Q215 56 276 56T366 79T395 165Q395 251 303 300L222 340Q163 371 145 382T115 405L107 414Q57 468 57 537T79 648T169 727Q217 753 294 753T444 715L456 704Q456 654 447 528H412Z" />
<glyph unicode="T" glyph-name="T" horiz-adv-x="608" d="M0 727L11 738H597L608 727Q603 642 603 530H568Q542 624 534 640Q530 652 525 662Q518 669 507 671Q455 681 420 681T360 676Q352 487 352 83Q352 65 370 55T408 41T460 35V0H140V35Q220 42 238 60Q247
69 247 83Q250 277 250 446T248 676Q223 681 188 681T101 671Q90 669 83 662Q78 652 74 640Q66 624 40 530H5Q5 642 0 727Z" />
<glyph unicode="U" glyph-name="U" horiz-adv-x="757" d="M618 356L616 655Q616 691 526 699V738H762V702Q685 693 682 658L681 640Q679 612 675 443T671 224T653 126T608 53T537 11T454 -9T359 -14T257 4T186 47T144 106Q118 160 118 214Q116 639 114 660T96
689T34 701V738H310V701Q278 699 262 696Q220 687 220 655L221 390V310Q222 255 222 215T232 150T264 102T331 62T429 46T516 57T569 89T600 150Q618 218 618 356Z" />
<glyph unicode="V" glyph-name="V" horiz-adv-x="750" d="M0 701V738H276V701Q202 695 202 666V662Q202 645 283 411T391 121Q441 233 519 434T597 655T582 685T514 699V738H750V702Q710 698 692 676T636 566L401 0H337L78 638Q65 670 50 684T0 701Z" />
<glyph unicode="W" glyph-name="W" horiz-adv-x="1000" d="M0 701V738H260V701Q208 697 192 691T175 665T230 428T302 167Q331 240 394 444T458 666T441 691T382 701V738H659V701Q591 697 591 668Q591 660 614 566Q687 275 730 167Q773 296 821 467T869 658T851
686T786 699V738H1000V702Q976 700 964 691T944 660Q753 34 746 0H672Q655 82 592 280T495 569Q469 500 396 274T314 0H236Q231 41 71 596L58 638Q51 669 39 684T0 701Z" />
<glyph unicode="X" glyph-name="X" horiz-adv-x="646" d="M0 0V36Q26 39 66 77T283 362L78 671Q59 698 17 701V738H294V701Q255 698 241 693T226 675Q226 651 353 444Q411 523 453 589T496 670T483 689T420 699V738H644V702Q601 697 549 630L379 401L511 182Q572
80 591 60T646 37V0H389V37Q464 43 464 66Q464 72 453 92L309 319Q250 240 196 160T142 69Q142 48 224 39V0H0Z" />
<glyph unicode="Y" glyph-name="Y" horiz-adv-x="649" d="M0 701V738H276V701Q227 697 210 690T193 668Q193 645 344 408Q511 647 511 673Q511 687 496 691T441 699V738H649V702Q610 697 594 677L370 367Q367 301 367 189T372 67Q386 41 472 35V0H162V35Q194 38
213 41T249 54T267 83L263 358Q240 399 64 654Q36 698 0 701Z" />
<glyph unicode="Z" glyph-name="Z" horiz-adv-x="661" d="M21 11L467 682Q417 687 382 687T186 683Q171 682 159 666T142 638Q134 622 108 528H74Q70 588 70 727L82 738H613L625 727Q206 136 169 60Q227 50 283 50Q497 50 511 63Q538 85 562 178L572 215H612Q604
95 604 0H33L21 11Z" />
<glyph unicode="[" glyph-name="bracketleft" horiz-adv-x="295" d="M179 -202L111 -204L100 -193V786L111 797Q119 795 182 795T295 797V764Q207 762 196 741Q191 731 190 705V-113Q191 -139 196 -149Q206 -169 295 -171V-205Q220 -202 179 -202Z" />
<glyph unicode="\" glyph-name="backslash" horiz-adv-x="480" d="M-20 797H41L500 -140H437L-20 797Z" />
<glyph unicode="]" glyph-name="bracketright" horiz-adv-x="295" d="M184 -204L116 -202Q75 -202 0 -205V-171Q89 -169 99 -149Q104 -139 105 -113V705Q104 731 99 741Q88 762 0 764V797Q50 795 113 795T184 797L195 786V-193L184 -204Z" />
<glyph unicode="^" glyph-name="asciicircum" horiz-adv-x="480" d="M-3 273L202 734L272 747L483 273L472 261L411 273L240 657L69 273L8 261L-3 273Z" />
<glyph unicode="_" glyph-name="underscore" horiz-adv-x="500" d="M0 -43L500 -42V-98H0V-43Z" />
<glyph unicode="`" glyph-name="grave" horiz-adv-x="500" d="M144 715Q145 733 163 746T202 760Q297 641 356 580L338 559Q251 617 144 715Z" />
<glyph unicode="a" glyph-name="a" horiz-adv-x="478" d="M415 392L411 128Q411 103 433 68T456 27T447 18Q377 -5 369 -5T352 9T336 45T328 67Q313 57 291 42T261 22T237 8T209 -3Q181 -10 134 -10T63 28T40 111T47 183T70 228T102 258T147 278T198 291T259 303T322
316L323 376Q323 422 290 442T211 462T146 439T107 338L66 342Q66 429 96 464Q132 506 174 516T259 526T334 516T380 494T404 460T414 425T415 392ZM130 131Q130 57 197 57Q256 57 316 107Q323 113 323 180T322 277Q304 271 277 262T238 249T207 239T182 228T164
218T149 207T140 194T133 176Q130 148 130 131Z" />
<glyph unicode="b" glyph-name="b" horiz-adv-x="535" d="M10 773Q84 780 120 788T160 797Q177 797 177 782V739L173 462Q292 527 327 527Q439 527 476 460Q509 401 509 280T466 94Q455 79 420 47T350 0T265 -15T159 2T86 47Q85 170 85 320Q85 703 74 725Q68 739
34 740H12L10 773ZM172 353Q171 293 171 201T181 98Q193 83 232 69T309 54T368 66T400 114T415 207T420 301T407 373T371 427Q331 458 289 458T172 419V353Z" />
<glyph unicode="c" glyph-name="c" horiz-adv-x="441" d="M44 120Q30 180 30 249T43 383Q50 413 78 436Q123 478 159 498T213 522T265 525T341 517T396 504Q393 474 393 354H363Q353 398 348 417T304 446T213 456T140 418T119 272Q119 175 143 124Q171 63 255
63Q285 63 319 80T372 116L392 134L413 114Q374 66 345 40T300 6Q215 -38 114 16Q73 53 44 120Z" />
<glyph unicode="d" glyph-name="d" horiz-adv-x="527" d="M357 514L355 664Q355 696 355 708T345 730T326 739T285 741L283 774Q359 781 395 789T434 798Q451 798 451 782Q451 567 448 370T444 138T469 65T495 25T487 20T465 12T432 -1T403 -10T387 6T372 43T359
68Q284 -15 226 -15Q176 -15 110 40Q76 67 53 120T30 235T36 338T49 401T70 442T92 466T117 482L151 502Q194 528 245 528T357 514ZM118 176T157 124T254 71T358 116Q358 291 357 364T355 442Q308 470 237 470Q207 470 189 465T152 440Q118 406 118 291Z" />
<glyph unicode="e" glyph-name="e" horiz-adv-x="467" d="M52 399Q68 436 129 479T239 523T324 512T379 480T411 438T428 386Q436 336 436 310V281Q404 261 331 261H126Q126 154 142 124Q166 80 202 69Q225 62 256 62Q343 62 415 133L437 110Q433 106 418 91T398
70T379 52T358 33T337 18T314 4T290 -6Q267 -15 236 -15Q176 -15 134 8T70 72Q30 145 30 246T52 399ZM128 306H185Q318 306 343 324Q343 367 329 398Q303 458 237 458T150 425T128 306Z" />
<glyph unicode="f" glyph-name="f" horiz-adv-x="365" d="M425 685L424 648L381 647Q360 761 318 761Q282 761 251 684T219 519V504H353L350 448H219Q215 238 215 162T216 79T218 65T224 56T232 50T247 45T266 41T292 37T326 31V0H46V34Q82 39 91 40T112 50T125
68T126 125T120 448H30V482L119 497Q119 618 177 708T344 798Q393 798 409 772T425 685Z" />
<glyph unicode="g" glyph-name="g" horiz-adv-x="475" d="M10 -83Q10 -25 68 14Q96 33 138 51Q59 62 59 105Q59 150 148 177Q97 200 75 225T44 299Q43 303 43 318Q43 372 59 406T135 482T259 524T372 484Q421 486 469 497L475 491V449H396Q404 438 410 405T416
338Q416 269 358 216Q306 186 232 170Q150 149 150 113Q150 99 162 89T193 79H312Q378 79 403 69T451 29T475 -32T461 -91T419 -145T337 -187T233 -204T150 -199T84 -181T31 -143T10 -83ZM96 -54Q96 -100 140 -132T232 -165Q306 -165 342 -132T379 -46Q379 30 262
30Q96 30 96 -54ZM135 324Q135 278 161 249T236 220T303 246T321 340T301 432T223 462Q218 463 209 463Q172 463 154 433T135 324Z" />
<glyph unicode="h" glyph-name="h" horiz-adv-x="565" d="M96 76L97 544Q97 689 87 714T24 740L22 773Q96 780 132 788T172 797Q189 797 189 782L188 717L187 459Q303 524 375 524T470 477T492 321L489 109Q489 61 496 50T540 34V0H350V34Q386 42 393 56T400 131V310Q400
400 387 425T323 451Q293 451 251 438T187 411Q184 295 184 121Q184 65 192 51T241 34V0H37V34Q70 36 83 46T96 76Z" />
<glyph unicode="i" glyph-name="i" horiz-adv-x="282" d="M129 605T109 629T89 665T105 707T140 737T180 719T202 676T182 629T145 605ZM30 0V34Q81 38 94 47T107 87V295Q107 382 103 416T88 459T50 469H35L33 502Q107 509 143 517T183 526Q200 526 200 510Q200
498 199 444Q195 230 195 75Q195 55 211 46T262 34V0H30Z" />
<glyph unicode="j" glyph-name="j" horiz-adv-x="252" d="M111 605T91 629T70 665T87 707T122 737T162 719T184 676T163 629T127 605ZM-5 -185Q1 -177 20 -154T49 -113T71 -66T84 22Q90 152 90 368Q90 434 80 452T33 470H18L16 503Q94 510 128 518T166 527Q183
527 183 511V357Q183 144 174 78T160 -6T144 -54T123 -95T94 -129T58 -165T12 -202L-5 -185Z" />
<glyph unicode="k" glyph-name="k" horiz-adv-x="575" d="M101 145L103 532Q103 649 98 676T90 714T74 731T55 738T25 740L23 773Q99 780 134 788T172 797Q190 797 190 782V739L189 295Q223 295 285 360T347 459Q347 476 326 476Q317 476 312 481T307 494Q307
509 326 510Q360 507 422 507T518 510Q536 510 536 494Q536 482 525 478Q513 473 510 473Q470 457 415 415T325 337L290 302L563 30Q575 18 575 11T566 0H563Q487 0 440 -4Q289 175 260 206T205 246Q194 250 187 253Q188 239 188 217L186 97V80Q186 74 187 68T189
59T194 52T199 47T208 43T218 41T231 38T248 34V0H32V34Q60 40 63 41T74 44T83 48T90 55T95 64L100 94L101 145Z" />
<glyph unicode="l" glyph-name="l" horiz-adv-x="284" d="M26 0V34Q34 35 47 37T64 40T76 44T87 49T94 57T99 69T102 85T104 108V323Q104 426 101 652L100 700Q99 725 88 732T44 739H31L29 772Q103 781 139 789T179 798Q196 798 196 783Q198 701 198 578T193 316T188
95Q188 57 199 49T262 34V0H26Z" />
<glyph unicode="m" glyph-name="m" horiz-adv-x="834" d="M379 107L380 389Q380 421 362 436T291 452Q271 452 241 440T192 415Q185 188 185 154V104Q185 88 187 76T191 59T198 48T208 42Q223 40 241 34V0H37V34Q70 36 82 46T95 76Q95 412 88 433Q86 438 79 444T34
455L32 493Q72 497 114 512T168 527T185 516T190 474V460Q196 463 213 473T238 487T260 499T284 510T306 518Q326 526 349 526Q407 526 474 455Q571 526 641 526Q682 526 710 502Q754 463 754 408L752 147Q752 68 760 52T804 34H811V0H607V34Q645 36 654 49T664
111L663 356Q663 385 661 399T651 427T624 447T575 452T473 414Q472 284 472 147L474 83Q474 71 478 64T482 52T490 44T499 40T513 37T529 34V0H325V34Q362 36 370 49T379 107Z" />
<glyph unicode="n" glyph-name="n" horiz-adv-x="563" d="M32 493Q73 497 114 512T168 527T186 516T191 474V460Q306 525 371 525T462 490T487 408V74Q487 52 496 44T540 34V0H336V34Q374 37 383 46T393 78V395Q393 420 378 433T346 449T308 452T250 441T194 415Q193
356 191 292Q187 162 187 113T197 50T246 34V0H36V34Q66 38 78 45T94 68Q98 94 98 128T95 290T91 422T89 431T85 439T81 444T75 448T69 450T62 452T54 454Q48 455 35 455L32 493Z" />
<glyph unicode="o" glyph-name="o" horiz-adv-x="517" d="M58 88T44 139T30 269T71 415Q98 457 165 491T276 526Q365 526 428 469T491 292T447 104Q388 25 332 0Q294 -17 253 -17T186 -12T131 12T80 59ZM125 148T166 101T287 54Q317 54 331 59Q400 86 400 267Q400
352 378 391T300 448Q272 455 249 455T216 454T188 448T162 432T143 400Q125 364 125 256Z" />
<glyph unicode="p" glyph-name="p" horiz-adv-x="554" d="M189 57Q185 -67 185 -103T196 -150T245 -169V-203H41V-171Q73 -167 86 -157T99 -128Q98 -34 98 415Q98 451 88 460T32 469L30 502Q108 509 142 517T180 526Q198 526 198 510Q198 509 197 485T195 454Q203
458 234 479Q305 526 360 526Q389 526 421 510T474 473T511 406T528 302Q528 158 469 76T316 -6Q270 -6 251 1T223 14T208 26T199 38T193 49T189 57ZM194 412L189 226Q189 121 210 82T292 42T392 98T432 272Q432 449 317 449Q266 449 194 412Z" />
<glyph unicode="q" glyph-name="q" horiz-adv-x="539" d="M498 -167L505 -169V-203H301V-171Q339 -164 350 -146T362 -70T359 59Q263 -12 197 -12Q115 -12 73 59T30 230Q30 396 122 458Q180 497 211 511T264 525T353 514T505 502V468Q476 456 467 445T455 398Q446
294 446 113T447 -90T450 -127T460 -149Q472 -159 484 -163T498 -167ZM126 236Q126 144 160 102T244 60T337 91Q359 107 359 152V418Q357 443 314 450Q279 457 254 457Q126 457 126 236Z" />
<glyph unicode="r" glyph-name="r" horiz-adv-x="398" d="M194 362L193 91Q193 60 211 51T265 36T305 31V0H25V34Q49 37 57 37T77 43T92 53T98 73T102 103V182Q102 383 95 418Q87 457 37 457L35 495Q75 499 117 514T171 529T188 518T193 476L194 438Q282 523 333
523Q370 523 384 514T398 481Q398 473 382 373H346Q341 448 295 448Q269 448 232 425T194 362Z" />
<glyph unicode="s" glyph-name="s" horiz-adv-x="387" d="M96 246T71 277T45 357T62 432Q98 490 130 507T212 525T302 508Q313 504 318 500Q336 489 336 459Q336 456 335 444Q333 418 333 361H296Q295 374 288 399T271 437Q251 466 196 466Q143 466 126 440Q112
419 112 394T137 349T198 317T270 291T332 243T357 157T342 80Q315 37 278 8Q263 -3 231 -10T183 -17Q76 -17 55 19Q47 32 47 53Q47 134 51 152T72 171T93 157T100 118Q111 47 198 47Q242 47 267 67T292 121T267 176T205 207T132 232Z" />
<glyph unicode="t" glyph-name="t" horiz-adv-x="335" d="M94 188L97 448H10V478L97 495V587L174 611Q189 611 189 596L187 535V504H314L311 448H187L184 201Q184 124 193 90T229 56T304 85L325 65Q248 -15 199 -15Q134 -15 114 29T94 188Z" />
<glyph unicode="u" glyph-name="u" horiz-adv-x="556" d="M391 148L393 385Q393 457 380 464Q373 468 355 468H323L321 501Q399 508 433 516T471 525Q489 525 489 510Q489 384 485 265T481 124T503 67T526 26T517 17Q447 -6 439 -6T422 8T406 44T398 66Q338 24
288 8T208 -9T144 20T99 92Q89 124 89 216V377Q89 402 80 446Q78 453 67 458T50 463T24 464L22 498Q86 505 123 515T164 525Q182 525 182 510L178 218Q178 144 186 120T213 83T250 70T302 77T357 95T385 115T391 148Z" />
<glyph unicode="v" glyph-name="v" horiz-adv-x="492" d="M412 509L478 513Q492 513 492 498Q492 495 491 493T486 484T477 470T462 443T440 400Q386 290 322 113Q287 16 280 5T266 -10Q257 -15 238 -15T209 2T182 79T156 166T132 249T106 338Q76 441 50 458Q40
465 23 466T2 468L0 501Q69 510 104 519T143 529Q160 529 160 514Q160 485 238 200L265 105Q371 385 371 446Q371 473 353 473T335 493Q335 511 369 511L412 509Z" />
<glyph unicode="w" glyph-name="w" horiz-adv-x="811" d="M721 509L797 513Q811 513 811 498Q811 494 808 490T794 473T770 436Q713 337 631 113Q596 16 589 5T575 -10Q566 -15 547 -15T518 2T491 79T464 168T438 259T414 343L371 241Q322 116 313 89T298 49T288
25T279 7T272 -4T263 -11Q253 -15 235 -15T208 1T182 77T156 163T136 232T116 304T97 365Q69 454 40 463Q30 466 18 466T2 468L0 501Q68 510 103 519T142 529Q160 529 160 514Q160 485 238 200L265 105Q370 384 370 444Q370 456 362 473T354 495Q354 513 428 513Q444
513 450 512T459 510T465 507T468 504Q472 503 472 498Q477 456 553 182L574 105Q680 385 680 446Q680 463 675 469T662 476Q644 474 644 492T678 511L721 509Z" />
<glyph unicode="x" glyph-name="x" horiz-adv-x="453" d="M372 512L430 514Q450 514 450 493Q450 481 433 478Q411 473 392 446Q350 395 284 295Q428 69 440 42T453 2Q453 -18 436 -18Q405 -18 355 40T223 224Q211 205 196 183T173 148T155 120T140 96T130 78Q122
62 122 54Q122 40 159 34V0H-5V34Q17 36 24 40Q42 50 73 92T190 266Q167 303 143 342T109 398T87 431T66 454Q46 466 19 469L17 502Q52 506 86 516T126 526T137 525T146 520T155 512T165 498T176 480T189 456T206 425T227 387T252 341Q329 449 329 459T323 475T310
481Q292 481 292 497Q292 504 299 509T315 514L372 512Z" />
<glyph unicode="y" glyph-name="y" horiz-adv-x="492" d="M412 509L478 513Q492 513 492 498Q492 495 491 493T486 484T477 470T462 443T440 400Q417 352 371 241Q280 13 227 -154Q214 -194 210 -201T193 -208Q127 -208 127 -179Q127 -163 162 -107T198 -16T141
220T59 450Q49 463 38 464T16 466T2 468L0 501Q66 510 102 519T143 529Q160 529 160 514Q160 485 238 200L265 105Q371 388 371 446Q371 473 353 473T335 493Q335 511 369 511L412 509Z" />
<glyph unicode="z" glyph-name="z" horiz-adv-x="516" d="M479 -14L480 -30L436 -27Q436 -5 421 -1T342 4T44 0L33 26L340 457Q340 461 238 461Q212 461 193 461T156 455T133 444T118 418T105 380T92 321H54Q56 369 57 429T62 499T79 509L234 506L447 510Q476
510 476 490T413 394L387 362Q316 273 266 198Q184 78 184 56Q184 51 197 51Q291 51 372 60Q394 63 407 73T421 85T425 96T449 182L491 179Q479 69 479 -14Z" />
<glyph unicode="{" glyph-name="braceleft" horiz-adv-x="388" d="M50 282L56 314Q120 330 160 343Q171 359 172 454T181 647T212 768Q282 785 379 801L388 768Q333 756 284 740Q275 726 272 664T267 516T257 384Q252 352 215 326T154 297Q176 295 214 269T257
211Q265 164 267 79T272 -68T284 -145Q324 -159 388 -175L379 -208Q254 -185 212 -175Q188 -152 181 -53T172 142T160 253Q114 268 50 282Z" />
<glyph unicode="|" glyph-name="bar" horiz-adv-x="240" d="M81 -203V797H159V-203H81Z" />
<glyph unicode="}" glyph-name="braceright" horiz-adv-x="388" d="M0 -175Q64 -159 104 -145Q113 -131 116 -69T121 79T131 211Q136 243 174 269T234 297Q211 300 174 326T131 384Q123 431 121 516T116 663T104 740Q55 756 0 768L9 801Q106 785 176 768Q200 744
207 647T215 455T228 343Q284 325 338 313L332 281Q277 269 228 253Q218 239 217 143T208 -53T176 -175Q134 -185 9 -208L0 -175Z" />
<glyph unicode="~" glyph-name="asciitilde" horiz-adv-x="480" d="M2 286Q33 328 65 352T139 377T251 346T344 314Q381 314 424 373L477 340Q418 248 339 248Q300 248 231 279T131 311T55 252L2 286Z" />
<glyph unicode="&#xa1;" glyph-name="exclamdown" horiz-adv-x="240" d="M56 1Q93 463 110 553L143 547L148 463Q170 72 170 7Q99 -3 68 -10L56 1ZM114 601T92 638T69 690T93 732T135 759Q149 759 166 718T183 665T166 627T131 601Z" />
<glyph unicode="&#xa2;" glyph-name="cent" horiz-adv-x="480" d="M63 120Q49 180 49 249T62 383Q69 413 97 436Q181 513 238 523V613H279V525Q318 525 360 517T415 504Q412 474 412 354H382Q372 398 366 418Q359 445 279 454V63Q308 64 341 82T392 117L411 134L432
114Q396 69 365 42T316 5T279 -10V-91H238V-14Q190 -14 133 16Q92 53 63 120ZM179 456T159 418T138 281T159 130T238 66V456Q179 456 159 418Z" />
<glyph unicode="&#xa3;" glyph-name="sterling" horiz-adv-x="488" d="M25 33Q53 39 66 49T91 106T105 246H46V286H105Q106 294 107 313T110 338T113 357T118 377Q126 396 138 413Q225 530 320 530Q356 530 415 507L400 386H377Q367 428 353 461Q321 483 289 483T234
458T208 385T201 286H372V246H198Q192 119 140 60Q199 57 259 57T370 66L379 86L395 150H424Q424 40 428 0Q230 3 156 3T36 0L25 33Z" />
<glyph unicode="&#xa6;" glyph-name="brokenbar" horiz-adv-x="240" d="M81 200H159V-203H81V200ZM81 394V797H159V394H81Z" />
<glyph unicode="&#xa7;" glyph-name="section" horiz-adv-x="480" d="M116 154T83 190T50 278T67 357T128 416L179 451Q77 509 77 604Q77 679 143 733Q195 776 275 776Q303 776 339 765T397 738Q392 703 392 594H355Q354 608 346 642T328 689T293 711T234 721T173
698T145 639T173 572T271 503L329 472Q376 446 403 414T430 319T401 222T307 161L343 139Q368 124 382 105Q415 56 415 -1Q415 -98 335 -164Q287 -203 219 -203Q123 -203 80 -162Q86 -120 86 -16H121Q128 -82 150 -114T224 -147T312 -121T347 -42Q347 -26 341 -2Q319
31 295 50T193 111ZM134 303Q134 252 207 214L263 185Q269 185 288 195T330 234T352 297T321 361T259 407L228 422Q134 394 134 303Z" />
<glyph unicode="&#xa8;" glyph-name="dieresis" horiz-adv-x="500" d="M138 584T118 609T97 645T113 687T148 717T188 699T210 656T190 608T154 584ZM325 584T305 609T284 645T301 687T336 717T376 699T398 656T377 608T341 584Z" />
<glyph unicode="&#xa9;" glyph-name="copyright" horiz-adv-x="776" d="M237 -18T137 86T36 338T140 585T390 686T638 584T740 333T637 83T385 -18ZM265 638T175 552T85 338T171 121T386 31T603 119T692 335T601 551T388 638ZM230 222Q219 273 219 329T229 435Q235
456 238 459Q282 502 315 523T363 547T424 550T515 533Q513 517 513 411H488L476 464Q472 478 441 486T367 494T308 464T291 360T300 250Q311 220 332 196Q360 173 388 173T446 188T494 218L512 233L529 217L439 119Q395 112 387 112Q332 112 287 138Q253 168 230
222Z" />
<glyph unicode="&#xaa;" glyph-name="ordfeminine" horiz-adv-x="310" d="M74 441T57 457T40 504T47 551T64 577T93 594T126 604T168 611T210 619V665Q210 676 182 687T134 699T102 682T84 646L80 629H55L62 702Q118 734 162 734T249 708Q264 698 267 686L265
494Q266 479 279 472T310 464V449Q285 449 246 442L234 440L214 482L147 442L124 439Q74 441 57 457ZM94 517Q94 476 140 476Q151 476 173 483L211 506L210 597Q169 589 112 565Q94 553 94 517Z" />
<glyph unicode="&#xab;" glyph-name="guillemotleft" horiz-adv-x="523" d="M28 245Q67 273 148 344T250 437L282 421L129 242L280 65L251 50Q111 188 28 245ZM225 245Q264 273 345 344T447 437L479 421L325 242L477 65L448 50Q308 188 225 245Z" />
<glyph unicode="&#xad;" glyph-name="softhyphen" horiz-adv-x="270" d="M17 250L31 316H242L253 305L241 250H17Z" />
<glyph unicode="&#xae;" glyph-name="registered" horiz-adv-x="625" d="M190 251T120 326T50 512T128 700T320 779T505 703T575 517T499 329T315 251Q190 251 120 326ZM223 742T160 675T97 513T157 353T313 287T470 354T532 515T472 675T317 742ZM179 372V390Q218
392 218 408Q218 553 215 633Q215 641 208 644Q208 644 179 649V667Q191 666 233 666T300 668T328 670H337Q366 670 388 650T410 601T398 557T356 525Q403 442 435 396L459 387V372Q420 372 395 370L318 515H306Q277 515 262 520Q261 464 261 408Q261 392 301 390V372Q289
373 240 373T179 372ZM264 638L263 544Q274 537 306 537T351 554T364 592T354 627Q339 647 322 647Q282 647 269 642L264 638Z" />
<glyph unicode="&#xaf;" glyph-name="overscore" horiz-adv-x="500" d="M125 602L138 663H375L363 602H125Z" />
<glyph unicode="&#xb0;" glyph-name="degree" horiz-adv-x="310" d="M40 576Q40 624 67 658Q83 679 121 696T183 714Q229 714 262 688T295 599T265 503Q259 495 239 477Q200 442 149 442Q111 442 78 464Q40 490 40 576ZM128 678T110 658T92 579T113 499T176 478Q190
478 200 480Q244 496 244 598Q244 678 164 678Q128 678 110 658Z" />
<glyph unicode="&#xb1;" glyph-name="plusminus" horiz-adv-x="480" d="M11 275L25 341H208V501L264 514L275 502L274 341H460L472 330L459 275H275L274 117L208 103V275H11ZM11 0L25 66H460L472 55L459 0H11Z" />
<glyph unicode="&#xb4;" glyph-name="acute" horiz-adv-x="500" d="M144 579Q203 640 298 759Q319 759 337 746T356 714Q249 616 162 558L144 579Z" />
<glyph unicode="&#xb6;" glyph-name="paragraph" horiz-adv-x="480" d="M63 430T47 467T30 546T38 618T57 667T91 701T131 722T180 732Q230 738 290 738H419V-170H383V703H305V-170H270V348H241Q193 348 152 367T87 408Z" />
<glyph unicode="&#xb7;" glyph-name="middot" horiz-adv-x="250" d="M97 208T80 249T63 302T80 340T115 366T154 329T177 277T153 235T111 208Q97 208 80 249Z" />
<glyph unicode="&#xb8;" glyph-name="cedilla" horiz-adv-x="500" d="M176 -168Q223 -168 248 -157T274 -130T254 -104T201 -91L189 -80L220 8L244 6L234 -43Q324 -61 324 -119Q324 -162 296 -182Q285 -190 265 -199Q242 -203 178 -206L176 -168Z" />
<glyph unicode="&#xba;" glyph-name="ordmasculine" horiz-adv-x="350" d="M65 475T53 507T40 588T60 666T121 714T189 733Q243 733 281 702T319 604T292 501Q287 493 266 473T222 443T173 434T126 440T86 460ZM98 525T123 500T195 474Q216 474 222 476Q264 491
264 591Q264 637 251 659T203 690Q191 694 172 694T144 692T122 682Q98 666 98 596Z" />
<glyph unicode="&#xbb;" glyph-name="guillemotright" horiz-adv-x="523" d="M45 421L77 437Q93 420 176 347T298 245Q219 190 75 50L46 65L198 242L45 421ZM242 421L273 437Q293 417 374 345T495 245Q416 190 272 50L243 65L395 242L242 421Z" />
<glyph unicode="&#xbf;" glyph-name="questiondown" horiz-adv-x="445" d="M56 232Q56 429 230 429Q274 429 313 402Q324 505 327 521L360 515L371 307Q310 359 263 359Q193 359 164 325T134 224Q134 192 142 140T169 70T224 52T282 56T317 66T338 82T348 101T352
123T357 144H382Q386 64 386 51Q386 16 363 3T285 -10T196 2T141 32T102 69Q73 102 69 117Q56 182 56 232ZM331 569T309 606T286 658T310 700T352 727Q366 727 383 686T400 633T383 595T348 569Z" />
<glyph unicode="&#xc0;" glyph-name="Agrave" horiz-adv-x="755" d="M217 923V927Q217 944 232 959T266 977Q372 882 448 827L435 803Q392 822 323 860T217 923ZM0 0V36Q33 39 49 50T83 94T134 210L342 730Q349 735 374 739T410 743Q666 110 674 94T690 69T715
49T755 36V0H469V34Q558 41 558 78Q558 105 537 153L518 197Q506 224 497 249H208Q190 208 168 151T146 83Q146 47 236 39V0H0ZM222 292H484L351 621L222 292Z" />
<glyph unicode="&#xc1;" glyph-name="Aacute" horiz-adv-x="755" d="M305 827Q381 882 487 977Q506 974 521 959T536 927V923Q499 899 430 861T318 803L305 827ZM0 0V36Q33 39 49 50T83 94T134 210L342 730Q349 735 374 739T410 743Q666 110 674 94T690 69T715
49T755 36V0H469V34Q558 41 558 78Q558 105 537 153L518 197Q506 224 497 249H208Q190 208 168 151T146 83Q146 47 236 39V0H0ZM222 292H484L351 621L222 292Z" />
<glyph unicode="&#xc2;" glyph-name="Acircumflex" horiz-adv-x="755" d="M263 811Q314 865 365 934H405Q448 871 503 812L484 795L381 863L281 793L263 811ZM0 0V36Q33 39 49 50T83 94T134 210L342 730Q349 735 374 739T410 743Q666 110 674 94T690 69T715 49T755
36V0H469V34Q558 41 558 78Q558 105 537 153L518 197Q506 224 497 249H208Q190 208 168 151T146 83Q146 47 236 39V0H0ZM222 292H484L351 621L222 292Z" />
<glyph unicode="&#xc3;" glyph-name="Atilde" horiz-adv-x="755" d="M218 830Q234 854 274 891T328 929T380 907T454 876Q485 885 521 919L536 907Q520 883 485 850T435 816T374 842T310 869Q277 859 231 816L218 830ZM0 0V36Q33 39 49 50T83 94T134 210L342 730Q349
735 374 739T410 743Q666 110 674 94T690 69T715 49T755 36V0H469V34Q558 41 558 78Q558 105 537 153L518 197Q506 224 497 249H208Q190 208 168 151T146 83Q146 47 236 39V0H0ZM222 292H484L351 621L222 292Z" />
<glyph unicode="&#xc4;" glyph-name="Adieresis" horiz-adv-x="755" d="M272 812T252 837T231 873T247 915T282 945T322 927T344 884T324 836T288 812ZM459 812T439 837T418 873T435 915T470 945T510 927T532 884T511 836T475 812ZM0 0V36Q33 39 49 50T83 94T134
210L342 730Q349 735 374 739T410 743Q666 110 674 94T690 69T715 49T755 36V0H469V34Q558 41 558 78Q558 105 537 153L518 197Q506 224 497 249H208Q190 208 168 151T146 83Q146 47 236 39V0H0ZM222 292H484L351 621L222 292Z" />
<glyph unicode="&#xc5;" glyph-name="Aring" horiz-adv-x="755" d="M292 884Q292 912 307 935Q317 949 341 960T390 972T437 953T460 895T444 832Q416 804 402 798T369 792Q292 792 292 884ZM384 825Q395 825 398 826Q420 835 420 885Q420 909 413 920Q402 939
371 939Q358 939 352 937Q334 931 334 878T384 825ZM0 0V36Q33 39 49 50T83 94T134 210L342 730Q349 735 374 739T410 743Q666 110 674 94T690 69T715 49T755 36V0H469V34Q558 41 558 78Q558 105 537 153L518 197Q506 224 497 249H208Q190 208 168 151T146 83Q146
47 236 39V0H0ZM222 292H484L351 621L222 292Z" />
<glyph unicode="&#xc6;" glyph-name="AE" horiz-adv-x="1033" d="M157 77Q157 45 236 39V0H0V36Q33 39 51 50T95 95T167 210L430 673Q434 678 434 683T432 691T424 696Q404 700 378 700L364 701V738Q418 734 533 734T694 737L956 738L968 727Q966 716 954 634T941
542H907Q907 542 886 650Q878 670 870 676Q822 685 742 685T643 679T624 651Q622 597 620 413Q762 413 867 418L857 344H839Q803 370 619 370L617 83Q617 59 653 52T781 44T889 56Q913 77 940 178L954 232H991Q982 109 982 0H423V37Q453 39 469 42T499 55T513 83Q513
85 515 249H249Q235 229 196 161T157 77ZM270 292H515Q516 330 516 441T513 661Q512 669 508 675T496 681T485 671L270 292Z" />
<glyph unicode="&#xc7;" glyph-name="Ccedilla" horiz-adv-x="728" d="M73 366Q73 490 108 572Q129 621 194 677T344 745Q395 752 461 752Q590 752 643 723L655 712Q655 676 645 536H611Q576 660 561 671Q488 690 413 690Q270 690 222 620T173 362Q173 153 307
72Q362 38 437 38T579 89Q589 107 608 178L622 232H659Q655 191 655 33Q536 -10 437 -16H374L369 -43Q459 -61 459 -119Q459 -142 450 -158T430 -182T400 -199Q377 -203 313 -206L310 -168Q357 -168 382 -157T408 -130T388 -104T335 -91L323 -80L347 -13Q73 18
73 366Z" />
<glyph unicode="&#xc8;" glyph-name="Egrave" horiz-adv-x="640" d="M175 923V927Q175 944 190 959T224 977Q330 882 406 827L393 803Q350 822 281 860T175 923ZM29 0V37Q59 39 75 42T105 55T119 83Q123 211 123 387T119 661Q118 683 104 690T51 700L37 701V738Q91
734 173 734T300 737L563 738L575 727Q573 719 561 636T548 542H514Q495 644 491 656T476 676Q443 685 356 685T250 679T231 651Q229 597 227 413Q368 413 473 418L463 344H446Q410 370 226 370Q224 222 224 83Q224 59 260 52T388 44T496 56Q521 78 547 178L561
232H598Q595 206 592 111T589 0H29Z" />
<glyph unicode="&#xc9;" glyph-name="Eacute" horiz-adv-x="640" d="M263 827Q339 882 445 977Q464 974 479 959T494 927V923Q457 899 388 861T276 803L263 827ZM29 0V37Q59 39 75 42T105 55T119 83Q123 211 123 387T119 661Q118 683 104 690T51 700L37 701V738Q91
734 173 734T300 737L563 738L575 727Q573 719 561 636T548 542H514Q495 644 491 656T476 676Q443 685 356 685T250 679T231 651Q229 597 227 413Q368 413 473 418L463 344H446Q410 370 226 370Q224 222 224 83Q224 59 260 52T388 44T496 56Q521 78 547 178L561
232H598Q595 206 592 111T589 0H29Z" />
<glyph unicode="&#xca;" glyph-name="Ecircumflex" horiz-adv-x="640" d="M221 811Q272 865 323 934H363Q406 871 461 812L442 795L339 863L239 793L221 811ZM29 0V37Q59 39 75 42T105 55T119 83Q123 211 123 387T119 661Q118 683 104 690T51 700L37 701V738Q91
734 173 734T300 737L563 738L575 727Q573 719 561 636T548 542H514Q495 644 491 656T476 676Q443 685 356 685T250 679T231 651Q229 597 227 413Q368 413 473 418L463 344H446Q410 370 226 370Q224 222 224 83Q224 59 260 52T388 44T496 56Q521 78 547 178L561
232H598Q595 206 592 111T589 0H29Z" />
<glyph unicode="&#xcb;" glyph-name="Edieresis" horiz-adv-x="640" d="M230 812T210 837T189 873T205 915T240 945T280 927T302 884T282 836T246 812ZM417 812T397 837T376 873T393 915T428 945T468 927T490 884T469 836T433 812ZM29 0V37Q59 39 75 42T105 55T119
83Q123 211 123 387T119 661Q118 683 104 690T51 700L37 701V738Q91 734 173 734T300 737L563 738L575 727Q573 719 561 636T548 542H514Q495 644 491 656T476 676Q443 685 356 685T250 679T231 651Q229 597 227 413Q368 413 473 418L463 344H446Q410 370 226 370Q224
222 224 83Q224 59 260 52T388 44T496 56Q521 78 547 178L561 232H598Q595 206 592 111T589 0H29Z" />
<glyph unicode="&#xcc;" glyph-name="Igrave" horiz-adv-x="335" d="M7 923V927Q7 944 22 959T56 977Q162 882 238 827L225 803Q182 822 113 860T7 923ZM29 0V37Q59 39 75 42T105 55T119 83Q119 429 112 661Q111 683 97 690T43 700L29 701V738H306V701L292 700Q253
698 239 691T223 661Q216 461 216 83Q216 52 258 42Q275 39 306 37V0H29Z" />
<glyph unicode="&#xcd;" glyph-name="Iacute" horiz-adv-x="335" d="M95 827Q171 882 277 977Q296 974 311 959T326 927V923Q289 899 220 861T108 803L95 827ZM29 0V37Q59 39 75 42T105 55T119 83Q119 429 112 661Q111 683 97 690T43 700L29 701V738H306V701L292
700Q253 698 239 691T223 661Q216 461 216 83Q216 52 258 42Q275 39 306 37V0H29Z" />
<glyph unicode="&#xce;" glyph-name="Icircumflex" horiz-adv-x="335" d="M53 811Q104 865 155 934H195Q238 871 293 812L274 795L171 863L71 793L53 811ZM29 0V37Q59 39 75 42T105 55T119 83Q119 429 112 661Q111 683 97 690T43 700L29 701V738H306V701L292 700Q253
698 239 691T223 661Q216 461 216 83Q216 52 258 42Q275 39 306 37V0H29Z" />
<glyph unicode="&#xcf;" glyph-name="Idieresis" horiz-adv-x="335" d="M62 812T42 837T21 873T37 915T72 945T112 927T134 884T114 836T78 812ZM249 812T229 837T208 873T225 915T260 945T300 927T322 884T301 836T265 812ZM29 0V37Q59 39 75 42T105 55T119 83Q119
429 112 661Q111 683 97 690T43 700L29 701V738H306V701L292 700Q253 698 239 691T223 661Q216 461 216 83Q216 52 258 42Q275 39 306 37V0H29Z" />
<glyph unicode="&#xd1;" glyph-name="Ntilde" horiz-adv-x="777" d="M239 830Q255 854 295 891T349 929T401 907T475 876Q506 885 542 919L557 907Q541 883 506 850T456 816T395 842T331 869Q298 859 252 816L239 830ZM109 527L108 620V667Q104 692 65 696L15
701V738H204Q216 703 633 159Q629 215 629 358T625 634Q624 669 610 681T535 700V738H777V702Q710 696 696 675L690 644Q683 401 683 164L685 0H626Q586 60 525 137T426 263Q350 361 164 597V290Q169 99 169 80T191 52T255 39V0H19V36Q97 43 102 80Q109 130 109
450V527Z" />
<glyph unicode="&#xd2;" glyph-name="Ograve" horiz-adv-x="745" d="M227 923V927Q227 944 242 959T276 977Q382 882 458 827L445 803Q402 822 333 860T227 923ZM200 -14T121 88T42 352T106 610Q140 661 202 696Q300 751 395 751Q551 751 627 662T704 400T633
122Q585 52 503 19T359 -14Q200 -14 121 88ZM144 379Q144 278 174 202Q188 169 216 132T288 74T405 52Q601 52 601 351Q601 520 548 597T413 687Q404 689 359 689Q260 689 202 616T144 379Z" />
<glyph unicode="&#xd3;" glyph-name="Oacute" horiz-adv-x="745" d="M315 827Q391 882 497 977Q516 974 531 959T546 927V923Q509 899 440 861T328 803L315 827ZM200 -14T121 88T42 352T106 610Q140 661 202 696Q300 751 395 751Q551 751 627 662T704 400T633
122Q585 52 503 19T359 -14Q200 -14 121 88ZM144 379Q144 278 174 202Q188 169 216 132T288 74T405 52Q601 52 601 351Q601 520 548 597T413 687Q404 689 359 689Q260 689 202 616T144 379Z" />
<glyph unicode="&#xd4;" glyph-name="Ocircumflex" horiz-adv-x="745" d="M273 811Q324 865 375 934H415Q458 871 513 812L494 795L391 863L291 793L273 811ZM200 -14T121 88T42 352T106 610Q140 661 202 696Q300 751 395 751Q551 751 627 662T704 400T633 122Q585
52 503 19T359 -14Q200 -14 121 88ZM144 379Q144 278 174 202Q188 169 216 132T288 74T405 52Q601 52 601 351Q601 520 548 597T413 687Q404 689 359 689Q260 689 202 616T144 379Z" />
<glyph unicode="&#xd5;" glyph-name="Otilde" horiz-adv-x="745" d="M228 830Q244 854 284 891T338 929T390 907T464 876Q495 885 531 919L546 907Q530 883 495 850T445 816T384 842T320 869Q287 859 241 816L228 830ZM200 -14T121 88T42 352T106 610Q140 661
202 696Q300 751 395 751Q551 751 627 662T704 400T633 122Q585 52 503 19T359 -14Q200 -14 121 88ZM144 379Q144 278 174 202Q188 169 216 132T288 74T405 52Q601 52 601 351Q601 520 548 597T413 687Q404 689 359 689Q260 689 202 616T144 379Z" />
<glyph unicode="&#xd6;" glyph-name="Odieresis" horiz-adv-x="745" d="M282 812T262 837T241 873T257 915T292 945T332 927T354 884T334 836T298 812ZM469 812T449 837T428 873T445 915T480 945T520 927T542 884T521 836T485 812ZM200 -14T121 88T42 352T106
610Q140 661 202 696Q300 751 395 751Q551 751 627 662T704 400T633 122Q585 52 503 19T359 -14Q200 -14 121 88ZM144 379Q144 278 174 202Q188 169 216 132T288 74T405 52Q601 52 601 351Q601 520 548 597T413 687Q404 689 359 689Q260 689 202 616T144 379Z"
/>
<glyph unicode="&#xd8;" glyph-name="Oslash" horiz-adv-x="745" d="M42 358Q42 513 106 610Q140 661 202 696Q300 751 390 751T545 722L579 791L620 772L584 700Q704 618 704 411Q704 100 502 19Q420 -14 357 -14T239 5L205 -63L166 -45L199 23Q120 66 81 153T42
358ZM144 379Q144 192 240 106L507 645Q466 679 413 687Q404 689 359 689Q260 689 202 616T144 379ZM276 79L285 75Q331 52 405 52Q601 52 601 351Q601 524 539 609L276 79Z" />
<glyph unicode="&#xd9;" glyph-name="Ugrave" horiz-adv-x="757" d="M255 923V927Q255 944 270 959T304 977Q410 882 486 827L473 803Q430 822 361 860T255 923ZM618 356L616 655Q616 691 526 699V738H762V702Q685 693 682 658L681 640Q679 612 675 443T671 224T653
126T608 53T537 11T454 -9T359 -14T257 4T186 47T144 106Q118 160 118 214Q116 639 114 660T96 689T34 701V738H310V701Q278 699 262 696Q220 687 220 655L221 390V310Q222 255 222 215T232 150T264 102T331 62T429 46T516 57T569 89T600 150Q618 218 618 356Z"
/>
<glyph unicode="&#xda;" glyph-name="Uacute" horiz-adv-x="757" d="M343 827Q419 882 525 977Q544 974 559 959T574 927V923Q537 899 468 861T356 803L343 827ZM618 356L616 655Q616 691 526 699V738H762V702Q685 693 682 658L681 640Q679 612 675 443T671 224T653
126T608 53T537 11T454 -9T359 -14T257 4T186 47T144 106Q118 160 118 214Q116 639 114 660T96 689T34 701V738H310V701Q278 699 262 696Q220 687 220 655L221 390V310Q222 255 222 215T232 150T264 102T331 62T429 46T516 57T569 89T600 150Q618 218 618 356Z"
/>
<glyph unicode="&#xdb;" glyph-name="Ucircumflex" horiz-adv-x="757" d="M301 811Q352 865 403 934H443Q486 871 541 812L522 795L419 863L319 793L301 811ZM618 356L616 655Q616 691 526 699V738H762V702Q685 693 682 658L681 640Q679 612 675 443T671 224T653
126T608 53T537 11T454 -9T359 -14T257 4T186 47T144 106Q118 160 118 214Q116 639 114 660T96 689T34 701V738H310V701Q278 699 262 696Q220 687 220 655L221 390V310Q222 255 222 215T232 150T264 102T331 62T429 46T516 57T569 89T600 150Q618 218 618 356Z"
/>
<glyph unicode="&#xdc;" glyph-name="Udieresis" horiz-adv-x="757" d="M310 812T290 837T269 873T285 915T320 945T360 927T382 884T362 836T326 812ZM497 812T477 837T456 873T473 915T508 945T548 927T570 884T549 836T513 812ZM618 356L616 655Q616 691 526
699V738H762V702Q685 693 682 658L681 640Q679 612 675 443T671 224T653 126T608 53T537 11T454 -9T359 -14T257 4T186 47T144 106Q118 160 118 214Q116 639 114 660T96 689T34 701V738H310V701Q278 699 262 696Q220 687 220 655L221 390V310Q222 255 222 215T232
150T264 102T331 62T429 46T516 57T569 89T600 150Q618 218 618 356Z" />
<glyph unicode="&#xdd;" glyph-name="Yacute" horiz-adv-x="649" d="M286 827Q362 882 468 977Q487 974 502 959T517 927V923Q480 899 411 861T299 803L286 827ZM0 701V738H276V701Q227 697 210 690T193 668Q193 645 344 408Q511 647 511 673Q511 687 496 691T441
699V738H649V702Q610 697 594 677L370 367Q367 301 367 189T372 67Q386 41 472 35V0H162V35Q194 38 213 41T249 54T267 83L263 358Q240 399 64 654Q36 698 0 701Z" />
<glyph unicode="&#xdf;" glyph-name="germandbls" horiz-adv-x="598" d="M199 519L195 131Q195 65 202 53T256 36Q265 35 269 34V0H26V34Q62 39 71 40T92 50T105 68T106 125T100 448L99 497Q99 618 157 708T324 798Q400 798 442 759T484 663Q484 636 470 610T437
565T405 520T390 465T408 406T453 354T505 306T549 243T568 155T553 80Q523 32 492 8Q477 -3 445 -10T397 -17Q356 -17 317 6T278 53Q278 134 282 152T302 171T324 152T334 109T357 67T415 47T478 66T503 116T483 177T433 235T374 292Q304 361 304 410Q304 469
324 504Q337 526 357 548T386 582Q407 607 407 644T399 707T372 748T323 764T265 737T224 668Q199 590 199 519Z" />
<glyph unicode="&#xe0;" glyph-name="agrave" horiz-adv-x="478" d="M91 715Q92 733 109 746T148 760Q243 641 301 580L285 559Q246 584 185 634T91 715ZM415 392L411 128Q411 103 433 68T456 27T447 18Q377 -5 369 -5T352 9T336 45T328 67Q313 57 291 42T261
22T237 8T209 -3Q181 -10 134 -10T63 28T40 111T47 183T70 228T102 258T147 278T198 291T259 303T322 316L323 376Q323 422 290 442T211 462T146 439T107 338L66 342Q66 429 96 464Q132 506 174 516T259 526T334 516T380 494T404 460T414 425T415 392ZM130 131Q130
57 197 57Q256 57 316 107Q323 113 323 180T322 277Q304 271 277 262T238 249T207 239T182 228T164 218T149 207T140 194T133 176Q130 148 130 131Z" />
<glyph unicode="&#xe1;" glyph-name="aacute" horiz-adv-x="478" d="M189 579Q247 640 342 759Q363 759 381 746T400 714Q293 616 206 558L189 579ZM415 392L411 128Q411 103 433 68T456 27T447 18Q377 -5 369 -5T352 9T336 45T328 67Q313 57 291 42T261 22T237
8T209 -3Q181 -10 134 -10T63 28T40 111T47 183T70 228T102 258T147 278T198 291T259 303T322 316L323 376Q323 422 290 442T211 462T146 439T107 338L66 342Q66 429 96 464Q132 506 174 516T259 526T334 516T380 494T404 460T414 425T415 392ZM130 131Q130 57
197 57Q256 57 316 107Q323 113 323 180T322 277Q304 271 277 262T238 249T207 239T182 228T164 218T149 207T140 194T133 176Q130 148 130 131Z" />
<glyph unicode="&#xe2;" glyph-name="acircumflex" horiz-adv-x="478" d="M128 581Q201 687 239 752H279Q339 638 376 583L360 570L247 676L148 568L128 581ZM415 392L411 128Q411 103 433 68T456 27T447 18Q377 -5 369 -5T352 9T336 45T328 67Q313 57 291 42T261
22T237 8T209 -3Q181 -10 134 -10T63 28T40 111T47 183T70 228T102 258T147 278T198 291T259 303T322 316L323 376Q323 422 290 442T211 462T146 439T107 338L66 342Q66 429 96 464Q132 506 174 516T259 526T334 516T380 494T404 460T414 425T415 392ZM130 131Q130
57 197 57Q256 57 316 107Q323 113 323 180T322 277Q304 271 277 262T238 249T207 239T182 228T164 218T149 207T140 194T133 176Q130 148 130 131Z" />
<glyph unicode="&#xe3;" glyph-name="atilde" horiz-adv-x="478" d="M343 602Q359 626 399 663T453 701T505 679T579 648Q610 657 646 691L661 679Q645 655 610 622T560 588T499 614T435 641Q402 631 356 588L343 602ZM415 392L411 128Q411 103 433 68T456 27T447
18Q377 -5 369 -5T352 9T336 45T328 67Q313 57 291 42T261 22T237 8T209 -3Q181 -10 134 -10T63 28T40 111T47 183T70 228T102 258T147 278T198 291T259 303T322 316L323 376Q323 422 290 442T211 462T146 439T107 338L66 342Q66 429 96 464Q132 506 174 516T259
526T334 516T380 494T404 460T414 425T415 392ZM130 131Q130 57 197 57Q256 57 316 107Q323 113 323 180T322 277Q304 271 277 262T238 249T207 239T182 228T164 218T149 207T140 194T133 176Q130 148 130 131Z" />
<glyph unicode="&#xe4;" glyph-name="adieresis" horiz-adv-x="478" d="M141 584T121 609T100 645T116 687T151 717T191 699T213 656T193 608T157 584ZM328 584T308 609T287 645T304 687T339 717T379 699T401 656T380 608T344 584ZM415 392L411 128Q411 103 433
68T456 27T447 18Q377 -5 369 -5T352 9T336 45T328 67Q313 57 291 42T261 22T237 8T209 -3Q181 -10 134 -10T63 28T40 111T47 183T70 228T102 258T147 278T198 291T259 303T322 316L323 376Q323 422 290 442T211 462T146 439T107 338L66 342Q66 429 96 464Q132
506 174 516T259 526T334 516T380 494T404 460T414 425T415 392ZM130 131Q130 57 197 57Q256 57 316 107Q323 113 323 180T322 277Q304 271 277 262T238 249T207 239T182 228T164 218T149 207T140 194T133 176Q130 148 130 131Z" />
<glyph unicode="&#xe5;" glyph-name="aring" horiz-adv-x="478" d="M417 656Q417 684 432 707Q442 721 466 732T515 744T562 725T585 667T569 604Q541 576 527 570T494 564Q417 564 417 656ZM509 597Q520 597 523 598Q545 607 545 657Q545 681 538 692Q527 711
496 711Q483 711 477 709Q459 703 459 650T509 597ZM415 392L411 128Q411 103 433 68T456 27T447 18Q377 -5 369 -5T352 9T336 45T328 67Q313 57 291 42T261 22T237 8T209 -3Q181 -10 134 -10T63 28T40 111T47 183T70 228T102 258T147 278T198 291T259 303T322
316L323 376Q323 422 290 442T211 462T146 439T107 338L66 342Q66 429 96 464Q132 506 174 516T259 526T334 516T380 494T404 460T414 425T415 392ZM130 131Q130 57 197 57Q256 57 316 107Q323 113 323 180T322 277Q304 271 277 262T238 249T207 239T182 228T164
218T149 207T140 194T133 176Q130 148 130 131Z" />
<glyph unicode="&#xe6;" glyph-name="ae" horiz-adv-x="760" d="M322 316L323 376Q323 422 290 442T211 462T146 439T107 338L66 342Q66 429 96 464Q132 506 174 516T259 526Q373 526 402 464Q474 523 536 523Q632 523 672 480Q692 458 704 438T722 386Q729 336
729 310V281Q696 261 624 261H419Q419 139 448 102Q480 62 549 62Q636 62 708 133L730 110Q726 106 711 91T691 70T672 52T651 33T630 18T607 4T584 -6Q560 -15 529 -15Q407 -15 355 85L328 67Q313 57 291 42T261 22T237 8T209 -3Q181 -10 134 -10T63 28T40 111T47
183T70 228T102 258T147 278T198 291T259 303T322 316ZM130 131Q130 57 197 57Q256 57 316 107Q323 113 323 180T322 277Q304 271 277 262T238 249T207 239T182 228T164 218T149 207T140 194T133 176Q130 148 130 131ZM421 306H478Q611 306 636 324Q636 367 622
398Q596 458 530 458T443 425T421 306Z" />
<glyph unicode="&#xe7;" glyph-name="ccedilla" horiz-adv-x="441" d="M44 120Q30 180 30 231T36 341T54 413Q138 495 182 512Q208 521 221 523T266 525T339 517T396 504Q392 477 392 354H363L347 418Q342 436 304 446T213 456T139 418T118 293T130 154Q144 118
170 88Q206 59 240 59T311 77T370 115L392 134L413 114L302 -7L289 -9Q271 -13 251 -15H217L211 -43Q301 -61 301 -119Q301 -142 292 -158T272 -182T242 -199Q219 -203 155 -206L152 -168Q200 -168 225 -157T250 -130T231 -104T177 -91L165 -80L190 -11Q149 -4
114 16Q71 55 44 120Z" />
<glyph unicode="&#xe8;" glyph-name="egrave" horiz-adv-x="467" d="M93 715Q94 733 111 746T150 760Q245 641 303 580L287 559Q248 584 187 634T93 715ZM52 399Q68 436 129 479T239 523T324 512T379 480T411 438T428 386Q436 336 436 310V281Q404 261 331 261H126Q126
154 142 124Q166 80 202 69Q225 62 256 62Q343 62 415 133L437 110Q433 106 418 91T398 70T379 52T358 33T337 18T314 4T290 -6Q267 -15 236 -15Q176 -15 134 8T70 72Q30 145 30 246T52 399ZM128 306H185Q318 306 343 324Q343 367 329 398Q303 458 237 458T150
425T128 306Z" />
<glyph unicode="&#xe9;" glyph-name="eacute" horiz-adv-x="467" d="M191 579Q249 640 344 759Q365 759 383 746T402 714Q295 616 208 558L191 579ZM52 399Q68 436 129 479T239 523T324 512T379 480T411 438T428 386Q436 336 436 310V281Q404 261 331 261H126Q126
154 142 124Q166 80 202 69Q225 62 256 62Q343 62 415 133L437 110Q433 106 418 91T398 70T379 52T358 33T337 18T314 4T290 -6Q267 -15 236 -15Q176 -15 134 8T70 72Q30 145 30 246T52 399ZM128 306H185Q318 306 343 324Q343 367 329 398Q303 458 237 458T150
425T128 306Z" />
<glyph unicode="&#xea;" glyph-name="ecircumflex" horiz-adv-x="467" d="M130 581Q203 687 241 752H281Q341 638 378 583L362 570L249 676L150 568L130 581ZM52 399Q68 436 129 479T239 523T324 512T379 480T411 438T428 386Q436 336 436 310V281Q404 261 331
261H126Q126 154 142 124Q166 80 202 69Q225 62 256 62Q343 62 415 133L437 110Q433 106 418 91T398 70T379 52T358 33T337 18T314 4T290 -6Q267 -15 236 -15Q176 -15 134 8T70 72Q30 145 30 246T52 399ZM128 306H185Q318 306 343 324Q343 367 329 398Q303 458
237 458T150 425T128 306Z" />
<glyph unicode="&#xeb;" glyph-name="edieresis" horiz-adv-x="467" d="M143 584T123 609T102 645T118 687T153 717T193 699T215 656T195 608T159 584ZM330 584T310 609T289 645T306 687T341 717T381 699T403 656T382 608T346 584ZM52 399Q68 436 129 479T239
523T324 512T379 480T411 438T428 386Q436 336 436 310V281Q404 261 331 261H126Q126 154 142 124Q166 80 202 69Q225 62 256 62Q343 62 415 133L437 110Q433 106 418 91T398 70T379 52T358 33T337 18T314 4T290 -6Q267 -15 236 -15Q176 -15 134 8T70 72Q30 145
30 246T52 399ZM128 306H185Q318 306 343 324Q343 367 329 398Q303 458 237 458T150 425T128 306Z" />
<glyph unicode="&#xec;" glyph-name="igrave" horiz-adv-x="282" d="M-18 715Q-17 733 0 746T39 760Q134 641 192 580L176 559Q137 584 76 634T-18 715ZM30 0V34Q81 38 94 47T107 87V295Q107 382 103 416T88 459T50 469H35L33 502Q107 509 143 517T183 526Q200
526 200 510Q200 498 199 444Q195 230 195 75Q195 55 211 46T262 34V0H30Z" />
<glyph unicode="&#xed;" glyph-name="iacute" horiz-adv-x="282" d="M80 579Q138 640 233 759Q254 759 272 746T291 714Q184 616 97 558L80 579ZM30 0V34Q81 38 94 47T107 87V295Q107 382 103 416T88 459T50 469H35L33 502Q107 509 143 517T183 526Q200 526 200
510Q200 498 199 444Q195 230 195 75Q195 55 211 46T262 34V0H30Z" />
<glyph unicode="&#xee;" glyph-name="icircumflex" horiz-adv-x="282" d="M275 581Q348 687 386 752H426Q486 638 523 583L507 570L394 676L295 568L275 581ZM30 0V34Q81 38 94 47T107 87V295Q107 382 103 416T88 459T50 469H35L33 502Q107 509 143 517T183 526Q200
526 200 510Q200 498 199 444Q195 230 195 75Q195 55 211 46T262 34V0H30Z" />
<glyph unicode="&#xef;" glyph-name="idieresis" horiz-adv-x="282" d="M30 0V34Q81 38 94 47T107 87V295Q107 382 103 416T88 459T50 469H35L33 502Q107 509 143 517T183 526Q200 526 200 510Q200 498 199 444Q195 230 195 75Q195 55 211 46T262 34V0H30ZM288
584T268 609T247 645T263 687T298 717T338 699T360 656T340 608T304 584ZM475 584T455 609T434 645T451 687T486 717T526 699T548 656T527 608T491 584Z" />
<glyph unicode="&#xf1;" glyph-name="ntilde" horiz-adv-x="563" d="M152 602Q168 626 208 663T262 701T314 679T388 648Q419 657 455 691L470 679Q454 655 419 622T369 588T308 614T244 641Q211 631 165 588L152 602ZM32 493Q73 497 114 512T168 527T186 516T191
474V460Q306 525 371 525T462 490T487 408V74Q487 52 496 44T540 34V0H336V34Q374 37 383 46T393 78V395Q393 420 378 433T346 449T308 452T250 441T194 415Q193 356 191 292Q187 162 187 113T197 50T246 34V0H36V34Q66 38 78 45T94 68Q98 94 98 128T95 290T91
422T89 431T85 439T81 444T75 448T69 450T62 452T54 454Q48 455 35 455L32 493Z" />
<glyph unicode="&#xf2;" glyph-name="ograve" horiz-adv-x="517" d="M113 715Q114 733 131 746T170 760Q265 641 323 580L307 559Q268 584 207 634T113 715ZM58 88T44 139T30 269T71 415Q98 457 165 491T276 526Q365 526 428 469T491 292T447 104Q388 25 332 0Q294
-17 253 -17T186 -12T131 12T80 59ZM125 148T166 101T287 54Q317 54 331 59Q400 86 400 267Q400 352 378 391T300 448Q272 455 249 455T216 454T188 448T162 432T143 400Q125 364 125 256Z" />
<glyph unicode="&#xf3;" glyph-name="oacute" horiz-adv-x="517" d="M211 579Q269 640 364 759Q385 759 403 746T422 714Q315 616 228 558L211 579ZM58 88T44 139T30 269T71 415Q98 457 165 491T276 526Q365 526 428 469T491 292T447 104Q388 25 332 0Q294 -17
253 -17T186 -12T131 12T80 59ZM125 148T166 101T287 54Q317 54 331 59Q400 86 400 267Q400 352 378 391T300 448Q272 455 249 455T216 454T188 448T162 432T143 400Q125 364 125 256Z" />
<glyph unicode="&#xf4;" glyph-name="ocircumflex" horiz-adv-x="517" d="M150 581Q223 687 261 752H301Q361 638 398 583L382 570L269 676L170 568L150 581ZM58 88T44 139T30 269T71 415Q98 457 165 491T276 526Q365 526 428 469T491 292T447 104Q388 25 332
0Q294 -17 253 -17T186 -12T131 12T80 59ZM125 148T166 101T287 54Q317 54 331 59Q400 86 400 267Q400 352 378 391T300 448Q272 455 249 455T216 454T188 448T162 432T143 400Q125 364 125 256Z" />
<glyph unicode="&#xf5;" glyph-name="otilde" horiz-adv-x="517" d="M109 602Q125 626 165 663T219 701T271 679T345 648Q376 657 412 691L427 679Q411 655 376 622T326 588T265 614T201 641Q168 631 122 588L109 602ZM58 88T44 139T30 269T71 415Q98 457 165
491T276 526Q365 526 428 469T491 292T447 104Q388 25 332 0Q294 -17 253 -17T186 -12T131 12T80 59ZM125 148T166 101T287 54Q317 54 331 59Q400 86 400 267Q400 352 378 391T300 448Q272 455 249 455T216 454T188 448T162 432T143 400Q125 364 125 256Z" />
<glyph unicode="&#xf6;" glyph-name="odieresis" horiz-adv-x="517" d="M163 584T143 609T122 645T138 687T173 717T213 699T235 656T215 608T179 584ZM350 584T330 609T309 645T326 687T361 717T401 699T423 656T402 608T366 584ZM58 88T44 139T30 269T71 415Q98
457 165 491T276 526Q365 526 428 469T491 292T447 104Q388 25 332 0Q294 -17 253 -17T186 -12T131 12T80 59ZM125 148T166 101T287 54Q317 54 331 59Q400 86 400 267Q400 352 378 391T300 448Q272 455 249 455T216 454T188 448T162 432T143 400Q125 364 125 256Z"
/>
<glyph unicode="&#xf8;" glyph-name="oslash" horiz-adv-x="517" d="M30 260Q30 348 71 415Q98 457 165 491T277 526T366 509L398 573L433 554L401 490Q491 429 491 300T447 104Q388 25 332 0Q294 -17 245 -17T156 -2L126 -63L92 -45L122 16Q30 81 30 260ZM165
102L330 436L300 448Q272 455 249 455T216 454T188 448T162 432T143 400Q125 364 125 259T165 102ZM195 75Q228 54 272 54T331 59Q400 86 400 267Q400 371 362 412L195 75Z" />
<glyph unicode="&#xf9;" glyph-name="ugrave" horiz-adv-x="556" d="M124 715Q125 733 142 746T181 760Q276 641 334 580L318 559Q279 584 218 634T124 715ZM391 148L393 385Q393 457 380 464Q373 468 355 468H323L321 501Q399 508 433 516T471 525Q489 525 489
510Q489 384 485 265T481 124T503 67T526 26T517 17Q447 -6 439 -6T422 8T406 44T398 66Q338 24 288 8T208 -9T144 20T99 92Q89 124 89 216V377Q89 402 80 446Q78 453 67 458T50 463T24 464L22 498Q86 505 123 515T164 525Q182 525 182 510L178 218Q178 144 186
120T213 83T250 70T302 77T357 95T385 115T391 148Z" />
<glyph unicode="&#xfa;" glyph-name="uacute" horiz-adv-x="556" d="M222 579Q280 640 375 759Q396 759 414 746T433 714Q326 616 239 558L222 579ZM391 148L393 385Q393 457 380 464Q373 468 355 468H323L321 501Q399 508 433 516T471 525Q489 525 489 510Q489
384 485 265T481 124T503 67T526 26T517 17Q447 -6 439 -6T422 8T406 44T398 66Q338 24 288 8T208 -9T144 20T99 92Q89 124 89 216V377Q89 402 80 446Q78 453 67 458T50 463T24 464L22 498Q86 505 123 515T164 525Q182 525 182 510L178 218Q178 144 186 120T213
83T250 70T302 77T357 95T385 115T391 148Z" />
<glyph unicode="&#xfb;" glyph-name="ucircumflex" horiz-adv-x="556" d="M161 581Q234 687 272 752H312Q372 638 409 583L393 570L280 676L181 568L161 581ZM391 148L393 385Q393 457 380 464Q373 468 355 468H323L321 501Q399 508 433 516T471 525Q489 525 489
510Q489 384 485 265T481 124T503 67T526 26T517 17Q447 -6 439 -6T422 8T406 44T398 66Q338 24 288 8T208 -9T144 20T99 92Q89 124 89 216V377Q89 402 80 446Q78 453 67 458T50 463T24 464L22 498Q86 505 123 515T164 525Q182 525 182 510L178 218Q178 144 186
120T213 83T250 70T302 77T357 95T385 115T391 148Z" />
<glyph unicode="&#xfc;" glyph-name="udieresis" horiz-adv-x="556" d="M174 584T154 609T133 645T149 687T184 717T224 699T246 656T226 608T190 584ZM361 584T341 609T320 645T337 687T372 717T412 699T434 656T413 608T377 584ZM391 148L393 385Q393 457 380
464Q373 468 355 468H323L321 501Q399 508 433 516T471 525Q489 525 489 510Q489 384 485 265T481 124T503 67T526 26T517 17Q447 -6 439 -6T422 8T406 44T398 66Q338 24 288 8T208 -9T144 20T99 92Q89 124 89 216V377Q89 402 80 446Q78 453 67 458T50 463T24 464L22
498Q86 505 123 515T164 525Q182 525 182 510L178 218Q178 144 186 120T213 83T250 70T302 77T357 95T385 115T391 148Z" />
<glyph unicode="&#xfd;" glyph-name="yacute" horiz-adv-x="492" d="M207 579Q265 640 360 759Q381 759 399 746T418 714Q311 616 224 558L207 579ZM412 509L478 513Q492 513 492 498Q492 495 491 493T486 484T477 470T462 443T440 400Q417 352 371 241Q280 13
227 -154Q214 -194 210 -201T193 -208Q127 -208 127 -179Q127 -163 162 -107T198 -16T141 220T59 450Q49 463 38 464T16 466T2 468L0 501Q66 510 102 519T143 529Q160 529 160 514Q160 485 238 200L265 105Q371 388 371 446Q371 473 353 473T335 493Q335 511 369
511L412 509Z" />
<glyph unicode="&#xff;" glyph-name="ydieresis" horiz-adv-x="492" d="M159 584T139 609T118 645T134 687T169 717T209 699T231 656T211 608T175 584ZM346 584T326 609T305 645T322 687T357 717T397 699T419 656T398 608T362 584ZM412 509L478 513Q492 513 492
498Q492 495 491 493T486 484T477 470T462 443T440 400Q417 352 371 241Q280 13 227 -154Q214 -194 210 -201T193 -208Q127 -208 127 -179Q127 -163 162 -107T198 -16T141 220T59 450Q49 463 38 464T16 466T2 468L0 501Q66 510 102 519T143 529Q160 529 160 514Q160
485 238 200L265 105Q371 388 371 446Q371 473 353 473T335 493Q335 511 369 511L412 509Z" />
<glyph unicode="&#x2013;" glyph-name="endash" horiz-adv-x="500" d="M26 250L40 316H462L474 305L461 250H26Z" />
<glyph unicode="&#x2014;" glyph-name="emdash" horiz-adv-x="1000" d="M26 250L40 316H962L974 305L961 250H26Z" />
<glyph unicode="&#x2018;" glyph-name="quoteleft" horiz-adv-x="240" d="M112 549T89 585T66 649T103 738T155 798Q157 798 163 793T169 785T150 753T131 701T152 647T174 610T166 590Q141 549 127 549Z" />
<glyph unicode="&#x2019;" glyph-name="quoteright" horiz-adv-x="240" d="M109 669T88 700T66 737T74 756Q99 798 113 798T151 762T174 698T137 609T85 549Q83 549 77 554T71 562T90 594T109 646Z" />
<glyph unicode="&#x201a;" glyph-name="quotesinglbase" horiz-adv-x="240" d="M109 -1T88 30T66 67T74 86Q99 128 113 128T151 92T174 28T137 -61T85 -121Q83 -121 77 -116T71 -108T90 -76T109 -24Z" />
<glyph unicode="&#x201c;" glyph-name="quotedblleft" horiz-adv-x="396" d="M268 549T245 585T222 649T259 738T311 798Q313 798 319 793T325 785T306 753T287 701T308 647T330 610T322 590Q297 549 283 549ZM112 549T89 585T66 649T103 738T155 798Q157 798
163 793T169 785T150 753T131 701T152 647T174 610T166 590Q141 549 127 549Z" />
<glyph unicode="&#x201d;" glyph-name="quotedblright" horiz-adv-x="396" d="M265 669T244 700T222 737T230 756Q255 798 269 798T307 762T330 698T293 609T241 549Q239 549 233 554T227 562T246 594T265 646ZM109 669T88 700T66 737T74 756Q99 798 113 798T151
762T174 698T137 609T85 549Q83 549 77 554T71 562T90 594T109 646Z" />
<glyph unicode="&#x201e;" glyph-name="quotedblbase" horiz-adv-x="396" d="M109 -1T88 30T66 67T74 86Q99 128 113 128T151 92T174 28T137 -61T85 -121Q83 -121 77 -116T71 -108T90 -76T109 -24ZM265 -1T244 30T222 67T230 86Q255 128 269 128T307 92T330 28T293
-61T241 -121Q239 -121 233 -116T227 -108T246 -76T265 -24Z" />
<glyph unicode="&#x2022;" glyph-name="bullet" horiz-adv-x="480" d="M369 351L371 322Q371 311 336 272T260 198Q254 194 246 194T204 217L172 239L143 262Q124 277 117 290T109 329Q109 344 163 400T233 456T306 414T369 351Z" />
<glyph unicode="&#x2039;" glyph-name="guilsinglleft" horiz-adv-x="325" d="M28 245Q67 273 150 346T249 437L281 421L128 242L280 65L251 50Q107 190 28 245Z" />
<glyph unicode="&#x203a;" glyph-name="guilsinglright" horiz-adv-x="326" d="M45 421L76 437Q97 416 178 345T298 245Q223 193 75 50L46 65L198 242L45 421Z" />
</font>
</defs>
</svg>
